{
  "jsonPath": "Animes/Dragonball Gt MIDI Collection/dan-dan-kokoro-hikariteku.json",
  "path": "Animes\\Dragonball Gt MIDI Collection\\Dan Dan Kokoro Hikariteku.mid",
  "name": "Dan Dan Kokoro Hikariteku",
  "difficulty": "Advanced",
  "bpm": 240,
  "notes": [
    {
      "midi": 57,
      "hit": false,
      "t": 3473.2804166666674,
      "d": 57.25187499999947,
      "v": 95
    },
    {
      "midi": 62,
      "hit": false,
      "t": 3478.0514062500006,
      "d": 57.25187499999947,
      "v": 95
    },
    {
      "midi": 67,
      "hit": false,
      "t": 3482.8223958333338,
      "d": 57.25187499999947,
      "v": 95
    },
    {
      "midi": 67,
      "hit": false,
      "t": 3568.700208333333,
      "d": 57.25187499999947,
      "v": 95
    },
    {
      "midi": 62,
      "hit": false,
      "t": 3573.4711979166664,
      "d": 57.25187499999947,
      "v": 95
    },
    {
      "midi": 57,
      "hit": false,
      "t": 3578.2421874999995,
      "d": 57.25187499999947,
      "v": 95
    },
    {
      "midi": 62,
      "hit": false,
      "t": 3664.119999999999,
      "d": 3206.1049999999996,
      "v": 95
    },
    {
      "midi": 36,
      "hit": false,
      "t": 3664.120000000001,
      "d": 9.541979166666806,
      "v": 108
    },
    {
      "midi": 49,
      "hit": false,
      "t": 3664.120000000001,
      "d": 9.541979166666806,
      "v": 90
    },
    {
      "midi": 54,
      "hit": false,
      "t": 3664.120000000001,
      "d": 9.541979166666806,
      "v": 75
    },
    {
      "midi": 67,
      "hit": false,
      "t": 3668.890989583332,
      "d": 3206.1049999999996,
      "v": 95
    },
    {
      "midi": 72,
      "hit": false,
      "t": 3673.6619791666653,
      "d": 3206.1049999999996,
      "v": 95
    },
    {
      "midi": 54,
      "hit": false,
      "t": 3788.1657291666675,
      "d": 9.541979166666806,
      "v": 35
    },
    {
      "midi": 54,
      "hit": false,
      "t": 3893.127500000001,
      "d": 9.541979166666806,
      "v": 55
    },
    {
      "midi": 54,
      "hit": false,
      "t": 4017.1732291666676,
      "d": 9.541979166666806,
      "v": 35
    },
    {
      "midi": 38,
      "hit": false,
      "t": 4117.364010416668,
      "d": 9.541979166666351,
      "v": 96
    },
    {
      "midi": 42,
      "hit": false,
      "t": 4122.135000000001,
      "d": 9.541979166666351,
      "v": 125
    },
    {
      "midi": 54,
      "hit": false,
      "t": 4122.135000000001,
      "d": 9.541979166666351,
      "v": 75
    },
    {
      "midi": 54,
      "hit": false,
      "t": 4246.180729166667,
      "d": 9.541979166666351,
      "v": 35
    },
    {
      "midi": 54,
      "hit": false,
      "t": 4351.1425,
      "d": 9.541979166666351,
      "v": 55
    },
    {
      "midi": 54,
      "hit": false,
      "t": 4475.188229166666,
      "d": 9.541979166666351,
      "v": 35
    },
    {
      "midi": 38,
      "hit": false,
      "t": 4575.379010416666,
      "d": 9.541979166666351,
      "v": 96
    },
    {
      "midi": 42,
      "hit": false,
      "t": 4580.149999999999,
      "d": 9.541979166666351,
      "v": 125
    },
    {
      "midi": 54,
      "hit": false,
      "t": 4580.149999999999,
      "d": 9.541979166666351,
      "v": 75
    },
    {
      "midi": 54,
      "hit": false,
      "t": 4704.195729166665,
      "d": 9.541979166666351,
      "v": 35
    },
    {
      "midi": 36,
      "hit": false,
      "t": 4809.1574999999975,
      "d": 9.541979166666351,
      "v": 108
    },
    {
      "midi": 54,
      "hit": false,
      "t": 4809.1574999999975,
      "d": 9.541979166666351,
      "v": 55
    },
    {
      "midi": 54,
      "hit": false,
      "t": 4933.203229166664,
      "d": 9.541979166666351,
      "v": 35
    },
    {
      "midi": 38,
      "hit": false,
      "t": 5033.394010416663,
      "d": 9.541979166666351,
      "v": 96
    },
    {
      "midi": 42,
      "hit": false,
      "t": 5038.164999999996,
      "d": 9.541979166666351,
      "v": 125
    },
    {
      "midi": 54,
      "hit": false,
      "t": 5038.164999999996,
      "d": 9.541979166666351,
      "v": 75
    },
    {
      "midi": 54,
      "hit": false,
      "t": 5162.2107291666625,
      "d": 9.541979166666351,
      "v": 35
    },
    {
      "midi": 36,
      "hit": false,
      "t": 5267.172499999995,
      "d": 9.541979166666351,
      "v": 108
    },
    {
      "midi": 54,
      "hit": false,
      "t": 5267.172499999995,
      "d": 9.541979166666351,
      "v": 55
    },
    {
      "midi": 54,
      "hit": false,
      "t": 5391.218229166661,
      "d": 9.541979166666351,
      "v": 35
    },
    {
      "midi": 38,
      "hit": false,
      "t": 5491.409010416661,
      "d": 9.541979166666351,
      "v": 96
    },
    {
      "midi": 42,
      "hit": false,
      "t": 5496.179999999994,
      "d": 9.541979166666351,
      "v": 125
    },
    {
      "midi": 54,
      "hit": false,
      "t": 5496.179999999994,
      "d": 9.541979166666351,
      "v": 75
    },
    {
      "midi": 54,
      "hit": false,
      "t": 5620.22572916666,
      "d": 9.541979166666351,
      "v": 35
    },
    {
      "midi": 55,
      "hit": false,
      "t": 5720.416510416668,
      "d": 458.0149999999994,
      "v": 115
    },
    {
      "midi": 36,
      "hit": false,
      "t": 5725.187499999993,
      "d": 9.541979166666351,
      "v": 108
    },
    {
      "midi": 54,
      "hit": false,
      "t": 5725.187499999993,
      "d": 9.541979166666351,
      "v": 55
    },
    {
      "midi": 55,
      "hit": false,
      "t": 5725.187500000001,
      "d": 458.0149999999994,
      "v": 106
    },
    {
      "midi": 55,
      "hit": false,
      "t": 5729.958489583334,
      "d": 458.0149999999994,
      "v": 106
    },
    {
      "midi": 54,
      "hit": false,
      "t": 5849.233229166659,
      "d": 9.541979166666351,
      "v": 35
    },
    {
      "midi": 38,
      "hit": false,
      "t": 5949.424010416658,
      "d": 9.541979166666351,
      "v": 96
    },
    {
      "midi": 53,
      "hit": false,
      "t": 5949.424010416667,
      "d": 229.0074999999997,
      "v": 115
    },
    {
      "midi": 42,
      "hit": false,
      "t": 5954.1949999999915,
      "d": 9.541979166666351,
      "v": 125
    },
    {
      "midi": 54,
      "hit": false,
      "t": 5954.1949999999915,
      "d": 9.541979166666351,
      "v": 75
    },
    {
      "midi": 53,
      "hit": false,
      "t": 5954.195000000001,
      "d": 229.0074999999997,
      "v": 106
    },
    {
      "midi": 53,
      "hit": false,
      "t": 5958.965989583334,
      "d": 229.0074999999997,
      "v": 106
    },
    {
      "midi": 54,
      "hit": false,
      "t": 6078.240729166658,
      "d": 9.541979166666351,
      "v": 35
    },
    {
      "midi": 55,
      "hit": false,
      "t": 6178.431510416667,
      "d": 458.0149999999994,
      "v": 115
    },
    {
      "midi": 36,
      "hit": false,
      "t": 6183.20249999999,
      "d": 9.541979166666351,
      "v": 108
    },
    {
      "midi": 54,
      "hit": false,
      "t": 6183.20249999999,
      "d": 9.541979166666351,
      "v": 55
    },
    {
      "midi": 55,
      "hit": false,
      "t": 6183.2025,
      "d": 458.0149999999994,
      "v": 106
    },
    {
      "midi": 55,
      "hit": false,
      "t": 6187.9734895833335,
      "d": 458.0149999999994,
      "v": 106
    },
    {
      "midi": 54,
      "hit": false,
      "t": 6307.2482291666565,
      "d": 9.541979166666351,
      "v": 35
    },
    {
      "midi": 38,
      "hit": false,
      "t": 6407.439010416656,
      "d": 9.541979166666351,
      "v": 96
    },
    {
      "midi": 52,
      "hit": false,
      "t": 6407.439010416667,
      "d": 229.0074999999997,
      "v": 115
    },
    {
      "midi": 54,
      "hit": false,
      "t": 6412.209999999989,
      "d": 9.541979166666351,
      "v": 75
    },
    {
      "midi": 52,
      "hit": false,
      "t": 6412.21,
      "d": 229.0074999999997,
      "v": 106
    },
    {
      "midi": 55,
      "hit": false,
      "t": 6412.21,
      "d": 916.0300000000016,
      "v": 102
    },
    {
      "midi": 60,
      "hit": false,
      "t": 6412.21,
      "d": 916.0300000000016,
      "v": 102
    },
    {
      "midi": 52,
      "hit": false,
      "t": 6416.980989583333,
      "d": 229.0074999999997,
      "v": 106
    },
    {
      "midi": 38,
      "hit": false,
      "t": 6521.942760416656,
      "d": 9.541979166666351,
      "v": 80
    },
    {
      "midi": 54,
      "hit": false,
      "t": 6536.255729166655,
      "d": 9.541979166666351,
      "v": 35
    },
    {
      "midi": 38,
      "hit": false,
      "t": 6636.446510416655,
      "d": 9.541979166666351,
      "v": 80
    },
    {
      "midi": 55,
      "hit": false,
      "t": 6636.446510416667,
      "d": 458.0149999999994,
      "v": 115
    },
    {
      "midi": 54,
      "hit": false,
      "t": 6641.217499999988,
      "d": 9.541979166666351,
      "v": 55
    },
    {
      "midi": 55,
      "hit": false,
      "t": 6641.2175,
      "d": 458.0149999999994,
      "v": 106
    },
    {
      "midi": 55,
      "hit": false,
      "t": 6645.988489583333,
      "d": 458.0149999999994,
      "v": 106
    },
    {
      "midi": 38,
      "hit": false,
      "t": 6750.950260416655,
      "d": 9.541979166666351,
      "v": 80
    },
    {
      "midi": 54,
      "hit": false,
      "t": 6765.263229166654,
      "d": 9.541979166666351,
      "v": 35
    },
    {
      "midi": 38,
      "hit": false,
      "t": 6865.454010416654,
      "d": 9.541979166666351,
      "v": 96
    },
    {
      "midi": 50,
      "hit": false,
      "t": 6865.454010416666,
      "d": 229.0074999999997,
      "v": 115
    },
    {
      "midi": 54,
      "hit": false,
      "t": 6870.224999999987,
      "d": 9.541979166666351,
      "v": 75
    },
    {
      "midi": 50,
      "hit": false,
      "t": 6870.224999999999,
      "d": 229.0074999999997,
      "v": 106
    },
    {
      "midi": 50,
      "hit": false,
      "t": 6874.995989583333,
      "d": 229.0074999999997,
      "v": 106
    },
    {
      "midi": 38,
      "hit": false,
      "t": 6979.957760416653,
      "d": 9.541979166666351,
      "v": 80
    },
    {
      "midi": 54,
      "hit": false,
      "t": 6994.270729166653,
      "d": 9.541979166666351,
      "v": 35
    },
    {
      "midi": 38,
      "hit": false,
      "t": 7094.461510416652,
      "d": 9.541979166666351,
      "v": 80
    },
    {
      "midi": 55,
      "hit": false,
      "t": 7094.461510416666,
      "d": 229.0074999999997,
      "v": 115
    },
    {
      "midi": 54,
      "hit": false,
      "t": 7099.2324999999855,
      "d": 9.541979166666351,
      "v": 55
    },
    {
      "midi": 55,
      "hit": false,
      "t": 7099.232499999999,
      "d": 229.0074999999997,
      "v": 106
    },
    {
      "midi": 55,
      "hit": false,
      "t": 7104.003489583332,
      "d": 229.0074999999997,
      "v": 106
    },
    {
      "midi": 38,
      "hit": false,
      "t": 7208.965260416652,
      "d": 9.541979166666351,
      "v": 80
    },
    {
      "midi": 54,
      "hit": false,
      "t": 7223.278229166652,
      "d": 9.541979166666351,
      "v": 35
    },
    {
      "midi": 36,
      "hit": false,
      "t": 7328.239999999984,
      "d": 9.541979166666351,
      "v": 108
    },
    {
      "midi": 54,
      "hit": false,
      "t": 7328.239999999984,
      "d": 9.541979166666351,
      "v": 75
    },
    {
      "midi": 49,
      "hit": false,
      "t": 7328.239999999984,
      "d": 9.541979166666351,
      "v": 100
    },
    {
      "midi": 60,
      "hit": false,
      "t": 7328.239999999999,
      "d": 114.50374999999985,
      "v": 92
    },
    {
      "midi": 64,
      "hit": false,
      "t": 7328.24,
      "d": 343.51124999999956,
      "v": 120
    },
    {
      "midi": 67,
      "hit": false,
      "t": 7328.24,
      "d": 343.51124999999956,
      "v": 120
    },
    {
      "midi": 72,
      "hit": false,
      "t": 7328.24,
      "d": 343.51124999999956,
      "v": 120
    },
    {
      "midi": 60,
      "hit": false,
      "t": 7328.24,
      "d": 114.50374999999985,
      "v": 78
    },
    {
      "midi": 64,
      "hit": false,
      "t": 7328.240000000001,
      "d": 1603.0525000000007,
      "v": 105
    },
    {
      "midi": 67,
      "hit": false,
      "t": 7328.240000000001,
      "d": 1603.0525000000007,
      "v": 105
    },
    {
      "midi": 72,
      "hit": false,
      "t": 7328.240000000001,
      "d": 1603.0525000000007,
      "v": 105
    },
    {
      "midi": 79,
      "hit": false,
      "t": 7328.240000000001,
      "d": 458.0150000000003,
      "v": 84
    },
    {
      "midi": 84,
      "hit": false,
      "t": 7337.781979166667,
      "d": 1832.0600000000004,
      "v": 80
    },
    {
      "midi": 60,
      "hit": false,
      "t": 7442.743749999999,
      "d": 114.50374999999985,
      "v": 92
    },
    {
      "midi": 60,
      "hit": false,
      "t": 7442.74375,
      "d": 114.50374999999985,
      "v": 78
    },
    {
      "midi": 54,
      "hit": false,
      "t": 7452.2857291666505,
      "d": 9.541979166666351,
      "v": 35
    },
    {
      "midi": 36,
      "hit": false,
      "t": 7557.247499999983,
      "d": 9.541979166666351,
      "v": 108
    },
    {
      "midi": 54,
      "hit": false,
      "t": 7557.247499999983,
      "d": 9.541979166666351,
      "v": 55
    },
    {
      "midi": 64,
      "hit": false,
      "t": 7557.247499999999,
      "d": 114.50374999999985,
      "v": 92
    },
    {
      "midi": 64,
      "hit": false,
      "t": 7557.2474999999995,
      "d": 114.50374999999985,
      "v": 78
    },
    {
      "midi": 64,
      "hit": false,
      "t": 7671.751249999998,
      "d": 114.50374999999985,
      "v": 92
    },
    {
      "midi": 64,
      "hit": false,
      "t": 7671.751249999999,
      "d": 114.50374999999985,
      "v": 78
    },
    {
      "midi": 54,
      "hit": false,
      "t": 7681.293229166649,
      "d": 9.541979166666351,
      "v": 35
    },
    {
      "midi": 38,
      "hit": false,
      "t": 7781.484010416649,
      "d": 9.541979166666351,
      "v": 96
    },
    {
      "midi": 42,
      "hit": false,
      "t": 7786.254999999982,
      "d": 9.541979166666351,
      "v": 125
    },
    {
      "midi": 54,
      "hit": false,
      "t": 7786.254999999982,
      "d": 9.541979166666351,
      "v": 75
    },
    {
      "midi": 67,
      "hit": false,
      "t": 7786.254999999998,
      "d": 114.50374999999985,
      "v": 103
    },
    {
      "midi": 64,
      "hit": false,
      "t": 7786.254999999999,
      "d": 343.51124999999956,
      "v": 120
    },
    {
      "midi": 67,
      "hit": false,
      "t": 7786.254999999999,
      "d": 343.51124999999956,
      "v": 120
    },
    {
      "midi": 72,
      "hit": false,
      "t": 7786.254999999999,
      "d": 343.51124999999956,
      "v": 120
    },
    {
      "midi": 67,
      "hit": false,
      "t": 7786.254999999999,
      "d": 114.50374999999985,
      "v": 86
    },
    {
      "midi": 79,
      "hit": false,
      "t": 7786.255000000001,
      "d": 458.0149999999994,
      "v": 84
    },
    {
      "midi": 60,
      "hit": false,
      "t": 7900.758749999998,
      "d": 114.50374999999985,
      "v": 103
    },
    {
      "midi": 60,
      "hit": false,
      "t": 7900.758749999999,
      "d": 114.50374999999985,
      "v": 86
    },
    {
      "midi": 54,
      "hit": false,
      "t": 7910.300729166648,
      "d": 9.541979166666351,
      "v": 35
    },
    {
      "midi": 54,
      "hit": false,
      "t": 8015.262499999981,
      "d": 9.541979166666351,
      "v": 55
    },
    {
      "midi": 67,
      "hit": false,
      "t": 8015.262499999998,
      "d": 114.50374999999985,
      "v": 103
    },
    {
      "midi": 67,
      "hit": false,
      "t": 8015.262499999999,
      "d": 114.50374999999985,
      "v": 86
    },
    {
      "midi": 67,
      "hit": false,
      "t": 8129.766249999998,
      "d": 114.50375000000076,
      "v": 103
    },
    {
      "midi": 67,
      "hit": false,
      "t": 8129.766249999999,
      "d": 229.0074999999997,
      "v": 86
    },
    {
      "midi": 54,
      "hit": false,
      "t": 8139.308229166647,
      "d": 9.541979166666351,
      "v": 35
    },
    {
      "midi": 38,
      "hit": false,
      "t": 8239.499010416646,
      "d": 9.54197916666817,
      "v": 96
    },
    {
      "midi": 42,
      "hit": false,
      "t": 8244.26999999998,
      "d": 9.54197916666817,
      "v": 125
    },
    {
      "midi": 54,
      "hit": false,
      "t": 8244.26999999998,
      "d": 9.54197916666817,
      "v": 75
    },
    {
      "midi": 64,
      "hit": false,
      "t": 8244.269999999999,
      "d": 190.83958333333248,
      "v": 120
    },
    {
      "midi": 67,
      "hit": false,
      "t": 8244.269999999999,
      "d": 190.83958333333248,
      "v": 120
    },
    {
      "midi": 72,
      "hit": false,
      "t": 8244.269999999999,
      "d": 190.83958333333248,
      "v": 120
    },
    {
      "midi": 60,
      "hit": false,
      "t": 8244.269999999999,
      "d": 114.50374999999985,
      "v": 70
    },
    {
      "midi": 60,
      "hit": false,
      "t": 8244.269999999999,
      "d": 114.50374999999985,
      "v": 83
    },
    {
      "midi": 76,
      "hit": false,
      "t": 8244.27,
      "d": 229.0074999999997,
      "v": 84
    },
    {
      "midi": 67,
      "hit": false,
      "t": 8358.773749999998,
      "d": 114.50374999999985,
      "v": 86
    },
    {
      "midi": 67,
      "hit": false,
      "t": 8358.773749999998,
      "d": 114.50374999999985,
      "v": 103
    },
    {
      "midi": 54,
      "hit": false,
      "t": 8368.315729166648,
      "d": 9.541979166666351,
      "v": 35
    },
    {
      "midi": 36,
      "hit": false,
      "t": 8473.277499999982,
      "d": 9.541979166666351,
      "v": 108
    },
    {
      "midi": 54,
      "hit": false,
      "t": 8473.277499999982,
      "d": 9.541979166666351,
      "v": 55
    },
    {
      "midi": 64,
      "hit": false,
      "t": 8473.277499999998,
      "d": 190.83958333333248,
      "v": 120
    },
    {
      "midi": 67,
      "hit": false,
      "t": 8473.277499999998,
      "d": 190.83958333333248,
      "v": 120
    },
    {
      "midi": 72,
      "hit": false,
      "t": 8473.277499999998,
      "d": 190.83958333333248,
      "v": 120
    },
    {
      "midi": 67,
      "hit": false,
      "t": 8473.277499999998,
      "d": 229.0074999999997,
      "v": 78
    },
    {
      "midi": 67,
      "hit": false,
      "t": 8473.277499999998,
      "d": 114.50374999999985,
      "v": 92
    },
    {
      "midi": 77,
      "hit": false,
      "t": 8473.2775,
      "d": 229.0074999999997,
      "v": 84
    },
    {
      "midi": 60,
      "hit": false,
      "t": 8587.781249999998,
      "d": 114.50374999999985,
      "v": 70
    },
    {
      "midi": 60,
      "hit": false,
      "t": 8587.781249999998,
      "d": 114.50374999999985,
      "v": 83
    },
    {
      "midi": 54,
      "hit": false,
      "t": 8597.323229166648,
      "d": 9.541979166666351,
      "v": 35
    },
    {
      "midi": 38,
      "hit": false,
      "t": 8697.514010416648,
      "d": 9.54197916666817,
      "v": 96
    },
    {
      "midi": 42,
      "hit": false,
      "t": 8702.284999999982,
      "d": 9.54197916666817,
      "v": 125
    },
    {
      "midi": 54,
      "hit": false,
      "t": 8702.284999999982,
      "d": 9.54197916666817,
      "v": 75
    },
    {
      "midi": 64,
      "hit": false,
      "t": 8702.284999999998,
      "d": 190.83958333333248,
      "v": 120
    },
    {
      "midi": 67,
      "hit": false,
      "t": 8702.284999999998,
      "d": 190.83958333333248,
      "v": 120
    },
    {
      "midi": 72,
      "hit": false,
      "t": 8702.284999999998,
      "d": 190.83958333333248,
      "v": 120
    },
    {
      "midi": 67,
      "hit": false,
      "t": 8702.284999999998,
      "d": 114.50374999999985,
      "v": 86
    },
    {
      "midi": 67,
      "hit": false,
      "t": 8702.284999999998,
      "d": 114.50374999999985,
      "v": 103
    },
    {
      "midi": 79,
      "hit": false,
      "t": 8702.285,
      "d": 229.0074999999997,
      "v": 84
    },
    {
      "midi": 67,
      "hit": false,
      "t": 8816.788749999998,
      "d": 229.0074999999997,
      "v": 78
    },
    {
      "midi": 67,
      "hit": false,
      "t": 8816.788749999998,
      "d": 114.50374999999985,
      "v": 92
    },
    {
      "midi": 54,
      "hit": false,
      "t": 8826.33072916665,
      "d": 9.541979166666351,
      "v": 35
    },
    {
      "midi": 36,
      "hit": false,
      "t": 8931.292499999983,
      "d": 9.541979166666351,
      "v": 108
    },
    {
      "midi": 54,
      "hit": false,
      "t": 8931.292499999983,
      "d": 9.541979166666351,
      "v": 55
    },
    {
      "midi": 64,
      "hit": false,
      "t": 8931.292499999998,
      "d": 190.83958333333248,
      "v": 120
    },
    {
      "midi": 67,
      "hit": false,
      "t": 8931.292499999998,
      "d": 190.83958333333248,
      "v": 120
    },
    {
      "midi": 72,
      "hit": false,
      "t": 8931.292499999998,
      "d": 190.83958333333248,
      "v": 120
    },
    {
      "midi": 60,
      "hit": false,
      "t": 8931.292499999998,
      "d": 114.50374999999985,
      "v": 70
    },
    {
      "midi": 60,
      "hit": false,
      "t": 8931.292499999998,
      "d": 114.50374999999985,
      "v": 83
    },
    {
      "midi": 81,
      "hit": false,
      "t": 8931.2925,
      "d": 229.0074999999997,
      "v": 84
    },
    {
      "midi": 67,
      "hit": false,
      "t": 9045.796249999998,
      "d": 114.50374999999985,
      "v": 86
    },
    {
      "midi": 67,
      "hit": false,
      "t": 9045.796249999998,
      "d": 114.50374999999985,
      "v": 103
    },
    {
      "midi": 54,
      "hit": false,
      "t": 9055.33822916665,
      "d": 9.541979166666351,
      "v": 35
    },
    {
      "midi": 38,
      "hit": false,
      "t": 9155.529010416649,
      "d": 9.54197916666817,
      "v": 96
    },
    {
      "midi": 42,
      "hit": false,
      "t": 9160.299999999983,
      "d": 9.54197916666817,
      "v": 125
    },
    {
      "midi": 54,
      "hit": false,
      "t": 9160.299999999983,
      "d": 9.54197916666817,
      "v": 75
    },
    {
      "midi": 62,
      "hit": false,
      "t": 9160.299999999997,
      "d": 343.51124999999956,
      "v": 120
    },
    {
      "midi": 67,
      "hit": false,
      "t": 9160.299999999997,
      "d": 343.51124999999956,
      "v": 120
    },
    {
      "midi": 71,
      "hit": false,
      "t": 9160.299999999997,
      "d": 343.51124999999956,
      "v": 120
    },
    {
      "midi": 59,
      "hit": false,
      "t": 9160.299999999997,
      "d": 114.50374999999985,
      "v": 78
    },
    {
      "midi": 59,
      "hit": false,
      "t": 9160.299999999997,
      "d": 114.50374999999985,
      "v": 92
    },
    {
      "midi": 79,
      "hit": false,
      "t": 9160.3,
      "d": 458.0149999999994,
      "v": 84
    },
    {
      "midi": 64,
      "hit": false,
      "t": 9160.300000000001,
      "d": 1603.0525000000016,
      "v": 105
    },
    {
      "midi": 71,
      "hit": false,
      "t": 9160.300000000001,
      "d": 1603.0525000000016,
      "v": 105
    },
    {
      "midi": 67,
      "hit": false,
      "t": 9160.300000000001,
      "d": 1603.0525000000016,
      "v": 105
    },
    {
      "midi": 83,
      "hit": false,
      "t": 9169.841979166667,
      "d": 1832.0599999999995,
      "v": 80
    },
    {
      "midi": 59,
      "hit": false,
      "t": 9274.803749999997,
      "d": 114.50374999999985,
      "v": 78
    },
    {
      "midi": 59,
      "hit": false,
      "t": 9274.803749999997,
      "d": 114.50374999999985,
      "v": 92
    },
    {
      "midi": 54,
      "hit": false,
      "t": 9284.345729166651,
      "d": 9.541979166666351,
      "v": 35
    },
    {
      "midi": 36,
      "hit": false,
      "t": 9389.307499999984,
      "d": 9.541979166666351,
      "v": 108
    },
    {
      "midi": 54,
      "hit": false,
      "t": 9389.307499999984,
      "d": 9.541979166666351,
      "v": 55
    },
    {
      "midi": 62,
      "hit": false,
      "t": 9389.307499999997,
      "d": 114.50374999999985,
      "v": 78
    },
    {
      "midi": 62,
      "hit": false,
      "t": 9389.307499999997,
      "d": 114.50374999999985,
      "v": 92
    },
    {
      "midi": 62,
      "hit": false,
      "t": 9503.811249999997,
      "d": 114.50374999999985,
      "v": 78
    },
    {
      "midi": 62,
      "hit": false,
      "t": 9503.811249999997,
      "d": 114.50374999999985,
      "v": 92
    },
    {
      "midi": 54,
      "hit": false,
      "t": 9513.35322916665,
      "d": 9.541979166666351,
      "v": 35
    },
    {
      "midi": 38,
      "hit": false,
      "t": 9613.54401041665,
      "d": 9.54197916666817,
      "v": 96
    },
    {
      "midi": 42,
      "hit": false,
      "t": 9618.314999999984,
      "d": 9.54197916666817,
      "v": 125
    },
    {
      "midi": 54,
      "hit": false,
      "t": 9618.314999999984,
      "d": 9.54197916666817,
      "v": 75
    },
    {
      "midi": 62,
      "hit": false,
      "t": 9618.314999999997,
      "d": 343.51124999999956,
      "v": 120
    },
    {
      "midi": 65,
      "hit": false,
      "t": 9618.314999999997,
      "d": 343.51124999999956,
      "v": 120
    },
    {
      "midi": 69,
      "hit": false,
      "t": 9618.314999999997,
      "d": 343.51124999999956,
      "v": 120
    },
    {
      "midi": 67,
      "hit": false,
      "t": 9618.314999999997,
      "d": 114.50374999999985,
      "v": 86
    },
    {
      "midi": 67,
      "hit": false,
      "t": 9618.314999999997,
      "d": 114.50374999999985,
      "v": 103
    },
    {
      "midi": 77,
      "hit": false,
      "t": 9618.314999999999,
      "d": 458.0149999999994,
      "v": 84
    },
    {
      "midi": 77,
      "hit": false,
      "t": 9618.315,
      "d": 453.24401041666715,
      "v": 105
    },
    {
      "midi": 89,
      "hit": false,
      "t": 9618.315,
      "d": 453.24401041666715,
      "v": 105
    },
    {
      "midi": 67,
      "hit": false,
      "t": 9732.818749999997,
      "d": 229.0074999999997,
      "v": 78
    },
    {
      "midi": 67,
      "hit": false,
      "t": 9732.818749999997,
      "d": 114.50374999999985,
      "v": 92
    },
    {
      "midi": 54,
      "hit": false,
      "t": 9742.360729166652,
      "d": 9.541979166666351,
      "v": 35
    },
    {
      "midi": 54,
      "hit": false,
      "t": 9847.322499999986,
      "d": 9.541979166666351,
      "v": 55
    },
    {
      "midi": 59,
      "hit": false,
      "t": 9847.322499999997,
      "d": 114.50374999999985,
      "v": 70
    },
    {
      "midi": 59,
      "hit": false,
      "t": 9847.322499999997,
      "d": 114.50374999999985,
      "v": 83
    },
    {
      "midi": 67,
      "hit": false,
      "t": 9961.826249999996,
      "d": 229.0074999999997,
      "v": 86
    },
    {
      "midi": 67,
      "hit": false,
      "t": 9961.826249999996,
      "d": 114.50374999999985,
      "v": 103
    },
    {
      "midi": 54,
      "hit": false,
      "t": 9971.368229166652,
      "d": 9.541979166666351,
      "v": 35
    },
    {
      "midi": 38,
      "hit": false,
      "t": 10071.559010416651,
      "d": 9.54197916666817,
      "v": 96
    },
    {
      "midi": 42,
      "hit": false,
      "t": 10076.329999999985,
      "d": 9.54197916666817,
      "v": 125
    },
    {
      "midi": 54,
      "hit": false,
      "t": 10076.329999999985,
      "d": 9.54197916666817,
      "v": 75
    },
    {
      "midi": 60,
      "hit": false,
      "t": 10076.329999999996,
      "d": 343.51124999999956,
      "v": 120
    },
    {
      "midi": 64,
      "hit": false,
      "t": 10076.329999999996,
      "d": 343.51124999999956,
      "v": 120
    },
    {
      "midi": 67,
      "hit": false,
      "t": 10076.329999999996,
      "d": 343.51124999999956,
      "v": 120
    },
    {
      "midi": 59,
      "hit": false,
      "t": 10076.329999999996,
      "d": 114.50374999999985,
      "v": 70
    },
    {
      "midi": 59,
      "hit": false,
      "t": 10076.329999999996,
      "d": 114.50374999999985,
      "v": 83
    },
    {
      "midi": 76,
      "hit": false,
      "t": 10076.329999999998,
      "d": 458.0149999999994,
      "v": 84
    },
    {
      "midi": 76,
      "hit": false,
      "t": 10076.330000000002,
      "d": 453.24401041666715,
      "v": 105
    },
    {
      "midi": 88,
      "hit": false,
      "t": 10076.330000000002,
      "d": 453.24401041666715,
      "v": 105
    },
    {
      "midi": 67,
      "hit": false,
      "t": 10190.833749999996,
      "d": 114.50374999999985,
      "v": 78
    },
    {
      "midi": 67,
      "hit": false,
      "t": 10190.833749999996,
      "d": 114.50374999999985,
      "v": 103
    },
    {
      "midi": 54,
      "hit": false,
      "t": 10200.375729166653,
      "d": 9.541979166666351,
      "v": 35
    },
    {
      "midi": 36,
      "hit": false,
      "t": 10305.337499999987,
      "d": 9.541979166666351,
      "v": 108
    },
    {
      "midi": 54,
      "hit": false,
      "t": 10305.337499999987,
      "d": 9.541979166666351,
      "v": 55
    },
    {
      "midi": 67,
      "hit": false,
      "t": 10305.337499999996,
      "d": 229.0074999999997,
      "v": 86
    },
    {
      "midi": 67,
      "hit": false,
      "t": 10305.337499999996,
      "d": 114.50374999999985,
      "v": 92
    },
    {
      "midi": 59,
      "hit": false,
      "t": 10419.841249999996,
      "d": 114.50374999999985,
      "v": 70
    },
    {
      "midi": 59,
      "hit": false,
      "t": 10419.841249999996,
      "d": 114.50374999999985,
      "v": 83
    },
    {
      "midi": 54,
      "hit": false,
      "t": 10429.383229166653,
      "d": 9.541979166666351,
      "v": 35
    },
    {
      "midi": 38,
      "hit": false,
      "t": 10529.574010416653,
      "d": 9.54197916666817,
      "v": 96
    },
    {
      "midi": 42,
      "hit": false,
      "t": 10534.344999999987,
      "d": 9.54197916666817,
      "v": 125
    },
    {
      "midi": 54,
      "hit": false,
      "t": 10534.344999999987,
      "d": 9.54197916666817,
      "v": 75
    },
    {
      "midi": 59,
      "hit": false,
      "t": 10534.344999999996,
      "d": 343.51124999999956,
      "v": 120
    },
    {
      "midi": 62,
      "hit": false,
      "t": 10534.344999999996,
      "d": 343.51124999999956,
      "v": 120
    },
    {
      "midi": 65,
      "hit": false,
      "t": 10534.344999999996,
      "d": 343.51124999999956,
      "v": 120
    },
    {
      "midi": 67,
      "hit": false,
      "t": 10534.344999999996,
      "d": 114.50374999999985,
      "v": 86
    },
    {
      "midi": 67,
      "hit": false,
      "t": 10534.344999999996,
      "d": 114.50374999999985,
      "v": 103
    },
    {
      "midi": 74,
      "hit": false,
      "t": 10534.344999999998,
      "d": 458.0149999999994,
      "v": 84
    },
    {
      "midi": 86,
      "hit": false,
      "t": 10534.345000000003,
      "d": 453.24401041666715,
      "v": 105
    },
    {
      "midi": 74,
      "hit": false,
      "t": 10534.345000000003,
      "d": 453.24401041666715,
      "v": 105
    },
    {
      "midi": 67,
      "hit": false,
      "t": 10648.848749999996,
      "d": 229.0074999999997,
      "v": 78
    },
    {
      "midi": 67,
      "hit": false,
      "t": 10648.848749999996,
      "d": 114.50374999999985,
      "v": 92
    },
    {
      "midi": 54,
      "hit": false,
      "t": 10658.390729166655,
      "d": 9.541979166666351,
      "v": 35
    },
    {
      "midi": 36,
      "hit": false,
      "t": 10763.352499999988,
      "d": 9.541979166666351,
      "v": 108
    },
    {
      "midi": 54,
      "hit": false,
      "t": 10763.352499999988,
      "d": 9.541979166666351,
      "v": 55
    },
    {
      "midi": 59,
      "hit": false,
      "t": 10763.352499999995,
      "d": 114.50374999999985,
      "v": 70
    },
    {
      "midi": 59,
      "hit": false,
      "t": 10763.352499999995,
      "d": 114.50374999999985,
      "v": 83
    },
    {
      "midi": 67,
      "hit": false,
      "t": 10877.856249999995,
      "d": 114.50374999999985,
      "v": 86
    },
    {
      "midi": 67,
      "hit": false,
      "t": 10877.856249999995,
      "d": 114.50374999999985,
      "v": 103
    },
    {
      "midi": 54,
      "hit": false,
      "t": 10887.398229166654,
      "d": 9.541979166666351,
      "v": 35
    },
    {
      "midi": 38,
      "hit": false,
      "t": 10987.589010416654,
      "d": 9.54197916666817,
      "v": 96
    },
    {
      "midi": 42,
      "hit": false,
      "t": 10992.359999999988,
      "d": 9.54197916666817,
      "v": 125
    },
    {
      "midi": 54,
      "hit": false,
      "t": 10992.359999999988,
      "d": 9.54197916666817,
      "v": 75
    },
    {
      "midi": 64,
      "hit": false,
      "t": 10992.359999999995,
      "d": 343.51124999999956,
      "v": 120
    },
    {
      "midi": 67,
      "hit": false,
      "t": 10992.359999999995,
      "d": 343.51124999999956,
      "v": 120
    },
    {
      "midi": 72,
      "hit": false,
      "t": 10992.359999999995,
      "d": 343.51124999999956,
      "v": 120
    },
    {
      "midi": 60,
      "hit": false,
      "t": 10992.359999999995,
      "d": 114.50374999999985,
      "v": 78
    },
    {
      "midi": 60,
      "hit": false,
      "t": 10992.359999999995,
      "d": 114.50374999999985,
      "v": 92
    },
    {
      "midi": 76,
      "hit": false,
      "t": 10992.359999999997,
      "d": 458.0149999999994,
      "v": 84
    },
    {
      "midi": 72,
      "hit": false,
      "t": 10992.360000000004,
      "d": 453.24401041666715,
      "v": 105
    },
    {
      "midi": 84,
      "hit": false,
      "t": 10992.360000000004,
      "d": 453.24401041666715,
      "v": 105
    },
    {
      "midi": 64,
      "hit": false,
      "t": 10992.360000000004,
      "d": 1603.0525000000016,
      "v": 105
    },
    {
      "midi": 67,
      "hit": false,
      "t": 10992.360000000004,
      "d": 1603.0525000000016,
      "v": 105
    },
    {
      "midi": 60,
      "hit": false,
      "t": 10992.360000000004,
      "d": 1603.0525000000016,
      "v": 105
    },
    {
      "midi": 69,
      "hit": false,
      "t": 10992.360000000004,
      "d": 1603.0525000000016,
      "v": 105
    },
    {
      "midi": 81,
      "hit": false,
      "t": 11001.901979166667,
      "d": 1832.0599999999995,
      "v": 80
    },
    {
      "midi": 60,
      "hit": false,
      "t": 11106.863749999995,
      "d": 114.50374999999985,
      "v": 78
    },
    {
      "midi": 60,
      "hit": false,
      "t": 11106.863749999995,
      "d": 114.50374999999985,
      "v": 92
    },
    {
      "midi": 54,
      "hit": false,
      "t": 11116.405729166656,
      "d": 9.541979166666351,
      "v": 35
    },
    {
      "midi": 36,
      "hit": false,
      "t": 11221.36749999999,
      "d": 9.541979166666351,
      "v": 108
    },
    {
      "midi": 54,
      "hit": false,
      "t": 11221.36749999999,
      "d": 9.541979166666351,
      "v": 55
    },
    {
      "midi": 64,
      "hit": false,
      "t": 11221.367499999995,
      "d": 114.50374999999985,
      "v": 78
    },
    {
      "midi": 64,
      "hit": false,
      "t": 11221.367499999995,
      "d": 114.50374999999985,
      "v": 92
    },
    {
      "midi": 64,
      "hit": false,
      "t": 11335.871249999995,
      "d": 114.50374999999985,
      "v": 78
    },
    {
      "midi": 64,
      "hit": false,
      "t": 11335.871249999995,
      "d": 114.50374999999985,
      "v": 92
    },
    {
      "midi": 54,
      "hit": false,
      "t": 11345.413229166656,
      "d": 9.541979166666351,
      "v": 35
    },
    {
      "midi": 38,
      "hit": false,
      "t": 11445.604010416655,
      "d": 9.54197916666817,
      "v": 96
    },
    {
      "midi": 42,
      "hit": false,
      "t": 11450.374999999989,
      "d": 9.54197916666817,
      "v": 125
    },
    {
      "midi": 54,
      "hit": false,
      "t": 11450.374999999989,
      "d": 9.54197916666817,
      "v": 75
    },
    {
      "midi": 64,
      "hit": false,
      "t": 11450.374999999995,
      "d": 343.51124999999956,
      "v": 120
    },
    {
      "midi": 67,
      "hit": false,
      "t": 11450.374999999995,
      "d": 343.51124999999956,
      "v": 120
    },
    {
      "midi": 72,
      "hit": false,
      "t": 11450.374999999995,
      "d": 343.51124999999956,
      "v": 120
    },
    {
      "midi": 69,
      "hit": false,
      "t": 11450.374999999995,
      "d": 114.50374999999985,
      "v": 86
    },
    {
      "midi": 69,
      "hit": false,
      "t": 11450.374999999995,
      "d": 114.50374999999985,
      "v": 103
    },
    {
      "midi": 76,
      "hit": false,
      "t": 11450.374999999996,
      "d": 458.0149999999994,
      "v": 84
    },
    {
      "midi": 72,
      "hit": false,
      "t": 11450.375000000005,
      "d": 453.24401041666715,
      "v": 105
    },
    {
      "midi": 84,
      "hit": false,
      "t": 11450.375000000005,
      "d": 453.24401041666715,
      "v": 105
    },
    {
      "midi": 69,
      "hit": false,
      "t": 11564.878749999994,
      "d": 229.0074999999997,
      "v": 78
    },
    {
      "midi": 69,
      "hit": false,
      "t": 11564.878749999994,
      "d": 114.50374999999985,
      "v": 92
    },
    {
      "midi": 54,
      "hit": false,
      "t": 11574.420729166657,
      "d": 9.541979166666351,
      "v": 35
    },
    {
      "midi": 54,
      "hit": false,
      "t": 11679.38249999999,
      "d": 9.541979166666351,
      "v": 55
    },
    {
      "midi": 60,
      "hit": false,
      "t": 11679.382499999994,
      "d": 114.50374999999985,
      "v": 70
    },
    {
      "midi": 60,
      "hit": false,
      "t": 11679.382499999994,
      "d": 114.50374999999985,
      "v": 83
    },
    {
      "midi": 69,
      "hit": false,
      "t": 11793.886249999994,
      "d": 229.0074999999997,
      "v": 86
    },
    {
      "midi": 69,
      "hit": false,
      "t": 11793.886249999994,
      "d": 114.50374999999985,
      "v": 103
    },
    {
      "midi": 54,
      "hit": false,
      "t": 11803.428229166657,
      "d": 9.541979166666351,
      "v": 35
    },
    {
      "midi": 38,
      "hit": false,
      "t": 11903.619010416656,
      "d": 9.54197916666817,
      "v": 96
    },
    {
      "midi": 42,
      "hit": false,
      "t": 11908.38999999999,
      "d": 9.54197916666817,
      "v": 125
    },
    {
      "midi": 54,
      "hit": false,
      "t": 11908.38999999999,
      "d": 9.54197916666817,
      "v": 75
    },
    {
      "midi": 64,
      "hit": false,
      "t": 11908.389999999994,
      "d": 190.83958333333248,
      "v": 120
    },
    {
      "midi": 67,
      "hit": false,
      "t": 11908.389999999994,
      "d": 190.83958333333248,
      "v": 120
    },
    {
      "midi": 72,
      "hit": false,
      "t": 11908.389999999994,
      "d": 190.83958333333248,
      "v": 120
    },
    {
      "midi": 60,
      "hit": false,
      "t": 11908.389999999994,
      "d": 114.50374999999985,
      "v": 70
    },
    {
      "midi": 60,
      "hit": false,
      "t": 11908.389999999994,
      "d": 114.50374999999985,
      "v": 83
    },
    {
      "midi": 72,
      "hit": false,
      "t": 11908.389999999996,
      "d": 229.0074999999997,
      "v": 84
    },
    {
      "midi": 69,
      "hit": false,
      "t": 12022.893749999994,
      "d": 114.50374999999985,
      "v": 86
    },
    {
      "midi": 69,
      "hit": false,
      "t": 12022.893749999994,
      "d": 114.50374999999985,
      "v": 103
    },
    {
      "midi": 54,
      "hit": false,
      "t": 12032.435729166658,
      "d": 9.541979166666351,
      "v": 35
    },
    {
      "midi": 36,
      "hit": false,
      "t": 12137.397499999992,
      "d": 9.541979166666351,
      "v": 108
    },
    {
      "midi": 54,
      "hit": false,
      "t": 12137.397499999992,
      "d": 9.541979166666351,
      "v": 55
    },
    {
      "midi": 64,
      "hit": false,
      "t": 12137.397499999994,
      "d": 190.83958333333248,
      "v": 120
    },
    {
      "midi": 67,
      "hit": false,
      "t": 12137.397499999994,
      "d": 190.83958333333248,
      "v": 120
    },
    {
      "midi": 72,
      "hit": false,
      "t": 12137.397499999994,
      "d": 190.83958333333248,
      "v": 120
    },
    {
      "midi": 69,
      "hit": false,
      "t": 12137.397499999994,
      "d": 229.0074999999997,
      "v": 78
    },
    {
      "midi": 69,
      "hit": false,
      "t": 12137.397499999994,
      "d": 114.50374999999985,
      "v": 92
    },
    {
      "midi": 74,
      "hit": false,
      "t": 12137.397499999995,
      "d": 229.0074999999997,
      "v": 84
    },
    {
      "midi": 60,
      "hit": false,
      "t": 12251.901249999994,
      "d": 114.50374999999985,
      "v": 70
    },
    {
      "midi": 60,
      "hit": false,
      "t": 12251.901249999994,
      "d": 114.50374999999985,
      "v": 83
    },
    {
      "midi": 54,
      "hit": false,
      "t": 12261.443229166658,
      "d": 9.541979166666351,
      "v": 35
    },
    {
      "midi": 38,
      "hit": false,
      "t": 12361.634010416657,
      "d": 9.54197916666817,
      "v": 96
    },
    {
      "midi": 42,
      "hit": false,
      "t": 12366.404999999992,
      "d": 9.54197916666817,
      "v": 125
    },
    {
      "midi": 54,
      "hit": false,
      "t": 12366.404999999992,
      "d": 9.54197916666817,
      "v": 75
    },
    {
      "midi": 64,
      "hit": false,
      "t": 12366.404999999993,
      "d": 190.83958333333248,
      "v": 120
    },
    {
      "midi": 67,
      "hit": false,
      "t": 12366.404999999993,
      "d": 190.83958333333248,
      "v": 120
    },
    {
      "midi": 72,
      "hit": false,
      "t": 12366.404999999993,
      "d": 190.83958333333248,
      "v": 120
    },
    {
      "midi": 69,
      "hit": false,
      "t": 12366.404999999993,
      "d": 114.50374999999985,
      "v": 86
    },
    {
      "midi": 69,
      "hit": false,
      "t": 12366.404999999993,
      "d": 114.50374999999985,
      "v": 103
    },
    {
      "midi": 76,
      "hit": false,
      "t": 12366.404999999995,
      "d": 229.0074999999997,
      "v": 84
    },
    {
      "midi": 69,
      "hit": false,
      "t": 12480.908749999993,
      "d": 229.0074999999997,
      "v": 78
    },
    {
      "midi": 69,
      "hit": false,
      "t": 12480.908749999993,
      "d": 114.50374999999985,
      "v": 92
    },
    {
      "midi": 54,
      "hit": false,
      "t": 12490.45072916666,
      "d": 9.541979166666351,
      "v": 35
    },
    {
      "midi": 64,
      "hit": false,
      "t": 12595.412499999993,
      "d": 190.83958333333248,
      "v": 120
    },
    {
      "midi": 67,
      "hit": false,
      "t": 12595.412499999993,
      "d": 190.83958333333248,
      "v": 120
    },
    {
      "midi": 72,
      "hit": false,
      "t": 12595.412499999993,
      "d": 190.83958333333248,
      "v": 120
    },
    {
      "midi": 36,
      "hit": false,
      "t": 12595.412499999993,
      "d": 9.541979166666351,
      "v": 108
    },
    {
      "midi": 54,
      "hit": false,
      "t": 12595.412499999993,
      "d": 9.541979166666351,
      "v": 55
    },
    {
      "midi": 60,
      "hit": false,
      "t": 12595.412499999993,
      "d": 114.50374999999985,
      "v": 70
    },
    {
      "midi": 60,
      "hit": false,
      "t": 12595.412499999993,
      "d": 114.50374999999985,
      "v": 83
    },
    {
      "midi": 77,
      "hit": false,
      "t": 12595.412499999995,
      "d": 229.0074999999997,
      "v": 84
    },
    {
      "midi": 69,
      "hit": false,
      "t": 12709.916249999993,
      "d": 114.50374999999985,
      "v": 86
    },
    {
      "midi": 69,
      "hit": false,
      "t": 12709.916249999993,
      "d": 114.50374999999985,
      "v": 103
    },
    {
      "midi": 54,
      "hit": false,
      "t": 12719.45822916666,
      "d": 9.541979166666351,
      "v": 35
    },
    {
      "midi": 38,
      "hit": false,
      "t": 12819.649010416659,
      "d": 9.54197916666817,
      "v": 96
    },
    {
      "midi": 64,
      "hit": false,
      "t": 12824.419999999993,
      "d": 343.51124999999956,
      "v": 120
    },
    {
      "midi": 67,
      "hit": false,
      "t": 12824.419999999993,
      "d": 343.51124999999956,
      "v": 120
    },
    {
      "midi": 71,
      "hit": false,
      "t": 12824.419999999993,
      "d": 343.51124999999956,
      "v": 120
    },
    {
      "midi": 42,
      "hit": false,
      "t": 12824.419999999993,
      "d": 9.54197916666817,
      "v": 125
    },
    {
      "midi": 54,
      "hit": false,
      "t": 12824.419999999993,
      "d": 9.54197916666817,
      "v": 75
    },
    {
      "midi": 59,
      "hit": false,
      "t": 12824.419999999993,
      "d": 114.50374999999985,
      "v": 78
    },
    {
      "midi": 59,
      "hit": false,
      "t": 12824.419999999993,
      "d": 114.50374999999985,
      "v": 92
    },
    {
      "midi": 76,
      "hit": false,
      "t": 12824.419999999995,
      "d": 458.0149999999994,
      "v": 84
    },
    {
      "midi": 88,
      "hit": false,
      "t": 12824.420000000006,
      "d": 453.24401041666715,
      "v": 105
    },
    {
      "midi": 76,
      "hit": false,
      "t": 12824.420000000006,
      "d": 453.24401041666715,
      "v": 105
    },
    {
      "midi": 62,
      "hit": false,
      "t": 12824.420000000006,
      "d": 1145.0375000000022,
      "v": 105
    },
    {
      "midi": 64,
      "hit": false,
      "t": 12824.420000000006,
      "d": 1145.0375000000022,
      "v": 105
    },
    {
      "midi": 67,
      "hit": false,
      "t": 12824.420000000006,
      "d": 1145.0375000000022,
      "v": 105
    },
    {
      "midi": 59,
      "hit": false,
      "t": 12824.420000000006,
      "d": 1145.0375000000022,
      "v": 105
    },
    {
      "midi": 79,
      "hit": false,
      "t": 12833.961979166666,
      "d": 1374.045,
      "v": 80
    },
    {
      "midi": 59,
      "hit": false,
      "t": 12938.923749999993,
      "d": 114.50374999999985,
      "v": 78
    },
    {
      "midi": 59,
      "hit": false,
      "t": 12938.923749999993,
      "d": 114.50374999999985,
      "v": 92
    },
    {
      "midi": 54,
      "hit": false,
      "t": 12948.46572916666,
      "d": 9.541979166666351,
      "v": 35
    },
    {
      "midi": 64,
      "hit": false,
      "t": 13053.427499999993,
      "d": 114.50374999999985,
      "v": 78
    },
    {
      "midi": 64,
      "hit": false,
      "t": 13053.427499999993,
      "d": 114.50374999999985,
      "v": 92
    },
    {
      "midi": 36,
      "hit": false,
      "t": 13053.427499999994,
      "d": 9.541979166666351,
      "v": 108
    },
    {
      "midi": 54,
      "hit": false,
      "t": 13053.427499999994,
      "d": 9.541979166666351,
      "v": 55
    },
    {
      "midi": 64,
      "hit": false,
      "t": 13167.931249999992,
      "d": 114.50374999999985,
      "v": 78
    },
    {
      "midi": 64,
      "hit": false,
      "t": 13167.931249999992,
      "d": 114.50374999999985,
      "v": 92
    },
    {
      "midi": 54,
      "hit": false,
      "t": 13177.47322916666,
      "d": 9.541979166666351,
      "v": 35
    },
    {
      "midi": 38,
      "hit": false,
      "t": 13277.66401041666,
      "d": 9.54197916666817,
      "v": 96
    },
    {
      "midi": 64,
      "hit": false,
      "t": 13282.434999999992,
      "d": 343.51124999999956,
      "v": 120
    },
    {
      "midi": 67,
      "hit": false,
      "t": 13282.434999999992,
      "d": 343.51124999999956,
      "v": 120
    },
    {
      "midi": 71,
      "hit": false,
      "t": 13282.434999999992,
      "d": 343.51124999999956,
      "v": 120
    },
    {
      "midi": 67,
      "hit": false,
      "t": 13282.434999999992,
      "d": 114.50374999999985,
      "v": 86
    },
    {
      "midi": 67,
      "hit": false,
      "t": 13282.434999999992,
      "d": 114.50374999999985,
      "v": 103
    },
    {
      "midi": 74,
      "hit": false,
      "t": 13282.434999999994,
      "d": 458.0149999999994,
      "v": 84
    },
    {
      "midi": 42,
      "hit": false,
      "t": 13282.434999999994,
      "d": 9.54197916666817,
      "v": 125
    },
    {
      "midi": 54,
      "hit": false,
      "t": 13282.434999999994,
      "d": 9.54197916666817,
      "v": 75
    },
    {
      "midi": 74,
      "hit": false,
      "t": 13282.435000000007,
      "d": 453.24401041666715,
      "v": 105
    },
    {
      "midi": 86,
      "hit": false,
      "t": 13282.435000000007,
      "d": 453.24401041666715,
      "v": 105
    },
    {
      "midi": 67,
      "hit": false,
      "t": 13396.938749999992,
      "d": 229.0074999999997,
      "v": 78
    },
    {
      "midi": 67,
      "hit": false,
      "t": 13396.938749999992,
      "d": 114.50374999999985,
      "v": 92
    },
    {
      "midi": 54,
      "hit": false,
      "t": 13406.480729166662,
      "d": 9.541979166666351,
      "v": 35
    },
    {
      "midi": 59,
      "hit": false,
      "t": 13511.442499999992,
      "d": 114.50374999999985,
      "v": 70
    },
    {
      "midi": 59,
      "hit": false,
      "t": 13511.442499999992,
      "d": 114.50374999999985,
      "v": 83
    },
    {
      "midi": 54,
      "hit": false,
      "t": 13511.442499999996,
      "d": 9.541979166666351,
      "v": 55
    },
    {
      "midi": 67,
      "hit": false,
      "t": 13625.946249999992,
      "d": 114.50374999999985,
      "v": 86
    },
    {
      "midi": 67,
      "hit": false,
      "t": 13625.946249999992,
      "d": 114.50374999999985,
      "v": 103
    },
    {
      "midi": 54,
      "hit": false,
      "t": 13635.488229166662,
      "d": 9.541979166666351,
      "v": 35
    },
    {
      "midi": 38,
      "hit": false,
      "t": 13735.679010416661,
      "d": 9.54197916666817,
      "v": 96
    },
    {
      "midi": 64,
      "hit": false,
      "t": 13740.449999999992,
      "d": 343.51124999999956,
      "v": 120
    },
    {
      "midi": 67,
      "hit": false,
      "t": 13740.449999999992,
      "d": 343.51124999999956,
      "v": 120
    },
    {
      "midi": 71,
      "hit": false,
      "t": 13740.449999999992,
      "d": 343.51124999999956,
      "v": 120
    },
    {
      "midi": 59,
      "hit": false,
      "t": 13740.449999999992,
      "d": 114.50374999999985,
      "v": 70
    },
    {
      "midi": 59,
      "hit": false,
      "t": 13740.449999999992,
      "d": 114.50374999999985,
      "v": 83
    },
    {
      "midi": 72,
      "hit": false,
      "t": 13740.449999999993,
      "d": 458.0149999999994,
      "v": 84
    },
    {
      "midi": 42,
      "hit": false,
      "t": 13740.449999999995,
      "d": 9.54197916666817,
      "v": 125
    },
    {
      "midi": 54,
      "hit": false,
      "t": 13740.449999999995,
      "d": 9.54197916666817,
      "v": 75
    },
    {
      "midi": 84,
      "hit": false,
      "t": 13740.450000000008,
      "d": 453.24401041666715,
      "v": 105
    },
    {
      "midi": 72,
      "hit": false,
      "t": 13740.450000000008,
      "d": 453.24401041666715,
      "v": 105
    },
    {
      "midi": 67,
      "hit": false,
      "t": 13854.953749999991,
      "d": 114.50374999999985,
      "v": 86
    },
    {
      "midi": 67,
      "hit": false,
      "t": 13854.953749999991,
      "d": 114.50374999999985,
      "v": 103
    },
    {
      "midi": 54,
      "hit": false,
      "t": 13864.495729166663,
      "d": 9.541979166666351,
      "v": 35
    },
    {
      "midi": 67,
      "hit": false,
      "t": 13969.457499999991,
      "d": 229.0074999999997,
      "v": 78
    },
    {
      "midi": 67,
      "hit": false,
      "t": 13969.457499999991,
      "d": 114.50374999999985,
      "v": 92
    },
    {
      "midi": 36,
      "hit": false,
      "t": 13969.457499999997,
      "d": 9.541979166666351,
      "v": 108
    },
    {
      "midi": 54,
      "hit": false,
      "t": 13969.457499999997,
      "d": 9.541979166666351,
      "v": 55
    },
    {
      "midi": 59,
      "hit": false,
      "t": 14083.961249999991,
      "d": 114.50374999999985,
      "v": 70
    },
    {
      "midi": 59,
      "hit": false,
      "t": 14083.961249999991,
      "d": 114.50374999999985,
      "v": 83
    },
    {
      "midi": 54,
      "hit": false,
      "t": 14093.503229166663,
      "d": 9.541979166666351,
      "v": 35
    },
    {
      "midi": 38,
      "hit": false,
      "t": 14193.694010416662,
      "d": 9.54197916666817,
      "v": 96
    },
    {
      "midi": 64,
      "hit": false,
      "t": 14198.464999999991,
      "d": 343.51124999999956,
      "v": 120
    },
    {
      "midi": 68,
      "hit": false,
      "t": 14198.464999999991,
      "d": 343.51124999999956,
      "v": 120
    },
    {
      "midi": 71,
      "hit": false,
      "t": 14198.464999999991,
      "d": 343.51124999999956,
      "v": 120
    },
    {
      "midi": 59,
      "hit": false,
      "t": 14198.464999999991,
      "d": 114.50374999999985,
      "v": 70
    },
    {
      "midi": 59,
      "hit": false,
      "t": 14198.464999999991,
      "d": 114.50374999999985,
      "v": 83
    },
    {
      "midi": 71,
      "hit": false,
      "t": 14198.464999999993,
      "d": 458.0149999999994,
      "v": 84
    },
    {
      "midi": 42,
      "hit": false,
      "t": 14198.464999999997,
      "d": 9.54197916666817,
      "v": 125
    },
    {
      "midi": 54,
      "hit": false,
      "t": 14198.464999999997,
      "d": 9.54197916666817,
      "v": 75
    },
    {
      "midi": 59,
      "hit": false,
      "t": 14198.46500000001,
      "d": 400.7631249999995,
      "v": 105
    },
    {
      "midi": 68,
      "hit": false,
      "t": 14198.46500000001,
      "d": 400.7631249999995,
      "v": 105
    },
    {
      "midi": 62,
      "hit": false,
      "t": 14198.46500000001,
      "d": 400.7631249999995,
      "v": 105
    },
    {
      "midi": 64,
      "hit": false,
      "t": 14198.46500000001,
      "d": 400.7631249999995,
      "v": 105
    },
    {
      "midi": 71,
      "hit": false,
      "t": 14198.46500000001,
      "d": 453.24401041666533,
      "v": 105
    },
    {
      "midi": 83,
      "hit": false,
      "t": 14198.46500000001,
      "d": 453.24401041666533,
      "v": 105
    },
    {
      "midi": 80,
      "hit": false,
      "t": 14208.006979166666,
      "d": 458.0149999999994,
      "v": 80
    },
    {
      "midi": 68,
      "hit": false,
      "t": 14312.96874999999,
      "d": 114.50374999999985,
      "v": 86
    },
    {
      "midi": 68,
      "hit": false,
      "t": 14312.96874999999,
      "d": 114.50374999999985,
      "v": 103
    },
    {
      "midi": 54,
      "hit": false,
      "t": 14322.510729166665,
      "d": 9.541979166666351,
      "v": 35
    },
    {
      "midi": 68,
      "hit": false,
      "t": 14427.47249999999,
      "d": 229.0074999999997,
      "v": 78
    },
    {
      "midi": 68,
      "hit": false,
      "t": 14427.47249999999,
      "d": 114.50374999999985,
      "v": 92
    },
    {
      "midi": 36,
      "hit": false,
      "t": 14427.472499999998,
      "d": 9.541979166666351,
      "v": 108
    },
    {
      "midi": 54,
      "hit": false,
      "t": 14427.472499999998,
      "d": 9.541979166666351,
      "v": 55
    },
    {
      "midi": 59,
      "hit": false,
      "t": 14541.97624999999,
      "d": 114.50374999999985,
      "v": 70
    },
    {
      "midi": 59,
      "hit": false,
      "t": 14541.97624999999,
      "d": 114.50374999999985,
      "v": 83
    },
    {
      "midi": 54,
      "hit": false,
      "t": 14551.518229166664,
      "d": 9.541979166666351,
      "v": 35
    },
    {
      "midi": 38,
      "hit": false,
      "t": 14651.709010416664,
      "d": 9.54197916666817,
      "v": 96
    },
    {
      "midi": 57,
      "hit": false,
      "t": 14656.47999999999,
      "d": 114.50374999999985,
      "v": 86
    },
    {
      "midi": 57,
      "hit": false,
      "t": 14656.47999999999,
      "d": 114.50374999999985,
      "v": 103
    },
    {
      "midi": 49,
      "hit": false,
      "t": 14656.479999999998,
      "d": 9.54197916666817,
      "v": 100
    },
    {
      "midi": 54,
      "hit": false,
      "t": 14656.479999999998,
      "d": 9.54197916666817,
      "v": 75
    },
    {
      "midi": 57,
      "hit": false,
      "t": 14656.480000000009,
      "d": 1832.0599999999995,
      "v": 105
    },
    {
      "midi": 65,
      "hit": false,
      "t": 14656.480000000009,
      "d": 1832.0599999999995,
      "v": 105
    },
    {
      "midi": 60,
      "hit": false,
      "t": 14656.480000000009,
      "d": 1832.0599999999995,
      "v": 105
    },
    {
      "midi": 69,
      "hit": false,
      "t": 14656.480000000009,
      "d": 1832.0599999999995,
      "v": 105
    },
    {
      "midi": 81,
      "hit": false,
      "t": 14666.021979166666,
      "d": 1832.0599999999995,
      "v": 80
    },
    {
      "midi": 60,
      "hit": false,
      "t": 14770.98374999999,
      "d": 114.50374999999985,
      "v": 70
    },
    {
      "midi": 60,
      "hit": false,
      "t": 14770.98374999999,
      "d": 114.50374999999985,
      "v": 83
    },
    {
      "midi": 54,
      "hit": false,
      "t": 14780.525729166666,
      "d": 9.541979166666351,
      "v": 35
    },
    {
      "midi": 64,
      "hit": false,
      "t": 14885.48749999999,
      "d": 114.50374999999985,
      "v": 78
    },
    {
      "midi": 64,
      "hit": false,
      "t": 14885.48749999999,
      "d": 114.50374999999985,
      "v": 92
    },
    {
      "midi": 36,
      "hit": false,
      "t": 14885.4875,
      "d": 9.541979166666351,
      "v": 108
    },
    {
      "midi": 54,
      "hit": false,
      "t": 14885.4875,
      "d": 9.541979166666351,
      "v": 55
    },
    {
      "midi": 65,
      "hit": false,
      "t": 14999.99124999999,
      "d": 114.50374999999985,
      "v": 70
    },
    {
      "midi": 65,
      "hit": false,
      "t": 14999.99124999999,
      "d": 114.50374999999985,
      "v": 83
    },
    {
      "midi": 54,
      "hit": false,
      "t": 15009.533229166665,
      "d": 9.541979166666351,
      "v": 35
    },
    {
      "midi": 38,
      "hit": false,
      "t": 15109.724010416665,
      "d": 9.54197916666817,
      "v": 96
    },
    {
      "midi": 65,
      "hit": false,
      "t": 15114.49499999999,
      "d": 190.83958333333248,
      "v": 120
    },
    {
      "midi": 69,
      "hit": false,
      "t": 15114.49499999999,
      "d": 190.83958333333248,
      "v": 120
    },
    {
      "midi": 72,
      "hit": false,
      "t": 15114.49499999999,
      "d": 190.83958333333248,
      "v": 120
    },
    {
      "midi": 65,
      "hit": false,
      "t": 15114.49499999999,
      "d": 114.50374999999985,
      "v": 86
    },
    {
      "midi": 65,
      "hit": false,
      "t": 15114.49499999999,
      "d": 114.50374999999985,
      "v": 103
    },
    {
      "midi": 69,
      "hit": false,
      "t": 15114.494999999992,
      "d": 229.0074999999997,
      "v": 84
    },
    {
      "midi": 42,
      "hit": false,
      "t": 15114.494999999999,
      "d": 9.54197916666817,
      "v": 125
    },
    {
      "midi": 54,
      "hit": false,
      "t": 15114.494999999999,
      "d": 9.54197916666817,
      "v": 75
    },
    {
      "midi": 65,
      "hit": false,
      "t": 15228.99874999999,
      "d": 229.0074999999997,
      "v": 78
    },
    {
      "midi": 65,
      "hit": false,
      "t": 15228.99874999999,
      "d": 114.50374999999985,
      "v": 92
    },
    {
      "midi": 54,
      "hit": false,
      "t": 15238.540729166667,
      "d": 9.541979166666351,
      "v": 35
    },
    {
      "midi": 65,
      "hit": false,
      "t": 15343.50249999999,
      "d": 190.83958333333248,
      "v": 120
    },
    {
      "midi": 69,
      "hit": false,
      "t": 15343.50249999999,
      "d": 190.83958333333248,
      "v": 120
    },
    {
      "midi": 72,
      "hit": false,
      "t": 15343.50249999999,
      "d": 190.83958333333248,
      "v": 120
    },
    {
      "midi": 60,
      "hit": false,
      "t": 15343.50249999999,
      "d": 114.50374999999985,
      "v": 70
    },
    {
      "midi": 60,
      "hit": false,
      "t": 15343.50249999999,
      "d": 114.50374999999985,
      "v": 83
    },
    {
      "midi": 69,
      "hit": false,
      "t": 15343.502499999991,
      "d": 229.0074999999997,
      "v": 84
    },
    {
      "midi": 54,
      "hit": false,
      "t": 15343.5025,
      "d": 9.541979166666351,
      "v": 55
    },
    {
      "midi": 65,
      "hit": false,
      "t": 15458.00624999999,
      "d": 114.50374999999985,
      "v": 78
    },
    {
      "midi": 65,
      "hit": false,
      "t": 15458.00624999999,
      "d": 114.50374999999985,
      "v": 92
    },
    {
      "midi": 54,
      "hit": false,
      "t": 15467.548229166667,
      "d": 9.541979166666351,
      "v": 35
    },
    {
      "midi": 38,
      "hit": false,
      "t": 15567.739010416666,
      "d": 9.54197916666817,
      "v": 96
    },
    {
      "midi": 65,
      "hit": false,
      "t": 15572.50999999999,
      "d": 343.51124999999956,
      "v": 120
    },
    {
      "midi": 69,
      "hit": false,
      "t": 15572.50999999999,
      "d": 343.51124999999956,
      "v": 120
    },
    {
      "midi": 72,
      "hit": false,
      "t": 15572.50999999999,
      "d": 343.51124999999956,
      "v": 120
    },
    {
      "midi": 65,
      "hit": false,
      "t": 15572.50999999999,
      "d": 114.50374999999985,
      "v": 86
    },
    {
      "midi": 65,
      "hit": false,
      "t": 15572.50999999999,
      "d": 114.50374999999985,
      "v": 103
    },
    {
      "midi": 72,
      "hit": false,
      "t": 15572.509999999991,
      "d": 458.0149999999994,
      "v": 84
    },
    {
      "midi": 42,
      "hit": false,
      "t": 15572.51,
      "d": 9.54197916666817,
      "v": 125
    },
    {
      "midi": 54,
      "hit": false,
      "t": 15572.51,
      "d": 9.54197916666817,
      "v": 75
    },
    {
      "midi": 65,
      "hit": false,
      "t": 15687.01374999999,
      "d": 229.0074999999997,
      "v": 78
    },
    {
      "midi": 65,
      "hit": false,
      "t": 15687.01374999999,
      "d": 114.50374999999985,
      "v": 92
    },
    {
      "midi": 54,
      "hit": false,
      "t": 15696.555729166668,
      "d": 9.541979166666351,
      "v": 35
    },
    {
      "midi": 64,
      "hit": false,
      "t": 15801.517499999989,
      "d": 114.50374999999985,
      "v": 70
    },
    {
      "midi": 64,
      "hit": false,
      "t": 15801.517499999989,
      "d": 114.50374999999985,
      "v": 83
    },
    {
      "midi": 36,
      "hit": false,
      "t": 15801.517500000002,
      "d": 9.541979166666351,
      "v": 108
    },
    {
      "midi": 54,
      "hit": false,
      "t": 15801.517500000002,
      "d": 9.541979166666351,
      "v": 55
    },
    {
      "midi": 65,
      "hit": false,
      "t": 15916.021249999989,
      "d": 114.50374999999985,
      "v": 78
    },
    {
      "midi": 65,
      "hit": false,
      "t": 15916.021249999989,
      "d": 114.50374999999985,
      "v": 92
    },
    {
      "midi": 54,
      "hit": false,
      "t": 15925.563229166668,
      "d": 9.541979166666351,
      "v": 35
    },
    {
      "midi": 38,
      "hit": false,
      "t": 16025.754010416667,
      "d": 9.54197916666817,
      "v": 96
    },
    {
      "midi": 65,
      "hit": false,
      "t": 16030.524999999989,
      "d": 343.51124999999956,
      "v": 120
    },
    {
      "midi": 69,
      "hit": false,
      "t": 16030.524999999989,
      "d": 343.51124999999956,
      "v": 120
    },
    {
      "midi": 72,
      "hit": false,
      "t": 16030.524999999989,
      "d": 343.51124999999956,
      "v": 120
    },
    {
      "midi": 65,
      "hit": false,
      "t": 16030.524999999989,
      "d": 114.50374999999985,
      "v": 86
    },
    {
      "midi": 65,
      "hit": false,
      "t": 16030.524999999989,
      "d": 114.50374999999985,
      "v": 103
    },
    {
      "midi": 81,
      "hit": false,
      "t": 16030.52499999999,
      "d": 458.0149999999994,
      "v": 84
    },
    {
      "midi": 42,
      "hit": false,
      "t": 16030.525000000001,
      "d": 9.54197916666817,
      "v": 125
    },
    {
      "midi": 54,
      "hit": false,
      "t": 16030.525000000001,
      "d": 9.54197916666817,
      "v": 75
    },
    {
      "midi": 65,
      "hit": false,
      "t": 16145.028749999989,
      "d": 229.0074999999997,
      "v": 78
    },
    {
      "midi": 65,
      "hit": false,
      "t": 16145.028749999989,
      "d": 114.50374999999985,
      "v": 92
    },
    {
      "midi": 54,
      "hit": false,
      "t": 16154.57072916667,
      "d": 9.541979166666351,
      "v": 35
    },
    {
      "midi": 60,
      "hit": false,
      "t": 16259.532499999988,
      "d": 114.50374999999985,
      "v": 70
    },
    {
      "midi": 60,
      "hit": false,
      "t": 16259.532499999988,
      "d": 114.50374999999985,
      "v": 83
    },
    {
      "midi": 36,
      "hit": false,
      "t": 16259.532500000003,
      "d": 9.541979166666351,
      "v": 108
    },
    {
      "midi": 54,
      "hit": false,
      "t": 16259.532500000003,
      "d": 9.541979166666351,
      "v": 55
    },
    {
      "midi": 65,
      "hit": false,
      "t": 16374.036249999988,
      "d": 114.50375000000167,
      "v": 78
    },
    {
      "midi": 65,
      "hit": false,
      "t": 16374.036249999988,
      "d": 114.50375000000167,
      "v": 92
    },
    {
      "midi": 54,
      "hit": false,
      "t": 16383.57822916667,
      "d": 9.54197916666817,
      "v": 35
    },
    {
      "midi": 38,
      "hit": false,
      "t": 16483.769010416672,
      "d": 9.541979166664532,
      "v": 96
    },
    {
      "midi": 79,
      "hit": false,
      "t": 16488.53999999999,
      "d": 916.0299999999988,
      "v": 84
    },
    {
      "midi": 64,
      "hit": false,
      "t": 16488.53999999999,
      "d": 801.526249999999,
      "v": 120
    },
    {
      "midi": 67,
      "hit": false,
      "t": 16488.53999999999,
      "d": 801.526249999999,
      "v": 120
    },
    {
      "midi": 71,
      "hit": false,
      "t": 16488.53999999999,
      "d": 801.526249999999,
      "v": 120
    },
    {
      "midi": 59,
      "hit": false,
      "t": 16488.53999999999,
      "d": 114.50374999999985,
      "v": 86
    },
    {
      "midi": 59,
      "hit": false,
      "t": 16488.53999999999,
      "d": 114.50374999999985,
      "v": 103
    },
    {
      "midi": 42,
      "hit": false,
      "t": 16488.540000000005,
      "d": 9.541979166664532,
      "v": 125
    },
    {
      "midi": 54,
      "hit": false,
      "t": 16488.540000000005,
      "d": 9.541979166664532,
      "v": 75
    },
    {
      "midi": 76,
      "hit": false,
      "t": 16488.540000000008,
      "d": 916.0299999999988,
      "v": 105
    },
    {
      "midi": 71,
      "hit": false,
      "t": 16488.540000000008,
      "d": 916.0299999999988,
      "v": 105
    },
    {
      "midi": 74,
      "hit": false,
      "t": 16488.540000000008,
      "d": 916.0299999999988,
      "v": 105
    },
    {
      "midi": 67,
      "hit": false,
      "t": 16488.540000000008,
      "d": 916.0299999999988,
      "v": 105
    },
    {
      "midi": 83,
      "hit": false,
      "t": 16498.081979166665,
      "d": 916.0299999999988,
      "v": 80
    },
    {
      "midi": 59,
      "hit": false,
      "t": 16603.04374999999,
      "d": 114.50374999999985,
      "v": 70
    },
    {
      "midi": 59,
      "hit": false,
      "t": 16603.04374999999,
      "d": 114.50374999999985,
      "v": 83
    },
    {
      "midi": 54,
      "hit": false,
      "t": 16612.58572916667,
      "d": 9.54197916666817,
      "v": 35
    },
    {
      "midi": 59,
      "hit": false,
      "t": 16717.54749999999,
      "d": 114.50374999999985,
      "v": 78
    },
    {
      "midi": 59,
      "hit": false,
      "t": 16717.54749999999,
      "d": 114.50374999999985,
      "v": 92
    },
    {
      "midi": 36,
      "hit": false,
      "t": 16717.547500000004,
      "d": 9.54197916666817,
      "v": 108
    },
    {
      "midi": 54,
      "hit": false,
      "t": 16717.547500000004,
      "d": 9.54197916666817,
      "v": 55
    },
    {
      "midi": 59,
      "hit": false,
      "t": 16832.05124999999,
      "d": 114.50374999999985,
      "v": 70
    },
    {
      "midi": 59,
      "hit": false,
      "t": 16832.05124999999,
      "d": 114.50374999999985,
      "v": 83
    },
    {
      "midi": 54,
      "hit": false,
      "t": 16841.593229166672,
      "d": 9.54197916666817,
      "v": 35
    },
    {
      "midi": 38,
      "hit": false,
      "t": 16941.784010416675,
      "d": 9.541979166664532,
      "v": 96
    },
    {
      "midi": 59,
      "hit": false,
      "t": 16946.55499999999,
      "d": 114.50374999999985,
      "v": 78
    },
    {
      "midi": 59,
      "hit": false,
      "t": 16946.55499999999,
      "d": 114.50374999999985,
      "v": 92
    },
    {
      "midi": 42,
      "hit": false,
      "t": 16946.555000000008,
      "d": 9.541979166664532,
      "v": 125
    },
    {
      "midi": 54,
      "hit": false,
      "t": 16946.555000000008,
      "d": 9.541979166664532,
      "v": 75
    },
    {
      "midi": 59,
      "hit": false,
      "t": 17061.05874999999,
      "d": 114.50374999999985,
      "v": 70
    },
    {
      "midi": 59,
      "hit": false,
      "t": 17061.05874999999,
      "d": 114.50374999999985,
      "v": 83
    },
    {
      "midi": 54,
      "hit": false,
      "t": 17070.600729166672,
      "d": 9.54197916666817,
      "v": 35
    },
    {
      "midi": 64,
      "hit": false,
      "t": 17175.56249999999,
      "d": 114.50374999999985,
      "v": 70
    },
    {
      "midi": 64,
      "hit": false,
      "t": 17175.56249999999,
      "d": 114.50374999999985,
      "v": 83
    },
    {
      "midi": 54,
      "hit": false,
      "t": 17175.562500000007,
      "d": 9.54197916666817,
      "v": 55
    },
    {
      "midi": 67,
      "hit": false,
      "t": 17290.06624999999,
      "d": 114.50374999999985,
      "v": 86
    },
    {
      "midi": 67,
      "hit": false,
      "t": 17290.06624999999,
      "d": 114.50374999999985,
      "v": 103
    },
    {
      "midi": 54,
      "hit": false,
      "t": 17299.608229166675,
      "d": 9.54197916666817,
      "v": 35
    },
    {
      "midi": 38,
      "hit": false,
      "t": 17399.79901041668,
      "d": 9.541979166664532,
      "v": 96
    },
    {
      "midi": 72,
      "hit": false,
      "t": 17404.56999999999,
      "d": 458.0149999999994,
      "v": 84
    },
    {
      "midi": 57,
      "hit": false,
      "t": 17404.56999999999,
      "d": 343.51124999999956,
      "v": 120
    },
    {
      "midi": 60,
      "hit": false,
      "t": 17404.56999999999,
      "d": 343.51124999999956,
      "v": 120
    },
    {
      "midi": 72,
      "hit": false,
      "t": 17404.56999999999,
      "d": 343.51124999999956,
      "v": 120
    },
    {
      "midi": 60,
      "hit": false,
      "t": 17404.56999999999,
      "d": 114.50374999999985,
      "v": 70
    },
    {
      "midi": 60,
      "hit": false,
      "t": 17404.56999999999,
      "d": 114.50374999999985,
      "v": 83
    },
    {
      "midi": 64,
      "hit": false,
      "t": 17404.570000000007,
      "d": 916.0299999999988,
      "v": 105
    },
    {
      "midi": 72,
      "hit": false,
      "t": 17404.570000000007,
      "d": 916.0299999999988,
      "v": 105
    },
    {
      "midi": 67,
      "hit": false,
      "t": 17404.570000000007,
      "d": 916.0299999999988,
      "v": 105
    },
    {
      "midi": 42,
      "hit": false,
      "t": 17404.57000000001,
      "d": 9.541979166664532,
      "v": 125
    },
    {
      "midi": 54,
      "hit": false,
      "t": 17404.57000000001,
      "d": 9.541979166664532,
      "v": 75
    },
    {
      "midi": 84,
      "hit": false,
      "t": 17414.111979166664,
      "d": 916.0299999999988,
      "v": 80
    },
    {
      "midi": 69,
      "hit": false,
      "t": 17519.07374999999,
      "d": 114.50374999999985,
      "v": 86
    },
    {
      "midi": 69,
      "hit": false,
      "t": 17519.07374999999,
      "d": 114.50374999999985,
      "v": 103
    },
    {
      "midi": 54,
      "hit": false,
      "t": 17528.615729166675,
      "d": 9.54197916666817,
      "v": 35
    },
    {
      "midi": 69,
      "hit": false,
      "t": 17633.57749999999,
      "d": 114.50374999999985,
      "v": 78
    },
    {
      "midi": 69,
      "hit": false,
      "t": 17633.57749999999,
      "d": 114.50374999999985,
      "v": 92
    },
    {
      "midi": 36,
      "hit": false,
      "t": 17633.57750000001,
      "d": 9.54197916666817,
      "v": 108
    },
    {
      "midi": 54,
      "hit": false,
      "t": 17633.57750000001,
      "d": 9.54197916666817,
      "v": 55
    },
    {
      "midi": 60,
      "hit": false,
      "t": 17748.08124999999,
      "d": 114.50374999999985,
      "v": 70
    },
    {
      "midi": 60,
      "hit": false,
      "t": 17748.08124999999,
      "d": 114.50374999999985,
      "v": 83
    },
    {
      "midi": 54,
      "hit": false,
      "t": 17757.62322916668,
      "d": 9.54197916666817,
      "v": 35
    },
    {
      "midi": 38,
      "hit": false,
      "t": 17857.81401041668,
      "d": 9.541979166664532,
      "v": 96
    },
    {
      "midi": 74,
      "hit": false,
      "t": 17862.58499999999,
      "d": 229.0074999999997,
      "v": 84
    },
    {
      "midi": 62,
      "hit": false,
      "t": 17862.58499999999,
      "d": 190.8395833333343,
      "v": 120
    },
    {
      "midi": 65,
      "hit": false,
      "t": 17862.58499999999,
      "d": 190.8395833333343,
      "v": 120
    },
    {
      "midi": 72,
      "hit": false,
      "t": 17862.58499999999,
      "d": 190.8395833333343,
      "v": 120
    },
    {
      "midi": 69,
      "hit": false,
      "t": 17862.58499999999,
      "d": 114.50374999999985,
      "v": 86
    },
    {
      "midi": 69,
      "hit": false,
      "t": 17862.58499999999,
      "d": 114.50374999999985,
      "v": 103
    },
    {
      "midi": 42,
      "hit": false,
      "t": 17862.585000000014,
      "d": 9.541979166664532,
      "v": 125
    },
    {
      "midi": 54,
      "hit": false,
      "t": 17862.585000000014,
      "d": 9.541979166664532,
      "v": 75
    },
    {
      "midi": 69,
      "hit": false,
      "t": 17977.088749999988,
      "d": 229.0074999999997,
      "v": 78
    },
    {
      "midi": 69,
      "hit": false,
      "t": 17977.088749999988,
      "d": 114.50374999999985,
      "v": 92
    },
    {
      "midi": 54,
      "hit": false,
      "t": 17986.630729166678,
      "d": 9.54197916666817,
      "v": 35
    },
    {
      "midi": 76,
      "hit": false,
      "t": 18091.592499999988,
      "d": 229.0074999999997,
      "v": 84
    },
    {
      "midi": 64,
      "hit": false,
      "t": 18091.592499999988,
      "d": 190.8395833333343,
      "v": 120
    },
    {
      "midi": 67,
      "hit": false,
      "t": 18091.592499999988,
      "d": 190.8395833333343,
      "v": 120
    },
    {
      "midi": 72,
      "hit": false,
      "t": 18091.592499999988,
      "d": 190.8395833333343,
      "v": 120
    },
    {
      "midi": 60,
      "hit": false,
      "t": 18091.592499999988,
      "d": 114.50374999999985,
      "v": 70
    },
    {
      "midi": 60,
      "hit": false,
      "t": 18091.592499999988,
      "d": 114.50374999999985,
      "v": 83
    },
    {
      "midi": 36,
      "hit": false,
      "t": 18091.592500000013,
      "d": 9.54197916666817,
      "v": 108
    },
    {
      "midi": 54,
      "hit": false,
      "t": 18091.592500000013,
      "d": 9.54197916666817,
      "v": 55
    },
    {
      "midi": 69,
      "hit": false,
      "t": 18206.096249999988,
      "d": 114.50374999999985,
      "v": 86
    },
    {
      "midi": 69,
      "hit": false,
      "t": 18206.096249999988,
      "d": 114.50374999999985,
      "v": 103
    },
    {
      "midi": 54,
      "hit": false,
      "t": 18215.63822916668,
      "d": 9.54197916666817,
      "v": 35
    },
    {
      "midi": 38,
      "hit": false,
      "t": 18315.829010416684,
      "d": 9.541979166664532,
      "v": 96
    },
    {
      "midi": 77,
      "hit": false,
      "t": 18320.599999999988,
      "d": 458.0149999999994,
      "v": 84
    },
    {
      "midi": 65,
      "hit": false,
      "t": 18320.599999999988,
      "d": 343.51124999999956,
      "v": 120
    },
    {
      "midi": 69,
      "hit": false,
      "t": 18320.599999999988,
      "d": 343.51124999999956,
      "v": 120
    },
    {
      "midi": 72,
      "hit": false,
      "t": 18320.599999999988,
      "d": 343.51124999999956,
      "v": 120
    },
    {
      "midi": 58,
      "hit": false,
      "t": 18320.599999999988,
      "d": 114.50374999999985,
      "v": 70
    },
    {
      "midi": 58,
      "hit": false,
      "t": 18320.599999999988,
      "d": 114.50374999999985,
      "v": 83
    },
    {
      "midi": 62,
      "hit": false,
      "t": 18320.600000000006,
      "d": 1832.0600000000013,
      "v": 105
    },
    {
      "midi": 70,
      "hit": false,
      "t": 18320.600000000006,
      "d": 1832.0600000000013,
      "v": 105
    },
    {
      "midi": 65,
      "hit": false,
      "t": 18320.600000000006,
      "d": 1832.0600000000013,
      "v": 105
    },
    {
      "midi": 74,
      "hit": false,
      "t": 18320.600000000006,
      "d": 1832.0600000000013,
      "v": 105
    },
    {
      "midi": 49,
      "hit": false,
      "t": 18320.600000000017,
      "d": 9.541979166664532,
      "v": 100
    },
    {
      "midi": 54,
      "hit": false,
      "t": 18320.600000000017,
      "d": 9.541979166664532,
      "v": 75
    },
    {
      "midi": 86,
      "hit": false,
      "t": 18330.141979166663,
      "d": 1832.0600000000013,
      "v": 80
    },
    {
      "midi": 65,
      "hit": false,
      "t": 18435.103749999987,
      "d": 114.50374999999985,
      "v": 86
    },
    {
      "midi": 65,
      "hit": false,
      "t": 18435.103749999987,
      "d": 114.50374999999985,
      "v": 103
    },
    {
      "midi": 54,
      "hit": false,
      "t": 18444.64572916668,
      "d": 9.54197916666817,
      "v": 35
    },
    {
      "midi": 65,
      "hit": false,
      "t": 18549.607499999987,
      "d": 114.50374999999985,
      "v": 78
    },
    {
      "midi": 65,
      "hit": false,
      "t": 18549.607499999987,
      "d": 114.50374999999985,
      "v": 92
    },
    {
      "midi": 36,
      "hit": false,
      "t": 18549.607500000016,
      "d": 9.54197916666817,
      "v": 108
    },
    {
      "midi": 54,
      "hit": false,
      "t": 18549.607500000016,
      "d": 9.54197916666817,
      "v": 55
    },
    {
      "midi": 58,
      "hit": false,
      "t": 18664.111249999987,
      "d": 114.50374999999985,
      "v": 70
    },
    {
      "midi": 58,
      "hit": false,
      "t": 18664.111249999987,
      "d": 114.50374999999985,
      "v": 83
    },
    {
      "midi": 54,
      "hit": false,
      "t": 18673.653229166684,
      "d": 9.54197916666817,
      "v": 35
    },
    {
      "midi": 38,
      "hit": false,
      "t": 18773.844010416688,
      "d": 9.541979166664532,
      "v": 96
    },
    {
      "midi": 76,
      "hit": false,
      "t": 18778.614999999987,
      "d": 458.0149999999994,
      "v": 84
    },
    {
      "midi": 64,
      "hit": false,
      "t": 18778.614999999987,
      "d": 343.51124999999956,
      "v": 120
    },
    {
      "midi": 67,
      "hit": false,
      "t": 18778.614999999987,
      "d": 343.51124999999956,
      "v": 120
    },
    {
      "midi": 72,
      "hit": false,
      "t": 18778.614999999987,
      "d": 343.51124999999956,
      "v": 120
    },
    {
      "midi": 70,
      "hit": false,
      "t": 18778.614999999987,
      "d": 114.50374999999985,
      "v": 86
    },
    {
      "midi": 70,
      "hit": false,
      "t": 18778.614999999987,
      "d": 114.50374999999985,
      "v": 103
    },
    {
      "midi": 42,
      "hit": false,
      "t": 18778.61500000002,
      "d": 9.541979166664532,
      "v": 125
    },
    {
      "midi": 54,
      "hit": false,
      "t": 18778.61500000002,
      "d": 9.541979166664532,
      "v": 75
    },
    {
      "midi": 70,
      "hit": false,
      "t": 18893.118749999987,
      "d": 229.0074999999997,
      "v": 78
    },
    {
      "midi": 70,
      "hit": false,
      "t": 18893.118749999987,
      "d": 114.50374999999985,
      "v": 92
    },
    {
      "midi": 54,
      "hit": false,
      "t": 18902.660729166684,
      "d": 9.54197916666817,
      "v": 35
    },
    {
      "midi": 65,
      "hit": false,
      "t": 19007.622499999987,
      "d": 114.50374999999985,
      "v": 70
    },
    {
      "midi": 65,
      "hit": false,
      "t": 19007.622499999987,
      "d": 114.50374999999985,
      "v": 83
    },
    {
      "midi": 54,
      "hit": false,
      "t": 19007.62250000002,
      "d": 9.54197916666817,
      "v": 55
    },
    {
      "midi": 70,
      "hit": false,
      "t": 19122.126249999987,
      "d": 114.50374999999985,
      "v": 86
    },
    {
      "midi": 70,
      "hit": false,
      "t": 19122.126249999987,
      "d": 114.50374999999985,
      "v": 103
    },
    {
      "midi": 54,
      "hit": false,
      "t": 19131.668229166688,
      "d": 9.54197916666817,
      "v": 35
    },
    {
      "midi": 38,
      "hit": false,
      "t": 19231.85901041669,
      "d": 9.541979166664532,
      "v": 96
    },
    {
      "midi": 74,
      "hit": false,
      "t": 19236.629999999986,
      "d": 458.0149999999994,
      "v": 84
    },
    {
      "midi": 62,
      "hit": false,
      "t": 19236.629999999986,
      "d": 343.51124999999956,
      "v": 120
    },
    {
      "midi": 65,
      "hit": false,
      "t": 19236.629999999986,
      "d": 343.51124999999956,
      "v": 120
    },
    {
      "midi": 72,
      "hit": false,
      "t": 19236.629999999986,
      "d": 343.51124999999956,
      "v": 120
    },
    {
      "midi": 70,
      "hit": false,
      "t": 19236.629999999986,
      "d": 114.50374999999985,
      "v": 78
    },
    {
      "midi": 70,
      "hit": false,
      "t": 19236.629999999986,
      "d": 114.50374999999985,
      "v": 103
    },
    {
      "midi": 42,
      "hit": false,
      "t": 19236.630000000023,
      "d": 9.541979166664532,
      "v": 125
    },
    {
      "midi": 54,
      "hit": false,
      "t": 19236.630000000023,
      "d": 9.541979166664532,
      "v": 75
    },
    {
      "midi": 70,
      "hit": false,
      "t": 19351.133749999986,
      "d": 229.0074999999997,
      "v": 78
    },
    {
      "midi": 70,
      "hit": false,
      "t": 19351.133749999986,
      "d": 114.50374999999985,
      "v": 92
    },
    {
      "midi": 54,
      "hit": false,
      "t": 19360.675729166687,
      "d": 9.54197916666817,
      "v": 35
    },
    {
      "midi": 65,
      "hit": false,
      "t": 19465.637499999986,
      "d": 114.50374999999985,
      "v": 70
    },
    {
      "midi": 65,
      "hit": false,
      "t": 19465.637499999986,
      "d": 114.50374999999985,
      "v": 83
    },
    {
      "midi": 36,
      "hit": false,
      "t": 19465.637500000023,
      "d": 9.54197916666817,
      "v": 108
    },
    {
      "midi": 54,
      "hit": false,
      "t": 19465.637500000023,
      "d": 9.54197916666817,
      "v": 55
    },
    {
      "midi": 70,
      "hit": false,
      "t": 19580.141249999986,
      "d": 114.50374999999985,
      "v": 86
    },
    {
      "midi": 70,
      "hit": false,
      "t": 19580.141249999986,
      "d": 114.50374999999985,
      "v": 103
    },
    {
      "midi": 54,
      "hit": false,
      "t": 19589.68322916669,
      "d": 9.54197916666817,
      "v": 35
    },
    {
      "midi": 38,
      "hit": false,
      "t": 19689.874010416694,
      "d": 9.541979166664532,
      "v": 96
    },
    {
      "midi": 72,
      "hit": false,
      "t": 19694.644999999986,
      "d": 229.0074999999997,
      "v": 84
    },
    {
      "midi": 60,
      "hit": false,
      "t": 19694.644999999986,
      "d": 190.8395833333343,
      "v": 120
    },
    {
      "midi": 65,
      "hit": false,
      "t": 19694.644999999986,
      "d": 190.8395833333343,
      "v": 120
    },
    {
      "midi": 72,
      "hit": false,
      "t": 19694.644999999986,
      "d": 190.8395833333343,
      "v": 120
    },
    {
      "midi": 70,
      "hit": false,
      "t": 19694.644999999986,
      "d": 114.50374999999985,
      "v": 86
    },
    {
      "midi": 70,
      "hit": false,
      "t": 19694.644999999986,
      "d": 114.50374999999985,
      "v": 103
    },
    {
      "midi": 42,
      "hit": false,
      "t": 19694.645000000026,
      "d": 9.541979166664532,
      "v": 125
    },
    {
      "midi": 54,
      "hit": false,
      "t": 19694.645000000026,
      "d": 9.541979166664532,
      "v": 75
    },
    {
      "midi": 70,
      "hit": false,
      "t": 19809.148749999986,
      "d": 229.0074999999997,
      "v": 78
    },
    {
      "midi": 70,
      "hit": false,
      "t": 19809.148749999986,
      "d": 114.50374999999985,
      "v": 92
    },
    {
      "midi": 54,
      "hit": false,
      "t": 19818.69072916669,
      "d": 9.54197916666817,
      "v": 35
    },
    {
      "midi": 74,
      "hit": false,
      "t": 19923.652499999986,
      "d": 229.0074999999997,
      "v": 84
    },
    {
      "midi": 62,
      "hit": false,
      "t": 19923.652499999986,
      "d": 190.8395833333343,
      "v": 120
    },
    {
      "midi": 65,
      "hit": false,
      "t": 19923.652499999986,
      "d": 190.8395833333343,
      "v": 120
    },
    {
      "midi": 70,
      "hit": false,
      "t": 19923.652499999986,
      "d": 190.8395833333343,
      "v": 120
    },
    {
      "midi": 65,
      "hit": false,
      "t": 19923.652499999986,
      "d": 114.50374999999985,
      "v": 70
    },
    {
      "midi": 65,
      "hit": false,
      "t": 19923.652499999986,
      "d": 114.50374999999985,
      "v": 83
    },
    {
      "midi": 36,
      "hit": false,
      "t": 19923.652500000026,
      "d": 9.54197916666817,
      "v": 108
    },
    {
      "midi": 54,
      "hit": false,
      "t": 19923.652500000026,
      "d": 9.54197916666817,
      "v": 55
    },
    {
      "midi": 70,
      "hit": false,
      "t": 20038.156249999985,
      "d": 114.50374999999985,
      "v": 86
    },
    {
      "midi": 70,
      "hit": false,
      "t": 20038.156249999985,
      "d": 114.50374999999985,
      "v": 103
    },
    {
      "midi": 54,
      "hit": false,
      "t": 20047.698229166694,
      "d": 9.54197916666817,
      "v": 35
    },
    {
      "midi": 38,
      "hit": false,
      "t": 20147.889010416697,
      "d": 9.541979166664532,
      "v": 96
    },
    {
      "midi": 74,
      "hit": false,
      "t": 20152.659999999985,
      "d": 916.0299999999988,
      "v": 84
    },
    {
      "midi": 59,
      "hit": false,
      "t": 20152.659999999985,
      "d": 801.526249999999,
      "v": 120
    },
    {
      "midi": 62,
      "hit": false,
      "t": 20152.659999999985,
      "d": 801.526249999999,
      "v": 120
    },
    {
      "midi": 71,
      "hit": false,
      "t": 20152.659999999985,
      "d": 801.526249999999,
      "v": 120
    },
    {
      "midi": 62,
      "hit": false,
      "t": 20152.659999999985,
      "d": 114.50374999999985,
      "v": 70
    },
    {
      "midi": 62,
      "hit": false,
      "t": 20152.659999999985,
      "d": 114.50374999999985,
      "v": 100
    },
    {
      "midi": 74,
      "hit": false,
      "t": 20152.660000000007,
      "d": 1393.1289583333382,
      "v": 105
    },
    {
      "midi": 67,
      "hit": false,
      "t": 20152.660000000007,
      "d": 1393.1289583333382,
      "v": 105
    },
    {
      "midi": 71,
      "hit": false,
      "t": 20152.660000000007,
      "d": 1393.1289583333382,
      "v": 105
    },
    {
      "midi": 79,
      "hit": false,
      "t": 20152.660000000007,
      "d": 1393.1289583333382,
      "v": 105
    },
    {
      "midi": 42,
      "hit": false,
      "t": 20152.66000000003,
      "d": 9.541979166664532,
      "v": 105
    },
    {
      "midi": 54,
      "hit": false,
      "t": 20152.66000000003,
      "d": 9.541979166664532,
      "v": 75
    },
    {
      "midi": 91,
      "hit": false,
      "t": 20162.201979166664,
      "d": 5496.18,
      "v": 80
    },
    {
      "midi": 67,
      "hit": false,
      "t": 20267.163749999985,
      "d": 114.50374999999985,
      "v": 78
    },
    {
      "midi": 67,
      "hit": false,
      "t": 20267.163749999985,
      "d": 114.50374999999985,
      "v": 100
    },
    {
      "midi": 54,
      "hit": false,
      "t": 20276.705729166693,
      "d": 9.54197916666817,
      "v": 35
    },
    {
      "midi": 67,
      "hit": false,
      "t": 20381.667499999985,
      "d": 114.50374999999985,
      "v": 70
    },
    {
      "midi": 67,
      "hit": false,
      "t": 20381.667499999985,
      "d": 114.50374999999985,
      "v": 100
    },
    {
      "midi": 36,
      "hit": false,
      "t": 20381.66750000003,
      "d": 9.54197916666817,
      "v": 108
    },
    {
      "midi": 54,
      "hit": false,
      "t": 20381.66750000003,
      "d": 9.54197916666817,
      "v": 55
    },
    {
      "midi": 62,
      "hit": false,
      "t": 20496.171249999985,
      "d": 114.50374999999985,
      "v": 70
    },
    {
      "midi": 62,
      "hit": false,
      "t": 20496.171249999985,
      "d": 114.50374999999985,
      "v": 100
    },
    {
      "midi": 54,
      "hit": false,
      "t": 20505.713229166697,
      "d": 9.54197916666817,
      "v": 35
    },
    {
      "midi": 38,
      "hit": false,
      "t": 20605.9040104167,
      "d": 9.541979166664532,
      "v": 96
    },
    {
      "midi": 62,
      "hit": false,
      "t": 20610.674999999985,
      "d": 114.50374999999985,
      "v": 70
    },
    {
      "midi": 62,
      "hit": false,
      "t": 20610.674999999985,
      "d": 114.50374999999985,
      "v": 100
    },
    {
      "midi": 42,
      "hit": false,
      "t": 20610.675000000032,
      "d": 9.541979166664532,
      "v": 125
    },
    {
      "midi": 54,
      "hit": false,
      "t": 20610.675000000032,
      "d": 9.541979166664532,
      "v": 75
    },
    {
      "midi": 67,
      "hit": false,
      "t": 20725.178749999985,
      "d": 114.50374999999985,
      "v": 78
    },
    {
      "midi": 67,
      "hit": false,
      "t": 20725.178749999985,
      "d": 114.50374999999985,
      "v": 100
    },
    {
      "midi": 54,
      "hit": false,
      "t": 20734.720729166696,
      "d": 9.54197916666817,
      "v": 35
    },
    {
      "midi": 67,
      "hit": false,
      "t": 20839.682499999984,
      "d": 114.50374999999985,
      "v": 70
    },
    {
      "midi": 67,
      "hit": false,
      "t": 20839.682499999984,
      "d": 114.50374999999985,
      "v": 100
    },
    {
      "midi": 54,
      "hit": false,
      "t": 20839.68250000003,
      "d": 9.54197916666817,
      "v": 55
    },
    {
      "midi": 71,
      "hit": false,
      "t": 20954.186249999984,
      "d": 229.0074999999997,
      "v": 70
    },
    {
      "midi": 71,
      "hit": false,
      "t": 20954.186249999984,
      "d": 114.50374999999985,
      "v": 100
    },
    {
      "midi": 54,
      "hit": false,
      "t": 20963.7282291667,
      "d": 9.54197916666817,
      "v": 35
    },
    {
      "midi": 72,
      "hit": false,
      "t": 21068.689999999984,
      "d": 458.0149999999994,
      "v": 84
    },
    {
      "midi": 55,
      "hit": false,
      "t": 21068.689999999984,
      "d": 343.51124999999956,
      "v": 120
    },
    {
      "midi": 64,
      "hit": false,
      "t": 21068.689999999984,
      "d": 343.51124999999956,
      "v": 120
    },
    {
      "midi": 72,
      "hit": false,
      "t": 21068.689999999984,
      "d": 343.51124999999956,
      "v": 120
    },
    {
      "midi": 67,
      "hit": false,
      "t": 21068.689999999984,
      "d": 114.50374999999985,
      "v": 70
    },
    {
      "midi": 67,
      "hit": false,
      "t": 21068.689999999984,
      "d": 114.50374999999985,
      "v": 100
    },
    {
      "midi": 54,
      "hit": false,
      "t": 21068.690000000035,
      "d": 9.54197916666817,
      "v": 75
    },
    {
      "midi": 45,
      "hit": false,
      "t": 21068.690000000035,
      "d": 9.54197916666817,
      "v": 120
    },
    {
      "midi": 71,
      "hit": false,
      "t": 21183.193749999984,
      "d": 114.50374999999985,
      "v": 86
    },
    {
      "midi": 71,
      "hit": false,
      "t": 21183.193749999984,
      "d": 114.50374999999985,
      "v": 100
    },
    {
      "midi": 54,
      "hit": false,
      "t": 21192.735729166703,
      "d": 9.54197916666817,
      "v": 35
    },
    {
      "midi": 71,
      "hit": false,
      "t": 21297.697499999984,
      "d": 229.0074999999997,
      "v": 78
    },
    {
      "midi": 71,
      "hit": false,
      "t": 21297.697499999984,
      "d": 114.50374999999985,
      "v": 100
    },
    {
      "midi": 96,
      "hit": false,
      "t": 21297.697500000006,
      "d": 28.625937500000873,
      "v": 116
    },
    {
      "midi": 36,
      "hit": false,
      "t": 21297.69750000004,
      "d": 9.54197916666817,
      "v": 108
    },
    {
      "midi": 54,
      "hit": false,
      "t": 21297.69750000004,
      "d": 9.54197916666817,
      "v": 55
    },
    {
      "midi": 45,
      "hit": false,
      "t": 21297.69750000004,
      "d": 9.54197916666817,
      "v": 120
    },
    {
      "midi": 95,
      "hit": false,
      "t": 21326.323437500007,
      "d": 28.625937500000873,
      "v": 116
    },
    {
      "midi": 93,
      "hit": false,
      "t": 21354.949375000007,
      "d": 28.625937500000873,
      "v": 116
    },
    {
      "midi": 91,
      "hit": false,
      "t": 21383.57531250001,
      "d": 28.625937500000873,
      "v": 116
    },
    {
      "midi": 67,
      "hit": false,
      "t": 21412.201249999984,
      "d": 114.50374999999985,
      "v": 70
    },
    {
      "midi": 67,
      "hit": false,
      "t": 21412.201249999984,
      "d": 114.50374999999985,
      "v": 100
    },
    {
      "midi": 89,
      "hit": false,
      "t": 21412.20125000001,
      "d": 28.625937500000873,
      "v": 116
    },
    {
      "midi": 54,
      "hit": false,
      "t": 21421.743229166706,
      "d": 9.54197916666817,
      "v": 35
    },
    {
      "midi": 88,
      "hit": false,
      "t": 21440.82718750001,
      "d": 28.625937500000873,
      "v": 116
    },
    {
      "midi": 86,
      "hit": false,
      "t": 21469.45312500001,
      "d": 28.625937500000873,
      "v": 116
    },
    {
      "midi": 84,
      "hit": false,
      "t": 21498.07906250001,
      "d": 28.625937500000873,
      "v": 116
    },
    {
      "midi": 71,
      "hit": false,
      "t": 21526.704999999984,
      "d": 458.0149999999994,
      "v": 84
    },
    {
      "midi": 55,
      "hit": false,
      "t": 21526.704999999984,
      "d": 343.51124999999956,
      "v": 120
    },
    {
      "midi": 62,
      "hit": false,
      "t": 21526.704999999984,
      "d": 343.51124999999956,
      "v": 120
    },
    {
      "midi": 71,
      "hit": false,
      "t": 21526.704999999984,
      "d": 343.51124999999956,
      "v": 120
    },
    {
      "midi": 67,
      "hit": false,
      "t": 21526.704999999984,
      "d": 114.50374999999985,
      "v": 70
    },
    {
      "midi": 67,
      "hit": false,
      "t": 21526.704999999984,
      "d": 114.50374999999985,
      "v": 100
    },
    {
      "midi": 83,
      "hit": false,
      "t": 21526.705000000013,
      "d": 28.625937500000873,
      "v": 116
    },
    {
      "midi": 54,
      "hit": false,
      "t": 21526.70500000004,
      "d": 9.54197916666817,
      "v": 75
    },
    {
      "midi": 45,
      "hit": false,
      "t": 21526.70500000004,
      "d": 9.54197916666817,
      "v": 120
    },
    {
      "midi": 81,
      "hit": false,
      "t": 21555.330937500014,
      "d": 28.625937500000873,
      "v": 116
    },
    {
      "midi": 77,
      "hit": false,
      "t": 21612.582812500015,
      "d": 28.625937500000873,
      "v": 116
    },
    {
      "midi": 71,
      "hit": false,
      "t": 21641.208749999983,
      "d": 114.50374999999985,
      "v": 86
    },
    {
      "midi": 71,
      "hit": false,
      "t": 21641.208749999983,
      "d": 114.50374999999985,
      "v": 100
    },
    {
      "midi": 76,
      "hit": false,
      "t": 21641.208750000016,
      "d": 28.625937500000873,
      "v": 116
    },
    {
      "midi": 54,
      "hit": false,
      "t": 21650.75072916671,
      "d": 9.54197916666817,
      "v": 35
    },
    {
      "midi": 72,
      "hit": false,
      "t": 21698.460625000018,
      "d": 28.625937500000873,
      "v": 116
    },
    {
      "midi": 71,
      "hit": false,
      "t": 21755.712499999983,
      "d": 229.0074999999997,
      "v": 78
    },
    {
      "midi": 71,
      "hit": false,
      "t": 21755.712499999983,
      "d": 114.50374999999985,
      "v": 100
    },
    {
      "midi": 69,
      "hit": false,
      "t": 21755.71250000002,
      "d": 28.625937500000873,
      "v": 116
    },
    {
      "midi": 36,
      "hit": false,
      "t": 21755.712500000045,
      "d": 9.54197916666817,
      "v": 108
    },
    {
      "midi": 54,
      "hit": false,
      "t": 21755.712500000045,
      "d": 9.54197916666817,
      "v": 55
    },
    {
      "midi": 45,
      "hit": false,
      "t": 21755.712500000045,
      "d": 9.54197916666817,
      "v": 120
    },
    {
      "midi": 67,
      "hit": false,
      "t": 21784.33843750002,
      "d": 28.625937500000873,
      "v": 116
    },
    {
      "midi": 65,
      "hit": false,
      "t": 21812.96437500002,
      "d": 28.625937500000873,
      "v": 116
    },
    {
      "midi": 64,
      "hit": false,
      "t": 21841.590312500022,
      "d": 28.625937500000873,
      "v": 116
    },
    {
      "midi": 62,
      "hit": false,
      "t": 21870.216249999983,
      "d": 114.50374999999985,
      "v": 70
    },
    {
      "midi": 62,
      "hit": false,
      "t": 21870.216249999983,
      "d": 114.50374999999985,
      "v": 100
    },
    {
      "midi": 62,
      "hit": false,
      "t": 21870.216250000023,
      "d": 28.625937500000873,
      "v": 116
    },
    {
      "midi": 54,
      "hit": false,
      "t": 21879.758229166713,
      "d": 9.54197916666817,
      "v": 35
    },
    {
      "midi": 60,
      "hit": false,
      "t": 21898.842187500024,
      "d": 28.625937500000873,
      "v": 116
    },
    {
      "midi": 59,
      "hit": false,
      "t": 21927.468125000025,
      "d": 28.625937500000873,
      "v": 116
    },
    {
      "midi": 57,
      "hit": false,
      "t": 21956.094062500026,
      "d": 28.625937500000873,
      "v": 116
    },
    {
      "midi": 48,
      "hit": false,
      "t": 21979.94901041667,
      "d": 229.0074999999997,
      "v": 100
    },
    {
      "midi": 38,
      "hit": false,
      "t": 21979.949010416716,
      "d": 9.541979166664532,
      "v": 96
    },
    {
      "midi": 72,
      "hit": false,
      "t": 21984.719999999983,
      "d": 3664.119999999999,
      "v": 84
    },
    {
      "midi": 56,
      "hit": false,
      "t": 21984.719999999983,
      "d": 1832.0600000000013,
      "v": 120
    },
    {
      "midi": 63,
      "hit": false,
      "t": 21984.719999999983,
      "d": 1832.0600000000013,
      "v": 120
    },
    {
      "midi": 72,
      "hit": false,
      "t": 21984.719999999983,
      "d": 3664.1200000000026,
      "v": 120
    },
    {
      "midi": 63,
      "hit": false,
      "t": 21984.719999999983,
      "d": 114.50374999999985,
      "v": 86
    },
    {
      "midi": 63,
      "hit": false,
      "t": 21984.719999999983,
      "d": 114.50374999999985,
      "v": 103
    },
    {
      "midi": 60,
      "hit": false,
      "t": 21984.72,
      "d": 229.0074999999997,
      "v": 114
    },
    {
      "midi": 68,
      "hit": false,
      "t": 21984.720000000027,
      "d": 458.0149999999994,
      "v": 105
    },
    {
      "midi": 65,
      "hit": false,
      "t": 21984.720000000027,
      "d": 458.0149999999994,
      "v": 105
    },
    {
      "midi": 72,
      "hit": false,
      "t": 21984.720000000027,
      "d": 458.0149999999994,
      "v": 105
    },
    {
      "midi": 63,
      "hit": false,
      "t": 21984.720000000027,
      "d": 458.0149999999994,
      "v": 105
    },
    {
      "midi": 49,
      "hit": false,
      "t": 21984.72000000005,
      "d": 9.541979166664532,
      "v": 100
    },
    {
      "midi": 54,
      "hit": false,
      "t": 21984.72000000005,
      "d": 9.541979166664532,
      "v": 75
    },
    {
      "midi": 48,
      "hit": false,
      "t": 21989.490989583333,
      "d": 229.0074999999997,
      "v": 100
    },
    {
      "midi": 67,
      "hit": false,
      "t": 22099.223749999983,
      "d": 114.50374999999985,
      "v": 78
    },
    {
      "midi": 67,
      "hit": false,
      "t": 22099.223749999983,
      "d": 114.50374999999985,
      "v": 92
    },
    {
      "midi": 54,
      "hit": false,
      "t": 22108.765729166713,
      "d": 9.54197916666817,
      "v": 35
    },
    {
      "midi": 56,
      "hit": false,
      "t": 22208.95651041667,
      "d": 229.0074999999997,
      "v": 100
    },
    {
      "midi": 72,
      "hit": false,
      "t": 22213.727499999983,
      "d": 229.0074999999997,
      "v": 86
    },
    {
      "midi": 72,
      "hit": false,
      "t": 22213.727499999983,
      "d": 114.50374999999985,
      "v": 103
    },
    {
      "midi": 68,
      "hit": false,
      "t": 22213.7275,
      "d": 229.0074999999997,
      "v": 114
    },
    {
      "midi": 36,
      "hit": false,
      "t": 22213.727500000048,
      "d": 9.54197916666817,
      "v": 108
    },
    {
      "midi": 54,
      "hit": false,
      "t": 22213.727500000048,
      "d": 9.54197916666817,
      "v": 55
    },
    {
      "midi": 56,
      "hit": false,
      "t": 22218.498489583333,
      "d": 229.0074999999997,
      "v": 100
    },
    {
      "midi": 67,
      "hit": false,
      "t": 22328.231249999983,
      "d": 114.50374999999985,
      "v": 70
    },
    {
      "midi": 67,
      "hit": false,
      "t": 22328.231249999983,
      "d": 114.50374999999985,
      "v": 83
    },
    {
      "midi": 54,
      "hit": false,
      "t": 22337.773229166716,
      "d": 9.54197916666817,
      "v": 35
    },
    {
      "midi": 55,
      "hit": false,
      "t": 22437.96401041667,
      "d": 229.0074999999997,
      "v": 100
    },
    {
      "midi": 38,
      "hit": false,
      "t": 22437.96401041672,
      "d": 9.541979166664532,
      "v": 96
    },
    {
      "midi": 72,
      "hit": false,
      "t": 22442.734999999982,
      "d": 114.50374999999985,
      "v": 86
    },
    {
      "midi": 72,
      "hit": false,
      "t": 22442.734999999982,
      "d": 114.50374999999985,
      "v": 103
    },
    {
      "midi": 67,
      "hit": false,
      "t": 22442.735,
      "d": 229.0074999999997,
      "v": 114
    },
    {
      "midi": 68,
      "hit": false,
      "t": 22442.735000000026,
      "d": 458.0149999999994,
      "v": 105
    },
    {
      "midi": 65,
      "hit": false,
      "t": 22442.735000000026,
      "d": 458.0149999999994,
      "v": 105
    },
    {
      "midi": 72,
      "hit": false,
      "t": 22442.735000000026,
      "d": 458.0149999999994,
      "v": 105
    },
    {
      "midi": 63,
      "hit": false,
      "t": 22442.735000000026,
      "d": 458.0149999999994,
      "v": 105
    },
    {
      "midi": 42,
      "hit": false,
      "t": 22442.73500000005,
      "d": 9.541979166664532,
      "v": 125
    },
    {
      "midi": 54,
      "hit": false,
      "t": 22442.73500000005,
      "d": 9.541979166664532,
      "v": 75
    },
    {
      "midi": 55,
      "hit": false,
      "t": 22447.505989583333,
      "d": 229.0074999999997,
      "v": 100
    },
    {
      "midi": 72,
      "hit": false,
      "t": 22557.238749999982,
      "d": 229.0074999999997,
      "v": 78
    },
    {
      "midi": 72,
      "hit": false,
      "t": 22557.238749999982,
      "d": 114.50374999999985,
      "v": 92
    },
    {
      "midi": 54,
      "hit": false,
      "t": 22566.780729166716,
      "d": 9.54197916666817,
      "v": 35
    },
    {
      "midi": 53,
      "hit": false,
      "t": 22666.971510416668,
      "d": 458.0149999999994,
      "v": 100
    },
    {
      "midi": 67,
      "hit": false,
      "t": 22671.742499999982,
      "d": 114.50374999999985,
      "v": 70
    },
    {
      "midi": 67,
      "hit": false,
      "t": 22671.742499999982,
      "d": 114.50374999999985,
      "v": 83
    },
    {
      "midi": 65,
      "hit": false,
      "t": 22671.7425,
      "d": 458.0149999999994,
      "v": 114
    },
    {
      "midi": 54,
      "hit": false,
      "t": 22671.74250000005,
      "d": 9.54197916666817,
      "v": 55
    },
    {
      "midi": 53,
      "hit": false,
      "t": 22676.513489583333,
      "d": 458.0149999999994,
      "v": 100
    },
    {
      "midi": 72,
      "hit": false,
      "t": 22786.246249999982,
      "d": 114.50374999999985,
      "v": 70
    },
    {
      "midi": 72,
      "hit": false,
      "t": 22786.246249999982,
      "d": 114.50374999999985,
      "v": 83
    },
    {
      "midi": 54,
      "hit": false,
      "t": 22795.78822916672,
      "d": 9.54197916666817,
      "v": 35
    },
    {
      "midi": 38,
      "hit": false,
      "t": 22895.979010416722,
      "d": 9.541979166664532,
      "v": 96
    },
    {
      "midi": 67,
      "hit": false,
      "t": 22900.74999999998,
      "d": 114.50374999999985,
      "v": 70
    },
    {
      "midi": 67,
      "hit": false,
      "t": 22900.74999999998,
      "d": 114.50374999999985,
      "v": 83
    },
    {
      "midi": 68,
      "hit": false,
      "t": 22900.750000000025,
      "d": 458.0149999999994,
      "v": 105
    },
    {
      "midi": 63,
      "hit": false,
      "t": 22900.750000000025,
      "d": 458.0149999999994,
      "v": 105
    },
    {
      "midi": 65,
      "hit": false,
      "t": 22900.750000000025,
      "d": 458.0149999999994,
      "v": 105
    },
    {
      "midi": 72,
      "hit": false,
      "t": 22900.750000000025,
      "d": 458.0149999999994,
      "v": 105
    },
    {
      "midi": 42,
      "hit": false,
      "t": 22900.750000000055,
      "d": 9.541979166664532,
      "v": 125
    },
    {
      "midi": 54,
      "hit": false,
      "t": 22900.750000000055,
      "d": 9.541979166664532,
      "v": 75
    },
    {
      "midi": 72,
      "hit": false,
      "t": 23015.25374999998,
      "d": 114.50374999999985,
      "v": 86
    },
    {
      "midi": 72,
      "hit": false,
      "t": 23015.25374999998,
      "d": 114.50374999999985,
      "v": 103
    },
    {
      "midi": 54,
      "hit": false,
      "t": 23024.79572916672,
      "d": 9.54197916666817,
      "v": 35
    },
    {
      "midi": 51,
      "hit": false,
      "t": 23124.986510416667,
      "d": 229.0074999999997,
      "v": 100
    },
    {
      "midi": 72,
      "hit": false,
      "t": 23129.75749999998,
      "d": 229.0074999999997,
      "v": 78
    },
    {
      "midi": 72,
      "hit": false,
      "t": 23129.75749999998,
      "d": 114.50374999999985,
      "v": 92
    },
    {
      "midi": 63,
      "hit": false,
      "t": 23129.7575,
      "d": 229.0074999999997,
      "v": 114
    },
    {
      "midi": 36,
      "hit": false,
      "t": 23129.757500000054,
      "d": 9.54197916666817,
      "v": 108
    },
    {
      "midi": 54,
      "hit": false,
      "t": 23129.757500000054,
      "d": 9.54197916666817,
      "v": 55
    },
    {
      "midi": 51,
      "hit": false,
      "t": 23134.528489583332,
      "d": 229.0074999999997,
      "v": 100
    },
    {
      "midi": 67,
      "hit": false,
      "t": 23244.26124999998,
      "d": 114.50374999999985,
      "v": 70
    },
    {
      "midi": 67,
      "hit": false,
      "t": 23244.26124999998,
      "d": 114.50374999999985,
      "v": 83
    },
    {
      "midi": 54,
      "hit": false,
      "t": 23253.803229166722,
      "d": 9.54197916666817,
      "v": 35
    },
    {
      "midi": 50,
      "hit": false,
      "t": 23353.994010416667,
      "d": 229.0074999999997,
      "v": 100
    },
    {
      "midi": 38,
      "hit": false,
      "t": 23353.994010416725,
      "d": 9.541979166664532,
      "v": 96
    },
    {
      "midi": 72,
      "hit": false,
      "t": 23358.76499999998,
      "d": 114.50374999999985,
      "v": 86
    },
    {
      "midi": 72,
      "hit": false,
      "t": 23358.76499999998,
      "d": 114.50374999999985,
      "v": 103
    },
    {
      "midi": 62,
      "hit": false,
      "t": 23358.765,
      "d": 229.0074999999997,
      "v": 114
    },
    {
      "midi": 63,
      "hit": false,
      "t": 23358.765000000025,
      "d": 458.0149999999994,
      "v": 105
    },
    {
      "midi": 68,
      "hit": false,
      "t": 23358.765000000025,
      "d": 458.0149999999994,
      "v": 105
    },
    {
      "midi": 65,
      "hit": false,
      "t": 23358.765000000025,
      "d": 458.0149999999994,
      "v": 105
    },
    {
      "midi": 72,
      "hit": false,
      "t": 23358.765000000025,
      "d": 458.0149999999994,
      "v": 105
    },
    {
      "midi": 42,
      "hit": false,
      "t": 23358.765000000058,
      "d": 9.541979166664532,
      "v": 125
    },
    {
      "midi": 54,
      "hit": false,
      "t": 23358.765000000058,
      "d": 9.541979166664532,
      "v": 75
    },
    {
      "midi": 50,
      "hit": false,
      "t": 23363.53598958333,
      "d": 229.0074999999997,
      "v": 100
    },
    {
      "midi": 72,
      "hit": false,
      "t": 23473.26874999998,
      "d": 229.0074999999997,
      "v": 78
    },
    {
      "midi": 72,
      "hit": false,
      "t": 23473.26874999998,
      "d": 114.50374999999985,
      "v": 92
    },
    {
      "midi": 54,
      "hit": false,
      "t": 23482.810729166722,
      "d": 9.54197916666817,
      "v": 35
    },
    {
      "midi": 51,
      "hit": false,
      "t": 23583.001510416667,
      "d": 229.0074999999997,
      "v": 100
    },
    {
      "midi": 67,
      "hit": false,
      "t": 23587.77249999998,
      "d": 114.50374999999985,
      "v": 70
    },
    {
      "midi": 67,
      "hit": false,
      "t": 23587.77249999998,
      "d": 114.50374999999985,
      "v": 83
    },
    {
      "midi": 63,
      "hit": false,
      "t": 23587.7725,
      "d": 229.0074999999997,
      "v": 114
    },
    {
      "midi": 36,
      "hit": false,
      "t": 23587.772500000057,
      "d": 9.54197916666817,
      "v": 108
    },
    {
      "midi": 54,
      "hit": false,
      "t": 23587.772500000057,
      "d": 9.54197916666817,
      "v": 55
    },
    {
      "midi": 51,
      "hit": false,
      "t": 23592.54348958333,
      "d": 229.0074999999997,
      "v": 100
    },
    {
      "midi": 72,
      "hit": false,
      "t": 23702.27624999998,
      "d": 114.50374999999985,
      "v": 86
    },
    {
      "midi": 72,
      "hit": false,
      "t": 23702.27624999998,
      "d": 114.50374999999985,
      "v": 103
    },
    {
      "midi": 54,
      "hit": false,
      "t": 23711.818229166725,
      "d": 9.54197916666817,
      "v": 35
    },
    {
      "midi": 50,
      "hit": false,
      "t": 23812.009010416667,
      "d": 229.0074999999997,
      "v": 100
    },
    {
      "midi": 38,
      "hit": false,
      "t": 23812.00901041673,
      "d": 9.541979166664532,
      "v": 96
    },
    {
      "midi": 65,
      "hit": false,
      "t": 23816.77999999998,
      "d": 114.50374999999985,
      "v": 78
    },
    {
      "midi": 65,
      "hit": false,
      "t": 23816.77999999998,
      "d": 114.50374999999985,
      "v": 103
    },
    {
      "midi": 58,
      "hit": false,
      "t": 23816.779999999984,
      "d": 1832.0600000000013,
      "v": 120
    },
    {
      "midi": 65,
      "hit": false,
      "t": 23816.779999999984,
      "d": 1832.0600000000013,
      "v": 120
    },
    {
      "midi": 62,
      "hit": false,
      "t": 23816.78,
      "d": 229.0074999999997,
      "v": 114
    },
    {
      "midi": 74,
      "hit": false,
      "t": 23816.780000000024,
      "d": 458.0149999999994,
      "v": 105
    },
    {
      "midi": 68,
      "hit": false,
      "t": 23816.780000000024,
      "d": 458.0149999999994,
      "v": 105
    },
    {
      "midi": 70,
      "hit": false,
      "t": 23816.780000000024,
      "d": 458.0149999999994,
      "v": 105
    },
    {
      "midi": 65,
      "hit": false,
      "t": 23816.780000000024,
      "d": 458.0149999999994,
      "v": 105
    },
    {
      "midi": 49,
      "hit": false,
      "t": 23816.78000000006,
      "d": 9.541979166664532,
      "v": 100
    },
    {
      "midi": 54,
      "hit": false,
      "t": 23816.78000000006,
      "d": 9.541979166664532,
      "v": 75
    },
    {
      "midi": 50,
      "hit": false,
      "t": 23821.55098958333,
      "d": 229.0074999999997,
      "v": 100
    },
    {
      "midi": 65,
      "hit": false,
      "t": 23931.28374999998,
      "d": 114.50374999999985,
      "v": 70
    },
    {
      "midi": 65,
      "hit": false,
      "t": 23931.28374999998,
      "d": 114.50374999999985,
      "v": 83
    },
    {
      "midi": 54,
      "hit": false,
      "t": 23940.825729166725,
      "d": 9.54197916666817,
      "v": 35
    },
    {
      "midi": 58,
      "hit": false,
      "t": 24041.016510416666,
      "d": 229.0074999999997,
      "v": 100
    },
    {
      "midi": 70,
      "hit": false,
      "t": 24045.78749999998,
      "d": 114.50374999999985,
      "v": 86
    },
    {
      "midi": 70,
      "hit": false,
      "t": 24045.78749999998,
      "d": 114.50374999999985,
      "v": 103
    },
    {
      "midi": 70,
      "hit": false,
      "t": 24045.7875,
      "d": 229.0074999999997,
      "v": 114
    },
    {
      "midi": 36,
      "hit": false,
      "t": 24045.78750000006,
      "d": 9.54197916666817,
      "v": 108
    },
    {
      "midi": 54,
      "hit": false,
      "t": 24045.78750000006,
      "d": 9.54197916666817,
      "v": 55
    },
    {
      "midi": 58,
      "hit": false,
      "t": 24050.55848958333,
      "d": 229.0074999999997,
      "v": 100
    },
    {
      "midi": 70,
      "hit": false,
      "t": 24160.29124999998,
      "d": 114.50374999999985,
      "v": 74
    },
    {
      "midi": 70,
      "hit": false,
      "t": 24160.29124999998,
      "d": 114.50374999999985,
      "v": 92
    },
    {
      "midi": 54,
      "hit": false,
      "t": 24169.83322916673,
      "d": 9.54197916666817,
      "v": 35
    },
    {
      "midi": 56,
      "hit": false,
      "t": 24270.024010416666,
      "d": 229.0074999999997,
      "v": 100
    },
    {
      "midi": 38,
      "hit": false,
      "t": 24270.02401041673,
      "d": 9.541979166664532,
      "v": 96
    },
    {
      "midi": 74,
      "hit": false,
      "t": 24274.79499999998,
      "d": 114.50374999999985,
      "v": 86
    },
    {
      "midi": 74,
      "hit": false,
      "t": 24274.79499999998,
      "d": 114.50374999999985,
      "v": 103
    },
    {
      "midi": 68,
      "hit": false,
      "t": 24274.795,
      "d": 229.0074999999997,
      "v": 114
    },
    {
      "midi": 74,
      "hit": false,
      "t": 24274.795000000024,
      "d": 458.0149999999994,
      "v": 105
    },
    {
      "midi": 68,
      "hit": false,
      "t": 24274.795000000024,
      "d": 458.0149999999994,
      "v": 105
    },
    {
      "midi": 70,
      "hit": false,
      "t": 24274.795000000024,
      "d": 458.0149999999994,
      "v": 105
    },
    {
      "midi": 65,
      "hit": false,
      "t": 24274.795000000024,
      "d": 458.0149999999994,
      "v": 105
    },
    {
      "midi": 42,
      "hit": false,
      "t": 24274.795000000064,
      "d": 9.541979166664532,
      "v": 125
    },
    {
      "midi": 54,
      "hit": false,
      "t": 24274.795000000064,
      "d": 9.541979166664532,
      "v": 75
    },
    {
      "midi": 56,
      "hit": false,
      "t": 24279.56598958333,
      "d": 229.0074999999997,
      "v": 100
    },
    {
      "midi": 74,
      "hit": false,
      "t": 24389.29874999998,
      "d": 229.0074999999997,
      "v": 74
    },
    {
      "midi": 74,
      "hit": false,
      "t": 24389.29874999998,
      "d": 114.50374999999985,
      "v": 92
    },
    {
      "midi": 54,
      "hit": false,
      "t": 24398.840729166728,
      "d": 9.54197916666817,
      "v": 35
    },
    {
      "midi": 55,
      "hit": false,
      "t": 24499.031510416666,
      "d": 458.0149999999994,
      "v": 100
    },
    {
      "midi": 70,
      "hit": false,
      "t": 24503.80249999998,
      "d": 114.50374999999985,
      "v": 70
    },
    {
      "midi": 70,
      "hit": false,
      "t": 24503.80249999998,
      "d": 114.50374999999985,
      "v": 83
    },
    {
      "midi": 67,
      "hit": false,
      "t": 24503.802499999998,
      "d": 458.0149999999994,
      "v": 114
    },
    {
      "midi": 54,
      "hit": false,
      "t": 24503.802500000063,
      "d": 9.54197916666817,
      "v": 55
    },
    {
      "midi": 55,
      "hit": false,
      "t": 24508.57348958333,
      "d": 458.0149999999994,
      "v": 100
    },
    {
      "midi": 74,
      "hit": false,
      "t": 24618.30624999998,
      "d": 114.50374999999985,
      "v": 86
    },
    {
      "midi": 74,
      "hit": false,
      "t": 24618.30624999998,
      "d": 114.50374999999985,
      "v": 103
    },
    {
      "midi": 54,
      "hit": false,
      "t": 24627.84822916673,
      "d": 9.54197916666817,
      "v": 35
    },
    {
      "midi": 38,
      "hit": false,
      "t": 24728.039010416735,
      "d": 9.541979166664532,
      "v": 96
    },
    {
      "midi": 70,
      "hit": false,
      "t": 24732.80999999998,
      "d": 114.50374999999985,
      "v": 70
    },
    {
      "midi": 70,
      "hit": false,
      "t": 24732.80999999998,
      "d": 114.50374999999985,
      "v": 83
    },
    {
      "midi": 65,
      "hit": false,
      "t": 24732.810000000023,
      "d": 458.0149999999994,
      "v": 105
    },
    {
      "midi": 74,
      "hit": false,
      "t": 24732.810000000023,
      "d": 458.0149999999994,
      "v": 105
    },
    {
      "midi": 68,
      "hit": false,
      "t": 24732.810000000023,
      "d": 458.0149999999994,
      "v": 105
    },
    {
      "midi": 70,
      "hit": false,
      "t": 24732.810000000023,
      "d": 458.0149999999994,
      "v": 105
    },
    {
      "midi": 42,
      "hit": false,
      "t": 24732.810000000067,
      "d": 9.541979166664532,
      "v": 125
    },
    {
      "midi": 54,
      "hit": false,
      "t": 24732.810000000067,
      "d": 9.541979166664532,
      "v": 75
    },
    {
      "midi": 74,
      "hit": false,
      "t": 24847.31374999998,
      "d": 114.50374999999985,
      "v": 86
    },
    {
      "midi": 74,
      "hit": false,
      "t": 24847.31374999998,
      "d": 114.50374999999985,
      "v": 103
    },
    {
      "midi": 54,
      "hit": false,
      "t": 24856.85572916673,
      "d": 9.54197916666817,
      "v": 35
    },
    {
      "midi": 53,
      "hit": false,
      "t": 24957.046510416665,
      "d": 229.0074999999997,
      "v": 100
    },
    {
      "midi": 74,
      "hit": false,
      "t": 24961.81749999998,
      "d": 229.0074999999997,
      "v": 78
    },
    {
      "midi": 74,
      "hit": false,
      "t": 24961.81749999998,
      "d": 114.50374999999985,
      "v": 92
    },
    {
      "midi": 65,
      "hit": false,
      "t": 24961.817499999997,
      "d": 229.0074999999997,
      "v": 114
    },
    {
      "midi": 36,
      "hit": false,
      "t": 24961.817500000067,
      "d": 9.54197916666817,
      "v": 108
    },
    {
      "midi": 54,
      "hit": false,
      "t": 24961.817500000067,
      "d": 9.54197916666817,
      "v": 55
    },
    {
      "midi": 53,
      "hit": false,
      "t": 24966.58848958333,
      "d": 229.0074999999997,
      "v": 100
    },
    {
      "midi": 70,
      "hit": false,
      "t": 25076.32124999998,
      "d": 114.50374999999985,
      "v": 70
    },
    {
      "midi": 70,
      "hit": false,
      "t": 25076.32124999998,
      "d": 114.50374999999985,
      "v": 83
    },
    {
      "midi": 54,
      "hit": false,
      "t": 25085.863229166735,
      "d": 9.54197916666817,
      "v": 35
    },
    {
      "midi": 51,
      "hit": false,
      "t": 25186.054010416665,
      "d": 229.0074999999997,
      "v": 100
    },
    {
      "midi": 38,
      "hit": false,
      "t": 25186.054010416738,
      "d": 9.541979166664532,
      "v": 96
    },
    {
      "midi": 74,
      "hit": false,
      "t": 25190.82499999998,
      "d": 114.50374999999985,
      "v": 86
    },
    {
      "midi": 74,
      "hit": false,
      "t": 25190.82499999998,
      "d": 114.50374999999985,
      "v": 103
    },
    {
      "midi": 63,
      "hit": false,
      "t": 25190.824999999997,
      "d": 229.0074999999997,
      "v": 114
    },
    {
      "midi": 65,
      "hit": false,
      "t": 25190.825000000023,
      "d": 458.0149999999994,
      "v": 105
    },
    {
      "midi": 68,
      "hit": false,
      "t": 25190.825000000023,
      "d": 458.0149999999994,
      "v": 105
    },
    {
      "midi": 74,
      "hit": false,
      "t": 25190.825000000023,
      "d": 458.0149999999994,
      "v": 105
    },
    {
      "midi": 70,
      "hit": false,
      "t": 25190.825000000023,
      "d": 458.0149999999994,
      "v": 105
    },
    {
      "midi": 42,
      "hit": false,
      "t": 25190.82500000007,
      "d": 9.541979166664532,
      "v": 125
    },
    {
      "midi": 54,
      "hit": false,
      "t": 25190.82500000007,
      "d": 9.541979166664532,
      "v": 75
    },
    {
      "midi": 51,
      "hit": false,
      "t": 25195.59598958333,
      "d": 229.0074999999997,
      "v": 100
    },
    {
      "midi": 74,
      "hit": false,
      "t": 25305.32874999998,
      "d": 229.0074999999997,
      "v": 78
    },
    {
      "midi": 74,
      "hit": false,
      "t": 25305.32874999998,
      "d": 114.50374999999985,
      "v": 92
    },
    {
      "midi": 54,
      "hit": false,
      "t": 25314.870729166734,
      "d": 9.54197916666817,
      "v": 35
    },
    {
      "midi": 53,
      "hit": false,
      "t": 25415.061510416665,
      "d": 229.0074999999997,
      "v": 100
    },
    {
      "midi": 70,
      "hit": false,
      "t": 25419.83249999998,
      "d": 114.50374999999985,
      "v": 70
    },
    {
      "midi": 70,
      "hit": false,
      "t": 25419.83249999998,
      "d": 114.50374999999985,
      "v": 83
    },
    {
      "midi": 65,
      "hit": false,
      "t": 25419.832499999997,
      "d": 229.0074999999997,
      "v": 114
    },
    {
      "midi": 36,
      "hit": false,
      "t": 25419.83250000007,
      "d": 9.54197916666817,
      "v": 108
    },
    {
      "midi": 54,
      "hit": false,
      "t": 25419.83250000007,
      "d": 9.54197916666817,
      "v": 55
    },
    {
      "midi": 53,
      "hit": false,
      "t": 25424.60348958333,
      "d": 229.0074999999997,
      "v": 100
    },
    {
      "midi": 74,
      "hit": false,
      "t": 25534.33624999998,
      "d": 114.50374999999985,
      "v": 86
    },
    {
      "midi": 74,
      "hit": false,
      "t": 25534.33624999998,
      "d": 114.50374999999985,
      "v": 103
    },
    {
      "midi": 54,
      "hit": false,
      "t": 25543.878229166738,
      "d": 9.54197916666817,
      "v": 35
    },
    {
      "midi": 52,
      "hit": false,
      "t": 25644.069010416664,
      "d": 2519.0825000000004,
      "v": 100
    },
    {
      "midi": 38,
      "hit": false,
      "t": 25644.06901041674,
      "d": 9.541979166664532,
      "v": 96
    },
    {
      "midi": 72,
      "hit": false,
      "t": 25648.83999999998,
      "d": 3664.1200000000536,
      "v": 86
    },
    {
      "midi": 76,
      "hit": false,
      "t": 25648.83999999998,
      "d": 3664.1200000000536,
      "v": 86
    },
    {
      "midi": 64,
      "hit": false,
      "t": 25648.839999999997,
      "d": 3664.119999999999,
      "v": 114
    },
    {
      "midi": 72,
      "hit": false,
      "t": 25648.840000000022,
      "d": 229.0074999999997,
      "v": 126
    },
    {
      "midi": 60,
      "hit": false,
      "t": 25648.840000000022,
      "d": 458.0149999999994,
      "v": 116
    },
    {
      "midi": 49,
      "hit": false,
      "t": 25648.840000000073,
      "d": 9.541979166664532,
      "v": 100
    },
    {
      "midi": 52,
      "hit": false,
      "t": 25653.61098958333,
      "d": 3206.1049999999996,
      "v": 100
    },
    {
      "midi": 84,
      "hit": false,
      "t": 25877.84750000002,
      "d": 229.0074999999997,
      "v": 126
    },
    {
      "midi": 72,
      "hit": false,
      "t": 26106.85500000002,
      "d": 229.0074999999997,
      "v": 126
    },
    {
      "midi": 60,
      "hit": false,
      "t": 26106.85500000002,
      "d": 458.0149999999994,
      "v": 116
    },
    {
      "midi": 84,
      "hit": false,
      "t": 26335.86250000002,
      "d": 229.0074999999997,
      "v": 126
    },
    {
      "midi": 71,
      "hit": false,
      "t": 26564.87000000002,
      "d": 229.0074999999997,
      "v": 126
    },
    {
      "midi": 59,
      "hit": false,
      "t": 26564.87000000002,
      "d": 458.0149999999994,
      "v": 116
    },
    {
      "midi": 83,
      "hit": false,
      "t": 26793.87750000002,
      "d": 229.0074999999997,
      "v": 126
    },
    {
      "midi": 69,
      "hit": false,
      "t": 27022.88500000002,
      "d": 229.0074999999997,
      "v": 126
    },
    {
      "midi": 57,
      "hit": false,
      "t": 27022.88500000002,
      "d": 458.0149999999994,
      "v": 116
    },
    {
      "midi": 81,
      "hit": false,
      "t": 27251.89250000002,
      "d": 229.0074999999997,
      "v": 126
    },
    {
      "midi": 67,
      "hit": false,
      "t": 27480.90000000002,
      "d": 229.0074999999997,
      "v": 126
    },
    {
      "midi": 55,
      "hit": false,
      "t": 27480.90000000002,
      "d": 458.0149999999994,
      "v": 116
    },
    {
      "midi": 79,
      "hit": false,
      "t": 27709.90750000002,
      "d": 229.0074999999997,
      "v": 126
    },
    {
      "midi": 65,
      "hit": false,
      "t": 27938.91500000002,
      "d": 229.0074999999997,
      "v": 126
    },
    {
      "midi": 53,
      "hit": false,
      "t": 27938.91500000002,
      "d": 458.0149999999994,
      "v": 106
    },
    {
      "midi": 55,
      "hit": false,
      "t": 28163.151510416665,
      "d": 458.0149999999994,
      "v": 100
    },
    {
      "midi": 77,
      "hit": false,
      "t": 28167.92250000002,
      "d": 229.0074999999997,
      "v": 126
    },
    {
      "midi": 55,
      "hit": false,
      "t": 28172.69348958333,
      "d": 458.0149999999994,
      "v": 90
    },
    {
      "midi": 53,
      "hit": false,
      "t": 28392.159010416664,
      "d": 458.0149999999994,
      "v": 100
    },
    {
      "midi": 64,
      "hit": false,
      "t": 28396.93000000002,
      "d": 229.0074999999997,
      "v": 126
    },
    {
      "midi": 52,
      "hit": false,
      "t": 28396.93000000002,
      "d": 458.0149999999994,
      "v": 106
    },
    {
      "midi": 45,
      "hit": false,
      "t": 28396.93000000007,
      "d": 9.54197916666817,
      "v": 120
    },
    {
      "midi": 53,
      "hit": false,
      "t": 28401.70098958333,
      "d": 458.0149999999994,
      "v": 80
    },
    {
      "midi": 55,
      "hit": false,
      "t": 28621.166510416664,
      "d": 458.0149999999994,
      "v": 100
    },
    {
      "midi": 76,
      "hit": false,
      "t": 28625.93750000002,
      "d": 229.0074999999997,
      "v": 126
    },
    {
      "midi": 55,
      "hit": false,
      "t": 28630.70848958333,
      "d": 458.0149999999994,
      "v": 90
    },
    {
      "midi": 38,
      "hit": false,
      "t": 28735.670260416737,
      "d": 9.54197916666817,
      "v": 96
    },
    {
      "midi": 52,
      "hit": false,
      "t": 28850.174010416664,
      "d": 458.0149999999994,
      "v": 100
    },
    {
      "midi": 38,
      "hit": false,
      "t": 28850.174010416737,
      "d": 9.54197916666817,
      "v": 96
    },
    {
      "midi": 62,
      "hit": false,
      "t": 28854.945000000018,
      "d": 229.0074999999997,
      "v": 126
    },
    {
      "midi": 50,
      "hit": false,
      "t": 28854.945000000018,
      "d": 458.0149999999994,
      "v": 106
    },
    {
      "midi": 52,
      "hit": false,
      "t": 28859.71598958333,
      "d": 458.0149999999994,
      "v": 80
    },
    {
      "midi": 55,
      "hit": false,
      "t": 29079.181510416664,
      "d": 229.0074999999997,
      "v": 100
    },
    {
      "midi": 74,
      "hit": false,
      "t": 29083.952500000018,
      "d": 229.0074999999997,
      "v": 126
    },
    {
      "midi": 45,
      "hit": false,
      "t": 29083.952500000072,
      "d": 9.54197916666817,
      "v": 120
    },
    {
      "midi": 55,
      "hit": false,
      "t": 29088.723489583328,
      "d": 229.0074999999997,
      "v": 90
    },
    {
      "midi": 41,
      "hit": false,
      "t": 29312.959999999995,
      "d": 57.251875000001746,
      "v": 82
    },
    {
      "midi": 72,
      "hit": false,
      "t": 29312.960000000017,
      "d": 1832.0600000000013,
      "v": 100
    },
    {
      "midi": 75,
      "hit": false,
      "t": 29312.960000000017,
      "d": 1832.0600000000013,
      "v": 100
    },
    {
      "midi": 68,
      "hit": false,
      "t": 29312.960000000017,
      "d": 1832.0600000000013,
      "v": 100
    },
    {
      "midi": 65,
      "hit": false,
      "t": 29312.960000000017,
      "d": 1832.0600000000013,
      "v": 100
    },
    {
      "midi": 36,
      "hit": false,
      "t": 29312.960000000072,
      "d": 9.54197916666817,
      "v": 108
    },
    {
      "midi": 49,
      "hit": false,
      "t": 29312.960000000072,
      "d": 9.54197916666817,
      "v": 100
    },
    {
      "midi": 70,
      "hit": false,
      "t": 29312.960000000072,
      "d": 9.54197916666817,
      "v": 75
    },
    {
      "midi": 70,
      "hit": false,
      "t": 29427.46375000007,
      "d": 9.54197916666817,
      "v": 45
    },
    {
      "midi": 41,
      "hit": false,
      "t": 29541.9675,
      "d": 57.251875000001746,
      "v": 82
    },
    {
      "midi": 70,
      "hit": false,
      "t": 29541.96750000007,
      "d": 9.54197916666817,
      "v": 55
    },
    {
      "midi": 70,
      "hit": false,
      "t": 29656.47125000007,
      "d": 9.54197916666817,
      "v": 45
    },
    {
      "midi": 38,
      "hit": false,
      "t": 29766.20401041674,
      "d": 9.541979166664532,
      "v": 96
    },
    {
      "midi": 48,
      "hit": false,
      "t": 29770.975000000002,
      "d": 229.0074999999997,
      "v": 87
    },
    {
      "midi": 53,
      "hit": false,
      "t": 29770.975000000002,
      "d": 229.0074999999997,
      "v": 87
    },
    {
      "midi": 70,
      "hit": false,
      "t": 29770.97500000007,
      "d": 9.541979166664532,
      "v": 75
    },
    {
      "midi": 42,
      "hit": false,
      "t": 29770.97500000007,
      "d": 9.541979166664532,
      "v": 125
    },
    {
      "midi": 70,
      "hit": false,
      "t": 29885.478750000068,
      "d": 9.54197916666817,
      "v": 45
    },
    {
      "midi": 72,
      "hit": false,
      "t": 29999.982499999984,
      "d": 458.0149999999994,
      "v": 84
    },
    {
      "midi": 41,
      "hit": false,
      "t": 29999.982500000002,
      "d": 57.251875000001746,
      "v": 82
    },
    {
      "midi": 70,
      "hit": false,
      "t": 29999.982500000067,
      "d": 9.54197916666817,
      "v": 55
    },
    {
      "midi": 70,
      "hit": false,
      "t": 30114.486250000067,
      "d": 9.54197916666817,
      "v": 45
    },
    {
      "midi": 41,
      "hit": false,
      "t": 30228.990000000005,
      "d": 57.251875000001746,
      "v": 82
    },
    {
      "midi": 36,
      "hit": false,
      "t": 30228.990000000067,
      "d": 9.54197916666817,
      "v": 108
    },
    {
      "midi": 42,
      "hit": false,
      "t": 30228.990000000067,
      "d": 9.54197916666817,
      "v": 125
    },
    {
      "midi": 70,
      "hit": false,
      "t": 30228.990000000067,
      "d": 9.54197916666817,
      "v": 75
    },
    {
      "midi": 70,
      "hit": false,
      "t": 30343.493750000067,
      "d": 9.54197916666817,
      "v": 45
    },
    {
      "midi": 72,
      "hit": false,
      "t": 30457.997499999983,
      "d": 171.7556250000016,
      "v": 84
    },
    {
      "midi": 48,
      "hit": false,
      "t": 30457.99750000001,
      "d": 229.0074999999997,
      "v": 87
    },
    {
      "midi": 53,
      "hit": false,
      "t": 30457.99750000001,
      "d": 229.0074999999997,
      "v": 87
    },
    {
      "midi": 70,
      "hit": false,
      "t": 30457.997500000067,
      "d": 9.54197916666817,
      "v": 55
    },
    {
      "midi": 70,
      "hit": false,
      "t": 30572.501250000067,
      "d": 9.54197916666817,
      "v": 45
    },
    {
      "midi": 38,
      "hit": false,
      "t": 30682.234010416734,
      "d": 9.541979166664532,
      "v": 96
    },
    {
      "midi": 72,
      "hit": false,
      "t": 30687.004999999986,
      "d": 190.8395833333343,
      "v": 84
    },
    {
      "midi": 41,
      "hit": false,
      "t": 30687.00500000001,
      "d": 57.251875000001746,
      "v": 82
    },
    {
      "midi": 70,
      "hit": false,
      "t": 30687.005000000067,
      "d": 9.541979166664532,
      "v": 75
    },
    {
      "midi": 42,
      "hit": false,
      "t": 30687.005000000067,
      "d": 9.541979166664532,
      "v": 125
    },
    {
      "midi": 70,
      "hit": false,
      "t": 30801.508750000063,
      "d": 9.54197916666817,
      "v": 45
    },
    {
      "midi": 72,
      "hit": false,
      "t": 30916.012499999986,
      "d": 181.29760416666613,
      "v": 84
    },
    {
      "midi": 41,
      "hit": false,
      "t": 30916.01250000001,
      "d": 57.251875000001746,
      "v": 82
    },
    {
      "midi": 70,
      "hit": false,
      "t": 30916.012500000063,
      "d": 9.54197916666817,
      "v": 55
    },
    {
      "midi": 70,
      "hit": false,
      "t": 31030.516250000062,
      "d": 9.54197916666817,
      "v": 45
    },
    {
      "midi": 72,
      "hit": false,
      "t": 31145.019999999986,
      "d": 458.0149999999994,
      "v": 84
    },
    {
      "midi": 46,
      "hit": false,
      "t": 31145.020000000015,
      "d": 57.251875000001746,
      "v": 82
    },
    {
      "midi": 74,
      "hit": false,
      "t": 31145.02000000002,
      "d": 1832.0599999999977,
      "v": 100
    },
    {
      "midi": 70,
      "hit": false,
      "t": 31145.02000000002,
      "d": 1832.0599999999977,
      "v": 100
    },
    {
      "midi": 68,
      "hit": false,
      "t": 31145.02000000002,
      "d": 1832.0599999999977,
      "v": 100
    },
    {
      "midi": 65,
      "hit": false,
      "t": 31145.02000000002,
      "d": 1832.0599999999977,
      "v": 100
    },
    {
      "midi": 36,
      "hit": false,
      "t": 31145.020000000062,
      "d": 9.54197916666817,
      "v": 108
    },
    {
      "midi": 42,
      "hit": false,
      "t": 31145.020000000062,
      "d": 9.54197916666817,
      "v": 125
    },
    {
      "midi": 70,
      "hit": false,
      "t": 31145.020000000062,
      "d": 9.54197916666817,
      "v": 75
    },
    {
      "midi": 70,
      "hit": false,
      "t": 31259.523750000062,
      "d": 9.54197916666817,
      "v": 45
    },
    {
      "midi": 46,
      "hit": false,
      "t": 31374.02750000002,
      "d": 57.251875000001746,
      "v": 82
    },
    {
      "midi": 70,
      "hit": false,
      "t": 31374.027500000062,
      "d": 9.54197916666817,
      "v": 55
    },
    {
      "midi": 70,
      "hit": false,
      "t": 31488.531250000062,
      "d": 9.54197916666817,
      "v": 45
    },
    {
      "midi": 38,
      "hit": false,
      "t": 31598.26401041673,
      "d": 9.541979166664532,
      "v": 96
    },
    {
      "midi": 70,
      "hit": false,
      "t": 31603.034999999985,
      "d": 200.38156249999884,
      "v": 84
    },
    {
      "midi": 53,
      "hit": false,
      "t": 31603.03500000002,
      "d": 229.0074999999997,
      "v": 87
    },
    {
      "midi": 58,
      "hit": false,
      "t": 31603.03500000002,
      "d": 229.0074999999997,
      "v": 87
    },
    {
      "midi": 70,
      "hit": false,
      "t": 31603.03500000006,
      "d": 9.541979166664532,
      "v": 75
    },
    {
      "midi": 42,
      "hit": false,
      "t": 31603.03500000006,
      "d": 9.541979166664532,
      "v": 125
    },
    {
      "midi": 70,
      "hit": false,
      "t": 31717.538750000058,
      "d": 9.54197916666817,
      "v": 45
    },
    {
      "midi": 68,
      "hit": false,
      "t": 31832.042499999985,
      "d": 458.0149999999994,
      "v": 84
    },
    {
      "midi": 46,
      "hit": false,
      "t": 31832.04250000002,
      "d": 57.251875000001746,
      "v": 82
    },
    {
      "midi": 70,
      "hit": false,
      "t": 31832.042500000058,
      "d": 9.54197916666817,
      "v": 55
    },
    {
      "midi": 70,
      "hit": false,
      "t": 31946.546250000058,
      "d": 9.54197916666817,
      "v": 45
    },
    {
      "midi": 46,
      "hit": false,
      "t": 32061.050000000025,
      "d": 57.251875000001746,
      "v": 82
    },
    {
      "midi": 36,
      "hit": false,
      "t": 32061.050000000057,
      "d": 9.54197916666817,
      "v": 108
    },
    {
      "midi": 42,
      "hit": false,
      "t": 32061.050000000057,
      "d": 9.54197916666817,
      "v": 125
    },
    {
      "midi": 70,
      "hit": false,
      "t": 32061.050000000057,
      "d": 9.54197916666817,
      "v": 75
    },
    {
      "midi": 70,
      "hit": false,
      "t": 32175.553750000057,
      "d": 9.54197916666817,
      "v": 45
    },
    {
      "midi": 70,
      "hit": false,
      "t": 32290.057499999984,
      "d": 229.0074999999997,
      "v": 84
    },
    {
      "midi": 53,
      "hit": false,
      "t": 32290.057500000028,
      "d": 229.0074999999997,
      "v": 87
    },
    {
      "midi": 58,
      "hit": false,
      "t": 32290.057500000028,
      "d": 229.0074999999997,
      "v": 87
    },
    {
      "midi": 70,
      "hit": false,
      "t": 32290.057500000057,
      "d": 9.54197916666817,
      "v": 55
    },
    {
      "midi": 70,
      "hit": false,
      "t": 32404.561250000057,
      "d": 9.54197916666817,
      "v": 45
    },
    {
      "midi": 38,
      "hit": false,
      "t": 32514.294010416725,
      "d": 9.541979166664532,
      "v": 96
    },
    {
      "midi": 72,
      "hit": false,
      "t": 32519.064999999984,
      "d": 458.01500000000306,
      "v": 84
    },
    {
      "midi": 46,
      "hit": false,
      "t": 32519.065000000028,
      "d": 57.251875000001746,
      "v": 82
    },
    {
      "midi": 70,
      "hit": false,
      "t": 32519.065000000057,
      "d": 9.541979166664532,
      "v": 75
    },
    {
      "midi": 42,
      "hit": false,
      "t": 32519.065000000057,
      "d": 9.541979166664532,
      "v": 125
    },
    {
      "midi": 70,
      "hit": false,
      "t": 32633.568750000053,
      "d": 9.54197916666817,
      "v": 45
    },
    {
      "midi": 46,
      "hit": false,
      "t": 32748.07250000003,
      "d": 57.251875000001746,
      "v": 82
    },
    {
      "midi": 70,
      "hit": false,
      "t": 32748.072500000053,
      "d": 9.54197916666817,
      "v": 55
    },
    {
      "midi": 70,
      "hit": false,
      "t": 32862.57625000006,
      "d": 9.541979166664532,
      "v": 45
    },
    {
      "midi": 70,
      "hit": false,
      "t": 32977.07999999999,
      "d": 458.0149999999994,
      "v": 84
    },
    {
      "midi": 70,
      "hit": false,
      "t": 32977.080000000016,
      "d": 1832.0599999999977,
      "v": 100
    },
    {
      "midi": 65,
      "hit": false,
      "t": 32977.080000000016,
      "d": 1832.0599999999977,
      "v": 100
    },
    {
      "midi": 67,
      "hit": false,
      "t": 32977.080000000016,
      "d": 1832.0599999999977,
      "v": 100
    },
    {
      "midi": 62,
      "hit": false,
      "t": 32977.080000000016,
      "d": 1832.0599999999977,
      "v": 100
    },
    {
      "midi": 43,
      "hit": false,
      "t": 32977.08000000003,
      "d": 57.251875000001746,
      "v": 82
    },
    {
      "midi": 36,
      "hit": false,
      "t": 32977.08000000005,
      "d": 9.541979166664532,
      "v": 108
    },
    {
      "midi": 42,
      "hit": false,
      "t": 32977.08000000005,
      "d": 9.541979166664532,
      "v": 125
    },
    {
      "midi": 70,
      "hit": false,
      "t": 32977.08000000005,
      "d": 9.541979166664532,
      "v": 75
    },
    {
      "midi": 70,
      "hit": false,
      "t": 33091.58375000005,
      "d": 9.541979166664532,
      "v": 45
    },
    {
      "midi": 43,
      "hit": false,
      "t": 33206.08750000003,
      "d": 57.251875000001746,
      "v": 82
    },
    {
      "midi": 70,
      "hit": false,
      "t": 33206.087500000045,
      "d": 9.541979166664532,
      "v": 55
    },
    {
      "midi": 70,
      "hit": false,
      "t": 33320.59125000004,
      "d": 9.541979166664532,
      "v": 45
    },
    {
      "midi": 38,
      "hit": false,
      "t": 33430.324010416705,
      "d": 9.541979166664532,
      "v": 96
    },
    {
      "midi": 50,
      "hit": false,
      "t": 33435.09500000003,
      "d": 229.0074999999997,
      "v": 87
    },
    {
      "midi": 55,
      "hit": false,
      "t": 33435.09500000003,
      "d": 229.0074999999997,
      "v": 87
    },
    {
      "midi": 70,
      "hit": false,
      "t": 33435.09500000004,
      "d": 9.541979166664532,
      "v": 75
    },
    {
      "midi": 42,
      "hit": false,
      "t": 33435.09500000004,
      "d": 9.541979166664532,
      "v": 125
    },
    {
      "midi": 70,
      "hit": false,
      "t": 33549.598750000034,
      "d": 9.541979166664532,
      "v": 45
    },
    {
      "midi": 58,
      "hit": false,
      "t": 33664.102499999986,
      "d": 229.0074999999997,
      "v": 84
    },
    {
      "midi": 43,
      "hit": false,
      "t": 33664.10250000003,
      "d": 57.251875000001746,
      "v": 82
    },
    {
      "midi": 70,
      "hit": false,
      "t": 33664.10250000003,
      "d": 9.541979166664532,
      "v": 55
    },
    {
      "midi": 70,
      "hit": false,
      "t": 33778.606250000026,
      "d": 9.541979166664532,
      "v": 45
    },
    {
      "midi": 70,
      "hit": false,
      "t": 33893.109999999986,
      "d": 195.61057291666657,
      "v": 84
    },
    {
      "midi": 36,
      "hit": false,
      "t": 33893.11000000002,
      "d": 9.541979166664532,
      "v": 108
    },
    {
      "midi": 42,
      "hit": false,
      "t": 33893.11000000002,
      "d": 9.541979166664532,
      "v": 125
    },
    {
      "midi": 70,
      "hit": false,
      "t": 33893.11000000002,
      "d": 9.541979166664532,
      "v": 75
    },
    {
      "midi": 43,
      "hit": false,
      "t": 33893.11000000003,
      "d": 57.251875000001746,
      "v": 82
    },
    {
      "midi": 70,
      "hit": false,
      "t": 34007.61375000002,
      "d": 9.541979166664532,
      "v": 45
    },
    {
      "midi": 70,
      "hit": false,
      "t": 34122.117499999986,
      "d": 176.52661458333023,
      "v": 84
    },
    {
      "midi": 70,
      "hit": false,
      "t": 34122.117500000015,
      "d": 9.541979166664532,
      "v": 55
    },
    {
      "midi": 50,
      "hit": false,
      "t": 34122.11750000003,
      "d": 229.0074999999997,
      "v": 87
    },
    {
      "midi": 55,
      "hit": false,
      "t": 34122.11750000003,
      "d": 229.0074999999997,
      "v": 87
    },
    {
      "midi": 70,
      "hit": false,
      "t": 34236.62125000001,
      "d": 9.541979166664532,
      "v": 45
    },
    {
      "midi": 38,
      "hit": false,
      "t": 34346.354010416675,
      "d": 9.541979166664532,
      "v": 96
    },
    {
      "midi": 70,
      "hit": false,
      "t": 34351.124999999985,
      "d": 162.21364583333343,
      "v": 84
    },
    {
      "midi": 70,
      "hit": false,
      "t": 34351.12500000001,
      "d": 9.541979166664532,
      "v": 75
    },
    {
      "midi": 42,
      "hit": false,
      "t": 34351.12500000001,
      "d": 9.541979166664532,
      "v": 125
    },
    {
      "midi": 43,
      "hit": false,
      "t": 34351.12500000003,
      "d": 57.251875000001746,
      "v": 82
    },
    {
      "midi": 70,
      "hit": false,
      "t": 34465.62875,
      "d": 9.541979166664532,
      "v": 45
    },
    {
      "midi": 68,
      "hit": false,
      "t": 34580.132499999985,
      "d": 176.52661458333023,
      "v": 84
    },
    {
      "midi": 70,
      "hit": false,
      "t": 34580.1325,
      "d": 9.541979166664532,
      "v": 55
    },
    {
      "midi": 43,
      "hit": false,
      "t": 34580.13250000003,
      "d": 57.251875000001746,
      "v": 82
    },
    {
      "midi": 70,
      "hit": false,
      "t": 34694.636249999996,
      "d": 9.541979166664532,
      "v": 45
    },
    {
      "midi": 68,
      "hit": false,
      "t": 34809.139999999985,
      "d": 205.1525520833311,
      "v": 84
    },
    {
      "midi": 36,
      "hit": false,
      "t": 34809.13999999999,
      "d": 9.541979166664532,
      "v": 108
    },
    {
      "midi": 42,
      "hit": false,
      "t": 34809.13999999999,
      "d": 9.541979166664532,
      "v": 125
    },
    {
      "midi": 70,
      "hit": false,
      "t": 34809.13999999999,
      "d": 9.541979166664532,
      "v": 75
    },
    {
      "midi": 67,
      "hit": false,
      "t": 34809.140000000014,
      "d": 1832.0599999999977,
      "v": 100
    },
    {
      "midi": 63,
      "hit": false,
      "t": 34809.140000000014,
      "d": 1832.0599999999977,
      "v": 100
    },
    {
      "midi": 70,
      "hit": false,
      "t": 34809.140000000014,
      "d": 1832.0599999999977,
      "v": 100
    },
    {
      "midi": 60,
      "hit": false,
      "t": 34809.140000000014,
      "d": 1832.0599999999977,
      "v": 100
    },
    {
      "midi": 48,
      "hit": false,
      "t": 34809.14000000003,
      "d": 57.251875000001746,
      "v": 82
    },
    {
      "midi": 70,
      "hit": false,
      "t": 34923.64374999999,
      "d": 9.541979166664532,
      "v": 45
    },
    {
      "midi": 70,
      "hit": false,
      "t": 35038.147499999985,
      "d": 229.0074999999997,
      "v": 84
    },
    {
      "midi": 70,
      "hit": false,
      "t": 35038.147499999985,
      "d": 9.541979166664532,
      "v": 55
    },
    {
      "midi": 48,
      "hit": false,
      "t": 35038.14750000003,
      "d": 57.251875000001746,
      "v": 82
    },
    {
      "midi": 70,
      "hit": false,
      "t": 35152.65124999998,
      "d": 9.541979166664532,
      "v": 45
    },
    {
      "midi": 38,
      "hit": false,
      "t": 35262.384010416645,
      "d": 9.541979166664532,
      "v": 96
    },
    {
      "midi": 70,
      "hit": false,
      "t": 35267.15499999998,
      "d": 9.541979166664532,
      "v": 75
    },
    {
      "midi": 42,
      "hit": false,
      "t": 35267.15499999998,
      "d": 9.541979166664532,
      "v": 125
    },
    {
      "midi": 68,
      "hit": false,
      "t": 35267.154999999984,
      "d": 229.0074999999997,
      "v": 84
    },
    {
      "midi": 48,
      "hit": false,
      "t": 35267.15500000003,
      "d": 229.0074999999997,
      "v": 82
    },
    {
      "midi": 55,
      "hit": false,
      "t": 35267.15500000003,
      "d": 229.0074999999997,
      "v": 82
    },
    {
      "midi": 60,
      "hit": false,
      "t": 35267.15500000003,
      "d": 229.0074999999997,
      "v": 82
    },
    {
      "midi": 70,
      "hit": false,
      "t": 35381.65874999997,
      "d": 9.541979166664532,
      "v": 45
    },
    {
      "midi": 70,
      "hit": false,
      "t": 35496.16249999997,
      "d": 9.541979166664532,
      "v": 55
    },
    {
      "midi": 67,
      "hit": false,
      "t": 35496.162499999984,
      "d": 687.0224999999991,
      "v": 84
    },
    {
      "midi": 48,
      "hit": false,
      "t": 35496.16250000003,
      "d": 57.251875000001746,
      "v": 82
    },
    {
      "midi": 70,
      "hit": false,
      "t": 35610.666249999966,
      "d": 9.541979166664532,
      "v": 45
    },
    {
      "midi": 36,
      "hit": false,
      "t": 35725.16999999996,
      "d": 9.541979166664532,
      "v": 108
    },
    {
      "midi": 42,
      "hit": false,
      "t": 35725.16999999996,
      "d": 9.541979166664532,
      "v": 125
    },
    {
      "midi": 70,
      "hit": false,
      "t": 35725.16999999996,
      "d": 9.541979166664532,
      "v": 75
    },
    {
      "midi": 48,
      "hit": false,
      "t": 35725.17000000003,
      "d": 57.251875000001746,
      "v": 82
    },
    {
      "midi": 70,
      "hit": false,
      "t": 35839.67374999996,
      "d": 9.541979166664532,
      "v": 45
    },
    {
      "midi": 70,
      "hit": false,
      "t": 35954.177499999954,
      "d": 9.541979166664532,
      "v": 55
    },
    {
      "midi": 48,
      "hit": false,
      "t": 35954.17750000003,
      "d": 229.0074999999997,
      "v": 82
    },
    {
      "midi": 55,
      "hit": false,
      "t": 35954.17750000003,
      "d": 229.0074999999997,
      "v": 82
    },
    {
      "midi": 60,
      "hit": false,
      "t": 35954.17750000003,
      "d": 229.0074999999997,
      "v": 82
    },
    {
      "midi": 70,
      "hit": false,
      "t": 36068.68124999995,
      "d": 9.541979166664532,
      "v": 45
    },
    {
      "midi": 38,
      "hit": false,
      "t": 36178.414010416614,
      "d": 9.541979166664532,
      "v": 96
    },
    {
      "midi": 70,
      "hit": false,
      "t": 36183.18499999995,
      "d": 9.541979166664532,
      "v": 75
    },
    {
      "midi": 42,
      "hit": false,
      "t": 36183.18499999995,
      "d": 9.541979166664532,
      "v": 125
    },
    {
      "midi": 68,
      "hit": false,
      "t": 36183.18499999998,
      "d": 229.0074999999997,
      "v": 84
    },
    {
      "midi": 48,
      "hit": false,
      "t": 36183.18500000003,
      "d": 57.251875000001746,
      "v": 82
    },
    {
      "midi": 70,
      "hit": false,
      "t": 36297.68874999994,
      "d": 9.541979166664532,
      "v": 45
    },
    {
      "midi": 70,
      "hit": false,
      "t": 36412.19249999994,
      "d": 9.541979166664532,
      "v": 55
    },
    {
      "midi": 70,
      "hit": false,
      "t": 36412.19249999998,
      "d": 229.0074999999997,
      "v": 84
    },
    {
      "midi": 48,
      "hit": false,
      "t": 36412.19250000003,
      "d": 57.251875000001746,
      "v": 82
    },
    {
      "midi": 70,
      "hit": false,
      "t": 36526.696249999935,
      "d": 9.541979166664532,
      "v": 45
    },
    {
      "midi": 36,
      "hit": false,
      "t": 36641.19999999993,
      "d": 9.541979166664532,
      "v": 108
    },
    {
      "midi": 42,
      "hit": false,
      "t": 36641.19999999993,
      "d": 9.541979166664532,
      "v": 125
    },
    {
      "midi": 70,
      "hit": false,
      "t": 36641.19999999993,
      "d": 9.541979166664532,
      "v": 75
    },
    {
      "midi": 68,
      "hit": false,
      "t": 36641.19999999998,
      "d": 458.0149999999994,
      "v": 84
    },
    {
      "midi": 63,
      "hit": false,
      "t": 36641.20000000001,
      "d": 1832.0599999999977,
      "v": 100
    },
    {
      "midi": 65,
      "hit": false,
      "t": 36641.20000000001,
      "d": 1832.0599999999977,
      "v": 100
    },
    {
      "midi": 68,
      "hit": false,
      "t": 36641.20000000001,
      "d": 1832.0599999999977,
      "v": 100
    },
    {
      "midi": 60,
      "hit": false,
      "t": 36641.20000000001,
      "d": 1832.0599999999977,
      "v": 100
    },
    {
      "midi": 41,
      "hit": false,
      "t": 36641.200000000026,
      "d": 57.251875000001746,
      "v": 82
    },
    {
      "midi": 70,
      "hit": false,
      "t": 36755.70374999993,
      "d": 9.541979166664532,
      "v": 45
    },
    {
      "midi": 70,
      "hit": false,
      "t": 36870.207499999924,
      "d": 9.541979166664532,
      "v": 55
    },
    {
      "midi": 41,
      "hit": false,
      "t": 36870.207500000026,
      "d": 57.251875000001746,
      "v": 82
    },
    {
      "midi": 70,
      "hit": false,
      "t": 36984.71124999992,
      "d": 9.541979166664532,
      "v": 45
    },
    {
      "midi": 38,
      "hit": false,
      "t": 37094.444010416584,
      "d": 9.541979166664532,
      "v": 96
    },
    {
      "midi": 70,
      "hit": false,
      "t": 37099.21499999992,
      "d": 9.541979166664532,
      "v": 75
    },
    {
      "midi": 42,
      "hit": false,
      "t": 37099.21499999992,
      "d": 9.541979166664532,
      "v": 125
    },
    {
      "midi": 48,
      "hit": false,
      "t": 37099.215000000026,
      "d": 229.0074999999997,
      "v": 87
    },
    {
      "midi": 53,
      "hit": false,
      "t": 37099.215000000026,
      "d": 229.0074999999997,
      "v": 87
    },
    {
      "midi": 70,
      "hit": false,
      "t": 37213.71874999991,
      "d": 9.541979166664532,
      "v": 45
    },
    {
      "midi": 70,
      "hit": false,
      "t": 37328.22249999991,
      "d": 9.541979166664532,
      "v": 55
    },
    {
      "midi": 60,
      "hit": false,
      "t": 37328.22249999998,
      "d": 229.0074999999997,
      "v": 84
    },
    {
      "midi": 41,
      "hit": false,
      "t": 37328.222500000025,
      "d": 57.251875000001746,
      "v": 82
    },
    {
      "midi": 70,
      "hit": false,
      "t": 37442.726249999905,
      "d": 9.541979166664532,
      "v": 45
    },
    {
      "midi": 36,
      "hit": false,
      "t": 37557.2299999999,
      "d": 9.541979166664532,
      "v": 108
    },
    {
      "midi": 42,
      "hit": false,
      "t": 37557.2299999999,
      "d": 9.541979166664532,
      "v": 125
    },
    {
      "midi": 70,
      "hit": false,
      "t": 37557.2299999999,
      "d": 9.541979166664532,
      "v": 75
    },
    {
      "midi": 68,
      "hit": false,
      "t": 37557.22999999998,
      "d": 229.0074999999997,
      "v": 84
    },
    {
      "midi": 41,
      "hit": false,
      "t": 37557.230000000025,
      "d": 57.251875000001746,
      "v": 82
    },
    {
      "midi": 70,
      "hit": false,
      "t": 37671.7337499999,
      "d": 9.541979166664532,
      "v": 45
    },
    {
      "midi": 70,
      "hit": false,
      "t": 37786.237499999894,
      "d": 9.541979166664532,
      "v": 55
    },
    {
      "midi": 48,
      "hit": false,
      "t": 37786.237500000025,
      "d": 229.0074999999997,
      "v": 87
    },
    {
      "midi": 53,
      "hit": false,
      "t": 37786.237500000025,
      "d": 229.0074999999997,
      "v": 87
    },
    {
      "midi": 70,
      "hit": false,
      "t": 37900.74124999989,
      "d": 9.541979166664532,
      "v": 45
    },
    {
      "midi": 38,
      "hit": false,
      "t": 38010.474010416554,
      "d": 9.541979166664532,
      "v": 96
    },
    {
      "midi": 70,
      "hit": false,
      "t": 38015.244999999886,
      "d": 9.541979166664532,
      "v": 75
    },
    {
      "midi": 42,
      "hit": false,
      "t": 38015.244999999886,
      "d": 9.541979166664532,
      "v": 125
    },
    {
      "midi": 68,
      "hit": false,
      "t": 38015.24499999998,
      "d": 229.0074999999997,
      "v": 84
    },
    {
      "midi": 41,
      "hit": false,
      "t": 38015.245000000024,
      "d": 57.251875000001746,
      "v": 82
    },
    {
      "midi": 70,
      "hit": false,
      "t": 38129.74874999988,
      "d": 9.541979166664532,
      "v": 45
    },
    {
      "midi": 70,
      "hit": false,
      "t": 38244.25249999988,
      "d": 9.541979166664532,
      "v": 55
    },
    {
      "midi": 67,
      "hit": false,
      "t": 38244.25249999998,
      "d": 458.0149999999994,
      "v": 84
    },
    {
      "midi": 41,
      "hit": false,
      "t": 38244.252500000024,
      "d": 57.251875000001746,
      "v": 82
    },
    {
      "midi": 70,
      "hit": false,
      "t": 38358.756249999875,
      "d": 9.541979166664532,
      "v": 45
    },
    {
      "midi": 36,
      "hit": false,
      "t": 38473.25999999987,
      "d": 9.541979166664532,
      "v": 108
    },
    {
      "midi": 42,
      "hit": false,
      "t": 38473.25999999987,
      "d": 9.541979166664532,
      "v": 125
    },
    {
      "midi": 70,
      "hit": false,
      "t": 38473.25999999987,
      "d": 9.541979166664532,
      "v": 75
    },
    {
      "midi": 72,
      "hit": false,
      "t": 38473.26000000001,
      "d": 916.0299999999988,
      "v": 100
    },
    {
      "midi": 69,
      "hit": false,
      "t": 38473.26000000001,
      "d": 916.0299999999988,
      "v": 100
    },
    {
      "midi": 65,
      "hit": false,
      "t": 38473.26000000001,
      "d": 916.0299999999988,
      "v": 100
    },
    {
      "midi": 62,
      "hit": false,
      "t": 38473.26000000001,
      "d": 916.0299999999988,
      "v": 100
    },
    {
      "midi": 43,
      "hit": false,
      "t": 38473.260000000024,
      "d": 57.251875000001746,
      "v": 82
    },
    {
      "midi": 70,
      "hit": false,
      "t": 38587.76374999987,
      "d": 9.541979166664532,
      "v": 45
    },
    {
      "midi": 70,
      "hit": false,
      "t": 38702.26749999986,
      "d": 9.541979166664532,
      "v": 55
    },
    {
      "midi": 43,
      "hit": false,
      "t": 38702.26750000002,
      "d": 57.251875000001746,
      "v": 82
    },
    {
      "midi": 70,
      "hit": false,
      "t": 38816.77124999986,
      "d": 9.541979166664532,
      "v": 45
    },
    {
      "midi": 38,
      "hit": false,
      "t": 38926.504010416524,
      "d": 9.541979166664532,
      "v": 96
    },
    {
      "midi": 70,
      "hit": false,
      "t": 38931.274999999856,
      "d": 9.541979166664532,
      "v": 75
    },
    {
      "midi": 42,
      "hit": false,
      "t": 38931.274999999856,
      "d": 9.541979166664532,
      "v": 125
    },
    {
      "midi": 50,
      "hit": false,
      "t": 38931.27500000002,
      "d": 229.0074999999997,
      "v": 87
    },
    {
      "midi": 55,
      "hit": false,
      "t": 38931.27500000002,
      "d": 229.0074999999997,
      "v": 87
    },
    {
      "midi": 70,
      "hit": false,
      "t": 39045.77874999985,
      "d": 9.541979166664532,
      "v": 45
    },
    {
      "midi": 70,
      "hit": false,
      "t": 39160.28249999985,
      "d": 9.541979166664532,
      "v": 55
    },
    {
      "midi": 65,
      "hit": false,
      "t": 39160.28249999998,
      "d": 229.0074999999997,
      "v": 84
    },
    {
      "midi": 43,
      "hit": false,
      "t": 39160.28250000002,
      "d": 57.251875000001746,
      "v": 82
    },
    {
      "midi": 70,
      "hit": false,
      "t": 39274.786249999845,
      "d": 9.541979166664532,
      "v": 45
    },
    {
      "midi": 36,
      "hit": false,
      "t": 39389.28999999984,
      "d": 9.541979166664532,
      "v": 108
    },
    {
      "midi": 42,
      "hit": false,
      "t": 39389.28999999984,
      "d": 9.541979166664532,
      "v": 125
    },
    {
      "midi": 70,
      "hit": false,
      "t": 39389.28999999984,
      "d": 9.541979166664532,
      "v": 75
    },
    {
      "midi": 67,
      "hit": false,
      "t": 39389.28999999998,
      "d": 458.0149999999994,
      "v": 84
    },
    {
      "midi": 62,
      "hit": false,
      "t": 39389.29000000001,
      "d": 916.0299999999988,
      "v": 100
    },
    {
      "midi": 65,
      "hit": false,
      "t": 39389.29000000001,
      "d": 916.0299999999988,
      "v": 100
    },
    {
      "midi": 71,
      "hit": false,
      "t": 39389.29000000001,
      "d": 916.0299999999988,
      "v": 100
    },
    {
      "midi": 67,
      "hit": false,
      "t": 39389.29000000001,
      "d": 916.0299999999988,
      "v": 100
    },
    {
      "midi": 43,
      "hit": false,
      "t": 39389.29000000002,
      "d": 57.251875000001746,
      "v": 82
    },
    {
      "midi": 70,
      "hit": false,
      "t": 39503.79374999984,
      "d": 9.541979166664532,
      "v": 45
    },
    {
      "midi": 70,
      "hit": false,
      "t": 39618.29749999983,
      "d": 9.541979166664532,
      "v": 55
    },
    {
      "midi": 50,
      "hit": false,
      "t": 39618.29750000002,
      "d": 229.0074999999997,
      "v": 87
    },
    {
      "midi": 55,
      "hit": false,
      "t": 39618.29750000002,
      "d": 229.0074999999997,
      "v": 87
    },
    {
      "midi": 70,
      "hit": false,
      "t": 39732.80124999983,
      "d": 9.541979166664532,
      "v": 45
    },
    {
      "midi": 38,
      "hit": false,
      "t": 39842.53401041649,
      "d": 9.541979166664532,
      "v": 96
    },
    {
      "midi": 70,
      "hit": false,
      "t": 39847.304999999826,
      "d": 9.541979166664532,
      "v": 75
    },
    {
      "midi": 42,
      "hit": false,
      "t": 39847.304999999826,
      "d": 9.541979166664532,
      "v": 125
    },
    {
      "midi": 65,
      "hit": false,
      "t": 39847.30499999998,
      "d": 229.0074999999997,
      "v": 84
    },
    {
      "midi": 43,
      "hit": false,
      "t": 39847.30500000002,
      "d": 57.251875000001746,
      "v": 82
    },
    {
      "midi": 70,
      "hit": false,
      "t": 39961.80874999982,
      "d": 9.541979166664532,
      "v": 45
    },
    {
      "midi": 70,
      "hit": false,
      "t": 40076.31249999982,
      "d": 9.541979166664532,
      "v": 55
    },
    {
      "midi": 65,
      "hit": false,
      "t": 40076.31249999998,
      "d": 229.0074999999997,
      "v": 84
    },
    {
      "midi": 43,
      "hit": false,
      "t": 40076.31250000002,
      "d": 57.251875000001746,
      "v": 82
    },
    {
      "midi": 70,
      "hit": false,
      "t": 40190.816249999814,
      "d": 9.541979166664532,
      "v": 45
    },
    {
      "midi": 36,
      "hit": false,
      "t": 40305.31999999981,
      "d": 9.541979166664532,
      "v": 108
    },
    {
      "midi": 42,
      "hit": false,
      "t": 40305.31999999981,
      "d": 9.541979166664532,
      "v": 125
    },
    {
      "midi": 70,
      "hit": false,
      "t": 40305.31999999981,
      "d": 9.541979166664532,
      "v": 75
    },
    {
      "midi": 65,
      "hit": false,
      "t": 40305.31999999998,
      "d": 229.0074999999997,
      "v": 84
    },
    {
      "midi": 72,
      "hit": false,
      "t": 40305.32000000001,
      "d": 1832.0599999999977,
      "v": 100
    },
    {
      "midi": 70,
      "hit": false,
      "t": 40305.32000000001,
      "d": 1832.0599999999977,
      "v": 100
    },
    {
      "midi": 67,
      "hit": false,
      "t": 40305.32000000001,
      "d": 1832.0599999999977,
      "v": 100
    },
    {
      "midi": 63,
      "hit": false,
      "t": 40305.32000000001,
      "d": 1832.0599999999977,
      "v": 100
    },
    {
      "midi": 48,
      "hit": false,
      "t": 40305.32000000002,
      "d": 57.251875000001746,
      "v": 82
    },
    {
      "midi": 70,
      "hit": false,
      "t": 40419.82374999981,
      "d": 9.541979166664532,
      "v": 45
    },
    {
      "midi": 70,
      "hit": false,
      "t": 40534.3274999998,
      "d": 9.541979166664532,
      "v": 55
    },
    {
      "midi": 65,
      "hit": false,
      "t": 40534.32749999998,
      "d": 229.0074999999997,
      "v": 84
    },
    {
      "midi": 48,
      "hit": false,
      "t": 40534.32750000002,
      "d": 57.251875000001746,
      "v": 82
    },
    {
      "midi": 70,
      "hit": false,
      "t": 40648.8312499998,
      "d": 9.541979166664532,
      "v": 45
    },
    {
      "midi": 38,
      "hit": false,
      "t": 40758.56401041646,
      "d": 9.541979166664532,
      "v": 96
    },
    {
      "midi": 70,
      "hit": false,
      "t": 40763.334999999795,
      "d": 9.541979166664532,
      "v": 75
    },
    {
      "midi": 42,
      "hit": false,
      "t": 40763.334999999795,
      "d": 9.541979166664532,
      "v": 125
    },
    {
      "midi": 65,
      "hit": false,
      "t": 40763.33499999998,
      "d": 229.0074999999997,
      "v": 84
    },
    {
      "midi": 48,
      "hit": false,
      "t": 40763.33500000002,
      "d": 229.0074999999997,
      "v": 82
    },
    {
      "midi": 55,
      "hit": false,
      "t": 40763.33500000002,
      "d": 229.0074999999997,
      "v": 82
    },
    {
      "midi": 60,
      "hit": false,
      "t": 40763.33500000002,
      "d": 229.0074999999997,
      "v": 82
    },
    {
      "midi": 70,
      "hit": false,
      "t": 40877.83874999979,
      "d": 9.541979166664532,
      "v": 45
    },
    {
      "midi": 70,
      "hit": false,
      "t": 40992.34249999979,
      "d": 9.541979166664532,
      "v": 55
    },
    {
      "midi": 65,
      "hit": false,
      "t": 40992.34249999998,
      "d": 229.0074999999997,
      "v": 84
    },
    {
      "midi": 48,
      "hit": false,
      "t": 40992.34250000002,
      "d": 57.251875000001746,
      "v": 82
    },
    {
      "midi": 70,
      "hit": false,
      "t": 41106.846249999784,
      "d": 9.541979166664532,
      "v": 45
    },
    {
      "midi": 36,
      "hit": false,
      "t": 41221.34999999978,
      "d": 9.541979166664532,
      "v": 108
    },
    {
      "midi": 42,
      "hit": false,
      "t": 41221.34999999978,
      "d": 9.541979166664532,
      "v": 125
    },
    {
      "midi": 70,
      "hit": false,
      "t": 41221.34999999978,
      "d": 9.541979166664532,
      "v": 75
    },
    {
      "midi": 63,
      "hit": false,
      "t": 41221.34999999998,
      "d": 229.0074999999997,
      "v": 84
    },
    {
      "midi": 48,
      "hit": false,
      "t": 41221.35000000002,
      "d": 57.251875000001746,
      "v": 82
    },
    {
      "midi": 70,
      "hit": false,
      "t": 41335.85374999978,
      "d": 9.541979166664532,
      "v": 45
    },
    {
      "midi": 70,
      "hit": false,
      "t": 41450.35749999977,
      "d": 9.541979166664532,
      "v": 55
    },
    {
      "midi": 65,
      "hit": false,
      "t": 41450.35749999998,
      "d": 458.0149999999994,
      "v": 84
    },
    {
      "midi": 48,
      "hit": false,
      "t": 41450.35750000002,
      "d": 229.0074999999997,
      "v": 82
    },
    {
      "midi": 55,
      "hit": false,
      "t": 41450.35750000002,
      "d": 229.0074999999997,
      "v": 82
    },
    {
      "midi": 60,
      "hit": false,
      "t": 41450.35750000002,
      "d": 229.0074999999997,
      "v": 82
    },
    {
      "midi": 70,
      "hit": false,
      "t": 41564.86124999977,
      "d": 9.541979166664532,
      "v": 45
    },
    {
      "midi": 38,
      "hit": false,
      "t": 41674.59401041643,
      "d": 9.541979166664532,
      "v": 96
    },
    {
      "midi": 70,
      "hit": false,
      "t": 41679.364999999765,
      "d": 9.541979166664532,
      "v": 75
    },
    {
      "midi": 42,
      "hit": false,
      "t": 41679.364999999765,
      "d": 9.541979166664532,
      "v": 125
    },
    {
      "midi": 48,
      "hit": false,
      "t": 41679.36500000002,
      "d": 57.251875000001746,
      "v": 82
    },
    {
      "midi": 70,
      "hit": false,
      "t": 41793.86874999976,
      "d": 9.541979166664532,
      "v": 45
    },
    {
      "midi": 70,
      "hit": false,
      "t": 41908.37249999976,
      "d": 9.541979166664532,
      "v": 55
    },
    {
      "midi": 67,
      "hit": false,
      "t": 41908.372499999976,
      "d": 687.0224999999991,
      "v": 84
    },
    {
      "midi": 48,
      "hit": false,
      "t": 41908.37250000002,
      "d": 57.251875000001746,
      "v": 82
    },
    {
      "midi": 70,
      "hit": false,
      "t": 42022.876249999754,
      "d": 9.541979166664532,
      "v": 45
    },
    {
      "midi": 36,
      "hit": false,
      "t": 42137.37999999975,
      "d": 9.541979166664532,
      "v": 108
    },
    {
      "midi": 42,
      "hit": false,
      "t": 42137.37999999975,
      "d": 9.541979166664532,
      "v": 125
    },
    {
      "midi": 70,
      "hit": false,
      "t": 42137.37999999975,
      "d": 9.541979166664532,
      "v": 75
    },
    {
      "midi": 63,
      "hit": false,
      "t": 42137.380000000005,
      "d": 1832.0599999999977,
      "v": 100
    },
    {
      "midi": 67,
      "hit": false,
      "t": 42137.380000000005,
      "d": 1832.0599999999977,
      "v": 100
    },
    {
      "midi": 70,
      "hit": false,
      "t": 42137.380000000005,
      "d": 1832.0599999999977,
      "v": 100
    },
    {
      "midi": 61,
      "hit": false,
      "t": 42137.380000000005,
      "d": 1832.0599999999977,
      "v": 100
    },
    {
      "midi": 51,
      "hit": false,
      "t": 42137.38000000002,
      "d": 57.251875000001746,
      "v": 82
    },
    {
      "midi": 70,
      "hit": false,
      "t": 42251.883749999746,
      "d": 9.541979166664532,
      "v": 45
    },
    {
      "midi": 70,
      "hit": false,
      "t": 42366.38749999974,
      "d": 9.541979166664532,
      "v": 55
    },
    {
      "midi": 51,
      "hit": false,
      "t": 42366.38750000002,
      "d": 57.251875000001746,
      "v": 82
    },
    {
      "midi": 70,
      "hit": false,
      "t": 42480.89124999974,
      "d": 9.541979166664532,
      "v": 45
    },
    {
      "midi": 38,
      "hit": false,
      "t": 42590.6240104164,
      "d": 9.541979166664532,
      "v": 96
    },
    {
      "midi": 70,
      "hit": false,
      "t": 42595.394999999735,
      "d": 9.541979166664532,
      "v": 75
    },
    {
      "midi": 42,
      "hit": false,
      "t": 42595.394999999735,
      "d": 9.541979166664532,
      "v": 125
    },
    {
      "midi": 51,
      "hit": false,
      "t": 42595.39500000002,
      "d": 229.0074999999997,
      "v": 87
    },
    {
      "midi": 58,
      "hit": false,
      "t": 42595.39500000002,
      "d": 229.0074999999997,
      "v": 87
    },
    {
      "midi": 70,
      "hit": false,
      "t": 42709.89874999973,
      "d": 9.541979166664532,
      "v": 45
    },
    {
      "midi": 70,
      "hit": false,
      "t": 42824.40249999973,
      "d": 9.541979166664532,
      "v": 55
    },
    {
      "midi": 51,
      "hit": false,
      "t": 42824.40250000002,
      "d": 57.251875000001746,
      "v": 82
    },
    {
      "midi": 70,
      "hit": false,
      "t": 42938.90624999972,
      "d": 9.541979166664532,
      "v": 45
    },
    {
      "midi": 36,
      "hit": false,
      "t": 43053.40999999972,
      "d": 9.541979166664532,
      "v": 108
    },
    {
      "midi": 42,
      "hit": false,
      "t": 43053.40999999972,
      "d": 9.541979166664532,
      "v": 125
    },
    {
      "midi": 70,
      "hit": false,
      "t": 43053.40999999972,
      "d": 9.541979166664532,
      "v": 75
    },
    {
      "midi": 51,
      "hit": false,
      "t": 43053.41000000002,
      "d": 57.251875000001746,
      "v": 82
    },
    {
      "midi": 70,
      "hit": false,
      "t": 43167.913749999716,
      "d": 9.541979166664532,
      "v": 45
    },
    {
      "midi": 70,
      "hit": false,
      "t": 43282.41749999971,
      "d": 9.541979166664532,
      "v": 55
    },
    {
      "midi": 68,
      "hit": false,
      "t": 43282.417499999974,
      "d": 458.0149999999994,
      "v": 84
    },
    {
      "midi": 60,
      "hit": false,
      "t": 43282.41749999998,
      "d": 458.0149999999994,
      "v": 127
    },
    {
      "midi": 80,
      "hit": false,
      "t": 43282.4175,
      "d": 95.41979166666715,
      "v": 90
    },
    {
      "midi": 92,
      "hit": false,
      "t": 43282.4175,
      "d": 95.41979166666715,
      "v": 90
    },
    {
      "midi": 80,
      "hit": false,
      "t": 43282.4175,
      "d": 95.41979166666715,
      "v": 90
    },
    {
      "midi": 92,
      "hit": false,
      "t": 43282.4175,
      "d": 95.41979166666715,
      "v": 90
    },
    {
      "midi": 51,
      "hit": false,
      "t": 43282.41750000002,
      "d": 229.0074999999997,
      "v": 87
    },
    {
      "midi": 58,
      "hit": false,
      "t": 43282.41750000002,
      "d": 229.0074999999997,
      "v": 87
    },
    {
      "midi": 70,
      "hit": false,
      "t": 43396.92124999971,
      "d": 9.541979166664532,
      "v": 45
    },
    {
      "midi": 38,
      "hit": false,
      "t": 43506.65401041637,
      "d": 9.541979166664532,
      "v": 96
    },
    {
      "midi": 70,
      "hit": false,
      "t": 43511.424999999705,
      "d": 9.541979166664532,
      "v": 75
    },
    {
      "midi": 42,
      "hit": false,
      "t": 43511.424999999705,
      "d": 9.541979166664532,
      "v": 125
    },
    {
      "midi": 51,
      "hit": false,
      "t": 43511.42500000002,
      "d": 57.251875000001746,
      "v": 82
    },
    {
      "midi": 70,
      "hit": false,
      "t": 43625.9287499997,
      "d": 9.541979166664532,
      "v": 45
    },
    {
      "midi": 70,
      "hit": false,
      "t": 43740.4324999997,
      "d": 9.541979166664532,
      "v": 55
    },
    {
      "midi": 70,
      "hit": false,
      "t": 43740.43249999997,
      "d": 229.0074999999997,
      "v": 84
    },
    {
      "midi": 62,
      "hit": false,
      "t": 43740.43249999998,
      "d": 229.0074999999997,
      "v": 127
    },
    {
      "midi": 82,
      "hit": false,
      "t": 43740.4325,
      "d": 95.41979166666715,
      "v": 90
    },
    {
      "midi": 94,
      "hit": false,
      "t": 43740.4325,
      "d": 95.41979166666715,
      "v": 90
    },
    {
      "midi": 82,
      "hit": false,
      "t": 43740.4325,
      "d": 95.41979166666715,
      "v": 90
    },
    {
      "midi": 94,
      "hit": false,
      "t": 43740.4325,
      "d": 95.41979166666715,
      "v": 90
    },
    {
      "midi": 51,
      "hit": false,
      "t": 43740.43250000002,
      "d": 57.251875000001746,
      "v": 82
    },
    {
      "midi": 70,
      "hit": false,
      "t": 43854.93624999969,
      "d": 9.541979166664532,
      "v": 45
    },
    {
      "midi": 36,
      "hit": false,
      "t": 43969.43999999969,
      "d": 9.541979166664532,
      "v": 108
    },
    {
      "midi": 49,
      "hit": false,
      "t": 43969.43999999969,
      "d": 9.541979166664532,
      "v": 100
    },
    {
      "midi": 70,
      "hit": false,
      "t": 43969.43999999969,
      "d": 9.541979166664532,
      "v": 75
    },
    {
      "midi": 72,
      "hit": false,
      "t": 43969.43999999997,
      "d": 458.0149999999994,
      "v": 84
    },
    {
      "midi": 63,
      "hit": false,
      "t": 43969.43999999998,
      "d": 458.0149999999994,
      "v": 127
    },
    {
      "midi": 63,
      "hit": false,
      "t": 43969.44,
      "d": 1832.0599999999977,
      "v": 100
    },
    {
      "midi": 68,
      "hit": false,
      "t": 43969.44,
      "d": 1832.0599999999977,
      "v": 100
    },
    {
      "midi": 72,
      "hit": false,
      "t": 43969.44,
      "d": 1832.0599999999977,
      "v": 100
    },
    {
      "midi": 84,
      "hit": false,
      "t": 43969.44,
      "d": 95.41979166666715,
      "v": 90
    },
    {
      "midi": 96,
      "hit": false,
      "t": 43969.44,
      "d": 95.41979166666715,
      "v": 90
    },
    {
      "midi": 84,
      "hit": false,
      "t": 43969.44,
      "d": 95.41979166666715,
      "v": 90
    },
    {
      "midi": 96,
      "hit": false,
      "t": 43969.44,
      "d": 95.41979166666715,
      "v": 90
    },
    {
      "midi": 44,
      "hit": false,
      "t": 43969.44000000002,
      "d": 57.251875000001746,
      "v": 82
    },
    {
      "midi": 70,
      "hit": false,
      "t": 44083.943749999686,
      "d": 9.541979166664532,
      "v": 45
    },
    {
      "midi": 70,
      "hit": false,
      "t": 44198.44749999968,
      "d": 9.541979166664532,
      "v": 55
    },
    {
      "midi": 44,
      "hit": false,
      "t": 44198.44750000002,
      "d": 57.251875000001746,
      "v": 82
    },
    {
      "midi": 70,
      "hit": false,
      "t": 44312.95124999968,
      "d": 9.541979166664532,
      "v": 45
    },
    {
      "midi": 38,
      "hit": false,
      "t": 44422.68401041634,
      "d": 9.541979166664532,
      "v": 96
    },
    {
      "midi": 70,
      "hit": false,
      "t": 44427.454999999674,
      "d": 9.541979166664532,
      "v": 75
    },
    {
      "midi": 42,
      "hit": false,
      "t": 44427.454999999674,
      "d": 9.541979166664532,
      "v": 125
    },
    {
      "midi": 44,
      "hit": false,
      "t": 44427.455000000016,
      "d": 229.0074999999997,
      "v": 82
    },
    {
      "midi": 51,
      "hit": false,
      "t": 44427.455000000016,
      "d": 229.0074999999997,
      "v": 82
    },
    {
      "midi": 56,
      "hit": false,
      "t": 44427.455000000016,
      "d": 229.0074999999997,
      "v": 82
    },
    {
      "midi": 70,
      "hit": false,
      "t": 44541.95874999967,
      "d": 9.541979166664532,
      "v": 45
    },
    {
      "midi": 70,
      "hit": false,
      "t": 44656.46249999967,
      "d": 9.541979166664532,
      "v": 55
    },
    {
      "midi": 72,
      "hit": false,
      "t": 44656.46249999997,
      "d": 458.0149999999994,
      "v": 84
    },
    {
      "midi": 63,
      "hit": false,
      "t": 44656.46249999998,
      "d": 458.0149999999994,
      "v": 127
    },
    {
      "midi": 44,
      "hit": false,
      "t": 44656.462500000016,
      "d": 57.251875000001746,
      "v": 82
    },
    {
      "midi": 70,
      "hit": false,
      "t": 44770.96624999966,
      "d": 9.541979166664532,
      "v": 45
    },
    {
      "midi": 36,
      "hit": false,
      "t": 44885.46999999966,
      "d": 9.541979166664532,
      "v": 108
    },
    {
      "midi": 42,
      "hit": false,
      "t": 44885.46999999966,
      "d": 9.541979166664532,
      "v": 125
    },
    {
      "midi": 70,
      "hit": false,
      "t": 44885.46999999966,
      "d": 9.541979166664532,
      "v": 75
    },
    {
      "midi": 44,
      "hit": false,
      "t": 44885.470000000016,
      "d": 57.251875000001746,
      "v": 82
    },
    {
      "midi": 70,
      "hit": false,
      "t": 44999.973749999655,
      "d": 9.541979166664532,
      "v": 45
    },
    {
      "midi": 70,
      "hit": false,
      "t": 45114.47749999965,
      "d": 9.541979166664532,
      "v": 55
    },
    {
      "midi": 72,
      "hit": false,
      "t": 45114.47749999997,
      "d": 229.0074999999997,
      "v": 84
    },
    {
      "midi": 63,
      "hit": false,
      "t": 45114.47749999998,
      "d": 229.0074999999997,
      "v": 127
    },
    {
      "midi": 44,
      "hit": false,
      "t": 45114.477500000015,
      "d": 229.0074999999997,
      "v": 82
    },
    {
      "midi": 51,
      "hit": false,
      "t": 45114.477500000015,
      "d": 229.0074999999997,
      "v": 82
    },
    {
      "midi": 56,
      "hit": false,
      "t": 45114.477500000015,
      "d": 229.0074999999997,
      "v": 82
    },
    {
      "midi": 70,
      "hit": false,
      "t": 45228.98124999965,
      "d": 9.541979166664532,
      "v": 45
    },
    {
      "midi": 38,
      "hit": false,
      "t": 45338.71401041631,
      "d": 9.541979166664532,
      "v": 96
    },
    {
      "midi": 70,
      "hit": false,
      "t": 45343.484999999644,
      "d": 9.541979166664532,
      "v": 75
    },
    {
      "midi": 42,
      "hit": false,
      "t": 45343.484999999644,
      "d": 9.541979166664532,
      "v": 125
    },
    {
      "midi": 72,
      "hit": false,
      "t": 45343.48499999997,
      "d": 229.0074999999997,
      "v": 84
    },
    {
      "midi": 63,
      "hit": false,
      "t": 45343.48499999998,
      "d": 229.0074999999997,
      "v": 127
    },
    {
      "midi": 56,
      "hit": false,
      "t": 45343.485000000015,
      "d": 229.0074999999997,
      "v": 82
    },
    {
      "midi": 51,
      "hit": false,
      "t": 45343.485000000015,
      "d": 229.0074999999997,
      "v": 82
    },
    {
      "midi": 44,
      "hit": false,
      "t": 45343.485000000015,
      "d": 229.0074999999997,
      "v": 82
    },
    {
      "midi": 70,
      "hit": false,
      "t": 45457.98874999964,
      "d": 9.541979166664532,
      "v": 45
    },
    {
      "midi": 70,
      "hit": false,
      "t": 45572.49249999964,
      "d": 9.541979166664532,
      "v": 55
    },
    {
      "midi": 72,
      "hit": false,
      "t": 45572.49249999997,
      "d": 229.0074999999997,
      "v": 84
    },
    {
      "midi": 63,
      "hit": false,
      "t": 45572.49249999998,
      "d": 229.0074999999997,
      "v": 127
    },
    {
      "midi": 44,
      "hit": false,
      "t": 45572.492500000015,
      "d": 57.251875000001746,
      "v": 82
    },
    {
      "midi": 70,
      "hit": false,
      "t": 45686.99624999963,
      "d": 9.541979166664532,
      "v": 45
    },
    {
      "midi": 36,
      "hit": false,
      "t": 45801.49999999963,
      "d": 9.541979166664532,
      "v": 108
    },
    {
      "midi": 42,
      "hit": false,
      "t": 45801.49999999963,
      "d": 9.541979166664532,
      "v": 125
    },
    {
      "midi": 70,
      "hit": false,
      "t": 45801.49999999963,
      "d": 9.541979166664532,
      "v": 75
    },
    {
      "midi": 72,
      "hit": false,
      "t": 45801.49999999997,
      "d": 458.0149999999994,
      "v": 84
    },
    {
      "midi": 63,
      "hit": false,
      "t": 45801.49999999998,
      "d": 458.0149999999994,
      "v": 127
    },
    {
      "midi": 70,
      "hit": false,
      "t": 45801.5,
      "d": 1068.7016666666677,
      "v": 100
    },
    {
      "midi": 65,
      "hit": false,
      "t": 45801.5,
      "d": 1068.7016666666677,
      "v": 100
    },
    {
      "midi": 74,
      "hit": false,
      "t": 45801.5,
      "d": 1068.7016666666677,
      "v": 100
    },
    {
      "midi": 44,
      "hit": false,
      "t": 45801.500000000015,
      "d": 57.251875000001746,
      "v": 82
    },
    {
      "midi": 70,
      "hit": false,
      "t": 45916.003749999625,
      "d": 9.541979166664532,
      "v": 45
    },
    {
      "midi": 70,
      "hit": false,
      "t": 46030.50749999962,
      "d": 9.541979166664532,
      "v": 55
    },
    {
      "midi": 44,
      "hit": false,
      "t": 46030.507500000014,
      "d": 57.251875000001746,
      "v": 82
    },
    {
      "midi": 70,
      "hit": false,
      "t": 46145.01124999962,
      "d": 9.541979166664532,
      "v": 45
    },
    {
      "midi": 38,
      "hit": false,
      "t": 46254.74401041628,
      "d": 9.541979166664532,
      "v": 96
    },
    {
      "midi": 70,
      "hit": false,
      "t": 46259.514999999614,
      "d": 9.541979166664532,
      "v": 75
    },
    {
      "midi": 42,
      "hit": false,
      "t": 46259.514999999614,
      "d": 9.541979166664532,
      "v": 125
    },
    {
      "midi": 70,
      "hit": false,
      "t": 46259.51499999997,
      "d": 229.0074999999997,
      "v": 84
    },
    {
      "midi": 62,
      "hit": false,
      "t": 46259.51499999998,
      "d": 229.0074999999997,
      "v": 127
    },
    {
      "midi": 44,
      "hit": false,
      "t": 46259.515000000014,
      "d": 229.0074999999997,
      "v": 82
    },
    {
      "midi": 51,
      "hit": false,
      "t": 46259.515000000014,
      "d": 229.0074999999997,
      "v": 82
    },
    {
      "midi": 56,
      "hit": false,
      "t": 46259.515000000014,
      "d": 229.0074999999997,
      "v": 82
    },
    {
      "midi": 70,
      "hit": false,
      "t": 46374.01874999961,
      "d": 9.541979166664532,
      "v": 45
    },
    {
      "midi": 70,
      "hit": false,
      "t": 46488.522499999606,
      "d": 9.541979166664532,
      "v": 55
    },
    {
      "midi": 68,
      "hit": false,
      "t": 46488.52249999997,
      "d": 458.0149999999994,
      "v": 84
    },
    {
      "midi": 60,
      "hit": false,
      "t": 46488.52249999998,
      "d": 458.0149999999994,
      "v": 127
    },
    {
      "midi": 44,
      "hit": false,
      "t": 46488.522500000014,
      "d": 57.251875000001746,
      "v": 82
    },
    {
      "midi": 70,
      "hit": false,
      "t": 46603.0262499996,
      "d": 9.541979166664532,
      "v": 45
    },
    {
      "midi": 36,
      "hit": false,
      "t": 46717.5299999996,
      "d": 9.541979166664532,
      "v": 108
    },
    {
      "midi": 42,
      "hit": false,
      "t": 46717.5299999996,
      "d": 9.541979166664532,
      "v": 125
    },
    {
      "midi": 70,
      "hit": false,
      "t": 46717.5299999996,
      "d": 9.541979166664532,
      "v": 75
    },
    {
      "midi": 44,
      "hit": false,
      "t": 46717.53000000001,
      "d": 57.251875000001746,
      "v": 82
    },
    {
      "midi": 70,
      "hit": false,
      "t": 46832.033749999595,
      "d": 9.541979166664532,
      "v": 45
    },
    {
      "midi": 70,
      "hit": false,
      "t": 46946.53749999959,
      "d": 9.541979166664532,
      "v": 55
    },
    {
      "midi": 70,
      "hit": false,
      "t": 46946.53749999997,
      "d": 229.0074999999997,
      "v": 84
    },
    {
      "midi": 62,
      "hit": false,
      "t": 46946.53749999998,
      "d": 229.0074999999997,
      "v": 127
    },
    {
      "midi": 58,
      "hit": false,
      "t": 46946.5375,
      "d": 229.0074999999997,
      "v": 110
    },
    {
      "midi": 70,
      "hit": false,
      "t": 46946.5375,
      "d": 229.0074999999997,
      "v": 110
    },
    {
      "midi": 51,
      "hit": false,
      "t": 46946.53750000001,
      "d": 229.0074999999997,
      "v": 82
    },
    {
      "midi": 56,
      "hit": false,
      "t": 46946.53750000001,
      "d": 229.0074999999997,
      "v": 82
    },
    {
      "midi": 44,
      "hit": false,
      "t": 46946.53750000001,
      "d": 229.0074999999997,
      "v": 82
    },
    {
      "midi": 70,
      "hit": false,
      "t": 47061.04124999959,
      "d": 9.541979166664532,
      "v": 45
    },
    {
      "midi": 38,
      "hit": false,
      "t": 47170.77401041625,
      "d": 9.541979166664532,
      "v": 96
    },
    {
      "midi": 70,
      "hit": false,
      "t": 47175.54499999958,
      "d": 9.541979166664532,
      "v": 75
    },
    {
      "midi": 42,
      "hit": false,
      "t": 47175.54499999958,
      "d": 9.541979166664532,
      "v": 125
    },
    {
      "midi": 72,
      "hit": false,
      "t": 47175.54499999997,
      "d": 458.0149999999994,
      "v": 84
    },
    {
      "midi": 63,
      "hit": false,
      "t": 47175.54499999998,
      "d": 458.0149999999994,
      "v": 127
    },
    {
      "midi": 60,
      "hit": false,
      "t": 47175.545,
      "d": 458.0149999999994,
      "v": 110
    },
    {
      "midi": 72,
      "hit": false,
      "t": 47175.545,
      "d": 458.0149999999994,
      "v": 110
    },
    {
      "midi": 44,
      "hit": false,
      "t": 47175.54500000001,
      "d": 57.251875000001746,
      "v": 82
    },
    {
      "midi": 70,
      "hit": false,
      "t": 47290.04874999958,
      "d": 9.541979166664532,
      "v": 45
    },
    {
      "midi": 70,
      "hit": false,
      "t": 47404.552499999576,
      "d": 9.541979166664532,
      "v": 55
    },
    {
      "midi": 44,
      "hit": false,
      "t": 47404.55250000001,
      "d": 57.251875000001746,
      "v": 82
    },
    {
      "midi": 70,
      "hit": false,
      "t": 47519.05624999957,
      "d": 9.541979166664532,
      "v": 45
    },
    {
      "midi": 36,
      "hit": false,
      "t": 47633.55999999957,
      "d": 9.541979166664532,
      "v": 108
    },
    {
      "midi": 42,
      "hit": false,
      "t": 47633.55999999957,
      "d": 9.541979166664532,
      "v": 125
    },
    {
      "midi": 70,
      "hit": false,
      "t": 47633.55999999957,
      "d": 9.541979166664532,
      "v": 75
    },
    {
      "midi": 70,
      "hit": false,
      "t": 47633.55999999997,
      "d": 458.0149999999994,
      "v": 84
    },
    {
      "midi": 62,
      "hit": false,
      "t": 47633.559999999976,
      "d": 458.0149999999994,
      "v": 127
    },
    {
      "midi": 62,
      "hit": false,
      "t": 47633.56,
      "d": 1832.0599999999977,
      "v": 100
    },
    {
      "midi": 58,
      "hit": false,
      "t": 47633.56,
      "d": 1832.0599999999977,
      "v": 100
    },
    {
      "midi": 67,
      "hit": false,
      "t": 47633.56,
      "d": 1832.0599999999977,
      "v": 100
    },
    {
      "midi": 70,
      "hit": false,
      "t": 47633.56,
      "d": 1832.0599999999977,
      "v": 100
    },
    {
      "midi": 43,
      "hit": false,
      "t": 47633.56000000001,
      "d": 57.251875000001746,
      "v": 82
    },
    {
      "midi": 70,
      "hit": false,
      "t": 47748.063749999565,
      "d": 9.541979166664532,
      "v": 45
    },
    {
      "midi": 70,
      "hit": false,
      "t": 47862.56749999956,
      "d": 9.541979166664532,
      "v": 55
    },
    {
      "midi": 43,
      "hit": false,
      "t": 47862.56750000001,
      "d": 57.251875000001746,
      "v": 82
    },
    {
      "midi": 70,
      "hit": false,
      "t": 47977.07124999956,
      "d": 9.541979166664532,
      "v": 45
    },
    {
      "midi": 38,
      "hit": false,
      "t": 48086.80401041622,
      "d": 9.541979166664532,
      "v": 96
    },
    {
      "midi": 70,
      "hit": false,
      "t": 48091.57499999955,
      "d": 9.541979166664532,
      "v": 75
    },
    {
      "midi": 42,
      "hit": false,
      "t": 48091.57499999955,
      "d": 9.541979166664532,
      "v": 125
    },
    {
      "midi": 50,
      "hit": false,
      "t": 48091.57500000001,
      "d": 229.0074999999997,
      "v": 87
    },
    {
      "midi": 55,
      "hit": false,
      "t": 48091.57500000001,
      "d": 229.0074999999997,
      "v": 87
    },
    {
      "midi": 70,
      "hit": false,
      "t": 48206.07874999955,
      "d": 9.541979166664532,
      "v": 45
    },
    {
      "midi": 70,
      "hit": false,
      "t": 48320.582499999546,
      "d": 9.541979166664532,
      "v": 55
    },
    {
      "midi": 70,
      "hit": false,
      "t": 48320.58249999997,
      "d": 229.0074999999997,
      "v": 84
    },
    {
      "midi": 43,
      "hit": false,
      "t": 48320.58250000001,
      "d": 57.251875000001746,
      "v": 82
    },
    {
      "midi": 70,
      "hit": false,
      "t": 48435.08624999954,
      "d": 9.541979166664532,
      "v": 45
    },
    {
      "midi": 36,
      "hit": false,
      "t": 48549.58999999954,
      "d": 9.541979166664532,
      "v": 108
    },
    {
      "midi": 42,
      "hit": false,
      "t": 48549.58999999954,
      "d": 9.541979166664532,
      "v": 125
    },
    {
      "midi": 70,
      "hit": false,
      "t": 48549.58999999954,
      "d": 9.541979166664532,
      "v": 75
    },
    {
      "midi": 70,
      "hit": false,
      "t": 48549.58999999997,
      "d": 248.09145833333605,
      "v": 84
    },
    {
      "midi": 43,
      "hit": false,
      "t": 48549.59000000001,
      "d": 57.251875000001746,
      "v": 82
    },
    {
      "midi": 70,
      "hit": false,
      "t": 48664.093749999534,
      "d": 9.541979166664532,
      "v": 45
    },
    {
      "midi": 70,
      "hit": false,
      "t": 48778.59749999953,
      "d": 9.541979166664532,
      "v": 55
    },
    {
      "midi": 50,
      "hit": false,
      "t": 48778.59750000001,
      "d": 229.0074999999997,
      "v": 87
    },
    {
      "midi": 55,
      "hit": false,
      "t": 48778.59750000001,
      "d": 229.0074999999997,
      "v": 87
    },
    {
      "midi": 70,
      "hit": false,
      "t": 48893.10124999953,
      "d": 9.541979166664532,
      "v": 45
    },
    {
      "midi": 72,
      "hit": false,
      "t": 48893.10124999997,
      "d": 300.57234374999825,
      "v": 84
    },
    {
      "midi": 38,
      "hit": false,
      "t": 49002.83401041619,
      "d": 9.541979166664532,
      "v": 96
    },
    {
      "midi": 70,
      "hit": false,
      "t": 49007.60499999952,
      "d": 9.541979166664532,
      "v": 75
    },
    {
      "midi": 42,
      "hit": false,
      "t": 49007.60499999952,
      "d": 9.541979166664532,
      "v": 125
    },
    {
      "midi": 43,
      "hit": false,
      "t": 49007.60500000001,
      "d": 57.251875000001746,
      "v": 82
    },
    {
      "midi": 70,
      "hit": false,
      "t": 49122.10874999952,
      "d": 9.541979166664532,
      "v": 45
    },
    {
      "midi": 70,
      "hit": false,
      "t": 49236.612499999515,
      "d": 9.541979166664532,
      "v": 55
    },
    {
      "midi": 74,
      "hit": false,
      "t": 49236.61249999997,
      "d": 229.0074999999997,
      "v": 84
    },
    {
      "midi": 43,
      "hit": false,
      "t": 49236.61250000001,
      "d": 57.251875000001746,
      "v": 82
    },
    {
      "midi": 70,
      "hit": false,
      "t": 49351.11624999951,
      "d": 9.541979166664532,
      "v": 45
    },
    {
      "midi": 36,
      "hit": false,
      "t": 49465.61999999951,
      "d": 9.541979166664532,
      "v": 108
    },
    {
      "midi": 42,
      "hit": false,
      "t": 49465.61999999951,
      "d": 9.541979166664532,
      "v": 125
    },
    {
      "midi": 70,
      "hit": false,
      "t": 49465.61999999951,
      "d": 9.541979166664532,
      "v": 75
    },
    {
      "midi": 75,
      "hit": false,
      "t": 49465.619999999966,
      "d": 229.0074999999997,
      "v": 84
    },
    {
      "midi": 63,
      "hit": false,
      "t": 49465.619999999995,
      "d": 1832.0599999999977,
      "v": 100
    },
    {
      "midi": 60,
      "hit": false,
      "t": 49465.619999999995,
      "d": 1832.0599999999977,
      "v": 100
    },
    {
      "midi": 67,
      "hit": false,
      "t": 49465.619999999995,
      "d": 1832.0599999999977,
      "v": 100
    },
    {
      "midi": 72,
      "hit": false,
      "t": 49465.619999999995,
      "d": 1832.0599999999977,
      "v": 100
    },
    {
      "midi": 48,
      "hit": false,
      "t": 49465.62000000001,
      "d": 57.251875000001746,
      "v": 82
    },
    {
      "midi": 70,
      "hit": false,
      "t": 49580.123749999504,
      "d": 9.541979166664532,
      "v": 45
    },
    {
      "midi": 70,
      "hit": false,
      "t": 49694.6274999995,
      "d": 9.541979166664532,
      "v": 55
    },
    {
      "midi": 74,
      "hit": false,
      "t": 49694.627499999966,
      "d": 229.0074999999997,
      "v": 84
    },
    {
      "midi": 48,
      "hit": false,
      "t": 49694.62750000001,
      "d": 57.251875000001746,
      "v": 82
    },
    {
      "midi": 70,
      "hit": false,
      "t": 49809.1312499995,
      "d": 9.541979166664532,
      "v": 45
    },
    {
      "midi": 38,
      "hit": false,
      "t": 49918.86401041616,
      "d": 9.541979166664532,
      "v": 96
    },
    {
      "midi": 70,
      "hit": false,
      "t": 49923.63499999949,
      "d": 9.541979166664532,
      "v": 75
    },
    {
      "midi": 42,
      "hit": false,
      "t": 49923.63499999949,
      "d": 9.541979166664532,
      "v": 125
    },
    {
      "midi": 75,
      "hit": false,
      "t": 49923.634999999966,
      "d": 229.0074999999997,
      "v": 84
    },
    {
      "midi": 48,
      "hit": false,
      "t": 49923.63500000001,
      "d": 229.0074999999997,
      "v": 82
    },
    {
      "midi": 55,
      "hit": false,
      "t": 49923.63500000001,
      "d": 229.0074999999997,
      "v": 82
    },
    {
      "midi": 60,
      "hit": false,
      "t": 49923.63500000001,
      "d": 229.0074999999997,
      "v": 82
    },
    {
      "midi": 70,
      "hit": false,
      "t": 50038.13874999949,
      "d": 9.541979166664532,
      "v": 45
    },
    {
      "midi": 70,
      "hit": false,
      "t": 50152.642499999485,
      "d": 9.541979166664532,
      "v": 55
    },
    {
      "midi": 48,
      "hit": false,
      "t": 50152.64250000001,
      "d": 57.251875000001746,
      "v": 82
    },
    {
      "midi": 70,
      "hit": false,
      "t": 50267.14624999948,
      "d": 9.541979166664532,
      "v": 45
    },
    {
      "midi": 36,
      "hit": false,
      "t": 50381.64999999948,
      "d": 9.541979166664532,
      "v": 108
    },
    {
      "midi": 42,
      "hit": false,
      "t": 50381.64999999948,
      "d": 9.541979166664532,
      "v": 125
    },
    {
      "midi": 70,
      "hit": false,
      "t": 50381.64999999948,
      "d": 9.541979166664532,
      "v": 75
    },
    {
      "midi": 70,
      "hit": false,
      "t": 50381.649999999965,
      "d": 229.0074999999997,
      "v": 84
    },
    {
      "midi": 48,
      "hit": false,
      "t": 50381.65000000001,
      "d": 57.251875000001746,
      "v": 82
    },
    {
      "midi": 70,
      "hit": false,
      "t": 50496.153749999474,
      "d": 9.541979166664532,
      "v": 45
    },
    {
      "midi": 70,
      "hit": false,
      "t": 50610.65749999947,
      "d": 9.541979166664532,
      "v": 55
    },
    {
      "midi": 68,
      "hit": false,
      "t": 50610.657499999965,
      "d": 229.0074999999997,
      "v": 84
    },
    {
      "midi": 48,
      "hit": false,
      "t": 50610.65750000001,
      "d": 229.0074999999997,
      "v": 82
    },
    {
      "midi": 55,
      "hit": false,
      "t": 50610.65750000001,
      "d": 229.0074999999997,
      "v": 82
    },
    {
      "midi": 60,
      "hit": false,
      "t": 50610.65750000001,
      "d": 229.0074999999997,
      "v": 82
    },
    {
      "midi": 70,
      "hit": false,
      "t": 50725.161249999466,
      "d": 9.541979166664532,
      "v": 45
    },
    {
      "midi": 38,
      "hit": false,
      "t": 50834.89401041613,
      "d": 9.541979166664532,
      "v": 96
    },
    {
      "midi": 70,
      "hit": false,
      "t": 50839.66499999946,
      "d": 9.541979166664532,
      "v": 75
    },
    {
      "midi": 42,
      "hit": false,
      "t": 50839.66499999946,
      "d": 9.541979166664532,
      "v": 125
    },
    {
      "midi": 68,
      "hit": false,
      "t": 50839.664999999964,
      "d": 229.0074999999997,
      "v": 84
    },
    {
      "midi": 75,
      "hit": false,
      "t": 50839.66499999999,
      "d": 458.0149999999994,
      "v": 110
    },
    {
      "midi": 48,
      "hit": false,
      "t": 50839.66500000001,
      "d": 57.251875000001746,
      "v": 82
    },
    {
      "midi": 70,
      "hit": false,
      "t": 50954.16874999946,
      "d": 9.541979166664532,
      "v": 45
    },
    {
      "midi": 70,
      "hit": false,
      "t": 51068.672499999455,
      "d": 9.541979166664532,
      "v": 55
    },
    {
      "midi": 67,
      "hit": false,
      "t": 51068.672499999964,
      "d": 229.0074999999997,
      "v": 84
    },
    {
      "midi": 48,
      "hit": false,
      "t": 51068.67250000001,
      "d": 57.251875000001746,
      "v": 82
    },
    {
      "midi": 70,
      "hit": false,
      "t": 51183.17624999945,
      "d": 9.541979166664532,
      "v": 45
    },
    {
      "midi": 36,
      "hit": false,
      "t": 51297.67999999945,
      "d": 9.541979166664532,
      "v": 108
    },
    {
      "midi": 49,
      "hit": false,
      "t": 51297.67999999945,
      "d": 9.541979166664532,
      "v": 100
    },
    {
      "midi": 70,
      "hit": false,
      "t": 51297.67999999945,
      "d": 9.541979166664532,
      "v": 75
    },
    {
      "midi": 68,
      "hit": false,
      "t": 51297.679999999964,
      "d": 916.0299999999988,
      "v": 84
    },
    {
      "midi": 68,
      "hit": false,
      "t": 51297.67999999999,
      "d": 1832.0599999999977,
      "v": 100
    },
    {
      "midi": 65,
      "hit": false,
      "t": 51297.67999999999,
      "d": 1832.0599999999977,
      "v": 100
    },
    {
      "midi": 72,
      "hit": false,
      "t": 51297.67999999999,
      "d": 1832.0599999999977,
      "v": 100
    },
    {
      "midi": 77,
      "hit": false,
      "t": 51297.67999999999,
      "d": 1832.0599999999977,
      "v": 100
    },
    {
      "midi": 41,
      "hit": false,
      "t": 51297.68000000001,
      "d": 57.251875000001746,
      "v": 82
    },
    {
      "midi": 70,
      "hit": false,
      "t": 51412.18374999944,
      "d": 9.541979166664532,
      "v": 45
    },
    {
      "midi": 70,
      "hit": false,
      "t": 51526.68749999944,
      "d": 9.541979166664532,
      "v": 55
    },
    {
      "midi": 41,
      "hit": false,
      "t": 51526.68750000001,
      "d": 57.251875000001746,
      "v": 82
    },
    {
      "midi": 70,
      "hit": false,
      "t": 51641.191249999436,
      "d": 9.541979166664532,
      "v": 45
    },
    {
      "midi": 38,
      "hit": false,
      "t": 51750.9240104161,
      "d": 9.541979166664532,
      "v": 96
    },
    {
      "midi": 70,
      "hit": false,
      "t": 51755.69499999943,
      "d": 9.541979166664532,
      "v": 75
    },
    {
      "midi": 42,
      "hit": false,
      "t": 51755.69499999943,
      "d": 9.541979166664532,
      "v": 125
    },
    {
      "midi": 48,
      "hit": false,
      "t": 51755.69500000001,
      "d": 229.0074999999997,
      "v": 82
    },
    {
      "midi": 53,
      "hit": false,
      "t": 51755.69500000001,
      "d": 229.0074999999997,
      "v": 82
    },
    {
      "midi": 70,
      "hit": false,
      "t": 51870.19874999943,
      "d": 9.541979166664532,
      "v": 45
    },
    {
      "midi": 70,
      "hit": false,
      "t": 51984.702499999425,
      "d": 9.541979166664532,
      "v": 55
    },
    {
      "midi": 41,
      "hit": false,
      "t": 51984.70250000001,
      "d": 57.251875000001746,
      "v": 82
    },
    {
      "midi": 70,
      "hit": false,
      "t": 52099.20624999942,
      "d": 9.541979166664532,
      "v": 45
    },
    {
      "midi": 36,
      "hit": false,
      "t": 52213.70999999942,
      "d": 9.541979166664532,
      "v": 108
    },
    {
      "midi": 42,
      "hit": false,
      "t": 52213.70999999942,
      "d": 9.541979166664532,
      "v": 125
    },
    {
      "midi": 70,
      "hit": false,
      "t": 52213.70999999942,
      "d": 9.541979166664532,
      "v": 75
    },
    {
      "midi": 41,
      "hit": false,
      "t": 52213.71000000001,
      "d": 57.251875000001746,
      "v": 82
    },
    {
      "midi": 70,
      "hit": false,
      "t": 52328.21374999941,
      "d": 9.541979166664532,
      "v": 45
    },
    {
      "midi": 70,
      "hit": false,
      "t": 52442.71749999941,
      "d": 9.541979166664532,
      "v": 55
    },
    {
      "midi": 68,
      "hit": false,
      "t": 52442.71749999996,
      "d": 229.0074999999997,
      "v": 84
    },
    {
      "midi": 48,
      "hit": false,
      "t": 52442.717500000006,
      "d": 229.0074999999997,
      "v": 82
    },
    {
      "midi": 53,
      "hit": false,
      "t": 52442.717500000006,
      "d": 229.0074999999997,
      "v": 82
    },
    {
      "midi": 70,
      "hit": false,
      "t": 52557.221249999406,
      "d": 9.541979166664532,
      "v": 45
    },
    {
      "midi": 38,
      "hit": false,
      "t": 52666.95401041607,
      "d": 9.541979166664532,
      "v": 96
    },
    {
      "midi": 70,
      "hit": false,
      "t": 52671.7249999994,
      "d": 9.541979166664532,
      "v": 75
    },
    {
      "midi": 42,
      "hit": false,
      "t": 52671.7249999994,
      "d": 9.541979166664532,
      "v": 125
    },
    {
      "midi": 70,
      "hit": false,
      "t": 52671.72499999996,
      "d": 229.0074999999997,
      "v": 84
    },
    {
      "midi": 48,
      "hit": false,
      "t": 52671.725000000006,
      "d": 229.0074999999997,
      "v": 82
    },
    {
      "midi": 53,
      "hit": false,
      "t": 52671.725000000006,
      "d": 229.0074999999997,
      "v": 82
    },
    {
      "midi": 70,
      "hit": false,
      "t": 52786.2287499994,
      "d": 9.541979166664532,
      "v": 45
    },
    {
      "midi": 70,
      "hit": false,
      "t": 52900.732499999394,
      "d": 9.541979166664532,
      "v": 55
    },
    {
      "midi": 68,
      "hit": false,
      "t": 52900.73249999996,
      "d": 229.0074999999997,
      "v": 84
    },
    {
      "midi": 41,
      "hit": false,
      "t": 52900.732500000006,
      "d": 57.251875000001746,
      "v": 82
    },
    {
      "midi": 70,
      "hit": false,
      "t": 53015.23624999939,
      "d": 9.541979166664532,
      "v": 45
    },
    {
      "midi": 36,
      "hit": false,
      "t": 53129.73999999939,
      "d": 9.541979166664532,
      "v": 108
    },
    {
      "midi": 42,
      "hit": false,
      "t": 53129.73999999939,
      "d": 9.541979166664532,
      "v": 125
    },
    {
      "midi": 70,
      "hit": false,
      "t": 53129.73999999939,
      "d": 9.541979166664532,
      "v": 75
    },
    {
      "midi": 67,
      "hit": false,
      "t": 53129.73999999996,
      "d": 229.0074999999997,
      "v": 84
    },
    {
      "midi": 72,
      "hit": false,
      "t": 53129.73999999999,
      "d": 916.0299999999988,
      "v": 100
    },
    {
      "midi": 62,
      "hit": false,
      "t": 53129.73999999999,
      "d": 916.0299999999988,
      "v": 100
    },
    {
      "midi": 67,
      "hit": false,
      "t": 53129.73999999999,
      "d": 916.0299999999988,
      "v": 100
    },
    {
      "midi": 43,
      "hit": false,
      "t": 53129.740000000005,
      "d": 57.251875000001746,
      "v": 82
    },
    {
      "midi": 70,
      "hit": false,
      "t": 53244.24374999938,
      "d": 9.541979166664532,
      "v": 45
    },
    {
      "midi": 70,
      "hit": false,
      "t": 53358.74749999938,
      "d": 9.541979166664532,
      "v": 55
    },
    {
      "midi": 67,
      "hit": false,
      "t": 53358.74749999996,
      "d": 229.0074999999997,
      "v": 84
    },
    {
      "midi": 43,
      "hit": false,
      "t": 53358.747500000005,
      "d": 57.251875000001746,
      "v": 82
    },
    {
      "midi": 70,
      "hit": false,
      "t": 53473.251249999375,
      "d": 9.541979166664532,
      "v": 45
    },
    {
      "midi": 38,
      "hit": false,
      "t": 53582.98401041604,
      "d": 9.541979166664532,
      "v": 96
    },
    {
      "midi": 70,
      "hit": false,
      "t": 53587.75499999937,
      "d": 9.541979166664532,
      "v": 75
    },
    {
      "midi": 42,
      "hit": false,
      "t": 53587.75499999937,
      "d": 9.541979166664532,
      "v": 125
    },
    {
      "midi": 43,
      "hit": false,
      "t": 53587.755000000005,
      "d": 229.0074999999997,
      "v": 82
    },
    {
      "midi": 50,
      "hit": false,
      "t": 53587.755000000005,
      "d": 229.0074999999997,
      "v": 82
    },
    {
      "midi": 55,
      "hit": false,
      "t": 53587.755000000005,
      "d": 229.0074999999997,
      "v": 82
    },
    {
      "midi": 70,
      "hit": false,
      "t": 53702.25874999937,
      "d": 9.541979166664532,
      "v": 45
    },
    {
      "midi": 70,
      "hit": false,
      "t": 53816.762499999364,
      "d": 9.541979166664532,
      "v": 55
    },
    {
      "midi": 67,
      "hit": false,
      "t": 53816.76249999996,
      "d": 229.0074999999997,
      "v": 84
    },
    {
      "midi": 43,
      "hit": false,
      "t": 53816.762500000004,
      "d": 57.251875000001746,
      "v": 82
    },
    {
      "midi": 70,
      "hit": false,
      "t": 53931.26624999936,
      "d": 9.541979166664532,
      "v": 45
    },
    {
      "midi": 36,
      "hit": false,
      "t": 54045.76999999936,
      "d": 9.541979166664532,
      "v": 108
    },
    {
      "midi": 42,
      "hit": false,
      "t": 54045.76999999936,
      "d": 9.541979166664532,
      "v": 125
    },
    {
      "midi": 70,
      "hit": false,
      "t": 54045.76999999936,
      "d": 9.541979166664532,
      "v": 75
    },
    {
      "midi": 67,
      "hit": false,
      "t": 54045.76999999996,
      "d": 229.0074999999997,
      "v": 84
    },
    {
      "midi": 62,
      "hit": false,
      "t": 54045.76999999999,
      "d": 916.0299999999988,
      "v": 100
    },
    {
      "midi": 67,
      "hit": false,
      "t": 54045.76999999999,
      "d": 916.0299999999988,
      "v": 100
    },
    {
      "midi": 71,
      "hit": false,
      "t": 54045.76999999999,
      "d": 916.0299999999988,
      "v": 100
    },
    {
      "midi": 43,
      "hit": false,
      "t": 54045.770000000004,
      "d": 57.251875000001746,
      "v": 82
    },
    {
      "midi": 70,
      "hit": false,
      "t": 54160.27374999935,
      "d": 9.541979166664532,
      "v": 45
    },
    {
      "midi": 70,
      "hit": false,
      "t": 54274.77749999935,
      "d": 9.541979166664532,
      "v": 55
    },
    {
      "midi": 79,
      "hit": false,
      "t": 54274.77749999996,
      "d": 458.0149999999994,
      "v": 84
    },
    {
      "midi": 43,
      "hit": false,
      "t": 54274.777500000004,
      "d": 229.0074999999997,
      "v": 82
    },
    {
      "midi": 50,
      "hit": false,
      "t": 54274.777500000004,
      "d": 229.0074999999997,
      "v": 82
    },
    {
      "midi": 55,
      "hit": false,
      "t": 54274.777500000004,
      "d": 229.0074999999997,
      "v": 82
    },
    {
      "midi": 70,
      "hit": false,
      "t": 54389.281249999345,
      "d": 9.541979166664532,
      "v": 45
    },
    {
      "midi": 38,
      "hit": false,
      "t": 54499.01401041601,
      "d": 9.541979166664532,
      "v": 96
    },
    {
      "midi": 70,
      "hit": false,
      "t": 54503.78499999934,
      "d": 9.541979166664532,
      "v": 75
    },
    {
      "midi": 42,
      "hit": false,
      "t": 54503.78499999934,
      "d": 9.541979166664532,
      "v": 125
    },
    {
      "midi": 43,
      "hit": false,
      "t": 54503.785,
      "d": 57.251875000001746,
      "v": 82
    },
    {
      "midi": 70,
      "hit": false,
      "t": 54618.28874999934,
      "d": 9.541979166664532,
      "v": 45
    },
    {
      "midi": 70,
      "hit": false,
      "t": 54732.792499999334,
      "d": 9.541979166664532,
      "v": 55
    },
    {
      "midi": 77,
      "hit": false,
      "t": 54732.79249999996,
      "d": 229.0074999999997,
      "v": 84
    },
    {
      "midi": 43,
      "hit": false,
      "t": 54732.7925,
      "d": 57.251875000001746,
      "v": 82
    },
    {
      "midi": 70,
      "hit": false,
      "t": 54847.29624999933,
      "d": 9.541979166664532,
      "v": 45
    },
    {
      "midi": 36,
      "hit": false,
      "t": 54961.799999999326,
      "d": 9.541979166664532,
      "v": 108
    },
    {
      "midi": 42,
      "hit": false,
      "t": 54961.799999999326,
      "d": 9.541979166664532,
      "v": 125
    },
    {
      "midi": 70,
      "hit": false,
      "t": 54961.799999999326,
      "d": 9.541979166664532,
      "v": 75
    },
    {
      "midi": 77,
      "hit": false,
      "t": 54961.79999999996,
      "d": 916.0299999999988,
      "v": 84
    },
    {
      "midi": 60,
      "hit": false,
      "t": 54961.79999999999,
      "d": 1297.7091666666674,
      "v": 100
    },
    {
      "midi": 63,
      "hit": false,
      "t": 54961.79999999999,
      "d": 1297.7091666666674,
      "v": 100
    },
    {
      "midi": 70,
      "hit": false,
      "t": 54961.79999999999,
      "d": 1297.7091666666674,
      "v": 100
    },
    {
      "midi": 67,
      "hit": false,
      "t": 54961.79999999999,
      "d": 1297.7091666666674,
      "v": 100
    },
    {
      "midi": 48,
      "hit": false,
      "t": 54961.8,
      "d": 57.251875000001746,
      "v": 82
    },
    {
      "midi": 70,
      "hit": false,
      "t": 55076.30374999932,
      "d": 9.541979166664532,
      "v": 45
    },
    {
      "midi": 70,
      "hit": false,
      "t": 55190.80749999932,
      "d": 9.541979166664532,
      "v": 55
    },
    {
      "midi": 48,
      "hit": false,
      "t": 55190.8075,
      "d": 57.251875000001746,
      "v": 82
    },
    {
      "midi": 70,
      "hit": false,
      "t": 55305.311249999315,
      "d": 9.541979166664532,
      "v": 45
    },
    {
      "midi": 38,
      "hit": false,
      "t": 55415.04401041598,
      "d": 9.541979166664532,
      "v": 96
    },
    {
      "midi": 70,
      "hit": false,
      "t": 55419.81499999931,
      "d": 9.541979166664532,
      "v": 75
    },
    {
      "midi": 42,
      "hit": false,
      "t": 55419.81499999931,
      "d": 9.541979166664532,
      "v": 125
    },
    {
      "midi": 55,
      "hit": false,
      "t": 55419.815,
      "d": 229.0074999999997,
      "v": 87
    },
    {
      "midi": 60,
      "hit": false,
      "t": 55419.815,
      "d": 229.0074999999997,
      "v": 87
    },
    {
      "midi": 70,
      "hit": false,
      "t": 55534.31874999931,
      "d": 9.541979166664532,
      "v": 45
    },
    {
      "midi": 70,
      "hit": false,
      "t": 55648.8224999993,
      "d": 9.541979166664532,
      "v": 55
    },
    {
      "midi": 48,
      "hit": false,
      "t": 55648.8225,
      "d": 57.251875000001746,
      "v": 82
    },
    {
      "midi": 70,
      "hit": false,
      "t": 55763.3262499993,
      "d": 9.541979166664532,
      "v": 45
    },
    {
      "midi": 36,
      "hit": false,
      "t": 55877.829999999296,
      "d": 9.541979166664532,
      "v": 108
    },
    {
      "midi": 42,
      "hit": false,
      "t": 55877.829999999296,
      "d": 9.541979166664532,
      "v": 125
    },
    {
      "midi": 70,
      "hit": false,
      "t": 55877.829999999296,
      "d": 9.541979166664532,
      "v": 75
    },
    {
      "midi": 77,
      "hit": false,
      "t": 55877.82999999996,
      "d": 229.0074999999997,
      "v": 84
    },
    {
      "midi": 48,
      "hit": false,
      "t": 55877.83,
      "d": 57.251875000001746,
      "v": 82
    },
    {
      "midi": 70,
      "hit": false,
      "t": 55992.33374999929,
      "d": 9.541979166664532,
      "v": 45
    },
    {
      "midi": 70,
      "hit": false,
      "t": 56106.83749999929,
      "d": 9.541979166664532,
      "v": 55
    },
    {
      "midi": 75,
      "hit": false,
      "t": 56106.83749999996,
      "d": 229.0074999999997,
      "v": 84
    },
    {
      "midi": 55,
      "hit": false,
      "t": 56106.8375,
      "d": 229.0074999999997,
      "v": 87
    },
    {
      "midi": 60,
      "hit": false,
      "t": 56106.8375,
      "d": 229.0074999999997,
      "v": 87
    },
    {
      "midi": 70,
      "hit": false,
      "t": 56221.341249999285,
      "d": 9.541979166664532,
      "v": 45
    },
    {
      "midi": 38,
      "hit": false,
      "t": 56331.07401041595,
      "d": 9.541979166664532,
      "v": 96
    },
    {
      "midi": 70,
      "hit": false,
      "t": 56335.84499999928,
      "d": 9.541979166664532,
      "v": 75
    },
    {
      "midi": 42,
      "hit": false,
      "t": 56335.84499999928,
      "d": 9.541979166664532,
      "v": 125
    },
    {
      "midi": 74,
      "hit": false,
      "t": 56335.84499999996,
      "d": 229.0074999999997,
      "v": 84
    },
    {
      "midi": 60,
      "hit": false,
      "t": 56335.84499999999,
      "d": 229.0074999999997,
      "v": 110
    },
    {
      "midi": 48,
      "hit": false,
      "t": 56335.845,
      "d": 57.251875000001746,
      "v": 82
    },
    {
      "midi": 70,
      "hit": false,
      "t": 56450.34874999928,
      "d": 9.541979166664532,
      "v": 45
    },
    {
      "midi": 70,
      "hit": false,
      "t": 56564.85249999927,
      "d": 9.541979166664532,
      "v": 55
    },
    {
      "midi": 75,
      "hit": false,
      "t": 56564.85249999996,
      "d": 687.0224999999991,
      "v": 84
    },
    {
      "midi": 59,
      "hit": false,
      "t": 56564.852499999986,
      "d": 229.0074999999997,
      "v": 110
    },
    {
      "midi": 48,
      "hit": false,
      "t": 56564.8525,
      "d": 57.251875000001746,
      "v": 82
    },
    {
      "midi": 70,
      "hit": false,
      "t": 56679.35624999927,
      "d": 9.541979166664532,
      "v": 45
    },
    {
      "midi": 36,
      "hit": false,
      "t": 56793.859999999266,
      "d": 9.541979166664532,
      "v": 108
    },
    {
      "midi": 42,
      "hit": false,
      "t": 56793.859999999266,
      "d": 9.541979166664532,
      "v": 125
    },
    {
      "midi": 70,
      "hit": false,
      "t": 56793.859999999266,
      "d": 9.541979166664532,
      "v": 75
    },
    {
      "midi": 70,
      "hit": false,
      "t": 56793.859999999986,
      "d": 877.8620833333334,
      "v": 100
    },
    {
      "midi": 67,
      "hit": false,
      "t": 56793.859999999986,
      "d": 877.8620833333334,
      "v": 100
    },
    {
      "midi": 72,
      "hit": false,
      "t": 56793.859999999986,
      "d": 877.8620833333334,
      "v": 100
    },
    {
      "midi": 63,
      "hit": false,
      "t": 56793.859999999986,
      "d": 877.8620833333334,
      "v": 100
    },
    {
      "midi": 58,
      "hit": false,
      "t": 56793.859999999986,
      "d": 896.9460416666698,
      "v": 110
    },
    {
      "midi": 46,
      "hit": false,
      "t": 56793.86,
      "d": 57.251875000001746,
      "v": 82
    },
    {
      "midi": 70,
      "hit": false,
      "t": 56908.36374999926,
      "d": 9.541979166664532,
      "v": 45
    },
    {
      "midi": 70,
      "hit": false,
      "t": 57022.86749999926,
      "d": 9.541979166664532,
      "v": 55
    },
    {
      "midi": 46,
      "hit": false,
      "t": 57022.8675,
      "d": 57.251875000001746,
      "v": 82
    },
    {
      "midi": 70,
      "hit": false,
      "t": 57137.371249999254,
      "d": 9.541979166664532,
      "v": 45
    },
    {
      "midi": 38,
      "hit": false,
      "t": 57247.10401041592,
      "d": 9.541979166664532,
      "v": 96
    },
    {
      "midi": 70,
      "hit": false,
      "t": 57251.87499999925,
      "d": 9.541979166664532,
      "v": 75
    },
    {
      "midi": 42,
      "hit": false,
      "t": 57251.87499999925,
      "d": 9.541979166664532,
      "v": 125
    },
    {
      "midi": 53,
      "hit": false,
      "t": 57251.875,
      "d": 229.0074999999997,
      "v": 82
    },
    {
      "midi": 58,
      "hit": false,
      "t": 57251.875,
      "d": 229.0074999999997,
      "v": 82
    },
    {
      "midi": 70,
      "hit": false,
      "t": 57366.37874999925,
      "d": 9.541979166664532,
      "v": 45
    },
    {
      "midi": 70,
      "hit": false,
      "t": 57480.88249999924,
      "d": 9.541979166664532,
      "v": 55
    },
    {
      "midi": 72,
      "hit": false,
      "t": 57480.882499999956,
      "d": 229.0074999999997,
      "v": 84
    },
    {
      "midi": 46,
      "hit": false,
      "t": 57480.8825,
      "d": 57.251875000001746,
      "v": 82
    },
    {
      "midi": 70,
      "hit": false,
      "t": 57595.38624999924,
      "d": 9.541979166664532,
      "v": 45
    },
    {
      "midi": 36,
      "hit": false,
      "t": 57709.889999999235,
      "d": 9.541979166664532,
      "v": 108
    },
    {
      "midi": 42,
      "hit": false,
      "t": 57709.889999999235,
      "d": 9.541979166664532,
      "v": 125
    },
    {
      "midi": 70,
      "hit": false,
      "t": 57709.889999999235,
      "d": 9.541979166664532,
      "v": 75
    },
    {
      "midi": 72,
      "hit": false,
      "t": 57709.889999999956,
      "d": 458.0149999999994,
      "v": 84
    },
    {
      "midi": 60,
      "hit": false,
      "t": 57709.88999999999,
      "d": 458.0149999999994,
      "v": 110
    },
    {
      "midi": 72,
      "hit": false,
      "t": 57709.88999999999,
      "d": 458.0149999999994,
      "v": 110
    },
    {
      "midi": 46,
      "hit": false,
      "t": 57709.89,
      "d": 57.251875000001746,
      "v": 82
    },
    {
      "midi": 70,
      "hit": false,
      "t": 57824.39374999923,
      "d": 9.541979166664532,
      "v": 45
    },
    {
      "midi": 38,
      "hit": false,
      "t": 57934.126510415896,
      "d": 9.541979166664532,
      "v": 96
    },
    {
      "midi": 70,
      "hit": false,
      "t": 57938.89749999923,
      "d": 9.541979166664532,
      "v": 55
    },
    {
      "midi": 53,
      "hit": false,
      "t": 57938.8975,
      "d": 229.0074999999997,
      "v": 82
    },
    {
      "midi": 58,
      "hit": false,
      "t": 57938.8975,
      "d": 229.0074999999997,
      "v": 82
    },
    {
      "midi": 70,
      "hit": false,
      "t": 58053.401249999224,
      "d": 9.541979166664532,
      "v": 45
    },
    {
      "midi": 38,
      "hit": false,
      "t": 58163.13401041589,
      "d": 9.541979166664532,
      "v": 96
    },
    {
      "midi": 70,
      "hit": false,
      "t": 58167.90499999922,
      "d": 9.541979166664532,
      "v": 75
    },
    {
      "midi": 42,
      "hit": false,
      "t": 58167.90499999922,
      "d": 9.541979166664532,
      "v": 125
    },
    {
      "midi": 74,
      "hit": false,
      "t": 58167.904999999955,
      "d": 458.0149999999994,
      "v": 84
    },
    {
      "midi": 62,
      "hit": false,
      "t": 58167.90499999999,
      "d": 458.0149999999994,
      "v": 110
    },
    {
      "midi": 74,
      "hit": false,
      "t": 58167.90499999999,
      "d": 458.0149999999994,
      "v": 110
    },
    {
      "midi": 53,
      "hit": false,
      "t": 58167.905,
      "d": 229.0074999999997,
      "v": 82
    },
    {
      "midi": 58,
      "hit": false,
      "t": 58167.905,
      "d": 229.0074999999997,
      "v": 82
    },
    {
      "midi": 70,
      "hit": false,
      "t": 58282.40874999922,
      "d": 9.541979166664532,
      "v": 45
    },
    {
      "midi": 45,
      "hit": false,
      "t": 58396.91249999921,
      "d": 9.541979166664532,
      "v": 120
    },
    {
      "midi": 70,
      "hit": false,
      "t": 58396.91249999921,
      "d": 9.541979166664532,
      "v": 55
    },
    {
      "midi": 46,
      "hit": false,
      "t": 58396.9125,
      "d": 28.625937500000873,
      "v": 95
    },
    {
      "midi": 53,
      "hit": false,
      "t": 58396.9125,
      "d": 28.625937500000873,
      "v": 95
    },
    {
      "midi": 58,
      "hit": false,
      "t": 58396.9125,
      "d": 28.625937500000873,
      "v": 95
    },
    {
      "midi": 70,
      "hit": false,
      "t": 58511.41624999921,
      "d": 9.541979166664532,
      "v": 45
    },
    {
      "midi": 46,
      "hit": false,
      "t": 58511.41625,
      "d": 28.625937500000873,
      "v": 95
    },
    {
      "midi": 53,
      "hit": false,
      "t": 58511.41625,
      "d": 28.625937500000873,
      "v": 95
    },
    {
      "midi": 58,
      "hit": false,
      "t": 58511.41625,
      "d": 28.625937500000873,
      "v": 95
    },
    {
      "midi": 36,
      "hit": false,
      "t": 58625.919999999205,
      "d": 9.541979166664532,
      "v": 108
    },
    {
      "midi": 49,
      "hit": false,
      "t": 58625.919999999205,
      "d": 9.541979166664532,
      "v": 100
    },
    {
      "midi": 75,
      "hit": false,
      "t": 58625.919999999955,
      "d": 229.0074999999997,
      "v": 84
    },
    {
      "midi": 72,
      "hit": false,
      "t": 58625.91999999999,
      "d": 1832.0599999999977,
      "v": 100
    },
    {
      "midi": 67,
      "hit": false,
      "t": 58625.91999999999,
      "d": 1832.0599999999977,
      "v": 100
    },
    {
      "midi": 75,
      "hit": false,
      "t": 58625.91999999999,
      "d": 1832.0599999999977,
      "v": 100
    },
    {
      "midi": 63,
      "hit": false,
      "t": 58625.91999999999,
      "d": 1832.0599999999977,
      "v": 100
    },
    {
      "midi": 44,
      "hit": false,
      "t": 58625.920000000006,
      "d": 229.0074999999997,
      "v": 82
    },
    {
      "midi": 51,
      "hit": false,
      "t": 58625.920000000006,
      "d": 229.0074999999997,
      "v": 82
    },
    {
      "midi": 56,
      "hit": false,
      "t": 58625.920000000006,
      "d": 229.0074999999997,
      "v": 82
    },
    {
      "midi": 36,
      "hit": false,
      "t": 58854.927499999205,
      "d": 9.541979166664532,
      "v": 108
    },
    {
      "midi": 75,
      "hit": false,
      "t": 58854.927499999954,
      "d": 229.0074999999997,
      "v": 84
    },
    {
      "midi": 44,
      "hit": false,
      "t": 58854.927500000005,
      "d": 229.0074999999997,
      "v": 82
    },
    {
      "midi": 51,
      "hit": false,
      "t": 58854.927500000005,
      "d": 229.0074999999997,
      "v": 82
    },
    {
      "midi": 56,
      "hit": false,
      "t": 58854.927500000005,
      "d": 229.0074999999997,
      "v": 82
    },
    {
      "midi": 38,
      "hit": false,
      "t": 59079.16401041587,
      "d": 9.541979166664532,
      "v": 96
    },
    {
      "midi": 42,
      "hit": false,
      "t": 59083.934999999205,
      "d": 9.541979166664532,
      "v": 125
    },
    {
      "midi": 47,
      "hit": false,
      "t": 59083.934999999205,
      "d": 9.541979166664532,
      "v": 127
    },
    {
      "midi": 84,
      "hit": false,
      "t": 59083.935000000005,
      "d": 114.50375000000349,
      "v": 70
    },
    {
      "midi": 96,
      "hit": false,
      "t": 59083.935000000005,
      "d": 114.50375000000349,
      "v": 70
    },
    {
      "midi": 96,
      "hit": false,
      "t": 59198.43875000001,
      "d": 114.50375000000349,
      "v": 70
    },
    {
      "midi": 84,
      "hit": false,
      "t": 59198.43875000001,
      "d": 114.50375000000349,
      "v": 70
    },
    {
      "midi": 74,
      "hit": false,
      "t": 59312.942499999954,
      "d": 229.0074999999997,
      "v": 84
    },
    {
      "midi": 44,
      "hit": false,
      "t": 59312.942500000005,
      "d": 28.625937500000873,
      "v": 95
    },
    {
      "midi": 51,
      "hit": false,
      "t": 59312.942500000005,
      "d": 28.625937500000873,
      "v": 95
    },
    {
      "midi": 56,
      "hit": false,
      "t": 59312.942500000005,
      "d": 28.625937500000873,
      "v": 95
    },
    {
      "midi": 84,
      "hit": false,
      "t": 59312.94250000001,
      "d": 114.50375000000349,
      "v": 70
    },
    {
      "midi": 96,
      "hit": false,
      "t": 59312.94250000001,
      "d": 114.50375000000349,
      "v": 70
    },
    {
      "midi": 44,
      "hit": false,
      "t": 59427.44625000001,
      "d": 28.625937500000873,
      "v": 95
    },
    {
      "midi": 51,
      "hit": false,
      "t": 59427.44625000001,
      "d": 28.625937500000873,
      "v": 95
    },
    {
      "midi": 56,
      "hit": false,
      "t": 59427.44625000001,
      "d": 28.625937500000873,
      "v": 95
    },
    {
      "midi": 36,
      "hit": false,
      "t": 59541.949999999204,
      "d": 9.541979166664532,
      "v": 108
    },
    {
      "midi": 42,
      "hit": false,
      "t": 59541.949999999204,
      "d": 9.541979166664532,
      "v": 125
    },
    {
      "midi": 75,
      "hit": false,
      "t": 59541.94999999995,
      "d": 687.0224999999991,
      "v": 84
    },
    {
      "midi": 44,
      "hit": false,
      "t": 59541.95000000001,
      "d": 229.0074999999997,
      "v": 82
    },
    {
      "midi": 51,
      "hit": false,
      "t": 59541.95000000001,
      "d": 229.0074999999997,
      "v": 82
    },
    {
      "midi": 56,
      "hit": false,
      "t": 59541.95000000001,
      "d": 229.0074999999997,
      "v": 82
    },
    {
      "midi": 36,
      "hit": false,
      "t": 59770.957499999204,
      "d": 9.541979166664532,
      "v": 108
    },
    {
      "midi": 44,
      "hit": false,
      "t": 59770.95750000001,
      "d": 229.0074999999997,
      "v": 82
    },
    {
      "midi": 51,
      "hit": false,
      "t": 59770.95750000001,
      "d": 229.0074999999997,
      "v": 82
    },
    {
      "midi": 56,
      "hit": false,
      "t": 59770.95750000001,
      "d": 229.0074999999997,
      "v": 82
    },
    {
      "midi": 38,
      "hit": false,
      "t": 59995.19401041587,
      "d": 9.541979166664532,
      "v": 96
    },
    {
      "midi": 42,
      "hit": false,
      "t": 59999.9649999992,
      "d": 9.541979166664532,
      "v": 125
    },
    {
      "midi": 45,
      "hit": false,
      "t": 59999.9649999992,
      "d": 9.541979166664532,
      "v": 127
    },
    {
      "midi": 96,
      "hit": false,
      "t": 59999.96500000002,
      "d": 114.50375000000349,
      "v": 70
    },
    {
      "midi": 84,
      "hit": false,
      "t": 59999.96500000002,
      "d": 114.50375000000349,
      "v": 70
    },
    {
      "midi": 96,
      "hit": false,
      "t": 60114.46875000002,
      "d": 114.50375000000349,
      "v": 70
    },
    {
      "midi": 84,
      "hit": false,
      "t": 60114.46875000002,
      "d": 114.50375000000349,
      "v": 70
    },
    {
      "midi": 74,
      "hit": false,
      "t": 60228.97249999995,
      "d": 229.0074999999997,
      "v": 84
    },
    {
      "midi": 44,
      "hit": false,
      "t": 60228.97250000001,
      "d": 28.625937500000873,
      "v": 95
    },
    {
      "midi": 51,
      "hit": false,
      "t": 60228.97250000001,
      "d": 28.625937500000873,
      "v": 95
    },
    {
      "midi": 56,
      "hit": false,
      "t": 60228.97250000001,
      "d": 28.625937500000873,
      "v": 95
    },
    {
      "midi": 96,
      "hit": false,
      "t": 60228.972500000025,
      "d": 114.50375000000349,
      "v": 70
    },
    {
      "midi": 84,
      "hit": false,
      "t": 60228.972500000025,
      "d": 114.50375000000349,
      "v": 70
    },
    {
      "midi": 44,
      "hit": false,
      "t": 60343.476250000014,
      "d": 28.625937500000873,
      "v": 95
    },
    {
      "midi": 51,
      "hit": false,
      "t": 60343.476250000014,
      "d": 28.625937500000873,
      "v": 95
    },
    {
      "midi": 56,
      "hit": false,
      "t": 60343.476250000014,
      "d": 28.625937500000873,
      "v": 95
    },
    {
      "midi": 36,
      "hit": false,
      "t": 60457.9799999992,
      "d": 9.541979166664532,
      "v": 108
    },
    {
      "midi": 42,
      "hit": false,
      "t": 60457.9799999992,
      "d": 9.541979166664532,
      "v": 125
    },
    {
      "midi": 75,
      "hit": false,
      "t": 60457.97999999995,
      "d": 687.0224999999991,
      "v": 84
    },
    {
      "midi": 67,
      "hit": false,
      "t": 60457.97999999999,
      "d": 687.0224999999991,
      "v": 100
    },
    {
      "midi": 72,
      "hit": false,
      "t": 60457.97999999999,
      "d": 687.0224999999991,
      "v": 100
    },
    {
      "midi": 63,
      "hit": false,
      "t": 60457.97999999999,
      "d": 687.0224999999991,
      "v": 100
    },
    {
      "midi": 75,
      "hit": false,
      "t": 60457.97999999999,
      "d": 687.0224999999991,
      "v": 100
    },
    {
      "midi": 44,
      "hit": false,
      "t": 60457.98000000002,
      "d": 229.0074999999997,
      "v": 82
    },
    {
      "midi": 51,
      "hit": false,
      "t": 60457.98000000002,
      "d": 229.0074999999997,
      "v": 82
    },
    {
      "midi": 56,
      "hit": false,
      "t": 60457.98000000002,
      "d": 229.0074999999997,
      "v": 82
    },
    {
      "midi": 36,
      "hit": false,
      "t": 60686.9874999992,
      "d": 9.541979166664532,
      "v": 108
    },
    {
      "midi": 44,
      "hit": false,
      "t": 60686.98750000002,
      "d": 229.0074999999997,
      "v": 82
    },
    {
      "midi": 51,
      "hit": false,
      "t": 60686.98750000002,
      "d": 229.0074999999997,
      "v": 82
    },
    {
      "midi": 56,
      "hit": false,
      "t": 60686.98750000002,
      "d": 229.0074999999997,
      "v": 82
    },
    {
      "midi": 38,
      "hit": false,
      "t": 60911.22401041587,
      "d": 9.541979166664532,
      "v": 96
    },
    {
      "midi": 42,
      "hit": false,
      "t": 60915.9949999992,
      "d": 9.541979166664532,
      "v": 125
    },
    {
      "midi": 43,
      "hit": false,
      "t": 60915.9949999992,
      "d": 9.541979166664532,
      "v": 127
    },
    {
      "midi": 72,
      "hit": false,
      "t": 61145.00249999995,
      "d": 229.0074999999997,
      "v": 84
    },
    {
      "midi": 68,
      "hit": false,
      "t": 61145.00249999999,
      "d": 687.0224999999991,
      "v": 100
    },
    {
      "midi": 63,
      "hit": false,
      "t": 61145.00249999999,
      "d": 687.0224999999991,
      "v": 100
    },
    {
      "midi": 60,
      "hit": false,
      "t": 61145.00249999999,
      "d": 687.0224999999991,
      "v": 100
    },
    {
      "midi": 72,
      "hit": false,
      "t": 61145.00249999999,
      "d": 687.0224999999991,
      "v": 100
    },
    {
      "midi": 44,
      "hit": false,
      "t": 61145.00250000002,
      "d": 28.625937500000873,
      "v": 95
    },
    {
      "midi": 51,
      "hit": false,
      "t": 61145.00250000002,
      "d": 28.625937500000873,
      "v": 95
    },
    {
      "midi": 56,
      "hit": false,
      "t": 61145.00250000002,
      "d": 28.625937500000873,
      "v": 95
    },
    {
      "midi": 44,
      "hit": false,
      "t": 61259.50625000002,
      "d": 28.625937500000873,
      "v": 95
    },
    {
      "midi": 51,
      "hit": false,
      "t": 61259.50625000002,
      "d": 28.625937500000873,
      "v": 95
    },
    {
      "midi": 56,
      "hit": false,
      "t": 61259.50625000002,
      "d": 28.625937500000873,
      "v": 95
    },
    {
      "midi": 36,
      "hit": false,
      "t": 61374.0099999992,
      "d": 9.541979166664532,
      "v": 108
    },
    {
      "midi": 42,
      "hit": false,
      "t": 61374.0099999992,
      "d": 9.541979166664532,
      "v": 125
    },
    {
      "midi": 77,
      "hit": false,
      "t": 61374.00999999995,
      "d": 229.0074999999997,
      "v": 84
    },
    {
      "midi": 44,
      "hit": false,
      "t": 61374.010000000024,
      "d": 229.0074999999997,
      "v": 82
    },
    {
      "midi": 51,
      "hit": false,
      "t": 61374.010000000024,
      "d": 229.0074999999997,
      "v": 82
    },
    {
      "midi": 56,
      "hit": false,
      "t": 61374.010000000024,
      "d": 229.0074999999997,
      "v": 82
    },
    {
      "midi": 36,
      "hit": false,
      "t": 61603.0174999992,
      "d": 9.541979166664532,
      "v": 108
    },
    {
      "midi": 75,
      "hit": false,
      "t": 61603.01749999995,
      "d": 229.0074999999997,
      "v": 84
    },
    {
      "midi": 44,
      "hit": false,
      "t": 61603.01750000002,
      "d": 229.0074999999997,
      "v": 82
    },
    {
      "midi": 51,
      "hit": false,
      "t": 61603.01750000002,
      "d": 229.0074999999997,
      "v": 82
    },
    {
      "midi": 56,
      "hit": false,
      "t": 61603.01750000002,
      "d": 229.0074999999997,
      "v": 82
    },
    {
      "midi": 38,
      "hit": false,
      "t": 61827.25401041587,
      "d": 9.541979166664532,
      "v": 96
    },
    {
      "midi": 42,
      "hit": false,
      "t": 61832.0249999992,
      "d": 9.541979166664532,
      "v": 125
    },
    {
      "midi": 74,
      "hit": false,
      "t": 61832.02499999995,
      "d": 229.0074999999997,
      "v": 84
    },
    {
      "midi": 63,
      "hit": false,
      "t": 61832.02499999999,
      "d": 458.0149999999994,
      "v": 100
    },
    {
      "midi": 60,
      "hit": false,
      "t": 61832.02499999999,
      "d": 458.0149999999994,
      "v": 100
    },
    {
      "midi": 56,
      "hit": false,
      "t": 61832.02499999999,
      "d": 458.0149999999994,
      "v": 100
    },
    {
      "midi": 68,
      "hit": false,
      "t": 61832.02499999999,
      "d": 458.0149999999994,
      "v": 100
    },
    {
      "midi": 72,
      "hit": false,
      "t": 62061.03249999995,
      "d": 229.0074999999997,
      "v": 84
    },
    {
      "midi": 44,
      "hit": false,
      "t": 62061.03250000002,
      "d": 28.625937500000873,
      "v": 95
    },
    {
      "midi": 51,
      "hit": false,
      "t": 62061.03250000002,
      "d": 28.625937500000873,
      "v": 95
    },
    {
      "midi": 56,
      "hit": false,
      "t": 62061.03250000002,
      "d": 28.625937500000873,
      "v": 95
    },
    {
      "midi": 44,
      "hit": false,
      "t": 62175.53625000003,
      "d": 28.625937500000873,
      "v": 95
    },
    {
      "midi": 51,
      "hit": false,
      "t": 62175.53625000003,
      "d": 28.625937500000873,
      "v": 95
    },
    {
      "midi": 56,
      "hit": false,
      "t": 62175.53625000003,
      "d": 28.625937500000873,
      "v": 95
    },
    {
      "midi": 36,
      "hit": false,
      "t": 62290.0399999992,
      "d": 9.541979166664532,
      "v": 108
    },
    {
      "midi": 49,
      "hit": false,
      "t": 62290.0399999992,
      "d": 9.541979166664532,
      "v": 100
    },
    {
      "midi": 72,
      "hit": false,
      "t": 62290.03999999995,
      "d": 229.0074999999997,
      "v": 84
    },
    {
      "midi": 70,
      "hit": false,
      "t": 62290.039999999986,
      "d": 229.0074999999997,
      "v": 100
    },
    {
      "midi": 58,
      "hit": false,
      "t": 62290.039999999986,
      "d": 229.0074999999997,
      "v": 100
    },
    {
      "midi": 62,
      "hit": false,
      "t": 62290.039999999986,
      "d": 229.0074999999997,
      "v": 100
    },
    {
      "midi": 65,
      "hit": false,
      "t": 62290.039999999986,
      "d": 229.0074999999997,
      "v": 100
    },
    {
      "midi": 43,
      "hit": false,
      "t": 62290.04000000003,
      "d": 229.0074999999997,
      "v": 82
    },
    {
      "midi": 50,
      "hit": false,
      "t": 62290.04000000003,
      "d": 229.0074999999997,
      "v": 82
    },
    {
      "midi": 55,
      "hit": false,
      "t": 62290.04000000003,
      "d": 229.0074999999997,
      "v": 82
    },
    {
      "midi": 36,
      "hit": false,
      "t": 62519.0474999992,
      "d": 9.541979166664532,
      "v": 108
    },
    {
      "midi": 70,
      "hit": false,
      "t": 62519.04749999995,
      "d": 229.0074999999997,
      "v": 84
    },
    {
      "midi": 62,
      "hit": false,
      "t": 62519.047499999986,
      "d": 1603.052499999998,
      "v": 100
    },
    {
      "midi": 65,
      "hit": false,
      "t": 62519.047499999986,
      "d": 1603.052499999998,
      "v": 100
    },
    {
      "midi": 58,
      "hit": false,
      "t": 62519.047499999986,
      "d": 1603.052499999998,
      "v": 100
    },
    {
      "midi": 70,
      "hit": false,
      "t": 62519.047499999986,
      "d": 1603.052499999998,
      "v": 100
    },
    {
      "midi": 43,
      "hit": false,
      "t": 62519.04750000003,
      "d": 229.0074999999997,
      "v": 82
    },
    {
      "midi": 50,
      "hit": false,
      "t": 62519.04750000003,
      "d": 229.0074999999997,
      "v": 82
    },
    {
      "midi": 55,
      "hit": false,
      "t": 62519.04750000003,
      "d": 229.0074999999997,
      "v": 82
    },
    {
      "midi": 38,
      "hit": false,
      "t": 62743.28401041587,
      "d": 9.541979166664532,
      "v": 96
    },
    {
      "midi": 42,
      "hit": false,
      "t": 62748.0549999992,
      "d": 9.541979166664532,
      "v": 125
    },
    {
      "midi": 45,
      "hit": false,
      "t": 62748.0549999992,
      "d": 9.541979166664532,
      "v": 127
    },
    {
      "midi": 82,
      "hit": false,
      "t": 62748.05500000003,
      "d": 114.50375000000349,
      "v": 70
    },
    {
      "midi": 94,
      "hit": false,
      "t": 62748.05500000003,
      "d": 114.50375000000349,
      "v": 70
    },
    {
      "midi": 82,
      "hit": false,
      "t": 62862.55875000003,
      "d": 114.50375000000349,
      "v": 70
    },
    {
      "midi": 94,
      "hit": false,
      "t": 62862.55875000003,
      "d": 114.50375000000349,
      "v": 70
    },
    {
      "midi": 67,
      "hit": false,
      "t": 62977.06249999995,
      "d": 229.0074999999997,
      "v": 84
    },
    {
      "midi": 43,
      "hit": false,
      "t": 62977.06250000003,
      "d": 28.625937500000873,
      "v": 95
    },
    {
      "midi": 50,
      "hit": false,
      "t": 62977.06250000003,
      "d": 28.625937500000873,
      "v": 95
    },
    {
      "midi": 55,
      "hit": false,
      "t": 62977.06250000003,
      "d": 28.625937500000873,
      "v": 95
    },
    {
      "midi": 94,
      "hit": false,
      "t": 62977.06250000004,
      "d": 114.50375000000349,
      "v": 70
    },
    {
      "midi": 82,
      "hit": false,
      "t": 62977.06250000004,
      "d": 114.50375000000349,
      "v": 70
    },
    {
      "midi": 43,
      "hit": false,
      "t": 63091.56625000003,
      "d": 28.625937500000873,
      "v": 95
    },
    {
      "midi": 50,
      "hit": false,
      "t": 63091.56625000003,
      "d": 28.625937500000873,
      "v": 95
    },
    {
      "midi": 55,
      "hit": false,
      "t": 63091.56625000003,
      "d": 28.625937500000873,
      "v": 95
    },
    {
      "midi": 36,
      "hit": false,
      "t": 63206.0699999992,
      "d": 9.541979166664532,
      "v": 108
    },
    {
      "midi": 42,
      "hit": false,
      "t": 63206.0699999992,
      "d": 9.541979166664532,
      "v": 125
    },
    {
      "midi": 70,
      "hit": false,
      "t": 63206.06999999995,
      "d": 229.0074999999997,
      "v": 84
    },
    {
      "midi": 43,
      "hit": false,
      "t": 63206.070000000036,
      "d": 229.0074999999997,
      "v": 82
    },
    {
      "midi": 50,
      "hit": false,
      "t": 63206.070000000036,
      "d": 229.0074999999997,
      "v": 82
    },
    {
      "midi": 55,
      "hit": false,
      "t": 63206.070000000036,
      "d": 229.0074999999997,
      "v": 82
    },
    {
      "midi": 36,
      "hit": false,
      "t": 63435.0774999992,
      "d": 9.541979166664532,
      "v": 108
    },
    {
      "midi": 70,
      "hit": false,
      "t": 63435.07749999995,
      "d": 229.0074999999997,
      "v": 84
    },
    {
      "midi": 43,
      "hit": false,
      "t": 63435.077500000036,
      "d": 229.0074999999997,
      "v": 82
    },
    {
      "midi": 50,
      "hit": false,
      "t": 63435.077500000036,
      "d": 229.0074999999997,
      "v": 82
    },
    {
      "midi": 55,
      "hit": false,
      "t": 63435.077500000036,
      "d": 229.0074999999997,
      "v": 82
    },
    {
      "midi": 38,
      "hit": false,
      "t": 63659.31401041587,
      "d": 9.541979166664532,
      "v": 96
    },
    {
      "midi": 42,
      "hit": false,
      "t": 63664.0849999992,
      "d": 9.541979166664532,
      "v": 125
    },
    {
      "midi": 43,
      "hit": false,
      "t": 63664.0849999992,
      "d": 9.541979166664532,
      "v": 127
    },
    {
      "midi": 82,
      "hit": false,
      "t": 63664.08500000004,
      "d": 114.50375000000349,
      "v": 70
    },
    {
      "midi": 94,
      "hit": false,
      "t": 63664.08500000004,
      "d": 114.50375000000349,
      "v": 70
    },
    {
      "midi": 82,
      "hit": false,
      "t": 63778.588750000046,
      "d": 114.50375000000349,
      "v": 70
    },
    {
      "midi": 94,
      "hit": false,
      "t": 63778.588750000046,
      "d": 114.50375000000349,
      "v": 70
    },
    {
      "midi": 67,
      "hit": false,
      "t": 63893.09249999995,
      "d": 229.0074999999997,
      "v": 84
    },
    {
      "midi": 43,
      "hit": false,
      "t": 63893.092500000035,
      "d": 28.625937500000873,
      "v": 95
    },
    {
      "midi": 50,
      "hit": false,
      "t": 63893.092500000035,
      "d": 28.625937500000873,
      "v": 95
    },
    {
      "midi": 55,
      "hit": false,
      "t": 63893.092500000035,
      "d": 28.625937500000873,
      "v": 95
    },
    {
      "midi": 82,
      "hit": false,
      "t": 63893.09250000005,
      "d": 114.50375000000349,
      "v": 70
    },
    {
      "midi": 94,
      "hit": false,
      "t": 63893.09250000005,
      "d": 114.50375000000349,
      "v": 70
    },
    {
      "midi": 43,
      "hit": false,
      "t": 64007.59625000004,
      "d": 28.625937500000873,
      "v": 95
    },
    {
      "midi": 50,
      "hit": false,
      "t": 64007.59625000004,
      "d": 28.625937500000873,
      "v": 95
    },
    {
      "midi": 55,
      "hit": false,
      "t": 64007.59625000004,
      "d": 28.625937500000873,
      "v": 95
    },
    {
      "midi": 36,
      "hit": false,
      "t": 64122.0999999992,
      "d": 9.541979166664532,
      "v": 108
    },
    {
      "midi": 42,
      "hit": false,
      "t": 64122.0999999992,
      "d": 9.541979166664532,
      "v": 125
    },
    {
      "midi": 70,
      "hit": false,
      "t": 64122.09999999995,
      "d": 229.0074999999997,
      "v": 84
    },
    {
      "midi": 58,
      "hit": false,
      "t": 64122.099999999984,
      "d": 839.694166666668,
      "v": 100
    },
    {
      "midi": 62,
      "hit": false,
      "t": 64122.099999999984,
      "d": 839.694166666668,
      "v": 100
    },
    {
      "midi": 65,
      "hit": false,
      "t": 64122.099999999984,
      "d": 839.694166666668,
      "v": 100
    },
    {
      "midi": 70,
      "hit": false,
      "t": 64122.099999999984,
      "d": 839.694166666668,
      "v": 100
    },
    {
      "midi": 43,
      "hit": false,
      "t": 64122.10000000004,
      "d": 229.0074999999997,
      "v": 82
    },
    {
      "midi": 50,
      "hit": false,
      "t": 64122.10000000004,
      "d": 229.0074999999997,
      "v": 82
    },
    {
      "midi": 55,
      "hit": false,
      "t": 64122.10000000004,
      "d": 229.0074999999997,
      "v": 82
    },
    {
      "midi": 36,
      "hit": false,
      "t": 64351.1074999992,
      "d": 9.541979166664532,
      "v": 108
    },
    {
      "midi": 70,
      "hit": false,
      "t": 64351.10749999995,
      "d": 458.0149999999994,
      "v": 84
    },
    {
      "midi": 43,
      "hit": false,
      "t": 64351.10750000004,
      "d": 229.0074999999997,
      "v": 82
    },
    {
      "midi": 50,
      "hit": false,
      "t": 64351.10750000004,
      "d": 229.0074999999997,
      "v": 82
    },
    {
      "midi": 55,
      "hit": false,
      "t": 64351.10750000004,
      "d": 229.0074999999997,
      "v": 82
    },
    {
      "midi": 38,
      "hit": false,
      "t": 64575.344010415865,
      "d": 9.541979166664532,
      "v": 96
    },
    {
      "midi": 42,
      "hit": false,
      "t": 64580.1149999992,
      "d": 9.541979166664532,
      "v": 125
    },
    {
      "midi": 45,
      "hit": false,
      "t": 64580.1149999992,
      "d": 9.541979166664532,
      "v": 127
    },
    {
      "midi": 67,
      "hit": false,
      "t": 64809.12249999995,
      "d": 229.0074999999997,
      "v": 84
    },
    {
      "midi": 43,
      "hit": false,
      "t": 64809.12250000004,
      "d": 28.625937500000873,
      "v": 95
    },
    {
      "midi": 50,
      "hit": false,
      "t": 64809.12250000004,
      "d": 28.625937500000873,
      "v": 95
    },
    {
      "midi": 55,
      "hit": false,
      "t": 64809.12250000004,
      "d": 28.625937500000873,
      "v": 95
    },
    {
      "midi": 43,
      "hit": false,
      "t": 64923.626250000045,
      "d": 28.625937500000873,
      "v": 95
    },
    {
      "midi": 50,
      "hit": false,
      "t": 64923.626250000045,
      "d": 28.625937500000873,
      "v": 95
    },
    {
      "midi": 55,
      "hit": false,
      "t": 64923.626250000045,
      "d": 28.625937500000873,
      "v": 95
    },
    {
      "midi": 36,
      "hit": false,
      "t": 65038.1299999992,
      "d": 9.541979166664532,
      "v": 108
    },
    {
      "midi": 42,
      "hit": false,
      "t": 65038.1299999992,
      "d": 9.541979166664532,
      "v": 125
    },
    {
      "midi": 70,
      "hit": false,
      "t": 65038.12999999995,
      "d": 343.5112500000032,
      "v": 84
    },
    {
      "midi": 58,
      "hit": false,
      "t": 65038.12999999998,
      "d": 343.5112500000032,
      "v": 110
    },
    {
      "midi": 70,
      "hit": false,
      "t": 65038.12999999998,
      "d": 343.5112500000032,
      "v": 110
    },
    {
      "midi": 82,
      "hit": false,
      "t": 65038.130000000005,
      "d": 95.41979166666715,
      "v": 70
    },
    {
      "midi": 70,
      "hit": false,
      "t": 65038.130000000005,
      "d": 95.41979166666715,
      "v": 70
    },
    {
      "midi": 82,
      "hit": false,
      "t": 65038.130000000005,
      "d": 95.41979166666715,
      "v": 70
    },
    {
      "midi": 70,
      "hit": false,
      "t": 65038.130000000005,
      "d": 95.41979166666715,
      "v": 70
    },
    {
      "midi": 43,
      "hit": false,
      "t": 65038.13000000005,
      "d": 229.0074999999997,
      "v": 82
    },
    {
      "midi": 50,
      "hit": false,
      "t": 65038.13000000005,
      "d": 229.0074999999997,
      "v": 82
    },
    {
      "midi": 55,
      "hit": false,
      "t": 65038.13000000005,
      "d": 229.0074999999997,
      "v": 82
    },
    {
      "midi": 82,
      "hit": false,
      "t": 65038.130000000056,
      "d": 343.5112500000032,
      "v": 80
    },
    {
      "midi": 70,
      "hit": false,
      "t": 65038.130000000056,
      "d": 343.5112500000032,
      "v": 80
    },
    {
      "midi": 36,
      "hit": false,
      "t": 65267.1374999992,
      "d": 9.541979166664532,
      "v": 108
    },
    {
      "midi": 43,
      "hit": false,
      "t": 65267.13750000005,
      "d": 229.0074999999997,
      "v": 82
    },
    {
      "midi": 50,
      "hit": false,
      "t": 65267.13750000005,
      "d": 229.0074999999997,
      "v": 82
    },
    {
      "midi": 55,
      "hit": false,
      "t": 65267.13750000005,
      "d": 229.0074999999997,
      "v": 82
    },
    {
      "midi": 72,
      "hit": false,
      "t": 65381.64124999995,
      "d": 343.5112500000032,
      "v": 84
    },
    {
      "midi": 60,
      "hit": false,
      "t": 65381.641249999986,
      "d": 343.5112499999959,
      "v": 110
    },
    {
      "midi": 72,
      "hit": false,
      "t": 65381.641249999986,
      "d": 343.5112499999959,
      "v": 110
    },
    {
      "midi": 84,
      "hit": false,
      "t": 65381.64125000001,
      "d": 95.41979166666715,
      "v": 70
    },
    {
      "midi": 72,
      "hit": false,
      "t": 65381.64125000001,
      "d": 95.41979166666715,
      "v": 70
    },
    {
      "midi": 84,
      "hit": false,
      "t": 65381.64125000001,
      "d": 95.41979166666715,
      "v": 70
    },
    {
      "midi": 72,
      "hit": false,
      "t": 65381.64125000001,
      "d": 95.41979166666715,
      "v": 70
    },
    {
      "midi": 84,
      "hit": false,
      "t": 65381.64125000006,
      "d": 343.5112499999959,
      "v": 80
    },
    {
      "midi": 72,
      "hit": false,
      "t": 65381.64125000006,
      "d": 343.5112499999959,
      "v": 80
    },
    {
      "midi": 38,
      "hit": false,
      "t": 65491.374010415864,
      "d": 9.541979166664532,
      "v": 96
    },
    {
      "midi": 42,
      "hit": false,
      "t": 65496.1449999992,
      "d": 9.541979166664532,
      "v": 125
    },
    {
      "midi": 36,
      "hit": false,
      "t": 65496.1449999992,
      "d": 9.541979166664532,
      "v": 108
    },
    {
      "midi": 36,
      "hit": false,
      "t": 65725.1524999992,
      "d": 9.541979166664532,
      "v": 108
    },
    {
      "midi": 74,
      "hit": false,
      "t": 65725.15249999995,
      "d": 229.00750000000698,
      "v": 84
    },
    {
      "midi": 62,
      "hit": false,
      "t": 65725.15249999998,
      "d": 229.00750000000698,
      "v": 110
    },
    {
      "midi": 74,
      "hit": false,
      "t": 65725.15249999998,
      "d": 229.00750000000698,
      "v": 110
    },
    {
      "midi": 86,
      "hit": false,
      "t": 65725.15250000001,
      "d": 95.41979166665988,
      "v": 70
    },
    {
      "midi": 74,
      "hit": false,
      "t": 65725.15250000001,
      "d": 95.41979166665988,
      "v": 70
    },
    {
      "midi": 86,
      "hit": false,
      "t": 65725.15250000001,
      "d": 95.41979166665988,
      "v": 70
    },
    {
      "midi": 74,
      "hit": false,
      "t": 65725.15250000001,
      "d": 95.41979166665988,
      "v": 70
    },
    {
      "midi": 43,
      "hit": false,
      "t": 65725.15250000005,
      "d": 28.625937499993597,
      "v": 95
    },
    {
      "midi": 50,
      "hit": false,
      "t": 65725.15250000005,
      "d": 28.625937499993597,
      "v": 95
    },
    {
      "midi": 55,
      "hit": false,
      "t": 65725.15250000005,
      "d": 28.625937499993597,
      "v": 95
    },
    {
      "midi": 86,
      "hit": false,
      "t": 65725.15250000005,
      "d": 229.00750000000698,
      "v": 80
    },
    {
      "midi": 74,
      "hit": false,
      "t": 65725.15250000005,
      "d": 229.00750000000698,
      "v": 80
    },
    {
      "midi": 43,
      "hit": false,
      "t": 65839.65625000004,
      "d": 28.625937499993597,
      "v": 95
    },
    {
      "midi": 50,
      "hit": false,
      "t": 65839.65625000004,
      "d": 28.625937499993597,
      "v": 95
    },
    {
      "midi": 55,
      "hit": false,
      "t": 65839.65625000004,
      "d": 28.625937499993597,
      "v": 95
    },
    {
      "midi": 36,
      "hit": false,
      "t": 65954.15999999919,
      "d": 9.541979166664532,
      "v": 108
    },
    {
      "midi": 49,
      "hit": false,
      "t": 65954.15999999919,
      "d": 9.541979166664532,
      "v": 100
    },
    {
      "midi": 75,
      "hit": false,
      "t": 65954.15999999996,
      "d": 343.5112499999959,
      "v": 84
    },
    {
      "midi": 75,
      "hit": false,
      "t": 65954.15999999999,
      "d": 1832.0599999999977,
      "v": 110
    },
    {
      "midi": 70,
      "hit": false,
      "t": 65954.15999999999,
      "d": 1832.0599999999977,
      "v": 100
    },
    {
      "midi": 72,
      "hit": false,
      "t": 65954.15999999999,
      "d": 1832.0599999999977,
      "v": 100
    },
    {
      "midi": 67,
      "hit": false,
      "t": 65954.15999999999,
      "d": 1832.0599999999977,
      "v": 100
    },
    {
      "midi": 63,
      "hit": false,
      "t": 65954.15999999999,
      "d": 1832.0599999999977,
      "v": 100
    },
    {
      "midi": 87,
      "hit": false,
      "t": 65954.16,
      "d": 95.41979166665988,
      "v": 70
    },
    {
      "midi": 75,
      "hit": false,
      "t": 65954.16,
      "d": 95.41979166665988,
      "v": 70
    },
    {
      "midi": 87,
      "hit": false,
      "t": 65954.16,
      "d": 95.41979166665988,
      "v": 70
    },
    {
      "midi": 75,
      "hit": false,
      "t": 65954.16,
      "d": 95.41979166665988,
      "v": 70
    },
    {
      "midi": 48,
      "hit": false,
      "t": 65954.16000000003,
      "d": 229.00750000000698,
      "v": 82
    },
    {
      "midi": 55,
      "hit": false,
      "t": 65954.16000000003,
      "d": 229.00750000000698,
      "v": 82
    },
    {
      "midi": 60,
      "hit": false,
      "t": 65954.16000000003,
      "d": 229.00750000000698,
      "v": 82
    },
    {
      "midi": 87,
      "hit": false,
      "t": 65954.16000000006,
      "d": 458.0149999999994,
      "v": 80
    },
    {
      "midi": 75,
      "hit": false,
      "t": 65954.16000000006,
      "d": 458.0149999999994,
      "v": 80
    },
    {
      "midi": 87,
      "hit": false,
      "t": 65963.70197916667,
      "d": 1832.0599999999977,
      "v": 80
    },
    {
      "midi": 42,
      "hit": false,
      "t": 66183.16749999918,
      "d": 9.541979166664532,
      "v": 105
    },
    {
      "midi": 48,
      "hit": false,
      "t": 66183.16750000004,
      "d": 57.251875000001746,
      "v": 82
    },
    {
      "midi": 74,
      "hit": false,
      "t": 66297.67124999996,
      "d": 343.5112499999959,
      "v": 84
    },
    {
      "midi": 38,
      "hit": false,
      "t": 66407.40401041585,
      "d": 9.541979166679084,
      "v": 96
    },
    {
      "midi": 42,
      "hit": false,
      "t": 66412.17499999919,
      "d": 9.541979166679084,
      "v": 125
    },
    {
      "midi": 86,
      "hit": false,
      "t": 66412.175,
      "d": 95.41979166665988,
      "v": 70
    },
    {
      "midi": 74,
      "hit": false,
      "t": 66412.175,
      "d": 95.41979166665988,
      "v": 70
    },
    {
      "midi": 86,
      "hit": false,
      "t": 66412.175,
      "d": 95.41979166665988,
      "v": 70
    },
    {
      "midi": 74,
      "hit": false,
      "t": 66412.175,
      "d": 95.41979166665988,
      "v": 70
    },
    {
      "midi": 48,
      "hit": false,
      "t": 66412.17500000005,
      "d": 229.00750000000698,
      "v": 82
    },
    {
      "midi": 55,
      "hit": false,
      "t": 66412.17500000005,
      "d": 229.00750000000698,
      "v": 67
    },
    {
      "midi": 60,
      "hit": false,
      "t": 66412.17500000005,
      "d": 229.00750000000698,
      "v": 67
    },
    {
      "midi": 86,
      "hit": false,
      "t": 66412.17500000006,
      "d": 229.00750000000698,
      "v": 80
    },
    {
      "midi": 74,
      "hit": false,
      "t": 66412.17500000006,
      "d": 229.00750000000698,
      "v": 80
    },
    {
      "midi": 42,
      "hit": false,
      "t": 66641.1824999992,
      "d": 9.541979166664532,
      "v": 105
    },
    {
      "midi": 75,
      "hit": false,
      "t": 66641.18249999995,
      "d": 229.00750000000698,
      "v": 84
    },
    {
      "midi": 87,
      "hit": false,
      "t": 66641.1825,
      "d": 95.41979166665988,
      "v": 70
    },
    {
      "midi": 75,
      "hit": false,
      "t": 66641.1825,
      "d": 95.41979166665988,
      "v": 70
    },
    {
      "midi": 87,
      "hit": false,
      "t": 66641.1825,
      "d": 95.41979166665988,
      "v": 70
    },
    {
      "midi": 75,
      "hit": false,
      "t": 66641.1825,
      "d": 95.41979166665988,
      "v": 70
    },
    {
      "midi": 48,
      "hit": false,
      "t": 66641.18250000005,
      "d": 229.00750000000698,
      "v": 82
    },
    {
      "midi": 55,
      "hit": false,
      "t": 66641.18250000005,
      "d": 229.00750000000698,
      "v": 67
    },
    {
      "midi": 60,
      "hit": false,
      "t": 66641.18250000005,
      "d": 229.00750000000698,
      "v": 67
    },
    {
      "midi": 87,
      "hit": false,
      "t": 66641.18250000007,
      "d": 229.00750000000698,
      "v": 80
    },
    {
      "midi": 75,
      "hit": false,
      "t": 66641.18250000007,
      "d": 229.00750000000698,
      "v": 80
    },
    {
      "midi": 36,
      "hit": false,
      "t": 66870.18999999919,
      "d": 9.541979166664532,
      "v": 108
    },
    {
      "midi": 42,
      "hit": false,
      "t": 66870.18999999919,
      "d": 9.541979166664532,
      "v": 125
    },
    {
      "midi": 72,
      "hit": false,
      "t": 66870.18999999996,
      "d": 916.0299999999988,
      "v": 84
    },
    {
      "midi": 86,
      "hit": false,
      "t": 66870.18999999999,
      "d": 95.41979166665988,
      "v": 70
    },
    {
      "midi": 74,
      "hit": false,
      "t": 66870.18999999999,
      "d": 95.41979166665988,
      "v": 70
    },
    {
      "midi": 86,
      "hit": false,
      "t": 66870.18999999999,
      "d": 95.41979166665988,
      "v": 70
    },
    {
      "midi": 74,
      "hit": false,
      "t": 66870.18999999999,
      "d": 95.41979166665988,
      "v": 70
    },
    {
      "midi": 48,
      "hit": false,
      "t": 66870.19000000006,
      "d": 57.251875000001746,
      "v": 82
    },
    {
      "midi": 86,
      "hit": false,
      "t": 66870.19000000008,
      "d": 229.00750000000698,
      "v": 80
    },
    {
      "midi": 74,
      "hit": false,
      "t": 66870.19000000008,
      "d": 229.00750000000698,
      "v": 80
    },
    {
      "midi": 36,
      "hit": false,
      "t": 67099.19749999918,
      "d": 9.541979166664532,
      "v": 108
    },
    {
      "midi": 42,
      "hit": false,
      "t": 67099.19749999918,
      "d": 9.541979166664532,
      "v": 105
    },
    {
      "midi": 87,
      "hit": false,
      "t": 67099.19749999998,
      "d": 95.41979166665988,
      "v": 70
    },
    {
      "midi": 75,
      "hit": false,
      "t": 67099.19749999998,
      "d": 95.41979166665988,
      "v": 70
    },
    {
      "midi": 87,
      "hit": false,
      "t": 67099.19749999998,
      "d": 95.41979166665988,
      "v": 70
    },
    {
      "midi": 75,
      "hit": false,
      "t": 67099.19749999998,
      "d": 95.41979166665988,
      "v": 70
    },
    {
      "midi": 48,
      "hit": false,
      "t": 67099.19750000007,
      "d": 57.251875000001746,
      "v": 82
    },
    {
      "midi": 87,
      "hit": false,
      "t": 67099.19750000008,
      "d": 229.00750000000698,
      "v": 80
    },
    {
      "midi": 75,
      "hit": false,
      "t": 67099.19750000008,
      "d": 229.00750000000698,
      "v": 80
    },
    {
      "midi": 38,
      "hit": false,
      "t": 67323.43401041585,
      "d": 9.541979166679084,
      "v": 96
    },
    {
      "midi": 42,
      "hit": false,
      "t": 67328.20499999919,
      "d": 9.541979166679084,
      "v": 125
    },
    {
      "midi": 84,
      "hit": false,
      "t": 67328.20499999997,
      "d": 95.41979166665988,
      "v": 70
    },
    {
      "midi": 72,
      "hit": false,
      "t": 67328.20499999997,
      "d": 95.41979166665988,
      "v": 70
    },
    {
      "midi": 84,
      "hit": false,
      "t": 67328.20499999997,
      "d": 95.41979166665988,
      "v": 70
    },
    {
      "midi": 72,
      "hit": false,
      "t": 67328.20499999997,
      "d": 95.41979166665988,
      "v": 70
    },
    {
      "midi": 48,
      "hit": false,
      "t": 67328.20500000007,
      "d": 229.00750000000698,
      "v": 82
    },
    {
      "midi": 55,
      "hit": false,
      "t": 67328.20500000007,
      "d": 229.00750000000698,
      "v": 67
    },
    {
      "midi": 60,
      "hit": false,
      "t": 67328.20500000007,
      "d": 229.00750000000698,
      "v": 67
    },
    {
      "midi": 84,
      "hit": false,
      "t": 67328.20500000009,
      "d": 229.00750000000698,
      "v": 80
    },
    {
      "midi": 72,
      "hit": false,
      "t": 67328.20500000009,
      "d": 229.00750000000698,
      "v": 80
    },
    {
      "midi": 42,
      "hit": false,
      "t": 67557.2124999992,
      "d": 9.541979166664532,
      "v": 105
    },
    {
      "midi": 86,
      "hit": false,
      "t": 67557.21249999997,
      "d": 95.41979166665988,
      "v": 70
    },
    {
      "midi": 74,
      "hit": false,
      "t": 67557.21249999997,
      "d": 95.41979166665988,
      "v": 70
    },
    {
      "midi": 86,
      "hit": false,
      "t": 67557.21249999997,
      "d": 95.41979166665988,
      "v": 70
    },
    {
      "midi": 74,
      "hit": false,
      "t": 67557.21249999997,
      "d": 95.41979166665988,
      "v": 70
    },
    {
      "midi": 48,
      "hit": false,
      "t": 67557.21250000008,
      "d": 229.00750000000698,
      "v": 82
    },
    {
      "midi": 55,
      "hit": false,
      "t": 67557.21250000008,
      "d": 229.00750000000698,
      "v": 67
    },
    {
      "midi": 60,
      "hit": false,
      "t": 67557.21250000008,
      "d": 229.00750000000698,
      "v": 67
    },
    {
      "midi": 86,
      "hit": false,
      "t": 67557.2125000001,
      "d": 229.00750000000698,
      "v": 80
    },
    {
      "midi": 74,
      "hit": false,
      "t": 67557.2125000001,
      "d": 229.00750000000698,
      "v": 80
    },
    {
      "midi": 36,
      "hit": false,
      "t": 67786.21999999919,
      "d": 9.541979166664532,
      "v": 108
    },
    {
      "midi": 42,
      "hit": false,
      "t": 67786.21999999919,
      "d": 9.541979166664532,
      "v": 125
    },
    {
      "midi": 75,
      "hit": false,
      "t": 67786.21999999996,
      "d": 343.5112499999959,
      "v": 84
    },
    {
      "midi": 87,
      "hit": false,
      "t": 67786.21999999996,
      "d": 95.41979166665988,
      "v": 70
    },
    {
      "midi": 75,
      "hit": false,
      "t": 67786.21999999996,
      "d": 95.41979166665988,
      "v": 70
    },
    {
      "midi": 87,
      "hit": false,
      "t": 67786.21999999996,
      "d": 95.41979166665988,
      "v": 70
    },
    {
      "midi": 75,
      "hit": false,
      "t": 67786.21999999996,
      "d": 95.41979166665988,
      "v": 70
    },
    {
      "midi": 69,
      "hit": false,
      "t": 67786.21999999999,
      "d": 916.0299999999988,
      "v": 100
    },
    {
      "midi": 63,
      "hit": false,
      "t": 67786.21999999999,
      "d": 916.0299999999988,
      "v": 100
    },
    {
      "midi": 65,
      "hit": false,
      "t": 67786.21999999999,
      "d": 916.0299999999988,
      "v": 100
    },
    {
      "midi": 60,
      "hit": false,
      "t": 67786.21999999999,
      "d": 916.0299999999988,
      "v": 100
    },
    {
      "midi": 41,
      "hit": false,
      "t": 67786.22000000009,
      "d": 229.00750000000698,
      "v": 82
    },
    {
      "midi": 48,
      "hit": false,
      "t": 67786.22000000009,
      "d": 229.00750000000698,
      "v": 82
    },
    {
      "midi": 53,
      "hit": false,
      "t": 67786.22000000009,
      "d": 229.00750000000698,
      "v": 82
    },
    {
      "midi": 87,
      "hit": false,
      "t": 67786.2200000001,
      "d": 458.0149999999994,
      "v": 80
    },
    {
      "midi": 75,
      "hit": false,
      "t": 67786.2200000001,
      "d": 458.0149999999994,
      "v": 80
    },
    {
      "midi": 89,
      "hit": false,
      "t": 67795.76197916667,
      "d": 1832.0599999999977,
      "v": 80
    },
    {
      "midi": 42,
      "hit": false,
      "t": 68015.22749999918,
      "d": 9.541979166664532,
      "v": 105
    },
    {
      "midi": 41,
      "hit": false,
      "t": 68015.2275000001,
      "d": 57.251875000001746,
      "v": 82
    },
    {
      "midi": 74,
      "hit": false,
      "t": 68129.73124999995,
      "d": 343.5112499999959,
      "v": 84
    },
    {
      "midi": 38,
      "hit": false,
      "t": 68239.46401041585,
      "d": 9.541979166679084,
      "v": 96
    },
    {
      "midi": 42,
      "hit": false,
      "t": 68244.23499999919,
      "d": 9.541979166679084,
      "v": 125
    },
    {
      "midi": 86,
      "hit": false,
      "t": 68244.23499999996,
      "d": 95.41979166665988,
      "v": 70
    },
    {
      "midi": 74,
      "hit": false,
      "t": 68244.23499999996,
      "d": 95.41979166665988,
      "v": 70
    },
    {
      "midi": 86,
      "hit": false,
      "t": 68244.23499999996,
      "d": 95.41979166665988,
      "v": 70
    },
    {
      "midi": 74,
      "hit": false,
      "t": 68244.23499999996,
      "d": 95.41979166665988,
      "v": 70
    },
    {
      "midi": 41,
      "hit": false,
      "t": 68244.2350000001,
      "d": 229.00750000000698,
      "v": 76
    },
    {
      "midi": 48,
      "hit": false,
      "t": 68244.2350000001,
      "d": 229.00750000000698,
      "v": 76
    },
    {
      "midi": 53,
      "hit": false,
      "t": 68244.2350000001,
      "d": 229.00750000000698,
      "v": 76
    },
    {
      "midi": 86,
      "hit": false,
      "t": 68244.2350000001,
      "d": 229.00750000000698,
      "v": 80
    },
    {
      "midi": 74,
      "hit": false,
      "t": 68244.2350000001,
      "d": 229.00750000000698,
      "v": 80
    },
    {
      "midi": 42,
      "hit": false,
      "t": 68473.24249999919,
      "d": 9.541979166664532,
      "v": 105
    },
    {
      "midi": 75,
      "hit": false,
      "t": 68473.24249999995,
      "d": 229.00750000000698,
      "v": 84
    },
    {
      "midi": 87,
      "hit": false,
      "t": 68473.24249999995,
      "d": 95.41979166665988,
      "v": 70
    },
    {
      "midi": 75,
      "hit": false,
      "t": 68473.24249999995,
      "d": 95.41979166665988,
      "v": 70
    },
    {
      "midi": 87,
      "hit": false,
      "t": 68473.24249999995,
      "d": 95.41979166665988,
      "v": 70
    },
    {
      "midi": 75,
      "hit": false,
      "t": 68473.24249999995,
      "d": 95.41979166665988,
      "v": 70
    },
    {
      "midi": 41,
      "hit": false,
      "t": 68473.24250000011,
      "d": 229.00750000000698,
      "v": 76
    },
    {
      "midi": 48,
      "hit": false,
      "t": 68473.24250000011,
      "d": 229.00750000000698,
      "v": 76
    },
    {
      "midi": 53,
      "hit": false,
      "t": 68473.24250000011,
      "d": 229.00750000000698,
      "v": 76
    },
    {
      "midi": 87,
      "hit": false,
      "t": 68473.24250000011,
      "d": 229.00750000000698,
      "v": 80
    },
    {
      "midi": 75,
      "hit": false,
      "t": 68473.24250000011,
      "d": 229.00750000000698,
      "v": 80
    },
    {
      "midi": 36,
      "hit": false,
      "t": 68702.24999999919,
      "d": 9.541979166664532,
      "v": 108
    },
    {
      "midi": 42,
      "hit": false,
      "t": 68702.24999999919,
      "d": 9.541979166664532,
      "v": 125
    },
    {
      "midi": 84,
      "hit": false,
      "t": 68702.24999999994,
      "d": 95.41979166665988,
      "v": 70
    },
    {
      "midi": 72,
      "hit": false,
      "t": 68702.24999999994,
      "d": 95.41979166665988,
      "v": 70
    },
    {
      "midi": 84,
      "hit": false,
      "t": 68702.24999999994,
      "d": 95.41979166665988,
      "v": 70
    },
    {
      "midi": 72,
      "hit": false,
      "t": 68702.24999999994,
      "d": 95.41979166665988,
      "v": 70
    },
    {
      "midi": 72,
      "hit": false,
      "t": 68702.24999999996,
      "d": 229.00750000000698,
      "v": 84
    },
    {
      "midi": 41,
      "hit": false,
      "t": 68702.25000000012,
      "d": 57.251875000001746,
      "v": 82
    },
    {
      "midi": 84,
      "hit": false,
      "t": 68702.25000000012,
      "d": 458.0149999999994,
      "v": 80
    },
    {
      "midi": 72,
      "hit": false,
      "t": 68702.25000000012,
      "d": 458.0149999999994,
      "v": 80
    },
    {
      "midi": 36,
      "hit": false,
      "t": 68931.25749999918,
      "d": 9.541979166664532,
      "v": 108
    },
    {
      "midi": 42,
      "hit": false,
      "t": 68931.25749999918,
      "d": 9.541979166664532,
      "v": 105
    },
    {
      "midi": 72,
      "hit": false,
      "t": 68931.25749999996,
      "d": 229.00750000000698,
      "v": 84
    },
    {
      "midi": 69,
      "hit": false,
      "t": 68931.25749999999,
      "d": 687.0225000000064,
      "v": 100
    },
    {
      "midi": 67,
      "hit": false,
      "t": 68931.25749999999,
      "d": 687.0225000000064,
      "v": 100
    },
    {
      "midi": 72,
      "hit": false,
      "t": 68931.25749999999,
      "d": 687.0225000000064,
      "v": 100
    },
    {
      "midi": 65,
      "hit": false,
      "t": 68931.25749999999,
      "d": 687.0225000000064,
      "v": 100
    },
    {
      "midi": 41,
      "hit": false,
      "t": 68931.25750000012,
      "d": 57.251875000001746,
      "v": 82
    },
    {
      "midi": 38,
      "hit": false,
      "t": 69155.49401041584,
      "d": 9.541979166679084,
      "v": 96
    },
    {
      "midi": 42,
      "hit": false,
      "t": 69160.26499999918,
      "d": 9.541979166679084,
      "v": 125
    },
    {
      "midi": 91,
      "hit": false,
      "t": 69160.26499999994,
      "d": 95.41979166665988,
      "v": 70
    },
    {
      "midi": 79,
      "hit": false,
      "t": 69160.26499999994,
      "d": 95.41979166665988,
      "v": 70
    },
    {
      "midi": 91,
      "hit": false,
      "t": 69160.26499999994,
      "d": 95.41979166665988,
      "v": 70
    },
    {
      "midi": 79,
      "hit": false,
      "t": 69160.26499999994,
      "d": 95.41979166665988,
      "v": 70
    },
    {
      "midi": 79,
      "hit": false,
      "t": 69160.26499999997,
      "d": 229.00750000000698,
      "v": 84
    },
    {
      "midi": 91,
      "hit": false,
      "t": 69160.26500000012,
      "d": 229.00750000000698,
      "v": 80
    },
    {
      "midi": 79,
      "hit": false,
      "t": 69160.26500000012,
      "d": 229.00750000000698,
      "v": 80
    },
    {
      "midi": 41,
      "hit": false,
      "t": 69160.26500000013,
      "d": 229.00750000000698,
      "v": 82
    },
    {
      "midi": 48,
      "hit": false,
      "t": 69160.26500000013,
      "d": 229.00750000000698,
      "v": 82
    },
    {
      "midi": 53,
      "hit": false,
      "t": 69160.26500000013,
      "d": 229.00750000000698,
      "v": 82
    },
    {
      "midi": 42,
      "hit": false,
      "t": 69389.27249999919,
      "d": 9.541979166664532,
      "v": 105
    },
    {
      "midi": 89,
      "hit": false,
      "t": 69389.27249999993,
      "d": 95.41979166665988,
      "v": 70
    },
    {
      "midi": 77,
      "hit": false,
      "t": 69389.27249999993,
      "d": 95.41979166665988,
      "v": 70
    },
    {
      "midi": 89,
      "hit": false,
      "t": 69389.27249999993,
      "d": 95.41979166665988,
      "v": 70
    },
    {
      "midi": 77,
      "hit": false,
      "t": 69389.27249999993,
      "d": 95.41979166665988,
      "v": 70
    },
    {
      "midi": 77,
      "hit": false,
      "t": 69389.27249999998,
      "d": 229.00750000000698,
      "v": 84
    },
    {
      "midi": 89,
      "hit": false,
      "t": 69389.27250000012,
      "d": 229.00750000000698,
      "v": 80
    },
    {
      "midi": 77,
      "hit": false,
      "t": 69389.27250000012,
      "d": 229.00750000000698,
      "v": 80
    },
    {
      "midi": 41,
      "hit": false,
      "t": 69389.27250000014,
      "d": 229.00750000000698,
      "v": 82
    },
    {
      "midi": 48,
      "hit": false,
      "t": 69389.27250000014,
      "d": 229.00750000000698,
      "v": 67
    },
    {
      "midi": 53,
      "hit": false,
      "t": 69389.27250000014,
      "d": 229.00750000000698,
      "v": 67
    },
    {
      "midi": 36,
      "hit": false,
      "t": 69618.27999999918,
      "d": 9.541979166664532,
      "v": 108
    },
    {
      "midi": 42,
      "hit": false,
      "t": 69618.27999999918,
      "d": 9.541979166664532,
      "v": 125
    },
    {
      "midi": 89,
      "hit": false,
      "t": 69618.27999999993,
      "d": 4.770989583339542,
      "v": 70
    },
    {
      "midi": 89,
      "hit": false,
      "t": 69618.27999999993,
      "d": 4.770989583339542,
      "v": 70
    },
    {
      "midi": 77,
      "hit": false,
      "t": 69618.27999999998,
      "d": 458.0149999999994,
      "v": 84
    },
    {
      "midi": 65,
      "hit": false,
      "t": 69618.28,
      "d": 687.0225000000064,
      "v": 100
    },
    {
      "midi": 68,
      "hit": false,
      "t": 69618.28,
      "d": 687.0225000000064,
      "v": 100
    },
    {
      "midi": 75,
      "hit": false,
      "t": 69618.28,
      "d": 687.0225000000064,
      "v": 100
    },
    {
      "midi": 72,
      "hit": false,
      "t": 69618.28,
      "d": 687.0225000000064,
      "v": 100
    },
    {
      "midi": 89,
      "hit": false,
      "t": 69618.28000000013,
      "d": 4.770989583339542,
      "v": 80
    },
    {
      "midi": 46,
      "hit": false,
      "t": 69618.28000000014,
      "d": 229.00750000000698,
      "v": 82
    },
    {
      "midi": 53,
      "hit": false,
      "t": 69618.28000000014,
      "d": 229.00750000000698,
      "v": 82
    },
    {
      "midi": 58,
      "hit": false,
      "t": 69618.28000000014,
      "d": 229.00750000000698,
      "v": 82
    },
    {
      "midi": 92,
      "hit": false,
      "t": 69627.82197916666,
      "d": 1832.0599999999977,
      "v": 80
    },
    {
      "midi": 42,
      "hit": false,
      "t": 69847.28749999918,
      "d": 9.541979166664532,
      "v": 105
    },
    {
      "midi": 46,
      "hit": false,
      "t": 69847.28750000015,
      "d": 57.251875000001746,
      "v": 82
    },
    {
      "midi": 38,
      "hit": false,
      "t": 70071.52401041584,
      "d": 9.541979166679084,
      "v": 96
    },
    {
      "midi": 42,
      "hit": false,
      "t": 70076.29499999918,
      "d": 9.541979166679084,
      "v": 125
    },
    {
      "midi": 46,
      "hit": false,
      "t": 70076.29500000016,
      "d": 229.00750000000698,
      "v": 67
    },
    {
      "midi": 53,
      "hit": false,
      "t": 70076.29500000016,
      "d": 229.00750000000698,
      "v": 67
    },
    {
      "midi": 58,
      "hit": false,
      "t": 70076.29500000016,
      "d": 229.00750000000698,
      "v": 67
    },
    {
      "midi": 42,
      "hit": false,
      "t": 70305.30249999919,
      "d": 9.541979166664532,
      "v": 105
    },
    {
      "midi": 77,
      "hit": false,
      "t": 70305.30249999999,
      "d": 229.00750000000698,
      "v": 84
    },
    {
      "midi": 68,
      "hit": false,
      "t": 70305.3025,
      "d": 687.0225000000064,
      "v": 100
    },
    {
      "midi": 67,
      "hit": false,
      "t": 70305.3025,
      "d": 687.0225000000064,
      "v": 100
    },
    {
      "midi": 72,
      "hit": false,
      "t": 70305.3025,
      "d": 687.0225000000064,
      "v": 100
    },
    {
      "midi": 63,
      "hit": false,
      "t": 70305.3025,
      "d": 687.0225000000064,
      "v": 100
    },
    {
      "midi": 46,
      "hit": false,
      "t": 70305.30250000017,
      "d": 229.00750000000698,
      "v": 82
    },
    {
      "midi": 53,
      "hit": false,
      "t": 70305.30250000017,
      "d": 229.00750000000698,
      "v": 82
    },
    {
      "midi": 58,
      "hit": false,
      "t": 70305.30250000017,
      "d": 229.00750000000698,
      "v": 82
    },
    {
      "midi": 36,
      "hit": false,
      "t": 70534.30999999918,
      "d": 9.541979166664532,
      "v": 108
    },
    {
      "midi": 42,
      "hit": false,
      "t": 70534.30999999918,
      "d": 9.541979166664532,
      "v": 125
    },
    {
      "midi": 77,
      "hit": false,
      "t": 70534.31,
      "d": 229.00750000000698,
      "v": 84
    },
    {
      "midi": 46,
      "hit": false,
      "t": 70534.31000000017,
      "d": 57.251875000001746,
      "v": 82
    },
    {
      "midi": 36,
      "hit": false,
      "t": 70763.31749999918,
      "d": 9.541979166664532,
      "v": 108
    },
    {
      "midi": 42,
      "hit": false,
      "t": 70763.31749999918,
      "d": 9.541979166664532,
      "v": 105
    },
    {
      "midi": 75,
      "hit": false,
      "t": 70763.3175,
      "d": 229.00750000000698,
      "v": 84
    },
    {
      "midi": 46,
      "hit": false,
      "t": 70763.31750000018,
      "d": 57.251875000001746,
      "v": 82
    },
    {
      "midi": 38,
      "hit": false,
      "t": 70987.55401041584,
      "d": 9.541979166679084,
      "v": 96
    },
    {
      "midi": 42,
      "hit": false,
      "t": 70992.32499999918,
      "d": 9.541979166679084,
      "v": 125
    },
    {
      "midi": 63,
      "hit": false,
      "t": 70992.32500000001,
      "d": 458.0149999999994,
      "v": 100
    },
    {
      "midi": 60,
      "hit": false,
      "t": 70992.32500000001,
      "d": 458.0149999999994,
      "v": 100
    },
    {
      "midi": 65,
      "hit": false,
      "t": 70992.32500000001,
      "d": 458.0149999999994,
      "v": 100
    },
    {
      "midi": 68,
      "hit": false,
      "t": 70992.32500000001,
      "d": 458.0149999999994,
      "v": 100
    },
    {
      "midi": 77,
      "hit": false,
      "t": 70992.32500000001,
      "d": 229.00750000000698,
      "v": 84
    },
    {
      "midi": 46,
      "hit": false,
      "t": 70992.32500000019,
      "d": 229.00750000000698,
      "v": 82
    },
    {
      "midi": 53,
      "hit": false,
      "t": 70992.32500000019,
      "d": 229.00750000000698,
      "v": 82
    },
    {
      "midi": 58,
      "hit": false,
      "t": 70992.32500000019,
      "d": 229.00750000000698,
      "v": 82
    },
    {
      "midi": 42,
      "hit": false,
      "t": 71221.33249999919,
      "d": 9.541979166664532,
      "v": 105
    },
    {
      "midi": 79,
      "hit": false,
      "t": 71221.33250000002,
      "d": 1374.0449999999983,
      "v": 84
    },
    {
      "midi": 53,
      "hit": false,
      "t": 71221.3325000002,
      "d": 28.625937499993597,
      "v": 82
    },
    {
      "midi": 58,
      "hit": false,
      "t": 71221.3325000002,
      "d": 229.00749999999243,
      "v": 82
    },
    {
      "midi": 46,
      "hit": false,
      "t": 71221.3325000002,
      "d": 229.00749999999243,
      "v": 82
    },
    {
      "midi": 53,
      "hit": false,
      "t": 71249.95843750019,
      "d": 200.38156249999884,
      "v": 82
    },
    {
      "midi": 36,
      "hit": false,
      "t": 71450.33999999918,
      "d": 9.541979166664532,
      "v": 108
    },
    {
      "midi": 49,
      "hit": false,
      "t": 71450.33999999918,
      "d": 9.541979166664532,
      "v": 100
    },
    {
      "midi": 62,
      "hit": false,
      "t": 71450.34000000001,
      "d": 1832.0599999999977,
      "v": 100
    },
    {
      "midi": 59,
      "hit": false,
      "t": 71450.34000000001,
      "d": 1832.0599999999977,
      "v": 100
    },
    {
      "midi": 65,
      "hit": false,
      "t": 71450.34000000001,
      "d": 1832.0599999999977,
      "v": 100
    },
    {
      "midi": 67,
      "hit": false,
      "t": 71450.34000000001,
      "d": 1832.0599999999977,
      "v": 100
    },
    {
      "midi": 43,
      "hit": false,
      "t": 71450.34000000019,
      "d": 1832.0599999999977,
      "v": 82
    },
    {
      "midi": 50,
      "hit": false,
      "t": 71450.34000000019,
      "d": 1832.0599999999977,
      "v": 82
    },
    {
      "midi": 55,
      "hit": false,
      "t": 71450.34000000019,
      "d": 1832.0599999999977,
      "v": 82
    },
    {
      "midi": 91,
      "hit": false,
      "t": 71459.88197916666,
      "d": 1832.0599999999977,
      "v": 80
    },
    {
      "midi": 55,
      "hit": false,
      "t": 71674.57651041666,
      "d": 458.01500000001397,
      "v": 115
    },
    {
      "midi": 55,
      "hit": false,
      "t": 71679.34749999997,
      "d": 458.01500000001397,
      "v": 96
    },
    {
      "midi": 55,
      "hit": false,
      "t": 71684.11848958333,
      "d": 458.01500000001397,
      "v": 96
    },
    {
      "midi": 53,
      "hit": false,
      "t": 71903.58401041667,
      "d": 229.00750000000698,
      "v": 115
    },
    {
      "midi": 53,
      "hit": false,
      "t": 71908.35499999998,
      "d": 229.00750000000698,
      "v": 96
    },
    {
      "midi": 53,
      "hit": false,
      "t": 71913.12598958334,
      "d": 229.00750000000698,
      "v": 96
    },
    {
      "midi": 55,
      "hit": false,
      "t": 72132.59151041668,
      "d": 458.01500000001397,
      "v": 115
    },
    {
      "midi": 55,
      "hit": false,
      "t": 72137.36249999999,
      "d": 458.01500000001397,
      "v": 96
    },
    {
      "midi": 55,
      "hit": false,
      "t": 72142.13348958334,
      "d": 458.01500000001397,
      "v": 96
    },
    {
      "midi": 52,
      "hit": false,
      "t": 72361.59901041668,
      "d": 229.00750000000698,
      "v": 115
    },
    {
      "midi": 43,
      "hit": false,
      "t": 72366.36999999918,
      "d": 9.541979166664532,
      "v": 120
    },
    {
      "midi": 52,
      "hit": false,
      "t": 72366.37,
      "d": 229.00750000000698,
      "v": 96
    },
    {
      "midi": 52,
      "hit": false,
      "t": 72371.14098958335,
      "d": 229.00750000000698,
      "v": 96
    },
    {
      "midi": 43,
      "hit": false,
      "t": 72480.87374999918,
      "d": 9.541979166664532,
      "v": 120
    },
    {
      "midi": 55,
      "hit": false,
      "t": 72590.60651041669,
      "d": 458.01500000001397,
      "v": 115
    },
    {
      "midi": 43,
      "hit": false,
      "t": 72595.37749999919,
      "d": 9.541979166664532,
      "v": 120
    },
    {
      "midi": 55,
      "hit": false,
      "t": 72595.3775,
      "d": 458.01500000001397,
      "v": 96
    },
    {
      "midi": 55,
      "hit": false,
      "t": 72600.14848958336,
      "d": 458.01500000001397,
      "v": 96
    },
    {
      "midi": 38,
      "hit": false,
      "t": 72705.11026041585,
      "d": 9.541979166664532,
      "v": 96
    },
    {
      "midi": 38,
      "hit": false,
      "t": 72819.61401041585,
      "d": 9.541979166664532,
      "v": 96
    },
    {
      "midi": 50,
      "hit": false,
      "t": 72819.6140104167,
      "d": 229.00750000000698,
      "v": 115
    },
    {
      "midi": 50,
      "hit": false,
      "t": 72824.38500000001,
      "d": 229.00750000000698,
      "v": 96
    },
    {
      "midi": 50,
      "hit": false,
      "t": 72829.15598958336,
      "d": 229.00750000000698,
      "v": 96
    },
    {
      "midi": 55,
      "hit": false,
      "t": 73048.6215104167,
      "d": 229.00750000000698,
      "v": 115
    },
    {
      "midi": 55,
      "hit": false,
      "t": 73053.39250000002,
      "d": 229.00750000000698,
      "v": 96
    },
    {
      "midi": 55,
      "hit": false,
      "t": 73058.16348958337,
      "d": 229.00750000000698,
      "v": 96
    },
    {
      "midi": 36,
      "hit": false,
      "t": 73282.39999999918,
      "d": 9.541979166664532,
      "v": 108
    },
    {
      "midi": 49,
      "hit": false,
      "t": 73282.39999999918,
      "d": 9.541979166664532,
      "v": 100
    },
    {
      "midi": 54,
      "hit": false,
      "t": 73282.39999999918,
      "d": 9.541979166664532,
      "v": 75
    },
    {
      "midi": 64,
      "hit": false,
      "t": 73282.39999999998,
      "d": 343.5112499999959,
      "v": 120
    },
    {
      "midi": 67,
      "hit": false,
      "t": 73282.39999999998,
      "d": 343.5112499999959,
      "v": 120
    },
    {
      "midi": 72,
      "hit": false,
      "t": 73282.39999999998,
      "d": 343.5112499999959,
      "v": 120
    },
    {
      "midi": 64,
      "hit": false,
      "t": 73282.40000000001,
      "d": 1603.0525000000052,
      "v": 105
    },
    {
      "midi": 67,
      "hit": false,
      "t": 73282.40000000001,
      "d": 1603.0525000000052,
      "v": 105
    },
    {
      "midi": 72,
      "hit": false,
      "t": 73282.40000000001,
      "d": 1603.0525000000052,
      "v": 105
    },
    {
      "midi": 79,
      "hit": false,
      "t": 73282.40000000002,
      "d": 458.0149999999994,
      "v": 84
    },
    {
      "midi": 60,
      "hit": false,
      "t": 73282.40000000002,
      "d": 114.50375000000349,
      "v": 92
    },
    {
      "midi": 60,
      "hit": false,
      "t": 73282.40000000004,
      "d": 114.50375000000349,
      "v": 78
    },
    {
      "midi": 84,
      "hit": false,
      "t": 73291.94197916666,
      "d": 1832.0599999999977,
      "v": 80
    },
    {
      "midi": 60,
      "hit": false,
      "t": 73396.90375000003,
      "d": 114.50375000000349,
      "v": 92
    },
    {
      "midi": 60,
      "hit": false,
      "t": 73396.90375000004,
      "d": 114.50375000000349,
      "v": 78
    },
    {
      "midi": 54,
      "hit": false,
      "t": 73406.44572916585,
      "d": 9.541979166664532,
      "v": 35
    },
    {
      "midi": 36,
      "hit": false,
      "t": 73511.40749999917,
      "d": 9.541979166664532,
      "v": 108
    },
    {
      "midi": 54,
      "hit": false,
      "t": 73511.40749999917,
      "d": 9.541979166664532,
      "v": 55
    },
    {
      "midi": 64,
      "hit": false,
      "t": 73511.40750000003,
      "d": 114.50375000000349,
      "v": 92
    },
    {
      "midi": 64,
      "hit": false,
      "t": 73511.40750000004,
      "d": 114.50375000000349,
      "v": 78
    },
    {
      "midi": 64,
      "hit": false,
      "t": 73625.91125000003,
      "d": 114.50375000000349,
      "v": 92
    },
    {
      "midi": 64,
      "hit": false,
      "t": 73625.91125000005,
      "d": 114.50375000000349,
      "v": 78
    },
    {
      "midi": 54,
      "hit": false,
      "t": 73635.45322916584,
      "d": 9.541979166664532,
      "v": 35
    },
    {
      "midi": 38,
      "hit": false,
      "t": 73735.64401041584,
      "d": 9.541979166679084,
      "v": 96
    },
    {
      "midi": 42,
      "hit": false,
      "t": 73740.41499999918,
      "d": 9.541979166679084,
      "v": 125
    },
    {
      "midi": 54,
      "hit": false,
      "t": 73740.41499999918,
      "d": 9.541979166679084,
      "v": 75
    },
    {
      "midi": 64,
      "hit": false,
      "t": 73740.41499999998,
      "d": 343.5112499999959,
      "v": 120
    },
    {
      "midi": 67,
      "hit": false,
      "t": 73740.41499999998,
      "d": 343.5112499999959,
      "v": 120
    },
    {
      "midi": 72,
      "hit": false,
      "t": 73740.41499999998,
      "d": 343.5112499999959,
      "v": 120
    },
    {
      "midi": 79,
      "hit": false,
      "t": 73740.41500000002,
      "d": 458.0149999999994,
      "v": 84
    },
    {
      "midi": 67,
      "hit": false,
      "t": 73740.41500000004,
      "d": 114.50375000000349,
      "v": 103
    },
    {
      "midi": 67,
      "hit": false,
      "t": 73740.41500000005,
      "d": 114.50375000000349,
      "v": 86
    },
    {
      "midi": 60,
      "hit": false,
      "t": 73854.91875000004,
      "d": 114.50375000000349,
      "v": 103
    },
    {
      "midi": 60,
      "hit": false,
      "t": 73854.91875000006,
      "d": 114.50375000000349,
      "v": 86
    },
    {
      "midi": 54,
      "hit": false,
      "t": 73864.46072916586,
      "d": 9.541979166664532,
      "v": 35
    },
    {
      "midi": 54,
      "hit": false,
      "t": 73969.42249999919,
      "d": 9.541979166664532,
      "v": 55
    },
    {
      "midi": 67,
      "hit": false,
      "t": 73969.42250000004,
      "d": 114.50375000000349,
      "v": 103
    },
    {
      "midi": 67,
      "hit": false,
      "t": 73969.42250000006,
      "d": 114.50375000000349,
      "v": 86
    },
    {
      "midi": 67,
      "hit": false,
      "t": 74083.92625000005,
      "d": 114.50375000000349,
      "v": 103
    },
    {
      "midi": 67,
      "hit": false,
      "t": 74083.92625000006,
      "d": 229.00750000000698,
      "v": 86
    },
    {
      "midi": 54,
      "hit": false,
      "t": 74093.46822916585,
      "d": 9.541979166664532,
      "v": 35
    },
    {
      "midi": 38,
      "hit": false,
      "t": 74193.65901041585,
      "d": 9.541979166679084,
      "v": 96
    },
    {
      "midi": 42,
      "hit": false,
      "t": 74198.42999999919,
      "d": 9.541979166679084,
      "v": 125
    },
    {
      "midi": 54,
      "hit": false,
      "t": 74198.42999999919,
      "d": 9.541979166679084,
      "v": 75
    },
    {
      "midi": 64,
      "hit": false,
      "t": 74198.42999999998,
      "d": 190.8395833333343,
      "v": 120
    },
    {
      "midi": 67,
      "hit": false,
      "t": 74198.42999999998,
      "d": 190.8395833333343,
      "v": 120
    },
    {
      "midi": 72,
      "hit": false,
      "t": 74198.42999999998,
      "d": 190.8395833333343,
      "v": 120
    },
    {
      "midi": 76,
      "hit": false,
      "t": 74198.43000000002,
      "d": 229.00750000000698,
      "v": 84
    },
    {
      "midi": 60,
      "hit": false,
      "t": 74198.43000000005,
      "d": 114.50375000000349,
      "v": 83
    },
    {
      "midi": 60,
      "hit": false,
      "t": 74198.43000000007,
      "d": 114.50375000000349,
      "v": 70
    },
    {
      "midi": 67,
      "hit": false,
      "t": 74312.93375000005,
      "d": 114.50375000000349,
      "v": 103
    },
    {
      "midi": 67,
      "hit": false,
      "t": 74312.93375000007,
      "d": 114.50375000000349,
      "v": 86
    },
    {
      "midi": 54,
      "hit": false,
      "t": 74322.47572916588,
      "d": 9.541979166664532,
      "v": 35
    },
    {
      "midi": 36,
      "hit": false,
      "t": 74427.4374999992,
      "d": 9.541979166664532,
      "v": 108
    },
    {
      "midi": 54,
      "hit": false,
      "t": 74427.4374999992,
      "d": 9.541979166664532,
      "v": 55
    },
    {
      "midi": 64,
      "hit": false,
      "t": 74427.43749999999,
      "d": 190.8395833333343,
      "v": 120
    },
    {
      "midi": 67,
      "hit": false,
      "t": 74427.43749999999,
      "d": 190.8395833333343,
      "v": 120
    },
    {
      "midi": 72,
      "hit": false,
      "t": 74427.43749999999,
      "d": 190.8395833333343,
      "v": 120
    },
    {
      "midi": 77,
      "hit": false,
      "t": 74427.43750000003,
      "d": 229.00750000000698,
      "v": 84
    },
    {
      "midi": 67,
      "hit": false,
      "t": 74427.43750000006,
      "d": 114.50375000000349,
      "v": 92
    },
    {
      "midi": 67,
      "hit": false,
      "t": 74427.43750000007,
      "d": 229.00750000000698,
      "v": 78
    },
    {
      "midi": 60,
      "hit": false,
      "t": 74541.94125000006,
      "d": 114.50375000000349,
      "v": 83
    },
    {
      "midi": 60,
      "hit": false,
      "t": 74541.94125000008,
      "d": 114.50375000000349,
      "v": 70
    },
    {
      "midi": 54,
      "hit": false,
      "t": 74551.48322916587,
      "d": 9.541979166664532,
      "v": 35
    },
    {
      "midi": 38,
      "hit": false,
      "t": 74651.67401041587,
      "d": 9.541979166679084,
      "v": 96
    },
    {
      "midi": 42,
      "hit": false,
      "t": 74656.4449999992,
      "d": 9.541979166679084,
      "v": 125
    },
    {
      "midi": 54,
      "hit": false,
      "t": 74656.4449999992,
      "d": 9.541979166679084,
      "v": 75
    },
    {
      "midi": 64,
      "hit": false,
      "t": 74656.44499999999,
      "d": 190.8395833333343,
      "v": 120
    },
    {
      "midi": 67,
      "hit": false,
      "t": 74656.44499999999,
      "d": 190.8395833333343,
      "v": 120
    },
    {
      "midi": 72,
      "hit": false,
      "t": 74656.44499999999,
      "d": 190.8395833333343,
      "v": 120
    },
    {
      "midi": 79,
      "hit": false,
      "t": 74656.44500000004,
      "d": 229.00750000000698,
      "v": 84
    },
    {
      "midi": 67,
      "hit": false,
      "t": 74656.44500000007,
      "d": 114.50375000000349,
      "v": 103
    },
    {
      "midi": 67,
      "hit": false,
      "t": 74656.44500000008,
      "d": 114.50375000000349,
      "v": 86
    },
    {
      "midi": 67,
      "hit": false,
      "t": 74770.94875000007,
      "d": 114.50375000000349,
      "v": 92
    },
    {
      "midi": 67,
      "hit": false,
      "t": 74770.94875000008,
      "d": 229.00750000000698,
      "v": 78
    },
    {
      "midi": 54,
      "hit": false,
      "t": 74780.49072916589,
      "d": 9.541979166664532,
      "v": 35
    },
    {
      "midi": 36,
      "hit": false,
      "t": 74885.45249999921,
      "d": 9.541979166664532,
      "v": 108
    },
    {
      "midi": 54,
      "hit": false,
      "t": 74885.45249999921,
      "d": 9.541979166664532,
      "v": 55
    },
    {
      "midi": 64,
      "hit": false,
      "t": 74885.4525,
      "d": 190.8395833333343,
      "v": 120
    },
    {
      "midi": 67,
      "hit": false,
      "t": 74885.4525,
      "d": 190.8395833333343,
      "v": 120
    },
    {
      "midi": 72,
      "hit": false,
      "t": 74885.4525,
      "d": 190.8395833333343,
      "v": 120
    },
    {
      "midi": 81,
      "hit": false,
      "t": 74885.45250000004,
      "d": 229.00750000000698,
      "v": 84
    },
    {
      "midi": 60,
      "hit": false,
      "t": 74885.45250000007,
      "d": 114.50375000000349,
      "v": 83
    },
    {
      "midi": 60,
      "hit": false,
      "t": 74885.45250000009,
      "d": 114.50375000000349,
      "v": 70
    },
    {
      "midi": 67,
      "hit": false,
      "t": 74999.95625000008,
      "d": 114.50375000000349,
      "v": 103
    },
    {
      "midi": 67,
      "hit": false,
      "t": 74999.95625000009,
      "d": 114.50375000000349,
      "v": 86
    },
    {
      "midi": 54,
      "hit": false,
      "t": 75009.49822916588,
      "d": 9.541979166664532,
      "v": 35
    },
    {
      "midi": 38,
      "hit": false,
      "t": 75109.68901041588,
      "d": 9.541979166679084,
      "v": 96
    },
    {
      "midi": 42,
      "hit": false,
      "t": 75114.45999999922,
      "d": 9.541979166679084,
      "v": 125
    },
    {
      "midi": 54,
      "hit": false,
      "t": 75114.45999999922,
      "d": 9.541979166679084,
      "v": 75
    },
    {
      "midi": 62,
      "hit": false,
      "t": 75114.46,
      "d": 343.5112499999959,
      "v": 120
    },
    {
      "midi": 67,
      "hit": false,
      "t": 75114.46,
      "d": 343.5112499999959,
      "v": 120
    },
    {
      "midi": 71,
      "hit": false,
      "t": 75114.46,
      "d": 343.5112499999959,
      "v": 120
    },
    {
      "midi": 64,
      "hit": false,
      "t": 75114.46000000002,
      "d": 1603.0525000000052,
      "v": 105
    },
    {
      "midi": 71,
      "hit": false,
      "t": 75114.46000000002,
      "d": 1603.0525000000052,
      "v": 105
    },
    {
      "midi": 67,
      "hit": false,
      "t": 75114.46000000002,
      "d": 1603.0525000000052,
      "v": 105
    },
    {
      "midi": 79,
      "hit": false,
      "t": 75114.46000000005,
      "d": 458.0149999999994,
      "v": 84
    },
    {
      "midi": 59,
      "hit": false,
      "t": 75114.46000000008,
      "d": 114.50375000000349,
      "v": 92
    },
    {
      "midi": 59,
      "hit": false,
      "t": 75114.4600000001,
      "d": 114.50375000000349,
      "v": 78
    },
    {
      "midi": 83,
      "hit": false,
      "t": 75124.00197916666,
      "d": 1832.0599999999977,
      "v": 80
    },
    {
      "midi": 59,
      "hit": false,
      "t": 75228.96375000008,
      "d": 114.50375000000349,
      "v": 92
    },
    {
      "midi": 59,
      "hit": false,
      "t": 75228.9637500001,
      "d": 114.50375000000349,
      "v": 78
    },
    {
      "midi": 54,
      "hit": false,
      "t": 75238.5057291659,
      "d": 9.541979166664532,
      "v": 35
    },
    {
      "midi": 36,
      "hit": false,
      "t": 75343.46749999923,
      "d": 9.541979166664532,
      "v": 108
    },
    {
      "midi": 54,
      "hit": false,
      "t": 75343.46749999923,
      "d": 9.541979166664532,
      "v": 55
    },
    {
      "midi": 62,
      "hit": false,
      "t": 75343.46750000009,
      "d": 114.50375000000349,
      "v": 92
    },
    {
      "midi": 62,
      "hit": false,
      "t": 75343.4675000001,
      "d": 114.50375000000349,
      "v": 78
    },
    {
      "midi": 62,
      "hit": false,
      "t": 75457.97125000009,
      "d": 114.50375000000349,
      "v": 92
    },
    {
      "midi": 62,
      "hit": false,
      "t": 75457.9712500001,
      "d": 114.50375000000349,
      "v": 78
    },
    {
      "midi": 54,
      "hit": false,
      "t": 75467.5132291659,
      "d": 9.541979166664532,
      "v": 35
    },
    {
      "midi": 38,
      "hit": false,
      "t": 75567.7040104159,
      "d": 9.541979166679084,
      "v": 96
    },
    {
      "midi": 42,
      "hit": false,
      "t": 75572.47499999923,
      "d": 9.541979166679084,
      "v": 125
    },
    {
      "midi": 54,
      "hit": false,
      "t": 75572.47499999923,
      "d": 9.541979166679084,
      "v": 75
    },
    {
      "midi": 62,
      "hit": false,
      "t": 75572.475,
      "d": 343.5112499999959,
      "v": 120
    },
    {
      "midi": 65,
      "hit": false,
      "t": 75572.475,
      "d": 343.5112499999959,
      "v": 120
    },
    {
      "midi": 69,
      "hit": false,
      "t": 75572.475,
      "d": 343.5112499999959,
      "v": 120
    },
    {
      "midi": 77,
      "hit": false,
      "t": 75572.47500000002,
      "d": 453.2440104166599,
      "v": 105
    },
    {
      "midi": 89,
      "hit": false,
      "t": 75572.47500000002,
      "d": 453.2440104166599,
      "v": 105
    },
    {
      "midi": 77,
      "hit": false,
      "t": 75572.47500000005,
      "d": 458.0149999999994,
      "v": 84
    },
    {
      "midi": 67,
      "hit": false,
      "t": 75572.4750000001,
      "d": 114.50375000000349,
      "v": 103
    },
    {
      "midi": 67,
      "hit": false,
      "t": 75572.47500000011,
      "d": 114.50375000000349,
      "v": 86
    },
    {
      "midi": 67,
      "hit": false,
      "t": 75686.9787500001,
      "d": 114.50375000000349,
      "v": 92
    },
    {
      "midi": 67,
      "hit": false,
      "t": 75686.97875000011,
      "d": 229.00750000000698,
      "v": 78
    },
    {
      "midi": 54,
      "hit": false,
      "t": 75696.52072916592,
      "d": 9.541979166664532,
      "v": 35
    },
    {
      "midi": 54,
      "hit": false,
      "t": 75801.48249999924,
      "d": 9.541979166664532,
      "v": 55
    },
    {
      "midi": 59,
      "hit": false,
      "t": 75801.4825000001,
      "d": 114.50375000000349,
      "v": 83
    },
    {
      "midi": 59,
      "hit": false,
      "t": 75801.48250000011,
      "d": 114.50375000000349,
      "v": 70
    },
    {
      "midi": 67,
      "hit": false,
      "t": 75915.9862500001,
      "d": 114.50375000000349,
      "v": 103
    },
    {
      "midi": 67,
      "hit": false,
      "t": 75915.98625000012,
      "d": 229.00750000000698,
      "v": 86
    },
    {
      "midi": 54,
      "hit": false,
      "t": 75925.52822916591,
      "d": 9.541979166664532,
      "v": 35
    },
    {
      "midi": 38,
      "hit": false,
      "t": 76025.71901041591,
      "d": 9.541979166679084,
      "v": 96
    },
    {
      "midi": 42,
      "hit": false,
      "t": 76030.48999999925,
      "d": 9.541979166679084,
      "v": 125
    },
    {
      "midi": 54,
      "hit": false,
      "t": 76030.48999999925,
      "d": 9.541979166679084,
      "v": 75
    },
    {
      "midi": 60,
      "hit": false,
      "t": 76030.49,
      "d": 343.5112499999959,
      "v": 120
    },
    {
      "midi": 64,
      "hit": false,
      "t": 76030.49,
      "d": 343.5112499999959,
      "v": 120
    },
    {
      "midi": 67,
      "hit": false,
      "t": 76030.49,
      "d": 343.5112499999959,
      "v": 120
    },
    {
      "midi": 76,
      "hit": false,
      "t": 76030.49000000002,
      "d": 453.2440104166599,
      "v": 105
    },
    {
      "midi": 88,
      "hit": false,
      "t": 76030.49000000002,
      "d": 453.2440104166599,
      "v": 105
    },
    {
      "midi": 76,
      "hit": false,
      "t": 76030.49000000005,
      "d": 458.0149999999994,
      "v": 84
    },
    {
      "midi": 59,
      "hit": false,
      "t": 76030.4900000001,
      "d": 114.50375000000349,
      "v": 83
    },
    {
      "midi": 59,
      "hit": false,
      "t": 76030.49000000012,
      "d": 114.50375000000349,
      "v": 70
    },
    {
      "midi": 67,
      "hit": false,
      "t": 76144.99375000011,
      "d": 114.50375000000349,
      "v": 103
    },
    {
      "midi": 67,
      "hit": false,
      "t": 76144.99375000013,
      "d": 114.50375000000349,
      "v": 78
    },
    {
      "midi": 54,
      "hit": false,
      "t": 76154.53572916593,
      "d": 9.541979166664532,
      "v": 35
    },
    {
      "midi": 36,
      "hit": false,
      "t": 76259.49749999926,
      "d": 9.541979166664532,
      "v": 108
    },
    {
      "midi": 54,
      "hit": false,
      "t": 76259.49749999926,
      "d": 9.541979166664532,
      "v": 55
    },
    {
      "midi": 67,
      "hit": false,
      "t": 76259.49750000011,
      "d": 114.50375000000349,
      "v": 92
    },
    {
      "midi": 67,
      "hit": false,
      "t": 76259.49750000013,
      "d": 229.00750000000698,
      "v": 86
    },
    {
      "midi": 59,
      "hit": false,
      "t": 76374.00125000012,
      "d": 114.50375000000349,
      "v": 83
    },
    {
      "midi": 59,
      "hit": false,
      "t": 76374.00125000013,
      "d": 114.50375000000349,
      "v": 70
    },
    {
      "midi": 54,
      "hit": false,
      "t": 76383.54322916592,
      "d": 9.541979166664532,
      "v": 35
    },
    {
      "midi": 38,
      "hit": false,
      "t": 76483.73401041592,
      "d": 9.541979166679084,
      "v": 96
    },
    {
      "midi": 42,
      "hit": false,
      "t": 76488.50499999926,
      "d": 9.541979166679084,
      "v": 125
    },
    {
      "midi": 54,
      "hit": false,
      "t": 76488.50499999926,
      "d": 9.541979166679084,
      "v": 75
    },
    {
      "midi": 59,
      "hit": false,
      "t": 76488.505,
      "d": 343.5112499999959,
      "v": 120
    },
    {
      "midi": 62,
      "hit": false,
      "t": 76488.505,
      "d": 343.5112499999959,
      "v": 120
    },
    {
      "midi": 65,
      "hit": false,
      "t": 76488.505,
      "d": 343.5112499999959,
      "v": 120
    },
    {
      "midi": 86,
      "hit": false,
      "t": 76488.50500000002,
      "d": 453.2440104166744,
      "v": 105
    },
    {
      "midi": 74,
      "hit": false,
      "t": 76488.50500000002,
      "d": 453.2440104166744,
      "v": 105
    },
    {
      "midi": 74,
      "hit": false,
      "t": 76488.50500000005,
      "d": 458.0149999999994,
      "v": 84
    },
    {
      "midi": 67,
      "hit": false,
      "t": 76488.50500000012,
      "d": 114.50375000000349,
      "v": 103
    },
    {
      "midi": 67,
      "hit": false,
      "t": 76488.50500000014,
      "d": 114.50375000000349,
      "v": 86
    },
    {
      "midi": 67,
      "hit": false,
      "t": 76603.00875000012,
      "d": 114.50375000000349,
      "v": 92
    },
    {
      "midi": 67,
      "hit": false,
      "t": 76603.00875000014,
      "d": 229.00750000000698,
      "v": 78
    },
    {
      "midi": 54,
      "hit": false,
      "t": 76612.55072916595,
      "d": 9.541979166664532,
      "v": 35
    },
    {
      "midi": 36,
      "hit": false,
      "t": 76717.51249999927,
      "d": 9.541979166664532,
      "v": 108
    },
    {
      "midi": 54,
      "hit": false,
      "t": 76717.51249999927,
      "d": 9.541979166664532,
      "v": 55
    },
    {
      "midi": 59,
      "hit": false,
      "t": 76717.51250000013,
      "d": 114.50375000000349,
      "v": 83
    },
    {
      "midi": 59,
      "hit": false,
      "t": 76717.51250000014,
      "d": 114.50375000000349,
      "v": 70
    },
    {
      "midi": 67,
      "hit": false,
      "t": 76832.01625000013,
      "d": 114.50375000000349,
      "v": 103
    },
    {
      "midi": 67,
      "hit": false,
      "t": 76832.01625000015,
      "d": 114.50375000000349,
      "v": 86
    },
    {
      "midi": 54,
      "hit": false,
      "t": 76841.55822916594,
      "d": 9.541979166664532,
      "v": 35
    },
    {
      "midi": 38,
      "hit": false,
      "t": 76941.74901041594,
      "d": 9.541979166679084,
      "v": 96
    },
    {
      "midi": 42,
      "hit": false,
      "t": 76946.51999999928,
      "d": 9.541979166679084,
      "v": 125
    },
    {
      "midi": 54,
      "hit": false,
      "t": 76946.51999999928,
      "d": 9.541979166679084,
      "v": 75
    },
    {
      "midi": 60,
      "hit": false,
      "t": 76946.52,
      "d": 343.5112499999959,
      "v": 120
    },
    {
      "midi": 69,
      "hit": false,
      "t": 76946.52,
      "d": 343.5112499999959,
      "v": 120
    },
    {
      "midi": 64,
      "hit": false,
      "t": 76946.52,
      "d": 343.5112499999959,
      "v": 120
    },
    {
      "midi": 72,
      "hit": false,
      "t": 76946.52000000003,
      "d": 453.2440104166599,
      "v": 105
    },
    {
      "midi": 84,
      "hit": false,
      "t": 76946.52000000003,
      "d": 453.2440104166599,
      "v": 105
    },
    {
      "midi": 64,
      "hit": false,
      "t": 76946.52000000003,
      "d": 1603.0524999999907,
      "v": 105
    },
    {
      "midi": 67,
      "hit": false,
      "t": 76946.52000000003,
      "d": 1603.0524999999907,
      "v": 105
    },
    {
      "midi": 60,
      "hit": false,
      "t": 76946.52000000003,
      "d": 1603.0524999999907,
      "v": 105
    },
    {
      "midi": 69,
      "hit": false,
      "t": 76946.52000000003,
      "d": 1603.0524999999907,
      "v": 105
    },
    {
      "midi": 76,
      "hit": false,
      "t": 76946.52000000005,
      "d": 458.0149999999994,
      "v": 84
    },
    {
      "midi": 60,
      "hit": false,
      "t": 76946.52000000014,
      "d": 114.50375000000349,
      "v": 92
    },
    {
      "midi": 60,
      "hit": false,
      "t": 76946.52000000015,
      "d": 114.50375000000349,
      "v": 78
    },
    {
      "midi": 81,
      "hit": false,
      "t": 76956.06197916665,
      "d": 1832.0599999999977,
      "v": 80
    },
    {
      "midi": 60,
      "hit": false,
      "t": 77061.02375000014,
      "d": 114.50375000000349,
      "v": 92
    },
    {
      "midi": 60,
      "hit": false,
      "t": 77061.02375000015,
      "d": 114.50375000000349,
      "v": 78
    },
    {
      "midi": 54,
      "hit": false,
      "t": 77070.56572916596,
      "d": 9.541979166664532,
      "v": 35
    },
    {
      "midi": 36,
      "hit": false,
      "t": 77175.52749999928,
      "d": 9.541979166664532,
      "v": 108
    },
    {
      "midi": 54,
      "hit": false,
      "t": 77175.52749999928,
      "d": 9.541979166664532,
      "v": 55
    },
    {
      "midi": 64,
      "hit": false,
      "t": 77175.52750000014,
      "d": 114.50375000000349,
      "v": 92
    },
    {
      "midi": 64,
      "hit": false,
      "t": 77175.52750000016,
      "d": 114.50375000000349,
      "v": 78
    },
    {
      "midi": 64,
      "hit": false,
      "t": 77290.03125000015,
      "d": 114.50375000000349,
      "v": 92
    },
    {
      "midi": 64,
      "hit": false,
      "t": 77290.03125000016,
      "d": 114.50375000000349,
      "v": 78
    },
    {
      "midi": 54,
      "hit": false,
      "t": 77299.57322916595,
      "d": 9.541979166664532,
      "v": 35
    },
    {
      "midi": 38,
      "hit": false,
      "t": 77399.76401041595,
      "d": 9.541979166679084,
      "v": 96
    },
    {
      "midi": 42,
      "hit": false,
      "t": 77404.53499999929,
      "d": 9.541979166679084,
      "v": 125
    },
    {
      "midi": 54,
      "hit": false,
      "t": 77404.53499999929,
      "d": 9.541979166679084,
      "v": 75
    },
    {
      "midi": 60,
      "hit": false,
      "t": 77404.535,
      "d": 343.5112499999959,
      "v": 120
    },
    {
      "midi": 69,
      "hit": false,
      "t": 77404.535,
      "d": 343.5112499999959,
      "v": 120
    },
    {
      "midi": 64,
      "hit": false,
      "t": 77404.535,
      "d": 343.5112499999959,
      "v": 120
    },
    {
      "midi": 72,
      "hit": false,
      "t": 77404.53500000003,
      "d": 453.2440104166599,
      "v": 105
    },
    {
      "midi": 84,
      "hit": false,
      "t": 77404.53500000003,
      "d": 453.2440104166599,
      "v": 105
    },
    {
      "midi": 76,
      "hit": false,
      "t": 77404.53500000005,
      "d": 458.0149999999994,
      "v": 84
    },
    {
      "midi": 69,
      "hit": false,
      "t": 77404.53500000015,
      "d": 114.50375000000349,
      "v": 103
    },
    {
      "midi": 69,
      "hit": false,
      "t": 77404.53500000016,
      "d": 114.50375000000349,
      "v": 86
    },
    {
      "midi": 69,
      "hit": false,
      "t": 77519.03875000015,
      "d": 114.50375000000349,
      "v": 92
    },
    {
      "midi": 69,
      "hit": false,
      "t": 77519.03875000017,
      "d": 229.00750000000698,
      "v": 78
    },
    {
      "midi": 54,
      "hit": false,
      "t": 77528.58072916597,
      "d": 9.541979166664532,
      "v": 35
    },
    {
      "midi": 54,
      "hit": false,
      "t": 77633.5424999993,
      "d": 9.541979166664532,
      "v": 55
    },
    {
      "midi": 60,
      "hit": false,
      "t": 77633.54250000016,
      "d": 114.50375000000349,
      "v": 83
    },
    {
      "midi": 60,
      "hit": false,
      "t": 77633.54250000017,
      "d": 114.50375000000349,
      "v": 70
    },
    {
      "midi": 69,
      "hit": false,
      "t": 77748.04625000016,
      "d": 114.50375000000349,
      "v": 103
    },
    {
      "midi": 69,
      "hit": false,
      "t": 77748.04625000017,
      "d": 229.00750000000698,
      "v": 86
    },
    {
      "midi": 54,
      "hit": false,
      "t": 77757.58822916597,
      "d": 9.541979166664532,
      "v": 35
    },
    {
      "midi": 38,
      "hit": false,
      "t": 77857.77901041596,
      "d": 9.541979166679084,
      "v": 96
    },
    {
      "midi": 42,
      "hit": false,
      "t": 77862.5499999993,
      "d": 9.541979166679084,
      "v": 125
    },
    {
      "midi": 54,
      "hit": false,
      "t": 77862.5499999993,
      "d": 9.541979166679084,
      "v": 75
    },
    {
      "midi": 60,
      "hit": false,
      "t": 77862.55,
      "d": 190.8395833333343,
      "v": 120
    },
    {
      "midi": 69,
      "hit": false,
      "t": 77862.55,
      "d": 190.8395833333343,
      "v": 120
    },
    {
      "midi": 57,
      "hit": false,
      "t": 77862.55,
      "d": 190.8395833333343,
      "v": 120
    },
    {
      "midi": 72,
      "hit": false,
      "t": 77862.55000000005,
      "d": 229.00750000000698,
      "v": 84
    },
    {
      "midi": 60,
      "hit": false,
      "t": 77862.55000000016,
      "d": 114.50375000000349,
      "v": 83
    },
    {
      "midi": 60,
      "hit": false,
      "t": 77862.55000000018,
      "d": 114.50375000000349,
      "v": 70
    },
    {
      "midi": 69,
      "hit": false,
      "t": 77977.05375000017,
      "d": 114.50375000000349,
      "v": 103
    },
    {
      "midi": 69,
      "hit": false,
      "t": 77977.05375000018,
      "d": 114.50375000000349,
      "v": 86
    },
    {
      "midi": 54,
      "hit": false,
      "t": 77986.59572916599,
      "d": 9.541979166664532,
      "v": 35
    },
    {
      "midi": 36,
      "hit": false,
      "t": 78091.55749999931,
      "d": 9.541979166664532,
      "v": 108
    },
    {
      "midi": 54,
      "hit": false,
      "t": 78091.55749999931,
      "d": 9.541979166664532,
      "v": 55
    },
    {
      "midi": 59,
      "hit": false,
      "t": 78091.55750000001,
      "d": 190.8395833333343,
      "v": 120
    },
    {
      "midi": 62,
      "hit": false,
      "t": 78091.55750000001,
      "d": 190.8395833333343,
      "v": 120
    },
    {
      "midi": 69,
      "hit": false,
      "t": 78091.55750000001,
      "d": 190.8395833333343,
      "v": 120
    },
    {
      "midi": 74,
      "hit": false,
      "t": 78091.55750000005,
      "d": 229.00750000000698,
      "v": 84
    },
    {
      "midi": 69,
      "hit": false,
      "t": 78091.55750000017,
      "d": 114.50375000000349,
      "v": 92
    },
    {
      "midi": 69,
      "hit": false,
      "t": 78091.55750000018,
      "d": 229.00750000000698,
      "v": 78
    },
    {
      "midi": 60,
      "hit": false,
      "t": 78206.06125000017,
      "d": 114.50375000000349,
      "v": 83
    },
    {
      "midi": 60,
      "hit": false,
      "t": 78206.06125000019,
      "d": 114.50375000000349,
      "v": 70
    },
    {
      "midi": 54,
      "hit": false,
      "t": 78215.60322916598,
      "d": 9.541979166664532,
      "v": 35
    },
    {
      "midi": 38,
      "hit": false,
      "t": 78315.79401041598,
      "d": 9.541979166679084,
      "v": 96
    },
    {
      "midi": 42,
      "hit": false,
      "t": 78320.56499999932,
      "d": 9.541979166679084,
      "v": 125
    },
    {
      "midi": 54,
      "hit": false,
      "t": 78320.56499999932,
      "d": 9.541979166679084,
      "v": 75
    },
    {
      "midi": 60,
      "hit": false,
      "t": 78320.56500000002,
      "d": 190.8395833333343,
      "v": 120
    },
    {
      "midi": 64,
      "hit": false,
      "t": 78320.56500000002,
      "d": 190.8395833333343,
      "v": 120
    },
    {
      "midi": 69,
      "hit": false,
      "t": 78320.56500000002,
      "d": 190.8395833333343,
      "v": 120
    },
    {
      "midi": 76,
      "hit": false,
      "t": 78320.56500000006,
      "d": 229.00750000000698,
      "v": 84
    },
    {
      "midi": 69,
      "hit": false,
      "t": 78320.56500000018,
      "d": 114.50375000000349,
      "v": 103
    },
    {
      "midi": 69,
      "hit": false,
      "t": 78320.56500000019,
      "d": 114.50375000000349,
      "v": 86
    },
    {
      "midi": 69,
      "hit": false,
      "t": 78435.06875000018,
      "d": 114.50375000000349,
      "v": 92
    },
    {
      "midi": 69,
      "hit": false,
      "t": 78435.0687500002,
      "d": 229.00750000000698,
      "v": 78
    },
    {
      "midi": 54,
      "hit": false,
      "t": 78444.610729166,
      "d": 9.541979166664532,
      "v": 35
    },
    {
      "midi": 36,
      "hit": false,
      "t": 78549.57249999933,
      "d": 9.541979166664532,
      "v": 108
    },
    {
      "midi": 54,
      "hit": false,
      "t": 78549.57249999933,
      "d": 9.541979166664532,
      "v": 55
    },
    {
      "midi": 62,
      "hit": false,
      "t": 78549.57250000002,
      "d": 190.8395833333343,
      "v": 120
    },
    {
      "midi": 65,
      "hit": false,
      "t": 78549.57250000002,
      "d": 190.8395833333343,
      "v": 120
    },
    {
      "midi": 69,
      "hit": false,
      "t": 78549.57250000002,
      "d": 190.8395833333343,
      "v": 120
    },
    {
      "midi": 77,
      "hit": false,
      "t": 78549.57250000007,
      "d": 229.00750000000698,
      "v": 84
    },
    {
      "midi": 60,
      "hit": false,
      "t": 78549.57250000018,
      "d": 114.50375000000349,
      "v": 83
    },
    {
      "midi": 60,
      "hit": false,
      "t": 78549.5725000002,
      "d": 114.50375000000349,
      "v": 70
    },
    {
      "midi": 69,
      "hit": false,
      "t": 78664.07625000019,
      "d": 114.50375000000349,
      "v": 103
    },
    {
      "midi": 69,
      "hit": false,
      "t": 78664.0762500002,
      "d": 114.50375000000349,
      "v": 86
    },
    {
      "midi": 54,
      "hit": false,
      "t": 78673.618229166,
      "d": 9.541979166664532,
      "v": 35
    },
    {
      "midi": 38,
      "hit": false,
      "t": 78773.809010416,
      "d": 9.541979166679084,
      "v": 96
    },
    {
      "midi": 42,
      "hit": false,
      "t": 78778.57999999933,
      "d": 9.541979166679084,
      "v": 125
    },
    {
      "midi": 54,
      "hit": false,
      "t": 78778.57999999933,
      "d": 9.541979166679084,
      "v": 75
    },
    {
      "midi": 88,
      "hit": false,
      "t": 78778.58000000003,
      "d": 453.2440104166599,
      "v": 105
    },
    {
      "midi": 76,
      "hit": false,
      "t": 78778.58000000003,
      "d": 453.2440104166599,
      "v": 105
    },
    {
      "midi": 62,
      "hit": false,
      "t": 78778.58000000003,
      "d": 1145.0375000000058,
      "v": 105
    },
    {
      "midi": 64,
      "hit": false,
      "t": 78778.58000000003,
      "d": 1145.0375000000058,
      "v": 105
    },
    {
      "midi": 67,
      "hit": false,
      "t": 78778.58000000003,
      "d": 1145.0375000000058,
      "v": 105
    },
    {
      "midi": 59,
      "hit": false,
      "t": 78778.58000000003,
      "d": 1145.0375000000058,
      "v": 105
    },
    {
      "midi": 60,
      "hit": false,
      "t": 78778.58000000003,
      "d": 343.5112499999959,
      "v": 120
    },
    {
      "midi": 64,
      "hit": false,
      "t": 78778.58000000003,
      "d": 343.5112499999959,
      "v": 120
    },
    {
      "midi": 67,
      "hit": false,
      "t": 78778.58000000003,
      "d": 343.5112499999959,
      "v": 120
    },
    {
      "midi": 76,
      "hit": false,
      "t": 78778.58000000007,
      "d": 458.0149999999994,
      "v": 84
    },
    {
      "midi": 59,
      "hit": false,
      "t": 78778.58000000019,
      "d": 114.50375000000349,
      "v": 92
    },
    {
      "midi": 59,
      "hit": false,
      "t": 78778.5800000002,
      "d": 114.50375000000349,
      "v": 78
    },
    {
      "midi": 79,
      "hit": false,
      "t": 78788.12197916665,
      "d": 1374.0449999999983,
      "v": 80
    },
    {
      "midi": 59,
      "hit": false,
      "t": 78893.0837500002,
      "d": 114.50375000000349,
      "v": 92
    },
    {
      "midi": 59,
      "hit": false,
      "t": 78893.08375000021,
      "d": 114.50375000000349,
      "v": 78
    },
    {
      "midi": 54,
      "hit": false,
      "t": 78902.62572916601,
      "d": 9.541979166664532,
      "v": 35
    },
    {
      "midi": 36,
      "hit": false,
      "t": 79007.58749999934,
      "d": 9.541979166664532,
      "v": 108
    },
    {
      "midi": 54,
      "hit": false,
      "t": 79007.58749999934,
      "d": 9.541979166664532,
      "v": 55
    },
    {
      "midi": 64,
      "hit": false,
      "t": 79007.5875000002,
      "d": 114.50375000000349,
      "v": 92
    },
    {
      "midi": 64,
      "hit": false,
      "t": 79007.58750000021,
      "d": 114.50375000000349,
      "v": 78
    },
    {
      "midi": 64,
      "hit": false,
      "t": 79122.0912500002,
      "d": 114.50375000000349,
      "v": 92
    },
    {
      "midi": 64,
      "hit": false,
      "t": 79122.09125000022,
      "d": 114.50375000000349,
      "v": 78
    },
    {
      "midi": 54,
      "hit": false,
      "t": 79131.63322916601,
      "d": 9.541979166664532,
      "v": 35
    },
    {
      "midi": 38,
      "hit": false,
      "t": 79231.824010416,
      "d": 9.541979166679084,
      "v": 96
    },
    {
      "midi": 42,
      "hit": false,
      "t": 79236.59499999935,
      "d": 9.541979166679084,
      "v": 125
    },
    {
      "midi": 54,
      "hit": false,
      "t": 79236.59499999935,
      "d": 9.541979166679084,
      "v": 75
    },
    {
      "midi": 74,
      "hit": false,
      "t": 79236.59500000003,
      "d": 453.2440104166599,
      "v": 105
    },
    {
      "midi": 86,
      "hit": false,
      "t": 79236.59500000003,
      "d": 453.2440104166599,
      "v": 105
    },
    {
      "midi": 60,
      "hit": false,
      "t": 79236.59500000003,
      "d": 190.8395833333343,
      "v": 120
    },
    {
      "midi": 64,
      "hit": false,
      "t": 79236.59500000003,
      "d": 190.8395833333343,
      "v": 120
    },
    {
      "midi": 67,
      "hit": false,
      "t": 79236.59500000003,
      "d": 190.8395833333343,
      "v": 120
    },
    {
      "midi": 74,
      "hit": false,
      "t": 79236.59500000007,
      "d": 229.00750000000698,
      "v": 84
    },
    {
      "midi": 67,
      "hit": false,
      "t": 79236.5950000002,
      "d": 114.50375000000349,
      "v": 103
    },
    {
      "midi": 67,
      "hit": false,
      "t": 79236.59500000022,
      "d": 114.50375000000349,
      "v": 86
    },
    {
      "midi": 67,
      "hit": false,
      "t": 79351.09875000021,
      "d": 114.50375000000349,
      "v": 92
    },
    {
      "midi": 67,
      "hit": false,
      "t": 79351.09875000022,
      "d": 229.00750000000698,
      "v": 78
    },
    {
      "midi": 54,
      "hit": false,
      "t": 79360.64072916603,
      "d": 9.541979166664532,
      "v": 35
    },
    {
      "midi": 54,
      "hit": false,
      "t": 79465.60249999935,
      "d": 9.541979166664532,
      "v": 55
    },
    {
      "midi": 60,
      "hit": false,
      "t": 79465.60250000004,
      "d": 190.8395833333343,
      "v": 120
    },
    {
      "midi": 64,
      "hit": false,
      "t": 79465.60250000004,
      "d": 190.8395833333343,
      "v": 120
    },
    {
      "midi": 67,
      "hit": false,
      "t": 79465.60250000004,
      "d": 190.8395833333343,
      "v": 120
    },
    {
      "midi": 74,
      "hit": false,
      "t": 79465.60250000008,
      "d": 229.00750000000698,
      "v": 84
    },
    {
      "midi": 59,
      "hit": false,
      "t": 79465.60250000021,
      "d": 114.50375000000349,
      "v": 83
    },
    {
      "midi": 59,
      "hit": false,
      "t": 79465.60250000023,
      "d": 114.50375000000349,
      "v": 70
    },
    {
      "midi": 67,
      "hit": false,
      "t": 79580.10625000022,
      "d": 114.50375000000349,
      "v": 103
    },
    {
      "midi": 67,
      "hit": false,
      "t": 79580.10625000023,
      "d": 114.50375000000349,
      "v": 86
    },
    {
      "midi": 54,
      "hit": false,
      "t": 79589.64822916602,
      "d": 9.541979166664532,
      "v": 35
    },
    {
      "midi": 38,
      "hit": false,
      "t": 79689.83901041602,
      "d": 9.541979166679084,
      "v": 96
    },
    {
      "midi": 42,
      "hit": false,
      "t": 79694.60999999936,
      "d": 9.541979166679084,
      "v": 125
    },
    {
      "midi": 54,
      "hit": false,
      "t": 79694.60999999936,
      "d": 9.541979166679084,
      "v": 75
    },
    {
      "midi": 84,
      "hit": false,
      "t": 79694.61000000003,
      "d": 453.2440104166744,
      "v": 105
    },
    {
      "midi": 72,
      "hit": false,
      "t": 79694.61000000003,
      "d": 453.2440104166744,
      "v": 105
    },
    {
      "midi": 67,
      "hit": false,
      "t": 79694.61000000004,
      "d": 343.5112499999959,
      "v": 120
    },
    {
      "midi": 64,
      "hit": false,
      "t": 79694.61000000004,
      "d": 343.5112499999959,
      "v": 120
    },
    {
      "midi": 60,
      "hit": false,
      "t": 79694.61000000004,
      "d": 343.5112499999959,
      "v": 120
    },
    {
      "midi": 72,
      "hit": false,
      "t": 79694.61000000009,
      "d": 458.0149999999994,
      "v": 84
    },
    {
      "midi": 59,
      "hit": false,
      "t": 79694.61000000022,
      "d": 114.50375000000349,
      "v": 83
    },
    {
      "midi": 59,
      "hit": false,
      "t": 79694.61000000023,
      "d": 114.50375000000349,
      "v": 70
    },
    {
      "midi": 67,
      "hit": false,
      "t": 79809.11375000022,
      "d": 114.50375000000349,
      "v": 103
    },
    {
      "midi": 67,
      "hit": false,
      "t": 79809.11375000024,
      "d": 114.50375000000349,
      "v": 86
    },
    {
      "midi": 54,
      "hit": false,
      "t": 79818.65572916604,
      "d": 9.541979166664532,
      "v": 35
    },
    {
      "midi": 36,
      "hit": false,
      "t": 79923.61749999937,
      "d": 9.541979166664532,
      "v": 108
    },
    {
      "midi": 54,
      "hit": false,
      "t": 79923.61749999937,
      "d": 9.541979166664532,
      "v": 55
    },
    {
      "midi": 67,
      "hit": false,
      "t": 79923.61750000023,
      "d": 114.50375000000349,
      "v": 92
    },
    {
      "midi": 67,
      "hit": false,
      "t": 79923.61750000024,
      "d": 229.00750000000698,
      "v": 78
    },
    {
      "midi": 59,
      "hit": false,
      "t": 80038.12125000023,
      "d": 114.50375000000349,
      "v": 83
    },
    {
      "midi": 59,
      "hit": false,
      "t": 80038.12125000024,
      "d": 114.50375000000349,
      "v": 70
    },
    {
      "midi": 54,
      "hit": false,
      "t": 80047.66322916604,
      "d": 9.541979166664532,
      "v": 35
    },
    {
      "midi": 38,
      "hit": false,
      "t": 80147.85401041603,
      "d": 9.541979166679084,
      "v": 96
    },
    {
      "midi": 42,
      "hit": false,
      "t": 80152.62499999937,
      "d": 9.541979166679084,
      "v": 125
    },
    {
      "midi": 54,
      "hit": false,
      "t": 80152.62499999937,
      "d": 9.541979166679084,
      "v": 75
    },
    {
      "midi": 59,
      "hit": false,
      "t": 80152.62500000004,
      "d": 400.7631249999977,
      "v": 105
    },
    {
      "midi": 68,
      "hit": false,
      "t": 80152.62500000004,
      "d": 400.7631249999977,
      "v": 105
    },
    {
      "midi": 62,
      "hit": false,
      "t": 80152.62500000004,
      "d": 400.7631249999977,
      "v": 105
    },
    {
      "midi": 64,
      "hit": false,
      "t": 80152.62500000004,
      "d": 400.7631249999977,
      "v": 105
    },
    {
      "midi": 71,
      "hit": false,
      "t": 80152.62500000004,
      "d": 453.2440104166599,
      "v": 105
    },
    {
      "midi": 83,
      "hit": false,
      "t": 80152.62500000004,
      "d": 453.2440104166599,
      "v": 105
    },
    {
      "midi": 68,
      "hit": false,
      "t": 80152.62500000004,
      "d": 343.5112499999959,
      "v": 120
    },
    {
      "midi": 62,
      "hit": false,
      "t": 80152.62500000004,
      "d": 343.5112499999959,
      "v": 120
    },
    {
      "midi": 59,
      "hit": false,
      "t": 80152.62500000004,
      "d": 343.5112499999959,
      "v": 120
    },
    {
      "midi": 71,
      "hit": false,
      "t": 80152.62500000009,
      "d": 458.0149999999994,
      "v": 84
    },
    {
      "midi": 59,
      "hit": false,
      "t": 80152.62500000023,
      "d": 114.50375000000349,
      "v": 83
    },
    {
      "midi": 59,
      "hit": false,
      "t": 80152.62500000025,
      "d": 114.50375000000349,
      "v": 70
    },
    {
      "midi": 80,
      "hit": false,
      "t": 80162.16697916665,
      "d": 458.0149999999994,
      "v": 80
    },
    {
      "midi": 68,
      "hit": false,
      "t": 80267.12875000024,
      "d": 114.50375000000349,
      "v": 103
    },
    {
      "midi": 68,
      "hit": false,
      "t": 80267.12875000025,
      "d": 114.50375000000349,
      "v": 86
    },
    {
      "midi": 54,
      "hit": false,
      "t": 80276.67072916606,
      "d": 9.541979166664532,
      "v": 35
    },
    {
      "midi": 36,
      "hit": false,
      "t": 80381.63249999938,
      "d": 9.541979166664532,
      "v": 108
    },
    {
      "midi": 54,
      "hit": false,
      "t": 80381.63249999938,
      "d": 9.541979166664532,
      "v": 55
    },
    {
      "midi": 68,
      "hit": false,
      "t": 80381.63250000024,
      "d": 114.50375000000349,
      "v": 92
    },
    {
      "midi": 68,
      "hit": false,
      "t": 80381.63250000025,
      "d": 229.00750000000698,
      "v": 78
    },
    {
      "midi": 59,
      "hit": false,
      "t": 80496.13625000024,
      "d": 114.50375000000349,
      "v": 83
    },
    {
      "midi": 59,
      "hit": false,
      "t": 80496.13625000026,
      "d": 114.50375000000349,
      "v": 70
    },
    {
      "midi": 54,
      "hit": false,
      "t": 80505.67822916605,
      "d": 9.541979166664532,
      "v": 35
    },
    {
      "midi": 38,
      "hit": false,
      "t": 80605.86901041605,
      "d": 9.541979166679084,
      "v": 96
    },
    {
      "midi": 49,
      "hit": false,
      "t": 80610.63999999939,
      "d": 9.541979166679084,
      "v": 100
    },
    {
      "midi": 54,
      "hit": false,
      "t": 80610.63999999939,
      "d": 9.541979166679084,
      "v": 75
    },
    {
      "midi": 57,
      "hit": false,
      "t": 80610.64000000004,
      "d": 1832.0599999999977,
      "v": 105
    },
    {
      "midi": 65,
      "hit": false,
      "t": 80610.64000000004,
      "d": 1832.0599999999977,
      "v": 105
    },
    {
      "midi": 60,
      "hit": false,
      "t": 80610.64000000004,
      "d": 1832.0599999999977,
      "v": 105
    },
    {
      "midi": 69,
      "hit": false,
      "t": 80610.64000000004,
      "d": 1832.0599999999977,
      "v": 105
    },
    {
      "midi": 57,
      "hit": false,
      "t": 80610.64000000004,
      "d": 190.8395833333343,
      "v": 120
    },
    {
      "midi": 60,
      "hit": false,
      "t": 80610.64000000004,
      "d": 190.8395833333343,
      "v": 120
    },
    {
      "midi": 69,
      "hit": false,
      "t": 80610.64000000004,
      "d": 190.8395833333343,
      "v": 120
    },
    {
      "midi": 72,
      "hit": false,
      "t": 80610.64000000009,
      "d": 229.00750000000698,
      "v": 84
    },
    {
      "midi": 57,
      "hit": false,
      "t": 80610.64000000025,
      "d": 114.50375000000349,
      "v": 103
    },
    {
      "midi": 57,
      "hit": false,
      "t": 80610.64000000026,
      "d": 114.50375000000349,
      "v": 86
    },
    {
      "midi": 81,
      "hit": false,
      "t": 80620.18197916665,
      "d": 1374.0449999999983,
      "v": 80
    },
    {
      "midi": 60,
      "hit": false,
      "t": 80725.14375000025,
      "d": 114.50375000000349,
      "v": 83
    },
    {
      "midi": 60,
      "hit": false,
      "t": 80725.14375000026,
      "d": 114.50375000000349,
      "v": 70
    },
    {
      "midi": 54,
      "hit": false,
      "t": 80734.68572916607,
      "d": 9.541979166664532,
      "v": 35
    },
    {
      "midi": 36,
      "hit": false,
      "t": 80839.6474999994,
      "d": 9.541979166664532,
      "v": 108
    },
    {
      "midi": 54,
      "hit": false,
      "t": 80839.6474999994,
      "d": 9.541979166664532,
      "v": 55
    },
    {
      "midi": 64,
      "hit": false,
      "t": 80839.64750000025,
      "d": 114.50375000000349,
      "v": 92
    },
    {
      "midi": 64,
      "hit": false,
      "t": 80839.64750000027,
      "d": 114.50375000000349,
      "v": 78
    },
    {
      "midi": 65,
      "hit": false,
      "t": 80954.15125000026,
      "d": 114.50375000000349,
      "v": 83
    },
    {
      "midi": 65,
      "hit": false,
      "t": 80954.15125000027,
      "d": 114.50375000000349,
      "v": 70
    },
    {
      "midi": 54,
      "hit": false,
      "t": 80963.69322916606,
      "d": 9.541979166664532,
      "v": 35
    },
    {
      "midi": 38,
      "hit": false,
      "t": 81063.88401041606,
      "d": 9.541979166679084,
      "v": 96
    },
    {
      "midi": 42,
      "hit": false,
      "t": 81068.6549999994,
      "d": 9.541979166679084,
      "v": 125
    },
    {
      "midi": 54,
      "hit": false,
      "t": 81068.6549999994,
      "d": 9.541979166679084,
      "v": 75
    },
    {
      "midi": 57,
      "hit": false,
      "t": 81068.65500000004,
      "d": 343.5112499999959,
      "v": 120
    },
    {
      "midi": 53,
      "hit": false,
      "t": 81068.65500000004,
      "d": 343.5112499999959,
      "v": 120
    },
    {
      "midi": 69,
      "hit": false,
      "t": 81068.65500000004,
      "d": 343.5112499999959,
      "v": 120
    },
    {
      "midi": 69,
      "hit": false,
      "t": 81068.6550000001,
      "d": 458.0149999999994,
      "v": 84
    },
    {
      "midi": 65,
      "hit": false,
      "t": 81068.65500000026,
      "d": 114.50375000000349,
      "v": 103
    },
    {
      "midi": 65,
      "hit": false,
      "t": 81068.65500000028,
      "d": 114.50375000000349,
      "v": 86
    },
    {
      "midi": 65,
      "hit": false,
      "t": 81183.15875000026,
      "d": 114.50375000000349,
      "v": 92
    },
    {
      "midi": 65,
      "hit": false,
      "t": 81183.15875000028,
      "d": 229.00750000000698,
      "v": 78
    },
    {
      "midi": 54,
      "hit": false,
      "t": 81192.70072916608,
      "d": 9.541979166664532,
      "v": 35
    },
    {
      "midi": 54,
      "hit": false,
      "t": 81297.66249999941,
      "d": 9.541979166664532,
      "v": 55
    },
    {
      "midi": 60,
      "hit": false,
      "t": 81297.66250000027,
      "d": 114.50375000000349,
      "v": 83
    },
    {
      "midi": 60,
      "hit": false,
      "t": 81297.66250000028,
      "d": 114.50375000000349,
      "v": 70
    },
    {
      "midi": 65,
      "hit": false,
      "t": 81412.16625000027,
      "d": 114.50375000000349,
      "v": 92
    },
    {
      "midi": 65,
      "hit": false,
      "t": 81412.16625000029,
      "d": 114.50375000000349,
      "v": 78
    },
    {
      "midi": 54,
      "hit": false,
      "t": 81421.70822916608,
      "d": 9.541979166664532,
      "v": 35
    },
    {
      "midi": 38,
      "hit": false,
      "t": 81521.89901041608,
      "d": 9.541979166679084,
      "v": 96
    },
    {
      "midi": 42,
      "hit": false,
      "t": 81526.66999999942,
      "d": 9.541979166679084,
      "v": 125
    },
    {
      "midi": 54,
      "hit": false,
      "t": 81526.66999999942,
      "d": 9.541979166679084,
      "v": 75
    },
    {
      "midi": 57,
      "hit": false,
      "t": 81526.67000000004,
      "d": 343.5112499999959,
      "v": 120
    },
    {
      "midi": 60,
      "hit": false,
      "t": 81526.67000000004,
      "d": 343.5112499999959,
      "v": 120
    },
    {
      "midi": 69,
      "hit": false,
      "t": 81526.67000000004,
      "d": 343.5112499999959,
      "v": 120
    },
    {
      "midi": 72,
      "hit": false,
      "t": 81526.6700000001,
      "d": 458.0149999999994,
      "v": 84
    },
    {
      "midi": 65,
      "hit": false,
      "t": 81526.67000000027,
      "d": 114.50375000000349,
      "v": 103
    },
    {
      "midi": 65,
      "hit": false,
      "t": 81526.67000000029,
      "d": 114.50375000000349,
      "v": 86
    },
    {
      "midi": 65,
      "hit": false,
      "t": 81641.17375000028,
      "d": 114.50375000000349,
      "v": 92
    },
    {
      "midi": 65,
      "hit": false,
      "t": 81641.1737500003,
      "d": 229.00750000000698,
      "v": 78
    },
    {
      "midi": 54,
      "hit": false,
      "t": 81650.7157291661,
      "d": 9.541979166664532,
      "v": 35
    },
    {
      "midi": 36,
      "hit": false,
      "t": 81755.67749999942,
      "d": 9.541979166664532,
      "v": 108
    },
    {
      "midi": 54,
      "hit": false,
      "t": 81755.67749999942,
      "d": 9.541979166664532,
      "v": 55
    },
    {
      "midi": 64,
      "hit": false,
      "t": 81755.67750000028,
      "d": 114.50375000000349,
      "v": 83
    },
    {
      "midi": 64,
      "hit": false,
      "t": 81755.6775000003,
      "d": 114.50375000000349,
      "v": 70
    },
    {
      "midi": 65,
      "hit": false,
      "t": 81870.18125000029,
      "d": 114.50375000000349,
      "v": 92
    },
    {
      "midi": 65,
      "hit": false,
      "t": 81870.1812500003,
      "d": 114.50375000000349,
      "v": 78
    },
    {
      "midi": 54,
      "hit": false,
      "t": 81879.72322916609,
      "d": 9.541979166664532,
      "v": 35
    },
    {
      "midi": 38,
      "hit": false,
      "t": 81979.91401041609,
      "d": 9.541979166679084,
      "v": 96
    },
    {
      "midi": 42,
      "hit": false,
      "t": 81984.68499999943,
      "d": 9.541979166679084,
      "v": 125
    },
    {
      "midi": 54,
      "hit": false,
      "t": 81984.68499999943,
      "d": 9.541979166679084,
      "v": 75
    },
    {
      "midi": 69,
      "hit": false,
      "t": 81984.68500000004,
      "d": 343.5112499999959,
      "v": 120
    },
    {
      "midi": 65,
      "hit": false,
      "t": 81984.68500000004,
      "d": 343.5112499999959,
      "v": 120
    },
    {
      "midi": 72,
      "hit": false,
      "t": 81984.68500000004,
      "d": 343.5112499999959,
      "v": 120
    },
    {
      "midi": 81,
      "hit": false,
      "t": 81984.6850000001,
      "d": 458.0149999999994,
      "v": 84
    },
    {
      "midi": 65,
      "hit": false,
      "t": 81984.68500000029,
      "d": 114.50375000000349,
      "v": 103
    },
    {
      "midi": 65,
      "hit": false,
      "t": 81984.6850000003,
      "d": 114.50375000000349,
      "v": 86
    },
    {
      "midi": 84,
      "hit": false,
      "t": 81994.22697916665,
      "d": 458.0149999999994,
      "v": 80
    },
    {
      "midi": 65,
      "hit": false,
      "t": 82099.18875000029,
      "d": 114.50375000000349,
      "v": 92
    },
    {
      "midi": 65,
      "hit": false,
      "t": 82099.1887500003,
      "d": 229.00750000000698,
      "v": 78
    },
    {
      "midi": 54,
      "hit": false,
      "t": 82108.73072916611,
      "d": 9.541979166664532,
      "v": 35
    },
    {
      "midi": 36,
      "hit": false,
      "t": 82213.69249999944,
      "d": 9.541979166664532,
      "v": 108
    },
    {
      "midi": 54,
      "hit": false,
      "t": 82213.69249999944,
      "d": 9.541979166664532,
      "v": 55
    },
    {
      "midi": 60,
      "hit": false,
      "t": 82213.6925000003,
      "d": 114.50375000000349,
      "v": 83
    },
    {
      "midi": 60,
      "hit": false,
      "t": 82213.69250000031,
      "d": 114.50375000000349,
      "v": 70
    },
    {
      "midi": 65,
      "hit": false,
      "t": 82328.1962500003,
      "d": 114.50375000000349,
      "v": 92
    },
    {
      "midi": 65,
      "hit": false,
      "t": 82328.19625000031,
      "d": 114.50375000000349,
      "v": 78
    },
    {
      "midi": 54,
      "hit": false,
      "t": 82337.7382291661,
      "d": 9.541979166664532,
      "v": 35
    },
    {
      "midi": 38,
      "hit": false,
      "t": 82437.9290104161,
      "d": 9.541979166679084,
      "v": 96
    },
    {
      "midi": 42,
      "hit": false,
      "t": 82442.69999999944,
      "d": 9.541979166679084,
      "v": 125
    },
    {
      "midi": 54,
      "hit": false,
      "t": 82442.69999999944,
      "d": 9.541979166679084,
      "v": 75
    },
    {
      "midi": 67,
      "hit": false,
      "t": 82442.70000000004,
      "d": 916.0299999999988,
      "v": 105
    },
    {
      "midi": 55,
      "hit": false,
      "t": 82442.70000000004,
      "d": 916.0299999999988,
      "v": 105
    },
    {
      "midi": 59,
      "hit": false,
      "t": 82442.70000000004,
      "d": 916.0299999999988,
      "v": 105
    },
    {
      "midi": 62,
      "hit": false,
      "t": 82442.70000000004,
      "d": 916.0299999999988,
      "v": 105
    },
    {
      "midi": 64,
      "hit": false,
      "t": 82442.70000000004,
      "d": 343.5112499999959,
      "v": 120
    },
    {
      "midi": 67,
      "hit": false,
      "t": 82442.70000000004,
      "d": 343.5112499999959,
      "v": 120
    },
    {
      "midi": 71,
      "hit": false,
      "t": 82442.70000000004,
      "d": 343.5112499999959,
      "v": 120
    },
    {
      "midi": 79,
      "hit": false,
      "t": 82442.7000000001,
      "d": 916.0299999999988,
      "v": 84
    },
    {
      "midi": 59,
      "hit": false,
      "t": 82442.7000000003,
      "d": 114.50375000000349,
      "v": 103
    },
    {
      "midi": 59,
      "hit": false,
      "t": 82442.70000000032,
      "d": 114.50375000000349,
      "v": 86
    },
    {
      "midi": 83,
      "hit": false,
      "t": 82452.24197916665,
      "d": 916.0299999999988,
      "v": 80
    },
    {
      "midi": 59,
      "hit": false,
      "t": 82557.2037500003,
      "d": 114.50375000000349,
      "v": 83
    },
    {
      "midi": 59,
      "hit": false,
      "t": 82557.20375000032,
      "d": 114.50375000000349,
      "v": 70
    },
    {
      "midi": 54,
      "hit": false,
      "t": 82566.74572916613,
      "d": 9.541979166664532,
      "v": 35
    },
    {
      "midi": 36,
      "hit": false,
      "t": 82671.70749999945,
      "d": 9.541979166664532,
      "v": 108
    },
    {
      "midi": 54,
      "hit": false,
      "t": 82671.70749999945,
      "d": 9.541979166664532,
      "v": 55
    },
    {
      "midi": 59,
      "hit": false,
      "t": 82671.70750000031,
      "d": 114.50375000000349,
      "v": 92
    },
    {
      "midi": 59,
      "hit": false,
      "t": 82671.70750000032,
      "d": 114.50375000000349,
      "v": 78
    },
    {
      "midi": 59,
      "hit": false,
      "t": 82786.21125000031,
      "d": 114.50375000000349,
      "v": 83
    },
    {
      "midi": 59,
      "hit": false,
      "t": 82786.21125000033,
      "d": 114.50375000000349,
      "v": 70
    },
    {
      "midi": 54,
      "hit": false,
      "t": 82795.75322916612,
      "d": 9.541979166664532,
      "v": 35
    },
    {
      "midi": 38,
      "hit": false,
      "t": 82895.94401041612,
      "d": 9.541979166679084,
      "v": 96
    },
    {
      "midi": 42,
      "hit": false,
      "t": 82900.71499999946,
      "d": 9.541979166679084,
      "v": 125
    },
    {
      "midi": 54,
      "hit": false,
      "t": 82900.71499999946,
      "d": 9.541979166679084,
      "v": 75
    },
    {
      "midi": 71,
      "hit": false,
      "t": 82900.71500000004,
      "d": 190.8395833333343,
      "v": 120
    },
    {
      "midi": 64,
      "hit": false,
      "t": 82900.71500000004,
      "d": 190.8395833333343,
      "v": 120
    },
    {
      "midi": 67,
      "hit": false,
      "t": 82900.71500000004,
      "d": 190.8395833333343,
      "v": 120
    },
    {
      "midi": 59,
      "hit": false,
      "t": 82900.71500000032,
      "d": 114.50375000000349,
      "v": 92
    },
    {
      "midi": 59,
      "hit": false,
      "t": 82900.71500000033,
      "d": 114.50375000000349,
      "v": 78
    },
    {
      "midi": 59,
      "hit": false,
      "t": 83015.21875000032,
      "d": 114.50375000000349,
      "v": 83
    },
    {
      "midi": 59,
      "hit": false,
      "t": 83015.21875000033,
      "d": 114.50375000000349,
      "v": 70
    },
    {
      "midi": 54,
      "hit": false,
      "t": 83024.76072916614,
      "d": 9.541979166664532,
      "v": 35
    },
    {
      "midi": 54,
      "hit": false,
      "t": 83129.72249999947,
      "d": 9.541979166664532,
      "v": 55
    },
    {
      "midi": 60,
      "hit": false,
      "t": 83129.72250000005,
      "d": 343.5112499999959,
      "v": 120
    },
    {
      "midi": 64,
      "hit": false,
      "t": 83129.72250000005,
      "d": 343.5112499999959,
      "v": 120
    },
    {
      "midi": 69,
      "hit": false,
      "t": 83129.72250000005,
      "d": 343.5112499999959,
      "v": 120
    },
    {
      "midi": 64,
      "hit": false,
      "t": 83129.72250000032,
      "d": 114.50375000000349,
      "v": 83
    },
    {
      "midi": 64,
      "hit": false,
      "t": 83129.72250000034,
      "d": 114.50375000000349,
      "v": 70
    },
    {
      "midi": 67,
      "hit": false,
      "t": 83244.22625000033,
      "d": 114.50375000000349,
      "v": 103
    },
    {
      "midi": 67,
      "hit": false,
      "t": 83244.22625000034,
      "d": 114.50375000000349,
      "v": 86
    },
    {
      "midi": 54,
      "hit": false,
      "t": 83253.76822916613,
      "d": 9.541979166664532,
      "v": 35
    },
    {
      "midi": 38,
      "hit": false,
      "t": 83353.95901041613,
      "d": 9.541979166679084,
      "v": 96
    },
    {
      "midi": 42,
      "hit": false,
      "t": 83358.72999999947,
      "d": 9.541979166679084,
      "v": 125
    },
    {
      "midi": 54,
      "hit": false,
      "t": 83358.72999999947,
      "d": 9.541979166679084,
      "v": 75
    },
    {
      "midi": 69,
      "hit": false,
      "t": 83358.73000000004,
      "d": 916.0299999999988,
      "v": 105
    },
    {
      "midi": 64,
      "hit": false,
      "t": 83358.73000000004,
      "d": 916.0299999999988,
      "v": 105
    },
    {
      "midi": 60,
      "hit": false,
      "t": 83358.73000000004,
      "d": 916.0299999999988,
      "v": 105
    },
    {
      "midi": 72,
      "hit": false,
      "t": 83358.7300000001,
      "d": 458.0149999999994,
      "v": 84
    },
    {
      "midi": 60,
      "hit": false,
      "t": 83358.73000000033,
      "d": 114.50375000000349,
      "v": 83
    },
    {
      "midi": 60,
      "hit": false,
      "t": 83358.73000000035,
      "d": 114.50375000000349,
      "v": 70
    },
    {
      "midi": 84,
      "hit": false,
      "t": 83368.27197916665,
      "d": 916.0299999999988,
      "v": 80
    },
    {
      "midi": 69,
      "hit": false,
      "t": 83473.23375000033,
      "d": 114.50375000000349,
      "v": 103
    },
    {
      "midi": 69,
      "hit": false,
      "t": 83473.23375000035,
      "d": 114.50375000000349,
      "v": 86
    },
    {
      "midi": 54,
      "hit": false,
      "t": 83482.77572916615,
      "d": 9.541979166664532,
      "v": 35
    },
    {
      "midi": 36,
      "hit": false,
      "t": 83587.73749999948,
      "d": 9.541979166664532,
      "v": 108
    },
    {
      "midi": 54,
      "hit": false,
      "t": 83587.73749999948,
      "d": 9.541979166664532,
      "v": 55
    },
    {
      "midi": 69,
      "hit": false,
      "t": 83587.73750000034,
      "d": 114.50375000000349,
      "v": 92
    },
    {
      "midi": 69,
      "hit": false,
      "t": 83587.73750000035,
      "d": 114.50375000000349,
      "v": 78
    },
    {
      "midi": 60,
      "hit": false,
      "t": 83702.24125000034,
      "d": 114.50375000000349,
      "v": 83
    },
    {
      "midi": 60,
      "hit": false,
      "t": 83702.24125000036,
      "d": 114.50375000000349,
      "v": 70
    },
    {
      "midi": 54,
      "hit": false,
      "t": 83711.78322916615,
      "d": 9.541979166664532,
      "v": 35
    },
    {
      "midi": 38,
      "hit": false,
      "t": 83811.97401041615,
      "d": 9.541979166679084,
      "v": 96
    },
    {
      "midi": 42,
      "hit": false,
      "t": 83816.74499999949,
      "d": 9.541979166679084,
      "v": 125
    },
    {
      "midi": 54,
      "hit": false,
      "t": 83816.74499999949,
      "d": 9.541979166679084,
      "v": 75
    },
    {
      "midi": 65,
      "hit": false,
      "t": 83816.74500000004,
      "d": 190.8395833333343,
      "v": 120
    },
    {
      "midi": 62,
      "hit": false,
      "t": 83816.74500000004,
      "d": 190.8395833333343,
      "v": 120
    },
    {
      "midi": 57,
      "hit": false,
      "t": 83816.74500000004,
      "d": 190.8395833333343,
      "v": 120
    },
    {
      "midi": 74,
      "hit": false,
      "t": 83816.7450000001,
      "d": 229.00750000000698,
      "v": 84
    },
    {
      "midi": 69,
      "hit": false,
      "t": 83816.74500000034,
      "d": 114.50375000000349,
      "v": 103
    },
    {
      "midi": 69,
      "hit": false,
      "t": 83816.74500000036,
      "d": 114.50375000000349,
      "v": 86
    },
    {
      "midi": 69,
      "hit": false,
      "t": 83931.24875000035,
      "d": 114.50375000000349,
      "v": 92
    },
    {
      "midi": 69,
      "hit": false,
      "t": 83931.24875000036,
      "d": 229.00750000000698,
      "v": 78
    },
    {
      "midi": 54,
      "hit": false,
      "t": 83940.79072916617,
      "d": 9.541979166664532,
      "v": 35
    },
    {
      "midi": 36,
      "hit": false,
      "t": 84045.7524999995,
      "d": 9.541979166664532,
      "v": 108
    },
    {
      "midi": 54,
      "hit": false,
      "t": 84045.7524999995,
      "d": 9.541979166664532,
      "v": 55
    },
    {
      "midi": 67,
      "hit": false,
      "t": 84045.75250000005,
      "d": 190.8395833333343,
      "v": 120
    },
    {
      "midi": 64,
      "hit": false,
      "t": 84045.75250000005,
      "d": 190.8395833333343,
      "v": 120
    },
    {
      "midi": 59,
      "hit": false,
      "t": 84045.75250000005,
      "d": 190.8395833333343,
      "v": 120
    },
    {
      "midi": 76,
      "hit": false,
      "t": 84045.7525000001,
      "d": 229.00750000000698,
      "v": 84
    },
    {
      "midi": 60,
      "hit": false,
      "t": 84045.75250000035,
      "d": 114.50375000000349,
      "v": 83
    },
    {
      "midi": 60,
      "hit": false,
      "t": 84045.75250000037,
      "d": 114.50375000000349,
      "v": 70
    },
    {
      "midi": 69,
      "hit": false,
      "t": 84160.25625000036,
      "d": 114.50375000000349,
      "v": 103
    },
    {
      "midi": 69,
      "hit": false,
      "t": 84160.25625000037,
      "d": 114.50375000000349,
      "v": 86
    },
    {
      "midi": 54,
      "hit": false,
      "t": 84169.79822916616,
      "d": 9.541979166664532,
      "v": 35
    },
    {
      "midi": 38,
      "hit": false,
      "t": 84269.98901041616,
      "d": 9.541979166679084,
      "v": 96
    },
    {
      "midi": 49,
      "hit": false,
      "t": 84274.7599999995,
      "d": 9.541979166679084,
      "v": 100
    },
    {
      "midi": 54,
      "hit": false,
      "t": 84274.7599999995,
      "d": 9.541979166679084,
      "v": 75
    },
    {
      "midi": 69,
      "hit": false,
      "t": 84274.76000000004,
      "d": 1832.0599999999977,
      "v": 105
    },
    {
      "midi": 62,
      "hit": false,
      "t": 84274.76000000004,
      "d": 1832.0599999999977,
      "v": 105
    },
    {
      "midi": 65,
      "hit": false,
      "t": 84274.76000000004,
      "d": 1832.0599999999977,
      "v": 105
    },
    {
      "midi": 74,
      "hit": false,
      "t": 84274.76000000004,
      "d": 1832.0599999999977,
      "v": 105
    },
    {
      "midi": 69,
      "hit": false,
      "t": 84274.76000000005,
      "d": 343.5112499999959,
      "v": 120
    },
    {
      "midi": 60,
      "hit": false,
      "t": 84274.76000000005,
      "d": 343.5112499999959,
      "v": 120
    },
    {
      "midi": 64,
      "hit": false,
      "t": 84274.76000000005,
      "d": 343.5112499999959,
      "v": 120
    },
    {
      "midi": 77,
      "hit": false,
      "t": 84274.76000000011,
      "d": 458.0149999999994,
      "v": 84
    },
    {
      "midi": 62,
      "hit": false,
      "t": 84274.76000000036,
      "d": 114.50375000000349,
      "v": 83
    },
    {
      "midi": 62,
      "hit": false,
      "t": 84274.76000000037,
      "d": 114.50375000000349,
      "v": 70
    },
    {
      "midi": 89,
      "hit": false,
      "t": 84284.30197916664,
      "d": 458.0149999999994,
      "v": 80
    },
    {
      "midi": 65,
      "hit": false,
      "t": 84389.26375000036,
      "d": 114.50375000000349,
      "v": 103
    },
    {
      "midi": 65,
      "hit": false,
      "t": 84389.26375000038,
      "d": 114.50375000000349,
      "v": 86
    },
    {
      "midi": 54,
      "hit": false,
      "t": 84398.80572916618,
      "d": 9.541979166664532,
      "v": 35
    },
    {
      "midi": 36,
      "hit": false,
      "t": 84503.7674999995,
      "d": 9.541979166664532,
      "v": 108
    },
    {
      "midi": 54,
      "hit": false,
      "t": 84503.7674999995,
      "d": 9.541979166664532,
      "v": 55
    },
    {
      "midi": 69,
      "hit": false,
      "t": 84503.76750000037,
      "d": 114.50375000000349,
      "v": 92
    },
    {
      "midi": 69,
      "hit": false,
      "t": 84503.76750000038,
      "d": 114.50375000000349,
      "v": 78
    },
    {
      "midi": 69,
      "hit": false,
      "t": 84618.27125000037,
      "d": 114.50375000000349,
      "v": 83
    },
    {
      "midi": 69,
      "hit": false,
      "t": 84618.27125000038,
      "d": 114.50375000000349,
      "v": 70
    },
    {
      "midi": 54,
      "hit": false,
      "t": 84627.81322916618,
      "d": 9.541979166664532,
      "v": 35
    },
    {
      "midi": 38,
      "hit": false,
      "t": 84728.00401041617,
      "d": 9.541979166679084,
      "v": 96
    },
    {
      "midi": 42,
      "hit": false,
      "t": 84732.77499999951,
      "d": 9.541979166679084,
      "v": 125
    },
    {
      "midi": 54,
      "hit": false,
      "t": 84732.77499999951,
      "d": 9.541979166679084,
      "v": 75
    },
    {
      "midi": 64,
      "hit": false,
      "t": 84732.77500000005,
      "d": 343.5112499999959,
      "v": 120
    },
    {
      "midi": 59,
      "hit": false,
      "t": 84732.77500000005,
      "d": 343.5112499999959,
      "v": 120
    },
    {
      "midi": 67,
      "hit": false,
      "t": 84732.77500000005,
      "d": 343.5112499999959,
      "v": 120
    },
    {
      "midi": 76,
      "hit": false,
      "t": 84732.77500000011,
      "d": 458.0149999999994,
      "v": 84
    },
    {
      "midi": 62,
      "hit": false,
      "t": 84732.77500000037,
      "d": 114.50375000000349,
      "v": 103
    },
    {
      "midi": 62,
      "hit": false,
      "t": 84732.77500000039,
      "d": 114.50375000000349,
      "v": 86
    },
    {
      "midi": 88,
      "hit": false,
      "t": 84742.31697916664,
      "d": 458.0149999999994,
      "v": 80
    },
    {
      "midi": 69,
      "hit": false,
      "t": 84847.27875000038,
      "d": 114.50375000000349,
      "v": 92
    },
    {
      "midi": 69,
      "hit": false,
      "t": 84847.27875000039,
      "d": 114.50375000000349,
      "v": 78
    },
    {
      "midi": 54,
      "hit": false,
      "t": 84856.8207291662,
      "d": 9.541979166664532,
      "v": 35
    },
    {
      "midi": 54,
      "hit": false,
      "t": 84961.78249999952,
      "d": 9.541979166664532,
      "v": 55
    },
    {
      "midi": 69,
      "hit": false,
      "t": 84961.78250000038,
      "d": 114.50375000000349,
      "v": 83
    },
    {
      "midi": 69,
      "hit": false,
      "t": 84961.7825000004,
      "d": 229.00750000000698,
      "v": 70
    },
    {
      "midi": 62,
      "hit": false,
      "t": 85076.28625000038,
      "d": 114.50375000000349,
      "v": 103
    },
    {
      "midi": 62,
      "hit": false,
      "t": 85076.2862500004,
      "d": 114.50375000000349,
      "v": 86
    },
    {
      "midi": 54,
      "hit": false,
      "t": 85085.82822916619,
      "d": 9.541979166664532,
      "v": 35
    },
    {
      "midi": 38,
      "hit": false,
      "t": 85186.01901041619,
      "d": 9.541979166679084,
      "v": 96
    },
    {
      "midi": 42,
      "hit": false,
      "t": 85190.78999999953,
      "d": 9.541979166679084,
      "v": 125
    },
    {
      "midi": 54,
      "hit": false,
      "t": 85190.78999999953,
      "d": 9.541979166679084,
      "v": 75
    },
    {
      "midi": 65,
      "hit": false,
      "t": 85190.79000000005,
      "d": 343.5112499999959,
      "v": 120
    },
    {
      "midi": 62,
      "hit": false,
      "t": 85190.79000000005,
      "d": 343.5112499999959,
      "v": 120
    },
    {
      "midi": 57,
      "hit": false,
      "t": 85190.79000000005,
      "d": 343.5112499999959,
      "v": 120
    },
    {
      "midi": 74,
      "hit": false,
      "t": 85190.79000000011,
      "d": 458.0149999999994,
      "v": 84
    },
    {
      "midi": 62,
      "hit": false,
      "t": 85190.79000000039,
      "d": 114.50375000000349,
      "v": 103
    },
    {
      "midi": 62,
      "hit": false,
      "t": 85190.7900000004,
      "d": 114.50375000000349,
      "v": 78
    },
    {
      "midi": 86,
      "hit": false,
      "t": 85200.33197916664,
      "d": 458.0149999999994,
      "v": 80
    },
    {
      "midi": 69,
      "hit": false,
      "t": 85305.29375000039,
      "d": 114.50375000000349,
      "v": 92
    },
    {
      "midi": 69,
      "hit": false,
      "t": 85305.2937500004,
      "d": 114.50375000000349,
      "v": 78
    },
    {
      "midi": 54,
      "hit": false,
      "t": 85314.83572916621,
      "d": 9.541979166664532,
      "v": 35
    },
    {
      "midi": 36,
      "hit": false,
      "t": 85419.79749999953,
      "d": 9.541979166664532,
      "v": 108
    },
    {
      "midi": 54,
      "hit": false,
      "t": 85419.79749999953,
      "d": 9.541979166664532,
      "v": 55
    },
    {
      "midi": 69,
      "hit": false,
      "t": 85419.7975000004,
      "d": 114.50375000000349,
      "v": 83
    },
    {
      "midi": 69,
      "hit": false,
      "t": 85419.79750000041,
      "d": 229.00750000000698,
      "v": 70
    },
    {
      "midi": 62,
      "hit": false,
      "t": 85534.3012500004,
      "d": 114.50375000000349,
      "v": 103
    },
    {
      "midi": 62,
      "hit": false,
      "t": 85534.30125000041,
      "d": 114.50375000000349,
      "v": 86
    },
    {
      "midi": 54,
      "hit": false,
      "t": 85543.8432291662,
      "d": 9.541979166664532,
      "v": 35
    },
    {
      "midi": 38,
      "hit": false,
      "t": 85644.0340104162,
      "d": 9.541979166679084,
      "v": 96
    },
    {
      "midi": 42,
      "hit": false,
      "t": 85648.80499999954,
      "d": 9.541979166679084,
      "v": 125
    },
    {
      "midi": 54,
      "hit": false,
      "t": 85648.80499999954,
      "d": 9.541979166679084,
      "v": 75
    },
    {
      "midi": 64,
      "hit": false,
      "t": 85648.80500000005,
      "d": 190.8395833333343,
      "v": 120
    },
    {
      "midi": 60,
      "hit": false,
      "t": 85648.80500000005,
      "d": 190.8395833333343,
      "v": 120
    },
    {
      "midi": 57,
      "hit": false,
      "t": 85648.80500000005,
      "d": 190.8395833333343,
      "v": 120
    },
    {
      "midi": 72,
      "hit": false,
      "t": 85648.80500000011,
      "d": 229.00750000000698,
      "v": 84
    },
    {
      "midi": 69,
      "hit": false,
      "t": 85648.8050000004,
      "d": 114.50375000000349,
      "v": 103
    },
    {
      "midi": 69,
      "hit": false,
      "t": 85648.80500000042,
      "d": 114.50375000000349,
      "v": 86
    },
    {
      "midi": 84,
      "hit": false,
      "t": 85658.34697916664,
      "d": 458.0149999999994,
      "v": 80
    },
    {
      "midi": 69,
      "hit": false,
      "t": 85763.3087500004,
      "d": 114.50375000000349,
      "v": 92
    },
    {
      "midi": 69,
      "hit": false,
      "t": 85763.30875000042,
      "d": 229.00750000000698,
      "v": 78
    },
    {
      "midi": 54,
      "hit": false,
      "t": 85772.85072916622,
      "d": 9.541979166664532,
      "v": 35
    },
    {
      "midi": 36,
      "hit": false,
      "t": 85877.81249999955,
      "d": 9.541979166664532,
      "v": 108
    },
    {
      "midi": 54,
      "hit": false,
      "t": 85877.81249999955,
      "d": 9.541979166664532,
      "v": 55
    },
    {
      "midi": 62,
      "hit": false,
      "t": 85877.81250000006,
      "d": 190.8395833333343,
      "v": 120
    },
    {
      "midi": 57,
      "hit": false,
      "t": 85877.81250000006,
      "d": 190.8395833333343,
      "v": 120
    },
    {
      "midi": 65,
      "hit": false,
      "t": 85877.81250000006,
      "d": 190.8395833333343,
      "v": 120
    },
    {
      "midi": 74,
      "hit": false,
      "t": 85877.81250000012,
      "d": 229.00750000000698,
      "v": 84
    },
    {
      "midi": 62,
      "hit": false,
      "t": 85877.81250000041,
      "d": 114.50375000000349,
      "v": 83
    },
    {
      "midi": 62,
      "hit": false,
      "t": 85877.81250000042,
      "d": 114.50375000000349,
      "v": 70
    },
    {
      "midi": 69,
      "hit": false,
      "t": 85992.31625000041,
      "d": 114.50375000000349,
      "v": 103
    },
    {
      "midi": 69,
      "hit": false,
      "t": 85992.31625000043,
      "d": 114.50375000000349,
      "v": 86
    },
    {
      "midi": 54,
      "hit": false,
      "t": 86001.85822916622,
      "d": 9.541979166664532,
      "v": 35
    },
    {
      "midi": 38,
      "hit": false,
      "t": 86102.04901041622,
      "d": 9.541979166679084,
      "v": 96
    },
    {
      "midi": 42,
      "hit": false,
      "t": 86106.81999999956,
      "d": 9.541979166679084,
      "v": 105
    },
    {
      "midi": 54,
      "hit": false,
      "t": 86106.81999999956,
      "d": 9.541979166679084,
      "v": 75
    },
    {
      "midi": 59,
      "hit": false,
      "t": 86106.82000000004,
      "d": 916.0299999999988,
      "v": 105
    },
    {
      "midi": 64,
      "hit": false,
      "t": 86106.82000000004,
      "d": 916.0299999999988,
      "v": 105
    },
    {
      "midi": 68,
      "hit": false,
      "t": 86106.82000000004,
      "d": 916.0299999999988,
      "v": 105
    },
    {
      "midi": 71,
      "hit": false,
      "t": 86106.82000000004,
      "d": 916.0299999999988,
      "v": 105
    },
    {
      "midi": 59,
      "hit": false,
      "t": 86106.82000000007,
      "d": 648.8545833333337,
      "v": 120
    },
    {
      "midi": 64,
      "hit": false,
      "t": 86106.82000000007,
      "d": 648.8545833333337,
      "v": 120
    },
    {
      "midi": 68,
      "hit": false,
      "t": 86106.82000000007,
      "d": 648.8545833333337,
      "v": 120
    },
    {
      "midi": 76,
      "hit": false,
      "t": 86106.82000000012,
      "d": 687.0225000000064,
      "v": 84
    },
    {
      "midi": 83,
      "hit": false,
      "t": 86106.82000000014,
      "d": 916.0299999999988,
      "v": 80
    },
    {
      "midi": 71,
      "hit": false,
      "t": 86106.82000000014,
      "d": 916.0299999999988,
      "v": 80
    },
    {
      "midi": 59,
      "hit": false,
      "t": 86106.82000000041,
      "d": 114.50375000000349,
      "v": 83
    },
    {
      "midi": 59,
      "hit": false,
      "t": 86106.82000000043,
      "d": 114.50375000000349,
      "v": 70
    },
    {
      "midi": 83,
      "hit": false,
      "t": 86116.36197916664,
      "d": 916.0299999999988,
      "v": 80
    },
    {
      "midi": 59,
      "hit": false,
      "t": 86221.32375000042,
      "d": 114.50375000000349,
      "v": 92
    },
    {
      "midi": 59,
      "hit": false,
      "t": 86221.32375000043,
      "d": 114.50375000000349,
      "v": 78
    },
    {
      "midi": 54,
      "hit": false,
      "t": 86230.86572916624,
      "d": 9.541979166664532,
      "v": 35
    },
    {
      "midi": 36,
      "hit": false,
      "t": 86335.82749999956,
      "d": 9.541979166664532,
      "v": 108
    },
    {
      "midi": 54,
      "hit": false,
      "t": 86335.82749999956,
      "d": 9.541979166664532,
      "v": 55
    },
    {
      "midi": 64,
      "hit": false,
      "t": 86335.82750000042,
      "d": 114.50375000000349,
      "v": 83
    },
    {
      "midi": 64,
      "hit": false,
      "t": 86335.82750000044,
      "d": 114.50375000000349,
      "v": 70
    },
    {
      "midi": 64,
      "hit": false,
      "t": 86450.33125000042,
      "d": 114.50375000000349,
      "v": 83
    },
    {
      "midi": 64,
      "hit": false,
      "t": 86450.33125000044,
      "d": 114.50375000000349,
      "v": 70
    },
    {
      "midi": 54,
      "hit": false,
      "t": 86459.87322916623,
      "d": 9.541979166664532,
      "v": 35
    },
    {
      "midi": 38,
      "hit": false,
      "t": 86560.06401041623,
      "d": 9.541979166679084,
      "v": 96
    },
    {
      "midi": 42,
      "hit": false,
      "t": 86564.83499999957,
      "d": 9.541979166679084,
      "v": 125
    },
    {
      "midi": 54,
      "hit": false,
      "t": 86564.83499999957,
      "d": 9.541979166679084,
      "v": 75
    },
    {
      "midi": 68,
      "hit": false,
      "t": 86564.83500000043,
      "d": 114.50375000000349,
      "v": 83
    },
    {
      "midi": 68,
      "hit": false,
      "t": 86564.83500000044,
      "d": 114.50375000000349,
      "v": 70
    },
    {
      "midi": 68,
      "hit": false,
      "t": 86679.33875000043,
      "d": 114.50375000000349,
      "v": 92
    },
    {
      "midi": 68,
      "hit": false,
      "t": 86679.33875000045,
      "d": 114.50375000000349,
      "v": 78
    },
    {
      "midi": 54,
      "hit": false,
      "t": 86688.88072916625,
      "d": 9.541979166664532,
      "v": 35
    },
    {
      "midi": 54,
      "hit": false,
      "t": 86793.84249999958,
      "d": 9.541979166664532,
      "v": 55
    },
    {
      "midi": 59,
      "hit": false,
      "t": 86793.84250000007,
      "d": 229.00750000000698,
      "v": 120
    },
    {
      "midi": 68,
      "hit": false,
      "t": 86793.84250000007,
      "d": 343.5112500000105,
      "v": 120
    },
    {
      "midi": 64,
      "hit": false,
      "t": 86793.84250000007,
      "d": 343.5112500000105,
      "v": 120
    },
    {
      "midi": 77,
      "hit": false,
      "t": 86793.84250000013,
      "d": 114.50375000000349,
      "v": 84
    },
    {
      "midi": 64,
      "hit": false,
      "t": 86793.84250000044,
      "d": 114.50375000000349,
      "v": 83
    },
    {
      "midi": 64,
      "hit": false,
      "t": 86793.84250000045,
      "d": 114.50375000000349,
      "v": 70
    },
    {
      "midi": 76,
      "hit": false,
      "t": 86908.34625000013,
      "d": 114.50375000000349,
      "v": 84
    },
    {
      "midi": 68,
      "hit": false,
      "t": 86908.34625000044,
      "d": 114.50375000000349,
      "v": 83
    },
    {
      "midi": 68,
      "hit": false,
      "t": 86908.34625000045,
      "d": 114.50375000000349,
      "v": 70
    },
    {
      "midi": 54,
      "hit": false,
      "t": 86917.88822916624,
      "d": 9.541979166664532,
      "v": 35
    },
    {
      "midi": 38,
      "hit": false,
      "t": 87018.07901041624,
      "d": 9.541979166679084,
      "v": 96
    },
    {
      "midi": 43,
      "hit": false,
      "t": 87018.07901041671,
      "d": 229.00750000000698,
      "v": 90
    },
    {
      "midi": 54,
      "hit": false,
      "t": 87022.84999999958,
      "d": 9.541979166679084,
      "v": 75
    },
    {
      "midi": 67,
      "hit": false,
      "t": 87022.85000000003,
      "d": 229.00750000000698,
      "v": 110
    },
    {
      "midi": 79,
      "hit": false,
      "t": 87022.85000000003,
      "d": 229.00750000000698,
      "v": 110
    },
    {
      "midi": 65,
      "hit": false,
      "t": 87022.85000000003,
      "d": 916.0300000000279,
      "v": 105
    },
    {
      "midi": 62,
      "hit": false,
      "t": 87022.85000000003,
      "d": 916.0300000000279,
      "v": 105
    },
    {
      "midi": 59,
      "hit": false,
      "t": 87022.85000000003,
      "d": 916.0300000000279,
      "v": 105
    },
    {
      "midi": 59,
      "hit": false,
      "t": 87022.85000000008,
      "d": 114.50375000000349,
      "v": 120
    },
    {
      "midi": 67,
      "hit": false,
      "t": 87022.85000000008,
      "d": 343.5112500000105,
      "v": 120
    },
    {
      "midi": 62,
      "hit": false,
      "t": 87022.85000000008,
      "d": 343.5112500000105,
      "v": 120
    },
    {
      "midi": 74,
      "hit": false,
      "t": 87022.85000000014,
      "d": 458.0149999999994,
      "v": 84
    },
    {
      "midi": 79,
      "hit": false,
      "t": 87022.85000000014,
      "d": 229.00750000000698,
      "v": 80
    },
    {
      "midi": 67,
      "hit": false,
      "t": 87022.85000000014,
      "d": 229.00750000000698,
      "v": 80
    },
    {
      "midi": 43,
      "hit": false,
      "t": 87022.85000000018,
      "d": 229.00750000000698,
      "v": 90
    },
    {
      "midi": 67,
      "hit": false,
      "t": 87022.85000000044,
      "d": 229.00750000000698,
      "v": 70
    },
    {
      "midi": 67,
      "hit": false,
      "t": 87022.85000000046,
      "d": 229.00750000000698,
      "v": 70
    },
    {
      "midi": 43,
      "hit": false,
      "t": 87027.62098958337,
      "d": 229.00750000000698,
      "v": 90
    },
    {
      "midi": 38,
      "hit": false,
      "t": 87132.58276041626,
      "d": 9.541979166664532,
      "v": 96
    },
    {
      "midi": 54,
      "hit": false,
      "t": 87146.89572916627,
      "d": 9.541979166664532,
      "v": 35
    },
    {
      "midi": 38,
      "hit": false,
      "t": 87247.08651041627,
      "d": 9.541979166679084,
      "v": 96
    },
    {
      "midi": 45,
      "hit": false,
      "t": 87247.08651041672,
      "d": 229.00750000000698,
      "v": 90
    },
    {
      "midi": 54,
      "hit": false,
      "t": 87251.8574999996,
      "d": 9.541979166679084,
      "v": 55
    },
    {
      "midi": 69,
      "hit": false,
      "t": 87251.85750000004,
      "d": 229.00750000000698,
      "v": 110
    },
    {
      "midi": 81,
      "hit": false,
      "t": 87251.85750000004,
      "d": 229.00750000000698,
      "v": 110
    },
    {
      "midi": 81,
      "hit": false,
      "t": 87251.85750000014,
      "d": 229.00750000000698,
      "v": 80
    },
    {
      "midi": 69,
      "hit": false,
      "t": 87251.85750000014,
      "d": 229.00750000000698,
      "v": 80
    },
    {
      "midi": 45,
      "hit": false,
      "t": 87251.85750000019,
      "d": 229.00750000000698,
      "v": 90
    },
    {
      "midi": 67,
      "hit": false,
      "t": 87251.85750000045,
      "d": 229.00750000000698,
      "v": 70
    },
    {
      "midi": 67,
      "hit": false,
      "t": 87251.85750000046,
      "d": 229.00750000000698,
      "v": 70
    },
    {
      "midi": 45,
      "hit": false,
      "t": 87256.62848958338,
      "d": 229.00750000000698,
      "v": 90
    },
    {
      "midi": 54,
      "hit": false,
      "t": 87375.90322916629,
      "d": 9.541979166664532,
      "v": 35
    },
    {
      "midi": 38,
      "hit": false,
      "t": 87476.09401041629,
      "d": 9.541979166679084,
      "v": 96
    },
    {
      "midi": 47,
      "hit": false,
      "t": 87476.09401041672,
      "d": 229.00750000000698,
      "v": 90
    },
    {
      "midi": 54,
      "hit": false,
      "t": 87480.86499999963,
      "d": 9.541979166679084,
      "v": 75
    },
    {
      "midi": 71,
      "hit": false,
      "t": 87480.86500000005,
      "d": 229.00750000000698,
      "v": 110
    },
    {
      "midi": 83,
      "hit": false,
      "t": 87480.86500000005,
      "d": 229.00750000000698,
      "v": 110
    },
    {
      "midi": 83,
      "hit": false,
      "t": 87480.86500000015,
      "d": 229.00750000000698,
      "v": 80
    },
    {
      "midi": 71,
      "hit": false,
      "t": 87480.86500000015,
      "d": 229.00750000000698,
      "v": 80
    },
    {
      "midi": 47,
      "hit": false,
      "t": 87480.8650000002,
      "d": 229.00750000000698,
      "v": 90
    },
    {
      "midi": 67,
      "hit": false,
      "t": 87480.86500000046,
      "d": 229.00750000000698,
      "v": 70
    },
    {
      "midi": 67,
      "hit": false,
      "t": 87480.86500000047,
      "d": 229.00750000000698,
      "v": 70
    },
    {
      "midi": 47,
      "hit": false,
      "t": 87485.63598958339,
      "d": 229.00750000000698,
      "v": 90
    },
    {
      "midi": 54,
      "hit": false,
      "t": 87604.91072916631,
      "d": 9.541979166664532,
      "v": 35
    },
    {
      "midi": 38,
      "hit": false,
      "t": 87705.10151041631,
      "d": 9.541979166679084,
      "v": 96
    },
    {
      "midi": 50,
      "hit": false,
      "t": 87705.10151041673,
      "d": 229.00750000000698,
      "v": 90
    },
    {
      "midi": 54,
      "hit": false,
      "t": 87709.87249999965,
      "d": 9.541979166679084,
      "v": 55
    },
    {
      "midi": 74,
      "hit": false,
      "t": 87709.87250000006,
      "d": 229.00750000000698,
      "v": 110
    },
    {
      "midi": 86,
      "hit": false,
      "t": 87709.87250000006,
      "d": 229.00750000000698,
      "v": 110
    },
    {
      "midi": 86,
      "hit": false,
      "t": 87709.87250000016,
      "d": 229.00750000000698,
      "v": 80
    },
    {
      "midi": 74,
      "hit": false,
      "t": 87709.87250000016,
      "d": 229.00750000000698,
      "v": 80
    },
    {
      "midi": 50,
      "hit": false,
      "t": 87709.8725000002,
      "d": 229.00750000000698,
      "v": 90
    },
    {
      "midi": 67,
      "hit": false,
      "t": 87709.87250000046,
      "d": 229.00750000000698,
      "v": 70
    },
    {
      "midi": 67,
      "hit": false,
      "t": 87709.87250000048,
      "d": 229.00750000000698,
      "v": 70
    },
    {
      "midi": 50,
      "hit": false,
      "t": 87714.6434895834,
      "d": 229.00750000000698,
      "v": 90
    },
    {
      "midi": 38,
      "hit": false,
      "t": 87819.60526041633,
      "d": 9.541979166664532,
      "v": 96
    },
    {
      "midi": 54,
      "hit": false,
      "t": 87833.91822916633,
      "d": 9.541979166664532,
      "v": 35
    },
    {
      "midi": 36,
      "hit": false,
      "t": 87938.87999999966,
      "d": 9.541979166664532,
      "v": 108
    },
    {
      "midi": 54,
      "hit": false,
      "t": 87938.87999999966,
      "d": 9.541979166664532,
      "v": 75
    },
    {
      "midi": 49,
      "hit": false,
      "t": 87938.87999999966,
      "d": 9.541979166664532,
      "v": 100
    },
    {
      "midi": 64,
      "hit": false,
      "t": 87938.88000000006,
      "d": 1603.0525000000052,
      "v": 105
    },
    {
      "midi": 67,
      "hit": false,
      "t": 87938.88000000006,
      "d": 1603.0525000000052,
      "v": 105
    },
    {
      "midi": 72,
      "hit": false,
      "t": 87938.88000000006,
      "d": 1603.0525000000052,
      "v": 105
    },
    {
      "midi": 64,
      "hit": false,
      "t": 87938.88000000009,
      "d": 343.5112499999959,
      "v": 120
    },
    {
      "midi": 67,
      "hit": false,
      "t": 87938.88000000009,
      "d": 343.5112499999959,
      "v": 120
    },
    {
      "midi": 72,
      "hit": false,
      "t": 87938.88000000009,
      "d": 343.5112499999959,
      "v": 120
    },
    {
      "midi": 79,
      "hit": false,
      "t": 87938.88000000014,
      "d": 458.0149999999994,
      "v": 84
    },
    {
      "midi": 60,
      "hit": false,
      "t": 87938.88000000047,
      "d": 114.50375000000349,
      "v": 92
    },
    {
      "midi": 60,
      "hit": false,
      "t": 87938.88000000048,
      "d": 114.50375000000349,
      "v": 78
    },
    {
      "midi": 84,
      "hit": false,
      "t": 87948.42197916664,
      "d": 1832.0599999999977,
      "v": 80
    },
    {
      "midi": 60,
      "hit": false,
      "t": 88053.38375000047,
      "d": 114.50375000000349,
      "v": 92
    },
    {
      "midi": 60,
      "hit": false,
      "t": 88053.38375000049,
      "d": 114.50375000000349,
      "v": 78
    },
    {
      "midi": 54,
      "hit": false,
      "t": 88062.92572916632,
      "d": 9.541979166664532,
      "v": 35
    },
    {
      "midi": 36,
      "hit": false,
      "t": 88167.88749999965,
      "d": 9.541979166664532,
      "v": 108
    },
    {
      "midi": 54,
      "hit": false,
      "t": 88167.88749999965,
      "d": 9.541979166664532,
      "v": 55
    },
    {
      "midi": 64,
      "hit": false,
      "t": 88167.88750000048,
      "d": 114.50375000000349,
      "v": 92
    },
    {
      "midi": 64,
      "hit": false,
      "t": 88167.88750000049,
      "d": 114.50375000000349,
      "v": 78
    },
    {
      "midi": 64,
      "hit": false,
      "t": 88282.39125000048,
      "d": 114.50375000000349,
      "v": 92
    },
    {
      "midi": 64,
      "hit": false,
      "t": 88282.3912500005,
      "d": 114.50375000000349,
      "v": 78
    },
    {
      "midi": 54,
      "hit": false,
      "t": 88291.93322916632,
      "d": 9.541979166664532,
      "v": 35
    },
    {
      "midi": 38,
      "hit": false,
      "t": 88392.12401041632,
      "d": 9.541979166679084,
      "v": 96
    },
    {
      "midi": 42,
      "hit": false,
      "t": 88396.89499999965,
      "d": 9.541979166679084,
      "v": 125
    },
    {
      "midi": 54,
      "hit": false,
      "t": 88396.89499999965,
      "d": 9.541979166679084,
      "v": 75
    },
    {
      "midi": 64,
      "hit": false,
      "t": 88396.89500000009,
      "d": 343.5112499999959,
      "v": 120
    },
    {
      "midi": 67,
      "hit": false,
      "t": 88396.89500000009,
      "d": 343.5112499999959,
      "v": 120
    },
    {
      "midi": 72,
      "hit": false,
      "t": 88396.89500000009,
      "d": 343.5112499999959,
      "v": 120
    },
    {
      "midi": 79,
      "hit": false,
      "t": 88396.89500000014,
      "d": 458.0149999999994,
      "v": 84
    },
    {
      "midi": 67,
      "hit": false,
      "t": 88396.89500000048,
      "d": 114.50375000000349,
      "v": 103
    },
    {
      "midi": 67,
      "hit": false,
      "t": 88396.8950000005,
      "d": 114.50375000000349,
      "v": 86
    },
    {
      "midi": 60,
      "hit": false,
      "t": 88511.39875000049,
      "d": 114.50375000000349,
      "v": 103
    },
    {
      "midi": 60,
      "hit": false,
      "t": 88511.3987500005,
      "d": 114.50375000000349,
      "v": 86
    },
    {
      "midi": 54,
      "hit": false,
      "t": 88520.94072916634,
      "d": 9.541979166664532,
      "v": 35
    },
    {
      "midi": 54,
      "hit": false,
      "t": 88625.90249999966,
      "d": 9.541979166664532,
      "v": 55
    },
    {
      "midi": 67,
      "hit": false,
      "t": 88625.90250000049,
      "d": 114.50375000000349,
      "v": 103
    },
    {
      "midi": 67,
      "hit": false,
      "t": 88625.9025000005,
      "d": 114.50375000000349,
      "v": 86
    },
    {
      "midi": 67,
      "hit": false,
      "t": 88740.4062500005,
      "d": 114.50375000000349,
      "v": 103
    },
    {
      "midi": 67,
      "hit": false,
      "t": 88740.40625000051,
      "d": 229.00750000000698,
      "v": 86
    },
    {
      "midi": 54,
      "hit": false,
      "t": 88749.94822916633,
      "d": 9.541979166664532,
      "v": 35
    },
    {
      "midi": 38,
      "hit": false,
      "t": 88850.13901041633,
      "d": 9.541979166679084,
      "v": 96
    },
    {
      "midi": 42,
      "hit": false,
      "t": 88854.90999999967,
      "d": 9.541979166679084,
      "v": 125
    },
    {
      "midi": 54,
      "hit": false,
      "t": 88854.90999999967,
      "d": 9.541979166679084,
      "v": 75
    },
    {
      "midi": 64,
      "hit": false,
      "t": 88854.91000000009,
      "d": 190.8395833333343,
      "v": 120
    },
    {
      "midi": 67,
      "hit": false,
      "t": 88854.91000000009,
      "d": 190.8395833333343,
      "v": 120
    },
    {
      "midi": 72,
      "hit": false,
      "t": 88854.91000000009,
      "d": 190.8395833333343,
      "v": 120
    },
    {
      "midi": 76,
      "hit": false,
      "t": 88854.91000000013,
      "d": 229.00750000000698,
      "v": 84
    },
    {
      "midi": 60,
      "hit": false,
      "t": 88854.9100000005,
      "d": 114.50375000000349,
      "v": 83
    },
    {
      "midi": 60,
      "hit": false,
      "t": 88854.91000000051,
      "d": 114.50375000000349,
      "v": 70
    },
    {
      "midi": 67,
      "hit": false,
      "t": 88969.4137500005,
      "d": 114.50375000000349,
      "v": 103
    },
    {
      "midi": 67,
      "hit": false,
      "t": 88969.41375000052,
      "d": 114.50375000000349,
      "v": 86
    },
    {
      "midi": 54,
      "hit": false,
      "t": 88978.95572916635,
      "d": 9.541979166664532,
      "v": 35
    },
    {
      "midi": 36,
      "hit": false,
      "t": 89083.91749999968,
      "d": 9.541979166664532,
      "v": 108
    },
    {
      "midi": 54,
      "hit": false,
      "t": 89083.91749999968,
      "d": 9.541979166664532,
      "v": 55
    },
    {
      "midi": 64,
      "hit": false,
      "t": 89083.9175000001,
      "d": 190.8395833333343,
      "v": 120
    },
    {
      "midi": 67,
      "hit": false,
      "t": 89083.9175000001,
      "d": 190.8395833333343,
      "v": 120
    },
    {
      "midi": 72,
      "hit": false,
      "t": 89083.9175000001,
      "d": 190.8395833333343,
      "v": 120
    },
    {
      "midi": 77,
      "hit": false,
      "t": 89083.91750000014,
      "d": 229.00750000000698,
      "v": 84
    },
    {
      "midi": 67,
      "hit": false,
      "t": 89083.9175000005,
      "d": 114.50375000000349,
      "v": 92
    },
    {
      "midi": 67,
      "hit": false,
      "t": 89083.91750000052,
      "d": 229.00750000000698,
      "v": 78
    },
    {
      "midi": 60,
      "hit": false,
      "t": 89198.42125000051,
      "d": 114.50375000000349,
      "v": 83
    },
    {
      "midi": 60,
      "hit": false,
      "t": 89198.42125000052,
      "d": 114.50375000000349,
      "v": 70
    },
    {
      "midi": 54,
      "hit": false,
      "t": 89207.96322916634,
      "d": 9.541979166664532,
      "v": 35
    },
    {
      "midi": 38,
      "hit": false,
      "t": 89308.15401041634,
      "d": 9.541979166679084,
      "v": 96
    },
    {
      "midi": 42,
      "hit": false,
      "t": 89312.92499999968,
      "d": 9.541979166679084,
      "v": 125
    },
    {
      "midi": 54,
      "hit": false,
      "t": 89312.92499999968,
      "d": 9.541979166679084,
      "v": 75
    },
    {
      "midi": 64,
      "hit": false,
      "t": 89312.9250000001,
      "d": 190.8395833333343,
      "v": 120
    },
    {
      "midi": 67,
      "hit": false,
      "t": 89312.9250000001,
      "d": 190.8395833333343,
      "v": 120
    },
    {
      "midi": 72,
      "hit": false,
      "t": 89312.9250000001,
      "d": 190.8395833333343,
      "v": 120
    },
    {
      "midi": 79,
      "hit": false,
      "t": 89312.92500000015,
      "d": 229.00750000000698,
      "v": 84
    },
    {
      "midi": 67,
      "hit": false,
      "t": 89312.92500000051,
      "d": 114.50375000000349,
      "v": 103
    },
    {
      "midi": 67,
      "hit": false,
      "t": 89312.92500000053,
      "d": 114.50375000000349,
      "v": 86
    },
    {
      "midi": 67,
      "hit": false,
      "t": 89427.42875000052,
      "d": 114.50375000000349,
      "v": 92
    },
    {
      "midi": 67,
      "hit": false,
      "t": 89427.42875000053,
      "d": 229.00750000000698,
      "v": 78
    },
    {
      "midi": 54,
      "hit": false,
      "t": 89436.97072916637,
      "d": 9.541979166664532,
      "v": 35
    },
    {
      "midi": 36,
      "hit": false,
      "t": 89541.93249999969,
      "d": 9.541979166664532,
      "v": 108
    },
    {
      "midi": 54,
      "hit": false,
      "t": 89541.93249999969,
      "d": 9.541979166664532,
      "v": 55
    },
    {
      "midi": 64,
      "hit": false,
      "t": 89541.93250000011,
      "d": 190.8395833333343,
      "v": 120
    },
    {
      "midi": 67,
      "hit": false,
      "t": 89541.93250000011,
      "d": 190.8395833333343,
      "v": 120
    },
    {
      "midi": 72,
      "hit": false,
      "t": 89541.93250000011,
      "d": 190.8395833333343,
      "v": 120
    },
    {
      "midi": 81,
      "hit": false,
      "t": 89541.93250000016,
      "d": 229.00750000000698,
      "v": 84
    },
    {
      "midi": 60,
      "hit": false,
      "t": 89541.93250000052,
      "d": 114.50375000000349,
      "v": 83
    },
    {
      "midi": 60,
      "hit": false,
      "t": 89541.93250000053,
      "d": 114.50375000000349,
      "v": 70
    },
    {
      "midi": 67,
      "hit": false,
      "t": 89656.43625000052,
      "d": 114.50375000000349,
      "v": 103
    },
    {
      "midi": 67,
      "hit": false,
      "t": 89656.43625000054,
      "d": 114.50375000000349,
      "v": 86
    },
    {
      "midi": 54,
      "hit": false,
      "t": 89665.97822916636,
      "d": 9.541979166664532,
      "v": 35
    },
    {
      "midi": 38,
      "hit": false,
      "t": 89766.16901041636,
      "d": 9.541979166679084,
      "v": 96
    },
    {
      "midi": 42,
      "hit": false,
      "t": 89770.9399999997,
      "d": 9.541979166679084,
      "v": 125
    },
    {
      "midi": 54,
      "hit": false,
      "t": 89770.9399999997,
      "d": 9.541979166679084,
      "v": 75
    },
    {
      "midi": 64,
      "hit": false,
      "t": 89770.94000000008,
      "d": 1603.0525000000052,
      "v": 105
    },
    {
      "midi": 71,
      "hit": false,
      "t": 89770.94000000008,
      "d": 1603.0525000000052,
      "v": 105
    },
    {
      "midi": 67,
      "hit": false,
      "t": 89770.94000000008,
      "d": 1603.0525000000052,
      "v": 105
    },
    {
      "midi": 62,
      "hit": false,
      "t": 89770.94000000012,
      "d": 209.92354166666337,
      "v": 120
    },
    {
      "midi": 67,
      "hit": false,
      "t": 89770.94000000012,
      "d": 209.92354166666337,
      "v": 120
    },
    {
      "midi": 71,
      "hit": false,
      "t": 89770.94000000012,
      "d": 209.92354166666337,
      "v": 120
    },
    {
      "midi": 79,
      "hit": false,
      "t": 89770.94000000016,
      "d": 229.00750000000698,
      "v": 84
    },
    {
      "midi": 59,
      "hit": false,
      "t": 89770.94000000053,
      "d": 114.50375000000349,
      "v": 92
    },
    {
      "midi": 59,
      "hit": false,
      "t": 89770.94000000054,
      "d": 114.50375000000349,
      "v": 78
    },
    {
      "midi": 83,
      "hit": false,
      "t": 89780.48197916664,
      "d": 1832.0599999999977,
      "v": 80
    },
    {
      "midi": 59,
      "hit": false,
      "t": 89885.44375000053,
      "d": 114.50375000000349,
      "v": 92
    },
    {
      "midi": 59,
      "hit": false,
      "t": 89885.44375000054,
      "d": 114.50375000000349,
      "v": 78
    },
    {
      "midi": 54,
      "hit": false,
      "t": 89894.98572916638,
      "d": 9.541979166664532,
      "v": 35
    },
    {
      "midi": 36,
      "hit": false,
      "t": 89999.9474999997,
      "d": 9.541979166664532,
      "v": 108
    },
    {
      "midi": 54,
      "hit": false,
      "t": 89999.9474999997,
      "d": 9.541979166664532,
      "v": 55
    },
    {
      "midi": 62,
      "hit": false,
      "t": 89999.94750000011,
      "d": 209.92354166666337,
      "v": 120
    },
    {
      "midi": 67,
      "hit": false,
      "t": 89999.94750000011,
      "d": 209.92354166666337,
      "v": 120
    },
    {
      "midi": 71,
      "hit": false,
      "t": 89999.94750000011,
      "d": 209.92354166666337,
      "v": 120
    },
    {
      "midi": 79,
      "hit": false,
      "t": 89999.94750000017,
      "d": 229.00750000000698,
      "v": 84
    },
    {
      "midi": 62,
      "hit": false,
      "t": 89999.94750000053,
      "d": 114.50375000000349,
      "v": 92
    },
    {
      "midi": 62,
      "hit": false,
      "t": 89999.94750000055,
      "d": 114.50375000000349,
      "v": 78
    },
    {
      "midi": 62,
      "hit": false,
      "t": 90114.45125000054,
      "d": 114.50375000000349,
      "v": 92
    },
    {
      "midi": 62,
      "hit": false,
      "t": 90114.45125000055,
      "d": 114.50375000000349,
      "v": 78
    },
    {
      "midi": 54,
      "hit": false,
      "t": 90123.99322916637,
      "d": 9.541979166664532,
      "v": 35
    },
    {
      "midi": 38,
      "hit": false,
      "t": 90224.18401041637,
      "d": 9.541979166679084,
      "v": 96
    },
    {
      "midi": 42,
      "hit": false,
      "t": 90228.95499999971,
      "d": 9.541979166679084,
      "v": 125
    },
    {
      "midi": 54,
      "hit": false,
      "t": 90228.95499999971,
      "d": 9.541979166679084,
      "v": 75
    },
    {
      "midi": 77,
      "hit": false,
      "t": 90228.95500000007,
      "d": 453.2440104166599,
      "v": 105
    },
    {
      "midi": 89,
      "hit": false,
      "t": 90228.95500000007,
      "d": 453.2440104166599,
      "v": 105
    },
    {
      "midi": 62,
      "hit": false,
      "t": 90228.9550000001,
      "d": 209.92354166666337,
      "v": 120
    },
    {
      "midi": 65,
      "hit": false,
      "t": 90228.9550000001,
      "d": 209.92354166666337,
      "v": 120
    },
    {
      "midi": 69,
      "hit": false,
      "t": 90228.9550000001,
      "d": 209.92354166666337,
      "v": 120
    },
    {
      "midi": 77,
      "hit": false,
      "t": 90228.95500000018,
      "d": 229.00750000000698,
      "v": 84
    },
    {
      "midi": 67,
      "hit": false,
      "t": 90228.95500000054,
      "d": 114.50375000000349,
      "v": 103
    },
    {
      "midi": 67,
      "hit": false,
      "t": 90228.95500000055,
      "d": 114.50375000000349,
      "v": 86
    },
    {
      "midi": 67,
      "hit": false,
      "t": 90343.45875000054,
      "d": 114.50375000000349,
      "v": 92
    },
    {
      "midi": 67,
      "hit": false,
      "t": 90343.45875000056,
      "d": 229.00750000000698,
      "v": 78
    },
    {
      "midi": 54,
      "hit": false,
      "t": 90353.0007291664,
      "d": 9.541979166664532,
      "v": 35
    },
    {
      "midi": 54,
      "hit": false,
      "t": 90457.96249999972,
      "d": 9.541979166664532,
      "v": 55
    },
    {
      "midi": 62,
      "hit": false,
      "t": 90457.9625000001,
      "d": 209.92354166666337,
      "v": 120
    },
    {
      "midi": 65,
      "hit": false,
      "t": 90457.9625000001,
      "d": 209.92354166666337,
      "v": 120
    },
    {
      "midi": 69,
      "hit": false,
      "t": 90457.9625000001,
      "d": 209.92354166666337,
      "v": 120
    },
    {
      "midi": 77,
      "hit": false,
      "t": 90457.96250000018,
      "d": 229.00750000000698,
      "v": 84
    },
    {
      "midi": 59,
      "hit": false,
      "t": 90457.96250000055,
      "d": 114.50375000000349,
      "v": 83
    },
    {
      "midi": 59,
      "hit": false,
      "t": 90457.96250000056,
      "d": 114.50375000000349,
      "v": 70
    },
    {
      "midi": 67,
      "hit": false,
      "t": 90572.46625000055,
      "d": 114.50375000000349,
      "v": 103
    },
    {
      "midi": 67,
      "hit": false,
      "t": 90572.46625000057,
      "d": 229.00750000000698,
      "v": 86
    },
    {
      "midi": 54,
      "hit": false,
      "t": 90582.00822916639,
      "d": 9.541979166664532,
      "v": 35
    },
    {
      "midi": 38,
      "hit": false,
      "t": 90682.19901041639,
      "d": 9.541979166679084,
      "v": 96
    },
    {
      "midi": 42,
      "hit": false,
      "t": 90686.96999999972,
      "d": 9.541979166679084,
      "v": 125
    },
    {
      "midi": 54,
      "hit": false,
      "t": 90686.96999999972,
      "d": 9.541979166679084,
      "v": 75
    },
    {
      "midi": 76,
      "hit": false,
      "t": 90686.97000000007,
      "d": 453.2440104166599,
      "v": 105
    },
    {
      "midi": 88,
      "hit": false,
      "t": 90686.97000000007,
      "d": 453.2440104166599,
      "v": 105
    },
    {
      "midi": 60,
      "hit": false,
      "t": 90686.97000000009,
      "d": 343.5112499999959,
      "v": 120
    },
    {
      "midi": 64,
      "hit": false,
      "t": 90686.97000000009,
      "d": 343.5112499999959,
      "v": 120
    },
    {
      "midi": 67,
      "hit": false,
      "t": 90686.97000000009,
      "d": 343.5112499999959,
      "v": 120
    },
    {
      "midi": 76,
      "hit": false,
      "t": 90686.97000000019,
      "d": 458.0149999999994,
      "v": 84
    },
    {
      "midi": 59,
      "hit": false,
      "t": 90686.97000000055,
      "d": 114.50375000000349,
      "v": 83
    },
    {
      "midi": 59,
      "hit": false,
      "t": 90686.97000000057,
      "d": 114.50375000000349,
      "v": 70
    },
    {
      "midi": 67,
      "hit": false,
      "t": 90801.47375000056,
      "d": 114.50375000000349,
      "v": 103
    },
    {
      "midi": 67,
      "hit": false,
      "t": 90801.47375000057,
      "d": 114.50375000000349,
      "v": 78
    },
    {
      "midi": 54,
      "hit": false,
      "t": 90811.0157291664,
      "d": 9.541979166664532,
      "v": 35
    },
    {
      "midi": 36,
      "hit": false,
      "t": 90915.97749999973,
      "d": 9.541979166664532,
      "v": 108
    },
    {
      "midi": 54,
      "hit": false,
      "t": 90915.97749999973,
      "d": 9.541979166664532,
      "v": 55
    },
    {
      "midi": 67,
      "hit": false,
      "t": 90915.97750000056,
      "d": 114.50375000000349,
      "v": 92
    },
    {
      "midi": 67,
      "hit": false,
      "t": 90915.97750000058,
      "d": 229.00750000000698,
      "v": 86
    },
    {
      "midi": 59,
      "hit": false,
      "t": 91030.48125000056,
      "d": 114.50375000000349,
      "v": 83
    },
    {
      "midi": 59,
      "hit": false,
      "t": 91030.48125000058,
      "d": 114.50375000000349,
      "v": 70
    },
    {
      "midi": 54,
      "hit": false,
      "t": 91040.0232291664,
      "d": 9.541979166664532,
      "v": 35
    },
    {
      "midi": 38,
      "hit": false,
      "t": 91140.2140104164,
      "d": 9.541979166679084,
      "v": 96
    },
    {
      "midi": 42,
      "hit": false,
      "t": 91144.98499999974,
      "d": 9.541979166679084,
      "v": 125
    },
    {
      "midi": 54,
      "hit": false,
      "t": 91144.98499999974,
      "d": 9.541979166679084,
      "v": 75
    },
    {
      "midi": 86,
      "hit": false,
      "t": 91144.98500000007,
      "d": 453.2440104166744,
      "v": 105
    },
    {
      "midi": 74,
      "hit": false,
      "t": 91144.98500000007,
      "d": 453.2440104166744,
      "v": 105
    },
    {
      "midi": 59,
      "hit": false,
      "t": 91144.98500000009,
      "d": 343.5112499999959,
      "v": 120
    },
    {
      "midi": 62,
      "hit": false,
      "t": 91144.98500000009,
      "d": 343.5112499999959,
      "v": 120
    },
    {
      "midi": 65,
      "hit": false,
      "t": 91144.98500000009,
      "d": 343.5112499999959,
      "v": 120
    },
    {
      "midi": 74,
      "hit": false,
      "t": 91144.98500000019,
      "d": 458.0149999999994,
      "v": 84
    },
    {
      "midi": 67,
      "hit": false,
      "t": 91144.98500000057,
      "d": 114.50375000000349,
      "v": 103
    },
    {
      "midi": 67,
      "hit": false,
      "t": 91144.98500000058,
      "d": 114.50375000000349,
      "v": 86
    },
    {
      "midi": 67,
      "hit": false,
      "t": 91259.48875000057,
      "d": 114.50375000000349,
      "v": 92
    },
    {
      "midi": 67,
      "hit": false,
      "t": 91259.48875000059,
      "d": 229.00750000000698,
      "v": 78
    },
    {
      "midi": 54,
      "hit": false,
      "t": 91269.03072916642,
      "d": 9.541979166664532,
      "v": 35
    },
    {
      "midi": 36,
      "hit": false,
      "t": 91373.99249999975,
      "d": 9.541979166664532,
      "v": 108
    },
    {
      "midi": 54,
      "hit": false,
      "t": 91373.99249999975,
      "d": 9.541979166664532,
      "v": 55
    },
    {
      "midi": 59,
      "hit": false,
      "t": 91373.99250000058,
      "d": 114.50375000000349,
      "v": 83
    },
    {
      "midi": 59,
      "hit": false,
      "t": 91373.99250000059,
      "d": 114.50375000000349,
      "v": 70
    },
    {
      "midi": 67,
      "hit": false,
      "t": 91488.49625000058,
      "d": 114.50375000000349,
      "v": 103
    },
    {
      "midi": 67,
      "hit": false,
      "t": 91488.4962500006,
      "d": 114.50375000000349,
      "v": 86
    },
    {
      "midi": 54,
      "hit": false,
      "t": 91498.03822916641,
      "d": 9.541979166664532,
      "v": 35
    },
    {
      "midi": 38,
      "hit": false,
      "t": 91598.22901041641,
      "d": 9.541979166679084,
      "v": 96
    },
    {
      "midi": 42,
      "hit": false,
      "t": 91602.99999999975,
      "d": 9.541979166679084,
      "v": 125
    },
    {
      "midi": 54,
      "hit": false,
      "t": 91602.99999999975,
      "d": 9.541979166679084,
      "v": 75
    },
    {
      "midi": 72,
      "hit": false,
      "t": 91603.00000000009,
      "d": 453.2440104166599,
      "v": 105
    },
    {
      "midi": 84,
      "hit": false,
      "t": 91603.00000000009,
      "d": 453.2440104166599,
      "v": 105
    },
    {
      "midi": 64,
      "hit": false,
      "t": 91603.00000000009,
      "d": 1603.0524999999907,
      "v": 105
    },
    {
      "midi": 67,
      "hit": false,
      "t": 91603.00000000009,
      "d": 1603.0524999999907,
      "v": 105
    },
    {
      "midi": 60,
      "hit": false,
      "t": 91603.00000000009,
      "d": 1603.0524999999907,
      "v": 105
    },
    {
      "midi": 69,
      "hit": false,
      "t": 91603.00000000009,
      "d": 1603.0524999999907,
      "v": 105
    },
    {
      "midi": 64,
      "hit": false,
      "t": 91603.00000000009,
      "d": 343.5112499999959,
      "v": 120
    },
    {
      "midi": 67,
      "hit": false,
      "t": 91603.00000000009,
      "d": 343.5112499999959,
      "v": 120
    },
    {
      "midi": 72,
      "hit": false,
      "t": 91603.00000000009,
      "d": 343.5112499999959,
      "v": 120
    },
    {
      "midi": 76,
      "hit": false,
      "t": 91603.00000000019,
      "d": 458.0149999999994,
      "v": 84
    },
    {
      "midi": 60,
      "hit": false,
      "t": 91603.00000000058,
      "d": 114.50375000000349,
      "v": 92
    },
    {
      "midi": 60,
      "hit": false,
      "t": 91603.0000000006,
      "d": 114.50375000000349,
      "v": 78
    },
    {
      "midi": 81,
      "hit": false,
      "t": 91612.54197916664,
      "d": 1832.0599999999977,
      "v": 80
    },
    {
      "midi": 60,
      "hit": false,
      "t": 91717.50375000059,
      "d": 114.50375000000349,
      "v": 92
    },
    {
      "midi": 60,
      "hit": false,
      "t": 91717.5037500006,
      "d": 114.50375000000349,
      "v": 78
    },
    {
      "midi": 54,
      "hit": false,
      "t": 91727.04572916644,
      "d": 9.541979166664532,
      "v": 35
    },
    {
      "midi": 36,
      "hit": false,
      "t": 91832.00749999976,
      "d": 9.541979166664532,
      "v": 108
    },
    {
      "midi": 54,
      "hit": false,
      "t": 91832.00749999976,
      "d": 9.541979166664532,
      "v": 55
    },
    {
      "midi": 64,
      "hit": false,
      "t": 91832.00750000059,
      "d": 114.50375000000349,
      "v": 92
    },
    {
      "midi": 64,
      "hit": false,
      "t": 91832.0075000006,
      "d": 114.50375000000349,
      "v": 78
    },
    {
      "midi": 64,
      "hit": false,
      "t": 91946.51125000059,
      "d": 114.50375000000349,
      "v": 92
    },
    {
      "midi": 64,
      "hit": false,
      "t": 91946.5112500006,
      "d": 114.50375000000349,
      "v": 78
    },
    {
      "midi": 54,
      "hit": false,
      "t": 91956.05322916643,
      "d": 9.541979166664532,
      "v": 35
    },
    {
      "midi": 38,
      "hit": false,
      "t": 92056.24401041643,
      "d": 9.541979166679084,
      "v": 96
    },
    {
      "midi": 42,
      "hit": false,
      "t": 92061.01499999977,
      "d": 9.541979166679084,
      "v": 125
    },
    {
      "midi": 54,
      "hit": false,
      "t": 92061.01499999977,
      "d": 9.541979166679084,
      "v": 75
    },
    {
      "midi": 72,
      "hit": false,
      "t": 92061.01500000009,
      "d": 453.2440104166599,
      "v": 105
    },
    {
      "midi": 84,
      "hit": false,
      "t": 92061.01500000009,
      "d": 453.2440104166599,
      "v": 105
    },
    {
      "midi": 64,
      "hit": false,
      "t": 92061.01500000009,
      "d": 343.5112499999959,
      "v": 120
    },
    {
      "midi": 67,
      "hit": false,
      "t": 92061.01500000009,
      "d": 343.5112499999959,
      "v": 120
    },
    {
      "midi": 72,
      "hit": false,
      "t": 92061.01500000009,
      "d": 343.5112499999959,
      "v": 120
    },
    {
      "midi": 76,
      "hit": false,
      "t": 92061.01500000019,
      "d": 458.0149999999994,
      "v": 84
    },
    {
      "midi": 69,
      "hit": false,
      "t": 92061.0150000006,
      "d": 114.50375000000349,
      "v": 103
    },
    {
      "midi": 69,
      "hit": false,
      "t": 92061.01500000061,
      "d": 114.50375000000349,
      "v": 86
    },
    {
      "midi": 69,
      "hit": false,
      "t": 92175.5187500006,
      "d": 114.50375000000349,
      "v": 92
    },
    {
      "midi": 69,
      "hit": false,
      "t": 92175.51875000061,
      "d": 229.00750000000698,
      "v": 78
    },
    {
      "midi": 54,
      "hit": false,
      "t": 92185.06072916645,
      "d": 9.541979166664532,
      "v": 35
    },
    {
      "midi": 54,
      "hit": false,
      "t": 92290.02249999977,
      "d": 9.541979166664532,
      "v": 55
    },
    {
      "midi": 60,
      "hit": false,
      "t": 92290.0225000006,
      "d": 114.50375000000349,
      "v": 83
    },
    {
      "midi": 60,
      "hit": false,
      "t": 92290.02250000062,
      "d": 114.50375000000349,
      "v": 70
    },
    {
      "midi": 69,
      "hit": false,
      "t": 92404.5262500006,
      "d": 114.50375000000349,
      "v": 103
    },
    {
      "midi": 69,
      "hit": false,
      "t": 92404.52625000062,
      "d": 229.00750000000698,
      "v": 86
    },
    {
      "midi": 54,
      "hit": false,
      "t": 92414.06822916644,
      "d": 9.541979166664532,
      "v": 35
    },
    {
      "midi": 38,
      "hit": false,
      "t": 92514.25901041644,
      "d": 9.541979166679084,
      "v": 96
    },
    {
      "midi": 42,
      "hit": false,
      "t": 92519.02999999978,
      "d": 9.541979166679084,
      "v": 125
    },
    {
      "midi": 54,
      "hit": false,
      "t": 92519.02999999978,
      "d": 9.541979166679084,
      "v": 75
    },
    {
      "midi": 64,
      "hit": false,
      "t": 92519.03000000009,
      "d": 190.8395833333343,
      "v": 120
    },
    {
      "midi": 60,
      "hit": false,
      "t": 92519.03000000009,
      "d": 190.8395833333343,
      "v": 120
    },
    {
      "midi": 72,
      "hit": false,
      "t": 92519.03000000009,
      "d": 190.8395833333343,
      "v": 120
    },
    {
      "midi": 72,
      "hit": false,
      "t": 92519.03000000019,
      "d": 229.00750000000698,
      "v": 84
    },
    {
      "midi": 60,
      "hit": false,
      "t": 92519.03000000061,
      "d": 114.50375000000349,
      "v": 83
    },
    {
      "midi": 60,
      "hit": false,
      "t": 92519.03000000062,
      "d": 114.50375000000349,
      "v": 70
    },
    {
      "midi": 69,
      "hit": false,
      "t": 92633.53375000061,
      "d": 114.50375000000349,
      "v": 103
    },
    {
      "midi": 69,
      "hit": false,
      "t": 92633.53375000063,
      "d": 114.50375000000349,
      "v": 86
    },
    {
      "midi": 54,
      "hit": false,
      "t": 92643.07572916646,
      "d": 9.541979166664532,
      "v": 35
    },
    {
      "midi": 36,
      "hit": false,
      "t": 92748.03749999979,
      "d": 9.541979166664532,
      "v": 108
    },
    {
      "midi": 54,
      "hit": false,
      "t": 92748.03749999979,
      "d": 9.541979166664532,
      "v": 55
    },
    {
      "midi": 62,
      "hit": false,
      "t": 92748.0375000001,
      "d": 190.8395833333343,
      "v": 120
    },
    {
      "midi": 65,
      "hit": false,
      "t": 92748.0375000001,
      "d": 190.8395833333343,
      "v": 120
    },
    {
      "midi": 72,
      "hit": false,
      "t": 92748.0375000001,
      "d": 190.8395833333343,
      "v": 120
    },
    {
      "midi": 74,
      "hit": false,
      "t": 92748.0375000002,
      "d": 229.00750000000698,
      "v": 84
    },
    {
      "midi": 69,
      "hit": false,
      "t": 92748.03750000062,
      "d": 114.50375000000349,
      "v": 92
    },
    {
      "midi": 69,
      "hit": false,
      "t": 92748.03750000063,
      "d": 229.00750000000698,
      "v": 78
    },
    {
      "midi": 60,
      "hit": false,
      "t": 92862.54125000062,
      "d": 114.50375000000349,
      "v": 83
    },
    {
      "midi": 60,
      "hit": false,
      "t": 92862.54125000064,
      "d": 114.50375000000349,
      "v": 70
    },
    {
      "midi": 54,
      "hit": false,
      "t": 92872.08322916646,
      "d": 9.541979166664532,
      "v": 35
    },
    {
      "midi": 38,
      "hit": false,
      "t": 92972.27401041645,
      "d": 9.541979166679084,
      "v": 96
    },
    {
      "midi": 42,
      "hit": false,
      "t": 92977.0449999998,
      "d": 9.541979166679084,
      "v": 125
    },
    {
      "midi": 54,
      "hit": false,
      "t": 92977.0449999998,
      "d": 9.541979166679084,
      "v": 75
    },
    {
      "midi": 64,
      "hit": false,
      "t": 92977.0450000001,
      "d": 190.8395833333343,
      "v": 120
    },
    {
      "midi": 67,
      "hit": false,
      "t": 92977.0450000001,
      "d": 190.8395833333343,
      "v": 120
    },
    {
      "midi": 72,
      "hit": false,
      "t": 92977.0450000001,
      "d": 190.8395833333343,
      "v": 120
    },
    {
      "midi": 76,
      "hit": false,
      "t": 92977.0450000002,
      "d": 229.00750000000698,
      "v": 84
    },
    {
      "midi": 69,
      "hit": false,
      "t": 92977.04500000062,
      "d": 114.50375000000349,
      "v": 103
    },
    {
      "midi": 69,
      "hit": false,
      "t": 92977.04500000064,
      "d": 114.50375000000349,
      "v": 86
    },
    {
      "midi": 69,
      "hit": false,
      "t": 93091.54875000063,
      "d": 114.50375000000349,
      "v": 92
    },
    {
      "midi": 69,
      "hit": false,
      "t": 93091.54875000064,
      "d": 229.00750000000698,
      "v": 78
    },
    {
      "midi": 54,
      "hit": false,
      "t": 93101.09072916648,
      "d": 9.541979166664532,
      "v": 35
    },
    {
      "midi": 36,
      "hit": false,
      "t": 93206.0524999998,
      "d": 9.541979166664532,
      "v": 108
    },
    {
      "midi": 54,
      "hit": false,
      "t": 93206.0524999998,
      "d": 9.541979166664532,
      "v": 55
    },
    {
      "midi": 65,
      "hit": false,
      "t": 93206.0525000001,
      "d": 190.8395833333343,
      "v": 120
    },
    {
      "midi": 69,
      "hit": false,
      "t": 93206.0525000001,
      "d": 190.8395833333343,
      "v": 120
    },
    {
      "midi": 72,
      "hit": false,
      "t": 93206.0525000001,
      "d": 190.8395833333343,
      "v": 120
    },
    {
      "midi": 77,
      "hit": false,
      "t": 93206.05250000021,
      "d": 229.00750000000698,
      "v": 84
    },
    {
      "midi": 60,
      "hit": false,
      "t": 93206.05250000063,
      "d": 114.50375000000349,
      "v": 83
    },
    {
      "midi": 60,
      "hit": false,
      "t": 93206.05250000065,
      "d": 114.50375000000349,
      "v": 70
    },
    {
      "midi": 69,
      "hit": false,
      "t": 93320.55625000063,
      "d": 114.50375000000349,
      "v": 103
    },
    {
      "midi": 69,
      "hit": false,
      "t": 93320.55625000065,
      "d": 114.50375000000349,
      "v": 86
    },
    {
      "midi": 54,
      "hit": false,
      "t": 93330.09822916647,
      "d": 9.541979166664532,
      "v": 35
    },
    {
      "midi": 38,
      "hit": false,
      "t": 93430.28901041647,
      "d": 9.541979166679084,
      "v": 96
    },
    {
      "midi": 42,
      "hit": false,
      "t": 93435.05999999981,
      "d": 9.541979166679084,
      "v": 125
    },
    {
      "midi": 54,
      "hit": false,
      "t": 93435.05999999981,
      "d": 9.541979166679084,
      "v": 75
    },
    {
      "midi": 59,
      "hit": false,
      "t": 93435.06000000008,
      "d": 1145.0375000000058,
      "v": 105
    },
    {
      "midi": 67,
      "hit": false,
      "t": 93435.06000000008,
      "d": 1145.0375000000058,
      "v": 105
    },
    {
      "midi": 64,
      "hit": false,
      "t": 93435.06000000008,
      "d": 1145.0375000000058,
      "v": 105
    },
    {
      "midi": 62,
      "hit": false,
      "t": 93435.06000000008,
      "d": 1145.0375000000058,
      "v": 105
    },
    {
      "midi": 64,
      "hit": false,
      "t": 93435.06000000011,
      "d": 343.5112499999959,
      "v": 120
    },
    {
      "midi": 67,
      "hit": false,
      "t": 93435.06000000011,
      "d": 343.5112499999959,
      "v": 120
    },
    {
      "midi": 71,
      "hit": false,
      "t": 93435.06000000011,
      "d": 343.5112499999959,
      "v": 120
    },
    {
      "midi": 76,
      "hit": false,
      "t": 93435.06000000022,
      "d": 458.0149999999994,
      "v": 84
    },
    {
      "midi": 59,
      "hit": false,
      "t": 93435.06000000064,
      "d": 114.50375000000349,
      "v": 92
    },
    {
      "midi": 59,
      "hit": false,
      "t": 93435.06000000065,
      "d": 114.50375000000349,
      "v": 78
    },
    {
      "midi": 79,
      "hit": false,
      "t": 93444.60197916663,
      "d": 1374.0449999999983,
      "v": 80
    },
    {
      "midi": 59,
      "hit": false,
      "t": 93549.56375000064,
      "d": 114.50375000000349,
      "v": 92
    },
    {
      "midi": 59,
      "hit": false,
      "t": 93549.56375000066,
      "d": 114.50375000000349,
      "v": 78
    },
    {
      "midi": 54,
      "hit": false,
      "t": 93559.10572916649,
      "d": 9.541979166664532,
      "v": 35
    },
    {
      "midi": 36,
      "hit": false,
      "t": 93664.06749999982,
      "d": 9.541979166664532,
      "v": 108
    },
    {
      "midi": 54,
      "hit": false,
      "t": 93664.06749999982,
      "d": 9.541979166664532,
      "v": 55
    },
    {
      "midi": 64,
      "hit": false,
      "t": 93664.06750000064,
      "d": 114.50375000000349,
      "v": 92
    },
    {
      "midi": 64,
      "hit": false,
      "t": 93664.06750000066,
      "d": 114.50375000000349,
      "v": 78
    },
    {
      "midi": 64,
      "hit": false,
      "t": 93778.57125000065,
      "d": 114.50375000000349,
      "v": 92
    },
    {
      "midi": 64,
      "hit": false,
      "t": 93778.57125000066,
      "d": 114.50375000000349,
      "v": 78
    },
    {
      "midi": 54,
      "hit": false,
      "t": 93788.11322916648,
      "d": 9.541979166664532,
      "v": 35
    },
    {
      "midi": 38,
      "hit": false,
      "t": 93888.30401041648,
      "d": 9.541979166679084,
      "v": 96
    },
    {
      "midi": 42,
      "hit": false,
      "t": 93893.07499999982,
      "d": 9.541979166679084,
      "v": 125
    },
    {
      "midi": 54,
      "hit": false,
      "t": 93893.07499999982,
      "d": 9.541979166679084,
      "v": 75
    },
    {
      "midi": 62,
      "hit": false,
      "t": 93893.07500000011,
      "d": 343.5112499999959,
      "v": 120
    },
    {
      "midi": 65,
      "hit": false,
      "t": 93893.07500000011,
      "d": 343.5112499999959,
      "v": 120
    },
    {
      "midi": 71,
      "hit": false,
      "t": 93893.07500000011,
      "d": 343.5112499999959,
      "v": 120
    },
    {
      "midi": 74,
      "hit": false,
      "t": 93893.07500000022,
      "d": 458.0149999999994,
      "v": 84
    },
    {
      "midi": 67,
      "hit": false,
      "t": 93893.07500000065,
      "d": 114.50375000000349,
      "v": 103
    },
    {
      "midi": 67,
      "hit": false,
      "t": 93893.07500000067,
      "d": 114.50375000000349,
      "v": 86
    },
    {
      "midi": 67,
      "hit": false,
      "t": 94007.57875000066,
      "d": 114.50375000000349,
      "v": 92
    },
    {
      "midi": 67,
      "hit": false,
      "t": 94007.57875000067,
      "d": 229.00750000000698,
      "v": 78
    },
    {
      "midi": 54,
      "hit": false,
      "t": 94017.1207291665,
      "d": 9.541979166664532,
      "v": 35
    },
    {
      "midi": 54,
      "hit": false,
      "t": 94122.08249999983,
      "d": 9.541979166664532,
      "v": 55
    },
    {
      "midi": 59,
      "hit": false,
      "t": 94122.08250000066,
      "d": 114.50375000000349,
      "v": 83
    },
    {
      "midi": 59,
      "hit": false,
      "t": 94122.08250000067,
      "d": 114.50375000000349,
      "v": 70
    },
    {
      "midi": 67,
      "hit": false,
      "t": 94236.58625000066,
      "d": 114.50375000000349,
      "v": 103
    },
    {
      "midi": 67,
      "hit": false,
      "t": 94236.58625000068,
      "d": 114.50375000000349,
      "v": 86
    },
    {
      "midi": 54,
      "hit": false,
      "t": 94246.1282291665,
      "d": 9.541979166664532,
      "v": 35
    },
    {
      "midi": 38,
      "hit": false,
      "t": 94346.3190104165,
      "d": 9.541979166679084,
      "v": 96
    },
    {
      "midi": 42,
      "hit": false,
      "t": 94351.08999999984,
      "d": 9.541979166679084,
      "v": 125
    },
    {
      "midi": 54,
      "hit": false,
      "t": 94351.08999999984,
      "d": 9.541979166679084,
      "v": 75
    },
    {
      "midi": 64,
      "hit": false,
      "t": 94351.09000000011,
      "d": 343.5112499999959,
      "v": 120
    },
    {
      "midi": 60,
      "hit": false,
      "t": 94351.09000000011,
      "d": 343.5112499999959,
      "v": 120
    },
    {
      "midi": 71,
      "hit": false,
      "t": 94351.09000000011,
      "d": 343.5112499999959,
      "v": 120
    },
    {
      "midi": 72,
      "hit": false,
      "t": 94351.09000000021,
      "d": 458.0149999999994,
      "v": 84
    },
    {
      "midi": 59,
      "hit": false,
      "t": 94351.09000000067,
      "d": 114.50375000000349,
      "v": 83
    },
    {
      "midi": 59,
      "hit": false,
      "t": 94351.09000000068,
      "d": 114.50375000000349,
      "v": 70
    },
    {
      "midi": 67,
      "hit": false,
      "t": 94465.59375000067,
      "d": 114.50375000000349,
      "v": 103
    },
    {
      "midi": 67,
      "hit": false,
      "t": 94465.59375000068,
      "d": 114.50375000000349,
      "v": 86
    },
    {
      "midi": 54,
      "hit": false,
      "t": 94475.13572916652,
      "d": 9.541979166664532,
      "v": 35
    },
    {
      "midi": 36,
      "hit": false,
      "t": 94580.09749999984,
      "d": 9.541979166664532,
      "v": 108
    },
    {
      "midi": 54,
      "hit": false,
      "t": 94580.09749999984,
      "d": 9.541979166664532,
      "v": 55
    },
    {
      "midi": 67,
      "hit": false,
      "t": 94580.09750000067,
      "d": 114.50375000000349,
      "v": 92
    },
    {
      "midi": 67,
      "hit": false,
      "t": 94580.09750000069,
      "d": 229.00750000000698,
      "v": 78
    },
    {
      "midi": 59,
      "hit": false,
      "t": 94694.60125000068,
      "d": 114.50375000000349,
      "v": 83
    },
    {
      "midi": 59,
      "hit": false,
      "t": 94694.60125000069,
      "d": 114.50375000000349,
      "v": 70
    },
    {
      "midi": 54,
      "hit": false,
      "t": 94704.14322916651,
      "d": 9.541979166664532,
      "v": 35
    },
    {
      "midi": 38,
      "hit": false,
      "t": 94804.33401041651,
      "d": 9.541979166679084,
      "v": 96
    },
    {
      "midi": 42,
      "hit": false,
      "t": 94809.10499999985,
      "d": 9.541979166679084,
      "v": 125
    },
    {
      "midi": 54,
      "hit": false,
      "t": 94809.10499999985,
      "d": 9.541979166679084,
      "v": 75
    },
    {
      "midi": 59,
      "hit": false,
      "t": 94809.1050000001,
      "d": 400.7631249999977,
      "v": 105
    },
    {
      "midi": 68,
      "hit": false,
      "t": 94809.1050000001,
      "d": 400.7631249999977,
      "v": 105
    },
    {
      "midi": 62,
      "hit": false,
      "t": 94809.1050000001,
      "d": 400.7631249999977,
      "v": 105
    },
    {
      "midi": 64,
      "hit": false,
      "t": 94809.1050000001,
      "d": 400.7631249999977,
      "v": 105
    },
    {
      "midi": 59,
      "hit": false,
      "t": 94809.10500000011,
      "d": 343.5112499999959,
      "v": 120
    },
    {
      "midi": 64,
      "hit": false,
      "t": 94809.10500000011,
      "d": 343.5112499999959,
      "v": 120
    },
    {
      "midi": 71,
      "hit": false,
      "t": 94809.10500000011,
      "d": 343.5112499999959,
      "v": 120
    },
    {
      "midi": 71,
      "hit": false,
      "t": 94809.10500000021,
      "d": 458.0149999999994,
      "v": 84
    },
    {
      "midi": 59,
      "hit": false,
      "t": 94809.10500000068,
      "d": 114.50375000000349,
      "v": 83
    },
    {
      "midi": 59,
      "hit": false,
      "t": 94809.1050000007,
      "d": 114.50375000000349,
      "v": 70
    },
    {
      "midi": 80,
      "hit": false,
      "t": 94818.64697916663,
      "d": 458.0149999999994,
      "v": 80
    },
    {
      "midi": 68,
      "hit": false,
      "t": 94923.60875000068,
      "d": 114.50375000000349,
      "v": 103
    },
    {
      "midi": 68,
      "hit": false,
      "t": 94923.6087500007,
      "d": 114.50375000000349,
      "v": 86
    },
    {
      "midi": 54,
      "hit": false,
      "t": 94933.15072916653,
      "d": 9.541979166664532,
      "v": 35
    },
    {
      "midi": 36,
      "hit": false,
      "t": 95038.11249999986,
      "d": 9.541979166664532,
      "v": 108
    },
    {
      "midi": 54,
      "hit": false,
      "t": 95038.11249999986,
      "d": 9.541979166664532,
      "v": 55
    },
    {
      "midi": 68,
      "hit": false,
      "t": 95038.11250000069,
      "d": 114.50375000000349,
      "v": 92
    },
    {
      "midi": 68,
      "hit": false,
      "t": 95038.1125000007,
      "d": 229.00750000000698,
      "v": 78
    },
    {
      "midi": 59,
      "hit": false,
      "t": 95152.61625000069,
      "d": 114.50375000000349,
      "v": 83
    },
    {
      "midi": 59,
      "hit": false,
      "t": 95152.6162500007,
      "d": 114.50375000000349,
      "v": 70
    },
    {
      "midi": 54,
      "hit": false,
      "t": 95162.15822916653,
      "d": 9.541979166664532,
      "v": 35
    },
    {
      "midi": 38,
      "hit": false,
      "t": 95262.34901041652,
      "d": 9.541979166679084,
      "v": 96
    },
    {
      "midi": 49,
      "hit": false,
      "t": 95267.11999999986,
      "d": 9.541979166679084,
      "v": 100
    },
    {
      "midi": 54,
      "hit": false,
      "t": 95267.11999999986,
      "d": 9.541979166679084,
      "v": 75
    },
    {
      "midi": 69,
      "hit": false,
      "t": 95267.1200000001,
      "d": 1374.0449999999983,
      "v": 105
    },
    {
      "midi": 72,
      "hit": false,
      "t": 95267.1200000001,
      "d": 1374.0449999999983,
      "v": 105
    },
    {
      "midi": 77,
      "hit": false,
      "t": 95267.1200000001,
      "d": 1374.0449999999983,
      "v": 105
    },
    {
      "midi": 81,
      "hit": false,
      "t": 95267.1200000001,
      "d": 1374.0449999999983,
      "v": 105
    },
    {
      "midi": 57,
      "hit": false,
      "t": 95267.1200000007,
      "d": 114.50375000000349,
      "v": 103
    },
    {
      "midi": 57,
      "hit": false,
      "t": 95267.12000000071,
      "d": 114.50375000000349,
      "v": 86
    },
    {
      "midi": 81,
      "hit": false,
      "t": 95276.66197916663,
      "d": 1832.0599999999977,
      "v": 80
    },
    {
      "midi": 60,
      "hit": false,
      "t": 95381.6237500007,
      "d": 114.50375000000349,
      "v": 83
    },
    {
      "midi": 60,
      "hit": false,
      "t": 95381.62375000071,
      "d": 114.50375000000349,
      "v": 70
    },
    {
      "midi": 54,
      "hit": false,
      "t": 95391.16572916655,
      "d": 9.541979166664532,
      "v": 35
    },
    {
      "midi": 36,
      "hit": false,
      "t": 95496.12749999987,
      "d": 9.541979166664532,
      "v": 108
    },
    {
      "midi": 54,
      "hit": false,
      "t": 95496.12749999987,
      "d": 9.541979166664532,
      "v": 55
    },
    {
      "midi": 64,
      "hit": false,
      "t": 95496.1275000007,
      "d": 114.50375000000349,
      "v": 92
    },
    {
      "midi": 64,
      "hit": false,
      "t": 95496.12750000072,
      "d": 114.50375000000349,
      "v": 78
    },
    {
      "midi": 65,
      "hit": false,
      "t": 95610.6312500007,
      "d": 114.50375000000349,
      "v": 83
    },
    {
      "midi": 65,
      "hit": false,
      "t": 95610.63125000072,
      "d": 114.50375000000349,
      "v": 70
    },
    {
      "midi": 54,
      "hit": false,
      "t": 95620.17322916654,
      "d": 9.541979166664532,
      "v": 35
    },
    {
      "midi": 38,
      "hit": false,
      "t": 95720.36401041654,
      "d": 9.541979166679084,
      "v": 96
    },
    {
      "midi": 42,
      "hit": false,
      "t": 95725.13499999988,
      "d": 9.541979166679084,
      "v": 125
    },
    {
      "midi": 54,
      "hit": false,
      "t": 95725.13499999988,
      "d": 9.541979166679084,
      "v": 75
    },
    {
      "midi": 65,
      "hit": false,
      "t": 95725.13500000011,
      "d": 190.8395833333343,
      "v": 120
    },
    {
      "midi": 69,
      "hit": false,
      "t": 95725.13500000011,
      "d": 190.8395833333343,
      "v": 120
    },
    {
      "midi": 72,
      "hit": false,
      "t": 95725.13500000011,
      "d": 190.8395833333343,
      "v": 120
    },
    {
      "midi": 69,
      "hit": false,
      "t": 95725.13500000021,
      "d": 229.00750000000698,
      "v": 84
    },
    {
      "midi": 65,
      "hit": false,
      "t": 95725.13500000071,
      "d": 114.50375000000349,
      "v": 103
    },
    {
      "midi": 65,
      "hit": false,
      "t": 95725.13500000072,
      "d": 114.50375000000349,
      "v": 86
    },
    {
      "midi": 65,
      "hit": false,
      "t": 95839.63875000071,
      "d": 114.50375000000349,
      "v": 92
    },
    {
      "midi": 65,
      "hit": false,
      "t": 95839.63875000073,
      "d": 229.00750000000698,
      "v": 78
    },
    {
      "midi": 54,
      "hit": false,
      "t": 95849.18072916656,
      "d": 9.541979166664532,
      "v": 35
    },
    {
      "midi": 54,
      "hit": false,
      "t": 95954.14249999989,
      "d": 9.541979166664532,
      "v": 55
    },
    {
      "midi": 65,
      "hit": false,
      "t": 95954.14250000012,
      "d": 190.8395833333343,
      "v": 120
    },
    {
      "midi": 69,
      "hit": false,
      "t": 95954.14250000012,
      "d": 190.8395833333343,
      "v": 120
    },
    {
      "midi": 72,
      "hit": false,
      "t": 95954.14250000012,
      "d": 190.8395833333343,
      "v": 120
    },
    {
      "midi": 69,
      "hit": false,
      "t": 95954.14250000022,
      "d": 229.00750000000698,
      "v": 84
    },
    {
      "midi": 60,
      "hit": false,
      "t": 95954.14250000071,
      "d": 114.50375000000349,
      "v": 83
    },
    {
      "midi": 60,
      "hit": false,
      "t": 95954.14250000073,
      "d": 114.50375000000349,
      "v": 70
    },
    {
      "midi": 65,
      "hit": false,
      "t": 96068.64625000072,
      "d": 114.50375000000349,
      "v": 92
    },
    {
      "midi": 65,
      "hit": false,
      "t": 96068.64625000073,
      "d": 114.50375000000349,
      "v": 78
    },
    {
      "midi": 54,
      "hit": false,
      "t": 96078.18822916655,
      "d": 9.541979166664532,
      "v": 35
    },
    {
      "midi": 38,
      "hit": false,
      "t": 96178.37901041655,
      "d": 9.541979166679084,
      "v": 96
    },
    {
      "midi": 42,
      "hit": false,
      "t": 96183.14999999989,
      "d": 9.541979166679084,
      "v": 125
    },
    {
      "midi": 54,
      "hit": false,
      "t": 96183.14999999989,
      "d": 9.541979166679084,
      "v": 75
    },
    {
      "midi": 65,
      "hit": false,
      "t": 96183.15000000013,
      "d": 343.5112499999959,
      "v": 120
    },
    {
      "midi": 69,
      "hit": false,
      "t": 96183.15000000013,
      "d": 343.5112499999959,
      "v": 120
    },
    {
      "midi": 72,
      "hit": false,
      "t": 96183.15000000013,
      "d": 343.5112499999959,
      "v": 120
    },
    {
      "midi": 72,
      "hit": false,
      "t": 96183.15000000023,
      "d": 458.0149999999994,
      "v": 84
    },
    {
      "midi": 65,
      "hit": false,
      "t": 96183.15000000072,
      "d": 114.50375000000349,
      "v": 103
    },
    {
      "midi": 65,
      "hit": false,
      "t": 96183.15000000074,
      "d": 114.50375000000349,
      "v": 86
    },
    {
      "midi": 65,
      "hit": false,
      "t": 96297.65375000073,
      "d": 114.50375000000349,
      "v": 92
    },
    {
      "midi": 65,
      "hit": false,
      "t": 96297.65375000074,
      "d": 229.00750000000698,
      "v": 78
    },
    {
      "midi": 54,
      "hit": false,
      "t": 96307.19572916657,
      "d": 9.541979166664532,
      "v": 35
    },
    {
      "midi": 36,
      "hit": false,
      "t": 96412.1574999999,
      "d": 9.541979166664532,
      "v": 108
    },
    {
      "midi": 54,
      "hit": false,
      "t": 96412.1574999999,
      "d": 9.541979166664532,
      "v": 55
    },
    {
      "midi": 64,
      "hit": false,
      "t": 96412.15750000073,
      "d": 114.50375000000349,
      "v": 83
    },
    {
      "midi": 64,
      "hit": false,
      "t": 96412.15750000074,
      "d": 114.50375000000349,
      "v": 70
    },
    {
      "midi": 65,
      "hit": false,
      "t": 96526.66125000073,
      "d": 114.50375000000349,
      "v": 92
    },
    {
      "midi": 65,
      "hit": false,
      "t": 96526.66125000075,
      "d": 114.50375000000349,
      "v": 78
    },
    {
      "midi": 54,
      "hit": false,
      "t": 96536.20322916657,
      "d": 9.541979166664532,
      "v": 35
    },
    {
      "midi": 38,
      "hit": false,
      "t": 96636.39401041657,
      "d": 9.541979166679084,
      "v": 96
    },
    {
      "midi": 42,
      "hit": false,
      "t": 96641.1649999999,
      "d": 9.541979166679084,
      "v": 125
    },
    {
      "midi": 54,
      "hit": false,
      "t": 96641.1649999999,
      "d": 9.541979166679084,
      "v": 75
    },
    {
      "midi": 65,
      "hit": false,
      "t": 96641.16500000012,
      "d": 343.5112499999959,
      "v": 120
    },
    {
      "midi": 69,
      "hit": false,
      "t": 96641.16500000012,
      "d": 343.5112499999959,
      "v": 120
    },
    {
      "midi": 72,
      "hit": false,
      "t": 96641.16500000012,
      "d": 343.5112499999959,
      "v": 120
    },
    {
      "midi": 81,
      "hit": false,
      "t": 96641.16500000023,
      "d": 458.0149999999994,
      "v": 84
    },
    {
      "midi": 65,
      "hit": false,
      "t": 96641.16500000074,
      "d": 114.50375000000349,
      "v": 103
    },
    {
      "midi": 65,
      "hit": false,
      "t": 96641.16500000075,
      "d": 114.50375000000349,
      "v": 86
    },
    {
      "midi": 65,
      "hit": false,
      "t": 96755.66875000074,
      "d": 114.50375000000349,
      "v": 92
    },
    {
      "midi": 65,
      "hit": false,
      "t": 96755.66875000075,
      "d": 229.00750000000698,
      "v": 78
    },
    {
      "midi": 54,
      "hit": false,
      "t": 96765.21072916659,
      "d": 9.541979166664532,
      "v": 35
    },
    {
      "midi": 36,
      "hit": false,
      "t": 96870.17249999991,
      "d": 9.541979166664532,
      "v": 108
    },
    {
      "midi": 54,
      "hit": false,
      "t": 96870.17249999991,
      "d": 9.541979166664532,
      "v": 55
    },
    {
      "midi": 69,
      "hit": false,
      "t": 96870.1725000001,
      "d": 114.50375000000349,
      "v": 105
    },
    {
      "midi": 72,
      "hit": false,
      "t": 96870.1725000001,
      "d": 114.50375000000349,
      "v": 105
    },
    {
      "midi": 77,
      "hit": false,
      "t": 96870.1725000001,
      "d": 114.50375000000349,
      "v": 105
    },
    {
      "midi": 81,
      "hit": false,
      "t": 96870.1725000001,
      "d": 114.50375000000349,
      "v": 105
    },
    {
      "midi": 60,
      "hit": false,
      "t": 96870.17250000074,
      "d": 114.50375000000349,
      "v": 83
    },
    {
      "midi": 60,
      "hit": false,
      "t": 96870.17250000076,
      "d": 114.50375000000349,
      "v": 70
    },
    {
      "midi": 69,
      "hit": false,
      "t": 96984.6762500001,
      "d": 114.50375000000349,
      "v": 105
    },
    {
      "midi": 72,
      "hit": false,
      "t": 96984.6762500001,
      "d": 114.50375000000349,
      "v": 105
    },
    {
      "midi": 77,
      "hit": false,
      "t": 96984.6762500001,
      "d": 114.50375000000349,
      "v": 105
    },
    {
      "midi": 81,
      "hit": false,
      "t": 96984.6762500001,
      "d": 114.50375000000349,
      "v": 105
    },
    {
      "midi": 65,
      "hit": false,
      "t": 96984.67625000075,
      "d": 114.50375000000349,
      "v": 92
    },
    {
      "midi": 65,
      "hit": false,
      "t": 96984.67625000076,
      "d": 114.50375000000349,
      "v": 78
    },
    {
      "midi": 54,
      "hit": false,
      "t": 96994.21822916658,
      "d": 9.541979166664532,
      "v": 35
    },
    {
      "midi": 38,
      "hit": false,
      "t": 97094.40901041658,
      "d": 9.541979166679084,
      "v": 96
    },
    {
      "midi": 42,
      "hit": false,
      "t": 97099.17999999992,
      "d": 9.541979166679084,
      "v": 125
    },
    {
      "midi": 54,
      "hit": false,
      "t": 97099.17999999992,
      "d": 9.541979166679084,
      "v": 75
    },
    {
      "midi": 76,
      "hit": false,
      "t": 97099.18000000011,
      "d": 916.0299999999988,
      "v": 105
    },
    {
      "midi": 79,
      "hit": false,
      "t": 97099.18000000011,
      "d": 916.0299999999988,
      "v": 105
    },
    {
      "midi": 71,
      "hit": false,
      "t": 97099.18000000011,
      "d": 916.0299999999988,
      "v": 105
    },
    {
      "midi": 67,
      "hit": false,
      "t": 97099.18000000011,
      "d": 916.0299999999988,
      "v": 105
    },
    {
      "midi": 64,
      "hit": false,
      "t": 97099.18000000012,
      "d": 801.5262499999953,
      "v": 120
    },
    {
      "midi": 67,
      "hit": false,
      "t": 97099.18000000012,
      "d": 801.5262499999953,
      "v": 120
    },
    {
      "midi": 71,
      "hit": false,
      "t": 97099.18000000012,
      "d": 801.5262499999953,
      "v": 120
    },
    {
      "midi": 79,
      "hit": false,
      "t": 97099.18000000023,
      "d": 916.0299999999988,
      "v": 84
    },
    {
      "midi": 59,
      "hit": false,
      "t": 97099.18000000075,
      "d": 114.50375000000349,
      "v": 103
    },
    {
      "midi": 59,
      "hit": false,
      "t": 97099.18000000076,
      "d": 114.50375000000349,
      "v": 86
    },
    {
      "midi": 83,
      "hit": false,
      "t": 97108.72197916663,
      "d": 916.0299999999988,
      "v": 80
    },
    {
      "midi": 59,
      "hit": false,
      "t": 97213.68375000075,
      "d": 114.50375000000349,
      "v": 83
    },
    {
      "midi": 59,
      "hit": false,
      "t": 97213.68375000077,
      "d": 114.50375000000349,
      "v": 70
    },
    {
      "midi": 54,
      "hit": false,
      "t": 97223.2257291666,
      "d": 9.541979166664532,
      "v": 35
    },
    {
      "midi": 36,
      "hit": false,
      "t": 97328.18749999993,
      "d": 9.541979166664532,
      "v": 108
    },
    {
      "midi": 54,
      "hit": false,
      "t": 97328.18749999993,
      "d": 9.541979166664532,
      "v": 55
    },
    {
      "midi": 59,
      "hit": false,
      "t": 97328.18750000076,
      "d": 114.50375000000349,
      "v": 92
    },
    {
      "midi": 59,
      "hit": false,
      "t": 97328.18750000077,
      "d": 114.50375000000349,
      "v": 78
    },
    {
      "midi": 59,
      "hit": false,
      "t": 97442.69125000076,
      "d": 114.50375000000349,
      "v": 83
    },
    {
      "midi": 59,
      "hit": false,
      "t": 97442.69125000077,
      "d": 114.50375000000349,
      "v": 70
    },
    {
      "midi": 54,
      "hit": false,
      "t": 97452.2332291666,
      "d": 9.541979166664532,
      "v": 35
    },
    {
      "midi": 38,
      "hit": false,
      "t": 97552.4240104166,
      "d": 9.541979166679084,
      "v": 96
    },
    {
      "midi": 42,
      "hit": false,
      "t": 97557.19499999993,
      "d": 9.541979166679084,
      "v": 125
    },
    {
      "midi": 54,
      "hit": false,
      "t": 97557.19499999993,
      "d": 9.541979166679084,
      "v": 75
    },
    {
      "midi": 59,
      "hit": false,
      "t": 97557.19500000076,
      "d": 114.50375000000349,
      "v": 92
    },
    {
      "midi": 59,
      "hit": false,
      "t": 97557.19500000078,
      "d": 114.50375000000349,
      "v": 78
    },
    {
      "midi": 59,
      "hit": false,
      "t": 97671.69875000077,
      "d": 114.50375000000349,
      "v": 83
    },
    {
      "midi": 59,
      "hit": false,
      "t": 97671.69875000078,
      "d": 114.50375000000349,
      "v": 70
    },
    {
      "midi": 54,
      "hit": false,
      "t": 97681.24072916662,
      "d": 9.541979166664532,
      "v": 35
    },
    {
      "midi": 54,
      "hit": false,
      "t": 97786.20249999994,
      "d": 9.541979166664532,
      "v": 55
    },
    {
      "midi": 64,
      "hit": false,
      "t": 97786.20250000077,
      "d": 114.50375000000349,
      "v": 83
    },
    {
      "midi": 64,
      "hit": false,
      "t": 97786.20250000079,
      "d": 114.50375000000349,
      "v": 70
    },
    {
      "midi": 67,
      "hit": false,
      "t": 97900.70625000077,
      "d": 114.50375000000349,
      "v": 103
    },
    {
      "midi": 67,
      "hit": false,
      "t": 97900.70625000079,
      "d": 114.50375000000349,
      "v": 86
    },
    {
      "midi": 54,
      "hit": false,
      "t": 97910.24822916661,
      "d": 9.541979166664532,
      "v": 35
    },
    {
      "midi": 38,
      "hit": false,
      "t": 98010.43901041661,
      "d": 9.541979166679084,
      "v": 96
    },
    {
      "midi": 42,
      "hit": false,
      "t": 98015.20999999995,
      "d": 9.541979166679084,
      "v": 125
    },
    {
      "midi": 54,
      "hit": false,
      "t": 98015.20999999995,
      "d": 9.541979166679084,
      "v": 75
    },
    {
      "midi": 72,
      "hit": false,
      "t": 98015.21000000011,
      "d": 916.0299999999988,
      "v": 105
    },
    {
      "midi": 76,
      "hit": false,
      "t": 98015.21000000011,
      "d": 916.0299999999988,
      "v": 105
    },
    {
      "midi": 81,
      "hit": false,
      "t": 98015.21000000011,
      "d": 916.0299999999988,
      "v": 105
    },
    {
      "midi": 57,
      "hit": false,
      "t": 98015.21000000012,
      "d": 343.5112499999959,
      "v": 120
    },
    {
      "midi": 60,
      "hit": false,
      "t": 98015.21000000012,
      "d": 343.5112499999959,
      "v": 120
    },
    {
      "midi": 72,
      "hit": false,
      "t": 98015.21000000012,
      "d": 343.5112499999959,
      "v": 120
    },
    {
      "midi": 72,
      "hit": false,
      "t": 98015.21000000022,
      "d": 458.0149999999994,
      "v": 84
    },
    {
      "midi": 60,
      "hit": false,
      "t": 98015.21000000078,
      "d": 114.50375000000349,
      "v": 83
    },
    {
      "midi": 60,
      "hit": false,
      "t": 98015.21000000079,
      "d": 114.50375000000349,
      "v": 70
    },
    {
      "midi": 84,
      "hit": false,
      "t": 98024.75197916663,
      "d": 916.0299999999988,
      "v": 80
    },
    {
      "midi": 69,
      "hit": false,
      "t": 98129.71375000078,
      "d": 114.50375000000349,
      "v": 103
    },
    {
      "midi": 69,
      "hit": false,
      "t": 98129.7137500008,
      "d": 114.50375000000349,
      "v": 86
    },
    {
      "midi": 54,
      "hit": false,
      "t": 98139.25572916663,
      "d": 9.541979166664532,
      "v": 35
    },
    {
      "midi": 36,
      "hit": false,
      "t": 98244.21749999996,
      "d": 9.541979166664532,
      "v": 108
    },
    {
      "midi": 54,
      "hit": false,
      "t": 98244.21749999996,
      "d": 9.541979166664532,
      "v": 55
    },
    {
      "midi": 69,
      "hit": false,
      "t": 98244.21750000078,
      "d": 114.50375000000349,
      "v": 92
    },
    {
      "midi": 69,
      "hit": false,
      "t": 98244.2175000008,
      "d": 114.50375000000349,
      "v": 78
    },
    {
      "midi": 60,
      "hit": false,
      "t": 98358.72125000079,
      "d": 114.50375000000349,
      "v": 83
    },
    {
      "midi": 60,
      "hit": false,
      "t": 98358.7212500008,
      "d": 114.50375000000349,
      "v": 70
    },
    {
      "midi": 54,
      "hit": false,
      "t": 98368.26322916662,
      "d": 9.541979166664532,
      "v": 35
    },
    {
      "midi": 38,
      "hit": false,
      "t": 98468.45401041662,
      "d": 9.541979166679084,
      "v": 96
    },
    {
      "midi": 42,
      "hit": false,
      "t": 98473.22499999996,
      "d": 9.541979166679084,
      "v": 125
    },
    {
      "midi": 54,
      "hit": false,
      "t": 98473.22499999996,
      "d": 9.541979166679084,
      "v": 75
    },
    {
      "midi": 62,
      "hit": false,
      "t": 98473.22500000012,
      "d": 190.8395833333343,
      "v": 120
    },
    {
      "midi": 65,
      "hit": false,
      "t": 98473.22500000012,
      "d": 190.8395833333343,
      "v": 120
    },
    {
      "midi": 72,
      "hit": false,
      "t": 98473.22500000012,
      "d": 190.8395833333343,
      "v": 120
    },
    {
      "midi": 74,
      "hit": false,
      "t": 98473.22500000022,
      "d": 229.00750000000698,
      "v": 84
    },
    {
      "midi": 69,
      "hit": false,
      "t": 98473.22500000079,
      "d": 114.50375000000349,
      "v": 103
    },
    {
      "midi": 69,
      "hit": false,
      "t": 98473.2250000008,
      "d": 114.50375000000349,
      "v": 86
    },
    {
      "midi": 69,
      "hit": false,
      "t": 98587.7287500008,
      "d": 114.50375000000349,
      "v": 92
    },
    {
      "midi": 69,
      "hit": false,
      "t": 98587.72875000081,
      "d": 229.00750000000698,
      "v": 78
    },
    {
      "midi": 54,
      "hit": false,
      "t": 98597.27072916664,
      "d": 9.541979166664532,
      "v": 35
    },
    {
      "midi": 36,
      "hit": false,
      "t": 98702.23249999997,
      "d": 9.541979166664532,
      "v": 108
    },
    {
      "midi": 54,
      "hit": false,
      "t": 98702.23249999997,
      "d": 9.541979166664532,
      "v": 55
    },
    {
      "midi": 64,
      "hit": false,
      "t": 98702.23250000013,
      "d": 190.8395833333343,
      "v": 120
    },
    {
      "midi": 67,
      "hit": false,
      "t": 98702.23250000013,
      "d": 190.8395833333343,
      "v": 120
    },
    {
      "midi": 72,
      "hit": false,
      "t": 98702.23250000013,
      "d": 190.8395833333343,
      "v": 120
    },
    {
      "midi": 76,
      "hit": false,
      "t": 98702.23250000023,
      "d": 229.00750000000698,
      "v": 84
    },
    {
      "midi": 60,
      "hit": false,
      "t": 98702.2325000008,
      "d": 114.50375000000349,
      "v": 83
    },
    {
      "midi": 60,
      "hit": false,
      "t": 98702.23250000081,
      "d": 114.50375000000349,
      "v": 70
    },
    {
      "midi": 69,
      "hit": false,
      "t": 98816.7362500008,
      "d": 114.50375000000349,
      "v": 103
    },
    {
      "midi": 69,
      "hit": false,
      "t": 98816.73625000082,
      "d": 114.50375000000349,
      "v": 86
    },
    {
      "midi": 54,
      "hit": false,
      "t": 98826.27822916664,
      "d": 9.541979166664532,
      "v": 35
    },
    {
      "midi": 38,
      "hit": false,
      "t": 98926.46901041664,
      "d": 9.541979166679084,
      "v": 96
    },
    {
      "midi": 49,
      "hit": false,
      "t": 98931.23999999998,
      "d": 9.541979166679084,
      "v": 100
    },
    {
      "midi": 54,
      "hit": false,
      "t": 98931.23999999998,
      "d": 9.541979166679084,
      "v": 75
    },
    {
      "midi": 74,
      "hit": false,
      "t": 98931.2400000001,
      "d": 1832.0599999999977,
      "v": 105
    },
    {
      "midi": 77,
      "hit": false,
      "t": 98931.2400000001,
      "d": 1832.0599999999977,
      "v": 105
    },
    {
      "midi": 70,
      "hit": false,
      "t": 98931.2400000001,
      "d": 1832.0599999999977,
      "v": 105
    },
    {
      "midi": 82,
      "hit": false,
      "t": 98931.2400000001,
      "d": 1832.0599999999977,
      "v": 105
    },
    {
      "midi": 65,
      "hit": false,
      "t": 98931.24000000014,
      "d": 343.5112499999959,
      "v": 120
    },
    {
      "midi": 69,
      "hit": false,
      "t": 98931.24000000014,
      "d": 343.5112499999959,
      "v": 120
    },
    {
      "midi": 72,
      "hit": false,
      "t": 98931.24000000014,
      "d": 343.5112499999959,
      "v": 120
    },
    {
      "midi": 77,
      "hit": false,
      "t": 98931.24000000024,
      "d": 458.0149999999994,
      "v": 84
    },
    {
      "midi": 58,
      "hit": false,
      "t": 98931.2400000008,
      "d": 114.50375000000349,
      "v": 83
    },
    {
      "midi": 58,
      "hit": false,
      "t": 98931.24000000082,
      "d": 114.50375000000349,
      "v": 70
    },
    {
      "midi": 86,
      "hit": false,
      "t": 98940.78197916663,
      "d": 1832.0599999999977,
      "v": 80
    },
    {
      "midi": 65,
      "hit": false,
      "t": 99045.74375000081,
      "d": 114.50375000000349,
      "v": 103
    },
    {
      "midi": 65,
      "hit": false,
      "t": 99045.74375000082,
      "d": 114.50375000000349,
      "v": 86
    },
    {
      "midi": 54,
      "hit": false,
      "t": 99055.28572916666,
      "d": 9.541979166664532,
      "v": 35
    },
    {
      "midi": 36,
      "hit": false,
      "t": 99160.24749999998,
      "d": 9.541979166664532,
      "v": 108
    },
    {
      "midi": 54,
      "hit": false,
      "t": 99160.24749999998,
      "d": 9.541979166664532,
      "v": 55
    },
    {
      "midi": 65,
      "hit": false,
      "t": 99160.24750000081,
      "d": 114.50375000000349,
      "v": 92
    },
    {
      "midi": 65,
      "hit": false,
      "t": 99160.24750000083,
      "d": 114.50375000000349,
      "v": 78
    },
    {
      "midi": 58,
      "hit": false,
      "t": 99274.75125000082,
      "d": 114.50375000000349,
      "v": 83
    },
    {
      "midi": 58,
      "hit": false,
      "t": 99274.75125000083,
      "d": 114.50375000000349,
      "v": 70
    },
    {
      "midi": 54,
      "hit": false,
      "t": 99284.29322916665,
      "d": 9.541979166664532,
      "v": 35
    },
    {
      "midi": 38,
      "hit": false,
      "t": 99384.48401041665,
      "d": 9.541979166679084,
      "v": 96
    },
    {
      "midi": 42,
      "hit": false,
      "t": 99389.25499999999,
      "d": 9.541979166679084,
      "v": 125
    },
    {
      "midi": 54,
      "hit": false,
      "t": 99389.25499999999,
      "d": 9.541979166679084,
      "v": 75
    },
    {
      "midi": 64,
      "hit": false,
      "t": 99389.25500000014,
      "d": 343.5112499999959,
      "v": 120
    },
    {
      "midi": 67,
      "hit": false,
      "t": 99389.25500000014,
      "d": 343.5112499999959,
      "v": 120
    },
    {
      "midi": 72,
      "hit": false,
      "t": 99389.25500000014,
      "d": 343.5112499999959,
      "v": 120
    },
    {
      "midi": 76,
      "hit": false,
      "t": 99389.25500000024,
      "d": 458.0149999999994,
      "v": 84
    },
    {
      "midi": 70,
      "hit": false,
      "t": 99389.25500000082,
      "d": 114.50375000000349,
      "v": 103
    },
    {
      "midi": 70,
      "hit": false,
      "t": 99389.25500000083,
      "d": 114.50375000000349,
      "v": 86
    },
    {
      "midi": 70,
      "hit": false,
      "t": 99503.75875000082,
      "d": 114.50375000000349,
      "v": 92
    },
    {
      "midi": 70,
      "hit": false,
      "t": 99503.75875000084,
      "d": 229.00750000000698,
      "v": 78
    },
    {
      "midi": 54,
      "hit": false,
      "t": 99513.30072916667,
      "d": 9.541979166664532,
      "v": 35
    },
    {
      "midi": 54,
      "hit": false,
      "t": 99618.2625,
      "d": 9.541979166664532,
      "v": 55
    },
    {
      "midi": 65,
      "hit": false,
      "t": 99618.26250000083,
      "d": 114.50375000000349,
      "v": 83
    },
    {
      "midi": 65,
      "hit": false,
      "t": 99618.26250000084,
      "d": 114.50375000000349,
      "v": 70
    },
    {
      "midi": 70,
      "hit": false,
      "t": 99732.76625000083,
      "d": 114.50375000000349,
      "v": 103
    },
    {
      "midi": 70,
      "hit": false,
      "t": 99732.76625000084,
      "d": 114.50375000000349,
      "v": 86
    },
    {
      "midi": 54,
      "hit": false,
      "t": 99742.30822916667,
      "d": 9.541979166664532,
      "v": 35
    },
    {
      "midi": 38,
      "hit": false,
      "t": 99842.49901041666,
      "d": 9.541979166679084,
      "v": 96
    },
    {
      "midi": 42,
      "hit": false,
      "t": 99847.27,
      "d": 9.541979166679084,
      "v": 125
    },
    {
      "midi": 54,
      "hit": false,
      "t": 99847.27,
      "d": 9.541979166679084,
      "v": 75
    },
    {
      "midi": 62,
      "hit": false,
      "t": 99847.27000000014,
      "d": 343.5112499999959,
      "v": 120
    },
    {
      "midi": 65,
      "hit": false,
      "t": 99847.27000000014,
      "d": 343.5112499999959,
      "v": 120
    },
    {
      "midi": 72,
      "hit": false,
      "t": 99847.27000000014,
      "d": 343.5112499999959,
      "v": 120
    },
    {
      "midi": 74,
      "hit": false,
      "t": 99847.27000000024,
      "d": 458.0149999999994,
      "v": 84
    },
    {
      "midi": 70,
      "hit": false,
      "t": 99847.27000000083,
      "d": 114.50375000000349,
      "v": 103
    },
    {
      "midi": 70,
      "hit": false,
      "t": 99847.27000000085,
      "d": 114.50375000000349,
      "v": 78
    },
    {
      "midi": 70,
      "hit": false,
      "t": 99961.77375000084,
      "d": 114.50375000000349,
      "v": 92
    },
    {
      "midi": 70,
      "hit": false,
      "t": 99961.77375000085,
      "d": 229.00750000000698,
      "v": 78
    },
    {
      "midi": 54,
      "hit": false,
      "t": 99971.31572916669,
      "d": 9.541979166664532,
      "v": 35
    },
    {
      "midi": 36,
      "hit": false,
      "t": 100076.27750000001,
      "d": 9.541979166664532,
      "v": 108
    },
    {
      "midi": 54,
      "hit": false,
      "t": 100076.27750000001,
      "d": 9.541979166664532,
      "v": 55
    },
    {
      "midi": 65,
      "hit": false,
      "t": 100076.27750000084,
      "d": 114.50375000000349,
      "v": 83
    },
    {
      "midi": 65,
      "hit": false,
      "t": 100076.27750000086,
      "d": 114.50375000000349,
      "v": 70
    },
    {
      "midi": 70,
      "hit": false,
      "t": 100190.78125000084,
      "d": 114.50375000000349,
      "v": 103
    },
    {
      "midi": 70,
      "hit": false,
      "t": 100190.78125000086,
      "d": 114.50375000000349,
      "v": 86
    },
    {
      "midi": 54,
      "hit": false,
      "t": 100200.32322916668,
      "d": 9.541979166664532,
      "v": 35
    },
    {
      "midi": 38,
      "hit": false,
      "t": 100300.51401041668,
      "d": 9.541979166679084,
      "v": 96
    },
    {
      "midi": 42,
      "hit": false,
      "t": 100305.28500000002,
      "d": 9.541979166679084,
      "v": 125
    },
    {
      "midi": 54,
      "hit": false,
      "t": 100305.28500000002,
      "d": 9.541979166679084,
      "v": 75
    },
    {
      "midi": 60,
      "hit": false,
      "t": 100305.28500000013,
      "d": 190.8395833333343,
      "v": 120
    },
    {
      "midi": 65,
      "hit": false,
      "t": 100305.28500000013,
      "d": 190.8395833333343,
      "v": 120
    },
    {
      "midi": 72,
      "hit": false,
      "t": 100305.28500000013,
      "d": 190.8395833333343,
      "v": 120
    },
    {
      "midi": 72,
      "hit": false,
      "t": 100305.28500000024,
      "d": 229.00750000000698,
      "v": 84
    },
    {
      "midi": 70,
      "hit": false,
      "t": 100305.28500000085,
      "d": 114.50375000000349,
      "v": 103
    },
    {
      "midi": 70,
      "hit": false,
      "t": 100305.28500000086,
      "d": 114.50375000000349,
      "v": 86
    },
    {
      "midi": 70,
      "hit": false,
      "t": 100419.78875000085,
      "d": 114.50375000000349,
      "v": 92
    },
    {
      "midi": 70,
      "hit": false,
      "t": 100419.78875000087,
      "d": 229.00750000000698,
      "v": 78
    },
    {
      "midi": 54,
      "hit": false,
      "t": 100429.3307291667,
      "d": 9.541979166664532,
      "v": 35
    },
    {
      "midi": 36,
      "hit": false,
      "t": 100534.29250000003,
      "d": 9.541979166664532,
      "v": 108
    },
    {
      "midi": 54,
      "hit": false,
      "t": 100534.29250000003,
      "d": 9.541979166664532,
      "v": 55
    },
    {
      "midi": 62,
      "hit": false,
      "t": 100534.29250000014,
      "d": 190.8395833333343,
      "v": 120
    },
    {
      "midi": 65,
      "hit": false,
      "t": 100534.29250000014,
      "d": 190.8395833333343,
      "v": 120
    },
    {
      "midi": 70,
      "hit": false,
      "t": 100534.29250000014,
      "d": 190.8395833333343,
      "v": 120
    },
    {
      "midi": 74,
      "hit": false,
      "t": 100534.29250000024,
      "d": 229.00750000000698,
      "v": 84
    },
    {
      "midi": 65,
      "hit": false,
      "t": 100534.29250000085,
      "d": 114.50375000000349,
      "v": 83
    },
    {
      "midi": 65,
      "hit": false,
      "t": 100534.29250000087,
      "d": 114.50375000000349,
      "v": 70
    },
    {
      "midi": 70,
      "hit": false,
      "t": 100648.79625000086,
      "d": 114.50375000000349,
      "v": 103
    },
    {
      "midi": 70,
      "hit": false,
      "t": 100648.79625000087,
      "d": 114.50375000000349,
      "v": 86
    },
    {
      "midi": 54,
      "hit": false,
      "t": 100658.3382291667,
      "d": 9.541979166664532,
      "v": 35
    },
    {
      "midi": 38,
      "hit": false,
      "t": 100758.52901041669,
      "d": 9.541979166679084,
      "v": 96
    },
    {
      "midi": 49,
      "hit": false,
      "t": 100763.30000000003,
      "d": 9.541979166679084,
      "v": 100
    },
    {
      "midi": 54,
      "hit": false,
      "t": 100763.30000000003,
      "d": 9.541979166679084,
      "v": 75
    },
    {
      "midi": 74,
      "hit": false,
      "t": 100763.3000000001,
      "d": 1832.0599999999977,
      "v": 105
    },
    {
      "midi": 67,
      "hit": false,
      "t": 100763.3000000001,
      "d": 1832.0599999999977,
      "v": 105
    },
    {
      "midi": 71,
      "hit": false,
      "t": 100763.3000000001,
      "d": 1832.0599999999977,
      "v": 105
    },
    {
      "midi": 79,
      "hit": false,
      "t": 100763.3000000001,
      "d": 1832.0599999999977,
      "v": 105
    },
    {
      "midi": 62,
      "hit": false,
      "t": 100763.30000000015,
      "d": 801.5262499999953,
      "v": 120
    },
    {
      "midi": 67,
      "hit": false,
      "t": 100763.30000000015,
      "d": 801.5262499999953,
      "v": 120
    },
    {
      "midi": 71,
      "hit": false,
      "t": 100763.30000000015,
      "d": 801.5262499999953,
      "v": 120
    },
    {
      "midi": 74,
      "hit": false,
      "t": 100763.30000000025,
      "d": 916.0299999999988,
      "v": 84
    },
    {
      "midi": 62,
      "hit": false,
      "t": 100763.30000000086,
      "d": 114.50375000000349,
      "v": 100
    },
    {
      "midi": 62,
      "hit": false,
      "t": 100763.30000000088,
      "d": 114.50375000000349,
      "v": 70
    },
    {
      "midi": 91,
      "hit": false,
      "t": 100772.84197916662,
      "d": 5496.179999999993,
      "v": 80
    },
    {
      "midi": 67,
      "hit": false,
      "t": 100877.80375000086,
      "d": 114.50375000000349,
      "v": 100
    },
    {
      "midi": 67,
      "hit": false,
      "t": 100877.80375000088,
      "d": 114.50375000000349,
      "v": 78
    },
    {
      "midi": 54,
      "hit": false,
      "t": 100887.34572916671,
      "d": 9.541979166664532,
      "v": 35
    },
    {
      "midi": 36,
      "hit": false,
      "t": 100992.30750000004,
      "d": 9.541979166664532,
      "v": 108
    },
    {
      "midi": 54,
      "hit": false,
      "t": 100992.30750000004,
      "d": 9.541979166664532,
      "v": 55
    },
    {
      "midi": 67,
      "hit": false,
      "t": 100992.30750000087,
      "d": 114.50375000000349,
      "v": 100
    },
    {
      "midi": 67,
      "hit": false,
      "t": 100992.30750000088,
      "d": 114.50375000000349,
      "v": 70
    },
    {
      "midi": 62,
      "hit": false,
      "t": 101106.81125000087,
      "d": 114.50375000000349,
      "v": 100
    },
    {
      "midi": 62,
      "hit": false,
      "t": 101106.81125000089,
      "d": 114.50375000000349,
      "v": 70
    },
    {
      "midi": 54,
      "hit": false,
      "t": 101116.3532291667,
      "d": 9.541979166664532,
      "v": 35
    },
    {
      "midi": 38,
      "hit": false,
      "t": 101216.5440104167,
      "d": 9.541979166679084,
      "v": 96
    },
    {
      "midi": 42,
      "hit": false,
      "t": 101221.31500000005,
      "d": 9.541979166679084,
      "v": 125
    },
    {
      "midi": 54,
      "hit": false,
      "t": 101221.31500000005,
      "d": 9.541979166679084,
      "v": 75
    },
    {
      "midi": 62,
      "hit": false,
      "t": 101221.31500000088,
      "d": 114.50375000000349,
      "v": 100
    },
    {
      "midi": 62,
      "hit": false,
      "t": 101221.31500000089,
      "d": 114.50375000000349,
      "v": 70
    },
    {
      "midi": 67,
      "hit": false,
      "t": 101335.81875000088,
      "d": 114.50375000000349,
      "v": 100
    },
    {
      "midi": 67,
      "hit": false,
      "t": 101335.8187500009,
      "d": 114.50375000000349,
      "v": 78
    },
    {
      "midi": 54,
      "hit": false,
      "t": 101345.36072916673,
      "d": 9.541979166664532,
      "v": 35
    },
    {
      "midi": 54,
      "hit": false,
      "t": 101450.32250000005,
      "d": 9.541979166664532,
      "v": 55
    },
    {
      "midi": 67,
      "hit": false,
      "t": 101450.32250000088,
      "d": 114.50375000000349,
      "v": 100
    },
    {
      "midi": 67,
      "hit": false,
      "t": 101450.3225000009,
      "d": 114.50375000000349,
      "v": 70
    },
    {
      "midi": 71,
      "hit": false,
      "t": 101564.82625000089,
      "d": 114.50375000000349,
      "v": 100
    },
    {
      "midi": 71,
      "hit": false,
      "t": 101564.8262500009,
      "d": 229.00750000000698,
      "v": 70
    },
    {
      "midi": 54,
      "hit": false,
      "t": 101574.36822916672,
      "d": 9.541979166664532,
      "v": 35
    },
    {
      "midi": 38,
      "hit": false,
      "t": 101674.55901041672,
      "d": 9.541979166679084,
      "v": 96
    },
    {
      "midi": 42,
      "hit": false,
      "t": 101679.33000000006,
      "d": 9.541979166679084,
      "v": 125
    },
    {
      "midi": 54,
      "hit": false,
      "t": 101679.33000000006,
      "d": 9.541979166679084,
      "v": 75
    },
    {
      "midi": 62,
      "hit": false,
      "t": 101679.33000000015,
      "d": 343.5112499999959,
      "v": 120
    },
    {
      "midi": 67,
      "hit": false,
      "t": 101679.33000000015,
      "d": 343.5112499999959,
      "v": 120
    },
    {
      "midi": 72,
      "hit": false,
      "t": 101679.33000000015,
      "d": 343.5112499999959,
      "v": 120
    },
    {
      "midi": 72,
      "hit": false,
      "t": 101679.33000000025,
      "d": 458.0149999999994,
      "v": 84
    },
    {
      "midi": 67,
      "hit": false,
      "t": 101679.33000000089,
      "d": 114.50375000000349,
      "v": 100
    },
    {
      "midi": 67,
      "hit": false,
      "t": 101679.3300000009,
      "d": 114.50375000000349,
      "v": 70
    },
    {
      "midi": 71,
      "hit": false,
      "t": 101793.8337500009,
      "d": 114.50375000000349,
      "v": 100
    },
    {
      "midi": 71,
      "hit": false,
      "t": 101793.83375000091,
      "d": 114.50375000000349,
      "v": 86
    },
    {
      "midi": 54,
      "hit": false,
      "t": 101803.37572916674,
      "d": 9.541979166664532,
      "v": 35
    },
    {
      "midi": 36,
      "hit": false,
      "t": 101908.33750000007,
      "d": 9.541979166664532,
      "v": 108
    },
    {
      "midi": 54,
      "hit": false,
      "t": 101908.33750000007,
      "d": 9.541979166664532,
      "v": 55
    },
    {
      "midi": 71,
      "hit": false,
      "t": 101908.3375000009,
      "d": 114.50375000000349,
      "v": 100
    },
    {
      "midi": 71,
      "hit": false,
      "t": 101908.33750000091,
      "d": 229.00750000000698,
      "v": 78
    },
    {
      "midi": 67,
      "hit": false,
      "t": 102022.8412500009,
      "d": 114.50375000000349,
      "v": 100
    },
    {
      "midi": 67,
      "hit": false,
      "t": 102022.84125000091,
      "d": 114.50375000000349,
      "v": 70
    },
    {
      "midi": 54,
      "hit": false,
      "t": 102032.38322916673,
      "d": 9.541979166664532,
      "v": 35
    },
    {
      "midi": 38,
      "hit": false,
      "t": 102132.57401041673,
      "d": 9.541979166679084,
      "v": 96
    },
    {
      "midi": 42,
      "hit": false,
      "t": 102137.34500000007,
      "d": 9.541979166679084,
      "v": 125
    },
    {
      "midi": 54,
      "hit": false,
      "t": 102137.34500000007,
      "d": 9.541979166679084,
      "v": 75
    },
    {
      "midi": 62,
      "hit": false,
      "t": 102137.34500000015,
      "d": 343.5112499999959,
      "v": 120
    },
    {
      "midi": 67,
      "hit": false,
      "t": 102137.34500000015,
      "d": 343.5112499999959,
      "v": 120
    },
    {
      "midi": 71,
      "hit": false,
      "t": 102137.34500000015,
      "d": 343.5112499999959,
      "v": 120
    },
    {
      "midi": 71,
      "hit": false,
      "t": 102137.34500000025,
      "d": 458.0149999999994,
      "v": 84
    },
    {
      "midi": 67,
      "hit": false,
      "t": 102137.3450000009,
      "d": 114.50375000000349,
      "v": 100
    },
    {
      "midi": 67,
      "hit": false,
      "t": 102137.34500000092,
      "d": 114.50375000000349,
      "v": 70
    },
    {
      "midi": 71,
      "hit": false,
      "t": 102251.8487500009,
      "d": 114.50375000000349,
      "v": 100
    },
    {
      "midi": 71,
      "hit": false,
      "t": 102251.84875000092,
      "d": 114.50375000000349,
      "v": 86
    },
    {
      "midi": 54,
      "hit": false,
      "t": 102261.39072916676,
      "d": 9.541979166664532,
      "v": 35
    },
    {
      "midi": 36,
      "hit": false,
      "t": 102366.35250000008,
      "d": 9.541979166664532,
      "v": 108
    },
    {
      "midi": 54,
      "hit": false,
      "t": 102366.35250000008,
      "d": 9.541979166664532,
      "v": 55
    },
    {
      "midi": 71,
      "hit": false,
      "t": 102366.35250000091,
      "d": 114.50375000000349,
      "v": 100
    },
    {
      "midi": 71,
      "hit": false,
      "t": 102366.35250000092,
      "d": 229.00750000000698,
      "v": 78
    },
    {
      "midi": 62,
      "hit": false,
      "t": 102480.85625000091,
      "d": 114.50375000000349,
      "v": 100
    },
    {
      "midi": 62,
      "hit": false,
      "t": 102480.85625000093,
      "d": 114.50375000000349,
      "v": 70
    },
    {
      "midi": 54,
      "hit": false,
      "t": 102490.39822916675,
      "d": 9.541979166664532,
      "v": 35
    },
    {
      "midi": 67,
      "hit": false,
      "t": 102595.35999999996,
      "d": 3664.1199999999953,
      "v": 80
    },
    {
      "midi": 72,
      "hit": false,
      "t": 102595.35999999996,
      "d": 3664.1199999999953,
      "v": 80
    },
    {
      "midi": 76,
      "hit": false,
      "t": 102595.35999999996,
      "d": 3664.1199999999953,
      "v": 80
    },
    {
      "midi": 36,
      "hit": false,
      "t": 102595.36000000007,
      "d": 9.541979166664532,
      "v": 116
    },
    {
      "midi": 57,
      "hit": false,
      "t": 102595.36000000007,
      "d": 9.541979166664532,
      "v": 100
    },
    {
      "midi": 42,
      "hit": false,
      "t": 102595.36000000007,
      "d": 9.541979166664532,
      "v": 105
    },
    {
      "midi": 37,
      "hit": false,
      "t": 102595.36000000007,
      "d": 9.541979166664532,
      "v": 120
    },
    {
      "midi": 64,
      "hit": false,
      "t": 102595.36000000015,
      "d": 3664.1199999999953,
      "v": 120
    },
    {
      "midi": 67,
      "hit": false,
      "t": 102595.36000000015,
      "d": 3664.1199999999953,
      "v": 120
    },
    {
      "midi": 72,
      "hit": false,
      "t": 102595.36000000015,
      "d": 3664.1199999999953,
      "v": 120
    },
    {
      "midi": 72,
      "hit": false,
      "t": 102595.36000000025,
      "d": 3664.1199999999953,
      "v": 84
    },
    {
      "midi": 55,
      "hit": false,
      "t": 102824.36749999993,
      "d": 229.00750000000698,
      "v": 80
    },
    {
      "midi": 55,
      "hit": false,
      "t": 102824.36750000007,
      "d": 1145.037500000035,
      "v": 68
    },
    {
      "midi": 36,
      "hit": false,
      "t": 102824.36750000007,
      "d": 9.541979166664532,
      "v": 97
    },
    {
      "midi": 42,
      "hit": false,
      "t": 102824.36750000007,
      "d": 9.541979166664532,
      "v": 85
    },
    {
      "midi": 60,
      "hit": false,
      "t": 103053.37499999994,
      "d": 229.00750000000698,
      "v": 80
    },
    {
      "midi": 42,
      "hit": false,
      "t": 103053.37500000006,
      "d": 9.541979166664532,
      "v": 105
    },
    {
      "midi": 37,
      "hit": false,
      "t": 103053.37500000006,
      "d": 9.541979166664532,
      "v": 120
    },
    {
      "midi": 60,
      "hit": false,
      "t": 103053.37500000007,
      "d": 458.01500000001397,
      "v": 56
    },
    {
      "midi": 64,
      "hit": false,
      "t": 103282.38249999995,
      "d": 229.00750000000698,
      "v": 80
    },
    {
      "midi": 42,
      "hit": false,
      "t": 103282.38250000005,
      "d": 9.541979166664532,
      "v": 85
    },
    {
      "midi": 64,
      "hit": false,
      "t": 103282.38250000008,
      "d": 1145.037500000035,
      "v": 95
    },
    {
      "midi": 62,
      "hit": false,
      "t": 103511.38999999996,
      "d": 229.00750000000698,
      "v": 80
    },
    {
      "midi": 42,
      "hit": false,
      "t": 103511.39000000004,
      "d": 9.541979166664532,
      "v": 105
    },
    {
      "midi": 37,
      "hit": false,
      "t": 103511.39000000004,
      "d": 9.541979166664532,
      "v": 120
    },
    {
      "midi": 62,
      "hit": false,
      "t": 103511.39000000009,
      "d": 229.00750000000698,
      "v": 56
    },
    {
      "midi": 60,
      "hit": false,
      "t": 103740.39749999996,
      "d": 229.00750000000698,
      "v": 80
    },
    {
      "midi": 36,
      "hit": false,
      "t": 103740.39750000004,
      "d": 9.541979166664532,
      "v": 97
    },
    {
      "midi": 42,
      "hit": false,
      "t": 103740.39750000004,
      "d": 9.541979166664532,
      "v": 85
    },
    {
      "midi": 60,
      "hit": false,
      "t": 103740.3975000001,
      "d": 229.00750000000698,
      "v": 56
    },
    {
      "midi": 55,
      "hit": false,
      "t": 103969.40499999997,
      "d": 229.00750000000698,
      "v": 80
    },
    {
      "midi": 42,
      "hit": false,
      "t": 103969.40500000003,
      "d": 9.541979166664532,
      "v": 105
    },
    {
      "midi": 37,
      "hit": false,
      "t": 103969.40500000003,
      "d": 9.541979166664532,
      "v": 120
    },
    {
      "midi": 55,
      "hit": false,
      "t": 103969.4050000001,
      "d": 916.0300000000279,
      "v": 56
    },
    {
      "midi": 60,
      "hit": false,
      "t": 104198.41249999998,
      "d": 229.00750000000698,
      "v": 80
    },
    {
      "midi": 36,
      "hit": false,
      "t": 104198.41250000002,
      "d": 9.541979166664532,
      "v": 97
    },
    {
      "midi": 42,
      "hit": false,
      "t": 104198.41250000002,
      "d": 9.541979166664532,
      "v": 85
    },
    {
      "midi": 60,
      "hit": false,
      "t": 104198.41250000011,
      "d": 458.01500000001397,
      "v": 56
    },
    {
      "midi": 65,
      "hit": false,
      "t": 104427.41999999998,
      "d": 229.00750000000698,
      "v": 80
    },
    {
      "midi": 36,
      "hit": false,
      "t": 104427.42000000001,
      "d": 9.541979166664532,
      "v": 97
    },
    {
      "midi": 42,
      "hit": false,
      "t": 104427.42000000001,
      "d": 9.541979166664532,
      "v": 105
    },
    {
      "midi": 37,
      "hit": false,
      "t": 104427.42000000001,
      "d": 9.541979166664532,
      "v": 120
    },
    {
      "midi": 65,
      "hit": false,
      "t": 104427.42000000011,
      "d": 687.022500000021,
      "v": 56
    },
    {
      "midi": 60,
      "hit": false,
      "t": 104656.42749999999,
      "d": 229.00750000000698,
      "v": 80
    },
    {
      "midi": 36,
      "hit": false,
      "t": 104656.4275,
      "d": 9.541979166664532,
      "v": 97
    },
    {
      "midi": 42,
      "hit": false,
      "t": 104656.4275,
      "d": 9.541979166664532,
      "v": 85
    },
    {
      "midi": 60,
      "hit": false,
      "t": 104656.42750000012,
      "d": 687.022500000021,
      "v": 56
    },
    {
      "midi": 42,
      "hit": false,
      "t": 104885.435,
      "d": 9.541979166664532,
      "v": 105
    },
    {
      "midi": 37,
      "hit": false,
      "t": 104885.435,
      "d": 9.541979166664532,
      "v": 120
    },
    {
      "midi": 55,
      "hit": false,
      "t": 104885.435,
      "d": 229.00750000000698,
      "v": 80
    },
    {
      "midi": 55,
      "hit": false,
      "t": 104885.43500000013,
      "d": 916.0300000000279,
      "v": 56
    },
    {
      "midi": 55,
      "hit": false,
      "t": 105114.44249999999,
      "d": 9.541979166664532,
      "v": 100
    },
    {
      "midi": 42,
      "hit": false,
      "t": 105114.44249999999,
      "d": 9.541979166664532,
      "v": 85
    },
    {
      "midi": 64,
      "hit": false,
      "t": 105114.4425,
      "d": 229.00750000000698,
      "v": 80
    },
    {
      "midi": 64,
      "hit": false,
      "t": 105114.44250000014,
      "d": 1145.037500000035,
      "v": 95
    },
    {
      "midi": 42,
      "hit": false,
      "t": 105343.44999999998,
      "d": 9.541979166664532,
      "v": 105
    },
    {
      "midi": 37,
      "hit": false,
      "t": 105343.44999999998,
      "d": 9.541979166664532,
      "v": 120
    },
    {
      "midi": 62,
      "hit": false,
      "t": 105343.45000000001,
      "d": 229.00750000000698,
      "v": 80
    },
    {
      "midi": 62,
      "hit": false,
      "t": 105343.45000000014,
      "d": 229.00750000000698,
      "v": 56
    },
    {
      "midi": 46,
      "hit": false,
      "t": 105572.45749999997,
      "d": 9.541979166664532,
      "v": 100
    },
    {
      "midi": 60,
      "hit": false,
      "t": 105572.45750000002,
      "d": 229.00750000000698,
      "v": 80
    },
    {
      "midi": 60,
      "hit": false,
      "t": 105572.45750000015,
      "d": 229.00750000000698,
      "v": 56
    },
    {
      "midi": 42,
      "hit": false,
      "t": 105801.46499999997,
      "d": 9.541979166664532,
      "v": 105
    },
    {
      "midi": 37,
      "hit": false,
      "t": 105801.46499999997,
      "d": 9.541979166664532,
      "v": 120
    },
    {
      "midi": 55,
      "hit": false,
      "t": 105801.46500000003,
      "d": 229.00750000000698,
      "v": 80
    },
    {
      "midi": 55,
      "hit": false,
      "t": 105801.46500000016,
      "d": 687.022500000021,
      "v": 56
    },
    {
      "midi": 36,
      "hit": false,
      "t": 106030.47249999996,
      "d": 9.541979166664532,
      "v": 97
    },
    {
      "midi": 55,
      "hit": false,
      "t": 106030.47249999996,
      "d": 9.541979166664532,
      "v": 100
    },
    {
      "midi": 42,
      "hit": false,
      "t": 106030.47249999996,
      "d": 9.541979166664532,
      "v": 85
    },
    {
      "midi": 60,
      "hit": false,
      "t": 106030.47250000003,
      "d": 458.0149999999994,
      "v": 80
    },
    {
      "midi": 60,
      "hit": false,
      "t": 106030.47250000016,
      "d": 687.022500000021,
      "v": 56
    },
    {
      "midi": 74,
      "hit": false,
      "t": 106259.47999999995,
      "d": 3664.1199999999953,
      "v": 80
    },
    {
      "midi": 70,
      "hit": false,
      "t": 106259.47999999995,
      "d": 3664.1199999999953,
      "v": 80
    },
    {
      "midi": 65,
      "hit": false,
      "t": 106259.47999999995,
      "d": 3664.1199999999953,
      "v": 80
    },
    {
      "midi": 36,
      "hit": false,
      "t": 106259.47999999995,
      "d": 9.541979166664532,
      "v": 97
    },
    {
      "midi": 42,
      "hit": false,
      "t": 106259.47999999995,
      "d": 9.541979166664532,
      "v": 105
    },
    {
      "midi": 37,
      "hit": false,
      "t": 106259.47999999995,
      "d": 9.541979166664532,
      "v": 120
    },
    {
      "midi": 36,
      "hit": false,
      "t": 106488.48749999994,
      "d": 9.541979166664532,
      "v": 97
    },
    {
      "midi": 42,
      "hit": false,
      "t": 106488.48749999994,
      "d": 9.541979166664532,
      "v": 85
    },
    {
      "midi": 55,
      "hit": false,
      "t": 106488.48750000003,
      "d": 229.00750000000698,
      "v": 80
    },
    {
      "midi": 55,
      "hit": false,
      "t": 106488.48750000018,
      "d": 1145.037500000035,
      "v": 68
    },
    {
      "midi": 42,
      "hit": false,
      "t": 106717.49499999994,
      "d": 9.541979166664532,
      "v": 105
    },
    {
      "midi": 37,
      "hit": false,
      "t": 106717.49499999994,
      "d": 9.541979166664532,
      "v": 120
    },
    {
      "midi": 60,
      "hit": false,
      "t": 106717.49500000004,
      "d": 229.00750000000698,
      "v": 80
    },
    {
      "midi": 60,
      "hit": false,
      "t": 106717.49500000018,
      "d": 458.01500000001397,
      "v": 56
    },
    {
      "midi": 42,
      "hit": false,
      "t": 106946.50249999993,
      "d": 9.541979166664532,
      "v": 85
    },
    {
      "midi": 64,
      "hit": false,
      "t": 106946.50250000005,
      "d": 229.00750000000698,
      "v": 80
    },
    {
      "midi": 64,
      "hit": false,
      "t": 106946.50250000019,
      "d": 1145.037500000035,
      "v": 95
    },
    {
      "midi": 78,
      "hit": false,
      "t": 106946.50250000093,
      "d": 458.01499999995576,
      "v": 100
    },
    {
      "midi": 42,
      "hit": false,
      "t": 107175.50999999992,
      "d": 9.541979166664532,
      "v": 105
    },
    {
      "midi": 37,
      "hit": false,
      "t": 107175.50999999992,
      "d": 9.541979166664532,
      "v": 120
    },
    {
      "midi": 62,
      "hit": false,
      "t": 107175.51000000005,
      "d": 229.00750000000698,
      "v": 80
    },
    {
      "midi": 62,
      "hit": false,
      "t": 107175.5100000002,
      "d": 229.00750000000698,
      "v": 56
    },
    {
      "midi": 36,
      "hit": false,
      "t": 107404.51749999991,
      "d": 9.541979166664532,
      "v": 97
    },
    {
      "midi": 42,
      "hit": false,
      "t": 107404.51749999991,
      "d": 9.541979166664532,
      "v": 85
    },
    {
      "midi": 60,
      "hit": false,
      "t": 107404.51750000006,
      "d": 229.00750000000698,
      "v": 80
    },
    {
      "midi": 60,
      "hit": false,
      "t": 107404.5175000002,
      "d": 229.00750000000698,
      "v": 56
    },
    {
      "midi": 42,
      "hit": false,
      "t": 107633.5249999999,
      "d": 9.541979166664532,
      "v": 105
    },
    {
      "midi": 37,
      "hit": false,
      "t": 107633.5249999999,
      "d": 9.541979166664532,
      "v": 120
    },
    {
      "midi": 55,
      "hit": false,
      "t": 107633.52500000007,
      "d": 229.00750000000698,
      "v": 80
    },
    {
      "midi": 55,
      "hit": false,
      "t": 107633.52500000021,
      "d": 916.0300000000279,
      "v": 56
    },
    {
      "midi": 36,
      "hit": false,
      "t": 107862.5324999999,
      "d": 9.541979166664532,
      "v": 97
    },
    {
      "midi": 42,
      "hit": false,
      "t": 107862.5324999999,
      "d": 9.541979166664532,
      "v": 85
    },
    {
      "midi": 60,
      "hit": false,
      "t": 107862.53250000007,
      "d": 229.00750000000698,
      "v": 80
    },
    {
      "midi": 60,
      "hit": false,
      "t": 107862.53250000022,
      "d": 458.01500000001397,
      "v": 56
    },
    {
      "midi": 36,
      "hit": false,
      "t": 108091.53999999989,
      "d": 9.541979166664532,
      "v": 97
    },
    {
      "midi": 42,
      "hit": false,
      "t": 108091.53999999989,
      "d": 9.541979166664532,
      "v": 105
    },
    {
      "midi": 37,
      "hit": false,
      "t": 108091.53999999989,
      "d": 9.541979166664532,
      "v": 120
    },
    {
      "midi": 65,
      "hit": false,
      "t": 108091.54000000008,
      "d": 229.00750000000698,
      "v": 80
    },
    {
      "midi": 65,
      "hit": false,
      "t": 108091.54000000023,
      "d": 687.022500000021,
      "v": 56
    },
    {
      "midi": 36,
      "hit": false,
      "t": 108320.54749999988,
      "d": 9.541979166664532,
      "v": 97
    },
    {
      "midi": 42,
      "hit": false,
      "t": 108320.54749999988,
      "d": 9.541979166664532,
      "v": 85
    },
    {
      "midi": 60,
      "hit": false,
      "t": 108320.54750000009,
      "d": 229.00750000000698,
      "v": 80
    },
    {
      "midi": 60,
      "hit": false,
      "t": 108320.54750000023,
      "d": 687.022500000021,
      "v": 56
    },
    {
      "midi": 42,
      "hit": false,
      "t": 108549.55499999988,
      "d": 9.541979166664532,
      "v": 105
    },
    {
      "midi": 37,
      "hit": false,
      "t": 108549.55499999988,
      "d": 9.541979166664532,
      "v": 120
    },
    {
      "midi": 55,
      "hit": false,
      "t": 108549.5550000001,
      "d": 229.00750000000698,
      "v": 80
    },
    {
      "midi": 55,
      "hit": false,
      "t": 108549.55500000024,
      "d": 916.0300000000279,
      "v": 56
    },
    {
      "midi": 42,
      "hit": false,
      "t": 108778.56249999987,
      "d": 9.541979166664532,
      "v": 85
    },
    {
      "midi": 64,
      "hit": false,
      "t": 108778.5625000001,
      "d": 229.00750000000698,
      "v": 80
    },
    {
      "midi": 64,
      "hit": false,
      "t": 108778.56250000025,
      "d": 1145.037500000035,
      "v": 95
    },
    {
      "midi": 78,
      "hit": false,
      "t": 108778.56250000089,
      "d": 1145.0374999998749,
      "v": 110
    },
    {
      "midi": 42,
      "hit": false,
      "t": 109007.56999999986,
      "d": 9.541979166664532,
      "v": 105
    },
    {
      "midi": 37,
      "hit": false,
      "t": 109007.56999999986,
      "d": 9.541979166664532,
      "v": 120
    },
    {
      "midi": 62,
      "hit": false,
      "t": 109007.57000000011,
      "d": 229.00750000000698,
      "v": 80
    },
    {
      "midi": 62,
      "hit": false,
      "t": 109007.57000000025,
      "d": 229.00750000000698,
      "v": 56
    },
    {
      "midi": 42,
      "hit": false,
      "t": 109236.57749999985,
      "d": 9.541979166664532,
      "v": 85
    },
    {
      "midi": 60,
      "hit": false,
      "t": 109236.57750000012,
      "d": 229.00750000000698,
      "v": 80
    },
    {
      "midi": 60,
      "hit": false,
      "t": 109236.57750000026,
      "d": 229.00750000000698,
      "v": 56
    },
    {
      "midi": 42,
      "hit": false,
      "t": 109465.58499999985,
      "d": 9.541979166664532,
      "v": 105
    },
    {
      "midi": 37,
      "hit": false,
      "t": 109465.58499999985,
      "d": 9.541979166664532,
      "v": 120
    },
    {
      "midi": 55,
      "hit": false,
      "t": 109465.58500000012,
      "d": 229.00750000000698,
      "v": 80
    },
    {
      "midi": 55,
      "hit": false,
      "t": 109465.58500000027,
      "d": 916.0300000000279,
      "v": 56
    },
    {
      "midi": 36,
      "hit": false,
      "t": 109694.59249999984,
      "d": 9.541979166664532,
      "v": 97
    },
    {
      "midi": 42,
      "hit": false,
      "t": 109694.59249999984,
      "d": 9.541979166664532,
      "v": 85
    },
    {
      "midi": 60,
      "hit": false,
      "t": 109694.59250000013,
      "d": 229.00750000000698,
      "v": 80
    },
    {
      "midi": 60,
      "hit": false,
      "t": 109694.59250000028,
      "d": 458.01500000001397,
      "v": 56
    },
    {
      "midi": 36,
      "hit": false,
      "t": 109923.59999999983,
      "d": 9.541979166664532,
      "v": 97
    },
    {
      "midi": 49,
      "hit": false,
      "t": 109923.59999999983,
      "d": 9.541979166664532,
      "v": 80
    },
    {
      "midi": 42,
      "hit": false,
      "t": 109923.59999999983,
      "d": 9.541979166664532,
      "v": 105
    },
    {
      "midi": 37,
      "hit": false,
      "t": 109923.59999999983,
      "d": 9.541979166664532,
      "v": 120
    },
    {
      "midi": 69,
      "hit": false,
      "t": 109923.59999999995,
      "d": 3664.1199999999953,
      "v": 80
    },
    {
      "midi": 72,
      "hit": false,
      "t": 109923.59999999995,
      "d": 3664.1199999999953,
      "v": 80
    },
    {
      "midi": 77,
      "hit": false,
      "t": 109923.59999999995,
      "d": 3664.1199999999953,
      "v": 80
    },
    {
      "midi": 64,
      "hit": false,
      "t": 109923.60000000014,
      "d": 229.00750000000698,
      "v": 80
    },
    {
      "midi": 64,
      "hit": false,
      "t": 109923.60000000028,
      "d": 229.00750000000698,
      "v": 56
    },
    {
      "midi": 36,
      "hit": false,
      "t": 110152.60749999982,
      "d": 9.541979166664532,
      "v": 97
    },
    {
      "midi": 42,
      "hit": false,
      "t": 110152.60749999982,
      "d": 9.541979166664532,
      "v": 85
    },
    {
      "midi": 60,
      "hit": false,
      "t": 110152.60750000014,
      "d": 229.00750000000698,
      "v": 80
    },
    {
      "midi": 60,
      "hit": false,
      "t": 110152.60750000029,
      "d": 687.022500000021,
      "v": 56
    },
    {
      "midi": 42,
      "hit": false,
      "t": 110381.61499999982,
      "d": 9.541979166664532,
      "v": 105
    },
    {
      "midi": 37,
      "hit": false,
      "t": 110381.61499999982,
      "d": 9.541979166664532,
      "v": 120
    },
    {
      "midi": 55,
      "hit": false,
      "t": 110381.61500000015,
      "d": 229.00750000000698,
      "v": 80
    },
    {
      "midi": 55,
      "hit": false,
      "t": 110381.6150000003,
      "d": 229.00750000000698,
      "v": 56
    },
    {
      "midi": 42,
      "hit": false,
      "t": 110610.62249999981,
      "d": 9.541979166664532,
      "v": 85
    },
    {
      "midi": 65,
      "hit": false,
      "t": 110610.62250000016,
      "d": 229.00750000000698,
      "v": 80
    },
    {
      "midi": 65,
      "hit": false,
      "t": 110610.6225000003,
      "d": 1145.037500000035,
      "v": 95
    },
    {
      "midi": 42,
      "hit": false,
      "t": 110839.6299999998,
      "d": 9.541979166664532,
      "v": 105
    },
    {
      "midi": 37,
      "hit": false,
      "t": 110839.6299999998,
      "d": 9.541979166664532,
      "v": 120
    },
    {
      "midi": 62,
      "hit": false,
      "t": 110839.63000000016,
      "d": 229.00750000000698,
      "v": 80
    },
    {
      "midi": 62,
      "hit": false,
      "t": 110839.63000000031,
      "d": 229.00750000000698,
      "v": 56
    },
    {
      "midi": 36,
      "hit": false,
      "t": 111068.6374999998,
      "d": 9.541979166664532,
      "v": 97
    },
    {
      "midi": 42,
      "hit": false,
      "t": 111068.6374999998,
      "d": 9.541979166664532,
      "v": 85
    },
    {
      "midi": 60,
      "hit": false,
      "t": 111068.63750000017,
      "d": 229.00750000000698,
      "v": 80
    },
    {
      "midi": 60,
      "hit": false,
      "t": 111068.63750000032,
      "d": 229.00750000000698,
      "v": 56
    },
    {
      "midi": 79,
      "hit": false,
      "t": 111068.63750000077,
      "d": 2519.0824999999604,
      "v": 107
    },
    {
      "midi": 42,
      "hit": false,
      "t": 111297.64499999979,
      "d": 9.541979166664532,
      "v": 105
    },
    {
      "midi": 37,
      "hit": false,
      "t": 111297.64499999979,
      "d": 9.541979166664532,
      "v": 120
    },
    {
      "midi": 57,
      "hit": false,
      "t": 111297.64500000018,
      "d": 229.00750000000698,
      "v": 80
    },
    {
      "midi": 57,
      "hit": false,
      "t": 111297.64500000032,
      "d": 916.0300000000279,
      "v": 56
    },
    {
      "midi": 36,
      "hit": false,
      "t": 111526.65249999978,
      "d": 9.541979166664532,
      "v": 97
    },
    {
      "midi": 42,
      "hit": false,
      "t": 111526.65249999978,
      "d": 9.541979166664532,
      "v": 85
    },
    {
      "midi": 60,
      "hit": false,
      "t": 111526.65250000019,
      "d": 229.00750000000698,
      "v": 80
    },
    {
      "midi": 60,
      "hit": false,
      "t": 111526.65250000033,
      "d": 458.01500000001397,
      "v": 56
    },
    {
      "midi": 36,
      "hit": false,
      "t": 111755.65999999977,
      "d": 9.541979166664532,
      "v": 97
    },
    {
      "midi": 42,
      "hit": false,
      "t": 111755.65999999977,
      "d": 9.541979166664532,
      "v": 105
    },
    {
      "midi": 37,
      "hit": false,
      "t": 111755.65999999977,
      "d": 9.541979166664532,
      "v": 120
    },
    {
      "midi": 65,
      "hit": false,
      "t": 111755.66000000019,
      "d": 229.00750000000698,
      "v": 80
    },
    {
      "midi": 65,
      "hit": false,
      "t": 111755.66000000034,
      "d": 687.022500000021,
      "v": 95
    },
    {
      "midi": 36,
      "hit": false,
      "t": 111984.66749999976,
      "d": 9.541979166664532,
      "v": 97
    },
    {
      "midi": 42,
      "hit": false,
      "t": 111984.66749999976,
      "d": 9.541979166664532,
      "v": 85
    },
    {
      "midi": 60,
      "hit": false,
      "t": 111984.6675000002,
      "d": 229.00750000000698,
      "v": 80
    },
    {
      "midi": 60,
      "hit": false,
      "t": 111984.66750000035,
      "d": 687.022500000021,
      "v": 56
    },
    {
      "midi": 55,
      "hit": false,
      "t": 112213.67499999976,
      "d": 9.541979166664532,
      "v": 100
    },
    {
      "midi": 42,
      "hit": false,
      "t": 112213.67499999976,
      "d": 9.541979166664532,
      "v": 105
    },
    {
      "midi": 37,
      "hit": false,
      "t": 112213.67499999976,
      "d": 9.541979166664532,
      "v": 120
    },
    {
      "midi": 57,
      "hit": false,
      "t": 112213.6750000002,
      "d": 229.00750000000698,
      "v": 80
    },
    {
      "midi": 57,
      "hit": false,
      "t": 112213.67500000035,
      "d": 229.00750000000698,
      "v": 56
    },
    {
      "midi": 42,
      "hit": false,
      "t": 112442.68249999975,
      "d": 9.541979166664532,
      "v": 85
    },
    {
      "midi": 65,
      "hit": false,
      "t": 112442.68250000021,
      "d": 229.00750000000698,
      "v": 80
    },
    {
      "midi": 65,
      "hit": false,
      "t": 112442.68250000036,
      "d": 1145.037500000035,
      "v": 95
    },
    {
      "midi": 42,
      "hit": false,
      "t": 112671.68999999974,
      "d": 9.541979166664532,
      "v": 105
    },
    {
      "midi": 37,
      "hit": false,
      "t": 112671.68999999974,
      "d": 9.541979166664532,
      "v": 120
    },
    {
      "midi": 62,
      "hit": false,
      "t": 112671.69000000022,
      "d": 229.00750000000698,
      "v": 80
    },
    {
      "midi": 62,
      "hit": false,
      "t": 112671.69000000037,
      "d": 229.00750000000698,
      "v": 56
    },
    {
      "midi": 46,
      "hit": false,
      "t": 112900.69749999973,
      "d": 9.541979166664532,
      "v": 100
    },
    {
      "midi": 42,
      "hit": false,
      "t": 112900.69749999973,
      "d": 9.541979166664532,
      "v": 85
    },
    {
      "midi": 60,
      "hit": false,
      "t": 112900.69750000023,
      "d": 229.00750000000698,
      "v": 80
    },
    {
      "midi": 60,
      "hit": false,
      "t": 112900.69750000037,
      "d": 458.01500000001397,
      "v": 56
    },
    {
      "midi": 42,
      "hit": false,
      "t": 113129.70499999973,
      "d": 9.541979166664532,
      "v": 105
    },
    {
      "midi": 37,
      "hit": false,
      "t": 113129.70499999973,
      "d": 9.541979166664532,
      "v": 120
    },
    {
      "midi": 57,
      "hit": false,
      "t": 113129.70500000023,
      "d": 229.00750000000698,
      "v": 80
    },
    {
      "midi": 57,
      "hit": false,
      "t": 113129.70500000038,
      "d": 458.01500000001397,
      "v": 56
    },
    {
      "midi": 36,
      "hit": false,
      "t": 113358.71249999972,
      "d": 9.541979166664532,
      "v": 97
    },
    {
      "midi": 42,
      "hit": false,
      "t": 113358.71249999972,
      "d": 9.541979166664532,
      "v": 85
    },
    {
      "midi": 60,
      "hit": false,
      "t": 113358.71250000024,
      "d": 229.00750000000698,
      "v": 80
    },
    {
      "midi": 60,
      "hit": false,
      "t": 113358.71250000039,
      "d": 229.00750000000698,
      "v": 56
    },
    {
      "midi": 36,
      "hit": false,
      "t": 113587.71999999971,
      "d": 9.541979166664532,
      "v": 116
    },
    {
      "midi": 42,
      "hit": false,
      "t": 113587.71999999971,
      "d": 9.541979166664532,
      "v": 105
    },
    {
      "midi": 37,
      "hit": false,
      "t": 113587.71999999971,
      "d": 9.541979166664532,
      "v": 120
    },
    {
      "midi": 68,
      "hit": false,
      "t": 113587.71999999994,
      "d": 1832.0599999999977,
      "v": 80
    },
    {
      "midi": 72,
      "hit": false,
      "t": 113587.71999999994,
      "d": 1832.0599999999977,
      "v": 80
    },
    {
      "midi": 75,
      "hit": false,
      "t": 113587.71999999994,
      "d": 1832.0599999999977,
      "v": 80
    },
    {
      "midi": 51,
      "hit": false,
      "t": 113587.7200000002,
      "d": 229.00750000000698,
      "v": 87
    },
    {
      "midi": 44,
      "hit": false,
      "t": 113587.7200000002,
      "d": 229.00750000000698,
      "v": 87
    },
    {
      "midi": 56,
      "hit": false,
      "t": 113587.72000000025,
      "d": 229.00750000000698,
      "v": 96
    },
    {
      "midi": 56,
      "hit": false,
      "t": 113587.7200000004,
      "d": 1374.045000000042,
      "v": 74
    },
    {
      "midi": 75,
      "hit": false,
      "t": 113587.72000000073,
      "d": 1832.0599999999831,
      "v": 105
    },
    {
      "midi": 36,
      "hit": false,
      "t": 113816.7274999997,
      "d": 9.541979166664532,
      "v": 116
    },
    {
      "midi": 42,
      "hit": false,
      "t": 113816.7274999997,
      "d": 9.541979166664532,
      "v": 85
    },
    {
      "midi": 44,
      "hit": false,
      "t": 113816.72750000021,
      "d": 57.251875000001746,
      "v": 82
    },
    {
      "midi": 63,
      "hit": false,
      "t": 113816.72750000026,
      "d": 229.00750000000698,
      "v": 96
    },
    {
      "midi": 63,
      "hit": false,
      "t": 113816.7275000004,
      "d": 687.022500000021,
      "v": 74
    },
    {
      "midi": 42,
      "hit": false,
      "t": 114045.7349999997,
      "d": 9.541979166664532,
      "v": 105
    },
    {
      "midi": 37,
      "hit": false,
      "t": 114045.7349999997,
      "d": 9.541979166664532,
      "v": 120
    },
    {
      "midi": 44,
      "hit": false,
      "t": 114045.73500000022,
      "d": 57.251875000001746,
      "v": 82
    },
    {
      "midi": 60,
      "hit": false,
      "t": 114045.73500000026,
      "d": 229.00750000000698,
      "v": 96
    },
    {
      "midi": 60,
      "hit": false,
      "t": 114045.73500000041,
      "d": 458.01500000001397,
      "v": 74
    },
    {
      "midi": 42,
      "hit": false,
      "t": 114274.74249999969,
      "d": 9.541979166664532,
      "v": 85
    },
    {
      "midi": 44,
      "hit": false,
      "t": 114274.74250000023,
      "d": 57.251875000001746,
      "v": 82
    },
    {
      "midi": 68,
      "hit": false,
      "t": 114274.74250000027,
      "d": 229.00750000000698,
      "v": 96
    },
    {
      "midi": 68,
      "hit": false,
      "t": 114274.74250000042,
      "d": 1145.037500000035,
      "v": 100
    },
    {
      "midi": 42,
      "hit": false,
      "t": 114503.74999999968,
      "d": 9.541979166664532,
      "v": 105
    },
    {
      "midi": 37,
      "hit": false,
      "t": 114503.74999999968,
      "d": 9.541979166664532,
      "v": 120
    },
    {
      "midi": 44,
      "hit": false,
      "t": 114503.75000000023,
      "d": 57.251875000001746,
      "v": 82
    },
    {
      "midi": 63,
      "hit": false,
      "t": 114503.75000000028,
      "d": 229.00750000000698,
      "v": 96
    },
    {
      "midi": 63,
      "hit": false,
      "t": 114503.75000000042,
      "d": 916.0300000000279,
      "v": 74
    },
    {
      "midi": 36,
      "hit": false,
      "t": 114732.75749999967,
      "d": 9.541979166664532,
      "v": 108
    },
    {
      "midi": 42,
      "hit": false,
      "t": 114732.75749999967,
      "d": 9.541979166664532,
      "v": 85
    },
    {
      "midi": 44,
      "hit": false,
      "t": 114732.75750000024,
      "d": 57.251875000001746,
      "v": 82
    },
    {
      "midi": 60,
      "hit": false,
      "t": 114732.75750000028,
      "d": 229.00750000000698,
      "v": 96
    },
    {
      "midi": 60,
      "hit": false,
      "t": 114732.75750000043,
      "d": 229.00750000000698,
      "v": 74
    },
    {
      "midi": 42,
      "hit": false,
      "t": 114961.76499999966,
      "d": 9.541979166664532,
      "v": 105
    },
    {
      "midi": 37,
      "hit": false,
      "t": 114961.76499999966,
      "d": 9.541979166664532,
      "v": 120
    },
    {
      "midi": 44,
      "hit": false,
      "t": 114961.76500000025,
      "d": 57.251875000001746,
      "v": 82
    },
    {
      "midi": 56,
      "hit": false,
      "t": 114961.76500000029,
      "d": 229.00750000000698,
      "v": 96
    },
    {
      "midi": 56,
      "hit": false,
      "t": 114961.76500000044,
      "d": 458.01500000001397,
      "v": 74
    },
    {
      "midi": 36,
      "hit": false,
      "t": 115190.77249999966,
      "d": 9.541979166664532,
      "v": 108
    },
    {
      "midi": 42,
      "hit": false,
      "t": 115190.77249999966,
      "d": 9.541979166664532,
      "v": 85
    },
    {
      "midi": 44,
      "hit": false,
      "t": 115190.77250000025,
      "d": 229.00750000000698,
      "v": 87
    },
    {
      "midi": 51,
      "hit": false,
      "t": 115190.77250000025,
      "d": 229.00750000000698,
      "v": 87
    },
    {
      "midi": 60,
      "hit": false,
      "t": 115190.7725000003,
      "d": 229.00750000000698,
      "v": 96
    },
    {
      "midi": 60,
      "hit": false,
      "t": 115190.77250000044,
      "d": 229.00750000000698,
      "v": 74
    },
    {
      "midi": 36,
      "hit": false,
      "t": 115419.77999999965,
      "d": 9.541979166664532,
      "v": 108
    },
    {
      "midi": 42,
      "hit": false,
      "t": 115419.77999999965,
      "d": 9.541979166664532,
      "v": 105
    },
    {
      "midi": 37,
      "hit": false,
      "t": 115419.77999999965,
      "d": 9.541979166664532,
      "v": 120
    },
    {
      "midi": 70,
      "hit": false,
      "t": 115419.77999999994,
      "d": 1832.0599999999977,
      "v": 80
    },
    {
      "midi": 74,
      "hit": false,
      "t": 115419.77999999994,
      "d": 1832.0599999999977,
      "v": 80
    },
    {
      "midi": 77,
      "hit": false,
      "t": 115419.77999999994,
      "d": 1832.0599999999977,
      "v": 80
    },
    {
      "midi": 46,
      "hit": false,
      "t": 115419.78000000026,
      "d": 229.00750000000698,
      "v": 87
    },
    {
      "midi": 53,
      "hit": false,
      "t": 115419.78000000026,
      "d": 229.00750000000698,
      "v": 87
    },
    {
      "midi": 58,
      "hit": false,
      "t": 115419.7800000003,
      "d": 229.00750000000698,
      "v": 96
    },
    {
      "midi": 58,
      "hit": false,
      "t": 115419.78000000045,
      "d": 1374.045000000042,
      "v": 74
    },
    {
      "midi": 77,
      "hit": false,
      "t": 115419.78000000071,
      "d": 1145.0374999999767,
      "v": 100
    },
    {
      "midi": 42,
      "hit": false,
      "t": 115648.78749999964,
      "d": 9.541979166664532,
      "v": 85
    },
    {
      "midi": 46,
      "hit": false,
      "t": 115648.78750000027,
      "d": 57.251875000001746,
      "v": 82
    },
    {
      "midi": 65,
      "hit": false,
      "t": 115648.78750000031,
      "d": 229.00750000000698,
      "v": 96
    },
    {
      "midi": 65,
      "hit": false,
      "t": 115648.78750000046,
      "d": 687.022500000021,
      "v": 74
    },
    {
      "midi": 42,
      "hit": false,
      "t": 115877.79499999963,
      "d": 9.541979166664532,
      "v": 105
    },
    {
      "midi": 37,
      "hit": false,
      "t": 115877.79499999963,
      "d": 9.541979166664532,
      "v": 120
    },
    {
      "midi": 58,
      "hit": false,
      "t": 115877.79500000001,
      "d": 687.0224999999919,
      "v": 127
    },
    {
      "midi": 53,
      "hit": false,
      "t": 115877.79500000001,
      "d": 687.0224999999919,
      "v": 127
    },
    {
      "midi": 46,
      "hit": false,
      "t": 115877.79500000027,
      "d": 57.251875000001746,
      "v": 82
    },
    {
      "midi": 62,
      "hit": false,
      "t": 115877.79500000032,
      "d": 229.00750000000698,
      "v": 96
    },
    {
      "midi": 62,
      "hit": false,
      "t": 115877.79500000046,
      "d": 458.01500000001397,
      "v": 74
    },
    {
      "midi": 42,
      "hit": false,
      "t": 116106.80249999963,
      "d": 9.541979166664532,
      "v": 85
    },
    {
      "midi": 46,
      "hit": false,
      "t": 116106.80250000028,
      "d": 57.251875000001746,
      "v": 82
    },
    {
      "midi": 70,
      "hit": false,
      "t": 116106.80250000033,
      "d": 229.00750000000698,
      "v": 96
    },
    {
      "midi": 70,
      "hit": false,
      "t": 116106.80250000047,
      "d": 1145.037500000035,
      "v": 100
    },
    {
      "midi": 38,
      "hit": false,
      "t": 116331.0390104163,
      "d": 9.541979166679084,
      "v": 96
    },
    {
      "midi": 37,
      "hit": false,
      "t": 116335.80999999963,
      "d": 9.541979166679084,
      "v": 120
    },
    {
      "midi": 42,
      "hit": false,
      "t": 116335.80999999963,
      "d": 9.541979166679084,
      "v": 105
    },
    {
      "midi": 46,
      "hit": false,
      "t": 116335.81000000029,
      "d": 229.00750000000698,
      "v": 52
    },
    {
      "midi": 53,
      "hit": false,
      "t": 116335.81000000029,
      "d": 229.00750000000698,
      "v": 52
    },
    {
      "midi": 65,
      "hit": false,
      "t": 116335.81000000033,
      "d": 229.00750000000698,
      "v": 96
    },
    {
      "midi": 65,
      "hit": false,
      "t": 116335.81000000048,
      "d": 916.0300000000279,
      "v": 74
    },
    {
      "midi": 38,
      "hit": false,
      "t": 116445.54276041631,
      "d": 9.541979166664532,
      "v": 96
    },
    {
      "midi": 38,
      "hit": false,
      "t": 116560.04651041632,
      "d": 9.541979166679084,
      "v": 96
    },
    {
      "midi": 42,
      "hit": false,
      "t": 116564.81749999966,
      "d": 9.541979166679084,
      "v": 85
    },
    {
      "midi": 55,
      "hit": false,
      "t": 116564.8175,
      "d": 229.00750000000698,
      "v": 112
    },
    {
      "midi": 46,
      "hit": false,
      "t": 116564.8175000003,
      "d": 229.00750000000698,
      "v": 61
    },
    {
      "midi": 53,
      "hit": false,
      "t": 116564.8175000003,
      "d": 229.00750000000698,
      "v": 61
    },
    {
      "midi": 62,
      "hit": false,
      "t": 116564.81750000034,
      "d": 229.00750000000698,
      "v": 96
    },
    {
      "midi": 62,
      "hit": false,
      "t": 116564.81750000048,
      "d": 229.00750000000698,
      "v": 74
    },
    {
      "midi": 38,
      "hit": false,
      "t": 116789.05401041634,
      "d": 9.541979166679084,
      "v": 96
    },
    {
      "midi": 37,
      "hit": false,
      "t": 116793.82499999968,
      "d": 9.541979166679084,
      "v": 120
    },
    {
      "midi": 42,
      "hit": false,
      "t": 116793.82499999968,
      "d": 9.541979166679084,
      "v": 105
    },
    {
      "midi": 58,
      "hit": false,
      "t": 116793.82500000001,
      "d": 229.00750000000698,
      "v": 112
    },
    {
      "midi": 55,
      "hit": false,
      "t": 116793.82500000024,
      "d": 229.00750000000698,
      "v": 112
    },
    {
      "midi": 46,
      "hit": false,
      "t": 116793.8250000003,
      "d": 229.00750000000698,
      "v": 70
    },
    {
      "midi": 53,
      "hit": false,
      "t": 116793.8250000003,
      "d": 229.00750000000698,
      "v": 70
    },
    {
      "midi": 58,
      "hit": false,
      "t": 116793.82500000035,
      "d": 229.00750000000698,
      "v": 96
    },
    {
      "midi": 58,
      "hit": false,
      "t": 116793.82500000049,
      "d": 458.01500000001397,
      "v": 74
    },
    {
      "midi": 38,
      "hit": false,
      "t": 117018.06151041636,
      "d": 9.541979166679084,
      "v": 96
    },
    {
      "midi": 42,
      "hit": false,
      "t": 117022.8324999997,
      "d": 9.541979166679084,
      "v": 85
    },
    {
      "midi": 63,
      "hit": false,
      "t": 117022.83250000002,
      "d": 229.00750000000698,
      "v": 112
    },
    {
      "midi": 58,
      "hit": false,
      "t": 117022.83250000025,
      "d": 229.00750000000698,
      "v": 112
    },
    {
      "midi": 46,
      "hit": false,
      "t": 117022.83250000031,
      "d": 229.00750000000698,
      "v": 79
    },
    {
      "midi": 53,
      "hit": false,
      "t": 117022.83250000031,
      "d": 229.00750000000698,
      "v": 79
    },
    {
      "midi": 62,
      "hit": false,
      "t": 117022.83250000035,
      "d": 229.00750000000698,
      "v": 96
    },
    {
      "midi": 62,
      "hit": false,
      "t": 117022.8325000005,
      "d": 229.00750000000698,
      "v": 74
    },
    {
      "midi": 38,
      "hit": false,
      "t": 117132.56526041638,
      "d": 9.541979166664532,
      "v": 96
    },
    {
      "midi": 36,
      "hit": false,
      "t": 117251.8399999997,
      "d": 9.541979166664532,
      "v": 108
    },
    {
      "midi": 49,
      "hit": false,
      "t": 117251.8399999997,
      "d": 9.541979166664532,
      "v": 100
    },
    {
      "midi": 75,
      "hit": false,
      "t": 117251.83999999994,
      "d": 1832.0599999999977,
      "v": 60
    },
    {
      "midi": 72,
      "hit": false,
      "t": 117251.83999999994,
      "d": 1832.0599999999977,
      "v": 60
    },
    {
      "midi": 79,
      "hit": false,
      "t": 117251.83999999994,
      "d": 1832.0599999999977,
      "v": 60
    },
    {
      "midi": 60,
      "hit": false,
      "t": 117251.84000000003,
      "d": 458.0149999999994,
      "v": 112
    },
    {
      "midi": 72,
      "hit": false,
      "t": 117251.8400000001,
      "d": 1374.0449999999983,
      "v": 105
    },
    {
      "midi": 79,
      "hit": false,
      "t": 117251.8400000001,
      "d": 1374.0449999999983,
      "v": 105
    },
    {
      "midi": 84,
      "hit": false,
      "t": 117251.8400000001,
      "d": 1374.0449999999983,
      "v": 105
    },
    {
      "midi": 75,
      "hit": false,
      "t": 117251.84000000017,
      "d": 1832.0599999999977,
      "v": 45
    },
    {
      "midi": 72,
      "hit": false,
      "t": 117251.84000000017,
      "d": 1832.0599999999977,
      "v": 45
    },
    {
      "midi": 79,
      "hit": false,
      "t": 117251.84000000017,
      "d": 1832.0599999999977,
      "v": 45
    },
    {
      "midi": 63,
      "hit": false,
      "t": 117251.84000000026,
      "d": 229.00750000000698,
      "v": 112
    },
    {
      "midi": 48,
      "hit": false,
      "t": 117251.84000000032,
      "d": 229.00750000000698,
      "v": 90
    },
    {
      "midi": 55,
      "hit": false,
      "t": 117251.84000000032,
      "d": 229.00750000000698,
      "v": 90
    },
    {
      "midi": 60,
      "hit": false,
      "t": 117480.84750000027,
      "d": 458.0149999999994,
      "v": 112
    },
    {
      "midi": 48,
      "hit": false,
      "t": 117480.84750000032,
      "d": 57.251875000001746,
      "v": 90
    },
    {
      "midi": 38,
      "hit": false,
      "t": 117705.08401041637,
      "d": 9.541979166679084,
      "v": 96
    },
    {
      "midi": 42,
      "hit": false,
      "t": 117709.8549999997,
      "d": 9.541979166679084,
      "v": 125
    },
    {
      "midi": 63,
      "hit": false,
      "t": 117709.85500000003,
      "d": 229.00750000000698,
      "v": 97
    },
    {
      "midi": 67,
      "hit": false,
      "t": 117709.85500000003,
      "d": 229.00750000000698,
      "v": 112
    },
    {
      "midi": 48,
      "hit": false,
      "t": 117709.85500000033,
      "d": 57.251875000001746,
      "v": 90
    },
    {
      "midi": 65,
      "hit": false,
      "t": 117938.86250000003,
      "d": 229.00750000000698,
      "v": 112
    },
    {
      "midi": 63,
      "hit": false,
      "t": 117938.86250000026,
      "d": 229.00750000000698,
      "v": 97
    },
    {
      "midi": 67,
      "hit": false,
      "t": 117938.86250000026,
      "d": 229.00750000000698,
      "v": 112
    },
    {
      "midi": 48,
      "hit": false,
      "t": 117938.86250000034,
      "d": 229.00750000000698,
      "v": 90
    },
    {
      "midi": 55,
      "hit": false,
      "t": 117938.86250000034,
      "d": 229.00750000000698,
      "v": 90
    },
    {
      "midi": 38,
      "hit": false,
      "t": 118163.09901041638,
      "d": 9.541979166679084,
      "v": 96
    },
    {
      "midi": 42,
      "hit": false,
      "t": 118167.86999999972,
      "d": 9.541979166679084,
      "v": 125
    },
    {
      "midi": 70,
      "hit": false,
      "t": 118167.87000000004,
      "d": 229.00750000000698,
      "v": 112
    },
    {
      "midi": 67,
      "hit": false,
      "t": 118167.87000000004,
      "d": 229.00750000000698,
      "v": 97
    },
    {
      "midi": 65,
      "hit": false,
      "t": 118167.87000000027,
      "d": 229.00750000000698,
      "v": 112
    },
    {
      "midi": 48,
      "hit": false,
      "t": 118167.87000000034,
      "d": 57.251875000001746,
      "v": 90
    },
    {
      "midi": 36,
      "hit": false,
      "t": 118396.87749999973,
      "d": 9.541979166664532,
      "v": 108
    },
    {
      "midi": 67,
      "hit": false,
      "t": 118396.87750000005,
      "d": 458.0149999999994,
      "v": 112
    },
    {
      "midi": 63,
      "hit": false,
      "t": 118396.87750000005,
      "d": 458.0149999999994,
      "v": 97
    },
    {
      "midi": 70,
      "hit": false,
      "t": 118396.87750000028,
      "d": 229.00750000000698,
      "v": 112
    },
    {
      "midi": 67,
      "hit": false,
      "t": 118396.87750000028,
      "d": 229.00750000000698,
      "v": 97
    },
    {
      "midi": 48,
      "hit": false,
      "t": 118396.87750000035,
      "d": 57.251875000001746,
      "v": 90
    },
    {
      "midi": 38,
      "hit": false,
      "t": 118621.1140104164,
      "d": 9.541979166679084,
      "v": 96
    },
    {
      "midi": 42,
      "hit": false,
      "t": 118625.88499999973,
      "d": 9.541979166679084,
      "v": 125
    },
    {
      "midi": 71,
      "hit": false,
      "t": 118625.8850000001,
      "d": 458.0149999999994,
      "v": 105
    },
    {
      "midi": 79,
      "hit": false,
      "t": 118625.8850000001,
      "d": 458.0149999999994,
      "v": 105
    },
    {
      "midi": 83,
      "hit": false,
      "t": 118625.8850000001,
      "d": 458.0149999999994,
      "v": 105
    },
    {
      "midi": 67,
      "hit": false,
      "t": 118625.88500000029,
      "d": 458.0149999999994,
      "v": 112
    },
    {
      "midi": 63,
      "hit": false,
      "t": 118625.88500000029,
      "d": 458.0149999999994,
      "v": 97
    },
    {
      "midi": 48,
      "hit": false,
      "t": 118625.88500000036,
      "d": 229.00750000000698,
      "v": 90
    },
    {
      "midi": 55,
      "hit": false,
      "t": 118625.88500000036,
      "d": 229.00750000000698,
      "v": 90
    },
    {
      "midi": 36,
      "hit": false,
      "t": 118854.89249999974,
      "d": 9.541979166664532,
      "v": 108
    },
    {
      "midi": 58,
      "hit": false,
      "t": 118854.89250000005,
      "d": 229.00750000000698,
      "v": 112
    },
    {
      "midi": 48,
      "hit": false,
      "t": 118854.89250000037,
      "d": 114.50375000000349,
      "v": 84
    },
    {
      "midi": 55,
      "hit": false,
      "t": 118854.89250000037,
      "d": 114.50375000000349,
      "v": 84
    },
    {
      "midi": 48,
      "hit": false,
      "t": 118969.39625000037,
      "d": 114.50375000000349,
      "v": 84
    },
    {
      "midi": 55,
      "hit": false,
      "t": 118969.39625000037,
      "d": 114.50375000000349,
      "v": 84
    },
    {
      "midi": 38,
      "hit": false,
      "t": 119079.1290104164,
      "d": 9.541979166679084,
      "v": 96
    },
    {
      "midi": 42,
      "hit": false,
      "t": 119083.89999999975,
      "d": 9.541979166679084,
      "v": 125
    },
    {
      "midi": 36,
      "hit": false,
      "t": 119083.89999999975,
      "d": 9.541979166679084,
      "v": 108
    },
    {
      "midi": 71,
      "hit": false,
      "t": 119083.89999999994,
      "d": 1832.0599999999977,
      "v": 60
    },
    {
      "midi": 79,
      "hit": false,
      "t": 119083.89999999994,
      "d": 1832.0599999999977,
      "v": 60
    },
    {
      "midi": 75,
      "hit": false,
      "t": 119083.89999999994,
      "d": 1832.0599999999977,
      "v": 60
    },
    {
      "midi": 59,
      "hit": false,
      "t": 119083.90000000005,
      "d": 229.00750000000698,
      "v": 112
    },
    {
      "midi": 59,
      "hit": false,
      "t": 119083.9000000001,
      "d": 916.0299999999988,
      "v": 105
    },
    {
      "midi": 62,
      "hit": false,
      "t": 119083.9000000001,
      "d": 916.0299999999988,
      "v": 105
    },
    {
      "midi": 67,
      "hit": false,
      "t": 119083.9000000001,
      "d": 916.0299999999988,
      "v": 105
    },
    {
      "midi": 71,
      "hit": false,
      "t": 119083.9000000001,
      "d": 916.0299999999988,
      "v": 105
    },
    {
      "midi": 71,
      "hit": false,
      "t": 119083.90000000017,
      "d": 1832.0599999999977,
      "v": 45
    },
    {
      "midi": 79,
      "hit": false,
      "t": 119083.90000000017,
      "d": 1832.0599999999977,
      "v": 45
    },
    {
      "midi": 75,
      "hit": false,
      "t": 119083.90000000017,
      "d": 1832.0599999999977,
      "v": 45
    },
    {
      "midi": 58,
      "hit": false,
      "t": 119083.90000000029,
      "d": 229.00750000000698,
      "v": 112
    },
    {
      "midi": 55,
      "hit": false,
      "t": 119083.90000000037,
      "d": 229.00750000000698,
      "v": 90
    },
    {
      "midi": 50,
      "hit": false,
      "t": 119083.90000000037,
      "d": 229.00750000000698,
      "v": 90
    },
    {
      "midi": 36,
      "hit": false,
      "t": 119312.90749999975,
      "d": 9.541979166664532,
      "v": 108
    },
    {
      "midi": 59,
      "hit": false,
      "t": 119312.90750000006,
      "d": 229.00750000000698,
      "v": 112
    },
    {
      "midi": 59,
      "hit": false,
      "t": 119312.90750000029,
      "d": 229.00750000000698,
      "v": 112
    },
    {
      "midi": 50,
      "hit": false,
      "t": 119312.90750000038,
      "d": 57.251875000001746,
      "v": 90
    },
    {
      "midi": 38,
      "hit": false,
      "t": 119537.14401041642,
      "d": 9.541979166679084,
      "v": 96
    },
    {
      "midi": 42,
      "hit": false,
      "t": 119541.91499999976,
      "d": 9.541979166679084,
      "v": 125
    },
    {
      "midi": 62,
      "hit": false,
      "t": 119541.91500000007,
      "d": 229.00750000000698,
      "v": 112
    },
    {
      "midi": 59,
      "hit": false,
      "t": 119541.9150000003,
      "d": 229.00750000000698,
      "v": 112
    },
    {
      "midi": 50,
      "hit": false,
      "t": 119541.91500000039,
      "d": 57.251875000001746,
      "v": 90
    },
    {
      "midi": 65,
      "hit": false,
      "t": 119770.92250000007,
      "d": 458.01499999998487,
      "v": 112
    },
    {
      "midi": 62,
      "hit": false,
      "t": 119770.9225000003,
      "d": 229.00750000000698,
      "v": 112
    },
    {
      "midi": 55,
      "hit": false,
      "t": 119770.9225000004,
      "d": 229.00750000000698,
      "v": 90
    },
    {
      "midi": 50,
      "hit": false,
      "t": 119770.9225000004,
      "d": 229.00750000000698,
      "v": 90
    },
    {
      "midi": 38,
      "hit": false,
      "t": 119995.15901041644,
      "d": 9.541979166679084,
      "v": 96
    },
    {
      "midi": 42,
      "hit": false,
      "t": 119999.92999999977,
      "d": 9.541979166679084,
      "v": 125
    },
    {
      "midi": 67,
      "hit": false,
      "t": 119999.9300000001,
      "d": 916.0299999999988,
      "v": 105
    },
    {
      "midi": 71,
      "hit": false,
      "t": 119999.9300000001,
      "d": 916.0299999999988,
      "v": 105
    },
    {
      "midi": 74,
      "hit": false,
      "t": 119999.9300000001,
      "d": 916.0299999999988,
      "v": 105
    },
    {
      "midi": 79,
      "hit": false,
      "t": 119999.9300000001,
      "d": 916.0299999999988,
      "v": 105
    },
    {
      "midi": 65,
      "hit": false,
      "t": 119999.93000000031,
      "d": 458.01499999998487,
      "v": 112
    },
    {
      "midi": 50,
      "hit": false,
      "t": 119999.9300000004,
      "d": 57.251875000001746,
      "v": 90
    },
    {
      "midi": 36,
      "hit": false,
      "t": 120228.93749999978,
      "d": 9.541979166664532,
      "v": 108
    },
    {
      "midi": 57,
      "hit": false,
      "t": 120228.93750000006,
      "d": 458.0149999999994,
      "v": 112
    },
    {
      "midi": 50,
      "hit": false,
      "t": 120228.93750000041,
      "d": 57.251875000001746,
      "v": 90
    },
    {
      "midi": 38,
      "hit": false,
      "t": 120453.17401041645,
      "d": 9.541979166679084,
      "v": 96
    },
    {
      "midi": 42,
      "hit": false,
      "t": 120457.94499999979,
      "d": 9.541979166679084,
      "v": 125
    },
    {
      "midi": 57,
      "hit": false,
      "t": 120457.9450000003,
      "d": 458.0149999999994,
      "v": 112
    },
    {
      "midi": 55,
      "hit": false,
      "t": 120457.94500000041,
      "d": 229.00750000000698,
      "v": 90
    },
    {
      "midi": 50,
      "hit": false,
      "t": 120457.94500000041,
      "d": 229.00750000000698,
      "v": 90
    },
    {
      "midi": 36,
      "hit": false,
      "t": 120686.9524999998,
      "d": 9.541979166664532,
      "v": 108
    },
    {
      "midi": 58,
      "hit": false,
      "t": 120686.95250000006,
      "d": 229.00750000000698,
      "v": 112
    },
    {
      "midi": 55,
      "hit": false,
      "t": 120686.95250000042,
      "d": 114.50375000000349,
      "v": 84
    },
    {
      "midi": 50,
      "hit": false,
      "t": 120686.95250000042,
      "d": 114.50375000000349,
      "v": 84
    },
    {
      "midi": 55,
      "hit": false,
      "t": 120801.45625000042,
      "d": 114.50375000000349,
      "v": 84
    },
    {
      "midi": 50,
      "hit": false,
      "t": 120801.45625000042,
      "d": 114.50375000000349,
      "v": 84
    },
    {
      "midi": 38,
      "hit": false,
      "t": 120911.18901041646,
      "d": 9.541979166679084,
      "v": 96
    },
    {
      "midi": 49,
      "hit": false,
      "t": 120915.9599999998,
      "d": 9.541979166679084,
      "v": 100
    },
    {
      "midi": 36,
      "hit": false,
      "t": 120915.9599999998,
      "d": 9.541979166679084,
      "v": 108
    },
    {
      "midi": 79,
      "hit": false,
      "t": 120915.95999999993,
      "d": 1832.0599999999977,
      "v": 60
    },
    {
      "midi": 70,
      "hit": false,
      "t": 120915.95999999993,
      "d": 1832.0599999999977,
      "v": 60
    },
    {
      "midi": 75,
      "hit": false,
      "t": 120915.95999999993,
      "d": 1832.0599999999977,
      "v": 60
    },
    {
      "midi": 58,
      "hit": false,
      "t": 120915.96000000006,
      "d": 458.0149999999994,
      "v": 112
    },
    {
      "midi": 67,
      "hit": false,
      "t": 120915.9600000001,
      "d": 916.0299999999988,
      "v": 105
    },
    {
      "midi": 70,
      "hit": false,
      "t": 120915.9600000001,
      "d": 916.0299999999988,
      "v": 105
    },
    {
      "midi": 74,
      "hit": false,
      "t": 120915.9600000001,
      "d": 916.0299999999988,
      "v": 105
    },
    {
      "midi": 79,
      "hit": false,
      "t": 120915.9600000001,
      "d": 916.0299999999988,
      "v": 105
    },
    {
      "midi": 79,
      "hit": false,
      "t": 120915.96000000017,
      "d": 1832.0599999999977,
      "v": 45
    },
    {
      "midi": 70,
      "hit": false,
      "t": 120915.96000000017,
      "d": 1832.0599999999977,
      "v": 45
    },
    {
      "midi": 75,
      "hit": false,
      "t": 120915.96000000017,
      "d": 1832.0599999999977,
      "v": 45
    },
    {
      "midi": 58,
      "hit": false,
      "t": 120915.9600000003,
      "d": 229.00750000000698,
      "v": 112
    },
    {
      "midi": 51,
      "hit": false,
      "t": 120915.96000000043,
      "d": 229.00750000000698,
      "v": 90
    },
    {
      "midi": 55,
      "hit": false,
      "t": 120915.96000000043,
      "d": 229.00750000000698,
      "v": 90
    },
    {
      "midi": 58,
      "hit": false,
      "t": 121144.9675000003,
      "d": 458.0149999999994,
      "v": 112
    },
    {
      "midi": 51,
      "hit": false,
      "t": 121144.96750000044,
      "d": 57.251875000001746,
      "v": 90
    },
    {
      "midi": 38,
      "hit": false,
      "t": 121369.20401041648,
      "d": 9.541979166679084,
      "v": 96
    },
    {
      "midi": 42,
      "hit": false,
      "t": 121373.97499999982,
      "d": 9.541979166679084,
      "v": 125
    },
    {
      "midi": 62,
      "hit": false,
      "t": 121373.97500000006,
      "d": 229.00750000000698,
      "v": 112
    },
    {
      "midi": 51,
      "hit": false,
      "t": 121373.97500000044,
      "d": 57.251875000001746,
      "v": 90
    },
    {
      "midi": 62,
      "hit": false,
      "t": 121602.98250000007,
      "d": 114.50375000000349,
      "v": 97
    },
    {
      "midi": 67,
      "hit": false,
      "t": 121602.98250000007,
      "d": 114.50375000000349,
      "v": 112
    },
    {
      "midi": 62,
      "hit": false,
      "t": 121602.9825000003,
      "d": 229.00750000000698,
      "v": 112
    },
    {
      "midi": 51,
      "hit": false,
      "t": 121602.98250000045,
      "d": 229.00750000000698,
      "v": 90
    },
    {
      "midi": 55,
      "hit": false,
      "t": 121602.98250000045,
      "d": 229.00750000000698,
      "v": 90
    },
    {
      "midi": 62,
      "hit": false,
      "t": 121717.48625000007,
      "d": 114.50375000000349,
      "v": 97
    },
    {
      "midi": 67,
      "hit": false,
      "t": 121717.48625000007,
      "d": 114.50375000000349,
      "v": 112
    },
    {
      "midi": 38,
      "hit": false,
      "t": 121827.21901041649,
      "d": 9.541979166679084,
      "v": 96
    },
    {
      "midi": 42,
      "hit": false,
      "t": 121831.98999999983,
      "d": 9.541979166679084,
      "v": 125
    },
    {
      "midi": 67,
      "hit": false,
      "t": 121831.99000000008,
      "d": 229.00750000000698,
      "v": 112
    },
    {
      "midi": 63,
      "hit": false,
      "t": 121831.99000000008,
      "d": 229.00750000000698,
      "v": 97
    },
    {
      "midi": 62,
      "hit": false,
      "t": 121831.99000000031,
      "d": 114.50375000000349,
      "v": 97
    },
    {
      "midi": 67,
      "hit": false,
      "t": 121831.99000000031,
      "d": 114.50375000000349,
      "v": 112
    },
    {
      "midi": 51,
      "hit": false,
      "t": 121831.99000000046,
      "d": 57.251875000001746,
      "v": 90
    },
    {
      "midi": 62,
      "hit": false,
      "t": 121946.49375000031,
      "d": 114.50375000000349,
      "v": 97
    },
    {
      "midi": 67,
      "hit": false,
      "t": 121946.49375000031,
      "d": 114.50375000000349,
      "v": 112
    },
    {
      "midi": 36,
      "hit": false,
      "t": 122060.99749999984,
      "d": 9.541979166664532,
      "v": 108
    },
    {
      "midi": 67,
      "hit": false,
      "t": 122060.99750000008,
      "d": 458.0149999999994,
      "v": 112
    },
    {
      "midi": 62,
      "hit": false,
      "t": 122060.99750000008,
      "d": 458.0149999999994,
      "v": 97
    },
    {
      "midi": 67,
      "hit": false,
      "t": 122060.99750000032,
      "d": 229.00750000000698,
      "v": 112
    },
    {
      "midi": 63,
      "hit": false,
      "t": 122060.99750000032,
      "d": 229.00750000000698,
      "v": 97
    },
    {
      "midi": 51,
      "hit": false,
      "t": 122060.99750000046,
      "d": 57.251875000001746,
      "v": 90
    },
    {
      "midi": 65,
      "hit": false,
      "t": 122137.33333333343,
      "d": 305.3433333333378,
      "v": 105
    },
    {
      "midi": 77,
      "hit": false,
      "t": 122137.33333333343,
      "d": 305.3433333333378,
      "v": 105
    },
    {
      "midi": 38,
      "hit": false,
      "t": 122285.2340104165,
      "d": 9.541979166679084,
      "v": 96
    },
    {
      "midi": 42,
      "hit": false,
      "t": 122290.00499999984,
      "d": 9.541979166679084,
      "v": 125
    },
    {
      "midi": 67,
      "hit": false,
      "t": 122290.00500000032,
      "d": 458.0149999999994,
      "v": 112
    },
    {
      "midi": 62,
      "hit": false,
      "t": 122290.00500000032,
      "d": 458.0149999999994,
      "v": 97
    },
    {
      "midi": 51,
      "hit": false,
      "t": 122290.00500000047,
      "d": 229.00750000000698,
      "v": 90
    },
    {
      "midi": 55,
      "hit": false,
      "t": 122290.00500000047,
      "d": 229.00750000000698,
      "v": 90
    },
    {
      "midi": 64,
      "hit": false,
      "t": 122442.67666666677,
      "d": 305.3433333333378,
      "v": 105
    },
    {
      "midi": 76,
      "hit": false,
      "t": 122442.67666666677,
      "d": 305.3433333333378,
      "v": 105
    },
    {
      "midi": 36,
      "hit": false,
      "t": 122519.01249999985,
      "d": 9.541979166664532,
      "v": 108
    },
    {
      "midi": 56,
      "hit": false,
      "t": 122519.01250000008,
      "d": 229.00750000000698,
      "v": 112
    },
    {
      "midi": 51,
      "hit": false,
      "t": 122519.01250000048,
      "d": 114.50375000000349,
      "v": 84
    },
    {
      "midi": 55,
      "hit": false,
      "t": 122519.01250000048,
      "d": 114.50375000000349,
      "v": 84
    },
    {
      "midi": 51,
      "hit": false,
      "t": 122633.51625000048,
      "d": 114.50375000000349,
      "v": 84
    },
    {
      "midi": 55,
      "hit": false,
      "t": 122633.51625000048,
      "d": 114.50375000000349,
      "v": 84
    },
    {
      "midi": 38,
      "hit": false,
      "t": 122743.24901041652,
      "d": 9.541979166679084,
      "v": 96
    },
    {
      "midi": 42,
      "hit": false,
      "t": 122748.01999999986,
      "d": 9.541979166679084,
      "v": 125
    },
    {
      "midi": 36,
      "hit": false,
      "t": 122748.01999999986,
      "d": 9.541979166679084,
      "v": 108
    },
    {
      "midi": 69,
      "hit": false,
      "t": 122748.01999999993,
      "d": 1832.0599999999977,
      "v": 60
    },
    {
      "midi": 72,
      "hit": false,
      "t": 122748.01999999993,
      "d": 1832.0599999999977,
      "v": 60
    },
    {
      "midi": 77,
      "hit": false,
      "t": 122748.01999999993,
      "d": 1832.0599999999977,
      "v": 60
    },
    {
      "midi": 57,
      "hit": false,
      "t": 122748.02000000009,
      "d": 229.00750000000698,
      "v": 112
    },
    {
      "midi": 65,
      "hit": false,
      "t": 122748.0200000001,
      "d": 1374.0449999999983,
      "v": 105
    },
    {
      "midi": 69,
      "hit": false,
      "t": 122748.0200000001,
      "d": 1374.0449999999983,
      "v": 105
    },
    {
      "midi": 72,
      "hit": false,
      "t": 122748.0200000001,
      "d": 1374.0449999999983,
      "v": 105
    },
    {
      "midi": 77,
      "hit": false,
      "t": 122748.0200000001,
      "d": 1374.0449999999983,
      "v": 105
    },
    {
      "midi": 69,
      "hit": false,
      "t": 122748.02000000016,
      "d": 1832.0599999999977,
      "v": 45
    },
    {
      "midi": 72,
      "hit": false,
      "t": 122748.02000000016,
      "d": 1832.0599999999977,
      "v": 45
    },
    {
      "midi": 77,
      "hit": false,
      "t": 122748.02000000016,
      "d": 1832.0599999999977,
      "v": 45
    },
    {
      "midi": 56,
      "hit": false,
      "t": 122748.02000000032,
      "d": 229.00750000000698,
      "v": 112
    },
    {
      "midi": 48,
      "hit": false,
      "t": 122748.02000000048,
      "d": 229.00750000000698,
      "v": 90
    },
    {
      "midi": 53,
      "hit": false,
      "t": 122748.02000000048,
      "d": 229.00750000000698,
      "v": 90
    },
    {
      "midi": 36,
      "hit": false,
      "t": 122977.02749999987,
      "d": 9.541979166664532,
      "v": 108
    },
    {
      "midi": 60,
      "hit": false,
      "t": 122977.0275000001,
      "d": 229.00750000000698,
      "v": 112
    },
    {
      "midi": 57,
      "hit": false,
      "t": 122977.02750000033,
      "d": 229.00750000000698,
      "v": 112
    },
    {
      "midi": 48,
      "hit": false,
      "t": 122977.02750000049,
      "d": 57.251875000001746,
      "v": 90
    },
    {
      "midi": 38,
      "hit": false,
      "t": 123201.26401041653,
      "d": 9.541979166679084,
      "v": 96
    },
    {
      "midi": 42,
      "hit": false,
      "t": 123206.03499999987,
      "d": 9.541979166679084,
      "v": 125
    },
    {
      "midi": 65,
      "hit": false,
      "t": 123206.0350000001,
      "d": 229.00750000000698,
      "v": 112
    },
    {
      "midi": 60,
      "hit": false,
      "t": 123206.03500000034,
      "d": 229.00750000000698,
      "v": 112
    },
    {
      "midi": 48,
      "hit": false,
      "t": 123206.0350000005,
      "d": 57.251875000001746,
      "v": 90
    },
    {
      "midi": 63,
      "hit": false,
      "t": 123435.04250000011,
      "d": 687.0225000000064,
      "v": 112
    },
    {
      "midi": 65,
      "hit": false,
      "t": 123435.04250000035,
      "d": 229.00750000000698,
      "v": 112
    },
    {
      "midi": 48,
      "hit": false,
      "t": 123435.0425000005,
      "d": 229.00750000000698,
      "v": 90
    },
    {
      "midi": 53,
      "hit": false,
      "t": 123435.0425000005,
      "d": 229.00750000000698,
      "v": 90
    },
    {
      "midi": 38,
      "hit": false,
      "t": 123659.27901041655,
      "d": 9.541979166679084,
      "v": 96
    },
    {
      "midi": 42,
      "hit": false,
      "t": 123664.04999999989,
      "d": 9.541979166679084,
      "v": 125
    },
    {
      "midi": 63,
      "hit": false,
      "t": 123664.05000000035,
      "d": 687.0225000000064,
      "v": 112
    },
    {
      "midi": 48,
      "hit": false,
      "t": 123664.05000000051,
      "d": 57.251875000001746,
      "v": 90
    },
    {
      "midi": 36,
      "hit": false,
      "t": 123893.0574999999,
      "d": 9.541979166664532,
      "v": 108
    },
    {
      "midi": 48,
      "hit": false,
      "t": 123893.05750000052,
      "d": 57.251875000001746,
      "v": 90
    },
    {
      "midi": 38,
      "hit": false,
      "t": 124117.29401041656,
      "d": 9.541979166679084,
      "v": 96
    },
    {
      "midi": 42,
      "hit": false,
      "t": 124122.0649999999,
      "d": 9.541979166679084,
      "v": 125
    },
    {
      "midi": 60,
      "hit": false,
      "t": 124122.0650000001,
      "d": 229.00750000000698,
      "v": 105
    },
    {
      "midi": 72,
      "hit": false,
      "t": 124122.0650000001,
      "d": 229.00750000000698,
      "v": 105
    },
    {
      "midi": 55,
      "hit": false,
      "t": 124122.06500000012,
      "d": 229.00750000000698,
      "v": 112
    },
    {
      "midi": 48,
      "hit": false,
      "t": 124122.06500000053,
      "d": 229.00750000000698,
      "v": 90
    },
    {
      "midi": 53,
      "hit": false,
      "t": 124122.06500000053,
      "d": 229.00750000000698,
      "v": 90
    },
    {
      "midi": 36,
      "hit": false,
      "t": 124351.07249999991,
      "d": 9.541979166664532,
      "v": 108
    },
    {
      "midi": 62,
      "hit": false,
      "t": 124351.07250000011,
      "d": 229.00750000000698,
      "v": 105
    },
    {
      "midi": 74,
      "hit": false,
      "t": 124351.07250000011,
      "d": 229.00750000000698,
      "v": 105
    },
    {
      "midi": 56,
      "hit": false,
      "t": 124351.07250000013,
      "d": 229.00750000000698,
      "v": 112
    },
    {
      "midi": 55,
      "hit": false,
      "t": 124351.07250000036,
      "d": 229.00750000000698,
      "v": 112
    },
    {
      "midi": 48,
      "hit": false,
      "t": 124351.07250000053,
      "d": 114.50375000000349,
      "v": 84
    },
    {
      "midi": 53,
      "hit": false,
      "t": 124351.07250000053,
      "d": 114.50375000000349,
      "v": 84
    },
    {
      "midi": 48,
      "hit": false,
      "t": 124465.57625000054,
      "d": 114.50375000000349,
      "v": 84
    },
    {
      "midi": 53,
      "hit": false,
      "t": 124465.57625000054,
      "d": 114.50375000000349,
      "v": 84
    },
    {
      "midi": 38,
      "hit": false,
      "t": 124575.30901041657,
      "d": 9.541979166679084,
      "v": 96
    },
    {
      "midi": 49,
      "hit": false,
      "t": 124580.07999999991,
      "d": 9.541979166679084,
      "v": 100
    },
    {
      "midi": 36,
      "hit": false,
      "t": 124580.07999999991,
      "d": 9.541979166679084,
      "v": 108
    },
    {
      "midi": 75,
      "hit": false,
      "t": 124580.07999999993,
      "d": 1832.0599999999977,
      "v": 60
    },
    {
      "midi": 72,
      "hit": false,
      "t": 124580.07999999993,
      "d": 1832.0599999999977,
      "v": 60
    },
    {
      "midi": 68,
      "hit": false,
      "t": 124580.07999999993,
      "d": 1832.0599999999977,
      "v": 60
    },
    {
      "midi": 63,
      "hit": false,
      "t": 124580.08000000012,
      "d": 1374.0449999999983,
      "v": 105
    },
    {
      "midi": 68,
      "hit": false,
      "t": 124580.08000000012,
      "d": 1374.0449999999983,
      "v": 105
    },
    {
      "midi": 72,
      "hit": false,
      "t": 124580.08000000012,
      "d": 1374.0449999999983,
      "v": 105
    },
    {
      "midi": 75,
      "hit": false,
      "t": 124580.08000000012,
      "d": 1374.0449999999983,
      "v": 105
    },
    {
      "midi": 56,
      "hit": false,
      "t": 124580.08000000013,
      "d": 229.00750000000698,
      "v": 112
    },
    {
      "midi": 75,
      "hit": false,
      "t": 124580.08000000016,
      "d": 1832.0599999999977,
      "v": 45
    },
    {
      "midi": 72,
      "hit": false,
      "t": 124580.08000000016,
      "d": 1832.0599999999977,
      "v": 45
    },
    {
      "midi": 68,
      "hit": false,
      "t": 124580.08000000016,
      "d": 1832.0599999999977,
      "v": 45
    },
    {
      "midi": 56,
      "hit": false,
      "t": 124580.08000000037,
      "d": 229.00750000000698,
      "v": 112
    },
    {
      "midi": 44,
      "hit": false,
      "t": 124580.08000000054,
      "d": 229.00750000000698,
      "v": 90
    },
    {
      "midi": 51,
      "hit": false,
      "t": 124580.08000000054,
      "d": 229.00750000000698,
      "v": 90
    },
    {
      "midi": 36,
      "hit": false,
      "t": 124809.08749999992,
      "d": 9.541979166664532,
      "v": 108
    },
    {
      "midi": 63,
      "hit": false,
      "t": 124809.08750000014,
      "d": 190.8395833333343,
      "v": 82
    },
    {
      "midi": 68,
      "hit": false,
      "t": 124809.08750000014,
      "d": 190.8395833333343,
      "v": 112
    },
    {
      "midi": 56,
      "hit": false,
      "t": 124809.08750000037,
      "d": 229.00750000000698,
      "v": 112
    },
    {
      "midi": 44,
      "hit": false,
      "t": 124809.08750000055,
      "d": 57.251875000001746,
      "v": 90
    },
    {
      "midi": 38,
      "hit": false,
      "t": 125033.32401041659,
      "d": 9.541979166679084,
      "v": 96
    },
    {
      "midi": 42,
      "hit": false,
      "t": 125038.09499999993,
      "d": 9.541979166679084,
      "v": 125
    },
    {
      "midi": 63,
      "hit": false,
      "t": 125038.09500000015,
      "d": 190.8395833333343,
      "v": 82
    },
    {
      "midi": 68,
      "hit": false,
      "t": 125038.09500000015,
      "d": 190.8395833333343,
      "v": 112
    },
    {
      "midi": 63,
      "hit": false,
      "t": 125038.09500000038,
      "d": 190.8395833333343,
      "v": 82
    },
    {
      "midi": 68,
      "hit": false,
      "t": 125038.09500000038,
      "d": 190.8395833333343,
      "v": 112
    },
    {
      "midi": 44,
      "hit": false,
      "t": 125038.09500000055,
      "d": 57.251875000001746,
      "v": 90
    },
    {
      "midi": 61,
      "hit": false,
      "t": 125267.10250000015,
      "d": 229.00750000000698,
      "v": 82
    },
    {
      "midi": 65,
      "hit": false,
      "t": 125267.10250000015,
      "d": 229.00750000000698,
      "v": 112
    },
    {
      "midi": 63,
      "hit": false,
      "t": 125267.10250000039,
      "d": 190.8395833333343,
      "v": 82
    },
    {
      "midi": 68,
      "hit": false,
      "t": 125267.10250000039,
      "d": 190.8395833333343,
      "v": 112
    },
    {
      "midi": 44,
      "hit": false,
      "t": 125267.10250000056,
      "d": 229.00750000000698,
      "v": 90
    },
    {
      "midi": 51,
      "hit": false,
      "t": 125267.10250000056,
      "d": 229.00750000000698,
      "v": 90
    },
    {
      "midi": 38,
      "hit": false,
      "t": 125491.3390104166,
      "d": 9.541979166679084,
      "v": 96
    },
    {
      "midi": 42,
      "hit": false,
      "t": 125496.10999999994,
      "d": 9.541979166679084,
      "v": 125
    },
    {
      "midi": 58,
      "hit": false,
      "t": 125496.11000000016,
      "d": 229.00749999999243,
      "v": 82
    },
    {
      "midi": 61,
      "hit": false,
      "t": 125496.1100000004,
      "d": 229.00750000000698,
      "v": 82
    },
    {
      "midi": 65,
      "hit": false,
      "t": 125496.1100000004,
      "d": 229.00750000000698,
      "v": 112
    },
    {
      "midi": 44,
      "hit": false,
      "t": 125496.11000000057,
      "d": 57.251875000001746,
      "v": 90
    },
    {
      "midi": 61,
      "hit": false,
      "t": 125524.73593750015,
      "d": 200.38156249999884,
      "v": 112
    },
    {
      "midi": 36,
      "hit": false,
      "t": 125725.11749999995,
      "d": 9.541979166664532,
      "v": 108
    },
    {
      "midi": 56,
      "hit": false,
      "t": 125725.11750000015,
      "d": 229.00750000000698,
      "v": 112
    },
    {
      "midi": 58,
      "hit": false,
      "t": 125725.1175000004,
      "d": 229.00749999999243,
      "v": 82
    },
    {
      "midi": 44,
      "hit": false,
      "t": 125725.11750000058,
      "d": 57.251875000001746,
      "v": 90
    },
    {
      "midi": 61,
      "hit": false,
      "t": 125753.7434375004,
      "d": 200.38156249999884,
      "v": 112
    },
    {
      "midi": 38,
      "hit": false,
      "t": 125949.35401041662,
      "d": 9.541979166679084,
      "v": 96
    },
    {
      "midi": 42,
      "hit": false,
      "t": 125954.12499999996,
      "d": 9.541979166679084,
      "v": 125
    },
    {
      "midi": 62,
      "hit": false,
      "t": 125954.12500000012,
      "d": 229.00750000000698,
      "v": 105
    },
    {
      "midi": 74,
      "hit": false,
      "t": 125954.12500000012,
      "d": 229.00750000000698,
      "v": 105
    },
    {
      "midi": 58,
      "hit": false,
      "t": 125954.12500000016,
      "d": 229.00749999999243,
      "v": 82
    },
    {
      "midi": 56,
      "hit": false,
      "t": 125954.1250000004,
      "d": 229.00750000000698,
      "v": 112
    },
    {
      "midi": 44,
      "hit": false,
      "t": 125954.12500000058,
      "d": 229.00750000000698,
      "v": 90
    },
    {
      "midi": 51,
      "hit": false,
      "t": 125954.12500000058,
      "d": 229.00750000000698,
      "v": 90
    },
    {
      "midi": 61,
      "hit": false,
      "t": 125982.75093750015,
      "d": 200.38156249999884,
      "v": 112
    },
    {
      "midi": 36,
      "hit": false,
      "t": 126183.13249999996,
      "d": 9.541979166664532,
      "v": 108
    },
    {
      "midi": 63,
      "hit": false,
      "t": 126183.13250000012,
      "d": 229.00750000000698,
      "v": 105
    },
    {
      "midi": 75,
      "hit": false,
      "t": 126183.13250000012,
      "d": 229.00750000000698,
      "v": 105
    },
    {
      "midi": 56,
      "hit": false,
      "t": 126183.13250000015,
      "d": 229.00750000000698,
      "v": 112
    },
    {
      "midi": 58,
      "hit": false,
      "t": 126183.1325000004,
      "d": 229.00749999999243,
      "v": 82
    },
    {
      "midi": 44,
      "hit": false,
      "t": 126183.13250000059,
      "d": 114.50375000000349,
      "v": 84
    },
    {
      "midi": 51,
      "hit": false,
      "t": 126183.13250000059,
      "d": 114.50375000000349,
      "v": 84
    },
    {
      "midi": 61,
      "hit": false,
      "t": 126211.7584375004,
      "d": 200.38156249999884,
      "v": 112
    },
    {
      "midi": 44,
      "hit": false,
      "t": 126297.63625000059,
      "d": 114.50375000000349,
      "v": 84
    },
    {
      "midi": 51,
      "hit": false,
      "t": 126297.63625000059,
      "d": 114.50375000000349,
      "v": 84
    },
    {
      "midi": 38,
      "hit": false,
      "t": 126407.36901041663,
      "d": 9.541979166679084,
      "v": 96
    },
    {
      "midi": 74,
      "hit": false,
      "t": 126412.13999999993,
      "d": 1832.0599999999977,
      "v": 60
    },
    {
      "midi": 70,
      "hit": false,
      "t": 126412.13999999993,
      "d": 1832.0599999999977,
      "v": 60
    },
    {
      "midi": 77,
      "hit": false,
      "t": 126412.13999999993,
      "d": 1832.0599999999977,
      "v": 60
    },
    {
      "midi": 49,
      "hit": false,
      "t": 126412.13999999997,
      "d": 9.541979166679084,
      "v": 100
    },
    {
      "midi": 36,
      "hit": false,
      "t": 126412.13999999997,
      "d": 9.541979166679084,
      "v": 108
    },
    {
      "midi": 65,
      "hit": false,
      "t": 126412.14000000013,
      "d": 1832.0599999999977,
      "v": 105
    },
    {
      "midi": 70,
      "hit": false,
      "t": 126412.14000000013,
      "d": 1832.0599999999977,
      "v": 105
    },
    {
      "midi": 74,
      "hit": false,
      "t": 126412.14000000013,
      "d": 1832.0599999999977,
      "v": 105
    },
    {
      "midi": 77,
      "hit": false,
      "t": 126412.14000000013,
      "d": 1832.0599999999977,
      "v": 105
    },
    {
      "midi": 74,
      "hit": false,
      "t": 126412.14000000016,
      "d": 1832.0599999999977,
      "v": 45
    },
    {
      "midi": 70,
      "hit": false,
      "t": 126412.14000000016,
      "d": 1832.0599999999977,
      "v": 45
    },
    {
      "midi": 77,
      "hit": false,
      "t": 126412.14000000016,
      "d": 1832.0599999999977,
      "v": 45
    },
    {
      "midi": 58,
      "hit": false,
      "t": 126412.14000000016,
      "d": 229.00750000000698,
      "v": 112
    },
    {
      "midi": 56,
      "hit": false,
      "t": 126412.14000000039,
      "d": 229.00750000000698,
      "v": 112
    },
    {
      "midi": 46,
      "hit": false,
      "t": 126412.1400000006,
      "d": 229.00750000000698,
      "v": 90
    },
    {
      "midi": 53,
      "hit": false,
      "t": 126412.1400000006,
      "d": 229.00750000000698,
      "v": 90
    },
    {
      "midi": 36,
      "hit": false,
      "t": 126641.14749999998,
      "d": 9.541979166664532,
      "v": 108
    },
    {
      "midi": 70,
      "hit": false,
      "t": 126641.14750000017,
      "d": 458.0149999999994,
      "v": 112
    },
    {
      "midi": 65,
      "hit": false,
      "t": 126641.14750000017,
      "d": 458.0149999999994,
      "v": 97
    },
    {
      "midi": 58,
      "hit": false,
      "t": 126641.1475000004,
      "d": 229.00750000000698,
      "v": 112
    },
    {
      "midi": 46,
      "hit": false,
      "t": 126641.1475000006,
      "d": 57.251875000001746,
      "v": 90
    },
    {
      "midi": 38,
      "hit": false,
      "t": 126865.38401041664,
      "d": 9.541979166679084,
      "v": 96
    },
    {
      "midi": 42,
      "hit": false,
      "t": 126870.15499999998,
      "d": 9.541979166679084,
      "v": 125
    },
    {
      "midi": 70,
      "hit": false,
      "t": 126870.1550000004,
      "d": 458.0149999999994,
      "v": 112
    },
    {
      "midi": 65,
      "hit": false,
      "t": 126870.1550000004,
      "d": 458.0149999999994,
      "v": 97
    },
    {
      "midi": 46,
      "hit": false,
      "t": 126870.15500000061,
      "d": 57.251875000001746,
      "v": 90
    },
    {
      "midi": 67,
      "hit": false,
      "t": 127099.16250000017,
      "d": 229.00750000000698,
      "v": 112
    },
    {
      "midi": 63,
      "hit": false,
      "t": 127099.16250000017,
      "d": 229.00750000000698,
      "v": 97
    },
    {
      "midi": 46,
      "hit": false,
      "t": 127099.16250000062,
      "d": 229.00750000000698,
      "v": 90
    },
    {
      "midi": 53,
      "hit": false,
      "t": 127099.16250000062,
      "d": 229.00750000000698,
      "v": 90
    },
    {
      "midi": 38,
      "hit": false,
      "t": 127323.39901041666,
      "d": 9.541979166679084,
      "v": 96
    },
    {
      "midi": 42,
      "hit": false,
      "t": 127328.17,
      "d": 9.541979166679084,
      "v": 125
    },
    {
      "midi": 65,
      "hit": false,
      "t": 127328.17000000017,
      "d": 229.00750000000698,
      "v": 112
    },
    {
      "midi": 62,
      "hit": false,
      "t": 127328.17000000017,
      "d": 229.00750000000698,
      "v": 97
    },
    {
      "midi": 67,
      "hit": false,
      "t": 127328.1700000004,
      "d": 229.00750000000698,
      "v": 112
    },
    {
      "midi": 63,
      "hit": false,
      "t": 127328.1700000004,
      "d": 229.00750000000698,
      "v": 97
    },
    {
      "midi": 46,
      "hit": false,
      "t": 127328.17000000062,
      "d": 57.251875000001746,
      "v": 90
    },
    {
      "midi": 36,
      "hit": false,
      "t": 127557.1775,
      "d": 9.541979166664532,
      "v": 108
    },
    {
      "midi": 58,
      "hit": false,
      "t": 127557.17750000018,
      "d": 229.00750000000698,
      "v": 97
    },
    {
      "midi": 65,
      "hit": false,
      "t": 127557.17750000041,
      "d": 229.00750000000698,
      "v": 112
    },
    {
      "midi": 62,
      "hit": false,
      "t": 127557.17750000041,
      "d": 229.00750000000698,
      "v": 97
    },
    {
      "midi": 46,
      "hit": false,
      "t": 127557.17750000063,
      "d": 57.251875000001746,
      "v": 90
    },
    {
      "midi": 38,
      "hit": false,
      "t": 127781.41401041667,
      "d": 9.541979166679084,
      "v": 96
    },
    {
      "midi": 42,
      "hit": false,
      "t": 127786.18500000001,
      "d": 9.541979166679084,
      "v": 125
    },
    {
      "midi": 62,
      "hit": false,
      "t": 127786.18500000019,
      "d": 458.0149999999994,
      "v": 112
    },
    {
      "midi": 58,
      "hit": false,
      "t": 127786.18500000042,
      "d": 229.00750000000698,
      "v": 97
    },
    {
      "midi": 46,
      "hit": false,
      "t": 127786.18500000064,
      "d": 229.00750000000698,
      "v": 90
    },
    {
      "midi": 53,
      "hit": false,
      "t": 127786.18500000064,
      "d": 229.00750000000698,
      "v": 90
    },
    {
      "midi": 36,
      "hit": false,
      "t": 128015.19250000002,
      "d": 9.541979166664532,
      "v": 108
    },
    {
      "midi": 62,
      "hit": false,
      "t": 128015.19250000043,
      "d": 458.0149999999994,
      "v": 112
    },
    {
      "midi": 46,
      "hit": false,
      "t": 128015.19250000064,
      "d": 114.50375000000349,
      "v": 84
    },
    {
      "midi": 53,
      "hit": false,
      "t": 128015.19250000064,
      "d": 114.50375000000349,
      "v": 84
    },
    {
      "midi": 46,
      "hit": false,
      "t": 128129.69625000065,
      "d": 114.50375000000349,
      "v": 84
    },
    {
      "midi": 53,
      "hit": false,
      "t": 128129.69625000065,
      "d": 114.50375000000349,
      "v": 84
    },
    {
      "midi": 38,
      "hit": false,
      "t": 128239.42901041669,
      "d": 9.541979166679084,
      "v": 96
    },
    {
      "midi": 72,
      "hit": false,
      "t": 128244.19999999992,
      "d": 3664.1199999999662,
      "v": 60
    },
    {
      "midi": 74,
      "hit": false,
      "t": 128244.19999999992,
      "d": 3664.1199999999662,
      "v": 60
    },
    {
      "midi": 79,
      "hit": false,
      "t": 128244.19999999992,
      "d": 3664.1199999999662,
      "v": 60
    },
    {
      "midi": 49,
      "hit": false,
      "t": 128244.20000000003,
      "d": 9.541979166679084,
      "v": 100
    },
    {
      "midi": 36,
      "hit": false,
      "t": 128244.20000000003,
      "d": 9.541979166679084,
      "v": 108
    },
    {
      "midi": 60,
      "hit": false,
      "t": 128244.20000000013,
      "d": 438.93104166667035,
      "v": 105
    },
    {
      "midi": 67,
      "hit": false,
      "t": 128244.20000000013,
      "d": 1793.8920833333686,
      "v": 105
    },
    {
      "midi": 65,
      "hit": false,
      "t": 128244.20000000013,
      "d": 1793.8920833333686,
      "v": 105
    },
    {
      "midi": 72,
      "hit": false,
      "t": 128244.20000000016,
      "d": 3664.1199999999662,
      "v": 45
    },
    {
      "midi": 74,
      "hit": false,
      "t": 128244.20000000016,
      "d": 3664.1199999999662,
      "v": 45
    },
    {
      "midi": 79,
      "hit": false,
      "t": 128244.20000000016,
      "d": 3664.1199999999662,
      "v": 45
    },
    {
      "midi": 60,
      "hit": false,
      "t": 128244.20000000019,
      "d": 3664.1199999999953,
      "v": 112
    },
    {
      "midi": 48,
      "hit": false,
      "t": 128244.20000000065,
      "d": 3664.1199999999953,
      "v": 90
    },
    {
      "midi": 55,
      "hit": false,
      "t": 128244.20000000065,
      "d": 3664.1199999999953,
      "v": 90
    },
    {
      "midi": 36,
      "hit": false,
      "t": 128473.20750000003,
      "d": 9.541979166664532,
      "v": 108
    },
    {
      "midi": 60,
      "hit": false,
      "t": 128473.20750000043,
      "d": 3664.1199999999953,
      "v": 112
    },
    {
      "midi": 38,
      "hit": false,
      "t": 128697.4440104167,
      "d": 9.541979166679084,
      "v": 96
    },
    {
      "midi": 60,
      "hit": false,
      "t": 128697.44401041718,
      "d": 458.0149999999994,
      "v": 97
    },
    {
      "midi": 42,
      "hit": false,
      "t": 128702.21500000004,
      "d": 9.541979166679084,
      "v": 125
    },
    {
      "midi": 72,
      "hit": false,
      "t": 128702.21500000013,
      "d": 229.00750000000698,
      "v": 120
    },
    {
      "midi": 60,
      "hit": false,
      "t": 128702.21500000013,
      "d": 458.01500000001397,
      "v": 120
    },
    {
      "midi": 48,
      "hit": false,
      "t": 128702.21500000013,
      "d": 458.01500000001397,
      "v": 120
    },
    {
      "midi": 60,
      "hit": false,
      "t": 128702.21500000091,
      "d": 458.0149999999994,
      "v": 97
    },
    {
      "midi": 60,
      "hit": false,
      "t": 128706.9859895834,
      "d": 458.0149999999994,
      "v": 97
    },
    {
      "midi": 84,
      "hit": false,
      "t": 128931.22250000013,
      "d": 229.00750000000698,
      "v": 120
    },
    {
      "midi": 38,
      "hit": false,
      "t": 129155.45901041671,
      "d": 9.541979166679084,
      "v": 96
    },
    {
      "midi": 59,
      "hit": false,
      "t": 129155.45901041718,
      "d": 458.0149999999994,
      "v": 97
    },
    {
      "midi": 42,
      "hit": false,
      "t": 129160.23000000005,
      "d": 9.541979166679084,
      "v": 125
    },
    {
      "midi": 71,
      "hit": false,
      "t": 129160.23000000014,
      "d": 229.00750000000698,
      "v": 120
    },
    {
      "midi": 59,
      "hit": false,
      "t": 129160.23000000014,
      "d": 458.01500000001397,
      "v": 120
    },
    {
      "midi": 47,
      "hit": false,
      "t": 129160.23000000014,
      "d": 458.01500000001397,
      "v": 120
    },
    {
      "midi": 59,
      "hit": false,
      "t": 129160.23000000091,
      "d": 458.0149999999994,
      "v": 97
    },
    {
      "midi": 59,
      "hit": false,
      "t": 129165.0009895834,
      "d": 458.0149999999994,
      "v": 97
    },
    {
      "midi": 36,
      "hit": false,
      "t": 129389.23750000006,
      "d": 9.541979166664532,
      "v": 108
    },
    {
      "midi": 83,
      "hit": false,
      "t": 129389.23750000015,
      "d": 229.00750000000698,
      "v": 120
    },
    {
      "midi": 38,
      "hit": false,
      "t": 129613.47401041673,
      "d": 9.541979166679084,
      "v": 96
    },
    {
      "midi": 57,
      "hit": false,
      "t": 129613.47401041718,
      "d": 458.0149999999994,
      "v": 92
    },
    {
      "midi": 42,
      "hit": false,
      "t": 129618.24500000007,
      "d": 9.541979166679084,
      "v": 125
    },
    {
      "midi": 69,
      "hit": false,
      "t": 129618.24500000016,
      "d": 229.00750000000698,
      "v": 120
    },
    {
      "midi": 57,
      "hit": false,
      "t": 129618.24500000016,
      "d": 458.01500000001397,
      "v": 120
    },
    {
      "midi": 45,
      "hit": false,
      "t": 129618.24500000016,
      "d": 458.01500000001397,
      "v": 120
    },
    {
      "midi": 57,
      "hit": false,
      "t": 129618.24500000091,
      "d": 458.0149999999994,
      "v": 92
    },
    {
      "midi": 57,
      "hit": false,
      "t": 129623.0159895834,
      "d": 458.0149999999994,
      "v": 92
    },
    {
      "midi": 36,
      "hit": false,
      "t": 129847.25250000008,
      "d": 9.541979166664532,
      "v": 108
    },
    {
      "midi": 81,
      "hit": false,
      "t": 129847.25250000016,
      "d": 229.00750000000698,
      "v": 120
    },
    {
      "midi": 38,
      "hit": false,
      "t": 130071.48901041674,
      "d": 9.541979166679084,
      "v": 96
    },
    {
      "midi": 55,
      "hit": false,
      "t": 130071.48901041718,
      "d": 229.00750000000698,
      "v": 85
    },
    {
      "midi": 49,
      "hit": false,
      "t": 130076.26000000008,
      "d": 9.541979166679084,
      "v": 100
    },
    {
      "midi": 36,
      "hit": false,
      "t": 130076.26000000008,
      "d": 9.541979166679084,
      "v": 108
    },
    {
      "midi": 67,
      "hit": false,
      "t": 130076.26000000017,
      "d": 229.00750000000698,
      "v": 120
    },
    {
      "midi": 55,
      "hit": false,
      "t": 130076.26000000017,
      "d": 458.01500000001397,
      "v": 120
    },
    {
      "midi": 43,
      "hit": false,
      "t": 130076.26000000017,
      "d": 458.01500000001397,
      "v": 120
    },
    {
      "midi": 55,
      "hit": false,
      "t": 130076.26000000091,
      "d": 229.00750000000698,
      "v": 85
    },
    {
      "midi": 55,
      "hit": false,
      "t": 130081.03098958339,
      "d": 229.00750000000698,
      "v": 85
    },
    {
      "midi": 55,
      "hit": false,
      "t": 130300.49651041719,
      "d": 229.00750000000698,
      "v": 83
    },
    {
      "midi": 36,
      "hit": false,
      "t": 130305.26750000009,
      "d": 9.541979166664532,
      "v": 108
    },
    {
      "midi": 79,
      "hit": false,
      "t": 130305.26750000018,
      "d": 229.00750000000698,
      "v": 120
    },
    {
      "midi": 55,
      "hit": false,
      "t": 130305.26750000092,
      "d": 229.00750000000698,
      "v": 75
    },
    {
      "midi": 55,
      "hit": false,
      "t": 130310.0384895834,
      "d": 229.00750000000698,
      "v": 75
    },
    {
      "midi": 38,
      "hit": false,
      "t": 130529.50401041676,
      "d": 9.541979166679084,
      "v": 96
    },
    {
      "midi": 53,
      "hit": false,
      "t": 130529.5040104172,
      "d": 229.00750000000698,
      "v": 88
    },
    {
      "midi": 42,
      "hit": false,
      "t": 130534.2750000001,
      "d": 9.541979166679084,
      "v": 125
    },
    {
      "midi": 65,
      "hit": false,
      "t": 130534.27500000018,
      "d": 229.00750000000698,
      "v": 120
    },
    {
      "midi": 53,
      "hit": false,
      "t": 130534.27500000018,
      "d": 458.01500000001397,
      "v": 120
    },
    {
      "midi": 41,
      "hit": false,
      "t": 130534.27500000018,
      "d": 458.01500000001397,
      "v": 120
    },
    {
      "midi": 53,
      "hit": false,
      "t": 130534.27500000093,
      "d": 229.00750000000698,
      "v": 80
    },
    {
      "midi": 53,
      "hit": false,
      "t": 130539.0459895834,
      "d": 229.00750000000698,
      "v": 80
    },
    {
      "midi": 55,
      "hit": false,
      "t": 130758.5115104172,
      "d": 229.00750000000698,
      "v": 77
    },
    {
      "midi": 77,
      "hit": false,
      "t": 130763.28250000019,
      "d": 229.00750000000698,
      "v": 120
    },
    {
      "midi": 55,
      "hit": false,
      "t": 130763.28250000093,
      "d": 229.00750000000698,
      "v": 70
    },
    {
      "midi": 55,
      "hit": false,
      "t": 130768.05348958341,
      "d": 229.00750000000698,
      "v": 70
    },
    {
      "midi": 52,
      "hit": false,
      "t": 130987.5190104172,
      "d": 229.00749999999243,
      "v": 88
    },
    {
      "midi": 42,
      "hit": false,
      "t": 130992.29000000011,
      "d": 9.541979166664532,
      "v": 125
    },
    {
      "midi": 43,
      "hit": false,
      "t": 130992.29000000011,
      "d": 9.541979166664532,
      "v": 120
    },
    {
      "midi": 64,
      "hit": false,
      "t": 130992.2900000002,
      "d": 229.00749999999243,
      "v": 120
    },
    {
      "midi": 52,
      "hit": false,
      "t": 130992.2900000002,
      "d": 458.0149999999994,
      "v": 120
    },
    {
      "midi": 40,
      "hit": false,
      "t": 130992.2900000002,
      "d": 458.0149999999994,
      "v": 120
    },
    {
      "midi": 52,
      "hit": false,
      "t": 130992.29000000094,
      "d": 229.00750000000698,
      "v": 80
    },
    {
      "midi": 52,
      "hit": false,
      "t": 130997.06098958342,
      "d": 229.00749999999243,
      "v": 80
    },
    {
      "midi": 55,
      "hit": false,
      "t": 131216.5265104172,
      "d": 229.00750000000698,
      "v": 77
    },
    {
      "midi": 76,
      "hit": false,
      "t": 131221.2975000002,
      "d": 229.00750000000698,
      "v": 120
    },
    {
      "midi": 55,
      "hit": false,
      "t": 131221.29750000095,
      "d": 229.00750000000698,
      "v": 70
    },
    {
      "midi": 55,
      "hit": false,
      "t": 131226.0684895834,
      "d": 229.00750000000698,
      "v": 70
    },
    {
      "midi": 43,
      "hit": false,
      "t": 131335.8012500001,
      "d": 9.541979166679084,
      "v": 120
    },
    {
      "midi": 38,
      "hit": false,
      "t": 131445.5340104168,
      "d": 9.541979166679084,
      "v": 96
    },
    {
      "midi": 50,
      "hit": false,
      "t": 131445.5340104172,
      "d": 229.00750000000698,
      "v": 83
    },
    {
      "midi": 62,
      "hit": false,
      "t": 131450.3050000002,
      "d": 229.00750000000698,
      "v": 120
    },
    {
      "midi": 50,
      "hit": false,
      "t": 131450.3050000002,
      "d": 458.01500000001397,
      "v": 120
    },
    {
      "midi": 38,
      "hit": false,
      "t": 131450.3050000002,
      "d": 458.01500000001397,
      "v": 120
    },
    {
      "midi": 50,
      "hit": false,
      "t": 131450.30500000095,
      "d": 229.00750000000698,
      "v": 75
    },
    {
      "midi": 50,
      "hit": false,
      "t": 131455.07598958342,
      "d": 229.00750000000698,
      "v": 75
    },
    {
      "midi": 55,
      "hit": false,
      "t": 131674.5415104172,
      "d": 229.00750000000698,
      "v": 77
    },
    {
      "midi": 43,
      "hit": false,
      "t": 131679.31250000015,
      "d": 9.541979166679084,
      "v": 120
    },
    {
      "midi": 74,
      "hit": false,
      "t": 131679.3125000002,
      "d": 229.00750000000698,
      "v": 120
    },
    {
      "midi": 55,
      "hit": false,
      "t": 131679.31250000096,
      "d": 229.00750000000698,
      "v": 70
    },
    {
      "midi": 55,
      "hit": false,
      "t": 131684.08348958343,
      "d": 229.00750000000698,
      "v": 70
    },
    {
      "midi": 36,
      "hit": false,
      "t": 131908.32000000015,
      "d": 9.541979166679084,
      "v": 108
    },
    {
      "midi": 49,
      "hit": false,
      "t": 131908.32000000015,
      "d": 9.541979166679084,
      "v": 100
    },
    {
      "midi": 70,
      "hit": false,
      "t": 131908.32000000015,
      "d": 9.541979166679084,
      "v": 75
    },
    {
      "midi": 72,
      "hit": false,
      "t": 131908.3200000002,
      "d": 1832.0599999999977,
      "v": 100
    },
    {
      "midi": 75,
      "hit": false,
      "t": 131908.3200000002,
      "d": 1832.0599999999977,
      "v": 100
    },
    {
      "midi": 68,
      "hit": false,
      "t": 131908.3200000002,
      "d": 1832.0599999999977,
      "v": 100
    },
    {
      "midi": 65,
      "hit": false,
      "t": 131908.3200000002,
      "d": 1832.0599999999977,
      "v": 100
    },
    {
      "midi": 41,
      "hit": false,
      "t": 131908.32000000065,
      "d": 57.251874999987194,
      "v": 82
    },
    {
      "midi": 70,
      "hit": false,
      "t": 132022.82375000016,
      "d": 9.541979166679084,
      "v": 45
    },
    {
      "midi": 70,
      "hit": false,
      "t": 132137.32750000016,
      "d": 9.541979166679084,
      "v": 55
    },
    {
      "midi": 41,
      "hit": false,
      "t": 132137.32750000063,
      "d": 57.251874999987194,
      "v": 82
    },
    {
      "midi": 70,
      "hit": false,
      "t": 132251.83125000016,
      "d": 9.541979166679084,
      "v": 45
    },
    {
      "midi": 38,
      "hit": false,
      "t": 132361.56401041686,
      "d": 9.541979166679084,
      "v": 96
    },
    {
      "midi": 70,
      "hit": false,
      "t": 132366.3350000002,
      "d": 9.541979166679084,
      "v": 75
    },
    {
      "midi": 42,
      "hit": false,
      "t": 132366.3350000002,
      "d": 9.541979166679084,
      "v": 125
    },
    {
      "midi": 48,
      "hit": false,
      "t": 132366.3350000006,
      "d": 229.00750000000698,
      "v": 87
    },
    {
      "midi": 53,
      "hit": false,
      "t": 132366.3350000006,
      "d": 229.00750000000698,
      "v": 87
    },
    {
      "midi": 70,
      "hit": false,
      "t": 132480.8387500002,
      "d": 9.541979166679084,
      "v": 45
    },
    {
      "midi": 70,
      "hit": false,
      "t": 132595.3425000002,
      "d": 9.541979166679084,
      "v": 55
    },
    {
      "midi": 72,
      "hit": false,
      "t": 132595.34250000044,
      "d": 458.01500000001397,
      "v": 84
    },
    {
      "midi": 41,
      "hit": false,
      "t": 132595.3425000006,
      "d": 57.251874999987194,
      "v": 82
    },
    {
      "midi": 70,
      "hit": false,
      "t": 132709.8462500002,
      "d": 9.541979166679084,
      "v": 45
    },
    {
      "midi": 36,
      "hit": false,
      "t": 132824.3500000002,
      "d": 9.541979166679084,
      "v": 108
    },
    {
      "midi": 42,
      "hit": false,
      "t": 132824.3500000002,
      "d": 9.541979166679084,
      "v": 125
    },
    {
      "midi": 70,
      "hit": false,
      "t": 132824.3500000002,
      "d": 9.541979166679084,
      "v": 75
    },
    {
      "midi": 41,
      "hit": false,
      "t": 132824.3500000006,
      "d": 57.251874999987194,
      "v": 82
    },
    {
      "midi": 70,
      "hit": false,
      "t": 132938.8537500002,
      "d": 9.541979166679084,
      "v": 45
    },
    {
      "midi": 70,
      "hit": false,
      "t": 133053.35750000022,
      "d": 9.541979166679084,
      "v": 55
    },
    {
      "midi": 72,
      "hit": false,
      "t": 133053.35750000045,
      "d": 171.7556249999907,
      "v": 84
    },
    {
      "midi": 48,
      "hit": false,
      "t": 133053.35750000057,
      "d": 229.00750000000698,
      "v": 87
    },
    {
      "midi": 53,
      "hit": false,
      "t": 133053.35750000057,
      "d": 229.00750000000698,
      "v": 87
    },
    {
      "midi": 70,
      "hit": false,
      "t": 133167.86125000022,
      "d": 9.541979166679084,
      "v": 45
    },
    {
      "midi": 38,
      "hit": false,
      "t": 133277.5940104169,
      "d": 9.541979166679084,
      "v": 96
    },
    {
      "midi": 70,
      "hit": false,
      "t": 133282.36500000025,
      "d": 9.541979166679084,
      "v": 75
    },
    {
      "midi": 42,
      "hit": false,
      "t": 133282.36500000025,
      "d": 9.541979166679084,
      "v": 125
    },
    {
      "midi": 72,
      "hit": false,
      "t": 133282.36500000043,
      "d": 190.83958333331975,
      "v": 84
    },
    {
      "midi": 41,
      "hit": false,
      "t": 133282.36500000057,
      "d": 57.251874999987194,
      "v": 82
    },
    {
      "midi": 70,
      "hit": false,
      "t": 133396.86875000026,
      "d": 9.541979166679084,
      "v": 45
    },
    {
      "midi": 70,
      "hit": false,
      "t": 133511.37250000026,
      "d": 9.541979166679084,
      "v": 55
    },
    {
      "midi": 72,
      "hit": false,
      "t": 133511.3725000004,
      "d": 181.29760416666977,
      "v": 84
    },
    {
      "midi": 41,
      "hit": false,
      "t": 133511.37250000055,
      "d": 57.251874999987194,
      "v": 82
    },
    {
      "midi": 70,
      "hit": false,
      "t": 133625.87625000026,
      "d": 9.541979166679084,
      "v": 45
    },
    {
      "midi": 74,
      "hit": false,
      "t": 133740.3800000002,
      "d": 1832.0599999999977,
      "v": 100
    },
    {
      "midi": 70,
      "hit": false,
      "t": 133740.3800000002,
      "d": 1832.0599999999977,
      "v": 100
    },
    {
      "midi": 68,
      "hit": false,
      "t": 133740.3800000002,
      "d": 1832.0599999999977,
      "v": 100
    },
    {
      "midi": 65,
      "hit": false,
      "t": 133740.3800000002,
      "d": 1832.0599999999977,
      "v": 100
    },
    {
      "midi": 36,
      "hit": false,
      "t": 133740.38000000027,
      "d": 9.541979166679084,
      "v": 108
    },
    {
      "midi": 42,
      "hit": false,
      "t": 133740.38000000027,
      "d": 9.541979166679084,
      "v": 125
    },
    {
      "midi": 70,
      "hit": false,
      "t": 133740.38000000027,
      "d": 9.541979166679084,
      "v": 75
    },
    {
      "midi": 72,
      "hit": false,
      "t": 133740.3800000004,
      "d": 458.01500000001397,
      "v": 84
    },
    {
      "midi": 46,
      "hit": false,
      "t": 133740.38000000053,
      "d": 57.251874999987194,
      "v": 82
    },
    {
      "midi": 70,
      "hit": false,
      "t": 133854.88375000027,
      "d": 9.541979166679084,
      "v": 45
    },
    {
      "midi": 70,
      "hit": false,
      "t": 133969.38750000027,
      "d": 9.541979166679084,
      "v": 55
    },
    {
      "midi": 46,
      "hit": false,
      "t": 133969.3875000005,
      "d": 57.251874999987194,
      "v": 82
    },
    {
      "midi": 70,
      "hit": false,
      "t": 134083.89125000028,
      "d": 9.541979166679084,
      "v": 45
    },
    {
      "midi": 38,
      "hit": false,
      "t": 134193.62401041697,
      "d": 9.541979166679084,
      "v": 96
    },
    {
      "midi": 70,
      "hit": false,
      "t": 134198.3950000003,
      "d": 9.541979166679084,
      "v": 75
    },
    {
      "midi": 42,
      "hit": false,
      "t": 134198.3950000003,
      "d": 9.541979166679084,
      "v": 125
    },
    {
      "midi": 70,
      "hit": false,
      "t": 134198.39500000043,
      "d": 200.38156249999884,
      "v": 84
    },
    {
      "midi": 53,
      "hit": false,
      "t": 134198.39500000048,
      "d": 229.00750000000698,
      "v": 87
    },
    {
      "midi": 58,
      "hit": false,
      "t": 134198.39500000048,
      "d": 229.00750000000698,
      "v": 87
    },
    {
      "midi": 70,
      "hit": false,
      "t": 134312.8987500003,
      "d": 9.541979166679084,
      "v": 45
    },
    {
      "midi": 70,
      "hit": false,
      "t": 134427.40250000032,
      "d": 9.541979166679084,
      "v": 55
    },
    {
      "midi": 68,
      "hit": false,
      "t": 134427.40250000043,
      "d": 458.01500000001397,
      "v": 84
    },
    {
      "midi": 46,
      "hit": false,
      "t": 134427.4025000005,
      "d": 57.251874999987194,
      "v": 82
    },
    {
      "midi": 70,
      "hit": false,
      "t": 134541.90625000032,
      "d": 9.541979166679084,
      "v": 45
    },
    {
      "midi": 36,
      "hit": false,
      "t": 134656.41000000032,
      "d": 9.541979166679084,
      "v": 108
    },
    {
      "midi": 42,
      "hit": false,
      "t": 134656.41000000032,
      "d": 9.541979166679084,
      "v": 125
    },
    {
      "midi": 70,
      "hit": false,
      "t": 134656.41000000032,
      "d": 9.541979166679084,
      "v": 75
    },
    {
      "midi": 46,
      "hit": false,
      "t": 134656.41000000047,
      "d": 57.251874999987194,
      "v": 82
    },
    {
      "midi": 70,
      "hit": false,
      "t": 134770.91375000033,
      "d": 9.541979166679084,
      "v": 45
    },
    {
      "midi": 70,
      "hit": false,
      "t": 134885.41750000033,
      "d": 9.541979166679084,
      "v": 55
    },
    {
      "midi": 53,
      "hit": false,
      "t": 134885.41750000045,
      "d": 229.00750000000698,
      "v": 87
    },
    {
      "midi": 58,
      "hit": false,
      "t": 134885.41750000045,
      "d": 229.00750000000698,
      "v": 87
    },
    {
      "midi": 70,
      "hit": false,
      "t": 134885.41750000045,
      "d": 229.00750000000698,
      "v": 84
    },
    {
      "midi": 70,
      "hit": false,
      "t": 134999.92125000033,
      "d": 9.541979166679084,
      "v": 45
    },
    {
      "midi": 38,
      "hit": false,
      "t": 135109.65401041703,
      "d": 9.541979166679084,
      "v": 96
    },
    {
      "midi": 70,
      "hit": false,
      "t": 135114.42500000037,
      "d": 9.541979166679084,
      "v": 75
    },
    {
      "midi": 42,
      "hit": false,
      "t": 135114.42500000037,
      "d": 9.541979166679084,
      "v": 125
    },
    {
      "midi": 46,
      "hit": false,
      "t": 135114.42500000045,
      "d": 57.251874999987194,
      "v": 82
    },
    {
      "midi": 72,
      "hit": false,
      "t": 135114.42500000045,
      "d": 458.01500000001397,
      "v": 84
    },
    {
      "midi": 70,
      "hit": false,
      "t": 135228.92875000037,
      "d": 9.541979166679084,
      "v": 45
    },
    {
      "midi": 70,
      "hit": false,
      "t": 135343.43250000037,
      "d": 9.541979166679084,
      "v": 55
    },
    {
      "midi": 46,
      "hit": false,
      "t": 135343.43250000043,
      "d": 57.251874999987194,
      "v": 82
    },
    {
      "midi": 70,
      "hit": false,
      "t": 135457.93625000038,
      "d": 9.541979166679084,
      "v": 45
    },
    {
      "midi": 70,
      "hit": false,
      "t": 135572.4400000002,
      "d": 1832.0599999999977,
      "v": 100
    },
    {
      "midi": 65,
      "hit": false,
      "t": 135572.4400000002,
      "d": 1832.0599999999977,
      "v": 100
    },
    {
      "midi": 67,
      "hit": false,
      "t": 135572.4400000002,
      "d": 1832.0599999999977,
      "v": 100
    },
    {
      "midi": 62,
      "hit": false,
      "t": 135572.4400000002,
      "d": 1832.0599999999977,
      "v": 100
    },
    {
      "midi": 36,
      "hit": false,
      "t": 135572.44000000038,
      "d": 9.541979166679084,
      "v": 108
    },
    {
      "midi": 42,
      "hit": false,
      "t": 135572.44000000038,
      "d": 9.541979166679084,
      "v": 125
    },
    {
      "midi": 70,
      "hit": false,
      "t": 135572.44000000038,
      "d": 9.541979166679084,
      "v": 75
    },
    {
      "midi": 43,
      "hit": false,
      "t": 135572.4400000004,
      "d": 57.251874999987194,
      "v": 82
    },
    {
      "midi": 70,
      "hit": false,
      "t": 135572.44000000047,
      "d": 458.01500000001397,
      "v": 84
    },
    {
      "midi": 70,
      "hit": false,
      "t": 135686.94375000038,
      "d": 9.541979166679084,
      "v": 45
    },
    {
      "midi": 43,
      "hit": false,
      "t": 135801.4475000004,
      "d": 57.251874999987194,
      "v": 82
    },
    {
      "midi": 70,
      "hit": false,
      "t": 135801.4475000004,
      "d": 9.541979166679084,
      "v": 55
    },
    {
      "midi": 70,
      "hit": false,
      "t": 135915.9512500004,
      "d": 9.541979166679084,
      "v": 45
    },
    {
      "midi": 38,
      "hit": false,
      "t": 136025.68401041708,
      "d": 9.541979166679084,
      "v": 96
    },
    {
      "midi": 50,
      "hit": false,
      "t": 136030.45500000037,
      "d": 229.00750000000698,
      "v": 87
    },
    {
      "midi": 55,
      "hit": false,
      "t": 136030.45500000037,
      "d": 229.00750000000698,
      "v": 87
    },
    {
      "midi": 70,
      "hit": false,
      "t": 136030.45500000042,
      "d": 9.541979166679084,
      "v": 75
    },
    {
      "midi": 42,
      "hit": false,
      "t": 136030.45500000042,
      "d": 9.541979166679084,
      "v": 125
    },
    {
      "midi": 70,
      "hit": false,
      "t": 136144.95875000043,
      "d": 9.541979166679084,
      "v": 45
    },
    {
      "midi": 43,
      "hit": false,
      "t": 136259.46250000037,
      "d": 57.251874999987194,
      "v": 82
    },
    {
      "midi": 70,
      "hit": false,
      "t": 136259.46250000043,
      "d": 9.541979166679084,
      "v": 55
    },
    {
      "midi": 58,
      "hit": false,
      "t": 136259.4625000005,
      "d": 229.00750000000698,
      "v": 84
    },
    {
      "midi": 70,
      "hit": false,
      "t": 136373.96625000043,
      "d": 9.541979166679084,
      "v": 45
    },
    {
      "midi": 43,
      "hit": false,
      "t": 136488.47000000035,
      "d": 57.251874999987194,
      "v": 82
    },
    {
      "midi": 36,
      "hit": false,
      "t": 136488.47000000044,
      "d": 9.541979166679084,
      "v": 108
    },
    {
      "midi": 42,
      "hit": false,
      "t": 136488.47000000044,
      "d": 9.541979166679084,
      "v": 125
    },
    {
      "midi": 70,
      "hit": false,
      "t": 136488.47000000044,
      "d": 9.541979166679084,
      "v": 75
    },
    {
      "midi": 70,
      "hit": false,
      "t": 136488.4700000005,
      "d": 195.6105729166593,
      "v": 84
    },
    {
      "midi": 70,
      "hit": false,
      "t": 136602.97375000044,
      "d": 9.541979166679084,
      "v": 45
    },
    {
      "midi": 50,
      "hit": false,
      "t": 136717.47750000033,
      "d": 229.00750000000698,
      "v": 87
    },
    {
      "midi": 55,
      "hit": false,
      "t": 136717.47750000033,
      "d": 229.00750000000698,
      "v": 87
    },
    {
      "midi": 70,
      "hit": false,
      "t": 136717.47750000044,
      "d": 9.541979166679084,
      "v": 55
    },
    {
      "midi": 70,
      "hit": false,
      "t": 136717.4775000005,
      "d": 176.52661458333023,
      "v": 84
    },
    {
      "midi": 70,
      "hit": false,
      "t": 136831.98125000045,
      "d": 9.541979166679084,
      "v": 45
    },
    {
      "midi": 38,
      "hit": false,
      "t": 136941.71401041714,
      "d": 9.541979166679084,
      "v": 96
    },
    {
      "midi": 43,
      "hit": false,
      "t": 136946.48500000034,
      "d": 57.251874999987194,
      "v": 82
    },
    {
      "midi": 70,
      "hit": false,
      "t": 136946.48500000048,
      "d": 9.541979166679084,
      "v": 75
    },
    {
      "midi": 42,
      "hit": false,
      "t": 136946.48500000048,
      "d": 9.541979166679084,
      "v": 125
    },
    {
      "midi": 70,
      "hit": false,
      "t": 136946.4850000005,
      "d": 162.2136458333407,
      "v": 84
    },
    {
      "midi": 70,
      "hit": false,
      "t": 137060.98875000048,
      "d": 9.541979166679084,
      "v": 45
    },
    {
      "midi": 43,
      "hit": false,
      "t": 137175.4925000003,
      "d": 57.251874999987194,
      "v": 82
    },
    {
      "midi": 70,
      "hit": false,
      "t": 137175.4925000005,
      "d": 9.541979166679084,
      "v": 55
    },
    {
      "midi": 70,
      "hit": false,
      "t": 137175.49250000052,
      "d": 176.52661458333023,
      "v": 84
    },
    {
      "midi": 70,
      "hit": false,
      "t": 137289.9962500005,
      "d": 9.541979166679084,
      "v": 45
    },
    {
      "midi": 67,
      "hit": false,
      "t": 137404.5000000002,
      "d": 1832.0599999999977,
      "v": 100
    },
    {
      "midi": 63,
      "hit": false,
      "t": 137404.5000000002,
      "d": 1832.0599999999977,
      "v": 100
    },
    {
      "midi": 70,
      "hit": false,
      "t": 137404.5000000002,
      "d": 1832.0599999999977,
      "v": 100
    },
    {
      "midi": 60,
      "hit": false,
      "t": 137404.5000000002,
      "d": 1832.0599999999977,
      "v": 100
    },
    {
      "midi": 48,
      "hit": false,
      "t": 137404.5000000003,
      "d": 57.251874999987194,
      "v": 82
    },
    {
      "midi": 36,
      "hit": false,
      "t": 137404.5000000005,
      "d": 9.541979166679084,
      "v": 108
    },
    {
      "midi": 42,
      "hit": false,
      "t": 137404.5000000005,
      "d": 9.541979166679084,
      "v": 125
    },
    {
      "midi": 70,
      "hit": false,
      "t": 137404.5000000005,
      "d": 9.541979166679084,
      "v": 75
    },
    {
      "midi": 70,
      "hit": false,
      "t": 137404.50000000052,
      "d": 205.15255208333838,
      "v": 84
    },
    {
      "midi": 70,
      "hit": false,
      "t": 137519.0037500005,
      "d": 9.541979166679084,
      "v": 45
    },
    {
      "midi": 48,
      "hit": false,
      "t": 137633.50750000027,
      "d": 57.251874999987194,
      "v": 82
    },
    {
      "midi": 70,
      "hit": false,
      "t": 137633.5075000005,
      "d": 9.541979166679084,
      "v": 55
    },
    {
      "midi": 70,
      "hit": false,
      "t": 137633.50750000053,
      "d": 229.00750000000698,
      "v": 84
    },
    {
      "midi": 70,
      "hit": false,
      "t": 137748.0112500005,
      "d": 9.541979166679084,
      "v": 45
    },
    {
      "midi": 38,
      "hit": false,
      "t": 137857.7440104172,
      "d": 9.541979166679084,
      "v": 96
    },
    {
      "midi": 48,
      "hit": false,
      "t": 137862.51500000025,
      "d": 229.00750000000698,
      "v": 82
    },
    {
      "midi": 55,
      "hit": false,
      "t": 137862.51500000025,
      "d": 229.00750000000698,
      "v": 82
    },
    {
      "midi": 60,
      "hit": false,
      "t": 137862.51500000025,
      "d": 229.00750000000698,
      "v": 82
    },
    {
      "midi": 68,
      "hit": false,
      "t": 137862.51500000054,
      "d": 229.00750000000698,
      "v": 84
    },
    {
      "midi": 70,
      "hit": false,
      "t": 137862.51500000054,
      "d": 9.541979166679084,
      "v": 75
    },
    {
      "midi": 42,
      "hit": false,
      "t": 137862.51500000054,
      "d": 9.541979166679084,
      "v": 125
    },
    {
      "midi": 70,
      "hit": false,
      "t": 137977.01875000054,
      "d": 9.541979166679084,
      "v": 45
    },
    {
      "midi": 48,
      "hit": false,
      "t": 138091.52250000025,
      "d": 57.251874999987194,
      "v": 82
    },
    {
      "midi": 67,
      "hit": false,
      "t": 138091.52250000054,
      "d": 458.01500000001397,
      "v": 84
    },
    {
      "midi": 70,
      "hit": false,
      "t": 138091.52250000054,
      "d": 9.541979166679084,
      "v": 55
    },
    {
      "midi": 70,
      "hit": false,
      "t": 138206.02625000055,
      "d": 9.541979166679084,
      "v": 45
    },
    {
      "midi": 48,
      "hit": false,
      "t": 138320.53000000023,
      "d": 57.251874999987194,
      "v": 82
    },
    {
      "midi": 36,
      "hit": false,
      "t": 138320.53000000055,
      "d": 9.541979166679084,
      "v": 108
    },
    {
      "midi": 42,
      "hit": false,
      "t": 138320.53000000055,
      "d": 9.541979166679084,
      "v": 125
    },
    {
      "midi": 70,
      "hit": false,
      "t": 138320.53000000055,
      "d": 9.541979166679084,
      "v": 75
    },
    {
      "midi": 70,
      "hit": false,
      "t": 138435.03375000056,
      "d": 9.541979166679084,
      "v": 45
    },
    {
      "midi": 48,
      "hit": false,
      "t": 138549.5375000002,
      "d": 229.00750000000698,
      "v": 82
    },
    {
      "midi": 55,
      "hit": false,
      "t": 138549.5375000002,
      "d": 229.00750000000698,
      "v": 82
    },
    {
      "midi": 60,
      "hit": false,
      "t": 138549.5375000002,
      "d": 229.00750000000698,
      "v": 82
    },
    {
      "midi": 68,
      "hit": false,
      "t": 138549.53750000056,
      "d": 229.00750000000698,
      "v": 84
    },
    {
      "midi": 70,
      "hit": false,
      "t": 138549.53750000056,
      "d": 9.541979166679084,
      "v": 55
    },
    {
      "midi": 70,
      "hit": false,
      "t": 138664.04125000056,
      "d": 9.541979166679084,
      "v": 45
    },
    {
      "midi": 38,
      "hit": false,
      "t": 138773.77401041726,
      "d": 9.541979166679084,
      "v": 96
    },
    {
      "midi": 48,
      "hit": false,
      "t": 138778.54500000022,
      "d": 57.251874999987194,
      "v": 82
    },
    {
      "midi": 70,
      "hit": false,
      "t": 138778.54500000057,
      "d": 458.01500000001397,
      "v": 84
    },
    {
      "midi": 70,
      "hit": false,
      "t": 138778.5450000006,
      "d": 9.541979166679084,
      "v": 75
    },
    {
      "midi": 42,
      "hit": false,
      "t": 138778.5450000006,
      "d": 9.541979166679084,
      "v": 125
    },
    {
      "midi": 70,
      "hit": false,
      "t": 138893.0487500006,
      "d": 9.541979166679084,
      "v": 45
    },
    {
      "midi": 48,
      "hit": false,
      "t": 139007.5525000002,
      "d": 57.251874999987194,
      "v": 82
    },
    {
      "midi": 70,
      "hit": false,
      "t": 139007.5525000006,
      "d": 9.541979166679084,
      "v": 55
    },
    {
      "midi": 70,
      "hit": false,
      "t": 139122.0562500006,
      "d": 9.541979166679084,
      "v": 45
    },
    {
      "midi": 41,
      "hit": false,
      "t": 139236.56000000017,
      "d": 57.251874999987194,
      "v": 82
    },
    {
      "midi": 63,
      "hit": false,
      "t": 139236.5600000002,
      "d": 1832.0599999999977,
      "v": 100
    },
    {
      "midi": 65,
      "hit": false,
      "t": 139236.5600000002,
      "d": 1832.0599999999977,
      "v": 100
    },
    {
      "midi": 68,
      "hit": false,
      "t": 139236.5600000002,
      "d": 1832.0599999999977,
      "v": 100
    },
    {
      "midi": 60,
      "hit": false,
      "t": 139236.5600000002,
      "d": 1832.0599999999977,
      "v": 100
    },
    {
      "midi": 68,
      "hit": false,
      "t": 139236.56000000058,
      "d": 458.01500000001397,
      "v": 84
    },
    {
      "midi": 36,
      "hit": false,
      "t": 139236.5600000006,
      "d": 9.541979166679084,
      "v": 108
    },
    {
      "midi": 42,
      "hit": false,
      "t": 139236.5600000006,
      "d": 9.541979166679084,
      "v": 125
    },
    {
      "midi": 70,
      "hit": false,
      "t": 139236.5600000006,
      "d": 9.541979166679084,
      "v": 75
    },
    {
      "midi": 70,
      "hit": false,
      "t": 139351.0637500006,
      "d": 9.541979166679084,
      "v": 45
    },
    {
      "midi": 41,
      "hit": false,
      "t": 139465.56750000015,
      "d": 57.251874999987194,
      "v": 82
    },
    {
      "midi": 70,
      "hit": false,
      "t": 139465.56750000062,
      "d": 9.541979166679084,
      "v": 55
    },
    {
      "midi": 70,
      "hit": false,
      "t": 139580.07125000062,
      "d": 9.541979166679084,
      "v": 45
    },
    {
      "midi": 38,
      "hit": false,
      "t": 139689.8040104173,
      "d": 9.541979166679084,
      "v": 96
    },
    {
      "midi": 48,
      "hit": false,
      "t": 139694.57500000013,
      "d": 229.00750000000698,
      "v": 87
    },
    {
      "midi": 53,
      "hit": false,
      "t": 139694.57500000013,
      "d": 229.00750000000698,
      "v": 87
    },
    {
      "midi": 70,
      "hit": false,
      "t": 139694.57500000065,
      "d": 9.541979166679084,
      "v": 75
    },
    {
      "midi": 42,
      "hit": false,
      "t": 139694.57500000065,
      "d": 9.541979166679084,
      "v": 125
    },
    {
      "midi": 70,
      "hit": false,
      "t": 139809.07875000066,
      "d": 9.541979166679084,
      "v": 45
    },
    {
      "midi": 41,
      "hit": false,
      "t": 139923.58250000014,
      "d": 57.251874999987194,
      "v": 82
    },
    {
      "midi": 60,
      "hit": false,
      "t": 139923.5825000006,
      "d": 229.00750000000698,
      "v": 84
    },
    {
      "midi": 70,
      "hit": false,
      "t": 139923.58250000066,
      "d": 9.541979166679084,
      "v": 55
    },
    {
      "midi": 70,
      "hit": false,
      "t": 140038.08625000066,
      "d": 9.541979166679084,
      "v": 45
    },
    {
      "midi": 41,
      "hit": false,
      "t": 140152.5900000001,
      "d": 57.251874999987194,
      "v": 82
    },
    {
      "midi": 68,
      "hit": false,
      "t": 140152.5900000006,
      "d": 195.6105729166593,
      "v": 84
    },
    {
      "midi": 36,
      "hit": false,
      "t": 140152.59000000067,
      "d": 9.541979166679084,
      "v": 108
    },
    {
      "midi": 42,
      "hit": false,
      "t": 140152.59000000067,
      "d": 9.541979166679084,
      "v": 125
    },
    {
      "midi": 70,
      "hit": false,
      "t": 140152.59000000067,
      "d": 9.541979166679084,
      "v": 75
    },
    {
      "midi": 70,
      "hit": false,
      "t": 140267.09375000067,
      "d": 9.541979166679084,
      "v": 45
    },
    {
      "midi": 48,
      "hit": false,
      "t": 140381.5975000001,
      "d": 229.00750000000698,
      "v": 87
    },
    {
      "midi": 53,
      "hit": false,
      "t": 140381.5975000001,
      "d": 229.00750000000698,
      "v": 87
    },
    {
      "midi": 68,
      "hit": false,
      "t": 140381.59750000061,
      "d": 176.52661458333023,
      "v": 84
    },
    {
      "midi": 70,
      "hit": false,
      "t": 140381.59750000067,
      "d": 9.541979166679084,
      "v": 55
    },
    {
      "midi": 70,
      "hit": false,
      "t": 140496.10125000068,
      "d": 9.541979166679084,
      "v": 45
    },
    {
      "midi": 38,
      "hit": false,
      "t": 140605.83401041737,
      "d": 9.541979166679084,
      "v": 96
    },
    {
      "midi": 41,
      "hit": false,
      "t": 140610.6050000001,
      "d": 57.251874999987194,
      "v": 82
    },
    {
      "midi": 68,
      "hit": false,
      "t": 140610.60500000062,
      "d": 162.2136458333407,
      "v": 84
    },
    {
      "midi": 70,
      "hit": false,
      "t": 140610.6050000007,
      "d": 9.541979166679084,
      "v": 75
    },
    {
      "midi": 42,
      "hit": false,
      "t": 140610.6050000007,
      "d": 9.541979166679084,
      "v": 125
    },
    {
      "midi": 70,
      "hit": false,
      "t": 140725.1087500007,
      "d": 9.541979166679084,
      "v": 45
    },
    {
      "midi": 41,
      "hit": false,
      "t": 140839.61250000008,
      "d": 57.251874999987194,
      "v": 82
    },
    {
      "midi": 68,
      "hit": false,
      "t": 140839.61250000063,
      "d": 176.52661458333023,
      "v": 84
    },
    {
      "midi": 70,
      "hit": false,
      "t": 140839.61250000072,
      "d": 9.541979166679084,
      "v": 55
    },
    {
      "midi": 70,
      "hit": false,
      "t": 140954.11625000072,
      "d": 9.541979166679084,
      "v": 45
    },
    {
      "midi": 43,
      "hit": false,
      "t": 141068.62000000005,
      "d": 57.251874999987194,
      "v": 82
    },
    {
      "midi": 72,
      "hit": false,
      "t": 141068.6200000002,
      "d": 916.0299999999988,
      "v": 100
    },
    {
      "midi": 69,
      "hit": false,
      "t": 141068.6200000002,
      "d": 916.0299999999988,
      "v": 100
    },
    {
      "midi": 65,
      "hit": false,
      "t": 141068.6200000002,
      "d": 916.0299999999988,
      "v": 100
    },
    {
      "midi": 62,
      "hit": false,
      "t": 141068.6200000002,
      "d": 916.0299999999988,
      "v": 100
    },
    {
      "midi": 67,
      "hit": false,
      "t": 141068.62000000064,
      "d": 195.6105729166593,
      "v": 84
    },
    {
      "midi": 36,
      "hit": false,
      "t": 141068.62000000072,
      "d": 9.541979166679084,
      "v": 108
    },
    {
      "midi": 42,
      "hit": false,
      "t": 141068.62000000072,
      "d": 9.541979166679084,
      "v": 125
    },
    {
      "midi": 70,
      "hit": false,
      "t": 141068.62000000072,
      "d": 9.541979166679084,
      "v": 75
    },
    {
      "midi": 70,
      "hit": false,
      "t": 141183.12375000073,
      "d": 9.541979166679084,
      "v": 45
    },
    {
      "midi": 43,
      "hit": false,
      "t": 141297.62750000003,
      "d": 57.251874999987194,
      "v": 82
    },
    {
      "midi": 67,
      "hit": false,
      "t": 141297.62750000064,
      "d": 176.52661458333023,
      "v": 84
    },
    {
      "midi": 70,
      "hit": false,
      "t": 141297.62750000073,
      "d": 9.541979166679084,
      "v": 55
    },
    {
      "midi": 70,
      "hit": false,
      "t": 141412.13125000073,
      "d": 9.541979166679084,
      "v": 45
    },
    {
      "midi": 38,
      "hit": false,
      "t": 141521.86401041743,
      "d": 9.541979166679084,
      "v": 96
    },
    {
      "midi": 50,
      "hit": false,
      "t": 141526.635,
      "d": 229.00750000000698,
      "v": 87
    },
    {
      "midi": 55,
      "hit": false,
      "t": 141526.635,
      "d": 229.00750000000698,
      "v": 87
    },
    {
      "midi": 67,
      "hit": false,
      "t": 141526.63500000065,
      "d": 162.2136458333407,
      "v": 84
    },
    {
      "midi": 70,
      "hit": false,
      "t": 141526.63500000077,
      "d": 9.541979166679084,
      "v": 75
    },
    {
      "midi": 42,
      "hit": false,
      "t": 141526.63500000077,
      "d": 9.541979166679084,
      "v": 125
    },
    {
      "midi": 70,
      "hit": false,
      "t": 141641.13875000077,
      "d": 9.541979166679084,
      "v": 45
    },
    {
      "midi": 43,
      "hit": false,
      "t": 141755.64250000002,
      "d": 57.251874999987194,
      "v": 82
    },
    {
      "midi": 67,
      "hit": false,
      "t": 141755.64250000066,
      "d": 176.52661458333023,
      "v": 84
    },
    {
      "midi": 70,
      "hit": false,
      "t": 141755.64250000077,
      "d": 9.541979166679084,
      "v": 55
    },
    {
      "midi": 70,
      "hit": false,
      "t": 141870.14625000078,
      "d": 9.541979166679084,
      "v": 45
    },
    {
      "midi": 43,
      "hit": false,
      "t": 141984.65,
      "d": 57.251874999987194,
      "v": 82
    },
    {
      "midi": 62,
      "hit": false,
      "t": 141984.6500000002,
      "d": 916.0299999999988,
      "v": 100
    },
    {
      "midi": 65,
      "hit": false,
      "t": 141984.6500000002,
      "d": 916.0299999999988,
      "v": 100
    },
    {
      "midi": 71,
      "hit": false,
      "t": 141984.6500000002,
      "d": 916.0299999999988,
      "v": 100
    },
    {
      "midi": 67,
      "hit": false,
      "t": 141984.6500000002,
      "d": 916.0299999999988,
      "v": 100
    },
    {
      "midi": 67,
      "hit": false,
      "t": 141984.65000000066,
      "d": 458.01500000001397,
      "v": 84
    },
    {
      "midi": 36,
      "hit": false,
      "t": 141984.65000000078,
      "d": 9.541979166679084,
      "v": 108
    },
    {
      "midi": 42,
      "hit": false,
      "t": 141984.65000000078,
      "d": 9.541979166679084,
      "v": 125
    },
    {
      "midi": 70,
      "hit": false,
      "t": 141984.65000000078,
      "d": 9.541979166679084,
      "v": 75
    },
    {
      "midi": 70,
      "hit": false,
      "t": 142099.15375000078,
      "d": 9.541979166679084,
      "v": 45
    },
    {
      "midi": 50,
      "hit": false,
      "t": 142213.65749999997,
      "d": 229.00750000000698,
      "v": 87
    },
    {
      "midi": 55,
      "hit": false,
      "t": 142213.65749999997,
      "d": 229.00750000000698,
      "v": 87
    },
    {
      "midi": 70,
      "hit": false,
      "t": 142213.6575000008,
      "d": 9.541979166679084,
      "v": 55
    },
    {
      "midi": 70,
      "hit": false,
      "t": 142328.1612500008,
      "d": 9.541979166679084,
      "v": 45
    },
    {
      "midi": 38,
      "hit": false,
      "t": 142437.89401041748,
      "d": 9.541979166679084,
      "v": 96
    },
    {
      "midi": 43,
      "hit": false,
      "t": 142442.66499999998,
      "d": 57.251874999987194,
      "v": 82
    },
    {
      "midi": 65,
      "hit": false,
      "t": 142442.66500000068,
      "d": 229.00750000000698,
      "v": 84
    },
    {
      "midi": 70,
      "hit": false,
      "t": 142442.66500000082,
      "d": 9.541979166679084,
      "v": 75
    },
    {
      "midi": 42,
      "hit": false,
      "t": 142442.66500000082,
      "d": 9.541979166679084,
      "v": 125
    },
    {
      "midi": 70,
      "hit": false,
      "t": 142557.16875000083,
      "d": 9.541979166679084,
      "v": 45
    },
    {
      "midi": 43,
      "hit": false,
      "t": 142671.67249999996,
      "d": 57.251874999987194,
      "v": 82
    },
    {
      "midi": 65,
      "hit": false,
      "t": 142671.67250000068,
      "d": 458.01500000001397,
      "v": 84
    },
    {
      "midi": 70,
      "hit": false,
      "t": 142671.67250000083,
      "d": 9.541979166679084,
      "v": 55
    },
    {
      "midi": 70,
      "hit": false,
      "t": 142786.17625000083,
      "d": 9.541979166679084,
      "v": 45
    },
    {
      "midi": 48,
      "hit": false,
      "t": 142900.67999999993,
      "d": 57.251874999987194,
      "v": 82
    },
    {
      "midi": 72,
      "hit": false,
      "t": 142900.6800000002,
      "d": 1832.0599999999977,
      "v": 100
    },
    {
      "midi": 70,
      "hit": false,
      "t": 142900.6800000002,
      "d": 1832.0599999999977,
      "v": 100
    },
    {
      "midi": 67,
      "hit": false,
      "t": 142900.6800000002,
      "d": 1832.0599999999977,
      "v": 100
    },
    {
      "midi": 63,
      "hit": false,
      "t": 142900.6800000002,
      "d": 1832.0599999999977,
      "v": 100
    },
    {
      "midi": 36,
      "hit": false,
      "t": 142900.68000000084,
      "d": 9.541979166679084,
      "v": 108
    },
    {
      "midi": 42,
      "hit": false,
      "t": 142900.68000000084,
      "d": 9.541979166679084,
      "v": 125
    },
    {
      "midi": 70,
      "hit": false,
      "t": 142900.68000000084,
      "d": 9.541979166679084,
      "v": 75
    },
    {
      "midi": 70,
      "hit": false,
      "t": 143015.18375000084,
      "d": 9.541979166679084,
      "v": 45
    },
    {
      "midi": 48,
      "hit": false,
      "t": 143129.6874999999,
      "d": 57.251874999987194,
      "v": 82
    },
    {
      "midi": 65,
      "hit": false,
      "t": 143129.6875000007,
      "d": 229.00750000000698,
      "v": 84
    },
    {
      "midi": 70,
      "hit": false,
      "t": 143129.68750000084,
      "d": 9.541979166679084,
      "v": 55
    },
    {
      "midi": 70,
      "hit": false,
      "t": 143244.19125000085,
      "d": 9.541979166679084,
      "v": 45
    },
    {
      "midi": 38,
      "hit": false,
      "t": 143353.92401041754,
      "d": 9.541979166679084,
      "v": 96
    },
    {
      "midi": 48,
      "hit": false,
      "t": 143358.6949999999,
      "d": 229.00750000000698,
      "v": 82
    },
    {
      "midi": 55,
      "hit": false,
      "t": 143358.6949999999,
      "d": 229.00750000000698,
      "v": 82
    },
    {
      "midi": 60,
      "hit": false,
      "t": 143358.6949999999,
      "d": 229.00750000000698,
      "v": 82
    },
    {
      "midi": 65,
      "hit": false,
      "t": 143358.6950000007,
      "d": 229.00750000000698,
      "v": 84
    },
    {
      "midi": 70,
      "hit": false,
      "t": 143358.69500000088,
      "d": 9.541979166679084,
      "v": 75
    },
    {
      "midi": 42,
      "hit": false,
      "t": 143358.69500000088,
      "d": 9.541979166679084,
      "v": 125
    },
    {
      "midi": 70,
      "hit": false,
      "t": 143473.19875000088,
      "d": 9.541979166679084,
      "v": 45
    },
    {
      "midi": 48,
      "hit": false,
      "t": 143587.7024999999,
      "d": 57.251874999987194,
      "v": 82
    },
    {
      "midi": 70,
      "hit": false,
      "t": 143587.7025000009,
      "d": 9.541979166679084,
      "v": 55
    },
    {
      "midi": 70,
      "hit": false,
      "t": 143702.2062500009,
      "d": 9.541979166679084,
      "v": 45
    },
    {
      "midi": 48,
      "hit": false,
      "t": 143816.70999999988,
      "d": 57.251874999987194,
      "v": 82
    },
    {
      "midi": 63,
      "hit": false,
      "t": 143816.71000000072,
      "d": 229.00750000000698,
      "v": 84
    },
    {
      "midi": 36,
      "hit": false,
      "t": 143816.7100000009,
      "d": 9.541979166679084,
      "v": 108
    },
    {
      "midi": 42,
      "hit": false,
      "t": 143816.7100000009,
      "d": 9.541979166679084,
      "v": 125
    },
    {
      "midi": 70,
      "hit": false,
      "t": 143816.7100000009,
      "d": 9.541979166679084,
      "v": 75
    },
    {
      "midi": 70,
      "hit": false,
      "t": 143931.2137500009,
      "d": 9.541979166679084,
      "v": 45
    },
    {
      "midi": 48,
      "hit": false,
      "t": 144045.71749999985,
      "d": 229.00750000000698,
      "v": 82
    },
    {
      "midi": 55,
      "hit": false,
      "t": 144045.71749999985,
      "d": 229.00750000000698,
      "v": 82
    },
    {
      "midi": 60,
      "hit": false,
      "t": 144045.71749999985,
      "d": 229.00750000000698,
      "v": 82
    },
    {
      "midi": 65,
      "hit": false,
      "t": 144045.71750000073,
      "d": 458.01500000001397,
      "v": 84
    },
    {
      "midi": 70,
      "hit": false,
      "t": 144045.7175000009,
      "d": 9.541979166679084,
      "v": 55
    },
    {
      "midi": 70,
      "hit": false,
      "t": 144160.2212500009,
      "d": 9.541979166679084,
      "v": 45
    },
    {
      "midi": 38,
      "hit": false,
      "t": 144269.9540104176,
      "d": 9.541979166679084,
      "v": 96
    },
    {
      "midi": 48,
      "hit": false,
      "t": 144274.72499999986,
      "d": 57.251874999987194,
      "v": 82
    },
    {
      "midi": 70,
      "hit": false,
      "t": 144274.72500000094,
      "d": 9.541979166679084,
      "v": 75
    },
    {
      "midi": 42,
      "hit": false,
      "t": 144274.72500000094,
      "d": 9.541979166679084,
      "v": 125
    },
    {
      "midi": 70,
      "hit": false,
      "t": 144389.22875000094,
      "d": 9.541979166679084,
      "v": 45
    },
    {
      "midi": 48,
      "hit": false,
      "t": 144503.73249999984,
      "d": 57.251874999987194,
      "v": 82
    },
    {
      "midi": 67,
      "hit": false,
      "t": 144503.73250000074,
      "d": 687.0224999999919,
      "v": 84
    },
    {
      "midi": 70,
      "hit": false,
      "t": 144503.73250000094,
      "d": 9.541979166679084,
      "v": 55
    },
    {
      "midi": 70,
      "hit": false,
      "t": 144618.23625000095,
      "d": 9.541979166679084,
      "v": 45
    },
    {
      "midi": 51,
      "hit": false,
      "t": 144732.73999999982,
      "d": 57.251874999987194,
      "v": 82
    },
    {
      "midi": 63,
      "hit": false,
      "t": 144732.7400000002,
      "d": 1832.0599999999977,
      "v": 100
    },
    {
      "midi": 67,
      "hit": false,
      "t": 144732.7400000002,
      "d": 1832.0599999999977,
      "v": 100
    },
    {
      "midi": 70,
      "hit": false,
      "t": 144732.7400000002,
      "d": 1832.0599999999977,
      "v": 100
    },
    {
      "midi": 61,
      "hit": false,
      "t": 144732.7400000002,
      "d": 1832.0599999999977,
      "v": 100
    },
    {
      "midi": 36,
      "hit": false,
      "t": 144732.74000000095,
      "d": 9.541979166679084,
      "v": 108
    },
    {
      "midi": 42,
      "hit": false,
      "t": 144732.74000000095,
      "d": 9.541979166679084,
      "v": 125
    },
    {
      "midi": 70,
      "hit": false,
      "t": 144732.74000000095,
      "d": 9.541979166679084,
      "v": 75
    },
    {
      "midi": 70,
      "hit": false,
      "t": 144847.24375000095,
      "d": 9.541979166679084,
      "v": 45
    },
    {
      "midi": 51,
      "hit": false,
      "t": 144961.7474999998,
      "d": 57.251874999987194,
      "v": 82
    },
    {
      "midi": 70,
      "hit": false,
      "t": 144961.74750000096,
      "d": 9.541979166679084,
      "v": 55
    },
    {
      "midi": 70,
      "hit": false,
      "t": 145076.25125000096,
      "d": 9.541979166679084,
      "v": 45
    },
    {
      "midi": 38,
      "hit": false,
      "t": 145185.98401041765,
      "d": 9.541979166679084,
      "v": 96
    },
    {
      "midi": 51,
      "hit": false,
      "t": 145190.75499999977,
      "d": 229.00750000000698,
      "v": 87
    },
    {
      "midi": 58,
      "hit": false,
      "t": 145190.75499999977,
      "d": 229.00750000000698,
      "v": 87
    },
    {
      "midi": 70,
      "hit": false,
      "t": 145190.755000001,
      "d": 9.541979166679084,
      "v": 75
    },
    {
      "midi": 42,
      "hit": false,
      "t": 145190.755000001,
      "d": 9.541979166679084,
      "v": 125
    },
    {
      "midi": 70,
      "hit": false,
      "t": 145305.258750001,
      "d": 9.541979166679084,
      "v": 45
    },
    {
      "midi": 51,
      "hit": false,
      "t": 145419.76249999978,
      "d": 57.251874999987194,
      "v": 82
    },
    {
      "midi": 70,
      "hit": false,
      "t": 145419.762500001,
      "d": 9.541979166679084,
      "v": 55
    },
    {
      "midi": 70,
      "hit": false,
      "t": 145534.266250001,
      "d": 9.541979166679084,
      "v": 45
    },
    {
      "midi": 51,
      "hit": false,
      "t": 145648.76999999976,
      "d": 57.251874999987194,
      "v": 82
    },
    {
      "midi": 36,
      "hit": false,
      "t": 145648.770000001,
      "d": 9.541979166679084,
      "v": 108
    },
    {
      "midi": 42,
      "hit": false,
      "t": 145648.770000001,
      "d": 9.541979166679084,
      "v": 125
    },
    {
      "midi": 70,
      "hit": false,
      "t": 145648.770000001,
      "d": 9.541979166679084,
      "v": 75
    },
    {
      "midi": 70,
      "hit": false,
      "t": 145763.273750001,
      "d": 9.541979166679084,
      "v": 45
    },
    {
      "midi": 51,
      "hit": false,
      "t": 145877.77749999973,
      "d": 229.00750000000698,
      "v": 87
    },
    {
      "midi": 58,
      "hit": false,
      "t": 145877.77749999973,
      "d": 229.00750000000698,
      "v": 87
    },
    {
      "midi": 80,
      "hit": false,
      "t": 145877.77749999994,
      "d": 95.41979166667443,
      "v": 90
    },
    {
      "midi": 92,
      "hit": false,
      "t": 145877.77749999994,
      "d": 95.41979166667443,
      "v": 90
    },
    {
      "midi": 60,
      "hit": false,
      "t": 145877.77750000014,
      "d": 458.01500000001397,
      "v": 127
    },
    {
      "midi": 80,
      "hit": false,
      "t": 145877.77750000037,
      "d": 95.41979166667443,
      "v": 90
    },
    {
      "midi": 92,
      "hit": false,
      "t": 145877.77750000037,
      "d": 95.41979166667443,
      "v": 90
    },
    {
      "midi": 68,
      "hit": false,
      "t": 145877.77750000072,
      "d": 458.01500000001397,
      "v": 84
    },
    {
      "midi": 70,
      "hit": false,
      "t": 145877.77750000102,
      "d": 9.541979166679084,
      "v": 55
    },
    {
      "midi": 70,
      "hit": false,
      "t": 145992.28125000102,
      "d": 9.541979166679084,
      "v": 45
    },
    {
      "midi": 38,
      "hit": false,
      "t": 146102.0140104177,
      "d": 9.541979166679084,
      "v": 96
    },
    {
      "midi": 51,
      "hit": false,
      "t": 146106.78499999974,
      "d": 57.251874999987194,
      "v": 82
    },
    {
      "midi": 70,
      "hit": false,
      "t": 146106.78500000105,
      "d": 9.541979166679084,
      "v": 75
    },
    {
      "midi": 42,
      "hit": false,
      "t": 146106.78500000105,
      "d": 9.541979166679084,
      "v": 125
    },
    {
      "midi": 70,
      "hit": false,
      "t": 146221.28875000105,
      "d": 9.541979166679084,
      "v": 45
    },
    {
      "midi": 51,
      "hit": false,
      "t": 146335.79249999972,
      "d": 57.251874999987194,
      "v": 82
    },
    {
      "midi": 82,
      "hit": false,
      "t": 146335.79249999995,
      "d": 95.41979166667443,
      "v": 90
    },
    {
      "midi": 94,
      "hit": false,
      "t": 146335.79249999995,
      "d": 95.41979166667443,
      "v": 90
    },
    {
      "midi": 62,
      "hit": false,
      "t": 146335.79250000016,
      "d": 229.00750000000698,
      "v": 127
    },
    {
      "midi": 82,
      "hit": false,
      "t": 146335.7925000004,
      "d": 95.41979166667443,
      "v": 90
    },
    {
      "midi": 94,
      "hit": false,
      "t": 146335.7925000004,
      "d": 95.41979166667443,
      "v": 90
    },
    {
      "midi": 70,
      "hit": false,
      "t": 146335.79250000074,
      "d": 229.00750000000698,
      "v": 84
    },
    {
      "midi": 70,
      "hit": false,
      "t": 146335.79250000106,
      "d": 9.541979166679084,
      "v": 55
    },
    {
      "midi": 70,
      "hit": false,
      "t": 146450.29625000106,
      "d": 9.541979166679084,
      "v": 45
    },
    {
      "midi": 44,
      "hit": false,
      "t": 146564.7999999997,
      "d": 57.251874999987194,
      "v": 82
    },
    {
      "midi": 84,
      "hit": false,
      "t": 146564.79999999996,
      "d": 95.41979166667443,
      "v": 90
    },
    {
      "midi": 96,
      "hit": false,
      "t": 146564.79999999996,
      "d": 95.41979166667443,
      "v": 90
    },
    {
      "midi": 63,
      "hit": false,
      "t": 146564.80000000016,
      "d": 458.01500000001397,
      "v": 127
    },
    {
      "midi": 63,
      "hit": false,
      "t": 146564.8000000002,
      "d": 1832.0599999999977,
      "v": 100
    },
    {
      "midi": 68,
      "hit": false,
      "t": 146564.8000000002,
      "d": 1832.0599999999977,
      "v": 100
    },
    {
      "midi": 72,
      "hit": false,
      "t": 146564.8000000002,
      "d": 1832.0599999999977,
      "v": 100
    },
    {
      "midi": 84,
      "hit": false,
      "t": 146564.8000000004,
      "d": 95.41979166667443,
      "v": 90
    },
    {
      "midi": 96,
      "hit": false,
      "t": 146564.8000000004,
      "d": 95.41979166667443,
      "v": 90
    },
    {
      "midi": 72,
      "hit": false,
      "t": 146564.80000000075,
      "d": 458.01500000001397,
      "v": 84
    },
    {
      "midi": 36,
      "hit": false,
      "t": 146564.80000000107,
      "d": 9.541979166679084,
      "v": 108
    },
    {
      "midi": 49,
      "hit": false,
      "t": 146564.80000000107,
      "d": 9.541979166679084,
      "v": 100
    },
    {
      "midi": 70,
      "hit": false,
      "t": 146564.80000000107,
      "d": 9.541979166679084,
      "v": 75
    },
    {
      "midi": 70,
      "hit": false,
      "t": 146679.30375000107,
      "d": 9.541979166679084,
      "v": 45
    },
    {
      "midi": 44,
      "hit": false,
      "t": 146793.80749999968,
      "d": 57.251874999987194,
      "v": 82
    },
    {
      "midi": 70,
      "hit": false,
      "t": 146793.80750000107,
      "d": 9.541979166679084,
      "v": 55
    },
    {
      "midi": 70,
      "hit": false,
      "t": 146908.31125000108,
      "d": 9.541979166679084,
      "v": 45
    },
    {
      "midi": 38,
      "hit": false,
      "t": 147018.04401041777,
      "d": 9.541979166679084,
      "v": 96
    },
    {
      "midi": 44,
      "hit": false,
      "t": 147022.81499999965,
      "d": 229.00750000000698,
      "v": 82
    },
    {
      "midi": 51,
      "hit": false,
      "t": 147022.81499999965,
      "d": 229.00750000000698,
      "v": 82
    },
    {
      "midi": 56,
      "hit": false,
      "t": 147022.81499999965,
      "d": 229.00750000000698,
      "v": 82
    },
    {
      "midi": 70,
      "hit": false,
      "t": 147022.8150000011,
      "d": 9.541979166679084,
      "v": 75
    },
    {
      "midi": 42,
      "hit": false,
      "t": 147022.8150000011,
      "d": 9.541979166679084,
      "v": 125
    },
    {
      "midi": 70,
      "hit": false,
      "t": 147137.3187500011,
      "d": 9.541979166679084,
      "v": 45
    },
    {
      "midi": 44,
      "hit": false,
      "t": 147251.82249999966,
      "d": 57.251874999987194,
      "v": 82
    },
    {
      "midi": 63,
      "hit": false,
      "t": 147251.82250000018,
      "d": 458.01500000001397,
      "v": 127
    },
    {
      "midi": 72,
      "hit": false,
      "t": 147251.82250000077,
      "d": 458.01500000001397,
      "v": 84
    },
    {
      "midi": 70,
      "hit": false,
      "t": 147251.82250000112,
      "d": 9.541979166679084,
      "v": 55
    },
    {
      "midi": 70,
      "hit": false,
      "t": 147366.32625000112,
      "d": 9.541979166679084,
      "v": 45
    },
    {
      "midi": 44,
      "hit": false,
      "t": 147480.82999999964,
      "d": 57.251874999987194,
      "v": 82
    },
    {
      "midi": 36,
      "hit": false,
      "t": 147480.83000000112,
      "d": 9.541979166679084,
      "v": 108
    },
    {
      "midi": 42,
      "hit": false,
      "t": 147480.83000000112,
      "d": 9.541979166679084,
      "v": 125
    },
    {
      "midi": 70,
      "hit": false,
      "t": 147480.83000000112,
      "d": 9.541979166679084,
      "v": 75
    },
    {
      "midi": 70,
      "hit": false,
      "t": 147595.33375000113,
      "d": 9.541979166679084,
      "v": 45
    },
    {
      "midi": 44,
      "hit": false,
      "t": 147709.83749999962,
      "d": 229.00750000000698,
      "v": 82
    },
    {
      "midi": 51,
      "hit": false,
      "t": 147709.83749999962,
      "d": 229.00750000000698,
      "v": 82
    },
    {
      "midi": 56,
      "hit": false,
      "t": 147709.83749999962,
      "d": 229.00750000000698,
      "v": 82
    },
    {
      "midi": 63,
      "hit": false,
      "t": 147709.8375000002,
      "d": 229.00750000000698,
      "v": 127
    },
    {
      "midi": 72,
      "hit": false,
      "t": 147709.83750000078,
      "d": 229.00750000000698,
      "v": 84
    },
    {
      "midi": 70,
      "hit": false,
      "t": 147709.83750000113,
      "d": 9.541979166679084,
      "v": 55
    },
    {
      "midi": 70,
      "hit": false,
      "t": 147824.34125000113,
      "d": 9.541979166679084,
      "v": 45
    },
    {
      "midi": 38,
      "hit": false,
      "t": 147934.07401041783,
      "d": 9.541979166679084,
      "v": 96
    },
    {
      "midi": 56,
      "hit": false,
      "t": 147938.84499999962,
      "d": 229.00750000000698,
      "v": 82
    },
    {
      "midi": 51,
      "hit": false,
      "t": 147938.84499999962,
      "d": 229.00750000000698,
      "v": 82
    },
    {
      "midi": 44,
      "hit": false,
      "t": 147938.84499999962,
      "d": 229.00750000000698,
      "v": 82
    },
    {
      "midi": 63,
      "hit": false,
      "t": 147938.8450000002,
      "d": 229.00750000000698,
      "v": 127
    },
    {
      "midi": 72,
      "hit": false,
      "t": 147938.8450000008,
      "d": 229.00750000000698,
      "v": 84
    },
    {
      "midi": 70,
      "hit": false,
      "t": 147938.84500000117,
      "d": 9.541979166679084,
      "v": 75
    },
    {
      "midi": 42,
      "hit": false,
      "t": 147938.84500000117,
      "d": 9.541979166679084,
      "v": 125
    },
    {
      "midi": 70,
      "hit": false,
      "t": 148053.34875000117,
      "d": 9.541979166679084,
      "v": 45
    },
    {
      "midi": 44,
      "hit": false,
      "t": 148167.85249999963,
      "d": 57.251874999987194,
      "v": 82
    },
    {
      "midi": 70,
      "hit": false,
      "t": 148167.85250000117,
      "d": 9.541979166679084,
      "v": 55
    },
    {
      "midi": 70,
      "hit": false,
      "t": 148282.35625000118,
      "d": 9.541979166679084,
      "v": 45
    },
    {
      "midi": 44,
      "hit": false,
      "t": 148396.8599999996,
      "d": 57.251874999987194,
      "v": 82
    },
    {
      "midi": 70,
      "hit": false,
      "t": 148396.8600000002,
      "d": 1049.6177083333314,
      "v": 100
    },
    {
      "midi": 65,
      "hit": false,
      "t": 148396.8600000002,
      "d": 1049.6177083333314,
      "v": 100
    },
    {
      "midi": 74,
      "hit": false,
      "t": 148396.8600000002,
      "d": 1049.6177083333314,
      "v": 100
    },
    {
      "midi": 63,
      "hit": false,
      "t": 148396.86000000022,
      "d": 458.01500000001397,
      "v": 127
    },
    {
      "midi": 72,
      "hit": false,
      "t": 148396.8600000008,
      "d": 458.01500000001397,
      "v": 84
    },
    {
      "midi": 36,
      "hit": false,
      "t": 148396.86000000118,
      "d": 9.541979166679084,
      "v": 108
    },
    {
      "midi": 42,
      "hit": false,
      "t": 148396.86000000118,
      "d": 9.541979166679084,
      "v": 125
    },
    {
      "midi": 70,
      "hit": false,
      "t": 148396.86000000118,
      "d": 9.541979166679084,
      "v": 75
    },
    {
      "midi": 70,
      "hit": false,
      "t": 148511.36375000118,
      "d": 9.541979166679084,
      "v": 45
    },
    {
      "midi": 44,
      "hit": false,
      "t": 148625.8674999996,
      "d": 57.251874999987194,
      "v": 82
    },
    {
      "midi": 70,
      "hit": false,
      "t": 148625.8675000012,
      "d": 9.541979166679084,
      "v": 55
    },
    {
      "midi": 70,
      "hit": false,
      "t": 148740.3712500012,
      "d": 9.541979166679084,
      "v": 45
    },
    {
      "midi": 38,
      "hit": false,
      "t": 148850.10401041788,
      "d": 9.541979166679084,
      "v": 96
    },
    {
      "midi": 44,
      "hit": false,
      "t": 148854.87499999956,
      "d": 229.00750000000698,
      "v": 82
    },
    {
      "midi": 51,
      "hit": false,
      "t": 148854.87499999956,
      "d": 229.00750000000698,
      "v": 82
    },
    {
      "midi": 56,
      "hit": false,
      "t": 148854.87499999956,
      "d": 229.00750000000698,
      "v": 82
    },
    {
      "midi": 62,
      "hit": false,
      "t": 148854.87500000023,
      "d": 229.00750000000698,
      "v": 127
    },
    {
      "midi": 70,
      "hit": false,
      "t": 148854.87500000081,
      "d": 229.00750000000698,
      "v": 84
    },
    {
      "midi": 70,
      "hit": false,
      "t": 148854.87500000122,
      "d": 9.541979166679084,
      "v": 75
    },
    {
      "midi": 42,
      "hit": false,
      "t": 148854.87500000122,
      "d": 9.541979166679084,
      "v": 125
    },
    {
      "midi": 70,
      "hit": false,
      "t": 148969.37875000123,
      "d": 9.541979166679084,
      "v": 45
    },
    {
      "midi": 44,
      "hit": false,
      "t": 149083.88249999957,
      "d": 57.251874999987194,
      "v": 82
    },
    {
      "midi": 60,
      "hit": false,
      "t": 149083.88250000024,
      "d": 458.01500000001397,
      "v": 127
    },
    {
      "midi": 68,
      "hit": false,
      "t": 149083.88250000082,
      "d": 458.01500000001397,
      "v": 84
    },
    {
      "midi": 70,
      "hit": false,
      "t": 149083.88250000123,
      "d": 9.541979166679084,
      "v": 55
    },
    {
      "midi": 70,
      "hit": false,
      "t": 149198.38625000123,
      "d": 9.541979166679084,
      "v": 45
    },
    {
      "midi": 44,
      "hit": false,
      "t": 149312.88999999955,
      "d": 57.251874999987194,
      "v": 82
    },
    {
      "midi": 36,
      "hit": false,
      "t": 149312.89000000124,
      "d": 9.541979166679084,
      "v": 108
    },
    {
      "midi": 42,
      "hit": false,
      "t": 149312.89000000124,
      "d": 9.541979166679084,
      "v": 125
    },
    {
      "midi": 70,
      "hit": false,
      "t": 149312.89000000124,
      "d": 9.541979166679084,
      "v": 75
    },
    {
      "midi": 70,
      "hit": false,
      "t": 149427.39375000124,
      "d": 9.541979166679084,
      "v": 45
    },
    {
      "midi": 51,
      "hit": false,
      "t": 149541.89749999953,
      "d": 229.00750000000698,
      "v": 82
    },
    {
      "midi": 56,
      "hit": false,
      "t": 149541.89749999953,
      "d": 229.00750000000698,
      "v": 82
    },
    {
      "midi": 44,
      "hit": false,
      "t": 149541.89749999953,
      "d": 229.00750000000698,
      "v": 82
    },
    {
      "midi": 58,
      "hit": false,
      "t": 149541.8975000002,
      "d": 229.00750000000698,
      "v": 110
    },
    {
      "midi": 70,
      "hit": false,
      "t": 149541.8975000002,
      "d": 229.00750000000698,
      "v": 110
    },
    {
      "midi": 62,
      "hit": false,
      "t": 149541.89750000025,
      "d": 229.00750000000698,
      "v": 127
    },
    {
      "midi": 70,
      "hit": false,
      "t": 149541.89750000084,
      "d": 229.00750000000698,
      "v": 84
    },
    {
      "midi": 70,
      "hit": false,
      "t": 149541.89750000124,
      "d": 9.541979166679084,
      "v": 55
    },
    {
      "midi": 70,
      "hit": false,
      "t": 149656.40125000125,
      "d": 9.541979166679084,
      "v": 45
    },
    {
      "midi": 38,
      "hit": false,
      "t": 149766.13401041794,
      "d": 9.541979166679084,
      "v": 96
    },
    {
      "midi": 44,
      "hit": false,
      "t": 149770.90499999953,
      "d": 57.251874999987194,
      "v": 82
    },
    {
      "midi": 60,
      "hit": false,
      "t": 149770.9050000002,
      "d": 458.01500000001397,
      "v": 110
    },
    {
      "midi": 72,
      "hit": false,
      "t": 149770.9050000002,
      "d": 458.01500000001397,
      "v": 110
    },
    {
      "midi": 63,
      "hit": false,
      "t": 149770.90500000026,
      "d": 458.01500000001397,
      "v": 127
    },
    {
      "midi": 72,
      "hit": false,
      "t": 149770.90500000084,
      "d": 458.01500000001397,
      "v": 84
    },
    {
      "midi": 70,
      "hit": false,
      "t": 149770.90500000128,
      "d": 9.541979166679084,
      "v": 75
    },
    {
      "midi": 42,
      "hit": false,
      "t": 149770.90500000128,
      "d": 9.541979166679084,
      "v": 125
    },
    {
      "midi": 70,
      "hit": false,
      "t": 149885.40875000128,
      "d": 9.541979166679084,
      "v": 45
    },
    {
      "midi": 44,
      "hit": false,
      "t": 149999.9124999995,
      "d": 57.251874999987194,
      "v": 82
    },
    {
      "midi": 70,
      "hit": false,
      "t": 149999.9125000013,
      "d": 9.541979166679084,
      "v": 55
    },
    {
      "midi": 70,
      "hit": false,
      "t": 150114.4162500013,
      "d": 9.541979166679084,
      "v": 45
    },
    {
      "midi": 43,
      "hit": false,
      "t": 150228.9199999995,
      "d": 57.251874999987194,
      "v": 82
    },
    {
      "midi": 62,
      "hit": false,
      "t": 150228.92000000022,
      "d": 1832.0599999999977,
      "v": 100
    },
    {
      "midi": 58,
      "hit": false,
      "t": 150228.92000000022,
      "d": 1832.0599999999977,
      "v": 100
    },
    {
      "midi": 67,
      "hit": false,
      "t": 150228.92000000022,
      "d": 1832.0599999999977,
      "v": 100
    },
    {
      "midi": 70,
      "hit": false,
      "t": 150228.92000000022,
      "d": 1832.0599999999977,
      "v": 100
    },
    {
      "midi": 62,
      "hit": false,
      "t": 150228.92000000027,
      "d": 458.01500000001397,
      "v": 127
    },
    {
      "midi": 70,
      "hit": false,
      "t": 150228.92000000086,
      "d": 458.01500000001397,
      "v": 84
    },
    {
      "midi": 36,
      "hit": false,
      "t": 150228.9200000013,
      "d": 9.541979166679084,
      "v": 108
    },
    {
      "midi": 42,
      "hit": false,
      "t": 150228.9200000013,
      "d": 9.541979166679084,
      "v": 125
    },
    {
      "midi": 70,
      "hit": false,
      "t": 150228.9200000013,
      "d": 9.541979166679084,
      "v": 75
    },
    {
      "midi": 70,
      "hit": false,
      "t": 150343.4237500013,
      "d": 9.541979166679084,
      "v": 45
    },
    {
      "midi": 43,
      "hit": false,
      "t": 150457.92749999947,
      "d": 57.251874999987194,
      "v": 82
    },
    {
      "midi": 70,
      "hit": false,
      "t": 150457.9275000013,
      "d": 9.541979166679084,
      "v": 55
    },
    {
      "midi": 70,
      "hit": false,
      "t": 150572.4312500013,
      "d": 9.541979166679084,
      "v": 45
    },
    {
      "midi": 38,
      "hit": false,
      "t": 150682.164010418,
      "d": 9.541979166679084,
      "v": 96
    },
    {
      "midi": 50,
      "hit": false,
      "t": 150686.93499999944,
      "d": 229.00750000000698,
      "v": 87
    },
    {
      "midi": 55,
      "hit": false,
      "t": 150686.93499999944,
      "d": 229.00750000000698,
      "v": 87
    },
    {
      "midi": 70,
      "hit": false,
      "t": 150686.93500000134,
      "d": 9.541979166679084,
      "v": 75
    },
    {
      "midi": 42,
      "hit": false,
      "t": 150686.93500000134,
      "d": 9.541979166679084,
      "v": 125
    },
    {
      "midi": 70,
      "hit": false,
      "t": 150801.43875000134,
      "d": 9.541979166679084,
      "v": 45
    },
    {
      "midi": 43,
      "hit": false,
      "t": 150915.94249999945,
      "d": 57.251874999987194,
      "v": 82
    },
    {
      "midi": 70,
      "hit": false,
      "t": 150915.94250000088,
      "d": 229.00750000000698,
      "v": 84
    },
    {
      "midi": 70,
      "hit": false,
      "t": 150915.94250000134,
      "d": 9.541979166679084,
      "v": 55
    },
    {
      "midi": 70,
      "hit": false,
      "t": 151030.44625000135,
      "d": 9.541979166679084,
      "v": 45
    },
    {
      "midi": 43,
      "hit": false,
      "t": 151144.94999999943,
      "d": 57.251874999987194,
      "v": 82
    },
    {
      "midi": 70,
      "hit": false,
      "t": 151144.95000000088,
      "d": 248.09145833333605,
      "v": 84
    },
    {
      "midi": 36,
      "hit": false,
      "t": 151144.95000000135,
      "d": 9.541979166679084,
      "v": 108
    },
    {
      "midi": 42,
      "hit": false,
      "t": 151144.95000000135,
      "d": 9.541979166679084,
      "v": 125
    },
    {
      "midi": 70,
      "hit": false,
      "t": 151144.95000000135,
      "d": 9.541979166679084,
      "v": 75
    },
    {
      "midi": 70,
      "hit": false,
      "t": 151259.45375000135,
      "d": 9.541979166679084,
      "v": 45
    },
    {
      "midi": 50,
      "hit": false,
      "t": 151373.9574999994,
      "d": 229.00750000000698,
      "v": 87
    },
    {
      "midi": 55,
      "hit": false,
      "t": 151373.9574999994,
      "d": 229.00750000000698,
      "v": 87
    },
    {
      "midi": 70,
      "hit": false,
      "t": 151373.95750000136,
      "d": 9.541979166679084,
      "v": 55
    },
    {
      "midi": 72,
      "hit": false,
      "t": 151488.4612500009,
      "d": 300.5723437500128,
      "v": 84
    },
    {
      "midi": 70,
      "hit": false,
      "t": 151488.46125000136,
      "d": 9.541979166679084,
      "v": 45
    },
    {
      "midi": 38,
      "hit": false,
      "t": 151598.19401041805,
      "d": 9.541979166679084,
      "v": 96
    },
    {
      "midi": 43,
      "hit": false,
      "t": 151602.9649999994,
      "d": 57.251874999987194,
      "v": 82
    },
    {
      "midi": 70,
      "hit": false,
      "t": 151602.9650000014,
      "d": 9.541979166679084,
      "v": 75
    },
    {
      "midi": 42,
      "hit": false,
      "t": 151602.9650000014,
      "d": 9.541979166679084,
      "v": 125
    },
    {
      "midi": 70,
      "hit": false,
      "t": 151717.4687500014,
      "d": 9.541979166679084,
      "v": 45
    },
    {
      "midi": 43,
      "hit": false,
      "t": 151831.9724999994,
      "d": 57.251874999987194,
      "v": 82
    },
    {
      "midi": 74,
      "hit": false,
      "t": 151831.9725000009,
      "d": 229.00750000000698,
      "v": 84
    },
    {
      "midi": 70,
      "hit": false,
      "t": 151831.9725000014,
      "d": 9.541979166679084,
      "v": 55
    },
    {
      "midi": 70,
      "hit": false,
      "t": 151946.4762500014,
      "d": 9.541979166679084,
      "v": 45
    },
    {
      "midi": 48,
      "hit": false,
      "t": 152060.97999999937,
      "d": 57.251874999987194,
      "v": 82
    },
    {
      "midi": 63,
      "hit": false,
      "t": 152060.9800000002,
      "d": 1259.5412500000093,
      "v": 100
    },
    {
      "midi": 60,
      "hit": false,
      "t": 152060.9800000002,
      "d": 1259.5412500000093,
      "v": 100
    },
    {
      "midi": 67,
      "hit": false,
      "t": 152060.9800000002,
      "d": 1259.5412500000093,
      "v": 100
    },
    {
      "midi": 72,
      "hit": false,
      "t": 152060.9800000002,
      "d": 1259.5412500000093,
      "v": 100
    },
    {
      "midi": 75,
      "hit": false,
      "t": 152060.9800000009,
      "d": 229.00750000000698,
      "v": 84
    },
    {
      "midi": 36,
      "hit": false,
      "t": 152060.9800000014,
      "d": 9.541979166679084,
      "v": 108
    },
    {
      "midi": 42,
      "hit": false,
      "t": 152060.9800000014,
      "d": 9.541979166679084,
      "v": 125
    },
    {
      "midi": 70,
      "hit": false,
      "t": 152060.9800000014,
      "d": 9.541979166679084,
      "v": 75
    },
    {
      "midi": 70,
      "hit": false,
      "t": 152175.4837500014,
      "d": 9.541979166679084,
      "v": 45
    },
    {
      "midi": 48,
      "hit": false,
      "t": 152289.98749999935,
      "d": 57.251874999987194,
      "v": 82
    },
    {
      "midi": 74,
      "hit": false,
      "t": 152289.98750000092,
      "d": 229.00750000000698,
      "v": 84
    },
    {
      "midi": 70,
      "hit": false,
      "t": 152289.9875000014,
      "d": 9.541979166679084,
      "v": 55
    },
    {
      "midi": 70,
      "hit": false,
      "t": 152404.49125000142,
      "d": 9.541979166679084,
      "v": 45
    },
    {
      "midi": 38,
      "hit": false,
      "t": 152514.2240104181,
      "d": 9.541979166679084,
      "v": 96
    },
    {
      "midi": 48,
      "hit": false,
      "t": 152518.99499999933,
      "d": 229.00750000000698,
      "v": 82
    },
    {
      "midi": 55,
      "hit": false,
      "t": 152518.99499999933,
      "d": 229.00750000000698,
      "v": 82
    },
    {
      "midi": 60,
      "hit": false,
      "t": 152518.99499999933,
      "d": 229.00750000000698,
      "v": 82
    },
    {
      "midi": 75,
      "hit": false,
      "t": 152518.99500000093,
      "d": 229.00750000000698,
      "v": 84
    },
    {
      "midi": 70,
      "hit": false,
      "t": 152518.99500000145,
      "d": 9.541979166679084,
      "v": 75
    },
    {
      "midi": 42,
      "hit": false,
      "t": 152518.99500000145,
      "d": 9.541979166679084,
      "v": 125
    },
    {
      "midi": 70,
      "hit": false,
      "t": 152633.49875000145,
      "d": 9.541979166679084,
      "v": 45
    },
    {
      "midi": 48,
      "hit": false,
      "t": 152748.00249999933,
      "d": 57.251874999987194,
      "v": 82
    },
    {
      "midi": 75,
      "hit": false,
      "t": 152748.00250000093,
      "d": 229.00750000000698,
      "v": 84
    },
    {
      "midi": 70,
      "hit": false,
      "t": 152748.00250000146,
      "d": 9.541979166679084,
      "v": 55
    },
    {
      "midi": 70,
      "hit": false,
      "t": 152862.50625000146,
      "d": 9.541979166679084,
      "v": 45
    },
    {
      "midi": 48,
      "hit": false,
      "t": 152977.0099999993,
      "d": 57.251874999987194,
      "v": 82
    },
    {
      "midi": 70,
      "hit": false,
      "t": 152977.01000000094,
      "d": 229.00750000000698,
      "v": 84
    },
    {
      "midi": 36,
      "hit": false,
      "t": 152977.01000000146,
      "d": 9.541979166679084,
      "v": 108
    },
    {
      "midi": 42,
      "hit": false,
      "t": 152977.01000000146,
      "d": 9.541979166679084,
      "v": 125
    },
    {
      "midi": 70,
      "hit": false,
      "t": 152977.01000000146,
      "d": 9.541979166679084,
      "v": 75
    },
    {
      "midi": 70,
      "hit": false,
      "t": 153091.51375000147,
      "d": 9.541979166679084,
      "v": 45
    },
    {
      "midi": 48,
      "hit": false,
      "t": 153206.0174999993,
      "d": 229.00750000000698,
      "v": 82
    },
    {
      "midi": 55,
      "hit": false,
      "t": 153206.0174999993,
      "d": 229.00750000000698,
      "v": 82
    },
    {
      "midi": 60,
      "hit": false,
      "t": 153206.0174999993,
      "d": 229.00750000000698,
      "v": 82
    },
    {
      "midi": 68,
      "hit": false,
      "t": 153206.01750000095,
      "d": 229.00750000000698,
      "v": 84
    },
    {
      "midi": 70,
      "hit": false,
      "t": 153206.01750000147,
      "d": 9.541979166679084,
      "v": 55
    },
    {
      "midi": 70,
      "hit": false,
      "t": 153320.52125000147,
      "d": 9.541979166679084,
      "v": 45
    },
    {
      "midi": 38,
      "hit": false,
      "t": 153430.25401041817,
      "d": 9.541979166679084,
      "v": 96
    },
    {
      "midi": 48,
      "hit": false,
      "t": 153435.0249999993,
      "d": 57.251874999987194,
      "v": 82
    },
    {
      "midi": 63,
      "hit": false,
      "t": 153435.02500000023,
      "d": 458.01500000001397,
      "v": 110
    },
    {
      "midi": 75,
      "hit": false,
      "t": 153435.02500000023,
      "d": 458.01500000001397,
      "v": 110
    },
    {
      "midi": 68,
      "hit": false,
      "t": 153435.02500000095,
      "d": 229.00750000000698,
      "v": 84
    },
    {
      "midi": 70,
      "hit": false,
      "t": 153435.0250000015,
      "d": 9.541979166679084,
      "v": 75
    },
    {
      "midi": 42,
      "hit": false,
      "t": 153435.0250000015,
      "d": 9.541979166679084,
      "v": 125
    },
    {
      "midi": 70,
      "hit": false,
      "t": 153549.5287500015,
      "d": 9.541979166679084,
      "v": 45
    },
    {
      "midi": 48,
      "hit": false,
      "t": 153664.03249999927,
      "d": 57.251874999987194,
      "v": 82
    },
    {
      "midi": 67,
      "hit": false,
      "t": 153664.03250000096,
      "d": 229.00750000000698,
      "v": 84
    },
    {
      "midi": 70,
      "hit": false,
      "t": 153664.03250000151,
      "d": 9.541979166679084,
      "v": 55
    },
    {
      "midi": 70,
      "hit": false,
      "t": 153778.53625000152,
      "d": 9.541979166679084,
      "v": 45
    },
    {
      "midi": 41,
      "hit": false,
      "t": 153893.03999999925,
      "d": 57.251874999987194,
      "v": 82
    },
    {
      "midi": 68,
      "hit": false,
      "t": 153893.04000000024,
      "d": 1832.0599999999977,
      "v": 100
    },
    {
      "midi": 65,
      "hit": false,
      "t": 153893.04000000024,
      "d": 1832.0599999999977,
      "v": 100
    },
    {
      "midi": 72,
      "hit": false,
      "t": 153893.04000000024,
      "d": 1832.0599999999977,
      "v": 100
    },
    {
      "midi": 77,
      "hit": false,
      "t": 153893.04000000024,
      "d": 1832.0599999999977,
      "v": 100
    },
    {
      "midi": 68,
      "hit": false,
      "t": 153893.04000000097,
      "d": 916.0299999999988,
      "v": 84
    },
    {
      "midi": 36,
      "hit": false,
      "t": 153893.04000000152,
      "d": 9.541979166679084,
      "v": 108
    },
    {
      "midi": 49,
      "hit": false,
      "t": 153893.04000000152,
      "d": 9.541979166679084,
      "v": 100
    },
    {
      "midi": 70,
      "hit": false,
      "t": 153893.04000000152,
      "d": 9.541979166679084,
      "v": 75
    },
    {
      "midi": 70,
      "hit": false,
      "t": 154007.54375000153,
      "d": 9.541979166679084,
      "v": 45
    },
    {
      "midi": 41,
      "hit": false,
      "t": 154122.04749999923,
      "d": 57.251874999987194,
      "v": 82
    },
    {
      "midi": 70,
      "hit": false,
      "t": 154122.04750000153,
      "d": 9.541979166679084,
      "v": 55
    },
    {
      "midi": 70,
      "hit": false,
      "t": 154236.55125000153,
      "d": 9.541979166679084,
      "v": 45
    },
    {
      "midi": 38,
      "hit": false,
      "t": 154346.28401041823,
      "d": 9.541979166679084,
      "v": 96
    },
    {
      "midi": 48,
      "hit": false,
      "t": 154351.0549999992,
      "d": 229.00750000000698,
      "v": 82
    },
    {
      "midi": 53,
      "hit": false,
      "t": 154351.0549999992,
      "d": 229.00750000000698,
      "v": 82
    },
    {
      "midi": 70,
      "hit": false,
      "t": 154351.05500000156,
      "d": 9.541979166679084,
      "v": 75
    },
    {
      "midi": 42,
      "hit": false,
      "t": 154351.05500000156,
      "d": 9.541979166679084,
      "v": 125
    },
    {
      "midi": 70,
      "hit": false,
      "t": 154465.55875000157,
      "d": 9.541979166679084,
      "v": 45
    },
    {
      "midi": 41,
      "hit": false,
      "t": 154580.0624999992,
      "d": 57.251874999987194,
      "v": 82
    },
    {
      "midi": 70,
      "hit": false,
      "t": 154580.06250000157,
      "d": 9.541979166679084,
      "v": 55
    },
    {
      "midi": 70,
      "hit": false,
      "t": 154694.56625000158,
      "d": 9.541979166679084,
      "v": 45
    },
    {
      "midi": 41,
      "hit": false,
      "t": 154809.0699999992,
      "d": 57.251874999987194,
      "v": 82
    },
    {
      "midi": 36,
      "hit": false,
      "t": 154809.07000000158,
      "d": 9.541979166679084,
      "v": 108
    },
    {
      "midi": 42,
      "hit": false,
      "t": 154809.07000000158,
      "d": 9.541979166679084,
      "v": 125
    },
    {
      "midi": 70,
      "hit": false,
      "t": 154809.07000000158,
      "d": 9.541979166679084,
      "v": 75
    },
    {
      "midi": 70,
      "hit": false,
      "t": 154923.57375000158,
      "d": 9.541979166679084,
      "v": 45
    },
    {
      "midi": 48,
      "hit": false,
      "t": 155038.07749999917,
      "d": 229.00750000000698,
      "v": 82
    },
    {
      "midi": 53,
      "hit": false,
      "t": 155038.07749999917,
      "d": 229.00750000000698,
      "v": 82
    },
    {
      "midi": 68,
      "hit": false,
      "t": 155038.07750000097,
      "d": 229.00750000000698,
      "v": 84
    },
    {
      "midi": 70,
      "hit": false,
      "t": 155038.0775000016,
      "d": 9.541979166679084,
      "v": 55
    },
    {
      "midi": 70,
      "hit": false,
      "t": 155152.5812500016,
      "d": 9.541979166679084,
      "v": 45
    },
    {
      "midi": 38,
      "hit": false,
      "t": 155262.31401041828,
      "d": 9.541979166679084,
      "v": 96
    },
    {
      "midi": 48,
      "hit": false,
      "t": 155267.08499999918,
      "d": 229.00750000000698,
      "v": 82
    },
    {
      "midi": 53,
      "hit": false,
      "t": 155267.08499999918,
      "d": 229.00750000000698,
      "v": 82
    },
    {
      "midi": 70,
      "hit": false,
      "t": 155267.08500000098,
      "d": 229.00750000000698,
      "v": 84
    },
    {
      "midi": 70,
      "hit": false,
      "t": 155267.08500000162,
      "d": 9.541979166679084,
      "v": 75
    },
    {
      "midi": 42,
      "hit": false,
      "t": 155267.08500000162,
      "d": 9.541979166679084,
      "v": 125
    },
    {
      "midi": 70,
      "hit": false,
      "t": 155381.58875000163,
      "d": 9.541979166679084,
      "v": 45
    },
    {
      "midi": 41,
      "hit": false,
      "t": 155496.09249999918,
      "d": 57.251874999987194,
      "v": 82
    },
    {
      "midi": 68,
      "hit": false,
      "t": 155496.092500001,
      "d": 229.00750000000698,
      "v": 84
    },
    {
      "midi": 70,
      "hit": false,
      "t": 155496.09250000163,
      "d": 9.541979166679084,
      "v": 55
    },
    {
      "midi": 70,
      "hit": false,
      "t": 155610.59625000163,
      "d": 9.541979166679084,
      "v": 45
    },
    {
      "midi": 43,
      "hit": false,
      "t": 155725.09999999916,
      "d": 57.251874999987194,
      "v": 82
    },
    {
      "midi": 72,
      "hit": false,
      "t": 155725.10000000024,
      "d": 916.0299999999988,
      "v": 100
    },
    {
      "midi": 62,
      "hit": false,
      "t": 155725.10000000024,
      "d": 916.0299999999988,
      "v": 100
    },
    {
      "midi": 67,
      "hit": false,
      "t": 155725.10000000024,
      "d": 916.0299999999988,
      "v": 100
    },
    {
      "midi": 67,
      "hit": false,
      "t": 155725.100000001,
      "d": 229.00750000000698,
      "v": 84
    },
    {
      "midi": 36,
      "hit": false,
      "t": 155725.10000000164,
      "d": 9.541979166679084,
      "v": 108
    },
    {
      "midi": 42,
      "hit": false,
      "t": 155725.10000000164,
      "d": 9.541979166679084,
      "v": 125
    },
    {
      "midi": 70,
      "hit": false,
      "t": 155725.10000000164,
      "d": 9.541979166679084,
      "v": 75
    },
    {
      "midi": 70,
      "hit": false,
      "t": 155839.60375000164,
      "d": 9.541979166679084,
      "v": 45
    },
    {
      "midi": 43,
      "hit": false,
      "t": 155954.10749999914,
      "d": 57.251874999987194,
      "v": 82
    },
    {
      "midi": 67,
      "hit": false,
      "t": 155954.107500001,
      "d": 229.00750000000698,
      "v": 84
    },
    {
      "midi": 70,
      "hit": false,
      "t": 155954.10750000164,
      "d": 9.541979166679084,
      "v": 55
    },
    {
      "midi": 70,
      "hit": false,
      "t": 156068.61125000165,
      "d": 9.541979166679084,
      "v": 45
    },
    {
      "midi": 38,
      "hit": false,
      "t": 156178.34401041834,
      "d": 9.541979166679084,
      "v": 96
    },
    {
      "midi": 43,
      "hit": false,
      "t": 156183.11499999912,
      "d": 229.00750000000698,
      "v": 82
    },
    {
      "midi": 50,
      "hit": false,
      "t": 156183.11499999912,
      "d": 229.00750000000698,
      "v": 82
    },
    {
      "midi": 55,
      "hit": false,
      "t": 156183.11499999912,
      "d": 229.00750000000698,
      "v": 82
    },
    {
      "midi": 70,
      "hit": false,
      "t": 156183.11500000168,
      "d": 9.541979166679084,
      "v": 75
    },
    {
      "midi": 42,
      "hit": false,
      "t": 156183.11500000168,
      "d": 9.541979166679084,
      "v": 125
    },
    {
      "midi": 70,
      "hit": false,
      "t": 156297.61875000168,
      "d": 9.541979166679084,
      "v": 45
    },
    {
      "midi": 43,
      "hit": false,
      "t": 156412.12249999912,
      "d": 57.251874999987194,
      "v": 82
    },
    {
      "midi": 67,
      "hit": false,
      "t": 156412.12250000102,
      "d": 229.00750000000698,
      "v": 84
    },
    {
      "midi": 70,
      "hit": false,
      "t": 156412.1225000017,
      "d": 9.541979166679084,
      "v": 55
    },
    {
      "midi": 70,
      "hit": false,
      "t": 156526.6262500017,
      "d": 9.541979166679084,
      "v": 45
    },
    {
      "midi": 43,
      "hit": false,
      "t": 156641.1299999991,
      "d": 57.251874999987194,
      "v": 82
    },
    {
      "midi": 62,
      "hit": false,
      "t": 156641.13000000024,
      "d": 916.0299999999988,
      "v": 100
    },
    {
      "midi": 67,
      "hit": false,
      "t": 156641.13000000024,
      "d": 916.0299999999988,
      "v": 100
    },
    {
      "midi": 71,
      "hit": false,
      "t": 156641.13000000024,
      "d": 916.0299999999988,
      "v": 100
    },
    {
      "midi": 67,
      "hit": false,
      "t": 156641.13000000102,
      "d": 229.00750000000698,
      "v": 84
    },
    {
      "midi": 36,
      "hit": false,
      "t": 156641.1300000017,
      "d": 9.541979166679084,
      "v": 108
    },
    {
      "midi": 42,
      "hit": false,
      "t": 156641.1300000017,
      "d": 9.541979166679084,
      "v": 125
    },
    {
      "midi": 70,
      "hit": false,
      "t": 156641.1300000017,
      "d": 9.541979166679084,
      "v": 75
    },
    {
      "midi": 70,
      "hit": false,
      "t": 156755.6337500017,
      "d": 9.541979166679084,
      "v": 45
    },
    {
      "midi": 43,
      "hit": false,
      "t": 156870.13749999908,
      "d": 229.00750000000698,
      "v": 82
    },
    {
      "midi": 50,
      "hit": false,
      "t": 156870.13749999908,
      "d": 229.00750000000698,
      "v": 82
    },
    {
      "midi": 55,
      "hit": false,
      "t": 156870.13749999908,
      "d": 229.00750000000698,
      "v": 82
    },
    {
      "midi": 79,
      "hit": false,
      "t": 156870.13750000103,
      "d": 458.01500000001397,
      "v": 84
    },
    {
      "midi": 70,
      "hit": false,
      "t": 156870.1375000017,
      "d": 9.541979166679084,
      "v": 55
    },
    {
      "midi": 70,
      "hit": false,
      "t": 156984.6412500017,
      "d": 9.541979166679084,
      "v": 45
    },
    {
      "midi": 38,
      "hit": false,
      "t": 157094.3740104184,
      "d": 9.541979166679084,
      "v": 96
    },
    {
      "midi": 43,
      "hit": false,
      "t": 157099.1449999991,
      "d": 57.251874999987194,
      "v": 82
    },
    {
      "midi": 70,
      "hit": false,
      "t": 157099.14500000174,
      "d": 9.541979166679084,
      "v": 75
    },
    {
      "midi": 42,
      "hit": false,
      "t": 157099.14500000174,
      "d": 9.541979166679084,
      "v": 125
    },
    {
      "midi": 70,
      "hit": false,
      "t": 157213.64875000174,
      "d": 9.541979166679084,
      "v": 45
    },
    {
      "midi": 43,
      "hit": false,
      "t": 157328.15249999907,
      "d": 57.251874999987194,
      "v": 82
    },
    {
      "midi": 77,
      "hit": false,
      "t": 157328.15250000104,
      "d": 229.00750000000698,
      "v": 84
    },
    {
      "midi": 70,
      "hit": false,
      "t": 157328.15250000174,
      "d": 9.541979166679084,
      "v": 55
    },
    {
      "midi": 70,
      "hit": false,
      "t": 157442.65625000175,
      "d": 9.541979166679084,
      "v": 45
    },
    {
      "midi": 48,
      "hit": false,
      "t": 157557.15999999904,
      "d": 57.251874999987194,
      "v": 82
    },
    {
      "midi": 60,
      "hit": false,
      "t": 157557.16000000024,
      "d": 1221.373333333322,
      "v": 100
    },
    {
      "midi": 63,
      "hit": false,
      "t": 157557.16000000024,
      "d": 1221.373333333322,
      "v": 100
    },
    {
      "midi": 70,
      "hit": false,
      "t": 157557.16000000024,
      "d": 1221.373333333322,
      "v": 100
    },
    {
      "midi": 67,
      "hit": false,
      "t": 157557.16000000024,
      "d": 1221.373333333322,
      "v": 100
    },
    {
      "midi": 77,
      "hit": false,
      "t": 157557.16000000105,
      "d": 916.0299999999988,
      "v": 84
    },
    {
      "midi": 36,
      "hit": false,
      "t": 157557.16000000175,
      "d": 9.541979166679084,
      "v": 108
    },
    {
      "midi": 42,
      "hit": false,
      "t": 157557.16000000175,
      "d": 9.541979166679084,
      "v": 125
    },
    {
      "midi": 70,
      "hit": false,
      "t": 157557.16000000175,
      "d": 9.541979166679084,
      "v": 75
    },
    {
      "midi": 70,
      "hit": false,
      "t": 157671.66375000175,
      "d": 9.541979166679084,
      "v": 45
    },
    {
      "midi": 48,
      "hit": false,
      "t": 157786.16749999902,
      "d": 57.251874999987194,
      "v": 82
    },
    {
      "midi": 70,
      "hit": false,
      "t": 157786.16750000176,
      "d": 9.541979166679084,
      "v": 55
    },
    {
      "midi": 70,
      "hit": false,
      "t": 157900.67125000176,
      "d": 9.541979166679084,
      "v": 45
    },
    {
      "midi": 38,
      "hit": false,
      "t": 158010.40401041845,
      "d": 9.541979166679084,
      "v": 96
    },
    {
      "midi": 55,
      "hit": false,
      "t": 158015.174999999,
      "d": 229.00750000000698,
      "v": 87
    },
    {
      "midi": 60,
      "hit": false,
      "t": 158015.174999999,
      "d": 229.00750000000698,
      "v": 87
    },
    {
      "midi": 70,
      "hit": false,
      "t": 158015.1750000018,
      "d": 9.541979166679084,
      "v": 75
    },
    {
      "midi": 42,
      "hit": false,
      "t": 158015.1750000018,
      "d": 9.541979166679084,
      "v": 125
    },
    {
      "midi": 70,
      "hit": false,
      "t": 158129.6787500018,
      "d": 9.541979166679084,
      "v": 45
    },
    {
      "midi": 48,
      "hit": false,
      "t": 158244.182499999,
      "d": 57.251874999987194,
      "v": 82
    },
    {
      "midi": 70,
      "hit": false,
      "t": 158244.1825000018,
      "d": 9.541979166679084,
      "v": 55
    },
    {
      "midi": 70,
      "hit": false,
      "t": 158358.6862500018,
      "d": 9.541979166679084,
      "v": 45
    },
    {
      "midi": 48,
      "hit": false,
      "t": 158473.18999999898,
      "d": 57.251874999987194,
      "v": 82
    },
    {
      "midi": 77,
      "hit": false,
      "t": 158473.19000000105,
      "d": 229.00750000000698,
      "v": 84
    },
    {
      "midi": 36,
      "hit": false,
      "t": 158473.1900000018,
      "d": 9.541979166679084,
      "v": 108
    },
    {
      "midi": 42,
      "hit": false,
      "t": 158473.1900000018,
      "d": 9.541979166679084,
      "v": 125
    },
    {
      "midi": 70,
      "hit": false,
      "t": 158473.1900000018,
      "d": 9.541979166679084,
      "v": 75
    },
    {
      "midi": 70,
      "hit": false,
      "t": 158587.6937500018,
      "d": 9.541979166679084,
      "v": 45
    },
    {
      "midi": 55,
      "hit": false,
      "t": 158702.19749999896,
      "d": 229.00750000000698,
      "v": 87
    },
    {
      "midi": 60,
      "hit": false,
      "t": 158702.19749999896,
      "d": 229.00750000000698,
      "v": 87
    },
    {
      "midi": 75,
      "hit": false,
      "t": 158702.19750000106,
      "d": 229.00750000000698,
      "v": 84
    },
    {
      "midi": 70,
      "hit": false,
      "t": 158702.1975000018,
      "d": 9.541979166679084,
      "v": 55
    },
    {
      "midi": 70,
      "hit": false,
      "t": 158816.70125000182,
      "d": 9.541979166679084,
      "v": 45
    },
    {
      "midi": 38,
      "hit": false,
      "t": 158926.4340104185,
      "d": 9.541979166679084,
      "v": 96
    },
    {
      "midi": 48,
      "hit": false,
      "t": 158931.20499999897,
      "d": 57.251874999987194,
      "v": 82
    },
    {
      "midi": 60,
      "hit": false,
      "t": 158931.20500000022,
      "d": 229.00750000000698,
      "v": 110
    },
    {
      "midi": 74,
      "hit": false,
      "t": 158931.20500000106,
      "d": 229.00750000000698,
      "v": 84
    },
    {
      "midi": 70,
      "hit": false,
      "t": 158931.20500000185,
      "d": 9.541979166679084,
      "v": 75
    },
    {
      "midi": 42,
      "hit": false,
      "t": 158931.20500000185,
      "d": 9.541979166679084,
      "v": 125
    },
    {
      "midi": 70,
      "hit": false,
      "t": 159045.70875000185,
      "d": 9.541979166679084,
      "v": 45
    },
    {
      "midi": 48,
      "hit": false,
      "t": 159160.21249999895,
      "d": 57.251874999987194,
      "v": 82
    },
    {
      "midi": 59,
      "hit": false,
      "t": 159160.21250000023,
      "d": 229.00750000000698,
      "v": 110
    },
    {
      "midi": 75,
      "hit": false,
      "t": 159160.21250000107,
      "d": 687.0224999999919,
      "v": 84
    },
    {
      "midi": 70,
      "hit": false,
      "t": 159160.21250000186,
      "d": 9.541979166679084,
      "v": 55
    },
    {
      "midi": 70,
      "hit": false,
      "t": 159274.71625000186,
      "d": 9.541979166679084,
      "v": 45
    },
    {
      "midi": 46,
      "hit": false,
      "t": 159389.21999999892,
      "d": 57.251874999987194,
      "v": 82
    },
    {
      "midi": 70,
      "hit": false,
      "t": 159389.22000000023,
      "d": 801.5262499999953,
      "v": 100
    },
    {
      "midi": 67,
      "hit": false,
      "t": 159389.22000000023,
      "d": 801.5262499999953,
      "v": 100
    },
    {
      "midi": 72,
      "hit": false,
      "t": 159389.22000000023,
      "d": 801.5262499999953,
      "v": 100
    },
    {
      "midi": 63,
      "hit": false,
      "t": 159389.22000000023,
      "d": 801.5262499999953,
      "v": 100
    },
    {
      "midi": 58,
      "hit": false,
      "t": 159389.22000000023,
      "d": 916.0299999999988,
      "v": 110
    },
    {
      "midi": 36,
      "hit": false,
      "t": 159389.22000000186,
      "d": 9.541979166679084,
      "v": 108
    },
    {
      "midi": 42,
      "hit": false,
      "t": 159389.22000000186,
      "d": 9.541979166679084,
      "v": 125
    },
    {
      "midi": 70,
      "hit": false,
      "t": 159389.22000000186,
      "d": 9.541979166679084,
      "v": 75
    },
    {
      "midi": 70,
      "hit": false,
      "t": 159503.72375000187,
      "d": 9.541979166679084,
      "v": 45
    },
    {
      "midi": 46,
      "hit": false,
      "t": 159618.2274999989,
      "d": 57.251874999987194,
      "v": 82
    },
    {
      "midi": 70,
      "hit": false,
      "t": 159618.22750000187,
      "d": 9.541979166679084,
      "v": 55
    },
    {
      "midi": 70,
      "hit": false,
      "t": 159732.73125000187,
      "d": 9.541979166679084,
      "v": 45
    },
    {
      "midi": 38,
      "hit": false,
      "t": 159842.46401041857,
      "d": 9.541979166679084,
      "v": 96
    },
    {
      "midi": 53,
      "hit": false,
      "t": 159847.23499999888,
      "d": 229.00750000000698,
      "v": 82
    },
    {
      "midi": 58,
      "hit": false,
      "t": 159847.23499999888,
      "d": 229.00750000000698,
      "v": 82
    },
    {
      "midi": 70,
      "hit": false,
      "t": 159847.2350000019,
      "d": 9.541979166679084,
      "v": 75
    },
    {
      "midi": 42,
      "hit": false,
      "t": 159847.2350000019,
      "d": 9.541979166679084,
      "v": 125
    },
    {
      "midi": 70,
      "hit": false,
      "t": 159961.7387500019,
      "d": 9.541979166679084,
      "v": 45
    },
    {
      "midi": 46,
      "hit": false,
      "t": 160076.2424999989,
      "d": 57.251874999987194,
      "v": 82
    },
    {
      "midi": 70,
      "hit": false,
      "t": 160076.2425000019,
      "d": 9.541979166679084,
      "v": 55
    },
    {
      "midi": 70,
      "hit": false,
      "t": 160190.74625000192,
      "d": 9.541979166679084,
      "v": 45
    },
    {
      "midi": 46,
      "hit": false,
      "t": 160305.24999999886,
      "d": 57.251874999987194,
      "v": 82
    },
    {
      "midi": 60,
      "hit": false,
      "t": 160305.25000000023,
      "d": 458.01500000001397,
      "v": 110
    },
    {
      "midi": 72,
      "hit": false,
      "t": 160305.25000000023,
      "d": 458.01500000001397,
      "v": 110
    },
    {
      "midi": 72,
      "hit": false,
      "t": 160305.25000000108,
      "d": 229.00750000000698,
      "v": 84
    },
    {
      "midi": 36,
      "hit": false,
      "t": 160305.25000000192,
      "d": 9.541979166679084,
      "v": 108
    },
    {
      "midi": 42,
      "hit": false,
      "t": 160305.25000000192,
      "d": 9.541979166679084,
      "v": 125
    },
    {
      "midi": 70,
      "hit": false,
      "t": 160305.25000000192,
      "d": 9.541979166679084,
      "v": 75
    },
    {
      "midi": 70,
      "hit": false,
      "t": 160419.75375000192,
      "d": 9.541979166679084,
      "v": 45
    },
    {
      "midi": 38,
      "hit": false,
      "t": 160529.48651041862,
      "d": 9.541979166679084,
      "v": 96
    },
    {
      "midi": 53,
      "hit": false,
      "t": 160534.25749999884,
      "d": 229.00750000000698,
      "v": 82
    },
    {
      "midi": 58,
      "hit": false,
      "t": 160534.25749999884,
      "d": 229.00750000000698,
      "v": 82
    },
    {
      "midi": 70,
      "hit": false,
      "t": 160534.25750000196,
      "d": 9.541979166679084,
      "v": 55
    },
    {
      "midi": 70,
      "hit": false,
      "t": 160648.76125000196,
      "d": 9.541979166679084,
      "v": 45
    },
    {
      "midi": 38,
      "hit": false,
      "t": 160758.49401041865,
      "d": 9.541979166679084,
      "v": 96
    },
    {
      "midi": 53,
      "hit": false,
      "t": 160763.26499999885,
      "d": 229.00750000000698,
      "v": 82
    },
    {
      "midi": 58,
      "hit": false,
      "t": 160763.26499999885,
      "d": 229.00750000000698,
      "v": 82
    },
    {
      "midi": 62,
      "hit": false,
      "t": 160763.26500000025,
      "d": 458.01500000001397,
      "v": 110
    },
    {
      "midi": 74,
      "hit": false,
      "t": 160763.26500000025,
      "d": 458.01500000001397,
      "v": 110
    },
    {
      "midi": 74,
      "hit": false,
      "t": 160763.2650000011,
      "d": 229.00750000000698,
      "v": 84
    },
    {
      "midi": 70,
      "hit": false,
      "t": 160763.265000002,
      "d": 9.541979166679084,
      "v": 75
    },
    {
      "midi": 42,
      "hit": false,
      "t": 160763.265000002,
      "d": 9.541979166679084,
      "v": 125
    },
    {
      "midi": 70,
      "hit": false,
      "t": 160877.768750002,
      "d": 9.541979166679084,
      "v": 45
    },
    {
      "midi": 46,
      "hit": false,
      "t": 160992.27249999886,
      "d": 28.62593750000815,
      "v": 95
    },
    {
      "midi": 53,
      "hit": false,
      "t": 160992.27249999886,
      "d": 28.62593750000815,
      "v": 95
    },
    {
      "midi": 58,
      "hit": false,
      "t": 160992.27249999886,
      "d": 28.62593750000815,
      "v": 95
    },
    {
      "midi": 74,
      "hit": false,
      "t": 160992.2725000011,
      "d": 229.00750000000698,
      "v": 84
    },
    {
      "midi": 45,
      "hit": false,
      "t": 160992.272500002,
      "d": 9.541979166679084,
      "v": 120
    },
    {
      "midi": 70,
      "hit": false,
      "t": 160992.272500002,
      "d": 9.541979166679084,
      "v": 55
    },
    {
      "midi": 46,
      "hit": false,
      "t": 161106.77624999886,
      "d": 28.62593750000815,
      "v": 95
    },
    {
      "midi": 53,
      "hit": false,
      "t": 161106.77624999886,
      "d": 28.62593750000815,
      "v": 95
    },
    {
      "midi": 58,
      "hit": false,
      "t": 161106.77624999886,
      "d": 28.62593750000815,
      "v": 95
    },
    {
      "midi": 70,
      "hit": false,
      "t": 161106.776250002,
      "d": 9.541979166679084,
      "v": 45
    },
    {
      "midi": 44,
      "hit": false,
      "t": 161221.27999999886,
      "d": 229.00750000000698,
      "v": 82
    },
    {
      "midi": 51,
      "hit": false,
      "t": 161221.27999999886,
      "d": 229.00750000000698,
      "v": 82
    },
    {
      "midi": 56,
      "hit": false,
      "t": 161221.27999999886,
      "d": 229.00750000000698,
      "v": 82
    },
    {
      "midi": 72,
      "hit": false,
      "t": 161221.28000000026,
      "d": 1832.0599999999977,
      "v": 100
    },
    {
      "midi": 67,
      "hit": false,
      "t": 161221.28000000026,
      "d": 1832.0599999999977,
      "v": 100
    },
    {
      "midi": 75,
      "hit": false,
      "t": 161221.28000000026,
      "d": 1832.0599999999977,
      "v": 100
    },
    {
      "midi": 63,
      "hit": false,
      "t": 161221.28000000026,
      "d": 1832.0599999999977,
      "v": 100
    },
    {
      "midi": 75,
      "hit": false,
      "t": 161221.2800000011,
      "d": 229.00750000000698,
      "v": 84
    },
    {
      "midi": 36,
      "hit": false,
      "t": 161221.280000002,
      "d": 9.541979166679084,
      "v": 108
    },
    {
      "midi": 49,
      "hit": false,
      "t": 161221.280000002,
      "d": 9.541979166679084,
      "v": 100
    },
    {
      "midi": 44,
      "hit": false,
      "t": 161450.28749999887,
      "d": 229.00750000000698,
      "v": 82
    },
    {
      "midi": 51,
      "hit": false,
      "t": 161450.28749999887,
      "d": 229.00750000000698,
      "v": 82
    },
    {
      "midi": 56,
      "hit": false,
      "t": 161450.28749999887,
      "d": 229.00750000000698,
      "v": 82
    },
    {
      "midi": 75,
      "hit": false,
      "t": 161450.2875000011,
      "d": 229.00750000000698,
      "v": 84
    },
    {
      "midi": 36,
      "hit": false,
      "t": 161450.287500002,
      "d": 9.541979166679084,
      "v": 108
    },
    {
      "midi": 38,
      "hit": false,
      "t": 161674.52401041868,
      "d": 9.541979166679084,
      "v": 96
    },
    {
      "midi": 96,
      "hit": false,
      "t": 161679.29500000013,
      "d": 114.50375000000349,
      "v": 70
    },
    {
      "midi": 84,
      "hit": false,
      "t": 161679.29500000013,
      "d": 114.50375000000349,
      "v": 70
    },
    {
      "midi": 42,
      "hit": false,
      "t": 161679.29500000202,
      "d": 9.541979166679084,
      "v": 125
    },
    {
      "midi": 41,
      "hit": false,
      "t": 161679.29500000202,
      "d": 9.541979166679084,
      "v": 127
    },
    {
      "midi": 96,
      "hit": false,
      "t": 161793.79875000013,
      "d": 114.50375000000349,
      "v": 70
    },
    {
      "midi": 84,
      "hit": false,
      "t": 161793.79875000013,
      "d": 114.50375000000349,
      "v": 70
    },
    {
      "midi": 44,
      "hit": false,
      "t": 161908.30249999888,
      "d": 28.62593750000815,
      "v": 95
    },
    {
      "midi": 51,
      "hit": false,
      "t": 161908.30249999888,
      "d": 28.62593750000815,
      "v": 95
    },
    {
      "midi": 56,
      "hit": false,
      "t": 161908.30249999888,
      "d": 28.62593750000815,
      "v": 95
    },
    {
      "midi": 84,
      "hit": false,
      "t": 161908.30250000014,
      "d": 114.50375000000349,
      "v": 70
    },
    {
      "midi": 96,
      "hit": false,
      "t": 161908.30250000014,
      "d": 114.50375000000349,
      "v": 70
    },
    {
      "midi": 74,
      "hit": false,
      "t": 161908.30250000113,
      "d": 229.00750000000698,
      "v": 84
    },
    {
      "midi": 44,
      "hit": false,
      "t": 162022.8062499989,
      "d": 28.62593750000815,
      "v": 95
    },
    {
      "midi": 51,
      "hit": false,
      "t": 162022.8062499989,
      "d": 28.62593750000815,
      "v": 95
    },
    {
      "midi": 56,
      "hit": false,
      "t": 162022.8062499989,
      "d": 28.62593750000815,
      "v": 95
    },
    {
      "midi": 44,
      "hit": false,
      "t": 162137.3099999989,
      "d": 229.00750000000698,
      "v": 82
    },
    {
      "midi": 51,
      "hit": false,
      "t": 162137.3099999989,
      "d": 229.00750000000698,
      "v": 82
    },
    {
      "midi": 56,
      "hit": false,
      "t": 162137.3099999989,
      "d": 229.00750000000698,
      "v": 82
    },
    {
      "midi": 75,
      "hit": false,
      "t": 162137.31000000113,
      "d": 687.0224999999919,
      "v": 84
    },
    {
      "midi": 36,
      "hit": false,
      "t": 162137.31000000203,
      "d": 9.541979166679084,
      "v": 108
    },
    {
      "midi": 42,
      "hit": false,
      "t": 162137.31000000203,
      "d": 9.541979166679084,
      "v": 125
    },
    {
      "midi": 44,
      "hit": false,
      "t": 162366.3174999989,
      "d": 229.00750000000698,
      "v": 82
    },
    {
      "midi": 51,
      "hit": false,
      "t": 162366.3174999989,
      "d": 229.00750000000698,
      "v": 82
    },
    {
      "midi": 56,
      "hit": false,
      "t": 162366.3174999989,
      "d": 229.00750000000698,
      "v": 82
    },
    {
      "midi": 36,
      "hit": false,
      "t": 162366.31750000204,
      "d": 9.541979166679084,
      "v": 108
    },
    {
      "midi": 38,
      "hit": false,
      "t": 162590.5540104187,
      "d": 9.541979166679084,
      "v": 96
    },
    {
      "midi": 96,
      "hit": false,
      "t": 162595.32500000013,
      "d": 114.50375000000349,
      "v": 70
    },
    {
      "midi": 84,
      "hit": false,
      "t": 162595.32500000013,
      "d": 114.50375000000349,
      "v": 70
    },
    {
      "midi": 42,
      "hit": false,
      "t": 162595.32500000205,
      "d": 9.541979166679084,
      "v": 125
    },
    {
      "midi": 43,
      "hit": false,
      "t": 162595.32500000205,
      "d": 9.541979166679084,
      "v": 127
    },
    {
      "midi": 96,
      "hit": false,
      "t": 162709.82875000013,
      "d": 114.50375000000349,
      "v": 70
    },
    {
      "midi": 84,
      "hit": false,
      "t": 162709.82875000013,
      "d": 114.50375000000349,
      "v": 70
    },
    {
      "midi": 44,
      "hit": false,
      "t": 162824.3324999989,
      "d": 28.62593750000815,
      "v": 95
    },
    {
      "midi": 51,
      "hit": false,
      "t": 162824.3324999989,
      "d": 28.62593750000815,
      "v": 95
    },
    {
      "midi": 56,
      "hit": false,
      "t": 162824.3324999989,
      "d": 28.62593750000815,
      "v": 95
    },
    {
      "midi": 96,
      "hit": false,
      "t": 162824.33250000014,
      "d": 114.50375000000349,
      "v": 70
    },
    {
      "midi": 84,
      "hit": false,
      "t": 162824.33250000014,
      "d": 114.50375000000349,
      "v": 70
    },
    {
      "midi": 74,
      "hit": false,
      "t": 162824.33250000112,
      "d": 229.00750000000698,
      "v": 84
    },
    {
      "midi": 44,
      "hit": false,
      "t": 162938.83624999892,
      "d": 28.62593750000815,
      "v": 95
    },
    {
      "midi": 51,
      "hit": false,
      "t": 162938.83624999892,
      "d": 28.62593750000815,
      "v": 95
    },
    {
      "midi": 56,
      "hit": false,
      "t": 162938.83624999892,
      "d": 28.62593750000815,
      "v": 95
    },
    {
      "midi": 44,
      "hit": false,
      "t": 163053.33999999892,
      "d": 229.00750000000698,
      "v": 82
    },
    {
      "midi": 51,
      "hit": false,
      "t": 163053.33999999892,
      "d": 229.00750000000698,
      "v": 82
    },
    {
      "midi": 56,
      "hit": false,
      "t": 163053.33999999892,
      "d": 229.00750000000698,
      "v": 82
    },
    {
      "midi": 67,
      "hit": false,
      "t": 163053.34000000026,
      "d": 687.0224999999919,
      "v": 100
    },
    {
      "midi": 72,
      "hit": false,
      "t": 163053.34000000026,
      "d": 687.0224999999919,
      "v": 100
    },
    {
      "midi": 63,
      "hit": false,
      "t": 163053.34000000026,
      "d": 687.0224999999919,
      "v": 100
    },
    {
      "midi": 75,
      "hit": false,
      "t": 163053.34000000026,
      "d": 687.0224999999919,
      "v": 100
    },
    {
      "midi": 75,
      "hit": false,
      "t": 163053.34000000113,
      "d": 687.0224999999919,
      "v": 84
    },
    {
      "midi": 36,
      "hit": false,
      "t": 163053.34000000206,
      "d": 9.541979166679084,
      "v": 108
    },
    {
      "midi": 42,
      "hit": false,
      "t": 163053.34000000206,
      "d": 9.541979166679084,
      "v": 125
    },
    {
      "midi": 44,
      "hit": false,
      "t": 163282.34749999893,
      "d": 229.00750000000698,
      "v": 82
    },
    {
      "midi": 51,
      "hit": false,
      "t": 163282.34749999893,
      "d": 229.00750000000698,
      "v": 82
    },
    {
      "midi": 56,
      "hit": false,
      "t": 163282.34749999893,
      "d": 229.00750000000698,
      "v": 82
    },
    {
      "midi": 36,
      "hit": false,
      "t": 163282.34750000207,
      "d": 9.541979166679084,
      "v": 108
    },
    {
      "midi": 38,
      "hit": false,
      "t": 163506.58401041874,
      "d": 9.541979166679084,
      "v": 96
    },
    {
      "midi": 42,
      "hit": false,
      "t": 163511.35500000208,
      "d": 9.541979166679084,
      "v": 125
    },
    {
      "midi": 47,
      "hit": false,
      "t": 163511.35500000208,
      "d": 9.541979166679084,
      "v": 127
    },
    {
      "midi": 44,
      "hit": false,
      "t": 163740.36249999894,
      "d": 28.62593750000815,
      "v": 95
    },
    {
      "midi": 51,
      "hit": false,
      "t": 163740.36249999894,
      "d": 28.62593750000815,
      "v": 95
    },
    {
      "midi": 56,
      "hit": false,
      "t": 163740.36249999894,
      "d": 28.62593750000815,
      "v": 95
    },
    {
      "midi": 68,
      "hit": false,
      "t": 163740.36250000025,
      "d": 687.0224999999919,
      "v": 100
    },
    {
      "midi": 63,
      "hit": false,
      "t": 163740.36250000025,
      "d": 687.0224999999919,
      "v": 100
    },
    {
      "midi": 60,
      "hit": false,
      "t": 163740.36250000025,
      "d": 687.0224999999919,
      "v": 100
    },
    {
      "midi": 72,
      "hit": false,
      "t": 163740.36250000025,
      "d": 687.0224999999919,
      "v": 100
    },
    {
      "midi": 72,
      "hit": false,
      "t": 163740.36250000112,
      "d": 229.00750000000698,
      "v": 84
    },
    {
      "midi": 44,
      "hit": false,
      "t": 163854.86624999894,
      "d": 28.62593750000815,
      "v": 95
    },
    {
      "midi": 51,
      "hit": false,
      "t": 163854.86624999894,
      "d": 28.62593750000815,
      "v": 95
    },
    {
      "midi": 56,
      "hit": false,
      "t": 163854.86624999894,
      "d": 28.62593750000815,
      "v": 95
    },
    {
      "midi": 44,
      "hit": false,
      "t": 163969.36999999895,
      "d": 229.00750000000698,
      "v": 82
    },
    {
      "midi": 51,
      "hit": false,
      "t": 163969.36999999895,
      "d": 229.00750000000698,
      "v": 82
    },
    {
      "midi": 56,
      "hit": false,
      "t": 163969.36999999895,
      "d": 229.00750000000698,
      "v": 82
    },
    {
      "midi": 77,
      "hit": false,
      "t": 163969.37000000113,
      "d": 229.00750000000698,
      "v": 84
    },
    {
      "midi": 36,
      "hit": false,
      "t": 163969.3700000021,
      "d": 9.541979166679084,
      "v": 108
    },
    {
      "midi": 42,
      "hit": false,
      "t": 163969.3700000021,
      "d": 9.541979166679084,
      "v": 125
    },
    {
      "midi": 44,
      "hit": false,
      "t": 164198.37749999895,
      "d": 229.00750000000698,
      "v": 82
    },
    {
      "midi": 51,
      "hit": false,
      "t": 164198.37749999895,
      "d": 229.00750000000698,
      "v": 82
    },
    {
      "midi": 56,
      "hit": false,
      "t": 164198.37749999895,
      "d": 229.00750000000698,
      "v": 82
    },
    {
      "midi": 75,
      "hit": false,
      "t": 164198.37750000114,
      "d": 229.00750000000698,
      "v": 84
    },
    {
      "midi": 36,
      "hit": false,
      "t": 164198.3775000021,
      "d": 9.541979166679084,
      "v": 108
    },
    {
      "midi": 38,
      "hit": false,
      "t": 164422.61401041877,
      "d": 9.541979166679084,
      "v": 96
    },
    {
      "midi": 63,
      "hit": false,
      "t": 164427.38500000024,
      "d": 458.01500000001397,
      "v": 100
    },
    {
      "midi": 60,
      "hit": false,
      "t": 164427.38500000024,
      "d": 458.01500000001397,
      "v": 100
    },
    {
      "midi": 56,
      "hit": false,
      "t": 164427.38500000024,
      "d": 458.01500000001397,
      "v": 100
    },
    {
      "midi": 68,
      "hit": false,
      "t": 164427.38500000024,
      "d": 458.01500000001397,
      "v": 100
    },
    {
      "midi": 74,
      "hit": false,
      "t": 164427.38500000114,
      "d": 229.00750000000698,
      "v": 84
    },
    {
      "midi": 42,
      "hit": false,
      "t": 164427.3850000021,
      "d": 9.541979166679084,
      "v": 125
    },
    {
      "midi": 44,
      "hit": false,
      "t": 164656.39249999897,
      "d": 28.62593750000815,
      "v": 95
    },
    {
      "midi": 51,
      "hit": false,
      "t": 164656.39249999897,
      "d": 28.62593750000815,
      "v": 95
    },
    {
      "midi": 56,
      "hit": false,
      "t": 164656.39249999897,
      "d": 28.62593750000815,
      "v": 95
    },
    {
      "midi": 72,
      "hit": false,
      "t": 164656.39250000115,
      "d": 229.00750000000698,
      "v": 84
    },
    {
      "midi": 44,
      "hit": false,
      "t": 164770.89624999897,
      "d": 28.62593750000815,
      "v": 95
    },
    {
      "midi": 51,
      "hit": false,
      "t": 164770.89624999897,
      "d": 28.62593750000815,
      "v": 95
    },
    {
      "midi": 56,
      "hit": false,
      "t": 164770.89624999897,
      "d": 28.62593750000815,
      "v": 95
    },
    {
      "midi": 43,
      "hit": false,
      "t": 164885.39999999898,
      "d": 229.00750000000698,
      "v": 82
    },
    {
      "midi": 50,
      "hit": false,
      "t": 164885.39999999898,
      "d": 229.00750000000698,
      "v": 82
    },
    {
      "midi": 55,
      "hit": false,
      "t": 164885.39999999898,
      "d": 229.00750000000698,
      "v": 82
    },
    {
      "midi": 70,
      "hit": false,
      "t": 164885.40000000026,
      "d": 229.00750000000698,
      "v": 100
    },
    {
      "midi": 58,
      "hit": false,
      "t": 164885.40000000026,
      "d": 229.00750000000698,
      "v": 100
    },
    {
      "midi": 62,
      "hit": false,
      "t": 164885.40000000026,
      "d": 229.00750000000698,
      "v": 100
    },
    {
      "midi": 65,
      "hit": false,
      "t": 164885.40000000026,
      "d": 229.00750000000698,
      "v": 100
    },
    {
      "midi": 72,
      "hit": false,
      "t": 164885.40000000116,
      "d": 229.00750000000698,
      "v": 84
    },
    {
      "midi": 36,
      "hit": false,
      "t": 164885.40000000212,
      "d": 9.541979166679084,
      "v": 108
    },
    {
      "midi": 49,
      "hit": false,
      "t": 164885.40000000212,
      "d": 9.541979166679084,
      "v": 100
    },
    {
      "midi": 43,
      "hit": false,
      "t": 165114.40749999898,
      "d": 229.00750000000698,
      "v": 82
    },
    {
      "midi": 50,
      "hit": false,
      "t": 165114.40749999898,
      "d": 229.00750000000698,
      "v": 82
    },
    {
      "midi": 55,
      "hit": false,
      "t": 165114.40749999898,
      "d": 229.00750000000698,
      "v": 82
    },
    {
      "midi": 62,
      "hit": false,
      "t": 165114.40750000026,
      "d": 1603.0524999999907,
      "v": 100
    },
    {
      "midi": 65,
      "hit": false,
      "t": 165114.40750000026,
      "d": 1603.0524999999907,
      "v": 100
    },
    {
      "midi": 58,
      "hit": false,
      "t": 165114.40750000026,
      "d": 1603.0524999999907,
      "v": 100
    },
    {
      "midi": 70,
      "hit": false,
      "t": 165114.40750000026,
      "d": 1603.0524999999907,
      "v": 100
    },
    {
      "midi": 70,
      "hit": false,
      "t": 165114.40750000117,
      "d": 229.00750000000698,
      "v": 84
    },
    {
      "midi": 36,
      "hit": false,
      "t": 165114.40750000213,
      "d": 9.541979166679084,
      "v": 108
    },
    {
      "midi": 38,
      "hit": false,
      "t": 165338.6440104188,
      "d": 9.541979166679084,
      "v": 96
    },
    {
      "midi": 82,
      "hit": false,
      "t": 165343.41500000012,
      "d": 114.50375000000349,
      "v": 70
    },
    {
      "midi": 94,
      "hit": false,
      "t": 165343.41500000012,
      "d": 114.50375000000349,
      "v": 70
    },
    {
      "midi": 42,
      "hit": false,
      "t": 165343.41500000213,
      "d": 9.541979166679084,
      "v": 125
    },
    {
      "midi": 45,
      "hit": false,
      "t": 165343.41500000213,
      "d": 9.541979166679084,
      "v": 127
    },
    {
      "midi": 82,
      "hit": false,
      "t": 165457.91875000013,
      "d": 114.50375000000349,
      "v": 70
    },
    {
      "midi": 94,
      "hit": false,
      "t": 165457.91875000013,
      "d": 114.50375000000349,
      "v": 70
    },
    {
      "midi": 43,
      "hit": false,
      "t": 165572.422499999,
      "d": 28.62593750000815,
      "v": 95
    },
    {
      "midi": 50,
      "hit": false,
      "t": 165572.422499999,
      "d": 28.62593750000815,
      "v": 95
    },
    {
      "midi": 55,
      "hit": false,
      "t": 165572.422499999,
      "d": 28.62593750000815,
      "v": 95
    },
    {
      "midi": 94,
      "hit": false,
      "t": 165572.42250000013,
      "d": 114.50375000000349,
      "v": 70
    },
    {
      "midi": 82,
      "hit": false,
      "t": 165572.42250000013,
      "d": 114.50375000000349,
      "v": 70
    },
    {
      "midi": 67,
      "hit": false,
      "t": 165572.42250000118,
      "d": 229.00750000000698,
      "v": 84
    },
    {
      "midi": 43,
      "hit": false,
      "t": 165686.926249999,
      "d": 28.62593750000815,
      "v": 95
    },
    {
      "midi": 50,
      "hit": false,
      "t": 165686.926249999,
      "d": 28.62593750000815,
      "v": 95
    },
    {
      "midi": 55,
      "hit": false,
      "t": 165686.926249999,
      "d": 28.62593750000815,
      "v": 95
    },
    {
      "midi": 43,
      "hit": false,
      "t": 165801.429999999,
      "d": 229.00750000000698,
      "v": 82
    },
    {
      "midi": 50,
      "hit": false,
      "t": 165801.429999999,
      "d": 229.00750000000698,
      "v": 82
    },
    {
      "midi": 55,
      "hit": false,
      "t": 165801.429999999,
      "d": 229.00750000000698,
      "v": 82
    },
    {
      "midi": 70,
      "hit": false,
      "t": 165801.4300000012,
      "d": 229.00750000000698,
      "v": 84
    },
    {
      "midi": 36,
      "hit": false,
      "t": 165801.43000000215,
      "d": 9.541979166679084,
      "v": 108
    },
    {
      "midi": 42,
      "hit": false,
      "t": 165801.43000000215,
      "d": 9.541979166679084,
      "v": 125
    },
    {
      "midi": 43,
      "hit": false,
      "t": 166030.437499999,
      "d": 229.00750000000698,
      "v": 82
    },
    {
      "midi": 50,
      "hit": false,
      "t": 166030.437499999,
      "d": 229.00750000000698,
      "v": 82
    },
    {
      "midi": 55,
      "hit": false,
      "t": 166030.437499999,
      "d": 229.00750000000698,
      "v": 82
    },
    {
      "midi": 70,
      "hit": false,
      "t": 166030.4375000012,
      "d": 229.00750000000698,
      "v": 84
    },
    {
      "midi": 36,
      "hit": false,
      "t": 166030.43750000215,
      "d": 9.541979166679084,
      "v": 108
    },
    {
      "midi": 38,
      "hit": false,
      "t": 166254.67401041882,
      "d": 9.541979166679084,
      "v": 96
    },
    {
      "midi": 82,
      "hit": false,
      "t": 166259.44500000012,
      "d": 114.50375000000349,
      "v": 70
    },
    {
      "midi": 94,
      "hit": false,
      "t": 166259.44500000012,
      "d": 114.50375000000349,
      "v": 70
    },
    {
      "midi": 42,
      "hit": false,
      "t": 166259.44500000216,
      "d": 9.541979166679084,
      "v": 125
    },
    {
      "midi": 43,
      "hit": false,
      "t": 166259.44500000216,
      "d": 9.541979166679084,
      "v": 127
    },
    {
      "midi": 82,
      "hit": false,
      "t": 166373.94875000013,
      "d": 114.50375000000349,
      "v": 70
    },
    {
      "midi": 94,
      "hit": false,
      "t": 166373.94875000013,
      "d": 114.50375000000349,
      "v": 70
    },
    {
      "midi": 43,
      "hit": false,
      "t": 166488.45249999902,
      "d": 28.62593750000815,
      "v": 95
    },
    {
      "midi": 50,
      "hit": false,
      "t": 166488.45249999902,
      "d": 28.62593750000815,
      "v": 95
    },
    {
      "midi": 55,
      "hit": false,
      "t": 166488.45249999902,
      "d": 28.62593750000815,
      "v": 95
    },
    {
      "midi": 82,
      "hit": false,
      "t": 166488.45250000013,
      "d": 114.50375000000349,
      "v": 70
    },
    {
      "midi": 94,
      "hit": false,
      "t": 166488.45250000013,
      "d": 114.50375000000349,
      "v": 70
    },
    {
      "midi": 67,
      "hit": false,
      "t": 166488.4525000012,
      "d": 229.00750000000698,
      "v": 84
    },
    {
      "midi": 43,
      "hit": false,
      "t": 166602.95624999903,
      "d": 28.62593750000815,
      "v": 95
    },
    {
      "midi": 50,
      "hit": false,
      "t": 166602.95624999903,
      "d": 28.62593750000815,
      "v": 95
    },
    {
      "midi": 55,
      "hit": false,
      "t": 166602.95624999903,
      "d": 28.62593750000815,
      "v": 95
    },
    {
      "midi": 43,
      "hit": false,
      "t": 166717.45999999903,
      "d": 229.00750000000698,
      "v": 82
    },
    {
      "midi": 50,
      "hit": false,
      "t": 166717.45999999903,
      "d": 229.00750000000698,
      "v": 82
    },
    {
      "midi": 55,
      "hit": false,
      "t": 166717.45999999903,
      "d": 229.00750000000698,
      "v": 82
    },
    {
      "midi": 58,
      "hit": false,
      "t": 166717.46000000025,
      "d": 782.4422916666663,
      "v": 100
    },
    {
      "midi": 62,
      "hit": false,
      "t": 166717.46000000025,
      "d": 782.4422916666663,
      "v": 100
    },
    {
      "midi": 65,
      "hit": false,
      "t": 166717.46000000025,
      "d": 782.4422916666663,
      "v": 100
    },
    {
      "midi": 70,
      "hit": false,
      "t": 166717.46000000025,
      "d": 782.4422916666663,
      "v": 100
    },
    {
      "midi": 70,
      "hit": false,
      "t": 166717.4600000012,
      "d": 343.5112500000105,
      "v": 84
    },
    {
      "midi": 36,
      "hit": false,
      "t": 166717.46000000217,
      "d": 9.541979166679084,
      "v": 108
    },
    {
      "midi": 42,
      "hit": false,
      "t": 166717.46000000217,
      "d": 9.541979166679084,
      "v": 125
    },
    {
      "midi": 43,
      "hit": false,
      "t": 166946.46749999904,
      "d": 229.00750000000698,
      "v": 82
    },
    {
      "midi": 50,
      "hit": false,
      "t": 166946.46749999904,
      "d": 229.00750000000698,
      "v": 82
    },
    {
      "midi": 55,
      "hit": false,
      "t": 166946.46749999904,
      "d": 229.00750000000698,
      "v": 82
    },
    {
      "midi": 36,
      "hit": false,
      "t": 166946.46750000218,
      "d": 9.541979166679084,
      "v": 108
    },
    {
      "midi": 70,
      "hit": false,
      "t": 167060.97125000122,
      "d": 343.5112500000105,
      "v": 84
    },
    {
      "midi": 38,
      "hit": false,
      "t": 167170.70401041885,
      "d": 9.541979166679084,
      "v": 96
    },
    {
      "midi": 42,
      "hit": false,
      "t": 167175.4750000022,
      "d": 9.541979166679084,
      "v": 125
    },
    {
      "midi": 45,
      "hit": false,
      "t": 167175.4750000022,
      "d": 9.541979166679084,
      "v": 127
    },
    {
      "midi": 43,
      "hit": false,
      "t": 167404.48249999905,
      "d": 28.62593750000815,
      "v": 95
    },
    {
      "midi": 50,
      "hit": false,
      "t": 167404.48249999905,
      "d": 28.62593750000815,
      "v": 95
    },
    {
      "midi": 55,
      "hit": false,
      "t": 167404.48249999905,
      "d": 28.62593750000815,
      "v": 95
    },
    {
      "midi": 70,
      "hit": false,
      "t": 167404.48250000124,
      "d": 229.00750000000698,
      "v": 84
    },
    {
      "midi": 43,
      "hit": false,
      "t": 167518.98624999906,
      "d": 28.62593750000815,
      "v": 95
    },
    {
      "midi": 50,
      "hit": false,
      "t": 167518.98624999906,
      "d": 28.62593750000815,
      "v": 95
    },
    {
      "midi": 55,
      "hit": false,
      "t": 167518.98624999906,
      "d": 28.62593750000815,
      "v": 95
    },
    {
      "midi": 43,
      "hit": false,
      "t": 167633.48999999906,
      "d": 229.00750000000698,
      "v": 82
    },
    {
      "midi": 50,
      "hit": false,
      "t": 167633.48999999906,
      "d": 229.00750000000698,
      "v": 82
    },
    {
      "midi": 55,
      "hit": false,
      "t": 167633.48999999906,
      "d": 229.00750000000698,
      "v": 82
    },
    {
      "midi": 82,
      "hit": false,
      "t": 167633.48999999996,
      "d": 95.41979166667443,
      "v": 70
    },
    {
      "midi": 70,
      "hit": false,
      "t": 167633.48999999996,
      "d": 95.41979166667443,
      "v": 70
    },
    {
      "midi": 82,
      "hit": false,
      "t": 167633.49000000014,
      "d": 343.5112500000105,
      "v": 80
    },
    {
      "midi": 70,
      "hit": false,
      "t": 167633.49000000014,
      "d": 343.5112500000105,
      "v": 80
    },
    {
      "midi": 58,
      "hit": false,
      "t": 167633.49000000025,
      "d": 343.5112500000105,
      "v": 110
    },
    {
      "midi": 70,
      "hit": false,
      "t": 167633.49000000025,
      "d": 343.5112500000105,
      "v": 110
    },
    {
      "midi": 82,
      "hit": false,
      "t": 167633.4900000004,
      "d": 95.41979166667443,
      "v": 70
    },
    {
      "midi": 70,
      "hit": false,
      "t": 167633.4900000004,
      "d": 95.41979166667443,
      "v": 70
    },
    {
      "midi": 70,
      "hit": false,
      "t": 167633.49000000124,
      "d": 343.5112500000105,
      "v": 84
    },
    {
      "midi": 36,
      "hit": false,
      "t": 167633.4900000022,
      "d": 9.541979166679084,
      "v": 108
    },
    {
      "midi": 42,
      "hit": false,
      "t": 167633.4900000022,
      "d": 9.541979166679084,
      "v": 125
    },
    {
      "midi": 43,
      "hit": false,
      "t": 167862.49749999907,
      "d": 229.00750000000698,
      "v": 82
    },
    {
      "midi": 50,
      "hit": false,
      "t": 167862.49749999907,
      "d": 229.00750000000698,
      "v": 82
    },
    {
      "midi": 55,
      "hit": false,
      "t": 167862.49749999907,
      "d": 229.00750000000698,
      "v": 82
    },
    {
      "midi": 36,
      "hit": false,
      "t": 167862.4975000022,
      "d": 9.541979166679084,
      "v": 108
    },
    {
      "midi": 84,
      "hit": false,
      "t": 167977.00124999997,
      "d": 95.41979166667443,
      "v": 70
    },
    {
      "midi": 72,
      "hit": false,
      "t": 167977.00124999997,
      "d": 95.41979166667443,
      "v": 70
    },
    {
      "midi": 84,
      "hit": false,
      "t": 167977.00125000015,
      "d": 343.5112500000105,
      "v": 80
    },
    {
      "midi": 72,
      "hit": false,
      "t": 167977.00125000015,
      "d": 343.5112500000105,
      "v": 80
    },
    {
      "midi": 60,
      "hit": false,
      "t": 167977.00125000026,
      "d": 343.5112500000105,
      "v": 110
    },
    {
      "midi": 72,
      "hit": false,
      "t": 167977.00125000026,
      "d": 343.5112500000105,
      "v": 110
    },
    {
      "midi": 84,
      "hit": false,
      "t": 167977.0012500004,
      "d": 95.41979166667443,
      "v": 70
    },
    {
      "midi": 72,
      "hit": false,
      "t": 167977.0012500004,
      "d": 95.41979166667443,
      "v": 70
    },
    {
      "midi": 72,
      "hit": false,
      "t": 167977.00125000125,
      "d": 343.5112500000105,
      "v": 84
    },
    {
      "midi": 38,
      "hit": false,
      "t": 168086.73401041888,
      "d": 9.541979166679084,
      "v": 96
    },
    {
      "midi": 42,
      "hit": false,
      "t": 168091.50500000222,
      "d": 9.541979166679084,
      "v": 125
    },
    {
      "midi": 36,
      "hit": false,
      "t": 168091.50500000222,
      "d": 9.541979166679084,
      "v": 108
    },
    {
      "midi": 43,
      "hit": false,
      "t": 168320.51249999908,
      "d": 28.62593750000815,
      "v": 95
    },
    {
      "midi": 50,
      "hit": false,
      "t": 168320.51249999908,
      "d": 28.62593750000815,
      "v": 95
    },
    {
      "midi": 55,
      "hit": false,
      "t": 168320.51249999908,
      "d": 28.62593750000815,
      "v": 95
    },
    {
      "midi": 86,
      "hit": false,
      "t": 168320.51249999998,
      "d": 95.41979166667443,
      "v": 70
    },
    {
      "midi": 74,
      "hit": false,
      "t": 168320.51249999998,
      "d": 95.41979166667443,
      "v": 70
    },
    {
      "midi": 86,
      "hit": false,
      "t": 168320.51250000016,
      "d": 229.00750000000698,
      "v": 80
    },
    {
      "midi": 74,
      "hit": false,
      "t": 168320.51250000016,
      "d": 229.00750000000698,
      "v": 80
    },
    {
      "midi": 62,
      "hit": false,
      "t": 168320.51250000027,
      "d": 229.00750000000698,
      "v": 110
    },
    {
      "midi": 74,
      "hit": false,
      "t": 168320.51250000027,
      "d": 229.00750000000698,
      "v": 110
    },
    {
      "midi": 86,
      "hit": false,
      "t": 168320.51250000042,
      "d": 95.41979166667443,
      "v": 70
    },
    {
      "midi": 74,
      "hit": false,
      "t": 168320.51250000042,
      "d": 95.41979166667443,
      "v": 70
    },
    {
      "midi": 74,
      "hit": false,
      "t": 168320.51250000126,
      "d": 229.00750000000698,
      "v": 84
    },
    {
      "midi": 36,
      "hit": false,
      "t": 168320.51250000222,
      "d": 9.541979166679084,
      "v": 108
    },
    {
      "midi": 43,
      "hit": false,
      "t": 168435.01624999908,
      "d": 28.62593750000815,
      "v": 95
    },
    {
      "midi": 50,
      "hit": false,
      "t": 168435.01624999908,
      "d": 28.62593750000815,
      "v": 95
    },
    {
      "midi": 55,
      "hit": false,
      "t": 168435.01624999908,
      "d": 28.62593750000815,
      "v": 95
    },
    {
      "midi": 48,
      "hit": false,
      "t": 168549.5199999991,
      "d": 229.00750000000698,
      "v": 82
    },
    {
      "midi": 55,
      "hit": false,
      "t": 168549.5199999991,
      "d": 229.00750000000698,
      "v": 82
    },
    {
      "midi": 60,
      "hit": false,
      "t": 168549.5199999991,
      "d": 229.00750000000698,
      "v": 82
    },
    {
      "midi": 87,
      "hit": false,
      "t": 168549.52,
      "d": 95.41979166667443,
      "v": 70
    },
    {
      "midi": 75,
      "hit": false,
      "t": 168549.52,
      "d": 95.41979166667443,
      "v": 70
    },
    {
      "midi": 87,
      "hit": false,
      "t": 168549.52000000016,
      "d": 458.01500000001397,
      "v": 80
    },
    {
      "midi": 75,
      "hit": false,
      "t": 168549.52000000016,
      "d": 458.01500000001397,
      "v": 80
    },
    {
      "midi": 75,
      "hit": false,
      "t": 168549.52000000028,
      "d": 1832.0599999999977,
      "v": 110
    },
    {
      "midi": 70,
      "hit": false,
      "t": 168549.52000000028,
      "d": 1832.0599999999977,
      "v": 100
    },
    {
      "midi": 72,
      "hit": false,
      "t": 168549.52000000028,
      "d": 1832.0599999999977,
      "v": 100
    },
    {
      "midi": 67,
      "hit": false,
      "t": 168549.52000000028,
      "d": 1832.0599999999977,
      "v": 100
    },
    {
      "midi": 63,
      "hit": false,
      "t": 168549.52000000028,
      "d": 1832.0599999999977,
      "v": 100
    },
    {
      "midi": 87,
      "hit": false,
      "t": 168549.52000000043,
      "d": 95.41979166667443,
      "v": 70
    },
    {
      "midi": 75,
      "hit": false,
      "t": 168549.52000000043,
      "d": 95.41979166667443,
      "v": 70
    },
    {
      "midi": 75,
      "hit": false,
      "t": 168549.52000000127,
      "d": 305.34333333332324,
      "v": 84
    },
    {
      "midi": 36,
      "hit": false,
      "t": 168549.52000000223,
      "d": 9.541979166679084,
      "v": 108
    },
    {
      "midi": 49,
      "hit": false,
      "t": 168549.52000000223,
      "d": 9.541979166679084,
      "v": 100
    },
    {
      "midi": 87,
      "hit": false,
      "t": 168559.06197916658,
      "d": 1832.0599999999977,
      "v": 80
    },
    {
      "midi": 48,
      "hit": false,
      "t": 168778.5274999991,
      "d": 57.251874999987194,
      "v": 82
    },
    {
      "midi": 42,
      "hit": false,
      "t": 168778.52750000224,
      "d": 9.541979166679084,
      "v": 105
    },
    {
      "midi": 74,
      "hit": false,
      "t": 168854.8633333346,
      "d": 305.34333333332324,
      "v": 84
    },
    {
      "midi": 38,
      "hit": false,
      "t": 169002.7640104189,
      "d": 9.541979166679084,
      "v": 96
    },
    {
      "midi": 48,
      "hit": false,
      "t": 169007.53499999907,
      "d": 229.00750000000698,
      "v": 82
    },
    {
      "midi": 55,
      "hit": false,
      "t": 169007.53499999907,
      "d": 229.00750000000698,
      "v": 67
    },
    {
      "midi": 60,
      "hit": false,
      "t": 169007.53499999907,
      "d": 229.00750000000698,
      "v": 67
    },
    {
      "midi": 86,
      "hit": false,
      "t": 169007.535,
      "d": 95.41979166667443,
      "v": 70
    },
    {
      "midi": 74,
      "hit": false,
      "t": 169007.535,
      "d": 95.41979166667443,
      "v": 70
    },
    {
      "midi": 86,
      "hit": false,
      "t": 169007.53500000018,
      "d": 229.00750000000698,
      "v": 80
    },
    {
      "midi": 74,
      "hit": false,
      "t": 169007.53500000018,
      "d": 229.00750000000698,
      "v": 80
    },
    {
      "midi": 86,
      "hit": false,
      "t": 169007.53500000044,
      "d": 95.41979166667443,
      "v": 70
    },
    {
      "midi": 74,
      "hit": false,
      "t": 169007.53500000044,
      "d": 95.41979166667443,
      "v": 70
    },
    {
      "midi": 42,
      "hit": false,
      "t": 169007.53500000224,
      "d": 9.541979166679084,
      "v": 125
    },
    {
      "midi": 75,
      "hit": false,
      "t": 169160.20666666792,
      "d": 305.34333333332324,
      "v": 84
    },
    {
      "midi": 48,
      "hit": false,
      "t": 169236.54249999908,
      "d": 229.00750000000698,
      "v": 82
    },
    {
      "midi": 55,
      "hit": false,
      "t": 169236.54249999908,
      "d": 229.00750000000698,
      "v": 67
    },
    {
      "midi": 60,
      "hit": false,
      "t": 169236.54249999908,
      "d": 229.00750000000698,
      "v": 67
    },
    {
      "midi": 87,
      "hit": false,
      "t": 169236.5425,
      "d": 95.41979166667443,
      "v": 70
    },
    {
      "midi": 75,
      "hit": false,
      "t": 169236.5425,
      "d": 95.41979166667443,
      "v": 70
    },
    {
      "midi": 87,
      "hit": false,
      "t": 169236.54250000019,
      "d": 229.00750000000698,
      "v": 80
    },
    {
      "midi": 75,
      "hit": false,
      "t": 169236.54250000019,
      "d": 229.00750000000698,
      "v": 80
    },
    {
      "midi": 87,
      "hit": false,
      "t": 169236.54250000045,
      "d": 95.41979166667443,
      "v": 70
    },
    {
      "midi": 75,
      "hit": false,
      "t": 169236.54250000045,
      "d": 95.41979166667443,
      "v": 70
    },
    {
      "midi": 42,
      "hit": false,
      "t": 169236.54250000225,
      "d": 9.541979166679084,
      "v": 105
    },
    {
      "midi": 48,
      "hit": false,
      "t": 169465.5499999991,
      "d": 57.251874999987194,
      "v": 82
    },
    {
      "midi": 86,
      "hit": false,
      "t": 169465.55000000002,
      "d": 95.41979166667443,
      "v": 70
    },
    {
      "midi": 74,
      "hit": false,
      "t": 169465.55000000002,
      "d": 95.41979166667443,
      "v": 70
    },
    {
      "midi": 86,
      "hit": false,
      "t": 169465.5500000002,
      "d": 229.00750000000698,
      "v": 80
    },
    {
      "midi": 74,
      "hit": false,
      "t": 169465.5500000002,
      "d": 229.00750000000698,
      "v": 80
    },
    {
      "midi": 86,
      "hit": false,
      "t": 169465.55000000045,
      "d": 95.41979166667443,
      "v": 70
    },
    {
      "midi": 74,
      "hit": false,
      "t": 169465.55000000045,
      "d": 95.41979166667443,
      "v": 70
    },
    {
      "midi": 72,
      "hit": false,
      "t": 169465.55000000124,
      "d": 916.0299999999988,
      "v": 84
    },
    {
      "midi": 36,
      "hit": false,
      "t": 169465.55000000226,
      "d": 9.541979166679084,
      "v": 108
    },
    {
      "midi": 42,
      "hit": false,
      "t": 169465.55000000226,
      "d": 9.541979166679084,
      "v": 125
    },
    {
      "midi": 48,
      "hit": false,
      "t": 169694.55749999906,
      "d": 57.251874999987194,
      "v": 82
    },
    {
      "midi": 87,
      "hit": false,
      "t": 169694.55750000002,
      "d": 95.41979166667443,
      "v": 70
    },
    {
      "midi": 75,
      "hit": false,
      "t": 169694.55750000002,
      "d": 95.41979166667443,
      "v": 70
    },
    {
      "midi": 87,
      "hit": false,
      "t": 169694.5575000002,
      "d": 229.00750000000698,
      "v": 80
    },
    {
      "midi": 75,
      "hit": false,
      "t": 169694.5575000002,
      "d": 229.00750000000698,
      "v": 80
    },
    {
      "midi": 87,
      "hit": false,
      "t": 169694.55750000046,
      "d": 95.41979166667443,
      "v": 70
    },
    {
      "midi": 75,
      "hit": false,
      "t": 169694.55750000046,
      "d": 95.41979166667443,
      "v": 70
    },
    {
      "midi": 36,
      "hit": false,
      "t": 169694.55750000227,
      "d": 9.541979166679084,
      "v": 108
    },
    {
      "midi": 42,
      "hit": false,
      "t": 169694.55750000227,
      "d": 9.541979166679084,
      "v": 105
    },
    {
      "midi": 38,
      "hit": false,
      "t": 169918.79401041893,
      "d": 9.541979166679084,
      "v": 96
    },
    {
      "midi": 48,
      "hit": false,
      "t": 169923.56499999904,
      "d": 229.00750000000698,
      "v": 82
    },
    {
      "midi": 55,
      "hit": false,
      "t": 169923.56499999904,
      "d": 229.00750000000698,
      "v": 67
    },
    {
      "midi": 60,
      "hit": false,
      "t": 169923.56499999904,
      "d": 229.00750000000698,
      "v": 67
    },
    {
      "midi": 84,
      "hit": false,
      "t": 169923.56500000003,
      "d": 95.41979166667443,
      "v": 70
    },
    {
      "midi": 72,
      "hit": false,
      "t": 169923.56500000003,
      "d": 95.41979166667443,
      "v": 70
    },
    {
      "midi": 84,
      "hit": false,
      "t": 169923.5650000002,
      "d": 229.00750000000698,
      "v": 80
    },
    {
      "midi": 72,
      "hit": false,
      "t": 169923.5650000002,
      "d": 229.00750000000698,
      "v": 80
    },
    {
      "midi": 84,
      "hit": false,
      "t": 169923.56500000047,
      "d": 95.41979166667443,
      "v": 70
    },
    {
      "midi": 72,
      "hit": false,
      "t": 169923.56500000047,
      "d": 95.41979166667443,
      "v": 70
    },
    {
      "midi": 42,
      "hit": false,
      "t": 169923.56500000227,
      "d": 9.541979166679084,
      "v": 125
    },
    {
      "midi": 48,
      "hit": false,
      "t": 170152.57249999905,
      "d": 229.00750000000698,
      "v": 82
    },
    {
      "midi": 55,
      "hit": false,
      "t": 170152.57249999905,
      "d": 229.00750000000698,
      "v": 67
    },
    {
      "midi": 60,
      "hit": false,
      "t": 170152.57249999905,
      "d": 229.00750000000698,
      "v": 67
    },
    {
      "midi": 86,
      "hit": false,
      "t": 170152.57250000004,
      "d": 95.41979166667443,
      "v": 70
    },
    {
      "midi": 74,
      "hit": false,
      "t": 170152.57250000004,
      "d": 95.41979166667443,
      "v": 70
    },
    {
      "midi": 86,
      "hit": false,
      "t": 170152.5725000002,
      "d": 229.00750000000698,
      "v": 80
    },
    {
      "midi": 74,
      "hit": false,
      "t": 170152.5725000002,
      "d": 229.00750000000698,
      "v": 80
    },
    {
      "midi": 86,
      "hit": false,
      "t": 170152.57250000047,
      "d": 95.41979166667443,
      "v": 70
    },
    {
      "midi": 74,
      "hit": false,
      "t": 170152.57250000047,
      "d": 95.41979166667443,
      "v": 70
    },
    {
      "midi": 42,
      "hit": false,
      "t": 170152.57250000228,
      "d": 9.541979166679084,
      "v": 105
    },
    {
      "midi": 41,
      "hit": false,
      "t": 170381.57999999906,
      "d": 229.00750000000698,
      "v": 82
    },
    {
      "midi": 48,
      "hit": false,
      "t": 170381.57999999906,
      "d": 229.00750000000698,
      "v": 82
    },
    {
      "midi": 53,
      "hit": false,
      "t": 170381.57999999906,
      "d": 229.00750000000698,
      "v": 82
    },
    {
      "midi": 87,
      "hit": false,
      "t": 170381.58000000005,
      "d": 95.41979166667443,
      "v": 70
    },
    {
      "midi": 75,
      "hit": false,
      "t": 170381.58000000005,
      "d": 95.41979166667443,
      "v": 70
    },
    {
      "midi": 87,
      "hit": false,
      "t": 170381.58000000022,
      "d": 458.01500000001397,
      "v": 80
    },
    {
      "midi": 75,
      "hit": false,
      "t": 170381.58000000022,
      "d": 458.01500000001397,
      "v": 80
    },
    {
      "midi": 69,
      "hit": false,
      "t": 170381.58000000028,
      "d": 916.0299999999988,
      "v": 100
    },
    {
      "midi": 63,
      "hit": false,
      "t": 170381.58000000028,
      "d": 916.0299999999988,
      "v": 100
    },
    {
      "midi": 65,
      "hit": false,
      "t": 170381.58000000028,
      "d": 916.0299999999988,
      "v": 100
    },
    {
      "midi": 60,
      "hit": false,
      "t": 170381.58000000028,
      "d": 916.0299999999988,
      "v": 100
    },
    {
      "midi": 87,
      "hit": false,
      "t": 170381.58000000048,
      "d": 95.41979166667443,
      "v": 70
    },
    {
      "midi": 75,
      "hit": false,
      "t": 170381.58000000048,
      "d": 95.41979166667443,
      "v": 70
    },
    {
      "midi": 75,
      "hit": false,
      "t": 170381.58000000124,
      "d": 229.00750000000698,
      "v": 84
    },
    {
      "midi": 36,
      "hit": false,
      "t": 170381.5800000023,
      "d": 9.541979166679084,
      "v": 108
    },
    {
      "midi": 42,
      "hit": false,
      "t": 170381.5800000023,
      "d": 9.541979166679084,
      "v": 125
    },
    {
      "midi": 89,
      "hit": false,
      "t": 170391.12197916658,
      "d": 1832.0599999999977,
      "v": 80
    },
    {
      "midi": 41,
      "hit": false,
      "t": 170610.58749999906,
      "d": 57.251874999987194,
      "v": 82
    },
    {
      "midi": 74,
      "hit": false,
      "t": 170610.58750000125,
      "d": 458.01500000001397,
      "v": 84
    },
    {
      "midi": 42,
      "hit": false,
      "t": 170610.5875000023,
      "d": 9.541979166679084,
      "v": 105
    },
    {
      "midi": 38,
      "hit": false,
      "t": 170834.82401041896,
      "d": 9.541979166679084,
      "v": 96
    },
    {
      "midi": 41,
      "hit": false,
      "t": 170839.59499999904,
      "d": 229.00750000000698,
      "v": 76
    },
    {
      "midi": 48,
      "hit": false,
      "t": 170839.59499999904,
      "d": 229.00750000000698,
      "v": 76
    },
    {
      "midi": 53,
      "hit": false,
      "t": 170839.59499999904,
      "d": 229.00750000000698,
      "v": 76
    },
    {
      "midi": 86,
      "hit": false,
      "t": 170839.59500000006,
      "d": 95.41979166667443,
      "v": 70
    },
    {
      "midi": 74,
      "hit": false,
      "t": 170839.59500000006,
      "d": 95.41979166667443,
      "v": 70
    },
    {
      "midi": 86,
      "hit": false,
      "t": 170839.59500000023,
      "d": 229.00750000000698,
      "v": 80
    },
    {
      "midi": 74,
      "hit": false,
      "t": 170839.59500000023,
      "d": 229.00750000000698,
      "v": 80
    },
    {
      "midi": 86,
      "hit": false,
      "t": 170839.5950000005,
      "d": 95.41979166667443,
      "v": 70
    },
    {
      "midi": 74,
      "hit": false,
      "t": 170839.5950000005,
      "d": 95.41979166667443,
      "v": 70
    },
    {
      "midi": 42,
      "hit": false,
      "t": 170839.5950000023,
      "d": 9.541979166679084,
      "v": 125
    },
    {
      "midi": 41,
      "hit": false,
      "t": 171068.60249999905,
      "d": 229.00750000000698,
      "v": 76
    },
    {
      "midi": 48,
      "hit": false,
      "t": 171068.60249999905,
      "d": 229.00750000000698,
      "v": 76
    },
    {
      "midi": 53,
      "hit": false,
      "t": 171068.60249999905,
      "d": 229.00750000000698,
      "v": 76
    },
    {
      "midi": 87,
      "hit": false,
      "t": 171068.60250000007,
      "d": 95.41979166667443,
      "v": 70
    },
    {
      "midi": 75,
      "hit": false,
      "t": 171068.60250000007,
      "d": 95.41979166667443,
      "v": 70
    },
    {
      "midi": 87,
      "hit": false,
      "t": 171068.60250000024,
      "d": 229.00750000000698,
      "v": 80
    },
    {
      "midi": 75,
      "hit": false,
      "t": 171068.60250000024,
      "d": 229.00750000000698,
      "v": 80
    },
    {
      "midi": 87,
      "hit": false,
      "t": 171068.6025000005,
      "d": 95.41979166667443,
      "v": 70
    },
    {
      "midi": 75,
      "hit": false,
      "t": 171068.6025000005,
      "d": 95.41979166667443,
      "v": 70
    },
    {
      "midi": 75,
      "hit": false,
      "t": 171068.60250000126,
      "d": 229.00750000000698,
      "v": 84
    },
    {
      "midi": 42,
      "hit": false,
      "t": 171068.6025000023,
      "d": 9.541979166679084,
      "v": 105
    },
    {
      "midi": 41,
      "hit": false,
      "t": 171297.60999999905,
      "d": 57.251874999987194,
      "v": 82
    },
    {
      "midi": 84,
      "hit": false,
      "t": 171297.61000000007,
      "d": 95.41979166667443,
      "v": 70
    },
    {
      "midi": 72,
      "hit": false,
      "t": 171297.61000000007,
      "d": 95.41979166667443,
      "v": 70
    },
    {
      "midi": 84,
      "hit": false,
      "t": 171297.61000000025,
      "d": 458.01500000001397,
      "v": 80
    },
    {
      "midi": 72,
      "hit": false,
      "t": 171297.61000000025,
      "d": 458.01500000001397,
      "v": 80
    },
    {
      "midi": 84,
      "hit": false,
      "t": 171297.6100000005,
      "d": 95.41979166667443,
      "v": 70
    },
    {
      "midi": 72,
      "hit": false,
      "t": 171297.6100000005,
      "d": 95.41979166667443,
      "v": 70
    },
    {
      "midi": 72,
      "hit": false,
      "t": 171297.61000000127,
      "d": 229.00750000000698,
      "v": 84
    },
    {
      "midi": 36,
      "hit": false,
      "t": 171297.6100000023,
      "d": 9.541979166679084,
      "v": 108
    },
    {
      "midi": 42,
      "hit": false,
      "t": 171297.6100000023,
      "d": 9.541979166679084,
      "v": 125
    },
    {
      "midi": 41,
      "hit": false,
      "t": 171526.61749999903,
      "d": 57.251874999987194,
      "v": 82
    },
    {
      "midi": 69,
      "hit": false,
      "t": 171526.61750000028,
      "d": 687.0224999999919,
      "v": 100
    },
    {
      "midi": 67,
      "hit": false,
      "t": 171526.61750000028,
      "d": 687.0224999999919,
      "v": 100
    },
    {
      "midi": 72,
      "hit": false,
      "t": 171526.61750000028,
      "d": 687.0224999999919,
      "v": 100
    },
    {
      "midi": 65,
      "hit": false,
      "t": 171526.61750000028,
      "d": 687.0224999999919,
      "v": 100
    },
    {
      "midi": 72,
      "hit": false,
      "t": 171526.61750000127,
      "d": 229.00750000000698,
      "v": 84
    },
    {
      "midi": 36,
      "hit": false,
      "t": 171526.61750000232,
      "d": 9.541979166679084,
      "v": 108
    },
    {
      "midi": 42,
      "hit": false,
      "t": 171526.61750000232,
      "d": 9.541979166679084,
      "v": 105
    },
    {
      "midi": 38,
      "hit": false,
      "t": 171750.854010419,
      "d": 9.541979166679084,
      "v": 96
    },
    {
      "midi": 41,
      "hit": false,
      "t": 171755.624999999,
      "d": 229.00750000000698,
      "v": 82
    },
    {
      "midi": 48,
      "hit": false,
      "t": 171755.624999999,
      "d": 229.00750000000698,
      "v": 82
    },
    {
      "midi": 53,
      "hit": false,
      "t": 171755.624999999,
      "d": 229.00750000000698,
      "v": 82
    },
    {
      "midi": 91,
      "hit": false,
      "t": 171755.6250000001,
      "d": 95.41979166667443,
      "v": 70
    },
    {
      "midi": 79,
      "hit": false,
      "t": 171755.6250000001,
      "d": 95.41979166667443,
      "v": 70
    },
    {
      "midi": 91,
      "hit": false,
      "t": 171755.62500000026,
      "d": 229.00750000000698,
      "v": 80
    },
    {
      "midi": 79,
      "hit": false,
      "t": 171755.62500000026,
      "d": 229.00750000000698,
      "v": 80
    },
    {
      "midi": 91,
      "hit": false,
      "t": 171755.62500000052,
      "d": 95.41979166667443,
      "v": 70
    },
    {
      "midi": 79,
      "hit": false,
      "t": 171755.62500000052,
      "d": 95.41979166667443,
      "v": 70
    },
    {
      "midi": 79,
      "hit": false,
      "t": 171755.62500000128,
      "d": 229.00750000000698,
      "v": 84
    },
    {
      "midi": 42,
      "hit": false,
      "t": 171755.62500000233,
      "d": 9.541979166679084,
      "v": 125
    },
    {
      "midi": 41,
      "hit": false,
      "t": 171984.63249999902,
      "d": 229.00750000000698,
      "v": 82
    },
    {
      "midi": 48,
      "hit": false,
      "t": 171984.63249999902,
      "d": 229.00750000000698,
      "v": 67
    },
    {
      "midi": 53,
      "hit": false,
      "t": 171984.63249999902,
      "d": 229.00750000000698,
      "v": 67
    },
    {
      "midi": 89,
      "hit": false,
      "t": 171984.6325000001,
      "d": 95.41979166667443,
      "v": 70
    },
    {
      "midi": 77,
      "hit": false,
      "t": 171984.6325000001,
      "d": 95.41979166667443,
      "v": 70
    },
    {
      "midi": 89,
      "hit": false,
      "t": 171984.63250000027,
      "d": 229.00750000000698,
      "v": 80
    },
    {
      "midi": 77,
      "hit": false,
      "t": 171984.63250000027,
      "d": 229.00750000000698,
      "v": 80
    },
    {
      "midi": 89,
      "hit": false,
      "t": 171984.63250000053,
      "d": 95.41979166667443,
      "v": 70
    },
    {
      "midi": 77,
      "hit": false,
      "t": 171984.63250000053,
      "d": 95.41979166667443,
      "v": 70
    },
    {
      "midi": 77,
      "hit": false,
      "t": 171984.6325000013,
      "d": 229.00750000000698,
      "v": 84
    },
    {
      "midi": 42,
      "hit": false,
      "t": 171984.63250000234,
      "d": 9.541979166679084,
      "v": 105
    },
    {
      "midi": 46,
      "hit": false,
      "t": 172213.63999999902,
      "d": 229.00750000000698,
      "v": 82
    },
    {
      "midi": 53,
      "hit": false,
      "t": 172213.63999999902,
      "d": 229.00750000000698,
      "v": 82
    },
    {
      "midi": 58,
      "hit": false,
      "t": 172213.63999999902,
      "d": 229.00750000000698,
      "v": 82
    },
    {
      "midi": 89,
      "hit": false,
      "t": 172213.6400000001,
      "d": 4.770989583339542,
      "v": 70
    },
    {
      "midi": 65,
      "hit": false,
      "t": 172213.64000000028,
      "d": 687.0224999999919,
      "v": 100
    },
    {
      "midi": 68,
      "hit": false,
      "t": 172213.64000000028,
      "d": 687.0224999999919,
      "v": 100
    },
    {
      "midi": 75,
      "hit": false,
      "t": 172213.64000000028,
      "d": 687.0224999999919,
      "v": 100
    },
    {
      "midi": 72,
      "hit": false,
      "t": 172213.64000000028,
      "d": 687.0224999999919,
      "v": 100
    },
    {
      "midi": 89,
      "hit": false,
      "t": 172213.64000000028,
      "d": 4.770989583339542,
      "v": 80
    },
    {
      "midi": 89,
      "hit": false,
      "t": 172213.64000000054,
      "d": 4.770989583339542,
      "v": 70
    },
    {
      "midi": 77,
      "hit": false,
      "t": 172213.6400000013,
      "d": 458.01500000001397,
      "v": 84
    },
    {
      "midi": 36,
      "hit": false,
      "t": 172213.64000000234,
      "d": 9.541979166679084,
      "v": 108
    },
    {
      "midi": 42,
      "hit": false,
      "t": 172213.64000000234,
      "d": 9.541979166679084,
      "v": 125
    },
    {
      "midi": 92,
      "hit": false,
      "t": 172223.18197916658,
      "d": 1832.0599999999977,
      "v": 80
    },
    {
      "midi": 46,
      "hit": false,
      "t": 172442.64749999903,
      "d": 57.251874999987194,
      "v": 82
    },
    {
      "midi": 42,
      "hit": false,
      "t": 172442.64750000235,
      "d": 9.541979166679084,
      "v": 105
    },
    {
      "midi": 38,
      "hit": false,
      "t": 172666.88401041902,
      "d": 9.541979166679084,
      "v": 96
    },
    {
      "midi": 46,
      "hit": false,
      "t": 172671.654999999,
      "d": 229.00750000000698,
      "v": 67
    },
    {
      "midi": 53,
      "hit": false,
      "t": 172671.654999999,
      "d": 229.00750000000698,
      "v": 67
    },
    {
      "midi": 58,
      "hit": false,
      "t": 172671.654999999,
      "d": 229.00750000000698,
      "v": 67
    },
    {
      "midi": 42,
      "hit": false,
      "t": 172671.65500000236,
      "d": 9.541979166679084,
      "v": 125
    },
    {
      "midi": 46,
      "hit": false,
      "t": 172900.66249999902,
      "d": 229.00750000000698,
      "v": 82
    },
    {
      "midi": 53,
      "hit": false,
      "t": 172900.66249999902,
      "d": 229.00750000000698,
      "v": 82
    },
    {
      "midi": 58,
      "hit": false,
      "t": 172900.66249999902,
      "d": 229.00750000000698,
      "v": 82
    },
    {
      "midi": 68,
      "hit": false,
      "t": 172900.66250000027,
      "d": 687.0224999999919,
      "v": 100
    },
    {
      "midi": 67,
      "hit": false,
      "t": 172900.66250000027,
      "d": 687.0224999999919,
      "v": 100
    },
    {
      "midi": 72,
      "hit": false,
      "t": 172900.66250000027,
      "d": 687.0224999999919,
      "v": 100
    },
    {
      "midi": 63,
      "hit": false,
      "t": 172900.66250000027,
      "d": 687.0224999999919,
      "v": 100
    },
    {
      "midi": 77,
      "hit": false,
      "t": 172900.66250000132,
      "d": 229.00750000000698,
      "v": 84
    },
    {
      "midi": 42,
      "hit": false,
      "t": 172900.66250000236,
      "d": 9.541979166679084,
      "v": 105
    },
    {
      "midi": 46,
      "hit": false,
      "t": 173129.66999999902,
      "d": 57.251874999987194,
      "v": 82
    },
    {
      "midi": 77,
      "hit": false,
      "t": 173129.67000000132,
      "d": 229.00750000000698,
      "v": 84
    },
    {
      "midi": 36,
      "hit": false,
      "t": 173129.67000000237,
      "d": 9.541979166679084,
      "v": 108
    },
    {
      "midi": 42,
      "hit": false,
      "t": 173129.67000000237,
      "d": 9.541979166679084,
      "v": 125
    },
    {
      "midi": 46,
      "hit": false,
      "t": 173358.677499999,
      "d": 57.251874999987194,
      "v": 82
    },
    {
      "midi": 75,
      "hit": false,
      "t": 173358.67750000133,
      "d": 229.00750000000698,
      "v": 84
    },
    {
      "midi": 36,
      "hit": false,
      "t": 173358.67750000238,
      "d": 9.541979166679084,
      "v": 108
    },
    {
      "midi": 42,
      "hit": false,
      "t": 173358.67750000238,
      "d": 9.541979166679084,
      "v": 105
    },
    {
      "midi": 38,
      "hit": false,
      "t": 173582.91401041904,
      "d": 9.541979166679084,
      "v": 96
    },
    {
      "midi": 46,
      "hit": false,
      "t": 173587.68499999898,
      "d": 229.00750000000698,
      "v": 82
    },
    {
      "midi": 53,
      "hit": false,
      "t": 173587.68499999898,
      "d": 229.00750000000698,
      "v": 82
    },
    {
      "midi": 58,
      "hit": false,
      "t": 173587.68499999898,
      "d": 229.00750000000698,
      "v": 82
    },
    {
      "midi": 63,
      "hit": false,
      "t": 173587.68500000026,
      "d": 458.01500000001397,
      "v": 100
    },
    {
      "midi": 60,
      "hit": false,
      "t": 173587.68500000026,
      "d": 458.01500000001397,
      "v": 100
    },
    {
      "midi": 65,
      "hit": false,
      "t": 173587.68500000026,
      "d": 458.01500000001397,
      "v": 100
    },
    {
      "midi": 68,
      "hit": false,
      "t": 173587.68500000026,
      "d": 458.01500000001397,
      "v": 100
    },
    {
      "midi": 77,
      "hit": false,
      "t": 173587.68500000134,
      "d": 229.00750000000698,
      "v": 84
    },
    {
      "midi": 42,
      "hit": false,
      "t": 173587.68500000238,
      "d": 9.541979166679084,
      "v": 125
    },
    {
      "midi": 53,
      "hit": false,
      "t": 173816.692499999,
      "d": 28.62593750000815,
      "v": 82
    },
    {
      "midi": 58,
      "hit": false,
      "t": 173816.692499999,
      "d": 229.00750000000698,
      "v": 82
    },
    {
      "midi": 46,
      "hit": false,
      "t": 173816.692499999,
      "d": 229.00750000000698,
      "v": 82
    },
    {
      "midi": 79,
      "hit": false,
      "t": 173816.69250000134,
      "d": 1374.0450000000128,
      "v": 84
    },
    {
      "midi": 42,
      "hit": false,
      "t": 173816.6925000024,
      "d": 9.541979166679084,
      "v": 105
    },
    {
      "midi": 53,
      "hit": false,
      "t": 173845.318437499,
      "d": 200.38156249999884,
      "v": 82
    },
    {
      "midi": 43,
      "hit": false,
      "t": 174045.699999999,
      "d": 1832.0599999999977,
      "v": 82
    },
    {
      "midi": 50,
      "hit": false,
      "t": 174045.699999999,
      "d": 1832.0599999999977,
      "v": 82
    },
    {
      "midi": 55,
      "hit": false,
      "t": 174045.699999999,
      "d": 1832.0599999999977,
      "v": 82
    },
    {
      "midi": 62,
      "hit": false,
      "t": 174045.70000000027,
      "d": 1832.0599999999977,
      "v": 100
    },
    {
      "midi": 59,
      "hit": false,
      "t": 174045.70000000027,
      "d": 1832.0599999999977,
      "v": 100
    },
    {
      "midi": 65,
      "hit": false,
      "t": 174045.70000000027,
      "d": 1832.0599999999977,
      "v": 100
    },
    {
      "midi": 67,
      "hit": false,
      "t": 174045.70000000027,
      "d": 1832.0599999999977,
      "v": 100
    },
    {
      "midi": 36,
      "hit": false,
      "t": 174045.7000000024,
      "d": 9.541979166679084,
      "v": 108
    },
    {
      "midi": 49,
      "hit": false,
      "t": 174045.7000000024,
      "d": 9.541979166679084,
      "v": 100
    },
    {
      "midi": 91,
      "hit": false,
      "t": 174055.24197916657,
      "d": 1832.0599999999977,
      "v": 80
    },
    {
      "midi": 55,
      "hit": false,
      "t": 174269.93651041723,
      "d": 458.01500000001397,
      "v": 115
    },
    {
      "midi": 55,
      "hit": false,
      "t": 174274.70750000098,
      "d": 458.01500000001397,
      "v": 80
    },
    {
      "midi": 55,
      "hit": false,
      "t": 174279.47848958345,
      "d": 458.01500000001397,
      "v": 80
    },
    {
      "midi": 53,
      "hit": false,
      "t": 174498.94401041724,
      "d": 229.00750000000698,
      "v": 115
    },
    {
      "midi": 53,
      "hit": false,
      "t": 174503.715000001,
      "d": 229.00750000000698,
      "v": 80
    },
    {
      "midi": 53,
      "hit": false,
      "t": 174508.48598958345,
      "d": 229.00750000000698,
      "v": 80
    },
    {
      "midi": 55,
      "hit": false,
      "t": 174727.95151041725,
      "d": 458.01500000001397,
      "v": 115
    },
    {
      "midi": 55,
      "hit": false,
      "t": 174732.722500001,
      "d": 458.01500000001397,
      "v": 80
    },
    {
      "midi": 55,
      "hit": false,
      "t": 174737.49348958346,
      "d": 458.01500000001397,
      "v": 80
    },
    {
      "midi": 52,
      "hit": false,
      "t": 174956.95901041725,
      "d": 229.00750000000698,
      "v": 115
    },
    {
      "midi": 52,
      "hit": false,
      "t": 174961.730000001,
      "d": 229.00750000000698,
      "v": 80
    },
    {
      "midi": 43,
      "hit": false,
      "t": 174961.7300000024,
      "d": 9.541979166679084,
      "v": 120
    },
    {
      "midi": 52,
      "hit": false,
      "t": 174966.50098958347,
      "d": 229.00750000000698,
      "v": 80
    },
    {
      "midi": 43,
      "hit": false,
      "t": 175076.2337500024,
      "d": 9.541979166679084,
      "v": 120
    },
    {
      "midi": 55,
      "hit": false,
      "t": 175185.96651041726,
      "d": 458.01500000001397,
      "v": 115
    },
    {
      "midi": 55,
      "hit": false,
      "t": 175190.737500001,
      "d": 458.01500000001397,
      "v": 80
    },
    {
      "midi": 43,
      "hit": false,
      "t": 175190.7375000024,
      "d": 9.541979166679084,
      "v": 120
    },
    {
      "midi": 55,
      "hit": false,
      "t": 175195.50848958347,
      "d": 458.01500000001397,
      "v": 80
    },
    {
      "midi": 38,
      "hit": false,
      "t": 175300.4702604191,
      "d": 9.541979166679084,
      "v": 96
    },
    {
      "midi": 50,
      "hit": false,
      "t": 175414.97401041727,
      "d": 229.00750000000698,
      "v": 115
    },
    {
      "midi": 38,
      "hit": false,
      "t": 175414.9740104191,
      "d": 9.541979166679084,
      "v": 96
    },
    {
      "midi": 50,
      "hit": false,
      "t": 175419.745000001,
      "d": 229.00750000000698,
      "v": 80
    },
    {
      "midi": 50,
      "hit": false,
      "t": 175424.51598958348,
      "d": 229.00750000000698,
      "v": 80
    },
    {
      "midi": 55,
      "hit": false,
      "t": 175643.98151041727,
      "d": 229.00750000000698,
      "v": 115
    },
    {
      "midi": 55,
      "hit": false,
      "t": 175648.75250000102,
      "d": 229.00750000000698,
      "v": 80
    },
    {
      "midi": 55,
      "hit": false,
      "t": 175653.5234895835,
      "d": 229.00750000000698,
      "v": 80
    },
    {
      "midi": 64,
      "hit": false,
      "t": 175877.76000000027,
      "d": 1603.0524999999907,
      "v": 105
    },
    {
      "midi": 67,
      "hit": false,
      "t": 175877.76000000027,
      "d": 1603.0524999999907,
      "v": 105
    },
    {
      "midi": 72,
      "hit": false,
      "t": 175877.76000000027,
      "d": 1603.0524999999907,
      "v": 105
    },
    {
      "midi": 64,
      "hit": false,
      "t": 175877.7600000003,
      "d": 343.5112500000105,
      "v": 120
    },
    {
      "midi": 67,
      "hit": false,
      "t": 175877.7600000003,
      "d": 343.5112500000105,
      "v": 120
    },
    {
      "midi": 72,
      "hit": false,
      "t": 175877.7600000003,
      "d": 343.5112500000105,
      "v": 120
    },
    {
      "midi": 60,
      "hit": false,
      "t": 175877.7600000007,
      "d": 114.50375000000349,
      "v": 78
    },
    {
      "midi": 60,
      "hit": false,
      "t": 175877.76000000103,
      "d": 114.50375000000349,
      "v": 92
    },
    {
      "midi": 79,
      "hit": false,
      "t": 175877.76000000135,
      "d": 458.01500000001397,
      "v": 84
    },
    {
      "midi": 36,
      "hit": false,
      "t": 175877.76000000245,
      "d": 9.541979166679084,
      "v": 108
    },
    {
      "midi": 49,
      "hit": false,
      "t": 175877.76000000245,
      "d": 9.541979166679084,
      "v": 100
    },
    {
      "midi": 54,
      "hit": false,
      "t": 175877.76000000245,
      "d": 9.541979166679084,
      "v": 75
    },
    {
      "midi": 84,
      "hit": false,
      "t": 175887.30197916657,
      "d": 1832.0599999999977,
      "v": 80
    },
    {
      "midi": 60,
      "hit": false,
      "t": 175992.2637500007,
      "d": 114.50375000000349,
      "v": 78
    },
    {
      "midi": 60,
      "hit": false,
      "t": 175992.26375000103,
      "d": 114.50375000000349,
      "v": 92
    },
    {
      "midi": 54,
      "hit": false,
      "t": 176001.80572916914,
      "d": 9.541979166679084,
      "v": 35
    },
    {
      "midi": 64,
      "hit": false,
      "t": 176106.76750000071,
      "d": 114.50375000000349,
      "v": 78
    },
    {
      "midi": 64,
      "hit": false,
      "t": 176106.76750000103,
      "d": 114.50375000000349,
      "v": 92
    },
    {
      "midi": 36,
      "hit": false,
      "t": 176106.7675000025,
      "d": 9.541979166679084,
      "v": 108
    },
    {
      "midi": 54,
      "hit": false,
      "t": 176106.7675000025,
      "d": 9.541979166679084,
      "v": 55
    },
    {
      "midi": 64,
      "hit": false,
      "t": 176221.27125000072,
      "d": 114.50375000000349,
      "v": 78
    },
    {
      "midi": 64,
      "hit": false,
      "t": 176221.27125000104,
      "d": 114.50375000000349,
      "v": 92
    },
    {
      "midi": 54,
      "hit": false,
      "t": 176230.81322916917,
      "d": 9.541979166679084,
      "v": 35
    },
    {
      "midi": 38,
      "hit": false,
      "t": 176331.0040104192,
      "d": 9.541979166679084,
      "v": 96
    },
    {
      "midi": 64,
      "hit": false,
      "t": 176335.7750000003,
      "d": 343.5112500000105,
      "v": 120
    },
    {
      "midi": 67,
      "hit": false,
      "t": 176335.7750000003,
      "d": 343.5112500000105,
      "v": 120
    },
    {
      "midi": 72,
      "hit": false,
      "t": 176335.7750000003,
      "d": 343.5112500000105,
      "v": 120
    },
    {
      "midi": 67,
      "hit": false,
      "t": 176335.77500000072,
      "d": 114.50375000000349,
      "v": 86
    },
    {
      "midi": 67,
      "hit": false,
      "t": 176335.77500000104,
      "d": 114.50375000000349,
      "v": 103
    },
    {
      "midi": 79,
      "hit": false,
      "t": 176335.77500000136,
      "d": 458.01500000001397,
      "v": 84
    },
    {
      "midi": 42,
      "hit": false,
      "t": 176335.77500000253,
      "d": 9.541979166679084,
      "v": 125
    },
    {
      "midi": 54,
      "hit": false,
      "t": 176335.77500000253,
      "d": 9.541979166679084,
      "v": 75
    },
    {
      "midi": 60,
      "hit": false,
      "t": 176450.27875000073,
      "d": 114.50375000000349,
      "v": 86
    },
    {
      "midi": 60,
      "hit": false,
      "t": 176450.27875000105,
      "d": 114.50375000000349,
      "v": 103
    },
    {
      "midi": 54,
      "hit": false,
      "t": 176459.8207291692,
      "d": 9.541979166679084,
      "v": 35
    },
    {
      "midi": 67,
      "hit": false,
      "t": 176564.78250000073,
      "d": 114.50375000000349,
      "v": 86
    },
    {
      "midi": 67,
      "hit": false,
      "t": 176564.78250000105,
      "d": 114.50375000000349,
      "v": 103
    },
    {
      "midi": 54,
      "hit": false,
      "t": 176564.78250000256,
      "d": 9.541979166679084,
      "v": 55
    },
    {
      "midi": 67,
      "hit": false,
      "t": 176679.28625000073,
      "d": 229.00750000000698,
      "v": 86
    },
    {
      "midi": 67,
      "hit": false,
      "t": 176679.28625000105,
      "d": 114.50375000000349,
      "v": 103
    },
    {
      "midi": 54,
      "hit": false,
      "t": 176688.82822916924,
      "d": 9.541979166679084,
      "v": 35
    },
    {
      "midi": 38,
      "hit": false,
      "t": 176789.01901041926,
      "d": 9.541979166679084,
      "v": 96
    },
    {
      "midi": 64,
      "hit": false,
      "t": 176793.79000000033,
      "d": 190.83958333331975,
      "v": 120
    },
    {
      "midi": 67,
      "hit": false,
      "t": 176793.79000000033,
      "d": 190.83958333331975,
      "v": 120
    },
    {
      "midi": 72,
      "hit": false,
      "t": 176793.79000000033,
      "d": 190.83958333331975,
      "v": 120
    },
    {
      "midi": 60,
      "hit": false,
      "t": 176793.79000000074,
      "d": 114.50375000000349,
      "v": 70
    },
    {
      "midi": 60,
      "hit": false,
      "t": 176793.79000000106,
      "d": 114.50375000000349,
      "v": 83
    },
    {
      "midi": 76,
      "hit": false,
      "t": 176793.79000000138,
      "d": 229.00750000000698,
      "v": 84
    },
    {
      "midi": 42,
      "hit": false,
      "t": 176793.7900000026,
      "d": 9.541979166679084,
      "v": 125
    },
    {
      "midi": 54,
      "hit": false,
      "t": 176793.7900000026,
      "d": 9.541979166679084,
      "v": 75
    },
    {
      "midi": 67,
      "hit": false,
      "t": 176908.29375000074,
      "d": 114.50375000000349,
      "v": 86
    },
    {
      "midi": 67,
      "hit": false,
      "t": 176908.29375000106,
      "d": 114.50375000000349,
      "v": 103
    },
    {
      "midi": 54,
      "hit": false,
      "t": 176917.83572916928,
      "d": 9.541979166679084,
      "v": 35
    },
    {
      "midi": 64,
      "hit": false,
      "t": 177022.7975000003,
      "d": 190.83958333331975,
      "v": 120
    },
    {
      "midi": 67,
      "hit": false,
      "t": 177022.7975000003,
      "d": 190.83958333331975,
      "v": 120
    },
    {
      "midi": 72,
      "hit": false,
      "t": 177022.7975000003,
      "d": 190.83958333331975,
      "v": 120
    },
    {
      "midi": 67,
      "hit": false,
      "t": 177022.79750000074,
      "d": 229.00750000000698,
      "v": 78
    },
    {
      "midi": 67,
      "hit": false,
      "t": 177022.79750000106,
      "d": 114.50375000000349,
      "v": 92
    },
    {
      "midi": 77,
      "hit": false,
      "t": 177022.79750000138,
      "d": 229.00750000000698,
      "v": 84
    },
    {
      "midi": 36,
      "hit": false,
      "t": 177022.79750000263,
      "d": 9.541979166679084,
      "v": 108
    },
    {
      "midi": 54,
      "hit": false,
      "t": 177022.79750000263,
      "d": 9.541979166679084,
      "v": 55
    },
    {
      "midi": 60,
      "hit": false,
      "t": 177137.30125000075,
      "d": 114.50375000000349,
      "v": 70
    },
    {
      "midi": 60,
      "hit": false,
      "t": 177137.30125000107,
      "d": 114.50375000000349,
      "v": 83
    },
    {
      "midi": 54,
      "hit": false,
      "t": 177146.84322916932,
      "d": 9.541979166679084,
      "v": 35
    },
    {
      "midi": 38,
      "hit": false,
      "t": 177247.03401041933,
      "d": 9.541979166679084,
      "v": 96
    },
    {
      "midi": 64,
      "hit": false,
      "t": 177251.80500000028,
      "d": 190.83958333331975,
      "v": 120
    },
    {
      "midi": 67,
      "hit": false,
      "t": 177251.80500000028,
      "d": 190.83958333331975,
      "v": 120
    },
    {
      "midi": 72,
      "hit": false,
      "t": 177251.80500000028,
      "d": 190.83958333331975,
      "v": 120
    },
    {
      "midi": 67,
      "hit": false,
      "t": 177251.80500000075,
      "d": 114.50375000000349,
      "v": 86
    },
    {
      "midi": 67,
      "hit": false,
      "t": 177251.80500000107,
      "d": 114.50375000000349,
      "v": 103
    },
    {
      "midi": 79,
      "hit": false,
      "t": 177251.8050000014,
      "d": 229.00750000000698,
      "v": 84
    },
    {
      "midi": 42,
      "hit": false,
      "t": 177251.80500000267,
      "d": 9.541979166679084,
      "v": 125
    },
    {
      "midi": 54,
      "hit": false,
      "t": 177251.80500000267,
      "d": 9.541979166679084,
      "v": 75
    },
    {
      "midi": 67,
      "hit": false,
      "t": 177366.30875000075,
      "d": 229.00750000000698,
      "v": 78
    },
    {
      "midi": 67,
      "hit": false,
      "t": 177366.30875000107,
      "d": 114.50375000000349,
      "v": 92
    },
    {
      "midi": 54,
      "hit": false,
      "t": 177375.85072916935,
      "d": 9.541979166679084,
      "v": 35
    },
    {
      "midi": 64,
      "hit": false,
      "t": 177480.81250000026,
      "d": 190.83958333331975,
      "v": 120
    },
    {
      "midi": 67,
      "hit": false,
      "t": 177480.81250000026,
      "d": 190.83958333331975,
      "v": 120
    },
    {
      "midi": 72,
      "hit": false,
      "t": 177480.81250000026,
      "d": 190.83958333331975,
      "v": 120
    },
    {
      "midi": 60,
      "hit": false,
      "t": 177480.81250000076,
      "d": 114.50375000000349,
      "v": 70
    },
    {
      "midi": 60,
      "hit": false,
      "t": 177480.81250000108,
      "d": 114.50375000000349,
      "v": 83
    },
    {
      "midi": 81,
      "hit": false,
      "t": 177480.8125000014,
      "d": 229.00750000000698,
      "v": 84
    },
    {
      "midi": 36,
      "hit": false,
      "t": 177480.8125000027,
      "d": 9.541979166679084,
      "v": 108
    },
    {
      "midi": 54,
      "hit": false,
      "t": 177480.8125000027,
      "d": 9.541979166679084,
      "v": 55
    },
    {
      "midi": 67,
      "hit": false,
      "t": 177595.31625000076,
      "d": 114.50375000000349,
      "v": 86
    },
    {
      "midi": 67,
      "hit": false,
      "t": 177595.31625000108,
      "d": 114.50375000000349,
      "v": 103
    },
    {
      "midi": 54,
      "hit": false,
      "t": 177604.8582291694,
      "d": 9.541979166679084,
      "v": 35
    },
    {
      "midi": 38,
      "hit": false,
      "t": 177705.0490104194,
      "d": 9.541979166679084,
      "v": 96
    },
    {
      "midi": 62,
      "hit": false,
      "t": 177709.82000000024,
      "d": 343.5112500000105,
      "v": 120
    },
    {
      "midi": 67,
      "hit": false,
      "t": 177709.82000000024,
      "d": 343.5112500000105,
      "v": 120
    },
    {
      "midi": 71,
      "hit": false,
      "t": 177709.82000000024,
      "d": 343.5112500000105,
      "v": 120
    },
    {
      "midi": 64,
      "hit": false,
      "t": 177709.82000000027,
      "d": 1603.052500000049,
      "v": 105
    },
    {
      "midi": 71,
      "hit": false,
      "t": 177709.82000000027,
      "d": 1603.052500000049,
      "v": 105
    },
    {
      "midi": 67,
      "hit": false,
      "t": 177709.82000000027,
      "d": 1603.052500000049,
      "v": 105
    },
    {
      "midi": 59,
      "hit": false,
      "t": 177709.82000000076,
      "d": 114.50375000000349,
      "v": 78
    },
    {
      "midi": 59,
      "hit": false,
      "t": 177709.82000000108,
      "d": 114.50375000000349,
      "v": 92
    },
    {
      "midi": 79,
      "hit": false,
      "t": 177709.8200000014,
      "d": 458.01500000001397,
      "v": 84
    },
    {
      "midi": 42,
      "hit": false,
      "t": 177709.82000000274,
      "d": 9.541979166679084,
      "v": 125
    },
    {
      "midi": 54,
      "hit": false,
      "t": 177709.82000000274,
      "d": 9.541979166679084,
      "v": 75
    },
    {
      "midi": 83,
      "hit": false,
      "t": 177719.36197916657,
      "d": 1832.0599999999977,
      "v": 80
    },
    {
      "midi": 59,
      "hit": false,
      "t": 177824.32375000077,
      "d": 114.50375000000349,
      "v": 78
    },
    {
      "midi": 59,
      "hit": false,
      "t": 177824.3237500011,
      "d": 114.50375000000349,
      "v": 92
    },
    {
      "midi": 54,
      "hit": false,
      "t": 177833.86572916943,
      "d": 9.541979166679084,
      "v": 35
    },
    {
      "midi": 62,
      "hit": false,
      "t": 177938.82750000077,
      "d": 114.50375000000349,
      "v": 78
    },
    {
      "midi": 62,
      "hit": false,
      "t": 177938.8275000011,
      "d": 114.50375000000349,
      "v": 92
    },
    {
      "midi": 36,
      "hit": false,
      "t": 177938.82750000278,
      "d": 9.541979166679084,
      "v": 108
    },
    {
      "midi": 54,
      "hit": false,
      "t": 177938.82750000278,
      "d": 9.541979166679084,
      "v": 55
    },
    {
      "midi": 62,
      "hit": false,
      "t": 178053.33125000077,
      "d": 114.50375000000349,
      "v": 78
    },
    {
      "midi": 62,
      "hit": false,
      "t": 178053.3312500011,
      "d": 114.50375000000349,
      "v": 92
    },
    {
      "midi": 54,
      "hit": false,
      "t": 178062.87322916946,
      "d": 9.541979166679084,
      "v": 35
    },
    {
      "midi": 38,
      "hit": false,
      "t": 178163.06401041948,
      "d": 9.541979166679084,
      "v": 96
    },
    {
      "midi": 62,
      "hit": false,
      "t": 178167.83500000025,
      "d": 343.5112500000105,
      "v": 120
    },
    {
      "midi": 65,
      "hit": false,
      "t": 178167.83500000025,
      "d": 343.5112500000105,
      "v": 120
    },
    {
      "midi": 69,
      "hit": false,
      "t": 178167.83500000025,
      "d": 343.5112500000105,
      "v": 120
    },
    {
      "midi": 77,
      "hit": false,
      "t": 178167.83500000028,
      "d": 453.2440104166744,
      "v": 105
    },
    {
      "midi": 89,
      "hit": false,
      "t": 178167.83500000028,
      "d": 453.2440104166744,
      "v": 105
    },
    {
      "midi": 67,
      "hit": false,
      "t": 178167.83500000078,
      "d": 114.50375000000349,
      "v": 86
    },
    {
      "midi": 67,
      "hit": false,
      "t": 178167.8350000011,
      "d": 114.50375000000349,
      "v": 103
    },
    {
      "midi": 77,
      "hit": false,
      "t": 178167.83500000142,
      "d": 458.01500000001397,
      "v": 84
    },
    {
      "midi": 42,
      "hit": false,
      "t": 178167.83500000281,
      "d": 9.541979166679084,
      "v": 125
    },
    {
      "midi": 54,
      "hit": false,
      "t": 178167.83500000281,
      "d": 9.541979166679084,
      "v": 75
    },
    {
      "midi": 67,
      "hit": false,
      "t": 178282.33875000078,
      "d": 229.00750000000698,
      "v": 78
    },
    {
      "midi": 67,
      "hit": false,
      "t": 178282.3387500011,
      "d": 114.50375000000349,
      "v": 92
    },
    {
      "midi": 54,
      "hit": false,
      "t": 178291.8807291695,
      "d": 9.541979166679084,
      "v": 35
    },
    {
      "midi": 59,
      "hit": false,
      "t": 178396.84250000078,
      "d": 114.50375000000349,
      "v": 70
    },
    {
      "midi": 59,
      "hit": false,
      "t": 178396.8425000011,
      "d": 114.50375000000349,
      "v": 83
    },
    {
      "midi": 54,
      "hit": false,
      "t": 178396.84250000285,
      "d": 9.541979166679084,
      "v": 55
    },
    {
      "midi": 67,
      "hit": false,
      "t": 178511.3462500008,
      "d": 229.00750000000698,
      "v": 86
    },
    {
      "midi": 67,
      "hit": false,
      "t": 178511.3462500011,
      "d": 114.50375000000349,
      "v": 103
    },
    {
      "midi": 54,
      "hit": false,
      "t": 178520.88822916953,
      "d": 9.541979166679084,
      "v": 35
    },
    {
      "midi": 38,
      "hit": false,
      "t": 178621.07901041955,
      "d": 9.541979166679084,
      "v": 96
    },
    {
      "midi": 60,
      "hit": false,
      "t": 178625.85000000027,
      "d": 343.5112500000105,
      "v": 120
    },
    {
      "midi": 64,
      "hit": false,
      "t": 178625.85000000027,
      "d": 343.5112500000105,
      "v": 120
    },
    {
      "midi": 67,
      "hit": false,
      "t": 178625.85000000027,
      "d": 343.5112500000105,
      "v": 120
    },
    {
      "midi": 76,
      "hit": false,
      "t": 178625.8500000003,
      "d": 453.2440104166744,
      "v": 105
    },
    {
      "midi": 88,
      "hit": false,
      "t": 178625.8500000003,
      "d": 453.2440104166744,
      "v": 105
    },
    {
      "midi": 59,
      "hit": false,
      "t": 178625.8500000008,
      "d": 114.50375000000349,
      "v": 70
    },
    {
      "midi": 59,
      "hit": false,
      "t": 178625.8500000011,
      "d": 114.50375000000349,
      "v": 83
    },
    {
      "midi": 76,
      "hit": false,
      "t": 178625.85000000143,
      "d": 458.01500000001397,
      "v": 84
    },
    {
      "midi": 42,
      "hit": false,
      "t": 178625.8500000029,
      "d": 9.541979166679084,
      "v": 125
    },
    {
      "midi": 54,
      "hit": false,
      "t": 178625.8500000029,
      "d": 9.541979166679084,
      "v": 75
    },
    {
      "midi": 67,
      "hit": false,
      "t": 178740.3537500008,
      "d": 114.50375000000349,
      "v": 78
    },
    {
      "midi": 67,
      "hit": false,
      "t": 178740.35375000112,
      "d": 114.50375000000349,
      "v": 103
    },
    {
      "midi": 54,
      "hit": false,
      "t": 178749.89572916957,
      "d": 9.541979166679084,
      "v": 35
    },
    {
      "midi": 67,
      "hit": false,
      "t": 178854.8575000008,
      "d": 229.00750000000698,
      "v": 86
    },
    {
      "midi": 67,
      "hit": false,
      "t": 178854.85750000112,
      "d": 114.50375000000349,
      "v": 92
    },
    {
      "midi": 36,
      "hit": false,
      "t": 178854.85750000292,
      "d": 9.541979166679084,
      "v": 108
    },
    {
      "midi": 54,
      "hit": false,
      "t": 178854.85750000292,
      "d": 9.541979166679084,
      "v": 55
    },
    {
      "midi": 59,
      "hit": false,
      "t": 178969.3612500008,
      "d": 114.50375000000349,
      "v": 70
    },
    {
      "midi": 59,
      "hit": false,
      "t": 178969.36125000112,
      "d": 114.50375000000349,
      "v": 83
    },
    {
      "midi": 54,
      "hit": false,
      "t": 178978.9032291696,
      "d": 9.541979166679084,
      "v": 35
    },
    {
      "midi": 38,
      "hit": false,
      "t": 179079.09401041962,
      "d": 9.541979166679084,
      "v": 96
    },
    {
      "midi": 59,
      "hit": false,
      "t": 179083.86500000028,
      "d": 343.5112500000105,
      "v": 120
    },
    {
      "midi": 62,
      "hit": false,
      "t": 179083.86500000028,
      "d": 343.5112500000105,
      "v": 120
    },
    {
      "midi": 65,
      "hit": false,
      "t": 179083.86500000028,
      "d": 343.5112500000105,
      "v": 120
    },
    {
      "midi": 86,
      "hit": false,
      "t": 179083.8650000003,
      "d": 453.2440104166744,
      "v": 105
    },
    {
      "midi": 74,
      "hit": false,
      "t": 179083.8650000003,
      "d": 453.2440104166744,
      "v": 105
    },
    {
      "midi": 67,
      "hit": false,
      "t": 179083.8650000008,
      "d": 114.50375000000349,
      "v": 86
    },
    {
      "midi": 67,
      "hit": false,
      "t": 179083.86500000113,
      "d": 114.50375000000349,
      "v": 103
    },
    {
      "midi": 74,
      "hit": false,
      "t": 179083.86500000145,
      "d": 458.01500000001397,
      "v": 84
    },
    {
      "midi": 42,
      "hit": false,
      "t": 179083.86500000296,
      "d": 9.541979166679084,
      "v": 125
    },
    {
      "midi": 54,
      "hit": false,
      "t": 179083.86500000296,
      "d": 9.541979166679084,
      "v": 75
    },
    {
      "midi": 67,
      "hit": false,
      "t": 179198.3687500008,
      "d": 229.00750000000698,
      "v": 78
    },
    {
      "midi": 67,
      "hit": false,
      "t": 179198.36875000113,
      "d": 114.50375000000349,
      "v": 92
    },
    {
      "midi": 54,
      "hit": false,
      "t": 179207.91072916964,
      "d": 9.541979166679084,
      "v": 35
    },
    {
      "midi": 59,
      "hit": false,
      "t": 179312.8725000008,
      "d": 114.50375000000349,
      "v": 70
    },
    {
      "midi": 59,
      "hit": false,
      "t": 179312.87250000113,
      "d": 114.50375000000349,
      "v": 83
    },
    {
      "midi": 36,
      "hit": false,
      "t": 179312.872500003,
      "d": 9.541979166679084,
      "v": 108
    },
    {
      "midi": 54,
      "hit": false,
      "t": 179312.872500003,
      "d": 9.541979166679084,
      "v": 55
    },
    {
      "midi": 67,
      "hit": false,
      "t": 179427.37625000082,
      "d": 114.50375000000349,
      "v": 86
    },
    {
      "midi": 67,
      "hit": false,
      "t": 179427.37625000114,
      "d": 114.50375000000349,
      "v": 103
    },
    {
      "midi": 54,
      "hit": false,
      "t": 179436.91822916968,
      "d": 9.541979166679084,
      "v": 35
    },
    {
      "midi": 38,
      "hit": false,
      "t": 179537.1090104197,
      "d": 9.541979166679084,
      "v": 96
    },
    {
      "midi": 60,
      "hit": false,
      "t": 179541.8800000003,
      "d": 343.5112500000105,
      "v": 120
    },
    {
      "midi": 69,
      "hit": false,
      "t": 179541.8800000003,
      "d": 343.5112500000105,
      "v": 120
    },
    {
      "midi": 64,
      "hit": false,
      "t": 179541.8800000003,
      "d": 343.5112500000105,
      "v": 120
    },
    {
      "midi": 72,
      "hit": false,
      "t": 179541.88000000032,
      "d": 453.2440104166744,
      "v": 105
    },
    {
      "midi": 84,
      "hit": false,
      "t": 179541.88000000032,
      "d": 453.2440104166744,
      "v": 105
    },
    {
      "midi": 64,
      "hit": false,
      "t": 179541.88000000032,
      "d": 1603.0525000000198,
      "v": 105
    },
    {
      "midi": 67,
      "hit": false,
      "t": 179541.88000000032,
      "d": 1603.0525000000198,
      "v": 105
    },
    {
      "midi": 60,
      "hit": false,
      "t": 179541.88000000032,
      "d": 1603.0525000000198,
      "v": 105
    },
    {
      "midi": 69,
      "hit": false,
      "t": 179541.88000000032,
      "d": 1603.0525000000198,
      "v": 105
    },
    {
      "midi": 60,
      "hit": false,
      "t": 179541.88000000082,
      "d": 114.50375000000349,
      "v": 78
    },
    {
      "midi": 60,
      "hit": false,
      "t": 179541.88000000114,
      "d": 114.50375000000349,
      "v": 92
    },
    {
      "midi": 76,
      "hit": false,
      "t": 179541.88000000146,
      "d": 458.01500000001397,
      "v": 84
    },
    {
      "midi": 42,
      "hit": false,
      "t": 179541.88000000303,
      "d": 9.541979166679084,
      "v": 125
    },
    {
      "midi": 54,
      "hit": false,
      "t": 179541.88000000303,
      "d": 9.541979166679084,
      "v": 75
    },
    {
      "midi": 81,
      "hit": false,
      "t": 179551.42197916657,
      "d": 1832.0599999999977,
      "v": 80
    },
    {
      "midi": 60,
      "hit": false,
      "t": 179656.38375000082,
      "d": 114.50375000000349,
      "v": 78
    },
    {
      "midi": 60,
      "hit": false,
      "t": 179656.38375000114,
      "d": 114.50375000000349,
      "v": 92
    },
    {
      "midi": 54,
      "hit": false,
      "t": 179665.9257291697,
      "d": 9.541979166679084,
      "v": 35
    },
    {
      "midi": 64,
      "hit": false,
      "t": 179770.88750000083,
      "d": 114.50375000000349,
      "v": 78
    },
    {
      "midi": 64,
      "hit": false,
      "t": 179770.88750000115,
      "d": 114.50375000000349,
      "v": 92
    },
    {
      "midi": 36,
      "hit": false,
      "t": 179770.88750000307,
      "d": 9.541979166679084,
      "v": 108
    },
    {
      "midi": 54,
      "hit": false,
      "t": 179770.88750000307,
      "d": 9.541979166679084,
      "v": 55
    },
    {
      "midi": 64,
      "hit": false,
      "t": 179885.39125000083,
      "d": 114.50375000000349,
      "v": 78
    },
    {
      "midi": 64,
      "hit": false,
      "t": 179885.39125000115,
      "d": 114.50375000000349,
      "v": 92
    },
    {
      "midi": 54,
      "hit": false,
      "t": 179894.93322916975,
      "d": 9.541979166679084,
      "v": 35
    },
    {
      "midi": 38,
      "hit": false,
      "t": 179995.12401041976,
      "d": 9.541979166679084,
      "v": 96
    },
    {
      "midi": 60,
      "hit": false,
      "t": 179999.8950000003,
      "d": 343.5112500000105,
      "v": 120
    },
    {
      "midi": 69,
      "hit": false,
      "t": 179999.8950000003,
      "d": 343.5112500000105,
      "v": 120
    },
    {
      "midi": 64,
      "hit": false,
      "t": 179999.8950000003,
      "d": 343.5112500000105,
      "v": 120
    },
    {
      "midi": 72,
      "hit": false,
      "t": 179999.89500000034,
      "d": 453.2440104166744,
      "v": 105
    },
    {
      "midi": 84,
      "hit": false,
      "t": 179999.89500000034,
      "d": 453.2440104166744,
      "v": 105
    },
    {
      "midi": 69,
      "hit": false,
      "t": 179999.89500000083,
      "d": 114.50375000000349,
      "v": 86
    },
    {
      "midi": 69,
      "hit": false,
      "t": 179999.89500000115,
      "d": 114.50375000000349,
      "v": 103
    },
    {
      "midi": 76,
      "hit": false,
      "t": 179999.89500000147,
      "d": 458.01500000001397,
      "v": 84
    },
    {
      "midi": 42,
      "hit": false,
      "t": 179999.8950000031,
      "d": 9.541979166679084,
      "v": 125
    },
    {
      "midi": 54,
      "hit": false,
      "t": 179999.8950000031,
      "d": 9.541979166679084,
      "v": 75
    },
    {
      "midi": 69,
      "hit": false,
      "t": 180114.39875000084,
      "d": 229.00750000000698,
      "v": 78
    },
    {
      "midi": 69,
      "hit": false,
      "t": 180114.39875000116,
      "d": 114.50375000000349,
      "v": 92
    },
    {
      "midi": 54,
      "hit": false,
      "t": 180123.9407291698,
      "d": 9.541979166679084,
      "v": 35
    },
    {
      "midi": 60,
      "hit": false,
      "t": 180228.90250000084,
      "d": 114.50375000000349,
      "v": 70
    },
    {
      "midi": 60,
      "hit": false,
      "t": 180228.90250000116,
      "d": 114.50375000000349,
      "v": 83
    },
    {
      "midi": 54,
      "hit": false,
      "t": 180228.90250000314,
      "d": 9.541979166679084,
      "v": 55
    },
    {
      "midi": 69,
      "hit": false,
      "t": 180343.40625000084,
      "d": 229.00750000000698,
      "v": 86
    },
    {
      "midi": 69,
      "hit": false,
      "t": 180343.40625000116,
      "d": 114.50375000000349,
      "v": 103
    },
    {
      "midi": 54,
      "hit": false,
      "t": 180352.94822916982,
      "d": 9.541979166679084,
      "v": 35
    },
    {
      "midi": 38,
      "hit": false,
      "t": 180453.13901041984,
      "d": 9.541979166679084,
      "v": 96
    },
    {
      "midi": 60,
      "hit": false,
      "t": 180457.91000000032,
      "d": 190.83958333331975,
      "v": 120
    },
    {
      "midi": 69,
      "hit": false,
      "t": 180457.91000000032,
      "d": 190.83958333331975,
      "v": 120
    },
    {
      "midi": 57,
      "hit": false,
      "t": 180457.91000000032,
      "d": 190.83958333331975,
      "v": 120
    },
    {
      "midi": 60,
      "hit": false,
      "t": 180457.91000000085,
      "d": 114.50375000000349,
      "v": 70
    },
    {
      "midi": 60,
      "hit": false,
      "t": 180457.91000000117,
      "d": 114.50375000000349,
      "v": 83
    },
    {
      "midi": 72,
      "hit": false,
      "t": 180457.9100000015,
      "d": 229.00750000000698,
      "v": 84
    },
    {
      "midi": 42,
      "hit": false,
      "t": 180457.91000000318,
      "d": 9.541979166679084,
      "v": 125
    },
    {
      "midi": 54,
      "hit": false,
      "t": 180457.91000000318,
      "d": 9.541979166679084,
      "v": 75
    },
    {
      "midi": 69,
      "hit": false,
      "t": 180572.41375000085,
      "d": 114.50375000000349,
      "v": 86
    },
    {
      "midi": 69,
      "hit": false,
      "t": 180572.41375000117,
      "d": 114.50375000000349,
      "v": 103
    },
    {
      "midi": 54,
      "hit": false,
      "t": 180581.95572916986,
      "d": 9.541979166679084,
      "v": 35
    },
    {
      "midi": 59,
      "hit": false,
      "t": 180686.9175000003,
      "d": 190.83958333331975,
      "v": 120
    },
    {
      "midi": 62,
      "hit": false,
      "t": 180686.9175000003,
      "d": 190.83958333331975,
      "v": 120
    },
    {
      "midi": 69,
      "hit": false,
      "t": 180686.9175000003,
      "d": 190.83958333331975,
      "v": 120
    },
    {
      "midi": 69,
      "hit": false,
      "t": 180686.91750000085,
      "d": 229.00750000000698,
      "v": 78
    },
    {
      "midi": 69,
      "hit": false,
      "t": 180686.91750000117,
      "d": 114.50375000000349,
      "v": 92
    },
    {
      "midi": 74,
      "hit": false,
      "t": 180686.9175000015,
      "d": 229.00750000000698,
      "v": 84
    },
    {
      "midi": 36,
      "hit": false,
      "t": 180686.9175000032,
      "d": 9.541979166679084,
      "v": 108
    },
    {
      "midi": 54,
      "hit": false,
      "t": 180686.9175000032,
      "d": 9.541979166679084,
      "v": 55
    },
    {
      "midi": 60,
      "hit": false,
      "t": 180801.42125000086,
      "d": 114.50375000000349,
      "v": 70
    },
    {
      "midi": 60,
      "hit": false,
      "t": 180801.42125000118,
      "d": 114.50375000000349,
      "v": 83
    },
    {
      "midi": 54,
      "hit": false,
      "t": 180810.9632291699,
      "d": 9.541979166679084,
      "v": 35
    },
    {
      "midi": 38,
      "hit": false,
      "t": 180911.1540104199,
      "d": 9.541979166679084,
      "v": 96
    },
    {
      "midi": 60,
      "hit": false,
      "t": 180915.92500000028,
      "d": 190.83958333331975,
      "v": 120
    },
    {
      "midi": 64,
      "hit": false,
      "t": 180915.92500000028,
      "d": 190.83958333331975,
      "v": 120
    },
    {
      "midi": 69,
      "hit": false,
      "t": 180915.92500000028,
      "d": 190.83958333331975,
      "v": 120
    },
    {
      "midi": 69,
      "hit": false,
      "t": 180915.92500000086,
      "d": 114.50375000000349,
      "v": 86
    },
    {
      "midi": 69,
      "hit": false,
      "t": 180915.92500000118,
      "d": 114.50375000000349,
      "v": 103
    },
    {
      "midi": 76,
      "hit": false,
      "t": 180915.9250000015,
      "d": 229.00750000000698,
      "v": 84
    },
    {
      "midi": 42,
      "hit": false,
      "t": 180915.92500000325,
      "d": 9.541979166679084,
      "v": 125
    },
    {
      "midi": 54,
      "hit": false,
      "t": 180915.92500000325,
      "d": 9.541979166679084,
      "v": 75
    },
    {
      "midi": 69,
      "hit": false,
      "t": 181030.42875000086,
      "d": 229.00750000000698,
      "v": 78
    },
    {
      "midi": 69,
      "hit": false,
      "t": 181030.42875000119,
      "d": 114.50375000000349,
      "v": 92
    },
    {
      "midi": 54,
      "hit": false,
      "t": 181039.97072916993,
      "d": 9.541979166679084,
      "v": 35
    },
    {
      "midi": 62,
      "hit": false,
      "t": 181144.93250000026,
      "d": 190.83958333331975,
      "v": 120
    },
    {
      "midi": 65,
      "hit": false,
      "t": 181144.93250000026,
      "d": 190.83958333331975,
      "v": 120
    },
    {
      "midi": 69,
      "hit": false,
      "t": 181144.93250000026,
      "d": 190.83958333331975,
      "v": 120
    },
    {
      "midi": 60,
      "hit": false,
      "t": 181144.93250000087,
      "d": 114.50375000000349,
      "v": 70
    },
    {
      "midi": 60,
      "hit": false,
      "t": 181144.9325000012,
      "d": 114.50375000000349,
      "v": 83
    },
    {
      "midi": 77,
      "hit": false,
      "t": 181144.9325000015,
      "d": 229.00750000000698,
      "v": 84
    },
    {
      "midi": 36,
      "hit": false,
      "t": 181144.93250000328,
      "d": 9.541979166679084,
      "v": 108
    },
    {
      "midi": 54,
      "hit": false,
      "t": 181144.93250000328,
      "d": 9.541979166679084,
      "v": 55
    },
    {
      "midi": 69,
      "hit": false,
      "t": 181259.43625000087,
      "d": 114.50375000000349,
      "v": 86
    },
    {
      "midi": 69,
      "hit": false,
      "t": 181259.4362500012,
      "d": 114.50375000000349,
      "v": 103
    },
    {
      "midi": 54,
      "hit": false,
      "t": 181268.97822916997,
      "d": 9.541979166679084,
      "v": 35
    },
    {
      "midi": 38,
      "hit": false,
      "t": 181369.16901041998,
      "d": 9.541979166679084,
      "v": 96
    },
    {
      "midi": 60,
      "hit": false,
      "t": 181373.94000000024,
      "d": 343.5112500000105,
      "v": 120
    },
    {
      "midi": 64,
      "hit": false,
      "t": 181373.94000000024,
      "d": 343.5112500000105,
      "v": 120
    },
    {
      "midi": 67,
      "hit": false,
      "t": 181373.94000000024,
      "d": 343.5112500000105,
      "v": 120
    },
    {
      "midi": 88,
      "hit": false,
      "t": 181373.94000000035,
      "d": 453.2440104166744,
      "v": 105
    },
    {
      "midi": 76,
      "hit": false,
      "t": 181373.94000000035,
      "d": 453.2440104166744,
      "v": 105
    },
    {
      "midi": 62,
      "hit": false,
      "t": 181373.94000000035,
      "d": 1145.037500000035,
      "v": 105
    },
    {
      "midi": 64,
      "hit": false,
      "t": 181373.94000000035,
      "d": 1145.037500000035,
      "v": 105
    },
    {
      "midi": 67,
      "hit": false,
      "t": 181373.94000000035,
      "d": 1145.037500000035,
      "v": 105
    },
    {
      "midi": 59,
      "hit": false,
      "t": 181373.94000000035,
      "d": 1145.037500000035,
      "v": 105
    },
    {
      "midi": 59,
      "hit": false,
      "t": 181373.94000000088,
      "d": 114.50375000000349,
      "v": 78
    },
    {
      "midi": 59,
      "hit": false,
      "t": 181373.9400000012,
      "d": 114.50375000000349,
      "v": 92
    },
    {
      "midi": 76,
      "hit": false,
      "t": 181373.94000000152,
      "d": 458.01500000001397,
      "v": 84
    },
    {
      "midi": 42,
      "hit": false,
      "t": 181373.94000000332,
      "d": 9.541979166679084,
      "v": 125
    },
    {
      "midi": 54,
      "hit": false,
      "t": 181373.94000000332,
      "d": 9.541979166679084,
      "v": 75
    },
    {
      "midi": 79,
      "hit": false,
      "t": 181383.48197916656,
      "d": 1374.0450000000128,
      "v": 80
    },
    {
      "midi": 59,
      "hit": false,
      "t": 181488.44375000088,
      "d": 114.50375000000349,
      "v": 78
    },
    {
      "midi": 59,
      "hit": false,
      "t": 181488.4437500012,
      "d": 114.50375000000349,
      "v": 92
    },
    {
      "midi": 54,
      "hit": false,
      "t": 181497.98572917,
      "d": 9.541979166679084,
      "v": 35
    },
    {
      "midi": 64,
      "hit": false,
      "t": 181602.94750000088,
      "d": 114.50375000000349,
      "v": 78
    },
    {
      "midi": 64,
      "hit": false,
      "t": 181602.9475000012,
      "d": 114.50375000000349,
      "v": 92
    },
    {
      "midi": 36,
      "hit": false,
      "t": 181602.94750000336,
      "d": 9.541979166679084,
      "v": 108
    },
    {
      "midi": 54,
      "hit": false,
      "t": 181602.94750000336,
      "d": 9.541979166679084,
      "v": 55
    },
    {
      "midi": 64,
      "hit": false,
      "t": 181717.4512500009,
      "d": 114.50375000000349,
      "v": 78
    },
    {
      "midi": 64,
      "hit": false,
      "t": 181717.4512500012,
      "d": 114.50375000000349,
      "v": 92
    },
    {
      "midi": 54,
      "hit": false,
      "t": 181726.99322917004,
      "d": 9.541979166679084,
      "v": 35
    },
    {
      "midi": 38,
      "hit": false,
      "t": 181827.18401042005,
      "d": 9.541979166679084,
      "v": 96
    },
    {
      "midi": 59,
      "hit": false,
      "t": 181831.95500000025,
      "d": 343.5112500000105,
      "v": 120
    },
    {
      "midi": 62,
      "hit": false,
      "t": 181831.95500000025,
      "d": 343.5112500000105,
      "v": 120
    },
    {
      "midi": 65,
      "hit": false,
      "t": 181831.95500000025,
      "d": 343.5112500000105,
      "v": 120
    },
    {
      "midi": 74,
      "hit": false,
      "t": 181831.95500000037,
      "d": 453.2440104166744,
      "v": 105
    },
    {
      "midi": 86,
      "hit": false,
      "t": 181831.95500000037,
      "d": 453.2440104166744,
      "v": 105
    },
    {
      "midi": 67,
      "hit": false,
      "t": 181831.9550000009,
      "d": 114.50375000000349,
      "v": 86
    },
    {
      "midi": 67,
      "hit": false,
      "t": 181831.9550000012,
      "d": 114.50375000000349,
      "v": 103
    },
    {
      "midi": 74,
      "hit": false,
      "t": 181831.95500000153,
      "d": 458.01500000001397,
      "v": 84
    },
    {
      "midi": 42,
      "hit": false,
      "t": 181831.9550000034,
      "d": 9.541979166679084,
      "v": 125
    },
    {
      "midi": 54,
      "hit": false,
      "t": 181831.9550000034,
      "d": 9.541979166679084,
      "v": 75
    },
    {
      "midi": 67,
      "hit": false,
      "t": 181946.4587500009,
      "d": 229.00750000000698,
      "v": 78
    },
    {
      "midi": 67,
      "hit": false,
      "t": 181946.4587500012,
      "d": 114.50375000000349,
      "v": 92
    },
    {
      "midi": 54,
      "hit": false,
      "t": 181956.00072917007,
      "d": 9.541979166679084,
      "v": 35
    },
    {
      "midi": 59,
      "hit": false,
      "t": 182060.9625000009,
      "d": 114.50375000000349,
      "v": 70
    },
    {
      "midi": 59,
      "hit": false,
      "t": 182060.96250000122,
      "d": 114.50375000000349,
      "v": 83
    },
    {
      "midi": 54,
      "hit": false,
      "t": 182060.96250000343,
      "d": 9.541979166679084,
      "v": 55
    },
    {
      "midi": 67,
      "hit": false,
      "t": 182175.4662500009,
      "d": 114.50375000000349,
      "v": 86
    },
    {
      "midi": 67,
      "hit": false,
      "t": 182175.46625000122,
      "d": 114.50375000000349,
      "v": 103
    },
    {
      "midi": 54,
      "hit": false,
      "t": 182185.0082291701,
      "d": 9.541979166679084,
      "v": 35
    },
    {
      "midi": 38,
      "hit": false,
      "t": 182285.19901042012,
      "d": 9.541979166679084,
      "v": 96
    },
    {
      "midi": 60,
      "hit": false,
      "t": 182289.97000000026,
      "d": 343.5112500000105,
      "v": 120
    },
    {
      "midi": 57,
      "hit": false,
      "t": 182289.97000000026,
      "d": 343.5112500000105,
      "v": 120
    },
    {
      "midi": 64,
      "hit": false,
      "t": 182289.97000000026,
      "d": 343.5112500000105,
      "v": 120
    },
    {
      "midi": 84,
      "hit": false,
      "t": 182289.97000000038,
      "d": 453.2440104166744,
      "v": 105
    },
    {
      "midi": 72,
      "hit": false,
      "t": 182289.97000000038,
      "d": 453.2440104166744,
      "v": 105
    },
    {
      "midi": 59,
      "hit": false,
      "t": 182289.9700000009,
      "d": 114.50375000000349,
      "v": 70
    },
    {
      "midi": 59,
      "hit": false,
      "t": 182289.97000000122,
      "d": 114.50375000000349,
      "v": 83
    },
    {
      "midi": 72,
      "hit": false,
      "t": 182289.97000000154,
      "d": 458.01500000001397,
      "v": 84
    },
    {
      "midi": 42,
      "hit": false,
      "t": 182289.97000000346,
      "d": 9.541979166679084,
      "v": 125
    },
    {
      "midi": 54,
      "hit": false,
      "t": 182289.97000000346,
      "d": 9.541979166679084,
      "v": 75
    },
    {
      "midi": 67,
      "hit": false,
      "t": 182404.4737500009,
      "d": 114.50375000000349,
      "v": 86
    },
    {
      "midi": 67,
      "hit": false,
      "t": 182404.47375000123,
      "d": 114.50375000000349,
      "v": 103
    },
    {
      "midi": 54,
      "hit": false,
      "t": 182414.01572917015,
      "d": 9.541979166679084,
      "v": 35
    },
    {
      "midi": 67,
      "hit": false,
      "t": 182518.9775000009,
      "d": 229.00750000000698,
      "v": 78
    },
    {
      "midi": 67,
      "hit": false,
      "t": 182518.97750000123,
      "d": 114.50375000000349,
      "v": 92
    },
    {
      "midi": 36,
      "hit": false,
      "t": 182518.9775000035,
      "d": 9.541979166679084,
      "v": 108
    },
    {
      "midi": 54,
      "hit": false,
      "t": 182518.9775000035,
      "d": 9.541979166679084,
      "v": 55
    },
    {
      "midi": 59,
      "hit": false,
      "t": 182633.4812500009,
      "d": 114.50375000000349,
      "v": 70
    },
    {
      "midi": 59,
      "hit": false,
      "t": 182633.48125000123,
      "d": 114.50375000000349,
      "v": 83
    },
    {
      "midi": 54,
      "hit": false,
      "t": 182643.02322917018,
      "d": 9.541979166679084,
      "v": 35
    },
    {
      "midi": 38,
      "hit": false,
      "t": 182743.2140104202,
      "d": 9.541979166679084,
      "v": 96
    },
    {
      "midi": 56,
      "hit": false,
      "t": 182747.98500000028,
      "d": 343.5112500000105,
      "v": 120
    },
    {
      "midi": 59,
      "hit": false,
      "t": 182747.98500000028,
      "d": 343.5112500000105,
      "v": 120
    },
    {
      "midi": 62,
      "hit": false,
      "t": 182747.98500000028,
      "d": 343.5112500000105,
      "v": 120
    },
    {
      "midi": 59,
      "hit": false,
      "t": 182747.9850000004,
      "d": 400.7631249999977,
      "v": 105
    },
    {
      "midi": 68,
      "hit": false,
      "t": 182747.9850000004,
      "d": 400.7631249999977,
      "v": 105
    },
    {
      "midi": 62,
      "hit": false,
      "t": 182747.9850000004,
      "d": 400.7631249999977,
      "v": 105
    },
    {
      "midi": 64,
      "hit": false,
      "t": 182747.9850000004,
      "d": 400.7631249999977,
      "v": 105
    },
    {
      "midi": 71,
      "hit": false,
      "t": 182747.9850000004,
      "d": 453.2440104166744,
      "v": 105
    },
    {
      "midi": 83,
      "hit": false,
      "t": 182747.9850000004,
      "d": 453.2440104166744,
      "v": 105
    },
    {
      "midi": 59,
      "hit": false,
      "t": 182747.98500000092,
      "d": 114.50375000000349,
      "v": 70
    },
    {
      "midi": 59,
      "hit": false,
      "t": 182747.98500000124,
      "d": 114.50375000000349,
      "v": 83
    },
    {
      "midi": 71,
      "hit": false,
      "t": 182747.98500000156,
      "d": 458.01500000001397,
      "v": 84
    },
    {
      "midi": 42,
      "hit": false,
      "t": 182747.98500000354,
      "d": 9.541979166679084,
      "v": 125
    },
    {
      "midi": 54,
      "hit": false,
      "t": 182747.98500000354,
      "d": 9.541979166679084,
      "v": 75
    },
    {
      "midi": 80,
      "hit": false,
      "t": 182757.52697916658,
      "d": 458.01500000001397,
      "v": 80
    },
    {
      "midi": 68,
      "hit": false,
      "t": 182862.48875000092,
      "d": 114.50375000000349,
      "v": 86
    },
    {
      "midi": 68,
      "hit": false,
      "t": 182862.48875000124,
      "d": 114.50375000000349,
      "v": 103
    },
    {
      "midi": 54,
      "hit": false,
      "t": 182872.03072917022,
      "d": 9.541979166679084,
      "v": 35
    },
    {
      "midi": 68,
      "hit": false,
      "t": 182976.99250000092,
      "d": 229.00750000000698,
      "v": 78
    },
    {
      "midi": 68,
      "hit": false,
      "t": 182976.99250000124,
      "d": 114.50375000000349,
      "v": 92
    },
    {
      "midi": 36,
      "hit": false,
      "t": 182976.99250000357,
      "d": 9.541979166679084,
      "v": 108
    },
    {
      "midi": 54,
      "hit": false,
      "t": 182976.99250000357,
      "d": 9.541979166679084,
      "v": 55
    },
    {
      "midi": 59,
      "hit": false,
      "t": 183091.49625000093,
      "d": 114.50375000000349,
      "v": 70
    },
    {
      "midi": 59,
      "hit": false,
      "t": 183091.49625000125,
      "d": 114.50375000000349,
      "v": 83
    },
    {
      "midi": 54,
      "hit": false,
      "t": 183101.03822917026,
      "d": 9.541979166679084,
      "v": 35
    },
    {
      "midi": 38,
      "hit": false,
      "t": 183201.22901042027,
      "d": 9.541979166679084,
      "v": 96
    },
    {
      "midi": 57,
      "hit": false,
      "t": 183206.0000000004,
      "d": 1832.0599999999977,
      "v": 105
    },
    {
      "midi": 65,
      "hit": false,
      "t": 183206.0000000004,
      "d": 1832.0599999999977,
      "v": 105
    },
    {
      "midi": 60,
      "hit": false,
      "t": 183206.0000000004,
      "d": 1832.0599999999977,
      "v": 105
    },
    {
      "midi": 69,
      "hit": false,
      "t": 183206.0000000004,
      "d": 1832.0599999999977,
      "v": 105
    },
    {
      "midi": 57,
      "hit": false,
      "t": 183206.00000000093,
      "d": 114.50375000000349,
      "v": 86
    },
    {
      "midi": 57,
      "hit": false,
      "t": 183206.00000000125,
      "d": 114.50375000000349,
      "v": 103
    },
    {
      "midi": 49,
      "hit": false,
      "t": 183206.0000000036,
      "d": 9.541979166679084,
      "v": 100
    },
    {
      "midi": 54,
      "hit": false,
      "t": 183206.0000000036,
      "d": 9.541979166679084,
      "v": 75
    },
    {
      "midi": 81,
      "hit": false,
      "t": 183215.5419791666,
      "d": 1374.0450000000128,
      "v": 80
    },
    {
      "midi": 60,
      "hit": false,
      "t": 183320.50375000093,
      "d": 114.50375000000349,
      "v": 70
    },
    {
      "midi": 60,
      "hit": false,
      "t": 183320.50375000125,
      "d": 114.50375000000349,
      "v": 83
    },
    {
      "midi": 54,
      "hit": false,
      "t": 183330.0457291703,
      "d": 9.541979166679084,
      "v": 35
    },
    {
      "midi": 64,
      "hit": false,
      "t": 183435.00750000094,
      "d": 114.50375000000349,
      "v": 78
    },
    {
      "midi": 64,
      "hit": false,
      "t": 183435.00750000126,
      "d": 114.50375000000349,
      "v": 92
    },
    {
      "midi": 36,
      "hit": false,
      "t": 183435.00750000364,
      "d": 9.541979166679084,
      "v": 108
    },
    {
      "midi": 54,
      "hit": false,
      "t": 183435.00750000364,
      "d": 9.541979166679084,
      "v": 55
    },
    {
      "midi": 65,
      "hit": false,
      "t": 183549.51125000094,
      "d": 114.50375000000349,
      "v": 70
    },
    {
      "midi": 65,
      "hit": false,
      "t": 183549.51125000126,
      "d": 114.50375000000349,
      "v": 83
    },
    {
      "midi": 54,
      "hit": false,
      "t": 183559.05322917033,
      "d": 9.541979166679084,
      "v": 35
    },
    {
      "midi": 38,
      "hit": false,
      "t": 183659.24401042034,
      "d": 9.541979166679084,
      "v": 96
    },
    {
      "midi": 53,
      "hit": false,
      "t": 183664.01500000028,
      "d": 229.00750000000698,
      "v": 120
    },
    {
      "midi": 57,
      "hit": false,
      "t": 183664.01500000028,
      "d": 229.00750000000698,
      "v": 120
    },
    {
      "midi": 72,
      "hit": false,
      "t": 183664.01500000028,
      "d": 229.00750000000698,
      "v": 120
    },
    {
      "midi": 65,
      "hit": false,
      "t": 183664.01500000095,
      "d": 114.50375000000349,
      "v": 86
    },
    {
      "midi": 65,
      "hit": false,
      "t": 183664.01500000127,
      "d": 114.50375000000349,
      "v": 103
    },
    {
      "midi": 69,
      "hit": false,
      "t": 183664.0150000016,
      "d": 229.00750000000698,
      "v": 84
    },
    {
      "midi": 42,
      "hit": false,
      "t": 183664.01500000368,
      "d": 9.541979166679084,
      "v": 125
    },
    {
      "midi": 54,
      "hit": false,
      "t": 183664.01500000368,
      "d": 9.541979166679084,
      "v": 75
    },
    {
      "midi": 65,
      "hit": false,
      "t": 183778.51875000095,
      "d": 229.00750000000698,
      "v": 78
    },
    {
      "midi": 65,
      "hit": false,
      "t": 183778.51875000127,
      "d": 114.50375000000349,
      "v": 92
    },
    {
      "midi": 54,
      "hit": false,
      "t": 183788.06072917036,
      "d": 9.541979166679084,
      "v": 35
    },
    {
      "midi": 53,
      "hit": false,
      "t": 183893.02250000028,
      "d": 229.00750000000698,
      "v": 120
    },
    {
      "midi": 57,
      "hit": false,
      "t": 183893.02250000028,
      "d": 229.00750000000698,
      "v": 120
    },
    {
      "midi": 72,
      "hit": false,
      "t": 183893.02250000028,
      "d": 229.00750000000698,
      "v": 120
    },
    {
      "midi": 60,
      "hit": false,
      "t": 183893.02250000095,
      "d": 114.50375000000349,
      "v": 70
    },
    {
      "midi": 60,
      "hit": false,
      "t": 183893.02250000127,
      "d": 114.50375000000349,
      "v": 83
    },
    {
      "midi": 69,
      "hit": false,
      "t": 183893.0225000016,
      "d": 229.00750000000698,
      "v": 84
    },
    {
      "midi": 54,
      "hit": false,
      "t": 183893.02250000372,
      "d": 9.541979166679084,
      "v": 55
    },
    {
      "midi": 65,
      "hit": false,
      "t": 184007.52625000096,
      "d": 114.50375000000349,
      "v": 78
    },
    {
      "midi": 65,
      "hit": false,
      "t": 184007.52625000128,
      "d": 114.50375000000349,
      "v": 92
    },
    {
      "midi": 54,
      "hit": false,
      "t": 184017.0682291704,
      "d": 9.541979166679084,
      "v": 35
    },
    {
      "midi": 38,
      "hit": false,
      "t": 184117.2590104204,
      "d": 9.541979166679084,
      "v": 96
    },
    {
      "midi": 57,
      "hit": false,
      "t": 184122.0300000003,
      "d": 229.00750000000698,
      "v": 120
    },
    {
      "midi": 60,
      "hit": false,
      "t": 184122.0300000003,
      "d": 229.00750000000698,
      "v": 120
    },
    {
      "midi": 72,
      "hit": false,
      "t": 184122.0300000003,
      "d": 229.00750000000698,
      "v": 120
    },
    {
      "midi": 65,
      "hit": false,
      "t": 184122.03000000096,
      "d": 114.50375000000349,
      "v": 86
    },
    {
      "midi": 65,
      "hit": false,
      "t": 184122.03000000128,
      "d": 114.50375000000349,
      "v": 103
    },
    {
      "midi": 72,
      "hit": false,
      "t": 184122.0300000016,
      "d": 229.00750000000698,
      "v": 84
    },
    {
      "midi": 42,
      "hit": false,
      "t": 184122.03000000375,
      "d": 9.541979166679084,
      "v": 125
    },
    {
      "midi": 54,
      "hit": false,
      "t": 184122.03000000375,
      "d": 9.541979166679084,
      "v": 75
    },
    {
      "midi": 65,
      "hit": false,
      "t": 184236.53375000096,
      "d": 229.00750000000698,
      "v": 78
    },
    {
      "midi": 65,
      "hit": false,
      "t": 184236.53375000128,
      "d": 114.50375000000349,
      "v": 92
    },
    {
      "midi": 54,
      "hit": false,
      "t": 184246.07572917044,
      "d": 9.541979166679084,
      "v": 35
    },
    {
      "midi": 57,
      "hit": false,
      "t": 184351.0375000003,
      "d": 229.00750000000698,
      "v": 120
    },
    {
      "midi": 60,
      "hit": false,
      "t": 184351.0375000003,
      "d": 229.00750000000698,
      "v": 120
    },
    {
      "midi": 72,
      "hit": false,
      "t": 184351.0375000003,
      "d": 229.00750000000698,
      "v": 120
    },
    {
      "midi": 64,
      "hit": false,
      "t": 184351.03750000097,
      "d": 114.50375000000349,
      "v": 70
    },
    {
      "midi": 64,
      "hit": false,
      "t": 184351.0375000013,
      "d": 114.50375000000349,
      "v": 83
    },
    {
      "midi": 72,
      "hit": false,
      "t": 184351.0375000016,
      "d": 229.00750000000698,
      "v": 84
    },
    {
      "midi": 36,
      "hit": false,
      "t": 184351.0375000038,
      "d": 9.541979166679084,
      "v": 108
    },
    {
      "midi": 54,
      "hit": false,
      "t": 184351.0375000038,
      "d": 9.541979166679084,
      "v": 55
    },
    {
      "midi": 65,
      "hit": false,
      "t": 184465.54125000097,
      "d": 114.50375000000349,
      "v": 78
    },
    {
      "midi": 65,
      "hit": false,
      "t": 184465.5412500013,
      "d": 114.50375000000349,
      "v": 92
    },
    {
      "midi": 54,
      "hit": false,
      "t": 184475.08322917047,
      "d": 9.541979166679084,
      "v": 35
    },
    {
      "midi": 38,
      "hit": false,
      "t": 184575.2740104205,
      "d": 9.541979166679084,
      "v": 96
    },
    {
      "midi": 65,
      "hit": false,
      "t": 184580.0450000003,
      "d": 229.00750000000698,
      "v": 120
    },
    {
      "midi": 69,
      "hit": false,
      "t": 184580.0450000003,
      "d": 229.00750000000698,
      "v": 120
    },
    {
      "midi": 72,
      "hit": false,
      "t": 184580.0450000003,
      "d": 229.00750000000698,
      "v": 120
    },
    {
      "midi": 65,
      "hit": false,
      "t": 184580.04500000097,
      "d": 114.50375000000349,
      "v": 86
    },
    {
      "midi": 65,
      "hit": false,
      "t": 184580.0450000013,
      "d": 114.50375000000349,
      "v": 103
    },
    {
      "midi": 81,
      "hit": false,
      "t": 184580.0450000016,
      "d": 229.00750000000698,
      "v": 84
    },
    {
      "midi": 42,
      "hit": false,
      "t": 184580.04500000383,
      "d": 9.541979166679084,
      "v": 125
    },
    {
      "midi": 54,
      "hit": false,
      "t": 184580.04500000383,
      "d": 9.541979166679084,
      "v": 75
    },
    {
      "midi": 84,
      "hit": false,
      "t": 184589.5869791666,
      "d": 458.01500000001397,
      "v": 80
    },
    {
      "midi": 65,
      "hit": false,
      "t": 184694.54875000098,
      "d": 229.00750000000698,
      "v": 78
    },
    {
      "midi": 65,
      "hit": false,
      "t": 184694.5487500013,
      "d": 114.50375000000349,
      "v": 92
    },
    {
      "midi": 54,
      "hit": false,
      "t": 184704.0907291705,
      "d": 9.541979166679084,
      "v": 35
    },
    {
      "midi": 65,
      "hit": false,
      "t": 184809.0525000003,
      "d": 229.00750000000698,
      "v": 120
    },
    {
      "midi": 69,
      "hit": false,
      "t": 184809.0525000003,
      "d": 229.00750000000698,
      "v": 120
    },
    {
      "midi": 72,
      "hit": false,
      "t": 184809.0525000003,
      "d": 229.00750000000698,
      "v": 120
    },
    {
      "midi": 60,
      "hit": false,
      "t": 184809.05250000098,
      "d": 114.50375000000349,
      "v": 70
    },
    {
      "midi": 60,
      "hit": false,
      "t": 184809.0525000013,
      "d": 114.50375000000349,
      "v": 83
    },
    {
      "midi": 81,
      "hit": false,
      "t": 184809.05250000162,
      "d": 229.00750000000698,
      "v": 84
    },
    {
      "midi": 36,
      "hit": false,
      "t": 184809.05250000386,
      "d": 9.541979166679084,
      "v": 108
    },
    {
      "midi": 54,
      "hit": false,
      "t": 184809.05250000386,
      "d": 9.541979166679084,
      "v": 55
    },
    {
      "midi": 65,
      "hit": false,
      "t": 184923.55625000098,
      "d": 114.50375000000349,
      "v": 78
    },
    {
      "midi": 65,
      "hit": false,
      "t": 184923.5562500013,
      "d": 114.50375000000349,
      "v": 92
    },
    {
      "midi": 54,
      "hit": false,
      "t": 184933.09822917054,
      "d": 9.541979166679084,
      "v": 35
    },
    {
      "midi": 38,
      "hit": false,
      "t": 185033.28901042056,
      "d": 9.541979166679084,
      "v": 96
    },
    {
      "midi": 64,
      "hit": false,
      "t": 185038.06000000032,
      "d": 343.5112500000105,
      "v": 120
    },
    {
      "midi": 67,
      "hit": false,
      "t": 185038.06000000032,
      "d": 343.5112500000105,
      "v": 120
    },
    {
      "midi": 59,
      "hit": false,
      "t": 185038.06000000032,
      "d": 343.5112500000105,
      "v": 120
    },
    {
      "midi": 67,
      "hit": false,
      "t": 185038.0600000004,
      "d": 916.0299999999988,
      "v": 105
    },
    {
      "midi": 55,
      "hit": false,
      "t": 185038.0600000004,
      "d": 916.0299999999988,
      "v": 105
    },
    {
      "midi": 59,
      "hit": false,
      "t": 185038.0600000004,
      "d": 916.0299999999988,
      "v": 105
    },
    {
      "midi": 62,
      "hit": false,
      "t": 185038.0600000004,
      "d": 916.0299999999988,
      "v": 105
    },
    {
      "midi": 59,
      "hit": false,
      "t": 185038.060000001,
      "d": 114.50375000000349,
      "v": 86
    },
    {
      "midi": 59,
      "hit": false,
      "t": 185038.0600000013,
      "d": 114.50375000000349,
      "v": 103
    },
    {
      "midi": 79,
      "hit": false,
      "t": 185038.06000000163,
      "d": 458.01500000001397,
      "v": 84
    },
    {
      "midi": 42,
      "hit": false,
      "t": 185038.0600000039,
      "d": 9.541979166679084,
      "v": 125
    },
    {
      "midi": 54,
      "hit": false,
      "t": 185038.0600000039,
      "d": 9.541979166679084,
      "v": 75
    },
    {
      "midi": 83,
      "hit": false,
      "t": 185047.60197916662,
      "d": 916.0299999999988,
      "v": 80
    },
    {
      "midi": 59,
      "hit": false,
      "t": 185152.563750001,
      "d": 114.50375000000349,
      "v": 70
    },
    {
      "midi": 59,
      "hit": false,
      "t": 185152.5637500013,
      "d": 114.50375000000349,
      "v": 83
    },
    {
      "midi": 54,
      "hit": false,
      "t": 185162.10572917058,
      "d": 9.541979166679084,
      "v": 35
    },
    {
      "midi": 59,
      "hit": false,
      "t": 185267.067500001,
      "d": 114.50375000000349,
      "v": 78
    },
    {
      "midi": 59,
      "hit": false,
      "t": 185267.0675000013,
      "d": 114.50375000000349,
      "v": 92
    },
    {
      "midi": 36,
      "hit": false,
      "t": 185267.06750000393,
      "d": 9.541979166679084,
      "v": 108
    },
    {
      "midi": 54,
      "hit": false,
      "t": 185267.06750000393,
      "d": 9.541979166679084,
      "v": 55
    },
    {
      "midi": 59,
      "hit": false,
      "t": 185381.571250001,
      "d": 114.50375000000349,
      "v": 70
    },
    {
      "midi": 59,
      "hit": false,
      "t": 185381.57125000132,
      "d": 114.50375000000349,
      "v": 83
    },
    {
      "midi": 54,
      "hit": false,
      "t": 185391.11322917062,
      "d": 9.541979166679084,
      "v": 35
    },
    {
      "midi": 38,
      "hit": false,
      "t": 185491.30401042063,
      "d": 9.541979166679084,
      "v": 96
    },
    {
      "midi": 64,
      "hit": false,
      "t": 185496.07500000033,
      "d": 190.83958333331975,
      "v": 120
    },
    {
      "midi": 59,
      "hit": false,
      "t": 185496.07500000033,
      "d": 190.83958333331975,
      "v": 120
    },
    {
      "midi": 67,
      "hit": false,
      "t": 185496.07500000033,
      "d": 190.83958333331975,
      "v": 120
    },
    {
      "midi": 59,
      "hit": false,
      "t": 185496.075000001,
      "d": 114.50375000000349,
      "v": 78
    },
    {
      "midi": 59,
      "hit": false,
      "t": 185496.07500000132,
      "d": 114.50375000000349,
      "v": 92
    },
    {
      "midi": 79,
      "hit": false,
      "t": 185496.07500000164,
      "d": 229.00750000000698,
      "v": 84
    },
    {
      "midi": 42,
      "hit": false,
      "t": 185496.07500000397,
      "d": 9.541979166679084,
      "v": 125
    },
    {
      "midi": 54,
      "hit": false,
      "t": 185496.07500000397,
      "d": 9.541979166679084,
      "v": 75
    },
    {
      "midi": 59,
      "hit": false,
      "t": 185610.578750001,
      "d": 114.50375000000349,
      "v": 70
    },
    {
      "midi": 59,
      "hit": false,
      "t": 185610.57875000132,
      "d": 114.50375000000349,
      "v": 83
    },
    {
      "midi": 54,
      "hit": false,
      "t": 185620.12072917065,
      "d": 9.541979166679084,
      "v": 35
    },
    {
      "midi": 64,
      "hit": false,
      "t": 185725.0825000003,
      "d": 687.0224999999919,
      "v": 120
    },
    {
      "midi": 69,
      "hit": false,
      "t": 185725.0825000003,
      "d": 687.0224999999919,
      "v": 120
    },
    {
      "midi": 60,
      "hit": false,
      "t": 185725.0825000003,
      "d": 687.0224999999919,
      "v": 120
    },
    {
      "midi": 64,
      "hit": false,
      "t": 185725.082500001,
      "d": 114.50375000000349,
      "v": 70
    },
    {
      "midi": 64,
      "hit": false,
      "t": 185725.08250000133,
      "d": 114.50375000000349,
      "v": 83
    },
    {
      "midi": 72,
      "hit": false,
      "t": 185725.08250000165,
      "d": 687.0224999999919,
      "v": 84
    },
    {
      "midi": 54,
      "hit": false,
      "t": 185725.082500004,
      "d": 9.541979166679084,
      "v": 55
    },
    {
      "midi": 67,
      "hit": false,
      "t": 185839.586250001,
      "d": 114.50375000000349,
      "v": 86
    },
    {
      "midi": 67,
      "hit": false,
      "t": 185839.58625000133,
      "d": 114.50375000000349,
      "v": 103
    },
    {
      "midi": 54,
      "hit": false,
      "t": 185849.1282291707,
      "d": 9.541979166679084,
      "v": 35
    },
    {
      "midi": 38,
      "hit": false,
      "t": 185949.3190104207,
      "d": 9.541979166679084,
      "v": 96
    },
    {
      "midi": 69,
      "hit": false,
      "t": 185954.0900000004,
      "d": 916.0299999999988,
      "v": 105
    },
    {
      "midi": 64,
      "hit": false,
      "t": 185954.0900000004,
      "d": 916.0299999999988,
      "v": 105
    },
    {
      "midi": 60,
      "hit": false,
      "t": 185954.0900000004,
      "d": 916.0299999999988,
      "v": 105
    },
    {
      "midi": 60,
      "hit": false,
      "t": 185954.09000000102,
      "d": 114.50375000000349,
      "v": 70
    },
    {
      "midi": 60,
      "hit": false,
      "t": 185954.09000000134,
      "d": 114.50375000000349,
      "v": 83
    },
    {
      "midi": 42,
      "hit": false,
      "t": 185954.09000000404,
      "d": 9.541979166679084,
      "v": 125
    },
    {
      "midi": 54,
      "hit": false,
      "t": 185954.09000000404,
      "d": 9.541979166679084,
      "v": 75
    },
    {
      "midi": 84,
      "hit": false,
      "t": 185963.63197916662,
      "d": 916.0299999999988,
      "v": 80
    },
    {
      "midi": 69,
      "hit": false,
      "t": 186068.59375000102,
      "d": 114.50375000000349,
      "v": 86
    },
    {
      "midi": 69,
      "hit": false,
      "t": 186068.59375000134,
      "d": 114.50375000000349,
      "v": 103
    },
    {
      "midi": 54,
      "hit": false,
      "t": 186078.13572917072,
      "d": 9.541979166679084,
      "v": 35
    },
    {
      "midi": 69,
      "hit": false,
      "t": 186183.09750000102,
      "d": 114.50375000000349,
      "v": 78
    },
    {
      "midi": 69,
      "hit": false,
      "t": 186183.09750000134,
      "d": 114.50375000000349,
      "v": 92
    },
    {
      "midi": 36,
      "hit": false,
      "t": 186183.09750000408,
      "d": 9.541979166679084,
      "v": 108
    },
    {
      "midi": 54,
      "hit": false,
      "t": 186183.09750000408,
      "d": 9.541979166679084,
      "v": 55
    },
    {
      "midi": 60,
      "hit": false,
      "t": 186297.60125000103,
      "d": 114.50375000000349,
      "v": 70
    },
    {
      "midi": 60,
      "hit": false,
      "t": 186297.60125000135,
      "d": 114.50375000000349,
      "v": 83
    },
    {
      "midi": 54,
      "hit": false,
      "t": 186307.14322917076,
      "d": 9.541979166679084,
      "v": 35
    },
    {
      "midi": 38,
      "hit": false,
      "t": 186407.33401042077,
      "d": 9.541979166679084,
      "v": 96
    },
    {
      "midi": 62,
      "hit": false,
      "t": 186412.1050000003,
      "d": 190.83958333331975,
      "v": 120
    },
    {
      "midi": 65,
      "hit": false,
      "t": 186412.1050000003,
      "d": 190.83958333331975,
      "v": 120
    },
    {
      "midi": 69,
      "hit": false,
      "t": 186412.1050000003,
      "d": 190.83958333331975,
      "v": 120
    },
    {
      "midi": 69,
      "hit": false,
      "t": 186412.10500000103,
      "d": 114.50375000000349,
      "v": 86
    },
    {
      "midi": 69,
      "hit": false,
      "t": 186412.10500000135,
      "d": 114.50375000000349,
      "v": 103
    },
    {
      "midi": 74,
      "hit": false,
      "t": 186412.10500000164,
      "d": 229.00750000000698,
      "v": 84
    },
    {
      "midi": 42,
      "hit": false,
      "t": 186412.1050000041,
      "d": 9.541979166679084,
      "v": 125
    },
    {
      "midi": 54,
      "hit": false,
      "t": 186412.1050000041,
      "d": 9.541979166679084,
      "v": 75
    },
    {
      "midi": 69,
      "hit": false,
      "t": 186526.60875000103,
      "d": 229.00750000000698,
      "v": 78
    },
    {
      "midi": 69,
      "hit": false,
      "t": 186526.60875000135,
      "d": 114.50375000000349,
      "v": 92
    },
    {
      "midi": 54,
      "hit": false,
      "t": 186536.1507291708,
      "d": 9.541979166679084,
      "v": 35
    },
    {
      "midi": 60,
      "hit": false,
      "t": 186641.11250000028,
      "d": 190.83958333331975,
      "v": 120
    },
    {
      "midi": 69,
      "hit": false,
      "t": 186641.11250000028,
      "d": 190.83958333331975,
      "v": 120
    },
    {
      "midi": 64,
      "hit": false,
      "t": 186641.11250000028,
      "d": 190.83958333331975,
      "v": 120
    },
    {
      "midi": 60,
      "hit": false,
      "t": 186641.11250000104,
      "d": 114.50375000000349,
      "v": 70
    },
    {
      "midi": 60,
      "hit": false,
      "t": 186641.11250000136,
      "d": 114.50375000000349,
      "v": 83
    },
    {
      "midi": 76,
      "hit": false,
      "t": 186641.11250000165,
      "d": 229.00750000000698,
      "v": 84
    },
    {
      "midi": 36,
      "hit": false,
      "t": 186641.11250000415,
      "d": 9.541979166679084,
      "v": 108
    },
    {
      "midi": 54,
      "hit": false,
      "t": 186641.11250000415,
      "d": 9.541979166679084,
      "v": 55
    },
    {
      "midi": 69,
      "hit": false,
      "t": 186755.61625000104,
      "d": 114.50375000000349,
      "v": 86
    },
    {
      "midi": 69,
      "hit": false,
      "t": 186755.61625000136,
      "d": 114.50375000000349,
      "v": 103
    },
    {
      "midi": 54,
      "hit": false,
      "t": 186765.15822917083,
      "d": 9.541979166679084,
      "v": 35
    },
    {
      "midi": 38,
      "hit": false,
      "t": 186865.34901042085,
      "d": 9.541979166679084,
      "v": 96
    },
    {
      "midi": 62,
      "hit": false,
      "t": 186870.12000000026,
      "d": 343.5112500000105,
      "v": 120
    },
    {
      "midi": 65,
      "hit": false,
      "t": 186870.12000000026,
      "d": 343.5112500000105,
      "v": 120
    },
    {
      "midi": 69,
      "hit": false,
      "t": 186870.12000000026,
      "d": 343.5112500000105,
      "v": 120
    },
    {
      "midi": 69,
      "hit": false,
      "t": 186870.1200000004,
      "d": 1832.0599999999977,
      "v": 105
    },
    {
      "midi": 62,
      "hit": false,
      "t": 186870.1200000004,
      "d": 1832.0599999999977,
      "v": 105
    },
    {
      "midi": 65,
      "hit": false,
      "t": 186870.1200000004,
      "d": 1832.0599999999977,
      "v": 105
    },
    {
      "midi": 74,
      "hit": false,
      "t": 186870.1200000004,
      "d": 1832.0599999999977,
      "v": 105
    },
    {
      "midi": 62,
      "hit": false,
      "t": 186870.12000000104,
      "d": 114.50375000000349,
      "v": 70
    },
    {
      "midi": 62,
      "hit": false,
      "t": 186870.12000000136,
      "d": 114.50375000000349,
      "v": 83
    },
    {
      "midi": 77,
      "hit": false,
      "t": 186870.12000000165,
      "d": 458.01500000001397,
      "v": 84
    },
    {
      "midi": 49,
      "hit": false,
      "t": 186870.1200000042,
      "d": 9.541979166679084,
      "v": 100
    },
    {
      "midi": 54,
      "hit": false,
      "t": 186870.1200000042,
      "d": 9.541979166679084,
      "v": 75
    },
    {
      "midi": 89,
      "hit": false,
      "t": 186879.66197916662,
      "d": 458.01500000001397,
      "v": 80
    },
    {
      "midi": 65,
      "hit": false,
      "t": 186984.62375000105,
      "d": 114.50375000000349,
      "v": 86
    },
    {
      "midi": 65,
      "hit": false,
      "t": 186984.62375000137,
      "d": 114.50375000000349,
      "v": 103
    },
    {
      "midi": 54,
      "hit": false,
      "t": 186994.16572917087,
      "d": 9.541979166679084,
      "v": 35
    },
    {
      "midi": 69,
      "hit": false,
      "t": 187099.12750000105,
      "d": 114.50375000000349,
      "v": 78
    },
    {
      "midi": 69,
      "hit": false,
      "t": 187099.12750000137,
      "d": 114.50375000000349,
      "v": 92
    },
    {
      "midi": 36,
      "hit": false,
      "t": 187099.12750000422,
      "d": 9.541979166679084,
      "v": 108
    },
    {
      "midi": 54,
      "hit": false,
      "t": 187099.12750000422,
      "d": 9.541979166679084,
      "v": 55
    },
    {
      "midi": 69,
      "hit": false,
      "t": 187213.63125000105,
      "d": 114.50375000000349,
      "v": 70
    },
    {
      "midi": 69,
      "hit": false,
      "t": 187213.63125000137,
      "d": 114.50375000000349,
      "v": 83
    },
    {
      "midi": 54,
      "hit": false,
      "t": 187223.1732291709,
      "d": 9.541979166679084,
      "v": 35
    },
    {
      "midi": 38,
      "hit": false,
      "t": 187323.36401042092,
      "d": 9.541979166679084,
      "v": 96
    },
    {
      "midi": 64,
      "hit": false,
      "t": 187328.13500000027,
      "d": 229.00750000000698,
      "v": 120
    },
    {
      "midi": 60,
      "hit": false,
      "t": 187328.13500000027,
      "d": 229.00750000000698,
      "v": 120
    },
    {
      "midi": 69,
      "hit": false,
      "t": 187328.13500000027,
      "d": 229.00750000000698,
      "v": 120
    },
    {
      "midi": 62,
      "hit": false,
      "t": 187328.13500000106,
      "d": 114.50375000000349,
      "v": 86
    },
    {
      "midi": 62,
      "hit": false,
      "t": 187328.13500000138,
      "d": 114.50375000000349,
      "v": 103
    },
    {
      "midi": 76,
      "hit": false,
      "t": 187328.13500000167,
      "d": 229.00750000000698,
      "v": 84
    },
    {
      "midi": 42,
      "hit": false,
      "t": 187328.13500000426,
      "d": 9.541979166679084,
      "v": 125
    },
    {
      "midi": 54,
      "hit": false,
      "t": 187328.13500000426,
      "d": 9.541979166679084,
      "v": 75
    },
    {
      "midi": 88,
      "hit": false,
      "t": 187337.67697916663,
      "d": 458.01500000001397,
      "v": 80
    },
    {
      "midi": 69,
      "hit": false,
      "t": 187442.63875000106,
      "d": 114.50375000000349,
      "v": 78
    },
    {
      "midi": 69,
      "hit": false,
      "t": 187442.63875000138,
      "d": 114.50375000000349,
      "v": 92
    },
    {
      "midi": 54,
      "hit": false,
      "t": 187452.18072917094,
      "d": 9.541979166679084,
      "v": 35
    },
    {
      "midi": 64,
      "hit": false,
      "t": 187557.14250000028,
      "d": 229.00750000000698,
      "v": 120
    },
    {
      "midi": 69,
      "hit": false,
      "t": 187557.14250000028,
      "d": 229.00750000000698,
      "v": 120
    },
    {
      "midi": 60,
      "hit": false,
      "t": 187557.14250000028,
      "d": 229.00750000000698,
      "v": 120
    },
    {
      "midi": 69,
      "hit": false,
      "t": 187557.14250000106,
      "d": 229.00750000000698,
      "v": 70
    },
    {
      "midi": 69,
      "hit": false,
      "t": 187557.14250000138,
      "d": 114.50375000000349,
      "v": 83
    },
    {
      "midi": 76,
      "hit": false,
      "t": 187557.14250000168,
      "d": 229.00750000000698,
      "v": 84
    },
    {
      "midi": 54,
      "hit": false,
      "t": 187557.1425000043,
      "d": 9.541979166679084,
      "v": 55
    },
    {
      "midi": 62,
      "hit": false,
      "t": 187671.64625000107,
      "d": 114.50375000000349,
      "v": 86
    },
    {
      "midi": 62,
      "hit": false,
      "t": 187671.6462500014,
      "d": 114.50375000000349,
      "v": 103
    },
    {
      "midi": 54,
      "hit": false,
      "t": 187681.18822917098,
      "d": 9.541979166679084,
      "v": 35
    },
    {
      "midi": 38,
      "hit": false,
      "t": 187781.379010421,
      "d": 9.541979166679084,
      "v": 96
    },
    {
      "midi": 59,
      "hit": false,
      "t": 187786.15000000029,
      "d": 343.5112500000105,
      "v": 120
    },
    {
      "midi": 65,
      "hit": false,
      "t": 187786.15000000029,
      "d": 343.5112500000105,
      "v": 120
    },
    {
      "midi": 62,
      "hit": false,
      "t": 187786.15000000029,
      "d": 343.5112500000105,
      "v": 120
    },
    {
      "midi": 62,
      "hit": false,
      "t": 187786.15000000107,
      "d": 114.50375000000349,
      "v": 78
    },
    {
      "midi": 62,
      "hit": false,
      "t": 187786.1500000014,
      "d": 114.50375000000349,
      "v": 103
    },
    {
      "midi": 74,
      "hit": false,
      "t": 187786.15000000168,
      "d": 458.01500000001397,
      "v": 84
    },
    {
      "midi": 42,
      "hit": false,
      "t": 187786.15000000433,
      "d": 9.541979166679084,
      "v": 125
    },
    {
      "midi": 54,
      "hit": false,
      "t": 187786.15000000433,
      "d": 9.541979166679084,
      "v": 75
    },
    {
      "midi": 86,
      "hit": false,
      "t": 187795.69197916664,
      "d": 458.01500000001397,
      "v": 80
    },
    {
      "midi": 69,
      "hit": false,
      "t": 187900.65375000107,
      "d": 114.50375000000349,
      "v": 78
    },
    {
      "midi": 69,
      "hit": false,
      "t": 187900.6537500014,
      "d": 114.50375000000349,
      "v": 92
    },
    {
      "midi": 54,
      "hit": false,
      "t": 187910.195729171,
      "d": 9.541979166679084,
      "v": 35
    },
    {
      "midi": 69,
      "hit": false,
      "t": 188015.15750000108,
      "d": 229.00750000000698,
      "v": 70
    },
    {
      "midi": 69,
      "hit": false,
      "t": 188015.1575000014,
      "d": 114.50375000000349,
      "v": 83
    },
    {
      "midi": 36,
      "hit": false,
      "t": 188015.15750000437,
      "d": 9.541979166679084,
      "v": 108
    },
    {
      "midi": 54,
      "hit": false,
      "t": 188015.15750000437,
      "d": 9.541979166679084,
      "v": 55
    },
    {
      "midi": 62,
      "hit": false,
      "t": 188129.66125000108,
      "d": 114.50375000000349,
      "v": 86
    },
    {
      "midi": 62,
      "hit": false,
      "t": 188129.6612500014,
      "d": 114.50375000000349,
      "v": 103
    },
    {
      "midi": 54,
      "hit": false,
      "t": 188139.20322917105,
      "d": 9.541979166679084,
      "v": 35
    },
    {
      "midi": 38,
      "hit": false,
      "t": 188239.39401042106,
      "d": 9.541979166679084,
      "v": 96
    },
    {
      "midi": 64,
      "hit": false,
      "t": 188244.1650000003,
      "d": 190.83958333331975,
      "v": 120
    },
    {
      "midi": 60,
      "hit": false,
      "t": 188244.1650000003,
      "d": 190.83958333331975,
      "v": 120
    },
    {
      "midi": 57,
      "hit": false,
      "t": 188244.1650000003,
      "d": 190.83958333331975,
      "v": 120
    },
    {
      "midi": 69,
      "hit": false,
      "t": 188244.16500000108,
      "d": 114.50375000000349,
      "v": 86
    },
    {
      "midi": 69,
      "hit": false,
      "t": 188244.1650000014,
      "d": 114.50375000000349,
      "v": 103
    },
    {
      "midi": 72,
      "hit": false,
      "t": 188244.1650000017,
      "d": 229.00750000000698,
      "v": 84
    },
    {
      "midi": 42,
      "hit": false,
      "t": 188244.1650000044,
      "d": 9.541979166679084,
      "v": 125
    },
    {
      "midi": 54,
      "hit": false,
      "t": 188244.1650000044,
      "d": 9.541979166679084,
      "v": 75
    },
    {
      "midi": 84,
      "hit": false,
      "t": 188253.70697916666,
      "d": 458.01500000001397,
      "v": 80
    },
    {
      "midi": 69,
      "hit": false,
      "t": 188358.6687500011,
      "d": 229.00750000000698,
      "v": 78
    },
    {
      "midi": 69,
      "hit": false,
      "t": 188358.6687500014,
      "d": 114.50375000000349,
      "v": 92
    },
    {
      "midi": 54,
      "hit": false,
      "t": 188368.21072917109,
      "d": 9.541979166679084,
      "v": 35
    },
    {
      "midi": 59,
      "hit": false,
      "t": 188473.17250000028,
      "d": 190.83958333331975,
      "v": 120
    },
    {
      "midi": 62,
      "hit": false,
      "t": 188473.17250000028,
      "d": 190.83958333331975,
      "v": 120
    },
    {
      "midi": 65,
      "hit": false,
      "t": 188473.17250000028,
      "d": 190.83958333331975,
      "v": 120
    },
    {
      "midi": 62,
      "hit": false,
      "t": 188473.1725000011,
      "d": 114.50375000000349,
      "v": 70
    },
    {
      "midi": 62,
      "hit": false,
      "t": 188473.1725000014,
      "d": 114.50375000000349,
      "v": 83
    },
    {
      "midi": 74,
      "hit": false,
      "t": 188473.1725000017,
      "d": 229.00750000000698,
      "v": 84
    },
    {
      "midi": 36,
      "hit": false,
      "t": 188473.17250000444,
      "d": 9.541979166679084,
      "v": 108
    },
    {
      "midi": 54,
      "hit": false,
      "t": 188473.17250000444,
      "d": 9.541979166679084,
      "v": 55
    },
    {
      "midi": 69,
      "hit": false,
      "t": 188587.6762500011,
      "d": 114.50375000000349,
      "v": 86
    },
    {
      "midi": 69,
      "hit": false,
      "t": 188587.67625000142,
      "d": 114.50375000000349,
      "v": 103
    },
    {
      "midi": 54,
      "hit": false,
      "t": 188597.21822917112,
      "d": 9.541979166679084,
      "v": 35
    },
    {
      "midi": 38,
      "hit": false,
      "t": 188697.40901042114,
      "d": 9.541979166679084,
      "v": 96
    },
    {
      "midi": 68,
      "hit": false,
      "t": 188702.18000000025,
      "d": 648.8545833333337,
      "v": 120
    },
    {
      "midi": 59,
      "hit": false,
      "t": 188702.18000000025,
      "d": 648.8545833333337,
      "v": 120
    },
    {
      "midi": 64,
      "hit": false,
      "t": 188702.18000000025,
      "d": 648.8545833333337,
      "v": 120
    },
    {
      "midi": 83,
      "hit": false,
      "t": 188702.18000000028,
      "d": 916.0299999999988,
      "v": 80
    },
    {
      "midi": 71,
      "hit": false,
      "t": 188702.18000000028,
      "d": 916.0299999999988,
      "v": 80
    },
    {
      "midi": 59,
      "hit": false,
      "t": 188702.1800000004,
      "d": 916.0299999999988,
      "v": 105
    },
    {
      "midi": 64,
      "hit": false,
      "t": 188702.1800000004,
      "d": 916.0299999999988,
      "v": 105
    },
    {
      "midi": 68,
      "hit": false,
      "t": 188702.1800000004,
      "d": 916.0299999999988,
      "v": 105
    },
    {
      "midi": 71,
      "hit": false,
      "t": 188702.1800000004,
      "d": 916.0299999999988,
      "v": 105
    },
    {
      "midi": 59,
      "hit": false,
      "t": 188702.1800000011,
      "d": 114.50375000000349,
      "v": 70
    },
    {
      "midi": 59,
      "hit": false,
      "t": 188702.18000000142,
      "d": 114.50375000000349,
      "v": 83
    },
    {
      "midi": 76,
      "hit": false,
      "t": 188702.1800000017,
      "d": 687.0224999999919,
      "v": 84
    },
    {
      "midi": 42,
      "hit": false,
      "t": 188702.18000000448,
      "d": 9.541979166679084,
      "v": 105
    },
    {
      "midi": 54,
      "hit": false,
      "t": 188702.18000000448,
      "d": 9.541979166679084,
      "v": 75
    },
    {
      "midi": 83,
      "hit": false,
      "t": 188711.72197916667,
      "d": 916.0299999999988,
      "v": 80
    },
    {
      "midi": 59,
      "hit": false,
      "t": 188816.6837500011,
      "d": 114.50375000000349,
      "v": 78
    },
    {
      "midi": 59,
      "hit": false,
      "t": 188816.68375000142,
      "d": 114.50375000000349,
      "v": 92
    },
    {
      "midi": 54,
      "hit": false,
      "t": 188826.22572917116,
      "d": 9.541979166679084,
      "v": 35
    },
    {
      "midi": 64,
      "hit": false,
      "t": 188931.1875000011,
      "d": 114.50375000000349,
      "v": 70
    },
    {
      "midi": 64,
      "hit": false,
      "t": 188931.18750000143,
      "d": 114.50375000000349,
      "v": 83
    },
    {
      "midi": 36,
      "hit": false,
      "t": 188931.1875000045,
      "d": 9.541979166679084,
      "v": 108
    },
    {
      "midi": 54,
      "hit": false,
      "t": 188931.1875000045,
      "d": 9.541979166679084,
      "v": 55
    },
    {
      "midi": 64,
      "hit": false,
      "t": 189045.6912500011,
      "d": 114.50375000000349,
      "v": 70
    },
    {
      "midi": 64,
      "hit": false,
      "t": 189045.69125000143,
      "d": 114.50375000000349,
      "v": 83
    },
    {
      "midi": 54,
      "hit": false,
      "t": 189055.2332291712,
      "d": 9.541979166679084,
      "v": 35
    },
    {
      "midi": 38,
      "hit": false,
      "t": 189155.4240104212,
      "d": 9.541979166679084,
      "v": 96
    },
    {
      "midi": 68,
      "hit": false,
      "t": 189160.1950000011,
      "d": 114.50375000000349,
      "v": 70
    },
    {
      "midi": 68,
      "hit": false,
      "t": 189160.19500000143,
      "d": 114.50375000000349,
      "v": 83
    },
    {
      "midi": 42,
      "hit": false,
      "t": 189160.19500000455,
      "d": 9.541979166679084,
      "v": 125
    },
    {
      "midi": 54,
      "hit": false,
      "t": 189160.19500000455,
      "d": 9.541979166679084,
      "v": 75
    },
    {
      "midi": 68,
      "hit": false,
      "t": 189274.69875000112,
      "d": 114.50375000000349,
      "v": 78
    },
    {
      "midi": 68,
      "hit": false,
      "t": 189274.69875000144,
      "d": 114.50375000000349,
      "v": 92
    },
    {
      "midi": 54,
      "hit": false,
      "t": 189284.24072917123,
      "d": 9.541979166679084,
      "v": 35
    },
    {
      "midi": 68,
      "hit": false,
      "t": 189389.20250000025,
      "d": 114.50375000000349,
      "v": 120
    },
    {
      "midi": 59,
      "hit": false,
      "t": 189389.20250000025,
      "d": 114.50375000000349,
      "v": 120
    },
    {
      "midi": 65,
      "hit": false,
      "t": 189389.20250000025,
      "d": 114.50375000000349,
      "v": 120
    },
    {
      "midi": 64,
      "hit": false,
      "t": 189389.20250000112,
      "d": 114.50375000000349,
      "v": 70
    },
    {
      "midi": 64,
      "hit": false,
      "t": 189389.20250000144,
      "d": 114.50375000000349,
      "v": 83
    },
    {
      "midi": 77,
      "hit": false,
      "t": 189389.2025000017,
      "d": 114.50375000000349,
      "v": 84
    },
    {
      "midi": 54,
      "hit": false,
      "t": 189389.20250000458,
      "d": 9.541979166679084,
      "v": 55
    },
    {
      "midi": 68,
      "hit": false,
      "t": 189503.70625000025,
      "d": 114.50375000000349,
      "v": 120
    },
    {
      "midi": 59,
      "hit": false,
      "t": 189503.70625000025,
      "d": 114.50375000000349,
      "v": 120
    },
    {
      "midi": 64,
      "hit": false,
      "t": 189503.70625000025,
      "d": 114.50375000000349,
      "v": 120
    },
    {
      "midi": 68,
      "hit": false,
      "t": 189503.70625000112,
      "d": 114.50375000000349,
      "v": 70
    },
    {
      "midi": 68,
      "hit": false,
      "t": 189503.70625000144,
      "d": 114.50375000000349,
      "v": 83
    },
    {
      "midi": 76,
      "hit": false,
      "t": 189503.7062500017,
      "d": 114.50375000000349,
      "v": 84
    },
    {
      "midi": 54,
      "hit": false,
      "t": 189513.24822917127,
      "d": 9.541979166679084,
      "v": 35
    },
    {
      "midi": 43,
      "hit": false,
      "t": 189613.4390104173,
      "d": 229.00750000000698,
      "v": 90
    },
    {
      "midi": 38,
      "hit": false,
      "t": 189613.43901042128,
      "d": 9.541979166679084,
      "v": 96
    },
    {
      "midi": 43,
      "hit": false,
      "t": 189618.209999999,
      "d": 229.00750000000698,
      "v": 90
    },
    {
      "midi": 59,
      "hit": false,
      "t": 189618.21000000025,
      "d": 343.5112500000105,
      "v": 120
    },
    {
      "midi": 62,
      "hit": false,
      "t": 189618.21000000025,
      "d": 343.5112500000105,
      "v": 120
    },
    {
      "midi": 67,
      "hit": false,
      "t": 189618.21000000025,
      "d": 343.5112500000105,
      "v": 120
    },
    {
      "midi": 79,
      "hit": false,
      "t": 189618.21000000028,
      "d": 229.00750000000698,
      "v": 80
    },
    {
      "midi": 67,
      "hit": false,
      "t": 189618.21000000028,
      "d": 229.00750000000698,
      "v": 80
    },
    {
      "midi": 67,
      "hit": false,
      "t": 189618.2100000004,
      "d": 229.00750000000698,
      "v": 110
    },
    {
      "midi": 79,
      "hit": false,
      "t": 189618.2100000004,
      "d": 229.00750000000698,
      "v": 110
    },
    {
      "midi": 65,
      "hit": false,
      "t": 189618.2100000004,
      "d": 916.0300000000279,
      "v": 105
    },
    {
      "midi": 62,
      "hit": false,
      "t": 189618.2100000004,
      "d": 916.0300000000279,
      "v": 105
    },
    {
      "midi": 59,
      "hit": false,
      "t": 189618.2100000004,
      "d": 916.0300000000279,
      "v": 105
    },
    {
      "midi": 67,
      "hit": false,
      "t": 189618.21000000113,
      "d": 229.00750000000698,
      "v": 70
    },
    {
      "midi": 67,
      "hit": false,
      "t": 189618.21000000145,
      "d": 229.00750000000698,
      "v": 70
    },
    {
      "midi": 74,
      "hit": false,
      "t": 189618.2100000017,
      "d": 458.01500000001397,
      "v": 84
    },
    {
      "midi": 54,
      "hit": false,
      "t": 189618.21000000462,
      "d": 9.541979166679084,
      "v": 75
    },
    {
      "midi": 43,
      "hit": false,
      "t": 189622.9809895835,
      "d": 229.00750000000698,
      "v": 90
    },
    {
      "midi": 38,
      "hit": false,
      "t": 189727.9427604213,
      "d": 9.541979166679084,
      "v": 96
    },
    {
      "midi": 54,
      "hit": false,
      "t": 189742.25572917133,
      "d": 9.541979166679084,
      "v": 35
    },
    {
      "midi": 45,
      "hit": false,
      "t": 189842.4465104173,
      "d": 229.00750000000698,
      "v": 90
    },
    {
      "midi": 38,
      "hit": false,
      "t": 189842.44651042135,
      "d": 9.541979166679084,
      "v": 96
    },
    {
      "midi": 45,
      "hit": false,
      "t": 189847.217499999,
      "d": 229.00750000000698,
      "v": 90
    },
    {
      "midi": 81,
      "hit": false,
      "t": 189847.2175000003,
      "d": 229.00750000000698,
      "v": 80
    },
    {
      "midi": 69,
      "hit": false,
      "t": 189847.2175000003,
      "d": 229.00750000000698,
      "v": 80
    },
    {
      "midi": 69,
      "hit": false,
      "t": 189847.2175000004,
      "d": 229.00750000000698,
      "v": 110
    },
    {
      "midi": 81,
      "hit": false,
      "t": 189847.2175000004,
      "d": 229.00750000000698,
      "v": 110
    },
    {
      "midi": 67,
      "hit": false,
      "t": 189847.21750000113,
      "d": 229.00750000000698,
      "v": 70
    },
    {
      "midi": 67,
      "hit": false,
      "t": 189847.21750000145,
      "d": 229.00750000000698,
      "v": 70
    },
    {
      "midi": 54,
      "hit": false,
      "t": 189847.21750000468,
      "d": 9.541979166679084,
      "v": 55
    },
    {
      "midi": 45,
      "hit": false,
      "t": 189851.9884895835,
      "d": 229.00750000000698,
      "v": 90
    },
    {
      "midi": 54,
      "hit": false,
      "t": 189971.26322917137,
      "d": 9.541979166679084,
      "v": 35
    },
    {
      "midi": 47,
      "hit": false,
      "t": 190071.4540104173,
      "d": 229.00750000000698,
      "v": 90
    },
    {
      "midi": 38,
      "hit": false,
      "t": 190071.45401042138,
      "d": 9.541979166679084,
      "v": 96
    },
    {
      "midi": 47,
      "hit": false,
      "t": 190076.22499999902,
      "d": 229.00750000000698,
      "v": 90
    },
    {
      "midi": 83,
      "hit": false,
      "t": 190076.2250000003,
      "d": 229.00750000000698,
      "v": 80
    },
    {
      "midi": 71,
      "hit": false,
      "t": 190076.2250000003,
      "d": 229.00750000000698,
      "v": 80
    },
    {
      "midi": 71,
      "hit": false,
      "t": 190076.2250000004,
      "d": 229.00750000000698,
      "v": 110
    },
    {
      "midi": 83,
      "hit": false,
      "t": 190076.2250000004,
      "d": 229.00750000000698,
      "v": 110
    },
    {
      "midi": 67,
      "hit": false,
      "t": 190076.22500000114,
      "d": 229.00750000000698,
      "v": 70
    },
    {
      "midi": 67,
      "hit": false,
      "t": 190076.22500000146,
      "d": 229.00750000000698,
      "v": 70
    },
    {
      "midi": 54,
      "hit": false,
      "t": 190076.22500000472,
      "d": 9.541979166679084,
      "v": 75
    },
    {
      "midi": 47,
      "hit": false,
      "t": 190080.99598958352,
      "d": 229.00750000000698,
      "v": 90
    },
    {
      "midi": 54,
      "hit": false,
      "t": 190200.2707291714,
      "d": 9.541979166679084,
      "v": 35
    },
    {
      "midi": 50,
      "hit": false,
      "t": 190300.4615104173,
      "d": 229.00750000000698,
      "v": 90
    },
    {
      "midi": 38,
      "hit": false,
      "t": 190300.46151042142,
      "d": 9.541979166679084,
      "v": 96
    },
    {
      "midi": 50,
      "hit": false,
      "t": 190305.23249999902,
      "d": 229.00750000000698,
      "v": 90
    },
    {
      "midi": 74,
      "hit": false,
      "t": 190305.2325000003,
      "d": 229.00750000000698,
      "v": 80
    },
    {
      "midi": 86,
      "hit": false,
      "t": 190305.2325000003,
      "d": 229.00750000000698,
      "v": 80
    },
    {
      "midi": 74,
      "hit": false,
      "t": 190305.23250000042,
      "d": 229.00750000000698,
      "v": 110
    },
    {
      "midi": 86,
      "hit": false,
      "t": 190305.23250000042,
      "d": 229.00750000000698,
      "v": 110
    },
    {
      "midi": 67,
      "hit": false,
      "t": 190305.23250000115,
      "d": 229.00750000000698,
      "v": 70
    },
    {
      "midi": 67,
      "hit": false,
      "t": 190305.23250000147,
      "d": 229.00750000000698,
      "v": 70
    },
    {
      "midi": 54,
      "hit": false,
      "t": 190305.23250000476,
      "d": 9.541979166679084,
      "v": 55
    },
    {
      "midi": 50,
      "hit": false,
      "t": 190310.00348958353,
      "d": 229.00750000000698,
      "v": 90
    },
    {
      "midi": 38,
      "hit": false,
      "t": 190414.96526042145,
      "d": 9.541979166679084,
      "v": 96
    },
    {
      "midi": 54,
      "hit": false,
      "t": 190429.27822917147,
      "d": 9.541979166679084,
      "v": 35
    },
    {
      "midi": 64,
      "hit": false,
      "t": 190534.24000000025,
      "d": 343.5112500000105,
      "v": 120
    },
    {
      "midi": 67,
      "hit": false,
      "t": 190534.24000000025,
      "d": 343.5112500000105,
      "v": 120
    },
    {
      "midi": 72,
      "hit": false,
      "t": 190534.24000000025,
      "d": 343.5112500000105,
      "v": 120
    },
    {
      "midi": 64,
      "hit": false,
      "t": 190534.24000000043,
      "d": 1603.0524999999907,
      "v": 105
    },
    {
      "midi": 67,
      "hit": false,
      "t": 190534.24000000043,
      "d": 1603.0524999999907,
      "v": 105
    },
    {
      "midi": 72,
      "hit": false,
      "t": 190534.24000000043,
      "d": 1603.0524999999907,
      "v": 105
    },
    {
      "midi": 60,
      "hit": false,
      "t": 190534.24000000115,
      "d": 114.50375000000349,
      "v": 78
    },
    {
      "midi": 60,
      "hit": false,
      "t": 190534.24000000147,
      "d": 114.50375000000349,
      "v": 92
    },
    {
      "midi": 79,
      "hit": false,
      "t": 190534.24000000174,
      "d": 458.01500000001397,
      "v": 84
    },
    {
      "midi": 36,
      "hit": false,
      "t": 190534.24000000482,
      "d": 9.541979166679084,
      "v": 108
    },
    {
      "midi": 54,
      "hit": false,
      "t": 190534.24000000482,
      "d": 9.541979166679084,
      "v": 75
    },
    {
      "midi": 49,
      "hit": false,
      "t": 190534.24000000482,
      "d": 9.541979166679084,
      "v": 100
    },
    {
      "midi": 84,
      "hit": false,
      "t": 190543.78197916667,
      "d": 1832.0599999999977,
      "v": 80
    },
    {
      "midi": 60,
      "hit": false,
      "t": 190648.74375000116,
      "d": 114.50375000000349,
      "v": 78
    },
    {
      "midi": 60,
      "hit": false,
      "t": 190648.74375000148,
      "d": 114.50375000000349,
      "v": 92
    },
    {
      "midi": 54,
      "hit": false,
      "t": 190658.2857291715,
      "d": 9.541979166679084,
      "v": 35
    },
    {
      "midi": 64,
      "hit": false,
      "t": 190763.24750000116,
      "d": 114.50375000000349,
      "v": 78
    },
    {
      "midi": 64,
      "hit": false,
      "t": 190763.24750000148,
      "d": 114.50375000000349,
      "v": 92
    },
    {
      "midi": 36,
      "hit": false,
      "t": 190763.24750000486,
      "d": 9.541979166679084,
      "v": 108
    },
    {
      "midi": 54,
      "hit": false,
      "t": 190763.24750000486,
      "d": 9.541979166679084,
      "v": 55
    },
    {
      "midi": 64,
      "hit": false,
      "t": 190877.75125000117,
      "d": 114.50375000000349,
      "v": 78
    },
    {
      "midi": 64,
      "hit": false,
      "t": 190877.7512500015,
      "d": 114.50375000000349,
      "v": 92
    },
    {
      "midi": 54,
      "hit": false,
      "t": 190887.29322917154,
      "d": 9.541979166679084,
      "v": 35
    },
    {
      "midi": 38,
      "hit": false,
      "t": 190987.48401042155,
      "d": 9.541979166679084,
      "v": 96
    },
    {
      "midi": 64,
      "hit": false,
      "t": 190992.25500000027,
      "d": 343.5112500000105,
      "v": 120
    },
    {
      "midi": 67,
      "hit": false,
      "t": 190992.25500000027,
      "d": 343.5112500000105,
      "v": 120
    },
    {
      "midi": 72,
      "hit": false,
      "t": 190992.25500000027,
      "d": 343.5112500000105,
      "v": 120
    },
    {
      "midi": 67,
      "hit": false,
      "t": 190992.25500000117,
      "d": 114.50375000000349,
      "v": 86
    },
    {
      "midi": 67,
      "hit": false,
      "t": 190992.2550000015,
      "d": 114.50375000000349,
      "v": 103
    },
    {
      "midi": 79,
      "hit": false,
      "t": 190992.25500000175,
      "d": 458.01500000001397,
      "v": 84
    },
    {
      "midi": 42,
      "hit": false,
      "t": 190992.2550000049,
      "d": 9.541979166679084,
      "v": 125
    },
    {
      "midi": 54,
      "hit": false,
      "t": 190992.2550000049,
      "d": 9.541979166679084,
      "v": 75
    },
    {
      "midi": 60,
      "hit": false,
      "t": 191106.75875000117,
      "d": 114.50375000000349,
      "v": 86
    },
    {
      "midi": 60,
      "hit": false,
      "t": 191106.7587500015,
      "d": 114.50375000000349,
      "v": 103
    },
    {
      "midi": 54,
      "hit": false,
      "t": 191116.30072917158,
      "d": 9.541979166679084,
      "v": 35
    },
    {
      "midi": 67,
      "hit": false,
      "t": 191221.26250000118,
      "d": 114.50375000000349,
      "v": 86
    },
    {
      "midi": 67,
      "hit": false,
      "t": 191221.2625000015,
      "d": 114.50375000000349,
      "v": 103
    },
    {
      "midi": 54,
      "hit": false,
      "t": 191221.26250000493,
      "d": 9.541979166679084,
      "v": 55
    },
    {
      "midi": 67,
      "hit": false,
      "t": 191335.76625000118,
      "d": 229.00750000000698,
      "v": 86
    },
    {
      "midi": 67,
      "hit": false,
      "t": 191335.7662500015,
      "d": 114.50375000000349,
      "v": 103
    },
    {
      "midi": 54,
      "hit": false,
      "t": 191345.3082291716,
      "d": 9.541979166679084,
      "v": 35
    },
    {
      "midi": 38,
      "hit": false,
      "t": 191445.49901042163,
      "d": 9.541979166679084,
      "v": 96
    },
    {
      "midi": 64,
      "hit": false,
      "t": 191450.27000000028,
      "d": 190.83958333331975,
      "v": 120
    },
    {
      "midi": 72,
      "hit": false,
      "t": 191450.27000000028,
      "d": 190.83958333331975,
      "v": 120
    },
    {
      "midi": 60,
      "hit": false,
      "t": 191450.27000000028,
      "d": 190.83958333331975,
      "v": 120
    },
    {
      "midi": 60,
      "hit": false,
      "t": 191450.27000000118,
      "d": 114.50375000000349,
      "v": 70
    },
    {
      "midi": 60,
      "hit": false,
      "t": 191450.2700000015,
      "d": 114.50375000000349,
      "v": 83
    },
    {
      "midi": 76,
      "hit": false,
      "t": 191450.27000000176,
      "d": 229.00750000000698,
      "v": 84
    },
    {
      "midi": 42,
      "hit": false,
      "t": 191450.27000000497,
      "d": 9.541979166679084,
      "v": 125
    },
    {
      "midi": 54,
      "hit": false,
      "t": 191450.27000000497,
      "d": 9.541979166679084,
      "v": 75
    },
    {
      "midi": 67,
      "hit": false,
      "t": 191564.7737500012,
      "d": 114.50375000000349,
      "v": 86
    },
    {
      "midi": 67,
      "hit": false,
      "t": 191564.7737500015,
      "d": 114.50375000000349,
      "v": 103
    },
    {
      "midi": 54,
      "hit": false,
      "t": 191574.31572917165,
      "d": 9.541979166679084,
      "v": 35
    },
    {
      "midi": 62,
      "hit": false,
      "t": 191679.27750000026,
      "d": 190.83958333331975,
      "v": 120
    },
    {
      "midi": 65,
      "hit": false,
      "t": 191679.27750000026,
      "d": 190.83958333331975,
      "v": 120
    },
    {
      "midi": 72,
      "hit": false,
      "t": 191679.27750000026,
      "d": 190.83958333331975,
      "v": 120
    },
    {
      "midi": 67,
      "hit": false,
      "t": 191679.2775000012,
      "d": 229.00750000000698,
      "v": 78
    },
    {
      "midi": 67,
      "hit": false,
      "t": 191679.2775000015,
      "d": 114.50375000000349,
      "v": 92
    },
    {
      "midi": 77,
      "hit": false,
      "t": 191679.27750000177,
      "d": 229.00750000000698,
      "v": 84
    },
    {
      "midi": 36,
      "hit": false,
      "t": 191679.277500005,
      "d": 9.541979166679084,
      "v": 108
    },
    {
      "midi": 54,
      "hit": false,
      "t": 191679.277500005,
      "d": 9.541979166679084,
      "v": 55
    },
    {
      "midi": 60,
      "hit": false,
      "t": 191793.7812500012,
      "d": 114.50375000000349,
      "v": 70
    },
    {
      "midi": 60,
      "hit": false,
      "t": 191793.7812500015,
      "d": 114.50375000000349,
      "v": 83
    },
    {
      "midi": 54,
      "hit": false,
      "t": 191803.32322917168,
      "d": 9.541979166679084,
      "v": 35
    },
    {
      "midi": 38,
      "hit": false,
      "t": 191903.5140104217,
      "d": 9.541979166679084,
      "v": 96
    },
    {
      "midi": 64,
      "hit": false,
      "t": 191908.28500000024,
      "d": 190.83958333331975,
      "v": 120
    },
    {
      "midi": 67,
      "hit": false,
      "t": 191908.28500000024,
      "d": 190.83958333331975,
      "v": 120
    },
    {
      "midi": 72,
      "hit": false,
      "t": 191908.28500000024,
      "d": 190.83958333331975,
      "v": 120
    },
    {
      "midi": 67,
      "hit": false,
      "t": 191908.2850000012,
      "d": 114.50375000000349,
      "v": 86
    },
    {
      "midi": 67,
      "hit": false,
      "t": 191908.28500000152,
      "d": 114.50375000000349,
      "v": 103
    },
    {
      "midi": 79,
      "hit": false,
      "t": 191908.28500000178,
      "d": 229.00750000000698,
      "v": 84
    },
    {
      "midi": 42,
      "hit": false,
      "t": 191908.28500000504,
      "d": 9.541979166679084,
      "v": 125
    },
    {
      "midi": 54,
      "hit": false,
      "t": 191908.28500000504,
      "d": 9.541979166679084,
      "v": 75
    },
    {
      "midi": 67,
      "hit": false,
      "t": 192022.7887500012,
      "d": 229.00750000000698,
      "v": 78
    },
    {
      "midi": 67,
      "hit": false,
      "t": 192022.78875000152,
      "d": 114.50375000000349,
      "v": 92
    },
    {
      "midi": 54,
      "hit": false,
      "t": 192032.33072917172,
      "d": 9.541979166679084,
      "v": 35
    },
    {
      "midi": 65,
      "hit": false,
      "t": 192137.2925000002,
      "d": 190.83958333331975,
      "v": 120
    },
    {
      "midi": 69,
      "hit": false,
      "t": 192137.2925000002,
      "d": 190.83958333331975,
      "v": 120
    },
    {
      "midi": 72,
      "hit": false,
      "t": 192137.2925000002,
      "d": 190.83958333331975,
      "v": 120
    },
    {
      "midi": 60,
      "hit": false,
      "t": 192137.2925000012,
      "d": 114.50375000000349,
      "v": 70
    },
    {
      "midi": 60,
      "hit": false,
      "t": 192137.29250000152,
      "d": 114.50375000000349,
      "v": 83
    },
    {
      "midi": 81,
      "hit": false,
      "t": 192137.2925000018,
      "d": 229.00750000000698,
      "v": 84
    },
    {
      "midi": 36,
      "hit": false,
      "t": 192137.29250000507,
      "d": 9.541979166679084,
      "v": 108
    },
    {
      "midi": 54,
      "hit": false,
      "t": 192137.29250000507,
      "d": 9.541979166679084,
      "v": 55
    },
    {
      "midi": 67,
      "hit": false,
      "t": 192251.7962500012,
      "d": 114.50375000000349,
      "v": 86
    },
    {
      "midi": 67,
      "hit": false,
      "t": 192251.79625000153,
      "d": 114.50375000000349,
      "v": 103
    },
    {
      "midi": 54,
      "hit": false,
      "t": 192261.33822917176,
      "d": 9.541979166679084,
      "v": 35
    },
    {
      "midi": 38,
      "hit": false,
      "t": 192361.52901042177,
      "d": 9.541979166679084,
      "v": 96
    },
    {
      "midi": 62,
      "hit": false,
      "t": 192366.3000000002,
      "d": 343.5112500000105,
      "v": 120
    },
    {
      "midi": 67,
      "hit": false,
      "t": 192366.3000000002,
      "d": 343.5112500000105,
      "v": 120
    },
    {
      "midi": 71,
      "hit": false,
      "t": 192366.3000000002,
      "d": 343.5112500000105,
      "v": 120
    },
    {
      "midi": 64,
      "hit": false,
      "t": 192366.30000000042,
      "d": 1603.052500000049,
      "v": 105
    },
    {
      "midi": 71,
      "hit": false,
      "t": 192366.30000000042,
      "d": 1603.052500000049,
      "v": 105
    },
    {
      "midi": 67,
      "hit": false,
      "t": 192366.30000000042,
      "d": 1603.052500000049,
      "v": 105
    },
    {
      "midi": 59,
      "hit": false,
      "t": 192366.3000000012,
      "d": 114.50375000000349,
      "v": 78
    },
    {
      "midi": 59,
      "hit": false,
      "t": 192366.30000000153,
      "d": 114.50375000000349,
      "v": 92
    },
    {
      "midi": 79,
      "hit": false,
      "t": 192366.3000000018,
      "d": 343.5112500000105,
      "v": 84
    },
    {
      "midi": 42,
      "hit": false,
      "t": 192366.3000000051,
      "d": 9.541979166679084,
      "v": 125
    },
    {
      "midi": 54,
      "hit": false,
      "t": 192366.3000000051,
      "d": 9.541979166679084,
      "v": 75
    },
    {
      "midi": 83,
      "hit": false,
      "t": 192375.84197916667,
      "d": 1832.0599999999977,
      "v": 80
    },
    {
      "midi": 59,
      "hit": false,
      "t": 192480.8037500012,
      "d": 114.50375000000349,
      "v": 78
    },
    {
      "midi": 59,
      "hit": false,
      "t": 192480.80375000153,
      "d": 114.50375000000349,
      "v": 92
    },
    {
      "midi": 54,
      "hit": false,
      "t": 192490.3457291718,
      "d": 9.541979166679084,
      "v": 35
    },
    {
      "midi": 62,
      "hit": false,
      "t": 192595.30750000122,
      "d": 114.50375000000349,
      "v": 78
    },
    {
      "midi": 62,
      "hit": false,
      "t": 192595.30750000154,
      "d": 114.50375000000349,
      "v": 92
    },
    {
      "midi": 36,
      "hit": false,
      "t": 192595.30750000515,
      "d": 9.541979166679084,
      "v": 108
    },
    {
      "midi": 54,
      "hit": false,
      "t": 192595.30750000515,
      "d": 9.541979166679084,
      "v": 55
    },
    {
      "midi": 62,
      "hit": false,
      "t": 192709.81125000122,
      "d": 114.50375000000349,
      "v": 78
    },
    {
      "midi": 62,
      "hit": false,
      "t": 192709.81125000154,
      "d": 114.50375000000349,
      "v": 92
    },
    {
      "midi": 54,
      "hit": false,
      "t": 192719.35322917183,
      "d": 9.541979166679084,
      "v": 35
    },
    {
      "midi": 38,
      "hit": false,
      "t": 192819.54401042184,
      "d": 9.541979166679084,
      "v": 96
    },
    {
      "midi": 62,
      "hit": false,
      "t": 192824.3150000002,
      "d": 209.92354166667792,
      "v": 120
    },
    {
      "midi": 65,
      "hit": false,
      "t": 192824.3150000002,
      "d": 209.92354166667792,
      "v": 120
    },
    {
      "midi": 69,
      "hit": false,
      "t": 192824.3150000002,
      "d": 209.92354166667792,
      "v": 120
    },
    {
      "midi": 77,
      "hit": false,
      "t": 192824.31500000044,
      "d": 453.2440104166744,
      "v": 105
    },
    {
      "midi": 89,
      "hit": false,
      "t": 192824.31500000044,
      "d": 453.2440104166744,
      "v": 105
    },
    {
      "midi": 67,
      "hit": false,
      "t": 192824.31500000122,
      "d": 114.50375000000349,
      "v": 86
    },
    {
      "midi": 67,
      "hit": false,
      "t": 192824.31500000154,
      "d": 114.50375000000349,
      "v": 103
    },
    {
      "midi": 77,
      "hit": false,
      "t": 192824.3150000018,
      "d": 229.00750000000698,
      "v": 84
    },
    {
      "midi": 42,
      "hit": false,
      "t": 192824.31500000518,
      "d": 9.541979166679084,
      "v": 125
    },
    {
      "midi": 54,
      "hit": false,
      "t": 192824.31500000518,
      "d": 9.541979166679084,
      "v": 75
    },
    {
      "midi": 67,
      "hit": false,
      "t": 192938.81875000123,
      "d": 229.00750000000698,
      "v": 78
    },
    {
      "midi": 67,
      "hit": false,
      "t": 192938.81875000155,
      "d": 114.50375000000349,
      "v": 92
    },
    {
      "midi": 54,
      "hit": false,
      "t": 192948.36072917187,
      "d": 9.541979166679084,
      "v": 35
    },
    {
      "midi": 62,
      "hit": false,
      "t": 193053.3225000002,
      "d": 209.92354166667792,
      "v": 120
    },
    {
      "midi": 65,
      "hit": false,
      "t": 193053.3225000002,
      "d": 209.92354166667792,
      "v": 120
    },
    {
      "midi": 69,
      "hit": false,
      "t": 193053.3225000002,
      "d": 209.92354166667792,
      "v": 120
    },
    {
      "midi": 59,
      "hit": false,
      "t": 193053.32250000123,
      "d": 114.50375000000349,
      "v": 70
    },
    {
      "midi": 59,
      "hit": false,
      "t": 193053.32250000155,
      "d": 114.50375000000349,
      "v": 83
    },
    {
      "midi": 77,
      "hit": false,
      "t": 193053.3225000018,
      "d": 229.00750000000698,
      "v": 84
    },
    {
      "midi": 54,
      "hit": false,
      "t": 193053.32250000522,
      "d": 9.541979166679084,
      "v": 55
    },
    {
      "midi": 67,
      "hit": false,
      "t": 193167.82625000124,
      "d": 229.00750000000698,
      "v": 86
    },
    {
      "midi": 67,
      "hit": false,
      "t": 193167.82625000156,
      "d": 114.50375000000349,
      "v": 103
    },
    {
      "midi": 54,
      "hit": false,
      "t": 193177.3682291719,
      "d": 9.541979166679084,
      "v": 35
    },
    {
      "midi": 38,
      "hit": false,
      "t": 193277.55901042192,
      "d": 9.541979166679084,
      "v": 96
    },
    {
      "midi": 60,
      "hit": false,
      "t": 193282.33000000022,
      "d": 343.5112500000105,
      "v": 120
    },
    {
      "midi": 64,
      "hit": false,
      "t": 193282.33000000022,
      "d": 343.5112500000105,
      "v": 120
    },
    {
      "midi": 67,
      "hit": false,
      "t": 193282.33000000022,
      "d": 343.5112500000105,
      "v": 120
    },
    {
      "midi": 76,
      "hit": false,
      "t": 193282.33000000045,
      "d": 453.2440104166744,
      "v": 105
    },
    {
      "midi": 88,
      "hit": false,
      "t": 193282.33000000045,
      "d": 453.2440104166744,
      "v": 105
    },
    {
      "midi": 59,
      "hit": false,
      "t": 193282.33000000124,
      "d": 114.50375000000349,
      "v": 70
    },
    {
      "midi": 59,
      "hit": false,
      "t": 193282.33000000156,
      "d": 114.50375000000349,
      "v": 83
    },
    {
      "midi": 76,
      "hit": false,
      "t": 193282.33000000182,
      "d": 458.01500000001397,
      "v": 84
    },
    {
      "midi": 42,
      "hit": false,
      "t": 193282.33000000525,
      "d": 9.541979166679084,
      "v": 125
    },
    {
      "midi": 54,
      "hit": false,
      "t": 193282.33000000525,
      "d": 9.541979166679084,
      "v": 75
    },
    {
      "midi": 67,
      "hit": false,
      "t": 193396.83375000124,
      "d": 114.50375000000349,
      "v": 78
    },
    {
      "midi": 67,
      "hit": false,
      "t": 193396.83375000156,
      "d": 114.50375000000349,
      "v": 103
    },
    {
      "midi": 54,
      "hit": false,
      "t": 193406.37572917194,
      "d": 9.541979166679084,
      "v": 35
    },
    {
      "midi": 67,
      "hit": false,
      "t": 193511.33750000125,
      "d": 229.00750000000698,
      "v": 86
    },
    {
      "midi": 67,
      "hit": false,
      "t": 193511.33750000157,
      "d": 114.50375000000349,
      "v": 92
    },
    {
      "midi": 36,
      "hit": false,
      "t": 193511.3375000053,
      "d": 9.541979166679084,
      "v": 108
    },
    {
      "midi": 54,
      "hit": false,
      "t": 193511.3375000053,
      "d": 9.541979166679084,
      "v": 55
    },
    {
      "midi": 59,
      "hit": false,
      "t": 193625.84125000125,
      "d": 114.50375000000349,
      "v": 70
    },
    {
      "midi": 59,
      "hit": false,
      "t": 193625.84125000157,
      "d": 114.50375000000349,
      "v": 83
    },
    {
      "midi": 54,
      "hit": false,
      "t": 193635.38322917197,
      "d": 9.541979166679084,
      "v": 35
    },
    {
      "midi": 38,
      "hit": false,
      "t": 193735.574010422,
      "d": 9.541979166679084,
      "v": 96
    },
    {
      "midi": 59,
      "hit": false,
      "t": 193740.34500000023,
      "d": 343.5112500000105,
      "v": 120
    },
    {
      "midi": 62,
      "hit": false,
      "t": 193740.34500000023,
      "d": 343.5112500000105,
      "v": 120
    },
    {
      "midi": 65,
      "hit": false,
      "t": 193740.34500000023,
      "d": 343.5112500000105,
      "v": 120
    },
    {
      "midi": 86,
      "hit": false,
      "t": 193740.34500000047,
      "d": 453.2440104166744,
      "v": 105
    },
    {
      "midi": 74,
      "hit": false,
      "t": 193740.34500000047,
      "d": 453.2440104166744,
      "v": 105
    },
    {
      "midi": 67,
      "hit": false,
      "t": 193740.34500000125,
      "d": 114.50375000000349,
      "v": 86
    },
    {
      "midi": 67,
      "hit": false,
      "t": 193740.34500000157,
      "d": 114.50375000000349,
      "v": 103
    },
    {
      "midi": 74,
      "hit": false,
      "t": 193740.34500000183,
      "d": 458.01500000001397,
      "v": 84
    },
    {
      "midi": 42,
      "hit": false,
      "t": 193740.34500000533,
      "d": 9.541979166679084,
      "v": 125
    },
    {
      "midi": 54,
      "hit": false,
      "t": 193740.34500000533,
      "d": 9.541979166679084,
      "v": 75
    },
    {
      "midi": 67,
      "hit": false,
      "t": 193854.84875000126,
      "d": 229.00750000000698,
      "v": 78
    },
    {
      "midi": 67,
      "hit": false,
      "t": 193854.84875000158,
      "d": 114.50375000000349,
      "v": 92
    },
    {
      "midi": 54,
      "hit": false,
      "t": 193864.390729172,
      "d": 9.541979166679084,
      "v": 35
    },
    {
      "midi": 59,
      "hit": false,
      "t": 193969.35250000126,
      "d": 114.50375000000349,
      "v": 70
    },
    {
      "midi": 59,
      "hit": false,
      "t": 193969.35250000158,
      "d": 114.50375000000349,
      "v": 83
    },
    {
      "midi": 36,
      "hit": false,
      "t": 193969.35250000536,
      "d": 9.541979166679084,
      "v": 108
    },
    {
      "midi": 54,
      "hit": false,
      "t": 193969.35250000536,
      "d": 9.541979166679084,
      "v": 55
    },
    {
      "midi": 67,
      "hit": false,
      "t": 194083.85625000126,
      "d": 114.50375000000349,
      "v": 86
    },
    {
      "midi": 67,
      "hit": false,
      "t": 194083.85625000158,
      "d": 114.50375000000349,
      "v": 103
    },
    {
      "midi": 54,
      "hit": false,
      "t": 194093.39822917205,
      "d": 9.541979166679084,
      "v": 35
    },
    {
      "midi": 38,
      "hit": false,
      "t": 194193.58901042206,
      "d": 9.541979166679084,
      "v": 96
    },
    {
      "midi": 64,
      "hit": false,
      "t": 194198.36000000025,
      "d": 343.5112500000105,
      "v": 120
    },
    {
      "midi": 69,
      "hit": false,
      "t": 194198.36000000025,
      "d": 343.5112500000105,
      "v": 120
    },
    {
      "midi": 60,
      "hit": false,
      "t": 194198.36000000025,
      "d": 343.5112500000105,
      "v": 120
    },
    {
      "midi": 72,
      "hit": false,
      "t": 194198.36000000048,
      "d": 453.2440104166744,
      "v": 105
    },
    {
      "midi": 84,
      "hit": false,
      "t": 194198.36000000048,
      "d": 453.2440104166744,
      "v": 105
    },
    {
      "midi": 64,
      "hit": false,
      "t": 194198.36000000048,
      "d": 1603.0525000000198,
      "v": 105
    },
    {
      "midi": 67,
      "hit": false,
      "t": 194198.36000000048,
      "d": 1603.0525000000198,
      "v": 105
    },
    {
      "midi": 60,
      "hit": false,
      "t": 194198.36000000048,
      "d": 1603.0525000000198,
      "v": 105
    },
    {
      "midi": 69,
      "hit": false,
      "t": 194198.36000000048,
      "d": 1603.0525000000198,
      "v": 105
    },
    {
      "midi": 60,
      "hit": false,
      "t": 194198.36000000127,
      "d": 114.50375000000349,
      "v": 78
    },
    {
      "midi": 60,
      "hit": false,
      "t": 194198.3600000016,
      "d": 114.50375000000349,
      "v": 92
    },
    {
      "midi": 76,
      "hit": false,
      "t": 194198.36000000185,
      "d": 458.01500000001397,
      "v": 84
    },
    {
      "midi": 42,
      "hit": false,
      "t": 194198.3600000054,
      "d": 9.541979166679084,
      "v": 125
    },
    {
      "midi": 54,
      "hit": false,
      "t": 194198.3600000054,
      "d": 9.541979166679084,
      "v": 75
    },
    {
      "midi": 81,
      "hit": false,
      "t": 194207.90197916667,
      "d": 1832.0599999999977,
      "v": 80
    },
    {
      "midi": 60,
      "hit": false,
      "t": 194312.86375000127,
      "d": 114.50375000000349,
      "v": 78
    },
    {
      "midi": 60,
      "hit": false,
      "t": 194312.8637500016,
      "d": 114.50375000000349,
      "v": 92
    },
    {
      "midi": 54,
      "hit": false,
      "t": 194322.40572917208,
      "d": 9.541979166679084,
      "v": 35
    },
    {
      "midi": 64,
      "hit": false,
      "t": 194427.36750000127,
      "d": 114.50375000000349,
      "v": 78
    },
    {
      "midi": 64,
      "hit": false,
      "t": 194427.3675000016,
      "d": 114.50375000000349,
      "v": 92
    },
    {
      "midi": 36,
      "hit": false,
      "t": 194427.36750000544,
      "d": 9.541979166679084,
      "v": 108
    },
    {
      "midi": 54,
      "hit": false,
      "t": 194427.36750000544,
      "d": 9.541979166679084,
      "v": 55
    },
    {
      "midi": 64,
      "hit": false,
      "t": 194541.87125000128,
      "d": 114.50375000000349,
      "v": 78
    },
    {
      "midi": 64,
      "hit": false,
      "t": 194541.8712500016,
      "d": 114.50375000000349,
      "v": 92
    },
    {
      "midi": 54,
      "hit": false,
      "t": 194551.41322917212,
      "d": 9.541979166679084,
      "v": 35
    },
    {
      "midi": 38,
      "hit": false,
      "t": 194651.60401042213,
      "d": 9.541979166679084,
      "v": 96
    },
    {
      "midi": 60,
      "hit": false,
      "t": 194656.37500000026,
      "d": 343.5112500000105,
      "v": 120
    },
    {
      "midi": 64,
      "hit": false,
      "t": 194656.37500000026,
      "d": 343.5112500000105,
      "v": 120
    },
    {
      "midi": 69,
      "hit": false,
      "t": 194656.37500000026,
      "d": 343.5112500000105,
      "v": 120
    },
    {
      "midi": 72,
      "hit": false,
      "t": 194656.3750000005,
      "d": 453.2440104166744,
      "v": 105
    },
    {
      "midi": 84,
      "hit": false,
      "t": 194656.3750000005,
      "d": 453.2440104166744,
      "v": 105
    },
    {
      "midi": 69,
      "hit": false,
      "t": 194656.37500000128,
      "d": 114.50375000000349,
      "v": 86
    },
    {
      "midi": 69,
      "hit": false,
      "t": 194656.3750000016,
      "d": 114.50375000000349,
      "v": 103
    },
    {
      "midi": 76,
      "hit": false,
      "t": 194656.37500000186,
      "d": 458.01500000001397,
      "v": 84
    },
    {
      "midi": 42,
      "hit": false,
      "t": 194656.37500000547,
      "d": 9.541979166679084,
      "v": 125
    },
    {
      "midi": 54,
      "hit": false,
      "t": 194656.37500000547,
      "d": 9.541979166679084,
      "v": 75
    },
    {
      "midi": 69,
      "hit": false,
      "t": 194770.87875000128,
      "d": 229.00750000000698,
      "v": 78
    },
    {
      "midi": 69,
      "hit": false,
      "t": 194770.8787500016,
      "d": 114.50375000000349,
      "v": 92
    },
    {
      "midi": 54,
      "hit": false,
      "t": 194780.42072917215,
      "d": 9.541979166679084,
      "v": 35
    },
    {
      "midi": 60,
      "hit": false,
      "t": 194885.3825000013,
      "d": 114.50375000000349,
      "v": 70
    },
    {
      "midi": 60,
      "hit": false,
      "t": 194885.3825000016,
      "d": 114.50375000000349,
      "v": 83
    },
    {
      "midi": 54,
      "hit": false,
      "t": 194885.3825000055,
      "d": 9.541979166679084,
      "v": 55
    },
    {
      "midi": 69,
      "hit": false,
      "t": 194999.8862500013,
      "d": 229.00750000000698,
      "v": 86
    },
    {
      "midi": 69,
      "hit": false,
      "t": 194999.8862500016,
      "d": 114.50375000000349,
      "v": 103
    },
    {
      "midi": 54,
      "hit": false,
      "t": 195009.4282291722,
      "d": 9.541979166679084,
      "v": 35
    },
    {
      "midi": 38,
      "hit": false,
      "t": 195109.6190104222,
      "d": 9.541979166679084,
      "v": 96
    },
    {
      "midi": 60,
      "hit": false,
      "t": 195114.39000000028,
      "d": 190.83958333331975,
      "v": 120
    },
    {
      "midi": 57,
      "hit": false,
      "t": 195114.39000000028,
      "d": 190.83958333331975,
      "v": 120
    },
    {
      "midi": 69,
      "hit": false,
      "t": 195114.39000000028,
      "d": 190.83958333331975,
      "v": 120
    },
    {
      "midi": 60,
      "hit": false,
      "t": 195114.3900000013,
      "d": 114.50375000000349,
      "v": 70
    },
    {
      "midi": 60,
      "hit": false,
      "t": 195114.39000000161,
      "d": 114.50375000000349,
      "v": 83
    },
    {
      "midi": 72,
      "hit": false,
      "t": 195114.39000000188,
      "d": 229.00750000000698,
      "v": 84
    },
    {
      "midi": 42,
      "hit": false,
      "t": 195114.39000000554,
      "d": 9.541979166679084,
      "v": 125
    },
    {
      "midi": 54,
      "hit": false,
      "t": 195114.39000000554,
      "d": 9.541979166679084,
      "v": 75
    },
    {
      "midi": 69,
      "hit": false,
      "t": 195228.8937500013,
      "d": 114.50375000000349,
      "v": 86
    },
    {
      "midi": 69,
      "hit": false,
      "t": 195228.89375000162,
      "d": 114.50375000000349,
      "v": 103
    },
    {
      "midi": 54,
      "hit": false,
      "t": 195238.43572917223,
      "d": 9.541979166679084,
      "v": 35
    },
    {
      "midi": 59,
      "hit": false,
      "t": 195343.39750000025,
      "d": 190.83958333331975,
      "v": 120
    },
    {
      "midi": 62,
      "hit": false,
      "t": 195343.39750000025,
      "d": 190.83958333331975,
      "v": 120
    },
    {
      "midi": 69,
      "hit": false,
      "t": 195343.39750000025,
      "d": 190.83958333331975,
      "v": 120
    },
    {
      "midi": 69,
      "hit": false,
      "t": 195343.3975000013,
      "d": 229.00750000000698,
      "v": 78
    },
    {
      "midi": 69,
      "hit": false,
      "t": 195343.39750000162,
      "d": 114.50375000000349,
      "v": 92
    },
    {
      "midi": 74,
      "hit": false,
      "t": 195343.39750000188,
      "d": 229.00750000000698,
      "v": 84
    },
    {
      "midi": 36,
      "hit": false,
      "t": 195343.39750000558,
      "d": 9.541979166679084,
      "v": 108
    },
    {
      "midi": 54,
      "hit": false,
      "t": 195343.39750000558,
      "d": 9.541979166679084,
      "v": 55
    },
    {
      "midi": 60,
      "hit": false,
      "t": 195457.9012500013,
      "d": 114.50375000000349,
      "v": 70
    },
    {
      "midi": 60,
      "hit": false,
      "t": 195457.90125000163,
      "d": 114.50375000000349,
      "v": 83
    },
    {
      "midi": 54,
      "hit": false,
      "t": 195467.44322917226,
      "d": 9.541979166679084,
      "v": 35
    },
    {
      "midi": 38,
      "hit": false,
      "t": 195567.63401042228,
      "d": 9.541979166679084,
      "v": 96
    },
    {
      "midi": 60,
      "hit": false,
      "t": 195572.40500000023,
      "d": 190.83958333331975,
      "v": 120
    },
    {
      "midi": 64,
      "hit": false,
      "t": 195572.40500000023,
      "d": 190.83958333331975,
      "v": 120
    },
    {
      "midi": 69,
      "hit": false,
      "t": 195572.40500000023,
      "d": 190.83958333331975,
      "v": 120
    },
    {
      "midi": 69,
      "hit": false,
      "t": 195572.4050000013,
      "d": 114.50375000000349,
      "v": 86
    },
    {
      "midi": 69,
      "hit": false,
      "t": 195572.40500000163,
      "d": 114.50375000000349,
      "v": 103
    },
    {
      "midi": 76,
      "hit": false,
      "t": 195572.4050000019,
      "d": 229.00750000000698,
      "v": 84
    },
    {
      "midi": 42,
      "hit": false,
      "t": 195572.40500000562,
      "d": 9.541979166679084,
      "v": 125
    },
    {
      "midi": 54,
      "hit": false,
      "t": 195572.40500000562,
      "d": 9.541979166679084,
      "v": 75
    },
    {
      "midi": 69,
      "hit": false,
      "t": 195686.9087500013,
      "d": 229.00750000000698,
      "v": 78
    },
    {
      "midi": 69,
      "hit": false,
      "t": 195686.90875000163,
      "d": 114.50375000000349,
      "v": 92
    },
    {
      "midi": 54,
      "hit": false,
      "t": 195696.4507291723,
      "d": 9.541979166679084,
      "v": 35
    },
    {
      "midi": 65,
      "hit": false,
      "t": 195801.4125000002,
      "d": 190.83958333331975,
      "v": 120
    },
    {
      "midi": 62,
      "hit": false,
      "t": 195801.4125000002,
      "d": 190.83958333331975,
      "v": 120
    },
    {
      "midi": 69,
      "hit": false,
      "t": 195801.4125000002,
      "d": 190.83958333331975,
      "v": 120
    },
    {
      "midi": 60,
      "hit": false,
      "t": 195801.41250000132,
      "d": 114.50375000000349,
      "v": 70
    },
    {
      "midi": 60,
      "hit": false,
      "t": 195801.41250000164,
      "d": 114.50375000000349,
      "v": 83
    },
    {
      "midi": 77,
      "hit": false,
      "t": 195801.4125000019,
      "d": 229.00750000000698,
      "v": 84
    },
    {
      "midi": 36,
      "hit": false,
      "t": 195801.41250000565,
      "d": 9.541979166679084,
      "v": 108
    },
    {
      "midi": 54,
      "hit": false,
      "t": 195801.41250000565,
      "d": 9.541979166679084,
      "v": 55
    },
    {
      "midi": 69,
      "hit": false,
      "t": 195915.91625000132,
      "d": 114.50375000000349,
      "v": 86
    },
    {
      "midi": 69,
      "hit": false,
      "t": 195915.91625000164,
      "d": 114.50375000000349,
      "v": 103
    },
    {
      "midi": 54,
      "hit": false,
      "t": 195925.45822917233,
      "d": 9.541979166679084,
      "v": 35
    },
    {
      "midi": 38,
      "hit": false,
      "t": 196025.64901042235,
      "d": 9.541979166679084,
      "v": 96
    },
    {
      "midi": 64,
      "hit": false,
      "t": 196030.4200000002,
      "d": 229.00750000000698,
      "v": 120
    },
    {
      "midi": 60,
      "hit": false,
      "t": 196030.4200000002,
      "d": 229.00750000000698,
      "v": 120
    },
    {
      "midi": 67,
      "hit": false,
      "t": 196030.4200000002,
      "d": 229.00750000000698,
      "v": 120
    },
    {
      "midi": 59,
      "hit": false,
      "t": 196030.4200000005,
      "d": 1145.0375000000058,
      "v": 105
    },
    {
      "midi": 67,
      "hit": false,
      "t": 196030.4200000005,
      "d": 1145.0375000000058,
      "v": 105
    },
    {
      "midi": 64,
      "hit": false,
      "t": 196030.4200000005,
      "d": 1145.0375000000058,
      "v": 105
    },
    {
      "midi": 62,
      "hit": false,
      "t": 196030.4200000005,
      "d": 1145.0375000000058,
      "v": 105
    },
    {
      "midi": 59,
      "hit": false,
      "t": 196030.42000000132,
      "d": 114.50375000000349,
      "v": 78
    },
    {
      "midi": 59,
      "hit": false,
      "t": 196030.42000000164,
      "d": 114.50375000000349,
      "v": 92
    },
    {
      "midi": 76,
      "hit": false,
      "t": 196030.4200000019,
      "d": 229.00750000000698,
      "v": 84
    },
    {
      "midi": 42,
      "hit": false,
      "t": 196030.4200000057,
      "d": 9.541979166679084,
      "v": 125
    },
    {
      "midi": 54,
      "hit": false,
      "t": 196030.4200000057,
      "d": 9.541979166679084,
      "v": 75
    },
    {
      "midi": 79,
      "hit": false,
      "t": 196039.96197916666,
      "d": 1374.0450000000128,
      "v": 80
    },
    {
      "midi": 59,
      "hit": false,
      "t": 196144.92375000133,
      "d": 114.50375000000349,
      "v": 78
    },
    {
      "midi": 59,
      "hit": false,
      "t": 196144.92375000165,
      "d": 114.50375000000349,
      "v": 92
    },
    {
      "midi": 54,
      "hit": false,
      "t": 196154.46572917237,
      "d": 9.541979166679084,
      "v": 35
    },
    {
      "midi": 64,
      "hit": false,
      "t": 196259.4275000002,
      "d": 229.00750000000698,
      "v": 120
    },
    {
      "midi": 60,
      "hit": false,
      "t": 196259.4275000002,
      "d": 229.00750000000698,
      "v": 120
    },
    {
      "midi": 67,
      "hit": false,
      "t": 196259.4275000002,
      "d": 229.00750000000698,
      "v": 120
    },
    {
      "midi": 64,
      "hit": false,
      "t": 196259.42750000133,
      "d": 114.50375000000349,
      "v": 78
    },
    {
      "midi": 64,
      "hit": false,
      "t": 196259.42750000165,
      "d": 114.50375000000349,
      "v": 92
    },
    {
      "midi": 76,
      "hit": false,
      "t": 196259.4275000019,
      "d": 229.00750000000698,
      "v": 84
    },
    {
      "midi": 36,
      "hit": false,
      "t": 196259.42750000572,
      "d": 9.541979166679084,
      "v": 108
    },
    {
      "midi": 54,
      "hit": false,
      "t": 196259.42750000572,
      "d": 9.541979166679084,
      "v": 55
    },
    {
      "midi": 64,
      "hit": false,
      "t": 196373.93125000133,
      "d": 114.50375000000349,
      "v": 78
    },
    {
      "midi": 64,
      "hit": false,
      "t": 196373.93125000165,
      "d": 114.50375000000349,
      "v": 92
    },
    {
      "midi": 54,
      "hit": false,
      "t": 196383.4732291724,
      "d": 9.541979166679084,
      "v": 35
    },
    {
      "midi": 38,
      "hit": false,
      "t": 196483.66401042242,
      "d": 9.541979166679084,
      "v": 96
    },
    {
      "midi": 59,
      "hit": false,
      "t": 196488.4350000002,
      "d": 229.00750000000698,
      "v": 120
    },
    {
      "midi": 62,
      "hit": false,
      "t": 196488.4350000002,
      "d": 229.00750000000698,
      "v": 120
    },
    {
      "midi": 65,
      "hit": false,
      "t": 196488.4350000002,
      "d": 229.00750000000698,
      "v": 120
    },
    {
      "midi": 67,
      "hit": false,
      "t": 196488.43500000134,
      "d": 114.50375000000349,
      "v": 86
    },
    {
      "midi": 67,
      "hit": false,
      "t": 196488.43500000166,
      "d": 114.50375000000349,
      "v": 103
    },
    {
      "midi": 74,
      "hit": false,
      "t": 196488.43500000192,
      "d": 229.00750000000698,
      "v": 84
    },
    {
      "midi": 42,
      "hit": false,
      "t": 196488.43500000576,
      "d": 9.541979166679084,
      "v": 125
    },
    {
      "midi": 54,
      "hit": false,
      "t": 196488.43500000576,
      "d": 9.541979166679084,
      "v": 75
    },
    {
      "midi": 67,
      "hit": false,
      "t": 196602.93875000134,
      "d": 229.00750000000698,
      "v": 78
    },
    {
      "midi": 67,
      "hit": false,
      "t": 196602.93875000166,
      "d": 114.50375000000349,
      "v": 92
    },
    {
      "midi": 54,
      "hit": false,
      "t": 196612.48072917244,
      "d": 9.541979166679084,
      "v": 35
    },
    {
      "midi": 59,
      "hit": false,
      "t": 196717.4425000002,
      "d": 229.00750000000698,
      "v": 120
    },
    {
      "midi": 62,
      "hit": false,
      "t": 196717.4425000002,
      "d": 229.00750000000698,
      "v": 120
    },
    {
      "midi": 65,
      "hit": false,
      "t": 196717.4425000002,
      "d": 229.00750000000698,
      "v": 120
    },
    {
      "midi": 59,
      "hit": false,
      "t": 196717.44250000134,
      "d": 114.50375000000349,
      "v": 70
    },
    {
      "midi": 59,
      "hit": false,
      "t": 196717.44250000166,
      "d": 114.50375000000349,
      "v": 83
    },
    {
      "midi": 74,
      "hit": false,
      "t": 196717.44250000193,
      "d": 229.00750000000698,
      "v": 84
    },
    {
      "midi": 54,
      "hit": false,
      "t": 196717.4425000058,
      "d": 9.541979166679084,
      "v": 55
    },
    {
      "midi": 67,
      "hit": false,
      "t": 196831.94625000135,
      "d": 114.50375000000349,
      "v": 86
    },
    {
      "midi": 67,
      "hit": false,
      "t": 196831.94625000167,
      "d": 114.50375000000349,
      "v": 103
    },
    {
      "midi": 54,
      "hit": false,
      "t": 196841.48822917248,
      "d": 9.541979166679084,
      "v": 35
    },
    {
      "midi": 38,
      "hit": false,
      "t": 196941.6790104225,
      "d": 9.541979166679084,
      "v": 96
    },
    {
      "midi": 57,
      "hit": false,
      "t": 196946.45000000022,
      "d": 343.5112500000105,
      "v": 120
    },
    {
      "midi": 60,
      "hit": false,
      "t": 196946.45000000022,
      "d": 343.5112500000105,
      "v": 120
    },
    {
      "midi": 64,
      "hit": false,
      "t": 196946.45000000022,
      "d": 343.5112500000105,
      "v": 120
    },
    {
      "midi": 59,
      "hit": false,
      "t": 196946.45000000135,
      "d": 114.50375000000349,
      "v": 70
    },
    {
      "midi": 59,
      "hit": false,
      "t": 196946.45000000167,
      "d": 114.50375000000349,
      "v": 83
    },
    {
      "midi": 72,
      "hit": false,
      "t": 196946.45000000193,
      "d": 458.01500000001397,
      "v": 84
    },
    {
      "midi": 42,
      "hit": false,
      "t": 196946.45000000583,
      "d": 9.541979166679084,
      "v": 125
    },
    {
      "midi": 54,
      "hit": false,
      "t": 196946.45000000583,
      "d": 9.541979166679084,
      "v": 75
    },
    {
      "midi": 67,
      "hit": false,
      "t": 197060.95375000135,
      "d": 114.50375000000349,
      "v": 86
    },
    {
      "midi": 67,
      "hit": false,
      "t": 197060.95375000167,
      "d": 114.50375000000349,
      "v": 103
    },
    {
      "midi": 54,
      "hit": false,
      "t": 197070.49572917251,
      "d": 9.541979166679084,
      "v": 35
    },
    {
      "midi": 67,
      "hit": false,
      "t": 197175.45750000136,
      "d": 229.00750000000698,
      "v": 78
    },
    {
      "midi": 67,
      "hit": false,
      "t": 197175.45750000168,
      "d": 114.50375000000349,
      "v": 92
    },
    {
      "midi": 36,
      "hit": false,
      "t": 197175.45750000587,
      "d": 9.541979166679084,
      "v": 108
    },
    {
      "midi": 54,
      "hit": false,
      "t": 197175.45750000587,
      "d": 9.541979166679084,
      "v": 55
    },
    {
      "midi": 59,
      "hit": false,
      "t": 197289.96125000136,
      "d": 114.50375000000349,
      "v": 70
    },
    {
      "midi": 59,
      "hit": false,
      "t": 197289.96125000168,
      "d": 114.50375000000349,
      "v": 83
    },
    {
      "midi": 54,
      "hit": false,
      "t": 197299.50322917255,
      "d": 9.541979166679084,
      "v": 35
    },
    {
      "midi": 38,
      "hit": false,
      "t": 197399.69401042257,
      "d": 9.541979166679084,
      "v": 96
    },
    {
      "midi": 62,
      "hit": false,
      "t": 197404.46500000023,
      "d": 343.5112500000105,
      "v": 120
    },
    {
      "midi": 59,
      "hit": false,
      "t": 197404.46500000023,
      "d": 343.5112500000105,
      "v": 120
    },
    {
      "midi": 56,
      "hit": false,
      "t": 197404.46500000023,
      "d": 343.5112500000105,
      "v": 120
    },
    {
      "midi": 59,
      "hit": false,
      "t": 197404.46500000052,
      "d": 400.7631249999977,
      "v": 105
    },
    {
      "midi": 62,
      "hit": false,
      "t": 197404.46500000052,
      "d": 400.7631249999977,
      "v": 105
    },
    {
      "midi": 64,
      "hit": false,
      "t": 197404.46500000052,
      "d": 400.7631249999977,
      "v": 105
    },
    {
      "midi": 68,
      "hit": false,
      "t": 197404.46500000052,
      "d": 400.7631249999977,
      "v": 105
    },
    {
      "midi": 59,
      "hit": false,
      "t": 197404.46500000136,
      "d": 114.50375000000349,
      "v": 70
    },
    {
      "midi": 59,
      "hit": false,
      "t": 197404.46500000168,
      "d": 114.50375000000349,
      "v": 83
    },
    {
      "midi": 71,
      "hit": false,
      "t": 197404.46500000195,
      "d": 458.01500000001397,
      "v": 84
    },
    {
      "midi": 42,
      "hit": false,
      "t": 197404.4650000059,
      "d": 9.541979166679084,
      "v": 125
    },
    {
      "midi": 54,
      "hit": false,
      "t": 197404.4650000059,
      "d": 9.541979166679084,
      "v": 75
    },
    {
      "midi": 80,
      "hit": false,
      "t": 197414.00697916668,
      "d": 458.01500000001397,
      "v": 80
    },
    {
      "midi": 68,
      "hit": false,
      "t": 197518.96875000137,
      "d": 114.50375000000349,
      "v": 86
    },
    {
      "midi": 68,
      "hit": false,
      "t": 197518.9687500017,
      "d": 114.50375000000349,
      "v": 103
    },
    {
      "midi": 54,
      "hit": false,
      "t": 197528.5107291726,
      "d": 9.541979166679084,
      "v": 35
    },
    {
      "midi": 68,
      "hit": false,
      "t": 197633.47250000137,
      "d": 229.00750000000698,
      "v": 78
    },
    {
      "midi": 68,
      "hit": false,
      "t": 197633.4725000017,
      "d": 114.50375000000349,
      "v": 92
    },
    {
      "midi": 36,
      "hit": false,
      "t": 197633.47250000594,
      "d": 9.541979166679084,
      "v": 108
    },
    {
      "midi": 54,
      "hit": false,
      "t": 197633.47250000594,
      "d": 9.541979166679084,
      "v": 55
    },
    {
      "midi": 59,
      "hit": false,
      "t": 197747.97625000137,
      "d": 114.50375000000349,
      "v": 70
    },
    {
      "midi": 59,
      "hit": false,
      "t": 197747.9762500017,
      "d": 114.50375000000349,
      "v": 83
    },
    {
      "midi": 54,
      "hit": false,
      "t": 197757.51822917262,
      "d": 9.541979166679084,
      "v": 35
    },
    {
      "midi": 38,
      "hit": false,
      "t": 197857.70901042264,
      "d": 9.541979166679084,
      "v": 96
    },
    {
      "midi": 69,
      "hit": false,
      "t": 197862.4800000005,
      "d": 1374.0450000000128,
      "v": 105
    },
    {
      "midi": 72,
      "hit": false,
      "t": 197862.4800000005,
      "d": 1374.0450000000128,
      "v": 105
    },
    {
      "midi": 77,
      "hit": false,
      "t": 197862.4800000005,
      "d": 1374.0450000000128,
      "v": 105
    },
    {
      "midi": 81,
      "hit": false,
      "t": 197862.4800000005,
      "d": 1374.0450000000128,
      "v": 105
    },
    {
      "midi": 57,
      "hit": false,
      "t": 197862.48000000138,
      "d": 114.50375000000349,
      "v": 86
    },
    {
      "midi": 57,
      "hit": false,
      "t": 197862.4800000017,
      "d": 114.50375000000349,
      "v": 103
    },
    {
      "midi": 49,
      "hit": false,
      "t": 197862.48000000598,
      "d": 9.541979166679084,
      "v": 100
    },
    {
      "midi": 54,
      "hit": false,
      "t": 197862.48000000598,
      "d": 9.541979166679084,
      "v": 75
    },
    {
      "midi": 81,
      "hit": false,
      "t": 197872.0219791667,
      "d": 1832.0599999999977,
      "v": 80
    },
    {
      "midi": 60,
      "hit": false,
      "t": 197976.98375000138,
      "d": 114.50375000000349,
      "v": 70
    },
    {
      "midi": 60,
      "hit": false,
      "t": 197976.9837500017,
      "d": 114.50375000000349,
      "v": 83
    },
    {
      "midi": 54,
      "hit": false,
      "t": 197986.52572917266,
      "d": 9.541979166679084,
      "v": 35
    },
    {
      "midi": 64,
      "hit": false,
      "t": 198091.48750000139,
      "d": 114.50375000000349,
      "v": 78
    },
    {
      "midi": 64,
      "hit": false,
      "t": 198091.4875000017,
      "d": 114.50375000000349,
      "v": 92
    },
    {
      "midi": 36,
      "hit": false,
      "t": 198091.487500006,
      "d": 9.541979166679084,
      "v": 108
    },
    {
      "midi": 54,
      "hit": false,
      "t": 198091.487500006,
      "d": 9.541979166679084,
      "v": 55
    },
    {
      "midi": 65,
      "hit": false,
      "t": 198205.9912500014,
      "d": 114.50375000000349,
      "v": 70
    },
    {
      "midi": 65,
      "hit": false,
      "t": 198205.9912500017,
      "d": 114.50375000000349,
      "v": 83
    },
    {
      "midi": 54,
      "hit": false,
      "t": 198215.5332291727,
      "d": 9.541979166679084,
      "v": 35
    },
    {
      "midi": 38,
      "hit": false,
      "t": 198315.7240104227,
      "d": 9.541979166679084,
      "v": 96
    },
    {
      "midi": 60,
      "hit": false,
      "t": 198320.49500000023,
      "d": 190.83958333331975,
      "v": 120
    },
    {
      "midi": 72,
      "hit": false,
      "t": 198320.49500000023,
      "d": 190.83958333331975,
      "v": 120
    },
    {
      "midi": 57,
      "hit": false,
      "t": 198320.49500000023,
      "d": 190.83958333331975,
      "v": 120
    },
    {
      "midi": 65,
      "hit": false,
      "t": 198320.4950000014,
      "d": 114.50375000000349,
      "v": 86
    },
    {
      "midi": 65,
      "hit": false,
      "t": 198320.4950000017,
      "d": 114.50375000000349,
      "v": 103
    },
    {
      "midi": 69,
      "hit": false,
      "t": 198320.49500000197,
      "d": 229.00750000000698,
      "v": 84
    },
    {
      "midi": 42,
      "hit": false,
      "t": 198320.49500000605,
      "d": 9.541979166679084,
      "v": 125
    },
    {
      "midi": 54,
      "hit": false,
      "t": 198320.49500000605,
      "d": 9.541979166679084,
      "v": 75
    },
    {
      "midi": 65,
      "hit": false,
      "t": 198434.9987500014,
      "d": 229.00750000000698,
      "v": 78
    },
    {
      "midi": 65,
      "hit": false,
      "t": 198434.99875000172,
      "d": 114.50375000000349,
      "v": 92
    },
    {
      "midi": 54,
      "hit": false,
      "t": 198444.54072917273,
      "d": 9.541979166679084,
      "v": 35
    },
    {
      "midi": 60,
      "hit": false,
      "t": 198549.5025000002,
      "d": 190.83958333331975,
      "v": 120
    },
    {
      "midi": 72,
      "hit": false,
      "t": 198549.5025000002,
      "d": 190.83958333331975,
      "v": 120
    },
    {
      "midi": 57,
      "hit": false,
      "t": 198549.5025000002,
      "d": 190.83958333331975,
      "v": 120
    },
    {
      "midi": 60,
      "hit": false,
      "t": 198549.5025000014,
      "d": 114.50375000000349,
      "v": 70
    },
    {
      "midi": 60,
      "hit": false,
      "t": 198549.50250000172,
      "d": 114.50375000000349,
      "v": 83
    },
    {
      "midi": 69,
      "hit": false,
      "t": 198549.50250000198,
      "d": 229.00750000000698,
      "v": 84
    },
    {
      "midi": 54,
      "hit": false,
      "t": 198549.50250000609,
      "d": 9.541979166679084,
      "v": 55
    },
    {
      "midi": 65,
      "hit": false,
      "t": 198664.0062500014,
      "d": 114.50375000000349,
      "v": 78
    },
    {
      "midi": 65,
      "hit": false,
      "t": 198664.00625000172,
      "d": 114.50375000000349,
      "v": 92
    },
    {
      "midi": 54,
      "hit": false,
      "t": 198673.54822917277,
      "d": 9.541979166679084,
      "v": 35
    },
    {
      "midi": 38,
      "hit": false,
      "t": 198773.73901042278,
      "d": 9.541979166679084,
      "v": 96
    },
    {
      "midi": 65,
      "hit": false,
      "t": 198778.51000000018,
      "d": 343.5112500000105,
      "v": 120
    },
    {
      "midi": 72,
      "hit": false,
      "t": 198778.51000000018,
      "d": 343.5112500000105,
      "v": 120
    },
    {
      "midi": 57,
      "hit": false,
      "t": 198778.51000000018,
      "d": 343.5112500000105,
      "v": 120
    },
    {
      "midi": 65,
      "hit": false,
      "t": 198778.5100000014,
      "d": 114.50375000000349,
      "v": 86
    },
    {
      "midi": 65,
      "hit": false,
      "t": 198778.51000000173,
      "d": 114.50375000000349,
      "v": 103
    },
    {
      "midi": 72,
      "hit": false,
      "t": 198778.510000002,
      "d": 458.01500000001397,
      "v": 84
    },
    {
      "midi": 42,
      "hit": false,
      "t": 198778.51000000612,
      "d": 9.541979166679084,
      "v": 125
    },
    {
      "midi": 54,
      "hit": false,
      "t": 198778.51000000612,
      "d": 9.541979166679084,
      "v": 75
    },
    {
      "midi": 65,
      "hit": false,
      "t": 198893.0137500014,
      "d": 229.00750000000698,
      "v": 78
    },
    {
      "midi": 65,
      "hit": false,
      "t": 198893.01375000173,
      "d": 114.50375000000349,
      "v": 92
    },
    {
      "midi": 54,
      "hit": false,
      "t": 198902.5557291728,
      "d": 9.541979166679084,
      "v": 35
    },
    {
      "midi": 64,
      "hit": false,
      "t": 199007.5175000014,
      "d": 114.50375000000349,
      "v": 70
    },
    {
      "midi": 64,
      "hit": false,
      "t": 199007.51750000173,
      "d": 114.50375000000349,
      "v": 83
    },
    {
      "midi": 36,
      "hit": false,
      "t": 199007.51750000616,
      "d": 9.541979166679084,
      "v": 108
    },
    {
      "midi": 54,
      "hit": false,
      "t": 199007.51750000616,
      "d": 9.541979166679084,
      "v": 55
    },
    {
      "midi": 65,
      "hit": false,
      "t": 199122.02125000142,
      "d": 114.50375000000349,
      "v": 78
    },
    {
      "midi": 65,
      "hit": false,
      "t": 199122.02125000174,
      "d": 114.50375000000349,
      "v": 92
    },
    {
      "midi": 54,
      "hit": false,
      "t": 199131.56322917284,
      "d": 9.541979166679084,
      "v": 35
    },
    {
      "midi": 38,
      "hit": false,
      "t": 199231.75401042285,
      "d": 9.541979166679084,
      "v": 96
    },
    {
      "midi": 65,
      "hit": false,
      "t": 199236.5250000002,
      "d": 343.5112500000105,
      "v": 120
    },
    {
      "midi": 69,
      "hit": false,
      "t": 199236.5250000002,
      "d": 343.5112500000105,
      "v": 120
    },
    {
      "midi": 72,
      "hit": false,
      "t": 199236.5250000002,
      "d": 343.5112500000105,
      "v": 120
    },
    {
      "midi": 65,
      "hit": false,
      "t": 199236.52500000142,
      "d": 114.50375000000349,
      "v": 86
    },
    {
      "midi": 65,
      "hit": false,
      "t": 199236.52500000174,
      "d": 114.50375000000349,
      "v": 103
    },
    {
      "midi": 81,
      "hit": false,
      "t": 199236.525000002,
      "d": 458.01500000001397,
      "v": 84
    },
    {
      "midi": 42,
      "hit": false,
      "t": 199236.5250000062,
      "d": 9.541979166679084,
      "v": 125
    },
    {
      "midi": 54,
      "hit": false,
      "t": 199236.5250000062,
      "d": 9.541979166679084,
      "v": 75
    },
    {
      "midi": 65,
      "hit": false,
      "t": 199351.02875000142,
      "d": 229.00750000000698,
      "v": 78
    },
    {
      "midi": 65,
      "hit": false,
      "t": 199351.02875000174,
      "d": 114.50375000000349,
      "v": 92
    },
    {
      "midi": 54,
      "hit": false,
      "t": 199360.57072917288,
      "d": 9.541979166679084,
      "v": 35
    },
    {
      "midi": 69,
      "hit": false,
      "t": 199465.53250000053,
      "d": 114.50375000000349,
      "v": 105
    },
    {
      "midi": 72,
      "hit": false,
      "t": 199465.53250000053,
      "d": 114.50375000000349,
      "v": 105
    },
    {
      "midi": 77,
      "hit": false,
      "t": 199465.53250000053,
      "d": 114.50375000000349,
      "v": 105
    },
    {
      "midi": 81,
      "hit": false,
      "t": 199465.53250000053,
      "d": 114.50375000000349,
      "v": 105
    },
    {
      "midi": 60,
      "hit": false,
      "t": 199465.53250000143,
      "d": 114.50375000000349,
      "v": 70
    },
    {
      "midi": 60,
      "hit": false,
      "t": 199465.53250000175,
      "d": 114.50375000000349,
      "v": 83
    },
    {
      "midi": 36,
      "hit": false,
      "t": 199465.53250000623,
      "d": 9.541979166679084,
      "v": 108
    },
    {
      "midi": 54,
      "hit": false,
      "t": 199465.53250000623,
      "d": 9.541979166679084,
      "v": 55
    },
    {
      "midi": 69,
      "hit": false,
      "t": 199580.03625000053,
      "d": 114.50375000000349,
      "v": 105
    },
    {
      "midi": 72,
      "hit": false,
      "t": 199580.03625000053,
      "d": 114.50375000000349,
      "v": 105
    },
    {
      "midi": 77,
      "hit": false,
      "t": 199580.03625000053,
      "d": 114.50375000000349,
      "v": 105
    },
    {
      "midi": 81,
      "hit": false,
      "t": 199580.03625000053,
      "d": 114.50375000000349,
      "v": 105
    },
    {
      "midi": 65,
      "hit": false,
      "t": 199580.03625000143,
      "d": 114.50375000000349,
      "v": 78
    },
    {
      "midi": 65,
      "hit": false,
      "t": 199580.03625000175,
      "d": 114.50375000000349,
      "v": 92
    },
    {
      "midi": 54,
      "hit": false,
      "t": 199589.5782291729,
      "d": 9.541979166679084,
      "v": 35
    },
    {
      "midi": 38,
      "hit": false,
      "t": 199689.76901042293,
      "d": 9.541979166679084,
      "v": 96
    },
    {
      "midi": 67,
      "hit": false,
      "t": 199694.5400000002,
      "d": 343.5112500000105,
      "v": 120
    },
    {
      "midi": 64,
      "hit": false,
      "t": 199694.5400000002,
      "d": 343.5112500000105,
      "v": 120
    },
    {
      "midi": 71,
      "hit": false,
      "t": 199694.5400000002,
      "d": 343.5112500000105,
      "v": 120
    },
    {
      "midi": 76,
      "hit": false,
      "t": 199694.54000000053,
      "d": 916.0299999999988,
      "v": 105
    },
    {
      "midi": 79,
      "hit": false,
      "t": 199694.54000000053,
      "d": 916.0299999999988,
      "v": 105
    },
    {
      "midi": 71,
      "hit": false,
      "t": 199694.54000000053,
      "d": 916.0299999999988,
      "v": 105
    },
    {
      "midi": 67,
      "hit": false,
      "t": 199694.54000000053,
      "d": 916.0299999999988,
      "v": 105
    },
    {
      "midi": 59,
      "hit": false,
      "t": 199694.54000000143,
      "d": 114.50375000000349,
      "v": 86
    },
    {
      "midi": 59,
      "hit": false,
      "t": 199694.54000000175,
      "d": 114.50375000000349,
      "v": 103
    },
    {
      "midi": 79,
      "hit": false,
      "t": 199694.54000000202,
      "d": 458.01500000001397,
      "v": 84
    },
    {
      "midi": 42,
      "hit": false,
      "t": 199694.54000000627,
      "d": 9.541979166679084,
      "v": 125
    },
    {
      "midi": 54,
      "hit": false,
      "t": 199694.54000000627,
      "d": 9.541979166679084,
      "v": 75
    },
    {
      "midi": 83,
      "hit": false,
      "t": 199704.0819791667,
      "d": 916.0299999999988,
      "v": 80
    },
    {
      "midi": 59,
      "hit": false,
      "t": 199809.04375000144,
      "d": 114.50375000000349,
      "v": 70
    },
    {
      "midi": 59,
      "hit": false,
      "t": 199809.04375000176,
      "d": 114.50375000000349,
      "v": 83
    },
    {
      "midi": 54,
      "hit": false,
      "t": 199818.58572917295,
      "d": 9.541979166679084,
      "v": 35
    },
    {
      "midi": 59,
      "hit": false,
      "t": 199923.54750000144,
      "d": 114.50375000000349,
      "v": 78
    },
    {
      "midi": 59,
      "hit": false,
      "t": 199923.54750000176,
      "d": 114.50375000000349,
      "v": 92
    },
    {
      "midi": 36,
      "hit": false,
      "t": 199923.5475000063,
      "d": 9.541979166679084,
      "v": 108
    },
    {
      "midi": 54,
      "hit": false,
      "t": 199923.5475000063,
      "d": 9.541979166679084,
      "v": 55
    },
    {
      "midi": 59,
      "hit": false,
      "t": 200038.05125000144,
      "d": 114.50375000000349,
      "v": 70
    },
    {
      "midi": 59,
      "hit": false,
      "t": 200038.05125000176,
      "d": 114.50375000000349,
      "v": 83
    },
    {
      "midi": 54,
      "hit": false,
      "t": 200047.59322917298,
      "d": 9.541979166679084,
      "v": 35
    },
    {
      "midi": 38,
      "hit": false,
      "t": 200147.784010423,
      "d": 9.541979166679084,
      "v": 96
    },
    {
      "midi": 64,
      "hit": false,
      "t": 200152.55500000023,
      "d": 190.83958333331975,
      "v": 120
    },
    {
      "midi": 67,
      "hit": false,
      "t": 200152.55500000023,
      "d": 190.83958333331975,
      "v": 120
    },
    {
      "midi": 71,
      "hit": false,
      "t": 200152.55500000023,
      "d": 190.83958333331975,
      "v": 120
    },
    {
      "midi": 59,
      "hit": false,
      "t": 200152.55500000145,
      "d": 114.50375000000349,
      "v": 78
    },
    {
      "midi": 59,
      "hit": false,
      "t": 200152.55500000177,
      "d": 114.50375000000349,
      "v": 92
    },
    {
      "midi": 79,
      "hit": false,
      "t": 200152.55500000203,
      "d": 229.00750000000698,
      "v": 84
    },
    {
      "midi": 42,
      "hit": false,
      "t": 200152.55500000634,
      "d": 9.541979166679084,
      "v": 125
    },
    {
      "midi": 54,
      "hit": false,
      "t": 200152.55500000634,
      "d": 9.541979166679084,
      "v": 75
    },
    {
      "midi": 59,
      "hit": false,
      "t": 200267.05875000145,
      "d": 114.50375000000349,
      "v": 70
    },
    {
      "midi": 59,
      "hit": false,
      "t": 200267.05875000177,
      "d": 114.50375000000349,
      "v": 83
    },
    {
      "midi": 54,
      "hit": false,
      "t": 200276.60072917302,
      "d": 9.541979166679084,
      "v": 35
    },
    {
      "midi": 64,
      "hit": false,
      "t": 200381.5625000002,
      "d": 687.0224999999919,
      "v": 120
    },
    {
      "midi": 69,
      "hit": false,
      "t": 200381.5625000002,
      "d": 687.0224999999919,
      "v": 120
    },
    {
      "midi": 72,
      "hit": false,
      "t": 200381.5625000002,
      "d": 687.0224999999919,
      "v": 120
    },
    {
      "midi": 64,
      "hit": false,
      "t": 200381.56250000146,
      "d": 114.50375000000349,
      "v": 70
    },
    {
      "midi": 64,
      "hit": false,
      "t": 200381.56250000178,
      "d": 114.50375000000349,
      "v": 83
    },
    {
      "midi": 72,
      "hit": false,
      "t": 200381.56250000204,
      "d": 687.0224999999919,
      "v": 84
    },
    {
      "midi": 54,
      "hit": false,
      "t": 200381.56250000637,
      "d": 9.541979166679084,
      "v": 55
    },
    {
      "midi": 67,
      "hit": false,
      "t": 200496.06625000146,
      "d": 114.50375000000349,
      "v": 86
    },
    {
      "midi": 67,
      "hit": false,
      "t": 200496.06625000178,
      "d": 114.50375000000349,
      "v": 103
    },
    {
      "midi": 54,
      "hit": false,
      "t": 200505.60822917306,
      "d": 9.541979166679084,
      "v": 35
    },
    {
      "midi": 38,
      "hit": false,
      "t": 200605.79901042307,
      "d": 9.541979166679084,
      "v": 96
    },
    {
      "midi": 72,
      "hit": false,
      "t": 200610.57000000053,
      "d": 916.0299999999988,
      "v": 105
    },
    {
      "midi": 76,
      "hit": false,
      "t": 200610.57000000053,
      "d": 916.0299999999988,
      "v": 105
    },
    {
      "midi": 81,
      "hit": false,
      "t": 200610.57000000053,
      "d": 916.0299999999988,
      "v": 105
    },
    {
      "midi": 60,
      "hit": false,
      "t": 200610.57000000146,
      "d": 114.50375000000349,
      "v": 70
    },
    {
      "midi": 60,
      "hit": false,
      "t": 200610.57000000178,
      "d": 114.50375000000349,
      "v": 83
    },
    {
      "midi": 42,
      "hit": false,
      "t": 200610.5700000064,
      "d": 9.541979166679084,
      "v": 125
    },
    {
      "midi": 54,
      "hit": false,
      "t": 200610.5700000064,
      "d": 9.541979166679084,
      "v": 75
    },
    {
      "midi": 84,
      "hit": false,
      "t": 200620.1119791667,
      "d": 916.0299999999988,
      "v": 80
    },
    {
      "midi": 69,
      "hit": false,
      "t": 200725.07375000147,
      "d": 114.50375000000349,
      "v": 86
    },
    {
      "midi": 69,
      "hit": false,
      "t": 200725.0737500018,
      "d": 114.50375000000349,
      "v": 103
    },
    {
      "midi": 54,
      "hit": false,
      "t": 200734.6157291731,
      "d": 9.541979166679084,
      "v": 35
    },
    {
      "midi": 69,
      "hit": false,
      "t": 200839.57750000147,
      "d": 114.50375000000349,
      "v": 78
    },
    {
      "midi": 69,
      "hit": false,
      "t": 200839.5775000018,
      "d": 114.50375000000349,
      "v": 92
    },
    {
      "midi": 36,
      "hit": false,
      "t": 200839.57750000645,
      "d": 9.541979166679084,
      "v": 108
    },
    {
      "midi": 54,
      "hit": false,
      "t": 200839.57750000645,
      "d": 9.541979166679084,
      "v": 55
    },
    {
      "midi": 60,
      "hit": false,
      "t": 200954.08125000147,
      "d": 114.50375000000349,
      "v": 70
    },
    {
      "midi": 60,
      "hit": false,
      "t": 200954.0812500018,
      "d": 114.50375000000349,
      "v": 83
    },
    {
      "midi": 54,
      "hit": false,
      "t": 200963.62322917313,
      "d": 9.541979166679084,
      "v": 35
    },
    {
      "midi": 38,
      "hit": false,
      "t": 201063.81401042314,
      "d": 9.541979166679084,
      "v": 96
    },
    {
      "midi": 69,
      "hit": false,
      "t": 201068.58500000148,
      "d": 114.50375000000349,
      "v": 86
    },
    {
      "midi": 69,
      "hit": false,
      "t": 201068.5850000018,
      "d": 114.50375000000349,
      "v": 103
    },
    {
      "midi": 42,
      "hit": false,
      "t": 201068.58500000648,
      "d": 9.541979166679084,
      "v": 125
    },
    {
      "midi": 54,
      "hit": false,
      "t": 201068.58500000648,
      "d": 9.541979166679084,
      "v": 75
    },
    {
      "midi": 69,
      "hit": false,
      "t": 201183.08875000148,
      "d": 229.00750000000698,
      "v": 78
    },
    {
      "midi": 69,
      "hit": false,
      "t": 201183.0887500018,
      "d": 114.50375000000349,
      "v": 92
    },
    {
      "midi": 54,
      "hit": false,
      "t": 201192.63072917316,
      "d": 9.541979166679084,
      "v": 35
    },
    {
      "midi": 60,
      "hit": false,
      "t": 201297.59250000148,
      "d": 114.50375000000349,
      "v": 70
    },
    {
      "midi": 60,
      "hit": false,
      "t": 201297.5925000018,
      "d": 114.50375000000349,
      "v": 83
    },
    {
      "midi": 36,
      "hit": false,
      "t": 201297.59250000652,
      "d": 9.541979166679084,
      "v": 108
    },
    {
      "midi": 54,
      "hit": false,
      "t": 201297.59250000652,
      "d": 9.541979166679084,
      "v": 55
    },
    {
      "midi": 69,
      "hit": false,
      "t": 201412.0962500015,
      "d": 114.50375000000349,
      "v": 86
    },
    {
      "midi": 69,
      "hit": false,
      "t": 201412.0962500018,
      "d": 114.50375000000349,
      "v": 103
    },
    {
      "midi": 54,
      "hit": false,
      "t": 201421.6382291732,
      "d": 9.541979166679084,
      "v": 35
    },
    {
      "midi": 38,
      "hit": false,
      "t": 201521.82901042321,
      "d": 9.541979166679084,
      "v": 96
    },
    {
      "midi": 62,
      "hit": false,
      "t": 201526.6000000002,
      "d": 229.00750000000698,
      "v": 120
    },
    {
      "midi": 65,
      "hit": false,
      "t": 201526.6000000002,
      "d": 229.00750000000698,
      "v": 120
    },
    {
      "midi": 69,
      "hit": false,
      "t": 201526.6000000002,
      "d": 229.00750000000698,
      "v": 120
    },
    {
      "midi": 74,
      "hit": false,
      "t": 201526.60000000053,
      "d": 1832.0599999999977,
      "v": 105
    },
    {
      "midi": 77,
      "hit": false,
      "t": 201526.60000000053,
      "d": 1832.0599999999977,
      "v": 105
    },
    {
      "midi": 70,
      "hit": false,
      "t": 201526.60000000053,
      "d": 1832.0599999999977,
      "v": 105
    },
    {
      "midi": 82,
      "hit": false,
      "t": 201526.60000000053,
      "d": 1832.0599999999977,
      "v": 105
    },
    {
      "midi": 58,
      "hit": false,
      "t": 201526.6000000015,
      "d": 114.50375000000349,
      "v": 70
    },
    {
      "midi": 58,
      "hit": false,
      "t": 201526.6000000018,
      "d": 114.50375000000349,
      "v": 83
    },
    {
      "midi": 77,
      "hit": false,
      "t": 201526.60000000204,
      "d": 229.00750000000698,
      "v": 84
    },
    {
      "midi": 49,
      "hit": false,
      "t": 201526.60000000655,
      "d": 9.541979166679084,
      "v": 100
    },
    {
      "midi": 54,
      "hit": false,
      "t": 201526.60000000655,
      "d": 9.541979166679084,
      "v": 75
    },
    {
      "midi": 86,
      "hit": false,
      "t": 201536.14197916668,
      "d": 1832.0599999999977,
      "v": 80
    },
    {
      "midi": 65,
      "hit": false,
      "t": 201641.1037500015,
      "d": 114.50375000000349,
      "v": 86
    },
    {
      "midi": 65,
      "hit": false,
      "t": 201641.1037500018,
      "d": 114.50375000000349,
      "v": 103
    },
    {
      "midi": 54,
      "hit": false,
      "t": 201650.64572917324,
      "d": 9.541979166679084,
      "v": 35
    },
    {
      "midi": 62,
      "hit": false,
      "t": 201755.60750000022,
      "d": 229.00750000000698,
      "v": 120
    },
    {
      "midi": 65,
      "hit": false,
      "t": 201755.60750000022,
      "d": 229.00750000000698,
      "v": 120
    },
    {
      "midi": 69,
      "hit": false,
      "t": 201755.60750000022,
      "d": 229.00750000000698,
      "v": 120
    },
    {
      "midi": 65,
      "hit": false,
      "t": 201755.6075000015,
      "d": 114.50375000000349,
      "v": 78
    },
    {
      "midi": 65,
      "hit": false,
      "t": 201755.60750000182,
      "d": 114.50375000000349,
      "v": 92
    },
    {
      "midi": 77,
      "hit": false,
      "t": 201755.60750000205,
      "d": 229.00750000000698,
      "v": 84
    },
    {
      "midi": 36,
      "hit": false,
      "t": 201755.6075000066,
      "d": 9.541979166679084,
      "v": 108
    },
    {
      "midi": 54,
      "hit": false,
      "t": 201755.6075000066,
      "d": 9.541979166679084,
      "v": 55
    },
    {
      "midi": 58,
      "hit": false,
      "t": 201870.1112500015,
      "d": 114.50375000000349,
      "v": 70
    },
    {
      "midi": 58,
      "hit": false,
      "t": 201870.11125000182,
      "d": 114.50375000000349,
      "v": 83
    },
    {
      "midi": 54,
      "hit": false,
      "t": 201879.65322917327,
      "d": 9.541979166679084,
      "v": 35
    },
    {
      "midi": 38,
      "hit": false,
      "t": 201979.8440104233,
      "d": 9.541979166679084,
      "v": 96
    },
    {
      "midi": 67,
      "hit": false,
      "t": 201984.61500000022,
      "d": 343.5112500000105,
      "v": 120
    },
    {
      "midi": 64,
      "hit": false,
      "t": 201984.61500000022,
      "d": 343.5112500000105,
      "v": 120
    },
    {
      "midi": 60,
      "hit": false,
      "t": 201984.61500000022,
      "d": 343.5112500000105,
      "v": 120
    },
    {
      "midi": 70,
      "hit": false,
      "t": 201984.6150000015,
      "d": 114.50375000000349,
      "v": 86
    },
    {
      "midi": 70,
      "hit": false,
      "t": 201984.61500000182,
      "d": 114.50375000000349,
      "v": 103
    },
    {
      "midi": 76,
      "hit": false,
      "t": 201984.61500000206,
      "d": 458.01500000001397,
      "v": 84
    },
    {
      "midi": 42,
      "hit": false,
      "t": 201984.61500000663,
      "d": 9.541979166679084,
      "v": 125
    },
    {
      "midi": 54,
      "hit": false,
      "t": 201984.61500000663,
      "d": 9.541979166679084,
      "v": 75
    },
    {
      "midi": 70,
      "hit": false,
      "t": 202099.1187500015,
      "d": 229.00750000000698,
      "v": 78
    },
    {
      "midi": 70,
      "hit": false,
      "t": 202099.11875000183,
      "d": 114.50375000000349,
      "v": 92
    },
    {
      "midi": 54,
      "hit": false,
      "t": 202108.6607291733,
      "d": 9.541979166679084,
      "v": 35
    },
    {
      "midi": 65,
      "hit": false,
      "t": 202213.6225000015,
      "d": 114.50375000000349,
      "v": 70
    },
    {
      "midi": 65,
      "hit": false,
      "t": 202213.62250000183,
      "d": 114.50375000000349,
      "v": 83
    },
    {
      "midi": 54,
      "hit": false,
      "t": 202213.62250000666,
      "d": 9.541979166679084,
      "v": 55
    },
    {
      "midi": 70,
      "hit": false,
      "t": 202328.12625000151,
      "d": 114.50375000000349,
      "v": 86
    },
    {
      "midi": 70,
      "hit": false,
      "t": 202328.12625000183,
      "d": 114.50375000000349,
      "v": 103
    },
    {
      "midi": 54,
      "hit": false,
      "t": 202337.66822917335,
      "d": 9.541979166679084,
      "v": 35
    },
    {
      "midi": 38,
      "hit": false,
      "t": 202437.85901042336,
      "d": 9.541979166679084,
      "v": 96
    },
    {
      "midi": 62,
      "hit": false,
      "t": 202442.63000000024,
      "d": 343.5112500000105,
      "v": 120
    },
    {
      "midi": 58,
      "hit": false,
      "t": 202442.63000000024,
      "d": 343.5112500000105,
      "v": 120
    },
    {
      "midi": 65,
      "hit": false,
      "t": 202442.63000000024,
      "d": 343.5112500000105,
      "v": 120
    },
    {
      "midi": 70,
      "hit": false,
      "t": 202442.63000000152,
      "d": 114.50375000000349,
      "v": 78
    },
    {
      "midi": 70,
      "hit": false,
      "t": 202442.63000000184,
      "d": 114.50375000000349,
      "v": 103
    },
    {
      "midi": 74,
      "hit": false,
      "t": 202442.63000000207,
      "d": 458.01500000001397,
      "v": 84
    },
    {
      "midi": 42,
      "hit": false,
      "t": 202442.6300000067,
      "d": 9.541979166679084,
      "v": 125
    },
    {
      "midi": 54,
      "hit": false,
      "t": 202442.6300000067,
      "d": 9.541979166679084,
      "v": 75
    },
    {
      "midi": 70,
      "hit": false,
      "t": 202557.13375000152,
      "d": 229.00750000000698,
      "v": 78
    },
    {
      "midi": 70,
      "hit": false,
      "t": 202557.13375000184,
      "d": 114.50375000000349,
      "v": 92
    },
    {
      "midi": 54,
      "hit": false,
      "t": 202566.67572917338,
      "d": 9.541979166679084,
      "v": 35
    },
    {
      "midi": 65,
      "hit": false,
      "t": 202671.63750000153,
      "d": 114.50375000000349,
      "v": 70
    },
    {
      "midi": 65,
      "hit": false,
      "t": 202671.63750000185,
      "d": 114.50375000000349,
      "v": 83
    },
    {
      "midi": 36,
      "hit": false,
      "t": 202671.63750000673,
      "d": 9.541979166679084,
      "v": 108
    },
    {
      "midi": 54,
      "hit": false,
      "t": 202671.63750000673,
      "d": 9.541979166679084,
      "v": 55
    },
    {
      "midi": 70,
      "hit": false,
      "t": 202786.14125000153,
      "d": 114.50375000000349,
      "v": 86
    },
    {
      "midi": 70,
      "hit": false,
      "t": 202786.14125000185,
      "d": 114.50375000000349,
      "v": 103
    },
    {
      "midi": 54,
      "hit": false,
      "t": 202795.68322917342,
      "d": 9.541979166679084,
      "v": 35
    },
    {
      "midi": 38,
      "hit": false,
      "t": 202895.87401042343,
      "d": 9.541979166679084,
      "v": 96
    },
    {
      "midi": 65,
      "hit": false,
      "t": 202900.64500000025,
      "d": 190.83958333331975,
      "v": 120
    },
    {
      "midi": 60,
      "hit": false,
      "t": 202900.64500000025,
      "d": 190.83958333331975,
      "v": 120
    },
    {
      "midi": 58,
      "hit": false,
      "t": 202900.64500000025,
      "d": 190.83958333331975,
      "v": 120
    },
    {
      "midi": 70,
      "hit": false,
      "t": 202900.64500000153,
      "d": 114.50375000000349,
      "v": 86
    },
    {
      "midi": 70,
      "hit": false,
      "t": 202900.64500000185,
      "d": 114.50375000000349,
      "v": 103
    },
    {
      "midi": 72,
      "hit": false,
      "t": 202900.64500000208,
      "d": 229.00750000000698,
      "v": 84
    },
    {
      "midi": 42,
      "hit": false,
      "t": 202900.64500000677,
      "d": 9.541979166679084,
      "v": 125
    },
    {
      "midi": 54,
      "hit": false,
      "t": 202900.64500000677,
      "d": 9.541979166679084,
      "v": 75
    },
    {
      "midi": 70,
      "hit": false,
      "t": 203015.14875000154,
      "d": 229.00750000000698,
      "v": 78
    },
    {
      "midi": 70,
      "hit": false,
      "t": 203015.14875000186,
      "d": 114.50375000000349,
      "v": 92
    },
    {
      "midi": 54,
      "hit": false,
      "t": 203024.69072917345,
      "d": 9.541979166679084,
      "v": 35
    },
    {
      "midi": 67,
      "hit": false,
      "t": 203129.65250000023,
      "d": 190.83958333331975,
      "v": 120
    },
    {
      "midi": 62,
      "hit": false,
      "t": 203129.65250000023,
      "d": 190.83958333331975,
      "v": 120
    },
    {
      "midi": 58,
      "hit": false,
      "t": 203129.65250000023,
      "d": 190.83958333331975,
      "v": 120
    },
    {
      "midi": 65,
      "hit": false,
      "t": 203129.65250000154,
      "d": 114.50375000000349,
      "v": 70
    },
    {
      "midi": 65,
      "hit": false,
      "t": 203129.65250000186,
      "d": 114.50375000000349,
      "v": 83
    },
    {
      "midi": 74,
      "hit": false,
      "t": 203129.6525000021,
      "d": 229.00750000000698,
      "v": 84
    },
    {
      "midi": 36,
      "hit": false,
      "t": 203129.6525000068,
      "d": 9.541979166679084,
      "v": 108
    },
    {
      "midi": 54,
      "hit": false,
      "t": 203129.6525000068,
      "d": 9.541979166679084,
      "v": 55
    },
    {
      "midi": 70,
      "hit": false,
      "t": 203244.15625000154,
      "d": 114.50375000000349,
      "v": 86
    },
    {
      "midi": 70,
      "hit": false,
      "t": 203244.15625000186,
      "d": 114.50375000000349,
      "v": 103
    },
    {
      "midi": 54,
      "hit": false,
      "t": 203253.6982291735,
      "d": 9.541979166679084,
      "v": 35
    },
    {
      "midi": 38,
      "hit": false,
      "t": 203353.8890104235,
      "d": 9.541979166679084,
      "v": 96
    },
    {
      "midi": 67,
      "hit": false,
      "t": 203358.6600000002,
      "d": 801.5262499999953,
      "v": 120
    },
    {
      "midi": 62,
      "hit": false,
      "t": 203358.6600000002,
      "d": 801.5262499999953,
      "v": 120
    },
    {
      "midi": 59,
      "hit": false,
      "t": 203358.6600000002,
      "d": 801.5262499999953,
      "v": 120
    },
    {
      "midi": 74,
      "hit": false,
      "t": 203358.66000000053,
      "d": 1832.0599999999977,
      "v": 105
    },
    {
      "midi": 67,
      "hit": false,
      "t": 203358.66000000053,
      "d": 1832.0599999999977,
      "v": 105
    },
    {
      "midi": 71,
      "hit": false,
      "t": 203358.66000000053,
      "d": 1832.0599999999977,
      "v": 105
    },
    {
      "midi": 79,
      "hit": false,
      "t": 203358.66000000053,
      "d": 1832.0599999999977,
      "v": 105
    },
    {
      "midi": 62,
      "hit": false,
      "t": 203358.66000000155,
      "d": 114.50375000000349,
      "v": 70
    },
    {
      "midi": 62,
      "hit": false,
      "t": 203358.66000000187,
      "d": 114.50375000000349,
      "v": 100
    },
    {
      "midi": 74,
      "hit": false,
      "t": 203358.6600000021,
      "d": 916.0299999999988,
      "v": 84
    },
    {
      "midi": 49,
      "hit": false,
      "t": 203358.66000000684,
      "d": 9.541979166679084,
      "v": 100
    },
    {
      "midi": 36,
      "hit": false,
      "t": 203358.66000000684,
      "d": 9.541979166679084,
      "v": 108
    },
    {
      "midi": 91,
      "hit": false,
      "t": 203368.20197916668,
      "d": 1832.0599999999977,
      "v": 80
    },
    {
      "midi": 67,
      "hit": false,
      "t": 203473.16375000155,
      "d": 114.50375000000349,
      "v": 78
    },
    {
      "midi": 67,
      "hit": false,
      "t": 203473.16375000187,
      "d": 114.50375000000349,
      "v": 100
    },
    {
      "midi": 67,
      "hit": false,
      "t": 203587.66750000155,
      "d": 114.50375000000349,
      "v": 70
    },
    {
      "midi": 67,
      "hit": false,
      "t": 203587.66750000187,
      "d": 114.50375000000349,
      "v": 100
    },
    {
      "midi": 62,
      "hit": false,
      "t": 203702.17125000156,
      "d": 114.50375000000349,
      "v": 70
    },
    {
      "midi": 62,
      "hit": false,
      "t": 203702.17125000188,
      "d": 114.50375000000349,
      "v": 100
    },
    {
      "midi": 62,
      "hit": false,
      "t": 203816.67500000156,
      "d": 114.50375000000349,
      "v": 70
    },
    {
      "midi": 62,
      "hit": false,
      "t": 203816.67500000188,
      "d": 114.50375000000349,
      "v": 100
    },
    {
      "midi": 67,
      "hit": false,
      "t": 203931.17875000156,
      "d": 114.50375000000349,
      "v": 78
    },
    {
      "midi": 67,
      "hit": false,
      "t": 203931.17875000188,
      "d": 114.50375000000349,
      "v": 100
    },
    {
      "midi": 67,
      "hit": false,
      "t": 204045.68250000157,
      "d": 114.50375000000349,
      "v": 70
    },
    {
      "midi": 67,
      "hit": false,
      "t": 204045.6825000019,
      "d": 114.50375000000349,
      "v": 100
    },
    {
      "midi": 71,
      "hit": false,
      "t": 204160.18625000157,
      "d": 229.00750000000698,
      "v": 70
    },
    {
      "midi": 71,
      "hit": false,
      "t": 204160.1862500019,
      "d": 114.50375000000349,
      "v": 100
    },
    {
      "midi": 64,
      "hit": false,
      "t": 204274.6900000002,
      "d": 343.5112500000105,
      "v": 120
    },
    {
      "midi": 60,
      "hit": false,
      "t": 204274.6900000002,
      "d": 343.5112500000105,
      "v": 120
    },
    {
      "midi": 72,
      "hit": false,
      "t": 204274.6900000002,
      "d": 343.5112500000105,
      "v": 120
    },
    {
      "midi": 67,
      "hit": false,
      "t": 204274.69000000157,
      "d": 114.50375000000349,
      "v": 70
    },
    {
      "midi": 67,
      "hit": false,
      "t": 204274.6900000019,
      "d": 114.50375000000349,
      "v": 100
    },
    {
      "midi": 72,
      "hit": false,
      "t": 204274.6900000021,
      "d": 458.01500000001397,
      "v": 84
    },
    {
      "midi": 71,
      "hit": false,
      "t": 204389.19375000158,
      "d": 114.50375000000349,
      "v": 86
    },
    {
      "midi": 71,
      "hit": false,
      "t": 204389.1937500019,
      "d": 114.50375000000349,
      "v": 100
    },
    {
      "midi": 71,
      "hit": false,
      "t": 204503.69750000158,
      "d": 229.00750000000698,
      "v": 78
    },
    {
      "midi": 71,
      "hit": false,
      "t": 204503.6975000019,
      "d": 114.50375000000349,
      "v": 100
    },
    {
      "midi": 67,
      "hit": false,
      "t": 204618.20125000158,
      "d": 114.50375000000349,
      "v": 70
    },
    {
      "midi": 67,
      "hit": false,
      "t": 204618.2012500019,
      "d": 114.50375000000349,
      "v": 100
    },
    {
      "midi": 62,
      "hit": false,
      "t": 204732.70500000022,
      "d": 343.5112500000105,
      "v": 120
    },
    {
      "midi": 59,
      "hit": false,
      "t": 204732.70500000022,
      "d": 343.5112500000105,
      "v": 120
    },
    {
      "midi": 71,
      "hit": false,
      "t": 204732.70500000022,
      "d": 343.5112500000105,
      "v": 120
    },
    {
      "midi": 67,
      "hit": false,
      "t": 204732.7050000016,
      "d": 114.50375000000349,
      "v": 70
    },
    {
      "midi": 67,
      "hit": false,
      "t": 204732.7050000019,
      "d": 114.50375000000349,
      "v": 100
    },
    {
      "midi": 71,
      "hit": false,
      "t": 204732.7050000021,
      "d": 458.01500000001397,
      "v": 84
    },
    {
      "midi": 71,
      "hit": false,
      "t": 204847.2087500016,
      "d": 114.50375000000349,
      "v": 86
    },
    {
      "midi": 71,
      "hit": false,
      "t": 204847.2087500019,
      "d": 114.50375000000349,
      "v": 100
    },
    {
      "midi": 71,
      "hit": false,
      "t": 204961.7125000016,
      "d": 229.00750000000698,
      "v": 78
    },
    {
      "midi": 71,
      "hit": false,
      "t": 204961.71250000192,
      "d": 114.50375000000349,
      "v": 100
    },
    {
      "midi": 62,
      "hit": false,
      "t": 205076.2162500016,
      "d": 114.50375000000349,
      "v": 70
    },
    {
      "midi": 62,
      "hit": false,
      "t": 205076.21625000192,
      "d": 114.50375000000349,
      "v": 100
    },
    {
      "midi": 48,
      "hit": false,
      "t": 205185.94901041733,
      "d": 229.00750000000698,
      "v": 100
    },
    {
      "midi": 38,
      "hit": false,
      "t": 205185.94901042353,
      "d": 9.541979166679084,
      "v": 96
    },
    {
      "midi": 60,
      "hit": false,
      "t": 205190.71999999904,
      "d": 229.00750000000698,
      "v": 114
    },
    {
      "midi": 63,
      "hit": false,
      "t": 205190.72000000023,
      "d": 3664.1199999999953,
      "v": 120
    },
    {
      "midi": 60,
      "hit": false,
      "t": 205190.72000000023,
      "d": 3664.1199999999953,
      "v": 120
    },
    {
      "midi": 72,
      "hit": false,
      "t": 205190.72000000023,
      "d": 3664.1199999999953,
      "v": 120
    },
    {
      "midi": 56,
      "hit": false,
      "t": 205190.72000000032,
      "d": 1832.0599999999977,
      "v": 80
    },
    {
      "midi": 60,
      "hit": false,
      "t": 205190.72000000032,
      "d": 1832.0599999999977,
      "v": 80
    },
    {
      "midi": 63,
      "hit": false,
      "t": 205190.72000000032,
      "d": 1832.0599999999977,
      "v": 80
    },
    {
      "midi": 60,
      "hit": false,
      "t": 205190.72000000053,
      "d": 1832.0599999999977,
      "v": 110
    },
    {
      "midi": 63,
      "hit": false,
      "t": 205190.72000000053,
      "d": 1832.0599999999977,
      "v": 110
    },
    {
      "midi": 72,
      "hit": false,
      "t": 205190.72000000053,
      "d": 1832.0599999999977,
      "v": 110
    },
    {
      "midi": 68,
      "hit": false,
      "t": 205190.72000000053,
      "d": 1832.0599999999977,
      "v": 110
    },
    {
      "midi": 63,
      "hit": false,
      "t": 205190.7200000016,
      "d": 114.50375000000349,
      "v": 86
    },
    {
      "midi": 63,
      "hit": false,
      "t": 205190.72000000192,
      "d": 114.50375000000349,
      "v": 103
    },
    {
      "midi": 72,
      "hit": false,
      "t": 205190.72000000213,
      "d": 3664.1199999999953,
      "v": 84
    },
    {
      "midi": 54,
      "hit": false,
      "t": 205190.72000000687,
      "d": 9.541979166679084,
      "v": 75
    },
    {
      "midi": 49,
      "hit": false,
      "t": 205190.72000000687,
      "d": 9.541979166679084,
      "v": 100
    },
    {
      "midi": 36,
      "hit": false,
      "t": 205190.72000000687,
      "d": 9.541979166679084,
      "v": 108
    },
    {
      "midi": 48,
      "hit": false,
      "t": 205195.49098958354,
      "d": 229.00750000000698,
      "v": 100
    },
    {
      "midi": 72,
      "hit": false,
      "t": 205200.26197916668,
      "d": 3664.1199999999953,
      "v": 80
    },
    {
      "midi": 84,
      "hit": false,
      "t": 205200.26197916668,
      "d": 3664.1199999999953,
      "v": 80
    },
    {
      "midi": 67,
      "hit": false,
      "t": 205305.2237500016,
      "d": 114.50375000000349,
      "v": 78
    },
    {
      "midi": 67,
      "hit": false,
      "t": 205305.22375000193,
      "d": 114.50375000000349,
      "v": 92
    },
    {
      "midi": 54,
      "hit": false,
      "t": 205314.76572917355,
      "d": 9.541979166679084,
      "v": 35
    },
    {
      "midi": 56,
      "hit": false,
      "t": 205414.95651041734,
      "d": 229.00750000000698,
      "v": 100
    },
    {
      "midi": 68,
      "hit": false,
      "t": 205419.72749999905,
      "d": 229.00750000000698,
      "v": 114
    },
    {
      "midi": 72,
      "hit": false,
      "t": 205419.7275000016,
      "d": 229.00750000000698,
      "v": 86
    },
    {
      "midi": 72,
      "hit": false,
      "t": 205419.72750000193,
      "d": 114.50375000000349,
      "v": 103
    },
    {
      "midi": 36,
      "hit": false,
      "t": 205419.7275000069,
      "d": 9.541979166679084,
      "v": 108
    },
    {
      "midi": 54,
      "hit": false,
      "t": 205419.7275000069,
      "d": 9.541979166679084,
      "v": 55
    },
    {
      "midi": 56,
      "hit": false,
      "t": 205424.49848958355,
      "d": 229.00750000000698,
      "v": 100
    },
    {
      "midi": 67,
      "hit": false,
      "t": 205534.2312500016,
      "d": 114.50375000000349,
      "v": 70
    },
    {
      "midi": 67,
      "hit": false,
      "t": 205534.23125000193,
      "d": 114.50375000000349,
      "v": 83
    },
    {
      "midi": 54,
      "hit": false,
      "t": 205543.7732291736,
      "d": 9.541979166679084,
      "v": 35
    },
    {
      "midi": 55,
      "hit": false,
      "t": 205643.96401041734,
      "d": 229.00750000000698,
      "v": 100
    },
    {
      "midi": 38,
      "hit": false,
      "t": 205643.9640104236,
      "d": 9.541979166679084,
      "v": 96
    },
    {
      "midi": 67,
      "hit": false,
      "t": 205648.73499999905,
      "d": 229.00750000000698,
      "v": 114
    },
    {
      "midi": 72,
      "hit": false,
      "t": 205648.73500000162,
      "d": 114.50375000000349,
      "v": 86
    },
    {
      "midi": 72,
      "hit": false,
      "t": 205648.73500000194,
      "d": 114.50375000000349,
      "v": 103
    },
    {
      "midi": 42,
      "hit": false,
      "t": 205648.73500000694,
      "d": 9.541979166679084,
      "v": 125
    },
    {
      "midi": 54,
      "hit": false,
      "t": 205648.73500000694,
      "d": 9.541979166679084,
      "v": 75
    },
    {
      "midi": 55,
      "hit": false,
      "t": 205653.50598958356,
      "d": 229.00750000000698,
      "v": 100
    },
    {
      "midi": 72,
      "hit": false,
      "t": 205763.23875000162,
      "d": 229.00750000000698,
      "v": 78
    },
    {
      "midi": 72,
      "hit": false,
      "t": 205763.23875000194,
      "d": 114.50375000000349,
      "v": 92
    },
    {
      "midi": 54,
      "hit": false,
      "t": 205772.78072917362,
      "d": 9.541979166679084,
      "v": 35
    },
    {
      "midi": 53,
      "hit": false,
      "t": 205872.97151041735,
      "d": 458.01500000001397,
      "v": 100
    },
    {
      "midi": 65,
      "hit": false,
      "t": 205877.74249999906,
      "d": 458.01500000001397,
      "v": 114
    },
    {
      "midi": 67,
      "hit": false,
      "t": 205877.74250000162,
      "d": 114.50375000000349,
      "v": 70
    },
    {
      "midi": 67,
      "hit": false,
      "t": 205877.74250000194,
      "d": 114.50375000000349,
      "v": 83
    },
    {
      "midi": 54,
      "hit": false,
      "t": 205877.74250000698,
      "d": 9.541979166679084,
      "v": 55
    },
    {
      "midi": 53,
      "hit": false,
      "t": 205882.51348958357,
      "d": 458.01500000001397,
      "v": 100
    },
    {
      "midi": 72,
      "hit": false,
      "t": 205992.24625000163,
      "d": 114.50375000000349,
      "v": 70
    },
    {
      "midi": 72,
      "hit": false,
      "t": 205992.24625000195,
      "d": 114.50375000000349,
      "v": 83
    },
    {
      "midi": 54,
      "hit": false,
      "t": 206001.78822917366,
      "d": 9.541979166679084,
      "v": 35
    },
    {
      "midi": 38,
      "hit": false,
      "t": 206101.97901042367,
      "d": 9.541979166679084,
      "v": 96
    },
    {
      "midi": 67,
      "hit": false,
      "t": 206106.75000000163,
      "d": 114.50375000000349,
      "v": 70
    },
    {
      "midi": 67,
      "hit": false,
      "t": 206106.75000000195,
      "d": 114.50375000000349,
      "v": 83
    },
    {
      "midi": 42,
      "hit": false,
      "t": 206106.750000007,
      "d": 9.541979166679084,
      "v": 125
    },
    {
      "midi": 54,
      "hit": false,
      "t": 206106.750000007,
      "d": 9.541979166679084,
      "v": 75
    },
    {
      "midi": 72,
      "hit": false,
      "t": 206221.25375000163,
      "d": 114.50375000000349,
      "v": 86
    },
    {
      "midi": 72,
      "hit": false,
      "t": 206221.25375000195,
      "d": 114.50375000000349,
      "v": 103
    },
    {
      "midi": 54,
      "hit": false,
      "t": 206230.7957291737,
      "d": 9.541979166679084,
      "v": 35
    },
    {
      "midi": 51,
      "hit": false,
      "t": 206330.98651041737,
      "d": 229.00750000000698,
      "v": 100
    },
    {
      "midi": 63,
      "hit": false,
      "t": 206335.75749999908,
      "d": 229.00750000000698,
      "v": 114
    },
    {
      "midi": 72,
      "hit": false,
      "t": 206335.75750000164,
      "d": 229.00750000000698,
      "v": 78
    },
    {
      "midi": 72,
      "hit": false,
      "t": 206335.75750000196,
      "d": 114.50375000000349,
      "v": 92
    },
    {
      "midi": 36,
      "hit": false,
      "t": 206335.75750000705,
      "d": 9.541979166679084,
      "v": 108
    },
    {
      "midi": 54,
      "hit": false,
      "t": 206335.75750000705,
      "d": 9.541979166679084,
      "v": 55
    },
    {
      "midi": 51,
      "hit": false,
      "t": 206340.52848958358,
      "d": 229.00750000000698,
      "v": 100
    },
    {
      "midi": 67,
      "hit": false,
      "t": 206450.26125000164,
      "d": 114.50375000000349,
      "v": 70
    },
    {
      "midi": 67,
      "hit": false,
      "t": 206450.26125000196,
      "d": 114.50375000000349,
      "v": 83
    },
    {
      "midi": 54,
      "hit": false,
      "t": 206459.80322917373,
      "d": 9.541979166679084,
      "v": 35
    },
    {
      "midi": 50,
      "hit": false,
      "t": 206559.99401041737,
      "d": 229.00750000000698,
      "v": 100
    },
    {
      "midi": 38,
      "hit": false,
      "t": 206559.99401042375,
      "d": 9.541979166679084,
      "v": 96
    },
    {
      "midi": 62,
      "hit": false,
      "t": 206564.76499999908,
      "d": 229.00750000000698,
      "v": 114
    },
    {
      "midi": 72,
      "hit": false,
      "t": 206564.76500000164,
      "d": 114.50375000000349,
      "v": 86
    },
    {
      "midi": 72,
      "hit": false,
      "t": 206564.76500000196,
      "d": 114.50375000000349,
      "v": 103
    },
    {
      "midi": 42,
      "hit": false,
      "t": 206564.7650000071,
      "d": 9.541979166679084,
      "v": 125
    },
    {
      "midi": 54,
      "hit": false,
      "t": 206564.7650000071,
      "d": 9.541979166679084,
      "v": 75
    },
    {
      "midi": 50,
      "hit": false,
      "t": 206569.5359895836,
      "d": 229.00750000000698,
      "v": 100
    },
    {
      "midi": 72,
      "hit": false,
      "t": 206679.26875000165,
      "d": 229.00750000000698,
      "v": 78
    },
    {
      "midi": 72,
      "hit": false,
      "t": 206679.26875000197,
      "d": 114.50375000000349,
      "v": 92
    },
    {
      "midi": 54,
      "hit": false,
      "t": 206688.81072917377,
      "d": 9.541979166679084,
      "v": 35
    },
    {
      "midi": 51,
      "hit": false,
      "t": 206789.00151041738,
      "d": 229.00750000000698,
      "v": 100
    },
    {
      "midi": 63,
      "hit": false,
      "t": 206793.7724999991,
      "d": 229.00750000000698,
      "v": 114
    },
    {
      "midi": 67,
      "hit": false,
      "t": 206793.77250000165,
      "d": 114.50375000000349,
      "v": 70
    },
    {
      "midi": 67,
      "hit": false,
      "t": 206793.77250000197,
      "d": 114.50375000000349,
      "v": 83
    },
    {
      "midi": 36,
      "hit": false,
      "t": 206793.77250000712,
      "d": 9.541979166679084,
      "v": 108
    },
    {
      "midi": 54,
      "hit": false,
      "t": 206793.77250000712,
      "d": 9.541979166679084,
      "v": 55
    },
    {
      "midi": 51,
      "hit": false,
      "t": 206798.5434895836,
      "d": 229.00750000000698,
      "v": 100
    },
    {
      "midi": 72,
      "hit": false,
      "t": 206908.27625000165,
      "d": 114.50375000000349,
      "v": 86
    },
    {
      "midi": 72,
      "hit": false,
      "t": 206908.27625000197,
      "d": 114.50375000000349,
      "v": 103
    },
    {
      "midi": 54,
      "hit": false,
      "t": 206917.8182291738,
      "d": 9.541979166679084,
      "v": 35
    },
    {
      "midi": 50,
      "hit": false,
      "t": 207018.0090104174,
      "d": 229.00750000000698,
      "v": 100
    },
    {
      "midi": 38,
      "hit": false,
      "t": 207018.00901042382,
      "d": 9.541979166679084,
      "v": 96
    },
    {
      "midi": 62,
      "hit": false,
      "t": 207022.7799999991,
      "d": 229.00750000000698,
      "v": 114
    },
    {
      "midi": 62,
      "hit": false,
      "t": 207022.78000000032,
      "d": 1832.0599999999977,
      "v": 80
    },
    {
      "midi": 58,
      "hit": false,
      "t": 207022.78000000032,
      "d": 1832.0599999999977,
      "v": 80
    },
    {
      "midi": 65,
      "hit": false,
      "t": 207022.78000000032,
      "d": 1832.0599999999977,
      "v": 80
    },
    {
      "midi": 65,
      "hit": false,
      "t": 207022.78000000052,
      "d": 1832.0599999999977,
      "v": 110
    },
    {
      "midi": 62,
      "hit": false,
      "t": 207022.78000000052,
      "d": 1832.0599999999977,
      "v": 110
    },
    {
      "midi": 70,
      "hit": false,
      "t": 207022.78000000052,
      "d": 1832.0599999999977,
      "v": 110
    },
    {
      "midi": 74,
      "hit": false,
      "t": 207022.78000000052,
      "d": 1832.0599999999977,
      "v": 110
    },
    {
      "midi": 65,
      "hit": false,
      "t": 207022.78000000166,
      "d": 114.50375000000349,
      "v": 78
    },
    {
      "midi": 65,
      "hit": false,
      "t": 207022.78000000198,
      "d": 114.50375000000349,
      "v": 103
    },
    {
      "midi": 49,
      "hit": false,
      "t": 207022.78000000716,
      "d": 9.541979166679084,
      "v": 100
    },
    {
      "midi": 54,
      "hit": false,
      "t": 207022.78000000716,
      "d": 9.541979166679084,
      "v": 75
    },
    {
      "midi": 36,
      "hit": false,
      "t": 207022.78000000716,
      "d": 9.541979166679084,
      "v": 108
    },
    {
      "midi": 50,
      "hit": false,
      "t": 207027.5509895836,
      "d": 229.00750000000698,
      "v": 100
    },
    {
      "midi": 65,
      "hit": false,
      "t": 207137.28375000166,
      "d": 114.50375000000349,
      "v": 70
    },
    {
      "midi": 65,
      "hit": false,
      "t": 207137.28375000198,
      "d": 114.50375000000349,
      "v": 83
    },
    {
      "midi": 54,
      "hit": false,
      "t": 207146.82572917384,
      "d": 9.541979166679084,
      "v": 35
    },
    {
      "midi": 58,
      "hit": false,
      "t": 207247.0165104174,
      "d": 229.00750000000698,
      "v": 100
    },
    {
      "midi": 70,
      "hit": false,
      "t": 207251.7874999991,
      "d": 229.00750000000698,
      "v": 114
    },
    {
      "midi": 70,
      "hit": false,
      "t": 207251.78750000166,
      "d": 114.50375000000349,
      "v": 86
    },
    {
      "midi": 70,
      "hit": false,
      "t": 207251.78750000198,
      "d": 114.50375000000349,
      "v": 103
    },
    {
      "midi": 36,
      "hit": false,
      "t": 207251.7875000072,
      "d": 9.541979166679084,
      "v": 108
    },
    {
      "midi": 54,
      "hit": false,
      "t": 207251.7875000072,
      "d": 9.541979166679084,
      "v": 55
    },
    {
      "midi": 58,
      "hit": false,
      "t": 207256.5584895836,
      "d": 229.00750000000698,
      "v": 100
    },
    {
      "midi": 70,
      "hit": false,
      "t": 207366.29125000167,
      "d": 114.50375000000349,
      "v": 74
    },
    {
      "midi": 70,
      "hit": false,
      "t": 207366.291250002,
      "d": 114.50375000000349,
      "v": 92
    },
    {
      "midi": 54,
      "hit": false,
      "t": 207375.83322917388,
      "d": 9.541979166679084,
      "v": 35
    },
    {
      "midi": 56,
      "hit": false,
      "t": 207476.0240104174,
      "d": 229.00750000000698,
      "v": 100
    },
    {
      "midi": 38,
      "hit": false,
      "t": 207476.0240104239,
      "d": 9.541979166679084,
      "v": 96
    },
    {
      "midi": 68,
      "hit": false,
      "t": 207480.7949999991,
      "d": 229.00750000000698,
      "v": 114
    },
    {
      "midi": 74,
      "hit": false,
      "t": 207480.79500000167,
      "d": 114.50375000000349,
      "v": 86
    },
    {
      "midi": 74,
      "hit": false,
      "t": 207480.795000002,
      "d": 114.50375000000349,
      "v": 103
    },
    {
      "midi": 42,
      "hit": false,
      "t": 207480.79500000723,
      "d": 9.541979166679084,
      "v": 125
    },
    {
      "midi": 54,
      "hit": false,
      "t": 207480.79500000723,
      "d": 9.541979166679084,
      "v": 75
    },
    {
      "midi": 56,
      "hit": false,
      "t": 207485.5659895836,
      "d": 229.00750000000698,
      "v": 100
    },
    {
      "midi": 74,
      "hit": false,
      "t": 207595.29875000168,
      "d": 229.00750000000698,
      "v": 74
    },
    {
      "midi": 74,
      "hit": false,
      "t": 207595.298750002,
      "d": 114.50375000000349,
      "v": 92
    },
    {
      "midi": 54,
      "hit": false,
      "t": 207604.8407291739,
      "d": 9.541979166679084,
      "v": 35
    },
    {
      "midi": 55,
      "hit": false,
      "t": 207705.0315104174,
      "d": 458.01500000001397,
      "v": 100
    },
    {
      "midi": 67,
      "hit": false,
      "t": 207709.80249999912,
      "d": 458.01500000001397,
      "v": 114
    },
    {
      "midi": 70,
      "hit": false,
      "t": 207709.80250000168,
      "d": 114.50375000000349,
      "v": 70
    },
    {
      "midi": 70,
      "hit": false,
      "t": 207709.802500002,
      "d": 114.50375000000349,
      "v": 83
    },
    {
      "midi": 54,
      "hit": false,
      "t": 207709.80250000727,
      "d": 9.541979166679084,
      "v": 55
    },
    {
      "midi": 55,
      "hit": false,
      "t": 207714.57348958362,
      "d": 458.01500000001397,
      "v": 100
    },
    {
      "midi": 74,
      "hit": false,
      "t": 207824.30625000168,
      "d": 114.50375000000349,
      "v": 86
    },
    {
      "midi": 74,
      "hit": false,
      "t": 207824.306250002,
      "d": 114.50375000000349,
      "v": 103
    },
    {
      "midi": 54,
      "hit": false,
      "t": 207833.84822917395,
      "d": 9.541979166679084,
      "v": 35
    },
    {
      "midi": 38,
      "hit": false,
      "t": 207934.03901042396,
      "d": 9.541979166679084,
      "v": 96
    },
    {
      "midi": 70,
      "hit": false,
      "t": 207938.8100000017,
      "d": 114.50375000000349,
      "v": 70
    },
    {
      "midi": 70,
      "hit": false,
      "t": 207938.810000002,
      "d": 114.50375000000349,
      "v": 83
    },
    {
      "midi": 42,
      "hit": false,
      "t": 207938.8100000073,
      "d": 9.541979166679084,
      "v": 125
    },
    {
      "midi": 54,
      "hit": false,
      "t": 207938.8100000073,
      "d": 9.541979166679084,
      "v": 75
    },
    {
      "midi": 74,
      "hit": false,
      "t": 208053.3137500017,
      "d": 114.50375000000349,
      "v": 86
    },
    {
      "midi": 74,
      "hit": false,
      "t": 208053.313750002,
      "d": 114.50375000000349,
      "v": 103
    },
    {
      "midi": 54,
      "hit": false,
      "t": 208062.85572917399,
      "d": 9.541979166679084,
      "v": 35
    },
    {
      "midi": 53,
      "hit": false,
      "t": 208163.04651041742,
      "d": 229.00750000000698,
      "v": 100
    },
    {
      "midi": 65,
      "hit": false,
      "t": 208167.81749999913,
      "d": 229.00750000000698,
      "v": 114
    },
    {
      "midi": 74,
      "hit": false,
      "t": 208167.8175000017,
      "d": 229.00750000000698,
      "v": 78
    },
    {
      "midi": 74,
      "hit": false,
      "t": 208167.817500002,
      "d": 114.50375000000349,
      "v": 92
    },
    {
      "midi": 36,
      "hit": false,
      "t": 208167.81750000734,
      "d": 9.541979166679084,
      "v": 108
    },
    {
      "midi": 54,
      "hit": false,
      "t": 208167.81750000734,
      "d": 9.541979166679084,
      "v": 55
    },
    {
      "midi": 53,
      "hit": false,
      "t": 208172.58848958364,
      "d": 229.00750000000698,
      "v": 100
    },
    {
      "midi": 70,
      "hit": false,
      "t": 208282.3212500017,
      "d": 114.50375000000349,
      "v": 70
    },
    {
      "midi": 70,
      "hit": false,
      "t": 208282.32125000202,
      "d": 114.50375000000349,
      "v": 83
    },
    {
      "midi": 54,
      "hit": false,
      "t": 208291.86322917402,
      "d": 9.541979166679084,
      "v": 35
    },
    {
      "midi": 51,
      "hit": false,
      "t": 208392.05401041743,
      "d": 229.00750000000698,
      "v": 100
    },
    {
      "midi": 38,
      "hit": false,
      "t": 208392.05401042404,
      "d": 9.541979166679084,
      "v": 96
    },
    {
      "midi": 63,
      "hit": false,
      "t": 208396.82499999914,
      "d": 229.00750000000698,
      "v": 114
    },
    {
      "midi": 74,
      "hit": false,
      "t": 208396.8250000017,
      "d": 114.50375000000349,
      "v": 86
    },
    {
      "midi": 74,
      "hit": false,
      "t": 208396.82500000202,
      "d": 114.50375000000349,
      "v": 103
    },
    {
      "midi": 42,
      "hit": false,
      "t": 208396.82500000737,
      "d": 9.541979166679084,
      "v": 125
    },
    {
      "midi": 54,
      "hit": false,
      "t": 208396.82500000737,
      "d": 9.541979166679084,
      "v": 75
    },
    {
      "midi": 51,
      "hit": false,
      "t": 208401.59598958364,
      "d": 229.00750000000698,
      "v": 100
    },
    {
      "midi": 74,
      "hit": false,
      "t": 208511.3287500017,
      "d": 229.00750000000698,
      "v": 78
    },
    {
      "midi": 74,
      "hit": false,
      "t": 208511.32875000202,
      "d": 114.50375000000349,
      "v": 92
    },
    {
      "midi": 54,
      "hit": false,
      "t": 208520.87072917406,
      "d": 9.541979166679084,
      "v": 35
    },
    {
      "midi": 53,
      "hit": false,
      "t": 208621.06151041744,
      "d": 229.00750000000698,
      "v": 100
    },
    {
      "midi": 65,
      "hit": false,
      "t": 208625.83249999915,
      "d": 229.00750000000698,
      "v": 114
    },
    {
      "midi": 70,
      "hit": false,
      "t": 208625.8325000017,
      "d": 114.50375000000349,
      "v": 70
    },
    {
      "midi": 70,
      "hit": false,
      "t": 208625.83250000203,
      "d": 114.50375000000349,
      "v": 83
    },
    {
      "midi": 36,
      "hit": false,
      "t": 208625.8325000074,
      "d": 9.541979166679084,
      "v": 108
    },
    {
      "midi": 54,
      "hit": false,
      "t": 208625.8325000074,
      "d": 9.541979166679084,
      "v": 55
    },
    {
      "midi": 53,
      "hit": false,
      "t": 208630.60348958365,
      "d": 229.00750000000698,
      "v": 100
    },
    {
      "midi": 74,
      "hit": false,
      "t": 208740.3362500017,
      "d": 114.50375000000349,
      "v": 86
    },
    {
      "midi": 74,
      "hit": false,
      "t": 208740.33625000203,
      "d": 114.50375000000349,
      "v": 103
    },
    {
      "midi": 54,
      "hit": false,
      "t": 208749.8782291741,
      "d": 9.541979166679084,
      "v": 35
    },
    {
      "midi": 65,
      "hit": false,
      "t": 208850.06901041744,
      "d": 1145.0375000000058,
      "v": 100
    },
    {
      "midi": 38,
      "hit": false,
      "t": 208850.0690104241,
      "d": 9.541979166679084,
      "v": 96
    },
    {
      "midi": 65,
      "hit": false,
      "t": 208854.83999999915,
      "d": 1145.0375000000058,
      "v": 114
    },
    {
      "midi": 60,
      "hit": false,
      "t": 208854.84000000032,
      "d": 1603.0524999999907,
      "v": 80
    },
    {
      "midi": 65,
      "hit": false,
      "t": 208854.84000000032,
      "d": 1603.0524999999907,
      "v": 80
    },
    {
      "midi": 67,
      "hit": false,
      "t": 208854.84000000032,
      "d": 1603.0524999999907,
      "v": 80
    },
    {
      "midi": 65,
      "hit": false,
      "t": 208854.84000000052,
      "d": 1374.0450000000128,
      "v": 110
    },
    {
      "midi": 60,
      "hit": false,
      "t": 208854.84000000052,
      "d": 1374.0450000000128,
      "v": 110
    },
    {
      "midi": 67,
      "hit": false,
      "t": 208854.84000000052,
      "d": 1374.0450000000128,
      "v": 110
    },
    {
      "midi": 72,
      "hit": false,
      "t": 208854.84000000052,
      "d": 1374.0450000000128,
      "v": 110
    },
    {
      "midi": 72,
      "hit": false,
      "t": 208854.8400000017,
      "d": 916.0299999999988,
      "v": 78
    },
    {
      "midi": 72,
      "hit": false,
      "t": 208854.84000000203,
      "d": 916.0299999999988,
      "v": 103
    },
    {
      "midi": 49,
      "hit": false,
      "t": 208854.84000000745,
      "d": 9.541979166679084,
      "v": 100
    },
    {
      "midi": 54,
      "hit": false,
      "t": 208854.84000000745,
      "d": 9.541979166679084,
      "v": 75
    },
    {
      "midi": 36,
      "hit": false,
      "t": 208854.84000000745,
      "d": 9.541979166679084,
      "v": 108
    },
    {
      "midi": 65,
      "hit": false,
      "t": 208859.61098958366,
      "d": 1145.0375000000058,
      "v": 100
    },
    {
      "midi": 36,
      "hit": false,
      "t": 209083.84750000745,
      "d": 9.541979166679084,
      "v": 108
    },
    {
      "midi": 38,
      "hit": false,
      "t": 209308.08401042412,
      "d": 9.541979166679084,
      "v": 96
    },
    {
      "midi": 49,
      "hit": false,
      "t": 209312.85500000746,
      "d": 9.541979166679084,
      "v": 100
    },
    {
      "midi": 54,
      "hit": false,
      "t": 209312.85500000746,
      "d": 9.541979166679084,
      "v": 75
    },
    {
      "midi": 38,
      "hit": false,
      "t": 209537.09151042413,
      "d": 9.541979166679084,
      "v": 96
    },
    {
      "midi": 38,
      "hit": false,
      "t": 209766.09901042414,
      "d": 9.541979166679084,
      "v": 96
    },
    {
      "midi": 77,
      "hit": false,
      "t": 209770.8700000017,
      "d": 229.00750000000698,
      "v": 70
    },
    {
      "midi": 77,
      "hit": false,
      "t": 209770.87000000203,
      "d": 114.50375000000349,
      "v": 83
    },
    {
      "midi": 42,
      "hit": false,
      "t": 209770.87000000748,
      "d": 9.541979166679084,
      "v": 125
    },
    {
      "midi": 54,
      "hit": false,
      "t": 209770.87000000748,
      "d": 9.541979166679084,
      "v": 75
    },
    {
      "midi": 72,
      "hit": false,
      "t": 209885.37375000172,
      "d": 114.50375000000349,
      "v": 86
    },
    {
      "midi": 72,
      "hit": false,
      "t": 209885.37375000204,
      "d": 114.50375000000349,
      "v": 103
    },
    {
      "midi": 67,
      "hit": false,
      "t": 209995.10651041745,
      "d": 229.00750000000698,
      "v": 100
    },
    {
      "midi": 67,
      "hit": false,
      "t": 209999.87749999916,
      "d": 229.00750000000698,
      "v": 114
    },
    {
      "midi": 77,
      "hit": false,
      "t": 209999.87750000172,
      "d": 229.00750000000698,
      "v": 78
    },
    {
      "midi": 77,
      "hit": false,
      "t": 209999.87750000204,
      "d": 114.50375000000349,
      "v": 92
    },
    {
      "midi": 43,
      "hit": false,
      "t": 209999.87750000748,
      "d": 9.541979166679084,
      "v": 120
    },
    {
      "midi": 67,
      "hit": false,
      "t": 210004.64848958366,
      "d": 229.00750000000698,
      "v": 100
    },
    {
      "midi": 72,
      "hit": false,
      "t": 210114.38125000172,
      "d": 114.50375000000349,
      "v": 70
    },
    {
      "midi": 72,
      "hit": false,
      "t": 210114.38125000204,
      "d": 114.50375000000349,
      "v": 83
    },
    {
      "midi": 65,
      "hit": false,
      "t": 210224.11401041746,
      "d": 229.00750000000698,
      "v": 100
    },
    {
      "midi": 65,
      "hit": false,
      "t": 210228.88499999917,
      "d": 229.00750000000698,
      "v": 114
    },
    {
      "midi": 77,
      "hit": false,
      "t": 210228.88500000173,
      "d": 229.00750000000698,
      "v": 70
    },
    {
      "midi": 77,
      "hit": false,
      "t": 210228.88500000205,
      "d": 114.50375000000349,
      "v": 83
    },
    {
      "midi": 44,
      "hit": false,
      "t": 210228.8850000075,
      "d": 9.541979166679084,
      "v": 120
    },
    {
      "midi": 65,
      "hit": false,
      "t": 210233.65598958367,
      "d": 229.00750000000698,
      "v": 100
    },
    {
      "midi": 72,
      "hit": false,
      "t": 210343.38875000173,
      "d": 114.50375000000349,
      "v": 86
    },
    {
      "midi": 72,
      "hit": false,
      "t": 210343.38875000205,
      "d": 114.50375000000349,
      "v": 103
    },
    {
      "midi": 64,
      "hit": false,
      "t": 210453.12151041746,
      "d": 5725.1875,
      "v": 100
    },
    {
      "midi": 64,
      "hit": false,
      "t": 210457.89249999917,
      "d": 5725.1874999998545,
      "v": 114
    },
    {
      "midi": 60,
      "hit": false,
      "t": 210457.8925000003,
      "d": 5725.187500001106,
      "v": 80
    },
    {
      "midi": 64,
      "hit": false,
      "t": 210457.8925000003,
      "d": 5725.187500001106,
      "v": 80
    },
    {
      "midi": 67,
      "hit": false,
      "t": 210457.8925000003,
      "d": 5725.187500001106,
      "v": 80
    },
    {
      "midi": 60,
      "hit": false,
      "t": 210457.89250000054,
      "d": 3664.1199999999953,
      "v": 110
    },
    {
      "midi": 64,
      "hit": false,
      "t": 210457.89250000054,
      "d": 3664.1199999999953,
      "v": 110
    },
    {
      "midi": 67,
      "hit": false,
      "t": 210457.89250000054,
      "d": 3664.1199999999953,
      "v": 110
    },
    {
      "midi": 72,
      "hit": false,
      "t": 210457.89250000054,
      "d": 3664.1199999999953,
      "v": 110
    },
    {
      "midi": 36,
      "hit": false,
      "t": 210457.89250000054,
      "d": 3664.1199999999953,
      "v": 110
    },
    {
      "midi": 48,
      "hit": false,
      "t": 210457.89250000054,
      "d": 3664.1199999999953,
      "v": 110
    },
    {
      "midi": 77,
      "hit": false,
      "t": 210457.89250000173,
      "d": 229.00750000000698,
      "v": 78
    },
    {
      "midi": 77,
      "hit": false,
      "t": 210457.89250000205,
      "d": 114.50375000000349,
      "v": 92
    },
    {
      "midi": 36,
      "hit": false,
      "t": 210457.8925000075,
      "d": 9.541979166679084,
      "v": 116
    },
    {
      "midi": 49,
      "hit": false,
      "t": 210457.8925000075,
      "d": 9.541979166679084,
      "v": 110
    },
    {
      "midi": 64,
      "hit": false,
      "t": 210462.66348958368,
      "d": 5725.187500000116,
      "v": 100
    },
    {
      "midi": 72,
      "hit": false,
      "t": 210572.39625000174,
      "d": 5610.683749999938,
      "v": 70
    },
    {
      "midi": 72,
      "hit": false,
      "t": 210572.39625000206,
      "d": 114.50375000000349,
      "v": 83
    },
    {
      "midi": 54,
      "hit": false,
      "t": 210686.9000000075,
      "d": 9.541979166679084,
      "v": 70
    },
    {
      "midi": 54,
      "hit": false,
      "t": 210763.23583334085,
      "d": 9.541979166679084,
      "v": 68
    },
    {
      "midi": 54,
      "hit": false,
      "t": 210839.5716666742,
      "d": 9.541979166679084,
      "v": 66
    },
    {
      "midi": 54,
      "hit": false,
      "t": 210915.90750000754,
      "d": 9.541979166679084,
      "v": 64
    },
    {
      "midi": 54,
      "hit": false,
      "t": 210992.24333334088,
      "d": 9.541979166679084,
      "v": 62
    },
    {
      "midi": 54,
      "hit": false,
      "t": 211068.57916667423,
      "d": 9.541979166679084,
      "v": 60
    },
    {
      "midi": 54,
      "hit": false,
      "t": 211144.91500000758,
      "d": 9.541979166679084,
      "v": 59
    },
    {
      "midi": 54,
      "hit": false,
      "t": 211221.25083334092,
      "d": 9.541979166679084,
      "v": 57
    },
    {
      "midi": 54,
      "hit": false,
      "t": 211297.58666667427,
      "d": 9.541979166679084,
      "v": 55
    },
    {
      "midi": 54,
      "hit": false,
      "t": 211373.9225000076,
      "d": 9.541979166679084,
      "v": 53
    },
    {
      "midi": 54,
      "hit": false,
      "t": 211450.25833334096,
      "d": 9.541979166679084,
      "v": 51
    },
    {
      "midi": 54,
      "hit": false,
      "t": 211526.5941666743,
      "d": 9.541979166679084,
      "v": 49
    },
    {
      "midi": 54,
      "hit": false,
      "t": 211602.93000000765,
      "d": 9.541979166679084,
      "v": 47
    },
    {
      "midi": 54,
      "hit": false,
      "t": 211679.265833341,
      "d": 9.541979166679084,
      "v": 45
    },
    {
      "midi": 54,
      "hit": false,
      "t": 211755.60166667434,
      "d": 9.541979166679084,
      "v": 44
    },
    {
      "midi": 54,
      "hit": false,
      "t": 211831.93750000768,
      "d": 9.541979166679084,
      "v": 42
    },
    {
      "midi": 54,
      "hit": false,
      "t": 211908.27333334103,
      "d": 9.541979166679084,
      "v": 40
    },
    {
      "midi": 54,
      "hit": false,
      "t": 211984.60916667437,
      "d": 9.541979166679084,
      "v": 38
    },
    {
      "midi": 54,
      "hit": false,
      "t": 212060.94500000772,
      "d": 9.541979166679084,
      "v": 36
    },
    {
      "midi": 54,
      "hit": false,
      "t": 212137.28083334106,
      "d": 9.541979166679084,
      "v": 34
    },
    {
      "midi": 54,
      "hit": false,
      "t": 212213.6166666744,
      "d": 9.541979166679084,
      "v": 32
    },
    {
      "midi": 54,
      "hit": false,
      "t": 212289.95250000776,
      "d": 9.541979166679084,
      "v": 30
    },
    {
      "midi": 54,
      "hit": false,
      "t": 212366.2883333411,
      "d": 9.541979166679084,
      "v": 29
    },
    {
      "midi": 54,
      "hit": false,
      "t": 212442.62416667445,
      "d": 9.541979166679084,
      "v": 27
    },
    {
      "midi": 54,
      "hit": false,
      "t": 212518.9600000078,
      "d": 9.541979166679084,
      "v": 25
    },
    {
      "midi": 54,
      "hit": false,
      "t": 212595.29583334114,
      "d": 9.541979166679084,
      "v": 23
    },
    {
      "midi": 54,
      "hit": false,
      "t": 212671.63166667448,
      "d": 9.541979166679084,
      "v": 21
    },
    {
      "midi": 54,
      "hit": false,
      "t": 212747.96750000783,
      "d": 9.541979166679084,
      "v": 19
    },
    {
      "midi": 54,
      "hit": false,
      "t": 212824.30333334117,
      "d": 9.541979166679084,
      "v": 17
    },
    {
      "midi": 54,
      "hit": false,
      "t": 212900.63916667452,
      "d": 9.541979166679084,
      "v": 15
    },
    {
      "midi": 54,
      "hit": false,
      "t": 212976.97500000786,
      "d": 9.541979166679084,
      "v": 14
    },
    {
      "midi": 54,
      "hit": false,
      "t": 213053.3108333412,
      "d": 9.541979166679084,
      "v": 12
    },
    {
      "midi": 54,
      "hit": false,
      "t": 213129.64666667455,
      "d": 9.541979166679084,
      "v": 10
    },
    {
      "midi": 54,
      "hit": false,
      "t": 213205.9825000079,
      "d": 9.541979166679084,
      "v": 8
    },
    {
      "midi": 54,
      "hit": false,
      "t": 213282.31833334125,
      "d": 9.541979166679084,
      "v": 6
    },
    {
      "midi": 54,
      "hit": false,
      "t": 213358.6541666746,
      "d": 9.541979166679084,
      "v": 4
    },
    {
      "midi": 54,
      "hit": false,
      "t": 213434.99000000794,
      "d": 9.541979166679084,
      "v": 2
    },
    {
      "midi": 54,
      "hit": false,
      "t": 213511.32583334128,
      "d": 9.541979166679084,
      "v": 1
    },
    {
      "midi": 54,
      "hit": false,
      "t": 213587.66166667463,
      "d": 9.541979166679084,
      "v": 1
    },
    {
      "midi": 54,
      "hit": false,
      "t": 213663.99750000797,
      "d": 9.541979166679084,
      "v": 1
    },
    {
      "midi": 54,
      "hit": false,
      "t": 213740.33333334132,
      "d": 9.541979166679084,
      "v": 1
    },
    {
      "midi": 54,
      "hit": false,
      "t": 213816.66916667466,
      "d": 9.541979166679084,
      "v": 1
    },
    {
      "midi": 54,
      "hit": false,
      "t": 213893.005000008,
      "d": 9.541979166679084,
      "v": 1
    },
    {
      "midi": 54,
      "hit": false,
      "t": 213969.34083334135,
      "d": 9.541979166679084,
      "v": 1
    },
    {
      "midi": 54,
      "hit": false,
      "t": 214045.6766666747,
      "d": 9.541979166679084,
      "v": 1
    },
    {
      "midi": 54,
      "hit": false,
      "t": 214122.01250000804,
      "d": 9.541979166679084,
      "v": 1
    }
  ]
}