{
  "jsonPath": "Soundtracks/Video Game Music/Aion Tower/aion-tower-of-eternity-forgottensorrow.json",
  "path": "Soundtracks\\Video Game Music\\Aion Tower\\Aion_Tower_of_Eternity_ForgottenSorrow.mid",
  "name": "Aion_Tower_of_Eternity_ForgottenSorrow",
  "difficulty": "Advanced",
  "bpm": 70.00007000007,
  "notes": [
    {
      "midi": 71,
      "hit": false,
      "t": 0,
      "d": 769.2305,
      "v": 64
    },
    {
      "midi": 59,
      "hit": false,
      "t": 0,
      "d": 6153.844,
      "v": 64
    },
    {
      "midi": 66,
      "hit": false,
      "t": 769.2305,
      "d": 384.61524999999995,
      "v": 64
    },
    {
      "midi": 71,
      "hit": false,
      "t": 1153.84575,
      "d": 384.61525000000006,
      "v": 81
    },
    {
      "midi": 78,
      "hit": false,
      "t": 1538.461,
      "d": 1538.461,
      "v": 90
    },
    {
      "midi": 74,
      "hit": false,
      "t": 3076.922,
      "d": 3076.922,
      "v": 70
    },
    {
      "midi": 67,
      "hit": false,
      "t": 3076.922,
      "d": 3076.922,
      "v": 70
    },
    {
      "midi": 78,
      "hit": false,
      "t": 6153.844,
      "d": 1153.8457500000004,
      "v": 83
    },
    {
      "midi": 74,
      "hit": false,
      "t": 6153.844,
      "d": 1153.8457500000004,
      "v": 83
    },
    {
      "midi": 69,
      "hit": false,
      "t": 6153.844,
      "d": 1153.8457500000004,
      "v": 83
    },
    {
      "midi": 62,
      "hit": false,
      "t": 6153.844,
      "d": 3076.9219999999996,
      "v": 84
    },
    {
      "midi": 69,
      "hit": false,
      "t": 7307.6897500000005,
      "d": 384.61524999999983,
      "v": 64
    },
    {
      "midi": 81,
      "hit": false,
      "t": 7692.305,
      "d": 1538.4609999999993,
      "v": 92
    },
    {
      "midi": 61,
      "hit": false,
      "t": 9230.766,
      "d": 3076.9220000000005,
      "v": 73
    },
    {
      "midi": 76,
      "hit": false,
      "t": 9230.766,
      "d": 3076.9220000000005,
      "v": 64
    },
    {
      "midi": 69,
      "hit": false,
      "t": 9230.766,
      "d": 3076.9220000000005,
      "v": 64
    },
    {
      "midi": 59,
      "hit": false,
      "t": 12307.688,
      "d": 1538.4609999999993,
      "v": 73
    },
    {
      "midi": 55,
      "hit": false,
      "t": 12307.688,
      "d": 1538.4609999999993,
      "v": 73
    },
    {
      "midi": 52,
      "hit": false,
      "t": 12307.688,
      "d": 1538.4609999999993,
      "v": 73
    },
    {
      "midi": 71,
      "hit": false,
      "t": 13076.9185,
      "d": 769.2304999999997,
      "v": 69
    },
    {
      "midi": 76,
      "hit": false,
      "t": 13846.149,
      "d": 769.2304999999997,
      "v": 84
    },
    {
      "midi": 71,
      "hit": false,
      "t": 13846.149,
      "d": 769.2304999999997,
      "v": 84
    },
    {
      "midi": 67,
      "hit": false,
      "t": 13846.149,
      "d": 769.2304999999997,
      "v": 84
    },
    {
      "midi": 59,
      "hit": false,
      "t": 13846.149,
      "d": 1538.4609999999993,
      "v": 70
    },
    {
      "midi": 55,
      "hit": false,
      "t": 13846.149,
      "d": 1538.4609999999993,
      "v": 70
    },
    {
      "midi": 50,
      "hit": false,
      "t": 13846.149,
      "d": 1538.4609999999993,
      "v": 70
    },
    {
      "midi": 78,
      "hit": false,
      "t": 14615.3795,
      "d": 769.2304999999997,
      "v": 78
    },
    {
      "midi": 79,
      "hit": false,
      "t": 15384.609999999999,
      "d": 769.2304999999997,
      "v": 77
    },
    {
      "midi": 76,
      "hit": false,
      "t": 15384.609999999999,
      "d": 769.2304999999997,
      "v": 77
    },
    {
      "midi": 71,
      "hit": false,
      "t": 15384.609999999999,
      "d": 769.2304999999997,
      "v": 77
    },
    {
      "midi": 59,
      "hit": false,
      "t": 15384.609999999999,
      "d": 1538.4610000000011,
      "v": 78
    },
    {
      "midi": 55,
      "hit": false,
      "t": 15384.609999999999,
      "d": 1538.4610000000011,
      "v": 78
    },
    {
      "midi": 49,
      "hit": false,
      "t": 15384.609999999999,
      "d": 1538.4610000000011,
      "v": 78
    },
    {
      "midi": 81,
      "hit": false,
      "t": 16153.840499999998,
      "d": 769.2305000000015,
      "v": 81
    },
    {
      "midi": 78,
      "hit": false,
      "t": 16923.071,
      "d": 1153.8457500000004,
      "v": 70
    },
    {
      "midi": 74,
      "hit": false,
      "t": 16923.071,
      "d": 1153.8457500000004,
      "v": 70
    },
    {
      "midi": 70,
      "hit": false,
      "t": 16923.071,
      "d": 1153.8457500000004,
      "v": 70
    },
    {
      "midi": 58,
      "hit": false,
      "t": 16923.071,
      "d": 1538.4609999999993,
      "v": 73
    },
    {
      "midi": 55,
      "hit": false,
      "t": 16923.071,
      "d": 1538.4609999999993,
      "v": 73
    },
    {
      "midi": 48,
      "hit": false,
      "t": 16923.071,
      "d": 1538.4609999999993,
      "v": 73
    },
    {
      "midi": 76,
      "hit": false,
      "t": 18076.91675,
      "d": 384.6152499999989,
      "v": 76
    },
    {
      "midi": 47,
      "hit": false,
      "t": 18461.532,
      "d": 769.2305000000015,
      "v": 66
    },
    {
      "midi": 78,
      "hit": false,
      "t": 18461.532,
      "d": 4615.383000000005,
      "v": 79
    },
    {
      "midi": 76,
      "hit": false,
      "t": 18461.532,
      "d": 4615.383000000005,
      "v": 79
    },
    {
      "midi": 71,
      "hit": false,
      "t": 18461.532,
      "d": 4615.383000000005,
      "v": 79
    },
    {
      "midi": 66,
      "hit": false,
      "t": 18461.532,
      "d": 4615.383000000005,
      "v": 79
    },
    {
      "midi": 54,
      "hit": false,
      "t": 19230.7625,
      "d": 769.2305000000015,
      "v": 81
    },
    {
      "midi": 59,
      "hit": false,
      "t": 19999.993000000002,
      "d": 769.2305000000015,
      "v": 81
    },
    {
      "midi": 64,
      "hit": false,
      "t": 20769.223500000004,
      "d": 3461.537250000001,
      "v": 83
    },
    {
      "midi": 83,
      "hit": false,
      "t": 23076.915000000005,
      "d": 3076.9220000000023,
      "v": 85
    },
    {
      "midi": 71,
      "hit": false,
      "t": 23076.915000000005,
      "d": 3076.9220000000023,
      "v": 85
    },
    {
      "midi": 61,
      "hit": false,
      "t": 24230.760750000005,
      "d": 384.6152499999989,
      "v": 67
    },
    {
      "midi": 47,
      "hit": false,
      "t": 24615.376000000004,
      "d": 769.2305000000015,
      "v": 60
    },
    {
      "midi": 63,
      "hit": false,
      "t": 24615.376000000004,
      "d": 1538.461000000003,
      "v": 67
    },
    {
      "midi": 54,
      "hit": false,
      "t": 25384.606500000005,
      "d": 5909.338750000003,
      "v": 78
    },
    {
      "midi": 66,
      "hit": false,
      "t": 26153.837000000007,
      "d": 1430.2879609375013,
      "v": 56
    },
    {
      "midi": 83,
      "hit": false,
      "t": 27584.124960937508,
      "d": 3281.2492890625,
      "v": 94
    },
    {
      "midi": 95,
      "hit": false,
      "t": 27692.29800000001,
      "d": 3173.0762499999983,
      "v": 96
    },
    {
      "midi": 90,
      "hit": false,
      "t": 30865.374250000008,
      "d": 428.5709999999999,
      "v": 60
    },
    {
      "midi": 59,
      "hit": false,
      "t": 31293.945250000008,
      "d": 428.5709999999999,
      "v": 81
    },
    {
      "midi": 95,
      "hit": false,
      "t": 31293.945250000008,
      "d": 1285.7129999999997,
      "v": 83
    },
    {
      "midi": 66,
      "hit": false,
      "t": 31722.516250000008,
      "d": 428.5709999999999,
      "v": 85
    },
    {
      "midi": 83,
      "hit": false,
      "t": 32151.087250000008,
      "d": 857.1420000000035,
      "v": 100
    },
    {
      "midi": 74,
      "hit": false,
      "t": 32151.087250000008,
      "d": 857.1420000000035,
      "v": 100
    },
    {
      "midi": 71,
      "hit": false,
      "t": 32151.087250000008,
      "d": 857.1420000000035,
      "v": 100
    },
    {
      "midi": 88,
      "hit": false,
      "t": 32579.658250000008,
      "d": 428.57100000000355,
      "v": 63
    },
    {
      "midi": 57,
      "hit": false,
      "t": 33008.22925000001,
      "d": 428.57100000000355,
      "v": 71
    },
    {
      "midi": 90,
      "hit": false,
      "t": 33008.22925000001,
      "d": 2142.8550000000105,
      "v": 76
    },
    {
      "midi": 66,
      "hit": false,
      "t": 33436.800250000015,
      "d": 428.57100000000355,
      "v": 90
    },
    {
      "midi": 78,
      "hit": false,
      "t": 33865.37125000002,
      "d": 857.1419999999998,
      "v": 97
    },
    {
      "midi": 69,
      "hit": false,
      "t": 33865.37125000002,
      "d": 857.1419999999998,
      "v": 97
    },
    {
      "midi": 55,
      "hit": false,
      "t": 34722.51325000002,
      "d": 428.57100000000355,
      "v": 69
    },
    {
      "midi": 71,
      "hit": false,
      "t": 35151.08425000002,
      "d": 428.57100000000355,
      "v": 96
    },
    {
      "midi": 69,
      "hit": false,
      "t": 35151.08425000002,
      "d": 428.57100000000355,
      "v": 96
    },
    {
      "midi": 83,
      "hit": false,
      "t": 35151.08425000002,
      "d": 428.57100000000355,
      "v": 63
    },
    {
      "midi": 88,
      "hit": false,
      "t": 35579.655250000025,
      "d": 428.57100000000355,
      "v": 80
    },
    {
      "midi": 76,
      "hit": false,
      "t": 35579.655250000025,
      "d": 857.1420000000071,
      "v": 88
    },
    {
      "midi": 90,
      "hit": false,
      "t": 36008.22625000003,
      "d": 428.57100000000355,
      "v": 82
    },
    {
      "midi": 57,
      "hit": false,
      "t": 36436.79725000003,
      "d": 428.57100000000355,
      "v": 67
    },
    {
      "midi": 93,
      "hit": false,
      "t": 36436.79725000003,
      "d": 428.57100000000355,
      "v": 81
    },
    {
      "midi": 71,
      "hit": false,
      "t": 36865.368250000036,
      "d": 428.57100000000355,
      "v": 90
    },
    {
      "midi": 69,
      "hit": false,
      "t": 36865.368250000036,
      "d": 428.57100000000355,
      "v": 90
    },
    {
      "midi": 90,
      "hit": false,
      "t": 36865.368250000036,
      "d": 428.57100000000355,
      "v": 73
    },
    {
      "midi": 73,
      "hit": false,
      "t": 37293.93925000004,
      "d": 857.1419999999998,
      "v": 83
    },
    {
      "midi": 88,
      "hit": false,
      "t": 37293.93925000004,
      "d": 857.1419999999998,
      "v": 73
    },
    {
      "midi": 59,
      "hit": false,
      "t": 38151.08125000004,
      "d": 428.57100000000355,
      "v": 68
    },
    {
      "midi": 95,
      "hit": false,
      "t": 38151.08125000004,
      "d": 1285.7130000000107,
      "v": 89
    },
    {
      "midi": 66,
      "hit": false,
      "t": 38579.65225000004,
      "d": 428.57100000000355,
      "v": 91
    },
    {
      "midi": 83,
      "hit": false,
      "t": 39008.22325000005,
      "d": 857.1420000000071,
      "v": 98
    },
    {
      "midi": 74,
      "hit": false,
      "t": 39008.22325000005,
      "d": 857.1420000000071,
      "v": 98
    },
    {
      "midi": 71,
      "hit": false,
      "t": 39008.22325000005,
      "d": 857.1420000000071,
      "v": 98
    },
    {
      "midi": 88,
      "hit": false,
      "t": 39436.79425000005,
      "d": 428.57100000000355,
      "v": 60
    },
    {
      "midi": 57,
      "hit": false,
      "t": 39865.36525000005,
      "d": 428.57100000000355,
      "v": 74
    },
    {
      "midi": 90,
      "hit": false,
      "t": 39865.36525000005,
      "d": 2142.8550000000105,
      "v": 76
    },
    {
      "midi": 66,
      "hit": false,
      "t": 40293.93625000006,
      "d": 428.57100000000355,
      "v": 88
    },
    {
      "midi": 78,
      "hit": false,
      "t": 40722.50725000006,
      "d": 857.1419999999998,
      "v": 98
    },
    {
      "midi": 69,
      "hit": false,
      "t": 40722.50725000006,
      "d": 857.1419999999998,
      "v": 98
    },
    {
      "midi": 57,
      "hit": false,
      "t": 41579.64925000006,
      "d": 428.57100000000355,
      "v": 75
    },
    {
      "midi": 74,
      "hit": false,
      "t": 42008.220250000064,
      "d": 428.57100000000355,
      "v": 100
    },
    {
      "midi": 71,
      "hit": false,
      "t": 42008.220250000064,
      "d": 428.57100000000355,
      "v": 100
    },
    {
      "midi": 69,
      "hit": false,
      "t": 42008.220250000064,
      "d": 428.57100000000355,
      "v": 100
    },
    {
      "midi": 88,
      "hit": false,
      "t": 42008.220250000064,
      "d": 428.57100000000355,
      "v": 70
    },
    {
      "midi": 90,
      "hit": false,
      "t": 42436.79125000007,
      "d": 428.57100000000355,
      "v": 78
    },
    {
      "midi": 73,
      "hit": false,
      "t": 42436.79125000007,
      "d": 857.1420000000071,
      "v": 72
    },
    {
      "midi": 88,
      "hit": false,
      "t": 42865.36225000007,
      "d": 428.57100000000355,
      "v": 75
    },
    {
      "midi": 55,
      "hit": false,
      "t": 43293.933250000075,
      "d": 428.57100000000355,
      "v": 68
    },
    {
      "midi": 93,
      "hit": false,
      "t": 43293.933250000075,
      "d": 428.57100000000355,
      "v": 82
    },
    {
      "midi": 62,
      "hit": false,
      "t": 43722.50425000008,
      "d": 428.57100000000355,
      "v": 89
    },
    {
      "midi": 90,
      "hit": false,
      "t": 43722.50425000008,
      "d": 428.57100000000355,
      "v": 69
    },
    {
      "midi": 64,
      "hit": false,
      "t": 44151.07525000008,
      "d": 857.1419999999998,
      "v": 82
    },
    {
      "midi": 88,
      "hit": false,
      "t": 44151.07525000008,
      "d": 857.1419999999998,
      "v": 67
    },
    {
      "midi": 47,
      "hit": false,
      "t": 45008.21725000008,
      "d": 428.57100000000355,
      "v": 64
    },
    {
      "midi": 83,
      "hit": false,
      "t": 45008.21725000008,
      "d": 1285.7130000000107,
      "v": 92
    },
    {
      "midi": 78,
      "hit": false,
      "t": 45008.21725000008,
      "d": 1285.7130000000107,
      "v": 92
    },
    {
      "midi": 71,
      "hit": false,
      "t": 45008.21725000008,
      "d": 1285.7130000000107,
      "v": 92
    },
    {
      "midi": 54,
      "hit": false,
      "t": 45436.788250000085,
      "d": 428.57100000000355,
      "v": 86
    },
    {
      "midi": 62,
      "hit": false,
      "t": 45865.35925000009,
      "d": 857.1420000000071,
      "v": 89
    },
    {
      "midi": 59,
      "hit": false,
      "t": 45865.35925000009,
      "d": 857.1420000000071,
      "v": 89
    },
    {
      "midi": 85,
      "hit": false,
      "t": 46293.93025000009,
      "d": 428.57100000000355,
      "v": 83
    },
    {
      "midi": 47,
      "hit": false,
      "t": 46722.501250000096,
      "d": 428.57100000000355,
      "v": 64
    },
    {
      "midi": 86,
      "hit": false,
      "t": 46722.501250000096,
      "d": 428.57100000000355,
      "v": 83
    },
    {
      "midi": 79,
      "hit": false,
      "t": 46722.501250000096,
      "d": 428.57100000000355,
      "v": 83
    },
    {
      "midi": 74,
      "hit": false,
      "t": 46722.501250000096,
      "d": 428.57100000000355,
      "v": 83
    },
    {
      "midi": 55,
      "hit": false,
      "t": 47151.0722500001,
      "d": 428.57100000000355,
      "v": 83
    },
    {
      "midi": 85,
      "hit": false,
      "t": 47151.0722500001,
      "d": 428.57100000000355,
      "v": 71
    },
    {
      "midi": 83,
      "hit": false,
      "t": 47579.6432500001,
      "d": 428.57100000000355,
      "v": 68
    },
    {
      "midi": 62,
      "hit": false,
      "t": 47579.6432500001,
      "d": 857.1420000000071,
      "v": 86
    },
    {
      "midi": 59,
      "hit": false,
      "t": 47579.6432500001,
      "d": 857.1420000000071,
      "v": 86
    },
    {
      "midi": 76,
      "hit": false,
      "t": 48008.21425000011,
      "d": 428.57100000000355,
      "v": 58
    },
    {
      "midi": 47,
      "hit": false,
      "t": 48436.78525000011,
      "d": 428.57100000000355,
      "v": 68
    },
    {
      "midi": 73,
      "hit": false,
      "t": 48436.78525000011,
      "d": 857.1420000000071,
      "v": 94
    },
    {
      "midi": 78,
      "hit": false,
      "t": 48436.78525000011,
      "d": 3428.5680000000066,
      "v": 78
    },
    {
      "midi": 57,
      "hit": false,
      "t": 48865.35625000011,
      "d": 428.57100000000355,
      "v": 88
    },
    {
      "midi": 64,
      "hit": false,
      "t": 49293.92725000012,
      "d": 857.1419999999998,
      "v": 91
    },
    {
      "midi": 61,
      "hit": false,
      "t": 49293.92725000012,
      "d": 857.1419999999998,
      "v": 91
    },
    {
      "midi": 69,
      "hit": false,
      "t": 49293.92725000012,
      "d": 857.1419999999998,
      "v": 66
    },
    {
      "midi": 59,
      "hit": false,
      "t": 50151.06925000012,
      "d": 1714.2839999999997,
      "v": 74
    },
    {
      "midi": 56,
      "hit": false,
      "t": 50151.06925000012,
      "d": 1714.2839999999997,
      "v": 74
    },
    {
      "midi": 47,
      "hit": false,
      "t": 50151.06925000012,
      "d": 1714.2839999999997,
      "v": 74
    },
    {
      "midi": 68,
      "hit": false,
      "t": 50151.06925000012,
      "d": 1714.2839999999997,
      "v": 72
    },
    {
      "midi": 64,
      "hit": false,
      "t": 50151.06925000012,
      "d": 1714.2839999999997,
      "v": 72
    },
    {
      "midi": 47,
      "hit": false,
      "t": 51865.35325000012,
      "d": 428.57100000000355,
      "v": 67
    },
    {
      "midi": 66,
      "hit": false,
      "t": 51865.35325000012,
      "d": 428.57100000000355,
      "v": 52
    },
    {
      "midi": 62,
      "hit": false,
      "t": 51865.35325000012,
      "d": 428.57100000000355,
      "v": 52
    },
    {
      "midi": 54,
      "hit": false,
      "t": 52293.92425000012,
      "d": 428.57100000000355,
      "v": 78
    },
    {
      "midi": 78,
      "hit": false,
      "t": 52293.92425000012,
      "d": 428.57100000000355,
      "v": 94
    },
    {
      "midi": 83,
      "hit": false,
      "t": 52722.49525000012,
      "d": 428.57100000000355,
      "v": 90
    },
    {
      "midi": 78,
      "hit": false,
      "t": 52722.49525000012,
      "d": 428.57100000000355,
      "v": 90
    },
    {
      "midi": 71,
      "hit": false,
      "t": 52722.49525000012,
      "d": 428.57100000000355,
      "v": 90
    },
    {
      "midi": 62,
      "hit": false,
      "t": 52722.49525000012,
      "d": 857.1420000000071,
      "v": 91
    },
    {
      "midi": 59,
      "hit": false,
      "t": 52722.49525000012,
      "d": 857.1420000000071,
      "v": 91
    },
    {
      "midi": 85,
      "hit": false,
      "t": 53151.06625000013,
      "d": 428.57100000000355,
      "v": 83
    },
    {
      "midi": 47,
      "hit": false,
      "t": 53579.63725000013,
      "d": 428.57100000000355,
      "v": 66
    },
    {
      "midi": 86,
      "hit": false,
      "t": 53579.63725000013,
      "d": 428.57100000000355,
      "v": 84
    },
    {
      "midi": 79,
      "hit": false,
      "t": 53579.63725000013,
      "d": 428.57100000000355,
      "v": 84
    },
    {
      "midi": 74,
      "hit": false,
      "t": 53579.63725000013,
      "d": 428.57100000000355,
      "v": 84
    },
    {
      "midi": 55,
      "hit": false,
      "t": 54008.208250000134,
      "d": 428.57100000000355,
      "v": 87
    },
    {
      "midi": 85,
      "hit": false,
      "t": 54008.208250000134,
      "d": 428.57100000000355,
      "v": 72
    },
    {
      "midi": 83,
      "hit": false,
      "t": 54436.77925000014,
      "d": 642.8565000000017,
      "v": 70
    },
    {
      "midi": 62,
      "hit": false,
      "t": 54436.77925000014,
      "d": 857.1419999999998,
      "v": 88
    },
    {
      "midi": 59,
      "hit": false,
      "t": 54436.77925000014,
      "d": 857.1419999999998,
      "v": 88
    },
    {
      "midi": 86,
      "hit": false,
      "t": 55079.63575000014,
      "d": 214.28549999999814,
      "v": 83
    },
    {
      "midi": 47,
      "hit": false,
      "t": 55293.92125000014,
      "d": 428.57100000000355,
      "v": 74
    },
    {
      "midi": 73,
      "hit": false,
      "t": 55293.92125000014,
      "d": 857.1420000000071,
      "v": 89
    },
    {
      "midi": 78,
      "hit": false,
      "t": 55293.92125000014,
      "d": 1714.284000000007,
      "v": 83
    },
    {
      "midi": 85,
      "hit": false,
      "t": 55293.92125000014,
      "d": 3428.568000000014,
      "v": 83
    },
    {
      "midi": 57,
      "hit": false,
      "t": 55722.49225000014,
      "d": 428.57100000000355,
      "v": 83
    },
    {
      "midi": 64,
      "hit": false,
      "t": 56151.063250000145,
      "d": 857.1419999999998,
      "v": 93
    },
    {
      "midi": 61,
      "hit": false,
      "t": 56151.063250000145,
      "d": 857.1419999999998,
      "v": 93
    },
    {
      "midi": 69,
      "hit": false,
      "t": 56151.063250000145,
      "d": 857.1419999999998,
      "v": 67
    },
    {
      "midi": 47,
      "hit": false,
      "t": 57008.205250000145,
      "d": 1714.284000000007,
      "v": 77
    },
    {
      "midi": 76,
      "hit": false,
      "t": 57008.205250000145,
      "d": 1714.284000000007,
      "v": 90
    },
    {
      "midi": 68,
      "hit": false,
      "t": 57008.205250000145,
      "d": 1714.284000000007,
      "v": 90
    },
    {
      "midi": 64,
      "hit": false,
      "t": 57008.205250000145,
      "d": 1714.284000000007,
      "v": 90
    },
    {
      "midi": 56,
      "hit": false,
      "t": 57085.21410156265,
      "d": 1637.275148437504,
      "v": 77
    },
    {
      "midi": 59,
      "hit": false,
      "t": 57162.22295312515,
      "d": 1560.266296875001,
      "v": 77
    },
    {
      "midi": 52,
      "hit": false,
      "t": 58722.48925000015,
      "d": 428.57100000000355,
      "v": 70
    },
    {
      "midi": 36,
      "hit": false,
      "t": 58722.48925000015,
      "d": 428.57100000000355,
      "v": 70
    },
    {
      "midi": 59,
      "hit": false,
      "t": 58722.48925000015,
      "d": 753.3474609375044,
      "v": 75
    },
    {
      "midi": 64,
      "hit": false,
      "t": 58722.48925000015,
      "d": 1714.2840000000142,
      "v": 56
    },
    {
      "midi": 43,
      "hit": false,
      "t": 59151.060250000155,
      "d": 1285.7130000000107,
      "v": 63
    },
    {
      "midi": 57,
      "hit": false,
      "t": 59579.63125000016,
      "d": 428.57100000000355,
      "v": 72
    },
    {
      "midi": 62,
      "hit": false,
      "t": 60008.20225000016,
      "d": 428.57100000000355,
      "v": 85
    },
    {
      "midi": 54,
      "hit": false,
      "t": 60436.773250000166,
      "d": 428.57100000000355,
      "v": 83
    },
    {
      "midi": 38,
      "hit": false,
      "t": 60436.773250000166,
      "d": 428.57100000000355,
      "v": 83
    },
    {
      "midi": 59,
      "hit": false,
      "t": 60436.773250000166,
      "d": 753.3474609375044,
      "v": 91
    },
    {
      "midi": 45,
      "hit": false,
      "t": 60865.34425000017,
      "d": 1285.712999999996,
      "v": 72
    },
    {
      "midi": 57,
      "hit": false,
      "t": 61293.91525000017,
      "d": 214.28549999999814,
      "v": 73
    },
    {
      "midi": 59,
      "hit": false,
      "t": 61508.20075000017,
      "d": 214.28549999999814,
      "v": 79
    },
    {
      "midi": 62,
      "hit": false,
      "t": 61722.48625000017,
      "d": 214.28549999999814,
      "v": 82
    },
    {
      "midi": 64,
      "hit": false,
      "t": 61936.77175000017,
      "d": 214.28549999999814,
      "v": 88
    },
    {
      "midi": 40,
      "hit": false,
      "t": 62151.057250000165,
      "d": 428.57100000000355,
      "v": 69
    },
    {
      "midi": 66,
      "hit": false,
      "t": 62151.057250000165,
      "d": 857.1420000000071,
      "v": 82
    },
    {
      "midi": 59,
      "hit": false,
      "t": 62151.057250000165,
      "d": 857.1420000000071,
      "v": 82
    },
    {
      "midi": 47,
      "hit": false,
      "t": 62579.62825000017,
      "d": 428.57100000000355,
      "v": 83
    },
    {
      "midi": 64,
      "hit": false,
      "t": 63008.19925000017,
      "d": 428.57100000000355,
      "v": 68
    },
    {
      "midi": 57,
      "hit": false,
      "t": 63008.19925000017,
      "d": 857.1420000000071,
      "v": 64
    },
    {
      "midi": 52,
      "hit": false,
      "t": 63008.19925000017,
      "d": 1714.284000000007,
      "v": 85
    },
    {
      "midi": 62,
      "hit": false,
      "t": 63436.770250000176,
      "d": 428.57100000000355,
      "v": 65
    },
    {
      "midi": 59,
      "hit": false,
      "t": 63865.34125000018,
      "d": 1714.284000000007,
      "v": 70
    },
    {
      "midi": 56,
      "hit": false,
      "t": 63865.34125000018,
      "d": 1714.284000000007,
      "v": 70
    },
    {
      "midi": 52,
      "hit": false,
      "t": 65579.62525000019,
      "d": 857.1419999999925,
      "v": 80
    },
    {
      "midi": 59,
      "hit": false,
      "t": 66008.19625000018,
      "d": 428.5709999999963,
      "v": 66
    },
    {
      "midi": 64,
      "hit": false,
      "t": 66436.76725000018,
      "d": 428.5709999999963,
      "v": 88
    },
    {
      "midi": 59,
      "hit": false,
      "t": 66436.76725000018,
      "d": 428.5709999999963,
      "v": 88
    },
    {
      "midi": 55,
      "hit": false,
      "t": 66436.76725000018,
      "d": 428.5709999999963,
      "v": 88
    },
    {
      "midi": 50,
      "hit": false,
      "t": 66436.76725000018,
      "d": 857.1419999999925,
      "v": 73
    },
    {
      "midi": 66,
      "hit": false,
      "t": 66865.33825000018,
      "d": 428.5709999999963,
      "v": 79
    },
    {
      "midi": 67,
      "hit": false,
      "t": 67293.90925000017,
      "d": 428.5709999999963,
      "v": 80
    },
    {
      "midi": 64,
      "hit": false,
      "t": 67293.90925000017,
      "d": 428.5709999999963,
      "v": 80
    },
    {
      "midi": 59,
      "hit": false,
      "t": 67293.90925000017,
      "d": 428.5709999999963,
      "v": 80
    },
    {
      "midi": 55,
      "hit": false,
      "t": 67293.90925000017,
      "d": 428.5709999999963,
      "v": 80
    },
    {
      "midi": 49,
      "hit": false,
      "t": 67293.90925000017,
      "d": 857.1419999999925,
      "v": 76
    },
    {
      "midi": 69,
      "hit": false,
      "t": 67722.48025000017,
      "d": 428.5709999999963,
      "v": 83
    },
    {
      "midi": 66,
      "hit": false,
      "t": 68151.05125000016,
      "d": 642.8564999999944,
      "v": 75
    },
    {
      "midi": 62,
      "hit": false,
      "t": 68151.05125000016,
      "d": 642.8564999999944,
      "v": 75
    },
    {
      "midi": 58,
      "hit": false,
      "t": 68151.05125000016,
      "d": 642.8564999999944,
      "v": 75
    },
    {
      "midi": 48,
      "hit": false,
      "t": 68151.05125000016,
      "d": 857.1419999999925,
      "v": 67
    },
    {
      "midi": 64,
      "hit": false,
      "t": 68793.90775000016,
      "d": 214.28549999999814,
      "v": 76
    },
    {
      "midi": 35,
      "hit": false,
      "t": 69008.19325000016,
      "d": 428.5709999999963,
      "v": 72
    },
    {
      "midi": 66,
      "hit": false,
      "t": 69008.19325000016,
      "d": 3428.5679999999847,
      "v": 95
    },
    {
      "midi": 63,
      "hit": false,
      "t": 69008.19325000016,
      "d": 3428.5679999999847,
      "v": 95
    },
    {
      "midi": 61,
      "hit": false,
      "t": 69008.19325000016,
      "d": 3428.5679999999847,
      "v": 95
    },
    {
      "midi": 58,
      "hit": false,
      "t": 69008.19325000016,
      "d": 3428.5679999999847,
      "v": 95
    },
    {
      "midi": 42,
      "hit": false,
      "t": 69436.76425000015,
      "d": 428.5709999999963,
      "v": 77
    },
    {
      "midi": 51,
      "hit": false,
      "t": 69865.33525000015,
      "d": 2571.425999999992,
      "v": 81
    },
    {
      "midi": 82,
      "hit": false,
      "t": 70196.80813281264,
      "d": 97.0981171875028,
      "v": 67
    },
    {
      "midi": 94,
      "hit": false,
      "t": 70293.90625000015,
      "d": 374.99962499999674,
      "v": 93
    },
    {
      "midi": 78,
      "hit": false,
      "t": 70668.90587500014,
      "d": 53.571374999999534,
      "v": 60
    },
    {
      "midi": 90,
      "hit": false,
      "t": 70722.47725000014,
      "d": 338.1693046875007,
      "v": 92
    },
    {
      "midi": 75,
      "hit": false,
      "t": 71060.64655468764,
      "d": 90.40169531249558,
      "v": 62
    },
    {
      "midi": 87,
      "hit": false,
      "t": 71151.04825000014,
      "d": 374.99962499999674,
      "v": 93
    },
    {
      "midi": 70,
      "hit": false,
      "t": 71526.04787500013,
      "d": 53.571374999999534,
      "v": 57
    },
    {
      "midi": 82,
      "hit": false,
      "t": 71579.61925000013,
      "d": 857.1420000000071,
      "v": 94
    },
    {
      "midi": 52,
      "hit": false,
      "t": 72436.76125000014,
      "d": 428.5709999999963,
      "v": 76
    },
    {
      "midi": 36,
      "hit": false,
      "t": 72436.76125000014,
      "d": 428.5709999999963,
      "v": 76
    },
    {
      "midi": 59,
      "hit": false,
      "t": 72436.76125000014,
      "d": 753.3474609374971,
      "v": 84
    },
    {
      "midi": 64,
      "hit": false,
      "t": 72436.76125000014,
      "d": 1714.283999999985,
      "v": 68
    },
    {
      "midi": 43,
      "hit": false,
      "t": 72865.33225000014,
      "d": 1285.7129999999888,
      "v": 62
    },
    {
      "midi": 57,
      "hit": false,
      "t": 73293.90325000013,
      "d": 642.8564999999944,
      "v": 73
    },
    {
      "midi": 62,
      "hit": false,
      "t": 73936.75975000013,
      "d": 214.28549999999814,
      "v": 85
    },
    {
      "midi": 54,
      "hit": false,
      "t": 74151.04525000013,
      "d": 428.5709999999963,
      "v": 86
    },
    {
      "midi": 38,
      "hit": false,
      "t": 74151.04525000013,
      "d": 428.5709999999963,
      "v": 86
    },
    {
      "midi": 59,
      "hit": false,
      "t": 74151.04525000013,
      "d": 753.3474609374971,
      "v": 86
    },
    {
      "midi": 45,
      "hit": false,
      "t": 74579.61625000012,
      "d": 1285.7129999999888,
      "v": 69
    },
    {
      "midi": 57,
      "hit": false,
      "t": 75008.18725000012,
      "d": 214.28549999999814,
      "v": 67
    },
    {
      "midi": 59,
      "hit": false,
      "t": 75222.47275000012,
      "d": 214.28549999999814,
      "v": 81
    },
    {
      "midi": 62,
      "hit": false,
      "t": 75436.75825000012,
      "d": 214.28549999999814,
      "v": 84
    },
    {
      "midi": 64,
      "hit": false,
      "t": 75651.04375000011,
      "d": 214.28549999999814,
      "v": 82
    },
    {
      "midi": 40,
      "hit": false,
      "t": 75865.32925000011,
      "d": 428.5709999999963,
      "v": 69
    },
    {
      "midi": 66,
      "hit": false,
      "t": 75865.32925000011,
      "d": 857.1419999999925,
      "v": 77
    },
    {
      "midi": 59,
      "hit": false,
      "t": 75865.32925000011,
      "d": 857.1419999999925,
      "v": 77
    },
    {
      "midi": 47,
      "hit": false,
      "t": 76293.90025000011,
      "d": 428.5709999999963,
      "v": 81
    },
    {
      "midi": 64,
      "hit": false,
      "t": 76722.4712500001,
      "d": 428.5709999999963,
      "v": 69
    },
    {
      "midi": 52,
      "hit": false,
      "t": 76722.4712500001,
      "d": 857.1419999999925,
      "v": 74
    },
    {
      "midi": 57,
      "hit": false,
      "t": 76722.4712500001,
      "d": 857.1419999999925,
      "v": 73
    },
    {
      "midi": 62,
      "hit": false,
      "t": 77151.0422500001,
      "d": 428.5709999999963,
      "v": 65
    },
    {
      "midi": 59,
      "hit": false,
      "t": 77579.6132500001,
      "d": 1714.2840000000142,
      "v": 76
    },
    {
      "midi": 56,
      "hit": false,
      "t": 77579.6132500001,
      "d": 1714.2840000000142,
      "v": 76
    },
    {
      "midi": 52,
      "hit": false,
      "t": 78436.7552500001,
      "d": 857.1420000000071,
      "v": 76
    },
    {
      "midi": 36,
      "hit": false,
      "t": 79293.89725000011,
      "d": 428.5709999999963,
      "v": 65
    },
    {
      "midi": 57,
      "hit": false,
      "t": 79722.4682500001,
      "d": 374.99962499999674,
      "v": 88
    },
    {
      "midi": 43,
      "hit": false,
      "t": 79722.4682500001,
      "d": 428.5709999999963,
      "v": 84
    },
    {
      "midi": 59,
      "hit": false,
      "t": 80151.0392500001,
      "d": 374.99962499999674,
      "v": 91
    },
    {
      "midi": 52,
      "hit": false,
      "t": 80151.0392500001,
      "d": 857.1419999999925,
      "v": 87
    },
    {
      "midi": 62,
      "hit": false,
      "t": 80579.6102500001,
      "d": 374.99962499999674,
      "v": 94
    },
    {
      "midi": 67,
      "hit": false,
      "t": 80579.6102500001,
      "d": 428.5709999999963,
      "v": 70
    },
    {
      "midi": 38,
      "hit": false,
      "t": 81008.1812500001,
      "d": 428.5709999999963,
      "v": 64
    },
    {
      "midi": 59,
      "hit": false,
      "t": 81008.1812500001,
      "d": 753.3474609374971,
      "v": 82
    },
    {
      "midi": 66,
      "hit": false,
      "t": 81008.1812500001,
      "d": 857.1419999999925,
      "v": 71
    },
    {
      "midi": 45,
      "hit": false,
      "t": 81436.75225000009,
      "d": 428.5709999999963,
      "v": 79
    },
    {
      "midi": 57,
      "hit": false,
      "t": 81865.32325000009,
      "d": 753.3474609374971,
      "v": 80
    },
    {
      "midi": 54,
      "hit": false,
      "t": 81865.32325000009,
      "d": 857.1419999999925,
      "v": 80
    },
    {
      "midi": 62,
      "hit": false,
      "t": 81865.32325000009,
      "d": 857.1419999999925,
      "v": 70
    },
    {
      "midi": 40,
      "hit": false,
      "t": 82722.46525000008,
      "d": 428.5709999999963,
      "v": 67
    },
    {
      "midi": 64,
      "hit": false,
      "t": 82722.46525000008,
      "d": 2571.4259999999776,
      "v": 83
    },
    {
      "midi": 47,
      "hit": false,
      "t": 83151.03625000008,
      "d": 428.5709999999963,
      "v": 80
    },
    {
      "midi": 52,
      "hit": false,
      "t": 83579.60725000007,
      "d": 428.5709999999963,
      "v": 79
    },
    {
      "midi": 56,
      "hit": false,
      "t": 84008.17825000007,
      "d": 428.5709999999963,
      "v": 81
    },
    {
      "midi": 68,
      "hit": false,
      "t": 84436.74925000007,
      "d": 428.5709999999963,
      "v": 65
    },
    {
      "midi": 59,
      "hit": false,
      "t": 84436.74925000007,
      "d": 857.1419999999925,
      "v": 77
    },
    {
      "midi": 71,
      "hit": false,
      "t": 84865.32025000006,
      "d": 428.5709999999963,
      "v": 76
    },
    {
      "midi": 76,
      "hit": false,
      "t": 85293.89125000006,
      "d": 428.5709999999963,
      "v": 87
    },
    {
      "midi": 71,
      "hit": false,
      "t": 85722.46225000006,
      "d": 214.28549999999814,
      "v": 71
    },
    {
      "midi": 80,
      "hit": false,
      "t": 85722.46225000006,
      "d": 1285.7130000000034,
      "v": 84
    },
    {
      "midi": 66,
      "hit": false,
      "t": 85936.74775000005,
      "d": 214.28549999999814,
      "v": 64
    },
    {
      "midi": 68,
      "hit": false,
      "t": 86151.03325000005,
      "d": 857.1420000000071,
      "v": 74
    },
    {
      "midi": 88,
      "hit": false,
      "t": 86151.03325000005,
      "d": 857.1420000000071,
      "v": 93
    },
    {
      "midi": 83,
      "hit": false,
      "t": 86151.03325000005,
      "d": 857.1420000000071,
      "v": 93
    },
    {
      "midi": 92,
      "hit": false,
      "t": 87008.17525000006,
      "d": 642.8564999999944,
      "v": 87
    },
    {
      "midi": 80,
      "hit": false,
      "t": 87008.17525000006,
      "d": 642.8564999999944,
      "v": 87
    },
    {
      "midi": 76,
      "hit": false,
      "t": 87651.03175000005,
      "d": 214.28549999999814,
      "v": 56
    },
    {
      "midi": 71,
      "hit": false,
      "t": 87865.31725000005,
      "d": 1285.7130000000034,
      "v": 62
    },
    {
      "midi": 90,
      "hit": false,
      "t": 89151.03025000005,
      "d": 428.5709999999963,
      "v": 92
    },
    {
      "midi": 59,
      "hit": false,
      "t": 89579.60125000005,
      "d": 428.5709999999963,
      "v": 64
    },
    {
      "midi": 95,
      "hit": false,
      "t": 89579.60125000005,
      "d": 1285.7129999999888,
      "v": 91
    },
    {
      "midi": 78,
      "hit": false,
      "t": 90008.17225000005,
      "d": 214.28549999999814,
      "v": 68
    },
    {
      "midi": 66,
      "hit": false,
      "t": 90008.17225000005,
      "d": 428.5709999999963,
      "v": 85
    },
    {
      "midi": 76,
      "hit": false,
      "t": 90222.45775000005,
      "d": 214.28549999999814,
      "v": 70
    },
    {
      "midi": 74,
      "hit": false,
      "t": 90436.74325000004,
      "d": 857.1419999999925,
      "v": 91
    },
    {
      "midi": 78,
      "hit": false,
      "t": 90436.74325000004,
      "d": 1285.7129999999888,
      "v": 81
    },
    {
      "midi": 88,
      "hit": false,
      "t": 90865.31425000004,
      "d": 428.5709999999963,
      "v": 67
    },
    {
      "midi": 57,
      "hit": false,
      "t": 91293.88525000004,
      "d": 428.5709999999963,
      "v": 68
    },
    {
      "midi": 90,
      "hit": false,
      "t": 91293.88525000004,
      "d": 2142.854999999996,
      "v": 75
    },
    {
      "midi": 85,
      "hit": false,
      "t": 91722.45625000003,
      "d": 214.28549999999814,
      "v": 91
    },
    {
      "midi": 66,
      "hit": false,
      "t": 91722.45625000003,
      "d": 428.5709999999963,
      "v": 94
    },
    {
      "midi": 83,
      "hit": false,
      "t": 91936.74175000003,
      "d": 214.28549999999814,
      "v": 71
    },
    {
      "midi": 73,
      "hit": false,
      "t": 92151.02725000003,
      "d": 857.1420000000071,
      "v": 88
    },
    {
      "midi": 69,
      "hit": false,
      "t": 92151.02725000003,
      "d": 857.1420000000071,
      "v": 88
    },
    {
      "midi": 85,
      "hit": false,
      "t": 92151.02725000003,
      "d": 857.1420000000071,
      "v": 83
    },
    {
      "midi": 55,
      "hit": false,
      "t": 93008.16925000004,
      "d": 428.5709999999963,
      "v": 69
    },
    {
      "midi": 71,
      "hit": false,
      "t": 93436.74025000003,
      "d": 428.5709999999963,
      "v": 95
    },
    {
      "midi": 69,
      "hit": false,
      "t": 93436.74025000003,
      "d": 428.5709999999963,
      "v": 95
    },
    {
      "midi": 83,
      "hit": false,
      "t": 93436.74025000003,
      "d": 428.5709999999963,
      "v": 63
    },
    {
      "midi": 88,
      "hit": false,
      "t": 93865.31125000003,
      "d": 428.5709999999963,
      "v": 86
    },
    {
      "midi": 76,
      "hit": false,
      "t": 93865.31125000003,
      "d": 857.1419999999925,
      "v": 90
    },
    {
      "midi": 90,
      "hit": false,
      "t": 94293.88225000002,
      "d": 428.5709999999963,
      "v": 83
    },
    {
      "midi": 57,
      "hit": false,
      "t": 94722.45325000002,
      "d": 428.5709999999963,
      "v": 68
    },
    {
      "midi": 93,
      "hit": false,
      "t": 94722.45325000002,
      "d": 428.5709999999963,
      "v": 85
    },
    {
      "midi": 71,
      "hit": false,
      "t": 95151.02425000002,
      "d": 428.5709999999963,
      "v": 94
    },
    {
      "midi": 69,
      "hit": false,
      "t": 95151.02425000002,
      "d": 428.5709999999963,
      "v": 94
    },
    {
      "midi": 90,
      "hit": false,
      "t": 95151.02425000002,
      "d": 428.5709999999963,
      "v": 75
    },
    {
      "midi": 73,
      "hit": false,
      "t": 95579.59525000001,
      "d": 857.1420000000071,
      "v": 81
    },
    {
      "midi": 88,
      "hit": false,
      "t": 95579.59525000001,
      "d": 857.1420000000071,
      "v": 68
    },
    {
      "midi": 59,
      "hit": false,
      "t": 96436.73725000002,
      "d": 428.5709999999963,
      "v": 70
    },
    {
      "midi": 95,
      "hit": false,
      "t": 96436.73725000002,
      "d": 1285.7129999999888,
      "v": 86
    },
    {
      "midi": 78,
      "hit": false,
      "t": 96865.30825000002,
      "d": 214.28549999999814,
      "v": 73
    },
    {
      "midi": 66,
      "hit": false,
      "t": 96865.30825000002,
      "d": 428.5709999999963,
      "v": 91
    },
    {
      "midi": 76,
      "hit": false,
      "t": 97079.59375000001,
      "d": 214.28549999999814,
      "v": 65
    },
    {
      "midi": 78,
      "hit": false,
      "t": 97293.87925000001,
      "d": 214.28549999999814,
      "v": 79
    },
    {
      "midi": 74,
      "hit": false,
      "t": 97293.87925000001,
      "d": 857.1419999999925,
      "v": 92
    },
    {
      "midi": 76,
      "hit": false,
      "t": 97508.16475000001,
      "d": 214.28549999999814,
      "v": 68
    },
    {
      "midi": 81,
      "hit": false,
      "t": 97722.45025000001,
      "d": 214.28549999999814,
      "v": 81
    },
    {
      "midi": 88,
      "hit": false,
      "t": 97722.45025000001,
      "d": 428.5709999999963,
      "v": 63
    },
    {
      "midi": 83,
      "hit": false,
      "t": 97936.73575,
      "d": 214.28549999999814,
      "v": 83
    },
    {
      "midi": 57,
      "hit": false,
      "t": 98151.02125,
      "d": 428.5709999999963,
      "v": 70
    },
    {
      "midi": 78,
      "hit": false,
      "t": 98151.02125,
      "d": 1714.2839999999997,
      "v": 69
    },
    {
      "midi": 90,
      "hit": false,
      "t": 98151.02125,
      "d": 2142.854999999996,
      "v": 76
    },
    {
      "midi": 66,
      "hit": false,
      "t": 98579.59225,
      "d": 428.5709999999963,
      "v": 94
    },
    {
      "midi": 73,
      "hit": false,
      "t": 99008.16325,
      "d": 857.1420000000071,
      "v": 87
    },
    {
      "midi": 57,
      "hit": false,
      "t": 99865.30525,
      "d": 428.5709999999963,
      "v": 67
    },
    {
      "midi": 74,
      "hit": false,
      "t": 100293.87625,
      "d": 428.5709999999963,
      "v": 95
    },
    {
      "midi": 71,
      "hit": false,
      "t": 100293.87625,
      "d": 428.5709999999963,
      "v": 95
    },
    {
      "midi": 69,
      "hit": false,
      "t": 100293.87625,
      "d": 428.5709999999963,
      "v": 95
    },
    {
      "midi": 88,
      "hit": false,
      "t": 100293.87625,
      "d": 428.5709999999963,
      "v": 72
    },
    {
      "midi": 90,
      "hit": false,
      "t": 100722.44725,
      "d": 428.5709999999963,
      "v": 80
    },
    {
      "midi": 73,
      "hit": false,
      "t": 100722.44725,
      "d": 857.1419999999925,
      "v": 76
    },
    {
      "midi": 88,
      "hit": false,
      "t": 101151.01825,
      "d": 428.5709999999963,
      "v": 70
    },
    {
      "midi": 55,
      "hit": false,
      "t": 101579.58924999999,
      "d": 428.5709999999963,
      "v": 64
    },
    {
      "midi": 93,
      "hit": false,
      "t": 101579.58924999999,
      "d": 428.5709999999963,
      "v": 83
    },
    {
      "midi": 62,
      "hit": false,
      "t": 102008.16024999999,
      "d": 428.5709999999963,
      "v": 92
    },
    {
      "midi": 90,
      "hit": false,
      "t": 102008.16024999999,
      "d": 428.5709999999963,
      "v": 71
    },
    {
      "midi": 64,
      "hit": false,
      "t": 102436.73124999998,
      "d": 857.1420000000071,
      "v": 81
    },
    {
      "midi": 88,
      "hit": false,
      "t": 102436.73124999998,
      "d": 857.1420000000071,
      "v": 70
    },
    {
      "midi": 47,
      "hit": false,
      "t": 103293.87324999999,
      "d": 428.5709999999963,
      "v": 70
    },
    {
      "midi": 83,
      "hit": false,
      "t": 103293.87324999999,
      "d": 1285.7129999999888,
      "v": 91
    },
    {
      "midi": 78,
      "hit": false,
      "t": 103293.87324999999,
      "d": 1285.7129999999888,
      "v": 91
    },
    {
      "midi": 71,
      "hit": false,
      "t": 103293.87324999999,
      "d": 1285.7129999999888,
      "v": 91
    },
    {
      "midi": 54,
      "hit": false,
      "t": 103722.44424999999,
      "d": 428.5709999999963,
      "v": 81
    },
    {
      "midi": 62,
      "hit": false,
      "t": 104151.01524999998,
      "d": 857.1419999999925,
      "v": 85
    },
    {
      "midi": 59,
      "hit": false,
      "t": 104151.01524999998,
      "d": 857.1419999999925,
      "v": 85
    },
    {
      "midi": 85,
      "hit": false,
      "t": 104579.58624999998,
      "d": 428.5709999999963,
      "v": 79
    },
    {
      "midi": 47,
      "hit": false,
      "t": 105008.15724999997,
      "d": 428.5709999999963,
      "v": 71
    },
    {
      "midi": 86,
      "hit": false,
      "t": 105008.15724999997,
      "d": 428.5709999999963,
      "v": 78
    },
    {
      "midi": 79,
      "hit": false,
      "t": 105008.15724999997,
      "d": 428.5709999999963,
      "v": 78
    },
    {
      "midi": 74,
      "hit": false,
      "t": 105008.15724999997,
      "d": 428.5709999999963,
      "v": 78
    },
    {
      "midi": 55,
      "hit": false,
      "t": 105436.72824999997,
      "d": 428.5709999999963,
      "v": 79
    },
    {
      "midi": 85,
      "hit": false,
      "t": 105436.72824999997,
      "d": 428.5709999999963,
      "v": 75
    },
    {
      "midi": 83,
      "hit": false,
      "t": 105865.29924999997,
      "d": 428.5709999999963,
      "v": 73
    },
    {
      "midi": 62,
      "hit": false,
      "t": 105865.29924999997,
      "d": 857.1419999999925,
      "v": 88
    },
    {
      "midi": 59,
      "hit": false,
      "t": 105865.29924999997,
      "d": 857.1419999999925,
      "v": 88
    },
    {
      "midi": 76,
      "hit": false,
      "t": 106293.87024999996,
      "d": 428.5709999999963,
      "v": 58
    },
    {
      "midi": 47,
      "hit": false,
      "t": 106722.44124999996,
      "d": 428.5709999999963,
      "v": 69
    },
    {
      "midi": 73,
      "hit": false,
      "t": 106722.44124999996,
      "d": 857.1419999999925,
      "v": 90
    },
    {
      "midi": 78,
      "hit": false,
      "t": 106722.44124999996,
      "d": 3428.5679999999993,
      "v": 76
    },
    {
      "midi": 57,
      "hit": false,
      "t": 107151.01224999996,
      "d": 428.5709999999963,
      "v": 80
    },
    {
      "midi": 64,
      "hit": false,
      "t": 107579.58324999995,
      "d": 857.1420000000071,
      "v": 90
    },
    {
      "midi": 61,
      "hit": false,
      "t": 107579.58324999995,
      "d": 857.1420000000071,
      "v": 90
    },
    {
      "midi": 69,
      "hit": false,
      "t": 107579.58324999995,
      "d": 857.1420000000071,
      "v": 69
    },
    {
      "midi": 59,
      "hit": false,
      "t": 108436.72524999996,
      "d": 1714.2839999999997,
      "v": 71
    },
    {
      "midi": 56,
      "hit": false,
      "t": 108436.72524999996,
      "d": 1714.2839999999997,
      "v": 71
    },
    {
      "midi": 47,
      "hit": false,
      "t": 108436.72524999996,
      "d": 1714.2839999999997,
      "v": 71
    },
    {
      "midi": 68,
      "hit": false,
      "t": 108436.72524999996,
      "d": 1714.2839999999997,
      "v": 69
    },
    {
      "midi": 64,
      "hit": false,
      "t": 108436.72524999996,
      "d": 1714.2839999999997,
      "v": 69
    },
    {
      "midi": 47,
      "hit": false,
      "t": 110151.00924999996,
      "d": 428.5709999999963,
      "v": 68
    },
    {
      "midi": 66,
      "hit": false,
      "t": 110151.00924999996,
      "d": 428.5709999999963,
      "v": 56
    },
    {
      "midi": 62,
      "hit": false,
      "t": 110151.00924999996,
      "d": 428.5709999999963,
      "v": 56
    },
    {
      "midi": 54,
      "hit": false,
      "t": 110579.58024999996,
      "d": 428.5709999999963,
      "v": 76
    },
    {
      "midi": 78,
      "hit": false,
      "t": 110579.58024999996,
      "d": 428.5709999999963,
      "v": 96
    },
    {
      "midi": 83,
      "hit": false,
      "t": 111008.15124999995,
      "d": 428.5709999999963,
      "v": 87
    },
    {
      "midi": 78,
      "hit": false,
      "t": 111008.15124999995,
      "d": 428.5709999999963,
      "v": 87
    },
    {
      "midi": 71,
      "hit": false,
      "t": 111008.15124999995,
      "d": 428.5709999999963,
      "v": 87
    },
    {
      "midi": 62,
      "hit": false,
      "t": 111008.15124999995,
      "d": 857.1419999999925,
      "v": 88
    },
    {
      "midi": 59,
      "hit": false,
      "t": 111008.15124999995,
      "d": 857.1419999999925,
      "v": 88
    },
    {
      "midi": 85,
      "hit": false,
      "t": 111436.72224999995,
      "d": 428.5709999999963,
      "v": 80
    },
    {
      "midi": 47,
      "hit": false,
      "t": 111865.29324999994,
      "d": 428.5709999999963,
      "v": 69
    },
    {
      "midi": 86,
      "hit": false,
      "t": 111865.29324999994,
      "d": 428.5709999999963,
      "v": 79
    },
    {
      "midi": 79,
      "hit": false,
      "t": 111865.29324999994,
      "d": 428.5709999999963,
      "v": 79
    },
    {
      "midi": 74,
      "hit": false,
      "t": 111865.29324999994,
      "d": 428.5709999999963,
      "v": 79
    },
    {
      "midi": 55,
      "hit": false,
      "t": 112293.86424999994,
      "d": 428.5709999999963,
      "v": 82
    },
    {
      "midi": 85,
      "hit": false,
      "t": 112293.86424999994,
      "d": 428.5709999999963,
      "v": 70
    },
    {
      "midi": 83,
      "hit": false,
      "t": 112722.43524999994,
      "d": 642.8564999999944,
      "v": 73
    },
    {
      "midi": 62,
      "hit": false,
      "t": 112722.43524999994,
      "d": 857.1419999999925,
      "v": 93
    },
    {
      "midi": 59,
      "hit": false,
      "t": 112722.43524999994,
      "d": 857.1419999999925,
      "v": 93
    },
    {
      "midi": 86,
      "hit": false,
      "t": 113365.29174999993,
      "d": 214.28549999999814,
      "v": 82
    },
    {
      "midi": 47,
      "hit": false,
      "t": 113579.57724999993,
      "d": 428.5709999999963,
      "v": 67
    },
    {
      "midi": 73,
      "hit": false,
      "t": 113579.57724999993,
      "d": 857.1419999999925,
      "v": 87
    },
    {
      "midi": 78,
      "hit": false,
      "t": 113579.57724999993,
      "d": 1714.2839999999997,
      "v": 77
    },
    {
      "midi": 85,
      "hit": false,
      "t": 113579.57724999993,
      "d": 2142.854999999996,
      "v": 77
    },
    {
      "midi": 57,
      "hit": false,
      "t": 114008.14824999993,
      "d": 428.5709999999963,
      "v": 86
    },
    {
      "midi": 64,
      "hit": false,
      "t": 114436.71924999992,
      "d": 857.1420000000071,
      "v": 92
    },
    {
      "midi": 61,
      "hit": false,
      "t": 114436.71924999992,
      "d": 857.1420000000071,
      "v": 92
    },
    {
      "midi": 69,
      "hit": false,
      "t": 114436.71924999992,
      "d": 857.1420000000071,
      "v": 71
    },
    {
      "midi": 59,
      "hit": false,
      "t": 115293.86124999993,
      "d": 1714.283999999985,
      "v": 73
    },
    {
      "midi": 56,
      "hit": false,
      "t": 115293.86124999993,
      "d": 1714.283999999985,
      "v": 73
    },
    {
      "midi": 47,
      "hit": false,
      "t": 115293.86124999993,
      "d": 1714.283999999985,
      "v": 73
    },
    {
      "midi": 68,
      "hit": false,
      "t": 115293.86124999993,
      "d": 1714.283999999985,
      "v": 85
    },
    {
      "midi": 64,
      "hit": false,
      "t": 115293.86124999993,
      "d": 1714.283999999985,
      "v": 85
    },
    {
      "midi": 83,
      "hit": false,
      "t": 115722.43224999993,
      "d": 428.5709999999963,
      "v": 74
    },
    {
      "midi": 71,
      "hit": false,
      "t": 115722.43224999993,
      "d": 428.5709999999963,
      "v": 74
    },
    {
      "midi": 80,
      "hit": false,
      "t": 116151.00324999992,
      "d": 428.5709999999963,
      "v": 64
    },
    {
      "midi": 76,
      "hit": false,
      "t": 116579.57424999992,
      "d": 428.5709999999963,
      "v": 66
    },
    {
      "midi": 52,
      "hit": false,
      "t": 117008.14524999991,
      "d": 428.5709999999963,
      "v": 70
    },
    {
      "midi": 36,
      "hit": false,
      "t": 117008.14524999991,
      "d": 428.5709999999963,
      "v": 70
    },
    {
      "midi": 59,
      "hit": false,
      "t": 117008.14524999991,
      "d": 753.3474609374971,
      "v": 76
    },
    {
      "midi": 64,
      "hit": false,
      "t": 117008.14524999991,
      "d": 1714.283999999985,
      "v": 58
    },
    {
      "midi": 43,
      "hit": false,
      "t": 117436.71624999991,
      "d": 1285.7129999999888,
      "v": 68
    },
    {
      "midi": 57,
      "hit": false,
      "t": 117865.2872499999,
      "d": 428.5709999999963,
      "v": 72
    },
    {
      "midi": 62,
      "hit": false,
      "t": 118293.8582499999,
      "d": 428.5709999999963,
      "v": 84
    },
    {
      "midi": 54,
      "hit": false,
      "t": 118722.4292499999,
      "d": 428.5709999999963,
      "v": 85
    },
    {
      "midi": 38,
      "hit": false,
      "t": 118722.4292499999,
      "d": 428.5709999999963,
      "v": 85
    },
    {
      "midi": 59,
      "hit": false,
      "t": 118722.4292499999,
      "d": 753.3474609374971,
      "v": 87
    },
    {
      "midi": 45,
      "hit": false,
      "t": 119151.0002499999,
      "d": 1285.7129999999888,
      "v": 69
    },
    {
      "midi": 57,
      "hit": false,
      "t": 119579.57124999989,
      "d": 214.28549999999814,
      "v": 75
    },
    {
      "midi": 59,
      "hit": false,
      "t": 119793.85674999989,
      "d": 214.28549999999814,
      "v": 78
    },
    {
      "midi": 62,
      "hit": false,
      "t": 120008.14224999989,
      "d": 214.28549999999814,
      "v": 79
    },
    {
      "midi": 64,
      "hit": false,
      "t": 120222.42774999989,
      "d": 214.28549999999814,
      "v": 82
    },
    {
      "midi": 40,
      "hit": false,
      "t": 120436.71324999988,
      "d": 428.5709999999963,
      "v": 67
    },
    {
      "midi": 66,
      "hit": false,
      "t": 120436.71324999988,
      "d": 857.1419999999925,
      "v": 83
    },
    {
      "midi": 59,
      "hit": false,
      "t": 120436.71324999988,
      "d": 857.1419999999925,
      "v": 83
    },
    {
      "midi": 47,
      "hit": false,
      "t": 120865.28424999988,
      "d": 428.5709999999963,
      "v": 82
    },
    {
      "midi": 64,
      "hit": false,
      "t": 121293.85524999988,
      "d": 428.5709999999963,
      "v": 72
    },
    {
      "midi": 52,
      "hit": false,
      "t": 121293.85524999988,
      "d": 857.1419999999925,
      "v": 81
    },
    {
      "midi": 57,
      "hit": false,
      "t": 121293.85524999988,
      "d": 857.1419999999925,
      "v": 66
    },
    {
      "midi": 62,
      "hit": false,
      "t": 121722.42624999987,
      "d": 428.5709999999963,
      "v": 67
    },
    {
      "midi": 59,
      "hit": false,
      "t": 122150.99724999987,
      "d": 1714.2840000000142,
      "v": 72
    },
    {
      "midi": 56,
      "hit": false,
      "t": 122150.99724999987,
      "d": 1714.2840000000142,
      "v": 72
    },
    {
      "midi": 52,
      "hit": false,
      "t": 123008.13924999988,
      "d": 857.1420000000071,
      "v": 78
    },
    {
      "midi": 36,
      "hit": false,
      "t": 123865.28124999988,
      "d": 428.5709999999963,
      "v": 66
    },
    {
      "midi": 57,
      "hit": false,
      "t": 124293.85224999988,
      "d": 374.99962499999674,
      "v": 76
    },
    {
      "midi": 43,
      "hit": false,
      "t": 124293.85224999988,
      "d": 428.5709999999963,
      "v": 82
    },
    {
      "midi": 59,
      "hit": false,
      "t": 124722.42324999988,
      "d": 374.99962499999674,
      "v": 87
    },
    {
      "midi": 52,
      "hit": false,
      "t": 124722.42324999988,
      "d": 857.1419999999925,
      "v": 83
    },
    {
      "midi": 62,
      "hit": false,
      "t": 125150.99424999987,
      "d": 374.99962499999674,
      "v": 93
    },
    {
      "midi": 67,
      "hit": false,
      "t": 125150.99424999987,
      "d": 428.5709999999963,
      "v": 93
    },
    {
      "midi": 38,
      "hit": false,
      "t": 125579.56524999987,
      "d": 428.5709999999963,
      "v": 62
    },
    {
      "midi": 59,
      "hit": false,
      "t": 125579.56524999987,
      "d": 753.3474609374971,
      "v": 87
    },
    {
      "midi": 66,
      "hit": false,
      "t": 125579.56524999987,
      "d": 857.1419999999925,
      "v": 71
    },
    {
      "midi": 45,
      "hit": false,
      "t": 126008.13624999986,
      "d": 428.5709999999963,
      "v": 76
    },
    {
      "midi": 57,
      "hit": false,
      "t": 126436.70724999986,
      "d": 753.3474609374971,
      "v": 90
    },
    {
      "midi": 54,
      "hit": false,
      "t": 126436.70724999986,
      "d": 857.1419999999925,
      "v": 83
    },
    {
      "midi": 62,
      "hit": false,
      "t": 126436.70724999986,
      "d": 857.1419999999925,
      "v": 66
    },
    {
      "midi": 40,
      "hit": false,
      "t": 127293.84924999985,
      "d": 428.5709999999963,
      "v": 66
    },
    {
      "midi": 47,
      "hit": false,
      "t": 127722.42024999985,
      "d": 428.5709999999963,
      "v": 82
    },
    {
      "midi": 83,
      "hit": false,
      "t": 127722.42024999985,
      "d": 428.5709999999963,
      "v": 71
    },
    {
      "midi": 76,
      "hit": false,
      "t": 127722.42024999985,
      "d": 428.5709999999963,
      "v": 71
    },
    {
      "midi": 52,
      "hit": false,
      "t": 128150.99124999985,
      "d": 428.5709999999963,
      "v": 82
    },
    {
      "midi": 80,
      "hit": false,
      "t": 128150.99124999985,
      "d": 428.5709999999963,
      "v": 68
    },
    {
      "midi": 71,
      "hit": false,
      "t": 128150.99124999985,
      "d": 428.5709999999963,
      "v": 68
    },
    {
      "midi": 56,
      "hit": false,
      "t": 128579.56224999984,
      "d": 428.5709999999963,
      "v": 76
    },
    {
      "midi": 76,
      "hit": false,
      "t": 128579.56224999984,
      "d": 428.5709999999963,
      "v": 62
    },
    {
      "midi": 68,
      "hit": false,
      "t": 128579.56224999984,
      "d": 428.5709999999963,
      "v": 62
    },
    {
      "midi": 59,
      "hit": false,
      "t": 129008.13324999984,
      "d": 428.5709999999963,
      "v": 81
    },
    {
      "midi": 64,
      "hit": false,
      "t": 129148.75810937484,
      "d": 143.9730703124951,
      "v": 68
    },
    {
      "midi": 66,
      "hit": false,
      "t": 129292.73117968734,
      "d": 143.9730703124951,
      "v": 80
    },
    {
      "midi": 68,
      "hit": false,
      "t": 129436.70424999984,
      "d": 140.62485937500605,
      "v": 80
    },
    {
      "midi": 56,
      "hit": false,
      "t": 129436.70424999984,
      "d": 428.5709999999963,
      "v": 74
    },
    {
      "midi": 69,
      "hit": false,
      "t": 129577.32910937484,
      "d": 143.9730703124951,
      "v": 78
    },
    {
      "midi": 71,
      "hit": false,
      "t": 129721.30217968734,
      "d": 143.9730703124951,
      "v": 81
    },
    {
      "midi": 73,
      "hit": false,
      "t": 129865.27524999983,
      "d": 140.62485937500605,
      "v": 83
    },
    {
      "midi": 64,
      "hit": false,
      "t": 129865.27524999983,
      "d": 428.5709999999963,
      "v": 88
    },
    {
      "midi": 74,
      "hit": false,
      "t": 130005.90010937484,
      "d": 143.9730703124951,
      "v": 81
    },
    {
      "midi": 76,
      "hit": false,
      "t": 130149.87317968733,
      "d": 143.9730703124951,
      "v": 79
    },
    {
      "midi": 78,
      "hit": false,
      "t": 130293.84624999983,
      "d": 140.62485937500605,
      "v": 76
    },
    {
      "midi": 59,
      "hit": false,
      "t": 130293.84624999983,
      "d": 428.5709999999963,
      "v": 71
    },
    {
      "midi": 80,
      "hit": false,
      "t": 130434.47110937483,
      "d": 143.9730703124951,
      "v": 81
    },
    {
      "midi": 81,
      "hit": false,
      "t": 130578.44417968733,
      "d": 143.9730703124951,
      "v": 78
    },
    {
      "midi": 43,
      "hit": false,
      "t": 130722.41724999982,
      "d": 374.99962499999674,
      "v": 78
    },
    {
      "midi": 31,
      "hit": false,
      "t": 130722.41724999982,
      "d": 374.99962499999674,
      "v": 78
    },
    {
      "midi": 83,
      "hit": false,
      "t": 130722.41724999982,
      "d": 1285.7129999999888,
      "v": 82
    },
    {
      "midi": 78,
      "hit": false,
      "t": 130722.41724999982,
      "d": 1285.7129999999888,
      "v": 82
    },
    {
      "midi": 74,
      "hit": false,
      "t": 130722.41724999982,
      "d": 1285.7129999999888,
      "v": 82
    },
    {
      "midi": 71,
      "hit": false,
      "t": 130722.41724999982,
      "d": 1285.7129999999888,
      "v": 82
    },
    {
      "midi": 50,
      "hit": false,
      "t": 131150.98824999982,
      "d": 428.5709999999963,
      "v": 77
    },
    {
      "midi": 59,
      "hit": false,
      "t": 131579.55924999982,
      "d": 428.5709999999963,
      "v": 83
    },
    {
      "midi": 55,
      "hit": false,
      "t": 132008.1302499998,
      "d": 428.5709999999963,
      "v": 70
    },
    {
      "midi": 78,
      "hit": false,
      "t": 132008.1302499998,
      "d": 428.5709999999963,
      "v": 66
    },
    {
      "midi": 43,
      "hit": false,
      "t": 132436.7012499998,
      "d": 374.99962499999674,
      "v": 76
    },
    {
      "midi": 31,
      "hit": false,
      "t": 132436.7012499998,
      "d": 374.99962499999674,
      "v": 76
    },
    {
      "midi": 76,
      "hit": false,
      "t": 132436.7012499998,
      "d": 857.1419999999925,
      "v": 74
    },
    {
      "midi": 73,
      "hit": false,
      "t": 132436.7012499998,
      "d": 857.1419999999925,
      "v": 74
    },
    {
      "midi": 69,
      "hit": false,
      "t": 132436.7012499998,
      "d": 857.1419999999925,
      "v": 74
    },
    {
      "midi": 64,
      "hit": false,
      "t": 132436.7012499998,
      "d": 857.1419999999925,
      "v": 74
    },
    {
      "midi": 52,
      "hit": false,
      "t": 132865.2722499998,
      "d": 428.5709999999963,
      "v": 82
    },
    {
      "midi": 61,
      "hit": false,
      "t": 133293.8432499998,
      "d": 428.5709999999963,
      "v": 92
    },
    {
      "midi": 81,
      "hit": false,
      "t": 133293.8432499998,
      "d": 857.1419999999925,
      "v": 88
    },
    {
      "midi": 57,
      "hit": false,
      "t": 133722.4142499998,
      "d": 428.5709999999963,
      "v": 74
    },
    {
      "midi": 43,
      "hit": false,
      "t": 134150.9852499998,
      "d": 374.99962499999674,
      "v": 80
    },
    {
      "midi": 31,
      "hit": false,
      "t": 134150.9852499998,
      "d": 374.99962499999674,
      "v": 80
    },
    {
      "midi": 78,
      "hit": false,
      "t": 134150.9852499998,
      "d": 857.1419999999925,
      "v": 74
    },
    {
      "midi": 74,
      "hit": false,
      "t": 134150.9852499998,
      "d": 857.1419999999925,
      "v": 74
    },
    {
      "midi": 71,
      "hit": false,
      "t": 134150.9852499998,
      "d": 857.1419999999925,
      "v": 74
    },
    {
      "midi": 66,
      "hit": false,
      "t": 134150.9852499998,
      "d": 857.1419999999925,
      "v": 74
    },
    {
      "midi": 54,
      "hit": false,
      "t": 134579.5562499998,
      "d": 428.5709999999963,
      "v": 81
    },
    {
      "midi": 62,
      "hit": false,
      "t": 135008.1272499998,
      "d": 428.5709999999963,
      "v": 97
    },
    {
      "midi": 83,
      "hit": false,
      "t": 135008.1272499998,
      "d": 857.1419999999925,
      "v": 85
    },
    {
      "midi": 59,
      "hit": false,
      "t": 135436.69824999978,
      "d": 428.5709999999963,
      "v": 74
    },
    {
      "midi": 43,
      "hit": false,
      "t": 135865.26924999978,
      "d": 374.99962499999674,
      "v": 73
    },
    {
      "midi": 31,
      "hit": false,
      "t": 135865.26924999978,
      "d": 374.99962499999674,
      "v": 73
    },
    {
      "midi": 81,
      "hit": false,
      "t": 135865.26924999978,
      "d": 1285.7129999999888,
      "v": 80
    },
    {
      "midi": 76,
      "hit": false,
      "t": 135865.26924999978,
      "d": 1285.7129999999888,
      "v": 80
    },
    {
      "midi": 73,
      "hit": false,
      "t": 135865.26924999978,
      "d": 1285.7129999999888,
      "v": 80
    },
    {
      "midi": 69,
      "hit": false,
      "t": 135865.26924999978,
      "d": 1285.7129999999888,
      "v": 80
    },
    {
      "midi": 52,
      "hit": false,
      "t": 136293.84024999978,
      "d": 428.5709999999963,
      "v": 81
    },
    {
      "midi": 61,
      "hit": false,
      "t": 136722.41124999977,
      "d": 428.5709999999963,
      "v": 92
    },
    {
      "midi": 57,
      "hit": false,
      "t": 137150.98224999977,
      "d": 428.5709999999963,
      "v": 75
    },
    {
      "midi": 78,
      "hit": false,
      "t": 137150.98224999977,
      "d": 428.5709999999963,
      "v": 69
    },
    {
      "midi": 42,
      "hit": false,
      "t": 137579.55324999976,
      "d": 374.99962499999674,
      "v": 79
    },
    {
      "midi": 30,
      "hit": false,
      "t": 137579.55324999976,
      "d": 374.99962499999674,
      "v": 79
    },
    {
      "midi": 85,
      "hit": false,
      "t": 137579.55324999976,
      "d": 428.5709999999963,
      "v": 86
    },
    {
      "midi": 81,
      "hit": false,
      "t": 137579.55324999976,
      "d": 428.5709999999963,
      "v": 86
    },
    {
      "midi": 76,
      "hit": false,
      "t": 137579.55324999976,
      "d": 428.5709999999963,
      "v": 86
    },
    {
      "midi": 73,
      "hit": false,
      "t": 137579.55324999976,
      "d": 428.5709999999963,
      "v": 86
    },
    {
      "midi": 52,
      "hit": false,
      "t": 138008.12424999976,
      "d": 428.5709999999963,
      "v": 85
    },
    {
      "midi": 86,
      "hit": false,
      "t": 138008.12424999976,
      "d": 428.5709999999963,
      "v": 80
    },
    {
      "midi": 83,
      "hit": false,
      "t": 138008.12424999976,
      "d": 428.5709999999963,
      "v": 80
    },
    {
      "midi": 61,
      "hit": false,
      "t": 138436.69524999976,
      "d": 428.5709999999963,
      "v": 95
    },
    {
      "midi": 85,
      "hit": false,
      "t": 138436.69524999976,
      "d": 428.5709999999963,
      "v": 76
    },
    {
      "midi": 81,
      "hit": false,
      "t": 138436.69524999976,
      "d": 428.5709999999963,
      "v": 76
    },
    {
      "midi": 57,
      "hit": false,
      "t": 138865.26624999975,
      "d": 428.5709999999963,
      "v": 76
    },
    {
      "midi": 86,
      "hit": false,
      "t": 138865.26624999975,
      "d": 428.5709999999963,
      "v": 82
    },
    {
      "midi": 83,
      "hit": false,
      "t": 138865.26624999975,
      "d": 428.5709999999963,
      "v": 82
    },
    {
      "midi": 42,
      "hit": false,
      "t": 139293.83724999975,
      "d": 374.99962499999674,
      "v": 80
    },
    {
      "midi": 30,
      "hit": false,
      "t": 139293.83724999975,
      "d": 374.99962499999674,
      "v": 80
    },
    {
      "midi": 85,
      "hit": false,
      "t": 139293.83724999975,
      "d": 428.5709999999963,
      "v": 74
    },
    {
      "midi": 81,
      "hit": false,
      "t": 139293.83724999975,
      "d": 428.5709999999963,
      "v": 74
    },
    {
      "midi": 76,
      "hit": false,
      "t": 139293.83724999975,
      "d": 428.5709999999963,
      "v": 74
    },
    {
      "midi": 73,
      "hit": false,
      "t": 139293.83724999975,
      "d": 428.5709999999963,
      "v": 74
    },
    {
      "midi": 49,
      "hit": false,
      "t": 139722.40824999975,
      "d": 428.5709999999963,
      "v": 80
    },
    {
      "midi": 81,
      "hit": false,
      "t": 139722.40824999975,
      "d": 857.1419999999925,
      "v": 66
    },
    {
      "midi": 78,
      "hit": false,
      "t": 139722.40824999975,
      "d": 857.1419999999925,
      "v": 66
    },
    {
      "midi": 73,
      "hit": false,
      "t": 139722.40824999975,
      "d": 857.1419999999925,
      "v": 66
    },
    {
      "midi": 69,
      "hit": false,
      "t": 139722.40824999975,
      "d": 857.1419999999925,
      "v": 66
    },
    {
      "midi": 57,
      "hit": false,
      "t": 140150.97924999974,
      "d": 428.5709999999963,
      "v": 78
    },
    {
      "midi": 52,
      "hit": false,
      "t": 140579.55024999974,
      "d": 428.5709999999963,
      "v": 74
    },
    {
      "midi": 76,
      "hit": false,
      "t": 140579.55024999974,
      "d": 428.5709999999963,
      "v": 67
    },
    {
      "midi": 47,
      "hit": false,
      "t": 141008.12124999973,
      "d": 374.99962499999674,
      "v": 84
    },
    {
      "midi": 35,
      "hit": false,
      "t": 141008.12124999973,
      "d": 374.99962499999674,
      "v": 84
    },
    {
      "midi": 74,
      "hit": false,
      "t": 141008.12124999973,
      "d": 428.5709999999963,
      "v": 94
    },
    {
      "midi": 71,
      "hit": false,
      "t": 141008.12124999973,
      "d": 428.5709999999963,
      "v": 94
    },
    {
      "midi": 66,
      "hit": false,
      "t": 141008.12124999973,
      "d": 428.5709999999963,
      "v": 94
    },
    {
      "midi": 78,
      "hit": false,
      "t": 141008.12124999973,
      "d": 2571.4259999999776,
      "v": 74
    },
    {
      "midi": 54,
      "hit": false,
      "t": 141436.69224999973,
      "d": 428.5709999999963,
      "v": 79
    },
    {
      "midi": 98,
      "hit": false,
      "t": 141436.69224999973,
      "d": 428.5709999999963,
      "v": 100
    },
    {
      "midi": 86,
      "hit": false,
      "t": 141436.69224999973,
      "d": 428.5709999999963,
      "v": 100
    },
    {
      "midi": 61,
      "hit": false,
      "t": 141865.26324999973,
      "d": 214.28549999999814,
      "v": 95
    },
    {
      "midi": 97,
      "hit": false,
      "t": 141865.26324999973,
      "d": 428.5709999999963,
      "v": 76
    },
    {
      "midi": 85,
      "hit": false,
      "t": 141865.26324999973,
      "d": 428.5709999999963,
      "v": 76
    },
    {
      "midi": 62,
      "hit": false,
      "t": 142079.54874999973,
      "d": 214.28549999999814,
      "v": 81
    },
    {
      "midi": 64,
      "hit": false,
      "t": 142293.83424999972,
      "d": 428.5709999999963,
      "v": 87
    },
    {
      "midi": 100,
      "hit": false,
      "t": 142293.83424999972,
      "d": 428.5709999999963,
      "v": 81
    },
    {
      "midi": 88,
      "hit": false,
      "t": 142293.83424999972,
      "d": 428.5709999999963,
      "v": 81
    },
    {
      "midi": 98,
      "hit": false,
      "t": 142722.40524999972,
      "d": 214.28549999999814,
      "v": 72
    },
    {
      "midi": 86,
      "hit": false,
      "t": 142722.40524999972,
      "d": 214.28549999999814,
      "v": 72
    },
    {
      "midi": 45,
      "hit": false,
      "t": 142722.40524999972,
      "d": 374.99962499999674,
      "v": 79
    },
    {
      "midi": 33,
      "hit": false,
      "t": 142722.40524999972,
      "d": 374.99962499999674,
      "v": 79
    },
    {
      "midi": 97,
      "hit": false,
      "t": 142936.69074999972,
      "d": 214.28549999999814,
      "v": 73
    },
    {
      "midi": 85,
      "hit": false,
      "t": 142936.69074999972,
      "d": 214.28549999999814,
      "v": 73
    },
    {
      "midi": 54,
      "hit": false,
      "t": 143150.97624999972,
      "d": 428.5709999999963,
      "v": 82
    },
    {
      "midi": 95,
      "hit": false,
      "t": 143150.97624999972,
      "d": 428.5709999999963,
      "v": 71
    },
    {
      "midi": 83,
      "hit": false,
      "t": 143150.97624999972,
      "d": 428.5709999999963,
      "v": 71
    },
    {
      "midi": 74,
      "hit": false,
      "t": 143579.5472499997,
      "d": 187.49981249999837,
      "v": 81
    },
    {
      "midi": 61,
      "hit": false,
      "t": 143579.5472499997,
      "d": 428.5709999999963,
      "v": 88
    },
    {
      "midi": 76,
      "hit": false,
      "t": 143793.8327499997,
      "d": 187.49981249999837,
      "v": 87
    },
    {
      "midi": 78,
      "hit": false,
      "t": 144008.1182499997,
      "d": 187.49981249999837,
      "v": 89
    },
    {
      "midi": 57,
      "hit": false,
      "t": 144008.1182499997,
      "d": 428.5709999999963,
      "v": 72
    },
    {
      "midi": 81,
      "hit": false,
      "t": 144222.4037499997,
      "d": 187.49981249999837,
      "v": 91
    },
    {
      "midi": 43,
      "hit": false,
      "t": 144436.6892499997,
      "d": 374.99962499999674,
      "v": 76
    },
    {
      "midi": 31,
      "hit": false,
      "t": 144436.6892499997,
      "d": 374.99962499999674,
      "v": 76
    },
    {
      "midi": 83,
      "hit": false,
      "t": 144436.6892499997,
      "d": 1285.7129999999888,
      "v": 84
    },
    {
      "midi": 78,
      "hit": false,
      "t": 144436.6892499997,
      "d": 1285.7129999999888,
      "v": 84
    },
    {
      "midi": 74,
      "hit": false,
      "t": 144436.6892499997,
      "d": 1285.7129999999888,
      "v": 84
    },
    {
      "midi": 71,
      "hit": false,
      "t": 144436.6892499997,
      "d": 1285.7129999999888,
      "v": 84
    },
    {
      "midi": 50,
      "hit": false,
      "t": 144865.2602499997,
      "d": 428.5709999999963,
      "v": 81
    },
    {
      "midi": 59,
      "hit": false,
      "t": 145293.8312499997,
      "d": 428.5709999999963,
      "v": 83
    },
    {
      "midi": 55,
      "hit": false,
      "t": 145722.4022499997,
      "d": 428.5709999999963,
      "v": 72
    },
    {
      "midi": 78,
      "hit": false,
      "t": 145722.4022499997,
      "d": 428.5709999999963,
      "v": 63
    },
    {
      "midi": 43,
      "hit": false,
      "t": 146150.9732499997,
      "d": 374.99962499999674,
      "v": 77
    },
    {
      "midi": 31,
      "hit": false,
      "t": 146150.9732499997,
      "d": 374.99962499999674,
      "v": 77
    },
    {
      "midi": 76,
      "hit": false,
      "t": 146150.9732499997,
      "d": 857.1419999999925,
      "v": 70
    },
    {
      "midi": 73,
      "hit": false,
      "t": 146150.9732499997,
      "d": 857.1419999999925,
      "v": 70
    },
    {
      "midi": 69,
      "hit": false,
      "t": 146150.9732499997,
      "d": 857.1419999999925,
      "v": 70
    },
    {
      "midi": 64,
      "hit": false,
      "t": 146150.9732499997,
      "d": 857.1419999999925,
      "v": 70
    },
    {
      "midi": 52,
      "hit": false,
      "t": 146579.5442499997,
      "d": 428.5709999999963,
      "v": 80
    },
    {
      "midi": 61,
      "hit": false,
      "t": 147008.11524999968,
      "d": 428.5709999999963,
      "v": 95
    },
    {
      "midi": 81,
      "hit": false,
      "t": 147008.11524999968,
      "d": 857.1419999999925,
      "v": 84
    },
    {
      "midi": 57,
      "hit": false,
      "t": 147436.68624999968,
      "d": 428.5709999999963,
      "v": 80
    },
    {
      "midi": 43,
      "hit": false,
      "t": 147865.25724999967,
      "d": 374.99962499999674,
      "v": 81
    },
    {
      "midi": 31,
      "hit": false,
      "t": 147865.25724999967,
      "d": 374.99962499999674,
      "v": 81
    },
    {
      "midi": 78,
      "hit": false,
      "t": 147865.25724999967,
      "d": 857.1419999999925,
      "v": 70
    },
    {
      "midi": 74,
      "hit": false,
      "t": 147865.25724999967,
      "d": 857.1419999999925,
      "v": 70
    },
    {
      "midi": 71,
      "hit": false,
      "t": 147865.25724999967,
      "d": 857.1419999999925,
      "v": 70
    },
    {
      "midi": 66,
      "hit": false,
      "t": 147865.25724999967,
      "d": 857.1419999999925,
      "v": 70
    },
    {
      "midi": 54,
      "hit": false,
      "t": 148293.82824999967,
      "d": 428.5709999999963,
      "v": 87
    },
    {
      "midi": 62,
      "hit": false,
      "t": 148722.39924999967,
      "d": 428.5709999999963,
      "v": 93
    },
    {
      "midi": 83,
      "hit": false,
      "t": 148722.39924999967,
      "d": 857.1419999999925,
      "v": 83
    },
    {
      "midi": 59,
      "hit": false,
      "t": 149150.97024999966,
      "d": 428.5709999999963,
      "v": 78
    },
    {
      "midi": 43,
      "hit": false,
      "t": 149579.54124999966,
      "d": 374.99962499999674,
      "v": 78
    },
    {
      "midi": 31,
      "hit": false,
      "t": 149579.54124999966,
      "d": 374.99962499999674,
      "v": 78
    },
    {
      "midi": 85,
      "hit": false,
      "t": 149579.54124999966,
      "d": 428.5709999999963,
      "v": 82
    },
    {
      "midi": 81,
      "hit": false,
      "t": 149579.54124999966,
      "d": 428.5709999999963,
      "v": 82
    },
    {
      "midi": 76,
      "hit": false,
      "t": 149579.54124999966,
      "d": 428.5709999999963,
      "v": 82
    },
    {
      "midi": 73,
      "hit": false,
      "t": 149579.54124999966,
      "d": 428.5709999999963,
      "v": 82
    },
    {
      "midi": 52,
      "hit": false,
      "t": 150008.11224999966,
      "d": 428.5709999999963,
      "v": 83
    },
    {
      "midi": 73,
      "hit": false,
      "t": 150148.73710937466,
      "d": 143.9730703124951,
      "v": 70
    },
    {
      "midi": 74,
      "hit": false,
      "t": 150292.71017968716,
      "d": 143.9730703124951,
      "v": 75
    },
    {
      "midi": 76,
      "hit": false,
      "t": 150436.68324999965,
      "d": 140.62485937500605,
      "v": 81
    },
    {
      "midi": 61,
      "hit": false,
      "t": 150436.68324999965,
      "d": 428.5709999999963,
      "v": 92
    },
    {
      "midi": 78,
      "hit": false,
      "t": 150577.30810937466,
      "d": 143.9730703124951,
      "v": 81
    },
    {
      "midi": 79,
      "hit": false,
      "t": 150721.28117968715,
      "d": 143.9730703124951,
      "v": 82
    },
    {
      "midi": 81,
      "hit": false,
      "t": 150865.25424999965,
      "d": 140.62485937500605,
      "v": 80
    },
    {
      "midi": 57,
      "hit": false,
      "t": 150865.25424999965,
      "d": 428.5709999999963,
      "v": 79
    },
    {
      "midi": 83,
      "hit": false,
      "t": 151005.87910937465,
      "d": 143.9730703124951,
      "v": 79
    },
    {
      "midi": 85,
      "hit": false,
      "t": 151149.85217968715,
      "d": 143.9730703124951,
      "v": 82
    },
    {
      "midi": 62,
      "hit": false,
      "t": 151293.82524999965,
      "d": 428.5709999999963,
      "v": 84
    },
    {
      "midi": 55,
      "hit": false,
      "t": 151293.82524999965,
      "d": 428.5709999999963,
      "v": 84
    },
    {
      "midi": 48,
      "hit": false,
      "t": 151293.82524999965,
      "d": 428.5709999999963,
      "v": 84
    },
    {
      "midi": 86,
      "hit": false,
      "t": 151293.82524999965,
      "d": 428.5709999999963,
      "v": 80
    },
    {
      "midi": 79,
      "hit": false,
      "t": 151293.82524999965,
      "d": 428.5709999999963,
      "v": 80
    },
    {
      "midi": 76,
      "hit": false,
      "t": 151293.82524999965,
      "d": 428.5709999999963,
      "v": 80
    },
    {
      "midi": 74,
      "hit": false,
      "t": 151293.82524999965,
      "d": 428.5709999999963,
      "v": 80
    },
    {
      "midi": 84,
      "hit": false,
      "t": 151722.39624999964,
      "d": 428.5709999999963,
      "v": 66
    },
    {
      "midi": 79,
      "hit": false,
      "t": 151722.39624999964,
      "d": 428.5709999999963,
      "v": 66
    },
    {
      "midi": 76,
      "hit": false,
      "t": 151722.39624999964,
      "d": 428.5709999999963,
      "v": 66
    },
    {
      "midi": 72,
      "hit": false,
      "t": 151722.39624999964,
      "d": 428.5709999999963,
      "v": 66
    },
    {
      "midi": 43,
      "hit": false,
      "t": 151722.39624999964,
      "d": 753.3474609374825,
      "v": 73
    },
    {
      "midi": 84,
      "hit": false,
      "t": 152150.96724999964,
      "d": 428.5709999999963,
      "v": 78
    },
    {
      "midi": 79,
      "hit": false,
      "t": 152150.96724999964,
      "d": 428.5709999999963,
      "v": 78
    },
    {
      "midi": 76,
      "hit": false,
      "t": 152150.96724999964,
      "d": 428.5709999999963,
      "v": 78
    },
    {
      "midi": 72,
      "hit": false,
      "t": 152150.96724999964,
      "d": 428.5709999999963,
      "v": 78
    },
    {
      "midi": 83,
      "hit": false,
      "t": 152579.53824999963,
      "d": 428.5709999999963,
      "v": 74
    },
    {
      "midi": 79,
      "hit": false,
      "t": 152579.53824999963,
      "d": 428.5709999999963,
      "v": 74
    },
    {
      "midi": 76,
      "hit": false,
      "t": 152579.53824999963,
      "d": 428.5709999999963,
      "v": 74
    },
    {
      "midi": 71,
      "hit": false,
      "t": 152579.53824999963,
      "d": 428.5709999999963,
      "v": 74
    },
    {
      "midi": 55,
      "hit": false,
      "t": 152579.53824999963,
      "d": 857.1419999999925,
      "v": 85
    },
    {
      "midi": 48,
      "hit": false,
      "t": 152579.53824999963,
      "d": 857.1419999999925,
      "v": 85
    },
    {
      "midi": 40,
      "hit": false,
      "t": 152579.53824999963,
      "d": 857.1419999999925,
      "v": 85
    },
    {
      "midi": 83,
      "hit": false,
      "t": 153008.10924999963,
      "d": 428.5709999999963,
      "v": 75
    },
    {
      "midi": 79,
      "hit": false,
      "t": 153008.10924999963,
      "d": 428.5709999999963,
      "v": 75
    },
    {
      "midi": 76,
      "hit": false,
      "t": 153008.10924999963,
      "d": 428.5709999999963,
      "v": 75
    },
    {
      "midi": 71,
      "hit": false,
      "t": 153008.10924999963,
      "d": 428.5709999999963,
      "v": 75
    },
    {
      "midi": 48,
      "hit": false,
      "t": 153436.68024999963,
      "d": 428.5709999999963,
      "v": 75
    },
    {
      "midi": 36,
      "hit": false,
      "t": 153436.68024999963,
      "d": 428.5709999999963,
      "v": 75
    },
    {
      "midi": 81,
      "hit": false,
      "t": 153436.68024999963,
      "d": 857.1419999999925,
      "v": 69
    },
    {
      "midi": 79,
      "hit": false,
      "t": 153436.68024999963,
      "d": 857.1419999999925,
      "v": 69
    },
    {
      "midi": 76,
      "hit": false,
      "t": 153436.68024999963,
      "d": 857.1419999999925,
      "v": 69
    },
    {
      "midi": 69,
      "hit": false,
      "t": 153436.68024999963,
      "d": 857.1419999999925,
      "v": 69
    },
    {
      "midi": 48,
      "hit": false,
      "t": 153865.25124999962,
      "d": 187.49981249999837,
      "v": 87
    },
    {
      "midi": 36,
      "hit": false,
      "t": 153865.25124999962,
      "d": 187.49981249999837,
      "v": 87
    },
    {
      "midi": 47,
      "hit": false,
      "t": 154079.53674999962,
      "d": 187.49981249999837,
      "v": 84
    },
    {
      "midi": 35,
      "hit": false,
      "t": 154079.53674999962,
      "d": 187.49981249999837,
      "v": 84
    },
    {
      "midi": 79,
      "hit": false,
      "t": 154293.82224999962,
      "d": 187.49981249999837,
      "v": 86
    },
    {
      "midi": 67,
      "hit": false,
      "t": 154293.82224999962,
      "d": 187.49981249999837,
      "v": 86
    },
    {
      "midi": 45,
      "hit": false,
      "t": 154293.82224999962,
      "d": 374.99962499999674,
      "v": 86
    },
    {
      "midi": 33,
      "hit": false,
      "t": 154293.82224999962,
      "d": 374.99962499999674,
      "v": 86
    },
    {
      "midi": 81,
      "hit": false,
      "t": 154508.10774999962,
      "d": 187.49981249999837,
      "v": 92
    },
    {
      "midi": 69,
      "hit": false,
      "t": 154508.10774999962,
      "d": 187.49981249999837,
      "v": 92
    },
    {
      "midi": 47,
      "hit": false,
      "t": 154722.39324999962,
      "d": 374.99962499999674,
      "v": 91
    },
    {
      "midi": 35,
      "hit": false,
      "t": 154722.39324999962,
      "d": 374.99962499999674,
      "v": 91
    },
    {
      "midi": 78,
      "hit": false,
      "t": 154722.39324999962,
      "d": 3428.56799999997,
      "v": 83
    },
    {
      "midi": 74,
      "hit": false,
      "t": 154722.39324999962,
      "d": 3428.56799999997,
      "v": 83
    },
    {
      "midi": 71,
      "hit": false,
      "t": 154722.39324999962,
      "d": 3428.56799999997,
      "v": 83
    },
    {
      "midi": 54,
      "hit": false,
      "t": 155150.9642499996,
      "d": 428.5709999999963,
      "v": 78
    },
    {
      "midi": 95,
      "hit": false,
      "t": 155150.9642499996,
      "d": 428.5709999999963,
      "v": 70
    },
    {
      "midi": 62,
      "hit": false,
      "t": 155579.5352499996,
      "d": 428.5709999999963,
      "v": 90
    },
    {
      "midi": 86,
      "hit": false,
      "t": 155579.5352499996,
      "d": 428.5709999999963,
      "v": 58
    },
    {
      "midi": 83,
      "hit": false,
      "t": 155579.5352499996,
      "d": 428.5709999999963,
      "v": 58
    },
    {
      "midi": 54,
      "hit": false,
      "t": 156008.1062499996,
      "d": 428.5709999999963,
      "v": 75
    },
    {
      "midi": 88,
      "hit": false,
      "t": 156008.1062499996,
      "d": 428.5709999999963,
      "v": 77
    },
    {
      "midi": 61,
      "hit": false,
      "t": 156436.6772499996,
      "d": 428.5709999999963,
      "v": 89
    },
    {
      "midi": 85,
      "hit": false,
      "t": 156436.6772499996,
      "d": 428.5709999999963,
      "v": 70
    },
    {
      "midi": 81,
      "hit": false,
      "t": 156436.6772499996,
      "d": 428.5709999999963,
      "v": 70
    },
    {
      "midi": 54,
      "hit": false,
      "t": 156865.2482499996,
      "d": 428.5709999999963,
      "v": 73
    },
    {
      "midi": 86,
      "hit": false,
      "t": 156865.2482499996,
      "d": 428.5709999999963,
      "v": 78
    },
    {
      "midi": 64,
      "hit": false,
      "t": 157293.8192499996,
      "d": 428.5709999999963,
      "v": 94
    },
    {
      "midi": 85,
      "hit": false,
      "t": 157293.8192499996,
      "d": 428.5709999999963,
      "v": 69
    },
    {
      "midi": 61,
      "hit": false,
      "t": 157722.3902499996,
      "d": 428.5709999999963,
      "v": 72
    },
    {
      "midi": 81,
      "hit": false,
      "t": 157722.3902499996,
      "d": 428.5709999999963,
      "v": 64
    },
    {
      "midi": 74,
      "hit": false,
      "t": 158150.9612499996,
      "d": 428.5709999999963,
      "v": 61
    },
    {
      "midi": 67,
      "hit": false,
      "t": 158150.9612499996,
      "d": 857.1419999999925,
      "v": 74
    },
    {
      "midi": 64,
      "hit": false,
      "t": 158150.9612499996,
      "d": 857.1419999999925,
      "v": 74
    },
    {
      "midi": 52,
      "hit": false,
      "t": 158150.9612499996,
      "d": 1714.283999999985,
      "v": 69
    },
    {
      "midi": 43,
      "hit": false,
      "t": 158150.9612499996,
      "d": 1714.283999999985,
      "v": 69
    },
    {
      "midi": 36,
      "hit": false,
      "t": 158150.9612499996,
      "d": 1714.283999999985,
      "v": 69
    },
    {
      "midi": 72,
      "hit": false,
      "t": 158579.53224999958,
      "d": 428.5709999999963,
      "v": 67
    },
    {
      "midi": 72,
      "hit": false,
      "t": 159008.10324999958,
      "d": 428.5709999999963,
      "v": 71
    },
    {
      "midi": 67,
      "hit": false,
      "t": 159008.10324999958,
      "d": 857.1419999999925,
      "v": 75
    },
    {
      "midi": 62,
      "hit": false,
      "t": 159008.10324999958,
      "d": 857.1419999999925,
      "v": 75
    },
    {
      "midi": 71,
      "hit": false,
      "t": 159436.67424999957,
      "d": 428.5709999999963,
      "v": 71
    },
    {
      "midi": 71,
      "hit": false,
      "t": 159865.24524999957,
      "d": 428.5709999999963,
      "v": 80
    },
    {
      "midi": 55,
      "hit": false,
      "t": 159865.24524999957,
      "d": 857.1419999999925,
      "v": 81
    },
    {
      "midi": 48,
      "hit": false,
      "t": 159865.24524999957,
      "d": 1714.283999999985,
      "v": 64
    },
    {
      "midi": 64,
      "hit": false,
      "t": 159865.24524999957,
      "d": 1714.283999999985,
      "v": 70
    },
    {
      "midi": 60,
      "hit": false,
      "t": 159865.24524999957,
      "d": 1714.283999999985,
      "v": 70
    },
    {
      "midi": 69,
      "hit": false,
      "t": 160293.81624999957,
      "d": 857.1419999999925,
      "v": 69
    },
    {
      "midi": 57,
      "hit": false,
      "t": 160722.38724999956,
      "d": 857.1419999999925,
      "v": 76
    },
    {
      "midi": 71,
      "hit": false,
      "t": 161150.95824999956,
      "d": 214.28549999999814,
      "v": 82
    },
    {
      "midi": 72,
      "hit": false,
      "t": 161365.24374999956,
      "d": 214.28549999999814,
      "v": 81
    },
    {
      "midi": 40,
      "hit": false,
      "t": 161579.52924999956,
      "d": 428.5709999999963,
      "v": 67
    },
    {
      "midi": 64,
      "hit": false,
      "t": 161579.52924999956,
      "d": 428.5709999999963,
      "v": 73
    },
    {
      "midi": 71,
      "hit": false,
      "t": 161579.52924999956,
      "d": 1285.7129999999888,
      "v": 72
    },
    {
      "midi": 47,
      "hit": false,
      "t": 162008.10024999955,
      "d": 428.5709999999963,
      "v": 80
    },
    {
      "midi": 54,
      "hit": false,
      "t": 162008.10024999955,
      "d": 1285.7129999999888,
      "v": 71
    },
    {
      "midi": 56,
      "hit": false,
      "t": 162436.67124999955,
      "d": 428.5709999999963,
      "v": 82
    },
    {
      "midi": 59,
      "hit": false,
      "t": 162865.24224999954,
      "d": 428.5709999999963,
      "v": 81
    },
    {
      "midi": 66,
      "hit": false,
      "t": 162865.24224999954,
      "d": 428.5709999999963,
      "v": 62
    },
    {
      "midi": 68,
      "hit": false,
      "t": 163293.81324999954,
      "d": 857.1419999999925,
      "v": 75
    },
    {
      "midi": 64,
      "hit": false,
      "t": 163293.81324999954,
      "d": 2749.998499999987,
      "v": 90
    },
    {
      "midi": 80,
      "hit": false,
      "t": 164150.95524999953,
      "d": 1892.8564999999944,
      "v": 92
    },
    {
      "midi": 78,
      "hit": false,
      "t": 166043.81174999953,
      "d": 576.9230000000098,
      "v": 76
    },
    {
      "midi": 66,
      "hit": false,
      "t": 166043.81174999953,
      "d": 2307.692000000039,
      "v": 83
    },
    {
      "midi": 59,
      "hit": false,
      "t": 166043.81174999953,
      "d": 2307.692000000039,
      "v": 83
    },
    {
      "midi": 74,
      "hit": false,
      "t": 166043.81174999953,
      "d": 2307.692000000039,
      "v": 96
    },
    {
      "midi": 79,
      "hit": false,
      "t": 166620.73474999954,
      "d": 576.9230000000098,
      "v": 80
    },
    {
      "midi": 77,
      "hit": false,
      "t": 167197.65774999955,
      "d": 576.9230000000098,
      "v": 69
    },
    {
      "midi": 78,
      "hit": false,
      "t": 167774.58074999956,
      "d": 576.9230000000098,
      "v": 80
    },
    {
      "midi": 78,
      "hit": false,
      "t": 168351.50374999957,
      "d": 865.3844999999856,
      "v": 74
    },
    {
      "midi": 66,
      "hit": false,
      "t": 168351.50374999957,
      "d": 2307.691999999952,
      "v": 76
    },
    {
      "midi": 58,
      "hit": false,
      "t": 168351.50374999957,
      "d": 2307.691999999952,
      "v": 76
    },
    {
      "midi": 73,
      "hit": false,
      "t": 168351.50374999957,
      "d": 2307.691999999952,
      "v": 75
    },
    {
      "midi": 79,
      "hit": false,
      "t": 169216.88824999955,
      "d": 671.5744296874909,
      "v": 75
    },
    {
      "midi": 77,
      "hit": false,
      "t": 169888.46267968704,
      "d": 383.11292968748603,
      "v": 71
    },
    {
      "midi": 78,
      "hit": false,
      "t": 170271.57560937453,
      "d": 387.6201406249893,
      "v": 78
    },
    {
      "midi": 78,
      "hit": false,
      "t": 170659.19574999952,
      "d": 576.9230000000098,
      "v": 76
    },
    {
      "midi": 66,
      "hit": false,
      "t": 170659.19574999952,
      "d": 2307.692000000039,
      "v": 81
    },
    {
      "midi": 57,
      "hit": false,
      "t": 170659.19574999952,
      "d": 2307.692000000039,
      "v": 81
    },
    {
      "midi": 72,
      "hit": false,
      "t": 170659.19574999952,
      "d": 2307.692000000039,
      "v": 75
    },
    {
      "midi": 79,
      "hit": false,
      "t": 171236.11874999953,
      "d": 576.9230000000098,
      "v": 81
    },
    {
      "midi": 77,
      "hit": false,
      "t": 171813.04174999954,
      "d": 576.9230000000098,
      "v": 71
    },
    {
      "midi": 78,
      "hit": false,
      "t": 172389.96474999955,
      "d": 576.9230000000098,
      "v": 79
    },
    {
      "midi": 78,
      "hit": false,
      "t": 172966.88774999956,
      "d": 982.5719843750121,
      "v": 74
    },
    {
      "midi": 66,
      "hit": false,
      "t": 172966.88774999956,
      "d": 2307.692000000039,
      "v": 73
    },
    {
      "midi": 56,
      "hit": false,
      "t": 172966.88774999956,
      "d": 2307.692000000039,
      "v": 73
    },
    {
      "midi": 76,
      "hit": false,
      "t": 173949.45973437457,
      "d": 54.08653125001001,
      "v": 71
    },
    {
      "midi": 74,
      "hit": false,
      "t": 174003.54626562458,
      "d": 58.59374218751327,
      "v": 68
    },
    {
      "midi": 73,
      "hit": false,
      "t": 174062.1400078121,
      "d": 58.59374218751327,
      "v": 71
    },
    {
      "midi": 71,
      "hit": false,
      "t": 174120.7337499996,
      "d": 1153.8459999999905,
      "v": 72
    },
    {
      "midi": 76,
      "hit": false,
      "t": 175274.5797499996,
      "d": 865.3844999999856,
      "v": 87
    },
    {
      "midi": 64,
      "hit": false,
      "t": 175274.5797499996,
      "d": 2307.691999999952,
      "v": 70
    },
    {
      "midi": 55,
      "hit": false,
      "t": 175274.5797499996,
      "d": 2307.691999999952,
      "v": 70
    },
    {
      "midi": 71,
      "hit": false,
      "t": 175274.5797499996,
      "d": 2307.691999999952,
      "v": 74
    },
    {
      "midi": 78,
      "hit": false,
      "t": 176139.96424999958,
      "d": 671.5744296874909,
      "v": 85
    },
    {
      "midi": 75,
      "hit": false,
      "t": 176811.53867968707,
      "d": 383.11292968748603,
      "v": 69
    },
    {
      "midi": 76,
      "hit": false,
      "t": 177194.65160937456,
      "d": 387.6201406249893,
      "v": 79
    },
    {
      "midi": 76,
      "hit": false,
      "t": 177582.27174999955,
      "d": 576.9230000000098,
      "v": 74
    },
    {
      "midi": 64,
      "hit": false,
      "t": 177582.27174999955,
      "d": 2307.692000000039,
      "v": 76
    },
    {
      "midi": 54,
      "hit": false,
      "t": 177582.27174999955,
      "d": 2307.692000000039,
      "v": 76
    },
    {
      "midi": 70,
      "hit": false,
      "t": 177582.27174999955,
      "d": 2307.692000000039,
      "v": 72
    },
    {
      "midi": 78,
      "hit": false,
      "t": 178159.19474999956,
      "d": 576.9230000000098,
      "v": 81
    },
    {
      "midi": 75,
      "hit": false,
      "t": 178736.11774999957,
      "d": 576.9230000000098,
      "v": 74
    },
    {
      "midi": 76,
      "hit": false,
      "t": 179313.04074999958,
      "d": 576.9230000000098,
      "v": 78
    },
    {
      "midi": 76,
      "hit": false,
      "t": 179889.9637499996,
      "d": 576.9230000000098,
      "v": 76
    },
    {
      "midi": 64,
      "hit": false,
      "t": 179889.9637499996,
      "d": 1153.8460000000196,
      "v": 72
    },
    {
      "midi": 55,
      "hit": false,
      "t": 179889.9637499996,
      "d": 1153.8460000000196,
      "v": 72
    },
    {
      "midi": 71,
      "hit": false,
      "t": 179889.9637499996,
      "d": 1153.8460000000196,
      "v": 76
    },
    {
      "midi": 74,
      "hit": false,
      "t": 180466.8867499996,
      "d": 576.9230000000098,
      "v": 71
    },
    {
      "midi": 76,
      "hit": false,
      "t": 181043.8097499996,
      "d": 576.9230000000098,
      "v": 82
    },
    {
      "midi": 62,
      "hit": false,
      "t": 181043.8097499996,
      "d": 1153.8460000000196,
      "v": 72
    },
    {
      "midi": 54,
      "hit": false,
      "t": 181043.8097499996,
      "d": 1153.8460000000196,
      "v": 72
    },
    {
      "midi": 71,
      "hit": false,
      "t": 181043.8097499996,
      "d": 1153.8460000000196,
      "v": 75
    },
    {
      "midi": 78,
      "hit": false,
      "t": 181620.73274999962,
      "d": 576.9230000000098,
      "v": 81
    },
    {
      "midi": 76,
      "hit": false,
      "t": 182197.65574999963,
      "d": 576.9230000000098,
      "v": 69
    },
    {
      "midi": 62,
      "hit": false,
      "t": 182197.65574999963,
      "d": 1153.8459999999614,
      "v": 72
    },
    {
      "midi": 56,
      "hit": false,
      "t": 182197.65574999963,
      "d": 1153.8459999999614,
      "v": 72
    },
    {
      "midi": 74,
      "hit": false,
      "t": 182774.57874999964,
      "d": 144.2307499999879,
      "v": 70
    },
    {
      "midi": 76,
      "hit": false,
      "t": 182918.80949999962,
      "d": 144.2307499999879,
      "v": 76
    },
    {
      "midi": 74,
      "hit": false,
      "t": 183063.0402499996,
      "d": 144.2307499999879,
      "v": 74
    },
    {
      "midi": 71,
      "hit": false,
      "t": 183207.2709999996,
      "d": 144.2307499999879,
      "v": 70
    },
    {
      "midi": 73,
      "hit": false,
      "t": 183351.5017499996,
      "d": 288.4615000000049,
      "v": 78
    },
    {
      "midi": 61,
      "hit": false,
      "t": 183351.5017499996,
      "d": 1153.8460000000196,
      "v": 71
    },
    {
      "midi": 58,
      "hit": false,
      "t": 183351.5017499996,
      "d": 1153.8460000000196,
      "v": 71
    },
    {
      "midi": 66,
      "hit": false,
      "t": 183351.5017499996,
      "d": 1153.8460000000196,
      "v": 65
    },
    {
      "midi": 70,
      "hit": false,
      "t": 183639.9632499996,
      "d": 288.4615000000049,
      "v": 70
    },
    {
      "midi": 71,
      "hit": false,
      "t": 183928.4247499996,
      "d": 288.4615000000049,
      "v": 76
    },
    {
      "midi": 73,
      "hit": false,
      "t": 184216.8862499996,
      "d": 288.4615000000049,
      "v": 79
    },
    {
      "midi": 74,
      "hit": false,
      "t": 184505.3477499996,
      "d": 383.11292968748603,
      "v": 79
    },
    {
      "midi": 62,
      "hit": false,
      "t": 184505.3477499996,
      "d": 2307.6919999999227,
      "v": 76
    },
    {
      "midi": 54,
      "hit": false,
      "t": 184505.3477499996,
      "d": 2307.6919999999227,
      "v": 76
    },
    {
      "midi": 47,
      "hit": false,
      "t": 184505.3477499996,
      "d": 2307.6919999999227,
      "v": 76
    },
    {
      "midi": 71,
      "hit": false,
      "t": 184505.3477499996,
      "d": 2307.6919999999227,
      "v": 81
    },
    {
      "midi": 78,
      "hit": false,
      "t": 184888.4606796871,
      "d": 383.11292968748603,
      "v": 81
    },
    {
      "midi": 79,
      "hit": false,
      "t": 185271.57360937458,
      "d": 387.6201406249893,
      "v": 82
    },
    {
      "midi": 77,
      "hit": false,
      "t": 185659.19374999957,
      "d": 383.11292968748603,
      "v": 75
    },
    {
      "midi": 78,
      "hit": false,
      "t": 186042.30667968706,
      "d": 383.11292968748603,
      "v": 80
    },
    {
      "midi": 78,
      "hit": false,
      "t": 186425.41960937454,
      "d": 387.6201406249893,
      "v": 76
    },
    {
      "midi": 78,
      "hit": false,
      "t": 186813.03974999953,
      "d": 576.9230000000098,
      "v": 74
    },
    {
      "midi": 61,
      "hit": false,
      "t": 186813.03974999953,
      "d": 2307.692000000039,
      "v": 69
    },
    {
      "midi": 54,
      "hit": false,
      "t": 186813.03974999953,
      "d": 2307.692000000039,
      "v": 69
    },
    {
      "midi": 46,
      "hit": false,
      "t": 186813.03974999953,
      "d": 2307.692000000039,
      "v": 69
    },
    {
      "midi": 73,
      "hit": false,
      "t": 186813.03974999953,
      "d": 2307.692000000039,
      "v": 81
    },
    {
      "midi": 79,
      "hit": false,
      "t": 187389.96274999954,
      "d": 576.9230000000098,
      "v": 78
    },
    {
      "midi": 77,
      "hit": false,
      "t": 187966.88574999955,
      "d": 576.9230000000098,
      "v": 67
    },
    {
      "midi": 78,
      "hit": false,
      "t": 188543.80874999956,
      "d": 576.9230000000098,
      "v": 83
    },
    {
      "midi": 90,
      "hit": false,
      "t": 189120.73174999957,
      "d": 383.11292968748603,
      "v": 97
    },
    {
      "midi": 84,
      "hit": false,
      "t": 189120.73174999957,
      "d": 383.11292968748603,
      "v": 97
    },
    {
      "midi": 78,
      "hit": false,
      "t": 189120.73174999957,
      "d": 383.11292968748603,
      "v": 97
    },
    {
      "midi": 60,
      "hit": false,
      "t": 189120.73174999957,
      "d": 2307.6919999999227,
      "v": 76
    },
    {
      "midi": 54,
      "hit": false,
      "t": 189120.73174999957,
      "d": 2307.6919999999227,
      "v": 76
    },
    {
      "midi": 45,
      "hit": false,
      "t": 189120.73174999957,
      "d": 2307.6919999999227,
      "v": 76
    },
    {
      "midi": 91,
      "hit": false,
      "t": 189503.84467968706,
      "d": 383.11292968748603,
      "v": 84
    },
    {
      "midi": 79,
      "hit": false,
      "t": 189503.84467968706,
      "d": 383.11292968748603,
      "v": 84
    },
    {
      "midi": 89,
      "hit": false,
      "t": 189886.95760937454,
      "d": 387.6201406249893,
      "v": 75
    },
    {
      "midi": 77,
      "hit": false,
      "t": 189886.95760937454,
      "d": 387.6201406249893,
      "v": 75
    },
    {
      "midi": 90,
      "hit": false,
      "t": 190274.57774999953,
      "d": 383.11292968748603,
      "v": 74
    },
    {
      "midi": 84,
      "hit": false,
      "t": 190274.57774999953,
      "d": 383.11292968748603,
      "v": 74
    },
    {
      "midi": 78,
      "hit": false,
      "t": 190274.57774999953,
      "d": 383.11292968748603,
      "v": 74
    },
    {
      "midi": 91,
      "hit": false,
      "t": 190657.69067968702,
      "d": 383.11292968748603,
      "v": 77
    },
    {
      "midi": 79,
      "hit": false,
      "t": 190657.69067968702,
      "d": 383.11292968748603,
      "v": 77
    },
    {
      "midi": 91,
      "hit": false,
      "t": 191040.8036093745,
      "d": 387.6201406249893,
      "v": 74
    },
    {
      "midi": 79,
      "hit": false,
      "t": 191040.8036093745,
      "d": 387.6201406249893,
      "v": 74
    },
    {
      "midi": 90,
      "hit": false,
      "t": 191428.4237499995,
      "d": 865.3844999999856,
      "v": 71
    },
    {
      "midi": 83,
      "hit": false,
      "t": 191428.4237499995,
      "d": 865.3844999999856,
      "v": 71
    },
    {
      "midi": 78,
      "hit": false,
      "t": 191428.4237499995,
      "d": 865.3844999999856,
      "v": 71
    },
    {
      "midi": 59,
      "hit": false,
      "t": 191428.4237499995,
      "d": 2307.691999999952,
      "v": 78
    },
    {
      "midi": 52,
      "hit": false,
      "t": 191428.4237499995,
      "d": 2307.691999999952,
      "v": 78
    },
    {
      "midi": 44,
      "hit": false,
      "t": 191428.4237499995,
      "d": 2307.691999999952,
      "v": 78
    },
    {
      "midi": 88,
      "hit": false,
      "t": 192293.80824999948,
      "d": 144.2307499999879,
      "v": 74
    },
    {
      "midi": 76,
      "hit": false,
      "t": 192293.80824999948,
      "d": 144.2307499999879,
      "v": 74
    },
    {
      "midi": 86,
      "hit": false,
      "t": 192438.03899999947,
      "d": 144.2307499999879,
      "v": 74
    },
    {
      "midi": 74,
      "hit": false,
      "t": 192438.03899999947,
      "d": 144.2307499999879,
      "v": 74
    },
    {
      "midi": 83,
      "hit": false,
      "t": 192582.26974999945,
      "d": 1153.8459999999905,
      "v": 73
    },
    {
      "midi": 71,
      "hit": false,
      "t": 192582.26974999945,
      "d": 1153.8459999999905,
      "v": 73
    },
    {
      "midi": 88,
      "hit": false,
      "t": 193736.11574999944,
      "d": 865.3844999999856,
      "v": 84
    },
    {
      "midi": 76,
      "hit": false,
      "t": 193736.11574999944,
      "d": 865.3844999999856,
      "v": 84
    },
    {
      "midi": 59,
      "hit": false,
      "t": 193736.11574999944,
      "d": 1153.8459999999905,
      "v": 76
    },
    {
      "midi": 52,
      "hit": false,
      "t": 193736.11574999944,
      "d": 1153.8459999999905,
      "v": 76
    },
    {
      "midi": 43,
      "hit": false,
      "t": 193736.11574999944,
      "d": 1153.8459999999905,
      "v": 76
    },
    {
      "midi": 90,
      "hit": false,
      "t": 194601.50024999943,
      "d": 671.5744296874909,
      "v": 81
    },
    {
      "midi": 78,
      "hit": false,
      "t": 194601.50024999943,
      "d": 671.5744296874909,
      "v": 81
    },
    {
      "midi": 54,
      "hit": false,
      "t": 194889.96174999943,
      "d": 1014.1224609374767,
      "v": 84
    },
    {
      "midi": 42,
      "hit": false,
      "t": 194889.96174999943,
      "d": 1014.1224609374767,
      "v": 84
    },
    {
      "midi": 87,
      "hit": false,
      "t": 195273.07467968692,
      "d": 383.11292968748603,
      "v": 68
    },
    {
      "midi": 75,
      "hit": false,
      "t": 195273.07467968692,
      "d": 383.11292968748603,
      "v": 68
    },
    {
      "midi": 88,
      "hit": false,
      "t": 195656.1876093744,
      "d": 387.6201406250184,
      "v": 77
    },
    {
      "midi": 76,
      "hit": false,
      "t": 195656.1876093744,
      "d": 387.6201406250184,
      "v": 77
    },
    {
      "midi": 55,
      "hit": false,
      "t": 196043.80774999943,
      "d": 504.80762499998673,
      "v": 86
    },
    {
      "midi": 43,
      "hit": false,
      "t": 196043.80774999943,
      "d": 504.80762499998673,
      "v": 86
    },
    {
      "midi": 88,
      "hit": false,
      "t": 196043.80774999943,
      "d": 504.80762499998673,
      "v": 87
    },
    {
      "midi": 76,
      "hit": false,
      "t": 196043.80774999943,
      "d": 504.80762499998673,
      "v": 87
    },
    {
      "midi": 54,
      "hit": false,
      "t": 196620.7307499994,
      "d": 504.80762499998673,
      "v": 86
    },
    {
      "midi": 42,
      "hit": false,
      "t": 196620.7307499994,
      "d": 504.80762499998673,
      "v": 86
    },
    {
      "midi": 90,
      "hit": false,
      "t": 196620.7307499994,
      "d": 504.80762499998673,
      "v": 91
    },
    {
      "midi": 78,
      "hit": false,
      "t": 196620.7307499994,
      "d": 504.80762499998673,
      "v": 91
    },
    {
      "midi": 52,
      "hit": false,
      "t": 197197.6537499994,
      "d": 504.80762499998673,
      "v": 82
    },
    {
      "midi": 40,
      "hit": false,
      "t": 197197.6537499994,
      "d": 504.80762499998673,
      "v": 82
    },
    {
      "midi": 91,
      "hit": false,
      "t": 197197.6537499994,
      "d": 504.80762499998673,
      "v": 89
    },
    {
      "midi": 79,
      "hit": false,
      "t": 197197.6537499994,
      "d": 504.80762499998673,
      "v": 89
    },
    {
      "midi": 50,
      "hit": false,
      "t": 197774.57674999937,
      "d": 504.80762499998673,
      "v": 85
    },
    {
      "midi": 38,
      "hit": false,
      "t": 197774.57674999937,
      "d": 504.80762499998673,
      "v": 85
    },
    {
      "midi": 88,
      "hit": false,
      "t": 197774.57674999937,
      "d": 504.80762499998673,
      "v": 82
    },
    {
      "midi": 76,
      "hit": false,
      "t": 197774.57674999937,
      "d": 504.80762499998673,
      "v": 82
    },
    {
      "midi": 84,
      "hit": false,
      "t": 198351.49974999935,
      "d": 288.4615000000049,
      "v": 66
    },
    {
      "midi": 79,
      "hit": false,
      "t": 198351.49974999935,
      "d": 288.4615000000049,
      "v": 66
    },
    {
      "midi": 64,
      "hit": false,
      "t": 198351.49974999935,
      "d": 1153.8460000000196,
      "v": 94
    },
    {
      "midi": 55,
      "hit": false,
      "t": 198351.49974999935,
      "d": 1153.8460000000196,
      "v": 94
    },
    {
      "midi": 48,
      "hit": false,
      "t": 198351.49974999935,
      "d": 1153.8460000000196,
      "v": 94
    },
    {
      "midi": 88,
      "hit": false,
      "t": 198639.96124999935,
      "d": 288.4615000000049,
      "v": 82
    },
    {
      "midi": 84,
      "hit": false,
      "t": 198928.42274999936,
      "d": 288.4615000000049,
      "v": 75
    },
    {
      "midi": 79,
      "hit": false,
      "t": 199216.88424999936,
      "d": 288.4615000000049,
      "v": 69
    },
    {
      "midi": 77,
      "hit": false,
      "t": 199505.34574999937,
      "d": 288.4615000000049,
      "v": 72
    },
    {
      "midi": 69,
      "hit": false,
      "t": 199505.34574999937,
      "d": 288.4615000000049,
      "v": 72
    },
    {
      "midi": 60,
      "hit": false,
      "t": 199505.34574999937,
      "d": 1153.8460000000196,
      "v": 72
    },
    {
      "midi": 53,
      "hit": false,
      "t": 199505.34574999937,
      "d": 1153.8460000000196,
      "v": 72
    },
    {
      "midi": 72,
      "hit": false,
      "t": 199793.80724999937,
      "d": 288.4615000000049,
      "v": 68
    },
    {
      "midi": 77,
      "hit": false,
      "t": 200082.26874999938,
      "d": 288.4615000000049,
      "v": 87
    },
    {
      "midi": 81,
      "hit": false,
      "t": 200370.73024999938,
      "d": 288.4615000000049,
      "v": 89
    },
    {
      "midi": 78,
      "hit": false,
      "t": 200659.1917499994,
      "d": 288.4615000000049,
      "v": 68
    },
    {
      "midi": 73,
      "hit": false,
      "t": 200659.1917499994,
      "d": 288.4615000000049,
      "v": 68
    },
    {
      "midi": 61,
      "hit": false,
      "t": 200659.1917499994,
      "d": 1153.8460000000196,
      "v": 80
    },
    {
      "midi": 54,
      "hit": false,
      "t": 200659.1917499994,
      "d": 1153.8460000000196,
      "v": 80
    },
    {
      "midi": 46,
      "hit": false,
      "t": 200659.1917499994,
      "d": 1153.8460000000196,
      "v": 80
    },
    {
      "midi": 82,
      "hit": false,
      "t": 200947.6532499994,
      "d": 288.4615000000049,
      "v": 80
    },
    {
      "midi": 78,
      "hit": false,
      "t": 201236.1147499994,
      "d": 288.4615000000049,
      "v": 63
    },
    {
      "midi": 82,
      "hit": false,
      "t": 201524.5762499994,
      "d": 288.4615000000049,
      "v": 83
    },
    {
      "midi": 83,
      "hit": false,
      "t": 201813.0377499994,
      "d": 288.4615000000049,
      "v": 82
    },
    {
      "midi": 74,
      "hit": false,
      "t": 201813.0377499994,
      "d": 288.4615000000049,
      "v": 82
    },
    {
      "midi": 62,
      "hit": false,
      "t": 201813.0377499994,
      "d": 1153.8460000000196,
      "v": 78
    },
    {
      "midi": 54,
      "hit": false,
      "t": 201813.0377499994,
      "d": 1153.8460000000196,
      "v": 78
    },
    {
      "midi": 47,
      "hit": false,
      "t": 201813.0377499994,
      "d": 1153.8460000000196,
      "v": 78
    },
    {
      "midi": 78,
      "hit": false,
      "t": 202101.4992499994,
      "d": 288.4615000000049,
      "v": 63
    },
    {
      "midi": 74,
      "hit": false,
      "t": 202389.96074999942,
      "d": 288.4615000000049,
      "v": 66
    },
    {
      "midi": 71,
      "hit": false,
      "t": 202678.42224999942,
      "d": 288.4615000000049,
      "v": 67
    },
    {
      "midi": 72,
      "hit": false,
      "t": 202966.88374999943,
      "d": 288.4615000000049,
      "v": 80
    },
    {
      "midi": 67,
      "hit": false,
      "t": 202966.88374999943,
      "d": 288.4615000000049,
      "v": 80
    },
    {
      "midi": 52,
      "hit": false,
      "t": 202966.88374999943,
      "d": 1153.8460000000196,
      "v": 71
    },
    {
      "midi": 43,
      "hit": false,
      "t": 202966.88374999943,
      "d": 1153.8460000000196,
      "v": 71
    },
    {
      "midi": 36,
      "hit": false,
      "t": 202966.88374999943,
      "d": 1153.8460000000196,
      "v": 71
    },
    {
      "midi": 76,
      "hit": false,
      "t": 203255.34524999943,
      "d": 288.4615000000049,
      "v": 86
    },
    {
      "midi": 72,
      "hit": false,
      "t": 203543.80674999944,
      "d": 288.4615000000049,
      "v": 66
    },
    {
      "midi": 67,
      "hit": false,
      "t": 203832.26824999944,
      "d": 288.4615000000049,
      "v": 64
    },
    {
      "midi": 65,
      "hit": false,
      "t": 204120.72974999945,
      "d": 288.4615000000049,
      "v": 69
    },
    {
      "midi": 57,
      "hit": false,
      "t": 204120.72974999945,
      "d": 288.4615000000049,
      "v": 69
    },
    {
      "midi": 48,
      "hit": false,
      "t": 204120.72974999945,
      "d": 1153.8460000000196,
      "v": 74
    },
    {
      "midi": 41,
      "hit": false,
      "t": 204120.72974999945,
      "d": 1153.8460000000196,
      "v": 74
    },
    {
      "midi": 60,
      "hit": false,
      "t": 204409.19124999945,
      "d": 288.4615000000049,
      "v": 65
    },
    {
      "midi": 65,
      "hit": false,
      "t": 204697.65274999946,
      "d": 288.4615000000049,
      "v": 90
    },
    {
      "midi": 69,
      "hit": false,
      "t": 204986.11424999946,
      "d": 288.4615000000049,
      "v": 85
    },
    {
      "midi": 66,
      "hit": false,
      "t": 205274.57574999947,
      "d": 288.4615000000049,
      "v": 71
    },
    {
      "midi": 61,
      "hit": false,
      "t": 205274.57574999947,
      "d": 288.4615000000049,
      "v": 71
    },
    {
      "midi": 58,
      "hit": false,
      "t": 205274.57574999947,
      "d": 288.4615000000049,
      "v": 71
    },
    {
      "midi": 49,
      "hit": false,
      "t": 205274.57574999947,
      "d": 1153.8460000000196,
      "v": 77
    },
    {
      "midi": 42,
      "hit": false,
      "t": 205274.57574999947,
      "d": 1153.8460000000196,
      "v": 77
    },
    {
      "midi": 34,
      "hit": false,
      "t": 205274.57574999947,
      "d": 1153.8460000000196,
      "v": 77
    },
    {
      "midi": 70,
      "hit": false,
      "t": 205563.03724999947,
      "d": 288.4615000000049,
      "v": 83
    },
    {
      "midi": 66,
      "hit": false,
      "t": 205851.49874999947,
      "d": 288.4615000000049,
      "v": 69
    },
    {
      "midi": 70,
      "hit": false,
      "t": 206139.96024999948,
      "d": 288.4615000000049,
      "v": 82
    },
    {
      "midi": 64,
      "hit": false,
      "t": 206428.42174999948,
      "d": 1250,
      "v": 58
    },
    {
      "midi": 47,
      "hit": false,
      "t": 206428.42174999948,
      "d": 2500,
      "v": 80
    },
    {
      "midi": 35,
      "hit": false,
      "t": 206428.42174999948,
      "d": 2500,
      "v": 80
    },
    {
      "midi": 71,
      "hit": false,
      "t": 206428.42174999948,
      "d": 4038.461500000005,
      "v": 85
    },
    {
      "midi": 61,
      "hit": false,
      "t": 206428.42174999948,
      "d": 4038.461500000005,
      "v": 85
    },
    {
      "midi": 59,
      "hit": false,
      "t": 206428.42174999948,
      "d": 4038.461500000005,
      "v": 85
    },
    {
      "midi": 63,
      "hit": false,
      "t": 207678.42174999948,
      "d": 2788.461500000005,
      "v": 73
    },
    {
      "midi": 45,
      "hit": false,
      "t": 208928.42174999948,
      "d": 1538.461500000005,
      "v": 108
    },
    {
      "midi": 33,
      "hit": false,
      "t": 208928.42174999948,
      "d": 1538.461500000005,
      "v": 108
    },
    {
      "midi": 43,
      "hit": false,
      "t": 210466.8832499995,
      "d": 504.80762499998673,
      "v": 83
    },
    {
      "midi": 31,
      "hit": false,
      "t": 210466.8832499995,
      "d": 504.80762499998673,
      "v": 83
    },
    {
      "midi": 83,
      "hit": false,
      "t": 210466.8832499995,
      "d": 1730.7690000000002,
      "v": 96
    },
    {
      "midi": 78,
      "hit": false,
      "t": 210466.8832499995,
      "d": 1730.7690000000002,
      "v": 96
    },
    {
      "midi": 74,
      "hit": false,
      "t": 210466.8832499995,
      "d": 1730.7690000000002,
      "v": 96
    },
    {
      "midi": 71,
      "hit": false,
      "t": 210466.8832499995,
      "d": 1730.7690000000002,
      "v": 96
    },
    {
      "midi": 50,
      "hit": false,
      "t": 211043.80624999947,
      "d": 576.9230000000098,
      "v": 82
    },
    {
      "midi": 59,
      "hit": false,
      "t": 211620.72924999948,
      "d": 576.9230000000098,
      "v": 89
    },
    {
      "midi": 55,
      "hit": false,
      "t": 212197.6522499995,
      "d": 576.9230000000098,
      "v": 72
    },
    {
      "midi": 78,
      "hit": false,
      "t": 212197.6522499995,
      "d": 576.9230000000098,
      "v": 70
    },
    {
      "midi": 43,
      "hit": false,
      "t": 212774.5752499995,
      "d": 504.80762499998673,
      "v": 80
    },
    {
      "midi": 31,
      "hit": false,
      "t": 212774.5752499995,
      "d": 504.80762499998673,
      "v": 80
    },
    {
      "midi": 76,
      "hit": false,
      "t": 212774.5752499995,
      "d": 1153.8459999999905,
      "v": 70
    },
    {
      "midi": 73,
      "hit": false,
      "t": 212774.5752499995,
      "d": 1153.8459999999905,
      "v": 70
    },
    {
      "midi": 69,
      "hit": false,
      "t": 212774.5752499995,
      "d": 1153.8459999999905,
      "v": 70
    },
    {
      "midi": 64,
      "hit": false,
      "t": 212774.5752499995,
      "d": 1153.8459999999905,
      "v": 70
    },
    {
      "midi": 52,
      "hit": false,
      "t": 213351.49824999948,
      "d": 576.9230000000098,
      "v": 84
    },
    {
      "midi": 61,
      "hit": false,
      "t": 213928.4212499995,
      "d": 576.9230000000098,
      "v": 96
    },
    {
      "midi": 81,
      "hit": false,
      "t": 213928.4212499995,
      "d": 1153.8460000000196,
      "v": 88
    },
    {
      "midi": 57,
      "hit": false,
      "t": 214505.3442499995,
      "d": 576.9230000000098,
      "v": 75
    },
    {
      "midi": 43,
      "hit": false,
      "t": 215082.2672499995,
      "d": 504.80762499998673,
      "v": 79
    },
    {
      "midi": 31,
      "hit": false,
      "t": 215082.2672499995,
      "d": 504.80762499998673,
      "v": 79
    },
    {
      "midi": 78,
      "hit": false,
      "t": 215082.2672499995,
      "d": 1153.8459999999905,
      "v": 70
    },
    {
      "midi": 74,
      "hit": false,
      "t": 215082.2672499995,
      "d": 1153.8459999999905,
      "v": 70
    },
    {
      "midi": 71,
      "hit": false,
      "t": 215082.2672499995,
      "d": 1153.8459999999905,
      "v": 70
    },
    {
      "midi": 66,
      "hit": false,
      "t": 215082.2672499995,
      "d": 1153.8459999999905,
      "v": 70
    },
    {
      "midi": 54,
      "hit": false,
      "t": 215659.1902499995,
      "d": 576.9230000000098,
      "v": 85
    },
    {
      "midi": 62,
      "hit": false,
      "t": 216236.1132499995,
      "d": 576.9230000000098,
      "v": 91
    },
    {
      "midi": 83,
      "hit": false,
      "t": 216236.1132499995,
      "d": 1153.8460000000196,
      "v": 79
    },
    {
      "midi": 59,
      "hit": false,
      "t": 216813.0362499995,
      "d": 576.9230000000098,
      "v": 73
    },
    {
      "midi": 43,
      "hit": false,
      "t": 217389.95924999952,
      "d": 504.80762499998673,
      "v": 74
    },
    {
      "midi": 31,
      "hit": false,
      "t": 217389.95924999952,
      "d": 504.80762499998673,
      "v": 74
    },
    {
      "midi": 81,
      "hit": false,
      "t": 217389.95924999952,
      "d": 1730.7690000000002,
      "v": 72
    },
    {
      "midi": 76,
      "hit": false,
      "t": 217389.95924999952,
      "d": 1730.7690000000002,
      "v": 72
    },
    {
      "midi": 73,
      "hit": false,
      "t": 217389.95924999952,
      "d": 1730.7690000000002,
      "v": 72
    },
    {
      "midi": 69,
      "hit": false,
      "t": 217389.95924999952,
      "d": 1730.7690000000002,
      "v": 72
    },
    {
      "midi": 52,
      "hit": false,
      "t": 217966.8822499995,
      "d": 576.9230000000098,
      "v": 87
    },
    {
      "midi": 61,
      "hit": false,
      "t": 218543.8052499995,
      "d": 576.9230000000098,
      "v": 92
    },
    {
      "midi": 57,
      "hit": false,
      "t": 219120.72824999952,
      "d": 576.9230000000098,
      "v": 78
    },
    {
      "midi": 78,
      "hit": false,
      "t": 219120.72824999952,
      "d": 576.9230000000098,
      "v": 72
    },
    {
      "midi": 42,
      "hit": false,
      "t": 219697.65124999953,
      "d": 504.80762499998673,
      "v": 73
    },
    {
      "midi": 30,
      "hit": false,
      "t": 219697.65124999953,
      "d": 504.80762499998673,
      "v": 73
    },
    {
      "midi": 85,
      "hit": false,
      "t": 219697.65124999953,
      "d": 576.9229999999807,
      "v": 87
    },
    {
      "midi": 81,
      "hit": false,
      "t": 219697.65124999953,
      "d": 576.9229999999807,
      "v": 87
    },
    {
      "midi": 76,
      "hit": false,
      "t": 219697.65124999953,
      "d": 576.9229999999807,
      "v": 87
    },
    {
      "midi": 73,
      "hit": false,
      "t": 219697.65124999953,
      "d": 576.9229999999807,
      "v": 87
    },
    {
      "midi": 52,
      "hit": false,
      "t": 220274.5742499995,
      "d": 576.9230000000098,
      "v": 81
    },
    {
      "midi": 86,
      "hit": false,
      "t": 220274.5742499995,
      "d": 576.9230000000098,
      "v": 83
    },
    {
      "midi": 83,
      "hit": false,
      "t": 220274.5742499995,
      "d": 576.9230000000098,
      "v": 83
    },
    {
      "midi": 61,
      "hit": false,
      "t": 220851.49724999952,
      "d": 576.9230000000098,
      "v": 91
    },
    {
      "midi": 85,
      "hit": false,
      "t": 220851.49724999952,
      "d": 576.9230000000098,
      "v": 78
    },
    {
      "midi": 81,
      "hit": false,
      "t": 220851.49724999952,
      "d": 576.9230000000098,
      "v": 78
    },
    {
      "midi": 57,
      "hit": false,
      "t": 221428.42024999953,
      "d": 576.9230000000098,
      "v": 77
    },
    {
      "midi": 86,
      "hit": false,
      "t": 221428.42024999953,
      "d": 576.9230000000098,
      "v": 78
    },
    {
      "midi": 83,
      "hit": false,
      "t": 221428.42024999953,
      "d": 576.9230000000098,
      "v": 78
    },
    {
      "midi": 42,
      "hit": false,
      "t": 222005.34324999954,
      "d": 504.80762499998673,
      "v": 77
    },
    {
      "midi": 30,
      "hit": false,
      "t": 222005.34324999954,
      "d": 504.80762499998673,
      "v": 77
    },
    {
      "midi": 85,
      "hit": false,
      "t": 222005.34324999954,
      "d": 576.9229999999807,
      "v": 71
    },
    {
      "midi": 81,
      "hit": false,
      "t": 222005.34324999954,
      "d": 576.9229999999807,
      "v": 71
    },
    {
      "midi": 76,
      "hit": false,
      "t": 222005.34324999954,
      "d": 576.9229999999807,
      "v": 71
    },
    {
      "midi": 73,
      "hit": false,
      "t": 222005.34324999954,
      "d": 576.9229999999807,
      "v": 71
    },
    {
      "midi": 49,
      "hit": false,
      "t": 222582.26624999952,
      "d": 576.9230000000098,
      "v": 81
    },
    {
      "midi": 81,
      "hit": false,
      "t": 222582.26624999952,
      "d": 1153.8460000000196,
      "v": 66
    },
    {
      "midi": 78,
      "hit": false,
      "t": 222582.26624999952,
      "d": 1153.8460000000196,
      "v": 66
    },
    {
      "midi": 73,
      "hit": false,
      "t": 222582.26624999952,
      "d": 1153.8460000000196,
      "v": 66
    },
    {
      "midi": 69,
      "hit": false,
      "t": 222582.26624999952,
      "d": 1153.8460000000196,
      "v": 66
    },
    {
      "midi": 57,
      "hit": false,
      "t": 223159.18924999953,
      "d": 576.9230000000098,
      "v": 80
    },
    {
      "midi": 52,
      "hit": false,
      "t": 223736.11224999954,
      "d": 576.9230000000098,
      "v": 68
    },
    {
      "midi": 76,
      "hit": false,
      "t": 223736.11224999954,
      "d": 576.9230000000098,
      "v": 65
    },
    {
      "midi": 47,
      "hit": false,
      "t": 224313.03524999955,
      "d": 504.80762499998673,
      "v": 82
    },
    {
      "midi": 35,
      "hit": false,
      "t": 224313.03524999955,
      "d": 504.80762499998673,
      "v": 82
    },
    {
      "midi": 74,
      "hit": false,
      "t": 224313.03524999955,
      "d": 576.9229999999807,
      "v": 96
    },
    {
      "midi": 71,
      "hit": false,
      "t": 224313.03524999955,
      "d": 576.9229999999807,
      "v": 96
    },
    {
      "midi": 66,
      "hit": false,
      "t": 224313.03524999955,
      "d": 576.9229999999807,
      "v": 96
    },
    {
      "midi": 78,
      "hit": false,
      "t": 224313.03524999955,
      "d": 3461.5380000000296,
      "v": 79
    },
    {
      "midi": 54,
      "hit": false,
      "t": 224889.95824999953,
      "d": 576.9230000000098,
      "v": 83
    },
    {
      "midi": 98,
      "hit": false,
      "t": 224889.95824999953,
      "d": 576.9230000000098,
      "v": 98
    },
    {
      "midi": 86,
      "hit": false,
      "t": 224889.95824999953,
      "d": 576.9230000000098,
      "v": 98
    },
    {
      "midi": 61,
      "hit": false,
      "t": 225466.88124999954,
      "d": 288.4615000000049,
      "v": 89
    },
    {
      "midi": 97,
      "hit": false,
      "t": 225466.88124999954,
      "d": 576.9230000000098,
      "v": 75
    },
    {
      "midi": 85,
      "hit": false,
      "t": 225466.88124999954,
      "d": 576.9230000000098,
      "v": 75
    },
    {
      "midi": 62,
      "hit": false,
      "t": 225755.34274999955,
      "d": 288.4615000000049,
      "v": 81
    },
    {
      "midi": 64,
      "hit": false,
      "t": 226043.80424999955,
      "d": 576.9230000000098,
      "v": 77
    },
    {
      "midi": 100,
      "hit": false,
      "t": 226043.80424999955,
      "d": 576.9230000000098,
      "v": 81
    },
    {
      "midi": 88,
      "hit": false,
      "t": 226043.80424999955,
      "d": 576.9230000000098,
      "v": 81
    },
    {
      "midi": 98,
      "hit": false,
      "t": 226620.72724999956,
      "d": 288.4615000000049,
      "v": 72
    },
    {
      "midi": 86,
      "hit": false,
      "t": 226620.72724999956,
      "d": 288.4615000000049,
      "v": 72
    },
    {
      "midi": 45,
      "hit": false,
      "t": 226620.72724999956,
      "d": 504.80762500001583,
      "v": 76
    },
    {
      "midi": 33,
      "hit": false,
      "t": 226620.72724999956,
      "d": 504.80762500001583,
      "v": 76
    },
    {
      "midi": 97,
      "hit": false,
      "t": 226909.18874999956,
      "d": 288.4615000000049,
      "v": 75
    },
    {
      "midi": 85,
      "hit": false,
      "t": 226909.18874999956,
      "d": 288.4615000000049,
      "v": 75
    },
    {
      "midi": 54,
      "hit": false,
      "t": 227197.65024999957,
      "d": 576.9230000000098,
      "v": 80
    },
    {
      "midi": 95,
      "hit": false,
      "t": 227197.65024999957,
      "d": 576.9230000000098,
      "v": 71
    },
    {
      "midi": 83,
      "hit": false,
      "t": 227197.65024999957,
      "d": 576.9230000000098,
      "v": 71
    },
    {
      "midi": 74,
      "hit": false,
      "t": 227774.57324999958,
      "d": 252.40381250000792,
      "v": 81
    },
    {
      "midi": 61,
      "hit": false,
      "t": 227774.57324999958,
      "d": 576.9230000000098,
      "v": 91
    },
    {
      "midi": 76,
      "hit": false,
      "t": 228063.03474999958,
      "d": 252.40381250000792,
      "v": 93
    },
    {
      "midi": 78,
      "hit": false,
      "t": 228351.4962499996,
      "d": 252.40381250000792,
      "v": 92
    },
    {
      "midi": 57,
      "hit": false,
      "t": 228351.4962499996,
      "d": 576.9230000000098,
      "v": 72
    },
    {
      "midi": 81,
      "hit": false,
      "t": 228639.9577499996,
      "d": 252.40381250000792,
      "v": 96
    },
    {
      "midi": 43,
      "hit": false,
      "t": 228928.4192499996,
      "d": 504.80762499998673,
      "v": 74
    },
    {
      "midi": 31,
      "hit": false,
      "t": 228928.4192499996,
      "d": 504.80762499998673,
      "v": 74
    },
    {
      "midi": 83,
      "hit": false,
      "t": 228928.4192499996,
      "d": 1730.7690000000002,
      "v": 82
    },
    {
      "midi": 78,
      "hit": false,
      "t": 228928.4192499996,
      "d": 1730.7690000000002,
      "v": 82
    },
    {
      "midi": 74,
      "hit": false,
      "t": 228928.4192499996,
      "d": 1730.7690000000002,
      "v": 82
    },
    {
      "midi": 71,
      "hit": false,
      "t": 228928.4192499996,
      "d": 1730.7690000000002,
      "v": 82
    },
    {
      "midi": 50,
      "hit": false,
      "t": 229505.34224999958,
      "d": 576.9230000000098,
      "v": 87
    },
    {
      "midi": 59,
      "hit": false,
      "t": 230082.2652499996,
      "d": 576.9230000000098,
      "v": 84
    },
    {
      "midi": 55,
      "hit": false,
      "t": 230659.1882499996,
      "d": 576.9230000000098,
      "v": 76
    },
    {
      "midi": 78,
      "hit": false,
      "t": 230659.1882499996,
      "d": 576.9230000000098,
      "v": 65
    },
    {
      "midi": 43,
      "hit": false,
      "t": 231236.1112499996,
      "d": 504.80762499998673,
      "v": 76
    },
    {
      "midi": 31,
      "hit": false,
      "t": 231236.1112499996,
      "d": 504.80762499998673,
      "v": 76
    },
    {
      "midi": 76,
      "hit": false,
      "t": 231236.1112499996,
      "d": 1153.8459999999905,
      "v": 66
    },
    {
      "midi": 73,
      "hit": false,
      "t": 231236.1112499996,
      "d": 1153.8459999999905,
      "v": 66
    },
    {
      "midi": 69,
      "hit": false,
      "t": 231236.1112499996,
      "d": 1153.8459999999905,
      "v": 66
    },
    {
      "midi": 64,
      "hit": false,
      "t": 231236.1112499996,
      "d": 1153.8459999999905,
      "v": 66
    },
    {
      "midi": 52,
      "hit": false,
      "t": 231813.0342499996,
      "d": 576.9230000000098,
      "v": 82
    },
    {
      "midi": 61,
      "hit": false,
      "t": 232389.9572499996,
      "d": 576.9230000000098,
      "v": 93
    },
    {
      "midi": 81,
      "hit": false,
      "t": 232389.9572499996,
      "d": 1153.8460000000196,
      "v": 85
    },
    {
      "midi": 57,
      "hit": false,
      "t": 232966.8802499996,
      "d": 576.9230000000098,
      "v": 77
    },
    {
      "midi": 43,
      "hit": false,
      "t": 233543.80324999962,
      "d": 504.80762499998673,
      "v": 79
    },
    {
      "midi": 31,
      "hit": false,
      "t": 233543.80324999962,
      "d": 504.80762499998673,
      "v": 79
    },
    {
      "midi": 78,
      "hit": false,
      "t": 233543.80324999962,
      "d": 1153.8459999999905,
      "v": 71
    },
    {
      "midi": 74,
      "hit": false,
      "t": 233543.80324999962,
      "d": 1153.8459999999905,
      "v": 71
    },
    {
      "midi": 71,
      "hit": false,
      "t": 233543.80324999962,
      "d": 1153.8459999999905,
      "v": 71
    },
    {
      "midi": 66,
      "hit": false,
      "t": 233543.80324999962,
      "d": 1153.8459999999905,
      "v": 71
    },
    {
      "midi": 54,
      "hit": false,
      "t": 234120.7262499996,
      "d": 576.9230000000098,
      "v": 80
    },
    {
      "midi": 62,
      "hit": false,
      "t": 234697.6492499996,
      "d": 576.9230000000098,
      "v": 90
    },
    {
      "midi": 83,
      "hit": false,
      "t": 234697.6492499996,
      "d": 1153.8460000000196,
      "v": 85
    },
    {
      "midi": 59,
      "hit": false,
      "t": 235274.57224999962,
      "d": 576.9230000000098,
      "v": 80
    },
    {
      "midi": 43,
      "hit": false,
      "t": 235851.49524999963,
      "d": 504.80762499998673,
      "v": 74
    },
    {
      "midi": 31,
      "hit": false,
      "t": 235851.49524999963,
      "d": 504.80762499998673,
      "v": 74
    },
    {
      "midi": 85,
      "hit": false,
      "t": 235851.49524999963,
      "d": 576.9229999999807,
      "v": 80
    },
    {
      "midi": 81,
      "hit": false,
      "t": 235851.49524999963,
      "d": 576.9229999999807,
      "v": 80
    },
    {
      "midi": 76,
      "hit": false,
      "t": 235851.49524999963,
      "d": 576.9229999999807,
      "v": 80
    },
    {
      "midi": 73,
      "hit": false,
      "t": 235851.49524999963,
      "d": 576.9229999999807,
      "v": 80
    },
    {
      "midi": 52,
      "hit": false,
      "t": 236428.4182499996,
      "d": 576.9229999999807,
      "v": 80
    },
    {
      "midi": 73,
      "hit": false,
      "t": 236617.7211093746,
      "d": 193.81007031249464,
      "v": 70
    },
    {
      "midi": 74,
      "hit": false,
      "t": 236811.5311796871,
      "d": 193.81007031249464,
      "v": 77
    },
    {
      "midi": 76,
      "hit": false,
      "t": 237005.3412499996,
      "d": 189.30285937499139,
      "v": 80
    },
    {
      "midi": 61,
      "hit": false,
      "t": 237005.3412499996,
      "d": 576.9229999999807,
      "v": 96
    },
    {
      "midi": 78,
      "hit": false,
      "t": 237194.64410937458,
      "d": 193.81007031249464,
      "v": 84
    },
    {
      "midi": 79,
      "hit": false,
      "t": 237388.45417968708,
      "d": 193.81007031249464,
      "v": 74
    },
    {
      "midi": 81,
      "hit": false,
      "t": 237582.26424999957,
      "d": 189.30285937499139,
      "v": 81
    },
    {
      "midi": 57,
      "hit": false,
      "t": 237582.26424999957,
      "d": 576.9229999999807,
      "v": 77
    },
    {
      "midi": 83,
      "hit": false,
      "t": 237771.56710937456,
      "d": 193.81007031249464,
      "v": 79
    },
    {
      "midi": 85,
      "hit": false,
      "t": 237965.37717968706,
      "d": 193.81007031249464,
      "v": 86
    },
    {
      "midi": 62,
      "hit": false,
      "t": 238159.18724999955,
      "d": 576.9230000000098,
      "v": 84
    },
    {
      "midi": 55,
      "hit": false,
      "t": 238159.18724999955,
      "d": 576.9230000000098,
      "v": 84
    },
    {
      "midi": 48,
      "hit": false,
      "t": 238159.18724999955,
      "d": 576.9230000000098,
      "v": 84
    },
    {
      "midi": 86,
      "hit": false,
      "t": 238159.18724999955,
      "d": 576.9230000000098,
      "v": 77
    },
    {
      "midi": 79,
      "hit": false,
      "t": 238159.18724999955,
      "d": 576.9230000000098,
      "v": 77
    },
    {
      "midi": 76,
      "hit": false,
      "t": 238159.18724999955,
      "d": 576.9230000000098,
      "v": 77
    },
    {
      "midi": 74,
      "hit": false,
      "t": 238159.18724999955,
      "d": 576.9230000000098,
      "v": 77
    },
    {
      "midi": 84,
      "hit": false,
      "t": 238736.11024999956,
      "d": 576.9230000000098,
      "v": 74
    },
    {
      "midi": 79,
      "hit": false,
      "t": 238736.11024999956,
      "d": 576.9230000000098,
      "v": 74
    },
    {
      "midi": 76,
      "hit": false,
      "t": 238736.11024999956,
      "d": 576.9230000000098,
      "v": 74
    },
    {
      "midi": 72,
      "hit": false,
      "t": 238736.11024999956,
      "d": 576.9230000000098,
      "v": 74
    },
    {
      "midi": 43,
      "hit": false,
      "t": 238736.11024999956,
      "d": 1014.1224609375058,
      "v": 76
    },
    {
      "midi": 84,
      "hit": false,
      "t": 239313.03324999957,
      "d": 576.9230000000098,
      "v": 75
    },
    {
      "midi": 79,
      "hit": false,
      "t": 239313.03324999957,
      "d": 576.9230000000098,
      "v": 75
    },
    {
      "midi": 76,
      "hit": false,
      "t": 239313.03324999957,
      "d": 576.9230000000098,
      "v": 75
    },
    {
      "midi": 72,
      "hit": false,
      "t": 239313.03324999957,
      "d": 576.9230000000098,
      "v": 75
    },
    {
      "midi": 83,
      "hit": false,
      "t": 239889.95624999958,
      "d": 576.9230000000098,
      "v": 69
    },
    {
      "midi": 79,
      "hit": false,
      "t": 239889.95624999958,
      "d": 576.9230000000098,
      "v": 69
    },
    {
      "midi": 76,
      "hit": false,
      "t": 239889.95624999958,
      "d": 576.9230000000098,
      "v": 69
    },
    {
      "midi": 71,
      "hit": false,
      "t": 239889.95624999958,
      "d": 576.9230000000098,
      "v": 69
    },
    {
      "midi": 55,
      "hit": false,
      "t": 239889.95624999958,
      "d": 1153.8460000000196,
      "v": 86
    },
    {
      "midi": 48,
      "hit": false,
      "t": 239889.95624999958,
      "d": 1153.8460000000196,
      "v": 86
    },
    {
      "midi": 40,
      "hit": false,
      "t": 239889.95624999958,
      "d": 1153.8460000000196,
      "v": 86
    },
    {
      "midi": 83,
      "hit": false,
      "t": 240466.8792499996,
      "d": 576.9230000000098,
      "v": 72
    },
    {
      "midi": 79,
      "hit": false,
      "t": 240466.8792499996,
      "d": 576.9230000000098,
      "v": 72
    },
    {
      "midi": 76,
      "hit": false,
      "t": 240466.8792499996,
      "d": 576.9230000000098,
      "v": 72
    },
    {
      "midi": 71,
      "hit": false,
      "t": 240466.8792499996,
      "d": 576.9230000000098,
      "v": 72
    },
    {
      "midi": 48,
      "hit": false,
      "t": 241043.8022499996,
      "d": 576.9230000000098,
      "v": 72
    },
    {
      "midi": 36,
      "hit": false,
      "t": 241043.8022499996,
      "d": 576.9230000000098,
      "v": 72
    },
    {
      "midi": 81,
      "hit": false,
      "t": 241043.8022499996,
      "d": 1153.8460000000196,
      "v": 70
    },
    {
      "midi": 79,
      "hit": false,
      "t": 241043.8022499996,
      "d": 1153.8460000000196,
      "v": 70
    },
    {
      "midi": 76,
      "hit": false,
      "t": 241043.8022499996,
      "d": 1153.8460000000196,
      "v": 70
    },
    {
      "midi": 69,
      "hit": false,
      "t": 241043.8022499996,
      "d": 1153.8460000000196,
      "v": 70
    },
    {
      "midi": 48,
      "hit": false,
      "t": 241620.7252499996,
      "d": 252.40381250000792,
      "v": 86
    },
    {
      "midi": 36,
      "hit": false,
      "t": 241620.7252499996,
      "d": 252.40381250000792,
      "v": 86
    },
    {
      "midi": 47,
      "hit": false,
      "t": 241909.18674999962,
      "d": 252.40381250000792,
      "v": 87
    },
    {
      "midi": 35,
      "hit": false,
      "t": 241909.18674999962,
      "d": 252.40381250000792,
      "v": 87
    },
    {
      "midi": 79,
      "hit": false,
      "t": 242197.64824999962,
      "d": 252.40381250000792,
      "v": 80
    },
    {
      "midi": 67,
      "hit": false,
      "t": 242197.64824999962,
      "d": 252.40381250000792,
      "v": 80
    },
    {
      "midi": 45,
      "hit": false,
      "t": 242197.64824999962,
      "d": 504.80762500001583,
      "v": 85
    },
    {
      "midi": 33,
      "hit": false,
      "t": 242197.64824999962,
      "d": 504.80762500001583,
      "v": 85
    },
    {
      "midi": 81,
      "hit": false,
      "t": 242486.10974999962,
      "d": 252.40381250000792,
      "v": 93
    },
    {
      "midi": 69,
      "hit": false,
      "t": 242486.10974999962,
      "d": 252.40381250000792,
      "v": 93
    },
    {
      "midi": 47,
      "hit": false,
      "t": 242774.57124999963,
      "d": 504.80762499998673,
      "v": 93
    },
    {
      "midi": 35,
      "hit": false,
      "t": 242774.57124999963,
      "d": 504.80762499998673,
      "v": 93
    },
    {
      "midi": 78,
      "hit": false,
      "t": 242774.57124999963,
      "d": 4615.384000000049,
      "v": 80
    },
    {
      "midi": 74,
      "hit": false,
      "t": 242774.57124999963,
      "d": 4615.384000000049,
      "v": 80
    },
    {
      "midi": 71,
      "hit": false,
      "t": 242774.57124999963,
      "d": 4615.384000000049,
      "v": 80
    },
    {
      "midi": 54,
      "hit": false,
      "t": 243351.4942499996,
      "d": 576.9230000000098,
      "v": 78
    },
    {
      "midi": 95,
      "hit": false,
      "t": 243351.4942499996,
      "d": 576.9230000000098,
      "v": 68
    },
    {
      "midi": 62,
      "hit": false,
      "t": 243928.41724999962,
      "d": 576.9230000000098,
      "v": 92
    },
    {
      "midi": 86,
      "hit": false,
      "t": 243928.41724999962,
      "d": 576.9230000000098,
      "v": 59
    },
    {
      "midi": 83,
      "hit": false,
      "t": 243928.41724999962,
      "d": 576.9230000000098,
      "v": 59
    },
    {
      "midi": 54,
      "hit": false,
      "t": 244505.34024999963,
      "d": 576.9230000000098,
      "v": 70
    },
    {
      "midi": 88,
      "hit": false,
      "t": 244505.34024999963,
      "d": 576.9230000000098,
      "v": 78
    },
    {
      "midi": 61,
      "hit": false,
      "t": 245082.26324999964,
      "d": 576.9230000000098,
      "v": 91
    },
    {
      "midi": 85,
      "hit": false,
      "t": 245082.26324999964,
      "d": 576.9230000000098,
      "v": 75
    },
    {
      "midi": 81,
      "hit": false,
      "t": 245082.26324999964,
      "d": 576.9230000000098,
      "v": 75
    },
    {
      "midi": 54,
      "hit": false,
      "t": 245659.18624999965,
      "d": 576.9230000000098,
      "v": 69
    },
    {
      "midi": 86,
      "hit": false,
      "t": 245659.18624999965,
      "d": 576.9230000000098,
      "v": 75
    },
    {
      "midi": 64,
      "hit": false,
      "t": 246236.10924999966,
      "d": 576.9230000000098,
      "v": 97
    },
    {
      "midi": 85,
      "hit": false,
      "t": 246236.10924999966,
      "d": 576.9230000000098,
      "v": 69
    },
    {
      "midi": 61,
      "hit": false,
      "t": 246813.03224999967,
      "d": 576.9230000000098,
      "v": 70
    },
    {
      "midi": 81,
      "hit": false,
      "t": 246813.03224999967,
      "d": 576.9230000000098,
      "v": 67
    },
    {
      "midi": 74,
      "hit": false,
      "t": 247389.95524999968,
      "d": 576.9230000000098,
      "v": 62
    },
    {
      "midi": 67,
      "hit": false,
      "t": 247389.95524999968,
      "d": 1153.8460000000196,
      "v": 67
    },
    {
      "midi": 64,
      "hit": false,
      "t": 247389.95524999968,
      "d": 1153.8460000000196,
      "v": 67
    },
    {
      "midi": 52,
      "hit": false,
      "t": 247389.95524999968,
      "d": 2307.692000000039,
      "v": 67
    },
    {
      "midi": 43,
      "hit": false,
      "t": 247389.95524999968,
      "d": 2307.692000000039,
      "v": 67
    },
    {
      "midi": 36,
      "hit": false,
      "t": 247389.95524999968,
      "d": 2307.692000000039,
      "v": 67
    },
    {
      "midi": 72,
      "hit": false,
      "t": 247966.8782499997,
      "d": 576.9230000000098,
      "v": 64
    },
    {
      "midi": 72,
      "hit": false,
      "t": 248543.8012499997,
      "d": 576.9230000000098,
      "v": 74
    },
    {
      "midi": 67,
      "hit": false,
      "t": 248543.8012499997,
      "d": 1153.8460000000196,
      "v": 78
    },
    {
      "midi": 62,
      "hit": false,
      "t": 248543.8012499997,
      "d": 1153.8460000000196,
      "v": 78
    },
    {
      "midi": 71,
      "hit": false,
      "t": 249120.7242499997,
      "d": 576.9230000000098,
      "v": 70
    },
    {
      "midi": 71,
      "hit": false,
      "t": 249697.64724999972,
      "d": 576.9230000000098,
      "v": 77
    },
    {
      "midi": 55,
      "hit": false,
      "t": 249697.64724999972,
      "d": 1153.8460000000196,
      "v": 78
    },
    {
      "midi": 48,
      "hit": false,
      "t": 249697.64724999972,
      "d": 2307.692000000039,
      "v": 75
    },
    {
      "midi": 64,
      "hit": false,
      "t": 249697.64724999972,
      "d": 2307.692000000039,
      "v": 72
    },
    {
      "midi": 60,
      "hit": false,
      "t": 249697.64724999972,
      "d": 2307.692000000039,
      "v": 72
    },
    {
      "midi": 69,
      "hit": false,
      "t": 250274.57024999973,
      "d": 1153.8460000000196,
      "v": 68
    },
    {
      "midi": 57,
      "hit": false,
      "t": 250851.49324999974,
      "d": 1153.8460000000196,
      "v": 78
    },
    {
      "midi": 71,
      "hit": false,
      "t": 251428.41624999975,
      "d": 288.4615000000049,
      "v": 82
    },
    {
      "midi": 72,
      "hit": false,
      "t": 251716.87774999975,
      "d": 288.4615000000049,
      "v": 78
    },
    {
      "midi": 40,
      "hit": false,
      "t": 252005.33924999976,
      "d": 576.9230000000098,
      "v": 68
    },
    {
      "midi": 64,
      "hit": false,
      "t": 252005.33924999976,
      "d": 576.9230000000098,
      "v": 73
    },
    {
      "midi": 71,
      "hit": false,
      "t": 252005.33924999976,
      "d": 1153.8460000000196,
      "v": 72
    },
    {
      "midi": 47,
      "hit": false,
      "t": 252582.26224999977,
      "d": 576.9230000000098,
      "v": 82
    },
    {
      "midi": 54,
      "hit": false,
      "t": 252582.26224999977,
      "d": 1730.7690000000293,
      "v": 71
    },
    {
      "midi": 56,
      "hit": false,
      "t": 253159.18524999978,
      "d": 576.9230000000098,
      "v": 85
    },
    {
      "midi": 88,
      "hit": false,
      "t": 253159.18524999978,
      "d": 576.9230000000098,
      "v": 97
    },
    {
      "midi": 59,
      "hit": false,
      "t": 253736.1082499998,
      "d": 576.9230000000098,
      "v": 84
    },
    {
      "midi": 83,
      "hit": false,
      "t": 253736.1082499998,
      "d": 576.9230000000098,
      "v": 71
    },
    {
      "midi": 78,
      "hit": false,
      "t": 253736.1082499998,
      "d": 576.9230000000098,
      "v": 71
    },
    {
      "midi": 80,
      "hit": false,
      "t": 254313.0312499998,
      "d": 2692.3074999999953,
      "v": 68
    },
    {
      "midi": 71,
      "hit": false,
      "t": 254313.0312499998,
      "d": 2692.3074999999953,
      "v": 68
    },
    {
      "midi": 64,
      "hit": false,
      "t": 254313.0312499998,
      "d": 3269.230500000005,
      "v": 86
    },
    {
      "midi": 90,
      "hit": false,
      "t": 257005.3387499998,
      "d": 576.9230000000098,
      "v": 69
    },
    {
      "midi": 59,
      "hit": false,
      "t": 257582.2617499998,
      "d": 576.9230000000098,
      "v": 73
    },
    {
      "midi": 95,
      "hit": false,
      "t": 257582.2617499998,
      "d": 1730.7690000000293,
      "v": 82
    },
    {
      "midi": 66,
      "hit": false,
      "t": 258159.1847499998,
      "d": 576.9230000000098,
      "v": 84
    },
    {
      "midi": 83,
      "hit": false,
      "t": 258736.10774999982,
      "d": 1153.8460000000196,
      "v": 100
    },
    {
      "midi": 74,
      "hit": false,
      "t": 258736.10774999982,
      "d": 1153.8460000000196,
      "v": 100
    },
    {
      "midi": 71,
      "hit": false,
      "t": 258736.10774999982,
      "d": 1153.8460000000196,
      "v": 100
    },
    {
      "midi": 88,
      "hit": false,
      "t": 259313.03074999983,
      "d": 576.9230000000098,
      "v": 61
    },
    {
      "midi": 57,
      "hit": false,
      "t": 259889.95374999984,
      "d": 576.9230000000098,
      "v": 66
    },
    {
      "midi": 90,
      "hit": false,
      "t": 259889.95374999984,
      "d": 2884.61500000002,
      "v": 76
    },
    {
      "midi": 66,
      "hit": false,
      "t": 260466.87674999985,
      "d": 576.9230000000098,
      "v": 95
    },
    {
      "midi": 78,
      "hit": false,
      "t": 261043.79974999986,
      "d": 1153.8459999999905,
      "v": 103
    },
    {
      "midi": 69,
      "hit": false,
      "t": 261043.79974999986,
      "d": 1153.8459999999905,
      "v": 103
    },
    {
      "midi": 55,
      "hit": false,
      "t": 262197.64574999985,
      "d": 576.9230000000098,
      "v": 71
    },
    {
      "midi": 71,
      "hit": false,
      "t": 262774.56874999986,
      "d": 576.9230000000098,
      "v": 97
    },
    {
      "midi": 69,
      "hit": false,
      "t": 262774.56874999986,
      "d": 576.9230000000098,
      "v": 97
    },
    {
      "midi": 83,
      "hit": false,
      "t": 262774.56874999986,
      "d": 576.9230000000098,
      "v": 62
    },
    {
      "midi": 88,
      "hit": false,
      "t": 263351.49174999987,
      "d": 576.9230000000098,
      "v": 83
    },
    {
      "midi": 76,
      "hit": false,
      "t": 263351.49174999987,
      "d": 1153.8460000000196,
      "v": 92
    },
    {
      "midi": 90,
      "hit": false,
      "t": 263928.4147499999,
      "d": 576.9230000000098,
      "v": 80
    },
    {
      "midi": 57,
      "hit": false,
      "t": 264505.3377499999,
      "d": 576.9230000000098,
      "v": 64
    },
    {
      "midi": 93,
      "hit": false,
      "t": 264505.3377499999,
      "d": 576.9230000000098,
      "v": 84
    },
    {
      "midi": 71,
      "hit": false,
      "t": 265082.2607499999,
      "d": 576.9230000000098,
      "v": 97
    },
    {
      "midi": 69,
      "hit": false,
      "t": 265082.2607499999,
      "d": 576.9230000000098,
      "v": 97
    },
    {
      "midi": 90,
      "hit": false,
      "t": 265082.2607499999,
      "d": 576.9230000000098,
      "v": 74
    },
    {
      "midi": 73,
      "hit": false,
      "t": 265659.1837499999,
      "d": 1153.8460000000196,
      "v": 84
    },
    {
      "midi": 88,
      "hit": false,
      "t": 265659.1837499999,
      "d": 1153.8460000000196,
      "v": 74
    },
    {
      "midi": 59,
      "hit": false,
      "t": 266813.0297499999,
      "d": 576.9230000000098,
      "v": 64
    },
    {
      "midi": 95,
      "hit": false,
      "t": 266813.0297499999,
      "d": 1730.7690000000293,
      "v": 85
    },
    {
      "midi": 66,
      "hit": false,
      "t": 267389.95274999994,
      "d": 576.9230000000098,
      "v": 94
    },
    {
      "midi": 83,
      "hit": false,
      "t": 267966.87574999995,
      "d": 1153.8460000000196,
      "v": 96
    },
    {
      "midi": 74,
      "hit": false,
      "t": 267966.87574999995,
      "d": 1153.8460000000196,
      "v": 96
    },
    {
      "midi": 71,
      "hit": false,
      "t": 267966.87574999995,
      "d": 1153.8460000000196,
      "v": 96
    },
    {
      "midi": 88,
      "hit": false,
      "t": 268543.79874999996,
      "d": 576.9230000000098,
      "v": 61
    },
    {
      "midi": 57,
      "hit": false,
      "t": 269120.72174999997,
      "d": 576.9230000000098,
      "v": 68
    },
    {
      "midi": 90,
      "hit": false,
      "t": 269120.72174999997,
      "d": 2884.615000000049,
      "v": 81
    },
    {
      "midi": 66,
      "hit": false,
      "t": 269697.64475,
      "d": 576.9230000000098,
      "v": 88
    },
    {
      "midi": 78,
      "hit": false,
      "t": 270274.56775,
      "d": 1153.8460000000196,
      "v": 102
    },
    {
      "midi": 69,
      "hit": false,
      "t": 270274.56775,
      "d": 1153.8460000000196,
      "v": 102
    },
    {
      "midi": 57,
      "hit": false,
      "t": 271428.41375,
      "d": 576.9230000000098,
      "v": 73
    },
    {
      "midi": 74,
      "hit": false,
      "t": 272005.33675,
      "d": 576.9230000000098,
      "v": 94
    },
    {
      "midi": 71,
      "hit": false,
      "t": 272005.33675,
      "d": 576.9230000000098,
      "v": 94
    },
    {
      "midi": 69,
      "hit": false,
      "t": 272005.33675,
      "d": 576.9230000000098,
      "v": 94
    },
    {
      "midi": 88,
      "hit": false,
      "t": 272005.33675,
      "d": 576.9230000000098,
      "v": 72
    },
    {
      "midi": 90,
      "hit": false,
      "t": 272582.25975,
      "d": 576.9230000000098,
      "v": 79
    },
    {
      "midi": 73,
      "hit": false,
      "t": 272582.25975,
      "d": 1153.8460000000196,
      "v": 71
    },
    {
      "midi": 88,
      "hit": false,
      "t": 273159.18275000004,
      "d": 576.9230000000098,
      "v": 71
    },
    {
      "midi": 55,
      "hit": false,
      "t": 273736.10575000005,
      "d": 576.9230000000098,
      "v": 65
    },
    {
      "midi": 93,
      "hit": false,
      "t": 273736.10575000005,
      "d": 576.9230000000098,
      "v": 85
    },
    {
      "midi": 62,
      "hit": false,
      "t": 274313.02875000006,
      "d": 576.9230000000098,
      "v": 86
    },
    {
      "midi": 90,
      "hit": false,
      "t": 274313.02875000006,
      "d": 576.9230000000098,
      "v": 71
    },
    {
      "midi": 64,
      "hit": false,
      "t": 274889.95175000007,
      "d": 2115.3844999999856,
      "v": 83
    },
    {
      "midi": 88,
      "hit": false,
      "t": 274889.95175000007,
      "d": 2115.3844999999856,
      "v": 69
    },
    {
      "midi": 43,
      "hit": false,
      "t": 277005.33625000005,
      "d": 6153.844000000041,
      "v": 66
    },
    {
      "midi": 31,
      "hit": false,
      "t": 277005.33625000005,
      "d": 6153.844000000041,
      "v": 66
    },
    {
      "midi": 59,
      "hit": false,
      "t": 278543.79725000006,
      "d": 4615.383000000031,
      "v": 66
    },
    {
      "midi": 62,
      "hit": false,
      "t": 278621.9222226563,
      "d": 4537.258027343778,
      "v": 66
    },
    {
      "midi": 66,
      "hit": false,
      "t": 278700.04719531257,
      "d": 4459.133054687525,
      "v": 66
    },
    {
      "midi": 69,
      "hit": false,
      "t": 278778.1721679688,
      "d": 4381.008082031272,
      "v": 66
    },
    {
      "midi": 73,
      "hit": false,
      "t": 278856.2971406251,
      "d": 4302.88310937502,
      "v": 66
    },
    {
      "midi": 76,
      "hit": false,
      "t": 278934.4221132813,
      "d": 4224.758136718767,
      "v": 66
    },
    {
      "midi": 81,
      "hit": false,
      "t": 279012.5470859376,
      "d": 4146.633164062514,
      "v": 66
    },
    {
      "midi": 85,
      "hit": false,
      "t": 279090.67205859383,
      "d": 4068.508191406261,
      "v": 66
    }
  ]
}