{
  "jsonPath": "Unknown/Unknown/CSO/this-is-halloween.json",
  "path": "Unknown\\Unknown\\CSO\\This is Halloween.mid",
  "name": "This is Halloween",
  "difficulty": "Advanced",
  "bpm": 83.49998538750256,
  "notes": [
    {
      "midi": 37,
      "hit": false,
      "t": 35928.15,
      "d": 59.88025000000198,
      "v": 96
    },
    {
      "midi": 49,
      "hit": false,
      "t": 35928.15,
      "d": 59.88025000000198,
      "v": 96
    },
    {
      "midi": 35,
      "hit": false,
      "t": 36287.431500000006,
      "d": 83.83234999999695,
      "v": 85
    },
    {
      "midi": 47,
      "hit": false,
      "t": 36287.431500000006,
      "d": 83.83234999999695,
      "v": 85
    },
    {
      "midi": 34,
      "hit": false,
      "t": 36646.713,
      "d": 71.85629999999946,
      "v": 79
    },
    {
      "midi": 46,
      "hit": false,
      "t": 36646.713,
      "d": 89.82037500000297,
      "v": 79
    },
    {
      "midi": 44,
      "hit": false,
      "t": 37005.99450000001,
      "d": 65.86827500000072,
      "v": 89
    },
    {
      "midi": 32,
      "hit": false,
      "t": 37005.99450000001,
      "d": 71.85629999999946,
      "v": 79
    },
    {
      "midi": 31,
      "hit": false,
      "t": 37365.276000000005,
      "d": 47.90419999999722,
      "v": 56
    },
    {
      "midi": 32,
      "hit": false,
      "t": 37365.276000000005,
      "d": 65.86827500000072,
      "v": 79
    },
    {
      "midi": 44,
      "hit": false,
      "t": 37365.276000000005,
      "d": 83.83235000000423,
      "v": 89
    },
    {
      "midi": 28,
      "hit": false,
      "t": 38083.83900000001,
      "d": 65.86827500000072,
      "v": 101
    },
    {
      "midi": 40,
      "hit": false,
      "t": 38083.83900000001,
      "d": 65.86827500000072,
      "v": 94
    },
    {
      "midi": 35,
      "hit": false,
      "t": 38443.120500000005,
      "d": 77.84432499999821,
      "v": 92
    },
    {
      "midi": 47,
      "hit": false,
      "t": 38443.120500000005,
      "d": 77.84432499999821,
      "v": 90
    },
    {
      "midi": 32,
      "hit": false,
      "t": 38802.402,
      "d": 83.83234999999695,
      "v": 89
    },
    {
      "midi": 44,
      "hit": false,
      "t": 38802.402,
      "d": 89.82037499999569,
      "v": 92
    },
    {
      "midi": 28,
      "hit": false,
      "t": 39520.965,
      "d": 65.86827500000072,
      "v": 99
    },
    {
      "midi": 40,
      "hit": false,
      "t": 39520.965,
      "d": 83.83235000000423,
      "v": 94
    },
    {
      "midi": 47,
      "hit": false,
      "t": 39880.2465,
      "d": 59.88025000000198,
      "v": 68
    },
    {
      "midi": 35,
      "hit": false,
      "t": 39880.2465,
      "d": 71.85629999999946,
      "v": 86
    },
    {
      "midi": 66,
      "hit": false,
      "t": 42395.217,
      "d": 65.86827500000072,
      "v": 60
    },
    {
      "midi": 57,
      "hit": false,
      "t": 42395.217,
      "d": 77.84432499999821,
      "v": 73
    },
    {
      "midi": 61,
      "hit": false,
      "t": 42395.217,
      "d": 77.84432499999821,
      "v": 69
    },
    {
      "midi": 63,
      "hit": false,
      "t": 42395.217,
      "d": 77.84432499999821,
      "v": 77
    },
    {
      "midi": 61,
      "hit": false,
      "t": 42395.217,
      "d": 179.64074999999866,
      "v": 50
    },
    {
      "midi": 42,
      "hit": false,
      "t": 42395.217000000004,
      "d": 89.82037500000297,
      "v": 84
    },
    {
      "midi": 61,
      "hit": false,
      "t": 42754.498499999994,
      "d": 89.82037500000297,
      "v": 51
    },
    {
      "midi": 63,
      "hit": false,
      "t": 42754.498499999994,
      "d": 89.82037500000297,
      "v": 54
    },
    {
      "midi": 66,
      "hit": false,
      "t": 42754.498499999994,
      "d": 89.82037500000297,
      "v": 46
    },
    {
      "midi": 57,
      "hit": false,
      "t": 42754.498499999994,
      "d": 107.78445000000647,
      "v": 56
    },
    {
      "midi": 63,
      "hit": false,
      "t": 42754.498499999994,
      "d": 179.64074999999866,
      "v": 43
    },
    {
      "midi": 66,
      "hit": false,
      "t": 43113.77999999999,
      "d": 179.64074999999866,
      "v": 64
    },
    {
      "midi": 57,
      "hit": false,
      "t": 43113.78,
      "d": 77.84432499999821,
      "v": 76
    },
    {
      "midi": 66,
      "hit": false,
      "t": 43113.78,
      "d": 77.84432499999821,
      "v": 66
    },
    {
      "midi": 61,
      "hit": false,
      "t": 43113.78,
      "d": 101.79642500000045,
      "v": 79
    },
    {
      "midi": 63,
      "hit": false,
      "t": 43113.78,
      "d": 101.79642500000045,
      "v": 77
    },
    {
      "midi": 37,
      "hit": false,
      "t": 43113.780000000006,
      "d": 65.86827500000072,
      "v": 89
    },
    {
      "midi": 69,
      "hit": false,
      "t": 43473.06149999999,
      "d": 179.64074999999866,
      "v": 85
    },
    {
      "midi": 66,
      "hit": false,
      "t": 43473.061499999996,
      "d": 41.916174999998475,
      "v": 46
    },
    {
      "midi": 57,
      "hit": false,
      "t": 43473.061499999996,
      "d": 77.84432499999821,
      "v": 57
    },
    {
      "midi": 61,
      "hit": false,
      "t": 43473.061499999996,
      "d": 89.82037499999569,
      "v": 56
    },
    {
      "midi": 63,
      "hit": false,
      "t": 43473.061499999996,
      "d": 89.82037499999569,
      "v": 55
    },
    {
      "midi": 66,
      "hit": false,
      "t": 43832.342999999986,
      "d": 359.2814999999973,
      "v": 51
    },
    {
      "midi": 63,
      "hit": false,
      "t": 43832.34299999999,
      "d": 83.83234999999695,
      "v": 71
    },
    {
      "midi": 66,
      "hit": false,
      "t": 43832.34299999999,
      "d": 83.83234999999695,
      "v": 64
    },
    {
      "midi": 57,
      "hit": false,
      "t": 43832.34299999999,
      "d": 95.80839999999444,
      "v": 68
    },
    {
      "midi": 61,
      "hit": false,
      "t": 43832.34299999999,
      "d": 95.80839999999444,
      "v": 69
    },
    {
      "midi": 42,
      "hit": false,
      "t": 43832.34300000001,
      "d": 77.84432499999821,
      "v": 81
    },
    {
      "midi": 69,
      "hit": false,
      "t": 44191.62449999998,
      "d": 179.64074999999866,
      "v": 80
    },
    {
      "midi": 66,
      "hit": false,
      "t": 44191.62449999999,
      "d": 35.92814999999973,
      "v": 43
    },
    {
      "midi": 57,
      "hit": false,
      "t": 44191.62449999999,
      "d": 77.84432499999821,
      "v": 55
    },
    {
      "midi": 61,
      "hit": false,
      "t": 44191.62449999999,
      "d": 89.82037499999569,
      "v": 51
    },
    {
      "midi": 63,
      "hit": false,
      "t": 44191.62449999999,
      "d": 95.80839999999444,
      "v": 51
    },
    {
      "midi": 78,
      "hit": false,
      "t": 44550.90599999998,
      "d": 359.2814999999973,
      "v": 81
    },
    {
      "midi": 66,
      "hit": false,
      "t": 44550.90599999999,
      "d": 71.85629999999946,
      "v": 68
    },
    {
      "midi": 57,
      "hit": false,
      "t": 44550.90599999999,
      "d": 95.80840000000171,
      "v": 69
    },
    {
      "midi": 61,
      "hit": false,
      "t": 44550.90599999999,
      "d": 113.77247500000522,
      "v": 77
    },
    {
      "midi": 63,
      "hit": false,
      "t": 44550.90599999999,
      "d": 113.77247500000522,
      "v": 75
    },
    {
      "midi": 37,
      "hit": false,
      "t": 44550.906,
      "d": 59.88025000000198,
      "v": 79
    },
    {
      "midi": 66,
      "hit": false,
      "t": 44910.18749999998,
      "d": 359.2814999999973,
      "v": 42
    },
    {
      "midi": 66,
      "hit": false,
      "t": 44910.18749999999,
      "d": 65.86827500000072,
      "v": 43
    },
    {
      "midi": 57,
      "hit": false,
      "t": 44910.18749999999,
      "d": 77.84432499999821,
      "v": 54
    },
    {
      "midi": 61,
      "hit": false,
      "t": 44910.18749999999,
      "d": 77.84432499999821,
      "v": 49
    },
    {
      "midi": 63,
      "hit": false,
      "t": 44910.18749999999,
      "d": 77.84432499999821,
      "v": 46
    },
    {
      "midi": 69,
      "hit": false,
      "t": 45269.468999999975,
      "d": 179.64074999999866,
      "v": 72
    },
    {
      "midi": 57,
      "hit": false,
      "t": 45269.46899999999,
      "d": 95.80840000000171,
      "v": 72
    },
    {
      "midi": 66,
      "hit": false,
      "t": 45269.46899999999,
      "d": 95.80840000000171,
      "v": 69
    },
    {
      "midi": 61,
      "hit": false,
      "t": 45269.46899999999,
      "d": 107.7844499999992,
      "v": 77
    },
    {
      "midi": 63,
      "hit": false,
      "t": 45269.46899999999,
      "d": 107.7844499999992,
      "v": 77
    },
    {
      "midi": 42,
      "hit": false,
      "t": 45269.469000000005,
      "d": 89.82037500000297,
      "v": 73
    },
    {
      "midi": 73,
      "hit": false,
      "t": 45628.75049999997,
      "d": 179.64074999999866,
      "v": 54
    },
    {
      "midi": 66,
      "hit": false,
      "t": 45628.75049999999,
      "d": 47.90419999999722,
      "v": 51
    },
    {
      "midi": 63,
      "hit": false,
      "t": 45628.75049999999,
      "d": 59.8802499999947,
      "v": 56
    },
    {
      "midi": 57,
      "hit": false,
      "t": 45628.75049999999,
      "d": 71.85629999999219,
      "v": 58
    },
    {
      "midi": 61,
      "hit": false,
      "t": 45628.75049999999,
      "d": 71.85629999999219,
      "v": 58
    },
    {
      "midi": 78,
      "hit": false,
      "t": 45988.03199999997,
      "d": 179.64074999999866,
      "v": 60
    },
    {
      "midi": 61,
      "hit": false,
      "t": 45988.03199999998,
      "d": 83.83234999999695,
      "v": 75
    },
    {
      "midi": 63,
      "hit": false,
      "t": 45988.03199999998,
      "d": 83.83234999999695,
      "v": 73
    },
    {
      "midi": 66,
      "hit": false,
      "t": 45988.03199999998,
      "d": 83.83234999999695,
      "v": 69
    },
    {
      "midi": 57,
      "hit": false,
      "t": 45988.03199999998,
      "d": 89.82037499999569,
      "v": 73
    },
    {
      "midi": 37,
      "hit": false,
      "t": 45988.03200000001,
      "d": 77.84432499999821,
      "v": 84
    },
    {
      "midi": 73,
      "hit": false,
      "t": 46347.31349999997,
      "d": 179.64074999999866,
      "v": 77
    },
    {
      "midi": 66,
      "hit": false,
      "t": 46347.313499999975,
      "d": 71.85629999999946,
      "v": 54
    },
    {
      "midi": 63,
      "hit": false,
      "t": 46347.313499999975,
      "d": 77.84432499999821,
      "v": 51
    },
    {
      "midi": 57,
      "hit": false,
      "t": 46347.313499999975,
      "d": 95.80840000000171,
      "v": 60
    },
    {
      "midi": 61,
      "hit": false,
      "t": 46347.313499999975,
      "d": 95.80840000000171,
      "v": 55
    },
    {
      "midi": 75,
      "hit": false,
      "t": 46706.594999999965,
      "d": 179.64074999999866,
      "v": 81
    },
    {
      "midi": 63,
      "hit": false,
      "t": 46706.59499999998,
      "d": 107.7844499999992,
      "v": 63
    },
    {
      "midi": 58,
      "hit": false,
      "t": 46706.59499999998,
      "d": 119.76049999999668,
      "v": 75
    },
    {
      "midi": 66,
      "hit": false,
      "t": 46706.59499999998,
      "d": 119.76049999999668,
      "v": 66
    },
    {
      "midi": 60,
      "hit": false,
      "t": 46706.59499999998,
      "d": 125.74852499999542,
      "v": 86
    },
    {
      "midi": 39,
      "hit": false,
      "t": 46706.595,
      "d": 77.84432499999821,
      "v": 75
    },
    {
      "midi": 58,
      "hit": false,
      "t": 47065.87649999998,
      "d": 89.82037500000297,
      "v": 53
    },
    {
      "midi": 63,
      "hit": false,
      "t": 47065.87649999998,
      "d": 89.82037500000297,
      "v": 43
    },
    {
      "midi": 66,
      "hit": false,
      "t": 47065.87649999998,
      "d": 89.82037500000297,
      "v": 46
    },
    {
      "midi": 60,
      "hit": false,
      "t": 47065.87649999998,
      "d": 101.79642500000045,
      "v": 65
    },
    {
      "midi": 58,
      "hit": false,
      "t": 47425.157999999974,
      "d": 83.83234999999695,
      "v": 79
    },
    {
      "midi": 63,
      "hit": false,
      "t": 47425.157999999974,
      "d": 83.83234999999695,
      "v": 81
    },
    {
      "midi": 66,
      "hit": false,
      "t": 47425.157999999974,
      "d": 101.79642500000045,
      "v": 71
    },
    {
      "midi": 60,
      "hit": false,
      "t": 47425.157999999974,
      "d": 107.7844499999992,
      "v": 82
    },
    {
      "midi": 34,
      "hit": false,
      "t": 47425.157999999996,
      "d": 89.82037500000297,
      "v": 77
    },
    {
      "midi": 58,
      "hit": false,
      "t": 47784.43949999997,
      "d": 95.80840000000171,
      "v": 54
    },
    {
      "midi": 60,
      "hit": false,
      "t": 47784.43949999997,
      "d": 95.80840000000171,
      "v": 66
    },
    {
      "midi": 63,
      "hit": false,
      "t": 47784.43949999997,
      "d": 95.80840000000171,
      "v": 54
    },
    {
      "midi": 66,
      "hit": false,
      "t": 47784.43949999997,
      "d": 125.7485250000027,
      "v": 53
    },
    {
      "midi": 61,
      "hit": false,
      "t": 48143.72099999996,
      "d": 179.64074999999866,
      "v": 79
    },
    {
      "midi": 61,
      "hit": false,
      "t": 48143.720999999976,
      "d": 95.80840000000171,
      "v": 79
    },
    {
      "midi": 63,
      "hit": false,
      "t": 48143.720999999976,
      "d": 95.80840000000171,
      "v": 81
    },
    {
      "midi": 66,
      "hit": false,
      "t": 48143.720999999976,
      "d": 101.79642500000045,
      "v": 75
    },
    {
      "midi": 57,
      "hit": false,
      "t": 48143.720999999976,
      "d": 107.7844499999992,
      "v": 74
    },
    {
      "midi": 42,
      "hit": false,
      "t": 48143.721,
      "d": 71.85629999999946,
      "v": 79
    },
    {
      "midi": 63,
      "hit": false,
      "t": 48503.00249999996,
      "d": 179.64074999999866,
      "v": 86
    },
    {
      "midi": 61,
      "hit": false,
      "t": 48503.00249999997,
      "d": 71.85629999999946,
      "v": 51
    },
    {
      "midi": 63,
      "hit": false,
      "t": 48503.00249999997,
      "d": 71.85629999999946,
      "v": 53
    },
    {
      "midi": 66,
      "hit": false,
      "t": 48503.00249999997,
      "d": 71.85629999999946,
      "v": 49
    },
    {
      "midi": 57,
      "hit": false,
      "t": 48503.00249999997,
      "d": 95.80840000000171,
      "v": 57
    },
    {
      "midi": 66,
      "hit": false,
      "t": 48862.283999999956,
      "d": 179.64074999999866,
      "v": 81
    },
    {
      "midi": 57,
      "hit": false,
      "t": 48862.28399999998,
      "d": 101.79642500000045,
      "v": 75
    },
    {
      "midi": 63,
      "hit": false,
      "t": 48862.28399999998,
      "d": 101.79642500000045,
      "v": 77
    },
    {
      "midi": 66,
      "hit": false,
      "t": 48862.28399999998,
      "d": 101.79642500000045,
      "v": 71
    },
    {
      "midi": 61,
      "hit": false,
      "t": 48862.28399999998,
      "d": 107.7844499999992,
      "v": 77
    },
    {
      "midi": 37,
      "hit": false,
      "t": 48862.284,
      "d": 77.84432499999821,
      "v": 75
    },
    {
      "midi": 69,
      "hit": false,
      "t": 49221.56549999995,
      "d": 179.64074999999866,
      "v": 79
    },
    {
      "midi": 63,
      "hit": false,
      "t": 49221.565499999975,
      "d": 41.916174999998475,
      "v": 57
    },
    {
      "midi": 66,
      "hit": false,
      "t": 49221.565499999975,
      "d": 83.83234999999695,
      "v": 53
    },
    {
      "midi": 57,
      "hit": false,
      "t": 49221.565499999975,
      "d": 95.80839999999444,
      "v": 57
    },
    {
      "midi": 61,
      "hit": false,
      "t": 49221.565499999975,
      "d": 101.79642499999318,
      "v": 58
    },
    {
      "midi": 66,
      "hit": false,
      "t": 49580.84699999995,
      "d": 179.64074999999866,
      "v": 40
    },
    {
      "midi": 57,
      "hit": false,
      "t": 49580.846999999965,
      "d": 77.84432499999821,
      "v": 76
    },
    {
      "midi": 66,
      "hit": false,
      "t": 49580.846999999965,
      "d": 77.84432499999821,
      "v": 73
    },
    {
      "midi": 61,
      "hit": false,
      "t": 49580.846999999965,
      "d": 83.83234999999695,
      "v": 81
    },
    {
      "midi": 63,
      "hit": false,
      "t": 49580.846999999965,
      "d": 83.83234999999695,
      "v": 79
    },
    {
      "midi": 42,
      "hit": false,
      "t": 49580.846999999994,
      "d": 83.83234999999695,
      "v": 77
    },
    {
      "midi": 69,
      "hit": false,
      "t": 49940.12849999995,
      "d": 179.64074999999866,
      "v": 72
    },
    {
      "midi": 63,
      "hit": false,
      "t": 49940.12849999996,
      "d": 47.90419999999722,
      "v": 49
    },
    {
      "midi": 66,
      "hit": false,
      "t": 49940.12849999996,
      "d": 71.85629999999946,
      "v": 52
    },
    {
      "midi": 61,
      "hit": false,
      "t": 49940.12849999996,
      "d": 77.84432499999821,
      "v": 54
    },
    {
      "midi": 57,
      "hit": false,
      "t": 49940.12849999996,
      "d": 89.82037499999569,
      "v": 57
    },
    {
      "midi": 73,
      "hit": false,
      "t": 50299.409999999945,
      "d": 179.64074999999866,
      "v": 73
    },
    {
      "midi": 63,
      "hit": false,
      "t": 50299.40999999996,
      "d": 83.83234999999695,
      "v": 77
    },
    {
      "midi": 57,
      "hit": false,
      "t": 50299.40999999996,
      "d": 95.80839999999444,
      "v": 74
    },
    {
      "midi": 61,
      "hit": false,
      "t": 50299.40999999996,
      "d": 95.80839999999444,
      "v": 81
    },
    {
      "midi": 66,
      "hit": false,
      "t": 50299.40999999996,
      "d": 95.80839999999444,
      "v": 73
    },
    {
      "midi": 37,
      "hit": false,
      "t": 50299.40999999999,
      "d": 77.84432499999821,
      "v": 77
    },
    {
      "midi": 66,
      "hit": false,
      "t": 50658.69149999994,
      "d": 179.64074999999866,
      "v": 55
    },
    {
      "midi": 63,
      "hit": false,
      "t": 50658.69149999996,
      "d": 41.916174999998475,
      "v": 63
    },
    {
      "midi": 66,
      "hit": false,
      "t": 50658.69149999996,
      "d": 41.916174999998475,
      "v": 59
    },
    {
      "midi": 61,
      "hit": false,
      "t": 50658.69149999996,
      "d": 65.86827500000072,
      "v": 68
    },
    {
      "midi": 57,
      "hit": false,
      "t": 50658.69149999996,
      "d": 77.84432499999821,
      "v": 66
    },
    {
      "midi": 69,
      "hit": false,
      "t": 51017.97299999994,
      "d": 179.64074999999866,
      "v": 75
    },
    {
      "midi": 61,
      "hit": false,
      "t": 51017.972999999954,
      "d": 83.83234999999695,
      "v": 86
    },
    {
      "midi": 63,
      "hit": false,
      "t": 51017.972999999954,
      "d": 83.83234999999695,
      "v": 84
    },
    {
      "midi": 66,
      "hit": false,
      "t": 51017.972999999954,
      "d": 83.83234999999695,
      "v": 75
    },
    {
      "midi": 57,
      "hit": false,
      "t": 51017.972999999954,
      "d": 95.80839999999444,
      "v": 80
    },
    {
      "midi": 42,
      "hit": false,
      "t": 51017.97299999998,
      "d": 65.86827500000072,
      "v": 84
    },
    {
      "midi": 73,
      "hit": false,
      "t": 51377.25449999994,
      "d": 179.64074999999866,
      "v": 69
    },
    {
      "midi": 66,
      "hit": false,
      "t": 51377.25449999995,
      "d": 41.916174999998475,
      "v": 50
    },
    {
      "midi": 63,
      "hit": false,
      "t": 51377.25449999995,
      "d": 53.89222499999596,
      "v": 49
    },
    {
      "midi": 61,
      "hit": false,
      "t": 51377.25449999995,
      "d": 65.86827499999345,
      "v": 52
    },
    {
      "midi": 57,
      "hit": false,
      "t": 51377.25449999995,
      "d": 71.85629999999219,
      "v": 58
    },
    {
      "midi": 78,
      "hit": false,
      "t": 51736.535999999935,
      "d": 179.64074999999866,
      "v": 77
    },
    {
      "midi": 57,
      "hit": false,
      "t": 51736.53599999994,
      "d": 101.79642500000045,
      "v": 75
    },
    {
      "midi": 61,
      "hit": false,
      "t": 51736.53599999994,
      "d": 101.79642500000045,
      "v": 84
    },
    {
      "midi": 63,
      "hit": false,
      "t": 51736.53599999994,
      "d": 101.79642500000045,
      "v": 81
    },
    {
      "midi": 66,
      "hit": false,
      "t": 51736.53599999994,
      "d": 101.79642500000045,
      "v": 77
    },
    {
      "midi": 37,
      "hit": false,
      "t": 51736.535999999986,
      "d": 77.84432499999821,
      "v": 79
    },
    {
      "midi": 73,
      "hit": false,
      "t": 52095.81749999993,
      "d": 179.64074999999866,
      "v": 73
    },
    {
      "midi": 63,
      "hit": false,
      "t": 52095.81749999994,
      "d": 47.90419999999722,
      "v": 50
    },
    {
      "midi": 57,
      "hit": false,
      "t": 52095.81749999994,
      "d": 65.86827500000072,
      "v": 60
    },
    {
      "midi": 66,
      "hit": false,
      "t": 52095.81749999994,
      "d": 65.86827500000072,
      "v": 54
    },
    {
      "midi": 61,
      "hit": false,
      "t": 52095.81749999994,
      "d": 95.80840000000171,
      "v": 55
    },
    {
      "midi": 75,
      "hit": false,
      "t": 52455.09899999993,
      "d": 179.64074999999866,
      "v": 86
    },
    {
      "midi": 58,
      "hit": false,
      "t": 52455.098999999944,
      "d": 95.80840000000171,
      "v": 75
    },
    {
      "midi": 60,
      "hit": false,
      "t": 52455.098999999944,
      "d": 101.79642500000045,
      "v": 83
    },
    {
      "midi": 63,
      "hit": false,
      "t": 52455.098999999944,
      "d": 107.7844499999992,
      "v": 63
    },
    {
      "midi": 66,
      "hit": false,
      "t": 52455.098999999944,
      "d": 107.7844499999992,
      "v": 66
    },
    {
      "midi": 39,
      "hit": false,
      "t": 52455.09899999998,
      "d": 71.85629999999946,
      "v": 71
    },
    {
      "midi": 63,
      "hit": false,
      "t": 52814.38049999994,
      "d": 77.84432499999821,
      "v": 49
    },
    {
      "midi": 58,
      "hit": false,
      "t": 52814.38049999994,
      "d": 89.82037499999569,
      "v": 54
    },
    {
      "midi": 66,
      "hit": false,
      "t": 52814.38049999994,
      "d": 89.82037499999569,
      "v": 51
    },
    {
      "midi": 60,
      "hit": false,
      "t": 52814.38049999994,
      "d": 101.79642499999318,
      "v": 66
    },
    {
      "midi": 58,
      "hit": false,
      "t": 53173.66199999993,
      "d": 71.85629999999946,
      "v": 79
    },
    {
      "midi": 63,
      "hit": false,
      "t": 53173.66199999993,
      "d": 71.85629999999946,
      "v": 84
    },
    {
      "midi": 60,
      "hit": false,
      "t": 53173.66199999993,
      "d": 95.80840000000171,
      "v": 82
    },
    {
      "midi": 66,
      "hit": false,
      "t": 53173.66199999993,
      "d": 95.80840000000171,
      "v": 75
    },
    {
      "midi": 34,
      "hit": false,
      "t": 53173.66199999998,
      "d": 77.84432499999821,
      "v": 71
    },
    {
      "midi": 58,
      "hit": false,
      "t": 53532.943499999936,
      "d": 83.83234999999695,
      "v": 71
    },
    {
      "midi": 60,
      "hit": false,
      "t": 53532.943499999936,
      "d": 89.82037499999569,
      "v": 79
    },
    {
      "midi": 63,
      "hit": false,
      "t": 53532.943499999936,
      "d": 89.82037499999569,
      "v": 69
    },
    {
      "midi": 66,
      "hit": false,
      "t": 53532.943499999936,
      "d": 89.82037499999569,
      "v": 66
    },
    {
      "midi": 72,
      "hit": false,
      "t": 53892.224999999926,
      "d": 137.7245750000002,
      "v": 88
    },
    {
      "midi": 79,
      "hit": false,
      "t": 53892.224999999926,
      "d": 137.7245750000002,
      "v": 88
    },
    {
      "midi": 75,
      "hit": false,
      "t": 54071.865749999924,
      "d": 83.83234999999695,
      "v": 49
    },
    {
      "midi": 67,
      "hit": false,
      "t": 54071.865749999924,
      "d": 119.76049999999668,
      "v": 66
    },
    {
      "midi": 79,
      "hit": false,
      "t": 54251.50649999992,
      "d": 95.80840000000171,
      "v": 73
    },
    {
      "midi": 72,
      "hit": false,
      "t": 54251.50649999992,
      "d": 113.77247500000522,
      "v": 62
    },
    {
      "midi": 75,
      "hit": false,
      "t": 54431.14724999993,
      "d": 83.83234999999695,
      "v": 44
    },
    {
      "midi": 67,
      "hit": false,
      "t": 54431.14724999993,
      "d": 95.80839999999444,
      "v": 65
    },
    {
      "midi": 79,
      "hit": false,
      "t": 54610.78799999992,
      "d": 125.7485250000027,
      "v": 80
    },
    {
      "midi": 72,
      "hit": false,
      "t": 54610.78799999992,
      "d": 149.70062500000495,
      "v": 68
    },
    {
      "midi": 75,
      "hit": false,
      "t": 54790.42874999993,
      "d": 71.85629999999946,
      "v": 49
    },
    {
      "midi": 67,
      "hit": false,
      "t": 54790.42874999993,
      "d": 131.73655000000144,
      "v": 62
    },
    {
      "midi": 79,
      "hit": false,
      "t": 54970.069499999925,
      "d": 119.76049999999668,
      "v": 79
    },
    {
      "midi": 72,
      "hit": false,
      "t": 54970.069499999925,
      "d": 137.7245750000002,
      "v": 69
    },
    {
      "midi": 75,
      "hit": false,
      "t": 55149.710249999924,
      "d": 59.88025000000198,
      "v": 55
    },
    {
      "midi": 67,
      "hit": false,
      "t": 55149.710249999924,
      "d": 113.77247500000522,
      "v": 72
    },
    {
      "midi": 79,
      "hit": false,
      "t": 55329.35099999993,
      "d": 131.73655000000144,
      "v": 83
    },
    {
      "midi": 72,
      "hit": false,
      "t": 55329.35099999993,
      "d": 149.70062500000495,
      "v": 73
    },
    {
      "midi": 75,
      "hit": false,
      "t": 55508.991749999936,
      "d": 65.86827500000072,
      "v": 59
    },
    {
      "midi": 67,
      "hit": false,
      "t": 55508.991749999936,
      "d": 131.73655000000144,
      "v": 58
    },
    {
      "midi": 79,
      "hit": false,
      "t": 55688.632499999934,
      "d": 107.7844499999992,
      "v": 86
    },
    {
      "midi": 72,
      "hit": false,
      "t": 55688.632499999934,
      "d": 143.71259999999893,
      "v": 69
    },
    {
      "midi": 75,
      "hit": false,
      "t": 55868.27324999993,
      "d": 71.85629999999946,
      "v": 68
    },
    {
      "midi": 67,
      "hit": false,
      "t": 55868.27324999993,
      "d": 131.73655000000144,
      "v": 72
    },
    {
      "midi": 72,
      "hit": false,
      "t": 56047.91399999993,
      "d": 131.73655000000144,
      "v": 66
    },
    {
      "midi": 79,
      "hit": false,
      "t": 56047.91399999993,
      "d": 155.6886500000037,
      "v": 80
    },
    {
      "midi": 75,
      "hit": false,
      "t": 56227.55474999994,
      "d": 71.85629999999946,
      "v": 68
    },
    {
      "midi": 67,
      "hit": false,
      "t": 56227.55474999994,
      "d": 155.68864999999641,
      "v": 73
    },
    {
      "midi": 72,
      "hit": false,
      "t": 56407.195499999936,
      "d": 125.7485250000027,
      "v": 88
    },
    {
      "midi": 79,
      "hit": false,
      "t": 56407.195499999936,
      "d": 173.65272499999992,
      "v": 86
    },
    {
      "midi": 75,
      "hit": false,
      "t": 56586.836249999935,
      "d": 59.88025000000198,
      "v": 63
    },
    {
      "midi": 67,
      "hit": false,
      "t": 56586.836249999935,
      "d": 107.7844499999992,
      "v": 69
    },
    {
      "midi": 83,
      "hit": false,
      "t": 56766.47699999993,
      "d": 167.66470000000118,
      "v": 83
    },
    {
      "midi": 75,
      "hit": false,
      "t": 56766.47699999993,
      "d": 179.64074999999866,
      "v": 79
    },
    {
      "midi": 82,
      "hit": false,
      "t": 56946.11774999993,
      "d": 89.82037500000297,
      "v": 68
    },
    {
      "midi": 73,
      "hit": false,
      "t": 56946.11774999993,
      "d": 113.77247500000522,
      "v": 77
    },
    {
      "midi": 80,
      "hit": false,
      "t": 57125.75849999994,
      "d": 83.83234999999695,
      "v": 84
    },
    {
      "midi": 71,
      "hit": false,
      "t": 57125.75849999994,
      "d": 101.79642500000045,
      "v": 88
    },
    {
      "midi": 83,
      "hit": false,
      "t": 57485.039999999935,
      "d": 89.82037500000297,
      "v": 86
    },
    {
      "midi": 75,
      "hit": false,
      "t": 57485.039999999935,
      "d": 101.79642500000045,
      "v": 75
    },
    {
      "midi": 82,
      "hit": false,
      "t": 57664.680749999934,
      "d": 71.85629999999946,
      "v": 73
    },
    {
      "midi": 73,
      "hit": false,
      "t": 57664.680749999934,
      "d": 95.80840000000171,
      "v": 79
    },
    {
      "midi": 80,
      "hit": false,
      "t": 57844.32149999993,
      "d": 95.80840000000171,
      "v": 79
    },
    {
      "midi": 71,
      "hit": false,
      "t": 57844.32149999993,
      "d": 119.76050000000396,
      "v": 83
    },
    {
      "midi": 80,
      "hit": false,
      "t": 58203.60299999994,
      "d": 77.84432499999821,
      "v": 86
    },
    {
      "midi": 72,
      "hit": false,
      "t": 58203.60299999994,
      "d": 131.73655000000144,
      "v": 90
    },
    {
      "midi": 79,
      "hit": false,
      "t": 58383.243749999936,
      "d": 89.82037500000297,
      "v": 71
    },
    {
      "midi": 70,
      "hit": false,
      "t": 58383.243749999936,
      "d": 107.78445000000647,
      "v": 52
    },
    {
      "midi": 68,
      "hit": false,
      "t": 58562.88449999994,
      "d": 65.86827500000072,
      "v": 79
    },
    {
      "midi": 77,
      "hit": false,
      "t": 58562.88449999994,
      "d": 113.77247499999794,
      "v": 76
    },
    {
      "midi": 80,
      "hit": false,
      "t": 58922.16599999994,
      "d": 65.86827500000072,
      "v": 92
    },
    {
      "midi": 72,
      "hit": false,
      "t": 58922.16599999994,
      "d": 119.76050000000396,
      "v": 97
    },
    {
      "midi": 79,
      "hit": false,
      "t": 59101.806749999945,
      "d": 65.86827500000072,
      "v": 74
    },
    {
      "midi": 70,
      "hit": false,
      "t": 59101.806749999945,
      "d": 77.84432499999821,
      "v": 63
    },
    {
      "midi": 68,
      "hit": false,
      "t": 59281.447499999944,
      "d": 89.82037500000297,
      "v": 86
    },
    {
      "midi": 77,
      "hit": false,
      "t": 59281.447499999944,
      "d": 89.82037500000297,
      "v": 88
    },
    {
      "midi": 87,
      "hit": false,
      "t": 61077.854999999945,
      "d": 155.68864999999641,
      "v": 51
    },
    {
      "midi": 80,
      "hit": false,
      "t": 61077.854999999945,
      "d": 191.61679999999615,
      "v": 62
    },
    {
      "midi": 87,
      "hit": false,
      "t": 61437.13649999994,
      "d": 149.70062499999767,
      "v": 51
    },
    {
      "midi": 80,
      "hit": false,
      "t": 61437.13649999994,
      "d": 179.64074999999866,
      "v": 51
    },
    {
      "midi": 83,
      "hit": false,
      "t": 61616.77724999994,
      "d": 155.68864999999641,
      "v": 59
    },
    {
      "midi": 80,
      "hit": false,
      "t": 61796.41799999994,
      "d": 161.67667500000243,
      "v": 44
    },
    {
      "midi": 88,
      "hit": false,
      "t": 61796.41799999994,
      "d": 161.67667500000243,
      "v": 63
    },
    {
      "midi": 83,
      "hit": false,
      "t": 61976.058749999946,
      "d": 155.68864999999641,
      "v": 53
    },
    {
      "midi": 88,
      "hit": false,
      "t": 62155.699499999944,
      "d": 95.80840000000171,
      "v": 50
    },
    {
      "midi": 80,
      "hit": false,
      "t": 62155.699499999944,
      "d": 149.70062500000495,
      "v": 42
    },
    {
      "midi": 83,
      "hit": false,
      "t": 62335.34024999995,
      "d": 125.7485250000027,
      "v": 50
    },
    {
      "midi": 80,
      "hit": false,
      "t": 62514.980999999956,
      "d": 149.70062499999767,
      "v": 50
    },
    {
      "midi": 87,
      "hit": false,
      "t": 62514.980999999956,
      "d": 155.68864999999641,
      "v": 49
    },
    {
      "midi": 83,
      "hit": false,
      "t": 62694.621749999955,
      "d": 149.70062499999767,
      "v": 50
    },
    {
      "midi": 80,
      "hit": false,
      "t": 62874.26249999995,
      "d": 167.66470000000118,
      "v": 43
    },
    {
      "midi": 87,
      "hit": false,
      "t": 62874.26249999995,
      "d": 215.5688999999984,
      "v": 42
    },
    {
      "midi": 83,
      "hit": false,
      "t": 63053.90324999995,
      "d": 149.70062499999767,
      "v": 53
    },
    {
      "midi": 88,
      "hit": false,
      "t": 63233.54399999995,
      "d": 155.68864999999641,
      "v": 60
    },
    {
      "midi": 80,
      "hit": false,
      "t": 63233.54399999995,
      "d": 173.65272499999992,
      "v": 46
    },
    {
      "midi": 83,
      "hit": false,
      "t": 63413.18474999995,
      "d": 131.73655000000144,
      "v": 53
    },
    {
      "midi": 88,
      "hit": false,
      "t": 63592.82549999995,
      "d": 149.70062499999767,
      "v": 55
    },
    {
      "midi": 80,
      "hit": false,
      "t": 63592.82549999995,
      "d": 179.64074999999866,
      "v": 41
    },
    {
      "midi": 83,
      "hit": false,
      "t": 63772.46624999995,
      "d": 155.68864999999641,
      "v": 55
    },
    {
      "midi": 87,
      "hit": false,
      "t": 63952.106999999945,
      "d": 101.79642500000045,
      "v": 56
    },
    {
      "midi": 87,
      "hit": false,
      "t": 64311.38849999994,
      "d": 95.80840000000171,
      "v": 57
    },
    {
      "midi": 87,
      "hit": false,
      "t": 64670.66999999995,
      "d": 137.7245750000002,
      "v": 104
    },
    {
      "midi": 85,
      "hit": false,
      "t": 65029.951499999945,
      "d": 149.70062499999767,
      "v": 89
    },
    {
      "midi": 83,
      "hit": false,
      "t": 65209.59224999994,
      "d": 143.71259999999893,
      "v": 62
    },
    {
      "midi": 82,
      "hit": false,
      "t": 65389.23299999994,
      "d": 89.82037500000297,
      "v": 86
    },
    {
      "midi": 79,
      "hit": false,
      "t": 65748.51449999995,
      "d": 59.88025000000198,
      "v": 80
    },
    {
      "midi": 87,
      "hit": false,
      "t": 65748.51449999995,
      "d": 77.84432499999821,
      "v": 84
    },
    {
      "midi": 83,
      "hit": false,
      "t": 66107.79599999994,
      "d": 65.86827500000072,
      "v": 88
    },
    {
      "midi": 80,
      "hit": false,
      "t": 66107.79599999994,
      "d": 83.83234999999695,
      "v": 69
    },
    {
      "midi": 54,
      "hit": false,
      "t": 78323.36699999994,
      "d": 29.940124999993714,
      "v": 86
    },
    {
      "midi": 61,
      "hit": false,
      "t": 78323.36699999994,
      "d": 35.928149999992456,
      "v": 64
    },
    {
      "midi": 57,
      "hit": false,
      "t": 78323.36699999994,
      "d": 53.892224999988684,
      "v": 60
    },
    {
      "midi": 42,
      "hit": false,
      "t": 78323.36699999998,
      "d": 107.78445000000647,
      "v": 84
    },
    {
      "midi": 57,
      "hit": false,
      "t": 78682.64849999992,
      "d": 53.892225000003236,
      "v": 62
    },
    {
      "midi": 54,
      "hit": false,
      "t": 78682.64849999992,
      "d": 65.86827500000072,
      "v": 69
    },
    {
      "midi": 61,
      "hit": false,
      "t": 78682.64849999992,
      "d": 65.86827500000072,
      "v": 73
    },
    {
      "midi": 54,
      "hit": false,
      "t": 79041.92999999992,
      "d": 65.86827500000072,
      "v": 79
    },
    {
      "midi": 57,
      "hit": false,
      "t": 79041.92999999992,
      "d": 65.86827500000072,
      "v": 73
    },
    {
      "midi": 61,
      "hit": false,
      "t": 79041.92999999992,
      "d": 65.86827500000072,
      "v": 81
    },
    {
      "midi": 37,
      "hit": false,
      "t": 79041.93,
      "d": 119.76050000000396,
      "v": 92
    },
    {
      "midi": 61,
      "hit": false,
      "t": 79401.21149999992,
      "d": 35.92815000000701,
      "v": 49
    },
    {
      "midi": 57,
      "hit": false,
      "t": 79401.21149999992,
      "d": 53.892225000003236,
      "v": 73
    },
    {
      "midi": 54,
      "hit": false,
      "t": 79401.21149999992,
      "d": 59.88025000000198,
      "v": 57
    },
    {
      "midi": 61,
      "hit": false,
      "t": 79760.49299999991,
      "d": 35.92815000000701,
      "v": 54
    },
    {
      "midi": 57,
      "hit": false,
      "t": 79760.49299999991,
      "d": 41.91617500000575,
      "v": 70
    },
    {
      "midi": 54,
      "hit": false,
      "t": 79760.49299999991,
      "d": 71.85629999999946,
      "v": 55
    },
    {
      "midi": 42,
      "hit": false,
      "t": 79760.493,
      "d": 101.79642499999318,
      "v": 89
    },
    {
      "midi": 54,
      "hit": false,
      "t": 80119.77449999991,
      "d": 47.904200000004494,
      "v": 58
    },
    {
      "midi": 57,
      "hit": false,
      "t": 80119.77449999991,
      "d": 47.904200000004494,
      "v": 73
    },
    {
      "midi": 61,
      "hit": false,
      "t": 80119.77449999991,
      "d": 47.904200000004494,
      "v": 57
    },
    {
      "midi": 57,
      "hit": false,
      "t": 80479.05599999991,
      "d": 47.904200000004494,
      "v": 69
    },
    {
      "midi": 61,
      "hit": false,
      "t": 80479.05599999991,
      "d": 47.904200000004494,
      "v": 55
    },
    {
      "midi": 54,
      "hit": false,
      "t": 80479.05599999991,
      "d": 71.85629999999946,
      "v": 63
    },
    {
      "midi": 37,
      "hit": false,
      "t": 80479.056,
      "d": 113.77247500000522,
      "v": 100
    },
    {
      "midi": 57,
      "hit": false,
      "t": 80838.3374999999,
      "d": 41.91617500000575,
      "v": 67
    },
    {
      "midi": 54,
      "hit": false,
      "t": 80838.3374999999,
      "d": 53.892225000003236,
      "v": 63
    },
    {
      "midi": 61,
      "hit": false,
      "t": 80838.3374999999,
      "d": 53.892225000003236,
      "v": 66
    },
    {
      "midi": 53,
      "hit": false,
      "t": 81197.6189999999,
      "d": 41.91617500000575,
      "v": 65
    },
    {
      "midi": 57,
      "hit": false,
      "t": 81197.6189999999,
      "d": 59.88025000000198,
      "v": 73
    },
    {
      "midi": 62,
      "hit": false,
      "t": 81197.6189999999,
      "d": 59.88025000000198,
      "v": 66
    },
    {
      "midi": 38,
      "hit": false,
      "t": 81197.619,
      "d": 113.77247500000522,
      "v": 88
    },
    {
      "midi": 53,
      "hit": false,
      "t": 81556.9004999999,
      "d": 47.904200000004494,
      "v": 68
    },
    {
      "midi": 57,
      "hit": false,
      "t": 81556.9004999999,
      "d": 47.904200000004494,
      "v": 73
    },
    {
      "midi": 62,
      "hit": false,
      "t": 81556.9004999999,
      "d": 47.904200000004494,
      "v": 66
    },
    {
      "midi": 62,
      "hit": false,
      "t": 81916.1819999999,
      "d": 41.91617500000575,
      "v": 66
    },
    {
      "midi": 53,
      "hit": false,
      "t": 81916.1819999999,
      "d": 53.892225000003236,
      "v": 66
    },
    {
      "midi": 57,
      "hit": false,
      "t": 81916.1819999999,
      "d": 53.892225000003236,
      "v": 73
    },
    {
      "midi": 45,
      "hit": false,
      "t": 81916.18200000002,
      "d": 89.82037499999569,
      "v": 94
    },
    {
      "midi": 57,
      "hit": false,
      "t": 82275.4634999999,
      "d": 47.904200000004494,
      "v": 73
    },
    {
      "midi": 62,
      "hit": false,
      "t": 82275.4634999999,
      "d": 53.892225000003236,
      "v": 66
    },
    {
      "midi": 53,
      "hit": false,
      "t": 82275.4634999999,
      "d": 59.88025000000198,
      "v": 66
    },
    {
      "midi": 54,
      "hit": false,
      "t": 82634.7449999999,
      "d": 29.940124999993714,
      "v": 69
    },
    {
      "midi": 59,
      "hit": false,
      "t": 82634.7449999999,
      "d": 47.90419999998994,
      "v": 74
    },
    {
      "midi": 62,
      "hit": false,
      "t": 82634.7449999999,
      "d": 65.86827499998617,
      "v": 78
    },
    {
      "midi": 47,
      "hit": false,
      "t": 82634.74500000001,
      "d": 83.83234999999695,
      "v": 99
    },
    {
      "midi": 54,
      "hit": false,
      "t": 82994.02649999988,
      "d": 47.904200000004494,
      "v": 59
    },
    {
      "midi": 59,
      "hit": false,
      "t": 82994.02649999988,
      "d": 53.892225000003236,
      "v": 76
    },
    {
      "midi": 62,
      "hit": false,
      "t": 82994.02649999988,
      "d": 77.84432499999821,
      "v": 72
    },
    {
      "midi": 45,
      "hit": false,
      "t": 82994.0265,
      "d": 77.84432499999821,
      "v": 92
    },
    {
      "midi": 54,
      "hit": false,
      "t": 83353.30799999987,
      "d": 47.904200000004494,
      "v": 64
    },
    {
      "midi": 59,
      "hit": false,
      "t": 83353.30799999987,
      "d": 47.904200000004494,
      "v": 82
    },
    {
      "midi": 62,
      "hit": false,
      "t": 83353.30799999987,
      "d": 47.904200000004494,
      "v": 74
    },
    {
      "midi": 44,
      "hit": false,
      "t": 83353.308,
      "d": 59.88025000000198,
      "v": 100
    },
    {
      "midi": 54,
      "hit": false,
      "t": 83712.58949999987,
      "d": 35.92815000000701,
      "v": 57
    },
    {
      "midi": 59,
      "hit": false,
      "t": 83712.58949999987,
      "d": 47.904200000004494,
      "v": 76
    },
    {
      "midi": 62,
      "hit": false,
      "t": 83712.58949999987,
      "d": 47.904200000004494,
      "v": 68
    },
    {
      "midi": 42,
      "hit": false,
      "t": 83712.5895,
      "d": 65.86827500000072,
      "v": 104
    },
    {
      "midi": 54,
      "hit": false,
      "t": 84071.87099999987,
      "d": 29.940124999993714,
      "v": 86
    },
    {
      "midi": 61,
      "hit": false,
      "t": 84071.87099999987,
      "d": 35.928149999992456,
      "v": 64
    },
    {
      "midi": 57,
      "hit": false,
      "t": 84071.87099999987,
      "d": 53.892224999988684,
      "v": 60
    },
    {
      "midi": 42,
      "hit": false,
      "t": 84071.871,
      "d": 89.82037499999569,
      "v": 104
    },
    {
      "midi": 57,
      "hit": false,
      "t": 84431.15249999985,
      "d": 53.892225000003236,
      "v": 62
    },
    {
      "midi": 54,
      "hit": false,
      "t": 84431.15249999985,
      "d": 65.86827500000072,
      "v": 69
    },
    {
      "midi": 61,
      "hit": false,
      "t": 84431.15249999985,
      "d": 65.86827500000072,
      "v": 73
    },
    {
      "midi": 54,
      "hit": false,
      "t": 84790.43399999985,
      "d": 65.86827500000072,
      "v": 79
    },
    {
      "midi": 57,
      "hit": false,
      "t": 84790.43399999985,
      "d": 65.86827500000072,
      "v": 73
    },
    {
      "midi": 61,
      "hit": false,
      "t": 84790.43399999985,
      "d": 65.86827500000072,
      "v": 81
    },
    {
      "midi": 37,
      "hit": false,
      "t": 84790.434,
      "d": 107.78445000000647,
      "v": 100
    },
    {
      "midi": 61,
      "hit": false,
      "t": 85149.71549999985,
      "d": 35.92815000000701,
      "v": 49
    },
    {
      "midi": 57,
      "hit": false,
      "t": 85149.71549999985,
      "d": 53.892225000003236,
      "v": 73
    },
    {
      "midi": 54,
      "hit": false,
      "t": 85149.71549999985,
      "d": 59.88025000000198,
      "v": 57
    },
    {
      "midi": 61,
      "hit": false,
      "t": 85508.99699999984,
      "d": 35.92815000000701,
      "v": 54
    },
    {
      "midi": 57,
      "hit": false,
      "t": 85508.99699999984,
      "d": 41.91617500000575,
      "v": 70
    },
    {
      "midi": 54,
      "hit": false,
      "t": 85508.99699999984,
      "d": 71.85629999999946,
      "v": 55
    },
    {
      "midi": 42,
      "hit": false,
      "t": 85508.997,
      "d": 137.7245750000002,
      "v": 96
    },
    {
      "midi": 54,
      "hit": false,
      "t": 85868.27849999984,
      "d": 47.904200000004494,
      "v": 58
    },
    {
      "midi": 57,
      "hit": false,
      "t": 85868.27849999984,
      "d": 47.904200000004494,
      "v": 73
    },
    {
      "midi": 61,
      "hit": false,
      "t": 85868.27849999984,
      "d": 47.904200000004494,
      "v": 57
    },
    {
      "midi": 57,
      "hit": false,
      "t": 86227.55999999984,
      "d": 47.904200000004494,
      "v": 69
    },
    {
      "midi": 61,
      "hit": false,
      "t": 86227.55999999984,
      "d": 47.904200000004494,
      "v": 55
    },
    {
      "midi": 54,
      "hit": false,
      "t": 86227.55999999984,
      "d": 71.85629999999946,
      "v": 63
    },
    {
      "midi": 37,
      "hit": false,
      "t": 86227.56,
      "d": 119.76050000000396,
      "v": 100
    },
    {
      "midi": 57,
      "hit": false,
      "t": 86586.84149999983,
      "d": 41.91617500000575,
      "v": 67
    },
    {
      "midi": 54,
      "hit": false,
      "t": 86586.84149999983,
      "d": 53.892225000003236,
      "v": 63
    },
    {
      "midi": 61,
      "hit": false,
      "t": 86586.84149999983,
      "d": 53.892225000003236,
      "v": 66
    },
    {
      "midi": 53,
      "hit": false,
      "t": 86946.12299999983,
      "d": 41.91617500000575,
      "v": 65
    },
    {
      "midi": 57,
      "hit": false,
      "t": 86946.12299999983,
      "d": 59.88025000000198,
      "v": 73
    },
    {
      "midi": 62,
      "hit": false,
      "t": 86946.12299999983,
      "d": 59.88025000000198,
      "v": 66
    },
    {
      "midi": 38,
      "hit": false,
      "t": 86946.123,
      "d": 77.84432499999821,
      "v": 92
    },
    {
      "midi": 53,
      "hit": false,
      "t": 87305.40449999983,
      "d": 47.904200000004494,
      "v": 68
    },
    {
      "midi": 57,
      "hit": false,
      "t": 87305.40449999983,
      "d": 47.904200000004494,
      "v": 73
    },
    {
      "midi": 62,
      "hit": false,
      "t": 87305.40449999983,
      "d": 47.904200000004494,
      "v": 66
    },
    {
      "midi": 62,
      "hit": false,
      "t": 87664.68599999983,
      "d": 41.91617500000575,
      "v": 66
    },
    {
      "midi": 53,
      "hit": false,
      "t": 87664.68599999983,
      "d": 53.892225000003236,
      "v": 66
    },
    {
      "midi": 57,
      "hit": false,
      "t": 87664.68599999983,
      "d": 53.892225000003236,
      "v": 73
    },
    {
      "midi": 45,
      "hit": false,
      "t": 87664.686,
      "d": 101.79642499999318,
      "v": 97
    },
    {
      "midi": 57,
      "hit": false,
      "t": 88023.96749999982,
      "d": 47.904200000004494,
      "v": 73
    },
    {
      "midi": 62,
      "hit": false,
      "t": 88023.96749999982,
      "d": 53.892225000003236,
      "v": 66
    },
    {
      "midi": 53,
      "hit": false,
      "t": 88023.96749999982,
      "d": 59.88025000000198,
      "v": 66
    },
    {
      "midi": 54,
      "hit": false,
      "t": 88383.24899999982,
      "d": 29.940124999993714,
      "v": 69
    },
    {
      "midi": 59,
      "hit": false,
      "t": 88383.24899999982,
      "d": 47.90419999998994,
      "v": 74
    },
    {
      "midi": 62,
      "hit": false,
      "t": 88383.24899999982,
      "d": 65.86827499998617,
      "v": 78
    },
    {
      "midi": 47,
      "hit": false,
      "t": 88383.249,
      "d": 71.85629999999946,
      "v": 99
    },
    {
      "midi": 54,
      "hit": false,
      "t": 88742.5304999998,
      "d": 47.904200000004494,
      "v": 59
    },
    {
      "midi": 59,
      "hit": false,
      "t": 88742.5304999998,
      "d": 53.892225000003236,
      "v": 76
    },
    {
      "midi": 62,
      "hit": false,
      "t": 88742.5304999998,
      "d": 77.84432499999821,
      "v": 72
    },
    {
      "midi": 45,
      "hit": false,
      "t": 88742.5305,
      "d": 71.85629999999946,
      "v": 94
    },
    {
      "midi": 54,
      "hit": false,
      "t": 89101.8119999998,
      "d": 47.904200000004494,
      "v": 64
    },
    {
      "midi": 59,
      "hit": false,
      "t": 89101.8119999998,
      "d": 47.904200000004494,
      "v": 82
    },
    {
      "midi": 62,
      "hit": false,
      "t": 89101.8119999998,
      "d": 47.904200000004494,
      "v": 74
    },
    {
      "midi": 44,
      "hit": false,
      "t": 89101.81199999999,
      "d": 53.892225000003236,
      "v": 100
    },
    {
      "midi": 54,
      "hit": false,
      "t": 89461.0934999998,
      "d": 35.92815000000701,
      "v": 57
    },
    {
      "midi": 59,
      "hit": false,
      "t": 89461.0934999998,
      "d": 47.904200000004494,
      "v": 76
    },
    {
      "midi": 62,
      "hit": false,
      "t": 89461.0934999998,
      "d": 47.904200000004494,
      "v": 68
    },
    {
      "midi": 42,
      "hit": false,
      "t": 89461.09349999999,
      "d": 59.88025000000198,
      "v": 109
    },
    {
      "midi": 42,
      "hit": false,
      "t": 89820.37499999999,
      "d": 89.82037499999569,
      "v": 95
    },
    {
      "midi": 54,
      "hit": false,
      "t": 89820.37499999999,
      "d": 89.82037499999569,
      "v": 95
    },
    {
      "midi": 37,
      "hit": false,
      "t": 90179.65649999998,
      "d": 89.82037499999569,
      "v": 95
    },
    {
      "midi": 49,
      "hit": false,
      "t": 90179.65649999998,
      "d": 89.82037499999569,
      "v": 95
    },
    {
      "midi": 38,
      "hit": false,
      "t": 90538.93799999998,
      "d": 65.86827500000072,
      "v": 100
    },
    {
      "midi": 50,
      "hit": false,
      "t": 90538.93799999998,
      "d": 65.86827500000072,
      "v": 100
    },
    {
      "midi": 42,
      "hit": false,
      "t": 91257.50099999997,
      "d": 89.82037499999569,
      "v": 99
    },
    {
      "midi": 54,
      "hit": false,
      "t": 91257.50099999997,
      "d": 89.82037499999569,
      "v": 99
    },
    {
      "midi": 37,
      "hit": false,
      "t": 91616.78249999997,
      "d": 83.83234999999695,
      "v": 95
    },
    {
      "midi": 49,
      "hit": false,
      "t": 91616.78249999997,
      "d": 83.83234999999695,
      "v": 95
    },
    {
      "midi": 38,
      "hit": false,
      "t": 91976.06399999997,
      "d": 83.83234999999695,
      "v": 100
    },
    {
      "midi": 50,
      "hit": false,
      "t": 91976.06399999997,
      "d": 83.83234999999695,
      "v": 100
    },
    {
      "midi": 37,
      "hit": false,
      "t": 92335.34549999997,
      "d": 83.83234999999695,
      "v": 95
    },
    {
      "midi": 49,
      "hit": false,
      "t": 92335.34549999997,
      "d": 83.83234999999695,
      "v": 95
    },
    {
      "midi": 64,
      "hit": false,
      "t": 94850.3159999998,
      "d": 65.86827500000072,
      "v": 60
    },
    {
      "midi": 55,
      "hit": false,
      "t": 94850.3159999998,
      "d": 77.84432499999821,
      "v": 73
    },
    {
      "midi": 59,
      "hit": false,
      "t": 94850.3159999998,
      "d": 77.84432499999821,
      "v": 69
    },
    {
      "midi": 61,
      "hit": false,
      "t": 94850.3159999998,
      "d": 77.84432499999821,
      "v": 77
    },
    {
      "midi": 59,
      "hit": false,
      "t": 94850.31599999993,
      "d": 179.64075000000594,
      "v": 50
    },
    {
      "midi": 40,
      "hit": false,
      "t": 94850.31599999996,
      "d": 89.82037499999569,
      "v": 84
    },
    {
      "midi": 52,
      "hit": false,
      "t": 94850.31599999996,
      "d": 89.82037499999569,
      "v": 89
    },
    {
      "midi": 59,
      "hit": false,
      "t": 95209.5974999998,
      "d": 89.82037499999569,
      "v": 51
    },
    {
      "midi": 61,
      "hit": false,
      "t": 95209.5974999998,
      "d": 89.82037499999569,
      "v": 54
    },
    {
      "midi": 64,
      "hit": false,
      "t": 95209.5974999998,
      "d": 89.82037499999569,
      "v": 46
    },
    {
      "midi": 55,
      "hit": false,
      "t": 95209.5974999998,
      "d": 107.78444999999192,
      "v": 56
    },
    {
      "midi": 61,
      "hit": false,
      "t": 95209.59749999995,
      "d": 179.64075000000594,
      "v": 43
    },
    {
      "midi": 55,
      "hit": false,
      "t": 95568.8789999998,
      "d": 77.84432499999821,
      "v": 76
    },
    {
      "midi": 64,
      "hit": false,
      "t": 95568.8789999998,
      "d": 77.84432499999821,
      "v": 66
    },
    {
      "midi": 59,
      "hit": false,
      "t": 95568.8789999998,
      "d": 101.79642499999318,
      "v": 79
    },
    {
      "midi": 61,
      "hit": false,
      "t": 95568.8789999998,
      "d": 101.79642499999318,
      "v": 77
    },
    {
      "midi": 47,
      "hit": false,
      "t": 95568.87899999996,
      "d": 47.904200000004494,
      "v": 86
    },
    {
      "midi": 35,
      "hit": false,
      "t": 95568.87899999996,
      "d": 65.86827500000072,
      "v": 89
    },
    {
      "midi": 64,
      "hit": false,
      "t": 95568.87899999996,
      "d": 179.64075000000594,
      "v": 64
    },
    {
      "midi": 64,
      "hit": false,
      "t": 95928.1604999998,
      "d": 41.91617500000575,
      "v": 46
    },
    {
      "midi": 55,
      "hit": false,
      "t": 95928.1604999998,
      "d": 77.84432500001276,
      "v": 57
    },
    {
      "midi": 59,
      "hit": false,
      "t": 95928.1604999998,
      "d": 89.82037500001024,
      "v": 56
    },
    {
      "midi": 61,
      "hit": false,
      "t": 95928.1604999998,
      "d": 89.82037500001024,
      "v": 55
    },
    {
      "midi": 67,
      "hit": false,
      "t": 95928.16049999997,
      "d": 179.64075000000594,
      "v": 85
    },
    {
      "midi": 61,
      "hit": false,
      "t": 96287.4419999998,
      "d": 83.83234999999695,
      "v": 71
    },
    {
      "midi": 64,
      "hit": false,
      "t": 96287.4419999998,
      "d": 83.83234999999695,
      "v": 64
    },
    {
      "midi": 55,
      "hit": false,
      "t": 96287.4419999998,
      "d": 95.80839999999444,
      "v": 68
    },
    {
      "midi": 59,
      "hit": false,
      "t": 96287.4419999998,
      "d": 95.80839999999444,
      "v": 69
    },
    {
      "midi": 52,
      "hit": false,
      "t": 96287.44199999995,
      "d": 65.86827500000072,
      "v": 86
    },
    {
      "midi": 40,
      "hit": false,
      "t": 96287.44199999995,
      "d": 77.84432499999821,
      "v": 81
    },
    {
      "midi": 64,
      "hit": false,
      "t": 96287.44199999998,
      "d": 359.2814999999973,
      "v": 51
    },
    {
      "midi": 64,
      "hit": false,
      "t": 96646.7234999998,
      "d": 35.92815000000701,
      "v": 43
    },
    {
      "midi": 55,
      "hit": false,
      "t": 96646.7234999998,
      "d": 77.84432500001276,
      "v": 55
    },
    {
      "midi": 59,
      "hit": false,
      "t": 96646.7234999998,
      "d": 89.82037500001024,
      "v": 51
    },
    {
      "midi": 61,
      "hit": false,
      "t": 96646.7234999998,
      "d": 95.80840000000899,
      "v": 51
    },
    {
      "midi": 67,
      "hit": false,
      "t": 96646.72349999998,
      "d": 179.64075000000594,
      "v": 80
    },
    {
      "midi": 64,
      "hit": false,
      "t": 97006.00499999982,
      "d": 71.85629999999946,
      "v": 68
    },
    {
      "midi": 55,
      "hit": false,
      "t": 97006.00499999982,
      "d": 95.80839999999444,
      "v": 69
    },
    {
      "midi": 59,
      "hit": false,
      "t": 97006.00499999982,
      "d": 113.77247499999066,
      "v": 77
    },
    {
      "midi": 61,
      "hit": false,
      "t": 97006.00499999982,
      "d": 113.77247499999066,
      "v": 75
    },
    {
      "midi": 35,
      "hit": false,
      "t": 97006.00499999995,
      "d": 59.88025000000198,
      "v": 79
    },
    {
      "midi": 47,
      "hit": false,
      "t": 97006.00499999995,
      "d": 59.88025000000198,
      "v": 79
    },
    {
      "midi": 76,
      "hit": false,
      "t": 97006.00499999999,
      "d": 359.2814999999973,
      "v": 81
    },
    {
      "midi": 64,
      "hit": false,
      "t": 97365.28649999981,
      "d": 65.86827500000072,
      "v": 43
    },
    {
      "midi": 55,
      "hit": false,
      "t": 97365.28649999981,
      "d": 77.84432499999821,
      "v": 54
    },
    {
      "midi": 59,
      "hit": false,
      "t": 97365.28649999981,
      "d": 77.84432499999821,
      "v": 49
    },
    {
      "midi": 61,
      "hit": false,
      "t": 97365.28649999981,
      "d": 77.84432499999821,
      "v": 46
    },
    {
      "midi": 64,
      "hit": false,
      "t": 97365.28649999999,
      "d": 359.2814999999973,
      "v": 42
    },
    {
      "midi": 55,
      "hit": false,
      "t": 97724.56799999981,
      "d": 95.80839999999444,
      "v": 72
    },
    {
      "midi": 64,
      "hit": false,
      "t": 97724.56799999981,
      "d": 95.80839999999444,
      "v": 69
    },
    {
      "midi": 59,
      "hit": false,
      "t": 97724.56799999981,
      "d": 107.78444999999192,
      "v": 77
    },
    {
      "midi": 61,
      "hit": false,
      "t": 97724.56799999981,
      "d": 107.78444999999192,
      "v": 77
    },
    {
      "midi": 52,
      "hit": false,
      "t": 97724.56799999996,
      "d": 65.86827500000072,
      "v": 81
    },
    {
      "midi": 40,
      "hit": false,
      "t": 97724.56799999996,
      "d": 89.82037499999569,
      "v": 73
    },
    {
      "midi": 67,
      "hit": false,
      "t": 97724.56799999998,
      "d": 179.64075000000594,
      "v": 72
    },
    {
      "midi": 64,
      "hit": false,
      "t": 98083.84949999981,
      "d": 47.904200000004494,
      "v": 51
    },
    {
      "midi": 61,
      "hit": false,
      "t": 98083.84949999981,
      "d": 59.88025000000198,
      "v": 56
    },
    {
      "midi": 55,
      "hit": false,
      "t": 98083.84949999981,
      "d": 71.85629999999946,
      "v": 58
    },
    {
      "midi": 59,
      "hit": false,
      "t": 98083.84949999981,
      "d": 71.85629999999946,
      "v": 58
    },
    {
      "midi": 71,
      "hit": false,
      "t": 98083.8495,
      "d": 179.64075000000594,
      "v": 54
    },
    {
      "midi": 59,
      "hit": false,
      "t": 98443.1309999998,
      "d": 83.83234999999695,
      "v": 75
    },
    {
      "midi": 61,
      "hit": false,
      "t": 98443.1309999998,
      "d": 83.83234999999695,
      "v": 73
    },
    {
      "midi": 64,
      "hit": false,
      "t": 98443.1309999998,
      "d": 83.83234999999695,
      "v": 69
    },
    {
      "midi": 55,
      "hit": false,
      "t": 98443.1309999998,
      "d": 89.82037499999569,
      "v": 73
    },
    {
      "midi": 35,
      "hit": false,
      "t": 98443.13099999995,
      "d": 77.84432499999821,
      "v": 84
    },
    {
      "midi": 47,
      "hit": false,
      "t": 98443.13099999995,
      "d": 77.84432499999821,
      "v": 84
    },
    {
      "midi": 76,
      "hit": false,
      "t": 98443.13100000001,
      "d": 179.64075000000594,
      "v": 60
    },
    {
      "midi": 64,
      "hit": false,
      "t": 98802.4124999998,
      "d": 71.85629999999946,
      "v": 54
    },
    {
      "midi": 61,
      "hit": false,
      "t": 98802.4124999998,
      "d": 77.84432499999821,
      "v": 51
    },
    {
      "midi": 55,
      "hit": false,
      "t": 98802.4124999998,
      "d": 95.80839999999444,
      "v": 60
    },
    {
      "midi": 59,
      "hit": false,
      "t": 98802.4124999998,
      "d": 95.80839999999444,
      "v": 55
    },
    {
      "midi": 71,
      "hit": false,
      "t": 98802.41250000002,
      "d": 179.64075000000594,
      "v": 77
    },
    {
      "midi": 61,
      "hit": false,
      "t": 99161.6939999998,
      "d": 107.78445000000647,
      "v": 63
    },
    {
      "midi": 56,
      "hit": false,
      "t": 99161.6939999998,
      "d": 119.76050000000396,
      "v": 75
    },
    {
      "midi": 64,
      "hit": false,
      "t": 99161.6939999998,
      "d": 119.76050000000396,
      "v": 66
    },
    {
      "midi": 58,
      "hit": false,
      "t": 99161.6939999998,
      "d": 125.7485250000027,
      "v": 86
    },
    {
      "midi": 49,
      "hit": false,
      "t": 99161.69399999994,
      "d": 71.85629999999946,
      "v": 84
    },
    {
      "midi": 37,
      "hit": false,
      "t": 99161.69399999994,
      "d": 77.84432499999821,
      "v": 75
    },
    {
      "midi": 73,
      "hit": false,
      "t": 99161.69400000003,
      "d": 179.64075000000594,
      "v": 81
    },
    {
      "midi": 56,
      "hit": false,
      "t": 99520.9754999998,
      "d": 89.82037499999569,
      "v": 53
    },
    {
      "midi": 61,
      "hit": false,
      "t": 99520.9754999998,
      "d": 89.82037499999569,
      "v": 43
    },
    {
      "midi": 64,
      "hit": false,
      "t": 99520.9754999998,
      "d": 89.82037499999569,
      "v": 46
    },
    {
      "midi": 58,
      "hit": false,
      "t": 99520.9754999998,
      "d": 101.79642499999318,
      "v": 65
    },
    {
      "midi": 56,
      "hit": false,
      "t": 99880.2569999998,
      "d": 83.83234999999695,
      "v": 79
    },
    {
      "midi": 61,
      "hit": false,
      "t": 99880.2569999998,
      "d": 83.83234999999695,
      "v": 81
    },
    {
      "midi": 64,
      "hit": false,
      "t": 99880.2569999998,
      "d": 101.79642499999318,
      "v": 71
    },
    {
      "midi": 58,
      "hit": false,
      "t": 99880.2569999998,
      "d": 107.78444999999192,
      "v": 82
    },
    {
      "midi": 44,
      "hit": false,
      "t": 99880.25699999994,
      "d": 59.88025000000198,
      "v": 69
    },
    {
      "midi": 32,
      "hit": false,
      "t": 99880.25699999994,
      "d": 89.82037499999569,
      "v": 77
    },
    {
      "midi": 56,
      "hit": false,
      "t": 100239.53849999979,
      "d": 95.80839999999444,
      "v": 54
    },
    {
      "midi": 58,
      "hit": false,
      "t": 100239.53849999979,
      "d": 95.80839999999444,
      "v": 66
    },
    {
      "midi": 61,
      "hit": false,
      "t": 100239.53849999979,
      "d": 95.80839999999444,
      "v": 54
    },
    {
      "midi": 64,
      "hit": false,
      "t": 100239.53849999979,
      "d": 125.74852499998815,
      "v": 53
    },
    {
      "midi": 59,
      "hit": false,
      "t": 100598.81999999977,
      "d": 95.80839999999444,
      "v": 79
    },
    {
      "midi": 61,
      "hit": false,
      "t": 100598.81999999977,
      "d": 95.80839999999444,
      "v": 81
    },
    {
      "midi": 64,
      "hit": false,
      "t": 100598.81999999977,
      "d": 101.79642499999318,
      "v": 75
    },
    {
      "midi": 55,
      "hit": false,
      "t": 100598.81999999977,
      "d": 107.78444999999192,
      "v": 74
    },
    {
      "midi": 52,
      "hit": false,
      "t": 100598.81999999993,
      "d": 59.88025000000198,
      "v": 84
    },
    {
      "midi": 40,
      "hit": false,
      "t": 100598.81999999993,
      "d": 71.85629999999946,
      "v": 79
    },
    {
      "midi": 59,
      "hit": false,
      "t": 100598.82000000004,
      "d": 179.64075000000594,
      "v": 79
    },
    {
      "midi": 59,
      "hit": false,
      "t": 100958.10149999977,
      "d": 71.85629999999946,
      "v": 51
    },
    {
      "midi": 61,
      "hit": false,
      "t": 100958.10149999977,
      "d": 71.85629999999946,
      "v": 53
    },
    {
      "midi": 64,
      "hit": false,
      "t": 100958.10149999977,
      "d": 71.85629999999946,
      "v": 49
    },
    {
      "midi": 55,
      "hit": false,
      "t": 100958.10149999977,
      "d": 95.80839999999444,
      "v": 57
    },
    {
      "midi": 61,
      "hit": false,
      "t": 100958.10150000005,
      "d": 179.64075000000594,
      "v": 86
    },
    {
      "midi": 55,
      "hit": false,
      "t": 101317.38299999977,
      "d": 101.79642499999318,
      "v": 75
    },
    {
      "midi": 61,
      "hit": false,
      "t": 101317.38299999977,
      "d": 101.79642499999318,
      "v": 77
    },
    {
      "midi": 64,
      "hit": false,
      "t": 101317.38299999977,
      "d": 101.79642499999318,
      "v": 71
    },
    {
      "midi": 59,
      "hit": false,
      "t": 101317.38299999977,
      "d": 107.78444999999192,
      "v": 77
    },
    {
      "midi": 35,
      "hit": false,
      "t": 101317.38299999993,
      "d": 77.84432499999821,
      "v": 75
    },
    {
      "midi": 47,
      "hit": false,
      "t": 101317.38299999993,
      "d": 77.84432499999821,
      "v": 77
    },
    {
      "midi": 64,
      "hit": false,
      "t": 101317.38300000006,
      "d": 179.64075000000594,
      "v": 81
    },
    {
      "midi": 61,
      "hit": false,
      "t": 101676.66449999977,
      "d": 41.91617500000575,
      "v": 57
    },
    {
      "midi": 64,
      "hit": false,
      "t": 101676.66449999977,
      "d": 83.8323500000115,
      "v": 53
    },
    {
      "midi": 55,
      "hit": false,
      "t": 101676.66449999977,
      "d": 95.80840000000899,
      "v": 57
    },
    {
      "midi": 59,
      "hit": false,
      "t": 101676.66449999977,
      "d": 101.79642500000773,
      "v": 58
    },
    {
      "midi": 67,
      "hit": false,
      "t": 101676.66450000007,
      "d": 179.64075000000594,
      "v": 79
    },
    {
      "midi": 55,
      "hit": false,
      "t": 102035.94599999978,
      "d": 77.84432499999821,
      "v": 76
    },
    {
      "midi": 64,
      "hit": false,
      "t": 102035.94599999978,
      "d": 77.84432499999821,
      "v": 73
    },
    {
      "midi": 59,
      "hit": false,
      "t": 102035.94599999978,
      "d": 83.83234999999695,
      "v": 81
    },
    {
      "midi": 61,
      "hit": false,
      "t": 102035.94599999978,
      "d": 83.83234999999695,
      "v": 79
    },
    {
      "midi": 40,
      "hit": false,
      "t": 102035.94599999992,
      "d": 83.83234999999695,
      "v": 77
    },
    {
      "midi": 52,
      "hit": false,
      "t": 102035.94599999992,
      "d": 83.83234999999695,
      "v": 84
    },
    {
      "midi": 64,
      "hit": false,
      "t": 102035.94600000008,
      "d": 179.64075000000594,
      "v": 40
    },
    {
      "midi": 61,
      "hit": false,
      "t": 102395.22749999978,
      "d": 47.904200000004494,
      "v": 49
    },
    {
      "midi": 64,
      "hit": false,
      "t": 102395.22749999978,
      "d": 71.85629999999946,
      "v": 52
    },
    {
      "midi": 59,
      "hit": false,
      "t": 102395.22749999978,
      "d": 77.84432499999821,
      "v": 54
    },
    {
      "midi": 55,
      "hit": false,
      "t": 102395.22749999978,
      "d": 89.82037499999569,
      "v": 57
    },
    {
      "midi": 67,
      "hit": false,
      "t": 102395.2275000001,
      "d": 179.64075000000594,
      "v": 72
    },
    {
      "midi": 61,
      "hit": false,
      "t": 102754.50899999977,
      "d": 83.83234999999695,
      "v": 77
    },
    {
      "midi": 55,
      "hit": false,
      "t": 102754.50899999977,
      "d": 95.80839999999444,
      "v": 74
    },
    {
      "midi": 59,
      "hit": false,
      "t": 102754.50899999977,
      "d": 95.80839999999444,
      "v": 81
    },
    {
      "midi": 64,
      "hit": false,
      "t": 102754.50899999977,
      "d": 95.80839999999444,
      "v": 73
    },
    {
      "midi": 47,
      "hit": false,
      "t": 102754.50899999992,
      "d": 71.85629999999946,
      "v": 81
    },
    {
      "midi": 35,
      "hit": false,
      "t": 102754.50899999992,
      "d": 77.84432499999821,
      "v": 77
    },
    {
      "midi": 71,
      "hit": false,
      "t": 102754.50900000011,
      "d": 179.64075000000594,
      "v": 73
    },
    {
      "midi": 61,
      "hit": false,
      "t": 103113.79049999977,
      "d": 41.91617500000575,
      "v": 63
    },
    {
      "midi": 64,
      "hit": false,
      "t": 103113.79049999977,
      "d": 41.91617500000575,
      "v": 59
    },
    {
      "midi": 59,
      "hit": false,
      "t": 103113.79049999977,
      "d": 65.86827500000072,
      "v": 68
    },
    {
      "midi": 55,
      "hit": false,
      "t": 103113.79049999977,
      "d": 77.84432499999821,
      "v": 66
    },
    {
      "midi": 64,
      "hit": false,
      "t": 103113.79050000012,
      "d": 179.64075000000594,
      "v": 55
    },
    {
      "midi": 59,
      "hit": false,
      "t": 103473.07199999977,
      "d": 83.83234999999695,
      "v": 86
    },
    {
      "midi": 61,
      "hit": false,
      "t": 103473.07199999977,
      "d": 83.83234999999695,
      "v": 84
    },
    {
      "midi": 64,
      "hit": false,
      "t": 103473.07199999977,
      "d": 83.83234999999695,
      "v": 75
    },
    {
      "midi": 55,
      "hit": false,
      "t": 103473.07199999977,
      "d": 95.80839999999444,
      "v": 80
    },
    {
      "midi": 40,
      "hit": false,
      "t": 103473.07199999991,
      "d": 65.86827500000072,
      "v": 84
    },
    {
      "midi": 52,
      "hit": false,
      "t": 103473.07199999991,
      "d": 65.86827500000072,
      "v": 84
    },
    {
      "midi": 67,
      "hit": false,
      "t": 103473.07200000013,
      "d": 179.64075000000594,
      "v": 75
    },
    {
      "midi": 64,
      "hit": false,
      "t": 103832.35349999976,
      "d": 41.91617500000575,
      "v": 50
    },
    {
      "midi": 61,
      "hit": false,
      "t": 103832.35349999976,
      "d": 53.892225000003236,
      "v": 49
    },
    {
      "midi": 59,
      "hit": false,
      "t": 103832.35349999976,
      "d": 65.86827500000072,
      "v": 52
    },
    {
      "midi": 55,
      "hit": false,
      "t": 103832.35349999976,
      "d": 71.85629999999946,
      "v": 58
    },
    {
      "midi": 71,
      "hit": false,
      "t": 103832.35350000014,
      "d": 179.64075000000594,
      "v": 69
    },
    {
      "midi": 55,
      "hit": false,
      "t": 104191.63499999976,
      "d": 101.79642499999318,
      "v": 75
    },
    {
      "midi": 59,
      "hit": false,
      "t": 104191.63499999976,
      "d": 101.79642499999318,
      "v": 84
    },
    {
      "midi": 61,
      "hit": false,
      "t": 104191.63499999976,
      "d": 101.79642499999318,
      "v": 81
    },
    {
      "midi": 64,
      "hit": false,
      "t": 104191.63499999976,
      "d": 101.79642499999318,
      "v": 77
    },
    {
      "midi": 35,
      "hit": false,
      "t": 104191.63499999991,
      "d": 77.84432499999821,
      "v": 79
    },
    {
      "midi": 47,
      "hit": false,
      "t": 104191.63499999991,
      "d": 77.84432499999821,
      "v": 79
    },
    {
      "midi": 76,
      "hit": false,
      "t": 104191.63500000015,
      "d": 179.64075000000594,
      "v": 77
    },
    {
      "midi": 61,
      "hit": false,
      "t": 104550.91649999976,
      "d": 47.904200000004494,
      "v": 50
    },
    {
      "midi": 55,
      "hit": false,
      "t": 104550.91649999976,
      "d": 65.86827500000072,
      "v": 60
    },
    {
      "midi": 64,
      "hit": false,
      "t": 104550.91649999976,
      "d": 65.86827500000072,
      "v": 54
    },
    {
      "midi": 59,
      "hit": false,
      "t": 104550.91649999976,
      "d": 95.80839999999444,
      "v": 55
    },
    {
      "midi": 71,
      "hit": false,
      "t": 104550.91650000017,
      "d": 179.64075000000594,
      "v": 73
    },
    {
      "midi": 56,
      "hit": false,
      "t": 104910.19799999976,
      "d": 95.80839999999444,
      "v": 75
    },
    {
      "midi": 58,
      "hit": false,
      "t": 104910.19799999976,
      "d": 101.79642499999318,
      "v": 83
    },
    {
      "midi": 61,
      "hit": false,
      "t": 104910.19799999976,
      "d": 107.78444999999192,
      "v": 63
    },
    {
      "midi": 64,
      "hit": false,
      "t": 104910.19799999976,
      "d": 107.78444999999192,
      "v": 66
    },
    {
      "midi": 49,
      "hit": false,
      "t": 104910.1979999999,
      "d": 65.86827500000072,
      "v": 81
    },
    {
      "midi": 37,
      "hit": false,
      "t": 104910.1979999999,
      "d": 71.85629999999946,
      "v": 71
    },
    {
      "midi": 73,
      "hit": false,
      "t": 104910.19800000018,
      "d": 179.64075000000594,
      "v": 86
    },
    {
      "midi": 61,
      "hit": false,
      "t": 105269.47949999975,
      "d": 77.84432499999821,
      "v": 49
    },
    {
      "midi": 56,
      "hit": false,
      "t": 105269.47949999975,
      "d": 89.82037499999569,
      "v": 54
    },
    {
      "midi": 64,
      "hit": false,
      "t": 105269.47949999975,
      "d": 89.82037499999569,
      "v": 51
    },
    {
      "midi": 58,
      "hit": false,
      "t": 105269.47949999975,
      "d": 101.79642499999318,
      "v": 66
    },
    {
      "midi": 56,
      "hit": false,
      "t": 105628.76099999975,
      "d": 71.85629999999946,
      "v": 79
    },
    {
      "midi": 61,
      "hit": false,
      "t": 105628.76099999975,
      "d": 71.85629999999946,
      "v": 84
    },
    {
      "midi": 58,
      "hit": false,
      "t": 105628.76099999975,
      "d": 95.80839999999444,
      "v": 82
    },
    {
      "midi": 64,
      "hit": false,
      "t": 105628.76099999975,
      "d": 95.80839999999444,
      "v": 75
    },
    {
      "midi": 44,
      "hit": false,
      "t": 105628.7609999999,
      "d": 59.88025000000198,
      "v": 77
    },
    {
      "midi": 32,
      "hit": false,
      "t": 105628.7609999999,
      "d": 77.84432499999821,
      "v": 71
    },
    {
      "midi": 56,
      "hit": false,
      "t": 105988.04249999975,
      "d": 83.83234999999695,
      "v": 71
    },
    {
      "midi": 58,
      "hit": false,
      "t": 105988.04249999975,
      "d": 89.82037499999569,
      "v": 79
    },
    {
      "midi": 61,
      "hit": false,
      "t": 105988.04249999975,
      "d": 89.82037499999569,
      "v": 69
    },
    {
      "midi": 64,
      "hit": false,
      "t": 105988.04249999975,
      "d": 89.82037499999569,
      "v": 66
    },
    {
      "midi": 54,
      "hit": false,
      "t": 106347.32399999975,
      "d": 95.80839999999444,
      "v": 75
    },
    {
      "midi": 58,
      "hit": false,
      "t": 106347.32399999975,
      "d": 95.80839999999444,
      "v": 77
    },
    {
      "midi": 63,
      "hit": false,
      "t": 106347.32399999975,
      "d": 107.78444999999192,
      "v": 73
    },
    {
      "midi": 39,
      "hit": false,
      "t": 106347.32399999989,
      "d": 89.82037499999569,
      "v": 79
    },
    {
      "midi": 51,
      "hit": false,
      "t": 106347.32399999989,
      "d": 89.82037499999569,
      "v": 79
    },
    {
      "midi": 63,
      "hit": false,
      "t": 106706.60549999974,
      "d": 59.88025000000198,
      "v": 34
    },
    {
      "midi": 54,
      "hit": false,
      "t": 106706.60549999974,
      "d": 77.84432499999821,
      "v": 22
    },
    {
      "midi": 58,
      "hit": false,
      "t": 106706.60549999974,
      "d": 119.76050000000396,
      "v": 49
    },
    {
      "midi": 54,
      "hit": false,
      "t": 107065.88699999974,
      "d": 89.82037499999569,
      "v": 71
    },
    {
      "midi": 58,
      "hit": false,
      "t": 107065.88699999974,
      "d": 89.82037499999569,
      "v": 77
    },
    {
      "midi": 63,
      "hit": false,
      "t": 107065.88699999974,
      "d": 89.82037499999569,
      "v": 66
    },
    {
      "midi": 46,
      "hit": false,
      "t": 107065.88699999989,
      "d": 95.80839999999444,
      "v": 71
    },
    {
      "midi": 34,
      "hit": false,
      "t": 107065.88699999989,
      "d": 119.7604999999894,
      "v": 73
    },
    {
      "midi": 63,
      "hit": false,
      "t": 107425.16849999974,
      "d": 65.86827500000072,
      "v": 44
    },
    {
      "midi": 54,
      "hit": false,
      "t": 107425.16849999974,
      "d": 89.82037499999569,
      "v": 40
    },
    {
      "midi": 58,
      "hit": false,
      "t": 107425.16849999974,
      "d": 95.80839999999444,
      "v": 52
    },
    {
      "midi": 54,
      "hit": false,
      "t": 107784.44999999974,
      "d": 83.83234999999695,
      "v": 77
    },
    {
      "midi": 58,
      "hit": false,
      "t": 107784.44999999974,
      "d": 83.83234999999695,
      "v": 79
    },
    {
      "midi": 63,
      "hit": false,
      "t": 107784.44999999974,
      "d": 101.79642499999318,
      "v": 69
    },
    {
      "midi": 39,
      "hit": false,
      "t": 107784.44999999988,
      "d": 71.85629999999946,
      "v": 69
    },
    {
      "midi": 51,
      "hit": false,
      "t": 107784.44999999988,
      "d": 77.84432499999821,
      "v": 77
    },
    {
      "midi": 54,
      "hit": false,
      "t": 108143.73149999973,
      "d": 71.85629999999946,
      "v": 44
    },
    {
      "midi": 63,
      "hit": false,
      "t": 108143.73149999973,
      "d": 71.85629999999946,
      "v": 47
    },
    {
      "midi": 58,
      "hit": false,
      "t": 108143.73149999973,
      "d": 83.83234999999695,
      "v": 53
    },
    {
      "midi": 54,
      "hit": false,
      "t": 108503.01299999973,
      "d": 83.83234999999695,
      "v": 68
    },
    {
      "midi": 58,
      "hit": false,
      "t": 108503.01299999973,
      "d": 95.80839999999444,
      "v": 73
    },
    {
      "midi": 63,
      "hit": false,
      "t": 108503.01299999973,
      "d": 95.80839999999444,
      "v": 69
    },
    {
      "midi": 34,
      "hit": false,
      "t": 108503.01299999988,
      "d": 83.83234999999695,
      "v": 69
    },
    {
      "midi": 46,
      "hit": false,
      "t": 108503.01299999988,
      "d": 95.80839999999444,
      "v": 79
    },
    {
      "midi": 54,
      "hit": false,
      "t": 108862.29449999973,
      "d": 71.85629999999946,
      "v": 53
    },
    {
      "midi": 58,
      "hit": false,
      "t": 108862.29449999973,
      "d": 71.85629999999946,
      "v": 54
    },
    {
      "midi": 63,
      "hit": false,
      "t": 108862.29449999973,
      "d": 77.84432499999821,
      "v": 54
    },
    {
      "midi": 54,
      "hit": false,
      "t": 109221.57599999972,
      "d": 53.892225000003236,
      "v": 57
    },
    {
      "midi": 59,
      "hit": false,
      "t": 109221.57599999972,
      "d": 71.85629999999946,
      "v": 80
    },
    {
      "midi": 62,
      "hit": false,
      "t": 109221.57599999972,
      "d": 89.82037499999569,
      "v": 73
    },
    {
      "midi": 35,
      "hit": false,
      "t": 109221.57599999987,
      "d": 89.82037499999569,
      "v": 74
    },
    {
      "midi": 47,
      "hit": false,
      "t": 109221.57599999987,
      "d": 107.78444999999192,
      "v": 78
    },
    {
      "midi": 54,
      "hit": false,
      "t": 109580.85749999972,
      "d": 35.92815000000701,
      "v": 22
    },
    {
      "midi": 59,
      "hit": false,
      "t": 109580.85749999972,
      "d": 77.84432500001276,
      "v": 55
    },
    {
      "midi": 62,
      "hit": false,
      "t": 109580.85749999972,
      "d": 95.80840000000899,
      "v": 55
    },
    {
      "midi": 54,
      "hit": false,
      "t": 109940.13899999973,
      "d": 71.85629999999946,
      "v": 63
    },
    {
      "midi": 59,
      "hit": false,
      "t": 109940.13899999973,
      "d": 89.82037499999569,
      "v": 80
    },
    {
      "midi": 62,
      "hit": false,
      "t": 109940.13899999973,
      "d": 89.82037499999569,
      "v": 74
    },
    {
      "midi": 42,
      "hit": false,
      "t": 109940.13899999986,
      "d": 71.85629999999946,
      "v": 75
    },
    {
      "midi": 30,
      "hit": false,
      "t": 109940.13899999986,
      "d": 83.83234999999695,
      "v": 77
    },
    {
      "midi": 54,
      "hit": false,
      "t": 110299.42049999973,
      "d": 29.940124999993714,
      "v": 36
    },
    {
      "midi": 59,
      "hit": false,
      "t": 110299.42049999973,
      "d": 59.88024999998743,
      "v": 66
    },
    {
      "midi": 62,
      "hit": false,
      "t": 110299.42049999973,
      "d": 101.79642499999318,
      "v": 66
    },
    {
      "midi": 63,
      "hit": false,
      "t": 110658.70199999973,
      "d": 65.86827500000072,
      "v": 59
    },
    {
      "midi": 56,
      "hit": false,
      "t": 110658.70199999973,
      "d": 83.83234999999695,
      "v": 62
    },
    {
      "midi": 59,
      "hit": false,
      "t": 110658.70199999973,
      "d": 89.82037499999569,
      "v": 86
    },
    {
      "midi": 44,
      "hit": false,
      "t": 110658.70199999986,
      "d": 77.84432499999821,
      "v": 81
    },
    {
      "midi": 32,
      "hit": false,
      "t": 110658.70199999986,
      "d": 95.80839999999444,
      "v": 73
    },
    {
      "midi": 56,
      "hit": false,
      "t": 111017.98349999973,
      "d": 89.82037499999569,
      "v": 50
    },
    {
      "midi": 59,
      "hit": false,
      "t": 111017.98349999973,
      "d": 89.82037499999569,
      "v": 75
    },
    {
      "midi": 63,
      "hit": false,
      "t": 111017.98349999973,
      "d": 95.80839999999444,
      "v": 49
    },
    {
      "midi": 59,
      "hit": false,
      "t": 111377.26499999972,
      "d": 77.84432499999821,
      "v": 83
    },
    {
      "midi": 63,
      "hit": false,
      "t": 111377.26499999972,
      "d": 77.84432499999821,
      "v": 54
    },
    {
      "midi": 56,
      "hit": false,
      "t": 111377.26499999972,
      "d": 89.82037499999569,
      "v": 54
    },
    {
      "midi": 39,
      "hit": false,
      "t": 111377.26499999985,
      "d": 71.85629999999946,
      "v": 75
    },
    {
      "midi": 51,
      "hit": false,
      "t": 111377.26499999985,
      "d": 71.85629999999946,
      "v": 71
    },
    {
      "midi": 56,
      "hit": false,
      "t": 111736.54649999972,
      "d": 65.86827500000072,
      "v": 59
    },
    {
      "midi": 59,
      "hit": false,
      "t": 111736.54649999972,
      "d": 83.83234999999695,
      "v": 86
    },
    {
      "midi": 63,
      "hit": false,
      "t": 111736.54649999972,
      "d": 83.83234999999695,
      "v": 60
    },
    {
      "midi": 80,
      "hit": false,
      "t": 126467.08800000019,
      "d": 203.5928500000009,
      "v": 71
    },
    {
      "midi": 76,
      "hit": false,
      "t": 126646.7287500002,
      "d": 191.61679999998887,
      "v": 46
    },
    {
      "midi": 73,
      "hit": false,
      "t": 126826.36950000019,
      "d": 155.68864999999641,
      "v": 51
    },
    {
      "midi": 68,
      "hit": false,
      "t": 127006.01025000018,
      "d": 155.68864999999641,
      "v": 71
    },
    {
      "midi": 80,
      "hit": false,
      "t": 127185.65100000017,
      "d": 221.5569250000117,
      "v": 63
    },
    {
      "midi": 76,
      "hit": false,
      "t": 127365.29175000018,
      "d": 161.6766750000097,
      "v": 33
    },
    {
      "midi": 73,
      "hit": false,
      "t": 127544.93250000018,
      "d": 203.5928500000009,
      "v": 52
    },
    {
      "midi": 68,
      "hit": false,
      "t": 127724.57325000019,
      "d": 161.67667499999516,
      "v": 77
    },
    {
      "midi": 78,
      "hit": false,
      "t": 127904.21400000018,
      "d": 221.5569250000117,
      "v": 55
    },
    {
      "midi": 75,
      "hit": false,
      "t": 128083.85475000019,
      "d": 209.58087499999965,
      "v": 38
    },
    {
      "midi": 71,
      "hit": false,
      "t": 128263.4955000002,
      "d": 221.55692499999714,
      "v": 57
    },
    {
      "midi": 66,
      "hit": false,
      "t": 128443.13625000019,
      "d": 215.56890000001295,
      "v": 73
    },
    {
      "midi": 78,
      "hit": false,
      "t": 128622.77700000019,
      "d": 191.61680000000342,
      "v": 62
    },
    {
      "midi": 75,
      "hit": false,
      "t": 128802.4177500002,
      "d": 227.54494999999588,
      "v": 38
    },
    {
      "midi": 71,
      "hit": false,
      "t": 128982.05850000019,
      "d": 197.60482500000217,
      "v": 61
    },
    {
      "midi": 66,
      "hit": false,
      "t": 129341.34000000019,
      "d": 5.988024999998743,
      "v": 73
    },
    {
      "midi": 71,
      "hit": false,
      "t": 129520.98075000019,
      "d": 233.53297500000917,
      "v": 50
    },
    {
      "midi": 75,
      "hit": false,
      "t": 129700.6215000002,
      "d": 203.5928500000009,
      "v": 58
    },
    {
      "midi": 78,
      "hit": false,
      "t": 129880.2622500002,
      "d": 263.47309999998834,
      "v": 79
    },
    {
      "midi": 71,
      "hit": false,
      "t": 130059.9030000002,
      "d": 197.6048249999876,
      "v": 71
    },
    {
      "midi": 75,
      "hit": false,
      "t": 130239.54375000019,
      "d": 179.64074999999139,
      "v": 42
    },
    {
      "midi": 78,
      "hit": false,
      "t": 130419.18450000018,
      "d": 179.64075000000594,
      "v": 60
    },
    {
      "midi": 81,
      "hit": false,
      "t": 130598.82525000018,
      "d": 77.84432499999821,
      "v": 75
    },
    {
      "midi": 68,
      "hit": false,
      "t": 130778.46600000017,
      "d": 257.48507500000414,
      "v": 77
    },
    {
      "midi": 71,
      "hit": false,
      "t": 130958.10675000018,
      "d": 203.59284999998636,
      "v": 62
    },
    {
      "midi": 76,
      "hit": false,
      "t": 131137.74750000017,
      "d": 197.6048249999876,
      "v": 66
    },
    {
      "midi": 71,
      "hit": false,
      "t": 131317.38825000016,
      "d": 161.67667499999516,
      "v": 54
    },
    {
      "midi": 68,
      "hit": false,
      "t": 131497.02900000016,
      "d": 239.5209999999788,
      "v": 77
    },
    {
      "midi": 72,
      "hit": false,
      "t": 131676.66975000015,
      "d": 191.61679999998887,
      "v": 63
    },
    {
      "midi": 75,
      "hit": false,
      "t": 131856.31050000014,
      "d": 173.65272499999264,
      "v": 43
    },
    {
      "midi": 80,
      "hit": false,
      "t": 132035.95125000013,
      "d": 59.88024999998743,
      "v": 92
    },
    {
      "midi": 86,
      "hit": false,
      "t": 155209.60800000012,
      "d": 155.68864999999641,
      "v": 94
    },
    {
      "midi": 93,
      "hit": false,
      "t": 155209.60800000012,
      "d": 185.62877499999013,
      "v": 82
    },
    {
      "midi": 89,
      "hit": false,
      "t": 155389.24875000012,
      "d": 77.84432500001276,
      "v": 66
    },
    {
      "midi": 81,
      "hit": false,
      "t": 155389.24875000012,
      "d": 131.73655000000144,
      "v": 70
    },
    {
      "midi": 86,
      "hit": false,
      "t": 155568.8895000001,
      "d": 131.73655000000144,
      "v": 83
    },
    {
      "midi": 93,
      "hit": false,
      "t": 155568.8895000001,
      "d": 149.70062499999767,
      "v": 79
    },
    {
      "midi": 89,
      "hit": false,
      "t": 155748.5302500001,
      "d": 95.80840000000899,
      "v": 66
    },
    {
      "midi": 81,
      "hit": false,
      "t": 155748.5302500001,
      "d": 125.7485250000027,
      "v": 68
    },
    {
      "midi": 93,
      "hit": false,
      "t": 155928.1710000001,
      "d": 149.70062499999767,
      "v": 83
    },
    {
      "midi": 86,
      "hit": false,
      "t": 155928.1710000001,
      "d": 161.67667499999516,
      "v": 83
    },
    {
      "midi": 89,
      "hit": false,
      "t": 156107.81175000008,
      "d": 89.82037500001024,
      "v": 59
    },
    {
      "midi": 81,
      "hit": false,
      "t": 156107.81175000008,
      "d": 179.6407500000205,
      "v": 61
    },
    {
      "midi": 86,
      "hit": false,
      "t": 156287.4525000001,
      "d": 143.71259999999893,
      "v": 75
    },
    {
      "midi": 93,
      "hit": false,
      "t": 156287.4525000001,
      "d": 167.6646999999939,
      "v": 75
    },
    {
      "midi": 89,
      "hit": false,
      "t": 156467.0932500001,
      "d": 137.7245750000002,
      "v": 66
    },
    {
      "midi": 81,
      "hit": false,
      "t": 156467.0932500001,
      "d": 155.68864999999641,
      "v": 66
    },
    {
      "midi": 86,
      "hit": false,
      "t": 156646.73400000008,
      "d": 155.68864999999641,
      "v": 73
    },
    {
      "midi": 93,
      "hit": false,
      "t": 156646.73400000008,
      "d": 167.6646999999939,
      "v": 88
    },
    {
      "midi": 89,
      "hit": false,
      "t": 156826.37475000008,
      "d": 149.70062499999767,
      "v": 66
    },
    {
      "midi": 81,
      "hit": false,
      "t": 156826.37475000008,
      "d": 179.64074999999139,
      "v": 71
    },
    {
      "midi": 86,
      "hit": false,
      "t": 157006.01550000007,
      "d": 143.71259999999893,
      "v": 75
    },
    {
      "midi": 93,
      "hit": false,
      "t": 157006.01550000007,
      "d": 155.68864999999641,
      "v": 80
    },
    {
      "midi": 89,
      "hit": false,
      "t": 157185.65625000006,
      "d": 155.68864999999641,
      "v": 69
    },
    {
      "midi": 81,
      "hit": false,
      "t": 157185.65625000006,
      "d": 167.6646999999939,
      "v": 66
    },
    {
      "midi": 86,
      "hit": false,
      "t": 157365.29700000005,
      "d": 167.6646999999939,
      "v": 80
    },
    {
      "midi": 93,
      "hit": false,
      "t": 157365.29700000005,
      "d": 179.64074999999139,
      "v": 76
    },
    {
      "midi": 89,
      "hit": false,
      "t": 157544.93775000004,
      "d": 161.67667499999516,
      "v": 74
    },
    {
      "midi": 81,
      "hit": false,
      "t": 157544.93775000004,
      "d": 191.61679999998887,
      "v": 80
    },
    {
      "midi": 93,
      "hit": false,
      "t": 157724.57850000003,
      "d": 203.59284999998636,
      "v": 76
    },
    {
      "midi": 86,
      "hit": false,
      "t": 157724.57850000003,
      "d": 227.54494999998133,
      "v": 86
    },
    {
      "midi": 89,
      "hit": false,
      "t": 157904.21925000002,
      "d": 47.90419999998994,
      "v": 85
    },
    {
      "midi": 81,
      "hit": false,
      "t": 157904.21925000002,
      "d": 77.84432499998366,
      "v": 83
    },
    {
      "midi": 85,
      "hit": false,
      "t": 158083.86000000002,
      "d": 137.7245750000002,
      "v": 89
    },
    {
      "midi": 77,
      "hit": false,
      "t": 158083.86000000002,
      "d": 191.61679999998887,
      "v": 72
    },
    {
      "midi": 84,
      "hit": false,
      "t": 158263.50075,
      "d": 119.76050000000396,
      "v": 70
    },
    {
      "midi": 75,
      "hit": false,
      "t": 158263.50075,
      "d": 137.7245750000002,
      "v": 77
    },
    {
      "midi": 73,
      "hit": false,
      "t": 158443.1415,
      "d": 101.79642500000773,
      "v": 89
    },
    {
      "midi": 82,
      "hit": false,
      "t": 158443.1415,
      "d": 137.7245750000002,
      "v": 81
    },
    {
      "midi": 85,
      "hit": false,
      "t": 158802.423,
      "d": 95.80840000000899,
      "v": 81
    },
    {
      "midi": 76,
      "hit": false,
      "t": 158802.423,
      "d": 119.76050000000396,
      "v": 82
    },
    {
      "midi": 75,
      "hit": false,
      "t": 158982.06375,
      "d": 89.82037500001024,
      "v": 89
    },
    {
      "midi": 84,
      "hit": false,
      "t": 158982.06375,
      "d": 113.77247500000522,
      "v": 75
    },
    {
      "midi": 73,
      "hit": false,
      "t": 159161.7045,
      "d": 113.77247500000522,
      "v": 81
    },
    {
      "midi": 82,
      "hit": false,
      "t": 159161.7045,
      "d": 161.67667499999516,
      "v": 66
    },
    {
      "midi": 82,
      "hit": false,
      "t": 159520.98599999998,
      "d": 101.79642500000773,
      "v": 81
    },
    {
      "midi": 74,
      "hit": false,
      "t": 159520.98599999998,
      "d": 125.7485250000027,
      "v": 92
    },
    {
      "midi": 72,
      "hit": false,
      "t": 159700.62674999997,
      "d": 101.79642500000773,
      "v": 71
    },
    {
      "midi": 81,
      "hit": false,
      "t": 159700.62674999997,
      "d": 101.79642500000773,
      "v": 76
    },
    {
      "midi": 70,
      "hit": false,
      "t": 159880.2675,
      "d": 101.79642500000773,
      "v": 89
    },
    {
      "midi": 79,
      "hit": false,
      "t": 159880.2675,
      "d": 161.67667499999516,
      "v": 78
    },
    {
      "midi": 82,
      "hit": false,
      "t": 160239.54899999997,
      "d": 89.82037500001024,
      "v": 89
    },
    {
      "midi": 74,
      "hit": false,
      "t": 160239.54899999997,
      "d": 137.7245750000002,
      "v": 90
    },
    {
      "midi": 72,
      "hit": false,
      "t": 160419.18974999996,
      "d": 95.80840000000899,
      "v": 88
    },
    {
      "midi": 81,
      "hit": false,
      "t": 160419.18974999996,
      "d": 95.80840000000899,
      "v": 83
    },
    {
      "midi": 70,
      "hit": false,
      "t": 160598.83049999998,
      "d": 77.84432500001276,
      "v": 100
    },
    {
      "midi": 79,
      "hit": false,
      "t": 160598.83049999998,
      "d": 101.79642500000773,
      "v": 92
    },
    {
      "midi": 43,
      "hit": false,
      "t": 162395.23799999984,
      "d": 131.73655000000144,
      "v": 99
    },
    {
      "midi": 79,
      "hit": false,
      "t": 162407.21404999998,
      "d": 149.70062499999767,
      "v": 75
    },
    {
      "midi": 86,
      "hit": false,
      "t": 162407.21404999998,
      "d": 167.6646999999939,
      "v": 60
    },
    {
      "midi": 74,
      "hit": false,
      "t": 162574.87874999997,
      "d": 107.78445000000647,
      "v": 57
    },
    {
      "midi": 82,
      "hit": false,
      "t": 162574.87874999997,
      "d": 107.78445000000647,
      "v": 54
    },
    {
      "midi": 58,
      "hit": false,
      "t": 162754.5194999997,
      "d": 65.86827499998617,
      "v": 71
    },
    {
      "midi": 55,
      "hit": false,
      "t": 162754.5194999997,
      "d": 83.8323499999824,
      "v": 74
    },
    {
      "midi": 62,
      "hit": false,
      "t": 162754.5194999997,
      "d": 83.8323499999824,
      "v": 70
    },
    {
      "midi": 79,
      "hit": false,
      "t": 162772.483575,
      "d": 125.7485250000027,
      "v": 76
    },
    {
      "midi": 86,
      "hit": false,
      "t": 162778.4716,
      "d": 161.67667499999516,
      "v": 67
    },
    {
      "midi": 74,
      "hit": false,
      "t": 162934.16025,
      "d": 125.7485250000027,
      "v": 58
    },
    {
      "midi": 82,
      "hit": false,
      "t": 162952.12432499998,
      "d": 119.76050000000396,
      "v": 49
    },
    {
      "midi": 39,
      "hit": false,
      "t": 163113.80099999983,
      "d": 113.77247500000522,
      "v": 104
    },
    {
      "midi": 79,
      "hit": false,
      "t": 163113.80099999998,
      "d": 137.7245750000002,
      "v": 73
    },
    {
      "midi": 87,
      "hit": false,
      "t": 163113.80099999998,
      "d": 191.61679999998887,
      "v": 79
    },
    {
      "midi": 75,
      "hit": false,
      "t": 163287.45372499997,
      "d": 179.64074999999139,
      "v": 43
    },
    {
      "midi": 82,
      "hit": false,
      "t": 163335.35792499996,
      "d": 83.8323500000115,
      "v": 57
    },
    {
      "midi": 58,
      "hit": false,
      "t": 163473.0824999997,
      "d": 59.88024999998743,
      "v": 68
    },
    {
      "midi": 55,
      "hit": false,
      "t": 163473.0824999997,
      "d": 71.85629999998491,
      "v": 70
    },
    {
      "midi": 63,
      "hit": false,
      "t": 163473.0824999997,
      "d": 71.85629999998491,
      "v": 64
    },
    {
      "midi": 46,
      "hit": false,
      "t": 163473.08249999984,
      "d": 95.80840000000899,
      "v": 96
    },
    {
      "midi": 87,
      "hit": false,
      "t": 163473.08249999996,
      "d": 173.65272499999264,
      "v": 64
    },
    {
      "midi": 79,
      "hit": false,
      "t": 163497.03459999996,
      "d": 137.7245750000002,
      "v": 74
    },
    {
      "midi": 75,
      "hit": false,
      "t": 163664.69929999995,
      "d": 137.7245750000002,
      "v": 63
    },
    {
      "midi": 82,
      "hit": false,
      "t": 163682.66337499995,
      "d": 101.79642500000773,
      "v": 55
    },
    {
      "midi": 79,
      "hit": false,
      "t": 163826.37597499994,
      "d": 179.64074999999139,
      "v": 69
    },
    {
      "midi": 43,
      "hit": false,
      "t": 163832.36399999986,
      "d": 113.77247500000522,
      "v": 97
    },
    {
      "midi": 86,
      "hit": false,
      "t": 163832.36399999994,
      "d": 167.6646999999939,
      "v": 73
    },
    {
      "midi": 82,
      "hit": false,
      "t": 164035.95684999993,
      "d": 95.80840000000899,
      "v": 52
    },
    {
      "midi": 74,
      "hit": false,
      "t": 164035.95684999993,
      "d": 167.664700000023,
      "v": 66
    },
    {
      "midi": 58,
      "hit": false,
      "t": 164191.6454999997,
      "d": 71.85630000001402,
      "v": 62
    },
    {
      "midi": 62,
      "hit": false,
      "t": 164191.6454999997,
      "d": 83.8323500000115,
      "v": 63
    },
    {
      "midi": 55,
      "hit": false,
      "t": 164191.6454999997,
      "d": 89.82037500001024,
      "v": 66
    },
    {
      "midi": 86,
      "hit": false,
      "t": 164203.62154999995,
      "d": 167.6646999999939,
      "v": 57
    },
    {
      "midi": 79,
      "hit": false,
      "t": 164239.54969999995,
      "d": 131.73655000000144,
      "v": 86
    },
    {
      "midi": 82,
      "hit": false,
      "t": 164371.28624999995,
      "d": 161.67667499999516,
      "v": 57
    },
    {
      "midi": 74,
      "hit": false,
      "t": 164407.21439999994,
      "d": 101.79642500000773,
      "v": 71
    },
    {
      "midi": 79,
      "hit": false,
      "t": 164544.93897499994,
      "d": 131.73655000000144,
      "v": 65
    },
    {
      "midi": 39,
      "hit": false,
      "t": 164550.92699999985,
      "d": 95.80840000000899,
      "v": 114
    },
    {
      "midi": 87,
      "hit": false,
      "t": 164574.87909999993,
      "d": 149.70062499999767,
      "v": 68
    },
    {
      "midi": 75,
      "hit": false,
      "t": 164724.57972499993,
      "d": 125.7485250000027,
      "v": 75
    },
    {
      "midi": 82,
      "hit": false,
      "t": 164754.51984999992,
      "d": 107.78445000000647,
      "v": 49
    },
    {
      "midi": 79,
      "hit": false,
      "t": 164886.25639999993,
      "d": 155.68864999999641,
      "v": 75
    },
    {
      "midi": 58,
      "hit": false,
      "t": 164910.20849999972,
      "d": 53.892224999988684,
      "v": 64
    },
    {
      "midi": 55,
      "hit": false,
      "t": 164910.20849999972,
      "d": 65.86827499998617,
      "v": 70
    },
    {
      "midi": 63,
      "hit": false,
      "t": 164910.20849999972,
      "d": 89.82037499998114,
      "v": 68
    },
    {
      "midi": 46,
      "hit": false,
      "t": 164910.20849999986,
      "d": 95.80840000000899,
      "v": 96
    },
    {
      "midi": 87,
      "hit": false,
      "t": 164910.20849999992,
      "d": 179.64074999999139,
      "v": 77
    },
    {
      "midi": 75,
      "hit": false,
      "t": 165071.88517499992,
      "d": 149.70062499999767,
      "v": 73
    },
    {
      "midi": 82,
      "hit": false,
      "t": 165101.8252999999,
      "d": 101.79642500000773,
      "v": 58
    },
    {
      "midi": 79,
      "hit": false,
      "t": 165251.5259249999,
      "d": 113.77247500000522,
      "v": 80
    },
    {
      "midi": 86,
      "hit": false,
      "t": 165263.5019749999,
      "d": 155.68864999999641,
      "v": 71
    },
    {
      "midi": 74,
      "hit": false,
      "t": 165443.1427249999,
      "d": 131.73655000000144,
      "v": 72
    },
    {
      "midi": 82,
      "hit": false,
      "t": 165461.1067999999,
      "d": 113.77247500000522,
      "v": 54
    },
    {
      "midi": 79,
      "hit": false,
      "t": 165616.7954499999,
      "d": 119.76050000000396,
      "v": 70
    },
    {
      "midi": 86,
      "hit": false,
      "t": 165628.7714999999,
      "d": 155.68864999999641,
      "v": 76
    },
    {
      "midi": 74,
      "hit": false,
      "t": 165802.42422499988,
      "d": 149.70062499999767,
      "v": 71
    },
    {
      "midi": 82,
      "hit": false,
      "t": 165808.41224999988,
      "d": 143.71259999999893,
      "v": 58
    },
    {
      "midi": 79,
      "hit": false,
      "t": 165982.06497499987,
      "d": 125.7485250000027,
      "v": 72
    },
    {
      "midi": 86,
      "hit": false,
      "t": 165982.06497499987,
      "d": 185.62877499999013,
      "v": 74
    },
    {
      "midi": 74,
      "hit": false,
      "t": 166167.69374999986,
      "d": 149.70062499999767,
      "v": 69
    },
    {
      "midi": 82,
      "hit": false,
      "t": 166173.68177499986,
      "d": 101.79642500000773,
      "v": 57
    },
    {
      "midi": 86,
      "hit": false,
      "t": 166317.39437499986,
      "d": 191.61679999998887,
      "v": 59
    },
    {
      "midi": 79,
      "hit": false,
      "t": 166335.35844999985,
      "d": 149.70062499999767,
      "v": 73
    },
    {
      "midi": 74,
      "hit": false,
      "t": 166509.01117499985,
      "d": 131.73655000000144,
      "v": 74
    },
    {
      "midi": 82,
      "hit": false,
      "t": 166509.01117499985,
      "d": 149.70062499999767,
      "v": 54
    },
    {
      "midi": 78,
      "hit": false,
      "t": 166682.66389999984,
      "d": 119.76050000000396,
      "v": 69
    },
    {
      "midi": 86,
      "hit": false,
      "t": 166682.66389999984,
      "d": 161.67667499999516,
      "v": 75
    },
    {
      "midi": 74,
      "hit": false,
      "t": 166862.30464999983,
      "d": 125.7485250000027,
      "v": 71
    },
    {
      "midi": 81,
      "hit": false,
      "t": 166874.28069999983,
      "d": 161.67667499999516,
      "v": 60
    },
    {
      "midi": 78,
      "hit": false,
      "t": 167035.95737499982,
      "d": 227.54494999998133,
      "v": 69
    },
    {
      "midi": 86,
      "hit": false,
      "t": 167041.94539999982,
      "d": 137.7245750000002,
      "v": 75
    },
    {
      "midi": 81,
      "hit": false,
      "t": 167197.63404999982,
      "d": 107.78444999997737,
      "v": 60
    },
    {
      "midi": 74,
      "hit": false,
      "t": 167209.61009999982,
      "d": 65.86827499998617,
      "v": 80
    },
    {
      "midi": 67,
      "hit": false,
      "t": 167401.2268999998,
      "d": 239.52100000000792,
      "v": 90
    },
    {
      "midi": 70,
      "hit": false,
      "t": 167538.9514749998,
      "d": 179.64074999999139,
      "v": 53
    },
    {
      "midi": 74,
      "hit": false,
      "t": 167610.80777499982,
      "d": 167.6646999999648,
      "v": 58
    },
    {
      "midi": 79,
      "hit": false,
      "t": 167682.6640749998,
      "d": 125.7485249999736,
      "v": 60
    },
    {
      "midi": 82,
      "hit": false,
      "t": 167748.5323499998,
      "d": 149.70062499999767,
      "v": 51
    },
    {
      "midi": 86,
      "hit": false,
      "t": 167820.38864999978,
      "d": 119.76050000000396,
      "v": 62
    },
    {
      "midi": 91,
      "hit": false,
      "t": 167916.19704999978,
      "d": 71.85629999998491,
      "v": 97
    }
  ]
}