{
  "jsonPath": "Rock/Pop Rock/Hanson/i-will-come-to-you.json",
  "path": "Rock\\Pop Rock\\Hanson\\I Will Come To You.mid",
  "name": "I Will Come To You",
  "difficulty": "Advanced",
  "bpm": 75,
  "notes": [
    {
      "midi": 61,
      "hit": false,
      "t": 3200,
      "d": 1073.333333333333,
      "v": 104
    },
    {
      "midi": 56,
      "hit": false,
      "t": 3200,
      "d": 1093.333333333333,
      "v": 95
    },
    {
      "midi": 65,
      "hit": false,
      "t": 3200,
      "d": 1093.333333333333,
      "v": 95
    },
    {
      "midi": 68,
      "hit": false,
      "t": 3200,
      "d": 1093.333333333333,
      "v": 95
    },
    {
      "midi": 49,
      "hit": false,
      "t": 3200,
      "d": 1133.333333333333,
      "v": 91
    },
    {
      "midi": 37,
      "hit": false,
      "t": 3200,
      "d": 1140,
      "v": 88
    },
    {
      "midi": 56,
      "hit": false,
      "t": 4400,
      "d": 1050,
      "v": 91
    },
    {
      "midi": 68,
      "hit": false,
      "t": 4400,
      "d": 1060,
      "v": 88
    },
    {
      "midi": 63,
      "hit": false,
      "t": 4400,
      "d": 1070,
      "v": 82
    },
    {
      "midi": 60,
      "hit": false,
      "t": 4400,
      "d": 1083.333333333333,
      "v": 88
    },
    {
      "midi": 44,
      "hit": false,
      "t": 4400,
      "d": 1976.666666666667,
      "v": 88
    },
    {
      "midi": 58,
      "hit": false,
      "t": 5600,
      "d": 233.33333333333303,
      "v": 109
    },
    {
      "midi": 60,
      "hit": false,
      "t": 5800,
      "d": 453.33333333333303,
      "v": 82
    },
    {
      "midi": 63,
      "hit": false,
      "t": 6000,
      "d": 270,
      "v": 91
    },
    {
      "midi": 68,
      "hit": false,
      "t": 6200,
      "d": 126.66666666666697,
      "v": 88
    },
    {
      "midi": 66,
      "hit": false,
      "t": 6400,
      "d": 986.666666666667,
      "v": 114
    },
    {
      "midi": 51,
      "hit": false,
      "t": 6400,
      "d": 1023.3333333333339,
      "v": 104
    },
    {
      "midi": 58,
      "hit": false,
      "t": 6400,
      "d": 1023.3333333333339,
      "v": 95
    },
    {
      "midi": 39,
      "hit": false,
      "t": 6400,
      "d": 1066.666666666667,
      "v": 91
    },
    {
      "midi": 53,
      "hit": false,
      "t": 7600,
      "d": 1066.666666666666,
      "v": 82
    },
    {
      "midi": 58,
      "hit": false,
      "t": 7600,
      "d": 1066.666666666666,
      "v": 80
    },
    {
      "midi": 61,
      "hit": false,
      "t": 7600,
      "d": 1066.666666666666,
      "v": 88
    },
    {
      "midi": 65,
      "hit": false,
      "t": 7600,
      "d": 1120,
      "v": 91
    },
    {
      "midi": 46,
      "hit": false,
      "t": 7600,
      "d": 1133.333333333334,
      "v": 104
    },
    {
      "midi": 53,
      "hit": false,
      "t": 8800,
      "d": 536.6666666666661,
      "v": 98
    },
    {
      "midi": 58,
      "hit": false,
      "t": 8800,
      "d": 586.6666666666661,
      "v": 104
    },
    {
      "midi": 61,
      "hit": false,
      "t": 8800,
      "d": 606.6666666666661,
      "v": 88
    },
    {
      "midi": 44,
      "hit": false,
      "t": 8800,
      "d": 686.6666666666661,
      "v": 104
    },
    {
      "midi": 54,
      "hit": false,
      "t": 9600,
      "d": 1086.666666666666,
      "v": 95
    },
    {
      "midi": 58,
      "hit": false,
      "t": 9600,
      "d": 1210,
      "v": 95
    },
    {
      "midi": 61,
      "hit": false,
      "t": 9600,
      "d": 1256.666666666666,
      "v": 91
    },
    {
      "midi": 42,
      "hit": false,
      "t": 9600,
      "d": 1290,
      "v": 91
    },
    {
      "midi": 49,
      "hit": false,
      "t": 9600,
      "d": 1300,
      "v": 95
    },
    {
      "midi": 56,
      "hit": false,
      "t": 10800,
      "d": 243.33333333333394,
      "v": 114
    },
    {
      "midi": 58,
      "hit": false,
      "t": 11000,
      "d": 3.3333333333339397,
      "v": 88
    },
    {
      "midi": 51,
      "hit": false,
      "t": 11200,
      "d": 1176.666666666666,
      "v": 82
    },
    {
      "midi": 44,
      "hit": false,
      "t": 11200,
      "d": 1206.666666666666,
      "v": 88
    },
    {
      "midi": 58,
      "hit": false,
      "t": 11200,
      "d": 1323.3333333333321,
      "v": 91
    },
    {
      "midi": 54,
      "hit": false,
      "t": 11200,
      "d": 1353.3333333333321,
      "v": 95
    },
    {
      "midi": 63,
      "hit": false,
      "t": 11200,
      "d": 1373.3333333333321,
      "v": 88
    },
    {
      "midi": 63,
      "hit": false,
      "t": 12799.999999999998,
      "d": 466.66666666666606,
      "v": 104
    },
    {
      "midi": 56,
      "hit": false,
      "t": 12799.999999999998,
      "d": 493.3333333333321,
      "v": 104
    },
    {
      "midi": 53,
      "hit": false,
      "t": 12799.999999999998,
      "d": 856.6666666666642,
      "v": 104
    },
    {
      "midi": 44,
      "hit": false,
      "t": 12799.999999999998,
      "d": 1383.3333333333321,
      "v": 88
    },
    {
      "midi": 49,
      "hit": false,
      "t": 12799.999999999998,
      "d": 1399.9999999999982,
      "v": 80
    },
    {
      "midi": 37,
      "hit": false,
      "t": 12799.999999999998,
      "d": 1416.6666666666642,
      "v": 78
    },
    {
      "midi": 61,
      "hit": false,
      "t": 13199.999999999998,
      "d": 1086.6666666666642,
      "v": 78
    },
    {
      "midi": 56,
      "hit": false,
      "t": 13599.999999999996,
      "d": 640,
      "v": 78
    },
    {
      "midi": 53,
      "hit": false,
      "t": 13999.999999999996,
      "d": 216.66666666666606,
      "v": 82
    },
    {
      "midi": 54,
      "hit": false,
      "t": 14399.999999999996,
      "d": 1260,
      "v": 109
    },
    {
      "midi": 58,
      "hit": false,
      "t": 14399.999999999996,
      "d": 1270,
      "v": 109
    },
    {
      "midi": 63,
      "hit": false,
      "t": 14399.999999999996,
      "d": 1276.666666666666,
      "v": 91
    },
    {
      "midi": 44,
      "hit": false,
      "t": 14399.999999999996,
      "d": 1293.3333333333321,
      "v": 109
    },
    {
      "midi": 61,
      "hit": false,
      "t": 14799.999999999996,
      "d": 876.6666666666661,
      "v": 88
    },
    {
      "midi": 56,
      "hit": false,
      "t": 15999.999999999995,
      "d": 693.3333333333339,
      "v": 104
    },
    {
      "midi": 61,
      "hit": false,
      "t": 15999.999999999995,
      "d": 833.3333333333339,
      "v": 95
    },
    {
      "midi": 68,
      "hit": false,
      "t": 15999.999999999995,
      "d": 900.0000000000018,
      "v": 91
    },
    {
      "midi": 65,
      "hit": false,
      "t": 15999.999999999995,
      "d": 926.6666666666697,
      "v": 95
    },
    {
      "midi": 37,
      "hit": false,
      "t": 15999.999999999995,
      "d": 1386.6666666666697,
      "v": 104
    },
    {
      "midi": 49,
      "hit": false,
      "t": 15999.999999999995,
      "d": 1390.0000000000018,
      "v": 104
    },
    {
      "midi": 56,
      "hit": false,
      "t": 16799.999999999996,
      "d": 700,
      "v": 109
    },
    {
      "midi": 61,
      "hit": false,
      "t": 16999.999999999996,
      "d": 400,
      "v": 88
    },
    {
      "midi": 65,
      "hit": false,
      "t": 17199.999999999996,
      "d": 256.6666666666679,
      "v": 85
    },
    {
      "midi": 68,
      "hit": false,
      "t": 17399.999999999996,
      "d": 133.33333333333212,
      "v": 91
    },
    {
      "midi": 56,
      "hit": false,
      "t": 17599.999999999996,
      "d": 660,
      "v": 88
    },
    {
      "midi": 60,
      "hit": false,
      "t": 17599.999999999996,
      "d": 676.6666666666679,
      "v": 88
    },
    {
      "midi": 68,
      "hit": false,
      "t": 17599.999999999996,
      "d": 686.6666666666679,
      "v": 91
    },
    {
      "midi": 63,
      "hit": false,
      "t": 17599.999999999996,
      "d": 690,
      "v": 91
    },
    {
      "midi": 44,
      "hit": false,
      "t": 17599.999999999996,
      "d": 1606.6666666666679,
      "v": 104
    },
    {
      "midi": 60,
      "hit": false,
      "t": 18399.999999999996,
      "d": 653.3333333333321,
      "v": 82
    },
    {
      "midi": 63,
      "hit": false,
      "t": 18399.999999999996,
      "d": 660,
      "v": 88
    },
    {
      "midi": 56,
      "hit": false,
      "t": 18399.999999999996,
      "d": 676.6666666666679,
      "v": 80
    },
    {
      "midi": 58,
      "hit": false,
      "t": 19199.999999999996,
      "d": 733.3333333333358,
      "v": 109
    },
    {
      "midi": 66,
      "hit": false,
      "t": 19199.999999999996,
      "d": 740.0000000000036,
      "v": 109
    },
    {
      "midi": 63,
      "hit": false,
      "t": 19199.999999999996,
      "d": 773.3333333333358,
      "v": 104
    },
    {
      "midi": 51,
      "hit": false,
      "t": 19199.999999999996,
      "d": 1400.0000000000036,
      "v": 114
    },
    {
      "midi": 39,
      "hit": false,
      "t": 19199.999999999996,
      "d": 1493.3333333333358,
      "v": 95
    },
    {
      "midi": 54,
      "hit": false,
      "t": 20000,
      "d": 676.6666666666642,
      "v": 109
    },
    {
      "midi": 58,
      "hit": false,
      "t": 20200,
      "d": 433.3333333333321,
      "v": 95
    },
    {
      "midi": 63,
      "hit": false,
      "t": 20400,
      "d": 310,
      "v": 82
    },
    {
      "midi": 66,
      "hit": false,
      "t": 20600,
      "d": 123.33333333333212,
      "v": 91
    },
    {
      "midi": 53,
      "hit": false,
      "t": 20800,
      "d": 690,
      "v": 104
    },
    {
      "midi": 58,
      "hit": false,
      "t": 20800,
      "d": 693.3333333333321,
      "v": 91
    },
    {
      "midi": 61,
      "hit": false,
      "t": 20800,
      "d": 700,
      "v": 95
    },
    {
      "midi": 65,
      "hit": false,
      "t": 20800,
      "d": 726.6666666666679,
      "v": 104
    },
    {
      "midi": 46,
      "hit": false,
      "t": 20800,
      "d": 753.3333333333358,
      "v": 109
    },
    {
      "midi": 53,
      "hit": false,
      "t": 21600.000000000004,
      "d": 576.6666666666679,
      "v": 98
    },
    {
      "midi": 58,
      "hit": false,
      "t": 21600.000000000004,
      "d": 623.3333333333358,
      "v": 95
    },
    {
      "midi": 61,
      "hit": false,
      "t": 21600.000000000004,
      "d": 650.0000000000036,
      "v": 104
    },
    {
      "midi": 44,
      "hit": false,
      "t": 21600.000000000004,
      "d": 733.3333333333358,
      "v": 109
    },
    {
      "midi": 56,
      "hit": false,
      "t": 22400.000000000007,
      "d": 850,
      "v": 104
    },
    {
      "midi": 58,
      "hit": false,
      "t": 22400.000000000007,
      "d": 923.3333333333321,
      "v": 91
    },
    {
      "midi": 61,
      "hit": false,
      "t": 22400.000000000007,
      "d": 973.3333333333321,
      "v": 91
    },
    {
      "midi": 42,
      "hit": false,
      "t": 22400.000000000007,
      "d": 1356.6666666666679,
      "v": 104
    },
    {
      "midi": 49,
      "hit": false,
      "t": 22400.000000000007,
      "d": 1403.3333333333321,
      "v": 104
    },
    {
      "midi": 54,
      "hit": false,
      "t": 23200.000000000007,
      "d": 560,
      "v": 104
    },
    {
      "midi": 56,
      "hit": false,
      "t": 23400.000000000007,
      "d": 433.3333333333321,
      "v": 109
    },
    {
      "midi": 58,
      "hit": false,
      "t": 23600.000000000007,
      "d": 253.33333333333212,
      "v": 95
    },
    {
      "midi": 61,
      "hit": false,
      "t": 23800.000000000007,
      "d": 150,
      "v": 91
    },
    {
      "midi": 54,
      "hit": false,
      "t": 24000.000000000007,
      "d": 1033.3333333333321,
      "v": 109
    },
    {
      "midi": 58,
      "hit": false,
      "t": 24000.000000000007,
      "d": 1056.6666666666642,
      "v": 109
    },
    {
      "midi": 63,
      "hit": false,
      "t": 24000.000000000007,
      "d": 1099.9999999999964,
      "v": 95
    },
    {
      "midi": 51,
      "hit": false,
      "t": 24000.000000000007,
      "d": 1123.3333333333285,
      "v": 91
    },
    {
      "midi": 44,
      "hit": false,
      "t": 24000.000000000007,
      "d": 1156.6666666666606,
      "v": 104
    },
    {
      "midi": 58,
      "hit": false,
      "t": 25200,
      "d": 253.33333333333212,
      "v": 104
    },
    {
      "midi": 61,
      "hit": false,
      "t": 25200,
      "d": 253.33333333333212,
      "v": 91
    },
    {
      "midi": 54,
      "hit": false,
      "t": 25200,
      "d": 276.66666666666424,
      "v": 95
    },
    {
      "midi": 63,
      "hit": false,
      "t": 25400,
      "d": 216.66666666666424,
      "v": 82
    },
    {
      "midi": 53,
      "hit": false,
      "t": 25599.999999999996,
      "d": 690,
      "v": 91
    },
    {
      "midi": 56,
      "hit": false,
      "t": 25599.999999999996,
      "d": 803.3333333333321,
      "v": 104
    },
    {
      "midi": 61,
      "hit": false,
      "t": 25599.999999999996,
      "d": 856.6666666666642,
      "v": 104
    },
    {
      "midi": 65,
      "hit": false,
      "t": 25599.999999999996,
      "d": 876.6666666666642,
      "v": 95
    },
    {
      "midi": 37,
      "hit": false,
      "t": 25599.999999999996,
      "d": 1383.3333333333285,
      "v": 104
    },
    {
      "midi": 49,
      "hit": false,
      "t": 25599.999999999996,
      "d": 1393.3333333333285,
      "v": 104
    },
    {
      "midi": 53,
      "hit": false,
      "t": 26399.999999999996,
      "d": 606.6666666666606,
      "v": 114
    },
    {
      "midi": 56,
      "hit": false,
      "t": 26599.999999999993,
      "d": 403.3333333333321,
      "v": 95
    },
    {
      "midi": 61,
      "hit": false,
      "t": 26799.999999999993,
      "d": 273.3333333333321,
      "v": 95
    },
    {
      "midi": 65,
      "hit": false,
      "t": 26999.999999999993,
      "d": 120,
      "v": 91
    },
    {
      "midi": 54,
      "hit": false,
      "t": 27199.999999999993,
      "d": 640,
      "v": 104
    },
    {
      "midi": 58,
      "hit": false,
      "t": 27199.999999999993,
      "d": 640,
      "v": 95
    },
    {
      "midi": 63,
      "hit": false,
      "t": 27199.999999999993,
      "d": 690,
      "v": 104
    },
    {
      "midi": 44,
      "hit": false,
      "t": 27199.999999999993,
      "d": 1570,
      "v": 104
    },
    {
      "midi": 54,
      "hit": false,
      "t": 27999.999999999993,
      "d": 306.6666666666679,
      "v": 109
    },
    {
      "midi": 58,
      "hit": false,
      "t": 27999.999999999993,
      "d": 340,
      "v": 114
    },
    {
      "midi": 61,
      "hit": false,
      "t": 27999.999999999993,
      "d": 436.6666666666679,
      "v": 109
    },
    {
      "midi": 54,
      "hit": false,
      "t": 28399.999999999993,
      "d": 243.33333333333576,
      "v": 88
    },
    {
      "midi": 58,
      "hit": false,
      "t": 28399.999999999993,
      "d": 326.6666666666679,
      "v": 82
    },
    {
      "midi": 63,
      "hit": false,
      "t": 28399.999999999993,
      "d": 326.6666666666679,
      "v": 88
    },
    {
      "midi": 56,
      "hit": false,
      "t": 28799.999999999993,
      "d": 750,
      "v": 114
    },
    {
      "midi": 65,
      "hit": false,
      "t": 28799.999999999993,
      "d": 786.6666666666679,
      "v": 95
    },
    {
      "midi": 61,
      "hit": false,
      "t": 28799.999999999993,
      "d": 793.3333333333358,
      "v": 104
    },
    {
      "midi": 49,
      "hit": false,
      "t": 28799.999999999993,
      "d": 1400.0000000000036,
      "v": 104
    },
    {
      "midi": 37,
      "hit": false,
      "t": 28799.999999999993,
      "d": 1476.6666666666715,
      "v": 91
    },
    {
      "midi": 53,
      "hit": false,
      "t": 29599.999999999996,
      "d": 626.6666666666679,
      "v": 104
    },
    {
      "midi": 56,
      "hit": false,
      "t": 29799.999999999996,
      "d": 400,
      "v": 109
    },
    {
      "midi": 61,
      "hit": false,
      "t": 29999.999999999996,
      "d": 283.33333333333576,
      "v": 88
    },
    {
      "midi": 65,
      "hit": false,
      "t": 30199.999999999996,
      "d": 126.66666666666788,
      "v": 98
    },
    {
      "midi": 56,
      "hit": false,
      "t": 30399.999999999996,
      "d": 620,
      "v": 109
    },
    {
      "midi": 60,
      "hit": false,
      "t": 30399.999999999996,
      "d": 650,
      "v": 91
    },
    {
      "midi": 63,
      "hit": false,
      "t": 30399.999999999996,
      "d": 670,
      "v": 88
    },
    {
      "midi": 48,
      "hit": false,
      "t": 30399.999999999996,
      "d": 1423.3333333333321,
      "v": 109
    },
    {
      "midi": 68,
      "hit": false,
      "t": 31199.999999999996,
      "d": 710,
      "v": 114
    },
    {
      "midi": 60,
      "hit": false,
      "t": 31199.999999999996,
      "d": 743.3333333333321,
      "v": 120
    },
    {
      "midi": 54,
      "hit": false,
      "t": 31999.999999999996,
      "d": 616.6666666666679,
      "v": 104
    },
    {
      "midi": 58,
      "hit": false,
      "t": 31999.999999999996,
      "d": 753.3333333333358,
      "v": 109
    },
    {
      "midi": 66,
      "hit": false,
      "t": 31999.999999999996,
      "d": 756.6666666666679,
      "v": 95
    },
    {
      "midi": 51,
      "hit": false,
      "t": 31999.999999999996,
      "d": 1340.0000000000036,
      "v": 114
    },
    {
      "midi": 39,
      "hit": false,
      "t": 31999.999999999996,
      "d": 1503.3333333333394,
      "v": 104
    },
    {
      "midi": 54,
      "hit": false,
      "t": 32800,
      "d": 623.3333333333358,
      "v": 109
    },
    {
      "midi": 58,
      "hit": false,
      "t": 33000,
      "d": 400,
      "v": 109
    },
    {
      "midi": 63,
      "hit": false,
      "t": 33200,
      "d": 286.6666666666715,
      "v": 88
    },
    {
      "midi": 66,
      "hit": false,
      "t": 33400,
      "d": 120,
      "v": 104
    },
    {
      "midi": 53,
      "hit": false,
      "t": 33600,
      "d": 700,
      "v": 109
    },
    {
      "midi": 58,
      "hit": false,
      "t": 33600,
      "d": 703.3333333333358,
      "v": 95
    },
    {
      "midi": 61,
      "hit": false,
      "t": 33600,
      "d": 703.3333333333358,
      "v": 109
    },
    {
      "midi": 46,
      "hit": false,
      "t": 33600,
      "d": 743.3333333333358,
      "v": 114
    },
    {
      "midi": 65,
      "hit": false,
      "t": 33600,
      "d": 743.3333333333358,
      "v": 114
    },
    {
      "midi": 53,
      "hit": false,
      "t": 34400,
      "d": 543.3333333333358,
      "v": 114
    },
    {
      "midi": 58,
      "hit": false,
      "t": 34400,
      "d": 623.3333333333358,
      "v": 109
    },
    {
      "midi": 61,
      "hit": false,
      "t": 34400,
      "d": 640,
      "v": 109
    },
    {
      "midi": 44,
      "hit": false,
      "t": 34400,
      "d": 753.3333333333358,
      "v": 114
    },
    {
      "midi": 54,
      "hit": false,
      "t": 35200,
      "d": 670,
      "v": 109
    },
    {
      "midi": 58,
      "hit": false,
      "t": 35200,
      "d": 783.3333333333358,
      "v": 109
    },
    {
      "midi": 61,
      "hit": false,
      "t": 35200,
      "d": 810,
      "v": 109
    },
    {
      "midi": 49,
      "hit": false,
      "t": 35200,
      "d": 1519.9999999999927,
      "v": 104
    },
    {
      "midi": 42,
      "hit": false,
      "t": 35200,
      "d": 1573.3333333333285,
      "v": 95
    },
    {
      "midi": 56,
      "hit": false,
      "t": 36000,
      "d": 653.3333333333285,
      "v": 114
    },
    {
      "midi": 58,
      "hit": false,
      "t": 36200,
      "d": 376.66666666666424,
      "v": 91
    },
    {
      "midi": 61,
      "hit": false,
      "t": 36400,
      "d": 216.66666666666424,
      "v": 88
    },
    {
      "midi": 63,
      "hit": false,
      "t": 36600,
      "d": 119.99999999999272,
      "v": 88
    },
    {
      "midi": 54,
      "hit": false,
      "t": 36799.99999999999,
      "d": 640,
      "v": 109
    },
    {
      "midi": 58,
      "hit": false,
      "t": 36799.99999999999,
      "d": 656.6666666666642,
      "v": 114
    },
    {
      "midi": 63,
      "hit": false,
      "t": 36799.99999999999,
      "d": 686.6666666666642,
      "v": 104
    },
    {
      "midi": 44,
      "hit": false,
      "t": 36799.99999999999,
      "d": 1600,
      "v": 114
    },
    {
      "midi": 54,
      "hit": false,
      "t": 37599.99999999999,
      "d": 340,
      "v": 104
    },
    {
      "midi": 61,
      "hit": false,
      "t": 37599.99999999999,
      "d": 456.66666666666424,
      "v": 104
    },
    {
      "midi": 58,
      "hit": false,
      "t": 37599.99999999999,
      "d": 670,
      "v": 109
    },
    {
      "midi": 54,
      "hit": false,
      "t": 37999.99999999999,
      "d": 260,
      "v": 91
    },
    {
      "midi": 63,
      "hit": false,
      "t": 37999.99999999999,
      "d": 326.66666666666424,
      "v": 88
    },
    {
      "midi": 53,
      "hit": false,
      "t": 38399.99999999999,
      "d": 1043.3333333333358,
      "v": 114
    },
    {
      "midi": 56,
      "hit": false,
      "t": 38399.99999999999,
      "d": 1186.6666666666715,
      "v": 114
    },
    {
      "midi": 61,
      "hit": false,
      "t": 38399.99999999999,
      "d": 1220.0000000000073,
      "v": 109
    },
    {
      "midi": 49,
      "hit": false,
      "t": 38399.99999999999,
      "d": 1536.6666666666715,
      "v": 109
    },
    {
      "midi": 37,
      "hit": false,
      "t": 38399.99999999999,
      "d": 2790.0000000000146,
      "v": 82
    },
    {
      "midi": 53,
      "hit": false,
      "t": 39600,
      "d": 340,
      "v": 109
    },
    {
      "midi": 56,
      "hit": false,
      "t": 39800,
      "d": 143.33333333333576,
      "v": 109
    },
    {
      "midi": 56,
      "hit": false,
      "t": 40000,
      "d": 693.3333333333358,
      "v": 114
    },
    {
      "midi": 53,
      "hit": false,
      "t": 40000,
      "d": 706.6666666666715,
      "v": 120
    },
    {
      "midi": 65,
      "hit": false,
      "t": 40000,
      "d": 716.6666666666715,
      "v": 120
    },
    {
      "midi": 49,
      "hit": false,
      "t": 40000,
      "d": 1223.333333333343,
      "v": 109
    },
    {
      "midi": 53,
      "hit": false,
      "t": 40800.00000000001,
      "d": 320,
      "v": 91
    },
    {
      "midi": 63,
      "hit": false,
      "t": 40800.00000000001,
      "d": 453.33333333333576,
      "v": 104
    },
    {
      "midi": 56,
      "hit": false,
      "t": 40800.00000000001,
      "d": 653.3333333333358,
      "v": 109
    },
    {
      "midi": 53,
      "hit": false,
      "t": 41200.00000000001,
      "d": 266.6666666666715,
      "v": 91
    },
    {
      "midi": 65,
      "hit": false,
      "t": 41200.00000000001,
      "d": 300.0000000000073,
      "v": 109
    },
    {
      "midi": 53,
      "hit": false,
      "t": 41600.000000000015,
      "d": 673.3333333333358,
      "v": 120
    },
    {
      "midi": 58,
      "hit": false,
      "t": 41600.000000000015,
      "d": 676.6666666666715,
      "v": 109
    },
    {
      "midi": 65,
      "hit": false,
      "t": 41600.000000000015,
      "d": 690.0000000000073,
      "v": 120
    },
    {
      "midi": 61,
      "hit": false,
      "t": 41600.000000000015,
      "d": 710.0000000000073,
      "v": 109
    },
    {
      "midi": 46,
      "hit": false,
      "t": 41600.000000000015,
      "d": 1323.333333333343,
      "v": 114
    },
    {
      "midi": 53,
      "hit": false,
      "t": 42400.00000000002,
      "d": 300,
      "v": 78
    },
    {
      "midi": 58,
      "hit": false,
      "t": 42400.00000000002,
      "d": 643.3333333333358,
      "v": 124
    },
    {
      "midi": 61,
      "hit": false,
      "t": 42800.00000000002,
      "d": 283.33333333333576,
      "v": 95
    },
    {
      "midi": 65,
      "hit": false,
      "t": 42800.00000000002,
      "d": 310,
      "v": 91
    },
    {
      "midi": 70,
      "hit": false,
      "t": 42800.00000000002,
      "d": 323.33333333333576,
      "v": 109
    },
    {
      "midi": 58,
      "hit": false,
      "t": 43200.00000000002,
      "d": 1043.3333333333358,
      "v": 114
    },
    {
      "midi": 63,
      "hit": false,
      "t": 43200.00000000002,
      "d": 1223.3333333333358,
      "v": 109
    },
    {
      "midi": 66,
      "hit": false,
      "t": 43200.00000000002,
      "d": 1410,
      "v": 109
    },
    {
      "midi": 39,
      "hit": false,
      "t": 43200.00000000002,
      "d": 1526.6666666666715,
      "v": 104
    },
    {
      "midi": 51,
      "hit": false,
      "t": 43200.00000000002,
      "d": 1536.6666666666715,
      "v": 109
    },
    {
      "midi": 58,
      "hit": false,
      "t": 44400.00000000002,
      "d": 283.33333333333576,
      "v": 114
    },
    {
      "midi": 63,
      "hit": false,
      "t": 44600.00000000002,
      "d": 136.66666666667152,
      "v": 95
    },
    {
      "midi": 58,
      "hit": false,
      "t": 44800.00000000003,
      "d": 583.3333333333358,
      "v": 114
    },
    {
      "midi": 61,
      "hit": false,
      "t": 44800.00000000003,
      "d": 586.6666666666715,
      "v": 109
    },
    {
      "midi": 66,
      "hit": false,
      "t": 44800.00000000003,
      "d": 616.6666666666715,
      "v": 104
    },
    {
      "midi": 51,
      "hit": false,
      "t": 44800.00000000003,
      "d": 1190.0000000000073,
      "v": 95
    },
    {
      "midi": 44,
      "hit": false,
      "t": 44800.00000000003,
      "d": 1460.0000000000073,
      "v": 104
    },
    {
      "midi": 61,
      "hit": false,
      "t": 45600.00000000004,
      "d": 476.66666666666424,
      "v": 114
    },
    {
      "midi": 66,
      "hit": false,
      "t": 45600.00000000004,
      "d": 476.66666666666424,
      "v": 104
    },
    {
      "midi": 58,
      "hit": false,
      "t": 45600.00000000004,
      "d": 676.6666666666642,
      "v": 114
    },
    {
      "midi": 68,
      "hit": false,
      "t": 46000.00000000004,
      "d": 250,
      "v": 95
    },
    {
      "midi": 65,
      "hit": false,
      "t": 46400.00000000004,
      "d": 533.3333333333358,
      "v": 95
    },
    {
      "midi": 37,
      "hit": false,
      "t": 46400.00000000004,
      "d": 536.6666666666715,
      "v": 104
    },
    {
      "midi": 61,
      "hit": false,
      "t": 46400.00000000004,
      "d": 633.3333333333358,
      "v": 114
    },
    {
      "midi": 68,
      "hit": false,
      "t": 46400.00000000004,
      "d": 666.6666666666715,
      "v": 109
    },
    {
      "midi": 56,
      "hit": false,
      "t": 46400.00000000004,
      "d": 676.6666666666715,
      "v": 124
    },
    {
      "midi": 49,
      "hit": false,
      "t": 46400.00000000004,
      "d": 736.6666666666715,
      "v": 114
    },
    {
      "midi": 56,
      "hit": false,
      "t": 47200.000000000044,
      "d": 610,
      "v": 124
    },
    {
      "midi": 60,
      "hit": false,
      "t": 47200.000000000044,
      "d": 653.3333333333358,
      "v": 98
    },
    {
      "midi": 65,
      "hit": false,
      "t": 47200.000000000044,
      "d": 673.3333333333358,
      "v": 95
    },
    {
      "midi": 68,
      "hit": false,
      "t": 47200.000000000044,
      "d": 683.3333333333358,
      "v": 109
    },
    {
      "midi": 48,
      "hit": false,
      "t": 47200.000000000044,
      "d": 726.6666666666715,
      "v": 98
    },
    {
      "midi": 58,
      "hit": false,
      "t": 48000.00000000005,
      "d": 666.6666666666642,
      "v": 127
    },
    {
      "midi": 61,
      "hit": false,
      "t": 48000.00000000005,
      "d": 766.6666666666642,
      "v": 109
    },
    {
      "midi": 65,
      "hit": false,
      "t": 48000.00000000005,
      "d": 806.6666666666642,
      "v": 104
    },
    {
      "midi": 53,
      "hit": false,
      "t": 48000.00000000005,
      "d": 1216.6666666666642,
      "v": 98
    },
    {
      "midi": 46,
      "hit": false,
      "t": 48000.00000000005,
      "d": 1583.3333333333285,
      "v": 95
    },
    {
      "midi": 58,
      "hit": false,
      "t": 48800.00000000005,
      "d": 649.9999999999927,
      "v": 114
    },
    {
      "midi": 61,
      "hit": false,
      "t": 49000.00000000005,
      "d": 383.3333333333285,
      "v": 95
    },
    {
      "midi": 65,
      "hit": false,
      "t": 49200.00000000005,
      "d": 219.99999999999272,
      "v": 88
    },
    {
      "midi": 70,
      "hit": false,
      "t": 49400.000000000044,
      "d": 173.33333333333576,
      "v": 109
    },
    {
      "midi": 58,
      "hit": false,
      "t": 49600.000000000044,
      "d": 676.6666666666642,
      "v": 114
    },
    {
      "midi": 63,
      "hit": false,
      "t": 49600.000000000044,
      "d": 710,
      "v": 109
    },
    {
      "midi": 66,
      "hit": false,
      "t": 49600.000000000044,
      "d": 723.3333333333358,
      "v": 109
    },
    {
      "midi": 51,
      "hit": false,
      "t": 49600.000000000044,
      "d": 1506.6666666666715,
      "v": 104
    },
    {
      "midi": 39,
      "hit": false,
      "t": 49600.000000000044,
      "d": 1560.0000000000073,
      "v": 88
    },
    {
      "midi": 63,
      "hit": false,
      "t": 50400.000000000044,
      "d": 586.6666666666642,
      "v": 109
    },
    {
      "midi": 66,
      "hit": false,
      "t": 50400.000000000044,
      "d": 610,
      "v": 114
    },
    {
      "midi": 70,
      "hit": false,
      "t": 50400.000000000044,
      "d": 643.3333333333358,
      "v": 114
    },
    {
      "midi": 58,
      "hit": false,
      "t": 50400.000000000044,
      "d": 653.3333333333358,
      "v": 109
    },
    {
      "midi": 58,
      "hit": false,
      "t": 51200.00000000005,
      "d": 986.6666666666642,
      "v": 114
    },
    {
      "midi": 70,
      "hit": false,
      "t": 51200.00000000005,
      "d": 1223.3333333333358,
      "v": 114
    },
    {
      "midi": 61,
      "hit": false,
      "t": 51200.00000000005,
      "d": 1243.3333333333358,
      "v": 114
    },
    {
      "midi": 51,
      "hit": false,
      "t": 51200.00000000005,
      "d": 1333.3333333333358,
      "v": 91
    },
    {
      "midi": 66,
      "hit": false,
      "t": 51200.00000000005,
      "d": 1406.6666666666642,
      "v": 124
    },
    {
      "midi": 44,
      "hit": false,
      "t": 51200.00000000005,
      "d": 1616.6666666666642,
      "v": 114
    },
    {
      "midi": 58,
      "hit": false,
      "t": 52400.00000000005,
      "d": 310,
      "v": 109
    },
    {
      "midi": 61,
      "hit": false,
      "t": 52600.00000000005,
      "d": 156.66666666666424,
      "v": 95
    },
    {
      "midi": 56,
      "hit": false,
      "t": 52800.00000000005,
      "d": 633.3333333333285,
      "v": 124
    },
    {
      "midi": 61,
      "hit": false,
      "t": 52800.00000000005,
      "d": 666.6666666666642,
      "v": 104
    },
    {
      "midi": 65,
      "hit": false,
      "t": 52800.00000000005,
      "d": 673.3333333333285,
      "v": 98
    },
    {
      "midi": 68,
      "hit": false,
      "t": 52800.00000000005,
      "d": 676.6666666666642,
      "v": 104
    },
    {
      "midi": 37,
      "hit": false,
      "t": 52800.00000000005,
      "d": 1156.6666666666642,
      "v": 91
    },
    {
      "midi": 49,
      "hit": false,
      "t": 52800.00000000005,
      "d": 1200,
      "v": 109
    },
    {
      "midi": 63,
      "hit": false,
      "t": 53600.00000000005,
      "d": 473.33333333333576,
      "v": 104
    },
    {
      "midi": 56,
      "hit": false,
      "t": 53600.00000000005,
      "d": 600,
      "v": 114
    },
    {
      "midi": 61,
      "hit": false,
      "t": 53600.00000000005,
      "d": 623.3333333333358,
      "v": 109
    },
    {
      "midi": 65,
      "hit": false,
      "t": 54000.00000000005,
      "d": 293.33333333333576,
      "v": 91
    },
    {
      "midi": 58,
      "hit": false,
      "t": 54400.00000000005,
      "d": 1126.6666666666642,
      "v": 124
    },
    {
      "midi": 61,
      "hit": false,
      "t": 54400.00000000005,
      "d": 1233.3333333333358,
      "v": 114
    },
    {
      "midi": 65,
      "hit": false,
      "t": 54400.00000000005,
      "d": 1250,
      "v": 109
    },
    {
      "midi": 54,
      "hit": false,
      "t": 54400.00000000005,
      "d": 2973.3333333333358,
      "v": 109
    },
    {
      "midi": 42,
      "hit": false,
      "t": 54400.00000000005,
      "d": 3026.6666666666715,
      "v": 104
    },
    {
      "midi": 58,
      "hit": false,
      "t": 55600.00000000005,
      "d": 366.66666666666424,
      "v": 109
    },
    {
      "midi": 61,
      "hit": false,
      "t": 55800.00000000005,
      "d": 1486.6666666666642,
      "v": 91
    },
    {
      "midi": 65,
      "hit": false,
      "t": 56000.00000000005,
      "d": 1266.6666666666642,
      "v": 98
    },
    {
      "midi": 58,
      "hit": false,
      "t": 56000.00000000005,
      "d": 1270,
      "v": 109
    },
    {
      "midi": 70,
      "hit": false,
      "t": 56000.00000000005,
      "d": 1320,
      "v": 109
    },
    {
      "midi": 60,
      "hit": false,
      "t": 57600.00000000006,
      "d": 1056.6666666666642,
      "v": 109
    },
    {
      "midi": 63,
      "hit": false,
      "t": 57600.00000000006,
      "d": 1066.6666666666642,
      "v": 124
    },
    {
      "midi": 68,
      "hit": false,
      "t": 57600.00000000006,
      "d": 1076.6666666666642,
      "v": 124
    },
    {
      "midi": 53,
      "hit": false,
      "t": 57600.00000000006,
      "d": 1500,
      "v": 109
    },
    {
      "midi": 41,
      "hit": false,
      "t": 57600.00000000006,
      "d": 1510,
      "v": 91
    },
    {
      "midi": 60,
      "hit": false,
      "t": 58800.00000000006,
      "d": 226.66666666666424,
      "v": 104
    },
    {
      "midi": 72,
      "hit": false,
      "t": 58800.00000000006,
      "d": 243.33333333332848,
      "v": 91
    },
    {
      "midi": 63,
      "hit": false,
      "t": 58800.00000000006,
      "d": 266.66666666666424,
      "v": 104
    },
    {
      "midi": 68,
      "hit": false,
      "t": 58800.00000000006,
      "d": 350,
      "v": 104
    },
    {
      "midi": 61,
      "hit": false,
      "t": 59200.00000000006,
      "d": 683.3333333333358,
      "v": 124
    },
    {
      "midi": 70,
      "hit": false,
      "t": 59200.00000000006,
      "d": 690,
      "v": 104
    },
    {
      "midi": 65,
      "hit": false,
      "t": 59200.00000000006,
      "d": 706.6666666666642,
      "v": 114
    },
    {
      "midi": 53,
      "hit": false,
      "t": 59200.00000000006,
      "d": 1116.6666666666642,
      "v": 95
    },
    {
      "midi": 46,
      "hit": false,
      "t": 59200.00000000006,
      "d": 1623.333333333343,
      "v": 95
    },
    {
      "midi": 70,
      "hit": false,
      "t": 60000.00000000006,
      "d": 620,
      "v": 104
    },
    {
      "midi": 61,
      "hit": false,
      "t": 60000.00000000006,
      "d": 623.3333333333358,
      "v": 114
    },
    {
      "midi": 65,
      "hit": false,
      "t": 60000.00000000006,
      "d": 653.3333333333358,
      "v": 114
    },
    {
      "midi": 73,
      "hit": false,
      "t": 60000.00000000006,
      "d": 656.6666666666715,
      "v": 109
    },
    {
      "midi": 61,
      "hit": false,
      "t": 60800.000000000065,
      "d": 1160,
      "v": 114
    },
    {
      "midi": 66,
      "hit": false,
      "t": 60800.000000000065,
      "d": 1166.6666666666642,
      "v": 114
    },
    {
      "midi": 70,
      "hit": false,
      "t": 60800.000000000065,
      "d": 1176.6666666666642,
      "v": 109
    },
    {
      "midi": 39,
      "hit": false,
      "t": 60800.000000000065,
      "d": 1423.3333333333358,
      "v": 88
    },
    {
      "midi": 51,
      "hit": false,
      "t": 60800.000000000065,
      "d": 1526.6666666666642,
      "v": 95
    },
    {
      "midi": 58,
      "hit": false,
      "t": 62000.000000000065,
      "d": 300,
      "v": 109
    },
    {
      "midi": 61,
      "hit": false,
      "t": 62200.000000000065,
      "d": 170,
      "v": 95
    },
    {
      "midi": 58,
      "hit": false,
      "t": 62400.000000000065,
      "d": 653.3333333333358,
      "v": 109
    },
    {
      "midi": 66,
      "hit": false,
      "t": 62400.000000000065,
      "d": 653.3333333333358,
      "v": 104
    },
    {
      "midi": 61,
      "hit": false,
      "t": 62400.000000000065,
      "d": 656.6666666666715,
      "v": 109
    },
    {
      "midi": 70,
      "hit": false,
      "t": 62400.000000000065,
      "d": 670.0000000000073,
      "v": 124
    },
    {
      "midi": 39,
      "hit": false,
      "t": 62400.000000000065,
      "d": 1186.6666666666788,
      "v": 95
    },
    {
      "midi": 51,
      "hit": false,
      "t": 62400.000000000065,
      "d": 1226.6666666666788,
      "v": 95
    },
    {
      "midi": 58,
      "hit": false,
      "t": 63200.00000000007,
      "d": 333.33333333333576,
      "v": 124
    },
    {
      "midi": 61,
      "hit": false,
      "t": 63200.00000000007,
      "d": 356.6666666666715,
      "v": 114
    },
    {
      "midi": 70,
      "hit": false,
      "t": 63200.00000000007,
      "d": 443.33333333333576,
      "v": 109
    },
    {
      "midi": 66,
      "hit": false,
      "t": 63200.00000000007,
      "d": 473.33333333333576,
      "v": 109
    },
    {
      "midi": 61,
      "hit": false,
      "t": 63600.00000000008,
      "d": 189.99999999999272,
      "v": 57
    },
    {
      "midi": 58,
      "hit": false,
      "t": 63600.00000000008,
      "d": 216.66666666665697,
      "v": 64
    },
    {
      "midi": 68,
      "hit": false,
      "t": 63600.00000000008,
      "d": 233.3333333333212,
      "v": 95
    },
    {
      "midi": 58,
      "hit": false,
      "t": 64000.000000000065,
      "d": 1073.3333333333358,
      "v": 124
    },
    {
      "midi": 61,
      "hit": false,
      "t": 64000.000000000065,
      "d": 1190,
      "v": 124
    },
    {
      "midi": 66,
      "hit": false,
      "t": 64000.000000000065,
      "d": 1456.6666666666642,
      "v": 124
    },
    {
      "midi": 44,
      "hit": false,
      "t": 64000.000000000065,
      "d": 1526.666666666657,
      "v": 109
    },
    {
      "midi": 54,
      "hit": false,
      "t": 64000.000000000065,
      "d": 1539.9999999999927,
      "v": 109
    },
    {
      "midi": 58,
      "hit": false,
      "t": 65200.000000000065,
      "d": 273.3333333333285,
      "v": 109
    },
    {
      "midi": 61,
      "hit": false,
      "t": 65400.000000000065,
      "d": 119.99999999999272,
      "v": 91
    },
    {
      "midi": 58,
      "hit": false,
      "t": 65600.00000000006,
      "d": 643.3333333333285,
      "v": 109
    },
    {
      "midi": 61,
      "hit": false,
      "t": 65600.00000000006,
      "d": 643.3333333333285,
      "v": 114
    },
    {
      "midi": 68,
      "hit": false,
      "t": 65600.00000000006,
      "d": 653.3333333333285,
      "v": 114
    },
    {
      "midi": 54,
      "hit": false,
      "t": 65600.00000000006,
      "d": 1066.6666666666715,
      "v": 114
    },
    {
      "midi": 44,
      "hit": false,
      "t": 65600.00000000006,
      "d": 1126.6666666666715,
      "v": 95
    },
    {
      "midi": 70,
      "hit": false,
      "t": 66400.00000000006,
      "d": 543.333333333343,
      "v": 127
    },
    {
      "midi": 61,
      "hit": false,
      "t": 66400.00000000006,
      "d": 593.333333333343,
      "v": 114
    },
    {
      "midi": 58,
      "hit": false,
      "t": 66400.00000000006,
      "d": 603.333333333343,
      "v": 114
    },
    {
      "midi": 61,
      "hit": false,
      "t": 67200.00000000007,
      "d": 783.3333333333285,
      "v": 124
    },
    {
      "midi": 68,
      "hit": false,
      "t": 67200.00000000007,
      "d": 783.3333333333285,
      "v": 124
    },
    {
      "midi": 65,
      "hit": false,
      "t": 67200.00000000007,
      "d": 843.3333333333285,
      "v": 109
    },
    {
      "midi": 37,
      "hit": false,
      "t": 67200.00000000007,
      "d": 1160,
      "v": 109
    },
    {
      "midi": 49,
      "hit": false,
      "t": 67200.00000000007,
      "d": 1186.6666666666715,
      "v": 124
    },
    {
      "midi": 56,
      "hit": false,
      "t": 68000.00000000007,
      "d": 693.3333333333285,
      "v": 114
    },
    {
      "midi": 61,
      "hit": false,
      "t": 68200.00000000007,
      "d": 416.6666666666715,
      "v": 104
    },
    {
      "midi": 65,
      "hit": false,
      "t": 68400.00000000007,
      "d": 220,
      "v": 91
    },
    {
      "midi": 68,
      "hit": false,
      "t": 68600.00000000007,
      "d": 156.66666666665697,
      "v": 104
    },
    {
      "midi": 56,
      "hit": false,
      "t": 68800.00000000006,
      "d": 673.3333333333285,
      "v": 124
    },
    {
      "midi": 60,
      "hit": false,
      "t": 68800.00000000006,
      "d": 710,
      "v": 104
    },
    {
      "midi": 63,
      "hit": false,
      "t": 68800.00000000006,
      "d": 716.6666666666715,
      "v": 109
    },
    {
      "midi": 68,
      "hit": false,
      "t": 68800.00000000006,
      "d": 716.6666666666715,
      "v": 109
    },
    {
      "midi": 48,
      "hit": false,
      "t": 68800.00000000006,
      "d": 823.3333333333285,
      "v": 114
    },
    {
      "midi": 56,
      "hit": false,
      "t": 69600.00000000006,
      "d": 686.666666666657,
      "v": 114
    },
    {
      "midi": 60,
      "hit": false,
      "t": 69600.00000000006,
      "d": 693.3333333333285,
      "v": 85
    },
    {
      "midi": 63,
      "hit": false,
      "t": 69600.00000000006,
      "d": 710,
      "v": 109
    },
    {
      "midi": 54,
      "hit": false,
      "t": 70400.00000000006,
      "d": 683.3333333333285,
      "v": 114
    },
    {
      "midi": 58,
      "hit": false,
      "t": 70400.00000000006,
      "d": 790,
      "v": 104
    },
    {
      "midi": 63,
      "hit": false,
      "t": 70400.00000000006,
      "d": 890,
      "v": 95
    },
    {
      "midi": 66,
      "hit": false,
      "t": 70400.00000000006,
      "d": 940,
      "v": 109
    },
    {
      "midi": 51,
      "hit": false,
      "t": 70400.00000000006,
      "d": 1190,
      "v": 104
    },
    {
      "midi": 39,
      "hit": false,
      "t": 70400.00000000006,
      "d": 1273.3333333333285,
      "v": 95
    },
    {
      "midi": 54,
      "hit": false,
      "t": 71200.00000000006,
      "d": 626.6666666666715,
      "v": 114
    },
    {
      "midi": 58,
      "hit": false,
      "t": 71400.00000000006,
      "d": 410,
      "v": 95
    },
    {
      "midi": 63,
      "hit": false,
      "t": 71600.00000000006,
      "d": 266.6666666666715,
      "v": 91
    },
    {
      "midi": 66,
      "hit": false,
      "t": 71800.00000000006,
      "d": 120,
      "v": 104
    },
    {
      "midi": 65,
      "hit": false,
      "t": 72000.00000000006,
      "d": 653.3333333333285,
      "v": 120
    },
    {
      "midi": 58,
      "hit": false,
      "t": 72000.00000000006,
      "d": 690,
      "v": 114
    },
    {
      "midi": 53,
      "hit": false,
      "t": 72000.00000000006,
      "d": 693.3333333333285,
      "v": 120
    },
    {
      "midi": 61,
      "hit": false,
      "t": 72000.00000000006,
      "d": 693.3333333333285,
      "v": 127
    },
    {
      "midi": 46,
      "hit": false,
      "t": 72000.00000000006,
      "d": 733.3333333333285,
      "v": 124
    },
    {
      "midi": 53,
      "hit": false,
      "t": 72800.00000000006,
      "d": 550,
      "v": 120
    },
    {
      "midi": 56,
      "hit": false,
      "t": 72800.00000000006,
      "d": 590,
      "v": 127
    },
    {
      "midi": 61,
      "hit": false,
      "t": 72800.00000000006,
      "d": 640,
      "v": 109
    },
    {
      "midi": 44,
      "hit": false,
      "t": 72800.00000000006,
      "d": 790,
      "v": 109
    },
    {
      "midi": 58,
      "hit": false,
      "t": 73600.00000000006,
      "d": 693.3333333333285,
      "v": 114
    },
    {
      "midi": 42,
      "hit": false,
      "t": 73600.00000000006,
      "d": 1223.3333333333285,
      "v": 109
    },
    {
      "midi": 49,
      "hit": false,
      "t": 73600.00000000006,
      "d": 1240,
      "v": 104
    },
    {
      "midi": 54,
      "hit": false,
      "t": 73600.00000000006,
      "d": 1253.3333333333285,
      "v": 109
    },
    {
      "midi": 58,
      "hit": false,
      "t": 74400.00000000006,
      "d": 326.6666666666715,
      "v": 104
    },
    {
      "midi": 61,
      "hit": false,
      "t": 74400.00000000006,
      "d": 336.6666666666715,
      "v": 109
    },
    {
      "midi": 66,
      "hit": false,
      "t": 74400.00000000006,
      "d": 666.666666666657,
      "v": 95
    },
    {
      "midi": 61,
      "hit": false,
      "t": 74800.00000000006,
      "d": 273.3333333333285,
      "v": 104
    },
    {
      "midi": 70,
      "hit": false,
      "t": 74800.00000000006,
      "d": 276.66666666665697,
      "v": 109
    },
    {
      "midi": 58,
      "hit": false,
      "t": 74800.00000000006,
      "d": 286.66666666665697,
      "v": 124
    },
    {
      "midi": 58,
      "hit": false,
      "t": 75200.00000000004,
      "d": 590,
      "v": 114
    },
    {
      "midi": 61,
      "hit": false,
      "t": 75200.00000000004,
      "d": 603.3333333333285,
      "v": 114
    },
    {
      "midi": 66,
      "hit": false,
      "t": 75200.00000000004,
      "d": 640,
      "v": 104
    },
    {
      "midi": 54,
      "hit": false,
      "t": 75200.00000000004,
      "d": 1110,
      "v": 114
    },
    {
      "midi": 44,
      "hit": false,
      "t": 75200.00000000004,
      "d": 1170,
      "v": 104
    },
    {
      "midi": 58,
      "hit": false,
      "t": 76000.00000000004,
      "d": 656.6666666666715,
      "v": 114
    },
    {
      "midi": 61,
      "hit": false,
      "t": 76000.00000000004,
      "d": 670,
      "v": 114
    },
    {
      "midi": 68,
      "hit": false,
      "t": 76000.00000000004,
      "d": 686.6666666666715,
      "v": 114
    },
    {
      "midi": 56,
      "hit": false,
      "t": 76800.00000000004,
      "d": 633.3333333333285,
      "v": 127
    },
    {
      "midi": 61,
      "hit": false,
      "t": 76800.00000000004,
      "d": 800,
      "v": 114
    },
    {
      "midi": 65,
      "hit": false,
      "t": 76800.00000000004,
      "d": 990,
      "v": 114
    },
    {
      "midi": 37,
      "hit": false,
      "t": 76800.00000000004,
      "d": 1156.6666666666715,
      "v": 95
    },
    {
      "midi": 49,
      "hit": false,
      "t": 76800.00000000004,
      "d": 1200,
      "v": 109
    },
    {
      "midi": 56,
      "hit": false,
      "t": 77600.00000000004,
      "d": 660,
      "v": 114
    },
    {
      "midi": 61,
      "hit": false,
      "t": 77800.00000000004,
      "d": 426.6666666666715,
      "v": 95
    },
    {
      "midi": 65,
      "hit": false,
      "t": 78000.00000000004,
      "d": 270,
      "v": 91
    },
    {
      "midi": 68,
      "hit": false,
      "t": 78200.00000000004,
      "d": 166.66666666667152,
      "v": 104
    },
    {
      "midi": 58,
      "hit": false,
      "t": 78400.00000000004,
      "d": 653.3333333333285,
      "v": 114
    },
    {
      "midi": 61,
      "hit": false,
      "t": 78400.00000000004,
      "d": 666.666666666657,
      "v": 114
    },
    {
      "midi": 66,
      "hit": false,
      "t": 78400.00000000004,
      "d": 693.3333333333285,
      "v": 109
    },
    {
      "midi": 54,
      "hit": false,
      "t": 78400.00000000004,
      "d": 1076.6666666666715,
      "v": 124
    },
    {
      "midi": 44,
      "hit": false,
      "t": 78400.00000000004,
      "d": 1140,
      "v": 109
    },
    {
      "midi": 58,
      "hit": false,
      "t": 79200.00000000004,
      "d": 420,
      "v": 114
    },
    {
      "midi": 61,
      "hit": false,
      "t": 79200.00000000004,
      "d": 453.3333333333285,
      "v": 124
    },
    {
      "midi": 68,
      "hit": false,
      "t": 79200.00000000004,
      "d": 503.3333333333285,
      "v": 114
    },
    {
      "midi": 73,
      "hit": false,
      "t": 80000.00000000004,
      "d": 610,
      "v": 109
    },
    {
      "midi": 65,
      "hit": false,
      "t": 80000.00000000004,
      "d": 650,
      "v": 120
    },
    {
      "midi": 68,
      "hit": false,
      "t": 80000.00000000004,
      "d": 650,
      "v": 124
    },
    {
      "midi": 61,
      "hit": false,
      "t": 80000.00000000004,
      "d": 656.6666666666715,
      "v": 114
    },
    {
      "midi": 37,
      "hit": false,
      "t": 80000.00000000004,
      "d": 1260,
      "v": 104
    },
    {
      "midi": 49,
      "hit": false,
      "t": 80000.00000000004,
      "d": 1283.3333333333285,
      "v": 109
    },
    {
      "midi": 56,
      "hit": false,
      "t": 80800.00000000004,
      "d": 693.3333333333285,
      "v": 114
    },
    {
      "midi": 61,
      "hit": false,
      "t": 81000.00000000004,
      "d": 420,
      "v": 95
    },
    {
      "midi": 65,
      "hit": false,
      "t": 81200.00000000004,
      "d": 270,
      "v": 88
    },
    {
      "midi": 68,
      "hit": false,
      "t": 81400.00000000004,
      "d": 150,
      "v": 109
    },
    {
      "midi": 56,
      "hit": false,
      "t": 81600.00000000004,
      "d": 670,
      "v": 124
    },
    {
      "midi": 60,
      "hit": false,
      "t": 81600.00000000004,
      "d": 783.3333333333285,
      "v": 104
    },
    {
      "midi": 68,
      "hit": false,
      "t": 81600.00000000004,
      "d": 783.3333333333285,
      "v": 114
    },
    {
      "midi": 63,
      "hit": false,
      "t": 81600.00000000004,
      "d": 816.6666666666715,
      "v": 109
    },
    {
      "midi": 48,
      "hit": false,
      "t": 81600.00000000004,
      "d": 1210,
      "v": 109
    },
    {
      "midi": 56,
      "hit": false,
      "t": 82400.00000000004,
      "d": 670,
      "v": 124
    },
    {
      "midi": 68,
      "hit": false,
      "t": 82800.00000000004,
      "d": 270,
      "v": 109
    },
    {
      "midi": 60,
      "hit": false,
      "t": 82800.00000000004,
      "d": 316.6666666666715,
      "v": 109
    },
    {
      "midi": 63,
      "hit": false,
      "t": 82800.00000000004,
      "d": 333.33333333334303,
      "v": 104
    },
    {
      "midi": 54,
      "hit": false,
      "t": 83200.00000000006,
      "d": 603.3333333333285,
      "v": 114
    },
    {
      "midi": 58,
      "hit": false,
      "t": 83200.00000000006,
      "d": 710,
      "v": 104
    },
    {
      "midi": 66,
      "hit": false,
      "t": 83200.00000000006,
      "d": 733.3333333333285,
      "v": 114
    },
    {
      "midi": 63,
      "hit": false,
      "t": 83200.00000000006,
      "d": 743.3333333333285,
      "v": 104
    },
    {
      "midi": 51,
      "hit": false,
      "t": 83200.00000000006,
      "d": 1303.3333333333285,
      "v": 109
    },
    {
      "midi": 39,
      "hit": false,
      "t": 83200.00000000006,
      "d": 1516.6666666666715,
      "v": 95
    },
    {
      "midi": 54,
      "hit": false,
      "t": 84000.00000000006,
      "d": 636.6666666666715,
      "v": 124
    },
    {
      "midi": 58,
      "hit": false,
      "t": 84200.00000000006,
      "d": 400,
      "v": 95
    },
    {
      "midi": 63,
      "hit": false,
      "t": 84400.00000000006,
      "d": 290,
      "v": 95
    },
    {
      "midi": 66,
      "hit": false,
      "t": 84600.00000000006,
      "d": 116.66666666667152,
      "v": 104
    },
    {
      "midi": 65,
      "hit": false,
      "t": 84800.00000000006,
      "d": 686.6666666666715,
      "v": 114
    },
    {
      "midi": 58,
      "hit": false,
      "t": 84800.00000000006,
      "d": 726.6666666666715,
      "v": 114
    },
    {
      "midi": 53,
      "hit": false,
      "t": 84800.00000000006,
      "d": 733.333333333343,
      "v": 124
    },
    {
      "midi": 61,
      "hit": false,
      "t": 84800.00000000006,
      "d": 740.0000000000146,
      "v": 124
    },
    {
      "midi": 46,
      "hit": false,
      "t": 84800.00000000006,
      "d": 750.0000000000146,
      "v": 124
    },
    {
      "midi": 53,
      "hit": false,
      "t": 85600.00000000007,
      "d": 550,
      "v": 114
    },
    {
      "midi": 56,
      "hit": false,
      "t": 85600.00000000007,
      "d": 590,
      "v": 127
    },
    {
      "midi": 61,
      "hit": false,
      "t": 85600.00000000007,
      "d": 626.6666666666715,
      "v": 124
    },
    {
      "midi": 44,
      "hit": false,
      "t": 85600.00000000007,
      "d": 760,
      "v": 114
    },
    {
      "midi": 42,
      "hit": false,
      "t": 86400.00000000007,
      "d": 1323.333333333343,
      "v": 104
    },
    {
      "midi": 54,
      "hit": false,
      "t": 86400.00000000007,
      "d": 1433.333333333343,
      "v": 109
    },
    {
      "midi": 49,
      "hit": false,
      "t": 86400.00000000007,
      "d": 1460.0000000000146,
      "v": 104
    },
    {
      "midi": 58,
      "hit": false,
      "t": 86400.00000000007,
      "d": 1466.666666666686,
      "v": 114
    },
    {
      "midi": 66,
      "hit": false,
      "t": 86800.00000000007,
      "d": 566.6666666666715,
      "v": 91
    },
    {
      "midi": 61,
      "hit": false,
      "t": 86800.00000000007,
      "d": 640,
      "v": 109
    },
    {
      "midi": 70,
      "hit": false,
      "t": 87200.00000000007,
      "d": 466.6666666666715,
      "v": 124
    },
    {
      "midi": 61,
      "hit": false,
      "t": 87600.00000000007,
      "d": 336.66666666668607,
      "v": 109
    },
    {
      "midi": 66,
      "hit": false,
      "t": 87600.00000000007,
      "d": 403.33333333334303,
      "v": 95
    },
    {
      "midi": 61,
      "hit": false,
      "t": 88000.00000000009,
      "d": 683.3333333333285,
      "v": 114
    },
    {
      "midi": 58,
      "hit": false,
      "t": 88000.00000000009,
      "d": 693.3333333333285,
      "v": 124
    },
    {
      "midi": 54,
      "hit": false,
      "t": 88000.00000000009,
      "d": 1223.3333333333285,
      "v": 124
    },
    {
      "midi": 44,
      "hit": false,
      "t": 88000.00000000009,
      "d": 1303.3333333333285,
      "v": 109
    },
    {
      "midi": 58,
      "hit": false,
      "t": 88800.00000000009,
      "d": 683.3333333333285,
      "v": 124
    },
    {
      "midi": 61,
      "hit": false,
      "t": 88800.00000000009,
      "d": 686.666666666657,
      "v": 124
    },
    {
      "midi": 68,
      "hit": false,
      "t": 88800.00000000009,
      "d": 689.9999999999854,
      "v": 114
    },
    {
      "midi": 56,
      "hit": false,
      "t": 89600.00000000007,
      "d": 950,
      "v": 114
    },
    {
      "midi": 61,
      "hit": false,
      "t": 89600.00000000007,
      "d": 1133.3333333333285,
      "v": 104
    },
    {
      "midi": 65,
      "hit": false,
      "t": 89600.00000000007,
      "d": 1266.6666666666715,
      "v": 88
    },
    {
      "midi": 37,
      "hit": false,
      "t": 89600.00000000007,
      "d": 1983.333333333314,
      "v": 109
    },
    {
      "midi": 49,
      "hit": false,
      "t": 89600.00000000007,
      "d": 2219.9999999999854,
      "v": 124
    },
    {
      "midi": 56,
      "hit": false,
      "t": 90800.00000000007,
      "d": 323.3333333333285,
      "v": 124
    },
    {
      "midi": 61,
      "hit": false,
      "t": 91000.00000000007,
      "d": 166.66666666665697,
      "v": 95
    },
    {
      "midi": 65,
      "hit": false,
      "t": 91200.00000000006,
      "d": 626.6666666666715,
      "v": 114
    },
    {
      "midi": 56,
      "hit": false,
      "t": 91200.00000000006,
      "d": 650,
      "v": 124
    },
    {
      "midi": 61,
      "hit": false,
      "t": 91200.00000000006,
      "d": 666.6666666666715,
      "v": 114
    },
    {
      "midi": 56,
      "hit": false,
      "t": 92000.00000000006,
      "d": 456.6666666666715,
      "v": 124
    },
    {
      "midi": 60,
      "hit": false,
      "t": 92000.00000000006,
      "d": 503.33333333334303,
      "v": 104
    },
    {
      "midi": 65,
      "hit": false,
      "t": 92000.00000000006,
      "d": 526.6666666666715,
      "v": 98
    },
    {
      "midi": 68,
      "hit": false,
      "t": 92000.00000000006,
      "d": 556.6666666666715,
      "v": 104
    },
    {
      "midi": 48,
      "hit": false,
      "t": 92000.00000000006,
      "d": 666.6666666666715,
      "v": 104
    },
    {
      "midi": 61,
      "hit": false,
      "t": 92800.00000000006,
      "d": 693.3333333333285,
      "v": 109
    },
    {
      "midi": 53,
      "hit": false,
      "t": 92800.00000000006,
      "d": 1170,
      "v": 98
    },
    {
      "midi": 46,
      "hit": false,
      "t": 92800.00000000006,
      "d": 1566.666666666657,
      "v": 114
    },
    {
      "midi": 65,
      "hit": false,
      "t": 93200.00000000006,
      "d": 343.3333333333285,
      "v": 104
    },
    {
      "midi": 65,
      "hit": false,
      "t": 93600.00000000006,
      "d": 603.3333333333285,
      "v": 114
    },
    {
      "midi": 61,
      "hit": false,
      "t": 93600.00000000006,
      "d": 636.666666666657,
      "v": 114
    },
    {
      "midi": 70,
      "hit": false,
      "t": 93600.00000000006,
      "d": 709.9999999999854,
      "v": 109
    },
    {
      "midi": 73,
      "hit": false,
      "t": 94000.00000000006,
      "d": 289.99999999998545,
      "v": 104
    },
    {
      "midi": 63,
      "hit": false,
      "t": 94400.00000000004,
      "d": 1060,
      "v": 114
    },
    {
      "midi": 66,
      "hit": false,
      "t": 94400.00000000004,
      "d": 1176.6666666666715,
      "v": 109
    },
    {
      "midi": 39,
      "hit": false,
      "t": 94400.00000000004,
      "d": 1193.333333333343,
      "v": 91
    },
    {
      "midi": 51,
      "hit": false,
      "t": 94400.00000000004,
      "d": 1240.0000000000146,
      "v": 114
    },
    {
      "midi": 70,
      "hit": false,
      "t": 94400.00000000004,
      "d": 1300.0000000000146,
      "v": 104
    },
    {
      "midi": 63,
      "hit": false,
      "t": 95600.00000000006,
      "d": 293.3333333333285,
      "v": 114
    },
    {
      "midi": 66,
      "hit": false,
      "t": 95800.00000000006,
      "d": 170,
      "v": 91
    },
    {
      "midi": 61,
      "hit": false,
      "t": 96000.00000000006,
      "d": 666.6666666666715,
      "v": 124
    },
    {
      "midi": 66,
      "hit": false,
      "t": 96000.00000000006,
      "d": 673.333333333343,
      "v": 114
    },
    {
      "midi": 70,
      "hit": false,
      "t": 96000.00000000006,
      "d": 693.333333333343,
      "v": 109
    },
    {
      "midi": 54,
      "hit": false,
      "t": 96000.00000000006,
      "d": 1193.333333333343,
      "v": 109
    },
    {
      "midi": 44,
      "hit": false,
      "t": 96000.00000000006,
      "d": 1240.0000000000146,
      "v": 104
    },
    {
      "midi": 70,
      "hit": false,
      "t": 96800.00000000007,
      "d": 440,
      "v": 124
    },
    {
      "midi": 66,
      "hit": false,
      "t": 96800.00000000007,
      "d": 653.3333333333285,
      "v": 109
    },
    {
      "midi": 61,
      "hit": false,
      "t": 96800.00000000007,
      "d": 683.3333333333285,
      "v": 114
    },
    {
      "midi": 72,
      "hit": false,
      "t": 97200.00000000007,
      "d": 316.66666666665697,
      "v": 88
    },
    {
      "midi": 49,
      "hit": false,
      "t": 97600.00000000006,
      "d": 806.6666666666715,
      "v": 104
    },
    {
      "midi": 61,
      "hit": false,
      "t": 97600.00000000006,
      "d": 810,
      "v": 114
    },
    {
      "midi": 37,
      "hit": false,
      "t": 97600.00000000006,
      "d": 833.3333333333285,
      "v": 95
    },
    {
      "midi": 65,
      "hit": false,
      "t": 97600.00000000006,
      "d": 1469.9999999999854,
      "v": 124
    },
    {
      "midi": 68,
      "hit": false,
      "t": 97600.00000000006,
      "d": 1553.333333333314,
      "v": 124
    },
    {
      "midi": 60,
      "hit": false,
      "t": 98400.00000000006,
      "d": 556.666666666657,
      "v": 95
    },
    {
      "midi": 48,
      "hit": false,
      "t": 98400.00000000006,
      "d": 709.9999999999854,
      "v": 104
    },
    {
      "midi": 61,
      "hit": false,
      "t": 99200.00000000004,
      "d": 643.3333333333285,
      "v": 127
    },
    {
      "midi": 65,
      "hit": false,
      "t": 99200.00000000004,
      "d": 750,
      "v": 120
    },
    {
      "midi": 70,
      "hit": false,
      "t": 99200.00000000004,
      "d": 790,
      "v": 109
    },
    {
      "midi": 46,
      "hit": false,
      "t": 99200.00000000004,
      "d": 1583.3333333333285,
      "v": 104
    },
    {
      "midi": 61,
      "hit": false,
      "t": 100000.00000000004,
      "d": 650,
      "v": 124
    },
    {
      "midi": 65,
      "hit": false,
      "t": 100200.00000000004,
      "d": 410,
      "v": 95
    },
    {
      "midi": 70,
      "hit": false,
      "t": 100400.00000000004,
      "d": 290,
      "v": 104
    },
    {
      "midi": 73,
      "hit": false,
      "t": 100600.00000000004,
      "d": 153.33333333332848,
      "v": 109
    },
    {
      "midi": 61,
      "hit": false,
      "t": 100800.00000000004,
      "d": 673.3333333333285,
      "v": 114
    },
    {
      "midi": 66,
      "hit": false,
      "t": 100800.00000000004,
      "d": 686.666666666657,
      "v": 114
    },
    {
      "midi": 70,
      "hit": false,
      "t": 100800.00000000004,
      "d": 706.666666666657,
      "v": 104
    },
    {
      "midi": 39,
      "hit": false,
      "t": 100800.00000000004,
      "d": 1219.9999999999854,
      "v": 88
    },
    {
      "midi": 51,
      "hit": false,
      "t": 100800.00000000004,
      "d": 1256.666666666657,
      "v": 104
    },
    {
      "midi": 61,
      "hit": false,
      "t": 101600.00000000003,
      "d": 350,
      "v": 114
    },
    {
      "midi": 70,
      "hit": false,
      "t": 101600.00000000003,
      "d": 450,
      "v": 114
    },
    {
      "midi": 66,
      "hit": false,
      "t": 101600.00000000003,
      "d": 626.6666666666715,
      "v": 104
    },
    {
      "midi": 61,
      "hit": false,
      "t": 102000.00000000003,
      "d": 220,
      "v": 104
    },
    {
      "midi": 68,
      "hit": false,
      "t": 102000.00000000003,
      "d": 260,
      "v": 104
    },
    {
      "midi": 61,
      "hit": false,
      "t": 102400.00000000003,
      "d": 543.3333333333285,
      "v": 114
    },
    {
      "midi": 66,
      "hit": false,
      "t": 102400.00000000003,
      "d": 1033.3333333333285,
      "v": 114
    },
    {
      "midi": 68,
      "hit": false,
      "t": 102400.00000000003,
      "d": 1053.3333333333285,
      "v": 127
    },
    {
      "midi": 54,
      "hit": false,
      "t": 102400.00000000003,
      "d": 1170,
      "v": 109
    },
    {
      "midi": 44,
      "hit": false,
      "t": 102400.00000000003,
      "d": 1216.6666666666715,
      "v": 109
    },
    {
      "midi": 61,
      "hit": false,
      "t": 103600.00000000003,
      "d": 326.6666666666715,
      "v": 114
    },
    {
      "midi": 68,
      "hit": false,
      "t": 103600.00000000003,
      "d": 333.33333333334303,
      "v": 114
    },
    {
      "midi": 66,
      "hit": false,
      "t": 103600.00000000003,
      "d": 340.00000000001455,
      "v": 114
    },
    {
      "midi": 68,
      "hit": false,
      "t": 104000.00000000004,
      "d": 893.3333333333285,
      "v": 104
    },
    {
      "midi": 65,
      "hit": false,
      "t": 104000.00000000004,
      "d": 906.666666666657,
      "v": 114
    },
    {
      "midi": 61,
      "hit": false,
      "t": 104000.00000000004,
      "d": 926.666666666657,
      "v": 114
    },
    {
      "midi": 37,
      "hit": false,
      "t": 104000.00000000004,
      "d": 1223.333333333314,
      "v": 104
    },
    {
      "midi": 49,
      "hit": false,
      "t": 104000.00000000004,
      "d": 1256.6666666666424,
      "v": 109
    },
    {
      "midi": 56,
      "hit": false,
      "t": 105200.00000000003,
      "d": 266.66666666665697,
      "v": 124
    },
    {
      "midi": 61,
      "hit": false,
      "t": 105400.00000000001,
      "d": 150,
      "v": 91
    },
    {
      "midi": 58,
      "hit": false,
      "t": 105600.00000000001,
      "d": 1026.6666666666715,
      "v": 114
    },
    {
      "midi": 61,
      "hit": false,
      "t": 105600.00000000001,
      "d": 1183.333333333343,
      "v": 114
    },
    {
      "midi": 65,
      "hit": false,
      "t": 105600.00000000001,
      "d": 1253.333333333343,
      "v": 104
    },
    {
      "midi": 54,
      "hit": false,
      "t": 105600.00000000001,
      "d": 2883.333333333343,
      "v": 104
    },
    {
      "midi": 42,
      "hit": false,
      "t": 105600.00000000001,
      "d": 3040.0000000000146,
      "v": 91
    },
    {
      "midi": 49,
      "hit": false,
      "t": 105600.00000000001,
      "d": 3070.0000000000146,
      "v": 91
    },
    {
      "midi": 58,
      "hit": false,
      "t": 106800.00000000003,
      "d": 270,
      "v": 109
    },
    {
      "midi": 61,
      "hit": false,
      "t": 107000.00000000003,
      "d": 133.33333333332848,
      "v": 91
    },
    {
      "midi": 61,
      "hit": false,
      "t": 107200.00000000003,
      "d": 656.6666666666715,
      "v": 109
    },
    {
      "midi": 58,
      "hit": false,
      "t": 107200.00000000003,
      "d": 670,
      "v": 124
    },
    {
      "midi": 70,
      "hit": false,
      "t": 107200.00000000003,
      "d": 700,
      "v": 114
    },
    {
      "midi": 58,
      "hit": false,
      "t": 108000.00000000003,
      "d": 600,
      "v": 124
    },
    {
      "midi": 61,
      "hit": false,
      "t": 108000.00000000003,
      "d": 626.6666666666715,
      "v": 114
    },
    {
      "midi": 65,
      "hit": false,
      "t": 108000.00000000003,
      "d": 656.6666666666715,
      "v": 104
    },
    {
      "midi": 60,
      "hit": false,
      "t": 108800.00000000003,
      "d": 636.6666666666715,
      "v": 114
    },
    {
      "midi": 63,
      "hit": false,
      "t": 108800.00000000003,
      "d": 650,
      "v": 114
    },
    {
      "midi": 68,
      "hit": false,
      "t": 108800.00000000003,
      "d": 666.6666666666715,
      "v": 114
    },
    {
      "midi": 53,
      "hit": false,
      "t": 108800.00000000003,
      "d": 1490,
      "v": 98
    },
    {
      "midi": 41,
      "hit": false,
      "t": 108800.00000000003,
      "d": 1510,
      "v": 95
    },
    {
      "midi": 60,
      "hit": false,
      "t": 109600.00000000003,
      "d": 620,
      "v": 120
    },
    {
      "midi": 72,
      "hit": false,
      "t": 109600.00000000003,
      "d": 626.6666666666715,
      "v": 109
    },
    {
      "midi": 63,
      "hit": false,
      "t": 109600.00000000003,
      "d": 636.6666666666715,
      "v": 109
    },
    {
      "midi": 68,
      "hit": false,
      "t": 109600.00000000003,
      "d": 726.6666666666715,
      "v": 109
    },
    {
      "midi": 61,
      "hit": false,
      "t": 110400.00000000003,
      "d": 1073.3333333333285,
      "v": 124
    },
    {
      "midi": 65,
      "hit": false,
      "t": 110400.00000000003,
      "d": 1100,
      "v": 114
    },
    {
      "midi": 70,
      "hit": false,
      "t": 110400.00000000003,
      "d": 1106.6666666666715,
      "v": 109
    },
    {
      "midi": 53,
      "hit": false,
      "t": 110400.00000000003,
      "d": 1250,
      "v": 95
    },
    {
      "midi": 46,
      "hit": false,
      "t": 110400.00000000003,
      "d": 1393.3333333333285,
      "v": 95
    },
    {
      "midi": 70,
      "hit": false,
      "t": 111600.00000000003,
      "d": 250,
      "v": 104
    },
    {
      "midi": 65,
      "hit": false,
      "t": 111600.00000000003,
      "d": 303.3333333333285,
      "v": 98
    },
    {
      "midi": 61,
      "hit": false,
      "t": 111600.00000000003,
      "d": 316.66666666665697,
      "v": 114
    },
    {
      "midi": 72,
      "hit": false,
      "t": 111800.00000000003,
      "d": 156.66666666665697,
      "v": 91
    },
    {
      "midi": 66,
      "hit": false,
      "t": 112000.00000000001,
      "d": 1050,
      "v": 109
    },
    {
      "midi": 61,
      "hit": false,
      "t": 112000.00000000001,
      "d": 1056.6666666666715,
      "v": 109
    },
    {
      "midi": 70,
      "hit": false,
      "t": 112000.00000000001,
      "d": 1060,
      "v": 114
    },
    {
      "midi": 73,
      "hit": false,
      "t": 112000.00000000001,
      "d": 1076.6666666666715,
      "v": 114
    },
    {
      "midi": 39,
      "hit": false,
      "t": 112000.00000000001,
      "d": 2740,
      "v": 104
    },
    {
      "midi": 51,
      "hit": false,
      "t": 112000.00000000001,
      "d": 2776.6666666666715,
      "v": 109
    },
    {
      "midi": 61,
      "hit": false,
      "t": 113200.00000000001,
      "d": 90,
      "v": 124
    },
    {
      "midi": 66,
      "hit": false,
      "t": 113200.00000000001,
      "d": 106.66666666667152,
      "v": 124
    },
    {
      "midi": 70,
      "hit": false,
      "t": 113200.00000000001,
      "d": 116.66666666667152,
      "v": 124
    },
    {
      "midi": 58,
      "hit": false,
      "t": 113600.00000000001,
      "d": 1056.6666666666715,
      "v": 114
    },
    {
      "midi": 61,
      "hit": false,
      "t": 113600.00000000001,
      "d": 1056.6666666666715,
      "v": 114
    },
    {
      "midi": 66,
      "hit": false,
      "t": 113600.00000000001,
      "d": 1110,
      "v": 109
    },
    {
      "midi": 65,
      "hit": false,
      "t": 114800.00000000001,
      "d": 273.3333333333285,
      "v": 104
    },
    {
      "midi": 58,
      "hit": false,
      "t": 114800.00000000001,
      "d": 283.3333333333285,
      "v": 127
    },
    {
      "midi": 61,
      "hit": false,
      "t": 114800.00000000001,
      "d": 290,
      "v": 124
    },
    {
      "midi": 58,
      "hit": false,
      "t": 115200.00000000001,
      "d": 1070,
      "v": 114
    },
    {
      "midi": 61,
      "hit": false,
      "t": 115200.00000000001,
      "d": 1183.3333333333285,
      "v": 114
    },
    {
      "midi": 63,
      "hit": false,
      "t": 115200.00000000001,
      "d": 1260,
      "v": 109
    },
    {
      "midi": 54,
      "hit": false,
      "t": 115200.00000000001,
      "d": 1533.3333333333285,
      "v": 114
    },
    {
      "midi": 44,
      "hit": false,
      "t": 115200.00000000001,
      "d": 1550,
      "v": 114
    },
    {
      "midi": 58,
      "hit": false,
      "t": 116400.00000000001,
      "d": 323.3333333333285,
      "v": 114
    },
    {
      "midi": 61,
      "hit": false,
      "t": 116600.00000000001,
      "d": 150,
      "v": 104
    },
    {
      "midi": 66,
      "hit": false,
      "t": 116800.00000000001,
      "d": 686.6666666666715,
      "v": 114
    },
    {
      "midi": 58,
      "hit": false,
      "t": 116800.00000000001,
      "d": 690,
      "v": 127
    },
    {
      "midi": 70,
      "hit": false,
      "t": 116800.00000000001,
      "d": 690,
      "v": 127
    },
    {
      "midi": 61,
      "hit": false,
      "t": 116800.00000000001,
      "d": 693.3333333333285,
      "v": 127
    },
    {
      "midi": 54,
      "hit": false,
      "t": 116800.00000000001,
      "d": 706.666666666657,
      "v": 109
    },
    {
      "midi": 44,
      "hit": false,
      "t": 116800.00000000001,
      "d": 723.3333333333285,
      "v": 104
    },
    {
      "midi": 58,
      "hit": false,
      "t": 117600.00000000001,
      "d": 460,
      "v": 109
    },
    {
      "midi": 61,
      "hit": false,
      "t": 117600.00000000001,
      "d": 473.3333333333285,
      "v": 124
    },
    {
      "midi": 54,
      "hit": false,
      "t": 117600.00000000001,
      "d": 486.66666666665697,
      "v": 109
    },
    {
      "midi": 68,
      "hit": false,
      "t": 117600.00000000001,
      "d": 493.3333333333285,
      "v": 124
    },
    {
      "midi": 44,
      "hit": false,
      "t": 117600.00000000001,
      "d": 516.666666666657,
      "v": 104
    },
    {
      "midi": 73,
      "hit": false,
      "t": 118400,
      "d": 610,
      "v": 109
    },
    {
      "midi": 65,
      "hit": false,
      "t": 118400,
      "d": 650,
      "v": 120
    },
    {
      "midi": 68,
      "hit": false,
      "t": 118400,
      "d": 650,
      "v": 124
    },
    {
      "midi": 61,
      "hit": false,
      "t": 118400,
      "d": 656.6666666666715,
      "v": 114
    },
    {
      "midi": 37,
      "hit": false,
      "t": 118400,
      "d": 1260,
      "v": 104
    },
    {
      "midi": 49,
      "hit": false,
      "t": 118400,
      "d": 1283.3333333333285,
      "v": 109
    },
    {
      "midi": 56,
      "hit": false,
      "t": 119200,
      "d": 693.3333333333285,
      "v": 114
    },
    {
      "midi": 61,
      "hit": false,
      "t": 119400,
      "d": 420,
      "v": 95
    },
    {
      "midi": 65,
      "hit": false,
      "t": 119600,
      "d": 270,
      "v": 88
    },
    {
      "midi": 68,
      "hit": false,
      "t": 119800,
      "d": 150,
      "v": 109
    },
    {
      "midi": 56,
      "hit": false,
      "t": 120000,
      "d": 670,
      "v": 124
    },
    {
      "midi": 60,
      "hit": false,
      "t": 120000,
      "d": 783.3333333333285,
      "v": 104
    },
    {
      "midi": 68,
      "hit": false,
      "t": 120000,
      "d": 783.3333333333285,
      "v": 114
    },
    {
      "midi": 63,
      "hit": false,
      "t": 120000,
      "d": 816.6666666666715,
      "v": 109
    },
    {
      "midi": 48,
      "hit": false,
      "t": 120000,
      "d": 1210,
      "v": 109
    },
    {
      "midi": 56,
      "hit": false,
      "t": 120800,
      "d": 670,
      "v": 124
    },
    {
      "midi": 68,
      "hit": false,
      "t": 121200,
      "d": 270,
      "v": 109
    },
    {
      "midi": 60,
      "hit": false,
      "t": 121200,
      "d": 316.6666666666715,
      "v": 109
    },
    {
      "midi": 63,
      "hit": false,
      "t": 121200,
      "d": 333.33333333334303,
      "v": 104
    },
    {
      "midi": 54,
      "hit": false,
      "t": 121600.00000000001,
      "d": 603.3333333333285,
      "v": 114
    },
    {
      "midi": 58,
      "hit": false,
      "t": 121600.00000000001,
      "d": 710,
      "v": 104
    },
    {
      "midi": 66,
      "hit": false,
      "t": 121600.00000000001,
      "d": 733.3333333333285,
      "v": 114
    },
    {
      "midi": 63,
      "hit": false,
      "t": 121600.00000000001,
      "d": 743.3333333333285,
      "v": 104
    },
    {
      "midi": 51,
      "hit": false,
      "t": 121600.00000000001,
      "d": 1303.3333333333285,
      "v": 109
    },
    {
      "midi": 39,
      "hit": false,
      "t": 121600.00000000001,
      "d": 1516.6666666666715,
      "v": 95
    },
    {
      "midi": 54,
      "hit": false,
      "t": 122400.00000000001,
      "d": 636.6666666666715,
      "v": 124
    },
    {
      "midi": 58,
      "hit": false,
      "t": 122600.00000000001,
      "d": 400,
      "v": 95
    },
    {
      "midi": 63,
      "hit": false,
      "t": 122800.00000000001,
      "d": 290,
      "v": 95
    },
    {
      "midi": 66,
      "hit": false,
      "t": 123000.00000000001,
      "d": 116.66666666667152,
      "v": 104
    },
    {
      "midi": 65,
      "hit": false,
      "t": 123200.00000000001,
      "d": 686.6666666666715,
      "v": 114
    },
    {
      "midi": 58,
      "hit": false,
      "t": 123200.00000000001,
      "d": 726.6666666666715,
      "v": 114
    },
    {
      "midi": 53,
      "hit": false,
      "t": 123200.00000000001,
      "d": 733.333333333343,
      "v": 124
    },
    {
      "midi": 61,
      "hit": false,
      "t": 123200.00000000001,
      "d": 740.0000000000146,
      "v": 124
    },
    {
      "midi": 46,
      "hit": false,
      "t": 123200.00000000001,
      "d": 750.0000000000146,
      "v": 124
    },
    {
      "midi": 53,
      "hit": false,
      "t": 124000.00000000003,
      "d": 550,
      "v": 114
    },
    {
      "midi": 56,
      "hit": false,
      "t": 124000.00000000003,
      "d": 590,
      "v": 127
    },
    {
      "midi": 61,
      "hit": false,
      "t": 124000.00000000003,
      "d": 626.6666666666715,
      "v": 124
    },
    {
      "midi": 44,
      "hit": false,
      "t": 124000.00000000003,
      "d": 760,
      "v": 114
    },
    {
      "midi": 42,
      "hit": false,
      "t": 124800.00000000003,
      "d": 1323.333333333343,
      "v": 104
    },
    {
      "midi": 54,
      "hit": false,
      "t": 124800.00000000003,
      "d": 1433.333333333343,
      "v": 109
    },
    {
      "midi": 49,
      "hit": false,
      "t": 124800.00000000003,
      "d": 1460.0000000000146,
      "v": 104
    },
    {
      "midi": 58,
      "hit": false,
      "t": 124800.00000000003,
      "d": 1466.666666666686,
      "v": 114
    },
    {
      "midi": 66,
      "hit": false,
      "t": 125200.00000000003,
      "d": 566.6666666666715,
      "v": 91
    },
    {
      "midi": 61,
      "hit": false,
      "t": 125200.00000000003,
      "d": 640,
      "v": 109
    },
    {
      "midi": 70,
      "hit": false,
      "t": 125600.00000000003,
      "d": 466.6666666666715,
      "v": 124
    },
    {
      "midi": 61,
      "hit": false,
      "t": 126000.00000000003,
      "d": 336.66666666668607,
      "v": 109
    },
    {
      "midi": 66,
      "hit": false,
      "t": 126000.00000000003,
      "d": 403.33333333334303,
      "v": 95
    },
    {
      "midi": 61,
      "hit": false,
      "t": 126400.00000000004,
      "d": 683.3333333333285,
      "v": 114
    },
    {
      "midi": 58,
      "hit": false,
      "t": 126400.00000000004,
      "d": 693.3333333333285,
      "v": 124
    },
    {
      "midi": 54,
      "hit": false,
      "t": 126400.00000000004,
      "d": 1223.3333333333285,
      "v": 124
    },
    {
      "midi": 44,
      "hit": false,
      "t": 126400.00000000004,
      "d": 1303.3333333333285,
      "v": 109
    },
    {
      "midi": 58,
      "hit": false,
      "t": 127200.00000000004,
      "d": 683.3333333333285,
      "v": 124
    },
    {
      "midi": 61,
      "hit": false,
      "t": 127200.00000000004,
      "d": 686.666666666657,
      "v": 124
    },
    {
      "midi": 68,
      "hit": false,
      "t": 127200.00000000004,
      "d": 689.9999999999854,
      "v": 114
    },
    {
      "midi": 56,
      "hit": false,
      "t": 128000.00000000003,
      "d": 950,
      "v": 114
    },
    {
      "midi": 61,
      "hit": false,
      "t": 128000.00000000003,
      "d": 1133.3333333333285,
      "v": 104
    },
    {
      "midi": 65,
      "hit": false,
      "t": 128000.00000000003,
      "d": 1266.6666666666715,
      "v": 88
    },
    {
      "midi": 37,
      "hit": false,
      "t": 128000.00000000003,
      "d": 1983.333333333314,
      "v": 109
    },
    {
      "midi": 49,
      "hit": false,
      "t": 128000.00000000003,
      "d": 2219.9999999999854,
      "v": 124
    },
    {
      "midi": 56,
      "hit": false,
      "t": 129200.00000000003,
      "d": 323.3333333333285,
      "v": 124
    },
    {
      "midi": 61,
      "hit": false,
      "t": 129400.00000000003,
      "d": 166.66666666665697,
      "v": 95
    },
    {
      "midi": 65,
      "hit": false,
      "t": 129600.00000000001,
      "d": 626.6666666666715,
      "v": 114
    },
    {
      "midi": 56,
      "hit": false,
      "t": 129600.00000000001,
      "d": 650,
      "v": 124
    },
    {
      "midi": 61,
      "hit": false,
      "t": 129600.00000000001,
      "d": 666.6666666666715,
      "v": 114
    },
    {
      "midi": 56,
      "hit": false,
      "t": 130400.00000000001,
      "d": 456.6666666666715,
      "v": 124
    },
    {
      "midi": 60,
      "hit": false,
      "t": 130400.00000000001,
      "d": 503.33333333334303,
      "v": 104
    },
    {
      "midi": 65,
      "hit": false,
      "t": 130400.00000000001,
      "d": 526.6666666666715,
      "v": 98
    },
    {
      "midi": 68,
      "hit": false,
      "t": 130400.00000000001,
      "d": 556.6666666666715,
      "v": 104
    },
    {
      "midi": 48,
      "hit": false,
      "t": 130400.00000000001,
      "d": 666.6666666666715,
      "v": 104
    },
    {
      "midi": 66,
      "hit": false,
      "t": 131200.00000000003,
      "d": 656.666666666657,
      "v": 109
    },
    {
      "midi": 70,
      "hit": false,
      "t": 131200.00000000003,
      "d": 773.3333333333139,
      "v": 109
    },
    {
      "midi": 78,
      "hit": false,
      "t": 131200.00000000003,
      "d": 816.6666666666279,
      "v": 104
    },
    {
      "midi": 75,
      "hit": false,
      "t": 131200.00000000003,
      "d": 823.3333333332848,
      "v": 95
    },
    {
      "midi": 51,
      "hit": false,
      "t": 131200.00000000003,
      "d": 2269.9999999999127,
      "v": 104
    },
    {
      "midi": 39,
      "hit": false,
      "t": 131200.00000000003,
      "d": 3049.9999999999127,
      "v": 91
    },
    {
      "midi": 66,
      "hit": false,
      "t": 132000,
      "d": 473.3333333332848,
      "v": 109
    },
    {
      "midi": 70,
      "hit": false,
      "t": 132199.99999999997,
      "d": 216.66666666665697,
      "v": 104
    },
    {
      "midi": 75,
      "hit": false,
      "t": 132399.99999999997,
      "d": 216.66666666662786,
      "v": 91
    },
    {
      "midi": 66,
      "hit": false,
      "t": 132599.99999999994,
      "d": 66.66666666665697,
      "v": 51
    },
    {
      "midi": 70,
      "hit": false,
      "t": 132599.99999999994,
      "d": 120,
      "v": 104
    },
    {
      "midi": 66,
      "hit": false,
      "t": 132799.99999999994,
      "d": 670,
      "v": 114
    },
    {
      "midi": 70,
      "hit": false,
      "t": 132799.99999999994,
      "d": 670,
      "v": 124
    },
    {
      "midi": 75,
      "hit": false,
      "t": 132799.99999999994,
      "d": 686.666666666657,
      "v": 114
    },
    {
      "midi": 78,
      "hit": false,
      "t": 132799.99999999994,
      "d": 693.3333333333139,
      "v": 114
    },
    {
      "midi": 51,
      "hit": false,
      "t": 133599.9999999999,
      "d": 570,
      "v": 91
    },
    {
      "midi": 66,
      "hit": false,
      "t": 133599.9999999999,
      "d": 633.333333333343,
      "v": 109
    },
    {
      "midi": 70,
      "hit": false,
      "t": 133599.9999999999,
      "d": 636.6666666666861,
      "v": 114
    },
    {
      "midi": 75,
      "hit": false,
      "t": 133599.9999999999,
      "d": 660.0000000000291,
      "v": 114
    },
    {
      "midi": 65,
      "hit": false,
      "t": 134399.99999999994,
      "d": 1020,
      "v": 120
    },
    {
      "midi": 77,
      "hit": false,
      "t": 134399.99999999994,
      "d": 1026.666666666657,
      "v": 98
    },
    {
      "midi": 70,
      "hit": false,
      "t": 134399.99999999994,
      "d": 1040,
      "v": 109
    },
    {
      "midi": 73,
      "hit": false,
      "t": 134399.99999999994,
      "d": 1043.333333333343,
      "v": 109
    },
    {
      "midi": 46,
      "hit": false,
      "t": 134399.99999999994,
      "d": 1390,
      "v": 91
    },
    {
      "midi": 34,
      "hit": false,
      "t": 134399.99999999994,
      "d": 1400,
      "v": 95
    },
    {
      "midi": 61,
      "hit": false,
      "t": 135599.99999999994,
      "d": 156.66666666665697,
      "v": 114
    },
    {
      "midi": 65,
      "hit": false,
      "t": 135799.99999999994,
      "d": 166.66666666665697,
      "v": 85
    },
    {
      "midi": 61,
      "hit": false,
      "t": 135999.99999999994,
      "d": 666.666666666657,
      "v": 124
    },
    {
      "midi": 65,
      "hit": false,
      "t": 135999.99999999994,
      "d": 686.666666666657,
      "v": 98
    },
    {
      "midi": 70,
      "hit": false,
      "t": 135999.99999999994,
      "d": 686.666666666657,
      "v": 95
    },
    {
      "midi": 73,
      "hit": false,
      "t": 135999.99999999994,
      "d": 690,
      "v": 109
    },
    {
      "midi": 34,
      "hit": false,
      "t": 135999.99999999994,
      "d": 1250,
      "v": 95
    },
    {
      "midi": 46,
      "hit": false,
      "t": 135999.99999999994,
      "d": 1343.333333333343,
      "v": 95
    },
    {
      "midi": 61,
      "hit": false,
      "t": 136799.99999999994,
      "d": 573.333333333343,
      "v": 114
    },
    {
      "midi": 65,
      "hit": false,
      "t": 136799.99999999994,
      "d": 603.333333333343,
      "v": 120
    },
    {
      "midi": 70,
      "hit": false,
      "t": 136799.99999999994,
      "d": 633.333333333343,
      "v": 109
    },
    {
      "midi": 63,
      "hit": false,
      "t": 137599.99999999994,
      "d": 970,
      "v": 124
    },
    {
      "midi": 68,
      "hit": false,
      "t": 137599.99999999994,
      "d": 1000,
      "v": 109
    },
    {
      "midi": 75,
      "hit": false,
      "t": 137599.99999999994,
      "d": 1033.333333333343,
      "v": 109
    },
    {
      "midi": 36,
      "hit": false,
      "t": 137599.99999999994,
      "d": 1370,
      "v": 98
    },
    {
      "midi": 48,
      "hit": false,
      "t": 137599.99999999994,
      "d": 1416.666666666657,
      "v": 109
    },
    {
      "midi": 68,
      "hit": false,
      "t": 138799.99999999994,
      "d": 170,
      "v": 124
    },
    {
      "midi": 72,
      "hit": false,
      "t": 138999.99999999994,
      "d": 126.66666666665697,
      "v": 88
    },
    {
      "midi": 75,
      "hit": false,
      "t": 139199.99999999994,
      "d": 643.333333333343,
      "v": 95
    },
    {
      "midi": 68,
      "hit": false,
      "t": 139199.99999999994,
      "d": 650,
      "v": 127
    },
    {
      "midi": 80,
      "hit": false,
      "t": 139199.99999999994,
      "d": 656.666666666657,
      "v": 124
    },
    {
      "midi": 72,
      "hit": false,
      "t": 139199.99999999994,
      "d": 673.3333333333139,
      "v": 114
    },
    {
      "midi": 36,
      "hit": false,
      "t": 139199.99999999994,
      "d": 1233.333333333314,
      "v": 95
    },
    {
      "midi": 48,
      "hit": false,
      "t": 139199.99999999994,
      "d": 1353.333333333314,
      "v": 98
    },
    {
      "midi": 70,
      "hit": false,
      "t": 139999.9999999999,
      "d": 660,
      "v": 114
    },
    {
      "midi": 78,
      "hit": false,
      "t": 139999.9999999999,
      "d": 683.333333333343,
      "v": 114
    },
    {
      "midi": 75,
      "hit": false,
      "t": 139999.9999999999,
      "d": 703.333333333343,
      "v": 104
    },
    {
      "midi": 73,
      "hit": false,
      "t": 140799.9999999999,
      "d": 943.333333333343,
      "v": 109
    },
    {
      "midi": 77,
      "hit": false,
      "t": 140799.9999999999,
      "d": 943.333333333343,
      "v": 95
    },
    {
      "midi": 68,
      "hit": false,
      "t": 140799.9999999999,
      "d": 960,
      "v": 127
    },
    {
      "midi": 37,
      "hit": false,
      "t": 140799.9999999999,
      "d": 1516.666666666686,
      "v": 95
    },
    {
      "midi": 49,
      "hit": false,
      "t": 140799.9999999999,
      "d": 1560.000000000029,
      "v": 104
    },
    {
      "midi": 63,
      "hit": false,
      "t": 141999.9999999999,
      "d": 223.33333333334303,
      "v": 124
    },
    {
      "midi": 65,
      "hit": false,
      "t": 142199.9999999999,
      "d": 173.33333333337214,
      "v": 95
    },
    {
      "midi": 73,
      "hit": false,
      "t": 142399.99999999994,
      "d": 660,
      "v": 114
    },
    {
      "midi": 68,
      "hit": false,
      "t": 142399.99999999994,
      "d": 666.666666666657,
      "v": 114
    },
    {
      "midi": 65,
      "hit": false,
      "t": 142399.99999999994,
      "d": 676.666666666657,
      "v": 120
    },
    {
      "midi": 37,
      "hit": false,
      "t": 142399.99999999994,
      "d": 1416.666666666686,
      "v": 95
    },
    {
      "midi": 49,
      "hit": false,
      "t": 142399.99999999994,
      "d": 1423.333333333343,
      "v": 109
    },
    {
      "midi": 61,
      "hit": false,
      "t": 143199.99999999994,
      "d": 293.33333333334303,
      "v": 114
    },
    {
      "midi": 73,
      "hit": false,
      "t": 143199.99999999994,
      "d": 306.66666666668607,
      "v": 114
    },
    {
      "midi": 65,
      "hit": false,
      "t": 143199.99999999994,
      "d": 310.0000000000291,
      "v": 114
    },
    {
      "midi": 68,
      "hit": false,
      "t": 143199.99999999994,
      "d": 310.0000000000291,
      "v": 114
    },
    {
      "midi": 61,
      "hit": false,
      "t": 143599.99999999997,
      "d": 273.33333333331393,
      "v": 109
    },
    {
      "midi": 65,
      "hit": false,
      "t": 143599.99999999997,
      "d": 303.33333333331393,
      "v": 95
    },
    {
      "midi": 73,
      "hit": false,
      "t": 143599.99999999997,
      "d": 309.9999999999709,
      "v": 114
    },
    {
      "midi": 68,
      "hit": false,
      "t": 143599.99999999997,
      "d": 353.33333333331393,
      "v": 104
    },
    {
      "midi": 63,
      "hit": false,
      "t": 143999.99999999994,
      "d": 1016.666666666657,
      "v": 124
    },
    {
      "midi": 66,
      "hit": false,
      "t": 143999.99999999994,
      "d": 1053.333333333314,
      "v": 109
    },
    {
      "midi": 70,
      "hit": false,
      "t": 143999.99999999994,
      "d": 1069.999999999971,
      "v": 109
    },
    {
      "midi": 39,
      "hit": false,
      "t": 143999.99999999994,
      "d": 1469.999999999971,
      "v": 82
    },
    {
      "midi": 51,
      "hit": false,
      "t": 143999.99999999994,
      "d": 1486.6666666666279,
      "v": 95
    },
    {
      "midi": 66,
      "hit": false,
      "t": 145199.9999999999,
      "d": 223.33333333334303,
      "v": 124
    },
    {
      "midi": 70,
      "hit": false,
      "t": 145399.9999999999,
      "d": 100,
      "v": 109
    },
    {
      "midi": 78,
      "hit": false,
      "t": 145599.9999999999,
      "d": 690,
      "v": 124
    },
    {
      "midi": 66,
      "hit": false,
      "t": 145599.9999999999,
      "d": 693.333333333343,
      "v": 109
    },
    {
      "midi": 70,
      "hit": false,
      "t": 145599.9999999999,
      "d": 700,
      "v": 114
    },
    {
      "midi": 75,
      "hit": false,
      "t": 145599.9999999999,
      "d": 703.333333333343,
      "v": 109
    },
    {
      "midi": 51,
      "hit": false,
      "t": 145599.9999999999,
      "d": 1133.333333333343,
      "v": 95
    },
    {
      "midi": 39,
      "hit": false,
      "t": 145599.9999999999,
      "d": 1200,
      "v": 88
    },
    {
      "midi": 66,
      "hit": false,
      "t": 146399.9999999999,
      "d": 620,
      "v": 109
    },
    {
      "midi": 70,
      "hit": false,
      "t": 146399.9999999999,
      "d": 676.666666666657,
      "v": 114
    },
    {
      "midi": 75,
      "hit": false,
      "t": 146399.9999999999,
      "d": 700,
      "v": 124
    },
    {
      "midi": 65,
      "hit": false,
      "t": 147199.9999999999,
      "d": 956.666666666657,
      "v": 127
    },
    {
      "midi": 77,
      "hit": false,
      "t": 147199.9999999999,
      "d": 970,
      "v": 104
    },
    {
      "midi": 70,
      "hit": false,
      "t": 147199.9999999999,
      "d": 990,
      "v": 114
    },
    {
      "midi": 73,
      "hit": false,
      "t": 147199.9999999999,
      "d": 990,
      "v": 114
    },
    {
      "midi": 34,
      "hit": false,
      "t": 147199.9999999999,
      "d": 1476.666666666657,
      "v": 104
    },
    {
      "midi": 46,
      "hit": false,
      "t": 147199.9999999999,
      "d": 1506.666666666657,
      "v": 109
    },
    {
      "midi": 61,
      "hit": false,
      "t": 148399.9999999999,
      "d": 220,
      "v": 109
    },
    {
      "midi": 65,
      "hit": false,
      "t": 148599.9999999999,
      "d": 126.66666666665697,
      "v": 95
    },
    {
      "midi": 73,
      "hit": false,
      "t": 148799.9999999999,
      "d": 276.66666666665697,
      "v": 109
    },
    {
      "midi": 61,
      "hit": false,
      "t": 148799.9999999999,
      "d": 286.66666666665697,
      "v": 124
    },
    {
      "midi": 65,
      "hit": false,
      "t": 148799.9999999999,
      "d": 303.33333333331393,
      "v": 91
    },
    {
      "midi": 70,
      "hit": false,
      "t": 148799.9999999999,
      "d": 343.33333333331393,
      "v": 109
    },
    {
      "midi": 46,
      "hit": false,
      "t": 148799.9999999999,
      "d": 649.9999999999709,
      "v": 91
    },
    {
      "midi": 34,
      "hit": false,
      "t": 148799.9999999999,
      "d": 686.6666666666279,
      "v": 95
    },
    {
      "midi": 61,
      "hit": false,
      "t": 149199.99999999988,
      "d": 286.66666666665697,
      "v": 109
    },
    {
      "midi": 72,
      "hit": false,
      "t": 149199.99999999988,
      "d": 306.66666666665697,
      "v": 109
    },
    {
      "midi": 65,
      "hit": false,
      "t": 149199.99999999988,
      "d": 310,
      "v": 98
    },
    {
      "midi": 61,
      "hit": false,
      "t": 149599.99999999988,
      "d": 310,
      "v": 127
    },
    {
      "midi": 65,
      "hit": false,
      "t": 149599.99999999988,
      "d": 336.66666666665697,
      "v": 114
    },
    {
      "midi": 70,
      "hit": false,
      "t": 149599.99999999988,
      "d": 370,
      "v": 124
    },
    {
      "midi": 44,
      "hit": false,
      "t": 149599.99999999988,
      "d": 703.333333333343,
      "v": 114
    },
    {
      "midi": 32,
      "hit": false,
      "t": 149599.99999999988,
      "d": 706.6666666666861,
      "v": 114
    },
    {
      "midi": 61,
      "hit": false,
      "t": 149999.99999999988,
      "d": 270,
      "v": 104
    },
    {
      "midi": 65,
      "hit": false,
      "t": 149999.99999999988,
      "d": 293.33333333334303,
      "v": 104
    },
    {
      "midi": 68,
      "hit": false,
      "t": 149999.99999999988,
      "d": 316.66666666668607,
      "v": 104
    },
    {
      "midi": 61,
      "hit": false,
      "t": 150399.9999999999,
      "d": 956.666666666657,
      "v": 124
    },
    {
      "midi": 66,
      "hit": false,
      "t": 150399.9999999999,
      "d": 993.3333333333139,
      "v": 124
    },
    {
      "midi": 70,
      "hit": false,
      "t": 150399.9999999999,
      "d": 1019.9999999999709,
      "v": 114
    },
    {
      "midi": 30,
      "hit": false,
      "t": 150399.9999999999,
      "d": 1506.6666666666279,
      "v": 127
    },
    {
      "midi": 42,
      "hit": false,
      "t": 150399.9999999999,
      "d": 1586.6666666666279,
      "v": 124
    },
    {
      "midi": 70,
      "hit": false,
      "t": 151599.99999999988,
      "d": 20,
      "v": 74
    },
    {
      "midi": 68,
      "hit": false,
      "t": 151599.99999999988,
      "d": 336.66666666665697,
      "v": 114
    },
    {
      "midi": 70,
      "hit": false,
      "t": 151799.99999999988,
      "d": 170,
      "v": 104
    },
    {
      "midi": 68,
      "hit": false,
      "t": 151999.99999999988,
      "d": 670,
      "v": 127
    },
    {
      "midi": 70,
      "hit": false,
      "t": 151999.99999999988,
      "d": 676.666666666657,
      "v": 82
    },
    {
      "midi": 73,
      "hit": false,
      "t": 151999.99999999988,
      "d": 676.666666666657,
      "v": 114
    },
    {
      "midi": 78,
      "hit": false,
      "t": 151999.99999999988,
      "d": 700,
      "v": 114
    },
    {
      "midi": 30,
      "hit": false,
      "t": 151999.99999999988,
      "d": 753.333333333343,
      "v": 109
    },
    {
      "midi": 42,
      "hit": false,
      "t": 151999.99999999988,
      "d": 1186.666666666657,
      "v": 124
    },
    {
      "midi": 70,
      "hit": false,
      "t": 152799.99999999988,
      "d": 310,
      "v": 124
    },
    {
      "midi": 68,
      "hit": false,
      "t": 152799.99999999988,
      "d": 323.33333333334303,
      "v": 124
    },
    {
      "midi": 77,
      "hit": false,
      "t": 152799.99999999988,
      "d": 333.33333333334303,
      "v": 120
    },
    {
      "midi": 73,
      "hit": false,
      "t": 152799.99999999988,
      "d": 360,
      "v": 114
    },
    {
      "midi": 70,
      "hit": false,
      "t": 153199.99999999988,
      "d": 260,
      "v": 114
    },
    {
      "midi": 68,
      "hit": false,
      "t": 153199.99999999988,
      "d": 276.66666666665697,
      "v": 109
    },
    {
      "midi": 75,
      "hit": false,
      "t": 153199.99999999988,
      "d": 276.66666666665697,
      "v": 104
    },
    {
      "midi": 70,
      "hit": false,
      "t": 153599.99999999988,
      "d": 1056.666666666657,
      "v": 127
    },
    {
      "midi": 66,
      "hit": false,
      "t": 153599.99999999988,
      "d": 1066.666666666657,
      "v": 127
    },
    {
      "midi": 75,
      "hit": false,
      "t": 153599.99999999988,
      "d": 1066.666666666657,
      "v": 124
    },
    {
      "midi": 44,
      "hit": false,
      "t": 153599.99999999988,
      "d": 2789.9999999999127,
      "v": 127
    },
    {
      "midi": 66,
      "hit": false,
      "t": 154799.99999999988,
      "d": 66.66666666665697,
      "v": 114
    },
    {
      "midi": 70,
      "hit": false,
      "t": 154799.99999999988,
      "d": 73.33333333331393,
      "v": 114
    },
    {
      "midi": 75,
      "hit": false,
      "t": 154799.99999999988,
      "d": 89.9999999999709,
      "v": 109
    },
    {
      "midi": 78,
      "hit": false,
      "t": 154799.99999999988,
      "d": 89.9999999999709,
      "v": 114
    },
    {
      "midi": 66,
      "hit": false,
      "t": 154999.99999999985,
      "d": 76.66666666665697,
      "v": 104
    },
    {
      "midi": 70,
      "hit": false,
      "t": 154999.99999999985,
      "d": 83.33333333331393,
      "v": 109
    },
    {
      "midi": 75,
      "hit": false,
      "t": 154999.99999999985,
      "d": 103.33333333331393,
      "v": 88
    },
    {
      "midi": 78,
      "hit": false,
      "t": 154999.99999999985,
      "d": 103.33333333331393,
      "v": 104
    },
    {
      "midi": 78,
      "hit": false,
      "t": 155199.99999999983,
      "d": 286.66666666665697,
      "v": 114
    },
    {
      "midi": 70,
      "hit": false,
      "t": 155199.99999999983,
      "d": 320,
      "v": 114
    },
    {
      "midi": 66,
      "hit": false,
      "t": 155199.99999999983,
      "d": 323.33333333334303,
      "v": 124
    },
    {
      "midi": 75,
      "hit": false,
      "t": 155199.99999999983,
      "d": 340,
      "v": 104
    },
    {
      "midi": 65,
      "hit": false,
      "t": 155599.99999999983,
      "d": 226.66666666665697,
      "v": 114
    },
    {
      "midi": 70,
      "hit": false,
      "t": 155599.99999999983,
      "d": 266.66666666665697,
      "v": 104
    },
    {
      "midi": 77,
      "hit": false,
      "t": 155599.99999999983,
      "d": 276.66666666665697,
      "v": 91
    },
    {
      "midi": 73,
      "hit": false,
      "t": 155599.99999999983,
      "d": 303.33333333331393,
      "v": 104
    },
    {
      "midi": 63,
      "hit": false,
      "t": 155999.9999999998,
      "d": 243.33333333334303,
      "v": 124
    },
    {
      "midi": 70,
      "hit": false,
      "t": 155999.9999999998,
      "d": 276.66666666668607,
      "v": 109
    },
    {
      "midi": 75,
      "hit": false,
      "t": 155999.9999999998,
      "d": 283.33333333334303,
      "v": 91
    },
    {
      "midi": 75,
      "hit": false,
      "t": 156399.9999999998,
      "d": 256.66666666665697,
      "v": 91
    },
    {
      "midi": 70,
      "hit": false,
      "t": 156399.9999999998,
      "d": 270,
      "v": 114
    },
    {
      "midi": 66,
      "hit": false,
      "t": 156399.9999999998,
      "d": 276.66666666665697,
      "v": 124
    },
    {
      "midi": 78,
      "hit": false,
      "t": 156399.9999999998,
      "d": 276.66666666665697,
      "v": 114
    },
    {
      "midi": 67,
      "hit": false,
      "t": 156799.9999999998,
      "d": 450,
      "v": 124
    },
    {
      "midi": 79,
      "hit": false,
      "t": 156799.9999999998,
      "d": 460,
      "v": 124
    },
    {
      "midi": 36,
      "hit": false,
      "t": 156799.9999999998,
      "d": 470,
      "v": 124
    },
    {
      "midi": 72,
      "hit": false,
      "t": 156799.9999999998,
      "d": 483.33333333334303,
      "v": 120
    },
    {
      "midi": 75,
      "hit": false,
      "t": 156799.9999999998,
      "d": 483.33333333334303,
      "v": 124
    },
    {
      "midi": 48,
      "hit": false,
      "t": 156799.9999999998,
      "d": 490,
      "v": 120
    },
    {
      "midi": 70,
      "hit": false,
      "t": 161599.9999999998,
      "d": 476.66666666665697,
      "v": 104
    },
    {
      "midi": 63,
      "hit": false,
      "t": 161599.9999999998,
      "d": 490,
      "v": 109
    },
    {
      "midi": 67,
      "hit": false,
      "t": 161599.9999999998,
      "d": 490,
      "v": 95
    },
    {
      "midi": 75,
      "hit": false,
      "t": 161599.9999999998,
      "d": 493.33333333334303,
      "v": 95
    },
    {
      "midi": 51,
      "hit": false,
      "t": 161599.9999999998,
      "d": 516.6666666666861,
      "v": 82
    },
    {
      "midi": 39,
      "hit": false,
      "t": 161599.9999999998,
      "d": 523.333333333343,
      "v": 91
    },
    {
      "midi": 62,
      "hit": false,
      "t": 162399.9999999998,
      "d": 526.666666666657,
      "v": 127
    },
    {
      "midi": 74,
      "hit": false,
      "t": 162399.9999999998,
      "d": 586.666666666657,
      "v": 114
    },
    {
      "midi": 67,
      "hit": false,
      "t": 162399.9999999998,
      "d": 590,
      "v": 114
    },
    {
      "midi": 50,
      "hit": false,
      "t": 162399.9999999998,
      "d": 600,
      "v": 120
    },
    {
      "midi": 70,
      "hit": false,
      "t": 162399.9999999998,
      "d": 600,
      "v": 127
    },
    {
      "midi": 38,
      "hit": false,
      "t": 162399.9999999998,
      "d": 623.333333333343,
      "v": 114
    },
    {
      "midi": 67,
      "hit": false,
      "t": 163199.9999999998,
      "d": 716.666666666657,
      "v": 124
    },
    {
      "midi": 72,
      "hit": false,
      "t": 163199.9999999998,
      "d": 803.333333333343,
      "v": 124
    },
    {
      "midi": 75,
      "hit": false,
      "t": 163199.9999999998,
      "d": 840,
      "v": 124
    },
    {
      "midi": 48,
      "hit": false,
      "t": 163199.9999999998,
      "d": 1076.666666666657,
      "v": 124
    },
    {
      "midi": 36,
      "hit": false,
      "t": 163199.9999999998,
      "d": 1183.333333333314,
      "v": 124
    },
    {
      "midi": 67,
      "hit": false,
      "t": 163999.9999999998,
      "d": 606.6666666666279,
      "v": 120
    },
    {
      "midi": 72,
      "hit": false,
      "t": 164199.9999999998,
      "d": 433.3333333332848,
      "v": 114
    },
    {
      "midi": 75,
      "hit": false,
      "t": 164399.99999999977,
      "d": 249.9999999999709,
      "v": 95
    },
    {
      "midi": 79,
      "hit": false,
      "t": 164599.99999999977,
      "d": 106.66666666662786,
      "v": 120
    },
    {
      "midi": 68,
      "hit": false,
      "t": 164799.99999999974,
      "d": 1043.333333333343,
      "v": 127
    },
    {
      "midi": 80,
      "hit": false,
      "t": 164799.99999999974,
      "d": 1050,
      "v": 109
    },
    {
      "midi": 72,
      "hit": false,
      "t": 164799.99999999974,
      "d": 1053.333333333343,
      "v": 104
    },
    {
      "midi": 77,
      "hit": false,
      "t": 164799.99999999974,
      "d": 1066.666666666686,
      "v": 98
    },
    {
      "midi": 29,
      "hit": false,
      "t": 164799.99999999974,
      "d": 1070.000000000029,
      "v": 98
    },
    {
      "midi": 41,
      "hit": false,
      "t": 164799.99999999974,
      "d": 1123.3333333333721,
      "v": 109
    },
    {
      "midi": 68,
      "hit": false,
      "t": 165999.99999999977,
      "d": 266.66666666665697,
      "v": 124
    },
    {
      "midi": 72,
      "hit": false,
      "t": 165999.99999999977,
      "d": 293.33333333331393,
      "v": 109
    },
    {
      "midi": 77,
      "hit": false,
      "t": 165999.99999999977,
      "d": 299.9999999999709,
      "v": 114
    },
    {
      "midi": 68,
      "hit": false,
      "t": 166399.99999999974,
      "d": 1050,
      "v": 127
    },
    {
      "midi": 72,
      "hit": false,
      "t": 166399.99999999974,
      "d": 1056.666666666657,
      "v": 120
    },
    {
      "midi": 75,
      "hit": false,
      "t": 166399.99999999974,
      "d": 1060,
      "v": 127
    },
    {
      "midi": 34,
      "hit": false,
      "t": 166399.99999999974,
      "d": 1120,
      "v": 104
    },
    {
      "midi": 46,
      "hit": false,
      "t": 166399.99999999974,
      "d": 1150,
      "v": 127
    },
    {
      "midi": 68,
      "hit": false,
      "t": 167599.99999999974,
      "d": 253.33333333334303,
      "v": 127
    },
    {
      "midi": 75,
      "hit": false,
      "t": 167599.99999999974,
      "d": 260,
      "v": 124
    },
    {
      "midi": 72,
      "hit": false,
      "t": 167599.99999999974,
      "d": 270,
      "v": 124
    },
    {
      "midi": 67,
      "hit": false,
      "t": 167999.99999999974,
      "d": 623.333333333343,
      "v": 120
    },
    {
      "midi": 70,
      "hit": false,
      "t": 167999.99999999974,
      "d": 710,
      "v": 127
    },
    {
      "midi": 75,
      "hit": false,
      "t": 167999.99999999974,
      "d": 736.666666666657,
      "v": 114
    },
    {
      "midi": 51,
      "hit": false,
      "t": 167999.99999999974,
      "d": 1033.333333333343,
      "v": 114
    },
    {
      "midi": 39,
      "hit": false,
      "t": 167999.99999999974,
      "d": 1136.666666666686,
      "v": 104
    },
    {
      "midi": 67,
      "hit": false,
      "t": 168799.99999999974,
      "d": 586.6666666667152,
      "v": 124
    },
    {
      "midi": 70,
      "hit": false,
      "t": 168999.99999999974,
      "d": 383.33333333337214,
      "v": 114
    },
    {
      "midi": 75,
      "hit": false,
      "t": 169199.99999999977,
      "d": 220.0000000000291,
      "v": 95
    },
    {
      "midi": 79,
      "hit": false,
      "t": 169399.9999999998,
      "d": 93.33333333334303,
      "v": 114
    },
    {
      "midi": 48,
      "hit": false,
      "t": 169599.9999999998,
      "d": 570,
      "v": 127
    },
    {
      "midi": 67,
      "hit": false,
      "t": 169599.9999999998,
      "d": 720,
      "v": 127
    },
    {
      "midi": 79,
      "hit": false,
      "t": 169599.9999999998,
      "d": 776.666666666657,
      "v": 124
    },
    {
      "midi": 72,
      "hit": false,
      "t": 169599.9999999998,
      "d": 783.3333333333139,
      "v": 124
    },
    {
      "midi": 75,
      "hit": false,
      "t": 169599.9999999998,
      "d": 803.3333333333139,
      "v": 127
    },
    {
      "midi": 55,
      "hit": false,
      "t": 170399.99999999977,
      "d": 533.333333333343,
      "v": 104
    },
    {
      "midi": 60,
      "hit": false,
      "t": 170399.99999999977,
      "d": 533.333333333343,
      "v": 109
    },
    {
      "midi": 51,
      "hit": false,
      "t": 170399.99999999977,
      "d": 550,
      "v": 104
    },
    {
      "midi": 67,
      "hit": false,
      "t": 170799.99999999977,
      "d": 83.33333333334303,
      "v": 109
    },
    {
      "midi": 72,
      "hit": false,
      "t": 170799.99999999977,
      "d": 86.66666666668607,
      "v": 114
    },
    {
      "midi": 75,
      "hit": false,
      "t": 170799.99999999977,
      "d": 106.66666666668607,
      "v": 104
    },
    {
      "midi": 67,
      "hit": false,
      "t": 171199.99999999977,
      "d": 676.666666666657,
      "v": 120
    },
    {
      "midi": 72,
      "hit": false,
      "t": 171199.99999999977,
      "d": 700,
      "v": 120
    },
    {
      "midi": 75,
      "hit": false,
      "t": 171199.99999999977,
      "d": 710,
      "v": 114
    },
    {
      "midi": 60,
      "hit": false,
      "t": 171199.99999999977,
      "d": 926.666666666657,
      "v": 104
    },
    {
      "midi": 51,
      "hit": false,
      "t": 171199.99999999977,
      "d": 990,
      "v": 91
    },
    {
      "midi": 48,
      "hit": false,
      "t": 171199.99999999977,
      "d": 1033.333333333343,
      "v": 98
    },
    {
      "midi": 67,
      "hit": false,
      "t": 171999.99999999977,
      "d": 333.33333333334303,
      "v": 120
    },
    {
      "midi": 72,
      "hit": false,
      "t": 172199.99999999977,
      "d": 260,
      "v": 114
    },
    {
      "midi": 75,
      "hit": false,
      "t": 172399.99999999977,
      "d": 166.66666666665697,
      "v": 91
    },
    {
      "midi": 79,
      "hit": false,
      "t": 172599.99999999977,
      "d": 186.66666666665697,
      "v": 109
    },
    {
      "midi": 32,
      "hit": false,
      "t": 172799.99999999977,
      "d": 873.333333333343,
      "v": 109
    },
    {
      "midi": 44,
      "hit": false,
      "t": 172799.99999999977,
      "d": 900,
      "v": 124
    },
    {
      "midi": 67,
      "hit": false,
      "t": 172799.99999999977,
      "d": 1070,
      "v": 127
    },
    {
      "midi": 75,
      "hit": false,
      "t": 172799.99999999977,
      "d": 1083.333333333343,
      "v": 124
    },
    {
      "midi": 72,
      "hit": false,
      "t": 172799.99999999977,
      "d": 1086.666666666686,
      "v": 124
    },
    {
      "midi": 79,
      "hit": false,
      "t": 172799.99999999977,
      "d": 1093.333333333343,
      "v": 124
    },
    {
      "midi": 67,
      "hit": false,
      "t": 173999.99999999977,
      "d": 73.33333333334303,
      "v": 120
    },
    {
      "midi": 51,
      "hit": false,
      "t": 173999.99999999977,
      "d": 76.66666666668607,
      "v": 95
    },
    {
      "midi": 72,
      "hit": false,
      "t": 173999.99999999977,
      "d": 76.66666666668607,
      "v": 120
    },
    {
      "midi": 56,
      "hit": false,
      "t": 173999.99999999977,
      "d": 83.33333333334303,
      "v": 104
    },
    {
      "midi": 75,
      "hit": false,
      "t": 173999.99999999977,
      "d": 83.33333333334303,
      "v": 124
    },
    {
      "midi": 60,
      "hit": false,
      "t": 173999.99999999977,
      "d": 90,
      "v": 98
    },
    {
      "midi": 67,
      "hit": false,
      "t": 174399.99999999977,
      "d": 626.666666666657,
      "v": 114
    },
    {
      "midi": 72,
      "hit": false,
      "t": 174399.99999999977,
      "d": 693.3333333333139,
      "v": 120
    },
    {
      "midi": 75,
      "hit": false,
      "t": 174399.99999999977,
      "d": 739.9999999999709,
      "v": 124
    },
    {
      "midi": 60,
      "hit": false,
      "t": 174399.99999999977,
      "d": 823.3333333333139,
      "v": 80
    },
    {
      "midi": 56,
      "hit": false,
      "t": 174399.99999999977,
      "d": 836.666666666657,
      "v": 91
    },
    {
      "midi": 51,
      "hit": false,
      "t": 174399.99999999977,
      "d": 870,
      "v": 74
    },
    {
      "midi": 67,
      "hit": false,
      "t": 175199.99999999974,
      "d": 356.66666666668607,
      "v": 114
    },
    {
      "midi": 72,
      "hit": false,
      "t": 175399.99999999977,
      "d": 276.66666666668607,
      "v": 109
    },
    {
      "midi": 67,
      "hit": false,
      "t": 175599.99999999977,
      "d": 53.333333333343035,
      "v": 49
    },
    {
      "midi": 75,
      "hit": false,
      "t": 175599.99999999977,
      "d": 220.0000000000291,
      "v": 104
    },
    {
      "midi": 77,
      "hit": false,
      "t": 175799.9999999998,
      "d": 106.66666666665697,
      "v": 95
    },
    {
      "midi": 33,
      "hit": false,
      "t": 175999.9999999998,
      "d": 926.666666666657,
      "v": 114
    },
    {
      "midi": 45,
      "hit": false,
      "t": 175999.9999999998,
      "d": 983.3333333333139,
      "v": 120
    },
    {
      "midi": 67,
      "hit": false,
      "t": 175999.9999999998,
      "d": 1053.333333333314,
      "v": 127
    },
    {
      "midi": 72,
      "hit": false,
      "t": 175999.9999999998,
      "d": 1066.666666666657,
      "v": 124
    },
    {
      "midi": 75,
      "hit": false,
      "t": 175999.9999999998,
      "d": 1066.666666666657,
      "v": 127
    },
    {
      "midi": 79,
      "hit": false,
      "t": 175999.9999999998,
      "d": 1100,
      "v": 124
    },
    {
      "midi": 67,
      "hit": false,
      "t": 177199.9999999998,
      "d": 73.33333333334303,
      "v": 124
    },
    {
      "midi": 72,
      "hit": false,
      "t": 177199.9999999998,
      "d": 73.33333333334303,
      "v": 114
    },
    {
      "midi": 75,
      "hit": false,
      "t": 177199.9999999998,
      "d": 76.66666666668607,
      "v": 127
    },
    {
      "midi": 67,
      "hit": false,
      "t": 177599.99999999983,
      "d": 626.666666666657,
      "v": 114
    },
    {
      "midi": 72,
      "hit": false,
      "t": 177599.99999999983,
      "d": 736.666666666657,
      "v": 120
    },
    {
      "midi": 75,
      "hit": false,
      "t": 177599.99999999983,
      "d": 773.3333333333139,
      "v": 127
    },
    {
      "midi": 57,
      "hit": false,
      "t": 177599.99999999983,
      "d": 889.9999999999709,
      "v": 114
    },
    {
      "midi": 53,
      "hit": false,
      "t": 177599.99999999983,
      "d": 933.3333333333139,
      "v": 114
    },
    {
      "midi": 45,
      "hit": false,
      "t": 177599.99999999983,
      "d": 1016.6666666666279,
      "v": 114
    },
    {
      "midi": 67,
      "hit": false,
      "t": 178399.9999999998,
      "d": 636.666666666657,
      "v": 114
    },
    {
      "midi": 72,
      "hit": false,
      "t": 178599.9999999998,
      "d": 473.33333333334303,
      "v": 114
    },
    {
      "midi": 75,
      "hit": false,
      "t": 178799.9999999998,
      "d": 250,
      "v": 104
    },
    {
      "midi": 77,
      "hit": false,
      "t": 178999.9999999998,
      "d": 160,
      "v": 95
    },
    {
      "midi": 68,
      "hit": false,
      "t": 179199.9999999998,
      "d": 653.333333333343,
      "v": 124
    },
    {
      "midi": 79,
      "hit": false,
      "t": 179199.9999999998,
      "d": 653.333333333343,
      "v": 114
    },
    {
      "midi": 72,
      "hit": false,
      "t": 179199.9999999998,
      "d": 660,
      "v": 104
    },
    {
      "midi": 75,
      "hit": false,
      "t": 179199.9999999998,
      "d": 700,
      "v": 114
    },
    {
      "midi": 46,
      "hit": false,
      "t": 179199.9999999998,
      "d": 1476.666666666657,
      "v": 124
    },
    {
      "midi": 34,
      "hit": false,
      "t": 179199.9999999998,
      "d": 2769.999999999971,
      "v": 114
    },
    {
      "midi": 68,
      "hit": false,
      "t": 179999.9999999998,
      "d": 686.666666666657,
      "v": 127
    },
    {
      "midi": 72,
      "hit": false,
      "t": 179999.9999999998,
      "d": 703.3333333333139,
      "v": 109
    },
    {
      "midi": 77,
      "hit": false,
      "t": 179999.9999999998,
      "d": 723.3333333333139,
      "v": 104
    },
    {
      "midi": 68,
      "hit": false,
      "t": 180799.99999999977,
      "d": 76.66666666665697,
      "v": 124
    },
    {
      "midi": 72,
      "hit": false,
      "t": 180799.99999999977,
      "d": 83.33333333331393,
      "v": 114
    },
    {
      "midi": 46,
      "hit": false,
      "t": 180799.99999999977,
      "d": 86.66666666665697,
      "v": 124
    },
    {
      "midi": 75,
      "hit": false,
      "t": 180799.99999999977,
      "d": 110,
      "v": 109
    },
    {
      "midi": 68,
      "hit": false,
      "t": 181199.99999999977,
      "d": 783.333333333343,
      "v": 127
    },
    {
      "midi": 72,
      "hit": false,
      "t": 181199.99999999977,
      "d": 793.333333333343,
      "v": 109
    },
    {
      "midi": 46,
      "hit": false,
      "t": 181199.99999999977,
      "d": 816.6666666666861,
      "v": 127
    },
    {
      "midi": 77,
      "hit": false,
      "t": 181199.99999999977,
      "d": 823.333333333343,
      "v": 95
    },
    {
      "midi": 63,
      "hit": false,
      "t": 182399.99999999977,
      "d": 783.333333333343,
      "v": 124
    },
    {
      "midi": 70,
      "hit": false,
      "t": 182399.99999999977,
      "d": 783.333333333343,
      "v": 124
    },
    {
      "midi": 67,
      "hit": false,
      "t": 182399.99999999977,
      "d": 843.333333333343,
      "v": 109
    },
    {
      "midi": 39,
      "hit": false,
      "t": 182399.99999999977,
      "d": 1160,
      "v": 109
    },
    {
      "midi": 51,
      "hit": false,
      "t": 182399.99999999977,
      "d": 1186.666666666657,
      "v": 124
    },
    {
      "midi": 58,
      "hit": false,
      "t": 183199.99999999977,
      "d": 693.333333333343,
      "v": 114
    },
    {
      "midi": 63,
      "hit": false,
      "t": 183399.99999999977,
      "d": 416.66666666665697,
      "v": 104
    },
    {
      "midi": 67,
      "hit": false,
      "t": 183599.99999999977,
      "d": 220,
      "v": 91
    },
    {
      "midi": 70,
      "hit": false,
      "t": 183799.99999999977,
      "d": 156.66666666668607,
      "v": 104
    },
    {
      "midi": 58,
      "hit": false,
      "t": 183999.9999999998,
      "d": 673.333333333343,
      "v": 124
    },
    {
      "midi": 62,
      "hit": false,
      "t": 183999.9999999998,
      "d": 710,
      "v": 104
    },
    {
      "midi": 65,
      "hit": false,
      "t": 183999.9999999998,
      "d": 716.666666666657,
      "v": 109
    },
    {
      "midi": 70,
      "hit": false,
      "t": 183999.9999999998,
      "d": 716.666666666657,
      "v": 109
    },
    {
      "midi": 50,
      "hit": false,
      "t": 183999.9999999998,
      "d": 823.333333333343,
      "v": 114
    },
    {
      "midi": 58,
      "hit": false,
      "t": 184799.9999999998,
      "d": 686.6666666666861,
      "v": 114
    },
    {
      "midi": 62,
      "hit": false,
      "t": 184799.9999999998,
      "d": 693.333333333343,
      "v": 85
    },
    {
      "midi": 65,
      "hit": false,
      "t": 184799.9999999998,
      "d": 710,
      "v": 109
    },
    {
      "midi": 56,
      "hit": false,
      "t": 185599.9999999998,
      "d": 683.333333333343,
      "v": 114
    },
    {
      "midi": 60,
      "hit": false,
      "t": 185599.9999999998,
      "d": 790,
      "v": 104
    },
    {
      "midi": 65,
      "hit": false,
      "t": 185599.9999999998,
      "d": 890,
      "v": 95
    },
    {
      "midi": 68,
      "hit": false,
      "t": 185599.9999999998,
      "d": 940,
      "v": 109
    },
    {
      "midi": 53,
      "hit": false,
      "t": 185599.9999999998,
      "d": 1190,
      "v": 104
    },
    {
      "midi": 41,
      "hit": false,
      "t": 185599.9999999998,
      "d": 1273.333333333343,
      "v": 95
    },
    {
      "midi": 56,
      "hit": false,
      "t": 186399.9999999998,
      "d": 626.666666666657,
      "v": 114
    },
    {
      "midi": 60,
      "hit": false,
      "t": 186599.9999999998,
      "d": 410,
      "v": 95
    },
    {
      "midi": 65,
      "hit": false,
      "t": 186799.9999999998,
      "d": 266.66666666665697,
      "v": 91
    },
    {
      "midi": 68,
      "hit": false,
      "t": 186999.9999999998,
      "d": 120,
      "v": 104
    },
    {
      "midi": 67,
      "hit": false,
      "t": 187199.9999999998,
      "d": 653.333333333343,
      "v": 120
    },
    {
      "midi": 60,
      "hit": false,
      "t": 187199.9999999998,
      "d": 690,
      "v": 114
    },
    {
      "midi": 55,
      "hit": false,
      "t": 187199.9999999998,
      "d": 693.333333333343,
      "v": 120
    },
    {
      "midi": 63,
      "hit": false,
      "t": 187199.9999999998,
      "d": 693.333333333343,
      "v": 127
    },
    {
      "midi": 48,
      "hit": false,
      "t": 187199.9999999998,
      "d": 733.333333333343,
      "v": 124
    },
    {
      "midi": 55,
      "hit": false,
      "t": 187999.9999999998,
      "d": 550,
      "v": 120
    },
    {
      "midi": 58,
      "hit": false,
      "t": 187999.9999999998,
      "d": 590,
      "v": 127
    },
    {
      "midi": 63,
      "hit": false,
      "t": 187999.9999999998,
      "d": 640,
      "v": 109
    },
    {
      "midi": 46,
      "hit": false,
      "t": 187999.9999999998,
      "d": 790,
      "v": 109
    },
    {
      "midi": 60,
      "hit": false,
      "t": 188799.9999999998,
      "d": 693.333333333343,
      "v": 114
    },
    {
      "midi": 44,
      "hit": false,
      "t": 188799.9999999998,
      "d": 1223.333333333343,
      "v": 109
    },
    {
      "midi": 51,
      "hit": false,
      "t": 188799.9999999998,
      "d": 1240,
      "v": 104
    },
    {
      "midi": 56,
      "hit": false,
      "t": 188799.9999999998,
      "d": 1253.333333333343,
      "v": 109
    },
    {
      "midi": 60,
      "hit": false,
      "t": 189599.9999999998,
      "d": 326.66666666665697,
      "v": 104
    },
    {
      "midi": 63,
      "hit": false,
      "t": 189599.9999999998,
      "d": 336.66666666665697,
      "v": 109
    },
    {
      "midi": 68,
      "hit": false,
      "t": 189599.9999999998,
      "d": 666.6666666666861,
      "v": 95
    },
    {
      "midi": 63,
      "hit": false,
      "t": 189999.9999999998,
      "d": 273.33333333334303,
      "v": 104
    },
    {
      "midi": 72,
      "hit": false,
      "t": 189999.9999999998,
      "d": 276.66666666668607,
      "v": 109
    },
    {
      "midi": 60,
      "hit": false,
      "t": 189999.9999999998,
      "d": 286.66666666668607,
      "v": 124
    },
    {
      "midi": 60,
      "hit": false,
      "t": 190399.99999999983,
      "d": 590,
      "v": 114
    },
    {
      "midi": 63,
      "hit": false,
      "t": 190399.99999999983,
      "d": 603.333333333343,
      "v": 114
    },
    {
      "midi": 68,
      "hit": false,
      "t": 190399.99999999983,
      "d": 640,
      "v": 104
    },
    {
      "midi": 56,
      "hit": false,
      "t": 190399.99999999983,
      "d": 1110,
      "v": 114
    },
    {
      "midi": 46,
      "hit": false,
      "t": 190399.99999999983,
      "d": 1170,
      "v": 104
    },
    {
      "midi": 60,
      "hit": false,
      "t": 191199.99999999983,
      "d": 656.666666666657,
      "v": 114
    },
    {
      "midi": 63,
      "hit": false,
      "t": 191199.99999999983,
      "d": 670,
      "v": 114
    },
    {
      "midi": 70,
      "hit": false,
      "t": 191199.99999999983,
      "d": 686.666666666657,
      "v": 114
    },
    {
      "midi": 58,
      "hit": false,
      "t": 191999.99999999983,
      "d": 633.333333333343,
      "v": 127
    },
    {
      "midi": 63,
      "hit": false,
      "t": 191999.99999999983,
      "d": 800,
      "v": 114
    },
    {
      "midi": 67,
      "hit": false,
      "t": 191999.99999999983,
      "d": 990,
      "v": 114
    },
    {
      "midi": 39,
      "hit": false,
      "t": 191999.99999999983,
      "d": 1156.666666666657,
      "v": 95
    },
    {
      "midi": 51,
      "hit": false,
      "t": 191999.99999999983,
      "d": 1200,
      "v": 109
    },
    {
      "midi": 58,
      "hit": false,
      "t": 192799.99999999983,
      "d": 660,
      "v": 114
    },
    {
      "midi": 63,
      "hit": false,
      "t": 192999.99999999983,
      "d": 426.66666666665697,
      "v": 95
    },
    {
      "midi": 67,
      "hit": false,
      "t": 193199.99999999983,
      "d": 270,
      "v": 91
    },
    {
      "midi": 70,
      "hit": false,
      "t": 193399.99999999983,
      "d": 166.66666666665697,
      "v": 104
    },
    {
      "midi": 60,
      "hit": false,
      "t": 193599.99999999983,
      "d": 653.333333333343,
      "v": 114
    },
    {
      "midi": 63,
      "hit": false,
      "t": 193599.99999999983,
      "d": 666.6666666666861,
      "v": 114
    },
    {
      "midi": 68,
      "hit": false,
      "t": 193599.99999999983,
      "d": 693.333333333343,
      "v": 109
    },
    {
      "midi": 56,
      "hit": false,
      "t": 193599.99999999983,
      "d": 1076.666666666657,
      "v": 124
    },
    {
      "midi": 46,
      "hit": false,
      "t": 193599.99999999983,
      "d": 1140,
      "v": 109
    },
    {
      "midi": 60,
      "hit": false,
      "t": 194399.99999999983,
      "d": 420,
      "v": 114
    },
    {
      "midi": 63,
      "hit": false,
      "t": 194399.99999999983,
      "d": 453.33333333334303,
      "v": 124
    },
    {
      "midi": 70,
      "hit": false,
      "t": 194399.99999999983,
      "d": 503.33333333334303,
      "v": 114
    },
    {
      "midi": 75,
      "hit": false,
      "t": 195199.99999999983,
      "d": 610,
      "v": 109
    },
    {
      "midi": 67,
      "hit": false,
      "t": 195199.99999999983,
      "d": 650,
      "v": 120
    },
    {
      "midi": 70,
      "hit": false,
      "t": 195199.99999999983,
      "d": 650,
      "v": 124
    },
    {
      "midi": 63,
      "hit": false,
      "t": 195199.99999999983,
      "d": 656.666666666657,
      "v": 114
    },
    {
      "midi": 39,
      "hit": false,
      "t": 195199.99999999983,
      "d": 1260,
      "v": 104
    },
    {
      "midi": 51,
      "hit": false,
      "t": 195199.99999999983,
      "d": 1283.333333333343,
      "v": 109
    },
    {
      "midi": 58,
      "hit": false,
      "t": 195999.99999999983,
      "d": 693.333333333343,
      "v": 114
    },
    {
      "midi": 63,
      "hit": false,
      "t": 196199.99999999983,
      "d": 420,
      "v": 95
    },
    {
      "midi": 67,
      "hit": false,
      "t": 196399.99999999983,
      "d": 270,
      "v": 88
    },
    {
      "midi": 70,
      "hit": false,
      "t": 196599.99999999983,
      "d": 150,
      "v": 109
    },
    {
      "midi": 58,
      "hit": false,
      "t": 196799.99999999983,
      "d": 670,
      "v": 124
    },
    {
      "midi": 62,
      "hit": false,
      "t": 196799.99999999983,
      "d": 783.333333333343,
      "v": 104
    },
    {
      "midi": 70,
      "hit": false,
      "t": 196799.99999999983,
      "d": 783.333333333343,
      "v": 114
    },
    {
      "midi": 65,
      "hit": false,
      "t": 196799.99999999983,
      "d": 816.666666666657,
      "v": 109
    },
    {
      "midi": 50,
      "hit": false,
      "t": 196799.99999999983,
      "d": 1210,
      "v": 109
    },
    {
      "midi": 58,
      "hit": false,
      "t": 197599.99999999983,
      "d": 670,
      "v": 124
    },
    {
      "midi": 70,
      "hit": false,
      "t": 197999.99999999983,
      "d": 270,
      "v": 109
    },
    {
      "midi": 62,
      "hit": false,
      "t": 197999.99999999983,
      "d": 316.66666666665697,
      "v": 109
    },
    {
      "midi": 65,
      "hit": false,
      "t": 197999.99999999983,
      "d": 333.33333333331393,
      "v": 104
    },
    {
      "midi": 56,
      "hit": false,
      "t": 198399.9999999998,
      "d": 603.333333333343,
      "v": 114
    },
    {
      "midi": 60,
      "hit": false,
      "t": 198399.9999999998,
      "d": 710,
      "v": 104
    },
    {
      "midi": 68,
      "hit": false,
      "t": 198399.9999999998,
      "d": 733.333333333343,
      "v": 114
    },
    {
      "midi": 65,
      "hit": false,
      "t": 198399.9999999998,
      "d": 743.333333333343,
      "v": 104
    },
    {
      "midi": 53,
      "hit": false,
      "t": 198399.9999999998,
      "d": 1303.333333333343,
      "v": 109
    },
    {
      "midi": 41,
      "hit": false,
      "t": 198399.9999999998,
      "d": 1516.666666666657,
      "v": 95
    },
    {
      "midi": 56,
      "hit": false,
      "t": 199199.9999999998,
      "d": 636.666666666657,
      "v": 124
    },
    {
      "midi": 60,
      "hit": false,
      "t": 199399.9999999998,
      "d": 400,
      "v": 95
    },
    {
      "midi": 65,
      "hit": false,
      "t": 199599.9999999998,
      "d": 290,
      "v": 95
    },
    {
      "midi": 68,
      "hit": false,
      "t": 199799.9999999998,
      "d": 116.66666666665697,
      "v": 104
    },
    {
      "midi": 67,
      "hit": false,
      "t": 199999.9999999998,
      "d": 686.666666666657,
      "v": 114
    },
    {
      "midi": 60,
      "hit": false,
      "t": 199999.9999999998,
      "d": 726.666666666657,
      "v": 114
    },
    {
      "midi": 55,
      "hit": false,
      "t": 199999.9999999998,
      "d": 733.3333333333139,
      "v": 124
    },
    {
      "midi": 63,
      "hit": false,
      "t": 199999.9999999998,
      "d": 739.9999999999709,
      "v": 124
    },
    {
      "midi": 48,
      "hit": false,
      "t": 199999.9999999998,
      "d": 749.9999999999709,
      "v": 124
    },
    {
      "midi": 55,
      "hit": false,
      "t": 200799.99999999977,
      "d": 550,
      "v": 114
    },
    {
      "midi": 58,
      "hit": false,
      "t": 200799.99999999977,
      "d": 590,
      "v": 127
    },
    {
      "midi": 63,
      "hit": false,
      "t": 200799.99999999977,
      "d": 626.666666666657,
      "v": 124
    },
    {
      "midi": 46,
      "hit": false,
      "t": 200799.99999999977,
      "d": 760,
      "v": 114
    },
    {
      "midi": 44,
      "hit": false,
      "t": 201599.99999999977,
      "d": 1323.333333333314,
      "v": 104
    },
    {
      "midi": 56,
      "hit": false,
      "t": 201599.99999999977,
      "d": 1433.333333333314,
      "v": 109
    },
    {
      "midi": 51,
      "hit": false,
      "t": 201599.99999999977,
      "d": 1459.999999999971,
      "v": 104
    },
    {
      "midi": 60,
      "hit": false,
      "t": 201599.99999999977,
      "d": 1466.6666666666279,
      "v": 114
    },
    {
      "midi": 68,
      "hit": false,
      "t": 201999.99999999977,
      "d": 566.666666666657,
      "v": 91
    },
    {
      "midi": 63,
      "hit": false,
      "t": 201999.99999999977,
      "d": 640,
      "v": 109
    },
    {
      "midi": 72,
      "hit": false,
      "t": 202399.99999999977,
      "d": 466.66666666665697,
      "v": 124
    },
    {
      "midi": 63,
      "hit": false,
      "t": 202799.99999999977,
      "d": 336.66666666662786,
      "v": 109
    },
    {
      "midi": 68,
      "hit": false,
      "t": 202799.99999999977,
      "d": 403.33333333331393,
      "v": 95
    },
    {
      "midi": 63,
      "hit": false,
      "t": 203199.99999999974,
      "d": 683.333333333343,
      "v": 114
    },
    {
      "midi": 60,
      "hit": false,
      "t": 203199.99999999974,
      "d": 693.333333333343,
      "v": 124
    },
    {
      "midi": 56,
      "hit": false,
      "t": 203199.99999999974,
      "d": 1223.333333333343,
      "v": 124
    },
    {
      "midi": 46,
      "hit": false,
      "t": 203199.99999999974,
      "d": 1303.333333333343,
      "v": 109
    },
    {
      "midi": 60,
      "hit": false,
      "t": 203999.99999999974,
      "d": 683.333333333343,
      "v": 124
    },
    {
      "midi": 63,
      "hit": false,
      "t": 203999.99999999974,
      "d": 686.6666666666861,
      "v": 124
    },
    {
      "midi": 70,
      "hit": false,
      "t": 203999.99999999974,
      "d": 690.0000000000291,
      "v": 114
    },
    {
      "midi": 58,
      "hit": false,
      "t": 204799.99999999977,
      "d": 950,
      "v": 114
    },
    {
      "midi": 63,
      "hit": false,
      "t": 204799.99999999977,
      "d": 1133.333333333343,
      "v": 104
    },
    {
      "midi": 67,
      "hit": false,
      "t": 204799.99999999977,
      "d": 1266.666666666657,
      "v": 88
    },
    {
      "midi": 39,
      "hit": false,
      "t": 204799.99999999977,
      "d": 1983.3333333333721,
      "v": 109
    },
    {
      "midi": 51,
      "hit": false,
      "t": 204799.99999999977,
      "d": 2220.000000000029,
      "v": 124
    },
    {
      "midi": 58,
      "hit": false,
      "t": 205999.99999999977,
      "d": 323.33333333334303,
      "v": 124
    },
    {
      "midi": 63,
      "hit": false,
      "t": 206199.99999999977,
      "d": 166.66666666668607,
      "v": 95
    },
    {
      "midi": 67,
      "hit": false,
      "t": 206399.9999999998,
      "d": 626.666666666657,
      "v": 114
    },
    {
      "midi": 58,
      "hit": false,
      "t": 206399.9999999998,
      "d": 650,
      "v": 124
    },
    {
      "midi": 63,
      "hit": false,
      "t": 206399.9999999998,
      "d": 666.666666666657,
      "v": 114
    },
    {
      "midi": 58,
      "hit": false,
      "t": 207199.9999999998,
      "d": 456.66666666665697,
      "v": 124
    },
    {
      "midi": 62,
      "hit": false,
      "t": 207199.9999999998,
      "d": 503.33333333331393,
      "v": 104
    },
    {
      "midi": 67,
      "hit": false,
      "t": 207199.9999999998,
      "d": 526.666666666657,
      "v": 98
    },
    {
      "midi": 70,
      "hit": false,
      "t": 207199.9999999998,
      "d": 556.666666666657,
      "v": 104
    },
    {
      "midi": 50,
      "hit": false,
      "t": 207199.9999999998,
      "d": 666.666666666657,
      "v": 104
    },
    {
      "midi": 60,
      "hit": false,
      "t": 207999.9999999998,
      "d": 1193.333333333343,
      "v": 91
    },
    {
      "midi": 68,
      "hit": false,
      "t": 207999.9999999998,
      "d": 1393.333333333343,
      "v": 91
    },
    {
      "midi": 65,
      "hit": false,
      "t": 207999.9999999998,
      "d": 1433.333333333343,
      "v": 88
    },
    {
      "midi": 41,
      "hit": false,
      "t": 207999.9999999998,
      "d": 1573.333333333343,
      "v": 95
    },
    {
      "midi": 56,
      "hit": false,
      "t": 209199.9999999998,
      "d": 343.33333333334303,
      "v": 91
    },
    {
      "midi": 60,
      "hit": false,
      "t": 209399.9999999998,
      "d": 200,
      "v": 78
    },
    {
      "midi": 56,
      "hit": false,
      "t": 209599.9999999998,
      "d": 1390,
      "v": 78
    },
    {
      "midi": 63,
      "hit": false,
      "t": 209599.9999999998,
      "d": 1400,
      "v": 82
    },
    {
      "midi": 67,
      "hit": false,
      "t": 209599.9999999998,
      "d": 1400,
      "v": 82
    },
    {
      "midi": 60,
      "hit": false,
      "t": 209599.9999999998,
      "d": 1403.333333333343,
      "v": 80
    },
    {
      "midi": 34,
      "hit": false,
      "t": 209599.9999999998,
      "d": 2843.333333333343,
      "v": 88
    },
    {
      "midi": 56,
      "hit": false,
      "t": 211199.9999999998,
      "d": 1290,
      "v": 71
    },
    {
      "midi": 60,
      "hit": false,
      "t": 211199.9999999998,
      "d": 1303.333333333343,
      "v": 68
    },
    {
      "midi": 65,
      "hit": false,
      "t": 211199.9999999998,
      "d": 1320,
      "v": 74
    },
    {
      "midi": 63,
      "hit": false,
      "t": 212799.9999999998,
      "d": 1073.333333333343,
      "v": 104
    },
    {
      "midi": 58,
      "hit": false,
      "t": 212799.9999999998,
      "d": 1093.333333333343,
      "v": 95
    },
    {
      "midi": 67,
      "hit": false,
      "t": 212799.9999999998,
      "d": 1093.333333333343,
      "v": 95
    },
    {
      "midi": 70,
      "hit": false,
      "t": 212799.9999999998,
      "d": 1093.333333333343,
      "v": 95
    },
    {
      "midi": 51,
      "hit": false,
      "t": 212799.9999999998,
      "d": 1133.333333333343,
      "v": 91
    },
    {
      "midi": 39,
      "hit": false,
      "t": 212799.9999999998,
      "d": 1140,
      "v": 88
    }
  ]
}