{
  "jsonPath": "Rock/Soft Rock/King Harvest/dancing-in-the-moonlight.json",
  "path": "Rock\\Soft Rock\\King Harvest\\Dancing in the Moonlight.mid",
  "name": "Dancing in the Moonlight",
  "difficulty": "Advanced",
  "bpm": 120,
  "notes": [
    {
      "midi": 72,
      "hit": false,
      "t": 3614.728,
      "d": 1713.2304583333334,
      "v": 69
    },
    {
      "midi": 67,
      "hit": false,
      "t": 3840.6485000000002,
      "d": 387.8301916666669,
      "v": 69
    },
    {
      "midi": 70,
      "hit": false,
      "t": 4066.5690000000004,
      "d": 237.21652499999982,
      "v": 83
    },
    {
      "midi": 79,
      "hit": false,
      "t": 4292.489500000001,
      "d": 297.4619916666661,
      "v": 74
    },
    {
      "midi": 75,
      "hit": false,
      "t": 4518.41,
      "d": 244.74720833333322,
      "v": 71
    },
    {
      "midi": 70,
      "hit": false,
      "t": 4744.3305,
      "d": 214.62447499999962,
      "v": 73
    },
    {
      "midi": 67,
      "hit": false,
      "t": 4970.250999999999,
      "d": 256.0432333333338,
      "v": 53
    },
    {
      "midi": 70,
      "hit": false,
      "t": 5196.1714999999995,
      "d": 271.1046000000015,
      "v": 73
    },
    {
      "midi": 80,
      "hit": false,
      "t": 5422.092000000001,
      "d": 244.74720833333322,
      "v": 73
    },
    {
      "midi": 65,
      "hit": false,
      "t": 5422.092000000001,
      "d": 662.7001333333328,
      "v": 63
    },
    {
      "midi": 87,
      "hit": false,
      "t": 5648.012500000001,
      "d": 481.96373333333304,
      "v": 84
    },
    {
      "midi": 84,
      "hit": false,
      "t": 6099.8535,
      "d": 229.68584166666642,
      "v": 79
    },
    {
      "midi": 65,
      "hit": false,
      "t": 6099.8535,
      "d": 798.2524333333331,
      "v": 59
    },
    {
      "midi": 87,
      "hit": false,
      "t": 6325.774,
      "d": 271.10459999999966,
      "v": 76
    },
    {
      "midi": 87,
      "hit": false,
      "t": 6777.615,
      "d": 263.5739166666672,
      "v": 84
    },
    {
      "midi": 69,
      "hit": false,
      "t": 7003.5355,
      "d": 237.21652499999982,
      "v": 55
    },
    {
      "midi": 89,
      "hit": false,
      "t": 7229.456,
      "d": 267.3392583333325,
      "v": 79
    },
    {
      "midi": 70,
      "hit": false,
      "t": 7229.456,
      "d": 1472.2485916666665,
      "v": 61
    },
    {
      "midi": 86,
      "hit": false,
      "t": 7455.376499999999,
      "d": 237.21652499999982,
      "v": 65
    },
    {
      "midi": 84,
      "hit": false,
      "t": 7681.297,
      "d": 143.08298333333278,
      "v": 84
    },
    {
      "midi": 84,
      "hit": false,
      "t": 7907.217499999999,
      "d": 233.45118333333357,
      "v": 63
    },
    {
      "midi": 86,
      "hit": false,
      "t": 8133.137999999999,
      "d": 278.63528333333306,
      "v": 86
    },
    {
      "midi": 84,
      "hit": false,
      "t": 8359.0585,
      "d": 252.27789166666662,
      "v": 69
    },
    {
      "midi": 82,
      "hit": false,
      "t": 8584.979,
      "d": 173.20571666666729,
      "v": 61
    },
    {
      "midi": 87,
      "hit": false,
      "t": 8810.8995,
      "d": 222.15515833333302,
      "v": 78
    },
    {
      "midi": 75,
      "hit": false,
      "t": 9036.82,
      "d": 237.21652499999982,
      "v": 72
    },
    {
      "midi": 63,
      "hit": false,
      "t": 9036.82,
      "d": 606.2200083333337,
      "v": 65
    },
    {
      "midi": 70,
      "hit": false,
      "t": 9262.7405,
      "d": 274.8699416666677,
      "v": 78
    },
    {
      "midi": 75,
      "hit": false,
      "t": 9488.661,
      "d": 244.74720833333413,
      "v": 58
    },
    {
      "midi": 63,
      "hit": false,
      "t": 9714.5815,
      "d": 188.26708333333409,
      "v": 57
    },
    {
      "midi": 79,
      "hit": false,
      "t": 9714.5815,
      "d": 304.9926749999995,
      "v": 56
    },
    {
      "midi": 77,
      "hit": false,
      "t": 9940.502,
      "d": 229.68584166666733,
      "v": 79
    },
    {
      "midi": 62,
      "hit": false,
      "t": 9940.502,
      "d": 643.8734249999998,
      "v": 69
    },
    {
      "midi": 70,
      "hit": false,
      "t": 10166.4225,
      "d": 248.51254999999946,
      "v": 73
    },
    {
      "midi": 74,
      "hit": false,
      "t": 10392.343,
      "d": 233.45118333333266,
      "v": 62
    },
    {
      "midi": 62,
      "hit": false,
      "t": 10618.263500000001,
      "d": 210.85913333333338,
      "v": 52
    },
    {
      "midi": 77,
      "hit": false,
      "t": 10618.263500000001,
      "d": 225.92050000000017,
      "v": 93
    },
    {
      "midi": 75,
      "hit": false,
      "t": 10844.184000000001,
      "d": 229.68584166666733,
      "v": 75
    },
    {
      "midi": 60,
      "hit": false,
      "t": 10844.184000000001,
      "d": 1186.082625000001,
      "v": 62
    },
    {
      "midi": 70,
      "hit": false,
      "t": 11070.104500000001,
      "d": 316.288700000001,
      "v": 91
    },
    {
      "midi": 75,
      "hit": false,
      "t": 11296.025000000001,
      "d": 214.62447500000053,
      "v": 76
    },
    {
      "midi": 79,
      "hit": false,
      "t": 11521.945500000002,
      "d": 256.0432333333338,
      "v": 60
    },
    {
      "midi": 75,
      "hit": false,
      "t": 11747.866000000002,
      "d": 278.63528333333306,
      "v": 75
    },
    {
      "midi": 70,
      "hit": false,
      "t": 11973.786500000002,
      "d": 233.45118333333266,
      "v": 85
    },
    {
      "midi": 67,
      "hit": false,
      "t": 12199.707000000002,
      "d": 286.16596666666555,
      "v": 58
    },
    {
      "midi": 72,
      "hit": false,
      "t": 12199.707000000002,
      "d": 361.47279999999955,
      "v": 67
    },
    {
      "midi": 70,
      "hit": false,
      "t": 12425.6275,
      "d": 214.62447500000053,
      "v": 87
    },
    {
      "midi": 80,
      "hit": false,
      "t": 12651.548,
      "d": 286.1659666666674,
      "v": 71
    },
    {
      "midi": 65,
      "hit": false,
      "t": 12651.548,
      "d": 662.7001333333337,
      "v": 69
    },
    {
      "midi": 87,
      "hit": false,
      "t": 12866.172475000001,
      "d": 512.0864666666657,
      "v": 75
    },
    {
      "midi": 65,
      "hit": false,
      "t": 13344.370866666668,
      "d": 798.2524333333313,
      "v": 59
    },
    {
      "midi": 84,
      "hit": false,
      "t": 13355.666891666668,
      "d": 289.9313083333327,
      "v": 78
    },
    {
      "midi": 87,
      "hit": false,
      "t": 13558.995341666667,
      "d": 293.69664999999986,
      "v": 66
    },
    {
      "midi": 87,
      "hit": false,
      "t": 14029.66305,
      "d": 297.461991666667,
      "v": 84
    },
    {
      "midi": 69,
      "hit": false,
      "t": 14232.9915,
      "d": 237.21652499999982,
      "v": 55
    },
    {
      "midi": 89,
      "hit": false,
      "t": 14458.912,
      "d": 233.45118333333266,
      "v": 81
    },
    {
      "midi": 70,
      "hit": false,
      "t": 14458.912,
      "d": 1472.2485916666683,
      "v": 61
    },
    {
      "midi": 86,
      "hit": false,
      "t": 14684.8325,
      "d": 192.03242499999942,
      "v": 73
    },
    {
      "midi": 84,
      "hit": false,
      "t": 14910.753,
      "d": 128.0216166666669,
      "v": 71
    },
    {
      "midi": 84,
      "hit": false,
      "t": 15136.6735,
      "d": 229.68584166666733,
      "v": 62
    },
    {
      "midi": 86,
      "hit": false,
      "t": 15362.594000000001,
      "d": 225.92050000000017,
      "v": 77
    },
    {
      "midi": 84,
      "hit": false,
      "t": 15584.749158333334,
      "d": 263.5739166666681,
      "v": 79
    },
    {
      "midi": 82,
      "hit": false,
      "t": 15799.373633333335,
      "d": 240.98186666666697,
      "v": 58
    },
    {
      "midi": 62,
      "hit": false,
      "t": 16010.232766666668,
      "d": 304.9926749999995,
      "v": 84
    },
    {
      "midi": 86,
      "hit": false,
      "t": 16013.998108333335,
      "d": 259.8085749999991,
      "v": 91
    },
    {
      "midi": 91,
      "hit": false,
      "t": 16507.257866666667,
      "d": 387.8301916666678,
      "v": 66
    },
    {
      "midi": 62,
      "hit": false,
      "t": 16514.78855,
      "d": 568.5665916666658,
      "v": 80
    },
    {
      "midi": 86,
      "hit": false,
      "t": 16518.553891666666,
      "d": 387.8301916666678,
      "v": 67
    },
    {
      "midi": 91,
      "hit": false,
      "t": 17049.467066666668,
      "d": 387.8301916666642,
      "v": 66
    },
    {
      "midi": 67,
      "hit": false,
      "t": 17060.763091666668,
      "d": 312.523358333332,
      "v": 70
    },
    {
      "midi": 86,
      "hit": false,
      "t": 17060.763091666668,
      "d": 402.8915583333328,
      "v": 65
    },
    {
      "midi": 91,
      "hit": false,
      "t": 17546.492166666667,
      "d": 387.8301916666678,
      "v": 66
    },
    {
      "midi": 67,
      "hit": false,
      "t": 17565.318875,
      "d": 414.18758333333244,
      "v": 69
    },
    {
      "midi": 86,
      "hit": false,
      "t": 17572.849558333335,
      "d": 455.6063416666657,
      "v": 66
    },
    {
      "midi": 60,
      "hit": false,
      "t": 18073.64,
      "d": 218.38981666666587,
      "v": 76
    },
    {
      "midi": 87,
      "hit": false,
      "t": 18073.64,
      "d": 240.98186666666516,
      "v": 66
    },
    {
      "midi": 84,
      "hit": false,
      "t": 18077.405341666665,
      "d": 252.2778916666648,
      "v": 76
    },
    {
      "midi": 53,
      "hit": false,
      "t": 19881.003999999997,
      "d": 1701.9344333333356,
      "v": 53
    },
    {
      "midi": 65,
      "hit": false,
      "t": 20332.844999999998,
      "d": 700.3535499999998,
      "v": 78
    },
    {
      "midi": 68,
      "hit": false,
      "t": 20336.610341666663,
      "d": 689.0575250000002,
      "v": 78
    },
    {
      "midi": 72,
      "hit": false,
      "t": 20344.141024999997,
      "d": 681.5268416666659,
      "v": 78
    },
    {
      "midi": 65,
      "hit": false,
      "t": 21221.46563333333,
      "d": 399.1262166666711,
      "v": 75
    },
    {
      "midi": 72,
      "hit": false,
      "t": 21228.996316666664,
      "d": 406.65690000000177,
      "v": 75
    },
    {
      "midi": 68,
      "hit": false,
      "t": 21236.527,
      "d": 372.76882500000283,
      "v": 76
    },
    {
      "midi": 58,
      "hit": false,
      "t": 21688.368,
      "d": 1701.934433333332,
      "v": 53
    },
    {
      "midi": 72,
      "hit": false,
      "t": 21695.898683333333,
      "d": 233.45118333333085,
      "v": 86
    },
    {
      "midi": 74,
      "hit": false,
      "t": 21925.584525,
      "d": 237.21652499999618,
      "v": 76
    },
    {
      "midi": 72,
      "hit": false,
      "t": 22128.912974999996,
      "d": 210.85913333333156,
      "v": 75
    },
    {
      "midi": 70,
      "hit": false,
      "t": 22358.59881666666,
      "d": 233.45118333333448,
      "v": 77
    },
    {
      "midi": 72,
      "hit": false,
      "t": 22573.22329166666,
      "d": 210.8591333333352,
      "v": 95
    },
    {
      "midi": 74,
      "hit": false,
      "t": 22784.082424999997,
      "d": 293.69664999999804,
      "v": 74
    },
    {
      "midi": 72,
      "hit": false,
      "t": 23032.594974999996,
      "d": 259.8085749999991,
      "v": 84
    },
    {
      "midi": 70,
      "hit": false,
      "t": 23258.515474999997,
      "d": 237.21652499999982,
      "v": 82
    },
    {
      "midi": 75,
      "hit": false,
      "t": 23495.731999999996,
      "d": 237.21652499999982,
      "v": 72
    },
    {
      "midi": 63,
      "hit": false,
      "t": 23495.731999999996,
      "d": 606.2200083333337,
      "v": 65
    },
    {
      "midi": 70,
      "hit": false,
      "t": 23721.652499999997,
      "d": 274.8699416666677,
      "v": 78
    },
    {
      "midi": 75,
      "hit": false,
      "t": 23947.572999999997,
      "d": 244.74720833333413,
      "v": 86
    },
    {
      "midi": 63,
      "hit": false,
      "t": 24173.493499999997,
      "d": 188.26708333333227,
      "v": 76
    },
    {
      "midi": 79,
      "hit": false,
      "t": 24173.493499999997,
      "d": 304.9926750000013,
      "v": 76
    },
    {
      "midi": 77,
      "hit": false,
      "t": 24399.413999999997,
      "d": 229.6858416666655,
      "v": 79
    },
    {
      "midi": 62,
      "hit": false,
      "t": 24399.413999999997,
      "d": 643.873424999998,
      "v": 69
    },
    {
      "midi": 70,
      "hit": false,
      "t": 24625.334499999997,
      "d": 248.51254999999946,
      "v": 73
    },
    {
      "midi": 74,
      "hit": false,
      "t": 24851.254999999997,
      "d": 233.45118333333085,
      "v": 62
    },
    {
      "midi": 62,
      "hit": false,
      "t": 25077.175499999994,
      "d": 210.8591333333352,
      "v": 78
    },
    {
      "midi": 77,
      "hit": false,
      "t": 25077.175499999994,
      "d": 225.92050000000017,
      "v": 78
    },
    {
      "midi": 75,
      "hit": false,
      "t": 25303.095999999994,
      "d": 229.6858416666655,
      "v": 75
    },
    {
      "midi": 60,
      "hit": false,
      "t": 25303.095999999994,
      "d": 1186.082624999999,
      "v": 62
    },
    {
      "midi": 70,
      "hit": false,
      "t": 25529.016499999994,
      "d": 316.288700000001,
      "v": 91
    },
    {
      "midi": 75,
      "hit": false,
      "t": 25754.936999999994,
      "d": 214.62447500000053,
      "v": 76
    },
    {
      "midi": 79,
      "hit": false,
      "t": 25980.857499999995,
      "d": 256.0432333333338,
      "v": 60
    },
    {
      "midi": 75,
      "hit": false,
      "t": 26206.777999999995,
      "d": 278.63528333333306,
      "v": 75
    },
    {
      "midi": 70,
      "hit": false,
      "t": 26432.698499999995,
      "d": 233.45118333333085,
      "v": 85
    },
    {
      "midi": 67,
      "hit": false,
      "t": 26658.61899999999,
      "d": 286.1659666666674,
      "v": 58
    },
    {
      "midi": 72,
      "hit": false,
      "t": 26658.61899999999,
      "d": 361.47279999999955,
      "v": 67
    },
    {
      "midi": 70,
      "hit": false,
      "t": 26884.53949999999,
      "d": 214.62447500000053,
      "v": 87
    },
    {
      "midi": 68,
      "hit": false,
      "t": 27110.459999999992,
      "d": 286.1659666666674,
      "v": 71
    },
    {
      "midi": 65,
      "hit": false,
      "t": 27110.459999999992,
      "d": 662.7001333333355,
      "v": 69
    },
    {
      "midi": 75,
      "hit": false,
      "t": 27325.084474999992,
      "d": 512.0864666666675,
      "v": 75
    },
    {
      "midi": 65,
      "hit": false,
      "t": 27803.28286666666,
      "d": 798.2524333333313,
      "v": 59
    },
    {
      "midi": 72,
      "hit": false,
      "t": 27814.57889166666,
      "d": 289.9313083333327,
      "v": 78
    },
    {
      "midi": 75,
      "hit": false,
      "t": 28017.90734166666,
      "d": 293.69664999999804,
      "v": 66
    },
    {
      "midi": 75,
      "hit": false,
      "t": 28488.575049999992,
      "d": 297.461991666667,
      "v": 84
    },
    {
      "midi": 69,
      "hit": false,
      "t": 28691.903499999993,
      "d": 237.21652499999982,
      "v": 55
    },
    {
      "midi": 58,
      "hit": false,
      "t": 28917.823999999993,
      "d": 1701.934433333332,
      "v": 67
    },
    {
      "midi": 72,
      "hit": false,
      "t": 28925.354683333328,
      "d": 233.45118333333085,
      "v": 86
    },
    {
      "midi": 74,
      "hit": false,
      "t": 29155.040524999993,
      "d": 237.21652499999618,
      "v": 76
    },
    {
      "midi": 72,
      "hit": false,
      "t": 29358.36897499999,
      "d": 210.85913333333156,
      "v": 75
    },
    {
      "midi": 70,
      "hit": false,
      "t": 29588.054816666656,
      "d": 233.45118333333448,
      "v": 77
    },
    {
      "midi": 72,
      "hit": false,
      "t": 29802.679291666656,
      "d": 210.8591333333352,
      "v": 95
    },
    {
      "midi": 74,
      "hit": false,
      "t": 30013.53842499999,
      "d": 293.69664999999804,
      "v": 74
    },
    {
      "midi": 72,
      "hit": false,
      "t": 30262.05097499999,
      "d": 259.8085749999991,
      "v": 84
    },
    {
      "midi": 70,
      "hit": false,
      "t": 30487.97147499999,
      "d": 237.21652499999982,
      "v": 82
    },
    {
      "midi": 75,
      "hit": false,
      "t": 30725.18799999999,
      "d": 237.21652499999982,
      "v": 72
    },
    {
      "midi": 63,
      "hit": false,
      "t": 30725.18799999999,
      "d": 606.2200083333337,
      "v": 65
    },
    {
      "midi": 70,
      "hit": false,
      "t": 30951.10849999999,
      "d": 274.8699416666677,
      "v": 78
    },
    {
      "midi": 75,
      "hit": false,
      "t": 31177.02899999999,
      "d": 244.74720833333413,
      "v": 86
    },
    {
      "midi": 63,
      "hit": false,
      "t": 31402.94949999999,
      "d": 188.26708333333227,
      "v": 76
    },
    {
      "midi": 79,
      "hit": false,
      "t": 31402.94949999999,
      "d": 304.9926750000013,
      "v": 76
    },
    {
      "midi": 77,
      "hit": false,
      "t": 31628.86999999999,
      "d": 229.6858416666655,
      "v": 79
    },
    {
      "midi": 62,
      "hit": false,
      "t": 31628.86999999999,
      "d": 643.873424999998,
      "v": 69
    },
    {
      "midi": 70,
      "hit": false,
      "t": 31854.790499999992,
      "d": 248.51254999999946,
      "v": 73
    },
    {
      "midi": 74,
      "hit": false,
      "t": 32080.710999999992,
      "d": 233.45118333333085,
      "v": 62
    },
    {
      "midi": 62,
      "hit": false,
      "t": 32306.63149999999,
      "d": 210.8591333333352,
      "v": 78
    },
    {
      "midi": 77,
      "hit": false,
      "t": 32306.63149999999,
      "d": 225.92050000000017,
      "v": 78
    },
    {
      "midi": 75,
      "hit": false,
      "t": 32532.55199999999,
      "d": 229.6858416666655,
      "v": 75
    },
    {
      "midi": 60,
      "hit": false,
      "t": 32532.55199999999,
      "d": 1186.0826250000027,
      "v": 62
    },
    {
      "midi": 70,
      "hit": false,
      "t": 32758.47249999999,
      "d": 316.28869999999733,
      "v": 91
    },
    {
      "midi": 75,
      "hit": false,
      "t": 32984.39299999999,
      "d": 214.6244749999969,
      "v": 76
    },
    {
      "midi": 79,
      "hit": false,
      "t": 33210.31349999999,
      "d": 256.04323333333014,
      "v": 60
    },
    {
      "midi": 75,
      "hit": false,
      "t": 33436.23399999999,
      "d": 278.6352833333367,
      "v": 75
    },
    {
      "midi": 70,
      "hit": false,
      "t": 33662.15449999999,
      "d": 233.45118333333085,
      "v": 85
    },
    {
      "midi": 72,
      "hit": false,
      "t": 33888.07499999999,
      "d": 252.2778916666648,
      "v": 67
    },
    {
      "midi": 67,
      "hit": false,
      "t": 33888.07499999999,
      "d": 286.1659666666674,
      "v": 58
    },
    {
      "midi": 70,
      "hit": false,
      "t": 34113.99549999999,
      "d": 214.62447500000417,
      "v": 87
    },
    {
      "midi": 68,
      "hit": false,
      "t": 34339.916,
      "d": 286.1659666666601,
      "v": 71
    },
    {
      "midi": 65,
      "hit": false,
      "t": 34339.916,
      "d": 662.7001333333246,
      "v": 69
    },
    {
      "midi": 75,
      "hit": false,
      "t": 34554.540474999994,
      "d": 512.0864666666603,
      "v": 75
    },
    {
      "midi": 65,
      "hit": false,
      "t": 35032.73886666665,
      "d": 798.2524333333349,
      "v": 59
    },
    {
      "midi": 72,
      "hit": false,
      "t": 35044.034891666655,
      "d": 289.9313083333327,
      "v": 78
    },
    {
      "midi": 75,
      "hit": false,
      "t": 35247.363341666656,
      "d": 293.69664999999804,
      "v": 66
    },
    {
      "midi": 75,
      "hit": false,
      "t": 35718.03104999999,
      "d": 297.4619916666634,
      "v": 84
    },
    {
      "midi": 69,
      "hit": false,
      "t": 35921.359499999984,
      "d": 237.21652499999618,
      "v": 55
    },
    {
      "midi": 58,
      "hit": false,
      "t": 36147.279999999984,
      "d": 1701.9344333333356,
      "v": 67
    },
    {
      "midi": 72,
      "hit": false,
      "t": 36154.810683333315,
      "d": 233.45118333333085,
      "v": 86
    },
    {
      "midi": 74,
      "hit": false,
      "t": 36384.49652499998,
      "d": 237.21652500000346,
      "v": 76
    },
    {
      "midi": 72,
      "hit": false,
      "t": 36587.82497499998,
      "d": 210.85913333333883,
      "v": 75
    },
    {
      "midi": 70,
      "hit": false,
      "t": 36817.510816666654,
      "d": 233.45118333333085,
      "v": 77
    },
    {
      "midi": 72,
      "hit": false,
      "t": 37032.13529166665,
      "d": 210.85913333333156,
      "v": 95
    },
    {
      "midi": 74,
      "hit": false,
      "t": 37242.99442499998,
      "d": 293.69664999999804,
      "v": 74
    },
    {
      "midi": 72,
      "hit": false,
      "t": 37491.50697499998,
      "d": 259.80857500000275,
      "v": 84
    },
    {
      "midi": 70,
      "hit": false,
      "t": 37717.42747499998,
      "d": 237.21652500000346,
      "v": 82
    },
    {
      "midi": 75,
      "hit": false,
      "t": 37954.643999999986,
      "d": 237.21652500000346,
      "v": 72
    },
    {
      "midi": 63,
      "hit": false,
      "t": 37954.643999999986,
      "d": 606.22000833333,
      "v": 65
    },
    {
      "midi": 70,
      "hit": false,
      "t": 38180.564499999986,
      "d": 274.8699416666641,
      "v": 78
    },
    {
      "midi": 75,
      "hit": false,
      "t": 38406.484999999986,
      "d": 244.74720833332685,
      "v": 86
    },
    {
      "midi": 63,
      "hit": false,
      "t": 38632.40549999998,
      "d": 188.26708333333227,
      "v": 76
    },
    {
      "midi": 79,
      "hit": false,
      "t": 38632.40549999998,
      "d": 304.9926750000013,
      "v": 76
    },
    {
      "midi": 77,
      "hit": false,
      "t": 38858.32599999998,
      "d": 229.6858416666655,
      "v": 79
    },
    {
      "midi": 62,
      "hit": false,
      "t": 38858.32599999998,
      "d": 643.873424999998,
      "v": 69
    },
    {
      "midi": 70,
      "hit": false,
      "t": 39084.24649999998,
      "d": 248.51254999999946,
      "v": 73
    },
    {
      "midi": 74,
      "hit": false,
      "t": 39310.16699999998,
      "d": 233.45118333333085,
      "v": 62
    },
    {
      "midi": 62,
      "hit": false,
      "t": 39536.08749999998,
      "d": 210.85913333333156,
      "v": 78
    },
    {
      "midi": 77,
      "hit": false,
      "t": 39536.08749999998,
      "d": 225.92050000000017,
      "v": 78
    },
    {
      "midi": 60,
      "hit": false,
      "t": 39762.00799999998,
      "d": 195.7977666666702,
      "v": 62
    },
    {
      "midi": 75,
      "hit": false,
      "t": 39762.00799999998,
      "d": 229.6858416666728,
      "v": 75
    },
    {
      "midi": 72,
      "hit": false,
      "t": 39762.00799999998,
      "d": 233.45118333333812,
      "v": 62
    },
    {
      "midi": 65,
      "hit": false,
      "t": 41569.37199999998,
      "d": 256.04323333333014,
      "v": 45
    },
    {
      "midi": 53,
      "hit": false,
      "t": 41569.37199999998,
      "d": 1701.934433333321,
      "v": 53
    },
    {
      "midi": 65,
      "hit": false,
      "t": 42021.21299999998,
      "d": 391.5955333333259,
      "v": 78
    },
    {
      "midi": 68,
      "hit": false,
      "t": 42024.97834166665,
      "d": 689.0575249999965,
      "v": 78
    },
    {
      "midi": 72,
      "hit": false,
      "t": 42032.50902499998,
      "d": 681.5268416666659,
      "v": 78
    },
    {
      "midi": 65,
      "hit": false,
      "t": 42473.053999999975,
      "d": 391.59553333333315,
      "v": 78
    },
    {
      "midi": 65,
      "hit": false,
      "t": 42909.833633333306,
      "d": 399.1262166666638,
      "v": 75
    },
    {
      "midi": 72,
      "hit": false,
      "t": 42917.36431666664,
      "d": 406.65690000000177,
      "v": 75
    },
    {
      "midi": 68,
      "hit": false,
      "t": 42924.89499999997,
      "d": 372.7688249999992,
      "v": 76
    },
    {
      "midi": 58,
      "hit": false,
      "t": 43376.735999999975,
      "d": 1701.9344333333356,
      "v": 53
    },
    {
      "midi": 72,
      "hit": false,
      "t": 43384.266683333306,
      "d": 233.45118333333085,
      "v": 86
    },
    {
      "midi": 74,
      "hit": false,
      "t": 43613.95252499997,
      "d": 237.21652500000346,
      "v": 76
    },
    {
      "midi": 72,
      "hit": false,
      "t": 43817.28097499997,
      "d": 210.85913333333883,
      "v": 75
    },
    {
      "midi": 70,
      "hit": false,
      "t": 44046.966816666645,
      "d": 233.45118333333085,
      "v": 77
    },
    {
      "midi": 72,
      "hit": false,
      "t": 44261.59129166664,
      "d": 210.85913333333156,
      "v": 95
    },
    {
      "midi": 74,
      "hit": false,
      "t": 44472.45042499997,
      "d": 293.69664999999804,
      "v": 74
    },
    {
      "midi": 72,
      "hit": false,
      "t": 44720.96297499997,
      "d": 259.80857500000275,
      "v": 84
    },
    {
      "midi": 70,
      "hit": false,
      "t": 44946.88347499997,
      "d": 237.21652500000346,
      "v": 82
    },
    {
      "midi": 75,
      "hit": false,
      "t": 45184.09999999998,
      "d": 237.21652500000346,
      "v": 72
    },
    {
      "midi": 63,
      "hit": false,
      "t": 45184.09999999998,
      "d": 606.22000833333,
      "v": 65
    },
    {
      "midi": 70,
      "hit": false,
      "t": 45410.02049999998,
      "d": 274.8699416666641,
      "v": 78
    },
    {
      "midi": 75,
      "hit": false,
      "t": 45635.94099999998,
      "d": 244.74720833332685,
      "v": 86
    },
    {
      "midi": 63,
      "hit": false,
      "t": 45861.86149999997,
      "d": 188.26708333333227,
      "v": 76
    },
    {
      "midi": 79,
      "hit": false,
      "t": 45861.86149999997,
      "d": 304.9926750000013,
      "v": 76
    },
    {
      "midi": 77,
      "hit": false,
      "t": 46087.78199999997,
      "d": 229.6858416666655,
      "v": 79
    },
    {
      "midi": 62,
      "hit": false,
      "t": 46087.78199999997,
      "d": 643.873424999998,
      "v": 69
    },
    {
      "midi": 70,
      "hit": false,
      "t": 46313.70249999997,
      "d": 248.51254999999946,
      "v": 73
    },
    {
      "midi": 74,
      "hit": false,
      "t": 46539.62299999997,
      "d": 233.45118333333085,
      "v": 62
    },
    {
      "midi": 62,
      "hit": false,
      "t": 46765.54349999997,
      "d": 210.85913333333156,
      "v": 78
    },
    {
      "midi": 77,
      "hit": false,
      "t": 46765.54349999997,
      "d": 225.92050000000017,
      "v": 78
    },
    {
      "midi": 75,
      "hit": false,
      "t": 46991.46399999997,
      "d": 229.6858416666655,
      "v": 75
    },
    {
      "midi": 60,
      "hit": false,
      "t": 46991.46399999997,
      "d": 1186.0826250000027,
      "v": 62
    },
    {
      "midi": 70,
      "hit": false,
      "t": 47217.38449999997,
      "d": 316.28869999999733,
      "v": 91
    },
    {
      "midi": 75,
      "hit": false,
      "t": 47443.30499999997,
      "d": 214.6244749999969,
      "v": 76
    },
    {
      "midi": 79,
      "hit": false,
      "t": 47669.22549999997,
      "d": 256.04323333333014,
      "v": 60
    },
    {
      "midi": 75,
      "hit": false,
      "t": 47895.14599999997,
      "d": 278.6352833333367,
      "v": 75
    },
    {
      "midi": 70,
      "hit": false,
      "t": 48121.06649999997,
      "d": 233.45118333333085,
      "v": 85
    },
    {
      "midi": 67,
      "hit": false,
      "t": 48346.98699999997,
      "d": 286.1659666666674,
      "v": 58
    },
    {
      "midi": 72,
      "hit": false,
      "t": 48346.98699999997,
      "d": 361.4728000000032,
      "v": 67
    },
    {
      "midi": 70,
      "hit": false,
      "t": 48572.90749999997,
      "d": 214.62447500000417,
      "v": 87
    },
    {
      "midi": 68,
      "hit": false,
      "t": 48798.82799999998,
      "d": 286.1659666666601,
      "v": 71
    },
    {
      "midi": 65,
      "hit": false,
      "t": 48798.82799999998,
      "d": 662.7001333333246,
      "v": 69
    },
    {
      "midi": 75,
      "hit": false,
      "t": 49013.45247499998,
      "d": 512.0864666666603,
      "v": 75
    },
    {
      "midi": 65,
      "hit": false,
      "t": 49491.650866666634,
      "d": 798.2524333333349,
      "v": 59
    },
    {
      "midi": 72,
      "hit": false,
      "t": 49502.94689166664,
      "d": 289.9313083333327,
      "v": 78
    },
    {
      "midi": 75,
      "hit": false,
      "t": 49706.27534166664,
      "d": 293.69664999999804,
      "v": 66
    },
    {
      "midi": 75,
      "hit": false,
      "t": 50176.94304999997,
      "d": 297.4619916666634,
      "v": 84
    },
    {
      "midi": 69,
      "hit": false,
      "t": 50380.271499999966,
      "d": 237.21652499999618,
      "v": 55
    },
    {
      "midi": 58,
      "hit": false,
      "t": 50606.191999999966,
      "d": 1701.9344333333356,
      "v": 67
    },
    {
      "midi": 72,
      "hit": false,
      "t": 50613.7226833333,
      "d": 233.45118333333085,
      "v": 86
    },
    {
      "midi": 74,
      "hit": false,
      "t": 50843.40852499996,
      "d": 237.21652500000346,
      "v": 76
    },
    {
      "midi": 72,
      "hit": false,
      "t": 51046.73697499996,
      "d": 210.85913333333883,
      "v": 75
    },
    {
      "midi": 70,
      "hit": false,
      "t": 51276.422816666636,
      "d": 233.45118333333085,
      "v": 77
    },
    {
      "midi": 72,
      "hit": false,
      "t": 51491.04729166663,
      "d": 210.85913333333156,
      "v": 95
    },
    {
      "midi": 74,
      "hit": false,
      "t": 51701.906424999965,
      "d": 293.69664999999804,
      "v": 74
    },
    {
      "midi": 72,
      "hit": false,
      "t": 51950.418974999964,
      "d": 259.80857500000275,
      "v": 84
    },
    {
      "midi": 70,
      "hit": false,
      "t": 52176.339474999964,
      "d": 237.21652500000346,
      "v": 82
    },
    {
      "midi": 75,
      "hit": false,
      "t": 52413.55599999997,
      "d": 237.21652500000346,
      "v": 72
    },
    {
      "midi": 63,
      "hit": false,
      "t": 52413.55599999997,
      "d": 606.22000833333,
      "v": 65
    },
    {
      "midi": 70,
      "hit": false,
      "t": 52639.47649999997,
      "d": 274.8699416666641,
      "v": 78
    },
    {
      "midi": 75,
      "hit": false,
      "t": 52865.39699999997,
      "d": 244.74720833332685,
      "v": 86
    },
    {
      "midi": 63,
      "hit": false,
      "t": 53091.31749999996,
      "d": 188.26708333333227,
      "v": 76
    },
    {
      "midi": 79,
      "hit": false,
      "t": 53091.31749999996,
      "d": 304.9926750000013,
      "v": 76
    },
    {
      "midi": 77,
      "hit": false,
      "t": 53317.23799999996,
      "d": 229.6858416666655,
      "v": 79
    },
    {
      "midi": 62,
      "hit": false,
      "t": 53317.23799999996,
      "d": 643.873424999998,
      "v": 69
    },
    {
      "midi": 70,
      "hit": false,
      "t": 53543.15849999996,
      "d": 248.51254999999946,
      "v": 73
    },
    {
      "midi": 74,
      "hit": false,
      "t": 53769.07899999996,
      "d": 233.45118333333085,
      "v": 62
    },
    {
      "midi": 62,
      "hit": false,
      "t": 53994.99949999996,
      "d": 210.85913333333156,
      "v": 78
    },
    {
      "midi": 77,
      "hit": false,
      "t": 53994.99949999996,
      "d": 225.92050000000017,
      "v": 78
    },
    {
      "midi": 75,
      "hit": false,
      "t": 54220.91999999996,
      "d": 229.6858416666655,
      "v": 75
    },
    {
      "midi": 60,
      "hit": false,
      "t": 54220.91999999996,
      "d": 1186.0826250000027,
      "v": 62
    },
    {
      "midi": 70,
      "hit": false,
      "t": 54446.84049999996,
      "d": 316.28869999999733,
      "v": 91
    },
    {
      "midi": 75,
      "hit": false,
      "t": 54672.76099999996,
      "d": 214.6244749999969,
      "v": 76
    },
    {
      "midi": 79,
      "hit": false,
      "t": 54898.68149999996,
      "d": 256.04323333333014,
      "v": 60
    },
    {
      "midi": 75,
      "hit": false,
      "t": 55124.60199999996,
      "d": 278.6352833333367,
      "v": 75
    },
    {
      "midi": 70,
      "hit": false,
      "t": 55350.52249999996,
      "d": 233.45118333333085,
      "v": 85
    },
    {
      "midi": 72,
      "hit": false,
      "t": 55576.44299999996,
      "d": 252.2778916666648,
      "v": 67
    },
    {
      "midi": 67,
      "hit": false,
      "t": 55576.44299999996,
      "d": 286.1659666666674,
      "v": 58
    },
    {
      "midi": 70,
      "hit": false,
      "t": 55802.36349999996,
      "d": 214.62447500000417,
      "v": 87
    },
    {
      "midi": 68,
      "hit": false,
      "t": 56028.28399999997,
      "d": 286.1659666666601,
      "v": 71
    },
    {
      "midi": 65,
      "hit": false,
      "t": 56028.28399999997,
      "d": 662.7001333333246,
      "v": 69
    },
    {
      "midi": 75,
      "hit": false,
      "t": 56242.90847499997,
      "d": 512.0864666666603,
      "v": 75
    },
    {
      "midi": 65,
      "hit": false,
      "t": 56721.106866666625,
      "d": 798.2524333333349,
      "v": 59
    },
    {
      "midi": 72,
      "hit": false,
      "t": 56732.40289166663,
      "d": 289.9313083333327,
      "v": 78
    },
    {
      "midi": 75,
      "hit": false,
      "t": 56935.73134166663,
      "d": 293.69664999999804,
      "v": 66
    },
    {
      "midi": 75,
      "hit": false,
      "t": 57406.39904999996,
      "d": 297.4619916666634,
      "v": 84
    },
    {
      "midi": 69,
      "hit": false,
      "t": 57609.72749999996,
      "d": 237.21652499999618,
      "v": 55
    },
    {
      "midi": 58,
      "hit": false,
      "t": 57835.64799999996,
      "d": 1701.9344333333356,
      "v": 67
    },
    {
      "midi": 72,
      "hit": false,
      "t": 57843.17868333329,
      "d": 233.45118333333085,
      "v": 86
    },
    {
      "midi": 74,
      "hit": false,
      "t": 58072.86452499995,
      "d": 237.21652500000346,
      "v": 76
    },
    {
      "midi": 72,
      "hit": false,
      "t": 58276.192974999954,
      "d": 210.85913333333883,
      "v": 75
    },
    {
      "midi": 70,
      "hit": false,
      "t": 58505.87881666663,
      "d": 233.45118333333085,
      "v": 77
    },
    {
      "midi": 72,
      "hit": false,
      "t": 58720.503291666624,
      "d": 210.85913333333156,
      "v": 95
    },
    {
      "midi": 74,
      "hit": false,
      "t": 58931.362424999956,
      "d": 293.69664999999804,
      "v": 74
    },
    {
      "midi": 72,
      "hit": false,
      "t": 59179.874974999955,
      "d": 259.80857500000275,
      "v": 84
    },
    {
      "midi": 70,
      "hit": false,
      "t": 59405.795474999955,
      "d": 237.21652500000346,
      "v": 82
    },
    {
      "midi": 75,
      "hit": false,
      "t": 59643.01199999996,
      "d": 237.21652500000346,
      "v": 72
    },
    {
      "midi": 63,
      "hit": false,
      "t": 59643.01199999996,
      "d": 606.22000833333,
      "v": 65
    },
    {
      "midi": 70,
      "hit": false,
      "t": 59868.93249999996,
      "d": 274.8699416666641,
      "v": 78
    },
    {
      "midi": 75,
      "hit": false,
      "t": 60094.85299999996,
      "d": 244.74720833332685,
      "v": 86
    },
    {
      "midi": 63,
      "hit": false,
      "t": 60320.77349999995,
      "d": 188.26708333333227,
      "v": 76
    },
    {
      "midi": 79,
      "hit": false,
      "t": 60320.77349999995,
      "d": 304.9926750000013,
      "v": 76
    },
    {
      "midi": 77,
      "hit": false,
      "t": 60546.69399999995,
      "d": 229.6858416666655,
      "v": 79
    },
    {
      "midi": 62,
      "hit": false,
      "t": 60546.69399999995,
      "d": 643.873424999998,
      "v": 69
    },
    {
      "midi": 70,
      "hit": false,
      "t": 60772.61449999995,
      "d": 248.51254999999946,
      "v": 73
    },
    {
      "midi": 74,
      "hit": false,
      "t": 60998.53499999995,
      "d": 233.45118333333085,
      "v": 62
    },
    {
      "midi": 62,
      "hit": false,
      "t": 61224.45549999995,
      "d": 210.85913333333156,
      "v": 78
    },
    {
      "midi": 77,
      "hit": false,
      "t": 61224.45549999995,
      "d": 225.92050000000017,
      "v": 78
    },
    {
      "midi": 75,
      "hit": false,
      "t": 61450.37599999995,
      "d": 229.6858416666655,
      "v": 75
    },
    {
      "midi": 60,
      "hit": false,
      "t": 61450.37599999995,
      "d": 1186.0826250000027,
      "v": 62
    },
    {
      "midi": 70,
      "hit": false,
      "t": 61676.29649999995,
      "d": 316.28869999999733,
      "v": 91
    },
    {
      "midi": 75,
      "hit": false,
      "t": 61902.21699999995,
      "d": 214.6244749999969,
      "v": 76
    },
    {
      "midi": 79,
      "hit": false,
      "t": 62128.13749999995,
      "d": 256.04323333333014,
      "v": 60
    },
    {
      "midi": 75,
      "hit": false,
      "t": 62354.05799999995,
      "d": 278.6352833333367,
      "v": 75
    },
    {
      "midi": 70,
      "hit": false,
      "t": 62579.978499999954,
      "d": 233.45118333333085,
      "v": 85
    },
    {
      "midi": 72,
      "hit": false,
      "t": 62805.898999999954,
      "d": 252.2778916666648,
      "v": 67
    },
    {
      "midi": 67,
      "hit": false,
      "t": 62805.898999999954,
      "d": 286.1659666666674,
      "v": 58
    },
    {
      "midi": 70,
      "hit": false,
      "t": 63031.819499999954,
      "d": 214.62447500000417,
      "v": 87
    },
    {
      "midi": 68,
      "hit": false,
      "t": 63257.73999999996,
      "d": 286.1659666666601,
      "v": 71
    },
    {
      "midi": 65,
      "hit": false,
      "t": 63257.73999999996,
      "d": 662.7001333333246,
      "v": 69
    },
    {
      "midi": 75,
      "hit": false,
      "t": 63472.36447499996,
      "d": 512.0864666666603,
      "v": 75
    },
    {
      "midi": 65,
      "hit": false,
      "t": 63950.562866666616,
      "d": 798.2524333333349,
      "v": 59
    },
    {
      "midi": 72,
      "hit": false,
      "t": 63961.85889166662,
      "d": 289.9313083333327,
      "v": 78
    },
    {
      "midi": 75,
      "hit": false,
      "t": 64165.18734166662,
      "d": 293.69664999999804,
      "v": 66
    },
    {
      "midi": 75,
      "hit": false,
      "t": 64635.855049999955,
      "d": 297.4619916666634,
      "v": 84
    },
    {
      "midi": 69,
      "hit": false,
      "t": 64839.18349999995,
      "d": 237.21652499999618,
      "v": 55
    },
    {
      "midi": 58,
      "hit": false,
      "t": 65065.10399999995,
      "d": 1491.0752999999968,
      "v": 67
    },
    {
      "midi": 72,
      "hit": false,
      "t": 65072.63468333328,
      "d": 233.45118333333085,
      "v": 86
    },
    {
      "midi": 74,
      "hit": false,
      "t": 65302.320524999945,
      "d": 237.21652499999618,
      "v": 76
    },
    {
      "midi": 72,
      "hit": false,
      "t": 65505.648974999945,
      "d": 210.85913333333156,
      "v": 75
    },
    {
      "midi": 70,
      "hit": false,
      "t": 65735.33481666661,
      "d": 233.45118333333812,
      "v": 77
    },
    {
      "midi": 72,
      "hit": false,
      "t": 65949.95929166662,
      "d": 210.85913333333156,
      "v": 95
    },
    {
      "midi": 74,
      "hit": false,
      "t": 66160.81842499995,
      "d": 293.69664999999804,
      "v": 74
    },
    {
      "midi": 72,
      "hit": false,
      "t": 66409.33097499995,
      "d": 259.80857500000275,
      "v": 84
    },
    {
      "midi": 75,
      "hit": false,
      "t": 66646.54749999994,
      "d": 237.21652500001073,
      "v": 72
    },
    {
      "midi": 63,
      "hit": false,
      "t": 66646.54749999994,
      "d": 606.2200083333591,
      "v": 65
    },
    {
      "midi": 70,
      "hit": false,
      "t": 66872.46799999995,
      "d": 274.86994166667864,
      "v": 78
    },
    {
      "midi": 75,
      "hit": false,
      "t": 67098.38849999996,
      "d": 244.7472083333414,
      "v": 86
    },
    {
      "midi": 63,
      "hit": false,
      "t": 67324.30899999996,
      "d": 188.26708333333954,
      "v": 76
    },
    {
      "midi": 79,
      "hit": false,
      "t": 67324.30899999996,
      "d": 304.9926750000013,
      "v": 76
    },
    {
      "midi": 77,
      "hit": false,
      "t": 67550.22949999997,
      "d": 229.6858416666655,
      "v": 79
    },
    {
      "midi": 62,
      "hit": false,
      "t": 67550.22949999997,
      "d": 643.8734250000125,
      "v": 69
    },
    {
      "midi": 70,
      "hit": false,
      "t": 67776.14999999997,
      "d": 248.51255000001402,
      "v": 73
    },
    {
      "midi": 74,
      "hit": false,
      "t": 68002.07049999997,
      "d": 233.45118333333812,
      "v": 62
    },
    {
      "midi": 62,
      "hit": false,
      "t": 68227.99099999998,
      "d": 210.85913333333156,
      "v": 78
    },
    {
      "midi": 77,
      "hit": false,
      "t": 68227.99099999998,
      "d": 225.9204999999929,
      "v": 78
    },
    {
      "midi": 75,
      "hit": false,
      "t": 68453.91149999997,
      "d": 229.6858416666655,
      "v": 75
    },
    {
      "midi": 60,
      "hit": false,
      "t": 68453.91149999997,
      "d": 1186.08262500001,
      "v": 62
    },
    {
      "midi": 70,
      "hit": false,
      "t": 68679.83199999997,
      "d": 316.2887000000046,
      "v": 91
    },
    {
      "midi": 75,
      "hit": false,
      "t": 68905.75249999997,
      "d": 214.62447500000417,
      "v": 76
    },
    {
      "midi": 79,
      "hit": false,
      "t": 69131.67299999998,
      "d": 256.04323333333014,
      "v": 60
    },
    {
      "midi": 75,
      "hit": false,
      "t": 69357.59349999997,
      "d": 278.6352833333367,
      "v": 75
    },
    {
      "midi": 70,
      "hit": false,
      "t": 69583.51399999998,
      "d": 233.45118333333812,
      "v": 85
    },
    {
      "midi": 72,
      "hit": false,
      "t": 69809.43449999999,
      "d": 252.27789166665752,
      "v": 67
    },
    {
      "midi": 67,
      "hit": false,
      "t": 69809.43449999999,
      "d": 286.1659666666528,
      "v": 58
    },
    {
      "midi": 70,
      "hit": false,
      "t": 70035.35499999998,
      "d": 214.62447499998962,
      "v": 87
    },
    {
      "midi": 67,
      "hit": false,
      "t": 70261.27549999997,
      "d": 252.27789166665752,
      "v": 67
    },
    {
      "midi": 65,
      "hit": false,
      "t": 70487.19599999997,
      "d": 700.3535499999853,
      "v": 78
    },
    {
      "midi": 53,
      "hit": false,
      "t": 70487.19599999997,
      "d": 1701.9344333333138,
      "v": 53
    },
    {
      "midi": 68,
      "hit": false,
      "t": 70942.80234166663,
      "d": 689.0575249999965,
      "v": 78
    },
    {
      "midi": 72,
      "hit": false,
      "t": 70950.33302499996,
      "d": 681.5268416666659,
      "v": 78
    },
    {
      "midi": 65,
      "hit": false,
      "t": 71390.87799999995,
      "d": 399.1262166666711,
      "v": 75
    },
    {
      "midi": 72,
      "hit": false,
      "t": 71835.18831666662,
      "d": 406.6568999999872,
      "v": 75
    },
    {
      "midi": 68,
      "hit": false,
      "t": 71842.71899999995,
      "d": 372.7688249999919,
      "v": 76
    },
    {
      "midi": 58,
      "hit": false,
      "t": 72294.55999999994,
      "d": 1701.9344333333138,
      "v": 53
    },
    {
      "midi": 72,
      "hit": false,
      "t": 72302.09068333327,
      "d": 233.45118333333812,
      "v": 86
    },
    {
      "midi": 74,
      "hit": false,
      "t": 72531.77652499994,
      "d": 237.21652499999618,
      "v": 76
    },
    {
      "midi": 72,
      "hit": false,
      "t": 72735.10497499994,
      "d": 210.85913333333156,
      "v": 75
    },
    {
      "midi": 70,
      "hit": false,
      "t": 72964.7908166666,
      "d": 233.45118333333812,
      "v": 77
    },
    {
      "midi": 72,
      "hit": false,
      "t": 73179.4152916666,
      "d": 210.85913333333156,
      "v": 95
    },
    {
      "midi": 74,
      "hit": false,
      "t": 73390.27442499994,
      "d": 293.69664999999804,
      "v": 74
    },
    {
      "midi": 72,
      "hit": false,
      "t": 73638.78697499994,
      "d": 259.8085749999882,
      "v": 84
    },
    {
      "midi": 70,
      "hit": false,
      "t": 73864.70747499993,
      "d": 237.21652499999618,
      "v": 82
    },
    {
      "midi": 75,
      "hit": false,
      "t": 74101.92399999993,
      "d": 237.21652499999618,
      "v": 72
    },
    {
      "midi": 63,
      "hit": false,
      "t": 74101.92399999993,
      "d": 606.2200083333446,
      "v": 65
    },
    {
      "midi": 70,
      "hit": false,
      "t": 74327.84449999992,
      "d": 274.86994166667864,
      "v": 78
    },
    {
      "midi": 75,
      "hit": false,
      "t": 74553.76499999993,
      "d": 244.7472083333414,
      "v": 86
    },
    {
      "midi": 63,
      "hit": false,
      "t": 74779.68549999993,
      "d": 188.26708333333954,
      "v": 76
    },
    {
      "midi": 79,
      "hit": false,
      "t": 74779.68549999993,
      "d": 304.9926750000013,
      "v": 76
    },
    {
      "midi": 77,
      "hit": false,
      "t": 75005.60599999994,
      "d": 229.6858416666655,
      "v": 79
    },
    {
      "midi": 62,
      "hit": false,
      "t": 75005.60599999994,
      "d": 643.8734250000125,
      "v": 69
    },
    {
      "midi": 70,
      "hit": false,
      "t": 75231.52649999993,
      "d": 248.51255000001402,
      "v": 73
    },
    {
      "midi": 74,
      "hit": false,
      "t": 75457.44699999994,
      "d": 233.45118333333812,
      "v": 62
    },
    {
      "midi": 62,
      "hit": false,
      "t": 75683.36749999995,
      "d": 210.85913333333156,
      "v": 78
    },
    {
      "midi": 77,
      "hit": false,
      "t": 75683.36749999995,
      "d": 225.9204999999929,
      "v": 78
    },
    {
      "midi": 75,
      "hit": false,
      "t": 75909.28799999994,
      "d": 229.6858416666655,
      "v": 75
    },
    {
      "midi": 60,
      "hit": false,
      "t": 75909.28799999994,
      "d": 1186.08262500001,
      "v": 62
    },
    {
      "midi": 70,
      "hit": false,
      "t": 76135.20849999994,
      "d": 316.2887000000046,
      "v": 91
    },
    {
      "midi": 75,
      "hit": false,
      "t": 76361.12899999994,
      "d": 214.62447500000417,
      "v": 76
    },
    {
      "midi": 79,
      "hit": false,
      "t": 76587.04949999995,
      "d": 256.04323333333014,
      "v": 60
    },
    {
      "midi": 75,
      "hit": false,
      "t": 76812.96999999994,
      "d": 278.6352833333367,
      "v": 75
    },
    {
      "midi": 70,
      "hit": false,
      "t": 77038.89049999995,
      "d": 233.45118333333812,
      "v": 85
    },
    {
      "midi": 67,
      "hit": false,
      "t": 77264.81099999996,
      "d": 286.1659666666528,
      "v": 58
    },
    {
      "midi": 72,
      "hit": false,
      "t": 77264.81099999996,
      "d": 361.47279999998864,
      "v": 67
    },
    {
      "midi": 70,
      "hit": false,
      "t": 77490.73149999995,
      "d": 214.62447499998962,
      "v": 87
    },
    {
      "midi": 68,
      "hit": false,
      "t": 77716.65199999994,
      "d": 286.1659666666674,
      "v": 71
    },
    {
      "midi": 65,
      "hit": false,
      "t": 77716.65199999994,
      "d": 662.7001333333319,
      "v": 69
    },
    {
      "midi": 75,
      "hit": false,
      "t": 77931.27647499995,
      "d": 512.0864666666748,
      "v": 75
    },
    {
      "midi": 65,
      "hit": false,
      "t": 78409.47486666661,
      "d": 798.2524333333567,
      "v": 59
    },
    {
      "midi": 72,
      "hit": false,
      "t": 78420.77089166662,
      "d": 289.93130833334,
      "v": 78
    },
    {
      "midi": 75,
      "hit": false,
      "t": 78624.09934166662,
      "d": 293.6966500000126,
      "v": 66
    },
    {
      "midi": 75,
      "hit": false,
      "t": 79094.76704999997,
      "d": 297.46199166667066,
      "v": 84
    },
    {
      "midi": 69,
      "hit": false,
      "t": 79298.09549999997,
      "d": 237.21652500001073,
      "v": 55
    },
    {
      "midi": 58,
      "hit": false,
      "t": 79524.01599999997,
      "d": 1701.9344333333138,
      "v": 67
    },
    {
      "midi": 72,
      "hit": false,
      "t": 79531.5466833333,
      "d": 233.45118333333812,
      "v": 86
    },
    {
      "midi": 74,
      "hit": false,
      "t": 79761.23252499997,
      "d": 237.21652499999618,
      "v": 76
    },
    {
      "midi": 72,
      "hit": false,
      "t": 79964.56097499997,
      "d": 210.85913333333156,
      "v": 75
    },
    {
      "midi": 70,
      "hit": false,
      "t": 80194.24681666664,
      "d": 233.45118333333812,
      "v": 77
    },
    {
      "midi": 72,
      "hit": false,
      "t": 80408.87129166664,
      "d": 210.85913333333156,
      "v": 95
    },
    {
      "midi": 74,
      "hit": false,
      "t": 80619.73042499997,
      "d": 293.69664999999804,
      "v": 74
    },
    {
      "midi": 72,
      "hit": false,
      "t": 80868.24297499997,
      "d": 259.8085749999882,
      "v": 84
    },
    {
      "midi": 70,
      "hit": false,
      "t": 81094.16347499996,
      "d": 237.21652499999618,
      "v": 82
    },
    {
      "midi": 75,
      "hit": false,
      "t": 81331.37999999996,
      "d": 237.21652499999618,
      "v": 72
    },
    {
      "midi": 63,
      "hit": false,
      "t": 81331.37999999996,
      "d": 606.2200083333446,
      "v": 65
    },
    {
      "midi": 70,
      "hit": false,
      "t": 81557.30049999995,
      "d": 274.86994166667864,
      "v": 78
    },
    {
      "midi": 75,
      "hit": false,
      "t": 81783.22099999996,
      "d": 244.7472083333414,
      "v": 86
    },
    {
      "midi": 63,
      "hit": false,
      "t": 82009.14149999997,
      "d": 188.26708333333954,
      "v": 76
    },
    {
      "midi": 79,
      "hit": false,
      "t": 82009.14149999997,
      "d": 304.9926750000013,
      "v": 76
    },
    {
      "midi": 77,
      "hit": false,
      "t": 82235.06199999998,
      "d": 229.6858416666655,
      "v": 79
    },
    {
      "midi": 62,
      "hit": false,
      "t": 82235.06199999998,
      "d": 643.8734250000125,
      "v": 69
    },
    {
      "midi": 70,
      "hit": false,
      "t": 82460.98249999997,
      "d": 248.51255000001402,
      "v": 73
    },
    {
      "midi": 74,
      "hit": false,
      "t": 82686.90299999998,
      "d": 233.45118333333812,
      "v": 62
    },
    {
      "midi": 62,
      "hit": false,
      "t": 82912.82349999998,
      "d": 210.85913333333156,
      "v": 78
    },
    {
      "midi": 77,
      "hit": false,
      "t": 82912.82349999998,
      "d": 225.9204999999929,
      "v": 78
    },
    {
      "midi": 75,
      "hit": false,
      "t": 83138.74399999998,
      "d": 229.6858416666655,
      "v": 75
    },
    {
      "midi": 60,
      "hit": false,
      "t": 83138.74399999998,
      "d": 1186.08262500001,
      "v": 62
    },
    {
      "midi": 70,
      "hit": false,
      "t": 83364.66449999997,
      "d": 316.2887000000046,
      "v": 91
    },
    {
      "midi": 75,
      "hit": false,
      "t": 83590.58499999998,
      "d": 214.62447500000417,
      "v": 76
    },
    {
      "midi": 79,
      "hit": false,
      "t": 83816.50549999998,
      "d": 256.04323333333014,
      "v": 60
    },
    {
      "midi": 75,
      "hit": false,
      "t": 84042.42599999998,
      "d": 278.6352833333367,
      "v": 75
    },
    {
      "midi": 70,
      "hit": false,
      "t": 84268.34649999999,
      "d": 233.45118333333812,
      "v": 85
    },
    {
      "midi": 72,
      "hit": false,
      "t": 84494.26699999999,
      "d": 252.27789166665752,
      "v": 67
    },
    {
      "midi": 67,
      "hit": false,
      "t": 84494.26699999999,
      "d": 286.1659666666528,
      "v": 58
    },
    {
      "midi": 70,
      "hit": false,
      "t": 84720.18749999999,
      "d": 214.62447499998962,
      "v": 87
    },
    {
      "midi": 68,
      "hit": false,
      "t": 84946.10799999998,
      "d": 286.1659666666674,
      "v": 71
    },
    {
      "midi": 65,
      "hit": false,
      "t": 84946.10799999998,
      "d": 662.7001333333319,
      "v": 69
    },
    {
      "midi": 75,
      "hit": false,
      "t": 85160.73247499998,
      "d": 512.0864666666748,
      "v": 75
    },
    {
      "midi": 65,
      "hit": false,
      "t": 85638.93086666665,
      "d": 798.2524333333567,
      "v": 59
    },
    {
      "midi": 72,
      "hit": false,
      "t": 85650.22689166665,
      "d": 289.93130833334,
      "v": 78
    },
    {
      "midi": 75,
      "hit": false,
      "t": 85853.55534166665,
      "d": 293.6966500000126,
      "v": 66
    },
    {
      "midi": 75,
      "hit": false,
      "t": 86324.22305,
      "d": 297.46199166667066,
      "v": 84
    },
    {
      "midi": 69,
      "hit": false,
      "t": 86527.5515,
      "d": 237.21652500001073,
      "v": 55
    },
    {
      "midi": 58,
      "hit": false,
      "t": 86753.47200000001,
      "d": 1701.9344333333138,
      "v": 67
    },
    {
      "midi": 72,
      "hit": false,
      "t": 86761.00268333334,
      "d": 233.45118333333812,
      "v": 86
    },
    {
      "midi": 74,
      "hit": false,
      "t": 86990.688525,
      "d": 237.21652499999618,
      "v": 76
    },
    {
      "midi": 72,
      "hit": false,
      "t": 87194.016975,
      "d": 210.85913333333156,
      "v": 75
    },
    {
      "midi": 70,
      "hit": false,
      "t": 87423.70281666667,
      "d": 233.45118333333812,
      "v": 77
    },
    {
      "midi": 72,
      "hit": false,
      "t": 87638.32729166668,
      "d": 210.85913333333156,
      "v": 95
    },
    {
      "midi": 74,
      "hit": false,
      "t": 87849.186425,
      "d": 293.69664999999804,
      "v": 74
    },
    {
      "midi": 72,
      "hit": false,
      "t": 88097.698975,
      "d": 259.8085749999882,
      "v": 84
    },
    {
      "midi": 70,
      "hit": false,
      "t": 88323.619475,
      "d": 237.21652499999618,
      "v": 82
    },
    {
      "midi": 75,
      "hit": false,
      "t": 88560.836,
      "d": 237.21652499999618,
      "v": 72
    },
    {
      "midi": 63,
      "hit": false,
      "t": 88560.836,
      "d": 606.2200083333446,
      "v": 65
    },
    {
      "midi": 70,
      "hit": false,
      "t": 88786.75649999999,
      "d": 274.86994166667864,
      "v": 78
    },
    {
      "midi": 75,
      "hit": false,
      "t": 89012.677,
      "d": 244.7472083333414,
      "v": 86
    },
    {
      "midi": 63,
      "hit": false,
      "t": 89238.5975,
      "d": 188.26708333333954,
      "v": 76
    },
    {
      "midi": 79,
      "hit": false,
      "t": 89238.5975,
      "d": 304.9926750000013,
      "v": 76
    },
    {
      "midi": 77,
      "hit": false,
      "t": 89464.51800000001,
      "d": 229.6858416666655,
      "v": 79
    },
    {
      "midi": 62,
      "hit": false,
      "t": 89464.51800000001,
      "d": 643.8734250000125,
      "v": 69
    },
    {
      "midi": 70,
      "hit": false,
      "t": 89690.4385,
      "d": 248.51255000001402,
      "v": 73
    },
    {
      "midi": 74,
      "hit": false,
      "t": 89916.35900000001,
      "d": 233.45118333333812,
      "v": 62
    },
    {
      "midi": 62,
      "hit": false,
      "t": 90142.27950000002,
      "d": 210.85913333333156,
      "v": 78
    },
    {
      "midi": 77,
      "hit": false,
      "t": 90142.27950000002,
      "d": 225.9204999999929,
      "v": 78
    },
    {
      "midi": 75,
      "hit": false,
      "t": 90368.20000000001,
      "d": 229.6858416666655,
      "v": 75
    },
    {
      "midi": 60,
      "hit": false,
      "t": 90368.20000000001,
      "d": 1186.08262500001,
      "v": 62
    },
    {
      "midi": 70,
      "hit": false,
      "t": 90594.1205,
      "d": 316.2887000000046,
      "v": 91
    },
    {
      "midi": 75,
      "hit": false,
      "t": 90820.04100000001,
      "d": 214.62447500000417,
      "v": 76
    },
    {
      "midi": 79,
      "hit": false,
      "t": 91045.96150000002,
      "d": 256.04323333333014,
      "v": 60
    },
    {
      "midi": 75,
      "hit": false,
      "t": 91271.88200000001,
      "d": 278.6352833333367,
      "v": 75
    },
    {
      "midi": 70,
      "hit": false,
      "t": 91497.80250000002,
      "d": 233.45118333333812,
      "v": 85
    },
    {
      "midi": 72,
      "hit": false,
      "t": 91723.72300000003,
      "d": 252.27789166665752,
      "v": 67
    },
    {
      "midi": 67,
      "hit": false,
      "t": 91723.72300000003,
      "d": 286.1659666666528,
      "v": 58
    },
    {
      "midi": 70,
      "hit": false,
      "t": 91949.64350000002,
      "d": 214.62447499998962,
      "v": 87
    },
    {
      "midi": 68,
      "hit": false,
      "t": 92175.56400000001,
      "d": 286.1659666666674,
      "v": 71
    },
    {
      "midi": 65,
      "hit": false,
      "t": 92175.56400000001,
      "d": 662.7001333333319,
      "v": 69
    },
    {
      "midi": 75,
      "hit": false,
      "t": 92390.18847500002,
      "d": 512.0864666666748,
      "v": 75
    },
    {
      "midi": 65,
      "hit": false,
      "t": 92868.38686666668,
      "d": 798.2524333333567,
      "v": 59
    },
    {
      "midi": 72,
      "hit": false,
      "t": 92879.68289166669,
      "d": 289.93130833334,
      "v": 78
    },
    {
      "midi": 75,
      "hit": false,
      "t": 93083.01134166669,
      "d": 293.6966500000126,
      "v": 66
    },
    {
      "midi": 75,
      "hit": false,
      "t": 93553.67905000004,
      "d": 297.46199166667066,
      "v": 84
    },
    {
      "midi": 69,
      "hit": false,
      "t": 93757.00750000004,
      "d": 237.21652500001073,
      "v": 55
    },
    {
      "midi": 58,
      "hit": false,
      "t": 93982.92800000004,
      "d": 1491.0752999999968,
      "v": 67
    },
    {
      "midi": 72,
      "hit": false,
      "t": 93990.45868333337,
      "d": 233.45118333333812,
      "v": 86
    },
    {
      "midi": 74,
      "hit": false,
      "t": 94220.14452500004,
      "d": 237.21652499999618,
      "v": 76
    },
    {
      "midi": 72,
      "hit": false,
      "t": 94423.47297500004,
      "d": 210.85913333333156,
      "v": 75
    },
    {
      "midi": 70,
      "hit": false,
      "t": 94653.1588166667,
      "d": 233.45118333333812,
      "v": 77
    },
    {
      "midi": 72,
      "hit": false,
      "t": 94867.78329166671,
      "d": 210.85913333333156,
      "v": 95
    },
    {
      "midi": 74,
      "hit": false,
      "t": 95078.64242500004,
      "d": 293.69664999999804,
      "v": 74
    },
    {
      "midi": 72,
      "hit": false,
      "t": 95327.15497500004,
      "d": 259.80857500000275,
      "v": 84
    },
    {
      "midi": 75,
      "hit": false,
      "t": 95564.37150000004,
      "d": 237.21652500001073,
      "v": 72
    },
    {
      "midi": 63,
      "hit": false,
      "t": 95564.37150000004,
      "d": 606.2200083333591,
      "v": 65
    },
    {
      "midi": 70,
      "hit": false,
      "t": 95790.29200000004,
      "d": 274.86994166667864,
      "v": 78
    },
    {
      "midi": 75,
      "hit": false,
      "t": 96016.21250000005,
      "d": 244.7472083333414,
      "v": 86
    },
    {
      "midi": 63,
      "hit": false,
      "t": 96242.13300000006,
      "d": 188.26708333333954,
      "v": 76
    },
    {
      "midi": 79,
      "hit": false,
      "t": 96242.13300000006,
      "d": 304.9926750000013,
      "v": 76
    },
    {
      "midi": 77,
      "hit": false,
      "t": 96468.05350000007,
      "d": 229.6858416666655,
      "v": 79
    },
    {
      "midi": 62,
      "hit": false,
      "t": 96468.05350000007,
      "d": 643.8734250000125,
      "v": 69
    },
    {
      "midi": 70,
      "hit": false,
      "t": 96693.97400000006,
      "d": 248.51255000001402,
      "v": 73
    },
    {
      "midi": 74,
      "hit": false,
      "t": 96919.89450000007,
      "d": 233.45118333333812,
      "v": 62
    },
    {
      "midi": 62,
      "hit": false,
      "t": 97145.81500000008,
      "d": 210.85913333333156,
      "v": 78
    },
    {
      "midi": 77,
      "hit": false,
      "t": 97145.81500000008,
      "d": 225.9204999999929,
      "v": 78
    },
    {
      "midi": 75,
      "hit": false,
      "t": 97371.73550000007,
      "d": 229.6858416666655,
      "v": 75
    },
    {
      "midi": 60,
      "hit": false,
      "t": 97371.73550000007,
      "d": 1186.08262500001,
      "v": 62
    },
    {
      "midi": 70,
      "hit": false,
      "t": 97597.65600000006,
      "d": 316.2887000000046,
      "v": 91
    },
    {
      "midi": 75,
      "hit": false,
      "t": 97823.57650000007,
      "d": 214.62447500000417,
      "v": 76
    },
    {
      "midi": 79,
      "hit": false,
      "t": 98049.49700000008,
      "d": 256.04323333333014,
      "v": 60
    },
    {
      "midi": 75,
      "hit": false,
      "t": 98275.41750000007,
      "d": 278.6352833333367,
      "v": 75
    },
    {
      "midi": 70,
      "hit": false,
      "t": 98501.33800000008,
      "d": 233.45118333333812,
      "v": 85
    },
    {
      "midi": 72,
      "hit": false,
      "t": 98727.25850000008,
      "d": 252.27789166665752,
      "v": 67
    },
    {
      "midi": 67,
      "hit": false,
      "t": 98727.25850000008,
      "d": 286.1659666666528,
      "v": 58
    },
    {
      "midi": 70,
      "hit": false,
      "t": 98953.17900000008,
      "d": 214.62447499998962,
      "v": 87
    },
    {
      "midi": 67,
      "hit": false,
      "t": 99179.09950000007,
      "d": 252.27789166667208,
      "v": 67
    },
    {
      "midi": 53,
      "hit": false,
      "t": 99405.02000000006,
      "d": 1701.9344333333574,
      "v": 53
    },
    {
      "midi": 68,
      "hit": false,
      "t": 99408.78534166673,
      "d": 173.2057166666782,
      "v": 78
    },
    {
      "midi": 68,
      "hit": false,
      "t": 99642.23652500007,
      "d": 722.9456000000064,
      "v": 50
    },
    {
      "midi": 65,
      "hit": false,
      "t": 99856.86100000008,
      "d": 700.3535499999998,
      "v": 78
    },
    {
      "midi": 72,
      "hit": false,
      "t": 99868.15702500008,
      "d": 681.5268416666659,
      "v": 78
    },
    {
      "midi": 68,
      "hit": false,
      "t": 100549.68386666675,
      "d": 372.7688250000065,
      "v": 60
    },
    {
      "midi": 65,
      "hit": false,
      "t": 100745.48163333342,
      "d": 399.1262166666711,
      "v": 75
    },
    {
      "midi": 72,
      "hit": false,
      "t": 100753.01231666675,
      "d": 406.65690000000177,
      "v": 75
    },
    {
      "midi": 58,
      "hit": false,
      "t": 101212.38400000008,
      "d": 1701.9344333333138,
      "v": 53
    },
    {
      "midi": 72,
      "hit": false,
      "t": 101219.91468333341,
      "d": 233.45118333333812,
      "v": 86
    },
    {
      "midi": 74,
      "hit": false,
      "t": 101449.60052500007,
      "d": 237.21652499999618,
      "v": 76
    },
    {
      "midi": 72,
      "hit": false,
      "t": 101652.92897500008,
      "d": 210.85913333333156,
      "v": 75
    },
    {
      "midi": 70,
      "hit": false,
      "t": 101882.61481666674,
      "d": 233.45118333333812,
      "v": 77
    },
    {
      "midi": 72,
      "hit": false,
      "t": 102097.23929166674,
      "d": 210.85913333333156,
      "v": 95
    },
    {
      "midi": 74,
      "hit": false,
      "t": 102308.09842500008,
      "d": 293.69664999999804,
      "v": 74
    },
    {
      "midi": 72,
      "hit": false,
      "t": 102556.61097500008,
      "d": 259.8085749999882,
      "v": 84
    },
    {
      "midi": 70,
      "hit": false,
      "t": 102782.53147500007,
      "d": 237.21652499999618,
      "v": 82
    },
    {
      "midi": 75,
      "hit": false,
      "t": 103019.74800000007,
      "d": 237.21652499999618,
      "v": 72
    },
    {
      "midi": 63,
      "hit": false,
      "t": 103019.74800000007,
      "d": 606.2200083333446,
      "v": 65
    },
    {
      "midi": 70,
      "hit": false,
      "t": 103245.66850000006,
      "d": 274.86994166667864,
      "v": 78
    },
    {
      "midi": 75,
      "hit": false,
      "t": 103471.58900000007,
      "d": 244.7472083333414,
      "v": 86
    },
    {
      "midi": 63,
      "hit": false,
      "t": 103697.50950000007,
      "d": 188.26708333333954,
      "v": 76
    },
    {
      "midi": 79,
      "hit": false,
      "t": 103697.50950000007,
      "d": 304.9926750000013,
      "v": 76
    },
    {
      "midi": 77,
      "hit": false,
      "t": 103923.43000000008,
      "d": 229.6858416666655,
      "v": 79
    },
    {
      "midi": 62,
      "hit": false,
      "t": 103923.43000000008,
      "d": 643.8734250000125,
      "v": 69
    },
    {
      "midi": 70,
      "hit": false,
      "t": 104149.35050000007,
      "d": 248.51255000001402,
      "v": 73
    },
    {
      "midi": 74,
      "hit": false,
      "t": 104375.27100000008,
      "d": 233.45118333333812,
      "v": 62
    },
    {
      "midi": 62,
      "hit": false,
      "t": 104601.19150000009,
      "d": 210.85913333333156,
      "v": 78
    },
    {
      "midi": 77,
      "hit": false,
      "t": 104601.19150000009,
      "d": 225.9204999999929,
      "v": 78
    },
    {
      "midi": 75,
      "hit": false,
      "t": 104827.11200000008,
      "d": 229.6858416666655,
      "v": 75
    },
    {
      "midi": 60,
      "hit": false,
      "t": 104827.11200000008,
      "d": 1186.08262500001,
      "v": 62
    },
    {
      "midi": 70,
      "hit": false,
      "t": 105053.03250000007,
      "d": 316.2887000000046,
      "v": 91
    },
    {
      "midi": 75,
      "hit": false,
      "t": 105278.95300000008,
      "d": 214.62447500000417,
      "v": 76
    },
    {
      "midi": 79,
      "hit": false,
      "t": 105504.87350000009,
      "d": 256.04323333333014,
      "v": 60
    },
    {
      "midi": 75,
      "hit": false,
      "t": 105730.79400000008,
      "d": 278.6352833333367,
      "v": 75
    },
    {
      "midi": 70,
      "hit": false,
      "t": 105956.71450000009,
      "d": 233.45118333333812,
      "v": 85
    },
    {
      "midi": 67,
      "hit": false,
      "t": 106182.6350000001,
      "d": 286.1659666666528,
      "v": 58
    },
    {
      "midi": 72,
      "hit": false,
      "t": 106182.6350000001,
      "d": 361.47279999998864,
      "v": 67
    },
    {
      "midi": 70,
      "hit": false,
      "t": 106408.55550000009,
      "d": 214.62447499998962,
      "v": 87
    },
    {
      "midi": 68,
      "hit": false,
      "t": 106634.47600000008,
      "d": 286.1659666666674,
      "v": 71
    },
    {
      "midi": 65,
      "hit": false,
      "t": 106634.47600000008,
      "d": 662.7001333333319,
      "v": 69
    },
    {
      "midi": 75,
      "hit": false,
      "t": 106849.10047500009,
      "d": 512.0864666666748,
      "v": 75
    },
    {
      "midi": 65,
      "hit": false,
      "t": 107327.29886666675,
      "d": 798.2524333333567,
      "v": 59
    },
    {
      "midi": 72,
      "hit": false,
      "t": 107338.59489166675,
      "d": 289.93130833334,
      "v": 78
    },
    {
      "midi": 75,
      "hit": false,
      "t": 107541.92334166676,
      "d": 293.6966500000126,
      "v": 66
    },
    {
      "midi": 75,
      "hit": false,
      "t": 108012.5910500001,
      "d": 297.46199166667066,
      "v": 84
    },
    {
      "midi": 69,
      "hit": false,
      "t": 108215.9195000001,
      "d": 237.21652500001073,
      "v": 55
    },
    {
      "midi": 58,
      "hit": false,
      "t": 108441.84000000011,
      "d": 1701.9344333333138,
      "v": 67
    },
    {
      "midi": 72,
      "hit": false,
      "t": 108449.37068333344,
      "d": 233.45118333333812,
      "v": 86
    },
    {
      "midi": 74,
      "hit": false,
      "t": 108679.05652500011,
      "d": 237.21652499999618,
      "v": 76
    },
    {
      "midi": 72,
      "hit": false,
      "t": 108882.38497500011,
      "d": 210.85913333333156,
      "v": 75
    },
    {
      "midi": 70,
      "hit": false,
      "t": 109112.07081666678,
      "d": 233.45118333333812,
      "v": 77
    },
    {
      "midi": 72,
      "hit": false,
      "t": 109326.69529166678,
      "d": 210.85913333333156,
      "v": 95
    },
    {
      "midi": 74,
      "hit": false,
      "t": 109537.55442500011,
      "d": 293.69664999999804,
      "v": 74
    },
    {
      "midi": 72,
      "hit": false,
      "t": 109786.06697500011,
      "d": 259.8085749999882,
      "v": 84
    },
    {
      "midi": 70,
      "hit": false,
      "t": 110011.9874750001,
      "d": 237.21652499999618,
      "v": 82
    },
    {
      "midi": 75,
      "hit": false,
      "t": 110249.2040000001,
      "d": 237.21652499999618,
      "v": 72
    },
    {
      "midi": 63,
      "hit": false,
      "t": 110249.2040000001,
      "d": 606.2200083333446,
      "v": 65
    },
    {
      "midi": 70,
      "hit": false,
      "t": 110475.12450000009,
      "d": 274.86994166667864,
      "v": 78
    },
    {
      "midi": 75,
      "hit": false,
      "t": 110701.0450000001,
      "d": 244.7472083333414,
      "v": 86
    },
    {
      "midi": 63,
      "hit": false,
      "t": 110926.96550000011,
      "d": 188.26708333333954,
      "v": 76
    },
    {
      "midi": 79,
      "hit": false,
      "t": 110926.96550000011,
      "d": 304.9926750000013,
      "v": 76
    },
    {
      "midi": 77,
      "hit": false,
      "t": 111152.88600000012,
      "d": 229.6858416666655,
      "v": 79
    },
    {
      "midi": 62,
      "hit": false,
      "t": 111152.88600000012,
      "d": 643.8734250000125,
      "v": 69
    },
    {
      "midi": 70,
      "hit": false,
      "t": 111378.80650000011,
      "d": 248.51255000001402,
      "v": 73
    },
    {
      "midi": 74,
      "hit": false,
      "t": 111604.72700000012,
      "d": 233.45118333333812,
      "v": 62
    },
    {
      "midi": 62,
      "hit": false,
      "t": 111830.64750000012,
      "d": 210.85913333333156,
      "v": 78
    },
    {
      "midi": 77,
      "hit": false,
      "t": 111830.64750000012,
      "d": 225.9204999999929,
      "v": 78
    },
    {
      "midi": 75,
      "hit": false,
      "t": 112056.56800000012,
      "d": 907.4473416666733,
      "v": 75
    },
    {
      "midi": 60,
      "hit": false,
      "t": 112056.56800000012,
      "d": 922.5087083333347,
      "v": 62
    },
    {
      "midi": 72,
      "hit": false,
      "t": 112060.33334166679,
      "d": 903.6820000000007,
      "v": 62
    },
    {
      "midi": 67,
      "hit": false,
      "t": 112060.33334166679,
      "d": 933.8047333333234,
      "v": 62
    },
    {
      "midi": 65,
      "hit": false,
      "t": 113863.93200000012,
      "d": 331.35006666666595,
      "v": 45
    },
    {
      "midi": 53,
      "hit": false,
      "t": 113863.93200000012,
      "d": 1701.9344333333283,
      "v": 53
    },
    {
      "midi": 68,
      "hit": false,
      "t": 114078.55647500012,
      "d": 689.0575249999965,
      "v": 78
    },
    {
      "midi": 65,
      "hit": false,
      "t": 114315.77300000012,
      "d": 391.5955333333404,
      "v": 78
    },
    {
      "midi": 72,
      "hit": false,
      "t": 114327.06902500012,
      "d": 681.5268416666659,
      "v": 78
    },
    {
      "midi": 65,
      "hit": false,
      "t": 114767.61400000012,
      "d": 391.5955333333404,
      "v": 78
    },
    {
      "midi": 65,
      "hit": false,
      "t": 115204.39363333346,
      "d": 399.12621666665655,
      "v": 75
    },
    {
      "midi": 72,
      "hit": false,
      "t": 115211.92431666679,
      "d": 406.6568999999872,
      "v": 75
    },
    {
      "midi": 68,
      "hit": false,
      "t": 115219.45500000012,
      "d": 372.7688249999919,
      "v": 76
    },
    {
      "midi": 58,
      "hit": false,
      "t": 115671.2960000001,
      "d": 1701.9344333333138,
      "v": 53
    },
    {
      "midi": 72,
      "hit": false,
      "t": 115678.82668333343,
      "d": 233.45118333333812,
      "v": 86
    },
    {
      "midi": 74,
      "hit": false,
      "t": 115908.5125250001,
      "d": 237.21652499999618,
      "v": 76
    },
    {
      "midi": 72,
      "hit": false,
      "t": 116111.8409750001,
      "d": 210.85913333333156,
      "v": 75
    },
    {
      "midi": 70,
      "hit": false,
      "t": 116341.52681666677,
      "d": 233.45118333333812,
      "v": 77
    },
    {
      "midi": 72,
      "hit": false,
      "t": 116556.15129166677,
      "d": 210.85913333333156,
      "v": 95
    },
    {
      "midi": 74,
      "hit": false,
      "t": 116767.0104250001,
      "d": 293.69664999999804,
      "v": 74
    },
    {
      "midi": 72,
      "hit": false,
      "t": 117015.5229750001,
      "d": 259.8085749999882,
      "v": 84
    },
    {
      "midi": 70,
      "hit": false,
      "t": 117241.4434750001,
      "d": 237.21652499999618,
      "v": 82
    },
    {
      "midi": 75,
      "hit": false,
      "t": 117478.66000000009,
      "d": 237.21652499999618,
      "v": 72
    },
    {
      "midi": 63,
      "hit": false,
      "t": 117478.66000000009,
      "d": 606.2200083333446,
      "v": 65
    },
    {
      "midi": 70,
      "hit": false,
      "t": 117704.58050000008,
      "d": 274.86994166667864,
      "v": 78
    },
    {
      "midi": 75,
      "hit": false,
      "t": 117930.50100000009,
      "d": 244.7472083333414,
      "v": 86
    },
    {
      "midi": 63,
      "hit": false,
      "t": 118156.4215000001,
      "d": 188.26708333333954,
      "v": 76
    },
    {
      "midi": 79,
      "hit": false,
      "t": 118156.4215000001,
      "d": 304.9926750000013,
      "v": 76
    },
    {
      "midi": 77,
      "hit": false,
      "t": 118382.3420000001,
      "d": 229.6858416666655,
      "v": 79
    },
    {
      "midi": 62,
      "hit": false,
      "t": 118382.3420000001,
      "d": 643.8734250000125,
      "v": 69
    },
    {
      "midi": 70,
      "hit": false,
      "t": 118608.2625000001,
      "d": 248.51255000001402,
      "v": 73
    },
    {
      "midi": 74,
      "hit": false,
      "t": 118834.1830000001,
      "d": 233.45118333333812,
      "v": 62
    },
    {
      "midi": 62,
      "hit": false,
      "t": 119060.10350000011,
      "d": 210.85913333333156,
      "v": 78
    },
    {
      "midi": 77,
      "hit": false,
      "t": 119060.10350000011,
      "d": 225.9204999999929,
      "v": 78
    },
    {
      "midi": 75,
      "hit": false,
      "t": 119286.0240000001,
      "d": 229.6858416666655,
      "v": 75
    },
    {
      "midi": 60,
      "hit": false,
      "t": 119286.0240000001,
      "d": 1186.08262500001,
      "v": 62
    },
    {
      "midi": 70,
      "hit": false,
      "t": 119511.9445000001,
      "d": 316.2887000000046,
      "v": 91
    },
    {
      "midi": 75,
      "hit": false,
      "t": 119737.8650000001,
      "d": 214.62447500000417,
      "v": 76
    },
    {
      "midi": 79,
      "hit": false,
      "t": 119963.78550000011,
      "d": 256.04323333333014,
      "v": 60
    },
    {
      "midi": 75,
      "hit": false,
      "t": 120189.70600000011,
      "d": 278.6352833333367,
      "v": 75
    },
    {
      "midi": 70,
      "hit": false,
      "t": 120415.62650000011,
      "d": 233.45118333333812,
      "v": 85
    },
    {
      "midi": 67,
      "hit": false,
      "t": 120641.54700000012,
      "d": 286.1659666666528,
      "v": 58
    },
    {
      "midi": 72,
      "hit": false,
      "t": 120641.54700000012,
      "d": 361.47279999998864,
      "v": 67
    },
    {
      "midi": 70,
      "hit": false,
      "t": 120867.46750000012,
      "d": 214.62447499998962,
      "v": 87
    },
    {
      "midi": 68,
      "hit": false,
      "t": 121093.38800000011,
      "d": 286.1659666666674,
      "v": 71
    },
    {
      "midi": 65,
      "hit": false,
      "t": 121093.38800000011,
      "d": 662.7001333333319,
      "v": 69
    },
    {
      "midi": 75,
      "hit": false,
      "t": 121308.01247500011,
      "d": 512.0864666666748,
      "v": 75
    },
    {
      "midi": 65,
      "hit": false,
      "t": 121786.21086666678,
      "d": 798.2524333333567,
      "v": 59
    },
    {
      "midi": 72,
      "hit": false,
      "t": 121797.50689166678,
      "d": 289.93130833334,
      "v": 78
    },
    {
      "midi": 75,
      "hit": false,
      "t": 122000.83534166678,
      "d": 293.6966500000126,
      "v": 66
    },
    {
      "midi": 75,
      "hit": false,
      "t": 122471.50305000013,
      "d": 297.46199166667066,
      "v": 84
    },
    {
      "midi": 69,
      "hit": false,
      "t": 122674.83150000013,
      "d": 237.21652500001073,
      "v": 55
    },
    {
      "midi": 58,
      "hit": false,
      "t": 122900.75200000014,
      "d": 1701.9344333333138,
      "v": 67
    },
    {
      "midi": 72,
      "hit": false,
      "t": 122908.28268333347,
      "d": 233.45118333333812,
      "v": 86
    },
    {
      "midi": 74,
      "hit": false,
      "t": 123137.96852500013,
      "d": 237.21652499999618,
      "v": 76
    },
    {
      "midi": 72,
      "hit": false,
      "t": 123341.29697500014,
      "d": 210.85913333333156,
      "v": 75
    },
    {
      "midi": 70,
      "hit": false,
      "t": 123570.9828166668,
      "d": 233.45118333333812,
      "v": 77
    },
    {
      "midi": 72,
      "hit": false,
      "t": 123785.6072916668,
      "d": 210.85913333333156,
      "v": 95
    },
    {
      "midi": 74,
      "hit": false,
      "t": 123996.46642500014,
      "d": 293.69664999999804,
      "v": 74
    },
    {
      "midi": 72,
      "hit": false,
      "t": 124244.97897500014,
      "d": 259.8085749999882,
      "v": 84
    },
    {
      "midi": 70,
      "hit": false,
      "t": 124470.89947500013,
      "d": 237.21652499999618,
      "v": 82
    },
    {
      "midi": 75,
      "hit": false,
      "t": 124708.11600000013,
      "d": 237.21652499999618,
      "v": 72
    },
    {
      "midi": 63,
      "hit": false,
      "t": 124708.11600000013,
      "d": 606.2200083333446,
      "v": 65
    },
    {
      "midi": 70,
      "hit": false,
      "t": 124934.03650000012,
      "d": 274.86994166667864,
      "v": 78
    },
    {
      "midi": 75,
      "hit": false,
      "t": 125159.95700000013,
      "d": 244.7472083333414,
      "v": 86
    },
    {
      "midi": 63,
      "hit": false,
      "t": 125385.87750000013,
      "d": 188.26708333333954,
      "v": 76
    },
    {
      "midi": 79,
      "hit": false,
      "t": 125385.87750000013,
      "d": 304.9926750000013,
      "v": 76
    },
    {
      "midi": 77,
      "hit": false,
      "t": 125611.79800000014,
      "d": 229.6858416666655,
      "v": 79
    },
    {
      "midi": 62,
      "hit": false,
      "t": 125611.79800000014,
      "d": 643.8734250000125,
      "v": 69
    },
    {
      "midi": 70,
      "hit": false,
      "t": 125837.71850000013,
      "d": 248.51255000001402,
      "v": 73
    },
    {
      "midi": 74,
      "hit": false,
      "t": 126063.63900000014,
      "d": 233.45118333333812,
      "v": 62
    },
    {
      "midi": 62,
      "hit": false,
      "t": 126289.55950000015,
      "d": 210.85913333333156,
      "v": 78
    },
    {
      "midi": 77,
      "hit": false,
      "t": 126289.55950000015,
      "d": 225.9204999999929,
      "v": 78
    },
    {
      "midi": 75,
      "hit": false,
      "t": 126515.48000000014,
      "d": 229.6858416666655,
      "v": 75
    },
    {
      "midi": 60,
      "hit": false,
      "t": 126515.48000000014,
      "d": 1186.08262500001,
      "v": 62
    },
    {
      "midi": 70,
      "hit": false,
      "t": 126741.40050000013,
      "d": 316.2887000000046,
      "v": 91
    },
    {
      "midi": 75,
      "hit": false,
      "t": 126967.32100000014,
      "d": 214.62447500000417,
      "v": 76
    },
    {
      "midi": 79,
      "hit": false,
      "t": 127193.24150000015,
      "d": 256.04323333333014,
      "v": 60
    },
    {
      "midi": 75,
      "hit": false,
      "t": 127419.16200000014,
      "d": 278.6352833333367,
      "v": 75
    },
    {
      "midi": 70,
      "hit": false,
      "t": 127645.08250000015,
      "d": 233.45118333333812,
      "v": 85
    },
    {
      "midi": 72,
      "hit": false,
      "t": 127871.00300000016,
      "d": 252.27789166665752,
      "v": 67
    },
    {
      "midi": 67,
      "hit": false,
      "t": 127871.00300000016,
      "d": 286.1659666666528,
      "v": 58
    },
    {
      "midi": 70,
      "hit": false,
      "t": 128096.92350000015,
      "d": 214.62447499998962,
      "v": 87
    },
    {
      "midi": 68,
      "hit": false,
      "t": 128322.84400000014,
      "d": 286.1659666666674,
      "v": 71
    },
    {
      "midi": 65,
      "hit": false,
      "t": 128322.84400000014,
      "d": 662.7001333333319,
      "v": 69
    },
    {
      "midi": 75,
      "hit": false,
      "t": 128537.46847500015,
      "d": 512.0864666666748,
      "v": 75
    },
    {
      "midi": 65,
      "hit": false,
      "t": 129015.66686666681,
      "d": 798.2524333333567,
      "v": 59
    },
    {
      "midi": 72,
      "hit": false,
      "t": 129026.96289166682,
      "d": 289.93130833334,
      "v": 78
    },
    {
      "midi": 75,
      "hit": false,
      "t": 129230.29134166682,
      "d": 293.6966500000126,
      "v": 66
    },
    {
      "midi": 75,
      "hit": false,
      "t": 129700.95905000017,
      "d": 297.46199166667066,
      "v": 84
    },
    {
      "midi": 69,
      "hit": false,
      "t": 129904.28750000017,
      "d": 237.21652500001073,
      "v": 55
    },
    {
      "midi": 58,
      "hit": false,
      "t": 130130.20800000017,
      "d": 1701.9344333333574,
      "v": 67
    },
    {
      "midi": 72,
      "hit": false,
      "t": 130137.7386833335,
      "d": 233.45118333333812,
      "v": 86
    },
    {
      "midi": 74,
      "hit": false,
      "t": 130367.42452500017,
      "d": 237.21652499999618,
      "v": 76
    },
    {
      "midi": 72,
      "hit": false,
      "t": 130570.75297500017,
      "d": 210.85913333333156,
      "v": 75
    },
    {
      "midi": 70,
      "hit": false,
      "t": 130800.43881666684,
      "d": 233.45118333333812,
      "v": 77
    },
    {
      "midi": 72,
      "hit": false,
      "t": 131015.06329166684,
      "d": 210.85913333333156,
      "v": 95
    },
    {
      "midi": 74,
      "hit": false,
      "t": 131225.92242500017,
      "d": 293.69665000002715,
      "v": 74
    },
    {
      "midi": 72,
      "hit": false,
      "t": 131474.4349750002,
      "d": 259.80857500000275,
      "v": 84
    },
    {
      "midi": 70,
      "hit": false,
      "t": 131700.3554750002,
      "d": 237.21652499999618,
      "v": 82
    },
    {
      "midi": 75,
      "hit": false,
      "t": 131937.5720000002,
      "d": 237.21652499999618,
      "v": 72
    },
    {
      "midi": 63,
      "hit": false,
      "t": 131937.5720000002,
      "d": 606.2200083333009,
      "v": 65
    },
    {
      "midi": 70,
      "hit": false,
      "t": 132163.4925000002,
      "d": 274.869941666635,
      "v": 78
    },
    {
      "midi": 75,
      "hit": false,
      "t": 132389.41300000018,
      "d": 244.7472083333123,
      "v": 86
    },
    {
      "midi": 63,
      "hit": false,
      "t": 132615.33350000015,
      "d": 188.26708333333954,
      "v": 76
    },
    {
      "midi": 79,
      "hit": false,
      "t": 132615.33350000015,
      "d": 304.9926750000159,
      "v": 76
    },
    {
      "midi": 77,
      "hit": false,
      "t": 132841.25400000016,
      "d": 229.68584166668006,
      "v": 79
    },
    {
      "midi": 62,
      "hit": false,
      "t": 132841.25400000016,
      "d": 643.873425000027,
      "v": 69
    },
    {
      "midi": 70,
      "hit": false,
      "t": 133067.17450000017,
      "d": 248.51255000001402,
      "v": 73
    },
    {
      "midi": 74,
      "hit": false,
      "t": 133293.09500000018,
      "d": 233.45118333335267,
      "v": 62
    },
    {
      "midi": 62,
      "hit": false,
      "t": 133519.01550000018,
      "d": 210.8591333333461,
      "v": 78
    },
    {
      "midi": 77,
      "hit": false,
      "t": 133519.01550000018,
      "d": 225.92050000000745,
      "v": 78
    },
    {
      "midi": 75,
      "hit": false,
      "t": 133744.9360000002,
      "d": 229.68584166668006,
      "v": 75
    },
    {
      "midi": 60,
      "hit": false,
      "t": 133744.9360000002,
      "d": 1186.082624999981,
      "v": 62
    },
    {
      "midi": 70,
      "hit": false,
      "t": 133970.8565000002,
      "d": 316.2887000000046,
      "v": 91
    },
    {
      "midi": 75,
      "hit": false,
      "t": 134196.7770000002,
      "d": 214.62447499998962,
      "v": 76
    },
    {
      "midi": 79,
      "hit": false,
      "t": 134422.69750000018,
      "d": 256.04323333333014,
      "v": 60
    },
    {
      "midi": 75,
      "hit": false,
      "t": 134648.6180000002,
      "d": 278.6352833333076,
      "v": 75
    },
    {
      "midi": 70,
      "hit": false,
      "t": 134874.53850000017,
      "d": 233.45118333335267,
      "v": 85
    },
    {
      "midi": 72,
      "hit": false,
      "t": 135100.45900000018,
      "d": 252.27789166668663,
      "v": 67
    },
    {
      "midi": 67,
      "hit": false,
      "t": 135100.45900000018,
      "d": 286.1659666666819,
      "v": 58
    },
    {
      "midi": 70,
      "hit": false,
      "t": 135326.37950000018,
      "d": 214.62447500001872,
      "v": 87
    },
    {
      "midi": 68,
      "hit": false,
      "t": 135552.3000000002,
      "d": 286.1659666666528,
      "v": 71
    },
    {
      "midi": 65,
      "hit": false,
      "t": 135552.3000000002,
      "d": 662.7001333333319,
      "v": 69
    },
    {
      "midi": 75,
      "hit": false,
      "t": 135766.92447500018,
      "d": 512.0864666666603,
      "v": 75
    },
    {
      "midi": 65,
      "hit": false,
      "t": 136245.12286666685,
      "d": 798.2524333333131,
      "v": 59
    },
    {
      "midi": 72,
      "hit": false,
      "t": 136256.41889166684,
      "d": 289.93130833332543,
      "v": 78
    },
    {
      "midi": 75,
      "hit": false,
      "t": 136459.74734166684,
      "d": 293.69664999999804,
      "v": 66
    },
    {
      "midi": 75,
      "hit": false,
      "t": 136930.41505000016,
      "d": 297.46199166667066,
      "v": 84
    },
    {
      "midi": 69,
      "hit": false,
      "t": 137133.74350000016,
      "d": 237.21652500002529,
      "v": 55
    },
    {
      "midi": 58,
      "hit": false,
      "t": 137359.66400000016,
      "d": 1491.075300000026,
      "v": 67
    },
    {
      "midi": 72,
      "hit": false,
      "t": 137367.1946833335,
      "d": 233.45118333335267,
      "v": 86
    },
    {
      "midi": 74,
      "hit": false,
      "t": 137596.8805250002,
      "d": 237.21652499999618,
      "v": 76
    },
    {
      "midi": 72,
      "hit": false,
      "t": 137800.2089750002,
      "d": 210.859133333317,
      "v": 75
    },
    {
      "midi": 70,
      "hit": false,
      "t": 138029.89481666684,
      "d": 233.45118333332357,
      "v": 77
    },
    {
      "midi": 72,
      "hit": false,
      "t": 138244.51929166683,
      "d": 210.8591333333461,
      "v": 95
    },
    {
      "midi": 74,
      "hit": false,
      "t": 138455.37842500018,
      "d": 293.69665000002715,
      "v": 74
    },
    {
      "midi": 72,
      "hit": false,
      "t": 138703.8909750002,
      "d": 259.80857500000275,
      "v": 84
    },
    {
      "midi": 75,
      "hit": false,
      "t": 138941.1075000002,
      "d": 237.21652499999618,
      "v": 72
    },
    {
      "midi": 63,
      "hit": false,
      "t": 138941.1075000002,
      "d": 606.2200083333009,
      "v": 65
    },
    {
      "midi": 70,
      "hit": false,
      "t": 139167.0280000002,
      "d": 274.869941666635,
      "v": 78
    },
    {
      "midi": 75,
      "hit": false,
      "t": 139392.94850000017,
      "d": 244.7472083333123,
      "v": 86
    },
    {
      "midi": 63,
      "hit": false,
      "t": 139618.86900000015,
      "d": 188.26708333333954,
      "v": 76
    },
    {
      "midi": 79,
      "hit": false,
      "t": 139618.86900000015,
      "d": 304.9926750000159,
      "v": 76
    },
    {
      "midi": 77,
      "hit": false,
      "t": 139844.78950000016,
      "d": 229.68584166668006,
      "v": 79
    },
    {
      "midi": 62,
      "hit": false,
      "t": 139844.78950000016,
      "d": 643.873425000027,
      "v": 69
    },
    {
      "midi": 70,
      "hit": false,
      "t": 140070.71000000017,
      "d": 248.51255000001402,
      "v": 73
    },
    {
      "midi": 74,
      "hit": false,
      "t": 140296.63050000017,
      "d": 233.45118333335267,
      "v": 62
    },
    {
      "midi": 62,
      "hit": false,
      "t": 140522.55100000018,
      "d": 210.8591333333461,
      "v": 78
    },
    {
      "midi": 77,
      "hit": false,
      "t": 140522.55100000018,
      "d": 225.92050000000745,
      "v": 78
    },
    {
      "midi": 75,
      "hit": false,
      "t": 140748.4715000002,
      "d": 229.68584166668006,
      "v": 75
    },
    {
      "midi": 60,
      "hit": false,
      "t": 140748.4715000002,
      "d": 1186.082624999981,
      "v": 62
    },
    {
      "midi": 70,
      "hit": false,
      "t": 140974.3920000002,
      "d": 316.2887000000046,
      "v": 91
    },
    {
      "midi": 75,
      "hit": false,
      "t": 141200.3125000002,
      "d": 214.62447499998962,
      "v": 76
    },
    {
      "midi": 79,
      "hit": false,
      "t": 141426.23300000018,
      "d": 256.04323333333014,
      "v": 60
    },
    {
      "midi": 75,
      "hit": false,
      "t": 141652.1535000002,
      "d": 278.6352833333076,
      "v": 75
    },
    {
      "midi": 70,
      "hit": false,
      "t": 141878.07400000017,
      "d": 233.45118333335267,
      "v": 85
    },
    {
      "midi": 72,
      "hit": false,
      "t": 142103.99450000018,
      "d": 252.27789166668663,
      "v": 67
    },
    {
      "midi": 67,
      "hit": false,
      "t": 142103.99450000018,
      "d": 286.1659666666819,
      "v": 58
    },
    {
      "midi": 70,
      "hit": false,
      "t": 142329.91500000018,
      "d": 214.62447500001872,
      "v": 87
    },
    {
      "midi": 67,
      "hit": false,
      "t": 142555.8355000002,
      "d": 252.27789166668663,
      "v": 67
    },
    {
      "midi": 68,
      "hit": false,
      "t": 142781.7560000002,
      "d": 286.1659666666819,
      "v": 71
    },
    {
      "midi": 65,
      "hit": false,
      "t": 142781.7560000002,
      "d": 662.700133333361,
      "v": 69
    },
    {
      "midi": 75,
      "hit": false,
      "t": 142996.38047500022,
      "d": 512.0864666666603,
      "v": 75
    },
    {
      "midi": 65,
      "hit": false,
      "t": 143474.57886666688,
      "d": 798.2524333333131,
      "v": 59
    },
    {
      "midi": 72,
      "hit": false,
      "t": 143485.87489166687,
      "d": 289.93130833332543,
      "v": 78
    },
    {
      "midi": 75,
      "hit": false,
      "t": 143689.20334166687,
      "d": 293.69664999999804,
      "v": 66
    },
    {
      "midi": 75,
      "hit": false,
      "t": 144159.8710500002,
      "d": 297.46199166667066,
      "v": 84
    },
    {
      "midi": 69,
      "hit": false,
      "t": 144363.1995000002,
      "d": 237.21652500002529,
      "v": 55
    },
    {
      "midi": 58,
      "hit": false,
      "t": 144589.1200000002,
      "d": 1701.934433333372,
      "v": 67
    },
    {
      "midi": 72,
      "hit": false,
      "t": 144596.65068333354,
      "d": 233.45118333335267,
      "v": 86
    },
    {
      "midi": 74,
      "hit": false,
      "t": 144826.33652500022,
      "d": 237.21652499999618,
      "v": 76
    },
    {
      "midi": 72,
      "hit": false,
      "t": 145029.66497500023,
      "d": 210.859133333317,
      "v": 75
    },
    {
      "midi": 70,
      "hit": false,
      "t": 145259.35081666688,
      "d": 233.45118333332357,
      "v": 77
    },
    {
      "midi": 72,
      "hit": false,
      "t": 145473.97529166687,
      "d": 210.8591333333461,
      "v": 95
    },
    {
      "midi": 74,
      "hit": false,
      "t": 145684.8344250002,
      "d": 293.69665000002715,
      "v": 74
    },
    {
      "midi": 72,
      "hit": false,
      "t": 145933.34697500023,
      "d": 259.80857500000275,
      "v": 84
    },
    {
      "midi": 70,
      "hit": false,
      "t": 146159.26747500023,
      "d": 237.21652499999618,
      "v": 82
    },
    {
      "midi": 75,
      "hit": false,
      "t": 146396.48400000023,
      "d": 237.21652499999618,
      "v": 72
    },
    {
      "midi": 63,
      "hit": false,
      "t": 146396.48400000023,
      "d": 606.2200083333009,
      "v": 65
    },
    {
      "midi": 70,
      "hit": false,
      "t": 146622.40450000024,
      "d": 274.869941666635,
      "v": 78
    },
    {
      "midi": 75,
      "hit": false,
      "t": 146848.32500000022,
      "d": 244.7472083333123,
      "v": 86
    },
    {
      "midi": 63,
      "hit": false,
      "t": 147074.2455000002,
      "d": 188.26708333333954,
      "v": 76
    },
    {
      "midi": 79,
      "hit": false,
      "t": 147074.2455000002,
      "d": 304.9926750000159,
      "v": 76
    },
    {
      "midi": 77,
      "hit": false,
      "t": 147300.1660000002,
      "d": 229.68584166668006,
      "v": 79
    },
    {
      "midi": 62,
      "hit": false,
      "t": 147300.1660000002,
      "d": 643.873425000027,
      "v": 69
    },
    {
      "midi": 70,
      "hit": false,
      "t": 147526.0865000002,
      "d": 248.51255000001402,
      "v": 73
    },
    {
      "midi": 74,
      "hit": false,
      "t": 147752.00700000022,
      "d": 233.45118333335267,
      "v": 62
    },
    {
      "midi": 62,
      "hit": false,
      "t": 147977.92750000022,
      "d": 210.8591333333461,
      "v": 78
    },
    {
      "midi": 77,
      "hit": false,
      "t": 147977.92750000022,
      "d": 225.92050000000745,
      "v": 78
    },
    {
      "midi": 75,
      "hit": false,
      "t": 148203.84800000023,
      "d": 229.68584166668006,
      "v": 75
    },
    {
      "midi": 60,
      "hit": false,
      "t": 148203.84800000023,
      "d": 1186.082624999981,
      "v": 62
    },
    {
      "midi": 70,
      "hit": false,
      "t": 148429.76850000024,
      "d": 316.2887000000046,
      "v": 91
    },
    {
      "midi": 75,
      "hit": false,
      "t": 148655.68900000025,
      "d": 214.62447499998962,
      "v": 76
    },
    {
      "midi": 79,
      "hit": false,
      "t": 148881.60950000022,
      "d": 256.04323333333014,
      "v": 60
    },
    {
      "midi": 75,
      "hit": false,
      "t": 149107.53000000023,
      "d": 278.6352833333076,
      "v": 75
    },
    {
      "midi": 70,
      "hit": false,
      "t": 149333.4505000002,
      "d": 233.45118333335267,
      "v": 85
    },
    {
      "midi": 72,
      "hit": false,
      "t": 149559.37100000022,
      "d": 252.27789166668663,
      "v": 67
    },
    {
      "midi": 67,
      "hit": false,
      "t": 149559.37100000022,
      "d": 286.1659666666819,
      "v": 58
    },
    {
      "midi": 70,
      "hit": false,
      "t": 149785.29150000022,
      "d": 214.62447500001872,
      "v": 87
    },
    {
      "midi": 68,
      "hit": false,
      "t": 150011.21200000023,
      "d": 286.1659666666528,
      "v": 71
    },
    {
      "midi": 65,
      "hit": false,
      "t": 150011.21200000023,
      "d": 662.7001333333319,
      "v": 69
    },
    {
      "midi": 75,
      "hit": false,
      "t": 150225.83647500022,
      "d": 512.0864666666603,
      "v": 75
    },
    {
      "midi": 65,
      "hit": false,
      "t": 150704.0348666669,
      "d": 798.2524333333131,
      "v": 59
    },
    {
      "midi": 72,
      "hit": false,
      "t": 150715.33089166688,
      "d": 289.93130833332543,
      "v": 78
    },
    {
      "midi": 75,
      "hit": false,
      "t": 150918.65934166688,
      "d": 293.69664999999804,
      "v": 66
    },
    {
      "midi": 75,
      "hit": false,
      "t": 151389.3270500002,
      "d": 297.46199166667066,
      "v": 84
    },
    {
      "midi": 69,
      "hit": false,
      "t": 151592.6555000002,
      "d": 237.21652500002529,
      "v": 55
    },
    {
      "midi": 58,
      "hit": false,
      "t": 151818.5760000002,
      "d": 1491.075300000026,
      "v": 67
    },
    {
      "midi": 72,
      "hit": false,
      "t": 151826.10668333355,
      "d": 233.45118333335267,
      "v": 86
    },
    {
      "midi": 74,
      "hit": false,
      "t": 152055.79252500023,
      "d": 237.21652499999618,
      "v": 76
    },
    {
      "midi": 72,
      "hit": false,
      "t": 152259.12097500023,
      "d": 210.859133333317,
      "v": 75
    },
    {
      "midi": 70,
      "hit": false,
      "t": 152488.80681666688,
      "d": 233.45118333332357,
      "v": 77
    },
    {
      "midi": 72,
      "hit": false,
      "t": 152703.43129166687,
      "d": 210.8591333333461,
      "v": 95
    },
    {
      "midi": 74,
      "hit": false,
      "t": 152914.29042500022,
      "d": 293.69665000002715,
      "v": 74
    },
    {
      "midi": 72,
      "hit": false,
      "t": 153162.80297500023,
      "d": 259.80857500000275,
      "v": 84
    },
    {
      "midi": 75,
      "hit": false,
      "t": 153400.01950000023,
      "d": 237.21652499999618,
      "v": 72
    },
    {
      "midi": 63,
      "hit": false,
      "t": 153400.01950000023,
      "d": 606.2200083333009,
      "v": 65
    },
    {
      "midi": 70,
      "hit": false,
      "t": 153625.94000000024,
      "d": 274.869941666635,
      "v": 78
    },
    {
      "midi": 75,
      "hit": false,
      "t": 153851.8605000002,
      "d": 244.7472083333123,
      "v": 86
    },
    {
      "midi": 63,
      "hit": false,
      "t": 154077.7810000002,
      "d": 188.26708333333954,
      "v": 76
    },
    {
      "midi": 79,
      "hit": false,
      "t": 154077.7810000002,
      "d": 304.9926750000159,
      "v": 76
    },
    {
      "midi": 77,
      "hit": false,
      "t": 154303.7015000002,
      "d": 229.68584166668006,
      "v": 79
    },
    {
      "midi": 62,
      "hit": false,
      "t": 154303.7015000002,
      "d": 643.873425000027,
      "v": 69
    },
    {
      "midi": 70,
      "hit": false,
      "t": 154529.6220000002,
      "d": 248.51255000001402,
      "v": 73
    },
    {
      "midi": 74,
      "hit": false,
      "t": 154755.5425000002,
      "d": 233.45118333335267,
      "v": 62
    },
    {
      "midi": 62,
      "hit": false,
      "t": 154981.46300000022,
      "d": 210.8591333333461,
      "v": 78
    },
    {
      "midi": 77,
      "hit": false,
      "t": 154981.46300000022,
      "d": 225.92050000000745,
      "v": 78
    },
    {
      "midi": 75,
      "hit": false,
      "t": 155207.38350000023,
      "d": 229.68584166668006,
      "v": 75
    },
    {
      "midi": 60,
      "hit": false,
      "t": 155207.38350000023,
      "d": 1186.082624999981,
      "v": 62
    },
    {
      "midi": 70,
      "hit": false,
      "t": 155433.30400000024,
      "d": 316.2887000000046,
      "v": 91
    },
    {
      "midi": 75,
      "hit": false,
      "t": 155659.22450000024,
      "d": 214.62447499998962,
      "v": 76
    },
    {
      "midi": 79,
      "hit": false,
      "t": 155885.14500000022,
      "d": 256.04323333333014,
      "v": 60
    },
    {
      "midi": 75,
      "hit": false,
      "t": 156111.06550000023,
      "d": 278.6352833333076,
      "v": 75
    },
    {
      "midi": 70,
      "hit": false,
      "t": 156336.9860000002,
      "d": 233.45118333335267,
      "v": 85
    },
    {
      "midi": 72,
      "hit": false,
      "t": 156562.90650000022,
      "d": 252.27789166668663,
      "v": 67
    },
    {
      "midi": 67,
      "hit": false,
      "t": 156562.90650000022,
      "d": 286.1659666666819,
      "v": 58
    },
    {
      "midi": 70,
      "hit": false,
      "t": 156788.82700000022,
      "d": 214.62447500001872,
      "v": 87
    },
    {
      "midi": 67,
      "hit": false,
      "t": 157014.74750000023,
      "d": 252.27789166668663,
      "v": 67
    },
    {
      "midi": 68,
      "hit": false,
      "t": 157240.66800000024,
      "d": 286.1659666666819,
      "v": 71
    },
    {
      "midi": 65,
      "hit": false,
      "t": 157240.66800000024,
      "d": 662.700133333361,
      "v": 69
    },
    {
      "midi": 75,
      "hit": false,
      "t": 157455.29247500026,
      "d": 512.0864666666603,
      "v": 75
    },
    {
      "midi": 65,
      "hit": false,
      "t": 157933.49086666692,
      "d": 798.2524333333131,
      "v": 59
    },
    {
      "midi": 72,
      "hit": false,
      "t": 157944.7868916669,
      "d": 289.93130833332543,
      "v": 78
    },
    {
      "midi": 75,
      "hit": false,
      "t": 158148.1153416669,
      "d": 293.69664999999804,
      "v": 66
    },
    {
      "midi": 75,
      "hit": false,
      "t": 158618.78305000023,
      "d": 297.46199166667066,
      "v": 84
    },
    {
      "midi": 69,
      "hit": false,
      "t": 158822.11150000023,
      "d": 237.21652500002529,
      "v": 55
    },
    {
      "midi": 58,
      "hit": false,
      "t": 159048.03200000024,
      "d": 1701.934433333372,
      "v": 67
    },
    {
      "midi": 72,
      "hit": false,
      "t": 159055.56268333358,
      "d": 233.45118333335267,
      "v": 86
    },
    {
      "midi": 74,
      "hit": false,
      "t": 159285.24852500026,
      "d": 237.21652499999618,
      "v": 76
    },
    {
      "midi": 72,
      "hit": false,
      "t": 159488.57697500027,
      "d": 210.859133333317,
      "v": 75
    },
    {
      "midi": 70,
      "hit": false,
      "t": 159718.26281666692,
      "d": 233.45118333332357,
      "v": 77
    },
    {
      "midi": 72,
      "hit": false,
      "t": 159932.8872916669,
      "d": 210.8591333333461,
      "v": 95
    },
    {
      "midi": 74,
      "hit": false,
      "t": 160143.74642500025,
      "d": 293.69665000002715,
      "v": 74
    },
    {
      "midi": 72,
      "hit": false,
      "t": 160392.25897500027,
      "d": 259.80857500000275,
      "v": 84
    },
    {
      "midi": 70,
      "hit": false,
      "t": 160618.17947500027,
      "d": 237.21652499999618,
      "v": 82
    },
    {
      "midi": 75,
      "hit": false,
      "t": 160855.39600000027,
      "d": 237.21652499999618,
      "v": 72
    },
    {
      "midi": 63,
      "hit": false,
      "t": 160855.39600000027,
      "d": 606.2200083333009,
      "v": 65
    },
    {
      "midi": 70,
      "hit": false,
      "t": 161081.31650000028,
      "d": 274.869941666635,
      "v": 78
    },
    {
      "midi": 75,
      "hit": false,
      "t": 161307.23700000026,
      "d": 244.7472083333123,
      "v": 86
    },
    {
      "midi": 63,
      "hit": false,
      "t": 161533.15750000023,
      "d": 188.26708333333954,
      "v": 76
    },
    {
      "midi": 79,
      "hit": false,
      "t": 161533.15750000023,
      "d": 304.9926750000159,
      "v": 76
    },
    {
      "midi": 77,
      "hit": false,
      "t": 161759.07800000024,
      "d": 229.68584166668006,
      "v": 79
    },
    {
      "midi": 62,
      "hit": false,
      "t": 161759.07800000024,
      "d": 643.873425000027,
      "v": 69
    },
    {
      "midi": 70,
      "hit": false,
      "t": 161984.99850000025,
      "d": 248.51255000001402,
      "v": 73
    },
    {
      "midi": 74,
      "hit": false,
      "t": 162210.91900000026,
      "d": 233.45118333335267,
      "v": 62
    },
    {
      "midi": 62,
      "hit": false,
      "t": 162436.83950000026,
      "d": 210.8591333333461,
      "v": 78
    },
    {
      "midi": 77,
      "hit": false,
      "t": 162436.83950000026,
      "d": 225.92050000000745,
      "v": 78
    },
    {
      "midi": 75,
      "hit": false,
      "t": 162662.76000000027,
      "d": 229.68584166668006,
      "v": 75
    },
    {
      "midi": 60,
      "hit": false,
      "t": 162662.76000000027,
      "d": 1186.082624999981,
      "v": 62
    },
    {
      "midi": 70,
      "hit": false,
      "t": 162888.68050000028,
      "d": 316.2887000000046,
      "v": 91
    },
    {
      "midi": 75,
      "hit": false,
      "t": 163114.6010000003,
      "d": 214.62447499998962,
      "v": 76
    },
    {
      "midi": 79,
      "hit": false,
      "t": 163340.52150000026,
      "d": 256.04323333333014,
      "v": 60
    },
    {
      "midi": 75,
      "hit": false,
      "t": 163566.44200000027,
      "d": 278.6352833333076,
      "v": 75
    },
    {
      "midi": 70,
      "hit": false,
      "t": 163792.36250000025,
      "d": 233.45118333335267,
      "v": 85
    },
    {
      "midi": 72,
      "hit": false,
      "t": 164018.28300000026,
      "d": 252.27789166668663,
      "v": 67
    },
    {
      "midi": 67,
      "hit": false,
      "t": 164018.28300000026,
      "d": 286.1659666666819,
      "v": 58
    },
    {
      "midi": 70,
      "hit": false,
      "t": 164244.20350000027,
      "d": 214.62447500001872,
      "v": 87
    },
    {
      "midi": 68,
      "hit": false,
      "t": 164470.12400000027,
      "d": 286.1659666666528,
      "v": 71
    },
    {
      "midi": 65,
      "hit": false,
      "t": 164470.12400000027,
      "d": 662.7001333333319,
      "v": 69
    },
    {
      "midi": 75,
      "hit": false,
      "t": 164684.74847500026,
      "d": 512.0864666666603,
      "v": 75
    },
    {
      "midi": 65,
      "hit": false,
      "t": 165162.94686666693,
      "d": 798.2524333333131,
      "v": 59
    },
    {
      "midi": 72,
      "hit": false,
      "t": 165174.24289166692,
      "d": 289.93130833332543,
      "v": 78
    },
    {
      "midi": 75,
      "hit": false,
      "t": 165377.57134166692,
      "d": 293.69664999999804,
      "v": 66
    },
    {
      "midi": 75,
      "hit": false,
      "t": 165848.23905000024,
      "d": 297.46199166667066,
      "v": 84
    },
    {
      "midi": 69,
      "hit": false,
      "t": 166051.56750000024,
      "d": 237.21652500002529,
      "v": 55
    },
    {
      "midi": 58,
      "hit": false,
      "t": 166277.48800000024,
      "d": 1491.075300000026,
      "v": 67
    },
    {
      "midi": 72,
      "hit": false,
      "t": 166285.0186833336,
      "d": 233.45118333335267,
      "v": 86
    },
    {
      "midi": 74,
      "hit": false,
      "t": 166514.70452500027,
      "d": 237.21652499999618,
      "v": 76
    },
    {
      "midi": 72,
      "hit": false,
      "t": 166718.03297500027,
      "d": 210.8591333333461,
      "v": 75
    },
    {
      "midi": 70,
      "hit": false,
      "t": 166947.71881666695,
      "d": 233.45118333332357,
      "v": 77
    },
    {
      "midi": 72,
      "hit": false,
      "t": 167162.34329166694,
      "d": 210.859133333317,
      "v": 95
    },
    {
      "midi": 74,
      "hit": false,
      "t": 167373.20242500026,
      "d": 293.69664999999804,
      "v": 74
    },
    {
      "midi": 72,
      "hit": false,
      "t": 167621.71497500027,
      "d": 259.80857500003185,
      "v": 84
    },
    {
      "midi": 75,
      "hit": false,
      "t": 167858.9315000003,
      "d": 237.21652499999618,
      "v": 72
    },
    {
      "midi": 63,
      "hit": false,
      "t": 167858.9315000003,
      "d": 606.22000833333,
      "v": 65
    },
    {
      "midi": 70,
      "hit": false,
      "t": 168084.8520000003,
      "d": 274.8699416666641,
      "v": 78
    },
    {
      "midi": 75,
      "hit": false,
      "t": 168310.7725000003,
      "d": 244.7472083333123,
      "v": 86
    },
    {
      "midi": 63,
      "hit": false,
      "t": 168536.6930000003,
      "d": 188.26708333333954,
      "v": 76
    },
    {
      "midi": 79,
      "hit": false,
      "t": 168536.6930000003,
      "d": 304.9926749999868,
      "v": 76
    },
    {
      "midi": 77,
      "hit": false,
      "t": 168762.6135000003,
      "d": 229.68584166665096,
      "v": 79
    },
    {
      "midi": 62,
      "hit": false,
      "t": 168762.6135000003,
      "d": 643.8734249999688,
      "v": 69
    },
    {
      "midi": 70,
      "hit": false,
      "t": 168988.53400000028,
      "d": 248.51255000001402,
      "v": 73
    },
    {
      "midi": 74,
      "hit": false,
      "t": 169214.45450000028,
      "d": 233.45118333332357,
      "v": 62
    },
    {
      "midi": 62,
      "hit": false,
      "t": 169440.37500000026,
      "d": 210.8591333333461,
      "v": 78
    },
    {
      "midi": 77,
      "hit": false,
      "t": 169440.37500000026,
      "d": 225.92050000000745,
      "v": 78
    },
    {
      "midi": 75,
      "hit": false,
      "t": 169666.29550000027,
      "d": 229.68584166668006,
      "v": 75
    },
    {
      "midi": 60,
      "hit": false,
      "t": 169666.29550000027,
      "d": 1186.08262500001,
      "v": 62
    },
    {
      "midi": 70,
      "hit": false,
      "t": 169892.21600000028,
      "d": 316.2887000000046,
      "v": 91
    },
    {
      "midi": 75,
      "hit": false,
      "t": 170118.13650000028,
      "d": 214.62447500001872,
      "v": 76
    },
    {
      "midi": 79,
      "hit": false,
      "t": 170344.0570000003,
      "d": 256.04323333333014,
      "v": 60
    },
    {
      "midi": 75,
      "hit": false,
      "t": 170569.97750000027,
      "d": 278.6352833333367,
      "v": 75
    },
    {
      "midi": 70,
      "hit": false,
      "t": 170795.89800000028,
      "d": 233.45118333332357,
      "v": 85
    },
    {
      "midi": 72,
      "hit": false,
      "t": 171021.81850000026,
      "d": 252.27789166668663,
      "v": 67
    },
    {
      "midi": 67,
      "hit": false,
      "t": 171021.81850000026,
      "d": 286.1659666666819,
      "v": 58
    },
    {
      "midi": 70,
      "hit": false,
      "t": 171247.73900000026,
      "d": 214.62447499998962,
      "v": 87
    },
    {
      "midi": 67,
      "hit": false,
      "t": 171473.65950000024,
      "d": 252.27789166668663,
      "v": 67
    },
    {
      "midi": 68,
      "hit": false,
      "t": 171699.58000000025,
      "d": 286.1659666666528,
      "v": 71
    },
    {
      "midi": 65,
      "hit": false,
      "t": 171699.58000000025,
      "d": 662.7001333333319,
      "v": 69
    },
    {
      "midi": 75,
      "hit": false,
      "t": 171914.20447500024,
      "d": 512.0864666666603,
      "v": 75
    },
    {
      "midi": 65,
      "hit": false,
      "t": 172392.4028666669,
      "d": 798.2524333333422,
      "v": 59
    },
    {
      "midi": 72,
      "hit": false,
      "t": 172403.6988916669,
      "d": 289.93130833335454,
      "v": 78
    },
    {
      "midi": 75,
      "hit": false,
      "t": 172607.0273416669,
      "d": 293.69665000002715,
      "v": 66
    },
    {
      "midi": 75,
      "hit": false,
      "t": 173077.69505000024,
      "d": 297.46199166667066,
      "v": 84
    },
    {
      "midi": 69,
      "hit": false,
      "t": 173281.02350000024,
      "d": 237.21652500002529,
      "v": 55
    },
    {
      "midi": 58,
      "hit": false,
      "t": 173506.94400000025,
      "d": 1701.934433333401,
      "v": 67
    },
    {
      "midi": 72,
      "hit": false,
      "t": 173514.4746833336,
      "d": 233.45118333335267,
      "v": 86
    },
    {
      "midi": 74,
      "hit": false,
      "t": 173744.16052500028,
      "d": 237.21652500002529,
      "v": 76
    },
    {
      "midi": 72,
      "hit": false,
      "t": 173947.48897500028,
      "d": 210.8591333333752,
      "v": 75
    },
    {
      "midi": 70,
      "hit": false,
      "t": 174177.174816667,
      "d": 233.45118333332357,
      "v": 77
    },
    {
      "midi": 72,
      "hit": false,
      "t": 174391.79929166698,
      "d": 210.859133333317,
      "v": 95
    },
    {
      "midi": 74,
      "hit": false,
      "t": 174602.6584250003,
      "d": 293.69665000002715,
      "v": 74
    },
    {
      "midi": 72,
      "hit": false,
      "t": 174851.1709750003,
      "d": 259.80857500000275,
      "v": 84
    },
    {
      "midi": 70,
      "hit": false,
      "t": 175077.0914750003,
      "d": 237.21652499999618,
      "v": 82
    },
    {
      "midi": 75,
      "hit": false,
      "t": 175314.3080000003,
      "d": 237.21652499999618,
      "v": 72
    },
    {
      "midi": 63,
      "hit": false,
      "t": 175314.3080000003,
      "d": 606.22000833333,
      "v": 65
    },
    {
      "midi": 70,
      "hit": false,
      "t": 175540.22850000032,
      "d": 274.8699416666641,
      "v": 78
    },
    {
      "midi": 75,
      "hit": false,
      "t": 175766.1490000003,
      "d": 244.7472083333414,
      "v": 86
    },
    {
      "midi": 63,
      "hit": false,
      "t": 175992.0695000003,
      "d": 188.26708333333954,
      "v": 76
    },
    {
      "midi": 79,
      "hit": false,
      "t": 175992.0695000003,
      "d": 304.9926750000159,
      "v": 76
    },
    {
      "midi": 77,
      "hit": false,
      "t": 176217.9900000003,
      "d": 229.68584166668006,
      "v": 79
    },
    {
      "midi": 62,
      "hit": false,
      "t": 176217.9900000003,
      "d": 643.873424999998,
      "v": 69
    },
    {
      "midi": 70,
      "hit": false,
      "t": 176443.91050000032,
      "d": 248.5125499999849,
      "v": 73
    },
    {
      "midi": 74,
      "hit": false,
      "t": 176669.83100000033,
      "d": 233.45118333332357,
      "v": 62
    },
    {
      "midi": 62,
      "hit": false,
      "t": 176895.7515000003,
      "d": 210.8591333333461,
      "v": 78
    },
    {
      "midi": 77,
      "hit": false,
      "t": 176895.7515000003,
      "d": 225.92050000000745,
      "v": 78
    }
  ]
}