{
  "jsonPath": "Pop/New Wave Pop/Sharleen Spiteri/the-sound-of-silence.json",
  "path": "Pop\\New Wave Pop\\Sharleen Spiteri\\The Sound Of Silence.mid",
  "name": "The Sound Of Silence",
  "difficulty": "Advanced",
  "bpm": 120,
  "notes": [
    {
      "midi": 65,
      "hit": false,
      "t": 38000,
      "d": 236.97916666666424,
      "v": 101
    },
    {
      "midi": 56,
      "hit": false,
      "t": 38000,
      "d": 247.39583333332848,
      "v": 94
    },
    {
      "midi": 61,
      "hit": false,
      "t": 38000,
      "d": 273.4374999999927,
      "v": 104
    },
    {
      "midi": 37,
      "hit": false,
      "t": 38000,
      "d": 578.1249999999927,
      "v": 86
    },
    {
      "midi": 49,
      "hit": false,
      "t": 38000,
      "d": 583.3333333333285,
      "v": 104
    },
    {
      "midi": 61,
      "hit": false,
      "t": 38499.99999999999,
      "d": 205.72916666667152,
      "v": 91
    },
    {
      "midi": 65,
      "hit": false,
      "t": 38499.99999999999,
      "d": 210.93750000000728,
      "v": 91
    },
    {
      "midi": 56,
      "hit": false,
      "t": 38499.99999999999,
      "d": 244.79166666667152,
      "v": 108
    },
    {
      "midi": 63,
      "hit": false,
      "t": 38750,
      "d": 205.72916666666424,
      "v": 108
    },
    {
      "midi": 56,
      "hit": false,
      "t": 39000,
      "d": 250,
      "v": 108
    },
    {
      "midi": 65,
      "hit": false,
      "t": 39000,
      "d": 263.02083333333576,
      "v": 91
    },
    {
      "midi": 61,
      "hit": false,
      "t": 39000,
      "d": 286.45833333333576,
      "v": 95
    },
    {
      "midi": 37,
      "hit": false,
      "t": 39000,
      "d": 447.9166666666715,
      "v": 91
    },
    {
      "midi": 49,
      "hit": false,
      "t": 39000,
      "d": 466.14583333333576,
      "v": 95
    },
    {
      "midi": 65,
      "hit": false,
      "t": 39500,
      "d": 234.375,
      "v": 104
    },
    {
      "midi": 61,
      "hit": false,
      "t": 39500,
      "d": 239.58333333333576,
      "v": 91
    },
    {
      "midi": 56,
      "hit": false,
      "t": 39500,
      "d": 257.8125,
      "v": 108
    },
    {
      "midi": 63,
      "hit": false,
      "t": 39750,
      "d": 223.95833333333576,
      "v": 100
    },
    {
      "midi": 56,
      "hit": false,
      "t": 40000,
      "d": 252.60416666666424,
      "v": 108
    },
    {
      "midi": 65,
      "hit": false,
      "t": 40000,
      "d": 270.8333333333285,
      "v": 91
    },
    {
      "midi": 61,
      "hit": false,
      "t": 40000,
      "d": 302.0833333333285,
      "v": 83
    },
    {
      "midi": 37,
      "hit": false,
      "t": 40000,
      "d": 312.4999999999927,
      "v": 100
    },
    {
      "midi": 49,
      "hit": false,
      "t": 40000,
      "d": 343.7499999999927,
      "v": 100
    },
    {
      "midi": 65,
      "hit": false,
      "t": 40499.99999999999,
      "d": 242.1875,
      "v": 100
    },
    {
      "midi": 61,
      "hit": false,
      "t": 40499.99999999999,
      "d": 263.02083333333576,
      "v": 95
    },
    {
      "midi": 56,
      "hit": false,
      "t": 40499.99999999999,
      "d": 278.64583333333576,
      "v": 117
    },
    {
      "midi": 63,
      "hit": false,
      "t": 40749.99999999999,
      "d": 221.35416666666424,
      "v": 108
    },
    {
      "midi": 56,
      "hit": false,
      "t": 40999.99999999999,
      "d": 388.02083333333576,
      "v": 108
    },
    {
      "midi": 61,
      "hit": false,
      "t": 40999.99999999999,
      "d": 390.625,
      "v": 79
    },
    {
      "midi": 65,
      "hit": false,
      "t": 40999.99999999999,
      "d": 406.25,
      "v": 91
    },
    {
      "midi": 37,
      "hit": false,
      "t": 40999.99999999999,
      "d": 651.0416666666642,
      "v": 75
    },
    {
      "midi": 49,
      "hit": false,
      "t": 40999.99999999999,
      "d": 703.125,
      "v": 83
    },
    {
      "midi": 61,
      "hit": false,
      "t": 41499.99999999999,
      "d": 187.5,
      "v": 87
    },
    {
      "midi": 65,
      "hit": false,
      "t": 41499.99999999999,
      "d": 247.39583333333576,
      "v": 79
    },
    {
      "midi": 56,
      "hit": false,
      "t": 41499.99999999999,
      "d": 286.45833333333576,
      "v": 100
    },
    {
      "midi": 63,
      "hit": false,
      "t": 41749.99999999999,
      "d": 197.91666666667152,
      "v": 104
    },
    {
      "midi": 66,
      "hit": false,
      "t": 41999.99999999999,
      "d": 286.45833333333576,
      "v": 101
    },
    {
      "midi": 63,
      "hit": false,
      "t": 41999.99999999999,
      "d": 302.08333333333576,
      "v": 95
    },
    {
      "midi": 58,
      "hit": false,
      "t": 41999.99999999999,
      "d": 307.2916666666715,
      "v": 87
    },
    {
      "midi": 39,
      "hit": false,
      "t": 41999.99999999999,
      "d": 533.8541666666715,
      "v": 80
    },
    {
      "midi": 51,
      "hit": false,
      "t": 41999.99999999999,
      "d": 552.0833333333358,
      "v": 77
    },
    {
      "midi": 66,
      "hit": false,
      "t": 42500,
      "d": 164.06249999999272,
      "v": 75
    },
    {
      "midi": 58,
      "hit": false,
      "t": 42500,
      "d": 169.27083333332848,
      "v": 95
    },
    {
      "midi": 63,
      "hit": false,
      "t": 42500,
      "d": 210.93749999999272,
      "v": 95
    },
    {
      "midi": 56,
      "hit": false,
      "t": 42749.99999999999,
      "d": 122.39583333333576,
      "v": 91
    },
    {
      "midi": 65,
      "hit": false,
      "t": 42749.99999999999,
      "d": 179.6875,
      "v": 87
    },
    {
      "midi": 66,
      "hit": false,
      "t": 42999.99999999999,
      "d": 309.89583333333576,
      "v": 100
    },
    {
      "midi": 58,
      "hit": false,
      "t": 42999.99999999999,
      "d": 330.7291666666715,
      "v": 104
    },
    {
      "midi": 63,
      "hit": false,
      "t": 42999.99999999999,
      "d": 346.3541666666715,
      "v": 95
    },
    {
      "midi": 39,
      "hit": false,
      "t": 42999.99999999999,
      "d": 544.270833333343,
      "v": 77
    },
    {
      "midi": 51,
      "hit": false,
      "t": 42999.99999999999,
      "d": 562.5000000000073,
      "v": 77
    },
    {
      "midi": 66,
      "hit": false,
      "t": 43500,
      "d": 161.45833333333576,
      "v": 74
    },
    {
      "midi": 58,
      "hit": false,
      "t": 43500,
      "d": 166.66666666667152,
      "v": 91
    },
    {
      "midi": 63,
      "hit": false,
      "t": 43500,
      "d": 195.31250000000728,
      "v": 91
    },
    {
      "midi": 56,
      "hit": false,
      "t": 43750.00000000001,
      "d": 98.95833333333576,
      "v": 100
    },
    {
      "midi": 65,
      "hit": false,
      "t": 43750.00000000001,
      "d": 138.02083333333576,
      "v": 91
    },
    {
      "midi": 66,
      "hit": false,
      "t": 44000.00000000001,
      "d": 257.8125,
      "v": 95
    },
    {
      "midi": 63,
      "hit": false,
      "t": 44000.00000000001,
      "d": 286.45833333333576,
      "v": 113
    },
    {
      "midi": 58,
      "hit": false,
      "t": 44000.00000000001,
      "d": 289.0625,
      "v": 100
    },
    {
      "midi": 39,
      "hit": false,
      "t": 44000.00000000001,
      "d": 515.625,
      "v": 83
    },
    {
      "midi": 51,
      "hit": false,
      "t": 44000.00000000001,
      "d": 531.25,
      "v": 79
    },
    {
      "midi": 58,
      "hit": false,
      "t": 44500.00000000001,
      "d": 148.4375,
      "v": 104
    },
    {
      "midi": 63,
      "hit": false,
      "t": 44500.00000000001,
      "d": 153.64583333333576,
      "v": 95
    },
    {
      "midi": 66,
      "hit": false,
      "t": 44500.00000000001,
      "d": 177.08333333333576,
      "v": 83
    },
    {
      "midi": 56,
      "hit": false,
      "t": 44750.00000000001,
      "d": 88.54166666666424,
      "v": 104
    },
    {
      "midi": 65,
      "hit": false,
      "t": 44750.00000000001,
      "d": 138.02083333332848,
      "v": 91
    },
    {
      "midi": 66,
      "hit": false,
      "t": 45000,
      "d": 348.95833333333576,
      "v": 87
    },
    {
      "midi": 63,
      "hit": false,
      "t": 45000,
      "d": 372.39583333333576,
      "v": 104
    },
    {
      "midi": 58,
      "hit": false,
      "t": 45000,
      "d": 377.6041666666715,
      "v": 100
    },
    {
      "midi": 39,
      "hit": false,
      "t": 45000,
      "d": 903.645833333343,
      "v": 77
    },
    {
      "midi": 51,
      "hit": false,
      "t": 45000,
      "d": 911.458333333343,
      "v": 87
    },
    {
      "midi": 58,
      "hit": false,
      "t": 45500.00000000001,
      "d": 447.9166666666715,
      "v": 83
    },
    {
      "midi": 63,
      "hit": false,
      "t": 45500.00000000001,
      "d": 453.1250000000073,
      "v": 91
    },
    {
      "midi": 66,
      "hit": false,
      "t": 45500.00000000001,
      "d": 468.7500000000073,
      "v": 79
    },
    {
      "midi": 71,
      "hit": false,
      "t": 46000.000000000015,
      "d": 348.9583333333285,
      "v": 106
    },
    {
      "midi": 66,
      "hit": false,
      "t": 46000.000000000015,
      "d": 374.9999999999927,
      "v": 104
    },
    {
      "midi": 63,
      "hit": false,
      "t": 46000.000000000015,
      "d": 398.4374999999927,
      "v": 97
    },
    {
      "midi": 47,
      "hit": false,
      "t": 46000.000000000015,
      "d": 502.60416666665697,
      "v": 106
    },
    {
      "midi": 71,
      "hit": false,
      "t": 46500.00000000001,
      "d": 91.14583333332848,
      "v": 100
    },
    {
      "midi": 66,
      "hit": false,
      "t": 46500.00000000001,
      "d": 98.95833333332848,
      "v": 102
    },
    {
      "midi": 63,
      "hit": false,
      "t": 46500.00000000001,
      "d": 106.77083333332848,
      "v": 108
    },
    {
      "midi": 66,
      "hit": false,
      "t": 47000,
      "d": 174.47916666667152,
      "v": 102
    },
    {
      "midi": 70,
      "hit": false,
      "t": 47000,
      "d": 184.89583333333576,
      "v": 100
    },
    {
      "midi": 61,
      "hit": false,
      "t": 47000,
      "d": 205.72916666667152,
      "v": 104
    },
    {
      "midi": 42,
      "hit": false,
      "t": 47000,
      "d": 2968.7500000000073,
      "v": 100
    },
    {
      "midi": 54,
      "hit": false,
      "t": 47000,
      "d": 2979.1666666666715,
      "v": 104
    },
    {
      "midi": 70,
      "hit": false,
      "t": 47500.00000000001,
      "d": 205.72916666666424,
      "v": 100
    },
    {
      "midi": 66,
      "hit": false,
      "t": 47500.00000000001,
      "d": 216.14583333332848,
      "v": 93
    },
    {
      "midi": 61,
      "hit": false,
      "t": 47500.00000000001,
      "d": 934.8958333333285,
      "v": 104
    },
    {
      "midi": 68,
      "hit": false,
      "t": 47750,
      "d": 247.39583333333576,
      "v": 100
    },
    {
      "midi": 65,
      "hit": false,
      "t": 47750,
      "d": 265.625,
      "v": 98
    },
    {
      "midi": 70,
      "hit": false,
      "t": 48000,
      "d": 414.0625,
      "v": 96
    },
    {
      "midi": 66,
      "hit": false,
      "t": 48000,
      "d": 434.89583333333576,
      "v": 98
    },
    {
      "midi": 70,
      "hit": false,
      "t": 48500,
      "d": 216.14583333332848,
      "v": 96
    },
    {
      "midi": 66,
      "hit": false,
      "t": 48500,
      "d": 231.77083333332848,
      "v": 94
    },
    {
      "midi": 61,
      "hit": false,
      "t": 48500,
      "d": 911.4583333333285,
      "v": 106
    },
    {
      "midi": 68,
      "hit": false,
      "t": 48749.99999999999,
      "d": 244.79166666666424,
      "v": 93
    },
    {
      "midi": 65,
      "hit": false,
      "t": 48749.99999999999,
      "d": 263.02083333333576,
      "v": 100
    },
    {
      "midi": 70,
      "hit": false,
      "t": 48999.99999999999,
      "d": 351.5625,
      "v": 96
    },
    {
      "midi": 66,
      "hit": false,
      "t": 48999.99999999999,
      "d": 382.8125,
      "v": 102
    },
    {
      "midi": 66,
      "hit": false,
      "t": 49500,
      "d": 437.5,
      "v": 106
    },
    {
      "midi": 61,
      "hit": false,
      "t": 49500,
      "d": 442.70833333333576,
      "v": 106
    },
    {
      "midi": 70,
      "hit": false,
      "t": 49500,
      "d": 463.5416666666715,
      "v": 106
    },
    {
      "midi": 71,
      "hit": false,
      "t": 50000.00000000001,
      "d": 346.35416666666424,
      "v": 104
    },
    {
      "midi": 66,
      "hit": false,
      "t": 50000.00000000001,
      "d": 348.9583333333285,
      "v": 100
    },
    {
      "midi": 63,
      "hit": false,
      "t": 50000.00000000001,
      "d": 408.85416666666424,
      "v": 100
    },
    {
      "midi": 47,
      "hit": false,
      "t": 50000.00000000001,
      "d": 541.6666666666642,
      "v": 100
    },
    {
      "midi": 71,
      "hit": false,
      "t": 50500.00000000001,
      "d": 96.35416666666424,
      "v": 102
    },
    {
      "midi": 63,
      "hit": false,
      "t": 50500.00000000001,
      "d": 119.79166666666424,
      "v": 104
    },
    {
      "midi": 66,
      "hit": false,
      "t": 50500.00000000001,
      "d": 135.41666666666424,
      "v": 98
    },
    {
      "midi": 70,
      "hit": false,
      "t": 51000.00000000001,
      "d": 372.39583333333576,
      "v": 96
    },
    {
      "midi": 66,
      "hit": false,
      "t": 51000.00000000001,
      "d": 382.8125,
      "v": 102
    },
    {
      "midi": 61,
      "hit": false,
      "t": 51000.00000000001,
      "d": 390.625,
      "v": 100
    },
    {
      "midi": 54,
      "hit": false,
      "t": 51000.00000000001,
      "d": 1677.083333333343,
      "v": 102
    },
    {
      "midi": 70,
      "hit": false,
      "t": 51500.00000000001,
      "d": 197.91666666666424,
      "v": 98
    },
    {
      "midi": 66,
      "hit": false,
      "t": 51500.00000000001,
      "d": 203.125,
      "v": 98
    },
    {
      "midi": 61,
      "hit": false,
      "t": 51500.00000000001,
      "d": 901.0416666666715,
      "v": 106
    },
    {
      "midi": 68,
      "hit": false,
      "t": 51750.00000000001,
      "d": 229.16666666666424,
      "v": 98
    },
    {
      "midi": 65,
      "hit": false,
      "t": 51750.00000000001,
      "d": 270.83333333333576,
      "v": 98
    },
    {
      "midi": 70,
      "hit": false,
      "t": 52000.00000000001,
      "d": 403.64583333333576,
      "v": 94
    },
    {
      "midi": 66,
      "hit": false,
      "t": 52000.00000000001,
      "d": 440.1041666666715,
      "v": 98
    },
    {
      "midi": 70,
      "hit": false,
      "t": 52500.000000000015,
      "d": 182.29166666667152,
      "v": 94
    },
    {
      "midi": 66,
      "hit": false,
      "t": 52500.000000000015,
      "d": 200.52083333333576,
      "v": 94
    },
    {
      "midi": 61,
      "hit": false,
      "t": 52500.000000000015,
      "d": 270.83333333333576,
      "v": 104
    },
    {
      "midi": 65,
      "hit": false,
      "t": 52750.000000000015,
      "d": 195.3125,
      "v": 98
    },
    {
      "midi": 68,
      "hit": false,
      "t": 52750.000000000015,
      "d": 229.16666666666424,
      "v": 94
    },
    {
      "midi": 71,
      "hit": false,
      "t": 53000.000000000015,
      "d": 411.4583333333285,
      "v": 100
    },
    {
      "midi": 63,
      "hit": false,
      "t": 53000.000000000015,
      "d": 419.2708333333285,
      "v": 102
    },
    {
      "midi": 66,
      "hit": false,
      "t": 53000.000000000015,
      "d": 427.0833333333285,
      "v": 102
    },
    {
      "midi": 47,
      "hit": false,
      "t": 53000.000000000015,
      "d": 833.3333333333212,
      "v": 104
    },
    {
      "midi": 66,
      "hit": false,
      "t": 53500.00000000001,
      "d": 286.4583333333285,
      "v": 98
    },
    {
      "midi": 71,
      "hit": false,
      "t": 53500.00000000001,
      "d": 289.0624999999927,
      "v": 100
    },
    {
      "midi": 63,
      "hit": false,
      "t": 53500.00000000001,
      "d": 312.4999999999927,
      "v": 102
    },
    {
      "midi": 68,
      "hit": false,
      "t": 53750.00000000001,
      "d": 223.95833333332848,
      "v": 96
    },
    {
      "midi": 71,
      "hit": false,
      "t": 54000,
      "d": 296.875,
      "v": 102
    },
    {
      "midi": 66,
      "hit": false,
      "t": 54000,
      "d": 299.47916666666424,
      "v": 100
    },
    {
      "midi": 63,
      "hit": false,
      "t": 54000,
      "d": 335.9375,
      "v": 106
    },
    {
      "midi": 47,
      "hit": false,
      "t": 54000,
      "d": 841.1458333333358,
      "v": 100
    },
    {
      "midi": 66,
      "hit": false,
      "t": 54500,
      "d": 268.22916666666424,
      "v": 100
    },
    {
      "midi": 71,
      "hit": false,
      "t": 54500,
      "d": 273.4375,
      "v": 100
    },
    {
      "midi": 63,
      "hit": false,
      "t": 54500,
      "d": 289.0625,
      "v": 104
    },
    {
      "midi": 68,
      "hit": false,
      "t": 54750,
      "d": 239.58333333333576,
      "v": 88
    },
    {
      "midi": 71,
      "hit": false,
      "t": 55000,
      "d": 328.125,
      "v": 100
    },
    {
      "midi": 63,
      "hit": false,
      "t": 55000,
      "d": 348.95833333333576,
      "v": 104
    },
    {
      "midi": 66,
      "hit": false,
      "t": 55000,
      "d": 354.1666666666715,
      "v": 96
    },
    {
      "midi": 47,
      "hit": false,
      "t": 55000,
      "d": 911.4583333333358,
      "v": 104
    },
    {
      "midi": 66,
      "hit": false,
      "t": 55500.00000000001,
      "d": 260.41666666666424,
      "v": 98
    },
    {
      "midi": 71,
      "hit": false,
      "t": 55500.00000000001,
      "d": 296.875,
      "v": 98
    },
    {
      "midi": 63,
      "hit": false,
      "t": 55500.00000000001,
      "d": 388.0208333333285,
      "v": 102
    },
    {
      "midi": 68,
      "hit": false,
      "t": 55750.00000000001,
      "d": 247.39583333332848,
      "v": 91
    },
    {
      "midi": 63,
      "hit": false,
      "t": 56000,
      "d": 401.04166666666424,
      "v": 96
    },
    {
      "midi": 71,
      "hit": false,
      "t": 56000,
      "d": 401.04166666666424,
      "v": 96
    },
    {
      "midi": 66,
      "hit": false,
      "t": 56000,
      "d": 406.25,
      "v": 92
    },
    {
      "midi": 47,
      "hit": false,
      "t": 56000,
      "d": 697.9166666666715,
      "v": 104
    },
    {
      "midi": 66,
      "hit": false,
      "t": 56500,
      "d": 257.8125000000073,
      "v": 94
    },
    {
      "midi": 71,
      "hit": false,
      "t": 56500,
      "d": 265.6250000000073,
      "v": 94
    },
    {
      "midi": 63,
      "hit": false,
      "t": 56500,
      "d": 273.4375000000073,
      "v": 96
    },
    {
      "midi": 68,
      "hit": false,
      "t": 56750.00000000001,
      "d": 260.41666666666424,
      "v": 88
    },
    {
      "midi": 66,
      "hit": false,
      "t": 57000.00000000001,
      "d": 195.31249999999272,
      "v": 96
    },
    {
      "midi": 70,
      "hit": false,
      "t": 57000.00000000001,
      "d": 197.91666666665697,
      "v": 96
    },
    {
      "midi": 61,
      "hit": false,
      "t": 57000.00000000001,
      "d": 249.99999999999272,
      "v": 96
    },
    {
      "midi": 54,
      "hit": false,
      "t": 57000.00000000001,
      "d": 1690.1041666666497,
      "v": 92
    },
    {
      "midi": 70,
      "hit": false,
      "t": 57500,
      "d": 218.75,
      "v": 92
    },
    {
      "midi": 66,
      "hit": false,
      "t": 57500,
      "d": 242.1875,
      "v": 98
    },
    {
      "midi": 61,
      "hit": false,
      "t": 57500,
      "d": 911.4583333333285,
      "v": 100
    },
    {
      "midi": 68,
      "hit": false,
      "t": 57750,
      "d": 200.52083333333576,
      "v": 89
    },
    {
      "midi": 65,
      "hit": false,
      "t": 57750,
      "d": 270.83333333333576,
      "v": 94
    },
    {
      "midi": 70,
      "hit": false,
      "t": 58000,
      "d": 393.22916666666424,
      "v": 86
    },
    {
      "midi": 66,
      "hit": false,
      "t": 58000,
      "d": 427.0833333333285,
      "v": 90
    },
    {
      "midi": 70,
      "hit": false,
      "t": 58499.99999999999,
      "d": 192.70833333332848,
      "v": 89
    },
    {
      "midi": 66,
      "hit": false,
      "t": 58499.99999999999,
      "d": 195.31249999999272,
      "v": 91
    },
    {
      "midi": 61,
      "hit": false,
      "t": 58499.99999999999,
      "d": 263.0208333333285,
      "v": 98
    },
    {
      "midi": 68,
      "hit": false,
      "t": 58749.999999999985,
      "d": 257.8125,
      "v": 94
    },
    {
      "midi": 65,
      "hit": false,
      "t": 58749.999999999985,
      "d": 294.27083333333576,
      "v": 94
    },
    {
      "midi": 70,
      "hit": false,
      "t": 58999.999999999985,
      "d": 367.1875,
      "v": 90
    },
    {
      "midi": 61,
      "hit": false,
      "t": 58999.999999999985,
      "d": 388.02083333333576,
      "v": 92
    },
    {
      "midi": 66,
      "hit": false,
      "t": 58999.999999999985,
      "d": 414.0625,
      "v": 92
    },
    {
      "midi": 54,
      "hit": false,
      "t": 58999.999999999985,
      "d": 744.7916666666642,
      "v": 96
    },
    {
      "midi": 66,
      "hit": false,
      "t": 59499.999999999985,
      "d": 190.10416666666424,
      "v": 90
    },
    {
      "midi": 70,
      "hit": false,
      "t": 59499.999999999985,
      "d": 216.14583333332848,
      "v": 88
    },
    {
      "midi": 61,
      "hit": false,
      "t": 59499.999999999985,
      "d": 257.8125,
      "v": 102
    },
    {
      "midi": 68,
      "hit": false,
      "t": 59749.999999999985,
      "d": 205.72916666666424,
      "v": 98
    },
    {
      "midi": 65,
      "hit": false,
      "t": 59749.999999999985,
      "d": 263.02083333333576,
      "v": 96
    },
    {
      "midi": 70,
      "hit": false,
      "t": 59999.999999999985,
      "d": 395.83333333333576,
      "v": 92
    },
    {
      "midi": 63,
      "hit": false,
      "t": 59999.999999999985,
      "d": 408.8541666666715,
      "v": 96
    },
    {
      "midi": 66,
      "hit": false,
      "t": 59999.999999999985,
      "d": 432.2916666666715,
      "v": 98
    },
    {
      "midi": 51,
      "hit": false,
      "t": 59999.999999999985,
      "d": 692.708333333343,
      "v": 113
    },
    {
      "midi": 70,
      "hit": false,
      "t": 60499.99999999999,
      "d": 177.08333333333576,
      "v": 92
    },
    {
      "midi": 66,
      "hit": false,
      "t": 60499.99999999999,
      "d": 179.6875,
      "v": 90
    },
    {
      "midi": 63,
      "hit": false,
      "t": 60499.99999999999,
      "d": 250,
      "v": 104
    },
    {
      "midi": 68,
      "hit": false,
      "t": 60749.99999999999,
      "d": 216.14583333332848,
      "v": 92
    },
    {
      "midi": 65,
      "hit": false,
      "t": 60749.99999999999,
      "d": 247.39583333332848,
      "v": 91
    },
    {
      "midi": 61,
      "hit": false,
      "t": 60999.999999999985,
      "d": 403.6458333333285,
      "v": 96
    },
    {
      "midi": 70,
      "hit": false,
      "t": 60999.999999999985,
      "d": 406.2499999999927,
      "v": 91
    },
    {
      "midi": 66,
      "hit": false,
      "t": 60999.999999999985,
      "d": 440.10416666665697,
      "v": 94
    },
    {
      "midi": 54,
      "hit": false,
      "t": 60999.999999999985,
      "d": 768.229166666657,
      "v": 102
    },
    {
      "midi": 61,
      "hit": false,
      "t": 61499.99999999998,
      "d": 117.1875,
      "v": 96
    },
    {
      "midi": 66,
      "hit": false,
      "t": 61499.99999999998,
      "d": 250,
      "v": 91
    },
    {
      "midi": 70,
      "hit": false,
      "t": 61499.99999999998,
      "d": 250,
      "v": 89
    },
    {
      "midi": 68,
      "hit": false,
      "t": 61999.99999999998,
      "d": 419.27083333333576,
      "v": 96
    },
    {
      "midi": 61,
      "hit": false,
      "t": 61999.99999999998,
      "d": 440.1041666666715,
      "v": 96
    },
    {
      "midi": 65,
      "hit": false,
      "t": 61999.99999999998,
      "d": 450.52083333333576,
      "v": 98
    },
    {
      "midi": 49,
      "hit": false,
      "t": 61999.99999999998,
      "d": 1781.2499999999854,
      "v": 98
    },
    {
      "midi": 65,
      "hit": false,
      "t": 62499.99999999998,
      "d": 213.54166666666424,
      "v": 100
    },
    {
      "midi": 68,
      "hit": false,
      "t": 62499.99999999998,
      "d": 216.14583333332848,
      "v": 92
    },
    {
      "midi": 61,
      "hit": false,
      "t": 62499.99999999998,
      "d": 268.22916666665697,
      "v": 98
    },
    {
      "midi": 63,
      "hit": false,
      "t": 62749.99999999997,
      "d": 223.95833333332848,
      "v": 102
    },
    {
      "midi": 66,
      "hit": false,
      "t": 62749.99999999997,
      "d": 236.97916666666424,
      "v": 96
    },
    {
      "midi": 68,
      "hit": false,
      "t": 62999.99999999997,
      "d": 416.66666666666424,
      "v": 91
    },
    {
      "midi": 65,
      "hit": false,
      "t": 62999.99999999997,
      "d": 453.125,
      "v": 98
    },
    {
      "midi": 61,
      "hit": false,
      "t": 62999.99999999997,
      "d": 460.9375,
      "v": 98
    },
    {
      "midi": 65,
      "hit": false,
      "t": 63499.99999999997,
      "d": 244.79166666666424,
      "v": 98
    },
    {
      "midi": 68,
      "hit": false,
      "t": 63499.99999999997,
      "d": 263.0208333333285,
      "v": 100
    },
    {
      "midi": 61,
      "hit": false,
      "t": 63499.99999999997,
      "d": 309.8958333333285,
      "v": 100
    },
    {
      "midi": 70,
      "hit": false,
      "t": 63999.99999999996,
      "d": 447.91666666666424,
      "v": 94
    },
    {
      "midi": 63,
      "hit": false,
      "t": 63999.99999999996,
      "d": 453.125,
      "v": 102
    },
    {
      "midi": 66,
      "hit": false,
      "t": 63999.99999999996,
      "d": 473.95833333333576,
      "v": 96
    },
    {
      "midi": 51,
      "hit": false,
      "t": 63999.99999999996,
      "d": 1919.2708333333358,
      "v": 98
    },
    {
      "midi": 70,
      "hit": false,
      "t": 64499.99999999996,
      "d": 210.9375,
      "v": 98
    },
    {
      "midi": 66,
      "hit": false,
      "t": 64499.99999999996,
      "d": 229.16666666666424,
      "v": 86
    },
    {
      "midi": 63,
      "hit": false,
      "t": 64499.99999999996,
      "d": 263.02083333333576,
      "v": 104
    },
    {
      "midi": 68,
      "hit": false,
      "t": 64749.99999999996,
      "d": 216.14583333333576,
      "v": 96
    },
    {
      "midi": 65,
      "hit": false,
      "t": 64749.99999999996,
      "d": 265.625,
      "v": 104
    },
    {
      "midi": 70,
      "hit": false,
      "t": 64999.99999999996,
      "d": 382.8125,
      "v": 91
    },
    {
      "midi": 63,
      "hit": false,
      "t": 64999.99999999996,
      "d": 411.45833333333576,
      "v": 102
    },
    {
      "midi": 66,
      "hit": false,
      "t": 64999.99999999996,
      "d": 429.6875,
      "v": 98
    },
    {
      "midi": 70,
      "hit": false,
      "t": 65499.99999999996,
      "d": 210.93750000000728,
      "v": 100
    },
    {
      "midi": 66,
      "hit": false,
      "t": 65499.99999999996,
      "d": 213.5416666666788,
      "v": 102
    },
    {
      "midi": 63,
      "hit": false,
      "t": 65499.99999999996,
      "d": 281.2500000000073,
      "v": 109
    },
    {
      "midi": 68,
      "hit": false,
      "t": 65749.99999999997,
      "d": 231.77083333332848,
      "v": 98
    },
    {
      "midi": 65,
      "hit": false,
      "t": 65749.99999999997,
      "d": 291.6666666666715,
      "v": 104
    },
    {
      "midi": 70,
      "hit": false,
      "t": 65999.99999999997,
      "d": 429.6875,
      "v": 96
    },
    {
      "midi": 63,
      "hit": false,
      "t": 65999.99999999997,
      "d": 445.3125,
      "v": 106
    },
    {
      "midi": 66,
      "hit": false,
      "t": 65999.99999999997,
      "d": 458.3333333333285,
      "v": 102
    },
    {
      "midi": 51,
      "hit": false,
      "t": 65999.99999999997,
      "d": 1500,
      "v": 102
    },
    {
      "midi": 70,
      "hit": false,
      "t": 66499.99999999997,
      "d": 203.125,
      "v": 96
    },
    {
      "midi": 66,
      "hit": false,
      "t": 66499.99999999997,
      "d": 205.72916666667152,
      "v": 100
    },
    {
      "midi": 63,
      "hit": false,
      "t": 66499.99999999997,
      "d": 278.6458333333285,
      "v": 109
    },
    {
      "midi": 65,
      "hit": false,
      "t": 66749.99999999997,
      "d": 289.0625,
      "v": 104
    },
    {
      "midi": 68,
      "hit": false,
      "t": 66749.99999999997,
      "d": 341.1458333333285,
      "v": 98
    },
    {
      "midi": 70,
      "hit": false,
      "t": 66999.99999999997,
      "d": 419.2708333333285,
      "v": 94
    },
    {
      "midi": 63,
      "hit": false,
      "t": 66999.99999999997,
      "d": 466.1458333333285,
      "v": 104
    },
    {
      "midi": 66,
      "hit": false,
      "t": 66999.99999999997,
      "d": 473.9583333333285,
      "v": 98
    },
    {
      "midi": 63,
      "hit": false,
      "t": 67499.99999999997,
      "d": 226.5625,
      "v": 104
    },
    {
      "midi": 70,
      "hit": false,
      "t": 67499.99999999997,
      "d": 229.16666666667152,
      "v": 104
    },
    {
      "midi": 51,
      "hit": false,
      "t": 67499.99999999997,
      "d": 234.375,
      "v": 100
    },
    {
      "midi": 66,
      "hit": false,
      "t": 67499.99999999997,
      "d": 244.79166666667152,
      "v": 104
    },
    {
      "midi": 68,
      "hit": false,
      "t": 67749.99999999997,
      "d": 231.77083333332848,
      "v": 98
    },
    {
      "midi": 65,
      "hit": false,
      "t": 67749.99999999997,
      "d": 236.97916666665697,
      "v": 102
    },
    {
      "midi": 65,
      "hit": false,
      "t": 67999.99999999996,
      "d": 236.97916666667152,
      "v": 101
    },
    {
      "midi": 56,
      "hit": false,
      "t": 67999.99999999996,
      "d": 247.39583333334303,
      "v": 94
    },
    {
      "midi": 61,
      "hit": false,
      "t": 67999.99999999996,
      "d": 273.43750000001455,
      "v": 104
    },
    {
      "midi": 37,
      "hit": false,
      "t": 67999.99999999996,
      "d": 578.1250000000146,
      "v": 86
    },
    {
      "midi": 49,
      "hit": false,
      "t": 67999.99999999996,
      "d": 583.333333333343,
      "v": 104
    },
    {
      "midi": 61,
      "hit": false,
      "t": 68499.99999999997,
      "d": 205.72916666665697,
      "v": 91
    },
    {
      "midi": 65,
      "hit": false,
      "t": 68499.99999999997,
      "d": 210.93749999998545,
      "v": 91
    },
    {
      "midi": 56,
      "hit": false,
      "t": 68499.99999999997,
      "d": 244.79166666665697,
      "v": 108
    },
    {
      "midi": 63,
      "hit": false,
      "t": 68749.99999999996,
      "d": 205.72916666667152,
      "v": 108
    },
    {
      "midi": 56,
      "hit": false,
      "t": 68999.99999999996,
      "d": 250,
      "v": 108
    },
    {
      "midi": 65,
      "hit": false,
      "t": 68999.99999999996,
      "d": 263.0208333333285,
      "v": 91
    },
    {
      "midi": 61,
      "hit": false,
      "t": 68999.99999999996,
      "d": 286.4583333333285,
      "v": 95
    },
    {
      "midi": 37,
      "hit": false,
      "t": 68999.99999999996,
      "d": 447.91666666665697,
      "v": 91
    },
    {
      "midi": 49,
      "hit": false,
      "t": 68999.99999999996,
      "d": 466.1458333333285,
      "v": 95
    },
    {
      "midi": 65,
      "hit": false,
      "t": 69499.99999999996,
      "d": 234.375,
      "v": 104
    },
    {
      "midi": 61,
      "hit": false,
      "t": 69499.99999999996,
      "d": 239.58333333332848,
      "v": 91
    },
    {
      "midi": 56,
      "hit": false,
      "t": 69499.99999999996,
      "d": 257.8125,
      "v": 108
    },
    {
      "midi": 63,
      "hit": false,
      "t": 69749.99999999996,
      "d": 223.95833333332848,
      "v": 100
    },
    {
      "midi": 56,
      "hit": false,
      "t": 69999.99999999996,
      "d": 252.60416666667152,
      "v": 108
    },
    {
      "midi": 65,
      "hit": false,
      "t": 69999.99999999996,
      "d": 270.83333333334303,
      "v": 91
    },
    {
      "midi": 61,
      "hit": false,
      "t": 69999.99999999996,
      "d": 302.08333333334303,
      "v": 83
    },
    {
      "midi": 37,
      "hit": false,
      "t": 69999.99999999996,
      "d": 312.50000000001455,
      "v": 100
    },
    {
      "midi": 49,
      "hit": false,
      "t": 69999.99999999996,
      "d": 343.75000000001455,
      "v": 100
    },
    {
      "midi": 65,
      "hit": false,
      "t": 70499.99999999997,
      "d": 242.1875,
      "v": 100
    },
    {
      "midi": 61,
      "hit": false,
      "t": 70499.99999999997,
      "d": 263.0208333333285,
      "v": 95
    },
    {
      "midi": 56,
      "hit": false,
      "t": 70499.99999999997,
      "d": 278.6458333333285,
      "v": 117
    },
    {
      "midi": 63,
      "hit": false,
      "t": 70749.99999999997,
      "d": 221.35416666667152,
      "v": 108
    },
    {
      "midi": 56,
      "hit": false,
      "t": 70999.99999999997,
      "d": 388.0208333333285,
      "v": 108
    },
    {
      "midi": 61,
      "hit": false,
      "t": 70999.99999999997,
      "d": 390.625,
      "v": 79
    },
    {
      "midi": 65,
      "hit": false,
      "t": 70999.99999999997,
      "d": 406.25,
      "v": 91
    },
    {
      "midi": 37,
      "hit": false,
      "t": 70999.99999999997,
      "d": 651.0416666666715,
      "v": 75
    },
    {
      "midi": 49,
      "hit": false,
      "t": 70999.99999999997,
      "d": 703.125,
      "v": 83
    },
    {
      "midi": 61,
      "hit": false,
      "t": 71499.99999999997,
      "d": 187.5,
      "v": 87
    },
    {
      "midi": 65,
      "hit": false,
      "t": 71499.99999999997,
      "d": 247.39583333332848,
      "v": 79
    },
    {
      "midi": 56,
      "hit": false,
      "t": 71499.99999999997,
      "d": 286.4583333333285,
      "v": 100
    },
    {
      "midi": 63,
      "hit": false,
      "t": 71749.99999999997,
      "d": 197.91666666665697,
      "v": 104
    },
    {
      "midi": 66,
      "hit": false,
      "t": 71999.99999999997,
      "d": 286.4583333333285,
      "v": 101
    },
    {
      "midi": 63,
      "hit": false,
      "t": 71999.99999999997,
      "d": 302.0833333333285,
      "v": 95
    },
    {
      "midi": 58,
      "hit": false,
      "t": 71999.99999999997,
      "d": 307.29166666665697,
      "v": 87
    },
    {
      "midi": 39,
      "hit": false,
      "t": 71999.99999999997,
      "d": 533.854166666657,
      "v": 80
    },
    {
      "midi": 51,
      "hit": false,
      "t": 71999.99999999997,
      "d": 552.0833333333285,
      "v": 77
    },
    {
      "midi": 66,
      "hit": false,
      "t": 72499.99999999996,
      "d": 164.06250000001455,
      "v": 75
    },
    {
      "midi": 58,
      "hit": false,
      "t": 72499.99999999996,
      "d": 169.27083333334303,
      "v": 95
    },
    {
      "midi": 63,
      "hit": false,
      "t": 72499.99999999996,
      "d": 210.93750000001455,
      "v": 95
    },
    {
      "midi": 56,
      "hit": false,
      "t": 72749.99999999997,
      "d": 122.39583333332848,
      "v": 91
    },
    {
      "midi": 65,
      "hit": false,
      "t": 72749.99999999997,
      "d": 179.6875,
      "v": 87
    },
    {
      "midi": 66,
      "hit": false,
      "t": 72999.99999999997,
      "d": 309.8958333333285,
      "v": 100
    },
    {
      "midi": 58,
      "hit": false,
      "t": 72999.99999999997,
      "d": 330.72916666665697,
      "v": 104
    },
    {
      "midi": 63,
      "hit": false,
      "t": 72999.99999999997,
      "d": 346.35416666665697,
      "v": 95
    },
    {
      "midi": 39,
      "hit": false,
      "t": 72999.99999999997,
      "d": 544.2708333333139,
      "v": 77
    },
    {
      "midi": 51,
      "hit": false,
      "t": 72999.99999999997,
      "d": 562.4999999999854,
      "v": 77
    },
    {
      "midi": 66,
      "hit": false,
      "t": 73499.99999999996,
      "d": 161.45833333332848,
      "v": 74
    },
    {
      "midi": 58,
      "hit": false,
      "t": 73499.99999999996,
      "d": 166.66666666665697,
      "v": 91
    },
    {
      "midi": 63,
      "hit": false,
      "t": 73499.99999999996,
      "d": 195.31249999998545,
      "v": 91
    },
    {
      "midi": 56,
      "hit": false,
      "t": 73749.99999999994,
      "d": 98.95833333332848,
      "v": 100
    },
    {
      "midi": 65,
      "hit": false,
      "t": 73749.99999999994,
      "d": 138.02083333332848,
      "v": 91
    },
    {
      "midi": 66,
      "hit": false,
      "t": 73999.99999999994,
      "d": 257.8125,
      "v": 95
    },
    {
      "midi": 63,
      "hit": false,
      "t": 73999.99999999994,
      "d": 286.4583333333285,
      "v": 113
    },
    {
      "midi": 58,
      "hit": false,
      "t": 73999.99999999994,
      "d": 289.0625,
      "v": 100
    },
    {
      "midi": 39,
      "hit": false,
      "t": 73999.99999999994,
      "d": 515.625,
      "v": 83
    },
    {
      "midi": 51,
      "hit": false,
      "t": 73999.99999999994,
      "d": 531.25,
      "v": 79
    },
    {
      "midi": 58,
      "hit": false,
      "t": 74499.99999999994,
      "d": 148.4375,
      "v": 104
    },
    {
      "midi": 63,
      "hit": false,
      "t": 74499.99999999994,
      "d": 153.64583333332848,
      "v": 95
    },
    {
      "midi": 66,
      "hit": false,
      "t": 74499.99999999994,
      "d": 177.08333333332848,
      "v": 83
    },
    {
      "midi": 56,
      "hit": false,
      "t": 74749.99999999994,
      "d": 88.54166666667152,
      "v": 104
    },
    {
      "midi": 65,
      "hit": false,
      "t": 74749.99999999994,
      "d": 138.02083333334303,
      "v": 91
    },
    {
      "midi": 66,
      "hit": false,
      "t": 74999.99999999996,
      "d": 348.9583333333285,
      "v": 87
    },
    {
      "midi": 63,
      "hit": false,
      "t": 74999.99999999996,
      "d": 372.3958333333285,
      "v": 104
    },
    {
      "midi": 58,
      "hit": false,
      "t": 74999.99999999996,
      "d": 377.60416666665697,
      "v": 100
    },
    {
      "midi": 39,
      "hit": false,
      "t": 74999.99999999996,
      "d": 903.6458333333139,
      "v": 77
    },
    {
      "midi": 51,
      "hit": false,
      "t": 74999.99999999996,
      "d": 911.4583333333139,
      "v": 87
    },
    {
      "midi": 58,
      "hit": false,
      "t": 75499.99999999994,
      "d": 447.91666666665697,
      "v": 83
    },
    {
      "midi": 63,
      "hit": false,
      "t": 75499.99999999994,
      "d": 453.12499999998545,
      "v": 91
    },
    {
      "midi": 66,
      "hit": false,
      "t": 75499.99999999994,
      "d": 468.74999999998545,
      "v": 79
    },
    {
      "midi": 71,
      "hit": false,
      "t": 75999.99999999993,
      "d": 348.95833333334303,
      "v": 106
    },
    {
      "midi": 66,
      "hit": false,
      "t": 75999.99999999993,
      "d": 375.00000000001455,
      "v": 104
    },
    {
      "midi": 63,
      "hit": false,
      "t": 75999.99999999993,
      "d": 398.43750000001455,
      "v": 97
    },
    {
      "midi": 47,
      "hit": false,
      "t": 75999.99999999993,
      "d": 502.60416666668607,
      "v": 106
    },
    {
      "midi": 71,
      "hit": false,
      "t": 76499.99999999994,
      "d": 91.14583333334303,
      "v": 100
    },
    {
      "midi": 66,
      "hit": false,
      "t": 76499.99999999994,
      "d": 98.95833333334303,
      "v": 102
    },
    {
      "midi": 63,
      "hit": false,
      "t": 76499.99999999994,
      "d": 106.77083333334303,
      "v": 108
    },
    {
      "midi": 66,
      "hit": false,
      "t": 76999.99999999996,
      "d": 174.47916666665697,
      "v": 102
    },
    {
      "midi": 70,
      "hit": false,
      "t": 76999.99999999996,
      "d": 184.89583333332848,
      "v": 100
    },
    {
      "midi": 61,
      "hit": false,
      "t": 76999.99999999996,
      "d": 205.72916666665697,
      "v": 104
    },
    {
      "midi": 42,
      "hit": false,
      "t": 76999.99999999996,
      "d": 2968.7499999999854,
      "v": 100
    },
    {
      "midi": 54,
      "hit": false,
      "t": 76999.99999999996,
      "d": 2979.166666666657,
      "v": 104
    },
    {
      "midi": 70,
      "hit": false,
      "t": 77499.99999999994,
      "d": 205.72916666667152,
      "v": 100
    },
    {
      "midi": 66,
      "hit": false,
      "t": 77499.99999999994,
      "d": 216.14583333334303,
      "v": 93
    },
    {
      "midi": 61,
      "hit": false,
      "t": 77499.99999999994,
      "d": 934.895833333343,
      "v": 104
    },
    {
      "midi": 68,
      "hit": false,
      "t": 77749.99999999996,
      "d": 247.39583333332848,
      "v": 100
    },
    {
      "midi": 65,
      "hit": false,
      "t": 77749.99999999996,
      "d": 265.625,
      "v": 98
    },
    {
      "midi": 70,
      "hit": false,
      "t": 77999.99999999996,
      "d": 414.0625,
      "v": 96
    },
    {
      "midi": 66,
      "hit": false,
      "t": 77999.99999999996,
      "d": 434.8958333333285,
      "v": 98
    },
    {
      "midi": 70,
      "hit": false,
      "t": 78499.99999999996,
      "d": 216.14583333334303,
      "v": 96
    },
    {
      "midi": 66,
      "hit": false,
      "t": 78499.99999999996,
      "d": 231.77083333334303,
      "v": 94
    },
    {
      "midi": 61,
      "hit": false,
      "t": 78499.99999999996,
      "d": 911.458333333343,
      "v": 106
    },
    {
      "midi": 68,
      "hit": false,
      "t": 78749.99999999997,
      "d": 244.79166666667152,
      "v": 93
    },
    {
      "midi": 65,
      "hit": false,
      "t": 78749.99999999997,
      "d": 263.0208333333285,
      "v": 100
    },
    {
      "midi": 70,
      "hit": false,
      "t": 78999.99999999997,
      "d": 351.5625,
      "v": 96
    },
    {
      "midi": 66,
      "hit": false,
      "t": 78999.99999999997,
      "d": 382.8125,
      "v": 102
    },
    {
      "midi": 66,
      "hit": false,
      "t": 79499.99999999996,
      "d": 437.5,
      "v": 106
    },
    {
      "midi": 61,
      "hit": false,
      "t": 79499.99999999996,
      "d": 442.7083333333285,
      "v": 106
    },
    {
      "midi": 70,
      "hit": false,
      "t": 79499.99999999996,
      "d": 463.54166666665697,
      "v": 106
    },
    {
      "midi": 71,
      "hit": false,
      "t": 79999.99999999994,
      "d": 346.3541666666715,
      "v": 104
    },
    {
      "midi": 66,
      "hit": false,
      "t": 79999.99999999994,
      "d": 348.95833333334303,
      "v": 100
    },
    {
      "midi": 63,
      "hit": false,
      "t": 79999.99999999994,
      "d": 408.8541666666715,
      "v": 100
    },
    {
      "midi": 47,
      "hit": false,
      "t": 79999.99999999994,
      "d": 541.6666666666715,
      "v": 100
    },
    {
      "midi": 71,
      "hit": false,
      "t": 80499.99999999994,
      "d": 96.35416666667152,
      "v": 102
    },
    {
      "midi": 63,
      "hit": false,
      "t": 80499.99999999994,
      "d": 119.79166666667152,
      "v": 104
    },
    {
      "midi": 66,
      "hit": false,
      "t": 80499.99999999994,
      "d": 135.41666666667152,
      "v": 98
    },
    {
      "midi": 70,
      "hit": false,
      "t": 80999.99999999994,
      "d": 372.3958333333285,
      "v": 96
    },
    {
      "midi": 66,
      "hit": false,
      "t": 80999.99999999994,
      "d": 382.8125,
      "v": 102
    },
    {
      "midi": 61,
      "hit": false,
      "t": 80999.99999999994,
      "d": 390.625,
      "v": 100
    },
    {
      "midi": 54,
      "hit": false,
      "t": 80999.99999999994,
      "d": 1677.083333333314,
      "v": 102
    },
    {
      "midi": 70,
      "hit": false,
      "t": 81499.99999999994,
      "d": 197.91666666667152,
      "v": 98
    },
    {
      "midi": 66,
      "hit": false,
      "t": 81499.99999999994,
      "d": 203.125,
      "v": 98
    },
    {
      "midi": 61,
      "hit": false,
      "t": 81499.99999999994,
      "d": 901.041666666657,
      "v": 106
    },
    {
      "midi": 68,
      "hit": false,
      "t": 81749.99999999994,
      "d": 229.16666666667152,
      "v": 98
    },
    {
      "midi": 65,
      "hit": false,
      "t": 81749.99999999994,
      "d": 270.8333333333285,
      "v": 98
    },
    {
      "midi": 70,
      "hit": false,
      "t": 81999.99999999994,
      "d": 403.6458333333285,
      "v": 94
    },
    {
      "midi": 66,
      "hit": false,
      "t": 81999.99999999994,
      "d": 440.10416666665697,
      "v": 98
    },
    {
      "midi": 70,
      "hit": false,
      "t": 82499.99999999993,
      "d": 182.29166666665697,
      "v": 94
    },
    {
      "midi": 66,
      "hit": false,
      "t": 82499.99999999993,
      "d": 200.52083333332848,
      "v": 94
    },
    {
      "midi": 61,
      "hit": false,
      "t": 82499.99999999993,
      "d": 270.8333333333285,
      "v": 104
    },
    {
      "midi": 65,
      "hit": false,
      "t": 82749.99999999993,
      "d": 195.3125,
      "v": 98
    },
    {
      "midi": 68,
      "hit": false,
      "t": 82749.99999999993,
      "d": 229.16666666667152,
      "v": 94
    },
    {
      "midi": 70,
      "hit": false,
      "t": 82999.99999999993,
      "d": 403.6458333333285,
      "v": 94
    },
    {
      "midi": 66,
      "hit": false,
      "t": 82999.99999999993,
      "d": 440.10416666665697,
      "v": 98
    },
    {
      "midi": 70,
      "hit": false,
      "t": 83499.99999999991,
      "d": 182.29166666667152,
      "v": 94
    },
    {
      "midi": 66,
      "hit": false,
      "t": 83499.99999999991,
      "d": 200.52083333334303,
      "v": 94
    },
    {
      "midi": 61,
      "hit": false,
      "t": 83499.99999999991,
      "d": 270.83333333334303,
      "v": 104
    },
    {
      "midi": 65,
      "hit": false,
      "t": 83749.99999999993,
      "d": 195.3125,
      "v": 98
    },
    {
      "midi": 68,
      "hit": false,
      "t": 83749.99999999993,
      "d": 229.16666666667152,
      "v": 94
    },
    {
      "midi": 71,
      "hit": false,
      "t": 83999.99999999993,
      "d": 411.45833333334303,
      "v": 100
    },
    {
      "midi": 63,
      "hit": false,
      "t": 83999.99999999993,
      "d": 419.27083333334303,
      "v": 102
    },
    {
      "midi": 66,
      "hit": false,
      "t": 83999.99999999993,
      "d": 427.08333333334303,
      "v": 102
    },
    {
      "midi": 47,
      "hit": false,
      "t": 83999.99999999993,
      "d": 833.3333333333576,
      "v": 104
    },
    {
      "midi": 66,
      "hit": false,
      "t": 84499.99999999994,
      "d": 286.45833333334303,
      "v": 98
    },
    {
      "midi": 71,
      "hit": false,
      "t": 84499.99999999994,
      "d": 289.06250000001455,
      "v": 100
    },
    {
      "midi": 63,
      "hit": false,
      "t": 84499.99999999994,
      "d": 312.50000000001455,
      "v": 102
    },
    {
      "midi": 68,
      "hit": false,
      "t": 84749.99999999994,
      "d": 223.95833333334303,
      "v": 96
    },
    {
      "midi": 71,
      "hit": false,
      "t": 84999.99999999996,
      "d": 296.875,
      "v": 102
    },
    {
      "midi": 66,
      "hit": false,
      "t": 84999.99999999996,
      "d": 299.4791666666715,
      "v": 100
    },
    {
      "midi": 63,
      "hit": false,
      "t": 84999.99999999996,
      "d": 335.9375,
      "v": 106
    },
    {
      "midi": 47,
      "hit": false,
      "t": 84999.99999999996,
      "d": 841.1458333333285,
      "v": 100
    },
    {
      "midi": 66,
      "hit": false,
      "t": 85499.99999999996,
      "d": 268.2291666666715,
      "v": 100
    },
    {
      "midi": 71,
      "hit": false,
      "t": 85499.99999999996,
      "d": 273.4375,
      "v": 100
    },
    {
      "midi": 63,
      "hit": false,
      "t": 85499.99999999996,
      "d": 289.0625,
      "v": 104
    },
    {
      "midi": 68,
      "hit": false,
      "t": 85749.99999999996,
      "d": 239.58333333332848,
      "v": 88
    },
    {
      "midi": 71,
      "hit": false,
      "t": 85999.99999999996,
      "d": 328.125,
      "v": 100
    },
    {
      "midi": 63,
      "hit": false,
      "t": 85999.99999999996,
      "d": 348.9583333333285,
      "v": 104
    },
    {
      "midi": 66,
      "hit": false,
      "t": 85999.99999999996,
      "d": 354.16666666665697,
      "v": 96
    },
    {
      "midi": 47,
      "hit": false,
      "t": 85999.99999999996,
      "d": 911.4583333333285,
      "v": 104
    },
    {
      "midi": 66,
      "hit": false,
      "t": 86499.99999999994,
      "d": 260.4166666666715,
      "v": 98
    },
    {
      "midi": 71,
      "hit": false,
      "t": 86499.99999999994,
      "d": 296.875,
      "v": 98
    },
    {
      "midi": 63,
      "hit": false,
      "t": 86499.99999999994,
      "d": 388.02083333334303,
      "v": 102
    },
    {
      "midi": 68,
      "hit": false,
      "t": 86749.99999999994,
      "d": 247.39583333334303,
      "v": 91
    },
    {
      "midi": 63,
      "hit": false,
      "t": 86999.99999999996,
      "d": 401.0416666666715,
      "v": 96
    },
    {
      "midi": 71,
      "hit": false,
      "t": 86999.99999999996,
      "d": 401.0416666666715,
      "v": 96
    },
    {
      "midi": 66,
      "hit": false,
      "t": 86999.99999999996,
      "d": 406.25,
      "v": 92
    },
    {
      "midi": 47,
      "hit": false,
      "t": 86999.99999999996,
      "d": 697.916666666657,
      "v": 104
    },
    {
      "midi": 66,
      "hit": false,
      "t": 87499.99999999996,
      "d": 257.81249999998545,
      "v": 94
    },
    {
      "midi": 71,
      "hit": false,
      "t": 87499.99999999996,
      "d": 265.62499999998545,
      "v": 94
    },
    {
      "midi": 63,
      "hit": false,
      "t": 87499.99999999996,
      "d": 273.43749999998545,
      "v": 96
    },
    {
      "midi": 68,
      "hit": false,
      "t": 87749.99999999994,
      "d": 260.4166666666715,
      "v": 88
    },
    {
      "midi": 66,
      "hit": false,
      "t": 87999.99999999994,
      "d": 195.31250000001455,
      "v": 96
    },
    {
      "midi": 70,
      "hit": false,
      "t": 87999.99999999994,
      "d": 197.91666666668607,
      "v": 96
    },
    {
      "midi": 61,
      "hit": false,
      "t": 87999.99999999994,
      "d": 250.00000000001455,
      "v": 96
    },
    {
      "midi": 54,
      "hit": false,
      "t": 87999.99999999994,
      "d": 1690.1041666667006,
      "v": 92
    },
    {
      "midi": 70,
      "hit": false,
      "t": 88499.99999999996,
      "d": 218.75,
      "v": 92
    },
    {
      "midi": 66,
      "hit": false,
      "t": 88499.99999999996,
      "d": 242.1875,
      "v": 98
    },
    {
      "midi": 61,
      "hit": false,
      "t": 88499.99999999996,
      "d": 911.458333333343,
      "v": 100
    },
    {
      "midi": 68,
      "hit": false,
      "t": 88749.99999999996,
      "d": 200.52083333332848,
      "v": 89
    },
    {
      "midi": 65,
      "hit": false,
      "t": 88749.99999999996,
      "d": 270.8333333333285,
      "v": 94
    },
    {
      "midi": 70,
      "hit": false,
      "t": 88999.99999999996,
      "d": 393.2291666666715,
      "v": 86
    },
    {
      "midi": 66,
      "hit": false,
      "t": 88999.99999999996,
      "d": 427.08333333334303,
      "v": 90
    },
    {
      "midi": 70,
      "hit": false,
      "t": 89499.99999999997,
      "d": 192.70833333334303,
      "v": 89
    },
    {
      "midi": 66,
      "hit": false,
      "t": 89499.99999999997,
      "d": 195.31250000001455,
      "v": 91
    },
    {
      "midi": 61,
      "hit": false,
      "t": 89499.99999999997,
      "d": 263.02083333334303,
      "v": 98
    },
    {
      "midi": 68,
      "hit": false,
      "t": 89749.99999999999,
      "d": 257.8125,
      "v": 94
    },
    {
      "midi": 65,
      "hit": false,
      "t": 89749.99999999999,
      "d": 294.2708333333285,
      "v": 94
    },
    {
      "midi": 70,
      "hit": false,
      "t": 89999.99999999999,
      "d": 367.1875,
      "v": 90
    },
    {
      "midi": 61,
      "hit": false,
      "t": 89999.99999999999,
      "d": 388.0208333333285,
      "v": 92
    },
    {
      "midi": 66,
      "hit": false,
      "t": 89999.99999999999,
      "d": 414.0625,
      "v": 92
    },
    {
      "midi": 54,
      "hit": false,
      "t": 89999.99999999999,
      "d": 744.7916666666715,
      "v": 96
    },
    {
      "midi": 66,
      "hit": false,
      "t": 90499.99999999999,
      "d": 190.10416666667152,
      "v": 90
    },
    {
      "midi": 70,
      "hit": false,
      "t": 90499.99999999999,
      "d": 216.14583333334303,
      "v": 88
    },
    {
      "midi": 61,
      "hit": false,
      "t": 90499.99999999999,
      "d": 257.8125,
      "v": 102
    },
    {
      "midi": 68,
      "hit": false,
      "t": 90749.99999999999,
      "d": 205.72916666667152,
      "v": 98
    },
    {
      "midi": 65,
      "hit": false,
      "t": 90749.99999999999,
      "d": 263.0208333333285,
      "v": 96
    },
    {
      "midi": 70,
      "hit": false,
      "t": 90999.99999999999,
      "d": 395.8333333333285,
      "v": 92
    },
    {
      "midi": 63,
      "hit": false,
      "t": 90999.99999999999,
      "d": 408.85416666665697,
      "v": 96
    },
    {
      "midi": 66,
      "hit": false,
      "t": 90999.99999999999,
      "d": 432.29166666665697,
      "v": 98
    },
    {
      "midi": 51,
      "hit": false,
      "t": 90999.99999999999,
      "d": 692.7083333333139,
      "v": 113
    },
    {
      "midi": 70,
      "hit": false,
      "t": 91499.99999999997,
      "d": 177.08333333332848,
      "v": 92
    },
    {
      "midi": 66,
      "hit": false,
      "t": 91499.99999999997,
      "d": 179.6875,
      "v": 90
    },
    {
      "midi": 63,
      "hit": false,
      "t": 91499.99999999997,
      "d": 250,
      "v": 104
    },
    {
      "midi": 68,
      "hit": false,
      "t": 91749.99999999997,
      "d": 216.14583333334303,
      "v": 92
    },
    {
      "midi": 65,
      "hit": false,
      "t": 91749.99999999997,
      "d": 247.39583333334303,
      "v": 91
    },
    {
      "midi": 61,
      "hit": false,
      "t": 91999.99999999999,
      "d": 403.64583333334303,
      "v": 96
    },
    {
      "midi": 70,
      "hit": false,
      "t": 91999.99999999999,
      "d": 406.25000000001455,
      "v": 91
    },
    {
      "midi": 66,
      "hit": false,
      "t": 91999.99999999999,
      "d": 440.10416666668607,
      "v": 94
    },
    {
      "midi": 54,
      "hit": false,
      "t": 91999.99999999999,
      "d": 768.2291666666861,
      "v": 102
    },
    {
      "midi": 61,
      "hit": false,
      "t": 92500,
      "d": 117.1875,
      "v": 96
    },
    {
      "midi": 66,
      "hit": false,
      "t": 92500,
      "d": 250,
      "v": 91
    },
    {
      "midi": 70,
      "hit": false,
      "t": 92500,
      "d": 250,
      "v": 89
    },
    {
      "midi": 68,
      "hit": false,
      "t": 93000,
      "d": 419.2708333333285,
      "v": 96
    },
    {
      "midi": 61,
      "hit": false,
      "t": 93000,
      "d": 440.10416666665697,
      "v": 96
    },
    {
      "midi": 65,
      "hit": false,
      "t": 93000,
      "d": 450.5208333333285,
      "v": 98
    },
    {
      "midi": 49,
      "hit": false,
      "t": 93000,
      "d": 1781.250000000029,
      "v": 98
    },
    {
      "midi": 65,
      "hit": false,
      "t": 93500,
      "d": 213.54166666667152,
      "v": 100
    },
    {
      "midi": 68,
      "hit": false,
      "t": 93500,
      "d": 216.14583333334303,
      "v": 92
    },
    {
      "midi": 61,
      "hit": false,
      "t": 93500,
      "d": 268.22916666668607,
      "v": 98
    },
    {
      "midi": 63,
      "hit": false,
      "t": 93750.00000000001,
      "d": 223.95833333334303,
      "v": 102
    },
    {
      "midi": 66,
      "hit": false,
      "t": 93750.00000000001,
      "d": 236.97916666667152,
      "v": 96
    },
    {
      "midi": 68,
      "hit": false,
      "t": 94000.00000000001,
      "d": 416.6666666666715,
      "v": 91
    },
    {
      "midi": 65,
      "hit": false,
      "t": 94000.00000000001,
      "d": 453.125,
      "v": 98
    },
    {
      "midi": 61,
      "hit": false,
      "t": 94000.00000000001,
      "d": 460.9375,
      "v": 98
    },
    {
      "midi": 65,
      "hit": false,
      "t": 94500.00000000001,
      "d": 244.79166666667152,
      "v": 98
    },
    {
      "midi": 68,
      "hit": false,
      "t": 94500.00000000001,
      "d": 263.02083333334303,
      "v": 100
    },
    {
      "midi": 61,
      "hit": false,
      "t": 94500.00000000001,
      "d": 309.89583333334303,
      "v": 100
    },
    {
      "midi": 70,
      "hit": false,
      "t": 95000.00000000003,
      "d": 447.9166666666715,
      "v": 94
    },
    {
      "midi": 63,
      "hit": false,
      "t": 95000.00000000003,
      "d": 453.125,
      "v": 102
    },
    {
      "midi": 66,
      "hit": false,
      "t": 95000.00000000003,
      "d": 473.9583333333285,
      "v": 96
    },
    {
      "midi": 51,
      "hit": false,
      "t": 95000.00000000003,
      "d": 1919.2708333333285,
      "v": 98
    },
    {
      "midi": 70,
      "hit": false,
      "t": 95500.00000000003,
      "d": 210.9375,
      "v": 98
    },
    {
      "midi": 66,
      "hit": false,
      "t": 95500.00000000003,
      "d": 229.16666666667152,
      "v": 86
    },
    {
      "midi": 63,
      "hit": false,
      "t": 95500.00000000003,
      "d": 263.0208333333285,
      "v": 104
    },
    {
      "midi": 68,
      "hit": false,
      "t": 95750.00000000003,
      "d": 216.14583333332848,
      "v": 96
    },
    {
      "midi": 65,
      "hit": false,
      "t": 95750.00000000003,
      "d": 265.625,
      "v": 104
    },
    {
      "midi": 70,
      "hit": false,
      "t": 96000.00000000003,
      "d": 382.8125,
      "v": 91
    },
    {
      "midi": 63,
      "hit": false,
      "t": 96000.00000000003,
      "d": 411.4583333333285,
      "v": 102
    },
    {
      "midi": 66,
      "hit": false,
      "t": 96000.00000000003,
      "d": 429.6875,
      "v": 98
    },
    {
      "midi": 70,
      "hit": false,
      "t": 96500.00000000003,
      "d": 210.9375,
      "v": 100
    },
    {
      "midi": 66,
      "hit": false,
      "t": 96500.00000000003,
      "d": 213.54166666667152,
      "v": 102
    },
    {
      "midi": 63,
      "hit": false,
      "t": 96500.00000000003,
      "d": 281.25,
      "v": 109
    },
    {
      "midi": 68,
      "hit": false,
      "t": 96750.00000000003,
      "d": 231.77083333332848,
      "v": 98
    },
    {
      "midi": 65,
      "hit": false,
      "t": 96750.00000000003,
      "d": 291.6666666666715,
      "v": 104
    },
    {
      "midi": 70,
      "hit": false,
      "t": 97000.00000000003,
      "d": 429.6875,
      "v": 96
    },
    {
      "midi": 63,
      "hit": false,
      "t": 97000.00000000003,
      "d": 445.3125,
      "v": 106
    },
    {
      "midi": 66,
      "hit": false,
      "t": 97000.00000000003,
      "d": 458.3333333333285,
      "v": 102
    },
    {
      "midi": 51,
      "hit": false,
      "t": 97000.00000000003,
      "d": 1500,
      "v": 102
    },
    {
      "midi": 70,
      "hit": false,
      "t": 97500.00000000003,
      "d": 203.125,
      "v": 96
    },
    {
      "midi": 66,
      "hit": false,
      "t": 97500.00000000003,
      "d": 205.72916666667152,
      "v": 100
    },
    {
      "midi": 63,
      "hit": false,
      "t": 97500.00000000003,
      "d": 278.6458333333285,
      "v": 109
    },
    {
      "midi": 65,
      "hit": false,
      "t": 97750.00000000003,
      "d": 289.0625,
      "v": 104
    },
    {
      "midi": 68,
      "hit": false,
      "t": 97750.00000000003,
      "d": 341.1458333333285,
      "v": 98
    },
    {
      "midi": 70,
      "hit": false,
      "t": 98000.00000000003,
      "d": 419.2708333333285,
      "v": 94
    },
    {
      "midi": 63,
      "hit": false,
      "t": 98000.00000000003,
      "d": 466.1458333333285,
      "v": 104
    },
    {
      "midi": 66,
      "hit": false,
      "t": 98000.00000000003,
      "d": 473.9583333333285,
      "v": 98
    },
    {
      "midi": 63,
      "hit": false,
      "t": 98500.00000000003,
      "d": 226.5625,
      "v": 104
    },
    {
      "midi": 70,
      "hit": false,
      "t": 98500.00000000003,
      "d": 229.16666666667152,
      "v": 104
    },
    {
      "midi": 51,
      "hit": false,
      "t": 98500.00000000003,
      "d": 234.375,
      "v": 100
    },
    {
      "midi": 66,
      "hit": false,
      "t": 98500.00000000003,
      "d": 244.79166666667152,
      "v": 104
    },
    {
      "midi": 68,
      "hit": false,
      "t": 98750.00000000003,
      "d": 231.77083333332848,
      "v": 98
    },
    {
      "midi": 65,
      "hit": false,
      "t": 98750.00000000003,
      "d": 236.97916666665697,
      "v": 102
    },
    {
      "midi": 65,
      "hit": false,
      "t": 99000.00000000001,
      "d": 236.97916666667152,
      "v": 101
    },
    {
      "midi": 56,
      "hit": false,
      "t": 99000.00000000001,
      "d": 247.39583333334303,
      "v": 94
    },
    {
      "midi": 61,
      "hit": false,
      "t": 99000.00000000001,
      "d": 273.43750000001455,
      "v": 104
    },
    {
      "midi": 37,
      "hit": false,
      "t": 99000.00000000001,
      "d": 578.1250000000146,
      "v": 86
    },
    {
      "midi": 49,
      "hit": false,
      "t": 99000.00000000001,
      "d": 583.333333333343,
      "v": 104
    },
    {
      "midi": 61,
      "hit": false,
      "t": 99500.00000000003,
      "d": 205.72916666665697,
      "v": 91
    },
    {
      "midi": 65,
      "hit": false,
      "t": 99500.00000000003,
      "d": 210.93749999998545,
      "v": 91
    },
    {
      "midi": 56,
      "hit": false,
      "t": 99500.00000000003,
      "d": 244.79166666665697,
      "v": 108
    },
    {
      "midi": 63,
      "hit": false,
      "t": 99750.00000000001,
      "d": 205.72916666667152,
      "v": 108
    },
    {
      "midi": 56,
      "hit": false,
      "t": 100000.00000000001,
      "d": 250,
      "v": 108
    },
    {
      "midi": 65,
      "hit": false,
      "t": 100000.00000000001,
      "d": 263.0208333333285,
      "v": 91
    },
    {
      "midi": 61,
      "hit": false,
      "t": 100000.00000000001,
      "d": 286.4583333333285,
      "v": 95
    },
    {
      "midi": 37,
      "hit": false,
      "t": 100000.00000000001,
      "d": 447.91666666665697,
      "v": 91
    },
    {
      "midi": 49,
      "hit": false,
      "t": 100000.00000000001,
      "d": 466.1458333333285,
      "v": 95
    },
    {
      "midi": 65,
      "hit": false,
      "t": 100500.00000000001,
      "d": 234.375,
      "v": 104
    },
    {
      "midi": 61,
      "hit": false,
      "t": 100500.00000000001,
      "d": 239.58333333332848,
      "v": 91
    },
    {
      "midi": 56,
      "hit": false,
      "t": 100500.00000000001,
      "d": 257.8125,
      "v": 108
    },
    {
      "midi": 63,
      "hit": false,
      "t": 100750.00000000001,
      "d": 223.95833333332848,
      "v": 100
    },
    {
      "midi": 56,
      "hit": false,
      "t": 101000.00000000001,
      "d": 252.60416666667152,
      "v": 108
    },
    {
      "midi": 65,
      "hit": false,
      "t": 101000.00000000001,
      "d": 270.83333333334303,
      "v": 91
    },
    {
      "midi": 61,
      "hit": false,
      "t": 101000.00000000001,
      "d": 302.08333333334303,
      "v": 83
    },
    {
      "midi": 37,
      "hit": false,
      "t": 101000.00000000001,
      "d": 312.50000000001455,
      "v": 100
    },
    {
      "midi": 49,
      "hit": false,
      "t": 101000.00000000001,
      "d": 343.75000000001455,
      "v": 100
    },
    {
      "midi": 65,
      "hit": false,
      "t": 101500.00000000003,
      "d": 242.1875,
      "v": 100
    },
    {
      "midi": 61,
      "hit": false,
      "t": 101500.00000000003,
      "d": 263.0208333333285,
      "v": 95
    },
    {
      "midi": 56,
      "hit": false,
      "t": 101500.00000000003,
      "d": 278.6458333333285,
      "v": 117
    },
    {
      "midi": 63,
      "hit": false,
      "t": 101750.00000000003,
      "d": 221.35416666667152,
      "v": 108
    },
    {
      "midi": 56,
      "hit": false,
      "t": 102000.00000000003,
      "d": 388.0208333333285,
      "v": 108
    },
    {
      "midi": 61,
      "hit": false,
      "t": 102000.00000000003,
      "d": 390.625,
      "v": 79
    },
    {
      "midi": 65,
      "hit": false,
      "t": 102000.00000000003,
      "d": 406.25,
      "v": 91
    },
    {
      "midi": 37,
      "hit": false,
      "t": 102000.00000000003,
      "d": 651.0416666666715,
      "v": 75
    },
    {
      "midi": 49,
      "hit": false,
      "t": 102000.00000000003,
      "d": 703.125,
      "v": 83
    },
    {
      "midi": 61,
      "hit": false,
      "t": 102500.00000000003,
      "d": 187.5,
      "v": 87
    },
    {
      "midi": 65,
      "hit": false,
      "t": 102500.00000000003,
      "d": 247.39583333332848,
      "v": 79
    },
    {
      "midi": 56,
      "hit": false,
      "t": 102500.00000000003,
      "d": 286.4583333333285,
      "v": 100
    },
    {
      "midi": 63,
      "hit": false,
      "t": 102750.00000000003,
      "d": 197.91666666665697,
      "v": 104
    },
    {
      "midi": 66,
      "hit": false,
      "t": 103000.00000000003,
      "d": 286.4583333333285,
      "v": 101
    },
    {
      "midi": 63,
      "hit": false,
      "t": 103000.00000000003,
      "d": 302.0833333333285,
      "v": 95
    },
    {
      "midi": 58,
      "hit": false,
      "t": 103000.00000000003,
      "d": 307.29166666665697,
      "v": 87
    },
    {
      "midi": 39,
      "hit": false,
      "t": 103000.00000000003,
      "d": 533.854166666657,
      "v": 80
    },
    {
      "midi": 51,
      "hit": false,
      "t": 103000.00000000003,
      "d": 552.0833333333285,
      "v": 77
    },
    {
      "midi": 66,
      "hit": false,
      "t": 103500.00000000001,
      "d": 164.06250000001455,
      "v": 75
    },
    {
      "midi": 58,
      "hit": false,
      "t": 103500.00000000001,
      "d": 169.27083333334303,
      "v": 95
    },
    {
      "midi": 63,
      "hit": false,
      "t": 103500.00000000001,
      "d": 210.93750000001455,
      "v": 95
    },
    {
      "midi": 56,
      "hit": false,
      "t": 103750.00000000003,
      "d": 122.39583333332848,
      "v": 91
    },
    {
      "midi": 65,
      "hit": false,
      "t": 103750.00000000003,
      "d": 179.6875,
      "v": 87
    },
    {
      "midi": 66,
      "hit": false,
      "t": 104000.00000000003,
      "d": 309.8958333333285,
      "v": 100
    },
    {
      "midi": 58,
      "hit": false,
      "t": 104000.00000000003,
      "d": 330.72916666665697,
      "v": 104
    },
    {
      "midi": 63,
      "hit": false,
      "t": 104000.00000000003,
      "d": 346.35416666665697,
      "v": 95
    },
    {
      "midi": 39,
      "hit": false,
      "t": 104000.00000000003,
      "d": 544.2708333333139,
      "v": 77
    },
    {
      "midi": 51,
      "hit": false,
      "t": 104000.00000000003,
      "d": 562.4999999999854,
      "v": 77
    },
    {
      "midi": 66,
      "hit": false,
      "t": 104500.00000000001,
      "d": 161.45833333332848,
      "v": 74
    },
    {
      "midi": 58,
      "hit": false,
      "t": 104500.00000000001,
      "d": 166.66666666665697,
      "v": 91
    },
    {
      "midi": 63,
      "hit": false,
      "t": 104500.00000000001,
      "d": 195.31249999998545,
      "v": 91
    },
    {
      "midi": 56,
      "hit": false,
      "t": 104750,
      "d": 98.95833333332848,
      "v": 100
    },
    {
      "midi": 65,
      "hit": false,
      "t": 104750,
      "d": 138.02083333332848,
      "v": 91
    },
    {
      "midi": 66,
      "hit": false,
      "t": 105000,
      "d": 257.8125,
      "v": 95
    },
    {
      "midi": 63,
      "hit": false,
      "t": 105000,
      "d": 286.4583333333285,
      "v": 113
    },
    {
      "midi": 58,
      "hit": false,
      "t": 105000,
      "d": 289.0625,
      "v": 100
    },
    {
      "midi": 39,
      "hit": false,
      "t": 105000,
      "d": 515.625,
      "v": 83
    },
    {
      "midi": 51,
      "hit": false,
      "t": 105000,
      "d": 531.25,
      "v": 79
    },
    {
      "midi": 58,
      "hit": false,
      "t": 105500,
      "d": 148.4375,
      "v": 104
    },
    {
      "midi": 63,
      "hit": false,
      "t": 105500,
      "d": 153.64583333332848,
      "v": 95
    },
    {
      "midi": 66,
      "hit": false,
      "t": 105500,
      "d": 177.08333333332848,
      "v": 83
    },
    {
      "midi": 56,
      "hit": false,
      "t": 105750,
      "d": 88.54166666667152,
      "v": 104
    },
    {
      "midi": 65,
      "hit": false,
      "t": 105750,
      "d": 138.02083333334303,
      "v": 91
    },
    {
      "midi": 66,
      "hit": false,
      "t": 106000.00000000001,
      "d": 348.9583333333285,
      "v": 87
    },
    {
      "midi": 63,
      "hit": false,
      "t": 106000.00000000001,
      "d": 372.3958333333285,
      "v": 104
    },
    {
      "midi": 58,
      "hit": false,
      "t": 106000.00000000001,
      "d": 377.60416666665697,
      "v": 100
    },
    {
      "midi": 39,
      "hit": false,
      "t": 106000.00000000001,
      "d": 903.6458333333139,
      "v": 77
    },
    {
      "midi": 51,
      "hit": false,
      "t": 106000.00000000001,
      "d": 911.4583333333139,
      "v": 87
    },
    {
      "midi": 58,
      "hit": false,
      "t": 106500,
      "d": 447.91666666665697,
      "v": 83
    },
    {
      "midi": 63,
      "hit": false,
      "t": 106500,
      "d": 453.12499999998545,
      "v": 91
    },
    {
      "midi": 66,
      "hit": false,
      "t": 106500,
      "d": 468.74999999998545,
      "v": 79
    },
    {
      "midi": 71,
      "hit": false,
      "t": 106999.99999999999,
      "d": 348.95833333334303,
      "v": 106
    },
    {
      "midi": 66,
      "hit": false,
      "t": 106999.99999999999,
      "d": 375.00000000001455,
      "v": 104
    },
    {
      "midi": 63,
      "hit": false,
      "t": 106999.99999999999,
      "d": 398.43750000001455,
      "v": 97
    },
    {
      "midi": 47,
      "hit": false,
      "t": 106999.99999999999,
      "d": 502.60416666668607,
      "v": 106
    },
    {
      "midi": 71,
      "hit": false,
      "t": 107500,
      "d": 91.14583333334303,
      "v": 100
    },
    {
      "midi": 66,
      "hit": false,
      "t": 107500,
      "d": 98.95833333334303,
      "v": 102
    },
    {
      "midi": 63,
      "hit": false,
      "t": 107500,
      "d": 106.77083333334303,
      "v": 108
    },
    {
      "midi": 66,
      "hit": false,
      "t": 108000.00000000001,
      "d": 174.47916666665697,
      "v": 102
    },
    {
      "midi": 70,
      "hit": false,
      "t": 108000.00000000001,
      "d": 184.89583333332848,
      "v": 100
    },
    {
      "midi": 61,
      "hit": false,
      "t": 108000.00000000001,
      "d": 205.72916666665697,
      "v": 104
    },
    {
      "midi": 42,
      "hit": false,
      "t": 108000.00000000001,
      "d": 2968.7499999999854,
      "v": 100
    },
    {
      "midi": 54,
      "hit": false,
      "t": 108000.00000000001,
      "d": 2979.166666666657,
      "v": 104
    },
    {
      "midi": 70,
      "hit": false,
      "t": 108500,
      "d": 205.72916666667152,
      "v": 100
    },
    {
      "midi": 66,
      "hit": false,
      "t": 108500,
      "d": 216.14583333334303,
      "v": 93
    },
    {
      "midi": 61,
      "hit": false,
      "t": 108500,
      "d": 934.895833333343,
      "v": 104
    },
    {
      "midi": 68,
      "hit": false,
      "t": 108750.00000000001,
      "d": 247.39583333332848,
      "v": 100
    },
    {
      "midi": 65,
      "hit": false,
      "t": 108750.00000000001,
      "d": 265.625,
      "v": 98
    },
    {
      "midi": 70,
      "hit": false,
      "t": 109000.00000000001,
      "d": 414.0625,
      "v": 96
    },
    {
      "midi": 66,
      "hit": false,
      "t": 109000.00000000001,
      "d": 434.8958333333285,
      "v": 98
    },
    {
      "midi": 70,
      "hit": false,
      "t": 109500.00000000001,
      "d": 216.14583333334303,
      "v": 96
    },
    {
      "midi": 66,
      "hit": false,
      "t": 109500.00000000001,
      "d": 231.77083333334303,
      "v": 94
    },
    {
      "midi": 61,
      "hit": false,
      "t": 109500.00000000001,
      "d": 911.458333333343,
      "v": 106
    },
    {
      "midi": 68,
      "hit": false,
      "t": 109750.00000000003,
      "d": 244.79166666667152,
      "v": 93
    },
    {
      "midi": 65,
      "hit": false,
      "t": 109750.00000000003,
      "d": 263.0208333333285,
      "v": 100
    },
    {
      "midi": 70,
      "hit": false,
      "t": 110000.00000000003,
      "d": 351.5625,
      "v": 96
    },
    {
      "midi": 66,
      "hit": false,
      "t": 110000.00000000003,
      "d": 382.8125,
      "v": 102
    },
    {
      "midi": 66,
      "hit": false,
      "t": 110500.00000000001,
      "d": 437.5,
      "v": 106
    },
    {
      "midi": 61,
      "hit": false,
      "t": 110500.00000000001,
      "d": 442.7083333333285,
      "v": 106
    },
    {
      "midi": 70,
      "hit": false,
      "t": 110500.00000000001,
      "d": 463.54166666665697,
      "v": 106
    },
    {
      "midi": 71,
      "hit": false,
      "t": 111000,
      "d": 346.3541666666715,
      "v": 104
    },
    {
      "midi": 66,
      "hit": false,
      "t": 111000,
      "d": 348.95833333334303,
      "v": 100
    },
    {
      "midi": 63,
      "hit": false,
      "t": 111000,
      "d": 408.8541666666715,
      "v": 100
    },
    {
      "midi": 47,
      "hit": false,
      "t": 111000,
      "d": 541.6666666666715,
      "v": 100
    },
    {
      "midi": 71,
      "hit": false,
      "t": 111500,
      "d": 96.35416666667152,
      "v": 102
    },
    {
      "midi": 63,
      "hit": false,
      "t": 111500,
      "d": 119.79166666667152,
      "v": 104
    },
    {
      "midi": 66,
      "hit": false,
      "t": 111500,
      "d": 135.41666666667152,
      "v": 98
    },
    {
      "midi": 70,
      "hit": false,
      "t": 112000,
      "d": 372.3958333333285,
      "v": 96
    },
    {
      "midi": 66,
      "hit": false,
      "t": 112000,
      "d": 382.8125,
      "v": 102
    },
    {
      "midi": 61,
      "hit": false,
      "t": 112000,
      "d": 390.625,
      "v": 100
    },
    {
      "midi": 54,
      "hit": false,
      "t": 112000,
      "d": 1677.083333333314,
      "v": 102
    },
    {
      "midi": 70,
      "hit": false,
      "t": 112500,
      "d": 197.91666666667152,
      "v": 98
    },
    {
      "midi": 66,
      "hit": false,
      "t": 112500,
      "d": 203.125,
      "v": 98
    },
    {
      "midi": 61,
      "hit": false,
      "t": 112500,
      "d": 901.041666666657,
      "v": 106
    },
    {
      "midi": 68,
      "hit": false,
      "t": 112750,
      "d": 229.16666666667152,
      "v": 98
    },
    {
      "midi": 65,
      "hit": false,
      "t": 112750,
      "d": 270.8333333333285,
      "v": 98
    },
    {
      "midi": 70,
      "hit": false,
      "t": 113000,
      "d": 403.6458333333285,
      "v": 94
    },
    {
      "midi": 66,
      "hit": false,
      "t": 113000,
      "d": 440.10416666665697,
      "v": 98
    },
    {
      "midi": 70,
      "hit": false,
      "t": 113499.99999999999,
      "d": 182.29166666665697,
      "v": 94
    },
    {
      "midi": 66,
      "hit": false,
      "t": 113499.99999999999,
      "d": 200.52083333332848,
      "v": 94
    },
    {
      "midi": 61,
      "hit": false,
      "t": 113499.99999999999,
      "d": 270.8333333333285,
      "v": 104
    },
    {
      "midi": 65,
      "hit": false,
      "t": 113749.99999999999,
      "d": 195.3125,
      "v": 98
    },
    {
      "midi": 68,
      "hit": false,
      "t": 113749.99999999999,
      "d": 229.16666666667152,
      "v": 94
    },
    {
      "midi": 71,
      "hit": false,
      "t": 113999.99999999999,
      "d": 411.45833333334303,
      "v": 100
    },
    {
      "midi": 63,
      "hit": false,
      "t": 113999.99999999999,
      "d": 419.27083333334303,
      "v": 102
    },
    {
      "midi": 66,
      "hit": false,
      "t": 113999.99999999999,
      "d": 427.08333333334303,
      "v": 102
    },
    {
      "midi": 47,
      "hit": false,
      "t": 113999.99999999999,
      "d": 833.3333333333576,
      "v": 104
    },
    {
      "midi": 66,
      "hit": false,
      "t": 114500,
      "d": 286.45833333334303,
      "v": 98
    },
    {
      "midi": 71,
      "hit": false,
      "t": 114500,
      "d": 289.06250000001455,
      "v": 100
    },
    {
      "midi": 63,
      "hit": false,
      "t": 114500,
      "d": 312.50000000001455,
      "v": 102
    },
    {
      "midi": 68,
      "hit": false,
      "t": 114750,
      "d": 223.95833333334303,
      "v": 96
    },
    {
      "midi": 71,
      "hit": false,
      "t": 115000.00000000001,
      "d": 296.875,
      "v": 102
    },
    {
      "midi": 66,
      "hit": false,
      "t": 115000.00000000001,
      "d": 299.4791666666715,
      "v": 100
    },
    {
      "midi": 63,
      "hit": false,
      "t": 115000.00000000001,
      "d": 335.9375,
      "v": 106
    },
    {
      "midi": 47,
      "hit": false,
      "t": 115000.00000000001,
      "d": 841.1458333333285,
      "v": 100
    },
    {
      "midi": 66,
      "hit": false,
      "t": 115500.00000000001,
      "d": 268.2291666666715,
      "v": 100
    },
    {
      "midi": 71,
      "hit": false,
      "t": 115500.00000000001,
      "d": 273.4375,
      "v": 100
    },
    {
      "midi": 63,
      "hit": false,
      "t": 115500.00000000001,
      "d": 289.0625,
      "v": 104
    },
    {
      "midi": 68,
      "hit": false,
      "t": 115750.00000000001,
      "d": 239.58333333332848,
      "v": 88
    },
    {
      "midi": 71,
      "hit": false,
      "t": 116000.00000000001,
      "d": 328.125,
      "v": 100
    },
    {
      "midi": 63,
      "hit": false,
      "t": 116000.00000000001,
      "d": 348.9583333333285,
      "v": 104
    },
    {
      "midi": 66,
      "hit": false,
      "t": 116000.00000000001,
      "d": 354.16666666665697,
      "v": 96
    },
    {
      "midi": 47,
      "hit": false,
      "t": 116000.00000000001,
      "d": 911.4583333333285,
      "v": 104
    },
    {
      "midi": 66,
      "hit": false,
      "t": 116500,
      "d": 260.4166666666715,
      "v": 98
    },
    {
      "midi": 71,
      "hit": false,
      "t": 116500,
      "d": 296.875,
      "v": 98
    },
    {
      "midi": 63,
      "hit": false,
      "t": 116500,
      "d": 388.02083333334303,
      "v": 102
    },
    {
      "midi": 68,
      "hit": false,
      "t": 116750,
      "d": 247.39583333334303,
      "v": 91
    },
    {
      "midi": 63,
      "hit": false,
      "t": 117000.00000000001,
      "d": 401.0416666666715,
      "v": 96
    },
    {
      "midi": 71,
      "hit": false,
      "t": 117000.00000000001,
      "d": 401.0416666666715,
      "v": 96
    },
    {
      "midi": 66,
      "hit": false,
      "t": 117000.00000000001,
      "d": 406.25,
      "v": 92
    },
    {
      "midi": 47,
      "hit": false,
      "t": 117000.00000000001,
      "d": 697.916666666657,
      "v": 104
    },
    {
      "midi": 66,
      "hit": false,
      "t": 117500.00000000001,
      "d": 257.81249999998545,
      "v": 94
    },
    {
      "midi": 71,
      "hit": false,
      "t": 117500.00000000001,
      "d": 265.62499999998545,
      "v": 94
    },
    {
      "midi": 63,
      "hit": false,
      "t": 117500.00000000001,
      "d": 273.43749999998545,
      "v": 96
    },
    {
      "midi": 68,
      "hit": false,
      "t": 117750,
      "d": 260.4166666666715,
      "v": 88
    },
    {
      "midi": 66,
      "hit": false,
      "t": 118000,
      "d": 195.31250000001455,
      "v": 96
    },
    {
      "midi": 70,
      "hit": false,
      "t": 118000,
      "d": 197.91666666668607,
      "v": 96
    },
    {
      "midi": 61,
      "hit": false,
      "t": 118000,
      "d": 250.00000000001455,
      "v": 96
    },
    {
      "midi": 54,
      "hit": false,
      "t": 118000,
      "d": 1690.1041666667006,
      "v": 92
    },
    {
      "midi": 70,
      "hit": false,
      "t": 118500.00000000001,
      "d": 218.75,
      "v": 92
    },
    {
      "midi": 66,
      "hit": false,
      "t": 118500.00000000001,
      "d": 242.1875,
      "v": 98
    },
    {
      "midi": 61,
      "hit": false,
      "t": 118500.00000000001,
      "d": 911.458333333343,
      "v": 100
    },
    {
      "midi": 68,
      "hit": false,
      "t": 118750.00000000001,
      "d": 200.52083333332848,
      "v": 89
    },
    {
      "midi": 65,
      "hit": false,
      "t": 118750.00000000001,
      "d": 270.8333333333285,
      "v": 94
    },
    {
      "midi": 70,
      "hit": false,
      "t": 119000.00000000001,
      "d": 393.2291666666715,
      "v": 86
    },
    {
      "midi": 66,
      "hit": false,
      "t": 119000.00000000001,
      "d": 427.08333333334303,
      "v": 90
    },
    {
      "midi": 70,
      "hit": false,
      "t": 119500.00000000003,
      "d": 192.70833333334303,
      "v": 89
    },
    {
      "midi": 66,
      "hit": false,
      "t": 119500.00000000003,
      "d": 195.31250000001455,
      "v": 91
    },
    {
      "midi": 61,
      "hit": false,
      "t": 119500.00000000003,
      "d": 263.02083333334303,
      "v": 98
    },
    {
      "midi": 68,
      "hit": false,
      "t": 119750.00000000004,
      "d": 257.8125,
      "v": 94
    },
    {
      "midi": 65,
      "hit": false,
      "t": 119750.00000000004,
      "d": 294.2708333333285,
      "v": 94
    },
    {
      "midi": 70,
      "hit": false,
      "t": 120000.00000000004,
      "d": 367.1875,
      "v": 90
    },
    {
      "midi": 61,
      "hit": false,
      "t": 120000.00000000004,
      "d": 388.0208333333285,
      "v": 92
    },
    {
      "midi": 66,
      "hit": false,
      "t": 120000.00000000004,
      "d": 414.0625,
      "v": 92
    },
    {
      "midi": 54,
      "hit": false,
      "t": 120000.00000000004,
      "d": 744.7916666666715,
      "v": 96
    },
    {
      "midi": 66,
      "hit": false,
      "t": 120500.00000000004,
      "d": 190.10416666667152,
      "v": 90
    },
    {
      "midi": 70,
      "hit": false,
      "t": 120500.00000000004,
      "d": 216.14583333334303,
      "v": 88
    },
    {
      "midi": 61,
      "hit": false,
      "t": 120500.00000000004,
      "d": 257.8125,
      "v": 102
    },
    {
      "midi": 68,
      "hit": false,
      "t": 120750.00000000004,
      "d": 205.72916666667152,
      "v": 98
    },
    {
      "midi": 65,
      "hit": false,
      "t": 120750.00000000004,
      "d": 263.0208333333285,
      "v": 96
    },
    {
      "midi": 70,
      "hit": false,
      "t": 121000.00000000004,
      "d": 395.8333333333285,
      "v": 92
    },
    {
      "midi": 63,
      "hit": false,
      "t": 121000.00000000004,
      "d": 408.85416666665697,
      "v": 96
    },
    {
      "midi": 66,
      "hit": false,
      "t": 121000.00000000004,
      "d": 432.29166666665697,
      "v": 98
    },
    {
      "midi": 51,
      "hit": false,
      "t": 121000.00000000004,
      "d": 692.7083333333139,
      "v": 113
    },
    {
      "midi": 70,
      "hit": false,
      "t": 121500.00000000003,
      "d": 177.08333333332848,
      "v": 92
    },
    {
      "midi": 66,
      "hit": false,
      "t": 121500.00000000003,
      "d": 179.6875,
      "v": 90
    },
    {
      "midi": 63,
      "hit": false,
      "t": 121500.00000000003,
      "d": 250,
      "v": 104
    },
    {
      "midi": 68,
      "hit": false,
      "t": 121750.00000000003,
      "d": 216.14583333334303,
      "v": 92
    },
    {
      "midi": 65,
      "hit": false,
      "t": 121750.00000000003,
      "d": 247.39583333334303,
      "v": 91
    },
    {
      "midi": 61,
      "hit": false,
      "t": 122000.00000000004,
      "d": 403.64583333334303,
      "v": 96
    },
    {
      "midi": 70,
      "hit": false,
      "t": 122000.00000000004,
      "d": 406.25000000001455,
      "v": 91
    },
    {
      "midi": 66,
      "hit": false,
      "t": 122000.00000000004,
      "d": 440.10416666668607,
      "v": 94
    },
    {
      "midi": 54,
      "hit": false,
      "t": 122000.00000000004,
      "d": 768.2291666666861,
      "v": 102
    },
    {
      "midi": 61,
      "hit": false,
      "t": 122500.00000000006,
      "d": 117.1875,
      "v": 96
    },
    {
      "midi": 66,
      "hit": false,
      "t": 122500.00000000006,
      "d": 250,
      "v": 91
    },
    {
      "midi": 70,
      "hit": false,
      "t": 122500.00000000006,
      "d": 250,
      "v": 89
    },
    {
      "midi": 61,
      "hit": false,
      "t": 123000.00000000006,
      "d": 403.64583333334303,
      "v": 96
    },
    {
      "midi": 70,
      "hit": false,
      "t": 123000.00000000006,
      "d": 406.25000000001455,
      "v": 91
    },
    {
      "midi": 66,
      "hit": false,
      "t": 123000.00000000006,
      "d": 440.10416666668607,
      "v": 94
    },
    {
      "midi": 54,
      "hit": false,
      "t": 123000.00000000006,
      "d": 768.2291666666861,
      "v": 102
    },
    {
      "midi": 61,
      "hit": false,
      "t": 123500.00000000007,
      "d": 117.1875,
      "v": 96
    },
    {
      "midi": 66,
      "hit": false,
      "t": 123500.00000000007,
      "d": 250,
      "v": 91
    },
    {
      "midi": 70,
      "hit": false,
      "t": 123500.00000000007,
      "d": 250,
      "v": 89
    },
    {
      "midi": 68,
      "hit": false,
      "t": 124000.00000000007,
      "d": 419.2708333333285,
      "v": 96
    },
    {
      "midi": 61,
      "hit": false,
      "t": 124000.00000000007,
      "d": 440.10416666665697,
      "v": 96
    },
    {
      "midi": 65,
      "hit": false,
      "t": 124000.00000000007,
      "d": 450.5208333333285,
      "v": 98
    },
    {
      "midi": 49,
      "hit": false,
      "t": 124000.00000000007,
      "d": 1781.250000000029,
      "v": 98
    },
    {
      "midi": 65,
      "hit": false,
      "t": 124500.00000000007,
      "d": 213.54166666667152,
      "v": 100
    },
    {
      "midi": 68,
      "hit": false,
      "t": 124500.00000000007,
      "d": 216.14583333334303,
      "v": 92
    },
    {
      "midi": 61,
      "hit": false,
      "t": 124500.00000000007,
      "d": 268.22916666668607,
      "v": 98
    },
    {
      "midi": 63,
      "hit": false,
      "t": 124750.00000000009,
      "d": 223.95833333334303,
      "v": 102
    },
    {
      "midi": 66,
      "hit": false,
      "t": 124750.00000000009,
      "d": 236.97916666667152,
      "v": 96
    },
    {
      "midi": 68,
      "hit": false,
      "t": 125000.00000000009,
      "d": 416.6666666666715,
      "v": 91
    },
    {
      "midi": 65,
      "hit": false,
      "t": 125000.00000000009,
      "d": 453.125,
      "v": 98
    },
    {
      "midi": 61,
      "hit": false,
      "t": 125000.00000000009,
      "d": 460.9375,
      "v": 98
    },
    {
      "midi": 65,
      "hit": false,
      "t": 125500.00000000009,
      "d": 244.79166666667152,
      "v": 98
    },
    {
      "midi": 68,
      "hit": false,
      "t": 125500.00000000009,
      "d": 263.02083333334303,
      "v": 100
    },
    {
      "midi": 61,
      "hit": false,
      "t": 125500.00000000009,
      "d": 309.89583333334303,
      "v": 100
    },
    {
      "midi": 70,
      "hit": false,
      "t": 126000.0000000001,
      "d": 447.9166666666715,
      "v": 94
    },
    {
      "midi": 63,
      "hit": false,
      "t": 126000.0000000001,
      "d": 453.125,
      "v": 102
    },
    {
      "midi": 66,
      "hit": false,
      "t": 126000.0000000001,
      "d": 473.9583333333285,
      "v": 96
    },
    {
      "midi": 51,
      "hit": false,
      "t": 126000.0000000001,
      "d": 1919.2708333333285,
      "v": 98
    },
    {
      "midi": 70,
      "hit": false,
      "t": 126500.0000000001,
      "d": 210.9375,
      "v": 98
    },
    {
      "midi": 66,
      "hit": false,
      "t": 126500.0000000001,
      "d": 229.16666666667152,
      "v": 86
    },
    {
      "midi": 63,
      "hit": false,
      "t": 126500.0000000001,
      "d": 263.0208333333285,
      "v": 104
    },
    {
      "midi": 68,
      "hit": false,
      "t": 126750.0000000001,
      "d": 216.14583333332848,
      "v": 96
    },
    {
      "midi": 65,
      "hit": false,
      "t": 126750.0000000001,
      "d": 265.625,
      "v": 104
    },
    {
      "midi": 70,
      "hit": false,
      "t": 127000.0000000001,
      "d": 382.8125,
      "v": 91
    },
    {
      "midi": 63,
      "hit": false,
      "t": 127000.0000000001,
      "d": 411.4583333333285,
      "v": 102
    },
    {
      "midi": 66,
      "hit": false,
      "t": 127000.0000000001,
      "d": 429.6875,
      "v": 98
    },
    {
      "midi": 70,
      "hit": false,
      "t": 127500.0000000001,
      "d": 210.9375,
      "v": 100
    },
    {
      "midi": 66,
      "hit": false,
      "t": 127500.0000000001,
      "d": 213.54166666667152,
      "v": 102
    },
    {
      "midi": 63,
      "hit": false,
      "t": 127500.0000000001,
      "d": 281.25,
      "v": 109
    },
    {
      "midi": 68,
      "hit": false,
      "t": 127750.0000000001,
      "d": 231.77083333332848,
      "v": 98
    },
    {
      "midi": 65,
      "hit": false,
      "t": 127750.0000000001,
      "d": 291.6666666666715,
      "v": 104
    },
    {
      "midi": 70,
      "hit": false,
      "t": 128000.0000000001,
      "d": 429.6875,
      "v": 96
    },
    {
      "midi": 63,
      "hit": false,
      "t": 128000.0000000001,
      "d": 445.3125,
      "v": 106
    },
    {
      "midi": 66,
      "hit": false,
      "t": 128000.0000000001,
      "d": 458.3333333333285,
      "v": 102
    },
    {
      "midi": 51,
      "hit": false,
      "t": 128000.0000000001,
      "d": 1500,
      "v": 102
    },
    {
      "midi": 70,
      "hit": false,
      "t": 128500.0000000001,
      "d": 203.125,
      "v": 96
    },
    {
      "midi": 66,
      "hit": false,
      "t": 128500.0000000001,
      "d": 205.72916666667152,
      "v": 100
    },
    {
      "midi": 63,
      "hit": false,
      "t": 128500.0000000001,
      "d": 278.6458333333285,
      "v": 109
    },
    {
      "midi": 65,
      "hit": false,
      "t": 128750.0000000001,
      "d": 289.0625,
      "v": 104
    },
    {
      "midi": 68,
      "hit": false,
      "t": 128750.0000000001,
      "d": 341.1458333333285,
      "v": 98
    },
    {
      "midi": 70,
      "hit": false,
      "t": 129000.0000000001,
      "d": 419.2708333333285,
      "v": 94
    },
    {
      "midi": 63,
      "hit": false,
      "t": 129000.0000000001,
      "d": 466.1458333333285,
      "v": 104
    },
    {
      "midi": 66,
      "hit": false,
      "t": 129000.0000000001,
      "d": 473.9583333333285,
      "v": 98
    },
    {
      "midi": 63,
      "hit": false,
      "t": 129500.0000000001,
      "d": 226.5625,
      "v": 104
    },
    {
      "midi": 70,
      "hit": false,
      "t": 129500.0000000001,
      "d": 229.16666666667152,
      "v": 104
    },
    {
      "midi": 51,
      "hit": false,
      "t": 129500.0000000001,
      "d": 234.375,
      "v": 100
    },
    {
      "midi": 66,
      "hit": false,
      "t": 129500.0000000001,
      "d": 244.79166666667152,
      "v": 104
    },
    {
      "midi": 68,
      "hit": false,
      "t": 129750.0000000001,
      "d": 231.77083333332848,
      "v": 98
    },
    {
      "midi": 65,
      "hit": false,
      "t": 129750.0000000001,
      "d": 236.97916666665697,
      "v": 102
    },
    {
      "midi": 65,
      "hit": false,
      "t": 130000.00000000009,
      "d": 236.97916666667152,
      "v": 101
    },
    {
      "midi": 56,
      "hit": false,
      "t": 130000.00000000009,
      "d": 247.39583333334303,
      "v": 94
    },
    {
      "midi": 61,
      "hit": false,
      "t": 130000.00000000009,
      "d": 273.43750000001455,
      "v": 104
    },
    {
      "midi": 37,
      "hit": false,
      "t": 130000.00000000009,
      "d": 578.1250000000146,
      "v": 86
    },
    {
      "midi": 49,
      "hit": false,
      "t": 130000.00000000009,
      "d": 583.333333333343,
      "v": 104
    },
    {
      "midi": 61,
      "hit": false,
      "t": 130500.0000000001,
      "d": 205.72916666665697,
      "v": 91
    },
    {
      "midi": 65,
      "hit": false,
      "t": 130500.0000000001,
      "d": 210.93749999998545,
      "v": 91
    },
    {
      "midi": 56,
      "hit": false,
      "t": 130500.0000000001,
      "d": 244.79166666665697,
      "v": 108
    },
    {
      "midi": 63,
      "hit": false,
      "t": 130750.00000000009,
      "d": 205.72916666667152,
      "v": 108
    },
    {
      "midi": 56,
      "hit": false,
      "t": 131000.00000000009,
      "d": 250,
      "v": 108
    },
    {
      "midi": 65,
      "hit": false,
      "t": 131000.00000000009,
      "d": 263.02083333334303,
      "v": 91
    },
    {
      "midi": 61,
      "hit": false,
      "t": 131000.00000000009,
      "d": 286.45833333334303,
      "v": 95
    },
    {
      "midi": 37,
      "hit": false,
      "t": 131000.00000000009,
      "d": 447.91666666668607,
      "v": 91
    },
    {
      "midi": 49,
      "hit": false,
      "t": 131000.00000000009,
      "d": 466.14583333334303,
      "v": 95
    },
    {
      "midi": 65,
      "hit": false,
      "t": 131500.0000000001,
      "d": 234.375,
      "v": 104
    },
    {
      "midi": 61,
      "hit": false,
      "t": 131500.0000000001,
      "d": 239.58333333334303,
      "v": 91
    },
    {
      "midi": 56,
      "hit": false,
      "t": 131500.0000000001,
      "d": 257.8125,
      "v": 108
    },
    {
      "midi": 63,
      "hit": false,
      "t": 131750.0000000001,
      "d": 223.95833333334303,
      "v": 100
    },
    {
      "midi": 56,
      "hit": false,
      "t": 132000.0000000001,
      "d": 252.60416666665697,
      "v": 108
    },
    {
      "midi": 65,
      "hit": false,
      "t": 132000.0000000001,
      "d": 270.83333333331393,
      "v": 91
    },
    {
      "midi": 61,
      "hit": false,
      "t": 132000.0000000001,
      "d": 302.08333333331393,
      "v": 83
    },
    {
      "midi": 37,
      "hit": false,
      "t": 132000.0000000001,
      "d": 312.4999999999709,
      "v": 100
    },
    {
      "midi": 49,
      "hit": false,
      "t": 132000.0000000001,
      "d": 343.7499999999709,
      "v": 100
    },
    {
      "midi": 65,
      "hit": false,
      "t": 132500.00000000006,
      "d": 242.1875,
      "v": 100
    },
    {
      "midi": 61,
      "hit": false,
      "t": 132500.00000000006,
      "d": 263.02083333334303,
      "v": 95
    },
    {
      "midi": 56,
      "hit": false,
      "t": 132500.00000000006,
      "d": 278.64583333334303,
      "v": 117
    },
    {
      "midi": 63,
      "hit": false,
      "t": 132750.00000000006,
      "d": 221.35416666665697,
      "v": 108
    },
    {
      "midi": 56,
      "hit": false,
      "t": 133000.00000000006,
      "d": 388.02083333334303,
      "v": 108
    },
    {
      "midi": 61,
      "hit": false,
      "t": 133000.00000000006,
      "d": 390.625,
      "v": 79
    },
    {
      "midi": 65,
      "hit": false,
      "t": 133000.00000000006,
      "d": 406.25,
      "v": 91
    },
    {
      "midi": 37,
      "hit": false,
      "t": 133000.00000000006,
      "d": 651.041666666657,
      "v": 75
    },
    {
      "midi": 49,
      "hit": false,
      "t": 133000.00000000006,
      "d": 703.125,
      "v": 83
    },
    {
      "midi": 61,
      "hit": false,
      "t": 133500.00000000006,
      "d": 187.5,
      "v": 87
    },
    {
      "midi": 65,
      "hit": false,
      "t": 133500.00000000006,
      "d": 247.39583333334303,
      "v": 79
    },
    {
      "midi": 56,
      "hit": false,
      "t": 133500.00000000006,
      "d": 286.45833333334303,
      "v": 100
    },
    {
      "midi": 63,
      "hit": false,
      "t": 133750.00000000006,
      "d": 197.91666666668607,
      "v": 104
    },
    {
      "midi": 66,
      "hit": false,
      "t": 134000.00000000006,
      "d": 286.45833333334303,
      "v": 101
    },
    {
      "midi": 63,
      "hit": false,
      "t": 134000.00000000006,
      "d": 302.08333333334303,
      "v": 95
    },
    {
      "midi": 58,
      "hit": false,
      "t": 134000.00000000006,
      "d": 307.29166666668607,
      "v": 87
    },
    {
      "midi": 39,
      "hit": false,
      "t": 134000.00000000006,
      "d": 533.8541666666861,
      "v": 80
    },
    {
      "midi": 51,
      "hit": false,
      "t": 134000.00000000006,
      "d": 552.083333333343,
      "v": 77
    },
    {
      "midi": 66,
      "hit": false,
      "t": 134500.0000000001,
      "d": 164.0624999999709,
      "v": 75
    },
    {
      "midi": 58,
      "hit": false,
      "t": 134500.0000000001,
      "d": 169.27083333331393,
      "v": 95
    },
    {
      "midi": 63,
      "hit": false,
      "t": 134500.0000000001,
      "d": 210.9374999999709,
      "v": 95
    },
    {
      "midi": 56,
      "hit": false,
      "t": 134750.00000000006,
      "d": 122.39583333334303,
      "v": 91
    },
    {
      "midi": 65,
      "hit": false,
      "t": 134750.00000000006,
      "d": 179.6875,
      "v": 87
    },
    {
      "midi": 66,
      "hit": false,
      "t": 135000.00000000006,
      "d": 309.89583333334303,
      "v": 100
    },
    {
      "midi": 58,
      "hit": false,
      "t": 135000.00000000006,
      "d": 330.72916666668607,
      "v": 104
    },
    {
      "midi": 63,
      "hit": false,
      "t": 135000.00000000006,
      "d": 346.35416666668607,
      "v": 95
    },
    {
      "midi": 39,
      "hit": false,
      "t": 135000.00000000006,
      "d": 544.2708333333721,
      "v": 77
    },
    {
      "midi": 51,
      "hit": false,
      "t": 135000.00000000006,
      "d": 562.5000000000291,
      "v": 77
    },
    {
      "midi": 66,
      "hit": false,
      "t": 135500.0000000001,
      "d": 161.45833333334303,
      "v": 74
    },
    {
      "midi": 58,
      "hit": false,
      "t": 135500.0000000001,
      "d": 166.66666666668607,
      "v": 91
    },
    {
      "midi": 63,
      "hit": false,
      "t": 135500.0000000001,
      "d": 195.3125000000291,
      "v": 91
    },
    {
      "midi": 56,
      "hit": false,
      "t": 135750.00000000012,
      "d": 98.95833333334303,
      "v": 100
    },
    {
      "midi": 65,
      "hit": false,
      "t": 135750.00000000012,
      "d": 138.02083333334303,
      "v": 91
    },
    {
      "midi": 66,
      "hit": false,
      "t": 136000.00000000012,
      "d": 257.8125,
      "v": 95
    },
    {
      "midi": 63,
      "hit": false,
      "t": 136000.00000000012,
      "d": 286.45833333334303,
      "v": 113
    },
    {
      "midi": 58,
      "hit": false,
      "t": 136000.00000000012,
      "d": 289.0625,
      "v": 100
    },
    {
      "midi": 39,
      "hit": false,
      "t": 136000.00000000012,
      "d": 515.625,
      "v": 83
    },
    {
      "midi": 51,
      "hit": false,
      "t": 136000.00000000012,
      "d": 531.25,
      "v": 79
    },
    {
      "midi": 58,
      "hit": false,
      "t": 136500.00000000012,
      "d": 148.4375,
      "v": 104
    },
    {
      "midi": 63,
      "hit": false,
      "t": 136500.00000000012,
      "d": 153.64583333334303,
      "v": 95
    },
    {
      "midi": 66,
      "hit": false,
      "t": 136500.00000000012,
      "d": 177.08333333334303,
      "v": 83
    },
    {
      "midi": 56,
      "hit": false,
      "t": 136750.00000000012,
      "d": 88.54166666665697,
      "v": 104
    },
    {
      "midi": 65,
      "hit": false,
      "t": 136750.00000000012,
      "d": 138.02083333331393,
      "v": 91
    },
    {
      "midi": 66,
      "hit": false,
      "t": 137000.0000000001,
      "d": 348.95833333334303,
      "v": 87
    },
    {
      "midi": 63,
      "hit": false,
      "t": 137000.0000000001,
      "d": 372.39583333334303,
      "v": 104
    },
    {
      "midi": 58,
      "hit": false,
      "t": 137000.0000000001,
      "d": 377.60416666668607,
      "v": 100
    },
    {
      "midi": 39,
      "hit": false,
      "t": 137000.0000000001,
      "d": 903.6458333333721,
      "v": 77
    },
    {
      "midi": 51,
      "hit": false,
      "t": 137000.0000000001,
      "d": 911.4583333333721,
      "v": 87
    },
    {
      "midi": 58,
      "hit": false,
      "t": 137500.00000000012,
      "d": 447.91666666668607,
      "v": 83
    },
    {
      "midi": 63,
      "hit": false,
      "t": 137500.00000000012,
      "d": 453.1250000000291,
      "v": 91
    },
    {
      "midi": 66,
      "hit": false,
      "t": 137500.00000000012,
      "d": 468.7500000000291,
      "v": 79
    },
    {
      "midi": 71,
      "hit": false,
      "t": 138000.00000000015,
      "d": 348.95833333331393,
      "v": 106
    },
    {
      "midi": 66,
      "hit": false,
      "t": 138000.00000000015,
      "d": 374.9999999999709,
      "v": 104
    },
    {
      "midi": 63,
      "hit": false,
      "t": 138000.00000000015,
      "d": 398.4374999999709,
      "v": 97
    },
    {
      "midi": 47,
      "hit": false,
      "t": 138000.00000000015,
      "d": 502.60416666662786,
      "v": 106
    },
    {
      "midi": 71,
      "hit": false,
      "t": 138500.00000000012,
      "d": 91.14583333331393,
      "v": 100
    },
    {
      "midi": 66,
      "hit": false,
      "t": 138500.00000000012,
      "d": 98.95833333331393,
      "v": 102
    },
    {
      "midi": 63,
      "hit": false,
      "t": 138500.00000000012,
      "d": 106.77083333331393,
      "v": 108
    },
    {
      "midi": 66,
      "hit": false,
      "t": 139000.0000000001,
      "d": 174.47916666668607,
      "v": 102
    },
    {
      "midi": 70,
      "hit": false,
      "t": 139000.0000000001,
      "d": 184.89583333334303,
      "v": 100
    },
    {
      "midi": 61,
      "hit": false,
      "t": 139000.0000000001,
      "d": 205.72916666668607,
      "v": 104
    },
    {
      "midi": 42,
      "hit": false,
      "t": 139000.0000000001,
      "d": 2968.750000000029,
      "v": 100
    },
    {
      "midi": 54,
      "hit": false,
      "t": 139000.0000000001,
      "d": 2979.166666666686,
      "v": 104
    },
    {
      "midi": 70,
      "hit": false,
      "t": 139500.00000000012,
      "d": 205.72916666665697,
      "v": 100
    },
    {
      "midi": 66,
      "hit": false,
      "t": 139500.00000000012,
      "d": 216.14583333331393,
      "v": 93
    },
    {
      "midi": 61,
      "hit": false,
      "t": 139500.00000000012,
      "d": 934.8958333333139,
      "v": 104
    },
    {
      "midi": 68,
      "hit": false,
      "t": 139750.0000000001,
      "d": 247.39583333334303,
      "v": 100
    },
    {
      "midi": 65,
      "hit": false,
      "t": 139750.0000000001,
      "d": 265.625,
      "v": 98
    },
    {
      "midi": 70,
      "hit": false,
      "t": 140000.0000000001,
      "d": 414.0625,
      "v": 96
    },
    {
      "midi": 66,
      "hit": false,
      "t": 140000.0000000001,
      "d": 434.89583333334303,
      "v": 98
    },
    {
      "midi": 70,
      "hit": false,
      "t": 140500.0000000001,
      "d": 216.14583333331393,
      "v": 96
    },
    {
      "midi": 66,
      "hit": false,
      "t": 140500.0000000001,
      "d": 231.77083333331393,
      "v": 94
    },
    {
      "midi": 61,
      "hit": false,
      "t": 140500.0000000001,
      "d": 911.4583333333139,
      "v": 106
    },
    {
      "midi": 68,
      "hit": false,
      "t": 140750.00000000006,
      "d": 244.79166666665697,
      "v": 93
    },
    {
      "midi": 65,
      "hit": false,
      "t": 140750.00000000006,
      "d": 263.02083333334303,
      "v": 100
    },
    {
      "midi": 70,
      "hit": false,
      "t": 141000.00000000006,
      "d": 351.5625,
      "v": 96
    },
    {
      "midi": 66,
      "hit": false,
      "t": 141000.00000000006,
      "d": 382.8125,
      "v": 102
    },
    {
      "midi": 66,
      "hit": false,
      "t": 141500.0000000001,
      "d": 437.5,
      "v": 106
    },
    {
      "midi": 61,
      "hit": false,
      "t": 141500.0000000001,
      "d": 442.70833333334303,
      "v": 106
    },
    {
      "midi": 70,
      "hit": false,
      "t": 141500.0000000001,
      "d": 463.54166666668607,
      "v": 106
    },
    {
      "midi": 71,
      "hit": false,
      "t": 142000.00000000012,
      "d": 346.35416666665697,
      "v": 104
    },
    {
      "midi": 66,
      "hit": false,
      "t": 142000.00000000012,
      "d": 348.95833333331393,
      "v": 100
    },
    {
      "midi": 63,
      "hit": false,
      "t": 142000.00000000012,
      "d": 408.85416666665697,
      "v": 100
    },
    {
      "midi": 47,
      "hit": false,
      "t": 142000.00000000012,
      "d": 541.666666666657,
      "v": 100
    },
    {
      "midi": 71,
      "hit": false,
      "t": 142500.00000000012,
      "d": 96.35416666665697,
      "v": 102
    },
    {
      "midi": 63,
      "hit": false,
      "t": 142500.00000000012,
      "d": 119.79166666665697,
      "v": 104
    },
    {
      "midi": 66,
      "hit": false,
      "t": 142500.00000000012,
      "d": 135.41666666665697,
      "v": 98
    },
    {
      "midi": 70,
      "hit": false,
      "t": 143000.00000000012,
      "d": 372.39583333334303,
      "v": 96
    },
    {
      "midi": 66,
      "hit": false,
      "t": 143000.00000000012,
      "d": 382.8125,
      "v": 102
    },
    {
      "midi": 61,
      "hit": false,
      "t": 143000.00000000012,
      "d": 390.625,
      "v": 100
    },
    {
      "midi": 54,
      "hit": false,
      "t": 143000.00000000012,
      "d": 1677.0833333333721,
      "v": 102
    },
    {
      "midi": 70,
      "hit": false,
      "t": 143500.00000000012,
      "d": 197.91666666665697,
      "v": 98
    },
    {
      "midi": 66,
      "hit": false,
      "t": 143500.00000000012,
      "d": 203.125,
      "v": 98
    },
    {
      "midi": 61,
      "hit": false,
      "t": 143500.00000000012,
      "d": 901.0416666666861,
      "v": 106
    },
    {
      "midi": 68,
      "hit": false,
      "t": 143750.00000000012,
      "d": 229.16666666665697,
      "v": 98
    },
    {
      "midi": 65,
      "hit": false,
      "t": 143750.00000000012,
      "d": 270.83333333334303,
      "v": 98
    },
    {
      "midi": 70,
      "hit": false,
      "t": 144000.00000000012,
      "d": 403.64583333334303,
      "v": 94
    },
    {
      "midi": 66,
      "hit": false,
      "t": 144000.00000000012,
      "d": 440.10416666668607,
      "v": 98
    },
    {
      "midi": 70,
      "hit": false,
      "t": 144500.00000000015,
      "d": 182.29166666668607,
      "v": 94
    },
    {
      "midi": 66,
      "hit": false,
      "t": 144500.00000000015,
      "d": 200.52083333334303,
      "v": 94
    },
    {
      "midi": 61,
      "hit": false,
      "t": 144500.00000000015,
      "d": 270.83333333334303,
      "v": 104
    },
    {
      "midi": 65,
      "hit": false,
      "t": 144750.00000000015,
      "d": 195.3125,
      "v": 98
    },
    {
      "midi": 68,
      "hit": false,
      "t": 144750.00000000015,
      "d": 229.16666666665697,
      "v": 94
    },
    {
      "midi": 70,
      "hit": false,
      "t": 145000.00000000015,
      "d": 403.64583333334303,
      "v": 94
    },
    {
      "midi": 66,
      "hit": false,
      "t": 145000.00000000015,
      "d": 440.10416666668607,
      "v": 98
    },
    {
      "midi": 70,
      "hit": false,
      "t": 145500.00000000017,
      "d": 182.29166666665697,
      "v": 94
    },
    {
      "midi": 66,
      "hit": false,
      "t": 145500.00000000017,
      "d": 200.52083333331393,
      "v": 94
    },
    {
      "midi": 61,
      "hit": false,
      "t": 145500.00000000017,
      "d": 270.83333333331393,
      "v": 104
    },
    {
      "midi": 65,
      "hit": false,
      "t": 145750.00000000015,
      "d": 195.3125,
      "v": 98
    },
    {
      "midi": 68,
      "hit": false,
      "t": 145750.00000000015,
      "d": 229.16666666665697,
      "v": 94
    },
    {
      "midi": 71,
      "hit": false,
      "t": 146000.00000000015,
      "d": 411.45833333331393,
      "v": 100
    },
    {
      "midi": 63,
      "hit": false,
      "t": 146000.00000000015,
      "d": 419.27083333331393,
      "v": 102
    },
    {
      "midi": 66,
      "hit": false,
      "t": 146000.00000000015,
      "d": 427.08333333331393,
      "v": 102
    },
    {
      "midi": 47,
      "hit": false,
      "t": 146000.00000000015,
      "d": 833.3333333332848,
      "v": 104
    },
    {
      "midi": 66,
      "hit": false,
      "t": 146500.00000000012,
      "d": 286.45833333331393,
      "v": 98
    },
    {
      "midi": 71,
      "hit": false,
      "t": 146500.00000000012,
      "d": 289.0624999999709,
      "v": 100
    },
    {
      "midi": 63,
      "hit": false,
      "t": 146500.00000000012,
      "d": 312.4999999999709,
      "v": 102
    },
    {
      "midi": 68,
      "hit": false,
      "t": 146750.00000000012,
      "d": 223.95833333331393,
      "v": 96
    },
    {
      "midi": 71,
      "hit": false,
      "t": 147000.0000000001,
      "d": 296.875,
      "v": 102
    },
    {
      "midi": 66,
      "hit": false,
      "t": 147000.0000000001,
      "d": 299.47916666665697,
      "v": 100
    },
    {
      "midi": 63,
      "hit": false,
      "t": 147000.0000000001,
      "d": 335.9375,
      "v": 106
    },
    {
      "midi": 47,
      "hit": false,
      "t": 147000.0000000001,
      "d": 841.145833333343,
      "v": 100
    },
    {
      "midi": 66,
      "hit": false,
      "t": 147500.0000000001,
      "d": 268.22916666665697,
      "v": 100
    },
    {
      "midi": 71,
      "hit": false,
      "t": 147500.0000000001,
      "d": 273.4375,
      "v": 100
    },
    {
      "midi": 63,
      "hit": false,
      "t": 147500.0000000001,
      "d": 289.0625,
      "v": 104
    },
    {
      "midi": 68,
      "hit": false,
      "t": 147750.0000000001,
      "d": 239.58333333334303,
      "v": 88
    },
    {
      "midi": 71,
      "hit": false,
      "t": 148000.0000000001,
      "d": 328.125,
      "v": 100
    },
    {
      "midi": 63,
      "hit": false,
      "t": 148000.0000000001,
      "d": 348.95833333334303,
      "v": 104
    },
    {
      "midi": 66,
      "hit": false,
      "t": 148000.0000000001,
      "d": 354.16666666668607,
      "v": 96
    },
    {
      "midi": 47,
      "hit": false,
      "t": 148000.0000000001,
      "d": 911.458333333343,
      "v": 104
    },
    {
      "midi": 66,
      "hit": false,
      "t": 148500.00000000012,
      "d": 260.41666666665697,
      "v": 98
    },
    {
      "midi": 71,
      "hit": false,
      "t": 148500.00000000012,
      "d": 296.875,
      "v": 98
    },
    {
      "midi": 63,
      "hit": false,
      "t": 148500.00000000012,
      "d": 388.02083333331393,
      "v": 102
    },
    {
      "midi": 68,
      "hit": false,
      "t": 148750.00000000012,
      "d": 247.39583333331393,
      "v": 91
    },
    {
      "midi": 63,
      "hit": false,
      "t": 149000.0000000001,
      "d": 401.04166666665697,
      "v": 96
    },
    {
      "midi": 71,
      "hit": false,
      "t": 149000.0000000001,
      "d": 401.04166666665697,
      "v": 96
    },
    {
      "midi": 66,
      "hit": false,
      "t": 149000.0000000001,
      "d": 406.25,
      "v": 92
    },
    {
      "midi": 47,
      "hit": false,
      "t": 149000.0000000001,
      "d": 697.9166666666861,
      "v": 104
    },
    {
      "midi": 66,
      "hit": false,
      "t": 149500.0000000001,
      "d": 257.8125000000291,
      "v": 94
    },
    {
      "midi": 71,
      "hit": false,
      "t": 149500.0000000001,
      "d": 265.6250000000291,
      "v": 94
    },
    {
      "midi": 63,
      "hit": false,
      "t": 149500.0000000001,
      "d": 273.4375000000291,
      "v": 96
    },
    {
      "midi": 68,
      "hit": false,
      "t": 149750.00000000012,
      "d": 260.41666666665697,
      "v": 88
    },
    {
      "midi": 66,
      "hit": false,
      "t": 150000.00000000012,
      "d": 195.3124999999709,
      "v": 96
    },
    {
      "midi": 70,
      "hit": false,
      "t": 150000.00000000012,
      "d": 197.91666666662786,
      "v": 96
    },
    {
      "midi": 61,
      "hit": false,
      "t": 150000.00000000012,
      "d": 249.9999999999709,
      "v": 96
    },
    {
      "midi": 54,
      "hit": false,
      "t": 150000.00000000012,
      "d": 1690.1041666665988,
      "v": 92
    },
    {
      "midi": 70,
      "hit": false,
      "t": 150500.0000000001,
      "d": 218.75,
      "v": 92
    },
    {
      "midi": 66,
      "hit": false,
      "t": 150500.0000000001,
      "d": 242.1875,
      "v": 98
    },
    {
      "midi": 61,
      "hit": false,
      "t": 150500.0000000001,
      "d": 911.4583333333139,
      "v": 100
    },
    {
      "midi": 68,
      "hit": false,
      "t": 150750.0000000001,
      "d": 200.52083333334303,
      "v": 89
    },
    {
      "midi": 65,
      "hit": false,
      "t": 150750.0000000001,
      "d": 270.83333333334303,
      "v": 94
    },
    {
      "midi": 70,
      "hit": false,
      "t": 151000.0000000001,
      "d": 393.22916666665697,
      "v": 86
    },
    {
      "midi": 66,
      "hit": false,
      "t": 151000.0000000001,
      "d": 427.08333333331393,
      "v": 90
    },
    {
      "midi": 70,
      "hit": false,
      "t": 151500.00000000006,
      "d": 192.70833333331393,
      "v": 89
    },
    {
      "midi": 66,
      "hit": false,
      "t": 151500.00000000006,
      "d": 195.3124999999709,
      "v": 91
    },
    {
      "midi": 61,
      "hit": false,
      "t": 151500.00000000006,
      "d": 263.02083333331393,
      "v": 98
    },
    {
      "midi": 68,
      "hit": false,
      "t": 151750.00000000003,
      "d": 257.8125,
      "v": 94
    },
    {
      "midi": 65,
      "hit": false,
      "t": 151750.00000000003,
      "d": 294.27083333334303,
      "v": 94
    },
    {
      "midi": 70,
      "hit": false,
      "t": 152000.00000000003,
      "d": 367.1875,
      "v": 90
    },
    {
      "midi": 61,
      "hit": false,
      "t": 152000.00000000003,
      "d": 388.02083333334303,
      "v": 92
    },
    {
      "midi": 66,
      "hit": false,
      "t": 152000.00000000003,
      "d": 414.0625,
      "v": 92
    },
    {
      "midi": 54,
      "hit": false,
      "t": 152000.00000000003,
      "d": 744.791666666657,
      "v": 96
    },
    {
      "midi": 66,
      "hit": false,
      "t": 152500.00000000003,
      "d": 190.10416666665697,
      "v": 90
    },
    {
      "midi": 70,
      "hit": false,
      "t": 152500.00000000003,
      "d": 216.14583333331393,
      "v": 88
    },
    {
      "midi": 61,
      "hit": false,
      "t": 152500.00000000003,
      "d": 257.8125,
      "v": 102
    },
    {
      "midi": 68,
      "hit": false,
      "t": 152750.00000000003,
      "d": 205.72916666665697,
      "v": 98
    },
    {
      "midi": 65,
      "hit": false,
      "t": 152750.00000000003,
      "d": 263.02083333334303,
      "v": 96
    },
    {
      "midi": 70,
      "hit": false,
      "t": 153000.00000000003,
      "d": 395.83333333334303,
      "v": 92
    },
    {
      "midi": 63,
      "hit": false,
      "t": 153000.00000000003,
      "d": 408.85416666668607,
      "v": 96
    },
    {
      "midi": 66,
      "hit": false,
      "t": 153000.00000000003,
      "d": 432.29166666668607,
      "v": 98
    },
    {
      "midi": 51,
      "hit": false,
      "t": 153000.00000000003,
      "d": 692.7083333333721,
      "v": 113
    },
    {
      "midi": 70,
      "hit": false,
      "t": 153500.00000000006,
      "d": 177.08333333334303,
      "v": 92
    },
    {
      "midi": 66,
      "hit": false,
      "t": 153500.00000000006,
      "d": 179.6875,
      "v": 90
    },
    {
      "midi": 63,
      "hit": false,
      "t": 153500.00000000006,
      "d": 250,
      "v": 104
    },
    {
      "midi": 68,
      "hit": false,
      "t": 153750.00000000006,
      "d": 216.14583333331393,
      "v": 92
    },
    {
      "midi": 65,
      "hit": false,
      "t": 153750.00000000006,
      "d": 247.39583333331393,
      "v": 91
    },
    {
      "midi": 61,
      "hit": false,
      "t": 154000.00000000003,
      "d": 403.64583333331393,
      "v": 96
    },
    {
      "midi": 70,
      "hit": false,
      "t": 154000.00000000003,
      "d": 406.2499999999709,
      "v": 91
    },
    {
      "midi": 66,
      "hit": false,
      "t": 154000.00000000003,
      "d": 440.10416666662786,
      "v": 94
    },
    {
      "midi": 54,
      "hit": false,
      "t": 154000.00000000003,
      "d": 768.2291666666279,
      "v": 102
    },
    {
      "midi": 61,
      "hit": false,
      "t": 154500,
      "d": 117.1875,
      "v": 96
    },
    {
      "midi": 66,
      "hit": false,
      "t": 154500,
      "d": 250,
      "v": 91
    },
    {
      "midi": 70,
      "hit": false,
      "t": 154500,
      "d": 250,
      "v": 89
    },
    {
      "midi": 61,
      "hit": false,
      "t": 155000,
      "d": 403.64583333331393,
      "v": 96
    },
    {
      "midi": 70,
      "hit": false,
      "t": 155000,
      "d": 406.2499999999709,
      "v": 91
    },
    {
      "midi": 66,
      "hit": false,
      "t": 155000,
      "d": 440.10416666662786,
      "v": 94
    },
    {
      "midi": 54,
      "hit": false,
      "t": 155000,
      "d": 768.2291666666279,
      "v": 102
    },
    {
      "midi": 61,
      "hit": false,
      "t": 155499.99999999997,
      "d": 117.1875,
      "v": 96
    },
    {
      "midi": 66,
      "hit": false,
      "t": 155499.99999999997,
      "d": 250,
      "v": 91
    },
    {
      "midi": 70,
      "hit": false,
      "t": 155499.99999999997,
      "d": 250,
      "v": 89
    }
  ]
}