{
  "jsonPath": "Pop/Dansktop/Johnny Logan/all-out-of-love.json",
  "path": "Pop\\Dansktop\\Johnny Logan\\All Out Of Love.mid",
  "name": "All Out Of Love",
  "difficulty": "Advanced",
  "bpm": 109.00033971772545,
  "notes": [
    {
      "midi": 43,
      "hit": false,
      "t": 13775.49,
      "d": 274.23429166666574,
      "v": 74
    },
    {
      "midi": 55,
      "hit": false,
      "t": 14081.612,
      "d": 229.59150000000045,
      "v": 67
    },
    {
      "midi": 43,
      "hit": false,
      "t": 14387.734,
      "d": 204.08133333333353,
      "v": 67
    },
    {
      "midi": 48,
      "hit": false,
      "t": 14693.856,
      "d": 2238.517124999995,
      "v": 86
    },
    {
      "midi": 55,
      "hit": false,
      "t": 14999.978,
      "d": 720.6622083333314,
      "v": 86
    },
    {
      "midi": 60,
      "hit": false,
      "t": 15306.099999999999,
      "d": 803.5702499999989,
      "v": 74
    },
    {
      "midi": 62,
      "hit": false,
      "t": 15612.221999999998,
      "d": 452.80545833333235,
      "v": 74
    },
    {
      "midi": 55,
      "hit": false,
      "t": 15918.343999999997,
      "d": 503.8257916666662,
      "v": 86
    },
    {
      "midi": 67,
      "hit": false,
      "t": 16224.465999999997,
      "d": 1530.609999999997,
      "v": 100
    },
    {
      "midi": 62,
      "hit": false,
      "t": 16530.587999999996,
      "d": 1084.1820833333295,
      "v": 74
    },
    {
      "midi": 60,
      "hit": false,
      "t": 16836.709999999995,
      "d": 676.0194166666624,
      "v": 100
    },
    {
      "midi": 48,
      "hit": false,
      "t": 17142.831999999995,
      "d": 1766.5790416666641,
      "v": 105
    },
    {
      "midi": 55,
      "hit": false,
      "t": 17448.953999999994,
      "d": 835.4579583333325,
      "v": 74
    },
    {
      "midi": 60,
      "hit": false,
      "t": 17755.075999999994,
      "d": 1141.579958333332,
      "v": 66
    },
    {
      "midi": 62,
      "hit": false,
      "t": 18061.197999999993,
      "d": 816.3253333333341,
      "v": 74
    },
    {
      "midi": 55,
      "hit": false,
      "t": 18367.319999999992,
      "d": 446.42791666666744,
      "v": 62
    },
    {
      "midi": 67,
      "hit": false,
      "t": 19285.686,
      "d": 286.989375000001,
      "v": 82
    },
    {
      "midi": 48,
      "hit": false,
      "t": 19591.807999999994,
      "d": 1147.9575000000004,
      "v": 66
    },
    {
      "midi": 36,
      "hit": false,
      "t": 19591.807999999994,
      "d": 2002.5480833333313,
      "v": 105
    },
    {
      "midi": 57,
      "hit": false,
      "t": 19591.808,
      "d": 1983.4154583333366,
      "v": 92
    },
    {
      "midi": 53,
      "hit": false,
      "t": 19591.808,
      "d": 2448.9760000000024,
      "v": 92
    },
    {
      "midi": 69,
      "hit": false,
      "t": 19591.808,
      "d": 293.36691666666593,
      "v": 102
    },
    {
      "midi": 53,
      "hit": false,
      "t": 19897.929999999993,
      "d": 790.8151666666672,
      "v": 100
    },
    {
      "midi": 72,
      "hit": false,
      "t": 19897.93,
      "d": 274.23429166666756,
      "v": 82
    },
    {
      "midi": 57,
      "hit": false,
      "t": 20204.051999999992,
      "d": 720.662208333335,
      "v": 66
    },
    {
      "midi": 72,
      "hit": false,
      "t": 20204.052,
      "d": 204.0813333333317,
      "v": 109
    },
    {
      "midi": 60,
      "hit": false,
      "t": 20510.17399999999,
      "d": 376.27495833333523,
      "v": 74
    },
    {
      "midi": 72,
      "hit": false,
      "t": 20510.174,
      "d": 867.345666666668,
      "v": 82
    },
    {
      "midi": 53,
      "hit": false,
      "t": 20816.295999999995,
      "d": 216.83641666666517,
      "v": 62
    },
    {
      "midi": 53,
      "hit": false,
      "t": 21122.417999999994,
      "d": 440.0503749999989,
      "v": 67
    },
    {
      "midi": 62,
      "hit": false,
      "t": 21428.539999999994,
      "d": 242.3465833333321,
      "v": 74
    },
    {
      "midi": 74,
      "hit": false,
      "t": 21428.54,
      "d": 293.36691666666593,
      "v": 75
    },
    {
      "midi": 60,
      "hit": false,
      "t": 21734.661999999993,
      "d": 102.04066666666768,
      "v": 66
    },
    {
      "midi": 72,
      "hit": false,
      "t": 21734.662,
      "d": 216.83641666666517,
      "v": 70
    },
    {
      "midi": 57,
      "hit": false,
      "t": 22040.783999999992,
      "d": 31.88770833333183,
      "v": 67
    },
    {
      "midi": 67,
      "hit": false,
      "t": 22040.783999999992,
      "d": 210.45887499999662,
      "v": 86
    },
    {
      "midi": 65,
      "hit": false,
      "t": 22040.783999999992,
      "d": 344.3872499999925,
      "v": 86
    },
    {
      "midi": 55,
      "hit": false,
      "t": 22040.783999999992,
      "d": 503.8257916666589,
      "v": 74
    },
    {
      "midi": 48,
      "hit": false,
      "t": 22040.783999999992,
      "d": 1715.5587083333194,
      "v": 100
    },
    {
      "midi": 36,
      "hit": false,
      "t": 22040.783999999992,
      "d": 1964.2828333333164,
      "v": 100
    },
    {
      "midi": 77,
      "hit": false,
      "t": 22040.784,
      "d": 299.7444583333345,
      "v": 102
    },
    {
      "midi": 64,
      "hit": false,
      "t": 22040.784000000003,
      "d": 1996.1705416666664,
      "v": 92
    },
    {
      "midi": 60,
      "hit": false,
      "t": 22040.784000000003,
      "d": 2008.9256249999999,
      "v": 92
    },
    {
      "midi": 62,
      "hit": false,
      "t": 22040.784000000003,
      "d": 2015.3031666666648,
      "v": 92
    },
    {
      "midi": 48,
      "hit": false,
      "t": 22040.784000000003,
      "d": 2136.476458333331,
      "v": 92
    },
    {
      "midi": 55,
      "hit": false,
      "t": 22040.784000000003,
      "d": 2448.9759999999987,
      "v": 92
    },
    {
      "midi": 60,
      "hit": false,
      "t": 22346.905999999988,
      "d": 363.5198749999945,
      "v": 100
    },
    {
      "midi": 76,
      "hit": false,
      "t": 22346.906,
      "d": 286.989375000001,
      "v": 70
    },
    {
      "midi": 64,
      "hit": false,
      "t": 22653.027999999984,
      "d": 153.06099999999788,
      "v": 67
    },
    {
      "midi": 74,
      "hit": false,
      "t": 22653.028,
      "d": 299.7444583333345,
      "v": 55
    },
    {
      "midi": 60,
      "hit": false,
      "t": 22959.149999999983,
      "d": 554.8461249999964,
      "v": 100
    },
    {
      "midi": 55,
      "hit": false,
      "t": 22959.149999999983,
      "d": 573.9787499999948,
      "v": 86
    },
    {
      "midi": 64,
      "hit": false,
      "t": 22959.149999999983,
      "d": 803.5702499999934,
      "v": 100
    },
    {
      "midi": 76,
      "hit": false,
      "t": 22959.149999999998,
      "d": 1179.8452083333323,
      "v": 93
    },
    {
      "midi": 60,
      "hit": false,
      "t": 23571.39399999998,
      "d": 350.7647916666647,
      "v": 74
    },
    {
      "midi": 55,
      "hit": false,
      "t": 23877.515999999978,
      "d": 223.21395833333008,
      "v": 67
    },
    {
      "midi": 48,
      "hit": false,
      "t": 24183.637999999974,
      "d": 197.7037916666668,
      "v": 67
    },
    {
      "midi": 67,
      "hit": false,
      "t": 24183.637999999995,
      "d": 255.10166666666555,
      "v": 82
    },
    {
      "midi": 53,
      "hit": false,
      "t": 24489.759999999973,
      "d": 191.3262500000019,
      "v": 62
    },
    {
      "midi": 57,
      "hit": false,
      "t": 24489.759999999973,
      "d": 369.8974166666667,
      "v": 67
    },
    {
      "midi": 60,
      "hit": false,
      "t": 24489.759999999973,
      "d": 395.4075833333336,
      "v": 86
    },
    {
      "midi": 48,
      "hit": false,
      "t": 24489.759999999973,
      "d": 1262.7532499999907,
      "v": 66
    },
    {
      "midi": 36,
      "hit": false,
      "t": 24489.759999999973,
      "d": 1492.3447499999893,
      "v": 86
    },
    {
      "midi": 69,
      "hit": false,
      "t": 24489.759999999995,
      "d": 280.61183333333247,
      "v": 66
    },
    {
      "midi": 57,
      "hit": false,
      "t": 24489.760000000002,
      "d": 2091.833666666669,
      "v": 92
    },
    {
      "midi": 53,
      "hit": false,
      "t": 24489.760000000002,
      "d": 2110.9662916666675,
      "v": 92
    },
    {
      "midi": 60,
      "hit": false,
      "t": 24489.760000000002,
      "d": 2130.098916666666,
      "v": 92
    },
    {
      "midi": 48,
      "hit": false,
      "t": 24489.760000000002,
      "d": 2161.9866249999977,
      "v": 92
    },
    {
      "midi": 53,
      "hit": false,
      "t": 24795.881999999972,
      "d": 510.2033333333311,
      "v": 74
    },
    {
      "midi": 72,
      "hit": false,
      "t": 24795.881999999994,
      "d": 248.72412500000064,
      "v": 75
    },
    {
      "midi": 57,
      "hit": false,
      "t": 25102.00399999997,
      "d": 223.21395833333008,
      "v": 66
    },
    {
      "midi": 72,
      "hit": false,
      "t": 25102.003999999994,
      "d": 197.7037916666668,
      "v": 93
    },
    {
      "midi": 60,
      "hit": false,
      "t": 25408.125999999967,
      "d": 338.0097083333312,
      "v": 74
    },
    {
      "midi": 72,
      "hit": false,
      "t": 25408.125999999993,
      "d": 554.846125,
      "v": 102
    },
    {
      "midi": 53,
      "hit": false,
      "t": 25714.247999999967,
      "d": 242.34658333332845,
      "v": 66
    },
    {
      "midi": 53,
      "hit": false,
      "t": 26020.369999999963,
      "d": 57.39787499999875,
      "v": 62
    },
    {
      "midi": 62,
      "hit": false,
      "t": 26020.369999999963,
      "d": 274.2342916666639,
      "v": 100
    },
    {
      "midi": 74,
      "hit": false,
      "t": 26020.36999999999,
      "d": 605.8664583333339,
      "v": 93
    },
    {
      "midi": 53,
      "hit": false,
      "t": 26326.49199999996,
      "d": 76.53050000000076,
      "v": 62
    },
    {
      "midi": 64,
      "hit": false,
      "t": 26632.613999999958,
      "d": 1128.8248749999984,
      "v": 74
    },
    {
      "midi": 48,
      "hit": false,
      "t": 26632.613999999958,
      "d": 1798.466749999996,
      "v": 66
    },
    {
      "midi": 76,
      "hit": false,
      "t": 26632.61399999999,
      "d": 593.1113750000004,
      "v": 75
    },
    {
      "midi": 62,
      "hit": false,
      "t": 26632.614,
      "d": 102.04066666666404,
      "v": 92
    },
    {
      "midi": 55,
      "hit": false,
      "t": 26938.735999999957,
      "d": 516.5808749999997,
      "v": 66
    },
    {
      "midi": 60,
      "hit": false,
      "t": 26938.735999999957,
      "d": 835.4579583333325,
      "v": 74
    },
    {
      "midi": 36,
      "hit": false,
      "t": 26938.735999999957,
      "d": 1524.2324583333284,
      "v": 74
    },
    {
      "midi": 64,
      "hit": false,
      "t": 26938.735999999997,
      "d": 2028.0582499999982,
      "v": 92
    },
    {
      "midi": 60,
      "hit": false,
      "t": 26938.735999999997,
      "d": 2053.568416666665,
      "v": 92
    },
    {
      "midi": 62,
      "hit": false,
      "t": 26938.735999999997,
      "d": 2053.568416666665,
      "v": 92
    },
    {
      "midi": 55,
      "hit": false,
      "t": 26938.735999999997,
      "d": 2085.456124999997,
      "v": 92
    },
    {
      "midi": 48,
      "hit": false,
      "t": 26938.735999999997,
      "d": 2213.0069583333316,
      "v": 92
    },
    {
      "midi": 72,
      "hit": false,
      "t": 27244.85799999999,
      "d": 1760.2014999999992,
      "v": 75
    },
    {
      "midi": 55,
      "hit": false,
      "t": 27550.979999999956,
      "d": 376.2749583333316,
      "v": 62
    },
    {
      "midi": 60,
      "hit": false,
      "t": 27857.101999999955,
      "d": 159.43854166666642,
      "v": 62
    },
    {
      "midi": 62,
      "hit": false,
      "t": 28163.223999999955,
      "d": 440.05037499999526,
      "v": 66
    },
    {
      "midi": 60,
      "hit": false,
      "t": 28469.34599999995,
      "d": 338.0097083333312,
      "v": 66
    },
    {
      "midi": 55,
      "hit": false,
      "t": 28775.46799999995,
      "d": 267.856749999999,
      "v": 66
    },
    {
      "midi": 43,
      "hit": false,
      "t": 29081.58999999995,
      "d": 153.0610000000015,
      "v": 86
    },
    {
      "midi": 67,
      "hit": false,
      "t": 29081.58999999999,
      "d": 299.7444583333345,
      "v": 102
    },
    {
      "midi": 53,
      "hit": false,
      "t": 29387.711999999952,
      "d": 733.4172916666648,
      "v": 86
    },
    {
      "midi": 48,
      "hit": false,
      "t": 29387.711999999952,
      "d": 1065.0494583333275,
      "v": 86
    },
    {
      "midi": 36,
      "hit": false,
      "t": 29387.711999999952,
      "d": 1211.7329166666605,
      "v": 100
    },
    {
      "midi": 69,
      "hit": false,
      "t": 29387.71199999999,
      "d": 274.23429166666756,
      "v": 82
    },
    {
      "midi": 53,
      "hit": false,
      "t": 29387.711999999996,
      "d": 1970.6603749999995,
      "v": 92
    },
    {
      "midi": 48,
      "hit": false,
      "t": 29387.711999999996,
      "d": 2040.8133333333317,
      "v": 92
    },
    {
      "midi": 57,
      "hit": false,
      "t": 29387.711999999996,
      "d": 2053.568416666665,
      "v": 92
    },
    {
      "midi": 60,
      "hit": false,
      "t": 29387.711999999996,
      "d": 2104.588749999999,
      "v": 92
    },
    {
      "midi": 57,
      "hit": false,
      "t": 29693.83399999995,
      "d": 446.4279166666638,
      "v": 100
    },
    {
      "midi": 72,
      "hit": false,
      "t": 29693.833999999988,
      "d": 235.96904166666718,
      "v": 82
    },
    {
      "midi": 60,
      "hit": false,
      "t": 29999.95599999995,
      "d": 184.9487083333297,
      "v": 74
    },
    {
      "midi": 72,
      "hit": false,
      "t": 29999.955999999987,
      "d": 204.0813333333317,
      "v": 82
    },
    {
      "midi": 60,
      "hit": false,
      "t": 30306.077999999947,
      "d": 376.2749583333316,
      "v": 100
    },
    {
      "midi": 72,
      "hit": false,
      "t": 30306.077999999987,
      "d": 835.4579583333325,
      "v": 102
    },
    {
      "midi": 53,
      "hit": false,
      "t": 30612.199999999946,
      "d": 229.59149999999863,
      "v": 67
    },
    {
      "midi": 48,
      "hit": false,
      "t": 30612.199999999946,
      "d": 503.8257916666662,
      "v": 62
    },
    {
      "midi": 57,
      "hit": false,
      "t": 30918.321999999946,
      "d": 318.87708333333285,
      "v": 67
    },
    {
      "midi": 53,
      "hit": false,
      "t": 31224.443999999945,
      "d": 121.17329166666605,
      "v": 67
    },
    {
      "midi": 77,
      "hit": false,
      "t": 31224.443999999985,
      "d": 223.21395833333372,
      "v": 70
    },
    {
      "midi": 48,
      "hit": false,
      "t": 31530.565999999944,
      "d": 229.59149999999863,
      "v": 86
    },
    {
      "midi": 77,
      "hit": false,
      "t": 31530.565999999984,
      "d": 184.94870833333334,
      "v": 82
    },
    {
      "midi": 55,
      "hit": false,
      "t": 31836.687999999944,
      "d": 70.15295833333221,
      "v": 67
    },
    {
      "midi": 62,
      "hit": false,
      "t": 31836.687999999944,
      "d": 382.65249999999287,
      "v": 86
    },
    {
      "midi": 67,
      "hit": false,
      "t": 31836.687999999944,
      "d": 395.40758333332633,
      "v": 100
    },
    {
      "midi": 47,
      "hit": false,
      "t": 31836.687999999944,
      "d": 1989.7929999999906,
      "v": 105
    },
    {
      "midi": 77,
      "hit": false,
      "t": 31836.687999999984,
      "d": 267.856749999999,
      "v": 102
    },
    {
      "midi": 55,
      "hit": false,
      "t": 31836.687999999995,
      "d": 1945.1502083333326,
      "v": 92
    },
    {
      "midi": 47,
      "hit": false,
      "t": 31836.687999999995,
      "d": 2053.568416666669,
      "v": 92
    },
    {
      "midi": 62,
      "hit": false,
      "t": 31836.687999999995,
      "d": 2117.3438333333324,
      "v": 92
    },
    {
      "midi": 55,
      "hit": false,
      "t": 32142.80999999994,
      "d": 395.40758333332997,
      "v": 67
    },
    {
      "midi": 76,
      "hit": false,
      "t": 32142.809999999983,
      "d": 229.59149999999863,
      "v": 66
    },
    {
      "midi": 62,
      "hit": false,
      "t": 32448.931999999935,
      "d": 612.2439999999988,
      "v": 74
    },
    {
      "midi": 76,
      "hit": false,
      "t": 32448.931999999983,
      "d": 197.7037916666668,
      "v": 70
    },
    {
      "midi": 67,
      "hit": false,
      "t": 32755.053999999935,
      "d": 312.49954166666794,
      "v": 100
    },
    {
      "midi": 76,
      "hit": false,
      "t": 32755.053999999982,
      "d": 848.2130416666696,
      "v": 82
    },
    {
      "midi": 67,
      "hit": false,
      "t": 32755.053999999996,
      "d": 1014.0291250000009,
      "v": 92
    },
    {
      "midi": 55,
      "hit": false,
      "t": 33061.175999999934,
      "d": 286.98937500000466,
      "v": 74
    },
    {
      "midi": 62,
      "hit": false,
      "t": 33367.29799999994,
      "d": 484.6931666666642,
      "v": 86
    },
    {
      "midi": 76,
      "hit": false,
      "t": 33673.419999999984,
      "d": 223.21395833333372,
      "v": 66
    },
    {
      "midi": 67,
      "hit": false,
      "t": 33979.541999999936,
      "d": 650.5092500000028,
      "v": 86
    },
    {
      "midi": 79,
      "hit": false,
      "t": 33979.54199999999,
      "d": 554.8461249999964,
      "v": 93
    },
    {
      "midi": 57,
      "hit": false,
      "t": 34285.66399999994,
      "d": 522.9584166666682,
      "v": 67
    },
    {
      "midi": 60,
      "hit": false,
      "t": 34285.66399999994,
      "d": 727.0397499999963,
      "v": 86
    },
    {
      "midi": 45,
      "hit": false,
      "t": 34285.66399999994,
      "d": 1524.2324583333248,
      "v": 100
    },
    {
      "midi": 67,
      "hit": false,
      "t": 34285.664,
      "d": 440.05037500000617,
      "v": 92
    },
    {
      "midi": 57,
      "hit": false,
      "t": 34285.664,
      "d": 484.69316666667146,
      "v": 92
    },
    {
      "midi": 60,
      "hit": false,
      "t": 34285.664,
      "d": 497.44825000000856,
      "v": 92
    },
    {
      "midi": 45,
      "hit": false,
      "t": 34285.664,
      "d": 1530.6100000000079,
      "v": 92
    },
    {
      "midi": 65,
      "hit": false,
      "t": 34591.78599999994,
      "d": 446.42791666666017,
      "v": 74
    },
    {
      "midi": 77,
      "hit": false,
      "t": 34591.785999999986,
      "d": 235.96904166666354,
      "v": 70
    },
    {
      "midi": 65,
      "hit": false,
      "t": 34591.786,
      "d": 184.94870833333698,
      "v": 92
    },
    {
      "midi": 57,
      "hit": false,
      "t": 34897.90799999994,
      "d": 159.4385416666628,
      "v": 67
    },
    {
      "midi": 77,
      "hit": false,
      "t": 34897.90799999998,
      "d": 299.7444583333345,
      "v": 75
    },
    {
      "midi": 60,
      "hit": false,
      "t": 34897.908,
      "d": 63.77541666666366,
      "v": 92
    },
    {
      "midi": 57,
      "hit": false,
      "t": 34897.908,
      "d": 554.8461249999964,
      "v": 92
    },
    {
      "midi": 64,
      "hit": false,
      "t": 35204.02999999993,
      "d": 293.36691666666593,
      "v": 105
    },
    {
      "midi": 76,
      "hit": false,
      "t": 35204.029999999984,
      "d": 854.5905833333309,
      "v": 93
    },
    {
      "midi": 64,
      "hit": false,
      "t": 35204.03,
      "d": 306.122000000003,
      "v": 92
    },
    {
      "midi": 57,
      "hit": false,
      "t": 35510.15199999993,
      "d": 178.57116666666843,
      "v": 67
    },
    {
      "midi": 57,
      "hit": false,
      "t": 35816.27399999993,
      "d": 38.26524999999674,
      "v": 62
    },
    {
      "midi": 65,
      "hit": false,
      "t": 35816.27399999993,
      "d": 286.9893749999974,
      "v": 100
    },
    {
      "midi": 57,
      "hit": false,
      "t": 35816.274000000005,
      "d": 89.28558333333058,
      "v": 92
    },
    {
      "midi": 65,
      "hit": false,
      "t": 35816.274000000005,
      "d": 325.2546249999941,
      "v": 92
    },
    {
      "midi": 57,
      "hit": false,
      "t": 36122.39599999993,
      "d": 197.7037916666668,
      "v": 67
    },
    {
      "midi": 74,
      "hit": false,
      "t": 36122.39599999998,
      "d": 306.122000000003,
      "v": 75
    },
    {
      "midi": 57,
      "hit": false,
      "t": 36122.396,
      "d": 184.9487083333297,
      "v": 92
    },
    {
      "midi": 64,
      "hit": false,
      "t": 36428.51799999993,
      "d": 593.1113750000004,
      "v": 100
    },
    {
      "midi": 60,
      "hit": false,
      "t": 36428.51799999993,
      "d": 695.1520416666681,
      "v": 86
    },
    {
      "midi": 57,
      "hit": false,
      "t": 36428.51799999993,
      "d": 822.7028750000027,
      "v": 100
    },
    {
      "midi": 76,
      "hit": false,
      "t": 36428.51799999998,
      "d": 133.92837500000314,
      "v": 82
    },
    {
      "midi": 64,
      "hit": false,
      "t": 36428.518,
      "d": 1026.784208333338,
      "v": 92
    },
    {
      "midi": 74,
      "hit": false,
      "t": 36581.57899999998,
      "d": 159.43854166667006,
      "v": 61
    },
    {
      "midi": 41,
      "hit": false,
      "t": 36734.63999999993,
      "d": 624.9990833333359,
      "v": 86
    },
    {
      "midi": 72,
      "hit": false,
      "t": 36734.639999999985,
      "d": 1594.3854166666715,
      "v": 93
    },
    {
      "midi": 57,
      "hit": false,
      "t": 36734.64,
      "d": 554.8461249999964,
      "v": 92
    },
    {
      "midi": 60,
      "hit": false,
      "t": 36734.64,
      "d": 758.9274583333317,
      "v": 92
    },
    {
      "midi": 41,
      "hit": false,
      "t": 36734.64,
      "d": 886.4782916666663,
      "v": 92
    },
    {
      "midi": 62,
      "hit": false,
      "t": 37346.88399999993,
      "d": 165.81608333333133,
      "v": 67
    },
    {
      "midi": 57,
      "hit": false,
      "t": 37346.884,
      "d": 286.9893749999974,
      "v": 92
    },
    {
      "midi": 60,
      "hit": false,
      "t": 37653.00599999993,
      "d": 133.92837500000314,
      "v": 86
    },
    {
      "midi": 62,
      "hit": false,
      "t": 37653.005999999994,
      "d": 102.04066666666768,
      "v": 92
    },
    {
      "midi": 57,
      "hit": false,
      "t": 37959.12799999993,
      "d": 401.78512500000215,
      "v": 86
    },
    {
      "midi": 60,
      "hit": false,
      "t": 37959.12799999993,
      "d": 554.8461250000037,
      "v": 74
    },
    {
      "midi": 53,
      "hit": false,
      "t": 37959.12799999993,
      "d": 809.9477916666729,
      "v": 100
    },
    {
      "midi": 43,
      "hit": false,
      "t": 37959.12799999993,
      "d": 1147.957500000004,
      "v": 100
    },
    {
      "midi": 60,
      "hit": false,
      "t": 37959.128,
      "d": 573.978750000002,
      "v": 92
    },
    {
      "midi": 57,
      "hit": false,
      "t": 37959.128,
      "d": 618.6215416666673,
      "v": 92
    },
    {
      "midi": 53,
      "hit": false,
      "t": 37959.128,
      "d": 784.4376249999987,
      "v": 92
    },
    {
      "midi": 43,
      "hit": false,
      "t": 37959.128,
      "d": 899.2333750000034,
      "v": 92
    },
    {
      "midi": 59,
      "hit": false,
      "t": 38571.37199999994,
      "d": 408.1626666666634,
      "v": 74
    },
    {
      "midi": 59,
      "hit": false,
      "t": 38571.371999999996,
      "d": 255.1016666666692,
      "v": 92
    },
    {
      "midi": 53,
      "hit": false,
      "t": 38877.49399999993,
      "d": 121.17329166666605,
      "v": 67
    },
    {
      "midi": 67,
      "hit": false,
      "t": 38877.49399999999,
      "d": 274.23429166666756,
      "v": 82
    },
    {
      "midi": 53,
      "hit": false,
      "t": 38877.494,
      "d": 95.66312499999913,
      "v": 92
    },
    {
      "midi": 60,
      "hit": false,
      "t": 39183.615999999936,
      "d": 82.9080416666693,
      "v": 66
    },
    {
      "midi": 57,
      "hit": false,
      "t": 39183.615999999936,
      "d": 440.05037500000617,
      "v": 67
    },
    {
      "midi": 48,
      "hit": false,
      "t": 39183.615999999936,
      "d": 2110.966291666671,
      "v": 105
    },
    {
      "midi": 48,
      "hit": false,
      "t": 39183.615999999995,
      "d": 2193.874333333333,
      "v": 92
    },
    {
      "midi": 69,
      "hit": false,
      "t": 39183.615999999995,
      "d": 274.23429166666756,
      "v": 82
    },
    {
      "midi": 60,
      "hit": false,
      "t": 39489.73799999994,
      "d": 172.19362499999988,
      "v": 62
    },
    {
      "midi": 57,
      "hit": false,
      "t": 39489.73799999999,
      "d": 931.1210833333316,
      "v": 92
    },
    {
      "midi": 72,
      "hit": false,
      "t": 39489.738,
      "d": 229.59150000000227,
      "v": 82
    },
    {
      "midi": 57,
      "hit": false,
      "t": 39795.85999999994,
      "d": 210.45887499999662,
      "v": 100
    },
    {
      "midi": 60,
      "hit": false,
      "t": 39795.859999999986,
      "d": 841.835500000001,
      "v": 92
    },
    {
      "midi": 72,
      "hit": false,
      "t": 39795.86,
      "d": 165.81608333333133,
      "v": 93
    },
    {
      "midi": 60,
      "hit": false,
      "t": 40101.98199999994,
      "d": 331.63216666666995,
      "v": 105
    },
    {
      "midi": 65,
      "hit": false,
      "t": 40101.98199999999,
      "d": 586.7338333333319,
      "v": 92
    },
    {
      "midi": 72,
      "hit": false,
      "t": 40101.981999999996,
      "d": 784.4376249999987,
      "v": 109
    },
    {
      "midi": 55,
      "hit": false,
      "t": 40714.225999999944,
      "d": 223.21395833333372,
      "v": 100
    },
    {
      "midi": 55,
      "hit": false,
      "t": 40714.22599999999,
      "d": 178.57116666666843,
      "v": 92
    },
    {
      "midi": 60,
      "hit": false,
      "t": 41020.34799999995,
      "d": 235.96904166666354,
      "v": 86
    },
    {
      "midi": 57,
      "hit": false,
      "t": 41020.34799999999,
      "d": 369.8974166666667,
      "v": 92
    },
    {
      "midi": 74,
      "hit": false,
      "t": 41020.348,
      "d": 299.7444583333345,
      "v": 70
    },
    {
      "midi": 62,
      "hit": false,
      "t": 41326.46999999994,
      "d": 267.856749999999,
      "v": 74
    },
    {
      "midi": 60,
      "hit": false,
      "t": 41326.469999999994,
      "d": 809.9477916666656,
      "v": 92
    },
    {
      "midi": 72,
      "hit": false,
      "t": 41326.47,
      "d": 178.57116666666843,
      "v": 102
    },
    {
      "midi": 48,
      "hit": false,
      "t": 41632.59199999994,
      "d": 76.53050000000076,
      "v": 67
    },
    {
      "midi": 57,
      "hit": false,
      "t": 41632.59199999994,
      "d": 433.67283333333035,
      "v": 74
    },
    {
      "midi": 65,
      "hit": false,
      "t": 41632.59199999994,
      "d": 510.2033333333311,
      "v": 86
    },
    {
      "midi": 60,
      "hit": false,
      "t": 41632.59199999994,
      "d": 516.5808749999997,
      "v": 86
    },
    {
      "midi": 36,
      "hit": false,
      "t": 41632.59199999994,
      "d": 2072.70104166666,
      "v": 100
    },
    {
      "midi": 55,
      "hit": false,
      "t": 41632.59199999999,
      "d": 178.57116666666843,
      "v": 92
    },
    {
      "midi": 64,
      "hit": false,
      "t": 41632.59199999999,
      "d": 497.4482500000013,
      "v": 92
    },
    {
      "midi": 48,
      "hit": false,
      "t": 41632.59199999999,
      "d": 2149.231541666675,
      "v": 92
    },
    {
      "midi": 77,
      "hit": false,
      "t": 41632.592000000004,
      "d": 286.9893749999974,
      "v": 109
    },
    {
      "midi": 48,
      "hit": false,
      "t": 41938.713999999934,
      "d": 1422.1917916666644,
      "v": 67
    },
    {
      "midi": 55,
      "hit": false,
      "t": 41938.71399999999,
      "d": 669.6418750000012,
      "v": 92
    },
    {
      "midi": 76,
      "hit": false,
      "t": 41938.714,
      "d": 242.3465833333321,
      "v": 75
    },
    {
      "midi": 60,
      "hit": false,
      "t": 42244.83599999994,
      "d": 172.19362499999988,
      "v": 67
    },
    {
      "midi": 55,
      "hit": false,
      "t": 42244.83599999994,
      "d": 184.9487083333297,
      "v": 86
    },
    {
      "midi": 64,
      "hit": false,
      "t": 42244.83599999994,
      "d": 204.08133333332808,
      "v": 74
    },
    {
      "midi": 60,
      "hit": false,
      "t": 42244.835999999996,
      "d": 325.2546250000014,
      "v": 92
    },
    {
      "midi": 74,
      "hit": false,
      "t": 42244.835999999996,
      "d": 280.6118333333361,
      "v": 70
    },
    {
      "midi": 60,
      "hit": false,
      "t": 42550.95799999993,
      "d": 465.5605416666658,
      "v": 105
    },
    {
      "midi": 55,
      "hit": false,
      "t": 42550.95799999993,
      "d": 542.0910416666666,
      "v": 105
    },
    {
      "midi": 64,
      "hit": false,
      "t": 42550.95799999993,
      "d": 695.1520416666681,
      "v": 105
    },
    {
      "midi": 62,
      "hit": false,
      "t": 42550.958,
      "d": 510.2033333333311,
      "v": 92
    },
    {
      "midi": 76,
      "hit": false,
      "t": 42550.958,
      "d": 146.68345833333296,
      "v": 75
    },
    {
      "midi": 74,
      "hit": false,
      "t": 42704.019,
      "d": 121.17329166666605,
      "v": 70
    },
    {
      "midi": 72,
      "hit": false,
      "t": 42857.08,
      "d": 880.1007499999978,
      "v": 82
    },
    {
      "midi": 60,
      "hit": false,
      "t": 43163.20199999993,
      "d": 357.14233333333686,
      "v": 74
    },
    {
      "midi": 60,
      "hit": false,
      "t": 43163.202,
      "d": 325.2546250000014,
      "v": 92
    },
    {
      "midi": 55,
      "hit": false,
      "t": 43469.323999999935,
      "d": 140.30591666666442,
      "v": 67
    },
    {
      "midi": 55,
      "hit": false,
      "t": 43469.324,
      "d": 688.7744999999995,
      "v": 92
    },
    {
      "midi": 62,
      "hit": false,
      "t": 43775.44599999993,
      "d": 133.92837500000314,
      "v": 105
    },
    {
      "midi": 59,
      "hit": false,
      "t": 43775.44599999993,
      "d": 146.68345833333296,
      "v": 100
    },
    {
      "midi": 55,
      "hit": false,
      "t": 43775.44599999993,
      "d": 153.0610000000015,
      "v": 86
    },
    {
      "midi": 60,
      "hit": false,
      "t": 43775.445999999996,
      "d": 663.2643333333326,
      "v": 92
    },
    {
      "midi": 67,
      "hit": false,
      "t": 43775.445999999996,
      "d": 280.6118333333361,
      "v": 93
    },
    {
      "midi": 53,
      "hit": false,
      "t": 44081.567999999934,
      "d": 465.5605416666658,
      "v": 100
    },
    {
      "midi": 57,
      "hit": false,
      "t": 44081.567999999934,
      "d": 663.2643333333326,
      "v": 100
    },
    {
      "midi": 48,
      "hit": false,
      "t": 44081.567999999934,
      "d": 676.0194166666624,
      "v": 86
    },
    {
      "midi": 60,
      "hit": false,
      "t": 44081.567999999934,
      "d": 676.0194166666624,
      "v": 86
    },
    {
      "midi": 36,
      "hit": false,
      "t": 44081.567999999934,
      "d": 2168.364166666659,
      "v": 100
    },
    {
      "midi": 48,
      "hit": false,
      "t": 44081.568,
      "d": 2149.231541666668,
      "v": 92
    },
    {
      "midi": 69,
      "hit": false,
      "t": 44081.568,
      "d": 286.9893749999974,
      "v": 93
    },
    {
      "midi": 72,
      "hit": false,
      "t": 44387.689999999995,
      "d": 223.21395833333372,
      "v": 82
    },
    {
      "midi": 53,
      "hit": false,
      "t": 44387.69,
      "d": 1320.1511249999967,
      "v": 92
    },
    {
      "midi": 53,
      "hit": false,
      "t": 44693.81199999993,
      "d": 204.08133333332808,
      "v": 74
    },
    {
      "midi": 60,
      "hit": false,
      "t": 44693.812,
      "d": 720.662208333335,
      "v": 92
    },
    {
      "midi": 72,
      "hit": false,
      "t": 44693.812,
      "d": 191.32624999999825,
      "v": 75
    },
    {
      "midi": 53,
      "hit": false,
      "t": 44999.93399999993,
      "d": 363.5198750000054,
      "v": 67
    },
    {
      "midi": 57,
      "hit": false,
      "t": 44999.93399999993,
      "d": 363.5198750000054,
      "v": 86
    },
    {
      "midi": 72,
      "hit": false,
      "t": 44999.933999999994,
      "d": 522.9584166666682,
      "v": 102
    },
    {
      "midi": 62,
      "hit": false,
      "t": 44999.934,
      "d": 529.3359583333295,
      "v": 92
    },
    {
      "midi": 48,
      "hit": false,
      "t": 45306.05599999993,
      "d": 816.3253333333341,
      "v": 74
    },
    {
      "midi": 57,
      "hit": false,
      "t": 45612.177999999934,
      "d": 446.42791666666744,
      "v": 74
    },
    {
      "midi": 53,
      "hit": false,
      "t": 45612.177999999934,
      "d": 471.93808333333436,
      "v": 67
    },
    {
      "midi": 60,
      "hit": false,
      "t": 45612.177999999934,
      "d": 497.4482500000013,
      "v": 74
    },
    {
      "midi": 74,
      "hit": false,
      "t": 45612.17799999999,
      "d": 491.07070833333273,
      "v": 102
    },
    {
      "midi": 60,
      "hit": false,
      "t": 45612.178,
      "d": 389.03004166666506,
      "v": 92
    },
    {
      "midi": 62,
      "hit": false,
      "t": 45918.29999999994,
      "d": 242.34658333332482,
      "v": 86
    },
    {
      "midi": 53,
      "hit": false,
      "t": 45918.299999999996,
      "d": 510.2033333333384,
      "v": 92
    },
    {
      "midi": 64,
      "hit": false,
      "t": 46224.421999999926,
      "d": 982.1414166666582,
      "v": 86
    },
    {
      "midi": 74,
      "hit": false,
      "t": 46224.42199999999,
      "d": 153.0610000000015,
      "v": 102
    },
    {
      "midi": 60,
      "hit": false,
      "t": 46224.422,
      "d": 605.8664583333375,
      "v": 92
    },
    {
      "midi": 76,
      "hit": false,
      "t": 46377.48299999999,
      "d": 376.27495833333523,
      "v": 82
    },
    {
      "midi": 55,
      "hit": false,
      "t": 46530.54399999993,
      "d": 471.9380833333271,
      "v": 74
    },
    {
      "midi": 60,
      "hit": false,
      "t": 46530.54399999993,
      "d": 727.039749999989,
      "v": 66
    },
    {
      "midi": 48,
      "hit": false,
      "t": 46530.54399999993,
      "d": 771.6825416666543,
      "v": 66
    },
    {
      "midi": 48,
      "hit": false,
      "t": 46530.544,
      "d": 2187.496791666672,
      "v": 92
    },
    {
      "midi": 36,
      "hit": false,
      "t": 46836.665999999925,
      "d": 637.7541666666584,
      "v": 74
    },
    {
      "midi": 76,
      "hit": false,
      "t": 46836.666,
      "d": 1505.0998333333337,
      "v": 82
    },
    {
      "midi": 55,
      "hit": false,
      "t": 47142.78799999992,
      "d": 408.1626666666634,
      "v": 67
    },
    {
      "midi": 60,
      "hit": false,
      "t": 47142.788,
      "d": 1065.049458333342,
      "v": 92
    },
    {
      "midi": 60,
      "hit": false,
      "t": 47448.909999999916,
      "d": 286.98937500000466,
      "v": 67
    },
    {
      "midi": 48,
      "hit": false,
      "t": 47448.909999999916,
      "d": 1237.2430833333347,
      "v": 74
    },
    {
      "midi": 62,
      "hit": false,
      "t": 47448.91,
      "d": 535.7135000000053,
      "v": 92
    },
    {
      "midi": 55,
      "hit": false,
      "t": 47755.03199999992,
      "d": 184.94870833333698,
      "v": 66
    },
    {
      "midi": 67,
      "hit": false,
      "t": 47755.03200000001,
      "d": 727.0397500000036,
      "v": 92
    },
    {
      "midi": 55,
      "hit": false,
      "t": 48061.15399999992,
      "d": 70.15295833333221,
      "v": 66
    },
    {
      "midi": 64,
      "hit": false,
      "t": 48061.15399999992,
      "d": 159.4385416666628,
      "v": 105
    },
    {
      "midi": 60,
      "hit": false,
      "t": 48061.15399999992,
      "d": 191.32624999999825,
      "v": 100
    },
    {
      "midi": 55,
      "hit": false,
      "t": 48061.15400000001,
      "d": 19.13262499999837,
      "v": 92
    },
    {
      "midi": 62,
      "hit": false,
      "t": 48367.27599999992,
      "d": 229.59150000000227,
      "v": 100
    },
    {
      "midi": 60,
      "hit": false,
      "t": 48367.27600000001,
      "d": 567.6012083333262,
      "v": 92
    },
    {
      "midi": 55,
      "hit": false,
      "t": 48673.39799999992,
      "d": 197.7037916666668,
      "v": 86
    },
    {
      "midi": 67,
      "hit": false,
      "t": 48673.398,
      "d": 280.6118333333361,
      "v": 102
    },
    {
      "midi": 55,
      "hit": false,
      "t": 48673.39800000001,
      "d": 293.36691666666593,
      "v": 92
    },
    {
      "midi": 60,
      "hit": false,
      "t": 48979.519999999924,
      "d": 382.6525000000038,
      "v": 66
    },
    {
      "midi": 36,
      "hit": false,
      "t": 48979.519999999924,
      "d": 1332.906208333341,
      "v": 100
    },
    {
      "midi": 48,
      "hit": false,
      "t": 48979.520000000004,
      "d": 1906.8849583333213,
      "v": 92
    },
    {
      "midi": 69,
      "hit": false,
      "t": 48979.520000000004,
      "d": 255.1016666666692,
      "v": 82
    },
    {
      "midi": 53,
      "hit": false,
      "t": 49285.64199999993,
      "d": 420.9177500000005,
      "v": 100
    },
    {
      "midi": 53,
      "hit": false,
      "t": 49285.642,
      "d": 427.2952916666691,
      "v": 92
    },
    {
      "midi": 72,
      "hit": false,
      "t": 49285.64200000001,
      "d": 229.59150000000227,
      "v": 93
    },
    {
      "midi": 57,
      "hit": false,
      "t": 49591.76399999993,
      "d": 159.4385416666628,
      "v": 74
    },
    {
      "midi": 60,
      "hit": false,
      "t": 49591.76399999993,
      "d": 235.96904166666354,
      "v": 86
    },
    {
      "midi": 48,
      "hit": false,
      "t": 49591.76399999993,
      "d": 542.0910416666666,
      "v": 66
    },
    {
      "midi": 60,
      "hit": false,
      "t": 49591.764,
      "d": 420.91774999999325,
      "v": 92
    },
    {
      "midi": 72,
      "hit": false,
      "t": 49591.76400000001,
      "d": 204.08133333333535,
      "v": 82
    },
    {
      "midi": 53,
      "hit": false,
      "t": 49897.885999999926,
      "d": 223.21395833333372,
      "v": 105
    },
    {
      "midi": 57,
      "hit": false,
      "t": 49897.885999999926,
      "d": 229.59150000000227,
      "v": 74
    },
    {
      "midi": 60,
      "hit": false,
      "t": 49897.885999999926,
      "d": 382.6525000000038,
      "v": 86
    },
    {
      "midi": 53,
      "hit": false,
      "t": 49897.886,
      "d": 554.8461249999964,
      "v": 92
    },
    {
      "midi": 72,
      "hit": false,
      "t": 49897.88600000001,
      "d": 491.07070833333273,
      "v": 102
    },
    {
      "midi": 48,
      "hit": false,
      "t": 50204.00799999993,
      "d": 433.6728333333376,
      "v": 67
    },
    {
      "midi": 53,
      "hit": false,
      "t": 50510.12999999993,
      "d": 363.5198750000054,
      "v": 66
    },
    {
      "midi": 60,
      "hit": false,
      "t": 50510.13,
      "d": 293.36691666666593,
      "v": 92
    },
    {
      "midi": 57,
      "hit": false,
      "t": 50816.251999999935,
      "d": 140.3059166666717,
      "v": 66
    },
    {
      "midi": 53,
      "hit": false,
      "t": 50816.25199999999,
      "d": 191.32624999999825,
      "v": 92
    },
    {
      "midi": 77,
      "hit": false,
      "t": 50816.252000000015,
      "d": 229.59150000000227,
      "v": 102
    },
    {
      "midi": 57,
      "hit": false,
      "t": 51122.37399999994,
      "d": 140.30591666666442,
      "v": 67
    },
    {
      "midi": 48,
      "hit": false,
      "t": 51122.37399999994,
      "d": 235.96904166666354,
      "v": 74
    },
    {
      "midi": 48,
      "hit": false,
      "t": 51122.37399999999,
      "d": 184.9487083333297,
      "v": 92
    },
    {
      "midi": 77,
      "hit": false,
      "t": 51122.37400000002,
      "d": 191.32624999999825,
      "v": 75
    },
    {
      "midi": 62,
      "hit": false,
      "t": 51428.495999999934,
      "d": 363.5198750000054,
      "v": 105
    },
    {
      "midi": 47,
      "hit": false,
      "t": 51428.495999999934,
      "d": 1792.0892083333456,
      "v": 105
    },
    {
      "midi": 47,
      "hit": false,
      "t": 51428.495999999985,
      "d": 2238.5171250000058,
      "v": 92
    },
    {
      "midi": 77,
      "hit": false,
      "t": 51428.496000000014,
      "d": 261.47920833333046,
      "v": 82
    },
    {
      "midi": 55,
      "hit": false,
      "t": 51734.61799999994,
      "d": 688.7745000000068,
      "v": 86
    },
    {
      "midi": 55,
      "hit": false,
      "t": 51734.61799999998,
      "d": 363.5198750000054,
      "v": 92
    },
    {
      "midi": 76,
      "hit": false,
      "t": 51734.61800000001,
      "d": 223.21395833333372,
      "v": 82
    },
    {
      "midi": 62,
      "hit": false,
      "t": 52040.73999999994,
      "d": 695.1520416666754,
      "v": 86
    },
    {
      "midi": 62,
      "hit": false,
      "t": 52040.73999999998,
      "d": 248.72412500000064,
      "v": 92
    },
    {
      "midi": 76,
      "hit": false,
      "t": 52040.74000000001,
      "d": 216.83641666666517,
      "v": 82
    },
    {
      "midi": 67,
      "hit": false,
      "t": 52346.86199999994,
      "d": 471.93808333334164,
      "v": 100
    },
    {
      "midi": 62,
      "hit": false,
      "t": 52346.86199999999,
      "d": 44.64279166666529,
      "v": 92
    },
    {
      "midi": 59,
      "hit": false,
      "t": 52346.86199999999,
      "d": 401.78512500000215,
      "v": 92
    },
    {
      "midi": 67,
      "hit": false,
      "t": 52346.86199999999,
      "d": 427.2952916666691,
      "v": 92
    },
    {
      "midi": 76,
      "hit": false,
      "t": 52346.86200000001,
      "d": 975.7638749999969,
      "v": 82
    },
    {
      "midi": 55,
      "hit": false,
      "t": 52652.983999999946,
      "d": 478.3156250000029,
      "v": 74
    },
    {
      "midi": 62,
      "hit": false,
      "t": 52959.10599999995,
      "d": 433.67283333333035,
      "v": 100
    },
    {
      "midi": 57,
      "hit": false,
      "t": 52959.105999999985,
      "d": 306.122000000003,
      "v": 92
    },
    {
      "midi": 55,
      "hit": false,
      "t": 53265.227999999945,
      "d": 159.43854166667006,
      "v": 74
    },
    {
      "midi": 62,
      "hit": false,
      "t": 53265.22799999999,
      "d": 363.5198750000054,
      "v": 92
    },
    {
      "midi": 47,
      "hit": false,
      "t": 53571.34999999995,
      "d": 121.17329166666605,
      "v": 74
    },
    {
      "midi": 57,
      "hit": false,
      "t": 53571.34999999999,
      "d": 242.3465833333321,
      "v": 92
    },
    {
      "midi": 79,
      "hit": false,
      "t": 53571.350000000006,
      "d": 593.1113750000004,
      "v": 102
    },
    {
      "midi": 55,
      "hit": false,
      "t": 53877.47199999995,
      "d": 184.9487083333297,
      "v": 86
    },
    {
      "midi": 67,
      "hit": false,
      "t": 53877.47199999995,
      "d": 344.38724999999977,
      "v": 67
    },
    {
      "midi": 45,
      "hit": false,
      "t": 53877.47199999995,
      "d": 1371.1714583333378,
      "v": 100
    },
    {
      "midi": 45,
      "hit": false,
      "t": 53877.47199999999,
      "d": 1862.242166666685,
      "v": 92
    },
    {
      "midi": 55,
      "hit": false,
      "t": 54183.59399999995,
      "d": 127.5508333333346,
      "v": 74
    },
    {
      "midi": 55,
      "hit": false,
      "t": 54183.59399999999,
      "d": 172.19362499999988,
      "v": 92
    },
    {
      "midi": 77,
      "hit": false,
      "t": 54183.594000000005,
      "d": 204.08133333333535,
      "v": 93
    },
    {
      "midi": 53,
      "hit": false,
      "t": 54489.71599999995,
      "d": 102.04066666666768,
      "v": 86
    },
    {
      "midi": 65,
      "hit": false,
      "t": 54489.71599999995,
      "d": 102.04066666666768,
      "v": 86
    },
    {
      "midi": 57,
      "hit": false,
      "t": 54489.71599999999,
      "d": 338.0097083333385,
      "v": 92
    },
    {
      "midi": 77,
      "hit": false,
      "t": 54489.71600000001,
      "d": 255.1016666666692,
      "v": 70
    },
    {
      "midi": 52,
      "hit": false,
      "t": 54795.83799999995,
      "d": 133.92837500000314,
      "v": 100
    },
    {
      "midi": 64,
      "hit": false,
      "t": 54795.83799999995,
      "d": 184.94870833333698,
      "v": 100
    },
    {
      "midi": 60,
      "hit": false,
      "t": 54795.837999999996,
      "d": 338.0097083333385,
      "v": 92
    },
    {
      "midi": 76,
      "hit": false,
      "t": 54795.83800000001,
      "d": 503.82579166666983,
      "v": 93
    },
    {
      "midi": 53,
      "hit": false,
      "t": 55101.959999999955,
      "d": 38.26524999999674,
      "v": 62
    },
    {
      "midi": 65,
      "hit": false,
      "t": 55101.96,
      "d": 414.54020833333925,
      "v": 92
    },
    {
      "midi": 65,
      "hit": false,
      "t": 55408.08199999996,
      "d": 165.81608333333133,
      "v": 100
    },
    {
      "midi": 53,
      "hit": false,
      "t": 55408.08199999996,
      "d": 274.23429166666756,
      "v": 100
    },
    {
      "midi": 60,
      "hit": false,
      "t": 55408.082,
      "d": 280.6118333333361,
      "v": 92
    },
    {
      "midi": 77,
      "hit": false,
      "t": 55408.08200000002,
      "d": 567.6012083333335,
      "v": 93
    },
    {
      "midi": 57,
      "hit": false,
      "t": 55714.204000000005,
      "d": 338.0097083333385,
      "v": 92
    },
    {
      "midi": 52,
      "hit": false,
      "t": 56020.32599999996,
      "d": 822.7028749999954,
      "v": 85
    },
    {
      "midi": 64,
      "hit": false,
      "t": 56020.32599999996,
      "d": 1014.0291249999937,
      "v": 100
    },
    {
      "midi": 60,
      "hit": false,
      "t": 56020.32600000001,
      "d": 274.23429166666756,
      "v": 92
    },
    {
      "midi": 76,
      "hit": false,
      "t": 56020.326000000015,
      "d": 612.2439999999988,
      "v": 93
    },
    {
      "midi": 57,
      "hit": false,
      "t": 56326.44799999995,
      "d": 797.1927083333285,
      "v": 100
    },
    {
      "midi": 60,
      "hit": false,
      "t": 56326.44799999995,
      "d": 809.9477916666583,
      "v": 100
    },
    {
      "midi": 41,
      "hit": false,
      "t": 56326.44799999995,
      "d": 1607.140499999994,
      "v": 105
    },
    {
      "midi": 55,
      "hit": false,
      "t": 56326.44800000001,
      "d": 503.82579166666255,
      "v": 92
    },
    {
      "midi": 64,
      "hit": false,
      "t": 56326.44800000001,
      "d": 644.1317083333342,
      "v": 92
    },
    {
      "midi": 60,
      "hit": false,
      "t": 56326.44800000001,
      "d": 682.396958333331,
      "v": 92
    },
    {
      "midi": 41,
      "hit": false,
      "t": 56326.44800000001,
      "d": 1983.4154583333293,
      "v": 92
    },
    {
      "midi": 74,
      "hit": false,
      "t": 56632.570000000014,
      "d": 950.25370833333,
      "v": 75
    },
    {
      "midi": 53,
      "hit": false,
      "t": 56938.69199999995,
      "d": 414.5402083333247,
      "v": 67
    },
    {
      "midi": 57,
      "hit": false,
      "t": 56938.69200000001,
      "d": 382.6524999999965,
      "v": 92
    },
    {
      "midi": 57,
      "hit": false,
      "t": 57244.81399999995,
      "d": 70.15295833333221,
      "v": 62
    },
    {
      "midi": 60,
      "hit": false,
      "t": 57244.81399999995,
      "d": 248.72412499999336,
      "v": 67
    },
    {
      "midi": 62,
      "hit": false,
      "t": 57244.81399999995,
      "d": 255.1016666666619,
      "v": 74
    },
    {
      "midi": 60,
      "hit": false,
      "t": 57244.814000000006,
      "d": 318.87708333333285,
      "v": 92
    },
    {
      "midi": 53,
      "hit": false,
      "t": 57550.93599999994,
      "d": 497.4482500000013,
      "v": 66
    },
    {
      "midi": 57,
      "hit": false,
      "t": 57550.93600000001,
      "d": 280.61183333332883,
      "v": 92
    },
    {
      "midi": 57,
      "hit": false,
      "t": 57857.057999999946,
      "d": 363.51987499999814,
      "v": 67
    },
    {
      "midi": 60,
      "hit": false,
      "t": 57857.057999999946,
      "d": 408.1626666666634,
      "v": 67
    },
    {
      "midi": 64,
      "hit": false,
      "t": 57857.058000000005,
      "d": 357.14233333333686,
      "v": 92
    },
    {
      "midi": 76,
      "hit": false,
      "t": 57857.05800000001,
      "d": 612.2439999999988,
      "v": 109
    },
    {
      "midi": 53,
      "hit": false,
      "t": 58163.17999999994,
      "d": 178.57116666666843,
      "v": 62
    },
    {
      "midi": 57,
      "hit": false,
      "t": 58163.18000000001,
      "d": 293.36691666666593,
      "v": 92
    },
    {
      "midi": 41,
      "hit": false,
      "t": 58469.301999999945,
      "d": 178.57116666666843,
      "v": 100
    },
    {
      "midi": 41,
      "hit": false,
      "t": 58469.302,
      "d": 146.68345833333296,
      "v": 92
    },
    {
      "midi": 77,
      "hit": false,
      "t": 58469.30200000001,
      "d": 554.8461249999964,
      "v": 109
    },
    {
      "midi": 43,
      "hit": false,
      "t": 58775.42399999995,
      "d": 803.570249999997,
      "v": 105
    },
    {
      "midi": 53,
      "hit": false,
      "t": 58775.42399999995,
      "d": 943.8761666666614,
      "v": 105
    },
    {
      "midi": 57,
      "hit": false,
      "t": 58775.42399999995,
      "d": 963.0087916666598,
      "v": 105
    },
    {
      "midi": 60,
      "hit": false,
      "t": 58775.42399999995,
      "d": 982.1414166666582,
      "v": 105
    },
    {
      "midi": 64,
      "hit": false,
      "t": 58775.42399999995,
      "d": 1077.8045416666573,
      "v": 105
    },
    {
      "midi": 55,
      "hit": false,
      "t": 58775.424000000006,
      "d": 184.94870833333698,
      "v": 92
    },
    {
      "midi": 43,
      "hit": false,
      "t": 58775.424000000006,
      "d": 1741.0688749999972,
      "v": 92
    },
    {
      "midi": 57,
      "hit": false,
      "t": 59081.54600000001,
      "d": 389.03004166667233,
      "v": 92
    },
    {
      "midi": 76,
      "hit": false,
      "t": 59081.54600000001,
      "d": 580.3562916666633,
      "v": 102
    },
    {
      "midi": 60,
      "hit": false,
      "t": 59387.66800000001,
      "d": 293.36691666666593,
      "v": 92
    },
    {
      "midi": 43,
      "hit": false,
      "t": 59693.78999999994,
      "d": 127.55083333332732,
      "v": 74
    },
    {
      "midi": 64,
      "hit": false,
      "t": 59693.79000000001,
      "d": 114.7957499999975,
      "v": 92
    },
    {
      "midi": 77,
      "hit": false,
      "t": 59693.79000000001,
      "d": 133.92837500000314,
      "v": 75
    },
    {
      "midi": 76,
      "hit": false,
      "t": 59846.85100000001,
      "d": 165.81608333333133,
      "v": 93
    },
    {
      "midi": 55,
      "hit": false,
      "t": 59999.91199999994,
      "d": 491.07070833333273,
      "v": 105
    },
    {
      "midi": 59,
      "hit": false,
      "t": 59999.91199999994,
      "d": 682.396958333331,
      "v": 105
    },
    {
      "midi": 43,
      "hit": false,
      "t": 59999.91199999994,
      "d": 707.9071249999979,
      "v": 105
    },
    {
      "midi": 62,
      "hit": false,
      "t": 59999.91199999994,
      "d": 739.7948333333334,
      "v": 105
    },
    {
      "midi": 59,
      "hit": false,
      "t": 59999.912000000004,
      "d": 414.540208333332,
      "v": 92
    },
    {
      "midi": 62,
      "hit": false,
      "t": 59999.912000000004,
      "d": 491.07070833333273,
      "v": 92
    },
    {
      "midi": 55,
      "hit": false,
      "t": 59999.912000000004,
      "d": 778.0600833333301,
      "v": 92
    },
    {
      "midi": 74,
      "hit": false,
      "t": 59999.91200000001,
      "d": 956.6312499999913,
      "v": 102
    },
    {
      "midi": 55,
      "hit": false,
      "t": 60612.15599999994,
      "d": 210.4588750000039,
      "v": 74
    },
    {
      "midi": 59,
      "hit": false,
      "t": 60612.156,
      "d": 255.1016666666619,
      "v": 92
    },
    {
      "midi": 43,
      "hit": false,
      "t": 60918.27799999994,
      "d": 191.32624999999825,
      "v": 86
    },
    {
      "midi": 43,
      "hit": false,
      "t": 60918.278,
      "d": 261.47920833333046,
      "v": 92
    },
    {
      "midi": 76,
      "hit": false,
      "t": 60918.278000000006,
      "d": 191.32624999999825,
      "v": 102
    },
    {
      "midi": 55,
      "hit": false,
      "t": 61224.399999999936,
      "d": 586.7338333333319,
      "v": 105
    },
    {
      "midi": 48,
      "hit": false,
      "t": 61224.399999999936,
      "d": 746.1723750000019,
      "v": 105
    },
    {
      "midi": 36,
      "hit": false,
      "t": 61224.399999999936,
      "d": 924.7435416666704,
      "v": 105
    },
    {
      "midi": 64,
      "hit": false,
      "t": 61224.399999999936,
      "d": 1052.294375000005,
      "v": 105
    },
    {
      "midi": 60,
      "hit": false,
      "t": 61224.399999999936,
      "d": 1077.8045416666719,
      "v": 105
    },
    {
      "midi": 48,
      "hit": false,
      "t": 61224.399999999994,
      "d": 605.8664583333302,
      "v": 92
    },
    {
      "midi": 76,
      "hit": false,
      "t": 61224.4,
      "d": 210.45887499999662,
      "v": 93
    },
    {
      "midi": 55,
      "hit": false,
      "t": 61530.522,
      "d": 676.0194166666552,
      "v": 92
    },
    {
      "midi": 76,
      "hit": false,
      "t": 61530.522,
      "d": 204.08133333333535,
      "v": 93
    },
    {
      "midi": 55,
      "hit": false,
      "t": 61836.643999999935,
      "d": 414.54020833333925,
      "v": 66
    },
    {
      "midi": 60,
      "hit": false,
      "t": 61836.64399999999,
      "d": 267.856749999999,
      "v": 92
    },
    {
      "midi": 76,
      "hit": false,
      "t": 61836.644,
      "d": 223.21395833333372,
      "v": 75
    },
    {
      "midi": 48,
      "hit": false,
      "t": 62142.76599999994,
      "d": 899.2333750000034,
      "v": 100
    },
    {
      "midi": 62,
      "hit": false,
      "t": 62142.76599999999,
      "d": 363.51987499999814,
      "v": 92
    },
    {
      "midi": 76,
      "hit": false,
      "t": 62142.766,
      "d": 159.43854166667006,
      "v": 109
    },
    {
      "midi": 67,
      "hit": false,
      "t": 62448.88799999994,
      "d": 389.03004166667233,
      "v": 86
    },
    {
      "midi": 55,
      "hit": false,
      "t": 62448.887999999984,
      "d": 433.6728333333376,
      "v": 92
    },
    {
      "midi": 55,
      "hit": false,
      "t": 62755.009999999944,
      "d": 248.72412500000064,
      "v": 86
    },
    {
      "midi": 67,
      "hit": false,
      "t": 62755.00999999999,
      "d": 414.54020833333925,
      "v": 92
    },
    {
      "midi": 60,
      "hit": false,
      "t": 63061.13199999994,
      "d": 235.96904166666354,
      "v": 105
    },
    {
      "midi": 55,
      "hit": false,
      "t": 63061.13199999999,
      "d": 892.8558333333422,
      "v": 92
    },
    {
      "midi": 64,
      "hit": false,
      "t": 63367.253999999935,
      "d": 140.30591666666442,
      "v": 86
    },
    {
      "midi": 48,
      "hit": false,
      "t": 63367.253999999935,
      "d": 178.57116666666116,
      "v": 86
    },
    {
      "midi": 62,
      "hit": false,
      "t": 63367.25399999999,
      "d": 752.5499166666705,
      "v": 92
    },
    {
      "midi": 72,
      "hit": false,
      "t": 63367.25400000001,
      "d": 261.47920833333046,
      "v": 102
    },
    {
      "midi": 62,
      "hit": false,
      "t": 63673.37599999993,
      "d": 363.51987499999814,
      "v": 105
    },
    {
      "midi": 47,
      "hit": false,
      "t": 63673.37599999993,
      "d": 1575.2527916666586,
      "v": 105
    },
    {
      "midi": 47,
      "hit": false,
      "t": 63673.376,
      "d": 1843.1095416666722,
      "v": 92
    },
    {
      "midi": 74,
      "hit": false,
      "t": 63673.376000000004,
      "d": 210.45887499999662,
      "v": 102
    },
    {
      "midi": 55,
      "hit": false,
      "t": 63979.497999999934,
      "d": 688.7744999999995,
      "v": 100
    },
    {
      "midi": 55,
      "hit": false,
      "t": 63979.498,
      "d": 758.9274583333317,
      "v": 92
    },
    {
      "midi": 74,
      "hit": false,
      "t": 63979.498,
      "d": 159.43854166667006,
      "v": 66
    },
    {
      "midi": 62,
      "hit": false,
      "t": 64285.61999999993,
      "d": 497.4482500000013,
      "v": 100
    },
    {
      "midi": 62,
      "hit": false,
      "t": 64285.619999999995,
      "d": 695.1520416666754,
      "v": 92
    },
    {
      "midi": 74,
      "hit": false,
      "t": 64285.62,
      "d": 261.47920833333046,
      "v": 75
    },
    {
      "midi": 67,
      "hit": false,
      "t": 64591.74199999993,
      "d": 471.9380833333271,
      "v": 105
    },
    {
      "midi": 67,
      "hit": false,
      "t": 64591.742,
      "d": 401.78512500000215,
      "v": 92
    },
    {
      "midi": 79,
      "hit": false,
      "t": 64591.742,
      "d": 510.2033333333311,
      "v": 102
    },
    {
      "midi": 55,
      "hit": false,
      "t": 64897.86399999993,
      "d": 242.3465833333321,
      "v": 86
    },
    {
      "midi": 55,
      "hit": false,
      "t": 64897.864,
      "d": 816.3253333333269,
      "v": 92
    },
    {
      "midi": 62,
      "hit": false,
      "t": 65203.985999999924,
      "d": 363.51987499999086,
      "v": 105
    },
    {
      "midi": 74,
      "hit": false,
      "t": 65203.986,
      "d": 573.978750000002,
      "v": 82
    },
    {
      "midi": 55,
      "hit": false,
      "t": 65510.10799999992,
      "d": 204.08133333333535,
      "v": 74
    },
    {
      "midi": 62,
      "hit": false,
      "t": 65510.108,
      "d": 255.1016666666619,
      "v": 92
    },
    {
      "midi": 47,
      "hit": false,
      "t": 65816.22999999992,
      "d": 178.57116666666116,
      "v": 105
    },
    {
      "midi": 47,
      "hit": false,
      "t": 65816.23,
      "d": 223.21395833333372,
      "v": 92
    },
    {
      "midi": 74,
      "hit": false,
      "t": 65816.23,
      "d": 235.96904166667082,
      "v": 82
    },
    {
      "midi": 60,
      "hit": false,
      "t": 66122.35199999991,
      "d": 376.27495833333523,
      "v": 105
    },
    {
      "midi": 45,
      "hit": false,
      "t": 66122.35199999991,
      "d": 1817.5993750000052,
      "v": 105
    },
    {
      "midi": 60,
      "hit": false,
      "t": 66122.352,
      "d": 357.14233333333686,
      "v": 92
    },
    {
      "midi": 45,
      "hit": false,
      "t": 66122.352,
      "d": 1581.630333333349,
      "v": 92
    },
    {
      "midi": 72,
      "hit": false,
      "t": 66122.352,
      "d": 216.83641666667245,
      "v": 109
    },
    {
      "midi": 53,
      "hit": false,
      "t": 66428.47399999991,
      "d": 446.42791666666744,
      "v": 74
    },
    {
      "midi": 53,
      "hit": false,
      "t": 66428.474,
      "d": 701.5295833333366,
      "v": 92
    },
    {
      "midi": 72,
      "hit": false,
      "t": 66428.474,
      "d": 165.8160833333386,
      "v": 70
    },
    {
      "midi": 60,
      "hit": false,
      "t": 66734.59599999992,
      "d": 76.53049999999348,
      "v": 74
    },
    {
      "midi": 60,
      "hit": false,
      "t": 66734.596,
      "d": 688.7745000000141,
      "v": 92
    },
    {
      "midi": 72,
      "hit": false,
      "t": 66734.596,
      "d": 178.57116666666116,
      "v": 102
    },
    {
      "midi": 60,
      "hit": false,
      "t": 67040.71799999992,
      "d": 229.591499999995,
      "v": 100
    },
    {
      "midi": 53,
      "hit": false,
      "t": 67040.71799999992,
      "d": 446.42791666666744,
      "v": 100
    },
    {
      "midi": 72,
      "hit": false,
      "t": 67040.718,
      "d": 108.41820833332895,
      "v": 82
    },
    {
      "midi": 65,
      "hit": false,
      "t": 67040.71800000001,
      "d": 369.89741666667396,
      "v": 92
    },
    {
      "midi": 71,
      "hit": false,
      "t": 67193.779,
      "d": 197.70379166667408,
      "v": 75
    },
    {
      "midi": 69,
      "hit": false,
      "t": 67346.84,
      "d": 650.5092500000028,
      "v": 93
    },
    {
      "midi": 53,
      "hit": false,
      "t": 67346.84000000001,
      "d": 465.5605416666658,
      "v": 92
    },
    {
      "midi": 53,
      "hit": false,
      "t": 67652.96199999993,
      "d": 229.591499999995,
      "v": 86
    },
    {
      "midi": 60,
      "hit": false,
      "t": 67652.96200000001,
      "d": 542.0910416666738,
      "v": 92
    },
    {
      "midi": 72,
      "hit": false,
      "t": 67959.084,
      "d": 153.0610000000015,
      "v": 93
    },
    {
      "midi": 53,
      "hit": false,
      "t": 67959.08400000002,
      "d": 408.1626666666707,
      "v": 92
    },
    {
      "midi": 55,
      "hit": false,
      "t": 68265.20599999992,
      "d": 197.70379166665953,
      "v": 105
    },
    {
      "midi": 57,
      "hit": false,
      "t": 68265.20599999992,
      "d": 695.1520416666608,
      "v": 100
    },
    {
      "midi": 72,
      "hit": false,
      "t": 68265.206,
      "d": 401.7851249999949,
      "v": 109
    },
    {
      "midi": 43,
      "hit": false,
      "t": 68265.20600000002,
      "d": 223.21395833333372,
      "v": 92
    },
    {
      "midi": 55,
      "hit": false,
      "t": 68571.3279999999,
      "d": 503.8257916666771,
      "v": 67
    },
    {
      "midi": 60,
      "hit": false,
      "t": 68571.3279999999,
      "d": 637.7541666666657,
      "v": 100
    },
    {
      "midi": 41,
      "hit": false,
      "t": 68571.3279999999,
      "d": 714.2846666666592,
      "v": 105
    },
    {
      "midi": 53,
      "hit": false,
      "t": 68571.32800000002,
      "d": 114.79575000000477,
      "v": 92
    },
    {
      "midi": 60,
      "hit": false,
      "t": 68571.32800000002,
      "d": 318.8770833333401,
      "v": 92
    },
    {
      "midi": 64,
      "hit": false,
      "t": 68571.32800000002,
      "d": 408.1626666666707,
      "v": 92
    },
    {
      "midi": 41,
      "hit": false,
      "t": 68571.32800000002,
      "d": 860.968125000014,
      "v": 92
    },
    {
      "midi": 72,
      "hit": false,
      "t": 68877.45,
      "d": 191.32624999999825,
      "v": 75
    },
    {
      "midi": 55,
      "hit": false,
      "t": 68877.45000000003,
      "d": 267.8567500000063,
      "v": 92
    },
    {
      "midi": 55,
      "hit": false,
      "t": 69183.57199999991,
      "d": 216.8364166666579,
      "v": 86
    },
    {
      "midi": 72,
      "hit": false,
      "t": 69183.572,
      "d": 197.70379166665953,
      "v": 75
    },
    {
      "midi": 57,
      "hit": false,
      "t": 69183.57200000003,
      "d": 235.96904166667082,
      "v": 92
    },
    {
      "midi": 60,
      "hit": false,
      "t": 69489.6939999999,
      "d": 127.55083333332732,
      "v": 74
    },
    {
      "midi": 76,
      "hit": false,
      "t": 69489.69399999999,
      "d": 420.91774999999325,
      "v": 102
    },
    {
      "midi": 60,
      "hit": false,
      "t": 69489.69400000003,
      "d": 376.27495833333523,
      "v": 92
    },
    {
      "midi": 55,
      "hit": false,
      "t": 69795.81599999989,
      "d": 191.32624999999825,
      "v": 100
    },
    {
      "midi": 64,
      "hit": false,
      "t": 69795.81599999989,
      "d": 376.27495833333523,
      "v": 105
    },
    {
      "midi": 60,
      "hit": false,
      "t": 69795.81599999989,
      "d": 382.6524999999965,
      "v": 105
    },
    {
      "midi": 43,
      "hit": false,
      "t": 69795.81599999989,
      "d": 1186.2227499999717,
      "v": 105
    },
    {
      "midi": 64,
      "hit": false,
      "t": 69795.81600000004,
      "d": 554.8461249999964,
      "v": 92
    },
    {
      "midi": 43,
      "hit": false,
      "t": 69795.81600000004,
      "d": 1109.6922499999782,
      "v": 92
    },
    {
      "midi": 55,
      "hit": false,
      "t": 70101.9379999999,
      "d": 197.70379166665953,
      "v": 62
    },
    {
      "midi": 74,
      "hit": false,
      "t": 70101.93799999998,
      "d": 242.3465833333321,
      "v": 102
    },
    {
      "midi": 55,
      "hit": false,
      "t": 70101.93800000004,
      "d": 522.9584166666609,
      "v": 92
    },
    {
      "midi": 55,
      "hit": false,
      "t": 70408.05999999988,
      "d": 197.70379166665953,
      "v": 100
    },
    {
      "midi": 59,
      "hit": false,
      "t": 70408.05999999988,
      "d": 363.5198749999836,
      "v": 105
    },
    {
      "midi": 62,
      "hit": false,
      "t": 70408.05999999988,
      "d": 369.89741666664486,
      "v": 100
    },
    {
      "midi": 59,
      "hit": false,
      "t": 70408.06000000003,
      "d": 382.6524999999965,
      "v": 92
    },
    {
      "midi": 62,
      "hit": false,
      "t": 70408.06000000003,
      "d": 420.91774999999325,
      "v": 92
    },
    {
      "midi": 55,
      "hit": false,
      "t": 70714.18199999987,
      "d": 172.19362499998533,
      "v": 74
    },
    {
      "midi": 76,
      "hit": false,
      "t": 70714.18199999997,
      "d": 191.32624999999825,
      "v": 93
    },
    {
      "midi": 55,
      "hit": false,
      "t": 70714.18200000003,
      "d": 382.65249999998196,
      "v": 92
    },
    {
      "midi": 55,
      "hit": false,
      "t": 71020.30399999986,
      "d": 261.47920833333046,
      "v": 74
    },
    {
      "midi": 60,
      "hit": false,
      "t": 71020.30399999986,
      "d": 382.6524999999965,
      "v": 105
    },
    {
      "midi": 64,
      "hit": false,
      "t": 71020.30399999986,
      "d": 401.7851249999949,
      "v": 100
    },
    {
      "midi": 48,
      "hit": false,
      "t": 71020.30399999986,
      "d": 1894.1298749999696,
      "v": 105
    },
    {
      "midi": 76,
      "hit": false,
      "t": 71020.30399999997,
      "d": 210.45887499999662,
      "v": 93
    },
    {
      "midi": 60,
      "hit": false,
      "t": 71020.30400000002,
      "d": 605.8664583333157,
      "v": 92
    },
    {
      "midi": 62,
      "hit": false,
      "t": 71020.30400000002,
      "d": 911.9884583333042,
      "v": 92
    },
    {
      "midi": 48,
      "hit": false,
      "t": 71020.30400000002,
      "d": 1881.3747916666325,
      "v": 92
    },
    {
      "midi": 55,
      "hit": false,
      "t": 71326.42599999986,
      "d": 280.61183333332883,
      "v": 105
    },
    {
      "midi": 76,
      "hit": false,
      "t": 71326.42599999998,
      "d": 191.32624999999825,
      "v": 82
    },
    {
      "midi": 55,
      "hit": false,
      "t": 71326.426,
      "d": 739.7948333333043,
      "v": 92
    },
    {
      "midi": 60,
      "hit": false,
      "t": 71632.54799999985,
      "d": 197.70379166665953,
      "v": 86
    },
    {
      "midi": 76,
      "hit": false,
      "t": 71632.54799999998,
      "d": 178.57116666666116,
      "v": 82
    },
    {
      "midi": 60,
      "hit": false,
      "t": 71632.548,
      "d": 682.3969583333092,
      "v": 92
    },
    {
      "midi": 55,
      "hit": false,
      "t": 71938.66999999984,
      "d": 31.887708333335468,
      "v": 67
    },
    {
      "midi": 62,
      "hit": false,
      "t": 71938.66999999984,
      "d": 235.96904166667082,
      "v": 105
    },
    {
      "midi": 76,
      "hit": false,
      "t": 71938.66999999997,
      "d": 184.94870833333698,
      "v": 102
    },
    {
      "midi": 62,
      "hit": false,
      "t": 71938.66999999998,
      "d": 325.25462499998685,
      "v": 92
    },
    {
      "midi": 67,
      "hit": false,
      "t": 71938.66999999998,
      "d": 465.56054166665126,
      "v": 92
    },
    {
      "midi": 55,
      "hit": false,
      "t": 72244.79199999984,
      "d": 229.591499999995,
      "v": 86
    },
    {
      "midi": 55,
      "hit": false,
      "t": 72244.79199999997,
      "d": 389.03004166667233,
      "v": 92
    },
    {
      "midi": 55,
      "hit": false,
      "t": 72550.91399999983,
      "d": 133.92837500000314,
      "v": 74
    },
    {
      "midi": 67,
      "hit": false,
      "t": 72550.91399999983,
      "d": 420.91774999999325,
      "v": 105
    },
    {
      "midi": 64,
      "hit": false,
      "t": 72550.91399999998,
      "d": 522.9584166666755,
      "v": 92
    },
    {
      "midi": 60,
      "hit": false,
      "t": 72550.91399999998,
      "d": 554.8461250000109,
      "v": 92
    },
    {
      "midi": 55,
      "hit": false,
      "t": 72857.03599999983,
      "d": 216.8364166666579,
      "v": 66
    },
    {
      "midi": 55,
      "hit": false,
      "t": 72857.03599999998,
      "d": 860.9681249999994,
      "v": 92
    },
    {
      "midi": 48,
      "hit": false,
      "t": 73163.15799999982,
      "d": 229.591499999995,
      "v": 100
    },
    {
      "midi": 60,
      "hit": false,
      "t": 73163.15799999982,
      "d": 255.10166666665464,
      "v": 86
    },
    {
      "midi": 72,
      "hit": false,
      "t": 73163.15799999997,
      "d": 267.8567500000063,
      "v": 93
    },
    {
      "midi": 48,
      "hit": false,
      "t": 73163.15799999998,
      "d": 235.96904166667082,
      "v": 92
    },
    {
      "midi": 55,
      "hit": false,
      "t": 73469.27999999981,
      "d": 133.92837500000314,
      "v": 74
    },
    {
      "midi": 62,
      "hit": false,
      "t": 73469.27999999981,
      "d": 427.2952916666691,
      "v": 100
    },
    {
      "midi": 47,
      "hit": false,
      "t": 73469.27999999981,
      "d": 1881.3747916666762,
      "v": 105
    },
    {
      "midi": 74,
      "hit": false,
      "t": 73469.27999999997,
      "d": 235.96904166667082,
      "v": 102
    },
    {
      "midi": 62,
      "hit": false,
      "t": 73469.27999999998,
      "d": 389.0300416666578,
      "v": 92
    },
    {
      "midi": 59,
      "hit": false,
      "t": 73469.27999999998,
      "d": 414.5402083333174,
      "v": 92
    },
    {
      "midi": 47,
      "hit": false,
      "t": 73469.27999999998,
      "d": 1804.8442916666536,
      "v": 92
    },
    {
      "midi": 55,
      "hit": false,
      "t": 73775.40199999981,
      "d": 242.3465833333321,
      "v": 67
    },
    {
      "midi": 55,
      "hit": false,
      "t": 73775.40199999997,
      "d": 676.0194166666624,
      "v": 92
    },
    {
      "midi": 74,
      "hit": false,
      "t": 73775.40199999997,
      "d": 172.19362499999988,
      "v": 75
    },
    {
      "midi": 55,
      "hit": false,
      "t": 74081.52399999982,
      "d": 76.53049999999348,
      "v": 67
    },
    {
      "midi": 62,
      "hit": false,
      "t": 74081.52399999982,
      "d": 210.45887499999662,
      "v": 86
    },
    {
      "midi": 59,
      "hit": false,
      "t": 74081.52399999996,
      "d": 325.2546250000014,
      "v": 92
    },
    {
      "midi": 74,
      "hit": false,
      "t": 74081.52399999998,
      "d": 204.08133333333535,
      "v": 75
    },
    {
      "midi": 67,
      "hit": false,
      "t": 74387.64599999982,
      "d": 146.68345833334024,
      "v": 86
    },
    {
      "midi": 67,
      "hit": false,
      "t": 74387.64599999996,
      "d": 478.3156250000029,
      "v": 92
    },
    {
      "midi": 79,
      "hit": false,
      "t": 74387.64599999998,
      "d": 510.2033333333384,
      "v": 102
    },
    {
      "midi": 74,
      "hit": false,
      "t": 74693.76799999982,
      "d": 140.30591666666442,
      "v": 100
    },
    {
      "midi": 55,
      "hit": false,
      "t": 74693.76799999997,
      "d": 452.80545833334327,
      "v": 92
    },
    {
      "midi": 67,
      "hit": false,
      "t": 74999.88999999982,
      "d": 127.55083333332732,
      "v": 105
    },
    {
      "midi": 62,
      "hit": false,
      "t": 74999.88999999997,
      "d": 414.540208333332,
      "v": 92
    },
    {
      "midi": 74,
      "hit": false,
      "t": 74999.88999999998,
      "d": 535.713499999998,
      "v": 93
    },
    {
      "midi": 55,
      "hit": false,
      "t": 75306.01199999997,
      "d": 267.85674999999173,
      "v": 92
    },
    {
      "midi": 47,
      "hit": false,
      "t": 75612.13399999982,
      "d": 184.94870833333698,
      "v": 105
    },
    {
      "midi": 47,
      "hit": false,
      "t": 75612.13399999996,
      "d": 216.83641666667245,
      "v": 92
    },
    {
      "midi": 74,
      "hit": false,
      "t": 75612.13399999998,
      "d": 261.47920833333046,
      "v": 75
    },
    {
      "midi": 53,
      "hit": false,
      "t": 75918.25599999982,
      "d": 133.9283749999886,
      "v": 86
    },
    {
      "midi": 60,
      "hit": false,
      "t": 75918.25599999982,
      "d": 357.1423333333223,
      "v": 100
    },
    {
      "midi": 45,
      "hit": false,
      "t": 75918.25599999982,
      "d": 1862.2421666666487,
      "v": 105
    },
    {
      "midi": 60,
      "hit": false,
      "t": 75918.25599999996,
      "d": 363.5198750000127,
      "v": 92
    },
    {
      "midi": 45,
      "hit": false,
      "t": 75918.25599999996,
      "d": 1951.5277500000084,
      "v": 92
    },
    {
      "midi": 72,
      "hit": false,
      "t": 75918.25599999998,
      "d": 216.83641666667245,
      "v": 82
    },
    {
      "midi": 53,
      "hit": false,
      "t": 76224.37799999981,
      "d": 223.21395833333372,
      "v": 74
    },
    {
      "midi": 53,
      "hit": false,
      "t": 76224.37799999997,
      "d": 554.8461250000109,
      "v": 92
    },
    {
      "midi": 72,
      "hit": false,
      "t": 76224.37799999998,
      "d": 184.94870833333698,
      "v": 93
    },
    {
      "midi": 53,
      "hit": false,
      "t": 76530.49999999981,
      "d": 89.28558333333058,
      "v": 62
    },
    {
      "midi": 60,
      "hit": false,
      "t": 76530.49999999981,
      "d": 89.28558333333058,
      "v": 74
    },
    {
      "midi": 72,
      "hit": false,
      "t": 76530.49999999999,
      "d": 133.92837500000314,
      "v": 58
    },
    {
      "midi": 60,
      "hit": false,
      "t": 76836.62199999981,
      "d": 286.98937500000466,
      "v": 105
    },
    {
      "midi": 53,
      "hit": false,
      "t": 76836.62199999981,
      "d": 344.38724999999977,
      "v": 86
    },
    {
      "midi": 65,
      "hit": false,
      "t": 76836.62199999997,
      "d": 261.47920833333046,
      "v": 92
    },
    {
      "midi": 60,
      "hit": false,
      "t": 76836.62199999997,
      "d": 382.6524999999965,
      "v": 92
    },
    {
      "midi": 72,
      "hit": false,
      "t": 76836.62199999999,
      "d": 172.19362499999988,
      "v": 82
    },
    {
      "midi": 71,
      "hit": false,
      "t": 76989.68299999999,
      "d": 165.8160833333386,
      "v": 82
    },
    {
      "midi": 53,
      "hit": false,
      "t": 77142.74399999998,
      "d": 542.0910416666593,
      "v": 92
    },
    {
      "midi": 69,
      "hit": false,
      "t": 77142.74399999999,
      "d": 542.0910416666738,
      "v": 82
    },
    {
      "midi": 55,
      "hit": false,
      "t": 77448.86599999982,
      "d": 229.591499999995,
      "v": 105
    },
    {
      "midi": 57,
      "hit": false,
      "t": 77754.98799999981,
      "d": 223.21395833331917,
      "v": 100
    },
    {
      "midi": 72,
      "hit": false,
      "t": 77754.988,
      "d": 191.32624999999825,
      "v": 82
    },
    {
      "midi": 60,
      "hit": false,
      "t": 78061.1099999998,
      "d": 886.4782916666736,
      "v": 100
    },
    {
      "midi": 57,
      "hit": false,
      "t": 78061.10999999997,
      "d": 146.68345833334024,
      "v": 92
    },
    {
      "midi": 72,
      "hit": false,
      "t": 78061.11,
      "d": 459.18300000000454,
      "v": 109
    },
    {
      "midi": 59,
      "hit": false,
      "t": 78214.17099999997,
      "d": 216.83641666667245,
      "v": 92
    },
    {
      "midi": 57,
      "hit": false,
      "t": 78367.2319999998,
      "d": 446.42791666666744,
      "v": 86
    },
    {
      "midi": 41,
      "hit": false,
      "t": 78367.2319999998,
      "d": 688.7744999999995,
      "v": 105
    },
    {
      "midi": 53,
      "hit": false,
      "t": 78367.2319999998,
      "d": 778.0600833333301,
      "v": 74
    },
    {
      "midi": 60,
      "hit": false,
      "t": 78367.23199999997,
      "d": 873.7232083333365,
      "v": 92
    },
    {
      "midi": 41,
      "hit": false,
      "t": 78367.23199999997,
      "d": 1020.4066666666768,
      "v": 92
    },
    {
      "midi": 72,
      "hit": false,
      "t": 78673.354,
      "d": 204.08133333333535,
      "v": 75
    },
    {
      "midi": 57,
      "hit": false,
      "t": 78979.4759999998,
      "d": 82.90804166665475,
      "v": 67
    },
    {
      "midi": 53,
      "hit": false,
      "t": 78979.47599999998,
      "d": 465.56054166668036,
      "v": 92
    },
    {
      "midi": 72,
      "hit": false,
      "t": 78979.47600000001,
      "d": 210.45887499999662,
      "v": 75
    },
    {
      "midi": 53,
      "hit": false,
      "t": 79285.5979999998,
      "d": 465.5605416666658,
      "v": 67
    },
    {
      "midi": 60,
      "hit": false,
      "t": 79285.5979999998,
      "d": 624.9990833333432,
      "v": 100
    },
    {
      "midi": 64,
      "hit": false,
      "t": 79285.5979999998,
      "d": 886.4782916666736,
      "v": 86
    },
    {
      "midi": 57,
      "hit": false,
      "t": 79285.59799999998,
      "d": 146.68345833334024,
      "v": 92
    },
    {
      "midi": 76,
      "hit": false,
      "t": 79285.59800000001,
      "d": 427.2952916666691,
      "v": 102
    },
    {
      "midi": 43,
      "hit": false,
      "t": 79591.7199999998,
      "d": 1198.977833333338,
      "v": 105
    },
    {
      "midi": 53,
      "hit": false,
      "t": 79591.72,
      "d": 293.3669166666805,
      "v": 92
    },
    {
      "midi": 60,
      "hit": false,
      "t": 79591.72,
      "d": 510.2033333333384,
      "v": 92
    },
    {
      "midi": 43,
      "hit": false,
      "t": 79591.72,
      "d": 778.0600833333301,
      "v": 92
    },
    {
      "midi": 55,
      "hit": false,
      "t": 79897.8419999998,
      "d": 516.5808749999997,
      "v": 86
    },
    {
      "midi": 76,
      "hit": false,
      "t": 79897.84200000002,
      "d": 420.91774999999325,
      "v": 93
    },
    {
      "midi": 59,
      "hit": false,
      "t": 80203.9639999998,
      "d": 395.4075833333336,
      "v": 66
    },
    {
      "midi": 62,
      "hit": false,
      "t": 80203.9639999998,
      "d": 516.5808749999997,
      "v": 86
    },
    {
      "midi": 53,
      "hit": false,
      "t": 80203.964,
      "d": 140.30591666666442,
      "v": 92
    },
    {
      "midi": 59,
      "hit": false,
      "t": 80203.964,
      "d": 369.8974166666594,
      "v": 92
    },
    {
      "midi": 55,
      "hit": false,
      "t": 80510.0859999998,
      "d": 389.0300416666432,
      "v": 66
    },
    {
      "midi": 53,
      "hit": false,
      "t": 80510.086,
      "d": 114.79575000000477,
      "v": 92
    },
    {
      "midi": 76,
      "hit": false,
      "t": 80510.08600000001,
      "d": 599.488916666669,
      "v": 93
    },
    {
      "midi": 62,
      "hit": false,
      "t": 80816.2079999998,
      "d": 114.79574999999022,
      "v": 67
    },
    {
      "midi": 60,
      "hit": false,
      "t": 80816.2079999998,
      "d": 363.5198749999836,
      "v": 66
    },
    {
      "midi": 48,
      "hit": false,
      "t": 80816.2079999998,
      "d": 631.3766249999753,
      "v": 105
    },
    {
      "midi": 60,
      "hit": false,
      "t": 80816.208,
      "d": 516.5808749999997,
      "v": 92
    },
    {
      "midi": 48,
      "hit": false,
      "t": 80816.208,
      "d": 2142.854000000021,
      "v": 92
    },
    {
      "midi": 55,
      "hit": false,
      "t": 81122.32999999978,
      "d": 459.18299999999,
      "v": 74
    },
    {
      "midi": 55,
      "hit": false,
      "t": 81122.33,
      "d": 624.9990833333432,
      "v": 92
    },
    {
      "midi": 74,
      "hit": false,
      "t": 81122.33000000002,
      "d": 318.8770833333401,
      "v": 75
    },
    {
      "midi": 52,
      "hit": false,
      "t": 81428.45199999977,
      "d": 2136.4764583333454,
      "v": 100
    },
    {
      "midi": 60,
      "hit": false,
      "t": 81428.452,
      "d": 376.27495833333523,
      "v": 92
    },
    {
      "midi": 72,
      "hit": false,
      "t": 81428.45200000002,
      "d": 1447.7019583333313,
      "v": 82
    },
    {
      "midi": 55,
      "hit": false,
      "t": 81734.57399999977,
      "d": 637.7541666666657,
      "v": 86
    },
    {
      "midi": 62,
      "hit": false,
      "t": 81734.57400000001,
      "d": 420.9177500000078,
      "v": 92
    },
    {
      "midi": 60,
      "hit": false,
      "t": 82040.69599999978,
      "d": 376.27495833333523,
      "v": 100
    },
    {
      "midi": 55,
      "hit": false,
      "t": 82040.69600000001,
      "d": 344.38724999999977,
      "v": 92
    },
    {
      "midi": 64,
      "hit": false,
      "t": 82346.81799999978,
      "d": 318.8770833333401,
      "v": 86
    },
    {
      "midi": 67,
      "hit": false,
      "t": 82346.81800000001,
      "d": 1307.3960416666814,
      "v": 92
    },
    {
      "midi": 67,
      "hit": false,
      "t": 82652.93999999978,
      "d": 172.19362499999988,
      "v": 66
    },
    {
      "midi": 55,
      "hit": false,
      "t": 82652.94000000002,
      "d": 963.0087916666816,
      "v": 92
    },
    {
      "midi": 72,
      "hit": false,
      "t": 82959.06199999979,
      "d": 146.68345833334024,
      "v": 67
    },
    {
      "midi": 62,
      "hit": false,
      "t": 82959.06200000002,
      "d": 746.1723750000092,
      "v": 92
    },
    {
      "midi": 79,
      "hit": false,
      "t": 83265.18399999979,
      "d": 140.30591666666442,
      "v": 67
    },
    {
      "midi": 48,
      "hit": false,
      "t": 83265.18400000002,
      "d": 338.0097083333385,
      "v": 92
    },
    {
      "midi": 67,
      "hit": false,
      "t": 85408.03800000002,
      "d": 286.98937500000466,
      "v": 82
    },
    {
      "midi": 48,
      "hit": false,
      "t": 85714.15999999979,
      "d": 1147.957500000004,
      "v": 66
    },
    {
      "midi": 36,
      "hit": false,
      "t": 85714.15999999979,
      "d": 2002.5480833333277,
      "v": 105
    },
    {
      "midi": 69,
      "hit": false,
      "t": 85714.16000000002,
      "d": 293.36691666666593,
      "v": 102
    },
    {
      "midi": 48,
      "hit": false,
      "t": 85714.16000000003,
      "d": 2442.598458333334,
      "v": 92
    },
    {
      "midi": 53,
      "hit": false,
      "t": 85714.16000000003,
      "d": 2442.598458333334,
      "v": 92
    },
    {
      "midi": 57,
      "hit": false,
      "t": 85714.16000000003,
      "d": 2442.598458333334,
      "v": 92
    },
    {
      "midi": 60,
      "hit": false,
      "t": 85714.16000000003,
      "d": 2442.598458333334,
      "v": 92
    },
    {
      "midi": 53,
      "hit": false,
      "t": 86020.28199999979,
      "d": 790.8151666666672,
      "v": 100
    },
    {
      "midi": 72,
      "hit": false,
      "t": 86020.28200000002,
      "d": 274.23429166666756,
      "v": 82
    },
    {
      "midi": 57,
      "hit": false,
      "t": 86326.40399999979,
      "d": 720.6622083333205,
      "v": 66
    },
    {
      "midi": 72,
      "hit": false,
      "t": 86326.40400000002,
      "d": 204.08133333333535,
      "v": 109
    },
    {
      "midi": 60,
      "hit": false,
      "t": 86632.5259999998,
      "d": 376.2749583333207,
      "v": 74
    },
    {
      "midi": 72,
      "hit": false,
      "t": 86632.52600000003,
      "d": 867.3456666666607,
      "v": 82
    },
    {
      "midi": 53,
      "hit": false,
      "t": 86938.64799999978,
      "d": 216.8364166666579,
      "v": 62
    },
    {
      "midi": 53,
      "hit": false,
      "t": 87244.76999999977,
      "d": 440.05037500000617,
      "v": 67
    },
    {
      "midi": 62,
      "hit": false,
      "t": 87550.89199999977,
      "d": 242.3465833333321,
      "v": 74
    },
    {
      "midi": 74,
      "hit": false,
      "t": 87550.89200000002,
      "d": 293.36691666666593,
      "v": 75
    },
    {
      "midi": 60,
      "hit": false,
      "t": 87857.01399999978,
      "d": 102.04066666666768,
      "v": 66
    },
    {
      "midi": 72,
      "hit": false,
      "t": 87857.01400000002,
      "d": 216.83641666667245,
      "v": 70
    },
    {
      "midi": 57,
      "hit": false,
      "t": 88163.13599999978,
      "d": 31.887708333335468,
      "v": 67
    },
    {
      "midi": 67,
      "hit": false,
      "t": 88163.13599999978,
      "d": 210.45887499999662,
      "v": 86
    },
    {
      "midi": 65,
      "hit": false,
      "t": 88163.13599999978,
      "d": 344.38724999999977,
      "v": 86
    },
    {
      "midi": 55,
      "hit": false,
      "t": 88163.13599999978,
      "d": 503.82579166666255,
      "v": 74
    },
    {
      "midi": 48,
      "hit": false,
      "t": 88163.13599999978,
      "d": 1715.558708333323,
      "v": 100
    },
    {
      "midi": 36,
      "hit": false,
      "t": 88163.13599999978,
      "d": 1964.282833333331,
      "v": 100
    },
    {
      "midi": 48,
      "hit": false,
      "t": 88163.13600000003,
      "d": 2442.598458333334,
      "v": 92
    },
    {
      "midi": 55,
      "hit": false,
      "t": 88163.13600000003,
      "d": 2442.598458333334,
      "v": 92
    },
    {
      "midi": 62,
      "hit": false,
      "t": 88163.13600000003,
      "d": 2442.598458333334,
      "v": 92
    },
    {
      "midi": 64,
      "hit": false,
      "t": 88163.13600000003,
      "d": 2442.598458333334,
      "v": 92
    },
    {
      "midi": 77,
      "hit": false,
      "t": 88163.13600000003,
      "d": 299.7444583333272,
      "v": 102
    },
    {
      "midi": 60,
      "hit": false,
      "t": 88469.25799999978,
      "d": 363.5198749999836,
      "v": 100
    },
    {
      "midi": 76,
      "hit": false,
      "t": 88469.25800000002,
      "d": 286.98937500000466,
      "v": 70
    },
    {
      "midi": 64,
      "hit": false,
      "t": 88775.37999999977,
      "d": 153.0610000000015,
      "v": 67
    },
    {
      "midi": 74,
      "hit": false,
      "t": 88775.38000000002,
      "d": 299.7444583333272,
      "v": 55
    },
    {
      "midi": 60,
      "hit": false,
      "t": 89081.50199999977,
      "d": 554.8461249999964,
      "v": 100
    },
    {
      "midi": 55,
      "hit": false,
      "t": 89081.50199999977,
      "d": 573.9787499999948,
      "v": 86
    },
    {
      "midi": 64,
      "hit": false,
      "t": 89081.50199999977,
      "d": 803.5702499999898,
      "v": 100
    },
    {
      "midi": 76,
      "hit": false,
      "t": 89081.50200000001,
      "d": 1179.8452083333395,
      "v": 93
    },
    {
      "midi": 60,
      "hit": false,
      "t": 89693.74599999977,
      "d": 350.7647916666756,
      "v": 74
    },
    {
      "midi": 55,
      "hit": false,
      "t": 89999.86799999977,
      "d": 223.21395833334827,
      "v": 67
    },
    {
      "midi": 48,
      "hit": false,
      "t": 90305.98999999979,
      "d": 197.70379166665953,
      "v": 67
    },
    {
      "midi": 67,
      "hit": false,
      "t": 90305.99000000002,
      "d": 255.1016666666692,
      "v": 82
    },
    {
      "midi": 53,
      "hit": false,
      "t": 90612.11199999978,
      "d": 191.32624999999825,
      "v": 62
    },
    {
      "midi": 57,
      "hit": false,
      "t": 90612.11199999978,
      "d": 369.89741666667396,
      "v": 67
    },
    {
      "midi": 60,
      "hit": false,
      "t": 90612.11199999978,
      "d": 395.4075833333336,
      "v": 86
    },
    {
      "midi": 48,
      "hit": false,
      "t": 90612.11199999978,
      "d": 1262.7532500000088,
      "v": 66
    },
    {
      "midi": 36,
      "hit": false,
      "t": 90612.11199999978,
      "d": 1492.3447500000038,
      "v": 86
    },
    {
      "midi": 57,
      "hit": false,
      "t": 90612.11200000002,
      "d": 2091.8336666666582,
      "v": 92
    },
    {
      "midi": 53,
      "hit": false,
      "t": 90612.11200000002,
      "d": 2110.9662916666566,
      "v": 92
    },
    {
      "midi": 60,
      "hit": false,
      "t": 90612.11200000002,
      "d": 2130.098916666655,
      "v": 92
    },
    {
      "midi": 48,
      "hit": false,
      "t": 90612.11200000002,
      "d": 2161.9866249999905,
      "v": 92
    },
    {
      "midi": 69,
      "hit": false,
      "t": 90612.11200000002,
      "d": 280.61183333332883,
      "v": 66
    },
    {
      "midi": 53,
      "hit": false,
      "t": 90918.23399999978,
      "d": 510.2033333333384,
      "v": 74
    },
    {
      "midi": 72,
      "hit": false,
      "t": 90918.23400000001,
      "d": 248.72412499999336,
      "v": 75
    },
    {
      "midi": 57,
      "hit": false,
      "t": 91224.35599999978,
      "d": 223.21395833333372,
      "v": 66
    },
    {
      "midi": 72,
      "hit": false,
      "t": 91224.356,
      "d": 197.70379166665953,
      "v": 93
    },
    {
      "midi": 60,
      "hit": false,
      "t": 91530.47799999978,
      "d": 338.0097083333385,
      "v": 74
    },
    {
      "midi": 72,
      "hit": false,
      "t": 91530.47799999999,
      "d": 554.8461249999964,
      "v": 102
    },
    {
      "midi": 53,
      "hit": false,
      "t": 91836.59999999979,
      "d": 242.3465833333321,
      "v": 66
    },
    {
      "midi": 53,
      "hit": false,
      "t": 92142.72199999978,
      "d": 57.39787499999511,
      "v": 62
    },
    {
      "midi": 62,
      "hit": false,
      "t": 92142.72199999978,
      "d": 274.23429166666756,
      "v": 100
    },
    {
      "midi": 74,
      "hit": false,
      "t": 92142.72199999998,
      "d": 605.8664583333302,
      "v": 93
    },
    {
      "midi": 53,
      "hit": false,
      "t": 92448.84399999978,
      "d": 76.53049999999348,
      "v": 62
    },
    {
      "midi": 64,
      "hit": false,
      "t": 92754.96599999977,
      "d": 1128.8248750000057,
      "v": 74
    },
    {
      "midi": 48,
      "hit": false,
      "t": 92754.96599999977,
      "d": 1798.4667500000214,
      "v": 66
    },
    {
      "midi": 76,
      "hit": false,
      "t": 92754.96599999997,
      "d": 593.1113749999931,
      "v": 75
    },
    {
      "midi": 62,
      "hit": false,
      "t": 92754.96600000001,
      "d": 299.7444583333272,
      "v": 92
    },
    {
      "midi": 55,
      "hit": false,
      "t": 93061.08799999977,
      "d": 516.5808749999997,
      "v": 66
    },
    {
      "midi": 60,
      "hit": false,
      "t": 93061.08799999977,
      "d": 835.4579583333398,
      "v": 74
    },
    {
      "midi": 36,
      "hit": false,
      "t": 93061.08799999977,
      "d": 1524.2324583333539,
      "v": 74
    },
    {
      "midi": 48,
      "hit": false,
      "t": 93061.088,
      "d": 2442.5984583333484,
      "v": 92
    },
    {
      "midi": 55,
      "hit": false,
      "t": 93061.088,
      "d": 2442.5984583333484,
      "v": 92
    },
    {
      "midi": 62,
      "hit": false,
      "t": 93061.088,
      "d": 2442.5984583333484,
      "v": 92
    },
    {
      "midi": 64,
      "hit": false,
      "t": 93061.088,
      "d": 2442.5984583333484,
      "v": 92
    },
    {
      "midi": 72,
      "hit": false,
      "t": 93367.20999999996,
      "d": 1760.2014999999956,
      "v": 75
    },
    {
      "midi": 55,
      "hit": false,
      "t": 93673.33199999978,
      "d": 376.27495833333523,
      "v": 62
    },
    {
      "midi": 60,
      "hit": false,
      "t": 93979.45399999978,
      "d": 159.4385416666628,
      "v": 62
    },
    {
      "midi": 62,
      "hit": false,
      "t": 94285.57599999978,
      "d": 440.05037500000617,
      "v": 66
    },
    {
      "midi": 60,
      "hit": false,
      "t": 94591.69799999979,
      "d": 338.0097083333385,
      "v": 66
    },
    {
      "midi": 55,
      "hit": false,
      "t": 94897.81999999979,
      "d": 267.8567500000063,
      "v": 66
    },
    {
      "midi": 43,
      "hit": false,
      "t": 95203.94199999979,
      "d": 153.0610000000015,
      "v": 86
    },
    {
      "midi": 67,
      "hit": false,
      "t": 95203.94199999995,
      "d": 299.7444583333272,
      "v": 102
    },
    {
      "midi": 53,
      "hit": false,
      "t": 95510.0639999998,
      "d": 733.4172916666721,
      "v": 86
    },
    {
      "midi": 48,
      "hit": false,
      "t": 95510.0639999998,
      "d": 1065.0494583333493,
      "v": 86
    },
    {
      "midi": 36,
      "hit": false,
      "t": 95510.0639999998,
      "d": 1211.7329166666896,
      "v": 100
    },
    {
      "midi": 69,
      "hit": false,
      "t": 95510.06399999994,
      "d": 274.23429166666756,
      "v": 82
    },
    {
      "midi": 48,
      "hit": false,
      "t": 95510.06400000001,
      "d": 2442.598458333334,
      "v": 92
    },
    {
      "midi": 53,
      "hit": false,
      "t": 95510.06400000001,
      "d": 2442.598458333334,
      "v": 92
    },
    {
      "midi": 57,
      "hit": false,
      "t": 95510.06400000001,
      "d": 2442.598458333334,
      "v": 92
    },
    {
      "midi": 60,
      "hit": false,
      "t": 95510.06400000001,
      "d": 2442.598458333334,
      "v": 92
    },
    {
      "midi": 57,
      "hit": false,
      "t": 95816.1859999998,
      "d": 446.42791666666744,
      "v": 100
    },
    {
      "midi": 72,
      "hit": false,
      "t": 95816.18599999994,
      "d": 235.96904166667082,
      "v": 82
    },
    {
      "midi": 60,
      "hit": false,
      "t": 96122.3079999998,
      "d": 184.94870833333698,
      "v": 74
    },
    {
      "midi": 72,
      "hit": false,
      "t": 96122.30799999995,
      "d": 204.08133333333535,
      "v": 82
    },
    {
      "midi": 60,
      "hit": false,
      "t": 96428.4299999998,
      "d": 376.2749583333498,
      "v": 100
    },
    {
      "midi": 72,
      "hit": false,
      "t": 96428.42999999995,
      "d": 835.4579583333398,
      "v": 102
    },
    {
      "midi": 53,
      "hit": false,
      "t": 96734.55199999982,
      "d": 229.591499999995,
      "v": 67
    },
    {
      "midi": 48,
      "hit": false,
      "t": 96734.55199999982,
      "d": 503.825791666648,
      "v": 62
    },
    {
      "midi": 57,
      "hit": false,
      "t": 97040.67399999981,
      "d": 318.8770833333256,
      "v": 67
    },
    {
      "midi": 53,
      "hit": false,
      "t": 97346.7959999998,
      "d": 121.17329166666605,
      "v": 67
    },
    {
      "midi": 77,
      "hit": false,
      "t": 97346.79599999996,
      "d": 223.21395833333372,
      "v": 70
    },
    {
      "midi": 48,
      "hit": false,
      "t": 97652.9179999998,
      "d": 229.591499999995,
      "v": 86
    },
    {
      "midi": 77,
      "hit": false,
      "t": 97652.91799999996,
      "d": 184.94870833333698,
      "v": 82
    },
    {
      "midi": 55,
      "hit": false,
      "t": 97959.03999999979,
      "d": 70.15295833333221,
      "v": 67
    },
    {
      "midi": 62,
      "hit": false,
      "t": 97959.03999999979,
      "d": 382.6524999999965,
      "v": 86
    },
    {
      "midi": 67,
      "hit": false,
      "t": 97959.03999999979,
      "d": 395.4075833333336,
      "v": 100
    },
    {
      "midi": 47,
      "hit": false,
      "t": 97959.03999999979,
      "d": 1989.7930000000051,
      "v": 105
    },
    {
      "midi": 77,
      "hit": false,
      "t": 97959.03999999996,
      "d": 267.8567500000063,
      "v": 102
    },
    {
      "midi": 55,
      "hit": false,
      "t": 97959.04000000001,
      "d": 1945.150208333347,
      "v": 92
    },
    {
      "midi": 47,
      "hit": false,
      "t": 97959.04000000001,
      "d": 2053.568416666676,
      "v": 92
    },
    {
      "midi": 62,
      "hit": false,
      "t": 97959.04000000001,
      "d": 2117.343833333347,
      "v": 92
    },
    {
      "midi": 55,
      "hit": false,
      "t": 98265.1619999998,
      "d": 395.4075833333336,
      "v": 67
    },
    {
      "midi": 76,
      "hit": false,
      "t": 98265.16199999997,
      "d": 229.591499999995,
      "v": 66
    },
    {
      "midi": 62,
      "hit": false,
      "t": 98571.2839999998,
      "d": 612.244000000006,
      "v": 74
    },
    {
      "midi": 76,
      "hit": false,
      "t": 98571.28399999996,
      "d": 197.70379166665953,
      "v": 70
    },
    {
      "midi": 67,
      "hit": false,
      "t": 98877.4059999998,
      "d": 312.4995416666643,
      "v": 100
    },
    {
      "midi": 76,
      "hit": false,
      "t": 98877.40599999994,
      "d": 848.2130416666623,
      "v": 82
    },
    {
      "midi": 67,
      "hit": false,
      "t": 98877.40600000002,
      "d": 1014.0291250000009,
      "v": 92
    },
    {
      "midi": 55,
      "hit": false,
      "t": 99183.5279999998,
      "d": 286.9893749999901,
      "v": 74
    },
    {
      "midi": 62,
      "hit": false,
      "t": 99489.64999999979,
      "d": 484.6931666666642,
      "v": 86
    },
    {
      "midi": 76,
      "hit": false,
      "t": 99795.77199999994,
      "d": 223.21395833333372,
      "v": 66
    },
    {
      "midi": 67,
      "hit": false,
      "t": 100101.89399999978,
      "d": 650.5092500000028,
      "v": 86
    },
    {
      "midi": 79,
      "hit": false,
      "t": 100101.89399999994,
      "d": 554.8461249999964,
      "v": 93
    },
    {
      "midi": 57,
      "hit": false,
      "t": 100408.01599999978,
      "d": 522.9584166666609,
      "v": 67
    },
    {
      "midi": 60,
      "hit": false,
      "t": 100408.01599999978,
      "d": 727.0397499999963,
      "v": 86
    },
    {
      "midi": 45,
      "hit": false,
      "t": 100408.01599999978,
      "d": 1524.2324583333248,
      "v": 100
    },
    {
      "midi": 67,
      "hit": false,
      "t": 100408.01600000002,
      "d": 440.0503749999916,
      "v": 92
    },
    {
      "midi": 57,
      "hit": false,
      "t": 100408.01600000002,
      "d": 484.6931666666642,
      "v": 92
    },
    {
      "midi": 60,
      "hit": false,
      "t": 100408.01600000002,
      "d": 497.44824999998673,
      "v": 92
    },
    {
      "midi": 45,
      "hit": false,
      "t": 100408.01600000002,
      "d": 1530.609999999986,
      "v": 92
    },
    {
      "midi": 65,
      "hit": false,
      "t": 100714.13799999979,
      "d": 446.4279166666529,
      "v": 74
    },
    {
      "midi": 77,
      "hit": false,
      "t": 100714.13799999993,
      "d": 235.96904166667082,
      "v": 70
    },
    {
      "midi": 65,
      "hit": false,
      "t": 100714.138,
      "d": 184.94870833333698,
      "v": 92
    },
    {
      "midi": 57,
      "hit": false,
      "t": 101020.25999999978,
      "d": 159.4385416666628,
      "v": 67
    },
    {
      "midi": 77,
      "hit": false,
      "t": 101020.25999999994,
      "d": 299.7444583333272,
      "v": 75
    },
    {
      "midi": 60,
      "hit": false,
      "t": 101020.26000000001,
      "d": 63.775416666670935,
      "v": 92
    },
    {
      "midi": 57,
      "hit": false,
      "t": 101020.26000000001,
      "d": 554.8461249999964,
      "v": 92
    },
    {
      "midi": 64,
      "hit": false,
      "t": 101326.38199999978,
      "d": 293.36691666666593,
      "v": 105
    },
    {
      "midi": 76,
      "hit": false,
      "t": 101326.38199999993,
      "d": 854.5905833333381,
      "v": 93
    },
    {
      "midi": 64,
      "hit": false,
      "t": 101326.38200000001,
      "d": 306.1219999999885,
      "v": 92
    },
    {
      "midi": 57,
      "hit": false,
      "t": 101632.50399999978,
      "d": 178.57116666666116,
      "v": 67
    },
    {
      "midi": 57,
      "hit": false,
      "t": 101938.62599999977,
      "d": 38.26524999999674,
      "v": 62
    },
    {
      "midi": 65,
      "hit": false,
      "t": 101938.62599999977,
      "d": 286.9893749999901,
      "v": 100
    },
    {
      "midi": 57,
      "hit": false,
      "t": 101938.626,
      "d": 89.28558333333058,
      "v": 92
    },
    {
      "midi": 65,
      "hit": false,
      "t": 101938.626,
      "d": 325.2546250000014,
      "v": 92
    },
    {
      "midi": 57,
      "hit": false,
      "t": 102244.74799999976,
      "d": 197.70379166665953,
      "v": 67
    },
    {
      "midi": 74,
      "hit": false,
      "t": 102244.74799999993,
      "d": 306.122000000003,
      "v": 75
    },
    {
      "midi": 57,
      "hit": false,
      "t": 102244.748,
      "d": 184.94870833333698,
      "v": 92
    },
    {
      "midi": 64,
      "hit": false,
      "t": 102550.86999999975,
      "d": 593.1113749999931,
      "v": 100
    },
    {
      "midi": 60,
      "hit": false,
      "t": 102550.86999999975,
      "d": 695.1520416666608,
      "v": 86
    },
    {
      "midi": 57,
      "hit": false,
      "t": 102550.86999999975,
      "d": 822.7028749999881,
      "v": 100
    },
    {
      "midi": 76,
      "hit": false,
      "t": 102550.86999999994,
      "d": 133.92837500000314,
      "v": 82
    },
    {
      "midi": 64,
      "hit": false,
      "t": 102550.87000000001,
      "d": 1026.784208333338,
      "v": 92
    },
    {
      "midi": 74,
      "hit": false,
      "t": 102703.93099999994,
      "d": 159.4385416666628,
      "v": 61
    },
    {
      "midi": 41,
      "hit": false,
      "t": 102856.99199999975,
      "d": 624.9990833333286,
      "v": 86
    },
    {
      "midi": 72,
      "hit": false,
      "t": 102856.99199999994,
      "d": 1594.385416666657,
      "v": 93
    },
    {
      "midi": 57,
      "hit": false,
      "t": 102856.99200000001,
      "d": 554.8461250000109,
      "v": 92
    },
    {
      "midi": 60,
      "hit": false,
      "t": 102856.99200000001,
      "d": 758.9274583333317,
      "v": 92
    },
    {
      "midi": 41,
      "hit": false,
      "t": 102856.99200000001,
      "d": 886.4782916666591,
      "v": 92
    },
    {
      "midi": 62,
      "hit": false,
      "t": 103469.23599999974,
      "d": 165.8160833333386,
      "v": 67
    },
    {
      "midi": 57,
      "hit": false,
      "t": 103469.23600000002,
      "d": 286.9893749999901,
      "v": 92
    },
    {
      "midi": 60,
      "hit": false,
      "t": 103775.35799999975,
      "d": 133.92837500000314,
      "v": 86
    },
    {
      "midi": 62,
      "hit": false,
      "t": 103775.35800000001,
      "d": 102.04066666666768,
      "v": 92
    },
    {
      "midi": 57,
      "hit": false,
      "t": 104081.47999999975,
      "d": 401.7851249999949,
      "v": 86
    },
    {
      "midi": 60,
      "hit": false,
      "t": 104081.47999999975,
      "d": 554.8461249999964,
      "v": 74
    },
    {
      "midi": 53,
      "hit": false,
      "t": 104081.47999999975,
      "d": 809.947791666651,
      "v": 100
    },
    {
      "midi": 43,
      "hit": false,
      "t": 104081.47999999975,
      "d": 1147.957499999975,
      "v": 100
    },
    {
      "midi": 60,
      "hit": false,
      "t": 104081.48000000001,
      "d": 573.9787500000093,
      "v": 92
    },
    {
      "midi": 57,
      "hit": false,
      "t": 104081.48000000001,
      "d": 618.6215416666673,
      "v": 92
    },
    {
      "midi": 53,
      "hit": false,
      "t": 104081.48000000001,
      "d": 784.4376250000059,
      "v": 92
    },
    {
      "midi": 43,
      "hit": false,
      "t": 104081.48000000001,
      "d": 899.2333750000107,
      "v": 92
    },
    {
      "midi": 59,
      "hit": false,
      "t": 104693.72399999974,
      "d": 408.16266666665615,
      "v": 74
    },
    {
      "midi": 59,
      "hit": false,
      "t": 104693.72400000002,
      "d": 255.1016666666692,
      "v": 92
    },
    {
      "midi": 53,
      "hit": false,
      "t": 104999.84599999973,
      "d": 121.17329166666605,
      "v": 67
    },
    {
      "midi": 67,
      "hit": false,
      "t": 104999.84599999993,
      "d": 274.23429166666756,
      "v": 82
    },
    {
      "midi": 53,
      "hit": false,
      "t": 104999.84600000002,
      "d": 95.6631250000064,
      "v": 92
    },
    {
      "midi": 60,
      "hit": false,
      "t": 105305.96799999972,
      "d": 82.90804166665475,
      "v": 66
    },
    {
      "midi": 57,
      "hit": false,
      "t": 105305.96799999972,
      "d": 440.0503749999916,
      "v": 67
    },
    {
      "midi": 48,
      "hit": false,
      "t": 105305.96799999972,
      "d": 2110.9662916666566,
      "v": 105
    },
    {
      "midi": 69,
      "hit": false,
      "t": 105305.96799999994,
      "d": 274.23429166666756,
      "v": 82
    },
    {
      "midi": 48,
      "hit": false,
      "t": 105305.96800000002,
      "d": 2193.8743333333405,
      "v": 92
    },
    {
      "midi": 60,
      "hit": false,
      "t": 105612.0899999997,
      "d": 172.19362499999988,
      "v": 62
    },
    {
      "midi": 72,
      "hit": false,
      "t": 105612.08999999994,
      "d": 229.591499999995,
      "v": 82
    },
    {
      "midi": 57,
      "hit": false,
      "t": 105612.09000000003,
      "d": 931.1210833333462,
      "v": 92
    },
    {
      "midi": 57,
      "hit": false,
      "t": 105918.21199999971,
      "d": 210.45887499999662,
      "v": 100
    },
    {
      "midi": 72,
      "hit": false,
      "t": 105918.21199999993,
      "d": 165.8160833333386,
      "v": 93
    },
    {
      "midi": 60,
      "hit": false,
      "t": 105918.21200000003,
      "d": 841.8355000000156,
      "v": 92
    },
    {
      "midi": 60,
      "hit": false,
      "t": 106224.33399999971,
      "d": 331.63216666666267,
      "v": 105
    },
    {
      "midi": 72,
      "hit": false,
      "t": 106224.33399999993,
      "d": 784.4376250000059,
      "v": 109
    },
    {
      "midi": 65,
      "hit": false,
      "t": 106224.33400000003,
      "d": 586.7338333333464,
      "v": 92
    },
    {
      "midi": 55,
      "hit": false,
      "t": 106836.5779999997,
      "d": 223.21395833333372,
      "v": 100
    },
    {
      "midi": 55,
      "hit": false,
      "t": 106836.57800000004,
      "d": 178.57116666666116,
      "v": 92
    },
    {
      "midi": 60,
      "hit": false,
      "t": 107142.6999999997,
      "d": 235.96904166667082,
      "v": 86
    },
    {
      "midi": 74,
      "hit": false,
      "t": 107142.69999999994,
      "d": 299.7444583333272,
      "v": 70
    },
    {
      "midi": 57,
      "hit": false,
      "t": 107142.70000000003,
      "d": 369.89741666667396,
      "v": 92
    },
    {
      "midi": 62,
      "hit": false,
      "t": 107448.82199999971,
      "d": 267.8567500000063,
      "v": 74
    },
    {
      "midi": 72,
      "hit": false,
      "t": 107448.82199999993,
      "d": 178.57116666666116,
      "v": 102
    },
    {
      "midi": 60,
      "hit": false,
      "t": 107448.82200000003,
      "d": 809.9477916666656,
      "v": 92
    },
    {
      "midi": 48,
      "hit": false,
      "t": 107754.94399999971,
      "d": 76.53049999999348,
      "v": 67
    },
    {
      "midi": 57,
      "hit": false,
      "t": 107754.94399999971,
      "d": 433.6728333333158,
      "v": 74
    },
    {
      "midi": 65,
      "hit": false,
      "t": 107754.94399999971,
      "d": 510.2033333333093,
      "v": 86
    },
    {
      "midi": 60,
      "hit": false,
      "t": 107754.94399999971,
      "d": 516.5808749999705,
      "v": 86
    },
    {
      "midi": 36,
      "hit": false,
      "t": 107754.94399999971,
      "d": 2072.7010416666453,
      "v": 100
    },
    {
      "midi": 77,
      "hit": false,
      "t": 107754.94399999992,
      "d": 286.98937500000466,
      "v": 109
    },
    {
      "midi": 55,
      "hit": false,
      "t": 107754.94400000003,
      "d": 178.5711666666757,
      "v": 92
    },
    {
      "midi": 64,
      "hit": false,
      "t": 107754.94400000003,
      "d": 497.4482500000013,
      "v": 92
    },
    {
      "midi": 48,
      "hit": false,
      "t": 107754.94400000003,
      "d": 2149.2315416666534,
      "v": 92
    },
    {
      "midi": 48,
      "hit": false,
      "t": 108061.0659999997,
      "d": 1422.191791666657,
      "v": 67
    },
    {
      "midi": 76,
      "hit": false,
      "t": 108061.06599999992,
      "d": 242.3465833333321,
      "v": 75
    },
    {
      "midi": 55,
      "hit": false,
      "t": 108061.06600000004,
      "d": 669.6418749999866,
      "v": 92
    },
    {
      "midi": 60,
      "hit": false,
      "t": 108367.18799999969,
      "d": 172.19362499999988,
      "v": 67
    },
    {
      "midi": 55,
      "hit": false,
      "t": 108367.18799999969,
      "d": 184.94870833333698,
      "v": 86
    },
    {
      "midi": 64,
      "hit": false,
      "t": 108367.18799999969,
      "d": 204.08133333333535,
      "v": 74
    },
    {
      "midi": 74,
      "hit": false,
      "t": 108367.18799999992,
      "d": 280.61183333332883,
      "v": 70
    },
    {
      "midi": 60,
      "hit": false,
      "t": 108367.18800000002,
      "d": 325.2546250000014,
      "v": 92
    },
    {
      "midi": 60,
      "hit": false,
      "t": 108673.30999999969,
      "d": 465.5605416666658,
      "v": 105
    },
    {
      "midi": 55,
      "hit": false,
      "t": 108673.30999999969,
      "d": 542.0910416666593,
      "v": 105
    },
    {
      "midi": 64,
      "hit": false,
      "t": 108673.30999999969,
      "d": 695.1520416666608,
      "v": 105
    },
    {
      "midi": 76,
      "hit": false,
      "t": 108673.30999999991,
      "d": 146.68345833334024,
      "v": 75
    },
    {
      "midi": 62,
      "hit": false,
      "t": 108673.31000000003,
      "d": 510.2033333333238,
      "v": 92
    },
    {
      "midi": 74,
      "hit": false,
      "t": 108826.37099999991,
      "d": 121.17329166666605,
      "v": 70
    },
    {
      "midi": 72,
      "hit": false,
      "t": 108979.43199999991,
      "d": 880.1007499999978,
      "v": 82
    },
    {
      "midi": 60,
      "hit": false,
      "t": 109285.55399999968,
      "d": 357.14233333333686,
      "v": 74
    },
    {
      "midi": 60,
      "hit": false,
      "t": 109285.55400000002,
      "d": 325.2546250000014,
      "v": 92
    },
    {
      "midi": 55,
      "hit": false,
      "t": 109591.67599999969,
      "d": 140.30591666666442,
      "v": 67
    },
    {
      "midi": 55,
      "hit": false,
      "t": 109591.67600000002,
      "d": 688.774499999985,
      "v": 92
    },
    {
      "midi": 62,
      "hit": false,
      "t": 109897.79799999969,
      "d": 133.92837500000314,
      "v": 105
    },
    {
      "midi": 59,
      "hit": false,
      "t": 109897.79799999969,
      "d": 146.68345833334024,
      "v": 100
    },
    {
      "midi": 55,
      "hit": false,
      "t": 109897.79799999969,
      "d": 153.0610000000015,
      "v": 86
    },
    {
      "midi": 67,
      "hit": false,
      "t": 109897.79799999991,
      "d": 280.61183333332883,
      "v": 93
    },
    {
      "midi": 60,
      "hit": false,
      "t": 109897.79800000002,
      "d": 663.2643333333108,
      "v": 92
    },
    {
      "midi": 53,
      "hit": false,
      "t": 110203.91999999969,
      "d": 465.5605416666658,
      "v": 100
    },
    {
      "midi": 57,
      "hit": false,
      "t": 110203.91999999969,
      "d": 663.2643333333399,
      "v": 100
    },
    {
      "midi": 48,
      "hit": false,
      "t": 110203.91999999969,
      "d": 676.019416666677,
      "v": 86
    },
    {
      "midi": 60,
      "hit": false,
      "t": 110203.91999999969,
      "d": 676.019416666677,
      "v": 86
    },
    {
      "midi": 36,
      "hit": false,
      "t": 110203.91999999969,
      "d": 2168.3641666666517,
      "v": 100
    },
    {
      "midi": 69,
      "hit": false,
      "t": 110203.9199999999,
      "d": 286.98937500000466,
      "v": 93
    },
    {
      "midi": 48,
      "hit": false,
      "t": 110203.92000000001,
      "d": 2149.231541666668,
      "v": 92
    },
    {
      "midi": 72,
      "hit": false,
      "t": 110510.0419999999,
      "d": 223.21395833333372,
      "v": 82
    },
    {
      "midi": 53,
      "hit": false,
      "t": 110510.042,
      "d": 1320.1511250000185,
      "v": 92
    },
    {
      "midi": 53,
      "hit": false,
      "t": 110816.1639999997,
      "d": 204.08133333333535,
      "v": 74
    },
    {
      "midi": 72,
      "hit": false,
      "t": 110816.1639999999,
      "d": 191.32624999999825,
      "v": 75
    },
    {
      "midi": 60,
      "hit": false,
      "t": 110816.164,
      "d": 720.662208333335,
      "v": 92
    },
    {
      "midi": 53,
      "hit": false,
      "t": 111122.2859999997,
      "d": 363.51987499999814,
      "v": 67
    },
    {
      "midi": 57,
      "hit": false,
      "t": 111122.2859999997,
      "d": 363.51987499999814,
      "v": 86
    },
    {
      "midi": 72,
      "hit": false,
      "t": 111122.2859999999,
      "d": 522.9584166666609,
      "v": 102
    },
    {
      "midi": 62,
      "hit": false,
      "t": 111122.28600000001,
      "d": 529.3359583333367,
      "v": 92
    },
    {
      "midi": 48,
      "hit": false,
      "t": 111428.4079999997,
      "d": 816.3253333333123,
      "v": 74
    },
    {
      "midi": 57,
      "hit": false,
      "t": 111734.5299999997,
      "d": 446.42791666666744,
      "v": 74
    },
    {
      "midi": 53,
      "hit": false,
      "t": 111734.5299999997,
      "d": 471.9380833333271,
      "v": 67
    },
    {
      "midi": 60,
      "hit": false,
      "t": 111734.5299999997,
      "d": 497.44824999998673,
      "v": 74
    },
    {
      "midi": 74,
      "hit": false,
      "t": 111734.5299999999,
      "d": 491.07070833334,
      "v": 102
    },
    {
      "midi": 60,
      "hit": false,
      "t": 111734.53000000001,
      "d": 389.03004166667233,
      "v": 92
    },
    {
      "midi": 62,
      "hit": false,
      "t": 112040.6519999997,
      "d": 242.34658333331754,
      "v": 86
    },
    {
      "midi": 53,
      "hit": false,
      "t": 112040.65200000002,
      "d": 510.2033333333238,
      "v": 92
    },
    {
      "midi": 64,
      "hit": false,
      "t": 112346.77399999968,
      "d": 982.1414166666655,
      "v": 86
    },
    {
      "midi": 74,
      "hit": false,
      "t": 112346.7739999999,
      "d": 153.0610000000015,
      "v": 102
    },
    {
      "midi": 60,
      "hit": false,
      "t": 112346.77400000002,
      "d": 605.8664583333157,
      "v": 92
    },
    {
      "midi": 76,
      "hit": false,
      "t": 112499.8349999999,
      "d": 376.27495833333523,
      "v": 82
    },
    {
      "midi": 55,
      "hit": false,
      "t": 112652.89599999967,
      "d": 471.93808333334164,
      "v": 74
    },
    {
      "midi": 60,
      "hit": false,
      "t": 112652.89599999967,
      "d": 727.0397500000108,
      "v": 66
    },
    {
      "midi": 48,
      "hit": false,
      "t": 112652.89599999967,
      "d": 771.6825416666834,
      "v": 66
    },
    {
      "midi": 48,
      "hit": false,
      "t": 112652.89600000001,
      "d": 2187.49679166665,
      "v": 92
    },
    {
      "midi": 36,
      "hit": false,
      "t": 112959.01799999968,
      "d": 637.7541666666802,
      "v": 74
    },
    {
      "midi": 76,
      "hit": false,
      "t": 112959.01799999991,
      "d": 1505.0998333333264,
      "v": 82
    },
    {
      "midi": 55,
      "hit": false,
      "t": 113265.13999999968,
      "d": 408.1626666666707,
      "v": 67
    },
    {
      "midi": 60,
      "hit": false,
      "t": 113265.14,
      "d": 1065.0494583333202,
      "v": 92
    },
    {
      "midi": 60,
      "hit": false,
      "t": 113571.2619999997,
      "d": 286.9893749999901,
      "v": 67
    },
    {
      "midi": 48,
      "hit": false,
      "t": 113571.2619999997,
      "d": 1237.24308333332,
      "v": 74
    },
    {
      "midi": 62,
      "hit": false,
      "t": 113571.262,
      "d": 535.713499999998,
      "v": 92
    },
    {
      "midi": 55,
      "hit": false,
      "t": 113877.38399999969,
      "d": 184.94870833333698,
      "v": 66
    },
    {
      "midi": 67,
      "hit": false,
      "t": 113877.384,
      "d": 727.0397499999817,
      "v": 92
    },
    {
      "midi": 55,
      "hit": false,
      "t": 114183.50599999969,
      "d": 70.15295833333221,
      "v": 66
    },
    {
      "midi": 64,
      "hit": false,
      "t": 114183.50599999969,
      "d": 159.4385416666628,
      "v": 105
    },
    {
      "midi": 60,
      "hit": false,
      "t": 114183.50599999969,
      "d": 191.32624999999825,
      "v": 100
    },
    {
      "midi": 55,
      "hit": false,
      "t": 114183.506,
      "d": 19.13262499999837,
      "v": 92
    },
    {
      "midi": 62,
      "hit": false,
      "t": 114489.62799999969,
      "d": 229.591499999995,
      "v": 100
    },
    {
      "midi": 60,
      "hit": false,
      "t": 114489.62799999998,
      "d": 567.601208333348,
      "v": 92
    },
    {
      "midi": 55,
      "hit": false,
      "t": 114795.74999999968,
      "d": 197.70379166667408,
      "v": 86
    },
    {
      "midi": 67,
      "hit": false,
      "t": 114795.7499999999,
      "d": 280.61183333332883,
      "v": 102
    },
    {
      "midi": 55,
      "hit": false,
      "t": 114795.74999999999,
      "d": 293.3669166666805,
      "v": 92
    },
    {
      "midi": 60,
      "hit": false,
      "t": 115101.87199999968,
      "d": 382.6524999999965,
      "v": 66
    },
    {
      "midi": 36,
      "hit": false,
      "t": 115101.87199999968,
      "d": 1332.906208333312,
      "v": 100
    },
    {
      "midi": 69,
      "hit": false,
      "t": 115101.87199999989,
      "d": 255.1016666666692,
      "v": 82
    },
    {
      "midi": 48,
      "hit": false,
      "t": 115101.872,
      "d": 1906.8849583333358,
      "v": 92
    },
    {
      "midi": 53,
      "hit": false,
      "t": 115407.99399999969,
      "d": 420.91774999999325,
      "v": 100
    },
    {
      "midi": 72,
      "hit": false,
      "t": 115407.99399999989,
      "d": 229.591499999995,
      "v": 93
    },
    {
      "midi": 53,
      "hit": false,
      "t": 115407.994,
      "d": 427.2952916666545,
      "v": 92
    },
    {
      "midi": 57,
      "hit": false,
      "t": 115714.11599999967,
      "d": 159.43854166667734,
      "v": 74
    },
    {
      "midi": 60,
      "hit": false,
      "t": 115714.11599999967,
      "d": 235.96904166667082,
      "v": 86
    },
    {
      "midi": 48,
      "hit": false,
      "t": 115714.11599999967,
      "d": 542.0910416666593,
      "v": 66
    },
    {
      "midi": 72,
      "hit": false,
      "t": 115714.11599999988,
      "d": 204.08133333333535,
      "v": 82
    },
    {
      "midi": 60,
      "hit": false,
      "t": 115714.116,
      "d": 420.9177500000078,
      "v": 92
    },
    {
      "midi": 53,
      "hit": false,
      "t": 116020.23799999968,
      "d": 223.21395833333372,
      "v": 105
    },
    {
      "midi": 57,
      "hit": false,
      "t": 116020.23799999968,
      "d": 229.591499999995,
      "v": 74
    },
    {
      "midi": 60,
      "hit": false,
      "t": 116020.23799999968,
      "d": 382.65249999998196,
      "v": 86
    },
    {
      "midi": 72,
      "hit": false,
      "t": 116020.23799999988,
      "d": 491.07070833334,
      "v": 102
    },
    {
      "midi": 53,
      "hit": false,
      "t": 116020.238,
      "d": 554.8461250000109,
      "v": 92
    },
    {
      "midi": 48,
      "hit": false,
      "t": 116326.35999999967,
      "d": 433.6728333333158,
      "v": 67
    },
    {
      "midi": 53,
      "hit": false,
      "t": 116632.48199999965,
      "d": 363.5198749999836,
      "v": 66
    },
    {
      "midi": 60,
      "hit": false,
      "t": 116632.482,
      "d": 293.36691666666593,
      "v": 92
    },
    {
      "midi": 57,
      "hit": false,
      "t": 116938.60399999964,
      "d": 140.30591666666442,
      "v": 66
    },
    {
      "midi": 77,
      "hit": false,
      "t": 116938.60399999989,
      "d": 229.591499999995,
      "v": 102
    },
    {
      "midi": 53,
      "hit": false,
      "t": 116938.604,
      "d": 191.32624999999825,
      "v": 92
    },
    {
      "midi": 57,
      "hit": false,
      "t": 117244.72599999965,
      "d": 140.30591666666442,
      "v": 67
    },
    {
      "midi": 48,
      "hit": false,
      "t": 117244.72599999965,
      "d": 235.96904166667082,
      "v": 74
    },
    {
      "midi": 77,
      "hit": false,
      "t": 117244.72599999988,
      "d": 191.32624999999825,
      "v": 75
    },
    {
      "midi": 48,
      "hit": false,
      "t": 117244.72600000001,
      "d": 184.94870833333698,
      "v": 92
    },
    {
      "midi": 62,
      "hit": false,
      "t": 117550.84799999965,
      "d": 363.5198749999836,
      "v": 105
    },
    {
      "midi": 47,
      "hit": false,
      "t": 117550.84799999965,
      "d": 1792.089208333302,
      "v": 105
    },
    {
      "midi": 77,
      "hit": false,
      "t": 117550.84799999988,
      "d": 261.47920833333046,
      "v": 82
    },
    {
      "midi": 47,
      "hit": false,
      "t": 117550.84800000001,
      "d": 2238.517124999984,
      "v": 92
    },
    {
      "midi": 55,
      "hit": false,
      "t": 117856.96999999964,
      "d": 688.774499999985,
      "v": 86
    },
    {
      "midi": 76,
      "hit": false,
      "t": 117856.96999999988,
      "d": 223.21395833333372,
      "v": 82
    },
    {
      "midi": 55,
      "hit": false,
      "t": 117856.97000000002,
      "d": 363.5198749999836,
      "v": 92
    },
    {
      "midi": 62,
      "hit": false,
      "t": 118163.09199999963,
      "d": 695.1520416666608,
      "v": 86
    },
    {
      "midi": 76,
      "hit": false,
      "t": 118163.09199999989,
      "d": 216.83641666667245,
      "v": 82
    },
    {
      "midi": 62,
      "hit": false,
      "t": 118163.092,
      "d": 248.72412499999336,
      "v": 92
    },
    {
      "midi": 67,
      "hit": false,
      "t": 118469.21399999963,
      "d": 471.9380833333271,
      "v": 100
    },
    {
      "midi": 76,
      "hit": false,
      "t": 118469.21399999989,
      "d": 975.7638750000042,
      "v": 82
    },
    {
      "midi": 62,
      "hit": false,
      "t": 118469.21399999999,
      "d": 44.642791666672565,
      "v": 92
    },
    {
      "midi": 59,
      "hit": false,
      "t": 118469.21399999999,
      "d": 401.78512500000943,
      "v": 92
    },
    {
      "midi": 67,
      "hit": false,
      "t": 118469.21399999999,
      "d": 427.2952916666691,
      "v": 92
    },
    {
      "midi": 55,
      "hit": false,
      "t": 118775.33599999962,
      "d": 478.3156250000029,
      "v": 74
    },
    {
      "midi": 62,
      "hit": false,
      "t": 119081.45799999962,
      "d": 433.67283333333035,
      "v": 100
    },
    {
      "midi": 57,
      "hit": false,
      "t": 119081.458,
      "d": 306.122000000003,
      "v": 92
    },
    {
      "midi": 55,
      "hit": false,
      "t": 119387.57999999962,
      "d": 159.4385416666628,
      "v": 74
    },
    {
      "midi": 62,
      "hit": false,
      "t": 119387.58,
      "d": 363.51987499999814,
      "v": 92
    },
    {
      "midi": 47,
      "hit": false,
      "t": 119693.70199999963,
      "d": 121.17329166666605,
      "v": 74
    },
    {
      "midi": 79,
      "hit": false,
      "t": 119693.70199999989,
      "d": 593.1113749999931,
      "v": 102
    },
    {
      "midi": 57,
      "hit": false,
      "t": 119693.702,
      "d": 242.3465833333321,
      "v": 92
    },
    {
      "midi": 55,
      "hit": false,
      "t": 119999.82399999963,
      "d": 184.94870833333698,
      "v": 86
    },
    {
      "midi": 67,
      "hit": false,
      "t": 119999.82399999963,
      "d": 344.38724999999977,
      "v": 67
    },
    {
      "midi": 45,
      "hit": false,
      "t": 119999.82399999963,
      "d": 1371.1714583333232,
      "v": 100
    },
    {
      "midi": 45,
      "hit": false,
      "t": 119999.82400000001,
      "d": 1862.2421666666633,
      "v": 92
    },
    {
      "midi": 55,
      "hit": false,
      "t": 120305.94599999963,
      "d": 127.55083333332732,
      "v": 74
    },
    {
      "midi": 77,
      "hit": false,
      "t": 120305.94599999988,
      "d": 204.08133333333535,
      "v": 93
    },
    {
      "midi": 55,
      "hit": false,
      "t": 120305.94600000001,
      "d": 172.19362499999988,
      "v": 92
    },
    {
      "midi": 53,
      "hit": false,
      "t": 120612.06799999962,
      "d": 102.04066666666768,
      "v": 86
    },
    {
      "midi": 65,
      "hit": false,
      "t": 120612.06799999962,
      "d": 102.04066666666768,
      "v": 86
    },
    {
      "midi": 77,
      "hit": false,
      "t": 120612.06799999988,
      "d": 255.1016666666692,
      "v": 70
    },
    {
      "midi": 57,
      "hit": false,
      "t": 120612.06800000001,
      "d": 338.0097083333385,
      "v": 92
    },
    {
      "midi": 52,
      "hit": false,
      "t": 120918.18999999962,
      "d": 133.92837500000314,
      "v": 100
    },
    {
      "midi": 64,
      "hit": false,
      "t": 120918.18999999962,
      "d": 184.94870833333698,
      "v": 100
    },
    {
      "midi": 76,
      "hit": false,
      "t": 120918.18999999989,
      "d": 503.82579166666255,
      "v": 93
    },
    {
      "midi": 60,
      "hit": false,
      "t": 120918.19000000002,
      "d": 338.0097083333385,
      "v": 92
    },
    {
      "midi": 53,
      "hit": false,
      "t": 121224.31199999963,
      "d": 38.26524999999674,
      "v": 62
    },
    {
      "midi": 65,
      "hit": false,
      "t": 121224.31200000002,
      "d": 414.540208333332,
      "v": 92
    },
    {
      "midi": 65,
      "hit": false,
      "t": 121530.43399999962,
      "d": 165.8160833333386,
      "v": 100
    },
    {
      "midi": 53,
      "hit": false,
      "t": 121530.43399999962,
      "d": 274.23429166666756,
      "v": 100
    },
    {
      "midi": 77,
      "hit": false,
      "t": 121530.43399999988,
      "d": 567.6012083333335,
      "v": 93
    },
    {
      "midi": 60,
      "hit": false,
      "t": 121530.43400000002,
      "d": 280.61183333332883,
      "v": 92
    },
    {
      "midi": 57,
      "hit": false,
      "t": 121836.55600000001,
      "d": 338.00970833332394,
      "v": 92
    },
    {
      "midi": 52,
      "hit": false,
      "t": 122142.67799999962,
      "d": 822.7028750000027,
      "v": 85
    },
    {
      "midi": 64,
      "hit": false,
      "t": 122142.67799999962,
      "d": 1014.0291250000155,
      "v": 100
    },
    {
      "midi": 76,
      "hit": false,
      "t": 122142.67799999988,
      "d": 612.244000000006,
      "v": 93
    },
    {
      "midi": 60,
      "hit": false,
      "t": 122142.678,
      "d": 274.23429166666756,
      "v": 92
    },
    {
      "midi": 57,
      "hit": false,
      "t": 122448.79999999962,
      "d": 797.192708333343,
      "v": 100
    },
    {
      "midi": 60,
      "hit": false,
      "t": 122448.79999999962,
      "d": 809.9477916666801,
      "v": 100
    },
    {
      "midi": 41,
      "hit": false,
      "t": 122448.79999999962,
      "d": 1607.140499999994,
      "v": 105
    },
    {
      "midi": 55,
      "hit": false,
      "t": 122448.8,
      "d": 503.8257916666771,
      "v": 92
    },
    {
      "midi": 64,
      "hit": false,
      "t": 122448.8,
      "d": 644.1317083333415,
      "v": 92
    },
    {
      "midi": 60,
      "hit": false,
      "t": 122448.8,
      "d": 682.3969583333383,
      "v": 92
    },
    {
      "midi": 41,
      "hit": false,
      "t": 122448.8,
      "d": 1983.4154583333438,
      "v": 92
    },
    {
      "midi": 74,
      "hit": false,
      "t": 122754.92199999989,
      "d": 950.25370833333,
      "v": 75
    },
    {
      "midi": 53,
      "hit": false,
      "t": 123061.04399999963,
      "d": 414.540208333332,
      "v": 67
    },
    {
      "midi": 57,
      "hit": false,
      "t": 123061.04400000001,
      "d": 382.6524999999965,
      "v": 92
    },
    {
      "midi": 57,
      "hit": false,
      "t": 123367.16599999963,
      "d": 70.15295833333221,
      "v": 62
    },
    {
      "midi": 60,
      "hit": false,
      "t": 123367.16599999963,
      "d": 248.72412499999336,
      "v": 67
    },
    {
      "midi": 62,
      "hit": false,
      "t": 123367.16599999963,
      "d": 255.10166666665464,
      "v": 74
    },
    {
      "midi": 60,
      "hit": false,
      "t": 123367.16600000001,
      "d": 318.8770833333256,
      "v": 92
    },
    {
      "midi": 53,
      "hit": false,
      "t": 123673.28799999962,
      "d": 497.4482500000013,
      "v": 66
    },
    {
      "midi": 57,
      "hit": false,
      "t": 123673.288,
      "d": 280.6118333333434,
      "v": 92
    },
    {
      "midi": 57,
      "hit": false,
      "t": 123979.40999999963,
      "d": 363.51987499999814,
      "v": 67
    },
    {
      "midi": 60,
      "hit": false,
      "t": 123979.40999999963,
      "d": 408.1626666666707,
      "v": 67
    },
    {
      "midi": 76,
      "hit": false,
      "t": 123979.40999999989,
      "d": 612.244000000006,
      "v": 109
    },
    {
      "midi": 64,
      "hit": false,
      "t": 123979.41,
      "d": 357.14233333333686,
      "v": 92
    },
    {
      "midi": 53,
      "hit": false,
      "t": 124285.53199999963,
      "d": 178.57116666666116,
      "v": 62
    },
    {
      "midi": 57,
      "hit": false,
      "t": 124285.532,
      "d": 293.3669166666805,
      "v": 92
    },
    {
      "midi": 41,
      "hit": false,
      "t": 124591.65399999962,
      "d": 178.57116666666116,
      "v": 100
    },
    {
      "midi": 77,
      "hit": false,
      "t": 124591.6539999999,
      "d": 554.8461249999964,
      "v": 109
    },
    {
      "midi": 41,
      "hit": false,
      "t": 124591.65400000002,
      "d": 146.68345833334024,
      "v": 92
    },
    {
      "midi": 43,
      "hit": false,
      "t": 124897.7759999996,
      "d": 803.5702500000043,
      "v": 105
    },
    {
      "midi": 53,
      "hit": false,
      "t": 124897.7759999996,
      "d": 943.8761666666687,
      "v": 105
    },
    {
      "midi": 57,
      "hit": false,
      "t": 124897.7759999996,
      "d": 963.0087916666671,
      "v": 105
    },
    {
      "midi": 60,
      "hit": false,
      "t": 124897.7759999996,
      "d": 982.1414166666655,
      "v": 105
    },
    {
      "midi": 64,
      "hit": false,
      "t": 124897.7759999996,
      "d": 1077.8045416666719,
      "v": 105
    },
    {
      "midi": 55,
      "hit": false,
      "t": 124897.77600000003,
      "d": 184.94870833333698,
      "v": 92
    },
    {
      "midi": 43,
      "hit": false,
      "t": 124897.77600000003,
      "d": 1741.0688749999827,
      "v": 92
    },
    {
      "midi": 76,
      "hit": false,
      "t": 125203.89799999988,
      "d": 580.3562916666706,
      "v": 102
    },
    {
      "midi": 57,
      "hit": false,
      "t": 125203.89800000003,
      "d": 389.03004166667233,
      "v": 92
    },
    {
      "midi": 60,
      "hit": false,
      "t": 125510.02000000003,
      "d": 293.36691666666593,
      "v": 92
    },
    {
      "midi": 43,
      "hit": false,
      "t": 125816.14199999961,
      "d": 127.55083333332732,
      "v": 74
    },
    {
      "midi": 77,
      "hit": false,
      "t": 125816.14199999989,
      "d": 133.92837500000314,
      "v": 75
    },
    {
      "midi": 64,
      "hit": false,
      "t": 125816.14200000004,
      "d": 114.79575000000477,
      "v": 92
    },
    {
      "midi": 76,
      "hit": false,
      "t": 125969.20299999989,
      "d": 165.8160833333386,
      "v": 93
    },
    {
      "midi": 55,
      "hit": false,
      "t": 126122.26399999962,
      "d": 491.07070833332546,
      "v": 105
    },
    {
      "midi": 59,
      "hit": false,
      "t": 126122.26399999962,
      "d": 682.3969583333237,
      "v": 105
    },
    {
      "midi": 43,
      "hit": false,
      "t": 126122.26399999962,
      "d": 707.9071249999834,
      "v": 105
    },
    {
      "midi": 62,
      "hit": false,
      "t": 126122.26399999962,
      "d": 739.7948333333188,
      "v": 105
    },
    {
      "midi": 74,
      "hit": false,
      "t": 126122.2639999999,
      "d": 956.6312500000058,
      "v": 102
    },
    {
      "midi": 59,
      "hit": false,
      "t": 126122.26400000004,
      "d": 414.5402083333174,
      "v": 92
    },
    {
      "midi": 62,
      "hit": false,
      "t": 126122.26400000004,
      "d": 491.0707083333109,
      "v": 92
    },
    {
      "midi": 55,
      "hit": false,
      "t": 126122.26400000004,
      "d": 778.0600833333156,
      "v": 92
    },
    {
      "midi": 55,
      "hit": false,
      "t": 126734.50799999961,
      "d": 210.45887499999662,
      "v": 74
    },
    {
      "midi": 59,
      "hit": false,
      "t": 126734.50800000002,
      "d": 255.1016666666692,
      "v": 92
    },
    {
      "midi": 43,
      "hit": false,
      "t": 127040.62999999961,
      "d": 191.32624999999825,
      "v": 86
    },
    {
      "midi": 76,
      "hit": false,
      "t": 127040.6299999999,
      "d": 191.32624999999825,
      "v": 102
    },
    {
      "midi": 43,
      "hit": false,
      "t": 127040.63000000002,
      "d": 261.47920833333046,
      "v": 92
    },
    {
      "midi": 55,
      "hit": false,
      "t": 127346.75199999961,
      "d": 586.7338333333464,
      "v": 105
    },
    {
      "midi": 48,
      "hit": false,
      "t": 127346.75199999961,
      "d": 746.1723750000092,
      "v": 105
    },
    {
      "midi": 36,
      "hit": false,
      "t": 127346.75199999961,
      "d": 924.7435416666704,
      "v": 105
    },
    {
      "midi": 64,
      "hit": false,
      "t": 127346.75199999961,
      "d": 1052.2943749999977,
      "v": 105
    },
    {
      "midi": 60,
      "hit": false,
      "t": 127346.75199999961,
      "d": 1077.8045416666573,
      "v": 105
    },
    {
      "midi": 76,
      "hit": false,
      "t": 127346.7519999999,
      "d": 210.45887499999662,
      "v": 93
    },
    {
      "midi": 48,
      "hit": false,
      "t": 127346.75200000001,
      "d": 911.9884583333478,
      "v": 92
    },
    {
      "midi": 64,
      "hit": false,
      "t": 127346.75200000001,
      "d": 911.9884583333478,
      "v": 92
    },
    {
      "midi": 76,
      "hit": false,
      "t": 127652.87399999991,
      "d": 204.08133333333535,
      "v": 93
    },
    {
      "midi": 55,
      "hit": false,
      "t": 127652.87400000001,
      "d": 676.019416666677,
      "v": 92
    },
    {
      "midi": 55,
      "hit": false,
      "t": 127958.99599999962,
      "d": 414.540208333332,
      "v": 66
    },
    {
      "midi": 76,
      "hit": false,
      "t": 127958.99599999991,
      "d": 223.21395833333372,
      "v": 75
    },
    {
      "midi": 60,
      "hit": false,
      "t": 127958.99600000001,
      "d": 267.8567500000063,
      "v": 92
    },
    {
      "midi": 48,
      "hit": false,
      "t": 128265.11799999962,
      "d": 899.2333749999962,
      "v": 100
    },
    {
      "midi": 76,
      "hit": false,
      "t": 128265.11799999991,
      "d": 159.4385416666628,
      "v": 109
    },
    {
      "midi": 62,
      "hit": false,
      "t": 128265.11800000002,
      "d": 363.51987499999814,
      "v": 92
    },
    {
      "midi": 67,
      "hit": false,
      "t": 128571.23999999961,
      "d": 389.03004166667233,
      "v": 86
    },
    {
      "midi": 55,
      "hit": false,
      "t": 128571.24000000002,
      "d": 433.6728333333158,
      "v": 92
    },
    {
      "midi": 55,
      "hit": false,
      "t": 128877.36199999962,
      "d": 248.72412500000792,
      "v": 86
    },
    {
      "midi": 67,
      "hit": false,
      "t": 128877.36200000001,
      "d": 414.5402083333174,
      "v": 92
    },
    {
      "midi": 60,
      "hit": false,
      "t": 129183.48399999962,
      "d": 235.96904166667082,
      "v": 105
    },
    {
      "midi": 55,
      "hit": false,
      "t": 129183.484,
      "d": 892.8558333333203,
      "v": 92
    },
    {
      "midi": 64,
      "hit": false,
      "t": 129489.60599999962,
      "d": 140.30591666666442,
      "v": 86
    },
    {
      "midi": 48,
      "hit": false,
      "t": 129489.60599999962,
      "d": 178.57116666666116,
      "v": 86
    },
    {
      "midi": 72,
      "hit": false,
      "t": 129489.60599999991,
      "d": 261.47920833333046,
      "v": 102
    },
    {
      "midi": 62,
      "hit": false,
      "t": 129489.60599999999,
      "d": 752.5499166666559,
      "v": 92
    },
    {
      "midi": 62,
      "hit": false,
      "t": 129795.72799999961,
      "d": 363.5198750000127,
      "v": 105
    },
    {
      "midi": 47,
      "hit": false,
      "t": 129795.72799999961,
      "d": 1575.2527916666731,
      "v": 105
    },
    {
      "midi": 74,
      "hit": false,
      "t": 129795.72799999992,
      "d": 210.45887499999662,
      "v": 102
    },
    {
      "midi": 47,
      "hit": false,
      "t": 129795.72799999999,
      "d": 1843.1095416666794,
      "v": 92
    },
    {
      "midi": 55,
      "hit": false,
      "t": 130101.84999999961,
      "d": 688.7744999999995,
      "v": 100
    },
    {
      "midi": 74,
      "hit": false,
      "t": 130101.84999999992,
      "d": 159.4385416666628,
      "v": 66
    },
    {
      "midi": 55,
      "hit": false,
      "t": 130101.84999999998,
      "d": 758.9274583333463,
      "v": 92
    },
    {
      "midi": 62,
      "hit": false,
      "t": 130407.97199999962,
      "d": 497.4482500000013,
      "v": 100
    },
    {
      "midi": 74,
      "hit": false,
      "t": 130407.97199999992,
      "d": 261.47920833333046,
      "v": 75
    },
    {
      "midi": 62,
      "hit": false,
      "t": 130407.97199999998,
      "d": 695.1520416666754,
      "v": 92
    },
    {
      "midi": 67,
      "hit": false,
      "t": 130714.09399999962,
      "d": 471.9380833333271,
      "v": 105
    },
    {
      "midi": 79,
      "hit": false,
      "t": 130714.09399999992,
      "d": 510.2033333333384,
      "v": 102
    },
    {
      "midi": 67,
      "hit": false,
      "t": 130714.09399999998,
      "d": 401.7851249999949,
      "v": 92
    },
    {
      "midi": 55,
      "hit": false,
      "t": 131020.21599999962,
      "d": 242.34658333331754,
      "v": 86
    },
    {
      "midi": 55,
      "hit": false,
      "t": 131020.21599999999,
      "d": 816.3253333333414,
      "v": 92
    },
    {
      "midi": 62,
      "hit": false,
      "t": 131326.3379999996,
      "d": 363.51987499999814,
      "v": 105
    },
    {
      "midi": 74,
      "hit": false,
      "t": 131326.33799999993,
      "d": 573.9787500000093,
      "v": 82
    },
    {
      "midi": 55,
      "hit": false,
      "t": 131632.4599999996,
      "d": 204.08133333333535,
      "v": 74
    },
    {
      "midi": 62,
      "hit": false,
      "t": 131632.46,
      "d": 255.10166666665464,
      "v": 92
    },
    {
      "midi": 47,
      "hit": false,
      "t": 131938.58199999962,
      "d": 178.57116666666116,
      "v": 105
    },
    {
      "midi": 74,
      "hit": false,
      "t": 131938.58199999994,
      "d": 235.96904166665627,
      "v": 82
    },
    {
      "midi": 47,
      "hit": false,
      "t": 131938.58199999997,
      "d": 223.21395833333372,
      "v": 92
    },
    {
      "midi": 60,
      "hit": false,
      "t": 132244.70399999962,
      "d": 376.2749583333498,
      "v": 105
    },
    {
      "midi": 45,
      "hit": false,
      "t": 132244.70399999962,
      "d": 1817.5993750000198,
      "v": 105
    },
    {
      "midi": 72,
      "hit": false,
      "t": 132244.70399999994,
      "d": 216.8364166666579,
      "v": 109
    },
    {
      "midi": 60,
      "hit": false,
      "t": 132244.70399999997,
      "d": 357.1423333333223,
      "v": 92
    },
    {
      "midi": 45,
      "hit": false,
      "t": 132244.70399999997,
      "d": 1581.6303333333053,
      "v": 92
    },
    {
      "midi": 53,
      "hit": false,
      "t": 132550.82599999962,
      "d": 446.42791666666744,
      "v": 74
    },
    {
      "midi": 72,
      "hit": false,
      "t": 132550.82599999994,
      "d": 165.8160833333386,
      "v": 70
    },
    {
      "midi": 53,
      "hit": false,
      "t": 132550.82599999997,
      "d": 701.5295833333221,
      "v": 92
    },
    {
      "midi": 60,
      "hit": false,
      "t": 132856.94799999963,
      "d": 76.53049999999348,
      "v": 74
    },
    {
      "midi": 60,
      "hit": false,
      "t": 132856.94799999995,
      "d": 688.7744999999995,
      "v": 92
    },
    {
      "midi": 72,
      "hit": false,
      "t": 132856.94799999995,
      "d": 178.57116666666116,
      "v": 102
    },
    {
      "midi": 60,
      "hit": false,
      "t": 133163.06999999963,
      "d": 229.59150000000955,
      "v": 100
    },
    {
      "midi": 53,
      "hit": false,
      "t": 133163.06999999963,
      "d": 446.42791666666744,
      "v": 100
    },
    {
      "midi": 65,
      "hit": false,
      "t": 133163.06999999995,
      "d": 369.89741666667396,
      "v": 92
    },
    {
      "midi": 72,
      "hit": false,
      "t": 133163.06999999995,
      "d": 108.4182083333435,
      "v": 82
    },
    {
      "midi": 71,
      "hit": false,
      "t": 133316.13099999996,
      "d": 197.70379166665953,
      "v": 75
    },
    {
      "midi": 53,
      "hit": false,
      "t": 133469.19199999995,
      "d": 465.5605416666658,
      "v": 92
    },
    {
      "midi": 69,
      "hit": false,
      "t": 133469.19199999995,
      "d": 650.5092500000028,
      "v": 93
    },
    {
      "midi": 53,
      "hit": false,
      "t": 133775.31399999963,
      "d": 229.59150000000955,
      "v": 86
    },
    {
      "midi": 60,
      "hit": false,
      "t": 133775.31399999995,
      "d": 542.0910416666593,
      "v": 92
    },
    {
      "midi": 53,
      "hit": false,
      "t": 134081.43599999996,
      "d": 408.1626666666707,
      "v": 92
    },
    {
      "midi": 72,
      "hit": false,
      "t": 134081.43599999996,
      "d": 153.06099999998696,
      "v": 93
    },
    {
      "midi": 55,
      "hit": false,
      "t": 134387.55799999964,
      "d": 197.70379166665953,
      "v": 105
    },
    {
      "midi": 57,
      "hit": false,
      "t": 134387.55799999964,
      "d": 695.1520416666463,
      "v": 100
    },
    {
      "midi": 72,
      "hit": false,
      "t": 134387.55799999993,
      "d": 401.7851249999949,
      "v": 109
    },
    {
      "midi": 43,
      "hit": false,
      "t": 134387.55799999996,
      "d": 223.21395833333372,
      "v": 92
    },
    {
      "midi": 55,
      "hit": false,
      "t": 134693.67999999964,
      "d": 503.82579166663345,
      "v": 67
    },
    {
      "midi": 60,
      "hit": false,
      "t": 134693.67999999964,
      "d": 637.7541666666511,
      "v": 100
    },
    {
      "midi": 41,
      "hit": false,
      "t": 134693.67999999964,
      "d": 714.2846666666446,
      "v": 105
    },
    {
      "midi": 53,
      "hit": false,
      "t": 134693.67999999996,
      "d": 114.79574999999022,
      "v": 92
    },
    {
      "midi": 60,
      "hit": false,
      "t": 134693.67999999996,
      "d": 318.87708333329647,
      "v": 92
    },
    {
      "midi": 64,
      "hit": false,
      "t": 134693.67999999996,
      "d": 408.1626666666416,
      "v": 92
    },
    {
      "midi": 41,
      "hit": false,
      "t": 134693.67999999996,
      "d": 860.9681249999558,
      "v": 92
    },
    {
      "midi": 55,
      "hit": false,
      "t": 134999.80199999994,
      "d": 267.8567500000063,
      "v": 92
    },
    {
      "midi": 72,
      "hit": false,
      "t": 134999.80199999994,
      "d": 191.3262500000128,
      "v": 75
    },
    {
      "midi": 55,
      "hit": false,
      "t": 135305.92399999962,
      "d": 216.8364166666579,
      "v": 86
    },
    {
      "midi": 57,
      "hit": false,
      "t": 135305.92399999994,
      "d": 235.96904166665627,
      "v": 92
    },
    {
      "midi": 72,
      "hit": false,
      "t": 135305.92399999994,
      "d": 197.70379166665953,
      "v": 75
    },
    {
      "midi": 60,
      "hit": false,
      "t": 135612.04599999962,
      "d": 127.55083333334187,
      "v": 74
    },
    {
      "midi": 60,
      "hit": false,
      "t": 135612.04599999991,
      "d": 376.2749583333498,
      "v": 92
    },
    {
      "midi": 76,
      "hit": false,
      "t": 135612.04599999994,
      "d": 420.91774999999325,
      "v": 102
    },
    {
      "midi": 55,
      "hit": false,
      "t": 135918.16799999963,
      "d": 191.3262500000128,
      "v": 100
    },
    {
      "midi": 64,
      "hit": false,
      "t": 135918.16799999963,
      "d": 376.2749583333207,
      "v": 105
    },
    {
      "midi": 60,
      "hit": false,
      "t": 135918.16799999963,
      "d": 382.6524999999965,
      "v": 105
    },
    {
      "midi": 43,
      "hit": false,
      "t": 135918.16799999963,
      "d": 1186.2227499999863,
      "v": 105
    },
    {
      "midi": 64,
      "hit": false,
      "t": 135918.16799999992,
      "d": 554.8461250000109,
      "v": 92
    },
    {
      "midi": 43,
      "hit": false,
      "t": 135918.16799999992,
      "d": 1109.6922499999637,
      "v": 92
    },
    {
      "midi": 55,
      "hit": false,
      "t": 136224.28999999963,
      "d": 197.70379166665953,
      "v": 62
    },
    {
      "midi": 55,
      "hit": false,
      "t": 136224.28999999992,
      "d": 522.9584166666609,
      "v": 92
    },
    {
      "midi": 74,
      "hit": false,
      "t": 136224.28999999995,
      "d": 242.3465833333321,
      "v": 102
    },
    {
      "midi": 55,
      "hit": false,
      "t": 136530.41199999963,
      "d": 197.70379166665953,
      "v": 100
    },
    {
      "midi": 59,
      "hit": false,
      "t": 136530.41199999963,
      "d": 363.51987499996903,
      "v": 105
    },
    {
      "midi": 62,
      "hit": false,
      "t": 136530.41199999963,
      "d": 369.89741666664486,
      "v": 100
    },
    {
      "midi": 59,
      "hit": false,
      "t": 136530.41199999992,
      "d": 382.6524999999674,
      "v": 92
    },
    {
      "midi": 62,
      "hit": false,
      "t": 136530.41199999992,
      "d": 420.91774999996414,
      "v": 92
    },
    {
      "midi": 55,
      "hit": false,
      "t": 136836.5339999996,
      "d": 172.19362500001444,
      "v": 74
    },
    {
      "midi": 55,
      "hit": false,
      "t": 136836.5339999999,
      "d": 382.6524999999674,
      "v": 92
    },
    {
      "midi": 76,
      "hit": false,
      "t": 136836.53399999996,
      "d": 191.3262500000128,
      "v": 93
    },
    {
      "midi": 55,
      "hit": false,
      "t": 137142.6559999996,
      "d": 261.47920833335957,
      "v": 74
    },
    {
      "midi": 60,
      "hit": false,
      "t": 137142.6559999996,
      "d": 382.6524999999965,
      "v": 105
    },
    {
      "midi": 64,
      "hit": false,
      "t": 137142.6559999996,
      "d": 401.7851249999949,
      "v": 100
    },
    {
      "midi": 48,
      "hit": false,
      "t": 137142.6559999996,
      "d": 1894.1298750000133,
      "v": 105
    },
    {
      "midi": 60,
      "hit": false,
      "t": 137142.65599999987,
      "d": 382.6524999999965,
      "v": 92
    },
    {
      "midi": 62,
      "hit": false,
      "t": 137142.65599999987,
      "d": 382.6524999999965,
      "v": 92
    },
    {
      "midi": 48,
      "hit": false,
      "t": 137142.65599999987,
      "d": 1881.3747916666907,
      "v": 92
    },
    {
      "midi": 76,
      "hit": false,
      "t": 137142.65599999996,
      "d": 210.45887500001118,
      "v": 93
    },
    {
      "midi": 55,
      "hit": false,
      "t": 137448.7779999996,
      "d": 280.61183333332883,
      "v": 105
    },
    {
      "midi": 55,
      "hit": false,
      "t": 137448.77799999987,
      "d": 739.7948333333479,
      "v": 92
    },
    {
      "midi": 76,
      "hit": false,
      "t": 137448.77799999996,
      "d": 191.3262500000128,
      "v": 82
    },
    {
      "midi": 60,
      "hit": false,
      "t": 137754.89999999962,
      "d": 197.70379166665953,
      "v": 86
    },
    {
      "midi": 60,
      "hit": false,
      "t": 137754.89999999988,
      "d": 682.3969583333237,
      "v": 92
    },
    {
      "midi": 76,
      "hit": false,
      "t": 137754.89999999997,
      "d": 178.57116666666116,
      "v": 82
    },
    {
      "midi": 55,
      "hit": false,
      "t": 138061.02199999962,
      "d": 31.887708333320916,
      "v": 67
    },
    {
      "midi": 62,
      "hit": false,
      "t": 138061.02199999962,
      "d": 235.96904166665627,
      "v": 105
    },
    {
      "midi": 62,
      "hit": false,
      "t": 138061.02199999988,
      "d": 325.2546250000014,
      "v": 92
    },
    {
      "midi": 67,
      "hit": false,
      "t": 138061.02199999988,
      "d": 465.5605416666658,
      "v": 92
    },
    {
      "midi": 76,
      "hit": false,
      "t": 138061.02199999997,
      "d": 184.94870833333698,
      "v": 102
    },
    {
      "midi": 55,
      "hit": false,
      "t": 138367.14399999962,
      "d": 229.59150000000955,
      "v": 86
    },
    {
      "midi": 55,
      "hit": false,
      "t": 138367.14399999988,
      "d": 389.03004166667233,
      "v": 92
    },
    {
      "midi": 55,
      "hit": false,
      "t": 138673.26599999962,
      "d": 133.9283749999886,
      "v": 74
    },
    {
      "midi": 67,
      "hit": false,
      "t": 138673.26599999962,
      "d": 420.91774999999325,
      "v": 105
    },
    {
      "midi": 64,
      "hit": false,
      "t": 138673.2659999999,
      "d": 522.95841666669,
      "v": 92
    },
    {
      "midi": 60,
      "hit": false,
      "t": 138673.2659999999,
      "d": 554.8461250000109,
      "v": 92
    },
    {
      "midi": 55,
      "hit": false,
      "t": 138979.38799999963,
      "d": 216.8364166666579,
      "v": 66
    },
    {
      "midi": 55,
      "hit": false,
      "t": 138979.3879999999,
      "d": 860.9681249999849,
      "v": 92
    },
    {
      "midi": 48,
      "hit": false,
      "t": 139285.50999999963,
      "d": 229.59150000000955,
      "v": 100
    },
    {
      "midi": 60,
      "hit": false,
      "t": 139285.50999999963,
      "d": 255.10166666668374,
      "v": 86
    },
    {
      "midi": 48,
      "hit": false,
      "t": 139285.5099999999,
      "d": 235.96904166665627,
      "v": 92
    },
    {
      "midi": 72,
      "hit": false,
      "t": 139285.50999999998,
      "d": 267.8567500000063,
      "v": 93
    },
    {
      "midi": 55,
      "hit": false,
      "t": 139591.63199999963,
      "d": 133.9283750000177,
      "v": 74
    },
    {
      "midi": 62,
      "hit": false,
      "t": 139591.63199999963,
      "d": 427.2952916666982,
      "v": 100
    },
    {
      "midi": 47,
      "hit": false,
      "t": 139591.63199999963,
      "d": 1881.3747916666907,
      "v": 105
    },
    {
      "midi": 62,
      "hit": false,
      "t": 139591.6319999999,
      "d": 389.0300416666432,
      "v": 92
    },
    {
      "midi": 59,
      "hit": false,
      "t": 139591.6319999999,
      "d": 414.5402083333174,
      "v": 92
    },
    {
      "midi": 47,
      "hit": false,
      "t": 139591.6319999999,
      "d": 1804.8442916666681,
      "v": 92
    },
    {
      "midi": 74,
      "hit": false,
      "t": 139591.63199999998,
      "d": 235.96904166665627,
      "v": 102
    },
    {
      "midi": 55,
      "hit": false,
      "t": 139897.75399999967,
      "d": 242.3465833333321,
      "v": 67
    },
    {
      "midi": 55,
      "hit": false,
      "t": 139897.75399999987,
      "d": 676.019416666677,
      "v": 92
    },
    {
      "midi": 74,
      "hit": false,
      "t": 139897.754,
      "d": 172.19362500001444,
      "v": 75
    },
    {
      "midi": 55,
      "hit": false,
      "t": 140203.87599999967,
      "d": 76.53049999999348,
      "v": 67
    },
    {
      "midi": 62,
      "hit": false,
      "t": 140203.87599999967,
      "d": 210.45887499998207,
      "v": 86
    },
    {
      "midi": 59,
      "hit": false,
      "t": 140203.87599999987,
      "d": 325.2546250000014,
      "v": 92
    },
    {
      "midi": 74,
      "hit": false,
      "t": 140203.876,
      "d": 204.08133333333535,
      "v": 75
    },
    {
      "midi": 67,
      "hit": false,
      "t": 140509.99799999964,
      "d": 146.68345833334024,
      "v": 86
    },
    {
      "midi": 67,
      "hit": false,
      "t": 140509.99799999988,
      "d": 478.31562500001746,
      "v": 92
    },
    {
      "midi": 79,
      "hit": false,
      "t": 140509.998,
      "d": 510.2033333333384,
      "v": 102
    },
    {
      "midi": 74,
      "hit": false,
      "t": 140816.11999999965,
      "d": 140.30591666666442,
      "v": 100
    },
    {
      "midi": 55,
      "hit": false,
      "t": 140816.11999999988,
      "d": 452.80545833334327,
      "v": 92
    },
    {
      "midi": 67,
      "hit": false,
      "t": 141122.24199999965,
      "d": 127.55083333334187,
      "v": 105
    },
    {
      "midi": 62,
      "hit": false,
      "t": 141122.24199999988,
      "d": 414.5402083333465,
      "v": 92
    },
    {
      "midi": 74,
      "hit": false,
      "t": 141122.242,
      "d": 535.7135000000126,
      "v": 93
    },
    {
      "midi": 55,
      "hit": false,
      "t": 141428.36399999988,
      "d": 267.8567500000063,
      "v": 92
    },
    {
      "midi": 47,
      "hit": false,
      "t": 141734.48599999966,
      "d": 184.94870833333698,
      "v": 105
    },
    {
      "midi": 47,
      "hit": false,
      "t": 141734.4859999999,
      "d": 216.8364166666579,
      "v": 92
    },
    {
      "midi": 74,
      "hit": false,
      "t": 141734.486,
      "d": 261.47920833333046,
      "v": 75
    },
    {
      "midi": 53,
      "hit": false,
      "t": 142040.60799999966,
      "d": 133.9283749999886,
      "v": 86
    },
    {
      "midi": 60,
      "hit": false,
      "t": 142040.60799999966,
      "d": 357.1423333332932,
      "v": 100
    },
    {
      "midi": 45,
      "hit": false,
      "t": 142040.60799999966,
      "d": 1862.2421666666633,
      "v": 105
    },
    {
      "midi": 60,
      "hit": false,
      "t": 142040.6079999999,
      "d": 363.51987499999814,
      "v": 92
    },
    {
      "midi": 45,
      "hit": false,
      "t": 142040.6079999999,
      "d": 1951.5277499999793,
      "v": 92
    },
    {
      "midi": 72,
      "hit": false,
      "t": 142040.608,
      "d": 216.8364166666579,
      "v": 82
    },
    {
      "midi": 53,
      "hit": false,
      "t": 142346.72999999963,
      "d": 223.21395833333372,
      "v": 74
    },
    {
      "midi": 53,
      "hit": false,
      "t": 142346.7299999999,
      "d": 554.8461249999818,
      "v": 92
    },
    {
      "midi": 72,
      "hit": false,
      "t": 142346.73,
      "d": 184.94870833333698,
      "v": 93
    },
    {
      "midi": 53,
      "hit": false,
      "t": 142652.85199999964,
      "d": 89.28558333334513,
      "v": 62
    },
    {
      "midi": 60,
      "hit": false,
      "t": 142652.85199999964,
      "d": 89.28558333334513,
      "v": 74
    },
    {
      "midi": 72,
      "hit": false,
      "t": 142652.852,
      "d": 133.9283749999886,
      "v": 58
    },
    {
      "midi": 60,
      "hit": false,
      "t": 142958.97399999964,
      "d": 286.98937500000466,
      "v": 105
    },
    {
      "midi": 53,
      "hit": false,
      "t": 142958.97399999964,
      "d": 344.38724999999977,
      "v": 86
    },
    {
      "midi": 65,
      "hit": false,
      "t": 142958.97399999987,
      "d": 261.47920833333046,
      "v": 92
    },
    {
      "midi": 60,
      "hit": false,
      "t": 142958.97399999987,
      "d": 382.6524999999965,
      "v": 92
    },
    {
      "midi": 72,
      "hit": false,
      "t": 142958.97400000002,
      "d": 172.19362499998533,
      "v": 82
    },
    {
      "midi": 71,
      "hit": false,
      "t": 143112.035,
      "d": 165.8160833333095,
      "v": 82
    },
    {
      "midi": 53,
      "hit": false,
      "t": 143265.09599999987,
      "d": 542.0910416666593,
      "v": 92
    },
    {
      "midi": 69,
      "hit": false,
      "t": 143265.096,
      "d": 542.0910416666593,
      "v": 82
    },
    {
      "midi": 55,
      "hit": false,
      "t": 143571.21799999964,
      "d": 229.59150000000955,
      "v": 105
    },
    {
      "midi": 57,
      "hit": false,
      "t": 143877.33999999965,
      "d": 223.21395833333372,
      "v": 100
    },
    {
      "midi": 72,
      "hit": false,
      "t": 143877.34,
      "d": 191.3262500000128,
      "v": 82
    },
    {
      "midi": 60,
      "hit": false,
      "t": 144183.46199999965,
      "d": 886.4782916666591,
      "v": 100
    },
    {
      "midi": 57,
      "hit": false,
      "t": 144183.46199999988,
      "d": 146.68345833334024,
      "v": 92
    },
    {
      "midi": 72,
      "hit": false,
      "t": 144183.462,
      "d": 459.18299999999,
      "v": 109
    },
    {
      "midi": 59,
      "hit": false,
      "t": 144336.5229999999,
      "d": 216.8364166666579,
      "v": 92
    },
    {
      "midi": 57,
      "hit": false,
      "t": 144489.58399999965,
      "d": 446.42791666666744,
      "v": 86
    },
    {
      "midi": 41,
      "hit": false,
      "t": 144489.58399999965,
      "d": 688.7744999999704,
      "v": 105
    },
    {
      "midi": 53,
      "hit": false,
      "t": 144489.58399999965,
      "d": 778.0600833333156,
      "v": 74
    },
    {
      "midi": 60,
      "hit": false,
      "t": 144489.5839999999,
      "d": 873.7232083333074,
      "v": 92
    },
    {
      "midi": 41,
      "hit": false,
      "t": 144489.5839999999,
      "d": 1020.4066666666477,
      "v": 92
    },
    {
      "midi": 72,
      "hit": false,
      "t": 144795.70599999998,
      "d": 204.08133333333535,
      "v": 75
    },
    {
      "midi": 57,
      "hit": false,
      "t": 145101.82799999963,
      "d": 82.9080416666693,
      "v": 67
    },
    {
      "midi": 53,
      "hit": false,
      "t": 145101.82799999986,
      "d": 465.5605416666658,
      "v": 92
    },
    {
      "midi": 72,
      "hit": false,
      "t": 145101.82799999998,
      "d": 210.45887500001118,
      "v": 75
    },
    {
      "midi": 53,
      "hit": false,
      "t": 145407.94999999963,
      "d": 465.5605416666658,
      "v": 67
    },
    {
      "midi": 60,
      "hit": false,
      "t": 145407.94999999963,
      "d": 624.9990833332995,
      "v": 100
    },
    {
      "midi": 64,
      "hit": false,
      "t": 145407.94999999963,
      "d": 886.47829166663,
      "v": 86
    },
    {
      "midi": 57,
      "hit": false,
      "t": 145407.94999999987,
      "d": 146.68345833334024,
      "v": 92
    },
    {
      "midi": 76,
      "hit": false,
      "t": 145407.94999999998,
      "d": 427.2952916666691,
      "v": 102
    },
    {
      "midi": 43,
      "hit": false,
      "t": 145714.07199999964,
      "d": 1198.9778333333088,
      "v": 105
    },
    {
      "midi": 53,
      "hit": false,
      "t": 145714.07199999987,
      "d": 293.3669166666805,
      "v": 92
    },
    {
      "midi": 60,
      "hit": false,
      "t": 145714.07199999987,
      "d": 510.2033333333675,
      "v": 92
    },
    {
      "midi": 43,
      "hit": false,
      "t": 145714.07199999987,
      "d": 778.0600833333738,
      "v": 92
    },
    {
      "midi": 55,
      "hit": false,
      "t": 146020.1939999996,
      "d": 516.5808749999851,
      "v": 86
    },
    {
      "midi": 76,
      "hit": false,
      "t": 146020.194,
      "d": 420.91774999999325,
      "v": 93
    },
    {
      "midi": 59,
      "hit": false,
      "t": 146326.31599999958,
      "d": 395.40758333334816,
      "v": 66
    },
    {
      "midi": 62,
      "hit": false,
      "t": 146326.31599999958,
      "d": 516.5808750000142,
      "v": 86
    },
    {
      "midi": 53,
      "hit": false,
      "t": 146326.3159999999,
      "d": 140.30591666666442,
      "v": 92
    },
    {
      "midi": 59,
      "hit": false,
      "t": 146326.3159999999,
      "d": 369.89741666667396,
      "v": 92
    },
    {
      "midi": 55,
      "hit": false,
      "t": 146632.4379999996,
      "d": 389.03004166670144,
      "v": 66
    },
    {
      "midi": 53,
      "hit": false,
      "t": 146632.4379999999,
      "d": 114.79574999999022,
      "v": 92
    },
    {
      "midi": 76,
      "hit": false,
      "t": 146632.438,
      "d": 599.4889166666544,
      "v": 93
    },
    {
      "midi": 36,
      "hit": false,
      "t": 146938.55999999962,
      "d": 2225.7620416666905,
      "v": 100
    },
    {
      "midi": 62,
      "hit": false,
      "t": 146938.5599999999,
      "d": 420.91774999999325,
      "v": 92
    },
    {
      "midi": 67,
      "hit": false,
      "t": 146938.5599999999,
      "d": 637.7541666666802,
      "v": 92
    },
    {
      "midi": 48,
      "hit": false,
      "t": 146938.5599999999,
      "d": 2302.292541666684,
      "v": 92
    },
    {
      "midi": 43,
      "hit": false,
      "t": 147244.68199999962,
      "d": 1077.8045416666719,
      "v": 105
    },
    {
      "midi": 55,
      "hit": false,
      "t": 147244.6819999999,
      "d": 1422.1917916666716,
      "v": 92
    },
    {
      "midi": 74,
      "hit": false,
      "t": 147244.68199999997,
      "d": 318.8770833333256,
      "v": 75
    },
    {
      "midi": 52,
      "hit": false,
      "t": 147550.80399999963,
      "d": 860.968125000014,
      "v": 100
    },
    {
      "midi": 60,
      "hit": false,
      "t": 147550.80399999992,
      "d": 676.019416666677,
      "v": 92
    },
    {
      "midi": 72,
      "hit": false,
      "t": 147550.80399999997,
      "d": 1447.7019583333167,
      "v": 82
    },
    {
      "midi": 60,
      "hit": false,
      "t": 147856.92599999963,
      "d": 835.4579583333398,
      "v": 86
    },
    {
      "midi": 67,
      "hit": false,
      "t": 147856.92599999992,
      "d": 988.5189583333558,
      "v": 92
    },
    {
      "midi": 62,
      "hit": false,
      "t": 147856.92599999992,
      "d": 2531.8840416666935,
      "v": 92
    },
    {
      "midi": 43,
      "hit": false,
      "t": 148469.16999999963,
      "d": 331.6321666666772,
      "v": 67
    },
    {
      "midi": 52,
      "hit": false,
      "t": 148469.16999999963,
      "d": 484.6931666666642,
      "v": 66
    },
    {
      "midi": 60,
      "hit": false,
      "t": 148469.16999999993,
      "d": 1352.038833333354,
      "v": 92
    },
    {
      "midi": 60,
      "hit": false,
      "t": 148775.29199999964,
      "d": 1179.8452083333395,
      "v": 74
    },
    {
      "midi": 55,
      "hit": false,
      "t": 148775.29199999993,
      "d": 2697.700124999974,
      "v": 92
    },
    {
      "midi": 43,
      "hit": false,
      "t": 149081.41399999964,
      "d": 127.55083333334187,
      "v": 67
    },
    {
      "midi": 52,
      "hit": false,
      "t": 149081.41399999964,
      "d": 433.6728333333449,
      "v": 74
    },
    {
      "midi": 67,
      "hit": false,
      "t": 149081.41399999993,
      "d": 816.3253333333414,
      "v": 92
    },
    {
      "midi": 36,
      "hit": false,
      "t": 149387.53599999964,
      "d": 478.31562500001746,
      "v": 100
    },
    {
      "midi": 48,
      "hit": false,
      "t": 149387.53599999993,
      "d": 1135.202416666667,
      "v": 92
    },
    {
      "midi": 43,
      "hit": false,
      "t": 149693.65799999965,
      "d": 229.59150000000955,
      "v": 74
    },
    {
      "midi": 52,
      "hit": false,
      "t": 149999.77999999965,
      "d": 389.03004166667233,
      "v": 86
    },
    {
      "midi": 64,
      "hit": false,
      "t": 149999.77999999994,
      "d": 344.38724999999977,
      "v": 92
    },
    {
      "midi": 67,
      "hit": false,
      "t": 149999.77999999994,
      "d": 612.243999999977,
      "v": 92
    },
    {
      "midi": 60,
      "hit": false,
      "t": 150305.90199999965,
      "d": 267.8567500000063,
      "v": 67
    },
    {
      "midi": 60,
      "hit": false,
      "t": 150305.90199999994,
      "d": 229.59149999998044,
      "v": 92
    },
    {
      "midi": 47,
      "hit": false,
      "t": 150612.02399999966,
      "d": 720.6622083333496,
      "v": 105
    },
    {
      "midi": 59,
      "hit": false,
      "t": 150612.02399999992,
      "d": 306.122000000003,
      "v": 92
    },
    {
      "midi": 47,
      "hit": false,
      "t": 150612.02399999992,
      "d": 1020.4066666666477,
      "v": 92
    },
    {
      "midi": 55,
      "hit": false,
      "t": 150918.14599999966,
      "d": 420.91775000002235,
      "v": 86
    },
    {
      "midi": 60,
      "hit": false,
      "t": 150918.14599999992,
      "d": 459.18299999999,
      "v": 92
    },
    {
      "midi": 62,
      "hit": false,
      "t": 151224.26799999966,
      "d": 286.98937500003376,
      "v": 74
    },
    {
      "midi": 62,
      "hit": false,
      "t": 151224.26799999992,
      "d": 491.0707083333109,
      "v": 92
    },
    {
      "midi": 55,
      "hit": false,
      "t": 151530.3899999997,
      "d": 31.887708333320916,
      "v": 62
    },
    {
      "midi": 47,
      "hit": false,
      "t": 151530.3899999997,
      "d": 114.79574999999022,
      "v": 66
    },
    {
      "midi": 59,
      "hit": false,
      "t": 151530.3899999999,
      "d": 114.79574999999022,
      "v": 92
    },
    {
      "midi": 45,
      "hit": false,
      "t": 151836.5119999997,
      "d": 1996.170541666681,
      "v": 105
    },
    {
      "midi": 60,
      "hit": false,
      "t": 151836.5119999997,
      "d": 2155.6090833333437,
      "v": 100
    },
    {
      "midi": 57,
      "hit": false,
      "t": 151836.5119999997,
      "d": 2174.741708333342,
      "v": 100
    },
    {
      "midi": 52,
      "hit": false,
      "t": 151836.5119999997,
      "d": 2206.629416666663,
      "v": 100
    },
    {
      "midi": 57,
      "hit": false,
      "t": 151836.5119999999,
      "d": 1900.50741666666,
      "v": 92
    },
    {
      "midi": 60,
      "hit": false,
      "t": 151836.5119999999,
      "d": 1938.7726666666567,
      "v": 92
    },
    {
      "midi": 45,
      "hit": false,
      "t": 151836.5119999999,
      "d": 2213.0069583333097,
      "v": 92
    },
    {
      "midi": 72,
      "hit": false,
      "t": 151836.51199999996,
      "d": 2321.4251666666532,
      "v": 109
    },
    {
      "midi": 59,
      "hit": false,
      "t": 154285.4879999997,
      "d": 1345.661291666649,
      "v": 100
    },
    {
      "midi": 55,
      "hit": false,
      "t": 154285.4879999997,
      "d": 1549.7426249999844,
      "v": 105
    },
    {
      "midi": 52,
      "hit": false,
      "t": 154285.4879999997,
      "d": 1945.1502083333326,
      "v": 105
    },
    {
      "midi": 40,
      "hit": false,
      "t": 154285.4879999997,
      "d": 1957.905291666655,
      "v": 100
    },
    {
      "midi": 71,
      "hit": false,
      "t": 154285.48799999987,
      "d": 1345.6612916666782,
      "v": 92
    },
    {
      "midi": 67,
      "hit": false,
      "t": 154285.48799999987,
      "d": 1996.170541666681,
      "v": 92
    },
    {
      "midi": 64,
      "hit": false,
      "t": 154285.48799999987,
      "d": 2059.945958333352,
      "v": 92
    },
    {
      "midi": 52,
      "hit": false,
      "t": 154285.48799999987,
      "d": 2276.78237500001,
      "v": 92
    },
    {
      "midi": 71,
      "hit": false,
      "t": 154285.48799999995,
      "d": 242.3465833333321,
      "v": 109
    },
    {
      "midi": 71,
      "hit": false,
      "t": 154591.60999999996,
      "d": 165.8160833333386,
      "v": 82
    },
    {
      "midi": 71,
      "hit": false,
      "t": 154897.73199999996,
      "d": 197.70379166665953,
      "v": 93
    },
    {
      "midi": 64,
      "hit": false,
      "t": 155203.85399999967,
      "d": 963.0087916666816,
      "v": 100
    },
    {
      "midi": 76,
      "hit": false,
      "t": 155203.85399999988,
      "d": 969.3863333333284,
      "v": 92
    },
    {
      "midi": 76,
      "hit": false,
      "t": 155203.85399999996,
      "d": 459.18299999999,
      "v": 102
    },
    {
      "midi": 59,
      "hit": false,
      "t": 155816.09799999968,
      "d": 357.1423333333514,
      "v": 74
    },
    {
      "midi": 71,
      "hit": false,
      "t": 155816.09799999988,
      "d": 465.5605416666658,
      "v": 92
    },
    {
      "midi": 71,
      "hit": false,
      "t": 155816.09799999994,
      "d": 542.0910416666593,
      "v": 102
    },
    {
      "midi": 57,
      "hit": false,
      "t": 156428.34199999968,
      "d": 829.080416666664,
      "v": 100
    },
    {
      "midi": 69,
      "hit": false,
      "t": 156428.3419999999,
      "d": 1524.2324583333393,
      "v": 92
    },
    {
      "midi": 69,
      "hit": false,
      "t": 156428.34199999995,
      "d": 1434.9468749999942,
      "v": 93
    },
    {
      "midi": 53,
      "hit": false,
      "t": 156734.4639999997,
      "d": 529.3359583333367,
      "v": 105
    },
    {
      "midi": 41,
      "hit": false,
      "t": 156734.4639999997,
      "d": 707.9071249999979,
      "v": 105
    },
    {
      "midi": 53,
      "hit": false,
      "t": 156734.4639999999,
      "d": 1128.8248749999912,
      "v": 92
    },
    {
      "midi": 60,
      "hit": false,
      "t": 156734.4639999999,
      "d": 1218.1104583333363,
      "v": 92
    },
    {
      "midi": 65,
      "hit": false,
      "t": 156734.4639999999,
      "d": 1218.1104583333363,
      "v": 92
    },
    {
      "midi": 53,
      "hit": false,
      "t": 157958.9519999997,
      "d": 433.6728333333449,
      "v": 105
    },
    {
      "midi": 65,
      "hit": false,
      "t": 157958.9519999997,
      "d": 433.6728333333449,
      "v": 105
    },
    {
      "midi": 69,
      "hit": false,
      "t": 157958.9519999997,
      "d": 433.6728333333449,
      "v": 105
    },
    {
      "midi": 60,
      "hit": false,
      "t": 157958.9519999997,
      "d": 459.1830000000191,
      "v": 105
    },
    {
      "midi": 53,
      "hit": false,
      "t": 157958.9519999999,
      "d": 605.8664583333302,
      "v": 92
    },
    {
      "midi": 60,
      "hit": false,
      "t": 157958.9519999999,
      "d": 605.8664583333302,
      "v": 92
    },
    {
      "midi": 65,
      "hit": false,
      "t": 157958.9519999999,
      "d": 605.8664583333302,
      "v": 92
    },
    {
      "midi": 69,
      "hit": false,
      "t": 157958.9519999999,
      "d": 605.8664583333302,
      "v": 92
    },
    {
      "midi": 52,
      "hit": false,
      "t": 158571.1959999997,
      "d": 369.89741666667396,
      "v": 105
    },
    {
      "midi": 64,
      "hit": false,
      "t": 158571.1959999997,
      "d": 389.03004166667233,
      "v": 105
    },
    {
      "midi": 67,
      "hit": false,
      "t": 158571.1959999997,
      "d": 395.40758333334816,
      "v": 105
    },
    {
      "midi": 60,
      "hit": false,
      "t": 158571.1959999997,
      "d": 401.785125000024,
      "v": 105
    },
    {
      "midi": 64,
      "hit": false,
      "t": 158571.1959999999,
      "d": 452.80545833334327,
      "v": 92
    },
    {
      "midi": 52,
      "hit": false,
      "t": 158571.1959999999,
      "d": 605.8664583333302,
      "v": 92
    },
    {
      "midi": 60,
      "hit": false,
      "t": 158571.1959999999,
      "d": 605.8664583333302,
      "v": 92
    },
    {
      "midi": 67,
      "hit": false,
      "t": 158571.1959999999,
      "d": 605.8664583333302,
      "v": 92
    },
    {
      "midi": 57,
      "hit": false,
      "t": 159183.43999999974,
      "d": 554.8461250000109,
      "v": 105
    },
    {
      "midi": 65,
      "hit": false,
      "t": 159183.43999999974,
      "d": 880.1007500000123,
      "v": 105
    },
    {
      "midi": 62,
      "hit": false,
      "t": 159183.43999999974,
      "d": 1211.7329166666605,
      "v": 105
    },
    {
      "midi": 50,
      "hit": false,
      "t": 159183.43999999974,
      "d": 1403.0591666666442,
      "v": 105
    },
    {
      "midi": 77,
      "hit": false,
      "t": 159183.43999999992,
      "d": 1243.6206250000105,
      "v": 92
    },
    {
      "midi": 72,
      "hit": false,
      "t": 159183.43999999992,
      "d": 2174.741708333342,
      "v": 92
    },
    {
      "midi": 50,
      "hit": false,
      "t": 159183.43999999992,
      "d": 2353.3128750000033,
      "v": 92
    },
    {
      "midi": 69,
      "hit": false,
      "t": 159183.43999999992,
      "d": 3341.83183333333,
      "v": 92
    },
    {
      "midi": 77,
      "hit": false,
      "t": 159183.43999999994,
      "d": 229.59150000000955,
      "v": 102
    },
    {
      "midi": 77,
      "hit": false,
      "t": 159489.56199999995,
      "d": 159.4385416666628,
      "v": 75
    },
    {
      "midi": 57,
      "hit": false,
      "t": 159795.68399999975,
      "d": 542.0910416666593,
      "v": 74
    },
    {
      "midi": 77,
      "hit": false,
      "t": 159795.68399999995,
      "d": 223.21395833333372,
      "v": 102
    },
    {
      "midi": 67,
      "hit": false,
      "t": 160101.80599999975,
      "d": 325.2546249999723,
      "v": 100
    },
    {
      "midi": 79,
      "hit": false,
      "t": 160101.80599999992,
      "d": 522.9584166666609,
      "v": 92
    },
    {
      "midi": 79,
      "hit": false,
      "t": 160101.80599999995,
      "d": 542.0910416666593,
      "v": 102
    },
    {
      "midi": 65,
      "hit": false,
      "t": 160714.04999999973,
      "d": 223.21395833333372,
      "v": 105
    },
    {
      "midi": 77,
      "hit": false,
      "t": 160714.04999999993,
      "d": 382.6524999999965,
      "v": 92
    },
    {
      "midi": 77,
      "hit": false,
      "t": 160714.04999999996,
      "d": 516.5808750000142,
      "v": 102
    },
    {
      "midi": 64,
      "hit": false,
      "t": 161326.29399999973,
      "d": 1294.6409583333298,
      "v": 105
    },
    {
      "midi": 76,
      "hit": false,
      "t": 161326.29399999994,
      "d": 1543.3650833333086,
      "v": 92
    },
    {
      "midi": 76,
      "hit": false,
      "t": 161326.29399999997,
      "d": 618.6215416666819,
      "v": 102
    },
    {
      "midi": 57,
      "hit": false,
      "t": 161632.41599999974,
      "d": 701.5295833333221,
      "v": 105
    },
    {
      "midi": 60,
      "hit": false,
      "t": 161632.41599999974,
      "d": 1001.2740416666493,
      "v": 105
    },
    {
      "midi": 45,
      "hit": false,
      "t": 161632.41599999974,
      "d": 1626.2731249999779,
      "v": 105
    },
    {
      "midi": 57,
      "hit": false,
      "t": 161632.4159999999,
      "d": 2429.8433749999676,
      "v": 92
    },
    {
      "midi": 72,
      "hit": false,
      "t": 161632.4159999999,
      "d": 2468.1086249999644,
      "v": 92
    },
    {
      "midi": 74,
      "hit": false,
      "t": 161938.53799999997,
      "d": 261.47920833333046,
      "v": 75
    },
    {
      "midi": 72,
      "hit": false,
      "t": 162244.65999999997,
      "d": 1396.6816249999974,
      "v": 93
    },
    {
      "midi": 52,
      "hit": false,
      "t": 162550.78199999972,
      "d": 261.47920833333046,
      "v": 67
    },
    {
      "midi": 57,
      "hit": false,
      "t": 162856.90399999972,
      "d": 235.96904166665627,
      "v": 100
    },
    {
      "midi": 69,
      "hit": false,
      "t": 162856.90399999992,
      "d": 1020.4066666666477,
      "v": 92
    },
    {
      "midi": 64,
      "hit": false,
      "t": 162856.90399999992,
      "d": 1071.426999999967,
      "v": 92
    },
    {
      "midi": 59,
      "hit": false,
      "t": 163163.02599999972,
      "d": 210.45887499998207,
      "v": 100
    },
    {
      "midi": 60,
      "hit": false,
      "t": 163469.1479999997,
      "d": 318.8770833333256,
      "v": 100
    },
    {
      "midi": 57,
      "hit": false,
      "t": 163775.2699999997,
      "d": 172.19362499998533,
      "v": 100
    },
    {
      "midi": 55,
      "hit": false,
      "t": 164081.39199999967,
      "d": 516.5808749999851,
      "v": 100
    },
    {
      "midi": 62,
      "hit": false,
      "t": 164081.39199999967,
      "d": 688.7744999999704,
      "v": 105
    },
    {
      "midi": 59,
      "hit": false,
      "t": 164081.39199999967,
      "d": 701.529583333293,
      "v": 105
    },
    {
      "midi": 71,
      "hit": false,
      "t": 164081.39199999988,
      "d": 1428.5693333333475,
      "v": 92
    },
    {
      "midi": 67,
      "hit": false,
      "t": 164081.39199999988,
      "d": 1945.1502083333617,
      "v": 92
    },
    {
      "midi": 62,
      "hit": false,
      "t": 164081.39199999988,
      "d": 2008.9256250000035,
      "v": 92
    },
    {
      "midi": 52,
      "hit": false,
      "t": 164081.39199999988,
      "d": 2372.4455000000016,
      "v": 92
    },
    {
      "midi": 71,
      "hit": false,
      "t": 164081.39199999996,
      "d": 242.3465833333321,
      "v": 102
    },
    {
      "midi": 40,
      "hit": false,
      "t": 164387.51399999968,
      "d": 1275.5083333332732,
      "v": 105
    },
    {
      "midi": 71,
      "hit": false,
      "t": 164387.51399999997,
      "d": 191.3262500000128,
      "v": 93
    },
    {
      "midi": 55,
      "hit": false,
      "t": 164693.63599999965,
      "d": 389.0300416666432,
      "v": 86
    },
    {
      "midi": 71,
      "hit": false,
      "t": 164693.63599999997,
      "d": 242.3465833333321,
      "v": 82
    },
    {
      "midi": 64,
      "hit": false,
      "t": 164999.75799999962,
      "d": 312.49954166667885,
      "v": 86
    },
    {
      "midi": 76,
      "hit": false,
      "t": 164999.75799999989,
      "d": 491.07070833334,
      "v": 92
    },
    {
      "midi": 76,
      "hit": false,
      "t": 164999.75799999997,
      "d": 529.3359583333367,
      "v": 93
    },
    {
      "midi": 55,
      "hit": false,
      "t": 165612.00199999963,
      "d": 165.8160833333095,
      "v": 66
    },
    {
      "midi": 59,
      "hit": false,
      "t": 165612.00199999963,
      "d": 178.57116666663205,
      "v": 66
    },
    {
      "midi": 71,
      "hit": false,
      "t": 165612.0019999999,
      "d": 427.2952916666691,
      "v": 92
    },
    {
      "midi": 71,
      "hit": false,
      "t": 165612.00199999998,
      "d": 433.6728333333449,
      "v": 109
    },
    {
      "midi": 57,
      "hit": false,
      "t": 166224.2459999996,
      "d": 752.5499166666414,
      "v": 105
    },
    {
      "midi": 69,
      "hit": false,
      "t": 166224.24599999987,
      "d": 892.8558333333349,
      "v": 92
    },
    {
      "midi": 69,
      "hit": false,
      "t": 166224.24599999998,
      "d": 286.98937500000466,
      "v": 109
    },
    {
      "midi": 53,
      "hit": false,
      "t": 166530.3679999996,
      "d": 414.5402083333174,
      "v": 74
    },
    {
      "midi": 41,
      "hit": false,
      "t": 166530.3679999996,
      "d": 459.1829999999609,
      "v": 105
    },
    {
      "midi": 53,
      "hit": false,
      "t": 166530.36799999987,
      "d": 1741.0688749999972,
      "v": 92
    },
    {
      "midi": 60,
      "hit": false,
      "t": 166836.48999999987,
      "d": 1804.844291666639,
      "v": 92
    },
    {
      "midi": 65,
      "hit": false,
      "t": 167142.61199999988,
      "d": 1052.2943749999977,
      "v": 92
    },
    {
      "midi": 67,
      "hit": false,
      "t": 167448.73399999988,
      "d": 338.00970833332394,
      "v": 92
    },
    {
      "midi": 53,
      "hit": false,
      "t": 167754.85599999956,
      "d": 433.6728333333158,
      "v": 105
    },
    {
      "midi": 69,
      "hit": false,
      "t": 167754.85599999956,
      "d": 440.0503749999916,
      "v": 105
    },
    {
      "midi": 60,
      "hit": false,
      "t": 167754.85599999956,
      "d": 446.42791666666744,
      "v": 105
    },
    {
      "midi": 65,
      "hit": false,
      "t": 167754.85599999956,
      "d": 446.42791666666744,
      "v": 105
    },
    {
      "midi": 69,
      "hit": false,
      "t": 167754.85599999988,
      "d": 599.4889166666544,
      "v": 92
    },
    {
      "midi": 52,
      "hit": false,
      "t": 168367.09999999957,
      "d": 357.1423333333223,
      "v": 105
    },
    {
      "midi": 64,
      "hit": false,
      "t": 168367.09999999957,
      "d": 408.1626666666416,
      "v": 105
    },
    {
      "midi": 67,
      "hit": false,
      "t": 168367.09999999957,
      "d": 414.5402083333174,
      "v": 105
    },
    {
      "midi": 60,
      "hit": false,
      "t": 168367.09999999957,
      "d": 427.29529166663997,
      "v": 105
    },
    {
      "midi": 64,
      "hit": false,
      "t": 168367.09999999986,
      "d": 344.38724999999977,
      "v": 92
    },
    {
      "midi": 67,
      "hit": false,
      "t": 168367.09999999986,
      "d": 433.6728333333449,
      "v": 92
    },
    {
      "midi": 52,
      "hit": false,
      "t": 168367.09999999986,
      "d": 586.7338333333319,
      "v": 92
    },
    {
      "midi": 62,
      "hit": false,
      "t": 168979.34399999955,
      "d": 427.2952916666691,
      "v": 105
    },
    {
      "midi": 65,
      "hit": false,
      "t": 168979.34399999955,
      "d": 452.80545833334327,
      "v": 105
    },
    {
      "midi": 50,
      "hit": false,
      "t": 168979.34399999955,
      "d": 784.4376249999914,
      "v": 105
    },
    {
      "midi": 72,
      "hit": false,
      "t": 168979.34399999987,
      "d": 471.93808333334164,
      "v": 92
    },
    {
      "midi": 77,
      "hit": false,
      "t": 168979.34399999987,
      "d": 471.93808333334164,
      "v": 92
    },
    {
      "midi": 69,
      "hit": false,
      "t": 168979.34399999987,
      "d": 484.6931666666642,
      "v": 92
    },
    {
      "midi": 50,
      "hit": false,
      "t": 168979.34399999987,
      "d": 2155.6090833333437,
      "v": 92
    },
    {
      "midi": 77,
      "hit": false,
      "t": 168979.34399999998,
      "d": 229.59150000000955,
      "v": 109
    },
    {
      "midi": 60,
      "hit": false,
      "t": 169285.46599999955,
      "d": 108.4182083333435,
      "v": 74
    },
    {
      "midi": 77,
      "hit": false,
      "t": 169285.466,
      "d": 184.94870833333698,
      "v": 75
    },
    {
      "midi": 65,
      "hit": false,
      "t": 169591.58799999955,
      "d": 159.4385416666628,
      "v": 74
    },
    {
      "midi": 77,
      "hit": false,
      "t": 169591.58799999987,
      "d": 216.8364166666579,
      "v": 92
    },
    {
      "midi": 69,
      "hit": false,
      "t": 169591.58799999987,
      "d": 1454.0795000000217,
      "v": 92
    },
    {
      "midi": 72,
      "hit": false,
      "t": 169591.58799999987,
      "d": 1485.9672083333426,
      "v": 92
    },
    {
      "midi": 77,
      "hit": false,
      "t": 169591.588,
      "d": 223.21395833333372,
      "v": 102
    },
    {
      "midi": 67,
      "hit": false,
      "t": 169897.70999999953,
      "d": 299.7444583333272,
      "v": 105
    },
    {
      "midi": 79,
      "hit": false,
      "t": 169897.70999999988,
      "d": 522.9584166666609,
      "v": 92
    },
    {
      "midi": 79,
      "hit": false,
      "t": 169897.71,
      "d": 510.2033333333384,
      "v": 102
    },
    {
      "midi": 65,
      "hit": false,
      "t": 170509.95399999953,
      "d": 204.08133333333535,
      "v": 105
    },
    {
      "midi": 77,
      "hit": false,
      "t": 170509.95399999988,
      "d": 720.6622083333205,
      "v": 92
    },
    {
      "midi": 77,
      "hit": false,
      "t": 170509.954,
      "d": 484.6931666666642,
      "v": 109
    },
    {
      "midi": 64,
      "hit": false,
      "t": 171122.19799999954,
      "d": 140.30591666666442,
      "v": 67
    },
    {
      "midi": 76,
      "hit": false,
      "t": 171122.1979999999,
      "d": 3973.2084583333053,
      "v": 92
    },
    {
      "midi": 76,
      "hit": false,
      "t": 171122.198,
      "d": 1556.1201666666602,
      "v": 109
    },
    {
      "midi": 29,
      "hit": false,
      "t": 171428.31999999954,
      "d": 369.89741666667396,
      "v": 105
    },
    {
      "midi": 41,
      "hit": false,
      "t": 171428.31999999954,
      "d": 389.03004166667233,
      "v": 105
    },
    {
      "midi": 65,
      "hit": false,
      "t": 171428.31999999986,
      "d": 3660.7089166666556,
      "v": 92
    },
    {
      "midi": 69,
      "hit": false,
      "t": 171428.31999999986,
      "d": 3660.7089166666556,
      "v": 92
    },
    {
      "midi": 72,
      "hit": false,
      "t": 171428.31999999986,
      "d": 3660.7089166666556,
      "v": 92
    },
    {
      "midi": 31,
      "hit": false,
      "t": 172040.56399999955,
      "d": 395.40758333331905,
      "v": 105
    },
    {
      "midi": 43,
      "hit": false,
      "t": 172040.56399999955,
      "d": 446.42791666663834,
      "v": 105
    },
    {
      "midi": 33,
      "hit": false,
      "t": 172652.80799999952,
      "d": 382.6524999999965,
      "v": 105
    },
    {
      "midi": 45,
      "hit": false,
      "t": 172652.80799999952,
      "d": 395.40758333331905,
      "v": 105
    },
    {
      "midi": 47,
      "hit": false,
      "t": 173265.0519999995,
      "d": 216.8364166666579,
      "v": 105
    },
    {
      "midi": 35,
      "hit": false,
      "t": 173265.0519999995,
      "d": 235.96904166665627,
      "v": 105
    },
    {
      "midi": 29,
      "hit": false,
      "t": 173877.29599999948,
      "d": 369.89741666664486,
      "v": 105
    },
    {
      "midi": 41,
      "hit": false,
      "t": 173877.29599999948,
      "d": 382.6524999999674,
      "v": 105
    },
    {
      "midi": 31,
      "hit": false,
      "t": 174489.53999999946,
      "d": 376.2749583333498,
      "v": 105
    },
    {
      "midi": 43,
      "hit": false,
      "t": 174489.53999999946,
      "d": 414.5402083333465,
      "v": 105
    },
    {
      "midi": 33,
      "hit": false,
      "t": 175101.78399999946,
      "d": 369.89741666664486,
      "v": 105
    },
    {
      "midi": 45,
      "hit": false,
      "t": 175101.78399999946,
      "d": 395.40758333331905,
      "v": 105
    },
    {
      "midi": 47,
      "hit": false,
      "t": 175714.02799999944,
      "d": 3482.1377499999944,
      "v": 105
    },
    {
      "midi": 35,
      "hit": false,
      "t": 175714.02799999944,
      "d": 3501.270374999993,
      "v": 105
    },
    {
      "midi": 55,
      "hit": false,
      "t": 180918.10199999943,
      "d": 267.8567500000063,
      "v": 74
    },
    {
      "midi": 76,
      "hit": false,
      "t": 180918.10199999998,
      "d": 223.21395833333372,
      "v": 102
    },
    {
      "midi": 79,
      "hit": false,
      "t": 181224.22399999943,
      "d": 1352.038833333354,
      "v": 86
    },
    {
      "midi": 60,
      "hit": false,
      "t": 181224.22399999943,
      "d": 2244.894666666718,
      "v": 105
    },
    {
      "midi": 76,
      "hit": false,
      "t": 181224.224,
      "d": 223.21395833333372,
      "v": 93
    },
    {
      "midi": 67,
      "hit": false,
      "t": 181530.34599999944,
      "d": 752.5499166666705,
      "v": 74
    },
    {
      "midi": 55,
      "hit": false,
      "t": 181530.34599999984,
      "d": 676.019416666677,
      "v": 92
    },
    {
      "midi": 76,
      "hit": false,
      "t": 181530.346,
      "d": 223.21395833333372,
      "v": 82
    },
    {
      "midi": 72,
      "hit": false,
      "t": 181836.46799999944,
      "d": 695.1520416666754,
      "v": 67
    },
    {
      "midi": 60,
      "hit": false,
      "t": 181836.46799999985,
      "d": 267.8567500000063,
      "v": 92
    },
    {
      "midi": 76,
      "hit": false,
      "t": 181836.468,
      "d": 235.96904166665627,
      "v": 75
    },
    {
      "midi": 74,
      "hit": false,
      "t": 182142.58999999944,
      "d": 408.1626666666707,
      "v": 74
    },
    {
      "midi": 62,
      "hit": false,
      "t": 182142.58999999985,
      "d": 363.51987499999814,
      "v": 92
    },
    {
      "midi": 76,
      "hit": false,
      "t": 182142.59,
      "d": 1186.2227499999863,
      "v": 82
    },
    {
      "midi": 67,
      "hit": false,
      "t": 182448.71199999945,
      "d": 676.019416666677,
      "v": 66
    },
    {
      "midi": 55,
      "hit": false,
      "t": 182448.71199999985,
      "d": 433.6728333333449,
      "v": 92
    },
    {
      "midi": 72,
      "hit": false,
      "t": 182754.83399999945,
      "d": 229.59150000000955,
      "v": 67
    },
    {
      "midi": 67,
      "hit": false,
      "t": 182754.83399999986,
      "d": 414.5402083333465,
      "v": 92
    },
    {
      "midi": 74,
      "hit": false,
      "t": 183060.95599999945,
      "d": 159.4385416666919,
      "v": 74
    },
    {
      "midi": 55,
      "hit": false,
      "t": 183060.95599999986,
      "d": 892.8558333333349,
      "v": 92
    },
    {
      "midi": 76,
      "hit": false,
      "t": 183214.01699999947,
      "d": 223.21395833336283,
      "v": 74
    },
    {
      "midi": 72,
      "hit": false,
      "t": 183367.07799999948,
      "d": 178.57116666666116,
      "v": 67
    },
    {
      "midi": 62,
      "hit": false,
      "t": 183367.07799999986,
      "d": 752.5499166666705,
      "v": 92
    },
    {
      "midi": 72,
      "hit": false,
      "t": 183367.07799999998,
      "d": 255.10166666665464,
      "v": 82
    },
    {
      "midi": 67,
      "hit": false,
      "t": 183520.13899999947,
      "d": 255.10166666668374,
      "v": 66
    },
    {
      "midi": 74,
      "hit": false,
      "t": 183673.1999999995,
      "d": 401.785125000024,
      "v": 100
    },
    {
      "midi": 59,
      "hit": false,
      "t": 183673.1999999995,
      "d": 1536.98754166672,
      "v": 105
    },
    {
      "midi": 47,
      "hit": false,
      "t": 183673.19999999987,
      "d": 1843.109541666694,
      "v": 92
    },
    {
      "midi": 74,
      "hit": false,
      "t": 183673.19999999995,
      "d": 210.45887500001118,
      "v": 93
    },
    {
      "midi": 67,
      "hit": false,
      "t": 183979.3219999995,
      "d": 707.907125000027,
      "v": 74
    },
    {
      "midi": 55,
      "hit": false,
      "t": 183979.32199999987,
      "d": 758.9274583333463,
      "v": 92
    },
    {
      "midi": 74,
      "hit": false,
      "t": 183979.32199999996,
      "d": 191.3262500000128,
      "v": 82
    },
    {
      "midi": 74,
      "hit": false,
      "t": 184285.44399999952,
      "d": 663.2643333333253,
      "v": 74
    },
    {
      "midi": 62,
      "hit": false,
      "t": 184285.44399999987,
      "d": 695.1520416666754,
      "v": 92
    },
    {
      "midi": 74,
      "hit": false,
      "t": 184285.44399999996,
      "d": 255.10166666665464,
      "v": 75
    },
    {
      "midi": 79,
      "hit": false,
      "t": 184591.56599999953,
      "d": 382.6524999999965,
      "v": 86
    },
    {
      "midi": 67,
      "hit": false,
      "t": 184591.56599999988,
      "d": 401.7851249999949,
      "v": 92
    },
    {
      "midi": 79,
      "hit": false,
      "t": 184591.56599999993,
      "d": 567.6012083333335,
      "v": 82
    },
    {
      "midi": 67,
      "hit": false,
      "t": 184897.68799999953,
      "d": 204.08133333333535,
      "v": 66
    },
    {
      "midi": 55,
      "hit": false,
      "t": 184897.68799999988,
      "d": 816.3253333333414,
      "v": 92
    },
    {
      "midi": 74,
      "hit": false,
      "t": 185203.80999999953,
      "d": 369.89741666667396,
      "v": 105
    },
    {
      "midi": 74,
      "hit": false,
      "t": 185203.80999999994,
      "d": 554.8461250000109,
      "v": 93
    },
    {
      "midi": 62,
      "hit": false,
      "t": 185509.93199999988,
      "d": 255.10166666665464,
      "v": 92
    },
    {
      "midi": 59,
      "hit": false,
      "t": 185816.05399999954,
      "d": 210.45887500001118,
      "v": 100
    },
    {
      "midi": 47,
      "hit": false,
      "t": 185816.05399999986,
      "d": 223.21395833333372,
      "v": 92
    },
    {
      "midi": 74,
      "hit": false,
      "t": 185816.05399999995,
      "d": 299.7444583333272,
      "v": 75
    },
    {
      "midi": 72,
      "hit": false,
      "t": 186122.17599999954,
      "d": 344.38724999999977,
      "v": 100
    },
    {
      "midi": 57,
      "hit": false,
      "t": 186122.17599999954,
      "d": 1288.263416666654,
      "v": 100
    },
    {
      "midi": 60,
      "hit": false,
      "t": 186122.17599999986,
      "d": 357.1423333333223,
      "v": 92
    },
    {
      "midi": 45,
      "hit": false,
      "t": 186122.17599999986,
      "d": 1581.6303333333053,
      "v": 92
    },
    {
      "midi": 72,
      "hit": false,
      "t": 186122.17599999995,
      "d": 223.21395833333372,
      "v": 82
    },
    {
      "midi": 65,
      "hit": false,
      "t": 186428.29799999954,
      "d": 669.6418750000012,
      "v": 74
    },
    {
      "midi": 53,
      "hit": false,
      "t": 186428.29799999986,
      "d": 701.5295833333221,
      "v": 92
    },
    {
      "midi": 72,
      "hit": false,
      "t": 186428.29799999995,
      "d": 223.21395833333372,
      "v": 82
    },
    {
      "midi": 72,
      "hit": false,
      "t": 186734.41999999955,
      "d": 542.0910416666593,
      "v": 74
    },
    {
      "midi": 60,
      "hit": false,
      "t": 186734.41999999984,
      "d": 688.7744999999995,
      "v": 92
    },
    {
      "midi": 72,
      "hit": false,
      "t": 186734.41999999995,
      "d": 140.30591666666442,
      "v": 66
    },
    {
      "midi": 77,
      "hit": false,
      "t": 187040.54199999955,
      "d": 350.7647916666465,
      "v": 100
    },
    {
      "midi": 65,
      "hit": false,
      "t": 187040.54199999984,
      "d": 369.89741666667396,
      "v": 92
    },
    {
      "midi": 72,
      "hit": false,
      "t": 187040.54199999996,
      "d": 153.06099999998696,
      "v": 64
    },
    {
      "midi": 71,
      "hit": false,
      "t": 187193.60299999994,
      "d": 184.94870833330788,
      "v": 64
    },
    {
      "midi": 53,
      "hit": false,
      "t": 187346.66399999984,
      "d": 465.5605416666658,
      "v": 92
    },
    {
      "midi": 69,
      "hit": false,
      "t": 187346.66399999993,
      "d": 854.590583333309,
      "v": 75
    },
    {
      "midi": 72,
      "hit": false,
      "t": 187652.78599999953,
      "d": 344.38724999999977,
      "v": 74
    },
    {
      "midi": 60,
      "hit": false,
      "t": 187652.78599999985,
      "d": 542.0910416666593,
      "v": 92
    },
    {
      "midi": 65,
      "hit": false,
      "t": 187958.90799999953,
      "d": 274.234291666653,
      "v": 66
    },
    {
      "midi": 53,
      "hit": false,
      "t": 187958.90799999985,
      "d": 408.1626666666707,
      "v": 92
    },
    {
      "midi": 52,
      "hit": false,
      "t": 188265.0299999995,
      "d": 267.8567500000063,
      "v": 100
    },
    {
      "midi": 43,
      "hit": false,
      "t": 188265.02999999985,
      "d": 223.21395833333372,
      "v": 92
    },
    {
      "midi": 72,
      "hit": false,
      "t": 188265.0299999999,
      "d": 484.6931666666642,
      "v": 102
    },
    {
      "midi": 69,
      "hit": false,
      "t": 188571.1519999995,
      "d": 357.1423333333223,
      "v": 86
    },
    {
      "midi": 72,
      "hit": false,
      "t": 188571.1519999995,
      "d": 382.6524999999965,
      "v": 100
    },
    {
      "midi": 53,
      "hit": false,
      "t": 188571.1519999995,
      "d": 924.7435416666849,
      "v": 100
    },
    {
      "midi": 53,
      "hit": false,
      "t": 188571.15199999986,
      "d": 114.79574999999022,
      "v": 92
    },
    {
      "midi": 60,
      "hit": false,
      "t": 188571.15199999986,
      "d": 318.87708333329647,
      "v": 92
    },
    {
      "midi": 64,
      "hit": false,
      "t": 188571.15199999986,
      "d": 408.1626666666416,
      "v": 92
    },
    {
      "midi": 41,
      "hit": false,
      "t": 188571.15199999986,
      "d": 860.9681249999558,
      "v": 92
    },
    {
      "midi": 65,
      "hit": false,
      "t": 188877.2739999995,
      "d": 1045.916833333351,
      "v": 100
    },
    {
      "midi": 55,
      "hit": false,
      "t": 188877.27399999983,
      "d": 267.8567500000063,
      "v": 92
    },
    {
      "midi": 72,
      "hit": false,
      "t": 188877.27399999992,
      "d": 197.70379166665953,
      "v": 66
    },
    {
      "midi": 69,
      "hit": false,
      "t": 189183.3959999995,
      "d": 835.4579583333398,
      "v": 86
    },
    {
      "midi": 57,
      "hit": false,
      "t": 189183.39599999983,
      "d": 235.96904166665627,
      "v": 92
    },
    {
      "midi": 72,
      "hit": false,
      "t": 189183.39599999992,
      "d": 223.21395833333372,
      "v": 82
    },
    {
      "midi": 72,
      "hit": false,
      "t": 189489.51799999952,
      "d": 567.6012083333335,
      "v": 86
    },
    {
      "midi": 76,
      "hit": false,
      "t": 189489.51799999952,
      "d": 771.6825416666688,
      "v": 100
    },
    {
      "midi": 60,
      "hit": false,
      "t": 189489.5179999998,
      "d": 376.2749583333498,
      "v": 92
    },
    {
      "midi": 76,
      "hit": false,
      "t": 189489.51799999992,
      "d": 484.6931666666642,
      "v": 109
    },
    {
      "midi": 55,
      "hit": false,
      "t": 189795.63999999952,
      "d": 1033.1617500000284,
      "v": 105
    },
    {
      "midi": 64,
      "hit": false,
      "t": 189795.6399999998,
      "d": 554.8461250000109,
      "v": 92
    },
    {
      "midi": 43,
      "hit": false,
      "t": 189795.6399999998,
      "d": 1109.6922499999637,
      "v": 92
    },
    {
      "midi": 65,
      "hit": false,
      "t": 190101.76199999952,
      "d": 108.4182083333435,
      "v": 86
    },
    {
      "midi": 55,
      "hit": false,
      "t": 190101.7619999998,
      "d": 522.9584166666609,
      "v": 92
    },
    {
      "midi": 74,
      "hit": false,
      "t": 190101.76199999993,
      "d": 312.49954166667885,
      "v": 93
    },
    {
      "midi": 67,
      "hit": false,
      "t": 190407.88399999953,
      "d": 605.8664583333593,
      "v": 85
    },
    {
      "midi": 71,
      "hit": false,
      "t": 190407.88399999953,
      "d": 605.8664583333593,
      "v": 105
    },
    {
      "midi": 74,
      "hit": false,
      "t": 190407.88399999953,
      "d": 605.8664583333593,
      "v": 101
    },
    {
      "midi": 59,
      "hit": false,
      "t": 190407.88399999982,
      "d": 382.6524999999674,
      "v": 92
    },
    {
      "midi": 62,
      "hit": false,
      "t": 190407.88399999982,
      "d": 420.91774999996414,
      "v": 92
    },
    {
      "midi": 55,
      "hit": false,
      "t": 190714.0059999998,
      "d": 261.47920833333046,
      "v": 92
    },
    {
      "midi": 76,
      "hit": false,
      "t": 190714.00599999994,
      "d": 216.8364166666579,
      "v": 75
    },
    {
      "midi": 55,
      "hit": false,
      "t": 191020.12799999956,
      "d": 261.47920833335957,
      "v": 74
    },
    {
      "midi": 60,
      "hit": false,
      "t": 191020.12799999956,
      "d": 382.6524999999965,
      "v": 105
    },
    {
      "midi": 64,
      "hit": false,
      "t": 191020.12799999956,
      "d": 401.7851249999949,
      "v": 85
    },
    {
      "midi": 48,
      "hit": false,
      "t": 191020.12799999956,
      "d": 1894.1298750000133,
      "v": 105
    },
    {
      "midi": 60,
      "hit": false,
      "t": 191020.1279999998,
      "d": 382.6524999999965,
      "v": 92
    },
    {
      "midi": 62,
      "hit": false,
      "t": 191020.1279999998,
      "d": 382.6524999999965,
      "v": 92
    },
    {
      "midi": 48,
      "hit": false,
      "t": 191020.1279999998,
      "d": 1881.3747916666907,
      "v": 92
    },
    {
      "midi": 76,
      "hit": false,
      "t": 191020.12799999994,
      "d": 223.21395833333372,
      "v": 102
    },
    {
      "midi": 55,
      "hit": false,
      "t": 191326.24999999956,
      "d": 280.61183333332883,
      "v": 105
    },
    {
      "midi": 55,
      "hit": false,
      "t": 191326.2499999998,
      "d": 739.7948333333479,
      "v": 92
    },
    {
      "midi": 76,
      "hit": false,
      "t": 191326.24999999994,
      "d": 191.3262500000128,
      "v": 75
    },
    {
      "midi": 60,
      "hit": false,
      "t": 191632.37199999957,
      "d": 197.70379166665953,
      "v": 86
    },
    {
      "midi": 60,
      "hit": false,
      "t": 191632.3719999998,
      "d": 682.3969583333237,
      "v": 92
    },
    {
      "midi": 76,
      "hit": false,
      "t": 191632.37199999994,
      "d": 172.19362500001444,
      "v": 82
    },
    {
      "midi": 55,
      "hit": false,
      "t": 191938.49399999957,
      "d": 31.887708333320916,
      "v": 67
    },
    {
      "midi": 62,
      "hit": false,
      "t": 191938.49399999957,
      "d": 235.96904166665627,
      "v": 105
    },
    {
      "midi": 62,
      "hit": false,
      "t": 191938.4939999998,
      "d": 325.2546250000014,
      "v": 92
    },
    {
      "midi": 67,
      "hit": false,
      "t": 191938.4939999998,
      "d": 465.5605416666658,
      "v": 92
    },
    {
      "midi": 76,
      "hit": false,
      "t": 191938.49399999995,
      "d": 210.45887500001118,
      "v": 102
    },
    {
      "midi": 55,
      "hit": false,
      "t": 192244.61599999957,
      "d": 229.59150000000955,
      "v": 86
    },
    {
      "midi": 55,
      "hit": false,
      "t": 192244.6159999998,
      "d": 389.03004166667233,
      "v": 92
    },
    {
      "midi": 55,
      "hit": false,
      "t": 192550.73799999958,
      "d": 133.9283749999886,
      "v": 74
    },
    {
      "midi": 67,
      "hit": false,
      "t": 192550.73799999958,
      "d": 420.91774999999325,
      "v": 105
    },
    {
      "midi": 64,
      "hit": false,
      "t": 192550.7379999998,
      "d": 522.95841666669,
      "v": 92
    },
    {
      "midi": 60,
      "hit": false,
      "t": 192550.7379999998,
      "d": 554.8461250000109,
      "v": 92
    },
    {
      "midi": 55,
      "hit": false,
      "t": 192856.85999999958,
      "d": 216.8364166666579,
      "v": 66
    },
    {
      "midi": 55,
      "hit": false,
      "t": 192856.8599999998,
      "d": 860.9681249999849,
      "v": 92
    },
    {
      "midi": 48,
      "hit": false,
      "t": 193162.98199999958,
      "d": 229.59150000000955,
      "v": 100
    },
    {
      "midi": 60,
      "hit": false,
      "t": 193162.98199999958,
      "d": 255.10166666668374,
      "v": 86
    },
    {
      "midi": 48,
      "hit": false,
      "t": 193162.9819999998,
      "d": 235.96904166665627,
      "v": 92
    },
    {
      "midi": 72,
      "hit": false,
      "t": 193162.98199999996,
      "d": 280.61183333332883,
      "v": 93
    },
    {
      "midi": 55,
      "hit": false,
      "t": 193469.10399999958,
      "d": 133.9283750000177,
      "v": 74
    },
    {
      "midi": 62,
      "hit": false,
      "t": 193469.10399999958,
      "d": 427.2952916666982,
      "v": 100
    },
    {
      "midi": 47,
      "hit": false,
      "t": 193469.10399999958,
      "d": 1881.3747916666907,
      "v": 105
    },
    {
      "midi": 62,
      "hit": false,
      "t": 193469.10399999982,
      "d": 389.0300416666432,
      "v": 92
    },
    {
      "midi": 59,
      "hit": false,
      "t": 193469.10399999982,
      "d": 414.5402083333174,
      "v": 92
    },
    {
      "midi": 47,
      "hit": false,
      "t": 193469.10399999982,
      "d": 1804.8442916666681,
      "v": 92
    },
    {
      "midi": 74,
      "hit": false,
      "t": 193469.10399999996,
      "d": 223.21395833333372,
      "v": 109
    },
    {
      "midi": 55,
      "hit": false,
      "t": 193775.22599999962,
      "d": 242.3465833333321,
      "v": 67
    },
    {
      "midi": 55,
      "hit": false,
      "t": 193775.2259999998,
      "d": 676.019416666677,
      "v": 92
    },
    {
      "midi": 74,
      "hit": false,
      "t": 193775.22599999997,
      "d": 165.8160833333386,
      "v": 75
    },
    {
      "midi": 55,
      "hit": false,
      "t": 194081.34799999962,
      "d": 76.53049999999348,
      "v": 67
    },
    {
      "midi": 62,
      "hit": false,
      "t": 194081.34799999962,
      "d": 210.45887499998207,
      "v": 86
    },
    {
      "midi": 59,
      "hit": false,
      "t": 194081.3479999998,
      "d": 325.2546250000014,
      "v": 92
    },
    {
      "midi": 74,
      "hit": false,
      "t": 194081.34799999997,
      "d": 216.8364166666579,
      "v": 82
    },
    {
      "midi": 67,
      "hit": false,
      "t": 194387.4699999996,
      "d": 146.68345833334024,
      "v": 86
    },
    {
      "midi": 67,
      "hit": false,
      "t": 194387.4699999998,
      "d": 478.31562500001746,
      "v": 92
    },
    {
      "midi": 79,
      "hit": false,
      "t": 194387.46999999997,
      "d": 242.3465833333321,
      "v": 109
    },
    {
      "midi": 74,
      "hit": false,
      "t": 194693.5919999996,
      "d": 140.30591666666442,
      "v": 100
    },
    {
      "midi": 55,
      "hit": false,
      "t": 194693.5919999998,
      "d": 452.80545833334327,
      "v": 92
    },
    {
      "midi": 67,
      "hit": false,
      "t": 194999.7139999996,
      "d": 127.55083333334187,
      "v": 105
    },
    {
      "midi": 62,
      "hit": false,
      "t": 194999.7139999998,
      "d": 414.5402083333465,
      "v": 92
    },
    {
      "midi": 74,
      "hit": false,
      "t": 194999.71399999998,
      "d": 389.03004166667233,
      "v": 82
    },
    {
      "midi": 55,
      "hit": false,
      "t": 195305.8359999998,
      "d": 267.8567500000063,
      "v": 92
    },
    {
      "midi": 47,
      "hit": false,
      "t": 195611.9579999996,
      "d": 184.94870833333698,
      "v": 105
    },
    {
      "midi": 47,
      "hit": false,
      "t": 195611.9579999998,
      "d": 216.8364166666579,
      "v": 92
    },
    {
      "midi": 74,
      "hit": false,
      "t": 195611.95799999998,
      "d": 261.47920833333046,
      "v": 75
    },
    {
      "midi": 53,
      "hit": false,
      "t": 195918.0799999996,
      "d": 133.9283749999886,
      "v": 86
    },
    {
      "midi": 60,
      "hit": false,
      "t": 195918.0799999996,
      "d": 357.1423333332932,
      "v": 100
    },
    {
      "midi": 45,
      "hit": false,
      "t": 195918.0799999996,
      "d": 1862.2421666666633,
      "v": 105
    },
    {
      "midi": 60,
      "hit": false,
      "t": 195918.0799999998,
      "d": 363.51987499999814,
      "v": 92
    },
    {
      "midi": 45,
      "hit": false,
      "t": 195918.0799999998,
      "d": 1951.5277499999793,
      "v": 92
    },
    {
      "midi": 72,
      "hit": false,
      "t": 195918.08,
      "d": 204.08133333333535,
      "v": 93
    },
    {
      "midi": 53,
      "hit": false,
      "t": 196224.20199999958,
      "d": 223.21395833333372,
      "v": 74
    },
    {
      "midi": 53,
      "hit": false,
      "t": 196224.20199999982,
      "d": 554.8461249999818,
      "v": 92
    },
    {
      "midi": 72,
      "hit": false,
      "t": 196224.202,
      "d": 159.4385416666628,
      "v": 75
    },
    {
      "midi": 53,
      "hit": false,
      "t": 196530.3239999996,
      "d": 89.28558333334513,
      "v": 62
    },
    {
      "midi": 60,
      "hit": false,
      "t": 196530.3239999996,
      "d": 89.28558333334513,
      "v": 74
    },
    {
      "midi": 72,
      "hit": false,
      "t": 196530.324,
      "d": 153.06099999998696,
      "v": 102
    },
    {
      "midi": 60,
      "hit": false,
      "t": 196836.4459999996,
      "d": 286.98937500000466,
      "v": 105
    },
    {
      "midi": 53,
      "hit": false,
      "t": 196836.4459999996,
      "d": 344.38724999999977,
      "v": 86
    },
    {
      "midi": 65,
      "hit": false,
      "t": 196836.4459999998,
      "d": 261.47920833333046,
      "v": 92
    },
    {
      "midi": 60,
      "hit": false,
      "t": 196836.4459999998,
      "d": 382.6524999999965,
      "v": 92
    },
    {
      "midi": 72,
      "hit": false,
      "t": 196836.44599999997,
      "d": 140.30591666666442,
      "v": 102
    },
    {
      "midi": 71,
      "hit": false,
      "t": 196989.50699999995,
      "d": 178.57116666666116,
      "v": 75
    },
    {
      "midi": 53,
      "hit": false,
      "t": 197142.5679999998,
      "d": 542.0910416666593,
      "v": 92
    },
    {
      "midi": 69,
      "hit": false,
      "t": 197142.56799999994,
      "d": 535.7135000000126,
      "v": 93
    },
    {
      "midi": 55,
      "hit": false,
      "t": 197448.6899999996,
      "d": 229.59150000000955,
      "v": 105
    },
    {
      "midi": 57,
      "hit": false,
      "t": 197754.8119999996,
      "d": 223.21395833333372,
      "v": 100
    },
    {
      "midi": 72,
      "hit": false,
      "t": 197754.81199999995,
      "d": 114.79574999999022,
      "v": 66
    },
    {
      "midi": 60,
      "hit": false,
      "t": 198060.9339999996,
      "d": 886.4782916666591,
      "v": 100
    },
    {
      "midi": 57,
      "hit": false,
      "t": 198060.9339999998,
      "d": 146.68345833334024,
      "v": 92
    },
    {
      "midi": 72,
      "hit": false,
      "t": 198060.93399999995,
      "d": 299.7444583333272,
      "v": 102
    },
    {
      "midi": 59,
      "hit": false,
      "t": 198213.99499999982,
      "d": 216.8364166666579,
      "v": 92
    },
    {
      "midi": 57,
      "hit": false,
      "t": 198367.0559999996,
      "d": 446.42791666666744,
      "v": 86
    },
    {
      "midi": 41,
      "hit": false,
      "t": 198367.0559999996,
      "d": 688.7744999999704,
      "v": 105
    },
    {
      "midi": 53,
      "hit": false,
      "t": 198367.0559999996,
      "d": 778.0600833333156,
      "v": 74
    },
    {
      "midi": 60,
      "hit": false,
      "t": 198367.0559999998,
      "d": 873.7232083333074,
      "v": 92
    },
    {
      "midi": 41,
      "hit": false,
      "t": 198367.0559999998,
      "d": 1020.4066666666477,
      "v": 92
    },
    {
      "midi": 72,
      "hit": false,
      "t": 198673.17799999996,
      "d": 191.3262500000128,
      "v": 82
    },
    {
      "midi": 57,
      "hit": false,
      "t": 198979.29999999958,
      "d": 82.9080416666693,
      "v": 67
    },
    {
      "midi": 53,
      "hit": false,
      "t": 198979.29999999978,
      "d": 465.5605416666658,
      "v": 92
    },
    {
      "midi": 72,
      "hit": false,
      "t": 198979.29999999996,
      "d": 172.19362500001444,
      "v": 93
    },
    {
      "midi": 53,
      "hit": false,
      "t": 199285.42199999958,
      "d": 465.5605416666658,
      "v": 67
    },
    {
      "midi": 60,
      "hit": false,
      "t": 199285.42199999958,
      "d": 624.9990833332995,
      "v": 100
    },
    {
      "midi": 64,
      "hit": false,
      "t": 199285.42199999958,
      "d": 886.47829166663,
      "v": 86
    },
    {
      "midi": 57,
      "hit": false,
      "t": 199285.4219999998,
      "d": 146.68345833334024,
      "v": 92
    },
    {
      "midi": 76,
      "hit": false,
      "t": 199285.42199999996,
      "d": 286.98937500000466,
      "v": 93
    },
    {
      "midi": 43,
      "hit": false,
      "t": 199591.5439999996,
      "d": 1198.9778333333088,
      "v": 105
    },
    {
      "midi": 53,
      "hit": false,
      "t": 199591.5439999998,
      "d": 293.3669166666805,
      "v": 92
    },
    {
      "midi": 60,
      "hit": false,
      "t": 199591.5439999998,
      "d": 510.2033333333675,
      "v": 92
    },
    {
      "midi": 43,
      "hit": false,
      "t": 199591.5439999998,
      "d": 778.0600833333738,
      "v": 92
    },
    {
      "midi": 55,
      "hit": false,
      "t": 199897.66599999956,
      "d": 516.5808749999851,
      "v": 86
    },
    {
      "midi": 74,
      "hit": false,
      "t": 199897.66599999997,
      "d": 184.94870833333698,
      "v": 102
    },
    {
      "midi": 59,
      "hit": false,
      "t": 200203.78799999953,
      "d": 395.40758333334816,
      "v": 66
    },
    {
      "midi": 62,
      "hit": false,
      "t": 200203.78799999953,
      "d": 516.5808750000142,
      "v": 86
    },
    {
      "midi": 53,
      "hit": false,
      "t": 200203.78799999983,
      "d": 140.30591666666442,
      "v": 92
    },
    {
      "midi": 59,
      "hit": false,
      "t": 200203.78799999983,
      "d": 369.89741666667396,
      "v": 92
    },
    {
      "midi": 53,
      "hit": false,
      "t": 200509.90999999983,
      "d": 114.79574999999022,
      "v": 92
    },
    {
      "midi": 79,
      "hit": false,
      "t": 200509.90999999997,
      "d": 159.4385416666628,
      "v": 75
    },
    {
      "midi": 76,
      "hit": false,
      "t": 200509.90999999997,
      "d": 178.57116666666116,
      "v": 75
    },
    {
      "midi": 55,
      "hit": false,
      "t": 200816.03199999957,
      "d": 82.9080416666693,
      "v": 74
    },
    {
      "midi": 60,
      "hit": false,
      "t": 200816.03199999957,
      "d": 382.6524999999965,
      "v": 105
    },
    {
      "midi": 64,
      "hit": false,
      "t": 200816.03199999957,
      "d": 401.7851249999949,
      "v": 100
    },
    {
      "midi": 48,
      "hit": false,
      "t": 200816.03199999957,
      "d": 1894.1298750000133,
      "v": 105
    },
    {
      "midi": 62,
      "hit": false,
      "t": 200816.03199999983,
      "d": 382.6524999999965,
      "v": 92
    },
    {
      "midi": 55,
      "hit": false,
      "t": 201122.15399999957,
      "d": 280.61183333332883,
      "v": 105
    },
    {
      "midi": 55,
      "hit": false,
      "t": 201122.15399999983,
      "d": 739.7948333333479,
      "v": 92
    },
    {
      "midi": 79,
      "hit": false,
      "t": 201122.15399999998,
      "d": 146.68345833334024,
      "v": 75
    },
    {
      "midi": 76,
      "hit": false,
      "t": 201122.15399999998,
      "d": 153.06100000001607,
      "v": 82
    },
    {
      "midi": 60,
      "hit": false,
      "t": 201428.27599999958,
      "d": 197.70379166665953,
      "v": 86
    },
    {
      "midi": 60,
      "hit": false,
      "t": 201428.27599999984,
      "d": 682.3969583333237,
      "v": 92
    },
    {
      "midi": 76,
      "hit": false,
      "t": 201428.27599999998,
      "d": 140.30591666666442,
      "v": 82
    },
    {
      "midi": 79,
      "hit": false,
      "t": 201428.27599999998,
      "d": 146.68345833334024,
      "v": 82
    },
    {
      "midi": 55,
      "hit": false,
      "t": 201734.39799999958,
      "d": 31.887708333320916,
      "v": 67
    },
    {
      "midi": 62,
      "hit": false,
      "t": 201734.39799999958,
      "d": 235.96904166665627,
      "v": 105
    },
    {
      "midi": 62,
      "hit": false,
      "t": 201734.39799999984,
      "d": 325.2546250000014,
      "v": 92
    },
    {
      "midi": 67,
      "hit": false,
      "t": 201734.39799999984,
      "d": 465.5605416666658,
      "v": 92
    },
    {
      "midi": 76,
      "hit": false,
      "t": 201734.398,
      "d": 153.06099999998696,
      "v": 93
    },
    {
      "midi": 79,
      "hit": false,
      "t": 201734.398,
      "d": 153.06099999998696,
      "v": 102
    },
    {
      "midi": 55,
      "hit": false,
      "t": 202040.51999999958,
      "d": 229.59150000000955,
      "v": 86
    },
    {
      "midi": 55,
      "hit": false,
      "t": 202040.51999999984,
      "d": 389.03004166667233,
      "v": 92
    },
    {
      "midi": 55,
      "hit": false,
      "t": 202346.64199999959,
      "d": 133.9283749999886,
      "v": 74
    },
    {
      "midi": 67,
      "hit": false,
      "t": 202346.64199999959,
      "d": 420.91774999999325,
      "v": 105
    },
    {
      "midi": 64,
      "hit": false,
      "t": 202346.64199999985,
      "d": 522.9584166666609,
      "v": 92
    },
    {
      "midi": 60,
      "hit": false,
      "t": 202346.64199999985,
      "d": 554.8461249999818,
      "v": 92
    },
    {
      "midi": 55,
      "hit": false,
      "t": 202652.7639999996,
      "d": 216.8364166666579,
      "v": 66
    },
    {
      "midi": 55,
      "hit": false,
      "t": 202652.76399999985,
      "d": 860.9681249999558,
      "v": 92
    },
    {
      "midi": 48,
      "hit": false,
      "t": 202958.8859999996,
      "d": 229.59150000000955,
      "v": 100
    },
    {
      "midi": 60,
      "hit": false,
      "t": 202958.8859999996,
      "d": 255.10166666668374,
      "v": 86
    },
    {
      "midi": 48,
      "hit": false,
      "t": 202958.88599999982,
      "d": 235.96904166665627,
      "v": 92
    },
    {
      "midi": 72,
      "hit": false,
      "t": 202958.88599999997,
      "d": 197.70379166665953,
      "v": 70
    },
    {
      "midi": 79,
      "hit": false,
      "t": 202958.88599999997,
      "d": 223.21395833333372,
      "v": 82
    },
    {
      "midi": 55,
      "hit": false,
      "t": 203265.0079999996,
      "d": 133.9283750000177,
      "v": 74
    },
    {
      "midi": 62,
      "hit": false,
      "t": 203265.0079999996,
      "d": 427.2952916666982,
      "v": 100
    },
    {
      "midi": 47,
      "hit": false,
      "t": 203265.0079999996,
      "d": 1881.3747916666907,
      "v": 105
    },
    {
      "midi": 62,
      "hit": false,
      "t": 203265.00799999983,
      "d": 389.0300416666432,
      "v": 92
    },
    {
      "midi": 59,
      "hit": false,
      "t": 203265.00799999983,
      "d": 414.5402083333174,
      "v": 92
    },
    {
      "midi": 47,
      "hit": false,
      "t": 203265.00799999983,
      "d": 1804.8442916666681,
      "v": 92
    },
    {
      "midi": 74,
      "hit": false,
      "t": 203265.00799999997,
      "d": 165.8160833333386,
      "v": 102
    },
    {
      "midi": 79,
      "hit": false,
      "t": 203265.00799999997,
      "d": 178.57116666666116,
      "v": 93
    },
    {
      "midi": 55,
      "hit": false,
      "t": 203571.12999999963,
      "d": 242.3465833333321,
      "v": 67
    },
    {
      "midi": 55,
      "hit": false,
      "t": 203571.1299999998,
      "d": 676.019416666677,
      "v": 92
    },
    {
      "midi": 74,
      "hit": false,
      "t": 203571.12999999998,
      "d": 153.06099999998696,
      "v": 82
    },
    {
      "midi": 79,
      "hit": false,
      "t": 203571.12999999998,
      "d": 159.4385416666628,
      "v": 82
    },
    {
      "midi": 55,
      "hit": false,
      "t": 203877.25199999963,
      "d": 76.53049999999348,
      "v": 67
    },
    {
      "midi": 62,
      "hit": false,
      "t": 203877.25199999963,
      "d": 210.45887499998207,
      "v": 86
    },
    {
      "midi": 59,
      "hit": false,
      "t": 203877.2519999998,
      "d": 325.2546250000014,
      "v": 92
    },
    {
      "midi": 74,
      "hit": false,
      "t": 203877.25199999998,
      "d": 133.9283749999886,
      "v": 82
    },
    {
      "midi": 79,
      "hit": false,
      "t": 203877.25199999998,
      "d": 165.8160833333095,
      "v": 93
    },
    {
      "midi": 67,
      "hit": false,
      "t": 204183.3739999996,
      "d": 146.68345833334024,
      "v": 86
    },
    {
      "midi": 67,
      "hit": false,
      "t": 204183.3739999998,
      "d": 478.31562500001746,
      "v": 92
    },
    {
      "midi": 81,
      "hit": false,
      "t": 204183.37399999995,
      "d": 401.7851249999949,
      "v": 75
    },
    {
      "midi": 74,
      "hit": false,
      "t": 204489.4959999996,
      "d": 140.30591666666442,
      "v": 100
    },
    {
      "midi": 55,
      "hit": false,
      "t": 204489.4959999998,
      "d": 452.80545833334327,
      "v": 92
    },
    {
      "midi": 67,
      "hit": false,
      "t": 204795.6179999996,
      "d": 127.55083333334187,
      "v": 105
    },
    {
      "midi": 62,
      "hit": false,
      "t": 204795.6179999998,
      "d": 414.5402083333465,
      "v": 92
    },
    {
      "midi": 79,
      "hit": false,
      "t": 204795.61799999996,
      "d": 338.00970833332394,
      "v": 102
    },
    {
      "midi": 74,
      "hit": false,
      "t": 204795.61799999996,
      "d": 363.51987499999814,
      "v": 82
    },
    {
      "midi": 55,
      "hit": false,
      "t": 205101.73999999982,
      "d": 267.8567500000063,
      "v": 92
    },
    {
      "midi": 47,
      "hit": false,
      "t": 205407.86199999962,
      "d": 184.94870833333698,
      "v": 105
    },
    {
      "midi": 47,
      "hit": false,
      "t": 205407.86199999982,
      "d": 216.8364166666579,
      "v": 92
    },
    {
      "midi": 53,
      "hit": false,
      "t": 205713.98399999962,
      "d": 133.9283749999886,
      "v": 86
    },
    {
      "midi": 60,
      "hit": false,
      "t": 205713.98399999962,
      "d": 357.1423333332932,
      "v": 100
    },
    {
      "midi": 45,
      "hit": false,
      "t": 205713.98399999962,
      "d": 1862.2421666666633,
      "v": 105
    },
    {
      "midi": 60,
      "hit": false,
      "t": 205713.98399999982,
      "d": 363.51987499999814,
      "v": 92
    },
    {
      "midi": 45,
      "hit": false,
      "t": 205713.98399999982,
      "d": 1951.5277499999793,
      "v": 92
    },
    {
      "midi": 77,
      "hit": false,
      "t": 205713.98399999997,
      "d": 197.70379166665953,
      "v": 102
    },
    {
      "midi": 72,
      "hit": false,
      "t": 205713.98399999997,
      "d": 216.8364166666579,
      "v": 93
    },
    {
      "midi": 53,
      "hit": false,
      "t": 206020.1059999996,
      "d": 223.21395833333372,
      "v": 74
    },
    {
      "midi": 53,
      "hit": false,
      "t": 206020.10599999983,
      "d": 554.8461249999818,
      "v": 92
    },
    {
      "midi": 77,
      "hit": false,
      "t": 206020.10599999997,
      "d": 82.9080416666693,
      "v": 64
    },
    {
      "midi": 72,
      "hit": false,
      "t": 206020.10599999997,
      "d": 127.55083333334187,
      "v": 75
    },
    {
      "midi": 53,
      "hit": false,
      "t": 206326.2279999996,
      "d": 89.28558333334513,
      "v": 62
    },
    {
      "midi": 60,
      "hit": false,
      "t": 206326.2279999996,
      "d": 89.28558333334513,
      "v": 74
    },
    {
      "midi": 77,
      "hit": false,
      "t": 206326.22799999997,
      "d": 159.4385416666628,
      "v": 93
    },
    {
      "midi": 60,
      "hit": false,
      "t": 206632.3499999996,
      "d": 286.98937500000466,
      "v": 105
    },
    {
      "midi": 53,
      "hit": false,
      "t": 206632.3499999996,
      "d": 344.38724999999977,
      "v": 86
    },
    {
      "midi": 65,
      "hit": false,
      "t": 206632.3499999998,
      "d": 261.47920833333046,
      "v": 92
    },
    {
      "midi": 60,
      "hit": false,
      "t": 206632.3499999998,
      "d": 382.6524999999965,
      "v": 92
    },
    {
      "midi": 77,
      "hit": false,
      "t": 206632.34999999998,
      "d": 146.68345833334024,
      "v": 82
    },
    {
      "midi": 72,
      "hit": false,
      "t": 206632.34999999998,
      "d": 153.06100000001607,
      "v": 109
    },
    {
      "midi": 71,
      "hit": false,
      "t": 206785.411,
      "d": 114.79574999999022,
      "v": 82
    },
    {
      "midi": 53,
      "hit": false,
      "t": 206938.4719999998,
      "d": 542.0910416666593,
      "v": 92
    },
    {
      "midi": 69,
      "hit": false,
      "t": 206938.47199999998,
      "d": 363.51987499999814,
      "v": 82
    },
    {
      "midi": 55,
      "hit": false,
      "t": 207244.5939999996,
      "d": 229.59150000000955,
      "v": 105
    },
    {
      "midi": 57,
      "hit": false,
      "t": 207550.7159999996,
      "d": 223.21395833333372,
      "v": 100
    },
    {
      "midi": 72,
      "hit": false,
      "t": 207550.716,
      "d": 95.66312499999185,
      "v": 61
    },
    {
      "midi": 60,
      "hit": false,
      "t": 207856.8379999996,
      "d": 886.4782916666591,
      "v": 100
    },
    {
      "midi": 57,
      "hit": false,
      "t": 207856.8379999998,
      "d": 146.68345833334024,
      "v": 92
    },
    {
      "midi": 72,
      "hit": false,
      "t": 207856.838,
      "d": 440.0503749999916,
      "v": 93
    },
    {
      "midi": 77,
      "hit": false,
      "t": 207856.838,
      "d": 452.80545833331416,
      "v": 93
    },
    {
      "midi": 59,
      "hit": false,
      "t": 208009.89899999983,
      "d": 216.8364166666579,
      "v": 92
    },
    {
      "midi": 57,
      "hit": false,
      "t": 208162.9599999996,
      "d": 446.42791666666744,
      "v": 86
    },
    {
      "midi": 41,
      "hit": false,
      "t": 208162.9599999996,
      "d": 688.7744999999704,
      "v": 105
    },
    {
      "midi": 53,
      "hit": false,
      "t": 208162.9599999996,
      "d": 778.0600833333156,
      "v": 74
    },
    {
      "midi": 60,
      "hit": false,
      "t": 208162.95999999982,
      "d": 873.7232083333074,
      "v": 92
    },
    {
      "midi": 41,
      "hit": false,
      "t": 208162.95999999982,
      "d": 1020.4066666666477,
      "v": 92
    },
    {
      "midi": 72,
      "hit": false,
      "t": 208469.08199999997,
      "d": 140.30591666666442,
      "v": 82
    },
    {
      "midi": 77,
      "hit": false,
      "t": 208469.08199999997,
      "d": 140.30591666666442,
      "v": 75
    },
    {
      "midi": 57,
      "hit": false,
      "t": 208775.2039999996,
      "d": 82.9080416666693,
      "v": 67
    },
    {
      "midi": 53,
      "hit": false,
      "t": 208775.2039999998,
      "d": 465.5605416666658,
      "v": 92
    },
    {
      "midi": 77,
      "hit": false,
      "t": 208775.20399999997,
      "d": 70.15295833334676,
      "v": 70
    },
    {
      "midi": 72,
      "hit": false,
      "t": 208775.20399999997,
      "d": 89.28558333334513,
      "v": 75
    },
    {
      "midi": 53,
      "hit": false,
      "t": 209081.3259999996,
      "d": 465.5605416666658,
      "v": 67
    },
    {
      "midi": 60,
      "hit": false,
      "t": 209081.3259999996,
      "d": 624.9990833332995,
      "v": 100
    },
    {
      "midi": 64,
      "hit": false,
      "t": 209081.3259999996,
      "d": 886.47829166663,
      "v": 86
    },
    {
      "midi": 57,
      "hit": false,
      "t": 209081.3259999998,
      "d": 146.68345833334024,
      "v": 92
    },
    {
      "midi": 76,
      "hit": false,
      "t": 209081.32599999997,
      "d": 363.51987499999814,
      "v": 93
    },
    {
      "midi": 81,
      "hit": false,
      "t": 209081.32599999997,
      "d": 414.5402083333174,
      "v": 82
    },
    {
      "midi": 43,
      "hit": false,
      "t": 209387.4479999996,
      "d": 1198.9778333333088,
      "v": 105
    },
    {
      "midi": 53,
      "hit": false,
      "t": 209387.4479999998,
      "d": 293.3669166666805,
      "v": 92
    },
    {
      "midi": 60,
      "hit": false,
      "t": 209387.4479999998,
      "d": 510.2033333333675,
      "v": 92
    },
    {
      "midi": 43,
      "hit": false,
      "t": 209387.4479999998,
      "d": 778.0600833333738,
      "v": 92
    },
    {
      "midi": 55,
      "hit": false,
      "t": 209693.56999999957,
      "d": 516.5808749999851,
      "v": 86
    },
    {
      "midi": 79,
      "hit": false,
      "t": 209693.56999999995,
      "d": 197.70379166665953,
      "v": 93
    },
    {
      "midi": 74,
      "hit": false,
      "t": 209693.56999999995,
      "d": 229.59149999998044,
      "v": 82
    },
    {
      "midi": 59,
      "hit": false,
      "t": 209999.69199999954,
      "d": 395.40758333334816,
      "v": 66
    },
    {
      "midi": 62,
      "hit": false,
      "t": 209999.69199999954,
      "d": 516.5808750000142,
      "v": 86
    },
    {
      "midi": 53,
      "hit": false,
      "t": 209999.69199999984,
      "d": 140.30591666666442,
      "v": 92
    },
    {
      "midi": 59,
      "hit": false,
      "t": 209999.69199999984,
      "d": 369.89741666667396,
      "v": 92
    },
    {
      "midi": 55,
      "hit": false,
      "t": 210305.81399999955,
      "d": 299.7444583333563,
      "v": 66
    },
    {
      "midi": 53,
      "hit": false,
      "t": 210305.81399999984,
      "d": 114.79574999999022,
      "v": 92
    },
    {
      "midi": 74,
      "hit": false,
      "t": 210305.81399999993,
      "d": 51.020333333319286,
      "v": 64
    },
    {
      "midi": 76,
      "hit": false,
      "t": 210305.81399999993,
      "d": 102.04066666663857,
      "v": 66
    },
    {
      "midi": 55,
      "hit": false,
      "t": 210611.93599999958,
      "d": 261.47920833335957,
      "v": 74
    },
    {
      "midi": 60,
      "hit": false,
      "t": 210611.93599999958,
      "d": 382.6524999999965,
      "v": 105
    },
    {
      "midi": 64,
      "hit": false,
      "t": 210611.93599999958,
      "d": 401.7851249999949,
      "v": 100
    },
    {
      "midi": 48,
      "hit": false,
      "t": 210611.93599999958,
      "d": 1894.1298750000133,
      "v": 105
    },
    {
      "midi": 60,
      "hit": false,
      "t": 210611.93599999984,
      "d": 382.6524999999965,
      "v": 92
    },
    {
      "midi": 62,
      "hit": false,
      "t": 210611.93599999984,
      "d": 382.6524999999965,
      "v": 92
    },
    {
      "midi": 48,
      "hit": false,
      "t": 210611.93599999984,
      "d": 1881.3747916666907,
      "v": 92
    },
    {
      "midi": 76,
      "hit": false,
      "t": 210611.9359999999,
      "d": 197.70379166665953,
      "v": 82
    },
    {
      "midi": 79,
      "hit": false,
      "t": 210611.9359999999,
      "d": 204.08133333333535,
      "v": 93
    },
    {
      "midi": 55,
      "hit": false,
      "t": 210918.05799999958,
      "d": 280.61183333332883,
      "v": 105
    },
    {
      "midi": 55,
      "hit": false,
      "t": 210918.05799999984,
      "d": 739.7948333333479,
      "v": 92
    },
    {
      "midi": 79,
      "hit": false,
      "t": 210918.0579999999,
      "d": 165.8160833333386,
      "v": 75
    },
    {
      "midi": 76,
      "hit": false,
      "t": 210918.0579999999,
      "d": 191.3262500000128,
      "v": 75
    },
    {
      "midi": 60,
      "hit": false,
      "t": 211224.1799999996,
      "d": 197.70379166665953,
      "v": 86
    },
    {
      "midi": 60,
      "hit": false,
      "t": 211224.17999999985,
      "d": 682.3969583333237,
      "v": 92
    },
    {
      "midi": 79,
      "hit": false,
      "t": 211224.1799999999,
      "d": 146.68345833334024,
      "v": 82
    },
    {
      "midi": 76,
      "hit": false,
      "t": 211224.1799999999,
      "d": 159.4385416666628,
      "v": 82
    },
    {
      "midi": 55,
      "hit": false,
      "t": 211530.3019999996,
      "d": 31.887708333320916,
      "v": 67
    },
    {
      "midi": 62,
      "hit": false,
      "t": 211530.3019999996,
      "d": 235.96904166665627,
      "v": 105
    },
    {
      "midi": 62,
      "hit": false,
      "t": 211530.30199999985,
      "d": 325.2546250000014,
      "v": 92
    },
    {
      "midi": 67,
      "hit": false,
      "t": 211530.30199999985,
      "d": 465.5605416666658,
      "v": 92
    },
    {
      "midi": 76,
      "hit": false,
      "t": 211530.3019999999,
      "d": 178.57116666666116,
      "v": 102
    },
    {
      "midi": 79,
      "hit": false,
      "t": 211530.3019999999,
      "d": 178.57116666666116,
      "v": 102
    },
    {
      "midi": 55,
      "hit": false,
      "t": 211836.4239999996,
      "d": 229.59150000000955,
      "v": 86
    },
    {
      "midi": 55,
      "hit": false,
      "t": 211836.42399999985,
      "d": 389.03004166667233,
      "v": 92
    },
    {
      "midi": 55,
      "hit": false,
      "t": 212142.5459999996,
      "d": 133.9283749999886,
      "v": 74
    },
    {
      "midi": 67,
      "hit": false,
      "t": 212142.5459999996,
      "d": 420.91774999999325,
      "v": 105
    },
    {
      "midi": 64,
      "hit": false,
      "t": 212142.54599999986,
      "d": 522.95841666669,
      "v": 92
    },
    {
      "midi": 60,
      "hit": false,
      "t": 212142.54599999986,
      "d": 554.8461250000109,
      "v": 92
    },
    {
      "midi": 55,
      "hit": false,
      "t": 212448.6679999996,
      "d": 216.8364166666579,
      "v": 66
    },
    {
      "midi": 55,
      "hit": false,
      "t": 212448.66799999986,
      "d": 860.9681249999849,
      "v": 92
    },
    {
      "midi": 48,
      "hit": false,
      "t": 212754.7899999996,
      "d": 229.59150000000955,
      "v": 100
    },
    {
      "midi": 60,
      "hit": false,
      "t": 212754.7899999996,
      "d": 255.10166666668374,
      "v": 86
    },
    {
      "midi": 48,
      "hit": false,
      "t": 212754.78999999986,
      "d": 235.96904166665627,
      "v": 92
    },
    {
      "midi": 72,
      "hit": false,
      "t": 212754.7899999999,
      "d": 184.94870833333698,
      "v": 82
    },
    {
      "midi": 55,
      "hit": false,
      "t": 213060.9119999996,
      "d": 133.9283750000177,
      "v": 74
    },
    {
      "midi": 62,
      "hit": false,
      "t": 213060.9119999996,
      "d": 427.2952916666982,
      "v": 100
    },
    {
      "midi": 47,
      "hit": false,
      "t": 213060.9119999996,
      "d": 1881.3747916666907,
      "v": 105
    },
    {
      "midi": 62,
      "hit": false,
      "t": 213060.91199999987,
      "d": 389.0300416666432,
      "v": 92
    },
    {
      "midi": 59,
      "hit": false,
      "t": 213060.91199999987,
      "d": 414.5402083333174,
      "v": 92
    },
    {
      "midi": 47,
      "hit": false,
      "t": 213060.91199999987,
      "d": 1804.8442916666681,
      "v": 92
    },
    {
      "midi": 74,
      "hit": false,
      "t": 213060.9119999999,
      "d": 197.70379166665953,
      "v": 102
    },
    {
      "midi": 79,
      "hit": false,
      "t": 213060.9119999999,
      "d": 197.70379166665953,
      "v": 82
    },
    {
      "midi": 55,
      "hit": false,
      "t": 213367.03399999964,
      "d": 242.3465833333321,
      "v": 67
    },
    {
      "midi": 55,
      "hit": false,
      "t": 213367.03399999984,
      "d": 676.019416666677,
      "v": 92
    },
    {
      "midi": 79,
      "hit": false,
      "t": 213367.0339999999,
      "d": 133.9283749999886,
      "v": 70
    },
    {
      "midi": 74,
      "hit": false,
      "t": 213367.0339999999,
      "d": 146.68345833331114,
      "v": 75
    },
    {
      "midi": 55,
      "hit": false,
      "t": 213673.15599999964,
      "d": 76.53049999999348,
      "v": 67
    },
    {
      "midi": 62,
      "hit": false,
      "t": 213673.15599999964,
      "d": 210.45887499998207,
      "v": 86
    },
    {
      "midi": 59,
      "hit": false,
      "t": 213673.15599999984,
      "d": 325.2546250000014,
      "v": 92
    },
    {
      "midi": 74,
      "hit": false,
      "t": 213673.15599999987,
      "d": 146.68345833334024,
      "v": 82
    },
    {
      "midi": 79,
      "hit": false,
      "t": 213673.15599999987,
      "d": 153.06100000001607,
      "v": 82
    },
    {
      "midi": 67,
      "hit": false,
      "t": 213979.2779999996,
      "d": 146.68345833334024,
      "v": 86
    },
    {
      "midi": 67,
      "hit": false,
      "t": 213979.27799999985,
      "d": 478.31562500001746,
      "v": 92
    },
    {
      "midi": 81,
      "hit": false,
      "t": 213979.27799999987,
      "d": 318.8770833333256,
      "v": 93
    },
    {
      "midi": 74,
      "hit": false,
      "t": 213979.27799999987,
      "d": 331.6321666666481,
      "v": 70
    },
    {
      "midi": 74,
      "hit": false,
      "t": 214285.39999999962,
      "d": 140.30591666666442,
      "v": 100
    },
    {
      "midi": 55,
      "hit": false,
      "t": 214285.39999999985,
      "d": 452.80545833334327,
      "v": 92
    },
    {
      "midi": 67,
      "hit": false,
      "t": 214591.52199999962,
      "d": 127.55083333334187,
      "v": 105
    },
    {
      "midi": 62,
      "hit": false,
      "t": 214591.52199999985,
      "d": 414.5402083333465,
      "v": 92
    },
    {
      "midi": 74,
      "hit": false,
      "t": 214591.52199999985,
      "d": 197.70379166665953,
      "v": 93
    },
    {
      "midi": 79,
      "hit": false,
      "t": 214591.52199999985,
      "d": 248.7241249999788,
      "v": 93
    },
    {
      "midi": 55,
      "hit": false,
      "t": 214897.64399999985,
      "d": 267.8567500000063,
      "v": 92
    },
    {
      "midi": 47,
      "hit": false,
      "t": 215203.76599999962,
      "d": 184.94870833333698,
      "v": 105
    },
    {
      "midi": 72,
      "hit": false,
      "t": 215203.76599999983,
      "d": 159.4385416666628,
      "v": 93
    },
    {
      "midi": 79,
      "hit": false,
      "t": 215203.76599999983,
      "d": 178.57116666666116,
      "v": 82
    },
    {
      "midi": 47,
      "hit": false,
      "t": 215203.76599999986,
      "d": 216.8364166666579,
      "v": 92
    },
    {
      "midi": 53,
      "hit": false,
      "t": 215509.88799999963,
      "d": 133.9283749999886,
      "v": 86
    },
    {
      "midi": 60,
      "hit": false,
      "t": 215509.88799999963,
      "d": 357.1423333332932,
      "v": 100
    },
    {
      "midi": 45,
      "hit": false,
      "t": 215509.88799999963,
      "d": 1862.2421666666633,
      "v": 105
    },
    {
      "midi": 77,
      "hit": false,
      "t": 215509.88799999983,
      "d": 172.19362500001444,
      "v": 75
    },
    {
      "midi": 72,
      "hit": false,
      "t": 215509.88799999983,
      "d": 178.57116666669026,
      "v": 75
    },
    {
      "midi": 60,
      "hit": false,
      "t": 215509.88799999986,
      "d": 363.51987499999814,
      "v": 92
    },
    {
      "midi": 45,
      "hit": false,
      "t": 215509.88799999986,
      "d": 1951.5277499999793,
      "v": 92
    },
    {
      "midi": 53,
      "hit": false,
      "t": 215816.0099999996,
      "d": 223.21395833333372,
      "v": 74
    },
    {
      "midi": 53,
      "hit": false,
      "t": 215816.00999999986,
      "d": 554.8461249999818,
      "v": 92
    },
    {
      "midi": 77,
      "hit": false,
      "t": 215816.00999999986,
      "d": 133.9283749999886,
      "v": 75
    },
    {
      "midi": 72,
      "hit": false,
      "t": 215816.00999999986,
      "d": 178.57116666666116,
      "v": 75
    },
    {
      "midi": 53,
      "hit": false,
      "t": 216122.1319999996,
      "d": 89.28558333334513,
      "v": 62
    },
    {
      "midi": 60,
      "hit": false,
      "t": 216122.1319999996,
      "d": 89.28558333334513,
      "v": 74
    },
    {
      "midi": 72,
      "hit": false,
      "t": 216122.13199999987,
      "d": 114.79574999999022,
      "v": 82
    },
    {
      "midi": 77,
      "hit": false,
      "t": 216122.13199999987,
      "d": 121.17329166666605,
      "v": 82
    },
    {
      "midi": 60,
      "hit": false,
      "t": 216428.2539999996,
      "d": 286.98937500000466,
      "v": 105
    },
    {
      "midi": 53,
      "hit": false,
      "t": 216428.2539999996,
      "d": 344.38724999999977,
      "v": 86
    },
    {
      "midi": 65,
      "hit": false,
      "t": 216428.25399999984,
      "d": 261.47920833333046,
      "v": 92
    },
    {
      "midi": 60,
      "hit": false,
      "t": 216428.25399999984,
      "d": 382.6524999999965,
      "v": 92
    },
    {
      "midi": 72,
      "hit": false,
      "t": 216428.25399999987,
      "d": 153.06099999998696,
      "v": 93
    },
    {
      "midi": 77,
      "hit": false,
      "t": 216428.25399999987,
      "d": 153.06099999998696,
      "v": 75
    },
    {
      "midi": 71,
      "hit": false,
      "t": 216581.31499999986,
      "d": 133.9283749999886,
      "v": 82
    },
    {
      "midi": 53,
      "hit": false,
      "t": 216734.37599999984,
      "d": 542.0910416666593,
      "v": 92
    },
    {
      "midi": 69,
      "hit": false,
      "t": 216734.37599999984,
      "d": 229.59150000000955,
      "v": 82
    },
    {
      "midi": 55,
      "hit": false,
      "t": 217040.4979999996,
      "d": 229.59150000000955,
      "v": 105
    },
    {
      "midi": 57,
      "hit": false,
      "t": 217346.61999999962,
      "d": 223.21395833333372,
      "v": 100
    },
    {
      "midi": 72,
      "hit": false,
      "t": 217346.61999999985,
      "d": 127.55083333334187,
      "v": 75
    },
    {
      "midi": 60,
      "hit": false,
      "t": 217652.74199999962,
      "d": 886.4782916666591,
      "v": 100
    },
    {
      "midi": 57,
      "hit": false,
      "t": 217652.74199999985,
      "d": 146.68345833334024,
      "v": 92
    },
    {
      "midi": 72,
      "hit": false,
      "t": 217652.74199999985,
      "d": 357.1423333333223,
      "v": 93
    },
    {
      "midi": 77,
      "hit": false,
      "t": 217652.74199999985,
      "d": 440.0503749999916,
      "v": 82
    },
    {
      "midi": 59,
      "hit": false,
      "t": 217805.80299999987,
      "d": 216.8364166666579,
      "v": 92
    },
    {
      "midi": 57,
      "hit": false,
      "t": 217958.86399999962,
      "d": 446.42791666666744,
      "v": 86
    },
    {
      "midi": 41,
      "hit": false,
      "t": 217958.86399999962,
      "d": 688.7744999999704,
      "v": 105
    },
    {
      "midi": 53,
      "hit": false,
      "t": 217958.86399999962,
      "d": 778.0600833333156,
      "v": 74
    },
    {
      "midi": 60,
      "hit": false,
      "t": 217958.86399999986,
      "d": 873.7232083333074,
      "v": 92
    },
    {
      "midi": 41,
      "hit": false,
      "t": 217958.86399999986,
      "d": 1020.4066666666477,
      "v": 92
    },
    {
      "midi": 77,
      "hit": false,
      "t": 218264.98599999986,
      "d": 159.4385416666628,
      "v": 82
    },
    {
      "midi": 57,
      "hit": false,
      "t": 218571.1079999996,
      "d": 82.9080416666693,
      "v": 67
    },
    {
      "midi": 53,
      "hit": false,
      "t": 218571.10799999983,
      "d": 465.5605416666658,
      "v": 92
    },
    {
      "midi": 77,
      "hit": false,
      "t": 218571.10799999986,
      "d": 146.68345833334024,
      "v": 82
    },
    {
      "midi": 53,
      "hit": false,
      "t": 218877.2299999996,
      "d": 465.5605416666658,
      "v": 67
    },
    {
      "midi": 60,
      "hit": false,
      "t": 218877.2299999996,
      "d": 624.9990833332995,
      "v": 100
    },
    {
      "midi": 64,
      "hit": false,
      "t": 218877.2299999996,
      "d": 886.47829166663,
      "v": 86
    },
    {
      "midi": 57,
      "hit": false,
      "t": 218877.22999999984,
      "d": 146.68345833334024,
      "v": 92
    },
    {
      "midi": 79,
      "hit": false,
      "t": 218877.22999999986,
      "d": 223.21395833333372,
      "v": 102
    },
    {
      "midi": 43,
      "hit": false,
      "t": 219183.3519999996,
      "d": 1198.9778333333088,
      "v": 105
    },
    {
      "midi": 53,
      "hit": false,
      "t": 219183.35199999984,
      "d": 293.3669166666805,
      "v": 92
    },
    {
      "midi": 60,
      "hit": false,
      "t": 219183.35199999984,
      "d": 510.2033333333675,
      "v": 92
    },
    {
      "midi": 43,
      "hit": false,
      "t": 219183.35199999984,
      "d": 778.0600833333738,
      "v": 92
    },
    {
      "midi": 55,
      "hit": false,
      "t": 219489.47399999958,
      "d": 516.5808749999851,
      "v": 86
    },
    {
      "midi": 79,
      "hit": false,
      "t": 219489.47399999987,
      "d": 223.21395833333372,
      "v": 102
    },
    {
      "midi": 59,
      "hit": false,
      "t": 219795.59599999955,
      "d": 395.40758333334816,
      "v": 66
    },
    {
      "midi": 62,
      "hit": false,
      "t": 219795.59599999955,
      "d": 516.5808750000142,
      "v": 86
    },
    {
      "midi": 53,
      "hit": false,
      "t": 219795.59599999987,
      "d": 140.30591666666442,
      "v": 92
    },
    {
      "midi": 59,
      "hit": false,
      "t": 219795.59599999987,
      "d": 369.89741666667396,
      "v": 92
    },
    {
      "midi": 53,
      "hit": false,
      "t": 220101.71799999988,
      "d": 114.79574999999022,
      "v": 92
    },
    {
      "midi": 79,
      "hit": false,
      "t": 220101.71799999988,
      "d": 172.19362500001444,
      "v": 82
    },
    {
      "midi": 55,
      "hit": false,
      "t": 220407.8399999996,
      "d": 82.9080416666693,
      "v": 74
    },
    {
      "midi": 60,
      "hit": false,
      "t": 220407.8399999996,
      "d": 382.6524999999965,
      "v": 105
    },
    {
      "midi": 64,
      "hit": false,
      "t": 220407.8399999996,
      "d": 401.7851249999949,
      "v": 100
    },
    {
      "midi": 48,
      "hit": false,
      "t": 220407.8399999996,
      "d": 1894.1298750000133,
      "v": 105
    },
    {
      "midi": 60,
      "hit": false,
      "t": 220407.83999999988,
      "d": 382.6524999999965,
      "v": 92
    },
    {
      "midi": 62,
      "hit": false,
      "t": 220407.83999999988,
      "d": 382.6524999999965,
      "v": 92
    },
    {
      "midi": 48,
      "hit": false,
      "t": 220407.83999999988,
      "d": 1881.3747916666907,
      "v": 92
    },
    {
      "midi": 76,
      "hit": false,
      "t": 220407.83999999988,
      "d": 184.94870833333698,
      "v": 102
    },
    {
      "midi": 55,
      "hit": false,
      "t": 220713.9619999996,
      "d": 280.61183333332883,
      "v": 105
    },
    {
      "midi": 55,
      "hit": false,
      "t": 220713.96199999988,
      "d": 739.7948333333479,
      "v": 92
    },
    {
      "midi": 76,
      "hit": false,
      "t": 220713.96199999988,
      "d": 153.06099999998696,
      "v": 70
    },
    {
      "midi": 60,
      "hit": false,
      "t": 221020.0839999996,
      "d": 197.70379166665953,
      "v": 86
    },
    {
      "midi": 76,
      "hit": false,
      "t": 221020.08399999986,
      "d": 140.30591666666442,
      "v": 102
    },
    {
      "midi": 60,
      "hit": false,
      "t": 221020.0839999999,
      "d": 682.3969583333237,
      "v": 92
    },
    {
      "midi": 55,
      "hit": false,
      "t": 221326.2059999996,
      "d": 31.887708333320916,
      "v": 67
    },
    {
      "midi": 62,
      "hit": false,
      "t": 221326.2059999996,
      "d": 235.96904166665627,
      "v": 105
    },
    {
      "midi": 76,
      "hit": false,
      "t": 221326.20599999986,
      "d": 172.19362500001444,
      "v": 102
    },
    {
      "midi": 62,
      "hit": false,
      "t": 221326.2059999999,
      "d": 325.2546250000014,
      "v": 92
    },
    {
      "midi": 67,
      "hit": false,
      "t": 221326.2059999999,
      "d": 465.5605416666658,
      "v": 92
    },
    {
      "midi": 55,
      "hit": false,
      "t": 221632.3279999996,
      "d": 229.59150000000955,
      "v": 86
    },
    {
      "midi": 55,
      "hit": false,
      "t": 221632.3279999999,
      "d": 389.03004166667233,
      "v": 92
    },
    {
      "midi": 55,
      "hit": false,
      "t": 221938.4499999996,
      "d": 133.9283749999886,
      "v": 74
    },
    {
      "midi": 67,
      "hit": false,
      "t": 221938.4499999996,
      "d": 420.91774999999325,
      "v": 105
    },
    {
      "midi": 64,
      "hit": false,
      "t": 221938.4499999999,
      "d": 522.95841666669,
      "v": 92
    },
    {
      "midi": 60,
      "hit": false,
      "t": 221938.4499999999,
      "d": 554.8461250000109,
      "v": 92
    },
    {
      "midi": 55,
      "hit": false,
      "t": 222244.5719999996,
      "d": 216.8364166666579,
      "v": 66
    },
    {
      "midi": 55,
      "hit": false,
      "t": 222244.5719999999,
      "d": 860.9681249999849,
      "v": 92
    },
    {
      "midi": 48,
      "hit": false,
      "t": 222550.6939999996,
      "d": 229.59150000000955,
      "v": 100
    },
    {
      "midi": 60,
      "hit": false,
      "t": 222550.6939999996,
      "d": 255.10166666668374,
      "v": 86
    },
    {
      "midi": 74,
      "hit": false,
      "t": 222550.69399999987,
      "d": 102.04066666666768,
      "v": 102
    },
    {
      "midi": 48,
      "hit": false,
      "t": 222550.6939999999,
      "d": 235.96904166665627,
      "v": 92
    },
    {
      "midi": 72,
      "hit": false,
      "t": 222703.75499999986,
      "d": 140.30591666666442,
      "v": 93
    },
    {
      "midi": 55,
      "hit": false,
      "t": 222856.8159999996,
      "d": 133.9283750000177,
      "v": 74
    },
    {
      "midi": 62,
      "hit": false,
      "t": 222856.8159999996,
      "d": 427.2952916666982,
      "v": 100
    },
    {
      "midi": 47,
      "hit": false,
      "t": 222856.8159999996,
      "d": 1881.3747916666907,
      "v": 105
    },
    {
      "midi": 74,
      "hit": false,
      "t": 222856.81599999985,
      "d": 204.08133333333535,
      "v": 102
    },
    {
      "midi": 62,
      "hit": false,
      "t": 222856.8159999999,
      "d": 389.0300416666432,
      "v": 92
    },
    {
      "midi": 59,
      "hit": false,
      "t": 222856.8159999999,
      "d": 414.5402083333174,
      "v": 92
    },
    {
      "midi": 47,
      "hit": false,
      "t": 222856.8159999999,
      "d": 1804.8442916666681,
      "v": 92
    },
    {
      "midi": 55,
      "hit": false,
      "t": 223162.93799999965,
      "d": 242.3465833333321,
      "v": 67
    },
    {
      "midi": 74,
      "hit": false,
      "t": 223162.93799999985,
      "d": 127.55083333334187,
      "v": 82
    },
    {
      "midi": 55,
      "hit": false,
      "t": 223162.93799999988,
      "d": 676.019416666677,
      "v": 92
    },
    {
      "midi": 55,
      "hit": false,
      "t": 223469.05999999965,
      "d": 76.53049999999348,
      "v": 67
    },
    {
      "midi": 62,
      "hit": false,
      "t": 223469.05999999965,
      "d": 210.45887499998207,
      "v": 86
    },
    {
      "midi": 74,
      "hit": false,
      "t": 223469.05999999985,
      "d": 159.4385416666628,
      "v": 93
    },
    {
      "midi": 59,
      "hit": false,
      "t": 223469.05999999988,
      "d": 325.2546250000014,
      "v": 92
    },
    {
      "midi": 67,
      "hit": false,
      "t": 223775.18199999962,
      "d": 146.68345833334024,
      "v": 86
    },
    {
      "midi": 79,
      "hit": false,
      "t": 223775.18199999986,
      "d": 229.59150000000955,
      "v": 102
    },
    {
      "midi": 67,
      "hit": false,
      "t": 223775.18199999988,
      "d": 478.31562500001746,
      "v": 92
    },
    {
      "midi": 74,
      "hit": false,
      "t": 224081.30399999963,
      "d": 140.30591666666442,
      "v": 100
    },
    {
      "midi": 55,
      "hit": false,
      "t": 224081.3039999999,
      "d": 452.80545833334327,
      "v": 92
    },
    {
      "midi": 67,
      "hit": false,
      "t": 224387.42599999963,
      "d": 127.55083333334187,
      "v": 105
    },
    {
      "midi": 74,
      "hit": false,
      "t": 224387.42599999986,
      "d": 235.96904166665627,
      "v": 102
    },
    {
      "midi": 62,
      "hit": false,
      "t": 224387.4259999999,
      "d": 414.5402083333465,
      "v": 92
    },
    {
      "midi": 55,
      "hit": false,
      "t": 224693.5479999999,
      "d": 267.8567500000063,
      "v": 92
    },
    {
      "midi": 47,
      "hit": false,
      "t": 224999.66999999963,
      "d": 184.94870833333698,
      "v": 105
    },
    {
      "midi": 74,
      "hit": false,
      "t": 224999.66999999984,
      "d": 184.94870833333698,
      "v": 82
    },
    {
      "midi": 47,
      "hit": false,
      "t": 224999.6699999999,
      "d": 216.8364166666579,
      "v": 92
    },
    {
      "midi": 53,
      "hit": false,
      "t": 225305.79199999964,
      "d": 133.9283749999886,
      "v": 86
    },
    {
      "midi": 60,
      "hit": false,
      "t": 225305.79199999964,
      "d": 357.1423333332932,
      "v": 100
    },
    {
      "midi": 45,
      "hit": false,
      "t": 225305.79199999964,
      "d": 1862.2421666666633,
      "v": 105
    },
    {
      "midi": 72,
      "hit": false,
      "t": 225305.79199999984,
      "d": 153.06099999998696,
      "v": 102
    },
    {
      "midi": 60,
      "hit": false,
      "t": 225305.7919999999,
      "d": 363.51987499999814,
      "v": 92
    },
    {
      "midi": 45,
      "hit": false,
      "t": 225305.7919999999,
      "d": 1951.5277499999793,
      "v": 92
    },
    {
      "midi": 53,
      "hit": false,
      "t": 225611.9139999996,
      "d": 223.21395833333372,
      "v": 74
    },
    {
      "midi": 72,
      "hit": false,
      "t": 225611.91399999982,
      "d": 127.55083333334187,
      "v": 75
    },
    {
      "midi": 53,
      "hit": false,
      "t": 225611.9139999999,
      "d": 554.8461249999818,
      "v": 92
    },
    {
      "midi": 53,
      "hit": false,
      "t": 225918.0359999996,
      "d": 89.28558333334513,
      "v": 62
    },
    {
      "midi": 60,
      "hit": false,
      "t": 225918.0359999996,
      "d": 89.28558333334513,
      "v": 74
    },
    {
      "midi": 72,
      "hit": false,
      "t": 225918.03599999982,
      "d": 89.28558333334513,
      "v": 75
    },
    {
      "midi": 60,
      "hit": false,
      "t": 226224.15799999962,
      "d": 286.98937500000466,
      "v": 105
    },
    {
      "midi": 53,
      "hit": false,
      "t": 226224.15799999962,
      "d": 344.38724999999977,
      "v": 86
    },
    {
      "midi": 72,
      "hit": false,
      "t": 226224.15799999982,
      "d": 127.55083333334187,
      "v": 102
    },
    {
      "midi": 65,
      "hit": false,
      "t": 226224.15799999988,
      "d": 261.47920833333046,
      "v": 92
    },
    {
      "midi": 60,
      "hit": false,
      "t": 226224.15799999988,
      "d": 382.6524999999965,
      "v": 92
    },
    {
      "midi": 71,
      "hit": false,
      "t": 226377.21899999984,
      "d": 140.30591666666442,
      "v": 102
    },
    {
      "midi": 69,
      "hit": false,
      "t": 226530.27999999982,
      "d": 312.49954166667885,
      "v": 109
    },
    {
      "midi": 53,
      "hit": false,
      "t": 226530.27999999988,
      "d": 542.0910416666593,
      "v": 92
    },
    {
      "midi": 55,
      "hit": false,
      "t": 226836.40199999962,
      "d": 229.59150000000955,
      "v": 105
    },
    {
      "midi": 57,
      "hit": false,
      "t": 227142.52399999963,
      "d": 223.21395833333372,
      "v": 100
    },
    {
      "midi": 60,
      "hit": false,
      "t": 227448.64599999963,
      "d": 886.4782916666591,
      "v": 100
    },
    {
      "midi": 72,
      "hit": false,
      "t": 227448.64599999983,
      "d": 223.21395833333372,
      "v": 93
    },
    {
      "midi": 57,
      "hit": false,
      "t": 227448.6459999999,
      "d": 146.68345833334024,
      "v": 92
    },
    {
      "midi": 59,
      "hit": false,
      "t": 227601.7069999999,
      "d": 216.8364166666579,
      "v": 92
    },
    {
      "midi": 57,
      "hit": false,
      "t": 227754.76799999963,
      "d": 446.42791666666744,
      "v": 86
    },
    {
      "midi": 41,
      "hit": false,
      "t": 227754.76799999963,
      "d": 688.7744999999704,
      "v": 105
    },
    {
      "midi": 53,
      "hit": false,
      "t": 227754.76799999963,
      "d": 778.0600833333156,
      "v": 74
    },
    {
      "midi": 60,
      "hit": false,
      "t": 227754.7679999999,
      "d": 873.7232083333074,
      "v": 92
    },
    {
      "midi": 41,
      "hit": false,
      "t": 227754.7679999999,
      "d": 1020.4066666666477,
      "v": 92
    },
    {
      "midi": 72,
      "hit": false,
      "t": 228060.88999999984,
      "d": 146.68345833334024,
      "v": 102
    },
    {
      "midi": 57,
      "hit": false,
      "t": 228367.0119999996,
      "d": 82.9080416666693,
      "v": 67
    },
    {
      "midi": 72,
      "hit": false,
      "t": 228367.01199999984,
      "d": 127.55083333334187,
      "v": 102
    },
    {
      "midi": 53,
      "hit": false,
      "t": 228367.01199999987,
      "d": 465.5605416666658,
      "v": 92
    },
    {
      "midi": 53,
      "hit": false,
      "t": 228673.1339999996,
      "d": 465.5605416666658,
      "v": 67
    },
    {
      "midi": 60,
      "hit": false,
      "t": 228673.1339999996,
      "d": 624.9990833332995,
      "v": 100
    },
    {
      "midi": 64,
      "hit": false,
      "t": 228673.1339999996,
      "d": 886.47829166663,
      "v": 86
    },
    {
      "midi": 76,
      "hit": false,
      "t": 228673.13399999985,
      "d": 229.59150000000955,
      "v": 102
    },
    {
      "midi": 57,
      "hit": false,
      "t": 228673.13399999987,
      "d": 146.68345833334024,
      "v": 92
    },
    {
      "midi": 43,
      "hit": false,
      "t": 228979.25599999962,
      "d": 1198.9778333333088,
      "v": 105
    },
    {
      "midi": 53,
      "hit": false,
      "t": 228979.25599999988,
      "d": 293.3669166666805,
      "v": 92
    },
    {
      "midi": 60,
      "hit": false,
      "t": 228979.25599999988,
      "d": 510.2033333333675,
      "v": 92
    },
    {
      "midi": 43,
      "hit": false,
      "t": 228979.25599999988,
      "d": 778.0600833333738,
      "v": 92
    },
    {
      "midi": 55,
      "hit": false,
      "t": 229285.3779999996,
      "d": 516.5808749999851,
      "v": 86
    },
    {
      "midi": 74,
      "hit": false,
      "t": 229285.37799999985,
      "d": 165.8160833333386,
      "v": 102
    },
    {
      "midi": 59,
      "hit": false,
      "t": 229591.49999999956,
      "d": 395.40758333334816,
      "v": 66
    },
    {
      "midi": 62,
      "hit": false,
      "t": 229591.49999999956,
      "d": 516.5808750000142,
      "v": 86
    },
    {
      "midi": 53,
      "hit": false,
      "t": 229591.4999999999,
      "d": 140.30591666666442,
      "v": 92
    },
    {
      "midi": 59,
      "hit": false,
      "t": 229591.4999999999,
      "d": 369.89741666667396,
      "v": 92
    },
    {
      "midi": 55,
      "hit": false,
      "t": 229897.62199999957,
      "d": 299.7444583333563,
      "v": 66
    },
    {
      "midi": 76,
      "hit": false,
      "t": 229897.62199999986,
      "d": 133.9283749999886,
      "v": 82
    },
    {
      "midi": 53,
      "hit": false,
      "t": 229897.62199999992,
      "d": 114.79574999999022,
      "v": 92
    },
    {
      "midi": 55,
      "hit": false,
      "t": 230203.7439999996,
      "d": 261.47920833335957,
      "v": 74
    },
    {
      "midi": 60,
      "hit": false,
      "t": 230203.7439999996,
      "d": 382.6524999999965,
      "v": 105
    },
    {
      "midi": 64,
      "hit": false,
      "t": 230203.7439999996,
      "d": 401.7851249999949,
      "v": 100
    },
    {
      "midi": 48,
      "hit": false,
      "t": 230203.7439999996,
      "d": 1894.1298750000133,
      "v": 105
    },
    {
      "midi": 76,
      "hit": false,
      "t": 230203.74399999986,
      "d": 159.4385416666628,
      "v": 102
    },
    {
      "midi": 60,
      "hit": false,
      "t": 230203.74399999992,
      "d": 382.6524999999965,
      "v": 92
    },
    {
      "midi": 62,
      "hit": false,
      "t": 230203.74399999992,
      "d": 382.6524999999965,
      "v": 92
    },
    {
      "midi": 48,
      "hit": false,
      "t": 230203.74399999992,
      "d": 1881.3747916666907,
      "v": 92
    },
    {
      "midi": 55,
      "hit": false,
      "t": 230509.8659999996,
      "d": 280.61183333332883,
      "v": 105
    },
    {
      "midi": 76,
      "hit": false,
      "t": 230509.86599999986,
      "d": 127.55083333334187,
      "v": 82
    },
    {
      "midi": 55,
      "hit": false,
      "t": 230509.86599999992,
      "d": 739.7948333333479,
      "v": 92
    },
    {
      "midi": 60,
      "hit": false,
      "t": 230815.9879999996,
      "d": 197.70379166665953,
      "v": 86
    },
    {
      "midi": 76,
      "hit": false,
      "t": 230815.98799999987,
      "d": 146.68345833334024,
      "v": 102
    },
    {
      "midi": 60,
      "hit": false,
      "t": 230815.98799999992,
      "d": 682.3969583333237,
      "v": 92
    },
    {
      "midi": 55,
      "hit": false,
      "t": 231122.1099999996,
      "d": 31.887708333320916,
      "v": 67
    },
    {
      "midi": 62,
      "hit": false,
      "t": 231122.1099999996,
      "d": 235.96904166665627,
      "v": 105
    },
    {
      "midi": 76,
      "hit": false,
      "t": 231122.10999999987,
      "d": 146.68345833334024,
      "v": 102
    },
    {
      "midi": 62,
      "hit": false,
      "t": 231122.10999999993,
      "d": 325.2546250000014,
      "v": 92
    },
    {
      "midi": 67,
      "hit": false,
      "t": 231122.10999999993,
      "d": 465.5605416666658,
      "v": 92
    },
    {
      "midi": 55,
      "hit": false,
      "t": 231428.2319999996,
      "d": 229.59150000000955,
      "v": 86
    },
    {
      "midi": 55,
      "hit": false,
      "t": 231428.23199999993,
      "d": 389.03004166667233,
      "v": 92
    },
    {
      "midi": 55,
      "hit": false,
      "t": 231734.3539999996,
      "d": 133.9283749999886,
      "v": 74
    },
    {
      "midi": 67,
      "hit": false,
      "t": 231734.3539999996,
      "d": 420.91774999999325,
      "v": 105
    },
    {
      "midi": 64,
      "hit": false,
      "t": 231734.35399999993,
      "d": 522.95841666669,
      "v": 92
    },
    {
      "midi": 60,
      "hit": false,
      "t": 231734.35399999993,
      "d": 554.8461250000109,
      "v": 92
    },
    {
      "midi": 55,
      "hit": false,
      "t": 232040.47599999962,
      "d": 216.8364166666579,
      "v": 66
    },
    {
      "midi": 55,
      "hit": false,
      "t": 232040.47599999994,
      "d": 860.9681249999849,
      "v": 92
    },
    {
      "midi": 48,
      "hit": false,
      "t": 232346.59799999962,
      "d": 229.59150000000955,
      "v": 100
    },
    {
      "midi": 60,
      "hit": false,
      "t": 232346.59799999962,
      "d": 255.10166666668374,
      "v": 86
    },
    {
      "midi": 74,
      "hit": false,
      "t": 232346.59799999988,
      "d": 140.30591666666442,
      "v": 82
    },
    {
      "midi": 48,
      "hit": false,
      "t": 232346.59799999994,
      "d": 235.96904166665627,
      "v": 92
    },
    {
      "midi": 72,
      "hit": false,
      "t": 232499.65899999987,
      "d": 140.30591666666442,
      "v": 93
    },
    {
      "midi": 55,
      "hit": false,
      "t": 232652.71999999962,
      "d": 133.9283750000177,
      "v": 74
    },
    {
      "midi": 62,
      "hit": false,
      "t": 232652.71999999962,
      "d": 427.2952916666982,
      "v": 100
    },
    {
      "midi": 47,
      "hit": false,
      "t": 232652.71999999962,
      "d": 1881.3747916666907,
      "v": 105
    },
    {
      "midi": 74,
      "hit": false,
      "t": 232652.71999999986,
      "d": 178.57116666666116,
      "v": 102
    },
    {
      "midi": 62,
      "hit": false,
      "t": 232652.71999999994,
      "d": 389.0300416666432,
      "v": 92
    },
    {
      "midi": 59,
      "hit": false,
      "t": 232652.71999999994,
      "d": 414.5402083333174,
      "v": 92
    },
    {
      "midi": 47,
      "hit": false,
      "t": 232652.71999999994,
      "d": 1804.8442916666681,
      "v": 92
    },
    {
      "midi": 55,
      "hit": false,
      "t": 232958.84199999965,
      "d": 242.3465833333321,
      "v": 67
    },
    {
      "midi": 74,
      "hit": false,
      "t": 232958.84199999986,
      "d": 146.68345833334024,
      "v": 102
    },
    {
      "midi": 55,
      "hit": false,
      "t": 232958.84199999992,
      "d": 676.019416666677,
      "v": 92
    },
    {
      "midi": 55,
      "hit": false,
      "t": 233264.96399999966,
      "d": 76.53049999999348,
      "v": 67
    },
    {
      "midi": 62,
      "hit": false,
      "t": 233264.96399999966,
      "d": 210.45887499998207,
      "v": 86
    },
    {
      "midi": 74,
      "hit": false,
      "t": 233264.96399999986,
      "d": 95.66312499999185,
      "v": 93
    },
    {
      "midi": 59,
      "hit": false,
      "t": 233264.96399999992,
      "d": 325.2546250000014,
      "v": 92
    },
    {
      "midi": 67,
      "hit": false,
      "t": 233571.08599999963,
      "d": 146.68345833334024,
      "v": 86
    },
    {
      "midi": 79,
      "hit": false,
      "t": 233571.08599999986,
      "d": 153.06099999998696,
      "v": 93
    },
    {
      "midi": 67,
      "hit": false,
      "t": 233571.08599999992,
      "d": 478.31562500001746,
      "v": 92
    },
    {
      "midi": 74,
      "hit": false,
      "t": 233877.20799999963,
      "d": 140.30591666666442,
      "v": 100
    },
    {
      "midi": 55,
      "hit": false,
      "t": 233877.20799999993,
      "d": 452.80545833334327,
      "v": 92
    },
    {
      "midi": 67,
      "hit": false,
      "t": 234183.32999999964,
      "d": 127.55083333334187,
      "v": 105
    },
    {
      "midi": 74,
      "hit": false,
      "t": 234183.32999999984,
      "d": 153.06099999998696,
      "v": 102
    },
    {
      "midi": 62,
      "hit": false,
      "t": 234183.32999999993,
      "d": 414.5402083333465,
      "v": 92
    },
    {
      "midi": 55,
      "hit": false,
      "t": 234489.45199999993,
      "d": 267.8567500000063,
      "v": 92
    },
    {
      "midi": 47,
      "hit": false,
      "t": 234795.57399999964,
      "d": 184.94870833333698,
      "v": 105
    },
    {
      "midi": 74,
      "hit": false,
      "t": 234795.57399999982,
      "d": 146.68345833334024,
      "v": 66
    },
    {
      "midi": 47,
      "hit": false,
      "t": 234795.57399999994,
      "d": 216.8364166666579,
      "v": 92
    },
    {
      "midi": 53,
      "hit": false,
      "t": 235101.69599999965,
      "d": 133.9283749999886,
      "v": 86
    },
    {
      "midi": 60,
      "hit": false,
      "t": 235101.69599999965,
      "d": 357.1423333332932,
      "v": 100
    },
    {
      "midi": 45,
      "hit": false,
      "t": 235101.69599999965,
      "d": 1862.2421666666633,
      "v": 105
    },
    {
      "midi": 72,
      "hit": false,
      "t": 235101.69599999982,
      "d": 178.57116666666116,
      "v": 102
    },
    {
      "midi": 60,
      "hit": false,
      "t": 235101.69599999994,
      "d": 363.51987499999814,
      "v": 92
    },
    {
      "midi": 45,
      "hit": false,
      "t": 235101.69599999994,
      "d": 1951.5277499999793,
      "v": 92
    },
    {
      "midi": 53,
      "hit": false,
      "t": 235407.81799999962,
      "d": 223.21395833333372,
      "v": 74
    },
    {
      "midi": 72,
      "hit": false,
      "t": 235407.81799999982,
      "d": 140.30591666666442,
      "v": 82
    },
    {
      "midi": 53,
      "hit": false,
      "t": 235407.81799999994,
      "d": 554.8461249999818,
      "v": 92
    },
    {
      "midi": 53,
      "hit": false,
      "t": 235713.93999999962,
      "d": 89.28558333334513,
      "v": 62
    },
    {
      "midi": 60,
      "hit": false,
      "t": 235713.93999999962,
      "d": 89.28558333334513,
      "v": 74
    },
    {
      "midi": 72,
      "hit": false,
      "t": 235713.93999999983,
      "d": 89.28558333334513,
      "v": 82
    },
    {
      "midi": 60,
      "hit": false,
      "t": 236020.06199999963,
      "d": 286.98937500000466,
      "v": 105
    },
    {
      "midi": 53,
      "hit": false,
      "t": 236020.06199999963,
      "d": 344.38724999999977,
      "v": 86
    },
    {
      "midi": 72,
      "hit": false,
      "t": 236020.06199999983,
      "d": 133.9283749999886,
      "v": 102
    },
    {
      "midi": 65,
      "hit": false,
      "t": 236020.06199999992,
      "d": 261.47920833333046,
      "v": 92
    },
    {
      "midi": 60,
      "hit": false,
      "t": 236020.06199999992,
      "d": 382.6524999999965,
      "v": 92
    },
    {
      "midi": 71,
      "hit": false,
      "t": 236173.12299999982,
      "d": 114.79574999999022,
      "v": 82
    },
    {
      "midi": 69,
      "hit": false,
      "t": 236326.1839999998,
      "d": 293.3669166666805,
      "v": 102
    },
    {
      "midi": 53,
      "hit": false,
      "t": 236326.18399999992,
      "d": 542.0910416666593,
      "v": 92
    },
    {
      "midi": 55,
      "hit": false,
      "t": 236632.30599999963,
      "d": 229.59150000000955,
      "v": 105
    },
    {
      "midi": 57,
      "hit": false,
      "t": 236938.42799999964,
      "d": 223.21395833333372,
      "v": 100
    },
    {
      "midi": 72,
      "hit": false,
      "t": 236938.4279999998,
      "d": 89.28558333334513,
      "v": 64
    },
    {
      "midi": 60,
      "hit": false,
      "t": 237244.54999999964,
      "d": 886.4782916666591,
      "v": 100
    },
    {
      "midi": 72,
      "hit": false,
      "t": 237244.5499999998,
      "d": 191.3262500000128,
      "v": 109
    },
    {
      "midi": 57,
      "hit": false,
      "t": 237244.54999999993,
      "d": 146.68345833334024,
      "v": 92
    },
    {
      "midi": 59,
      "hit": false,
      "t": 237397.61099999995,
      "d": 216.8364166666579,
      "v": 92
    },
    {
      "midi": 57,
      "hit": false,
      "t": 237550.67199999964,
      "d": 446.42791666666744,
      "v": 86
    },
    {
      "midi": 41,
      "hit": false,
      "t": 237550.67199999964,
      "d": 688.7744999999704,
      "v": 105
    },
    {
      "midi": 53,
      "hit": false,
      "t": 237550.67199999964,
      "d": 778.0600833333156,
      "v": 74
    },
    {
      "midi": 60,
      "hit": false,
      "t": 237550.67199999993,
      "d": 873.7232083333074,
      "v": 92
    },
    {
      "midi": 41,
      "hit": false,
      "t": 237550.67199999993,
      "d": 1020.4066666666477,
      "v": 92
    },
    {
      "midi": 72,
      "hit": false,
      "t": 237856.79399999982,
      "d": 140.30591666666442,
      "v": 66
    },
    {
      "midi": 57,
      "hit": false,
      "t": 238162.91599999962,
      "d": 82.9080416666693,
      "v": 67
    },
    {
      "midi": 72,
      "hit": false,
      "t": 238162.91599999982,
      "d": 172.19362500001444,
      "v": 70
    },
    {
      "midi": 53,
      "hit": false,
      "t": 238162.9159999999,
      "d": 465.5605416666658,
      "v": 92
    },
    {
      "midi": 53,
      "hit": false,
      "t": 238469.03799999962,
      "d": 465.5605416666658,
      "v": 67
    },
    {
      "midi": 60,
      "hit": false,
      "t": 238469.03799999962,
      "d": 624.9990833332995,
      "v": 100
    },
    {
      "midi": 64,
      "hit": false,
      "t": 238469.03799999962,
      "d": 886.47829166663,
      "v": 86
    },
    {
      "midi": 76,
      "hit": false,
      "t": 238469.03799999983,
      "d": 197.70379166665953,
      "v": 102
    },
    {
      "midi": 57,
      "hit": false,
      "t": 238469.0379999999,
      "d": 146.68345833334024,
      "v": 92
    },
    {
      "midi": 43,
      "hit": false,
      "t": 238775.15999999963,
      "d": 1198.9778333333088,
      "v": 105
    },
    {
      "midi": 53,
      "hit": false,
      "t": 238775.15999999992,
      "d": 293.3669166666805,
      "v": 92
    },
    {
      "midi": 60,
      "hit": false,
      "t": 238775.15999999992,
      "d": 510.2033333333675,
      "v": 92
    },
    {
      "midi": 43,
      "hit": false,
      "t": 238775.15999999992,
      "d": 778.0600833333738,
      "v": 92
    },
    {
      "midi": 55,
      "hit": false,
      "t": 239081.2819999996,
      "d": 516.5808749999851,
      "v": 86
    },
    {
      "midi": 74,
      "hit": false,
      "t": 239081.28199999983,
      "d": 121.17329166666605,
      "v": 93
    },
    {
      "midi": 59,
      "hit": false,
      "t": 239387.40399999957,
      "d": 395.40758333334816,
      "v": 66
    },
    {
      "midi": 62,
      "hit": false,
      "t": 239387.40399999957,
      "d": 516.5808750000142,
      "v": 86
    },
    {
      "midi": 53,
      "hit": false,
      "t": 239387.40399999995,
      "d": 140.30591666666442,
      "v": 92
    },
    {
      "midi": 59,
      "hit": false,
      "t": 239387.40399999995,
      "d": 369.89741666667396,
      "v": 92
    },
    {
      "midi": 79,
      "hit": false,
      "t": 239693.52599999984,
      "d": 76.53049999999348,
      "v": 93
    },
    {
      "midi": 53,
      "hit": false,
      "t": 239693.52599999995,
      "d": 114.79574999999022,
      "v": 92
    },
    {
      "midi": 55,
      "hit": false,
      "t": 239999.6479999996,
      "d": 82.9080416666693,
      "v": 74
    },
    {
      "midi": 60,
      "hit": false,
      "t": 239999.6479999996,
      "d": 382.6524999999965,
      "v": 105
    },
    {
      "midi": 64,
      "hit": false,
      "t": 239999.6479999996,
      "d": 401.7851249999949,
      "v": 100
    },
    {
      "midi": 48,
      "hit": false,
      "t": 239999.6479999996,
      "d": 1894.1298750000133,
      "v": 105
    },
    {
      "midi": 64,
      "hit": false,
      "t": 239999.64799999996,
      "d": 599.4889166666835,
      "v": 92
    },
    {
      "midi": 48,
      "hit": false,
      "t": 239999.64799999996,
      "d": 2346.9353333333565,
      "v": 92
    },
    {
      "midi": 55,
      "hit": false,
      "t": 240305.7699999996,
      "d": 280.61183333332883,
      "v": 105
    },
    {
      "midi": 55,
      "hit": false,
      "t": 240305.76999999996,
      "d": 1307.3960416666814,
      "v": 92
    },
    {
      "midi": 60,
      "hit": false,
      "t": 240611.8919999996,
      "d": 197.70379166665953,
      "v": 86
    },
    {
      "midi": 84,
      "hit": false,
      "t": 240611.89199999982,
      "d": 82.9080416666693,
      "v": 70
    },
    {
      "midi": 60,
      "hit": false,
      "t": 240611.89199999996,
      "d": 395.40758333334816,
      "v": 92
    },
    {
      "midi": 55,
      "hit": false,
      "t": 240918.01399999962,
      "d": 31.887708333320916,
      "v": 67
    },
    {
      "midi": 62,
      "hit": false,
      "t": 240918.01399999962,
      "d": 235.96904166665627,
      "v": 105
    },
    {
      "midi": 88,
      "hit": false,
      "t": 240918.01399999982,
      "d": 76.53049999999348,
      "v": 93
    },
    {
      "midi": 62,
      "hit": false,
      "t": 240918.01399999997,
      "d": 880.1007500000123,
      "v": 92
    },
    {
      "midi": 55,
      "hit": false,
      "t": 241224.13599999962,
      "d": 229.59150000000955,
      "v": 86
    },
    {
      "midi": 55,
      "hit": false,
      "t": 241530.25799999962,
      "d": 133.9283749999886,
      "v": 74
    },
    {
      "midi": 67,
      "hit": false,
      "t": 241530.25799999962,
      "d": 420.91774999999325,
      "v": 105
    },
    {
      "midi": 86,
      "hit": false,
      "t": 241530.25799999983,
      "d": 140.30591666666442,
      "v": 70
    },
    {
      "midi": 60,
      "hit": false,
      "t": 241530.25799999997,
      "d": 433.6728333333449,
      "v": 92
    },
    {
      "midi": 55,
      "hit": false,
      "t": 241836.37999999963,
      "d": 216.8364166666579,
      "v": 66
    },
    {
      "midi": 84,
      "hit": false,
      "t": 241836.37999999983,
      "d": 127.55083333334187,
      "v": 75
    },
    {
      "midi": 55,
      "hit": false,
      "t": 241836.37999999998,
      "d": 841.8355000000156,
      "v": 92
    },
    {
      "midi": 48,
      "hit": false,
      "t": 242142.50199999963,
      "d": 229.59150000000955,
      "v": 100
    },
    {
      "midi": 60,
      "hit": false,
      "t": 242142.50199999963,
      "d": 255.10166666668374,
      "v": 86
    },
    {
      "midi": 86,
      "hit": false,
      "t": 242142.50199999983,
      "d": 114.79574999999022,
      "v": 93
    },
    {
      "midi": 62,
      "hit": false,
      "t": 242142.50199999998,
      "d": 695.1520416666754,
      "v": 92
    },
    {
      "midi": 55,
      "hit": false,
      "t": 242448.62399999963,
      "d": 133.9283750000177,
      "v": 74
    },
    {
      "midi": 62,
      "hit": false,
      "t": 242448.62399999963,
      "d": 427.2952916666982,
      "v": 100
    },
    {
      "midi": 47,
      "hit": false,
      "t": 242448.62399999963,
      "d": 1881.3747916666907,
      "v": 105
    },
    {
      "midi": 47,
      "hit": false,
      "t": 242448.62399999998,
      "d": 2321.4251666666823,
      "v": 92
    },
    {
      "midi": 55,
      "hit": false,
      "t": 242754.74599999966,
      "d": 242.3465833333321,
      "v": 67
    },
    {
      "midi": 91,
      "hit": false,
      "t": 242754.7459999998,
      "d": 102.04066666666768,
      "v": 93
    },
    {
      "midi": 55,
      "hit": false,
      "t": 242754.74599999998,
      "d": 1358.4163750000007,
      "v": 92
    },
    {
      "midi": 55,
      "hit": false,
      "t": 243060.86799999967,
      "d": 76.53049999999348,
      "v": 67
    },
    {
      "midi": 62,
      "hit": false,
      "t": 243060.86799999967,
      "d": 210.45887499998207,
      "v": 86
    },
    {
      "midi": 62,
      "hit": false,
      "t": 243060.868,
      "d": 503.82579166666255,
      "v": 92
    },
    {
      "midi": 67,
      "hit": false,
      "t": 243366.98999999964,
      "d": 146.68345833334024,
      "v": 86
    },
    {
      "midi": 67,
      "hit": false,
      "t": 243366.99,
      "d": 1562.497708333336,
      "v": 92
    },
    {
      "midi": 74,
      "hit": false,
      "t": 243673.11199999964,
      "d": 140.30591666666442,
      "v": 100
    },
    {
      "midi": 91,
      "hit": false,
      "t": 243673.11199999982,
      "d": 146.68345833334024,
      "v": 75
    },
    {
      "midi": 67,
      "hit": false,
      "t": 243979.23399999965,
      "d": 127.55083333334187,
      "v": 105
    },
    {
      "midi": 93,
      "hit": false,
      "t": 243979.23399999982,
      "d": 140.30591666666442,
      "v": 70
    },
    {
      "midi": 62,
      "hit": false,
      "t": 243979.234,
      "d": 1256.375708333304,
      "v": 92
    },
    {
      "midi": 95,
      "hit": false,
      "t": 244285.35599999983,
      "d": 127.55083333334187,
      "v": 93
    },
    {
      "midi": 55,
      "hit": false,
      "t": 244285.356,
      "d": 720.6622083333205,
      "v": 92
    },
    {
      "midi": 47,
      "hit": false,
      "t": 244591.47799999965,
      "d": 184.94870833333698,
      "v": 105
    },
    {
      "midi": 96,
      "hit": false,
      "t": 244591.47799999983,
      "d": 140.30591666666442,
      "v": 82
    },
    {
      "midi": 53,
      "hit": false,
      "t": 244897.59999999966,
      "d": 133.9283749999886,
      "v": 86
    },
    {
      "midi": 60,
      "hit": false,
      "t": 244897.59999999966,
      "d": 357.1423333332932,
      "v": 100
    },
    {
      "midi": 45,
      "hit": false,
      "t": 244897.59999999966,
      "d": 1862.2421666666633,
      "v": 105
    },
    {
      "midi": 45,
      "hit": false,
      "t": 244897.6,
      "d": 1626.2731249999488,
      "v": 92
    },
    {
      "midi": 53,
      "hit": false,
      "t": 245203.72199999963,
      "d": 223.21395833333372,
      "v": 74
    },
    {
      "midi": 89,
      "hit": false,
      "t": 245203.72199999983,
      "d": 95.66312499999185,
      "v": 82
    },
    {
      "midi": 53,
      "hit": false,
      "t": 245203.72199999998,
      "d": 1466.834583333315,
      "v": 92
    },
    {
      "midi": 53,
      "hit": false,
      "t": 245509.84399999963,
      "d": 89.28558333334513,
      "v": 62
    },
    {
      "midi": 60,
      "hit": false,
      "t": 245509.84399999963,
      "d": 89.28558333334513,
      "v": 74
    },
    {
      "midi": 60,
      "hit": false,
      "t": 245509.84399999995,
      "d": 727.0397499999963,
      "v": 92
    },
    {
      "midi": 60,
      "hit": false,
      "t": 245815.96599999964,
      "d": 286.98937500000466,
      "v": 105
    },
    {
      "midi": 53,
      "hit": false,
      "t": 245815.96599999964,
      "d": 344.38724999999977,
      "v": 86
    },
    {
      "midi": 65,
      "hit": false,
      "t": 245815.96599999996,
      "d": 1141.5799583333137,
      "v": 92
    },
    {
      "midi": 84,
      "hit": false,
      "t": 246122.0879999998,
      "d": 121.17329166666605,
      "v": 70
    },
    {
      "midi": 55,
      "hit": false,
      "t": 246428.20999999964,
      "d": 229.59150000000955,
      "v": 105
    },
    {
      "midi": 60,
      "hit": false,
      "t": 246428.20999999996,
      "d": 440.0503749999916,
      "v": 92
    },
    {
      "midi": 57,
      "hit": false,
      "t": 246734.33199999965,
      "d": 223.21395833333372,
      "v": 100
    },
    {
      "midi": 53,
      "hit": false,
      "t": 246734.33199999997,
      "d": 172.19362499998533,
      "v": 92
    },
    {
      "midi": 60,
      "hit": false,
      "t": 247040.45399999965,
      "d": 886.4782916666591,
      "v": 100
    },
    {
      "midi": 53,
      "hit": false,
      "t": 247040.45399999994,
      "d": 338.00970833332394,
      "v": 92
    },
    {
      "midi": 55,
      "hit": false,
      "t": 247346.57599999965,
      "d": 714.2846666666446,
      "v": 105
    },
    {
      "midi": 48,
      "hit": false,
      "t": 247346.57599999965,
      "d": 1116.0697916666395,
      "v": 105
    },
    {
      "midi": 57,
      "hit": false,
      "t": 247346.57599999965,
      "d": 1205.3553749999846,
      "v": 105
    },
    {
      "midi": 41,
      "hit": false,
      "t": 247346.57599999965,
      "d": 1275.5083333333023,
      "v": 105
    },
    {
      "midi": 60,
      "hit": false,
      "t": 247346.57599999994,
      "d": 1020.4066666666477,
      "v": 92
    },
    {
      "midi": 65,
      "hit": false,
      "t": 247346.57599999994,
      "d": 1026.7842083333235,
      "v": 92
    },
    {
      "midi": 69,
      "hit": false,
      "t": 247346.57599999994,
      "d": 1167.090124999988,
      "v": 92
    },
    {
      "midi": 53,
      "hit": false,
      "t": 247958.81999999963,
      "d": 491.07070833334,
      "v": 86
    },
    {
      "midi": 43,
      "hit": false,
      "t": 248571.06399999963,
      "d": 1103.314708333317,
      "v": 105
    },
    {
      "midi": 50,
      "hit": false,
      "t": 248571.06399999963,
      "d": 1103.314708333317,
      "v": 100
    },
    {
      "midi": 55,
      "hit": false,
      "t": 248571.06399999963,
      "d": 1154.3350416666362,
      "v": 105
    },
    {
      "midi": 59,
      "hit": false,
      "t": 248571.06399999963,
      "d": 1167.0901249999588,
      "v": 105
    },
    {
      "midi": 62,
      "hit": false,
      "t": 248571.06399999993,
      "d": 1058.6719166666735,
      "v": 92
    },
    {
      "midi": 67,
      "hit": false,
      "t": 248571.06399999993,
      "d": 1096.9371666666702,
      "v": 92
    },
    {
      "midi": 71,
      "hit": false,
      "t": 248571.06399999993,
      "d": 1103.314708333346,
      "v": 92
    },
    {
      "midi": 52,
      "hit": false,
      "t": 249795.5519999996,
      "d": 7353.305541666661,
      "v": 105
    },
    {
      "midi": 60,
      "hit": false,
      "t": 249795.5519999996,
      "d": 7385.193249999982,
      "v": 100
    },
    {
      "midi": 43,
      "hit": false,
      "t": 249795.5519999996,
      "d": 7397.948333333305,
      "v": 105
    },
    {
      "midi": 36,
      "hit": false,
      "t": 249795.5519999996,
      "d": 7404.32587499998,
      "v": 105
    },
    {
      "midi": 67,
      "hit": false,
      "t": 249795.55199999994,
      "d": 7366.060625000013,
      "v": 92
    },
    {
      "midi": 64,
      "hit": false,
      "t": 249795.55199999994,
      "d": 7378.815708333335,
      "v": 92
    },
    {
      "midi": 72,
      "hit": false,
      "t": 249795.55199999994,
      "d": 7378.815708333335,
      "v": 92
    }
  ]
}