{
  "jsonPath": "Pop/Dansktop/Johnny Logan/on-the-other-side-of-midnight.json",
  "path": "Pop\\Dansktop\\Johnny Logan\\On The Other Side Of Midnight.mid",
  "name": "On The Other Side Of Midnight",
  "difficulty": "Advanced",
  "bpm": 71.00003550001774,
  "notes": [
    {
      "midi": 57,
      "hit": false,
      "t": 3380.28,
      "d": 422.53499999999985,
      "v": 127
    },
    {
      "midi": 62,
      "hit": false,
      "t": 3380.28,
      "d": 528.1687499999998,
      "v": 127
    },
    {
      "midi": 69,
      "hit": false,
      "t": 3380.28,
      "d": 612.6757499999999,
      "v": 127
    },
    {
      "midi": 50,
      "hit": false,
      "t": 3380.28,
      "d": 1690.1399999999999,
      "v": 127
    },
    {
      "midi": 57,
      "hit": false,
      "t": 3802.815,
      "d": 1267.605,
      "v": 127
    },
    {
      "midi": 62,
      "hit": false,
      "t": 4014.0825,
      "d": 1056.3375,
      "v": 127
    },
    {
      "midi": 69,
      "hit": false,
      "t": 4436.6175,
      "d": 633.8024999999998,
      "v": 127
    },
    {
      "midi": 56,
      "hit": false,
      "t": 5070.42,
      "d": 1690.1399999999994,
      "v": 127
    },
    {
      "midi": 59,
      "hit": false,
      "t": 5070.42,
      "d": 1690.1399999999994,
      "v": 127
    },
    {
      "midi": 68,
      "hit": false,
      "t": 5070.42,
      "d": 1690.1399999999994,
      "v": 127
    },
    {
      "midi": 38,
      "hit": false,
      "t": 6126.7575,
      "d": 633.8024999999998,
      "v": 127
    },
    {
      "midi": 56,
      "hit": false,
      "t": 6760.5599999999995,
      "d": 1690.1399999999994,
      "v": 127
    },
    {
      "midi": 59,
      "hit": false,
      "t": 6760.5599999999995,
      "d": 1690.1399999999994,
      "v": 127
    },
    {
      "midi": 64,
      "hit": false,
      "t": 6760.5599999999995,
      "d": 1690.1399999999994,
      "v": 127
    },
    {
      "midi": 68,
      "hit": false,
      "t": 6760.5599999999995,
      "d": 1690.1399999999994,
      "v": 127
    },
    {
      "midi": 49,
      "hit": false,
      "t": 7816.897499999999,
      "d": 633.8024999999998,
      "v": 127
    },
    {
      "midi": 42,
      "hit": false,
      "t": 8450.699999999999,
      "d": 1690.1399999999994,
      "v": 127
    },
    {
      "midi": 54,
      "hit": false,
      "t": 8873.234999999999,
      "d": 1267.6049999999996,
      "v": 127
    },
    {
      "midi": 57,
      "hit": false,
      "t": 9084.502499999999,
      "d": 1056.3374999999996,
      "v": 127
    },
    {
      "midi": 64,
      "hit": false,
      "t": 9084.502499999999,
      "d": 1056.3374999999996,
      "v": 127
    },
    {
      "midi": 66,
      "hit": false,
      "t": 9084.502499999999,
      "d": 1056.3374999999996,
      "v": 127
    },
    {
      "midi": 54,
      "hit": false,
      "t": 10140.839999999998,
      "d": 422.53499999999985,
      "v": 127
    },
    {
      "midi": 59,
      "hit": false,
      "t": 10140.839999999998,
      "d": 528.1687500000007,
      "v": 127
    },
    {
      "midi": 66,
      "hit": false,
      "t": 10140.839999999998,
      "d": 612.6757500000003,
      "v": 127
    },
    {
      "midi": 47,
      "hit": false,
      "t": 10140.839999999998,
      "d": 1690.1399999999994,
      "v": 127
    },
    {
      "midi": 54,
      "hit": false,
      "t": 10563.374999999998,
      "d": 1267.6049999999996,
      "v": 127
    },
    {
      "midi": 59,
      "hit": false,
      "t": 10774.642499999998,
      "d": 1056.3374999999996,
      "v": 127
    },
    {
      "midi": 66,
      "hit": false,
      "t": 11197.177499999998,
      "d": 633.8024999999998,
      "v": 127
    },
    {
      "midi": 51,
      "hit": false,
      "t": 11830.979999999998,
      "d": 1690.1399999999994,
      "v": 127
    },
    {
      "midi": 54,
      "hit": false,
      "t": 12042.247499999998,
      "d": 964.7882499999996,
      "v": 127
    },
    {
      "midi": 59,
      "hit": false,
      "t": 12253.514999999998,
      "d": 1267.6049999999996,
      "v": 127
    },
    {
      "midi": 66,
      "hit": false,
      "t": 12464.782499999998,
      "d": 514.0842499999999,
      "v": 127
    },
    {
      "midi": 66,
      "hit": false,
      "t": 13098.584999999997,
      "d": 84.5069999999996,
      "v": 127
    },
    {
      "midi": 40,
      "hit": false,
      "t": 13521.119999999997,
      "d": 3239.4349999999995,
      "v": 127
    },
    {
      "midi": 59,
      "hit": false,
      "t": 13521.119999999997,
      "d": 3239.4349999999995,
      "v": 127
    },
    {
      "midi": 68,
      "hit": false,
      "t": 13521.119999999997,
      "d": 3239.4349999999995,
      "v": 127
    },
    {
      "midi": 45,
      "hit": false,
      "t": 16901.399999999998,
      "d": 1683.0977500000008,
      "v": 127
    },
    {
      "midi": 52,
      "hit": false,
      "t": 16901.399999999998,
      "d": 2035.21025,
      "v": 127
    },
    {
      "midi": 56,
      "hit": false,
      "t": 16901.399999999998,
      "d": 2253.5200000000004,
      "v": 127
    },
    {
      "midi": 61,
      "hit": false,
      "t": 16901.399999999998,
      "d": 2338.027000000002,
      "v": 127
    },
    {
      "midi": 64,
      "hit": false,
      "t": 16901.399999999998,
      "d": 2957.7450000000026,
      "v": 127
    },
    {
      "midi": 45,
      "hit": false,
      "t": 18802.8075,
      "d": 1302.8162499999999,
      "v": 127
    },
    {
      "midi": 52,
      "hit": false,
      "t": 19225.3425,
      "d": 873.2390000000014,
      "v": 127
    },
    {
      "midi": 56,
      "hit": false,
      "t": 19647.8775,
      "d": 577.4644999999982,
      "v": 127
    },
    {
      "midi": 61,
      "hit": false,
      "t": 19859.145,
      "d": 309.85899999999674,
      "v": 127
    },
    {
      "midi": 44,
      "hit": false,
      "t": 20281.679999999997,
      "d": 1690.140000000003,
      "v": 127
    },
    {
      "midi": 56,
      "hit": false,
      "t": 20704.214999999997,
      "d": 1267.6050000000032,
      "v": 127
    },
    {
      "midi": 59,
      "hit": false,
      "t": 20915.4825,
      "d": 1056.3375000000015,
      "v": 127
    },
    {
      "midi": 66,
      "hit": false,
      "t": 20915.4825,
      "d": 1056.3375000000015,
      "v": 127
    },
    {
      "midi": 68,
      "hit": false,
      "t": 20915.4825,
      "d": 1056.3375000000015,
      "v": 127
    },
    {
      "midi": 56,
      "hit": false,
      "t": 21971.82,
      "d": 422.53499999999985,
      "v": 127
    },
    {
      "midi": 59,
      "hit": false,
      "t": 21971.82,
      "d": 528.1687500000007,
      "v": 127
    },
    {
      "midi": 65,
      "hit": false,
      "t": 21971.82,
      "d": 612.6757500000022,
      "v": 127
    },
    {
      "midi": 68,
      "hit": false,
      "t": 21971.82,
      "d": 626.760250000003,
      "v": 127
    },
    {
      "midi": 49,
      "hit": false,
      "t": 21971.82,
      "d": 1690.1400000000067,
      "v": 127
    },
    {
      "midi": 56,
      "hit": false,
      "t": 22394.355,
      "d": 1267.6050000000068,
      "v": 127
    },
    {
      "midi": 59,
      "hit": false,
      "t": 22605.6225,
      "d": 1056.337500000005,
      "v": 127
    },
    {
      "midi": 65,
      "hit": false,
      "t": 23028.157500000005,
      "d": 633.8025000000016,
      "v": 127
    },
    {
      "midi": 54,
      "hit": false,
      "t": 23661.960000000006,
      "d": 922.5347500000025,
      "v": 127
    },
    {
      "midi": 57,
      "hit": false,
      "t": 23661.960000000006,
      "d": 1169.013500000001,
      "v": 127
    },
    {
      "midi": 42,
      "hit": false,
      "t": 23661.960000000006,
      "d": 3380.2800000000025,
      "v": 127
    },
    {
      "midi": 64,
      "hit": false,
      "t": 23873.227500000008,
      "d": 345.07025000000067,
      "v": 127
    },
    {
      "midi": 66,
      "hit": false,
      "t": 24295.762500000008,
      "d": 633.802499999998,
      "v": 127
    },
    {
      "midi": 54,
      "hit": false,
      "t": 24718.297500000008,
      "d": 753.5207499999997,
      "v": 127
    },
    {
      "midi": 57,
      "hit": false,
      "t": 24929.565000000006,
      "d": 753.5207500000033,
      "v": 127
    },
    {
      "midi": 64,
      "hit": false,
      "t": 25140.832500000008,
      "d": 612.6757500000022,
      "v": 127
    },
    {
      "midi": 54,
      "hit": false,
      "t": 25563.367500000008,
      "d": 661.9715000000033,
      "v": 127
    },
    {
      "midi": 57,
      "hit": false,
      "t": 25774.63500000001,
      "d": 1267.6049999999996,
      "v": 127
    },
    {
      "midi": 66,
      "hit": false,
      "t": 25985.90250000001,
      "d": 612.6757499999985,
      "v": 127
    },
    {
      "midi": 54,
      "hit": false,
      "t": 26408.43750000001,
      "d": 633.802499999998,
      "v": 127
    },
    {
      "midi": 64,
      "hit": false,
      "t": 26619.70500000001,
      "d": 422.53499999999985,
      "v": 127
    },
    {
      "midi": 40,
      "hit": false,
      "t": 27042.24000000001,
      "d": 1690.140000000003,
      "v": 127
    },
    {
      "midi": 52,
      "hit": false,
      "t": 27253.50750000001,
      "d": 978.8727500000023,
      "v": 127
    },
    {
      "midi": 55,
      "hit": false,
      "t": 27464.775000000012,
      "d": 1267.6049999999996,
      "v": 127
    },
    {
      "midi": 62,
      "hit": false,
      "t": 27676.042500000014,
      "d": 1056.3374999999978,
      "v": 127
    },
    {
      "midi": 64,
      "hit": false,
      "t": 28098.577500000014,
      "d": 633.802499999998,
      "v": 127
    },
    {
      "midi": 52,
      "hit": false,
      "t": 28309.845000000012,
      "d": 422.53499999999985,
      "v": 127
    },
    {
      "midi": 45,
      "hit": false,
      "t": 28732.380000000012,
      "d": 1690.1399999999994,
      "v": 127
    },
    {
      "midi": 55,
      "hit": false,
      "t": 28943.647500000014,
      "d": 788.732,
      "v": 127
    },
    {
      "midi": 61,
      "hit": false,
      "t": 28943.647500000014,
      "d": 852.1122499999983,
      "v": 127
    },
    {
      "midi": 64,
      "hit": false,
      "t": 28943.647500000014,
      "d": 866.1967499999992,
      "v": 127
    },
    {
      "midi": 52,
      "hit": false,
      "t": 29366.182500000014,
      "d": 260.56324999999924,
      "v": 127
    },
    {
      "midi": 52,
      "hit": false,
      "t": 29788.717500000013,
      "d": 633.802499999998,
      "v": 127
    },
    {
      "midi": 55,
      "hit": false,
      "t": 29999.98500000001,
      "d": 422.53499999999985,
      "v": 127
    },
    {
      "midi": 61,
      "hit": false,
      "t": 29999.98500000001,
      "d": 422.53499999999985,
      "v": 127
    },
    {
      "midi": 64,
      "hit": false,
      "t": 29999.98500000001,
      "d": 422.53499999999985,
      "v": 127
    },
    {
      "midi": 50,
      "hit": false,
      "t": 30422.52000000001,
      "d": 1690.140000000003,
      "v": 127
    },
    {
      "midi": 57,
      "hit": false,
      "t": 30845.05500000001,
      "d": 1267.6050000000032,
      "v": 127
    },
    {
      "midi": 62,
      "hit": false,
      "t": 31056.322500000013,
      "d": 1056.3375000000015,
      "v": 127
    },
    {
      "midi": 69,
      "hit": false,
      "t": 31056.322500000013,
      "d": 1056.3375000000015,
      "v": 127
    },
    {
      "midi": 38,
      "hit": false,
      "t": 32112.660000000014,
      "d": 1690.140000000003,
      "v": 127
    },
    {
      "midi": 56,
      "hit": false,
      "t": 32535.195000000014,
      "d": 1267.6050000000032,
      "v": 127
    },
    {
      "midi": 59,
      "hit": false,
      "t": 32746.462500000016,
      "d": 1056.3375000000015,
      "v": 127
    },
    {
      "midi": 68,
      "hit": false,
      "t": 32746.462500000016,
      "d": 1056.3375000000015,
      "v": 127
    },
    {
      "midi": 49,
      "hit": false,
      "t": 33802.80000000002,
      "d": 1690.1400000000067,
      "v": 127
    },
    {
      "midi": 59,
      "hit": false,
      "t": 34014.06750000002,
      "d": 788.7320000000036,
      "v": 127
    },
    {
      "midi": 64,
      "hit": false,
      "t": 34014.06750000002,
      "d": 852.1122500000056,
      "v": 127
    },
    {
      "midi": 68,
      "hit": false,
      "t": 34014.06750000002,
      "d": 866.1967500000028,
      "v": 127
    },
    {
      "midi": 56,
      "hit": false,
      "t": 34436.60250000002,
      "d": 260.56324999999924,
      "v": 127
    },
    {
      "midi": 56,
      "hit": false,
      "t": 34859.137500000026,
      "d": 633.802499999998,
      "v": 127
    },
    {
      "midi": 59,
      "hit": false,
      "t": 35070.40500000002,
      "d": 422.5350000000035,
      "v": 127
    },
    {
      "midi": 64,
      "hit": false,
      "t": 35070.40500000002,
      "d": 422.5350000000035,
      "v": 127
    },
    {
      "midi": 68,
      "hit": false,
      "t": 35070.40500000002,
      "d": 422.5350000000035,
      "v": 127
    },
    {
      "midi": 42,
      "hit": false,
      "t": 35492.940000000024,
      "d": 1690.1399999999994,
      "v": 127
    },
    {
      "midi": 54,
      "hit": false,
      "t": 35704.207500000026,
      "d": 964.7882500000051,
      "v": 127
    },
    {
      "midi": 57,
      "hit": false,
      "t": 35915.47500000003,
      "d": 1267.604999999996,
      "v": 127
    },
    {
      "midi": 64,
      "hit": false,
      "t": 36126.74250000003,
      "d": 514.0842499999999,
      "v": 127
    },
    {
      "midi": 66,
      "hit": false,
      "t": 36549.27750000003,
      "d": 295.77449999999226,
      "v": 127
    },
    {
      "midi": 64,
      "hit": false,
      "t": 36760.54500000003,
      "d": 422.5349999999962,
      "v": 127
    },
    {
      "midi": 47,
      "hit": false,
      "t": 37183.08000000002,
      "d": 1690.140000000014,
      "v": 127
    },
    {
      "midi": 59,
      "hit": false,
      "t": 37394.347500000025,
      "d": 788.7320000000036,
      "v": 127
    },
    {
      "midi": 66,
      "hit": false,
      "t": 37394.347500000025,
      "d": 852.1122500000056,
      "v": 127
    },
    {
      "midi": 54,
      "hit": false,
      "t": 37816.88250000003,
      "d": 260.56324999999924,
      "v": 127
    },
    {
      "midi": 54,
      "hit": false,
      "t": 38239.41750000003,
      "d": 633.8025000000052,
      "v": 127
    },
    {
      "midi": 59,
      "hit": false,
      "t": 38450.685000000034,
      "d": 422.5350000000035,
      "v": 127
    },
    {
      "midi": 66,
      "hit": false,
      "t": 38450.685000000034,
      "d": 422.5350000000035,
      "v": 127
    },
    {
      "midi": 54,
      "hit": false,
      "t": 38873.22000000004,
      "d": 1084.5065000000031,
      "v": 127
    },
    {
      "midi": 59,
      "hit": false,
      "t": 38873.22000000004,
      "d": 1478.872500000005,
      "v": 127
    },
    {
      "midi": 51,
      "hit": false,
      "t": 38873.22000000004,
      "d": 1690.1400000000067,
      "v": 127
    },
    {
      "midi": 66,
      "hit": false,
      "t": 38873.22000000004,
      "d": 1690.1400000000067,
      "v": 127
    },
    {
      "midi": 54,
      "hit": false,
      "t": 40352.09250000004,
      "d": 211.26750000000175,
      "v": 127
    },
    {
      "midi": 56,
      "hit": false,
      "t": 40563.360000000044,
      "d": 1084.5065000000031,
      "v": 127
    },
    {
      "midi": 59,
      "hit": false,
      "t": 40563.360000000044,
      "d": 1478.872500000005,
      "v": 127
    },
    {
      "midi": 40,
      "hit": false,
      "t": 40563.360000000044,
      "d": 1690.1400000000067,
      "v": 127
    },
    {
      "midi": 68,
      "hit": false,
      "t": 40563.360000000044,
      "d": 1690.1400000000067,
      "v": 127
    },
    {
      "midi": 56,
      "hit": false,
      "t": 42042.23250000005,
      "d": 211.26750000000175,
      "v": 127
    },
    {
      "midi": 40,
      "hit": false,
      "t": 42253.50000000005,
      "d": 1549.2949999999983,
      "v": 127
    },
    {
      "midi": 52,
      "hit": false,
      "t": 43943.64000000005,
      "d": 922.5347499999989,
      "v": 127
    },
    {
      "midi": 56,
      "hit": false,
      "t": 43943.64000000005,
      "d": 1169.013500000001,
      "v": 127
    },
    {
      "midi": 45,
      "hit": false,
      "t": 43943.64000000005,
      "d": 3380.2800000000134,
      "v": 127
    },
    {
      "midi": 61,
      "hit": false,
      "t": 44154.90750000005,
      "d": 345.07024999999703,
      "v": 127
    },
    {
      "midi": 64,
      "hit": false,
      "t": 44577.44250000005,
      "d": 633.8025000000052,
      "v": 127
    },
    {
      "midi": 52,
      "hit": false,
      "t": 44999.97750000005,
      "d": 753.5207500000033,
      "v": 127
    },
    {
      "midi": 56,
      "hit": false,
      "t": 45211.24500000005,
      "d": 753.520749999996,
      "v": 127
    },
    {
      "midi": 61,
      "hit": false,
      "t": 45422.512500000055,
      "d": 612.6757499999949,
      "v": 127
    },
    {
      "midi": 52,
      "hit": false,
      "t": 45845.04750000005,
      "d": 661.9715000000069,
      "v": 127
    },
    {
      "midi": 56,
      "hit": false,
      "t": 46056.31500000005,
      "d": 1267.6050000000105,
      "v": 127
    },
    {
      "midi": 64,
      "hit": false,
      "t": 46267.582500000055,
      "d": 612.6757500000022,
      "v": 127
    },
    {
      "midi": 52,
      "hit": false,
      "t": 46690.11750000006,
      "d": 633.8025000000052,
      "v": 127
    },
    {
      "midi": 61,
      "hit": false,
      "t": 46901.38500000006,
      "d": 422.5350000000035,
      "v": 127
    },
    {
      "midi": 56,
      "hit": false,
      "t": 47323.920000000064,
      "d": 422.5350000000035,
      "v": 127
    },
    {
      "midi": 59,
      "hit": false,
      "t": 47323.920000000064,
      "d": 528.1687500000044,
      "v": 127
    },
    {
      "midi": 66,
      "hit": false,
      "t": 47323.920000000064,
      "d": 612.6757500000022,
      "v": 127
    },
    {
      "midi": 68,
      "hit": false,
      "t": 47323.920000000064,
      "d": 626.7602499999994,
      "v": 127
    },
    {
      "midi": 44,
      "hit": false,
      "t": 47323.920000000064,
      "d": 1690.1399999999994,
      "v": 127
    },
    {
      "midi": 56,
      "hit": false,
      "t": 47746.45500000007,
      "d": 1267.604999999996,
      "v": 127
    },
    {
      "midi": 59,
      "hit": false,
      "t": 47957.72250000006,
      "d": 1056.3375000000015,
      "v": 127
    },
    {
      "midi": 66,
      "hit": false,
      "t": 48380.257500000065,
      "d": 633.802499999998,
      "v": 127
    },
    {
      "midi": 56,
      "hit": false,
      "t": 49014.06000000006,
      "d": 422.5350000000035,
      "v": 127
    },
    {
      "midi": 59,
      "hit": false,
      "t": 49014.06000000006,
      "d": 528.1687500000044,
      "v": 127
    },
    {
      "midi": 65,
      "hit": false,
      "t": 49014.06000000006,
      "d": 612.6757500000022,
      "v": 127
    },
    {
      "midi": 68,
      "hit": false,
      "t": 49014.06000000006,
      "d": 626.7602499999994,
      "v": 127
    },
    {
      "midi": 49,
      "hit": false,
      "t": 49014.06000000006,
      "d": 1690.1399999999994,
      "v": 127
    },
    {
      "midi": 56,
      "hit": false,
      "t": 49436.59500000007,
      "d": 1267.604999999996,
      "v": 127
    },
    {
      "midi": 59,
      "hit": false,
      "t": 49647.86250000006,
      "d": 1056.3375000000015,
      "v": 127
    },
    {
      "midi": 65,
      "hit": false,
      "t": 50070.397500000065,
      "d": 633.802499999998,
      "v": 127
    },
    {
      "midi": 54,
      "hit": false,
      "t": 50704.20000000006,
      "d": 2450.7030000000013,
      "v": 127
    },
    {
      "midi": 57,
      "hit": false,
      "t": 50704.20000000006,
      "d": 2830.9844999999987,
      "v": 127
    },
    {
      "midi": 64,
      "hit": false,
      "t": 50704.20000000006,
      "d": 2852.1112500000017,
      "v": 127
    },
    {
      "midi": 42,
      "hit": false,
      "t": 50704.20000000006,
      "d": 3380.280000000006,
      "v": 127
    },
    {
      "midi": 66,
      "hit": false,
      "t": 52183.07250000006,
      "d": 1507.0415000000066,
      "v": 127
    },
    {
      "midi": 73,
      "hit": false,
      "t": 52183.07250000006,
      "d": 1640.8442500000092,
      "v": 127
    },
    {
      "midi": 69,
      "hit": false,
      "t": 52183.07250000006,
      "d": 1697.1822500000126,
      "v": 127
    },
    {
      "midi": 54,
      "hit": false,
      "t": 53450.67750000006,
      "d": 633.8025000000052,
      "v": 127
    },
    {
      "midi": 64,
      "hit": false,
      "t": 53661.945000000065,
      "d": 422.5350000000035,
      "v": 127
    },
    {
      "midi": 66,
      "hit": false,
      "t": 53880.25475000007,
      "d": 154.92949999999837,
      "v": 127
    },
    {
      "midi": 40,
      "hit": false,
      "t": 54084.48000000007,
      "d": 1690.1400000000067,
      "v": 127
    },
    {
      "midi": 55,
      "hit": false,
      "t": 54295.74750000007,
      "d": 788.7320000000036,
      "v": 127
    },
    {
      "midi": 62,
      "hit": false,
      "t": 54295.74750000007,
      "d": 852.1122500000056,
      "v": 127
    },
    {
      "midi": 64,
      "hit": false,
      "t": 54295.74750000007,
      "d": 866.1967500000028,
      "v": 127
    },
    {
      "midi": 52,
      "hit": false,
      "t": 54718.282500000074,
      "d": 260.56324999999924,
      "v": 127
    },
    {
      "midi": 52,
      "hit": false,
      "t": 55140.81750000008,
      "d": 633.802499999998,
      "v": 127
    },
    {
      "midi": 55,
      "hit": false,
      "t": 55352.08500000007,
      "d": 422.5350000000035,
      "v": 127
    },
    {
      "midi": 62,
      "hit": false,
      "t": 55352.08500000007,
      "d": 422.5350000000035,
      "v": 127
    },
    {
      "midi": 64,
      "hit": false,
      "t": 55352.08500000007,
      "d": 422.5350000000035,
      "v": 127
    },
    {
      "midi": 45,
      "hit": false,
      "t": 55774.620000000075,
      "d": 1690.140000000014,
      "v": 127
    },
    {
      "midi": 52,
      "hit": false,
      "t": 55985.88750000008,
      "d": 978.8727500000095,
      "v": 127
    },
    {
      "midi": 55,
      "hit": false,
      "t": 56197.15500000008,
      "d": 1267.6050000000105,
      "v": 127
    },
    {
      "midi": 61,
      "hit": false,
      "t": 56408.42250000008,
      "d": 1056.3375000000087,
      "v": 127
    },
    {
      "midi": 64,
      "hit": false,
      "t": 56830.957500000084,
      "d": 633.8025000000052,
      "v": 127
    },
    {
      "midi": 52,
      "hit": false,
      "t": 57042.225000000086,
      "d": 422.5350000000035,
      "v": 127
    },
    {
      "midi": 50,
      "hit": false,
      "t": 57464.76000000009,
      "d": 1690.1399999999994,
      "v": 127
    },
    {
      "midi": 57,
      "hit": false,
      "t": 57676.02750000009,
      "d": 964.7882500000051,
      "v": 127
    },
    {
      "midi": 62,
      "hit": false,
      "t": 57887.29500000009,
      "d": 1267.604999999996,
      "v": 127
    },
    {
      "midi": 69,
      "hit": false,
      "t": 58098.562500000095,
      "d": 514.0842499999999,
      "v": 127
    },
    {
      "midi": 69,
      "hit": false,
      "t": 58732.36500000009,
      "d": 84.50699999999779,
      "v": 127
    },
    {
      "midi": 38,
      "hit": false,
      "t": 59154.90000000009,
      "d": 1690.140000000014,
      "v": 127
    },
    {
      "midi": 59,
      "hit": false,
      "t": 59366.16750000009,
      "d": 788.7320000000036,
      "v": 127
    },
    {
      "midi": 68,
      "hit": false,
      "t": 59366.16750000009,
      "d": 852.1122500000056,
      "v": 127
    },
    {
      "midi": 56,
      "hit": false,
      "t": 59788.702500000094,
      "d": 260.56324999999924,
      "v": 127
    },
    {
      "midi": 56,
      "hit": false,
      "t": 60211.2375000001,
      "d": 633.8025000000052,
      "v": 127
    },
    {
      "midi": 59,
      "hit": false,
      "t": 60422.5050000001,
      "d": 422.5350000000035,
      "v": 127
    },
    {
      "midi": 68,
      "hit": false,
      "t": 60422.5050000001,
      "d": 422.5350000000035,
      "v": 127
    },
    {
      "midi": 56,
      "hit": false,
      "t": 60845.0400000001,
      "d": 1690.1399999999994,
      "v": 127
    },
    {
      "midi": 59,
      "hit": false,
      "t": 60845.0400000001,
      "d": 1690.1399999999994,
      "v": 127
    },
    {
      "midi": 64,
      "hit": false,
      "t": 60845.0400000001,
      "d": 1690.1399999999994,
      "v": 127
    },
    {
      "midi": 68,
      "hit": false,
      "t": 60845.0400000001,
      "d": 1690.1399999999994,
      "v": 127
    },
    {
      "midi": 49,
      "hit": false,
      "t": 61901.377500000104,
      "d": 633.802499999998,
      "v": 127
    },
    {
      "midi": 42,
      "hit": false,
      "t": 62535.1800000001,
      "d": 1690.1400000000067,
      "v": 127
    },
    {
      "midi": 54,
      "hit": false,
      "t": 62957.715000000106,
      "d": 1267.6050000000032,
      "v": 127
    },
    {
      "midi": 57,
      "hit": false,
      "t": 63168.98250000011,
      "d": 1056.3375000000015,
      "v": 127
    },
    {
      "midi": 64,
      "hit": false,
      "t": 63168.98250000011,
      "d": 1056.3375000000015,
      "v": 127
    },
    {
      "midi": 66,
      "hit": false,
      "t": 63168.98250000011,
      "d": 1056.3375000000015,
      "v": 127
    },
    {
      "midi": 47,
      "hit": false,
      "t": 64225.32000000011,
      "d": 1690.140000000014,
      "v": 127
    },
    {
      "midi": 54,
      "hit": false,
      "t": 64436.58750000011,
      "d": 964.7882500000051,
      "v": 127
    },
    {
      "midi": 57,
      "hit": false,
      "t": 64647.85500000011,
      "d": 1267.6050000000105,
      "v": 127
    },
    {
      "midi": 62,
      "hit": false,
      "t": 64859.122500000114,
      "d": 514.0842499999999,
      "v": 127
    },
    {
      "midi": 66,
      "hit": false,
      "t": 65281.65750000012,
      "d": 295.77449999999953,
      "v": 127
    },
    {
      "midi": 62,
      "hit": false,
      "t": 65492.92500000011,
      "d": 422.53500000001077,
      "v": 127
    },
    {
      "midi": 57,
      "hit": false,
      "t": 65915.46000000012,
      "d": 1690.1399999999994,
      "v": 127
    },
    {
      "midi": 62,
      "hit": false,
      "t": 65915.46000000012,
      "d": 1690.1399999999994,
      "v": 127
    },
    {
      "midi": 69,
      "hit": false,
      "t": 65915.46000000012,
      "d": 1690.1399999999994,
      "v": 127
    },
    {
      "midi": 52,
      "hit": false,
      "t": 66971.79750000012,
      "d": 633.8025000000052,
      "v": 127
    },
    {
      "midi": 52,
      "hit": false,
      "t": 67605.60000000012,
      "d": 2450.702999999994,
      "v": 127
    },
    {
      "midi": 56,
      "hit": false,
      "t": 67605.60000000012,
      "d": 2830.9844999999914,
      "v": 127
    },
    {
      "midi": 61,
      "hit": false,
      "t": 67605.60000000012,
      "d": 2852.111249999987,
      "v": 127
    },
    {
      "midi": 45,
      "hit": false,
      "t": 67605.60000000012,
      "d": 3380.2799999999843,
      "v": 127
    },
    {
      "midi": 64,
      "hit": false,
      "t": 69084.47250000012,
      "d": 1507.0414999999775,
      "v": 127
    },
    {
      "midi": 71,
      "hit": false,
      "t": 69084.47250000012,
      "d": 1640.84424999998,
      "v": 127
    },
    {
      "midi": 68,
      "hit": false,
      "t": 69084.47250000012,
      "d": 1697.1822499999835,
      "v": 127
    },
    {
      "midi": 52,
      "hit": false,
      "t": 70352.07750000012,
      "d": 633.8024999999907,
      "v": 127
    },
    {
      "midi": 61,
      "hit": false,
      "t": 70563.3450000001,
      "d": 422.5350000000035,
      "v": 127
    },
    {
      "midi": 64,
      "hit": false,
      "t": 70781.6547500001,
      "d": 154.92949999999837,
      "v": 127
    },
    {
      "midi": 50,
      "hit": false,
      "t": 70985.8800000001,
      "d": 1683.0977500000154,
      "v": 127
    },
    {
      "midi": 57,
      "hit": false,
      "t": 70985.8800000001,
      "d": 2035.2102500000183,
      "v": 127
    },
    {
      "midi": 61,
      "hit": false,
      "t": 70985.8800000001,
      "d": 2253.5200000000186,
      "v": 127
    },
    {
      "midi": 66,
      "hit": false,
      "t": 70985.8800000001,
      "d": 2338.0270000000164,
      "v": 127
    },
    {
      "midi": 69,
      "hit": false,
      "t": 70985.8800000001,
      "d": 2957.7450000000244,
      "v": 127
    },
    {
      "midi": 50,
      "hit": false,
      "t": 72887.28750000012,
      "d": 1302.8162500000035,
      "v": 127
    },
    {
      "midi": 57,
      "hit": false,
      "t": 73309.82250000013,
      "d": 873.2390000000014,
      "v": 127
    },
    {
      "midi": 61,
      "hit": false,
      "t": 73732.35750000013,
      "d": 577.4645000000019,
      "v": 127
    },
    {
      "midi": 66,
      "hit": false,
      "t": 73943.62500000013,
      "d": 309.85899999999674,
      "v": 127
    },
    {
      "midi": 52,
      "hit": false,
      "t": 74366.16000000013,
      "d": 922.5347500000062,
      "v": 127
    },
    {
      "midi": 56,
      "hit": false,
      "t": 74366.16000000013,
      "d": 1169.0135000000155,
      "v": 127
    },
    {
      "midi": 45,
      "hit": false,
      "t": 74366.16000000013,
      "d": 3380.2800000000134,
      "v": 127
    },
    {
      "midi": 61,
      "hit": false,
      "t": 74577.42750000014,
      "d": 345.0702500000043,
      "v": 127
    },
    {
      "midi": 64,
      "hit": false,
      "t": 74999.96250000014,
      "d": 633.8025000000052,
      "v": 127
    },
    {
      "midi": 52,
      "hit": false,
      "t": 75422.49750000014,
      "d": 753.5207500000106,
      "v": 127
    },
    {
      "midi": 56,
      "hit": false,
      "t": 75633.76500000014,
      "d": 753.5207500000106,
      "v": 127
    },
    {
      "midi": 61,
      "hit": false,
      "t": 75845.03250000015,
      "d": 612.6757500000094,
      "v": 127
    },
    {
      "midi": 52,
      "hit": false,
      "t": 76267.56750000015,
      "d": 661.9714999999997,
      "v": 127
    },
    {
      "midi": 56,
      "hit": false,
      "t": 76478.83500000015,
      "d": 1267.604999999996,
      "v": 127
    },
    {
      "midi": 64,
      "hit": false,
      "t": 76690.10250000015,
      "d": 612.6757499999949,
      "v": 127
    },
    {
      "midi": 52,
      "hit": false,
      "t": 77112.63750000014,
      "d": 633.8025000000052,
      "v": 127
    },
    {
      "midi": 61,
      "hit": false,
      "t": 77323.90500000014,
      "d": 422.5350000000035,
      "v": 127
    },
    {
      "midi": 50,
      "hit": false,
      "t": 77746.44000000015,
      "d": 1683.0977500000154,
      "v": 127
    },
    {
      "midi": 57,
      "hit": false,
      "t": 77746.44000000015,
      "d": 2035.2102500000183,
      "v": 127
    },
    {
      "midi": 61,
      "hit": false,
      "t": 77746.44000000015,
      "d": 2253.5200000000186,
      "v": 127
    },
    {
      "midi": 66,
      "hit": false,
      "t": 77746.44000000015,
      "d": 2338.0270000000164,
      "v": 127
    },
    {
      "midi": 69,
      "hit": false,
      "t": 77746.44000000015,
      "d": 2957.7450000000244,
      "v": 127
    },
    {
      "midi": 50,
      "hit": false,
      "t": 79647.84750000016,
      "d": 1302.8162500000035,
      "v": 127
    },
    {
      "midi": 57,
      "hit": false,
      "t": 80070.38250000017,
      "d": 873.2390000000014,
      "v": 127
    },
    {
      "midi": 61,
      "hit": false,
      "t": 80492.91750000017,
      "d": 577.4645000000019,
      "v": 127
    },
    {
      "midi": 66,
      "hit": false,
      "t": 80704.18500000017,
      "d": 309.85899999999674,
      "v": 127
    },
    {
      "midi": 52,
      "hit": false,
      "t": 81126.72000000018,
      "d": 2450.702999999994,
      "v": 127
    },
    {
      "midi": 56,
      "hit": false,
      "t": 81126.72000000018,
      "d": 2830.9844999999914,
      "v": 127
    },
    {
      "midi": 61,
      "hit": false,
      "t": 81126.72000000018,
      "d": 2852.111249999987,
      "v": 127
    },
    {
      "midi": 45,
      "hit": false,
      "t": 81126.72000000018,
      "d": 3380.2799999999843,
      "v": 127
    },
    {
      "midi": 64,
      "hit": false,
      "t": 82605.59250000017,
      "d": 1507.0414999999775,
      "v": 127
    },
    {
      "midi": 71,
      "hit": false,
      "t": 82605.59250000017,
      "d": 1640.84424999998,
      "v": 127
    },
    {
      "midi": 68,
      "hit": false,
      "t": 82605.59250000017,
      "d": 1697.1822499999835,
      "v": 127
    },
    {
      "midi": 52,
      "hit": false,
      "t": 83873.19750000017,
      "d": 633.8024999999907,
      "v": 127
    },
    {
      "midi": 61,
      "hit": false,
      "t": 84084.46500000016,
      "d": 422.5350000000035,
      "v": 127
    },
    {
      "midi": 64,
      "hit": false,
      "t": 84302.77475000016,
      "d": 154.92949999999837,
      "v": 127
    },
    {
      "midi": 50,
      "hit": false,
      "t": 84507.00000000016,
      "d": 1683.0977500000154,
      "v": 127
    },
    {
      "midi": 57,
      "hit": false,
      "t": 84507.00000000016,
      "d": 2035.2102500000183,
      "v": 127
    },
    {
      "midi": 61,
      "hit": false,
      "t": 84507.00000000016,
      "d": 2253.5200000000186,
      "v": 127
    },
    {
      "midi": 66,
      "hit": false,
      "t": 84507.00000000016,
      "d": 2338.0270000000164,
      "v": 127
    },
    {
      "midi": 69,
      "hit": false,
      "t": 84507.00000000016,
      "d": 2957.7450000000244,
      "v": 127
    },
    {
      "midi": 50,
      "hit": false,
      "t": 86408.40750000018,
      "d": 1302.8162500000035,
      "v": 127
    },
    {
      "midi": 57,
      "hit": false,
      "t": 86830.94250000018,
      "d": 873.2390000000014,
      "v": 127
    },
    {
      "midi": 61,
      "hit": false,
      "t": 87253.47750000018,
      "d": 577.4645000000019,
      "v": 127
    },
    {
      "midi": 66,
      "hit": false,
      "t": 87464.74500000018,
      "d": 309.85899999999674,
      "v": 127
    },
    {
      "midi": 52,
      "hit": false,
      "t": 87887.28000000019,
      "d": 1690.1399999999994,
      "v": 127
    },
    {
      "midi": 56,
      "hit": false,
      "t": 87887.28000000019,
      "d": 1690.1399999999994,
      "v": 127
    },
    {
      "midi": 61,
      "hit": false,
      "t": 87887.28000000019,
      "d": 1690.1399999999994,
      "v": 127
    },
    {
      "midi": 64,
      "hit": false,
      "t": 87887.28000000019,
      "d": 1690.1399999999994,
      "v": 127
    },
    {
      "midi": 45,
      "hit": false,
      "t": 88943.61750000018,
      "d": 633.8025000000052,
      "v": 127
    },
    {
      "midi": 42,
      "hit": false,
      "t": 89577.42000000019,
      "d": 1690.1399999999994,
      "v": 127
    },
    {
      "midi": 54,
      "hit": false,
      "t": 89788.68750000019,
      "d": 964.7882499999978,
      "v": 127
    },
    {
      "midi": 57,
      "hit": false,
      "t": 89999.95500000019,
      "d": 1267.604999999996,
      "v": 127
    },
    {
      "midi": 64,
      "hit": false,
      "t": 90211.22250000019,
      "d": 514.0842499999999,
      "v": 127
    },
    {
      "midi": 66,
      "hit": false,
      "t": 90633.7575000002,
      "d": 295.774499999985,
      "v": 127
    },
    {
      "midi": 64,
      "hit": false,
      "t": 90845.02500000018,
      "d": 422.5350000000035,
      "v": 127
    },
    {
      "midi": 54,
      "hit": false,
      "t": 91267.56000000019,
      "d": 422.5350000000035,
      "v": 127
    },
    {
      "midi": 59,
      "hit": false,
      "t": 91267.56000000019,
      "d": 528.1687499999971,
      "v": 127
    },
    {
      "midi": 66,
      "hit": false,
      "t": 91267.56000000019,
      "d": 612.6757499999949,
      "v": 127
    },
    {
      "midi": 47,
      "hit": false,
      "t": 91267.56000000019,
      "d": 1690.1399999999994,
      "v": 127
    },
    {
      "midi": 54,
      "hit": false,
      "t": 91690.09500000019,
      "d": 1267.604999999996,
      "v": 127
    },
    {
      "midi": 59,
      "hit": false,
      "t": 91901.36250000018,
      "d": 1056.3375000000087,
      "v": 127
    },
    {
      "midi": 66,
      "hit": false,
      "t": 92323.89750000018,
      "d": 633.8025000000052,
      "v": 127
    },
    {
      "midi": 54,
      "hit": false,
      "t": 92957.70000000019,
      "d": 1690.1399999999994,
      "v": 127
    },
    {
      "midi": 59,
      "hit": false,
      "t": 92957.70000000019,
      "d": 1690.1399999999994,
      "v": 127
    },
    {
      "midi": 66,
      "hit": false,
      "t": 92957.70000000019,
      "d": 1690.1399999999994,
      "v": 127
    },
    {
      "midi": 51,
      "hit": false,
      "t": 94014.03750000018,
      "d": 633.8025000000052,
      "v": 127
    },
    {
      "midi": 56,
      "hit": false,
      "t": 94647.84000000019,
      "d": 1690.1399999999994,
      "v": 127
    },
    {
      "midi": 59,
      "hit": false,
      "t": 94647.84000000019,
      "d": 1690.1399999999994,
      "v": 127
    },
    {
      "midi": 68,
      "hit": false,
      "t": 94647.84000000019,
      "d": 1690.1399999999994,
      "v": 127
    },
    {
      "midi": 40,
      "hit": false,
      "t": 95704.17750000018,
      "d": 633.8025000000052,
      "v": 127
    },
    {
      "midi": 40,
      "hit": false,
      "t": 96337.98000000019,
      "d": 845.070000000007,
      "v": 127
    },
    {
      "midi": 52,
      "hit": false,
      "t": 96549.24750000019,
      "d": 633.8025000000052,
      "v": 127
    },
    {
      "midi": 55,
      "hit": false,
      "t": 96760.51500000019,
      "d": 422.5350000000035,
      "v": 127
    },
    {
      "midi": 62,
      "hit": false,
      "t": 96971.78250000019,
      "d": 211.26750000000175,
      "v": 127
    },
    {
      "midi": 45,
      "hit": false,
      "t": 97183.05000000019,
      "d": 845.070000000007,
      "v": 127
    },
    {
      "midi": 52,
      "hit": false,
      "t": 97394.3175000002,
      "d": 633.8025000000052,
      "v": 127
    },
    {
      "midi": 55,
      "hit": false,
      "t": 97605.5850000002,
      "d": 422.5350000000035,
      "v": 127
    },
    {
      "midi": 61,
      "hit": false,
      "t": 97816.8525000002,
      "d": 211.26750000000175,
      "v": 127
    },
    {
      "midi": 57,
      "hit": false,
      "t": 98028.1200000002,
      "d": 922.5347500000062,
      "v": 127
    },
    {
      "midi": 61,
      "hit": false,
      "t": 98028.1200000002,
      "d": 1169.0135000000155,
      "v": 127
    },
    {
      "midi": 50,
      "hit": false,
      "t": 98028.1200000002,
      "d": 3380.2800000000134,
      "v": 127
    },
    {
      "midi": 66,
      "hit": false,
      "t": 98239.3875000002,
      "d": 345.0702500000043,
      "v": 127
    },
    {
      "midi": 69,
      "hit": false,
      "t": 98661.9225000002,
      "d": 633.8025000000052,
      "v": 127
    },
    {
      "midi": 57,
      "hit": false,
      "t": 99084.45750000021,
      "d": 753.5207500000106,
      "v": 127
    },
    {
      "midi": 61,
      "hit": false,
      "t": 99295.72500000021,
      "d": 753.5207500000106,
      "v": 127
    },
    {
      "midi": 66,
      "hit": false,
      "t": 99506.99250000021,
      "d": 612.6757500000094,
      "v": 127
    },
    {
      "midi": 57,
      "hit": false,
      "t": 99929.52750000021,
      "d": 661.9714999999997,
      "v": 127
    },
    {
      "midi": 61,
      "hit": false,
      "t": 100140.79500000022,
      "d": 1267.604999999996,
      "v": 127
    },
    {
      "midi": 69,
      "hit": false,
      "t": 100352.06250000022,
      "d": 612.6757499999949,
      "v": 127
    },
    {
      "midi": 57,
      "hit": false,
      "t": 100774.5975000002,
      "d": 633.8025000000052,
      "v": 127
    },
    {
      "midi": 66,
      "hit": false,
      "t": 100985.86500000021,
      "d": 422.5350000000035,
      "v": 127
    },
    {
      "midi": 56,
      "hit": false,
      "t": 101408.40000000021,
      "d": 1119.7177499999962,
      "v": 127
    },
    {
      "midi": 61,
      "hit": false,
      "t": 101408.40000000021,
      "d": 1647.8864999999932,
      "v": 127
    },
    {
      "midi": 64,
      "hit": false,
      "t": 101408.40000000021,
      "d": 1915.4919999999838,
      "v": 127
    },
    {
      "midi": 71,
      "hit": false,
      "t": 101408.40000000021,
      "d": 2690.13949999999,
      "v": 127
    },
    {
      "midi": 45,
      "hit": false,
      "t": 101408.40000000021,
      "d": 3197.181499999977,
      "v": 127
    },
    {
      "midi": 52,
      "hit": false,
      "t": 102464.7375000002,
      "d": 2070.4214999999967,
      "v": 127
    },
    {
      "midi": 56,
      "hit": false,
      "t": 102887.27250000021,
      "d": 985.9149999999936,
      "v": 127
    },
    {
      "midi": 61,
      "hit": false,
      "t": 103309.8075000002,
      "d": 1239.4360000000015,
      "v": 127
    },
    {
      "midi": 64,
      "hit": false,
      "t": 103732.3425000002,
      "d": 732.3940000000002,
      "v": 127
    },
    {
      "midi": 56,
      "hit": false,
      "t": 104154.8775000002,
      "d": 450.70399999998335,
      "v": 127
    },
    {
      "midi": 71,
      "hit": false,
      "t": 104366.14500000021,
      "d": 211.2674999999872,
      "v": 127
    },
    {
      "midi": 57,
      "hit": false,
      "t": 104788.68000000018,
      "d": 922.5347500000062,
      "v": 127
    },
    {
      "midi": 61,
      "hit": false,
      "t": 104788.68000000018,
      "d": 1169.0135000000155,
      "v": 127
    },
    {
      "midi": 50,
      "hit": false,
      "t": 104788.68000000018,
      "d": 3380.2800000000134,
      "v": 127
    },
    {
      "midi": 66,
      "hit": false,
      "t": 104999.94750000018,
      "d": 345.0702500000043,
      "v": 127
    },
    {
      "midi": 69,
      "hit": false,
      "t": 105422.48250000019,
      "d": 633.8025000000052,
      "v": 127
    },
    {
      "midi": 57,
      "hit": false,
      "t": 105845.01750000019,
      "d": 753.5207500000106,
      "v": 127
    },
    {
      "midi": 61,
      "hit": false,
      "t": 106056.28500000019,
      "d": 753.5207500000106,
      "v": 127
    },
    {
      "midi": 66,
      "hit": false,
      "t": 106267.5525000002,
      "d": 612.6757500000094,
      "v": 127
    },
    {
      "midi": 57,
      "hit": false,
      "t": 106690.0875000002,
      "d": 661.9714999999997,
      "v": 127
    },
    {
      "midi": 61,
      "hit": false,
      "t": 106901.3550000002,
      "d": 1267.604999999996,
      "v": 127
    },
    {
      "midi": 69,
      "hit": false,
      "t": 107112.6225000002,
      "d": 612.6757499999949,
      "v": 127
    },
    {
      "midi": 57,
      "hit": false,
      "t": 107535.15750000019,
      "d": 633.8025000000052,
      "v": 127
    },
    {
      "midi": 66,
      "hit": false,
      "t": 107746.42500000019,
      "d": 422.5350000000035,
      "v": 127
    },
    {
      "midi": 45,
      "hit": false,
      "t": 108168.9600000002,
      "d": 1683.0977500000154,
      "v": 127
    },
    {
      "midi": 52,
      "hit": false,
      "t": 108168.9600000002,
      "d": 2035.2102500000183,
      "v": 127
    },
    {
      "midi": 56,
      "hit": false,
      "t": 108168.9600000002,
      "d": 2253.5200000000186,
      "v": 127
    },
    {
      "midi": 61,
      "hit": false,
      "t": 108168.9600000002,
      "d": 2338.0270000000164,
      "v": 127
    },
    {
      "midi": 64,
      "hit": false,
      "t": 108168.9600000002,
      "d": 2957.7450000000244,
      "v": 127
    },
    {
      "midi": 45,
      "hit": false,
      "t": 110070.36750000021,
      "d": 1302.8162500000035,
      "v": 127
    },
    {
      "midi": 52,
      "hit": false,
      "t": 110492.90250000021,
      "d": 873.2390000000014,
      "v": 127
    },
    {
      "midi": 56,
      "hit": false,
      "t": 110915.43750000022,
      "d": 577.4645000000019,
      "v": 127
    },
    {
      "midi": 61,
      "hit": false,
      "t": 111126.70500000022,
      "d": 309.85899999999674,
      "v": 127
    },
    {
      "midi": 61,
      "hit": false,
      "t": 111549.24000000022,
      "d": 1119.7177499999962,
      "v": 127
    },
    {
      "midi": 66,
      "hit": false,
      "t": 111549.24000000022,
      "d": 1647.8864999999932,
      "v": 127
    },
    {
      "midi": 69,
      "hit": false,
      "t": 111549.24000000022,
      "d": 1915.4919999999838,
      "v": 127
    },
    {
      "midi": 76,
      "hit": false,
      "t": 111549.24000000022,
      "d": 2690.13949999999,
      "v": 127
    },
    {
      "midi": 50,
      "hit": false,
      "t": 111549.24000000022,
      "d": 3197.181499999977,
      "v": 127
    },
    {
      "midi": 57,
      "hit": false,
      "t": 112605.57750000022,
      "d": 2070.4214999999967,
      "v": 127
    },
    {
      "midi": 61,
      "hit": false,
      "t": 113028.11250000022,
      "d": 985.9149999999936,
      "v": 127
    },
    {
      "midi": 66,
      "hit": false,
      "t": 113450.64750000021,
      "d": 1239.4360000000015,
      "v": 127
    },
    {
      "midi": 69,
      "hit": false,
      "t": 113873.18250000021,
      "d": 732.3940000000002,
      "v": 127
    },
    {
      "midi": 61,
      "hit": false,
      "t": 114295.71750000022,
      "d": 450.70399999998335,
      "v": 127
    },
    {
      "midi": 76,
      "hit": false,
      "t": 114506.98500000022,
      "d": 211.2674999999872,
      "v": 127
    },
    {
      "midi": 45,
      "hit": false,
      "t": 114929.5200000002,
      "d": 1690.140000000014,
      "v": 127
    },
    {
      "midi": 52,
      "hit": false,
      "t": 115140.7875000002,
      "d": 978.8727500000095,
      "v": 127
    },
    {
      "midi": 56,
      "hit": false,
      "t": 115352.0550000002,
      "d": 1267.6050000000105,
      "v": 127
    },
    {
      "midi": 61,
      "hit": false,
      "t": 115563.3225000002,
      "d": 1056.3375000000087,
      "v": 127
    },
    {
      "midi": 64,
      "hit": false,
      "t": 115985.8575000002,
      "d": 633.8025000000052,
      "v": 127
    },
    {
      "midi": 52,
      "hit": false,
      "t": 116197.1250000002,
      "d": 422.5350000000035,
      "v": 127
    },
    {
      "midi": 42,
      "hit": false,
      "t": 116619.6600000002,
      "d": 1690.1399999999994,
      "v": 127
    },
    {
      "midi": 54,
      "hit": false,
      "t": 117042.19500000021,
      "d": 1267.604999999996,
      "v": 127
    },
    {
      "midi": 57,
      "hit": false,
      "t": 117253.46250000021,
      "d": 1056.3374999999942,
      "v": 127
    },
    {
      "midi": 64,
      "hit": false,
      "t": 117253.46250000021,
      "d": 1056.3374999999942,
      "v": 127
    },
    {
      "midi": 66,
      "hit": false,
      "t": 117253.46250000021,
      "d": 1056.3374999999942,
      "v": 127
    },
    {
      "midi": 47,
      "hit": false,
      "t": 118309.8000000002,
      "d": 1690.140000000014,
      "v": 127
    },
    {
      "midi": 57,
      "hit": false,
      "t": 118521.06750000021,
      "d": 788.7320000000036,
      "v": 127
    },
    {
      "midi": 62,
      "hit": false,
      "t": 118521.06750000021,
      "d": 852.1122500000056,
      "v": 127
    },
    {
      "midi": 66,
      "hit": false,
      "t": 118521.06750000021,
      "d": 866.1967500000028,
      "v": 127
    },
    {
      "midi": 54,
      "hit": false,
      "t": 118943.60250000021,
      "d": 260.5632500000065,
      "v": 127
    },
    {
      "midi": 54,
      "hit": false,
      "t": 119366.13750000022,
      "d": 633.8025000000052,
      "v": 127
    },
    {
      "midi": 57,
      "hit": false,
      "t": 119577.40500000022,
      "d": 422.5350000000035,
      "v": 127
    },
    {
      "midi": 62,
      "hit": false,
      "t": 119577.40500000022,
      "d": 422.5350000000035,
      "v": 127
    },
    {
      "midi": 66,
      "hit": false,
      "t": 119577.40500000022,
      "d": 422.5350000000035,
      "v": 127
    },
    {
      "midi": 56,
      "hit": false,
      "t": 119999.94000000022,
      "d": 422.5350000000035,
      "v": 127
    },
    {
      "midi": 59,
      "hit": false,
      "t": 119999.94000000022,
      "d": 528.1687499999971,
      "v": 127
    },
    {
      "midi": 68,
      "hit": false,
      "t": 119999.94000000022,
      "d": 612.6757499999949,
      "v": 127
    },
    {
      "midi": 40,
      "hit": false,
      "t": 119999.94000000022,
      "d": 1690.1399999999994,
      "v": 127
    },
    {
      "midi": 56,
      "hit": false,
      "t": 120422.47500000022,
      "d": 1267.604999999996,
      "v": 127
    },
    {
      "midi": 59,
      "hit": false,
      "t": 120633.74250000021,
      "d": 1056.3375000000087,
      "v": 127
    },
    {
      "midi": 68,
      "hit": false,
      "t": 121056.27750000021,
      "d": 633.8025000000052,
      "v": 127
    },
    {
      "midi": 45,
      "hit": false,
      "t": 121690.08000000022,
      "d": 1683.0977500000154,
      "v": 127
    },
    {
      "midi": 52,
      "hit": false,
      "t": 121690.08000000022,
      "d": 2035.2102500000183,
      "v": 127
    },
    {
      "midi": 56,
      "hit": false,
      "t": 121690.08000000022,
      "d": 2253.5200000000186,
      "v": 127
    },
    {
      "midi": 61,
      "hit": false,
      "t": 121690.08000000022,
      "d": 2338.0270000000164,
      "v": 127
    },
    {
      "midi": 64,
      "hit": false,
      "t": 121690.08000000022,
      "d": 2957.7450000000244,
      "v": 127
    },
    {
      "midi": 45,
      "hit": false,
      "t": 123591.48750000024,
      "d": 1302.8162500000035,
      "v": 127
    },
    {
      "midi": 52,
      "hit": false,
      "t": 124014.02250000024,
      "d": 873.2390000000014,
      "v": 127
    },
    {
      "midi": 56,
      "hit": false,
      "t": 124436.55750000024,
      "d": 577.4645000000019,
      "v": 127
    },
    {
      "midi": 61,
      "hit": false,
      "t": 124647.82500000024,
      "d": 309.85899999999674,
      "v": 127
    },
    {
      "midi": 57,
      "hit": false,
      "t": 125070.36000000025,
      "d": 1084.5065000000031,
      "v": 127
    },
    {
      "midi": 62,
      "hit": false,
      "t": 125070.36000000025,
      "d": 1478.8724999999977,
      "v": 127
    },
    {
      "midi": 50,
      "hit": false,
      "t": 125070.36000000025,
      "d": 1690.1399999999994,
      "v": 127
    },
    {
      "midi": 69,
      "hit": false,
      "t": 125070.36000000025,
      "d": 1690.1399999999994,
      "v": 127
    },
    {
      "midi": 57,
      "hit": false,
      "t": 126549.23250000025,
      "d": 211.26750000000175,
      "v": 127
    },
    {
      "midi": 38,
      "hit": false,
      "t": 126760.50000000025,
      "d": 1690.140000000014,
      "v": 127
    },
    {
      "midi": 59,
      "hit": false,
      "t": 126971.76750000025,
      "d": 788.7320000000036,
      "v": 127
    },
    {
      "midi": 68,
      "hit": false,
      "t": 126971.76750000025,
      "d": 852.1122500000056,
      "v": 127
    },
    {
      "midi": 56,
      "hit": false,
      "t": 127394.30250000025,
      "d": 260.5632500000065,
      "v": 127
    },
    {
      "midi": 56,
      "hit": false,
      "t": 127816.83750000026,
      "d": 633.8025000000052,
      "v": 127
    },
    {
      "midi": 59,
      "hit": false,
      "t": 128028.10500000026,
      "d": 422.5350000000035,
      "v": 127
    },
    {
      "midi": 68,
      "hit": false,
      "t": 128028.10500000026,
      "d": 422.5350000000035,
      "v": 127
    },
    {
      "midi": 49,
      "hit": false,
      "t": 128450.64000000026,
      "d": 1690.1399999999994,
      "v": 127
    },
    {
      "midi": 56,
      "hit": false,
      "t": 128661.90750000026,
      "d": 964.7882499999978,
      "v": 127
    },
    {
      "midi": 59,
      "hit": false,
      "t": 128873.17500000026,
      "d": 1267.604999999996,
      "v": 127
    },
    {
      "midi": 64,
      "hit": false,
      "t": 129084.44250000027,
      "d": 514.0842499999999,
      "v": 127
    },
    {
      "midi": 68,
      "hit": false,
      "t": 129506.97750000027,
      "d": 295.774499999985,
      "v": 127
    },
    {
      "midi": 64,
      "hit": false,
      "t": 129718.24500000026,
      "d": 422.5350000000035,
      "v": 127
    },
    {
      "midi": 42,
      "hit": false,
      "t": 130140.78000000026,
      "d": 1690.140000000014,
      "v": 127
    },
    {
      "midi": 54,
      "hit": false,
      "t": 130563.31500000026,
      "d": 1267.6050000000105,
      "v": 127
    },
    {
      "midi": 57,
      "hit": false,
      "t": 130774.58250000027,
      "d": 1056.3375000000087,
      "v": 127
    },
    {
      "midi": 64,
      "hit": false,
      "t": 130774.58250000027,
      "d": 1056.3375000000087,
      "v": 127
    },
    {
      "midi": 66,
      "hit": false,
      "t": 130774.58250000027,
      "d": 1056.3375000000087,
      "v": 127
    },
    {
      "midi": 54,
      "hit": false,
      "t": 131830.92000000027,
      "d": 422.5350000000035,
      "v": 127
    },
    {
      "midi": 57,
      "hit": false,
      "t": 131830.92000000027,
      "d": 528.1687500000116,
      "v": 127
    },
    {
      "midi": 62,
      "hit": false,
      "t": 131830.92000000027,
      "d": 612.675750000024,
      "v": 127
    },
    {
      "midi": 66,
      "hit": false,
      "t": 131830.92000000027,
      "d": 626.7602500000212,
      "v": 127
    },
    {
      "midi": 47,
      "hit": false,
      "t": 131830.92000000027,
      "d": 1690.1399999999849,
      "v": 127
    },
    {
      "midi": 54,
      "hit": false,
      "t": 132253.45500000028,
      "d": 1267.6049999999814,
      "v": 127
    },
    {
      "midi": 57,
      "hit": false,
      "t": 132464.7225000003,
      "d": 1056.337499999965,
      "v": 127
    },
    {
      "midi": 62,
      "hit": false,
      "t": 132887.25750000027,
      "d": 633.8024999999907,
      "v": 127
    },
    {
      "midi": 40,
      "hit": false,
      "t": 133521.06000000026,
      "d": 1690.1399999999849,
      "v": 127
    },
    {
      "midi": 56,
      "hit": false,
      "t": 133943.59500000026,
      "d": 1267.6049999999814,
      "v": 127
    },
    {
      "midi": 59,
      "hit": false,
      "t": 134154.86250000025,
      "d": 1056.3374999999942,
      "v": 127
    },
    {
      "midi": 68,
      "hit": false,
      "t": 134154.86250000025,
      "d": 1056.3374999999942,
      "v": 127
    },
    {
      "midi": 40,
      "hit": false,
      "t": 135211.20000000024,
      "d": 1690.1399999999849,
      "v": 127
    },
    {
      "midi": 52,
      "hit": false,
      "t": 135422.46750000023,
      "d": 978.8727499999804,
      "v": 127
    },
    {
      "midi": 55,
      "hit": false,
      "t": 135633.73500000022,
      "d": 1267.6050000000105,
      "v": 127
    },
    {
      "midi": 62,
      "hit": false,
      "t": 135845.0025000002,
      "d": 1056.3375000000233,
      "v": 127
    },
    {
      "midi": 64,
      "hit": false,
      "t": 136267.5375000002,
      "d": 633.8025000000198,
      "v": 127
    },
    {
      "midi": 52,
      "hit": false,
      "t": 136478.80500000023,
      "d": 422.5350000000035,
      "v": 127
    },
    {
      "midi": 45,
      "hit": false,
      "t": 136901.34000000023,
      "d": 1690.1399999999849,
      "v": 127
    },
    {
      "midi": 52,
      "hit": false,
      "t": 137323.87500000023,
      "d": 1267.6049999999814,
      "v": 127
    },
    {
      "midi": 57,
      "hit": false,
      "t": 137535.14250000022,
      "d": 1056.3374999999942,
      "v": 127
    },
    {
      "midi": 64,
      "hit": false,
      "t": 137535.14250000022,
      "d": 1056.3374999999942,
      "v": 127
    },
    {
      "midi": 50,
      "hit": false,
      "t": 138591.4800000002,
      "d": 1690.1399999999849,
      "v": 127
    },
    {
      "midi": 57,
      "hit": false,
      "t": 139014.01500000022,
      "d": 1267.6049999999814,
      "v": 127
    },
    {
      "midi": 62,
      "hit": false,
      "t": 139225.2825000002,
      "d": 1056.3374999999942,
      "v": 127
    },
    {
      "midi": 69,
      "hit": false,
      "t": 139225.2825000002,
      "d": 1056.3374999999942,
      "v": 127
    },
    {
      "midi": 38,
      "hit": false,
      "t": 140281.6200000002,
      "d": 1690.1399999999849,
      "v": 127
    },
    {
      "midi": 56,
      "hit": false,
      "t": 140704.1550000002,
      "d": 1267.6049999999814,
      "v": 127
    },
    {
      "midi": 59,
      "hit": false,
      "t": 140915.4225000002,
      "d": 1056.3374999999942,
      "v": 127
    },
    {
      "midi": 68,
      "hit": false,
      "t": 140915.4225000002,
      "d": 1056.3374999999942,
      "v": 127
    },
    {
      "midi": 49,
      "hit": false,
      "t": 141971.76000000018,
      "d": 1690.1399999999849,
      "v": 127
    },
    {
      "midi": 59,
      "hit": false,
      "t": 142183.02750000017,
      "d": 788.7320000000182,
      "v": 127
    },
    {
      "midi": 64,
      "hit": false,
      "t": 142183.02750000017,
      "d": 852.1122500000056,
      "v": 127
    },
    {
      "midi": 68,
      "hit": false,
      "t": 142183.02750000017,
      "d": 866.1967500000028,
      "v": 127
    },
    {
      "midi": 56,
      "hit": false,
      "t": 142605.56250000017,
      "d": 260.5632500000065,
      "v": 127
    },
    {
      "midi": 56,
      "hit": false,
      "t": 143028.09750000018,
      "d": 633.8024999999907,
      "v": 127
    },
    {
      "midi": 59,
      "hit": false,
      "t": 143239.36500000017,
      "d": 422.5350000000035,
      "v": 127
    },
    {
      "midi": 64,
      "hit": false,
      "t": 143239.36500000017,
      "d": 422.5350000000035,
      "v": 127
    },
    {
      "midi": 68,
      "hit": false,
      "t": 143239.36500000017,
      "d": 422.5350000000035,
      "v": 127
    },
    {
      "midi": 54,
      "hit": false,
      "t": 143661.90000000017,
      "d": 422.5350000000035,
      "v": 127
    },
    {
      "midi": 57,
      "hit": false,
      "t": 143661.90000000017,
      "d": 528.1687500000116,
      "v": 127
    },
    {
      "midi": 64,
      "hit": false,
      "t": 143661.90000000017,
      "d": 612.675750000024,
      "v": 127
    },
    {
      "midi": 66,
      "hit": false,
      "t": 143661.90000000017,
      "d": 626.7602500000212,
      "v": 127
    },
    {
      "midi": 42,
      "hit": false,
      "t": 143661.90000000017,
      "d": 1690.1399999999849,
      "v": 127
    },
    {
      "midi": 54,
      "hit": false,
      "t": 144084.43500000017,
      "d": 1267.6049999999814,
      "v": 127
    },
    {
      "midi": 57,
      "hit": false,
      "t": 144295.7025000002,
      "d": 1056.337499999965,
      "v": 127
    },
    {
      "midi": 64,
      "hit": false,
      "t": 144718.23750000016,
      "d": 633.8024999999907,
      "v": 127
    },
    {
      "midi": 47,
      "hit": false,
      "t": 145352.04000000015,
      "d": 1690.1399999999849,
      "v": 127
    },
    {
      "midi": 54,
      "hit": false,
      "t": 145563.30750000014,
      "d": 964.7882499999832,
      "v": 127
    },
    {
      "midi": 57,
      "hit": false,
      "t": 145774.57500000013,
      "d": 1267.6050000000105,
      "v": 127
    },
    {
      "midi": 62,
      "hit": false,
      "t": 145985.84250000012,
      "d": 514.0842500000144,
      "v": 127
    },
    {
      "midi": 66,
      "hit": false,
      "t": 146408.37750000012,
      "d": 295.77450000002864,
      "v": 127
    },
    {
      "midi": 62,
      "hit": false,
      "t": 146619.64500000014,
      "d": 422.5350000000035,
      "v": 127
    },
    {
      "midi": 56,
      "hit": false,
      "t": 147042.18000000014,
      "d": 1084.5064999999886,
      "v": 127
    },
    {
      "midi": 59,
      "hit": false,
      "t": 147042.18000000014,
      "d": 1478.8724999999977,
      "v": 127
    },
    {
      "midi": 40,
      "hit": false,
      "t": 147042.18000000014,
      "d": 1690.1399999999849,
      "v": 127
    },
    {
      "midi": 68,
      "hit": false,
      "t": 147042.18000000014,
      "d": 1690.1399999999849,
      "v": 127
    },
    {
      "midi": 56,
      "hit": false,
      "t": 148521.05250000014,
      "d": 211.2674999999872,
      "v": 127
    },
    {
      "midi": 52,
      "hit": false,
      "t": 148732.32000000012,
      "d": 922.5347499999916,
      "v": 127
    },
    {
      "midi": 56,
      "hit": false,
      "t": 148732.32000000012,
      "d": 1169.013500000001,
      "v": 127
    },
    {
      "midi": 45,
      "hit": false,
      "t": 148732.32000000012,
      "d": 3380.2799999999697,
      "v": 127
    },
    {
      "midi": 61,
      "hit": false,
      "t": 148943.5875000001,
      "d": 345.07024999998976,
      "v": 127
    },
    {
      "midi": 64,
      "hit": false,
      "t": 149366.1225000001,
      "d": 633.8025000000198,
      "v": 127
    },
    {
      "midi": 52,
      "hit": false,
      "t": 149788.65750000012,
      "d": 753.520749999996,
      "v": 127
    },
    {
      "midi": 56,
      "hit": false,
      "t": 149999.92500000013,
      "d": 753.520749999996,
      "v": 127
    },
    {
      "midi": 61,
      "hit": false,
      "t": 150211.19250000012,
      "d": 612.6757499999949,
      "v": 127
    },
    {
      "midi": 52,
      "hit": false,
      "t": 150633.72750000012,
      "d": 661.9714999999851,
      "v": 127
    },
    {
      "midi": 56,
      "hit": false,
      "t": 150844.9950000001,
      "d": 1267.6049999999814,
      "v": 127
    },
    {
      "midi": 64,
      "hit": false,
      "t": 151056.2625000001,
      "d": 612.6757499999949,
      "v": 127
    },
    {
      "midi": 52,
      "hit": false,
      "t": 151478.7975000001,
      "d": 633.8024999999907,
      "v": 127
    },
    {
      "midi": 61,
      "hit": false,
      "t": 151690.0650000001,
      "d": 422.5350000000035,
      "v": 127
    },
    {
      "midi": 57,
      "hit": false,
      "t": 152112.6000000001,
      "d": 1690.1399999999849,
      "v": 127
    },
    {
      "midi": 62,
      "hit": false,
      "t": 152112.6000000001,
      "d": 1690.1399999999849,
      "v": 127
    },
    {
      "midi": 69,
      "hit": false,
      "t": 152112.6000000001,
      "d": 1690.1399999999849,
      "v": 127
    },
    {
      "midi": 50,
      "hit": false,
      "t": 153168.9375000001,
      "d": 633.8024999999907,
      "v": 127
    },
    {
      "midi": 38,
      "hit": false,
      "t": 153802.74000000008,
      "d": 1690.1399999999849,
      "v": 127
    },
    {
      "midi": 56,
      "hit": false,
      "t": 154014.00750000007,
      "d": 978.8727499999804,
      "v": 127
    },
    {
      "midi": 59,
      "hit": false,
      "t": 154225.27500000005,
      "d": 1267.6050000000105,
      "v": 127
    },
    {
      "midi": 68,
      "hit": false,
      "t": 154436.54250000004,
      "d": 1056.3375000000233,
      "v": 127
    },
    {
      "midi": 56,
      "hit": false,
      "t": 155070.34500000006,
      "d": 422.5350000000035,
      "v": 127
    },
    {
      "midi": 49,
      "hit": false,
      "t": 155492.88000000006,
      "d": 1690.1399999999849,
      "v": 127
    },
    {
      "midi": 56,
      "hit": false,
      "t": 155704.14750000005,
      "d": 978.8727499999804,
      "v": 127
    },
    {
      "midi": 59,
      "hit": false,
      "t": 155915.41500000004,
      "d": 1267.6050000000105,
      "v": 127
    },
    {
      "midi": 64,
      "hit": false,
      "t": 156126.68250000002,
      "d": 1056.3375000000233,
      "v": 127
    },
    {
      "midi": 68,
      "hit": false,
      "t": 156549.21750000003,
      "d": 633.8025000000198,
      "v": 127
    },
    {
      "midi": 56,
      "hit": false,
      "t": 156760.48500000004,
      "d": 422.5350000000035,
      "v": 127
    },
    {
      "midi": 42,
      "hit": false,
      "t": 157183.02000000005,
      "d": 1690.1399999999849,
      "v": 127
    },
    {
      "midi": 54,
      "hit": false,
      "t": 157605.55500000005,
      "d": 1267.6049999999814,
      "v": 127
    },
    {
      "midi": 57,
      "hit": false,
      "t": 157816.82250000004,
      "d": 1056.3374999999942,
      "v": 127
    },
    {
      "midi": 64,
      "hit": false,
      "t": 157816.82250000004,
      "d": 1056.3374999999942,
      "v": 127
    },
    {
      "midi": 66,
      "hit": false,
      "t": 157816.82250000004,
      "d": 1056.3374999999942,
      "v": 127
    },
    {
      "midi": 54,
      "hit": false,
      "t": 158873.16000000003,
      "d": 1084.5064999999886,
      "v": 127
    },
    {
      "midi": 57,
      "hit": false,
      "t": 158873.16000000003,
      "d": 1478.8724999999977,
      "v": 127
    },
    {
      "midi": 47,
      "hit": false,
      "t": 158873.16000000003,
      "d": 1690.1399999999849,
      "v": 127
    },
    {
      "midi": 62,
      "hit": false,
      "t": 158873.16000000003,
      "d": 1690.1399999999849,
      "v": 127
    },
    {
      "midi": 66,
      "hit": false,
      "t": 158873.16000000003,
      "d": 1690.1399999999849,
      "v": 127
    },
    {
      "midi": 54,
      "hit": false,
      "t": 160352.03250000003,
      "d": 211.2674999999872,
      "v": 127
    },
    {
      "midi": 56,
      "hit": false,
      "t": 160563.30000000002,
      "d": 422.5350000000035,
      "v": 127
    },
    {
      "midi": 59,
      "hit": false,
      "t": 160563.30000000002,
      "d": 528.1687500000116,
      "v": 127
    },
    {
      "midi": 68,
      "hit": false,
      "t": 160563.30000000002,
      "d": 612.675750000024,
      "v": 127
    },
    {
      "midi": 40,
      "hit": false,
      "t": 160563.30000000002,
      "d": 1690.1399999999849,
      "v": 127
    },
    {
      "midi": 56,
      "hit": false,
      "t": 160985.83500000002,
      "d": 1267.6049999999814,
      "v": 127
    },
    {
      "midi": 59,
      "hit": false,
      "t": 161197.10250000004,
      "d": 1056.337499999965,
      "v": 127
    },
    {
      "midi": 68,
      "hit": false,
      "t": 161619.6375,
      "d": 633.8024999999907,
      "v": 127
    },
    {
      "midi": 40,
      "hit": false,
      "t": 162253.44,
      "d": 1690.1399999999849,
      "v": 127
    },
    {
      "midi": 55,
      "hit": false,
      "t": 162464.7075,
      "d": 788.7320000000182,
      "v": 127
    },
    {
      "midi": 62,
      "hit": false,
      "t": 162464.7075,
      "d": 852.1122500000056,
      "v": 127
    },
    {
      "midi": 64,
      "hit": false,
      "t": 162464.7075,
      "d": 866.1967500000028,
      "v": 127
    },
    {
      "midi": 52,
      "hit": false,
      "t": 162887.2425,
      "d": 260.5632500000065,
      "v": 127
    },
    {
      "midi": 52,
      "hit": false,
      "t": 163309.7775,
      "d": 633.8024999999907,
      "v": 127
    },
    {
      "midi": 55,
      "hit": false,
      "t": 163521.04499999998,
      "d": 422.5350000000035,
      "v": 127
    },
    {
      "midi": 62,
      "hit": false,
      "t": 163521.04499999998,
      "d": 422.5350000000035,
      "v": 127
    },
    {
      "midi": 64,
      "hit": false,
      "t": 163521.04499999998,
      "d": 422.5350000000035,
      "v": 127
    },
    {
      "midi": 45,
      "hit": false,
      "t": 163943.58,
      "d": 1690.1399999999849,
      "v": 127
    },
    {
      "midi": 52,
      "hit": false,
      "t": 164366.115,
      "d": 1267.6049999999814,
      "v": 127
    },
    {
      "midi": 57,
      "hit": false,
      "t": 164577.38249999998,
      "d": 1056.3374999999942,
      "v": 127
    },
    {
      "midi": 64,
      "hit": false,
      "t": 164577.38249999998,
      "d": 1056.3374999999942,
      "v": 127
    },
    {
      "midi": 50,
      "hit": false,
      "t": 165633.71999999997,
      "d": 1690.1399999999849,
      "v": 127
    },
    {
      "midi": 57,
      "hit": false,
      "t": 166056.25499999998,
      "d": 1267.6049999999814,
      "v": 127
    },
    {
      "midi": 62,
      "hit": false,
      "t": 166267.52249999996,
      "d": 1056.3374999999942,
      "v": 127
    },
    {
      "midi": 69,
      "hit": false,
      "t": 166267.52249999996,
      "d": 1056.3374999999942,
      "v": 127
    },
    {
      "midi": 56,
      "hit": false,
      "t": 167323.85999999996,
      "d": 1084.5064999999886,
      "v": 127
    },
    {
      "midi": 59,
      "hit": false,
      "t": 167323.85999999996,
      "d": 1478.8724999999977,
      "v": 127
    },
    {
      "midi": 38,
      "hit": false,
      "t": 167323.85999999996,
      "d": 1690.1399999999849,
      "v": 127
    },
    {
      "midi": 68,
      "hit": false,
      "t": 167323.85999999996,
      "d": 1690.1399999999849,
      "v": 127
    },
    {
      "midi": 56,
      "hit": false,
      "t": 168802.73249999995,
      "d": 211.2674999999872,
      "v": 127
    },
    {
      "midi": 49,
      "hit": false,
      "t": 169013.99999999994,
      "d": 1690.1399999999849,
      "v": 127
    },
    {
      "midi": 56,
      "hit": false,
      "t": 169225.26749999993,
      "d": 964.7882499999832,
      "v": 127
    },
    {
      "midi": 59,
      "hit": false,
      "t": 169436.53499999992,
      "d": 1267.6050000000105,
      "v": 127
    },
    {
      "midi": 64,
      "hit": false,
      "t": 169647.8024999999,
      "d": 514.0842500000144,
      "v": 127
    },
    {
      "midi": 68,
      "hit": false,
      "t": 170070.3374999999,
      "d": 295.77450000002864,
      "v": 127
    },
    {
      "midi": 64,
      "hit": false,
      "t": 170281.60499999992,
      "d": 422.5350000000035,
      "v": 127
    },
    {
      "midi": 54,
      "hit": false,
      "t": 170704.13999999993,
      "d": 422.5350000000035,
      "v": 127
    },
    {
      "midi": 57,
      "hit": false,
      "t": 170704.13999999993,
      "d": 528.1687500000116,
      "v": 127
    },
    {
      "midi": 64,
      "hit": false,
      "t": 170704.13999999993,
      "d": 612.675750000024,
      "v": 127
    },
    {
      "midi": 66,
      "hit": false,
      "t": 170704.13999999993,
      "d": 626.7602500000212,
      "v": 127
    },
    {
      "midi": 42,
      "hit": false,
      "t": 170704.13999999993,
      "d": 1690.1399999999849,
      "v": 127
    },
    {
      "midi": 54,
      "hit": false,
      "t": 171126.67499999993,
      "d": 1267.6049999999814,
      "v": 127
    },
    {
      "midi": 57,
      "hit": false,
      "t": 171337.94249999995,
      "d": 1056.337499999965,
      "v": 127
    },
    {
      "midi": 64,
      "hit": false,
      "t": 171760.47749999992,
      "d": 633.8024999999907,
      "v": 127
    },
    {
      "midi": 47,
      "hit": false,
      "t": 172394.2799999999,
      "d": 1690.1399999999849,
      "v": 127
    },
    {
      "midi": 57,
      "hit": false,
      "t": 172605.5474999999,
      "d": 788.7320000000182,
      "v": 127
    },
    {
      "midi": 62,
      "hit": false,
      "t": 172605.5474999999,
      "d": 852.1122500000056,
      "v": 127
    },
    {
      "midi": 66,
      "hit": false,
      "t": 172605.5474999999,
      "d": 866.1967500000028,
      "v": 127
    },
    {
      "midi": 54,
      "hit": false,
      "t": 173028.0824999999,
      "d": 260.5632500000065,
      "v": 127
    },
    {
      "midi": 54,
      "hit": false,
      "t": 173450.6174999999,
      "d": 633.8024999999907,
      "v": 127
    },
    {
      "midi": 57,
      "hit": false,
      "t": 173661.8849999999,
      "d": 422.5350000000035,
      "v": 127
    },
    {
      "midi": 62,
      "hit": false,
      "t": 173661.8849999999,
      "d": 422.5350000000035,
      "v": 127
    },
    {
      "midi": 66,
      "hit": false,
      "t": 173661.8849999999,
      "d": 422.5350000000035,
      "v": 127
    },
    {
      "midi": 40,
      "hit": false,
      "t": 174084.4199999999,
      "d": 1690.1399999999849,
      "v": 127
    },
    {
      "midi": 56,
      "hit": false,
      "t": 174295.68749999988,
      "d": 978.8727499999804,
      "v": 127
    },
    {
      "midi": 59,
      "hit": false,
      "t": 174506.95499999987,
      "d": 1267.6050000000105,
      "v": 127
    },
    {
      "midi": 68,
      "hit": false,
      "t": 174718.22249999986,
      "d": 1056.3375000000233,
      "v": 127
    },
    {
      "midi": 56,
      "hit": false,
      "t": 175352.02499999988,
      "d": 422.5350000000035,
      "v": 127
    },
    {
      "midi": 50,
      "hit": false,
      "t": 189295.67999999988,
      "d": 1683.0977499999863,
      "v": 127
    },
    {
      "midi": 57,
      "hit": false,
      "t": 189295.67999999988,
      "d": 2035.2102499999746,
      "v": 127
    },
    {
      "midi": 61,
      "hit": false,
      "t": 189295.67999999988,
      "d": 2253.5199999999604,
      "v": 127
    },
    {
      "midi": 66,
      "hit": false,
      "t": 189295.67999999988,
      "d": 2338.0269999999437,
      "v": 127
    },
    {
      "midi": 69,
      "hit": false,
      "t": 189295.67999999988,
      "d": 2957.744999999937,
      "v": 127
    },
    {
      "midi": 50,
      "hit": false,
      "t": 191197.08749999985,
      "d": 1302.8162499999744,
      "v": 127
    },
    {
      "midi": 57,
      "hit": false,
      "t": 191619.62249999982,
      "d": 873.2390000000014,
      "v": 127
    },
    {
      "midi": 61,
      "hit": false,
      "t": 192042.15749999983,
      "d": 577.4644999999728,
      "v": 127
    },
    {
      "midi": 66,
      "hit": false,
      "t": 192253.4249999998,
      "d": 309.85899999999674,
      "v": 127
    },
    {
      "midi": 52,
      "hit": false,
      "t": 192675.9599999998,
      "d": 922.5347499999916,
      "v": 127
    },
    {
      "midi": 56,
      "hit": false,
      "t": 192675.9599999998,
      "d": 1169.013500000001,
      "v": 127
    },
    {
      "midi": 45,
      "hit": false,
      "t": 192675.9599999998,
      "d": 3380.2799999999697,
      "v": 127
    },
    {
      "midi": 61,
      "hit": false,
      "t": 192887.22749999978,
      "d": 345.07024999998976,
      "v": 127
    },
    {
      "midi": 64,
      "hit": false,
      "t": 193309.76249999978,
      "d": 633.8025000000198,
      "v": 127
    },
    {
      "midi": 52,
      "hit": false,
      "t": 193732.29749999978,
      "d": 753.520749999996,
      "v": 127
    },
    {
      "midi": 56,
      "hit": false,
      "t": 193943.5649999998,
      "d": 753.520749999996,
      "v": 127
    },
    {
      "midi": 61,
      "hit": false,
      "t": 194154.8324999998,
      "d": 612.6757499999949,
      "v": 127
    },
    {
      "midi": 52,
      "hit": false,
      "t": 194577.3674999998,
      "d": 661.9714999999851,
      "v": 127
    },
    {
      "midi": 56,
      "hit": false,
      "t": 194788.63499999978,
      "d": 1267.6049999999814,
      "v": 127
    },
    {
      "midi": 64,
      "hit": false,
      "t": 194999.90249999976,
      "d": 612.6757499999949,
      "v": 127
    },
    {
      "midi": 52,
      "hit": false,
      "t": 195422.43749999977,
      "d": 633.8024999999907,
      "v": 127
    },
    {
      "midi": 61,
      "hit": false,
      "t": 195633.70499999975,
      "d": 422.5350000000035,
      "v": 127
    },
    {
      "midi": 50,
      "hit": false,
      "t": 196056.23999999976,
      "d": 1683.0977499999863,
      "v": 127
    },
    {
      "midi": 57,
      "hit": false,
      "t": 196056.23999999976,
      "d": 2035.2102499999746,
      "v": 127
    },
    {
      "midi": 61,
      "hit": false,
      "t": 196056.23999999976,
      "d": 2253.5199999999604,
      "v": 127
    },
    {
      "midi": 66,
      "hit": false,
      "t": 196056.23999999976,
      "d": 2338.0269999999437,
      "v": 127
    },
    {
      "midi": 69,
      "hit": false,
      "t": 196056.23999999976,
      "d": 2957.744999999937,
      "v": 127
    },
    {
      "midi": 50,
      "hit": false,
      "t": 197957.64749999973,
      "d": 1302.8162499999744,
      "v": 127
    },
    {
      "midi": 57,
      "hit": false,
      "t": 198380.1824999997,
      "d": 873.2390000000014,
      "v": 127
    },
    {
      "midi": 61,
      "hit": false,
      "t": 198802.7174999997,
      "d": 577.4644999999728,
      "v": 127
    },
    {
      "midi": 66,
      "hit": false,
      "t": 199013.9849999997,
      "d": 309.85899999999674,
      "v": 127
    },
    {
      "midi": 52,
      "hit": false,
      "t": 199436.51999999967,
      "d": 2450.7030000000086,
      "v": 127
    },
    {
      "midi": 56,
      "hit": false,
      "t": 199436.51999999967,
      "d": 2830.9845000000205,
      "v": 127
    },
    {
      "midi": 61,
      "hit": false,
      "t": 199436.51999999967,
      "d": 2852.1112500000163,
      "v": 127
    },
    {
      "midi": 45,
      "hit": false,
      "t": 199436.51999999967,
      "d": 3380.279999999999,
      "v": 127
    },
    {
      "midi": 64,
      "hit": false,
      "t": 200915.39249999967,
      "d": 1507.0415000000212,
      "v": 127
    },
    {
      "midi": 71,
      "hit": false,
      "t": 200915.39249999967,
      "d": 1640.8442500000237,
      "v": 127
    },
    {
      "midi": 68,
      "hit": false,
      "t": 200915.39249999967,
      "d": 1697.1822500000126,
      "v": 127
    },
    {
      "midi": 52,
      "hit": false,
      "t": 202182.99749999968,
      "d": 633.8024999999907,
      "v": 127
    },
    {
      "midi": 61,
      "hit": false,
      "t": 202394.2649999997,
      "d": 422.5349999999744,
      "v": 127
    },
    {
      "midi": 64,
      "hit": false,
      "t": 202612.57474999968,
      "d": 154.92949999999837,
      "v": 127
    },
    {
      "midi": 50,
      "hit": false,
      "t": 202816.79999999967,
      "d": 1683.0977499999863,
      "v": 127
    },
    {
      "midi": 57,
      "hit": false,
      "t": 202816.79999999967,
      "d": 2035.2102499999746,
      "v": 127
    },
    {
      "midi": 61,
      "hit": false,
      "t": 202816.79999999967,
      "d": 2253.5199999999604,
      "v": 127
    },
    {
      "midi": 66,
      "hit": false,
      "t": 202816.79999999967,
      "d": 2338.0269999999437,
      "v": 127
    },
    {
      "midi": 69,
      "hit": false,
      "t": 202816.79999999967,
      "d": 2957.744999999937,
      "v": 127
    },
    {
      "midi": 50,
      "hit": false,
      "t": 204718.20749999964,
      "d": 1302.8162499999744,
      "v": 127
    },
    {
      "midi": 57,
      "hit": false,
      "t": 205140.74249999961,
      "d": 873.2390000000014,
      "v": 127
    },
    {
      "midi": 61,
      "hit": false,
      "t": 205563.27749999962,
      "d": 577.4644999999728,
      "v": 127
    },
    {
      "midi": 66,
      "hit": false,
      "t": 205774.5449999996,
      "d": 309.85899999999674,
      "v": 127
    },
    {
      "midi": 52,
      "hit": false,
      "t": 206197.07999999958,
      "d": 1690.1399999999849,
      "v": 127
    },
    {
      "midi": 56,
      "hit": false,
      "t": 206197.07999999958,
      "d": 1690.1399999999849,
      "v": 127
    },
    {
      "midi": 61,
      "hit": false,
      "t": 206197.07999999958,
      "d": 1690.1399999999849,
      "v": 127
    },
    {
      "midi": 64,
      "hit": false,
      "t": 206197.07999999958,
      "d": 1690.1399999999849,
      "v": 127
    },
    {
      "midi": 45,
      "hit": false,
      "t": 207253.41749999957,
      "d": 633.8024999999907,
      "v": 127
    },
    {
      "midi": 42,
      "hit": false,
      "t": 207887.21999999956,
      "d": 1690.1399999999849,
      "v": 127
    },
    {
      "midi": 54,
      "hit": false,
      "t": 208098.48749999955,
      "d": 964.7882499999832,
      "v": 127
    },
    {
      "midi": 57,
      "hit": false,
      "t": 208309.75499999954,
      "d": 1267.6050000000105,
      "v": 127
    },
    {
      "midi": 64,
      "hit": false,
      "t": 208521.02249999953,
      "d": 514.0842500000144,
      "v": 127
    },
    {
      "midi": 66,
      "hit": false,
      "t": 208943.55749999953,
      "d": 295.77450000002864,
      "v": 127
    },
    {
      "midi": 64,
      "hit": false,
      "t": 209154.82499999955,
      "d": 422.5350000000035,
      "v": 127
    },
    {
      "midi": 54,
      "hit": false,
      "t": 209577.35999999955,
      "d": 422.5350000000035,
      "v": 127
    },
    {
      "midi": 59,
      "hit": false,
      "t": 209577.35999999955,
      "d": 528.1687500000116,
      "v": 127
    },
    {
      "midi": 66,
      "hit": false,
      "t": 209577.35999999955,
      "d": 612.675750000024,
      "v": 127
    },
    {
      "midi": 47,
      "hit": false,
      "t": 209577.35999999955,
      "d": 1690.1399999999849,
      "v": 127
    },
    {
      "midi": 54,
      "hit": false,
      "t": 209999.89499999955,
      "d": 1267.6049999999814,
      "v": 127
    },
    {
      "midi": 59,
      "hit": false,
      "t": 210211.16249999957,
      "d": 1056.337499999965,
      "v": 127
    },
    {
      "midi": 66,
      "hit": false,
      "t": 210633.69749999954,
      "d": 633.8024999999907,
      "v": 127
    },
    {
      "midi": 54,
      "hit": false,
      "t": 211267.49999999953,
      "d": 1690.1399999999849,
      "v": 127
    },
    {
      "midi": 59,
      "hit": false,
      "t": 211267.49999999953,
      "d": 1690.1399999999849,
      "v": 127
    },
    {
      "midi": 66,
      "hit": false,
      "t": 211267.49999999953,
      "d": 1690.1399999999849,
      "v": 127
    },
    {
      "midi": 51,
      "hit": false,
      "t": 212323.83749999953,
      "d": 633.8024999999907,
      "v": 127
    },
    {
      "midi": 56,
      "hit": false,
      "t": 212957.63999999952,
      "d": 1690.1399999999849,
      "v": 127
    },
    {
      "midi": 59,
      "hit": false,
      "t": 212957.63999999952,
      "d": 1690.1399999999849,
      "v": 127
    },
    {
      "midi": 68,
      "hit": false,
      "t": 212957.63999999952,
      "d": 1690.1399999999849,
      "v": 127
    },
    {
      "midi": 40,
      "hit": false,
      "t": 214013.9774999995,
      "d": 633.8024999999907,
      "v": 127
    },
    {
      "midi": 40,
      "hit": false,
      "t": 214647.7799999995,
      "d": 845.0699999999488,
      "v": 127
    },
    {
      "midi": 52,
      "hit": false,
      "t": 214859.0474999995,
      "d": 633.8024999999616,
      "v": 127
    },
    {
      "midi": 55,
      "hit": false,
      "t": 215070.31499999948,
      "d": 422.5349999999744,
      "v": 127
    },
    {
      "midi": 62,
      "hit": false,
      "t": 215281.58249999947,
      "d": 211.2674999999872,
      "v": 127
    },
    {
      "midi": 45,
      "hit": false,
      "t": 215492.84999999945,
      "d": 845.0699999999488,
      "v": 127
    },
    {
      "midi": 52,
      "hit": false,
      "t": 215704.11749999944,
      "d": 633.8024999999616,
      "v": 127
    },
    {
      "midi": 55,
      "hit": false,
      "t": 215915.38499999943,
      "d": 422.5349999999744,
      "v": 127
    },
    {
      "midi": 61,
      "hit": false,
      "t": 216126.6524999994,
      "d": 211.2674999999872,
      "v": 127
    },
    {
      "midi": 57,
      "hit": false,
      "t": 216337.9199999994,
      "d": 922.5347499999916,
      "v": 127
    },
    {
      "midi": 61,
      "hit": false,
      "t": 216337.9199999994,
      "d": 1169.013500000001,
      "v": 127
    },
    {
      "midi": 50,
      "hit": false,
      "t": 216337.9199999994,
      "d": 3380.2799999999697,
      "v": 127
    },
    {
      "midi": 66,
      "hit": false,
      "t": 216549.1874999994,
      "d": 345.07024999998976,
      "v": 127
    },
    {
      "midi": 69,
      "hit": false,
      "t": 216971.7224999994,
      "d": 633.8025000000198,
      "v": 127
    },
    {
      "midi": 57,
      "hit": false,
      "t": 217394.2574999994,
      "d": 753.520749999996,
      "v": 127
    },
    {
      "midi": 61,
      "hit": false,
      "t": 217605.5249999994,
      "d": 753.520749999996,
      "v": 127
    },
    {
      "midi": 66,
      "hit": false,
      "t": 217816.7924999994,
      "d": 612.6757499999949,
      "v": 127
    },
    {
      "midi": 57,
      "hit": false,
      "t": 218239.3274999994,
      "d": 661.9714999999851,
      "v": 127
    },
    {
      "midi": 61,
      "hit": false,
      "t": 218450.5949999994,
      "d": 1267.6049999999814,
      "v": 127
    },
    {
      "midi": 69,
      "hit": false,
      "t": 218661.86249999938,
      "d": 612.6757499999949,
      "v": 127
    },
    {
      "midi": 57,
      "hit": false,
      "t": 219084.39749999938,
      "d": 633.8024999999907,
      "v": 127
    },
    {
      "midi": 66,
      "hit": false,
      "t": 219295.66499999937,
      "d": 422.5350000000035,
      "v": 127
    },
    {
      "midi": 56,
      "hit": false,
      "t": 219718.19999999937,
      "d": 1119.7177499999816,
      "v": 127
    },
    {
      "midi": 61,
      "hit": false,
      "t": 219718.19999999937,
      "d": 1647.8864999999641,
      "v": 127
    },
    {
      "midi": 64,
      "hit": false,
      "t": 219718.19999999937,
      "d": 1915.4919999999693,
      "v": 127
    },
    {
      "midi": 71,
      "hit": false,
      "t": 219718.19999999937,
      "d": 2690.13949999999,
      "v": 127
    },
    {
      "midi": 45,
      "hit": false,
      "t": 219718.19999999937,
      "d": 3197.181499999948,
      "v": 127
    },
    {
      "midi": 52,
      "hit": false,
      "t": 220774.53749999937,
      "d": 2070.4214999999676,
      "v": 127
    },
    {
      "midi": 56,
      "hit": false,
      "t": 221197.07249999934,
      "d": 985.9150000000081,
      "v": 127
    },
    {
      "midi": 61,
      "hit": false,
      "t": 221619.60749999934,
      "d": 1239.435999999987,
      "v": 127
    },
    {
      "midi": 64,
      "hit": false,
      "t": 222042.14249999935,
      "d": 732.3940000000002,
      "v": 127
    },
    {
      "midi": 56,
      "hit": false,
      "t": 222464.67749999935,
      "d": 450.7039999999688,
      "v": 127
    },
    {
      "midi": 71,
      "hit": false,
      "t": 222675.94499999934,
      "d": 211.2674999999872,
      "v": 127
    },
    {
      "midi": 57,
      "hit": false,
      "t": 223098.4799999993,
      "d": 922.5347499999916,
      "v": 127
    },
    {
      "midi": 61,
      "hit": false,
      "t": 223098.4799999993,
      "d": 1169.013500000001,
      "v": 127
    },
    {
      "midi": 50,
      "hit": false,
      "t": 223098.4799999993,
      "d": 3380.2799999999697,
      "v": 127
    },
    {
      "midi": 66,
      "hit": false,
      "t": 223309.7474999993,
      "d": 345.07024999998976,
      "v": 127
    },
    {
      "midi": 69,
      "hit": false,
      "t": 223732.2824999993,
      "d": 633.8025000000198,
      "v": 127
    },
    {
      "midi": 57,
      "hit": false,
      "t": 224154.8174999993,
      "d": 753.520749999996,
      "v": 127
    },
    {
      "midi": 61,
      "hit": false,
      "t": 224366.08499999932,
      "d": 753.520749999996,
      "v": 127
    },
    {
      "midi": 66,
      "hit": false,
      "t": 224577.3524999993,
      "d": 612.6757499999949,
      "v": 127
    },
    {
      "midi": 57,
      "hit": false,
      "t": 224999.8874999993,
      "d": 661.9714999999851,
      "v": 127
    },
    {
      "midi": 61,
      "hit": false,
      "t": 225211.1549999993,
      "d": 1267.6049999999814,
      "v": 127
    },
    {
      "midi": 69,
      "hit": false,
      "t": 225422.4224999993,
      "d": 612.6757499999949,
      "v": 127
    },
    {
      "midi": 57,
      "hit": false,
      "t": 225844.9574999993,
      "d": 633.8024999999907,
      "v": 127
    },
    {
      "midi": 66,
      "hit": false,
      "t": 226056.22499999928,
      "d": 422.5350000000035,
      "v": 127
    },
    {
      "midi": 45,
      "hit": false,
      "t": 226478.75999999928,
      "d": 1683.0977499999863,
      "v": 127
    },
    {
      "midi": 52,
      "hit": false,
      "t": 226478.75999999928,
      "d": 2035.2102499999746,
      "v": 127
    },
    {
      "midi": 56,
      "hit": false,
      "t": 226478.75999999928,
      "d": 2253.5199999999604,
      "v": 127
    },
    {
      "midi": 61,
      "hit": false,
      "t": 226478.75999999928,
      "d": 2338.0269999999437,
      "v": 127
    },
    {
      "midi": 64,
      "hit": false,
      "t": 226478.75999999928,
      "d": 2957.744999999937,
      "v": 127
    },
    {
      "midi": 45,
      "hit": false,
      "t": 228380.16749999925,
      "d": 1302.8162499999744,
      "v": 127
    },
    {
      "midi": 52,
      "hit": false,
      "t": 228802.70249999923,
      "d": 873.2390000000014,
      "v": 127
    },
    {
      "midi": 56,
      "hit": false,
      "t": 229225.23749999923,
      "d": 577.4644999999728,
      "v": 127
    },
    {
      "midi": 61,
      "hit": false,
      "t": 229436.50499999922,
      "d": 309.85899999999674,
      "v": 127
    },
    {
      "midi": 61,
      "hit": false,
      "t": 229859.0399999992,
      "d": 1119.7177499999816,
      "v": 127
    },
    {
      "midi": 66,
      "hit": false,
      "t": 229859.0399999992,
      "d": 1647.8864999999641,
      "v": 127
    },
    {
      "midi": 69,
      "hit": false,
      "t": 229859.0399999992,
      "d": 1915.4919999999693,
      "v": 127
    },
    {
      "midi": 76,
      "hit": false,
      "t": 229859.0399999992,
      "d": 2690.13949999999,
      "v": 127
    },
    {
      "midi": 50,
      "hit": false,
      "t": 229859.0399999992,
      "d": 3197.181499999948,
      "v": 127
    },
    {
      "midi": 57,
      "hit": false,
      "t": 230915.3774999992,
      "d": 2070.4214999999676,
      "v": 127
    },
    {
      "midi": 61,
      "hit": false,
      "t": 231337.91249999916,
      "d": 985.9150000000081,
      "v": 127
    },
    {
      "midi": 66,
      "hit": false,
      "t": 231760.44749999917,
      "d": 1239.435999999987,
      "v": 127
    },
    {
      "midi": 69,
      "hit": false,
      "t": 232182.98249999917,
      "d": 732.3940000000002,
      "v": 127
    },
    {
      "midi": 61,
      "hit": false,
      "t": 232605.51749999917,
      "d": 450.7039999999688,
      "v": 127
    },
    {
      "midi": 76,
      "hit": false,
      "t": 232816.78499999916,
      "d": 211.2674999999872,
      "v": 127
    },
    {
      "midi": 45,
      "hit": false,
      "t": 233239.31999999913,
      "d": 1690.1399999999849,
      "v": 127
    },
    {
      "midi": 52,
      "hit": false,
      "t": 233450.58749999912,
      "d": 978.8727499999804,
      "v": 127
    },
    {
      "midi": 56,
      "hit": false,
      "t": 233661.8549999991,
      "d": 1267.6050000000105,
      "v": 127
    },
    {
      "midi": 61,
      "hit": false,
      "t": 233873.1224999991,
      "d": 1056.3375000000233,
      "v": 127
    },
    {
      "midi": 64,
      "hit": false,
      "t": 234295.6574999991,
      "d": 633.8025000000198,
      "v": 127
    },
    {
      "midi": 52,
      "hit": false,
      "t": 234506.92499999912,
      "d": 422.5350000000035,
      "v": 127
    },
    {
      "midi": 42,
      "hit": false,
      "t": 234929.45999999912,
      "d": 1690.1399999999849,
      "v": 127
    },
    {
      "midi": 54,
      "hit": false,
      "t": 235351.99499999912,
      "d": 1267.6049999999814,
      "v": 127
    },
    {
      "midi": 57,
      "hit": false,
      "t": 235563.2624999991,
      "d": 1056.3374999999942,
      "v": 127
    },
    {
      "midi": 64,
      "hit": false,
      "t": 235563.2624999991,
      "d": 1056.3374999999942,
      "v": 127
    },
    {
      "midi": 66,
      "hit": false,
      "t": 235563.2624999991,
      "d": 1056.3374999999942,
      "v": 127
    },
    {
      "midi": 47,
      "hit": false,
      "t": 236619.5999999991,
      "d": 1690.1399999999849,
      "v": 127
    },
    {
      "midi": 57,
      "hit": false,
      "t": 236830.8674999991,
      "d": 788.7320000000182,
      "v": 127
    },
    {
      "midi": 62,
      "hit": false,
      "t": 236830.8674999991,
      "d": 852.1122500000056,
      "v": 127
    },
    {
      "midi": 66,
      "hit": false,
      "t": 236830.8674999991,
      "d": 866.1967500000028,
      "v": 127
    },
    {
      "midi": 54,
      "hit": false,
      "t": 237253.4024999991,
      "d": 260.5632500000065,
      "v": 127
    },
    {
      "midi": 54,
      "hit": false,
      "t": 237675.9374999991,
      "d": 633.8024999999907,
      "v": 127
    },
    {
      "midi": 57,
      "hit": false,
      "t": 237887.20499999908,
      "d": 422.5350000000035,
      "v": 127
    },
    {
      "midi": 62,
      "hit": false,
      "t": 237887.20499999908,
      "d": 422.5350000000035,
      "v": 127
    },
    {
      "midi": 66,
      "hit": false,
      "t": 237887.20499999908,
      "d": 422.5350000000035,
      "v": 127
    },
    {
      "midi": 56,
      "hit": false,
      "t": 238309.7399999991,
      "d": 422.5350000000035,
      "v": 127
    },
    {
      "midi": 59,
      "hit": false,
      "t": 238309.7399999991,
      "d": 528.1687500000116,
      "v": 127
    },
    {
      "midi": 68,
      "hit": false,
      "t": 238309.7399999991,
      "d": 612.675750000024,
      "v": 127
    },
    {
      "midi": 40,
      "hit": false,
      "t": 238309.7399999991,
      "d": 1690.1399999999849,
      "v": 127
    },
    {
      "midi": 56,
      "hit": false,
      "t": 238732.2749999991,
      "d": 1267.6049999999814,
      "v": 127
    },
    {
      "midi": 59,
      "hit": false,
      "t": 238943.5424999991,
      "d": 1056.337499999965,
      "v": 127
    },
    {
      "midi": 68,
      "hit": false,
      "t": 239366.07749999908,
      "d": 633.8024999999907,
      "v": 127
    },
    {
      "midi": 45,
      "hit": false,
      "t": 239999.87999999907,
      "d": 1683.0977499999863,
      "v": 127
    },
    {
      "midi": 52,
      "hit": false,
      "t": 239999.87999999907,
      "d": 2035.2102499999746,
      "v": 127
    },
    {
      "midi": 56,
      "hit": false,
      "t": 239999.87999999907,
      "d": 2253.5199999999604,
      "v": 127
    },
    {
      "midi": 61,
      "hit": false,
      "t": 239999.87999999907,
      "d": 2338.0269999999437,
      "v": 127
    },
    {
      "midi": 64,
      "hit": false,
      "t": 239999.87999999907,
      "d": 2957.744999999937,
      "v": 127
    },
    {
      "midi": 45,
      "hit": false,
      "t": 241901.28749999905,
      "d": 1302.8162499999744,
      "v": 127
    },
    {
      "midi": 52,
      "hit": false,
      "t": 242323.82249999902,
      "d": 873.2390000000014,
      "v": 127
    },
    {
      "midi": 56,
      "hit": false,
      "t": 242746.35749999902,
      "d": 577.4644999999728,
      "v": 127
    },
    {
      "midi": 61,
      "hit": false,
      "t": 242957.624999999,
      "d": 309.85899999999674,
      "v": 127
    },
    {
      "midi": 57,
      "hit": false,
      "t": 243380.15999999898,
      "d": 1084.5064999999886,
      "v": 127
    },
    {
      "midi": 62,
      "hit": false,
      "t": 243380.15999999898,
      "d": 1478.8724999999977,
      "v": 127
    },
    {
      "midi": 50,
      "hit": false,
      "t": 243380.15999999898,
      "d": 1690.1399999999849,
      "v": 127
    },
    {
      "midi": 69,
      "hit": false,
      "t": 243380.15999999898,
      "d": 1690.1399999999849,
      "v": 127
    },
    {
      "midi": 57,
      "hit": false,
      "t": 244859.03249999898,
      "d": 211.2674999999872,
      "v": 127
    },
    {
      "midi": 38,
      "hit": false,
      "t": 245070.29999999897,
      "d": 1690.1399999999849,
      "v": 127
    },
    {
      "midi": 59,
      "hit": false,
      "t": 245281.56749999896,
      "d": 788.7320000000182,
      "v": 127
    },
    {
      "midi": 68,
      "hit": false,
      "t": 245281.56749999896,
      "d": 852.1122500000056,
      "v": 127
    },
    {
      "midi": 56,
      "hit": false,
      "t": 245704.10249999896,
      "d": 260.5632500000065,
      "v": 127
    },
    {
      "midi": 56,
      "hit": false,
      "t": 246126.63749999896,
      "d": 633.8024999999907,
      "v": 127
    },
    {
      "midi": 59,
      "hit": false,
      "t": 246337.90499999895,
      "d": 422.5350000000035,
      "v": 127
    },
    {
      "midi": 68,
      "hit": false,
      "t": 246337.90499999895,
      "d": 422.5350000000035,
      "v": 127
    },
    {
      "midi": 49,
      "hit": false,
      "t": 246760.43999999895,
      "d": 1690.1399999999849,
      "v": 127
    },
    {
      "midi": 56,
      "hit": false,
      "t": 246971.70749999894,
      "d": 964.7882499999832,
      "v": 127
    },
    {
      "midi": 59,
      "hit": false,
      "t": 247182.97499999893,
      "d": 1267.6050000000105,
      "v": 127
    },
    {
      "midi": 64,
      "hit": false,
      "t": 247394.24249999892,
      "d": 514.0842500000144,
      "v": 127
    },
    {
      "midi": 68,
      "hit": false,
      "t": 247816.77749999892,
      "d": 295.77450000002864,
      "v": 127
    },
    {
      "midi": 64,
      "hit": false,
      "t": 248028.04499999894,
      "d": 422.5350000000035,
      "v": 127
    },
    {
      "midi": 42,
      "hit": false,
      "t": 248450.57999999894,
      "d": 1690.1399999999849,
      "v": 127
    },
    {
      "midi": 54,
      "hit": false,
      "t": 248873.11499999894,
      "d": 1267.6049999999814,
      "v": 127
    },
    {
      "midi": 57,
      "hit": false,
      "t": 249084.38249999893,
      "d": 1056.3374999999942,
      "v": 127
    },
    {
      "midi": 64,
      "hit": false,
      "t": 249084.38249999893,
      "d": 1056.3374999999942,
      "v": 127
    },
    {
      "midi": 66,
      "hit": false,
      "t": 249084.38249999893,
      "d": 1056.3374999999942,
      "v": 127
    },
    {
      "midi": 54,
      "hit": false,
      "t": 250140.71999999892,
      "d": 422.5350000000035,
      "v": 127
    },
    {
      "midi": 57,
      "hit": false,
      "t": 250140.71999999892,
      "d": 528.1687500000116,
      "v": 127
    },
    {
      "midi": 62,
      "hit": false,
      "t": 250140.71999999892,
      "d": 612.675750000024,
      "v": 127
    },
    {
      "midi": 66,
      "hit": false,
      "t": 250140.71999999892,
      "d": 626.7602500000212,
      "v": 127
    },
    {
      "midi": 47,
      "hit": false,
      "t": 250140.71999999892,
      "d": 1690.1399999999849,
      "v": 127
    },
    {
      "midi": 54,
      "hit": false,
      "t": 250563.25499999893,
      "d": 1267.6049999999814,
      "v": 127
    },
    {
      "midi": 57,
      "hit": false,
      "t": 250774.52249999894,
      "d": 1056.337499999965,
      "v": 127
    },
    {
      "midi": 62,
      "hit": false,
      "t": 251197.05749999892,
      "d": 633.8024999999907,
      "v": 127
    },
    {
      "midi": 40,
      "hit": false,
      "t": 251830.8599999989,
      "d": 1690.1399999999849,
      "v": 127
    },
    {
      "midi": 56,
      "hit": false,
      "t": 252253.3949999989,
      "d": 1267.6049999999814,
      "v": 127
    },
    {
      "midi": 59,
      "hit": false,
      "t": 252464.6624999989,
      "d": 1056.3374999999942,
      "v": 127
    },
    {
      "midi": 68,
      "hit": false,
      "t": 252464.6624999989,
      "d": 1056.3374999999942,
      "v": 127
    },
    {
      "midi": 40,
      "hit": false,
      "t": 253520.9999999989,
      "d": 1690.1399999999849,
      "v": 127
    },
    {
      "midi": 52,
      "hit": false,
      "t": 253732.26749999888,
      "d": 978.8727499999804,
      "v": 127
    },
    {
      "midi": 55,
      "hit": false,
      "t": 253943.53499999887,
      "d": 1267.6050000000105,
      "v": 127
    },
    {
      "midi": 62,
      "hit": false,
      "t": 254154.80249999886,
      "d": 1056.3375000000233,
      "v": 127
    },
    {
      "midi": 64,
      "hit": false,
      "t": 254577.33749999886,
      "d": 633.8025000000198,
      "v": 127
    },
    {
      "midi": 52,
      "hit": false,
      "t": 254788.60499999888,
      "d": 422.5350000000035,
      "v": 127
    },
    {
      "midi": 45,
      "hit": false,
      "t": 255211.13999999888,
      "d": 1690.1399999999849,
      "v": 127
    },
    {
      "midi": 52,
      "hit": false,
      "t": 255633.67499999888,
      "d": 1267.6049999999814,
      "v": 127
    },
    {
      "midi": 57,
      "hit": false,
      "t": 255844.94249999887,
      "d": 1056.3374999999942,
      "v": 127
    },
    {
      "midi": 64,
      "hit": false,
      "t": 255844.94249999887,
      "d": 1056.3374999999942,
      "v": 127
    },
    {
      "midi": 50,
      "hit": false,
      "t": 256901.27999999886,
      "d": 1690.1399999999849,
      "v": 127
    },
    {
      "midi": 57,
      "hit": false,
      "t": 257323.81499999887,
      "d": 1267.6049999999814,
      "v": 127
    },
    {
      "midi": 62,
      "hit": false,
      "t": 257535.08249999885,
      "d": 1056.3374999999942,
      "v": 127
    },
    {
      "midi": 69,
      "hit": false,
      "t": 257535.08249999885,
      "d": 1056.3374999999942,
      "v": 127
    },
    {
      "midi": 38,
      "hit": false,
      "t": 258591.41999999885,
      "d": 1690.1399999999849,
      "v": 127
    },
    {
      "midi": 56,
      "hit": false,
      "t": 259013.95499999885,
      "d": 1267.6049999999814,
      "v": 127
    },
    {
      "midi": 59,
      "hit": false,
      "t": 259225.22249999884,
      "d": 1056.3374999999942,
      "v": 127
    },
    {
      "midi": 68,
      "hit": false,
      "t": 259225.22249999884,
      "d": 1056.3374999999942,
      "v": 127
    },
    {
      "midi": 49,
      "hit": false,
      "t": 260281.55999999883,
      "d": 1690.1399999999849,
      "v": 127
    },
    {
      "midi": 59,
      "hit": false,
      "t": 260492.82749999882,
      "d": 788.7320000000182,
      "v": 127
    },
    {
      "midi": 64,
      "hit": false,
      "t": 260492.82749999882,
      "d": 852.1122500000056,
      "v": 127
    },
    {
      "midi": 68,
      "hit": false,
      "t": 260492.82749999882,
      "d": 866.1967500000028,
      "v": 127
    },
    {
      "midi": 56,
      "hit": false,
      "t": 260915.36249999882,
      "d": 260.5632500000065,
      "v": 127
    },
    {
      "midi": 56,
      "hit": false,
      "t": 261337.89749999883,
      "d": 633.8024999999907,
      "v": 127
    },
    {
      "midi": 59,
      "hit": false,
      "t": 261549.16499999881,
      "d": 422.5350000000035,
      "v": 127
    },
    {
      "midi": 64,
      "hit": false,
      "t": 261549.16499999881,
      "d": 422.5350000000035,
      "v": 127
    },
    {
      "midi": 68,
      "hit": false,
      "t": 261549.16499999881,
      "d": 422.5350000000035,
      "v": 127
    },
    {
      "midi": 54,
      "hit": false,
      "t": 261971.69999999882,
      "d": 422.5350000000035,
      "v": 127
    },
    {
      "midi": 57,
      "hit": false,
      "t": 261971.69999999882,
      "d": 528.1687499999825,
      "v": 127
    },
    {
      "midi": 64,
      "hit": false,
      "t": 261971.69999999882,
      "d": 612.6757499999658,
      "v": 127
    },
    {
      "midi": 66,
      "hit": false,
      "t": 261971.69999999882,
      "d": 626.760249999963,
      "v": 127
    },
    {
      "midi": 42,
      "hit": false,
      "t": 261971.69999999882,
      "d": 1690.1399999999849,
      "v": 127
    },
    {
      "midi": 54,
      "hit": false,
      "t": 262394.2349999988,
      "d": 1267.6049999999814,
      "v": 127
    },
    {
      "midi": 57,
      "hit": false,
      "t": 262605.5024999988,
      "d": 1056.3375000000233,
      "v": 127
    },
    {
      "midi": 64,
      "hit": false,
      "t": 263028.0374999988,
      "d": 633.8024999999907,
      "v": 127
    },
    {
      "midi": 47,
      "hit": false,
      "t": 263661.8399999988,
      "d": 1690.1399999999558,
      "v": 127
    },
    {
      "midi": 54,
      "hit": false,
      "t": 263873.1074999988,
      "d": 964.7882499999832,
      "v": 127
    },
    {
      "midi": 57,
      "hit": false,
      "t": 264084.37499999884,
      "d": 1267.6049999999232,
      "v": 127
    },
    {
      "midi": 62,
      "hit": false,
      "t": 264295.64249999885,
      "d": 514.0842499999562,
      "v": 127
    },
    {
      "midi": 66,
      "hit": false,
      "t": 264718.1774999988,
      "d": 295.7744999999413,
      "v": 127
    },
    {
      "midi": 62,
      "hit": false,
      "t": 264929.4449999988,
      "d": 422.5349999999744,
      "v": 127
    },
    {
      "midi": 56,
      "hit": false,
      "t": 265351.97999999876,
      "d": 1084.5065000000177,
      "v": 127
    },
    {
      "midi": 59,
      "hit": false,
      "t": 265351.97999999876,
      "d": 1478.8724999999977,
      "v": 127
    },
    {
      "midi": 40,
      "hit": false,
      "t": 265351.97999999876,
      "d": 1690.140000000014,
      "v": 127
    },
    {
      "midi": 68,
      "hit": false,
      "t": 265351.97999999876,
      "d": 1690.140000000014,
      "v": 127
    },
    {
      "midi": 56,
      "hit": false,
      "t": 266830.85249999876,
      "d": 211.2675000000163,
      "v": 127
    },
    {
      "midi": 61,
      "hit": false,
      "t": 267042.1199999988,
      "d": 1056.3375000000233,
      "v": 127
    },
    {
      "midi": 45,
      "hit": false,
      "t": 267042.1199999988,
      "d": 1478.8725000000559,
      "v": 127
    },
    {
      "midi": 57,
      "hit": false,
      "t": 267042.1199999988,
      "d": 2112.6750000000466,
      "v": 127
    },
    {
      "midi": 64,
      "hit": false,
      "t": 267042.1199999988,
      "d": 2535.210000000079,
      "v": 127
    },
    {
      "midi": 68,
      "hit": false,
      "t": 267042.1199999988,
      "d": 3169.01250000007,
      "v": 127
    },
    {
      "midi": 61,
      "hit": false,
      "t": 268309.7249999988,
      "d": 1056.3375000000233,
      "v": 127
    },
    {
      "midi": 45,
      "hit": false,
      "t": 268943.5274999988,
      "d": 1267.6050000000396,
      "v": 127
    },
    {
      "midi": 57,
      "hit": false,
      "t": 269154.7949999988,
      "d": 1056.3375000000233,
      "v": 127
    },
    {
      "midi": 61,
      "hit": false,
      "t": 269366.06249999884,
      "d": 845.070000000007,
      "v": 127
    },
    {
      "midi": 64,
      "hit": false,
      "t": 269788.59749999887,
      "d": 422.5349999999744,
      "v": 127
    },
    {
      "midi": 57,
      "hit": false,
      "t": 270422.39999999886,
      "d": 1084.5065000000177,
      "v": 127
    },
    {
      "midi": 62,
      "hit": false,
      "t": 270422.39999999886,
      "d": 1478.8724999999977,
      "v": 127
    },
    {
      "midi": 50,
      "hit": false,
      "t": 270422.39999999886,
      "d": 1690.140000000014,
      "v": 127
    },
    {
      "midi": 69,
      "hit": false,
      "t": 270422.39999999886,
      "d": 1690.140000000014,
      "v": 127
    },
    {
      "midi": 57,
      "hit": false,
      "t": 271901.27249999886,
      "d": 211.2675000000163,
      "v": 127
    },
    {
      "midi": 38,
      "hit": false,
      "t": 272112.5399999989,
      "d": 1690.1399999999558,
      "v": 127
    },
    {
      "midi": 59,
      "hit": false,
      "t": 272323.8074999989,
      "d": 788.73199999996,
      "v": 127
    },
    {
      "midi": 68,
      "hit": false,
      "t": 272323.8074999989,
      "d": 852.1122499999474,
      "v": 127
    },
    {
      "midi": 56,
      "hit": false,
      "t": 272746.34249999886,
      "d": 260.5632500000065,
      "v": 127
    },
    {
      "midi": 56,
      "hit": false,
      "t": 273168.87749999884,
      "d": 633.8024999999907,
      "v": 127
    },
    {
      "midi": 59,
      "hit": false,
      "t": 273380.14499999885,
      "d": 422.5349999999744,
      "v": 127
    },
    {
      "midi": 68,
      "hit": false,
      "t": 273380.14499999885,
      "d": 422.5349999999744,
      "v": 127
    },
    {
      "midi": 49,
      "hit": false,
      "t": 273802.6799999988,
      "d": 1690.1399999999558,
      "v": 127
    },
    {
      "midi": 56,
      "hit": false,
      "t": 274013.94749999885,
      "d": 964.7882499999832,
      "v": 127
    },
    {
      "midi": 59,
      "hit": false,
      "t": 274225.21499999886,
      "d": 1267.6049999999232,
      "v": 127
    },
    {
      "midi": 64,
      "hit": false,
      "t": 274436.4824999989,
      "d": 514.0842499999562,
      "v": 127
    },
    {
      "midi": 68,
      "hit": false,
      "t": 274859.01749999885,
      "d": 295.7744999999413,
      "v": 127
    },
    {
      "midi": 64,
      "hit": false,
      "t": 275070.2849999988,
      "d": 422.5349999999744,
      "v": 127
    },
    {
      "midi": 42,
      "hit": false,
      "t": 275492.8199999988,
      "d": 1690.140000000014,
      "v": 127
    },
    {
      "midi": 54,
      "hit": false,
      "t": 275915.35499999876,
      "d": 1267.6050000000396,
      "v": 127
    },
    {
      "midi": 57,
      "hit": false,
      "t": 276126.6224999988,
      "d": 1056.3375000000233,
      "v": 127
    },
    {
      "midi": 64,
      "hit": false,
      "t": 276126.6224999988,
      "d": 1056.3375000000233,
      "v": 127
    },
    {
      "midi": 66,
      "hit": false,
      "t": 276126.6224999988,
      "d": 1056.3375000000233,
      "v": 127
    },
    {
      "midi": 54,
      "hit": false,
      "t": 277182.9599999988,
      "d": 422.5349999999744,
      "v": 127
    },
    {
      "midi": 57,
      "hit": false,
      "t": 277182.9599999988,
      "d": 528.1687499999534,
      "v": 127
    },
    {
      "midi": 62,
      "hit": false,
      "t": 277182.9599999988,
      "d": 612.6757499999367,
      "v": 127
    },
    {
      "midi": 66,
      "hit": false,
      "t": 277182.9599999988,
      "d": 626.7602499999339,
      "v": 127
    },
    {
      "midi": 47,
      "hit": false,
      "t": 277182.9599999988,
      "d": 1690.1399999999558,
      "v": 127
    },
    {
      "midi": 54,
      "hit": false,
      "t": 277605.4949999988,
      "d": 1267.6049999999814,
      "v": 127
    },
    {
      "midi": 57,
      "hit": false,
      "t": 277816.76249999873,
      "d": 1056.3375000000233,
      "v": 127
    },
    {
      "midi": 62,
      "hit": false,
      "t": 278239.29749999876,
      "d": 633.8024999999907,
      "v": 127
    },
    {
      "midi": 40,
      "hit": false,
      "t": 278873.09999999875,
      "d": 1690.140000000014,
      "v": 127
    },
    {
      "midi": 56,
      "hit": false,
      "t": 279295.6349999987,
      "d": 1267.6050000000396,
      "v": 127
    },
    {
      "midi": 59,
      "hit": false,
      "t": 279506.90249999875,
      "d": 1056.3375000000233,
      "v": 127
    },
    {
      "midi": 68,
      "hit": false,
      "t": 279506.90249999875,
      "d": 1056.3375000000233,
      "v": 127
    },
    {
      "midi": 40,
      "hit": false,
      "t": 280563.23999999877,
      "d": 1690.1399999999558,
      "v": 127
    },
    {
      "midi": 52,
      "hit": false,
      "t": 280774.5074999988,
      "d": 978.8727499999804,
      "v": 127
    },
    {
      "midi": 55,
      "hit": false,
      "t": 280985.7749999988,
      "d": 1267.6049999999232,
      "v": 127
    },
    {
      "midi": 62,
      "hit": false,
      "t": 281197.0424999988,
      "d": 1056.3374999999069,
      "v": 127
    },
    {
      "midi": 64,
      "hit": false,
      "t": 281619.5774999988,
      "d": 633.8024999999325,
      "v": 127
    },
    {
      "midi": 52,
      "hit": false,
      "t": 281830.84499999875,
      "d": 422.5349999999744,
      "v": 127
    },
    {
      "midi": 45,
      "hit": false,
      "t": 282253.3799999987,
      "d": 1690.140000000014,
      "v": 127
    },
    {
      "midi": 52,
      "hit": false,
      "t": 282675.9149999987,
      "d": 1267.6050000000396,
      "v": 127
    },
    {
      "midi": 57,
      "hit": false,
      "t": 282887.1824999987,
      "d": 1056.3375000000233,
      "v": 127
    },
    {
      "midi": 64,
      "hit": false,
      "t": 282887.1824999987,
      "d": 1056.3375000000233,
      "v": 127
    },
    {
      "midi": 50,
      "hit": false,
      "t": 283943.51999999874,
      "d": 1690.140000000014,
      "v": 127
    },
    {
      "midi": 57,
      "hit": false,
      "t": 284366.0549999987,
      "d": 1267.6050000000396,
      "v": 127
    },
    {
      "midi": 62,
      "hit": false,
      "t": 284577.3224999987,
      "d": 1056.3375000000233,
      "v": 127
    },
    {
      "midi": 69,
      "hit": false,
      "t": 284577.3224999987,
      "d": 1056.3375000000233,
      "v": 127
    },
    {
      "midi": 38,
      "hit": false,
      "t": 285633.65999999875,
      "d": 1690.140000000014,
      "v": 127
    },
    {
      "midi": 56,
      "hit": false,
      "t": 286056.1949999987,
      "d": 1267.6050000000396,
      "v": 127
    },
    {
      "midi": 59,
      "hit": false,
      "t": 286267.46249999874,
      "d": 1056.3375000000233,
      "v": 127
    },
    {
      "midi": 68,
      "hit": false,
      "t": 286267.46249999874,
      "d": 1056.3375000000233,
      "v": 127
    },
    {
      "midi": 49,
      "hit": false,
      "t": 287323.79999999877,
      "d": 1690.1399999999558,
      "v": 127
    },
    {
      "midi": 59,
      "hit": false,
      "t": 287535.0674999988,
      "d": 788.73199999996,
      "v": 127
    },
    {
      "midi": 64,
      "hit": false,
      "t": 287535.0674999988,
      "d": 852.1122499999474,
      "v": 127
    },
    {
      "midi": 68,
      "hit": false,
      "t": 287535.0674999988,
      "d": 866.1967499999446,
      "v": 127
    },
    {
      "midi": 56,
      "hit": false,
      "t": 287957.60249999876,
      "d": 260.5632500000065,
      "v": 127
    },
    {
      "midi": 56,
      "hit": false,
      "t": 288380.13749999873,
      "d": 633.8024999999907,
      "v": 127
    },
    {
      "midi": 59,
      "hit": false,
      "t": 288591.40499999875,
      "d": 422.5349999999744,
      "v": 127
    },
    {
      "midi": 64,
      "hit": false,
      "t": 288591.40499999875,
      "d": 422.5349999999744,
      "v": 127
    },
    {
      "midi": 68,
      "hit": false,
      "t": 288591.40499999875,
      "d": 422.5349999999744,
      "v": 127
    },
    {
      "midi": 54,
      "hit": false,
      "t": 289013.9399999987,
      "d": 422.5349999999744,
      "v": 127
    },
    {
      "midi": 57,
      "hit": false,
      "t": 289013.9399999987,
      "d": 528.1687499999534,
      "v": 127
    },
    {
      "midi": 64,
      "hit": false,
      "t": 289013.9399999987,
      "d": 612.6757499999367,
      "v": 127
    },
    {
      "midi": 66,
      "hit": false,
      "t": 289013.9399999987,
      "d": 626.7602499999339,
      "v": 127
    },
    {
      "midi": 42,
      "hit": false,
      "t": 289013.9399999987,
      "d": 1690.1399999999558,
      "v": 127
    },
    {
      "midi": 54,
      "hit": false,
      "t": 289436.4749999987,
      "d": 1267.6049999999814,
      "v": 127
    },
    {
      "midi": 57,
      "hit": false,
      "t": 289647.74249999865,
      "d": 1056.3375000000233,
      "v": 127
    },
    {
      "midi": 64,
      "hit": false,
      "t": 290070.2774999987,
      "d": 633.8024999999907,
      "v": 127
    },
    {
      "midi": 47,
      "hit": false,
      "t": 290704.0799999987,
      "d": 1690.140000000014,
      "v": 127
    },
    {
      "midi": 54,
      "hit": false,
      "t": 290915.3474999987,
      "d": 1056.3375000000233,
      "v": 127
    },
    {
      "midi": 57,
      "hit": false,
      "t": 291126.6149999987,
      "d": 1267.6049999999814,
      "v": 127
    },
    {
      "midi": 62,
      "hit": false,
      "t": 291337.8824999987,
      "d": 422.5349999999744,
      "v": 127
    },
    {
      "midi": 66,
      "hit": false,
      "t": 291760.4174999987,
      "d": 211.2675000000163,
      "v": 127
    },
    {
      "midi": 62,
      "hit": false,
      "t": 291971.6849999987,
      "d": 422.5349999999744,
      "v": 127
    },
    {
      "midi": 56,
      "hit": false,
      "t": 292394.2199999987,
      "d": 1056.3375000000233,
      "v": 127
    },
    {
      "midi": 59,
      "hit": false,
      "t": 292394.2199999987,
      "d": 1478.8724999999977,
      "v": 127
    },
    {
      "midi": 40,
      "hit": false,
      "t": 292394.2199999987,
      "d": 1690.140000000014,
      "v": 127
    },
    {
      "midi": 68,
      "hit": false,
      "t": 292394.2199999987,
      "d": 1690.140000000014,
      "v": 127
    },
    {
      "midi": 56,
      "hit": false,
      "t": 293873.0924999987,
      "d": 211.2675000000163,
      "v": 127
    },
    {
      "midi": 57,
      "hit": false,
      "t": 294084.3599999987,
      "d": 422.5349999999744,
      "v": 127
    },
    {
      "midi": 61,
      "hit": false,
      "t": 294084.3599999987,
      "d": 422.5349999999744,
      "v": 127
    },
    {
      "midi": 66,
      "hit": false,
      "t": 294084.3599999987,
      "d": 633.8024999999907,
      "v": 127
    },
    {
      "midi": 62,
      "hit": false,
      "t": 294084.3599999987,
      "d": 845.070000000007,
      "v": 127
    },
    {
      "midi": 38,
      "hit": false,
      "t": 294084.3599999987,
      "d": 1056.3375000000233,
      "v": 127
    },
    {
      "midi": 50,
      "hit": false,
      "t": 294084.3599999987,
      "d": 1056.3375000000233,
      "v": 127
    },
    {
      "midi": 57,
      "hit": false,
      "t": 294506.8949999987,
      "d": 633.8025000000489,
      "v": 127
    },
    {
      "midi": 62,
      "hit": false,
      "t": 294929.4299999987,
      "d": 845.070000000007,
      "v": 127
    },
    {
      "midi": 66,
      "hit": false,
      "t": 294929.4299999987,
      "d": 845.070000000007,
      "v": 127
    },
    {
      "midi": 61,
      "hit": false,
      "t": 295140.6974999987,
      "d": 211.2675000000163,
      "v": 127
    },
    {
      "midi": 57,
      "hit": false,
      "t": 295351.96499999875,
      "d": 422.5349999999744,
      "v": 127
    },
    {
      "midi": 43,
      "hit": false,
      "t": 295774.4999999987,
      "d": 1690.1400000000722,
      "v": 127
    },
    {
      "midi": 53,
      "hit": false,
      "t": 295985.76749999874,
      "d": 211.2675000000163,
      "v": 127
    },
    {
      "midi": 55,
      "hit": false,
      "t": 295985.76749999874,
      "d": 211.2675000000163,
      "v": 127
    },
    {
      "midi": 55,
      "hit": false,
      "t": 296197.03499999875,
      "d": 1056.3375000000233,
      "v": 127
    },
    {
      "midi": 59,
      "hit": false,
      "t": 296408.30249999877,
      "d": 845.070000000007,
      "v": 127
    },
    {
      "midi": 62,
      "hit": false,
      "t": 296619.5699999988,
      "d": 633.8024999999907,
      "v": 127
    },
    {
      "midi": 66,
      "hit": false,
      "t": 296830.8374999988,
      "d": 633.8024999999907,
      "v": 127
    },
    {
      "midi": 61,
      "hit": false,
      "t": 297464.6399999988,
      "d": 422.5349999999744,
      "v": 127
    },
    {
      "midi": 64,
      "hit": false,
      "t": 297464.6399999988,
      "d": 845.0699999999488,
      "v": 127
    },
    {
      "midi": 68,
      "hit": false,
      "t": 297464.6399999988,
      "d": 1056.337499999965,
      "v": 127
    },
    {
      "midi": 71,
      "hit": false,
      "t": 297464.6399999988,
      "d": 1478.8724999999977,
      "v": 127
    },
    {
      "midi": 45,
      "hit": false,
      "t": 297464.6399999988,
      "d": 5281.6875,
      "v": 127
    },
    {
      "midi": 61,
      "hit": false,
      "t": 297887.17499999877,
      "d": 4859.152500000026,
      "v": 127
    },
    {
      "midi": 64,
      "hit": false,
      "t": 298309.70999999874,
      "d": 4436.617500000051,
      "v": 127
    },
    {
      "midi": 68,
      "hit": false,
      "t": 298732.2449999988,
      "d": 4014.0825000000186,
      "v": 127
    },
    {
      "midi": 71,
      "hit": false,
      "t": 299154.7799999988,
      "d": 3591.547499999986,
      "v": 127
    }
  ]
}