{
  "jsonPath": "Animes/Whisper Of The Heart MIDI Collection/the-end-of-summer.json",
  "path": "Animes\\Whisper Of The Heart MIDI Collection\\The End Of Summer.mid",
  "name": "The End Of Summer",
  "difficulty": "Advanced",
  "bpm": 90.00009000009,
  "notes": [
    {
      "midi": 46,
      "hit": false,
      "t": 0,
      "d": 599.9994,
      "v": 100
    },
    {
      "midi": 81,
      "hit": false,
      "t": 333.333,
      "d": 299.9997,
      "v": 100
    },
    {
      "midi": 79,
      "hit": false,
      "t": 666.666,
      "d": 299.99969999999996,
      "v": 100
    },
    {
      "midi": 58,
      "hit": false,
      "t": 666.666,
      "d": 1199.9987999999998,
      "v": 100
    },
    {
      "midi": 62,
      "hit": false,
      "t": 666.666,
      "d": 1199.9987999999998,
      "v": 100
    },
    {
      "midi": 53,
      "hit": false,
      "t": 666.666,
      "d": 1199.9987999999998,
      "v": 100
    },
    {
      "midi": 81,
      "hit": false,
      "t": 999.999,
      "d": 299.9997000000001,
      "v": 100
    },
    {
      "midi": 78,
      "hit": false,
      "t": 1333.332,
      "d": 299.9997000000001,
      "v": 100
    },
    {
      "midi": 81,
      "hit": false,
      "t": 1666.6650000000002,
      "d": 299.9997000000001,
      "v": 100
    },
    {
      "midi": 79,
      "hit": false,
      "t": 1999.9980000000003,
      "d": 599.9993999999999,
      "v": 100
    },
    {
      "midi": 42,
      "hit": false,
      "t": 2333.331,
      "d": 299.99969999999985,
      "v": 100
    },
    {
      "midi": 44,
      "hit": false,
      "t": 2666.6639999999998,
      "d": 299.99969999999985,
      "v": 100
    },
    {
      "midi": 65,
      "hit": false,
      "t": 2666.664,
      "d": 599.9994000000002,
      "v": 100
    },
    {
      "midi": 62,
      "hit": false,
      "t": 2666.664,
      "d": 599.9994000000002,
      "v": 100
    },
    {
      "midi": 46,
      "hit": false,
      "t": 2999.9969999999994,
      "d": 299.99969999999985,
      "v": 100
    },
    {
      "midi": 48,
      "hit": false,
      "t": 3333.329999999999,
      "d": 299.99969999999985,
      "v": 100
    },
    {
      "midi": 63,
      "hit": false,
      "t": 3333.3300000000004,
      "d": 599.9994000000002,
      "v": 100
    },
    {
      "midi": 66,
      "hit": false,
      "t": 3333.3300000000004,
      "d": 599.9994000000002,
      "v": 100
    },
    {
      "midi": 50,
      "hit": false,
      "t": 3666.6629999999986,
      "d": 299.99969999999985,
      "v": 100
    },
    {
      "midi": 50,
      "hit": false,
      "t": 3999.9959999999983,
      "d": 599.9993999999997,
      "v": 100
    },
    {
      "midi": 81,
      "hit": false,
      "t": 4333.329000000001,
      "d": 299.9997000000003,
      "v": 100
    },
    {
      "midi": 53,
      "hit": false,
      "t": 4666.6619999999975,
      "d": 1199.9988000000003,
      "v": 100
    },
    {
      "midi": 58,
      "hit": false,
      "t": 4666.6619999999975,
      "d": 1199.9988000000003,
      "v": 100
    },
    {
      "midi": 62,
      "hit": false,
      "t": 4666.6619999999975,
      "d": 1199.9988000000003,
      "v": 100
    },
    {
      "midi": 79,
      "hit": false,
      "t": 4666.662000000001,
      "d": 299.9997000000003,
      "v": 100
    },
    {
      "midi": 81,
      "hit": false,
      "t": 4999.995000000002,
      "d": 299.9997000000003,
      "v": 100
    },
    {
      "midi": 78,
      "hit": false,
      "t": 5333.328000000002,
      "d": 299.9997000000003,
      "v": 100
    },
    {
      "midi": 81,
      "hit": false,
      "t": 5666.661000000003,
      "d": 299.9997000000003,
      "v": 100
    },
    {
      "midi": 77,
      "hit": false,
      "t": 5999.994000000003,
      "d": 599.9993999999997,
      "v": 100
    },
    {
      "midi": 42,
      "hit": false,
      "t": 6333.3269999999975,
      "d": 299.9997000000003,
      "v": 100
    },
    {
      "midi": 44,
      "hit": false,
      "t": 6666.659999999998,
      "d": 299.9997000000003,
      "v": 100
    },
    {
      "midi": 65,
      "hit": false,
      "t": 6666.660000000003,
      "d": 599.9993999999997,
      "v": 100
    },
    {
      "midi": 62,
      "hit": false,
      "t": 6666.660000000003,
      "d": 599.9993999999997,
      "v": 100
    },
    {
      "midi": 46,
      "hit": false,
      "t": 6999.992999999999,
      "d": 299.9997000000003,
      "v": 100
    },
    {
      "midi": 48,
      "hit": false,
      "t": 7333.325999999999,
      "d": 299.9997000000003,
      "v": 100
    },
    {
      "midi": 63,
      "hit": false,
      "t": 7333.326000000002,
      "d": 599.9993999999997,
      "v": 100
    },
    {
      "midi": 66,
      "hit": false,
      "t": 7333.326000000002,
      "d": 599.9993999999997,
      "v": 100
    },
    {
      "midi": 51,
      "hit": false,
      "t": 7666.659,
      "d": 299.9997000000003,
      "v": 100
    },
    {
      "midi": 46,
      "hit": false,
      "t": 7999.992,
      "d": 599.9994000000006,
      "v": 100
    },
    {
      "midi": 77,
      "hit": false,
      "t": 7999.992000000001,
      "d": 1199.9988000000003,
      "v": 100
    },
    {
      "midi": 70,
      "hit": false,
      "t": 7999.992000000001,
      "d": 1799.998199999999,
      "v": 100
    },
    {
      "midi": 74,
      "hit": false,
      "t": 7999.992000000001,
      "d": 1799.998199999999,
      "v": 100
    },
    {
      "midi": 58,
      "hit": false,
      "t": 8666.658000000001,
      "d": 599.9994000000006,
      "v": 100
    },
    {
      "midi": 75,
      "hit": false,
      "t": 9333.324,
      "d": 199.9997999999996,
      "v": 100
    },
    {
      "midi": 46,
      "hit": false,
      "t": 9333.324000000002,
      "d": 599.9994000000006,
      "v": 100
    },
    {
      "midi": 77,
      "hit": false,
      "t": 9555.546,
      "d": 199.9997999999996,
      "v": 100
    },
    {
      "midi": 75,
      "hit": false,
      "t": 9777.768,
      "d": 199.9997999999996,
      "v": 100
    },
    {
      "midi": 74,
      "hit": false,
      "t": 9999.99,
      "d": 1199.9987999999994,
      "v": 100
    },
    {
      "midi": 46,
      "hit": false,
      "t": 9999.990000000003,
      "d": 599.9994000000006,
      "v": 100
    },
    {
      "midi": 72,
      "hit": false,
      "t": 10666.655999999999,
      "d": 599.9994000000006,
      "v": 100
    },
    {
      "midi": 69,
      "hit": false,
      "t": 10666.655999999999,
      "d": 599.9994000000006,
      "v": 100
    },
    {
      "midi": 58,
      "hit": false,
      "t": 10666.656000000004,
      "d": 599.9994000000006,
      "v": 100
    },
    {
      "midi": 75,
      "hit": false,
      "t": 11333.322,
      "d": 599.9994000000006,
      "v": 100
    },
    {
      "midi": 69,
      "hit": false,
      "t": 11333.322,
      "d": 599.9994000000006,
      "v": 100
    },
    {
      "midi": 66,
      "hit": false,
      "t": 11333.322,
      "d": 599.9994000000006,
      "v": 100
    },
    {
      "midi": 46,
      "hit": false,
      "t": 11333.322000000006,
      "d": 599.9994000000006,
      "v": 100
    },
    {
      "midi": 77,
      "hit": false,
      "t": 11999.988000000001,
      "d": 599.9994000000006,
      "v": 100
    },
    {
      "midi": 74,
      "hit": false,
      "t": 11999.988000000001,
      "d": 1799.9982000000018,
      "v": 100
    },
    {
      "midi": 70,
      "hit": false,
      "t": 11999.988000000001,
      "d": 1799.9982000000018,
      "v": 100
    },
    {
      "midi": 46,
      "hit": false,
      "t": 11999.988000000007,
      "d": 599.9994000000006,
      "v": 100
    },
    {
      "midi": 77,
      "hit": false,
      "t": 12666.654000000002,
      "d": 599.9994000000006,
      "v": 100
    },
    {
      "midi": 58,
      "hit": false,
      "t": 12666.654000000008,
      "d": 599.9994000000006,
      "v": 100
    },
    {
      "midi": 75,
      "hit": false,
      "t": 13333.320000000003,
      "d": 199.9997999999996,
      "v": 100
    },
    {
      "midi": 46,
      "hit": false,
      "t": 13333.320000000009,
      "d": 599.9994000000006,
      "v": 100
    },
    {
      "midi": 77,
      "hit": false,
      "t": 13555.542000000003,
      "d": 199.9997999999996,
      "v": 100
    },
    {
      "midi": 75,
      "hit": false,
      "t": 13777.764000000003,
      "d": 199.9997999999996,
      "v": 100
    },
    {
      "midi": 74,
      "hit": false,
      "t": 13999.986000000003,
      "d": 1199.9987999999994,
      "v": 100
    },
    {
      "midi": 46,
      "hit": false,
      "t": 13999.98600000001,
      "d": 599.9994000000006,
      "v": 100
    },
    {
      "midi": 72,
      "hit": false,
      "t": 14666.652000000002,
      "d": 599.9994000000006,
      "v": 100
    },
    {
      "midi": 69,
      "hit": false,
      "t": 14666.652000000002,
      "d": 599.9994000000006,
      "v": 100
    },
    {
      "midi": 58,
      "hit": false,
      "t": 14666.652000000011,
      "d": 599.9994000000006,
      "v": 100
    },
    {
      "midi": 77,
      "hit": false,
      "t": 15333.318000000003,
      "d": 599.9994000000006,
      "v": 100
    },
    {
      "midi": 81,
      "hit": false,
      "t": 15333.318000000003,
      "d": 599.9994000000006,
      "v": 100
    },
    {
      "midi": 86,
      "hit": false,
      "t": 15333.318000000003,
      "d": 599.9994000000006,
      "v": 100
    },
    {
      "midi": 46,
      "hit": false,
      "t": 15333.318000000012,
      "d": 599.9994000000006,
      "v": 100
    },
    {
      "midi": 87,
      "hit": false,
      "t": 15999.984000000004,
      "d": 1199.9987999999976,
      "v": 100
    },
    {
      "midi": 47,
      "hit": false,
      "t": 15999.984000000013,
      "d": 599.9993999999988,
      "v": 100
    },
    {
      "midi": 75,
      "hit": false,
      "t": 16333.317000000005,
      "d": 299.9996999999985,
      "v": 100
    },
    {
      "midi": 78,
      "hit": false,
      "t": 16666.65,
      "d": 299.9997000000003,
      "v": 100
    },
    {
      "midi": 59,
      "hit": false,
      "t": 16666.650000000012,
      "d": 599.9994000000006,
      "v": 100
    },
    {
      "midi": 82,
      "hit": false,
      "t": 16999.983,
      "d": 299.9997000000003,
      "v": 100
    },
    {
      "midi": 85,
      "hit": false,
      "t": 17333.316,
      "d": 299.9997000000003,
      "v": 100
    },
    {
      "midi": 78,
      "hit": false,
      "t": 17333.316,
      "d": 599.999399999997,
      "v": 100
    },
    {
      "midi": 47,
      "hit": false,
      "t": 17333.316000000013,
      "d": 599.9994000000006,
      "v": 100
    },
    {
      "midi": 83,
      "hit": false,
      "t": 17666.648999999998,
      "d": 299.99969999999666,
      "v": 100
    },
    {
      "midi": 82,
      "hit": false,
      "t": 17999.981999999993,
      "d": 1199.9987999999976,
      "v": 100
    },
    {
      "midi": 44,
      "hit": false,
      "t": 17999.982000000015,
      "d": 599.9994000000006,
      "v": 100
    },
    {
      "midi": 70,
      "hit": false,
      "t": 18333.31499999999,
      "d": 299.9997000000003,
      "v": 100
    },
    {
      "midi": 73,
      "hit": false,
      "t": 18666.64799999999,
      "d": 599.9994000000006,
      "v": 100
    },
    {
      "midi": 56,
      "hit": false,
      "t": 18666.648000000016,
      "d": 599.9994000000006,
      "v": 100
    },
    {
      "midi": 71,
      "hit": false,
      "t": 19333.31399999999,
      "d": 599.9994000000006,
      "v": 100
    },
    {
      "midi": 83,
      "hit": false,
      "t": 19333.31399999999,
      "d": 599.9994000000006,
      "v": 100
    },
    {
      "midi": 75,
      "hit": false,
      "t": 19333.31399999999,
      "d": 599.9994000000006,
      "v": 100
    },
    {
      "midi": 42,
      "hit": false,
      "t": 19333.314000000017,
      "d": 599.9994000000006,
      "v": 100
    },
    {
      "midi": 80,
      "hit": false,
      "t": 19999.979999999992,
      "d": 599.999399999997,
      "v": 100
    },
    {
      "midi": 41,
      "hit": false,
      "t": 19999.980000000018,
      "d": 599.9994000000006,
      "v": 100
    },
    {
      "midi": 71,
      "hit": false,
      "t": 20333.31299999999,
      "d": 299.99969999999666,
      "v": 100
    },
    {
      "midi": 82,
      "hit": false,
      "t": 20666.645999999986,
      "d": 149.99985000000015,
      "v": 100
    },
    {
      "midi": 75,
      "hit": false,
      "t": 20666.645999999986,
      "d": 599.999399999997,
      "v": 100
    },
    {
      "midi": 53,
      "hit": false,
      "t": 20666.64600000002,
      "d": 599.9994000000006,
      "v": 100
    },
    {
      "midi": 80,
      "hit": false,
      "t": 20833.312499999985,
      "d": 149.99985000000015,
      "v": 100
    },
    {
      "midi": 79,
      "hit": false,
      "t": 20999.978999999985,
      "d": 149.99985000000015,
      "v": 100
    },
    {
      "midi": 80,
      "hit": false,
      "t": 21166.645499999984,
      "d": 149.99985000000015,
      "v": 100
    },
    {
      "midi": 83,
      "hit": false,
      "t": 21333.311999999984,
      "d": 299.9997000000003,
      "v": 100
    },
    {
      "midi": 77,
      "hit": false,
      "t": 21333.311999999984,
      "d": 599.999399999997,
      "v": 100
    },
    {
      "midi": 46,
      "hit": false,
      "t": 21333.31200000002,
      "d": 599.9994000000006,
      "v": 100
    },
    {
      "midi": 82,
      "hit": false,
      "t": 21666.644999999982,
      "d": 299.99969999999666,
      "v": 100
    },
    {
      "midi": 79,
      "hit": false,
      "t": 21999.977999999977,
      "d": 1199.9987999999976,
      "v": 100
    },
    {
      "midi": 51,
      "hit": false,
      "t": 21999.97800000002,
      "d": 1199.9988000000012,
      "v": 100
    },
    {
      "midi": 70,
      "hit": false,
      "t": 22333.310999999976,
      "d": 299.9997000000003,
      "v": 100
    },
    {
      "midi": 74,
      "hit": false,
      "t": 22666.643999999975,
      "d": 599.9994000000006,
      "v": 100
    },
    {
      "midi": 80,
      "hit": false,
      "t": 23333.309999999976,
      "d": 149.99985000000015,
      "v": 100
    },
    {
      "midi": 39,
      "hit": false,
      "t": 23333.310000000023,
      "d": 599.9994000000006,
      "v": 100
    },
    {
      "midi": 82,
      "hit": false,
      "t": 23499.976499999975,
      "d": 149.99985000000015,
      "v": 100
    },
    {
      "midi": 83,
      "hit": false,
      "t": 23666.642999999975,
      "d": 149.99985000000015,
      "v": 100
    },
    {
      "midi": 85,
      "hit": false,
      "t": 23833.309499999974,
      "d": 149.99985000000015,
      "v": 100
    },
    {
      "midi": 80,
      "hit": false,
      "t": 23999.975999999973,
      "d": 1199.9988000000012,
      "v": 100
    },
    {
      "midi": 83,
      "hit": false,
      "t": 23999.975999999973,
      "d": 1199.9988000000012,
      "v": 100
    },
    {
      "midi": 87,
      "hit": false,
      "t": 23999.975999999973,
      "d": 1199.9988000000012,
      "v": 100
    },
    {
      "midi": 40,
      "hit": false,
      "t": 23999.976000000024,
      "d": 599.9994000000006,
      "v": 100
    },
    {
      "midi": 52,
      "hit": false,
      "t": 24666.642000000025,
      "d": 1199.9988000000012,
      "v": 100
    },
    {
      "midi": 85,
      "hit": false,
      "t": 25333.307999999975,
      "d": 299.9997000000003,
      "v": 100
    },
    {
      "midi": 83,
      "hit": false,
      "t": 25666.640999999974,
      "d": 299.9997000000003,
      "v": 100
    },
    {
      "midi": 75,
      "hit": false,
      "t": 25999.973999999973,
      "d": 1199.9988000000012,
      "v": 100
    },
    {
      "midi": 78,
      "hit": false,
      "t": 25999.973999999973,
      "d": 1199.9988000000012,
      "v": 100
    },
    {
      "midi": 82,
      "hit": false,
      "t": 25999.973999999973,
      "d": 1199.9988000000012,
      "v": 100
    },
    {
      "midi": 39,
      "hit": false,
      "t": 25999.974000000027,
      "d": 599.9994000000006,
      "v": 100
    },
    {
      "midi": 51,
      "hit": false,
      "t": 26666.64000000003,
      "d": 1199.9988000000012,
      "v": 100
    },
    {
      "midi": 83,
      "hit": false,
      "t": 27333.305999999975,
      "d": 299.9997000000003,
      "v": 100
    },
    {
      "midi": 85,
      "hit": false,
      "t": 27666.638999999974,
      "d": 299.9997000000003,
      "v": 100
    },
    {
      "midi": 80,
      "hit": false,
      "t": 27999.971999999972,
      "d": 599.9994000000006,
      "v": 100
    },
    {
      "midi": 83,
      "hit": false,
      "t": 27999.971999999972,
      "d": 599.9994000000006,
      "v": 100
    },
    {
      "midi": 87,
      "hit": false,
      "t": 27999.971999999972,
      "d": 599.9994000000006,
      "v": 100
    },
    {
      "midi": 40,
      "hit": false,
      "t": 27999.97200000003,
      "d": 599.9994000000006,
      "v": 100
    },
    {
      "midi": 80,
      "hit": false,
      "t": 28666.637999999974,
      "d": 599.9994000000006,
      "v": 100
    },
    {
      "midi": 83,
      "hit": false,
      "t": 28666.637999999974,
      "d": 599.9994000000006,
      "v": 100
    },
    {
      "midi": 87,
      "hit": false,
      "t": 28666.637999999974,
      "d": 599.9994000000006,
      "v": 100
    },
    {
      "midi": 52,
      "hit": false,
      "t": 28666.63800000003,
      "d": 1199.9988000000012,
      "v": 100
    },
    {
      "midi": 85,
      "hit": false,
      "t": 29333.303999999975,
      "d": 299.9997000000003,
      "v": 100
    },
    {
      "midi": 83,
      "hit": false,
      "t": 29666.636999999973,
      "d": 299.9997000000003,
      "v": 100
    },
    {
      "midi": 75,
      "hit": false,
      "t": 29999.969999999972,
      "d": 599.9994000000006,
      "v": 100
    },
    {
      "midi": 78,
      "hit": false,
      "t": 29999.969999999972,
      "d": 599.9994000000006,
      "v": 100
    },
    {
      "midi": 82,
      "hit": false,
      "t": 29999.969999999972,
      "d": 599.9994000000006,
      "v": 100
    },
    {
      "midi": 39,
      "hit": false,
      "t": 29999.970000000034,
      "d": 599.9994000000006,
      "v": 100
    },
    {
      "midi": 75,
      "hit": false,
      "t": 30666.635999999973,
      "d": 299.9997000000003,
      "v": 100
    },
    {
      "midi": 51,
      "hit": false,
      "t": 30666.636000000035,
      "d": 1199.9988000000012,
      "v": 100
    },
    {
      "midi": 77,
      "hit": false,
      "t": 30999.968999999972,
      "d": 299.9997000000003,
      "v": 100
    },
    {
      "midi": 78,
      "hit": false,
      "t": 31333.30199999997,
      "d": 299.9997000000003,
      "v": 100
    },
    {
      "midi": 82,
      "hit": false,
      "t": 31666.63499999997,
      "d": 299.9997000000003,
      "v": 100
    },
    {
      "midi": 78,
      "hit": false,
      "t": 31999.967999999968,
      "d": 1199.9987999999976,
      "v": 100
    },
    {
      "midi": 81,
      "hit": false,
      "t": 31999.967999999968,
      "d": 1199.9987999999976,
      "v": 100
    },
    {
      "midi": 85,
      "hit": false,
      "t": 31999.967999999968,
      "d": 1199.9987999999976,
      "v": 100
    },
    {
      "midi": 50,
      "hit": false,
      "t": 31999.968000000037,
      "d": 599.9994000000006,
      "v": 100
    },
    {
      "midi": 38,
      "hit": false,
      "t": 32666.63400000004,
      "d": 1199.9987999999976,
      "v": 100
    },
    {
      "midi": 83,
      "hit": false,
      "t": 33333.29999999997,
      "d": 299.9997000000003,
      "v": 100
    },
    {
      "midi": 81,
      "hit": false,
      "t": 33666.632999999965,
      "d": 299.9997000000003,
      "v": 100
    },
    {
      "midi": 73,
      "hit": false,
      "t": 33999.965999999964,
      "d": 1199.9988000000012,
      "v": 100
    },
    {
      "midi": 76,
      "hit": false,
      "t": 33999.965999999964,
      "d": 1199.9988000000012,
      "v": 100
    },
    {
      "midi": 80,
      "hit": false,
      "t": 33999.965999999964,
      "d": 1199.9988000000012,
      "v": 100
    },
    {
      "midi": 49,
      "hit": false,
      "t": 33999.96600000004,
      "d": 599.9994000000006,
      "v": 100
    },
    {
      "midi": 37,
      "hit": false,
      "t": 34666.632000000034,
      "d": 1199.9988000000012,
      "v": 100
    },
    {
      "midi": 81,
      "hit": false,
      "t": 35333.297999999966,
      "d": 299.9997000000003,
      "v": 100
    },
    {
      "midi": 83,
      "hit": false,
      "t": 35666.630999999965,
      "d": 299.9997000000003,
      "v": 100
    },
    {
      "midi": 78,
      "hit": false,
      "t": 35999.96399999996,
      "d": 599.9994000000006,
      "v": 100
    },
    {
      "midi": 81,
      "hit": false,
      "t": 35999.96399999996,
      "d": 599.9994000000006,
      "v": 100
    },
    {
      "midi": 85,
      "hit": false,
      "t": 35999.96399999996,
      "d": 599.9994000000006,
      "v": 100
    },
    {
      "midi": 50,
      "hit": false,
      "t": 35999.964000000036,
      "d": 599.9994000000006,
      "v": 100
    },
    {
      "midi": 78,
      "hit": false,
      "t": 36666.62999999996,
      "d": 599.9994000000006,
      "v": 100
    },
    {
      "midi": 81,
      "hit": false,
      "t": 36666.62999999996,
      "d": 599.9994000000006,
      "v": 100
    },
    {
      "midi": 85,
      "hit": false,
      "t": 36666.62999999996,
      "d": 599.9994000000006,
      "v": 100
    },
    {
      "midi": 38,
      "hit": false,
      "t": 36666.630000000034,
      "d": 1199.9988000000012,
      "v": 100
    },
    {
      "midi": 83,
      "hit": false,
      "t": 37333.29599999996,
      "d": 299.9997000000003,
      "v": 100
    },
    {
      "midi": 81,
      "hit": false,
      "t": 37666.62899999996,
      "d": 299.9997000000003,
      "v": 100
    },
    {
      "midi": 73,
      "hit": false,
      "t": 37999.961999999956,
      "d": 899.9991000000009,
      "v": 100
    },
    {
      "midi": 76,
      "hit": false,
      "t": 37999.961999999956,
      "d": 899.9991000000009,
      "v": 100
    },
    {
      "midi": 80,
      "hit": false,
      "t": 37999.961999999956,
      "d": 899.9991000000009,
      "v": 100
    },
    {
      "midi": 49,
      "hit": false,
      "t": 37999.962000000036,
      "d": 599.9994000000006,
      "v": 100
    },
    {
      "midi": 37,
      "hit": false,
      "t": 38666.62800000003,
      "d": 1199.9988000000012,
      "v": 100
    },
    {
      "midi": 73,
      "hit": false,
      "t": 38999.96099999996,
      "d": 299.9997000000003,
      "v": 100
    },
    {
      "midi": 76,
      "hit": false,
      "t": 39333.29399999996,
      "d": 299.9997000000003,
      "v": 100
    },
    {
      "midi": 80,
      "hit": false,
      "t": 39666.62699999996,
      "d": 299.9997000000003,
      "v": 100
    },
    {
      "midi": 81,
      "hit": false,
      "t": 39999.959999999955,
      "d": 1199.998799999994,
      "v": 100
    },
    {
      "midi": 33,
      "hit": false,
      "t": 39999.960000000036,
      "d": 299.9997000000003,
      "v": 100
    },
    {
      "midi": 45,
      "hit": false,
      "t": 40333.293000000034,
      "d": 299.9997000000003,
      "v": 100
    },
    {
      "midi": 72,
      "hit": false,
      "t": 40666.62599999995,
      "d": 599.9993999999933,
      "v": 100
    },
    {
      "midi": 69,
      "hit": false,
      "t": 40666.62599999995,
      "d": 599.9993999999933,
      "v": 100
    },
    {
      "midi": 52,
      "hit": false,
      "t": 40666.62600000003,
      "d": 299.9997000000003,
      "v": 100
    },
    {
      "midi": 57,
      "hit": false,
      "t": 40999.95900000003,
      "d": 299.9997000000003,
      "v": 100
    },
    {
      "midi": 79,
      "hit": false,
      "t": 41333.29199999994,
      "d": 299.9997000000003,
      "v": 100
    },
    {
      "midi": 71,
      "hit": false,
      "t": 41333.29199999994,
      "d": 299.9997000000003,
      "v": 100
    },
    {
      "midi": 60,
      "hit": false,
      "t": 41333.29200000003,
      "d": 599.9994000000006,
      "v": 100
    },
    {
      "midi": 77,
      "hit": false,
      "t": 41666.62499999994,
      "d": 299.9997000000003,
      "v": 100
    },
    {
      "midi": 72,
      "hit": false,
      "t": 41666.62499999994,
      "d": 299.9997000000003,
      "v": 100
    },
    {
      "midi": 67,
      "hit": false,
      "t": 41999.95799999994,
      "d": 899.9991000000009,
      "v": 100
    },
    {
      "midi": 71,
      "hit": false,
      "t": 41999.95799999994,
      "d": 899.9991000000009,
      "v": 100
    },
    {
      "midi": 76,
      "hit": false,
      "t": 41999.95799999994,
      "d": 899.9991000000009,
      "v": 100
    },
    {
      "midi": 43,
      "hit": false,
      "t": 41999.95800000003,
      "d": 299.9997000000003,
      "v": 100
    },
    {
      "midi": 50,
      "hit": false,
      "t": 42333.29100000003,
      "d": 299.9997000000003,
      "v": 100
    },
    {
      "midi": 55,
      "hit": false,
      "t": 42666.624000000025,
      "d": 299.9997000000003,
      "v": 100
    },
    {
      "midi": 74,
      "hit": false,
      "t": 42999.956999999944,
      "d": 299.9997000000003,
      "v": 100
    },
    {
      "midi": 59,
      "hit": false,
      "t": 42999.957000000024,
      "d": 299.9997000000003,
      "v": 100
    },
    {
      "midi": 74,
      "hit": false,
      "t": 43333.28999999994,
      "d": 299.9997000000003,
      "v": 100
    },
    {
      "midi": 62,
      "hit": false,
      "t": 43333.29000000002,
      "d": 599.9994000000006,
      "v": 100
    },
    {
      "midi": 74,
      "hit": false,
      "t": 43666.62299999994,
      "d": 299.9997000000003,
      "v": 100
    },
    {
      "midi": 76,
      "hit": false,
      "t": 43999.95599999994,
      "d": 299.9997000000003,
      "v": 100
    },
    {
      "midi": 36,
      "hit": false,
      "t": 43999.95600000002,
      "d": 1199.9988000000012,
      "v": 100
    },
    {
      "midi": 72,
      "hit": false,
      "t": 44333.28899999994,
      "d": 299.9997000000003,
      "v": 100
    },
    {
      "midi": 76,
      "hit": false,
      "t": 44666.62199999994,
      "d": 299.9997000000003,
      "v": 100
    },
    {
      "midi": 79,
      "hit": false,
      "t": 44999.954999999936,
      "d": 299.9997000000003,
      "v": 100
    },
    {
      "midi": 83,
      "hit": false,
      "t": 45333.287999999935,
      "d": 299.9997000000003,
      "v": 100
    },
    {
      "midi": 48,
      "hit": false,
      "t": 45333.28800000002,
      "d": 599.9994000000006,
      "v": 100
    },
    {
      "midi": 79,
      "hit": false,
      "t": 45666.620999999934,
      "d": 299.9997000000003,
      "v": 100
    },
    {
      "midi": 79,
      "hit": false,
      "t": 45999.95399999993,
      "d": 1799.9982000000018,
      "v": 100
    },
    {
      "midi": 83,
      "hit": false,
      "t": 45999.95399999993,
      "d": 1799.9982000000018,
      "v": 100
    },
    {
      "midi": 88,
      "hit": false,
      "t": 45999.95399999993,
      "d": 1799.9982000000018,
      "v": 100
    },
    {
      "midi": 48,
      "hit": false,
      "t": 45999.95400000002,
      "d": 1799.9982000000018,
      "v": 100
    },
    {
      "midi": 55,
      "hit": false,
      "t": 45999.95400000002,
      "d": 1799.9982000000018,
      "v": 100
    },
    {
      "midi": 60,
      "hit": false,
      "t": 45999.95400000002,
      "d": 1799.9982000000018,
      "v": 100
    }
  ]
}