{
  "jsonPath": "Latin/Latin Pop/Andy  Lucas/las-manos-del-mundo.json",
  "path": "Latin\\Latin Pop\\Andy  Lucas\\Las Manos Del Mundo.mid",
  "name": "Las Manos Del Mundo",
  "difficulty": "Advanced",
  "bpm": 135.04996848834068,
  "notes": [
    {
      "midi": 65,
      "hit": false,
      "t": 19548.32,
      "d": 1601.2591666666704,
      "v": 127
    },
    {
      "midi": 72,
      "hit": false,
      "t": 19548.32,
      "d": 1689.1895833333401,
      "v": 127
    },
    {
      "midi": 69,
      "hit": false,
      "t": 19552.947916666668,
      "d": 1624.398750000004,
      "v": 127
    },
    {
      "midi": 60,
      "hit": false,
      "t": 19557.575833333336,
      "d": 1564.2358333333323,
      "v": 127
    },
    {
      "midi": 67,
      "hit": false,
      "t": 21330.067916666674,
      "d": 1629.0266666666757,
      "v": 127
    },
    {
      "midi": 70,
      "hit": false,
      "t": 21334.695833333342,
      "d": 1610.5150000000067,
      "v": 127
    },
    {
      "midi": 62,
      "hit": false,
      "t": 21339.32375000001,
      "d": 1587.3754166666695,
      "v": 127
    },
    {
      "midi": 55,
      "hit": false,
      "t": 21343.95166666668,
      "d": 1596.6312500000022,
      "v": 127
    },
    {
      "midi": 72,
      "hit": false,
      "t": 23107.187916666684,
      "d": 1346.7237500000047,
      "v": 127
    },
    {
      "midi": 76,
      "hit": false,
      "t": 23111.815833333352,
      "d": 1351.3516666666692,
      "v": 127
    },
    {
      "midi": 64,
      "hit": false,
      "t": 23116.44375000002,
      "d": 1379.1191666666673,
      "v": 127
    },
    {
      "midi": 57,
      "hit": false,
      "t": 23121.07166666669,
      "d": 1554.9799999999996,
      "v": 127
    },
    {
      "midi": 69,
      "hit": false,
      "t": 23125.699583333357,
      "d": 1355.97958333333,
      "v": 127
    },
    {
      "midi": 62,
      "hit": false,
      "t": 24685.30750000002,
      "d": 37.02333333333445,
      "v": 127
    },
    {
      "midi": 58,
      "hit": false,
      "t": 24870.42416666669,
      "d": 1642.910416666673,
      "v": 127
    },
    {
      "midi": 62,
      "hit": false,
      "t": 24879.680000000022,
      "d": 629.3966666666674,
      "v": 127
    },
    {
      "midi": 65,
      "hit": false,
      "t": 25106.44791666669,
      "d": 398.0008333333317,
      "v": 127
    },
    {
      "midi": 70,
      "hit": false,
      "t": 25314.70416666669,
      "d": 185.11666666666497,
      "v": 127
    },
    {
      "midi": 69,
      "hit": false,
      "t": 25559.98375000002,
      "d": 726.5829166666699,
      "v": 127
    },
    {
      "midi": 65,
      "hit": false,
      "t": 25573.867500000022,
      "d": 883.9320833333368,
      "v": 127
    },
    {
      "midi": 60,
      "hit": false,
      "t": 25948.728750000024,
      "d": 578.4895833333394,
      "v": 127
    },
    {
      "midi": 72,
      "hit": false,
      "t": 26207.892083333358,
      "d": 365.6054166666727,
      "v": 127
    },
    {
      "midi": 69,
      "hit": false,
      "t": 26485.56708333336,
      "d": 83.3025000000016,
      "v": 127
    },
    {
      "midi": 69,
      "hit": false,
      "t": 26642.91625000003,
      "d": 1582.7475000000013,
      "v": 127
    },
    {
      "midi": 53,
      "hit": false,
      "t": 26642.91625000003,
      "d": 1596.6312500000022,
      "v": 127
    },
    {
      "midi": 65,
      "hit": false,
      "t": 26656.800000000032,
      "d": 1494.8170833333352,
      "v": 127
    },
    {
      "midi": 72,
      "hit": false,
      "t": 26661.4279166667,
      "d": 1670.6779166666674,
      "v": 127
    },
    {
      "midi": 60,
      "hit": false,
      "t": 26666.05583333337,
      "d": 1485.5612499999988,
      "v": 127
    },
    {
      "midi": 70,
      "hit": false,
      "t": 28396.8966666667,
      "d": 1439.2820833333353,
      "v": 127
    },
    {
      "midi": 67,
      "hit": false,
      "t": 28406.152500000033,
      "d": 1443.9100000000035,
      "v": 127
    },
    {
      "midi": 62,
      "hit": false,
      "t": 28406.152500000033,
      "d": 1453.1658333333362,
      "v": 127
    },
    {
      "midi": 55,
      "hit": false,
      "t": 28420.036250000034,
      "d": 1619.7708333333358,
      "v": 127
    },
    {
      "midi": 64,
      "hit": false,
      "t": 30215.6679166667,
      "d": 1369.8633333333382,
      "v": 127
    },
    {
      "midi": 69,
      "hit": false,
      "t": 30220.29583333337,
      "d": 1420.77041666667,
      "v": 127
    },
    {
      "midi": 57,
      "hit": false,
      "t": 30224.923750000038,
      "d": 1559.6079166666677,
      "v": 127
    },
    {
      "midi": 60,
      "hit": false,
      "t": 30229.551666666706,
      "d": 1309.7004166666666,
      "v": 127
    },
    {
      "midi": 72,
      "hit": false,
      "t": 31946.50875000004,
      "d": 555.3500000000022,
      "v": 127
    },
    {
      "midi": 58,
      "hit": false,
      "t": 31946.50875000004,
      "d": 1439.2820833333426,
      "v": 127
    },
    {
      "midi": 65,
      "hit": false,
      "t": 31951.13666666671,
      "d": 259.16333333333387,
      "v": 127
    },
    {
      "midi": 69,
      "hit": false,
      "t": 31960.39250000004,
      "d": 87.93041666666613,
      "v": 127
    },
    {
      "midi": 62,
      "hit": false,
      "t": 32173.27666666671,
      "d": 365.60541666666904,
      "v": 127
    },
    {
      "midi": 65,
      "hit": false,
      "t": 32400.044583333376,
      "d": 161.97708333333503,
      "v": 127
    },
    {
      "midi": 70,
      "hit": false,
      "t": 32654.580000000045,
      "d": 310.0704166666692,
      "v": 127
    },
    {
      "midi": 62,
      "hit": false,
      "t": 32659.207916666714,
      "d": 333.21000000000276,
      "v": 127
    },
    {
      "midi": 65,
      "hit": false,
      "t": 32922.99916666671,
      "d": 55.53500000000349,
      "v": 127
    },
    {
      "midi": 69,
      "hit": false,
      "t": 33080.348333333386,
      "d": 425.76833333333343,
      "v": 127
    },
    {
      "midi": 65,
      "hit": false,
      "t": 33307.11625000005,
      "d": 402.6287500000035,
      "v": 127
    },
    {
      "midi": 60,
      "hit": false,
      "t": 33506.11666666672,
      "d": 148.09333333333052,
      "v": 127
    },
    {
      "midi": 65,
      "hit": false,
      "t": 33742.14041666672,
      "d": 1578.1195833333259,
      "v": 127
    },
    {
      "midi": 53,
      "hit": false,
      "t": 33746.768333333384,
      "d": 1610.5149999999921,
      "v": 127
    },
    {
      "midi": 69,
      "hit": false,
      "t": 33760.652083333385,
      "d": 1554.979999999996,
      "v": 127
    },
    {
      "midi": 60,
      "hit": false,
      "t": 33765.28000000005,
      "d": 1485.5612499999988,
      "v": 127
    },
    {
      "midi": 72,
      "hit": false,
      "t": 33765.28000000005,
      "d": 1587.3754166666622,
      "v": 127
    },
    {
      "midi": 55,
      "hit": false,
      "t": 35510.00458333338,
      "d": 1670.6779166666602,
      "v": 127
    },
    {
      "midi": 67,
      "hit": false,
      "t": 35514.63250000004,
      "d": 1592.003333333334,
      "v": 127
    },
    {
      "midi": 70,
      "hit": false,
      "t": 35519.26041666671,
      "d": 1545.7241666666669,
      "v": 127
    },
    {
      "midi": 62,
      "hit": false,
      "t": 35523.88833333337,
      "d": 1619.7708333333358,
      "v": 127
    },
    {
      "midi": 69,
      "hit": false,
      "t": 37310.264166666704,
      "d": 1587.3754166666695,
      "v": 127
    },
    {
      "midi": 64,
      "hit": false,
      "t": 37314.89208333337,
      "d": 1573.4916666666686,
      "v": 127
    },
    {
      "midi": 60,
      "hit": false,
      "t": 37314.89208333337,
      "d": 1587.3754166666695,
      "v": 127
    },
    {
      "midi": 57,
      "hit": false,
      "t": 37324.147916666705,
      "d": 1619.7708333333285,
      "v": 127
    },
    {
      "midi": 72,
      "hit": false,
      "t": 38198.8241666667,
      "d": 726.5829166666663,
      "v": 127
    },
    {
      "midi": 65,
      "hit": false,
      "t": 39101.2679166667,
      "d": 1226.3979166666686,
      "v": 127
    },
    {
      "midi": 62,
      "hit": false,
      "t": 39105.895833333365,
      "d": 1221.770000000004,
      "v": 127
    },
    {
      "midi": 70,
      "hit": false,
      "t": 39110.52375000003,
      "d": 1175.490833333337,
      "v": 127
    },
    {
      "midi": 58,
      "hit": false,
      "t": 39124.40750000003,
      "d": 1592.003333333334,
      "v": 127
    },
    {
      "midi": 67,
      "hit": false,
      "t": 40457.247500000034,
      "d": 291.5587499999965,
      "v": 127
    },
    {
      "midi": 69,
      "hit": false,
      "t": 40651.62000000003,
      "d": 1133.839583333327,
      "v": 127
    },
    {
      "midi": 53,
      "hit": false,
      "t": 40845.99250000003,
      "d": 1615.142916666664,
      "v": 127
    },
    {
      "midi": 65,
      "hit": false,
      "t": 40850.620416666694,
      "d": 1032.0254166666637,
      "v": 127
    },
    {
      "midi": 60,
      "hit": false,
      "t": 40850.620416666694,
      "d": 1180.1187500000015,
      "v": 127
    },
    {
      "midi": 72,
      "hit": false,
      "t": 41702.15708333336,
      "d": 768.2341666666616,
      "v": 127
    },
    {
      "midi": 69,
      "hit": false,
      "t": 41924.29708333336,
      "d": 541.4662499999977,
      "v": 127
    },
    {
      "midi": 65,
      "hit": false,
      "t": 42192.71625000003,
      "d": 328.5820833333273,
      "v": 127
    },
    {
      "midi": 62,
      "hit": false,
      "t": 42400.972500000025,
      "d": 101.81416666666337,
      "v": 127
    },
    {
      "midi": 67,
      "hit": false,
      "t": 42627.74041666669,
      "d": 985.7462499999892,
      "v": 127
    },
    {
      "midi": 55,
      "hit": false,
      "t": 42632.368333333354,
      "d": 1661.422083333331,
      "v": 127
    },
    {
      "midi": 62,
      "hit": false,
      "t": 42636.99625000002,
      "d": 874.6762499999968,
      "v": 127
    },
    {
      "midi": 62,
      "hit": false,
      "t": 43562.57958333335,
      "d": 328.5820833333346,
      "v": 127
    },
    {
      "midi": 70,
      "hit": false,
      "t": 43567.20750000001,
      "d": 64.79083333333256,
      "v": 127
    },
    {
      "midi": 74,
      "hit": false,
      "t": 43576.46333333335,
      "d": 444.27999999999884,
      "v": 127
    },
    {
      "midi": 70,
      "hit": false,
      "t": 43784.719583333346,
      "d": 448.90791666667064,
      "v": 127
    },
    {
      "midi": 65,
      "hit": false,
      "t": 44020.74333333335,
      "d": 277.6750000000029,
      "v": 127
    },
    {
      "midi": 62,
      "hit": false,
      "t": 44187.34833333335,
      "d": 129.58166666666511,
      "v": 127
    },
    {
      "midi": 69,
      "hit": false,
      "t": 44418.74416666668,
      "d": 1633.6545833333294,
      "v": 127
    },
    {
      "midi": 72,
      "hit": false,
      "t": 44418.74416666668,
      "d": 1633.6545833333294,
      "v": 127
    },
    {
      "midi": 64,
      "hit": false,
      "t": 44423.37208333334,
      "d": 1166.2350000000006,
      "v": 127
    },
    {
      "midi": 57,
      "hit": false,
      "t": 44423.37208333334,
      "d": 1633.6545833333294,
      "v": 127
    },
    {
      "midi": 60,
      "hit": false,
      "t": 44428.00000000001,
      "d": 1133.8395833333343,
      "v": 127
    },
    {
      "midi": 60,
      "hit": false,
      "t": 45760.84000000001,
      "d": 286.930833333332,
      "v": 127
    },
    {
      "midi": 64,
      "hit": false,
      "t": 45969.09625000001,
      "d": 92.55833333332703,
      "v": 127
    },
    {
      "midi": 70,
      "hit": false,
      "t": 46195.86416666667,
      "d": 1069.0487499999945,
      "v": 127
    },
    {
      "midi": 58,
      "hit": false,
      "t": 46195.86416666667,
      "d": 1490.1891666666634,
      "v": 127
    },
    {
      "midi": 62,
      "hit": false,
      "t": 46200.49208333334,
      "d": 999.6299999999974,
      "v": 127
    },
    {
      "midi": 65,
      "hit": false,
      "t": 46205.12,
      "d": 1018.1416666666628,
      "v": 127
    },
    {
      "midi": 72,
      "hit": false,
      "t": 47329.70375,
      "d": 472.0475000000006,
      "v": 127
    },
    {
      "midi": 62,
      "hit": false,
      "t": 47375.98291666667,
      "d": 64.79083333333256,
      "v": 127
    },
    {
      "midi": 69,
      "hit": false,
      "t": 47528.70416666667,
      "d": 291.5587499999965,
      "v": 127
    },
    {
      "midi": 65,
      "hit": false,
      "t": 47736.96041666667,
      "d": 87.9304166666625,
      "v": 127
    },
    {
      "midi": 65,
      "hit": false,
      "t": 47968.35625,
      "d": 231.39583333333576,
      "v": 127
    },
    {
      "midi": 69,
      "hit": false,
      "t": 47968.35625,
      "d": 240.6516666666721,
      "v": 127
    },
    {
      "midi": 60,
      "hit": false,
      "t": 47972.98416666666,
      "d": 217.51208333333489,
      "v": 127
    },
    {
      "midi": 72,
      "hit": false,
      "t": 47972.98416666666,
      "d": 263.7912500000093,
      "v": 127
    },
    {
      "midi": 53,
      "hit": false,
      "t": 48014.635416666664,
      "d": 157.34916666666686,
      "v": 127
    },
    {
      "midi": 52,
      "hit": false,
      "t": 48042.402916666666,
      "d": 92.5583333333343,
      "v": 127
    },
    {
      "midi": 70,
      "hit": false,
      "t": 48616.26458333334,
      "d": 2656.424166666671,
      "v": 127
    },
    {
      "midi": 74,
      "hit": false,
      "t": 48625.52041666667,
      "d": 2526.842499999999,
      "v": 127
    },
    {
      "midi": 65,
      "hit": false,
      "t": 48625.52041666667,
      "d": 2647.168333333335,
      "v": 127
    },
    {
      "midi": 58,
      "hit": false,
      "t": 48630.14833333334,
      "d": 351.72166666666453,
      "v": 127
    },
    {
      "midi": 62,
      "hit": false,
      "t": 48630.14833333334,
      "d": 2684.191666666673,
      "v": 127
    },
    {
      "midi": 72,
      "hit": false,
      "t": 51517.968333333345,
      "d": 601.6291666666657,
      "v": 127
    },
    {
      "midi": 69,
      "hit": false,
      "t": 51522.59625000001,
      "d": 490.559166666666,
      "v": 127
    },
    {
      "midi": 60,
      "hit": false,
      "t": 51527.224166666674,
      "d": 504.44291666666686,
      "v": 127
    },
    {
      "midi": 65,
      "hit": false,
      "t": 51527.224166666674,
      "d": 513.6987500000032,
      "v": 127
    },
    {
      "midi": 65,
      "hit": false,
      "t": 79970.40000000001,
      "d": 1601.2591666666704,
      "v": 127
    },
    {
      "midi": 72,
      "hit": false,
      "t": 79970.40000000001,
      "d": 1689.1895833333401,
      "v": 127
    },
    {
      "midi": 69,
      "hit": false,
      "t": 79975.02791666667,
      "d": 1624.3987500000076,
      "v": 127
    },
    {
      "midi": 60,
      "hit": false,
      "t": 79979.65583333334,
      "d": 1564.2358333333395,
      "v": 127
    },
    {
      "midi": 67,
      "hit": false,
      "t": 81752.14791666668,
      "d": 1629.026666666643,
      "v": 127
    },
    {
      "midi": 70,
      "hit": false,
      "t": 81756.77583333335,
      "d": 1610.5149999999849,
      "v": 127
    },
    {
      "midi": 62,
      "hit": false,
      "t": 81761.40375000001,
      "d": 1587.3754166666622,
      "v": 127
    },
    {
      "midi": 55,
      "hit": false,
      "t": 81766.03166666668,
      "d": 1596.6312499999913,
      "v": 127
    },
    {
      "midi": 72,
      "hit": false,
      "t": 83529.26791666666,
      "d": 1346.72374999999,
      "v": 127
    },
    {
      "midi": 76,
      "hit": false,
      "t": 83533.89583333333,
      "d": 1351.3516666666546,
      "v": 127
    },
    {
      "midi": 64,
      "hit": false,
      "t": 83538.52375,
      "d": 1379.1191666666564,
      "v": 127
    },
    {
      "midi": 57,
      "hit": false,
      "t": 83543.15166666666,
      "d": 1554.979999999996,
      "v": 127
    },
    {
      "midi": 69,
      "hit": false,
      "t": 83547.77958333332,
      "d": 1355.9795833333337,
      "v": 127
    },
    {
      "midi": 62,
      "hit": false,
      "t": 85107.38749999998,
      "d": 37.02333333333081,
      "v": 127
    },
    {
      "midi": 58,
      "hit": false,
      "t": 85292.50416666665,
      "d": 1642.9104166666511,
      "v": 127
    },
    {
      "midi": 62,
      "hit": false,
      "t": 85301.75999999998,
      "d": 629.3966666666674,
      "v": 127
    },
    {
      "midi": 65,
      "hit": false,
      "t": 85528.52791666664,
      "d": 398.00083333333896,
      "v": 127
    },
    {
      "midi": 70,
      "hit": false,
      "t": 85736.78416666665,
      "d": 185.1166666666686,
      "v": 127
    },
    {
      "midi": 69,
      "hit": false,
      "t": 85982.06374999999,
      "d": 726.5829166666517,
      "v": 127
    },
    {
      "midi": 65,
      "hit": false,
      "t": 85995.94749999998,
      "d": 883.9320833333186,
      "v": 127
    },
    {
      "midi": 60,
      "hit": false,
      "t": 86370.80874999998,
      "d": 578.4895833333139,
      "v": 127
    },
    {
      "midi": 72,
      "hit": false,
      "t": 86629.97208333331,
      "d": 365.6054166666436,
      "v": 127
    },
    {
      "midi": 69,
      "hit": false,
      "t": 86907.6470833333,
      "d": 83.30249999999069,
      "v": 127
    },
    {
      "midi": 69,
      "hit": false,
      "t": 87064.99624999995,
      "d": 1582.7474999999831,
      "v": 127
    },
    {
      "midi": 53,
      "hit": false,
      "t": 87064.99624999995,
      "d": 1596.6312499999767,
      "v": 127
    },
    {
      "midi": 65,
      "hit": false,
      "t": 87078.87999999995,
      "d": 1494.817083333328,
      "v": 127
    },
    {
      "midi": 72,
      "hit": false,
      "t": 87083.50791666661,
      "d": 1670.677916666653,
      "v": 127
    },
    {
      "midi": 60,
      "hit": false,
      "t": 87088.13583333328,
      "d": 1485.5612499999988,
      "v": 127
    },
    {
      "midi": 70,
      "hit": false,
      "t": 88818.9766666666,
      "d": 1439.2820833333244,
      "v": 127
    },
    {
      "midi": 67,
      "hit": false,
      "t": 88828.23249999993,
      "d": 1443.909999999989,
      "v": 127
    },
    {
      "midi": 62,
      "hit": false,
      "t": 88828.23249999993,
      "d": 1453.165833333318,
      "v": 127
    },
    {
      "midi": 55,
      "hit": false,
      "t": 88842.11624999992,
      "d": 1619.7708333333285,
      "v": 127
    },
    {
      "midi": 64,
      "hit": false,
      "t": 90637.74791666659,
      "d": 1369.8633333333273,
      "v": 127
    },
    {
      "midi": 69,
      "hit": false,
      "t": 90642.37583333325,
      "d": 1420.7704166666663,
      "v": 127
    },
    {
      "midi": 57,
      "hit": false,
      "t": 90647.00374999992,
      "d": 1559.607916666675,
      "v": 127
    },
    {
      "midi": 60,
      "hit": false,
      "t": 90651.63166666658,
      "d": 1309.7004166666738,
      "v": 127
    },
    {
      "midi": 72,
      "hit": false,
      "t": 92368.58874999992,
      "d": 555.3499999999913,
      "v": 127
    },
    {
      "midi": 58,
      "hit": false,
      "t": 92368.58874999992,
      "d": 1439.2820833332953,
      "v": 127
    },
    {
      "midi": 65,
      "hit": false,
      "t": 92373.21666666659,
      "d": 259.16333333333023,
      "v": 127
    },
    {
      "midi": 69,
      "hit": false,
      "t": 92382.47249999992,
      "d": 87.93041666666977,
      "v": 127
    },
    {
      "midi": 62,
      "hit": false,
      "t": 92595.35666666659,
      "d": 365.60541666665813,
      "v": 127
    },
    {
      "midi": 65,
      "hit": false,
      "t": 92822.12458333325,
      "d": 161.9770833333314,
      "v": 127
    },
    {
      "midi": 70,
      "hit": false,
      "t": 93076.65999999992,
      "d": 310.07041666665464,
      "v": 127
    },
    {
      "midi": 62,
      "hit": false,
      "t": 93081.28791666658,
      "d": 333.2099999999773,
      "v": 127
    },
    {
      "midi": 65,
      "hit": false,
      "t": 93345.07916666658,
      "d": 55.53499999998894,
      "v": 127
    },
    {
      "midi": 69,
      "hit": false,
      "t": 93502.42833333323,
      "d": 425.76833333332615,
      "v": 127
    },
    {
      "midi": 65,
      "hit": false,
      "t": 93729.19624999989,
      "d": 402.6287500000035,
      "v": 127
    },
    {
      "midi": 60,
      "hit": false,
      "t": 93928.19666666655,
      "d": 148.0933333333378,
      "v": 127
    },
    {
      "midi": 65,
      "hit": false,
      "t": 94164.22041666656,
      "d": 1578.1195833333186,
      "v": 127
    },
    {
      "midi": 53,
      "hit": false,
      "t": 94168.84833333323,
      "d": 1610.5149999999849,
      "v": 127
    },
    {
      "midi": 69,
      "hit": false,
      "t": 94182.73208333322,
      "d": 1554.979999999996,
      "v": 127
    },
    {
      "midi": 60,
      "hit": false,
      "t": 94187.35999999988,
      "d": 1485.5612499999988,
      "v": 127
    },
    {
      "midi": 72,
      "hit": false,
      "t": 94187.35999999988,
      "d": 1587.3754166666622,
      "v": 127
    },
    {
      "midi": 55,
      "hit": false,
      "t": 95932.08458333321,
      "d": 1670.677916666653,
      "v": 127
    },
    {
      "midi": 67,
      "hit": false,
      "t": 95936.71249999988,
      "d": 1592.0033333333267,
      "v": 127
    },
    {
      "midi": 70,
      "hit": false,
      "t": 95941.34041666654,
      "d": 1545.7241666666669,
      "v": 127
    },
    {
      "midi": 62,
      "hit": false,
      "t": 95945.9683333332,
      "d": 1619.7708333333285,
      "v": 127
    },
    {
      "midi": 69,
      "hit": false,
      "t": 97732.34416666653,
      "d": 1587.3754166666622,
      "v": 127
    },
    {
      "midi": 64,
      "hit": false,
      "t": 97736.9720833332,
      "d": 1573.4916666666686,
      "v": 127
    },
    {
      "midi": 60,
      "hit": false,
      "t": 97736.9720833332,
      "d": 1587.3754166666622,
      "v": 127
    },
    {
      "midi": 57,
      "hit": false,
      "t": 97746.22791666652,
      "d": 1619.770833333343,
      "v": 127
    },
    {
      "midi": 72,
      "hit": false,
      "t": 98620.90416666653,
      "d": 726.5829166666663,
      "v": 127
    },
    {
      "midi": 65,
      "hit": false,
      "t": 99523.34791666653,
      "d": 1226.397916666654,
      "v": 127
    },
    {
      "midi": 62,
      "hit": false,
      "t": 99527.9758333332,
      "d": 1221.7699999999895,
      "v": 127
    },
    {
      "midi": 70,
      "hit": false,
      "t": 99532.60374999986,
      "d": 1175.4908333333296,
      "v": 127
    },
    {
      "midi": 58,
      "hit": false,
      "t": 99546.48749999986,
      "d": 1592.0033333333267,
      "v": 127
    },
    {
      "midi": 67,
      "hit": false,
      "t": 100879.32749999985,
      "d": 291.5587499999965,
      "v": 127
    },
    {
      "midi": 69,
      "hit": false,
      "t": 101073.69999999985,
      "d": 1133.8395833333343,
      "v": 127
    },
    {
      "midi": 53,
      "hit": false,
      "t": 101268.07249999985,
      "d": 1615.142916666664,
      "v": 127
    },
    {
      "midi": 65,
      "hit": false,
      "t": 101272.70041666651,
      "d": 1032.025416666671,
      "v": 127
    },
    {
      "midi": 60,
      "hit": false,
      "t": 101272.70041666651,
      "d": 1180.1187499999942,
      "v": 127
    },
    {
      "midi": 72,
      "hit": false,
      "t": 102124.23708333318,
      "d": 768.2341666666616,
      "v": 127
    },
    {
      "midi": 69,
      "hit": false,
      "t": 102346.37708333318,
      "d": 541.4662499999977,
      "v": 127
    },
    {
      "midi": 65,
      "hit": false,
      "t": 102614.79624999984,
      "d": 328.58208333334187,
      "v": 127
    },
    {
      "midi": 62,
      "hit": false,
      "t": 102823.05249999985,
      "d": 101.81416666666337,
      "v": 127
    },
    {
      "midi": 67,
      "hit": false,
      "t": 103049.82041666651,
      "d": 985.7462499999965,
      "v": 127
    },
    {
      "midi": 55,
      "hit": false,
      "t": 103054.44833333317,
      "d": 1661.4220833333238,
      "v": 127
    },
    {
      "midi": 62,
      "hit": false,
      "t": 103059.07624999984,
      "d": 874.6762500000041,
      "v": 127
    },
    {
      "midi": 62,
      "hit": false,
      "t": 103984.65958333318,
      "d": 328.5820833333273,
      "v": 127
    },
    {
      "midi": 70,
      "hit": false,
      "t": 103989.28749999985,
      "d": 64.79083333333256,
      "v": 127
    },
    {
      "midi": 74,
      "hit": false,
      "t": 103998.54333333317,
      "d": 444.27999999999884,
      "v": 127
    },
    {
      "midi": 70,
      "hit": false,
      "t": 104206.79958333318,
      "d": 448.9079166666488,
      "v": 127
    },
    {
      "midi": 65,
      "hit": false,
      "t": 104442.82333333317,
      "d": 277.67499999998836,
      "v": 127
    },
    {
      "midi": 62,
      "hit": false,
      "t": 104609.42833333317,
      "d": 129.58166666666511,
      "v": 127
    },
    {
      "midi": 69,
      "hit": false,
      "t": 104840.8241666665,
      "d": 1633.654583333322,
      "v": 127
    },
    {
      "midi": 72,
      "hit": false,
      "t": 104840.8241666665,
      "d": 1633.654583333322,
      "v": 127
    },
    {
      "midi": 64,
      "hit": false,
      "t": 104845.45208333316,
      "d": 1166.2350000000006,
      "v": 127
    },
    {
      "midi": 57,
      "hit": false,
      "t": 104845.45208333316,
      "d": 1633.654583333322,
      "v": 127
    },
    {
      "midi": 60,
      "hit": false,
      "t": 104850.07999999983,
      "d": 1133.8395833333343,
      "v": 127
    },
    {
      "midi": 60,
      "hit": false,
      "t": 106182.91999999982,
      "d": 286.930833333332,
      "v": 127
    },
    {
      "midi": 64,
      "hit": false,
      "t": 106391.17624999983,
      "d": 92.55833333331975,
      "v": 127
    },
    {
      "midi": 70,
      "hit": false,
      "t": 106617.94416666648,
      "d": 1069.0487500000017,
      "v": 127
    },
    {
      "midi": 58,
      "hit": false,
      "t": 106617.94416666648,
      "d": 1490.1891666666634,
      "v": 127
    },
    {
      "midi": 62,
      "hit": false,
      "t": 106622.57208333314,
      "d": 999.6300000000047,
      "v": 127
    },
    {
      "midi": 65,
      "hit": false,
      "t": 106627.19999999981,
      "d": 1018.1416666666773,
      "v": 127
    },
    {
      "midi": 72,
      "hit": false,
      "t": 107751.78374999981,
      "d": 472.0475000000006,
      "v": 127
    },
    {
      "midi": 62,
      "hit": false,
      "t": 107798.06291666647,
      "d": 64.79083333333256,
      "v": 127
    },
    {
      "midi": 69,
      "hit": false,
      "t": 107950.78416666648,
      "d": 291.55875000001106,
      "v": 127
    },
    {
      "midi": 65,
      "hit": false,
      "t": 108159.04041666648,
      "d": 87.93041666666977,
      "v": 127
    },
    {
      "midi": 65,
      "hit": false,
      "t": 108390.43624999982,
      "d": 231.39583333332848,
      "v": 127
    },
    {
      "midi": 69,
      "hit": false,
      "t": 108390.43624999982,
      "d": 240.65166666665755,
      "v": 127
    },
    {
      "midi": 60,
      "hit": false,
      "t": 108395.06416666649,
      "d": 217.51208333333489,
      "v": 127
    },
    {
      "midi": 72,
      "hit": false,
      "t": 108395.06416666649,
      "d": 263.79124999999476,
      "v": 127
    },
    {
      "midi": 53,
      "hit": false,
      "t": 108436.71541666648,
      "d": 157.34916666666686,
      "v": 127
    },
    {
      "midi": 52,
      "hit": false,
      "t": 108464.48291666649,
      "d": 92.5583333333343,
      "v": 127
    },
    {
      "midi": 70,
      "hit": false,
      "t": 109038.34458333315,
      "d": 2656.424166666664,
      "v": 127
    },
    {
      "midi": 74,
      "hit": false,
      "t": 109047.60041666648,
      "d": 2526.842499999999,
      "v": 127
    },
    {
      "midi": 65,
      "hit": false,
      "t": 109047.60041666648,
      "d": 2647.168333333335,
      "v": 127
    },
    {
      "midi": 58,
      "hit": false,
      "t": 109052.22833333314,
      "d": 351.72166666666453,
      "v": 127
    },
    {
      "midi": 62,
      "hit": false,
      "t": 109052.22833333314,
      "d": 2684.1916666666657,
      "v": 127
    }
  ]
}