{
  "jsonPath": "Soundtracks/Video Game Music/Kirby Super Start/kirby-super-star-greengreens.json",
  "path": "Soundtracks\\Video Game Music\\Kirby Super Start\\Kirby_Super_Star_GreenGreens.mid",
  "name": "Kirby_Super_Star_GreenGreens",
  "difficulty": "Advanced",
  "bpm": 183.0004758012371,
  "notes": [
    {
      "midi": 43,
      "hit": false,
      "t": 0,
      "d": 78.55170833333334,
      "v": 110
    },
    {
      "midi": 43,
      "hit": false,
      "t": 81.967,
      "d": 78.55170833333334,
      "v": 110
    },
    {
      "midi": 43,
      "hit": false,
      "t": 245.901,
      "d": 78.55170833333335,
      "v": 110
    },
    {
      "midi": 43,
      "hit": false,
      "t": 327.86800000000005,
      "d": 78.55170833333335,
      "v": 110
    },
    {
      "midi": 43,
      "hit": false,
      "t": 491.8020000000001,
      "d": 78.55170833333335,
      "v": 110
    },
    {
      "midi": 43,
      "hit": false,
      "t": 655.7360000000001,
      "d": 78.5517083333333,
      "v": 110
    },
    {
      "midi": 79,
      "hit": false,
      "t": 819.6700000000001,
      "d": 78.5517083333333,
      "v": 110
    },
    {
      "midi": 86,
      "hit": false,
      "t": 819.6700000000001,
      "d": 78.5517083333333,
      "v": 110
    },
    {
      "midi": 79,
      "hit": false,
      "t": 901.6370000000001,
      "d": 78.5517083333333,
      "v": 110
    },
    {
      "midi": 86,
      "hit": false,
      "t": 901.6370000000001,
      "d": 78.5517083333333,
      "v": 110
    },
    {
      "midi": 79,
      "hit": false,
      "t": 983.604,
      "d": 78.55170833333341,
      "v": 110
    },
    {
      "midi": 86,
      "hit": false,
      "t": 983.604,
      "d": 78.55170833333341,
      "v": 110
    },
    {
      "midi": 43,
      "hit": false,
      "t": 1147.538,
      "d": 23.9070416666666,
      "v": 110
    },
    {
      "midi": 45,
      "hit": false,
      "t": 1174.8603333333333,
      "d": 23.9070416666666,
      "v": 110
    },
    {
      "midi": 47,
      "hit": false,
      "t": 1202.1826666666666,
      "d": 23.9070416666666,
      "v": 110
    },
    {
      "midi": 48,
      "hit": false,
      "t": 1229.5049999999999,
      "d": 273.22333333333336,
      "v": 110
    },
    {
      "midi": 60,
      "hit": false,
      "t": 1229.505,
      "d": 160.51870833333328,
      "v": 110
    },
    {
      "midi": 64,
      "hit": false,
      "t": 1393.439,
      "d": 160.51870833333328,
      "v": 110
    },
    {
      "midi": 67,
      "hit": false,
      "t": 1393.439,
      "d": 160.51870833333328,
      "v": 110
    },
    {
      "midi": 64,
      "hit": false,
      "t": 1557.373,
      "d": 160.51870833333328,
      "v": 110
    },
    {
      "midi": 67,
      "hit": false,
      "t": 1557.373,
      "d": 160.51870833333328,
      "v": 110
    },
    {
      "midi": 64,
      "hit": false,
      "t": 1721.307,
      "d": 160.51870833333328,
      "v": 110
    },
    {
      "midi": 67,
      "hit": false,
      "t": 1721.307,
      "d": 160.51870833333328,
      "v": 110
    },
    {
      "midi": 64,
      "hit": false,
      "t": 1885.241,
      "d": 160.51870833333328,
      "v": 110
    },
    {
      "midi": 67,
      "hit": false,
      "t": 1885.241,
      "d": 160.51870833333328,
      "v": 110
    },
    {
      "midi": 64,
      "hit": false,
      "t": 2049.1749999999997,
      "d": 160.5187083333335,
      "v": 110
    },
    {
      "midi": 67,
      "hit": false,
      "t": 2049.1749999999997,
      "d": 160.5187083333335,
      "v": 110
    },
    {
      "midi": 64,
      "hit": false,
      "t": 2213.109,
      "d": 160.5187083333335,
      "v": 110
    },
    {
      "midi": 67,
      "hit": false,
      "t": 2213.109,
      "d": 160.5187083333335,
      "v": 110
    },
    {
      "midi": 64,
      "hit": false,
      "t": 2377.043,
      "d": 160.5187083333335,
      "v": 110
    },
    {
      "midi": 67,
      "hit": false,
      "t": 2377.043,
      "d": 160.5187083333335,
      "v": 110
    },
    {
      "midi": 48,
      "hit": false,
      "t": 2540.977,
      "d": 273.22333333333336,
      "v": 110
    },
    {
      "midi": 60,
      "hit": false,
      "t": 2540.9770000000003,
      "d": 160.5187083333335,
      "v": 110
    },
    {
      "midi": 64,
      "hit": false,
      "t": 2704.9110000000005,
      "d": 160.5187083333335,
      "v": 110
    },
    {
      "midi": 67,
      "hit": false,
      "t": 2704.9110000000005,
      "d": 160.5187083333335,
      "v": 110
    },
    {
      "midi": 64,
      "hit": false,
      "t": 2868.8450000000007,
      "d": 160.5187083333335,
      "v": 110
    },
    {
      "midi": 67,
      "hit": false,
      "t": 2868.8450000000007,
      "d": 160.5187083333335,
      "v": 110
    },
    {
      "midi": 64,
      "hit": false,
      "t": 3032.779000000001,
      "d": 160.5187083333335,
      "v": 110
    },
    {
      "midi": 67,
      "hit": false,
      "t": 3032.779000000001,
      "d": 160.5187083333335,
      "v": 110
    },
    {
      "midi": 64,
      "hit": false,
      "t": 3196.713000000001,
      "d": 160.5187083333335,
      "v": 110
    },
    {
      "midi": 67,
      "hit": false,
      "t": 3196.713000000001,
      "d": 160.5187083333335,
      "v": 110
    },
    {
      "midi": 64,
      "hit": false,
      "t": 3360.6470000000013,
      "d": 160.5187083333335,
      "v": 110
    },
    {
      "midi": 67,
      "hit": false,
      "t": 3360.6470000000013,
      "d": 160.5187083333335,
      "v": 110
    },
    {
      "midi": 64,
      "hit": false,
      "t": 3524.5810000000015,
      "d": 160.5187083333335,
      "v": 110
    },
    {
      "midi": 67,
      "hit": false,
      "t": 3524.5810000000015,
      "d": 160.5187083333335,
      "v": 110
    },
    {
      "midi": 64,
      "hit": false,
      "t": 3688.5150000000017,
      "d": 160.5187083333335,
      "v": 110
    },
    {
      "midi": 67,
      "hit": false,
      "t": 3688.5150000000017,
      "d": 160.5187083333335,
      "v": 110
    },
    {
      "midi": 50,
      "hit": false,
      "t": 3852.449,
      "d": 273.2233333333338,
      "v": 110
    },
    {
      "midi": 62,
      "hit": false,
      "t": 3852.449000000002,
      "d": 160.5187083333335,
      "v": 110
    },
    {
      "midi": 65,
      "hit": false,
      "t": 4016.383000000002,
      "d": 160.5187083333335,
      "v": 110
    },
    {
      "midi": 69,
      "hit": false,
      "t": 4016.383000000002,
      "d": 160.5187083333335,
      "v": 110
    },
    {
      "midi": 65,
      "hit": false,
      "t": 4180.317000000002,
      "d": 160.51870833333305,
      "v": 110
    },
    {
      "midi": 69,
      "hit": false,
      "t": 4180.317000000002,
      "d": 160.51870833333305,
      "v": 110
    },
    {
      "midi": 65,
      "hit": false,
      "t": 4344.251000000001,
      "d": 160.51870833333305,
      "v": 110
    },
    {
      "midi": 69,
      "hit": false,
      "t": 4344.251000000001,
      "d": 160.51870833333305,
      "v": 110
    },
    {
      "midi": 65,
      "hit": false,
      "t": 4508.185,
      "d": 160.51870833333305,
      "v": 110
    },
    {
      "midi": 69,
      "hit": false,
      "t": 4508.185,
      "d": 160.51870833333305,
      "v": 110
    },
    {
      "midi": 65,
      "hit": false,
      "t": 4672.119,
      "d": 160.51870833333305,
      "v": 110
    },
    {
      "midi": 69,
      "hit": false,
      "t": 4672.119,
      "d": 160.51870833333305,
      "v": 110
    },
    {
      "midi": 65,
      "hit": false,
      "t": 4836.052999999999,
      "d": 160.51870833333305,
      "v": 110
    },
    {
      "midi": 69,
      "hit": false,
      "t": 4836.052999999999,
      "d": 160.51870833333305,
      "v": 110
    },
    {
      "midi": 65,
      "hit": false,
      "t": 4999.986999999998,
      "d": 160.51870833333305,
      "v": 110
    },
    {
      "midi": 69,
      "hit": false,
      "t": 4999.986999999998,
      "d": 160.51870833333305,
      "v": 110
    },
    {
      "midi": 65,
      "hit": false,
      "t": 5327.854999999998,
      "d": 160.51870833333305,
      "v": 110
    },
    {
      "midi": 69,
      "hit": false,
      "t": 5327.854999999998,
      "d": 160.51870833333305,
      "v": 110
    },
    {
      "midi": 55,
      "hit": false,
      "t": 5327.8550000000005,
      "d": 160.51870833333305,
      "v": 110
    },
    {
      "midi": 65,
      "hit": false,
      "t": 5491.788999999997,
      "d": 160.51870833333305,
      "v": 110
    },
    {
      "midi": 69,
      "hit": false,
      "t": 5491.788999999997,
      "d": 160.51870833333305,
      "v": 110
    },
    {
      "midi": 55,
      "hit": false,
      "t": 5491.789,
      "d": 160.51870833333305,
      "v": 110
    },
    {
      "midi": 67,
      "hit": false,
      "t": 5655.722999999996,
      "d": 160.51870833333305,
      "v": 110
    },
    {
      "midi": 71,
      "hit": false,
      "t": 5655.722999999996,
      "d": 160.51870833333305,
      "v": 110
    },
    {
      "midi": 55,
      "hit": false,
      "t": 5655.722999999999,
      "d": 160.51870833333305,
      "v": 110
    },
    {
      "midi": 67,
      "hit": false,
      "t": 5819.656999999996,
      "d": 160.51870833333305,
      "v": 110
    },
    {
      "midi": 71,
      "hit": false,
      "t": 5819.656999999996,
      "d": 160.51870833333305,
      "v": 110
    },
    {
      "midi": 55,
      "hit": false,
      "t": 5819.656999999998,
      "d": 160.51870833333305,
      "v": 110
    },
    {
      "midi": 67,
      "hit": false,
      "t": 6147.524999999995,
      "d": 242.4857083333336,
      "v": 110
    },
    {
      "midi": 67,
      "hit": false,
      "t": 6393.425999999995,
      "d": 81.96699999999964,
      "v": 110
    },
    {
      "midi": 72,
      "hit": false,
      "t": 6475.392999999995,
      "d": 573.7690000000002,
      "v": 110
    },
    {
      "midi": 48,
      "hit": false,
      "t": 6475.392999999998,
      "d": 160.51870833333305,
      "v": 110
    },
    {
      "midi": 52,
      "hit": false,
      "t": 6639.3269999999975,
      "d": 160.51870833333305,
      "v": 110
    },
    {
      "midi": 55,
      "hit": false,
      "t": 6639.3269999999975,
      "d": 160.51870833333305,
      "v": 110
    },
    {
      "midi": 43,
      "hit": false,
      "t": 6803.260999999997,
      "d": 160.51870833333305,
      "v": 110
    },
    {
      "midi": 52,
      "hit": false,
      "t": 6803.260999999997,
      "d": 160.51870833333305,
      "v": 110
    },
    {
      "midi": 55,
      "hit": false,
      "t": 6803.260999999997,
      "d": 160.51870833333305,
      "v": 110
    },
    {
      "midi": 52,
      "hit": false,
      "t": 6967.194999999996,
      "d": 160.51870833333305,
      "v": 110
    },
    {
      "midi": 55,
      "hit": false,
      "t": 6967.194999999996,
      "d": 160.51870833333305,
      "v": 110
    },
    {
      "midi": 48,
      "hit": false,
      "t": 7131.128999999995,
      "d": 160.51870833333305,
      "v": 110
    },
    {
      "midi": 52,
      "hit": false,
      "t": 7131.128999999995,
      "d": 160.51870833333305,
      "v": 110
    },
    {
      "midi": 55,
      "hit": false,
      "t": 7131.128999999995,
      "d": 160.51870833333305,
      "v": 110
    },
    {
      "midi": 52,
      "hit": false,
      "t": 7295.062999999995,
      "d": 160.51870833333305,
      "v": 110
    },
    {
      "midi": 55,
      "hit": false,
      "t": 7295.062999999995,
      "d": 160.51870833333305,
      "v": 110
    },
    {
      "midi": 43,
      "hit": false,
      "t": 7458.996999999994,
      "d": 160.51870833333305,
      "v": 110
    },
    {
      "midi": 52,
      "hit": false,
      "t": 7458.996999999994,
      "d": 160.51870833333305,
      "v": 110
    },
    {
      "midi": 55,
      "hit": false,
      "t": 7458.996999999994,
      "d": 160.51870833333305,
      "v": 110
    },
    {
      "midi": 72,
      "hit": false,
      "t": 7458.996999999995,
      "d": 245.90099999999984,
      "v": 110
    },
    {
      "midi": 52,
      "hit": false,
      "t": 7622.930999999993,
      "d": 160.51870833333305,
      "v": 110
    },
    {
      "midi": 55,
      "hit": false,
      "t": 7622.930999999993,
      "d": 160.51870833333305,
      "v": 110
    },
    {
      "midi": 76,
      "hit": false,
      "t": 7704.897999999995,
      "d": 81.96699999999964,
      "v": 110
    },
    {
      "midi": 48,
      "hit": false,
      "t": 7786.8649999999925,
      "d": 160.51870833333305,
      "v": 110
    },
    {
      "midi": 79,
      "hit": false,
      "t": 7786.864999999994,
      "d": 160.51870833333305,
      "v": 110
    },
    {
      "midi": 52,
      "hit": false,
      "t": 7950.798999999992,
      "d": 160.51870833333305,
      "v": 110
    },
    {
      "midi": 55,
      "hit": false,
      "t": 7950.798999999992,
      "d": 160.51870833333305,
      "v": 110
    },
    {
      "midi": 84,
      "hit": false,
      "t": 7950.798999999994,
      "d": 54.644666666667035,
      "v": 110
    },
    {
      "midi": 43,
      "hit": false,
      "t": 8114.732999999991,
      "d": 160.51870833333305,
      "v": 110
    },
    {
      "midi": 52,
      "hit": false,
      "t": 8114.732999999991,
      "d": 160.51870833333305,
      "v": 110
    },
    {
      "midi": 55,
      "hit": false,
      "t": 8114.732999999991,
      "d": 160.51870833333305,
      "v": 110
    },
    {
      "midi": 83,
      "hit": false,
      "t": 8114.732999999994,
      "d": 54.644666666667035,
      "v": 110
    },
    {
      "midi": 52,
      "hit": false,
      "t": 8278.66699999999,
      "d": 160.51870833333305,
      "v": 110
    },
    {
      "midi": 55,
      "hit": false,
      "t": 8278.66699999999,
      "d": 160.51870833333305,
      "v": 110
    },
    {
      "midi": 81,
      "hit": false,
      "t": 8278.666999999994,
      "d": 54.644666666667035,
      "v": 110
    },
    {
      "midi": 48,
      "hit": false,
      "t": 8442.60099999999,
      "d": 160.51870833333305,
      "v": 110
    },
    {
      "midi": 52,
      "hit": false,
      "t": 8442.60099999999,
      "d": 160.51870833333305,
      "v": 110
    },
    {
      "midi": 55,
      "hit": false,
      "t": 8442.60099999999,
      "d": 160.51870833333305,
      "v": 110
    },
    {
      "midi": 79,
      "hit": false,
      "t": 8442.600999999995,
      "d": 273.22333333333336,
      "v": 110
    },
    {
      "midi": 52,
      "hit": false,
      "t": 8606.534999999989,
      "d": 160.51870833333305,
      "v": 110
    },
    {
      "midi": 55,
      "hit": false,
      "t": 8606.534999999989,
      "d": 160.51870833333305,
      "v": 110
    },
    {
      "midi": 43,
      "hit": false,
      "t": 8770.468999999988,
      "d": 160.51870833333305,
      "v": 110
    },
    {
      "midi": 52,
      "hit": false,
      "t": 8770.468999999988,
      "d": 160.51870833333305,
      "v": 110
    },
    {
      "midi": 55,
      "hit": false,
      "t": 8770.468999999988,
      "d": 160.51870833333305,
      "v": 110
    },
    {
      "midi": 76,
      "hit": false,
      "t": 8770.468999999996,
      "d": 245.90099999999984,
      "v": 110
    },
    {
      "midi": 52,
      "hit": false,
      "t": 8934.402999999988,
      "d": 160.51870833333305,
      "v": 110
    },
    {
      "midi": 55,
      "hit": false,
      "t": 8934.402999999988,
      "d": 160.51870833333305,
      "v": 110
    },
    {
      "midi": 79,
      "hit": false,
      "t": 9016.369999999995,
      "d": 81.96700000000055,
      "v": 110
    },
    {
      "midi": 50,
      "hit": false,
      "t": 9098.336999999987,
      "d": 160.51870833333305,
      "v": 110
    },
    {
      "midi": 77,
      "hit": false,
      "t": 9098.336999999996,
      "d": 273.22333333333336,
      "v": 110
    },
    {
      "midi": 53,
      "hit": false,
      "t": 9262.270999999986,
      "d": 160.51870833333305,
      "v": 110
    },
    {
      "midi": 57,
      "hit": false,
      "t": 9262.270999999986,
      "d": 160.51870833333305,
      "v": 110
    },
    {
      "midi": 45,
      "hit": false,
      "t": 9426.204999999985,
      "d": 160.51870833333305,
      "v": 110
    },
    {
      "midi": 53,
      "hit": false,
      "t": 9426.204999999985,
      "d": 160.51870833333305,
      "v": 110
    },
    {
      "midi": 57,
      "hit": false,
      "t": 9426.204999999985,
      "d": 160.51870833333305,
      "v": 110
    },
    {
      "midi": 74,
      "hit": false,
      "t": 9426.204999999996,
      "d": 245.90099999999984,
      "v": 110
    },
    {
      "midi": 53,
      "hit": false,
      "t": 9590.138999999985,
      "d": 160.51870833333305,
      "v": 110
    },
    {
      "midi": 57,
      "hit": false,
      "t": 9590.138999999985,
      "d": 160.51870833333305,
      "v": 110
    },
    {
      "midi": 76,
      "hit": false,
      "t": 9672.105999999996,
      "d": 81.96700000000055,
      "v": 110
    },
    {
      "midi": 50,
      "hit": false,
      "t": 9754.072999999984,
      "d": 160.51870833333305,
      "v": 110
    },
    {
      "midi": 74,
      "hit": false,
      "t": 9754.072999999997,
      "d": 273.22333333333336,
      "v": 110
    },
    {
      "midi": 55,
      "hit": false,
      "t": 9918.006999999983,
      "d": 160.51870833333305,
      "v": 110
    },
    {
      "midi": 59,
      "hit": false,
      "t": 9918.006999999983,
      "d": 160.51870833333305,
      "v": 110
    },
    {
      "midi": 47,
      "hit": false,
      "t": 10081.940999999983,
      "d": 160.51870833333305,
      "v": 110
    },
    {
      "midi": 55,
      "hit": false,
      "t": 10081.940999999983,
      "d": 160.51870833333305,
      "v": 110
    },
    {
      "midi": 59,
      "hit": false,
      "t": 10081.940999999983,
      "d": 160.51870833333305,
      "v": 110
    },
    {
      "midi": 76,
      "hit": false,
      "t": 10081.940999999997,
      "d": 245.90099999999984,
      "v": 110
    },
    {
      "midi": 55,
      "hit": false,
      "t": 10245.874999999982,
      "d": 160.51870833333305,
      "v": 110
    },
    {
      "midi": 59,
      "hit": false,
      "t": 10245.874999999982,
      "d": 160.51870833333305,
      "v": 110
    },
    {
      "midi": 74,
      "hit": false,
      "t": 10327.841999999997,
      "d": 81.96700000000055,
      "v": 110
    },
    {
      "midi": 48,
      "hit": false,
      "t": 10409.808999999981,
      "d": 160.51870833333305,
      "v": 110
    },
    {
      "midi": 72,
      "hit": false,
      "t": 10409.808999999997,
      "d": 573.7690000000002,
      "v": 110
    },
    {
      "midi": 52,
      "hit": false,
      "t": 10573.74299999998,
      "d": 160.51870833333305,
      "v": 110
    },
    {
      "midi": 55,
      "hit": false,
      "t": 10573.74299999998,
      "d": 160.51870833333305,
      "v": 110
    },
    {
      "midi": 43,
      "hit": false,
      "t": 10737.67699999998,
      "d": 160.51870833333305,
      "v": 110
    },
    {
      "midi": 52,
      "hit": false,
      "t": 10737.67699999998,
      "d": 160.51870833333305,
      "v": 110
    },
    {
      "midi": 55,
      "hit": false,
      "t": 10737.67699999998,
      "d": 160.51870833333305,
      "v": 110
    },
    {
      "midi": 52,
      "hit": false,
      "t": 10901.610999999979,
      "d": 160.51870833333305,
      "v": 110
    },
    {
      "midi": 55,
      "hit": false,
      "t": 10901.610999999979,
      "d": 160.51870833333305,
      "v": 110
    },
    {
      "midi": 48,
      "hit": false,
      "t": 11065.544999999978,
      "d": 160.51870833333305,
      "v": 110
    },
    {
      "midi": 52,
      "hit": false,
      "t": 11065.544999999978,
      "d": 160.51870833333305,
      "v": 110
    },
    {
      "midi": 55,
      "hit": false,
      "t": 11065.544999999978,
      "d": 160.51870833333305,
      "v": 110
    },
    {
      "midi": 52,
      "hit": false,
      "t": 11229.478999999978,
      "d": 160.51870833333305,
      "v": 110
    },
    {
      "midi": 55,
      "hit": false,
      "t": 11229.478999999978,
      "d": 160.51870833333305,
      "v": 110
    },
    {
      "midi": 43,
      "hit": false,
      "t": 11393.412999999977,
      "d": 160.51870833333305,
      "v": 110
    },
    {
      "midi": 52,
      "hit": false,
      "t": 11393.412999999977,
      "d": 160.51870833333305,
      "v": 110
    },
    {
      "midi": 55,
      "hit": false,
      "t": 11393.412999999977,
      "d": 160.51870833333305,
      "v": 110
    },
    {
      "midi": 67,
      "hit": false,
      "t": 11393.412999999997,
      "d": 242.4857083333336,
      "v": 110
    },
    {
      "midi": 52,
      "hit": false,
      "t": 11557.346999999976,
      "d": 160.51870833333305,
      "v": 110
    },
    {
      "midi": 55,
      "hit": false,
      "t": 11557.346999999976,
      "d": 160.51870833333305,
      "v": 110
    },
    {
      "midi": 67,
      "hit": false,
      "t": 11639.313999999997,
      "d": 81.96700000000055,
      "v": 110
    },
    {
      "midi": 48,
      "hit": false,
      "t": 11721.280999999975,
      "d": 160.51870833333305,
      "v": 110
    },
    {
      "midi": 72,
      "hit": false,
      "t": 11721.280999999997,
      "d": 573.7690000000002,
      "v": 110
    },
    {
      "midi": 52,
      "hit": false,
      "t": 11885.214999999975,
      "d": 160.51870833333305,
      "v": 110
    },
    {
      "midi": 55,
      "hit": false,
      "t": 11885.214999999975,
      "d": 160.51870833333305,
      "v": 110
    },
    {
      "midi": 43,
      "hit": false,
      "t": 12049.148999999974,
      "d": 160.51870833333305,
      "v": 110
    },
    {
      "midi": 52,
      "hit": false,
      "t": 12049.148999999974,
      "d": 160.51870833333305,
      "v": 110
    },
    {
      "midi": 55,
      "hit": false,
      "t": 12049.148999999974,
      "d": 160.51870833333305,
      "v": 110
    },
    {
      "midi": 52,
      "hit": false,
      "t": 12213.082999999973,
      "d": 160.51870833333305,
      "v": 110
    },
    {
      "midi": 55,
      "hit": false,
      "t": 12213.082999999973,
      "d": 160.51870833333305,
      "v": 110
    },
    {
      "midi": 48,
      "hit": false,
      "t": 12377.016999999973,
      "d": 160.51870833333305,
      "v": 110
    },
    {
      "midi": 52,
      "hit": false,
      "t": 12377.016999999973,
      "d": 160.51870833333305,
      "v": 110
    },
    {
      "midi": 55,
      "hit": false,
      "t": 12377.016999999973,
      "d": 160.51870833333305,
      "v": 110
    },
    {
      "midi": 52,
      "hit": false,
      "t": 12540.950999999972,
      "d": 160.51870833333305,
      "v": 110
    },
    {
      "midi": 55,
      "hit": false,
      "t": 12540.950999999972,
      "d": 160.51870833333305,
      "v": 110
    },
    {
      "midi": 43,
      "hit": false,
      "t": 12704.884999999971,
      "d": 160.51870833333305,
      "v": 110
    },
    {
      "midi": 52,
      "hit": false,
      "t": 12704.884999999971,
      "d": 160.51870833333305,
      "v": 110
    },
    {
      "midi": 55,
      "hit": false,
      "t": 12704.884999999971,
      "d": 160.51870833333305,
      "v": 110
    },
    {
      "midi": 72,
      "hit": false,
      "t": 12704.884999999998,
      "d": 245.90099999999984,
      "v": 110
    },
    {
      "midi": 52,
      "hit": false,
      "t": 12868.81899999997,
      "d": 160.51870833333305,
      "v": 110
    },
    {
      "midi": 55,
      "hit": false,
      "t": 12868.81899999997,
      "d": 160.51870833333305,
      "v": 110
    },
    {
      "midi": 76,
      "hit": false,
      "t": 12950.785999999998,
      "d": 81.96700000000055,
      "v": 110
    },
    {
      "midi": 48,
      "hit": false,
      "t": 13032.75299999997,
      "d": 160.51870833333305,
      "v": 110
    },
    {
      "midi": 79,
      "hit": false,
      "t": 13032.752999999999,
      "d": 160.51870833333305,
      "v": 110
    },
    {
      "midi": 52,
      "hit": false,
      "t": 13196.686999999969,
      "d": 160.51870833333305,
      "v": 110
    },
    {
      "midi": 55,
      "hit": false,
      "t": 13196.686999999969,
      "d": 160.51870833333305,
      "v": 110
    },
    {
      "midi": 84,
      "hit": false,
      "t": 13196.686999999998,
      "d": 54.644666666667035,
      "v": 110
    },
    {
      "midi": 43,
      "hit": false,
      "t": 13360.620999999968,
      "d": 160.51870833333305,
      "v": 110
    },
    {
      "midi": 52,
      "hit": false,
      "t": 13360.620999999968,
      "d": 160.51870833333305,
      "v": 110
    },
    {
      "midi": 55,
      "hit": false,
      "t": 13360.620999999968,
      "d": 160.51870833333305,
      "v": 110
    },
    {
      "midi": 83,
      "hit": false,
      "t": 13360.621,
      "d": 54.644666666667035,
      "v": 110
    },
    {
      "midi": 52,
      "hit": false,
      "t": 13524.554999999968,
      "d": 160.51870833333305,
      "v": 110
    },
    {
      "midi": 55,
      "hit": false,
      "t": 13524.554999999968,
      "d": 160.51870833333305,
      "v": 110
    },
    {
      "midi": 81,
      "hit": false,
      "t": 13524.555,
      "d": 54.644666666667035,
      "v": 110
    },
    {
      "midi": 48,
      "hit": false,
      "t": 13688.488999999967,
      "d": 160.51870833333305,
      "v": 110
    },
    {
      "midi": 52,
      "hit": false,
      "t": 13688.488999999967,
      "d": 160.51870833333305,
      "v": 110
    },
    {
      "midi": 55,
      "hit": false,
      "t": 13688.488999999967,
      "d": 160.51870833333305,
      "v": 110
    },
    {
      "midi": 79,
      "hit": false,
      "t": 13688.489000000001,
      "d": 273.22333333333336,
      "v": 110
    },
    {
      "midi": 52,
      "hit": false,
      "t": 13852.422999999966,
      "d": 160.51870833333305,
      "v": 110
    },
    {
      "midi": 55,
      "hit": false,
      "t": 13852.422999999966,
      "d": 160.51870833333305,
      "v": 110
    },
    {
      "midi": 43,
      "hit": false,
      "t": 14016.356999999965,
      "d": 160.51870833333305,
      "v": 110
    },
    {
      "midi": 52,
      "hit": false,
      "t": 14016.356999999965,
      "d": 160.51870833333305,
      "v": 110
    },
    {
      "midi": 55,
      "hit": false,
      "t": 14016.356999999965,
      "d": 160.51870833333305,
      "v": 110
    },
    {
      "midi": 76,
      "hit": false,
      "t": 14016.357000000002,
      "d": 245.90099999999984,
      "v": 110
    },
    {
      "midi": 52,
      "hit": false,
      "t": 14180.290999999965,
      "d": 160.51870833333305,
      "v": 110
    },
    {
      "midi": 55,
      "hit": false,
      "t": 14180.290999999965,
      "d": 160.51870833333305,
      "v": 110
    },
    {
      "midi": 79,
      "hit": false,
      "t": 14262.258000000002,
      "d": 81.96700000000055,
      "v": 110
    },
    {
      "midi": 50,
      "hit": false,
      "t": 14344.224999999964,
      "d": 160.51870833333305,
      "v": 110
    },
    {
      "midi": 77,
      "hit": false,
      "t": 14344.225000000002,
      "d": 273.22333333333336,
      "v": 110
    },
    {
      "midi": 53,
      "hit": false,
      "t": 14508.158999999963,
      "d": 160.51870833333305,
      "v": 110
    },
    {
      "midi": 57,
      "hit": false,
      "t": 14508.158999999963,
      "d": 160.51870833333305,
      "v": 110
    },
    {
      "midi": 45,
      "hit": false,
      "t": 14672.092999999963,
      "d": 160.51870833333305,
      "v": 110
    },
    {
      "midi": 53,
      "hit": false,
      "t": 14672.092999999963,
      "d": 160.51870833333305,
      "v": 110
    },
    {
      "midi": 57,
      "hit": false,
      "t": 14672.092999999963,
      "d": 160.51870833333305,
      "v": 110
    },
    {
      "midi": 74,
      "hit": false,
      "t": 14672.093000000003,
      "d": 245.90099999999984,
      "v": 110
    },
    {
      "midi": 53,
      "hit": false,
      "t": 14836.026999999962,
      "d": 160.51870833333305,
      "v": 110
    },
    {
      "midi": 57,
      "hit": false,
      "t": 14836.026999999962,
      "d": 160.51870833333305,
      "v": 110
    },
    {
      "midi": 76,
      "hit": false,
      "t": 14917.994000000002,
      "d": 81.96700000000055,
      "v": 110
    },
    {
      "midi": 50,
      "hit": false,
      "t": 14999.960999999961,
      "d": 160.51870833333305,
      "v": 110
    },
    {
      "midi": 74,
      "hit": false,
      "t": 14999.961000000003,
      "d": 273.22333333333336,
      "v": 110
    },
    {
      "midi": 52,
      "hit": false,
      "t": 15163.89499999996,
      "d": 160.51870833333305,
      "v": 110
    },
    {
      "midi": 56,
      "hit": false,
      "t": 15163.89499999996,
      "d": 160.51870833333305,
      "v": 110
    },
    {
      "midi": 47,
      "hit": false,
      "t": 15327.82899999996,
      "d": 160.51870833333305,
      "v": 110
    },
    {
      "midi": 52,
      "hit": false,
      "t": 15327.82899999996,
      "d": 160.51870833333305,
      "v": 110
    },
    {
      "midi": 56,
      "hit": false,
      "t": 15327.82899999996,
      "d": 160.51870833333305,
      "v": 110
    },
    {
      "midi": 76,
      "hit": false,
      "t": 15327.829000000003,
      "d": 245.90099999999984,
      "v": 110
    },
    {
      "midi": 52,
      "hit": false,
      "t": 15491.762999999959,
      "d": 160.51870833333305,
      "v": 110
    },
    {
      "midi": 56,
      "hit": false,
      "t": 15491.762999999959,
      "d": 160.51870833333305,
      "v": 110
    },
    {
      "midi": 74,
      "hit": false,
      "t": 15573.730000000003,
      "d": 81.96700000000055,
      "v": 110
    },
    {
      "midi": 45,
      "hit": false,
      "t": 15655.696999999958,
      "d": 78.5517083333325,
      "v": 110
    },
    {
      "midi": 72,
      "hit": false,
      "t": 15655.697000000004,
      "d": 1229.505000000001,
      "v": 110
    },
    {
      "midi": 48,
      "hit": false,
      "t": 15737.663999999957,
      "d": 78.5517083333325,
      "v": 110
    },
    {
      "midi": 52,
      "hit": false,
      "t": 15819.630999999956,
      "d": 78.5517083333325,
      "v": 110
    },
    {
      "midi": 48,
      "hit": false,
      "t": 15901.597999999954,
      "d": 78.5517083333325,
      "v": 110
    },
    {
      "midi": 52,
      "hit": false,
      "t": 15983.564999999953,
      "d": 78.5517083333325,
      "v": 110
    },
    {
      "midi": 57,
      "hit": false,
      "t": 15983.564999999953,
      "d": 78.5517083333325,
      "v": 110
    },
    {
      "midi": 48,
      "hit": false,
      "t": 16065.531999999952,
      "d": 78.5517083333325,
      "v": 110
    },
    {
      "midi": 52,
      "hit": false,
      "t": 16147.49899999995,
      "d": 78.5517083333325,
      "v": 110
    },
    {
      "midi": 48,
      "hit": false,
      "t": 16229.46599999995,
      "d": 78.5517083333325,
      "v": 110
    },
    {
      "midi": 43,
      "hit": false,
      "t": 16311.432999999948,
      "d": 78.55170833333432,
      "v": 110
    },
    {
      "midi": 55,
      "hit": false,
      "t": 16311.432999999948,
      "d": 78.55170833333432,
      "v": 110
    },
    {
      "midi": 48,
      "hit": false,
      "t": 16393.39999999995,
      "d": 78.5517083333325,
      "v": 110
    },
    {
      "midi": 52,
      "hit": false,
      "t": 16475.36699999995,
      "d": 78.5517083333325,
      "v": 110
    },
    {
      "midi": 48,
      "hit": false,
      "t": 16557.33399999995,
      "d": 78.5517083333325,
      "v": 110
    },
    {
      "midi": 43,
      "hit": false,
      "t": 16639.300999999952,
      "d": 78.5517083333325,
      "v": 110
    },
    {
      "midi": 52,
      "hit": false,
      "t": 16639.300999999952,
      "d": 78.5517083333325,
      "v": 110
    },
    {
      "midi": 48,
      "hit": false,
      "t": 16721.267999999953,
      "d": 78.5517083333325,
      "v": 110
    },
    {
      "midi": 52,
      "hit": false,
      "t": 16803.234999999953,
      "d": 78.5517083333325,
      "v": 110
    },
    {
      "midi": 48,
      "hit": false,
      "t": 16885.201999999954,
      "d": 78.5517083333325,
      "v": 110
    },
    {
      "midi": 53,
      "hit": false,
      "t": 16967.168999999954,
      "d": 242.4857083333336,
      "v": 110
    },
    {
      "midi": 57,
      "hit": false,
      "t": 16967.168999999954,
      "d": 242.4857083333336,
      "v": 110
    },
    {
      "midi": 72,
      "hit": false,
      "t": 16967.169000000005,
      "d": 242.4857083333336,
      "v": 110
    },
    {
      "midi": 53,
      "hit": false,
      "t": 17213.069999999956,
      "d": 78.5517083333325,
      "v": 110
    },
    {
      "midi": 57,
      "hit": false,
      "t": 17213.069999999956,
      "d": 78.5517083333325,
      "v": 110
    },
    {
      "midi": 72,
      "hit": false,
      "t": 17213.070000000007,
      "d": 78.5517083333325,
      "v": 110
    },
    {
      "midi": 74,
      "hit": false,
      "t": 17295.037000000008,
      "d": 160.51870833333305,
      "v": 110
    },
    {
      "midi": 76,
      "hit": false,
      "t": 17458.97100000001,
      "d": 160.51870833333305,
      "v": 110
    },
    {
      "midi": 55,
      "hit": false,
      "t": 17622.904999999955,
      "d": 160.51870833333305,
      "v": 110
    },
    {
      "midi": 59,
      "hit": false,
      "t": 17622.904999999955,
      "d": 160.51870833333305,
      "v": 110
    },
    {
      "midi": 55,
      "hit": false,
      "t": 17786.838999999956,
      "d": 160.51870833333305,
      "v": 110
    },
    {
      "midi": 59,
      "hit": false,
      "t": 17786.838999999956,
      "d": 160.51870833333305,
      "v": 110
    },
    {
      "midi": 72,
      "hit": false,
      "t": 17786.839000000007,
      "d": 160.51870833333305,
      "v": 110
    },
    {
      "midi": 74,
      "hit": false,
      "t": 17950.77300000001,
      "d": 160.51870833333305,
      "v": 110
    },
    {
      "midi": 72,
      "hit": false,
      "t": 18114.70700000001,
      "d": 160.51870833333305,
      "v": 110
    },
    {
      "midi": 48,
      "hit": false,
      "t": 18278.640999999956,
      "d": 160.51870833333305,
      "v": 110
    },
    {
      "midi": 52,
      "hit": false,
      "t": 18442.574999999957,
      "d": 160.51870833333305,
      "v": 110
    },
    {
      "midi": 55,
      "hit": false,
      "t": 18442.574999999957,
      "d": 160.51870833333305,
      "v": 110
    },
    {
      "midi": 43,
      "hit": false,
      "t": 18606.508999999958,
      "d": 160.51870833333305,
      "v": 110
    },
    {
      "midi": 52,
      "hit": false,
      "t": 18606.508999999958,
      "d": 160.51870833333305,
      "v": 110
    },
    {
      "midi": 55,
      "hit": false,
      "t": 18606.508999999958,
      "d": 160.51870833333305,
      "v": 110
    },
    {
      "midi": 52,
      "hit": false,
      "t": 18770.44299999996,
      "d": 160.51870833333305,
      "v": 110
    },
    {
      "midi": 55,
      "hit": false,
      "t": 18770.44299999996,
      "d": 160.51870833333305,
      "v": 110
    },
    {
      "midi": 48,
      "hit": false,
      "t": 18934.37699999996,
      "d": 160.51870833333305,
      "v": 110
    },
    {
      "midi": 52,
      "hit": false,
      "t": 18934.37699999996,
      "d": 160.51870833333305,
      "v": 110
    },
    {
      "midi": 55,
      "hit": false,
      "t": 18934.37699999996,
      "d": 160.51870833333305,
      "v": 110
    },
    {
      "midi": 52,
      "hit": false,
      "t": 19098.31099999996,
      "d": 160.51870833333305,
      "v": 110
    },
    {
      "midi": 55,
      "hit": false,
      "t": 19098.31099999996,
      "d": 160.51870833333305,
      "v": 110
    },
    {
      "midi": 43,
      "hit": false,
      "t": 19262.244999999963,
      "d": 160.51870833333305,
      "v": 110
    },
    {
      "midi": 52,
      "hit": false,
      "t": 19262.244999999963,
      "d": 160.51870833333305,
      "v": 110
    },
    {
      "midi": 55,
      "hit": false,
      "t": 19262.244999999963,
      "d": 160.51870833333305,
      "v": 110
    },
    {
      "midi": 52,
      "hit": false,
      "t": 19426.178999999964,
      "d": 160.51870833333305,
      "v": 110
    },
    {
      "midi": 55,
      "hit": false,
      "t": 19426.178999999964,
      "d": 160.51870833333305,
      "v": 110
    },
    {
      "midi": 48,
      "hit": false,
      "t": 19590.112999999965,
      "d": 160.51870833333305,
      "v": 110
    },
    {
      "midi": 52,
      "hit": false,
      "t": 19754.046999999966,
      "d": 160.51870833333305,
      "v": 110
    },
    {
      "midi": 55,
      "hit": false,
      "t": 19754.046999999966,
      "d": 160.51870833333305,
      "v": 110
    },
    {
      "midi": 43,
      "hit": false,
      "t": 19917.980999999967,
      "d": 160.51870833333305,
      "v": 110
    },
    {
      "midi": 52,
      "hit": false,
      "t": 19917.980999999967,
      "d": 160.51870833333305,
      "v": 110
    },
    {
      "midi": 55,
      "hit": false,
      "t": 19917.980999999967,
      "d": 160.51870833333305,
      "v": 110
    },
    {
      "midi": 52,
      "hit": false,
      "t": 20081.914999999968,
      "d": 160.51870833333305,
      "v": 110
    },
    {
      "midi": 55,
      "hit": false,
      "t": 20081.914999999968,
      "d": 160.51870833333305,
      "v": 110
    },
    {
      "midi": 48,
      "hit": false,
      "t": 20245.84899999997,
      "d": 160.51870833333305,
      "v": 110
    },
    {
      "midi": 52,
      "hit": false,
      "t": 20245.84899999997,
      "d": 160.51870833333305,
      "v": 110
    },
    {
      "midi": 55,
      "hit": false,
      "t": 20245.84899999997,
      "d": 160.51870833333305,
      "v": 110
    },
    {
      "midi": 52,
      "hit": false,
      "t": 20409.78299999997,
      "d": 160.51870833333305,
      "v": 110
    },
    {
      "midi": 55,
      "hit": false,
      "t": 20409.78299999997,
      "d": 160.51870833333305,
      "v": 110
    },
    {
      "midi": 43,
      "hit": false,
      "t": 20573.71699999997,
      "d": 160.51870833333305,
      "v": 110
    },
    {
      "midi": 52,
      "hit": false,
      "t": 20573.71699999997,
      "d": 160.51870833333305,
      "v": 110
    },
    {
      "midi": 55,
      "hit": false,
      "t": 20573.71699999997,
      "d": 160.51870833333305,
      "v": 110
    },
    {
      "midi": 72,
      "hit": false,
      "t": 20573.717000000008,
      "d": 245.90100000000166,
      "v": 110
    },
    {
      "midi": 52,
      "hit": false,
      "t": 20737.650999999973,
      "d": 160.51870833333305,
      "v": 110
    },
    {
      "midi": 55,
      "hit": false,
      "t": 20737.650999999973,
      "d": 160.51870833333305,
      "v": 110
    },
    {
      "midi": 74,
      "hit": false,
      "t": 20819.61800000001,
      "d": 81.96700000000055,
      "v": 110
    },
    {
      "midi": 41,
      "hit": false,
      "t": 20901.584999999974,
      "d": 78.5517083333325,
      "v": 110
    },
    {
      "midi": 53,
      "hit": false,
      "t": 20901.584999999974,
      "d": 78.5517083333325,
      "v": 110
    },
    {
      "midi": 72,
      "hit": false,
      "t": 20901.58500000001,
      "d": 273.22333333333154,
      "v": 110
    },
    {
      "midi": 75,
      "hit": false,
      "t": 20901.58500000001,
      "d": 273.22333333333154,
      "v": 110
    },
    {
      "midi": 48,
      "hit": false,
      "t": 20983.551999999974,
      "d": 78.5517083333325,
      "v": 110
    },
    {
      "midi": 56,
      "hit": false,
      "t": 21065.518999999975,
      "d": 78.5517083333325,
      "v": 110
    },
    {
      "midi": 48,
      "hit": false,
      "t": 21147.485999999975,
      "d": 78.5517083333325,
      "v": 110
    },
    {
      "midi": 56,
      "hit": false,
      "t": 21229.452999999976,
      "d": 78.5517083333325,
      "v": 110
    },
    {
      "midi": 60,
      "hit": false,
      "t": 21229.452999999976,
      "d": 78.5517083333325,
      "v": 110
    },
    {
      "midi": 70,
      "hit": false,
      "t": 21229.45300000001,
      "d": 245.90100000000166,
      "v": 110
    },
    {
      "midi": 74,
      "hit": false,
      "t": 21229.45300000001,
      "d": 245.90100000000166,
      "v": 110
    },
    {
      "midi": 48,
      "hit": false,
      "t": 21311.419999999976,
      "d": 78.5517083333325,
      "v": 110
    },
    {
      "midi": 56,
      "hit": false,
      "t": 21393.386999999977,
      "d": 78.5517083333325,
      "v": 110
    },
    {
      "midi": 48,
      "hit": false,
      "t": 21475.353999999978,
      "d": 78.5517083333325,
      "v": 110
    },
    {
      "midi": 72,
      "hit": false,
      "t": 21475.35400000001,
      "d": 81.96700000000055,
      "v": 110
    },
    {
      "midi": 75,
      "hit": false,
      "t": 21475.35400000001,
      "d": 81.96700000000055,
      "v": 110
    },
    {
      "midi": 46,
      "hit": false,
      "t": 21557.320999999978,
      "d": 78.5517083333325,
      "v": 110
    },
    {
      "midi": 58,
      "hit": false,
      "t": 21557.320999999978,
      "d": 78.5517083333325,
      "v": 110
    },
    {
      "midi": 74,
      "hit": false,
      "t": 21557.32100000001,
      "d": 273.2233333333352,
      "v": 110
    },
    {
      "midi": 77,
      "hit": false,
      "t": 21557.32100000001,
      "d": 273.2233333333352,
      "v": 110
    },
    {
      "midi": 53,
      "hit": false,
      "t": 21639.28799999998,
      "d": 78.5517083333325,
      "v": 110
    },
    {
      "midi": 58,
      "hit": false,
      "t": 21721.25499999998,
      "d": 78.5517083333325,
      "v": 110
    },
    {
      "midi": 53,
      "hit": false,
      "t": 21803.22199999998,
      "d": 78.5517083333325,
      "v": 110
    },
    {
      "midi": 53,
      "hit": false,
      "t": 21885.18899999998,
      "d": 78.5517083333325,
      "v": 110
    },
    {
      "midi": 58,
      "hit": false,
      "t": 21885.18899999998,
      "d": 78.5517083333325,
      "v": 110
    },
    {
      "midi": 70,
      "hit": false,
      "t": 21885.189000000013,
      "d": 245.90100000000166,
      "v": 110
    },
    {
      "midi": 75,
      "hit": false,
      "t": 21885.189000000013,
      "d": 245.90100000000166,
      "v": 110
    },
    {
      "midi": 53,
      "hit": false,
      "t": 21967.15599999998,
      "d": 78.5517083333325,
      "v": 110
    },
    {
      "midi": 58,
      "hit": false,
      "t": 22049.12299999998,
      "d": 78.5517083333325,
      "v": 110
    },
    {
      "midi": 53,
      "hit": false,
      "t": 22131.089999999982,
      "d": 78.5517083333325,
      "v": 110
    },
    {
      "midi": 74,
      "hit": false,
      "t": 22131.090000000015,
      "d": 81.96700000000055,
      "v": 110
    },
    {
      "midi": 77,
      "hit": false,
      "t": 22131.090000000015,
      "d": 81.96700000000055,
      "v": 110
    },
    {
      "midi": 39,
      "hit": false,
      "t": 22213.056999999983,
      "d": 78.5517083333325,
      "v": 110
    },
    {
      "midi": 51,
      "hit": false,
      "t": 22213.056999999983,
      "d": 78.5517083333325,
      "v": 110
    },
    {
      "midi": 75,
      "hit": false,
      "t": 22213.057000000015,
      "d": 273.2233333333352,
      "v": 110
    },
    {
      "midi": 79,
      "hit": false,
      "t": 22213.057000000015,
      "d": 273.2233333333352,
      "v": 110
    },
    {
      "midi": 46,
      "hit": false,
      "t": 22295.023999999983,
      "d": 78.5517083333325,
      "v": 110
    },
    {
      "midi": 51,
      "hit": false,
      "t": 22376.990999999984,
      "d": 78.5517083333325,
      "v": 110
    },
    {
      "midi": 46,
      "hit": false,
      "t": 22458.957999999984,
      "d": 78.5517083333325,
      "v": 110
    },
    {
      "midi": 55,
      "hit": false,
      "t": 22540.924999999985,
      "d": 78.5517083333325,
      "v": 110
    },
    {
      "midi": 58,
      "hit": false,
      "t": 22540.924999999985,
      "d": 78.5517083333325,
      "v": 110
    },
    {
      "midi": 74,
      "hit": false,
      "t": 22540.925000000017,
      "d": 245.90100000000166,
      "v": 110
    },
    {
      "midi": 77,
      "hit": false,
      "t": 22540.925000000017,
      "d": 245.90100000000166,
      "v": 110
    },
    {
      "midi": 46,
      "hit": false,
      "t": 22622.891999999985,
      "d": 78.5517083333325,
      "v": 110
    },
    {
      "midi": 51,
      "hit": false,
      "t": 22704.858999999986,
      "d": 78.5517083333325,
      "v": 110
    },
    {
      "midi": 46,
      "hit": false,
      "t": 22786.825999999986,
      "d": 78.5517083333325,
      "v": 110
    },
    {
      "midi": 75,
      "hit": false,
      "t": 22786.82600000002,
      "d": 81.96700000000055,
      "v": 110
    },
    {
      "midi": 79,
      "hit": false,
      "t": 22786.82600000002,
      "d": 81.96700000000055,
      "v": 110
    },
    {
      "midi": 44,
      "hit": false,
      "t": 22868.792999999987,
      "d": 78.5517083333325,
      "v": 110
    },
    {
      "midi": 56,
      "hit": false,
      "t": 22868.792999999987,
      "d": 78.5517083333325,
      "v": 110
    },
    {
      "midi": 70,
      "hit": false,
      "t": 22868.79300000002,
      "d": 273.2233333333352,
      "v": 110
    },
    {
      "midi": 72,
      "hit": false,
      "t": 22868.79300000002,
      "d": 273.2233333333352,
      "v": 110
    },
    {
      "midi": 51,
      "hit": false,
      "t": 22950.759999999987,
      "d": 78.5517083333325,
      "v": 110
    },
    {
      "midi": 56,
      "hit": false,
      "t": 23032.726999999988,
      "d": 78.5517083333325,
      "v": 110
    },
    {
      "midi": 51,
      "hit": false,
      "t": 23114.69399999999,
      "d": 78.5517083333325,
      "v": 110
    },
    {
      "midi": 44,
      "hit": false,
      "t": 23196.66099999999,
      "d": 78.5517083333325,
      "v": 110
    },
    {
      "midi": 63,
      "hit": false,
      "t": 23196.661000000022,
      "d": 245.90100000000166,
      "v": 110
    },
    {
      "midi": 68,
      "hit": false,
      "t": 23196.661000000022,
      "d": 245.90100000000166,
      "v": 110
    },
    {
      "midi": 72,
      "hit": false,
      "t": 23196.661000000022,
      "d": 245.90100000000166,
      "v": 110
    },
    {
      "midi": 51,
      "hit": false,
      "t": 23278.62799999999,
      "d": 78.5517083333325,
      "v": 110
    },
    {
      "midi": 56,
      "hit": false,
      "t": 23360.59499999999,
      "d": 78.5517083333325,
      "v": 110
    },
    {
      "midi": 51,
      "hit": false,
      "t": 23442.56199999999,
      "d": 78.5517083333325,
      "v": 110
    },
    {
      "midi": 70,
      "hit": false,
      "t": 23442.562000000024,
      "d": 81.96700000000055,
      "v": 110
    },
    {
      "midi": 74,
      "hit": false,
      "t": 23442.562000000024,
      "d": 81.96700000000055,
      "v": 110
    },
    {
      "midi": 41,
      "hit": false,
      "t": 23524.52899999999,
      "d": 78.5517083333325,
      "v": 110
    },
    {
      "midi": 53,
      "hit": false,
      "t": 23524.52899999999,
      "d": 78.5517083333325,
      "v": 110
    },
    {
      "midi": 72,
      "hit": false,
      "t": 23524.529000000024,
      "d": 273.2233333333352,
      "v": 110
    },
    {
      "midi": 75,
      "hit": false,
      "t": 23524.529000000024,
      "d": 273.2233333333352,
      "v": 110
    },
    {
      "midi": 48,
      "hit": false,
      "t": 23606.495999999992,
      "d": 78.5517083333325,
      "v": 110
    },
    {
      "midi": 56,
      "hit": false,
      "t": 23688.462999999992,
      "d": 78.5517083333325,
      "v": 110
    },
    {
      "midi": 48,
      "hit": false,
      "t": 23770.429999999993,
      "d": 78.5517083333325,
      "v": 110
    },
    {
      "midi": 56,
      "hit": false,
      "t": 23852.396999999994,
      "d": 78.5517083333325,
      "v": 110
    },
    {
      "midi": 60,
      "hit": false,
      "t": 23852.396999999994,
      "d": 78.5517083333325,
      "v": 110
    },
    {
      "midi": 70,
      "hit": false,
      "t": 23852.397000000026,
      "d": 245.90100000000166,
      "v": 110
    },
    {
      "midi": 74,
      "hit": false,
      "t": 23852.397000000026,
      "d": 245.90100000000166,
      "v": 110
    },
    {
      "midi": 48,
      "hit": false,
      "t": 23934.363999999994,
      "d": 78.5517083333325,
      "v": 110
    },
    {
      "midi": 56,
      "hit": false,
      "t": 24016.330999999995,
      "d": 78.5517083333325,
      "v": 110
    },
    {
      "midi": 48,
      "hit": false,
      "t": 24098.297999999995,
      "d": 78.5517083333325,
      "v": 110
    },
    {
      "midi": 72,
      "hit": false,
      "t": 24098.298000000028,
      "d": 81.96700000000055,
      "v": 110
    },
    {
      "midi": 75,
      "hit": false,
      "t": 24098.298000000028,
      "d": 81.96700000000055,
      "v": 110
    },
    {
      "midi": 46,
      "hit": false,
      "t": 24180.264999999996,
      "d": 78.5517083333325,
      "v": 110
    },
    {
      "midi": 58,
      "hit": false,
      "t": 24180.264999999996,
      "d": 78.5517083333325,
      "v": 110
    },
    {
      "midi": 74,
      "hit": false,
      "t": 24180.26500000003,
      "d": 273.2233333333352,
      "v": 110
    },
    {
      "midi": 77,
      "hit": false,
      "t": 24180.26500000003,
      "d": 273.2233333333352,
      "v": 110
    },
    {
      "midi": 53,
      "hit": false,
      "t": 24262.231999999996,
      "d": 78.5517083333325,
      "v": 110
    },
    {
      "midi": 58,
      "hit": false,
      "t": 24344.198999999997,
      "d": 78.5517083333325,
      "v": 110
    },
    {
      "midi": 53,
      "hit": false,
      "t": 24426.165999999997,
      "d": 78.5517083333325,
      "v": 110
    },
    {
      "midi": 53,
      "hit": false,
      "t": 24508.132999999998,
      "d": 78.5517083333325,
      "v": 110
    },
    {
      "midi": 58,
      "hit": false,
      "t": 24508.132999999998,
      "d": 78.5517083333325,
      "v": 110
    },
    {
      "midi": 72,
      "hit": false,
      "t": 24508.13300000003,
      "d": 245.90100000000166,
      "v": 110
    },
    {
      "midi": 75,
      "hit": false,
      "t": 24508.13300000003,
      "d": 245.90100000000166,
      "v": 110
    },
    {
      "midi": 53,
      "hit": false,
      "t": 24590.1,
      "d": 78.5517083333325,
      "v": 110
    },
    {
      "midi": 58,
      "hit": false,
      "t": 24672.067,
      "d": 78.5517083333325,
      "v": 110
    },
    {
      "midi": 53,
      "hit": false,
      "t": 24754.034,
      "d": 78.5517083333325,
      "v": 110
    },
    {
      "midi": 74,
      "hit": false,
      "t": 24754.034000000032,
      "d": 81.96700000000055,
      "v": 110
    },
    {
      "midi": 77,
      "hit": false,
      "t": 24754.034000000032,
      "d": 81.96700000000055,
      "v": 110
    },
    {
      "midi": 39,
      "hit": false,
      "t": 24836.001,
      "d": 78.5517083333325,
      "v": 110
    },
    {
      "midi": 51,
      "hit": false,
      "t": 24836.001,
      "d": 78.5517083333325,
      "v": 110
    },
    {
      "midi": 75,
      "hit": false,
      "t": 24836.001000000033,
      "d": 273.2233333333352,
      "v": 110
    },
    {
      "midi": 79,
      "hit": false,
      "t": 24836.001000000033,
      "d": 273.2233333333352,
      "v": 110
    },
    {
      "midi": 46,
      "hit": false,
      "t": 24917.968,
      "d": 78.5517083333325,
      "v": 110
    },
    {
      "midi": 51,
      "hit": false,
      "t": 24999.935,
      "d": 78.5517083333325,
      "v": 110
    },
    {
      "midi": 46,
      "hit": false,
      "t": 25081.902000000002,
      "d": 78.5517083333325,
      "v": 110
    },
    {
      "midi": 55,
      "hit": false,
      "t": 25163.869000000002,
      "d": 78.5517083333325,
      "v": 110
    },
    {
      "midi": 58,
      "hit": false,
      "t": 25163.869000000002,
      "d": 78.5517083333325,
      "v": 110
    },
    {
      "midi": 46,
      "hit": false,
      "t": 25245.836000000003,
      "d": 78.5517083333325,
      "v": 110
    },
    {
      "midi": 51,
      "hit": false,
      "t": 25327.803000000004,
      "d": 78.5517083333325,
      "v": 110
    },
    {
      "midi": 46,
      "hit": false,
      "t": 25409.770000000004,
      "d": 78.5517083333325,
      "v": 110
    },
    {
      "midi": 44,
      "hit": false,
      "t": 25491.737000000005,
      "d": 78.5517083333325,
      "v": 110
    },
    {
      "midi": 56,
      "hit": false,
      "t": 25491.737000000005,
      "d": 78.5517083333325,
      "v": 110
    },
    {
      "midi": 79,
      "hit": false,
      "t": 25491.737000000034,
      "d": 273.22333333333154,
      "v": 110
    },
    {
      "midi": 84,
      "hit": false,
      "t": 25491.737000000034,
      "d": 273.22333333333154,
      "v": 110
    },
    {
      "midi": 51,
      "hit": false,
      "t": 25573.704000000005,
      "d": 78.5517083333325,
      "v": 110
    },
    {
      "midi": 60,
      "hit": false,
      "t": 25655.671000000006,
      "d": 78.5517083333325,
      "v": 110
    },
    {
      "midi": 51,
      "hit": false,
      "t": 25737.638000000006,
      "d": 78.5517083333325,
      "v": 110
    },
    {
      "midi": 44,
      "hit": false,
      "t": 25819.605000000007,
      "d": 78.5517083333325,
      "v": 110
    },
    {
      "midi": 63,
      "hit": false,
      "t": 25819.605000000032,
      "d": 245.90100000000166,
      "v": 110
    },
    {
      "midi": 72,
      "hit": false,
      "t": 25819.605000000032,
      "d": 245.90100000000166,
      "v": 110
    },
    {
      "midi": 51,
      "hit": false,
      "t": 25901.572000000007,
      "d": 78.5517083333325,
      "v": 110
    },
    {
      "midi": 56,
      "hit": false,
      "t": 25983.539000000008,
      "d": 78.5517083333325,
      "v": 110
    },
    {
      "midi": 51,
      "hit": false,
      "t": 26065.50600000001,
      "d": 78.5517083333325,
      "v": 110
    },
    {
      "midi": 74,
      "hit": false,
      "t": 26065.506000000034,
      "d": 81.96700000000055,
      "v": 110
    },
    {
      "midi": 41,
      "hit": false,
      "t": 26147.47300000001,
      "d": 78.5517083333325,
      "v": 110
    },
    {
      "midi": 53,
      "hit": false,
      "t": 26147.47300000001,
      "d": 78.5517083333325,
      "v": 110
    },
    {
      "midi": 72,
      "hit": false,
      "t": 26147.473000000035,
      "d": 273.2233333333352,
      "v": 110
    },
    {
      "midi": 75,
      "hit": false,
      "t": 26147.473000000035,
      "d": 273.2233333333352,
      "v": 110
    },
    {
      "midi": 48,
      "hit": false,
      "t": 26229.44000000001,
      "d": 78.5517083333325,
      "v": 110
    },
    {
      "midi": 56,
      "hit": false,
      "t": 26311.40700000001,
      "d": 78.5517083333325,
      "v": 110
    },
    {
      "midi": 48,
      "hit": false,
      "t": 26393.37400000001,
      "d": 78.5517083333325,
      "v": 110
    },
    {
      "midi": 56,
      "hit": false,
      "t": 26475.34100000001,
      "d": 78.5517083333325,
      "v": 110
    },
    {
      "midi": 60,
      "hit": false,
      "t": 26475.34100000001,
      "d": 78.5517083333325,
      "v": 110
    },
    {
      "midi": 70,
      "hit": false,
      "t": 26475.341000000037,
      "d": 245.90100000000166,
      "v": 110
    },
    {
      "midi": 74,
      "hit": false,
      "t": 26475.341000000037,
      "d": 245.90100000000166,
      "v": 110
    },
    {
      "midi": 48,
      "hit": false,
      "t": 26557.30800000001,
      "d": 78.5517083333325,
      "v": 110
    },
    {
      "midi": 56,
      "hit": false,
      "t": 26639.275000000012,
      "d": 78.5517083333325,
      "v": 110
    },
    {
      "midi": 48,
      "hit": false,
      "t": 26721.242000000013,
      "d": 78.5517083333325,
      "v": 110
    },
    {
      "midi": 72,
      "hit": false,
      "t": 26721.24200000004,
      "d": 81.96700000000055,
      "v": 110
    },
    {
      "midi": 75,
      "hit": false,
      "t": 26721.24200000004,
      "d": 81.96700000000055,
      "v": 110
    },
    {
      "midi": 46,
      "hit": false,
      "t": 26803.209000000013,
      "d": 78.5517083333325,
      "v": 110
    },
    {
      "midi": 58,
      "hit": false,
      "t": 26803.209000000013,
      "d": 78.5517083333325,
      "v": 110
    },
    {
      "midi": 74,
      "hit": false,
      "t": 26803.20900000004,
      "d": 273.2233333333352,
      "v": 110
    },
    {
      "midi": 77,
      "hit": false,
      "t": 26803.20900000004,
      "d": 273.2233333333352,
      "v": 110
    },
    {
      "midi": 53,
      "hit": false,
      "t": 26885.176000000014,
      "d": 78.5517083333325,
      "v": 110
    },
    {
      "midi": 58,
      "hit": false,
      "t": 26967.143000000015,
      "d": 78.5517083333325,
      "v": 110
    },
    {
      "midi": 53,
      "hit": false,
      "t": 27049.110000000015,
      "d": 78.5517083333325,
      "v": 110
    },
    {
      "midi": 53,
      "hit": false,
      "t": 27131.077000000016,
      "d": 78.5517083333325,
      "v": 110
    },
    {
      "midi": 58,
      "hit": false,
      "t": 27131.077000000016,
      "d": 78.5517083333325,
      "v": 110
    },
    {
      "midi": 70,
      "hit": false,
      "t": 27131.07700000004,
      "d": 245.90100000000166,
      "v": 110
    },
    {
      "midi": 75,
      "hit": false,
      "t": 27131.07700000004,
      "d": 245.90100000000166,
      "v": 110
    },
    {
      "midi": 53,
      "hit": false,
      "t": 27213.044000000016,
      "d": 78.5517083333325,
      "v": 110
    },
    {
      "midi": 58,
      "hit": false,
      "t": 27295.011000000017,
      "d": 78.5517083333325,
      "v": 110
    },
    {
      "midi": 53,
      "hit": false,
      "t": 27376.978000000017,
      "d": 78.5517083333325,
      "v": 110
    },
    {
      "midi": 74,
      "hit": false,
      "t": 27376.978000000043,
      "d": 81.96700000000055,
      "v": 110
    },
    {
      "midi": 77,
      "hit": false,
      "t": 27376.978000000043,
      "d": 81.96700000000055,
      "v": 110
    },
    {
      "midi": 39,
      "hit": false,
      "t": 27458.945000000018,
      "d": 78.5517083333325,
      "v": 110
    },
    {
      "midi": 51,
      "hit": false,
      "t": 27458.945000000018,
      "d": 78.5517083333325,
      "v": 110
    },
    {
      "midi": 75,
      "hit": false,
      "t": 27458.945000000043,
      "d": 273.2233333333352,
      "v": 110
    },
    {
      "midi": 79,
      "hit": false,
      "t": 27458.945000000043,
      "d": 273.2233333333352,
      "v": 110
    },
    {
      "midi": 46,
      "hit": false,
      "t": 27540.91200000002,
      "d": 78.5517083333325,
      "v": 110
    },
    {
      "midi": 51,
      "hit": false,
      "t": 27622.87900000002,
      "d": 78.5517083333325,
      "v": 110
    },
    {
      "midi": 46,
      "hit": false,
      "t": 27704.84600000002,
      "d": 78.5517083333325,
      "v": 110
    },
    {
      "midi": 55,
      "hit": false,
      "t": 27786.81300000002,
      "d": 78.5517083333325,
      "v": 110
    },
    {
      "midi": 58,
      "hit": false,
      "t": 27786.81300000002,
      "d": 78.5517083333325,
      "v": 110
    },
    {
      "midi": 74,
      "hit": false,
      "t": 27786.813000000046,
      "d": 245.90100000000166,
      "v": 110
    },
    {
      "midi": 77,
      "hit": false,
      "t": 27786.813000000046,
      "d": 245.90100000000166,
      "v": 110
    },
    {
      "midi": 46,
      "hit": false,
      "t": 27868.78000000002,
      "d": 78.5517083333325,
      "v": 110
    },
    {
      "midi": 51,
      "hit": false,
      "t": 27950.74700000002,
      "d": 78.5517083333325,
      "v": 110
    },
    {
      "midi": 46,
      "hit": false,
      "t": 28032.71400000002,
      "d": 78.5517083333325,
      "v": 110
    },
    {
      "midi": 75,
      "hit": false,
      "t": 28032.714000000047,
      "d": 81.96700000000055,
      "v": 110
    },
    {
      "midi": 79,
      "hit": false,
      "t": 28032.714000000047,
      "d": 81.96700000000055,
      "v": 110
    },
    {
      "midi": 44,
      "hit": false,
      "t": 28114.681000000022,
      "d": 78.5517083333325,
      "v": 110
    },
    {
      "midi": 56,
      "hit": false,
      "t": 28114.681000000022,
      "d": 78.5517083333325,
      "v": 110
    },
    {
      "midi": 70,
      "hit": false,
      "t": 28114.681000000048,
      "d": 273.2233333333352,
      "v": 110
    },
    {
      "midi": 72,
      "hit": false,
      "t": 28114.681000000048,
      "d": 273.2233333333352,
      "v": 110
    },
    {
      "midi": 51,
      "hit": false,
      "t": 28196.648000000023,
      "d": 78.5517083333325,
      "v": 110
    },
    {
      "midi": 56,
      "hit": false,
      "t": 28278.615000000023,
      "d": 78.5517083333325,
      "v": 110
    },
    {
      "midi": 51,
      "hit": false,
      "t": 28360.582000000024,
      "d": 78.5517083333325,
      "v": 110
    },
    {
      "midi": 44,
      "hit": false,
      "t": 28442.549000000025,
      "d": 78.5517083333325,
      "v": 110
    },
    {
      "midi": 63,
      "hit": false,
      "t": 28442.54900000005,
      "d": 245.90100000000166,
      "v": 110
    },
    {
      "midi": 68,
      "hit": false,
      "t": 28442.54900000005,
      "d": 245.90100000000166,
      "v": 110
    },
    {
      "midi": 72,
      "hit": false,
      "t": 28442.54900000005,
      "d": 245.90100000000166,
      "v": 110
    },
    {
      "midi": 51,
      "hit": false,
      "t": 28524.516000000025,
      "d": 78.5517083333325,
      "v": 110
    },
    {
      "midi": 56,
      "hit": false,
      "t": 28606.483000000026,
      "d": 78.5517083333325,
      "v": 110
    },
    {
      "midi": 51,
      "hit": false,
      "t": 28688.450000000026,
      "d": 78.5517083333325,
      "v": 110
    },
    {
      "midi": 70,
      "hit": false,
      "t": 28688.45000000005,
      "d": 81.96700000000055,
      "v": 110
    },
    {
      "midi": 74,
      "hit": false,
      "t": 28688.45000000005,
      "d": 81.96700000000055,
      "v": 110
    },
    {
      "midi": 41,
      "hit": false,
      "t": 28770.417000000027,
      "d": 78.5517083333325,
      "v": 110
    },
    {
      "midi": 53,
      "hit": false,
      "t": 28770.417000000027,
      "d": 78.5517083333325,
      "v": 110
    },
    {
      "midi": 72,
      "hit": false,
      "t": 28770.417000000052,
      "d": 273.2233333333352,
      "v": 110
    },
    {
      "midi": 75,
      "hit": false,
      "t": 28770.417000000052,
      "d": 273.2233333333352,
      "v": 110
    },
    {
      "midi": 48,
      "hit": false,
      "t": 28852.384000000027,
      "d": 78.5517083333325,
      "v": 110
    },
    {
      "midi": 56,
      "hit": false,
      "t": 28934.351000000028,
      "d": 78.5517083333325,
      "v": 110
    },
    {
      "midi": 48,
      "hit": false,
      "t": 29016.31800000003,
      "d": 78.5517083333325,
      "v": 110
    },
    {
      "midi": 56,
      "hit": false,
      "t": 29098.28500000003,
      "d": 78.5517083333325,
      "v": 110
    },
    {
      "midi": 60,
      "hit": false,
      "t": 29098.28500000003,
      "d": 78.5517083333325,
      "v": 110
    },
    {
      "midi": 70,
      "hit": false,
      "t": 29098.285000000054,
      "d": 245.90100000000166,
      "v": 110
    },
    {
      "midi": 74,
      "hit": false,
      "t": 29098.285000000054,
      "d": 245.90100000000166,
      "v": 110
    },
    {
      "midi": 48,
      "hit": false,
      "t": 29180.25200000003,
      "d": 78.5517083333325,
      "v": 110
    },
    {
      "midi": 56,
      "hit": false,
      "t": 29262.21900000003,
      "d": 78.5517083333325,
      "v": 110
    },
    {
      "midi": 48,
      "hit": false,
      "t": 29344.18600000003,
      "d": 78.5517083333325,
      "v": 110
    },
    {
      "midi": 72,
      "hit": false,
      "t": 29344.186000000056,
      "d": 81.96700000000055,
      "v": 110
    },
    {
      "midi": 75,
      "hit": false,
      "t": 29344.186000000056,
      "d": 81.96700000000055,
      "v": 110
    },
    {
      "midi": 46,
      "hit": false,
      "t": 29426.15300000003,
      "d": 78.5517083333325,
      "v": 110
    },
    {
      "midi": 58,
      "hit": false,
      "t": 29426.15300000003,
      "d": 78.5517083333325,
      "v": 110
    },
    {
      "midi": 74,
      "hit": false,
      "t": 29426.153000000057,
      "d": 273.2233333333352,
      "v": 110
    },
    {
      "midi": 77,
      "hit": false,
      "t": 29426.153000000057,
      "d": 273.2233333333352,
      "v": 110
    },
    {
      "midi": 53,
      "hit": false,
      "t": 29508.12000000003,
      "d": 78.5517083333325,
      "v": 110
    },
    {
      "midi": 58,
      "hit": false,
      "t": 29590.087000000032,
      "d": 78.5517083333325,
      "v": 110
    },
    {
      "midi": 53,
      "hit": false,
      "t": 29672.054000000033,
      "d": 78.5517083333325,
      "v": 110
    },
    {
      "midi": 53,
      "hit": false,
      "t": 29754.021000000033,
      "d": 78.5517083333325,
      "v": 110
    },
    {
      "midi": 58,
      "hit": false,
      "t": 29754.021000000033,
      "d": 78.5517083333325,
      "v": 110
    },
    {
      "midi": 72,
      "hit": false,
      "t": 29754.02100000006,
      "d": 245.90100000000166,
      "v": 110
    },
    {
      "midi": 75,
      "hit": false,
      "t": 29754.02100000006,
      "d": 245.90100000000166,
      "v": 110
    },
    {
      "midi": 53,
      "hit": false,
      "t": 29835.988000000034,
      "d": 78.5517083333325,
      "v": 110
    },
    {
      "midi": 58,
      "hit": false,
      "t": 29917.955000000034,
      "d": 78.5517083333325,
      "v": 110
    },
    {
      "midi": 53,
      "hit": false,
      "t": 29999.922000000035,
      "d": 78.5517083333325,
      "v": 110
    },
    {
      "midi": 74,
      "hit": false,
      "t": 29999.92200000006,
      "d": 81.96700000000055,
      "v": 110
    },
    {
      "midi": 77,
      "hit": false,
      "t": 29999.92200000006,
      "d": 81.96700000000055,
      "v": 110
    },
    {
      "midi": 43,
      "hit": false,
      "t": 30081.889000000036,
      "d": 160.51870833333305,
      "v": 110
    },
    {
      "midi": 72,
      "hit": false,
      "t": 30081.88900000006,
      "d": 573.7690000000002,
      "v": 110
    },
    {
      "midi": 74,
      "hit": false,
      "t": 30081.88900000006,
      "d": 573.7690000000002,
      "v": 110
    },
    {
      "midi": 43,
      "hit": false,
      "t": 30245.823000000037,
      "d": 78.5517083333325,
      "v": 110
    },
    {
      "midi": 50,
      "hit": false,
      "t": 30327.790000000037,
      "d": 78.5517083333325,
      "v": 110
    },
    {
      "midi": 43,
      "hit": false,
      "t": 30409.757000000038,
      "d": 160.51870833333305,
      "v": 110
    },
    {
      "midi": 43,
      "hit": false,
      "t": 30573.69100000004,
      "d": 78.5517083333325,
      "v": 110
    },
    {
      "midi": 50,
      "hit": false,
      "t": 30655.65800000004,
      "d": 78.5517083333325,
      "v": 110
    },
    {
      "midi": 55,
      "hit": false,
      "t": 30737.62500000004,
      "d": 273.22333333333154,
      "v": 110
    },
    {
      "midi": 71,
      "hit": false,
      "t": 30737.625000000062,
      "d": 273.22333333333154,
      "v": 110
    },
    {
      "midi": 74,
      "hit": false,
      "t": 30737.625000000062,
      "d": 273.22333333333154,
      "v": 110
    },
    {
      "midi": 79,
      "hit": false,
      "t": 30737.625000000062,
      "d": 273.22333333333154,
      "v": 110
    },
    {
      "midi": 67,
      "hit": false,
      "t": 31065.49300000006,
      "d": 242.4857083333336,
      "v": 110
    },
    {
      "midi": 67,
      "hit": false,
      "t": 31311.394000000062,
      "d": 81.96700000000055,
      "v": 110
    },
    {
      "midi": 48,
      "hit": false,
      "t": 31393.361000000037,
      "d": 160.51870833333305,
      "v": 110
    },
    {
      "midi": 72,
      "hit": false,
      "t": 31393.361000000063,
      "d": 573.7690000000002,
      "v": 110
    },
    {
      "midi": 52,
      "hit": false,
      "t": 31557.29500000004,
      "d": 160.51870833333305,
      "v": 110
    },
    {
      "midi": 55,
      "hit": false,
      "t": 31557.29500000004,
      "d": 160.51870833333305,
      "v": 110
    },
    {
      "midi": 43,
      "hit": false,
      "t": 31721.22900000004,
      "d": 160.51870833333305,
      "v": 110
    },
    {
      "midi": 52,
      "hit": false,
      "t": 31721.22900000004,
      "d": 160.51870833333305,
      "v": 110
    },
    {
      "midi": 55,
      "hit": false,
      "t": 31721.22900000004,
      "d": 160.51870833333305,
      "v": 110
    },
    {
      "midi": 52,
      "hit": false,
      "t": 31885.16300000004,
      "d": 160.51870833333305,
      "v": 110
    },
    {
      "midi": 55,
      "hit": false,
      "t": 31885.16300000004,
      "d": 160.51870833333305,
      "v": 110
    },
    {
      "midi": 48,
      "hit": false,
      "t": 32049.09700000004,
      "d": 160.51870833333305,
      "v": 110
    },
    {
      "midi": 52,
      "hit": false,
      "t": 32049.09700000004,
      "d": 160.51870833333305,
      "v": 110
    },
    {
      "midi": 55,
      "hit": false,
      "t": 32049.09700000004,
      "d": 160.51870833333305,
      "v": 110
    },
    {
      "midi": 52,
      "hit": false,
      "t": 32213.031000000043,
      "d": 160.51870833333305,
      "v": 110
    },
    {
      "midi": 55,
      "hit": false,
      "t": 32213.031000000043,
      "d": 160.51870833333305,
      "v": 110
    },
    {
      "midi": 43,
      "hit": false,
      "t": 32376.965000000044,
      "d": 160.51870833333305,
      "v": 110
    },
    {
      "midi": 52,
      "hit": false,
      "t": 32376.965000000044,
      "d": 160.51870833333305,
      "v": 110
    },
    {
      "midi": 55,
      "hit": false,
      "t": 32376.965000000044,
      "d": 160.51870833333305,
      "v": 110
    },
    {
      "midi": 72,
      "hit": false,
      "t": 32376.965000000062,
      "d": 245.90100000000166,
      "v": 110
    },
    {
      "midi": 52,
      "hit": false,
      "t": 32540.899000000045,
      "d": 160.51870833333305,
      "v": 110
    },
    {
      "midi": 55,
      "hit": false,
      "t": 32540.899000000045,
      "d": 160.51870833333305,
      "v": 110
    },
    {
      "midi": 76,
      "hit": false,
      "t": 32622.866000000064,
      "d": 81.96700000000055,
      "v": 110
    },
    {
      "midi": 48,
      "hit": false,
      "t": 32704.833000000046,
      "d": 160.51870833333305,
      "v": 110
    },
    {
      "midi": 79,
      "hit": false,
      "t": 32704.833000000064,
      "d": 160.5187083333367,
      "v": 110
    },
    {
      "midi": 52,
      "hit": false,
      "t": 32868.76700000004,
      "d": 160.5187083333367,
      "v": 110
    },
    {
      "midi": 55,
      "hit": false,
      "t": 32868.76700000004,
      "d": 160.5187083333367,
      "v": 110
    },
    {
      "midi": 84,
      "hit": false,
      "t": 32868.767000000065,
      "d": 54.644666666667035,
      "v": 110
    },
    {
      "midi": 43,
      "hit": false,
      "t": 33032.701000000045,
      "d": 160.5187083333367,
      "v": 110
    },
    {
      "midi": 52,
      "hit": false,
      "t": 33032.701000000045,
      "d": 160.5187083333367,
      "v": 110
    },
    {
      "midi": 55,
      "hit": false,
      "t": 33032.701000000045,
      "d": 160.5187083333367,
      "v": 110
    },
    {
      "midi": 83,
      "hit": false,
      "t": 33032.70100000007,
      "d": 54.644666666667035,
      "v": 110
    },
    {
      "midi": 52,
      "hit": false,
      "t": 33196.635000000046,
      "d": 160.5187083333367,
      "v": 110
    },
    {
      "midi": 55,
      "hit": false,
      "t": 33196.635000000046,
      "d": 160.5187083333367,
      "v": 110
    },
    {
      "midi": 81,
      "hit": false,
      "t": 33196.63500000007,
      "d": 54.644666666667035,
      "v": 110
    },
    {
      "midi": 48,
      "hit": false,
      "t": 33360.56900000005,
      "d": 160.5187083333367,
      "v": 110
    },
    {
      "midi": 52,
      "hit": false,
      "t": 33360.56900000005,
      "d": 160.5187083333367,
      "v": 110
    },
    {
      "midi": 55,
      "hit": false,
      "t": 33360.56900000005,
      "d": 160.5187083333367,
      "v": 110
    },
    {
      "midi": 79,
      "hit": false,
      "t": 33360.56900000007,
      "d": 273.2233333333352,
      "v": 110
    },
    {
      "midi": 52,
      "hit": false,
      "t": 33524.50300000005,
      "d": 160.5187083333367,
      "v": 110
    },
    {
      "midi": 55,
      "hit": false,
      "t": 33524.50300000005,
      "d": 160.5187083333367,
      "v": 110
    },
    {
      "midi": 43,
      "hit": false,
      "t": 33688.43700000005,
      "d": 160.5187083333367,
      "v": 110
    },
    {
      "midi": 52,
      "hit": false,
      "t": 33688.43700000005,
      "d": 160.5187083333367,
      "v": 110
    },
    {
      "midi": 55,
      "hit": false,
      "t": 33688.43700000005,
      "d": 160.5187083333367,
      "v": 110
    },
    {
      "midi": 76,
      "hit": false,
      "t": 33688.43700000007,
      "d": 245.90099999999802,
      "v": 110
    },
    {
      "midi": 52,
      "hit": false,
      "t": 33852.37100000005,
      "d": 160.5187083333367,
      "v": 110
    },
    {
      "midi": 55,
      "hit": false,
      "t": 33852.37100000005,
      "d": 160.5187083333367,
      "v": 110
    },
    {
      "midi": 79,
      "hit": false,
      "t": 33934.33800000007,
      "d": 81.96699999999691,
      "v": 110
    },
    {
      "midi": 50,
      "hit": false,
      "t": 34016.30500000005,
      "d": 160.5187083333367,
      "v": 110
    },
    {
      "midi": 77,
      "hit": false,
      "t": 34016.305000000066,
      "d": 273.2233333333352,
      "v": 110
    },
    {
      "midi": 53,
      "hit": false,
      "t": 34180.23900000005,
      "d": 160.5187083333367,
      "v": 110
    },
    {
      "midi": 57,
      "hit": false,
      "t": 34180.23900000005,
      "d": 160.5187083333367,
      "v": 110
    },
    {
      "midi": 45,
      "hit": false,
      "t": 34344.17300000005,
      "d": 160.5187083333367,
      "v": 110
    },
    {
      "midi": 53,
      "hit": false,
      "t": 34344.17300000005,
      "d": 160.5187083333367,
      "v": 110
    },
    {
      "midi": 57,
      "hit": false,
      "t": 34344.17300000005,
      "d": 160.5187083333367,
      "v": 110
    },
    {
      "midi": 74,
      "hit": false,
      "t": 34344.17300000007,
      "d": 245.90099999999802,
      "v": 110
    },
    {
      "midi": 53,
      "hit": false,
      "t": 34508.107000000055,
      "d": 160.5187083333367,
      "v": 110
    },
    {
      "midi": 57,
      "hit": false,
      "t": 34508.107000000055,
      "d": 160.5187083333367,
      "v": 110
    },
    {
      "midi": 76,
      "hit": false,
      "t": 34590.074000000066,
      "d": 81.96699999999691,
      "v": 110
    },
    {
      "midi": 50,
      "hit": false,
      "t": 34672.041000000056,
      "d": 160.5187083333367,
      "v": 110
    },
    {
      "midi": 74,
      "hit": false,
      "t": 34672.04100000006,
      "d": 273.2233333333352,
      "v": 110
    },
    {
      "midi": 55,
      "hit": false,
      "t": 34835.97500000006,
      "d": 160.5187083333367,
      "v": 110
    },
    {
      "midi": 59,
      "hit": false,
      "t": 34835.97500000006,
      "d": 160.5187083333367,
      "v": 110
    },
    {
      "midi": 47,
      "hit": false,
      "t": 34999.90900000006,
      "d": 160.5187083333367,
      "v": 110
    },
    {
      "midi": 55,
      "hit": false,
      "t": 34999.90900000006,
      "d": 160.5187083333367,
      "v": 110
    },
    {
      "midi": 59,
      "hit": false,
      "t": 34999.90900000006,
      "d": 160.5187083333367,
      "v": 110
    },
    {
      "midi": 76,
      "hit": false,
      "t": 34999.909000000065,
      "d": 245.90099999999802,
      "v": 110
    },
    {
      "midi": 55,
      "hit": false,
      "t": 35163.84300000006,
      "d": 160.5187083333367,
      "v": 110
    },
    {
      "midi": 59,
      "hit": false,
      "t": 35163.84300000006,
      "d": 160.5187083333367,
      "v": 110
    },
    {
      "midi": 74,
      "hit": false,
      "t": 35245.81000000006,
      "d": 81.96699999999691,
      "v": 110
    },
    {
      "midi": 72,
      "hit": false,
      "t": 35327.77700000006,
      "d": 573.7690000000002,
      "v": 110
    },
    {
      "midi": 48,
      "hit": false,
      "t": 35327.77700000006,
      "d": 160.5187083333367,
      "v": 110
    },
    {
      "midi": 52,
      "hit": false,
      "t": 35491.71100000006,
      "d": 160.5187083333367,
      "v": 110
    },
    {
      "midi": 55,
      "hit": false,
      "t": 35491.71100000006,
      "d": 160.5187083333367,
      "v": 110
    },
    {
      "midi": 43,
      "hit": false,
      "t": 35655.64500000006,
      "d": 160.5187083333367,
      "v": 110
    },
    {
      "midi": 52,
      "hit": false,
      "t": 35655.64500000006,
      "d": 160.5187083333367,
      "v": 110
    },
    {
      "midi": 55,
      "hit": false,
      "t": 35655.64500000006,
      "d": 160.5187083333367,
      "v": 110
    },
    {
      "midi": 52,
      "hit": false,
      "t": 35819.57900000006,
      "d": 160.5187083333367,
      "v": 110
    },
    {
      "midi": 55,
      "hit": false,
      "t": 35819.57900000006,
      "d": 160.5187083333367,
      "v": 110
    },
    {
      "midi": 48,
      "hit": false,
      "t": 35983.513000000064,
      "d": 160.5187083333367,
      "v": 110
    },
    {
      "midi": 52,
      "hit": false,
      "t": 35983.513000000064,
      "d": 160.5187083333367,
      "v": 110
    },
    {
      "midi": 55,
      "hit": false,
      "t": 35983.513000000064,
      "d": 160.5187083333367,
      "v": 110
    },
    {
      "midi": 52,
      "hit": false,
      "t": 36147.447000000066,
      "d": 160.5187083333367,
      "v": 110
    },
    {
      "midi": 55,
      "hit": false,
      "t": 36147.447000000066,
      "d": 160.5187083333367,
      "v": 110
    },
    {
      "midi": 67,
      "hit": false,
      "t": 36311.38100000006,
      "d": 242.4857083333336,
      "v": 110
    },
    {
      "midi": 43,
      "hit": false,
      "t": 36311.38100000007,
      "d": 160.5187083333367,
      "v": 110
    },
    {
      "midi": 52,
      "hit": false,
      "t": 36311.38100000007,
      "d": 160.5187083333367,
      "v": 110
    },
    {
      "midi": 55,
      "hit": false,
      "t": 36311.38100000007,
      "d": 160.5187083333367,
      "v": 110
    },
    {
      "midi": 52,
      "hit": false,
      "t": 36475.31500000007,
      "d": 160.5187083333367,
      "v": 110
    },
    {
      "midi": 55,
      "hit": false,
      "t": 36475.31500000007,
      "d": 160.5187083333367,
      "v": 110
    },
    {
      "midi": 67,
      "hit": false,
      "t": 36557.28200000006,
      "d": 81.96699999999691,
      "v": 110
    },
    {
      "midi": 72,
      "hit": false,
      "t": 36639.249000000054,
      "d": 573.7690000000002,
      "v": 110
    },
    {
      "midi": 48,
      "hit": false,
      "t": 36639.24900000007,
      "d": 160.5187083333367,
      "v": 110
    },
    {
      "midi": 52,
      "hit": false,
      "t": 36803.18300000007,
      "d": 160.5187083333367,
      "v": 110
    },
    {
      "midi": 55,
      "hit": false,
      "t": 36803.18300000007,
      "d": 160.5187083333367,
      "v": 110
    },
    {
      "midi": 43,
      "hit": false,
      "t": 36967.11700000007,
      "d": 160.5187083333367,
      "v": 110
    },
    {
      "midi": 52,
      "hit": false,
      "t": 36967.11700000007,
      "d": 160.5187083333367,
      "v": 110
    },
    {
      "midi": 55,
      "hit": false,
      "t": 36967.11700000007,
      "d": 160.5187083333367,
      "v": 110
    },
    {
      "midi": 52,
      "hit": false,
      "t": 37131.05100000007,
      "d": 160.5187083333367,
      "v": 110
    },
    {
      "midi": 55,
      "hit": false,
      "t": 37131.05100000007,
      "d": 160.5187083333367,
      "v": 110
    },
    {
      "midi": 48,
      "hit": false,
      "t": 37294.98500000007,
      "d": 160.5187083333367,
      "v": 110
    },
    {
      "midi": 52,
      "hit": false,
      "t": 37294.98500000007,
      "d": 160.5187083333367,
      "v": 110
    },
    {
      "midi": 55,
      "hit": false,
      "t": 37294.98500000007,
      "d": 160.5187083333367,
      "v": 110
    },
    {
      "midi": 52,
      "hit": false,
      "t": 37458.919000000074,
      "d": 160.5187083333367,
      "v": 110
    },
    {
      "midi": 55,
      "hit": false,
      "t": 37458.919000000074,
      "d": 160.5187083333367,
      "v": 110
    },
    {
      "midi": 72,
      "hit": false,
      "t": 37622.853000000054,
      "d": 245.90099999999802,
      "v": 110
    },
    {
      "midi": 43,
      "hit": false,
      "t": 37622.853000000076,
      "d": 160.5187083333367,
      "v": 110
    },
    {
      "midi": 52,
      "hit": false,
      "t": 37622.853000000076,
      "d": 160.5187083333367,
      "v": 110
    },
    {
      "midi": 55,
      "hit": false,
      "t": 37622.853000000076,
      "d": 160.5187083333367,
      "v": 110
    },
    {
      "midi": 52,
      "hit": false,
      "t": 37786.78700000008,
      "d": 160.5187083333367,
      "v": 110
    },
    {
      "midi": 55,
      "hit": false,
      "t": 37786.78700000008,
      "d": 160.5187083333367,
      "v": 110
    },
    {
      "midi": 76,
      "hit": false,
      "t": 37868.75400000005,
      "d": 81.96699999999691,
      "v": 110
    },
    {
      "midi": 79,
      "hit": false,
      "t": 37950.72100000005,
      "d": 160.5187083333367,
      "v": 110
    },
    {
      "midi": 48,
      "hit": false,
      "t": 37950.72100000008,
      "d": 160.5187083333367,
      "v": 110
    },
    {
      "midi": 84,
      "hit": false,
      "t": 38114.65500000005,
      "d": 54.644666666667035,
      "v": 110
    },
    {
      "midi": 52,
      "hit": false,
      "t": 38114.65500000008,
      "d": 160.5187083333367,
      "v": 110
    },
    {
      "midi": 55,
      "hit": false,
      "t": 38114.65500000008,
      "d": 160.5187083333367,
      "v": 110
    },
    {
      "midi": 83,
      "hit": false,
      "t": 38278.58900000005,
      "d": 54.644666666667035,
      "v": 110
    },
    {
      "midi": 43,
      "hit": false,
      "t": 38278.58900000008,
      "d": 160.5187083333367,
      "v": 110
    },
    {
      "midi": 52,
      "hit": false,
      "t": 38278.58900000008,
      "d": 160.5187083333367,
      "v": 110
    },
    {
      "midi": 55,
      "hit": false,
      "t": 38278.58900000008,
      "d": 160.5187083333367,
      "v": 110
    },
    {
      "midi": 81,
      "hit": false,
      "t": 38442.52300000005,
      "d": 54.644666666667035,
      "v": 110
    },
    {
      "midi": 52,
      "hit": false,
      "t": 38442.52300000008,
      "d": 160.5187083333367,
      "v": 110
    },
    {
      "midi": 55,
      "hit": false,
      "t": 38442.52300000008,
      "d": 160.5187083333367,
      "v": 110
    },
    {
      "midi": 79,
      "hit": false,
      "t": 38606.45700000005,
      "d": 273.2233333333352,
      "v": 110
    },
    {
      "midi": 48,
      "hit": false,
      "t": 38606.45700000008,
      "d": 160.5187083333367,
      "v": 110
    },
    {
      "midi": 52,
      "hit": false,
      "t": 38606.45700000008,
      "d": 160.5187083333367,
      "v": 110
    },
    {
      "midi": 55,
      "hit": false,
      "t": 38606.45700000008,
      "d": 160.5187083333367,
      "v": 110
    },
    {
      "midi": 52,
      "hit": false,
      "t": 38770.39100000008,
      "d": 160.5187083333367,
      "v": 110
    },
    {
      "midi": 55,
      "hit": false,
      "t": 38770.39100000008,
      "d": 160.5187083333367,
      "v": 110
    },
    {
      "midi": 76,
      "hit": false,
      "t": 38934.325000000055,
      "d": 245.90099999999802,
      "v": 110
    },
    {
      "midi": 43,
      "hit": false,
      "t": 38934.325000000084,
      "d": 160.5187083333367,
      "v": 110
    },
    {
      "midi": 52,
      "hit": false,
      "t": 38934.325000000084,
      "d": 160.5187083333367,
      "v": 110
    },
    {
      "midi": 55,
      "hit": false,
      "t": 38934.325000000084,
      "d": 160.5187083333367,
      "v": 110
    },
    {
      "midi": 52,
      "hit": false,
      "t": 39098.259000000086,
      "d": 160.5187083333367,
      "v": 110
    },
    {
      "midi": 55,
      "hit": false,
      "t": 39098.259000000086,
      "d": 160.5187083333367,
      "v": 110
    },
    {
      "midi": 79,
      "hit": false,
      "t": 39180.22600000005,
      "d": 81.96699999999691,
      "v": 110
    },
    {
      "midi": 77,
      "hit": false,
      "t": 39262.19300000005,
      "d": 273.2233333333352,
      "v": 110
    },
    {
      "midi": 50,
      "hit": false,
      "t": 39262.19300000009,
      "d": 160.5187083333367,
      "v": 110
    },
    {
      "midi": 53,
      "hit": false,
      "t": 39426.12700000009,
      "d": 160.5187083333367,
      "v": 110
    },
    {
      "midi": 57,
      "hit": false,
      "t": 39426.12700000009,
      "d": 160.5187083333367,
      "v": 110
    },
    {
      "midi": 74,
      "hit": false,
      "t": 39590.06100000005,
      "d": 245.90099999999802,
      "v": 110
    },
    {
      "midi": 45,
      "hit": false,
      "t": 39590.06100000009,
      "d": 160.5187083333367,
      "v": 110
    },
    {
      "midi": 53,
      "hit": false,
      "t": 39590.06100000009,
      "d": 160.5187083333367,
      "v": 110
    },
    {
      "midi": 57,
      "hit": false,
      "t": 39590.06100000009,
      "d": 160.5187083333367,
      "v": 110
    },
    {
      "midi": 53,
      "hit": false,
      "t": 39753.99500000009,
      "d": 160.5187083333367,
      "v": 110
    },
    {
      "midi": 57,
      "hit": false,
      "t": 39753.99500000009,
      "d": 160.5187083333367,
      "v": 110
    },
    {
      "midi": 76,
      "hit": false,
      "t": 39835.96200000005,
      "d": 81.96699999999691,
      "v": 110
    },
    {
      "midi": 74,
      "hit": false,
      "t": 39917.92900000005,
      "d": 273.2233333333352,
      "v": 110
    },
    {
      "midi": 50,
      "hit": false,
      "t": 39917.92900000009,
      "d": 160.5187083333367,
      "v": 110
    },
    {
      "midi": 52,
      "hit": false,
      "t": 40081.86300000009,
      "d": 160.5187083333367,
      "v": 110
    },
    {
      "midi": 56,
      "hit": false,
      "t": 40081.86300000009,
      "d": 160.5187083333367,
      "v": 110
    },
    {
      "midi": 76,
      "hit": false,
      "t": 40245.79700000005,
      "d": 245.90099999999802,
      "v": 110
    },
    {
      "midi": 47,
      "hit": false,
      "t": 40245.79700000009,
      "d": 160.5187083333367,
      "v": 110
    },
    {
      "midi": 52,
      "hit": false,
      "t": 40245.79700000009,
      "d": 160.5187083333367,
      "v": 110
    },
    {
      "midi": 56,
      "hit": false,
      "t": 40245.79700000009,
      "d": 160.5187083333367,
      "v": 110
    },
    {
      "midi": 52,
      "hit": false,
      "t": 40409.731000000094,
      "d": 160.5187083333367,
      "v": 110
    },
    {
      "midi": 56,
      "hit": false,
      "t": 40409.731000000094,
      "d": 160.5187083333367,
      "v": 110
    },
    {
      "midi": 74,
      "hit": false,
      "t": 40491.69800000005,
      "d": 81.96699999999691,
      "v": 110
    },
    {
      "midi": 72,
      "hit": false,
      "t": 40573.665000000045,
      "d": 1229.5049999999974,
      "v": 110
    },
    {
      "midi": 45,
      "hit": false,
      "t": 40573.665000000095,
      "d": 78.5517083333325,
      "v": 110
    },
    {
      "midi": 48,
      "hit": false,
      "t": 40655.63200000009,
      "d": 78.5517083333325,
      "v": 110
    },
    {
      "midi": 52,
      "hit": false,
      "t": 40737.59900000009,
      "d": 78.5517083333325,
      "v": 110
    },
    {
      "midi": 48,
      "hit": false,
      "t": 40819.566000000086,
      "d": 78.5517083333325,
      "v": 110
    },
    {
      "midi": 52,
      "hit": false,
      "t": 40901.53300000008,
      "d": 78.5517083333325,
      "v": 110
    },
    {
      "midi": 57,
      "hit": false,
      "t": 40901.53300000008,
      "d": 78.5517083333325,
      "v": 110
    },
    {
      "midi": 48,
      "hit": false,
      "t": 40983.50000000008,
      "d": 78.5517083333325,
      "v": 110
    },
    {
      "midi": 52,
      "hit": false,
      "t": 41065.46700000008,
      "d": 78.5517083333325,
      "v": 110
    },
    {
      "midi": 48,
      "hit": false,
      "t": 41147.434000000074,
      "d": 78.5517083333325,
      "v": 110
    },
    {
      "midi": 43,
      "hit": false,
      "t": 41229.40100000007,
      "d": 78.5517083333325,
      "v": 110
    },
    {
      "midi": 55,
      "hit": false,
      "t": 41229.40100000007,
      "d": 78.5517083333325,
      "v": 110
    },
    {
      "midi": 48,
      "hit": false,
      "t": 41311.36800000007,
      "d": 78.5517083333325,
      "v": 110
    },
    {
      "midi": 52,
      "hit": false,
      "t": 41393.335000000065,
      "d": 78.5517083333325,
      "v": 110
    },
    {
      "midi": 48,
      "hit": false,
      "t": 41475.30200000006,
      "d": 78.5517083333325,
      "v": 110
    },
    {
      "midi": 43,
      "hit": false,
      "t": 41557.26900000006,
      "d": 78.5517083333325,
      "v": 110
    },
    {
      "midi": 52,
      "hit": false,
      "t": 41557.26900000006,
      "d": 78.5517083333325,
      "v": 110
    },
    {
      "midi": 48,
      "hit": false,
      "t": 41639.236000000055,
      "d": 78.5517083333325,
      "v": 110
    },
    {
      "midi": 52,
      "hit": false,
      "t": 41721.20300000005,
      "d": 78.5517083333325,
      "v": 110
    },
    {
      "midi": 48,
      "hit": false,
      "t": 41803.17000000005,
      "d": 78.5517083333325,
      "v": 110
    },
    {
      "midi": 72,
      "hit": false,
      "t": 41885.13700000004,
      "d": 242.4857083333336,
      "v": 110
    },
    {
      "midi": 53,
      "hit": false,
      "t": 41885.137000000046,
      "d": 242.4857083333336,
      "v": 110
    },
    {
      "midi": 57,
      "hit": false,
      "t": 41885.137000000046,
      "d": 242.4857083333336,
      "v": 110
    },
    {
      "midi": 72,
      "hit": false,
      "t": 42131.03800000004,
      "d": 78.5517083333325,
      "v": 110
    },
    {
      "midi": 53,
      "hit": false,
      "t": 42131.038000000044,
      "d": 78.5517083333325,
      "v": 110
    },
    {
      "midi": 57,
      "hit": false,
      "t": 42131.038000000044,
      "d": 78.5517083333325,
      "v": 110
    },
    {
      "midi": 74,
      "hit": false,
      "t": 42213.005000000034,
      "d": 160.5187083333367,
      "v": 110
    },
    {
      "midi": 76,
      "hit": false,
      "t": 42376.939000000035,
      "d": 160.5187083333367,
      "v": 110
    },
    {
      "midi": 55,
      "hit": false,
      "t": 42540.87300000004,
      "d": 160.5187083333367,
      "v": 110
    },
    {
      "midi": 59,
      "hit": false,
      "t": 42540.87300000004,
      "d": 160.5187083333367,
      "v": 110
    },
    {
      "midi": 72,
      "hit": false,
      "t": 42704.80700000004,
      "d": 160.5187083333367,
      "v": 110
    },
    {
      "midi": 55,
      "hit": false,
      "t": 42704.807000000044,
      "d": 160.5187083333367,
      "v": 110
    },
    {
      "midi": 59,
      "hit": false,
      "t": 42704.807000000044,
      "d": 160.5187083333367,
      "v": 110
    },
    {
      "midi": 74,
      "hit": false,
      "t": 42868.74100000004,
      "d": 160.5187083333367,
      "v": 110
    },
    {
      "midi": 72,
      "hit": false,
      "t": 43032.67500000004,
      "d": 160.5187083333367,
      "v": 110
    },
    {
      "midi": 48,
      "hit": false,
      "t": 43196.60900000005,
      "d": 160.5187083333367,
      "v": 110
    },
    {
      "midi": 52,
      "hit": false,
      "t": 43360.54300000005,
      "d": 160.5187083333367,
      "v": 110
    },
    {
      "midi": 55,
      "hit": false,
      "t": 43360.54300000005,
      "d": 160.5187083333367,
      "v": 110
    },
    {
      "midi": 43,
      "hit": false,
      "t": 43524.47700000005,
      "d": 160.5187083333367,
      "v": 110
    },
    {
      "midi": 52,
      "hit": false,
      "t": 43524.47700000005,
      "d": 160.5187083333367,
      "v": 110
    },
    {
      "midi": 55,
      "hit": false,
      "t": 43524.47700000005,
      "d": 160.5187083333367,
      "v": 110
    },
    {
      "midi": 52,
      "hit": false,
      "t": 43688.41100000005,
      "d": 160.5187083333367,
      "v": 110
    },
    {
      "midi": 55,
      "hit": false,
      "t": 43688.41100000005,
      "d": 160.5187083333367,
      "v": 110
    },
    {
      "midi": 48,
      "hit": false,
      "t": 43852.34500000005,
      "d": 160.5187083333367,
      "v": 110
    },
    {
      "midi": 52,
      "hit": false,
      "t": 43852.34500000005,
      "d": 160.5187083333367,
      "v": 110
    },
    {
      "midi": 55,
      "hit": false,
      "t": 43852.34500000005,
      "d": 160.5187083333367,
      "v": 110
    },
    {
      "midi": 52,
      "hit": false,
      "t": 44016.27900000005,
      "d": 160.5187083333367,
      "v": 110
    },
    {
      "midi": 55,
      "hit": false,
      "t": 44016.27900000005,
      "d": 160.5187083333367,
      "v": 110
    },
    {
      "midi": 43,
      "hit": false,
      "t": 44180.213000000054,
      "d": 160.5187083333367,
      "v": 110
    },
    {
      "midi": 52,
      "hit": false,
      "t": 44180.213000000054,
      "d": 160.5187083333367,
      "v": 110
    },
    {
      "midi": 55,
      "hit": false,
      "t": 44180.213000000054,
      "d": 160.5187083333367,
      "v": 110
    },
    {
      "midi": 52,
      "hit": false,
      "t": 44344.147000000055,
      "d": 160.5187083333367,
      "v": 110
    },
    {
      "midi": 55,
      "hit": false,
      "t": 44344.147000000055,
      "d": 160.5187083333367,
      "v": 110
    },
    {
      "midi": 48,
      "hit": false,
      "t": 44508.08100000006,
      "d": 160.5187083333367,
      "v": 110
    },
    {
      "midi": 52,
      "hit": false,
      "t": 44672.01500000006,
      "d": 160.5187083333367,
      "v": 110
    },
    {
      "midi": 55,
      "hit": false,
      "t": 44672.01500000006,
      "d": 160.5187083333367,
      "v": 110
    },
    {
      "midi": 43,
      "hit": false,
      "t": 44835.94900000006,
      "d": 160.5187083333367,
      "v": 110
    },
    {
      "midi": 52,
      "hit": false,
      "t": 44835.94900000006,
      "d": 160.5187083333367,
      "v": 110
    },
    {
      "midi": 55,
      "hit": false,
      "t": 44835.94900000006,
      "d": 160.5187083333367,
      "v": 110
    },
    {
      "midi": 52,
      "hit": false,
      "t": 44999.88300000006,
      "d": 160.5187083333367,
      "v": 110
    },
    {
      "midi": 55,
      "hit": false,
      "t": 44999.88300000006,
      "d": 160.5187083333367,
      "v": 110
    },
    {
      "midi": 48,
      "hit": false,
      "t": 45163.81700000006,
      "d": 160.5187083333367,
      "v": 110
    },
    {
      "midi": 52,
      "hit": false,
      "t": 45163.81700000006,
      "d": 160.5187083333367,
      "v": 110
    },
    {
      "midi": 55,
      "hit": false,
      "t": 45163.81700000006,
      "d": 160.5187083333367,
      "v": 110
    },
    {
      "midi": 52,
      "hit": false,
      "t": 45327.75100000006,
      "d": 160.5187083333367,
      "v": 110
    },
    {
      "midi": 55,
      "hit": false,
      "t": 45327.75100000006,
      "d": 160.5187083333367,
      "v": 110
    },
    {
      "midi": 72,
      "hit": false,
      "t": 45491.68500000004,
      "d": 245.90099999999802,
      "v": 110
    },
    {
      "midi": 43,
      "hit": false,
      "t": 45491.68500000006,
      "d": 160.5187083333367,
      "v": 110
    },
    {
      "midi": 52,
      "hit": false,
      "t": 45491.68500000006,
      "d": 160.5187083333367,
      "v": 110
    },
    {
      "midi": 55,
      "hit": false,
      "t": 45491.68500000006,
      "d": 160.5187083333367,
      "v": 110
    },
    {
      "midi": 52,
      "hit": false,
      "t": 45655.619000000064,
      "d": 160.5187083333367,
      "v": 110
    },
    {
      "midi": 55,
      "hit": false,
      "t": 45655.619000000064,
      "d": 160.5187083333367,
      "v": 110
    },
    {
      "midi": 74,
      "hit": false,
      "t": 45737.58600000004,
      "d": 81.96699999999691,
      "v": 110
    },
    {
      "midi": 72,
      "hit": false,
      "t": 45819.553000000036,
      "d": 273.2233333333352,
      "v": 110
    },
    {
      "midi": 75,
      "hit": false,
      "t": 45819.553000000036,
      "d": 273.2233333333352,
      "v": 110
    },
    {
      "midi": 41,
      "hit": false,
      "t": 45819.553000000065,
      "d": 78.5517083333325,
      "v": 110
    },
    {
      "midi": 53,
      "hit": false,
      "t": 45819.553000000065,
      "d": 78.5517083333325,
      "v": 110
    },
    {
      "midi": 48,
      "hit": false,
      "t": 45901.52000000006,
      "d": 78.5517083333325,
      "v": 110
    },
    {
      "midi": 56,
      "hit": false,
      "t": 45983.48700000006,
      "d": 78.5517083333325,
      "v": 110
    },
    {
      "midi": 48,
      "hit": false,
      "t": 46065.454000000056,
      "d": 78.5517083333325,
      "v": 110
    },
    {
      "midi": 70,
      "hit": false,
      "t": 46147.42100000004,
      "d": 245.90099999999802,
      "v": 110
    },
    {
      "midi": 74,
      "hit": false,
      "t": 46147.42100000004,
      "d": 245.90099999999802,
      "v": 110
    },
    {
      "midi": 56,
      "hit": false,
      "t": 46147.42100000005,
      "d": 78.5517083333325,
      "v": 110
    },
    {
      "midi": 60,
      "hit": false,
      "t": 46147.42100000005,
      "d": 78.5517083333325,
      "v": 110
    },
    {
      "midi": 48,
      "hit": false,
      "t": 46229.38800000005,
      "d": 78.5517083333325,
      "v": 110
    },
    {
      "midi": 56,
      "hit": false,
      "t": 46311.35500000005,
      "d": 78.5517083333325,
      "v": 110
    },
    {
      "midi": 72,
      "hit": false,
      "t": 46393.32200000004,
      "d": 81.96699999999691,
      "v": 110
    },
    {
      "midi": 75,
      "hit": false,
      "t": 46393.32200000004,
      "d": 81.96699999999691,
      "v": 110
    },
    {
      "midi": 48,
      "hit": false,
      "t": 46393.322000000044,
      "d": 78.5517083333325,
      "v": 110
    },
    {
      "midi": 74,
      "hit": false,
      "t": 46475.28900000003,
      "d": 273.2233333333352,
      "v": 110
    },
    {
      "midi": 77,
      "hit": false,
      "t": 46475.28900000003,
      "d": 273.2233333333352,
      "v": 110
    },
    {
      "midi": 46,
      "hit": false,
      "t": 46475.28900000004,
      "d": 78.5517083333325,
      "v": 110
    },
    {
      "midi": 58,
      "hit": false,
      "t": 46475.28900000004,
      "d": 78.5517083333325,
      "v": 110
    },
    {
      "midi": 53,
      "hit": false,
      "t": 46557.25600000004,
      "d": 78.5517083333325,
      "v": 110
    },
    {
      "midi": 58,
      "hit": false,
      "t": 46639.223000000035,
      "d": 78.5517083333325,
      "v": 110
    },
    {
      "midi": 53,
      "hit": false,
      "t": 46721.19000000003,
      "d": 78.5517083333325,
      "v": 110
    },
    {
      "midi": 53,
      "hit": false,
      "t": 46803.15700000003,
      "d": 78.5517083333325,
      "v": 110
    },
    {
      "midi": 58,
      "hit": false,
      "t": 46803.15700000003,
      "d": 78.5517083333325,
      "v": 110
    },
    {
      "midi": 70,
      "hit": false,
      "t": 46803.157000000036,
      "d": 245.90099999999802,
      "v": 110
    },
    {
      "midi": 75,
      "hit": false,
      "t": 46803.157000000036,
      "d": 245.90099999999802,
      "v": 110
    },
    {
      "midi": 53,
      "hit": false,
      "t": 46885.124000000025,
      "d": 78.5517083333325,
      "v": 110
    },
    {
      "midi": 58,
      "hit": false,
      "t": 46967.09100000002,
      "d": 78.5517083333325,
      "v": 110
    },
    {
      "midi": 53,
      "hit": false,
      "t": 47049.05800000002,
      "d": 78.5517083333325,
      "v": 110
    },
    {
      "midi": 74,
      "hit": false,
      "t": 47049.058000000034,
      "d": 81.96699999999691,
      "v": 110
    },
    {
      "midi": 77,
      "hit": false,
      "t": 47049.058000000034,
      "d": 81.96699999999691,
      "v": 110
    },
    {
      "midi": 39,
      "hit": false,
      "t": 47131.025000000016,
      "d": 78.5517083333325,
      "v": 110
    },
    {
      "midi": 51,
      "hit": false,
      "t": 47131.025000000016,
      "d": 78.5517083333325,
      "v": 110
    },
    {
      "midi": 75,
      "hit": false,
      "t": 47131.02500000003,
      "d": 273.2233333333352,
      "v": 110
    },
    {
      "midi": 79,
      "hit": false,
      "t": 47131.02500000003,
      "d": 273.2233333333352,
      "v": 110
    },
    {
      "midi": 46,
      "hit": false,
      "t": 47212.99200000001,
      "d": 78.5517083333325,
      "v": 110
    },
    {
      "midi": 51,
      "hit": false,
      "t": 47294.95900000001,
      "d": 78.5517083333325,
      "v": 110
    },
    {
      "midi": 46,
      "hit": false,
      "t": 47376.92600000001,
      "d": 78.5517083333325,
      "v": 110
    },
    {
      "midi": 55,
      "hit": false,
      "t": 47458.893000000004,
      "d": 78.5517083333325,
      "v": 110
    },
    {
      "midi": 58,
      "hit": false,
      "t": 47458.893000000004,
      "d": 78.5517083333325,
      "v": 110
    },
    {
      "midi": 74,
      "hit": false,
      "t": 47458.89300000003,
      "d": 245.90099999999802,
      "v": 110
    },
    {
      "midi": 77,
      "hit": false,
      "t": 47458.89300000003,
      "d": 245.90099999999802,
      "v": 110
    },
    {
      "midi": 46,
      "hit": false,
      "t": 47540.86,
      "d": 78.5517083333325,
      "v": 110
    },
    {
      "midi": 51,
      "hit": false,
      "t": 47622.827,
      "d": 78.5517083333325,
      "v": 110
    },
    {
      "midi": 46,
      "hit": false,
      "t": 47704.793999999994,
      "d": 78.5517083333325,
      "v": 110
    },
    {
      "midi": 75,
      "hit": false,
      "t": 47704.79400000003,
      "d": 81.96699999999691,
      "v": 110
    },
    {
      "midi": 79,
      "hit": false,
      "t": 47704.79400000003,
      "d": 81.96699999999691,
      "v": 110
    },
    {
      "midi": 44,
      "hit": false,
      "t": 47786.76099999999,
      "d": 78.5517083333325,
      "v": 110
    },
    {
      "midi": 56,
      "hit": false,
      "t": 47786.76099999999,
      "d": 78.5517083333325,
      "v": 110
    },
    {
      "midi": 70,
      "hit": false,
      "t": 47786.76100000003,
      "d": 273.2233333333352,
      "v": 110
    },
    {
      "midi": 72,
      "hit": false,
      "t": 47786.76100000003,
      "d": 273.2233333333352,
      "v": 110
    },
    {
      "midi": 51,
      "hit": false,
      "t": 47868.72799999999,
      "d": 78.5517083333325,
      "v": 110
    },
    {
      "midi": 56,
      "hit": false,
      "t": 47950.694999999985,
      "d": 78.5517083333325,
      "v": 110
    },
    {
      "midi": 51,
      "hit": false,
      "t": 48032.66199999998,
      "d": 78.5517083333325,
      "v": 110
    },
    {
      "midi": 44,
      "hit": false,
      "t": 48114.62899999998,
      "d": 78.5517083333325,
      "v": 110
    },
    {
      "midi": 63,
      "hit": false,
      "t": 48114.62900000003,
      "d": 245.90099999999802,
      "v": 110
    },
    {
      "midi": 68,
      "hit": false,
      "t": 48114.62900000003,
      "d": 245.90099999999802,
      "v": 110
    },
    {
      "midi": 72,
      "hit": false,
      "t": 48114.62900000003,
      "d": 245.90099999999802,
      "v": 110
    },
    {
      "midi": 51,
      "hit": false,
      "t": 48196.595999999976,
      "d": 78.5517083333325,
      "v": 110
    },
    {
      "midi": 56,
      "hit": false,
      "t": 48278.56299999997,
      "d": 78.5517083333325,
      "v": 110
    },
    {
      "midi": 51,
      "hit": false,
      "t": 48360.52999999997,
      "d": 78.5517083333325,
      "v": 110
    },
    {
      "midi": 70,
      "hit": false,
      "t": 48360.53000000003,
      "d": 81.96699999999691,
      "v": 110
    },
    {
      "midi": 74,
      "hit": false,
      "t": 48360.53000000003,
      "d": 81.96699999999691,
      "v": 110
    },
    {
      "midi": 41,
      "hit": false,
      "t": 48442.49699999997,
      "d": 78.5517083333325,
      "v": 110
    },
    {
      "midi": 53,
      "hit": false,
      "t": 48442.49699999997,
      "d": 78.5517083333325,
      "v": 110
    },
    {
      "midi": 72,
      "hit": false,
      "t": 48442.497000000025,
      "d": 273.2233333333352,
      "v": 110
    },
    {
      "midi": 75,
      "hit": false,
      "t": 48442.497000000025,
      "d": 273.2233333333352,
      "v": 110
    },
    {
      "midi": 48,
      "hit": false,
      "t": 48524.46399999996,
      "d": 78.5517083333325,
      "v": 110
    },
    {
      "midi": 56,
      "hit": false,
      "t": 48606.43099999996,
      "d": 78.5517083333325,
      "v": 110
    },
    {
      "midi": 48,
      "hit": false,
      "t": 48688.39799999996,
      "d": 78.5517083333325,
      "v": 110
    },
    {
      "midi": 56,
      "hit": false,
      "t": 48770.364999999954,
      "d": 78.5517083333325,
      "v": 110
    },
    {
      "midi": 60,
      "hit": false,
      "t": 48770.364999999954,
      "d": 78.5517083333325,
      "v": 110
    },
    {
      "midi": 70,
      "hit": false,
      "t": 48770.36500000003,
      "d": 245.90099999999802,
      "v": 110
    },
    {
      "midi": 74,
      "hit": false,
      "t": 48770.36500000003,
      "d": 245.90099999999802,
      "v": 110
    },
    {
      "midi": 48,
      "hit": false,
      "t": 48852.33199999995,
      "d": 78.5517083333325,
      "v": 110
    },
    {
      "midi": 56,
      "hit": false,
      "t": 48934.29899999995,
      "d": 78.5517083333325,
      "v": 110
    },
    {
      "midi": 48,
      "hit": false,
      "t": 49016.265999999945,
      "d": 78.5517083333325,
      "v": 110
    },
    {
      "midi": 72,
      "hit": false,
      "t": 49016.266000000025,
      "d": 81.96699999999691,
      "v": 110
    },
    {
      "midi": 75,
      "hit": false,
      "t": 49016.266000000025,
      "d": 81.96699999999691,
      "v": 110
    },
    {
      "midi": 46,
      "hit": false,
      "t": 49098.23299999994,
      "d": 78.5517083333325,
      "v": 110
    },
    {
      "midi": 58,
      "hit": false,
      "t": 49098.23299999994,
      "d": 78.5517083333325,
      "v": 110
    },
    {
      "midi": 74,
      "hit": false,
      "t": 49098.23300000002,
      "d": 273.2233333333352,
      "v": 110
    },
    {
      "midi": 77,
      "hit": false,
      "t": 49098.23300000002,
      "d": 273.2233333333352,
      "v": 110
    },
    {
      "midi": 53,
      "hit": false,
      "t": 49180.19999999994,
      "d": 78.5517083333325,
      "v": 110
    },
    {
      "midi": 58,
      "hit": false,
      "t": 49262.166999999936,
      "d": 78.5517083333325,
      "v": 110
    },
    {
      "midi": 53,
      "hit": false,
      "t": 49344.13399999993,
      "d": 78.5517083333325,
      "v": 110
    },
    {
      "midi": 53,
      "hit": false,
      "t": 49426.10099999993,
      "d": 78.5517083333325,
      "v": 110
    },
    {
      "midi": 58,
      "hit": false,
      "t": 49426.10099999993,
      "d": 78.5517083333325,
      "v": 110
    },
    {
      "midi": 72,
      "hit": false,
      "t": 49426.101000000024,
      "d": 245.90099999999802,
      "v": 110
    },
    {
      "midi": 75,
      "hit": false,
      "t": 49426.101000000024,
      "d": 245.90099999999802,
      "v": 110
    },
    {
      "midi": 53,
      "hit": false,
      "t": 49508.06799999993,
      "d": 78.5517083333325,
      "v": 110
    },
    {
      "midi": 58,
      "hit": false,
      "t": 49590.03499999992,
      "d": 78.5517083333325,
      "v": 110
    },
    {
      "midi": 53,
      "hit": false,
      "t": 49672.00199999992,
      "d": 78.5517083333325,
      "v": 110
    },
    {
      "midi": 74,
      "hit": false,
      "t": 49672.00200000002,
      "d": 81.96699999999691,
      "v": 110
    },
    {
      "midi": 77,
      "hit": false,
      "t": 49672.00200000002,
      "d": 81.96699999999691,
      "v": 110
    },
    {
      "midi": 39,
      "hit": false,
      "t": 49753.96899999992,
      "d": 78.5517083333325,
      "v": 110
    },
    {
      "midi": 51,
      "hit": false,
      "t": 49753.96899999992,
      "d": 78.5517083333325,
      "v": 110
    },
    {
      "midi": 75,
      "hit": false,
      "t": 49753.96900000002,
      "d": 273.2233333333352,
      "v": 110
    },
    {
      "midi": 79,
      "hit": false,
      "t": 49753.96900000002,
      "d": 273.2233333333352,
      "v": 110
    },
    {
      "midi": 46,
      "hit": false,
      "t": 49835.935999999914,
      "d": 78.5517083333325,
      "v": 110
    },
    {
      "midi": 51,
      "hit": false,
      "t": 49917.90299999991,
      "d": 78.5517083333325,
      "v": 110
    },
    {
      "midi": 46,
      "hit": false,
      "t": 49999.86999999991,
      "d": 78.5517083333325,
      "v": 110
    },
    {
      "midi": 55,
      "hit": false,
      "t": 50081.836999999905,
      "d": 78.5517083333325,
      "v": 110
    },
    {
      "midi": 58,
      "hit": false,
      "t": 50081.836999999905,
      "d": 78.5517083333325,
      "v": 110
    },
    {
      "midi": 46,
      "hit": false,
      "t": 50163.8039999999,
      "d": 78.5517083333325,
      "v": 110
    },
    {
      "midi": 51,
      "hit": false,
      "t": 50245.7709999999,
      "d": 78.5517083333325,
      "v": 110
    },
    {
      "midi": 46,
      "hit": false,
      "t": 50327.737999999896,
      "d": 78.5517083333325,
      "v": 110
    },
    {
      "midi": 44,
      "hit": false,
      "t": 50409.70499999989,
      "d": 78.5517083333325,
      "v": 110
    },
    {
      "midi": 56,
      "hit": false,
      "t": 50409.70499999989,
      "d": 78.5517083333325,
      "v": 110
    },
    {
      "midi": 79,
      "hit": false,
      "t": 50409.70500000002,
      "d": 273.2233333333352,
      "v": 110
    },
    {
      "midi": 84,
      "hit": false,
      "t": 50409.70500000002,
      "d": 273.2233333333352,
      "v": 110
    },
    {
      "midi": 51,
      "hit": false,
      "t": 50491.67199999989,
      "d": 78.5517083333325,
      "v": 110
    },
    {
      "midi": 60,
      "hit": false,
      "t": 50573.63899999989,
      "d": 78.5517083333325,
      "v": 110
    },
    {
      "midi": 51,
      "hit": false,
      "t": 50655.60599999988,
      "d": 78.5517083333325,
      "v": 110
    },
    {
      "midi": 44,
      "hit": false,
      "t": 50737.57299999988,
      "d": 78.5517083333325,
      "v": 110
    },
    {
      "midi": 63,
      "hit": false,
      "t": 50737.573000000026,
      "d": 245.90099999999802,
      "v": 110
    },
    {
      "midi": 72,
      "hit": false,
      "t": 50737.573000000026,
      "d": 245.90099999999802,
      "v": 110
    },
    {
      "midi": 51,
      "hit": false,
      "t": 50819.53999999988,
      "d": 78.5517083333325,
      "v": 110
    },
    {
      "midi": 56,
      "hit": false,
      "t": 50901.506999999874,
      "d": 78.5517083333325,
      "v": 110
    },
    {
      "midi": 51,
      "hit": false,
      "t": 50983.47399999987,
      "d": 78.5517083333325,
      "v": 110
    },
    {
      "midi": 74,
      "hit": false,
      "t": 50983.474000000024,
      "d": 81.96699999999691,
      "v": 110
    },
    {
      "midi": 41,
      "hit": false,
      "t": 51065.44099999987,
      "d": 78.5517083333325,
      "v": 110
    },
    {
      "midi": 53,
      "hit": false,
      "t": 51065.44099999987,
      "d": 78.5517083333325,
      "v": 110
    },
    {
      "midi": 72,
      "hit": false,
      "t": 51065.44100000002,
      "d": 273.2233333333352,
      "v": 110
    },
    {
      "midi": 75,
      "hit": false,
      "t": 51065.44100000002,
      "d": 273.2233333333352,
      "v": 110
    },
    {
      "midi": 48,
      "hit": false,
      "t": 51147.407999999865,
      "d": 78.5517083333325,
      "v": 110
    },
    {
      "midi": 56,
      "hit": false,
      "t": 51229.37499999986,
      "d": 78.5517083333325,
      "v": 110
    },
    {
      "midi": 48,
      "hit": false,
      "t": 51311.34199999986,
      "d": 78.5517083333325,
      "v": 110
    },
    {
      "midi": 56,
      "hit": false,
      "t": 51393.308999999856,
      "d": 78.5517083333325,
      "v": 110
    },
    {
      "midi": 60,
      "hit": false,
      "t": 51393.308999999856,
      "d": 78.5517083333325,
      "v": 110
    },
    {
      "midi": 70,
      "hit": false,
      "t": 51393.30900000002,
      "d": 245.90099999999802,
      "v": 110
    },
    {
      "midi": 74,
      "hit": false,
      "t": 51393.30900000002,
      "d": 245.90099999999802,
      "v": 110
    },
    {
      "midi": 48,
      "hit": false,
      "t": 51475.27599999985,
      "d": 78.5517083333325,
      "v": 110
    },
    {
      "midi": 56,
      "hit": false,
      "t": 51557.24299999985,
      "d": 78.5517083333325,
      "v": 110
    },
    {
      "midi": 48,
      "hit": false,
      "t": 51639.209999999846,
      "d": 78.5517083333325,
      "v": 110
    },
    {
      "midi": 72,
      "hit": false,
      "t": 51639.21000000002,
      "d": 81.96699999999691,
      "v": 110
    },
    {
      "midi": 75,
      "hit": false,
      "t": 51639.21000000002,
      "d": 81.96699999999691,
      "v": 110
    },
    {
      "midi": 46,
      "hit": false,
      "t": 51721.17699999984,
      "d": 78.5517083333325,
      "v": 110
    },
    {
      "midi": 58,
      "hit": false,
      "t": 51721.17699999984,
      "d": 78.5517083333325,
      "v": 110
    },
    {
      "midi": 74,
      "hit": false,
      "t": 51721.17700000002,
      "d": 273.2233333333352,
      "v": 110
    },
    {
      "midi": 77,
      "hit": false,
      "t": 51721.17700000002,
      "d": 273.2233333333352,
      "v": 110
    },
    {
      "midi": 53,
      "hit": false,
      "t": 51803.14399999984,
      "d": 78.5517083333325,
      "v": 110
    },
    {
      "midi": 58,
      "hit": false,
      "t": 51885.11099999984,
      "d": 78.5517083333325,
      "v": 110
    },
    {
      "midi": 53,
      "hit": false,
      "t": 51967.077999999834,
      "d": 78.5517083333325,
      "v": 110
    },
    {
      "midi": 53,
      "hit": false,
      "t": 52049.04499999983,
      "d": 78.5517083333325,
      "v": 110
    },
    {
      "midi": 58,
      "hit": false,
      "t": 52049.04499999983,
      "d": 78.5517083333325,
      "v": 110
    },
    {
      "midi": 70,
      "hit": false,
      "t": 52049.04500000002,
      "d": 245.90099999999802,
      "v": 110
    },
    {
      "midi": 75,
      "hit": false,
      "t": 52049.04500000002,
      "d": 245.90099999999802,
      "v": 110
    },
    {
      "midi": 53,
      "hit": false,
      "t": 52131.01199999983,
      "d": 78.5517083333325,
      "v": 110
    },
    {
      "midi": 58,
      "hit": false,
      "t": 52212.978999999825,
      "d": 78.5517083333325,
      "v": 110
    },
    {
      "midi": 53,
      "hit": false,
      "t": 52294.94599999982,
      "d": 78.5517083333325,
      "v": 110
    },
    {
      "midi": 74,
      "hit": false,
      "t": 52294.94600000002,
      "d": 81.96699999999691,
      "v": 110
    },
    {
      "midi": 77,
      "hit": false,
      "t": 52294.94600000002,
      "d": 81.96699999999691,
      "v": 110
    },
    {
      "midi": 39,
      "hit": false,
      "t": 52376.91299999982,
      "d": 78.5517083333325,
      "v": 110
    },
    {
      "midi": 51,
      "hit": false,
      "t": 52376.91299999982,
      "d": 78.5517083333325,
      "v": 110
    },
    {
      "midi": 75,
      "hit": false,
      "t": 52376.913000000015,
      "d": 273.2233333333352,
      "v": 110
    },
    {
      "midi": 79,
      "hit": false,
      "t": 52376.913000000015,
      "d": 273.2233333333352,
      "v": 110
    },
    {
      "midi": 46,
      "hit": false,
      "t": 52458.879999999815,
      "d": 78.5517083333325,
      "v": 110
    },
    {
      "midi": 51,
      "hit": false,
      "t": 52540.84699999981,
      "d": 78.5517083333325,
      "v": 110
    },
    {
      "midi": 46,
      "hit": false,
      "t": 52622.81399999981,
      "d": 78.5517083333325,
      "v": 110
    },
    {
      "midi": 55,
      "hit": false,
      "t": 52704.780999999806,
      "d": 78.5517083333325,
      "v": 110
    },
    {
      "midi": 58,
      "hit": false,
      "t": 52704.780999999806,
      "d": 78.5517083333325,
      "v": 110
    },
    {
      "midi": 74,
      "hit": false,
      "t": 52704.78100000002,
      "d": 245.90099999999802,
      "v": 110
    },
    {
      "midi": 77,
      "hit": false,
      "t": 52704.78100000002,
      "d": 245.90099999999802,
      "v": 110
    },
    {
      "midi": 46,
      "hit": false,
      "t": 52786.7479999998,
      "d": 78.5517083333325,
      "v": 110
    },
    {
      "midi": 51,
      "hit": false,
      "t": 52868.7149999998,
      "d": 78.5517083333325,
      "v": 110
    },
    {
      "midi": 46,
      "hit": false,
      "t": 52950.6819999998,
      "d": 78.5517083333325,
      "v": 110
    },
    {
      "midi": 75,
      "hit": false,
      "t": 52950.682000000015,
      "d": 81.96699999999691,
      "v": 110
    },
    {
      "midi": 79,
      "hit": false,
      "t": 52950.682000000015,
      "d": 81.96699999999691,
      "v": 110
    },
    {
      "midi": 44,
      "hit": false,
      "t": 53032.648999999794,
      "d": 78.5517083333325,
      "v": 110
    },
    {
      "midi": 56,
      "hit": false,
      "t": 53032.648999999794,
      "d": 78.5517083333325,
      "v": 110
    },
    {
      "midi": 70,
      "hit": false,
      "t": 53032.64900000001,
      "d": 273.2233333333352,
      "v": 110
    },
    {
      "midi": 72,
      "hit": false,
      "t": 53032.64900000001,
      "d": 273.2233333333352,
      "v": 110
    },
    {
      "midi": 51,
      "hit": false,
      "t": 53114.61599999979,
      "d": 78.5517083333325,
      "v": 110
    },
    {
      "midi": 56,
      "hit": false,
      "t": 53196.58299999979,
      "d": 78.5517083333325,
      "v": 110
    },
    {
      "midi": 51,
      "hit": false,
      "t": 53278.549999999785,
      "d": 78.5517083333325,
      "v": 110
    },
    {
      "midi": 44,
      "hit": false,
      "t": 53360.51699999978,
      "d": 78.5517083333325,
      "v": 110
    },
    {
      "midi": 63,
      "hit": false,
      "t": 53360.517000000014,
      "d": 245.90099999999802,
      "v": 110
    },
    {
      "midi": 68,
      "hit": false,
      "t": 53360.517000000014,
      "d": 245.90099999999802,
      "v": 110
    },
    {
      "midi": 72,
      "hit": false,
      "t": 53360.517000000014,
      "d": 245.90099999999802,
      "v": 110
    },
    {
      "midi": 51,
      "hit": false,
      "t": 53442.48399999978,
      "d": 78.5517083333325,
      "v": 110
    },
    {
      "midi": 56,
      "hit": false,
      "t": 53524.450999999775,
      "d": 78.5517083333325,
      "v": 110
    },
    {
      "midi": 51,
      "hit": false,
      "t": 53606.41799999977,
      "d": 78.5517083333325,
      "v": 110
    },
    {
      "midi": 70,
      "hit": false,
      "t": 53606.41800000001,
      "d": 81.96699999999691,
      "v": 110
    },
    {
      "midi": 74,
      "hit": false,
      "t": 53606.41800000001,
      "d": 81.96699999999691,
      "v": 110
    },
    {
      "midi": 41,
      "hit": false,
      "t": 53688.38499999977,
      "d": 78.5517083333325,
      "v": 110
    },
    {
      "midi": 53,
      "hit": false,
      "t": 53688.38499999977,
      "d": 78.5517083333325,
      "v": 110
    },
    {
      "midi": 72,
      "hit": false,
      "t": 53688.38500000001,
      "d": 273.2233333333352,
      "v": 110
    },
    {
      "midi": 75,
      "hit": false,
      "t": 53688.38500000001,
      "d": 273.2233333333352,
      "v": 110
    },
    {
      "midi": 48,
      "hit": false,
      "t": 53770.351999999766,
      "d": 78.5517083333325,
      "v": 110
    },
    {
      "midi": 56,
      "hit": false,
      "t": 53852.31899999976,
      "d": 78.5517083333325,
      "v": 110
    },
    {
      "midi": 48,
      "hit": false,
      "t": 53934.28599999976,
      "d": 78.5517083333325,
      "v": 110
    },
    {
      "midi": 56,
      "hit": false,
      "t": 54016.25299999976,
      "d": 78.5517083333325,
      "v": 110
    },
    {
      "midi": 60,
      "hit": false,
      "t": 54016.25299999976,
      "d": 78.5517083333325,
      "v": 110
    },
    {
      "midi": 70,
      "hit": false,
      "t": 54016.25300000001,
      "d": 245.90099999999802,
      "v": 110
    },
    {
      "midi": 74,
      "hit": false,
      "t": 54016.25300000001,
      "d": 245.90099999999802,
      "v": 110
    },
    {
      "midi": 48,
      "hit": false,
      "t": 54098.219999999754,
      "d": 78.5517083333325,
      "v": 110
    },
    {
      "midi": 56,
      "hit": false,
      "t": 54180.18699999975,
      "d": 78.5517083333325,
      "v": 110
    },
    {
      "midi": 48,
      "hit": false,
      "t": 54262.15399999975,
      "d": 78.5517083333325,
      "v": 110
    },
    {
      "midi": 72,
      "hit": false,
      "t": 54262.15400000001,
      "d": 81.96699999999691,
      "v": 110
    },
    {
      "midi": 75,
      "hit": false,
      "t": 54262.15400000001,
      "d": 81.96699999999691,
      "v": 110
    },
    {
      "midi": 46,
      "hit": false,
      "t": 54344.120999999745,
      "d": 78.5517083333325,
      "v": 110
    },
    {
      "midi": 58,
      "hit": false,
      "t": 54344.120999999745,
      "d": 78.5517083333325,
      "v": 110
    },
    {
      "midi": 74,
      "hit": false,
      "t": 54344.12100000001,
      "d": 273.2233333333352,
      "v": 110
    },
    {
      "midi": 77,
      "hit": false,
      "t": 54344.12100000001,
      "d": 273.2233333333352,
      "v": 110
    },
    {
      "midi": 53,
      "hit": false,
      "t": 54426.08799999974,
      "d": 78.5517083333325,
      "v": 110
    },
    {
      "midi": 58,
      "hit": false,
      "t": 54508.05499999974,
      "d": 78.5517083333325,
      "v": 110
    },
    {
      "midi": 53,
      "hit": false,
      "t": 54590.021999999735,
      "d": 78.5517083333325,
      "v": 110
    },
    {
      "midi": 53,
      "hit": false,
      "t": 54671.98899999973,
      "d": 78.5517083333325,
      "v": 110
    },
    {
      "midi": 58,
      "hit": false,
      "t": 54671.98899999973,
      "d": 78.5517083333325,
      "v": 110
    },
    {
      "midi": 72,
      "hit": false,
      "t": 54671.98900000001,
      "d": 245.90099999999802,
      "v": 110
    },
    {
      "midi": 75,
      "hit": false,
      "t": 54671.98900000001,
      "d": 245.90099999999802,
      "v": 110
    },
    {
      "midi": 53,
      "hit": false,
      "t": 54753.95599999973,
      "d": 78.5517083333325,
      "v": 110
    },
    {
      "midi": 58,
      "hit": false,
      "t": 54835.922999999726,
      "d": 78.5517083333325,
      "v": 110
    },
    {
      "midi": 53,
      "hit": false,
      "t": 54917.88999999972,
      "d": 78.5517083333325,
      "v": 110
    },
    {
      "midi": 74,
      "hit": false,
      "t": 54917.89000000001,
      "d": 81.96699999999691,
      "v": 110
    },
    {
      "midi": 77,
      "hit": false,
      "t": 54917.89000000001,
      "d": 81.96699999999691,
      "v": 110
    },
    {
      "midi": 43,
      "hit": false,
      "t": 54999.85699999972,
      "d": 160.5187083333367,
      "v": 110
    },
    {
      "midi": 72,
      "hit": false,
      "t": 54999.857,
      "d": 573.7690000000002,
      "v": 110
    },
    {
      "midi": 74,
      "hit": false,
      "t": 54999.857,
      "d": 573.7690000000002,
      "v": 110
    },
    {
      "midi": 43,
      "hit": false,
      "t": 55163.79099999972,
      "d": 78.5517083333325,
      "v": 110
    },
    {
      "midi": 50,
      "hit": false,
      "t": 55245.75799999972,
      "d": 78.5517083333325,
      "v": 110
    },
    {
      "midi": 43,
      "hit": false,
      "t": 55327.724999999715,
      "d": 160.5187083333367,
      "v": 110
    },
    {
      "midi": 43,
      "hit": false,
      "t": 55491.658999999716,
      "d": 78.5517083333325,
      "v": 110
    },
    {
      "midi": 50,
      "hit": false,
      "t": 55573.62599999971,
      "d": 78.5517083333325,
      "v": 110
    },
    {
      "midi": 55,
      "hit": false,
      "t": 55655.59299999971,
      "d": 273.2233333333352,
      "v": 110
    },
    {
      "midi": 71,
      "hit": false,
      "t": 55655.593,
      "d": 273.2233333333352,
      "v": 110
    },
    {
      "midi": 74,
      "hit": false,
      "t": 55655.593,
      "d": 273.2233333333352,
      "v": 110
    },
    {
      "midi": 79,
      "hit": false,
      "t": 55655.593,
      "d": 273.2233333333352,
      "v": 110
    },
    {
      "midi": 67,
      "hit": false,
      "t": 55983.461,
      "d": 242.4857083333336,
      "v": 110
    },
    {
      "midi": 67,
      "hit": false,
      "t": 56229.362,
      "d": 81.96699999999691,
      "v": 110
    }
  ]
}