{
  "jsonPath": "Unknown/Unknown/Milton Channels/glam.json",
  "path": "Unknown\\Unknown\\Milton Channels\\Glam.mid",
  "name": "Glam",
  "difficulty": "Advanced",
  "bpm": 100,
  "notes": [
    {
      "midi": 60,
      "hit": false,
      "t": 0,
      "d": 5,
      "v": 1
    },
    {
      "midi": 60,
      "hit": false,
      "t": 0,
      "d": 5,
      "v": 1
    },
    {
      "midi": 60,
      "hit": false,
      "t": 0,
      "d": 5,
      "v": 1
    },
    {
      "midi": 60,
      "hit": false,
      "t": 0,
      "d": 5,
      "v": 1
    },
    {
      "midi": 60,
      "hit": false,
      "t": 0,
      "d": 5,
      "v": 1
    },
    {
      "midi": 60,
      "hit": false,
      "t": 0,
      "d": 5,
      "v": 1
    },
    {
      "midi": 60,
      "hit": false,
      "t": 0,
      "d": 5,
      "v": 1
    },
    {
      "midi": 60,
      "hit": false,
      "t": 0,
      "d": 5,
      "v": 1
    },
    {
      "midi": 60,
      "hit": false,
      "t": 0,
      "d": 5,
      "v": 1
    },
    {
      "midi": 60,
      "hit": false,
      "t": 0,
      "d": 5,
      "v": 1
    },
    {
      "midi": 60,
      "hit": false,
      "t": 0,
      "d": 5,
      "v": 1
    },
    {
      "midi": 28,
      "hit": false,
      "t": 1275,
      "d": 3645,
      "v": 74
    },
    {
      "midi": 67,
      "hit": false,
      "t": 1280,
      "d": 605,
      "v": 58
    },
    {
      "midi": 40,
      "hit": false,
      "t": 1290,
      "d": 3555,
      "v": 42
    },
    {
      "midi": 64,
      "hit": false,
      "t": 1300,
      "d": 615,
      "v": 50
    },
    {
      "midi": 71,
      "hit": false,
      "t": 1305,
      "d": 590,
      "v": 51
    },
    {
      "midi": 67,
      "hit": false,
      "t": 2305,
      "d": 590,
      "v": 69
    },
    {
      "midi": 64,
      "hit": false,
      "t": 2310,
      "d": 355,
      "v": 56
    },
    {
      "midi": 71,
      "hit": false,
      "t": 2310,
      "d": 580,
      "v": 66
    },
    {
      "midi": 71,
      "hit": false,
      "t": 3265,
      "d": 410,
      "v": 71
    },
    {
      "midi": 67,
      "hit": false,
      "t": 3270,
      "d": 405,
      "v": 57
    },
    {
      "midi": 64,
      "hit": false,
      "t": 3270,
      "d": 495,
      "v": 59
    },
    {
      "midi": 64,
      "hit": false,
      "t": 4250,
      "d": 275,
      "v": 59
    },
    {
      "midi": 67,
      "hit": false,
      "t": 4250,
      "d": 595,
      "v": 58
    },
    {
      "midi": 71,
      "hit": false,
      "t": 4255,
      "d": 640,
      "v": 59
    },
    {
      "midi": 64,
      "hit": false,
      "t": 4730,
      "d": 150,
      "v": 52
    },
    {
      "midi": 67,
      "hit": false,
      "t": 5220,
      "d": 770,
      "v": 56
    },
    {
      "midi": 26,
      "hit": false,
      "t": 5230,
      "d": 3565,
      "v": 62
    },
    {
      "midi": 38,
      "hit": false,
      "t": 5235,
      "d": 3405,
      "v": 53
    },
    {
      "midi": 62,
      "hit": false,
      "t": 5240,
      "d": 725,
      "v": 63
    },
    {
      "midi": 71,
      "hit": false,
      "t": 5250,
      "d": 675,
      "v": 48
    },
    {
      "midi": 67,
      "hit": false,
      "t": 6215,
      "d": 560,
      "v": 69
    },
    {
      "midi": 62,
      "hit": false,
      "t": 6220,
      "d": 565,
      "v": 69
    },
    {
      "midi": 71,
      "hit": false,
      "t": 6235,
      "d": 610,
      "v": 68
    },
    {
      "midi": 62,
      "hit": false,
      "t": 7195,
      "d": 565,
      "v": 74
    },
    {
      "midi": 67,
      "hit": false,
      "t": 7200,
      "d": 420,
      "v": 69
    },
    {
      "midi": 71,
      "hit": false,
      "t": 7205,
      "d": 535,
      "v": 63
    },
    {
      "midi": 62,
      "hit": false,
      "t": 8170,
      "d": 475,
      "v": 75
    },
    {
      "midi": 67,
      "hit": false,
      "t": 8170,
      "d": 485,
      "v": 77
    },
    {
      "midi": 71,
      "hit": false,
      "t": 8175,
      "d": 520,
      "v": 73
    },
    {
      "midi": 67,
      "hit": false,
      "t": 9180,
      "d": 580,
      "v": 61
    },
    {
      "midi": 64,
      "hit": false,
      "t": 9180,
      "d": 600,
      "v": 57
    },
    {
      "midi": 24,
      "hit": false,
      "t": 9185,
      "d": 3525,
      "v": 69
    },
    {
      "midi": 36,
      "hit": false,
      "t": 9185,
      "d": 3625,
      "v": 60
    },
    {
      "midi": 71,
      "hit": false,
      "t": 9190,
      "d": 550,
      "v": 48
    },
    {
      "midi": 60,
      "hit": false,
      "t": 9190,
      "d": 555,
      "v": 52
    },
    {
      "midi": 71,
      "hit": false,
      "t": 10165,
      "d": 505,
      "v": 66
    },
    {
      "midi": 67,
      "hit": false,
      "t": 10170,
      "d": 470,
      "v": 74
    },
    {
      "midi": 60,
      "hit": false,
      "t": 10175,
      "d": 370,
      "v": 69
    },
    {
      "midi": 64,
      "hit": false,
      "t": 10175,
      "d": 500,
      "v": 70
    },
    {
      "midi": 60,
      "hit": false,
      "t": 11130,
      "d": 280,
      "v": 77
    },
    {
      "midi": 64,
      "hit": false,
      "t": 11135,
      "d": 415,
      "v": 71
    },
    {
      "midi": 67,
      "hit": false,
      "t": 11140,
      "d": 340,
      "v": 74
    },
    {
      "midi": 71,
      "hit": false,
      "t": 11140,
      "d": 400,
      "v": 71
    },
    {
      "midi": 60,
      "hit": false,
      "t": 12075,
      "d": 315,
      "v": 75
    },
    {
      "midi": 64,
      "hit": false,
      "t": 12075,
      "d": 535,
      "v": 75
    },
    {
      "midi": 67,
      "hit": false,
      "t": 12075,
      "d": 560,
      "v": 77
    },
    {
      "midi": 71,
      "hit": false,
      "t": 12080,
      "d": 660,
      "v": 72
    },
    {
      "midi": 60,
      "hit": false,
      "t": 12570,
      "d": 150,
      "v": 49
    },
    {
      "midi": 66,
      "hit": false,
      "t": 13055,
      "d": 565,
      "v": 73
    },
    {
      "midi": 62,
      "hit": false,
      "t": 13060,
      "d": 600,
      "v": 68
    },
    {
      "midi": 69,
      "hit": false,
      "t": 13065,
      "d": 565,
      "v": 55
    },
    {
      "midi": 26,
      "hit": false,
      "t": 13065,
      "d": 3370,
      "v": 60
    },
    {
      "midi": 38,
      "hit": false,
      "t": 13075,
      "d": 3440,
      "v": 45
    },
    {
      "midi": 69,
      "hit": false,
      "t": 14010,
      "d": 600,
      "v": 74
    },
    {
      "midi": 66,
      "hit": false,
      "t": 14015,
      "d": 560,
      "v": 79
    },
    {
      "midi": 62,
      "hit": false,
      "t": 14020,
      "d": 590,
      "v": 68
    },
    {
      "midi": 66,
      "hit": false,
      "t": 14970,
      "d": 500,
      "v": 80
    },
    {
      "midi": 69,
      "hit": false,
      "t": 14975,
      "d": 515,
      "v": 75
    },
    {
      "midi": 62,
      "hit": false,
      "t": 14980,
      "d": 505,
      "v": 74
    },
    {
      "midi": 66,
      "hit": false,
      "t": 15925,
      "d": 445,
      "v": 80
    },
    {
      "midi": 69,
      "hit": false,
      "t": 15925,
      "d": 485,
      "v": 70
    },
    {
      "midi": 62,
      "hit": false,
      "t": 15930,
      "d": 460,
      "v": 78
    },
    {
      "midi": 67,
      "hit": false,
      "t": 16915,
      "d": 620,
      "v": 40
    },
    {
      "midi": 71,
      "hit": false,
      "t": 16920,
      "d": 610,
      "v": 32
    },
    {
      "midi": 64,
      "hit": false,
      "t": 16930,
      "d": 615,
      "v": 25
    },
    {
      "midi": 28,
      "hit": false,
      "t": 16935,
      "d": 3405,
      "v": 41
    },
    {
      "midi": 40,
      "hit": false,
      "t": 16940,
      "d": 3185,
      "v": 40
    },
    {
      "midi": 67,
      "hit": false,
      "t": 17885,
      "d": 525,
      "v": 66
    },
    {
      "midi": 71,
      "hit": false,
      "t": 17885,
      "d": 555,
      "v": 66
    },
    {
      "midi": 64,
      "hit": false,
      "t": 17885,
      "d": 565,
      "v": 63
    },
    {
      "midi": 64,
      "hit": false,
      "t": 18820,
      "d": 410,
      "v": 63
    },
    {
      "midi": 71,
      "hit": false,
      "t": 18830,
      "d": 505,
      "v": 65
    },
    {
      "midi": 67,
      "hit": false,
      "t": 18830,
      "d": 570,
      "v": 68
    },
    {
      "midi": 71,
      "hit": false,
      "t": 19745,
      "d": 210,
      "v": 68
    },
    {
      "midi": 67,
      "hit": false,
      "t": 19755,
      "d": 195,
      "v": 63
    },
    {
      "midi": 64,
      "hit": false,
      "t": 19755,
      "d": 405,
      "v": 58
    },
    {
      "midi": 66,
      "hit": false,
      "t": 20010,
      "d": 240,
      "v": 65
    },
    {
      "midi": 69,
      "hit": false,
      "t": 20015,
      "d": 325,
      "v": 58
    },
    {
      "midi": 40,
      "hit": false,
      "t": 20470,
      "d": 120,
      "v": 28
    },
    {
      "midi": 64,
      "hit": false,
      "t": 20495,
      "d": 115,
      "v": 31
    },
    {
      "midi": 40,
      "hit": false,
      "t": 20750,
      "d": 3435,
      "v": 57
    },
    {
      "midi": 67,
      "hit": false,
      "t": 20755,
      "d": 660,
      "v": 71
    },
    {
      "midi": 64,
      "hit": false,
      "t": 20760,
      "d": 630,
      "v": 50
    },
    {
      "midi": 71,
      "hit": false,
      "t": 20765,
      "d": 555,
      "v": 68
    },
    {
      "midi": 28,
      "hit": false,
      "t": 20770,
      "d": 3595,
      "v": 67
    },
    {
      "midi": 64,
      "hit": false,
      "t": 21745,
      "d": 590,
      "v": 79
    },
    {
      "midi": 67,
      "hit": false,
      "t": 21750,
      "d": 415,
      "v": 74
    },
    {
      "midi": 71,
      "hit": false,
      "t": 21755,
      "d": 600,
      "v": 69
    },
    {
      "midi": 67,
      "hit": false,
      "t": 22675,
      "d": 545,
      "v": 75
    },
    {
      "midi": 64,
      "hit": false,
      "t": 22680,
      "d": 470,
      "v": 63
    },
    {
      "midi": 71,
      "hit": false,
      "t": 22680,
      "d": 590,
      "v": 63
    },
    {
      "midi": 64,
      "hit": false,
      "t": 23655,
      "d": 270,
      "v": 66
    },
    {
      "midi": 67,
      "hit": false,
      "t": 23655,
      "d": 550,
      "v": 65
    },
    {
      "midi": 71,
      "hit": false,
      "t": 23655,
      "d": 675,
      "v": 74
    },
    {
      "midi": 64,
      "hit": false,
      "t": 24130,
      "d": 155,
      "v": 60
    },
    {
      "midi": 62,
      "hit": false,
      "t": 24615,
      "d": 545,
      "v": 63
    },
    {
      "midi": 26,
      "hit": false,
      "t": 24625,
      "d": 3590,
      "v": 58
    },
    {
      "midi": 67,
      "hit": false,
      "t": 24630,
      "d": 620,
      "v": 55
    },
    {
      "midi": 71,
      "hit": false,
      "t": 24630,
      "d": 635,
      "v": 41
    },
    {
      "midi": 38,
      "hit": false,
      "t": 24650,
      "d": 3435,
      "v": 36
    },
    {
      "midi": 62,
      "hit": false,
      "t": 25625,
      "d": 460,
      "v": 73
    },
    {
      "midi": 71,
      "hit": false,
      "t": 25625,
      "d": 620,
      "v": 77
    },
    {
      "midi": 67,
      "hit": false,
      "t": 25630,
      "d": 505,
      "v": 79
    },
    {
      "midi": 71,
      "hit": false,
      "t": 26615,
      "d": 525,
      "v": 84
    },
    {
      "midi": 67,
      "hit": false,
      "t": 26620,
      "d": 480,
      "v": 75
    },
    {
      "midi": 62,
      "hit": false,
      "t": 26625,
      "d": 425,
      "v": 78
    },
    {
      "midi": 67,
      "hit": false,
      "t": 27580,
      "d": 435,
      "v": 76
    },
    {
      "midi": 62,
      "hit": false,
      "t": 27580,
      "d": 450,
      "v": 82
    },
    {
      "midi": 71,
      "hit": false,
      "t": 27585,
      "d": 600,
      "v": 78
    },
    {
      "midi": 71,
      "hit": false,
      "t": 28565,
      "d": 585,
      "v": 71
    },
    {
      "midi": 60,
      "hit": false,
      "t": 28570,
      "d": 595,
      "v": 77
    },
    {
      "midi": 24,
      "hit": false,
      "t": 28575,
      "d": 410,
      "v": 84
    },
    {
      "midi": 67,
      "hit": false,
      "t": 28575,
      "d": 530,
      "v": 72
    },
    {
      "midi": 36,
      "hit": false,
      "t": 28580,
      "d": 425,
      "v": 71
    },
    {
      "midi": 64,
      "hit": false,
      "t": 28585,
      "d": 595,
      "v": 73
    },
    {
      "midi": 71,
      "hit": false,
      "t": 29580,
      "d": 565,
      "v": 85
    },
    {
      "midi": 60,
      "hit": false,
      "t": 29585,
      "d": 335,
      "v": 83
    },
    {
      "midi": 67,
      "hit": false,
      "t": 29590,
      "d": 465,
      "v": 74
    },
    {
      "midi": 64,
      "hit": false,
      "t": 29590,
      "d": 495,
      "v": 79
    },
    {
      "midi": 71,
      "hit": false,
      "t": 30560,
      "d": 540,
      "v": 75
    },
    {
      "midi": 60,
      "hit": false,
      "t": 30565,
      "d": 395,
      "v": 73
    },
    {
      "midi": 67,
      "hit": false,
      "t": 30570,
      "d": 485,
      "v": 76
    },
    {
      "midi": 64,
      "hit": false,
      "t": 30570,
      "d": 530,
      "v": 76
    },
    {
      "midi": 71,
      "hit": false,
      "t": 31425,
      "d": 765,
      "v": 88
    },
    {
      "midi": 60,
      "hit": false,
      "t": 31435,
      "d": 300,
      "v": 86
    },
    {
      "midi": 67,
      "hit": false,
      "t": 31435,
      "d": 640,
      "v": 86
    },
    {
      "midi": 64,
      "hit": false,
      "t": 31440,
      "d": 515,
      "v": 81
    },
    {
      "midi": 60,
      "hit": false,
      "t": 31930,
      "d": 260,
      "v": 62
    },
    {
      "midi": 64,
      "hit": false,
      "t": 32155,
      "d": 175,
      "v": 45
    },
    {
      "midi": 38,
      "hit": false,
      "t": 32235,
      "d": 70,
      "v": 28
    },
    {
      "midi": 69,
      "hit": false,
      "t": 32415,
      "d": 640,
      "v": 87
    },
    {
      "midi": 66,
      "hit": false,
      "t": 32420,
      "d": 605,
      "v": 96
    },
    {
      "midi": 62,
      "hit": false,
      "t": 32420,
      "d": 670,
      "v": 90
    },
    {
      "midi": 38,
      "hit": false,
      "t": 32425,
      "d": 3350,
      "v": 83
    },
    {
      "midi": 26,
      "hit": false,
      "t": 32430,
      "d": 3620,
      "v": 98
    },
    {
      "midi": 69,
      "hit": false,
      "t": 33365,
      "d": 635,
      "v": 89
    },
    {
      "midi": 66,
      "hit": false,
      "t": 33365,
      "d": 655,
      "v": 103
    },
    {
      "midi": 62,
      "hit": false,
      "t": 33370,
      "d": 690,
      "v": 99
    },
    {
      "midi": 69,
      "hit": false,
      "t": 34320,
      "d": 580,
      "v": 100
    },
    {
      "midi": 66,
      "hit": false,
      "t": 34325,
      "d": 550,
      "v": 107
    },
    {
      "midi": 62,
      "hit": false,
      "t": 34330,
      "d": 540,
      "v": 94
    },
    {
      "midi": 62,
      "hit": false,
      "t": 35245,
      "d": 300,
      "v": 104
    },
    {
      "midi": 66,
      "hit": false,
      "t": 35250,
      "d": 510,
      "v": 101
    },
    {
      "midi": 69,
      "hit": false,
      "t": 35250,
      "d": 820,
      "v": 103
    },
    {
      "midi": 62,
      "hit": false,
      "t": 35735,
      "d": 340,
      "v": 81
    },
    {
      "midi": 38,
      "hit": false,
      "t": 35965,
      "d": 150,
      "v": 81
    },
    {
      "midi": 66,
      "hit": false,
      "t": 35975,
      "d": 155,
      "v": 72
    },
    {
      "midi": 40,
      "hit": false,
      "t": 36220,
      "d": 3250,
      "v": 97
    },
    {
      "midi": 28,
      "hit": false,
      "t": 36220,
      "d": 3405,
      "v": 100
    },
    {
      "midi": 67,
      "hit": false,
      "t": 36230,
      "d": 560,
      "v": 93
    },
    {
      "midi": 64,
      "hit": false,
      "t": 36230,
      "d": 655,
      "v": 88
    },
    {
      "midi": 71,
      "hit": false,
      "t": 36235,
      "d": 615,
      "v": 98
    },
    {
      "midi": 71,
      "hit": false,
      "t": 37135,
      "d": 745,
      "v": 109
    },
    {
      "midi": 64,
      "hit": false,
      "t": 37140,
      "d": 320,
      "v": 92
    },
    {
      "midi": 67,
      "hit": false,
      "t": 37140,
      "d": 600,
      "v": 106
    },
    {
      "midi": 64,
      "hit": false,
      "t": 37610,
      "d": 110,
      "v": 50
    },
    {
      "midi": 64,
      "hit": false,
      "t": 37850,
      "d": 145,
      "v": 65
    },
    {
      "midi": 64,
      "hit": false,
      "t": 38100,
      "d": 720,
      "v": 97
    },
    {
      "midi": 71,
      "hit": false,
      "t": 38105,
      "d": 595,
      "v": 106
    },
    {
      "midi": 67,
      "hit": false,
      "t": 38110,
      "d": 515,
      "v": 99
    },
    {
      "midi": 64,
      "hit": false,
      "t": 39070,
      "d": 295,
      "v": 96
    },
    {
      "midi": 67,
      "hit": false,
      "t": 39070,
      "d": 475,
      "v": 106
    },
    {
      "midi": 71,
      "hit": false,
      "t": 39070,
      "d": 690,
      "v": 109
    },
    {
      "midi": 64,
      "hit": false,
      "t": 39525,
      "d": 340,
      "v": 83
    },
    {
      "midi": 67,
      "hit": false,
      "t": 39725,
      "d": 125,
      "v": 59
    },
    {
      "midi": 64,
      "hit": false,
      "t": 40005,
      "d": 635,
      "v": 97
    },
    {
      "midi": 67,
      "hit": false,
      "t": 40010,
      "d": 575,
      "v": 95
    },
    {
      "midi": 72,
      "hit": false,
      "t": 40010,
      "d": 580,
      "v": 105
    },
    {
      "midi": 24,
      "hit": false,
      "t": 40015,
      "d": 3350,
      "v": 106
    },
    {
      "midi": 36,
      "hit": false,
      "t": 40020,
      "d": 3415,
      "v": 97
    },
    {
      "midi": 72,
      "hit": false,
      "t": 40995,
      "d": 565,
      "v": 109
    },
    {
      "midi": 64,
      "hit": false,
      "t": 40995,
      "d": 580,
      "v": 98
    },
    {
      "midi": 67,
      "hit": false,
      "t": 41000,
      "d": 520,
      "v": 97
    },
    {
      "midi": 64,
      "hit": false,
      "t": 41955,
      "d": 295,
      "v": 99
    },
    {
      "midi": 72,
      "hit": false,
      "t": 41955,
      "d": 585,
      "v": 110
    },
    {
      "midi": 67,
      "hit": false,
      "t": 41960,
      "d": 430,
      "v": 95
    },
    {
      "midi": 64,
      "hit": false,
      "t": 42435,
      "d": 70,
      "v": 22
    },
    {
      "midi": 64,
      "hit": false,
      "t": 42655,
      "d": 85,
      "v": 28
    },
    {
      "midi": 72,
      "hit": false,
      "t": 42875,
      "d": 555,
      "v": 108
    },
    {
      "midi": 64,
      "hit": false,
      "t": 42880,
      "d": 420,
      "v": 96
    },
    {
      "midi": 67,
      "hit": false,
      "t": 42880,
      "d": 440,
      "v": 96
    },
    {
      "midi": 69,
      "hit": false,
      "t": 43805,
      "d": 420,
      "v": 93
    },
    {
      "midi": 38,
      "hit": false,
      "t": 43805,
      "d": 1415,
      "v": 89
    },
    {
      "midi": 62,
      "hit": false,
      "t": 43810,
      "d": 500,
      "v": 97
    },
    {
      "midi": 26,
      "hit": false,
      "t": 43810,
      "d": 1775,
      "v": 95
    },
    {
      "midi": 66,
      "hit": false,
      "t": 43815,
      "d": 445,
      "v": 98
    },
    {
      "midi": 66,
      "hit": false,
      "t": 44795,
      "d": 505,
      "v": 108
    },
    {
      "midi": 69,
      "hit": false,
      "t": 44795,
      "d": 775,
      "v": 99
    },
    {
      "midi": 62,
      "hit": false,
      "t": 44810,
      "d": 250,
      "v": 89
    },
    {
      "midi": 62,
      "hit": false,
      "t": 45255,
      "d": 95,
      "v": 63
    },
    {
      "midi": 62,
      "hit": false,
      "t": 45480,
      "d": 125,
      "v": 72
    },
    {
      "midi": 66,
      "hit": false,
      "t": 45495,
      "d": 95,
      "v": 50
    },
    {
      "midi": 38,
      "hit": false,
      "t": 45495,
      "d": 150,
      "v": 77
    },
    {
      "midi": 67,
      "hit": false,
      "t": 45720,
      "d": 490,
      "v": 103
    },
    {
      "midi": 38,
      "hit": false,
      "t": 45720,
      "d": 1420,
      "v": 94
    },
    {
      "midi": 69,
      "hit": false,
      "t": 45725,
      "d": 490,
      "v": 97
    },
    {
      "midi": 26,
      "hit": false,
      "t": 45725,
      "d": 1660,
      "v": 97
    },
    {
      "midi": 62,
      "hit": false,
      "t": 45730,
      "d": 230,
      "v": 99
    },
    {
      "midi": 62,
      "hit": false,
      "t": 46165,
      "d": 100,
      "v": 34
    },
    {
      "midi": 62,
      "hit": false,
      "t": 46410,
      "d": 285,
      "v": 102
    },
    {
      "midi": 67,
      "hit": false,
      "t": 46410,
      "d": 505,
      "v": 105
    },
    {
      "midi": 69,
      "hit": false,
      "t": 46415,
      "d": 515,
      "v": 104
    },
    {
      "midi": 62,
      "hit": false,
      "t": 46855,
      "d": 165,
      "v": 89
    },
    {
      "midi": 62,
      "hit": false,
      "t": 47080,
      "d": 115,
      "v": 83
    },
    {
      "midi": 67,
      "hit": false,
      "t": 47090,
      "d": 295,
      "v": 103
    },
    {
      "midi": 69,
      "hit": false,
      "t": 47090,
      "d": 320,
      "v": 103
    },
    {
      "midi": 38,
      "hit": false,
      "t": 47310,
      "d": 150,
      "v": 88
    },
    {
      "midi": 62,
      "hit": false,
      "t": 47320,
      "d": 135,
      "v": 80
    },
    {
      "midi": 69,
      "hit": false,
      "t": 47550,
      "d": 650,
      "v": 102
    },
    {
      "midi": 62,
      "hit": false,
      "t": 47555,
      "d": 300,
      "v": 100
    },
    {
      "midi": 38,
      "hit": false,
      "t": 47560,
      "d": 1270,
      "v": 103
    },
    {
      "midi": 26,
      "hit": false,
      "t": 47560,
      "d": 1690,
      "v": 104
    },
    {
      "midi": 66,
      "hit": false,
      "t": 47565,
      "d": 400,
      "v": 101
    },
    {
      "midi": 62,
      "hit": false,
      "t": 48010,
      "d": 70,
      "v": 40
    },
    {
      "midi": 62,
      "hit": false,
      "t": 48240,
      "d": 490,
      "v": 74
    },
    {
      "midi": 69,
      "hit": false,
      "t": 48470,
      "d": 845,
      "v": 110
    },
    {
      "midi": 66,
      "hit": false,
      "t": 48705,
      "d": 255,
      "v": 89
    },
    {
      "midi": 62,
      "hit": false,
      "t": 48930,
      "d": 375,
      "v": 85
    },
    {
      "midi": 66,
      "hit": false,
      "t": 49145,
      "d": 175,
      "v": 77
    },
    {
      "midi": 38,
      "hit": false,
      "t": 49155,
      "d": 140,
      "v": 92
    },
    {
      "midi": 69,
      "hit": false,
      "t": 49390,
      "d": 530,
      "v": 93
    },
    {
      "midi": 38,
      "hit": false,
      "t": 49390,
      "d": 995,
      "v": 98
    },
    {
      "midi": 67,
      "hit": false,
      "t": 49395,
      "d": 520,
      "v": 105
    },
    {
      "midi": 62,
      "hit": false,
      "t": 49405,
      "d": 265,
      "v": 94
    },
    {
      "midi": 26,
      "hit": false,
      "t": 49405,
      "d": 1180,
      "v": 102
    },
    {
      "midi": 62,
      "hit": false,
      "t": 49850,
      "d": 145,
      "v": 81
    },
    {
      "midi": 62,
      "hit": false,
      "t": 50090,
      "d": 185,
      "v": 94
    },
    {
      "midi": 67,
      "hit": false,
      "t": 50090,
      "d": 235,
      "v": 105
    },
    {
      "midi": 69,
      "hit": false,
      "t": 50090,
      "d": 275,
      "v": 103
    },
    {
      "midi": 38,
      "hit": false,
      "t": 50510,
      "d": 135,
      "v": 77
    },
    {
      "midi": 62,
      "hit": false,
      "t": 50515,
      "d": 145,
      "v": 86
    },
    {
      "midi": 69,
      "hit": false,
      "t": 50755,
      "d": 170,
      "v": 105
    },
    {
      "midi": 62,
      "hit": false,
      "t": 50765,
      "d": 140,
      "v": 98
    },
    {
      "midi": 66,
      "hit": false,
      "t": 50765,
      "d": 145,
      "v": 98
    },
    {
      "midi": 38,
      "hit": false,
      "t": 50765,
      "d": 160,
      "v": 97
    },
    {
      "midi": 26,
      "hit": false,
      "t": 50770,
      "d": 135,
      "v": 93
    },
    {
      "midi": 26,
      "hit": false,
      "t": 50980,
      "d": 80,
      "v": 59
    },
    {
      "midi": 38,
      "hit": false,
      "t": 50990,
      "d": 85,
      "v": 60
    },
    {
      "midi": 71,
      "hit": false,
      "t": 51215,
      "d": 560,
      "v": 110
    },
    {
      "midi": 67,
      "hit": false,
      "t": 51220,
      "d": 530,
      "v": 102
    },
    {
      "midi": 64,
      "hit": false,
      "t": 51220,
      "d": 605,
      "v": 99
    },
    {
      "midi": 28,
      "hit": false,
      "t": 51225,
      "d": 3260,
      "v": 98
    },
    {
      "midi": 26,
      "hit": false,
      "t": 51230,
      "d": 175,
      "v": 102
    },
    {
      "midi": 40,
      "hit": false,
      "t": 51230,
      "d": 2980,
      "v": 93
    },
    {
      "midi": 38,
      "hit": false,
      "t": 51235,
      "d": 140,
      "v": 95
    },
    {
      "midi": 67,
      "hit": false,
      "t": 52120,
      "d": 530,
      "v": 111
    },
    {
      "midi": 71,
      "hit": false,
      "t": 52120,
      "d": 580,
      "v": 111
    },
    {
      "midi": 64,
      "hit": false,
      "t": 52125,
      "d": 595,
      "v": 105
    },
    {
      "midi": 67,
      "hit": false,
      "t": 53060,
      "d": 430,
      "v": 110
    },
    {
      "midi": 71,
      "hit": false,
      "t": 53060,
      "d": 550,
      "v": 111
    },
    {
      "midi": 64,
      "hit": false,
      "t": 53065,
      "d": 465,
      "v": 102
    },
    {
      "midi": 67,
      "hit": false,
      "t": 54000,
      "d": 370,
      "v": 108
    },
    {
      "midi": 71,
      "hit": false,
      "t": 54000,
      "d": 465,
      "v": 110
    },
    {
      "midi": 64,
      "hit": false,
      "t": 54000,
      "d": 510,
      "v": 99
    },
    {
      "midi": 72,
      "hit": false,
      "t": 54930,
      "d": 635,
      "v": 110
    },
    {
      "midi": 24,
      "hit": false,
      "t": 54930,
      "d": 3370,
      "v": 102
    },
    {
      "midi": 36,
      "hit": false,
      "t": 54930,
      "d": 3440,
      "v": 98
    },
    {
      "midi": 67,
      "hit": false,
      "t": 54935,
      "d": 575,
      "v": 98
    },
    {
      "midi": 64,
      "hit": false,
      "t": 54940,
      "d": 685,
      "v": 96
    },
    {
      "midi": 72,
      "hit": false,
      "t": 55895,
      "d": 515,
      "v": 111
    },
    {
      "midi": 67,
      "hit": false,
      "t": 55900,
      "d": 460,
      "v": 97
    },
    {
      "midi": 64,
      "hit": false,
      "t": 55900,
      "d": 480,
      "v": 97
    },
    {
      "midi": 64,
      "hit": false,
      "t": 56855,
      "d": 405,
      "v": 97
    },
    {
      "midi": 72,
      "hit": false,
      "t": 56855,
      "d": 510,
      "v": 108
    },
    {
      "midi": 67,
      "hit": false,
      "t": 56860,
      "d": 465,
      "v": 98
    },
    {
      "midi": 64,
      "hit": false,
      "t": 57780,
      "d": 455,
      "v": 94
    },
    {
      "midi": 67,
      "hit": false,
      "t": 57780,
      "d": 475,
      "v": 96
    },
    {
      "midi": 72,
      "hit": false,
      "t": 57785,
      "d": 460,
      "v": 106
    },
    {
      "midi": 69,
      "hit": false,
      "t": 58720,
      "d": 605,
      "v": 98
    },
    {
      "midi": 62,
      "hit": false,
      "t": 58725,
      "d": 615,
      "v": 94
    },
    {
      "midi": 38,
      "hit": false,
      "t": 58730,
      "d": 3335,
      "v": 85
    },
    {
      "midi": 26,
      "hit": false,
      "t": 58730,
      "d": 3555,
      "v": 93
    },
    {
      "midi": 66,
      "hit": false,
      "t": 58735,
      "d": 545,
      "v": 94
    },
    {
      "midi": 66,
      "hit": false,
      "t": 59685,
      "d": 590,
      "v": 103
    },
    {
      "midi": 69,
      "hit": false,
      "t": 59685,
      "d": 715,
      "v": 98
    },
    {
      "midi": 62,
      "hit": false,
      "t": 59695,
      "d": 295,
      "v": 90
    },
    {
      "midi": 62,
      "hit": false,
      "t": 60145,
      "d": 65,
      "v": 35
    },
    {
      "midi": 62,
      "hit": false,
      "t": 60405,
      "d": 95,
      "v": 38
    },
    {
      "midi": 69,
      "hit": false,
      "t": 60625,
      "d": 505,
      "v": 97
    },
    {
      "midi": 67,
      "hit": false,
      "t": 60625,
      "d": 525,
      "v": 99
    },
    {
      "midi": 62,
      "hit": false,
      "t": 60630,
      "d": 255,
      "v": 96
    },
    {
      "midi": 62,
      "hit": false,
      "t": 61080,
      "d": 110,
      "v": 59
    },
    {
      "midi": 67,
      "hit": false,
      "t": 61320,
      "d": 465,
      "v": 105
    },
    {
      "midi": 62,
      "hit": false,
      "t": 61325,
      "d": 260,
      "v": 99
    },
    {
      "midi": 69,
      "hit": false,
      "t": 61325,
      "d": 480,
      "v": 102
    },
    {
      "midi": 62,
      "hit": false,
      "t": 61775,
      "d": 115,
      "v": 69
    },
    {
      "midi": 67,
      "hit": false,
      "t": 61995,
      "d": 320,
      "v": 103
    },
    {
      "midi": 62,
      "hit": false,
      "t": 62000,
      "d": 130,
      "v": 91
    },
    {
      "midi": 69,
      "hit": false,
      "t": 62000,
      "d": 320,
      "v": 102
    },
    {
      "midi": 38,
      "hit": false,
      "t": 62215,
      "d": 155,
      "v": 87
    },
    {
      "midi": 62,
      "hit": false,
      "t": 62235,
      "d": 140,
      "v": 69
    },
    {
      "midi": 62,
      "hit": false,
      "t": 62460,
      "d": 270,
      "v": 93
    },
    {
      "midi": 69,
      "hit": false,
      "t": 62460,
      "d": 620,
      "v": 104
    },
    {
      "midi": 66,
      "hit": false,
      "t": 62465,
      "d": 510,
      "v": 108
    },
    {
      "midi": 26,
      "hit": false,
      "t": 62470,
      "d": 3580,
      "v": 97
    },
    {
      "midi": 38,
      "hit": false,
      "t": 62470,
      "d": 3665,
      "v": 102
    },
    {
      "midi": 62,
      "hit": false,
      "t": 62935,
      "d": 60,
      "v": 18
    },
    {
      "midi": 62,
      "hit": false,
      "t": 63150,
      "d": 150,
      "v": 56
    },
    {
      "midi": 62,
      "hit": false,
      "t": 63395,
      "d": 265,
      "v": 95
    },
    {
      "midi": 66,
      "hit": false,
      "t": 63395,
      "d": 520,
      "v": 111
    },
    {
      "midi": 69,
      "hit": false,
      "t": 63395,
      "d": 720,
      "v": 105
    },
    {
      "midi": 62,
      "hit": false,
      "t": 63860,
      "d": 65,
      "v": 39
    },
    {
      "midi": 62,
      "hit": false,
      "t": 64100,
      "d": 200,
      "v": 52
    },
    {
      "midi": 69,
      "hit": false,
      "t": 64350,
      "d": 445,
      "v": 86
    },
    {
      "midi": 64,
      "hit": false,
      "t": 64355,
      "d": 315,
      "v": 87
    },
    {
      "midi": 62,
      "hit": false,
      "t": 64365,
      "d": 120,
      "v": 50
    },
    {
      "midi": 62,
      "hit": false,
      "t": 64835,
      "d": 95,
      "v": 28
    },
    {
      "midi": 69,
      "hit": false,
      "t": 65085,
      "d": 270,
      "v": 67
    },
    {
      "midi": 64,
      "hit": false,
      "t": 65090,
      "d": 255,
      "v": 71
    },
    {
      "midi": 62,
      "hit": false,
      "t": 65095,
      "d": 130,
      "v": 46
    },
    {
      "midi": 69,
      "hit": false,
      "t": 65805,
      "d": 195,
      "v": 32
    },
    {
      "midi": 62,
      "hit": false,
      "t": 65820,
      "d": 165,
      "v": 33
    },
    {
      "midi": 64,
      "hit": false,
      "t": 65845,
      "d": 160,
      "v": 37
    },
    {
      "midi": 67,
      "hit": false,
      "t": 66380,
      "d": 580,
      "v": 39
    },
    {
      "midi": 40,
      "hit": false,
      "t": 66385,
      "d": 3435,
      "v": 37
    },
    {
      "midi": 64,
      "hit": false,
      "t": 66395,
      "d": 560,
      "v": 16
    },
    {
      "midi": 71,
      "hit": false,
      "t": 66400,
      "d": 590,
      "v": 25
    },
    {
      "midi": 28,
      "hit": false,
      "t": 66410,
      "d": 3515,
      "v": 21
    },
    {
      "midi": 67,
      "hit": false,
      "t": 67350,
      "d": 535,
      "v": 51
    },
    {
      "midi": 64,
      "hit": false,
      "t": 67370,
      "d": 470,
      "v": 34
    },
    {
      "midi": 71,
      "hit": false,
      "t": 67375,
      "d": 490,
      "v": 35
    },
    {
      "midi": 67,
      "hit": false,
      "t": 68315,
      "d": 475,
      "v": 32
    },
    {
      "midi": 71,
      "hit": false,
      "t": 68325,
      "d": 485,
      "v": 35
    },
    {
      "midi": 64,
      "hit": false,
      "t": 68330,
      "d": 470,
      "v": 37
    },
    {
      "midi": 71,
      "hit": false,
      "t": 69285,
      "d": 670,
      "v": 38
    },
    {
      "midi": 64,
      "hit": false,
      "t": 69300,
      "d": 255,
      "v": 37
    },
    {
      "midi": 67,
      "hit": false,
      "t": 69300,
      "d": 435,
      "v": 43
    },
    {
      "midi": 64,
      "hit": false,
      "t": 69795,
      "d": 115,
      "v": 22
    },
    {
      "midi": 38,
      "hit": false,
      "t": 70255,
      "d": 3380,
      "v": 17
    },
    {
      "midi": 26,
      "hit": false,
      "t": 70275,
      "d": 3625,
      "v": 13
    },
    {
      "midi": 62,
      "hit": false,
      "t": 70280,
      "d": 535,
      "v": 16
    },
    {
      "midi": 67,
      "hit": false,
      "t": 70295,
      "d": 560,
      "v": 11
    },
    {
      "midi": 71,
      "hit": false,
      "t": 70320,
      "d": 550,
      "v": 10
    },
    {
      "midi": 67,
      "hit": false,
      "t": 71305,
      "d": 435,
      "v": 72
    },
    {
      "midi": 71,
      "hit": false,
      "t": 71305,
      "d": 510,
      "v": 74
    },
    {
      "midi": 62,
      "hit": false,
      "t": 71310,
      "d": 420,
      "v": 72
    },
    {
      "midi": 67,
      "hit": false,
      "t": 72340,
      "d": 410,
      "v": 69
    },
    {
      "midi": 62,
      "hit": false,
      "t": 72340,
      "d": 420,
      "v": 74
    },
    {
      "midi": 71,
      "hit": false,
      "t": 72345,
      "d": 490,
      "v": 74
    },
    {
      "midi": 62,
      "hit": false,
      "t": 73305,
      "d": 345,
      "v": 81
    },
    {
      "midi": 71,
      "hit": false,
      "t": 73305,
      "d": 505,
      "v": 81
    },
    {
      "midi": 67,
      "hit": false,
      "t": 73310,
      "d": 420,
      "v": 78
    },
    {
      "midi": 24,
      "hit": false,
      "t": 74240,
      "d": 3360,
      "v": 70
    },
    {
      "midi": 67,
      "hit": false,
      "t": 74245,
      "d": 585,
      "v": 58
    },
    {
      "midi": 60,
      "hit": false,
      "t": 74250,
      "d": 480,
      "v": 57
    },
    {
      "midi": 64,
      "hit": false,
      "t": 74250,
      "d": 535,
      "v": 62
    },
    {
      "midi": 36,
      "hit": false,
      "t": 74260,
      "d": 3440,
      "v": 42
    },
    {
      "midi": 67,
      "hit": false,
      "t": 75185,
      "d": 590,
      "v": 65
    },
    {
      "midi": 64,
      "hit": false,
      "t": 75190,
      "d": 620,
      "v": 67
    },
    {
      "midi": 60,
      "hit": false,
      "t": 75195,
      "d": 530,
      "v": 66
    },
    {
      "midi": 67,
      "hit": false,
      "t": 76115,
      "d": 555,
      "v": 71
    },
    {
      "midi": 64,
      "hit": false,
      "t": 76115,
      "d": 580,
      "v": 70
    },
    {
      "midi": 60,
      "hit": false,
      "t": 76120,
      "d": 530,
      "v": 67
    },
    {
      "midi": 67,
      "hit": false,
      "t": 77060,
      "d": 325,
      "v": 70
    },
    {
      "midi": 60,
      "hit": false,
      "t": 77065,
      "d": 280,
      "v": 65
    },
    {
      "midi": 64,
      "hit": false,
      "t": 77065,
      "d": 575,
      "v": 70
    },
    {
      "midi": 69,
      "hit": false,
      "t": 78020,
      "d": 650,
      "v": 34
    },
    {
      "midi": 66,
      "hit": false,
      "t": 78030,
      "d": 630,
      "v": 56
    },
    {
      "midi": 38,
      "hit": false,
      "t": 78045,
      "d": 2220,
      "v": 39
    },
    {
      "midi": 26,
      "hit": false,
      "t": 78070,
      "d": 2135,
      "v": 35
    },
    {
      "midi": 62,
      "hit": false,
      "t": 78080,
      "d": 530,
      "v": 37
    },
    {
      "midi": 69,
      "hit": false,
      "t": 79040,
      "d": 690,
      "v": 60
    },
    {
      "midi": 66,
      "hit": false,
      "t": 79040,
      "d": 695,
      "v": 71
    },
    {
      "midi": 62,
      "hit": false,
      "t": 79050,
      "d": 575,
      "v": 63
    },
    {
      "midi": 66,
      "hit": false,
      "t": 80025,
      "d": 490,
      "v": 69
    },
    {
      "midi": 69,
      "hit": false,
      "t": 80030,
      "d": 505,
      "v": 59
    },
    {
      "midi": 62,
      "hit": false,
      "t": 80035,
      "d": 440,
      "v": 65
    },
    {
      "midi": 66,
      "hit": false,
      "t": 81005,
      "d": 530,
      "v": 71
    },
    {
      "midi": 69,
      "hit": false,
      "t": 81015,
      "d": 525,
      "v": 54
    },
    {
      "midi": 62,
      "hit": false,
      "t": 81020,
      "d": 300,
      "v": 58
    },
    {
      "midi": 67,
      "hit": false,
      "t": 81975,
      "d": 620,
      "v": 38
    },
    {
      "midi": 40,
      "hit": false,
      "t": 81980,
      "d": 3365,
      "v": 32
    },
    {
      "midi": 71,
      "hit": false,
      "t": 81995,
      "d": 600,
      "v": 32
    },
    {
      "midi": 64,
      "hit": false,
      "t": 81995,
      "d": 630,
      "v": 21
    },
    {
      "midi": 28,
      "hit": false,
      "t": 82000,
      "d": 3410,
      "v": 45
    },
    {
      "midi": 64,
      "hit": false,
      "t": 82980,
      "d": 475,
      "v": 39
    },
    {
      "midi": 71,
      "hit": false,
      "t": 82980,
      "d": 495,
      "v": 44
    },
    {
      "midi": 67,
      "hit": false,
      "t": 82985,
      "d": 540,
      "v": 41
    },
    {
      "midi": 67,
      "hit": false,
      "t": 83930,
      "d": 520,
      "v": 55
    },
    {
      "midi": 71,
      "hit": false,
      "t": 83935,
      "d": 480,
      "v": 31
    },
    {
      "midi": 64,
      "hit": false,
      "t": 83940,
      "d": 325,
      "v": 29
    },
    {
      "midi": 71,
      "hit": false,
      "t": 84850,
      "d": 230,
      "v": 44
    },
    {
      "midi": 67,
      "hit": false,
      "t": 84865,
      "d": 185,
      "v": 46
    },
    {
      "midi": 64,
      "hit": false,
      "t": 84865,
      "d": 270,
      "v": 32
    },
    {
      "midi": 66,
      "hit": false,
      "t": 85325,
      "d": 160,
      "v": 46
    },
    {
      "midi": 69,
      "hit": false,
      "t": 85335,
      "d": 165,
      "v": 56
    },
    {
      "midi": 64,
      "hit": false,
      "t": 85370,
      "d": 120,
      "v": 30
    },
    {
      "midi": 71,
      "hit": false,
      "t": 85845,
      "d": 520,
      "v": 36
    },
    {
      "midi": 67,
      "hit": false,
      "t": 85850,
      "d": 530,
      "v": 39
    },
    {
      "midi": 64,
      "hit": false,
      "t": 85860,
      "d": 405,
      "v": 24
    },
    {
      "midi": 28,
      "hit": false,
      "t": 85860,
      "d": 1605,
      "v": 38
    },
    {
      "midi": 40,
      "hit": false,
      "t": 85865,
      "d": 1505,
      "v": 20
    },
    {
      "midi": 71,
      "hit": false,
      "t": 86815,
      "d": 610,
      "v": 64
    },
    {
      "midi": 64,
      "hit": false,
      "t": 86820,
      "d": 355,
      "v": 60
    },
    {
      "midi": 67,
      "hit": false,
      "t": 86820,
      "d": 535,
      "v": 65
    },
    {
      "midi": 67,
      "hit": false,
      "t": 87805,
      "d": 590,
      "v": 53
    },
    {
      "midi": 71,
      "hit": false,
      "t": 87805,
      "d": 600,
      "v": 49
    },
    {
      "midi": 62,
      "hit": false,
      "t": 87805,
      "d": 635,
      "v": 55
    },
    {
      "midi": 38,
      "hit": false,
      "t": 87815,
      "d": 1435,
      "v": 47
    },
    {
      "midi": 26,
      "hit": false,
      "t": 87820,
      "d": 3630,
      "v": 50
    },
    {
      "midi": 62,
      "hit": false,
      "t": 88825,
      "d": 250,
      "v": 76
    },
    {
      "midi": 67,
      "hit": false,
      "t": 88825,
      "d": 605,
      "v": 77
    },
    {
      "midi": 71,
      "hit": false,
      "t": 88825,
      "d": 640,
      "v": 79
    },
    {
      "midi": 62,
      "hit": false,
      "t": 89310,
      "d": 70,
      "v": 28
    },
    {
      "midi": 62,
      "hit": false,
      "t": 89590,
      "d": 65,
      "v": 8
    },
    {
      "midi": 38,
      "hit": false,
      "t": 89795,
      "d": 1460,
      "v": 58
    },
    {
      "midi": 62,
      "hit": false,
      "t": 89800,
      "d": 520,
      "v": 65
    },
    {
      "midi": 67,
      "hit": false,
      "t": 89805,
      "d": 500,
      "v": 67
    },
    {
      "midi": 71,
      "hit": false,
      "t": 89810,
      "d": 610,
      "v": 64
    },
    {
      "midi": 67,
      "hit": false,
      "t": 90780,
      "d": 535,
      "v": 78
    },
    {
      "midi": 62,
      "hit": false,
      "t": 90785,
      "d": 255,
      "v": 77
    },
    {
      "midi": 71,
      "hit": false,
      "t": 90785,
      "d": 710,
      "v": 78
    },
    {
      "midi": 62,
      "hit": false,
      "t": 91250,
      "d": 240,
      "v": 60
    },
    {
      "midi": 64,
      "hit": false,
      "t": 91740,
      "d": 540,
      "v": 48
    },
    {
      "midi": 67,
      "hit": false,
      "t": 91740,
      "d": 555,
      "v": 42
    },
    {
      "midi": 71,
      "hit": false,
      "t": 91750,
      "d": 570,
      "v": 22
    },
    {
      "midi": 60,
      "hit": false,
      "t": 91755,
      "d": 465,
      "v": 27
    },
    {
      "midi": 24,
      "hit": false,
      "t": 91755,
      "d": 3550,
      "v": 58
    },
    {
      "midi": 36,
      "hit": false,
      "t": 91760,
      "d": 3645,
      "v": 44
    },
    {
      "midi": 60,
      "hit": false,
      "t": 92710,
      "d": 230,
      "v": 78
    },
    {
      "midi": 67,
      "hit": false,
      "t": 92710,
      "d": 640,
      "v": 75
    },
    {
      "midi": 71,
      "hit": false,
      "t": 92710,
      "d": 690,
      "v": 72
    },
    {
      "midi": 64,
      "hit": false,
      "t": 92715,
      "d": 695,
      "v": 69
    },
    {
      "midi": 60,
      "hit": false,
      "t": 93180,
      "d": 70,
      "v": 19
    },
    {
      "midi": 60,
      "hit": false,
      "t": 93460,
      "d": 600,
      "v": 14
    },
    {
      "midi": 67,
      "hit": false,
      "t": 93680,
      "d": 420,
      "v": 75
    },
    {
      "midi": 71,
      "hit": false,
      "t": 93680,
      "d": 505,
      "v": 67
    },
    {
      "midi": 64,
      "hit": false,
      "t": 93685,
      "d": 495,
      "v": 70
    },
    {
      "midi": 64,
      "hit": false,
      "t": 94585,
      "d": 500,
      "v": 75
    },
    {
      "midi": 71,
      "hit": false,
      "t": 94585,
      "d": 675,
      "v": 64
    },
    {
      "midi": 60,
      "hit": false,
      "t": 94590,
      "d": 230,
      "v": 69
    },
    {
      "midi": 67,
      "hit": false,
      "t": 94595,
      "d": 545,
      "v": 74
    },
    {
      "midi": 60,
      "hit": false,
      "t": 95095,
      "d": 120,
      "v": 22
    },
    {
      "midi": 66,
      "hit": false,
      "t": 95560,
      "d": 560,
      "v": 52
    },
    {
      "midi": 26,
      "hit": false,
      "t": 95560,
      "d": 3360,
      "v": 55
    },
    {
      "midi": 69,
      "hit": false,
      "t": 95565,
      "d": 575,
      "v": 42
    },
    {
      "midi": 62,
      "hit": false,
      "t": 95570,
      "d": 560,
      "v": 43
    },
    {
      "midi": 38,
      "hit": false,
      "t": 95605,
      "d": 3380,
      "v": 31
    },
    {
      "midi": 66,
      "hit": false,
      "t": 96485,
      "d": 545,
      "v": 88
    },
    {
      "midi": 69,
      "hit": false,
      "t": 96485,
      "d": 575,
      "v": 75
    },
    {
      "midi": 62,
      "hit": false,
      "t": 96490,
      "d": 560,
      "v": 77
    },
    {
      "midi": 66,
      "hit": false,
      "t": 97425,
      "d": 505,
      "v": 81
    },
    {
      "midi": 62,
      "hit": false,
      "t": 97425,
      "d": 535,
      "v": 77
    },
    {
      "midi": 69,
      "hit": false,
      "t": 97425,
      "d": 555,
      "v": 72
    },
    {
      "midi": 66,
      "hit": false,
      "t": 98370,
      "d": 535,
      "v": 75
    },
    {
      "midi": 69,
      "hit": false,
      "t": 98370,
      "d": 610,
      "v": 65
    },
    {
      "midi": 62,
      "hit": false,
      "t": 98375,
      "d": 255,
      "v": 64
    },
    {
      "midi": 67,
      "hit": false,
      "t": 99355,
      "d": 610,
      "v": 43
    },
    {
      "midi": 64,
      "hit": false,
      "t": 99355,
      "d": 665,
      "v": 30
    },
    {
      "midi": 71,
      "hit": false,
      "t": 99355,
      "d": 680,
      "v": 25
    },
    {
      "midi": 40,
      "hit": false,
      "t": 99365,
      "d": 3255,
      "v": 23
    },
    {
      "midi": 28,
      "hit": false,
      "t": 99385,
      "d": 3230,
      "v": 31
    },
    {
      "midi": 71,
      "hit": false,
      "t": 100330,
      "d": 535,
      "v": 42
    },
    {
      "midi": 64,
      "hit": false,
      "t": 100330,
      "d": 540,
      "v": 40
    },
    {
      "midi": 67,
      "hit": false,
      "t": 100335,
      "d": 505,
      "v": 45
    },
    {
      "midi": 71,
      "hit": false,
      "t": 101265,
      "d": 605,
      "v": 49
    },
    {
      "midi": 64,
      "hit": false,
      "t": 101270,
      "d": 610,
      "v": 44
    },
    {
      "midi": 67,
      "hit": false,
      "t": 101270,
      "d": 635,
      "v": 53
    },
    {
      "midi": 71,
      "hit": false,
      "t": 102165,
      "d": 195,
      "v": 59
    },
    {
      "midi": 64,
      "hit": false,
      "t": 102180,
      "d": 410,
      "v": 53
    },
    {
      "midi": 67,
      "hit": false,
      "t": 102185,
      "d": 165,
      "v": 58
    },
    {
      "midi": 66,
      "hit": false,
      "t": 102435,
      "d": 200,
      "v": 46
    },
    {
      "midi": 69,
      "hit": false,
      "t": 102445,
      "d": 245,
      "v": 38
    },
    {
      "midi": 40,
      "hit": false,
      "t": 103170,
      "d": 1525,
      "v": 48
    },
    {
      "midi": 67,
      "hit": false,
      "t": 103185,
      "d": 560,
      "v": 56
    },
    {
      "midi": 28,
      "hit": false,
      "t": 103185,
      "d": 1655,
      "v": 50
    },
    {
      "midi": 64,
      "hit": false,
      "t": 103190,
      "d": 585,
      "v": 39
    },
    {
      "midi": 71,
      "hit": false,
      "t": 103190,
      "d": 615,
      "v": 51
    },
    {
      "midi": 64,
      "hit": false,
      "t": 104155,
      "d": 275,
      "v": 58
    },
    {
      "midi": 67,
      "hit": false,
      "t": 104155,
      "d": 535,
      "v": 66
    },
    {
      "midi": 71,
      "hit": false,
      "t": 104170,
      "d": 695,
      "v": 62
    },
    {
      "midi": 64,
      "hit": false,
      "t": 104645,
      "d": 175,
      "v": 27
    },
    {
      "midi": 67,
      "hit": false,
      "t": 105140,
      "d": 590,
      "v": 55
    },
    {
      "midi": 71,
      "hit": false,
      "t": 105140,
      "d": 620,
      "v": 47
    },
    {
      "midi": 62,
      "hit": false,
      "t": 105140,
      "d": 625,
      "v": 49
    },
    {
      "midi": 26,
      "hit": false,
      "t": 105145,
      "d": 3480,
      "v": 53
    },
    {
      "midi": 38,
      "hit": false,
      "t": 105165,
      "d": 3120,
      "v": 29
    },
    {
      "midi": 67,
      "hit": false,
      "t": 106120,
      "d": 665,
      "v": 80
    },
    {
      "midi": 71,
      "hit": false,
      "t": 106125,
      "d": 690,
      "v": 82
    },
    {
      "midi": 62,
      "hit": false,
      "t": 106130,
      "d": 250,
      "v": 82
    },
    {
      "midi": 62,
      "hit": false,
      "t": 106580,
      "d": 85,
      "v": 31
    },
    {
      "midi": 62,
      "hit": false,
      "t": 106840,
      "d": 90,
      "v": 24
    },
    {
      "midi": 62,
      "hit": false,
      "t": 107075,
      "d": 275,
      "v": 74
    },
    {
      "midi": 67,
      "hit": false,
      "t": 107080,
      "d": 445,
      "v": 74
    },
    {
      "midi": 71,
      "hit": false,
      "t": 107080,
      "d": 660,
      "v": 83
    },
    {
      "midi": 62,
      "hit": false,
      "t": 107550,
      "d": 75,
      "v": 33
    },
    {
      "midi": 62,
      "hit": false,
      "t": 107790,
      "d": 100,
      "v": 45
    },
    {
      "midi": 62,
      "hit": false,
      "t": 108045,
      "d": 270,
      "v": 92
    },
    {
      "midi": 71,
      "hit": false,
      "t": 108045,
      "d": 790,
      "v": 96
    },
    {
      "midi": 67,
      "hit": false,
      "t": 108050,
      "d": 505,
      "v": 90
    },
    {
      "midi": 38,
      "hit": false,
      "t": 108515,
      "d": 90,
      "v": 75
    },
    {
      "midi": 62,
      "hit": false,
      "t": 108525,
      "d": 325,
      "v": 78
    },
    {
      "midi": 38,
      "hit": false,
      "t": 108750,
      "d": 110,
      "v": 67
    },
    {
      "midi": 26,
      "hit": false,
      "t": 108760,
      "d": 120,
      "v": 62
    },
    {
      "midi": 67,
      "hit": false,
      "t": 108785,
      "d": 110,
      "v": 26
    },
    {
      "midi": 67,
      "hit": false,
      "t": 109025,
      "d": 540,
      "v": 82
    },
    {
      "midi": 36,
      "hit": false,
      "t": 109025,
      "d": 1400,
      "v": 81
    },
    {
      "midi": 60,
      "hit": false,
      "t": 109030,
      "d": 480,
      "v": 82
    },
    {
      "midi": 24,
      "hit": false,
      "t": 109030,
      "d": 1700,
      "v": 92
    },
    {
      "midi": 64,
      "hit": false,
      "t": 109035,
      "d": 600,
      "v": 74
    },
    {
      "midi": 71,
      "hit": false,
      "t": 109040,
      "d": 615,
      "v": 72
    },
    {
      "midi": 71,
      "hit": false,
      "t": 109990,
      "d": 760,
      "v": 86
    },
    {
      "midi": 60,
      "hit": false,
      "t": 110000,
      "d": 260,
      "v": 82
    },
    {
      "midi": 67,
      "hit": false,
      "t": 110000,
      "d": 645,
      "v": 86
    },
    {
      "midi": 64,
      "hit": false,
      "t": 110005,
      "d": 570,
      "v": 84
    },
    {
      "midi": 60,
      "hit": false,
      "t": 110460,
      "d": 80,
      "v": 53
    },
    {
      "midi": 36,
      "hit": false,
      "t": 110680,
      "d": 115,
      "v": 64
    },
    {
      "midi": 60,
      "hit": false,
      "t": 110700,
      "d": 110,
      "v": 49
    },
    {
      "midi": 36,
      "hit": false,
      "t": 110925,
      "d": 1205,
      "v": 79
    },
    {
      "midi": 60,
      "hit": false,
      "t": 110930,
      "d": 245,
      "v": 82
    },
    {
      "midi": 67,
      "hit": false,
      "t": 110930,
      "d": 450,
      "v": 89
    },
    {
      "midi": 71,
      "hit": false,
      "t": 110935,
      "d": 755,
      "v": 87
    },
    {
      "midi": 64,
      "hit": false,
      "t": 110940,
      "d": 595,
      "v": 77
    },
    {
      "midi": 24,
      "hit": false,
      "t": 110940,
      "d": 1745,
      "v": 89
    },
    {
      "midi": 60,
      "hit": false,
      "t": 111420,
      "d": 70,
      "v": 32
    },
    {
      "midi": 60,
      "hit": false,
      "t": 111655,
      "d": 125,
      "v": 55
    },
    {
      "midi": 60,
      "hit": false,
      "t": 111900,
      "d": 220,
      "v": 93
    },
    {
      "midi": 71,
      "hit": false,
      "t": 111900,
      "d": 735,
      "v": 98
    },
    {
      "midi": 67,
      "hit": false,
      "t": 111905,
      "d": 640,
      "v": 93
    },
    {
      "midi": 64,
      "hit": false,
      "t": 111910,
      "d": 525,
      "v": 89
    },
    {
      "midi": 36,
      "hit": false,
      "t": 112360,
      "d": 135,
      "v": 87
    },
    {
      "midi": 60,
      "hit": false,
      "t": 112370,
      "d": 270,
      "v": 78
    },
    {
      "midi": 36,
      "hit": false,
      "t": 112565,
      "d": 160,
      "v": 69
    },
    {
      "midi": 64,
      "hit": false,
      "t": 112600,
      "d": 125,
      "v": 55
    },
    {
      "midi": 69,
      "hit": false,
      "t": 112835,
      "d": 635,
      "v": 97
    },
    {
      "midi": 38,
      "hit": false,
      "t": 112835,
      "d": 1420,
      "v": 92
    },
    {
      "midi": 62,
      "hit": false,
      "t": 112840,
      "d": 645,
      "v": 98
    },
    {
      "midi": 26,
      "hit": false,
      "t": 112840,
      "d": 1760,
      "v": 102
    },
    {
      "midi": 66,
      "hit": false,
      "t": 112845,
      "d": 610,
      "v": 98
    },
    {
      "midi": 69,
      "hit": false,
      "t": 113775,
      "d": 830,
      "v": 102
    },
    {
      "midi": 62,
      "hit": false,
      "t": 113780,
      "d": 280,
      "v": 99
    },
    {
      "midi": 66,
      "hit": false,
      "t": 113780,
      "d": 515,
      "v": 108
    },
    {
      "midi": 62,
      "hit": false,
      "t": 114260,
      "d": 100,
      "v": 72
    },
    {
      "midi": 38,
      "hit": false,
      "t": 114475,
      "d": 150,
      "v": 74
    },
    {
      "midi": 62,
      "hit": false,
      "t": 114490,
      "d": 155,
      "v": 69
    },
    {
      "midi": 69,
      "hit": false,
      "t": 114745,
      "d": 560,
      "v": 93
    },
    {
      "midi": 38,
      "hit": false,
      "t": 114745,
      "d": 1195,
      "v": 91
    },
    {
      "midi": 62,
      "hit": false,
      "t": 114750,
      "d": 340,
      "v": 95
    },
    {
      "midi": 67,
      "hit": false,
      "t": 114750,
      "d": 475,
      "v": 98
    },
    {
      "midi": 26,
      "hit": false,
      "t": 114755,
      "d": 1315,
      "v": 95
    },
    {
      "midi": 67,
      "hit": false,
      "t": 115660,
      "d": 525,
      "v": 103
    },
    {
      "midi": 62,
      "hit": false,
      "t": 115665,
      "d": 285,
      "v": 102
    },
    {
      "midi": 69,
      "hit": false,
      "t": 115665,
      "d": 595,
      "v": 99
    },
    {
      "midi": 62,
      "hit": false,
      "t": 116135,
      "d": 330,
      "v": 87
    },
    {
      "midi": 38,
      "hit": false,
      "t": 116145,
      "d": 130,
      "v": 84
    },
    {
      "midi": 26,
      "hit": false,
      "t": 116150,
      "d": 100,
      "v": 67
    },
    {
      "midi": 38,
      "hit": false,
      "t": 116370,
      "d": 135,
      "v": 68
    },
    {
      "midi": 66,
      "hit": false,
      "t": 116370,
      "d": 140,
      "v": 75
    },
    {
      "midi": 26,
      "hit": false,
      "t": 116385,
      "d": 85,
      "v": 69
    },
    {
      "midi": 40,
      "hit": false,
      "t": 116625,
      "d": 1735,
      "v": 92
    },
    {
      "midi": 71,
      "hit": false,
      "t": 116630,
      "d": 640,
      "v": 104
    },
    {
      "midi": 28,
      "hit": false,
      "t": 116630,
      "d": 1675,
      "v": 100
    },
    {
      "midi": 67,
      "hit": false,
      "t": 116635,
      "d": 570,
      "v": 99
    },
    {
      "midi": 64,
      "hit": false,
      "t": 116635,
      "d": 670,
      "v": 97
    },
    {
      "midi": 64,
      "hit": false,
      "t": 117545,
      "d": 300,
      "v": 98
    },
    {
      "midi": 67,
      "hit": false,
      "t": 117550,
      "d": 595,
      "v": 108
    },
    {
      "midi": 71,
      "hit": false,
      "t": 117550,
      "d": 725,
      "v": 113
    },
    {
      "midi": 64,
      "hit": false,
      "t": 118035,
      "d": 115,
      "v": 62
    },
    {
      "midi": 64,
      "hit": false,
      "t": 118265,
      "d": 145,
      "v": 69
    },
    {
      "midi": 40,
      "hit": false,
      "t": 118495,
      "d": 1175,
      "v": 96
    },
    {
      "midi": 28,
      "hit": false,
      "t": 118500,
      "d": 1605,
      "v": 99
    },
    {
      "midi": 64,
      "hit": false,
      "t": 118505,
      "d": 280,
      "v": 100
    },
    {
      "midi": 67,
      "hit": false,
      "t": 118505,
      "d": 550,
      "v": 106
    },
    {
      "midi": 71,
      "hit": false,
      "t": 118505,
      "d": 685,
      "v": 111
    },
    {
      "midi": 64,
      "hit": false,
      "t": 119205,
      "d": 125,
      "v": 65
    },
    {
      "midi": 67,
      "hit": false,
      "t": 119470,
      "d": 400,
      "v": 109
    },
    {
      "midi": 71,
      "hit": false,
      "t": 119470,
      "d": 450,
      "v": 114
    },
    {
      "midi": 64,
      "hit": false,
      "t": 119470,
      "d": 605,
      "v": 98
    },
    {
      "midi": 40,
      "hit": false,
      "t": 119915,
      "d": 170,
      "v": 98
    },
    {
      "midi": 36,
      "hit": false,
      "t": 120385,
      "d": 1165,
      "v": 98
    },
    {
      "midi": 24,
      "hit": false,
      "t": 120390,
      "d": 1225,
      "v": 103
    },
    {
      "midi": 67,
      "hit": false,
      "t": 120395,
      "d": 530,
      "v": 99
    },
    {
      "midi": 72,
      "hit": false,
      "t": 120395,
      "d": 555,
      "v": 110
    },
    {
      "midi": 64,
      "hit": false,
      "t": 120395,
      "d": 640,
      "v": 100
    },
    {
      "midi": 72,
      "hit": false,
      "t": 121350,
      "d": 645,
      "v": 114
    },
    {
      "midi": 64,
      "hit": false,
      "t": 121350,
      "d": 745,
      "v": 102
    },
    {
      "midi": 67,
      "hit": false,
      "t": 121355,
      "d": 590,
      "v": 102
    },
    {
      "midi": 36,
      "hit": false,
      "t": 121815,
      "d": 120,
      "v": 83
    },
    {
      "midi": 24,
      "hit": false,
      "t": 121825,
      "d": 95,
      "v": 81
    },
    {
      "midi": 24,
      "hit": false,
      "t": 122045,
      "d": 1515,
      "v": 86
    },
    {
      "midi": 36,
      "hit": false,
      "t": 122050,
      "d": 1440,
      "v": 82
    },
    {
      "midi": 67,
      "hit": false,
      "t": 122305,
      "d": 570,
      "v": 103
    },
    {
      "midi": 72,
      "hit": false,
      "t": 122305,
      "d": 580,
      "v": 117
    },
    {
      "midi": 64,
      "hit": false,
      "t": 122310,
      "d": 645,
      "v": 104
    },
    {
      "midi": 72,
      "hit": false,
      "t": 123245,
      "d": 380,
      "v": 115
    },
    {
      "midi": 67,
      "hit": false,
      "t": 123245,
      "d": 395,
      "v": 100
    },
    {
      "midi": 64,
      "hit": false,
      "t": 123245,
      "d": 450,
      "v": 100
    },
    {
      "midi": 36,
      "hit": false,
      "t": 123705,
      "d": 115,
      "v": 84
    },
    {
      "midi": 24,
      "hit": false,
      "t": 123710,
      "d": 100,
      "v": 87
    },
    {
      "midi": 36,
      "hit": false,
      "t": 123970,
      "d": 55,
      "v": 28
    },
    {
      "midi": 69,
      "hit": false,
      "t": 124155,
      "d": 630,
      "v": 105
    },
    {
      "midi": 62,
      "hit": false,
      "t": 124160,
      "d": 650,
      "v": 103
    },
    {
      "midi": 66,
      "hit": false,
      "t": 124165,
      "d": 550,
      "v": 108
    },
    {
      "midi": 38,
      "hit": false,
      "t": 124170,
      "d": 1385,
      "v": 96
    },
    {
      "midi": 26,
      "hit": false,
      "t": 124170,
      "d": 1785,
      "v": 106
    },
    {
      "midi": 62,
      "hit": false,
      "t": 125140,
      "d": 300,
      "v": 103
    },
    {
      "midi": 66,
      "hit": false,
      "t": 125140,
      "d": 450,
      "v": 109
    },
    {
      "midi": 69,
      "hit": false,
      "t": 125140,
      "d": 795,
      "v": 109
    },
    {
      "midi": 62,
      "hit": false,
      "t": 125605,
      "d": 130,
      "v": 82
    },
    {
      "midi": 38,
      "hit": false,
      "t": 125825,
      "d": 130,
      "v": 74
    },
    {
      "midi": 62,
      "hit": false,
      "t": 125825,
      "d": 135,
      "v": 50
    },
    {
      "midi": 66,
      "hit": false,
      "t": 125830,
      "d": 140,
      "v": 84
    },
    {
      "midi": 38,
      "hit": false,
      "t": 126065,
      "d": 835,
      "v": 98
    },
    {
      "midi": 62,
      "hit": false,
      "t": 126070,
      "d": 270,
      "v": 106
    },
    {
      "midi": 69,
      "hit": false,
      "t": 126070,
      "d": 505,
      "v": 109
    },
    {
      "midi": 64,
      "hit": false,
      "t": 126075,
      "d": 530,
      "v": 103
    },
    {
      "midi": 26,
      "hit": false,
      "t": 126080,
      "d": 1685,
      "v": 103
    },
    {
      "midi": 62,
      "hit": false,
      "t": 126505,
      "d": 115,
      "v": 50
    },
    {
      "midi": 69,
      "hit": false,
      "t": 126750,
      "d": 540,
      "v": 111
    },
    {
      "midi": 64,
      "hit": false,
      "t": 126750,
      "d": 555,
      "v": 108
    },
    {
      "midi": 62,
      "hit": false,
      "t": 126755,
      "d": 535,
      "v": 102
    },
    {
      "midi": 38,
      "hit": false,
      "t": 127185,
      "d": 220,
      "v": 104
    },
    {
      "midi": 69,
      "hit": false,
      "t": 127415,
      "d": 320,
      "v": 108
    },
    {
      "midi": 62,
      "hit": false,
      "t": 127420,
      "d": 145,
      "v": 97
    },
    {
      "midi": 64,
      "hit": false,
      "t": 127420,
      "d": 315,
      "v": 103
    },
    {
      "midi": 38,
      "hit": false,
      "t": 127645,
      "d": 110,
      "v": 80
    },
    {
      "midi": 69,
      "hit": false,
      "t": 127875,
      "d": 625,
      "v": 110
    },
    {
      "midi": 67,
      "hit": false,
      "t": 127880,
      "d": 570,
      "v": 111
    },
    {
      "midi": 38,
      "hit": false,
      "t": 127880,
      "d": 1325,
      "v": 103
    },
    {
      "midi": 26,
      "hit": false,
      "t": 127885,
      "d": 1655,
      "v": 104
    },
    {
      "midi": 62,
      "hit": false,
      "t": 127890,
      "d": 330,
      "v": 105
    },
    {
      "midi": 62,
      "hit": false,
      "t": 128370,
      "d": 70,
      "v": 38
    },
    {
      "midi": 62,
      "hit": false,
      "t": 128605,
      "d": 125,
      "v": 73
    },
    {
      "midi": 62,
      "hit": false,
      "t": 128825,
      "d": 305,
      "v": 102
    },
    {
      "midi": 69,
      "hit": false,
      "t": 128825,
      "d": 605,
      "v": 115
    },
    {
      "midi": 67,
      "hit": false,
      "t": 129050,
      "d": 270,
      "v": 83
    },
    {
      "midi": 62,
      "hit": false,
      "t": 129285,
      "d": 320,
      "v": 97
    },
    {
      "midi": 69,
      "hit": false,
      "t": 129490,
      "d": 100,
      "v": 57
    },
    {
      "midi": 38,
      "hit": false,
      "t": 129490,
      "d": 120,
      "v": 98
    },
    {
      "midi": 67,
      "hit": false,
      "t": 129495,
      "d": 145,
      "v": 98
    },
    {
      "midi": 62,
      "hit": false,
      "t": 129715,
      "d": 270,
      "v": 106
    },
    {
      "midi": 69,
      "hit": false,
      "t": 129715,
      "d": 550,
      "v": 109
    },
    {
      "midi": 38,
      "hit": false,
      "t": 129720,
      "d": 835,
      "v": 108
    },
    {
      "midi": 26,
      "hit": false,
      "t": 129720,
      "d": 1085,
      "v": 113
    },
    {
      "midi": 66,
      "hit": false,
      "t": 129725,
      "d": 510,
      "v": 105
    },
    {
      "midi": 62,
      "hit": false,
      "t": 130185,
      "d": 120,
      "v": 82
    },
    {
      "midi": 69,
      "hit": false,
      "t": 130405,
      "d": 235,
      "v": 110
    },
    {
      "midi": 62,
      "hit": false,
      "t": 130410,
      "d": 170,
      "v": 104
    },
    {
      "midi": 66,
      "hit": false,
      "t": 130410,
      "d": 230,
      "v": 111
    },
    {
      "midi": 38,
      "hit": false,
      "t": 130700,
      "d": 90,
      "v": 37
    },
    {
      "midi": 62,
      "hit": false,
      "t": 130875,
      "d": 130,
      "v": 98
    },
    {
      "midi": 69,
      "hit": false,
      "t": 130880,
      "d": 110,
      "v": 93
    },
    {
      "midi": 64,
      "hit": false,
      "t": 130900,
      "d": 70,
      "v": 75
    },
    {
      "midi": 69,
      "hit": false,
      "t": 131095,
      "d": 175,
      "v": 110
    },
    {
      "midi": 38,
      "hit": false,
      "t": 131095,
      "d": 185,
      "v": 102
    },
    {
      "midi": 62,
      "hit": false,
      "t": 131100,
      "d": 115,
      "v": 97
    },
    {
      "midi": 64,
      "hit": false,
      "t": 131100,
      "d": 135,
      "v": 104
    },
    {
      "midi": 26,
      "hit": false,
      "t": 131105,
      "d": 170,
      "v": 103
    },
    {
      "midi": 71,
      "hit": false,
      "t": 131565,
      "d": 585,
      "v": 115
    },
    {
      "midi": 40,
      "hit": false,
      "t": 131565,
      "d": 2995,
      "v": 109
    },
    {
      "midi": 28,
      "hit": false,
      "t": 131565,
      "d": 3255,
      "v": 113
    },
    {
      "midi": 64,
      "hit": false,
      "t": 131570,
      "d": 590,
      "v": 106
    },
    {
      "midi": 67,
      "hit": false,
      "t": 131575,
      "d": 480,
      "v": 110
    },
    {
      "midi": 71,
      "hit": false,
      "t": 132485,
      "d": 760,
      "v": 115
    },
    {
      "midi": 64,
      "hit": false,
      "t": 132490,
      "d": 310,
      "v": 104
    },
    {
      "midi": 67,
      "hit": false,
      "t": 132490,
      "d": 605,
      "v": 108
    },
    {
      "midi": 64,
      "hit": false,
      "t": 132980,
      "d": 75,
      "v": 58
    },
    {
      "midi": 64,
      "hit": false,
      "t": 133195,
      "d": 140,
      "v": 70
    },
    {
      "midi": 71,
      "hit": false,
      "t": 133445,
      "d": 600,
      "v": 115
    },
    {
      "midi": 64,
      "hit": false,
      "t": 133445,
      "d": 675,
      "v": 102
    },
    {
      "midi": 67,
      "hit": false,
      "t": 133450,
      "d": 425,
      "v": 103
    },
    {
      "midi": 71,
      "hit": false,
      "t": 134370,
      "d": 610,
      "v": 115
    },
    {
      "midi": 64,
      "hit": false,
      "t": 134375,
      "d": 275,
      "v": 98
    },
    {
      "midi": 67,
      "hit": false,
      "t": 134375,
      "d": 490,
      "v": 105
    },
    {
      "midi": 64,
      "hit": false,
      "t": 134825,
      "d": 320,
      "v": 82
    },
    {
      "midi": 67,
      "hit": false,
      "t": 135040,
      "d": 120,
      "v": 61
    },
    {
      "midi": 64,
      "hit": false,
      "t": 135280,
      "d": 685,
      "v": 99
    },
    {
      "midi": 24,
      "hit": false,
      "t": 135280,
      "d": 3300,
      "v": 99
    },
    {
      "midi": 72,
      "hit": false,
      "t": 135285,
      "d": 605,
      "v": 114
    },
    {
      "midi": 36,
      "hit": false,
      "t": 135285,
      "d": 3355,
      "v": 102
    },
    {
      "midi": 67,
      "hit": false,
      "t": 135290,
      "d": 585,
      "v": 97
    },
    {
      "midi": 64,
      "hit": false,
      "t": 136265,
      "d": 285,
      "v": 102
    },
    {
      "midi": 72,
      "hit": false,
      "t": 136265,
      "d": 630,
      "v": 114
    },
    {
      "midi": 67,
      "hit": false,
      "t": 136270,
      "d": 385,
      "v": 100
    },
    {
      "midi": 64,
      "hit": false,
      "t": 136760,
      "d": 60,
      "v": 21
    },
    {
      "midi": 64,
      "hit": false,
      "t": 136965,
      "d": 105,
      "v": 49
    },
    {
      "midi": 64,
      "hit": false,
      "t": 137215,
      "d": 280,
      "v": 104
    },
    {
      "midi": 72,
      "hit": false,
      "t": 137215,
      "d": 610,
      "v": 115
    },
    {
      "midi": 67,
      "hit": false,
      "t": 137220,
      "d": 550,
      "v": 103
    },
    {
      "midi": 64,
      "hit": false,
      "t": 137660,
      "d": 120,
      "v": 55
    },
    {
      "midi": 64,
      "hit": false,
      "t": 137905,
      "d": 120,
      "v": 61
    },
    {
      "midi": 64,
      "hit": false,
      "t": 138130,
      "d": 310,
      "v": 103
    },
    {
      "midi": 72,
      "hit": false,
      "t": 138130,
      "d": 335,
      "v": 115
    },
    {
      "midi": 67,
      "hit": false,
      "t": 138135,
      "d": 365,
      "v": 103
    },
    {
      "midi": 62,
      "hit": false,
      "t": 139055,
      "d": 565,
      "v": 105
    },
    {
      "midi": 66,
      "hit": false,
      "t": 139060,
      "d": 490,
      "v": 111
    },
    {
      "midi": 69,
      "hit": false,
      "t": 139060,
      "d": 560,
      "v": 109
    },
    {
      "midi": 26,
      "hit": false,
      "t": 139065,
      "d": 1745,
      "v": 102
    },
    {
      "midi": 38,
      "hit": false,
      "t": 139070,
      "d": 1520,
      "v": 99
    },
    {
      "midi": 62,
      "hit": false,
      "t": 140045,
      "d": 280,
      "v": 100
    },
    {
      "midi": 66,
      "hit": false,
      "t": 140045,
      "d": 505,
      "v": 107
    },
    {
      "midi": 69,
      "hit": false,
      "t": 140045,
      "d": 830,
      "v": 109
    },
    {
      "midi": 62,
      "hit": false,
      "t": 140505,
      "d": 135,
      "v": 76
    },
    {
      "midi": 38,
      "hit": false,
      "t": 140715,
      "d": 145,
      "v": 79
    },
    {
      "midi": 62,
      "hit": false,
      "t": 140720,
      "d": 125,
      "v": 60
    },
    {
      "midi": 66,
      "hit": false,
      "t": 140725,
      "d": 135,
      "v": 73
    },
    {
      "midi": 69,
      "hit": false,
      "t": 140965,
      "d": 545,
      "v": 104
    },
    {
      "midi": 38,
      "hit": false,
      "t": 140965,
      "d": 1460,
      "v": 91
    },
    {
      "midi": 62,
      "hit": false,
      "t": 140970,
      "d": 255,
      "v": 99
    },
    {
      "midi": 67,
      "hit": false,
      "t": 140970,
      "d": 545,
      "v": 106
    },
    {
      "midi": 26,
      "hit": false,
      "t": 140975,
      "d": 1685,
      "v": 95
    },
    {
      "midi": 62,
      "hit": false,
      "t": 141435,
      "d": 125,
      "v": 74
    },
    {
      "midi": 69,
      "hit": false,
      "t": 141670,
      "d": 510,
      "v": 113
    },
    {
      "midi": 62,
      "hit": false,
      "t": 141675,
      "d": 275,
      "v": 104
    },
    {
      "midi": 67,
      "hit": false,
      "t": 141675,
      "d": 485,
      "v": 110
    },
    {
      "midi": 62,
      "hit": false,
      "t": 142110,
      "d": 135,
      "v": 87
    },
    {
      "midi": 69,
      "hit": false,
      "t": 142335,
      "d": 340,
      "v": 110
    },
    {
      "midi": 62,
      "hit": false,
      "t": 142345,
      "d": 115,
      "v": 93
    },
    {
      "midi": 67,
      "hit": false,
      "t": 142345,
      "d": 315,
      "v": 106
    },
    {
      "midi": 38,
      "hit": false,
      "t": 142575,
      "d": 140,
      "v": 92
    },
    {
      "midi": 62,
      "hit": false,
      "t": 142580,
      "d": 135,
      "v": 93
    },
    {
      "midi": 69,
      "hit": false,
      "t": 142800,
      "d": 735,
      "v": 111
    },
    {
      "midi": 62,
      "hit": false,
      "t": 142805,
      "d": 295,
      "v": 100
    },
    {
      "midi": 66,
      "hit": false,
      "t": 142815,
      "d": 590,
      "v": 100
    },
    {
      "midi": 38,
      "hit": false,
      "t": 142815,
      "d": 1345,
      "v": 103
    },
    {
      "midi": 26,
      "hit": false,
      "t": 142815,
      "d": 1660,
      "v": 104
    },
    {
      "midi": 62,
      "hit": false,
      "t": 143265,
      "d": 90,
      "v": 78
    },
    {
      "midi": 62,
      "hit": false,
      "t": 143485,
      "d": 180,
      "v": 94
    },
    {
      "midi": 62,
      "hit": false,
      "t": 143710,
      "d": 280,
      "v": 96
    },
    {
      "midi": 69,
      "hit": false,
      "t": 143710,
      "d": 795,
      "v": 117
    },
    {
      "midi": 66,
      "hit": false,
      "t": 143935,
      "d": 275,
      "v": 98
    },
    {
      "midi": 62,
      "hit": false,
      "t": 144165,
      "d": 335,
      "v": 93
    },
    {
      "midi": 38,
      "hit": false,
      "t": 144365,
      "d": 160,
      "v": 93
    },
    {
      "midi": 66,
      "hit": false,
      "t": 144385,
      "d": 140,
      "v": 84
    },
    {
      "midi": 38,
      "hit": false,
      "t": 144605,
      "d": 1005,
      "v": 88
    },
    {
      "midi": 69,
      "hit": false,
      "t": 144615,
      "d": 525,
      "v": 110
    },
    {
      "midi": 62,
      "hit": false,
      "t": 144620,
      "d": 270,
      "v": 105
    },
    {
      "midi": 26,
      "hit": false,
      "t": 144620,
      "d": 1185,
      "v": 109
    },
    {
      "midi": 67,
      "hit": false,
      "t": 144625,
      "d": 485,
      "v": 108
    },
    {
      "midi": 62,
      "hit": false,
      "t": 145065,
      "d": 125,
      "v": 85
    },
    {
      "midi": 69,
      "hit": false,
      "t": 145295,
      "d": 490,
      "v": 113
    },
    {
      "midi": 67,
      "hit": false,
      "t": 145300,
      "d": 400,
      "v": 109
    },
    {
      "midi": 62,
      "hit": false,
      "t": 145305,
      "d": 200,
      "v": 102
    },
    {
      "midi": 62,
      "hit": false,
      "t": 145715,
      "d": 130,
      "v": 92
    },
    {
      "midi": 38,
      "hit": false,
      "t": 145730,
      "d": 115,
      "v": 87
    },
    {
      "midi": 69,
      "hit": false,
      "t": 145950,
      "d": 295,
      "v": 106
    },
    {
      "midi": 62,
      "hit": false,
      "t": 145955,
      "d": 110,
      "v": 100
    },
    {
      "midi": 66,
      "hit": false,
      "t": 145955,
      "d": 315,
      "v": 109
    },
    {
      "midi": 38,
      "hit": false,
      "t": 145960,
      "d": 125,
      "v": 95
    },
    {
      "midi": 26,
      "hit": false,
      "t": 145970,
      "d": 115,
      "v": 97
    },
    {
      "midi": 62,
      "hit": false,
      "t": 146180,
      "d": 130,
      "v": 86
    },
    {
      "midi": 26,
      "hit": false,
      "t": 146195,
      "d": 95,
      "v": 88
    },
    {
      "midi": 38,
      "hit": false,
      "t": 146195,
      "d": 105,
      "v": 88
    },
    {
      "midi": 40,
      "hit": false,
      "t": 146415,
      "d": 1500,
      "v": 106
    },
    {
      "midi": 71,
      "hit": false,
      "t": 146420,
      "d": 560,
      "v": 113
    },
    {
      "midi": 28,
      "hit": false,
      "t": 146420,
      "d": 3290,
      "v": 111
    },
    {
      "midi": 67,
      "hit": false,
      "t": 146425,
      "d": 520,
      "v": 108
    },
    {
      "midi": 64,
      "hit": false,
      "t": 146425,
      "d": 670,
      "v": 106
    },
    {
      "midi": 71,
      "hit": false,
      "t": 147340,
      "d": 785,
      "v": 117
    },
    {
      "midi": 64,
      "hit": false,
      "t": 147345,
      "d": 295,
      "v": 105
    },
    {
      "midi": 67,
      "hit": false,
      "t": 147345,
      "d": 750,
      "v": 110
    },
    {
      "midi": 64,
      "hit": false,
      "t": 147805,
      "d": 115,
      "v": 70
    },
    {
      "midi": 40,
      "hit": false,
      "t": 148005,
      "d": 130,
      "v": 51
    },
    {
      "midi": 64,
      "hit": false,
      "t": 148030,
      "d": 155,
      "v": 74
    },
    {
      "midi": 40,
      "hit": false,
      "t": 148255,
      "d": 1270,
      "v": 89
    },
    {
      "midi": 64,
      "hit": false,
      "t": 148275,
      "d": 310,
      "v": 97
    },
    {
      "midi": 71,
      "hit": false,
      "t": 148275,
      "d": 570,
      "v": 111
    },
    {
      "midi": 67,
      "hit": false,
      "t": 148280,
      "d": 480,
      "v": 103
    },
    {
      "midi": 67,
      "hit": false,
      "t": 149230,
      "d": 370,
      "v": 111
    },
    {
      "midi": 71,
      "hit": false,
      "t": 149230,
      "d": 400,
      "v": 113
    },
    {
      "midi": 64,
      "hit": false,
      "t": 149240,
      "d": 300,
      "v": 98
    },
    {
      "midi": 67,
      "hit": false,
      "t": 150135,
      "d": 610,
      "v": 103
    },
    {
      "midi": 72,
      "hit": false,
      "t": 150135,
      "d": 640,
      "v": 115
    },
    {
      "midi": 24,
      "hit": false,
      "t": 150135,
      "d": 3435,
      "v": 98
    },
    {
      "midi": 36,
      "hit": false,
      "t": 150140,
      "d": 3050,
      "v": 94
    },
    {
      "midi": 64,
      "hit": false,
      "t": 150145,
      "d": 820,
      "v": 96
    },
    {
      "midi": 72,
      "hit": false,
      "t": 151100,
      "d": 755,
      "v": 114
    },
    {
      "midi": 64,
      "hit": false,
      "t": 151105,
      "d": 285,
      "v": 100
    },
    {
      "midi": 67,
      "hit": false,
      "t": 151105,
      "d": 560,
      "v": 104
    },
    {
      "midi": 64,
      "hit": false,
      "t": 151555,
      "d": 80,
      "v": 44
    },
    {
      "midi": 64,
      "hit": false,
      "t": 151770,
      "d": 140,
      "v": 64
    },
    {
      "midi": 64,
      "hit": false,
      "t": 152015,
      "d": 265,
      "v": 103
    },
    {
      "midi": 72,
      "hit": false,
      "t": 152015,
      "d": 755,
      "v": 114
    },
    {
      "midi": 67,
      "hit": false,
      "t": 152020,
      "d": 575,
      "v": 102
    },
    {
      "midi": 64,
      "hit": false,
      "t": 152480,
      "d": 100,
      "v": 66
    },
    {
      "midi": 64,
      "hit": false,
      "t": 152705,
      "d": 125,
      "v": 61
    },
    {
      "midi": 64,
      "hit": false,
      "t": 152935,
      "d": 285,
      "v": 104
    },
    {
      "midi": 72,
      "hit": false,
      "t": 152935,
      "d": 385,
      "v": 115
    },
    {
      "midi": 67,
      "hit": false,
      "t": 152940,
      "d": 545,
      "v": 102
    },
    {
      "midi": 72,
      "hit": false,
      "t": 153395,
      "d": 150,
      "v": 88
    },
    {
      "midi": 36,
      "hit": false,
      "t": 153400,
      "d": 125,
      "v": 80
    },
    {
      "midi": 64,
      "hit": false,
      "t": 153405,
      "d": 215,
      "v": 77
    },
    {
      "midi": 36,
      "hit": false,
      "t": 153605,
      "d": 125,
      "v": 61
    },
    {
      "midi": 67,
      "hit": false,
      "t": 153640,
      "d": 70,
      "v": 37
    },
    {
      "midi": 69,
      "hit": false,
      "t": 153845,
      "d": 595,
      "v": 110
    },
    {
      "midi": 62,
      "hit": false,
      "t": 153850,
      "d": 550,
      "v": 106
    },
    {
      "midi": 38,
      "hit": false,
      "t": 153850,
      "d": 1470,
      "v": 100
    },
    {
      "midi": 26,
      "hit": false,
      "t": 153850,
      "d": 1695,
      "v": 109
    },
    {
      "midi": 66,
      "hit": false,
      "t": 153860,
      "d": 515,
      "v": 103
    },
    {
      "midi": 69,
      "hit": false,
      "t": 154790,
      "d": 770,
      "v": 113
    },
    {
      "midi": 62,
      "hit": false,
      "t": 154795,
      "d": 245,
      "v": 110
    },
    {
      "midi": 66,
      "hit": false,
      "t": 154795,
      "d": 525,
      "v": 110
    },
    {
      "midi": 62,
      "hit": false,
      "t": 155235,
      "d": 105,
      "v": 81
    },
    {
      "midi": 38,
      "hit": false,
      "t": 155420,
      "d": 170,
      "v": 69
    },
    {
      "midi": 66,
      "hit": false,
      "t": 155460,
      "d": 80,
      "v": 68
    },
    {
      "midi": 62,
      "hit": false,
      "t": 155460,
      "d": 100,
      "v": 73
    },
    {
      "midi": 38,
      "hit": false,
      "t": 155680,
      "d": 1020,
      "v": 92
    },
    {
      "midi": 69,
      "hit": false,
      "t": 155685,
      "d": 485,
      "v": 110
    },
    {
      "midi": 26,
      "hit": false,
      "t": 155685,
      "d": 1460,
      "v": 104
    },
    {
      "midi": 62,
      "hit": false,
      "t": 155690,
      "d": 235,
      "v": 105
    },
    {
      "midi": 67,
      "hit": false,
      "t": 155690,
      "d": 440,
      "v": 109
    },
    {
      "midi": 62,
      "hit": false,
      "t": 156135,
      "d": 95,
      "v": 69
    },
    {
      "midi": 69,
      "hit": false,
      "t": 156365,
      "d": 535,
      "v": 115
    },
    {
      "midi": 62,
      "hit": false,
      "t": 156370,
      "d": 260,
      "v": 108
    },
    {
      "midi": 67,
      "hit": false,
      "t": 156370,
      "d": 520,
      "v": 110
    },
    {
      "midi": 62,
      "hit": false,
      "t": 156800,
      "d": 150,
      "v": 90
    },
    {
      "midi": 69,
      "hit": false,
      "t": 157030,
      "d": 315,
      "v": 109
    },
    {
      "midi": 62,
      "hit": false,
      "t": 157035,
      "d": 100,
      "v": 87
    },
    {
      "midi": 67,
      "hit": false,
      "t": 157035,
      "d": 305,
      "v": 105
    },
    {
      "midi": 38,
      "hit": false,
      "t": 157040,
      "d": 140,
      "v": 100
    },
    {
      "midi": 38,
      "hit": false,
      "t": 157245,
      "d": 165,
      "v": 92
    },
    {
      "midi": 26,
      "hit": false,
      "t": 157250,
      "d": 110,
      "v": 81
    },
    {
      "midi": 62,
      "hit": false,
      "t": 157250,
      "d": 140,
      "v": 93
    },
    {
      "midi": 38,
      "hit": false,
      "t": 157475,
      "d": 1235,
      "v": 93
    },
    {
      "midi": 62,
      "hit": false,
      "t": 157480,
      "d": 285,
      "v": 105
    },
    {
      "midi": 69,
      "hit": false,
      "t": 157480,
      "d": 715,
      "v": 111
    },
    {
      "midi": 66,
      "hit": false,
      "t": 157485,
      "d": 565,
      "v": 109
    },
    {
      "midi": 26,
      "hit": false,
      "t": 157485,
      "d": 1685,
      "v": 106
    },
    {
      "midi": 62,
      "hit": false,
      "t": 157935,
      "d": 70,
      "v": 41
    },
    {
      "midi": 62,
      "hit": false,
      "t": 158155,
      "d": 195,
      "v": 78
    },
    {
      "midi": 62,
      "hit": false,
      "t": 158380,
      "d": 285,
      "v": 64
    },
    {
      "midi": 69,
      "hit": false,
      "t": 158385,
      "d": 790,
      "v": 115
    },
    {
      "midi": 66,
      "hit": false,
      "t": 158605,
      "d": 270,
      "v": 100
    },
    {
      "midi": 62,
      "hit": false,
      "t": 158840,
      "d": 330,
      "v": 94
    },
    {
      "midi": 66,
      "hit": false,
      "t": 159045,
      "d": 145,
      "v": 94
    },
    {
      "midi": 38,
      "hit": false,
      "t": 159055,
      "d": 130,
      "v": 95
    },
    {
      "midi": 62,
      "hit": false,
      "t": 159285,
      "d": 270,
      "v": 109
    },
    {
      "midi": 69,
      "hit": false,
      "t": 159285,
      "d": 515,
      "v": 113
    },
    {
      "midi": 67,
      "hit": false,
      "t": 159290,
      "d": 490,
      "v": 111
    },
    {
      "midi": 26,
      "hit": false,
      "t": 159290,
      "d": 1115,
      "v": 105
    },
    {
      "midi": 38,
      "hit": false,
      "t": 159295,
      "d": 925,
      "v": 110
    },
    {
      "midi": 62,
      "hit": false,
      "t": 159725,
      "d": 135,
      "v": 90
    },
    {
      "midi": 69,
      "hit": false,
      "t": 159955,
      "d": 405,
      "v": 114
    },
    {
      "midi": 62,
      "hit": false,
      "t": 159960,
      "d": 130,
      "v": 102
    },
    {
      "midi": 67,
      "hit": false,
      "t": 159960,
      "d": 345,
      "v": 109
    },
    {
      "midi": 38,
      "hit": false,
      "t": 160360,
      "d": 125,
      "v": 91
    },
    {
      "midi": 62,
      "hit": false,
      "t": 160375,
      "d": 125,
      "v": 97
    },
    {
      "midi": 69,
      "hit": false,
      "t": 160600,
      "d": 240,
      "v": 108
    },
    {
      "midi": 62,
      "hit": false,
      "t": 160605,
      "d": 110,
      "v": 98
    },
    {
      "midi": 66,
      "hit": false,
      "t": 160610,
      "d": 290,
      "v": 102
    },
    {
      "midi": 38,
      "hit": false,
      "t": 160615,
      "d": 110,
      "v": 96
    },
    {
      "midi": 26,
      "hit": false,
      "t": 160625,
      "d": 105,
      "v": 108
    },
    {
      "midi": 62,
      "hit": false,
      "t": 160835,
      "d": 125,
      "v": 91
    },
    {
      "midi": 38,
      "hit": false,
      "t": 160840,
      "d": 100,
      "v": 90
    },
    {
      "midi": 26,
      "hit": false,
      "t": 160845,
      "d": 95,
      "v": 93
    },
    {
      "midi": 40,
      "hit": false,
      "t": 161060,
      "d": 1150,
      "v": 108
    },
    {
      "midi": 28,
      "hit": false,
      "t": 161060,
      "d": 3285,
      "v": 111
    },
    {
      "midi": 71,
      "hit": false,
      "t": 161065,
      "d": 560,
      "v": 114
    },
    {
      "midi": 64,
      "hit": false,
      "t": 161065,
      "d": 625,
      "v": 108
    },
    {
      "midi": 67,
      "hit": false,
      "t": 161070,
      "d": 520,
      "v": 109
    },
    {
      "midi": 71,
      "hit": false,
      "t": 161960,
      "d": 665,
      "v": 118
    },
    {
      "midi": 64,
      "hit": false,
      "t": 161960,
      "d": 740,
      "v": 105
    },
    {
      "midi": 67,
      "hit": false,
      "t": 161965,
      "d": 580,
      "v": 108
    },
    {
      "midi": 40,
      "hit": false,
      "t": 162425,
      "d": 100,
      "v": 84
    },
    {
      "midi": 40,
      "hit": false,
      "t": 162625,
      "d": 1500,
      "v": 76
    },
    {
      "midi": 71,
      "hit": false,
      "t": 162880,
      "d": 560,
      "v": 115
    },
    {
      "midi": 67,
      "hit": false,
      "t": 162885,
      "d": 435,
      "v": 113
    },
    {
      "midi": 64,
      "hit": false,
      "t": 162885,
      "d": 445,
      "v": 104
    },
    {
      "midi": 67,
      "hit": false,
      "t": 163825,
      "d": 330,
      "v": 111
    },
    {
      "midi": 71,
      "hit": false,
      "t": 163825,
      "d": 385,
      "v": 118
    },
    {
      "midi": 64,
      "hit": false,
      "t": 163830,
      "d": 395,
      "v": 104
    },
    {
      "midi": 72,
      "hit": false,
      "t": 164715,
      "d": 595,
      "v": 117
    },
    {
      "midi": 24,
      "hit": false,
      "t": 164715,
      "d": 3305,
      "v": 102
    },
    {
      "midi": 36,
      "hit": false,
      "t": 164715,
      "d": 3395,
      "v": 97
    },
    {
      "midi": 64,
      "hit": false,
      "t": 164720,
      "d": 725,
      "v": 104
    },
    {
      "midi": 67,
      "hit": false,
      "t": 164725,
      "d": 550,
      "v": 103
    },
    {
      "midi": 72,
      "hit": false,
      "t": 165675,
      "d": 575,
      "v": 117
    },
    {
      "midi": 64,
      "hit": false,
      "t": 165680,
      "d": 590,
      "v": 109
    },
    {
      "midi": 67,
      "hit": false,
      "t": 165685,
      "d": 530,
      "v": 100
    },
    {
      "midi": 72,
      "hit": false,
      "t": 166650,
      "d": 530,
      "v": 117
    },
    {
      "midi": 64,
      "hit": false,
      "t": 166655,
      "d": 460,
      "v": 103
    },
    {
      "midi": 67,
      "hit": false,
      "t": 166655,
      "d": 500,
      "v": 104
    },
    {
      "midi": 72,
      "hit": false,
      "t": 167580,
      "d": 235,
      "v": 113
    },
    {
      "midi": 67,
      "hit": false,
      "t": 167580,
      "d": 245,
      "v": 102
    },
    {
      "midi": 64,
      "hit": false,
      "t": 167580,
      "d": 315,
      "v": 99
    },
    {
      "midi": 66,
      "hit": false,
      "t": 168480,
      "d": 605,
      "v": 72
    },
    {
      "midi": 69,
      "hit": false,
      "t": 168480,
      "d": 620,
      "v": 74
    },
    {
      "midi": 62,
      "hit": false,
      "t": 168490,
      "d": 630,
      "v": 73
    },
    {
      "midi": 26,
      "hit": false,
      "t": 168495,
      "d": 7300,
      "v": 63
    },
    {
      "midi": 38,
      "hit": false,
      "t": 168505,
      "d": 3575,
      "v": 37
    },
    {
      "midi": 69,
      "hit": false,
      "t": 169445,
      "d": 630,
      "v": 67
    },
    {
      "midi": 66,
      "hit": false,
      "t": 169450,
      "d": 505,
      "v": 73
    },
    {
      "midi": 62,
      "hit": false,
      "t": 169450,
      "d": 530,
      "v": 66
    },
    {
      "midi": 62,
      "hit": false,
      "t": 170400,
      "d": 395,
      "v": 64
    },
    {
      "midi": 69,
      "hit": false,
      "t": 170400,
      "d": 440,
      "v": 51
    },
    {
      "midi": 67,
      "hit": false,
      "t": 170410,
      "d": 405,
      "v": 63
    },
    {
      "midi": 69,
      "hit": false,
      "t": 171135,
      "d": 600,
      "v": 55
    },
    {
      "midi": 62,
      "hit": false,
      "t": 171145,
      "d": 590,
      "v": 66
    },
    {
      "midi": 67,
      "hit": false,
      "t": 171145,
      "d": 590,
      "v": 64
    },
    {
      "midi": 69,
      "hit": false,
      "t": 171900,
      "d": 205,
      "v": 58
    },
    {
      "midi": 67,
      "hit": false,
      "t": 171910,
      "d": 175,
      "v": 63
    },
    {
      "midi": 62,
      "hit": false,
      "t": 171910,
      "d": 190,
      "v": 66
    },
    {
      "midi": 66,
      "hit": false,
      "t": 172430,
      "d": 585,
      "v": 53
    },
    {
      "midi": 69,
      "hit": false,
      "t": 172430,
      "d": 590,
      "v": 32
    },
    {
      "midi": 62,
      "hit": false,
      "t": 172435,
      "d": 570,
      "v": 42
    },
    {
      "midi": 38,
      "hit": false,
      "t": 172435,
      "d": 3415,
      "v": 35
    },
    {
      "midi": 69,
      "hit": false,
      "t": 173390,
      "d": 615,
      "v": 45
    },
    {
      "midi": 62,
      "hit": false,
      "t": 173395,
      "d": 535,
      "v": 52
    },
    {
      "midi": 66,
      "hit": false,
      "t": 173395,
      "d": 600,
      "v": 66
    },
    {
      "midi": 62,
      "hit": false,
      "t": 174375,
      "d": 335,
      "v": 52
    },
    {
      "midi": 66,
      "hit": false,
      "t": 174375,
      "d": 365,
      "v": 65
    },
    {
      "midi": 69,
      "hit": false,
      "t": 174375,
      "d": 405,
      "v": 46
    },
    {
      "midi": 69,
      "hit": false,
      "t": 175335,
      "d": 355,
      "v": 48
    },
    {
      "midi": 62,
      "hit": false,
      "t": 175350,
      "d": 290,
      "v": 48
    },
    {
      "midi": 66,
      "hit": false,
      "t": 175355,
      "d": 345,
      "v": 55
    },
    {
      "midi": 67,
      "hit": false,
      "t": 176360,
      "d": 610,
      "v": 12
    },
    {
      "midi": 71,
      "hit": false,
      "t": 176360,
      "d": 610,
      "v": 12
    },
    {
      "midi": 28,
      "hit": false,
      "t": 176370,
      "d": 3570,
      "v": 13
    },
    {
      "midi": 40,
      "hit": false,
      "t": 176380,
      "d": 3445,
      "v": 6
    },
    {
      "midi": 64,
      "hit": false,
      "t": 176390,
      "d": 600,
      "v": 8
    },
    {
      "midi": 67,
      "hit": false,
      "t": 177380,
      "d": 525,
      "v": 39
    },
    {
      "midi": 71,
      "hit": false,
      "t": 177380,
      "d": 560,
      "v": 31
    },
    {
      "midi": 64,
      "hit": false,
      "t": 177860,
      "d": 495,
      "v": 32
    },
    {
      "midi": 71,
      "hit": false,
      "t": 178355,
      "d": 490,
      "v": 40
    },
    {
      "midi": 67,
      "hit": false,
      "t": 178365,
      "d": 460,
      "v": 50
    },
    {
      "midi": 64,
      "hit": false,
      "t": 178850,
      "d": 500,
      "v": 10
    },
    {
      "midi": 71,
      "hit": false,
      "t": 179350,
      "d": 620,
      "v": 42
    },
    {
      "midi": 67,
      "hit": false,
      "t": 179365,
      "d": 455,
      "v": 58
    },
    {
      "midi": 64,
      "hit": false,
      "t": 179825,
      "d": 175,
      "v": 19
    },
    {
      "midi": 71,
      "hit": false,
      "t": 180315,
      "d": 575,
      "v": 50
    },
    {
      "midi": 38,
      "hit": false,
      "t": 180325,
      "d": 3335,
      "v": 35
    },
    {
      "midi": 67,
      "hit": false,
      "t": 180330,
      "d": 490,
      "v": 51
    },
    {
      "midi": 26,
      "hit": false,
      "t": 180335,
      "d": 3535,
      "v": 33
    },
    {
      "midi": 62,
      "hit": false,
      "t": 180805,
      "d": 585,
      "v": 42
    },
    {
      "midi": 71,
      "hit": false,
      "t": 181305,
      "d": 585,
      "v": 61
    },
    {
      "midi": 67,
      "hit": false,
      "t": 181310,
      "d": 515,
      "v": 73
    },
    {
      "midi": 62,
      "hit": false,
      "t": 181775,
      "d": 615,
      "v": 58
    },
    {
      "midi": 71,
      "hit": false,
      "t": 182280,
      "d": 650,
      "v": 55
    },
    {
      "midi": 67,
      "hit": false,
      "t": 182295,
      "d": 590,
      "v": 69
    },
    {
      "midi": 62,
      "hit": false,
      "t": 182785,
      "d": 505,
      "v": 33
    },
    {
      "midi": 71,
      "hit": false,
      "t": 183270,
      "d": 635,
      "v": 71
    },
    {
      "midi": 67,
      "hit": false,
      "t": 183280,
      "d": 490,
      "v": 74
    },
    {
      "midi": 62,
      "hit": false,
      "t": 183740,
      "d": 190,
      "v": 53
    },
    {
      "midi": 67,
      "hit": false,
      "t": 184220,
      "d": 555,
      "v": 59
    },
    {
      "midi": 64,
      "hit": false,
      "t": 184225,
      "d": 590,
      "v": 56
    },
    {
      "midi": 24,
      "hit": false,
      "t": 184240,
      "d": 3325,
      "v": 52
    },
    {
      "midi": 36,
      "hit": false,
      "t": 184240,
      "d": 3400,
      "v": 34
    },
    {
      "midi": 60,
      "hit": false,
      "t": 184730,
      "d": 425,
      "v": 27
    },
    {
      "midi": 67,
      "hit": false,
      "t": 185205,
      "d": 535,
      "v": 66
    },
    {
      "midi": 64,
      "hit": false,
      "t": 185210,
      "d": 535,
      "v": 66
    },
    {
      "midi": 60,
      "hit": false,
      "t": 185680,
      "d": 445,
      "v": 49
    },
    {
      "midi": 67,
      "hit": false,
      "t": 186160,
      "d": 510,
      "v": 65
    },
    {
      "midi": 64,
      "hit": false,
      "t": 186165,
      "d": 520,
      "v": 59
    },
    {
      "midi": 60,
      "hit": false,
      "t": 186635,
      "d": 470,
      "v": 50
    },
    {
      "midi": 64,
      "hit": false,
      "t": 187125,
      "d": 530,
      "v": 77
    },
    {
      "midi": 67,
      "hit": false,
      "t": 187125,
      "d": 580,
      "v": 76
    },
    {
      "midi": 60,
      "hit": false,
      "t": 187600,
      "d": 140,
      "v": 45
    },
    {
      "midi": 66,
      "hit": false,
      "t": 188115,
      "d": 520,
      "v": 65
    },
    {
      "midi": 26,
      "hit": false,
      "t": 188120,
      "d": 4625,
      "v": 35
    },
    {
      "midi": 38,
      "hit": false,
      "t": 188125,
      "d": 4700,
      "v": 29
    },
    {
      "midi": 69,
      "hit": false,
      "t": 188140,
      "d": 500,
      "v": 44
    },
    {
      "midi": 62,
      "hit": false,
      "t": 188640,
      "d": 570,
      "v": 33
    },
    {
      "midi": 66,
      "hit": false,
      "t": 189185,
      "d": 595,
      "v": 58
    },
    {
      "midi": 69,
      "hit": false,
      "t": 189195,
      "d": 570,
      "v": 50
    },
    {
      "midi": 62,
      "hit": false,
      "t": 189725,
      "d": 650,
      "v": 30
    },
    {
      "midi": 69,
      "hit": false,
      "t": 190325,
      "d": 640,
      "v": 34
    },
    {
      "midi": 66,
      "hit": false,
      "t": 190325,
      "d": 690,
      "v": 47
    },
    {
      "midi": 62,
      "hit": false,
      "t": 190950,
      "d": 615,
      "v": 29
    },
    {
      "midi": 67,
      "hit": false,
      "t": 191595,
      "d": 740,
      "v": 41
    },
    {
      "midi": 66,
      "hit": false,
      "t": 192380,
      "d": 385,
      "v": 46
    },
    {
      "midi": 40,
      "hit": false,
      "t": 193400,
      "d": 1500,
      "v": 18
    },
    {
      "midi": 64,
      "hit": false,
      "t": 193405,
      "d": 1400,
      "v": 28
    },
    {
      "midi": 28,
      "hit": false,
      "t": 193445,
      "d": 1480,
      "v": 19
    },
    {
      "midi": 67,
      "hit": false,
      "t": 193755,
      "d": 1100,
      "v": 23
    },
    {
      "midi": 71,
      "hit": false,
      "t": 194150,
      "d": 685,
      "v": 30
    },
    {
      "midi": 76,
      "hit": false,
      "t": 194570,
      "d": 345,
      "v": 61
    }
  ]
}