{
  "jsonPath": "Unknown/Unknown/Szabo Ferenc/tanckettos-pas-de-deux.json",
  "path": "Unknown\\Unknown\\Szabo Ferenc\\Tanckettos Pas De Deux.mid",
  "name": "Tanckettos Pas De Deux",
  "difficulty": "Advanced",
  "bpm": 120,
  "notes": [
    {
      "midi": 48,
      "hit": false,
      "t": 0,
      "d": 250,
      "v": 100
    },
    {
      "midi": 55,
      "hit": false,
      "t": 250,
      "d": 500,
      "v": 100
    },
    {
      "midi": 64,
      "hit": false,
      "t": 500,
      "d": 500,
      "v": 100
    },
    {
      "midi": 55,
      "hit": false,
      "t": 750,
      "d": 500,
      "v": 100
    },
    {
      "midi": 65,
      "hit": false,
      "t": 1000,
      "d": 500,
      "v": 100
    },
    {
      "midi": 55,
      "hit": false,
      "t": 1250,
      "d": 250,
      "v": 100
    },
    {
      "midi": 64,
      "hit": false,
      "t": 1500,
      "d": 250,
      "v": 100
    },
    {
      "midi": 55,
      "hit": false,
      "t": 1750,
      "d": 250,
      "v": 100
    },
    {
      "midi": 62,
      "hit": false,
      "t": 2000,
      "d": 250,
      "v": 100
    },
    {
      "midi": 55,
      "hit": false,
      "t": 2250,
      "d": 250,
      "v": 100
    },
    {
      "midi": 60,
      "hit": false,
      "t": 2500,
      "d": 250,
      "v": 100
    },
    {
      "midi": 48,
      "hit": false,
      "t": 2500,
      "d": 250,
      "v": 100
    },
    {
      "midi": 55,
      "hit": false,
      "t": 2750,
      "d": 500,
      "v": 100
    },
    {
      "midi": 64,
      "hit": false,
      "t": 3000,
      "d": 500,
      "v": 100
    },
    {
      "midi": 55,
      "hit": false,
      "t": 3250,
      "d": 500,
      "v": 100
    },
    {
      "midi": 65,
      "hit": false,
      "t": 3500,
      "d": 500,
      "v": 100
    },
    {
      "midi": 55,
      "hit": false,
      "t": 3750,
      "d": 250,
      "v": 100
    },
    {
      "midi": 64,
      "hit": false,
      "t": 4000,
      "d": 250,
      "v": 100
    },
    {
      "midi": 55,
      "hit": false,
      "t": 4250,
      "d": 250,
      "v": 100
    },
    {
      "midi": 62,
      "hit": false,
      "t": 4500,
      "d": 250,
      "v": 100
    },
    {
      "midi": 55,
      "hit": false,
      "t": 4750,
      "d": 250,
      "v": 100
    },
    {
      "midi": 60,
      "hit": false,
      "t": 5000,
      "d": 250,
      "v": 100
    },
    {
      "midi": 48,
      "hit": false,
      "t": 5000,
      "d": 250,
      "v": 100
    },
    {
      "midi": 55,
      "hit": false,
      "t": 5250,
      "d": 500,
      "v": 100
    },
    {
      "midi": 64,
      "hit": false,
      "t": 5500,
      "d": 500,
      "v": 100
    },
    {
      "midi": 55,
      "hit": false,
      "t": 5750,
      "d": 500,
      "v": 100
    },
    {
      "midi": 65,
      "hit": false,
      "t": 6000,
      "d": 500,
      "v": 100
    },
    {
      "midi": 55,
      "hit": false,
      "t": 6250,
      "d": 250,
      "v": 100
    },
    {
      "midi": 64,
      "hit": false,
      "t": 6500,
      "d": 250,
      "v": 100
    },
    {
      "midi": 55,
      "hit": false,
      "t": 6750,
      "d": 250,
      "v": 100
    },
    {
      "midi": 62,
      "hit": false,
      "t": 7000,
      "d": 250,
      "v": 100
    },
    {
      "midi": 55,
      "hit": false,
      "t": 7250,
      "d": 250,
      "v": 100
    },
    {
      "midi": 60,
      "hit": false,
      "t": 7500,
      "d": 250,
      "v": 100
    },
    {
      "midi": 48,
      "hit": false,
      "t": 7500,
      "d": 250,
      "v": 100
    },
    {
      "midi": 55,
      "hit": false,
      "t": 7750,
      "d": 500,
      "v": 100
    },
    {
      "midi": 64,
      "hit": false,
      "t": 8000,
      "d": 500,
      "v": 100
    },
    {
      "midi": 55,
      "hit": false,
      "t": 8250,
      "d": 500,
      "v": 100
    },
    {
      "midi": 65,
      "hit": false,
      "t": 8500,
      "d": 500,
      "v": 100
    },
    {
      "midi": 55,
      "hit": false,
      "t": 8750,
      "d": 250,
      "v": 100
    },
    {
      "midi": 64,
      "hit": false,
      "t": 9000,
      "d": 250,
      "v": 100
    },
    {
      "midi": 55,
      "hit": false,
      "t": 9250,
      "d": 250,
      "v": 100
    },
    {
      "midi": 62,
      "hit": false,
      "t": 9500,
      "d": 250,
      "v": 100
    },
    {
      "midi": 55,
      "hit": false,
      "t": 9750,
      "d": 250,
      "v": 100
    },
    {
      "midi": 60,
      "hit": false,
      "t": 10000,
      "d": 250,
      "v": 100
    },
    {
      "midi": 55,
      "hit": false,
      "t": 10250,
      "d": 500,
      "v": 100
    },
    {
      "midi": 64,
      "hit": false,
      "t": 10500,
      "d": 500,
      "v": 100
    },
    {
      "midi": 55,
      "hit": false,
      "t": 10750,
      "d": 500,
      "v": 100
    },
    {
      "midi": 65,
      "hit": false,
      "t": 11000,
      "d": 500,
      "v": 100
    },
    {
      "midi": 55,
      "hit": false,
      "t": 11250,
      "d": 250,
      "v": 100
    },
    {
      "midi": 64,
      "hit": false,
      "t": 11500,
      "d": 250,
      "v": 100
    },
    {
      "midi": 55,
      "hit": false,
      "t": 11750,
      "d": 250,
      "v": 100
    },
    {
      "midi": 62,
      "hit": false,
      "t": 12000,
      "d": 250,
      "v": 100
    },
    {
      "midi": 55,
      "hit": false,
      "t": 12250,
      "d": 250,
      "v": 100
    },
    {
      "midi": 64,
      "hit": false,
      "t": 12500,
      "d": 500,
      "v": 100
    },
    {
      "midi": 61,
      "hit": false,
      "t": 12500,
      "d": 250,
      "v": 100
    },
    {
      "midi": 55,
      "hit": false,
      "t": 12750,
      "d": 250,
      "v": 100
    },
    {
      "midi": 64,
      "hit": false,
      "t": 13000,
      "d": 750,
      "v": 100
    },
    {
      "midi": 59,
      "hit": false,
      "t": 13000,
      "d": 250,
      "v": 100
    },
    {
      "midi": 55,
      "hit": false,
      "t": 13250,
      "d": 250,
      "v": 100
    },
    {
      "midi": 61,
      "hit": false,
      "t": 13500,
      "d": 250,
      "v": 100
    },
    {
      "midi": 65,
      "hit": false,
      "t": 13750,
      "d": 250,
      "v": 100
    },
    {
      "midi": 55,
      "hit": false,
      "t": 13750,
      "d": 250,
      "v": 100
    },
    {
      "midi": 63,
      "hit": false,
      "t": 14000,
      "d": 500,
      "v": 100
    },
    {
      "midi": 67,
      "hit": false,
      "t": 14000,
      "d": 500,
      "v": 100
    },
    {
      "midi": 59,
      "hit": false,
      "t": 14000,
      "d": 250,
      "v": 100
    },
    {
      "midi": 55,
      "hit": false,
      "t": 14250,
      "d": 250,
      "v": 100
    },
    {
      "midi": 64,
      "hit": false,
      "t": 14500,
      "d": 250,
      "v": 100
    },
    {
      "midi": 61,
      "hit": false,
      "t": 14500,
      "d": 250,
      "v": 100
    },
    {
      "midi": 65,
      "hit": false,
      "t": 14750,
      "d": 250,
      "v": 100
    },
    {
      "midi": 55,
      "hit": false,
      "t": 14750,
      "d": 250,
      "v": 100
    },
    {
      "midi": 64,
      "hit": false,
      "t": 15000,
      "d": 500,
      "v": 100
    },
    {
      "midi": 67,
      "hit": false,
      "t": 15000,
      "d": 500,
      "v": 100
    },
    {
      "midi": 60,
      "hit": false,
      "t": 15000,
      "d": 250,
      "v": 100
    },
    {
      "midi": 55,
      "hit": false,
      "t": 15250,
      "d": 250,
      "v": 100
    },
    {
      "midi": 64,
      "hit": false,
      "t": 15500,
      "d": 500,
      "v": 100
    },
    {
      "midi": 48,
      "hit": false,
      "t": 15500,
      "d": 250,
      "v": 100
    },
    {
      "midi": 55,
      "hit": false,
      "t": 15750,
      "d": 500,
      "v": 100
    },
    {
      "midi": 65,
      "hit": false,
      "t": 16000,
      "d": 500,
      "v": 100
    },
    {
      "midi": 55,
      "hit": false,
      "t": 16250,
      "d": 250,
      "v": 100
    },
    {
      "midi": 64,
      "hit": false,
      "t": 16500,
      "d": 250,
      "v": 100
    },
    {
      "midi": 55,
      "hit": false,
      "t": 16750,
      "d": 250,
      "v": 100
    },
    {
      "midi": 62,
      "hit": false,
      "t": 17000,
      "d": 250,
      "v": 100
    },
    {
      "midi": 55,
      "hit": false,
      "t": 17250,
      "d": 250,
      "v": 100
    },
    {
      "midi": 60,
      "hit": false,
      "t": 17500,
      "d": 250,
      "v": 100
    },
    {
      "midi": 48,
      "hit": false,
      "t": 17500,
      "d": 250,
      "v": 100
    },
    {
      "midi": 55,
      "hit": false,
      "t": 17750,
      "d": 500,
      "v": 100
    },
    {
      "midi": 64,
      "hit": false,
      "t": 18000,
      "d": 500,
      "v": 100
    },
    {
      "midi": 55,
      "hit": false,
      "t": 18250,
      "d": 500,
      "v": 100
    },
    {
      "midi": 65,
      "hit": false,
      "t": 18500,
      "d": 500,
      "v": 100
    },
    {
      "midi": 55,
      "hit": false,
      "t": 18750,
      "d": 250,
      "v": 100
    },
    {
      "midi": 64,
      "hit": false,
      "t": 19000,
      "d": 250,
      "v": 100
    },
    {
      "midi": 55,
      "hit": false,
      "t": 19250,
      "d": 250,
      "v": 100
    },
    {
      "midi": 62,
      "hit": false,
      "t": 19500,
      "d": 250,
      "v": 100
    },
    {
      "midi": 55,
      "hit": false,
      "t": 19750,
      "d": 250,
      "v": 100
    },
    {
      "midi": 60,
      "hit": false,
      "t": 20000,
      "d": 250,
      "v": 100
    },
    {
      "midi": 48,
      "hit": false,
      "t": 20000,
      "d": 250,
      "v": 100
    },
    {
      "midi": 55,
      "hit": false,
      "t": 20250,
      "d": 500,
      "v": 100
    },
    {
      "midi": 64,
      "hit": false,
      "t": 20500,
      "d": 500,
      "v": 100
    },
    {
      "midi": 55,
      "hit": false,
      "t": 20750,
      "d": 500,
      "v": 100
    },
    {
      "midi": 65,
      "hit": false,
      "t": 21000,
      "d": 500,
      "v": 100
    },
    {
      "midi": 55,
      "hit": false,
      "t": 21250,
      "d": 250,
      "v": 100
    },
    {
      "midi": 64,
      "hit": false,
      "t": 21500,
      "d": 250,
      "v": 100
    },
    {
      "midi": 55,
      "hit": false,
      "t": 21750,
      "d": 250,
      "v": 100
    },
    {
      "midi": 62,
      "hit": false,
      "t": 22000,
      "d": 250,
      "v": 100
    },
    {
      "midi": 55,
      "hit": false,
      "t": 22250,
      "d": 250,
      "v": 100
    },
    {
      "midi": 64,
      "hit": false,
      "t": 22500,
      "d": 500,
      "v": 100
    },
    {
      "midi": 61,
      "hit": false,
      "t": 22500,
      "d": 250,
      "v": 100
    },
    {
      "midi": 55,
      "hit": false,
      "t": 22750,
      "d": 250,
      "v": 100
    },
    {
      "midi": 64,
      "hit": false,
      "t": 23000,
      "d": 750,
      "v": 100
    },
    {
      "midi": 59,
      "hit": false,
      "t": 23000,
      "d": 250,
      "v": 100
    },
    {
      "midi": 55,
      "hit": false,
      "t": 23250,
      "d": 250,
      "v": 100
    },
    {
      "midi": 61,
      "hit": false,
      "t": 23500,
      "d": 250,
      "v": 100
    },
    {
      "midi": 65,
      "hit": false,
      "t": 23750,
      "d": 250,
      "v": 100
    },
    {
      "midi": 55,
      "hit": false,
      "t": 23750,
      "d": 250,
      "v": 100
    },
    {
      "midi": 63,
      "hit": false,
      "t": 24000,
      "d": 500,
      "v": 100
    },
    {
      "midi": 67,
      "hit": false,
      "t": 24000,
      "d": 500,
      "v": 100
    },
    {
      "midi": 59,
      "hit": false,
      "t": 24000,
      "d": 250,
      "v": 100
    },
    {
      "midi": 55,
      "hit": false,
      "t": 24250,
      "d": 250,
      "v": 100
    },
    {
      "midi": 61,
      "hit": false,
      "t": 24500,
      "d": 250,
      "v": 100
    },
    {
      "midi": 62,
      "hit": false,
      "t": 24500,
      "d": 250,
      "v": 100
    },
    {
      "midi": 49,
      "hit": false,
      "t": 24500,
      "d": 250,
      "v": 100
    },
    {
      "midi": 55,
      "hit": false,
      "t": 24750,
      "d": 750,
      "v": 100
    },
    {
      "midi": 64,
      "hit": false,
      "t": 24750,
      "d": 750,
      "v": 100
    },
    {
      "midi": 43,
      "hit": false,
      "t": 24750,
      "d": 250,
      "v": 100
    },
    {
      "midi": 60,
      "hit": false,
      "t": 25000,
      "d": 750,
      "v": 100
    },
    {
      "midi": 36,
      "hit": false,
      "t": 25000,
      "d": 500,
      "v": 100
    },
    {
      "midi": 48,
      "hit": false,
      "t": 25000,
      "d": 500,
      "v": 100
    },
    {
      "midi": 59,
      "hit": false,
      "t": 25500,
      "d": 250,
      "v": 100
    },
    {
      "midi": 60,
      "hit": false,
      "t": 25750,
      "d": 250,
      "v": 100
    },
    {
      "midi": 62,
      "hit": false,
      "t": 26000,
      "d": 500,
      "v": 100
    },
    {
      "midi": 47,
      "hit": false,
      "t": 26500,
      "d": 250,
      "v": 100
    },
    {
      "midi": 48,
      "hit": false,
      "t": 26750,
      "d": 250,
      "v": 100
    },
    {
      "midi": 59,
      "hit": false,
      "t": 27000,
      "d": 250,
      "v": 100
    },
    {
      "midi": 50,
      "hit": false,
      "t": 27000,
      "d": 500,
      "v": 100
    },
    {
      "midi": 60,
      "hit": false,
      "t": 27250,
      "d": 250,
      "v": 100
    },
    {
      "midi": 62,
      "hit": false,
      "t": 27500,
      "d": 500,
      "v": 100
    },
    {
      "midi": 47,
      "hit": false,
      "t": 27500,
      "d": 250,
      "v": 100
    },
    {
      "midi": 48,
      "hit": false,
      "t": 27750,
      "d": 250,
      "v": 100
    },
    {
      "midi": 59,
      "hit": false,
      "t": 28000,
      "d": 250,
      "v": 100
    },
    {
      "midi": 50,
      "hit": false,
      "t": 28000,
      "d": 250,
      "v": 100
    },
    {
      "midi": 60,
      "hit": false,
      "t": 28250,
      "d": 250,
      "v": 100
    },
    {
      "midi": 52,
      "hit": false,
      "t": 28250,
      "d": 250,
      "v": 100
    },
    {
      "midi": 62,
      "hit": false,
      "t": 28500,
      "d": 250,
      "v": 100
    },
    {
      "midi": 53,
      "hit": false,
      "t": 28500,
      "d": 250,
      "v": 100
    },
    {
      "midi": 64,
      "hit": false,
      "t": 28750,
      "d": 250,
      "v": 100
    },
    {
      "midi": 55,
      "hit": false,
      "t": 28750,
      "d": 250,
      "v": 100
    },
    {
      "midi": 65,
      "hit": false,
      "t": 29000,
      "d": 250,
      "v": 100
    },
    {
      "midi": 57,
      "hit": false,
      "t": 29000,
      "d": 250,
      "v": 100
    },
    {
      "midi": 67,
      "hit": false,
      "t": 29250,
      "d": 250,
      "v": 100
    },
    {
      "midi": 59,
      "hit": false,
      "t": 29250,
      "d": 250,
      "v": 100
    },
    {
      "midi": 69,
      "hit": false,
      "t": 29500,
      "d": 500,
      "v": 100
    },
    {
      "midi": 60,
      "hit": false,
      "t": 29500,
      "d": 500,
      "v": 100
    },
    {
      "midi": 67,
      "hit": false,
      "t": 30000,
      "d": 1000,
      "v": 100
    },
    {
      "midi": 59,
      "hit": false,
      "t": 30000,
      "d": 1000,
      "v": 100
    },
    {
      "midi": 65,
      "hit": false,
      "t": 31000,
      "d": 1750,
      "v": 100
    },
    {
      "midi": 57,
      "hit": false,
      "t": 31000,
      "d": 2125,
      "v": 100
    },
    {
      "midi": 69,
      "hit": false,
      "t": 32750,
      "d": 125,
      "v": 100
    },
    {
      "midi": 65,
      "hit": false,
      "t": 32875,
      "d": 125,
      "v": 100
    },
    {
      "midi": 62,
      "hit": false,
      "t": 33000,
      "d": 500,
      "v": 100
    },
    {
      "midi": 60,
      "hit": false,
      "t": 33125,
      "d": 125,
      "v": 100
    },
    {
      "midi": 57,
      "hit": false,
      "t": 33250,
      "d": 125,
      "v": 100
    },
    {
      "midi": 53,
      "hit": false,
      "t": 33375,
      "d": 125,
      "v": 100
    },
    {
      "midi": 50,
      "hit": false,
      "t": 33500,
      "d": 250,
      "v": 100
    },
    {
      "midi": 47,
      "hit": false,
      "t": 34000,
      "d": 250,
      "v": 100
    },
    {
      "midi": 48,
      "hit": false,
      "t": 34250,
      "d": 250,
      "v": 100
    },
    {
      "midi": 59,
      "hit": false,
      "t": 34500,
      "d": 250,
      "v": 100
    },
    {
      "midi": 50,
      "hit": false,
      "t": 34500,
      "d": 500,
      "v": 100
    },
    {
      "midi": 60,
      "hit": false,
      "t": 34750,
      "d": 250,
      "v": 100
    },
    {
      "midi": 62,
      "hit": false,
      "t": 35000,
      "d": 500,
      "v": 100
    },
    {
      "midi": 47,
      "hit": false,
      "t": 35000,
      "d": 250,
      "v": 100
    },
    {
      "midi": 48,
      "hit": false,
      "t": 35250,
      "d": 250,
      "v": 100
    },
    {
      "midi": 59,
      "hit": false,
      "t": 35500,
      "d": 250,
      "v": 100
    },
    {
      "midi": 50,
      "hit": false,
      "t": 35500,
      "d": 250,
      "v": 100
    },
    {
      "midi": 60,
      "hit": false,
      "t": 35750,
      "d": 250,
      "v": 100
    },
    {
      "midi": 52,
      "hit": false,
      "t": 35750,
      "d": 250,
      "v": 100
    },
    {
      "midi": 62,
      "hit": false,
      "t": 36000,
      "d": 250,
      "v": 100
    },
    {
      "midi": 53,
      "hit": false,
      "t": 36000,
      "d": 250,
      "v": 100
    },
    {
      "midi": 64,
      "hit": false,
      "t": 36250,
      "d": 250,
      "v": 100
    },
    {
      "midi": 55,
      "hit": false,
      "t": 36250,
      "d": 250,
      "v": 100
    },
    {
      "midi": 65,
      "hit": false,
      "t": 36500,
      "d": 250,
      "v": 100
    },
    {
      "midi": 57,
      "hit": false,
      "t": 36500,
      "d": 250,
      "v": 100
    },
    {
      "midi": 67,
      "hit": false,
      "t": 36750,
      "d": 250,
      "v": 100
    },
    {
      "midi": 59,
      "hit": false,
      "t": 36750,
      "d": 250,
      "v": 100
    },
    {
      "midi": 69,
      "hit": false,
      "t": 37000,
      "d": 500,
      "v": 100
    },
    {
      "midi": 60,
      "hit": false,
      "t": 37000,
      "d": 500,
      "v": 100
    },
    {
      "midi": 67,
      "hit": false,
      "t": 37500,
      "d": 1000,
      "v": 100
    },
    {
      "midi": 59,
      "hit": false,
      "t": 37500,
      "d": 1000,
      "v": 100
    },
    {
      "midi": 65,
      "hit": false,
      "t": 38500,
      "d": 2500,
      "v": 100
    },
    {
      "midi": 57,
      "hit": false,
      "t": 38500,
      "d": 1500,
      "v": 100
    },
    {
      "midi": 55,
      "hit": false,
      "t": 40000,
      "d": 1000,
      "v": 100
    },
    {
      "midi": 48,
      "hit": false,
      "t": 41000,
      "d": 250,
      "v": 100
    },
    {
      "midi": 55,
      "hit": false,
      "t": 41250,
      "d": 500,
      "v": 100
    },
    {
      "midi": 64,
      "hit": false,
      "t": 41500,
      "d": 500,
      "v": 100
    },
    {
      "midi": 55,
      "hit": false,
      "t": 41750,
      "d": 500,
      "v": 100
    },
    {
      "midi": 65,
      "hit": false,
      "t": 42000,
      "d": 500,
      "v": 100
    },
    {
      "midi": 55,
      "hit": false,
      "t": 42250,
      "d": 250,
      "v": 100
    },
    {
      "midi": 64,
      "hit": false,
      "t": 42500,
      "d": 250,
      "v": 100
    },
    {
      "midi": 55,
      "hit": false,
      "t": 42750,
      "d": 250,
      "v": 100
    },
    {
      "midi": 62,
      "hit": false,
      "t": 43000,
      "d": 250,
      "v": 100
    },
    {
      "midi": 55,
      "hit": false,
      "t": 43250,
      "d": 250,
      "v": 100
    },
    {
      "midi": 60,
      "hit": false,
      "t": 43500,
      "d": 250,
      "v": 100
    },
    {
      "midi": 48,
      "hit": false,
      "t": 43500,
      "d": 250,
      "v": 100
    },
    {
      "midi": 55,
      "hit": false,
      "t": 43750,
      "d": 500,
      "v": 100
    },
    {
      "midi": 64,
      "hit": false,
      "t": 44000,
      "d": 500,
      "v": 100
    },
    {
      "midi": 55,
      "hit": false,
      "t": 44250,
      "d": 500,
      "v": 100
    },
    {
      "midi": 65,
      "hit": false,
      "t": 44500,
      "d": 500,
      "v": 100
    },
    {
      "midi": 55,
      "hit": false,
      "t": 44750,
      "d": 250,
      "v": 100
    },
    {
      "midi": 64,
      "hit": false,
      "t": 45000,
      "d": 250,
      "v": 100
    },
    {
      "midi": 55,
      "hit": false,
      "t": 45250,
      "d": 250,
      "v": 100
    },
    {
      "midi": 62,
      "hit": false,
      "t": 45500,
      "d": 250,
      "v": 100
    },
    {
      "midi": 55,
      "hit": false,
      "t": 45750,
      "d": 250,
      "v": 100
    },
    {
      "midi": 60,
      "hit": false,
      "t": 46000,
      "d": 250,
      "v": 100
    },
    {
      "midi": 48,
      "hit": false,
      "t": 46000,
      "d": 250,
      "v": 100
    },
    {
      "midi": 55,
      "hit": false,
      "t": 46250,
      "d": 500,
      "v": 100
    },
    {
      "midi": 64,
      "hit": false,
      "t": 46500,
      "d": 500,
      "v": 100
    },
    {
      "midi": 55,
      "hit": false,
      "t": 46750,
      "d": 500,
      "v": 100
    },
    {
      "midi": 65,
      "hit": false,
      "t": 47000,
      "d": 500,
      "v": 100
    },
    {
      "midi": 55,
      "hit": false,
      "t": 47250,
      "d": 250,
      "v": 100
    },
    {
      "midi": 64,
      "hit": false,
      "t": 47500,
      "d": 250,
      "v": 100
    },
    {
      "midi": 55,
      "hit": false,
      "t": 47750,
      "d": 250,
      "v": 100
    },
    {
      "midi": 62,
      "hit": false,
      "t": 48000,
      "d": 250,
      "v": 100
    },
    {
      "midi": 55,
      "hit": false,
      "t": 48250,
      "d": 250,
      "v": 100
    },
    {
      "midi": 60,
      "hit": false,
      "t": 48500,
      "d": 250,
      "v": 100
    },
    {
      "midi": 48,
      "hit": false,
      "t": 48500,
      "d": 250,
      "v": 100
    },
    {
      "midi": 55,
      "hit": false,
      "t": 48750,
      "d": 500,
      "v": 100
    },
    {
      "midi": 64,
      "hit": false,
      "t": 49000,
      "d": 500,
      "v": 100
    },
    {
      "midi": 55,
      "hit": false,
      "t": 49250,
      "d": 500,
      "v": 100
    },
    {
      "midi": 65,
      "hit": false,
      "t": 49500,
      "d": 500,
      "v": 100
    },
    {
      "midi": 55,
      "hit": false,
      "t": 49750,
      "d": 250,
      "v": 100
    },
    {
      "midi": 64,
      "hit": false,
      "t": 50000,
      "d": 250,
      "v": 100
    },
    {
      "midi": 55,
      "hit": false,
      "t": 50250,
      "d": 250,
      "v": 100
    },
    {
      "midi": 62,
      "hit": false,
      "t": 50500,
      "d": 250,
      "v": 100
    },
    {
      "midi": 55,
      "hit": false,
      "t": 50750,
      "d": 250,
      "v": 100
    },
    {
      "midi": 60,
      "hit": false,
      "t": 51000,
      "d": 250,
      "v": 100
    },
    {
      "midi": 55,
      "hit": false,
      "t": 51250,
      "d": 500,
      "v": 100
    },
    {
      "midi": 64,
      "hit": false,
      "t": 51500,
      "d": 500,
      "v": 100
    },
    {
      "midi": 55,
      "hit": false,
      "t": 51750,
      "d": 500,
      "v": 100
    },
    {
      "midi": 65,
      "hit": false,
      "t": 52000,
      "d": 500,
      "v": 100
    },
    {
      "midi": 55,
      "hit": false,
      "t": 52250,
      "d": 250,
      "v": 100
    },
    {
      "midi": 64,
      "hit": false,
      "t": 52500,
      "d": 250,
      "v": 100
    },
    {
      "midi": 55,
      "hit": false,
      "t": 52750,
      "d": 250,
      "v": 100
    },
    {
      "midi": 62,
      "hit": false,
      "t": 53000,
      "d": 250,
      "v": 100
    },
    {
      "midi": 55,
      "hit": false,
      "t": 53250,
      "d": 250,
      "v": 100
    },
    {
      "midi": 64,
      "hit": false,
      "t": 53500,
      "d": 500,
      "v": 100
    },
    {
      "midi": 61,
      "hit": false,
      "t": 53500,
      "d": 250,
      "v": 100
    },
    {
      "midi": 55,
      "hit": false,
      "t": 53750,
      "d": 250,
      "v": 100
    },
    {
      "midi": 64,
      "hit": false,
      "t": 54000,
      "d": 750,
      "v": 100
    },
    {
      "midi": 59,
      "hit": false,
      "t": 54000,
      "d": 250,
      "v": 100
    },
    {
      "midi": 55,
      "hit": false,
      "t": 54250,
      "d": 250,
      "v": 100
    },
    {
      "midi": 61,
      "hit": false,
      "t": 54500,
      "d": 250,
      "v": 100
    },
    {
      "midi": 65,
      "hit": false,
      "t": 54750,
      "d": 250,
      "v": 100
    },
    {
      "midi": 55,
      "hit": false,
      "t": 54750,
      "d": 250,
      "v": 100
    },
    {
      "midi": 63,
      "hit": false,
      "t": 55000,
      "d": 500,
      "v": 100
    },
    {
      "midi": 67,
      "hit": false,
      "t": 55000,
      "d": 500,
      "v": 100
    },
    {
      "midi": 59,
      "hit": false,
      "t": 55000,
      "d": 250,
      "v": 100
    },
    {
      "midi": 55,
      "hit": false,
      "t": 55250,
      "d": 250,
      "v": 100
    },
    {
      "midi": 64,
      "hit": false,
      "t": 55500,
      "d": 250,
      "v": 100
    },
    {
      "midi": 61,
      "hit": false,
      "t": 55500,
      "d": 250,
      "v": 100
    },
    {
      "midi": 65,
      "hit": false,
      "t": 55750,
      "d": 250,
      "v": 100
    },
    {
      "midi": 55,
      "hit": false,
      "t": 55750,
      "d": 250,
      "v": 100
    },
    {
      "midi": 64,
      "hit": false,
      "t": 56000,
      "d": 500,
      "v": 100
    },
    {
      "midi": 67,
      "hit": false,
      "t": 56000,
      "d": 500,
      "v": 100
    },
    {
      "midi": 60,
      "hit": false,
      "t": 56000,
      "d": 250,
      "v": 100
    },
    {
      "midi": 55,
      "hit": false,
      "t": 56250,
      "d": 250,
      "v": 100
    },
    {
      "midi": 64,
      "hit": false,
      "t": 56500,
      "d": 500,
      "v": 100
    },
    {
      "midi": 48,
      "hit": false,
      "t": 56500,
      "d": 250,
      "v": 100
    },
    {
      "midi": 55,
      "hit": false,
      "t": 56750,
      "d": 500,
      "v": 100
    },
    {
      "midi": 65,
      "hit": false,
      "t": 57000,
      "d": 500,
      "v": 100
    },
    {
      "midi": 55,
      "hit": false,
      "t": 57250,
      "d": 250,
      "v": 100
    },
    {
      "midi": 64,
      "hit": false,
      "t": 57500,
      "d": 250,
      "v": 100
    },
    {
      "midi": 55,
      "hit": false,
      "t": 57750,
      "d": 250,
      "v": 100
    },
    {
      "midi": 62,
      "hit": false,
      "t": 58000,
      "d": 250,
      "v": 100
    },
    {
      "midi": 55,
      "hit": false,
      "t": 58250,
      "d": 250,
      "v": 100
    },
    {
      "midi": 60,
      "hit": false,
      "t": 58500,
      "d": 250,
      "v": 100
    },
    {
      "midi": 48,
      "hit": false,
      "t": 58500,
      "d": 250,
      "v": 100
    },
    {
      "midi": 55,
      "hit": false,
      "t": 58750,
      "d": 500,
      "v": 100
    },
    {
      "midi": 64,
      "hit": false,
      "t": 59000,
      "d": 500,
      "v": 100
    },
    {
      "midi": 55,
      "hit": false,
      "t": 59250,
      "d": 500,
      "v": 100
    },
    {
      "midi": 65,
      "hit": false,
      "t": 59500,
      "d": 500,
      "v": 100
    },
    {
      "midi": 55,
      "hit": false,
      "t": 59750,
      "d": 250,
      "v": 100
    },
    {
      "midi": 64,
      "hit": false,
      "t": 60000,
      "d": 250,
      "v": 100
    },
    {
      "midi": 55,
      "hit": false,
      "t": 60250,
      "d": 250,
      "v": 100
    },
    {
      "midi": 62,
      "hit": false,
      "t": 60500,
      "d": 250,
      "v": 100
    },
    {
      "midi": 55,
      "hit": false,
      "t": 60750,
      "d": 250,
      "v": 100
    },
    {
      "midi": 60,
      "hit": false,
      "t": 61000,
      "d": 250,
      "v": 100
    },
    {
      "midi": 48,
      "hit": false,
      "t": 61000,
      "d": 250,
      "v": 100
    },
    {
      "midi": 55,
      "hit": false,
      "t": 61250,
      "d": 500,
      "v": 100
    },
    {
      "midi": 64,
      "hit": false,
      "t": 61500,
      "d": 500,
      "v": 100
    },
    {
      "midi": 55,
      "hit": false,
      "t": 61750,
      "d": 500,
      "v": 100
    },
    {
      "midi": 65,
      "hit": false,
      "t": 62000,
      "d": 500,
      "v": 100
    },
    {
      "midi": 55,
      "hit": false,
      "t": 62250,
      "d": 250,
      "v": 100
    },
    {
      "midi": 64,
      "hit": false,
      "t": 62500,
      "d": 250,
      "v": 100
    },
    {
      "midi": 55,
      "hit": false,
      "t": 62750,
      "d": 250,
      "v": 100
    },
    {
      "midi": 62,
      "hit": false,
      "t": 63000,
      "d": 250,
      "v": 100
    },
    {
      "midi": 55,
      "hit": false,
      "t": 63250,
      "d": 250,
      "v": 100
    },
    {
      "midi": 64,
      "hit": false,
      "t": 63500,
      "d": 500,
      "v": 100
    },
    {
      "midi": 61,
      "hit": false,
      "t": 63500,
      "d": 250,
      "v": 100
    },
    {
      "midi": 55,
      "hit": false,
      "t": 63750,
      "d": 250,
      "v": 100
    },
    {
      "midi": 64,
      "hit": false,
      "t": 64000,
      "d": 750,
      "v": 100
    },
    {
      "midi": 59,
      "hit": false,
      "t": 64000,
      "d": 250,
      "v": 100
    },
    {
      "midi": 55,
      "hit": false,
      "t": 64250,
      "d": 250,
      "v": 100
    },
    {
      "midi": 61,
      "hit": false,
      "t": 64500,
      "d": 250,
      "v": 100
    },
    {
      "midi": 65,
      "hit": false,
      "t": 64750,
      "d": 250,
      "v": 100
    },
    {
      "midi": 55,
      "hit": false,
      "t": 64750,
      "d": 250,
      "v": 100
    },
    {
      "midi": 63,
      "hit": false,
      "t": 65000,
      "d": 500,
      "v": 100
    },
    {
      "midi": 67,
      "hit": false,
      "t": 65000,
      "d": 500,
      "v": 100
    },
    {
      "midi": 59,
      "hit": false,
      "t": 65000,
      "d": 250,
      "v": 100
    },
    {
      "midi": 55,
      "hit": false,
      "t": 65250,
      "d": 250,
      "v": 100
    },
    {
      "midi": 61,
      "hit": false,
      "t": 65500,
      "d": 250,
      "v": 100
    },
    {
      "midi": 62,
      "hit": false,
      "t": 65500,
      "d": 250,
      "v": 100
    },
    {
      "midi": 49,
      "hit": false,
      "t": 65500,
      "d": 250,
      "v": 100
    },
    {
      "midi": 55,
      "hit": false,
      "t": 65750,
      "d": 750,
      "v": 100
    },
    {
      "midi": 64,
      "hit": false,
      "t": 65750,
      "d": 750,
      "v": 100
    },
    {
      "midi": 43,
      "hit": false,
      "t": 65750,
      "d": 250,
      "v": 100
    },
    {
      "midi": 60,
      "hit": false,
      "t": 66000,
      "d": 500,
      "v": 100
    },
    {
      "midi": 36,
      "hit": false,
      "t": 66000,
      "d": 500,
      "v": 100
    },
    {
      "midi": 48,
      "hit": false,
      "t": 66000,
      "d": 500,
      "v": 100
    }
  ]
}