{
  "jsonPath": "Jazz/Norwegian Jazz/Morten Gunnar Larsen/heliotrope-bouquet.json",
  "path": "Jazz\\Norwegian Jazz\\Morten Gunnar Larsen\\Heliotrope Bouquet.mid",
  "name": "Heliotrope Bouquet",
  "difficulty": "Advanced",
  "bpm": 100,
  "notes": [
    {
      "midi": 62,
      "hit": false,
      "t": 405,
      "d": 400,
      "v": 51
    },
    {
      "midi": 50,
      "hit": false,
      "t": 430,
      "d": 325,
      "v": 50
    },
    {
      "midi": 64,
      "hit": false,
      "t": 715,
      "d": 260,
      "v": 56
    },
    {
      "midi": 52,
      "hit": false,
      "t": 750,
      "d": 220,
      "v": 50
    },
    {
      "midi": 66,
      "hit": false,
      "t": 945,
      "d": 245,
      "v": 70
    },
    {
      "midi": 54,
      "hit": false,
      "t": 950,
      "d": 220,
      "v": 56
    },
    {
      "midi": 55,
      "hit": false,
      "t": 1170,
      "d": 505,
      "v": 52
    },
    {
      "midi": 67,
      "hit": false,
      "t": 1170,
      "d": 580,
      "v": 60
    },
    {
      "midi": 71,
      "hit": false,
      "t": 1670,
      "d": 270,
      "v": 63
    },
    {
      "midi": 59,
      "hit": false,
      "t": 1700,
      "d": 205,
      "v": 65
    },
    {
      "midi": 69,
      "hit": false,
      "t": 1895,
      "d": 200,
      "v": 66
    },
    {
      "midi": 57,
      "hit": false,
      "t": 1915,
      "d": 185,
      "v": 60
    },
    {
      "midi": 67,
      "hit": false,
      "t": 2070,
      "d": 270,
      "v": 67
    },
    {
      "midi": 55,
      "hit": false,
      "t": 2085,
      "d": 195,
      "v": 56
    },
    {
      "midi": 74,
      "hit": false,
      "t": 2285,
      "d": 280,
      "v": 61
    },
    {
      "midi": 62,
      "hit": false,
      "t": 2300,
      "d": 225,
      "v": 59
    },
    {
      "midi": 72,
      "hit": false,
      "t": 2510,
      "d": 230,
      "v": 62
    },
    {
      "midi": 60,
      "hit": false,
      "t": 2525,
      "d": 225,
      "v": 50
    },
    {
      "midi": 71,
      "hit": false,
      "t": 2710,
      "d": 275,
      "v": 56
    },
    {
      "midi": 59,
      "hit": false,
      "t": 2745,
      "d": 255,
      "v": 52
    },
    {
      "midi": 69,
      "hit": false,
      "t": 2965,
      "d": 600,
      "v": 56
    },
    {
      "midi": 57,
      "hit": false,
      "t": 2995,
      "d": 575,
      "v": 54
    },
    {
      "midi": 71,
      "hit": false,
      "t": 3495,
      "d": 255,
      "v": 65
    },
    {
      "midi": 59,
      "hit": false,
      "t": 3535,
      "d": 230,
      "v": 60
    },
    {
      "midi": 72,
      "hit": false,
      "t": 3725,
      "d": 210,
      "v": 77
    },
    {
      "midi": 60,
      "hit": false,
      "t": 3755,
      "d": 155,
      "v": 62
    },
    {
      "midi": 74,
      "hit": false,
      "t": 3910,
      "d": 215,
      "v": 71
    },
    {
      "midi": 62,
      "hit": false,
      "t": 3930,
      "d": 160,
      "v": 62
    },
    {
      "midi": 72,
      "hit": false,
      "t": 4095,
      "d": 220,
      "v": 73
    },
    {
      "midi": 60,
      "hit": false,
      "t": 4120,
      "d": 190,
      "v": 61
    },
    {
      "midi": 64,
      "hit": false,
      "t": 4315,
      "d": 495,
      "v": 66
    },
    {
      "midi": 52,
      "hit": false,
      "t": 4335,
      "d": 460,
      "v": 63
    },
    {
      "midi": 66,
      "hit": false,
      "t": 4760,
      "d": 265,
      "v": 69
    },
    {
      "midi": 54,
      "hit": false,
      "t": 4765,
      "d": 240,
      "v": 63
    },
    {
      "midi": 67,
      "hit": false,
      "t": 4995,
      "d": 530,
      "v": 63
    },
    {
      "midi": 55,
      "hit": false,
      "t": 5000,
      "d": 560,
      "v": 55
    },
    {
      "midi": 64,
      "hit": false,
      "t": 5490,
      "d": 680,
      "v": 54
    },
    {
      "midi": 52,
      "hit": false,
      "t": 5500,
      "d": 715,
      "v": 52
    },
    {
      "midi": 62,
      "hit": false,
      "t": 6105,
      "d": 770,
      "v": 45
    },
    {
      "midi": 50,
      "hit": false,
      "t": 6135,
      "d": 780,
      "v": 49
    },
    {
      "midi": 46,
      "hit": false,
      "t": 7270,
      "d": 940,
      "v": 46
    },
    {
      "midi": 58,
      "hit": false,
      "t": 7360,
      "d": 775,
      "v": 43
    },
    {
      "midi": 67,
      "hit": false,
      "t": 7510,
      "d": 890,
      "v": 52
    },
    {
      "midi": 73,
      "hit": false,
      "t": 7625,
      "d": 755,
      "v": 54
    },
    {
      "midi": 78,
      "hit": false,
      "t": 7730,
      "d": 640,
      "v": 74
    },
    {
      "midi": 76,
      "hit": false,
      "t": 8335,
      "d": 85,
      "v": 74
    },
    {
      "midi": 60,
      "hit": false,
      "t": 8975,
      "d": 180,
      "v": 39
    },
    {
      "midi": 64,
      "hit": false,
      "t": 9010,
      "d": 215,
      "v": 51
    },
    {
      "midi": 45,
      "hit": false,
      "t": 9015,
      "d": 895,
      "v": 43
    },
    {
      "midi": 52,
      "hit": false,
      "t": 9040,
      "d": 355,
      "v": 47
    },
    {
      "midi": 67,
      "hit": false,
      "t": 9050,
      "d": 150,
      "v": 49
    },
    {
      "midi": 72,
      "hit": false,
      "t": 9140,
      "d": 130,
      "v": 56
    },
    {
      "midi": 62,
      "hit": false,
      "t": 9385,
      "d": 65,
      "v": 55
    },
    {
      "midi": 74,
      "hit": false,
      "t": 9385,
      "d": 75,
      "v": 69
    },
    {
      "midi": 76,
      "hit": false,
      "t": 9580,
      "d": 55,
      "v": 78
    },
    {
      "midi": 64,
      "hit": false,
      "t": 9585,
      "d": 65,
      "v": 75
    },
    {
      "midi": 66,
      "hit": false,
      "t": 9865,
      "d": 350,
      "v": 55
    },
    {
      "midi": 71,
      "hit": false,
      "t": 9865,
      "d": 435,
      "v": 56
    },
    {
      "midi": 60,
      "hit": false,
      "t": 9870,
      "d": 340,
      "v": 51
    },
    {
      "midi": 50,
      "hit": false,
      "t": 9890,
      "d": 1385,
      "v": 43
    },
    {
      "midi": 66,
      "hit": false,
      "t": 10390,
      "d": 85,
      "v": 55
    },
    {
      "midi": 66,
      "hit": false,
      "t": 10655,
      "d": 250,
      "v": 42
    },
    {
      "midi": 69,
      "hit": false,
      "t": 10675,
      "d": 175,
      "v": 45
    },
    {
      "midi": 60,
      "hit": false,
      "t": 10690,
      "d": 150,
      "v": 40
    },
    {
      "midi": 38,
      "hit": false,
      "t": 10690,
      "d": 390,
      "v": 42
    },
    {
      "midi": 59,
      "hit": false,
      "t": 11240,
      "d": 115,
      "v": 67
    },
    {
      "midi": 67,
      "hit": false,
      "t": 11245,
      "d": 245,
      "v": 69
    },
    {
      "midi": 43,
      "hit": false,
      "t": 11275,
      "d": 55,
      "v": 52
    },
    {
      "midi": 71,
      "hit": false,
      "t": 11460,
      "d": 190,
      "v": 62
    },
    {
      "midi": 74,
      "hit": false,
      "t": 11655,
      "d": 50,
      "v": 75
    },
    {
      "midi": 59,
      "hit": false,
      "t": 11680,
      "d": 40,
      "v": 70
    },
    {
      "midi": 47,
      "hit": false,
      "t": 11680,
      "d": 45,
      "v": 66
    },
    {
      "midi": 78,
      "hit": false,
      "t": 12000,
      "d": 605,
      "v": 62
    },
    {
      "midi": 73,
      "hit": false,
      "t": 12010,
      "d": 400,
      "v": 60
    },
    {
      "midi": 67,
      "hit": false,
      "t": 12015,
      "d": 760,
      "v": 55
    },
    {
      "midi": 58,
      "hit": false,
      "t": 12025,
      "d": 580,
      "v": 55
    },
    {
      "midi": 46,
      "hit": false,
      "t": 12035,
      "d": 790,
      "v": 56
    },
    {
      "midi": 73,
      "hit": false,
      "t": 12540,
      "d": 300,
      "v": 66
    },
    {
      "midi": 76,
      "hit": false,
      "t": 12815,
      "d": 70,
      "v": 69
    },
    {
      "midi": 64,
      "hit": false,
      "t": 13405,
      "d": 120,
      "v": 52
    },
    {
      "midi": 72,
      "hit": false,
      "t": 13410,
      "d": 125,
      "v": 61
    },
    {
      "midi": 45,
      "hit": false,
      "t": 13410,
      "d": 705,
      "v": 50
    },
    {
      "midi": 67,
      "hit": false,
      "t": 13415,
      "d": 100,
      "v": 51
    },
    {
      "midi": 52,
      "hit": false,
      "t": 13415,
      "d": 230,
      "v": 52
    },
    {
      "midi": 60,
      "hit": false,
      "t": 13420,
      "d": 90,
      "v": 45
    },
    {
      "midi": 62,
      "hit": false,
      "t": 13655,
      "d": 50,
      "v": 60
    },
    {
      "midi": 74,
      "hit": false,
      "t": 13655,
      "d": 70,
      "v": 69
    },
    {
      "midi": 76,
      "hit": false,
      "t": 13845,
      "d": 45,
      "v": 74
    },
    {
      "midi": 64,
      "hit": false,
      "t": 13845,
      "d": 50,
      "v": 70
    },
    {
      "midi": 66,
      "hit": false,
      "t": 14100,
      "d": 280,
      "v": 66
    },
    {
      "midi": 71,
      "hit": false,
      "t": 14105,
      "d": 395,
      "v": 66
    },
    {
      "midi": 60,
      "hit": false,
      "t": 14110,
      "d": 275,
      "v": 57
    },
    {
      "midi": 50,
      "hit": false,
      "t": 14120,
      "d": 1235,
      "v": 57
    },
    {
      "midi": 66,
      "hit": false,
      "t": 14570,
      "d": 80,
      "v": 54
    },
    {
      "midi": 66,
      "hit": false,
      "t": 14810,
      "d": 205,
      "v": 52
    },
    {
      "midi": 60,
      "hit": false,
      "t": 14825,
      "d": 155,
      "v": 46
    },
    {
      "midi": 69,
      "hit": false,
      "t": 14825,
      "d": 185,
      "v": 45
    },
    {
      "midi": 38,
      "hit": false,
      "t": 14845,
      "d": 335,
      "v": 44
    },
    {
      "midi": 59,
      "hit": false,
      "t": 15305,
      "d": 100,
      "v": 69
    },
    {
      "midi": 67,
      "hit": false,
      "t": 15305,
      "d": 220,
      "v": 69
    },
    {
      "midi": 43,
      "hit": false,
      "t": 15320,
      "d": 75,
      "v": 65
    },
    {
      "midi": 71,
      "hit": false,
      "t": 15500,
      "d": 180,
      "v": 69
    },
    {
      "midi": 74,
      "hit": false,
      "t": 15690,
      "d": 50,
      "v": 65
    },
    {
      "midi": 59,
      "hit": false,
      "t": 15725,
      "d": 50,
      "v": 55
    },
    {
      "midi": 47,
      "hit": false,
      "t": 15730,
      "d": 45,
      "v": 54
    },
    {
      "midi": 73,
      "hit": false,
      "t": 16085,
      "d": 435,
      "v": 55
    },
    {
      "midi": 78,
      "hit": false,
      "t": 16085,
      "d": 600,
      "v": 61
    },
    {
      "midi": 67,
      "hit": false,
      "t": 16095,
      "d": 750,
      "v": 54
    },
    {
      "midi": 58,
      "hit": false,
      "t": 16105,
      "d": 590,
      "v": 51
    },
    {
      "midi": 46,
      "hit": false,
      "t": 16115,
      "d": 770,
      "v": 49
    },
    {
      "midi": 73,
      "hit": false,
      "t": 16630,
      "d": 290,
      "v": 67
    },
    {
      "midi": 76,
      "hit": false,
      "t": 16895,
      "d": 70,
      "v": 74
    },
    {
      "midi": 64,
      "hit": false,
      "t": 17440,
      "d": 130,
      "v": 47
    },
    {
      "midi": 72,
      "hit": false,
      "t": 17445,
      "d": 110,
      "v": 62
    },
    {
      "midi": 52,
      "hit": false,
      "t": 17450,
      "d": 145,
      "v": 54
    },
    {
      "midi": 45,
      "hit": false,
      "t": 17450,
      "d": 185,
      "v": 52
    },
    {
      "midi": 60,
      "hit": false,
      "t": 17455,
      "d": 85,
      "v": 46
    },
    {
      "midi": 67,
      "hit": false,
      "t": 17455,
      "d": 95,
      "v": 49
    },
    {
      "midi": 62,
      "hit": false,
      "t": 17690,
      "d": 60,
      "v": 59
    },
    {
      "midi": 74,
      "hit": false,
      "t": 17690,
      "d": 75,
      "v": 65
    },
    {
      "midi": 76,
      "hit": false,
      "t": 17865,
      "d": 65,
      "v": 79
    },
    {
      "midi": 64,
      "hit": false,
      "t": 17870,
      "d": 60,
      "v": 77
    },
    {
      "midi": 66,
      "hit": false,
      "t": 18090,
      "d": 180,
      "v": 77
    },
    {
      "midi": 71,
      "hit": false,
      "t": 18095,
      "d": 250,
      "v": 78
    },
    {
      "midi": 60,
      "hit": false,
      "t": 18100,
      "d": 170,
      "v": 75
    },
    {
      "midi": 50,
      "hit": false,
      "t": 18105,
      "d": 135,
      "v": 56
    },
    {
      "midi": 38,
      "hit": false,
      "t": 18105,
      "d": 180,
      "v": 60
    },
    {
      "midi": 66,
      "hit": false,
      "t": 18520,
      "d": 85,
      "v": 46
    },
    {
      "midi": 69,
      "hit": false,
      "t": 18690,
      "d": 110,
      "v": 77
    },
    {
      "midi": 66,
      "hit": false,
      "t": 18695,
      "d": 95,
      "v": 67
    },
    {
      "midi": 60,
      "hit": false,
      "t": 18700,
      "d": 80,
      "v": 77
    },
    {
      "midi": 39,
      "hit": false,
      "t": 18715,
      "d": 65,
      "v": 78
    },
    {
      "midi": 51,
      "hit": false,
      "t": 18715,
      "d": 65,
      "v": 79
    },
    {
      "midi": 64,
      "hit": false,
      "t": 19130,
      "d": 135,
      "v": 74
    },
    {
      "midi": 67,
      "hit": false,
      "t": 19130,
      "d": 225,
      "v": 71
    },
    {
      "midi": 59,
      "hit": false,
      "t": 19135,
      "d": 120,
      "v": 73
    },
    {
      "midi": 40,
      "hit": false,
      "t": 19145,
      "d": 40,
      "v": 74
    },
    {
      "midi": 52,
      "hit": false,
      "t": 19145,
      "d": 55,
      "v": 74
    },
    {
      "midi": 69,
      "hit": false,
      "t": 19360,
      "d": 120,
      "v": 49
    },
    {
      "midi": 71,
      "hit": false,
      "t": 19520,
      "d": 60,
      "v": 70
    },
    {
      "midi": 74,
      "hit": false,
      "t": 19775,
      "d": 125,
      "v": 75
    },
    {
      "midi": 71,
      "hit": false,
      "t": 19780,
      "d": 105,
      "v": 65
    },
    {
      "midi": 62,
      "hit": false,
      "t": 19785,
      "d": 90,
      "v": 69
    },
    {
      "midi": 66,
      "hit": false,
      "t": 19785,
      "d": 100,
      "v": 70
    },
    {
      "midi": 47,
      "hit": false,
      "t": 19790,
      "d": 60,
      "v": 83
    },
    {
      "midi": 59,
      "hit": false,
      "t": 19790,
      "d": 60,
      "v": 78
    },
    {
      "midi": 74,
      "hit": false,
      "t": 20175,
      "d": 45,
      "v": 63
    },
    {
      "midi": 62,
      "hit": false,
      "t": 20185,
      "d": 45,
      "v": 50
    },
    {
      "midi": 46,
      "hit": false,
      "t": 20365,
      "d": 65,
      "v": 89
    },
    {
      "midi": 64,
      "hit": false,
      "t": 20370,
      "d": 40,
      "v": 78
    },
    {
      "midi": 76,
      "hit": false,
      "t": 20370,
      "d": 55,
      "v": 92
    },
    {
      "midi": 58,
      "hit": false,
      "t": 20375,
      "d": 40,
      "v": 89
    },
    {
      "midi": 78,
      "hit": false,
      "t": 20775,
      "d": 85,
      "v": 77
    },
    {
      "midi": 74,
      "hit": false,
      "t": 20780,
      "d": 55,
      "v": 55
    },
    {
      "midi": 45,
      "hit": false,
      "t": 20785,
      "d": 65,
      "v": 79
    },
    {
      "midi": 66,
      "hit": false,
      "t": 20785,
      "d": 65,
      "v": 69
    },
    {
      "midi": 57,
      "hit": false,
      "t": 20790,
      "d": 50,
      "v": 74
    },
    {
      "midi": 67,
      "hit": false,
      "t": 20985,
      "d": 35,
      "v": 61
    },
    {
      "midi": 79,
      "hit": false,
      "t": 20990,
      "d": 30,
      "v": 67
    },
    {
      "midi": 69,
      "hit": false,
      "t": 21155,
      "d": 35,
      "v": 74
    },
    {
      "midi": 81,
      "hit": false,
      "t": 21155,
      "d": 35,
      "v": 79
    },
    {
      "midi": 78,
      "hit": false,
      "t": 21355,
      "d": 125,
      "v": 77
    },
    {
      "midi": 74,
      "hit": false,
      "t": 21360,
      "d": 100,
      "v": 59
    },
    {
      "midi": 68,
      "hit": false,
      "t": 21365,
      "d": 75,
      "v": 71
    },
    {
      "midi": 59,
      "hit": false,
      "t": 21390,
      "d": 50,
      "v": 78
    },
    {
      "midi": 47,
      "hit": false,
      "t": 21390,
      "d": 60,
      "v": 86
    },
    {
      "midi": 74,
      "hit": false,
      "t": 21760,
      "d": 80,
      "v": 52
    },
    {
      "midi": 76,
      "hit": false,
      "t": 21925,
      "d": 75,
      "v": 70
    },
    {
      "midi": 73,
      "hit": false,
      "t": 21930,
      "d": 45,
      "v": 56
    },
    {
      "midi": 67,
      "hit": false,
      "t": 21930,
      "d": 55,
      "v": 66
    },
    {
      "midi": 45,
      "hit": false,
      "t": 21940,
      "d": 35,
      "v": 75
    },
    {
      "midi": 57,
      "hit": false,
      "t": 21940,
      "d": 55,
      "v": 73
    },
    {
      "midi": 74,
      "hit": false,
      "t": 22345,
      "d": 620,
      "v": 62
    },
    {
      "midi": 66,
      "hit": false,
      "t": 22350,
      "d": 580,
      "v": 66
    },
    {
      "midi": 69,
      "hit": false,
      "t": 22355,
      "d": 585,
      "v": 63
    },
    {
      "midi": 62,
      "hit": false,
      "t": 22375,
      "d": 185,
      "v": 65
    },
    {
      "midi": 50,
      "hit": false,
      "t": 22835,
      "d": 100,
      "v": 77
    },
    {
      "midi": 78,
      "hit": false,
      "t": 23345,
      "d": 530,
      "v": 78
    },
    {
      "midi": 73,
      "hit": false,
      "t": 23350,
      "d": 580,
      "v": 69
    },
    {
      "midi": 67,
      "hit": false,
      "t": 23355,
      "d": 590,
      "v": 66
    },
    {
      "midi": 58,
      "hit": false,
      "t": 23360,
      "d": 525,
      "v": 70
    },
    {
      "midi": 76,
      "hit": false,
      "t": 23905,
      "d": 45,
      "v": 73
    },
    {
      "midi": 46,
      "hit": false,
      "t": 23910,
      "d": 50,
      "v": 74
    },
    {
      "midi": 60,
      "hit": false,
      "t": 24405,
      "d": 220,
      "v": 45
    },
    {
      "midi": 64,
      "hit": false,
      "t": 24460,
      "d": 185,
      "v": 50
    },
    {
      "midi": 67,
      "hit": false,
      "t": 24495,
      "d": 150,
      "v": 54
    },
    {
      "midi": 45,
      "hit": false,
      "t": 24530,
      "d": 795,
      "v": 55
    },
    {
      "midi": 52,
      "hit": false,
      "t": 24540,
      "d": 400,
      "v": 51
    },
    {
      "midi": 72,
      "hit": false,
      "t": 24580,
      "d": 145,
      "v": 62
    },
    {
      "midi": 62,
      "hit": false,
      "t": 24835,
      "d": 60,
      "v": 55
    },
    {
      "midi": 74,
      "hit": false,
      "t": 24840,
      "d": 75,
      "v": 65
    },
    {
      "midi": 76,
      "hit": false,
      "t": 25030,
      "d": 65,
      "v": 79
    },
    {
      "midi": 64,
      "hit": false,
      "t": 25040,
      "d": 45,
      "v": 66
    },
    {
      "midi": 71,
      "hit": false,
      "t": 25280,
      "d": 460,
      "v": 70
    },
    {
      "midi": 60,
      "hit": false,
      "t": 25285,
      "d": 285,
      "v": 62
    },
    {
      "midi": 66,
      "hit": false,
      "t": 25285,
      "d": 300,
      "v": 61
    },
    {
      "midi": 50,
      "hit": false,
      "t": 25330,
      "d": 665,
      "v": 56
    },
    {
      "midi": 66,
      "hit": false,
      "t": 25765,
      "d": 85,
      "v": 56
    },
    {
      "midi": 38,
      "hit": false,
      "t": 26030,
      "d": 50,
      "v": 51
    },
    {
      "midi": 69,
      "hit": false,
      "t": 26035,
      "d": 90,
      "v": 59
    },
    {
      "midi": 66,
      "hit": false,
      "t": 26040,
      "d": 80,
      "v": 62
    },
    {
      "midi": 60,
      "hit": false,
      "t": 26055,
      "d": 60,
      "v": 59
    },
    {
      "midi": 59,
      "hit": false,
      "t": 26540,
      "d": 80,
      "v": 67
    },
    {
      "midi": 31,
      "hit": false,
      "t": 26545,
      "d": 30,
      "v": 63
    },
    {
      "midi": 67,
      "hit": false,
      "t": 26545,
      "d": 135,
      "v": 65
    },
    {
      "midi": 71,
      "hit": false,
      "t": 26675,
      "d": 145,
      "v": 69
    },
    {
      "midi": 74,
      "hit": false,
      "t": 26810,
      "d": 40,
      "v": 74
    },
    {
      "midi": 59,
      "hit": false,
      "t": 26840,
      "d": 30,
      "v": 74
    },
    {
      "midi": 47,
      "hit": false,
      "t": 26850,
      "d": 30,
      "v": 62
    },
    {
      "midi": 78,
      "hit": false,
      "t": 27145,
      "d": 835,
      "v": 73
    },
    {
      "midi": 73,
      "hit": false,
      "t": 27155,
      "d": 630,
      "v": 66
    },
    {
      "midi": 67,
      "hit": false,
      "t": 27170,
      "d": 910,
      "v": 57
    },
    {
      "midi": 46,
      "hit": false,
      "t": 27175,
      "d": 835,
      "v": 69
    },
    {
      "midi": 58,
      "hit": false,
      "t": 27180,
      "d": 680,
      "v": 69
    },
    {
      "midi": 73,
      "hit": false,
      "t": 27950,
      "d": 310,
      "v": 61
    },
    {
      "midi": 76,
      "hit": false,
      "t": 28225,
      "d": 80,
      "v": 78
    },
    {
      "midi": 64,
      "hit": false,
      "t": 28720,
      "d": 115,
      "v": 61
    },
    {
      "midi": 45,
      "hit": false,
      "t": 28720,
      "d": 695,
      "v": 65
    },
    {
      "midi": 60,
      "hit": false,
      "t": 28725,
      "d": 95,
      "v": 66
    },
    {
      "midi": 67,
      "hit": false,
      "t": 28725,
      "d": 95,
      "v": 62
    },
    {
      "midi": 72,
      "hit": false,
      "t": 28730,
      "d": 110,
      "v": 74
    },
    {
      "midi": 52,
      "hit": false,
      "t": 28730,
      "d": 215,
      "v": 65
    },
    {
      "midi": 62,
      "hit": false,
      "t": 28955,
      "d": 50,
      "v": 57
    },
    {
      "midi": 74,
      "hit": false,
      "t": 28955,
      "d": 75,
      "v": 71
    },
    {
      "midi": 76,
      "hit": false,
      "t": 29140,
      "d": 60,
      "v": 77
    },
    {
      "midi": 64,
      "hit": false,
      "t": 29150,
      "d": 45,
      "v": 66
    },
    {
      "midi": 66,
      "hit": false,
      "t": 29380,
      "d": 295,
      "v": 75
    },
    {
      "midi": 71,
      "hit": false,
      "t": 29380,
      "d": 375,
      "v": 78
    },
    {
      "midi": 60,
      "hit": false,
      "t": 29385,
      "d": 305,
      "v": 70
    },
    {
      "midi": 50,
      "hit": false,
      "t": 29395,
      "d": 1060,
      "v": 57
    },
    {
      "midi": 66,
      "hit": false,
      "t": 29815,
      "d": 85,
      "v": 70
    },
    {
      "midi": 69,
      "hit": false,
      "t": 30015,
      "d": 105,
      "v": 73
    },
    {
      "midi": 60,
      "hit": false,
      "t": 30025,
      "d": 80,
      "v": 71
    },
    {
      "midi": 66,
      "hit": false,
      "t": 30030,
      "d": 70,
      "v": 66
    },
    {
      "midi": 38,
      "hit": false,
      "t": 30045,
      "d": 245,
      "v": 57
    },
    {
      "midi": 67,
      "hit": false,
      "t": 30235,
      "d": 430,
      "v": 71
    },
    {
      "midi": 59,
      "hit": false,
      "t": 30250,
      "d": 310,
      "v": 71
    },
    {
      "midi": 43,
      "hit": false,
      "t": 30460,
      "d": 1405,
      "v": 61
    },
    {
      "midi": 74,
      "hit": false,
      "t": 30915,
      "d": 80,
      "v": 77
    },
    {
      "midi": 71,
      "hit": false,
      "t": 31115,
      "d": 45,
      "v": 71
    },
    {
      "midi": 74,
      "hit": false,
      "t": 31360,
      "d": 220,
      "v": 69
    },
    {
      "midi": 55,
      "hit": false,
      "t": 31360,
      "d": 430,
      "v": 50
    },
    {
      "midi": 67,
      "hit": false,
      "t": 31365,
      "d": 225,
      "v": 62
    },
    {
      "midi": 71,
      "hit": false,
      "t": 31565,
      "d": 105,
      "v": 60
    },
    {
      "midi": 74,
      "hit": false,
      "t": 31800,
      "d": 120,
      "v": 65
    },
    {
      "midi": 71,
      "hit": false,
      "t": 32010,
      "d": 220,
      "v": 54
    },
    {
      "midi": 74,
      "hit": false,
      "t": 32245,
      "d": 125,
      "v": 61
    },
    {
      "midi": 43,
      "hit": false,
      "t": 32250,
      "d": 160,
      "v": 46
    },
    {
      "midi": 53,
      "hit": false,
      "t": 32255,
      "d": 160,
      "v": 45
    },
    {
      "midi": 67,
      "hit": false,
      "t": 32260,
      "d": 105,
      "v": 57
    },
    {
      "midi": 74,
      "hit": false,
      "t": 32720,
      "d": 105,
      "v": 60
    },
    {
      "midi": 67,
      "hit": false,
      "t": 32735,
      "d": 85,
      "v": 57
    },
    {
      "midi": 53,
      "hit": false,
      "t": 32740,
      "d": 85,
      "v": 51
    },
    {
      "midi": 43,
      "hit": false,
      "t": 32745,
      "d": 70,
      "v": 50
    },
    {
      "midi": 71,
      "hit": false,
      "t": 32905,
      "d": 60,
      "v": 63
    },
    {
      "midi": 74,
      "hit": false,
      "t": 33140,
      "d": 90,
      "v": 51
    },
    {
      "midi": 67,
      "hit": false,
      "t": 33145,
      "d": 75,
      "v": 51
    },
    {
      "midi": 53,
      "hit": false,
      "t": 33155,
      "d": 115,
      "v": 46
    },
    {
      "midi": 43,
      "hit": false,
      "t": 33165,
      "d": 115,
      "v": 46
    },
    {
      "midi": 79,
      "hit": false,
      "t": 33355,
      "d": 100,
      "v": 70
    },
    {
      "midi": 67,
      "hit": false,
      "t": 33355,
      "d": 155,
      "v": 60
    },
    {
      "midi": 53,
      "hit": false,
      "t": 33560,
      "d": 55,
      "v": 55
    },
    {
      "midi": 43,
      "hit": false,
      "t": 33570,
      "d": 55,
      "v": 51
    },
    {
      "midi": 71,
      "hit": false,
      "t": 33785,
      "d": 100,
      "v": 57
    },
    {
      "midi": 67,
      "hit": false,
      "t": 33975,
      "d": 110,
      "v": 56
    },
    {
      "midi": 72,
      "hit": false,
      "t": 33975,
      "d": 125,
      "v": 54
    },
    {
      "midi": 52,
      "hit": false,
      "t": 34005,
      "d": 100,
      "v": 56
    },
    {
      "midi": 43,
      "hit": false,
      "t": 34015,
      "d": 110,
      "v": 46
    },
    {
      "midi": 72,
      "hit": false,
      "t": 34425,
      "d": 80,
      "v": 73
    },
    {
      "midi": 67,
      "hit": false,
      "t": 34430,
      "d": 75,
      "v": 70
    },
    {
      "midi": 52,
      "hit": false,
      "t": 34440,
      "d": 80,
      "v": 57
    },
    {
      "midi": 43,
      "hit": false,
      "t": 34450,
      "d": 75,
      "v": 47
    },
    {
      "midi": 71,
      "hit": false,
      "t": 34635,
      "d": 60,
      "v": 52
    },
    {
      "midi": 67,
      "hit": false,
      "t": 34840,
      "d": 95,
      "v": 65
    },
    {
      "midi": 72,
      "hit": false,
      "t": 34845,
      "d": 115,
      "v": 63
    },
    {
      "midi": 51,
      "hit": false,
      "t": 34845,
      "d": 130,
      "v": 47
    },
    {
      "midi": 43,
      "hit": false,
      "t": 34860,
      "d": 110,
      "v": 49
    },
    {
      "midi": 67,
      "hit": false,
      "t": 35050,
      "d": 105,
      "v": 62
    },
    {
      "midi": 69,
      "hit": false,
      "t": 35260,
      "d": 110,
      "v": 57
    },
    {
      "midi": 51,
      "hit": false,
      "t": 35265,
      "d": 55,
      "v": 59
    },
    {
      "midi": 43,
      "hit": false,
      "t": 35295,
      "d": 45,
      "v": 45
    },
    {
      "midi": 70,
      "hit": false,
      "t": 35445,
      "d": 145,
      "v": 60
    },
    {
      "midi": 38,
      "hit": false,
      "t": 35675,
      "d": 70,
      "v": 70
    },
    {
      "midi": 67,
      "hit": false,
      "t": 35675,
      "d": 90,
      "v": 65
    },
    {
      "midi": 50,
      "hit": false,
      "t": 35680,
      "d": 60,
      "v": 63
    },
    {
      "midi": 71,
      "hit": false,
      "t": 35680,
      "d": 75,
      "v": 60
    },
    {
      "midi": 62,
      "hit": false,
      "t": 35685,
      "d": 85,
      "v": 56
    },
    {
      "midi": 74,
      "hit": false,
      "t": 35870,
      "d": 65,
      "v": 67
    },
    {
      "midi": 39,
      "hit": false,
      "t": 36070,
      "d": 55,
      "v": 79
    },
    {
      "midi": 51,
      "hit": false,
      "t": 36075,
      "d": 40,
      "v": 70
    },
    {
      "midi": 71,
      "hit": false,
      "t": 36250,
      "d": 175,
      "v": 69
    },
    {
      "midi": 67,
      "hit": false,
      "t": 36260,
      "d": 115,
      "v": 69
    },
    {
      "midi": 61,
      "hit": false,
      "t": 36265,
      "d": 105,
      "v": 62
    },
    {
      "midi": 52,
      "hit": false,
      "t": 36300,
      "d": 45,
      "v": 77
    },
    {
      "midi": 40,
      "hit": false,
      "t": 36305,
      "d": 40,
      "v": 75
    },
    {
      "midi": 67,
      "hit": false,
      "t": 36710,
      "d": 120,
      "v": 51
    },
    {
      "midi": 69,
      "hit": false,
      "t": 36865,
      "d": 75,
      "v": 71
    },
    {
      "midi": 38,
      "hit": false,
      "t": 36870,
      "d": 35,
      "v": 67
    },
    {
      "midi": 60,
      "hit": false,
      "t": 36870,
      "d": 65,
      "v": 78
    },
    {
      "midi": 50,
      "hit": false,
      "t": 36875,
      "d": 40,
      "v": 69
    },
    {
      "midi": 66,
      "hit": false,
      "t": 36880,
      "d": 35,
      "v": 69
    },
    {
      "midi": 62,
      "hit": false,
      "t": 37310,
      "d": 230,
      "v": 65
    },
    {
      "midi": 67,
      "hit": false,
      "t": 37310,
      "d": 300,
      "v": 69
    },
    {
      "midi": 59,
      "hit": false,
      "t": 37320,
      "d": 150,
      "v": 74
    },
    {
      "midi": 55,
      "hit": false,
      "t": 37335,
      "d": 80,
      "v": 73
    },
    {
      "midi": 43,
      "hit": false,
      "t": 37780,
      "d": 80,
      "v": 86
    },
    {
      "midi": 83,
      "hit": false,
      "t": 38290,
      "d": 520,
      "v": 99
    },
    {
      "midi": 77,
      "hit": false,
      "t": 38295,
      "d": 510,
      "v": 89
    },
    {
      "midi": 74,
      "hit": false,
      "t": 38295,
      "d": 530,
      "v": 79
    },
    {
      "midi": 56,
      "hit": false,
      "t": 38310,
      "d": 605,
      "v": 86
    },
    {
      "midi": 44,
      "hit": false,
      "t": 38800,
      "d": 75,
      "v": 92
    },
    {
      "midi": 83,
      "hit": false,
      "t": 39050,
      "d": 395,
      "v": 99
    },
    {
      "midi": 72,
      "hit": false,
      "t": 39055,
      "d": 405,
      "v": 92
    },
    {
      "midi": 78,
      "hit": false,
      "t": 39055,
      "d": 415,
      "v": 99
    },
    {
      "midi": 45,
      "hit": false,
      "t": 39255,
      "d": 80,
      "v": 78
    },
    {
      "midi": 57,
      "hit": false,
      "t": 39260,
      "d": 75,
      "v": 75
    },
    {
      "midi": 60,
      "hit": false,
      "t": 39725,
      "d": 50,
      "v": 77
    },
    {
      "midi": 54,
      "hit": false,
      "t": 39725,
      "d": 60,
      "v": 77
    },
    {
      "midi": 83,
      "hit": false,
      "t": 39730,
      "d": 80,
      "v": 92
    },
    {
      "midi": 50,
      "hit": false,
      "t": 39735,
      "d": 40,
      "v": 69
    },
    {
      "midi": 78,
      "hit": false,
      "t": 39735,
      "d": 60,
      "v": 99
    },
    {
      "midi": 72,
      "hit": false,
      "t": 39740,
      "d": 50,
      "v": 89
    },
    {
      "midi": 81,
      "hit": false,
      "t": 39965,
      "d": 55,
      "v": 49
    },
    {
      "midi": 38,
      "hit": false,
      "t": 40175,
      "d": 40,
      "v": 69
    },
    {
      "midi": 83,
      "hit": false,
      "t": 40175,
      "d": 95,
      "v": 67
    },
    {
      "midi": 78,
      "hit": false,
      "t": 40400,
      "d": 150,
      "v": 62
    },
    {
      "midi": 74,
      "hit": false,
      "t": 40405,
      "d": 150,
      "v": 57
    },
    {
      "midi": 86,
      "hit": false,
      "t": 40405,
      "d": 155,
      "v": 69
    },
    {
      "midi": 60,
      "hit": false,
      "t": 40575,
      "d": 40,
      "v": 67
    },
    {
      "midi": 50,
      "hit": false,
      "t": 40580,
      "d": 40,
      "v": 59
    },
    {
      "midi": 54,
      "hit": false,
      "t": 40580,
      "d": 50,
      "v": 61
    },
    {
      "midi": 81,
      "hit": false,
      "t": 40805,
      "d": 70,
      "v": 56
    },
    {
      "midi": 83,
      "hit": false,
      "t": 40985,
      "d": 95,
      "v": 74
    },
    {
      "midi": 78,
      "hit": false,
      "t": 40990,
      "d": 70,
      "v": 61
    },
    {
      "midi": 57,
      "hit": false,
      "t": 40995,
      "d": 45,
      "v": 67
    },
    {
      "midi": 72,
      "hit": false,
      "t": 40995,
      "d": 75,
      "v": 63
    },
    {
      "midi": 45,
      "hit": false,
      "t": 41000,
      "d": 35,
      "v": 73
    },
    {
      "midi": 81,
      "hit": false,
      "t": 41200,
      "d": 55,
      "v": 51
    },
    {
      "midi": 60,
      "hit": false,
      "t": 41360,
      "d": 40,
      "v": 56
    },
    {
      "midi": 54,
      "hit": false,
      "t": 41365,
      "d": 45,
      "v": 56
    },
    {
      "midi": 50,
      "hit": false,
      "t": 41385,
      "d": 35,
      "v": 47
    },
    {
      "midi": 83,
      "hit": false,
      "t": 41385,
      "d": 95,
      "v": 57
    },
    {
      "midi": 86,
      "hit": false,
      "t": 41590,
      "d": 225,
      "v": 73
    },
    {
      "midi": 78,
      "hit": false,
      "t": 41590,
      "d": 260,
      "v": 71
    },
    {
      "midi": 74,
      "hit": false,
      "t": 41595,
      "d": 270,
      "v": 61
    },
    {
      "midi": 38,
      "hit": false,
      "t": 41775,
      "d": 55,
      "v": 75
    },
    {
      "midi": 74,
      "hit": false,
      "t": 42190,
      "d": 65,
      "v": 92
    },
    {
      "midi": 50,
      "hit": false,
      "t": 42195,
      "d": 90,
      "v": 73
    },
    {
      "midi": 75,
      "hit": false,
      "t": 42300,
      "d": 170,
      "v": 62
    },
    {
      "midi": 51,
      "hit": false,
      "t": 42310,
      "d": 100,
      "v": 70
    },
    {
      "midi": 76,
      "hit": false,
      "t": 42415,
      "d": 145,
      "v": 63
    },
    {
      "midi": 52,
      "hit": false,
      "t": 42420,
      "d": 60,
      "v": 60
    },
    {
      "midi": 71,
      "hit": false,
      "t": 42570,
      "d": 60,
      "v": 83
    },
    {
      "midi": 79,
      "hit": false,
      "t": 42575,
      "d": 70,
      "v": 89
    },
    {
      "midi": 67,
      "hit": false,
      "t": 42580,
      "d": 55,
      "v": 79
    },
    {
      "midi": 43,
      "hit": false,
      "t": 42590,
      "d": 30,
      "v": 74
    },
    {
      "midi": 55,
      "hit": false,
      "t": 42595,
      "d": 35,
      "v": 74
    },
    {
      "midi": 59,
      "hit": false,
      "t": 42970,
      "d": 30,
      "v": 62
    },
    {
      "midi": 55,
      "hit": false,
      "t": 42970,
      "d": 40,
      "v": 56
    },
    {
      "midi": 50,
      "hit": false,
      "t": 42975,
      "d": 45,
      "v": 63
    },
    {
      "midi": 71,
      "hit": false,
      "t": 42980,
      "d": 60,
      "v": 61
    },
    {
      "midi": 76,
      "hit": false,
      "t": 42990,
      "d": 60,
      "v": 61
    },
    {
      "midi": 67,
      "hit": false,
      "t": 42995,
      "d": 50,
      "v": 54
    },
    {
      "midi": 74,
      "hit": false,
      "t": 43205,
      "d": 55,
      "v": 37
    },
    {
      "midi": 38,
      "hit": false,
      "t": 43375,
      "d": 40,
      "v": 71
    },
    {
      "midi": 76,
      "hit": false,
      "t": 43385,
      "d": 75,
      "v": 55
    },
    {
      "midi": 79,
      "hit": false,
      "t": 43590,
      "d": 215,
      "v": 86
    },
    {
      "midi": 71,
      "hit": false,
      "t": 43595,
      "d": 185,
      "v": 74
    },
    {
      "midi": 67,
      "hit": false,
      "t": 43600,
      "d": 160,
      "v": 70
    },
    {
      "midi": 50,
      "hit": false,
      "t": 43755,
      "d": 55,
      "v": 63
    },
    {
      "midi": 55,
      "hit": false,
      "t": 43765,
      "d": 35,
      "v": 59
    },
    {
      "midi": 59,
      "hit": false,
      "t": 43765,
      "d": 35,
      "v": 66
    },
    {
      "midi": 74,
      "hit": false,
      "t": 43965,
      "d": 70,
      "v": 57
    },
    {
      "midi": 43,
      "hit": false,
      "t": 44140,
      "d": 35,
      "v": 67
    },
    {
      "midi": 55,
      "hit": false,
      "t": 44145,
      "d": 65,
      "v": 71
    },
    {
      "midi": 67,
      "hit": false,
      "t": 44150,
      "d": 90,
      "v": 77
    },
    {
      "midi": 79,
      "hit": false,
      "t": 44155,
      "d": 155,
      "v": 95
    },
    {
      "midi": 78,
      "hit": false,
      "t": 44330,
      "d": 140,
      "v": 70
    },
    {
      "midi": 59,
      "hit": false,
      "t": 44515,
      "d": 50,
      "v": 74
    },
    {
      "midi": 50,
      "hit": false,
      "t": 44515,
      "d": 70,
      "v": 66
    },
    {
      "midi": 55,
      "hit": false,
      "t": 44520,
      "d": 40,
      "v": 62
    },
    {
      "midi": 79,
      "hit": false,
      "t": 44525,
      "d": 85,
      "v": 77
    },
    {
      "midi": 76,
      "hit": false,
      "t": 44695,
      "d": 295,
      "v": 73
    },
    {
      "midi": 67,
      "hit": false,
      "t": 44715,
      "d": 160,
      "v": 67
    },
    {
      "midi": 55,
      "hit": false,
      "t": 44890,
      "d": 55,
      "v": 69
    },
    {
      "midi": 43,
      "hit": false,
      "t": 44890,
      "d": 65,
      "v": 71
    },
    {
      "midi": 74,
      "hit": false,
      "t": 45045,
      "d": 130,
      "v": 69
    },
    {
      "midi": 76,
      "hit": false,
      "t": 45225,
      "d": 90,
      "v": 71
    },
    {
      "midi": 55,
      "hit": false,
      "t": 45240,
      "d": 40,
      "v": 73
    },
    {
      "midi": 43,
      "hit": false,
      "t": 45245,
      "d": 35,
      "v": 74
    },
    {
      "midi": 77,
      "hit": false,
      "t": 45400,
      "d": 70,
      "v": 73
    },
    {
      "midi": 56,
      "hit": false,
      "t": 45435,
      "d": 60,
      "v": 86
    },
    {
      "midi": 44,
      "hit": false,
      "t": 45440,
      "d": 50,
      "v": 86
    },
    {
      "midi": 78,
      "hit": false,
      "t": 45565,
      "d": 65,
      "v": 95
    },
    {
      "midi": 45,
      "hit": false,
      "t": 45595,
      "d": 50,
      "v": 89
    },
    {
      "midi": 57,
      "hit": false,
      "t": 45595,
      "d": 55,
      "v": 89
    },
    {
      "midi": 78,
      "hit": false,
      "t": 45965,
      "d": 135,
      "v": 75
    },
    {
      "midi": 60,
      "hit": false,
      "t": 45975,
      "d": 40,
      "v": 67
    },
    {
      "midi": 54,
      "hit": false,
      "t": 45975,
      "d": 50,
      "v": 70
    },
    {
      "midi": 50,
      "hit": false,
      "t": 45980,
      "d": 40,
      "v": 59
    },
    {
      "midi": 72,
      "hit": false,
      "t": 45985,
      "d": 80,
      "v": 69
    },
    {
      "midi": 66,
      "hit": false,
      "t": 45990,
      "d": 55,
      "v": 66
    },
    {
      "midi": 76,
      "hit": false,
      "t": 46180,
      "d": 100,
      "v": 54
    },
    {
      "midi": 38,
      "hit": false,
      "t": 46345,
      "d": 40,
      "v": 67
    },
    {
      "midi": 78,
      "hit": false,
      "t": 46345,
      "d": 75,
      "v": 77
    },
    {
      "midi": 66,
      "hit": false,
      "t": 46355,
      "d": 35,
      "v": 60
    },
    {
      "midi": 72,
      "hit": false,
      "t": 46545,
      "d": 75,
      "v": 83
    },
    {
      "midi": 81,
      "hit": false,
      "t": 46550,
      "d": 75,
      "v": 92
    },
    {
      "midi": 69,
      "hit": false,
      "t": 46560,
      "d": 40,
      "v": 67
    },
    {
      "midi": 60,
      "hit": false,
      "t": 46725,
      "d": 45,
      "v": 69
    },
    {
      "midi": 54,
      "hit": false,
      "t": 46730,
      "d": 55,
      "v": 62
    },
    {
      "midi": 50,
      "hit": false,
      "t": 46735,
      "d": 40,
      "v": 59
    },
    {
      "midi": 76,
      "hit": false,
      "t": 46920,
      "d": 140,
      "v": 59
    },
    {
      "midi": 78,
      "hit": false,
      "t": 47090,
      "d": 110,
      "v": 78
    },
    {
      "midi": 66,
      "hit": false,
      "t": 47095,
      "d": 70,
      "v": 79
    },
    {
      "midi": 72,
      "hit": false,
      "t": 47100,
      "d": 75,
      "v": 75
    },
    {
      "midi": 57,
      "hit": false,
      "t": 47105,
      "d": 55,
      "v": 70
    },
    {
      "midi": 45,
      "hit": false,
      "t": 47105,
      "d": 65,
      "v": 75
    },
    {
      "midi": 76,
      "hit": false,
      "t": 47295,
      "d": 85,
      "v": 56
    },
    {
      "midi": 78,
      "hit": false,
      "t": 47445,
      "d": 105,
      "v": 66
    },
    {
      "midi": 54,
      "hit": false,
      "t": 47450,
      "d": 55,
      "v": 63
    },
    {
      "midi": 60,
      "hit": false,
      "t": 47455,
      "d": 40,
      "v": 62
    },
    {
      "midi": 50,
      "hit": false,
      "t": 47460,
      "d": 40,
      "v": 59
    },
    {
      "midi": 76,
      "hit": false,
      "t": 47630,
      "d": 300,
      "v": 67
    },
    {
      "midi": 66,
      "hit": false,
      "t": 47640,
      "d": 170,
      "v": 63
    },
    {
      "midi": 72,
      "hit": false,
      "t": 47640,
      "d": 215,
      "v": 71
    },
    {
      "midi": 38,
      "hit": false,
      "t": 47815,
      "d": 50,
      "v": 61
    },
    {
      "midi": 60,
      "hit": false,
      "t": 48210,
      "d": 40,
      "v": 69
    },
    {
      "midi": 54,
      "hit": false,
      "t": 48215,
      "d": 50,
      "v": 67
    },
    {
      "midi": 50,
      "hit": false,
      "t": 48215,
      "d": 65,
      "v": 63
    },
    {
      "midi": 74,
      "hit": false,
      "t": 48220,
      "d": 170,
      "v": 61
    },
    {
      "midi": 76,
      "hit": false,
      "t": 48325,
      "d": 200,
      "v": 49
    },
    {
      "midi": 78,
      "hit": false,
      "t": 48425,
      "d": 170,
      "v": 56
    },
    {
      "midi": 79,
      "hit": false,
      "t": 48560,
      "d": 75,
      "v": 79
    },
    {
      "midi": 71,
      "hit": false,
      "t": 48570,
      "d": 60,
      "v": 70
    },
    {
      "midi": 55,
      "hit": false,
      "t": 48575,
      "d": 50,
      "v": 75
    },
    {
      "midi": 43,
      "hit": false,
      "t": 48575,
      "d": 55,
      "v": 78
    },
    {
      "midi": 50,
      "hit": false,
      "t": 48580,
      "d": 35,
      "v": 74
    },
    {
      "midi": 71,
      "hit": false,
      "t": 48975,
      "d": 65,
      "v": 73
    },
    {
      "midi": 74,
      "hit": false,
      "t": 48975,
      "d": 70,
      "v": 73
    },
    {
      "midi": 65,
      "hit": false,
      "t": 48980,
      "d": 70,
      "v": 78
    },
    {
      "midi": 73,
      "hit": false,
      "t": 49360,
      "d": 90,
      "v": 54
    },
    {
      "midi": 70,
      "hit": false,
      "t": 49370,
      "d": 75,
      "v": 60
    },
    {
      "midi": 64,
      "hit": false,
      "t": 49380,
      "d": 75,
      "v": 65
    },
    {
      "midi": 72,
      "hit": false,
      "t": 49770,
      "d": 95,
      "v": 52
    },
    {
      "midi": 63,
      "hit": false,
      "t": 49775,
      "d": 100,
      "v": 54
    },
    {
      "midi": 69,
      "hit": false,
      "t": 49780,
      "d": 85,
      "v": 52
    },
    {
      "midi": 67,
      "hit": false,
      "t": 49990,
      "d": 190,
      "v": 56
    },
    {
      "midi": 71,
      "hit": false,
      "t": 49995,
      "d": 175,
      "v": 54
    },
    {
      "midi": 62,
      "hit": false,
      "t": 50185,
      "d": 85,
      "v": 54
    },
    {
      "midi": 70,
      "hit": false,
      "t": 50360,
      "d": 170,
      "v": 71
    },
    {
      "midi": 67,
      "hit": false,
      "t": 50365,
      "d": 220,
      "v": 57
    },
    {
      "midi": 61,
      "hit": false,
      "t": 50545,
      "d": 140,
      "v": 56
    },
    {
      "midi": 66,
      "hit": false,
      "t": 50745,
      "d": 210,
      "v": 79
    },
    {
      "midi": 69,
      "hit": false,
      "t": 50745,
      "d": 325,
      "v": 77
    },
    {
      "midi": 60,
      "hit": false,
      "t": 50940,
      "d": 55,
      "v": 78
    },
    {
      "midi": 71,
      "hit": false,
      "t": 51145,
      "d": 330,
      "v": 89
    },
    {
      "midi": 62,
      "hit": false,
      "t": 51150,
      "d": 220,
      "v": 78
    },
    {
      "midi": 65,
      "hit": false,
      "t": 51150,
      "d": 275,
      "v": 79
    },
    {
      "midi": 44,
      "hit": false,
      "t": 51330,
      "d": 65,
      "v": 86
    },
    {
      "midi": 56,
      "hit": false,
      "t": 51330,
      "d": 80,
      "v": 89
    },
    {
      "midi": 57,
      "hit": false,
      "t": 51765,
      "d": 80,
      "v": 102
    },
    {
      "midi": 45,
      "hit": false,
      "t": 51770,
      "d": 75,
      "v": 92
    },
    {
      "midi": 81,
      "hit": false,
      "t": 51985,
      "d": 80,
      "v": 57
    },
    {
      "midi": 78,
      "hit": false,
      "t": 52140,
      "d": 65,
      "v": 67
    },
    {
      "midi": 83,
      "hit": false,
      "t": 52140,
      "d": 85,
      "v": 74
    },
    {
      "midi": 72,
      "hit": false,
      "t": 52145,
      "d": 60,
      "v": 67
    },
    {
      "midi": 60,
      "hit": false,
      "t": 52150,
      "d": 50,
      "v": 74
    },
    {
      "midi": 54,
      "hit": false,
      "t": 52150,
      "d": 60,
      "v": 71
    },
    {
      "midi": 50,
      "hit": false,
      "t": 52160,
      "d": 40,
      "v": 60
    },
    {
      "midi": 81,
      "hit": false,
      "t": 52400,
      "d": 55,
      "v": 49
    },
    {
      "midi": 38,
      "hit": false,
      "t": 52565,
      "d": 40,
      "v": 63
    },
    {
      "midi": 83,
      "hit": false,
      "t": 52575,
      "d": 85,
      "v": 57
    },
    {
      "midi": 86,
      "hit": false,
      "t": 52785,
      "d": 155,
      "v": 78
    },
    {
      "midi": 78,
      "hit": false,
      "t": 52790,
      "d": 185,
      "v": 70
    },
    {
      "midi": 74,
      "hit": false,
      "t": 52800,
      "d": 180,
      "v": 55
    },
    {
      "midi": 60,
      "hit": false,
      "t": 52965,
      "d": 50,
      "v": 67
    },
    {
      "midi": 54,
      "hit": false,
      "t": 52970,
      "d": 55,
      "v": 63
    },
    {
      "midi": 50,
      "hit": false,
      "t": 52975,
      "d": 45,
      "v": 57
    },
    {
      "midi": 81,
      "hit": false,
      "t": 53195,
      "d": 75,
      "v": 57
    },
    {
      "midi": 45,
      "hit": false,
      "t": 53355,
      "d": 50,
      "v": 70
    },
    {
      "midi": 83,
      "hit": false,
      "t": 53355,
      "d": 95,
      "v": 71
    },
    {
      "midi": 57,
      "hit": false,
      "t": 53360,
      "d": 45,
      "v": 62
    },
    {
      "midi": 78,
      "hit": false,
      "t": 53360,
      "d": 60,
      "v": 63
    },
    {
      "midi": 72,
      "hit": false,
      "t": 53370,
      "d": 55,
      "v": 54
    },
    {
      "midi": 81,
      "hit": false,
      "t": 53565,
      "d": 50,
      "v": 56
    },
    {
      "midi": 60,
      "hit": false,
      "t": 53715,
      "d": 40,
      "v": 62
    },
    {
      "midi": 54,
      "hit": false,
      "t": 53715,
      "d": 55,
      "v": 63
    },
    {
      "midi": 50,
      "hit": false,
      "t": 53735,
      "d": 40,
      "v": 49
    },
    {
      "midi": 83,
      "hit": false,
      "t": 53740,
      "d": 80,
      "v": 62
    },
    {
      "midi": 78,
      "hit": false,
      "t": 53930,
      "d": 250,
      "v": 77
    },
    {
      "midi": 86,
      "hit": false,
      "t": 53935,
      "d": 200,
      "v": 79
    },
    {
      "midi": 74,
      "hit": false,
      "t": 53935,
      "d": 275,
      "v": 65
    },
    {
      "midi": 38,
      "hit": false,
      "t": 54120,
      "d": 40,
      "v": 66
    },
    {
      "midi": 50,
      "hit": false,
      "t": 54515,
      "d": 100,
      "v": 63
    },
    {
      "midi": 74,
      "hit": false,
      "t": 54525,
      "d": 75,
      "v": 83
    },
    {
      "midi": 51,
      "hit": false,
      "t": 54610,
      "d": 120,
      "v": 63
    },
    {
      "midi": 75,
      "hit": false,
      "t": 54615,
      "d": 185,
      "v": 45
    },
    {
      "midi": 76,
      "hit": false,
      "t": 54735,
      "d": 125,
      "v": 61
    },
    {
      "midi": 52,
      "hit": false,
      "t": 54745,
      "d": 70,
      "v": 69
    },
    {
      "midi": 71,
      "hit": false,
      "t": 54885,
      "d": 60,
      "v": 77
    },
    {
      "midi": 43,
      "hit": false,
      "t": 54890,
      "d": 35,
      "v": 74
    },
    {
      "midi": 79,
      "hit": false,
      "t": 54890,
      "d": 70,
      "v": 89
    },
    {
      "midi": 67,
      "hit": false,
      "t": 54895,
      "d": 50,
      "v": 75
    },
    {
      "midi": 55,
      "hit": false,
      "t": 54895,
      "d": 55,
      "v": 70
    },
    {
      "midi": 55,
      "hit": false,
      "t": 55280,
      "d": 35,
      "v": 59
    },
    {
      "midi": 71,
      "hit": false,
      "t": 55280,
      "d": 65,
      "v": 75
    },
    {
      "midi": 59,
      "hit": false,
      "t": 55285,
      "d": 30,
      "v": 60
    },
    {
      "midi": 76,
      "hit": false,
      "t": 55285,
      "d": 75,
      "v": 71
    },
    {
      "midi": 50,
      "hit": false,
      "t": 55290,
      "d": 40,
      "v": 61
    },
    {
      "midi": 67,
      "hit": false,
      "t": 55290,
      "d": 50,
      "v": 69
    },
    {
      "midi": 74,
      "hit": false,
      "t": 55490,
      "d": 70,
      "v": 45
    },
    {
      "midi": 38,
      "hit": false,
      "t": 55675,
      "d": 45,
      "v": 70
    },
    {
      "midi": 76,
      "hit": false,
      "t": 55680,
      "d": 90,
      "v": 57
    },
    {
      "midi": 71,
      "hit": false,
      "t": 55885,
      "d": 185,
      "v": 75
    },
    {
      "midi": 79,
      "hit": false,
      "t": 55885,
      "d": 220,
      "v": 83
    },
    {
      "midi": 67,
      "hit": false,
      "t": 55890,
      "d": 185,
      "v": 75
    },
    {
      "midi": 50,
      "hit": false,
      "t": 56050,
      "d": 70,
      "v": 65
    },
    {
      "midi": 55,
      "hit": false,
      "t": 56060,
      "d": 40,
      "v": 60
    },
    {
      "midi": 59,
      "hit": false,
      "t": 56060,
      "d": 40,
      "v": 66
    },
    {
      "midi": 74,
      "hit": false,
      "t": 56260,
      "d": 95,
      "v": 54
    },
    {
      "midi": 43,
      "hit": false,
      "t": 56430,
      "d": 35,
      "v": 65
    },
    {
      "midi": 55,
      "hit": false,
      "t": 56430,
      "d": 70,
      "v": 70
    },
    {
      "midi": 79,
      "hit": false,
      "t": 56435,
      "d": 135,
      "v": 92
    },
    {
      "midi": 71,
      "hit": false,
      "t": 56440,
      "d": 175,
      "v": 78
    },
    {
      "midi": 67,
      "hit": false,
      "t": 56445,
      "d": 90,
      "v": 73
    },
    {
      "midi": 78,
      "hit": false,
      "t": 56645,
      "d": 110,
      "v": 66
    },
    {
      "midi": 59,
      "hit": false,
      "t": 56795,
      "d": 60,
      "v": 78
    },
    {
      "midi": 50,
      "hit": false,
      "t": 56795,
      "d": 65,
      "v": 66
    },
    {
      "midi": 55,
      "hit": false,
      "t": 56800,
      "d": 50,
      "v": 69
    },
    {
      "midi": 79,
      "hit": false,
      "t": 56820,
      "d": 65,
      "v": 75
    },
    {
      "midi": 76,
      "hit": false,
      "t": 56995,
      "d": 285,
      "v": 75
    },
    {
      "midi": 71,
      "hit": false,
      "t": 57000,
      "d": 215,
      "v": 67
    },
    {
      "midi": 67,
      "hit": false,
      "t": 57005,
      "d": 180,
      "v": 67
    },
    {
      "midi": 55,
      "hit": false,
      "t": 57170,
      "d": 40,
      "v": 71
    },
    {
      "midi": 43,
      "hit": false,
      "t": 57170,
      "d": 45,
      "v": 75
    },
    {
      "midi": 74,
      "hit": false,
      "t": 57535,
      "d": 90,
      "v": 78
    },
    {
      "midi": 54,
      "hit": false,
      "t": 57565,
      "d": 50,
      "v": 77
    },
    {
      "midi": 42,
      "hit": false,
      "t": 57570,
      "d": 25,
      "v": 71
    },
    {
      "midi": 73,
      "hit": false,
      "t": 57650,
      "d": 85,
      "v": 56
    },
    {
      "midi": 74,
      "hit": false,
      "t": 57765,
      "d": 95,
      "v": 70
    },
    {
      "midi": 76,
      "hit": false,
      "t": 57905,
      "d": 95,
      "v": 74
    },
    {
      "midi": 40,
      "hit": false,
      "t": 57915,
      "d": 55,
      "v": 77
    },
    {
      "midi": 52,
      "hit": false,
      "t": 57925,
      "d": 50,
      "v": 65
    },
    {
      "midi": 76,
      "hit": false,
      "t": 58295,
      "d": 45,
      "v": 74
    },
    {
      "midi": 62,
      "hit": false,
      "t": 58300,
      "d": 45,
      "v": 62
    },
    {
      "midi": 83,
      "hit": false,
      "t": 58300,
      "d": 80,
      "v": 83
    },
    {
      "midi": 80,
      "hit": false,
      "t": 58305,
      "d": 70,
      "v": 77
    },
    {
      "midi": 56,
      "hit": false,
      "t": 58310,
      "d": 50,
      "v": 67
    },
    {
      "midi": 52,
      "hit": false,
      "t": 58315,
      "d": 40,
      "v": 62
    },
    {
      "midi": 73,
      "hit": false,
      "t": 58665,
      "d": 30,
      "v": 55
    },
    {
      "midi": 45,
      "hit": false,
      "t": 58680,
      "d": 40,
      "v": 67
    },
    {
      "midi": 79,
      "hit": false,
      "t": 58680,
      "d": 75,
      "v": 66
    },
    {
      "midi": 81,
      "hit": false,
      "t": 58680,
      "d": 75,
      "v": 62
    },
    {
      "midi": 57,
      "hit": false,
      "t": 58685,
      "d": 55,
      "v": 62
    },
    {
      "midi": 79,
      "hit": false,
      "t": 58870,
      "d": 45,
      "v": 61
    },
    {
      "midi": 88,
      "hit": false,
      "t": 58870,
      "d": 45,
      "v": 66
    },
    {
      "midi": 81,
      "hit": false,
      "t": 58885,
      "d": 40,
      "v": 35
    },
    {
      "midi": 61,
      "hit": false,
      "t": 59045,
      "d": 65,
      "v": 62
    },
    {
      "midi": 64,
      "hit": false,
      "t": 59045,
      "d": 65,
      "v": 69
    },
    {
      "midi": 57,
      "hit": false,
      "t": 59055,
      "d": 65,
      "v": 67
    },
    {
      "midi": 74,
      "hit": false,
      "t": 59435,
      "d": 70,
      "v": 69
    },
    {
      "midi": 50,
      "hit": false,
      "t": 59440,
      "d": 45,
      "v": 73
    },
    {
      "midi": 62,
      "hit": false,
      "t": 59440,
      "d": 50,
      "v": 70
    },
    {
      "midi": 72,
      "hit": false,
      "t": 59445,
      "d": 50,
      "v": 73
    },
    {
      "midi": 74,
      "hit": false,
      "t": 59800,
      "d": 45,
      "v": 57
    },
    {
      "midi": 81,
      "hit": false,
      "t": 59805,
      "d": 70,
      "v": 67
    },
    {
      "midi": 72,
      "hit": false,
      "t": 59810,
      "d": 45,
      "v": 59
    },
    {
      "midi": 78,
      "hit": false,
      "t": 59815,
      "d": 55,
      "v": 59
    },
    {
      "midi": 60,
      "hit": false,
      "t": 59815,
      "d": 60,
      "v": 70
    },
    {
      "midi": 48,
      "hit": false,
      "t": 59825,
      "d": 45,
      "v": 70
    },
    {
      "midi": 47,
      "hit": false,
      "t": 60190,
      "d": 35,
      "v": 65
    },
    {
      "midi": 79,
      "hit": false,
      "t": 60190,
      "d": 90,
      "v": 65
    },
    {
      "midi": 59,
      "hit": false,
      "t": 60200,
      "d": 60,
      "v": 60
    },
    {
      "midi": 74,
      "hit": false,
      "t": 60200,
      "d": 70,
      "v": 52
    },
    {
      "midi": 79,
      "hit": false,
      "t": 60390,
      "d": 75,
      "v": 77
    },
    {
      "midi": 86,
      "hit": false,
      "t": 60390,
      "d": 80,
      "v": 77
    },
    {
      "midi": 74,
      "hit": false,
      "t": 60395,
      "d": 60,
      "v": 56
    },
    {
      "midi": 59,
      "hit": false,
      "t": 60555,
      "d": 55,
      "v": 67
    },
    {
      "midi": 55,
      "hit": false,
      "t": 60560,
      "d": 40,
      "v": 71
    },
    {
      "midi": 73,
      "hit": false,
      "t": 60800,
      "d": 90,
      "v": 77
    },
    {
      "midi": 81,
      "hit": false,
      "t": 60800,
      "d": 180,
      "v": 75
    },
    {
      "midi": 79,
      "hit": false,
      "t": 60805,
      "d": 180,
      "v": 74
    },
    {
      "midi": 45,
      "hit": false,
      "t": 60940,
      "d": 45,
      "v": 71
    },
    {
      "midi": 57,
      "hit": false,
      "t": 60950,
      "d": 75,
      "v": 63
    },
    {
      "midi": 88,
      "hit": false,
      "t": 61155,
      "d": 85,
      "v": 79
    },
    {
      "midi": 81,
      "hit": false,
      "t": 61160,
      "d": 105,
      "v": 73
    },
    {
      "midi": 79,
      "hit": false,
      "t": 61165,
      "d": 90,
      "v": 74
    },
    {
      "midi": 64,
      "hit": false,
      "t": 61300,
      "d": 40,
      "v": 70
    },
    {
      "midi": 57,
      "hit": false,
      "t": 61305,
      "d": 65,
      "v": 67
    },
    {
      "midi": 61,
      "hit": false,
      "t": 61310,
      "d": 45,
      "v": 66
    },
    {
      "midi": 55,
      "hit": false,
      "t": 61325,
      "d": 40,
      "v": 61
    },
    {
      "midi": 78,
      "hit": false,
      "t": 61505,
      "d": 245,
      "v": 71
    },
    {
      "midi": 81,
      "hit": false,
      "t": 61510,
      "d": 245,
      "v": 74
    },
    {
      "midi": 72,
      "hit": false,
      "t": 61520,
      "d": 195,
      "v": 70
    },
    {
      "midi": 38,
      "hit": false,
      "t": 61680,
      "d": 50,
      "v": 63
    },
    {
      "midi": 86,
      "hit": false,
      "t": 61885,
      "d": 65,
      "v": 79
    },
    {
      "midi": 81,
      "hit": false,
      "t": 61885,
      "d": 70,
      "v": 77
    },
    {
      "midi": 78,
      "hit": false,
      "t": 61890,
      "d": 70,
      "v": 86
    },
    {
      "midi": 60,
      "hit": false,
      "t": 62050,
      "d": 65,
      "v": 74
    },
    {
      "midi": 54,
      "hit": false,
      "t": 62055,
      "d": 60,
      "v": 75
    },
    {
      "midi": 50,
      "hit": false,
      "t": 62060,
      "d": 65,
      "v": 63
    },
    {
      "midi": 71,
      "hit": false,
      "t": 62280,
      "d": 110,
      "v": 63
    },
    {
      "midi": 79,
      "hit": false,
      "t": 62430,
      "d": 480,
      "v": 92
    },
    {
      "midi": 71,
      "hit": false,
      "t": 62435,
      "d": 435,
      "v": 86
    },
    {
      "midi": 74,
      "hit": false,
      "t": 62440,
      "d": 450,
      "v": 83
    },
    {
      "midi": 55,
      "hit": false,
      "t": 62445,
      "d": 470,
      "v": 78
    },
    {
      "midi": 43,
      "hit": false,
      "t": 62895,
      "d": 175,
      "v": 92
    },
    {
      "midi": 83,
      "hit": false,
      "t": 63365,
      "d": 435,
      "v": 102
    },
    {
      "midi": 74,
      "hit": false,
      "t": 63365,
      "d": 470,
      "v": 89
    },
    {
      "midi": 77,
      "hit": false,
      "t": 63370,
      "d": 415,
      "v": 95
    },
    {
      "midi": 56,
      "hit": false,
      "t": 63385,
      "d": 650,
      "v": 105
    },
    {
      "midi": 44,
      "hit": false,
      "t": 63840,
      "d": 85,
      "v": 99
    },
    {
      "midi": 83,
      "hit": false,
      "t": 64095,
      "d": 410,
      "v": 105
    },
    {
      "midi": 72,
      "hit": false,
      "t": 64100,
      "d": 430,
      "v": 105
    },
    {
      "midi": 78,
      "hit": false,
      "t": 64100,
      "d": 430,
      "v": 111
    },
    {
      "midi": 57,
      "hit": false,
      "t": 64310,
      "d": 100,
      "v": 92
    },
    {
      "midi": 45,
      "hit": false,
      "t": 64310,
      "d": 110,
      "v": 89
    },
    {
      "midi": 60,
      "hit": false,
      "t": 64785,
      "d": 70,
      "v": 79
    },
    {
      "midi": 54,
      "hit": false,
      "t": 64790,
      "d": 60,
      "v": 77
    },
    {
      "midi": 50,
      "hit": false,
      "t": 64790,
      "d": 65,
      "v": 71
    },
    {
      "midi": 72,
      "hit": false,
      "t": 64795,
      "d": 65,
      "v": 102
    },
    {
      "midi": 83,
      "hit": false,
      "t": 64795,
      "d": 95,
      "v": 102
    },
    {
      "midi": 78,
      "hit": false,
      "t": 64800,
      "d": 65,
      "v": 111
    },
    {
      "midi": 81,
      "hit": false,
      "t": 65040,
      "d": 65,
      "v": 57
    },
    {
      "midi": 38,
      "hit": false,
      "t": 65230,
      "d": 65,
      "v": 78
    },
    {
      "midi": 83,
      "hit": false,
      "t": 65250,
      "d": 90,
      "v": 83
    },
    {
      "midi": 86,
      "hit": false,
      "t": 65490,
      "d": 180,
      "v": 92
    },
    {
      "midi": 78,
      "hit": false,
      "t": 65495,
      "d": 160,
      "v": 79
    },
    {
      "midi": 74,
      "hit": false,
      "t": 65495,
      "d": 175,
      "v": 74
    },
    {
      "midi": 60,
      "hit": false,
      "t": 65675,
      "d": 65,
      "v": 78
    },
    {
      "midi": 54,
      "hit": false,
      "t": 65675,
      "d": 70,
      "v": 78
    },
    {
      "midi": 50,
      "hit": false,
      "t": 65680,
      "d": 60,
      "v": 70
    },
    {
      "midi": 81,
      "hit": false,
      "t": 65900,
      "d": 80,
      "v": 61
    },
    {
      "midi": 83,
      "hit": false,
      "t": 66085,
      "d": 115,
      "v": 86
    },
    {
      "midi": 78,
      "hit": false,
      "t": 66090,
      "d": 80,
      "v": 79
    },
    {
      "midi": 72,
      "hit": false,
      "t": 66090,
      "d": 90,
      "v": 77
    },
    {
      "midi": 57,
      "hit": false,
      "t": 66095,
      "d": 60,
      "v": 77
    },
    {
      "midi": 45,
      "hit": false,
      "t": 66095,
      "d": 65,
      "v": 83
    },
    {
      "midi": 81,
      "hit": false,
      "t": 66305,
      "d": 75,
      "v": 56
    },
    {
      "midi": 60,
      "hit": false,
      "t": 66460,
      "d": 45,
      "v": 67
    },
    {
      "midi": 54,
      "hit": false,
      "t": 66465,
      "d": 55,
      "v": 67
    },
    {
      "midi": 83,
      "hit": false,
      "t": 66475,
      "d": 115,
      "v": 73
    },
    {
      "midi": 50,
      "hit": false,
      "t": 66480,
      "d": 40,
      "v": 57
    },
    {
      "midi": 78,
      "hit": false,
      "t": 66685,
      "d": 250,
      "v": 86
    },
    {
      "midi": 86,
      "hit": false,
      "t": 66690,
      "d": 210,
      "v": 95
    },
    {
      "midi": 74,
      "hit": false,
      "t": 66690,
      "d": 270,
      "v": 74
    },
    {
      "midi": 38,
      "hit": false,
      "t": 66865,
      "d": 80,
      "v": 86
    },
    {
      "midi": 74,
      "hit": false,
      "t": 67260,
      "d": 80,
      "v": 95
    },
    {
      "midi": 50,
      "hit": false,
      "t": 67260,
      "d": 145,
      "v": 73
    },
    {
      "midi": 75,
      "hit": false,
      "t": 67360,
      "d": 185,
      "v": 43
    },
    {
      "midi": 51,
      "hit": false,
      "t": 67375,
      "d": 130,
      "v": 70
    },
    {
      "midi": 76,
      "hit": false,
      "t": 67485,
      "d": 130,
      "v": 63
    },
    {
      "midi": 52,
      "hit": false,
      "t": 67495,
      "d": 80,
      "v": 74
    },
    {
      "midi": 71,
      "hit": false,
      "t": 67645,
      "d": 70,
      "v": 95
    },
    {
      "midi": 79,
      "hit": false,
      "t": 67645,
      "d": 105,
      "v": 99
    },
    {
      "midi": 67,
      "hit": false,
      "t": 67650,
      "d": 70,
      "v": 92
    },
    {
      "midi": 43,
      "hit": false,
      "t": 67655,
      "d": 60,
      "v": 92
    },
    {
      "midi": 55,
      "hit": false,
      "t": 67655,
      "d": 60,
      "v": 86
    },
    {
      "midi": 59,
      "hit": false,
      "t": 68055,
      "d": 35,
      "v": 77
    },
    {
      "midi": 55,
      "hit": false,
      "t": 68055,
      "d": 40,
      "v": 67
    },
    {
      "midi": 50,
      "hit": false,
      "t": 68060,
      "d": 55,
      "v": 70
    },
    {
      "midi": 76,
      "hit": false,
      "t": 68060,
      "d": 85,
      "v": 78
    },
    {
      "midi": 71,
      "hit": false,
      "t": 68065,
      "d": 50,
      "v": 77
    },
    {
      "midi": 67,
      "hit": false,
      "t": 68065,
      "d": 60,
      "v": 75
    },
    {
      "midi": 74,
      "hit": false,
      "t": 68280,
      "d": 55,
      "v": 51
    },
    {
      "midi": 38,
      "hit": false,
      "t": 68435,
      "d": 50,
      "v": 71
    },
    {
      "midi": 76,
      "hit": false,
      "t": 68435,
      "d": 85,
      "v": 65
    },
    {
      "midi": 71,
      "hit": false,
      "t": 68645,
      "d": 215,
      "v": 79
    },
    {
      "midi": 79,
      "hit": false,
      "t": 68645,
      "d": 250,
      "v": 92
    },
    {
      "midi": 67,
      "hit": false,
      "t": 68650,
      "d": 225,
      "v": 77
    },
    {
      "midi": 59,
      "hit": false,
      "t": 68815,
      "d": 45,
      "v": 71
    },
    {
      "midi": 55,
      "hit": false,
      "t": 68820,
      "d": 50,
      "v": 67
    },
    {
      "midi": 50,
      "hit": false,
      "t": 68820,
      "d": 65,
      "v": 65
    },
    {
      "midi": 74,
      "hit": false,
      "t": 69010,
      "d": 120,
      "v": 57
    },
    {
      "midi": 43,
      "hit": false,
      "t": 69190,
      "d": 65,
      "v": 70
    },
    {
      "midi": 55,
      "hit": false,
      "t": 69195,
      "d": 70,
      "v": 75
    },
    {
      "midi": 71,
      "hit": false,
      "t": 69205,
      "d": 95,
      "v": 74
    },
    {
      "midi": 79,
      "hit": false,
      "t": 69210,
      "d": 155,
      "v": 92
    },
    {
      "midi": 67,
      "hit": false,
      "t": 69220,
      "d": 105,
      "v": 71
    },
    {
      "midi": 78,
      "hit": false,
      "t": 69385,
      "d": 135,
      "v": 61
    },
    {
      "midi": 66,
      "hit": false,
      "t": 69390,
      "d": 40,
      "v": 33
    },
    {
      "midi": 50,
      "hit": false,
      "t": 69550,
      "d": 75,
      "v": 59
    },
    {
      "midi": 59,
      "hit": false,
      "t": 69555,
      "d": 45,
      "v": 73
    },
    {
      "midi": 55,
      "hit": false,
      "t": 69565,
      "d": 35,
      "v": 66
    },
    {
      "midi": 79,
      "hit": false,
      "t": 69565,
      "d": 35,
      "v": 67
    },
    {
      "midi": 67,
      "hit": false,
      "t": 69565,
      "d": 40,
      "v": 53
    },
    {
      "midi": 76,
      "hit": false,
      "t": 69770,
      "d": 210,
      "v": 92
    },
    {
      "midi": 64,
      "hit": false,
      "t": 69775,
      "d": 210,
      "v": 86
    },
    {
      "midi": 55,
      "hit": false,
      "t": 69955,
      "d": 75,
      "v": 71
    },
    {
      "midi": 43,
      "hit": false,
      "t": 69960,
      "d": 65,
      "v": 75
    },
    {
      "midi": 74,
      "hit": false,
      "t": 70140,
      "d": 45,
      "v": 77
    },
    {
      "midi": 62,
      "hit": false,
      "t": 70145,
      "d": 40,
      "v": 70
    },
    {
      "midi": 43,
      "hit": false,
      "t": 70295,
      "d": 30,
      "v": 70
    },
    {
      "midi": 55,
      "hit": false,
      "t": 70295,
      "d": 30,
      "v": 71
    },
    {
      "midi": 76,
      "hit": false,
      "t": 70300,
      "d": 65,
      "v": 99
    },
    {
      "midi": 64,
      "hit": false,
      "t": 70305,
      "d": 55,
      "v": 75
    },
    {
      "midi": 56,
      "hit": false,
      "t": 70470,
      "d": 45,
      "v": 92
    },
    {
      "midi": 44,
      "hit": false,
      "t": 70475,
      "d": 40,
      "v": 89
    },
    {
      "midi": 77,
      "hit": false,
      "t": 70485,
      "d": 35,
      "v": 70
    },
    {
      "midi": 65,
      "hit": false,
      "t": 70490,
      "d": 25,
      "v": 69
    },
    {
      "midi": 66,
      "hit": false,
      "t": 70625,
      "d": 65,
      "v": 88
    },
    {
      "midi": 78,
      "hit": false,
      "t": 70630,
      "d": 60,
      "v": 91
    },
    {
      "midi": 57,
      "hit": false,
      "t": 70650,
      "d": 60,
      "v": 89
    },
    {
      "midi": 45,
      "hit": false,
      "t": 70655,
      "d": 45,
      "v": 82
    },
    {
      "midi": 60,
      "hit": false,
      "t": 71020,
      "d": 45,
      "v": 67
    },
    {
      "midi": 78,
      "hit": false,
      "t": 71020,
      "d": 85,
      "v": 74
    },
    {
      "midi": 54,
      "hit": false,
      "t": 71025,
      "d": 50,
      "v": 66
    },
    {
      "midi": 72,
      "hit": false,
      "t": 71025,
      "d": 75,
      "v": 75
    },
    {
      "midi": 50,
      "hit": false,
      "t": 71030,
      "d": 45,
      "v": 59
    },
    {
      "midi": 66,
      "hit": false,
      "t": 71030,
      "d": 50,
      "v": 71
    },
    {
      "midi": 76,
      "hit": false,
      "t": 71215,
      "d": 90,
      "v": 54
    },
    {
      "midi": 78,
      "hit": false,
      "t": 71385,
      "d": 105,
      "v": 62
    },
    {
      "midi": 38,
      "hit": false,
      "t": 71410,
      "d": 50,
      "v": 69
    },
    {
      "midi": 81,
      "hit": false,
      "t": 71580,
      "d": 145,
      "v": 83
    },
    {
      "midi": 72,
      "hit": false,
      "t": 71580,
      "d": 170,
      "v": 83
    },
    {
      "midi": 69,
      "hit": false,
      "t": 71590,
      "d": 130,
      "v": 73
    },
    {
      "midi": 60,
      "hit": false,
      "t": 71765,
      "d": 55,
      "v": 61
    },
    {
      "midi": 54,
      "hit": false,
      "t": 71770,
      "d": 55,
      "v": 59
    },
    {
      "midi": 50,
      "hit": false,
      "t": 71800,
      "d": 35,
      "v": 42
    },
    {
      "midi": 76,
      "hit": false,
      "t": 71960,
      "d": 105,
      "v": 56
    },
    {
      "midi": 78,
      "hit": false,
      "t": 72115,
      "d": 130,
      "v": 78
    },
    {
      "midi": 66,
      "hit": false,
      "t": 72130,
      "d": 70,
      "v": 86
    },
    {
      "midi": 72,
      "hit": false,
      "t": 72130,
      "d": 75,
      "v": 77
    },
    {
      "midi": 57,
      "hit": false,
      "t": 72145,
      "d": 30,
      "v": 75
    },
    {
      "midi": 45,
      "hit": false,
      "t": 72150,
      "d": 30,
      "v": 73
    },
    {
      "midi": 76,
      "hit": false,
      "t": 72325,
      "d": 90,
      "v": 56
    },
    {
      "midi": 78,
      "hit": false,
      "t": 72475,
      "d": 90,
      "v": 74
    },
    {
      "midi": 60,
      "hit": false,
      "t": 72485,
      "d": 40,
      "v": 66
    },
    {
      "midi": 54,
      "hit": false,
      "t": 72490,
      "d": 50,
      "v": 62
    },
    {
      "midi": 50,
      "hit": false,
      "t": 72490,
      "d": 60,
      "v": 59
    },
    {
      "midi": 66,
      "hit": false,
      "t": 72650,
      "d": 160,
      "v": 77
    },
    {
      "midi": 76,
      "hit": false,
      "t": 72650,
      "d": 305,
      "v": 74
    },
    {
      "midi": 72,
      "hit": false,
      "t": 72655,
      "d": 210,
      "v": 73
    },
    {
      "midi": 38,
      "hit": false,
      "t": 72805,
      "d": 40,
      "v": 66
    },
    {
      "midi": 60,
      "hit": false,
      "t": 73200,
      "d": 40,
      "v": 62
    },
    {
      "midi": 74,
      "hit": false,
      "t": 73200,
      "d": 155,
      "v": 69
    },
    {
      "midi": 54,
      "hit": false,
      "t": 73205,
      "d": 45,
      "v": 66
    },
    {
      "midi": 50,
      "hit": false,
      "t": 73205,
      "d": 55,
      "v": 59
    },
    {
      "midi": 76,
      "hit": false,
      "t": 73325,
      "d": 205,
      "v": 60
    },
    {
      "midi": 78,
      "hit": false,
      "t": 73395,
      "d": 185,
      "v": 59
    },
    {
      "midi": 74,
      "hit": false,
      "t": 73545,
      "d": 70,
      "v": 67
    },
    {
      "midi": 79,
      "hit": false,
      "t": 73545,
      "d": 85,
      "v": 89
    },
    {
      "midi": 55,
      "hit": false,
      "t": 73550,
      "d": 65,
      "v": 79
    },
    {
      "midi": 50,
      "hit": false,
      "t": 73560,
      "d": 55,
      "v": 75
    },
    {
      "midi": 43,
      "hit": false,
      "t": 73560,
      "d": 60,
      "v": 77
    },
    {
      "midi": 71,
      "hit": false,
      "t": 73565,
      "d": 50,
      "v": 62
    },
    {
      "midi": 71,
      "hit": false,
      "t": 73935,
      "d": 115,
      "v": 92
    },
    {
      "midi": 65,
      "hit": false,
      "t": 73940,
      "d": 85,
      "v": 89
    },
    {
      "midi": 74,
      "hit": false,
      "t": 74000,
      "d": 165,
      "v": 51
    },
    {
      "midi": 73,
      "hit": false,
      "t": 74305,
      "d": 105,
      "v": 95
    },
    {
      "midi": 70,
      "hit": false,
      "t": 74310,
      "d": 80,
      "v": 79
    },
    {
      "midi": 64,
      "hit": false,
      "t": 74315,
      "d": 70,
      "v": 79
    },
    {
      "midi": 72,
      "hit": false,
      "t": 74710,
      "d": 115,
      "v": 78
    },
    {
      "midi": 69,
      "hit": false,
      "t": 74715,
      "d": 95,
      "v": 71
    },
    {
      "midi": 63,
      "hit": false,
      "t": 74715,
      "d": 100,
      "v": 67
    },
    {
      "midi": 71,
      "hit": false,
      "t": 75100,
      "d": 120,
      "v": 74
    },
    {
      "midi": 67,
      "hit": false,
      "t": 75105,
      "d": 95,
      "v": 67
    },
    {
      "midi": 62,
      "hit": false,
      "t": 75110,
      "d": 95,
      "v": 70
    },
    {
      "midi": 70,
      "hit": false,
      "t": 75515,
      "d": 105,
      "v": 79
    },
    {
      "midi": 61,
      "hit": false,
      "t": 75520,
      "d": 115,
      "v": 74
    },
    {
      "midi": 67,
      "hit": false,
      "t": 75525,
      "d": 75,
      "v": 74
    },
    {
      "midi": 66,
      "hit": false,
      "t": 75760,
      "d": 190,
      "v": 78
    },
    {
      "midi": 69,
      "hit": false,
      "t": 75760,
      "d": 310,
      "v": 77
    },
    {
      "midi": 60,
      "hit": false,
      "t": 75950,
      "d": 60,
      "v": 89
    },
    {
      "midi": 71,
      "hit": false,
      "t": 76175,
      "d": 305,
      "v": 89
    },
    {
      "midi": 65,
      "hit": false,
      "t": 76180,
      "d": 255,
      "v": 92
    },
    {
      "midi": 62,
      "hit": false,
      "t": 76185,
      "d": 215,
      "v": 79
    },
    {
      "midi": 56,
      "hit": false,
      "t": 76375,
      "d": 60,
      "v": 99
    },
    {
      "midi": 44,
      "hit": false,
      "t": 76385,
      "d": 45,
      "v": 99
    },
    {
      "midi": 57,
      "hit": false,
      "t": 76840,
      "d": 85,
      "v": 108
    },
    {
      "midi": 45,
      "hit": false,
      "t": 76840,
      "d": 95,
      "v": 102
    },
    {
      "midi": 81,
      "hit": false,
      "t": 77080,
      "d": 75,
      "v": 67
    },
    {
      "midi": 78,
      "hit": false,
      "t": 77245,
      "d": 70,
      "v": 95
    },
    {
      "midi": 83,
      "hit": false,
      "t": 77245,
      "d": 105,
      "v": 95
    },
    {
      "midi": 54,
      "hit": false,
      "t": 77250,
      "d": 60,
      "v": 74
    },
    {
      "midi": 72,
      "hit": false,
      "t": 77250,
      "d": 65,
      "v": 92
    },
    {
      "midi": 60,
      "hit": false,
      "t": 77255,
      "d": 40,
      "v": 73
    },
    {
      "midi": 50,
      "hit": false,
      "t": 77255,
      "d": 70,
      "v": 66
    },
    {
      "midi": 81,
      "hit": false,
      "t": 77505,
      "d": 60,
      "v": 46
    },
    {
      "midi": 83,
      "hit": false,
      "t": 77675,
      "d": 95,
      "v": 62
    },
    {
      "midi": 38,
      "hit": false,
      "t": 77680,
      "d": 65,
      "v": 74
    },
    {
      "midi": 86,
      "hit": false,
      "t": 77895,
      "d": 140,
      "v": 89
    },
    {
      "midi": 78,
      "hit": false,
      "t": 77900,
      "d": 110,
      "v": 86
    },
    {
      "midi": 74,
      "hit": false,
      "t": 77905,
      "d": 115,
      "v": 74
    },
    {
      "midi": 60,
      "hit": false,
      "t": 78075,
      "d": 40,
      "v": 74
    },
    {
      "midi": 54,
      "hit": false,
      "t": 78075,
      "d": 55,
      "v": 75
    },
    {
      "midi": 50,
      "hit": false,
      "t": 78085,
      "d": 40,
      "v": 65
    },
    {
      "midi": 81,
      "hit": false,
      "t": 78300,
      "d": 75,
      "v": 60
    },
    {
      "midi": 83,
      "hit": false,
      "t": 78465,
      "d": 100,
      "v": 83
    },
    {
      "midi": 57,
      "hit": false,
      "t": 78470,
      "d": 65,
      "v": 74
    },
    {
      "midi": 72,
      "hit": false,
      "t": 78470,
      "d": 70,
      "v": 83
    },
    {
      "midi": 45,
      "hit": false,
      "t": 78475,
      "d": 60,
      "v": 77
    },
    {
      "midi": 78,
      "hit": false,
      "t": 78490,
      "d": 35,
      "v": 56
    },
    {
      "midi": 81,
      "hit": false,
      "t": 78685,
      "d": 60,
      "v": 54
    },
    {
      "midi": 54,
      "hit": false,
      "t": 78820,
      "d": 60,
      "v": 69
    },
    {
      "midi": 60,
      "hit": false,
      "t": 78825,
      "d": 45,
      "v": 66
    },
    {
      "midi": 50,
      "hit": false,
      "t": 78835,
      "d": 40,
      "v": 56
    },
    {
      "midi": 83,
      "hit": false,
      "t": 78850,
      "d": 115,
      "v": 74
    },
    {
      "midi": 86,
      "hit": false,
      "t": 79055,
      "d": 210,
      "v": 89
    },
    {
      "midi": 74,
      "hit": false,
      "t": 79055,
      "d": 265,
      "v": 78
    },
    {
      "midi": 78,
      "hit": false,
      "t": 79060,
      "d": 235,
      "v": 86
    },
    {
      "midi": 38,
      "hit": false,
      "t": 79230,
      "d": 65,
      "v": 83
    },
    {
      "midi": 50,
      "hit": false,
      "t": 79630,
      "d": 130,
      "v": 63
    },
    {
      "midi": 74,
      "hit": false,
      "t": 79640,
      "d": 75,
      "v": 99
    },
    {
      "midi": 75,
      "hit": false,
      "t": 79740,
      "d": 175,
      "v": 60
    },
    {
      "midi": 51,
      "hit": false,
      "t": 79745,
      "d": 120,
      "v": 67
    },
    {
      "midi": 76,
      "hit": false,
      "t": 79850,
      "d": 170,
      "v": 63
    },
    {
      "midi": 52,
      "hit": false,
      "t": 79865,
      "d": 70,
      "v": 61
    },
    {
      "midi": 71,
      "hit": false,
      "t": 80005,
      "d": 60,
      "v": 86
    },
    {
      "midi": 67,
      "hit": false,
      "t": 80010,
      "d": 70,
      "v": 86
    },
    {
      "midi": 79,
      "hit": false,
      "t": 80010,
      "d": 80,
      "v": 95
    },
    {
      "midi": 43,
      "hit": false,
      "t": 80020,
      "d": 40,
      "v": 77
    },
    {
      "midi": 55,
      "hit": false,
      "t": 80025,
      "d": 60,
      "v": 75
    },
    {
      "midi": 59,
      "hit": false,
      "t": 80400,
      "d": 30,
      "v": 67
    },
    {
      "midi": 55,
      "hit": false,
      "t": 80400,
      "d": 40,
      "v": 57
    },
    {
      "midi": 50,
      "hit": false,
      "t": 80405,
      "d": 45,
      "v": 63
    },
    {
      "midi": 71,
      "hit": false,
      "t": 80410,
      "d": 60,
      "v": 67
    },
    {
      "midi": 76,
      "hit": false,
      "t": 80410,
      "d": 80,
      "v": 67
    },
    {
      "midi": 67,
      "hit": false,
      "t": 80420,
      "d": 50,
      "v": 57
    },
    {
      "midi": 74,
      "hit": false,
      "t": 80625,
      "d": 65,
      "v": 42
    },
    {
      "midi": 38,
      "hit": false,
      "t": 80805,
      "d": 45,
      "v": 73
    },
    {
      "midi": 76,
      "hit": false,
      "t": 80815,
      "d": 85,
      "v": 61
    },
    {
      "midi": 71,
      "hit": false,
      "t": 81015,
      "d": 200,
      "v": 74
    },
    {
      "midi": 67,
      "hit": false,
      "t": 81020,
      "d": 185,
      "v": 73
    },
    {
      "midi": 79,
      "hit": false,
      "t": 81020,
      "d": 230,
      "v": 92
    },
    {
      "midi": 55,
      "hit": false,
      "t": 81175,
      "d": 45,
      "v": 66
    },
    {
      "midi": 50,
      "hit": false,
      "t": 81175,
      "d": 70,
      "v": 67
    },
    {
      "midi": 59,
      "hit": false,
      "t": 81180,
      "d": 35,
      "v": 66
    },
    {
      "midi": 74,
      "hit": false,
      "t": 81375,
      "d": 90,
      "v": 55
    },
    {
      "midi": 43,
      "hit": false,
      "t": 81545,
      "d": 55,
      "v": 74
    },
    {
      "midi": 55,
      "hit": false,
      "t": 81550,
      "d": 65,
      "v": 73
    },
    {
      "midi": 79,
      "hit": false,
      "t": 81550,
      "d": 140,
      "v": 99
    },
    {
      "midi": 67,
      "hit": false,
      "t": 81555,
      "d": 95,
      "v": 89
    },
    {
      "midi": 78,
      "hit": false,
      "t": 81725,
      "d": 130,
      "v": 59
    },
    {
      "midi": 59,
      "hit": false,
      "t": 81920,
      "d": 60,
      "v": 77
    },
    {
      "midi": 50,
      "hit": false,
      "t": 81920,
      "d": 70,
      "v": 66
    },
    {
      "midi": 55,
      "hit": false,
      "t": 81925,
      "d": 60,
      "v": 67
    },
    {
      "midi": 79,
      "hit": false,
      "t": 81935,
      "d": 80,
      "v": 78
    },
    {
      "midi": 76,
      "hit": false,
      "t": 82090,
      "d": 270,
      "v": 79
    },
    {
      "midi": 67,
      "hit": false,
      "t": 82100,
      "d": 160,
      "v": 79
    },
    {
      "midi": 55,
      "hit": false,
      "t": 82275,
      "d": 35,
      "v": 74
    },
    {
      "midi": 43,
      "hit": false,
      "t": 82275,
      "d": 40,
      "v": 79
    },
    {
      "midi": 74,
      "hit": false,
      "t": 82640,
      "d": 75,
      "v": 69
    },
    {
      "midi": 54,
      "hit": false,
      "t": 82655,
      "d": 55,
      "v": 92
    },
    {
      "midi": 42,
      "hit": false,
      "t": 82660,
      "d": 50,
      "v": 86
    },
    {
      "midi": 73,
      "hit": false,
      "t": 82715,
      "d": 100,
      "v": 64
    },
    {
      "midi": 74,
      "hit": false,
      "t": 82820,
      "d": 75,
      "v": 69
    },
    {
      "midi": 76,
      "hit": false,
      "t": 83000,
      "d": 175,
      "v": 78
    },
    {
      "midi": 40,
      "hit": false,
      "t": 83010,
      "d": 35,
      "v": 73
    },
    {
      "midi": 52,
      "hit": false,
      "t": 83010,
      "d": 55,
      "v": 77
    },
    {
      "midi": 76,
      "hit": false,
      "t": 83395,
      "d": 50,
      "v": 60
    },
    {
      "midi": 83,
      "hit": false,
      "t": 83395,
      "d": 90,
      "v": 99
    },
    {
      "midi": 80,
      "hit": false,
      "t": 83400,
      "d": 75,
      "v": 92
    },
    {
      "midi": 62,
      "hit": false,
      "t": 83405,
      "d": 65,
      "v": 71
    },
    {
      "midi": 56,
      "hit": false,
      "t": 83410,
      "d": 60,
      "v": 75
    },
    {
      "midi": 52,
      "hit": false,
      "t": 83415,
      "d": 50,
      "v": 71
    },
    {
      "midi": 73,
      "hit": false,
      "t": 83750,
      "d": 30,
      "v": 55
    },
    {
      "midi": 79,
      "hit": false,
      "t": 83765,
      "d": 80,
      "v": 67
    },
    {
      "midi": 45,
      "hit": false,
      "t": 83770,
      "d": 40,
      "v": 73
    },
    {
      "midi": 81,
      "hit": false,
      "t": 83770,
      "d": 55,
      "v": 62
    },
    {
      "midi": 57,
      "hit": false,
      "t": 83775,
      "d": 50,
      "v": 62
    },
    {
      "midi": 79,
      "hit": false,
      "t": 83940,
      "d": 55,
      "v": 49
    },
    {
      "midi": 81,
      "hit": false,
      "t": 83945,
      "d": 55,
      "v": 61
    },
    {
      "midi": 88,
      "hit": false,
      "t": 83945,
      "d": 60,
      "v": 55
    },
    {
      "midi": 64,
      "hit": false,
      "t": 84115,
      "d": 65,
      "v": 73
    },
    {
      "midi": 61,
      "hit": false,
      "t": 84120,
      "d": 60,
      "v": 71
    },
    {
      "midi": 55,
      "hit": false,
      "t": 84125,
      "d": 50,
      "v": 62
    },
    {
      "midi": 57,
      "hit": false,
      "t": 84130,
      "d": 40,
      "v": 67
    },
    {
      "midi": 50,
      "hit": false,
      "t": 84500,
      "d": 75,
      "v": 71
    },
    {
      "midi": 62,
      "hit": false,
      "t": 84505,
      "d": 75,
      "v": 67
    },
    {
      "midi": 74,
      "hit": false,
      "t": 84505,
      "d": 130,
      "v": 73
    },
    {
      "midi": 72,
      "hit": false,
      "t": 84510,
      "d": 100,
      "v": 83
    },
    {
      "midi": 81,
      "hit": false,
      "t": 84865,
      "d": 85,
      "v": 74
    },
    {
      "midi": 60,
      "hit": false,
      "t": 84875,
      "d": 65,
      "v": 78
    },
    {
      "midi": 74,
      "hit": false,
      "t": 84875,
      "d": 65,
      "v": 73
    },
    {
      "midi": 48,
      "hit": false,
      "t": 84880,
      "d": 60,
      "v": 78
    },
    {
      "midi": 47,
      "hit": false,
      "t": 85265,
      "d": 60,
      "v": 86
    },
    {
      "midi": 59,
      "hit": false,
      "t": 85270,
      "d": 55,
      "v": 79
    },
    {
      "midi": 79,
      "hit": false,
      "t": 85290,
      "d": 70,
      "v": 77
    },
    {
      "midi": 86,
      "hit": false,
      "t": 85485,
      "d": 65,
      "v": 92
    },
    {
      "midi": 74,
      "hit": false,
      "t": 85495,
      "d": 35,
      "v": 78
    },
    {
      "midi": 79,
      "hit": false,
      "t": 85510,
      "d": 35,
      "v": 55
    },
    {
      "midi": 55,
      "hit": false,
      "t": 85650,
      "d": 60,
      "v": 77
    },
    {
      "midi": 59,
      "hit": false,
      "t": 85650,
      "d": 60,
      "v": 75
    },
    {
      "midi": 73,
      "hit": false,
      "t": 86045,
      "d": 40,
      "v": 77
    },
    {
      "midi": 79,
      "hit": false,
      "t": 86050,
      "d": 75,
      "v": 83
    },
    {
      "midi": 81,
      "hit": false,
      "t": 86055,
      "d": 60,
      "v": 77
    },
    {
      "midi": 57,
      "hit": false,
      "t": 86065,
      "d": 40,
      "v": 60
    },
    {
      "midi": 45,
      "hit": false,
      "t": 86080,
      "d": 35,
      "v": 69
    },
    {
      "midi": 88,
      "hit": false,
      "t": 86235,
      "d": 65,
      "v": 71
    },
    {
      "midi": 79,
      "hit": false,
      "t": 86245,
      "d": 40,
      "v": 70
    },
    {
      "midi": 81,
      "hit": false,
      "t": 86250,
      "d": 40,
      "v": 50
    },
    {
      "midi": 64,
      "hit": false,
      "t": 86425,
      "d": 35,
      "v": 71
    },
    {
      "midi": 61,
      "hit": false,
      "t": 86425,
      "d": 45,
      "v": 66
    },
    {
      "midi": 57,
      "hit": false,
      "t": 86435,
      "d": 40,
      "v": 61
    },
    {
      "midi": 55,
      "hit": false,
      "t": 86440,
      "d": 35,
      "v": 56
    },
    {
      "midi": 38,
      "hit": false,
      "t": 86880,
      "d": 45,
      "v": 63
    },
    {
      "midi": 78,
      "hit": false,
      "t": 86880,
      "d": 75,
      "v": 63
    },
    {
      "midi": 72,
      "hit": false,
      "t": 86890,
      "d": 65,
      "v": 66
    },
    {
      "midi": 81,
      "hit": false,
      "t": 86890,
      "d": 75,
      "v": 57
    },
    {
      "midi": 78,
      "hit": false,
      "t": 87070,
      "d": 65,
      "v": 60
    },
    {
      "midi": 86,
      "hit": false,
      "t": 87075,
      "d": 60,
      "v": 63
    },
    {
      "midi": 81,
      "hit": false,
      "t": 87095,
      "d": 45,
      "v": 55
    },
    {
      "midi": 54,
      "hit": false,
      "t": 87285,
      "d": 70,
      "v": 63
    },
    {
      "midi": 60,
      "hit": false,
      "t": 87290,
      "d": 45,
      "v": 61
    },
    {
      "midi": 50,
      "hit": false,
      "t": 87310,
      "d": 40,
      "v": 50
    },
    {
      "midi": 79,
      "hit": false,
      "t": 87775,
      "d": 645,
      "v": 60
    },
    {
      "midi": 74,
      "hit": false,
      "t": 87780,
      "d": 655,
      "v": 50
    },
    {
      "midi": 71,
      "hit": false,
      "t": 87790,
      "d": 675,
      "v": 51
    },
    {
      "midi": 55,
      "hit": false,
      "t": 87795,
      "d": 575,
      "v": 54
    },
    {
      "midi": 43,
      "hit": false,
      "t": 88335,
      "d": 170,
      "v": 47
    },
    {
      "midi": 67,
      "hit": false,
      "t": 89055,
      "d": 1035,
      "v": 54
    },
    {
      "midi": 73,
      "hit": false,
      "t": 89070,
      "d": 980,
      "v": 51
    },
    {
      "midi": 58,
      "hit": false,
      "t": 89080,
      "d": 940,
      "v": 47
    },
    {
      "midi": 78,
      "hit": false,
      "t": 89115,
      "d": 705,
      "v": 56
    },
    {
      "midi": 76,
      "hit": false,
      "t": 89815,
      "d": 235,
      "v": 57
    },
    {
      "midi": 46,
      "hit": false,
      "t": 89835,
      "d": 270,
      "v": 45
    },
    {
      "midi": 60,
      "hit": false,
      "t": 90560,
      "d": 200,
      "v": 42
    },
    {
      "midi": 64,
      "hit": false,
      "t": 90595,
      "d": 155,
      "v": 45
    },
    {
      "midi": 45,
      "hit": false,
      "t": 90600,
      "d": 850,
      "v": 52
    },
    {
      "midi": 67,
      "hit": false,
      "t": 90610,
      "d": 145,
      "v": 54
    },
    {
      "midi": 52,
      "hit": false,
      "t": 90615,
      "d": 380,
      "v": 50
    },
    {
      "midi": 72,
      "hit": false,
      "t": 90675,
      "d": 150,
      "v": 55
    },
    {
      "midi": 62,
      "hit": false,
      "t": 90925,
      "d": 70,
      "v": 63
    },
    {
      "midi": 74,
      "hit": false,
      "t": 90930,
      "d": 75,
      "v": 67
    },
    {
      "midi": 76,
      "hit": false,
      "t": 91125,
      "d": 40,
      "v": 75
    },
    {
      "midi": 64,
      "hit": false,
      "t": 91125,
      "d": 45,
      "v": 70
    },
    {
      "midi": 66,
      "hit": false,
      "t": 91410,
      "d": 335,
      "v": 59
    },
    {
      "midi": 71,
      "hit": false,
      "t": 91410,
      "d": 385,
      "v": 47
    },
    {
      "midi": 60,
      "hit": false,
      "t": 91420,
      "d": 330,
      "v": 47
    },
    {
      "midi": 50,
      "hit": false,
      "t": 91430,
      "d": 1325,
      "v": 51
    },
    {
      "midi": 66,
      "hit": false,
      "t": 91930,
      "d": 80,
      "v": 47
    },
    {
      "midi": 69,
      "hit": false,
      "t": 92180,
      "d": 310,
      "v": 54
    },
    {
      "midi": 66,
      "hit": false,
      "t": 92180,
      "d": 350,
      "v": 47
    },
    {
      "midi": 60,
      "hit": false,
      "t": 92185,
      "d": 305,
      "v": 49
    },
    {
      "midi": 38,
      "hit": false,
      "t": 92210,
      "d": 530,
      "v": 49
    },
    {
      "midi": 59,
      "hit": false,
      "t": 92735,
      "d": 120,
      "v": 73
    },
    {
      "midi": 67,
      "hit": false,
      "t": 92735,
      "d": 215,
      "v": 70
    },
    {
      "midi": 43,
      "hit": false,
      "t": 92755,
      "d": 95,
      "v": 59
    },
    {
      "midi": 71,
      "hit": false,
      "t": 92930,
      "d": 200,
      "v": 62
    },
    {
      "midi": 74,
      "hit": false,
      "t": 93130,
      "d": 65,
      "v": 73
    },
    {
      "midi": 59,
      "hit": false,
      "t": 93180,
      "d": 60,
      "v": 60
    },
    {
      "midi": 47,
      "hit": false,
      "t": 93190,
      "d": 55,
      "v": 56
    },
    {
      "midi": 78,
      "hit": false,
      "t": 93515,
      "d": 630,
      "v": 60
    },
    {
      "midi": 73,
      "hit": false,
      "t": 93520,
      "d": 455,
      "v": 60
    },
    {
      "midi": 67,
      "hit": false,
      "t": 93520,
      "d": 725,
      "v": 57
    },
    {
      "midi": 58,
      "hit": false,
      "t": 93530,
      "d": 545,
      "v": 51
    },
    {
      "midi": 46,
      "hit": false,
      "t": 93545,
      "d": 660,
      "v": 47
    },
    {
      "midi": 73,
      "hit": false,
      "t": 94090,
      "d": 290,
      "v": 71
    },
    {
      "midi": 76,
      "hit": false,
      "t": 94355,
      "d": 65,
      "v": 71
    },
    {
      "midi": 60,
      "hit": false,
      "t": 94915,
      "d": 115,
      "v": 52
    },
    {
      "midi": 64,
      "hit": false,
      "t": 94915,
      "d": 125,
      "v": 50
    },
    {
      "midi": 67,
      "hit": false,
      "t": 94920,
      "d": 90,
      "v": 50
    },
    {
      "midi": 72,
      "hit": false,
      "t": 94920,
      "d": 130,
      "v": 60
    },
    {
      "midi": 52,
      "hit": false,
      "t": 94935,
      "d": 245,
      "v": 50
    },
    {
      "midi": 45,
      "hit": false,
      "t": 94945,
      "d": 675,
      "v": 47
    },
    {
      "midi": 74,
      "hit": false,
      "t": 95155,
      "d": 75,
      "v": 57
    },
    {
      "midi": 62,
      "hit": false,
      "t": 95160,
      "d": 55,
      "v": 57
    },
    {
      "midi": 76,
      "hit": false,
      "t": 95340,
      "d": 55,
      "v": 77
    },
    {
      "midi": 64,
      "hit": false,
      "t": 95345,
      "d": 50,
      "v": 69
    },
    {
      "midi": 66,
      "hit": false,
      "t": 95595,
      "d": 315,
      "v": 63
    },
    {
      "midi": 60,
      "hit": false,
      "t": 95605,
      "d": 345,
      "v": 57
    },
    {
      "midi": 71,
      "hit": false,
      "t": 95610,
      "d": 390,
      "v": 57
    },
    {
      "midi": 50,
      "hit": false,
      "t": 95630,
      "d": 1225,
      "v": 49
    },
    {
      "midi": 66,
      "hit": false,
      "t": 96050,
      "d": 75,
      "v": 60
    },
    {
      "midi": 66,
      "hit": false,
      "t": 96305,
      "d": 250,
      "v": 49
    },
    {
      "midi": 69,
      "hit": false,
      "t": 96310,
      "d": 190,
      "v": 52
    },
    {
      "midi": 60,
      "hit": false,
      "t": 96325,
      "d": 180,
      "v": 47
    },
    {
      "midi": 38,
      "hit": false,
      "t": 96345,
      "d": 320,
      "v": 43
    },
    {
      "midi": 67,
      "hit": false,
      "t": 96780,
      "d": 235,
      "v": 66
    },
    {
      "midi": 59,
      "hit": false,
      "t": 96785,
      "d": 115,
      "v": 66
    },
    {
      "midi": 43,
      "hit": false,
      "t": 96805,
      "d": 75,
      "v": 65
    },
    {
      "midi": 71,
      "hit": false,
      "t": 96975,
      "d": 190,
      "v": 63
    },
    {
      "midi": 74,
      "hit": false,
      "t": 97165,
      "d": 75,
      "v": 62
    },
    {
      "midi": 59,
      "hit": false,
      "t": 97210,
      "d": 40,
      "v": 51
    },
    {
      "midi": 47,
      "hit": false,
      "t": 97220,
      "d": 50,
      "v": 43
    },
    {
      "midi": 73,
      "hit": false,
      "t": 97540,
      "d": 400,
      "v": 51
    },
    {
      "midi": 78,
      "hit": false,
      "t": 97545,
      "d": 585,
      "v": 60
    },
    {
      "midi": 67,
      "hit": false,
      "t": 97550,
      "d": 655,
      "v": 56
    },
    {
      "midi": 58,
      "hit": false,
      "t": 97565,
      "d": 540,
      "v": 49
    },
    {
      "midi": 46,
      "hit": false,
      "t": 97570,
      "d": 745,
      "v": 45
    },
    {
      "midi": 73,
      "hit": false,
      "t": 98090,
      "d": 290,
      "v": 67
    },
    {
      "midi": 76,
      "hit": false,
      "t": 98335,
      "d": 65,
      "v": 66
    },
    {
      "midi": 60,
      "hit": false,
      "t": 98880,
      "d": 105,
      "v": 56
    },
    {
      "midi": 72,
      "hit": false,
      "t": 98880,
      "d": 130,
      "v": 61
    },
    {
      "midi": 67,
      "hit": false,
      "t": 98885,
      "d": 100,
      "v": 46
    },
    {
      "midi": 45,
      "hit": false,
      "t": 98885,
      "d": 290,
      "v": 45
    },
    {
      "midi": 52,
      "hit": false,
      "t": 98890,
      "d": 220,
      "v": 47
    },
    {
      "midi": 64,
      "hit": false,
      "t": 98895,
      "d": 100,
      "v": 47
    },
    {
      "midi": 74,
      "hit": false,
      "t": 99130,
      "d": 70,
      "v": 65
    },
    {
      "midi": 62,
      "hit": false,
      "t": 99135,
      "d": 50,
      "v": 54
    },
    {
      "midi": 76,
      "hit": false,
      "t": 99310,
      "d": 40,
      "v": 77
    },
    {
      "midi": 64,
      "hit": false,
      "t": 99310,
      "d": 50,
      "v": 75
    },
    {
      "midi": 71,
      "hit": false,
      "t": 99540,
      "d": 270,
      "v": 89
    },
    {
      "midi": 66,
      "hit": false,
      "t": 99545,
      "d": 185,
      "v": 79
    },
    {
      "midi": 60,
      "hit": false,
      "t": 99545,
      "d": 215,
      "v": 83
    },
    {
      "midi": 38,
      "hit": false,
      "t": 99560,
      "d": 220,
      "v": 67
    },
    {
      "midi": 50,
      "hit": false,
      "t": 99565,
      "d": 150,
      "v": 61
    },
    {
      "midi": 66,
      "hit": false,
      "t": 99915,
      "d": 70,
      "v": 56
    },
    {
      "midi": 69,
      "hit": false,
      "t": 100130,
      "d": 100,
      "v": 79
    },
    {
      "midi": 66,
      "hit": false,
      "t": 100135,
      "d": 80,
      "v": 89
    },
    {
      "midi": 60,
      "hit": false,
      "t": 100140,
      "d": 65,
      "v": 83
    },
    {
      "midi": 51,
      "hit": false,
      "t": 100140,
      "d": 70,
      "v": 79
    },
    {
      "midi": 39,
      "hit": false,
      "t": 100145,
      "d": 55,
      "v": 79
    },
    {
      "midi": 64,
      "hit": false,
      "t": 100555,
      "d": 135,
      "v": 74
    },
    {
      "midi": 67,
      "hit": false,
      "t": 100555,
      "d": 200,
      "v": 73
    },
    {
      "midi": 59,
      "hit": false,
      "t": 100560,
      "d": 115,
      "v": 78
    },
    {
      "midi": 52,
      "hit": false,
      "t": 100570,
      "d": 60,
      "v": 77
    },
    {
      "midi": 40,
      "hit": false,
      "t": 100575,
      "d": 40,
      "v": 75
    },
    {
      "midi": 69,
      "hit": false,
      "t": 100790,
      "d": 110,
      "v": 52
    },
    {
      "midi": 71,
      "hit": false,
      "t": 100950,
      "d": 70,
      "v": 74
    },
    {
      "midi": 71,
      "hit": false,
      "t": 101170,
      "d": 140,
      "v": 69
    },
    {
      "midi": 74,
      "hit": false,
      "t": 101170,
      "d": 145,
      "v": 75
    },
    {
      "midi": 62,
      "hit": false,
      "t": 101175,
      "d": 110,
      "v": 74
    },
    {
      "midi": 66,
      "hit": false,
      "t": 101175,
      "d": 125,
      "v": 74
    },
    {
      "midi": 59,
      "hit": false,
      "t": 101205,
      "d": 70,
      "v": 77
    },
    {
      "midi": 47,
      "hit": false,
      "t": 101210,
      "d": 80,
      "v": 79
    },
    {
      "midi": 74,
      "hit": false,
      "t": 101570,
      "d": 45,
      "v": 66
    },
    {
      "midi": 64,
      "hit": false,
      "t": 101765,
      "d": 45,
      "v": 83
    },
    {
      "midi": 76,
      "hit": false,
      "t": 101765,
      "d": 50,
      "v": 95
    },
    {
      "midi": 58,
      "hit": false,
      "t": 101770,
      "d": 50,
      "v": 79
    },
    {
      "midi": 46,
      "hit": false,
      "t": 101775,
      "d": 55,
      "v": 89
    },
    {
      "midi": 74,
      "hit": false,
      "t": 102160,
      "d": 80,
      "v": 61
    },
    {
      "midi": 78,
      "hit": false,
      "t": 102160,
      "d": 90,
      "v": 78
    },
    {
      "midi": 66,
      "hit": false,
      "t": 102165,
      "d": 70,
      "v": 74
    },
    {
      "midi": 45,
      "hit": false,
      "t": 102175,
      "d": 60,
      "v": 83
    },
    {
      "midi": 57,
      "hit": false,
      "t": 102175,
      "d": 65,
      "v": 79
    },
    {
      "midi": 67,
      "hit": false,
      "t": 102365,
      "d": 35,
      "v": 73
    },
    {
      "midi": 79,
      "hit": false,
      "t": 102365,
      "d": 40,
      "v": 79
    },
    {
      "midi": 69,
      "hit": false,
      "t": 102535,
      "d": 30,
      "v": 79
    },
    {
      "midi": 81,
      "hit": false,
      "t": 102540,
      "d": 30,
      "v": 69
    },
    {
      "midi": 74,
      "hit": false,
      "t": 102720,
      "d": 125,
      "v": 70
    },
    {
      "midi": 68,
      "hit": false,
      "t": 102725,
      "d": 105,
      "v": 82
    },
    {
      "midi": 78,
      "hit": false,
      "t": 102725,
      "d": 150,
      "v": 82
    },
    {
      "midi": 47,
      "hit": false,
      "t": 102760,
      "d": 60,
      "v": 79
    },
    {
      "midi": 59,
      "hit": false,
      "t": 102765,
      "d": 55,
      "v": 79
    },
    {
      "midi": 74,
      "hit": false,
      "t": 103130,
      "d": 70,
      "v": 54
    },
    {
      "midi": 76,
      "hit": false,
      "t": 103290,
      "d": 70,
      "v": 79
    },
    {
      "midi": 67,
      "hit": false,
      "t": 103295,
      "d": 55,
      "v": 78
    },
    {
      "midi": 73,
      "hit": false,
      "t": 103295,
      "d": 55,
      "v": 78
    },
    {
      "midi": 45,
      "hit": false,
      "t": 103300,
      "d": 45,
      "v": 79
    },
    {
      "midi": 57,
      "hit": false,
      "t": 103300,
      "d": 60,
      "v": 83
    },
    {
      "midi": 74,
      "hit": false,
      "t": 103695,
      "d": 520,
      "v": 70
    },
    {
      "midi": 66,
      "hit": false,
      "t": 103700,
      "d": 475,
      "v": 79
    },
    {
      "midi": 69,
      "hit": false,
      "t": 103700,
      "d": 480,
      "v": 74
    },
    {
      "midi": 62,
      "hit": false,
      "t": 103740,
      "d": 40,
      "v": 63
    },
    {
      "midi": 50,
      "hit": false,
      "t": 104155,
      "d": 70,
      "v": 83
    },
    {
      "midi": 78,
      "hit": false,
      "t": 104655,
      "d": 570,
      "v": 78
    },
    {
      "midi": 73,
      "hit": false,
      "t": 104655,
      "d": 600,
      "v": 74
    },
    {
      "midi": 58,
      "hit": false,
      "t": 104660,
      "d": 595,
      "v": 70
    },
    {
      "midi": 67,
      "hit": false,
      "t": 104660,
      "d": 600,
      "v": 71
    },
    {
      "midi": 76,
      "hit": false,
      "t": 105220,
      "d": 55,
      "v": 75
    },
    {
      "midi": 46,
      "hit": false,
      "t": 105245,
      "d": 30,
      "v": 56
    },
    {
      "midi": 60,
      "hit": false,
      "t": 105730,
      "d": 210,
      "v": 28
    },
    {
      "midi": 64,
      "hit": false,
      "t": 105765,
      "d": 190,
      "v": 57
    },
    {
      "midi": 67,
      "hit": false,
      "t": 105800,
      "d": 165,
      "v": 56
    },
    {
      "midi": 45,
      "hit": false,
      "t": 105845,
      "d": 805,
      "v": 51
    },
    {
      "midi": 52,
      "hit": false,
      "t": 105850,
      "d": 315,
      "v": 55
    },
    {
      "midi": 72,
      "hit": false,
      "t": 105880,
      "d": 145,
      "v": 67
    },
    {
      "midi": 62,
      "hit": false,
      "t": 106130,
      "d": 55,
      "v": 55
    },
    {
      "midi": 74,
      "hit": false,
      "t": 106135,
      "d": 70,
      "v": 67
    },
    {
      "midi": 64,
      "hit": false,
      "t": 106335,
      "d": 45,
      "v": 73
    },
    {
      "midi": 76,
      "hit": false,
      "t": 106340,
      "d": 30,
      "v": 77
    },
    {
      "midi": 66,
      "hit": false,
      "t": 106615,
      "d": 290,
      "v": 67
    },
    {
      "midi": 71,
      "hit": false,
      "t": 106615,
      "d": 485,
      "v": 67
    },
    {
      "midi": 60,
      "hit": false,
      "t": 106620,
      "d": 305,
      "v": 57
    },
    {
      "midi": 50,
      "hit": false,
      "t": 106665,
      "d": 700,
      "v": 37
    },
    {
      "midi": 66,
      "hit": false,
      "t": 107080,
      "d": 85,
      "v": 60
    },
    {
      "midi": 38,
      "hit": false,
      "t": 107365,
      "d": 80,
      "v": 49
    },
    {
      "midi": 66,
      "hit": false,
      "t": 107375,
      "d": 105,
      "v": 62
    },
    {
      "midi": 69,
      "hit": false,
      "t": 107375,
      "d": 110,
      "v": 63
    },
    {
      "midi": 60,
      "hit": false,
      "t": 107385,
      "d": 85,
      "v": 62
    },
    {
      "midi": 59,
      "hit": false,
      "t": 107900,
      "d": 65,
      "v": 69
    },
    {
      "midi": 67,
      "hit": false,
      "t": 107900,
      "d": 90,
      "v": 69
    },
    {
      "midi": 31,
      "hit": false,
      "t": 107910,
      "d": 30,
      "v": 63
    },
    {
      "midi": 43,
      "hit": false,
      "t": 107915,
      "d": 35,
      "v": 60
    },
    {
      "midi": 71,
      "hit": false,
      "t": 108035,
      "d": 85,
      "v": 75
    },
    {
      "midi": 74,
      "hit": false,
      "t": 108175,
      "d": 40,
      "v": 74
    },
    {
      "midi": 47,
      "hit": false,
      "t": 108225,
      "d": 30,
      "v": 65
    },
    {
      "midi": 59,
      "hit": false,
      "t": 108225,
      "d": 35,
      "v": 56
    },
    {
      "midi": 73,
      "hit": false,
      "t": 108520,
      "d": 640,
      "v": 61
    },
    {
      "midi": 78,
      "hit": false,
      "t": 108520,
      "d": 830,
      "v": 79
    },
    {
      "midi": 58,
      "hit": false,
      "t": 108535,
      "d": 715,
      "v": 52
    },
    {
      "midi": 67,
      "hit": false,
      "t": 108545,
      "d": 860,
      "v": 55
    },
    {
      "midi": 46,
      "hit": false,
      "t": 108550,
      "d": 870,
      "v": 61
    },
    {
      "midi": 73,
      "hit": false,
      "t": 109320,
      "d": 210,
      "v": 74
    },
    {
      "midi": 76,
      "hit": false,
      "t": 109570,
      "d": 70,
      "v": 83
    },
    {
      "midi": 67,
      "hit": false,
      "t": 110110,
      "d": 105,
      "v": 62
    },
    {
      "midi": 64,
      "hit": false,
      "t": 110110,
      "d": 125,
      "v": 56
    },
    {
      "midi": 60,
      "hit": false,
      "t": 110115,
      "d": 95,
      "v": 66
    },
    {
      "midi": 72,
      "hit": false,
      "t": 110115,
      "d": 120,
      "v": 67
    },
    {
      "midi": 52,
      "hit": false,
      "t": 110120,
      "d": 220,
      "v": 69
    },
    {
      "midi": 45,
      "hit": false,
      "t": 110120,
      "d": 665,
      "v": 63
    },
    {
      "midi": 62,
      "hit": false,
      "t": 110350,
      "d": 55,
      "v": 60
    },
    {
      "midi": 74,
      "hit": false,
      "t": 110350,
      "d": 75,
      "v": 70
    },
    {
      "midi": 76,
      "hit": false,
      "t": 110530,
      "d": 70,
      "v": 78
    },
    {
      "midi": 64,
      "hit": false,
      "t": 110535,
      "d": 60,
      "v": 77
    },
    {
      "midi": 66,
      "hit": false,
      "t": 110775,
      "d": 280,
      "v": 71
    },
    {
      "midi": 60,
      "hit": false,
      "t": 110780,
      "d": 310,
      "v": 70
    },
    {
      "midi": 71,
      "hit": false,
      "t": 110780,
      "d": 425,
      "v": 73
    },
    {
      "midi": 50,
      "hit": false,
      "t": 110795,
      "d": 595,
      "v": 62
    },
    {
      "midi": 66,
      "hit": false,
      "t": 111195,
      "d": 70,
      "v": 66
    },
    {
      "midi": 38,
      "hit": false,
      "t": 111380,
      "d": 45,
      "v": 62
    },
    {
      "midi": 69,
      "hit": false,
      "t": 111380,
      "d": 95,
      "v": 71
    },
    {
      "midi": 60,
      "hit": false,
      "t": 111385,
      "d": 70,
      "v": 73
    },
    {
      "midi": 66,
      "hit": false,
      "t": 111395,
      "d": 50,
      "v": 63
    },
    {
      "midi": 67,
      "hit": false,
      "t": 111575,
      "d": 375,
      "v": 74
    },
    {
      "midi": 59,
      "hit": false,
      "t": 111590,
      "d": 315,
      "v": 71
    },
    {
      "midi": 31,
      "hit": false,
      "t": 111840,
      "d": 125,
      "v": 78
    },
    {
      "midi": 74,
      "hit": false,
      "t": 112285,
      "d": 90,
      "v": 75
    },
    {
      "midi": 71,
      "hit": false,
      "t": 112490,
      "d": 55,
      "v": 70
    },
    {
      "midi": 74,
      "hit": false,
      "t": 112705,
      "d": 195,
      "v": 74
    },
    {
      "midi": 67,
      "hit": false,
      "t": 112710,
      "d": 240,
      "v": 73
    },
    {
      "midi": 55,
      "hit": false,
      "t": 112715,
      "d": 255,
      "v": 60
    },
    {
      "midi": 43,
      "hit": false,
      "t": 112720,
      "d": 265,
      "v": 60
    },
    {
      "midi": 71,
      "hit": false,
      "t": 112910,
      "d": 120,
      "v": 59
    },
    {
      "midi": 74,
      "hit": false,
      "t": 113115,
      "d": 155,
      "v": 66
    },
    {
      "midi": 71,
      "hit": false,
      "t": 113290,
      "d": 230,
      "v": 62
    },
    {
      "midi": 74,
      "hit": false,
      "t": 113535,
      "d": 130,
      "v": 69
    },
    {
      "midi": 67,
      "hit": false,
      "t": 113545,
      "d": 100,
      "v": 66
    },
    {
      "midi": 53,
      "hit": false,
      "t": 113545,
      "d": 150,
      "v": 51
    },
    {
      "midi": 43,
      "hit": false,
      "t": 113555,
      "d": 160,
      "v": 47
    },
    {
      "midi": 74,
      "hit": false,
      "t": 114000,
      "d": 130,
      "v": 63
    },
    {
      "midi": 67,
      "hit": false,
      "t": 114005,
      "d": 85,
      "v": 62
    },
    {
      "midi": 53,
      "hit": false,
      "t": 114020,
      "d": 80,
      "v": 57
    },
    {
      "midi": 43,
      "hit": false,
      "t": 114035,
      "d": 60,
      "v": 52
    },
    {
      "midi": 71,
      "hit": false,
      "t": 114190,
      "d": 70,
      "v": 63
    },
    {
      "midi": 74,
      "hit": false,
      "t": 114415,
      "d": 75,
      "v": 57
    },
    {
      "midi": 67,
      "hit": false,
      "t": 114420,
      "d": 70,
      "v": 56
    },
    {
      "midi": 53,
      "hit": false,
      "t": 114425,
      "d": 125,
      "v": 51
    },
    {
      "midi": 43,
      "hit": false,
      "t": 114435,
      "d": 110,
      "v": 47
    },
    {
      "midi": 79,
      "hit": false,
      "t": 114620,
      "d": 170,
      "v": 75
    },
    {
      "midi": 67,
      "hit": false,
      "t": 114630,
      "d": 345,
      "v": 59
    },
    {
      "midi": 53,
      "hit": false,
      "t": 114845,
      "d": 70,
      "v": 54
    },
    {
      "midi": 43,
      "hit": false,
      "t": 114860,
      "d": 55,
      "v": 46
    },
    {
      "midi": 71,
      "hit": false,
      "t": 115045,
      "d": 95,
      "v": 51
    },
    {
      "midi": 72,
      "hit": false,
      "t": 115240,
      "d": 135,
      "v": 57
    },
    {
      "midi": 67,
      "hit": false,
      "t": 115250,
      "d": 115,
      "v": 57
    },
    {
      "midi": 52,
      "hit": false,
      "t": 115275,
      "d": 90,
      "v": 52
    },
    {
      "midi": 43,
      "hit": false,
      "t": 115285,
      "d": 115,
      "v": 46
    },
    {
      "midi": 72,
      "hit": false,
      "t": 115685,
      "d": 100,
      "v": 67
    },
    {
      "midi": 67,
      "hit": false,
      "t": 115685,
      "d": 110,
      "v": 71
    },
    {
      "midi": 52,
      "hit": false,
      "t": 115690,
      "d": 100,
      "v": 57
    },
    {
      "midi": 43,
      "hit": false,
      "t": 115715,
      "d": 80,
      "v": 47
    },
    {
      "midi": 71,
      "hit": false,
      "t": 115900,
      "d": 95,
      "v": 50
    },
    {
      "midi": 51,
      "hit": false,
      "t": 116100,
      "d": 130,
      "v": 56
    },
    {
      "midi": 72,
      "hit": false,
      "t": 116110,
      "d": 160,
      "v": 65
    },
    {
      "midi": 67,
      "hit": false,
      "t": 116115,
      "d": 110,
      "v": 65
    },
    {
      "midi": 43,
      "hit": false,
      "t": 116120,
      "d": 100,
      "v": 52
    },
    {
      "midi": 67,
      "hit": false,
      "t": 116320,
      "d": 100,
      "v": 57
    },
    {
      "midi": 69,
      "hit": false,
      "t": 116515,
      "d": 135,
      "v": 55
    },
    {
      "midi": 51,
      "hit": false,
      "t": 116520,
      "d": 65,
      "v": 67
    },
    {
      "midi": 43,
      "hit": false,
      "t": 116540,
      "d": 45,
      "v": 54
    },
    {
      "midi": 70,
      "hit": false,
      "t": 116710,
      "d": 105,
      "v": 66
    },
    {
      "midi": 71,
      "hit": false,
      "t": 116910,
      "d": 165,
      "v": 67
    },
    {
      "midi": 62,
      "hit": false,
      "t": 116915,
      "d": 120,
      "v": 59
    },
    {
      "midi": 67,
      "hit": false,
      "t": 116915,
      "d": 140,
      "v": 69
    },
    {
      "midi": 38,
      "hit": false,
      "t": 116920,
      "d": 70,
      "v": 69
    },
    {
      "midi": 50,
      "hit": false,
      "t": 116925,
      "d": 60,
      "v": 61
    },
    {
      "midi": 74,
      "hit": false,
      "t": 117135,
      "d": 35,
      "v": 60
    },
    {
      "midi": 51,
      "hit": false,
      "t": 117320,
      "d": 45,
      "v": 69
    },
    {
      "midi": 39,
      "hit": false,
      "t": 117325,
      "d": 25,
      "v": 62
    },
    {
      "midi": 71,
      "hit": false,
      "t": 117510,
      "d": 205,
      "v": 66
    },
    {
      "midi": 67,
      "hit": false,
      "t": 117520,
      "d": 125,
      "v": 61
    },
    {
      "midi": 61,
      "hit": false,
      "t": 117525,
      "d": 115,
      "v": 54
    },
    {
      "midi": 52,
      "hit": false,
      "t": 117570,
      "d": 45,
      "v": 70
    },
    {
      "midi": 40,
      "hit": false,
      "t": 117575,
      "d": 40,
      "v": 69
    },
    {
      "midi": 67,
      "hit": false,
      "t": 117950,
      "d": 125,
      "v": 47
    },
    {
      "midi": 69,
      "hit": false,
      "t": 118140,
      "d": 100,
      "v": 59
    },
    {
      "midi": 66,
      "hit": false,
      "t": 118155,
      "d": 70,
      "v": 59
    },
    {
      "midi": 60,
      "hit": false,
      "t": 118165,
      "d": 70,
      "v": 57
    },
    {
      "midi": 38,
      "hit": false,
      "t": 118175,
      "d": 40,
      "v": 54
    },
    {
      "midi": 50,
      "hit": false,
      "t": 118180,
      "d": 50,
      "v": 50
    },
    {
      "midi": 62,
      "hit": false,
      "t": 118635,
      "d": 205,
      "v": 46
    },
    {
      "midi": 67,
      "hit": false,
      "t": 118635,
      "d": 290,
      "v": 52
    },
    {
      "midi": 59,
      "hit": false,
      "t": 118650,
      "d": 120,
      "v": 54
    },
    {
      "midi": 55,
      "hit": false,
      "t": 118650,
      "d": 555,
      "v": 55
    },
    {
      "midi": 67,
      "hit": false,
      "t": 119185,
      "d": 230,
      "v": 70
    },
    {
      "midi": 69,
      "hit": false,
      "t": 119425,
      "d": 315,
      "v": 54
    },
    {
      "midi": 71,
      "hit": false,
      "t": 119720,
      "d": 140,
      "v": 59
    },
    {
      "midi": 43,
      "hit": false,
      "t": 119735,
      "d": 65,
      "v": 57
    },
    {
      "midi": 72,
      "hit": false,
      "t": 119955,
      "d": 205,
      "v": 54
    },
    {
      "midi": 74,
      "hit": false,
      "t": 120255,
      "d": 275,
      "v": 60
    },
    {
      "midi": 31,
      "hit": false,
      "t": 120280,
      "d": 40,
      "v": 64
    },
    {
      "midi": 75,
      "hit": false,
      "t": 120550,
      "d": 405,
      "v": 60
    },
    {
      "midi": 76,
      "hit": false,
      "t": 120960,
      "d": 320,
      "v": 67
    },
    {
      "midi": 67,
      "hit": false,
      "t": 120975,
      "d": 410,
      "v": 52
    },
    {
      "midi": 24,
      "hit": false,
      "t": 120980,
      "d": 150,
      "v": 57
    },
    {
      "midi": 75,
      "hit": false,
      "t": 121300,
      "d": 305,
      "v": 60
    },
    {
      "midi": 76,
      "hit": false,
      "t": 121580,
      "d": 360,
      "v": 74
    },
    {
      "midi": 64,
      "hit": false,
      "t": 121590,
      "d": 40,
      "v": 67
    },
    {
      "midi": 60,
      "hit": false,
      "t": 121595,
      "d": 40,
      "v": 65
    },
    {
      "midi": 67,
      "hit": false,
      "t": 121810,
      "d": 260,
      "v": 65
    },
    {
      "midi": 69,
      "hit": false,
      "t": 122065,
      "d": 210,
      "v": 69
    },
    {
      "midi": 41,
      "hit": false,
      "t": 122095,
      "d": 65,
      "v": 71
    },
    {
      "midi": 72,
      "hit": false,
      "t": 122295,
      "d": 195,
      "v": 63
    },
    {
      "midi": 65,
      "hit": false,
      "t": 122530,
      "d": 30,
      "v": 63
    },
    {
      "midi": 56,
      "hit": false,
      "t": 122535,
      "d": 55,
      "v": 65
    },
    {
      "midi": 60,
      "hit": false,
      "t": 122540,
      "d": 30,
      "v": 59
    },
    {
      "midi": 74,
      "hit": false,
      "t": 122765,
      "d": 125,
      "v": 49
    },
    {
      "midi": 68,
      "hit": false,
      "t": 122770,
      "d": 55,
      "v": 37
    },
    {
      "midi": 76,
      "hit": false,
      "t": 123010,
      "d": 120,
      "v": 59
    },
    {
      "midi": 67,
      "hit": false,
      "t": 123020,
      "d": 75,
      "v": 47
    },
    {
      "midi": 72,
      "hit": false,
      "t": 123020,
      "d": 90,
      "v": 55
    },
    {
      "midi": 36,
      "hit": false,
      "t": 123030,
      "d": 50,
      "v": 61
    },
    {
      "midi": 81,
      "hit": false,
      "t": 123495,
      "d": 75,
      "v": 57
    },
    {
      "midi": 76,
      "hit": false,
      "t": 123500,
      "d": 85,
      "v": 50
    },
    {
      "midi": 69,
      "hit": false,
      "t": 123505,
      "d": 75,
      "v": 50
    },
    {
      "midi": 55,
      "hit": false,
      "t": 123510,
      "d": 60,
      "v": 57
    },
    {
      "midi": 72,
      "hit": false,
      "t": 123510,
      "d": 70,
      "v": 51
    },
    {
      "midi": 64,
      "hit": false,
      "t": 123515,
      "d": 35,
      "v": 55
    },
    {
      "midi": 60,
      "hit": false,
      "t": 123525,
      "d": 40,
      "v": 47
    },
    {
      "midi": 79,
      "hit": false,
      "t": 123770,
      "d": 340,
      "v": 61
    },
    {
      "midi": 76,
      "hit": false,
      "t": 123775,
      "d": 310,
      "v": 51
    },
    {
      "midi": 72,
      "hit": false,
      "t": 123785,
      "d": 285,
      "v": 50
    },
    {
      "midi": 67,
      "hit": false,
      "t": 123795,
      "d": 230,
      "v": 46
    },
    {
      "midi": 31,
      "hit": false,
      "t": 124055,
      "d": 40,
      "v": 57
    },
    {
      "midi": 88,
      "hit": false,
      "t": 124300,
      "d": 55,
      "v": 71
    },
    {
      "midi": 76,
      "hit": false,
      "t": 124300,
      "d": 60,
      "v": 63
    },
    {
      "midi": 65,
      "hit": false,
      "t": 124530,
      "d": 35,
      "v": 60
    },
    {
      "midi": 55,
      "hit": false,
      "t": 124530,
      "d": 70,
      "v": 57
    },
    {
      "midi": 74,
      "hit": false,
      "t": 124540,
      "d": 100,
      "v": 73
    },
    {
      "midi": 59,
      "hit": false,
      "t": 124545,
      "d": 35,
      "v": 62
    },
    {
      "midi": 86,
      "hit": false,
      "t": 124545,
      "d": 190,
      "v": 83
    },
    {
      "midi": 77,
      "hit": false,
      "t": 124750,
      "d": 70,
      "v": 71
    },
    {
      "midi": 36,
      "hit": false,
      "t": 125050,
      "d": 120,
      "v": 65
    },
    {
      "midi": 76,
      "hit": false,
      "t": 125055,
      "d": 235,
      "v": 70
    },
    {
      "midi": 67,
      "hit": false,
      "t": 125055,
      "d": 345,
      "v": 62
    },
    {
      "midi": 75,
      "hit": false,
      "t": 125300,
      "d": 220,
      "v": 59
    },
    {
      "midi": 64,
      "hit": false,
      "t": 125525,
      "d": 50,
      "v": 70
    },
    {
      "midi": 76,
      "hit": false,
      "t": 125525,
      "d": 265,
      "v": 77
    },
    {
      "midi": 55,
      "hit": false,
      "t": 125535,
      "d": 65,
      "v": 66
    },
    {
      "midi": 60,
      "hit": false,
      "t": 125540,
      "d": 40,
      "v": 66
    },
    {
      "midi": 67,
      "hit": false,
      "t": 125715,
      "d": 100,
      "v": 66
    },
    {
      "midi": 69,
      "hit": false,
      "t": 125900,
      "d": 85,
      "v": 69
    },
    {
      "midi": 41,
      "hit": false,
      "t": 125930,
      "d": 35,
      "v": 78
    },
    {
      "midi": 53,
      "hit": false,
      "t": 125935,
      "d": 35,
      "v": 75
    },
    {
      "midi": 72,
      "hit": false,
      "t": 126105,
      "d": 250,
      "v": 78
    },
    {
      "midi": 42,
      "hit": false,
      "t": 126325,
      "d": 40,
      "v": 75
    },
    {
      "midi": 54,
      "hit": false,
      "t": 126330,
      "d": 30,
      "v": 74
    },
    {
      "midi": 74,
      "hit": false,
      "t": 126530,
      "d": 65,
      "v": 61
    },
    {
      "midi": 72,
      "hit": false,
      "t": 126720,
      "d": 1145,
      "v": 75
    },
    {
      "midi": 76,
      "hit": false,
      "t": 126720,
      "d": 1165,
      "v": 86
    },
    {
      "midi": 43,
      "hit": false,
      "t": 126725,
      "d": 50,
      "v": 73
    },
    {
      "midi": 67,
      "hit": false,
      "t": 126725,
      "d": 1100,
      "v": 74
    },
    {
      "midi": 55,
      "hit": false,
      "t": 126730,
      "d": 45,
      "v": 67
    },
    {
      "midi": 60,
      "hit": false,
      "t": 127135,
      "d": 40,
      "v": 79
    },
    {
      "midi": 48,
      "hit": false,
      "t": 127140,
      "d": 35,
      "v": 83
    },
    {
      "midi": 59,
      "hit": false,
      "t": 127530,
      "d": 30,
      "v": 77
    },
    {
      "midi": 47,
      "hit": false,
      "t": 127535,
      "d": 30,
      "v": 79
    },
    {
      "midi": 58,
      "hit": false,
      "t": 127950,
      "d": 55,
      "v": 89
    },
    {
      "midi": 46,
      "hit": false,
      "t": 127955,
      "d": 55,
      "v": 92
    },
    {
      "midi": 77,
      "hit": false,
      "t": 128160,
      "d": 355,
      "v": 95
    },
    {
      "midi": 45,
      "hit": false,
      "t": 128335,
      "d": 35,
      "v": 61
    },
    {
      "midi": 57,
      "hit": false,
      "t": 128350,
      "d": 45,
      "v": 57
    },
    {
      "midi": 84,
      "hit": false,
      "t": 128535,
      "d": 810,
      "v": 69
    },
    {
      "midi": 74,
      "hit": false,
      "t": 128710,
      "d": 145,
      "v": 69
    },
    {
      "midi": 65,
      "hit": false,
      "t": 128720,
      "d": 35,
      "v": 66
    },
    {
      "midi": 60,
      "hit": false,
      "t": 128725,
      "d": 45,
      "v": 62
    },
    {
      "midi": 57,
      "hit": false,
      "t": 128735,
      "d": 45,
      "v": 56
    },
    {
      "midi": 72,
      "hit": false,
      "t": 128920,
      "d": 355,
      "v": 77
    },
    {
      "midi": 56,
      "hit": false,
      "t": 129090,
      "d": 55,
      "v": 69
    },
    {
      "midi": 44,
      "hit": false,
      "t": 129095,
      "d": 40,
      "v": 75
    },
    {
      "midi": 74,
      "hit": false,
      "t": 129260,
      "d": 230,
      "v": 57
    },
    {
      "midi": 65,
      "hit": false,
      "t": 129440,
      "d": 40,
      "v": 65
    },
    {
      "midi": 77,
      "hit": false,
      "t": 129440,
      "d": 170,
      "v": 71
    },
    {
      "midi": 56,
      "hit": false,
      "t": 129450,
      "d": 40,
      "v": 62
    },
    {
      "midi": 60,
      "hit": false,
      "t": 129455,
      "d": 35,
      "v": 59
    },
    {
      "midi": 84,
      "hit": false,
      "t": 129610,
      "d": 80,
      "v": 74
    },
    {
      "midi": 76,
      "hit": false,
      "t": 129795,
      "d": 175,
      "v": 69
    },
    {
      "midi": 43,
      "hit": false,
      "t": 129815,
      "d": 40,
      "v": 66
    },
    {
      "midi": 55,
      "hit": false,
      "t": 129815,
      "d": 75,
      "v": 67
    },
    {
      "midi": 79,
      "hit": false,
      "t": 129970,
      "d": 540,
      "v": 73
    },
    {
      "midi": 74,
      "hit": false,
      "t": 130155,
      "d": 180,
      "v": 65
    },
    {
      "midi": 55,
      "hit": false,
      "t": 130175,
      "d": 70,
      "v": 55
    },
    {
      "midi": 60,
      "hit": false,
      "t": 130180,
      "d": 45,
      "v": 56
    },
    {
      "midi": 72,
      "hit": false,
      "t": 130325,
      "d": 205,
      "v": 77
    },
    {
      "midi": 40,
      "hit": false,
      "t": 130525,
      "d": 35,
      "v": 83
    },
    {
      "midi": 52,
      "hit": false,
      "t": 130530,
      "d": 35,
      "v": 78
    },
    {
      "midi": 79,
      "hit": false,
      "t": 130695,
      "d": 60,
      "v": 83
    },
    {
      "midi": 67,
      "hit": false,
      "t": 130700,
      "d": 45,
      "v": 75
    },
    {
      "midi": 81,
      "hit": false,
      "t": 130865,
      "d": 35,
      "v": 92
    },
    {
      "midi": 69,
      "hit": false,
      "t": 130870,
      "d": 35,
      "v": 77
    },
    {
      "midi": 51,
      "hit": false,
      "t": 130870,
      "d": 50,
      "v": 67
    },
    {
      "midi": 39,
      "hit": false,
      "t": 130880,
      "d": 35,
      "v": 51
    },
    {
      "midi": 82,
      "hit": false,
      "t": 131020,
      "d": 80,
      "v": 79
    },
    {
      "midi": 70,
      "hit": false,
      "t": 131025,
      "d": 65,
      "v": 79
    },
    {
      "midi": 38,
      "hit": false,
      "t": 131205,
      "d": 50,
      "v": 75
    },
    {
      "midi": 79,
      "hit": false,
      "t": 131205,
      "d": 65,
      "v": 71
    },
    {
      "midi": 50,
      "hit": false,
      "t": 131210,
      "d": 50,
      "v": 71
    },
    {
      "midi": 71,
      "hit": false,
      "t": 131210,
      "d": 55,
      "v": 73
    },
    {
      "midi": 83,
      "hit": false,
      "t": 131215,
      "d": 60,
      "v": 86
    },
    {
      "midi": 84,
      "hit": false,
      "t": 131390,
      "d": 35,
      "v": 92
    },
    {
      "midi": 72,
      "hit": false,
      "t": 131390,
      "d": 40,
      "v": 86
    },
    {
      "midi": 74,
      "hit": false,
      "t": 131575,
      "d": 40,
      "v": 60
    },
    {
      "midi": 86,
      "hit": false,
      "t": 131580,
      "d": 35,
      "v": 77
    },
    {
      "midi": 79,
      "hit": false,
      "t": 131750,
      "d": 165,
      "v": 61
    },
    {
      "midi": 83,
      "hit": false,
      "t": 131770,
      "d": 235,
      "v": 75
    },
    {
      "midi": 52,
      "hit": false,
      "t": 131775,
      "d": 75,
      "v": 78
    },
    {
      "midi": 73,
      "hit": false,
      "t": 131775,
      "d": 125,
      "v": 60
    },
    {
      "midi": 40,
      "hit": false,
      "t": 131780,
      "d": 80,
      "v": 77
    },
    {
      "midi": 79,
      "hit": false,
      "t": 132140,
      "d": 155,
      "v": 61
    },
    {
      "midi": 81,
      "hit": false,
      "t": 132305,
      "d": 75,
      "v": 75
    },
    {
      "midi": 38,
      "hit": false,
      "t": 132310,
      "d": 40,
      "v": 71
    },
    {
      "midi": 50,
      "hit": false,
      "t": 132315,
      "d": 65,
      "v": 74
    },
    {
      "midi": 72,
      "hit": false,
      "t": 132320,
      "d": 50,
      "v": 71
    },
    {
      "midi": 78,
      "hit": false,
      "t": 132330,
      "d": 40,
      "v": 67
    },
    {
      "midi": 79,
      "hit": false,
      "t": 132710,
      "d": 125,
      "v": 74
    },
    {
      "midi": 74,
      "hit": false,
      "t": 132715,
      "d": 145,
      "v": 70
    },
    {
      "midi": 71,
      "hit": false,
      "t": 132715,
      "d": 155,
      "v": 73
    },
    {
      "midi": 55,
      "hit": false,
      "t": 132725,
      "d": 90,
      "v": 71
    },
    {
      "midi": 43,
      "hit": false,
      "t": 132745,
      "d": 40,
      "v": 71
    },
    {
      "midi": 67,
      "hit": false,
      "t": 133125,
      "d": 240,
      "v": 83
    },
    {
      "midi": 53,
      "hit": false,
      "t": 133135,
      "d": 45,
      "v": 65
    },
    {
      "midi": 41,
      "hit": false,
      "t": 133140,
      "d": 45,
      "v": 69
    },
    {
      "midi": 69,
      "hit": false,
      "t": 133305,
      "d": 260,
      "v": 60
    },
    {
      "midi": 71,
      "hit": false,
      "t": 133550,
      "d": 90,
      "v": 75
    },
    {
      "midi": 52,
      "hit": false,
      "t": 133570,
      "d": 45,
      "v": 66
    },
    {
      "midi": 40,
      "hit": false,
      "t": 133570,
      "d": 50,
      "v": 69
    },
    {
      "midi": 72,
      "hit": false,
      "t": 133755,
      "d": 105,
      "v": 71
    },
    {
      "midi": 74,
      "hit": false,
      "t": 133990,
      "d": 220,
      "v": 61
    },
    {
      "midi": 38,
      "hit": false,
      "t": 134010,
      "d": 65,
      "v": 57
    },
    {
      "midi": 50,
      "hit": false,
      "t": 134010,
      "d": 70,
      "v": 56
    },
    {
      "midi": 75,
      "hit": false,
      "t": 134230,
      "d": 260,
      "v": 66
    },
    {
      "midi": 76,
      "hit": false,
      "t": 134510,
      "d": 235,
      "v": 66
    },
    {
      "midi": 67,
      "hit": false,
      "t": 134530,
      "d": 305,
      "v": 54
    },
    {
      "midi": 36,
      "hit": false,
      "t": 134535,
      "d": 65,
      "v": 62
    },
    {
      "midi": 48,
      "hit": false,
      "t": 134550,
      "d": 65,
      "v": 52
    },
    {
      "midi": 75,
      "hit": false,
      "t": 134785,
      "d": 240,
      "v": 61
    },
    {
      "midi": 64,
      "hit": false,
      "t": 135015,
      "d": 35,
      "v": 67
    },
    {
      "midi": 55,
      "hit": false,
      "t": 135020,
      "d": 65,
      "v": 70
    },
    {
      "midi": 76,
      "hit": false,
      "t": 135020,
      "d": 370,
      "v": 77
    },
    {
      "midi": 60,
      "hit": false,
      "t": 135025,
      "d": 35,
      "v": 63
    },
    {
      "midi": 67,
      "hit": false,
      "t": 135200,
      "d": 160,
      "v": 73
    },
    {
      "midi": 69,
      "hit": false,
      "t": 135405,
      "d": 170,
      "v": 74
    },
    {
      "midi": 29,
      "hit": false,
      "t": 135435,
      "d": 50,
      "v": 69
    },
    {
      "midi": 72,
      "hit": false,
      "t": 135610,
      "d": 300,
      "v": 86
    },
    {
      "midi": 65,
      "hit": false,
      "t": 135845,
      "d": 35,
      "v": 70
    },
    {
      "midi": 60,
      "hit": false,
      "t": 135845,
      "d": 60,
      "v": 60
    },
    {
      "midi": 56,
      "hit": false,
      "t": 135850,
      "d": 50,
      "v": 61
    },
    {
      "midi": 68,
      "hit": false,
      "t": 136025,
      "d": 70,
      "v": 62
    },
    {
      "midi": 74,
      "hit": false,
      "t": 136030,
      "d": 105,
      "v": 56
    },
    {
      "midi": 76,
      "hit": false,
      "t": 136305,
      "d": 140,
      "v": 67
    },
    {
      "midi": 72,
      "hit": false,
      "t": 136320,
      "d": 100,
      "v": 67
    },
    {
      "midi": 36,
      "hit": false,
      "t": 136325,
      "d": 75,
      "v": 66
    },
    {
      "midi": 67,
      "hit": false,
      "t": 136325,
      "d": 90,
      "v": 60
    },
    {
      "midi": 81,
      "hit": false,
      "t": 136745,
      "d": 85,
      "v": 73
    },
    {
      "midi": 76,
      "hit": false,
      "t": 136745,
      "d": 100,
      "v": 66
    },
    {
      "midi": 55,
      "hit": false,
      "t": 136750,
      "d": 70,
      "v": 62
    },
    {
      "midi": 69,
      "hit": false,
      "t": 136755,
      "d": 85,
      "v": 62
    },
    {
      "midi": 72,
      "hit": false,
      "t": 136755,
      "d": 95,
      "v": 66
    },
    {
      "midi": 64,
      "hit": false,
      "t": 136760,
      "d": 40,
      "v": 57
    },
    {
      "midi": 60,
      "hit": false,
      "t": 136765,
      "d": 35,
      "v": 61
    },
    {
      "midi": 72,
      "hit": false,
      "t": 136985,
      "d": 300,
      "v": 62
    },
    {
      "midi": 76,
      "hit": false,
      "t": 136985,
      "d": 380,
      "v": 55
    },
    {
      "midi": 79,
      "hit": false,
      "t": 136990,
      "d": 480,
      "v": 77
    },
    {
      "midi": 67,
      "hit": false,
      "t": 137000,
      "d": 365,
      "v": 63
    },
    {
      "midi": 31,
      "hit": false,
      "t": 137235,
      "d": 45,
      "v": 66
    },
    {
      "midi": 72,
      "hit": false,
      "t": 137420,
      "d": 145,
      "v": 89
    },
    {
      "midi": 76,
      "hit": false,
      "t": 137620,
      "d": 115,
      "v": 74
    },
    {
      "midi": 55,
      "hit": false,
      "t": 137625,
      "d": 70,
      "v": 67
    },
    {
      "midi": 64,
      "hit": false,
      "t": 137630,
      "d": 35,
      "v": 63
    },
    {
      "midi": 60,
      "hit": false,
      "t": 137645,
      "d": 30,
      "v": 59
    },
    {
      "midi": 75,
      "hit": false,
      "t": 137815,
      "d": 365,
      "v": 73
    },
    {
      "midi": 28,
      "hit": false,
      "t": 138035,
      "d": 50,
      "v": 86
    },
    {
      "midi": 76,
      "hit": false,
      "t": 138255,
      "d": 90,
      "v": 72
    },
    {
      "midi": 80,
      "hit": false,
      "t": 138420,
      "d": 475,
      "v": 75
    },
    {
      "midi": 62,
      "hit": false,
      "t": 138430,
      "d": 50,
      "v": 69
    },
    {
      "midi": 64,
      "hit": false,
      "t": 138430,
      "d": 50,
      "v": 74
    },
    {
      "midi": 56,
      "hit": false,
      "t": 138435,
      "d": 60,
      "v": 62
    },
    {
      "midi": 84,
      "hit": false,
      "t": 138620,
      "d": 265,
      "v": 83
    },
    {
      "midi": 74,
      "hit": false,
      "t": 138630,
      "d": 260,
      "v": 77
    },
    {
      "midi": 35,
      "hit": false,
      "t": 138805,
      "d": 60,
      "v": 74
    },
    {
      "midi": 76,
      "hit": false,
      "t": 138990,
      "d": 155,
      "v": 62
    },
    {
      "midi": 83,
      "hit": false,
      "t": 139165,
      "d": 215,
      "v": 83
    },
    {
      "midi": 74,
      "hit": false,
      "t": 139170,
      "d": 180,
      "v": 70
    },
    {
      "midi": 64,
      "hit": false,
      "t": 139195,
      "d": 55,
      "v": 67
    },
    {
      "midi": 56,
      "hit": false,
      "t": 139195,
      "d": 70,
      "v": 67
    },
    {
      "midi": 62,
      "hit": false,
      "t": 139200,
      "d": 45,
      "v": 60
    },
    {
      "midi": 76,
      "hit": false,
      "t": 139380,
      "d": 140,
      "v": 70
    },
    {
      "midi": 81,
      "hit": false,
      "t": 139570,
      "d": 190,
      "v": 86
    },
    {
      "midi": 72,
      "hit": false,
      "t": 139575,
      "d": 145,
      "v": 89
    },
    {
      "midi": 33,
      "hit": false,
      "t": 139580,
      "d": 60,
      "v": 57
    },
    {
      "midi": 45,
      "hit": false,
      "t": 139580,
      "d": 60,
      "v": 57
    },
    {
      "midi": 76,
      "hit": false,
      "t": 139770,
      "d": 105,
      "v": 71
    },
    {
      "midi": 71,
      "hit": false,
      "t": 139950,
      "d": 40,
      "v": 66
    },
    {
      "midi": 83,
      "hit": false,
      "t": 139955,
      "d": 55,
      "v": 77
    },
    {
      "midi": 60,
      "hit": false,
      "t": 139980,
      "d": 30,
      "v": 57
    },
    {
      "midi": 57,
      "hit": false,
      "t": 139985,
      "d": 40,
      "v": 57
    },
    {
      "midi": 76,
      "hit": false,
      "t": 140135,
      "d": 250,
      "v": 86
    },
    {
      "midi": 84,
      "hit": false,
      "t": 140140,
      "d": 195,
      "v": 95
    },
    {
      "midi": 72,
      "hit": false,
      "t": 140145,
      "d": 235,
      "v": 79
    },
    {
      "midi": 40,
      "hit": false,
      "t": 140310,
      "d": 40,
      "v": 71
    },
    {
      "midi": 52,
      "hit": false,
      "t": 140315,
      "d": 45,
      "v": 63
    },
    {
      "midi": 81,
      "hit": false,
      "t": 140500,
      "d": 165,
      "v": 79
    },
    {
      "midi": 76,
      "hit": false,
      "t": 140675,
      "d": 100,
      "v": 77
    },
    {
      "midi": 57,
      "hit": false,
      "t": 140680,
      "d": 70,
      "v": 66
    },
    {
      "midi": 60,
      "hit": false,
      "t": 140690,
      "d": 40,
      "v": 61
    },
    {
      "midi": 72,
      "hit": false,
      "t": 140850,
      "d": 100,
      "v": 77
    },
    {
      "midi": 42,
      "hit": false,
      "t": 141030,
      "d": 310,
      "v": 62
    },
    {
      "midi": 84,
      "hit": false,
      "t": 141045,
      "d": 200,
      "v": 89
    },
    {
      "midi": 81,
      "hit": false,
      "t": 141210,
      "d": 220,
      "v": 66
    },
    {
      "midi": 45,
      "hit": false,
      "t": 141250,
      "d": 180,
      "v": 55
    },
    {
      "midi": 78,
      "hit": false,
      "t": 141380,
      "d": 235,
      "v": 67
    },
    {
      "midi": 48,
      "hit": false,
      "t": 141420,
      "d": 130,
      "v": 57
    },
    {
      "midi": 51,
      "hit": false,
      "t": 141565,
      "d": 75,
      "v": 63
    },
    {
      "midi": 75,
      "hit": false,
      "t": 141570,
      "d": 140,
      "v": 55
    },
    {
      "midi": 72,
      "hit": false,
      "t": 141740,
      "d": 65,
      "v": 74
    },
    {
      "midi": 54,
      "hit": false,
      "t": 141765,
      "d": 110,
      "v": 67
    },
    {
      "midi": 57,
      "hit": false,
      "t": 141915,
      "d": 395,
      "v": 75
    },
    {
      "midi": 69,
      "hit": false,
      "t": 141940,
      "d": 415,
      "v": 80
    },
    {
      "midi": 56,
      "hit": false,
      "t": 142290,
      "d": 70,
      "v": 74
    },
    {
      "midi": 68,
      "hit": false,
      "t": 142320,
      "d": 155,
      "v": 79
    },
    {
      "midi": 67,
      "hit": false,
      "t": 142490,
      "d": 335,
      "v": 89
    },
    {
      "midi": 55,
      "hit": false,
      "t": 142525,
      "d": 85,
      "v": 65
    },
    {
      "midi": 43,
      "hit": false,
      "t": 142530,
      "d": 45,
      "v": 70
    },
    {
      "midi": 64,
      "hit": false,
      "t": 142895,
      "d": 45,
      "v": 65
    },
    {
      "midi": 57,
      "hit": false,
      "t": 142900,
      "d": 70,
      "v": 66
    },
    {
      "midi": 69,
      "hit": false,
      "t": 142900,
      "d": 70,
      "v": 79
    },
    {
      "midi": 60,
      "hit": false,
      "t": 142905,
      "d": 45,
      "v": 62
    },
    {
      "midi": 72,
      "hit": false,
      "t": 143125,
      "d": 240,
      "v": 67
    },
    {
      "midi": 45,
      "hit": false,
      "t": 143270,
      "d": 70,
      "v": 67
    },
    {
      "midi": 57,
      "hit": false,
      "t": 143285,
      "d": 85,
      "v": 47
    },
    {
      "midi": 74,
      "hit": false,
      "t": 143470,
      "d": 145,
      "v": 62
    },
    {
      "midi": 57,
      "hit": false,
      "t": 143635,
      "d": 55,
      "v": 66
    },
    {
      "midi": 76,
      "hit": false,
      "t": 143635,
      "d": 85,
      "v": 75
    },
    {
      "midi": 64,
      "hit": false,
      "t": 143640,
      "d": 30,
      "v": 63
    },
    {
      "midi": 60,
      "hit": false,
      "t": 143645,
      "d": 35,
      "v": 60
    },
    {
      "midi": 69,
      "hit": false,
      "t": 143820,
      "d": 545,
      "v": 73
    },
    {
      "midi": 66,
      "hit": false,
      "t": 143830,
      "d": 495,
      "v": 77
    },
    {
      "midi": 38,
      "hit": false,
      "t": 144050,
      "d": 40,
      "v": 53
    },
    {
      "midi": 60,
      "hit": false,
      "t": 144450,
      "d": 65,
      "v": 56
    },
    {
      "midi": 54,
      "hit": false,
      "t": 144465,
      "d": 65,
      "v": 66
    },
    {
      "midi": 50,
      "hit": false,
      "t": 144470,
      "d": 65,
      "v": 56
    },
    {
      "midi": 76,
      "hit": false,
      "t": 144650,
      "d": 460,
      "v": 73
    },
    {
      "midi": 67,
      "hit": false,
      "t": 144650,
      "d": 595,
      "v": 67
    },
    {
      "midi": 65,
      "hit": false,
      "t": 144665,
      "d": 550,
      "v": 56
    },
    {
      "midi": 43,
      "hit": false,
      "t": 144870,
      "d": 75,
      "v": 63
    },
    {
      "midi": 59,
      "hit": false,
      "t": 145310,
      "d": 70,
      "v": 63
    },
    {
      "midi": 55,
      "hit": false,
      "t": 145315,
      "d": 80,
      "v": 60
    },
    {
      "midi": 72,
      "hit": false,
      "t": 145530,
      "d": 440,
      "v": 75
    },
    {
      "midi": 64,
      "hit": false,
      "t": 145540,
      "d": 330,
      "v": 63
    },
    {
      "midi": 67,
      "hit": false,
      "t": 145540,
      "d": 350,
      "v": 67
    },
    {
      "midi": 60,
      "hit": false,
      "t": 145785,
      "d": 100,
      "v": 55
    },
    {
      "midi": 55,
      "hit": false,
      "t": 145785,
      "d": 140,
      "v": 57
    },
    {
      "midi": 48,
      "hit": false,
      "t": 145790,
      "d": 155,
      "v": 59
    },
    {
      "midi": 67,
      "hit": false,
      "t": 146245,
      "d": 255,
      "v": 83
    },
    {
      "midi": 69,
      "hit": false,
      "t": 146460,
      "d": 300,
      "v": 69
    },
    {
      "midi": 71,
      "hit": false,
      "t": 146730,
      "d": 220,
      "v": 75
    },
    {
      "midi": 55,
      "hit": false,
      "t": 146740,
      "d": 510,
      "v": 62
    },
    {
      "midi": 72,
      "hit": false,
      "t": 146980,
      "d": 330,
      "v": 89
    },
    {
      "midi": 74,
      "hit": false,
      "t": 147280,
      "d": 300,
      "v": 69
    },
    {
      "midi": 43,
      "hit": false,
      "t": 147290,
      "d": 40,
      "v": 60
    },
    {
      "midi": 75,
      "hit": false,
      "t": 147545,
      "d": 385,
      "v": 70
    },
    {
      "midi": 76,
      "hit": false,
      "t": 147920,
      "d": 325,
      "v": 71
    },
    {
      "midi": 24,
      "hit": false,
      "t": 147940,
      "d": 115,
      "v": 63
    },
    {
      "midi": 67,
      "hit": false,
      "t": 147945,
      "d": 440,
      "v": 54
    },
    {
      "midi": 75,
      "hit": false,
      "t": 148285,
      "d": 340,
      "v": 56
    },
    {
      "midi": 64,
      "hit": false,
      "t": 148570,
      "d": 45,
      "v": 67
    },
    {
      "midi": 55,
      "hit": false,
      "t": 148575,
      "d": 70,
      "v": 67
    },
    {
      "midi": 76,
      "hit": false,
      "t": 148575,
      "d": 525,
      "v": 79
    },
    {
      "midi": 60,
      "hit": false,
      "t": 148580,
      "d": 40,
      "v": 62
    },
    {
      "midi": 67,
      "hit": false,
      "t": 148825,
      "d": 320,
      "v": 69
    },
    {
      "midi": 69,
      "hit": false,
      "t": 149100,
      "d": 220,
      "v": 78
    },
    {
      "midi": 41,
      "hit": false,
      "t": 149120,
      "d": 55,
      "v": 78
    },
    {
      "midi": 72,
      "hit": false,
      "t": 149325,
      "d": 330,
      "v": 79
    },
    {
      "midi": 56,
      "hit": false,
      "t": 149545,
      "d": 55,
      "v": 71
    },
    {
      "midi": 65,
      "hit": false,
      "t": 149550,
      "d": 40,
      "v": 73
    },
    {
      "midi": 60,
      "hit": false,
      "t": 149550,
      "d": 45,
      "v": 70
    },
    {
      "midi": 68,
      "hit": false,
      "t": 149740,
      "d": 85,
      "v": 77
    },
    {
      "midi": 74,
      "hit": false,
      "t": 149745,
      "d": 120,
      "v": 61
    },
    {
      "midi": 72,
      "hit": false,
      "t": 150095,
      "d": 110,
      "v": 71
    },
    {
      "midi": 76,
      "hit": false,
      "t": 150095,
      "d": 135,
      "v": 67
    },
    {
      "midi": 67,
      "hit": false,
      "t": 150105,
      "d": 90,
      "v": 61
    },
    {
      "midi": 36,
      "hit": false,
      "t": 150125,
      "d": 65,
      "v": 71
    },
    {
      "midi": 55,
      "hit": false,
      "t": 150625,
      "d": 65,
      "v": 71
    },
    {
      "midi": 81,
      "hit": false,
      "t": 150625,
      "d": 95,
      "v": 78
    },
    {
      "midi": 64,
      "hit": false,
      "t": 150630,
      "d": 35,
      "v": 70
    },
    {
      "midi": 76,
      "hit": false,
      "t": 150630,
      "d": 90,
      "v": 73
    },
    {
      "midi": 60,
      "hit": false,
      "t": 150635,
      "d": 35,
      "v": 63
    },
    {
      "midi": 69,
      "hit": false,
      "t": 150635,
      "d": 75,
      "v": 73
    },
    {
      "midi": 72,
      "hit": false,
      "t": 150635,
      "d": 90,
      "v": 71
    },
    {
      "midi": 76,
      "hit": false,
      "t": 150905,
      "d": 310,
      "v": 66
    },
    {
      "midi": 72,
      "hit": false,
      "t": 150915,
      "d": 285,
      "v": 69
    },
    {
      "midi": 79,
      "hit": false,
      "t": 150915,
      "d": 315,
      "v": 79
    },
    {
      "midi": 67,
      "hit": false,
      "t": 150920,
      "d": 235,
      "v": 69
    },
    {
      "midi": 31,
      "hit": false,
      "t": 151215,
      "d": 40,
      "v": 65
    },
    {
      "midi": 88,
      "hit": false,
      "t": 151425,
      "d": 40,
      "v": 70
    },
    {
      "midi": 76,
      "hit": false,
      "t": 151425,
      "d": 50,
      "v": 62
    },
    {
      "midi": 74,
      "hit": false,
      "t": 151690,
      "d": 225,
      "v": 78
    },
    {
      "midi": 86,
      "hit": false,
      "t": 151695,
      "d": 260,
      "v": 86
    },
    {
      "midi": 65,
      "hit": false,
      "t": 151700,
      "d": 45,
      "v": 73
    },
    {
      "midi": 55,
      "hit": false,
      "t": 151700,
      "d": 70,
      "v": 66
    },
    {
      "midi": 59,
      "hit": false,
      "t": 151705,
      "d": 60,
      "v": 73
    },
    {
      "midi": 77,
      "hit": false,
      "t": 151945,
      "d": 70,
      "v": 71
    },
    {
      "midi": 76,
      "hit": false,
      "t": 152220,
      "d": 235,
      "v": 77
    },
    {
      "midi": 67,
      "hit": false,
      "t": 152225,
      "d": 295,
      "v": 69
    },
    {
      "midi": 36,
      "hit": false,
      "t": 152230,
      "d": 70,
      "v": 77
    },
    {
      "midi": 75,
      "hit": false,
      "t": 152455,
      "d": 250,
      "v": 62
    },
    {
      "midi": 55,
      "hit": false,
      "t": 152685,
      "d": 70,
      "v": 70
    },
    {
      "midi": 76,
      "hit": false,
      "t": 152685,
      "d": 315,
      "v": 75
    },
    {
      "midi": 60,
      "hit": false,
      "t": 152690,
      "d": 50,
      "v": 67
    },
    {
      "midi": 64,
      "hit": false,
      "t": 152690,
      "d": 55,
      "v": 69
    },
    {
      "midi": 67,
      "hit": false,
      "t": 152885,
      "d": 135,
      "v": 71
    },
    {
      "midi": 69,
      "hit": false,
      "t": 153090,
      "d": 145,
      "v": 79
    },
    {
      "midi": 41,
      "hit": false,
      "t": 153115,
      "d": 60,
      "v": 83
    },
    {
      "midi": 53,
      "hit": false,
      "t": 153120,
      "d": 40,
      "v": 77
    },
    {
      "midi": 72,
      "hit": false,
      "t": 153300,
      "d": 210,
      "v": 92
    },
    {
      "midi": 54,
      "hit": false,
      "t": 153505,
      "d": 45,
      "v": 99
    },
    {
      "midi": 42,
      "hit": false,
      "t": 153510,
      "d": 45,
      "v": 95
    },
    {
      "midi": 68,
      "hit": false,
      "t": 153690,
      "d": 75,
      "v": 75
    },
    {
      "midi": 74,
      "hit": false,
      "t": 153700,
      "d": 105,
      "v": 61
    },
    {
      "midi": 43,
      "hit": false,
      "t": 153895,
      "d": 60,
      "v": 75
    },
    {
      "midi": 55,
      "hit": false,
      "t": 153895,
      "d": 60,
      "v": 71
    },
    {
      "midi": 72,
      "hit": false,
      "t": 153900,
      "d": 1150,
      "v": 89
    },
    {
      "midi": 67,
      "hit": false,
      "t": 153905,
      "d": 1090,
      "v": 83
    },
    {
      "midi": 76,
      "hit": false,
      "t": 153905,
      "d": 1165,
      "v": 89
    },
    {
      "midi": 60,
      "hit": false,
      "t": 154305,
      "d": 60,
      "v": 82
    },
    {
      "midi": 48,
      "hit": false,
      "t": 154305,
      "d": 65,
      "v": 89
    },
    {
      "midi": 59,
      "hit": false,
      "t": 154705,
      "d": 35,
      "v": 89
    },
    {
      "midi": 47,
      "hit": false,
      "t": 154710,
      "d": 35,
      "v": 99
    },
    {
      "midi": 58,
      "hit": false,
      "t": 155115,
      "d": 60,
      "v": 99
    },
    {
      "midi": 46,
      "hit": false,
      "t": 155115,
      "d": 65,
      "v": 95
    },
    {
      "midi": 77,
      "hit": false,
      "t": 155320,
      "d": 380,
      "v": 95
    },
    {
      "midi": 45,
      "hit": false,
      "t": 155510,
      "d": 40,
      "v": 71
    },
    {
      "midi": 57,
      "hit": false,
      "t": 155520,
      "d": 70,
      "v": 59
    },
    {
      "midi": 84,
      "hit": false,
      "t": 155710,
      "d": 785,
      "v": 74
    },
    {
      "midi": 74,
      "hit": false,
      "t": 155885,
      "d": 185,
      "v": 67
    },
    {
      "midi": 65,
      "hit": false,
      "t": 155905,
      "d": 45,
      "v": 70
    },
    {
      "midi": 60,
      "hit": false,
      "t": 155915,
      "d": 55,
      "v": 63
    },
    {
      "midi": 57,
      "hit": false,
      "t": 155915,
      "d": 70,
      "v": 63
    },
    {
      "midi": 72,
      "hit": false,
      "t": 156085,
      "d": 370,
      "v": 92
    },
    {
      "midi": 56,
      "hit": false,
      "t": 156265,
      "d": 65,
      "v": 71
    },
    {
      "midi": 44,
      "hit": false,
      "t": 156270,
      "d": 50,
      "v": 70
    },
    {
      "midi": 74,
      "hit": false,
      "t": 156440,
      "d": 235,
      "v": 69
    },
    {
      "midi": 77,
      "hit": false,
      "t": 156615,
      "d": 175,
      "v": 73
    },
    {
      "midi": 65,
      "hit": false,
      "t": 156620,
      "d": 50,
      "v": 71
    },
    {
      "midi": 60,
      "hit": false,
      "t": 156625,
      "d": 50,
      "v": 65
    },
    {
      "midi": 56,
      "hit": false,
      "t": 156625,
      "d": 60,
      "v": 71
    },
    {
      "midi": 84,
      "hit": false,
      "t": 156795,
      "d": 135,
      "v": 69
    },
    {
      "midi": 76,
      "hit": false,
      "t": 156965,
      "d": 175,
      "v": 83
    },
    {
      "midi": 43,
      "hit": false,
      "t": 156995,
      "d": 65,
      "v": 67
    },
    {
      "midi": 55,
      "hit": false,
      "t": 156995,
      "d": 95,
      "v": 67
    },
    {
      "midi": 79,
      "hit": false,
      "t": 157155,
      "d": 565,
      "v": 67
    },
    {
      "midi": 74,
      "hit": false,
      "t": 157330,
      "d": 225,
      "v": 55
    },
    {
      "midi": 55,
      "hit": false,
      "t": 157345,
      "d": 90,
      "v": 65
    },
    {
      "midi": 64,
      "hit": false,
      "t": 157350,
      "d": 50,
      "v": 62
    },
    {
      "midi": 60,
      "hit": false,
      "t": 157360,
      "d": 50,
      "v": 66
    },
    {
      "midi": 72,
      "hit": false,
      "t": 157515,
      "d": 215,
      "v": 78
    },
    {
      "midi": 52,
      "hit": false,
      "t": 157710,
      "d": 65,
      "v": 79
    },
    {
      "midi": 40,
      "hit": false,
      "t": 157715,
      "d": 60,
      "v": 89
    },
    {
      "midi": 67,
      "hit": false,
      "t": 157885,
      "d": 45,
      "v": 75
    },
    {
      "midi": 79,
      "hit": false,
      "t": 157890,
      "d": 45,
      "v": 75
    },
    {
      "midi": 81,
      "hit": false,
      "t": 158060,
      "d": 65,
      "v": 86
    },
    {
      "midi": 51,
      "hit": false,
      "t": 158065,
      "d": 75,
      "v": 71
    },
    {
      "midi": 69,
      "hit": false,
      "t": 158070,
      "d": 35,
      "v": 69
    },
    {
      "midi": 39,
      "hit": false,
      "t": 158075,
      "d": 60,
      "v": 69
    },
    {
      "midi": 82,
      "hit": false,
      "t": 158215,
      "d": 85,
      "v": 77
    },
    {
      "midi": 70,
      "hit": false,
      "t": 158225,
      "d": 75,
      "v": 70
    },
    {
      "midi": 79,
      "hit": false,
      "t": 158400,
      "d": 85,
      "v": 71
    },
    {
      "midi": 38,
      "hit": false,
      "t": 158420,
      "d": 60,
      "v": 77
    },
    {
      "midi": 71,
      "hit": false,
      "t": 158425,
      "d": 60,
      "v": 78
    },
    {
      "midi": 50,
      "hit": false,
      "t": 158430,
      "d": 60,
      "v": 75
    },
    {
      "midi": 83,
      "hit": false,
      "t": 158430,
      "d": 65,
      "v": 89
    },
    {
      "midi": 72,
      "hit": false,
      "t": 158610,
      "d": 35,
      "v": 79
    },
    {
      "midi": 84,
      "hit": false,
      "t": 158615,
      "d": 30,
      "v": 83
    },
    {
      "midi": 86,
      "hit": false,
      "t": 158805,
      "d": 35,
      "v": 72
    },
    {
      "midi": 74,
      "hit": false,
      "t": 158815,
      "d": 35,
      "v": 69
    },
    {
      "midi": 79,
      "hit": false,
      "t": 158975,
      "d": 180,
      "v": 57
    },
    {
      "midi": 73,
      "hit": false,
      "t": 158985,
      "d": 150,
      "v": 63
    },
    {
      "midi": 83,
      "hit": false,
      "t": 158990,
      "d": 250,
      "v": 78
    },
    {
      "midi": 40,
      "hit": false,
      "t": 159015,
      "d": 85,
      "v": 79
    },
    {
      "midi": 52,
      "hit": false,
      "t": 159020,
      "d": 80,
      "v": 86
    },
    {
      "midi": 79,
      "hit": false,
      "t": 159365,
      "d": 120,
      "v": 57
    },
    {
      "midi": 81,
      "hit": false,
      "t": 159535,
      "d": 95,
      "v": 79
    },
    {
      "midi": 78,
      "hit": false,
      "t": 159545,
      "d": 55,
      "v": 75
    },
    {
      "midi": 72,
      "hit": false,
      "t": 159545,
      "d": 70,
      "v": 83
    },
    {
      "midi": 38,
      "hit": false,
      "t": 159550,
      "d": 60,
      "v": 79
    },
    {
      "midi": 50,
      "hit": false,
      "t": 159555,
      "d": 60,
      "v": 79
    },
    {
      "midi": 79,
      "hit": false,
      "t": 159955,
      "d": 90,
      "v": 79
    },
    {
      "midi": 74,
      "hit": false,
      "t": 159960,
      "d": 95,
      "v": 74
    },
    {
      "midi": 71,
      "hit": false,
      "t": 159965,
      "d": 105,
      "v": 77
    },
    {
      "midi": 55,
      "hit": false,
      "t": 159975,
      "d": 80,
      "v": 74
    },
    {
      "midi": 43,
      "hit": false,
      "t": 159975,
      "d": 85,
      "v": 74
    },
    {
      "midi": 67,
      "hit": false,
      "t": 160385,
      "d": 215,
      "v": 83
    },
    {
      "midi": 53,
      "hit": false,
      "t": 160405,
      "d": 85,
      "v": 69
    },
    {
      "midi": 41,
      "hit": false,
      "t": 160410,
      "d": 75,
      "v": 73
    },
    {
      "midi": 69,
      "hit": false,
      "t": 160560,
      "d": 250,
      "v": 62
    },
    {
      "midi": 71,
      "hit": false,
      "t": 160805,
      "d": 170,
      "v": 75
    },
    {
      "midi": 40,
      "hit": false,
      "t": 160835,
      "d": 95,
      "v": 77
    },
    {
      "midi": 52,
      "hit": false,
      "t": 160835,
      "d": 95,
      "v": 77
    },
    {
      "midi": 72,
      "hit": false,
      "t": 161020,
      "d": 210,
      "v": 78
    },
    {
      "midi": 74,
      "hit": false,
      "t": 161265,
      "d": 215,
      "v": 78
    },
    {
      "midi": 50,
      "hit": false,
      "t": 161280,
      "d": 70,
      "v": 66
    },
    {
      "midi": 38,
      "hit": false,
      "t": 161280,
      "d": 85,
      "v": 69
    },
    {
      "midi": 75,
      "hit": false,
      "t": 161500,
      "d": 320,
      "v": 75
    },
    {
      "midi": 76,
      "hit": false,
      "t": 161810,
      "d": 270,
      "v": 77
    },
    {
      "midi": 67,
      "hit": false,
      "t": 161825,
      "d": 400,
      "v": 73
    },
    {
      "midi": 24,
      "hit": false,
      "t": 161830,
      "d": 65,
      "v": 92
    },
    {
      "midi": 75,
      "hit": false,
      "t": 162110,
      "d": 275,
      "v": 66
    },
    {
      "midi": 76,
      "hit": false,
      "t": 162350,
      "d": 440,
      "v": 78
    },
    {
      "midi": 64,
      "hit": false,
      "t": 162355,
      "d": 40,
      "v": 74
    },
    {
      "midi": 55,
      "hit": false,
      "t": 162355,
      "d": 70,
      "v": 77
    },
    {
      "midi": 60,
      "hit": false,
      "t": 162360,
      "d": 55,
      "v": 74
    },
    {
      "midi": 67,
      "hit": false,
      "t": 162600,
      "d": 255,
      "v": 71
    },
    {
      "midi": 69,
      "hit": false,
      "t": 162890,
      "d": 240,
      "v": 95
    },
    {
      "midi": 29,
      "hit": false,
      "t": 162895,
      "d": 60,
      "v": 79
    },
    {
      "midi": 41,
      "hit": false,
      "t": 162895,
      "d": 85,
      "v": 83
    },
    {
      "midi": 72,
      "hit": false,
      "t": 163140,
      "d": 340,
      "v": 95
    },
    {
      "midi": 65,
      "hit": false,
      "t": 163350,
      "d": 55,
      "v": 83
    },
    {
      "midi": 56,
      "hit": false,
      "t": 163350,
      "d": 70,
      "v": 79
    },
    {
      "midi": 60,
      "hit": false,
      "t": 163355,
      "d": 60,
      "v": 74
    },
    {
      "midi": 68,
      "hit": false,
      "t": 163545,
      "d": 95,
      "v": 86
    },
    {
      "midi": 74,
      "hit": false,
      "t": 163545,
      "d": 180,
      "v": 70
    },
    {
      "midi": 72,
      "hit": false,
      "t": 163875,
      "d": 125,
      "v": 92
    },
    {
      "midi": 76,
      "hit": false,
      "t": 163875,
      "d": 155,
      "v": 86
    },
    {
      "midi": 36,
      "hit": false,
      "t": 163880,
      "d": 85,
      "v": 89
    },
    {
      "midi": 67,
      "hit": false,
      "t": 163880,
      "d": 100,
      "v": 83
    },
    {
      "midi": 55,
      "hit": false,
      "t": 164350,
      "d": 80,
      "v": 73
    },
    {
      "midi": 76,
      "hit": false,
      "t": 164350,
      "d": 125,
      "v": 77
    },
    {
      "midi": 64,
      "hit": false,
      "t": 164355,
      "d": 40,
      "v": 70
    },
    {
      "midi": 81,
      "hit": false,
      "t": 164355,
      "d": 105,
      "v": 83
    },
    {
      "midi": 72,
      "hit": false,
      "t": 164360,
      "d": 120,
      "v": 77
    },
    {
      "midi": 60,
      "hit": false,
      "t": 164365,
      "d": 40,
      "v": 67
    },
    {
      "midi": 69,
      "hit": false,
      "t": 164370,
      "d": 75,
      "v": 75
    },
    {
      "midi": 76,
      "hit": false,
      "t": 164585,
      "d": 345,
      "v": 77
    },
    {
      "midi": 72,
      "hit": false,
      "t": 164590,
      "d": 275,
      "v": 86
    },
    {
      "midi": 67,
      "hit": false,
      "t": 164595,
      "d": 340,
      "v": 83
    },
    {
      "midi": 79,
      "hit": false,
      "t": 164595,
      "d": 445,
      "v": 92
    },
    {
      "midi": 31,
      "hit": false,
      "t": 164825,
      "d": 60,
      "v": 77
    },
    {
      "midi": 72,
      "hit": false,
      "t": 165005,
      "d": 155,
      "v": 99
    },
    {
      "midi": 55,
      "hit": false,
      "t": 165220,
      "d": 70,
      "v": 75
    },
    {
      "midi": 76,
      "hit": false,
      "t": 165220,
      "d": 250,
      "v": 77
    },
    {
      "midi": 64,
      "hit": false,
      "t": 165225,
      "d": 35,
      "v": 71
    },
    {
      "midi": 60,
      "hit": false,
      "t": 165230,
      "d": 40,
      "v": 70
    },
    {
      "midi": 75,
      "hit": false,
      "t": 165625,
      "d": 175,
      "v": 75
    },
    {
      "midi": 28,
      "hit": false,
      "t": 165655,
      "d": 60,
      "v": 92
    },
    {
      "midi": 40,
      "hit": false,
      "t": 165670,
      "d": 75,
      "v": 74
    },
    {
      "midi": 76,
      "hit": false,
      "t": 165835,
      "d": 165,
      "v": 67
    },
    {
      "midi": 80,
      "hit": false,
      "t": 166030,
      "d": 245,
      "v": 70
    },
    {
      "midi": 62,
      "hit": false,
      "t": 166050,
      "d": 75,
      "v": 71
    },
    {
      "midi": 64,
      "hit": false,
      "t": 166060,
      "d": 50,
      "v": 75
    },
    {
      "midi": 56,
      "hit": false,
      "t": 166080,
      "d": 50,
      "v": 60
    },
    {
      "midi": 84,
      "hit": false,
      "t": 166245,
      "d": 245,
      "v": 89
    },
    {
      "midi": 74,
      "hit": false,
      "t": 166255,
      "d": 345,
      "v": 78
    },
    {
      "midi": 35,
      "hit": false,
      "t": 166460,
      "d": 35,
      "v": 55
    },
    {
      "midi": 47,
      "hit": false,
      "t": 166465,
      "d": 45,
      "v": 51
    },
    {
      "midi": 76,
      "hit": false,
      "t": 166600,
      "d": 160,
      "v": 61
    },
    {
      "midi": 83,
      "hit": false,
      "t": 166780,
      "d": 235,
      "v": 86
    },
    {
      "midi": 74,
      "hit": false,
      "t": 166795,
      "d": 195,
      "v": 67
    },
    {
      "midi": 64,
      "hit": false,
      "t": 166810,
      "d": 50,
      "v": 71
    },
    {
      "midi": 62,
      "hit": false,
      "t": 166815,
      "d": 40,
      "v": 63
    },
    {
      "midi": 56,
      "hit": false,
      "t": 166820,
      "d": 60,
      "v": 69
    },
    {
      "midi": 76,
      "hit": false,
      "t": 166995,
      "d": 175,
      "v": 71
    },
    {
      "midi": 81,
      "hit": false,
      "t": 167165,
      "d": 240,
      "v": 83
    },
    {
      "midi": 72,
      "hit": false,
      "t": 167175,
      "d": 170,
      "v": 79
    },
    {
      "midi": 33,
      "hit": false,
      "t": 167180,
      "d": 35,
      "v": 52
    },
    {
      "midi": 45,
      "hit": false,
      "t": 167190,
      "d": 30,
      "v": 62
    },
    {
      "midi": 76,
      "hit": false,
      "t": 167355,
      "d": 125,
      "v": 66
    },
    {
      "midi": 57,
      "hit": false,
      "t": 167525,
      "d": 65,
      "v": 67
    },
    {
      "midi": 71,
      "hit": false,
      "t": 167535,
      "d": 60,
      "v": 71
    },
    {
      "midi": 83,
      "hit": false,
      "t": 167535,
      "d": 60,
      "v": 92
    },
    {
      "midi": 48,
      "hit": false,
      "t": 167540,
      "d": 55,
      "v": 73
    },
    {
      "midi": 52,
      "hit": false,
      "t": 167545,
      "d": 35,
      "v": 67
    },
    {
      "midi": 84,
      "hit": false,
      "t": 167720,
      "d": 250,
      "v": 83
    },
    {
      "midi": 76,
      "hit": false,
      "t": 167730,
      "d": 260,
      "v": 69
    },
    {
      "midi": 72,
      "hit": false,
      "t": 167745,
      "d": 275,
      "v": 65
    },
    {
      "midi": 40,
      "hit": false,
      "t": 167915,
      "d": 65,
      "v": 75
    },
    {
      "midi": 52,
      "hit": false,
      "t": 167920,
      "d": 70,
      "v": 71
    },
    {
      "midi": 81,
      "hit": false,
      "t": 168090,
      "d": 95,
      "v": 77
    },
    {
      "midi": 76,
      "hit": false,
      "t": 168255,
      "d": 100,
      "v": 75
    },
    {
      "midi": 57,
      "hit": false,
      "t": 168265,
      "d": 70,
      "v": 62
    },
    {
      "midi": 52,
      "hit": false,
      "t": 168275,
      "d": 60,
      "v": 69
    },
    {
      "midi": 48,
      "hit": false,
      "t": 168275,
      "d": 65,
      "v": 74
    },
    {
      "midi": 72,
      "hit": false,
      "t": 168430,
      "d": 105,
      "v": 75
    },
    {
      "midi": 42,
      "hit": false,
      "t": 168630,
      "d": 305,
      "v": 77
    },
    {
      "midi": 84,
      "hit": false,
      "t": 168630,
      "d": 580,
      "v": 77
    },
    {
      "midi": 81,
      "hit": false,
      "t": 168800,
      "d": 445,
      "v": 77
    },
    {
      "midi": 45,
      "hit": false,
      "t": 168810,
      "d": 200,
      "v": 59
    },
    {
      "midi": 78,
      "hit": false,
      "t": 168980,
      "d": 150,
      "v": 76
    },
    {
      "midi": 48,
      "hit": false,
      "t": 168990,
      "d": 145,
      "v": 61
    },
    {
      "midi": 75,
      "hit": false,
      "t": 169145,
      "d": 260,
      "v": 79
    },
    {
      "midi": 51,
      "hit": false,
      "t": 169155,
      "d": 70,
      "v": 79
    },
    {
      "midi": 54,
      "hit": false,
      "t": 169320,
      "d": 175,
      "v": 69
    },
    {
      "midi": 72,
      "hit": false,
      "t": 169325,
      "d": 165,
      "v": 79
    },
    {
      "midi": 69,
      "hit": false,
      "t": 169490,
      "d": 210,
      "v": 75
    },
    {
      "midi": 57,
      "hit": false,
      "t": 169495,
      "d": 300,
      "v": 79
    },
    {
      "midi": 56,
      "hit": false,
      "t": 169870,
      "d": 65,
      "v": 77
    },
    {
      "midi": 68,
      "hit": false,
      "t": 169875,
      "d": 140,
      "v": 92
    },
    {
      "midi": 67,
      "hit": false,
      "t": 170055,
      "d": 360,
      "v": 95
    },
    {
      "midi": 43,
      "hit": false,
      "t": 170090,
      "d": 55,
      "v": 67
    },
    {
      "midi": 55,
      "hit": false,
      "t": 170095,
      "d": 90,
      "v": 60
    },
    {
      "midi": 69,
      "hit": false,
      "t": 170445,
      "d": 140,
      "v": 89
    },
    {
      "midi": 64,
      "hit": false,
      "t": 170465,
      "d": 75,
      "v": 65
    },
    {
      "midi": 60,
      "hit": false,
      "t": 170475,
      "d": 80,
      "v": 67
    },
    {
      "midi": 57,
      "hit": false,
      "t": 170475,
      "d": 90,
      "v": 70
    },
    {
      "midi": 72,
      "hit": false,
      "t": 170635,
      "d": 315,
      "v": 92
    },
    {
      "midi": 45,
      "hit": false,
      "t": 170825,
      "d": 70,
      "v": 73
    },
    {
      "midi": 57,
      "hit": false,
      "t": 170835,
      "d": 90,
      "v": 57
    },
    {
      "midi": 74,
      "hit": false,
      "t": 171030,
      "d": 200,
      "v": 65
    },
    {
      "midi": 76,
      "hit": false,
      "t": 171200,
      "d": 115,
      "v": 79
    },
    {
      "midi": 60,
      "hit": false,
      "t": 171205,
      "d": 40,
      "v": 66
    },
    {
      "midi": 57,
      "hit": false,
      "t": 171205,
      "d": 65,
      "v": 59
    },
    {
      "midi": 64,
      "hit": false,
      "t": 171210,
      "d": 45,
      "v": 52
    },
    {
      "midi": 69,
      "hit": false,
      "t": 171385,
      "d": 590,
      "v": 78
    },
    {
      "midi": 66,
      "hit": false,
      "t": 171395,
      "d": 585,
      "v": 95
    },
    {
      "midi": 26,
      "hit": false,
      "t": 171600,
      "d": 55,
      "v": 77
    },
    {
      "midi": 60,
      "hit": false,
      "t": 172020,
      "d": 70,
      "v": 65
    },
    {
      "midi": 54,
      "hit": false,
      "t": 172025,
      "d": 80,
      "v": 62
    },
    {
      "midi": 50,
      "hit": false,
      "t": 172035,
      "d": 75,
      "v": 65
    },
    {
      "midi": 76,
      "hit": false,
      "t": 172215,
      "d": 455,
      "v": 89
    },
    {
      "midi": 67,
      "hit": false,
      "t": 172215,
      "d": 600,
      "v": 78
    },
    {
      "midi": 65,
      "hit": false,
      "t": 172220,
      "d": 585,
      "v": 78
    },
    {
      "midi": 43,
      "hit": false,
      "t": 172430,
      "d": 65,
      "v": 71
    },
    {
      "midi": 55,
      "hit": false,
      "t": 172880,
      "d": 70,
      "v": 67
    },
    {
      "midi": 59,
      "hit": false,
      "t": 172885,
      "d": 45,
      "v": 70
    },
    {
      "midi": 53,
      "hit": false,
      "t": 172885,
      "d": 55,
      "v": 65
    },
    {
      "midi": 72,
      "hit": false,
      "t": 173115,
      "d": 2085,
      "v": 89
    },
    {
      "midi": 67,
      "hit": false,
      "t": 173120,
      "d": 2040,
      "v": 78
    },
    {
      "midi": 64,
      "hit": false,
      "t": 173120,
      "d": 2045,
      "v": 79
    },
    {
      "midi": 36,
      "hit": false,
      "t": 173365,
      "d": 80,
      "v": 79
    },
    {
      "midi": 39,
      "hit": false,
      "t": 173855,
      "d": 40,
      "v": 86
    },
    {
      "midi": 51,
      "hit": false,
      "t": 173855,
      "d": 50,
      "v": 78
    },
    {
      "midi": 52,
      "hit": false,
      "t": 174120,
      "d": 45,
      "v": 73
    },
    {
      "midi": 40,
      "hit": false,
      "t": 174125,
      "d": 35,
      "v": 71
    },
    {
      "midi": 55,
      "hit": false,
      "t": 174395,
      "d": 50,
      "v": 73
    },
    {
      "midi": 43,
      "hit": false,
      "t": 174410,
      "d": 45,
      "v": 67
    },
    {
      "midi": 60,
      "hit": false,
      "t": 174660,
      "d": 65,
      "v": 77
    },
    {
      "midi": 48,
      "hit": false,
      "t": 174670,
      "d": 60,
      "v": 73
    },
    {
      "midi": 59,
      "hit": false,
      "t": 174925,
      "d": 65,
      "v": 79
    },
    {
      "midi": 47,
      "hit": false,
      "t": 174930,
      "d": 60,
      "v": 89
    },
    {
      "midi": 45,
      "hit": false,
      "t": 175190,
      "d": 75,
      "v": 78
    },
    {
      "midi": 57,
      "hit": false,
      "t": 175195,
      "d": 65,
      "v": 74
    },
    {
      "midi": 67,
      "hit": false,
      "t": 175495,
      "d": 235,
      "v": 95
    },
    {
      "midi": 55,
      "hit": false,
      "t": 175500,
      "d": 75,
      "v": 74
    },
    {
      "midi": 43,
      "hit": false,
      "t": 175505,
      "d": 70,
      "v": 74
    },
    {
      "midi": 71,
      "hit": false,
      "t": 175705,
      "d": 185,
      "v": 61
    },
    {
      "midi": 74,
      "hit": false,
      "t": 175955,
      "d": 150,
      "v": 65
    },
    {
      "midi": 41,
      "hit": false,
      "t": 175970,
      "d": 55,
      "v": 89
    },
    {
      "midi": 53,
      "hit": false,
      "t": 175970,
      "d": 60,
      "v": 78
    },
    {
      "midi": 79,
      "hit": false,
      "t": 176180,
      "d": 305,
      "v": 79
    },
    {
      "midi": 71,
      "hit": false,
      "t": 176185,
      "d": 270,
      "v": 67
    },
    {
      "midi": 67,
      "hit": false,
      "t": 176195,
      "d": 230,
      "v": 67
    },
    {
      "midi": 40,
      "hit": false,
      "t": 176415,
      "d": 60,
      "v": 83
    },
    {
      "midi": 52,
      "hit": false,
      "t": 176415,
      "d": 65,
      "v": 79
    },
    {
      "midi": 81,
      "hit": false,
      "t": 176620,
      "d": 95,
      "v": 79
    },
    {
      "midi": 38,
      "hit": false,
      "t": 176830,
      "d": 65,
      "v": 77
    },
    {
      "midi": 50,
      "hit": false,
      "t": 176835,
      "d": 65,
      "v": 75
    },
    {
      "midi": 79,
      "hit": false,
      "t": 176840,
      "d": 95,
      "v": 75
    },
    {
      "midi": 77,
      "hit": false,
      "t": 177040,
      "d": 115,
      "v": 70
    },
    {
      "midi": 76,
      "hit": false,
      "t": 177250,
      "d": 115,
      "v": 77
    },
    {
      "midi": 36,
      "hit": false,
      "t": 177270,
      "d": 30,
      "v": 77
    },
    {
      "midi": 48,
      "hit": false,
      "t": 177270,
      "d": 60,
      "v": 75
    },
    {
      "midi": 72,
      "hit": false,
      "t": 177465,
      "d": 90,
      "v": 60
    },
    {
      "midi": 79,
      "hit": false,
      "t": 177690,
      "d": 95,
      "v": 77
    },
    {
      "midi": 60,
      "hit": false,
      "t": 177695,
      "d": 50,
      "v": 73
    },
    {
      "midi": 55,
      "hit": false,
      "t": 177695,
      "d": 65,
      "v": 70
    },
    {
      "midi": 64,
      "hit": false,
      "t": 177700,
      "d": 35,
      "v": 70
    },
    {
      "midi": 84,
      "hit": false,
      "t": 177920,
      "d": 325,
      "v": 99
    },
    {
      "midi": 76,
      "hit": false,
      "t": 177920,
      "d": 370,
      "v": 86
    },
    {
      "midi": 72,
      "hit": false,
      "t": 177925,
      "d": 535,
      "v": 86
    },
    {
      "midi": 40,
      "hit": false,
      "t": 178180,
      "d": 55,
      "v": 71
    },
    {
      "midi": 52,
      "hit": false,
      "t": 178180,
      "d": 75,
      "v": 70
    },
    {
      "midi": 55,
      "hit": false,
      "t": 178665,
      "d": 85,
      "v": 71
    },
    {
      "midi": 64,
      "hit": false,
      "t": 178670,
      "d": 35,
      "v": 71
    },
    {
      "midi": 60,
      "hit": false,
      "t": 178670,
      "d": 50,
      "v": 71
    },
    {
      "midi": 70,
      "hit": false,
      "t": 178885,
      "d": 295,
      "v": 95
    },
    {
      "midi": 31,
      "hit": false,
      "t": 179175,
      "d": 65,
      "v": 66
    },
    {
      "midi": 71,
      "hit": false,
      "t": 179175,
      "d": 750,
      "v": 86
    },
    {
      "midi": 79,
      "hit": false,
      "t": 179430,
      "d": 325,
      "v": 79
    },
    {
      "midi": 65,
      "hit": false,
      "t": 179660,
      "d": 45,
      "v": 65
    },
    {
      "midi": 62,
      "hit": false,
      "t": 179665,
      "d": 45,
      "v": 56
    },
    {
      "midi": 59,
      "hit": false,
      "t": 179665,
      "d": 50,
      "v": 66
    },
    {
      "midi": 55,
      "hit": false,
      "t": 179665,
      "d": 75,
      "v": 55
    },
    {
      "midi": 70,
      "hit": false,
      "t": 179870,
      "d": 235,
      "v": 74
    },
    {
      "midi": 38,
      "hit": false,
      "t": 180090,
      "d": 70,
      "v": 73
    },
    {
      "midi": 50,
      "hit": false,
      "t": 180095,
      "d": 70,
      "v": 71
    },
    {
      "midi": 71,
      "hit": false,
      "t": 180095,
      "d": 180,
      "v": 83
    },
    {
      "midi": 79,
      "hit": false,
      "t": 180280,
      "d": 205,
      "v": 95
    },
    {
      "midi": 51,
      "hit": false,
      "t": 180480,
      "d": 65,
      "v": 92
    },
    {
      "midi": 39,
      "hit": false,
      "t": 180485,
      "d": 60,
      "v": 92
    },
    {
      "midi": 71,
      "hit": false,
      "t": 180675,
      "d": 75,
      "v": 89
    },
    {
      "midi": 40,
      "hit": false,
      "t": 180870,
      "d": 45,
      "v": 75
    },
    {
      "midi": 72,
      "hit": false,
      "t": 180870,
      "d": 105,
      "v": 99
    },
    {
      "midi": 52,
      "hit": false,
      "t": 180875,
      "d": 70,
      "v": 73
    },
    {
      "midi": 74,
      "hit": false,
      "t": 181050,
      "d": 105,
      "v": 74
    },
    {
      "midi": 75,
      "hit": false,
      "t": 181235,
      "d": 85,
      "v": 75
    },
    {
      "midi": 64,
      "hit": false,
      "t": 181255,
      "d": 40,
      "v": 66
    },
    {
      "midi": 55,
      "hit": false,
      "t": 181255,
      "d": 70,
      "v": 69
    },
    {
      "midi": 60,
      "hit": false,
      "t": 181260,
      "d": 40,
      "v": 66
    },
    {
      "midi": 76,
      "hit": false,
      "t": 181405,
      "d": 820,
      "v": 86
    },
    {
      "midi": 43,
      "hit": false,
      "t": 181635,
      "d": 60,
      "v": 66
    },
    {
      "midi": 55,
      "hit": false,
      "t": 181645,
      "d": 60,
      "v": 57
    },
    {
      "midi": 60,
      "hit": false,
      "t": 181890,
      "d": 45,
      "v": 83
    },
    {
      "midi": 48,
      "hit": false,
      "t": 181895,
      "d": 45,
      "v": 86
    },
    {
      "midi": 59,
      "hit": false,
      "t": 182105,
      "d": 35,
      "v": 79
    },
    {
      "midi": 47,
      "hit": false,
      "t": 182105,
      "d": 50,
      "v": 95
    },
    {
      "midi": 57,
      "hit": false,
      "t": 182280,
      "d": 60,
      "v": 83
    },
    {
      "midi": 45,
      "hit": false,
      "t": 182285,
      "d": 60,
      "v": 86
    },
    {
      "midi": 67,
      "hit": false,
      "t": 182470,
      "d": 115,
      "v": 92
    },
    {
      "midi": 55,
      "hit": false,
      "t": 182480,
      "d": 60,
      "v": 83
    },
    {
      "midi": 43,
      "hit": false,
      "t": 182485,
      "d": 60,
      "v": 92
    },
    {
      "midi": 71,
      "hit": false,
      "t": 182660,
      "d": 95,
      "v": 63
    },
    {
      "midi": 74,
      "hit": false,
      "t": 182845,
      "d": 110,
      "v": 62
    },
    {
      "midi": 53,
      "hit": false,
      "t": 182860,
      "d": 65,
      "v": 75
    },
    {
      "midi": 41,
      "hit": false,
      "t": 182865,
      "d": 60,
      "v": 86
    },
    {
      "midi": 79,
      "hit": false,
      "t": 183035,
      "d": 235,
      "v": 92
    },
    {
      "midi": 71,
      "hit": false,
      "t": 183040,
      "d": 185,
      "v": 77
    },
    {
      "midi": 67,
      "hit": false,
      "t": 183045,
      "d": 155,
      "v": 74
    },
    {
      "midi": 40,
      "hit": false,
      "t": 183235,
      "d": 65,
      "v": 83
    },
    {
      "midi": 52,
      "hit": false,
      "t": 183235,
      "d": 65,
      "v": 79
    },
    {
      "midi": 81,
      "hit": false,
      "t": 183405,
      "d": 90,
      "v": 79
    },
    {
      "midi": 79,
      "hit": false,
      "t": 183590,
      "d": 85,
      "v": 73
    },
    {
      "midi": 38,
      "hit": false,
      "t": 183605,
      "d": 60,
      "v": 78
    },
    {
      "midi": 50,
      "hit": false,
      "t": 183605,
      "d": 65,
      "v": 75
    },
    {
      "midi": 77,
      "hit": false,
      "t": 183760,
      "d": 110,
      "v": 61
    },
    {
      "midi": 76,
      "hit": false,
      "t": 183950,
      "d": 110,
      "v": 70
    },
    {
      "midi": 36,
      "hit": false,
      "t": 183970,
      "d": 30,
      "v": 77
    },
    {
      "midi": 48,
      "hit": false,
      "t": 183975,
      "d": 60,
      "v": 82
    },
    {
      "midi": 72,
      "hit": false,
      "t": 184135,
      "d": 80,
      "v": 65
    },
    {
      "midi": 64,
      "hit": false,
      "t": 184320,
      "d": 35,
      "v": 70
    },
    {
      "midi": 55,
      "hit": false,
      "t": 184325,
      "d": 70,
      "v": 73
    },
    {
      "midi": 79,
      "hit": false,
      "t": 184325,
      "d": 85,
      "v": 74
    },
    {
      "midi": 60,
      "hit": false,
      "t": 184330,
      "d": 40,
      "v": 71
    },
    {
      "midi": 84,
      "hit": false,
      "t": 184510,
      "d": 250,
      "v": 99
    },
    {
      "midi": 72,
      "hit": false,
      "t": 184520,
      "d": 230,
      "v": 89
    },
    {
      "midi": 76,
      "hit": false,
      "t": 184520,
      "d": 235,
      "v": 95
    },
    {
      "midi": 33,
      "hit": false,
      "t": 184695,
      "d": 55,
      "v": 71
    },
    {
      "midi": 45,
      "hit": false,
      "t": 184710,
      "d": 55,
      "v": 60
    },
    {
      "midi": 81,
      "hit": false,
      "t": 184890,
      "d": 100,
      "v": 83
    },
    {
      "midi": 76,
      "hit": false,
      "t": 185060,
      "d": 125,
      "v": 71
    },
    {
      "midi": 60,
      "hit": false,
      "t": 185075,
      "d": 40,
      "v": 71
    },
    {
      "midi": 57,
      "hit": false,
      "t": 185075,
      "d": 65,
      "v": 73
    },
    {
      "midi": 64,
      "hit": false,
      "t": 185085,
      "d": 35,
      "v": 47
    },
    {
      "midi": 72,
      "hit": false,
      "t": 185230,
      "d": 100,
      "v": 69
    },
    {
      "midi": 35,
      "hit": false,
      "t": 185440,
      "d": 35,
      "v": 77
    },
    {
      "midi": 71,
      "hit": false,
      "t": 185445,
      "d": 105,
      "v": 86
    },
    {
      "midi": 47,
      "hit": false,
      "t": 185450,
      "d": 50,
      "v": 55
    },
    {
      "midi": 76,
      "hit": false,
      "t": 185610,
      "d": 115,
      "v": 75
    },
    {
      "midi": 79,
      "hit": false,
      "t": 185780,
      "d": 105,
      "v": 74
    },
    {
      "midi": 59,
      "hit": false,
      "t": 185800,
      "d": 45,
      "v": 71
    },
    {
      "midi": 55,
      "hit": false,
      "t": 185800,
      "d": 70,
      "v": 60
    },
    {
      "midi": 64,
      "hit": false,
      "t": 185810,
      "d": 35,
      "v": 56
    },
    {
      "midi": 75,
      "hit": false,
      "t": 185960,
      "d": 300,
      "v": 89
    },
    {
      "midi": 78,
      "hit": false,
      "t": 185965,
      "d": 310,
      "v": 92
    },
    {
      "midi": 71,
      "hit": false,
      "t": 185970,
      "d": 225,
      "v": 79
    },
    {
      "midi": 35,
      "hit": false,
      "t": 186155,
      "d": 35,
      "v": 75
    },
    {
      "midi": 47,
      "hit": false,
      "t": 186165,
      "d": 45,
      "v": 65
    },
    {
      "midi": 71,
      "hit": false,
      "t": 186350,
      "d": 100,
      "v": 69
    },
    {
      "midi": 75,
      "hit": false,
      "t": 186535,
      "d": 115,
      "v": 86
    },
    {
      "midi": 63,
      "hit": false,
      "t": 186540,
      "d": 35,
      "v": 70
    },
    {
      "midi": 78,
      "hit": false,
      "t": 186540,
      "d": 120,
      "v": 89
    },
    {
      "midi": 57,
      "hit": false,
      "t": 186545,
      "d": 45,
      "v": 67
    },
    {
      "midi": 83,
      "hit": false,
      "t": 186545,
      "d": 125,
      "v": 95
    },
    {
      "midi": 71,
      "hit": false,
      "t": 186550,
      "d": 65,
      "v": 83
    },
    {
      "midi": 59,
      "hit": false,
      "t": 186555,
      "d": 25,
      "v": 67
    },
    {
      "midi": 71,
      "hit": false,
      "t": 186795,
      "d": 395,
      "v": 73
    },
    {
      "midi": 76,
      "hit": false,
      "t": 186825,
      "d": 200,
      "v": 73
    },
    {
      "midi": 79,
      "hit": false,
      "t": 186895,
      "d": 125,
      "v": 79
    },
    {
      "midi": 40,
      "hit": false,
      "t": 186940,
      "d": 65,
      "v": 77
    },
    {
      "midi": 83,
      "hit": false,
      "t": 186945,
      "d": 255,
      "v": 99
    },
    {
      "midi": 52,
      "hit": false,
      "t": 186955,
      "d": 50,
      "v": 55
    },
    {
      "midi": 79,
      "hit": false,
      "t": 187340,
      "d": 145,
      "v": 83
    },
    {
      "midi": 64,
      "hit": false,
      "t": 187345,
      "d": 65,
      "v": 77
    },
    {
      "midi": 55,
      "hit": false,
      "t": 187355,
      "d": 65,
      "v": 77
    },
    {
      "midi": 59,
      "hit": false,
      "t": 187355,
      "d": 65,
      "v": 77
    },
    {
      "midi": 71,
      "hit": false,
      "t": 187525,
      "d": 105,
      "v": 70
    },
    {
      "midi": 37,
      "hit": false,
      "t": 187755,
      "d": 40,
      "v": 99
    },
    {
      "midi": 49,
      "hit": false,
      "t": 187755,
      "d": 40,
      "v": 92
    },
    {
      "midi": 76,
      "hit": false,
      "t": 187760,
      "d": 230,
      "v": 75
    },
    {
      "midi": 73,
      "hit": false,
      "t": 187935,
      "d": 205,
      "v": 77
    },
    {
      "midi": 70,
      "hit": false,
      "t": 188145,
      "d": 110,
      "v": 86
    },
    {
      "midi": 52,
      "hit": false,
      "t": 188150,
      "d": 50,
      "v": 83
    },
    {
      "midi": 40,
      "hit": false,
      "t": 188150,
      "d": 55,
      "v": 86
    },
    {
      "midi": 67,
      "hit": false,
      "t": 188320,
      "d": 105,
      "v": 75
    },
    {
      "midi": 67,
      "hit": false,
      "t": 188535,
      "d": 150,
      "v": 95
    },
    {
      "midi": 38,
      "hit": false,
      "t": 188540,
      "d": 45,
      "v": 83
    },
    {
      "midi": 50,
      "hit": false,
      "t": 188545,
      "d": 35,
      "v": 75
    },
    {
      "midi": 71,
      "hit": false,
      "t": 188710,
      "d": 120,
      "v": 67
    },
    {
      "midi": 74,
      "hit": false,
      "t": 188905,
      "d": 105,
      "v": 69
    },
    {
      "midi": 41,
      "hit": false,
      "t": 188935,
      "d": 45,
      "v": 92
    },
    {
      "midi": 53,
      "hit": false,
      "t": 188935,
      "d": 45,
      "v": 86
    },
    {
      "midi": 79,
      "hit": false,
      "t": 189100,
      "d": 260,
      "v": 92
    },
    {
      "midi": 71,
      "hit": false,
      "t": 189105,
      "d": 215,
      "v": 83
    },
    {
      "midi": 67,
      "hit": false,
      "t": 189115,
      "d": 150,
      "v": 73
    },
    {
      "midi": 40,
      "hit": false,
      "t": 189330,
      "d": 65,
      "v": 86
    },
    {
      "midi": 52,
      "hit": false,
      "t": 189335,
      "d": 40,
      "v": 86
    },
    {
      "midi": 81,
      "hit": false,
      "t": 189480,
      "d": 85,
      "v": 83
    },
    {
      "midi": 79,
      "hit": false,
      "t": 189715,
      "d": 75,
      "v": 71
    },
    {
      "midi": 50,
      "hit": false,
      "t": 189725,
      "d": 55,
      "v": 79
    },
    {
      "midi": 38,
      "hit": false,
      "t": 189730,
      "d": 55,
      "v": 86
    },
    {
      "midi": 77,
      "hit": false,
      "t": 189900,
      "d": 80,
      "v": 70
    },
    {
      "midi": 76,
      "hit": false,
      "t": 190085,
      "d": 85,
      "v": 74
    },
    {
      "midi": 48,
      "hit": false,
      "t": 190130,
      "d": 65,
      "v": 82
    },
    {
      "midi": 36,
      "hit": false,
      "t": 190135,
      "d": 25,
      "v": 74
    },
    {
      "midi": 72,
      "hit": false,
      "t": 190285,
      "d": 75,
      "v": 66
    },
    {
      "midi": 79,
      "hit": false,
      "t": 190495,
      "d": 90,
      "v": 86
    },
    {
      "midi": 64,
      "hit": false,
      "t": 190505,
      "d": 35,
      "v": 69
    },
    {
      "midi": 60,
      "hit": false,
      "t": 190505,
      "d": 40,
      "v": 70
    },
    {
      "midi": 55,
      "hit": false,
      "t": 190510,
      "d": 60,
      "v": 70
    },
    {
      "midi": 84,
      "hit": false,
      "t": 190695,
      "d": 335,
      "v": 108
    },
    {
      "midi": 76,
      "hit": false,
      "t": 190700,
      "d": 365,
      "v": 99
    },
    {
      "midi": 72,
      "hit": false,
      "t": 190705,
      "d": 480,
      "v": 95
    },
    {
      "midi": 40,
      "hit": false,
      "t": 190955,
      "d": 45,
      "v": 71
    },
    {
      "midi": 52,
      "hit": false,
      "t": 190955,
      "d": 80,
      "v": 67
    },
    {
      "midi": 55,
      "hit": false,
      "t": 191405,
      "d": 75,
      "v": 75
    },
    {
      "midi": 64,
      "hit": false,
      "t": 191410,
      "d": 40,
      "v": 74
    },
    {
      "midi": 60,
      "hit": false,
      "t": 191415,
      "d": 45,
      "v": 73
    },
    {
      "midi": 70,
      "hit": false,
      "t": 191605,
      "d": 255,
      "v": 79
    },
    {
      "midi": 71,
      "hit": false,
      "t": 191860,
      "d": 260,
      "v": 89
    },
    {
      "midi": 31,
      "hit": false,
      "t": 191865,
      "d": 60,
      "v": 78
    },
    {
      "midi": 79,
      "hit": false,
      "t": 192070,
      "d": 370,
      "v": 89
    },
    {
      "midi": 65,
      "hit": false,
      "t": 192275,
      "d": 40,
      "v": 69
    },
    {
      "midi": 59,
      "hit": false,
      "t": 192280,
      "d": 60,
      "v": 69
    },
    {
      "midi": 62,
      "hit": false,
      "t": 192285,
      "d": 40,
      "v": 57
    },
    {
      "midi": 55,
      "hit": false,
      "t": 192290,
      "d": 65,
      "v": 63
    },
    {
      "midi": 70,
      "hit": false,
      "t": 192480,
      "d": 130,
      "v": 75
    },
    {
      "midi": 71,
      "hit": false,
      "t": 192660,
      "d": 195,
      "v": 86
    },
    {
      "midi": 50,
      "hit": false,
      "t": 192670,
      "d": 55,
      "v": 73
    },
    {
      "midi": 38,
      "hit": false,
      "t": 192675,
      "d": 50,
      "v": 69
    },
    {
      "midi": 79,
      "hit": false,
      "t": 192840,
      "d": 210,
      "v": 86
    },
    {
      "midi": 51,
      "hit": false,
      "t": 193035,
      "d": 65,
      "v": 86
    },
    {
      "midi": 39,
      "hit": false,
      "t": 193050,
      "d": 45,
      "v": 69
    },
    {
      "midi": 71,
      "hit": false,
      "t": 193230,
      "d": 65,
      "v": 78
    },
    {
      "midi": 72,
      "hit": false,
      "t": 193405,
      "d": 180,
      "v": 78
    },
    {
      "midi": 40,
      "hit": false,
      "t": 193410,
      "d": 55,
      "v": 77
    },
    {
      "midi": 52,
      "hit": false,
      "t": 193415,
      "d": 65,
      "v": 75
    },
    {
      "midi": 71,
      "hit": false,
      "t": 193615,
      "d": 100,
      "v": 66
    },
    {
      "midi": 69,
      "hit": false,
      "t": 193785,
      "d": 125,
      "v": 73
    },
    {
      "midi": 64,
      "hit": false,
      "t": 193795,
      "d": 45,
      "v": 56
    },
    {
      "midi": 55,
      "hit": false,
      "t": 193800,
      "d": 45,
      "v": 54
    },
    {
      "midi": 60,
      "hit": false,
      "t": 193800,
      "d": 45,
      "v": 60
    },
    {
      "midi": 67,
      "hit": false,
      "t": 193960,
      "d": 740,
      "v": 74
    },
    {
      "midi": 48,
      "hit": false,
      "t": 194175,
      "d": 75,
      "v": 79
    },
    {
      "midi": 64,
      "hit": false,
      "t": 194585,
      "d": 65,
      "v": 61
    },
    {
      "midi": 55,
      "hit": false,
      "t": 194590,
      "d": 75,
      "v": 62
    },
    {
      "midi": 60,
      "hit": false,
      "t": 194595,
      "d": 55,
      "v": 62
    },
    {
      "midi": 68,
      "hit": false,
      "t": 194770,
      "d": 85,
      "v": 71
    },
    {
      "midi": 69,
      "hit": false,
      "t": 194970,
      "d": 470,
      "v": 78
    },
    {
      "midi": 53,
      "hit": false,
      "t": 194985,
      "d": 365,
      "v": 63
    },
    {
      "midi": 60,
      "hit": false,
      "t": 194985,
      "d": 1295,
      "v": 63
    },
    {
      "midi": 81,
      "hit": false,
      "t": 195160,
      "d": 270,
      "v": 74
    },
    {
      "midi": 51,
      "hit": false,
      "t": 195340,
      "d": 405,
      "v": 66
    },
    {
      "midi": 77,
      "hit": false,
      "t": 195360,
      "d": 200,
      "v": 69
    },
    {
      "midi": 72,
      "hit": false,
      "t": 195535,
      "d": 155,
      "v": 67
    },
    {
      "midi": 67,
      "hit": false,
      "t": 195725,
      "d": 425,
      "v": 55
    },
    {
      "midi": 52,
      "hit": false,
      "t": 195775,
      "d": 415,
      "v": 67
    },
    {
      "midi": 79,
      "hit": false,
      "t": 195950,
      "d": 240,
      "v": 73
    },
    {
      "midi": 76,
      "hit": false,
      "t": 195960,
      "d": 280,
      "v": 56
    },
    {
      "midi": 72,
      "hit": false,
      "t": 195970,
      "d": 275,
      "v": 57
    },
    {
      "midi": 48,
      "hit": false,
      "t": 196185,
      "d": 85,
      "v": 66
    },
    {
      "midi": 68,
      "hit": false,
      "t": 196365,
      "d": 105,
      "v": 86
    },
    {
      "midi": 53,
      "hit": false,
      "t": 196555,
      "d": 400,
      "v": 71
    },
    {
      "midi": 60,
      "hit": false,
      "t": 196560,
      "d": 1170,
      "v": 71
    },
    {
      "midi": 69,
      "hit": false,
      "t": 196575,
      "d": 470,
      "v": 86
    },
    {
      "midi": 81,
      "hit": false,
      "t": 196750,
      "d": 265,
      "v": 78
    },
    {
      "midi": 77,
      "hit": false,
      "t": 196930,
      "d": 225,
      "v": 69
    },
    {
      "midi": 51,
      "hit": false,
      "t": 196940,
      "d": 350,
      "v": 67
    },
    {
      "midi": 72,
      "hit": false,
      "t": 197115,
      "d": 180,
      "v": 71
    },
    {
      "midi": 67,
      "hit": false,
      "t": 197315,
      "d": 325,
      "v": 78
    },
    {
      "midi": 52,
      "hit": false,
      "t": 197320,
      "d": 420,
      "v": 71
    },
    {
      "midi": 79,
      "hit": false,
      "t": 197530,
      "d": 215,
      "v": 78
    },
    {
      "midi": 76,
      "hit": false,
      "t": 197530,
      "d": 250,
      "v": 73
    },
    {
      "midi": 72,
      "hit": false,
      "t": 197535,
      "d": 270,
      "v": 74
    },
    {
      "midi": 48,
      "hit": false,
      "t": 197725,
      "d": 45,
      "v": 75
    },
    {
      "midi": 67,
      "hit": false,
      "t": 197935,
      "d": 90,
      "v": 66
    },
    {
      "midi": 69,
      "hit": false,
      "t": 198110,
      "d": 390,
      "v": 78
    },
    {
      "midi": 66,
      "hit": false,
      "t": 198115,
      "d": 390,
      "v": 79
    },
    {
      "midi": 38,
      "hit": false,
      "t": 198135,
      "d": 80,
      "v": 77
    },
    {
      "midi": 60,
      "hit": false,
      "t": 198530,
      "d": 60,
      "v": 75
    },
    {
      "midi": 54,
      "hit": false,
      "t": 198530,
      "d": 75,
      "v": 79
    },
    {
      "midi": 43,
      "hit": false,
      "t": 198960,
      "d": 95,
      "v": 77
    },
    {
      "midi": 76,
      "hit": false,
      "t": 198965,
      "d": 380,
      "v": 89
    },
    {
      "midi": 67,
      "hit": false,
      "t": 198970,
      "d": 470,
      "v": 86
    },
    {
      "midi": 65,
      "hit": false,
      "t": 198975,
      "d": 420,
      "v": 86
    },
    {
      "midi": 55,
      "hit": false,
      "t": 199420,
      "d": 90,
      "v": 71
    },
    {
      "midi": 59,
      "hit": false,
      "t": 199425,
      "d": 85,
      "v": 74
    },
    {
      "midi": 67,
      "hit": false,
      "t": 199955,
      "d": 2075,
      "v": 89
    },
    {
      "midi": 72,
      "hit": false,
      "t": 199955,
      "d": 2110,
      "v": 95
    },
    {
      "midi": 64,
      "hit": false,
      "t": 199960,
      "d": 2050,
      "v": 89
    },
    {
      "midi": 60,
      "hit": false,
      "t": 199965,
      "d": 100,
      "v": 78
    },
    {
      "midi": 55,
      "hit": false,
      "t": 199975,
      "d": 145,
      "v": 75
    },
    {
      "midi": 48,
      "hit": false,
      "t": 199975,
      "d": 150,
      "v": 79
    },
    {
      "midi": 39,
      "hit": false,
      "t": 200495,
      "d": 55,
      "v": 95
    },
    {
      "midi": 51,
      "hit": false,
      "t": 200500,
      "d": 55,
      "v": 92
    },
    {
      "midi": 52,
      "hit": false,
      "t": 200785,
      "d": 50,
      "v": 83
    },
    {
      "midi": 40,
      "hit": false,
      "t": 200785,
      "d": 60,
      "v": 89
    },
    {
      "midi": 43,
      "hit": false,
      "t": 201090,
      "d": 60,
      "v": 86
    },
    {
      "midi": 55,
      "hit": false,
      "t": 201095,
      "d": 60,
      "v": 78
    },
    {
      "midi": 60,
      "hit": false,
      "t": 201415,
      "d": 65,
      "v": 79
    },
    {
      "midi": 48,
      "hit": false,
      "t": 201420,
      "d": 60,
      "v": 86
    },
    {
      "midi": 59,
      "hit": false,
      "t": 201740,
      "d": 65,
      "v": 86
    },
    {
      "midi": 47,
      "hit": false,
      "t": 201740,
      "d": 70,
      "v": 86
    },
    {
      "midi": 45,
      "hit": false,
      "t": 202075,
      "d": 70,
      "v": 99
    },
    {
      "midi": 57,
      "hit": false,
      "t": 202075,
      "d": 70,
      "v": 99
    },
    {
      "midi": 43,
      "hit": false,
      "t": 202435,
      "d": 70,
      "v": 92
    },
    {
      "midi": 67,
      "hit": false,
      "t": 202435,
      "d": 160,
      "v": 99
    },
    {
      "midi": 55,
      "hit": false,
      "t": 202440,
      "d": 60,
      "v": 95
    },
    {
      "midi": 71,
      "hit": false,
      "t": 202735,
      "d": 105,
      "v": 77
    },
    {
      "midi": 41,
      "hit": false,
      "t": 202955,
      "d": 65,
      "v": 92
    },
    {
      "midi": 53,
      "hit": false,
      "t": 202960,
      "d": 65,
      "v": 86
    },
    {
      "midi": 74,
      "hit": false,
      "t": 202965,
      "d": 165,
      "v": 66
    },
    {
      "midi": 71,
      "hit": false,
      "t": 203205,
      "d": 270,
      "v": 79
    },
    {
      "midi": 79,
      "hit": false,
      "t": 203205,
      "d": 325,
      "v": 95
    },
    {
      "midi": 67,
      "hit": false,
      "t": 203215,
      "d": 210,
      "v": 83
    },
    {
      "midi": 40,
      "hit": false,
      "t": 203470,
      "d": 60,
      "v": 95
    },
    {
      "midi": 52,
      "hit": false,
      "t": 203470,
      "d": 65,
      "v": 95
    },
    {
      "midi": 81,
      "hit": false,
      "t": 203695,
      "d": 120,
      "v": 74
    },
    {
      "midi": 50,
      "hit": false,
      "t": 203925,
      "d": 65,
      "v": 78
    },
    {
      "midi": 38,
      "hit": false,
      "t": 203925,
      "d": 70,
      "v": 83
    },
    {
      "midi": 79,
      "hit": false,
      "t": 203930,
      "d": 100,
      "v": 70
    },
    {
      "midi": 77,
      "hit": false,
      "t": 204125,
      "d": 215,
      "v": 79
    },
    {
      "midi": 76,
      "hit": false,
      "t": 204370,
      "d": 170,
      "v": 89
    },
    {
      "midi": 36,
      "hit": false,
      "t": 204380,
      "d": 55,
      "v": 78
    },
    {
      "midi": 48,
      "hit": false,
      "t": 204385,
      "d": 60,
      "v": 82
    },
    {
      "midi": 72,
      "hit": false,
      "t": 204595,
      "d": 120,
      "v": 63
    },
    {
      "midi": 64,
      "hit": false,
      "t": 204805,
      "d": 40,
      "v": 71
    },
    {
      "midi": 60,
      "hit": false,
      "t": 204810,
      "d": 40,
      "v": 70
    },
    {
      "midi": 55,
      "hit": false,
      "t": 204810,
      "d": 65,
      "v": 73
    },
    {
      "midi": 79,
      "hit": false,
      "t": 204820,
      "d": 115,
      "v": 92
    },
    {
      "midi": 84,
      "hit": false,
      "t": 205020,
      "d": 295,
      "v": 102
    },
    {
      "midi": 76,
      "hit": false,
      "t": 205025,
      "d": 325,
      "v": 99
    },
    {
      "midi": 72,
      "hit": false,
      "t": 205025,
      "d": 365,
      "v": 102
    },
    {
      "midi": 40,
      "hit": false,
      "t": 205255,
      "d": 55,
      "v": 75
    },
    {
      "midi": 52,
      "hit": false,
      "t": 205260,
      "d": 65,
      "v": 74
    },
    {
      "midi": 64,
      "hit": false,
      "t": 205710,
      "d": 60,
      "v": 77
    },
    {
      "midi": 55,
      "hit": false,
      "t": 205710,
      "d": 80,
      "v": 77
    },
    {
      "midi": 60,
      "hit": false,
      "t": 205720,
      "d": 50,
      "v": 77
    },
    {
      "midi": 70,
      "hit": false,
      "t": 205950,
      "d": 320,
      "v": 99
    },
    {
      "midi": 71,
      "hit": false,
      "t": 206270,
      "d": 790,
      "v": 95
    },
    {
      "midi": 31,
      "hit": false,
      "t": 206275,
      "d": 70,
      "v": 78
    },
    {
      "midi": 79,
      "hit": false,
      "t": 206545,
      "d": 400,
      "v": 79
    },
    {
      "midi": 65,
      "hit": false,
      "t": 206765,
      "d": 55,
      "v": 73
    },
    {
      "midi": 55,
      "hit": false,
      "t": 206765,
      "d": 80,
      "v": 67
    },
    {
      "midi": 59,
      "hit": false,
      "t": 206770,
      "d": 65,
      "v": 75
    },
    {
      "midi": 62,
      "hit": false,
      "t": 206780,
      "d": 40,
      "v": 61
    },
    {
      "midi": 70,
      "hit": false,
      "t": 206995,
      "d": 260,
      "v": 79
    },
    {
      "midi": 38,
      "hit": false,
      "t": 207205,
      "d": 85,
      "v": 77
    },
    {
      "midi": 50,
      "hit": false,
      "t": 207210,
      "d": 70,
      "v": 74
    },
    {
      "midi": 71,
      "hit": false,
      "t": 207215,
      "d": 190,
      "v": 83
    },
    {
      "midi": 79,
      "hit": false,
      "t": 207405,
      "d": 230,
      "v": 89
    },
    {
      "midi": 39,
      "hit": false,
      "t": 207605,
      "d": 80,
      "v": 86
    },
    {
      "midi": 51,
      "hit": false,
      "t": 207610,
      "d": 75,
      "v": 89
    },
    {
      "midi": 71,
      "hit": false,
      "t": 207820,
      "d": 85,
      "v": 86
    },
    {
      "midi": 72,
      "hit": false,
      "t": 208025,
      "d": 170,
      "v": 102
    },
    {
      "midi": 40,
      "hit": false,
      "t": 208030,
      "d": 60,
      "v": 77
    },
    {
      "midi": 52,
      "hit": false,
      "t": 208035,
      "d": 75,
      "v": 79
    },
    {
      "midi": 74,
      "hit": false,
      "t": 208235,
      "d": 190,
      "v": 66
    },
    {
      "midi": 55,
      "hit": false,
      "t": 208435,
      "d": 70,
      "v": 71
    },
    {
      "midi": 75,
      "hit": false,
      "t": 208435,
      "d": 115,
      "v": 69
    },
    {
      "midi": 64,
      "hit": false,
      "t": 208440,
      "d": 40,
      "v": 71
    },
    {
      "midi": 60,
      "hit": false,
      "t": 208440,
      "d": 55,
      "v": 70
    },
    {
      "midi": 76,
      "hit": false,
      "t": 208625,
      "d": 800,
      "v": 83
    },
    {
      "midi": 43,
      "hit": false,
      "t": 208850,
      "d": 65,
      "v": 75
    },
    {
      "midi": 55,
      "hit": false,
      "t": 208855,
      "d": 65,
      "v": 78
    },
    {
      "midi": 60,
      "hit": false,
      "t": 209105,
      "d": 55,
      "v": 86
    },
    {
      "midi": 48,
      "hit": false,
      "t": 209115,
      "d": 50,
      "v": 83
    },
    {
      "midi": 59,
      "hit": false,
      "t": 209315,
      "d": 40,
      "v": 79
    },
    {
      "midi": 47,
      "hit": false,
      "t": 209320,
      "d": 45,
      "v": 95
    },
    {
      "midi": 57,
      "hit": false,
      "t": 209480,
      "d": 60,
      "v": 83
    },
    {
      "midi": 45,
      "hit": false,
      "t": 209485,
      "d": 65,
      "v": 89
    },
    {
      "midi": 67,
      "hit": false,
      "t": 209695,
      "d": 120,
      "v": 92
    },
    {
      "midi": 55,
      "hit": false,
      "t": 209700,
      "d": 65,
      "v": 89
    },
    {
      "midi": 43,
      "hit": false,
      "t": 209705,
      "d": 60,
      "v": 95
    },
    {
      "midi": 71,
      "hit": false,
      "t": 209875,
      "d": 105,
      "v": 71
    },
    {
      "midi": 74,
      "hit": false,
      "t": 210070,
      "d": 150,
      "v": 65
    },
    {
      "midi": 53,
      "hit": false,
      "t": 210085,
      "d": 70,
      "v": 83
    },
    {
      "midi": 41,
      "hit": false,
      "t": 210090,
      "d": 60,
      "v": 89
    },
    {
      "midi": 71,
      "hit": false,
      "t": 210270,
      "d": 190,
      "v": 78
    },
    {
      "midi": 79,
      "hit": false,
      "t": 210270,
      "d": 230,
      "v": 95
    },
    {
      "midi": 67,
      "hit": false,
      "t": 210280,
      "d": 150,
      "v": 75
    },
    {
      "midi": 40,
      "hit": false,
      "t": 210460,
      "d": 70,
      "v": 89
    },
    {
      "midi": 52,
      "hit": false,
      "t": 210465,
      "d": 65,
      "v": 92
    },
    {
      "midi": 81,
      "hit": false,
      "t": 210630,
      "d": 100,
      "v": 83
    },
    {
      "midi": 50,
      "hit": false,
      "t": 210825,
      "d": 70,
      "v": 79
    },
    {
      "midi": 79,
      "hit": false,
      "t": 210825,
      "d": 100,
      "v": 75
    },
    {
      "midi": 38,
      "hit": false,
      "t": 210830,
      "d": 65,
      "v": 86
    },
    {
      "midi": 77,
      "hit": false,
      "t": 211000,
      "d": 115,
      "v": 61
    },
    {
      "midi": 76,
      "hit": false,
      "t": 211190,
      "d": 115,
      "v": 75
    },
    {
      "midi": 36,
      "hit": false,
      "t": 211205,
      "d": 35,
      "v": 75
    },
    {
      "midi": 48,
      "hit": false,
      "t": 211205,
      "d": 60,
      "v": 95
    },
    {
      "midi": 72,
      "hit": false,
      "t": 211385,
      "d": 95,
      "v": 69
    },
    {
      "midi": 55,
      "hit": false,
      "t": 211555,
      "d": 75,
      "v": 71
    },
    {
      "midi": 64,
      "hit": false,
      "t": 211560,
      "d": 40,
      "v": 70
    },
    {
      "midi": 60,
      "hit": false,
      "t": 211565,
      "d": 45,
      "v": 71
    },
    {
      "midi": 79,
      "hit": false,
      "t": 211565,
      "d": 80,
      "v": 75
    },
    {
      "midi": 76,
      "hit": false,
      "t": 211745,
      "d": 250,
      "v": 99
    },
    {
      "midi": 84,
      "hit": false,
      "t": 211745,
      "d": 255,
      "v": 102
    },
    {
      "midi": 72,
      "hit": false,
      "t": 211750,
      "d": 245,
      "v": 102
    },
    {
      "midi": 33,
      "hit": false,
      "t": 211940,
      "d": 45,
      "v": 73
    },
    {
      "midi": 45,
      "hit": false,
      "t": 211945,
      "d": 65,
      "v": 71
    },
    {
      "midi": 81,
      "hit": false,
      "t": 212135,
      "d": 125,
      "v": 89
    },
    {
      "midi": 57,
      "hit": false,
      "t": 212310,
      "d": 65,
      "v": 73
    },
    {
      "midi": 64,
      "hit": false,
      "t": 212315,
      "d": 35,
      "v": 73
    },
    {
      "midi": 60,
      "hit": false,
      "t": 212315,
      "d": 50,
      "v": 71
    },
    {
      "midi": 76,
      "hit": false,
      "t": 212320,
      "d": 145,
      "v": 71
    },
    {
      "midi": 72,
      "hit": false,
      "t": 212490,
      "d": 100,
      "v": 71
    },
    {
      "midi": 71,
      "hit": false,
      "t": 212700,
      "d": 140,
      "v": 92
    },
    {
      "midi": 35,
      "hit": false,
      "t": 212705,
      "d": 55,
      "v": 83
    },
    {
      "midi": 47,
      "hit": false,
      "t": 212710,
      "d": 60,
      "v": 79
    },
    {
      "midi": 76,
      "hit": false,
      "t": 212870,
      "d": 140,
      "v": 79
    },
    {
      "midi": 55,
      "hit": false,
      "t": 213055,
      "d": 80,
      "v": 66
    },
    {
      "midi": 79,
      "hit": false,
      "t": 213055,
      "d": 120,
      "v": 79
    },
    {
      "midi": 64,
      "hit": false,
      "t": 213060,
      "d": 40,
      "v": 70
    },
    {
      "midi": 59,
      "hit": false,
      "t": 213070,
      "d": 50,
      "v": 77
    },
    {
      "midi": 71,
      "hit": false,
      "t": 213240,
      "d": 245,
      "v": 89
    },
    {
      "midi": 75,
      "hit": false,
      "t": 213240,
      "d": 325,
      "v": 95
    },
    {
      "midi": 78,
      "hit": false,
      "t": 213245,
      "d": 335,
      "v": 99
    },
    {
      "midi": 35,
      "hit": false,
      "t": 213440,
      "d": 55,
      "v": 74
    },
    {
      "midi": 47,
      "hit": false,
      "t": 213470,
      "d": 35,
      "v": 45
    },
    {
      "midi": 71,
      "hit": false,
      "t": 213645,
      "d": 125,
      "v": 74
    },
    {
      "midi": 63,
      "hit": false,
      "t": 213860,
      "d": 75,
      "v": 70
    },
    {
      "midi": 78,
      "hit": false,
      "t": 213865,
      "d": 170,
      "v": 89
    },
    {
      "midi": 83,
      "hit": false,
      "t": 213865,
      "d": 180,
      "v": 102
    },
    {
      "midi": 75,
      "hit": false,
      "t": 213870,
      "d": 155,
      "v": 79
    },
    {
      "midi": 57,
      "hit": false,
      "t": 213875,
      "d": 70,
      "v": 66
    },
    {
      "midi": 71,
      "hit": false,
      "t": 213875,
      "d": 110,
      "v": 79
    },
    {
      "midi": 59,
      "hit": false,
      "t": 213880,
      "d": 60,
      "v": 60
    },
    {
      "midi": 71,
      "hit": false,
      "t": 214175,
      "d": 330,
      "v": 67
    },
    {
      "midi": 76,
      "hit": false,
      "t": 214200,
      "d": 220,
      "v": 74
    },
    {
      "midi": 79,
      "hit": false,
      "t": 214240,
      "d": 175,
      "v": 78
    },
    {
      "midi": 83,
      "hit": false,
      "t": 214270,
      "d": 190,
      "v": 95
    },
    {
      "midi": 40,
      "hit": false,
      "t": 214275,
      "d": 75,
      "v": 78
    },
    {
      "midi": 52,
      "hit": false,
      "t": 214280,
      "d": 85,
      "v": 77
    },
    {
      "midi": 79,
      "hit": false,
      "t": 214640,
      "d": 225,
      "v": 79
    },
    {
      "midi": 52,
      "hit": false,
      "t": 214665,
      "d": 65,
      "v": 83
    },
    {
      "midi": 55,
      "hit": false,
      "t": 214670,
      "d": 50,
      "v": 70
    },
    {
      "midi": 71,
      "hit": false,
      "t": 214850,
      "d": 155,
      "v": 70
    },
    {
      "midi": 37,
      "hit": false,
      "t": 215090,
      "d": 55,
      "v": 79
    },
    {
      "midi": 49,
      "hit": false,
      "t": 215095,
      "d": 50,
      "v": 85
    },
    {
      "midi": 76,
      "hit": false,
      "t": 215095,
      "d": 90,
      "v": 83
    },
    {
      "midi": 73,
      "hit": false,
      "t": 215320,
      "d": 100,
      "v": 78
    },
    {
      "midi": 52,
      "hit": false,
      "t": 215520,
      "d": 195,
      "v": 83
    },
    {
      "midi": 40,
      "hit": false,
      "t": 215520,
      "d": 215,
      "v": 78
    },
    {
      "midi": 70,
      "hit": false,
      "t": 215525,
      "d": 195,
      "v": 92
    },
    {
      "midi": 67,
      "hit": false,
      "t": 215740,
      "d": 110,
      "v": 86
    },
    {
      "midi": 67,
      "hit": false,
      "t": 215960,
      "d": 190,
      "v": 99
    },
    {
      "midi": 38,
      "hit": false,
      "t": 215965,
      "d": 60,
      "v": 89
    },
    {
      "midi": 50,
      "hit": false,
      "t": 215970,
      "d": 60,
      "v": 78
    },
    {
      "midi": 71,
      "hit": false,
      "t": 216155,
      "d": 125,
      "v": 71
    },
    {
      "midi": 74,
      "hit": false,
      "t": 216350,
      "d": 125,
      "v": 74
    },
    {
      "midi": 41,
      "hit": false,
      "t": 216360,
      "d": 70,
      "v": 95
    },
    {
      "midi": 53,
      "hit": false,
      "t": 216360,
      "d": 70,
      "v": 86
    },
    {
      "midi": 79,
      "hit": false,
      "t": 216540,
      "d": 265,
      "v": 102
    },
    {
      "midi": 71,
      "hit": false,
      "t": 216545,
      "d": 225,
      "v": 83
    },
    {
      "midi": 67,
      "hit": false,
      "t": 216550,
      "d": 180,
      "v": 86
    },
    {
      "midi": 52,
      "hit": false,
      "t": 216760,
      "d": 65,
      "v": 89
    },
    {
      "midi": 40,
      "hit": false,
      "t": 216760,
      "d": 80,
      "v": 86
    },
    {
      "midi": 81,
      "hit": false,
      "t": 216925,
      "d": 90,
      "v": 89
    },
    {
      "midi": 79,
      "hit": false,
      "t": 217125,
      "d": 85,
      "v": 79
    },
    {
      "midi": 38,
      "hit": false,
      "t": 217130,
      "d": 75,
      "v": 83
    },
    {
      "midi": 50,
      "hit": false,
      "t": 217135,
      "d": 65,
      "v": 83
    },
    {
      "midi": 77,
      "hit": false,
      "t": 217295,
      "d": 115,
      "v": 79
    },
    {
      "midi": 76,
      "hit": false,
      "t": 217510,
      "d": 130,
      "v": 86
    },
    {
      "midi": 48,
      "hit": false,
      "t": 217515,
      "d": 65,
      "v": 89
    },
    {
      "midi": 36,
      "hit": false,
      "t": 217520,
      "d": 55,
      "v": 86
    },
    {
      "midi": 72,
      "hit": false,
      "t": 217700,
      "d": 115,
      "v": 77
    },
    {
      "midi": 64,
      "hit": false,
      "t": 217910,
      "d": 55,
      "v": 73
    },
    {
      "midi": 55,
      "hit": false,
      "t": 217910,
      "d": 80,
      "v": 73
    },
    {
      "midi": 60,
      "hit": false,
      "t": 217915,
      "d": 60,
      "v": 71
    },
    {
      "midi": 79,
      "hit": false,
      "t": 217915,
      "d": 120,
      "v": 86
    },
    {
      "midi": 84,
      "hit": false,
      "t": 218120,
      "d": 415,
      "v": 105
    },
    {
      "midi": 76,
      "hit": false,
      "t": 218125,
      "d": 445,
      "v": 102
    },
    {
      "midi": 72,
      "hit": false,
      "t": 218125,
      "d": 505,
      "v": 105
    },
    {
      "midi": 40,
      "hit": false,
      "t": 218415,
      "d": 80,
      "v": 86
    },
    {
      "midi": 52,
      "hit": false,
      "t": 218415,
      "d": 105,
      "v": 86
    },
    {
      "midi": 64,
      "hit": false,
      "t": 218880,
      "d": 65,
      "v": 78
    },
    {
      "midi": 60,
      "hit": false,
      "t": 218885,
      "d": 65,
      "v": 77
    },
    {
      "midi": 55,
      "hit": false,
      "t": 218885,
      "d": 90,
      "v": 77
    },
    {
      "midi": 70,
      "hit": false,
      "t": 219100,
      "d": 350,
      "v": 95
    },
    {
      "midi": 71,
      "hit": false,
      "t": 219420,
      "d": 570,
      "v": 99
    },
    {
      "midi": 31,
      "hit": false,
      "t": 219430,
      "d": 80,
      "v": 83
    },
    {
      "midi": 79,
      "hit": false,
      "t": 219705,
      "d": 350,
      "v": 89
    },
    {
      "midi": 55,
      "hit": false,
      "t": 219905,
      "d": 105,
      "v": 71
    },
    {
      "midi": 65,
      "hit": false,
      "t": 219915,
      "d": 65,
      "v": 77
    },
    {
      "midi": 59,
      "hit": false,
      "t": 219915,
      "d": 70,
      "v": 74
    },
    {
      "midi": 62,
      "hit": false,
      "t": 219920,
      "d": 65,
      "v": 66
    },
    {
      "midi": 70,
      "hit": false,
      "t": 220110,
      "d": 230,
      "v": 77
    },
    {
      "midi": 38,
      "hit": false,
      "t": 220305,
      "d": 65,
      "v": 83
    },
    {
      "midi": 71,
      "hit": false,
      "t": 220305,
      "d": 165,
      "v": 89
    },
    {
      "midi": 50,
      "hit": false,
      "t": 220310,
      "d": 65,
      "v": 75
    },
    {
      "midi": 79,
      "hit": false,
      "t": 220485,
      "d": 285,
      "v": 78
    },
    {
      "midi": 51,
      "hit": false,
      "t": 220695,
      "d": 80,
      "v": 79
    },
    {
      "midi": 39,
      "hit": false,
      "t": 220700,
      "d": 80,
      "v": 78
    },
    {
      "midi": 71,
      "hit": false,
      "t": 220890,
      "d": 90,
      "v": 78
    },
    {
      "midi": 72,
      "hit": false,
      "t": 221100,
      "d": 270,
      "v": 83
    },
    {
      "midi": 40,
      "hit": false,
      "t": 221115,
      "d": 80,
      "v": 83
    },
    {
      "midi": 52,
      "hit": false,
      "t": 221120,
      "d": 95,
      "v": 86
    },
    {
      "midi": 71,
      "hit": false,
      "t": 221335,
      "d": 210,
      "v": 71
    },
    {
      "midi": 69,
      "hit": false,
      "t": 221535,
      "d": 195,
      "v": 77
    },
    {
      "midi": 64,
      "hit": false,
      "t": 221555,
      "d": 110,
      "v": 61
    },
    {
      "midi": 60,
      "hit": false,
      "t": 221555,
      "d": 120,
      "v": 62
    },
    {
      "midi": 55,
      "hit": false,
      "t": 221560,
      "d": 105,
      "v": 60
    },
    {
      "midi": 67,
      "hit": false,
      "t": 221745,
      "d": 675,
      "v": 79
    },
    {
      "midi": 48,
      "hit": false,
      "t": 221985,
      "d": 95,
      "v": 86
    },
    {
      "midi": 64,
      "hit": false,
      "t": 222445,
      "d": 70,
      "v": 65
    },
    {
      "midi": 55,
      "hit": false,
      "t": 222450,
      "d": 90,
      "v": 62
    },
    {
      "midi": 60,
      "hit": false,
      "t": 222455,
      "d": 75,
      "v": 65
    },
    {
      "midi": 68,
      "hit": false,
      "t": 222655,
      "d": 210,
      "v": 70
    },
    {
      "midi": 69,
      "hit": false,
      "t": 222880,
      "d": 565,
      "v": 77
    },
    {
      "midi": 60,
      "hit": false,
      "t": 222885,
      "d": 1450,
      "v": 63
    },
    {
      "midi": 53,
      "hit": false,
      "t": 222890,
      "d": 430,
      "v": 67
    },
    {
      "midi": 81,
      "hit": false,
      "t": 223110,
      "d": 290,
      "v": 71
    },
    {
      "midi": 51,
      "hit": false,
      "t": 223330,
      "d": 420,
      "v": 62
    },
    {
      "midi": 77,
      "hit": false,
      "t": 223335,
      "d": 220,
      "v": 57
    },
    {
      "midi": 72,
      "hit": false,
      "t": 223520,
      "d": 195,
      "v": 57
    },
    {
      "midi": 67,
      "hit": false,
      "t": 223725,
      "d": 550,
      "v": 51
    },
    {
      "midi": 52,
      "hit": false,
      "t": 223775,
      "d": 480,
      "v": 61
    },
    {
      "midi": 79,
      "hit": false,
      "t": 223955,
      "d": 295,
      "v": 67
    },
    {
      "midi": 76,
      "hit": false,
      "t": 223965,
      "d": 295,
      "v": 56
    },
    {
      "midi": 72,
      "hit": false,
      "t": 223980,
      "d": 290,
      "v": 57
    },
    {
      "midi": 48,
      "hit": false,
      "t": 224240,
      "d": 110,
      "v": 69
    },
    {
      "midi": 68,
      "hit": false,
      "t": 224460,
      "d": 80,
      "v": 92
    },
    {
      "midi": 53,
      "hit": false,
      "t": 224720,
      "d": 460,
      "v": 57
    },
    {
      "midi": 60,
      "hit": false,
      "t": 224720,
      "d": 1415,
      "v": 55
    },
    {
      "midi": 69,
      "hit": false,
      "t": 224725,
      "d": 575,
      "v": 74
    },
    {
      "midi": 81,
      "hit": false,
      "t": 224945,
      "d": 325,
      "v": 71
    },
    {
      "midi": 51,
      "hit": false,
      "t": 225175,
      "d": 395,
      "v": 56
    },
    {
      "midi": 77,
      "hit": false,
      "t": 225180,
      "d": 255,
      "v": 61
    },
    {
      "midi": 72,
      "hit": false,
      "t": 225395,
      "d": 225,
      "v": 65
    },
    {
      "midi": 67,
      "hit": false,
      "t": 225645,
      "d": 465,
      "v": 70
    },
    {
      "midi": 52,
      "hit": false,
      "t": 225665,
      "d": 505,
      "v": 63
    },
    {
      "midi": 76,
      "hit": false,
      "t": 225885,
      "d": 335,
      "v": 61
    },
    {
      "midi": 79,
      "hit": false,
      "t": 225895,
      "d": 270,
      "v": 71
    },
    {
      "midi": 72,
      "hit": false,
      "t": 225895,
      "d": 400,
      "v": 61
    },
    {
      "midi": 48,
      "hit": false,
      "t": 226165,
      "d": 35,
      "v": 59
    },
    {
      "midi": 67,
      "hit": false,
      "t": 226440,
      "d": 95,
      "v": 61
    },
    {
      "midi": 66,
      "hit": false,
      "t": 226740,
      "d": 605,
      "v": 77
    },
    {
      "midi": 69,
      "hit": false,
      "t": 226745,
      "d": 595,
      "v": 73
    },
    {
      "midi": 26,
      "hit": false,
      "t": 226770,
      "d": 85,
      "v": 65
    },
    {
      "midi": 60,
      "hit": false,
      "t": 227380,
      "d": 45,
      "v": 70
    },
    {
      "midi": 54,
      "hit": false,
      "t": 227380,
      "d": 60,
      "v": 71
    },
    {
      "midi": 76,
      "hit": false,
      "t": 228090,
      "d": 885,
      "v": 73
    },
    {
      "midi": 67,
      "hit": false,
      "t": 228095,
      "d": 925,
      "v": 65
    },
    {
      "midi": 31,
      "hit": false,
      "t": 228105,
      "d": 85,
      "v": 61
    },
    {
      "midi": 65,
      "hit": false,
      "t": 228105,
      "d": 905,
      "v": 67
    },
    {
      "midi": 55,
      "hit": false,
      "t": 228805,
      "d": 60,
      "v": 63
    },
    {
      "midi": 59,
      "hit": false,
      "t": 228810,
      "d": 65,
      "v": 65
    },
    {
      "midi": 72,
      "hit": false,
      "t": 229645,
      "d": 1240,
      "v": 67
    },
    {
      "midi": 67,
      "hit": false,
      "t": 229650,
      "d": 1215,
      "v": 62
    },
    {
      "midi": 64,
      "hit": false,
      "t": 229655,
      "d": 1195,
      "v": 66
    },
    {
      "midi": 60,
      "hit": false,
      "t": 229665,
      "d": 110,
      "v": 61
    },
    {
      "midi": 48,
      "hit": false,
      "t": 229675,
      "d": 135,
      "v": 57
    },
    {
      "midi": 55,
      "hit": false,
      "t": 229675,
      "d": 145,
      "v": 57
    },
    {
      "midi": 42,
      "hit": false,
      "t": 230475,
      "d": 105,
      "v": 51
    },
    {
      "midi": 43,
      "hit": false,
      "t": 230565,
      "d": 320,
      "v": 79
    },
    {
      "midi": 76,
      "hit": false,
      "t": 231755,
      "d": 560,
      "v": 55
    },
    {
      "midi": 72,
      "hit": false,
      "t": 231765,
      "d": 540,
      "v": 54
    },
    {
      "midi": 84,
      "hit": false,
      "t": 231765,
      "d": 540,
      "v": 57
    },
    {
      "midi": 36,
      "hit": false,
      "t": 231770,
      "d": 465,
      "v": 50
    },
    {
      "midi": 24,
      "hit": false,
      "t": 231780,
      "d": 430,
      "v": 52
    }
  ]
}