{
  "jsonPath": "Latin/Latin Pop/Jose Luis Perales/te-quiero.json",
  "path": "Latin\\Latin Pop\\Jose Luis Perales\\Te Quiero.mid",
  "name": "Te Quiero",
  "difficulty": "Advanced",
  "bpm": 70.00023333411112,
  "notes": [
    {
      "midi": 62,
      "hit": false,
      "t": 29990.1596875,
      "d": 221.15218749999985,
      "v": 127
    },
    {
      "midi": 57,
      "hit": false,
      "t": 30014.19796875,
      "d": 197.11390625000058,
      "v": 116
    },
    {
      "midi": 62,
      "hit": false,
      "t": 30220.927187499998,
      "d": 221.15218749999985,
      "v": 127
    },
    {
      "midi": 57,
      "hit": false,
      "t": 30244.965468749997,
      "d": 197.11390625000058,
      "v": 116
    },
    {
      "midi": 62,
      "hit": false,
      "t": 30451.694687499996,
      "d": 451.91968749999796,
      "v": 127
    },
    {
      "midi": 57,
      "hit": false,
      "t": 30475.732968749995,
      "d": 427.8814062499987,
      "v": 116
    },
    {
      "midi": 62,
      "hit": false,
      "t": 30913.229687499992,
      "d": 230.7674999999981,
      "v": 127
    },
    {
      "midi": 57,
      "hit": false,
      "t": 30937.26796874999,
      "d": 206.72921874999884,
      "v": 116
    },
    {
      "midi": 64,
      "hit": false,
      "t": 31148.80484374999,
      "d": 225.95984374999898,
      "v": 127
    },
    {
      "midi": 57,
      "hit": false,
      "t": 31168.03546874999,
      "d": 206.72921874999884,
      "v": 116
    },
    {
      "midi": 66,
      "hit": false,
      "t": 31379.572343749987,
      "d": 456.7273437500007,
      "v": 127
    },
    {
      "midi": 62,
      "hit": false,
      "t": 31398.802968749987,
      "d": 437.4967187500006,
      "v": 116
    },
    {
      "midi": 66,
      "hit": false,
      "t": 31841.107343749987,
      "d": 677.8795312500006,
      "v": 127
    },
    {
      "midi": 62,
      "hit": false,
      "t": 31860.337968749987,
      "d": 658.6489062500004,
      "v": 116
    },
    {
      "midi": 69,
      "hit": false,
      "t": 32533.40984374999,
      "d": 216.34453125000073,
      "v": 127
    },
    {
      "midi": 66,
      "hit": false,
      "t": 32552.64046874999,
      "d": 197.11390625000058,
      "v": 116
    },
    {
      "midi": 71,
      "hit": false,
      "t": 32764.17734374999,
      "d": 216.34453125000073,
      "v": 127
    },
    {
      "midi": 66,
      "hit": false,
      "t": 32783.40796874999,
      "d": 197.11390625000058,
      "v": 116
    },
    {
      "midi": 69,
      "hit": false,
      "t": 32994.94484374999,
      "d": 216.3445312499971,
      "v": 127
    },
    {
      "midi": 66,
      "hit": false,
      "t": 33014.175468749985,
      "d": 197.11390625000058,
      "v": 116
    },
    {
      "midi": 66,
      "hit": false,
      "t": 33220.904687499984,
      "d": 451.9196875000125,
      "v": 127
    },
    {
      "midi": 62,
      "hit": false,
      "t": 33244.94296874999,
      "d": 2.4038281250032014,
      "v": 116
    },
    {
      "midi": 61,
      "hit": false,
      "t": 33249.75062499999,
      "d": 423.0737500000032,
      "v": 98
    },
    {
      "midi": 66,
      "hit": false,
      "t": 33682.439687499995,
      "d": 1374.989687500005,
      "v": 127
    },
    {
      "midi": 61,
      "hit": false,
      "t": 33706.47796875,
      "d": 1350.951406250002,
      "v": 116
    },
    {
      "midi": 59,
      "hit": false,
      "t": 35533.38734375,
      "d": 216.3445312499971,
      "v": 127
    },
    {
      "midi": 55,
      "hit": false,
      "t": 35552.61796875,
      "d": 197.11390625000058,
      "v": 116
    },
    {
      "midi": 59,
      "hit": false,
      "t": 35759.347187499996,
      "d": 221.1521875000035,
      "v": 127
    },
    {
      "midi": 55,
      "hit": false,
      "t": 35783.38546875,
      "d": 197.11390625000058,
      "v": 116
    },
    {
      "midi": 59,
      "hit": false,
      "t": 35990.1146875,
      "d": 461.5350000000035,
      "v": 127
    },
    {
      "midi": 55,
      "hit": false,
      "t": 36014.15296875,
      "d": 437.4967187500006,
      "v": 116
    },
    {
      "midi": 59,
      "hit": false,
      "t": 36456.45734375,
      "d": 225.95984374999534,
      "v": 127
    },
    {
      "midi": 55,
      "hit": false,
      "t": 36475.68796875,
      "d": 206.72921874999884,
      "v": 116
    },
    {
      "midi": 62,
      "hit": false,
      "t": 36687.224843749995,
      "d": 225.95984374999534,
      "v": 127
    },
    {
      "midi": 59,
      "hit": false,
      "t": 36706.45546874999,
      "d": 206.72921874999884,
      "v": 116
    },
    {
      "midi": 62,
      "hit": false,
      "t": 36917.99234374999,
      "d": 447.11203124999884,
      "v": 127
    },
    {
      "midi": 59,
      "hit": false,
      "t": 36937.222968749986,
      "d": 427.8814062500023,
      "v": 116
    },
    {
      "midi": 62,
      "hit": false,
      "t": 37374.719687499986,
      "d": 682.6871874999997,
      "v": 127
    },
    {
      "midi": 59,
      "hit": false,
      "t": 37398.75796874999,
      "d": 658.6489062499968,
      "v": 116
    },
    {
      "midi": 62,
      "hit": false,
      "t": 38067.022187499984,
      "d": 221.1521875000035,
      "v": 127
    },
    {
      "midi": 59,
      "hit": false,
      "t": 38091.06046874999,
      "d": 197.11390625000058,
      "v": 116
    },
    {
      "midi": 64,
      "hit": false,
      "t": 38302.597343749985,
      "d": 216.3445312499971,
      "v": 127
    },
    {
      "midi": 59,
      "hit": false,
      "t": 38321.82796874998,
      "d": 197.11390625000058,
      "v": 116
    },
    {
      "midi": 62,
      "hit": false,
      "t": 38533.36484374998,
      "d": 216.3445312499971,
      "v": 127
    },
    {
      "midi": 59,
      "hit": false,
      "t": 38552.595468749976,
      "d": 197.11390625000058,
      "v": 116
    },
    {
      "midi": 66,
      "hit": false,
      "t": 38759.324687499975,
      "d": 1836.5246875000084,
      "v": 127
    },
    {
      "midi": 62,
      "hit": false,
      "t": 38788.17062499998,
      "d": 2.4038281250032014,
      "v": 98
    },
    {
      "midi": 69,
      "hit": false,
      "t": 40605.46468749998,
      "d": 1384.6050000000032,
      "v": 127
    },
    {
      "midi": 66,
      "hit": false,
      "t": 40629.502968749985,
      "d": 1360.5667187500003,
      "v": 116
    },
    {
      "midi": 62,
      "hit": false,
      "t": 42225.644843749986,
      "d": 216.3445312499971,
      "v": 127
    },
    {
      "midi": 57,
      "hit": false,
      "t": 42244.87546874998,
      "d": 197.11390625000058,
      "v": 116
    },
    {
      "midi": 71,
      "hit": false,
      "t": 42456.41234374998,
      "d": 225.95984374999534,
      "v": 127
    },
    {
      "midi": 67,
      "hit": false,
      "t": 42475.64296874998,
      "d": 206.72921874999884,
      "v": 98
    },
    {
      "midi": 69,
      "hit": false,
      "t": 42687.179843749975,
      "d": 216.3445312499971,
      "v": 127
    },
    {
      "midi": 62,
      "hit": false,
      "t": 42706.41046874997,
      "d": 197.11390625000058,
      "v": 116
    },
    {
      "midi": 67,
      "hit": false,
      "t": 42913.13968749997,
      "d": 1374.989687500005,
      "v": 127
    },
    {
      "midi": 62,
      "hit": false,
      "t": 42937.17796874997,
      "d": 1350.951406250002,
      "v": 116
    },
    {
      "midi": 62,
      "hit": false,
      "t": 44533.319843749974,
      "d": 216.3445312499971,
      "v": 127
    },
    {
      "midi": 59,
      "hit": false,
      "t": 44552.55046874997,
      "d": 197.11390625000058,
      "v": 116
    },
    {
      "midi": 71,
      "hit": false,
      "t": 44764.08734374997,
      "d": 216.3445312499971,
      "v": 127
    },
    {
      "midi": 67,
      "hit": false,
      "t": 44783.317968749965,
      "d": 197.11390625000058,
      "v": 116
    },
    {
      "midi": 74,
      "hit": false,
      "t": 44994.85484374996,
      "d": 216.3445312499971,
      "v": 127
    },
    {
      "midi": 71,
      "hit": false,
      "t": 45014.08546874996,
      "d": 197.11390625000058,
      "v": 116
    },
    {
      "midi": 73,
      "hit": false,
      "t": 45220.81468749996,
      "d": 451.91968750000524,
      "v": 127
    },
    {
      "midi": 67,
      "hit": false,
      "t": 45244.85296874996,
      "d": 427.8814062500023,
      "v": 116
    },
    {
      "midi": 71,
      "hit": false,
      "t": 45687.15734374996,
      "d": 447.11203124999884,
      "v": 127
    },
    {
      "midi": 67,
      "hit": false,
      "t": 45706.38796874996,
      "d": 427.8814062500023,
      "v": 116
    },
    {
      "midi": 69,
      "hit": false,
      "t": 46148.69234374996,
      "d": 216.34453125000437,
      "v": 127
    },
    {
      "midi": 62,
      "hit": false,
      "t": 46167.922968749954,
      "d": 2.4038281250032014,
      "v": 116
    },
    {
      "midi": 66,
      "hit": false,
      "t": 46172.73062499996,
      "d": 192.30625000000146,
      "v": 98
    },
    {
      "midi": 67,
      "hit": false,
      "t": 46379.45984374996,
      "d": 216.3445312499971,
      "v": 127
    },
    {
      "midi": 62,
      "hit": false,
      "t": 46398.690468749955,
      "d": 197.11390625000058,
      "v": 116
    },
    {
      "midi": 66,
      "hit": false,
      "t": 46605.419687499954,
      "d": 1384.6050000000032,
      "v": 127
    },
    {
      "midi": 62,
      "hit": false,
      "t": 46629.45796874996,
      "d": 1360.5667187500003,
      "v": 116
    },
    {
      "midi": 62,
      "hit": false,
      "t": 48225.59984374996,
      "d": 225.95984374999534,
      "v": 127
    },
    {
      "midi": 57,
      "hit": false,
      "t": 48244.830468749955,
      "d": 206.72921874999884,
      "v": 116
    },
    {
      "midi": 66,
      "hit": false,
      "t": 48456.36734374995,
      "d": 216.3445312499971,
      "v": 127
    },
    {
      "midi": 62,
      "hit": false,
      "t": 48475.59796874995,
      "d": 197.11390625000058,
      "v": 116
    },
    {
      "midi": 69,
      "hit": false,
      "t": 48687.13484374995,
      "d": 216.3445312499971,
      "v": 127
    },
    {
      "midi": 66,
      "hit": false,
      "t": 48706.365468749944,
      "d": 197.11390625000058,
      "v": 116
    },
    {
      "midi": 67,
      "hit": false,
      "t": 48917.90234374994,
      "d": 447.11203124999884,
      "v": 127
    },
    {
      "midi": 62,
      "hit": false,
      "t": 48937.13296874994,
      "d": 427.8814062500023,
      "v": 116
    },
    {
      "midi": 66,
      "hit": false,
      "t": 49374.62968749994,
      "d": 451.91968750000524,
      "v": 127
    },
    {
      "midi": 62,
      "hit": false,
      "t": 49398.66796874994,
      "d": 427.8814062500023,
      "v": 116
    },
    {
      "midi": 69,
      "hit": false,
      "t": 49840.97234374994,
      "d": 1831.717031250002,
      "v": 127
    },
    {
      "midi": 66,
      "hit": false,
      "t": 49860.20296874994,
      "d": 2.4038281250032014,
      "v": 116
    },
    {
      "midi": 64,
      "hit": false,
      "t": 49865.010624999944,
      "d": 1807.6787499999991,
      "v": 98
    },
    {
      "midi": 62,
      "hit": false,
      "t": 51917.87984374994,
      "d": 216.3445312499971,
      "v": 127
    },
    {
      "midi": 59,
      "hit": false,
      "t": 51937.11046874994,
      "d": 197.11390625000058,
      "v": 116
    },
    {
      "midi": 62,
      "hit": false,
      "t": 52143.83968749994,
      "d": 230.76750000000175,
      "v": 127
    },
    {
      "midi": 59,
      "hit": false,
      "t": 52167.87796874994,
      "d": 206.72921874999884,
      "v": 116
    },
    {
      "midi": 62,
      "hit": false,
      "t": 52379.41484374994,
      "d": 216.3445312499971,
      "v": 127
    },
    {
      "midi": 59,
      "hit": false,
      "t": 52398.645468749935,
      "d": 197.11390625000058,
      "v": 116
    },
    {
      "midi": 67,
      "hit": false,
      "t": 52605.374687499934,
      "d": 461.5350000000035,
      "v": 127
    },
    {
      "midi": 62,
      "hit": false,
      "t": 52629.41296874994,
      "d": 437.4967187500006,
      "v": 116
    },
    {
      "midi": 71,
      "hit": false,
      "t": 53071.71734374994,
      "d": 456.7273437499971,
      "v": 127
    },
    {
      "midi": 67,
      "hit": false,
      "t": 53090.94796874993,
      "d": 437.4967187500006,
      "v": 116
    },
    {
      "midi": 71,
      "hit": false,
      "t": 53533.25234374993,
      "d": 908.6470312500096,
      "v": 127
    },
    {
      "midi": 66,
      "hit": false,
      "t": 53557.290624999936,
      "d": 2.4038281250032014,
      "v": 98
    },
    {
      "midi": 69,
      "hit": false,
      "t": 54456.32234374994,
      "d": 1831.7170312499948,
      "v": 127
    },
    {
      "midi": 66,
      "hit": false,
      "t": 54475.55296874994,
      "d": 1812.4864062499983,
      "v": 116
    },
    {
      "midi": 62,
      "hit": false,
      "t": 56994.76484374994,
      "d": 216.3445312499971,
      "v": 127
    },
    {
      "midi": 57,
      "hit": false,
      "t": 57013.995468749934,
      "d": 197.11390625000058,
      "v": 116
    },
    {
      "midi": 71,
      "hit": false,
      "t": 57220.72468749993,
      "d": 221.1521875000035,
      "v": 127
    },
    {
      "midi": 67,
      "hit": false,
      "t": 57244.762968749936,
      "d": 197.11390625000058,
      "v": 98
    },
    {
      "midi": 69,
      "hit": false,
      "t": 57451.492187499935,
      "d": 221.1521875000035,
      "v": 127
    },
    {
      "midi": 62,
      "hit": false,
      "t": 57475.53046874994,
      "d": 197.11390625000058,
      "v": 116
    },
    {
      "midi": 67,
      "hit": false,
      "t": 57682.259687499936,
      "d": 1384.6050000000032,
      "v": 127
    },
    {
      "midi": 62,
      "hit": false,
      "t": 57706.29796874994,
      "d": 1360.5667187500003,
      "v": 116
    },
    {
      "midi": 62,
      "hit": false,
      "t": 59302.43984374994,
      "d": 216.3445312499971,
      "v": 127
    },
    {
      "midi": 59,
      "hit": false,
      "t": 59321.67046874994,
      "d": 197.11390625000058,
      "v": 116
    },
    {
      "midi": 71,
      "hit": false,
      "t": 59533.207343749935,
      "d": 216.3445312499971,
      "v": 127
    },
    {
      "midi": 67,
      "hit": false,
      "t": 59552.43796874993,
      "d": 197.11390625000058,
      "v": 116
    },
    {
      "midi": 74,
      "hit": false,
      "t": 59759.16718749993,
      "d": 221.1521875000035,
      "v": 127
    },
    {
      "midi": 71,
      "hit": false,
      "t": 59783.20546874993,
      "d": 197.11390625000058,
      "v": 116
    },
    {
      "midi": 73,
      "hit": false,
      "t": 59994.74234374993,
      "d": 447.11203124999884,
      "v": 127
    },
    {
      "midi": 67,
      "hit": false,
      "t": 60013.97296874993,
      "d": 427.8814062500023,
      "v": 116
    },
    {
      "midi": 71,
      "hit": false,
      "t": 60456.27734374993,
      "d": 447.11203124999884,
      "v": 127
    },
    {
      "midi": 67,
      "hit": false,
      "t": 60475.507968749924,
      "d": 427.8814062500023,
      "v": 116
    },
    {
      "midi": 69,
      "hit": false,
      "t": 60917.81234374992,
      "d": 216.34453125000437,
      "v": 127
    },
    {
      "midi": 66,
      "hit": false,
      "t": 60941.85062499993,
      "d": 2.4038281250032014,
      "v": 98
    },
    {
      "midi": 67,
      "hit": false,
      "t": 61148.579843749925,
      "d": 216.3445312499971,
      "v": 127
    },
    {
      "midi": 62,
      "hit": false,
      "t": 61167.81046874992,
      "d": 197.11390625000058,
      "v": 116
    },
    {
      "midi": 66,
      "hit": false,
      "t": 61374.53968749992,
      "d": 1384.6050000000032,
      "v": 127
    },
    {
      "midi": 62,
      "hit": false,
      "t": 61398.57796874992,
      "d": 1360.5667187500003,
      "v": 116
    },
    {
      "midi": 62,
      "hit": false,
      "t": 62994.719843749925,
      "d": 225.95984374999534,
      "v": 127
    },
    {
      "midi": 57,
      "hit": false,
      "t": 63013.95046874992,
      "d": 206.72921874999884,
      "v": 116
    },
    {
      "midi": 66,
      "hit": false,
      "t": 63225.48734374992,
      "d": 225.95984374999534,
      "v": 127
    },
    {
      "midi": 62,
      "hit": false,
      "t": 63244.717968749916,
      "d": 206.72921874999884,
      "v": 116
    },
    {
      "midi": 69,
      "hit": false,
      "t": 63456.25484374991,
      "d": 216.3445312499971,
      "v": 127
    },
    {
      "midi": 66,
      "hit": false,
      "t": 63475.48546874991,
      "d": 197.11390625000058,
      "v": 116
    },
    {
      "midi": 67,
      "hit": false,
      "t": 63682.21468749991,
      "d": 451.91968750000524,
      "v": 127
    },
    {
      "midi": 62,
      "hit": false,
      "t": 63706.25296874991,
      "d": 427.8814062500023,
      "v": 116
    },
    {
      "midi": 66,
      "hit": false,
      "t": 64148.55734374991,
      "d": 447.11203124999884,
      "v": 127
    },
    {
      "midi": 62,
      "hit": false,
      "t": 64167.78796874991,
      "d": 427.8814062500023,
      "v": 116
    },
    {
      "midi": 69,
      "hit": false,
      "t": 64605.28468749991,
      "d": 1836.5246875000157,
      "v": 127
    },
    {
      "midi": 66,
      "hit": false,
      "t": 64629.32296874991,
      "d": 2.4038281250032014,
      "v": 116
    },
    {
      "midi": 64,
      "hit": false,
      "t": 64634.13062499992,
      "d": 1807.6787500000064,
      "v": 98
    },
    {
      "midi": 62,
      "hit": false,
      "t": 67148.53484374992,
      "d": 216.3445312499971,
      "v": 127
    },
    {
      "midi": 59,
      "hit": false,
      "t": 67167.76546874992,
      "d": 197.11390625000058,
      "v": 116
    },
    {
      "midi": 67,
      "hit": false,
      "t": 67379.30234374992,
      "d": 456.7273437499971,
      "v": 127
    },
    {
      "midi": 62,
      "hit": false,
      "t": 67398.53296874992,
      "d": 437.4967187500006,
      "v": 116
    },
    {
      "midi": 66,
      "hit": false,
      "t": 67840.83734374992,
      "d": 447.11203124999884,
      "v": 127
    },
    {
      "midi": 62,
      "hit": false,
      "t": 67860.06796874992,
      "d": 427.8814062500023,
      "v": 116
    },
    {
      "midi": 64,
      "hit": false,
      "t": 68302.37234374993,
      "d": 908.6470312499878,
      "v": 127
    },
    {
      "midi": 59,
      "hit": false,
      "t": 68321.60296874992,
      "d": 2.4038281249959255,
      "v": 116
    },
    {
      "midi": 57,
      "hit": false,
      "t": 68326.41062499992,
      "d": 884.6087499999994,
      "v": 98
    },
    {
      "midi": 62,
      "hit": false,
      "t": 69225.44234374992,
      "d": 1831.7170312499948,
      "v": 127
    },
    {
      "midi": 57,
      "hit": false,
      "t": 69244.67296874992,
      "d": 1812.4864062499983,
      "v": 116
    },
    {
      "midi": 66,
      "hit": false,
      "t": 71759.07718749992,
      "d": 221.1521875000035,
      "v": 127
    },
    {
      "midi": 62,
      "hit": false,
      "t": 71811.96140624992,
      "d": 168.26796875000582,
      "v": 116
    },
    {
      "midi": 69,
      "hit": false,
      "t": 71989.84468749992,
      "d": 913.4546874999942,
      "v": 127
    },
    {
      "midi": 57,
      "hit": false,
      "t": 71999.46,
      "d": 1144.222187499996,
      "v": 84
    },
    {
      "midi": 61,
      "hit": false,
      "t": 71999.46,
      "d": 1144.222187499996,
      "v": 84
    },
    {
      "midi": 64,
      "hit": false,
      "t": 71999.46,
      "d": 1144.222187499996,
      "v": 84
    },
    {
      "midi": 69,
      "hit": false,
      "t": 71999.46,
      "d": 1144.222187499996,
      "v": 84
    },
    {
      "midi": 66,
      "hit": false,
      "t": 72013.88296874992,
      "d": 2.4038281249959255,
      "v": 116
    },
    {
      "midi": 64,
      "hit": false,
      "t": 72018.69062499992,
      "d": 884.6087499999994,
      "v": 98
    },
    {
      "midi": 69,
      "hit": false,
      "t": 72917.72234374992,
      "d": 1831.7170312499948,
      "v": 127
    },
    {
      "midi": 64,
      "hit": false,
      "t": 72936.95296874992,
      "d": 1812.4864062499983,
      "v": 116
    },
    {
      "midi": 69,
      "hit": false,
      "t": 73614.8325,
      "d": 57.691875000004075,
      "v": 84
    },
    {
      "midi": 73,
      "hit": false,
      "t": 73614.8325,
      "d": 57.691875000004075,
      "v": 84
    },
    {
      "midi": 76,
      "hit": false,
      "t": 73614.8325,
      "d": 57.691875000004075,
      "v": 84
    },
    {
      "midi": 81,
      "hit": false,
      "t": 73614.8325,
      "d": 57.691875000004075,
      "v": 84
    },
    {
      "midi": 69,
      "hit": false,
      "t": 73730.21625000001,
      "d": 57.691875000004075,
      "v": 84
    },
    {
      "midi": 73,
      "hit": false,
      "t": 73730.21625000001,
      "d": 57.691875000004075,
      "v": 84
    },
    {
      "midi": 76,
      "hit": false,
      "t": 73730.21625000001,
      "d": 57.691875000004075,
      "v": 84
    },
    {
      "midi": 81,
      "hit": false,
      "t": 73730.21625000001,
      "d": 57.691875000004075,
      "v": 84
    },
    {
      "midi": 69,
      "hit": false,
      "t": 73845.60000000002,
      "d": 451.91968750000524,
      "v": 84
    },
    {
      "midi": 73,
      "hit": false,
      "t": 73845.60000000002,
      "d": 451.91968750000524,
      "v": 84
    },
    {
      "midi": 76,
      "hit": false,
      "t": 73845.60000000002,
      "d": 451.91968750000524,
      "v": 84
    },
    {
      "midi": 81,
      "hit": false,
      "t": 73845.60000000002,
      "d": 451.91968750000524,
      "v": 84
    },
    {
      "midi": 69,
      "hit": false,
      "t": 74537.90250000003,
      "d": 57.691875000004075,
      "v": 84
    },
    {
      "midi": 81,
      "hit": false,
      "t": 74537.90250000003,
      "d": 57.691875000004075,
      "v": 84
    },
    {
      "midi": 85,
      "hit": false,
      "t": 74537.90250000003,
      "d": 57.691875000004075,
      "v": 84
    },
    {
      "midi": 88,
      "hit": false,
      "t": 74537.90250000003,
      "d": 57.691875000004075,
      "v": 84
    },
    {
      "midi": 69,
      "hit": false,
      "t": 74653.28625000003,
      "d": 57.691875000004075,
      "v": 84
    },
    {
      "midi": 81,
      "hit": false,
      "t": 74653.28625000003,
      "d": 57.691875000004075,
      "v": 84
    },
    {
      "midi": 85,
      "hit": false,
      "t": 74653.28625000003,
      "d": 57.691875000004075,
      "v": 84
    },
    {
      "midi": 88,
      "hit": false,
      "t": 74653.28625000003,
      "d": 57.691875000004075,
      "v": 84
    },
    {
      "midi": 69,
      "hit": false,
      "t": 74768.67000000004,
      "d": 682.687187500007,
      "v": 84
    },
    {
      "midi": 81,
      "hit": false,
      "t": 74768.67000000004,
      "d": 682.687187500007,
      "v": 84
    },
    {
      "midi": 85,
      "hit": false,
      "t": 74768.67000000004,
      "d": 682.687187500007,
      "v": 84
    },
    {
      "midi": 88,
      "hit": false,
      "t": 74768.67000000004,
      "d": 682.687187500007,
      "v": 84
    },
    {
      "midi": 69,
      "hit": false,
      "t": 75451.35718749992,
      "d": 221.1521875000035,
      "v": 127
    },
    {
      "midi": 64,
      "hit": false,
      "t": 75475.39546874992,
      "d": 197.11390625000058,
      "v": 115
    },
    {
      "midi": 74,
      "hit": false,
      "t": 75686.93234374993,
      "d": 908.6470312500023,
      "v": 127
    },
    {
      "midi": 59,
      "hit": false,
      "t": 75691.74000000005,
      "d": 1144.222187499996,
      "v": 84
    },
    {
      "midi": 62,
      "hit": false,
      "t": 75691.74000000005,
      "d": 1144.222187499996,
      "v": 84
    },
    {
      "midi": 66,
      "hit": false,
      "t": 75691.74000000005,
      "d": 1144.222187499996,
      "v": 84
    },
    {
      "midi": 71,
      "hit": false,
      "t": 75691.74000000005,
      "d": 1144.222187499996,
      "v": 84
    },
    {
      "midi": 71,
      "hit": false,
      "t": 75706.16296874992,
      "d": 889.4164062500058,
      "v": 98
    },
    {
      "midi": 69,
      "hit": false,
      "t": 75706.16296874992,
      "d": 908.6470312500023,
      "v": 116
    },
    {
      "midi": 74,
      "hit": false,
      "t": 76605.19468749993,
      "d": 1836.5246875000012,
      "v": 127
    },
    {
      "midi": 71,
      "hit": false,
      "t": 76629.23296874993,
      "d": 1812.4864062499983,
      "v": 116
    },
    {
      "midi": 71,
      "hit": false,
      "t": 77307.11250000005,
      "d": 57.691875000004075,
      "v": 84
    },
    {
      "midi": 74,
      "hit": false,
      "t": 77307.11250000005,
      "d": 57.691875000004075,
      "v": 84
    },
    {
      "midi": 78,
      "hit": false,
      "t": 77307.11250000005,
      "d": 57.691875000004075,
      "v": 84
    },
    {
      "midi": 83,
      "hit": false,
      "t": 77307.11250000005,
      "d": 57.691875000004075,
      "v": 84
    },
    {
      "midi": 71,
      "hit": false,
      "t": 77422.49625000005,
      "d": 57.691875000004075,
      "v": 84
    },
    {
      "midi": 74,
      "hit": false,
      "t": 77422.49625000005,
      "d": 57.691875000004075,
      "v": 84
    },
    {
      "midi": 78,
      "hit": false,
      "t": 77422.49625000005,
      "d": 57.691875000004075,
      "v": 84
    },
    {
      "midi": 83,
      "hit": false,
      "t": 77422.49625000005,
      "d": 57.691875000004075,
      "v": 84
    },
    {
      "midi": 71,
      "hit": false,
      "t": 77537.88000000006,
      "d": 451.91968750000524,
      "v": 84
    },
    {
      "midi": 74,
      "hit": false,
      "t": 77537.88000000006,
      "d": 451.91968750000524,
      "v": 84
    },
    {
      "midi": 78,
      "hit": false,
      "t": 77537.88000000006,
      "d": 451.91968750000524,
      "v": 84
    },
    {
      "midi": 83,
      "hit": false,
      "t": 77537.88000000006,
      "d": 451.91968750000524,
      "v": 84
    },
    {
      "midi": 71,
      "hit": false,
      "t": 78230.18250000007,
      "d": 57.691875000004075,
      "v": 84
    },
    {
      "midi": 83,
      "hit": false,
      "t": 78230.18250000007,
      "d": 57.691875000004075,
      "v": 84
    },
    {
      "midi": 86,
      "hit": false,
      "t": 78230.18250000007,
      "d": 57.691875000004075,
      "v": 84
    },
    {
      "midi": 90,
      "hit": false,
      "t": 78230.18250000007,
      "d": 57.691875000004075,
      "v": 84
    },
    {
      "midi": 71,
      "hit": false,
      "t": 78345.56625000008,
      "d": 57.691875000004075,
      "v": 84
    },
    {
      "midi": 83,
      "hit": false,
      "t": 78345.56625000008,
      "d": 57.691875000004075,
      "v": 84
    },
    {
      "midi": 86,
      "hit": false,
      "t": 78345.56625000008,
      "d": 57.691875000004075,
      "v": 84
    },
    {
      "midi": 90,
      "hit": false,
      "t": 78345.56625000008,
      "d": 57.691875000004075,
      "v": 84
    },
    {
      "midi": 71,
      "hit": false,
      "t": 78460.95000000008,
      "d": 682.687187500007,
      "v": 84
    },
    {
      "midi": 83,
      "hit": false,
      "t": 78460.95000000008,
      "d": 682.687187500007,
      "v": 84
    },
    {
      "midi": 86,
      "hit": false,
      "t": 78460.95000000008,
      "d": 682.687187500007,
      "v": 84
    },
    {
      "midi": 90,
      "hit": false,
      "t": 78460.95000000008,
      "d": 682.687187500007,
      "v": 84
    },
    {
      "midi": 55,
      "hit": false,
      "t": 79384.02000000009,
      "d": 1144.222187499996,
      "v": 84
    },
    {
      "midi": 59,
      "hit": false,
      "t": 79384.02000000009,
      "d": 1144.222187499996,
      "v": 84
    },
    {
      "midi": 62,
      "hit": false,
      "t": 79384.02000000009,
      "d": 1144.222187499996,
      "v": 84
    },
    {
      "midi": 74,
      "hit": false,
      "t": 79835.93968749992,
      "d": 451.91968750000524,
      "v": 127
    },
    {
      "midi": 71,
      "hit": false,
      "t": 79859.97796874992,
      "d": 427.8814062500023,
      "v": 116
    },
    {
      "midi": 74,
      "hit": false,
      "t": 80302.28234374993,
      "d": 447.11203124999884,
      "v": 127
    },
    {
      "midi": 71,
      "hit": false,
      "t": 80321.51296874993,
      "d": 427.8814062500023,
      "v": 116
    },
    {
      "midi": 74,
      "hit": false,
      "t": 80759.00968749993,
      "d": 451.91968750000524,
      "v": 127
    },
    {
      "midi": 71,
      "hit": false,
      "t": 80783.04796874993,
      "d": 427.8814062500023,
      "v": 116
    },
    {
      "midi": 73,
      "hit": false,
      "t": 81225.35234374994,
      "d": 918.2623437500006,
      "v": 127
    },
    {
      "midi": 57,
      "hit": false,
      "t": 81230.16000000009,
      "d": 1144.222187499996,
      "v": 84
    },
    {
      "midi": 61,
      "hit": false,
      "t": 81230.16000000009,
      "d": 1144.222187499996,
      "v": 84
    },
    {
      "midi": 64,
      "hit": false,
      "t": 81230.16000000009,
      "d": 1144.222187499996,
      "v": 84
    },
    {
      "midi": 69,
      "hit": false,
      "t": 81244.58296874994,
      "d": 899.0317187500041,
      "v": 98
    },
    {
      "midi": 71,
      "hit": false,
      "t": 82148.42234374995,
      "d": 456.7273437499971,
      "v": 127
    },
    {
      "midi": 64,
      "hit": false,
      "t": 82167.65296874994,
      "d": 437.4967187500006,
      "v": 116
    },
    {
      "midi": 69,
      "hit": false,
      "t": 82609.95734374995,
      "d": 225.95984374999534,
      "v": 127
    },
    {
      "midi": 64,
      "hit": false,
      "t": 82629.18796874995,
      "d": 206.72921874999884,
      "v": 116
    },
    {
      "midi": 67,
      "hit": false,
      "t": 82840.72484374995,
      "d": 216.3445312499971,
      "v": 127
    },
    {
      "midi": 64,
      "hit": false,
      "t": 82859.95546874995,
      "d": 197.11390625000058,
      "v": 116
    },
    {
      "midi": 69,
      "hit": false,
      "t": 83071.49234374995,
      "d": 447.1120312499843,
      "v": 127
    },
    {
      "midi": 62,
      "hit": false,
      "t": 83076.30000000009,
      "d": 1144.222187499996,
      "v": 84
    },
    {
      "midi": 66,
      "hit": false,
      "t": 83076.30000000009,
      "d": 1144.222187499996,
      "v": 84
    },
    {
      "midi": 69,
      "hit": false,
      "t": 83076.30000000009,
      "d": 1144.222187499996,
      "v": 84
    },
    {
      "midi": 64,
      "hit": false,
      "t": 83090.72296874995,
      "d": 2.4038281249959255,
      "v": 116
    },
    {
      "midi": 66,
      "hit": false,
      "t": 83095.53062499994,
      "d": 423.0737499999959,
      "v": 98
    },
    {
      "midi": 66,
      "hit": false,
      "t": 83528.21968749994,
      "d": 221.1521875000035,
      "v": 127
    },
    {
      "midi": 62,
      "hit": false,
      "t": 83552.25796874994,
      "d": 197.11390625000058,
      "v": 116
    },
    {
      "midi": 62,
      "hit": false,
      "t": 83763.79484374994,
      "d": 2062.4845312499965,
      "v": 127
    },
    {
      "midi": 57,
      "hit": false,
      "t": 83783.02546874994,
      "d": 1144.222187499996,
      "v": 116
    },
    {
      "midi": 59,
      "hit": false,
      "t": 84922.44000000009,
      "d": 798.0709375000006,
      "v": 84
    },
    {
      "midi": 62,
      "hit": false,
      "t": 84922.44000000009,
      "d": 798.0709375000006,
      "v": 84
    },
    {
      "midi": 66,
      "hit": false,
      "t": 84922.44000000009,
      "d": 798.0709375000006,
      "v": 84
    },
    {
      "midi": 59,
      "hit": false,
      "t": 84936.86296874993,
      "d": 889.4164062500058,
      "v": 98
    },
    {
      "midi": 59,
      "hit": false,
      "t": 85845.5100000001,
      "d": 798.0709375000006,
      "v": 84
    },
    {
      "midi": 62,
      "hit": false,
      "t": 85845.5100000001,
      "d": 798.0709375000006,
      "v": 84
    },
    {
      "midi": 67,
      "hit": false,
      "t": 85845.5100000001,
      "d": 798.0709375000006,
      "v": 84
    },
    {
      "midi": 66,
      "hit": false,
      "t": 86528.19718749994,
      "d": 221.1521875000035,
      "v": 127
    },
    {
      "midi": 61,
      "hit": false,
      "t": 86552.23546874995,
      "d": 197.11390625000058,
      "v": 116
    },
    {
      "midi": 69,
      "hit": false,
      "t": 86758.96468749995,
      "d": 913.4546874999942,
      "v": 127
    },
    {
      "midi": 57,
      "hit": false,
      "t": 86768.5800000001,
      "d": 1144.222187499996,
      "v": 84
    },
    {
      "midi": 61,
      "hit": false,
      "t": 86768.5800000001,
      "d": 1144.222187499996,
      "v": 84
    },
    {
      "midi": 64,
      "hit": false,
      "t": 86768.5800000001,
      "d": 1144.222187499996,
      "v": 84
    },
    {
      "midi": 69,
      "hit": false,
      "t": 86768.5800000001,
      "d": 1144.222187499996,
      "v": 84
    },
    {
      "midi": 64,
      "hit": false,
      "t": 86783.00296874995,
      "d": 2.4038281249959255,
      "v": 98
    },
    {
      "midi": 69,
      "hit": false,
      "t": 87682.03468749994,
      "d": 923.0699999999924,
      "v": 127
    },
    {
      "midi": 64,
      "hit": false,
      "t": 87710.88062499993,
      "d": 894.2240624999977,
      "v": 116
    },
    {
      "midi": 69,
      "hit": false,
      "t": 88383.9525000001,
      "d": 57.691875000004075,
      "v": 84
    },
    {
      "midi": 73,
      "hit": false,
      "t": 88383.9525000001,
      "d": 57.691875000004075,
      "v": 84
    },
    {
      "midi": 76,
      "hit": false,
      "t": 88383.9525000001,
      "d": 57.691875000004075,
      "v": 84
    },
    {
      "midi": 81,
      "hit": false,
      "t": 88383.9525000001,
      "d": 57.691875000004075,
      "v": 84
    },
    {
      "midi": 69,
      "hit": false,
      "t": 88499.33625000011,
      "d": 57.691875000004075,
      "v": 84
    },
    {
      "midi": 73,
      "hit": false,
      "t": 88499.33625000011,
      "d": 57.691875000004075,
      "v": 84
    },
    {
      "midi": 76,
      "hit": false,
      "t": 88499.33625000011,
      "d": 57.691875000004075,
      "v": 84
    },
    {
      "midi": 81,
      "hit": false,
      "t": 88499.33625000011,
      "d": 57.691875000004075,
      "v": 84
    },
    {
      "midi": 69,
      "hit": false,
      "t": 88614.72000000012,
      "d": 451.91968750000524,
      "v": 84
    },
    {
      "midi": 73,
      "hit": false,
      "t": 88614.72000000012,
      "d": 451.91968750000524,
      "v": 84
    },
    {
      "midi": 76,
      "hit": false,
      "t": 88614.72000000012,
      "d": 451.91968750000524,
      "v": 84
    },
    {
      "midi": 81,
      "hit": false,
      "t": 88614.72000000012,
      "d": 451.91968750000524,
      "v": 84
    },
    {
      "midi": 69,
      "hit": false,
      "t": 89307.02250000012,
      "d": 57.691875000004075,
      "v": 84
    },
    {
      "midi": 81,
      "hit": false,
      "t": 89307.02250000012,
      "d": 57.691875000004075,
      "v": 84
    },
    {
      "midi": 85,
      "hit": false,
      "t": 89307.02250000012,
      "d": 57.691875000004075,
      "v": 84
    },
    {
      "midi": 88,
      "hit": false,
      "t": 89307.02250000012,
      "d": 57.691875000004075,
      "v": 84
    },
    {
      "midi": 69,
      "hit": false,
      "t": 89422.40625000013,
      "d": 57.691875000004075,
      "v": 84
    },
    {
      "midi": 81,
      "hit": false,
      "t": 89422.40625000013,
      "d": 57.691875000004075,
      "v": 84
    },
    {
      "midi": 85,
      "hit": false,
      "t": 89422.40625000013,
      "d": 57.691875000004075,
      "v": 84
    },
    {
      "midi": 88,
      "hit": false,
      "t": 89422.40625000013,
      "d": 57.691875000004075,
      "v": 84
    },
    {
      "midi": 69,
      "hit": false,
      "t": 89537.79000000014,
      "d": 682.687187500007,
      "v": 84
    },
    {
      "midi": 81,
      "hit": false,
      "t": 89537.79000000014,
      "d": 682.687187500007,
      "v": 84
    },
    {
      "midi": 85,
      "hit": false,
      "t": 89537.79000000014,
      "d": 682.687187500007,
      "v": 84
    },
    {
      "midi": 88,
      "hit": false,
      "t": 89537.79000000014,
      "d": 682.687187500007,
      "v": 84
    },
    {
      "midi": 69,
      "hit": false,
      "t": 90225.28484374993,
      "d": 225.95984374999534,
      "v": 127
    },
    {
      "midi": 64,
      "hit": false,
      "t": 90244.51546874993,
      "d": 206.72921874999884,
      "v": 115
    },
    {
      "midi": 74,
      "hit": false,
      "t": 90456.05234374994,
      "d": 918.262343749986,
      "v": 127
    },
    {
      "midi": 59,
      "hit": false,
      "t": 90460.86000000015,
      "d": 1144.222187499996,
      "v": 84
    },
    {
      "midi": 62,
      "hit": false,
      "t": 90460.86000000015,
      "d": 1144.222187499996,
      "v": 84
    },
    {
      "midi": 66,
      "hit": false,
      "t": 90460.86000000015,
      "d": 1144.222187499996,
      "v": 84
    },
    {
      "midi": 71,
      "hit": false,
      "t": 90460.86000000015,
      "d": 1144.222187499996,
      "v": 84
    },
    {
      "midi": 69,
      "hit": false,
      "t": 90475.28296874993,
      "d": 2.4038281249959255,
      "v": 116
    },
    {
      "midi": 71,
      "hit": false,
      "t": 90480.09062499992,
      "d": 894.2240624999977,
      "v": 98
    },
    {
      "midi": 74,
      "hit": false,
      "t": 91379.12234374993,
      "d": 1831.7170312499948,
      "v": 127
    },
    {
      "midi": 71,
      "hit": false,
      "t": 91398.35296874992,
      "d": 1812.4864062499983,
      "v": 116
    },
    {
      "midi": 71,
      "hit": false,
      "t": 92076.23250000014,
      "d": 57.691875000004075,
      "v": 84
    },
    {
      "midi": 74,
      "hit": false,
      "t": 92076.23250000014,
      "d": 57.691875000004075,
      "v": 84
    },
    {
      "midi": 78,
      "hit": false,
      "t": 92076.23250000014,
      "d": 57.691875000004075,
      "v": 84
    },
    {
      "midi": 83,
      "hit": false,
      "t": 92076.23250000014,
      "d": 57.691875000004075,
      "v": 84
    },
    {
      "midi": 71,
      "hit": false,
      "t": 92191.61625000015,
      "d": 57.691875000004075,
      "v": 84
    },
    {
      "midi": 74,
      "hit": false,
      "t": 92191.61625000015,
      "d": 57.691875000004075,
      "v": 84
    },
    {
      "midi": 78,
      "hit": false,
      "t": 92191.61625000015,
      "d": 57.691875000004075,
      "v": 84
    },
    {
      "midi": 83,
      "hit": false,
      "t": 92191.61625000015,
      "d": 57.691875000004075,
      "v": 84
    },
    {
      "midi": 71,
      "hit": false,
      "t": 92307.00000000016,
      "d": 451.91968750000524,
      "v": 84
    },
    {
      "midi": 74,
      "hit": false,
      "t": 92307.00000000016,
      "d": 451.91968750000524,
      "v": 84
    },
    {
      "midi": 78,
      "hit": false,
      "t": 92307.00000000016,
      "d": 451.91968750000524,
      "v": 84
    },
    {
      "midi": 83,
      "hit": false,
      "t": 92307.00000000016,
      "d": 451.91968750000524,
      "v": 84
    },
    {
      "midi": 71,
      "hit": false,
      "t": 92999.30250000017,
      "d": 57.691875000004075,
      "v": 84
    },
    {
      "midi": 83,
      "hit": false,
      "t": 92999.30250000017,
      "d": 57.691875000004075,
      "v": 84
    },
    {
      "midi": 86,
      "hit": false,
      "t": 92999.30250000017,
      "d": 57.691875000004075,
      "v": 84
    },
    {
      "midi": 90,
      "hit": false,
      "t": 92999.30250000017,
      "d": 57.691875000004075,
      "v": 84
    },
    {
      "midi": 71,
      "hit": false,
      "t": 93114.68625000017,
      "d": 57.691875000004075,
      "v": 84
    },
    {
      "midi": 83,
      "hit": false,
      "t": 93114.68625000017,
      "d": 57.691875000004075,
      "v": 84
    },
    {
      "midi": 86,
      "hit": false,
      "t": 93114.68625000017,
      "d": 57.691875000004075,
      "v": 84
    },
    {
      "midi": 90,
      "hit": false,
      "t": 93114.68625000017,
      "d": 57.691875000004075,
      "v": 84
    },
    {
      "midi": 71,
      "hit": false,
      "t": 93230.07000000018,
      "d": 682.687187500007,
      "v": 84
    },
    {
      "midi": 83,
      "hit": false,
      "t": 93230.07000000018,
      "d": 682.687187500007,
      "v": 84
    },
    {
      "midi": 86,
      "hit": false,
      "t": 93230.07000000018,
      "d": 682.687187500007,
      "v": 84
    },
    {
      "midi": 90,
      "hit": false,
      "t": 93230.07000000018,
      "d": 682.687187500007,
      "v": 84
    },
    {
      "midi": 55,
      "hit": false,
      "t": 94153.14000000019,
      "d": 1144.222187499996,
      "v": 84
    },
    {
      "midi": 59,
      "hit": false,
      "t": 94153.14000000019,
      "d": 1144.222187499996,
      "v": 84
    },
    {
      "midi": 62,
      "hit": false,
      "t": 94153.14000000019,
      "d": 1144.222187499996,
      "v": 84
    },
    {
      "midi": 73,
      "hit": false,
      "t": 95297.36218749992,
      "d": 221.1521875000035,
      "v": 127
    },
    {
      "midi": 67,
      "hit": false,
      "t": 95321.40046874993,
      "d": 197.11390625000058,
      "v": 116
    },
    {
      "midi": 73,
      "hit": false,
      "t": 95528.12968749992,
      "d": 230.76750000000175,
      "v": 127
    },
    {
      "midi": 67,
      "hit": false,
      "t": 95552.16796874993,
      "d": 206.72921874999884,
      "v": 116
    },
    {
      "midi": 74,
      "hit": false,
      "t": 95763.70484374993,
      "d": 225.95984374999534,
      "v": 127
    },
    {
      "midi": 71,
      "hit": false,
      "t": 95782.93546874993,
      "d": 206.72921874999884,
      "v": 116
    },
    {
      "midi": 76,
      "hit": false,
      "t": 95994.47234374993,
      "d": 918.2623437500006,
      "v": 127
    },
    {
      "midi": 57,
      "hit": false,
      "t": 95999.28000000019,
      "d": 1144.222187499996,
      "v": 84
    },
    {
      "midi": 61,
      "hit": false,
      "t": 95999.28000000019,
      "d": 1144.222187499996,
      "v": 84
    },
    {
      "midi": 64,
      "hit": false,
      "t": 95999.28000000019,
      "d": 1144.222187499996,
      "v": 84
    },
    {
      "midi": 73,
      "hit": false,
      "t": 96018.51062499994,
      "d": 894.2240624999977,
      "v": 98
    },
    {
      "midi": 71,
      "hit": false,
      "t": 96018.51062499994,
      "d": 903.8393750000105,
      "v": 116
    },
    {
      "midi": 73,
      "hit": false,
      "t": 96917.54234374994,
      "d": 908.6470312500169,
      "v": 127
    },
    {
      "midi": 69,
      "hit": false,
      "t": 96936.77296874995,
      "d": 889.4164062500058,
      "v": 116
    },
    {
      "midi": 74,
      "hit": false,
      "t": 97835.80468749996,
      "d": 2759.5946874999936,
      "v": 127
    },
    {
      "midi": 62,
      "hit": false,
      "t": 97845.42000000019,
      "d": 3567.280937500007,
      "v": 84
    },
    {
      "midi": 66,
      "hit": false,
      "t": 97845.42000000019,
      "d": 3567.280937500007,
      "v": 84
    },
    {
      "midi": 69,
      "hit": false,
      "t": 97845.42000000019,
      "d": 3567.280937500007,
      "v": 84
    },
    {
      "midi": 69,
      "hit": false,
      "t": 97859.84296874996,
      "d": 2.4038281249959255,
      "v": 98
    },
    {
      "midi": 62,
      "hit": false,
      "t": 120451.01968749995,
      "d": 221.1521875000035,
      "v": 127
    },
    {
      "midi": 57,
      "hit": false,
      "t": 120475.05796874996,
      "d": 197.11390625000058,
      "v": 116
    },
    {
      "midi": 62,
      "hit": false,
      "t": 120686.59484374996,
      "d": 216.3445312499971,
      "v": 127
    },
    {
      "midi": 57,
      "hit": false,
      "t": 120705.82546874996,
      "d": 197.11390625000058,
      "v": 116
    },
    {
      "midi": 62,
      "hit": false,
      "t": 120917.36234374996,
      "d": 447.11203124999884,
      "v": 127
    },
    {
      "midi": 57,
      "hit": false,
      "t": 120936.59296874996,
      "d": 427.8814062500023,
      "v": 116
    },
    {
      "midi": 62,
      "hit": false,
      "t": 121374.08968749996,
      "d": 221.1521875000035,
      "v": 127
    },
    {
      "midi": 57,
      "hit": false,
      "t": 121398.12796874996,
      "d": 197.11390625000058,
      "v": 116
    },
    {
      "midi": 64,
      "hit": false,
      "t": 121609.66484374997,
      "d": 216.3445312499971,
      "v": 127
    },
    {
      "midi": 57,
      "hit": false,
      "t": 121628.89546874996,
      "d": 197.11390625000058,
      "v": 116
    },
    {
      "midi": 66,
      "hit": false,
      "t": 121835.62468749996,
      "d": 451.91968750000524,
      "v": 127
    },
    {
      "midi": 62,
      "hit": false,
      "t": 121859.66296874997,
      "d": 427.8814062500023,
      "v": 116
    },
    {
      "midi": 66,
      "hit": false,
      "t": 122301.96734374997,
      "d": 677.8795312500006,
      "v": 127
    },
    {
      "midi": 62,
      "hit": false,
      "t": 122321.19796874997,
      "d": 658.6489062500041,
      "v": 116
    },
    {
      "midi": 69,
      "hit": false,
      "t": 122989.46218749997,
      "d": 221.1521875000035,
      "v": 127
    },
    {
      "midi": 66,
      "hit": false,
      "t": 123013.50046874997,
      "d": 197.11390625000058,
      "v": 116
    },
    {
      "midi": 71,
      "hit": false,
      "t": 123220.22968749997,
      "d": 230.76750000000175,
      "v": 127
    },
    {
      "midi": 66,
      "hit": false,
      "t": 123244.26796874998,
      "d": 206.72921874999884,
      "v": 116
    },
    {
      "midi": 69,
      "hit": false,
      "t": 123455.80484374998,
      "d": 225.95984374999534,
      "v": 127
    },
    {
      "midi": 66,
      "hit": false,
      "t": 123475.03546874998,
      "d": 206.72921874999884,
      "v": 116
    },
    {
      "midi": 66,
      "hit": false,
      "t": 123686.57234374998,
      "d": 456.72734374998254,
      "v": 127
    },
    {
      "midi": 62,
      "hit": false,
      "t": 123705.80296874998,
      "d": 2.4038281249959255,
      "v": 116
    },
    {
      "midi": 61,
      "hit": false,
      "t": 123710.61062499997,
      "d": 432.6890624999942,
      "v": 98
    },
    {
      "midi": 66,
      "hit": false,
      "t": 124148.10734374997,
      "d": 1370.1820312499913,
      "v": 127
    },
    {
      "midi": 61,
      "hit": false,
      "t": 124167.33796874997,
      "d": 1350.9514062499948,
      "v": 116
    },
    {
      "midi": 59,
      "hit": false,
      "t": 125763.47984374997,
      "d": 216.3445312499971,
      "v": 127
    },
    {
      "midi": 55,
      "hit": false,
      "t": 125782.71046874997,
      "d": 197.11390625000058,
      "v": 116
    },
    {
      "midi": 59,
      "hit": false,
      "t": 125989.43968749997,
      "d": 230.76750000000175,
      "v": 127
    },
    {
      "midi": 55,
      "hit": false,
      "t": 126013.47796874997,
      "d": 206.72921874999884,
      "v": 116
    },
    {
      "midi": 59,
      "hit": false,
      "t": 126225.01484374997,
      "d": 216.3445312499971,
      "v": 127
    },
    {
      "midi": 55,
      "hit": false,
      "t": 126244.24546874997,
      "d": 197.11390625000058,
      "v": 116
    },
    {
      "midi": 59,
      "hit": false,
      "t": 126450.97468749997,
      "d": 451.91968750000524,
      "v": 127
    },
    {
      "midi": 55,
      "hit": false,
      "t": 126475.01296874997,
      "d": 427.8814062500023,
      "v": 116
    },
    {
      "midi": 62,
      "hit": false,
      "t": 126912.50968749997,
      "d": 221.1521875000035,
      "v": 127
    },
    {
      "midi": 59,
      "hit": false,
      "t": 126936.54796874998,
      "d": 197.11390625000058,
      "v": 116
    },
    {
      "midi": 62,
      "hit": false,
      "t": 127148.08484374998,
      "d": 447.11203124999884,
      "v": 127
    },
    {
      "midi": 59,
      "hit": false,
      "t": 127167.31546874998,
      "d": 427.8814062500023,
      "v": 116
    },
    {
      "midi": 62,
      "hit": false,
      "t": 127604.81218749998,
      "d": 451.91968750000524,
      "v": 127
    },
    {
      "midi": 59,
      "hit": false,
      "t": 127628.85046874998,
      "d": 427.8814062500023,
      "v": 116
    },
    {
      "midi": 62,
      "hit": false,
      "t": 128071.15484374999,
      "d": 216.3445312499971,
      "v": 127
    },
    {
      "midi": 59,
      "hit": false,
      "t": 128090.38546874998,
      "d": 197.11390625000058,
      "v": 116
    },
    {
      "midi": 64,
      "hit": false,
      "t": 128297.11468749998,
      "d": 451.91968750000524,
      "v": 127
    },
    {
      "midi": 59,
      "hit": false,
      "t": 128321.15296874999,
      "d": 427.8814062500023,
      "v": 116
    },
    {
      "midi": 62,
      "hit": false,
      "t": 128763.45734375,
      "d": 447.11203124999884,
      "v": 127
    },
    {
      "midi": 59,
      "hit": false,
      "t": 128782.68796874999,
      "d": 427.8814062500023,
      "v": 116
    },
    {
      "midi": 66,
      "hit": false,
      "t": 129220.18468749999,
      "d": 1836.5246875000012,
      "v": 127
    },
    {
      "midi": 62,
      "hit": false,
      "t": 129244.22296875,
      "d": 2.4038281249959255,
      "v": 98
    },
    {
      "midi": 69,
      "hit": false,
      "t": 131066.32468749999,
      "d": 1384.6049999999814,
      "v": 127
    },
    {
      "midi": 66,
      "hit": false,
      "t": 131090.36296874998,
      "d": 1360.566718749993,
      "v": 116
    },
    {
      "midi": 62,
      "hit": false,
      "t": 132686.50484374998,
      "d": 216.34453124998254,
      "v": 127
    },
    {
      "midi": 57,
      "hit": false,
      "t": 132705.73546874998,
      "d": 197.11390624998603,
      "v": 116
    },
    {
      "midi": 71,
      "hit": false,
      "t": 132917.27234374997,
      "d": 216.34453125001164,
      "v": 127
    },
    {
      "midi": 66,
      "hit": false,
      "t": 132936.50296874996,
      "d": 2.4038281250104774,
      "v": 116
    },
    {
      "midi": 67,
      "hit": false,
      "t": 132941.31062499998,
      "d": 192.30624999999418,
      "v": 98
    },
    {
      "midi": 69,
      "hit": false,
      "t": 133148.03984374998,
      "d": 216.34453124998254,
      "v": 127
    },
    {
      "midi": 62,
      "hit": false,
      "t": 133167.27046874998,
      "d": 197.11390624998603,
      "v": 116
    },
    {
      "midi": 67,
      "hit": false,
      "t": 133373.99968749998,
      "d": 1374.9896874999977,
      "v": 127
    },
    {
      "midi": 62,
      "hit": false,
      "t": 133398.03796874997,
      "d": 1350.9514062500093,
      "v": 116
    },
    {
      "midi": 62,
      "hit": false,
      "t": 134994.17984374997,
      "d": 216.34453124998254,
      "v": 127
    },
    {
      "midi": 59,
      "hit": false,
      "t": 135013.41046874996,
      "d": 197.11390624998603,
      "v": 116
    },
    {
      "midi": 71,
      "hit": false,
      "t": 135224.94734374995,
      "d": 216.34453124998254,
      "v": 127
    },
    {
      "midi": 67,
      "hit": false,
      "t": 135244.17796874995,
      "d": 197.11390624998603,
      "v": 116
    },
    {
      "midi": 74,
      "hit": false,
      "t": 135450.90718749995,
      "d": 221.1521874999744,
      "v": 127
    },
    {
      "midi": 71,
      "hit": false,
      "t": 135474.94546874994,
      "d": 197.11390624998603,
      "v": 116
    },
    {
      "midi": 73,
      "hit": false,
      "t": 135681.67468749994,
      "d": 451.9196874999907,
      "v": 127
    },
    {
      "midi": 67,
      "hit": false,
      "t": 135705.71296874993,
      "d": 427.8814062500023,
      "v": 116
    },
    {
      "midi": 71,
      "hit": false,
      "t": 136143.20968749994,
      "d": 461.5349999999744,
      "v": 127
    },
    {
      "midi": 67,
      "hit": false,
      "t": 136167.24796874993,
      "d": 437.49671874998603,
      "v": 116
    },
    {
      "midi": 69,
      "hit": false,
      "t": 136609.5523437499,
      "d": 225.95984375002445,
      "v": 127
    },
    {
      "midi": 62,
      "hit": false,
      "t": 136628.7829687499,
      "d": 2.4038281250104774,
      "v": 116
    },
    {
      "midi": 66,
      "hit": false,
      "t": 136633.59062499992,
      "d": 201.92156250000698,
      "v": 98
    },
    {
      "midi": 67,
      "hit": false,
      "t": 136840.31984374992,
      "d": 225.95984374999534,
      "v": 127
    },
    {
      "midi": 62,
      "hit": false,
      "t": 136859.55046874992,
      "d": 206.72921874999884,
      "v": 116
    },
    {
      "midi": 66,
      "hit": false,
      "t": 137071.0873437499,
      "d": 1370.1820312500058,
      "v": 127
    },
    {
      "midi": 62,
      "hit": false,
      "t": 137090.3179687499,
      "d": 1350.9514062500093,
      "v": 116
    },
    {
      "midi": 62,
      "hit": false,
      "t": 138686.4598437499,
      "d": 225.95984374999534,
      "v": 127
    },
    {
      "midi": 57,
      "hit": false,
      "t": 138705.6904687499,
      "d": 206.72921874999884,
      "v": 116
    },
    {
      "midi": 66,
      "hit": false,
      "t": 138917.2273437499,
      "d": 216.34453124998254,
      "v": 127
    },
    {
      "midi": 62,
      "hit": false,
      "t": 138936.4579687499,
      "d": 197.11390624998603,
      "v": 116
    },
    {
      "midi": 69,
      "hit": false,
      "t": 139147.99484374988,
      "d": 216.34453124998254,
      "v": 127
    },
    {
      "midi": 66,
      "hit": false,
      "t": 139167.22546874988,
      "d": 197.11390624998603,
      "v": 116
    },
    {
      "midi": 67,
      "hit": false,
      "t": 139378.76234374987,
      "d": 447.11203124999884,
      "v": 127
    },
    {
      "midi": 62,
      "hit": false,
      "t": 139397.99296874987,
      "d": 427.8814062500023,
      "v": 116
    },
    {
      "midi": 66,
      "hit": false,
      "t": 139840.29734374987,
      "d": 447.11203124999884,
      "v": 127
    },
    {
      "midi": 62,
      "hit": false,
      "t": 139859.52796874987,
      "d": 427.8814062500023,
      "v": 116
    },
    {
      "midi": 69,
      "hit": false,
      "t": 140301.83234374988,
      "d": 1841.332343749993,
      "v": 127
    },
    {
      "midi": 64,
      "hit": false,
      "t": 140325.87062499986,
      "d": 2.4038281250104774,
      "v": 98
    },
    {
      "midi": 62,
      "hit": false,
      "t": 142373.93218749986,
      "d": 221.1521874999744,
      "v": 127
    },
    {
      "midi": 59,
      "hit": false,
      "t": 142397.97046874985,
      "d": 197.11390624998603,
      "v": 116
    },
    {
      "midi": 62,
      "hit": false,
      "t": 142604.69968749984,
      "d": 230.7674999999872,
      "v": 127
    },
    {
      "midi": 59,
      "hit": false,
      "t": 142628.73796874983,
      "d": 206.72921874999884,
      "v": 116
    },
    {
      "midi": 62,
      "hit": false,
      "t": 142840.27484374982,
      "d": 216.34453124998254,
      "v": 127
    },
    {
      "midi": 59,
      "hit": false,
      "t": 142859.50546874982,
      "d": 197.11390624998603,
      "v": 116
    },
    {
      "midi": 67,
      "hit": false,
      "t": 143066.23468749982,
      "d": 461.5349999999744,
      "v": 127
    },
    {
      "midi": 62,
      "hit": false,
      "t": 143090.2729687498,
      "d": 437.49671874998603,
      "v": 116
    },
    {
      "midi": 71,
      "hit": false,
      "t": 143532.57734374978,
      "d": 456.72734374998254,
      "v": 127
    },
    {
      "midi": 67,
      "hit": false,
      "t": 143551.80796874978,
      "d": 437.49671874998603,
      "v": 116
    },
    {
      "midi": 71,
      "hit": false,
      "t": 143994.11234374976,
      "d": 908.6470312500314,
      "v": 127
    },
    {
      "midi": 67,
      "hit": false,
      "t": 144013.34296874976,
      "d": 2.4038281250104774,
      "v": 116
    },
    {
      "midi": 66,
      "hit": false,
      "t": 144018.15062499978,
      "d": 884.608750000014,
      "v": 98
    },
    {
      "midi": 69,
      "hit": false,
      "t": 144917.1823437498,
      "d": 1831.7170312500093,
      "v": 127
    },
    {
      "midi": 66,
      "hit": false,
      "t": 144936.4129687498,
      "d": 1812.4864062500128,
      "v": 116
    },
    {
      "midi": 62,
      "hit": false,
      "t": 147450.8171874998,
      "d": 221.1521874999744,
      "v": 127
    },
    {
      "midi": 57,
      "hit": false,
      "t": 147474.8554687498,
      "d": 197.11390624998603,
      "v": 116
    },
    {
      "midi": 71,
      "hit": false,
      "t": 147681.5846874998,
      "d": 221.1521875000035,
      "v": 127
    },
    {
      "midi": 67,
      "hit": false,
      "t": 147710.4306249998,
      "d": 192.30624999999418,
      "v": 98
    },
    {
      "midi": 69,
      "hit": false,
      "t": 147912.3521874998,
      "d": 221.1521874999744,
      "v": 127
    },
    {
      "midi": 62,
      "hit": false,
      "t": 147936.3904687498,
      "d": 197.11390624998603,
      "v": 116
    },
    {
      "midi": 67,
      "hit": false,
      "t": 148143.1196874998,
      "d": 1374.9896874999977,
      "v": 127
    },
    {
      "midi": 62,
      "hit": false,
      "t": 148167.1579687498,
      "d": 1350.9514062500093,
      "v": 116
    },
    {
      "midi": 62,
      "hit": false,
      "t": 149763.2998437498,
      "d": 216.34453124998254,
      "v": 127
    },
    {
      "midi": 59,
      "hit": false,
      "t": 149782.53046874978,
      "d": 197.11390624998603,
      "v": 116
    },
    {
      "midi": 71,
      "hit": false,
      "t": 149994.06734374978,
      "d": 216.34453124998254,
      "v": 127
    },
    {
      "midi": 67,
      "hit": false,
      "t": 150013.29796874977,
      "d": 197.11390624998603,
      "v": 116
    },
    {
      "midi": 74,
      "hit": false,
      "t": 150220.02718749977,
      "d": 221.1521874999744,
      "v": 127
    },
    {
      "midi": 71,
      "hit": false,
      "t": 150244.06546874976,
      "d": 197.11390624998603,
      "v": 116
    },
    {
      "midi": 73,
      "hit": false,
      "t": 150455.60234374975,
      "d": 447.11203124999884,
      "v": 127
    },
    {
      "midi": 67,
      "hit": false,
      "t": 150474.83296874975,
      "d": 427.8814062500023,
      "v": 116
    },
    {
      "midi": 71,
      "hit": false,
      "t": 150917.13734374975,
      "d": 447.11203124999884,
      "v": 127
    },
    {
      "midi": 67,
      "hit": false,
      "t": 150936.36796874975,
      "d": 427.8814062500023,
      "v": 116
    },
    {
      "midi": 69,
      "hit": false,
      "t": 151373.86468749976,
      "d": 221.1521875000035,
      "v": 127
    },
    {
      "midi": 62,
      "hit": false,
      "t": 151397.90296874975,
      "d": 2.4038281250104774,
      "v": 116
    },
    {
      "midi": 66,
      "hit": false,
      "t": 151402.71062499977,
      "d": 192.30624999999418,
      "v": 98
    },
    {
      "midi": 67,
      "hit": false,
      "t": 151604.63218749978,
      "d": 221.1521874999744,
      "v": 127
    },
    {
      "midi": 62,
      "hit": false,
      "t": 151628.67046874977,
      "d": 197.11390624998603,
      "v": 116
    },
    {
      "midi": 66,
      "hit": false,
      "t": 151835.39968749977,
      "d": 1384.6049999999814,
      "v": 127
    },
    {
      "midi": 62,
      "hit": false,
      "t": 151859.43796874976,
      "d": 1360.566718749993,
      "v": 116
    },
    {
      "midi": 62,
      "hit": false,
      "t": 153455.57984374976,
      "d": 216.34453124998254,
      "v": 127
    },
    {
      "midi": 57,
      "hit": false,
      "t": 153474.81046874975,
      "d": 197.11390624998603,
      "v": 116
    },
    {
      "midi": 66,
      "hit": false,
      "t": 153681.53968749975,
      "d": 221.1521875000035,
      "v": 127
    },
    {
      "midi": 62,
      "hit": false,
      "t": 153710.38562499976,
      "d": 192.30624999999418,
      "v": 116
    },
    {
      "midi": 69,
      "hit": false,
      "t": 153917.11484374976,
      "d": 216.34453124998254,
      "v": 127
    },
    {
      "midi": 66,
      "hit": false,
      "t": 153936.34546874976,
      "d": 197.11390624998603,
      "v": 116
    },
    {
      "midi": 67,
      "hit": false,
      "t": 154143.07468749976,
      "d": 451.9196874999907,
      "v": 127
    },
    {
      "midi": 62,
      "hit": false,
      "t": 154167.11296874975,
      "d": 427.8814062500023,
      "v": 116
    },
    {
      "midi": 66,
      "hit": false,
      "t": 154609.41734374975,
      "d": 447.11203124999884,
      "v": 127
    },
    {
      "midi": 62,
      "hit": false,
      "t": 154628.64796874975,
      "d": 427.8814062500023,
      "v": 116
    },
    {
      "midi": 69,
      "hit": false,
      "t": 155066.14468749976,
      "d": 1836.5246875000012,
      "v": 127
    },
    {
      "midi": 66,
      "hit": false,
      "t": 155090.18296874975,
      "d": 2.4038281250104774,
      "v": 116
    },
    {
      "midi": 64,
      "hit": false,
      "t": 155094.99062499977,
      "d": 1807.6787499999919,
      "v": 98
    },
    {
      "midi": 62,
      "hit": false,
      "t": 157609.39484374976,
      "d": 225.95984374999534,
      "v": 127
    },
    {
      "midi": 59,
      "hit": false,
      "t": 157628.62546874976,
      "d": 206.72921874999884,
      "v": 116
    },
    {
      "midi": 67,
      "hit": false,
      "t": 157840.16234374975,
      "d": 456.72734374998254,
      "v": 127
    },
    {
      "midi": 62,
      "hit": false,
      "t": 157859.39296874974,
      "d": 437.49671874998603,
      "v": 116
    },
    {
      "midi": 66,
      "hit": false,
      "t": 158301.69734374972,
      "d": 447.11203124999884,
      "v": 127
    },
    {
      "midi": 62,
      "hit": false,
      "t": 158320.92796874972,
      "d": 427.8814062500023,
      "v": 116
    },
    {
      "midi": 64,
      "hit": false,
      "t": 158763.23234374973,
      "d": 908.6470312500314,
      "v": 127
    },
    {
      "midi": 59,
      "hit": false,
      "t": 158782.46296874972,
      "d": 2.4038281250104774,
      "v": 116
    },
    {
      "midi": 57,
      "hit": false,
      "t": 158787.27062499974,
      "d": 884.608750000014,
      "v": 98
    },
    {
      "midi": 62,
      "hit": false,
      "t": 159686.30234374976,
      "d": 1831.7170312500093,
      "v": 127
    },
    {
      "midi": 57,
      "hit": false,
      "t": 159705.53296874976,
      "d": 1812.4864062500128,
      "v": 116
    },
    {
      "midi": 66,
      "hit": false,
      "t": 162219.93718749977,
      "d": 221.1521874999744,
      "v": 127
    },
    {
      "midi": 62,
      "hit": false,
      "t": 162243.97546874976,
      "d": 197.11390624998603,
      "v": 116
    },
    {
      "midi": 69,
      "hit": false,
      "t": 162450.70468749976,
      "d": 923.070000000007,
      "v": 127
    },
    {
      "midi": 57,
      "hit": false,
      "t": 162460.32000000018,
      "d": 1144.2221875000105,
      "v": 84
    },
    {
      "midi": 61,
      "hit": false,
      "t": 162460.32000000018,
      "d": 1144.2221875000105,
      "v": 84
    },
    {
      "midi": 64,
      "hit": false,
      "t": 162460.32000000018,
      "d": 1144.2221875000105,
      "v": 84
    },
    {
      "midi": 69,
      "hit": false,
      "t": 162460.32000000018,
      "d": 1144.2221875000105,
      "v": 84
    },
    {
      "midi": 66,
      "hit": false,
      "t": 162474.74296874975,
      "d": 2.4038281250104774,
      "v": 116
    },
    {
      "midi": 64,
      "hit": false,
      "t": 162479.55062499977,
      "d": 894.2240624999977,
      "v": 98
    },
    {
      "midi": 69,
      "hit": false,
      "t": 163378.58234374976,
      "d": 1831.7170312500093,
      "v": 127
    },
    {
      "midi": 64,
      "hit": false,
      "t": 163397.81296874976,
      "d": 1812.4864062500128,
      "v": 116
    },
    {
      "midi": 69,
      "hit": false,
      "t": 164075.69250000018,
      "d": 57.69187499998952,
      "v": 84
    },
    {
      "midi": 73,
      "hit": false,
      "t": 164075.69250000018,
      "d": 57.69187499998952,
      "v": 84
    },
    {
      "midi": 76,
      "hit": false,
      "t": 164075.69250000018,
      "d": 57.69187499998952,
      "v": 84
    },
    {
      "midi": 81,
      "hit": false,
      "t": 164075.69250000018,
      "d": 57.69187499998952,
      "v": 84
    },
    {
      "midi": 69,
      "hit": false,
      "t": 164191.07625000016,
      "d": 57.69187499998952,
      "v": 84
    },
    {
      "midi": 73,
      "hit": false,
      "t": 164191.07625000016,
      "d": 57.69187499998952,
      "v": 84
    },
    {
      "midi": 76,
      "hit": false,
      "t": 164191.07625000016,
      "d": 57.69187499998952,
      "v": 84
    },
    {
      "midi": 81,
      "hit": false,
      "t": 164191.07625000016,
      "d": 57.69187499998952,
      "v": 84
    },
    {
      "midi": 69,
      "hit": false,
      "t": 164306.46000000014,
      "d": 451.9196874999907,
      "v": 84
    },
    {
      "midi": 73,
      "hit": false,
      "t": 164306.46000000014,
      "d": 451.9196874999907,
      "v": 84
    },
    {
      "midi": 76,
      "hit": false,
      "t": 164306.46000000014,
      "d": 451.9196874999907,
      "v": 84
    },
    {
      "midi": 81,
      "hit": false,
      "t": 164306.46000000014,
      "d": 451.9196874999907,
      "v": 84
    },
    {
      "midi": 69,
      "hit": false,
      "t": 164998.76250000013,
      "d": 57.69187499998952,
      "v": 84
    },
    {
      "midi": 81,
      "hit": false,
      "t": 164998.76250000013,
      "d": 57.69187499998952,
      "v": 84
    },
    {
      "midi": 85,
      "hit": false,
      "t": 164998.76250000013,
      "d": 57.69187499998952,
      "v": 84
    },
    {
      "midi": 88,
      "hit": false,
      "t": 164998.76250000013,
      "d": 57.69187499998952,
      "v": 84
    },
    {
      "midi": 69,
      "hit": false,
      "t": 165114.1462500001,
      "d": 57.69187499998952,
      "v": 84
    },
    {
      "midi": 81,
      "hit": false,
      "t": 165114.1462500001,
      "d": 57.69187499998952,
      "v": 84
    },
    {
      "midi": 85,
      "hit": false,
      "t": 165114.1462500001,
      "d": 57.69187499998952,
      "v": 84
    },
    {
      "midi": 88,
      "hit": false,
      "t": 165114.1462500001,
      "d": 57.69187499998952,
      "v": 84
    },
    {
      "midi": 69,
      "hit": false,
      "t": 165229.5300000001,
      "d": 682.687187500007,
      "v": 84
    },
    {
      "midi": 81,
      "hit": false,
      "t": 165229.5300000001,
      "d": 682.687187500007,
      "v": 84
    },
    {
      "midi": 85,
      "hit": false,
      "t": 165229.5300000001,
      "d": 682.687187500007,
      "v": 84
    },
    {
      "midi": 88,
      "hit": false,
      "t": 165229.5300000001,
      "d": 682.687187500007,
      "v": 84
    },
    {
      "midi": 69,
      "hit": false,
      "t": 165917.02484374976,
      "d": 216.34453124998254,
      "v": 127
    },
    {
      "midi": 64,
      "hit": false,
      "t": 165936.25546874976,
      "d": 197.11390624998603,
      "v": 115
    },
    {
      "midi": 74,
      "hit": false,
      "t": 166147.79234374975,
      "d": 908.6470312500314,
      "v": 127
    },
    {
      "midi": 59,
      "hit": false,
      "t": 166152.6000000001,
      "d": 1144.2221875000105,
      "v": 84
    },
    {
      "midi": 62,
      "hit": false,
      "t": 166152.6000000001,
      "d": 1144.2221875000105,
      "v": 84
    },
    {
      "midi": 66,
      "hit": false,
      "t": 166152.6000000001,
      "d": 1144.2221875000105,
      "v": 84
    },
    {
      "midi": 71,
      "hit": false,
      "t": 166152.6000000001,
      "d": 1144.2221875000105,
      "v": 84
    },
    {
      "midi": 69,
      "hit": false,
      "t": 166167.02296874975,
      "d": 2.4038281250104774,
      "v": 116
    },
    {
      "midi": 71,
      "hit": false,
      "t": 166171.83062499977,
      "d": 884.608750000014,
      "v": 98
    },
    {
      "midi": 74,
      "hit": false,
      "t": 167066.0546874998,
      "d": 1836.5246875000012,
      "v": 127
    },
    {
      "midi": 71,
      "hit": false,
      "t": 167090.09296874978,
      "d": 1812.4864062500128,
      "v": 116
    },
    {
      "midi": 71,
      "hit": false,
      "t": 167767.9725000001,
      "d": 57.69187499998952,
      "v": 84
    },
    {
      "midi": 74,
      "hit": false,
      "t": 167767.9725000001,
      "d": 57.69187499998952,
      "v": 84
    },
    {
      "midi": 78,
      "hit": false,
      "t": 167767.9725000001,
      "d": 57.69187499998952,
      "v": 84
    },
    {
      "midi": 83,
      "hit": false,
      "t": 167767.9725000001,
      "d": 57.69187499998952,
      "v": 84
    },
    {
      "midi": 71,
      "hit": false,
      "t": 167883.35625000007,
      "d": 57.69187499998952,
      "v": 84
    },
    {
      "midi": 74,
      "hit": false,
      "t": 167883.35625000007,
      "d": 57.69187499998952,
      "v": 84
    },
    {
      "midi": 78,
      "hit": false,
      "t": 167883.35625000007,
      "d": 57.69187499998952,
      "v": 84
    },
    {
      "midi": 83,
      "hit": false,
      "t": 167883.35625000007,
      "d": 57.69187499998952,
      "v": 84
    },
    {
      "midi": 71,
      "hit": false,
      "t": 167998.74000000005,
      "d": 451.9196874999907,
      "v": 84
    },
    {
      "midi": 74,
      "hit": false,
      "t": 167998.74000000005,
      "d": 451.9196874999907,
      "v": 84
    },
    {
      "midi": 78,
      "hit": false,
      "t": 167998.74000000005,
      "d": 451.9196874999907,
      "v": 84
    },
    {
      "midi": 83,
      "hit": false,
      "t": 167998.74000000005,
      "d": 451.9196874999907,
      "v": 84
    },
    {
      "midi": 71,
      "hit": false,
      "t": 168691.04250000004,
      "d": 57.69187499998952,
      "v": 84
    },
    {
      "midi": 83,
      "hit": false,
      "t": 168691.04250000004,
      "d": 57.69187499998952,
      "v": 84
    },
    {
      "midi": 86,
      "hit": false,
      "t": 168691.04250000004,
      "d": 57.69187499998952,
      "v": 84
    },
    {
      "midi": 90,
      "hit": false,
      "t": 168691.04250000004,
      "d": 57.69187499998952,
      "v": 84
    },
    {
      "midi": 71,
      "hit": false,
      "t": 168806.42625000002,
      "d": 57.69187499998952,
      "v": 84
    },
    {
      "midi": 83,
      "hit": false,
      "t": 168806.42625000002,
      "d": 57.69187499998952,
      "v": 84
    },
    {
      "midi": 86,
      "hit": false,
      "t": 168806.42625000002,
      "d": 57.69187499998952,
      "v": 84
    },
    {
      "midi": 90,
      "hit": false,
      "t": 168806.42625000002,
      "d": 57.69187499998952,
      "v": 84
    },
    {
      "midi": 71,
      "hit": false,
      "t": 168921.81,
      "d": 682.687187500007,
      "v": 84
    },
    {
      "midi": 83,
      "hit": false,
      "t": 168921.81,
      "d": 682.687187500007,
      "v": 84
    },
    {
      "midi": 86,
      "hit": false,
      "t": 168921.81,
      "d": 682.687187500007,
      "v": 84
    },
    {
      "midi": 90,
      "hit": false,
      "t": 168921.81,
      "d": 682.687187500007,
      "v": 84
    },
    {
      "midi": 55,
      "hit": false,
      "t": 169844.88,
      "d": 1144.2221875000105,
      "v": 84
    },
    {
      "midi": 59,
      "hit": false,
      "t": 169844.88,
      "d": 1144.2221875000105,
      "v": 84
    },
    {
      "midi": 62,
      "hit": false,
      "t": 169844.88,
      "d": 1144.2221875000105,
      "v": 84
    },
    {
      "midi": 74,
      "hit": false,
      "t": 170296.7996874998,
      "d": 451.9196874999907,
      "v": 127
    },
    {
      "midi": 71,
      "hit": false,
      "t": 170320.83796874978,
      "d": 427.8814062500023,
      "v": 116
    },
    {
      "midi": 74,
      "hit": false,
      "t": 170763.1423437498,
      "d": 447.11203124999884,
      "v": 127
    },
    {
      "midi": 71,
      "hit": false,
      "t": 170782.37296874978,
      "d": 427.8814062500023,
      "v": 116
    },
    {
      "midi": 74,
      "hit": false,
      "t": 171219.8696874998,
      "d": 451.9196874999907,
      "v": 127
    },
    {
      "midi": 71,
      "hit": false,
      "t": 171243.9079687498,
      "d": 427.8814062500023,
      "v": 116
    },
    {
      "midi": 73,
      "hit": false,
      "t": 171681.4046874998,
      "d": 923.070000000007,
      "v": 127
    },
    {
      "midi": 57,
      "hit": false,
      "t": 171691.02000000002,
      "d": 1144.2221875000105,
      "v": 84
    },
    {
      "midi": 61,
      "hit": false,
      "t": 171691.02000000002,
      "d": 1144.2221875000105,
      "v": 84
    },
    {
      "midi": 64,
      "hit": false,
      "t": 171691.02000000002,
      "d": 1144.2221875000105,
      "v": 84
    },
    {
      "midi": 67,
      "hit": false,
      "t": 171705.4429687498,
      "d": 2.4038281250104774,
      "v": 116
    },
    {
      "midi": 69,
      "hit": false,
      "t": 171710.2506249998,
      "d": 894.2240624999977,
      "v": 98
    },
    {
      "midi": 71,
      "hit": false,
      "t": 172609.2823437498,
      "d": 447.11203124999884,
      "v": 127
    },
    {
      "midi": 64,
      "hit": false,
      "t": 172628.5129687498,
      "d": 427.8814062500023,
      "v": 116
    },
    {
      "midi": 69,
      "hit": false,
      "t": 173066.0096874998,
      "d": 221.1521874999744,
      "v": 127
    },
    {
      "midi": 64,
      "hit": false,
      "t": 173090.0479687498,
      "d": 197.11390624998603,
      "v": 116
    },
    {
      "midi": 67,
      "hit": false,
      "t": 173301.5848437498,
      "d": 216.34453124998254,
      "v": 127
    },
    {
      "midi": 64,
      "hit": false,
      "t": 173320.8154687498,
      "d": 197.11390624998603,
      "v": 116
    },
    {
      "midi": 69,
      "hit": false,
      "t": 173527.5446874998,
      "d": 451.9196875000198,
      "v": 127
    },
    {
      "midi": 62,
      "hit": false,
      "t": 173537.16000000003,
      "d": 1144.2221875000105,
      "v": 84
    },
    {
      "midi": 66,
      "hit": false,
      "t": 173537.16000000003,
      "d": 1144.2221875000105,
      "v": 84
    },
    {
      "midi": 69,
      "hit": false,
      "t": 173537.16000000003,
      "d": 1144.2221875000105,
      "v": 84
    },
    {
      "midi": 66,
      "hit": false,
      "t": 173556.3906249998,
      "d": 2.4038281250104774,
      "v": 98
    },
    {
      "midi": 66,
      "hit": false,
      "t": 173989.07968749982,
      "d": 221.1521874999744,
      "v": 127
    },
    {
      "midi": 62,
      "hit": false,
      "t": 174013.1179687498,
      "d": 197.11390624998603,
      "v": 116
    },
    {
      "midi": 62,
      "hit": false,
      "t": 174219.8471874998,
      "d": 2067.2921874999884,
      "v": 127
    },
    {
      "midi": 57,
      "hit": false,
      "t": 174243.8854687498,
      "d": 1153.8374999999942,
      "v": 116
    },
    {
      "midi": 59,
      "hit": false,
      "t": 175383.30000000005,
      "d": 798.070937499986,
      "v": 84
    },
    {
      "midi": 62,
      "hit": false,
      "t": 175383.30000000005,
      "d": 798.070937499986,
      "v": 84
    },
    {
      "midi": 66,
      "hit": false,
      "t": 175383.30000000005,
      "d": 798.070937499986,
      "v": 84
    },
    {
      "midi": 59,
      "hit": false,
      "t": 175402.53062499978,
      "d": 884.608750000014,
      "v": 98
    },
    {
      "midi": 59,
      "hit": false,
      "t": 176306.37000000002,
      "d": 798.070937499986,
      "v": 84
    },
    {
      "midi": 62,
      "hit": false,
      "t": 176306.37000000002,
      "d": 798.070937499986,
      "v": 84
    },
    {
      "midi": 67,
      "hit": false,
      "t": 176306.37000000002,
      "d": 798.070937499986,
      "v": 84
    },
    {
      "midi": 66,
      "hit": false,
      "t": 176989.0571874998,
      "d": 221.1521874999744,
      "v": 127
    },
    {
      "midi": 62,
      "hit": false,
      "t": 177013.0954687498,
      "d": 197.11390624998603,
      "v": 116
    },
    {
      "midi": 69,
      "hit": false,
      "t": 177219.8246874998,
      "d": 913.4546875000233,
      "v": 127
    },
    {
      "midi": 57,
      "hit": false,
      "t": 177229.44,
      "d": 1144.2221875000105,
      "v": 84
    },
    {
      "midi": 61,
      "hit": false,
      "t": 177229.44,
      "d": 1144.2221875000105,
      "v": 84
    },
    {
      "midi": 64,
      "hit": false,
      "t": 177229.44,
      "d": 1144.2221875000105,
      "v": 84
    },
    {
      "midi": 69,
      "hit": false,
      "t": 177229.44,
      "d": 1144.2221875000105,
      "v": 84
    },
    {
      "midi": 62,
      "hit": false,
      "t": 177243.86296874977,
      "d": 2.4038281250104774,
      "v": 116
    },
    {
      "midi": 64,
      "hit": false,
      "t": 177248.6706249998,
      "d": 884.608750000014,
      "v": 98
    },
    {
      "midi": 69,
      "hit": false,
      "t": 178142.89468749982,
      "d": 923.0699999999779,
      "v": 127
    },
    {
      "midi": 64,
      "hit": false,
      "t": 178166.9329687498,
      "d": 899.0317187499895,
      "v": 116
    },
    {
      "midi": 69,
      "hit": false,
      "t": 178844.8125,
      "d": 57.69187499998952,
      "v": 84
    },
    {
      "midi": 73,
      "hit": false,
      "t": 178844.8125,
      "d": 57.69187499998952,
      "v": 84
    },
    {
      "midi": 76,
      "hit": false,
      "t": 178844.8125,
      "d": 57.69187499998952,
      "v": 84
    },
    {
      "midi": 81,
      "hit": false,
      "t": 178844.8125,
      "d": 57.69187499998952,
      "v": 84
    },
    {
      "midi": 69,
      "hit": false,
      "t": 178960.19624999998,
      "d": 57.69187499998952,
      "v": 84
    },
    {
      "midi": 73,
      "hit": false,
      "t": 178960.19624999998,
      "d": 57.69187499998952,
      "v": 84
    },
    {
      "midi": 76,
      "hit": false,
      "t": 178960.19624999998,
      "d": 57.69187499998952,
      "v": 84
    },
    {
      "midi": 81,
      "hit": false,
      "t": 178960.19624999998,
      "d": 57.69187499998952,
      "v": 84
    },
    {
      "midi": 69,
      "hit": false,
      "t": 179075.57999999996,
      "d": 451.9196874999907,
      "v": 84
    },
    {
      "midi": 73,
      "hit": false,
      "t": 179075.57999999996,
      "d": 451.9196874999907,
      "v": 84
    },
    {
      "midi": 76,
      "hit": false,
      "t": 179075.57999999996,
      "d": 451.9196874999907,
      "v": 84
    },
    {
      "midi": 81,
      "hit": false,
      "t": 179075.57999999996,
      "d": 451.9196874999907,
      "v": 84
    },
    {
      "midi": 69,
      "hit": false,
      "t": 179767.88249999995,
      "d": 57.69187499998952,
      "v": 84
    },
    {
      "midi": 81,
      "hit": false,
      "t": 179767.88249999995,
      "d": 57.69187499998952,
      "v": 84
    },
    {
      "midi": 85,
      "hit": false,
      "t": 179767.88249999995,
      "d": 57.69187499998952,
      "v": 84
    },
    {
      "midi": 88,
      "hit": false,
      "t": 179767.88249999995,
      "d": 57.69187499998952,
      "v": 84
    },
    {
      "midi": 69,
      "hit": false,
      "t": 179883.26624999993,
      "d": 57.69187499998952,
      "v": 84
    },
    {
      "midi": 81,
      "hit": false,
      "t": 179883.26624999993,
      "d": 57.69187499998952,
      "v": 84
    },
    {
      "midi": 85,
      "hit": false,
      "t": 179883.26624999993,
      "d": 57.69187499998952,
      "v": 84
    },
    {
      "midi": 88,
      "hit": false,
      "t": 179883.26624999993,
      "d": 57.69187499998952,
      "v": 84
    },
    {
      "midi": 69,
      "hit": false,
      "t": 179998.6499999999,
      "d": 682.687187500007,
      "v": 84
    },
    {
      "midi": 81,
      "hit": false,
      "t": 179998.6499999999,
      "d": 682.687187500007,
      "v": 84
    },
    {
      "midi": 85,
      "hit": false,
      "t": 179998.6499999999,
      "d": 682.687187500007,
      "v": 84
    },
    {
      "midi": 88,
      "hit": false,
      "t": 179998.6499999999,
      "d": 682.687187500007,
      "v": 84
    },
    {
      "midi": 69,
      "hit": false,
      "t": 180686.1448437498,
      "d": 216.34453124998254,
      "v": 127
    },
    {
      "midi": 64,
      "hit": false,
      "t": 180705.3754687498,
      "d": 197.11390624998603,
      "v": 115
    },
    {
      "midi": 74,
      "hit": false,
      "t": 180912.10468749978,
      "d": 913.4546874999942,
      "v": 127
    },
    {
      "midi": 59,
      "hit": false,
      "t": 180921.7199999999,
      "d": 1144.2221875000105,
      "v": 84
    },
    {
      "midi": 62,
      "hit": false,
      "t": 180921.7199999999,
      "d": 1144.2221875000105,
      "v": 84
    },
    {
      "midi": 66,
      "hit": false,
      "t": 180921.7199999999,
      "d": 1144.2221875000105,
      "v": 84
    },
    {
      "midi": 71,
      "hit": false,
      "t": 180921.7199999999,
      "d": 1144.2221875000105,
      "v": 84
    },
    {
      "midi": 71,
      "hit": false,
      "t": 180936.14296874977,
      "d": 889.4164062500058,
      "v": 98
    },
    {
      "midi": 69,
      "hit": false,
      "t": 180936.14296874977,
      "d": 908.6470312500314,
      "v": 116
    },
    {
      "midi": 74,
      "hit": false,
      "t": 181835.1746874998,
      "d": 1836.5246875000303,
      "v": 127
    },
    {
      "midi": 71,
      "hit": false,
      "t": 181859.2129687498,
      "d": 1812.4864062500128,
      "v": 116
    },
    {
      "midi": 71,
      "hit": false,
      "t": 182537.0924999999,
      "d": 57.69187499998952,
      "v": 84
    },
    {
      "midi": 74,
      "hit": false,
      "t": 182537.0924999999,
      "d": 57.69187499998952,
      "v": 84
    },
    {
      "midi": 78,
      "hit": false,
      "t": 182537.0924999999,
      "d": 57.69187499998952,
      "v": 84
    },
    {
      "midi": 83,
      "hit": false,
      "t": 182537.0924999999,
      "d": 57.69187499998952,
      "v": 84
    },
    {
      "midi": 71,
      "hit": false,
      "t": 182652.4762499999,
      "d": 57.69187499998952,
      "v": 84
    },
    {
      "midi": 74,
      "hit": false,
      "t": 182652.4762499999,
      "d": 57.69187499998952,
      "v": 84
    },
    {
      "midi": 78,
      "hit": false,
      "t": 182652.4762499999,
      "d": 57.69187499998952,
      "v": 84
    },
    {
      "midi": 83,
      "hit": false,
      "t": 182652.4762499999,
      "d": 57.69187499998952,
      "v": 84
    },
    {
      "midi": 71,
      "hit": false,
      "t": 182767.85999999987,
      "d": 451.9196874999907,
      "v": 84
    },
    {
      "midi": 74,
      "hit": false,
      "t": 182767.85999999987,
      "d": 451.9196874999907,
      "v": 84
    },
    {
      "midi": 78,
      "hit": false,
      "t": 182767.85999999987,
      "d": 451.9196874999907,
      "v": 84
    },
    {
      "midi": 83,
      "hit": false,
      "t": 182767.85999999987,
      "d": 451.9196874999907,
      "v": 84
    },
    {
      "midi": 71,
      "hit": false,
      "t": 183460.16249999986,
      "d": 57.69187499998952,
      "v": 84
    },
    {
      "midi": 83,
      "hit": false,
      "t": 183460.16249999986,
      "d": 57.69187499998952,
      "v": 84
    },
    {
      "midi": 86,
      "hit": false,
      "t": 183460.16249999986,
      "d": 57.69187499998952,
      "v": 84
    },
    {
      "midi": 90,
      "hit": false,
      "t": 183460.16249999986,
      "d": 57.69187499998952,
      "v": 84
    },
    {
      "midi": 71,
      "hit": false,
      "t": 183575.54624999984,
      "d": 57.69187499998952,
      "v": 84
    },
    {
      "midi": 83,
      "hit": false,
      "t": 183575.54624999984,
      "d": 57.69187499998952,
      "v": 84
    },
    {
      "midi": 86,
      "hit": false,
      "t": 183575.54624999984,
      "d": 57.69187499998952,
      "v": 84
    },
    {
      "midi": 90,
      "hit": false,
      "t": 183575.54624999984,
      "d": 57.69187499998952,
      "v": 84
    },
    {
      "midi": 71,
      "hit": false,
      "t": 183690.92999999982,
      "d": 682.687187500007,
      "v": 84
    },
    {
      "midi": 83,
      "hit": false,
      "t": 183690.92999999982,
      "d": 682.687187500007,
      "v": 84
    },
    {
      "midi": 86,
      "hit": false,
      "t": 183690.92999999982,
      "d": 682.687187500007,
      "v": 84
    },
    {
      "midi": 90,
      "hit": false,
      "t": 183690.92999999982,
      "d": 682.687187500007,
      "v": 84
    },
    {
      "midi": 55,
      "hit": false,
      "t": 184613.99999999983,
      "d": 1144.2221875000105,
      "v": 84
    },
    {
      "midi": 59,
      "hit": false,
      "t": 184613.99999999983,
      "d": 1144.2221875000105,
      "v": 84
    },
    {
      "midi": 62,
      "hit": false,
      "t": 184613.99999999983,
      "d": 1144.2221875000105,
      "v": 84
    },
    {
      "midi": 73,
      "hit": false,
      "t": 185763.02984374983,
      "d": 216.34453124998254,
      "v": 127
    },
    {
      "midi": 67,
      "hit": false,
      "t": 185782.26046874982,
      "d": 197.11390624998603,
      "v": 116
    },
    {
      "midi": 73,
      "hit": false,
      "t": 185988.98968749982,
      "d": 221.1521874999744,
      "v": 127
    },
    {
      "midi": 67,
      "hit": false,
      "t": 186013.0279687498,
      "d": 197.11390624998603,
      "v": 116
    },
    {
      "midi": 74,
      "hit": false,
      "t": 186224.5648437498,
      "d": 216.34453124998254,
      "v": 127
    },
    {
      "midi": 71,
      "hit": false,
      "t": 186243.7954687498,
      "d": 197.11390624998603,
      "v": 116
    },
    {
      "midi": 76,
      "hit": false,
      "t": 186455.3323437498,
      "d": 908.6470312500023,
      "v": 127
    },
    {
      "midi": 57,
      "hit": false,
      "t": 186460.13999999984,
      "d": 1144.2221875000105,
      "v": 84
    },
    {
      "midi": 61,
      "hit": false,
      "t": 186460.13999999984,
      "d": 1144.2221875000105,
      "v": 84
    },
    {
      "midi": 64,
      "hit": false,
      "t": 186460.13999999984,
      "d": 1144.2221875000105,
      "v": 84
    },
    {
      "midi": 73,
      "hit": false,
      "t": 186474.5629687498,
      "d": 889.4164062500058,
      "v": 98
    },
    {
      "midi": 71,
      "hit": false,
      "t": 186474.5629687498,
      "d": 908.6470312500314,
      "v": 116
    },
    {
      "midi": 73,
      "hit": false,
      "t": 187373.5946874998,
      "d": 913.4546875000233,
      "v": 127
    },
    {
      "midi": 69,
      "hit": false,
      "t": 187397.63296874982,
      "d": 889.4164062500058,
      "v": 116
    },
    {
      "midi": 74,
      "hit": false,
      "t": 188296.66468749984,
      "d": 2769.210000000021,
      "v": 127
    },
    {
      "midi": 83,
      "hit": false,
      "t": 188306.27999999985,
      "d": 144.22968749998836,
      "v": 64
    },
    {
      "midi": 62,
      "hit": false,
      "t": 188306.27999999985,
      "d": 3567.280937500007,
      "v": 84
    },
    {
      "midi": 66,
      "hit": false,
      "t": 188306.27999999985,
      "d": 3567.280937500007,
      "v": 84
    },
    {
      "midi": 69,
      "hit": false,
      "t": 188306.27999999985,
      "d": 3567.280937500007,
      "v": 84
    },
    {
      "midi": 69,
      "hit": false,
      "t": 188325.51062499985,
      "d": 2.4038281250104774,
      "v": 98
    },
    {
      "midi": 78,
      "hit": false,
      "t": 188613.96999999986,
      "d": 144.22968749998836,
      "v": 64
    },
    {
      "midi": 78,
      "hit": false,
      "t": 188921.65999999986,
      "d": 144.22968749998836,
      "v": 64
    },
    {
      "midi": 83,
      "hit": false,
      "t": 189229.34999999986,
      "d": 144.22968749998836,
      "v": 64
    },
    {
      "midi": 78,
      "hit": false,
      "t": 189537.03999999986,
      "d": 144.22968749998836,
      "v": 64
    },
    {
      "midi": 78,
      "hit": false,
      "t": 189844.72999999986,
      "d": 144.22968749998836,
      "v": 64
    },
    {
      "midi": 83,
      "hit": false,
      "t": 190152.41999999987,
      "d": 144.22968749998836,
      "v": 64
    },
    {
      "midi": 78,
      "hit": false,
      "t": 190460.10999999987,
      "d": 144.22968749998836,
      "v": 64
    },
    {
      "midi": 78,
      "hit": false,
      "t": 190767.79999999987,
      "d": 144.22968749998836,
      "v": 64
    },
    {
      "midi": 83,
      "hit": false,
      "t": 191075.48999999987,
      "d": 144.22968749998836,
      "v": 64
    },
    {
      "midi": 78,
      "hit": false,
      "t": 191383.17999999988,
      "d": 144.22968749998836,
      "v": 64
    },
    {
      "midi": 78,
      "hit": false,
      "t": 191690.86999999988,
      "d": 144.22968749998836,
      "v": 64
    },
    {
      "midi": 83,
      "hit": false,
      "t": 191998.55999999985,
      "d": 144.22968749998836,
      "v": 64
    },
    {
      "midi": 78,
      "hit": false,
      "t": 192306.24999999985,
      "d": 144.22968749998836,
      "v": 64
    },
    {
      "midi": 78,
      "hit": false,
      "t": 192613.93999999986,
      "d": 144.22968749998836,
      "v": 64
    },
    {
      "midi": 83,
      "hit": false,
      "t": 192921.62999999986,
      "d": 144.22968749998836,
      "v": 64
    },
    {
      "midi": 78,
      "hit": false,
      "t": 193229.31999999986,
      "d": 144.22968749998836,
      "v": 64
    },
    {
      "midi": 78,
      "hit": false,
      "t": 193537.00999999986,
      "d": 144.22968749998836,
      "v": 64
    },
    {
      "midi": 83,
      "hit": false,
      "t": 193844.69999999987,
      "d": 144.22968749998836,
      "v": 64
    },
    {
      "midi": 78,
      "hit": false,
      "t": 194152.38999999987,
      "d": 144.22968749998836,
      "v": 64
    },
    {
      "midi": 78,
      "hit": false,
      "t": 194460.07999999987,
      "d": 144.22968749998836,
      "v": 64
    },
    {
      "midi": 83,
      "hit": false,
      "t": 194767.76999999987,
      "d": 144.22968749998836,
      "v": 64
    },
    {
      "midi": 78,
      "hit": false,
      "t": 195075.45999999988,
      "d": 144.22968749998836,
      "v": 64
    },
    {
      "midi": 78,
      "hit": false,
      "t": 195383.14999999988,
      "d": 144.22968749998836,
      "v": 64
    },
    {
      "midi": 67,
      "hit": false,
      "t": 202839.82484374987,
      "d": 216.34453124998254,
      "v": 127
    },
    {
      "midi": 63,
      "hit": false,
      "t": 202859.05546874987,
      "d": 197.11390624998603,
      "v": 115
    },
    {
      "midi": 70,
      "hit": false,
      "t": 203065.78468749986,
      "d": 913.4546874999942,
      "v": 127
    },
    {
      "midi": 58,
      "hit": false,
      "t": 203075.39999999988,
      "d": 1144.2221875000105,
      "v": 84
    },
    {
      "midi": 62,
      "hit": false,
      "t": 203075.39999999988,
      "d": 1144.2221875000105,
      "v": 84
    },
    {
      "midi": 65,
      "hit": false,
      "t": 203075.39999999988,
      "d": 1144.2221875000105,
      "v": 84
    },
    {
      "midi": 70,
      "hit": false,
      "t": 203075.39999999988,
      "d": 1144.2221875000105,
      "v": 84
    },
    {
      "midi": 65,
      "hit": false,
      "t": 203089.82296874985,
      "d": 889.4164062500058,
      "v": 98
    },
    {
      "midi": 67,
      "hit": false,
      "t": 203089.82296874985,
      "d": 908.6470312500023,
      "v": 116
    },
    {
      "midi": 70,
      "hit": false,
      "t": 203993.66234374986,
      "d": 1841.332343749993,
      "v": 127
    },
    {
      "midi": 65,
      "hit": false,
      "t": 204012.89296874986,
      "d": 1822.1017187499965,
      "v": 116
    },
    {
      "midi": 70,
      "hit": false,
      "t": 204690.77249999988,
      "d": 57.69187499998952,
      "v": 84
    },
    {
      "midi": 74,
      "hit": false,
      "t": 204690.77249999988,
      "d": 57.69187499998952,
      "v": 84
    },
    {
      "midi": 77,
      "hit": false,
      "t": 204690.77249999988,
      "d": 57.69187499998952,
      "v": 84
    },
    {
      "midi": 82,
      "hit": false,
      "t": 204690.77249999988,
      "d": 57.69187499998952,
      "v": 84
    },
    {
      "midi": 70,
      "hit": false,
      "t": 204806.15624999985,
      "d": 57.69187499998952,
      "v": 84
    },
    {
      "midi": 74,
      "hit": false,
      "t": 204806.15624999985,
      "d": 57.69187499998952,
      "v": 84
    },
    {
      "midi": 77,
      "hit": false,
      "t": 204806.15624999985,
      "d": 57.69187499998952,
      "v": 84
    },
    {
      "midi": 82,
      "hit": false,
      "t": 204806.15624999985,
      "d": 57.69187499998952,
      "v": 84
    },
    {
      "midi": 70,
      "hit": false,
      "t": 204921.53999999983,
      "d": 451.9196874999907,
      "v": 84
    },
    {
      "midi": 74,
      "hit": false,
      "t": 204921.53999999983,
      "d": 451.9196874999907,
      "v": 84
    },
    {
      "midi": 77,
      "hit": false,
      "t": 204921.53999999983,
      "d": 451.9196874999907,
      "v": 84
    },
    {
      "midi": 82,
      "hit": false,
      "t": 204921.53999999983,
      "d": 451.9196874999907,
      "v": 84
    },
    {
      "midi": 70,
      "hit": false,
      "t": 205613.84249999982,
      "d": 57.69187499998952,
      "v": 84
    },
    {
      "midi": 82,
      "hit": false,
      "t": 205613.84249999982,
      "d": 57.69187499998952,
      "v": 84
    },
    {
      "midi": 86,
      "hit": false,
      "t": 205613.84249999982,
      "d": 57.69187499998952,
      "v": 84
    },
    {
      "midi": 89,
      "hit": false,
      "t": 205613.84249999982,
      "d": 57.69187499998952,
      "v": 84
    },
    {
      "midi": 70,
      "hit": false,
      "t": 205729.2262499998,
      "d": 57.69187499998952,
      "v": 84
    },
    {
      "midi": 82,
      "hit": false,
      "t": 205729.2262499998,
      "d": 57.69187499998952,
      "v": 84
    },
    {
      "midi": 86,
      "hit": false,
      "t": 205729.2262499998,
      "d": 57.69187499998952,
      "v": 84
    },
    {
      "midi": 89,
      "hit": false,
      "t": 205729.2262499998,
      "d": 57.69187499998952,
      "v": 84
    },
    {
      "midi": 70,
      "hit": false,
      "t": 205844.60999999978,
      "d": 682.687187500007,
      "v": 84
    },
    {
      "midi": 82,
      "hit": false,
      "t": 205844.60999999978,
      "d": 682.687187500007,
      "v": 84
    },
    {
      "midi": 86,
      "hit": false,
      "t": 205844.60999999978,
      "d": 682.687187500007,
      "v": 84
    },
    {
      "midi": 89,
      "hit": false,
      "t": 205844.60999999978,
      "d": 682.687187500007,
      "v": 84
    },
    {
      "midi": 70,
      "hit": false,
      "t": 206532.10484374987,
      "d": 225.95984374999534,
      "v": 127
    },
    {
      "midi": 65,
      "hit": false,
      "t": 206551.33546874986,
      "d": 206.72921874999884,
      "v": 115
    },
    {
      "midi": 75,
      "hit": false,
      "t": 206762.87234374986,
      "d": 908.6470312500314,
      "v": 127
    },
    {
      "midi": 60,
      "hit": false,
      "t": 206767.6799999998,
      "d": 1144.2221875000105,
      "v": 84
    },
    {
      "midi": 63,
      "hit": false,
      "t": 206767.6799999998,
      "d": 1144.2221875000105,
      "v": 84
    },
    {
      "midi": 67,
      "hit": false,
      "t": 206767.6799999998,
      "d": 1144.2221875000105,
      "v": 84
    },
    {
      "midi": 72,
      "hit": false,
      "t": 206767.6799999998,
      "d": 1144.2221875000105,
      "v": 84
    },
    {
      "midi": 70,
      "hit": false,
      "t": 206782.10296874985,
      "d": 2.4038281250104774,
      "v": 116
    },
    {
      "midi": 72,
      "hit": false,
      "t": 206786.91062499987,
      "d": 884.608750000014,
      "v": 98
    },
    {
      "midi": 75,
      "hit": false,
      "t": 207685.9423437499,
      "d": 1831.7170312500093,
      "v": 127
    },
    {
      "midi": 72,
      "hit": false,
      "t": 207705.1729687499,
      "d": 1812.4864062500128,
      "v": 116
    },
    {
      "midi": 72,
      "hit": false,
      "t": 208383.0524999998,
      "d": 57.69187499998952,
      "v": 84
    },
    {
      "midi": 75,
      "hit": false,
      "t": 208383.0524999998,
      "d": 57.69187499998952,
      "v": 84
    },
    {
      "midi": 79,
      "hit": false,
      "t": 208383.0524999998,
      "d": 57.69187499998952,
      "v": 84
    },
    {
      "midi": 84,
      "hit": false,
      "t": 208383.0524999998,
      "d": 57.69187499998952,
      "v": 84
    },
    {
      "midi": 72,
      "hit": false,
      "t": 208498.43624999977,
      "d": 57.69187499998952,
      "v": 84
    },
    {
      "midi": 75,
      "hit": false,
      "t": 208498.43624999977,
      "d": 57.69187499998952,
      "v": 84
    },
    {
      "midi": 79,
      "hit": false,
      "t": 208498.43624999977,
      "d": 57.69187499998952,
      "v": 84
    },
    {
      "midi": 84,
      "hit": false,
      "t": 208498.43624999977,
      "d": 57.69187499998952,
      "v": 84
    },
    {
      "midi": 72,
      "hit": false,
      "t": 208613.81999999975,
      "d": 451.9196874999907,
      "v": 84
    },
    {
      "midi": 75,
      "hit": false,
      "t": 208613.81999999975,
      "d": 451.9196874999907,
      "v": 84
    },
    {
      "midi": 79,
      "hit": false,
      "t": 208613.81999999975,
      "d": 451.9196874999907,
      "v": 84
    },
    {
      "midi": 84,
      "hit": false,
      "t": 208613.81999999975,
      "d": 451.9196874999907,
      "v": 84
    },
    {
      "midi": 72,
      "hit": false,
      "t": 209306.12249999974,
      "d": 57.69187499998952,
      "v": 84
    },
    {
      "midi": 84,
      "hit": false,
      "t": 209306.12249999974,
      "d": 57.69187499998952,
      "v": 84
    },
    {
      "midi": 87,
      "hit": false,
      "t": 209306.12249999974,
      "d": 57.69187499998952,
      "v": 84
    },
    {
      "midi": 91,
      "hit": false,
      "t": 209306.12249999974,
      "d": 57.69187499998952,
      "v": 84
    },
    {
      "midi": 72,
      "hit": false,
      "t": 209421.50624999971,
      "d": 57.69187499998952,
      "v": 84
    },
    {
      "midi": 84,
      "hit": false,
      "t": 209421.50624999971,
      "d": 57.69187499998952,
      "v": 84
    },
    {
      "midi": 87,
      "hit": false,
      "t": 209421.50624999971,
      "d": 57.69187499998952,
      "v": 84
    },
    {
      "midi": 91,
      "hit": false,
      "t": 209421.50624999971,
      "d": 57.69187499998952,
      "v": 84
    },
    {
      "midi": 72,
      "hit": false,
      "t": 209536.8899999997,
      "d": 682.687187500007,
      "v": 84
    },
    {
      "midi": 84,
      "hit": false,
      "t": 209536.8899999997,
      "d": 682.687187500007,
      "v": 84
    },
    {
      "midi": 87,
      "hit": false,
      "t": 209536.8899999997,
      "d": 682.687187500007,
      "v": 84
    },
    {
      "midi": 91,
      "hit": false,
      "t": 209536.8899999997,
      "d": 682.687187500007,
      "v": 84
    },
    {
      "midi": 56,
      "hit": false,
      "t": 210459.9599999997,
      "d": 1144.2221875000105,
      "v": 84
    },
    {
      "midi": 60,
      "hit": false,
      "t": 210459.9599999997,
      "d": 1144.2221875000105,
      "v": 84
    },
    {
      "midi": 63,
      "hit": false,
      "t": 210459.9599999997,
      "d": 1144.2221875000105,
      "v": 84
    },
    {
      "midi": 75,
      "hit": false,
      "t": 210911.8796874999,
      "d": 461.5349999999744,
      "v": 127
    },
    {
      "midi": 72,
      "hit": false,
      "t": 210935.91796874988,
      "d": 437.49671874998603,
      "v": 116
    },
    {
      "midi": 75,
      "hit": false,
      "t": 211378.22234374986,
      "d": 447.11203124999884,
      "v": 127
    },
    {
      "midi": 72,
      "hit": false,
      "t": 211397.45296874986,
      "d": 427.8814062500023,
      "v": 116
    },
    {
      "midi": 75,
      "hit": false,
      "t": 211839.75734374986,
      "d": 447.11203124999884,
      "v": 127
    },
    {
      "midi": 72,
      "hit": false,
      "t": 211858.98796874986,
      "d": 427.8814062500023,
      "v": 116
    },
    {
      "midi": 74,
      "hit": false,
      "t": 212301.29234374987,
      "d": 908.6470312500314,
      "v": 127
    },
    {
      "midi": 58,
      "hit": false,
      "t": 212306.09999999971,
      "d": 1144.2221875000105,
      "v": 84
    },
    {
      "midi": 62,
      "hit": false,
      "t": 212306.09999999971,
      "d": 1144.2221875000105,
      "v": 84
    },
    {
      "midi": 65,
      "hit": false,
      "t": 212306.09999999971,
      "d": 1144.2221875000105,
      "v": 84
    },
    {
      "midi": 68,
      "hit": false,
      "t": 212320.52296874986,
      "d": 2.4038281250104774,
      "v": 116
    },
    {
      "midi": 70,
      "hit": false,
      "t": 212325.3306249999,
      "d": 884.608750000014,
      "v": 98
    },
    {
      "midi": 72,
      "hit": false,
      "t": 213219.5546874999,
      "d": 451.9196874999907,
      "v": 127
    },
    {
      "midi": 65,
      "hit": false,
      "t": 213243.5929687499,
      "d": 427.8814062500023,
      "v": 116
    },
    {
      "midi": 70,
      "hit": false,
      "t": 213685.8973437499,
      "d": 216.34453124998254,
      "v": 127
    },
    {
      "midi": 65,
      "hit": false,
      "t": 213705.1279687499,
      "d": 197.11390624998603,
      "v": 116
    },
    {
      "midi": 68,
      "hit": false,
      "t": 213916.6648437499,
      "d": 216.34453124998254,
      "v": 127
    },
    {
      "midi": 65,
      "hit": false,
      "t": 213935.8954687499,
      "d": 197.11390624998603,
      "v": 116
    },
    {
      "midi": 70,
      "hit": false,
      "t": 214147.43234374988,
      "d": 447.11203124999884,
      "v": 127
    },
    {
      "midi": 63,
      "hit": false,
      "t": 214152.23999999973,
      "d": 1144.2221875000105,
      "v": 84
    },
    {
      "midi": 67,
      "hit": false,
      "t": 214152.23999999973,
      "d": 1144.2221875000105,
      "v": 84
    },
    {
      "midi": 70,
      "hit": false,
      "t": 214152.23999999973,
      "d": 1144.2221875000105,
      "v": 84
    },
    {
      "midi": 67,
      "hit": false,
      "t": 214166.66296874988,
      "d": 427.8814062500023,
      "v": 98
    },
    {
      "midi": 67,
      "hit": false,
      "t": 214604.1596874999,
      "d": 221.1521874999744,
      "v": 127
    },
    {
      "midi": 63,
      "hit": false,
      "t": 214628.19796874988,
      "d": 197.11390624998603,
      "v": 116
    },
    {
      "midi": 63,
      "hit": false,
      "t": 214834.92718749988,
      "d": 2067.2921874999884,
      "v": 127
    },
    {
      "midi": 58,
      "hit": false,
      "t": 214858.96546874987,
      "d": 1153.8374999999942,
      "v": 116
    },
    {
      "midi": 60,
      "hit": false,
      "t": 215998.37999999974,
      "d": 798.070937499986,
      "v": 84
    },
    {
      "midi": 63,
      "hit": false,
      "t": 215998.37999999974,
      "d": 798.070937499986,
      "v": 84
    },
    {
      "midi": 67,
      "hit": false,
      "t": 215998.37999999974,
      "d": 798.070937499986,
      "v": 84
    },
    {
      "midi": 60,
      "hit": false,
      "t": 216017.61062499986,
      "d": 884.608750000014,
      "v": 98
    },
    {
      "midi": 60,
      "hit": false,
      "t": 216921.44999999972,
      "d": 798.070937499986,
      "v": 84
    },
    {
      "midi": 63,
      "hit": false,
      "t": 216921.44999999972,
      "d": 798.070937499986,
      "v": 84
    },
    {
      "midi": 68,
      "hit": false,
      "t": 216921.44999999972,
      "d": 798.070937499986,
      "v": 84
    },
    {
      "midi": 67,
      "hit": false,
      "t": 217608.94484374986,
      "d": 216.34453124998254,
      "v": 127
    },
    {
      "midi": 63,
      "hit": false,
      "t": 217628.17546874986,
      "d": 197.11390624998603,
      "v": 116
    },
    {
      "midi": 70,
      "hit": false,
      "t": 217839.71234374985,
      "d": 918.262343749986,
      "v": 127
    },
    {
      "midi": 58,
      "hit": false,
      "t": 217844.5199999997,
      "d": 1144.2221875000105,
      "v": 84
    },
    {
      "midi": 62,
      "hit": false,
      "t": 217844.5199999997,
      "d": 1144.2221875000105,
      "v": 84
    },
    {
      "midi": 65,
      "hit": false,
      "t": 217844.5199999997,
      "d": 1144.2221875000105,
      "v": 84
    },
    {
      "midi": 70,
      "hit": false,
      "t": 217844.5199999997,
      "d": 1144.2221875000105,
      "v": 84
    },
    {
      "midi": 65,
      "hit": false,
      "t": 217858.94296874985,
      "d": 899.0317187499895,
      "v": 98
    },
    {
      "midi": 70,
      "hit": false,
      "t": 218762.78234374983,
      "d": 918.262343749986,
      "v": 127
    },
    {
      "midi": 65,
      "hit": false,
      "t": 218782.01296874983,
      "d": 899.0317187499895,
      "v": 116
    },
    {
      "midi": 70,
      "hit": false,
      "t": 219459.8924999997,
      "d": 57.69187499998952,
      "v": 84
    },
    {
      "midi": 74,
      "hit": false,
      "t": 219459.8924999997,
      "d": 57.69187499998952,
      "v": 84
    },
    {
      "midi": 77,
      "hit": false,
      "t": 219459.8924999997,
      "d": 57.69187499998952,
      "v": 84
    },
    {
      "midi": 82,
      "hit": false,
      "t": 219459.8924999997,
      "d": 57.69187499998952,
      "v": 84
    },
    {
      "midi": 70,
      "hit": false,
      "t": 219575.27624999968,
      "d": 57.69187499998952,
      "v": 84
    },
    {
      "midi": 74,
      "hit": false,
      "t": 219575.27624999968,
      "d": 57.69187499998952,
      "v": 84
    },
    {
      "midi": 77,
      "hit": false,
      "t": 219575.27624999968,
      "d": 57.69187499998952,
      "v": 84
    },
    {
      "midi": 82,
      "hit": false,
      "t": 219575.27624999968,
      "d": 57.69187499998952,
      "v": 84
    },
    {
      "midi": 70,
      "hit": false,
      "t": 219690.65999999965,
      "d": 451.9196874999907,
      "v": 84
    },
    {
      "midi": 74,
      "hit": false,
      "t": 219690.65999999965,
      "d": 451.9196874999907,
      "v": 84
    },
    {
      "midi": 77,
      "hit": false,
      "t": 219690.65999999965,
      "d": 451.9196874999907,
      "v": 84
    },
    {
      "midi": 82,
      "hit": false,
      "t": 219690.65999999965,
      "d": 451.9196874999907,
      "v": 84
    },
    {
      "midi": 70,
      "hit": false,
      "t": 220382.96249999964,
      "d": 57.69187499998952,
      "v": 84
    },
    {
      "midi": 82,
      "hit": false,
      "t": 220382.96249999964,
      "d": 57.69187499998952,
      "v": 84
    },
    {
      "midi": 86,
      "hit": false,
      "t": 220382.96249999964,
      "d": 57.69187499998952,
      "v": 84
    },
    {
      "midi": 89,
      "hit": false,
      "t": 220382.96249999964,
      "d": 57.69187499998952,
      "v": 84
    },
    {
      "midi": 70,
      "hit": false,
      "t": 220498.34624999962,
      "d": 57.69187499998952,
      "v": 84
    },
    {
      "midi": 82,
      "hit": false,
      "t": 220498.34624999962,
      "d": 57.69187499998952,
      "v": 84
    },
    {
      "midi": 86,
      "hit": false,
      "t": 220498.34624999962,
      "d": 57.69187499998952,
      "v": 84
    },
    {
      "midi": 89,
      "hit": false,
      "t": 220498.34624999962,
      "d": 57.69187499998952,
      "v": 84
    },
    {
      "midi": 70,
      "hit": false,
      "t": 220613.7299999996,
      "d": 682.687187500007,
      "v": 84
    },
    {
      "midi": 82,
      "hit": false,
      "t": 220613.7299999996,
      "d": 682.687187500007,
      "v": 84
    },
    {
      "midi": 86,
      "hit": false,
      "t": 220613.7299999996,
      "d": 682.687187500007,
      "v": 84
    },
    {
      "midi": 89,
      "hit": false,
      "t": 220613.7299999996,
      "d": 682.687187500007,
      "v": 84
    },
    {
      "midi": 70,
      "hit": false,
      "t": 221301.2248437498,
      "d": 216.34453124998254,
      "v": 127
    },
    {
      "midi": 65,
      "hit": false,
      "t": 221320.4554687498,
      "d": 197.11390624998603,
      "v": 115
    },
    {
      "midi": 75,
      "hit": false,
      "t": 221527.1846874998,
      "d": 913.4546875000233,
      "v": 127
    },
    {
      "midi": 60,
      "hit": false,
      "t": 221536.7999999996,
      "d": 1144.2221875000105,
      "v": 84
    },
    {
      "midi": 63,
      "hit": false,
      "t": 221536.7999999996,
      "d": 1144.2221875000105,
      "v": 84
    },
    {
      "midi": 67,
      "hit": false,
      "t": 221536.7999999996,
      "d": 1144.2221875000105,
      "v": 84
    },
    {
      "midi": 72,
      "hit": false,
      "t": 221536.7999999996,
      "d": 1144.2221875000105,
      "v": 84
    },
    {
      "midi": 70,
      "hit": false,
      "t": 221551.2229687498,
      "d": 2.4038281250104774,
      "v": 116
    },
    {
      "midi": 72,
      "hit": false,
      "t": 221556.0306249998,
      "d": 884.608750000014,
      "v": 98
    },
    {
      "midi": 75,
      "hit": false,
      "t": 222450.25468749984,
      "d": 1836.5246875000012,
      "v": 127
    },
    {
      "midi": 72,
      "hit": false,
      "t": 222474.29296874983,
      "d": 1812.4864062500128,
      "v": 116
    },
    {
      "midi": 72,
      "hit": false,
      "t": 223152.1724999996,
      "d": 57.69187499998952,
      "v": 84
    },
    {
      "midi": 75,
      "hit": false,
      "t": 223152.1724999996,
      "d": 57.69187499998952,
      "v": 84
    },
    {
      "midi": 79,
      "hit": false,
      "t": 223152.1724999996,
      "d": 57.69187499998952,
      "v": 84
    },
    {
      "midi": 84,
      "hit": false,
      "t": 223152.1724999996,
      "d": 57.69187499998952,
      "v": 84
    },
    {
      "midi": 72,
      "hit": false,
      "t": 223267.5562499996,
      "d": 57.69187499998952,
      "v": 84
    },
    {
      "midi": 75,
      "hit": false,
      "t": 223267.5562499996,
      "d": 57.69187499998952,
      "v": 84
    },
    {
      "midi": 79,
      "hit": false,
      "t": 223267.5562499996,
      "d": 57.69187499998952,
      "v": 84
    },
    {
      "midi": 84,
      "hit": false,
      "t": 223267.5562499996,
      "d": 57.69187499998952,
      "v": 84
    },
    {
      "midi": 72,
      "hit": false,
      "t": 223382.93999999957,
      "d": 451.9196874999907,
      "v": 84
    },
    {
      "midi": 75,
      "hit": false,
      "t": 223382.93999999957,
      "d": 451.9196874999907,
      "v": 84
    },
    {
      "midi": 79,
      "hit": false,
      "t": 223382.93999999957,
      "d": 451.9196874999907,
      "v": 84
    },
    {
      "midi": 84,
      "hit": false,
      "t": 223382.93999999957,
      "d": 451.9196874999907,
      "v": 84
    },
    {
      "midi": 72,
      "hit": false,
      "t": 224075.24249999956,
      "d": 57.69187499998952,
      "v": 84
    },
    {
      "midi": 84,
      "hit": false,
      "t": 224075.24249999956,
      "d": 57.69187499998952,
      "v": 84
    },
    {
      "midi": 87,
      "hit": false,
      "t": 224075.24249999956,
      "d": 57.69187499998952,
      "v": 84
    },
    {
      "midi": 91,
      "hit": false,
      "t": 224075.24249999956,
      "d": 57.69187499998952,
      "v": 84
    },
    {
      "midi": 72,
      "hit": false,
      "t": 224190.62624999954,
      "d": 57.69187499998952,
      "v": 84
    },
    {
      "midi": 84,
      "hit": false,
      "t": 224190.62624999954,
      "d": 57.69187499998952,
      "v": 84
    },
    {
      "midi": 87,
      "hit": false,
      "t": 224190.62624999954,
      "d": 57.69187499998952,
      "v": 84
    },
    {
      "midi": 91,
      "hit": false,
      "t": 224190.62624999954,
      "d": 57.69187499998952,
      "v": 84
    },
    {
      "midi": 72,
      "hit": false,
      "t": 224306.0099999995,
      "d": 682.687187500007,
      "v": 84
    },
    {
      "midi": 84,
      "hit": false,
      "t": 224306.0099999995,
      "d": 682.687187500007,
      "v": 84
    },
    {
      "midi": 87,
      "hit": false,
      "t": 224306.0099999995,
      "d": 682.687187500007,
      "v": 84
    },
    {
      "midi": 91,
      "hit": false,
      "t": 224306.0099999995,
      "d": 682.687187500007,
      "v": 84
    },
    {
      "midi": 56,
      "hit": false,
      "t": 225229.07999999952,
      "d": 1144.2221875000105,
      "v": 84
    },
    {
      "midi": 60,
      "hit": false,
      "t": 225229.07999999952,
      "d": 1144.2221875000105,
      "v": 84
    },
    {
      "midi": 63,
      "hit": false,
      "t": 225229.07999999952,
      "d": 1144.2221875000105,
      "v": 84
    },
    {
      "midi": 74,
      "hit": false,
      "t": 226378.10984374984,
      "d": 216.34453124998254,
      "v": 127
    },
    {
      "midi": 68,
      "hit": false,
      "t": 226397.34046874984,
      "d": 197.11390624998603,
      "v": 116
    },
    {
      "midi": 74,
      "hit": false,
      "t": 226608.87734374983,
      "d": 216.34453124998254,
      "v": 127
    },
    {
      "midi": 68,
      "hit": false,
      "t": 226628.10796874983,
      "d": 197.11390624998603,
      "v": 116
    },
    {
      "midi": 75,
      "hit": false,
      "t": 226834.83718749983,
      "d": 221.1521874999744,
      "v": 127
    },
    {
      "midi": 72,
      "hit": false,
      "t": 226858.87546874981,
      "d": 197.11390624998603,
      "v": 116
    },
    {
      "midi": 77,
      "hit": false,
      "t": 227065.6046874998,
      "d": 913.4546874999942,
      "v": 127
    },
    {
      "midi": 58,
      "hit": false,
      "t": 227075.21999999954,
      "d": 1144.2221875000105,
      "v": 84
    },
    {
      "midi": 62,
      "hit": false,
      "t": 227075.21999999954,
      "d": 1144.2221875000105,
      "v": 84
    },
    {
      "midi": 65,
      "hit": false,
      "t": 227075.21999999954,
      "d": 1144.2221875000105,
      "v": 84
    },
    {
      "midi": 74,
      "hit": false,
      "t": 227089.6429687498,
      "d": 889.4164062500058,
      "v": 98
    },
    {
      "midi": 72,
      "hit": false,
      "t": 227089.6429687498,
      "d": 908.6470312500314,
      "v": 116
    },
    {
      "midi": 74,
      "hit": false,
      "t": 227988.67468749982,
      "d": 913.4546875000233,
      "v": 127
    },
    {
      "midi": 70,
      "hit": false,
      "t": 228012.71296874984,
      "d": 889.4164062500058,
      "v": 116
    },
    {
      "midi": 75,
      "hit": false,
      "t": 228916.55234374985,
      "d": 7370.137031249993,
      "v": 127
    },
    {
      "midi": 59,
      "hit": false,
      "t": 228921.35999999955,
      "d": 3567.280937500007,
      "v": 84
    },
    {
      "midi": 63,
      "hit": false,
      "t": 228921.35999999955,
      "d": 3567.280937500007,
      "v": 84
    },
    {
      "midi": 66,
      "hit": false,
      "t": 228921.35999999955,
      "d": 3567.280937500007,
      "v": 84
    },
    {
      "midi": 71,
      "hit": false,
      "t": 228940.59062499984,
      "d": 2.4038281250104774,
      "v": 98
    },
    {
      "midi": 61,
      "hit": false,
      "t": 232613.63999999955,
      "d": 3567.280937500007,
      "v": 84
    },
    {
      "midi": 65,
      "hit": false,
      "t": 232613.63999999955,
      "d": 3567.280937500007,
      "v": 84
    },
    {
      "midi": 68,
      "hit": false,
      "t": 232613.63999999955,
      "d": 3567.280937500007,
      "v": 84
    },
    {
      "midi": 68,
      "hit": false,
      "t": 232632.87062499984,
      "d": 3653.818750000006,
      "v": 98
    },
    {
      "midi": 63,
      "hit": false,
      "t": 236305.91999999955,
      "d": 3567.280937500007,
      "v": 84
    },
    {
      "midi": 67,
      "hit": false,
      "t": 236305.91999999955,
      "d": 3567.280937500007,
      "v": 84
    },
    {
      "midi": 70,
      "hit": false,
      "t": 236305.91999999955,
      "d": 3567.280937500007,
      "v": 84
    }
  ]
}