{
  "jsonPath": "Soundtracks/Talent Show/Shayne Ward/if-youre-not-the-one.json",
  "path": "Soundtracks\\Talent Show\\Shayne Ward\\If Youre Not The One.mid",
  "name": "If Youre Not The One",
  "difficulty": "Advanced",
  "bpm": 100,
  "notes": [
    {
      "midi": 53,
      "hit": false,
      "t": 4615.384000000001,
      "d": 4326.9225,
      "v": 67
    },
    {
      "midi": 58,
      "hit": false,
      "t": 4615.384000000001,
      "d": 4326.9225,
      "v": 67
    },
    {
      "midi": 60,
      "hit": false,
      "t": 4615.384000000001,
      "d": 4326.9225,
      "v": 67
    },
    {
      "midi": 65,
      "hit": false,
      "t": 4615.384000000001,
      "d": 4326.9225,
      "v": 67
    },
    {
      "midi": 63,
      "hit": false,
      "t": 9211.537233333333,
      "d": 4326.922499999993,
      "v": 67
    },
    {
      "midi": 53,
      "hit": false,
      "t": 9240.383383333332,
      "d": 4326.922499999993,
      "v": 67
    },
    {
      "midi": 58,
      "hit": false,
      "t": 9240.383383333332,
      "d": 4326.922499999993,
      "v": 67
    },
    {
      "midi": 65,
      "hit": false,
      "t": 9249.998766666666,
      "d": 4326.922499999993,
      "v": 67
    },
    {
      "midi": 58,
      "hit": false,
      "t": 13826.921233333327,
      "d": 4326.922499999997,
      "v": 67
    },
    {
      "midi": 65,
      "hit": false,
      "t": 13826.921233333327,
      "d": 4326.922499999997,
      "v": 67
    },
    {
      "midi": 60,
      "hit": false,
      "t": 13846.151999999995,
      "d": 4326.922499999997,
      "v": 67
    },
    {
      "midi": 53,
      "hit": false,
      "t": 13870.190458333327,
      "d": 4326.922499999997,
      "v": 67
    },
    {
      "midi": 63,
      "hit": false,
      "t": 18442.305233333325,
      "d": 4326.922499999997,
      "v": 67
    },
    {
      "midi": 53,
      "hit": false,
      "t": 18471.151383333327,
      "d": 4326.922499999997,
      "v": 67
    },
    {
      "midi": 58,
      "hit": false,
      "t": 18471.151383333327,
      "d": 4326.922499999997,
      "v": 67
    },
    {
      "midi": 65,
      "hit": false,
      "t": 18480.76676666666,
      "d": 4326.922499999997,
      "v": 67
    },
    {
      "midi": 53,
      "hit": false,
      "t": 23076.919999999987,
      "d": 4326.922499999997,
      "v": 67
    },
    {
      "midi": 58,
      "hit": false,
      "t": 23076.919999999987,
      "d": 4326.922499999997,
      "v": 67
    },
    {
      "midi": 60,
      "hit": false,
      "t": 23076.919999999987,
      "d": 4326.922499999997,
      "v": 67
    },
    {
      "midi": 65,
      "hit": false,
      "t": 23076.919999999987,
      "d": 4326.922499999997,
      "v": 67
    },
    {
      "midi": 63,
      "hit": false,
      "t": 27673.073233333314,
      "d": 4326.922499999997,
      "v": 67
    },
    {
      "midi": 53,
      "hit": false,
      "t": 27701.919383333316,
      "d": 4326.922499999997,
      "v": 67
    },
    {
      "midi": 58,
      "hit": false,
      "t": 27701.919383333316,
      "d": 4326.922499999997,
      "v": 67
    },
    {
      "midi": 65,
      "hit": false,
      "t": 27711.53476666665,
      "d": 4326.922499999997,
      "v": 67
    },
    {
      "midi": 58,
      "hit": false,
      "t": 32288.457233333316,
      "d": 4326.922499999975,
      "v": 67
    },
    {
      "midi": 65,
      "hit": false,
      "t": 32288.457233333316,
      "d": 4326.922499999975,
      "v": 67
    },
    {
      "midi": 60,
      "hit": false,
      "t": 32307.687999999984,
      "d": 4326.922499999975,
      "v": 67
    },
    {
      "midi": 53,
      "hit": false,
      "t": 32331.726458333316,
      "d": 4326.922499999979,
      "v": 67
    },
    {
      "midi": 63,
      "hit": false,
      "t": 36903.84123333329,
      "d": 4326.9224999999715,
      "v": 67
    },
    {
      "midi": 53,
      "hit": false,
      "t": 36932.68738333329,
      "d": 4326.9224999999715,
      "v": 67
    },
    {
      "midi": 58,
      "hit": false,
      "t": 36932.68738333329,
      "d": 4326.9224999999715,
      "v": 67
    },
    {
      "midi": 65,
      "hit": false,
      "t": 36942.30276666662,
      "d": 4326.9224999999715,
      "v": 67
    },
    {
      "midi": 70,
      "hit": false,
      "t": 50769.22399999992,
      "d": 576.9230000000025,
      "v": 109
    },
    {
      "midi": 74,
      "hit": false,
      "t": 51346.146999999924,
      "d": 288.4614999999976,
      "v": 109
    },
    {
      "midi": 75,
      "hit": false,
      "t": 51634.60849999992,
      "d": 576.9230000000025,
      "v": 108
    },
    {
      "midi": 74,
      "hit": false,
      "t": 52211.531499999925,
      "d": 288.4614999999976,
      "v": 108
    },
    {
      "midi": 77,
      "hit": false,
      "t": 53653.83899999992,
      "d": 865.3845000000001,
      "v": 86
    },
    {
      "midi": 75,
      "hit": false,
      "t": 54519.22349999992,
      "d": 288.4614999999976,
      "v": 86
    },
    {
      "midi": 74,
      "hit": false,
      "t": 54807.68499999992,
      "d": 576.9230000000025,
      "v": 86
    },
    {
      "midi": 58,
      "hit": false,
      "t": 55384.60799999992,
      "d": 576.9230000000025,
      "v": 93
    },
    {
      "midi": 63,
      "hit": false,
      "t": 55384.60799999992,
      "d": 576.9230000000025,
      "v": 93
    },
    {
      "midi": 67,
      "hit": false,
      "t": 55384.60799999992,
      "d": 576.9230000000025,
      "v": 93
    },
    {
      "midi": 58,
      "hit": false,
      "t": 56249.99249999992,
      "d": 576.9230000000025,
      "v": 93
    },
    {
      "midi": 63,
      "hit": false,
      "t": 56249.99249999992,
      "d": 576.9230000000025,
      "v": 93
    },
    {
      "midi": 65,
      "hit": false,
      "t": 56249.99249999992,
      "d": 576.9230000000025,
      "v": 93
    },
    {
      "midi": 69,
      "hit": false,
      "t": 56249.99249999992,
      "d": 576.9230000000025,
      "v": 93
    },
    {
      "midi": 51,
      "hit": false,
      "t": 57115.37699999992,
      "d": 576.9230000000025,
      "v": 93
    },
    {
      "midi": 63,
      "hit": false,
      "t": 57115.37699999992,
      "d": 576.9230000000025,
      "v": 93
    },
    {
      "midi": 67,
      "hit": false,
      "t": 57115.37699999992,
      "d": 576.9230000000025,
      "v": 93
    },
    {
      "midi": 70,
      "hit": false,
      "t": 57115.37699999992,
      "d": 576.9230000000025,
      "v": 93
    },
    {
      "midi": 74,
      "hit": false,
      "t": 57980.76149999992,
      "d": 576.9230000000025,
      "v": 93
    },
    {
      "midi": 46,
      "hit": false,
      "t": 59985.56892499992,
      "d": 2221.153549999988,
      "v": 88
    },
    {
      "midi": 53,
      "hit": false,
      "t": 60014.41507499992,
      "d": 2163.461249999993,
      "v": 88
    },
    {
      "midi": 58,
      "hit": false,
      "t": 60028.838149999916,
      "d": 2163.461249999993,
      "v": 88
    },
    {
      "midi": 62,
      "hit": false,
      "t": 60038.453533333246,
      "d": 2163.461249999993,
      "v": 88
    },
    {
      "midi": 46,
      "hit": false,
      "t": 62288.45323333324,
      "d": 2221.153549999988,
      "v": 82
    },
    {
      "midi": 53,
      "hit": false,
      "t": 62317.29938333324,
      "d": 2163.461249999993,
      "v": 82
    },
    {
      "midi": 58,
      "hit": false,
      "t": 62331.722458333235,
      "d": 2163.461249999993,
      "v": 82
    },
    {
      "midi": 62,
      "hit": false,
      "t": 62341.337841666566,
      "d": 2163.461249999993,
      "v": 82
    },
    {
      "midi": 51,
      "hit": false,
      "t": 64586.5298499999,
      "d": 2163.4612500000003,
      "v": 90
    },
    {
      "midi": 55,
      "hit": false,
      "t": 64596.14523333323,
      "d": 2163.4612500000076,
      "v": 90
    },
    {
      "midi": 58,
      "hit": false,
      "t": 64615.375999999895,
      "d": 2163.4612500000003,
      "v": 87
    },
    {
      "midi": 63,
      "hit": false,
      "t": 64634.60676666656,
      "d": 2163.461249999993,
      "v": 87
    },
    {
      "midi": 65,
      "hit": false,
      "t": 66918.26030833322,
      "d": 2163.461249999993,
      "v": 82
    },
    {
      "midi": 63,
      "hit": false,
      "t": 66927.87569166656,
      "d": 2163.461249999993,
      "v": 82
    },
    {
      "midi": 58,
      "hit": false,
      "t": 66932.68338333322,
      "d": 2163.461249999993,
      "v": 82
    },
    {
      "midi": 53,
      "hit": false,
      "t": 69230.75999999988,
      "d": 1985.5766583333316,
      "v": 97
    },
    {
      "midi": 62,
      "hit": false,
      "t": 69245.18307499988,
      "d": 1985.576658333317,
      "v": 97
    },
    {
      "midi": 58,
      "hit": false,
      "t": 71221.14434999987,
      "d": 4.8076916666614125,
      "v": 97
    },
    {
      "midi": 55,
      "hit": false,
      "t": 71221.14434999987,
      "d": 2533.6535083333292,
      "v": 97
    },
    {
      "midi": 63,
      "hit": false,
      "t": 71240.37511666653,
      "d": 2543.2688916666666,
      "v": 97
    },
    {
      "midi": 51,
      "hit": false,
      "t": 73817.29784999987,
      "d": 2298.0766166666726,
      "v": 102
    },
    {
      "midi": 63,
      "hit": false,
      "t": 73831.72092499987,
      "d": 2221.1535500000027,
      "v": 102
    },
    {
      "midi": 58,
      "hit": false,
      "t": 73846.14399999987,
      "d": 2274.0381583333365,
      "v": 102
    },
    {
      "midi": 55,
      "hit": false,
      "t": 73884.6055333332,
      "d": 2259.6150833333377,
      "v": 102
    },
    {
      "midi": 51,
      "hit": false,
      "t": 76158.64369166654,
      "d": 2211.53816666668,
      "v": 91
    },
    {
      "midi": 55,
      "hit": false,
      "t": 76168.25907499988,
      "d": 2225.9612416666787,
      "v": 91
    },
    {
      "midi": 58,
      "hit": false,
      "t": 76177.87445833322,
      "d": 2201.9227833333425,
      "v": 91
    },
    {
      "midi": 63,
      "hit": false,
      "t": 76177.87445833322,
      "d": 2201.9227833333425,
      "v": 91
    },
    {
      "midi": 58,
      "hit": false,
      "t": 78456.72030833323,
      "d": 2048.076649999988,
      "v": 91
    },
    {
      "midi": 50,
      "hit": false,
      "t": 78461.52799999989,
      "d": 2048.076649999988,
      "v": 91
    },
    {
      "midi": 55,
      "hit": false,
      "t": 78466.33569166655,
      "d": 2048.076649999988,
      "v": 91
    },
    {
      "midi": 50,
      "hit": false,
      "t": 80519.2200333332,
      "d": 2048.0766500000027,
      "v": 91
    },
    {
      "midi": 53,
      "hit": false,
      "t": 80519.2200333332,
      "d": 2048.0766500000027,
      "v": 91
    },
    {
      "midi": 57,
      "hit": false,
      "t": 80519.2200333332,
      "d": 2048.0766500000027,
      "v": 91
    },
    {
      "midi": 55,
      "hit": false,
      "t": 83081.71969166654,
      "d": 1701.922849999988,
      "v": 85
    },
    {
      "midi": 48,
      "hit": false,
      "t": 83086.5273833332,
      "d": 1682.692083333328,
      "v": 85
    },
    {
      "midi": 51,
      "hit": false,
      "t": 83086.5273833332,
      "d": 1697.1151583333267,
      "v": 85
    },
    {
      "midi": 60,
      "hit": false,
      "t": 83086.5273833332,
      "d": 1706.730541666664,
      "v": 85
    },
    {
      "midi": 57,
      "hit": false,
      "t": 84798.06561666653,
      "d": 274.0384250000061,
      "v": 85
    },
    {
      "midi": 53,
      "hit": false,
      "t": 84807.68099999987,
      "d": 274.0384250000061,
      "v": 85
    },
    {
      "midi": 65,
      "hit": false,
      "t": 84812.48869166653,
      "d": 274.0384250000061,
      "v": 85
    },
    {
      "midi": 60,
      "hit": false,
      "t": 85086.52711666653,
      "d": 9.615383333322825,
      "v": 85
    },
    {
      "midi": 63,
      "hit": false,
      "t": 85091.3348083332,
      "d": 2312.499691666657,
      "v": 85
    },
    {
      "midi": 55,
      "hit": false,
      "t": 85091.3348083332,
      "d": 2519.2304333333304,
      "v": 85
    },
    {
      "midi": 67,
      "hit": false,
      "t": 85096.14249999986,
      "d": 2519.2304333333304,
      "v": 85
    },
    {
      "midi": 65,
      "hit": false,
      "t": 87403.83449999985,
      "d": 274.0384250000061,
      "v": 85
    },
    {
      "midi": 58,
      "hit": false,
      "t": 87692.29599999986,
      "d": 576.9229999999952,
      "v": 85
    },
    {
      "midi": 46,
      "hit": false,
      "t": 87701.9113833332,
      "d": 576.9229999999952,
      "v": 86
    },
    {
      "midi": 65,
      "hit": false,
      "t": 87985.56519166652,
      "d": 576.9229999999952,
      "v": 85
    },
    {
      "midi": 58,
      "hit": false,
      "t": 89105.75734999985,
      "d": 576.9230000000098,
      "v": 86
    },
    {
      "midi": 46,
      "hit": false,
      "t": 89115.37273333319,
      "d": 576.9230000000098,
      "v": 86
    },
    {
      "midi": 65,
      "hit": false,
      "t": 89139.41119166653,
      "d": 576.9230000000098,
      "v": 86
    },
    {
      "midi": 53,
      "hit": false,
      "t": 92307.67999999988,
      "d": 4326.922500000001,
      "v": 67
    },
    {
      "midi": 58,
      "hit": false,
      "t": 92307.67999999988,
      "d": 4326.922500000001,
      "v": 67
    },
    {
      "midi": 60,
      "hit": false,
      "t": 92307.67999999988,
      "d": 4326.922500000001,
      "v": 67
    },
    {
      "midi": 65,
      "hit": false,
      "t": 92307.67999999988,
      "d": 4326.922500000001,
      "v": 67
    },
    {
      "midi": 63,
      "hit": false,
      "t": 96903.83323333321,
      "d": 4326.922500000001,
      "v": 67
    },
    {
      "midi": 53,
      "hit": false,
      "t": 96932.6793833332,
      "d": 4326.922500000001,
      "v": 67
    },
    {
      "midi": 58,
      "hit": false,
      "t": 96932.6793833332,
      "d": 4326.922500000001,
      "v": 67
    },
    {
      "midi": 65,
      "hit": false,
      "t": 96942.29476666654,
      "d": 4326.922500000001,
      "v": 67
    },
    {
      "midi": 58,
      "hit": false,
      "t": 101519.21723333321,
      "d": 4326.922500000001,
      "v": 67
    },
    {
      "midi": 65,
      "hit": false,
      "t": 101519.21723333321,
      "d": 4326.922500000001,
      "v": 67
    },
    {
      "midi": 60,
      "hit": false,
      "t": 101538.44799999987,
      "d": 4326.922500000001,
      "v": 67
    },
    {
      "midi": 53,
      "hit": false,
      "t": 101562.48645833321,
      "d": 4326.922500000001,
      "v": 67
    },
    {
      "midi": 63,
      "hit": false,
      "t": 106134.6012333332,
      "d": 4326.922500000001,
      "v": 67
    },
    {
      "midi": 53,
      "hit": false,
      "t": 106163.4473833332,
      "d": 4326.922500000001,
      "v": 67
    },
    {
      "midi": 58,
      "hit": false,
      "t": 106163.4473833332,
      "d": 4326.922500000001,
      "v": 67
    },
    {
      "midi": 65,
      "hit": false,
      "t": 106173.06276666654,
      "d": 4326.922500000001,
      "v": 67
    },
    {
      "midi": 53,
      "hit": false,
      "t": 110769.21599999987,
      "d": 4326.922500000001,
      "v": 67
    },
    {
      "midi": 58,
      "hit": false,
      "t": 110769.21599999987,
      "d": 4326.922500000001,
      "v": 67
    },
    {
      "midi": 60,
      "hit": false,
      "t": 110769.21599999987,
      "d": 4326.922500000001,
      "v": 67
    },
    {
      "midi": 65,
      "hit": false,
      "t": 110769.21599999987,
      "d": 4326.922500000001,
      "v": 67
    },
    {
      "midi": 63,
      "hit": false,
      "t": 115365.3692333332,
      "d": 4326.922500000001,
      "v": 67
    },
    {
      "midi": 53,
      "hit": false,
      "t": 115394.2153833332,
      "d": 4326.922500000001,
      "v": 67
    },
    {
      "midi": 58,
      "hit": false,
      "t": 115394.2153833332,
      "d": 4326.922500000001,
      "v": 67
    },
    {
      "midi": 65,
      "hit": false,
      "t": 115403.83076666654,
      "d": 4326.922500000001,
      "v": 67
    },
    {
      "midi": 58,
      "hit": false,
      "t": 119980.7532333332,
      "d": 4326.922500000001,
      "v": 67
    },
    {
      "midi": 65,
      "hit": false,
      "t": 119980.7532333332,
      "d": 4326.922500000001,
      "v": 67
    },
    {
      "midi": 60,
      "hit": false,
      "t": 119999.98399999987,
      "d": 4326.922500000001,
      "v": 67
    },
    {
      "midi": 53,
      "hit": false,
      "t": 120024.0224583332,
      "d": 4326.922500000001,
      "v": 67
    },
    {
      "midi": 63,
      "hit": false,
      "t": 124596.1372333332,
      "d": 4326.922500000001,
      "v": 67
    },
    {
      "midi": 53,
      "hit": false,
      "t": 124624.9833833332,
      "d": 4326.922500000001,
      "v": 67
    },
    {
      "midi": 58,
      "hit": false,
      "t": 124624.9833833332,
      "d": 4326.922500000001,
      "v": 67
    },
    {
      "midi": 65,
      "hit": false,
      "t": 124634.59876666653,
      "d": 4326.922500000001,
      "v": 67
    },
    {
      "midi": 57,
      "hit": false,
      "t": 129230.75199999986,
      "d": 2019.2305000000051,
      "v": 84
    },
    {
      "midi": 60,
      "hit": false,
      "t": 129230.75199999986,
      "d": 2019.2305000000051,
      "v": 84
    },
    {
      "midi": 63,
      "hit": false,
      "t": 129230.75199999986,
      "d": 2019.2305000000051,
      "v": 84
    },
    {
      "midi": 63,
      "hit": false,
      "t": 131249.98249999987,
      "d": 2514.422741666669,
      "v": 84
    },
    {
      "midi": 58,
      "hit": false,
      "t": 131249.98249999987,
      "d": 2533.653508333344,
      "v": 84
    },
    {
      "midi": 51,
      "hit": false,
      "t": 131249.98249999987,
      "d": 2548.0765833333426,
      "v": 84
    },
    {
      "midi": 57,
      "hit": false,
      "t": 133855.7513833332,
      "d": 2019.2305000000051,
      "v": 84
    },
    {
      "midi": 60,
      "hit": false,
      "t": 133855.7513833332,
      "d": 2019.2305000000051,
      "v": 84
    },
    {
      "midi": 63,
      "hit": false,
      "t": 133855.7513833332,
      "d": 2019.2305000000051,
      "v": 84
    },
    {
      "midi": 53,
      "hit": false,
      "t": 135855.75111666654,
      "d": 2019.2305000000051,
      "v": 84
    },
    {
      "midi": 48,
      "hit": false,
      "t": 135860.5588083332,
      "d": 2019.2305000000051,
      "v": 84
    },
    {
      "midi": 70,
      "hit": false,
      "t": 138461.51999999987,
      "d": 576.9230000000098,
      "v": 109
    },
    {
      "midi": 74,
      "hit": false,
      "t": 139038.44299999988,
      "d": 288.4615000000049,
      "v": 109
    },
    {
      "midi": 75,
      "hit": false,
      "t": 139326.9044999999,
      "d": 576.9230000000098,
      "v": 108
    },
    {
      "midi": 74,
      "hit": false,
      "t": 139903.8274999999,
      "d": 288.4615000000049,
      "v": 108
    },
    {
      "midi": 77,
      "hit": false,
      "t": 141346.1349999999,
      "d": 865.3844999999856,
      "v": 86
    },
    {
      "midi": 75,
      "hit": false,
      "t": 142211.51949999988,
      "d": 288.4615000000049,
      "v": 86
    },
    {
      "midi": 74,
      "hit": false,
      "t": 142499.98099999988,
      "d": 576.9230000000098,
      "v": 86
    },
    {
      "midi": 58,
      "hit": false,
      "t": 143076.9039999999,
      "d": 576.9230000000098,
      "v": 93
    },
    {
      "midi": 63,
      "hit": false,
      "t": 143076.9039999999,
      "d": 576.9230000000098,
      "v": 93
    },
    {
      "midi": 67,
      "hit": false,
      "t": 143076.9039999999,
      "d": 576.9230000000098,
      "v": 93
    },
    {
      "midi": 58,
      "hit": false,
      "t": 143942.2884999999,
      "d": 576.9230000000098,
      "v": 93
    },
    {
      "midi": 63,
      "hit": false,
      "t": 143942.2884999999,
      "d": 576.9230000000098,
      "v": 93
    },
    {
      "midi": 65,
      "hit": false,
      "t": 143942.2884999999,
      "d": 576.9230000000098,
      "v": 93
    },
    {
      "midi": 69,
      "hit": false,
      "t": 143942.2884999999,
      "d": 576.9230000000098,
      "v": 93
    },
    {
      "midi": 51,
      "hit": false,
      "t": 144807.67299999992,
      "d": 576.9230000000098,
      "v": 93
    },
    {
      "midi": 63,
      "hit": false,
      "t": 144807.67299999992,
      "d": 576.9230000000098,
      "v": 93
    },
    {
      "midi": 67,
      "hit": false,
      "t": 144807.67299999992,
      "d": 576.9230000000098,
      "v": 93
    },
    {
      "midi": 70,
      "hit": false,
      "t": 144807.67299999992,
      "d": 576.9230000000098,
      "v": 93
    },
    {
      "midi": 74,
      "hit": false,
      "t": 145673.05749999994,
      "d": 576.9230000000098,
      "v": 93
    },
    {
      "midi": 70,
      "hit": false,
      "t": 147692.28799999994,
      "d": 576.9230000000098,
      "v": 109
    },
    {
      "midi": 74,
      "hit": false,
      "t": 148269.21099999995,
      "d": 288.4615000000049,
      "v": 109
    },
    {
      "midi": 75,
      "hit": false,
      "t": 148557.67249999996,
      "d": 576.9230000000098,
      "v": 108
    },
    {
      "midi": 74,
      "hit": false,
      "t": 149134.59549999997,
      "d": 288.4615000000049,
      "v": 108
    },
    {
      "midi": 77,
      "hit": false,
      "t": 150576.90299999996,
      "d": 865.3844999999856,
      "v": 86
    },
    {
      "midi": 75,
      "hit": false,
      "t": 151442.28749999995,
      "d": 288.4615000000049,
      "v": 86
    },
    {
      "midi": 74,
      "hit": false,
      "t": 151730.74899999995,
      "d": 576.9230000000098,
      "v": 86
    },
    {
      "midi": 58,
      "hit": false,
      "t": 152307.67199999996,
      "d": 576.9230000000098,
      "v": 93
    },
    {
      "midi": 63,
      "hit": false,
      "t": 152307.67199999996,
      "d": 576.9230000000098,
      "v": 93
    },
    {
      "midi": 67,
      "hit": false,
      "t": 152307.67199999996,
      "d": 576.9230000000098,
      "v": 93
    },
    {
      "midi": 58,
      "hit": false,
      "t": 153173.05649999998,
      "d": 576.9230000000098,
      "v": 93
    },
    {
      "midi": 63,
      "hit": false,
      "t": 153173.05649999998,
      "d": 576.9230000000098,
      "v": 93
    },
    {
      "midi": 65,
      "hit": false,
      "t": 153173.05649999998,
      "d": 576.9230000000098,
      "v": 93
    },
    {
      "midi": 69,
      "hit": false,
      "t": 153173.05649999998,
      "d": 576.9230000000098,
      "v": 93
    },
    {
      "midi": 51,
      "hit": false,
      "t": 154038.441,
      "d": 576.9230000000098,
      "v": 93
    },
    {
      "midi": 63,
      "hit": false,
      "t": 154038.441,
      "d": 576.9230000000098,
      "v": 93
    },
    {
      "midi": 67,
      "hit": false,
      "t": 154038.441,
      "d": 576.9230000000098,
      "v": 93
    },
    {
      "midi": 70,
      "hit": false,
      "t": 154038.441,
      "d": 576.9230000000098,
      "v": 93
    },
    {
      "midi": 74,
      "hit": false,
      "t": 154903.8255,
      "d": 576.9230000000098,
      "v": 93
    },
    {
      "midi": 70,
      "hit": false,
      "t": 156923.056,
      "d": 576.9230000000098,
      "v": 109
    },
    {
      "midi": 74,
      "hit": false,
      "t": 157499.97900000002,
      "d": 288.4615000000049,
      "v": 109
    },
    {
      "midi": 75,
      "hit": false,
      "t": 157788.44050000003,
      "d": 576.9230000000098,
      "v": 108
    },
    {
      "midi": 74,
      "hit": false,
      "t": 158365.36350000004,
      "d": 288.4615000000049,
      "v": 108
    },
    {
      "midi": 77,
      "hit": false,
      "t": 159807.67100000003,
      "d": 865.3844999999856,
      "v": 86
    },
    {
      "midi": 75,
      "hit": false,
      "t": 160673.05550000002,
      "d": 288.4615000000049,
      "v": 86
    },
    {
      "midi": 74,
      "hit": false,
      "t": 160961.51700000002,
      "d": 576.9230000000098,
      "v": 86
    },
    {
      "midi": 58,
      "hit": false,
      "t": 161538.44000000003,
      "d": 576.9230000000098,
      "v": 93
    },
    {
      "midi": 63,
      "hit": false,
      "t": 161538.44000000003,
      "d": 576.9230000000098,
      "v": 93
    },
    {
      "midi": 67,
      "hit": false,
      "t": 161538.44000000003,
      "d": 576.9230000000098,
      "v": 93
    },
    {
      "midi": 58,
      "hit": false,
      "t": 162403.82450000005,
      "d": 576.9230000000098,
      "v": 93
    },
    {
      "midi": 63,
      "hit": false,
      "t": 162403.82450000005,
      "d": 576.9230000000098,
      "v": 93
    },
    {
      "midi": 65,
      "hit": false,
      "t": 162403.82450000005,
      "d": 576.9230000000098,
      "v": 93
    },
    {
      "midi": 69,
      "hit": false,
      "t": 162403.82450000005,
      "d": 576.9230000000098,
      "v": 93
    },
    {
      "midi": 63,
      "hit": false,
      "t": 163269.20900000006,
      "d": 2624.9996499999834,
      "v": 104
    },
    {
      "midi": 70,
      "hit": false,
      "t": 163269.20900000006,
      "d": 2740.3842499999737,
      "v": 104
    },
    {
      "midi": 67,
      "hit": false,
      "t": 163269.20900000006,
      "d": 2754.8073249999725,
      "v": 104
    },
    {
      "midi": 51,
      "hit": false,
      "t": 163269.20900000006,
      "d": 2793.268858333293,
      "v": 104
    },
    {
      "midi": 74,
      "hit": false,
      "t": 164134.59350000005,
      "d": 576.9230000000098,
      "v": 93
    },
    {
      "midi": 70,
      "hit": false,
      "t": 166153.82400000002,
      "d": 576.9230000000098,
      "v": 88
    },
    {
      "midi": 74,
      "hit": false,
      "t": 166730.74700000003,
      "d": 288.4615000000049,
      "v": 86
    },
    {
      "midi": 72,
      "hit": false,
      "t": 167019.20850000004,
      "d": 865.3844999999856,
      "v": 86
    },
    {
      "midi": 70,
      "hit": false,
      "t": 167884.59300000002,
      "d": 576.9230000000098,
      "v": 86
    },
    {
      "midi": 67,
      "hit": false,
      "t": 168173.05450000003,
      "d": 865.3845000000147,
      "v": 86
    },
    {
      "midi": 70,
      "hit": false,
      "t": 169038.43900000004,
      "d": 288.4615000000049,
      "v": 86
    },
    {
      "midi": 69,
      "hit": false,
      "t": 169326.90050000005,
      "d": 865.3844999999856,
      "v": 86
    },
    {
      "midi": 72,
      "hit": false,
      "t": 170192.28500000003,
      "d": 288.4615000000049,
      "v": 86
    },
    {
      "midi": 70,
      "hit": false,
      "t": 170480.74650000004,
      "d": 576.9229999999807,
      "v": 86
    },
    {
      "midi": 53,
      "hit": false,
      "t": 170783.63107500004,
      "d": 2163.461249999964,
      "v": 88
    },
    {
      "midi": 58,
      "hit": false,
      "t": 170798.05415000004,
      "d": 2163.461249999964,
      "v": 88
    },
    {
      "midi": 62,
      "hit": false,
      "t": 170807.66953333336,
      "d": 2163.461249999964,
      "v": 88
    },
    {
      "midi": 46,
      "hit": false,
      "t": 173057.66923333332,
      "d": 2221.153549999988,
      "v": 82
    },
    {
      "midi": 53,
      "hit": false,
      "t": 173086.51538333332,
      "d": 2163.461249999993,
      "v": 82
    },
    {
      "midi": 58,
      "hit": false,
      "t": 173100.93845833332,
      "d": 2163.461249999993,
      "v": 82
    },
    {
      "midi": 62,
      "hit": false,
      "t": 173110.55384166664,
      "d": 2163.461249999993,
      "v": 82
    },
    {
      "midi": 51,
      "hit": false,
      "t": 175355.74584999998,
      "d": 2163.461249999993,
      "v": 90
    },
    {
      "midi": 55,
      "hit": false,
      "t": 175365.3612333333,
      "d": 2163.461249999993,
      "v": 90
    },
    {
      "midi": 58,
      "hit": false,
      "t": 175384.59199999998,
      "d": 2163.461249999993,
      "v": 87
    },
    {
      "midi": 63,
      "hit": false,
      "t": 175403.82276666665,
      "d": 2163.461249999993,
      "v": 87
    },
    {
      "midi": 65,
      "hit": false,
      "t": 177687.4763083333,
      "d": 2163.461249999993,
      "v": 82
    },
    {
      "midi": 63,
      "hit": false,
      "t": 177697.09169166663,
      "d": 2163.461249999993,
      "v": 82
    },
    {
      "midi": 58,
      "hit": false,
      "t": 177701.8993833333,
      "d": 2163.461249999993,
      "v": 82
    },
    {
      "midi": 53,
      "hit": false,
      "t": 179999.97599999997,
      "d": 1985.5766583333316,
      "v": 97
    },
    {
      "midi": 62,
      "hit": false,
      "t": 180014.39907499996,
      "d": 1985.5766583333607,
      "v": 97
    },
    {
      "midi": 58,
      "hit": false,
      "t": 181990.36034999997,
      "d": 4.807691666675964,
      "v": 97
    },
    {
      "midi": 55,
      "hit": false,
      "t": 181990.36034999997,
      "d": 2533.653508333344,
      "v": 97
    },
    {
      "midi": 63,
      "hit": false,
      "t": 182009.59111666665,
      "d": 2543.2688916666666,
      "v": 97
    },
    {
      "midi": 51,
      "hit": false,
      "t": 184586.51385,
      "d": 2298.076616666658,
      "v": 102
    },
    {
      "midi": 63,
      "hit": false,
      "t": 184600.936925,
      "d": 2221.153549999988,
      "v": 102
    },
    {
      "midi": 58,
      "hit": false,
      "t": 184615.36,
      "d": 2274.0381583333365,
      "v": 102
    },
    {
      "midi": 55,
      "hit": false,
      "t": 184653.8215333333,
      "d": 2259.6150833333377,
      "v": 102
    },
    {
      "midi": 51,
      "hit": false,
      "t": 186927.85969166664,
      "d": 2211.5381666666362,
      "v": 91
    },
    {
      "midi": 55,
      "hit": false,
      "t": 186937.47507499997,
      "d": 2225.961241666635,
      "v": 91
    },
    {
      "midi": 58,
      "hit": false,
      "t": 186947.0904583333,
      "d": 2201.9227833333134,
      "v": 91
    },
    {
      "midi": 63,
      "hit": false,
      "t": 186947.0904583333,
      "d": 2201.9227833333134,
      "v": 91
    },
    {
      "midi": 58,
      "hit": false,
      "t": 189225.93630833327,
      "d": 2048.076650000032,
      "v": 91
    },
    {
      "midi": 50,
      "hit": false,
      "t": 189230.74399999995,
      "d": 2048.076650000032,
      "v": 91
    },
    {
      "midi": 55,
      "hit": false,
      "t": 189235.55169166662,
      "d": 2048.076650000032,
      "v": 91
    },
    {
      "midi": 50,
      "hit": false,
      "t": 191288.43603333333,
      "d": 2048.0766500000027,
      "v": 91
    },
    {
      "midi": 53,
      "hit": false,
      "t": 191288.43603333333,
      "d": 2048.0766500000027,
      "v": 91
    },
    {
      "midi": 57,
      "hit": false,
      "t": 191288.43603333333,
      "d": 2048.0766500000027,
      "v": 91
    },
    {
      "midi": 55,
      "hit": false,
      "t": 193850.93569166667,
      "d": 1701.9228500000027,
      "v": 85
    },
    {
      "midi": 48,
      "hit": false,
      "t": 193855.74338333335,
      "d": 1682.692083333328,
      "v": 85
    },
    {
      "midi": 51,
      "hit": false,
      "t": 193855.74338333335,
      "d": 1697.1151583333267,
      "v": 85
    },
    {
      "midi": 60,
      "hit": false,
      "t": 193855.74338333335,
      "d": 1706.7305416666495,
      "v": 85
    },
    {
      "midi": 57,
      "hit": false,
      "t": 195567.28161666667,
      "d": 274.038424999977,
      "v": 85
    },
    {
      "midi": 53,
      "hit": false,
      "t": 195576.897,
      "d": 274.038424999977,
      "v": 85
    },
    {
      "midi": 65,
      "hit": false,
      "t": 195581.70469166667,
      "d": 274.038424999977,
      "v": 85
    },
    {
      "midi": 60,
      "hit": false,
      "t": 195855.74311666665,
      "d": 9.615383333351929,
      "v": 85
    },
    {
      "midi": 63,
      "hit": false,
      "t": 195860.55080833333,
      "d": 2312.499691666686,
      "v": 85
    },
    {
      "midi": 55,
      "hit": false,
      "t": 195860.55080833333,
      "d": 2519.230433333345,
      "v": 85
    },
    {
      "midi": 67,
      "hit": false,
      "t": 195865.3585,
      "d": 2519.230433333345,
      "v": 85
    },
    {
      "midi": 65,
      "hit": false,
      "t": 198173.0505,
      "d": 274.0384250000061,
      "v": 85
    },
    {
      "midi": 58,
      "hit": false,
      "t": 198461.51200000002,
      "d": 576.9229999999807,
      "v": 85
    },
    {
      "midi": 46,
      "hit": false,
      "t": 198471.12738333334,
      "d": 576.9229999999807,
      "v": 86
    },
    {
      "midi": 65,
      "hit": false,
      "t": 198754.78119166667,
      "d": 576.9229999999807,
      "v": 85
    },
    {
      "midi": 58,
      "hit": false,
      "t": 199874.97335,
      "d": 576.9229999999807,
      "v": 86
    },
    {
      "midi": 46,
      "hit": false,
      "t": 199884.5887333333,
      "d": 576.9229999999807,
      "v": 86
    },
    {
      "midi": 65,
      "hit": false,
      "t": 199908.62719166663,
      "d": 576.9229999999807,
      "v": 86
    },
    {
      "midi": 51,
      "hit": false,
      "t": 200769.20399999994,
      "d": 2163.461249999993,
      "v": 86
    },
    {
      "midi": 58,
      "hit": false,
      "t": 200817.2809166666,
      "d": 2163.461249999993,
      "v": 86
    },
    {
      "midi": 53,
      "hit": false,
      "t": 201620.16542499996,
      "d": 1288.4613666666555,
      "v": 86
    },
    {
      "midi": 82,
      "hit": false,
      "t": 201634.58849999995,
      "d": 1298.0767499999783,
      "v": 111
    },
    {
      "midi": 62,
      "hit": false,
      "t": 221514.39354166662,
      "d": 2197.1150916666375,
      "v": 81
    },
    {
      "midi": 58,
      "hit": false,
      "t": 221538.43199999994,
      "d": 2124.9997166666435,
      "v": 81
    },
    {
      "midi": 55,
      "hit": false,
      "t": 221576.89353333326,
      "d": 2221.153549999988,
      "v": 81
    },
    {
      "midi": 55,
      "hit": false,
      "t": 223855.73938333325,
      "d": 2197.1150916666666,
      "v": 81
    },
    {
      "midi": 58,
      "hit": false,
      "t": 223855.73938333325,
      "d": 2197.1150916666666,
      "v": 81
    },
    {
      "midi": 63,
      "hit": false,
      "t": 223855.73938333325,
      "d": 2197.1150916666666,
      "v": 81
    },
    {
      "midi": 53,
      "hit": false,
      "t": 226158.62369166658,
      "d": 2197.1150916666666,
      "v": 97
    },
    {
      "midi": 57,
      "hit": false,
      "t": 226158.62369166658,
      "d": 2197.1150916666666,
      "v": 97
    },
    {
      "midi": 60,
      "hit": false,
      "t": 226158.62369166658,
      "d": 2197.1150916666666,
      "v": 97
    },
    {
      "midi": 65,
      "hit": false,
      "t": 226158.62369166658,
      "d": 2197.1150916666666,
      "v": 97
    },
    {
      "midi": 53,
      "hit": false,
      "t": 228456.70030833324,
      "d": 1110.576774999994,
      "v": 97
    },
    {
      "midi": 58,
      "hit": false,
      "t": 228461.5079999999,
      "d": 1110.576774999994,
      "v": 97
    },
    {
      "midi": 63,
      "hit": false,
      "t": 228475.9310749999,
      "d": 1110.576774999994,
      "v": 97
    },
    {
      "midi": 53,
      "hit": false,
      "t": 229605.73861666658,
      "d": 1110.5767750000232,
      "v": 97
    },
    {
      "midi": 62,
      "hit": false,
      "t": 229610.54630833326,
      "d": 1110.5767750000232,
      "v": 97
    },
    {
      "midi": 58,
      "hit": false,
      "t": 229615.35399999993,
      "d": 1110.5767750000232,
      "v": 97
    },
    {
      "midi": 51,
      "hit": false,
      "t": 230754.77692499995,
      "d": 2274.0381583333365,
      "v": 97
    },
    {
      "midi": 58,
      "hit": false,
      "t": 230754.77692499995,
      "d": 2288.4612333333353,
      "v": 97
    },
    {
      "midi": 55,
      "hit": false,
      "t": 230793.23845833328,
      "d": 2235.576625000016,
      "v": 97
    },
    {
      "midi": 63,
      "hit": false,
      "t": 230798.04614999995,
      "d": 2230.76893333334,
      "v": 97
    },
    {
      "midi": 53,
      "hit": false,
      "t": 233052.8535416666,
      "d": 2274.0381583333365,
      "v": 97
    },
    {
      "midi": 60,
      "hit": false,
      "t": 233052.8535416666,
      "d": 2288.4612333333353,
      "v": 97
    },
    {
      "midi": 57,
      "hit": false,
      "t": 233091.31507499993,
      "d": 2235.576625000016,
      "v": 97
    },
    {
      "midi": 65,
      "hit": false,
      "t": 233096.1227666666,
      "d": 2230.76893333334,
      "v": 97
    },
    {
      "midi": 53,
      "hit": false,
      "t": 235399.00707499994,
      "d": 2163.461249999993,
      "v": 88
    },
    {
      "midi": 58,
      "hit": false,
      "t": 235413.43014999994,
      "d": 2163.461249999993,
      "v": 88
    },
    {
      "midi": 62,
      "hit": false,
      "t": 235423.04553333326,
      "d": 2163.461249999993,
      "v": 88
    },
    {
      "midi": 46,
      "hit": false,
      "t": 237673.04523333325,
      "d": 2221.153549999988,
      "v": 82
    },
    {
      "midi": 53,
      "hit": false,
      "t": 237701.89138333325,
      "d": 2163.461249999993,
      "v": 82
    },
    {
      "midi": 58,
      "hit": false,
      "t": 237716.31445833325,
      "d": 2163.461249999993,
      "v": 82
    },
    {
      "midi": 62,
      "hit": false,
      "t": 237725.92984166657,
      "d": 2163.461249999993,
      "v": 82
    },
    {
      "midi": 51,
      "hit": false,
      "t": 239971.1218499999,
      "d": 2163.461249999993,
      "v": 90
    },
    {
      "midi": 55,
      "hit": false,
      "t": 239980.73723333323,
      "d": 2163.461249999993,
      "v": 90
    },
    {
      "midi": 58,
      "hit": false,
      "t": 239999.9679999999,
      "d": 2163.461249999993,
      "v": 87
    },
    {
      "midi": 63,
      "hit": false,
      "t": 240019.19876666658,
      "d": 2163.461249999993,
      "v": 87
    },
    {
      "midi": 65,
      "hit": false,
      "t": 242302.85230833324,
      "d": 2163.461249999993,
      "v": 82
    },
    {
      "midi": 63,
      "hit": false,
      "t": 242312.46769166656,
      "d": 2163.461249999993,
      "v": 82
    },
    {
      "midi": 58,
      "hit": false,
      "t": 242317.27538333324,
      "d": 2163.461249999993,
      "v": 82
    },
    {
      "midi": 53,
      "hit": false,
      "t": 244615.3519999999,
      "d": 1985.5766583333316,
      "v": 97
    },
    {
      "midi": 62,
      "hit": false,
      "t": 244629.7750749999,
      "d": 1985.5766583333607,
      "v": 97
    },
    {
      "midi": 58,
      "hit": false,
      "t": 246605.7363499999,
      "d": 4.807691666675964,
      "v": 97
    },
    {
      "midi": 55,
      "hit": false,
      "t": 246605.7363499999,
      "d": 2533.653508333344,
      "v": 97
    },
    {
      "midi": 63,
      "hit": false,
      "t": 246624.96711666658,
      "d": 2543.2688916666666,
      "v": 97
    },
    {
      "midi": 51,
      "hit": false,
      "t": 249201.88984999992,
      "d": 2298.076616666658,
      "v": 102
    },
    {
      "midi": 63,
      "hit": false,
      "t": 249216.31292499992,
      "d": 2221.153549999988,
      "v": 102
    },
    {
      "midi": 58,
      "hit": false,
      "t": 249230.73599999992,
      "d": 2274.0381583333365,
      "v": 102
    },
    {
      "midi": 55,
      "hit": false,
      "t": 249269.19753333324,
      "d": 2259.6150833333377,
      "v": 102
    },
    {
      "midi": 51,
      "hit": false,
      "t": 251543.23569166657,
      "d": 2211.5381666666362,
      "v": 91
    },
    {
      "midi": 55,
      "hit": false,
      "t": 251552.8510749999,
      "d": 2225.961241666635,
      "v": 91
    },
    {
      "midi": 58,
      "hit": false,
      "t": 251562.46645833322,
      "d": 2201.9227833333134,
      "v": 91
    },
    {
      "midi": 63,
      "hit": false,
      "t": 251562.46645833322,
      "d": 2201.9227833333134,
      "v": 91
    },
    {
      "midi": 58,
      "hit": false,
      "t": 253841.3123083332,
      "d": 2048.076650000032,
      "v": 91
    },
    {
      "midi": 50,
      "hit": false,
      "t": 253846.11999999988,
      "d": 2048.076650000032,
      "v": 91
    },
    {
      "midi": 55,
      "hit": false,
      "t": 253850.92769166655,
      "d": 2048.076650000032,
      "v": 91
    },
    {
      "midi": 50,
      "hit": false,
      "t": 255903.81203333326,
      "d": 2048.0766500000027,
      "v": 91
    },
    {
      "midi": 53,
      "hit": false,
      "t": 255903.81203333326,
      "d": 2048.0766500000027,
      "v": 91
    },
    {
      "midi": 57,
      "hit": false,
      "t": 255903.81203333326,
      "d": 2048.0766500000027,
      "v": 91
    },
    {
      "midi": 55,
      "hit": false,
      "t": 258466.3116916666,
      "d": 1701.9228500000027,
      "v": 85
    },
    {
      "midi": 48,
      "hit": false,
      "t": 258471.11938333328,
      "d": 1682.692083333328,
      "v": 85
    },
    {
      "midi": 51,
      "hit": false,
      "t": 258471.11938333328,
      "d": 1697.1151583333267,
      "v": 85
    },
    {
      "midi": 60,
      "hit": false,
      "t": 258471.11938333328,
      "d": 1706.7305416666495,
      "v": 85
    },
    {
      "midi": 57,
      "hit": false,
      "t": 260182.6576166666,
      "d": 274.038424999977,
      "v": 85
    },
    {
      "midi": 53,
      "hit": false,
      "t": 260192.27299999993,
      "d": 274.038424999977,
      "v": 85
    },
    {
      "midi": 65,
      "hit": false,
      "t": 260197.0806916666,
      "d": 274.038424999977,
      "v": 85
    },
    {
      "midi": 60,
      "hit": false,
      "t": 260471.11911666658,
      "d": 9.615383333351929,
      "v": 85
    },
    {
      "midi": 63,
      "hit": false,
      "t": 260475.92680833326,
      "d": 2312.499691666686,
      "v": 85
    },
    {
      "midi": 55,
      "hit": false,
      "t": 260475.92680833326,
      "d": 2519.230433333374,
      "v": 85
    },
    {
      "midi": 67,
      "hit": false,
      "t": 260480.73449999993,
      "d": 2519.230433333345,
      "v": 85
    },
    {
      "midi": 65,
      "hit": false,
      "t": 262788.42649999994,
      "d": 274.038424999977,
      "v": 85
    },
    {
      "midi": 58,
      "hit": false,
      "t": 263076.8879999999,
      "d": 576.9230000000098,
      "v": 85
    },
    {
      "midi": 46,
      "hit": false,
      "t": 263086.5033833333,
      "d": 576.9230000000098,
      "v": 86
    },
    {
      "midi": 65,
      "hit": false,
      "t": 263370.1571916666,
      "d": 576.9230000000098,
      "v": 85
    },
    {
      "midi": 58,
      "hit": false,
      "t": 264490.3493499999,
      "d": 576.9230000000098,
      "v": 86
    },
    {
      "midi": 46,
      "hit": false,
      "t": 264499.96473333327,
      "d": 576.9230000000098,
      "v": 86
    },
    {
      "midi": 65,
      "hit": false,
      "t": 264524.0031916666,
      "d": 576.9230000000098,
      "v": 86
    },
    {
      "midi": 51,
      "hit": false,
      "t": 265384.57999999996,
      "d": 2163.461249999993,
      "v": 86
    }
  ]
}