{
  "jsonPath": "Jazz/Jazz Funk/New Birth/the-long-and-winding-road.json",
  "path": "Jazz\\Jazz Funk\\New Birth\\The Long and Winding Road.mid",
  "name": "The Long and Winding Road",
  "difficulty": "Advanced",
  "bpm": 69.00041400248402,
  "notes": [
    {
      "midi": 76,
      "hit": false,
      "t": 4.528958333333334,
      "d": 1177.5291666666667,
      "v": 127
    },
    {
      "midi": 49,
      "hit": false,
      "t": 13.586875000000001,
      "d": 792.5677083333334,
      "v": 114
    },
    {
      "midi": 61,
      "hit": false,
      "t": 13.586875000000001,
      "d": 3951.5161458333323,
      "v": 111
    },
    {
      "midi": 75,
      "hit": false,
      "t": 883.146875,
      "d": 1109.5947916666664,
      "v": 127
    },
    {
      "midi": 71,
      "hit": false,
      "t": 1716.4752083333333,
      "d": 554.7973958333332,
      "v": 127
    },
    {
      "midi": 68,
      "hit": false,
      "t": 2151.255208333333,
      "d": 475.5406250000001,
      "v": 127
    },
    {
      "midi": 73,
      "hit": false,
      "t": 3029.8731249999996,
      "d": 758.6005208333331,
      "v": 127
    },
    {
      "midi": 64,
      "hit": false,
      "t": 3908.4910416666658,
      "d": 67.93437499999982,
      "v": 111
    },
    {
      "midi": 59,
      "hit": false,
      "t": 3917.5489583333324,
      "d": 67.93437499999982,
      "v": 111
    },
    {
      "midi": 73,
      "hit": false,
      "t": 3917.5489583333324,
      "d": 67.93437499999982,
      "v": 111
    },
    {
      "midi": 69,
      "hit": false,
      "t": 3917.5489583333324,
      "d": 90.57916666666642,
      "v": 111
    },
    {
      "midi": 47,
      "hit": false,
      "t": 4352.328958333332,
      "d": 724.6333333333332,
      "v": 111
    },
    {
      "midi": 73,
      "hit": false,
      "t": 4352.328958333332,
      "d": 792.567708333333,
      "v": 111
    },
    {
      "midi": 64,
      "hit": false,
      "t": 4352.328958333332,
      "d": 803.8901041666668,
      "v": 111
    },
    {
      "midi": 59,
      "hit": false,
      "t": 4352.328958333332,
      "d": 837.8572916666672,
      "v": 111
    },
    {
      "midi": 69,
      "hit": false,
      "t": 4352.328958333332,
      "d": 860.5020833333338,
      "v": 111
    },
    {
      "midi": 64,
      "hit": false,
      "t": 5212.831041666665,
      "d": 33.967187500000364,
      "v": 111
    },
    {
      "midi": 73,
      "hit": false,
      "t": 5212.831041666665,
      "d": 67.93437500000073,
      "v": 111
    },
    {
      "midi": 59,
      "hit": false,
      "t": 5212.831041666665,
      "d": 79.25677083333449,
      "v": 111
    },
    {
      "midi": 47,
      "hit": false,
      "t": 5212.831041666665,
      "d": 101.90156250000109,
      "v": 111
    },
    {
      "midi": 69,
      "hit": false,
      "t": 5221.888958333332,
      "d": 56.61197916666697,
      "v": 111
    },
    {
      "midi": 69,
      "hit": false,
      "t": 5647.611041666667,
      "d": 1075.627604166666,
      "v": 111
    },
    {
      "midi": 73,
      "hit": false,
      "t": 5647.611041666667,
      "d": 1109.5947916666664,
      "v": 111
    },
    {
      "midi": 64,
      "hit": false,
      "t": 5656.668958333334,
      "d": 1098.2723958333327,
      "v": 111
    },
    {
      "midi": 47,
      "hit": false,
      "t": 5656.668958333334,
      "d": 1109.5947916666664,
      "v": 111
    },
    {
      "midi": 59,
      "hit": false,
      "t": 5656.668958333334,
      "d": 1143.5619791666668,
      "v": 111
    },
    {
      "midi": 64,
      "hit": false,
      "t": 6951.951041666667,
      "d": 486.8630208333334,
      "v": 111
    },
    {
      "midi": 68,
      "hit": false,
      "t": 6951.951041666667,
      "d": 520.8302083333338,
      "v": 111
    },
    {
      "midi": 71,
      "hit": false,
      "t": 6951.951041666667,
      "d": 600.0869791666673,
      "v": 111
    },
    {
      "midi": 52,
      "hit": false,
      "t": 6951.951041666667,
      "d": 1166.2067708333334,
      "v": 111
    },
    {
      "midi": 68,
      "hit": false,
      "t": 7821.511041666668,
      "d": 452.89583333333303,
      "v": 111
    },
    {
      "midi": 64,
      "hit": false,
      "t": 7821.511041666668,
      "d": 588.7645833333327,
      "v": 111
    },
    {
      "midi": 71,
      "hit": false,
      "t": 7821.511041666668,
      "d": 611.4093750000002,
      "v": 111
    },
    {
      "midi": 52,
      "hit": false,
      "t": 8256.291041666667,
      "d": 543.4750000000004,
      "v": 111
    },
    {
      "midi": 54,
      "hit": false,
      "t": 8691.071041666668,
      "d": 1019.0156249999982,
      "v": 111
    },
    {
      "midi": 73,
      "hit": false,
      "t": 8700.128958333335,
      "d": 622.7317708333321,
      "v": 111
    },
    {
      "midi": 64,
      "hit": false,
      "t": 8700.128958333335,
      "d": 634.054166666665,
      "v": 111
    },
    {
      "midi": 69,
      "hit": false,
      "t": 8700.128958333335,
      "d": 634.054166666665,
      "v": 111
    },
    {
      "midi": 71,
      "hit": false,
      "t": 9560.631041666666,
      "d": 622.7317708333358,
      "v": 111
    },
    {
      "midi": 64,
      "hit": false,
      "t": 9560.631041666666,
      "d": 634.0541666666686,
      "v": 111
    },
    {
      "midi": 74,
      "hit": false,
      "t": 9569.688958333332,
      "d": 554.797395833335,
      "v": 111
    },
    {
      "midi": 56,
      "hit": false,
      "t": 9569.688958333332,
      "d": 1086.9500000000007,
      "v": 111
    },
    {
      "midi": 69,
      "hit": false,
      "t": 10430.191041666667,
      "d": 735.9557291666661,
      "v": 111
    },
    {
      "midi": 64,
      "hit": false,
      "t": 10430.191041666667,
      "d": 792.5677083333321,
      "v": 111
    },
    {
      "midi": 73,
      "hit": false,
      "t": 11299.751041666666,
      "d": 24.90927083333372,
      "v": 111
    },
    {
      "midi": 64,
      "hit": false,
      "t": 11299.751041666666,
      "d": 792.5677083333339,
      "v": 111
    },
    {
      "midi": 69,
      "hit": false,
      "t": 11299.751041666666,
      "d": 792.5677083333339,
      "v": 111
    },
    {
      "midi": 57,
      "hit": false,
      "t": 11734.531041666667,
      "d": 20.38031249999949,
      "v": 111
    },
    {
      "midi": 69,
      "hit": false,
      "t": 12169.311041666668,
      "d": 249.09270833333358,
      "v": 111
    },
    {
      "midi": 64,
      "hit": false,
      "t": 12169.311041666668,
      "d": 271.7375000000011,
      "v": 111
    },
    {
      "midi": 57,
      "hit": false,
      "t": 13038.871041666669,
      "d": 47.55406249999942,
      "v": 111
    },
    {
      "midi": 59,
      "hit": false,
      "t": 13038.871041666669,
      "d": 226.44791666666606,
      "v": 111
    },
    {
      "midi": 61,
      "hit": false,
      "t": 13256.261041666668,
      "d": 588.7645833333318,
      "v": 111
    },
    {
      "midi": 64,
      "hit": false,
      "t": 13473.651041666668,
      "d": 147.19114583333248,
      "v": 111
    },
    {
      "midi": 61,
      "hit": false,
      "t": 13908.431041666667,
      "d": 532.1526041666657,
      "v": 111
    },
    {
      "midi": 64,
      "hit": false,
      "t": 13908.431041666667,
      "d": 577.4421875000007,
      "v": 111
    },
    {
      "midi": 69,
      "hit": false,
      "t": 13917.488958333333,
      "d": 554.7973958333332,
      "v": 111
    },
    {
      "midi": 64,
      "hit": false,
      "t": 14777.991041666668,
      "d": 384.9614583333332,
      "v": 111
    },
    {
      "midi": 69,
      "hit": false,
      "t": 14777.991041666668,
      "d": 475.54062500000146,
      "v": 111
    },
    {
      "midi": 73,
      "hit": false,
      "t": 14777.991041666668,
      "d": 486.8630208333343,
      "v": 111
    },
    {
      "midi": 57,
      "hit": false,
      "t": 15212.771041666669,
      "d": 40.7606250000008,
      "v": 111
    },
    {
      "midi": 66,
      "hit": false,
      "t": 15647.55104166667,
      "d": 668.0213541666653,
      "v": 111
    },
    {
      "midi": 68,
      "hit": false,
      "t": 15656.608958333336,
      "d": 656.6989583333325,
      "v": 111
    },
    {
      "midi": 71,
      "hit": false,
      "t": 15656.608958333336,
      "d": 713.3109374999985,
      "v": 111
    },
    {
      "midi": 75,
      "hit": false,
      "t": 15656.608958333336,
      "d": 713.3109374999985,
      "v": 111
    },
    {
      "midi": 68,
      "hit": false,
      "t": 16517.111041666667,
      "d": 452.8958333333321,
      "v": 111
    },
    {
      "midi": 66,
      "hit": false,
      "t": 16517.111041666667,
      "d": 475.5406249999978,
      "v": 111
    },
    {
      "midi": 75,
      "hit": false,
      "t": 16517.111041666667,
      "d": 475.5406249999978,
      "v": 111
    },
    {
      "midi": 71,
      "hit": false,
      "t": 16517.111041666667,
      "d": 543.4749999999949,
      "v": 111
    },
    {
      "midi": 56,
      "hit": false,
      "t": 16951.891041666666,
      "d": 74.72781249999753,
      "v": 111
    },
    {
      "midi": 68,
      "hit": false,
      "t": 17395.72895833333,
      "d": 520.8302083333328,
      "v": 111
    },
    {
      "midi": 64,
      "hit": false,
      "t": 17395.72895833333,
      "d": 600.0869791666664,
      "v": 111
    },
    {
      "midi": 76,
      "hit": false,
      "t": 17395.72895833333,
      "d": 645.3765625000015,
      "v": 111
    },
    {
      "midi": 71,
      "hit": false,
      "t": 17395.72895833333,
      "d": 656.6989583333343,
      "v": 111
    },
    {
      "midi": 61,
      "hit": false,
      "t": 17395.72895833333,
      "d": 1154.8843750000015,
      "v": 111
    },
    {
      "midi": 64,
      "hit": false,
      "t": 18256.231041666662,
      "d": 350.9942708333365,
      "v": 111
    },
    {
      "midi": 68,
      "hit": false,
      "t": 18256.231041666662,
      "d": 362.31666666666933,
      "v": 111
    },
    {
      "midi": 71,
      "hit": false,
      "t": 18256.231041666662,
      "d": 611.4093750000029,
      "v": 111
    },
    {
      "midi": 76,
      "hit": false,
      "t": 18265.28895833333,
      "d": 452.89583333333576,
      "v": 111
    },
    {
      "midi": 64,
      "hit": false,
      "t": 18691.011041666665,
      "d": 1437.9442708333336,
      "v": 111
    },
    {
      "midi": 61,
      "hit": false,
      "t": 19107.67520833333,
      "d": 13.586875000000873,
      "v": 111
    },
    {
      "midi": 75,
      "hit": false,
      "t": 19107.67520833333,
      "d": 634.0541666666686,
      "v": 111
    },
    {
      "midi": 73,
      "hit": false,
      "t": 19560.571041666666,
      "d": 656.6989583333307,
      "v": 111
    },
    {
      "midi": 61,
      "hit": false,
      "t": 19995.351041666665,
      "d": 622.7317708333321,
      "v": 111
    },
    {
      "midi": 68,
      "hit": false,
      "t": 20212.741041666664,
      "d": 249.09270833333358,
      "v": 111
    },
    {
      "midi": 71,
      "hit": false,
      "t": 20430.131041666664,
      "d": 135.86875000000146,
      "v": 111
    },
    {
      "midi": 61,
      "hit": false,
      "t": 20620.347291666665,
      "d": 67.93437500000073,
      "v": 111
    },
    {
      "midi": 61,
      "hit": false,
      "t": 20864.911041666666,
      "d": 611.4093750000029,
      "v": 111
    },
    {
      "midi": 69,
      "hit": false,
      "t": 20873.968958333335,
      "d": 622.7317708333358,
      "v": 111
    },
    {
      "midi": 64,
      "hit": false,
      "t": 20873.968958333335,
      "d": 656.6989583333343,
      "v": 111
    },
    {
      "midi": 61,
      "hit": false,
      "t": 21734.471041666668,
      "d": 498.18541666666715,
      "v": 111
    },
    {
      "midi": 64,
      "hit": false,
      "t": 21734.471041666668,
      "d": 498.18541666666715,
      "v": 111
    },
    {
      "midi": 69,
      "hit": false,
      "t": 21734.471041666668,
      "d": 566.1197916666679,
      "v": 111
    },
    {
      "midi": 54,
      "hit": false,
      "t": 22169.251041666666,
      "d": 9.057916666668461,
      "v": 111
    },
    {
      "midi": 66,
      "hit": false,
      "t": 22604.03104166667,
      "d": 634.0541666666686,
      "v": 111
    },
    {
      "midi": 63,
      "hit": false,
      "t": 22613.088958333337,
      "d": 634.0541666666686,
      "v": 111
    },
    {
      "midi": 69,
      "hit": false,
      "t": 22613.088958333337,
      "d": 645.3765625000015,
      "v": 111
    },
    {
      "midi": 71,
      "hit": false,
      "t": 22613.088958333337,
      "d": 668.0213541666672,
      "v": 111
    },
    {
      "midi": 59,
      "hit": false,
      "t": 22613.088958333337,
      "d": 1290.7531249999993,
      "v": 111
    },
    {
      "midi": 69,
      "hit": false,
      "t": 23473.59104166667,
      "d": 452.8958333333321,
      "v": 111
    },
    {
      "midi": 63,
      "hit": false,
      "t": 23473.59104166667,
      "d": 498.18541666666715,
      "v": 111
    },
    {
      "midi": 66,
      "hit": false,
      "t": 23473.59104166667,
      "d": 520.8302083333328,
      "v": 111
    },
    {
      "midi": 71,
      "hit": false,
      "t": 23473.59104166667,
      "d": 554.7973958333314,
      "v": 111
    },
    {
      "midi": 59,
      "hit": false,
      "t": 23908.37104166667,
      "d": 520.8302083333328,
      "v": 111
    },
    {
      "midi": 66,
      "hit": false,
      "t": 24343.151041666668,
      "d": 532.1526041666657,
      "v": 111
    },
    {
      "midi": 68,
      "hit": false,
      "t": 24343.151041666668,
      "d": 577.4421875000007,
      "v": 111
    },
    {
      "midi": 62,
      "hit": false,
      "t": 24343.151041666668,
      "d": 656.6989583333343,
      "v": 111
    },
    {
      "midi": 71,
      "hit": false,
      "t": 24343.151041666668,
      "d": 656.6989583333343,
      "v": 111
    },
    {
      "midi": 52,
      "hit": false,
      "t": 24343.151041666668,
      "d": 1177.5291666666672,
      "v": 111
    },
    {
      "midi": 62,
      "hit": false,
      "t": 25212.71104166667,
      "d": 566.1197916666642,
      "v": 111
    },
    {
      "midi": 66,
      "hit": false,
      "t": 25212.71104166667,
      "d": 792.5677083333321,
      "v": 111
    },
    {
      "midi": 68,
      "hit": false,
      "t": 25212.71104166667,
      "d": 826.5348958333307,
      "v": 111
    },
    {
      "midi": 52,
      "hit": false,
      "t": 25647.491041666668,
      "d": 498.18541666666715,
      "v": 111
    },
    {
      "midi": 62,
      "hit": false,
      "t": 25864.881041666667,
      "d": 158.51354166666715,
      "v": 111
    },
    {
      "midi": 54,
      "hit": false,
      "t": 26082.271041666667,
      "d": 600.0869791666737,
      "v": 111
    },
    {
      "midi": 69,
      "hit": false,
      "t": 26082.271041666667,
      "d": 1019.0156250000073,
      "v": 111
    },
    {
      "midi": 62,
      "hit": false,
      "t": 26091.328958333335,
      "d": 362.31666666666933,
      "v": 111
    },
    {
      "midi": 54,
      "hit": false,
      "t": 26734.441041666672,
      "d": 249.09270833333358,
      "v": 111
    },
    {
      "midi": 71,
      "hit": false,
      "t": 26951.83104166667,
      "d": 871.8244791666693,
      "v": 111
    },
    {
      "midi": 56,
      "hit": false,
      "t": 26951.83104166667,
      "d": 1120.917187500003,
      "v": 111
    },
    {
      "midi": 62,
      "hit": false,
      "t": 27386.611041666674,
      "d": 24.90927083333372,
      "v": 111
    },
    {
      "midi": 69,
      "hit": false,
      "t": 27821.391041666673,
      "d": 724.633333333335,
      "v": 111
    },
    {
      "midi": 64,
      "hit": false,
      "t": 27830.44895833334,
      "d": 690.6661458333328,
      "v": 111
    },
    {
      "midi": 73,
      "hit": false,
      "t": 27839.50687500001,
      "d": 622.7317708333321,
      "v": 111
    },
    {
      "midi": 71,
      "hit": false,
      "t": 27839.50687500001,
      "d": 690.6661458333328,
      "v": 111
    },
    {
      "midi": 57,
      "hit": false,
      "t": 27839.50687500001,
      "d": 1086.949999999997,
      "v": 111
    },
    {
      "midi": 64,
      "hit": false,
      "t": 28690.951041666674,
      "d": 328.34947916666715,
      "v": 111
    },
    {
      "midi": 69,
      "hit": false,
      "t": 28690.951041666674,
      "d": 384.96145833333503,
      "v": 111
    },
    {
      "midi": 71,
      "hit": false,
      "t": 28690.951041666674,
      "d": 452.89583333333576,
      "v": 111
    },
    {
      "midi": 73,
      "hit": false,
      "t": 28690.951041666674,
      "d": 486.8630208333343,
      "v": 111
    },
    {
      "midi": 57,
      "hit": false,
      "t": 29125.731041666677,
      "d": 566.1197916666679,
      "v": 111
    },
    {
      "midi": 71,
      "hit": false,
      "t": 29569.568958333344,
      "d": 509.50781250000364,
      "v": 111
    },
    {
      "midi": 75,
      "hit": false,
      "t": 29569.568958333344,
      "d": 509.50781250000364,
      "v": 111
    },
    {
      "midi": 66,
      "hit": false,
      "t": 30430.07104166668,
      "d": 58.876458333332266,
      "v": 111
    },
    {
      "midi": 68,
      "hit": false,
      "t": 30430.07104166668,
      "d": 509.5078125,
      "v": 111
    },
    {
      "midi": 75,
      "hit": false,
      "t": 30430.07104166668,
      "d": 509.5078125,
      "v": 111
    },
    {
      "midi": 71,
      "hit": false,
      "t": 30430.07104166668,
      "d": 554.797395833335,
      "v": 111
    },
    {
      "midi": 56,
      "hit": false,
      "t": 30864.85104166668,
      "d": 156.24906250000276,
      "v": 111
    },
    {
      "midi": 68,
      "hit": false,
      "t": 31308.68895833335,
      "d": 486.8630208333343,
      "v": 111
    },
    {
      "midi": 75,
      "hit": false,
      "t": 31317.74687500002,
      "d": 67.93437500000073,
      "v": 111
    },
    {
      "midi": 71,
      "hit": false,
      "t": 31317.74687500002,
      "d": 543.4749999999985,
      "v": 111
    },
    {
      "midi": 64,
      "hit": false,
      "t": 31317.74687500002,
      "d": 554.7973958333314,
      "v": 111
    },
    {
      "midi": 63,
      "hit": false,
      "t": 32169.191041666683,
      "d": 486.86302083333067,
      "v": 111
    },
    {
      "midi": 64,
      "hit": false,
      "t": 32603.971041666682,
      "d": 203.8031249999949,
      "v": 111
    },
    {
      "midi": 61,
      "hit": false,
      "t": 33038.75104166668,
      "d": 45.28958333333139,
      "v": 111
    },
    {
      "midi": 68,
      "hit": false,
      "t": 33256.14104166668,
      "d": 169.8359375,
      "v": 111
    },
    {
      "midi": 76,
      "hit": false,
      "t": 33473.531041666676,
      "d": 135.86875000000146,
      "v": 111
    },
    {
      "midi": 75,
      "hit": false,
      "t": 33690.921041666676,
      "d": 498.18541666666715,
      "v": 111
    },
    {
      "midi": 64,
      "hit": false,
      "t": 33908.311041666675,
      "d": 430.25104166667006,
      "v": 111
    },
    {
      "midi": 71,
      "hit": false,
      "t": 34125.701041666674,
      "d": 260.41510416667006,
      "v": 111
    },
    {
      "midi": 68,
      "hit": false,
      "t": 34343.09104166668,
      "d": 90.57916666666279,
      "v": 111
    },
    {
      "midi": 61,
      "hit": false,
      "t": 34777.87104166668,
      "d": 61.14093750000029,
      "v": 111
    },
    {
      "midi": 64,
      "hit": false,
      "t": 34777.87104166668,
      "d": 600.0869791666628,
      "v": 111
    },
    {
      "midi": 69,
      "hit": false,
      "t": 34786.928958333345,
      "d": 611.4093749999956,
      "v": 111
    },
    {
      "midi": 54,
      "hit": false,
      "t": 34786.928958333345,
      "d": 1211.4963541666657,
      "v": 111
    },
    {
      "midi": 64,
      "hit": false,
      "t": 35629.31520833334,
      "d": 520.8302083333328,
      "v": 111
    },
    {
      "midi": 69,
      "hit": false,
      "t": 35629.31520833334,
      "d": 611.4093750000029,
      "v": 111
    },
    {
      "midi": 73,
      "hit": false,
      "t": 35629.31520833334,
      "d": 634.0541666666686,
      "v": 111
    },
    {
      "midi": 54,
      "hit": false,
      "t": 36082.21104166668,
      "d": 566.1197916666642,
      "v": 111
    },
    {
      "midi": 66,
      "hit": false,
      "t": 36516.991041666675,
      "d": 668.0213541666599,
      "v": 111
    },
    {
      "midi": 75,
      "hit": false,
      "t": 36526.04895833334,
      "d": 622.7317708333285,
      "v": 111
    },
    {
      "midi": 73,
      "hit": false,
      "t": 36526.04895833334,
      "d": 645.3765624999942,
      "v": 111
    },
    {
      "midi": 69,
      "hit": false,
      "t": 36526.04895833334,
      "d": 668.0213541666599,
      "v": 111
    },
    {
      "midi": 59,
      "hit": false,
      "t": 36526.04895833334,
      "d": 1279.4307291666555,
      "v": 111
    },
    {
      "midi": 66,
      "hit": false,
      "t": 37386.551041666666,
      "d": 486.8630208333343,
      "v": 111
    },
    {
      "midi": 69,
      "hit": false,
      "t": 37386.551041666666,
      "d": 520.8302083333328,
      "v": 111
    },
    {
      "midi": 73,
      "hit": false,
      "t": 37386.551041666666,
      "d": 543.4749999999985,
      "v": 111
    },
    {
      "midi": 75,
      "hit": false,
      "t": 37386.551041666666,
      "d": 634.0541666666613,
      "v": 111
    },
    {
      "midi": 59,
      "hit": false,
      "t": 37821.331041666665,
      "d": 192.4807291666657,
      "v": 111
    },
    {
      "midi": 68,
      "hit": false,
      "t": 38256.11104166666,
      "d": 611.4093749999956,
      "v": 111
    },
    {
      "midi": 64,
      "hit": false,
      "t": 38265.16895833333,
      "d": 1234.1411458333314,
      "v": 111
    },
    {
      "midi": 71,
      "hit": false,
      "t": 38274.22687499999,
      "d": 588.7645833333299,
      "v": 111
    },
    {
      "midi": 76,
      "hit": false,
      "t": 38274.22687499999,
      "d": 588.7645833333299,
      "v": 111
    },
    {
      "midi": 66,
      "hit": false,
      "t": 39125.67104166666,
      "d": 588.7645833333299,
      "v": 111
    },
    {
      "midi": 71,
      "hit": false,
      "t": 39125.67104166666,
      "d": 645.3765624999942,
      "v": 111
    },
    {
      "midi": 76,
      "hit": false,
      "t": 39125.67104166666,
      "d": 668.0213541666599,
      "v": 111
    },
    {
      "midi": 64,
      "hit": false,
      "t": 39560.45104166666,
      "d": 328.3494791666599,
      "v": 111
    },
    {
      "midi": 76,
      "hit": false,
      "t": 39995.23104166665,
      "d": 1109.5947916666555,
      "v": 111
    },
    {
      "midi": 71,
      "hit": false,
      "t": 40212.62104166665,
      "d": 317.0270833333343,
      "v": 111
    },
    {
      "midi": 68,
      "hit": false,
      "t": 40430.01104166665,
      "d": 668.0213541666599,
      "v": 111
    },
    {
      "midi": 64,
      "hit": false,
      "t": 40864.79104166665,
      "d": 13.586875000000873,
      "v": 111
    },
    {
      "midi": 71,
      "hit": false,
      "t": 40864.79104166665,
      "d": 226.44791666666424,
      "v": 111
    },
    {
      "midi": 68,
      "hit": false,
      "t": 41734.35104166664,
      "d": 4098.707291666666,
      "v": 111
    },
    {
      "midi": 61,
      "hit": false,
      "t": 41734.35104166664,
      "d": 4121.352083333331,
      "v": 111
    },
    {
      "midi": 57,
      "hit": false,
      "t": 45656.42895833331,
      "d": 113.22395833332848,
      "v": 111
    },
    {
      "midi": 59,
      "hit": false,
      "t": 45656.42895833331,
      "d": 113.22395833332848,
      "v": 111
    },
    {
      "midi": 69,
      "hit": false,
      "t": 45665.48687499997,
      "d": 67.93437499999709,
      "v": 111
    },
    {
      "midi": 73,
      "hit": false,
      "t": 45665.48687499997,
      "d": 67.93437499999709,
      "v": 111
    },
    {
      "midi": 64,
      "hit": false,
      "t": 45665.48687499997,
      "d": 90.57916666666279,
      "v": 111
    },
    {
      "midi": 71,
      "hit": false,
      "t": 45665.48687499997,
      "d": 113.22395833332848,
      "v": 111
    },
    {
      "midi": 57,
      "hit": false,
      "t": 46091.20895833331,
      "d": 803.8901041666613,
      "v": 111
    },
    {
      "midi": 64,
      "hit": false,
      "t": 46091.20895833331,
      "d": 803.8901041666613,
      "v": 111
    },
    {
      "midi": 73,
      "hit": false,
      "t": 46091.20895833331,
      "d": 803.8901041666613,
      "v": 111
    },
    {
      "midi": 59,
      "hit": false,
      "t": 46100.26687499997,
      "d": 803.8901041666613,
      "v": 111
    },
    {
      "midi": 69,
      "hit": false,
      "t": 46100.26687499997,
      "d": 815.2124999999942,
      "v": 111
    },
    {
      "midi": 64,
      "hit": false,
      "t": 46951.71104166663,
      "d": 67.93437499999709,
      "v": 111
    },
    {
      "midi": 57,
      "hit": false,
      "t": 46951.71104166663,
      "d": 90.57916666666279,
      "v": 111
    },
    {
      "midi": 73,
      "hit": false,
      "t": 46951.71104166663,
      "d": 101.90156249999563,
      "v": 111
    },
    {
      "midi": 69,
      "hit": false,
      "t": 46960.7689583333,
      "d": 90.57916666666279,
      "v": 111
    },
    {
      "midi": 59,
      "hit": false,
      "t": 46960.7689583333,
      "d": 101.90156249999563,
      "v": 111
    },
    {
      "midi": 57,
      "hit": false,
      "t": 47386.491041666624,
      "d": 973.7260416666613,
      "v": 111
    },
    {
      "midi": 69,
      "hit": false,
      "t": 47395.54895833329,
      "d": 928.4364583333299,
      "v": 111
    },
    {
      "midi": 73,
      "hit": false,
      "t": 47395.54895833329,
      "d": 939.7588541666628,
      "v": 111
    },
    {
      "midi": 64,
      "hit": false,
      "t": 47395.54895833329,
      "d": 962.4036458333285,
      "v": 111
    },
    {
      "midi": 59,
      "hit": false,
      "t": 47395.54895833329,
      "d": 1019.015625,
      "v": 111
    },
    {
      "midi": 64,
      "hit": false,
      "t": 48690.83104166662,
      "d": 566.1197916666642,
      "v": 111
    },
    {
      "midi": 68,
      "hit": false,
      "t": 48690.83104166662,
      "d": 566.1197916666642,
      "v": 111
    },
    {
      "midi": 71,
      "hit": false,
      "t": 48690.83104166662,
      "d": 600.0869791666628,
      "v": 111
    },
    {
      "midi": 59,
      "hit": false,
      "t": 48690.83104166662,
      "d": 849.1796874999927,
      "v": 111
    },
    {
      "midi": 52,
      "hit": false,
      "t": 48690.83104166662,
      "d": 996.370833333327,
      "v": 111
    },
    {
      "midi": 64,
      "hit": false,
      "t": 49560.39104166661,
      "d": 384.96145833333867,
      "v": 111
    },
    {
      "midi": 68,
      "hit": false,
      "t": 49560.39104166661,
      "d": 430.25104166667006,
      "v": 111
    },
    {
      "midi": 71,
      "hit": false,
      "t": 49560.39104166661,
      "d": 532.152604166673,
      "v": 111
    },
    {
      "midi": 52,
      "hit": false,
      "t": 49995.17104166662,
      "d": 475.54062500000146,
      "v": 111
    },
    {
      "midi": 69,
      "hit": false,
      "t": 50429.951041666616,
      "d": 600.0869791666701,
      "v": 111
    },
    {
      "midi": 73,
      "hit": false,
      "t": 50429.951041666616,
      "d": 622.7317708333358,
      "v": 111
    },
    {
      "midi": 64,
      "hit": false,
      "t": 50429.951041666616,
      "d": 634.0541666666686,
      "v": 111
    },
    {
      "midi": 54,
      "hit": false,
      "t": 50429.951041666616,
      "d": 1041.6604166666657,
      "v": 111
    },
    {
      "midi": 56,
      "hit": false,
      "t": 51299.51104166662,
      "d": 634.0541666666613,
      "v": 111
    },
    {
      "midi": 64,
      "hit": false,
      "t": 51299.51104166662,
      "d": 634.0541666666613,
      "v": 111
    },
    {
      "midi": 71,
      "hit": false,
      "t": 51299.51104166662,
      "d": 634.0541666666613,
      "v": 111
    },
    {
      "midi": 74,
      "hit": false,
      "t": 51308.568958333286,
      "d": 532.1526041666657,
      "v": 111
    },
    {
      "midi": 69,
      "hit": false,
      "t": 52169.07104166662,
      "d": 826.534895833327,
      "v": 111
    },
    {
      "midi": 64,
      "hit": false,
      "t": 52169.07104166662,
      "d": 837.8572916666599,
      "v": 111
    },
    {
      "midi": 73,
      "hit": false,
      "t": 52169.07104166662,
      "d": 962.4036458333212,
      "v": 111
    },
    {
      "midi": 61,
      "hit": false,
      "t": 52169.07104166662,
      "d": 985.0484374999869,
      "v": 111
    },
    {
      "midi": 57,
      "hit": false,
      "t": 52169.07104166662,
      "d": 1177.5291666666526,
      "v": 111
    },
    {
      "midi": 64,
      "hit": false,
      "t": 53038.63104166661,
      "d": 441.57343749999563,
      "v": 111
    },
    {
      "midi": 69,
      "hit": false,
      "t": 53038.63104166661,
      "d": 600.0869791666628,
      "v": 111
    },
    {
      "midi": 61,
      "hit": false,
      "t": 53908.19104166661,
      "d": 1245.4635416666642,
      "v": 111
    },
    {
      "midi": 69,
      "hit": false,
      "t": 53908.19104166661,
      "d": 1505.8786458333343,
      "v": 111
    },
    {
      "midi": 73,
      "hit": false,
      "t": 54777.751041666605,
      "d": 418.92864583332994,
      "v": 111
    },
    {
      "midi": 61,
      "hit": false,
      "t": 55212.5310416666,
      "d": 90.57916666667006,
      "v": 111
    },
    {
      "midi": 57,
      "hit": false,
      "t": 55647.31104166661,
      "d": 124.5463541666686,
      "v": 111
    },
    {
      "midi": 61,
      "hit": false,
      "t": 55647.31104166661,
      "d": 475.54062500000146,
      "v": 111
    },
    {
      "midi": 64,
      "hit": false,
      "t": 55647.31104166661,
      "d": 532.1526041666657,
      "v": 111
    },
    {
      "midi": 69,
      "hit": false,
      "t": 55647.31104166661,
      "d": 566.1197916666642,
      "v": 111
    },
    {
      "midi": 64,
      "hit": false,
      "t": 56516.87104166661,
      "d": 475.54062500000146,
      "v": 111
    },
    {
      "midi": 69,
      "hit": false,
      "t": 56516.87104166661,
      "d": 600.0869791666701,
      "v": 111
    },
    {
      "midi": 73,
      "hit": false,
      "t": 56516.87104166661,
      "d": 656.6989583333343,
      "v": 111
    },
    {
      "midi": 57,
      "hit": false,
      "t": 56951.651041666606,
      "d": 76.99229166666919,
      "v": 111
    },
    {
      "midi": 68,
      "hit": false,
      "t": 57386.431041666605,
      "d": 656.698958333327,
      "v": 111
    },
    {
      "midi": 66,
      "hit": false,
      "t": 57386.431041666605,
      "d": 724.6333333333241,
      "v": 111
    },
    {
      "midi": 75,
      "hit": false,
      "t": 57395.48895833327,
      "d": 668.0213541666599,
      "v": 111
    },
    {
      "midi": 71,
      "hit": false,
      "t": 57395.48895833327,
      "d": 713.3109374999913,
      "v": 111
    },
    {
      "midi": 56,
      "hit": false,
      "t": 57395.48895833327,
      "d": 1268.1083333333227,
      "v": 111
    },
    {
      "midi": 66,
      "hit": false,
      "t": 58255.991041666595,
      "d": 407.6062499999971,
      "v": 111
    },
    {
      "midi": 75,
      "hit": false,
      "t": 58255.991041666595,
      "d": 452.89583333333576,
      "v": 111
    },
    {
      "midi": 68,
      "hit": false,
      "t": 58255.991041666595,
      "d": 475.54062500000146,
      "v": 111
    },
    {
      "midi": 71,
      "hit": false,
      "t": 58255.991041666595,
      "d": 566.1197916666715,
      "v": 111
    },
    {
      "midi": 56,
      "hit": false,
      "t": 58690.771041666594,
      "d": 520.8302083333401,
      "v": 111
    },
    {
      "midi": 64,
      "hit": false,
      "t": 59134.608958333265,
      "d": 418.9286458333372,
      "v": 111
    },
    {
      "midi": 68,
      "hit": false,
      "t": 59134.608958333265,
      "d": 430.25104166667006,
      "v": 111
    },
    {
      "midi": 71,
      "hit": false,
      "t": 59134.608958333265,
      "d": 430.25104166667006,
      "v": 111
    },
    {
      "midi": 76,
      "hit": false,
      "t": 59134.608958333265,
      "d": 600.0869791666701,
      "v": 111
    },
    {
      "midi": 61,
      "hit": false,
      "t": 59134.608958333265,
      "d": 837.8572916666672,
      "v": 111
    },
    {
      "midi": 61,
      "hit": false,
      "t": 59995.1110416666,
      "d": 769.9229166666701,
      "v": 111
    },
    {
      "midi": 68,
      "hit": false,
      "t": 60429.8910416666,
      "d": 90.57916666667006,
      "v": 111
    },
    {
      "midi": 71,
      "hit": false,
      "t": 60429.8910416666,
      "d": 101.90156250000291,
      "v": 111
    },
    {
      "midi": 75,
      "hit": false,
      "t": 60429.8910416666,
      "d": 135.86875000000146,
      "v": 111
    },
    {
      "midi": 68,
      "hit": false,
      "t": 60864.6710416666,
      "d": 90.57916666667006,
      "v": 111
    },
    {
      "midi": 71,
      "hit": false,
      "t": 60864.6710416666,
      "d": 124.5463541666686,
      "v": 111
    },
    {
      "midi": 76,
      "hit": false,
      "t": 60864.6710416666,
      "d": 135.86875000000146,
      "v": 111
    },
    {
      "midi": 61,
      "hit": false,
      "t": 60864.6710416666,
      "d": 849.1796875,
      "v": 111
    },
    {
      "midi": 75,
      "hit": false,
      "t": 61299.4510416666,
      "d": 135.86875000000146,
      "v": 111
    },
    {
      "midi": 68,
      "hit": false,
      "t": 61299.4510416666,
      "d": 147.1911458333343,
      "v": 111
    },
    {
      "midi": 71,
      "hit": false,
      "t": 61299.4510416666,
      "d": 147.1911458333343,
      "v": 111
    },
    {
      "midi": 61,
      "hit": false,
      "t": 61734.2310416666,
      "d": 769.9229166666701,
      "v": 111
    },
    {
      "midi": 64,
      "hit": false,
      "t": 61951.6210416666,
      "d": 192.4807291666657,
      "v": 111
    },
    {
      "midi": 71,
      "hit": false,
      "t": 62169.0110416666,
      "d": 135.86875000000146,
      "v": 111
    },
    {
      "midi": 61,
      "hit": false,
      "t": 62603.791041666605,
      "d": 622.7317708333285,
      "v": 111
    },
    {
      "midi": 64,
      "hit": false,
      "t": 62612.84895833327,
      "d": 611.4093749999956,
      "v": 111
    },
    {
      "midi": 69,
      "hit": false,
      "t": 62612.84895833327,
      "d": 645.3765624999942,
      "v": 111
    },
    {
      "midi": 61,
      "hit": false,
      "t": 63473.351041666596,
      "d": 520.8302083333328,
      "v": 111
    },
    {
      "midi": 64,
      "hit": false,
      "t": 63473.351041666596,
      "d": 520.8302083333328,
      "v": 111
    },
    {
      "midi": 69,
      "hit": false,
      "t": 63473.351041666596,
      "d": 577.4421874999971,
      "v": 111
    },
    {
      "midi": 54,
      "hit": false,
      "t": 63908.131041666595,
      "d": 20.38031249999767,
      "v": 111
    },
    {
      "midi": 66,
      "hit": false,
      "t": 64342.91104166659,
      "d": 532.1526041666584,
      "v": 111
    },
    {
      "midi": 63,
      "hit": false,
      "t": 64342.91104166659,
      "d": 656.698958333327,
      "v": 111
    },
    {
      "midi": 59,
      "hit": false,
      "t": 64342.91104166659,
      "d": 1279.4307291666628,
      "v": 111
    },
    {
      "midi": 69,
      "hit": false,
      "t": 64351.96895833326,
      "d": 634.0541666666613,
      "v": 111
    },
    {
      "midi": 71,
      "hit": false,
      "t": 64351.96895833326,
      "d": 634.0541666666613,
      "v": 111
    },
    {
      "midi": 69,
      "hit": false,
      "t": 65212.471041666584,
      "d": 407.60625000000437,
      "v": 111
    },
    {
      "midi": 63,
      "hit": false,
      "t": 65212.471041666584,
      "d": 452.89583333333576,
      "v": 111
    },
    {
      "midi": 66,
      "hit": false,
      "t": 65212.471041666584,
      "d": 464.2182291666759,
      "v": 111
    },
    {
      "midi": 71,
      "hit": false,
      "t": 65212.471041666584,
      "d": 509.5078125000073,
      "v": 111
    },
    {
      "midi": 59,
      "hit": false,
      "t": 65647.25104166659,
      "d": 192.4807291666657,
      "v": 111
    },
    {
      "midi": 66,
      "hit": false,
      "t": 66082.03104166659,
      "d": 520.8302083333401,
      "v": 111
    },
    {
      "midi": 68,
      "hit": false,
      "t": 66082.03104166659,
      "d": 532.1526041666802,
      "v": 111
    },
    {
      "midi": 52,
      "hit": false,
      "t": 66082.03104166659,
      "d": 1120.917187500032,
      "v": 111
    },
    {
      "midi": 71,
      "hit": false,
      "t": 66091.08895833326,
      "d": 577.4421875000116,
      "v": 111
    },
    {
      "midi": 62,
      "hit": false,
      "t": 66091.08895833326,
      "d": 634.0541666666832,
      "v": 111
    },
    {
      "midi": 66,
      "hit": false,
      "t": 66951.59104166662,
      "d": 690.6661458333401,
      "v": 111
    },
    {
      "midi": 68,
      "hit": false,
      "t": 66951.59104166662,
      "d": 701.9885416666802,
      "v": 111
    },
    {
      "midi": 62,
      "hit": false,
      "t": 67386.37104166661,
      "d": 6.7934375000040745,
      "v": 111
    },
    {
      "midi": 52,
      "hit": false,
      "t": 67386.37104166661,
      "d": 566.1197916666861,
      "v": 111
    },
    {
      "midi": 62,
      "hit": false,
      "t": 67821.15104166663,
      "d": 384.9614583333314,
      "v": 111
    },
    {
      "midi": 54,
      "hit": false,
      "t": 67821.15104166663,
      "d": 600.0869791666628,
      "v": 111
    },
    {
      "midi": 69,
      "hit": false,
      "t": 67821.15104166663,
      "d": 917.1140624999971,
      "v": 111
    },
    {
      "midi": 62,
      "hit": false,
      "t": 68255.93104166663,
      "d": 350.9942708333256,
      "v": 111
    },
    {
      "midi": 54,
      "hit": false,
      "t": 68473.32104166663,
      "d": 249.0927083333372,
      "v": 111
    },
    {
      "midi": 71,
      "hit": false,
      "t": 68690.71104166663,
      "d": 781.2453125000029,
      "v": 111
    },
    {
      "midi": 56,
      "hit": false,
      "t": 68690.71104166663,
      "d": 1052.9828124999913,
      "v": 111
    },
    {
      "midi": 62,
      "hit": false,
      "t": 69125.49104166662,
      "d": 169.8359375,
      "v": 111
    },
    {
      "midi": 64,
      "hit": false,
      "t": 69560.27104166662,
      "d": 554.7973958333168,
      "v": 111
    },
    {
      "midi": 73,
      "hit": false,
      "t": 69560.27104166662,
      "d": 554.7973958333168,
      "v": 111
    },
    {
      "midi": 69,
      "hit": false,
      "t": 69560.27104166662,
      "d": 577.4421874999825,
      "v": 111
    },
    {
      "midi": 71,
      "hit": false,
      "t": 69560.27104166662,
      "d": 701.9885416666511,
      "v": 111
    },
    {
      "midi": 57,
      "hit": false,
      "t": 69569.3289583333,
      "d": 1234.1411458333168,
      "v": 111
    },
    {
      "midi": 64,
      "hit": false,
      "t": 70429.8310416666,
      "d": 384.96145833334594,
      "v": 111
    },
    {
      "midi": 69,
      "hit": false,
      "t": 70429.8310416666,
      "d": 430.25104166667734,
      "v": 111
    },
    {
      "midi": 71,
      "hit": false,
      "t": 70429.8310416666,
      "d": 498.1854166666744,
      "v": 111
    },
    {
      "midi": 73,
      "hit": false,
      "t": 70429.8310416666,
      "d": 509.50781250001455,
      "v": 111
    },
    {
      "midi": 57,
      "hit": false,
      "t": 70864.61104166662,
      "d": 543.4750000000058,
      "v": 111
    },
    {
      "midi": 66,
      "hit": false,
      "t": 71308.44895833329,
      "d": 622.7317708333285,
      "v": 111
    },
    {
      "midi": 68,
      "hit": false,
      "t": 71317.50687499996,
      "d": 600.0869791666628,
      "v": 111
    },
    {
      "midi": 75,
      "hit": false,
      "t": 71317.50687499996,
      "d": 600.0869791666628,
      "v": 111
    },
    {
      "midi": 71,
      "hit": false,
      "t": 71317.50687499996,
      "d": 656.6989583333198,
      "v": 111
    },
    {
      "midi": 66,
      "hit": false,
      "t": 72168.95104166662,
      "d": 566.1197916666715,
      "v": 111
    },
    {
      "midi": 68,
      "hit": false,
      "t": 72168.95104166662,
      "d": 611.4093750000029,
      "v": 111
    },
    {
      "midi": 71,
      "hit": false,
      "t": 72168.95104166662,
      "d": 690.6661458333401,
      "v": 111
    },
    {
      "midi": 75,
      "hit": false,
      "t": 72168.95104166662,
      "d": 713.3109375000058,
      "v": 111
    },
    {
      "midi": 56,
      "hit": false,
      "t": 72603.73104166662,
      "d": 4.52895833333605,
      "v": 111
    },
    {
      "midi": 68,
      "hit": false,
      "t": 73038.51104166663,
      "d": 588.7645833333372,
      "v": 111
    },
    {
      "midi": 73,
      "hit": false,
      "t": 73038.51104166663,
      "d": 634.0541666666686,
      "v": 111
    },
    {
      "midi": 61,
      "hit": false,
      "t": 73038.51104166663,
      "d": 1132.239583333343,
      "v": 111
    },
    {
      "midi": 64,
      "hit": false,
      "t": 73047.5689583333,
      "d": 622.7317708333285,
      "v": 111
    },
    {
      "midi": 64,
      "hit": false,
      "t": 73908.07104166663,
      "d": 203.80312500000582,
      "v": 111
    },
    {
      "midi": 68,
      "hit": false,
      "t": 73908.07104166663,
      "d": 226.44791666667152,
      "v": 111
    },
    {
      "midi": 71,
      "hit": false,
      "t": 74342.85104166664,
      "d": 124.5463541666686,
      "v": 111
    },
    {
      "midi": 68,
      "hit": false,
      "t": 74342.85104166664,
      "d": 147.1911458333343,
      "v": 111
    },
    {
      "midi": 75,
      "hit": false,
      "t": 74342.85104166664,
      "d": 169.8359375,
      "v": 111
    },
    {
      "midi": 76,
      "hit": false,
      "t": 74777.63104166664,
      "d": 192.4807291666657,
      "v": 111
    },
    {
      "midi": 68,
      "hit": false,
      "t": 74777.63104166664,
      "d": 249.0927083333372,
      "v": 111
    },
    {
      "midi": 61,
      "hit": false,
      "t": 74777.63104166664,
      "d": 792.5677083333285,
      "v": 111
    },
    {
      "midi": 68,
      "hit": false,
      "t": 75212.41104166664,
      "d": 305.7046874999942,
      "v": 111
    },
    {
      "midi": 75,
      "hit": false,
      "t": 75212.41104166664,
      "d": 339.671875,
      "v": 111
    },
    {
      "midi": 71,
      "hit": false,
      "t": 75647.19104166664,
      "d": 498.1854166666599,
      "v": 111
    },
    {
      "midi": 61,
      "hit": false,
      "t": 75647.19104166664,
      "d": 724.6333333333314,
      "v": 111
    },
    {
      "midi": 68,
      "hit": false,
      "t": 76081.97104166663,
      "d": 113.22395833332848,
      "v": 111
    },
    {
      "midi": 69,
      "hit": false,
      "t": 76516.75104166663,
      "d": 611.4093750000029,
      "v": 111
    },
    {
      "midi": 61,
      "hit": false,
      "t": 76516.75104166663,
      "d": 645.3765624999942,
      "v": 111
    },
    {
      "midi": 54,
      "hit": false,
      "t": 76516.75104166663,
      "d": 1211.4963541666657,
      "v": 111
    },
    {
      "midi": 64,
      "hit": false,
      "t": 76525.8089583333,
      "d": 622.7317708333285,
      "v": 111
    },
    {
      "midi": 69,
      "hit": false,
      "t": 77386.31104166663,
      "d": 486.8630208333343,
      "v": 111
    },
    {
      "midi": 64,
      "hit": false,
      "t": 77386.31104166663,
      "d": 520.8302083333401,
      "v": 111
    },
    {
      "midi": 61,
      "hit": false,
      "t": 77386.31104166663,
      "d": 577.4421875000116,
      "v": 111
    },
    {
      "midi": 71,
      "hit": false,
      "t": 77821.09104166663,
      "d": 430.25104166667734,
      "v": 111
    },
    {
      "midi": 54,
      "hit": false,
      "t": 77821.09104166663,
      "d": 532.1526041666802,
      "v": 111
    },
    {
      "midi": 66,
      "hit": false,
      "t": 78255.87104166664,
      "d": 634.054166666654,
      "v": 111
    },
    {
      "midi": 63,
      "hit": false,
      "t": 78255.87104166664,
      "d": 668.0213541666599,
      "v": 111
    },
    {
      "midi": 71,
      "hit": false,
      "t": 78255.87104166664,
      "d": 724.6333333333314,
      "v": 111
    },
    {
      "midi": 73,
      "hit": false,
      "t": 78255.87104166664,
      "d": 724.6333333333314,
      "v": 111
    },
    {
      "midi": 69,
      "hit": false,
      "t": 79125.43104166664,
      "d": 373.6390625000058,
      "v": 111
    },
    {
      "midi": 73,
      "hit": false,
      "t": 79125.43104166664,
      "d": 373.6390625000058,
      "v": 111
    },
    {
      "midi": 66,
      "hit": false,
      "t": 79125.43104166664,
      "d": 384.96145833334594,
      "v": 111
    },
    {
      "midi": 75,
      "hit": false,
      "t": 79125.43104166664,
      "d": 441.57343750001746,
      "v": 111
    },
    {
      "midi": 59,
      "hit": false,
      "t": 79560.21104166665,
      "d": 9.0579166666721,
      "v": 111
    },
    {
      "midi": 76,
      "hit": false,
      "t": 79560.21104166665,
      "d": 350.9942708333401,
      "v": 111
    },
    {
      "midi": 71,
      "hit": false,
      "t": 79994.99104166667,
      "d": 532.1526041666657,
      "v": 111
    },
    {
      "midi": 76,
      "hit": false,
      "t": 79994.99104166667,
      "d": 543.4750000000058,
      "v": 111
    },
    {
      "midi": 68,
      "hit": false,
      "t": 79994.99104166667,
      "d": 566.1197916666715,
      "v": 111
    },
    {
      "midi": 52,
      "hit": false,
      "t": 79994.99104166667,
      "d": 1426.621874999997,
      "v": 111
    },
    {
      "midi": 59,
      "hit": false,
      "t": 80429.77104166667,
      "d": 1675.7145833333343,
      "v": 111
    },
    {
      "midi": 64,
      "hit": false,
      "t": 80864.55104166667,
      "d": 543.4750000000058,
      "v": 111
    },
    {
      "midi": 52,
      "hit": false,
      "t": 81734.11104166666,
      "d": 1403.9770833333314,
      "v": 111
    },
    {
      "midi": 59,
      "hit": false,
      "t": 82168.89104166666,
      "d": 849.1796875,
      "v": 111
    },
    {
      "midi": 68,
      "hit": false,
      "t": 82603.67104166666,
      "d": 9.0579166666721,
      "v": 111
    },
    {
      "midi": 71,
      "hit": false,
      "t": 82603.67104166666,
      "d": 81.52125000000524,
      "v": 111
    },
    {
      "midi": 76,
      "hit": false,
      "t": 82603.67104166666,
      "d": 464.2182291666686,
      "v": 111
    },
    {
      "midi": 59,
      "hit": false,
      "t": 83038.45104166666,
      "d": 384.9614583333314,
      "v": 111
    },
    {
      "midi": 71,
      "hit": false,
      "t": 83473.23104166666,
      "d": 645.3765624999942,
      "v": 111
    },
    {
      "midi": 76,
      "hit": false,
      "t": 83473.23104166666,
      "d": 679.34375,
      "v": 111
    },
    {
      "midi": 68,
      "hit": false,
      "t": 83473.23104166666,
      "d": 690.6661458333401,
      "v": 111
    },
    {
      "midi": 59,
      "hit": false,
      "t": 83473.23104166666,
      "d": 1302.075520833343,
      "v": 111
    },
    {
      "midi": 76,
      "hit": false,
      "t": 84342.79104166667,
      "d": 407.6062499999971,
      "v": 111
    },
    {
      "midi": 68,
      "hit": false,
      "t": 84342.79104166667,
      "d": 520.8302083333256,
      "v": 111
    },
    {
      "midi": 71,
      "hit": false,
      "t": 84342.79104166667,
      "d": 532.1526041666657,
      "v": 111
    },
    {
      "midi": 59,
      "hit": false,
      "t": 84777.57104166667,
      "d": 566.1197916666715,
      "v": 111
    },
    {
      "midi": 69,
      "hit": false,
      "t": 85212.35104166667,
      "d": 543.4750000000058,
      "v": 111
    },
    {
      "midi": 64,
      "hit": false,
      "t": 85212.35104166667,
      "d": 554.797395833346,
      "v": 111
    },
    {
      "midi": 73,
      "hit": false,
      "t": 85212.35104166667,
      "d": 554.797395833346,
      "v": 111
    },
    {
      "midi": 71,
      "hit": false,
      "t": 85212.35104166667,
      "d": 611.4093750000175,
      "v": 111
    },
    {
      "midi": 57,
      "hit": false,
      "t": 85212.35104166667,
      "d": 1132.239583333343,
      "v": 111
    },
    {
      "midi": 64,
      "hit": false,
      "t": 86081.91104166668,
      "d": 441.5734375000029,
      "v": 111
    },
    {
      "midi": 69,
      "hit": false,
      "t": 86081.91104166668,
      "d": 441.5734375000029,
      "v": 111
    },
    {
      "midi": 71,
      "hit": false,
      "t": 86081.91104166668,
      "d": 543.4750000000058,
      "v": 111
    },
    {
      "midi": 73,
      "hit": false,
      "t": 86081.91104166668,
      "d": 577.4421875000116,
      "v": 111
    },
    {
      "midi": 57,
      "hit": false,
      "t": 86516.69104166668,
      "d": 520.8302083333401,
      "v": 111
    },
    {
      "midi": 68,
      "hit": false,
      "t": 86951.4710416667,
      "d": 611.4093749999884,
      "v": 111
    },
    {
      "midi": 75,
      "hit": false,
      "t": 86951.4710416667,
      "d": 634.054166666654,
      "v": 111
    },
    {
      "midi": 66,
      "hit": false,
      "t": 86951.4710416667,
      "d": 645.3765624999942,
      "v": 111
    },
    {
      "midi": 71,
      "hit": false,
      "t": 86951.4710416667,
      "d": 645.3765624999942,
      "v": 111
    },
    {
      "midi": 56,
      "hit": false,
      "t": 86951.4710416667,
      "d": 1290.753125000003,
      "v": 111
    },
    {
      "midi": 68,
      "hit": false,
      "t": 87821.03104166669,
      "d": 418.9286458333372,
      "v": 111
    },
    {
      "midi": 66,
      "hit": false,
      "t": 87821.03104166669,
      "d": 430.25104166667734,
      "v": 111
    },
    {
      "midi": 71,
      "hit": false,
      "t": 87821.03104166669,
      "d": 452.89583333334303,
      "v": 111
    },
    {
      "midi": 75,
      "hit": false,
      "t": 87821.03104166669,
      "d": 509.50781250001455,
      "v": 111
    },
    {
      "midi": 56,
      "hit": false,
      "t": 88255.8110416667,
      "d": 520.8302083333256,
      "v": 111
    },
    {
      "midi": 73,
      "hit": false,
      "t": 88690.5910416667,
      "d": 758.6005208333372,
      "v": 111
    },
    {
      "midi": 76,
      "hit": false,
      "t": 88690.5910416667,
      "d": 769.9229166666773,
      "v": 111
    },
    {
      "midi": 66,
      "hit": false,
      "t": 88690.5910416667,
      "d": 803.8901041666832,
      "v": 111
    },
    {
      "midi": 69,
      "hit": false,
      "t": 88690.5910416667,
      "d": 826.5348958333489,
      "v": 111
    },
    {
      "midi": 54,
      "hit": false,
      "t": 88690.5910416667,
      "d": 996.3708333333489,
      "v": 111
    },
    {
      "midi": 66,
      "hit": false,
      "t": 89560.15104166672,
      "d": 566.1197916666715,
      "v": 111
    },
    {
      "midi": 69,
      "hit": false,
      "t": 89560.15104166672,
      "d": 600.0869791666773,
      "v": 111
    },
    {
      "midi": 73,
      "hit": false,
      "t": 89560.15104166672,
      "d": 656.6989583333489,
      "v": 111
    },
    {
      "midi": 59,
      "hit": false,
      "t": 89560.15104166672,
      "d": 668.021354166689,
      "v": 111
    },
    {
      "midi": 76,
      "hit": false,
      "t": 89560.15104166672,
      "d": 679.3437500000291,
      "v": 111
    },
    {
      "midi": 68,
      "hit": false,
      "t": 90321.01604166675,
      "d": 701.9885416666802,
      "v": 111
    },
    {
      "midi": 71,
      "hit": false,
      "t": 90321.01604166675,
      "d": 724.633333333346,
      "v": 111
    },
    {
      "midi": 59,
      "hit": false,
      "t": 90321.01604166675,
      "d": 2105.965625000026,
      "v": 111
    },
    {
      "midi": 76,
      "hit": false,
      "t": 90429.71104166676,
      "d": 713.3109375000058,
      "v": 111
    },
    {
      "midi": 76,
      "hit": false,
      "t": 91299.27104166677,
      "d": 203.80312500000582,
      "v": 111
    },
    {
      "midi": 71,
      "hit": false,
      "t": 91299.27104166677,
      "d": 237.77031250001164,
      "v": 111
    },
    {
      "midi": 68,
      "hit": false,
      "t": 91299.27104166677,
      "d": 249.09270833335177,
      "v": 111
    },
    {
      "midi": 64,
      "hit": false,
      "t": 91734.05104166678,
      "d": 124.5463541666686,
      "v": 111
    },
    {
      "midi": 68,
      "hit": false,
      "t": 91734.05104166678,
      "d": 124.5463541666686,
      "v": 111
    },
    {
      "midi": 71,
      "hit": false,
      "t": 91734.05104166678,
      "d": 169.8359375,
      "v": 111
    },
    {
      "midi": 69,
      "hit": false,
      "t": 92168.83104166678,
      "d": 441.57343749998836,
      "v": 111
    },
    {
      "midi": 71,
      "hit": false,
      "t": 92168.83104166678,
      "d": 554.7973958333168,
      "v": 111
    },
    {
      "midi": 64,
      "hit": false,
      "t": 92168.83104166678,
      "d": 566.119791666657,
      "v": 111
    },
    {
      "midi": 73,
      "hit": false,
      "t": 92168.83104166678,
      "d": 600.0869791666628,
      "v": 111
    },
    {
      "midi": 57,
      "hit": false,
      "t": 92168.83104166678,
      "d": 1222.8187499999913,
      "v": 111
    },
    {
      "midi": 64,
      "hit": false,
      "t": 93038.39104166678,
      "d": 464.2182291666686,
      "v": 111
    },
    {
      "midi": 69,
      "hit": false,
      "t": 93038.39104166678,
      "d": 464.2182291666686,
      "v": 111
    },
    {
      "midi": 73,
      "hit": false,
      "t": 93038.39104166678,
      "d": 486.8630208333343,
      "v": 111
    },
    {
      "midi": 76,
      "hit": false,
      "t": 93038.39104166678,
      "d": 486.8630208333343,
      "v": 111
    },
    {
      "midi": 57,
      "hit": false,
      "t": 93473.17104166678,
      "d": 498.1854166666744,
      "v": 111
    },
    {
      "midi": 63,
      "hit": false,
      "t": 93907.95104166678,
      "d": 532.1526041666802,
      "v": 111
    },
    {
      "midi": 66,
      "hit": false,
      "t": 93907.95104166678,
      "d": 532.1526041666802,
      "v": 111
    },
    {
      "midi": 71,
      "hit": false,
      "t": 93917.00895833345,
      "d": 611.4093750000029,
      "v": 111
    },
    {
      "midi": 73,
      "hit": false,
      "t": 94777.51104166679,
      "d": 509.5078125,
      "v": 111
    },
    {
      "midi": 75,
      "hit": false,
      "t": 94777.51104166679,
      "d": 509.5078125,
      "v": 111
    },
    {
      "midi": 66,
      "hit": false,
      "t": 94777.51104166679,
      "d": 520.8302083333401,
      "v": 111
    },
    {
      "midi": 71,
      "hit": false,
      "t": 94777.51104166679,
      "d": 543.4750000000058,
      "v": 111
    },
    {
      "midi": 56,
      "hit": false,
      "t": 95212.29104166679,
      "d": 54.34750000000349,
      "v": 111
    },
    {
      "midi": 66,
      "hit": false,
      "t": 95647.0710416668,
      "d": 634.0541666666832,
      "v": 111
    },
    {
      "midi": 69,
      "hit": false,
      "t": 95656.12895833347,
      "d": 622.731770833343,
      "v": 111
    },
    {
      "midi": 73,
      "hit": false,
      "t": 95656.12895833347,
      "d": 622.731770833343,
      "v": 111
    },
    {
      "midi": 76,
      "hit": false,
      "t": 95656.12895833347,
      "d": 645.3765625000087,
      "v": 111
    },
    {
      "midi": 54,
      "hit": false,
      "t": 95656.12895833347,
      "d": 996.3708333333489,
      "v": 111
    },
    {
      "midi": 66,
      "hit": false,
      "t": 96516.63104166681,
      "d": 520.8302083333401,
      "v": 111
    },
    {
      "midi": 73,
      "hit": false,
      "t": 96516.63104166681,
      "d": 543.4750000000058,
      "v": 111
    },
    {
      "midi": 59,
      "hit": false,
      "t": 96525.68895833349,
      "d": 1166.2067708333489,
      "v": 111
    },
    {
      "midi": 78,
      "hit": false,
      "t": 96534.74687500016,
      "d": 520.8302083333256,
      "v": 111
    },
    {
      "midi": 69,
      "hit": false,
      "t": 96534.74687500016,
      "d": 543.4749999999913,
      "v": 111
    },
    {
      "midi": 76,
      "hit": false,
      "t": 96534.74687500016,
      "d": 543.4749999999913,
      "v": 111
    },
    {
      "midi": 61,
      "hit": false,
      "t": 97368.07520833348,
      "d": 2536.216666666689,
      "v": 111
    },
    {
      "midi": 68,
      "hit": false,
      "t": 97368.07520833348,
      "d": 2558.8614583333547,
      "v": 111
    },
    {
      "midi": 73,
      "hit": false,
      "t": 97368.07520833348,
      "d": 2604.151041666686,
      "v": 111
    },
    {
      "midi": 64,
      "hit": false,
      "t": 97377.13312500015,
      "d": 2570.1838541666802,
      "v": 111
    },
    {
      "midi": 76,
      "hit": false,
      "t": 97386.19104166683,
      "d": 1981.419270833343,
      "v": 111
    },
    {
      "midi": 59,
      "hit": false,
      "t": 101299.21104166683,
      "d": 113.22395833334303,
      "v": 111
    },
    {
      "midi": 73,
      "hit": false,
      "t": 101299.21104166683,
      "d": 124.54635416668316,
      "v": 111
    },
    {
      "midi": 64,
      "hit": false,
      "t": 101308.2689583335,
      "d": 101.90156250000291,
      "v": 111
    },
    {
      "midi": 69,
      "hit": false,
      "t": 101308.2689583335,
      "d": 113.22395833334303,
      "v": 111
    },
    {
      "midi": 73,
      "hit": false,
      "t": 101733.99104166684,
      "d": 860.5020833333401,
      "v": 111
    },
    {
      "midi": 64,
      "hit": false,
      "t": 102603.55104166685,
      "d": 13.586875000008149,
      "v": 111
    },
    {
      "midi": 59,
      "hit": false,
      "t": 102612.60895833353,
      "d": 4.52895833333605,
      "v": 111
    },
    {
      "midi": 69,
      "hit": false,
      "t": 102612.60895833353,
      "d": 4.52895833333605,
      "v": 111
    },
    {
      "midi": 73,
      "hit": false,
      "t": 102612.60895833353,
      "d": 67.93437499999709,
      "v": 111
    },
    {
      "midi": 64,
      "hit": false,
      "t": 103038.33104166685,
      "d": 1098.2723958333372,
      "v": 111
    },
    {
      "midi": 73,
      "hit": false,
      "t": 103047.38895833353,
      "d": 1064.3052083333314,
      "v": 111
    },
    {
      "midi": 69,
      "hit": false,
      "t": 103047.38895833353,
      "d": 1086.949999999997,
      "v": 111
    },
    {
      "midi": 59,
      "hit": false,
      "t": 103047.38895833353,
      "d": 1234.1411458333314,
      "v": 111
    },
    {
      "midi": 52,
      "hit": false,
      "t": 104342.67104166685,
      "d": 985.0484374999942,
      "v": 111
    },
    {
      "midi": 64,
      "hit": false,
      "t": 104351.72895833352,
      "d": 645.3765624999942,
      "v": 111
    },
    {
      "midi": 68,
      "hit": false,
      "t": 104351.72895833352,
      "d": 724.6333333333314,
      "v": 111
    },
    {
      "midi": 59,
      "hit": false,
      "t": 104351.72895833352,
      "d": 1347.3651041666599,
      "v": 111
    },
    {
      "midi": 64,
      "hit": false,
      "t": 105212.23104166685,
      "d": 486.8630208333343,
      "v": 111
    },
    {
      "midi": 68,
      "hit": false,
      "t": 105212.23104166685,
      "d": 498.1854166666744,
      "v": 111
    },
    {
      "midi": 52,
      "hit": false,
      "t": 105647.01104166685,
      "d": 498.185416666689,
      "v": 111
    },
    {
      "midi": 61,
      "hit": false,
      "t": 106081.79104166686,
      "d": 328.3494791666744,
      "v": 111
    },
    {
      "midi": 64,
      "hit": false,
      "t": 106081.79104166686,
      "d": 600.0869791666773,
      "v": 111
    },
    {
      "midi": 69,
      "hit": false,
      "t": 106081.79104166686,
      "d": 758.6005208333372,
      "v": 111
    },
    {
      "midi": 54,
      "hit": false,
      "t": 106090.84895833353,
      "d": 1064.3052083333168,
      "v": 111
    },
    {
      "midi": 61,
      "hit": false,
      "t": 106516.57104166687,
      "d": 181.15833333332557,
      "v": 111
    },
    {
      "midi": 69,
      "hit": false,
      "t": 106951.35104166686,
      "d": 656.6989583333198,
      "v": 111
    },
    {
      "midi": 71,
      "hit": false,
      "t": 106951.35104166686,
      "d": 701.9885416666511,
      "v": 111
    },
    {
      "midi": 56,
      "hit": false,
      "t": 106951.35104166686,
      "d": 1052.9828124999913,
      "v": 111
    },
    {
      "midi": 64,
      "hit": false,
      "t": 107802.79520833351,
      "d": 509.5078125,
      "v": 111
    },
    {
      "midi": 57,
      "hit": false,
      "t": 107802.79520833351,
      "d": 543.4750000000058,
      "v": 111
    },
    {
      "midi": 73,
      "hit": false,
      "t": 107802.79520833351,
      "d": 634.0541666666686,
      "v": 111
    },
    {
      "midi": 69,
      "hit": false,
      "t": 107811.85312500018,
      "d": 634.0541666666686,
      "v": 111
    },
    {
      "midi": 81,
      "hit": false,
      "t": 108690.47104166685,
      "d": 554.7973958333314,
      "v": 111
    },
    {
      "midi": 64,
      "hit": false,
      "t": 109125.25104166685,
      "d": 305.7046874999942,
      "v": 111
    },
    {
      "midi": 57,
      "hit": false,
      "t": 109125.25104166685,
      "d": 2071.9984375000204,
      "v": 111
    },
    {
      "midi": 61,
      "hit": false,
      "t": 109125.25104166685,
      "d": 2083.3208333333605,
      "v": 111
    },
    {
      "midi": 64,
      "hit": false,
      "t": 109560.03104166685,
      "d": 249.0927083333372,
      "v": 111
    },
    {
      "midi": 76,
      "hit": false,
      "t": 109560.03104166685,
      "d": 860.5020833333401,
      "v": 111
    },
    {
      "midi": 64,
      "hit": false,
      "t": 109994.81104166685,
      "d": 645.3765625000087,
      "v": 111
    },
    {
      "midi": 73,
      "hit": false,
      "t": 110411.47520833352,
      "d": 192.4807291666657,
      "v": 111
    },
    {
      "midi": 64,
      "hit": false,
      "t": 110864.37104166686,
      "d": 305.70468750000873,
      "v": 111
    },
    {
      "midi": 69,
      "hit": false,
      "t": 111081.76104166686,
      "d": 79.25677083333721,
      "v": 111
    },
    {
      "midi": 71,
      "hit": false,
      "t": 111081.76104166686,
      "d": 124.54635416668316,
      "v": 111
    },
    {
      "midi": 68,
      "hit": false,
      "t": 111190.45604166687,
      "d": 158.51354166667443,
      "v": 111
    },
    {
      "midi": 57,
      "hit": false,
      "t": 111299.15104166688,
      "d": 1302.0755208333285,
      "v": 111
    },
    {
      "midi": 69,
      "hit": false,
      "t": 111308.20895833355,
      "d": 758.6005208333227,
      "v": 111
    },
    {
      "midi": 69,
      "hit": false,
      "t": 112168.71104166687,
      "d": 498.1854166666744,
      "v": 111
    },
    {
      "midi": 73,
      "hit": false,
      "t": 112168.71104166687,
      "d": 634.0541666666686,
      "v": 111
    },
    {
      "midi": 61,
      "hit": false,
      "t": 112603.49104166687,
      "d": 33.96718750000582,
      "v": 111
    },
    {
      "midi": 64,
      "hit": false,
      "t": 112603.49104166687,
      "d": 40.760625000009895,
      "v": 111
    },
    {
      "midi": 57,
      "hit": false,
      "t": 112603.49104166687,
      "d": 124.5463541666686,
      "v": 111
    },
    {
      "midi": 66,
      "hit": false,
      "t": 113038.27104166687,
      "d": 747.2781250000116,
      "v": 111
    },
    {
      "midi": 68,
      "hit": false,
      "t": 113038.27104166687,
      "d": 815.2125000000087,
      "v": 111
    },
    {
      "midi": 75,
      "hit": false,
      "t": 113047.32895833354,
      "d": 849.1796875000146,
      "v": 111
    },
    {
      "midi": 71,
      "hit": false,
      "t": 113056.38687500021,
      "d": 803.8901041666686,
      "v": 111
    },
    {
      "midi": 66,
      "hit": false,
      "t": 113907.8310416669,
      "d": 566.1197916666715,
      "v": 111
    },
    {
      "midi": 68,
      "hit": false,
      "t": 113907.8310416669,
      "d": 566.1197916666715,
      "v": 111
    },
    {
      "midi": 71,
      "hit": false,
      "t": 113907.8310416669,
      "d": 611.4093750000029,
      "v": 111
    },
    {
      "midi": 75,
      "hit": false,
      "t": 113907.8310416669,
      "d": 668.0213541666744,
      "v": 111
    },
    {
      "midi": 56,
      "hit": false,
      "t": 114342.6110416669,
      "d": 9.0579166666721,
      "v": 111
    },
    {
      "midi": 61,
      "hit": false,
      "t": 114777.39104166691,
      "d": 769.9229166666628,
      "v": 111
    },
    {
      "midi": 71,
      "hit": false,
      "t": 114777.39104166691,
      "d": 1075.627604166657,
      "v": 111
    },
    {
      "midi": 68,
      "hit": false,
      "t": 114786.44895833358,
      "d": 1052.9828124999913,
      "v": 111
    },
    {
      "midi": 76,
      "hit": false,
      "t": 114795.50687500025,
      "d": 996.3708333333198,
      "v": 111
    },
    {
      "midi": 71,
      "hit": false,
      "t": 116299.1210416669,
      "d": 79.25677083333721,
      "v": 111
    },
    {
      "midi": 68,
      "hit": false,
      "t": 116299.1210416669,
      "d": 90.57916666667734,
      "v": 111
    },
    {
      "midi": 75,
      "hit": false,
      "t": 116299.1210416669,
      "d": 101.90156250001746,
      "v": 111
    },
    {
      "midi": 61,
      "hit": false,
      "t": 116516.51104166692,
      "d": 13.586874999993597,
      "v": 111
    },
    {
      "midi": 68,
      "hit": false,
      "t": 116516.51104166692,
      "d": 124.54635416665406,
      "v": 111
    },
    {
      "midi": 71,
      "hit": false,
      "t": 116516.51104166692,
      "d": 135.86874999999418,
      "v": 111
    },
    {
      "midi": 76,
      "hit": false,
      "t": 116516.51104166692,
      "d": 158.51354166665988,
      "v": 111
    },
    {
      "midi": 71,
      "hit": false,
      "t": 116951.29104166692,
      "d": 45.28958333333139,
      "v": 111
    },
    {
      "midi": 68,
      "hit": false,
      "t": 116951.29104166692,
      "d": 113.22395833332848,
      "v": 111
    },
    {
      "midi": 75,
      "hit": false,
      "t": 116951.29104166692,
      "d": 192.4807291666657,
      "v": 111
    },
    {
      "midi": 71,
      "hit": false,
      "t": 117168.68104166692,
      "d": 486.8630208333343,
      "v": 111
    },
    {
      "midi": 61,
      "hit": false,
      "t": 117386.07104166692,
      "d": 600.0869791666628,
      "v": 111
    },
    {
      "midi": 68,
      "hit": false,
      "t": 117603.46104166692,
      "d": 147.1911458333343,
      "v": 111
    },
    {
      "midi": 64,
      "hit": false,
      "t": 117820.85104166692,
      "d": 181.15833333332557,
      "v": 111
    },
    {
      "midi": 71,
      "hit": false,
      "t": 118038.24104166692,
      "d": 181.15833333334012,
      "v": 111
    },
    {
      "midi": 61,
      "hit": false,
      "t": 118255.63104166693,
      "d": 679.34375,
      "v": 111
    },
    {
      "midi": 69,
      "hit": false,
      "t": 118255.63104166693,
      "d": 701.9885416666657,
      "v": 111
    },
    {
      "midi": 64,
      "hit": false,
      "t": 118255.63104166693,
      "d": 713.3109375000058,
      "v": 111
    },
    {
      "midi": 54,
      "hit": false,
      "t": 118255.63104166693,
      "d": 1256.7859375000116,
      "v": 111
    },
    {
      "midi": 61,
      "hit": false,
      "t": 119125.19104166694,
      "d": 611.4093750000029,
      "v": 111
    },
    {
      "midi": 64,
      "hit": false,
      "t": 119125.19104166694,
      "d": 634.0541666666686,
      "v": 111
    },
    {
      "midi": 69,
      "hit": false,
      "t": 119125.19104166694,
      "d": 724.6333333333314,
      "v": 111
    },
    {
      "midi": 54,
      "hit": false,
      "t": 119559.97104166694,
      "d": 452.8958333333285,
      "v": 111
    },
    {
      "midi": 64,
      "hit": false,
      "t": 119994.75104166694,
      "d": 588.7645833333372,
      "v": 111
    },
    {
      "midi": 69,
      "hit": false,
      "t": 119994.75104166694,
      "d": 679.34375,
      "v": 111
    },
    {
      "midi": 71,
      "hit": false,
      "t": 119994.75104166694,
      "d": 690.6661458333401,
      "v": 111
    },
    {
      "midi": 69,
      "hit": false,
      "t": 120864.31104166695,
      "d": 486.8630208333343,
      "v": 111
    },
    {
      "midi": 63,
      "hit": false,
      "t": 120864.31104166695,
      "d": 532.1526041666657,
      "v": 111
    },
    {
      "midi": 71,
      "hit": false,
      "t": 120864.31104166695,
      "d": 600.0869791666628,
      "v": 111
    },
    {
      "midi": 59,
      "hit": false,
      "t": 121299.09104166695,
      "d": 124.5463541666686,
      "v": 111
    },
    {
      "midi": 66,
      "hit": false,
      "t": 121733.87104166695,
      "d": 520.8302083333401,
      "v": 111
    },
    {
      "midi": 68,
      "hit": false,
      "t": 121733.87104166695,
      "d": 611.4093750000029,
      "v": 111
    },
    {
      "midi": 71,
      "hit": false,
      "t": 121733.87104166695,
      "d": 611.4093750000029,
      "v": 111
    },
    {
      "midi": 62,
      "hit": false,
      "t": 121733.87104166695,
      "d": 645.3765625000087,
      "v": 111
    },
    {
      "midi": 52,
      "hit": false,
      "t": 121733.87104166695,
      "d": 1234.141145833346,
      "v": 111
    },
    {
      "midi": 62,
      "hit": false,
      "t": 122603.43104166696,
      "d": 588.7645833333372,
      "v": 111
    },
    {
      "midi": 68,
      "hit": false,
      "t": 122603.43104166696,
      "d": 826.5348958333198,
      "v": 111
    },
    {
      "midi": 52,
      "hit": false,
      "t": 123038.21104166696,
      "d": 464.21822916665406,
      "v": 111
    },
    {
      "midi": 62,
      "hit": false,
      "t": 123255.60104166696,
      "d": 135.86874999999418,
      "v": 111
    },
    {
      "midi": 62,
      "hit": false,
      "t": 123472.99104166694,
      "d": 305.70468750000873,
      "v": 111
    },
    {
      "midi": 69,
      "hit": false,
      "t": 123472.99104166694,
      "d": 532.1526041666802,
      "v": 111
    },
    {
      "midi": 54,
      "hit": false,
      "t": 123472.99104166694,
      "d": 1064.3052083333605,
      "v": 111
    },
    {
      "midi": 62,
      "hit": false,
      "t": 123907.77104166696,
      "d": 373.6390625000058,
      "v": 111
    },
    {
      "midi": 69,
      "hit": false,
      "t": 124125.16104166696,
      "d": 158.51354166667443,
      "v": 111
    },
    {
      "midi": 62,
      "hit": false,
      "t": 124342.55104166697,
      "d": 33.96718750000582,
      "v": 111
    },
    {
      "midi": 56,
      "hit": false,
      "t": 124342.55104166697,
      "d": 1109.5947916666773,
      "v": 111
    },
    {
      "midi": 71,
      "hit": false,
      "t": 124351.60895833364,
      "d": 283.0598958333285,
      "v": 111
    },
    {
      "midi": 62,
      "hit": false,
      "t": 124668.63604166698,
      "d": 271.7375000000029,
      "v": 111
    },
    {
      "midi": 71,
      "hit": false,
      "t": 124994.72104166698,
      "d": 928.4364583333227,
      "v": 111
    },
    {
      "midi": 73,
      "hit": false,
      "t": 125212.11104166698,
      "d": 577.4421874999971,
      "v": 111
    },
    {
      "midi": 64,
      "hit": false,
      "t": 125212.11104166698,
      "d": 600.0869791666628,
      "v": 111
    },
    {
      "midi": 57,
      "hit": false,
      "t": 125212.11104166698,
      "d": 1256.7859374999825,
      "v": 111
    },
    {
      "midi": 64,
      "hit": false,
      "t": 126081.67104166697,
      "d": 430.2510416666628,
      "v": 111
    },
    {
      "midi": 71,
      "hit": false,
      "t": 126081.67104166697,
      "d": 509.5078125,
      "v": 111
    },
    {
      "midi": 73,
      "hit": false,
      "t": 126081.67104166697,
      "d": 543.4750000000058,
      "v": 111
    },
    {
      "midi": 57,
      "hit": false,
      "t": 126516.45104166697,
      "d": 532.1526041666802,
      "v": 111
    },
    {
      "midi": 68,
      "hit": false,
      "t": 126951.23104166698,
      "d": 566.1197916666715,
      "v": 111
    },
    {
      "midi": 75,
      "hit": false,
      "t": 126951.23104166698,
      "d": 634.0541666666686,
      "v": 111
    },
    {
      "midi": 66,
      "hit": false,
      "t": 126951.23104166698,
      "d": 690.6661458333401,
      "v": 111
    },
    {
      "midi": 71,
      "hit": false,
      "t": 126951.23104166698,
      "d": 690.6661458333401,
      "v": 111
    },
    {
      "midi": 66,
      "hit": false,
      "t": 127820.79104166699,
      "d": 441.5734375000029,
      "v": 111
    },
    {
      "midi": 75,
      "hit": false,
      "t": 127820.79104166699,
      "d": 452.89583333334303,
      "v": 111
    },
    {
      "midi": 68,
      "hit": false,
      "t": 127820.79104166699,
      "d": 532.1526041666802,
      "v": 111
    },
    {
      "midi": 71,
      "hit": false,
      "t": 127820.79104166699,
      "d": 566.1197916666861,
      "v": 111
    },
    {
      "midi": 56,
      "hit": false,
      "t": 128255.57104166699,
      "d": 76.99229166668374,
      "v": 111
    },
    {
      "midi": 68,
      "hit": false,
      "t": 128690.351041667,
      "d": 600.0869791666628,
      "v": 111
    },
    {
      "midi": 71,
      "hit": false,
      "t": 128690.351041667,
      "d": 634.0541666666686,
      "v": 111
    },
    {
      "midi": 64,
      "hit": false,
      "t": 128690.351041667,
      "d": 679.34375,
      "v": 111
    },
    {
      "midi": 76,
      "hit": false,
      "t": 128690.351041667,
      "d": 713.3109375000058,
      "v": 111
    },
    {
      "midi": 64,
      "hit": false,
      "t": 129559.91104166702,
      "d": 634.0541666666686,
      "v": 111
    },
    {
      "midi": 61,
      "hit": false,
      "t": 129994.69104166701,
      "d": 43.02510416666337,
      "v": 111
    },
    {
      "midi": 68,
      "hit": false,
      "t": 130212.08104166701,
      "d": 147.1911458333343,
      "v": 111
    },
    {
      "midi": 68,
      "hit": false,
      "t": 130429.47104166701,
      "d": 101.90156250000291,
      "v": 111
    },
    {
      "midi": 75,
      "hit": false,
      "t": 130429.47104166701,
      "d": 611.4093750000029,
      "v": 111
    },
    {
      "midi": 61,
      "hit": false,
      "t": 130864.25104166701,
      "d": 2.264479166668025,
      "v": 111
    },
    {
      "midi": 73,
      "hit": false,
      "t": 130864.25104166701,
      "d": 384.9614583333314,
      "v": 111
    },
    {
      "midi": 61,
      "hit": false,
      "t": 131299.031041667,
      "d": 577.4421875000116,
      "v": 111
    },
    {
      "midi": 68,
      "hit": false,
      "t": 131516.42104166702,
      "d": 249.0927083333372,
      "v": 111
    },
    {
      "midi": 71,
      "hit": false,
      "t": 131733.81104166704,
      "d": 147.19114583331975,
      "v": 111
    },
    {
      "midi": 61,
      "hit": false,
      "t": 131951.20104166702,
      "d": 67.93437500001164,
      "v": 111
    },
    {
      "midi": 61,
      "hit": false,
      "t": 132168.59104166704,
      "d": 634.0541666666686,
      "v": 111
    },
    {
      "midi": 64,
      "hit": false,
      "t": 132168.59104166704,
      "d": 656.6989583333198,
      "v": 111
    },
    {
      "midi": 54,
      "hit": false,
      "t": 132168.59104166704,
      "d": 1177.5291666666744,
      "v": 111
    },
    {
      "midi": 69,
      "hit": false,
      "t": 132177.6489583337,
      "d": 645.3765624999942,
      "v": 111
    },
    {
      "midi": 61,
      "hit": false,
      "t": 133038.15104166704,
      "d": 486.86302083331975,
      "v": 111
    },
    {
      "midi": 64,
      "hit": false,
      "t": 133038.15104166704,
      "d": 532.1526041666511,
      "v": 111
    },
    {
      "midi": 69,
      "hit": false,
      "t": 133038.15104166704,
      "d": 554.7973958333314,
      "v": 111
    },
    {
      "midi": 54,
      "hit": false,
      "t": 133472.93104166703,
      "d": 520.8302083333547,
      "v": 111
    },
    {
      "midi": 66,
      "hit": false,
      "t": 133907.71104166703,
      "d": 645.3765625000233,
      "v": 111
    },
    {
      "midi": 69,
      "hit": false,
      "t": 133907.71104166703,
      "d": 701.9885416666802,
      "v": 111
    },
    {
      "midi": 59,
      "hit": false,
      "t": 133907.71104166703,
      "d": 1234.1411458333605,
      "v": 111
    },
    {
      "midi": 71,
      "hit": false,
      "t": 133916.7689583337,
      "d": 713.3109375000058,
      "v": 111
    },
    {
      "midi": 66,
      "hit": false,
      "t": 134759.15520833372,
      "d": 464.2182291666977,
      "v": 111
    },
    {
      "midi": 69,
      "hit": false,
      "t": 134759.15520833372,
      "d": 532.1526041667094,
      "v": 111
    },
    {
      "midi": 71,
      "hit": false,
      "t": 134759.15520833372,
      "d": 577.4421875000407,
      "v": 111
    },
    {
      "midi": 59,
      "hit": false,
      "t": 135184.87729166707,
      "d": 566.1197916666861,
      "v": 111
    },
    {
      "midi": 64,
      "hit": false,
      "t": 135646.8310416671,
      "d": 475.5406250000233,
      "v": 111
    },
    {
      "midi": 68,
      "hit": false,
      "t": 135646.8310416671,
      "d": 656.6989583333489,
      "v": 111
    },
    {
      "midi": 52,
      "hit": false,
      "t": 135646.8310416671,
      "d": 1166.2067708333198,
      "v": 111
    },
    {
      "midi": 71,
      "hit": false,
      "t": 135655.88895833376,
      "d": 668.0213541666744,
      "v": 111
    },
    {
      "midi": 76,
      "hit": false,
      "t": 135655.88895833376,
      "d": 758.6005208333372,
      "v": 111
    },
    {
      "midi": 68,
      "hit": false,
      "t": 136516.39104166708,
      "d": 690.6661458333256,
      "v": 111
    },
    {
      "midi": 71,
      "hit": false,
      "t": 136516.39104166708,
      "d": 713.3109375000058,
      "v": 111
    },
    {
      "midi": 76,
      "hit": false,
      "t": 136516.39104166708,
      "d": 747.2781249999825,
      "v": 111
    },
    {
      "midi": 52,
      "hit": false,
      "t": 136951.17104166708,
      "d": 305.7046874999942,
      "v": 111
    },
    {
      "midi": 68,
      "hit": false,
      "t": 137385.95104166705,
      "d": 441.57343749998836,
      "v": 111
    },
    {
      "midi": 64,
      "hit": false,
      "t": 137385.95104166705,
      "d": 520.8302083333256,
      "v": 111
    },
    {
      "midi": 71,
      "hit": false,
      "t": 137385.95104166705,
      "d": 554.7973958333314,
      "v": 111
    },
    {
      "midi": 76,
      "hit": false,
      "t": 137385.95104166705,
      "d": 668.0213541666744,
      "v": 111
    },
    {
      "midi": 52,
      "hit": false,
      "t": 137385.95104166705,
      "d": 1302.075520833343,
      "v": 111
    },
    {
      "midi": 64,
      "hit": false,
      "t": 138255.51104166705,
      "d": 362.31666666668025,
      "v": 111
    },
    {
      "midi": 68,
      "hit": false,
      "t": 138255.51104166705,
      "d": 418.9286458333372,
      "v": 111
    },
    {
      "midi": 71,
      "hit": false,
      "t": 138255.51104166705,
      "d": 498.1854166666744,
      "v": 111
    },
    {
      "midi": 76,
      "hit": false,
      "t": 138255.51104166705,
      "d": 532.1526041666802,
      "v": 111
    },
    {
      "midi": 52,
      "hit": false,
      "t": 138690.29104166705,
      "d": 135.86875000002328,
      "v": 111
    },
    {
      "midi": 68,
      "hit": false,
      "t": 139106.95520833373,
      "d": 656.698958333378,
      "v": 111
    },
    {
      "midi": 64,
      "hit": false,
      "t": 139106.95520833373,
      "d": 792.5677083333721,
      "v": 111
    },
    {
      "midi": 71,
      "hit": false,
      "t": 139116.0131250004,
      "d": 769.9229166666919,
      "v": 111
    },
    {
      "midi": 59,
      "hit": false,
      "t": 139125.07104166708,
      "d": 2173.899999999965,
      "v": 111
    },
    {
      "midi": 68,
      "hit": false,
      "t": 139994.6310416671,
      "d": 181.15833333332557,
      "v": 111
    },
    {
      "midi": 64,
      "hit": false,
      "t": 139994.6310416671,
      "d": 407.60624999998254,
      "v": 111
    },
    {
      "midi": 71,
      "hit": false,
      "t": 139994.6310416671,
      "d": 441.57343749995925,
      "v": 111
    },
    {
      "midi": 69,
      "hit": false,
      "t": 140429.41104166707,
      "d": 147.19114583331975,
      "v": 111
    },
    {
      "midi": 71,
      "hit": false,
      "t": 140646.80104166706,
      "d": 135.86874999999418,
      "v": 111
    },
    {
      "midi": 69,
      "hit": false,
      "t": 140873.24895833372,
      "d": 452.89583333331393,
      "v": 111
    },
    {
      "midi": 73,
      "hit": false,
      "t": 140873.24895833372,
      "d": 532.1526041666511,
      "v": 111
    },
    {
      "midi": 64,
      "hit": false,
      "t": 140873.24895833372,
      "d": 634.0541666666395,
      "v": 111
    },
    {
      "midi": 71,
      "hit": false,
      "t": 140873.24895833372,
      "d": 656.6989583333198,
      "v": 111
    },
    {
      "midi": 57,
      "hit": false,
      "t": 140873.24895833372,
      "d": 2094.643229166686,
      "v": 111
    },
    {
      "midi": 64,
      "hit": false,
      "t": 141733.75104166704,
      "d": 350.9942708333256,
      "v": 111
    },
    {
      "midi": 69,
      "hit": false,
      "t": 141733.75104166704,
      "d": 430.2510416666628,
      "v": 111
    },
    {
      "midi": 73,
      "hit": false,
      "t": 141733.75104166704,
      "d": 464.2182291666686,
      "v": 111
    },
    {
      "midi": 71,
      "hit": false,
      "t": 142168.53104166704,
      "d": 169.8359375,
      "v": 111
    },
    {
      "midi": 73,
      "hit": false,
      "t": 142385.92104166705,
      "d": 124.5463541666686,
      "v": 111
    },
    {
      "midi": 68,
      "hit": false,
      "t": 142603.31104166707,
      "d": 634.0541666666686,
      "v": 111
    },
    {
      "midi": 66,
      "hit": false,
      "t": 142603.31104166707,
      "d": 645.3765624999942,
      "v": 111
    },
    {
      "midi": 75,
      "hit": false,
      "t": 142612.36895833374,
      "d": 634.0541666666686,
      "v": 111
    },
    {
      "midi": 71,
      "hit": false,
      "t": 142612.36895833374,
      "d": 645.3765624999942,
      "v": 111
    },
    {
      "midi": 56,
      "hit": false,
      "t": 142612.36895833374,
      "d": 2128.610416666692,
      "v": 111
    },
    {
      "midi": 68,
      "hit": false,
      "t": 143472.87104166707,
      "d": 237.77031250001164,
      "v": 111
    },
    {
      "midi": 66,
      "hit": false,
      "t": 143472.87104166707,
      "d": 350.9942708333547,
      "v": 111
    },
    {
      "midi": 75,
      "hit": false,
      "t": 143472.87104166707,
      "d": 407.60625000001164,
      "v": 111
    },
    {
      "midi": 71,
      "hit": false,
      "t": 143472.87104166707,
      "d": 475.5406249999942,
      "v": 111
    },
    {
      "midi": 73,
      "hit": false,
      "t": 143907.65104166706,
      "d": 271.73750000001746,
      "v": 111
    },
    {
      "midi": 75,
      "hit": false,
      "t": 144016.34604166707,
      "d": 124.5463541666686,
      "v": 111
    },
    {
      "midi": 69,
      "hit": false,
      "t": 144342.4310416671,
      "d": 566.1197916666861,
      "v": 111
    },
    {
      "midi": 76,
      "hit": false,
      "t": 144342.4310416671,
      "d": 735.9557291666861,
      "v": 111
    },
    {
      "midi": 64,
      "hit": false,
      "t": 144351.48895833376,
      "d": 656.6989583333489,
      "v": 111
    },
    {
      "midi": 54,
      "hit": false,
      "t": 144351.48895833376,
      "d": 973.7260416666977,
      "v": 111
    },
    {
      "midi": 69,
      "hit": false,
      "t": 145211.99104166712,
      "d": 509.5078125000291,
      "v": 111
    },
    {
      "midi": 73,
      "hit": false,
      "t": 145211.99104166712,
      "d": 520.8302083333547,
      "v": 111
    },
    {
      "midi": 64,
      "hit": false,
      "t": 145211.99104166712,
      "d": 554.7973958333605,
      "v": 111
    },
    {
      "midi": 76,
      "hit": false,
      "t": 145211.99104166712,
      "d": 577.4421875000407,
      "v": 111
    },
    {
      "midi": 59,
      "hit": false,
      "t": 145211.99104166712,
      "d": 645.3765625000524,
      "v": 111
    },
    {
      "midi": 68,
      "hit": false,
      "t": 146081.55104166718,
      "d": 1064.3052083333314,
      "v": 111
    },
    {
      "midi": 64,
      "hit": false,
      "t": 146081.55104166718,
      "d": 1211.4963541666511,
      "v": 111
    },
    {
      "midi": 71,
      "hit": false,
      "t": 146090.60895833385,
      "d": 1302.075520833314,
      "v": 111
    },
    {
      "midi": 59,
      "hit": false,
      "t": 146951.11104166717,
      "d": 24.90927083333372,
      "v": 111
    },
    {
      "midi": 69,
      "hit": false,
      "t": 147385.89104166717,
      "d": 113.22395833331393,
      "v": 111
    },
    {
      "midi": 71,
      "hit": false,
      "t": 147603.28104166716,
      "d": 135.86874999999418,
      "v": 111
    },
    {
      "midi": 69,
      "hit": false,
      "t": 147820.67104166717,
      "d": 520.8302083333256,
      "v": 111
    },
    {
      "midi": 64,
      "hit": false,
      "t": 147820.67104166717,
      "d": 600.0869791666628,
      "v": 111
    },
    {
      "midi": 57,
      "hit": false,
      "t": 147820.67104166717,
      "d": 2083.3208333333314,
      "v": 111
    },
    {
      "midi": 73,
      "hit": false,
      "t": 147829.72895833384,
      "d": 543.4749999999767,
      "v": 111
    },
    {
      "midi": 71,
      "hit": false,
      "t": 147829.72895833384,
      "d": 600.0869791666628,
      "v": 111
    },
    {
      "midi": 64,
      "hit": false,
      "t": 148690.23104166717,
      "d": 226.44791666665697,
      "v": 111
    },
    {
      "midi": 69,
      "hit": false,
      "t": 148690.23104166717,
      "d": 317.02708333331975,
      "v": 111
    },
    {
      "midi": 73,
      "hit": false,
      "t": 148690.23104166717,
      "d": 441.57343749998836,
      "v": 111
    },
    {
      "midi": 71,
      "hit": false,
      "t": 149125.01104166717,
      "d": 135.86874999999418,
      "v": 111
    },
    {
      "midi": 73,
      "hit": false,
      "t": 149324.28520833384,
      "d": 158.51354166667443,
      "v": 111
    },
    {
      "midi": 68,
      "hit": false,
      "t": 149559.79104166717,
      "d": 622.731770833343,
      "v": 111
    },
    {
      "midi": 66,
      "hit": false,
      "t": 149559.79104166717,
      "d": 668.0213541666744,
      "v": 111
    },
    {
      "midi": 71,
      "hit": false,
      "t": 149568.84895833384,
      "d": 668.0213541666744,
      "v": 111
    },
    {
      "midi": 75,
      "hit": false,
      "t": 149568.84895833384,
      "d": 668.0213541666744,
      "v": 111
    },
    {
      "midi": 56,
      "hit": false,
      "t": 149568.84895833384,
      "d": 1290.7531250000175,
      "v": 111
    },
    {
      "midi": 68,
      "hit": false,
      "t": 150429.3510416672,
      "d": 350.9942708333256,
      "v": 111
    },
    {
      "midi": 66,
      "hit": false,
      "t": 150429.3510416672,
      "d": 362.31666666665114,
      "v": 111
    },
    {
      "midi": 75,
      "hit": false,
      "t": 150429.3510416672,
      "d": 396.28385416665697,
      "v": 111
    },
    {
      "midi": 71,
      "hit": false,
      "t": 150429.3510416672,
      "d": 430.2510416666628,
      "v": 111
    },
    {
      "midi": 56,
      "hit": false,
      "t": 150864.1310416672,
      "d": 509.5078125,
      "v": 111
    },
    {
      "midi": 69,
      "hit": false,
      "t": 151298.9110416672,
      "d": 486.86302083334886,
      "v": 111
    },
    {
      "midi": 73,
      "hit": false,
      "t": 151298.9110416672,
      "d": 520.8302083333547,
      "v": 111
    },
    {
      "midi": 54,
      "hit": false,
      "t": 151298.9110416672,
      "d": 1064.3052083333605,
      "v": 111
    },
    {
      "midi": 64,
      "hit": false,
      "t": 151307.96895833386,
      "d": 486.86302083334886,
      "v": 111
    },
    {
      "midi": 76,
      "hit": false,
      "t": 151307.96895833386,
      "d": 600.0869791666919,
      "v": 111
    },
    {
      "midi": 69,
      "hit": false,
      "t": 152168.47104166722,
      "d": 532.1526041666802,
      "v": 111
    },
    {
      "midi": 78,
      "hit": false,
      "t": 152168.47104166722,
      "d": 532.1526041666802,
      "v": 111
    },
    {
      "midi": 59,
      "hit": false,
      "t": 152168.47104166722,
      "d": 1075.6276041667152,
      "v": 111
    },
    {
      "midi": 61,
      "hit": false,
      "t": 153038.03104166724,
      "d": 3657.133854166692,
      "v": 111
    },
    {
      "midi": 71,
      "hit": false,
      "t": 153038.03104166724,
      "d": 3668.4562500000175,
      "v": 111
    },
    {
      "midi": 80,
      "hit": false,
      "t": 153038.03104166724,
      "d": 3668.4562500000175,
      "v": 111
    },
    {
      "midi": 76,
      "hit": false,
      "t": 153047.08895833392,
      "d": 3657.133854166692,
      "v": 111
    },
    {
      "midi": 64,
      "hit": false,
      "t": 156951.05104166726,
      "d": 79.25677083333721,
      "v": 111
    },
    {
      "midi": 73,
      "hit": false,
      "t": 156960.10895833393,
      "d": 113.22395833334303,
      "v": 111
    },
    {
      "midi": 59,
      "hit": false,
      "t": 156960.10895833393,
      "d": 124.5463541666686,
      "v": 111
    },
    {
      "midi": 69,
      "hit": false,
      "t": 156960.10895833393,
      "d": 124.5463541666686,
      "v": 111
    },
    {
      "midi": 57,
      "hit": false,
      "t": 156960.10895833393,
      "d": 135.86874999999418,
      "v": 111
    },
    {
      "midi": 57,
      "hit": false,
      "t": 157367.71520833392,
      "d": 837.8572916666744,
      "v": 111
    },
    {
      "midi": 73,
      "hit": false,
      "t": 157367.71520833392,
      "d": 871.8244791666802,
      "v": 111
    },
    {
      "midi": 59,
      "hit": false,
      "t": 158255.39104166726,
      "d": 13.586875000008149,
      "v": 111
    },
    {
      "midi": 69,
      "hit": false,
      "t": 158255.39104166726,
      "d": 18.115833333315095,
      "v": 111
    },
    {
      "midi": 57,
      "hit": false,
      "t": 158255.39104166726,
      "d": 79.25677083330811,
      "v": 111
    },
    {
      "midi": 73,
      "hit": false,
      "t": 158255.39104166726,
      "d": 90.57916666663368,
      "v": 111
    },
    {
      "midi": 64,
      "hit": false,
      "t": 158264.44895833393,
      "d": 6.793437499989523,
      "v": 111
    },
    {
      "midi": 64,
      "hit": false,
      "t": 158690.17104166723,
      "d": 1075.627604166657,
      "v": 111
    },
    {
      "midi": 57,
      "hit": false,
      "t": 158690.17104166723,
      "d": 1086.9499999999825,
      "v": 111
    },
    {
      "midi": 69,
      "hit": false,
      "t": 158699.2289583339,
      "d": 1075.627604166657,
      "v": 111
    },
    {
      "midi": 73,
      "hit": false,
      "t": 158699.2289583339,
      "d": 1075.627604166657,
      "v": 111
    },
    {
      "midi": 59,
      "hit": false,
      "t": 158699.2289583339,
      "d": 1132.239583333314,
      "v": 111
    },
    {
      "midi": 68,
      "hit": false,
      "t": 159994.51104166723,
      "d": 758.6005208333372,
      "v": 111
    },
    {
      "midi": 64,
      "hit": false,
      "t": 159994.51104166723,
      "d": 815.2124999999942,
      "v": 111
    },
    {
      "midi": 52,
      "hit": false,
      "t": 159994.51104166723,
      "d": 1086.9500000000116,
      "v": 111
    },
    {
      "midi": 64,
      "hit": false,
      "t": 160864.07104166722,
      "d": 520.8302083333547,
      "v": 111
    },
    {
      "midi": 68,
      "hit": false,
      "t": 160864.07104166722,
      "d": 520.8302083333547,
      "v": 111
    },
    {
      "midi": 59,
      "hit": false,
      "t": 161298.85104166725,
      "d": 31.702708333323244,
      "v": 111
    },
    {
      "midi": 52,
      "hit": false,
      "t": 161298.85104166725,
      "d": 339.671875,
      "v": 111
    },
    {
      "midi": 73,
      "hit": false,
      "t": 161706.45729166726,
      "d": 656.6989583333198,
      "v": 111
    },
    {
      "midi": 64,
      "hit": false,
      "t": 161706.45729166726,
      "d": 713.3109374999767,
      "v": 111
    },
    {
      "midi": 69,
      "hit": false,
      "t": 161706.45729166726,
      "d": 724.6333333333023,
      "v": 111
    },
    {
      "midi": 54,
      "hit": false,
      "t": 161706.45729166726,
      "d": 1075.6276041666279,
      "v": 111
    },
    {
      "midi": 64,
      "hit": false,
      "t": 162603.19104166722,
      "d": 611.4093750000175,
      "v": 111
    },
    {
      "midi": 71,
      "hit": false,
      "t": 162603.19104166722,
      "d": 622.731770833343,
      "v": 111
    },
    {
      "midi": 56,
      "hit": false,
      "t": 162603.19104166722,
      "d": 1075.627604166686,
      "v": 111
    },
    {
      "midi": 74,
      "hit": false,
      "t": 162612.2489583339,
      "d": 498.1854166666744,
      "v": 111
    },
    {
      "midi": 73,
      "hit": false,
      "t": 163472.75104166722,
      "d": 690.6661458333547,
      "v": 111
    },
    {
      "midi": 64,
      "hit": false,
      "t": 163472.75104166722,
      "d": 701.9885416666802,
      "v": 111
    },
    {
      "midi": 69,
      "hit": false,
      "t": 163472.75104166722,
      "d": 713.3109375000058,
      "v": 111
    },
    {
      "midi": 57,
      "hit": false,
      "t": 163472.75104166722,
      "d": 1222.8187500000058,
      "v": 111
    },
    {
      "midi": 69,
      "hit": false,
      "t": 164342.3110416672,
      "d": 928.4364583333663,
      "v": 111
    },
    {
      "midi": 57,
      "hit": false,
      "t": 164777.0910416672,
      "d": 362.31666666668025,
      "v": 111
    },
    {
      "midi": 68,
      "hit": false,
      "t": 165211.87104166724,
      "d": 407.60625000001164,
      "v": 111
    },
    {
      "midi": 57,
      "hit": false,
      "t": 165619.47729166725,
      "d": 871.8244791666511,
      "v": 111
    },
    {
      "midi": 64,
      "hit": false,
      "t": 166081.43104166724,
      "d": 328.3494791666744,
      "v": 111
    },
    {
      "midi": 57,
      "hit": false,
      "t": 166516.21104166724,
      "d": 158.51354166667443,
      "v": 111
    },
    {
      "midi": 59,
      "hit": false,
      "t": 166733.60104166725,
      "d": 113.22395833334303,
      "v": 111
    },
    {
      "midi": 61,
      "hit": false,
      "t": 166950.99104166726,
      "d": 769.9229166666628,
      "v": 111
    },
    {
      "midi": 57,
      "hit": false,
      "t": 166950.99104166726,
      "d": 1245.463541666686,
      "v": 111
    },
    {
      "midi": 59,
      "hit": false,
      "t": 166950.99104166726,
      "d": 1279.430729166692,
      "v": 111
    },
    {
      "midi": 61,
      "hit": false,
      "t": 167820.55104166726,
      "d": 339.671875,
      "v": 111
    },
    {
      "midi": 64,
      "hit": false,
      "t": 167820.55104166726,
      "d": 362.31666666668025,
      "v": 111
    },
    {
      "midi": 69,
      "hit": false,
      "t": 167820.55104166726,
      "d": 430.2510416666919,
      "v": 111
    },
    {
      "midi": 57,
      "hit": false,
      "t": 168255.3310416673,
      "d": 124.5463541666686,
      "v": 111
    },
    {
      "midi": 59,
      "hit": false,
      "t": 168255.3310416673,
      "d": 407.60625000001164,
      "v": 111
    },
    {
      "midi": 68,
      "hit": false,
      "t": 168690.1110416673,
      "d": 679.34375,
      "v": 111
    },
    {
      "midi": 66,
      "hit": false,
      "t": 168690.1110416673,
      "d": 701.9885416666802,
      "v": 111
    },
    {
      "midi": 71,
      "hit": false,
      "t": 168699.16895833396,
      "d": 724.6333333333314,
      "v": 111
    },
    {
      "midi": 75,
      "hit": false,
      "t": 168699.16895833396,
      "d": 735.955729166657,
      "v": 111
    },
    {
      "midi": 66,
      "hit": false,
      "t": 169559.6710416673,
      "d": 475.5406249999942,
      "v": 111
    },
    {
      "midi": 68,
      "hit": false,
      "t": 169559.6710416673,
      "d": 498.1854166666744,
      "v": 111
    },
    {
      "midi": 71,
      "hit": false,
      "t": 169559.6710416673,
      "d": 532.1526041666511,
      "v": 111
    },
    {
      "midi": 75,
      "hit": false,
      "t": 169559.6710416673,
      "d": 600.0869791666628,
      "v": 111
    },
    {
      "midi": 56,
      "hit": false,
      "t": 169994.4510416673,
      "d": 65.66989583332906,
      "v": 111
    },
    {
      "midi": 61,
      "hit": false,
      "t": 170429.23104166728,
      "d": 1177.5291666666744,
      "v": 111
    },
    {
      "midi": 71,
      "hit": false,
      "t": 170438.28895833396,
      "d": 656.6989583333198,
      "v": 111
    },
    {
      "midi": 73,
      "hit": false,
      "t": 170438.28895833396,
      "d": 668.0213541666453,
      "v": 111
    },
    {
      "midi": 68,
      "hit": false,
      "t": 170438.28895833396,
      "d": 690.6661458333256,
      "v": 111
    },
    {
      "midi": 76,
      "hit": false,
      "t": 170438.28895833396,
      "d": 690.6661458333256,
      "v": 111
    },
    {
      "midi": 68,
      "hit": false,
      "t": 171298.79104166728,
      "d": 645.3765624999942,
      "v": 111
    },
    {
      "midi": 61,
      "hit": false,
      "t": 171733.57104166728,
      "d": 860.5020833333256,
      "v": 111
    },
    {
      "midi": 75,
      "hit": false,
      "t": 171815.09229166727,
      "d": 169.8359375,
      "v": 111
    },
    {
      "midi": 68,
      "hit": false,
      "t": 172168.35104166728,
      "d": 317.02708333331975,
      "v": 111
    },
    {
      "midi": 76,
      "hit": false,
      "t": 172168.35104166728,
      "d": 317.02708333331975,
      "v": 111
    },
    {
      "midi": 61,
      "hit": false,
      "t": 172603.13104166728,
      "d": 373.6390625000058,
      "v": 111
    },
    {
      "midi": 75,
      "hit": false,
      "t": 172603.13104166728,
      "d": 894.4692708333314,
      "v": 111
    },
    {
      "midi": 68,
      "hit": false,
      "t": 173255.3010416673,
      "d": 283.05989583331393,
      "v": 111
    },
    {
      "midi": 71,
      "hit": false,
      "t": 173445.5172916673,
      "d": 215.1255208333023,
      "v": 111
    },
    {
      "midi": 61,
      "hit": false,
      "t": 173690.08104166726,
      "d": 4.52895833333605,
      "v": 111
    },
    {
      "midi": 61,
      "hit": false,
      "t": 173907.47104166728,
      "d": 724.6333333333314,
      "v": 111
    },
    {
      "midi": 54,
      "hit": false,
      "t": 173907.47104166728,
      "d": 1302.075520833343,
      "v": 111
    },
    {
      "midi": 69,
      "hit": false,
      "t": 173916.52895833395,
      "d": 724.6333333333314,
      "v": 111
    },
    {
      "midi": 64,
      "hit": false,
      "t": 173916.52895833395,
      "d": 735.955729166657,
      "v": 111
    },
    {
      "midi": 61,
      "hit": false,
      "t": 174777.03104166727,
      "d": 520.8302083333256,
      "v": 111
    },
    {
      "midi": 64,
      "hit": false,
      "t": 174777.03104166727,
      "d": 532.1526041666511,
      "v": 111
    },
    {
      "midi": 69,
      "hit": false,
      "t": 174777.03104166727,
      "d": 588.7645833333081,
      "v": 111
    },
    {
      "midi": 54,
      "hit": false,
      "t": 175211.81104166727,
      "d": 498.1854166666453,
      "v": 111
    },
    {
      "midi": 66,
      "hit": false,
      "t": 175646.59104166724,
      "d": 634.0541666666977,
      "v": 111
    },
    {
      "midi": 69,
      "hit": false,
      "t": 175646.59104166724,
      "d": 656.698958333378,
      "v": 111
    },
    {
      "midi": 71,
      "hit": false,
      "t": 175646.59104166724,
      "d": 656.698958333378,
      "v": 111
    },
    {
      "midi": 59,
      "hit": false,
      "t": 175646.59104166724,
      "d": 1222.818750000064,
      "v": 111
    },
    {
      "midi": 69,
      "hit": false,
      "t": 176516.1510416673,
      "d": 509.5078125,
      "v": 111
    },
    {
      "midi": 66,
      "hit": false,
      "t": 176516.1510416673,
      "d": 520.8302083333256,
      "v": 111
    },
    {
      "midi": 71,
      "hit": false,
      "t": 176516.1510416673,
      "d": 577.4421874999825,
      "v": 111
    },
    {
      "midi": 59,
      "hit": false,
      "t": 176950.9310416673,
      "d": 113.22395833331393,
      "v": 111
    },
    {
      "midi": 52,
      "hit": false,
      "t": 177385.71104166727,
      "d": 1120.9171875000175,
      "v": 111
    },
    {
      "midi": 66,
      "hit": false,
      "t": 177394.76895833394,
      "d": 588.7645833333372,
      "v": 111
    },
    {
      "midi": 68,
      "hit": false,
      "t": 177394.76895833394,
      "d": 622.731770833343,
      "v": 111
    },
    {
      "midi": 71,
      "hit": false,
      "t": 177394.76895833394,
      "d": 634.0541666666686,
      "v": 111
    },
    {
      "midi": 62,
      "hit": false,
      "t": 177394.76895833394,
      "d": 668.0213541666744,
      "v": 111
    },
    {
      "midi": 62,
      "hit": false,
      "t": 178255.2710416673,
      "d": 520.8302083333256,
      "v": 111
    },
    {
      "midi": 66,
      "hit": false,
      "t": 178255.2710416673,
      "d": 769.9229166666628,
      "v": 111
    },
    {
      "midi": 68,
      "hit": false,
      "t": 178255.2710416673,
      "d": 803.8901041666686,
      "v": 111
    },
    {
      "midi": 52,
      "hit": false,
      "t": 178690.0510416673,
      "d": 486.86302083331975,
      "v": 111
    },
    {
      "midi": 62,
      "hit": false,
      "t": 178907.44104166728,
      "d": 158.51354166667443,
      "v": 111
    },
    {
      "midi": 62,
      "hit": false,
      "t": 179124.8310416673,
      "d": 124.5463541666686,
      "v": 111
    },
    {
      "midi": 69,
      "hit": false,
      "t": 179124.8310416673,
      "d": 543.4750000000058,
      "v": 111
    },
    {
      "midi": 54,
      "hit": false,
      "t": 179124.8310416673,
      "d": 1030.3380208333256,
      "v": 111
    },
    {
      "midi": 62,
      "hit": false,
      "t": 179559.6110416673,
      "d": 600.0869791666628,
      "v": 111
    },
    {
      "midi": 69,
      "hit": false,
      "t": 179749.8272916673,
      "d": 690.6661458333256,
      "v": 111
    },
    {
      "midi": 71,
      "hit": false,
      "t": 179994.3910416673,
      "d": 792.567708333343,
      "v": 111
    },
    {
      "midi": 56,
      "hit": false,
      "t": 179994.3910416673,
      "d": 1064.3052083333314,
      "v": 111
    },
    {
      "midi": 64,
      "hit": false,
      "t": 180429.1710416673,
      "d": 203.80312500000582,
      "v": 111
    },
    {
      "midi": 64,
      "hit": false,
      "t": 180863.9510416673,
      "d": 668.0213541666744,
      "v": 111
    },
    {
      "midi": 69,
      "hit": false,
      "t": 180863.9510416673,
      "d": 679.34375,
      "v": 111
    },
    {
      "midi": 57,
      "hit": false,
      "t": 180863.9510416673,
      "d": 1268.1083333333372,
      "v": 111
    },
    {
      "midi": 73,
      "hit": false,
      "t": 180873.00895833396,
      "d": 600.0869791666628,
      "v": 111
    },
    {
      "midi": 71,
      "hit": false,
      "t": 180873.00895833396,
      "d": 769.9229166666628,
      "v": 111
    },
    {
      "midi": 64,
      "hit": false,
      "t": 181706.3372916673,
      "d": 384.9614583333314,
      "v": 111
    },
    {
      "midi": 69,
      "hit": false,
      "t": 181706.3372916673,
      "d": 418.9286458333372,
      "v": 111
    },
    {
      "midi": 73,
      "hit": false,
      "t": 181706.3372916673,
      "d": 486.86302083331975,
      "v": 111
    },
    {
      "midi": 71,
      "hit": false,
      "t": 181706.3372916673,
      "d": 509.5078125,
      "v": 111
    },
    {
      "midi": 57,
      "hit": false,
      "t": 182168.29104166728,
      "d": 532.1526041667094,
      "v": 111
    },
    {
      "midi": 68,
      "hit": false,
      "t": 182603.0710416673,
      "d": 464.2182291666977,
      "v": 111
    },
    {
      "midi": 66,
      "hit": false,
      "t": 182603.0710416673,
      "d": 532.1526041666802,
      "v": 111
    },
    {
      "midi": 75,
      "hit": false,
      "t": 182612.12895833398,
      "d": 486.86302083334886,
      "v": 111
    },
    {
      "midi": 71,
      "hit": false,
      "t": 182612.12895833398,
      "d": 622.731770833343,
      "v": 111
    },
    {
      "midi": 56,
      "hit": false,
      "t": 182612.12895833398,
      "d": 1245.463541666686,
      "v": 111
    },
    {
      "midi": 68,
      "hit": false,
      "t": 183472.63104166734,
      "d": 486.86302083331975,
      "v": 111
    },
    {
      "midi": 66,
      "hit": false,
      "t": 183472.63104166734,
      "d": 509.5078125,
      "v": 111
    },
    {
      "midi": 71,
      "hit": false,
      "t": 183472.63104166734,
      "d": 532.1526041666802,
      "v": 111
    },
    {
      "midi": 75,
      "hit": false,
      "t": 183472.63104166734,
      "d": 577.4421875000116,
      "v": 111
    },
    {
      "midi": 56,
      "hit": false,
      "t": 183907.41104166734,
      "d": 532.1526041666802,
      "v": 111
    },
    {
      "midi": 64,
      "hit": false,
      "t": 184342.19104166733,
      "d": 679.3437500000291,
      "v": 111
    },
    {
      "midi": 61,
      "hit": false,
      "t": 184342.19104166733,
      "d": 758.6005208333663,
      "v": 111
    },
    {
      "midi": 68,
      "hit": false,
      "t": 184342.19104166733,
      "d": 769.9229166666919,
      "v": 111
    },
    {
      "midi": 73,
      "hit": false,
      "t": 184351.248958334,
      "d": 849.1796875000291,
      "v": 111
    },
    {
      "midi": 61,
      "hit": false,
      "t": 185211.75104166736,
      "d": 781.2453124999884,
      "v": 111
    },
    {
      "midi": 68,
      "hit": false,
      "t": 185646.53104166736,
      "d": 135.86874999999418,
      "v": 111
    },
    {
      "midi": 71,
      "hit": false,
      "t": 185646.53104166736,
      "d": 147.19114583331975,
      "v": 111
    },
    {
      "midi": 75,
      "hit": false,
      "t": 185646.53104166736,
      "d": 203.80312499997672,
      "v": 111
    },
    {
      "midi": 68,
      "hit": false,
      "t": 186081.31104166736,
      "d": 113.22395833334303,
      "v": 111
    },
    {
      "midi": 71,
      "hit": false,
      "t": 186081.31104166736,
      "d": 124.5463541666686,
      "v": 111
    },
    {
      "midi": 76,
      "hit": false,
      "t": 186081.31104166736,
      "d": 158.51354166667443,
      "v": 111
    },
    {
      "midi": 61,
      "hit": false,
      "t": 186081.31104166736,
      "d": 826.5348958333489,
      "v": 111
    },
    {
      "midi": 68,
      "hit": false,
      "t": 186516.09104166736,
      "d": 158.51354166667443,
      "v": 111
    },
    {
      "midi": 75,
      "hit": false,
      "t": 186516.09104166736,
      "d": 283.05989583334303,
      "v": 111
    },
    {
      "midi": 71,
      "hit": false,
      "t": 186715.36520833403,
      "d": 475.5406250000524,
      "v": 111
    },
    {
      "midi": 61,
      "hit": false,
      "t": 186950.8710416674,
      "d": 566.1197916666861,
      "v": 111
    },
    {
      "midi": 68,
      "hit": false,
      "t": 187168.2610416674,
      "d": 101.90156250001746,
      "v": 111
    },
    {
      "midi": 64,
      "hit": false,
      "t": 187385.6510416674,
      "d": 203.80312500000582,
      "v": 111
    },
    {
      "midi": 64,
      "hit": false,
      "t": 187603.04104166743,
      "d": 135.86874999999418,
      "v": 111
    },
    {
      "midi": 71,
      "hit": false,
      "t": 187603.04104166743,
      "d": 1007.6932291666453,
      "v": 111
    },
    {
      "midi": 69,
      "hit": false,
      "t": 187820.4310416674,
      "d": 724.6333333333023,
      "v": 111
    },
    {
      "midi": 61,
      "hit": false,
      "t": 187820.4310416674,
      "d": 758.6005208333081,
      "v": 111
    },
    {
      "midi": 54,
      "hit": false,
      "t": 187820.4310416674,
      "d": 1200.1739583333256,
      "v": 111
    },
    {
      "midi": 64,
      "hit": false,
      "t": 187829.48895833408,
      "d": 758.6005208333081,
      "v": 111
    },
    {
      "midi": 61,
      "hit": false,
      "t": 188689.9910416674,
      "d": 441.57343749998836,
      "v": 111
    },
    {
      "midi": 64,
      "hit": false,
      "t": 188689.9910416674,
      "d": 543.4749999999767,
      "v": 111
    },
    {
      "midi": 69,
      "hit": false,
      "t": 188689.9910416674,
      "d": 634.0541666666395,
      "v": 111
    },
    {
      "midi": 73,
      "hit": false,
      "t": 189124.7710416674,
      "d": 169.8359374999709,
      "v": 111
    },
    {
      "midi": 54,
      "hit": false,
      "t": 189124.7710416674,
      "d": 532.1526041666511,
      "v": 111
    },
    {
      "midi": 59,
      "hit": false,
      "t": 189559.55104166738,
      "d": 837.8572916666744,
      "v": 111
    },
    {
      "midi": 69,
      "hit": false,
      "t": 189559.55104166738,
      "d": 1098.2723958333372,
      "v": 111
    },
    {
      "midi": 66,
      "hit": false,
      "t": 189559.55104166738,
      "d": 1211.4963541666511,
      "v": 111
    },
    {
      "midi": 71,
      "hit": false,
      "t": 189568.60895833405,
      "d": 1086.9500000000116,
      "v": 111
    },
    {
      "midi": 75,
      "hit": false,
      "t": 189568.60895833405,
      "d": 1166.2067708333198,
      "v": 111
    },
    {
      "midi": 59,
      "hit": false,
      "t": 190410.99520833406,
      "d": 803.8901041666395,
      "v": 111
    },
    {
      "midi": 76,
      "hit": false,
      "t": 190863.89104166738,
      "d": 396.28385416665697,
      "v": 111
    },
    {
      "midi": 76,
      "hit": false,
      "t": 191307.72895833405,
      "d": 3113.658854166715,
      "v": 111
    },
    {
      "midi": 61,
      "hit": false,
      "t": 191307.72895833405,
      "d": 3917.548958333384,
      "v": 111
    },
    {
      "midi": 73,
      "hit": false,
      "t": 193889.23520833408,
      "d": 432.51552083334536,
      "v": 111
    },
    {
      "midi": 68,
      "hit": false,
      "t": 193889.23520833408,
      "d": 455.1603125000256,
      "v": 111
    },
    {
      "midi": 57,
      "hit": false,
      "t": 195211.69104166742,
      "d": 79.25677083333721,
      "v": 111
    },
    {
      "midi": 64,
      "hit": false,
      "t": 195220.7489583341,
      "d": 79.25677083333721,
      "v": 111
    },
    {
      "midi": 59,
      "hit": false,
      "t": 195220.7489583341,
      "d": 101.90156250001746,
      "v": 111
    },
    {
      "midi": 73,
      "hit": false,
      "t": 195220.7489583341,
      "d": 101.90156250001746,
      "v": 111
    },
    {
      "midi": 69,
      "hit": false,
      "t": 195220.7489583341,
      "d": 124.54635416669771,
      "v": 111
    },
    {
      "midi": 73,
      "hit": false,
      "t": 195646.47104166745,
      "d": 815.2124999999942,
      "v": 111
    },
    {
      "midi": 57,
      "hit": false,
      "t": 195655.52895833412,
      "d": 803.8901041666686,
      "v": 111
    },
    {
      "midi": 59,
      "hit": false,
      "t": 195655.52895833412,
      "d": 837.8572916666453,
      "v": 111
    },
    {
      "midi": 64,
      "hit": false,
      "t": 195655.52895833412,
      "d": 837.8572916666453,
      "v": 111
    },
    {
      "midi": 69,
      "hit": false,
      "t": 195655.52895833412,
      "d": 837.8572916666453,
      "v": 111
    },
    {
      "midi": 57,
      "hit": false,
      "t": 196624.72604166743,
      "d": 79.25677083333721,
      "v": 111
    },
    {
      "midi": 59,
      "hit": false,
      "t": 196624.72604166743,
      "d": 79.25677083333721,
      "v": 111
    },
    {
      "midi": 64,
      "hit": false,
      "t": 196624.72604166743,
      "d": 101.90156250001746,
      "v": 111
    },
    {
      "midi": 73,
      "hit": false,
      "t": 196624.72604166743,
      "d": 101.90156250001746,
      "v": 111
    },
    {
      "midi": 69,
      "hit": false,
      "t": 196624.72604166743,
      "d": 113.22395833334303,
      "v": 111
    },
    {
      "midi": 73,
      "hit": false,
      "t": 196950.81104166745,
      "d": 837.8572916666453,
      "v": 111
    },
    {
      "midi": 57,
      "hit": false,
      "t": 196950.81104166745,
      "d": 871.8244791666511,
      "v": 111
    },
    {
      "midi": 69,
      "hit": false,
      "t": 196959.86895833412,
      "d": 871.8244791666511,
      "v": 111
    },
    {
      "midi": 64,
      "hit": false,
      "t": 196959.86895833412,
      "d": 905.791666666657,
      "v": 111
    },
    {
      "midi": 59,
      "hit": false,
      "t": 196959.86895833412,
      "d": 962.4036458333139,
      "v": 111
    },
    {
      "midi": 59,
      "hit": false,
      "t": 198255.15104166744,
      "d": 1211.4963541666511,
      "v": 111
    },
    {
      "midi": 64,
      "hit": false,
      "t": 198255.15104166744,
      "d": 1211.4963541666511,
      "v": 111
    },
    {
      "midi": 52,
      "hit": false,
      "t": 198255.15104166744,
      "d": 1222.8187499999767,
      "v": 111
    },
    {
      "midi": 68,
      "hit": false,
      "t": 198255.15104166744,
      "d": 1245.463541666657,
      "v": 111
    },
    {
      "midi": 62,
      "hit": false,
      "t": 199994.27104166744,
      "d": 79.25677083333721,
      "v": 111
    },
    {
      "midi": 66,
      "hit": false,
      "t": 199994.27104166744,
      "d": 79.25677083333721,
      "v": 111
    },
    {
      "midi": 69,
      "hit": false,
      "t": 199994.27104166744,
      "d": 79.25677083333721,
      "v": 111
    },
    {
      "midi": 57,
      "hit": false,
      "t": 199994.27104166744,
      "d": 113.22395833334303,
      "v": 111
    },
    {
      "midi": 47,
      "hit": false,
      "t": 199994.27104166744,
      "d": 124.5463541666686,
      "v": 111
    },
    {
      "midi": 47,
      "hit": false,
      "t": 200429.05104166744,
      "d": 407.60625000001164,
      "v": 111
    },
    {
      "midi": 57,
      "hit": false,
      "t": 200429.05104166744,
      "d": 486.86302083334886,
      "v": 111
    },
    {
      "midi": 66,
      "hit": false,
      "t": 200429.05104166744,
      "d": 701.9885416666802,
      "v": 111
    },
    {
      "midi": 69,
      "hit": false,
      "t": 200429.05104166744,
      "d": 781.2453125000175,
      "v": 111
    },
    {
      "midi": 62,
      "hit": false,
      "t": 200429.05104166744,
      "d": 815.2125000000233,
      "v": 111
    },
    {
      "midi": 50,
      "hit": false,
      "t": 201298.61104166746,
      "d": 430.2510416666919,
      "v": 111
    },
    {
      "midi": 62,
      "hit": false,
      "t": 201298.61104166746,
      "d": 452.89583333337214,
      "v": 111
    },
    {
      "midi": 69,
      "hit": false,
      "t": 201298.61104166746,
      "d": 464.2182291666977,
      "v": 111
    },
    {
      "midi": 66,
      "hit": false,
      "t": 201298.61104166746,
      "d": 475.5406250000233,
      "v": 111
    },
    {
      "midi": 73,
      "hit": false,
      "t": 201298.61104166746,
      "d": 475.5406250000233,
      "v": 111
    },
    {
      "midi": 57,
      "hit": false,
      "t": 201298.61104166746,
      "d": 577.4421875000407,
      "v": 111
    },
    {
      "midi": 59,
      "hit": false,
      "t": 202385.5610416675,
      "d": 33.96718750000582,
      "v": 111
    },
    {
      "midi": 68,
      "hit": false,
      "t": 202385.5610416675,
      "d": 566.1197916666861,
      "v": 111
    },
    {
      "midi": 52,
      "hit": false,
      "t": 202385.5610416675,
      "d": 4370.4447916666395,
      "v": 111
    },
    {
      "midi": 71,
      "hit": false,
      "t": 202394.61895833418,
      "d": 645.3765624999942,
      "v": 111
    },
    {
      "midi": 64,
      "hit": false,
      "t": 202602.95104166752,
      "d": 54.34750000000349,
      "v": 111
    },
    {
      "midi": 59,
      "hit": false,
      "t": 202602.95104166752,
      "d": 588.7645833333081,
      "v": 111
    },
    {
      "midi": 66,
      "hit": false,
      "t": 203037.73104166752,
      "d": 237.77031249998254,
      "v": 127
    },
    {
      "midi": 68,
      "hit": false,
      "t": 203255.1210416675,
      "d": 181.15833333332557,
      "v": 127
    },
    {
      "midi": 59,
      "hit": false,
      "t": 203255.1210416675,
      "d": 3374.0739583332906,
      "v": 127
    },
    {
      "midi": 71,
      "hit": false,
      "t": 203472.5110416675,
      "d": 101.90156249998836,
      "v": 127
    },
    {
      "midi": 76,
      "hit": false,
      "t": 203689.90104166747,
      "d": 101.90156249998836,
      "v": 127
    },
    {
      "midi": 78,
      "hit": false,
      "t": 203907.29104166746,
      "d": 226.44791666668607,
      "v": 127
    },
    {
      "midi": 80,
      "hit": false,
      "t": 204124.68104166747,
      "d": 249.0927083333372,
      "v": 127
    },
    {
      "midi": 83,
      "hit": false,
      "t": 204342.07104166748,
      "d": 56.611979166656965,
      "v": 127
    },
    {
      "midi": 88,
      "hit": false,
      "t": 204668.15604166748,
      "d": 90.57916666666279,
      "v": 127
    },
    {
      "midi": 90,
      "hit": false,
      "t": 204885.54604166746,
      "d": 498.1854166666744,
      "v": 127
    },
    {
      "midi": 92,
      "hit": false,
      "t": 205320.32604166746,
      "d": 577.4421875000116,
      "v": 127
    },
    {
      "midi": 47,
      "hit": false,
      "t": 206733.36104166746,
      "d": 135.86874999999418,
      "v": 127
    },
    {
      "midi": 40,
      "hit": false,
      "t": 206733.36104166746,
      "d": 1800.2609374999884,
      "v": 127
    },
    {
      "midi": 88,
      "hit": false,
      "t": 206733.36104166746,
      "d": 1800.2609374999884,
      "v": 127
    },
    {
      "midi": 92,
      "hit": false,
      "t": 206842.05604166747,
      "d": 1698.359374999971,
      "v": 127
    },
    {
      "midi": 95,
      "hit": false,
      "t": 206950.75104166745,
      "d": 144.92666666666628,
      "v": 127
    }
  ]
}