{
  "jsonPath": "Unknown/Unknown/Cleveland Orchestra_ George Szell/slavonic-dances-op-72-no-2-in-e-minor-allegro-grazioso.json",
  "path": "Unknown\\Unknown\\Cleveland Orchestra_ George Szell\\Slavonic Dances_ Op 72 No 2 in E Minor (Allegro Grazioso).mid",
  "name": "Slavonic Dances_ Op 72 No 2 in E Minor (Allegro Grazioso)",
  "difficulty": "Advanced",
  "bpm": 204.00044880098736,
  "notes": [
    {
      "midi": 40,
      "hit": false,
      "t": 2526.3119999999994,
      "d": 184.2102500000001,
      "v": 50
    },
    {
      "midi": 76,
      "hit": false,
      "t": 2842.1009999999997,
      "d": 315.78899999999976,
      "v": 45
    },
    {
      "midi": 52,
      "hit": false,
      "t": 2842.1009999999997,
      "d": 131.57875000000013,
      "v": 40
    },
    {
      "midi": 79,
      "hit": false,
      "t": 2842.101,
      "d": 315.7890000000002,
      "v": 40
    },
    {
      "midi": 83,
      "hit": false,
      "t": 2842.101,
      "d": 342.1047500000004,
      "v": 50
    },
    {
      "midi": 76,
      "hit": false,
      "t": 3157.8899999999994,
      "d": 315.78899999999976,
      "v": 47
    },
    {
      "midi": 55,
      "hit": false,
      "t": 3157.89,
      "d": 157.89449999999988,
      "v": 25
    },
    {
      "midi": 64,
      "hit": false,
      "t": 3157.89,
      "d": 157.89449999999988,
      "v": 38
    },
    {
      "midi": 79,
      "hit": false,
      "t": 3157.8900000000003,
      "d": 315.7890000000002,
      "v": 42
    },
    {
      "midi": 84,
      "hit": false,
      "t": 3157.8900000000003,
      "d": 342.1047500000004,
      "v": 55
    },
    {
      "midi": 76,
      "hit": false,
      "t": 3473.678999999999,
      "d": 315.78899999999976,
      "v": 43
    },
    {
      "midi": 79,
      "hit": false,
      "t": 3473.6790000000005,
      "d": 315.7890000000002,
      "v": 38
    },
    {
      "midi": 83,
      "hit": false,
      "t": 3473.6790000000005,
      "d": 342.1047500000004,
      "v": 52
    },
    {
      "midi": 76,
      "hit": false,
      "t": 3789.467999999999,
      "d": 315.78899999999976,
      "v": 46
    },
    {
      "midi": 52,
      "hit": false,
      "t": 3789.468,
      "d": 157.89449999999988,
      "v": 40
    },
    {
      "midi": 79,
      "hit": false,
      "t": 3789.4680000000008,
      "d": 315.78900000000067,
      "v": 41
    },
    {
      "midi": 82,
      "hit": false,
      "t": 3789.4680000000008,
      "d": 342.1047500000004,
      "v": 57
    },
    {
      "midi": 76,
      "hit": false,
      "t": 4105.256999999999,
      "d": 315.78899999999976,
      "v": 49
    },
    {
      "midi": 55,
      "hit": false,
      "t": 4105.257,
      "d": 131.57874999999967,
      "v": 38
    },
    {
      "midi": 64,
      "hit": false,
      "t": 4105.257,
      "d": 131.57874999999967,
      "v": 45
    },
    {
      "midi": 79,
      "hit": false,
      "t": 4105.257000000001,
      "d": 315.78899999999976,
      "v": 44
    },
    {
      "midi": 83,
      "hit": false,
      "t": 4105.257000000001,
      "d": 315.78899999999976,
      "v": 63
    },
    {
      "midi": 75,
      "hit": false,
      "t": 4421.0459999999985,
      "d": 1263.156,
      "v": 52
    },
    {
      "midi": 42,
      "hit": false,
      "t": 4421.045999999999,
      "d": 184.2102500000001,
      "v": 55
    },
    {
      "midi": 81,
      "hit": false,
      "t": 4421.046000000001,
      "d": 1263.156,
      "v": 47
    },
    {
      "midi": 84,
      "hit": false,
      "t": 4421.046000000001,
      "d": 1289.4717499999997,
      "v": 70
    },
    {
      "midi": 57,
      "hit": false,
      "t": 4736.834999999999,
      "d": 131.57874999999967,
      "v": 40
    },
    {
      "midi": 54,
      "hit": false,
      "t": 4736.834999999999,
      "d": 131.57874999999967,
      "v": 50
    },
    {
      "midi": 63,
      "hit": false,
      "t": 5052.623999999999,
      "d": 105.26299999999992,
      "v": 38
    },
    {
      "midi": 66,
      "hit": false,
      "t": 5368.412999999999,
      "d": 118.4208749999998,
      "v": 45
    },
    {
      "midi": 75,
      "hit": false,
      "t": 5684.201999999998,
      "d": 631.5780000000004,
      "v": 47
    },
    {
      "midi": 63,
      "hit": false,
      "t": 5684.201999999998,
      "d": 157.89450000000033,
      "v": 28
    },
    {
      "midi": 69,
      "hit": false,
      "t": 5684.201999999998,
      "d": 157.89450000000033,
      "v": 48
    },
    {
      "midi": 54,
      "hit": false,
      "t": 5684.201999999998,
      "d": 157.89450000000033,
      "v": 45
    },
    {
      "midi": 57,
      "hit": false,
      "t": 5684.201999999998,
      "d": 157.89450000000033,
      "v": 30
    },
    {
      "midi": 81,
      "hit": false,
      "t": 5684.202000000001,
      "d": 631.5779999999995,
      "v": 42
    },
    {
      "midi": 83,
      "hit": false,
      "t": 5684.202000000001,
      "d": 631.5779999999995,
      "v": 60
    },
    {
      "midi": 71,
      "hit": false,
      "t": 6315.779999999999,
      "d": 1263.156,
      "v": 49
    },
    {
      "midi": 43,
      "hit": false,
      "t": 6315.779999999999,
      "d": 184.2102500000001,
      "v": 60
    },
    {
      "midi": 76,
      "hit": false,
      "t": 6315.780000000001,
      "d": 947.3670000000002,
      "v": 44
    },
    {
      "midi": 81,
      "hit": false,
      "t": 6315.780000000001,
      "d": 947.3670000000002,
      "v": 65
    },
    {
      "midi": 59,
      "hit": false,
      "t": 6631.568999999999,
      "d": 131.57874999999967,
      "v": 50
    },
    {
      "midi": 64,
      "hit": false,
      "t": 6947.357999999998,
      "d": 157.89450000000033,
      "v": 35
    },
    {
      "midi": 67,
      "hit": false,
      "t": 6947.357999999998,
      "d": 157.89450000000033,
      "v": 48
    },
    {
      "midi": 76,
      "hit": false,
      "t": 7263.147000000001,
      "d": 315.78899999999976,
      "v": 41
    },
    {
      "midi": 79,
      "hit": false,
      "t": 7263.147000000001,
      "d": 342.1047499999995,
      "v": 60
    },
    {
      "midi": 71,
      "hit": false,
      "t": 7578.935999999999,
      "d": 631.5780000000004,
      "v": 45
    },
    {
      "midi": 55,
      "hit": false,
      "t": 7578.935999999999,
      "d": 157.89450000000033,
      "v": 52
    },
    {
      "midi": 76,
      "hit": false,
      "t": 7578.936000000001,
      "d": 315.78899999999976,
      "v": 38
    },
    {
      "midi": 78,
      "hit": false,
      "t": 7578.936000000001,
      "d": 342.1047499999995,
      "v": 53
    },
    {
      "midi": 59,
      "hit": false,
      "t": 7894.7249999999985,
      "d": 131.57874999999967,
      "v": 35
    },
    {
      "midi": 64,
      "hit": false,
      "t": 7894.7249999999985,
      "d": 131.57874999999967,
      "v": 42
    },
    {
      "midi": 76,
      "hit": false,
      "t": 7894.725,
      "d": 315.78899999999885,
      "v": 55
    },
    {
      "midi": 76,
      "hit": false,
      "t": 8210.514,
      "d": 1894.7340000000004,
      "v": 35
    },
    {
      "midi": 78,
      "hit": false,
      "t": 8210.514,
      "d": 1894.7340000000004,
      "v": 50
    },
    {
      "midi": 72,
      "hit": false,
      "t": 8210.514,
      "d": 1894.7340000000004,
      "v": 40
    },
    {
      "midi": 45,
      "hit": false,
      "t": 8210.514,
      "d": 184.2102500000001,
      "v": 55
    },
    {
      "midi": 57,
      "hit": false,
      "t": 8526.302999999998,
      "d": 131.57875000000058,
      "v": 45
    },
    {
      "midi": 52,
      "hit": false,
      "t": 8526.303,
      "d": 131.57875000000058,
      "v": 50
    },
    {
      "midi": 60,
      "hit": false,
      "t": 8842.091999999999,
      "d": 105.26300000000083,
      "v": 38
    },
    {
      "midi": 64,
      "hit": false,
      "t": 9157.881,
      "d": 118.4208749999998,
      "v": 40
    },
    {
      "midi": 64,
      "hit": false,
      "t": 9473.67,
      "d": 157.89450000000033,
      "v": 28
    },
    {
      "midi": 66,
      "hit": false,
      "t": 9473.67,
      "d": 157.89450000000033,
      "v": 35
    },
    {
      "midi": 57,
      "hit": false,
      "t": 9473.67,
      "d": 157.89450000000033,
      "v": 41
    },
    {
      "midi": 60,
      "hit": false,
      "t": 9473.67,
      "d": 157.89450000000033,
      "v": 48
    },
    {
      "midi": 73,
      "hit": false,
      "t": 10105.248,
      "d": 1263.155999999999,
      "v": 45
    },
    {
      "midi": 46,
      "hit": false,
      "t": 10105.248,
      "d": 184.2102500000001,
      "v": 50
    },
    {
      "midi": 76,
      "hit": false,
      "t": 10421.037,
      "d": 315.78900000000067,
      "v": 40
    },
    {
      "midi": 78,
      "hit": false,
      "t": 10421.037,
      "d": 342.1047500000004,
      "v": 50
    },
    {
      "midi": 58,
      "hit": false,
      "t": 10421.037,
      "d": 131.57875000000058,
      "v": 28
    },
    {
      "midi": 61,
      "hit": false,
      "t": 10421.037,
      "d": 131.57875000000058,
      "v": 40
    },
    {
      "midi": 76,
      "hit": false,
      "t": 10736.826000000001,
      "d": 315.78900000000067,
      "v": 42
    },
    {
      "midi": 79,
      "hit": false,
      "t": 10736.826000000001,
      "d": 342.1047500000004,
      "v": 55
    },
    {
      "midi": 61,
      "hit": false,
      "t": 10736.826000000001,
      "d": 157.89450000000033,
      "v": 25
    },
    {
      "midi": 64,
      "hit": false,
      "t": 10736.826000000001,
      "d": 157.89450000000033,
      "v": 38
    },
    {
      "midi": 76,
      "hit": false,
      "t": 11052.615000000002,
      "d": 315.78900000000067,
      "v": 38
    },
    {
      "midi": 78,
      "hit": false,
      "t": 11052.615000000002,
      "d": 342.1047500000004,
      "v": 52
    },
    {
      "midi": 73,
      "hit": false,
      "t": 11368.403999999999,
      "d": 631.5779999999995,
      "v": 48
    },
    {
      "midi": 58,
      "hit": false,
      "t": 11368.404,
      "d": 157.89450000000033,
      "v": 48
    },
    {
      "midi": 76,
      "hit": false,
      "t": 11368.404000000002,
      "d": 315.78900000000067,
      "v": 41
    },
    {
      "midi": 77,
      "hit": false,
      "t": 11368.404000000002,
      "d": 342.1047500000004,
      "v": 57
    },
    {
      "midi": 61,
      "hit": false,
      "t": 11684.193000000001,
      "d": 131.57875000000058,
      "v": 38
    },
    {
      "midi": 64,
      "hit": false,
      "t": 11684.193000000001,
      "d": 131.57875000000058,
      "v": 45
    },
    {
      "midi": 76,
      "hit": false,
      "t": 11684.193000000003,
      "d": 315.78900000000067,
      "v": 44
    },
    {
      "midi": 78,
      "hit": false,
      "t": 11684.193000000003,
      "d": 315.78900000000067,
      "v": 63
    },
    {
      "midi": 71,
      "hit": false,
      "t": 11999.981999999998,
      "d": 1263.1560000000009,
      "v": 55
    },
    {
      "midi": 47,
      "hit": false,
      "t": 11999.982,
      "d": 184.2102500000001,
      "v": 60
    },
    {
      "midi": 81,
      "hit": false,
      "t": 11999.982000000004,
      "d": 1289.4717499999988,
      "v": 70
    },
    {
      "midi": 76,
      "hit": false,
      "t": 11999.982000000004,
      "d": 1894.7339999999986,
      "v": 47
    },
    {
      "midi": 52,
      "hit": false,
      "t": 12315.771000000002,
      "d": 131.57875000000058,
      "v": 55
    },
    {
      "midi": 55,
      "hit": false,
      "t": 12631.560000000003,
      "d": 105.26300000000083,
      "v": 48
    },
    {
      "midi": 59,
      "hit": false,
      "t": 12947.349000000004,
      "d": 118.4208749999998,
      "v": 50
    },
    {
      "midi": 71,
      "hit": false,
      "t": 13263.137999999999,
      "d": 631.5779999999995,
      "v": 50
    },
    {
      "midi": 59,
      "hit": false,
      "t": 13263.138,
      "d": 157.89450000000033,
      "v": 42
    },
    {
      "midi": 79,
      "hit": false,
      "t": 13263.138000000003,
      "d": 631.5779999999995,
      "v": 60
    },
    {
      "midi": 64,
      "hit": false,
      "t": 13263.138000000004,
      "d": 157.89450000000033,
      "v": 42
    },
    {
      "midi": 69,
      "hit": false,
      "t": 13894.715999999999,
      "d": 1263.1560000000009,
      "v": 52
    },
    {
      "midi": 35,
      "hit": false,
      "t": 13894.716,
      "d": 631.5779999999995,
      "v": 40
    },
    {
      "midi": 47,
      "hit": false,
      "t": 13894.716,
      "d": 631.5779999999995,
      "v": 28
    },
    {
      "midi": 75,
      "hit": false,
      "t": 13894.716000000002,
      "d": 947.3670000000002,
      "v": 44
    },
    {
      "midi": 79,
      "hit": false,
      "t": 13894.716000000002,
      "d": 947.3670000000002,
      "v": 65
    },
    {
      "midi": 57,
      "hit": false,
      "t": 14210.505000000005,
      "d": 131.57875000000058,
      "v": 40
    },
    {
      "midi": 59,
      "hit": false,
      "t": 14526.294000000005,
      "d": 157.89450000000033,
      "v": 25
    },
    {
      "midi": 63,
      "hit": false,
      "t": 14526.294000000005,
      "d": 157.89450000000033,
      "v": 38
    },
    {
      "midi": 78,
      "hit": false,
      "t": 14842.083000000002,
      "d": 342.1047500000004,
      "v": 53
    },
    {
      "midi": 66,
      "hit": false,
      "t": 15157.872,
      "d": 657.8937499999993,
      "v": 38
    },
    {
      "midi": 69,
      "hit": false,
      "t": 15157.872,
      "d": 657.8937499999993,
      "v": 45
    },
    {
      "midi": 35,
      "hit": false,
      "t": 15157.872,
      "d": 157.89450000000033,
      "v": 32
    },
    {
      "midi": 47,
      "hit": false,
      "t": 15157.872,
      "d": 157.89450000000033,
      "v": 20
    },
    {
      "midi": 76,
      "hit": false,
      "t": 15157.872000000003,
      "d": 342.1047500000004,
      "v": 55
    },
    {
      "midi": 75,
      "hit": false,
      "t": 15473.661000000004,
      "d": 315.78900000000067,
      "v": 48
    },
    {
      "midi": 59,
      "hit": false,
      "t": 15473.661000000006,
      "d": 131.57875000000058,
      "v": 32
    },
    {
      "midi": 64,
      "hit": false,
      "t": 15789.449999999999,
      "d": 1263.1560000000009,
      "v": 30
    },
    {
      "midi": 67,
      "hit": false,
      "t": 15789.449999999999,
      "d": 1263.1560000000009,
      "v": 40
    },
    {
      "midi": 36,
      "hit": false,
      "t": 15789.449999999999,
      "d": 184.2102500000001,
      "v": 35
    },
    {
      "midi": 76,
      "hit": false,
      "t": 15789.450000000004,
      "d": 1578.9449999999997,
      "v": 45
    },
    {
      "midi": 48,
      "hit": false,
      "t": 16105.239,
      "d": 131.57875000000058,
      "v": 30
    },
    {
      "midi": 52,
      "hit": false,
      "t": 16105.239000000007,
      "d": 131.57875000000058,
      "v": 35
    },
    {
      "midi": 55,
      "hit": false,
      "t": 16421.028000000006,
      "d": 105.26299999999901,
      "v": 28
    },
    {
      "midi": 60,
      "hit": false,
      "t": 16736.817000000006,
      "d": 118.4208749999998,
      "v": 30
    },
    {
      "midi": 48,
      "hit": false,
      "t": 17052.606,
      "d": 157.89449999999852,
      "v": 25
    },
    {
      "midi": 55,
      "hit": false,
      "t": 17052.606000000007,
      "d": 157.89449999999852,
      "v": 18
    },
    {
      "midi": 64,
      "hit": false,
      "t": 17052.606000000007,
      "d": 157.89449999999852,
      "v": 25
    },
    {
      "midi": 31,
      "hit": false,
      "t": 17684.183999999997,
      "d": 631.5780000000013,
      "v": 50
    },
    {
      "midi": 43,
      "hit": false,
      "t": 17684.183999999997,
      "d": 631.5780000000013,
      "v": 32
    },
    {
      "midi": 71,
      "hit": false,
      "t": 17999.972999999998,
      "d": 342.10475000000224,
      "v": 50
    },
    {
      "midi": 76,
      "hit": false,
      "t": 17999.973000000005,
      "d": 315.78900000000067,
      "v": 35
    },
    {
      "midi": 52,
      "hit": false,
      "t": 17999.973000000005,
      "d": 131.57875000000058,
      "v": 40
    },
    {
      "midi": 72,
      "hit": false,
      "t": 18315.762,
      "d": 342.10475000000224,
      "v": 55
    },
    {
      "midi": 76,
      "hit": false,
      "t": 18315.762000000006,
      "d": 315.78900000000067,
      "v": 37
    },
    {
      "midi": 55,
      "hit": false,
      "t": 18315.762000000006,
      "d": 157.89449999999852,
      "v": 25
    },
    {
      "midi": 64,
      "hit": false,
      "t": 18315.762000000006,
      "d": 157.89449999999852,
      "v": 38
    },
    {
      "midi": 71,
      "hit": false,
      "t": 18631.551,
      "d": 342.10475000000224,
      "v": 58
    },
    {
      "midi": 76,
      "hit": false,
      "t": 18631.551000000007,
      "d": 315.78900000000067,
      "v": 33
    },
    {
      "midi": 70,
      "hit": false,
      "t": 18947.34,
      "d": 342.10475000000224,
      "v": 66
    },
    {
      "midi": 31,
      "hit": false,
      "t": 18947.34,
      "d": 157.89449999999852,
      "v": 45
    },
    {
      "midi": 76,
      "hit": false,
      "t": 18947.340000000007,
      "d": 315.78900000000067,
      "v": 40
    },
    {
      "midi": 43,
      "hit": false,
      "t": 19263.128999999997,
      "d": 131.57875000000058,
      "v": 52
    },
    {
      "midi": 71,
      "hit": false,
      "t": 19263.129,
      "d": 342.10475000000224,
      "v": 70
    },
    {
      "midi": 55,
      "hit": false,
      "t": 19263.129000000004,
      "d": 131.57875000000058,
      "v": 38
    },
    {
      "midi": 64,
      "hit": false,
      "t": 19263.129000000004,
      "d": 131.57875000000058,
      "v": 45
    },
    {
      "midi": 76,
      "hit": false,
      "t": 19263.129000000008,
      "d": 315.78900000000067,
      "v": 45
    },
    {
      "midi": 33,
      "hit": false,
      "t": 19578.917999999998,
      "d": 631.5780000000013,
      "v": 60
    },
    {
      "midi": 45,
      "hit": false,
      "t": 19578.917999999998,
      "d": 631.5780000000013,
      "v": 48
    },
    {
      "midi": 74,
      "hit": false,
      "t": 19578.918,
      "d": 1289.4717500000042,
      "v": 78
    },
    {
      "midi": 76,
      "hit": false,
      "t": 19578.91800000001,
      "d": 1894.7340000000004,
      "v": 55
    },
    {
      "midi": 52,
      "hit": false,
      "t": 19894.707000000006,
      "d": 131.57875000000058,
      "v": 45
    },
    {
      "midi": 55,
      "hit": false,
      "t": 20210.496000000006,
      "d": 157.89449999999852,
      "v": 30
    },
    {
      "midi": 64,
      "hit": false,
      "t": 20210.496000000006,
      "d": 157.89449999999852,
      "v": 43
    },
    {
      "midi": 33,
      "hit": false,
      "t": 20842.074,
      "d": 157.89449999999852,
      "v": 58
    },
    {
      "midi": 73,
      "hit": false,
      "t": 20842.074000000004,
      "d": 657.8937500000029,
      "v": 65
    },
    {
      "midi": 45,
      "hit": false,
      "t": 21157.862999999998,
      "d": 131.57875000000058,
      "v": 65
    },
    {
      "midi": 55,
      "hit": false,
      "t": 21157.863000000005,
      "d": 131.57875000000058,
      "v": 43
    },
    {
      "midi": 64,
      "hit": false,
      "t": 21157.863000000005,
      "d": 131.57875000000058,
      "v": 50
    },
    {
      "midi": 34,
      "hit": false,
      "t": 21473.652,
      "d": 631.5780000000013,
      "v": 70
    },
    {
      "midi": 46,
      "hit": false,
      "t": 21473.652,
      "d": 631.5780000000013,
      "v": 60
    },
    {
      "midi": 67,
      "hit": false,
      "t": 21473.652000000006,
      "d": 947.367000000002,
      "v": 48
    },
    {
      "midi": 72,
      "hit": false,
      "t": 21473.652000000006,
      "d": 973.6827500000036,
      "v": 70
    },
    {
      "midi": 76,
      "hit": false,
      "t": 21473.65200000001,
      "d": 1894.7340000000004,
      "v": 52
    },
    {
      "midi": 52,
      "hit": false,
      "t": 21789.441000000006,
      "d": 131.57875000000058,
      "v": 55
    },
    {
      "midi": 55,
      "hit": false,
      "t": 22105.230000000007,
      "d": 157.89449999999852,
      "v": 32
    },
    {
      "midi": 60,
      "hit": false,
      "t": 22105.230000000007,
      "d": 157.89449999999852,
      "v": 40
    },
    {
      "midi": 64,
      "hit": false,
      "t": 22105.230000000007,
      "d": 157.89449999999852,
      "v": 50
    },
    {
      "midi": 67,
      "hit": false,
      "t": 22421.019000000008,
      "d": 342.10475000000224,
      "v": 75
    },
    {
      "midi": 34,
      "hit": false,
      "t": 22736.808,
      "d": 157.89449999999852,
      "v": 68
    },
    {
      "midi": 66,
      "hit": false,
      "t": 22736.808000000008,
      "d": 342.10475000000224,
      "v": 84
    },
    {
      "midi": 46,
      "hit": false,
      "t": 23052.596999999998,
      "d": 131.57875000000058,
      "v": 74
    },
    {
      "midi": 55,
      "hit": false,
      "t": 23052.597000000005,
      "d": 131.57875000000058,
      "v": 40
    },
    {
      "midi": 60,
      "hit": false,
      "t": 23052.597000000005,
      "d": 131.57875000000058,
      "v": 48
    },
    {
      "midi": 64,
      "hit": false,
      "t": 23052.597000000005,
      "d": 131.57875000000058,
      "v": 60
    },
    {
      "midi": 64,
      "hit": false,
      "t": 23052.59700000001,
      "d": 315.78900000000067,
      "v": 80
    },
    {
      "midi": 35,
      "hit": false,
      "t": 23368.386,
      "d": 184.2102500000001,
      "v": 80
    },
    {
      "midi": 47,
      "hit": false,
      "t": 23368.386,
      "d": 184.2102500000001,
      "v": 65
    },
    {
      "midi": 71,
      "hit": false,
      "t": 23368.38600000001,
      "d": 1894.7340000000004,
      "v": 82
    },
    {
      "midi": 67,
      "hit": false,
      "t": 23368.38600000001,
      "d": 1289.4717500000006,
      "v": 65
    },
    {
      "midi": 63,
      "hit": false,
      "t": 23368.38600000001,
      "d": 1894.7340000000004,
      "v": 35
    },
    {
      "midi": 57,
      "hit": false,
      "t": 23684.175000000007,
      "d": 131.57875000000058,
      "v": 65
    },
    {
      "midi": 57,
      "hit": false,
      "t": 23999.964000000007,
      "d": 157.89449999999852,
      "v": 47
    },
    {
      "midi": 59,
      "hit": false,
      "t": 23999.964000000007,
      "d": 157.89449999999852,
      "v": 58
    },
    {
      "midi": 35,
      "hit": false,
      "t": 24631.541999999998,
      "d": 157.89449999999852,
      "v": 75
    },
    {
      "midi": 66,
      "hit": false,
      "t": 24631.54200000001,
      "d": 631.5780000000013,
      "v": 58
    },
    {
      "midi": 47,
      "hit": false,
      "t": 24947.330999999995,
      "d": 131.57875000000058,
      "v": 68
    },
    {
      "midi": 57,
      "hit": false,
      "t": 24947.331000000006,
      "d": 157.89449999999852,
      "v": 33
    },
    {
      "midi": 59,
      "hit": false,
      "t": 24947.331000000006,
      "d": 157.89449999999852,
      "v": 53
    },
    {
      "midi": 36,
      "hit": false,
      "t": 25263.119999999995,
      "d": 184.2102500000001,
      "v": 70
    },
    {
      "midi": 48,
      "hit": false,
      "t": 25263.119999999995,
      "d": 184.2102500000001,
      "v": 58
    },
    {
      "midi": 52,
      "hit": false,
      "t": 25578.909000000003,
      "d": 131.57875000000058,
      "v": 55
    },
    {
      "midi": 67,
      "hit": false,
      "t": 25578.90900000001,
      "d": 342.10475000000224,
      "v": 55
    },
    {
      "midi": 64,
      "hit": false,
      "t": 25578.90900000001,
      "d": 315.78900000000067,
      "v": 60
    },
    {
      "midi": 55,
      "hit": false,
      "t": 25894.698000000004,
      "d": 157.89449999999852,
      "v": 37
    },
    {
      "midi": 60,
      "hit": false,
      "t": 25894.698000000004,
      "d": 157.89449999999852,
      "v": 50
    },
    {
      "midi": 69,
      "hit": false,
      "t": 25894.69800000001,
      "d": 342.10475000000224,
      "v": 52
    },
    {
      "midi": 64,
      "hit": false,
      "t": 25894.69800000001,
      "d": 315.78900000000067,
      "v": 62
    },
    {
      "midi": 67,
      "hit": false,
      "t": 26210.487000000012,
      "d": 342.10475000000224,
      "v": 62
    },
    {
      "midi": 64,
      "hit": false,
      "t": 26210.487000000012,
      "d": 342.10475000000224,
      "v": 58
    },
    {
      "midi": 36,
      "hit": false,
      "t": 26526.275999999994,
      "d": 157.89449999999852,
      "v": 60
    },
    {
      "midi": 48,
      "hit": false,
      "t": 26526.275999999994,
      "d": 157.89449999999852,
      "v": 50
    },
    {
      "midi": 57,
      "hit": false,
      "t": 26526.276,
      "d": 131.57875000000058,
      "v": 43
    },
    {
      "midi": 66,
      "hit": false,
      "t": 26526.276000000013,
      "d": 342.10475000000224,
      "v": 67
    },
    {
      "midi": 63,
      "hit": false,
      "t": 26526.276000000013,
      "d": 342.10475000000224,
      "v": 61
    },
    {
      "midi": 55,
      "hit": false,
      "t": 26842.065000000002,
      "d": 157.89449999999852,
      "v": 35
    },
    {
      "midi": 60,
      "hit": false,
      "t": 26842.065000000002,
      "d": 157.89449999999852,
      "v": 47
    },
    {
      "midi": 67,
      "hit": false,
      "t": 26842.065000000013,
      "d": 315.78900000000067,
      "v": 70
    },
    {
      "midi": 64,
      "hit": false,
      "t": 26842.065000000013,
      "d": 315.78900000000067,
      "v": 64
    },
    {
      "midi": 30,
      "hit": false,
      "t": 27157.853999999992,
      "d": 631.5780000000013,
      "v": 55
    },
    {
      "midi": 42,
      "hit": false,
      "t": 27157.853999999992,
      "d": 631.5780000000013,
      "v": 42
    },
    {
      "midi": 71,
      "hit": false,
      "t": 27157.854000000014,
      "d": 1289.4717500000006,
      "v": 75
    },
    {
      "midi": 64,
      "hit": false,
      "t": 27157.854000000014,
      "d": 1263.155999999999,
      "v": 58
    },
    {
      "midi": 60,
      "hit": false,
      "t": 27157.854000000014,
      "d": 1289.4717500000006,
      "v": 70
    },
    {
      "midi": 48,
      "hit": false,
      "t": 27473.643,
      "d": 131.57875000000058,
      "v": 50
    },
    {
      "midi": 52,
      "hit": false,
      "t": 27789.432,
      "d": 105.26299999999901,
      "v": 43
    },
    {
      "midi": 57,
      "hit": false,
      "t": 28105.221,
      "d": 118.4208749999998,
      "v": 45
    },
    {
      "midi": 54,
      "hit": false,
      "t": 28421.009999999995,
      "d": 157.89449999999852,
      "v": 45
    },
    {
      "midi": 57,
      "hit": false,
      "t": 28421.010000000002,
      "d": 157.89449999999852,
      "v": 37
    },
    {
      "midi": 60,
      "hit": false,
      "t": 28421.010000000002,
      "d": 157.89449999999852,
      "v": 37
    },
    {
      "midi": 69,
      "hit": false,
      "t": 28421.010000000013,
      "d": 657.8937500000029,
      "v": 60
    },
    {
      "midi": 64,
      "hit": false,
      "t": 28421.010000000013,
      "d": 631.5780000000013,
      "v": 50
    },
    {
      "midi": 35,
      "hit": false,
      "t": 29052.587999999992,
      "d": 184.2102500000001,
      "v": 48
    },
    {
      "midi": 67,
      "hit": false,
      "t": 29052.588000000014,
      "d": 1289.4717500000042,
      "v": 50
    },
    {
      "midi": 63,
      "hit": false,
      "t": 29052.588000000014,
      "d": 1263.155999999999,
      "v": 40
    },
    {
      "midi": 59,
      "hit": false,
      "t": 29052.588000000014,
      "d": 1289.4717500000006,
      "v": 52
    },
    {
      "midi": 47,
      "hit": false,
      "t": 29368.377,
      "d": 131.57875000000058,
      "v": 45
    },
    {
      "midi": 57,
      "hit": false,
      "t": 29684.166,
      "d": 105.26299999999901,
      "v": 38
    },
    {
      "midi": 35,
      "hit": false,
      "t": 30315.74399999999,
      "d": 157.89449999999852,
      "v": 40
    },
    {
      "midi": 57,
      "hit": false,
      "t": 30315.744000000013,
      "d": 657.8937500000029,
      "v": 45
    },
    {
      "midi": 63,
      "hit": false,
      "t": 30315.744000000013,
      "d": 657.8937500000029,
      "v": 35
    },
    {
      "midi": 66,
      "hit": false,
      "t": 30315.744000000017,
      "d": 657.8937500000029,
      "v": 42
    },
    {
      "midi": 47,
      "hit": false,
      "t": 30631.533,
      "d": 157.89449999999852,
      "v": 40
    },
    {
      "midi": 40,
      "hit": false,
      "t": 30947.32199999999,
      "d": 1263.155999999999,
      "v": 42
    },
    {
      "midi": 55,
      "hit": false,
      "t": 30947.322000000015,
      "d": 1894.734000000004,
      "v": 38
    },
    {
      "midi": 64,
      "hit": false,
      "t": 30947.32200000002,
      "d": 1894.7340000000004,
      "v": 44
    },
    {
      "midi": 47,
      "hit": false,
      "t": 31263.110999999997,
      "d": 263.15750000000116,
      "v": 35
    },
    {
      "midi": 48,
      "hit": false,
      "t": 31578.899999999998,
      "d": 236.8417499999996,
      "v": 32
    },
    {
      "midi": 47,
      "hit": false,
      "t": 31894.689,
      "d": 210.52600000000166,
      "v": 34
    },
    {
      "midi": 40,
      "hit": false,
      "t": 32210.47799999999,
      "d": 631.5780000000013,
      "v": 35
    },
    {
      "midi": 46,
      "hit": false,
      "t": 32210.478,
      "d": 236.8417499999996,
      "v": 30
    },
    {
      "midi": 47,
      "hit": false,
      "t": 32526.267,
      "d": 289.47325000000274,
      "v": 25
    },
    {
      "midi": 40,
      "hit": false,
      "t": 32842.05599999999,
      "d": 184.21024999999645,
      "v": 50
    },
    {
      "midi": 52,
      "hit": false,
      "t": 33157.845,
      "d": 131.57875000000058,
      "v": 40
    },
    {
      "midi": 79,
      "hit": false,
      "t": 33157.845000000016,
      "d": 315.78899999999703,
      "v": 40
    },
    {
      "midi": 83,
      "hit": false,
      "t": 33157.845000000016,
      "d": 342.1047499999986,
      "v": 50
    },
    {
      "midi": 76,
      "hit": false,
      "t": 33157.845000000016,
      "d": 315.78899999999703,
      "v": 45
    },
    {
      "midi": 55,
      "hit": false,
      "t": 33473.634,
      "d": 157.89450000000215,
      "v": 25
    },
    {
      "midi": 64,
      "hit": false,
      "t": 33473.634,
      "d": 157.89450000000215,
      "v": 38
    },
    {
      "midi": 79,
      "hit": false,
      "t": 33473.63400000001,
      "d": 315.7890000000043,
      "v": 42
    },
    {
      "midi": 84,
      "hit": false,
      "t": 33473.63400000001,
      "d": 342.1047500000059,
      "v": 55
    },
    {
      "midi": 76,
      "hit": false,
      "t": 33473.63400000001,
      "d": 315.78899999999703,
      "v": 47
    },
    {
      "midi": 76,
      "hit": false,
      "t": 33789.42300000001,
      "d": 315.78899999999703,
      "v": 43
    },
    {
      "midi": 79,
      "hit": false,
      "t": 33789.42300000002,
      "d": 315.7890000000043,
      "v": 38
    },
    {
      "midi": 83,
      "hit": false,
      "t": 33789.42300000002,
      "d": 342.1047500000059,
      "v": 52
    },
    {
      "midi": 52,
      "hit": false,
      "t": 34105.211999999985,
      "d": 157.89450000000215,
      "v": 40
    },
    {
      "midi": 76,
      "hit": false,
      "t": 34105.21200000001,
      "d": 315.78899999999703,
      "v": 46
    },
    {
      "midi": 79,
      "hit": false,
      "t": 34105.21200000002,
      "d": 315.7890000000043,
      "v": 41
    },
    {
      "midi": 82,
      "hit": false,
      "t": 34105.21200000002,
      "d": 342.1047500000059,
      "v": 57
    },
    {
      "midi": 76,
      "hit": false,
      "t": 34421.001000000004,
      "d": 315.78899999999703,
      "v": 49
    },
    {
      "midi": 55,
      "hit": false,
      "t": 34421.001000000004,
      "d": 131.57875000000058,
      "v": 38
    },
    {
      "midi": 64,
      "hit": false,
      "t": 34421.001000000004,
      "d": 131.57875000000058,
      "v": 45
    },
    {
      "midi": 79,
      "hit": false,
      "t": 34421.001000000026,
      "d": 315.7890000000043,
      "v": 44
    },
    {
      "midi": 83,
      "hit": false,
      "t": 34421.001000000026,
      "d": 315.7890000000043,
      "v": 63
    },
    {
      "midi": 42,
      "hit": false,
      "t": 34736.789999999986,
      "d": 184.21024999999645,
      "v": 55
    },
    {
      "midi": 75,
      "hit": false,
      "t": 34736.79,
      "d": 1263.1560000000027,
      "v": 52
    },
    {
      "midi": 81,
      "hit": false,
      "t": 34736.79000000003,
      "d": 1263.1560000000027,
      "v": 47
    },
    {
      "midi": 84,
      "hit": false,
      "t": 34736.79000000003,
      "d": 1289.4717500000042,
      "v": 70
    },
    {
      "midi": 54,
      "hit": false,
      "t": 35052.57899999998,
      "d": 131.57875000000058,
      "v": 50
    },
    {
      "midi": 57,
      "hit": false,
      "t": 35052.579000000005,
      "d": 131.57875000000058,
      "v": 40
    },
    {
      "midi": 63,
      "hit": false,
      "t": 35368.368,
      "d": 105.26299999999901,
      "v": 38
    },
    {
      "midi": 66,
      "hit": false,
      "t": 35684.157,
      "d": 118.42087500000343,
      "v": 45
    },
    {
      "midi": 54,
      "hit": false,
      "t": 35999.94599999998,
      "d": 157.89450000000215,
      "v": 45
    },
    {
      "midi": 57,
      "hit": false,
      "t": 35999.94599999998,
      "d": 157.89450000000215,
      "v": 30
    },
    {
      "midi": 75,
      "hit": false,
      "t": 35999.946,
      "d": 631.5780000000013,
      "v": 47
    },
    {
      "midi": 63,
      "hit": false,
      "t": 35999.946,
      "d": 157.89450000000215,
      "v": 28
    },
    {
      "midi": 69,
      "hit": false,
      "t": 35999.946,
      "d": 157.89450000000215,
      "v": 48
    },
    {
      "midi": 81,
      "hit": false,
      "t": 35999.94600000003,
      "d": 631.5780000000013,
      "v": 42
    },
    {
      "midi": 83,
      "hit": false,
      "t": 35999.94600000003,
      "d": 631.5780000000013,
      "v": 60
    },
    {
      "midi": 43,
      "hit": false,
      "t": 36631.52399999998,
      "d": 184.21024999999645,
      "v": 60
    },
    {
      "midi": 71,
      "hit": false,
      "t": 36631.524000000005,
      "d": 1263.1560000000027,
      "v": 49
    },
    {
      "midi": 76,
      "hit": false,
      "t": 36631.524000000034,
      "d": 947.3669999999984,
      "v": 44
    },
    {
      "midi": 81,
      "hit": false,
      "t": 36631.524000000034,
      "d": 947.3669999999984,
      "v": 65
    },
    {
      "midi": 59,
      "hit": false,
      "t": 36947.31300000001,
      "d": 131.57875000000058,
      "v": 50
    },
    {
      "midi": 64,
      "hit": false,
      "t": 37263.102000000006,
      "d": 157.89450000000215,
      "v": 35
    },
    {
      "midi": 67,
      "hit": false,
      "t": 37263.102000000006,
      "d": 157.89450000000215,
      "v": 48
    },
    {
      "midi": 76,
      "hit": false,
      "t": 37578.89100000003,
      "d": 315.78899999999703,
      "v": 41
    },
    {
      "midi": 79,
      "hit": false,
      "t": 37578.89100000003,
      "d": 342.1047499999986,
      "v": 60
    },
    {
      "midi": 55,
      "hit": false,
      "t": 37894.67999999998,
      "d": 157.89450000000215,
      "v": 52
    },
    {
      "midi": 71,
      "hit": false,
      "t": 37894.68000000001,
      "d": 631.5780000000013,
      "v": 45
    },
    {
      "midi": 76,
      "hit": false,
      "t": 37894.68000000003,
      "d": 315.7890000000043,
      "v": 38
    },
    {
      "midi": 78,
      "hit": false,
      "t": 37894.68000000003,
      "d": 342.1047500000059,
      "v": 53
    },
    {
      "midi": 59,
      "hit": false,
      "t": 38210.46900000001,
      "d": 131.57875000000058,
      "v": 35
    },
    {
      "midi": 64,
      "hit": false,
      "t": 38210.46900000001,
      "d": 131.57875000000058,
      "v": 42
    },
    {
      "midi": 76,
      "hit": false,
      "t": 38210.469000000034,
      "d": 315.7890000000043,
      "v": 55
    },
    {
      "midi": 45,
      "hit": false,
      "t": 38526.25799999998,
      "d": 184.21024999999645,
      "v": 55
    },
    {
      "midi": 72,
      "hit": false,
      "t": 38526.25800000001,
      "d": 1894.7339999999967,
      "v": 40
    },
    {
      "midi": 76,
      "hit": false,
      "t": 38526.25800000004,
      "d": 1894.7339999999967,
      "v": 35
    },
    {
      "midi": 78,
      "hit": false,
      "t": 38526.25800000004,
      "d": 1894.7339999999967,
      "v": 50
    },
    {
      "midi": 52,
      "hit": false,
      "t": 38842.04699999998,
      "d": 131.57875000000058,
      "v": 50
    },
    {
      "midi": 57,
      "hit": false,
      "t": 38842.04700000001,
      "d": 131.57875000000058,
      "v": 45
    },
    {
      "midi": 60,
      "hit": false,
      "t": 39157.83600000001,
      "d": 105.26299999999901,
      "v": 38
    },
    {
      "midi": 64,
      "hit": false,
      "t": 39473.62500000001,
      "d": 118.42087500000343,
      "v": 40
    },
    {
      "midi": 57,
      "hit": false,
      "t": 39789.413999999975,
      "d": 157.89450000000215,
      "v": 41
    },
    {
      "midi": 60,
      "hit": false,
      "t": 39789.413999999975,
      "d": 157.89450000000215,
      "v": 48
    },
    {
      "midi": 64,
      "hit": false,
      "t": 39789.41400000001,
      "d": 157.89450000000215,
      "v": 28
    },
    {
      "midi": 66,
      "hit": false,
      "t": 39789.41400000001,
      "d": 157.89450000000215,
      "v": 35
    },
    {
      "midi": 46,
      "hit": false,
      "t": 40420.99199999998,
      "d": 184.21024999999645,
      "v": 50
    },
    {
      "midi": 73,
      "hit": false,
      "t": 40420.992000000006,
      "d": 1263.1560000000027,
      "v": 45
    },
    {
      "midi": 58,
      "hit": false,
      "t": 40736.78100000002,
      "d": 131.57875000000058,
      "v": 28
    },
    {
      "midi": 61,
      "hit": false,
      "t": 40736.78100000002,
      "d": 131.57875000000058,
      "v": 40
    },
    {
      "midi": 76,
      "hit": false,
      "t": 40736.78100000003,
      "d": 315.78899999999703,
      "v": 40
    },
    {
      "midi": 78,
      "hit": false,
      "t": 40736.78100000003,
      "d": 342.1047499999986,
      "v": 50
    },
    {
      "midi": 61,
      "hit": false,
      "t": 41052.570000000014,
      "d": 157.89450000000215,
      "v": 25
    },
    {
      "midi": 64,
      "hit": false,
      "t": 41052.570000000014,
      "d": 157.89450000000215,
      "v": 38
    },
    {
      "midi": 76,
      "hit": false,
      "t": 41052.57000000003,
      "d": 315.7890000000043,
      "v": 42
    },
    {
      "midi": 79,
      "hit": false,
      "t": 41052.57000000003,
      "d": 342.1047500000059,
      "v": 55
    },
    {
      "midi": 76,
      "hit": false,
      "t": 41368.35900000003,
      "d": 315.7890000000043,
      "v": 38
    },
    {
      "midi": 78,
      "hit": false,
      "t": 41368.35900000003,
      "d": 342.1047500000059,
      "v": 52
    },
    {
      "midi": 58,
      "hit": false,
      "t": 41684.14799999997,
      "d": 157.89450000000215,
      "v": 48
    },
    {
      "midi": 73,
      "hit": false,
      "t": 41684.14800000001,
      "d": 631.5780000000013,
      "v": 48
    },
    {
      "midi": 76,
      "hit": false,
      "t": 41684.14800000004,
      "d": 315.7890000000043,
      "v": 41
    },
    {
      "midi": 77,
      "hit": false,
      "t": 41684.14800000004,
      "d": 342.1047500000059,
      "v": 57
    },
    {
      "midi": 61,
      "hit": false,
      "t": 41999.93700000002,
      "d": 131.57875000000058,
      "v": 38
    },
    {
      "midi": 64,
      "hit": false,
      "t": 41999.93700000002,
      "d": 131.57875000000058,
      "v": 45
    },
    {
      "midi": 76,
      "hit": false,
      "t": 41999.93700000004,
      "d": 315.7890000000043,
      "v": 44
    },
    {
      "midi": 78,
      "hit": false,
      "t": 41999.93700000004,
      "d": 315.7890000000043,
      "v": 63
    },
    {
      "midi": 47,
      "hit": false,
      "t": 42315.72599999997,
      "d": 184.21024999999645,
      "v": 60
    },
    {
      "midi": 71,
      "hit": false,
      "t": 42315.72600000001,
      "d": 1263.1560000000027,
      "v": 55
    },
    {
      "midi": 81,
      "hit": false,
      "t": 42315.726000000046,
      "d": 1289.4717500000042,
      "v": 70
    },
    {
      "midi": 76,
      "hit": false,
      "t": 42315.726000000046,
      "d": 1894.734000000004,
      "v": 47
    },
    {
      "midi": 52,
      "hit": false,
      "t": 42631.51500000002,
      "d": 131.57875000000058,
      "v": 55
    },
    {
      "midi": 55,
      "hit": false,
      "t": 42947.30400000002,
      "d": 105.26299999999901,
      "v": 48
    },
    {
      "midi": 59,
      "hit": false,
      "t": 43263.093000000015,
      "d": 118.42087500000343,
      "v": 50
    },
    {
      "midi": 59,
      "hit": false,
      "t": 43578.88199999997,
      "d": 157.89450000000215,
      "v": 42
    },
    {
      "midi": 71,
      "hit": false,
      "t": 43578.88200000001,
      "d": 631.5780000000013,
      "v": 50
    },
    {
      "midi": 64,
      "hit": false,
      "t": 43578.88200000002,
      "d": 157.89450000000215,
      "v": 42
    },
    {
      "midi": 79,
      "hit": false,
      "t": 43578.88200000005,
      "d": 631.5780000000013,
      "v": 60
    },
    {
      "midi": 35,
      "hit": false,
      "t": 44210.45999999997,
      "d": 631.5780000000013,
      "v": 40
    },
    {
      "midi": 47,
      "hit": false,
      "t": 44210.45999999997,
      "d": 631.5780000000013,
      "v": 28
    },
    {
      "midi": 69,
      "hit": false,
      "t": 44210.460000000014,
      "d": 1263.1560000000027,
      "v": 52
    },
    {
      "midi": 75,
      "hit": false,
      "t": 44210.46000000005,
      "d": 947.3669999999984,
      "v": 44
    },
    {
      "midi": 79,
      "hit": false,
      "t": 44210.46000000005,
      "d": 947.3669999999984,
      "v": 65
    },
    {
      "midi": 57,
      "hit": false,
      "t": 44526.249000000025,
      "d": 131.57875000000058,
      "v": 40
    },
    {
      "midi": 59,
      "hit": false,
      "t": 44842.03800000002,
      "d": 157.89450000000215,
      "v": 25
    },
    {
      "midi": 63,
      "hit": false,
      "t": 44842.03800000002,
      "d": 157.89450000000215,
      "v": 38
    },
    {
      "midi": 78,
      "hit": false,
      "t": 45157.82700000005,
      "d": 342.1047499999986,
      "v": 53
    },
    {
      "midi": 35,
      "hit": false,
      "t": 45473.61599999997,
      "d": 157.89450000000215,
      "v": 32
    },
    {
      "midi": 47,
      "hit": false,
      "t": 45473.61599999997,
      "d": 157.89450000000215,
      "v": 20
    },
    {
      "midi": 66,
      "hit": false,
      "t": 45473.616000000016,
      "d": 657.8937500000029,
      "v": 38
    },
    {
      "midi": 69,
      "hit": false,
      "t": 45473.616000000016,
      "d": 657.8937500000029,
      "v": 45
    },
    {
      "midi": 76,
      "hit": false,
      "t": 45473.616000000045,
      "d": 342.1047500000059,
      "v": 55
    },
    {
      "midi": 59,
      "hit": false,
      "t": 45789.40500000003,
      "d": 131.57875000000058,
      "v": 32
    },
    {
      "midi": 75,
      "hit": false,
      "t": 45789.40500000005,
      "d": 315.7890000000043,
      "v": 48
    },
    {
      "midi": 36,
      "hit": false,
      "t": 46105.193999999974,
      "d": 184.21024999999645,
      "v": 35
    },
    {
      "midi": 64,
      "hit": false,
      "t": 46105.19400000002,
      "d": 1263.1560000000027,
      "v": 30
    },
    {
      "midi": 67,
      "hit": false,
      "t": 46105.19400000002,
      "d": 1263.1560000000027,
      "v": 40
    },
    {
      "midi": 76,
      "hit": false,
      "t": 46105.194000000054,
      "d": 1578.9449999999997,
      "v": 45
    },
    {
      "midi": 48,
      "hit": false,
      "t": 46420.98299999997,
      "d": 131.57875000000058,
      "v": 30
    },
    {
      "midi": 52,
      "hit": false,
      "t": 46420.98300000003,
      "d": 131.57875000000058,
      "v": 35
    },
    {
      "midi": 55,
      "hit": false,
      "t": 46736.772000000026,
      "d": 105.26299999999901,
      "v": 28
    },
    {
      "midi": 60,
      "hit": false,
      "t": 47052.56100000002,
      "d": 118.42087500000343,
      "v": 30
    },
    {
      "midi": 48,
      "hit": false,
      "t": 47368.34999999997,
      "d": 157.89450000000215,
      "v": 25
    },
    {
      "midi": 55,
      "hit": false,
      "t": 47368.35000000003,
      "d": 157.89450000000215,
      "v": 18
    },
    {
      "midi": 64,
      "hit": false,
      "t": 47368.35000000003,
      "d": 157.89450000000215,
      "v": 25
    },
    {
      "midi": 31,
      "hit": false,
      "t": 47999.92799999997,
      "d": 631.5780000000013,
      "v": 50
    },
    {
      "midi": 43,
      "hit": false,
      "t": 47999.92799999997,
      "d": 631.5780000000013,
      "v": 32
    },
    {
      "midi": 71,
      "hit": false,
      "t": 48315.71700000002,
      "d": 342.1047499999986,
      "v": 50
    },
    {
      "midi": 52,
      "hit": false,
      "t": 48315.71700000003,
      "d": 131.57875000000058,
      "v": 40
    },
    {
      "midi": 76,
      "hit": false,
      "t": 48315.717000000055,
      "d": 315.78899999999703,
      "v": 35
    },
    {
      "midi": 72,
      "hit": false,
      "t": 48631.506000000016,
      "d": 342.1047500000059,
      "v": 55
    },
    {
      "midi": 55,
      "hit": false,
      "t": 48631.50600000003,
      "d": 157.89450000000215,
      "v": 25
    },
    {
      "midi": 64,
      "hit": false,
      "t": 48631.50600000003,
      "d": 157.89450000000215,
      "v": 38
    },
    {
      "midi": 76,
      "hit": false,
      "t": 48631.50600000005,
      "d": 315.78899999999703,
      "v": 37
    },
    {
      "midi": 71,
      "hit": false,
      "t": 48947.29500000002,
      "d": 342.1047500000059,
      "v": 58
    },
    {
      "midi": 76,
      "hit": false,
      "t": 48947.29500000005,
      "d": 315.78899999999703,
      "v": 33
    },
    {
      "midi": 31,
      "hit": false,
      "t": 49263.08399999997,
      "d": 157.89450000000215,
      "v": 45
    },
    {
      "midi": 70,
      "hit": false,
      "t": 49263.084000000024,
      "d": 342.1047500000059,
      "v": 66
    },
    {
      "midi": 76,
      "hit": false,
      "t": 49263.084000000046,
      "d": 315.78899999999703,
      "v": 40
    },
    {
      "midi": 43,
      "hit": false,
      "t": 49578.87299999998,
      "d": 131.57875000000058,
      "v": 52
    },
    {
      "midi": 71,
      "hit": false,
      "t": 49578.87300000003,
      "d": 342.1047500000059,
      "v": 70
    },
    {
      "midi": 55,
      "hit": false,
      "t": 49578.873000000036,
      "d": 131.57875000000058,
      "v": 38
    },
    {
      "midi": 64,
      "hit": false,
      "t": 49578.873000000036,
      "d": 131.57875000000058,
      "v": 45
    },
    {
      "midi": 76,
      "hit": false,
      "t": 49578.87300000004,
      "d": 315.78899999999703,
      "v": 45
    },
    {
      "midi": 33,
      "hit": false,
      "t": 49894.661999999975,
      "d": 631.5780000000013,
      "v": 60
    },
    {
      "midi": 45,
      "hit": false,
      "t": 49894.661999999975,
      "d": 631.5780000000013,
      "v": 48
    },
    {
      "midi": 74,
      "hit": false,
      "t": 49894.66200000003,
      "d": 1289.4717500000042,
      "v": 78
    },
    {
      "midi": 76,
      "hit": false,
      "t": 49894.66200000004,
      "d": 1894.7339999999967,
      "v": 55
    },
    {
      "midi": 52,
      "hit": false,
      "t": 50210.45100000004,
      "d": 131.57875000000058,
      "v": 45
    },
    {
      "midi": 55,
      "hit": false,
      "t": 50526.240000000034,
      "d": 157.89450000000215,
      "v": 30
    },
    {
      "midi": 64,
      "hit": false,
      "t": 50526.240000000034,
      "d": 157.89450000000215,
      "v": 43
    },
    {
      "midi": 33,
      "hit": false,
      "t": 51157.81799999998,
      "d": 157.89450000000215,
      "v": 58
    },
    {
      "midi": 73,
      "hit": false,
      "t": 51157.818000000036,
      "d": 657.8937500000029,
      "v": 65
    },
    {
      "midi": 45,
      "hit": false,
      "t": 51473.60699999998,
      "d": 131.57875000000058,
      "v": 65
    },
    {
      "midi": 55,
      "hit": false,
      "t": 51473.60700000004,
      "d": 131.57875000000058,
      "v": 43
    },
    {
      "midi": 64,
      "hit": false,
      "t": 51473.60700000004,
      "d": 131.57875000000058,
      "v": 50
    },
    {
      "midi": 34,
      "hit": false,
      "t": 51789.39599999998,
      "d": 631.5780000000013,
      "v": 70
    },
    {
      "midi": 46,
      "hit": false,
      "t": 51789.39599999998,
      "d": 631.5780000000013,
      "v": 60
    },
    {
      "midi": 76,
      "hit": false,
      "t": 51789.39600000004,
      "d": 1894.7339999999967,
      "v": 52
    },
    {
      "midi": 67,
      "hit": false,
      "t": 51789.39600000004,
      "d": 947.3669999999984,
      "v": 48
    },
    {
      "midi": 72,
      "hit": false,
      "t": 51789.39600000004,
      "d": 973.6827499999999,
      "v": 70
    },
    {
      "midi": 52,
      "hit": false,
      "t": 52105.18500000004,
      "d": 131.57875000000058,
      "v": 55
    },
    {
      "midi": 55,
      "hit": false,
      "t": 52420.97400000004,
      "d": 157.89450000000215,
      "v": 32
    },
    {
      "midi": 60,
      "hit": false,
      "t": 52420.97400000004,
      "d": 157.89450000000215,
      "v": 40
    },
    {
      "midi": 64,
      "hit": false,
      "t": 52420.97400000004,
      "d": 157.89450000000215,
      "v": 50
    },
    {
      "midi": 67,
      "hit": false,
      "t": 52736.763000000035,
      "d": 342.1047500000059,
      "v": 75
    },
    {
      "midi": 34,
      "hit": false,
      "t": 53052.55199999998,
      "d": 157.89450000000215,
      "v": 68
    },
    {
      "midi": 66,
      "hit": false,
      "t": 53052.55200000004,
      "d": 342.1047500000059,
      "v": 84
    },
    {
      "midi": 46,
      "hit": false,
      "t": 53368.340999999986,
      "d": 131.57875000000058,
      "v": 74
    },
    {
      "midi": 64,
      "hit": false,
      "t": 53368.341000000044,
      "d": 315.7890000000043,
      "v": 80
    },
    {
      "midi": 55,
      "hit": false,
      "t": 53368.341000000044,
      "d": 131.57875000000058,
      "v": 40
    },
    {
      "midi": 60,
      "hit": false,
      "t": 53368.341000000044,
      "d": 131.57875000000058,
      "v": 48
    },
    {
      "midi": 64,
      "hit": false,
      "t": 53368.341000000044,
      "d": 131.57875000000058,
      "v": 60
    },
    {
      "midi": 35,
      "hit": false,
      "t": 53684.12999999998,
      "d": 184.21024999999645,
      "v": 80
    },
    {
      "midi": 47,
      "hit": false,
      "t": 53684.12999999998,
      "d": 184.21024999999645,
      "v": 65
    },
    {
      "midi": 71,
      "hit": false,
      "t": 53684.130000000034,
      "d": 1894.7339999999967,
      "v": 82
    },
    {
      "midi": 67,
      "hit": false,
      "t": 53684.13000000005,
      "d": 1289.4717500000042,
      "v": 65
    },
    {
      "midi": 63,
      "hit": false,
      "t": 53684.13000000005,
      "d": 1894.734000000004,
      "v": 35
    },
    {
      "midi": 57,
      "hit": false,
      "t": 53999.919000000045,
      "d": 131.57875000000058,
      "v": 65
    },
    {
      "midi": 57,
      "hit": false,
      "t": 54315.70800000004,
      "d": 157.89450000000215,
      "v": 47
    },
    {
      "midi": 59,
      "hit": false,
      "t": 54315.70800000004,
      "d": 157.89450000000215,
      "v": 58
    },
    {
      "midi": 35,
      "hit": false,
      "t": 54947.28599999998,
      "d": 157.89450000000215,
      "v": 75
    },
    {
      "midi": 66,
      "hit": false,
      "t": 54947.28600000005,
      "d": 631.5780000000013,
      "v": 58
    },
    {
      "midi": 47,
      "hit": false,
      "t": 55263.07499999998,
      "d": 131.57875000000058,
      "v": 68
    },
    {
      "midi": 57,
      "hit": false,
      "t": 55263.07500000005,
      "d": 157.89450000000215,
      "v": 33
    },
    {
      "midi": 59,
      "hit": false,
      "t": 55263.07500000005,
      "d": 157.89450000000215,
      "v": 53
    },
    {
      "midi": 36,
      "hit": false,
      "t": 55578.86399999998,
      "d": 184.21024999999645,
      "v": 70
    },
    {
      "midi": 48,
      "hit": false,
      "t": 55578.86399999998,
      "d": 184.21024999999645,
      "v": 58
    },
    {
      "midi": 67,
      "hit": false,
      "t": 55894.65300000003,
      "d": 342.1047499999986,
      "v": 55
    },
    {
      "midi": 64,
      "hit": false,
      "t": 55894.65300000005,
      "d": 315.78899999999703,
      "v": 60
    },
    {
      "midi": 52,
      "hit": false,
      "t": 55894.65300000005,
      "d": 131.57875000000058,
      "v": 55
    },
    {
      "midi": 69,
      "hit": false,
      "t": 56210.442000000025,
      "d": 342.1047500000059,
      "v": 52
    },
    {
      "midi": 64,
      "hit": false,
      "t": 56210.44200000005,
      "d": 315.78899999999703,
      "v": 62
    },
    {
      "midi": 55,
      "hit": false,
      "t": 56210.44200000005,
      "d": 157.89450000000215,
      "v": 37
    },
    {
      "midi": 60,
      "hit": false,
      "t": 56210.44200000005,
      "d": 157.89450000000215,
      "v": 50
    },
    {
      "midi": 67,
      "hit": false,
      "t": 56526.23100000003,
      "d": 342.1047500000059,
      "v": 62
    },
    {
      "midi": 64,
      "hit": false,
      "t": 56526.23100000004,
      "d": 342.1047499999986,
      "v": 58
    },
    {
      "midi": 36,
      "hit": false,
      "t": 56842.019999999975,
      "d": 157.89450000000215,
      "v": 60
    },
    {
      "midi": 48,
      "hit": false,
      "t": 56842.019999999975,
      "d": 157.89450000000215,
      "v": 50
    },
    {
      "midi": 66,
      "hit": false,
      "t": 56842.02000000003,
      "d": 342.1047500000059,
      "v": 67
    },
    {
      "midi": 63,
      "hit": false,
      "t": 56842.02000000004,
      "d": 342.1047500000059,
      "v": 61
    },
    {
      "midi": 57,
      "hit": false,
      "t": 56842.02000000005,
      "d": 131.57875000000058,
      "v": 43
    },
    {
      "midi": 67,
      "hit": false,
      "t": 57157.80900000004,
      "d": 315.7890000000043,
      "v": 70
    },
    {
      "midi": 64,
      "hit": false,
      "t": 57157.809000000045,
      "d": 315.7890000000043,
      "v": 64
    },
    {
      "midi": 55,
      "hit": false,
      "t": 57157.809000000045,
      "d": 157.89450000000215,
      "v": 35
    },
    {
      "midi": 60,
      "hit": false,
      "t": 57157.809000000045,
      "d": 157.89450000000215,
      "v": 47
    },
    {
      "midi": 30,
      "hit": false,
      "t": 57473.597999999976,
      "d": 631.5780000000013,
      "v": 55
    },
    {
      "midi": 42,
      "hit": false,
      "t": 57473.597999999976,
      "d": 631.5780000000013,
      "v": 42
    },
    {
      "midi": 71,
      "hit": false,
      "t": 57473.59800000004,
      "d": 1289.4717500000042,
      "v": 75
    },
    {
      "midi": 64,
      "hit": false,
      "t": 57473.59800000005,
      "d": 1263.1560000000027,
      "v": 58
    },
    {
      "midi": 60,
      "hit": false,
      "t": 57473.59800000005,
      "d": 1289.4717500000042,
      "v": 70
    },
    {
      "midi": 48,
      "hit": false,
      "t": 57789.387000000046,
      "d": 131.57875000000058,
      "v": 50
    },
    {
      "midi": 52,
      "hit": false,
      "t": 58105.17600000004,
      "d": 105.26299999999901,
      "v": 43
    },
    {
      "midi": 57,
      "hit": false,
      "t": 58420.96500000004,
      "d": 118.42087500000343,
      "v": 45
    },
    {
      "midi": 54,
      "hit": false,
      "t": 58736.75399999998,
      "d": 157.89450000000215,
      "v": 45
    },
    {
      "midi": 69,
      "hit": false,
      "t": 58736.754000000044,
      "d": 657.8937500000029,
      "v": 60
    },
    {
      "midi": 57,
      "hit": false,
      "t": 58736.754000000044,
      "d": 157.89450000000215,
      "v": 37
    },
    {
      "midi": 60,
      "hit": false,
      "t": 58736.754000000044,
      "d": 157.89450000000215,
      "v": 37
    },
    {
      "midi": 64,
      "hit": false,
      "t": 58736.75400000005,
      "d": 631.5780000000013,
      "v": 50
    },
    {
      "midi": 35,
      "hit": false,
      "t": 59368.33199999998,
      "d": 184.21024999999645,
      "v": 48
    },
    {
      "midi": 67,
      "hit": false,
      "t": 59368.332000000046,
      "d": 1289.4717500000042,
      "v": 50
    },
    {
      "midi": 63,
      "hit": false,
      "t": 59368.33200000005,
      "d": 1263.1560000000027,
      "v": 40
    },
    {
      "midi": 59,
      "hit": false,
      "t": 59368.33200000005,
      "d": 1289.4717500000042,
      "v": 52
    },
    {
      "midi": 47,
      "hit": false,
      "t": 59684.12100000005,
      "d": 131.57875000000058,
      "v": 45
    },
    {
      "midi": 57,
      "hit": false,
      "t": 59999.91000000005,
      "d": 105.26299999999901,
      "v": 38
    },
    {
      "midi": 35,
      "hit": false,
      "t": 60631.487999999976,
      "d": 157.89450000000215,
      "v": 40
    },
    {
      "midi": 66,
      "hit": false,
      "t": 60631.48800000005,
      "d": 657.8937500000029,
      "v": 42
    },
    {
      "midi": 57,
      "hit": false,
      "t": 60631.488000000056,
      "d": 657.8937500000029,
      "v": 45
    },
    {
      "midi": 63,
      "hit": false,
      "t": 60631.488000000056,
      "d": 657.8937500000029,
      "v": 35
    },
    {
      "midi": 47,
      "hit": false,
      "t": 60947.277000000046,
      "d": 157.89450000000215,
      "v": 40
    },
    {
      "midi": 40,
      "hit": false,
      "t": 61263.06599999998,
      "d": 1263.1560000000027,
      "v": 42
    },
    {
      "midi": 64,
      "hit": false,
      "t": 61263.06600000005,
      "d": 1894.734000000004,
      "v": 44
    },
    {
      "midi": 55,
      "hit": false,
      "t": 61263.06600000006,
      "d": 1894.734000000004,
      "v": 38
    },
    {
      "midi": 47,
      "hit": false,
      "t": 61578.85500000005,
      "d": 263.15750000000116,
      "v": 35
    },
    {
      "midi": 48,
      "hit": false,
      "t": 61894.64400000005,
      "d": 236.8417499999996,
      "v": 33
    },
    {
      "midi": 47,
      "hit": false,
      "t": 62210.43300000005,
      "d": 210.52599999999802,
      "v": 38
    },
    {
      "midi": 40,
      "hit": false,
      "t": 62526.22199999998,
      "d": 631.5780000000013,
      "v": 35
    },
    {
      "midi": 46,
      "hit": false,
      "t": 62526.222000000045,
      "d": 236.8417499999996,
      "v": 42
    },
    {
      "midi": 47,
      "hit": false,
      "t": 62842.01100000004,
      "d": 289.47325000000274,
      "v": 45
    },
    {
      "midi": 32,
      "hit": false,
      "t": 63157.79999999998,
      "d": 631.5780000000013,
      "v": 70
    },
    {
      "midi": 44,
      "hit": false,
      "t": 63157.79999999998,
      "d": 631.5780000000013,
      "v": 55
    },
    {
      "midi": 52,
      "hit": false,
      "t": 63473.58900000004,
      "d": 131.57875000000058,
      "v": 50
    },
    {
      "midi": 83,
      "hit": false,
      "t": 63473.58900000005,
      "d": 315.78899999999703,
      "v": 55
    },
    {
      "midi": 88,
      "hit": false,
      "t": 63473.58900000005,
      "d": 342.1047499999986,
      "v": 65
    },
    {
      "midi": 76,
      "hit": false,
      "t": 63473.58900000006,
      "d": 342.1047499999986,
      "v": 70
    },
    {
      "midi": 52,
      "hit": false,
      "t": 63789.37800000004,
      "d": 157.89450000000215,
      "v": 35
    },
    {
      "midi": 56,
      "hit": false,
      "t": 63789.37800000004,
      "d": 157.89450000000215,
      "v": 40
    },
    {
      "midi": 59,
      "hit": false,
      "t": 63789.37800000004,
      "d": 157.89450000000215,
      "v": 28
    },
    {
      "midi": 62,
      "hit": false,
      "t": 63789.37800000004,
      "d": 157.89450000000215,
      "v": 48
    },
    {
      "midi": 83,
      "hit": false,
      "t": 63789.37800000005,
      "d": 315.7890000000043,
      "v": 57
    },
    {
      "midi": 89,
      "hit": false,
      "t": 63789.37800000005,
      "d": 342.1047500000059,
      "v": 70
    },
    {
      "midi": 77,
      "hit": false,
      "t": 63789.378000000055,
      "d": 342.1047500000059,
      "v": 75
    },
    {
      "midi": 83,
      "hit": false,
      "t": 64105.16700000005,
      "d": 315.7890000000043,
      "v": 53
    },
    {
      "midi": 88,
      "hit": false,
      "t": 64105.16700000005,
      "d": 342.1047500000059,
      "v": 67
    },
    {
      "midi": 76,
      "hit": false,
      "t": 64105.16700000006,
      "d": 342.1047500000059,
      "v": 72
    },
    {
      "midi": 44,
      "hit": false,
      "t": 64420.955999999984,
      "d": 157.89450000000215,
      "v": 78
    },
    {
      "midi": 83,
      "hit": false,
      "t": 64420.95600000006,
      "d": 315.7890000000043,
      "v": 56
    },
    {
      "midi": 87,
      "hit": false,
      "t": 64420.95600000006,
      "d": 342.1047500000059,
      "v": 72
    },
    {
      "midi": 75,
      "hit": false,
      "t": 64420.956000000064,
      "d": 342.1047500000059,
      "v": 77
    },
    {
      "midi": 52,
      "hit": false,
      "t": 64736.745000000046,
      "d": 131.57875000000058,
      "v": 48
    },
    {
      "midi": 56,
      "hit": false,
      "t": 64736.745000000046,
      "d": 131.57875000000058,
      "v": 50
    },
    {
      "midi": 59,
      "hit": false,
      "t": 64736.745000000046,
      "d": 131.57875000000058,
      "v": 40
    },
    {
      "midi": 62,
      "hit": false,
      "t": 64736.745000000046,
      "d": 131.57875000000058,
      "v": 55
    },
    {
      "midi": 83,
      "hit": false,
      "t": 64736.74500000006,
      "d": 315.7890000000043,
      "v": 59
    },
    {
      "midi": 88,
      "hit": false,
      "t": 64736.74500000006,
      "d": 315.7890000000043,
      "v": 78
    },
    {
      "midi": 76,
      "hit": false,
      "t": 64736.74500000007,
      "d": 315.7890000000043,
      "v": 83
    },
    {
      "midi": 33,
      "hit": false,
      "t": 65052.533999999985,
      "d": 184.21024999999645,
      "v": 82
    },
    {
      "midi": 45,
      "hit": false,
      "t": 65052.533999999985,
      "d": 184.21024999999645,
      "v": 60
    },
    {
      "midi": 84,
      "hit": false,
      "t": 65052.534000000065,
      "d": 1263.1559999999954,
      "v": 55
    },
    {
      "midi": 89,
      "hit": false,
      "t": 65052.534000000065,
      "d": 1289.4717499999897,
      "v": 83
    },
    {
      "midi": 69,
      "hit": false,
      "t": 65052.53400000007,
      "d": 1263.1560000000027,
      "v": 65
    },
    {
      "midi": 72,
      "hit": false,
      "t": 65052.53400000007,
      "d": 1263.1560000000027,
      "v": 52
    },
    {
      "midi": 77,
      "hit": false,
      "t": 65052.53400000007,
      "d": 1289.471749999997,
      "v": 88
    },
    {
      "midi": 45,
      "hit": false,
      "t": 65368.32299999998,
      "d": 131.57875000000058,
      "v": 75
    },
    {
      "midi": 48,
      "hit": false,
      "t": 65368.32300000005,
      "d": 131.57875000000058,
      "v": 50
    },
    {
      "midi": 53,
      "hit": false,
      "t": 65368.32300000005,
      "d": 131.57875000000058,
      "v": 60
    },
    {
      "midi": 53,
      "hit": false,
      "t": 65684.11200000005,
      "d": 105.26300000000629,
      "v": 48
    },
    {
      "midi": 57,
      "hit": false,
      "t": 65684.11200000005,
      "d": 105.26300000000629,
      "v": 58
    },
    {
      "midi": 53,
      "hit": false,
      "t": 65999.90100000006,
      "d": 118.42087499999616,
      "v": 38
    },
    {
      "midi": 57,
      "hit": false,
      "t": 65999.90100000006,
      "d": 118.42087499999616,
      "v": 46
    },
    {
      "midi": 60,
      "hit": false,
      "t": 65999.90100000006,
      "d": 118.42087499999616,
      "v": 65
    },
    {
      "midi": 45,
      "hit": false,
      "t": 66315.68999999999,
      "d": 157.89449999999488,
      "v": 60
    },
    {
      "midi": 77,
      "hit": false,
      "t": 66315.69000000006,
      "d": 631.5779999999941,
      "v": 75
    },
    {
      "midi": 69,
      "hit": false,
      "t": 66315.69000000008,
      "d": 631.5779999999941,
      "v": 70
    },
    {
      "midi": 72,
      "hit": false,
      "t": 66315.69000000008,
      "d": 631.5779999999941,
      "v": 58
    },
    {
      "midi": 53,
      "hit": false,
      "t": 66631.47900000005,
      "d": 157.89449999999488,
      "v": 48
    },
    {
      "midi": 57,
      "hit": false,
      "t": 66631.47900000005,
      "d": 157.89449999999488,
      "v": 60
    },
    {
      "midi": 60,
      "hit": false,
      "t": 66631.47900000005,
      "d": 157.89449999999488,
      "v": 68
    },
    {
      "midi": 37,
      "hit": false,
      "t": 66947.26799999998,
      "d": 631.5779999999941,
      "v": 78
    },
    {
      "midi": 49,
      "hit": false,
      "t": 66947.26799999998,
      "d": 631.5779999999941,
      "v": 62
    },
    {
      "midi": 53,
      "hit": false,
      "t": 67263.05700000004,
      "d": 131.57875000000058,
      "v": 70
    },
    {
      "midi": 83,
      "hit": false,
      "t": 67263.05700000006,
      "d": 315.7890000000043,
      "v": 70
    },
    {
      "midi": 89,
      "hit": false,
      "t": 67263.05700000006,
      "d": 342.1047499999986,
      "v": 80
    },
    {
      "midi": 77,
      "hit": false,
      "t": 67263.05700000007,
      "d": 342.1047499999986,
      "v": 85
    },
    {
      "midi": 53,
      "hit": false,
      "t": 67578.84600000005,
      "d": 157.89449999999488,
      "v": 55
    },
    {
      "midi": 56,
      "hit": false,
      "t": 67578.84600000005,
      "d": 157.89449999999488,
      "v": 48
    },
    {
      "midi": 59,
      "hit": false,
      "t": 67578.84600000005,
      "d": 157.89449999999488,
      "v": 60
    },
    {
      "midi": 61,
      "hit": false,
      "t": 67578.84600000005,
      "d": 157.89449999999488,
      "v": 68
    },
    {
      "midi": 83,
      "hit": false,
      "t": 67578.84600000006,
      "d": 315.78899999998976,
      "v": 72
    },
    {
      "midi": 90,
      "hit": false,
      "t": 67578.84600000006,
      "d": 342.10474999998405,
      "v": 85
    },
    {
      "midi": 78,
      "hit": false,
      "t": 67578.84600000008,
      "d": 342.10474999998405,
      "v": 90
    },
    {
      "midi": 83,
      "hit": false,
      "t": 67894.63500000005,
      "d": 315.78899999998976,
      "v": 68
    },
    {
      "midi": 89,
      "hit": false,
      "t": 67894.63500000005,
      "d": 342.10474999998405,
      "v": 82
    },
    {
      "midi": 77,
      "hit": false,
      "t": 67894.63500000007,
      "d": 342.10474999998405,
      "v": 87
    },
    {
      "midi": 37,
      "hit": false,
      "t": 68210.42399999997,
      "d": 157.89449999999488,
      "v": 86
    },
    {
      "midi": 49,
      "hit": false,
      "t": 68210.42399999997,
      "d": 157.89449999999488,
      "v": 60
    },
    {
      "midi": 83,
      "hit": false,
      "t": 68210.42400000004,
      "d": 315.78899999998976,
      "v": 71
    },
    {
      "midi": 88,
      "hit": false,
      "t": 68210.42400000004,
      "d": 342.10474999998405,
      "v": 87
    },
    {
      "midi": 76,
      "hit": false,
      "t": 68210.42400000006,
      "d": 342.10474999998405,
      "v": 92
    },
    {
      "midi": 83,
      "hit": false,
      "t": 68526.21300000003,
      "d": 315.78899999998976,
      "v": 74
    },
    {
      "midi": 89,
      "hit": false,
      "t": 68526.21300000003,
      "d": 315.78899999998976,
      "v": 93
    },
    {
      "midi": 77,
      "hit": false,
      "t": 68526.21300000005,
      "d": 315.78899999998976,
      "v": 98
    },
    {
      "midi": 53,
      "hit": false,
      "t": 68526.21300000005,
      "d": 131.57875000000058,
      "v": 60
    },
    {
      "midi": 56,
      "hit": false,
      "t": 68526.21300000005,
      "d": 131.57875000000058,
      "v": 48
    },
    {
      "midi": 59,
      "hit": false,
      "t": 68526.21300000005,
      "d": 131.57875000000058,
      "v": 68
    },
    {
      "midi": 61,
      "hit": false,
      "t": 68526.21300000005,
      "d": 131.57875000000058,
      "v": 75
    },
    {
      "midi": 30,
      "hit": false,
      "t": 68842.00199999996,
      "d": 184.21025000000373,
      "v": 90
    },
    {
      "midi": 42,
      "hit": false,
      "t": 68842.00199999996,
      "d": 184.21025000000373,
      "v": 65
    },
    {
      "midi": 82,
      "hit": false,
      "t": 68842.00200000002,
      "d": 1263.1560000000027,
      "v": 75
    },
    {
      "midi": 85,
      "hit": false,
      "t": 68842.00200000002,
      "d": 1263.1560000000027,
      "v": 65
    },
    {
      "midi": 90,
      "hit": false,
      "t": 68842.00200000002,
      "d": 1289.471749999997,
      "v": 98
    },
    {
      "midi": 70,
      "hit": false,
      "t": 68842.00200000004,
      "d": 1263.1560000000027,
      "v": 80
    },
    {
      "midi": 73,
      "hit": false,
      "t": 68842.00200000004,
      "d": 1263.1560000000027,
      "v": 70
    },
    {
      "midi": 78,
      "hit": false,
      "t": 68842.00200000004,
      "d": 1289.471749999997,
      "v": 103
    },
    {
      "midi": 46,
      "hit": false,
      "t": 69157.79099999997,
      "d": 131.57875000000058,
      "v": 80
    },
    {
      "midi": 49,
      "hit": false,
      "t": 69157.79100000004,
      "d": 131.57875000000058,
      "v": 68
    },
    {
      "midi": 54,
      "hit": false,
      "t": 69157.79100000004,
      "d": 131.57875000000058,
      "v": 80
    },
    {
      "midi": 54,
      "hit": false,
      "t": 69473.58000000005,
      "d": 105.26300000000629,
      "v": 66
    },
    {
      "midi": 58,
      "hit": false,
      "t": 69473.58000000005,
      "d": 105.26300000000629,
      "v": 73
    },
    {
      "midi": 54,
      "hit": false,
      "t": 69789.36900000005,
      "d": 118.42087499999616,
      "v": 50
    },
    {
      "midi": 58,
      "hit": false,
      "t": 69789.36900000005,
      "d": 118.42087499999616,
      "v": 64
    },
    {
      "midi": 61,
      "hit": false,
      "t": 69789.36900000005,
      "d": 118.42087499999616,
      "v": 75
    },
    {
      "midi": 46,
      "hit": false,
      "t": 70105.15799999997,
      "d": 157.89449999999488,
      "v": 88
    },
    {
      "midi": 78,
      "hit": false,
      "t": 70105.15800000002,
      "d": 631.5779999999941,
      "v": 90
    },
    {
      "midi": 66,
      "hit": false,
      "t": 70105.15800000004,
      "d": 631.5779999999941,
      "v": 95
    },
    {
      "midi": 54,
      "hit": false,
      "t": 70420.94700000004,
      "d": 157.89449999999488,
      "v": 60
    },
    {
      "midi": 58,
      "hit": false,
      "t": 70420.94700000004,
      "d": 157.89449999999488,
      "v": 78
    },
    {
      "midi": 61,
      "hit": false,
      "t": 70420.94700000004,
      "d": 157.89449999999488,
      "v": 85
    },
    {
      "midi": 34,
      "hit": false,
      "t": 70736.73599999996,
      "d": 631.5779999999941,
      "v": 100
    },
    {
      "midi": 46,
      "hit": false,
      "t": 70736.73599999996,
      "d": 631.5779999999941,
      "v": 75
    },
    {
      "midi": 85,
      "hit": false,
      "t": 71052.52500000002,
      "d": 315.7890000000043,
      "v": 73
    },
    {
      "midi": 88,
      "hit": false,
      "t": 71052.52500000002,
      "d": 315.7890000000043,
      "v": 85
    },
    {
      "midi": 90,
      "hit": false,
      "t": 71052.52500000002,
      "d": 342.1047499999986,
      "v": 95
    },
    {
      "midi": 78,
      "hit": false,
      "t": 71052.52500000004,
      "d": 342.1047499999986,
      "v": 100
    },
    {
      "midi": 54,
      "hit": false,
      "t": 71052.52500000004,
      "d": 131.57875000000058,
      "v": 90
    },
    {
      "midi": 85,
      "hit": false,
      "t": 71368.31400000003,
      "d": 315.78899999998976,
      "v": 75
    },
    {
      "midi": 88,
      "hit": false,
      "t": 71368.31400000003,
      "d": 315.78899999998976,
      "v": 87
    },
    {
      "midi": 91,
      "hit": false,
      "t": 71368.31400000003,
      "d": 315.78899999998976,
      "v": 100
    },
    {
      "midi": 79,
      "hit": false,
      "t": 71368.31400000004,
      "d": 315.78899999998976,
      "v": 105
    },
    {
      "midi": 58,
      "hit": false,
      "t": 71368.31400000004,
      "d": 157.89449999999488,
      "v": 60
    },
    {
      "midi": 61,
      "hit": false,
      "t": 71368.31400000004,
      "d": 157.89449999999488,
      "v": 78
    },
    {
      "midi": 64,
      "hit": false,
      "t": 71368.31400000004,
      "d": 157.89449999999488,
      "v": 88
    },
    {
      "midi": 85,
      "hit": false,
      "t": 71684.10300000002,
      "d": 315.7890000000043,
      "v": 77
    },
    {
      "midi": 88,
      "hit": false,
      "t": 71684.10300000002,
      "d": 315.7890000000043,
      "v": 83
    },
    {
      "midi": 90,
      "hit": false,
      "t": 71684.10300000002,
      "d": 342.1047499999986,
      "v": 97
    },
    {
      "midi": 78,
      "hit": false,
      "t": 71684.10300000003,
      "d": 342.1047499999986,
      "v": 102
    },
    {
      "midi": 46,
      "hit": false,
      "t": 71999.89199999995,
      "d": 157.89449999999488,
      "v": 105
    },
    {
      "midi": 85,
      "hit": false,
      "t": 71999.89200000002,
      "d": 315.78899999998976,
      "v": 79
    },
    {
      "midi": 88,
      "hit": false,
      "t": 71999.89200000002,
      "d": 315.78899999998976,
      "v": 86
    },
    {
      "midi": 89,
      "hit": false,
      "t": 71999.89200000002,
      "d": 342.10474999998405,
      "v": 102
    },
    {
      "midi": 77,
      "hit": false,
      "t": 71999.89200000004,
      "d": 342.10474999998405,
      "v": 107
    },
    {
      "midi": 88,
      "hit": false,
      "t": 72315.68100000001,
      "d": 315.78899999998976,
      "v": 89
    },
    {
      "midi": 85,
      "hit": false,
      "t": 72315.68100000001,
      "d": 342.10474999998405,
      "v": 81
    },
    {
      "midi": 90,
      "hit": false,
      "t": 72315.68100000001,
      "d": 342.10474999998405,
      "v": 108
    },
    {
      "midi": 78,
      "hit": false,
      "t": 72315.68100000003,
      "d": 342.10474999998405,
      "v": 113
    },
    {
      "midi": 58,
      "hit": false,
      "t": 72315.68100000004,
      "d": 131.57875000000058,
      "v": 88
    },
    {
      "midi": 61,
      "hit": false,
      "t": 72315.68100000004,
      "d": 131.57875000000058,
      "v": 70
    },
    {
      "midi": 64,
      "hit": false,
      "t": 72315.68100000004,
      "d": 131.57875000000058,
      "v": 95
    },
    {
      "midi": 35,
      "hit": false,
      "t": 72631.46999999994,
      "d": 184.21025000000373,
      "v": 110
    },
    {
      "midi": 88,
      "hit": false,
      "t": 72631.47,
      "d": 1263.1559999999881,
      "v": 63
    },
    {
      "midi": 91,
      "hit": false,
      "t": 72631.47,
      "d": 1263.1559999999881,
      "v": 75
    },
    {
      "midi": 96,
      "hit": false,
      "t": 72631.47,
      "d": 1289.4717499999824,
      "v": 107
    },
    {
      "midi": 76,
      "hit": false,
      "t": 72631.47000000002,
      "d": 1263.1559999999881,
      "v": 68
    },
    {
      "midi": 79,
      "hit": false,
      "t": 72631.47000000002,
      "d": 1263.1559999999881,
      "v": 80
    },
    {
      "midi": 84,
      "hit": false,
      "t": 72631.47000000002,
      "d": 1289.4717499999824,
      "v": 112
    },
    {
      "midi": 47,
      "hit": false,
      "t": 72947.25899999995,
      "d": 157.89449999999488,
      "v": 95
    },
    {
      "midi": 52,
      "hit": false,
      "t": 72947.25900000003,
      "d": 131.57875000000058,
      "v": 90
    },
    {
      "midi": 55,
      "hit": false,
      "t": 72947.25900000003,
      "d": 131.57875000000058,
      "v": 105
    },
    {
      "midi": 55,
      "hit": false,
      "t": 73263.04800000004,
      "d": 105.26300000000629,
      "v": 87
    },
    {
      "midi": 64,
      "hit": false,
      "t": 73263.04800000004,
      "d": 105.26300000000629,
      "v": 98
    },
    {
      "midi": 64,
      "hit": false,
      "t": 73578.83700000004,
      "d": 118.42087499999616,
      "v": 84
    },
    {
      "midi": 67,
      "hit": false,
      "t": 73578.83700000004,
      "d": 118.42087499999616,
      "v": 100
    },
    {
      "midi": 47,
      "hit": false,
      "t": 73894.62599999995,
      "d": 157.89449999999488,
      "v": 88
    },
    {
      "midi": 88,
      "hit": false,
      "t": 73894.62599999999,
      "d": 631.5779999999941,
      "v": 65
    },
    {
      "midi": 91,
      "hit": false,
      "t": 73894.62599999999,
      "d": 631.5779999999941,
      "v": 78
    },
    {
      "midi": 95,
      "hit": false,
      "t": 73894.62599999999,
      "d": 631.5779999999941,
      "v": 92
    },
    {
      "midi": 76,
      "hit": false,
      "t": 73894.626,
      "d": 631.5779999999941,
      "v": 70
    },
    {
      "midi": 79,
      "hit": false,
      "t": 73894.626,
      "d": 631.5779999999941,
      "v": 83
    },
    {
      "midi": 83,
      "hit": false,
      "t": 73894.626,
      "d": 631.5779999999941,
      "v": 97
    },
    {
      "midi": 55,
      "hit": false,
      "t": 74210.41500000004,
      "d": 157.89449999999488,
      "v": 80
    },
    {
      "midi": 64,
      "hit": false,
      "t": 74210.41500000004,
      "d": 157.89449999999488,
      "v": 92
    },
    {
      "midi": 35,
      "hit": false,
      "t": 74526.20399999994,
      "d": 631.5779999999941,
      "v": 90
    },
    {
      "midi": 47,
      "hit": false,
      "t": 74526.20399999994,
      "d": 631.5779999999941,
      "v": 68
    },
    {
      "midi": 87,
      "hit": false,
      "t": 74841.99299999999,
      "d": 947.3669999999984,
      "v": 90
    },
    {
      "midi": 81,
      "hit": false,
      "t": 74841.99299999999,
      "d": 973.6827499999927,
      "v": 65
    },
    {
      "midi": 75,
      "hit": false,
      "t": 74841.993,
      "d": 947.3669999999984,
      "v": 95
    },
    {
      "midi": 69,
      "hit": false,
      "t": 74841.993,
      "d": 973.6827499999927,
      "v": 70
    },
    {
      "midi": 57,
      "hit": false,
      "t": 74841.99300000003,
      "d": 131.57875000000058,
      "v": 85
    },
    {
      "midi": 63,
      "hit": false,
      "t": 74841.99300000003,
      "d": 131.57875000000058,
      "v": 95
    },
    {
      "midi": 63,
      "hit": false,
      "t": 75157.78200000004,
      "d": 157.89449999999488,
      "v": 75
    },
    {
      "midi": 67,
      "hit": false,
      "t": 75157.78200000004,
      "d": 157.89449999999488,
      "v": 88
    },
    {
      "midi": 47,
      "hit": false,
      "t": 75789.35999999993,
      "d": 157.89449999999488,
      "v": 82
    },
    {
      "midi": 87,
      "hit": false,
      "t": 75789.35999999999,
      "d": 342.10474999998405,
      "v": 58
    },
    {
      "midi": 91,
      "hit": false,
      "t": 75789.35999999999,
      "d": 342.10474999998405,
      "v": 78
    },
    {
      "midi": 75,
      "hit": false,
      "t": 75789.36,
      "d": 342.10474999998405,
      "v": 63
    },
    {
      "midi": 79,
      "hit": false,
      "t": 75789.36,
      "d": 342.10474999998405,
      "v": 83
    },
    {
      "midi": 90,
      "hit": false,
      "t": 76105.14899999998,
      "d": 342.10474999998405,
      "v": 70
    },
    {
      "midi": 78,
      "hit": false,
      "t": 76105.14899999999,
      "d": 342.10474999998405,
      "v": 75
    },
    {
      "midi": 57,
      "hit": false,
      "t": 76105.14900000003,
      "d": 131.57875000000058,
      "v": 68
    },
    {
      "midi": 63,
      "hit": false,
      "t": 76105.14900000003,
      "d": 131.57875000000058,
      "v": 80
    },
    {
      "midi": 36,
      "hit": false,
      "t": 76420.93799999992,
      "d": 184.21025000000373,
      "v": 75
    },
    {
      "midi": 79,
      "hit": false,
      "t": 76420.93799999997,
      "d": 1894.7339999999967,
      "v": 50
    },
    {
      "midi": 88,
      "hit": false,
      "t": 76420.93799999997,
      "d": 1894.7339999999967,
      "v": 65
    },
    {
      "midi": 67,
      "hit": false,
      "t": 76420.93799999998,
      "d": 1894.7339999999967,
      "v": 55
    },
    {
      "midi": 76,
      "hit": false,
      "t": 76420.93799999998,
      "d": 1894.7339999999967,
      "v": 70
    },
    {
      "midi": 48,
      "hit": false,
      "t": 76736.72699999993,
      "d": 131.57875000000058,
      "v": 60
    },
    {
      "midi": 52,
      "hit": false,
      "t": 76736.72700000003,
      "d": 131.57875000000058,
      "v": 83
    },
    {
      "midi": 52,
      "hit": false,
      "t": 77052.51600000003,
      "d": 105.26300000000629,
      "v": 57
    },
    {
      "midi": 55,
      "hit": false,
      "t": 77052.51600000003,
      "d": 105.26300000000629,
      "v": 73
    },
    {
      "midi": 55,
      "hit": false,
      "t": 77368.30500000004,
      "d": 118.42087499999616,
      "v": 53
    },
    {
      "midi": 64,
      "hit": false,
      "t": 77368.30500000004,
      "d": 118.42087499999616,
      "v": 76
    },
    {
      "midi": 48,
      "hit": false,
      "t": 77684.09399999992,
      "d": 157.89449999999488,
      "v": 65
    },
    {
      "midi": 55,
      "hit": false,
      "t": 77999.88300000003,
      "d": 157.89449999999488,
      "v": 48
    },
    {
      "midi": 60,
      "hit": false,
      "t": 77999.88300000003,
      "d": 157.89449999999488,
      "v": 60
    },
    {
      "midi": 64,
      "hit": false,
      "t": 77999.88300000003,
      "d": 157.89449999999488,
      "v": 68
    },
    {
      "midi": 31,
      "hit": false,
      "t": 78315.67199999992,
      "d": 631.5779999999941,
      "v": 70
    },
    {
      "midi": 43,
      "hit": false,
      "t": 78315.67199999992,
      "d": 631.5779999999941,
      "v": 52
    },
    {
      "midi": 64,
      "hit": false,
      "t": 78315.67199999998,
      "d": 184.21025000000373,
      "v": 50
    },
    {
      "midi": 76,
      "hit": false,
      "t": 78631.46099999997,
      "d": 131.57875000000058,
      "v": 37
    },
    {
      "midi": 79,
      "hit": false,
      "t": 78631.46099999997,
      "d": 131.57875000000058,
      "v": 50
    },
    {
      "midi": 52,
      "hit": false,
      "t": 78631.46100000002,
      "d": 315.7890000000043,
      "v": 48
    },
    {
      "midi": 55,
      "hit": false,
      "t": 78631.46100000002,
      "d": 315.7890000000043,
      "v": 55
    },
    {
      "midi": 59,
      "hit": false,
      "t": 78631.46100000002,
      "d": 342.1047499999986,
      "v": 80
    },
    {
      "midi": 79,
      "hit": false,
      "t": 78947.24999999997,
      "d": 157.89449999999488,
      "v": 33
    },
    {
      "midi": 88,
      "hit": false,
      "t": 78947.24999999997,
      "d": 157.89449999999488,
      "v": 47
    },
    {
      "midi": 52,
      "hit": false,
      "t": 78947.25000000003,
      "d": 315.78899999998976,
      "v": 45
    },
    {
      "midi": 55,
      "hit": false,
      "t": 78947.25000000003,
      "d": 315.78899999998976,
      "v": 52
    },
    {
      "midi": 60,
      "hit": false,
      "t": 78947.25000000003,
      "d": 342.10474999998405,
      "v": 75
    },
    {
      "midi": 52,
      "hit": false,
      "t": 79263.03900000002,
      "d": 315.78899999998976,
      "v": 43
    },
    {
      "midi": 55,
      "hit": false,
      "t": 79263.03900000002,
      "d": 315.78899999998976,
      "v": 50
    },
    {
      "midi": 59,
      "hit": false,
      "t": 79263.03900000002,
      "d": 342.10474999998405,
      "v": 77
    },
    {
      "midi": 31,
      "hit": false,
      "t": 79578.8279999999,
      "d": 157.89449999999488,
      "v": 62
    },
    {
      "midi": 76,
      "hit": false,
      "t": 79578.82799999998,
      "d": 131.57875000000058,
      "v": 43
    },
    {
      "midi": 52,
      "hit": false,
      "t": 79578.82800000001,
      "d": 315.78899999998976,
      "v": 46
    },
    {
      "midi": 55,
      "hit": false,
      "t": 79578.82800000001,
      "d": 315.78899999998976,
      "v": 53
    },
    {
      "midi": 58,
      "hit": false,
      "t": 79578.82800000001,
      "d": 342.10474999998405,
      "v": 74
    },
    {
      "midi": 43,
      "hit": false,
      "t": 79894.6169999999,
      "d": 131.57875000000058,
      "v": 55
    },
    {
      "midi": 79,
      "hit": false,
      "t": 79894.61699999997,
      "d": 157.89449999999488,
      "v": 31
    },
    {
      "midi": 88,
      "hit": false,
      "t": 79894.61699999997,
      "d": 157.89449999999488,
      "v": 45
    },
    {
      "midi": 52,
      "hit": false,
      "t": 79894.617,
      "d": 315.78899999998976,
      "v": 44
    },
    {
      "midi": 55,
      "hit": false,
      "t": 79894.617,
      "d": 315.78899999998976,
      "v": 51
    },
    {
      "midi": 59,
      "hit": false,
      "t": 79894.617,
      "d": 342.10474999998405,
      "v": 68
    },
    {
      "midi": 33,
      "hit": false,
      "t": 80210.4059999999,
      "d": 631.5779999999941,
      "v": 60
    },
    {
      "midi": 45,
      "hit": false,
      "t": 80210.4059999999,
      "d": 631.5779999999941,
      "v": 48
    },
    {
      "midi": 76,
      "hit": false,
      "t": 80210.40599999997,
      "d": 157.89449999999488,
      "v": 45
    },
    {
      "midi": 62,
      "hit": false,
      "t": 80210.40599999999,
      "d": 1289.4717499999824,
      "v": 70
    },
    {
      "midi": 52,
      "hit": false,
      "t": 80210.40599999999,
      "d": 1894.7339999999822,
      "v": 40
    },
    {
      "midi": 57,
      "hit": false,
      "t": 80210.40599999999,
      "d": 1894.7339999999822,
      "v": 48
    },
    {
      "midi": 69,
      "hit": false,
      "t": 80526.19499999996,
      "d": 131.57875000000058,
      "v": 43
    },
    {
      "midi": 76,
      "hit": false,
      "t": 80841.98399999997,
      "d": 105.26300000000629,
      "v": 40
    },
    {
      "midi": 81,
      "hit": false,
      "t": 81157.77299999997,
      "d": 131.57875000000058,
      "v": 35
    },
    {
      "midi": 73,
      "hit": false,
      "t": 81420.93049999997,
      "d": 184.21025000000373,
      "v": 37
    },
    {
      "midi": 76,
      "hit": false,
      "t": 81434.08837499998,
      "d": 131.57874999998603,
      "v": 27
    },
    {
      "midi": 81,
      "hit": false,
      "t": 81460.40412499997,
      "d": 131.57874999998603,
      "v": 30
    },
    {
      "midi": 45,
      "hit": false,
      "t": 81473.56199999989,
      "d": 157.89449999999488,
      "v": 58
    },
    {
      "midi": 61,
      "hit": false,
      "t": 81473.56199999998,
      "d": 657.8937499999884,
      "v": 65
    },
    {
      "midi": 88,
      "hit": false,
      "t": 81499.87774999997,
      "d": 131.57874999998603,
      "v": 45
    },
    {
      "midi": 33,
      "hit": false,
      "t": 81789.35099999988,
      "d": 131.57875000000058,
      "v": 48
    },
    {
      "midi": 34,
      "hit": false,
      "t": 82105.13999999988,
      "d": 631.5779999999941,
      "v": 50
    },
    {
      "midi": 46,
      "hit": false,
      "t": 82105.13999999988,
      "d": 631.5779999999941,
      "v": 40
    },
    {
      "midi": 76,
      "hit": false,
      "t": 82105.13999999997,
      "d": 184.21025000000373,
      "v": 50
    },
    {
      "midi": 55,
      "hit": false,
      "t": 82105.13999999997,
      "d": 947.3669999999984,
      "v": 25
    },
    {
      "midi": 52,
      "hit": false,
      "t": 82105.13999999997,
      "d": 973.6827499999927,
      "v": 32
    },
    {
      "midi": 60,
      "hit": false,
      "t": 82105.13999999997,
      "d": 973.6827499999927,
      "v": 60
    },
    {
      "midi": 79,
      "hit": false,
      "t": 82420.92899999996,
      "d": 131.57875000000058,
      "v": 27
    },
    {
      "midi": 88,
      "hit": false,
      "t": 82420.92899999996,
      "d": 131.57875000000058,
      "v": 40
    },
    {
      "midi": 88,
      "hit": false,
      "t": 82736.71799999996,
      "d": 157.89449999999488,
      "v": 23
    },
    {
      "midi": 91,
      "hit": false,
      "t": 82736.71799999996,
      "d": 157.89449999999488,
      "v": 37
    },
    {
      "midi": 55,
      "hit": false,
      "t": 83052.50699999997,
      "d": 342.10474999998405,
      "v": 62
    },
    {
      "midi": 34,
      "hit": false,
      "t": 83368.29599999987,
      "d": 631.5779999999941,
      "v": 42
    },
    {
      "midi": 54,
      "hit": false,
      "t": 83368.29599999996,
      "d": 342.10474999998405,
      "v": 58
    },
    {
      "midi": 72,
      "hit": false,
      "t": 83368.29599999997,
      "d": 131.57875000000058,
      "v": 15
    },
    {
      "midi": 76,
      "hit": false,
      "t": 83368.29599999997,
      "d": 131.57875000000058,
      "v": 22
    },
    {
      "midi": 79,
      "hit": false,
      "t": 83368.29599999997,
      "d": 131.57875000000058,
      "v": 43
    },
    {
      "midi": 52,
      "hit": false,
      "t": 83684.08499999995,
      "d": 315.78899999998976,
      "v": 53
    },
    {
      "midi": 88,
      "hit": false,
      "t": 83684.08499999996,
      "d": 157.89449999999488,
      "v": 21
    },
    {
      "midi": 91,
      "hit": false,
      "t": 83684.08499999996,
      "d": 157.89449999999488,
      "v": 35
    },
    {
      "midi": 35,
      "hit": false,
      "t": 83999.87399999987,
      "d": 631.5779999999941,
      "v": 45
    },
    {
      "midi": 47,
      "hit": false,
      "t": 83999.87399999987,
      "d": 631.5779999999941,
      "v": 30
    },
    {
      "midi": 55,
      "hit": false,
      "t": 83999.87399999994,
      "d": 1289.471749999997,
      "v": 38
    },
    {
      "midi": 51,
      "hit": false,
      "t": 83999.87399999994,
      "d": 1894.7339999999967,
      "v": 25
    },
    {
      "midi": 59,
      "hit": false,
      "t": 83999.87399999994,
      "d": 1894.7339999999967,
      "v": 55
    },
    {
      "midi": 71,
      "hit": false,
      "t": 83999.87399999997,
      "d": 157.89449999999488,
      "v": 45
    },
    {
      "midi": 75,
      "hit": false,
      "t": 84315.66299999996,
      "d": 131.57875000000058,
      "v": 33
    },
    {
      "midi": 79,
      "hit": false,
      "t": 84631.45199999996,
      "d": 105.26300000000629,
      "v": 30
    },
    {
      "midi": 83,
      "hit": false,
      "t": 84947.24099999997,
      "d": 131.57875000000058,
      "v": 25
    },
    {
      "midi": 71,
      "hit": false,
      "t": 85210.39849999997,
      "d": 184.21025000000373,
      "v": 38
    },
    {
      "midi": 75,
      "hit": false,
      "t": 85223.55637499997,
      "d": 131.57874999998603,
      "v": 17
    },
    {
      "midi": 81,
      "hit": false,
      "t": 85249.87212499997,
      "d": 131.57874999998603,
      "v": 20
    },
    {
      "midi": 47,
      "hit": false,
      "t": 85263.02999999985,
      "d": 157.89449999999488,
      "v": 40
    },
    {
      "midi": 54,
      "hit": false,
      "t": 85263.02999999994,
      "d": 631.5779999999941,
      "v": 33
    },
    {
      "midi": 87,
      "hit": false,
      "t": 85289.34574999996,
      "d": 131.57874999998603,
      "v": 35
    },
    {
      "midi": 35,
      "hit": false,
      "t": 85578.81899999984,
      "d": 131.57875000000058,
      "v": 33
    },
    {
      "midi": 36,
      "hit": false,
      "t": 85894.60799999985,
      "d": 631.5779999999941,
      "v": 35
    },
    {
      "midi": 48,
      "hit": false,
      "t": 85894.60799999985,
      "d": 631.5779999999941,
      "v": 23
    },
    {
      "midi": 76,
      "hit": false,
      "t": 85894.60799999996,
      "d": 184.21025000000373,
      "v": 40
    },
    {
      "midi": 52,
      "hit": false,
      "t": 86210.39699999994,
      "d": 315.7890000000043,
      "v": 40
    },
    {
      "midi": 55,
      "hit": false,
      "t": 86210.39699999994,
      "d": 342.1047499999986,
      "v": 60
    },
    {
      "midi": 84,
      "hit": false,
      "t": 86210.39699999995,
      "d": 131.57875000000058,
      "v": 30
    },
    {
      "midi": 52,
      "hit": false,
      "t": 86526.18599999994,
      "d": 315.78899999998976,
      "v": 42
    },
    {
      "midi": 57,
      "hit": false,
      "t": 86526.18599999994,
      "d": 342.10474999998405,
      "v": 62
    },
    {
      "midi": 84,
      "hit": false,
      "t": 86526.18599999996,
      "d": 157.89449999999488,
      "v": 15
    },
    {
      "midi": 88,
      "hit": false,
      "t": 86526.18599999996,
      "d": 157.89449999999488,
      "v": 27
    },
    {
      "midi": 52,
      "hit": false,
      "t": 86841.97499999993,
      "d": 315.78899999998976,
      "v": 38
    },
    {
      "midi": 55,
      "hit": false,
      "t": 86841.97499999993,
      "d": 342.10474999998405,
      "v": 59
    },
    {
      "midi": 48,
      "hit": false,
      "t": 87157.76399999984,
      "d": 631.5779999999941,
      "v": 28
    },
    {
      "midi": 52,
      "hit": false,
      "t": 87157.76399999992,
      "d": 315.78899999998976,
      "v": 33
    },
    {
      "midi": 54,
      "hit": false,
      "t": 87157.76399999992,
      "d": 342.10474999998405,
      "v": 53
    },
    {
      "midi": 76,
      "hit": false,
      "t": 87157.76399999997,
      "d": 131.57875000000058,
      "v": 32
    },
    {
      "midi": 52,
      "hit": false,
      "t": 87473.55299999991,
      "d": 315.78899999998976,
      "v": 28
    },
    {
      "midi": 55,
      "hit": false,
      "t": 87473.55299999991,
      "d": 342.10474999998405,
      "v": 45
    },
    {
      "midi": 84,
      "hit": false,
      "t": 87473.55299999996,
      "d": 157.89449999999488,
      "v": 17
    },
    {
      "midi": 88,
      "hit": false,
      "t": 87473.55299999996,
      "d": 157.89449999999488,
      "v": 27
    },
    {
      "midi": 30,
      "hit": false,
      "t": 87789.34199999983,
      "d": 631.5779999999941,
      "v": 30
    },
    {
      "midi": 42,
      "hit": false,
      "t": 87789.34199999983,
      "d": 631.5779999999941,
      "v": 18
    },
    {
      "midi": 48,
      "hit": false,
      "t": 87789.3419999999,
      "d": 1263.1559999999881,
      "v": 30
    },
    {
      "midi": 52,
      "hit": false,
      "t": 87789.3419999999,
      "d": 1263.1559999999881,
      "v": 25
    },
    {
      "midi": 59,
      "hit": false,
      "t": 87789.3419999999,
      "d": 1289.4717499999824,
      "v": 50
    },
    {
      "midi": 64,
      "hit": false,
      "t": 87789.34199999996,
      "d": 157.89449999999488,
      "v": 30
    },
    {
      "midi": 76,
      "hit": false,
      "t": 88105.13099999995,
      "d": 131.57875000000058,
      "v": 25
    },
    {
      "midi": 81,
      "hit": false,
      "t": 88420.91999999995,
      "d": 105.26300000000629,
      "v": 22
    },
    {
      "midi": 84,
      "hit": false,
      "t": 88736.70899999996,
      "d": 131.57875000000058,
      "v": 17
    },
    {
      "midi": 69,
      "hit": false,
      "t": 88999.86649999996,
      "d": 184.21025000000373,
      "v": 24
    },
    {
      "midi": 72,
      "hit": false,
      "t": 89039.34012499996,
      "d": 184.21025000000373,
      "v": 10
    },
    {
      "midi": 42,
      "hit": false,
      "t": 89052.49799999982,
      "d": 631.5779999999941,
      "v": 23
    },
    {
      "midi": 48,
      "hit": false,
      "t": 89052.49799999989,
      "d": 631.5779999999941,
      "v": 27
    },
    {
      "midi": 52,
      "hit": false,
      "t": 89052.49799999989,
      "d": 631.5779999999941,
      "v": 20
    },
    {
      "midi": 57,
      "hit": false,
      "t": 89052.49799999989,
      "d": 631.5779999999941,
      "v": 42
    },
    {
      "midi": 76,
      "hit": false,
      "t": 89065.65587499995,
      "d": 131.57874999998603,
      "v": 12
    },
    {
      "midi": 81,
      "hit": false,
      "t": 89091.97162499995,
      "d": 131.57874999998603,
      "v": 14
    },
    {
      "midi": 88,
      "hit": false,
      "t": 89131.44524999995,
      "d": 131.57874999998603,
      "v": 30
    },
    {
      "midi": 35,
      "hit": false,
      "t": 89684.07599999981,
      "d": 631.5779999999941,
      "v": 25
    },
    {
      "midi": 47,
      "hit": false,
      "t": 89684.07599999988,
      "d": 1263.1560000000027,
      "v": 20
    },
    {
      "midi": 51,
      "hit": false,
      "t": 89684.07599999988,
      "d": 1263.1560000000027,
      "v": 32
    },
    {
      "midi": 55,
      "hit": false,
      "t": 89684.07599999988,
      "d": 1289.471749999997,
      "v": 45
    },
    {
      "midi": 59,
      "hit": false,
      "t": 89684.07599999996,
      "d": 184.21025000000373,
      "v": 20
    },
    {
      "midi": 71,
      "hit": false,
      "t": 89999.86499999993,
      "d": 131.57875000000058,
      "v": 32
    },
    {
      "midi": 75,
      "hit": false,
      "t": 90315.65399999994,
      "d": 157.89449999999488,
      "v": 15
    },
    {
      "midi": 79,
      "hit": false,
      "t": 90315.65399999994,
      "d": 157.89449999999488,
      "v": 20
    },
    {
      "midi": 83,
      "hit": false,
      "t": 90315.65399999994,
      "d": 157.89449999999488,
      "v": 29
    },
    {
      "midi": 35,
      "hit": false,
      "t": 90947.2319999998,
      "d": 631.5779999999941,
      "v": 28
    },
    {
      "midi": 47,
      "hit": false,
      "t": 90947.23199999989,
      "d": 657.8937499999884,
      "v": 18
    },
    {
      "midi": 51,
      "hit": false,
      "t": 90947.23199999989,
      "d": 657.8937499999884,
      "v": 25
    },
    {
      "midi": 54,
      "hit": false,
      "t": 90947.23199999989,
      "d": 657.8937499999884,
      "v": 36
    },
    {
      "midi": 59,
      "hit": false,
      "t": 90947.23199999996,
      "d": 131.57875000000058,
      "v": 10
    },
    {
      "midi": 69,
      "hit": false,
      "t": 90947.23199999996,
      "d": 131.57875000000058,
      "v": 13
    },
    {
      "midi": 75,
      "hit": false,
      "t": 91263.02099999994,
      "d": 157.89449999999488,
      "v": 20
    },
    {
      "midi": 78,
      "hit": false,
      "t": 91263.02099999994,
      "d": 157.89449999999488,
      "v": 10
    },
    {
      "midi": 83,
      "hit": false,
      "t": 91263.02099999994,
      "d": 157.89449999999488,
      "v": 27
    },
    {
      "midi": 28,
      "hit": false,
      "t": 91578.8099999998,
      "d": 657.8937499999884,
      "v": 30
    },
    {
      "midi": 52,
      "hit": false,
      "t": 91578.80999999988,
      "d": 1894.7339999999967,
      "v": 40
    },
    {
      "midi": 64,
      "hit": false,
      "t": 91578.80999999995,
      "d": 1210.5244999999995,
      "v": 15
    },
    {
      "midi": 59,
      "hit": false,
      "t": 91578.80999999995,
      "d": 1263.1560000000027,
      "v": 8
    },
    {
      "midi": 67,
      "hit": false,
      "t": 91578.80999999995,
      "d": 1263.1560000000027,
      "v": 20
    },
    {
      "midi": 76,
      "hit": false,
      "t": 91894.59899999993,
      "d": 131.57875000000058,
      "v": 25
    },
    {
      "midi": 40,
      "hit": false,
      "t": 92210.38799999979,
      "d": 631.5779999999941,
      "v": 22
    },
    {
      "midi": 76,
      "hit": false,
      "t": 92210.38799999993,
      "d": 105.26300000000629,
      "v": 18
    },
    {
      "midi": 79,
      "hit": false,
      "t": 92210.38799999993,
      "d": 105.26300000000629,
      "v": 22
    },
    {
      "midi": 79,
      "hit": false,
      "t": 92526.17699999994,
      "d": 131.57875000000058,
      "v": 16
    },
    {
      "midi": 83,
      "hit": false,
      "t": 92526.17699999994,
      "d": 131.57875000000058,
      "v": 17
    },
    {
      "midi": 64,
      "hit": false,
      "t": 92789.33449999995,
      "d": 184.21025000000373,
      "v": 18
    },
    {
      "midi": 71,
      "hit": false,
      "t": 92828.80812499995,
      "d": 184.21025000000373,
      "v": 5
    },
    {
      "midi": 76,
      "hit": false,
      "t": 92855.12387499993,
      "d": 131.57874999998603,
      "v": 10
    },
    {
      "midi": 79,
      "hit": false,
      "t": 92881.43962499993,
      "d": 131.57874999998603,
      "v": 12
    },
    {
      "midi": 88,
      "hit": false,
      "t": 92920.91324999993,
      "d": 131.57874999998603,
      "v": 25
    },
    {
      "midi": 32,
      "hit": false,
      "t": 93473.54399999978,
      "d": 631.5779999999941,
      "v": 70
    },
    {
      "midi": 44,
      "hit": false,
      "t": 93473.54399999978,
      "d": 631.5779999999941,
      "v": 55
    },
    {
      "midi": 52,
      "hit": false,
      "t": 93789.33299999988,
      "d": 131.57875000000058,
      "v": 50
    },
    {
      "midi": 83,
      "hit": false,
      "t": 93789.33299999991,
      "d": 315.7890000000043,
      "v": 55
    },
    {
      "midi": 88,
      "hit": false,
      "t": 93789.33299999991,
      "d": 342.1047499999986,
      "v": 65
    },
    {
      "midi": 76,
      "hit": false,
      "t": 93789.33299999996,
      "d": 342.1047499999986,
      "v": 70
    },
    {
      "midi": 52,
      "hit": false,
      "t": 94105.12199999989,
      "d": 157.89449999999488,
      "v": 35
    },
    {
      "midi": 56,
      "hit": false,
      "t": 94105.12199999989,
      "d": 157.89449999999488,
      "v": 40
    },
    {
      "midi": 59,
      "hit": false,
      "t": 94105.12199999989,
      "d": 157.89449999999488,
      "v": 28
    },
    {
      "midi": 62,
      "hit": false,
      "t": 94105.12199999989,
      "d": 157.89449999999488,
      "v": 48
    },
    {
      "midi": 83,
      "hit": false,
      "t": 94105.12199999992,
      "d": 315.78899999998976,
      "v": 57
    },
    {
      "midi": 89,
      "hit": false,
      "t": 94105.12199999992,
      "d": 342.10474999998405,
      "v": 70
    },
    {
      "midi": 77,
      "hit": false,
      "t": 94105.12199999996,
      "d": 342.10474999998405,
      "v": 75
    },
    {
      "midi": 83,
      "hit": false,
      "t": 94420.9109999999,
      "d": 315.78899999998976,
      "v": 53
    },
    {
      "midi": 88,
      "hit": false,
      "t": 94420.9109999999,
      "d": 342.10474999998405,
      "v": 67
    },
    {
      "midi": 76,
      "hit": false,
      "t": 94420.91099999995,
      "d": 342.10474999998405,
      "v": 72
    },
    {
      "midi": 44,
      "hit": false,
      "t": 94736.69999999976,
      "d": 157.89449999999488,
      "v": 78
    },
    {
      "midi": 83,
      "hit": false,
      "t": 94736.6999999999,
      "d": 315.78899999998976,
      "v": 56
    },
    {
      "midi": 87,
      "hit": false,
      "t": 94736.6999999999,
      "d": 342.10474999998405,
      "v": 72
    },
    {
      "midi": 75,
      "hit": false,
      "t": 94736.69999999994,
      "d": 342.10474999998405,
      "v": 77
    },
    {
      "midi": 83,
      "hit": false,
      "t": 95052.48899999988,
      "d": 315.78899999998976,
      "v": 59
    },
    {
      "midi": 88,
      "hit": false,
      "t": 95052.48899999988,
      "d": 315.78899999998976,
      "v": 78
    },
    {
      "midi": 52,
      "hit": false,
      "t": 95052.48899999988,
      "d": 131.57875000000058,
      "v": 48
    },
    {
      "midi": 56,
      "hit": false,
      "t": 95052.48899999988,
      "d": 131.57875000000058,
      "v": 50
    },
    {
      "midi": 59,
      "hit": false,
      "t": 95052.48899999988,
      "d": 131.57875000000058,
      "v": 40
    },
    {
      "midi": 62,
      "hit": false,
      "t": 95052.48899999988,
      "d": 131.57875000000058,
      "v": 55
    },
    {
      "midi": 76,
      "hit": false,
      "t": 95052.48899999993,
      "d": 315.78899999998976,
      "v": 83
    },
    {
      "midi": 33,
      "hit": false,
      "t": 95368.27799999976,
      "d": 184.21025000000373,
      "v": 82
    },
    {
      "midi": 45,
      "hit": false,
      "t": 95368.27799999976,
      "d": 184.21025000000373,
      "v": 60
    },
    {
      "midi": 84,
      "hit": false,
      "t": 95368.27799999987,
      "d": 1263.1560000000027,
      "v": 55
    },
    {
      "midi": 89,
      "hit": false,
      "t": 95368.27799999987,
      "d": 1289.471749999997,
      "v": 83
    },
    {
      "midi": 69,
      "hit": false,
      "t": 95368.27799999992,
      "d": 1263.1560000000027,
      "v": 65
    },
    {
      "midi": 72,
      "hit": false,
      "t": 95368.27799999992,
      "d": 1263.1560000000027,
      "v": 52
    },
    {
      "midi": 77,
      "hit": false,
      "t": 95368.27799999992,
      "d": 1289.471749999997,
      "v": 88
    },
    {
      "midi": 45,
      "hit": false,
      "t": 95684.06699999976,
      "d": 131.57875000000058,
      "v": 75
    },
    {
      "midi": 48,
      "hit": false,
      "t": 95684.06699999988,
      "d": 131.57875000000058,
      "v": 50
    },
    {
      "midi": 53,
      "hit": false,
      "t": 95684.06699999988,
      "d": 131.57875000000058,
      "v": 60
    },
    {
      "midi": 53,
      "hit": false,
      "t": 95999.85599999988,
      "d": 105.26300000000629,
      "v": 48
    },
    {
      "midi": 57,
      "hit": false,
      "t": 95999.85599999988,
      "d": 105.26300000000629,
      "v": 58
    },
    {
      "midi": 53,
      "hit": false,
      "t": 96315.64499999989,
      "d": 118.42087499999616,
      "v": 38
    },
    {
      "midi": 57,
      "hit": false,
      "t": 96315.64499999989,
      "d": 118.42087499999616,
      "v": 46
    },
    {
      "midi": 60,
      "hit": false,
      "t": 96315.64499999989,
      "d": 118.42087499999616,
      "v": 65
    },
    {
      "midi": 45,
      "hit": false,
      "t": 96631.43399999976,
      "d": 157.89449999999488,
      "v": 60
    },
    {
      "midi": 77,
      "hit": false,
      "t": 96631.43399999988,
      "d": 631.5779999999941,
      "v": 75
    },
    {
      "midi": 69,
      "hit": false,
      "t": 96631.43399999992,
      "d": 631.5779999999941,
      "v": 70
    },
    {
      "midi": 72,
      "hit": false,
      "t": 96631.43399999992,
      "d": 631.5779999999941,
      "v": 58
    },
    {
      "midi": 53,
      "hit": false,
      "t": 96947.22299999988,
      "d": 157.89449999999488,
      "v": 48
    },
    {
      "midi": 57,
      "hit": false,
      "t": 96947.22299999988,
      "d": 157.89449999999488,
      "v": 60
    },
    {
      "midi": 60,
      "hit": false,
      "t": 96947.22299999988,
      "d": 157.89449999999488,
      "v": 68
    },
    {
      "midi": 37,
      "hit": false,
      "t": 97263.01199999976,
      "d": 631.5779999999941,
      "v": 78
    },
    {
      "midi": 49,
      "hit": false,
      "t": 97263.01199999976,
      "d": 631.5779999999941,
      "v": 62
    },
    {
      "midi": 83,
      "hit": false,
      "t": 97578.80099999988,
      "d": 315.7890000000043,
      "v": 70
    },
    {
      "midi": 89,
      "hit": false,
      "t": 97578.80099999988,
      "d": 342.1047499999986,
      "v": 80
    },
    {
      "midi": 53,
      "hit": false,
      "t": 97578.80099999988,
      "d": 131.57875000000058,
      "v": 70
    },
    {
      "midi": 77,
      "hit": false,
      "t": 97578.80099999992,
      "d": 342.1047499999986,
      "v": 85
    },
    {
      "midi": 83,
      "hit": false,
      "t": 97894.58999999988,
      "d": 315.78899999998976,
      "v": 72
    },
    {
      "midi": 90,
      "hit": false,
      "t": 97894.58999999988,
      "d": 342.10474999998405,
      "v": 85
    },
    {
      "midi": 53,
      "hit": false,
      "t": 97894.58999999988,
      "d": 157.89449999999488,
      "v": 55
    },
    {
      "midi": 56,
      "hit": false,
      "t": 97894.58999999988,
      "d": 157.89449999999488,
      "v": 48
    },
    {
      "midi": 59,
      "hit": false,
      "t": 97894.58999999988,
      "d": 157.89449999999488,
      "v": 60
    },
    {
      "midi": 61,
      "hit": false,
      "t": 97894.58999999988,
      "d": 157.89449999999488,
      "v": 68
    },
    {
      "midi": 78,
      "hit": false,
      "t": 97894.58999999992,
      "d": 342.10474999998405,
      "v": 90
    },
    {
      "midi": 83,
      "hit": false,
      "t": 98210.37899999987,
      "d": 315.78899999998976,
      "v": 68
    },
    {
      "midi": 89,
      "hit": false,
      "t": 98210.37899999987,
      "d": 342.10474999998405,
      "v": 82
    },
    {
      "midi": 77,
      "hit": false,
      "t": 98210.37899999991,
      "d": 342.10474999998405,
      "v": 87
    },
    {
      "midi": 37,
      "hit": false,
      "t": 98526.16799999974,
      "d": 157.89449999999488,
      "v": 86
    },
    {
      "midi": 49,
      "hit": false,
      "t": 98526.16799999974,
      "d": 157.89449999999488,
      "v": 60
    },
    {
      "midi": 83,
      "hit": false,
      "t": 98526.16799999986,
      "d": 315.78899999998976,
      "v": 71
    },
    {
      "midi": 88,
      "hit": false,
      "t": 98526.16799999986,
      "d": 342.10474999998405,
      "v": 87
    },
    {
      "midi": 76,
      "hit": false,
      "t": 98526.1679999999,
      "d": 342.10474999998405,
      "v": 92
    },
    {
      "midi": 83,
      "hit": false,
      "t": 98841.95699999985,
      "d": 315.78899999998976,
      "v": 74
    },
    {
      "midi": 89,
      "hit": false,
      "t": 98841.95699999985,
      "d": 315.78899999998976,
      "v": 93
    },
    {
      "midi": 53,
      "hit": false,
      "t": 98841.95699999988,
      "d": 131.57875000000058,
      "v": 60
    },
    {
      "midi": 56,
      "hit": false,
      "t": 98841.95699999988,
      "d": 131.57875000000058,
      "v": 48
    },
    {
      "midi": 59,
      "hit": false,
      "t": 98841.95699999988,
      "d": 131.57875000000058,
      "v": 68
    },
    {
      "midi": 61,
      "hit": false,
      "t": 98841.95699999988,
      "d": 131.57875000000058,
      "v": 75
    },
    {
      "midi": 77,
      "hit": false,
      "t": 98841.9569999999,
      "d": 315.78899999998976,
      "v": 98
    },
    {
      "midi": 30,
      "hit": false,
      "t": 99157.74599999974,
      "d": 184.21025000000373,
      "v": 90
    },
    {
      "midi": 42,
      "hit": false,
      "t": 99157.74599999974,
      "d": 184.21025000000373,
      "v": 65
    },
    {
      "midi": 82,
      "hit": false,
      "t": 99157.74599999984,
      "d": 1263.1560000000027,
      "v": 75
    },
    {
      "midi": 85,
      "hit": false,
      "t": 99157.74599999984,
      "d": 1263.1560000000027,
      "v": 65
    },
    {
      "midi": 90,
      "hit": false,
      "t": 99157.74599999984,
      "d": 1289.471749999997,
      "v": 98
    },
    {
      "midi": 70,
      "hit": false,
      "t": 99157.74599999988,
      "d": 1263.1560000000027,
      "v": 80
    },
    {
      "midi": 73,
      "hit": false,
      "t": 99157.74599999988,
      "d": 1263.1560000000027,
      "v": 70
    },
    {
      "midi": 78,
      "hit": false,
      "t": 99157.74599999988,
      "d": 1289.471749999997,
      "v": 103
    },
    {
      "midi": 46,
      "hit": false,
      "t": 99473.53499999974,
      "d": 131.57875000000058,
      "v": 80
    },
    {
      "midi": 49,
      "hit": false,
      "t": 99473.53499999987,
      "d": 131.57875000000058,
      "v": 68
    },
    {
      "midi": 54,
      "hit": false,
      "t": 99473.53499999987,
      "d": 131.57875000000058,
      "v": 80
    },
    {
      "midi": 54,
      "hit": false,
      "t": 99789.32399999988,
      "d": 105.26300000000629,
      "v": 66
    },
    {
      "midi": 58,
      "hit": false,
      "t": 99789.32399999988,
      "d": 105.26300000000629,
      "v": 73
    },
    {
      "midi": 54,
      "hit": false,
      "t": 100105.11299999988,
      "d": 118.42087499999616,
      "v": 50
    },
    {
      "midi": 58,
      "hit": false,
      "t": 100105.11299999988,
      "d": 118.42087499999616,
      "v": 64
    },
    {
      "midi": 61,
      "hit": false,
      "t": 100105.11299999988,
      "d": 118.42087499999616,
      "v": 75
    },
    {
      "midi": 46,
      "hit": false,
      "t": 100420.90199999974,
      "d": 157.89449999999488,
      "v": 88
    },
    {
      "midi": 78,
      "hit": false,
      "t": 100420.90199999984,
      "d": 631.5779999999941,
      "v": 90
    },
    {
      "midi": 66,
      "hit": false,
      "t": 100420.90199999989,
      "d": 631.5779999999941,
      "v": 95
    },
    {
      "midi": 54,
      "hit": false,
      "t": 100736.69099999988,
      "d": 157.89449999999488,
      "v": 60
    },
    {
      "midi": 58,
      "hit": false,
      "t": 100736.69099999988,
      "d": 157.89449999999488,
      "v": 78
    },
    {
      "midi": 61,
      "hit": false,
      "t": 100736.69099999988,
      "d": 157.89449999999488,
      "v": 85
    },
    {
      "midi": 34,
      "hit": false,
      "t": 101052.47999999973,
      "d": 631.5779999999941,
      "v": 100
    },
    {
      "midi": 46,
      "hit": false,
      "t": 101052.47999999973,
      "d": 631.5779999999941,
      "v": 75
    },
    {
      "midi": 85,
      "hit": false,
      "t": 101368.26899999984,
      "d": 315.7890000000043,
      "v": 73
    },
    {
      "midi": 88,
      "hit": false,
      "t": 101368.26899999984,
      "d": 315.7890000000043,
      "v": 85
    },
    {
      "midi": 90,
      "hit": false,
      "t": 101368.26899999984,
      "d": 342.1047499999986,
      "v": 95
    },
    {
      "midi": 54,
      "hit": false,
      "t": 101368.26899999987,
      "d": 131.57875000000058,
      "v": 90
    },
    {
      "midi": 78,
      "hit": false,
      "t": 101368.26899999988,
      "d": 342.1047499999986,
      "v": 100
    },
    {
      "midi": 85,
      "hit": false,
      "t": 101684.05799999984,
      "d": 315.78899999998976,
      "v": 75
    },
    {
      "midi": 88,
      "hit": false,
      "t": 101684.05799999984,
      "d": 315.78899999998976,
      "v": 87
    },
    {
      "midi": 91,
      "hit": false,
      "t": 101684.05799999984,
      "d": 315.78899999998976,
      "v": 100
    },
    {
      "midi": 58,
      "hit": false,
      "t": 101684.05799999987,
      "d": 157.89449999999488,
      "v": 60
    },
    {
      "midi": 61,
      "hit": false,
      "t": 101684.05799999987,
      "d": 157.89449999999488,
      "v": 78
    },
    {
      "midi": 64,
      "hit": false,
      "t": 101684.05799999987,
      "d": 157.89449999999488,
      "v": 88
    },
    {
      "midi": 79,
      "hit": false,
      "t": 101684.05799999989,
      "d": 315.78899999998976,
      "v": 105
    },
    {
      "midi": 85,
      "hit": false,
      "t": 101999.84699999983,
      "d": 315.7890000000043,
      "v": 77
    },
    {
      "midi": 88,
      "hit": false,
      "t": 101999.84699999983,
      "d": 315.7890000000043,
      "v": 83
    },
    {
      "midi": 90,
      "hit": false,
      "t": 101999.84699999983,
      "d": 342.1047499999986,
      "v": 97
    },
    {
      "midi": 78,
      "hit": false,
      "t": 101999.84699999988,
      "d": 342.1047499999986,
      "v": 102
    },
    {
      "midi": 46,
      "hit": false,
      "t": 102315.63599999972,
      "d": 157.89449999999488,
      "v": 105
    },
    {
      "midi": 85,
      "hit": false,
      "t": 102315.63599999984,
      "d": 315.78899999998976,
      "v": 79
    },
    {
      "midi": 88,
      "hit": false,
      "t": 102315.63599999984,
      "d": 315.78899999998976,
      "v": 86
    },
    {
      "midi": 89,
      "hit": false,
      "t": 102315.63599999984,
      "d": 342.10474999998405,
      "v": 102
    },
    {
      "midi": 77,
      "hit": false,
      "t": 102315.63599999988,
      "d": 342.10474999998405,
      "v": 107
    },
    {
      "midi": 88,
      "hit": false,
      "t": 102631.42499999983,
      "d": 315.78899999998976,
      "v": 89
    },
    {
      "midi": 85,
      "hit": false,
      "t": 102631.42499999983,
      "d": 342.10474999998405,
      "v": 81
    },
    {
      "midi": 90,
      "hit": false,
      "t": 102631.42499999983,
      "d": 342.10474999998405,
      "v": 108
    },
    {
      "midi": 78,
      "hit": false,
      "t": 102631.42499999987,
      "d": 342.10474999998405,
      "v": 113
    },
    {
      "midi": 58,
      "hit": false,
      "t": 102631.42499999987,
      "d": 131.57875000000058,
      "v": 88
    },
    {
      "midi": 61,
      "hit": false,
      "t": 102631.42499999987,
      "d": 131.57875000000058,
      "v": 70
    },
    {
      "midi": 64,
      "hit": false,
      "t": 102631.42499999987,
      "d": 131.57875000000058,
      "v": 95
    },
    {
      "midi": 35,
      "hit": false,
      "t": 102947.21399999972,
      "d": 184.21025000000373,
      "v": 110
    },
    {
      "midi": 88,
      "hit": false,
      "t": 102947.21399999982,
      "d": 1263.1559999999881,
      "v": 63
    },
    {
      "midi": 91,
      "hit": false,
      "t": 102947.21399999982,
      "d": 1263.1559999999881,
      "v": 75
    },
    {
      "midi": 96,
      "hit": false,
      "t": 102947.21399999982,
      "d": 1289.4717499999824,
      "v": 107
    },
    {
      "midi": 76,
      "hit": false,
      "t": 102947.21399999986,
      "d": 1263.1559999999881,
      "v": 68
    },
    {
      "midi": 79,
      "hit": false,
      "t": 102947.21399999986,
      "d": 1263.1559999999881,
      "v": 80
    },
    {
      "midi": 84,
      "hit": false,
      "t": 102947.21399999986,
      "d": 1289.4717499999824,
      "v": 112
    },
    {
      "midi": 47,
      "hit": false,
      "t": 103263.00299999972,
      "d": 157.89449999999488,
      "v": 95
    },
    {
      "midi": 52,
      "hit": false,
      "t": 103263.00299999987,
      "d": 131.57875000000058,
      "v": 90
    },
    {
      "midi": 55,
      "hit": false,
      "t": 103263.00299999987,
      "d": 131.57875000000058,
      "v": 105
    },
    {
      "midi": 55,
      "hit": false,
      "t": 103578.79199999987,
      "d": 105.26300000000629,
      "v": 87
    },
    {
      "midi": 64,
      "hit": false,
      "t": 103578.79199999987,
      "d": 105.26300000000629,
      "v": 98
    },
    {
      "midi": 64,
      "hit": false,
      "t": 103894.58099999987,
      "d": 118.42087499999616,
      "v": 84
    },
    {
      "midi": 67,
      "hit": false,
      "t": 103894.58099999987,
      "d": 118.42087499999616,
      "v": 100
    },
    {
      "midi": 47,
      "hit": false,
      "t": 104210.36999999972,
      "d": 157.89449999999488,
      "v": 88
    },
    {
      "midi": 88,
      "hit": false,
      "t": 104210.3699999998,
      "d": 631.5779999999941,
      "v": 65
    },
    {
      "midi": 91,
      "hit": false,
      "t": 104210.3699999998,
      "d": 631.5779999999941,
      "v": 78
    },
    {
      "midi": 95,
      "hit": false,
      "t": 104210.3699999998,
      "d": 631.5779999999941,
      "v": 92
    },
    {
      "midi": 76,
      "hit": false,
      "t": 104210.36999999985,
      "d": 631.5779999999941,
      "v": 70
    },
    {
      "midi": 79,
      "hit": false,
      "t": 104210.36999999985,
      "d": 631.5779999999941,
      "v": 83
    },
    {
      "midi": 83,
      "hit": false,
      "t": 104210.36999999985,
      "d": 631.5779999999941,
      "v": 97
    },
    {
      "midi": 55,
      "hit": false,
      "t": 104526.15899999987,
      "d": 157.89449999999488,
      "v": 80
    },
    {
      "midi": 64,
      "hit": false,
      "t": 104526.15899999987,
      "d": 157.89449999999488,
      "v": 92
    },
    {
      "midi": 35,
      "hit": false,
      "t": 104841.94799999971,
      "d": 631.5779999999941,
      "v": 90
    },
    {
      "midi": 47,
      "hit": false,
      "t": 104841.94799999971,
      "d": 631.5779999999941,
      "v": 68
    },
    {
      "midi": 87,
      "hit": false,
      "t": 105157.7369999998,
      "d": 947.3669999999984,
      "v": 90
    },
    {
      "midi": 81,
      "hit": false,
      "t": 105157.7369999998,
      "d": 973.6827499999927,
      "v": 65
    },
    {
      "midi": 75,
      "hit": false,
      "t": 105157.73699999985,
      "d": 947.3669999999984,
      "v": 95
    },
    {
      "midi": 69,
      "hit": false,
      "t": 105157.73699999985,
      "d": 973.6827499999927,
      "v": 70
    },
    {
      "midi": 57,
      "hit": false,
      "t": 105157.73699999986,
      "d": 131.57875000000058,
      "v": 85
    },
    {
      "midi": 63,
      "hit": false,
      "t": 105157.73699999986,
      "d": 131.57875000000058,
      "v": 95
    },
    {
      "midi": 63,
      "hit": false,
      "t": 105473.52599999987,
      "d": 157.89449999999488,
      "v": 75
    },
    {
      "midi": 67,
      "hit": false,
      "t": 105473.52599999987,
      "d": 157.89449999999488,
      "v": 88
    },
    {
      "midi": 47,
      "hit": false,
      "t": 106105.1039999997,
      "d": 157.89449999999488,
      "v": 82
    },
    {
      "midi": 87,
      "hit": false,
      "t": 106105.1039999998,
      "d": 342.10474999998405,
      "v": 58
    },
    {
      "midi": 91,
      "hit": false,
      "t": 106105.1039999998,
      "d": 342.10474999998405,
      "v": 78
    },
    {
      "midi": 75,
      "hit": false,
      "t": 106105.10399999985,
      "d": 342.10474999998405,
      "v": 63
    },
    {
      "midi": 79,
      "hit": false,
      "t": 106105.10399999985,
      "d": 342.10474999998405,
      "v": 83
    },
    {
      "midi": 90,
      "hit": false,
      "t": 106420.89299999979,
      "d": 342.10474999998405,
      "v": 70
    },
    {
      "midi": 78,
      "hit": false,
      "t": 106420.89299999984,
      "d": 342.10474999998405,
      "v": 75
    },
    {
      "midi": 57,
      "hit": false,
      "t": 106420.89299999987,
      "d": 131.57875000000058,
      "v": 68
    },
    {
      "midi": 63,
      "hit": false,
      "t": 106420.89299999987,
      "d": 131.57875000000058,
      "v": 80
    },
    {
      "midi": 36,
      "hit": false,
      "t": 106736.6819999997,
      "d": 184.21025000000373,
      "v": 75
    },
    {
      "midi": 79,
      "hit": false,
      "t": 106736.68199999978,
      "d": 1894.7339999999967,
      "v": 50
    },
    {
      "midi": 88,
      "hit": false,
      "t": 106736.68199999978,
      "d": 1894.7339999999967,
      "v": 65
    },
    {
      "midi": 67,
      "hit": false,
      "t": 106736.68199999983,
      "d": 1894.7339999999967,
      "v": 55
    },
    {
      "midi": 76,
      "hit": false,
      "t": 106736.68199999983,
      "d": 1894.7339999999967,
      "v": 70
    },
    {
      "midi": 48,
      "hit": false,
      "t": 107052.4709999997,
      "d": 131.57875000000058,
      "v": 60
    },
    {
      "midi": 52,
      "hit": false,
      "t": 107052.47099999986,
      "d": 131.57875000000058,
      "v": 83
    },
    {
      "midi": 52,
      "hit": false,
      "t": 107368.25999999986,
      "d": 105.26300000000629,
      "v": 57
    },
    {
      "midi": 55,
      "hit": false,
      "t": 107368.25999999986,
      "d": 105.26300000000629,
      "v": 73
    },
    {
      "midi": 55,
      "hit": false,
      "t": 107684.04899999987,
      "d": 118.42087499999616,
      "v": 53
    },
    {
      "midi": 64,
      "hit": false,
      "t": 107684.04899999987,
      "d": 118.42087499999616,
      "v": 76
    },
    {
      "midi": 48,
      "hit": false,
      "t": 107999.8379999997,
      "d": 157.89449999999488,
      "v": 65
    },
    {
      "midi": 55,
      "hit": false,
      "t": 108315.62699999986,
      "d": 157.89449999999488,
      "v": 48
    },
    {
      "midi": 60,
      "hit": false,
      "t": 108315.62699999986,
      "d": 157.89449999999488,
      "v": 60
    },
    {
      "midi": 64,
      "hit": false,
      "t": 108315.62699999986,
      "d": 157.89449999999488,
      "v": 68
    },
    {
      "midi": 31,
      "hit": false,
      "t": 108631.41599999969,
      "d": 631.5779999999941,
      "v": 70
    },
    {
      "midi": 43,
      "hit": false,
      "t": 108631.41599999969,
      "d": 631.5779999999941,
      "v": 52
    },
    {
      "midi": 64,
      "hit": false,
      "t": 108631.41599999982,
      "d": 184.21025000000373,
      "v": 50
    },
    {
      "midi": 76,
      "hit": false,
      "t": 108947.20499999978,
      "d": 131.57875000000058,
      "v": 37
    },
    {
      "midi": 79,
      "hit": false,
      "t": 108947.20499999978,
      "d": 131.57875000000058,
      "v": 50
    },
    {
      "midi": 52,
      "hit": false,
      "t": 108947.20499999986,
      "d": 315.7890000000043,
      "v": 48
    },
    {
      "midi": 55,
      "hit": false,
      "t": 108947.20499999986,
      "d": 315.7890000000043,
      "v": 55
    },
    {
      "midi": 59,
      "hit": false,
      "t": 108947.20499999986,
      "d": 342.1047499999986,
      "v": 80
    },
    {
      "midi": 79,
      "hit": false,
      "t": 109262.99399999979,
      "d": 157.89449999999488,
      "v": 33
    },
    {
      "midi": 88,
      "hit": false,
      "t": 109262.99399999979,
      "d": 157.89449999999488,
      "v": 47
    },
    {
      "midi": 52,
      "hit": false,
      "t": 109262.99399999986,
      "d": 315.78899999998976,
      "v": 45
    },
    {
      "midi": 55,
      "hit": false,
      "t": 109262.99399999986,
      "d": 315.78899999998976,
      "v": 52
    },
    {
      "midi": 60,
      "hit": false,
      "t": 109262.99399999986,
      "d": 342.10474999998405,
      "v": 75
    },
    {
      "midi": 52,
      "hit": false,
      "t": 109578.78299999985,
      "d": 315.78899999998976,
      "v": 43
    },
    {
      "midi": 55,
      "hit": false,
      "t": 109578.78299999985,
      "d": 315.78899999998976,
      "v": 50
    },
    {
      "midi": 59,
      "hit": false,
      "t": 109578.78299999985,
      "d": 342.10474999998405,
      "v": 77
    },
    {
      "midi": 31,
      "hit": false,
      "t": 109894.57199999968,
      "d": 157.89449999999488,
      "v": 62
    },
    {
      "midi": 76,
      "hit": false,
      "t": 109894.57199999983,
      "d": 131.57875000000058,
      "v": 43
    },
    {
      "midi": 52,
      "hit": false,
      "t": 109894.57199999984,
      "d": 315.78899999998976,
      "v": 46
    },
    {
      "midi": 55,
      "hit": false,
      "t": 109894.57199999984,
      "d": 315.78899999998976,
      "v": 53
    },
    {
      "midi": 58,
      "hit": false,
      "t": 109894.57199999984,
      "d": 342.10474999998405,
      "v": 74
    },
    {
      "midi": 43,
      "hit": false,
      "t": 110210.36099999967,
      "d": 131.57875000000058,
      "v": 55
    },
    {
      "midi": 79,
      "hit": false,
      "t": 110210.36099999979,
      "d": 157.89449999999488,
      "v": 31
    },
    {
      "midi": 88,
      "hit": false,
      "t": 110210.36099999979,
      "d": 157.89449999999488,
      "v": 45
    },
    {
      "midi": 52,
      "hit": false,
      "t": 110210.36099999983,
      "d": 315.78899999998976,
      "v": 44
    },
    {
      "midi": 55,
      "hit": false,
      "t": 110210.36099999983,
      "d": 315.78899999998976,
      "v": 51
    },
    {
      "midi": 59,
      "hit": false,
      "t": 110210.36099999983,
      "d": 342.10474999998405,
      "v": 68
    },
    {
      "midi": 33,
      "hit": false,
      "t": 110526.14999999967,
      "d": 631.5779999999941,
      "v": 60
    },
    {
      "midi": 45,
      "hit": false,
      "t": 110526.14999999967,
      "d": 631.5779999999941,
      "v": 48
    },
    {
      "midi": 76,
      "hit": false,
      "t": 110526.14999999982,
      "d": 157.89449999999488,
      "v": 45
    },
    {
      "midi": 62,
      "hit": false,
      "t": 110526.14999999982,
      "d": 1289.4717499999824,
      "v": 70
    },
    {
      "midi": 52,
      "hit": false,
      "t": 110526.14999999982,
      "d": 1894.7339999999822,
      "v": 40
    },
    {
      "midi": 57,
      "hit": false,
      "t": 110526.14999999982,
      "d": 1894.7339999999822,
      "v": 48
    },
    {
      "midi": 69,
      "hit": false,
      "t": 110841.93899999978,
      "d": 131.57875000000058,
      "v": 43
    },
    {
      "midi": 76,
      "hit": false,
      "t": 111157.72799999978,
      "d": 105.26300000000629,
      "v": 40
    },
    {
      "midi": 81,
      "hit": false,
      "t": 111473.51699999979,
      "d": 131.57875000000058,
      "v": 35
    },
    {
      "midi": 73,
      "hit": false,
      "t": 111736.67449999982,
      "d": 184.21025000000373,
      "v": 37
    },
    {
      "midi": 76,
      "hit": false,
      "t": 111749.8323749998,
      "d": 131.57874999998603,
      "v": 27
    },
    {
      "midi": 81,
      "hit": false,
      "t": 111776.14812499979,
      "d": 131.57874999998603,
      "v": 30
    },
    {
      "midi": 45,
      "hit": false,
      "t": 111789.30599999966,
      "d": 157.89449999999488,
      "v": 58
    },
    {
      "midi": 61,
      "hit": false,
      "t": 111789.30599999981,
      "d": 657.8937499999884,
      "v": 65
    },
    {
      "midi": 88,
      "hit": false,
      "t": 111815.62174999979,
      "d": 131.57874999998603,
      "v": 45
    },
    {
      "midi": 33,
      "hit": false,
      "t": 112105.09499999965,
      "d": 131.57875000000058,
      "v": 48
    },
    {
      "midi": 34,
      "hit": false,
      "t": 112420.88399999966,
      "d": 631.5779999999941,
      "v": 50
    },
    {
      "midi": 46,
      "hit": false,
      "t": 112420.88399999966,
      "d": 631.5779999999941,
      "v": 40
    },
    {
      "midi": 55,
      "hit": false,
      "t": 112420.8839999998,
      "d": 947.3669999999984,
      "v": 25
    },
    {
      "midi": 52,
      "hit": false,
      "t": 112420.8839999998,
      "d": 973.6827499999927,
      "v": 32
    },
    {
      "midi": 60,
      "hit": false,
      "t": 112420.8839999998,
      "d": 973.6827499999927,
      "v": 60
    },
    {
      "midi": 76,
      "hit": false,
      "t": 112420.88399999982,
      "d": 184.21025000000373,
      "v": 50
    },
    {
      "midi": 79,
      "hit": false,
      "t": 112736.67299999978,
      "d": 131.57875000000058,
      "v": 27
    },
    {
      "midi": 88,
      "hit": false,
      "t": 112736.67299999978,
      "d": 131.57875000000058,
      "v": 40
    },
    {
      "midi": 88,
      "hit": false,
      "t": 113052.46199999978,
      "d": 157.89449999999488,
      "v": 23
    },
    {
      "midi": 91,
      "hit": false,
      "t": 113052.46199999978,
      "d": 157.89449999999488,
      "v": 37
    },
    {
      "midi": 55,
      "hit": false,
      "t": 113368.2509999998,
      "d": 342.10474999998405,
      "v": 62
    },
    {
      "midi": 34,
      "hit": false,
      "t": 113684.03999999964,
      "d": 631.5779999999941,
      "v": 42
    },
    {
      "midi": 54,
      "hit": false,
      "t": 113684.03999999979,
      "d": 342.10474999998405,
      "v": 58
    },
    {
      "midi": 72,
      "hit": false,
      "t": 113684.03999999982,
      "d": 131.57875000000058,
      "v": 15
    },
    {
      "midi": 76,
      "hit": false,
      "t": 113684.03999999982,
      "d": 131.57875000000058,
      "v": 22
    },
    {
      "midi": 79,
      "hit": false,
      "t": 113684.03999999982,
      "d": 131.57875000000058,
      "v": 43
    },
    {
      "midi": 88,
      "hit": false,
      "t": 113999.82899999978,
      "d": 157.89449999999488,
      "v": 21
    },
    {
      "midi": 91,
      "hit": false,
      "t": 113999.82899999978,
      "d": 157.89449999999488,
      "v": 35
    },
    {
      "midi": 52,
      "hit": false,
      "t": 113999.82899999978,
      "d": 315.78899999998976,
      "v": 53
    },
    {
      "midi": 35,
      "hit": false,
      "t": 114315.61799999964,
      "d": 631.5779999999941,
      "v": 45
    },
    {
      "midi": 47,
      "hit": false,
      "t": 114315.61799999964,
      "d": 631.5779999999941,
      "v": 30
    },
    {
      "midi": 55,
      "hit": false,
      "t": 114315.61799999977,
      "d": 1289.471749999997,
      "v": 38
    },
    {
      "midi": 51,
      "hit": false,
      "t": 114315.61799999977,
      "d": 1894.7339999999967,
      "v": 25
    },
    {
      "midi": 59,
      "hit": false,
      "t": 114315.61799999977,
      "d": 1894.7339999999967,
      "v": 55
    },
    {
      "midi": 71,
      "hit": false,
      "t": 114315.61799999981,
      "d": 157.89449999999488,
      "v": 45
    },
    {
      "midi": 75,
      "hit": false,
      "t": 114631.40699999977,
      "d": 131.57875000000058,
      "v": 33
    },
    {
      "midi": 79,
      "hit": false,
      "t": 114947.19599999978,
      "d": 105.26300000000629,
      "v": 30
    },
    {
      "midi": 83,
      "hit": false,
      "t": 115262.98499999978,
      "d": 131.57875000000058,
      "v": 25
    },
    {
      "midi": 71,
      "hit": false,
      "t": 115526.14249999981,
      "d": 184.21025000000373,
      "v": 38
    },
    {
      "midi": 75,
      "hit": false,
      "t": 115539.30037499979,
      "d": 131.57874999998603,
      "v": 17
    },
    {
      "midi": 81,
      "hit": false,
      "t": 115565.61612499978,
      "d": 131.57874999998603,
      "v": 20
    },
    {
      "midi": 47,
      "hit": false,
      "t": 115578.77399999963,
      "d": 157.89449999999488,
      "v": 40
    },
    {
      "midi": 54,
      "hit": false,
      "t": 115578.77399999977,
      "d": 631.5779999999941,
      "v": 33
    },
    {
      "midi": 87,
      "hit": false,
      "t": 115605.08974999978,
      "d": 131.57874999998603,
      "v": 35
    },
    {
      "midi": 35,
      "hit": false,
      "t": 115894.56299999962,
      "d": 131.57875000000058,
      "v": 33
    },
    {
      "midi": 36,
      "hit": false,
      "t": 116210.35199999962,
      "d": 631.5779999999941,
      "v": 35
    },
    {
      "midi": 48,
      "hit": false,
      "t": 116210.35199999962,
      "d": 631.5779999999941,
      "v": 23
    },
    {
      "midi": 76,
      "hit": false,
      "t": 116210.35199999981,
      "d": 184.21025000000373,
      "v": 40
    },
    {
      "midi": 84,
      "hit": false,
      "t": 116526.14099999977,
      "d": 131.57875000000058,
      "v": 30
    },
    {
      "midi": 52,
      "hit": false,
      "t": 116526.14099999977,
      "d": 315.7890000000043,
      "v": 40
    },
    {
      "midi": 55,
      "hit": false,
      "t": 116526.14099999977,
      "d": 342.1047499999986,
      "v": 60
    },
    {
      "midi": 84,
      "hit": false,
      "t": 116841.92999999977,
      "d": 157.89449999999488,
      "v": 15
    },
    {
      "midi": 88,
      "hit": false,
      "t": 116841.92999999977,
      "d": 157.89449999999488,
      "v": 27
    },
    {
      "midi": 52,
      "hit": false,
      "t": 116841.92999999977,
      "d": 315.78899999998976,
      "v": 42
    },
    {
      "midi": 57,
      "hit": false,
      "t": 116841.92999999977,
      "d": 342.10474999998405,
      "v": 62
    },
    {
      "midi": 52,
      "hit": false,
      "t": 117157.71899999976,
      "d": 315.78899999998976,
      "v": 38
    },
    {
      "midi": 55,
      "hit": false,
      "t": 117157.71899999976,
      "d": 342.10474999998405,
      "v": 59
    },
    {
      "midi": 48,
      "hit": false,
      "t": 117473.50799999961,
      "d": 631.5779999999941,
      "v": 28
    },
    {
      "midi": 52,
      "hit": false,
      "t": 117473.50799999975,
      "d": 315.78899999998976,
      "v": 33
    },
    {
      "midi": 54,
      "hit": false,
      "t": 117473.50799999975,
      "d": 342.10474999998405,
      "v": 53
    },
    {
      "midi": 76,
      "hit": false,
      "t": 117473.50799999981,
      "d": 131.57875000000058,
      "v": 32
    },
    {
      "midi": 52,
      "hit": false,
      "t": 117789.29699999974,
      "d": 315.78899999998976,
      "v": 28
    },
    {
      "midi": 55,
      "hit": false,
      "t": 117789.29699999974,
      "d": 342.10474999998405,
      "v": 45
    },
    {
      "midi": 84,
      "hit": false,
      "t": 117789.29699999977,
      "d": 157.89449999999488,
      "v": 17
    },
    {
      "midi": 88,
      "hit": false,
      "t": 117789.29699999977,
      "d": 157.89449999999488,
      "v": 27
    },
    {
      "midi": 30,
      "hit": false,
      "t": 118105.0859999996,
      "d": 631.5779999999941,
      "v": 30
    },
    {
      "midi": 42,
      "hit": false,
      "t": 118105.0859999996,
      "d": 631.5779999999941,
      "v": 18
    },
    {
      "midi": 48,
      "hit": false,
      "t": 118105.08599999973,
      "d": 1263.1559999999881,
      "v": 30
    },
    {
      "midi": 52,
      "hit": false,
      "t": 118105.08599999973,
      "d": 1263.1559999999881,
      "v": 25
    },
    {
      "midi": 59,
      "hit": false,
      "t": 118105.08599999973,
      "d": 1289.4717499999824,
      "v": 50
    },
    {
      "midi": 64,
      "hit": false,
      "t": 118105.0859999998,
      "d": 157.89449999999488,
      "v": 30
    },
    {
      "midi": 76,
      "hit": false,
      "t": 118420.87499999977,
      "d": 131.57875000000058,
      "v": 25
    },
    {
      "midi": 81,
      "hit": false,
      "t": 118736.66399999977,
      "d": 105.26300000000629,
      "v": 22
    },
    {
      "midi": 84,
      "hit": false,
      "t": 119052.45299999978,
      "d": 131.57875000000058,
      "v": 17
    },
    {
      "midi": 69,
      "hit": false,
      "t": 119315.6104999998,
      "d": 184.21025000000373,
      "v": 24
    },
    {
      "midi": 72,
      "hit": false,
      "t": 119355.0841249998,
      "d": 184.21025000000373,
      "v": 10
    },
    {
      "midi": 42,
      "hit": false,
      "t": 119368.24199999959,
      "d": 631.5779999999941,
      "v": 23
    },
    {
      "midi": 48,
      "hit": false,
      "t": 119368.24199999972,
      "d": 631.5779999999941,
      "v": 27
    },
    {
      "midi": 52,
      "hit": false,
      "t": 119368.24199999972,
      "d": 631.5779999999941,
      "v": 20
    },
    {
      "midi": 57,
      "hit": false,
      "t": 119368.24199999972,
      "d": 631.5779999999941,
      "v": 42
    },
    {
      "midi": 76,
      "hit": false,
      "t": 119381.39987499977,
      "d": 131.57874999998603,
      "v": 12
    },
    {
      "midi": 81,
      "hit": false,
      "t": 119407.71562499976,
      "d": 131.57874999998603,
      "v": 14
    },
    {
      "midi": 88,
      "hit": false,
      "t": 119447.18924999976,
      "d": 131.57874999998603,
      "v": 30
    },
    {
      "midi": 35,
      "hit": false,
      "t": 119999.81999999958,
      "d": 631.5779999999941,
      "v": 25
    },
    {
      "midi": 47,
      "hit": false,
      "t": 119999.81999999972,
      "d": 1263.1560000000027,
      "v": 20
    },
    {
      "midi": 51,
      "hit": false,
      "t": 119999.81999999972,
      "d": 1263.1560000000027,
      "v": 32
    },
    {
      "midi": 55,
      "hit": false,
      "t": 119999.81999999972,
      "d": 1289.471749999997,
      "v": 45
    },
    {
      "midi": 59,
      "hit": false,
      "t": 119999.8199999998,
      "d": 184.21025000000373,
      "v": 20
    },
    {
      "midi": 71,
      "hit": false,
      "t": 120315.60899999975,
      "d": 131.57875000000058,
      "v": 32
    },
    {
      "midi": 75,
      "hit": false,
      "t": 120631.39799999975,
      "d": 157.89449999999488,
      "v": 15
    },
    {
      "midi": 79,
      "hit": false,
      "t": 120631.39799999975,
      "d": 157.89449999999488,
      "v": 20
    },
    {
      "midi": 83,
      "hit": false,
      "t": 120631.39799999975,
      "d": 157.89449999999488,
      "v": 29
    },
    {
      "midi": 35,
      "hit": false,
      "t": 121262.97599999957,
      "d": 631.5779999999941,
      "v": 28
    },
    {
      "midi": 47,
      "hit": false,
      "t": 121262.97599999972,
      "d": 657.8937499999884,
      "v": 18
    },
    {
      "midi": 51,
      "hit": false,
      "t": 121262.97599999972,
      "d": 657.8937499999884,
      "v": 25
    },
    {
      "midi": 54,
      "hit": false,
      "t": 121262.97599999972,
      "d": 657.8937499999884,
      "v": 36
    },
    {
      "midi": 59,
      "hit": false,
      "t": 121262.9759999998,
      "d": 131.57875000000058,
      "v": 10
    },
    {
      "midi": 69,
      "hit": false,
      "t": 121262.9759999998,
      "d": 131.57875000000058,
      "v": 13
    },
    {
      "midi": 75,
      "hit": false,
      "t": 121578.76499999975,
      "d": 157.89449999999488,
      "v": 20
    },
    {
      "midi": 78,
      "hit": false,
      "t": 121578.76499999975,
      "d": 157.89449999999488,
      "v": 10
    },
    {
      "midi": 83,
      "hit": false,
      "t": 121578.76499999975,
      "d": 157.89449999999488,
      "v": 27
    },
    {
      "midi": 28,
      "hit": false,
      "t": 121894.55399999957,
      "d": 657.8937499999884,
      "v": 30
    },
    {
      "midi": 52,
      "hit": false,
      "t": 121894.55399999971,
      "d": 1789.4709999999905,
      "v": 40
    },
    {
      "midi": 64,
      "hit": false,
      "t": 121894.5539999998,
      "d": 1210.5244999999995,
      "v": 15
    },
    {
      "midi": 59,
      "hit": false,
      "t": 121894.5539999998,
      "d": 1263.1560000000027,
      "v": 8
    },
    {
      "midi": 67,
      "hit": false,
      "t": 121894.5539999998,
      "d": 1263.1560000000027,
      "v": 20
    },
    {
      "midi": 76,
      "hit": false,
      "t": 122210.34299999975,
      "d": 131.57875000000058,
      "v": 25
    },
    {
      "midi": 40,
      "hit": false,
      "t": 122526.13199999956,
      "d": 631.5779999999941,
      "v": 22
    },
    {
      "midi": 76,
      "hit": false,
      "t": 122526.13199999975,
      "d": 105.26300000000629,
      "v": 18
    },
    {
      "midi": 79,
      "hit": false,
      "t": 122526.13199999975,
      "d": 105.26300000000629,
      "v": 22
    },
    {
      "midi": 79,
      "hit": false,
      "t": 122841.92099999975,
      "d": 131.57875000000058,
      "v": 16
    },
    {
      "midi": 83,
      "hit": false,
      "t": 122841.92099999975,
      "d": 131.57875000000058,
      "v": 17
    },
    {
      "midi": 64,
      "hit": false,
      "t": 123105.0784999998,
      "d": 184.21025000000373,
      "v": 18
    },
    {
      "midi": 71,
      "hit": false,
      "t": 123144.5521249998,
      "d": 184.21025000000373,
      "v": 5
    },
    {
      "midi": 76,
      "hit": false,
      "t": 123170.86787499975,
      "d": 131.57874999998603,
      "v": 10
    },
    {
      "midi": 79,
      "hit": false,
      "t": 123197.18362499974,
      "d": 131.57874999998603,
      "v": 12
    },
    {
      "midi": 88,
      "hit": false,
      "t": 123236.65724999974,
      "d": 131.57874999998603,
      "v": 25
    },
    {
      "midi": 52,
      "hit": false,
      "t": 123789.28799999955,
      "d": 236.84174999999232,
      "v": 70
    },
    {
      "midi": 83,
      "hit": false,
      "t": 123789.28799999972,
      "d": 131.57875000000058,
      "v": 65
    },
    {
      "midi": 80,
      "hit": false,
      "t": 123789.28799999972,
      "d": 315.7890000000043,
      "v": 40
    },
    {
      "midi": 85,
      "hit": false,
      "t": 123894.55099999973,
      "d": 105.26299999999173,
      "v": 52
    },
    {
      "midi": 83,
      "hit": false,
      "t": 123973.49824999973,
      "d": 447.3677500000049,
      "v": 55
    },
    {
      "midi": 56,
      "hit": false,
      "t": 123999.81399999955,
      "d": 157.89449999999488,
      "v": 62
    },
    {
      "midi": 59,
      "hit": false,
      "t": 124118.23487499954,
      "d": 197.3681249999936,
      "v": 58
    },
    {
      "midi": 64,
      "hit": false,
      "t": 124289.2872499997,
      "d": 157.89449999999488,
      "v": 60
    },
    {
      "midi": 68,
      "hit": false,
      "t": 124420.8659999997,
      "d": 210.52599999998347,
      "v": 57
    },
    {
      "midi": 76,
      "hit": false,
      "t": 124420.86599999973,
      "d": 131.57875000000058,
      "v": 48
    },
    {
      "midi": 80,
      "hit": false,
      "t": 124420.86599999973,
      "d": 131.57875000000058,
      "v": 60
    },
    {
      "midi": 71,
      "hit": false,
      "t": 124605.07624999969,
      "d": 157.89449999999488,
      "v": 53
    },
    {
      "midi": 68,
      "hit": false,
      "t": 124736.6549999997,
      "d": 171.05237499998475,
      "v": 55
    },
    {
      "midi": 80,
      "hit": false,
      "t": 124736.65499999974,
      "d": 105.26300000000629,
      "v": 43
    },
    {
      "midi": 83,
      "hit": false,
      "t": 124736.65499999974,
      "d": 105.26300000000629,
      "v": 53
    },
    {
      "midi": 71,
      "hit": false,
      "t": 124881.39162499968,
      "d": 197.3681249999936,
      "v": 58
    },
    {
      "midi": 64,
      "hit": false,
      "t": 125052.44399999968,
      "d": 315.78899999998976,
      "v": 38
    },
    {
      "midi": 68,
      "hit": false,
      "t": 125052.44399999968,
      "d": 315.78899999998976,
      "v": 50
    },
    {
      "midi": 76,
      "hit": false,
      "t": 125052.44399999974,
      "d": 157.89449999999488,
      "v": 45
    },
    {
      "midi": 80,
      "hit": false,
      "t": 125052.44399999974,
      "d": 157.89449999999488,
      "v": 55
    },
    {
      "midi": 57,
      "hit": false,
      "t": 125684.02199999953,
      "d": 236.84175000000687,
      "v": 65
    },
    {
      "midi": 85,
      "hit": false,
      "t": 125684.02199999974,
      "d": 131.57875000000058,
      "v": 65
    },
    {
      "midi": 81,
      "hit": false,
      "t": 125684.02199999974,
      "d": 315.7890000000043,
      "v": 40
    },
    {
      "midi": 87,
      "hit": false,
      "t": 125789.28499999974,
      "d": 105.26299999999173,
      "v": 52
    },
    {
      "midi": 61,
      "hit": false,
      "t": 125868.23224999954,
      "d": 157.89449999999488,
      "v": 57
    },
    {
      "midi": 85,
      "hit": false,
      "t": 125868.23224999974,
      "d": 447.3677500000049,
      "v": 55
    },
    {
      "midi": 64,
      "hit": false,
      "t": 125999.81099999954,
      "d": 197.3681249999936,
      "v": 53
    },
    {
      "midi": 66,
      "hit": false,
      "t": 126170.86337499967,
      "d": 171.0523749999993,
      "v": 55
    },
    {
      "midi": 69,
      "hit": false,
      "t": 126315.59999999967,
      "d": 197.3681249999936,
      "v": 58
    },
    {
      "midi": 78,
      "hit": false,
      "t": 126315.59999999974,
      "d": 131.57875000000058,
      "v": 48
    },
    {
      "midi": 81,
      "hit": false,
      "t": 126315.59999999974,
      "d": 131.57875000000058,
      "v": 60
    },
    {
      "midi": 73,
      "hit": false,
      "t": 126486.65237499967,
      "d": 171.05237499998475,
      "v": 53
    },
    {
      "midi": 69,
      "hit": false,
      "t": 126631.38899999966,
      "d": 157.89449999999488,
      "v": 55
    },
    {
      "midi": 81,
      "hit": false,
      "t": 126631.38899999975,
      "d": 105.26300000000629,
      "v": 53
    },
    {
      "midi": 85,
      "hit": false,
      "t": 126631.38899999975,
      "d": 105.26300000000629,
      "v": 63
    },
    {
      "midi": 73,
      "hit": false,
      "t": 126762.96774999966,
      "d": 210.52599999998347,
      "v": 52
    },
    {
      "midi": 66,
      "hit": false,
      "t": 126947.17799999965,
      "d": 315.78899999998976,
      "v": 40
    },
    {
      "midi": 69,
      "hit": false,
      "t": 126947.17799999965,
      "d": 315.78899999998976,
      "v": 48
    },
    {
      "midi": 78,
      "hit": false,
      "t": 126947.17799999975,
      "d": 157.89449999999488,
      "v": 55
    },
    {
      "midi": 81,
      "hit": false,
      "t": 126947.17799999975,
      "d": 157.89449999999488,
      "v": 65
    },
    {
      "midi": 47,
      "hit": false,
      "t": 127578.75599999953,
      "d": 657.8937499999884,
      "v": 45
    },
    {
      "midi": 71,
      "hit": false,
      "t": 127578.75599999975,
      "d": 631.5779999999941,
      "v": 43
    },
    {
      "midi": 75,
      "hit": false,
      "t": 127578.75599999975,
      "d": 657.8937499999884,
      "v": 50
    },
    {
      "midi": 69,
      "hit": false,
      "t": 127578.7559999998,
      "d": 631.5779999999941,
      "v": 40
    },
    {
      "midi": 57,
      "hit": false,
      "t": 127815.59774999964,
      "d": 210.52599999999802,
      "v": 45
    },
    {
      "midi": 59,
      "hit": false,
      "t": 127999.80799999964,
      "d": 210.52599999999802,
      "v": 38
    },
    {
      "midi": 49,
      "hit": false,
      "t": 128210.33399999952,
      "d": 657.8937499999884,
      "v": 52
    },
    {
      "midi": 71,
      "hit": false,
      "t": 128210.33399999974,
      "d": 631.5779999999941,
      "v": 47
    },
    {
      "midi": 76,
      "hit": false,
      "t": 128210.33399999974,
      "d": 657.8937499999884,
      "v": 58
    },
    {
      "midi": 69,
      "hit": false,
      "t": 128210.3339999998,
      "d": 631.5779999999941,
      "v": 44
    },
    {
      "midi": 57,
      "hit": false,
      "t": 128434.01787499964,
      "d": 223.6838749999879,
      "v": 54
    },
    {
      "midi": 59,
      "hit": false,
      "t": 128631.38599999963,
      "d": 210.52599999999802,
      "v": 47
    },
    {
      "midi": 51,
      "hit": false,
      "t": 128841.91199999952,
      "d": 657.8937499999884,
      "v": 58
    },
    {
      "midi": 71,
      "hit": false,
      "t": 128841.91199999973,
      "d": 631.5779999999941,
      "v": 50
    },
    {
      "midi": 78,
      "hit": false,
      "t": 128841.91199999973,
      "d": 657.8937499999884,
      "v": 62
    },
    {
      "midi": 69,
      "hit": false,
      "t": 128841.9119999998,
      "d": 657.8937499999884,
      "v": 47
    },
    {
      "midi": 57,
      "hit": false,
      "t": 129065.59587499964,
      "d": 223.6838749999879,
      "v": 57
    },
    {
      "midi": 59,
      "hit": false,
      "t": 129262.96399999963,
      "d": 210.52599999999802,
      "v": 50
    },
    {
      "midi": 52,
      "hit": false,
      "t": 129473.48999999951,
      "d": 657.8937499999884,
      "v": 55
    },
    {
      "midi": 71,
      "hit": false,
      "t": 129473.48999999973,
      "d": 526.3149999999878,
      "v": 48
    },
    {
      "midi": 80,
      "hit": false,
      "t": 129473.48999999973,
      "d": 526.3149999999878,
      "v": 60
    },
    {
      "midi": 68,
      "hit": false,
      "t": 129473.48999999979,
      "d": 631.5779999999941,
      "v": 45
    },
    {
      "midi": 56,
      "hit": false,
      "t": 129697.17387499963,
      "d": 223.6838749999879,
      "v": 55
    },
    {
      "midi": 59,
      "hit": false,
      "t": 129894.54199999962,
      "d": 210.52599999999802,
      "v": 48
    },
    {
      "midi": 76,
      "hit": false,
      "t": 129973.48924999972,
      "d": 157.89449999999488,
      "v": 57
    },
    {
      "midi": 47,
      "hit": false,
      "t": 130105.0679999995,
      "d": 657.8937499999884,
      "v": 46
    },
    {
      "midi": 71,
      "hit": false,
      "t": 130105.06799999972,
      "d": 1263.1560000000027,
      "v": 53
    },
    {
      "midi": 68,
      "hit": false,
      "t": 130105.06799999978,
      "d": 1263.1560000000027,
      "v": 40
    },
    {
      "midi": 56,
      "hit": false,
      "t": 130315.59399999962,
      "d": 223.6838749999879,
      "v": 47
    },
    {
      "midi": 59,
      "hit": false,
      "t": 130512.96212499961,
      "d": 210.52599999999802,
      "v": 40
    },
    {
      "midi": 40,
      "hit": false,
      "t": 130736.6459999995,
      "d": 631.5779999999941,
      "v": 40
    },
    {
      "midi": 56,
      "hit": false,
      "t": 130947.17199999961,
      "d": 210.52600000001257,
      "v": 44
    },
    {
      "midi": 59,
      "hit": false,
      "t": 131131.38224999962,
      "d": 236.84175000002142,
      "v": 37
    },
    {
      "midi": 52,
      "hit": false,
      "t": 131368.2239999995,
      "d": 236.84175000002142,
      "v": 70
    },
    {
      "midi": 83,
      "hit": false,
      "t": 131368.22399999973,
      "d": 131.57875000001513,
      "v": 65
    },
    {
      "midi": 80,
      "hit": false,
      "t": 131368.22399999973,
      "d": 315.78900000001886,
      "v": 40
    },
    {
      "midi": 85,
      "hit": false,
      "t": 131473.48699999973,
      "d": 105.26300000000629,
      "v": 52
    },
    {
      "midi": 83,
      "hit": false,
      "t": 131552.43424999973,
      "d": 447.3677500000049,
      "v": 55
    },
    {
      "midi": 56,
      "hit": false,
      "t": 131578.7499999995,
      "d": 157.89450000002398,
      "v": 62
    },
    {
      "midi": 59,
      "hit": false,
      "t": 131697.17087499952,
      "d": 197.36812500000815,
      "v": 58
    },
    {
      "midi": 64,
      "hit": false,
      "t": 131868.22324999963,
      "d": 157.89449999999488,
      "v": 60
    },
    {
      "midi": 68,
      "hit": false,
      "t": 131999.80199999962,
      "d": 210.52600000001257,
      "v": 57
    },
    {
      "midi": 76,
      "hit": false,
      "t": 131999.80199999973,
      "d": 131.57874999998603,
      "v": 48
    },
    {
      "midi": 80,
      "hit": false,
      "t": 131999.80199999973,
      "d": 131.57874999998603,
      "v": 60
    },
    {
      "midi": 71,
      "hit": false,
      "t": 132184.01224999962,
      "d": 157.89450000002398,
      "v": 53
    },
    {
      "midi": 68,
      "hit": false,
      "t": 132315.59099999964,
      "d": 171.0523750000284,
      "v": 55
    },
    {
      "midi": 80,
      "hit": false,
      "t": 132315.59099999972,
      "d": 105.26300000000629,
      "v": 43
    },
    {
      "midi": 83,
      "hit": false,
      "t": 132315.59099999972,
      "d": 105.26300000000629,
      "v": 53
    },
    {
      "midi": 71,
      "hit": false,
      "t": 132460.32762499966,
      "d": 197.36812500000815,
      "v": 58
    },
    {
      "midi": 64,
      "hit": false,
      "t": 132631.37999999966,
      "d": 315.78900000001886,
      "v": 38
    },
    {
      "midi": 68,
      "hit": false,
      "t": 132631.37999999966,
      "d": 315.78900000001886,
      "v": 50
    },
    {
      "midi": 76,
      "hit": false,
      "t": 132631.37999999974,
      "d": 157.89449999999488,
      "v": 45
    },
    {
      "midi": 80,
      "hit": false,
      "t": 132631.37999999974,
      "d": 157.89449999999488,
      "v": 55
    },
    {
      "midi": 57,
      "hit": false,
      "t": 133262.95799999952,
      "d": 236.84174999999232,
      "v": 35
    },
    {
      "midi": 84,
      "hit": false,
      "t": 133262.95799999975,
      "d": 131.57875000001513,
      "v": 40
    },
    {
      "midi": 81,
      "hit": false,
      "t": 133262.95799999975,
      "d": 315.78900000001886,
      "v": 15
    },
    {
      "midi": 86,
      "hit": false,
      "t": 133368.22099999976,
      "d": 105.26300000000629,
      "v": 27
    },
    {
      "midi": 60,
      "hit": false,
      "t": 133447.16824999952,
      "d": 157.89449999999488,
      "v": 27
    },
    {
      "midi": 84,
      "hit": false,
      "t": 133447.16824999976,
      "d": 447.3677500000049,
      "v": 30
    },
    {
      "midi": 64,
      "hit": false,
      "t": 133578.7469999995,
      "d": 197.36812500000815,
      "v": 23
    },
    {
      "midi": 65,
      "hit": false,
      "t": 133749.79937499968,
      "d": 171.0523749999993,
      "v": 25
    },
    {
      "midi": 69,
      "hit": false,
      "t": 133894.53599999967,
      "d": 197.36812500000815,
      "v": 28
    },
    {
      "midi": 77,
      "hit": false,
      "t": 133894.53599999976,
      "d": 131.57874999998603,
      "v": 23
    },
    {
      "midi": 81,
      "hit": false,
      "t": 133894.53599999976,
      "d": 131.57874999998603,
      "v": 35
    },
    {
      "midi": 72,
      "hit": false,
      "t": 134065.58837499967,
      "d": 171.0523750000284,
      "v": 23
    },
    {
      "midi": 69,
      "hit": false,
      "t": 134210.3249999997,
      "d": 157.89450000002398,
      "v": 25
    },
    {
      "midi": 81,
      "hit": false,
      "t": 134210.32499999975,
      "d": 105.26300000000629,
      "v": 28
    },
    {
      "midi": 84,
      "hit": false,
      "t": 134210.32499999975,
      "d": 105.26300000000629,
      "v": 38
    },
    {
      "midi": 72,
      "hit": false,
      "t": 134341.9037499997,
      "d": 210.52600000001257,
      "v": 22
    },
    {
      "midi": 65,
      "hit": false,
      "t": 134526.1139999997,
      "d": 315.78900000001886,
      "v": 10
    },
    {
      "midi": 69,
      "hit": false,
      "t": 134526.1139999997,
      "d": 315.78900000001886,
      "v": 18
    },
    {
      "midi": 77,
      "hit": false,
      "t": 134526.11399999977,
      "d": 157.89449999999488,
      "v": 30
    },
    {
      "midi": 81,
      "hit": false,
      "t": 134526.11399999977,
      "d": 157.89449999999488,
      "v": 40
    },
    {
      "midi": 47,
      "hit": false,
      "t": 135157.69199999952,
      "d": 657.8937500000175,
      "v": 45
    },
    {
      "midi": 71,
      "hit": false,
      "t": 135157.69199999978,
      "d": 631.5780000000086,
      "v": 55
    },
    {
      "midi": 69,
      "hit": false,
      "t": 135157.69199999978,
      "d": 631.5780000000086,
      "v": 40
    },
    {
      "midi": 57,
      "hit": false,
      "t": 135473.48099999974,
      "d": 263.15750000000116,
      "v": 45
    },
    {
      "midi": 59,
      "hit": false,
      "t": 135473.48099999974,
      "d": 263.15750000000116,
      "v": 38
    },
    {
      "midi": 49,
      "hit": false,
      "t": 135789.26999999952,
      "d": 657.8937500000175,
      "v": 42
    },
    {
      "midi": 71,
      "hit": false,
      "t": 135789.2699999998,
      "d": 631.5780000000086,
      "v": 37
    },
    {
      "midi": 79,
      "hit": false,
      "t": 135789.2699999998,
      "d": 657.8937500000175,
      "v": 48
    },
    {
      "midi": 69,
      "hit": false,
      "t": 135789.2699999998,
      "d": 631.5780000000086,
      "v": 37
    },
    {
      "midi": 57,
      "hit": false,
      "t": 136105.05899999975,
      "d": 210.52600000001257,
      "v": 42
    },
    {
      "midi": 59,
      "hit": false,
      "t": 136105.05899999975,
      "d": 210.52600000001257,
      "v": 35
    },
    {
      "midi": 51,
      "hit": false,
      "t": 136420.84799999953,
      "d": 657.8937500000175,
      "v": 36
    },
    {
      "midi": 71,
      "hit": false,
      "t": 136420.8479999998,
      "d": 631.5780000000086,
      "v": 35
    },
    {
      "midi": 78,
      "hit": false,
      "t": 136420.8479999998,
      "d": 657.8937500000175,
      "v": 50
    },
    {
      "midi": 69,
      "hit": false,
      "t": 136420.8479999998,
      "d": 631.5780000000086,
      "v": 33
    },
    {
      "midi": 57,
      "hit": false,
      "t": 136736.63699999976,
      "d": 236.84174999999232,
      "v": 38
    },
    {
      "midi": 59,
      "hit": false,
      "t": 136736.63699999976,
      "d": 236.84174999999232,
      "v": 31
    },
    {
      "midi": 52,
      "hit": false,
      "t": 137052.42599999954,
      "d": 657.8937500000175,
      "v": 38
    },
    {
      "midi": 71,
      "hit": false,
      "t": 137052.4259999998,
      "d": 1894.7339999999967,
      "v": 30
    },
    {
      "midi": 76,
      "hit": false,
      "t": 137052.4259999998,
      "d": 1894.7339999999967,
      "v": 45
    },
    {
      "midi": 69,
      "hit": false,
      "t": 137052.4259999998,
      "d": 342.1047499999986,
      "v": 35
    },
    {
      "midi": 52,
      "hit": false,
      "t": 137368.21499999973,
      "d": 236.84174999999232,
      "v": 33
    },
    {
      "midi": 59,
      "hit": false,
      "t": 137368.21499999973,
      "d": 236.84174999999232,
      "v": 40
    },
    {
      "midi": 68,
      "hit": false,
      "t": 137368.2149999998,
      "d": 342.1047500000277,
      "v": 38
    },
    {
      "midi": 47,
      "hit": false,
      "t": 137684.00399999955,
      "d": 657.8937500000175,
      "v": 40
    },
    {
      "midi": 67,
      "hit": false,
      "t": 137684.0039999998,
      "d": 342.1047500000277,
      "v": 40
    },
    {
      "midi": 52,
      "hit": false,
      "t": 137999.7929999997,
      "d": 210.52600000001257,
      "v": 25
    },
    {
      "midi": 59,
      "hit": false,
      "t": 137999.7929999997,
      "d": 210.52600000001257,
      "v": 32
    },
    {
      "midi": 66,
      "hit": false,
      "t": 137999.79299999983,
      "d": 342.1047500000277,
      "v": 34
    },
    {
      "midi": 40,
      "hit": false,
      "t": 138315.58199999956,
      "d": 631.5780000000086,
      "v": 35
    },
    {
      "midi": 64,
      "hit": false,
      "t": 138315.58199999985,
      "d": 315.78900000001886,
      "v": 30
    },
    {
      "midi": 52,
      "hit": false,
      "t": 138631.37099999972,
      "d": 263.15750000000116,
      "v": 22
    },
    {
      "midi": 59,
      "hit": false,
      "t": 138631.37099999972,
      "d": 263.15750000000116,
      "v": 29
    },
    {
      "midi": 52,
      "hit": false,
      "t": 138947.15999999957,
      "d": 315.78899999998976,
      "v": 55
    },
    {
      "midi": 71,
      "hit": false,
      "t": 138947.1599999997,
      "d": 131.57875000001513,
      "v": 65
    },
    {
      "midi": 68,
      "hit": false,
      "t": 138947.1599999997,
      "d": 315.78900000001886,
      "v": 40
    },
    {
      "midi": 76,
      "hit": false,
      "t": 138947.15999999986,
      "d": 236.84175000002142,
      "v": 60
    },
    {
      "midi": 73,
      "hit": false,
      "t": 139052.42299999972,
      "d": 105.26300000000629,
      "v": 52
    },
    {
      "midi": 71,
      "hit": false,
      "t": 139131.37024999972,
      "d": 447.3677500000049,
      "v": 55
    },
    {
      "midi": 80,
      "hit": false,
      "t": 139157.68599999987,
      "d": 157.89450000002398,
      "v": 52
    },
    {
      "midi": 83,
      "hit": false,
      "t": 139276.10687499988,
      "d": 197.36812500000815,
      "v": 48
    },
    {
      "midi": 88,
      "hit": false,
      "t": 139447.1592499998,
      "d": 157.89449999999488,
      "v": 50
    },
    {
      "midi": 64,
      "hit": false,
      "t": 139578.73799999972,
      "d": 131.57874999998603,
      "v": 48
    },
    {
      "midi": 68,
      "hit": false,
      "t": 139578.73799999972,
      "d": 131.57874999998603,
      "v": 60
    },
    {
      "midi": 92,
      "hit": false,
      "t": 139578.73799999978,
      "d": 210.52600000001257,
      "v": 47
    },
    {
      "midi": 95,
      "hit": false,
      "t": 139762.94824999978,
      "d": 157.89450000002398,
      "v": 43
    },
    {
      "midi": 68,
      "hit": false,
      "t": 139894.5269999997,
      "d": 105.26300000000629,
      "v": 43
    },
    {
      "midi": 71,
      "hit": false,
      "t": 139894.5269999997,
      "d": 105.26300000000629,
      "v": 53
    },
    {
      "midi": 92,
      "hit": false,
      "t": 139894.5269999998,
      "d": 171.0523750000284,
      "v": 45
    },
    {
      "midi": 95,
      "hit": false,
      "t": 140039.26362499982,
      "d": 197.36812500000815,
      "v": 48
    },
    {
      "midi": 52,
      "hit": false,
      "t": 140210.31599999956,
      "d": 263.15750000000116,
      "v": 48
    },
    {
      "midi": 64,
      "hit": false,
      "t": 140210.31599999973,
      "d": 157.89449999999488,
      "v": 45
    },
    {
      "midi": 68,
      "hit": false,
      "t": 140210.31599999973,
      "d": 157.89449999999488,
      "v": 55
    },
    {
      "midi": 88,
      "hit": false,
      "t": 140210.31599999982,
      "d": 315.78900000001886,
      "v": 28
    },
    {
      "midi": 92,
      "hit": false,
      "t": 140210.31599999982,
      "d": 315.78900000001886,
      "v": 40
    },
    {
      "midi": 45,
      "hit": false,
      "t": 140841.89399999956,
      "d": 315.78899999998976,
      "v": 50
    },
    {
      "midi": 73,
      "hit": false,
      "t": 140841.89399999974,
      "d": 131.57875000001513,
      "v": 65
    },
    {
      "midi": 69,
      "hit": false,
      "t": 140841.89399999974,
      "d": 315.78900000001886,
      "v": 40
    },
    {
      "midi": 78,
      "hit": false,
      "t": 140841.89399999988,
      "d": 236.84174999999232,
      "v": 65
    },
    {
      "midi": 75,
      "hit": false,
      "t": 140947.15699999974,
      "d": 105.26300000000629,
      "v": 52
    },
    {
      "midi": 73,
      "hit": false,
      "t": 141026.10424999974,
      "d": 447.3677500000049,
      "v": 55
    },
    {
      "midi": 81,
      "hit": false,
      "t": 141026.1042499999,
      "d": 157.89449999999488,
      "v": 57
    },
    {
      "midi": 85,
      "hit": false,
      "t": 141157.68299999987,
      "d": 197.36812500000815,
      "v": 53
    },
    {
      "midi": 90,
      "hit": false,
      "t": 141328.73537499984,
      "d": 171.0523749999993,
      "v": 45
    },
    {
      "midi": 66,
      "hit": false,
      "t": 141473.47199999975,
      "d": 131.57874999998603,
      "v": 48
    },
    {
      "midi": 69,
      "hit": false,
      "t": 141473.47199999975,
      "d": 131.57874999998603,
      "v": 60
    },
    {
      "midi": 93,
      "hit": false,
      "t": 141473.47199999983,
      "d": 197.36812500000815,
      "v": 48
    },
    {
      "midi": 97,
      "hit": false,
      "t": 141644.52437499983,
      "d": 171.0523750000284,
      "v": 43
    },
    {
      "midi": 69,
      "hit": false,
      "t": 141789.26099999974,
      "d": 105.26300000000629,
      "v": 53
    },
    {
      "midi": 73,
      "hit": false,
      "t": 141789.26099999974,
      "d": 105.26300000000629,
      "v": 63
    },
    {
      "midi": 93,
      "hit": false,
      "t": 141789.26099999985,
      "d": 157.89450000002398,
      "v": 45
    },
    {
      "midi": 97,
      "hit": false,
      "t": 141920.83974999987,
      "d": 210.52600000001257,
      "v": 42
    },
    {
      "midi": 45,
      "hit": false,
      "t": 142105.04999999955,
      "d": 263.15750000000116,
      "v": 40
    },
    {
      "midi": 66,
      "hit": false,
      "t": 142105.04999999976,
      "d": 157.89449999999488,
      "v": 55
    },
    {
      "midi": 69,
      "hit": false,
      "t": 142105.04999999976,
      "d": 157.89449999999488,
      "v": 65
    },
    {
      "midi": 90,
      "hit": false,
      "t": 142105.04999999987,
      "d": 315.78900000001886,
      "v": 30
    },
    {
      "midi": 93,
      "hit": false,
      "t": 142105.04999999987,
      "d": 315.78900000001886,
      "v": 38
    },
    {
      "midi": 35,
      "hit": false,
      "t": 142736.62799999956,
      "d": 657.8937500000175,
      "v": 45
    },
    {
      "midi": 47,
      "hit": false,
      "t": 142736.62799999956,
      "d": 657.8937500000175,
      "v": 38
    },
    {
      "midi": 57,
      "hit": false,
      "t": 142736.62799999976,
      "d": 631.5780000000086,
      "v": 45
    },
    {
      "midi": 59,
      "hit": false,
      "t": 142736.62799999976,
      "d": 631.5780000000086,
      "v": 43
    },
    {
      "midi": 63,
      "hit": false,
      "t": 142736.62799999976,
      "d": 657.8937500000175,
      "v": 50
    },
    {
      "midi": 71,
      "hit": false,
      "t": 142736.62799999988,
      "d": 184.21025000000373,
      "v": 45
    },
    {
      "midi": 83,
      "hit": false,
      "t": 143052.4169999999,
      "d": 197.36812500000815,
      "v": 45
    },
    {
      "midi": 95,
      "hit": false,
      "t": 143223.4693749999,
      "d": 144.73662500001956,
      "v": 38
    },
    {
      "midi": 37,
      "hit": false,
      "t": 143368.20599999957,
      "d": 657.8937500000175,
      "v": 52
    },
    {
      "midi": 49,
      "hit": false,
      "t": 143368.20599999957,
      "d": 657.8937500000175,
      "v": 40
    },
    {
      "midi": 57,
      "hit": false,
      "t": 143368.20599999977,
      "d": 631.5780000000086,
      "v": 48
    },
    {
      "midi": 59,
      "hit": false,
      "t": 143368.20599999977,
      "d": 631.5780000000086,
      "v": 40
    },
    {
      "midi": 64,
      "hit": false,
      "t": 143368.20599999977,
      "d": 657.8937500000175,
      "v": 58
    },
    {
      "midi": 71,
      "hit": false,
      "t": 143368.2059999999,
      "d": 131.57874999998603,
      "v": 52
    },
    {
      "midi": 83,
      "hit": false,
      "t": 143683.9949999999,
      "d": 197.36812500000815,
      "v": 54
    },
    {
      "midi": 95,
      "hit": false,
      "t": 143855.0473749999,
      "d": 144.73662500001956,
      "v": 47
    },
    {
      "midi": 39,
      "hit": false,
      "t": 143999.78399999958,
      "d": 657.8937500000175,
      "v": 58
    },
    {
      "midi": 51,
      "hit": false,
      "t": 143999.78399999958,
      "d": 657.8937500000175,
      "v": 42
    },
    {
      "midi": 57,
      "hit": false,
      "t": 143999.78399999978,
      "d": 631.5780000000086,
      "v": 50
    },
    {
      "midi": 59,
      "hit": false,
      "t": 143999.78399999978,
      "d": 631.5780000000086,
      "v": 42
    },
    {
      "midi": 66,
      "hit": false,
      "t": 143999.78399999978,
      "d": 657.8937500000175,
      "v": 62
    },
    {
      "midi": 71,
      "hit": false,
      "t": 143999.78399999987,
      "d": 157.89449999999488,
      "v": 58
    },
    {
      "midi": 83,
      "hit": false,
      "t": 144315.57299999992,
      "d": 197.36812500000815,
      "v": 57
    },
    {
      "midi": 95,
      "hit": false,
      "t": 144486.62537499992,
      "d": 144.73662500001956,
      "v": 50
    },
    {
      "midi": 40,
      "hit": false,
      "t": 144631.3619999996,
      "d": 631.5780000000086,
      "v": 55
    },
    {
      "midi": 52,
      "hit": false,
      "t": 144631.3619999996,
      "d": 631.5780000000086,
      "v": 40
    },
    {
      "midi": 56,
      "hit": false,
      "t": 144631.3619999998,
      "d": 526.3150000000314,
      "v": 48
    },
    {
      "midi": 59,
      "hit": false,
      "t": 144631.3619999998,
      "d": 526.3150000000314,
      "v": 35
    },
    {
      "midi": 68,
      "hit": false,
      "t": 144631.3619999998,
      "d": 526.3150000000314,
      "v": 60
    },
    {
      "midi": 71,
      "hit": false,
      "t": 144631.36199999988,
      "d": 236.84175000002142,
      "v": 50
    },
    {
      "midi": 76,
      "hit": false,
      "t": 144841.8879999999,
      "d": 157.89450000002398,
      "v": 42
    },
    {
      "midi": 80,
      "hit": false,
      "t": 144960.3088749999,
      "d": 197.36812500000815,
      "v": 38
    },
    {
      "midi": 64,
      "hit": false,
      "t": 145131.3612499998,
      "d": 157.89450000002398,
      "v": 57
    },
    {
      "midi": 83,
      "hit": false,
      "t": 145131.36124999993,
      "d": 157.89449999999488,
      "v": 50
    },
    {
      "midi": 40,
      "hit": false,
      "t": 145262.9399999996,
      "d": 1263.1559999999881,
      "v": 46
    },
    {
      "midi": 52,
      "hit": false,
      "t": 145262.9399999996,
      "d": 1263.1559999999881,
      "v": 30
    },
    {
      "midi": 56,
      "hit": false,
      "t": 145262.93999999983,
      "d": 1263.1560000000172,
      "v": 40
    },
    {
      "midi": 59,
      "hit": false,
      "t": 145262.93999999983,
      "d": 1263.1560000000172,
      "v": 53
    },
    {
      "midi": 88,
      "hit": false,
      "t": 145262.93999999992,
      "d": 210.52600000001257,
      "v": 46
    },
    {
      "midi": 92,
      "hit": false,
      "t": 145447.15024999992,
      "d": 157.89450000002398,
      "v": 43
    },
    {
      "midi": 88,
      "hit": false,
      "t": 145578.72899999993,
      "d": 171.0523750000284,
      "v": 45
    },
    {
      "midi": 92,
      "hit": false,
      "t": 145723.46562499995,
      "d": 197.36812500000815,
      "v": 40
    },
    {
      "midi": 88,
      "hit": false,
      "t": 145894.51799999995,
      "d": 315.78900000001886,
      "v": 42
    },
    {
      "midi": 52,
      "hit": false,
      "t": 146526.09599999958,
      "d": 315.78899999998976,
      "v": 55
    },
    {
      "midi": 71,
      "hit": false,
      "t": 146526.09599999984,
      "d": 131.57875000001513,
      "v": 65
    },
    {
      "midi": 68,
      "hit": false,
      "t": 146526.09599999984,
      "d": 315.78900000001886,
      "v": 40
    },
    {
      "midi": 76,
      "hit": false,
      "t": 146526.0959999999,
      "d": 236.84175000002142,
      "v": 60
    },
    {
      "midi": 73,
      "hit": false,
      "t": 146631.35899999985,
      "d": 105.26300000000629,
      "v": 52
    },
    {
      "midi": 71,
      "hit": false,
      "t": 146710.30624999985,
      "d": 447.3677500000049,
      "v": 55
    },
    {
      "midi": 80,
      "hit": false,
      "t": 146736.62199999992,
      "d": 157.89450000002398,
      "v": 52
    },
    {
      "midi": 83,
      "hit": false,
      "t": 146855.04287499993,
      "d": 197.36812500000815,
      "v": 48
    },
    {
      "midi": 88,
      "hit": false,
      "t": 147026.09524999998,
      "d": 157.89449999999488,
      "v": 60
    },
    {
      "midi": 64,
      "hit": false,
      "t": 147157.67399999985,
      "d": 131.57874999998603,
      "v": 48
    },
    {
      "midi": 68,
      "hit": false,
      "t": 147157.67399999985,
      "d": 131.57874999998603,
      "v": 60
    },
    {
      "midi": 92,
      "hit": false,
      "t": 147157.67399999997,
      "d": 210.52600000001257,
      "v": 57
    },
    {
      "midi": 95,
      "hit": false,
      "t": 147341.88424999997,
      "d": 157.89450000002398,
      "v": 53
    },
    {
      "midi": 68,
      "hit": false,
      "t": 147473.46299999984,
      "d": 105.26300000000629,
      "v": 43
    },
    {
      "midi": 71,
      "hit": false,
      "t": 147473.46299999984,
      "d": 105.26300000000629,
      "v": 53
    },
    {
      "midi": 92,
      "hit": false,
      "t": 147473.463,
      "d": 171.0523750000284,
      "v": 55
    },
    {
      "midi": 95,
      "hit": false,
      "t": 147618.199625,
      "d": 197.36812500000815,
      "v": 58
    },
    {
      "midi": 52,
      "hit": false,
      "t": 147789.25199999957,
      "d": 263.15750000000116,
      "v": 48
    },
    {
      "midi": 64,
      "hit": false,
      "t": 147789.25199999986,
      "d": 157.89449999999488,
      "v": 45
    },
    {
      "midi": 68,
      "hit": false,
      "t": 147789.25199999986,
      "d": 157.89449999999488,
      "v": 55
    },
    {
      "midi": 88,
      "hit": false,
      "t": 147789.252,
      "d": 315.78900000001886,
      "v": 38
    },
    {
      "midi": 92,
      "hit": false,
      "t": 147789.252,
      "d": 315.78900000001886,
      "v": 50
    },
    {
      "midi": 45,
      "hit": false,
      "t": 148420.82999999958,
      "d": 315.78899999998976,
      "v": 30
    },
    {
      "midi": 72,
      "hit": false,
      "t": 148420.82999999987,
      "d": 131.57875000001513,
      "v": 40
    },
    {
      "midi": 69,
      "hit": false,
      "t": 148420.82999999987,
      "d": 315.78900000001886,
      "v": 15
    },
    {
      "midi": 77,
      "hit": false,
      "t": 148420.82999999993,
      "d": 236.84174999999232,
      "v": 35
    },
    {
      "midi": 74,
      "hit": false,
      "t": 148526.09299999988,
      "d": 105.26300000000629,
      "v": 27
    },
    {
      "midi": 72,
      "hit": false,
      "t": 148605.04024999987,
      "d": 447.3677500000049,
      "v": 30
    },
    {
      "midi": 81,
      "hit": false,
      "t": 148605.04024999993,
      "d": 157.89449999999488,
      "v": 27
    },
    {
      "midi": 84,
      "hit": false,
      "t": 148736.61899999992,
      "d": 197.36812500000815,
      "v": 23
    },
    {
      "midi": 89,
      "hit": false,
      "t": 148907.67137500003,
      "d": 171.0523749999993,
      "v": 25
    },
    {
      "midi": 65,
      "hit": false,
      "t": 149052.40799999988,
      "d": 131.57874999998603,
      "v": 23
    },
    {
      "midi": 69,
      "hit": false,
      "t": 149052.40799999988,
      "d": 131.57874999998603,
      "v": 35
    },
    {
      "midi": 93,
      "hit": false,
      "t": 149052.40800000002,
      "d": 197.36812500000815,
      "v": 28
    },
    {
      "midi": 96,
      "hit": false,
      "t": 149223.46037500002,
      "d": 171.0523750000284,
      "v": 23
    },
    {
      "midi": 69,
      "hit": false,
      "t": 149368.19699999987,
      "d": 105.26300000000629,
      "v": 28
    },
    {
      "midi": 72,
      "hit": false,
      "t": 149368.19699999987,
      "d": 105.26300000000629,
      "v": 38
    },
    {
      "midi": 93,
      "hit": false,
      "t": 149368.19700000004,
      "d": 157.89450000002398,
      "v": 25
    },
    {
      "midi": 96,
      "hit": false,
      "t": 149499.77575000006,
      "d": 210.52600000001257,
      "v": 22
    },
    {
      "midi": 45,
      "hit": false,
      "t": 149683.98599999957,
      "d": 263.15750000000116,
      "v": 25
    },
    {
      "midi": 65,
      "hit": false,
      "t": 149683.9859999999,
      "d": 157.89449999999488,
      "v": 30
    },
    {
      "midi": 69,
      "hit": false,
      "t": 149683.9859999999,
      "d": 157.89449999999488,
      "v": 40
    },
    {
      "midi": 89,
      "hit": false,
      "t": 149683.98600000006,
      "d": 315.78900000001886,
      "v": 10
    },
    {
      "midi": 93,
      "hit": false,
      "t": 149683.98600000006,
      "d": 315.78900000001886,
      "v": 18
    },
    {
      "midi": 47,
      "hit": false,
      "t": 150315.56399999958,
      "d": 1263.1560000000172,
      "v": 32
    },
    {
      "midi": 59,
      "hit": false,
      "t": 150315.5639999999,
      "d": 1263.1560000000172,
      "v": 52
    },
    {
      "midi": 71,
      "hit": false,
      "t": 150315.56399999993,
      "d": 184.21025000000373,
      "v": 45
    },
    {
      "midi": 83,
      "hit": false,
      "t": 150631.3530000001,
      "d": 197.36812500000815,
      "v": 40
    },
    {
      "midi": 95,
      "hit": false,
      "t": 150802.4053750001,
      "d": 144.73662500001956,
      "v": 33
    },
    {
      "midi": 49,
      "hit": false,
      "t": 150947.14199999959,
      "d": 657.8937500000175,
      "v": 38
    },
    {
      "midi": 67,
      "hit": false,
      "t": 150947.1419999999,
      "d": 657.8937500000175,
      "v": 48
    },
    {
      "midi": 71,
      "hit": false,
      "t": 150947.14199999993,
      "d": 131.57874999998603,
      "v": 40
    },
    {
      "midi": 83,
      "hit": false,
      "t": 151262.9310000001,
      "d": 184.21025000000373,
      "v": 42
    },
    {
      "midi": 95,
      "hit": false,
      "t": 151420.8255000001,
      "d": 157.89449999999488,
      "v": 35
    },
    {
      "midi": 47,
      "hit": false,
      "t": 151578.7199999996,
      "d": 657.8937500000175,
      "v": 35
    },
    {
      "midi": 51,
      "hit": false,
      "t": 151578.7199999996,
      "d": 657.8937500000175,
      "v": 42
    },
    {
      "midi": 71,
      "hit": false,
      "t": 151578.7199999999,
      "d": 157.89449999999488,
      "v": 42
    },
    {
      "midi": 57,
      "hit": false,
      "t": 151578.7199999999,
      "d": 631.5780000000086,
      "v": 33
    },
    {
      "midi": 59,
      "hit": false,
      "t": 151578.7199999999,
      "d": 631.5780000000086,
      "v": 25
    },
    {
      "midi": 66,
      "hit": false,
      "t": 151578.7199999999,
      "d": 657.8937500000175,
      "v": 48
    },
    {
      "midi": 83,
      "hit": false,
      "t": 151894.50900000008,
      "d": 171.0523749999993,
      "v": 38
    },
    {
      "midi": 95,
      "hit": false,
      "t": 152039.24562500007,
      "d": 171.0523749999993,
      "v": 31
    },
    {
      "midi": 57,
      "hit": false,
      "t": 152210.2979999996,
      "d": 342.1047500000277,
      "v": 35
    },
    {
      "midi": 52,
      "hit": false,
      "t": 152210.2979999996,
      "d": 1263.1560000000754,
      "v": 30
    },
    {
      "midi": 40,
      "hit": false,
      "t": 152210.2979999996,
      "d": 1578.9450000000943,
      "v": 45
    },
    {
      "midi": 71,
      "hit": false,
      "t": 152210.29799999992,
      "d": 157.89449999999488,
      "v": 40
    },
    {
      "midi": 59,
      "hit": false,
      "t": 152210.29799999992,
      "d": 947.3669999999984,
      "v": 30
    },
    {
      "midi": 64,
      "hit": false,
      "t": 152210.29799999992,
      "d": 947.3669999999984,
      "v": 45
    },
    {
      "midi": 56,
      "hit": false,
      "t": 152526.08699999962,
      "d": 342.1047500000277,
      "v": 38
    },
    {
      "midi": 83,
      "hit": false,
      "t": 152526.08700000006,
      "d": 197.36812500000815,
      "v": 40
    },
    {
      "midi": 95,
      "hit": false,
      "t": 152697.13937500006,
      "d": 144.73662500001956,
      "v": 33
    },
    {
      "midi": 55,
      "hit": false,
      "t": 152841.87599999964,
      "d": 342.1047500000277,
      "v": 40
    },
    {
      "midi": 76,
      "hit": false,
      "t": 152841.87599999993,
      "d": 131.57874999998603,
      "v": 38
    },
    {
      "midi": 54,
      "hit": false,
      "t": 153157.66499999966,
      "d": 342.1047500000277,
      "v": 34
    },
    {
      "midi": 88,
      "hit": false,
      "t": 153157.66500000007,
      "d": 157.89449999999488,
      "v": 37
    },
    {
      "midi": 100,
      "hit": false,
      "t": 153289.24375000005,
      "d": 499.9992500000226,
      "v": 30
    },
    {
      "midi": 52,
      "hit": false,
      "t": 153473.45399999968,
      "d": 315.78900000001886,
      "v": 30
    },
    {
      "midi": 64,
      "hit": false,
      "t": 153473.4539999999,
      "d": 184.21025000000373,
      "v": 35
    },
    {
      "midi": 67,
      "hit": false,
      "t": 153473.4539999999,
      "d": 184.21025000000373,
      "v": 28
    },
    {
      "midi": 71,
      "hit": false,
      "t": 153473.4539999999,
      "d": 184.21025000000373,
      "v": 18
    },
    {
      "midi": 52,
      "hit": false,
      "t": 154105.0319999997,
      "d": 657.8937500000175,
      "v": 60
    },
    {
      "midi": 64,
      "hit": false,
      "t": 154105.03199999992,
      "d": 657.8937500000175,
      "v": 50
    },
    {
      "midi": 67,
      "hit": false,
      "t": 154105.03199999992,
      "d": 657.8937500000175,
      "v": 58
    },
    {
      "midi": 55,
      "hit": false,
      "t": 154105.03199999992,
      "d": 657.8937500000175,
      "v": 42
    },
    {
      "midi": 59,
      "hit": false,
      "t": 154105.03199999992,
      "d": 657.8937500000175,
      "v": 50
    },
    {
      "midi": 53,
      "hit": false,
      "t": 154736.6099999997,
      "d": 657.8937500000175,
      "v": 68
    },
    {
      "midi": 62,
      "hit": false,
      "t": 154736.60999999993,
      "d": 657.8937500000175,
      "v": 53
    },
    {
      "midi": 69,
      "hit": false,
      "t": 154736.60999999993,
      "d": 657.8937500000175,
      "v": 66
    },
    {
      "midi": 57,
      "hit": false,
      "t": 154736.60999999993,
      "d": 657.8937500000175,
      "v": 58
    },
    {
      "midi": 50,
      "hit": false,
      "t": 155368.1879999997,
      "d": 631.5780000000086,
      "v": 72
    },
    {
      "midi": 65,
      "hit": false,
      "t": 155368.18799999994,
      "d": 631.5780000000086,
      "v": 56
    },
    {
      "midi": 71,
      "hit": false,
      "t": 155368.18799999994,
      "d": 631.5780000000086,
      "v": 70
    },
    {
      "midi": 53,
      "hit": false,
      "t": 155368.18799999994,
      "d": 631.5780000000086,
      "v": 48
    },
    {
      "midi": 59,
      "hit": false,
      "t": 155368.18799999994,
      "d": 631.5780000000086,
      "v": 62
    },
    {
      "midi": 48,
      "hit": false,
      "t": 155999.7659999997,
      "d": 526.3150000000023,
      "v": 75
    },
    {
      "midi": 64,
      "hit": false,
      "t": 155999.76599999995,
      "d": 499.9992500000226,
      "v": 66
    },
    {
      "midi": 72,
      "hit": false,
      "t": 155999.76599999995,
      "d": 499.9992500000226,
      "v": 73
    },
    {
      "midi": 52,
      "hit": false,
      "t": 155999.76599999995,
      "d": 526.3150000000023,
      "v": 58
    },
    {
      "midi": 55,
      "hit": false,
      "t": 155999.76599999995,
      "d": 526.3150000000023,
      "v": 45
    },
    {
      "midi": 60,
      "hit": false,
      "t": 155999.76599999995,
      "d": 526.3150000000023,
      "v": 65
    },
    {
      "midi": 74,
      "hit": false,
      "t": 156473.44949999996,
      "d": 184.21025000000373,
      "v": 76
    },
    {
      "midi": 45,
      "hit": false,
      "t": 156631.34399999972,
      "d": 1263.1559999999881,
      "v": 82
    },
    {
      "midi": 64,
      "hit": false,
      "t": 156631.34399999995,
      "d": 1263.1560000000172,
      "v": 58
    },
    {
      "midi": 72,
      "hit": false,
      "t": 156631.34399999995,
      "d": 1263.1560000000172,
      "v": 70
    },
    {
      "midi": 76,
      "hit": false,
      "t": 156631.34399999995,
      "d": 1263.1560000000172,
      "v": 78
    },
    {
      "midi": 52,
      "hit": false,
      "t": 156631.34399999995,
      "d": 1263.1559999999881,
      "v": 42
    },
    {
      "midi": 57,
      "hit": false,
      "t": 156631.34399999995,
      "d": 1263.1559999999881,
      "v": 60
    },
    {
      "midi": 60,
      "hit": false,
      "t": 156631.34399999995,
      "d": 1263.1559999999881,
      "v": 72
    },
    {
      "midi": 29,
      "hit": false,
      "t": 157894.4999999997,
      "d": 657.8937500000175,
      "v": 80
    },
    {
      "midi": 41,
      "hit": false,
      "t": 157894.49999999994,
      "d": 657.8937500000175,
      "v": 70
    },
    {
      "midi": 69,
      "hit": false,
      "t": 157894.49999999997,
      "d": 657.8937500000175,
      "v": 65
    },
    {
      "midi": 72,
      "hit": false,
      "t": 157894.49999999997,
      "d": 657.8937500000175,
      "v": 58
    },
    {
      "midi": 77,
      "hit": false,
      "t": 157894.49999999997,
      "d": 657.8937500000175,
      "v": 78
    },
    {
      "midi": 31,
      "hit": false,
      "t": 158526.07799999972,
      "d": 657.8937500000175,
      "v": 68
    },
    {
      "midi": 43,
      "hit": false,
      "t": 158526.07799999995,
      "d": 657.8937500000175,
      "v": 58
    },
    {
      "midi": 67,
      "hit": false,
      "t": 158526.07799999998,
      "d": 631.5780000000086,
      "v": 50
    },
    {
      "midi": 71,
      "hit": false,
      "t": 158526.07799999998,
      "d": 657.8937500000175,
      "v": 60
    },
    {
      "midi": 76,
      "hit": false,
      "t": 158526.07799999998,
      "d": 657.8937500000175,
      "v": 66
    },
    {
      "midi": 35,
      "hit": false,
      "t": 159157.65599999973,
      "d": 631.5780000000086,
      "v": 60
    },
    {
      "midi": 47,
      "hit": false,
      "t": 159157.65599999996,
      "d": 631.5780000000086,
      "v": 50
    },
    {
      "midi": 67,
      "hit": false,
      "t": 159157.656,
      "d": 631.5780000000086,
      "v": 40
    },
    {
      "midi": 65,
      "hit": false,
      "t": 159157.656,
      "d": 657.8937500000175,
      "v": 48
    },
    {
      "midi": 74,
      "hit": false,
      "t": 159157.656,
      "d": 657.8937500000175,
      "v": 58
    },
    {
      "midi": 36,
      "hit": false,
      "t": 159789.23399999973,
      "d": 631.5780000000086,
      "v": 55
    },
    {
      "midi": 48,
      "hit": false,
      "t": 159789.23399999997,
      "d": 499.9992500000226,
      "v": 52
    },
    {
      "midi": 64,
      "hit": false,
      "t": 159789.234,
      "d": 499.9992500000226,
      "v": 45
    },
    {
      "midi": 67,
      "hit": false,
      "t": 159789.234,
      "d": 499.9992500000226,
      "v": 38
    },
    {
      "midi": 72,
      "hit": false,
      "t": 159789.234,
      "d": 499.9992500000226,
      "v": 60
    },
    {
      "midi": 53,
      "hit": false,
      "t": 160262.91749999998,
      "d": 184.21025000000373,
      "v": 35
    },
    {
      "midi": 57,
      "hit": false,
      "t": 160262.91749999998,
      "d": 184.21025000000373,
      "v": 48
    },
    {
      "midi": 65,
      "hit": false,
      "t": 160262.9175,
      "d": 184.21025000000373,
      "v": 43
    },
    {
      "midi": 69,
      "hit": false,
      "t": 160262.9175,
      "d": 184.21025000000373,
      "v": 56
    },
    {
      "midi": 52,
      "hit": false,
      "t": 160420.81199999998,
      "d": 1263.1560000000172,
      "v": 40
    },
    {
      "midi": 55,
      "hit": false,
      "t": 160420.81199999998,
      "d": 1263.1560000000172,
      "v": 50
    },
    {
      "midi": 64,
      "hit": false,
      "t": 160420.812,
      "d": 1263.1560000000172,
      "v": 48
    },
    {
      "midi": 72,
      "hit": false,
      "t": 160420.812,
      "d": 1263.1560000000172,
      "v": 58
    },
    {
      "midi": 52,
      "hit": false,
      "t": 161683.96799999973,
      "d": 657.8937500000175,
      "v": 75
    },
    {
      "midi": 55,
      "hit": false,
      "t": 161683.968,
      "d": 657.8937500000175,
      "v": 53
    },
    {
      "midi": 59,
      "hit": false,
      "t": 161683.968,
      "d": 657.8937500000175,
      "v": 65
    },
    {
      "midi": 64,
      "hit": false,
      "t": 161683.96800000002,
      "d": 657.8937500000175,
      "v": 58
    },
    {
      "midi": 67,
      "hit": false,
      "t": 161683.96800000002,
      "d": 657.8937500000175,
      "v": 70
    },
    {
      "midi": 53,
      "hit": false,
      "t": 162315.54599999974,
      "d": 657.8937500000175,
      "v": 83
    },
    {
      "midi": 57,
      "hit": false,
      "t": 162315.546,
      "d": 657.8937500000175,
      "v": 76
    },
    {
      "midi": 62,
      "hit": false,
      "t": 162315.54600000003,
      "d": 657.8937500000175,
      "v": 60
    },
    {
      "midi": 69,
      "hit": false,
      "t": 162315.54600000003,
      "d": 657.8937500000175,
      "v": 81
    },
    {
      "midi": 50,
      "hit": false,
      "t": 162947.12399999975,
      "d": 631.5780000000086,
      "v": 87
    },
    {
      "midi": 53,
      "hit": false,
      "t": 162947.124,
      "d": 631.5780000000086,
      "v": 63
    },
    {
      "midi": 59,
      "hit": false,
      "t": 162947.124,
      "d": 631.5780000000086,
      "v": 80
    },
    {
      "midi": 65,
      "hit": false,
      "t": 162947.12400000004,
      "d": 631.5780000000086,
      "v": 55
    },
    {
      "midi": 71,
      "hit": false,
      "t": 162947.12400000004,
      "d": 631.5780000000086,
      "v": 85
    },
    {
      "midi": 48,
      "hit": false,
      "t": 163578.70199999976,
      "d": 526.3150000000023,
      "v": 90
    },
    {
      "midi": 52,
      "hit": false,
      "t": 163578.70200000002,
      "d": 526.3150000000023,
      "v": 66
    },
    {
      "midi": 55,
      "hit": false,
      "t": 163578.70200000002,
      "d": 526.3150000000023,
      "v": 53
    },
    {
      "midi": 60,
      "hit": false,
      "t": 163578.70200000002,
      "d": 526.3150000000023,
      "v": 83
    },
    {
      "midi": 64,
      "hit": false,
      "t": 163578.70200000005,
      "d": 499.9992500000226,
      "v": 58
    },
    {
      "midi": 72,
      "hit": false,
      "t": 163578.70200000005,
      "d": 499.9992500000226,
      "v": 90
    },
    {
      "midi": 74,
      "hit": false,
      "t": 164052.38550000006,
      "d": 184.21025000000373,
      "v": 95
    },
    {
      "midi": 45,
      "hit": false,
      "t": 164210.27999999977,
      "d": 1263.1559999999881,
      "v": 100
    },
    {
      "midi": 50,
      "hit": false,
      "t": 164210.27999999977,
      "d": 1263.1559999999881,
      "v": 77
    },
    {
      "midi": 54,
      "hit": false,
      "t": 164210.28000000003,
      "d": 1263.1559999999881,
      "v": 80
    },
    {
      "midi": 60,
      "hit": false,
      "t": 164210.28000000003,
      "d": 1263.1559999999881,
      "v": 67
    },
    {
      "midi": 64,
      "hit": false,
      "t": 164210.28000000003,
      "d": 1263.1559999999881,
      "v": 90
    },
    {
      "midi": 66,
      "hit": false,
      "t": 164210.28000000006,
      "d": 1263.1560000000172,
      "v": 88
    },
    {
      "midi": 72,
      "hit": false,
      "t": 164210.28000000006,
      "d": 1263.1560000000172,
      "v": 75
    },
    {
      "midi": 76,
      "hit": false,
      "t": 164210.28000000006,
      "d": 1263.1560000000172,
      "v": 98
    },
    {
      "midi": 43,
      "hit": false,
      "t": 165473.43599999975,
      "d": 631.5780000000086,
      "v": 90
    },
    {
      "midi": 55,
      "hit": false,
      "t": 165473.43600000002,
      "d": 631.5780000000086,
      "v": 68
    },
    {
      "midi": 60,
      "hit": false,
      "t": 165473.43600000002,
      "d": 631.5780000000086,
      "v": 73
    },
    {
      "midi": 64,
      "hit": false,
      "t": 165473.43600000002,
      "d": 657.8937500000175,
      "v": 85
    },
    {
      "midi": 72,
      "hit": false,
      "t": 165473.43600000007,
      "d": 631.5780000000086,
      "v": 81
    },
    {
      "midi": 76,
      "hit": false,
      "t": 165473.43600000007,
      "d": 657.8937500000175,
      "v": 93
    },
    {
      "midi": 67,
      "hit": false,
      "t": 165473.43600000007,
      "d": 657.8937500000175,
      "v": 76
    },
    {
      "midi": 55,
      "hit": false,
      "t": 166105.01400000002,
      "d": 631.5780000000086,
      "v": 65
    },
    {
      "midi": 60,
      "hit": false,
      "t": 166105.01400000002,
      "d": 631.5780000000086,
      "v": 75
    },
    {
      "midi": 65,
      "hit": false,
      "t": 166105.01400000002,
      "d": 657.8937500000175,
      "v": 90
    },
    {
      "midi": 72,
      "hit": false,
      "t": 166105.01400000008,
      "d": 631.5780000000086,
      "v": 83
    },
    {
      "midi": 81,
      "hit": false,
      "t": 166105.01400000008,
      "d": 657.8937500000175,
      "v": 98
    },
    {
      "midi": 69,
      "hit": false,
      "t": 166105.01400000008,
      "d": 657.8937500000175,
      "v": 73
    },
    {
      "midi": 43,
      "hit": false,
      "t": 166736.59199999977,
      "d": 631.5780000000086,
      "v": 95
    },
    {
      "midi": 55,
      "hit": false,
      "t": 166736.59200000003,
      "d": 631.5780000000086,
      "v": 67
    },
    {
      "midi": 60,
      "hit": false,
      "t": 166736.59200000003,
      "d": 657.8937500000175,
      "v": 78
    },
    {
      "midi": 64,
      "hit": false,
      "t": 166736.59200000003,
      "d": 657.8937500000175,
      "v": 93
    },
    {
      "midi": 72,
      "hit": false,
      "t": 166736.5920000001,
      "d": 657.8937500000175,
      "v": 86
    },
    {
      "midi": 79,
      "hit": false,
      "t": 166736.5920000001,
      "d": 657.8937500000175,
      "v": 101
    },
    {
      "midi": 67,
      "hit": false,
      "t": 166736.5920000001,
      "d": 657.8937500000175,
      "v": 75
    },
    {
      "midi": 43,
      "hit": false,
      "t": 167368.16999999978,
      "d": 526.3150000000023,
      "v": 88
    },
    {
      "midi": 55,
      "hit": false,
      "t": 167368.17000000004,
      "d": 263.15750000000116,
      "v": 65
    },
    {
      "midi": 59,
      "hit": false,
      "t": 167368.17000000004,
      "d": 263.15750000000116,
      "v": 83
    },
    {
      "midi": 62,
      "hit": false,
      "t": 167368.17000000004,
      "d": 263.15750000000116,
      "v": 90
    },
    {
      "midi": 71,
      "hit": false,
      "t": 167368.1700000001,
      "d": 263.15750000003027,
      "v": 91
    },
    {
      "midi": 77,
      "hit": false,
      "t": 167368.1700000001,
      "d": 263.15750000003027,
      "v": 98
    },
    {
      "midi": 69,
      "hit": false,
      "t": 167368.1700000001,
      "d": 263.15750000003027,
      "v": 88
    },
    {
      "midi": 76,
      "hit": false,
      "t": 167605.01175000012,
      "d": 210.52600000001257,
      "v": 90
    },
    {
      "midi": 67,
      "hit": false,
      "t": 167605.01175000012,
      "d": 184.21025000000373,
      "v": 83
    },
    {
      "midi": 71,
      "hit": false,
      "t": 167789.22200000013,
      "d": 131.57875000001513,
      "v": 70
    },
    {
      "midi": 74,
      "hit": false,
      "t": 167789.22200000013,
      "d": 131.57875000001513,
      "v": 85
    },
    {
      "midi": 65,
      "hit": false,
      "t": 167789.22200000013,
      "d": 131.57874999998603,
      "v": 76
    },
    {
      "midi": 55,
      "hit": false,
      "t": 167841.85350000006,
      "d": 1421.050499999983,
      "v": 80
    },
    {
      "midi": 36,
      "hit": false,
      "t": 167999.7479999998,
      "d": 1263.1559999999881,
      "v": 68
    },
    {
      "midi": 48,
      "hit": false,
      "t": 167999.7479999998,
      "d": 1263.1559999999881,
      "v": 50
    },
    {
      "midi": 52,
      "hit": false,
      "t": 167999.74800000005,
      "d": 1263.1559999999881,
      "v": 55
    },
    {
      "midi": 60,
      "hit": false,
      "t": 167999.74800000005,
      "d": 1263.1559999999881,
      "v": 70
    },
    {
      "midi": 64,
      "hit": false,
      "t": 167999.7480000001,
      "d": 1263.1559999999881,
      "v": 66
    },
    {
      "midi": 67,
      "hit": false,
      "t": 167999.7480000001,
      "d": 1263.1559999999881,
      "v": 58
    },
    {
      "midi": 64,
      "hit": false,
      "t": 167999.74800000014,
      "d": 1263.1559999999881,
      "v": 62
    },
    {
      "midi": 67,
      "hit": false,
      "t": 167999.74800000014,
      "d": 1263.1559999999881,
      "v": 50
    },
    {
      "midi": 72,
      "hit": false,
      "t": 167999.74800000014,
      "d": 1263.1559999999881,
      "v": 78
    },
    {
      "midi": 52,
      "hit": false,
      "t": 169262.90399999978,
      "d": 657.8937500000175,
      "v": 60
    },
    {
      "midi": 55,
      "hit": false,
      "t": 169262.90400000004,
      "d": 657.8937500000175,
      "v": 42
    },
    {
      "midi": 59,
      "hit": false,
      "t": 169262.90400000004,
      "d": 657.8937500000175,
      "v": 50
    },
    {
      "midi": 64,
      "hit": false,
      "t": 169262.9040000001,
      "d": 657.8937500000175,
      "v": 55
    },
    {
      "midi": 67,
      "hit": false,
      "t": 169262.9040000001,
      "d": 657.8937500000175,
      "v": 63
    },
    {
      "midi": 76,
      "hit": false,
      "t": 169262.90400000013,
      "d": 657.8937500000175,
      "v": 50
    },
    {
      "midi": 79,
      "hit": false,
      "t": 169262.90400000013,
      "d": 657.8937500000175,
      "v": 58
    },
    {
      "midi": 53,
      "hit": false,
      "t": 169894.48199999979,
      "d": 657.8937500000175,
      "v": 68
    },
    {
      "midi": 57,
      "hit": false,
      "t": 169894.48200000005,
      "d": 657.8937500000175,
      "v": 58
    },
    {
      "midi": 62,
      "hit": false,
      "t": 169894.4820000001,
      "d": 657.8937500000175,
      "v": 58
    },
    {
      "midi": 69,
      "hit": false,
      "t": 169894.4820000001,
      "d": 657.8937500000175,
      "v": 71
    },
    {
      "midi": 74,
      "hit": false,
      "t": 169894.48200000013,
      "d": 657.8937500000175,
      "v": 53
    },
    {
      "midi": 81,
      "hit": false,
      "t": 169894.48200000013,
      "d": 657.8937500000175,
      "v": 66
    },
    {
      "midi": 50,
      "hit": false,
      "t": 170526.0599999998,
      "d": 631.5780000000086,
      "v": 72
    },
    {
      "midi": 53,
      "hit": false,
      "t": 170526.06000000006,
      "d": 631.5780000000086,
      "v": 48
    },
    {
      "midi": 59,
      "hit": false,
      "t": 170526.06000000006,
      "d": 631.5780000000086,
      "v": 62
    },
    {
      "midi": 65,
      "hit": false,
      "t": 170526.0600000001,
      "d": 631.5780000000086,
      "v": 61
    },
    {
      "midi": 71,
      "hit": false,
      "t": 170526.0600000001,
      "d": 631.5780000000086,
      "v": 75
    },
    {
      "midi": 77,
      "hit": false,
      "t": 170526.06000000014,
      "d": 631.5780000000086,
      "v": 56
    },
    {
      "midi": 83,
      "hit": false,
      "t": 170526.06000000014,
      "d": 631.5780000000086,
      "v": 70
    },
    {
      "midi": 48,
      "hit": false,
      "t": 171157.6379999998,
      "d": 526.3150000000023,
      "v": 75
    },
    {
      "midi": 52,
      "hit": false,
      "t": 171157.63800000006,
      "d": 526.3150000000023,
      "v": 58
    },
    {
      "midi": 55,
      "hit": false,
      "t": 171157.63800000006,
      "d": 526.3150000000023,
      "v": 45
    },
    {
      "midi": 60,
      "hit": false,
      "t": 171157.63800000006,
      "d": 526.3150000000023,
      "v": 65
    },
    {
      "midi": 64,
      "hit": false,
      "t": 171157.63800000012,
      "d": 499.9992500000226,
      "v": 71
    },
    {
      "midi": 72,
      "hit": false,
      "t": 171157.63800000012,
      "d": 499.9992500000226,
      "v": 78
    },
    {
      "midi": 76,
      "hit": false,
      "t": 171157.63800000015,
      "d": 499.9992500000226,
      "v": 66
    },
    {
      "midi": 84,
      "hit": false,
      "t": 171157.63800000015,
      "d": 499.9992500000226,
      "v": 73
    },
    {
      "midi": 74,
      "hit": false,
      "t": 171631.32150000014,
      "d": 184.21025000000373,
      "v": 81
    },
    {
      "midi": 86,
      "hit": false,
      "t": 171631.32150000017,
      "d": 184.21025000000373,
      "v": 76
    },
    {
      "midi": 45,
      "hit": false,
      "t": 171789.2159999998,
      "d": 1263.1559999999881,
      "v": 82
    },
    {
      "midi": 52,
      "hit": false,
      "t": 171789.21600000007,
      "d": 1263.1559999999881,
      "v": 42
    },
    {
      "midi": 57,
      "hit": false,
      "t": 171789.21600000007,
      "d": 1263.1559999999881,
      "v": 60
    },
    {
      "midi": 60,
      "hit": false,
      "t": 171789.21600000007,
      "d": 1263.1559999999881,
      "v": 72
    },
    {
      "midi": 72,
      "hit": false,
      "t": 171789.21600000013,
      "d": 1263.1560000000172,
      "v": 75
    },
    {
      "midi": 76,
      "hit": false,
      "t": 171789.21600000013,
      "d": 1263.1560000000172,
      "v": 83
    },
    {
      "midi": 84,
      "hit": false,
      "t": 171789.21600000016,
      "d": 1263.1560000000172,
      "v": 70
    },
    {
      "midi": 88,
      "hit": false,
      "t": 171789.21600000016,
      "d": 1263.1560000000172,
      "v": 78
    },
    {
      "midi": 29,
      "hit": false,
      "t": 173052.3719999998,
      "d": 657.8937500000175,
      "v": 80
    },
    {
      "midi": 69,
      "hit": false,
      "t": 173052.37200000015,
      "d": 657.8937500000175,
      "v": 70
    },
    {
      "midi": 72,
      "hit": false,
      "t": 173052.37200000015,
      "d": 657.8937500000175,
      "v": 63
    },
    {
      "midi": 77,
      "hit": false,
      "t": 173052.37200000015,
      "d": 657.8937500000175,
      "v": 83
    },
    {
      "midi": 81,
      "hit": false,
      "t": 173052.37200000018,
      "d": 657.8937500000175,
      "v": 65
    },
    {
      "midi": 84,
      "hit": false,
      "t": 173052.37200000018,
      "d": 657.8937500000175,
      "v": 58
    },
    {
      "midi": 89,
      "hit": false,
      "t": 173052.37200000018,
      "d": 657.8937500000175,
      "v": 78
    },
    {
      "midi": 41,
      "hit": false,
      "t": 173368.16100000005,
      "d": 657.8937500000175,
      "v": 70
    },
    {
      "midi": 31,
      "hit": false,
      "t": 173683.9499999998,
      "d": 657.8937500000175,
      "v": 68
    },
    {
      "midi": 67,
      "hit": false,
      "t": 173683.95000000016,
      "d": 631.5780000000086,
      "v": 55
    },
    {
      "midi": 71,
      "hit": false,
      "t": 173683.95000000016,
      "d": 657.8937500000175,
      "v": 65
    },
    {
      "midi": 76,
      "hit": false,
      "t": 173683.95000000016,
      "d": 657.8937500000175,
      "v": 71
    },
    {
      "midi": 79,
      "hit": false,
      "t": 173683.9500000002,
      "d": 631.5780000000086,
      "v": 50
    },
    {
      "midi": 83,
      "hit": false,
      "t": 173683.9500000002,
      "d": 657.8937500000175,
      "v": 60
    },
    {
      "midi": 88,
      "hit": false,
      "t": 173683.9500000002,
      "d": 657.8937500000175,
      "v": 66
    },
    {
      "midi": 43,
      "hit": false,
      "t": 173999.73900000006,
      "d": 657.8937500000175,
      "v": 58
    },
    {
      "midi": 35,
      "hit": false,
      "t": 174315.52799999982,
      "d": 631.5780000000086,
      "v": 60
    },
    {
      "midi": 67,
      "hit": false,
      "t": 174315.52800000017,
      "d": 631.5780000000086,
      "v": 45
    },
    {
      "midi": 65,
      "hit": false,
      "t": 174315.52800000017,
      "d": 657.8937500000175,
      "v": 53
    },
    {
      "midi": 74,
      "hit": false,
      "t": 174315.52800000017,
      "d": 657.8937500000175,
      "v": 63
    },
    {
      "midi": 79,
      "hit": false,
      "t": 174315.5280000002,
      "d": 631.5780000000086,
      "v": 40
    },
    {
      "midi": 77,
      "hit": false,
      "t": 174315.5280000002,
      "d": 657.8937500000175,
      "v": 48
    },
    {
      "midi": 86,
      "hit": false,
      "t": 174315.5280000002,
      "d": 657.8937500000175,
      "v": 58
    },
    {
      "midi": 47,
      "hit": false,
      "t": 174631.31700000007,
      "d": 315.78900000001886,
      "v": 50
    },
    {
      "midi": 36,
      "hit": false,
      "t": 174947.10599999983,
      "d": 631.5780000000086,
      "v": 55
    },
    {
      "midi": 48,
      "hit": false,
      "t": 174947.1060000001,
      "d": 499.9992500000226,
      "v": 52
    },
    {
      "midi": 64,
      "hit": false,
      "t": 174947.10600000017,
      "d": 499.9992500000226,
      "v": 50
    },
    {
      "midi": 67,
      "hit": false,
      "t": 174947.10600000017,
      "d": 499.9992500000226,
      "v": 43
    },
    {
      "midi": 72,
      "hit": false,
      "t": 174947.10600000017,
      "d": 499.9992500000226,
      "v": 65
    },
    {
      "midi": 76,
      "hit": false,
      "t": 174947.1060000002,
      "d": 499.9992500000226,
      "v": 45
    },
    {
      "midi": 79,
      "hit": false,
      "t": 174947.1060000002,
      "d": 499.9992500000226,
      "v": 38
    },
    {
      "midi": 84,
      "hit": false,
      "t": 174947.1060000002,
      "d": 499.9992500000226,
      "v": 60
    },
    {
      "midi": 53,
      "hit": false,
      "t": 175420.7895000001,
      "d": 184.21025000000373,
      "v": 32
    },
    {
      "midi": 57,
      "hit": false,
      "t": 175420.7895000001,
      "d": 184.21025000000373,
      "v": 40
    },
    {
      "midi": 60,
      "hit": false,
      "t": 175420.7895000001,
      "d": 1421.050500000012,
      "v": 48
    },
    {
      "midi": 65,
      "hit": false,
      "t": 175420.7895000002,
      "d": 184.21025000000373,
      "v": 48
    },
    {
      "midi": 69,
      "hit": false,
      "t": 175420.7895000002,
      "d": 184.21025000000373,
      "v": 61
    },
    {
      "midi": 77,
      "hit": false,
      "t": 175420.78950000022,
      "d": 184.21025000000373,
      "v": 43
    },
    {
      "midi": 81,
      "hit": false,
      "t": 175420.78950000022,
      "d": 184.21025000000373,
      "v": 56
    },
    {
      "midi": 48,
      "hit": false,
      "t": 175578.6840000001,
      "d": 1263.1560000000172,
      "v": 40
    },
    {
      "midi": 55,
      "hit": false,
      "t": 175578.6840000001,
      "d": 1263.1560000000172,
      "v": 50
    },
    {
      "midi": 64,
      "hit": false,
      "t": 175578.68400000018,
      "d": 1263.1560000000172,
      "v": 53
    },
    {
      "midi": 67,
      "hit": false,
      "t": 175578.68400000018,
      "d": 1263.1560000000172,
      "v": 40
    },
    {
      "midi": 72,
      "hit": false,
      "t": 175578.68400000018,
      "d": 1263.1560000000172,
      "v": 63
    },
    {
      "midi": 76,
      "hit": false,
      "t": 175578.6840000002,
      "d": 1263.1560000000172,
      "v": 48
    },
    {
      "midi": 79,
      "hit": false,
      "t": 175578.6840000002,
      "d": 1263.1560000000172,
      "v": 35
    },
    {
      "midi": 84,
      "hit": false,
      "t": 175578.6840000002,
      "d": 1263.1560000000172,
      "v": 58
    },
    {
      "midi": 52,
      "hit": false,
      "t": 176841.83999999982,
      "d": 657.8937500000175,
      "v": 75
    },
    {
      "midi": 55,
      "hit": false,
      "t": 176841.8400000001,
      "d": 657.8937500000175,
      "v": 53
    },
    {
      "midi": 59,
      "hit": false,
      "t": 176841.8400000001,
      "d": 657.8937500000175,
      "v": 65
    },
    {
      "midi": 64,
      "hit": false,
      "t": 176841.8400000002,
      "d": 657.8937500000175,
      "v": 63
    },
    {
      "midi": 67,
      "hit": false,
      "t": 176841.8400000002,
      "d": 657.8937500000175,
      "v": 75
    },
    {
      "midi": 76,
      "hit": false,
      "t": 176841.84000000023,
      "d": 657.8937500000175,
      "v": 58
    },
    {
      "midi": 79,
      "hit": false,
      "t": 176841.84000000023,
      "d": 657.8937500000175,
      "v": 70
    },
    {
      "midi": 53,
      "hit": false,
      "t": 177473.41799999983,
      "d": 657.8937500000175,
      "v": 83
    },
    {
      "midi": 57,
      "hit": false,
      "t": 177473.41800000012,
      "d": 657.8937500000175,
      "v": 76
    },
    {
      "midi": 62,
      "hit": false,
      "t": 177473.4180000002,
      "d": 657.8937500000175,
      "v": 65
    },
    {
      "midi": 69,
      "hit": false,
      "t": 177473.4180000002,
      "d": 657.8937500000175,
      "v": 86
    },
    {
      "midi": 74,
      "hit": false,
      "t": 177473.41800000024,
      "d": 657.8937500000175,
      "v": 60
    },
    {
      "midi": 81,
      "hit": false,
      "t": 177473.41800000024,
      "d": 657.8937500000175,
      "v": 81
    },
    {
      "midi": 50,
      "hit": false,
      "t": 178104.99599999984,
      "d": 631.5780000000086,
      "v": 87
    },
    {
      "midi": 53,
      "hit": false,
      "t": 178104.99600000013,
      "d": 631.5780000000086,
      "v": 63
    },
    {
      "midi": 59,
      "hit": false,
      "t": 178104.99600000013,
      "d": 631.5780000000086,
      "v": 80
    },
    {
      "midi": 65,
      "hit": false,
      "t": 178104.99600000022,
      "d": 631.5780000000086,
      "v": 60
    },
    {
      "midi": 71,
      "hit": false,
      "t": 178104.99600000022,
      "d": 631.5780000000086,
      "v": 90
    },
    {
      "midi": 77,
      "hit": false,
      "t": 178104.99600000025,
      "d": 631.5780000000086,
      "v": 55
    },
    {
      "midi": 83,
      "hit": false,
      "t": 178104.99600000025,
      "d": 631.5780000000086,
      "v": 85
    },
    {
      "midi": 48,
      "hit": false,
      "t": 178736.57399999985,
      "d": 526.3150000000023,
      "v": 90
    },
    {
      "midi": 52,
      "hit": false,
      "t": 178736.57400000014,
      "d": 526.3150000000023,
      "v": 66
    },
    {
      "midi": 55,
      "hit": false,
      "t": 178736.57400000014,
      "d": 526.3150000000023,
      "v": 53
    },
    {
      "midi": 60,
      "hit": false,
      "t": 178736.57400000014,
      "d": 526.3150000000023,
      "v": 83
    },
    {
      "midi": 64,
      "hit": false,
      "t": 178736.57400000023,
      "d": 499.9992500000226,
      "v": 63
    },
    {
      "midi": 72,
      "hit": false,
      "t": 178736.57400000023,
      "d": 499.9992500000226,
      "v": 95
    },
    {
      "midi": 76,
      "hit": false,
      "t": 178736.57400000026,
      "d": 499.9992500000226,
      "v": 58
    },
    {
      "midi": 84,
      "hit": false,
      "t": 178736.57400000026,
      "d": 499.9992500000226,
      "v": 90
    },
    {
      "midi": 74,
      "hit": false,
      "t": 179210.25750000024,
      "d": 184.21025000000373,
      "v": 100
    },
    {
      "midi": 86,
      "hit": false,
      "t": 179210.25750000027,
      "d": 184.21025000000373,
      "v": 95
    },
    {
      "midi": 33,
      "hit": false,
      "t": 179368.15199999986,
      "d": 1263.1559999999881,
      "v": 100
    },
    {
      "midi": 45,
      "hit": false,
      "t": 179368.15199999986,
      "d": 1263.1559999999881,
      "v": 77
    },
    {
      "midi": 50,
      "hit": false,
      "t": 179368.15200000015,
      "d": 1263.1559999999881,
      "v": 80
    },
    {
      "midi": 54,
      "hit": false,
      "t": 179368.15200000015,
      "d": 1263.1559999999881,
      "v": 67
    },
    {
      "midi": 60,
      "hit": false,
      "t": 179368.15200000015,
      "d": 1263.1559999999881,
      "v": 90
    },
    {
      "midi": 66,
      "hit": false,
      "t": 179368.15200000023,
      "d": 1263.1560000000172,
      "v": 93
    },
    {
      "midi": 72,
      "hit": false,
      "t": 179368.15200000023,
      "d": 1263.1560000000172,
      "v": 80
    },
    {
      "midi": 76,
      "hit": false,
      "t": 179368.15200000023,
      "d": 1263.1560000000172,
      "v": 103
    },
    {
      "midi": 78,
      "hit": false,
      "t": 179368.15200000026,
      "d": 1263.1560000000172,
      "v": 88
    },
    {
      "midi": 84,
      "hit": false,
      "t": 179368.15200000026,
      "d": 1263.1560000000172,
      "v": 75
    },
    {
      "midi": 88,
      "hit": false,
      "t": 179368.15200000026,
      "d": 1263.1560000000172,
      "v": 98
    },
    {
      "midi": 31,
      "hit": false,
      "t": 180631.30799999984,
      "d": 631.5780000000086,
      "v": 90
    },
    {
      "midi": 43,
      "hit": false,
      "t": 180631.30799999984,
      "d": 631.5780000000086,
      "v": 70
    },
    {
      "midi": 55,
      "hit": false,
      "t": 180631.30800000014,
      "d": 631.5780000000086,
      "v": 68
    },
    {
      "midi": 60,
      "hit": false,
      "t": 180631.30800000014,
      "d": 631.5780000000086,
      "v": 73
    },
    {
      "midi": 64,
      "hit": false,
      "t": 180631.30800000014,
      "d": 657.8937500000175,
      "v": 85
    },
    {
      "midi": 67,
      "hit": false,
      "t": 180631.30800000025,
      "d": 631.5780000000086,
      "v": 70
    },
    {
      "midi": 72,
      "hit": false,
      "t": 180631.30800000025,
      "d": 631.5780000000086,
      "v": 86
    },
    {
      "midi": 76,
      "hit": false,
      "t": 180631.30800000025,
      "d": 657.8937500000175,
      "v": 98
    },
    {
      "midi": 79,
      "hit": false,
      "t": 180631.30800000028,
      "d": 631.5780000000086,
      "v": 65
    },
    {
      "midi": 84,
      "hit": false,
      "t": 180631.30800000028,
      "d": 631.5780000000086,
      "v": 81
    },
    {
      "midi": 88,
      "hit": false,
      "t": 180631.30800000028,
      "d": 657.8937500000175,
      "v": 93
    },
    {
      "midi": 55,
      "hit": false,
      "t": 181262.88600000014,
      "d": 631.5780000000086,
      "v": 65
    },
    {
      "midi": 60,
      "hit": false,
      "t": 181262.88600000014,
      "d": 631.5780000000086,
      "v": 75
    },
    {
      "midi": 65,
      "hit": false,
      "t": 181262.88600000014,
      "d": 657.8937500000175,
      "v": 90
    },
    {
      "midi": 72,
      "hit": false,
      "t": 181262.88600000026,
      "d": 631.5780000000086,
      "v": 73
    },
    {
      "midi": 77,
      "hit": false,
      "t": 181262.88600000026,
      "d": 657.8937500000175,
      "v": 85
    },
    {
      "midi": 81,
      "hit": false,
      "t": 181262.88600000026,
      "d": 657.8937500000175,
      "v": 103
    },
    {
      "midi": 84,
      "hit": false,
      "t": 181262.8860000003,
      "d": 631.5780000000086,
      "v": 68
    },
    {
      "midi": 93,
      "hit": false,
      "t": 181262.8860000003,
      "d": 657.8937500000175,
      "v": 98
    },
    {
      "midi": 43,
      "hit": false,
      "t": 181894.46399999986,
      "d": 631.5780000000086,
      "v": 95
    },
    {
      "midi": 55,
      "hit": false,
      "t": 181894.46400000015,
      "d": 631.5780000000086,
      "v": 67
    },
    {
      "midi": 60,
      "hit": false,
      "t": 181894.46400000015,
      "d": 657.8937500000175,
      "v": 78
    },
    {
      "midi": 64,
      "hit": false,
      "t": 181894.46400000015,
      "d": 657.8937500000175,
      "v": 93
    },
    {
      "midi": 72,
      "hit": false,
      "t": 181894.46400000027,
      "d": 657.8937500000175,
      "v": 75
    },
    {
      "midi": 76,
      "hit": false,
      "t": 181894.46400000027,
      "d": 657.8937500000175,
      "v": 91
    },
    {
      "midi": 79,
      "hit": false,
      "t": 181894.46400000027,
      "d": 657.8937500000175,
      "v": 106
    },
    {
      "midi": 84,
      "hit": false,
      "t": 181894.4640000003,
      "d": 657.8937500000175,
      "v": 70
    },
    {
      "midi": 91,
      "hit": false,
      "t": 181894.4640000003,
      "d": 657.8937500000175,
      "v": 101
    },
    {
      "midi": 55,
      "hit": false,
      "t": 182526.04199999987,
      "d": 315.78899999998976,
      "v": 88
    },
    {
      "midi": 59,
      "hit": false,
      "t": 182526.04200000016,
      "d": 263.15750000003027,
      "v": 65
    },
    {
      "midi": 69,
      "hit": false,
      "t": 182526.04200000016,
      "d": 263.15750000003027,
      "v": 90
    },
    {
      "midi": 71,
      "hit": false,
      "t": 182526.04200000028,
      "d": 263.15750000003027,
      "v": 96
    },
    {
      "midi": 77,
      "hit": false,
      "t": 182526.04200000028,
      "d": 263.15750000003027,
      "v": 103
    },
    {
      "midi": 83,
      "hit": false,
      "t": 182526.0420000003,
      "d": 263.15750000003027,
      "v": 91
    },
    {
      "midi": 89,
      "hit": false,
      "t": 182526.0420000003,
      "d": 263.15750000003027,
      "v": 98
    },
    {
      "midi": 67,
      "hit": false,
      "t": 182762.88375000018,
      "d": 184.21025000000373,
      "v": 83
    },
    {
      "midi": 76,
      "hit": false,
      "t": 182762.8837500003,
      "d": 210.52600000001257,
      "v": 95
    },
    {
      "midi": 88,
      "hit": false,
      "t": 182762.88375000033,
      "d": 210.52600000001257,
      "v": 90
    },
    {
      "midi": 43,
      "hit": false,
      "t": 182999.72549999985,
      "d": 184.21025000000373,
      "v": 73
    },
    {
      "midi": 55,
      "hit": false,
      "t": 183065.5148750002,
      "d": 65.78937499999302,
      "v": 65
    },
    {
      "midi": 65,
      "hit": false,
      "t": 183065.5148750002,
      "d": 65.78937499999302,
      "v": 80
    },
    {
      "midi": 71,
      "hit": false,
      "t": 183065.5148750003,
      "d": 65.78937499999302,
      "v": 75
    },
    {
      "midi": 74,
      "hit": false,
      "t": 183065.5148750003,
      "d": 65.78937499999302,
      "v": 90
    },
    {
      "midi": 83,
      "hit": false,
      "t": 183065.51487500034,
      "d": 65.78937499999302,
      "v": 70
    },
    {
      "midi": 86,
      "hit": false,
      "t": 183065.51487500034,
      "d": 65.78937499999302,
      "v": 85
    },
    {
      "midi": 48,
      "hit": false,
      "t": 183157.61999999985,
      "d": 657.8937500000175,
      "v": 75
    },
    {
      "midi": 55,
      "hit": false,
      "t": 183157.6200000002,
      "d": 1157.893000000011,
      "v": 45
    },
    {
      "midi": 60,
      "hit": false,
      "t": 183157.6200000002,
      "d": 1157.893000000011,
      "v": 52
    },
    {
      "midi": 64,
      "hit": false,
      "t": 183157.6200000002,
      "d": 1157.893000000011,
      "v": 70
    },
    {
      "midi": 67,
      "hit": false,
      "t": 183157.62000000032,
      "d": 1157.893000000011,
      "v": 55
    },
    {
      "midi": 72,
      "hit": false,
      "t": 183157.62000000032,
      "d": 1157.893000000011,
      "v": 83
    },
    {
      "midi": 76,
      "hit": false,
      "t": 183157.62000000034,
      "d": 1157.893000000011,
      "v": 65
    },
    {
      "midi": 84,
      "hit": false,
      "t": 183157.62000000034,
      "d": 1157.893000000011,
      "v": 78
    },
    {
      "midi": 36,
      "hit": false,
      "t": 183789.19799999986,
      "d": 526.3150000000023,
      "v": 60
    },
    {
      "midi": 43,
      "hit": false,
      "t": 184420.77599999987,
      "d": 631.5780000000086,
      "v": 50
    },
    {
      "midi": 55,
      "hit": false,
      "t": 184420.77600000022,
      "d": 631.5780000000086,
      "v": 25
    },
    {
      "midi": 59,
      "hit": false,
      "t": 184420.77600000022,
      "d": 657.8937500000175,
      "v": 35
    },
    {
      "midi": 62,
      "hit": false,
      "t": 184420.77600000022,
      "d": 657.8937500000175,
      "v": 48
    },
    {
      "midi": 67,
      "hit": false,
      "t": 184420.77600000036,
      "d": 657.8937500000175,
      "v": 50
    },
    {
      "midi": 71,
      "hit": false,
      "t": 184420.77600000036,
      "d": 657.8937500000175,
      "v": 58
    },
    {
      "midi": 55,
      "hit": false,
      "t": 185052.35400000022,
      "d": 631.5780000000086,
      "v": 33
    },
    {
      "midi": 57,
      "hit": false,
      "t": 185052.35400000022,
      "d": 657.8937500000175,
      "v": 50
    },
    {
      "midi": 60,
      "hit": false,
      "t": 185052.35400000022,
      "d": 657.8937500000175,
      "v": 60
    },
    {
      "midi": 69,
      "hit": false,
      "t": 185052.35400000037,
      "d": 657.8937500000175,
      "v": 57
    },
    {
      "midi": 72,
      "hit": false,
      "t": 185052.35400000037,
      "d": 657.8937500000175,
      "v": 70
    },
    {
      "midi": 43,
      "hit": false,
      "t": 185683.93199999988,
      "d": 631.5780000000086,
      "v": 70
    },
    {
      "midi": 55,
      "hit": false,
      "t": 185683.93200000023,
      "d": 631.5780000000086,
      "v": 36
    },
    {
      "midi": 59,
      "hit": false,
      "t": 185683.93200000023,
      "d": 657.8937500000175,
      "v": 56
    },
    {
      "midi": 62,
      "hit": false,
      "t": 185683.93200000023,
      "d": 657.8937500000175,
      "v": 68
    },
    {
      "midi": 67,
      "hit": false,
      "t": 185683.93200000032,
      "d": 631.5780000000086,
      "v": 58
    },
    {
      "midi": 71,
      "hit": false,
      "t": 185683.93200000038,
      "d": 631.5780000000086,
      "v": 64
    },
    {
      "midi": 74,
      "hit": false,
      "t": 185683.93200000038,
      "d": 631.5780000000086,
      "v": 78
    },
    {
      "midi": 48,
      "hit": false,
      "t": 186315.5099999999,
      "d": 526.3150000000023,
      "v": 78
    },
    {
      "midi": 55,
      "hit": false,
      "t": 186315.51000000024,
      "d": 526.3150000000023,
      "v": 45
    },
    {
      "midi": 60,
      "hit": false,
      "t": 186315.51000000024,
      "d": 526.3150000000023,
      "v": 60
    },
    {
      "midi": 64,
      "hit": false,
      "t": 186315.51000000024,
      "d": 526.3150000000023,
      "v": 76
    },
    {
      "midi": 67,
      "hit": false,
      "t": 186315.51000000033,
      "d": 526.3150000000023,
      "v": 66
    },
    {
      "midi": 72,
      "hit": false,
      "t": 186315.5100000004,
      "d": 499.9992500000226,
      "v": 74
    },
    {
      "midi": 76,
      "hit": false,
      "t": 186315.5100000004,
      "d": 499.9992500000226,
      "v": 81
    },
    {
      "midi": 71,
      "hit": false,
      "t": 186789.1935000004,
      "d": 184.21025000000373,
      "v": 70
    },
    {
      "midi": 75,
      "hit": false,
      "t": 186789.1935000004,
      "d": 184.21025000000373,
      "v": 84
    },
    {
      "midi": 48,
      "hit": false,
      "t": 186947.0879999999,
      "d": 342.1047499999986,
      "v": 75
    },
    {
      "midi": 60,
      "hit": false,
      "t": 186947.08800000025,
      "d": 342.1047499999986,
      "v": 60
    },
    {
      "midi": 64,
      "hit": false,
      "t": 186947.08800000025,
      "d": 342.1047499999986,
      "v": 73
    },
    {
      "midi": 67,
      "hit": false,
      "t": 186947.08800000034,
      "d": 1263.1559999999881,
      "v": 75
    },
    {
      "midi": 72,
      "hit": false,
      "t": 186947.0880000004,
      "d": 1263.1560000000172,
      "v": 80
    },
    {
      "midi": 76,
      "hit": false,
      "t": 186947.0880000004,
      "d": 1263.1560000000172,
      "v": 95
    },
    {
      "midi": 50,
      "hit": false,
      "t": 187262.8769999999,
      "d": 342.1047500000277,
      "v": 80
    },
    {
      "midi": 62,
      "hit": false,
      "t": 187262.87700000024,
      "d": 342.1047500000277,
      "v": 64
    },
    {
      "midi": 66,
      "hit": false,
      "t": 187262.87700000024,
      "d": 342.1047500000277,
      "v": 78
    },
    {
      "midi": 48,
      "hit": false,
      "t": 187578.6659999999,
      "d": 342.1047500000277,
      "v": 83
    },
    {
      "midi": 60,
      "hit": false,
      "t": 187578.66600000026,
      "d": 342.1047500000277,
      "v": 67
    },
    {
      "midi": 64,
      "hit": false,
      "t": 187578.66600000026,
      "d": 342.1047500000277,
      "v": 81
    },
    {
      "midi": 47,
      "hit": false,
      "t": 187894.45499999993,
      "d": 342.1047500000277,
      "v": 85
    },
    {
      "midi": 59,
      "hit": false,
      "t": 187894.45500000028,
      "d": 342.1047500000277,
      "v": 69
    },
    {
      "midi": 62,
      "hit": false,
      "t": 187894.45500000028,
      "d": 342.1047500000277,
      "v": 83
    },
    {
      "midi": 33,
      "hit": false,
      "t": 188210.24399999995,
      "d": 1289.471750000026,
      "v": 90
    },
    {
      "midi": 45,
      "hit": false,
      "t": 188210.24399999995,
      "d": 1289.471750000026,
      "v": 70
    },
    {
      "midi": 57,
      "hit": false,
      "t": 188210.2440000003,
      "d": 1289.471750000026,
      "v": 72
    },
    {
      "midi": 60,
      "hit": false,
      "t": 188210.2440000003,
      "d": 1289.471750000026,
      "v": 88
    },
    {
      "midi": 64,
      "hit": false,
      "t": 188210.24400000033,
      "d": 657.8937500000175,
      "v": 78
    },
    {
      "midi": 72,
      "hit": false,
      "t": 188210.2440000004,
      "d": 631.5780000000086,
      "v": 85
    },
    {
      "midi": 76,
      "hit": false,
      "t": 188210.2440000004,
      "d": 657.8937500000175,
      "v": 88
    },
    {
      "midi": 66,
      "hit": false,
      "t": 188841.82200000033,
      "d": 657.8937500000175,
      "v": 84
    },
    {
      "midi": 72,
      "hit": false,
      "t": 188841.82200000042,
      "d": 657.8937500000175,
      "v": 78
    },
    {
      "midi": 78,
      "hit": false,
      "t": 188841.82200000042,
      "d": 657.8937500000175,
      "v": 94
    },
    {
      "midi": 35,
      "hit": false,
      "t": 189473.39999999997,
      "d": 657.8937500000175,
      "v": 100
    },
    {
      "midi": 47,
      "hit": false,
      "t": 189473.39999999997,
      "d": 657.8937500000175,
      "v": 78
    },
    {
      "midi": 55,
      "hit": false,
      "t": 189473.4000000003,
      "d": 631.5780000000086,
      "v": 60
    },
    {
      "midi": 59,
      "hit": false,
      "t": 189473.4000000003,
      "d": 657.8937500000175,
      "v": 76
    },
    {
      "midi": 62,
      "hit": false,
      "t": 189473.4000000003,
      "d": 657.8937500000175,
      "v": 98
    },
    {
      "midi": 67,
      "hit": false,
      "t": 189473.40000000034,
      "d": 631.5780000000086,
      "v": 88
    },
    {
      "midi": 74,
      "hit": false,
      "t": 189473.40000000043,
      "d": 631.5780000000086,
      "v": 80
    },
    {
      "midi": 79,
      "hit": false,
      "t": 189473.40000000043,
      "d": 631.5780000000086,
      "v": 98
    },
    {
      "midi": 28,
      "hit": false,
      "t": 190104.97799999997,
      "d": 657.8937500000175,
      "v": 108
    },
    {
      "midi": 40,
      "hit": false,
      "t": 190104.97799999997,
      "d": 657.8937500000175,
      "v": 83
    },
    {
      "midi": 60,
      "hit": false,
      "t": 190104.97800000032,
      "d": 631.5780000000086,
      "v": 81
    },
    {
      "midi": 55,
      "hit": false,
      "t": 190104.97800000032,
      "d": 657.8937500000175,
      "v": 65
    },
    {
      "midi": 64,
      "hit": false,
      "t": 190104.97800000032,
      "d": 657.8937500000175,
      "v": 106
    },
    {
      "midi": 72,
      "hit": false,
      "t": 190104.97800000035,
      "d": 631.5780000000086,
      "v": 96
    },
    {
      "midi": 67,
      "hit": false,
      "t": 190104.97800000035,
      "d": 657.8937500000175,
      "v": 55
    },
    {
      "midi": 79,
      "hit": false,
      "t": 190104.97800000044,
      "d": 657.8937500000175,
      "v": 75
    },
    {
      "midi": 84,
      "hit": false,
      "t": 190104.97800000044,
      "d": 1289.471750000026,
      "v": 106
    },
    {
      "midi": 30,
      "hit": false,
      "t": 190736.55599999998,
      "d": 657.8937500000175,
      "v": 115
    },
    {
      "midi": 42,
      "hit": false,
      "t": 190736.55599999998,
      "d": 657.8937500000175,
      "v": 88
    },
    {
      "midi": 60,
      "hit": false,
      "t": 190736.55600000033,
      "d": 657.8937500000175,
      "v": 75
    },
    {
      "midi": 63,
      "hit": false,
      "t": 190736.55600000033,
      "d": 657.8937500000175,
      "v": 100
    },
    {
      "midi": 69,
      "hit": false,
      "t": 190736.55600000033,
      "d": 657.8937500000175,
      "v": 113
    },
    {
      "midi": 72,
      "hit": false,
      "t": 190736.55600000036,
      "d": 657.8937500000175,
      "v": 65
    },
    {
      "midi": 75,
      "hit": false,
      "t": 190736.55600000036,
      "d": 657.8937500000175,
      "v": 103
    },
    {
      "midi": 81,
      "hit": false,
      "t": 190736.55600000045,
      "d": 657.8937500000175,
      "v": 85
    },
    {
      "midi": 31,
      "hit": false,
      "t": 191368.134,
      "d": 657.8937500000175,
      "v": 100
    },
    {
      "midi": 43,
      "hit": false,
      "t": 191368.134,
      "d": 657.8937500000175,
      "v": 78
    },
    {
      "midi": 50,
      "hit": false,
      "t": 191368.13400000034,
      "d": 657.8937500000175,
      "v": 68
    },
    {
      "midi": 59,
      "hit": false,
      "t": 191368.13400000034,
      "d": 657.8937500000175,
      "v": 76
    },
    {
      "midi": 62,
      "hit": false,
      "t": 191368.13400000034,
      "d": 657.8937500000175,
      "v": 98
    },
    {
      "midi": 71,
      "hit": false,
      "t": 191368.13400000037,
      "d": 657.8937500000175,
      "v": 66
    },
    {
      "midi": 74,
      "hit": false,
      "t": 191368.13400000037,
      "d": 657.8937500000175,
      "v": 88
    },
    {
      "midi": 79,
      "hit": false,
      "t": 191368.13400000046,
      "d": 657.8937500000175,
      "v": 76
    },
    {
      "midi": 83,
      "hit": false,
      "t": 191368.13400000046,
      "d": 657.8937500000175,
      "v": 98
    },
    {
      "midi": 33,
      "hit": false,
      "t": 191999.712,
      "d": 657.8937500000175,
      "v": 85
    },
    {
      "midi": 45,
      "hit": false,
      "t": 191999.712,
      "d": 657.8937500000175,
      "v": 65
    },
    {
      "midi": 57,
      "hit": false,
      "t": 191999.71200000035,
      "d": 657.8937500000175,
      "v": 63
    },
    {
      "midi": 60,
      "hit": false,
      "t": 191999.71200000035,
      "d": 657.8937500000175,
      "v": 83
    },
    {
      "midi": 69,
      "hit": false,
      "t": 191999.71200000038,
      "d": 657.8937500000175,
      "v": 53
    },
    {
      "midi": 72,
      "hit": false,
      "t": 191999.71200000038,
      "d": 657.8937500000175,
      "v": 73
    },
    {
      "midi": 76,
      "hit": false,
      "t": 191999.71200000047,
      "d": 657.8937500000175,
      "v": 63
    },
    {
      "midi": 81,
      "hit": false,
      "t": 191999.71200000047,
      "d": 657.8937500000175,
      "v": 83
    },
    {
      "midi": 35,
      "hit": false,
      "t": 192631.29,
      "d": 657.8937500000175,
      "v": 72
    },
    {
      "midi": 47,
      "hit": false,
      "t": 192631.29,
      "d": 657.8937500000175,
      "v": 55
    },
    {
      "midi": 55,
      "hit": false,
      "t": 192631.29000000036,
      "d": 657.8937500000175,
      "v": 40
    },
    {
      "midi": 59,
      "hit": false,
      "t": 192631.29000000036,
      "d": 657.8937500000175,
      "v": 53
    },
    {
      "midi": 62,
      "hit": false,
      "t": 192631.29000000036,
      "d": 3157.890000000014,
      "v": 70
    },
    {
      "midi": 67,
      "hit": false,
      "t": 192631.2900000004,
      "d": 657.8937500000175,
      "v": 30
    },
    {
      "midi": 71,
      "hit": false,
      "t": 192631.2900000004,
      "d": 657.8937500000175,
      "v": 60
    },
    {
      "midi": 74,
      "hit": false,
      "t": 192631.29000000047,
      "d": 657.8937500000175,
      "v": 55
    },
    {
      "midi": 79,
      "hit": false,
      "t": 192631.29000000047,
      "d": 657.8937500000175,
      "v": 70
    },
    {
      "midi": 38,
      "hit": false,
      "t": 193262.86800000002,
      "d": 657.8937500000175,
      "v": 60
    },
    {
      "midi": 50,
      "hit": false,
      "t": 193262.86800000002,
      "d": 657.8937500000175,
      "v": 45
    },
    {
      "midi": 54,
      "hit": false,
      "t": 193262.86800000037,
      "d": 657.8937500000175,
      "v": 43
    },
    {
      "midi": 57,
      "hit": false,
      "t": 193262.86800000037,
      "d": 657.8937500000175,
      "v": 50
    },
    {
      "midi": 66,
      "hit": false,
      "t": 193262.8680000004,
      "d": 657.8937500000175,
      "v": 33
    },
    {
      "midi": 69,
      "hit": false,
      "t": 193262.8680000004,
      "d": 657.8937500000175,
      "v": 52
    },
    {
      "midi": 72,
      "hit": false,
      "t": 193262.86800000048,
      "d": 657.8937500000175,
      "v": 50
    },
    {
      "midi": 78,
      "hit": false,
      "t": 193262.86800000048,
      "d": 657.8937500000175,
      "v": 62
    },
    {
      "midi": 31,
      "hit": false,
      "t": 193894.44600000003,
      "d": 526.3150000000023,
      "v": 52
    },
    {
      "midi": 43,
      "hit": false,
      "t": 193894.44600000003,
      "d": 526.3150000000023,
      "v": 40
    },
    {
      "midi": 55,
      "hit": false,
      "t": 193894.44600000037,
      "d": 1894.7339999999967,
      "v": 38
    },
    {
      "midi": 59,
      "hit": false,
      "t": 193894.44600000037,
      "d": 1894.7339999999967,
      "v": 45
    },
    {
      "midi": 67,
      "hit": false,
      "t": 193894.4460000004,
      "d": 526.3150000000023,
      "v": 30
    },
    {
      "midi": 71,
      "hit": false,
      "t": 193894.4460000004,
      "d": 526.3150000000023,
      "v": 55
    },
    {
      "midi": 74,
      "hit": false,
      "t": 193894.4460000005,
      "d": 263.15750000003027,
      "v": 45
    },
    {
      "midi": 81,
      "hit": false,
      "t": 193894.4460000005,
      "d": 263.15750000003027,
      "v": 65
    },
    {
      "midi": 79,
      "hit": false,
      "t": 194131.2877500005,
      "d": 157.89449999999488,
      "v": 60
    },
    {
      "midi": 78,
      "hit": false,
      "t": 194315.49800000052,
      "d": 105.26300000000629,
      "v": 45
    },
    {
      "midi": 31,
      "hit": false,
      "t": 194526.02400000003,
      "d": 1263.1559999999881,
      "v": 45
    },
    {
      "midi": 43,
      "hit": false,
      "t": 194526.02400000003,
      "d": 1263.1559999999881,
      "v": 35
    },
    {
      "midi": 67,
      "hit": false,
      "t": 194526.0240000004,
      "d": 1263.1559999999881,
      "v": 25
    },
    {
      "midi": 71,
      "hit": false,
      "t": 194526.0240000004,
      "d": 1263.1559999999881,
      "v": 45
    },
    {
      "midi": 74,
      "hit": false,
      "t": 194526.02400000053,
      "d": 1263.1559999999881,
      "v": 25
    },
    {
      "midi": 79,
      "hit": false,
      "t": 194526.02400000053,
      "d": 1263.1559999999881,
      "v": 50
    },
    {
      "midi": 43,
      "hit": false,
      "t": 195789.18000000002,
      "d": 631.5780000000086,
      "v": 50
    },
    {
      "midi": 55,
      "hit": false,
      "t": 195789.18000000037,
      "d": 631.5780000000086,
      "v": 25
    },
    {
      "midi": 59,
      "hit": false,
      "t": 195789.18000000037,
      "d": 657.8937500000175,
      "v": 35
    },
    {
      "midi": 62,
      "hit": false,
      "t": 195789.18000000037,
      "d": 657.8937500000175,
      "v": 48
    },
    {
      "midi": 67,
      "hit": false,
      "t": 195789.18000000052,
      "d": 657.8937500000175,
      "v": 50
    },
    {
      "midi": 71,
      "hit": false,
      "t": 195789.18000000052,
      "d": 657.8937500000175,
      "v": 58
    },
    {
      "midi": 55,
      "hit": false,
      "t": 196420.75800000038,
      "d": 631.5780000000086,
      "v": 33
    },
    {
      "midi": 57,
      "hit": false,
      "t": 196420.75800000038,
      "d": 657.8937500000175,
      "v": 50
    },
    {
      "midi": 60,
      "hit": false,
      "t": 196420.75800000038,
      "d": 657.8937500000175,
      "v": 60
    },
    {
      "midi": 69,
      "hit": false,
      "t": 196420.75800000053,
      "d": 657.8937500000175,
      "v": 57
    },
    {
      "midi": 72,
      "hit": false,
      "t": 196420.75800000053,
      "d": 657.8937500000175,
      "v": 70
    },
    {
      "midi": 43,
      "hit": false,
      "t": 197052.33600000004,
      "d": 631.5780000000086,
      "v": 70
    },
    {
      "midi": 67,
      "hit": false,
      "t": 197052.3360000004,
      "d": 631.5780000000086,
      "v": 58
    },
    {
      "midi": 55,
      "hit": false,
      "t": 197052.3360000004,
      "d": 631.5780000000086,
      "v": 36
    },
    {
      "midi": 59,
      "hit": false,
      "t": 197052.3360000004,
      "d": 657.8937500000175,
      "v": 56
    },
    {
      "midi": 62,
      "hit": false,
      "t": 197052.3360000004,
      "d": 657.8937500000175,
      "v": 68
    },
    {
      "midi": 71,
      "hit": false,
      "t": 197052.33600000053,
      "d": 631.5780000000086,
      "v": 64
    },
    {
      "midi": 74,
      "hit": false,
      "t": 197052.33600000053,
      "d": 631.5780000000086,
      "v": 78
    },
    {
      "midi": 48,
      "hit": false,
      "t": 197683.91400000005,
      "d": 526.3150000000023,
      "v": 78
    },
    {
      "midi": 67,
      "hit": false,
      "t": 197683.9140000004,
      "d": 526.3150000000023,
      "v": 66
    },
    {
      "midi": 55,
      "hit": false,
      "t": 197683.9140000004,
      "d": 526.3150000000023,
      "v": 45
    },
    {
      "midi": 60,
      "hit": false,
      "t": 197683.9140000004,
      "d": 526.3150000000023,
      "v": 60
    },
    {
      "midi": 64,
      "hit": false,
      "t": 197683.9140000004,
      "d": 526.3150000000023,
      "v": 76
    },
    {
      "midi": 72,
      "hit": false,
      "t": 197683.91400000054,
      "d": 499.9992500000226,
      "v": 74
    },
    {
      "midi": 76,
      "hit": false,
      "t": 197683.91400000054,
      "d": 499.9992500000226,
      "v": 81
    },
    {
      "midi": 71,
      "hit": false,
      "t": 198157.59750000056,
      "d": 184.21025000000373,
      "v": 70
    },
    {
      "midi": 75,
      "hit": false,
      "t": 198157.59750000056,
      "d": 184.21025000000373,
      "v": 84
    },
    {
      "midi": 48,
      "hit": false,
      "t": 198315.49200000006,
      "d": 342.1047499999986,
      "v": 75
    },
    {
      "midi": 67,
      "hit": false,
      "t": 198315.4920000004,
      "d": 1263.1559999999881,
      "v": 75
    },
    {
      "midi": 60,
      "hit": false,
      "t": 198315.4920000004,
      "d": 342.1047499999986,
      "v": 60
    },
    {
      "midi": 64,
      "hit": false,
      "t": 198315.4920000004,
      "d": 342.1047499999986,
      "v": 73
    },
    {
      "midi": 72,
      "hit": false,
      "t": 198315.49200000055,
      "d": 1263.1560000000172,
      "v": 80
    },
    {
      "midi": 76,
      "hit": false,
      "t": 198315.49200000055,
      "d": 1263.1560000000172,
      "v": 95
    },
    {
      "midi": 50,
      "hit": false,
      "t": 198631.28100000005,
      "d": 342.1047500000277,
      "v": 80
    },
    {
      "midi": 62,
      "hit": false,
      "t": 198631.2810000004,
      "d": 342.1047500000277,
      "v": 64
    },
    {
      "midi": 66,
      "hit": false,
      "t": 198631.2810000004,
      "d": 342.1047500000277,
      "v": 78
    },
    {
      "midi": 48,
      "hit": false,
      "t": 198947.07000000007,
      "d": 342.1047500000277,
      "v": 83
    },
    {
      "midi": 60,
      "hit": false,
      "t": 198947.0700000004,
      "d": 342.1047500000277,
      "v": 67
    },
    {
      "midi": 64,
      "hit": false,
      "t": 198947.0700000004,
      "d": 342.1047500000277,
      "v": 81
    },
    {
      "midi": 47,
      "hit": false,
      "t": 199262.85900000008,
      "d": 342.1047500000277,
      "v": 85
    },
    {
      "midi": 59,
      "hit": false,
      "t": 199262.85900000043,
      "d": 342.1047500000277,
      "v": 69
    },
    {
      "midi": 62,
      "hit": false,
      "t": 199262.85900000043,
      "d": 342.1047500000277,
      "v": 83
    },
    {
      "midi": 33,
      "hit": false,
      "t": 199578.6480000001,
      "d": 1289.471750000026,
      "v": 90
    },
    {
      "midi": 45,
      "hit": false,
      "t": 199578.6480000001,
      "d": 1289.471750000026,
      "v": 70
    },
    {
      "midi": 64,
      "hit": false,
      "t": 199578.6480000004,
      "d": 657.8937500000175,
      "v": 78
    },
    {
      "midi": 57,
      "hit": false,
      "t": 199578.64800000045,
      "d": 1289.471750000026,
      "v": 72
    },
    {
      "midi": 60,
      "hit": false,
      "t": 199578.64800000045,
      "d": 1289.471750000026,
      "v": 88
    },
    {
      "midi": 72,
      "hit": false,
      "t": 199578.64800000057,
      "d": 631.5780000000086,
      "v": 85
    },
    {
      "midi": 76,
      "hit": false,
      "t": 199578.64800000057,
      "d": 657.8937500000175,
      "v": 88
    },
    {
      "midi": 66,
      "hit": false,
      "t": 200210.2260000004,
      "d": 657.8937500000175,
      "v": 84
    },
    {
      "midi": 72,
      "hit": false,
      "t": 200210.22600000058,
      "d": 657.8937500000175,
      "v": 78
    },
    {
      "midi": 78,
      "hit": false,
      "t": 200210.22600000058,
      "d": 657.8937500000175,
      "v": 94
    },
    {
      "midi": 35,
      "hit": false,
      "t": 200841.80400000012,
      "d": 657.8937500000175,
      "v": 100
    },
    {
      "midi": 47,
      "hit": false,
      "t": 200841.80400000012,
      "d": 657.8937500000175,
      "v": 78
    },
    {
      "midi": 67,
      "hit": false,
      "t": 200841.8040000004,
      "d": 631.5780000000086,
      "v": 88
    },
    {
      "midi": 55,
      "hit": false,
      "t": 200841.80400000047,
      "d": 631.5780000000086,
      "v": 60
    },
    {
      "midi": 59,
      "hit": false,
      "t": 200841.80400000047,
      "d": 657.8937500000175,
      "v": 76
    },
    {
      "midi": 62,
      "hit": false,
      "t": 200841.80400000047,
      "d": 657.8937500000175,
      "v": 98
    },
    {
      "midi": 74,
      "hit": false,
      "t": 200841.8040000006,
      "d": 631.5780000000086,
      "v": 80
    },
    {
      "midi": 79,
      "hit": false,
      "t": 200841.8040000006,
      "d": 631.5780000000086,
      "v": 98
    },
    {
      "midi": 28,
      "hit": false,
      "t": 201473.38200000013,
      "d": 657.8937500000175,
      "v": 108
    },
    {
      "midi": 40,
      "hit": false,
      "t": 201473.38200000013,
      "d": 657.8937500000175,
      "v": 83
    },
    {
      "midi": 72,
      "hit": false,
      "t": 201473.38200000042,
      "d": 631.5780000000086,
      "v": 96
    },
    {
      "midi": 67,
      "hit": false,
      "t": 201473.38200000042,
      "d": 657.8937500000175,
      "v": 55
    },
    {
      "midi": 60,
      "hit": false,
      "t": 201473.38200000048,
      "d": 631.5780000000086,
      "v": 81
    },
    {
      "midi": 55,
      "hit": false,
      "t": 201473.38200000048,
      "d": 657.8937500000175,
      "v": 65
    },
    {
      "midi": 64,
      "hit": false,
      "t": 201473.38200000048,
      "d": 657.8937500000175,
      "v": 106
    },
    {
      "midi": 79,
      "hit": false,
      "t": 201473.3820000006,
      "d": 657.8937500000175,
      "v": 75
    },
    {
      "midi": 84,
      "hit": false,
      "t": 201473.3820000006,
      "d": 1289.471750000026,
      "v": 106
    },
    {
      "midi": 30,
      "hit": false,
      "t": 202104.96000000014,
      "d": 657.8937500000175,
      "v": 115
    },
    {
      "midi": 42,
      "hit": false,
      "t": 202104.96000000014,
      "d": 657.8937500000175,
      "v": 88
    },
    {
      "midi": 72,
      "hit": false,
      "t": 202104.96000000043,
      "d": 657.8937500000175,
      "v": 65
    },
    {
      "midi": 75,
      "hit": false,
      "t": 202104.96000000043,
      "d": 657.8937500000175,
      "v": 103
    },
    {
      "midi": 60,
      "hit": false,
      "t": 202104.9600000005,
      "d": 657.8937500000175,
      "v": 75
    },
    {
      "midi": 63,
      "hit": false,
      "t": 202104.9600000005,
      "d": 657.8937500000175,
      "v": 100
    },
    {
      "midi": 69,
      "hit": false,
      "t": 202104.9600000005,
      "d": 657.8937500000175,
      "v": 113
    },
    {
      "midi": 81,
      "hit": false,
      "t": 202104.9600000006,
      "d": 657.8937500000175,
      "v": 85
    },
    {
      "midi": 31,
      "hit": false,
      "t": 202736.53800000015,
      "d": 657.8937500000175,
      "v": 100
    },
    {
      "midi": 43,
      "hit": false,
      "t": 202736.53800000015,
      "d": 657.8937500000175,
      "v": 78
    },
    {
      "midi": 71,
      "hit": false,
      "t": 202736.53800000044,
      "d": 657.8937500000175,
      "v": 66
    },
    {
      "midi": 74,
      "hit": false,
      "t": 202736.53800000044,
      "d": 657.8937500000175,
      "v": 88
    },
    {
      "midi": 50,
      "hit": false,
      "t": 202736.5380000005,
      "d": 657.8937500000175,
      "v": 68
    },
    {
      "midi": 59,
      "hit": false,
      "t": 202736.5380000005,
      "d": 657.8937500000175,
      "v": 76
    },
    {
      "midi": 62,
      "hit": false,
      "t": 202736.5380000005,
      "d": 657.8937500000175,
      "v": 98
    },
    {
      "midi": 79,
      "hit": false,
      "t": 202736.5380000006,
      "d": 657.8937500000175,
      "v": 76
    },
    {
      "midi": 83,
      "hit": false,
      "t": 202736.5380000006,
      "d": 657.8937500000175,
      "v": 98
    },
    {
      "midi": 33,
      "hit": false,
      "t": 203368.11600000015,
      "d": 657.8937500000175,
      "v": 85
    },
    {
      "midi": 45,
      "hit": false,
      "t": 203368.11600000015,
      "d": 657.8937500000175,
      "v": 65
    },
    {
      "midi": 69,
      "hit": false,
      "t": 203368.11600000045,
      "d": 657.8937500000175,
      "v": 53
    },
    {
      "midi": 72,
      "hit": false,
      "t": 203368.11600000045,
      "d": 657.8937500000175,
      "v": 73
    },
    {
      "midi": 57,
      "hit": false,
      "t": 203368.1160000005,
      "d": 657.8937500000175,
      "v": 63
    },
    {
      "midi": 60,
      "hit": false,
      "t": 203368.1160000005,
      "d": 657.8937500000175,
      "v": 83
    },
    {
      "midi": 76,
      "hit": false,
      "t": 203368.11600000062,
      "d": 657.8937500000175,
      "v": 63
    },
    {
      "midi": 81,
      "hit": false,
      "t": 203368.11600000062,
      "d": 657.8937500000175,
      "v": 83
    },
    {
      "midi": 35,
      "hit": false,
      "t": 203999.69400000016,
      "d": 657.8937500000175,
      "v": 72
    },
    {
      "midi": 47,
      "hit": false,
      "t": 203999.69400000016,
      "d": 657.8937500000175,
      "v": 55
    },
    {
      "midi": 67,
      "hit": false,
      "t": 203999.69400000045,
      "d": 657.8937500000175,
      "v": 30
    },
    {
      "midi": 71,
      "hit": false,
      "t": 203999.69400000045,
      "d": 657.8937500000175,
      "v": 60
    },
    {
      "midi": 55,
      "hit": false,
      "t": 203999.6940000005,
      "d": 657.8937500000175,
      "v": 40
    },
    {
      "midi": 59,
      "hit": false,
      "t": 203999.6940000005,
      "d": 657.8937500000175,
      "v": 53
    },
    {
      "midi": 62,
      "hit": false,
      "t": 203999.6940000005,
      "d": 3052.627000000037,
      "v": 70
    },
    {
      "midi": 74,
      "hit": false,
      "t": 203999.69400000063,
      "d": 657.8937500000175,
      "v": 55
    },
    {
      "midi": 79,
      "hit": false,
      "t": 203999.69400000063,
      "d": 657.8937500000175,
      "v": 70
    },
    {
      "midi": 38,
      "hit": false,
      "t": 204631.27200000017,
      "d": 657.8937500000175,
      "v": 60
    },
    {
      "midi": 50,
      "hit": false,
      "t": 204631.27200000017,
      "d": 657.8937500000175,
      "v": 45
    },
    {
      "midi": 66,
      "hit": false,
      "t": 204631.27200000046,
      "d": 657.8937500000175,
      "v": 33
    },
    {
      "midi": 69,
      "hit": false,
      "t": 204631.27200000046,
      "d": 657.8937500000175,
      "v": 52
    },
    {
      "midi": 54,
      "hit": false,
      "t": 204631.27200000052,
      "d": 657.8937500000175,
      "v": 43
    },
    {
      "midi": 57,
      "hit": false,
      "t": 204631.27200000052,
      "d": 657.8937500000175,
      "v": 50
    },
    {
      "midi": 72,
      "hit": false,
      "t": 204631.27200000064,
      "d": 657.8937500000175,
      "v": 50
    },
    {
      "midi": 78,
      "hit": false,
      "t": 204631.27200000064,
      "d": 657.8937500000175,
      "v": 62
    },
    {
      "midi": 31,
      "hit": false,
      "t": 205262.85000000018,
      "d": 526.3150000000023,
      "v": 52
    },
    {
      "midi": 43,
      "hit": false,
      "t": 205262.85000000018,
      "d": 526.3150000000023,
      "v": 40
    },
    {
      "midi": 67,
      "hit": false,
      "t": 205262.85000000047,
      "d": 526.3150000000023,
      "v": 30
    },
    {
      "midi": 71,
      "hit": false,
      "t": 205262.85000000047,
      "d": 526.3150000000023,
      "v": 55
    },
    {
      "midi": 55,
      "hit": false,
      "t": 205262.85000000053,
      "d": 1789.4710000000196,
      "v": 38
    },
    {
      "midi": 59,
      "hit": false,
      "t": 205262.85000000053,
      "d": 1789.4710000000196,
      "v": 45
    },
    {
      "midi": 74,
      "hit": false,
      "t": 205262.85000000065,
      "d": 263.15750000003027,
      "v": 45
    },
    {
      "midi": 81,
      "hit": false,
      "t": 205262.85000000065,
      "d": 263.15750000003027,
      "v": 65
    },
    {
      "midi": 79,
      "hit": false,
      "t": 205499.69175000067,
      "d": 157.89449999999488,
      "v": 60
    },
    {
      "midi": 78,
      "hit": false,
      "t": 205683.90200000067,
      "d": 105.26300000000629,
      "v": 45
    },
    {
      "midi": 31,
      "hit": false,
      "t": 205894.4280000002,
      "d": 1157.893000000011,
      "v": 45
    },
    {
      "midi": 43,
      "hit": false,
      "t": 205894.4280000002,
      "d": 1157.893000000011,
      "v": 35
    },
    {
      "midi": 67,
      "hit": false,
      "t": 205894.42800000048,
      "d": 1157.893000000011,
      "v": 25
    },
    {
      "midi": 71,
      "hit": false,
      "t": 205894.42800000048,
      "d": 1157.893000000011,
      "v": 45
    },
    {
      "midi": 74,
      "hit": false,
      "t": 205894.42800000068,
      "d": 1157.893000000011,
      "v": 25
    },
    {
      "midi": 79,
      "hit": false,
      "t": 205894.42800000068,
      "d": 1157.893000000011,
      "v": 50
    },
    {
      "midi": 52,
      "hit": false,
      "t": 207157.5840000002,
      "d": 657.8937500000175,
      "v": 45
    },
    {
      "midi": 59,
      "hit": false,
      "t": 207157.5840000002,
      "d": 657.8937500000175,
      "v": 35
    },
    {
      "midi": 76,
      "hit": false,
      "t": 207157.5840000005,
      "d": 184.21025000000373,
      "v": 30
    },
    {
      "midi": 64,
      "hit": false,
      "t": 207157.58400000056,
      "d": 657.8937500000175,
      "v": 35
    },
    {
      "midi": 67,
      "hit": false,
      "t": 207157.58400000056,
      "d": 657.8937500000175,
      "v": 43
    },
    {
      "midi": 88,
      "hit": false,
      "t": 207473.3730000007,
      "d": 184.21025000000373,
      "v": 25
    },
    {
      "midi": 53,
      "hit": false,
      "t": 207789.16200000021,
      "d": 631.5780000000086,
      "v": 53
    },
    {
      "midi": 57,
      "hit": false,
      "t": 207789.16200000021,
      "d": 657.8937500000175,
      "v": 46
    },
    {
      "midi": 74,
      "hit": false,
      "t": 207789.1620000005,
      "d": 131.57874999998603,
      "v": 35
    },
    {
      "midi": 62,
      "hit": false,
      "t": 207789.16200000056,
      "d": 657.8937500000175,
      "v": 38
    },
    {
      "midi": 69,
      "hit": false,
      "t": 207789.16200000056,
      "d": 657.8937500000175,
      "v": 51
    },
    {
      "midi": 86,
      "hit": false,
      "t": 208104.9510000007,
      "d": 131.57874999998603,
      "v": 30
    },
    {
      "midi": 50,
      "hit": false,
      "t": 208420.74000000022,
      "d": 631.5780000000086,
      "v": 57
    },
    {
      "midi": 53,
      "hit": false,
      "t": 208420.74000000022,
      "d": 631.5780000000086,
      "v": 33
    },
    {
      "midi": 77,
      "hit": false,
      "t": 208420.7400000005,
      "d": 157.89449999999488,
      "v": 32
    },
    {
      "midi": 65,
      "hit": false,
      "t": 208420.74000000057,
      "d": 631.5780000000086,
      "v": 41
    },
    {
      "midi": 71,
      "hit": false,
      "t": 208420.74000000057,
      "d": 631.5780000000086,
      "v": 55
    },
    {
      "midi": 89,
      "hit": false,
      "t": 208736.52900000068,
      "d": 157.89449999999488,
      "v": 27
    },
    {
      "midi": 48,
      "hit": false,
      "t": 209052.31800000023,
      "d": 526.3150000000023,
      "v": 60
    },
    {
      "midi": 55,
      "hit": false,
      "t": 209052.31800000023,
      "d": 526.3150000000023,
      "v": 23
    },
    {
      "midi": 76,
      "hit": false,
      "t": 209052.3180000005,
      "d": 184.21025000000373,
      "v": 38
    },
    {
      "midi": 64,
      "hit": false,
      "t": 209052.31800000058,
      "d": 499.9992500000226,
      "v": 51
    },
    {
      "midi": 72,
      "hit": false,
      "t": 209052.31800000058,
      "d": 499.9992500000226,
      "v": 58
    },
    {
      "midi": 88,
      "hit": false,
      "t": 209368.1070000007,
      "d": 184.21025000000373,
      "v": 33
    },
    {
      "midi": 74,
      "hit": false,
      "t": 209526.0015000006,
      "d": 184.21025000000373,
      "v": 61
    },
    {
      "midi": 45,
      "hit": false,
      "t": 209604.94875000024,
      "d": 1342.1032500000147,
      "v": 70
    },
    {
      "midi": 52,
      "hit": false,
      "t": 209670.73812500024,
      "d": 1276.3138750000217,
      "v": 47
    },
    {
      "midi": 84,
      "hit": false,
      "t": 209683.8960000005,
      "d": 131.57874999998603,
      "v": 45
    },
    {
      "midi": 64,
      "hit": false,
      "t": 209683.8960000006,
      "d": 1263.1560000000172,
      "v": 58
    },
    {
      "midi": 72,
      "hit": false,
      "t": 209683.8960000006,
      "d": 1263.1560000000172,
      "v": 50
    },
    {
      "midi": 76,
      "hit": false,
      "t": 209683.8960000006,
      "d": 1263.1560000000172,
      "v": 63
    },
    {
      "midi": 60,
      "hit": false,
      "t": 209710.21175000025,
      "d": 1236.8402500000084,
      "v": 37
    },
    {
      "midi": 96,
      "hit": false,
      "t": 209999.6850000007,
      "d": 131.57874999998603,
      "v": 40
    },
    {
      "midi": 81,
      "hit": false,
      "t": 210315.47400000048,
      "d": 157.89449999999488,
      "v": 50
    },
    {
      "midi": 93,
      "hit": false,
      "t": 210631.26300000068,
      "d": 157.89449999999488,
      "v": 45
    },
    {
      "midi": 41,
      "hit": false,
      "t": 210947.05200000026,
      "d": 657.8937500000175,
      "v": 55
    },
    {
      "midi": 81,
      "hit": false,
      "t": 210947.0520000005,
      "d": 184.21025000000373,
      "v": 48
    },
    {
      "midi": 69,
      "hit": false,
      "t": 210947.0520000006,
      "d": 657.8937500000175,
      "v": 50
    },
    {
      "midi": 72,
      "hit": false,
      "t": 210947.0520000006,
      "d": 657.8937500000175,
      "v": 43
    },
    {
      "midi": 77,
      "hit": false,
      "t": 210947.0520000006,
      "d": 657.8937500000175,
      "v": 63
    },
    {
      "midi": 93,
      "hit": false,
      "t": 211262.84100000068,
      "d": 184.21025000000373,
      "v": 43
    },
    {
      "midi": 43,
      "hit": false,
      "t": 211578.63000000027,
      "d": 657.8937500000175,
      "v": 49
    },
    {
      "midi": 79,
      "hit": false,
      "t": 211578.6300000005,
      "d": 131.57874999998603,
      "v": 40
    },
    {
      "midi": 67,
      "hit": false,
      "t": 211578.63000000062,
      "d": 631.5780000000086,
      "v": 35
    },
    {
      "midi": 71,
      "hit": false,
      "t": 211578.63000000062,
      "d": 657.8937500000175,
      "v": 45
    },
    {
      "midi": 76,
      "hit": false,
      "t": 211578.63000000062,
      "d": 657.8937500000175,
      "v": 51
    },
    {
      "midi": 91,
      "hit": false,
      "t": 211894.4190000007,
      "d": 131.57874999998603,
      "v": 35
    },
    {
      "midi": 47,
      "hit": false,
      "t": 212210.20800000028,
      "d": 631.5780000000086,
      "v": 45
    },
    {
      "midi": 79,
      "hit": false,
      "t": 212210.20800000048,
      "d": 157.89449999999488,
      "v": 35
    },
    {
      "midi": 67,
      "hit": false,
      "t": 212210.20800000062,
      "d": 631.5780000000086,
      "v": 25
    },
    {
      "midi": 65,
      "hit": false,
      "t": 212210.20800000062,
      "d": 657.8937500000175,
      "v": 33
    },
    {
      "midi": 74,
      "hit": false,
      "t": 212210.20800000062,
      "d": 657.8937500000175,
      "v": 43
    },
    {
      "midi": 91,
      "hit": false,
      "t": 212525.99700000067,
      "d": 157.89449999999488,
      "v": 30
    },
    {
      "midi": 48,
      "hit": false,
      "t": 212841.78600000028,
      "d": 631.5780000000086,
      "v": 60
    },
    {
      "midi": 76,
      "hit": false,
      "t": 212841.7860000005,
      "d": 184.21025000000373,
      "v": 30
    },
    {
      "midi": 64,
      "hit": false,
      "t": 212841.78600000063,
      "d": 499.9992500000226,
      "v": 30
    },
    {
      "midi": 67,
      "hit": false,
      "t": 212841.78600000063,
      "d": 499.9992500000226,
      "v": 23
    },
    {
      "midi": 72,
      "hit": false,
      "t": 212841.78600000063,
      "d": 499.9992500000226,
      "v": 45
    },
    {
      "midi": 88,
      "hit": false,
      "t": 212841.78600000066,
      "d": 184.21025000000373,
      "v": 25
    },
    {
      "midi": 72,
      "hit": false,
      "t": 213157.57500000048,
      "d": 131.57874999998603,
      "v": 35
    },
    {
      "midi": 84,
      "hit": false,
      "t": 213157.57500000065,
      "d": 131.57874999998603,
      "v": 30
    },
    {
      "midi": 53,
      "hit": false,
      "t": 213315.4695000003,
      "d": 184.21025000000373,
      "v": 37
    },
    {
      "midi": 57,
      "hit": false,
      "t": 213315.4695000003,
      "d": 184.21025000000373,
      "v": 45
    },
    {
      "midi": 65,
      "hit": false,
      "t": 213315.46950000065,
      "d": 184.21025000000373,
      "v": 28
    },
    {
      "midi": 69,
      "hit": false,
      "t": 213315.46950000065,
      "d": 184.21025000000373,
      "v": 41
    },
    {
      "midi": 48,
      "hit": false,
      "t": 213473.3640000003,
      "d": 1263.1560000000172,
      "v": 45
    },
    {
      "midi": 55,
      "hit": false,
      "t": 213473.3640000003,
      "d": 1263.1560000000172,
      "v": 55
    },
    {
      "midi": 76,
      "hit": false,
      "t": 213473.36400000047,
      "d": 157.89449999999488,
      "v": 33
    },
    {
      "midi": 64,
      "hit": false,
      "t": 213473.36400000064,
      "d": 1263.1560000000172,
      "v": 33
    },
    {
      "midi": 72,
      "hit": false,
      "t": 213473.36400000064,
      "d": 1263.1560000000172,
      "v": 43
    },
    {
      "midi": 88,
      "hit": false,
      "t": 213789.15300000063,
      "d": 157.89449999999488,
      "v": 28
    },
    {
      "midi": 79,
      "hit": false,
      "t": 214104.94200000048,
      "d": 131.57874999998603,
      "v": 30
    },
    {
      "midi": 91,
      "hit": false,
      "t": 214420.73100000064,
      "d": 131.57874999998603,
      "v": 25
    },
    {
      "midi": 52,
      "hit": false,
      "t": 214736.5200000003,
      "d": 657.8937500000175,
      "v": 55
    },
    {
      "midi": 59,
      "hit": false,
      "t": 214736.5200000003,
      "d": 657.8937500000175,
      "v": 45
    },
    {
      "midi": 76,
      "hit": false,
      "t": 214736.52000000046,
      "d": 184.21025000000373,
      "v": 38
    },
    {
      "midi": 64,
      "hit": false,
      "t": 214736.52000000066,
      "d": 657.8937500000175,
      "v": 43
    },
    {
      "midi": 67,
      "hit": false,
      "t": 214736.52000000066,
      "d": 657.8937500000175,
      "v": 55
    },
    {
      "midi": 88,
      "hit": false,
      "t": 215052.30900000062,
      "d": 184.21025000000373,
      "v": 33
    },
    {
      "midi": 53,
      "hit": false,
      "t": 215368.09800000032,
      "d": 631.5780000000086,
      "v": 73
    },
    {
      "midi": 57,
      "hit": false,
      "t": 215368.09800000032,
      "d": 657.8937500000175,
      "v": 60
    },
    {
      "midi": 74,
      "hit": false,
      "t": 215368.09800000046,
      "d": 131.57874999998603,
      "v": 50
    },
    {
      "midi": 62,
      "hit": false,
      "t": 215368.09800000067,
      "d": 657.8937500000175,
      "v": 50
    },
    {
      "midi": 69,
      "hit": false,
      "t": 215368.09800000067,
      "d": 657.8937500000175,
      "v": 71
    },
    {
      "midi": 86,
      "hit": false,
      "t": 215683.88700000063,
      "d": 131.57874999998603,
      "v": 45
    },
    {
      "midi": 50,
      "hit": false,
      "t": 215999.67600000033,
      "d": 631.5780000000086,
      "v": 87
    },
    {
      "midi": 53,
      "hit": false,
      "t": 215999.67600000033,
      "d": 631.5780000000086,
      "v": 63
    },
    {
      "midi": 77,
      "hit": false,
      "t": 215999.67600000044,
      "d": 157.89449999999488,
      "v": 58
    },
    {
      "midi": 65,
      "hit": false,
      "t": 215999.67600000068,
      "d": 631.5780000000086,
      "v": 50
    },
    {
      "midi": 71,
      "hit": false,
      "t": 215999.67600000068,
      "d": 631.5780000000086,
      "v": 80
    },
    {
      "midi": 89,
      "hit": false,
      "t": 216315.4650000006,
      "d": 157.89449999999488,
      "v": 53
    },
    {
      "midi": 48,
      "hit": false,
      "t": 216631.25400000034,
      "d": 526.3150000000023,
      "v": 100
    },
    {
      "midi": 55,
      "hit": false,
      "t": 216631.25400000034,
      "d": 526.3150000000023,
      "v": 63
    },
    {
      "midi": 76,
      "hit": false,
      "t": 216631.25400000045,
      "d": 184.21025000000373,
      "v": 65
    },
    {
      "midi": 64,
      "hit": false,
      "t": 216631.25400000068,
      "d": 499.9992500000226,
      "v": 57
    },
    {
      "midi": 72,
      "hit": false,
      "t": 216631.25400000068,
      "d": 499.9992500000226,
      "v": 89
    },
    {
      "midi": 88,
      "hit": false,
      "t": 216947.04300000062,
      "d": 184.21025000000373,
      "v": 60
    },
    {
      "midi": 74,
      "hit": false,
      "t": 217104.9375000007,
      "d": 184.21025000000373,
      "v": 99
    },
    {
      "midi": 45,
      "hit": false,
      "t": 217183.88475000035,
      "d": 736.8410000000149,
      "v": 120
    },
    {
      "midi": 50,
      "hit": false,
      "t": 217236.51625000034,
      "d": 657.8937500000175,
      "v": 95
    },
    {
      "midi": 84,
      "hit": false,
      "t": 217262.83200000046,
      "d": 131.57874999998603,
      "v": 70
    },
    {
      "midi": 64,
      "hit": false,
      "t": 217262.8320000007,
      "d": 1263.1560000000172,
      "v": 95
    },
    {
      "midi": 66,
      "hit": false,
      "t": 217262.8320000007,
      "d": 1263.1560000000172,
      "v": 72
    },
    {
      "midi": 72,
      "hit": false,
      "t": 217262.8320000007,
      "d": 1263.1560000000172,
      "v": 60
    },
    {
      "midi": 76,
      "hit": false,
      "t": 217262.8320000007,
      "d": 1263.1560000000172,
      "v": 107
    },
    {
      "midi": 54,
      "hit": false,
      "t": 217275.98987500035,
      "d": 644.735875000013,
      "v": 87
    },
    {
      "midi": 60,
      "hit": false,
      "t": 217315.46350000036,
      "d": 605.2622499999998,
      "v": 110
    },
    {
      "midi": 96,
      "hit": false,
      "t": 217578.62100000062,
      "d": 131.57874999998603,
      "v": 65
    },
    {
      "midi": 38,
      "hit": false,
      "t": 217894.41000000035,
      "d": 657.8937500000175,
      "v": 125
    },
    {
      "midi": 50,
      "hit": false,
      "t": 217894.41000000035,
      "d": 657.8937500000175,
      "v": 100
    },
    {
      "midi": 81,
      "hit": false,
      "t": 217894.41000000044,
      "d": 157.89449999999488,
      "v": 74
    },
    {
      "midi": 93,
      "hit": false,
      "t": 218210.1990000006,
      "d": 157.89449999999488,
      "v": 69
    },
    {
      "midi": 43,
      "hit": false,
      "t": 218525.98800000036,
      "d": 631.5780000000086,
      "v": 115
    },
    {
      "midi": 55,
      "hit": false,
      "t": 218525.98800000036,
      "d": 631.5780000000086,
      "v": 90
    },
    {
      "midi": 84,
      "hit": false,
      "t": 218525.98800000045,
      "d": 631.5780000000086,
      "v": 78
    },
    {
      "midi": 64,
      "hit": false,
      "t": 218525.9880000007,
      "d": 631.5780000000086,
      "v": 90
    },
    {
      "midi": 67,
      "hit": false,
      "t": 218525.9880000007,
      "d": 631.5780000000086,
      "v": 68
    },
    {
      "midi": 72,
      "hit": false,
      "t": 218525.9880000007,
      "d": 631.5780000000086,
      "v": 75
    },
    {
      "midi": 76,
      "hit": false,
      "t": 218525.9880000007,
      "d": 657.8937500000175,
      "v": 102
    },
    {
      "midi": 96,
      "hit": false,
      "t": 218841.7770000006,
      "d": 342.1047499999986,
      "v": 73
    },
    {
      "midi": 55,
      "hit": false,
      "t": 219157.56600000037,
      "d": 631.5780000000086,
      "v": 85
    },
    {
      "midi": 60,
      "hit": false,
      "t": 219157.56600000037,
      "d": 631.5780000000086,
      "v": 95
    },
    {
      "midi": 65,
      "hit": false,
      "t": 219157.56600000037,
      "d": 657.8937500000175,
      "v": 110
    },
    {
      "midi": 91,
      "hit": false,
      "t": 219157.56600000046,
      "d": 342.1047499999986,
      "v": 73
    },
    {
      "midi": 103,
      "hit": false,
      "t": 219157.5660000006,
      "d": 342.1047500000277,
      "v": 68
    },
    {
      "midi": 72,
      "hit": false,
      "t": 219157.56600000072,
      "d": 631.5780000000086,
      "v": 77
    },
    {
      "midi": 69,
      "hit": false,
      "t": 219157.56600000072,
      "d": 657.8937500000175,
      "v": 89
    },
    {
      "midi": 81,
      "hit": false,
      "t": 219157.56600000072,
      "d": 657.8937500000175,
      "v": 107
    },
    {
      "midi": 84,
      "hit": false,
      "t": 219473.35500000045,
      "d": 342.1047500000277,
      "v": 75
    },
    {
      "midi": 96,
      "hit": false,
      "t": 219473.35500000062,
      "d": 342.1047500000277,
      "v": 70
    },
    {
      "midi": 43,
      "hit": false,
      "t": 219789.14400000038,
      "d": 631.5780000000086,
      "v": 115
    },
    {
      "midi": 60,
      "hit": false,
      "t": 219789.14400000038,
      "d": 657.8937500000175,
      "v": 98
    },
    {
      "midi": 64,
      "hit": false,
      "t": 219789.14400000038,
      "d": 657.8937500000175,
      "v": 113
    },
    {
      "midi": 88,
      "hit": false,
      "t": 219789.14400000047,
      "d": 342.1047499999986,
      "v": 70
    },
    {
      "midi": 100,
      "hit": false,
      "t": 219789.14400000064,
      "d": 342.1047500000277,
      "v": 58
    },
    {
      "midi": 67,
      "hit": false,
      "t": 219789.14400000073,
      "d": 657.8937500000175,
      "v": 95
    },
    {
      "midi": 72,
      "hit": false,
      "t": 219789.14400000073,
      "d": 657.8937500000175,
      "v": 79
    },
    {
      "midi": 79,
      "hit": false,
      "t": 219789.14400000073,
      "d": 657.8937500000175,
      "v": 110
    },
    {
      "midi": 91,
      "hit": false,
      "t": 220104.93300000066,
      "d": 263.15750000000116,
      "v": 62
    },
    {
      "midi": 62,
      "hit": false,
      "t": 220420.7220000004,
      "d": 263.15750000000116,
      "v": 100
    },
    {
      "midi": 55,
      "hit": false,
      "t": 220420.7220000004,
      "d": 315.78899999998976,
      "v": 108
    },
    {
      "midi": 79,
      "hit": false,
      "t": 220420.72200000047,
      "d": 157.89449999999488,
      "v": 70
    },
    {
      "midi": 91,
      "hit": false,
      "t": 220420.72200000065,
      "d": 157.89449999999488,
      "v": 65
    },
    {
      "midi": 69,
      "hit": false,
      "t": 220420.72200000074,
      "d": 263.15750000003027,
      "v": 100
    },
    {
      "midi": 71,
      "hit": false,
      "t": 220420.72200000074,
      "d": 263.15750000003027,
      "v": 85
    },
    {
      "midi": 77,
      "hit": false,
      "t": 220420.72200000074,
      "d": 263.15750000003027,
      "v": 107
    },
    {
      "midi": 81,
      "hit": false,
      "t": 220552.30075000046,
      "d": 131.57875000001513,
      "v": 58
    },
    {
      "midi": 93,
      "hit": false,
      "t": 220552.30075000064,
      "d": 131.57875000001513,
      "v": 53
    },
    {
      "midi": 79,
      "hit": false,
      "t": 220657.56375000047,
      "d": 118.42087500001071,
      "v": 50
    },
    {
      "midi": 91,
      "hit": false,
      "t": 220657.56375000064,
      "d": 118.42087500001071,
      "v": 45
    },
    {
      "midi": 76,
      "hit": false,
      "t": 220657.56375000076,
      "d": 210.52600000001257,
      "v": 99
    },
    {
      "midi": 81,
      "hit": false,
      "t": 220749.66887500047,
      "d": 131.57875000001513,
      "v": 55
    },
    {
      "midi": 93,
      "hit": false,
      "t": 220749.66887500064,
      "d": 131.57875000001513,
      "v": 50
    },
    {
      "midi": 79,
      "hit": false,
      "t": 220854.93187500047,
      "d": 118.42087500001071,
      "v": 48
    },
    {
      "midi": 91,
      "hit": false,
      "t": 220854.93187500065,
      "d": 118.42087500001071,
      "v": 43
    },
    {
      "midi": 81,
      "hit": false,
      "t": 220947.03700000048,
      "d": 131.57875000001513,
      "v": 52
    },
    {
      "midi": 93,
      "hit": false,
      "t": 220947.03700000065,
      "d": 131.57875000001513,
      "v": 47
    },
    {
      "midi": 55,
      "hit": false,
      "t": 220960.19487500036,
      "d": 65.78937499999302,
      "v": 85
    },
    {
      "midi": 59,
      "hit": false,
      "t": 220960.19487500036,
      "d": 65.78937499999302,
      "v": 100
    },
    {
      "midi": 65,
      "hit": false,
      "t": 220960.19487500077,
      "d": 65.78937499999302,
      "v": 79
    },
    {
      "midi": 67,
      "hit": false,
      "t": 220960.19487500077,
      "d": 65.78937499999302,
      "v": 65
    },
    {
      "midi": 74,
      "hit": false,
      "t": 220960.19487500077,
      "d": 65.78937499999302,
      "v": 94
    },
    {
      "midi": 48,
      "hit": false,
      "t": 221052.30000000037,
      "d": 1157.893000000011,
      "v": 95
    },
    {
      "midi": 55,
      "hit": false,
      "t": 221052.30000000037,
      "d": 1157.893000000011,
      "v": 65
    },
    {
      "midi": 60,
      "hit": false,
      "t": 221052.30000000037,
      "d": 1157.893000000011,
      "v": 72
    },
    {
      "midi": 79,
      "hit": false,
      "t": 221052.30000000048,
      "d": 210.52600000001257,
      "v": 60
    },
    {
      "midi": 91,
      "hit": false,
      "t": 221052.30000000066,
      "d": 210.52600000001257,
      "v": 55
    },
    {
      "midi": 64,
      "hit": false,
      "t": 221052.30000000077,
      "d": 1157.893000000011,
      "v": 70
    },
    {
      "midi": 67,
      "hit": false,
      "t": 221052.30000000077,
      "d": 1157.893000000011,
      "v": 59
    },
    {
      "midi": 72,
      "hit": false,
      "t": 221052.30000000077,
      "d": 1157.893000000011,
      "v": 87
    },
    {
      "midi": 76,
      "hit": false,
      "t": 221236.5102500005,
      "d": 157.89450000002398,
      "v": 52
    },
    {
      "midi": 88,
      "hit": false,
      "t": 221236.51025000066,
      "d": 157.89450000002398,
      "v": 47
    },
    {
      "midi": 77,
      "hit": false,
      "t": 221368.0890000005,
      "d": 171.0523750000284,
      "v": 45
    },
    {
      "midi": 89,
      "hit": false,
      "t": 221368.08900000068,
      "d": 171.0523750000284,
      "v": 40
    },
    {
      "midi": 79,
      "hit": false,
      "t": 221512.82562500052,
      "d": 197.36812500000815,
      "v": 38
    },
    {
      "midi": 91,
      "hit": false,
      "t": 221512.8256250007,
      "d": 197.36812500000815,
      "v": 33
    },
    {
      "midi": 72,
      "hit": false,
      "t": 221683.87800000052,
      "d": 526.3150000000023,
      "v": 40
    },
    {
      "midi": 84,
      "hit": false,
      "t": 221683.8780000007,
      "d": 526.3150000000023,
      "v": 35
    },
    {
      "midi": 40,
      "hit": false,
      "t": 222315.45600000038,
      "d": 184.21025000000373,
      "v": 50
    },
    {
      "midi": 76,
      "hit": false,
      "t": 222631.24500000052,
      "d": 315.78899999998976,
      "v": 45
    },
    {
      "midi": 79,
      "hit": false,
      "t": 222631.2450000007,
      "d": 315.78899999998976,
      "v": 40
    },
    {
      "midi": 83,
      "hit": false,
      "t": 222631.2450000007,
      "d": 342.1047499999986,
      "v": 50
    },
    {
      "midi": 52,
      "hit": false,
      "t": 222631.24500000078,
      "d": 131.57874999998603,
      "v": 40
    },
    {
      "midi": 76,
      "hit": false,
      "t": 222947.0340000005,
      "d": 315.78899999998976,
      "v": 47
    },
    {
      "midi": 79,
      "hit": false,
      "t": 222947.03400000068,
      "d": 315.78900000001886,
      "v": 42
    },
    {
      "midi": 84,
      "hit": false,
      "t": 222947.03400000068,
      "d": 342.1047500000277,
      "v": 55
    },
    {
      "midi": 55,
      "hit": false,
      "t": 222947.03400000077,
      "d": 157.89449999999488,
      "v": 25
    },
    {
      "midi": 64,
      "hit": false,
      "t": 222947.03400000077,
      "d": 157.89449999999488,
      "v": 38
    },
    {
      "midi": 76,
      "hit": false,
      "t": 223262.8230000005,
      "d": 315.78899999998976,
      "v": 43
    },
    {
      "midi": 79,
      "hit": false,
      "t": 223262.8230000007,
      "d": 315.78900000001886,
      "v": 38
    },
    {
      "midi": 83,
      "hit": false,
      "t": 223262.8230000007,
      "d": 342.1047500000277,
      "v": 52
    },
    {
      "midi": 52,
      "hit": false,
      "t": 223578.6120000004,
      "d": 157.89449999999488,
      "v": 40
    },
    {
      "midi": 76,
      "hit": false,
      "t": 223578.6120000005,
      "d": 315.78899999998976,
      "v": 46
    },
    {
      "midi": 79,
      "hit": false,
      "t": 223578.61200000072,
      "d": 315.78900000001886,
      "v": 41
    },
    {
      "midi": 82,
      "hit": false,
      "t": 223578.61200000072,
      "d": 342.1047500000277,
      "v": 57
    },
    {
      "midi": 76,
      "hit": false,
      "t": 223894.40100000048,
      "d": 315.78899999998976,
      "v": 49
    },
    {
      "midi": 79,
      "hit": false,
      "t": 223894.40100000074,
      "d": 315.78900000001886,
      "v": 44
    },
    {
      "midi": 83,
      "hit": false,
      "t": 223894.40100000074,
      "d": 315.78900000001886,
      "v": 63
    },
    {
      "midi": 55,
      "hit": false,
      "t": 223894.40100000077,
      "d": 131.57874999998603,
      "v": 38
    },
    {
      "midi": 64,
      "hit": false,
      "t": 223894.40100000077,
      "d": 131.57874999998603,
      "v": 45
    },
    {
      "midi": 42,
      "hit": false,
      "t": 224210.1900000004,
      "d": 184.21025000000373,
      "v": 55
    },
    {
      "midi": 75,
      "hit": false,
      "t": 224210.19000000047,
      "d": 1263.1559999999881,
      "v": 52
    },
    {
      "midi": 81,
      "hit": false,
      "t": 224210.19000000076,
      "d": 1263.1559999999881,
      "v": 47
    },
    {
      "midi": 84,
      "hit": false,
      "t": 224210.19000000076,
      "d": 1289.471749999997,
      "v": 70
    },
    {
      "midi": 54,
      "hit": false,
      "t": 224525.9790000004,
      "d": 131.57874999998603,
      "v": 50
    },
    {
      "midi": 57,
      "hit": false,
      "t": 224525.97900000075,
      "d": 131.57874999998603,
      "v": 40
    },
    {
      "midi": 63,
      "hit": false,
      "t": 224841.76800000074,
      "d": 105.26300000000629,
      "v": 38
    },
    {
      "midi": 66,
      "hit": false,
      "t": 225157.55700000076,
      "d": 118.42087500001071,
      "v": 45
    },
    {
      "midi": 54,
      "hit": false,
      "t": 225473.3460000004,
      "d": 157.89449999999488,
      "v": 45
    },
    {
      "midi": 57,
      "hit": false,
      "t": 225473.3460000004,
      "d": 157.89449999999488,
      "v": 30
    },
    {
      "midi": 75,
      "hit": false,
      "t": 225473.34600000046,
      "d": 631.5780000000086,
      "v": 47
    },
    {
      "midi": 81,
      "hit": false,
      "t": 225473.34600000075,
      "d": 631.5780000000086,
      "v": 42
    },
    {
      "midi": 83,
      "hit": false,
      "t": 225473.34600000075,
      "d": 631.5780000000086,
      "v": 60
    },
    {
      "midi": 63,
      "hit": false,
      "t": 225473.34600000078,
      "d": 157.89449999999488,
      "v": 28
    },
    {
      "midi": 69,
      "hit": false,
      "t": 225473.34600000078,
      "d": 157.89449999999488,
      "v": 48
    },
    {
      "midi": 43,
      "hit": false,
      "t": 226104.9240000004,
      "d": 184.21025000000373,
      "v": 60
    },
    {
      "midi": 71,
      "hit": false,
      "t": 226104.92400000046,
      "d": 1263.1559999999881,
      "v": 49
    },
    {
      "midi": 76,
      "hit": false,
      "t": 226104.92400000076,
      "d": 947.3669999999984,
      "v": 44
    },
    {
      "midi": 81,
      "hit": false,
      "t": 226104.92400000076,
      "d": 947.3669999999984,
      "v": 65
    },
    {
      "midi": 59,
      "hit": false,
      "t": 226420.71300000077,
      "d": 131.57874999998603,
      "v": 50
    },
    {
      "midi": 64,
      "hit": false,
      "t": 226736.50200000076,
      "d": 157.89449999999488,
      "v": 35
    },
    {
      "midi": 67,
      "hit": false,
      "t": 226736.50200000076,
      "d": 157.89449999999488,
      "v": 48
    },
    {
      "midi": 76,
      "hit": false,
      "t": 227052.29100000075,
      "d": 315.78899999998976,
      "v": 41
    },
    {
      "midi": 79,
      "hit": false,
      "t": 227052.29100000075,
      "d": 342.1047499999986,
      "v": 60
    },
    {
      "midi": 55,
      "hit": false,
      "t": 227368.08000000042,
      "d": 157.89449999999488,
      "v": 52
    },
    {
      "midi": 71,
      "hit": false,
      "t": 227368.08000000045,
      "d": 631.5780000000086,
      "v": 45
    },
    {
      "midi": 76,
      "hit": false,
      "t": 227368.08000000074,
      "d": 315.78900000001886,
      "v": 38
    },
    {
      "midi": 78,
      "hit": false,
      "t": 227368.08000000074,
      "d": 342.1047500000277,
      "v": 53
    },
    {
      "midi": 76,
      "hit": false,
      "t": 227683.86900000076,
      "d": 315.78900000001886,
      "v": 55
    },
    {
      "midi": 59,
      "hit": false,
      "t": 227683.86900000076,
      "d": 131.57874999998603,
      "v": 35
    },
    {
      "midi": 64,
      "hit": false,
      "t": 227683.86900000076,
      "d": 131.57874999998603,
      "v": 42
    },
    {
      "midi": 45,
      "hit": false,
      "t": 227999.65800000043,
      "d": 184.21025000000373,
      "v": 55
    },
    {
      "midi": 72,
      "hit": false,
      "t": 227999.65800000046,
      "d": 1894.7339999999967,
      "v": 40
    },
    {
      "midi": 76,
      "hit": false,
      "t": 227999.65800000078,
      "d": 1894.7339999999967,
      "v": 35
    },
    {
      "midi": 78,
      "hit": false,
      "t": 227999.65800000078,
      "d": 1894.7339999999967,
      "v": 50
    },
    {
      "midi": 52,
      "hit": false,
      "t": 228315.44700000042,
      "d": 131.57874999998603,
      "v": 50
    },
    {
      "midi": 57,
      "hit": false,
      "t": 228315.44700000074,
      "d": 131.57874999998603,
      "v": 45
    },
    {
      "midi": 60,
      "hit": false,
      "t": 228631.23600000073,
      "d": 105.26300000000629,
      "v": 38
    },
    {
      "midi": 64,
      "hit": false,
      "t": 228947.02500000075,
      "d": 118.42087500001071,
      "v": 40
    },
    {
      "midi": 57,
      "hit": false,
      "t": 229262.81400000042,
      "d": 157.89449999999488,
      "v": 41
    },
    {
      "midi": 60,
      "hit": false,
      "t": 229262.81400000042,
      "d": 157.89449999999488,
      "v": 48
    },
    {
      "midi": 64,
      "hit": false,
      "t": 229262.81400000077,
      "d": 157.89449999999488,
      "v": 28
    },
    {
      "midi": 66,
      "hit": false,
      "t": 229262.81400000077,
      "d": 157.89449999999488,
      "v": 35
    },
    {
      "midi": 46,
      "hit": false,
      "t": 229894.39200000043,
      "d": 184.21025000000373,
      "v": 50
    },
    {
      "midi": 73,
      "hit": false,
      "t": 229894.39200000046,
      "d": 1263.1559999999881,
      "v": 45
    },
    {
      "midi": 76,
      "hit": false,
      "t": 230210.18100000077,
      "d": 315.78899999998976,
      "v": 40
    },
    {
      "midi": 78,
      "hit": false,
      "t": 230210.18100000077,
      "d": 342.1047499999986,
      "v": 50
    },
    {
      "midi": 58,
      "hit": false,
      "t": 230210.18100000077,
      "d": 131.57874999998603,
      "v": 28
    },
    {
      "midi": 61,
      "hit": false,
      "t": 230210.18100000077,
      "d": 131.57874999998603,
      "v": 40
    },
    {
      "midi": 76,
      "hit": false,
      "t": 230525.97000000076,
      "d": 315.78900000001886,
      "v": 42
    },
    {
      "midi": 79,
      "hit": false,
      "t": 230525.97000000076,
      "d": 342.1047500000277,
      "v": 55
    },
    {
      "midi": 61,
      "hit": false,
      "t": 230525.97000000076,
      "d": 157.89449999999488,
      "v": 25
    },
    {
      "midi": 64,
      "hit": false,
      "t": 230525.97000000076,
      "d": 157.89449999999488,
      "v": 38
    },
    {
      "midi": 76,
      "hit": false,
      "t": 230841.75900000078,
      "d": 315.78900000001886,
      "v": 38
    },
    {
      "midi": 78,
      "hit": false,
      "t": 230841.75900000078,
      "d": 342.1047500000277,
      "v": 52
    },
    {
      "midi": 73,
      "hit": false,
      "t": 231157.54800000045,
      "d": 631.5780000000086,
      "v": 48
    },
    {
      "midi": 58,
      "hit": false,
      "t": 231157.54800000045,
      "d": 157.89449999999488,
      "v": 48
    },
    {
      "midi": 76,
      "hit": false,
      "t": 231157.5480000008,
      "d": 315.78900000001886,
      "v": 41
    },
    {
      "midi": 77,
      "hit": false,
      "t": 231157.5480000008,
      "d": 342.1047500000277,
      "v": 57
    },
    {
      "midi": 61,
      "hit": false,
      "t": 231473.33700000076,
      "d": 131.57874999998603,
      "v": 38
    },
    {
      "midi": 64,
      "hit": false,
      "t": 231473.33700000076,
      "d": 131.57874999998603,
      "v": 45
    },
    {
      "midi": 76,
      "hit": false,
      "t": 231473.3370000008,
      "d": 315.78900000001886,
      "v": 44
    },
    {
      "midi": 78,
      "hit": false,
      "t": 231473.3370000008,
      "d": 315.78900000001886,
      "v": 63
    },
    {
      "midi": 71,
      "hit": false,
      "t": 231789.12600000045,
      "d": 1263.1559999999881,
      "v": 55
    },
    {
      "midi": 47,
      "hit": false,
      "t": 231789.12600000045,
      "d": 184.21025000000373,
      "v": 60
    },
    {
      "midi": 81,
      "hit": false,
      "t": 231789.12600000083,
      "d": 1289.471749999997,
      "v": 70
    },
    {
      "midi": 76,
      "hit": false,
      "t": 231789.12600000083,
      "d": 1894.7339999999967,
      "v": 47
    },
    {
      "midi": 52,
      "hit": false,
      "t": 232104.91500000074,
      "d": 131.57874999998603,
      "v": 55
    },
    {
      "midi": 55,
      "hit": false,
      "t": 232420.70400000073,
      "d": 105.26300000000629,
      "v": 48
    },
    {
      "midi": 59,
      "hit": false,
      "t": 232736.49300000074,
      "d": 118.42087500001071,
      "v": 50
    },
    {
      "midi": 71,
      "hit": false,
      "t": 233052.28200000044,
      "d": 631.5780000000086,
      "v": 50
    },
    {
      "midi": 59,
      "hit": false,
      "t": 233052.28200000047,
      "d": 157.89449999999488,
      "v": 42
    },
    {
      "midi": 64,
      "hit": false,
      "t": 233052.28200000076,
      "d": 157.89449999999488,
      "v": 42
    },
    {
      "midi": 79,
      "hit": false,
      "t": 233052.28200000082,
      "d": 631.5780000000086,
      "v": 60
    },
    {
      "midi": 69,
      "hit": false,
      "t": 233683.86000000045,
      "d": 1263.1559999999881,
      "v": 52
    },
    {
      "midi": 35,
      "hit": false,
      "t": 233683.86000000048,
      "d": 631.5780000000086,
      "v": 40
    },
    {
      "midi": 47,
      "hit": false,
      "t": 233683.86000000048,
      "d": 631.5780000000086,
      "v": 28
    },
    {
      "midi": 75,
      "hit": false,
      "t": 233683.86000000083,
      "d": 947.3669999999984,
      "v": 44
    },
    {
      "midi": 79,
      "hit": false,
      "t": 233683.86000000083,
      "d": 947.3669999999984,
      "v": 65
    },
    {
      "midi": 57,
      "hit": false,
      "t": 233999.64900000076,
      "d": 131.57874999998603,
      "v": 40
    },
    {
      "midi": 59,
      "hit": false,
      "t": 234315.43800000075,
      "d": 157.89449999999488,
      "v": 25
    },
    {
      "midi": 63,
      "hit": false,
      "t": 234315.43800000075,
      "d": 157.89449999999488,
      "v": 38
    },
    {
      "midi": 78,
      "hit": false,
      "t": 234631.22700000083,
      "d": 342.1047499999986,
      "v": 53
    },
    {
      "midi": 66,
      "hit": false,
      "t": 234947.01600000044,
      "d": 657.8937500000175,
      "v": 38
    },
    {
      "midi": 69,
      "hit": false,
      "t": 234947.01600000044,
      "d": 657.8937500000175,
      "v": 45
    },
    {
      "midi": 35,
      "hit": false,
      "t": 234947.0160000005,
      "d": 157.89449999999488,
      "v": 32
    },
    {
      "midi": 47,
      "hit": false,
      "t": 234947.0160000005,
      "d": 157.89449999999488,
      "v": 20
    },
    {
      "midi": 76,
      "hit": false,
      "t": 234947.01600000082,
      "d": 342.1047500000277,
      "v": 55
    },
    {
      "midi": 59,
      "hit": false,
      "t": 235262.80500000075,
      "d": 131.57874999998603,
      "v": 32
    },
    {
      "midi": 75,
      "hit": false,
      "t": 235262.80500000084,
      "d": 315.78900000001886,
      "v": 48
    },
    {
      "midi": 64,
      "hit": false,
      "t": 235578.59400000045,
      "d": 1263.1560000000172,
      "v": 30
    },
    {
      "midi": 67,
      "hit": false,
      "t": 235578.59400000045,
      "d": 1263.1560000000172,
      "v": 40
    },
    {
      "midi": 36,
      "hit": false,
      "t": 235578.5940000005,
      "d": 184.21025000000373,
      "v": 35
    },
    {
      "midi": 76,
      "hit": false,
      "t": 235578.59400000086,
      "d": 1578.945000000007,
      "v": 45
    },
    {
      "midi": 48,
      "hit": false,
      "t": 235894.3830000005,
      "d": 131.57874999998603,
      "v": 30
    },
    {
      "midi": 52,
      "hit": false,
      "t": 235894.38300000073,
      "d": 131.57874999998603,
      "v": 35
    },
    {
      "midi": 55,
      "hit": false,
      "t": 236210.17200000072,
      "d": 105.26300000000629,
      "v": 28
    },
    {
      "midi": 60,
      "hit": false,
      "t": 236525.96100000074,
      "d": 118.42087500001071,
      "v": 30
    },
    {
      "midi": 48,
      "hit": false,
      "t": 236841.7500000005,
      "d": 157.89449999999488,
      "v": 25
    },
    {
      "midi": 55,
      "hit": false,
      "t": 236841.75000000076,
      "d": 157.89449999999488,
      "v": 18
    },
    {
      "midi": 64,
      "hit": false,
      "t": 236841.75000000076,
      "d": 157.89449999999488,
      "v": 25
    },
    {
      "midi": 31,
      "hit": false,
      "t": 237473.3280000005,
      "d": 342.1047499999986,
      "v": 50
    },
    {
      "midi": 43,
      "hit": false,
      "t": 237473.3280000005,
      "d": 342.1047499999986,
      "v": 32
    },
    {
      "midi": 52,
      "hit": false,
      "t": 237789.1170000005,
      "d": 131.57875000001513,
      "v": 40
    },
    {
      "midi": 64,
      "hit": false,
      "t": 237789.11700000076,
      "d": 315.78899999998976,
      "v": 28
    },
    {
      "midi": 76,
      "hit": false,
      "t": 237789.11700000076,
      "d": 315.78899999998976,
      "v": 35
    },
    {
      "midi": 71,
      "hit": false,
      "t": 237789.11700000076,
      "d": 342.1047499999986,
      "v": 50
    },
    {
      "midi": 79,
      "hit": false,
      "t": 238104.90600000045,
      "d": 631.5780000000086,
      "v": 40
    },
    {
      "midi": 55,
      "hit": false,
      "t": 238104.9060000005,
      "d": 157.89449999999488,
      "v": 35
    },
    {
      "midi": 64,
      "hit": false,
      "t": 238104.90600000074,
      "d": 315.78900000001886,
      "v": 30
    },
    {
      "midi": 76,
      "hit": false,
      "t": 238104.90600000074,
      "d": 315.78900000001886,
      "v": 37
    },
    {
      "midi": 72,
      "hit": false,
      "t": 238104.90600000074,
      "d": 342.1047500000277,
      "v": 55
    },
    {
      "midi": 88,
      "hit": false,
      "t": 238104.90600000086,
      "d": 631.5780000000086,
      "v": 48
    },
    {
      "midi": 64,
      "hit": false,
      "t": 238420.69500000076,
      "d": 315.78900000001886,
      "v": 27
    },
    {
      "midi": 76,
      "hit": false,
      "t": 238420.69500000076,
      "d": 315.78900000001886,
      "v": 33
    },
    {
      "midi": 71,
      "hit": false,
      "t": 238420.69500000076,
      "d": 342.1047500000277,
      "v": 58
    },
    {
      "midi": 31,
      "hit": false,
      "t": 238736.48400000052,
      "d": 631.5780000000086,
      "v": 52
    },
    {
      "midi": 43,
      "hit": false,
      "t": 238736.48400000052,
      "d": 631.5780000000086,
      "v": 35
    },
    {
      "midi": 64,
      "hit": false,
      "t": 238736.48400000078,
      "d": 315.78900000001886,
      "v": 31
    },
    {
      "midi": 76,
      "hit": false,
      "t": 238736.48400000078,
      "d": 315.78900000001886,
      "v": 40
    },
    {
      "midi": 70,
      "hit": false,
      "t": 238736.48400000078,
      "d": 342.1047500000277,
      "v": 66
    },
    {
      "midi": 64,
      "hit": false,
      "t": 239052.2730000008,
      "d": 315.78900000001886,
      "v": 35
    },
    {
      "midi": 76,
      "hit": false,
      "t": 239052.2730000008,
      "d": 315.78900000001886,
      "v": 45
    },
    {
      "midi": 71,
      "hit": false,
      "t": 239052.2730000008,
      "d": 342.1047500000277,
      "v": 70
    },
    {
      "midi": 33,
      "hit": false,
      "t": 239368.06200000053,
      "d": 342.1047499999986,
      "v": 60
    },
    {
      "midi": 45,
      "hit": false,
      "t": 239368.06200000053,
      "d": 342.1047499999986,
      "v": 48
    },
    {
      "midi": 64,
      "hit": false,
      "t": 239368.06200000082,
      "d": 1263.1560000000172,
      "v": 48
    },
    {
      "midi": 76,
      "hit": false,
      "t": 239368.06200000082,
      "d": 1263.1560000000172,
      "v": 55
    },
    {
      "midi": 74,
      "hit": false,
      "t": 239368.06200000082,
      "d": 1289.471750000026,
      "v": 78
    },
    {
      "midi": 52,
      "hit": false,
      "t": 239683.85100000052,
      "d": 131.57875000001513,
      "v": 45
    },
    {
      "midi": 88,
      "hit": false,
      "t": 239683.85100000087,
      "d": 263.15750000000116,
      "v": 65
    },
    {
      "midi": 55,
      "hit": false,
      "t": 239999.64000000054,
      "d": 157.89449999999488,
      "v": 40
    },
    {
      "midi": 88,
      "hit": false,
      "t": 239999.64000000086,
      "d": 210.52600000001257,
      "v": 68
    },
    {
      "midi": 91,
      "hit": false,
      "t": 240183.85025000086,
      "d": 78.94724999999744,
      "v": 58
    },
    {
      "midi": 79,
      "hit": false,
      "t": 240315.42900000047,
      "d": 263.15750000000116,
      "v": 60
    },
    {
      "midi": 33,
      "hit": false,
      "t": 240631.21800000055,
      "d": 631.5780000000086,
      "v": 65
    },
    {
      "midi": 45,
      "hit": false,
      "t": 240631.21800000055,
      "d": 631.5780000000086,
      "v": 45
    },
    {
      "midi": 64,
      "hit": false,
      "t": 240631.21800000084,
      "d": 631.5780000000086,
      "v": 38
    },
    {
      "midi": 76,
      "hit": false,
      "t": 240631.21800000084,
      "d": 631.5780000000086,
      "v": 50
    },
    {
      "midi": 73,
      "hit": false,
      "t": 240631.21800000084,
      "d": 657.8937500000175,
      "v": 65
    },
    {
      "midi": 79,
      "hit": false,
      "t": 240631.21800000087,
      "d": 197.36812500000815,
      "v": 60
    },
    {
      "midi": 88,
      "hit": false,
      "t": 240802.27037500087,
      "d": 78.94724999999744,
      "v": 50
    },
    {
      "midi": 76,
      "hit": false,
      "t": 240947.00700000048,
      "d": 263.15750000000116,
      "v": 52
    },
    {
      "midi": 34,
      "hit": false,
      "t": 241262.79600000056,
      "d": 342.1047499999986,
      "v": 70
    },
    {
      "midi": 46,
      "hit": false,
      "t": 241262.79600000056,
      "d": 342.1047499999986,
      "v": 60
    },
    {
      "midi": 64,
      "hit": false,
      "t": 241262.79600000085,
      "d": 947.3669999999984,
      "v": 40
    },
    {
      "midi": 67,
      "hit": false,
      "t": 241262.79600000085,
      "d": 947.3669999999984,
      "v": 48
    },
    {
      "midi": 76,
      "hit": false,
      "t": 241262.79600000085,
      "d": 947.3669999999984,
      "v": 52
    },
    {
      "midi": 72,
      "hit": false,
      "t": 241262.79600000085,
      "d": 973.6827500000072,
      "v": 70
    },
    {
      "midi": 52,
      "hit": false,
      "t": 241578.58500000054,
      "d": 131.57875000001513,
      "v": 55
    },
    {
      "midi": 76,
      "hit": false,
      "t": 241578.58500000086,
      "d": 342.1047499999986,
      "v": 50
    },
    {
      "midi": 76,
      "hit": false,
      "t": 241894.37400000048,
      "d": 131.57874999998603,
      "v": 40
    },
    {
      "midi": 55,
      "hit": false,
      "t": 241894.37400000056,
      "d": 157.89449999999488,
      "v": 47
    },
    {
      "midi": 79,
      "hit": false,
      "t": 241894.37400000085,
      "d": 131.57875000001513,
      "v": 35
    },
    {
      "midi": 88,
      "hit": false,
      "t": 241894.37400000085,
      "d": 131.57875000001513,
      "v": 53
    },
    {
      "midi": 67,
      "hit": false,
      "t": 242210.16300000084,
      "d": 342.1047500000277,
      "v": 75
    },
    {
      "midi": 34,
      "hit": false,
      "t": 242525.95200000057,
      "d": 631.5780000000086,
      "v": 74
    },
    {
      "midi": 46,
      "hit": false,
      "t": 242525.95200000057,
      "d": 631.5780000000086,
      "v": 58
    },
    {
      "midi": 66,
      "hit": false,
      "t": 242525.95200000086,
      "d": 342.1047500000277,
      "v": 84
    },
    {
      "midi": 64,
      "hit": false,
      "t": 242841.74100000088,
      "d": 315.78900000001886,
      "v": 80
    },
    {
      "midi": 35,
      "hit": false,
      "t": 243157.53000000058,
      "d": 342.1047499999986,
      "v": 80
    },
    {
      "midi": 47,
      "hit": false,
      "t": 243157.53000000058,
      "d": 342.1047499999986,
      "v": 60
    },
    {
      "midi": 67,
      "hit": false,
      "t": 243157.5300000009,
      "d": 1289.471749999997,
      "v": 65
    },
    {
      "midi": 63,
      "hit": false,
      "t": 243157.5300000009,
      "d": 1894.7339999999967,
      "v": 35
    },
    {
      "midi": 71,
      "hit": false,
      "t": 243157.5300000009,
      "d": 1894.7339999999967,
      "v": 82
    },
    {
      "midi": 55,
      "hit": false,
      "t": 243473.31900000057,
      "d": 131.57875000001513,
      "v": 65
    },
    {
      "midi": 91,
      "hit": false,
      "t": 243473.31900000086,
      "d": 263.15750000000116,
      "v": 50
    },
    {
      "midi": 59,
      "hit": false,
      "t": 243789.1080000006,
      "d": 157.89449999999488,
      "v": 57
    },
    {
      "midi": 91,
      "hit": false,
      "t": 243789.10800000085,
      "d": 210.52600000001257,
      "v": 53
    },
    {
      "midi": 95,
      "hit": false,
      "t": 243973.31825000086,
      "d": 78.94724999999744,
      "v": 43
    },
    {
      "midi": 83,
      "hit": false,
      "t": 244104.89700000046,
      "d": 263.15750000000116,
      "v": 45
    },
    {
      "midi": 47,
      "hit": false,
      "t": 244420.6860000006,
      "d": 631.5780000000086,
      "v": 75
    },
    {
      "midi": 57,
      "hit": false,
      "t": 244420.6860000006,
      "d": 631.5780000000086,
      "v": 60
    },
    {
      "midi": 83,
      "hit": false,
      "t": 244420.68600000086,
      "d": 197.36812500000815,
      "v": 45
    },
    {
      "midi": 66,
      "hit": false,
      "t": 244420.6860000009,
      "d": 631.5780000000086,
      "v": 58
    },
    {
      "midi": 87,
      "hit": false,
      "t": 244591.73837500086,
      "d": 78.94724999999744,
      "v": 35
    },
    {
      "midi": 75,
      "hit": false,
      "t": 244736.47500000047,
      "d": 263.15750000000116,
      "v": 38
    },
    {
      "midi": 36,
      "hit": false,
      "t": 245052.2640000006,
      "d": 342.1047499999986,
      "v": 70
    },
    {
      "midi": 48,
      "hit": false,
      "t": 245052.2640000006,
      "d": 342.1047499999986,
      "v": 58
    },
    {
      "midi": 52,
      "hit": false,
      "t": 245368.0530000006,
      "d": 131.57875000001513,
      "v": 55
    },
    {
      "midi": 76,
      "hit": false,
      "t": 245368.05300000086,
      "d": 342.1047499999986,
      "v": 40
    },
    {
      "midi": 64,
      "hit": false,
      "t": 245368.0530000009,
      "d": 315.78899999998976,
      "v": 60
    },
    {
      "midi": 67,
      "hit": false,
      "t": 245368.0530000009,
      "d": 342.1047499999986,
      "v": 55
    },
    {
      "midi": 76,
      "hit": false,
      "t": 245683.84200000047,
      "d": 263.15750000000116,
      "v": 30
    },
    {
      "midi": 55,
      "hit": false,
      "t": 245683.84200000062,
      "d": 157.89449999999488,
      "v": 48
    },
    {
      "midi": 79,
      "hit": false,
      "t": 245683.84200000085,
      "d": 131.57875000001513,
      "v": 25
    },
    {
      "midi": 88,
      "hit": false,
      "t": 245683.84200000085,
      "d": 131.57875000001513,
      "v": 43
    },
    {
      "midi": 64,
      "hit": false,
      "t": 245683.84200000088,
      "d": 315.78900000001886,
      "v": 62
    },
    {
      "midi": 69,
      "hit": false,
      "t": 245683.84200000088,
      "d": 342.1047500000277,
      "v": 52
    },
    {
      "midi": 64,
      "hit": false,
      "t": 245999.6310000009,
      "d": 342.1047500000277,
      "v": 58
    },
    {
      "midi": 67,
      "hit": false,
      "t": 245999.6310000009,
      "d": 342.1047500000277,
      "v": 62
    },
    {
      "midi": 36,
      "hit": false,
      "t": 246315.42000000062,
      "d": 631.5780000000086,
      "v": 60
    },
    {
      "midi": 48,
      "hit": false,
      "t": 246315.42000000062,
      "d": 631.5780000000086,
      "v": 45
    },
    {
      "midi": 63,
      "hit": false,
      "t": 246315.42000000092,
      "d": 342.1047500000277,
      "v": 61
    },
    {
      "midi": 66,
      "hit": false,
      "t": 246315.42000000092,
      "d": 342.1047500000277,
      "v": 67
    },
    {
      "midi": 64,
      "hit": false,
      "t": 246631.20900000093,
      "d": 315.78900000001886,
      "v": 64
    },
    {
      "midi": 67,
      "hit": false,
      "t": 246631.20900000093,
      "d": 315.78900000001886,
      "v": 70
    },
    {
      "midi": 30,
      "hit": false,
      "t": 246946.99800000063,
      "d": 342.1047499999986,
      "v": 55
    },
    {
      "midi": 42,
      "hit": false,
      "t": 246946.99800000063,
      "d": 342.1047499999986,
      "v": 42
    },
    {
      "midi": 64,
      "hit": false,
      "t": 246946.99800000095,
      "d": 1263.1559999999881,
      "v": 58
    },
    {
      "midi": 60,
      "hit": false,
      "t": 246946.99800000095,
      "d": 1289.471749999997,
      "v": 70
    },
    {
      "midi": 71,
      "hit": false,
      "t": 246946.99800000095,
      "d": 1289.471749999997,
      "v": 75
    },
    {
      "midi": 52,
      "hit": false,
      "t": 247262.78700000062,
      "d": 105.26300000000629,
      "v": 43
    },
    {
      "midi": 88,
      "hit": false,
      "t": 247262.78700000086,
      "d": 263.15750000000116,
      "v": 40
    },
    {
      "midi": 57,
      "hit": false,
      "t": 247578.57600000064,
      "d": 118.42087500001071,
      "v": 35
    },
    {
      "midi": 88,
      "hit": false,
      "t": 247578.57600000084,
      "d": 210.52600000001257,
      "v": 43
    },
    {
      "midi": 93,
      "hit": false,
      "t": 247762.78625000085,
      "d": 78.94724999999744,
      "v": 33
    },
    {
      "midi": 81,
      "hit": false,
      "t": 247894.3650000005,
      "d": 263.15750000000116,
      "v": 35
    },
    {
      "midi": 30,
      "hit": false,
      "t": 248210.15400000065,
      "d": 631.5780000000086,
      "v": 45
    },
    {
      "midi": 42,
      "hit": false,
      "t": 248210.15400000065,
      "d": 631.5780000000086,
      "v": 35
    },
    {
      "midi": 81,
      "hit": false,
      "t": 248210.15400000085,
      "d": 197.36812500000815,
      "v": 35
    },
    {
      "midi": 64,
      "hit": false,
      "t": 248210.15400000094,
      "d": 631.5780000000086,
      "v": 50
    },
    {
      "midi": 69,
      "hit": false,
      "t": 248210.15400000094,
      "d": 657.8937500000175,
      "v": 60
    },
    {
      "midi": 88,
      "hit": false,
      "t": 248381.20637500085,
      "d": 78.94724999999744,
      "v": 25
    },
    {
      "midi": 76,
      "hit": false,
      "t": 248525.9430000005,
      "d": 263.15750000000116,
      "v": 28
    },
    {
      "midi": 35,
      "hit": false,
      "t": 248841.73200000066,
      "d": 342.1047499999986,
      "v": 48
    },
    {
      "midi": 63,
      "hit": false,
      "t": 248841.73200000095,
      "d": 1263.1560000000172,
      "v": 40
    },
    {
      "midi": 59,
      "hit": false,
      "t": 248841.73200000095,
      "d": 1289.471750000026,
      "v": 52
    },
    {
      "midi": 67,
      "hit": false,
      "t": 248841.73200000095,
      "d": 1289.471750000026,
      "v": 50
    },
    {
      "midi": 47,
      "hit": false,
      "t": 249157.52100000065,
      "d": 342.1047500000277,
      "v": 40
    },
    {
      "midi": 71,
      "hit": false,
      "t": 249157.52100000085,
      "d": 342.1047499999986,
      "v": 30
    },
    {
      "midi": 71,
      "hit": false,
      "t": 249473.3100000005,
      "d": 131.57874999998603,
      "v": 30
    },
    {
      "midi": 51,
      "hit": false,
      "t": 249473.31000000067,
      "d": 631.5780000000086,
      "v": 35
    },
    {
      "midi": 75,
      "hit": false,
      "t": 249473.31000000084,
      "d": 131.57875000001513,
      "v": 15
    },
    {
      "midi": 83,
      "hit": false,
      "t": 249473.31000000084,
      "d": 131.57875000001513,
      "v": 33
    },
    {
      "midi": 35,
      "hit": false,
      "t": 250104.88800000068,
      "d": 631.5780000000086,
      "v": 40
    },
    {
      "midi": 47,
      "hit": false,
      "t": 250104.88800000068,
      "d": 631.5780000000086,
      "v": 28
    },
    {
      "midi": 57,
      "hit": false,
      "t": 250104.88800000097,
      "d": 657.8937500000175,
      "v": 45
    },
    {
      "midi": 63,
      "hit": false,
      "t": 250104.88800000097,
      "d": 657.8937500000175,
      "v": 35
    },
    {
      "midi": 66,
      "hit": false,
      "t": 250104.88800000097,
      "d": 657.8937500000175,
      "v": 42
    },
    {
      "midi": 40,
      "hit": false,
      "t": 250736.46600000068,
      "d": 1894.734000000055,
      "v": 42
    },
    {
      "midi": 55,
      "hit": false,
      "t": 250736.46600000098,
      "d": 1894.7339999999967,
      "v": 38
    },
    {
      "midi": 64,
      "hit": false,
      "t": 250736.46600000098,
      "d": 1894.7339999999967,
      "v": 44
    },
    {
      "midi": 47,
      "hit": false,
      "t": 251052.25500000067,
      "d": 342.1047499999986,
      "v": 35
    },
    {
      "midi": 83,
      "hit": false,
      "t": 251052.25500000085,
      "d": 263.15750000000116,
      "v": 25
    },
    {
      "midi": 48,
      "hit": false,
      "t": 251368.04400000066,
      "d": 342.1047500000277,
      "v": 43
    },
    {
      "midi": 83,
      "hit": false,
      "t": 251368.04400000084,
      "d": 210.52600000001257,
      "v": 28
    },
    {
      "midi": 88,
      "hit": false,
      "t": 251552.25425000084,
      "d": 78.94724999999744,
      "v": 18
    },
    {
      "midi": 79,
      "hit": false,
      "t": 251683.83300000048,
      "d": 263.15750000000116,
      "v": 25
    },
    {
      "midi": 47,
      "hit": false,
      "t": 251683.83300000068,
      "d": 342.1047500000277,
      "v": 50
    },
    {
      "midi": 46,
      "hit": false,
      "t": 251999.6220000007,
      "d": 342.1047500000277,
      "v": 56
    },
    {
      "midi": 79,
      "hit": false,
      "t": 251999.62200000085,
      "d": 197.36812500000815,
      "v": 27
    },
    {
      "midi": 83,
      "hit": false,
      "t": 252170.67437500085,
      "d": 78.94724999999744,
      "v": 20
    },
    {
      "midi": 76,
      "hit": false,
      "t": 252315.4110000005,
      "d": 263.15750000000116,
      "v": 28
    },
    {
      "midi": 47,
      "hit": false,
      "t": 252315.41100000072,
      "d": 342.1047500000277,
      "v": 60
    },
    {
      "midi": 32,
      "hit": false,
      "t": 252631.20000000074,
      "d": 631.5780000000086,
      "v": 80
    },
    {
      "midi": 44,
      "hit": false,
      "t": 252631.20000000074,
      "d": 631.5780000000086,
      "v": 65
    },
    {
      "midi": 76,
      "hit": false,
      "t": 252946.9890000005,
      "d": 342.1047499999986,
      "v": 80
    },
    {
      "midi": 83,
      "hit": false,
      "t": 252946.98900000085,
      "d": 315.78899999998976,
      "v": 65
    },
    {
      "midi": 88,
      "hit": false,
      "t": 252946.98900000085,
      "d": 342.1047499999986,
      "v": 75
    },
    {
      "midi": 52,
      "hit": false,
      "t": 252946.98900000096,
      "d": 131.57874999998603,
      "v": 60
    },
    {
      "midi": 77,
      "hit": false,
      "t": 253262.7780000005,
      "d": 342.1047500000277,
      "v": 85
    },
    {
      "midi": 83,
      "hit": false,
      "t": 253262.77800000084,
      "d": 315.78900000001886,
      "v": 67
    },
    {
      "midi": 89,
      "hit": false,
      "t": 253262.77800000084,
      "d": 342.1047500000277,
      "v": 80
    },
    {
      "midi": 52,
      "hit": false,
      "t": 253262.77800000095,
      "d": 157.89449999999488,
      "v": 45
    },
    {
      "midi": 56,
      "hit": false,
      "t": 253262.77800000095,
      "d": 157.89449999999488,
      "v": 50
    },
    {
      "midi": 59,
      "hit": false,
      "t": 253262.77800000095,
      "d": 157.89449999999488,
      "v": 38
    },
    {
      "midi": 62,
      "hit": false,
      "t": 253262.77800000095,
      "d": 157.89449999999488,
      "v": 58
    },
    {
      "midi": 76,
      "hit": false,
      "t": 253578.5670000005,
      "d": 342.1047500000277,
      "v": 82
    },
    {
      "midi": 83,
      "hit": false,
      "t": 253578.56700000085,
      "d": 315.78900000001886,
      "v": 63
    },
    {
      "midi": 88,
      "hit": false,
      "t": 253578.56700000085,
      "d": 342.1047500000277,
      "v": 77
    },
    {
      "midi": 75,
      "hit": false,
      "t": 253894.35600000052,
      "d": 342.1047500000277,
      "v": 87
    },
    {
      "midi": 44,
      "hit": false,
      "t": 253894.35600000076,
      "d": 157.89449999999488,
      "v": 88
    },
    {
      "midi": 83,
      "hit": false,
      "t": 253894.35600000087,
      "d": 315.78900000001886,
      "v": 66
    },
    {
      "midi": 87,
      "hit": false,
      "t": 253894.35600000087,
      "d": 342.1047500000277,
      "v": 82
    },
    {
      "midi": 76,
      "hit": false,
      "t": 254210.14500000054,
      "d": 315.78900000001886,
      "v": 93
    },
    {
      "midi": 83,
      "hit": false,
      "t": 254210.1450000009,
      "d": 315.78900000001886,
      "v": 69
    },
    {
      "midi": 88,
      "hit": false,
      "t": 254210.1450000009,
      "d": 315.78900000001886,
      "v": 88
    },
    {
      "midi": 52,
      "hit": false,
      "t": 254210.14500000095,
      "d": 131.57874999998603,
      "v": 58
    },
    {
      "midi": 56,
      "hit": false,
      "t": 254210.14500000095,
      "d": 131.57874999998603,
      "v": 60
    },
    {
      "midi": 59,
      "hit": false,
      "t": 254210.14500000095,
      "d": 131.57874999998603,
      "v": 50
    },
    {
      "midi": 62,
      "hit": false,
      "t": 254210.14500000095,
      "d": 131.57874999998603,
      "v": 65
    },
    {
      "midi": 69,
      "hit": false,
      "t": 254525.93400000056,
      "d": 1263.1559999999881,
      "v": 75
    },
    {
      "midi": 72,
      "hit": false,
      "t": 254525.93400000056,
      "d": 1263.1559999999881,
      "v": 62
    },
    {
      "midi": 77,
      "hit": false,
      "t": 254525.93400000056,
      "d": 1289.471749999997,
      "v": 98
    },
    {
      "midi": 33,
      "hit": false,
      "t": 254525.93400000077,
      "d": 184.21025000000373,
      "v": 92
    },
    {
      "midi": 45,
      "hit": false,
      "t": 254525.93400000077,
      "d": 184.21025000000373,
      "v": 70
    },
    {
      "midi": 84,
      "hit": false,
      "t": 254525.9340000009,
      "d": 1263.1559999999881,
      "v": 65
    },
    {
      "midi": 89,
      "hit": false,
      "t": 254525.9340000009,
      "d": 1289.471749999997,
      "v": 93
    },
    {
      "midi": 45,
      "hit": false,
      "t": 254841.72300000075,
      "d": 131.57874999998603,
      "v": 85
    },
    {
      "midi": 48,
      "hit": false,
      "t": 254841.72300000093,
      "d": 131.57874999998603,
      "v": 60
    },
    {
      "midi": 53,
      "hit": false,
      "t": 254841.72300000093,
      "d": 131.57874999998603,
      "v": 70
    },
    {
      "midi": 53,
      "hit": false,
      "t": 255157.51200000092,
      "d": 105.26300000000629,
      "v": 58
    },
    {
      "midi": 57,
      "hit": false,
      "t": 255157.51200000092,
      "d": 105.26300000000629,
      "v": 68
    },
    {
      "midi": 53,
      "hit": false,
      "t": 255473.30100000094,
      "d": 118.42087500001071,
      "v": 48
    },
    {
      "midi": 57,
      "hit": false,
      "t": 255473.30100000094,
      "d": 118.42087500001071,
      "v": 56
    },
    {
      "midi": 60,
      "hit": false,
      "t": 255473.30100000094,
      "d": 118.42087500001071,
      "v": 75
    },
    {
      "midi": 69,
      "hit": false,
      "t": 255789.09000000055,
      "d": 631.5780000000086,
      "v": 80
    },
    {
      "midi": 72,
      "hit": false,
      "t": 255789.09000000055,
      "d": 631.5780000000086,
      "v": 68
    },
    {
      "midi": 45,
      "hit": false,
      "t": 255789.09000000075,
      "d": 157.89449999999488,
      "v": 70
    },
    {
      "midi": 77,
      "hit": false,
      "t": 255789.0900000009,
      "d": 631.5780000000086,
      "v": 85
    },
    {
      "midi": 53,
      "hit": false,
      "t": 256104.87900000095,
      "d": 157.89449999999488,
      "v": 58
    },
    {
      "midi": 57,
      "hit": false,
      "t": 256104.87900000095,
      "d": 157.89449999999488,
      "v": 70
    },
    {
      "midi": 60,
      "hit": false,
      "t": 256104.87900000095,
      "d": 157.89449999999488,
      "v": 78
    },
    {
      "midi": 37,
      "hit": false,
      "t": 256420.66800000076,
      "d": 631.5780000000086,
      "v": 88
    },
    {
      "midi": 49,
      "hit": false,
      "t": 256420.66800000076,
      "d": 631.5780000000086,
      "v": 72
    },
    {
      "midi": 77,
      "hit": false,
      "t": 256736.45700000055,
      "d": 342.1047499999986,
      "v": 95
    },
    {
      "midi": 83,
      "hit": false,
      "t": 256736.4570000009,
      "d": 315.78899999998976,
      "v": 80
    },
    {
      "midi": 89,
      "hit": false,
      "t": 256736.4570000009,
      "d": 342.1047499999986,
      "v": 90
    },
    {
      "midi": 53,
      "hit": false,
      "t": 256736.45700000096,
      "d": 131.57874999998603,
      "v": 80
    },
    {
      "midi": 78,
      "hit": false,
      "t": 257052.24600000054,
      "d": 342.1047500000277,
      "v": 100
    },
    {
      "midi": 83,
      "hit": false,
      "t": 257052.2460000009,
      "d": 315.78900000001886,
      "v": 82
    },
    {
      "midi": 90,
      "hit": false,
      "t": 257052.2460000009,
      "d": 342.1047500000277,
      "v": 95
    },
    {
      "midi": 53,
      "hit": false,
      "t": 257052.24600000095,
      "d": 157.89449999999488,
      "v": 65
    },
    {
      "midi": 56,
      "hit": false,
      "t": 257052.24600000095,
      "d": 157.89449999999488,
      "v": 58
    },
    {
      "midi": 59,
      "hit": false,
      "t": 257052.24600000095,
      "d": 157.89449999999488,
      "v": 70
    },
    {
      "midi": 61,
      "hit": false,
      "t": 257052.24600000095,
      "d": 157.89449999999488,
      "v": 78
    },
    {
      "midi": 77,
      "hit": false,
      "t": 257368.03500000056,
      "d": 342.1047500000277,
      "v": 97
    },
    {
      "midi": 83,
      "hit": false,
      "t": 257368.0350000009,
      "d": 315.78900000001886,
      "v": 78
    },
    {
      "midi": 89,
      "hit": false,
      "t": 257368.0350000009,
      "d": 342.1047500000277,
      "v": 92
    },
    {
      "midi": 76,
      "hit": false,
      "t": 257683.82400000058,
      "d": 342.1047500000277,
      "v": 102
    },
    {
      "midi": 37,
      "hit": false,
      "t": 257683.82400000078,
      "d": 157.89449999999488,
      "v": 96
    },
    {
      "midi": 49,
      "hit": false,
      "t": 257683.82400000078,
      "d": 157.89449999999488,
      "v": 70
    },
    {
      "midi": 83,
      "hit": false,
      "t": 257683.82400000092,
      "d": 315.78900000001886,
      "v": 81
    },
    {
      "midi": 88,
      "hit": false,
      "t": 257683.82400000092,
      "d": 342.1047500000277,
      "v": 97
    },
    {
      "midi": 77,
      "hit": false,
      "t": 257999.6130000006,
      "d": 315.78900000001886,
      "v": 108
    },
    {
      "midi": 83,
      "hit": false,
      "t": 257999.61300000094,
      "d": 315.78900000001886,
      "v": 84
    },
    {
      "midi": 89,
      "hit": false,
      "t": 257999.61300000094,
      "d": 315.78900000001886,
      "v": 103
    },
    {
      "midi": 53,
      "hit": false,
      "t": 257999.61300000094,
      "d": 131.57874999998603,
      "v": 70
    },
    {
      "midi": 56,
      "hit": false,
      "t": 257999.61300000094,
      "d": 131.57874999998603,
      "v": 58
    },
    {
      "midi": 59,
      "hit": false,
      "t": 257999.61300000094,
      "d": 131.57874999998603,
      "v": 78
    },
    {
      "midi": 61,
      "hit": false,
      "t": 257999.61300000094,
      "d": 131.57874999998603,
      "v": 85
    },
    {
      "midi": 70,
      "hit": false,
      "t": 258315.4020000006,
      "d": 1263.1559999999881,
      "v": 90
    },
    {
      "midi": 73,
      "hit": false,
      "t": 258315.4020000006,
      "d": 1263.1559999999881,
      "v": 80
    },
    {
      "midi": 78,
      "hit": false,
      "t": 258315.4020000006,
      "d": 1289.471749999997,
      "v": 113
    },
    {
      "midi": 30,
      "hit": false,
      "t": 258315.4020000008,
      "d": 184.21025000000373,
      "v": 100
    },
    {
      "midi": 42,
      "hit": false,
      "t": 258315.4020000008,
      "d": 184.21025000000373,
      "v": 75
    },
    {
      "midi": 82,
      "hit": false,
      "t": 258315.40200000096,
      "d": 1263.1559999999881,
      "v": 85
    },
    {
      "midi": 85,
      "hit": false,
      "t": 258315.40200000096,
      "d": 1263.1559999999881,
      "v": 75
    },
    {
      "midi": 90,
      "hit": false,
      "t": 258315.40200000096,
      "d": 1289.471749999997,
      "v": 108
    },
    {
      "midi": 46,
      "hit": false,
      "t": 258631.19100000078,
      "d": 131.57874999998603,
      "v": 90
    },
    {
      "midi": 49,
      "hit": false,
      "t": 258631.19100000092,
      "d": 131.57874999998603,
      "v": 78
    },
    {
      "midi": 54,
      "hit": false,
      "t": 258631.19100000092,
      "d": 131.57874999998603,
      "v": 90
    },
    {
      "midi": 54,
      "hit": false,
      "t": 258946.9800000009,
      "d": 105.26300000000629,
      "v": 76
    },
    {
      "midi": 58,
      "hit": false,
      "t": 258946.9800000009,
      "d": 105.26300000000629,
      "v": 83
    },
    {
      "midi": 54,
      "hit": false,
      "t": 259262.76900000093,
      "d": 118.42087500001071,
      "v": 60
    },
    {
      "midi": 58,
      "hit": false,
      "t": 259262.76900000093,
      "d": 118.42087500001071,
      "v": 74
    },
    {
      "midi": 61,
      "hit": false,
      "t": 259262.76900000093,
      "d": 118.42087500001071,
      "v": 85
    },
    {
      "midi": 66,
      "hit": false,
      "t": 259578.5580000006,
      "d": 631.5780000000086,
      "v": 105
    },
    {
      "midi": 46,
      "hit": false,
      "t": 259578.55800000078,
      "d": 157.89449999999488,
      "v": 98
    },
    {
      "midi": 78,
      "hit": false,
      "t": 259578.55800000095,
      "d": 631.5780000000086,
      "v": 100
    },
    {
      "midi": 54,
      "hit": false,
      "t": 259894.34700000094,
      "d": 157.89449999999488,
      "v": 70
    },
    {
      "midi": 58,
      "hit": false,
      "t": 259894.34700000094,
      "d": 157.89449999999488,
      "v": 88
    },
    {
      "midi": 61,
      "hit": false,
      "t": 259894.34700000094,
      "d": 157.89449999999488,
      "v": 95
    },
    {
      "midi": 34,
      "hit": false,
      "t": 260210.13600000078,
      "d": 631.5780000000086,
      "v": 110
    },
    {
      "midi": 46,
      "hit": false,
      "t": 260210.13600000078,
      "d": 631.5780000000086,
      "v": 85
    },
    {
      "midi": 78,
      "hit": false,
      "t": 260525.9250000006,
      "d": 342.1047499999986,
      "v": 110
    },
    {
      "midi": 85,
      "hit": false,
      "t": 260525.92500000095,
      "d": 315.78899999998976,
      "v": 83
    },
    {
      "midi": 88,
      "hit": false,
      "t": 260525.92500000095,
      "d": 315.78899999998976,
      "v": 95
    },
    {
      "midi": 90,
      "hit": false,
      "t": 260525.92500000095,
      "d": 342.1047499999986,
      "v": 105
    },
    {
      "midi": 54,
      "hit": false,
      "t": 260525.92500000095,
      "d": 131.57874999998603,
      "v": 100
    },
    {
      "midi": 79,
      "hit": false,
      "t": 260841.7140000006,
      "d": 315.78900000001886,
      "v": 115
    },
    {
      "midi": 85,
      "hit": false,
      "t": 260841.71400000094,
      "d": 315.78900000001886,
      "v": 85
    },
    {
      "midi": 88,
      "hit": false,
      "t": 260841.71400000094,
      "d": 315.78900000001886,
      "v": 97
    },
    {
      "midi": 91,
      "hit": false,
      "t": 260841.71400000094,
      "d": 315.78900000001886,
      "v": 110
    },
    {
      "midi": 58,
      "hit": false,
      "t": 260841.71400000094,
      "d": 157.89449999999488,
      "v": 70
    },
    {
      "midi": 61,
      "hit": false,
      "t": 260841.71400000094,
      "d": 157.89449999999488,
      "v": 88
    },
    {
      "midi": 64,
      "hit": false,
      "t": 260841.71400000094,
      "d": 157.89449999999488,
      "v": 98
    },
    {
      "midi": 78,
      "hit": false,
      "t": 261157.5030000006,
      "d": 342.1047499999986,
      "v": 112
    },
    {
      "midi": 85,
      "hit": false,
      "t": 261157.50300000096,
      "d": 315.78899999998976,
      "v": 87
    },
    {
      "midi": 88,
      "hit": false,
      "t": 261157.50300000096,
      "d": 315.78899999998976,
      "v": 93
    },
    {
      "midi": 90,
      "hit": false,
      "t": 261157.50300000096,
      "d": 342.1047499999986,
      "v": 107
    },
    {
      "midi": 77,
      "hit": false,
      "t": 261473.2920000006,
      "d": 342.1047500000277,
      "v": 117
    },
    {
      "midi": 46,
      "hit": false,
      "t": 261473.2920000008,
      "d": 157.89449999999488,
      "v": 115
    },
    {
      "midi": 85,
      "hit": false,
      "t": 261473.29200000095,
      "d": 315.78900000001886,
      "v": 89
    },
    {
      "midi": 88,
      "hit": false,
      "t": 261473.29200000095,
      "d": 315.78900000001886,
      "v": 96
    },
    {
      "midi": 89,
      "hit": false,
      "t": 261473.29200000095,
      "d": 342.1047500000277,
      "v": 112
    },
    {
      "midi": 78,
      "hit": false,
      "t": 261789.08100000062,
      "d": 342.1047500000277,
      "v": 123
    },
    {
      "midi": 58,
      "hit": false,
      "t": 261789.08100000094,
      "d": 131.57874999998603,
      "v": 98
    },
    {
      "midi": 61,
      "hit": false,
      "t": 261789.08100000094,
      "d": 131.57874999998603,
      "v": 80
    },
    {
      "midi": 64,
      "hit": false,
      "t": 261789.08100000094,
      "d": 131.57874999998603,
      "v": 105
    },
    {
      "midi": 88,
      "hit": false,
      "t": 261789.08100000097,
      "d": 315.78900000001886,
      "v": 99
    },
    {
      "midi": 85,
      "hit": false,
      "t": 261789.08100000097,
      "d": 342.1047500000277,
      "v": 91
    },
    {
      "midi": 90,
      "hit": false,
      "t": 261789.08100000097,
      "d": 342.1047500000277,
      "v": 118
    },
    {
      "midi": 76,
      "hit": false,
      "t": 262104.87000000064,
      "d": 1263.1560000000172,
      "v": 78
    },
    {
      "midi": 79,
      "hit": false,
      "t": 262104.87000000064,
      "d": 1263.1560000000172,
      "v": 90
    },
    {
      "midi": 35,
      "hit": false,
      "t": 262104.8700000008,
      "d": 184.21025000000373,
      "v": 120
    },
    {
      "midi": 88,
      "hit": false,
      "t": 262104.87000000098,
      "d": 1263.1560000000172,
      "v": 73
    },
    {
      "midi": 91,
      "hit": false,
      "t": 262104.87000000098,
      "d": 1263.1560000000172,
      "v": 85
    },
    {
      "midi": 84,
      "hit": false,
      "t": 262104.87000000098,
      "d": 1289.471750000026,
      "v": 122
    },
    {
      "midi": 96,
      "hit": false,
      "t": 262104.87000000098,
      "d": 1289.471750000026,
      "v": 117
    },
    {
      "midi": 47,
      "hit": false,
      "t": 262420.6590000008,
      "d": 157.89449999999488,
      "v": 105
    },
    {
      "midi": 52,
      "hit": false,
      "t": 262420.6590000009,
      "d": 131.57874999998603,
      "v": 100
    },
    {
      "midi": 55,
      "hit": false,
      "t": 262420.6590000009,
      "d": 131.57874999998603,
      "v": 115
    },
    {
      "midi": 55,
      "hit": false,
      "t": 262736.4480000009,
      "d": 105.26299999997718,
      "v": 97
    },
    {
      "midi": 64,
      "hit": false,
      "t": 262736.4480000009,
      "d": 105.26299999997718,
      "v": 108
    },
    {
      "midi": 64,
      "hit": false,
      "t": 263052.2370000009,
      "d": 118.42087500001071,
      "v": 94
    },
    {
      "midi": 67,
      "hit": false,
      "t": 263052.2370000009,
      "d": 118.42087500001071,
      "v": 110
    },
    {
      "midi": 76,
      "hit": false,
      "t": 263368.02600000065,
      "d": 631.5779999999795,
      "v": 80
    },
    {
      "midi": 79,
      "hit": false,
      "t": 263368.02600000065,
      "d": 631.5779999999795,
      "v": 93
    },
    {
      "midi": 47,
      "hit": false,
      "t": 263368.02600000077,
      "d": 157.89449999999488,
      "v": 98
    },
    {
      "midi": 83,
      "hit": false,
      "t": 263368.026000001,
      "d": 631.5780000000377,
      "v": 107
    },
    {
      "midi": 88,
      "hit": false,
      "t": 263368.026000001,
      "d": 631.5780000000377,
      "v": 75
    },
    {
      "midi": 91,
      "hit": false,
      "t": 263368.026000001,
      "d": 631.5780000000377,
      "v": 88
    },
    {
      "midi": 95,
      "hit": false,
      "t": 263368.026000001,
      "d": 631.5780000000377,
      "v": 102
    },
    {
      "midi": 55,
      "hit": false,
      "t": 263683.81500000093,
      "d": 157.89449999999488,
      "v": 90
    },
    {
      "midi": 64,
      "hit": false,
      "t": 263683.81500000093,
      "d": 157.89449999999488,
      "v": 102
    },
    {
      "midi": 35,
      "hit": false,
      "t": 263999.60400000075,
      "d": 631.5779999999795,
      "v": 100
    },
    {
      "midi": 47,
      "hit": false,
      "t": 263999.60400000075,
      "d": 631.5779999999795,
      "v": 78
    },
    {
      "midi": 69,
      "hit": false,
      "t": 264315.3930000006,
      "d": 973.6827500000363,
      "v": 80
    },
    {
      "midi": 75,
      "hit": false,
      "t": 264315.3930000006,
      "d": 973.6827500000363,
      "v": 105
    },
    {
      "midi": 57,
      "hit": false,
      "t": 264315.3930000009,
      "d": 131.57874999998603,
      "v": 95
    },
    {
      "midi": 63,
      "hit": false,
      "t": 264315.3930000009,
      "d": 131.57874999998603,
      "v": 105
    },
    {
      "midi": 81,
      "hit": false,
      "t": 264315.39300000103,
      "d": 973.6827500000363,
      "v": 75
    },
    {
      "midi": 87,
      "hit": false,
      "t": 264315.39300000103,
      "d": 973.6827500000363,
      "v": 100
    },
    {
      "midi": 63,
      "hit": false,
      "t": 264631.1820000009,
      "d": 157.89449999999488,
      "v": 85
    },
    {
      "midi": 67,
      "hit": false,
      "t": 264631.1820000009,
      "d": 157.89449999999488,
      "v": 98
    },
    {
      "midi": 71,
      "hit": false,
      "t": 265262.76000000065,
      "d": 342.1047499999986,
      "v": 70
    },
    {
      "midi": 79,
      "hit": false,
      "t": 265262.76000000065,
      "d": 342.1047499999986,
      "v": 93
    },
    {
      "midi": 47,
      "hit": false,
      "t": 265262.7600000007,
      "d": 157.89449999999488,
      "v": 92
    },
    {
      "midi": 83,
      "hit": false,
      "t": 265262.76000000106,
      "d": 342.1047499999986,
      "v": 65
    },
    {
      "midi": 91,
      "hit": false,
      "t": 265262.76000000106,
      "d": 342.1047499999986,
      "v": 88
    },
    {
      "midi": 69,
      "hit": false,
      "t": 265578.54900000064,
      "d": 342.1047499999986,
      "v": 62
    },
    {
      "midi": 78,
      "hit": false,
      "t": 265578.54900000064,
      "d": 342.1047499999986,
      "v": 85
    },
    {
      "midi": 57,
      "hit": false,
      "t": 265578.5490000009,
      "d": 131.57874999998603,
      "v": 78
    },
    {
      "midi": 63,
      "hit": false,
      "t": 265578.5490000009,
      "d": 131.57874999998603,
      "v": 90
    },
    {
      "midi": 81,
      "hit": false,
      "t": 265578.54900000105,
      "d": 342.1047499999986,
      "v": 58
    },
    {
      "midi": 90,
      "hit": false,
      "t": 265578.54900000105,
      "d": 342.1047499999986,
      "v": 80
    },
    {
      "midi": 67,
      "hit": false,
      "t": 265894.33800000063,
      "d": 1894.7339999999967,
      "v": 65
    },
    {
      "midi": 76,
      "hit": false,
      "t": 265894.33800000063,
      "d": 1894.7339999999967,
      "v": 80
    },
    {
      "midi": 36,
      "hit": false,
      "t": 265894.3380000007,
      "d": 184.21025000000373,
      "v": 85
    },
    {
      "midi": 79,
      "hit": false,
      "t": 265894.33800000104,
      "d": 1894.7339999999967,
      "v": 60
    },
    {
      "midi": 88,
      "hit": false,
      "t": 265894.33800000104,
      "d": 1894.7339999999967,
      "v": 75
    },
    {
      "midi": 48,
      "hit": false,
      "t": 266210.1270000007,
      "d": 131.57874999998603,
      "v": 70
    },
    {
      "midi": 52,
      "hit": false,
      "t": 266210.12700000085,
      "d": 131.57874999998603,
      "v": 93
    },
    {
      "midi": 52,
      "hit": false,
      "t": 266525.91600000084,
      "d": 105.26299999997718,
      "v": 62
    },
    {
      "midi": 55,
      "hit": false,
      "t": 266525.91600000084,
      "d": 105.26299999997718,
      "v": 78
    },
    {
      "midi": 55,
      "hit": false,
      "t": 266841.70500000083,
      "d": 118.42087500001071,
      "v": 48
    },
    {
      "midi": 64,
      "hit": false,
      "t": 266841.70500000083,
      "d": 118.42087500001071,
      "v": 71
    },
    {
      "midi": 48,
      "hit": false,
      "t": 267157.49400000065,
      "d": 157.89449999999488,
      "v": 65
    },
    {
      "midi": 55,
      "hit": false,
      "t": 267473.28300000087,
      "d": 157.89449999999488,
      "v": 33
    },
    {
      "midi": 60,
      "hit": false,
      "t": 267473.28300000087,
      "d": 157.89449999999488,
      "v": 45
    },
    {
      "midi": 64,
      "hit": false,
      "t": 267473.28300000087,
      "d": 157.89449999999488,
      "v": 63
    },
    {
      "midi": 31,
      "hit": false,
      "t": 267789.0720000006,
      "d": 342.1047499999986,
      "v": 70
    },
    {
      "midi": 43,
      "hit": false,
      "t": 267789.0720000006,
      "d": 342.1047499999986,
      "v": 52
    },
    {
      "midi": 52,
      "hit": false,
      "t": 268104.8610000006,
      "d": 131.57874999998603,
      "v": 60
    },
    {
      "midi": 64,
      "hit": false,
      "t": 268104.86100000085,
      "d": 315.78899999998976,
      "v": 48
    },
    {
      "midi": 71,
      "hit": false,
      "t": 268104.86100000085,
      "d": 342.1047499999986,
      "v": 80
    },
    {
      "midi": 76,
      "hit": false,
      "t": 268104.861000001,
      "d": 342.1047499999986,
      "v": 55
    },
    {
      "midi": 76,
      "hit": false,
      "t": 268420.6500000006,
      "d": 131.57874999998603,
      "v": 45
    },
    {
      "midi": 55,
      "hit": false,
      "t": 268420.6500000006,
      "d": 157.89449999999488,
      "v": 55
    },
    {
      "midi": 64,
      "hit": false,
      "t": 268420.65000000084,
      "d": 315.78899999998976,
      "v": 45
    },
    {
      "midi": 72,
      "hit": false,
      "t": 268420.65000000084,
      "d": 342.1047499999986,
      "v": 75
    },
    {
      "midi": 79,
      "hit": false,
      "t": 268420.650000001,
      "d": 131.57874999998603,
      "v": 40
    },
    {
      "midi": 88,
      "hit": false,
      "t": 268420.650000001,
      "d": 131.57874999998603,
      "v": 58
    },
    {
      "midi": 64,
      "hit": false,
      "t": 268736.4390000008,
      "d": 315.78899999998976,
      "v": 43
    },
    {
      "midi": 71,
      "hit": false,
      "t": 268736.4390000008,
      "d": 342.1047499999986,
      "v": 77
    },
    {
      "midi": 43,
      "hit": false,
      "t": 269052.2280000006,
      "d": 631.5779999999795,
      "v": 55
    },
    {
      "midi": 64,
      "hit": false,
      "t": 269052.2280000008,
      "d": 315.78899999998976,
      "v": 46
    },
    {
      "midi": 70,
      "hit": false,
      "t": 269052.2280000008,
      "d": 342.1047499999986,
      "v": 74
    },
    {
      "midi": 64,
      "hit": false,
      "t": 269368.0170000008,
      "d": 315.78899999998976,
      "v": 44
    },
    {
      "midi": 71,
      "hit": false,
      "t": 269368.0170000008,
      "d": 342.1047499999986,
      "v": 68
    },
    {
      "midi": 45,
      "hit": false,
      "t": 269683.80600000056,
      "d": 342.1047499999986,
      "v": 60
    },
    {
      "midi": 63,
      "hit": false,
      "t": 269683.8060000008,
      "d": 1263.1560000000172,
      "v": 40
    },
    {
      "midi": 67,
      "hit": false,
      "t": 269736.4375000008,
      "d": 1210.5244999999995,
      "v": 48
    },
    {
      "midi": 74,
      "hit": false,
      "t": 269775.9111250008,
      "d": 1197.3666250000242,
      "v": 70
    },
    {
      "midi": 55,
      "hit": false,
      "t": 269999.59500000055,
      "d": 131.57874999998603,
      "v": 52
    },
    {
      "midi": 86,
      "hit": false,
      "t": 269999.595000001,
      "d": 263.15749999997206,
      "v": 55
    },
    {
      "midi": 60,
      "hit": false,
      "t": 270315.38400000054,
      "d": 157.89449999999488,
      "v": 45
    },
    {
      "midi": 86,
      "hit": false,
      "t": 270315.384000001,
      "d": 210.52600000001257,
      "v": 58
    },
    {
      "midi": 91,
      "hit": false,
      "t": 270499.594250001,
      "d": 78.94725000002654,
      "v": 48
    },
    {
      "midi": 84,
      "hit": false,
      "t": 270631.1730000006,
      "d": 263.15749999997206,
      "v": 48
    },
    {
      "midi": 45,
      "hit": false,
      "t": 270946.9620000005,
      "d": 631.5779999999795,
      "v": 48
    },
    {
      "midi": 63,
      "hit": false,
      "t": 270946.9620000008,
      "d": 631.5780000000377,
      "v": 42
    },
    {
      "midi": 67,
      "hit": false,
      "t": 270946.9620000008,
      "d": 631.5780000000377,
      "v": 50
    },
    {
      "midi": 72,
      "hit": false,
      "t": 270946.9620000008,
      "d": 631.5780000000377,
      "v": 65
    },
    {
      "midi": 84,
      "hit": false,
      "t": 270946.96200000105,
      "d": 197.36812500003725,
      "v": 50
    },
    {
      "midi": 87,
      "hit": false,
      "t": 271118.0143750011,
      "d": 78.94725000002654,
      "v": 40
    },
    {
      "midi": 79,
      "hit": false,
      "t": 271262.7510000006,
      "d": 263.15749999997206,
      "v": 43
    },
    {
      "midi": 38,
      "hit": false,
      "t": 271578.5400000005,
      "d": 342.1047499999986,
      "v": 50
    },
    {
      "midi": 66,
      "hit": false,
      "t": 271578.54000000085,
      "d": 947.3670000000275,
      "v": 35
    },
    {
      "midi": 60,
      "hit": false,
      "t": 271578.54000000085,
      "d": 973.6827500000363,
      "v": 42
    },
    {
      "midi": 71,
      "hit": false,
      "t": 271578.54000000085,
      "d": 973.6827500000363,
      "v": 60
    },
    {
      "midi": 50,
      "hit": false,
      "t": 271894.3290000005,
      "d": 131.57874999998603,
      "v": 42
    },
    {
      "midi": 74,
      "hit": false,
      "t": 271894.3290000011,
      "d": 342.1047499999986,
      "v": 50
    },
    {
      "midi": 54,
      "hit": false,
      "t": 272210.1180000005,
      "d": 157.89449999999488,
      "v": 35
    },
    {
      "midi": 74,
      "hit": false,
      "t": 272210.11800000054,
      "d": 131.57874999998603,
      "v": 45
    },
    {
      "midi": 78,
      "hit": false,
      "t": 272210.11800000106,
      "d": 131.57874999998603,
      "v": 35
    },
    {
      "midi": 86,
      "hit": false,
      "t": 272210.11800000106,
      "d": 131.57874999998603,
      "v": 53
    },
    {
      "midi": 69,
      "hit": false,
      "t": 272525.9070000009,
      "d": 342.1047499999986,
      "v": 62
    },
    {
      "midi": 50,
      "hit": false,
      "t": 272841.69600000046,
      "d": 631.5779999999795,
      "v": 42
    },
    {
      "midi": 60,
      "hit": false,
      "t": 272841.69600000087,
      "d": 342.1047499999986,
      "v": 40
    },
    {
      "midi": 67,
      "hit": false,
      "t": 272841.69600000087,
      "d": 342.1047499999986,
      "v": 58
    },
    {
      "midi": 66,
      "hit": false,
      "t": 273157.48500000086,
      "d": 315.78899999998976,
      "v": 53
    },
    {
      "midi": 40,
      "hit": false,
      "t": 273473.27400000044,
      "d": 342.1047499999986,
      "v": 45
    },
    {
      "midi": 69,
      "hit": false,
      "t": 273473.27400000085,
      "d": 1289.471750000026,
      "v": 55
    },
    {
      "midi": 59,
      "hit": false,
      "t": 273473.27400000085,
      "d": 1894.734000000055,
      "v": 25
    },
    {
      "midi": 64,
      "hit": false,
      "t": 273473.27400000085,
      "d": 1894.734000000055,
      "v": 38
    },
    {
      "midi": 47,
      "hit": false,
      "t": 273789.06300000043,
      "d": 131.57874999998603,
      "v": 38
    },
    {
      "midi": 83,
      "hit": false,
      "t": 273789.0630000011,
      "d": 263.15749999997206,
      "v": 50
    },
    {
      "midi": 52,
      "hit": false,
      "t": 274104.8520000004,
      "d": 157.89449999999488,
      "v": 34
    },
    {
      "midi": 83,
      "hit": false,
      "t": 274104.85200000106,
      "d": 210.52600000001257,
      "v": 53
    },
    {
      "midi": 88,
      "hit": false,
      "t": 274289.06225000106,
      "d": 78.94725000002654,
      "v": 43
    },
    {
      "midi": 76,
      "hit": false,
      "t": 274420.6410000005,
      "d": 263.15749999997206,
      "v": 43
    },
    {
      "midi": 40,
      "hit": false,
      "t": 274736.4300000004,
      "d": 631.5779999999795,
      "v": 40
    },
    {
      "midi": 67,
      "hit": false,
      "t": 274736.43000000087,
      "d": 631.5780000000377,
      "v": 50
    },
    {
      "midi": 76,
      "hit": false,
      "t": 274736.4300000011,
      "d": 197.36812500003725,
      "v": 45
    },
    {
      "midi": 83,
      "hit": false,
      "t": 274907.4823750011,
      "d": 78.94725000002654,
      "v": 35
    },
    {
      "midi": 71,
      "hit": false,
      "t": 275052.2190000005,
      "d": 263.15749999997206,
      "v": 38
    },
    {
      "midi": 36,
      "hit": false,
      "t": 275368.0080000004,
      "d": 342.1047499999986,
      "v": 35
    },
    {
      "midi": 48,
      "hit": false,
      "t": 275683.79700000037,
      "d": 131.57874999998603,
      "v": 28
    },
    {
      "midi": 58,
      "hit": false,
      "t": 275683.7970000009,
      "d": 315.78899999998976,
      "v": 45
    },
    {
      "midi": 64,
      "hit": false,
      "t": 275683.7970000009,
      "d": 315.78899999998976,
      "v": 40
    },
    {
      "midi": 67,
      "hit": false,
      "t": 275683.7970000009,
      "d": 342.1047499999986,
      "v": 60
    },
    {
      "midi": 76,
      "hit": false,
      "t": 275683.7970000011,
      "d": 315.78899999998976,
      "v": 45
    },
    {
      "midi": 52,
      "hit": false,
      "t": 275999.58600000036,
      "d": 157.89449999999488,
      "v": 25
    },
    {
      "midi": 70,
      "hit": false,
      "t": 275999.5860000005,
      "d": 131.57874999998603,
      "v": 40
    },
    {
      "midi": 69,
      "hit": false,
      "t": 275999.5860000009,
      "d": 342.1047499999986,
      "v": 62
    },
    {
      "midi": 76,
      "hit": false,
      "t": 275999.5860000011,
      "d": 131.57874999998603,
      "v": 35
    },
    {
      "midi": 82,
      "hit": false,
      "t": 275999.5860000011,
      "d": 131.57874999998603,
      "v": 30
    },
    {
      "midi": 88,
      "hit": false,
      "t": 275999.5860000011,
      "d": 131.57874999998603,
      "v": 48
    },
    {
      "midi": 67,
      "hit": false,
      "t": 276315.3750000009,
      "d": 342.1047499999986,
      "v": 59
    },
    {
      "midi": 36,
      "hit": false,
      "t": 276631.16400000034,
      "d": 631.5779999999795,
      "v": 28
    },
    {
      "midi": 58,
      "hit": false,
      "t": 276631.16400000086,
      "d": 315.78899999998976,
      "v": 40
    },
    {
      "midi": 64,
      "hit": false,
      "t": 276631.16400000086,
      "d": 315.78899999998976,
      "v": 33
    },
    {
      "midi": 66,
      "hit": false,
      "t": 276631.16400000086,
      "d": 342.1047499999986,
      "v": 53
    },
    {
      "midi": 67,
      "hit": false,
      "t": 276946.95300000085,
      "d": 342.1047499999986,
      "v": 45
    },
    {
      "midi": 31,
      "hit": false,
      "t": 277262.7420000003,
      "d": 342.1047499999986,
      "v": 30
    },
    {
      "midi": 43,
      "hit": false,
      "t": 277262.7420000003,
      "d": 342.1047499999986,
      "v": 18
    },
    {
      "midi": 59,
      "hit": false,
      "t": 277262.74200000084,
      "d": 1263.1560000000172,
      "v": 30
    },
    {
      "midi": 64,
      "hit": false,
      "t": 277315.37350000086,
      "d": 1210.5244999999995,
      "v": 36
    },
    {
      "midi": 71,
      "hit": false,
      "t": 277354.84712500084,
      "d": 1197.3666250000242,
      "v": 50
    },
    {
      "midi": 52,
      "hit": false,
      "t": 277578.5310000003,
      "d": 131.57874999998603,
      "v": 23
    },
    {
      "midi": 83,
      "hit": false,
      "t": 277578.5310000011,
      "d": 263.15749999997206,
      "v": 45
    },
    {
      "midi": 55,
      "hit": false,
      "t": 277894.3200000003,
      "d": 157.89449999999488,
      "v": 20
    },
    {
      "midi": 83,
      "hit": false,
      "t": 277894.3200000011,
      "d": 210.52600000001257,
      "v": 48
    },
    {
      "midi": 88,
      "hit": false,
      "t": 278078.5302500011,
      "d": 78.94725000002654,
      "v": 38
    },
    {
      "midi": 76,
      "hit": false,
      "t": 278210.10900000046,
      "d": 263.15749999997206,
      "v": 38
    },
    {
      "midi": 30,
      "hit": false,
      "t": 278525.8980000003,
      "d": 631.5779999999795,
      "v": 28
    },
    {
      "midi": 42,
      "hit": false,
      "t": 278525.8980000003,
      "d": 631.5779999999795,
      "v": 23
    },
    {
      "midi": 60,
      "hit": false,
      "t": 278525.89800000086,
      "d": 631.5780000000377,
      "v": 32
    },
    {
      "midi": 64,
      "hit": false,
      "t": 278525.89800000086,
      "d": 631.5780000000377,
      "v": 25
    },
    {
      "midi": 69,
      "hit": false,
      "t": 278525.89800000086,
      "d": 631.5780000000377,
      "v": 42
    },
    {
      "midi": 76,
      "hit": false,
      "t": 278525.89800000115,
      "d": 197.36812500003725,
      "v": 40
    },
    {
      "midi": 81,
      "hit": false,
      "t": 278696.9503750012,
      "d": 78.94725000002654,
      "v": 30
    },
    {
      "midi": 72,
      "hit": false,
      "t": 278841.68700000044,
      "d": 263.15749999997206,
      "v": 33
    },
    {
      "midi": 35,
      "hit": false,
      "t": 279157.47600000026,
      "d": 342.1047499999986,
      "v": 30
    },
    {
      "midi": 47,
      "hit": false,
      "t": 279157.47600000026,
      "d": 342.1047499999986,
      "v": 20
    },
    {
      "midi": 59,
      "hit": false,
      "t": 279157.4760000009,
      "d": 1263.1560000000172,
      "v": 20
    },
    {
      "midi": 63,
      "hit": false,
      "t": 279157.4760000009,
      "d": 1263.1560000000172,
      "v": 32
    },
    {
      "midi": 67,
      "hit": false,
      "t": 279157.4760000009,
      "d": 1289.471750000026,
      "v": 45
    },
    {
      "midi": 51,
      "hit": false,
      "t": 279473.26500000025,
      "d": 131.57874999998603,
      "v": 25
    },
    {
      "midi": 71,
      "hit": false,
      "t": 279473.2650000012,
      "d": 342.1047499999986,
      "v": 40
    },
    {
      "midi": 57,
      "hit": false,
      "t": 279789.05400000024,
      "d": 157.89449999999488,
      "v": 22
    },
    {
      "midi": 71,
      "hit": false,
      "t": 279789.0540000004,
      "d": 131.57874999998603,
      "v": 35
    },
    {
      "midi": 75,
      "hit": false,
      "t": 279789.05400000117,
      "d": 131.57874999998603,
      "v": 25
    },
    {
      "midi": 83,
      "hit": false,
      "t": 279789.05400000117,
      "d": 131.57874999998603,
      "v": 43
    },
    {
      "midi": 35,
      "hit": false,
      "t": 280420.6320000002,
      "d": 631.5779999999795,
      "v": 33
    },
    {
      "midi": 71,
      "hit": false,
      "t": 280420.6320000004,
      "d": 631.5779999999795,
      "v": 30
    },
    {
      "midi": 57,
      "hit": false,
      "t": 280420.6320000009,
      "d": 657.8937500000466,
      "v": 18
    },
    {
      "midi": 63,
      "hit": false,
      "t": 280420.6320000009,
      "d": 657.8937500000466,
      "v": 25
    },
    {
      "midi": 66,
      "hit": false,
      "t": 280420.6320000009,
      "d": 657.8937500000466,
      "v": 36
    },
    {
      "midi": 40,
      "hit": false,
      "t": 281052.2100000002,
      "d": 1789.4709999999614,
      "v": 35
    },
    {
      "midi": 55,
      "hit": false,
      "t": 281052.21000000095,
      "d": 1789.4710000000196,
      "v": 20
    },
    {
      "midi": 64,
      "hit": false,
      "t": 281052.21000000095,
      "d": 1789.4710000000196,
      "v": 40
    },
    {
      "midi": 47,
      "hit": false,
      "t": 281367.9990000002,
      "d": 342.1047499999986,
      "v": 43
    },
    {
      "midi": 88,
      "hit": false,
      "t": 281367.9990000012,
      "d": 263.15749999997206,
      "v": 35
    },
    {
      "midi": 48,
      "hit": false,
      "t": 281683.7880000002,
      "d": 342.1047499999986,
      "v": 40
    },
    {
      "midi": 88,
      "hit": false,
      "t": 281683.78800000116,
      "d": 210.52600000001257,
      "v": 38
    },
    {
      "midi": 91,
      "hit": false,
      "t": 281867.99825000117,
      "d": 78.94725000002654,
      "v": 28
    },
    {
      "midi": 47,
      "hit": false,
      "t": 281999.57700000016,
      "d": 342.1047499999986,
      "v": 42
    },
    {
      "midi": 79,
      "hit": false,
      "t": 281999.5770000004,
      "d": 263.15749999997206,
      "v": 32
    },
    {
      "midi": 46,
      "hit": false,
      "t": 282315.36600000015,
      "d": 342.1047499999986,
      "v": 38
    },
    {
      "midi": 79,
      "hit": false,
      "t": 282315.3660000012,
      "d": 197.36812500003725,
      "v": 30
    },
    {
      "midi": 88,
      "hit": false,
      "t": 282486.41837500123,
      "d": 78.94725000002654,
      "v": 20
    },
    {
      "midi": 47,
      "hit": false,
      "t": 282631.15500000014,
      "d": 342.1047499999986,
      "v": 43
    },
    {
      "midi": 76,
      "hit": false,
      "t": 282631.1550000004,
      "d": 210.52600000001257,
      "v": 25
    },
    {
      "midi": 52,
      "hit": false,
      "t": 282946.94400000013,
      "d": 236.84175000002142,
      "v": 70
    },
    {
      "midi": 83,
      "hit": false,
      "t": 282946.94400000124,
      "d": 131.57874999998603,
      "v": 65
    },
    {
      "midi": 80,
      "hit": false,
      "t": 282946.94400000124,
      "d": 315.78899999998976,
      "v": 40
    },
    {
      "midi": 85,
      "hit": false,
      "t": 283052.2070000012,
      "d": 105.26300000003539,
      "v": 52
    },
    {
      "midi": 83,
      "hit": false,
      "t": 283131.15425000124,
      "d": 447.3677499999758,
      "v": 55
    },
    {
      "midi": 56,
      "hit": false,
      "t": 283157.47000000015,
      "d": 157.89449999999488,
      "v": 62
    },
    {
      "midi": 59,
      "hit": false,
      "t": 283275.89087500016,
      "d": 197.36812499997905,
      "v": 58
    },
    {
      "midi": 64,
      "hit": false,
      "t": 283446.943250001,
      "d": 157.89449999999488,
      "v": 60
    },
    {
      "midi": 68,
      "hit": false,
      "t": 283578.522000001,
      "d": 210.52600000001257,
      "v": 57
    },
    {
      "midi": 76,
      "hit": false,
      "t": 283578.5220000012,
      "d": 131.57874999998603,
      "v": 48
    },
    {
      "midi": 80,
      "hit": false,
      "t": 283578.5220000012,
      "d": 131.57874999998603,
      "v": 60
    },
    {
      "midi": 71,
      "hit": false,
      "t": 283762.732250001,
      "d": 157.89449999999488,
      "v": 53
    },
    {
      "midi": 68,
      "hit": false,
      "t": 283894.311000001,
      "d": 171.0523750000284,
      "v": 55
    },
    {
      "midi": 80,
      "hit": false,
      "t": 283894.3110000012,
      "d": 105.26299999997718,
      "v": 43
    },
    {
      "midi": 83,
      "hit": false,
      "t": 283894.3110000012,
      "d": 105.26299999997718,
      "v": 53
    },
    {
      "midi": 71,
      "hit": false,
      "t": 284039.047625001,
      "d": 197.36812500003725,
      "v": 58
    },
    {
      "midi": 64,
      "hit": false,
      "t": 284210.100000001,
      "d": 315.78899999998976,
      "v": 38
    },
    {
      "midi": 68,
      "hit": false,
      "t": 284210.100000001,
      "d": 315.78899999998976,
      "v": 50
    },
    {
      "midi": 76,
      "hit": false,
      "t": 284210.1000000012,
      "d": 157.89449999999488,
      "v": 45
    },
    {
      "midi": 80,
      "hit": false,
      "t": 284210.1000000012,
      "d": 157.89449999999488,
      "v": 55
    },
    {
      "midi": 57,
      "hit": false,
      "t": 284841.67800000013,
      "d": 236.84175000002142,
      "v": 65
    },
    {
      "midi": 85,
      "hit": false,
      "t": 284841.6780000012,
      "d": 131.57874999998603,
      "v": 65
    },
    {
      "midi": 81,
      "hit": false,
      "t": 284841.6780000012,
      "d": 315.78899999998976,
      "v": 40
    },
    {
      "midi": 87,
      "hit": false,
      "t": 284946.94100000116,
      "d": 105.26300000003539,
      "v": 52
    },
    {
      "midi": 61,
      "hit": false,
      "t": 285025.88825000013,
      "d": 157.89450000005309,
      "v": 57
    },
    {
      "midi": 85,
      "hit": false,
      "t": 285025.8882500012,
      "d": 447.3677499999758,
      "v": 55
    },
    {
      "midi": 64,
      "hit": false,
      "t": 285157.4670000002,
      "d": 197.36812500003725,
      "v": 53
    },
    {
      "midi": 66,
      "hit": false,
      "t": 285328.519375001,
      "d": 171.0523750000284,
      "v": 55
    },
    {
      "midi": 69,
      "hit": false,
      "t": 285473.25600000104,
      "d": 197.36812500003725,
      "v": 58
    },
    {
      "midi": 78,
      "hit": false,
      "t": 285473.25600000116,
      "d": 131.57874999998603,
      "v": 48
    },
    {
      "midi": 81,
      "hit": false,
      "t": 285473.25600000116,
      "d": 131.57874999998603,
      "v": 60
    },
    {
      "midi": 73,
      "hit": false,
      "t": 285644.30837500107,
      "d": 171.0523750000284,
      "v": 53
    },
    {
      "midi": 69,
      "hit": false,
      "t": 285789.0450000011,
      "d": 157.89449999999488,
      "v": 55
    },
    {
      "midi": 81,
      "hit": false,
      "t": 285789.04500000115,
      "d": 105.26299999997718,
      "v": 53
    },
    {
      "midi": 85,
      "hit": false,
      "t": 285789.04500000115,
      "d": 105.26299999997718,
      "v": 63
    },
    {
      "midi": 73,
      "hit": false,
      "t": 285920.6237500011,
      "d": 210.52600000001257,
      "v": 52
    },
    {
      "midi": 66,
      "hit": false,
      "t": 286104.8340000011,
      "d": 315.78899999998976,
      "v": 40
    },
    {
      "midi": 69,
      "hit": false,
      "t": 286104.8340000011,
      "d": 315.78899999998976,
      "v": 48
    },
    {
      "midi": 78,
      "hit": false,
      "t": 286104.83400000114,
      "d": 157.89449999999488,
      "v": 55
    },
    {
      "midi": 81,
      "hit": false,
      "t": 286104.83400000114,
      "d": 157.89449999999488,
      "v": 65
    },
    {
      "midi": 47,
      "hit": false,
      "t": 286736.41200000024,
      "d": 657.8937499999884,
      "v": 45
    },
    {
      "midi": 69,
      "hit": false,
      "t": 286736.4120000004,
      "d": 631.5779999999795,
      "v": 40
    },
    {
      "midi": 71,
      "hit": false,
      "t": 286736.4120000011,
      "d": 631.5779999999795,
      "v": 43
    },
    {
      "midi": 75,
      "hit": false,
      "t": 286736.4120000011,
      "d": 657.8937499999884,
      "v": 50
    },
    {
      "midi": 57,
      "hit": false,
      "t": 286973.2537500011,
      "d": 210.52600000001257,
      "v": 45
    },
    {
      "midi": 59,
      "hit": false,
      "t": 287157.4640000011,
      "d": 210.52600000001257,
      "v": 38
    },
    {
      "midi": 49,
      "hit": false,
      "t": 287367.9900000002,
      "d": 657.8937500000466,
      "v": 52
    },
    {
      "midi": 69,
      "hit": false,
      "t": 287367.9900000004,
      "d": 631.5779999999795,
      "v": 44
    },
    {
      "midi": 71,
      "hit": false,
      "t": 287367.9900000011,
      "d": 631.5780000000377,
      "v": 47
    },
    {
      "midi": 76,
      "hit": false,
      "t": 287367.9900000011,
      "d": 657.8937500000466,
      "v": 58
    },
    {
      "midi": 57,
      "hit": false,
      "t": 287591.6738750011,
      "d": 223.6838749999879,
      "v": 54
    },
    {
      "midi": 59,
      "hit": false,
      "t": 287789.04200000106,
      "d": 210.52600000001257,
      "v": 47
    },
    {
      "midi": 51,
      "hit": false,
      "t": 287999.56800000026,
      "d": 657.8937500000466,
      "v": 58
    },
    {
      "midi": 69,
      "hit": false,
      "t": 287999.5680000004,
      "d": 657.8937499999884,
      "v": 47
    },
    {
      "midi": 71,
      "hit": false,
      "t": 287999.56800000113,
      "d": 631.5780000000377,
      "v": 50
    },
    {
      "midi": 78,
      "hit": false,
      "t": 287999.56800000113,
      "d": 657.8937500000466,
      "v": 62
    },
    {
      "midi": 57,
      "hit": false,
      "t": 288223.25187500106,
      "d": 223.6838749999879,
      "v": 57
    },
    {
      "midi": 59,
      "hit": false,
      "t": 288420.62000000104,
      "d": 210.52600000001257,
      "v": 50
    },
    {
      "midi": 52,
      "hit": false,
      "t": 288631.1460000003,
      "d": 657.8937500000466,
      "v": 55
    },
    {
      "midi": 68,
      "hit": false,
      "t": 288631.14600000036,
      "d": 631.5780000000377,
      "v": 45
    },
    {
      "midi": 71,
      "hit": false,
      "t": 288631.1460000012,
      "d": 526.3150000000023,
      "v": 48
    },
    {
      "midi": 80,
      "hit": false,
      "t": 288631.1460000012,
      "d": 526.3150000000023,
      "v": 60
    },
    {
      "midi": 56,
      "hit": false,
      "t": 288854.82987500104,
      "d": 223.6838749999879,
      "v": 55
    },
    {
      "midi": 59,
      "hit": false,
      "t": 289052.198000001,
      "d": 210.52600000001257,
      "v": 48
    },
    {
      "midi": 76,
      "hit": false,
      "t": 289131.14525000117,
      "d": 157.89449999999488,
      "v": 57
    },
    {
      "midi": 47,
      "hit": false,
      "t": 289262.72400000034,
      "d": 657.8937500000466,
      "v": 46
    },
    {
      "midi": 68,
      "hit": false,
      "t": 289262.7240000004,
      "d": 1263.1560000000172,
      "v": 40
    },
    {
      "midi": 71,
      "hit": false,
      "t": 289262.72400000115,
      "d": 1263.1560000000172,
      "v": 53
    },
    {
      "midi": 56,
      "hit": false,
      "t": 289473.25000000105,
      "d": 223.6838749999879,
      "v": 47
    },
    {
      "midi": 59,
      "hit": false,
      "t": 289670.618125001,
      "d": 210.52600000001257,
      "v": 40
    },
    {
      "midi": 40,
      "hit": false,
      "t": 289894.3020000004,
      "d": 631.5780000000377,
      "v": 40
    },
    {
      "midi": 56,
      "hit": false,
      "t": 290104.828000001,
      "d": 210.52600000001257,
      "v": 44
    },
    {
      "midi": 59,
      "hit": false,
      "t": 290289.03825000103,
      "d": 236.84175000002142,
      "v": 37
    },
    {
      "midi": 76,
      "hit": false,
      "t": 290525.8800000004,
      "d": 236.84175000002142,
      "v": 60
    },
    {
      "midi": 52,
      "hit": false,
      "t": 290525.8800000004,
      "d": 315.78899999998976,
      "v": 55
    },
    {
      "midi": 71,
      "hit": false,
      "t": 290525.88000000105,
      "d": 131.57874999998603,
      "v": 65
    },
    {
      "midi": 68,
      "hit": false,
      "t": 290525.88000000105,
      "d": 315.78899999998976,
      "v": 40
    },
    {
      "midi": 73,
      "hit": false,
      "t": 290631.14300000103,
      "d": 105.26300000003539,
      "v": 52
    },
    {
      "midi": 71,
      "hit": false,
      "t": 290710.09025000106,
      "d": 447.3677499999758,
      "v": 55
    },
    {
      "midi": 80,
      "hit": false,
      "t": 290736.4060000004,
      "d": 157.89449999999488,
      "v": 52
    },
    {
      "midi": 83,
      "hit": false,
      "t": 290854.82687500044,
      "d": 197.36812499997905,
      "v": 48
    },
    {
      "midi": 88,
      "hit": false,
      "t": 291025.87925000116,
      "d": 157.89449999999488,
      "v": 60
    },
    {
      "midi": 64,
      "hit": false,
      "t": 291157.45800000103,
      "d": 131.57874999998603,
      "v": 48
    },
    {
      "midi": 68,
      "hit": false,
      "t": 291157.45800000103,
      "d": 131.57874999998603,
      "v": 60
    },
    {
      "midi": 92,
      "hit": false,
      "t": 291157.45800000115,
      "d": 210.52600000001257,
      "v": 57
    },
    {
      "midi": 95,
      "hit": false,
      "t": 291341.66825000115,
      "d": 157.89449999999488,
      "v": 53
    },
    {
      "midi": 68,
      "hit": false,
      "t": 291473.247000001,
      "d": 105.26299999997718,
      "v": 43
    },
    {
      "midi": 71,
      "hit": false,
      "t": 291473.247000001,
      "d": 105.26299999997718,
      "v": 53
    },
    {
      "midi": 92,
      "hit": false,
      "t": 291473.24700000114,
      "d": 171.0523750000284,
      "v": 55
    },
    {
      "midi": 95,
      "hit": false,
      "t": 291617.98362500116,
      "d": 197.36812500003725,
      "v": 58
    },
    {
      "midi": 52,
      "hit": false,
      "t": 291789.03600000043,
      "d": 263.15749999997206,
      "v": 48
    },
    {
      "midi": 64,
      "hit": false,
      "t": 291789.036000001,
      "d": 157.89449999999488,
      "v": 45
    },
    {
      "midi": 68,
      "hit": false,
      "t": 291789.036000001,
      "d": 157.89449999999488,
      "v": 55
    },
    {
      "midi": 88,
      "hit": false,
      "t": 291789.0360000012,
      "d": 315.78899999998976,
      "v": 38
    },
    {
      "midi": 92,
      "hit": false,
      "t": 291789.0360000012,
      "d": 315.78899999998976,
      "v": 50
    },
    {
      "midi": 77,
      "hit": false,
      "t": 292420.6140000004,
      "d": 236.84175000002142,
      "v": 35
    },
    {
      "midi": 45,
      "hit": false,
      "t": 292420.6140000004,
      "d": 315.78899999998976,
      "v": 30
    },
    {
      "midi": 72,
      "hit": false,
      "t": 292420.614000001,
      "d": 131.57874999998603,
      "v": 40
    },
    {
      "midi": 69,
      "hit": false,
      "t": 292420.614000001,
      "d": 315.78899999998976,
      "v": 15
    },
    {
      "midi": 74,
      "hit": false,
      "t": 292525.87700000097,
      "d": 105.26300000003539,
      "v": 27
    },
    {
      "midi": 81,
      "hit": false,
      "t": 292604.8242500004,
      "d": 157.89450000005309,
      "v": 27
    },
    {
      "midi": 72,
      "hit": false,
      "t": 292604.824250001,
      "d": 447.3677499999758,
      "v": 30
    },
    {
      "midi": 84,
      "hit": false,
      "t": 292736.40300000046,
      "d": 197.36812500003725,
      "v": 23
    },
    {
      "midi": 89,
      "hit": false,
      "t": 292907.4553750012,
      "d": 171.0523750000284,
      "v": 30
    },
    {
      "midi": 65,
      "hit": false,
      "t": 293052.19200000097,
      "d": 131.57874999998603,
      "v": 23
    },
    {
      "midi": 69,
      "hit": false,
      "t": 293052.19200000097,
      "d": 131.57874999998603,
      "v": 35
    },
    {
      "midi": 93,
      "hit": false,
      "t": 293052.1920000012,
      "d": 197.36812500003725,
      "v": 33
    },
    {
      "midi": 96,
      "hit": false,
      "t": 293223.24437500123,
      "d": 171.0523750000284,
      "v": 28
    },
    {
      "midi": 69,
      "hit": false,
      "t": 293367.98100000096,
      "d": 105.26299999997718,
      "v": 28
    },
    {
      "midi": 72,
      "hit": false,
      "t": 293367.98100000096,
      "d": 105.26299999997718,
      "v": 38
    },
    {
      "midi": 93,
      "hit": false,
      "t": 293367.98100000125,
      "d": 157.89449999999488,
      "v": 30
    },
    {
      "midi": 96,
      "hit": false,
      "t": 293499.55975000124,
      "d": 210.52600000001257,
      "v": 27
    },
    {
      "midi": 45,
      "hit": false,
      "t": 293683.7700000004,
      "d": 263.15749999997206,
      "v": 25
    },
    {
      "midi": 65,
      "hit": false,
      "t": 293683.77000000095,
      "d": 157.89449999999488,
      "v": 30
    },
    {
      "midi": 69,
      "hit": false,
      "t": 293683.77000000095,
      "d": 157.89449999999488,
      "v": 40
    },
    {
      "midi": 89,
      "hit": false,
      "t": 293683.77000000124,
      "d": 315.78899999998976,
      "v": 15
    },
    {
      "midi": 93,
      "hit": false,
      "t": 293683.77000000124,
      "d": 315.78899999998976,
      "v": 23
    },
    {
      "midi": 47,
      "hit": false,
      "t": 294315.3480000004,
      "d": 1263.155999999959,
      "v": 32
    },
    {
      "midi": 71,
      "hit": false,
      "t": 294315.3480000005,
      "d": 184.21025000000373,
      "v": 45
    },
    {
      "midi": 59,
      "hit": false,
      "t": 294315.34800000093,
      "d": 1263.155999999959,
      "v": 52
    },
    {
      "midi": 83,
      "hit": false,
      "t": 294631.1370000012,
      "d": 197.36812500003725,
      "v": 40
    },
    {
      "midi": 95,
      "hit": false,
      "t": 294802.18937500124,
      "d": 144.73662500001956,
      "v": 33
    },
    {
      "midi": 49,
      "hit": false,
      "t": 294946.9260000004,
      "d": 657.8937499999884,
      "v": 38
    },
    {
      "midi": 71,
      "hit": false,
      "t": 294946.9260000005,
      "d": 131.57874999998603,
      "v": 40
    },
    {
      "midi": 67,
      "hit": false,
      "t": 294946.9260000009,
      "d": 657.8937499999884,
      "v": 48
    },
    {
      "midi": 83,
      "hit": false,
      "t": 295262.71500000125,
      "d": 184.21025000000373,
      "v": 42
    },
    {
      "midi": 95,
      "hit": false,
      "t": 295420.60950000124,
      "d": 157.89449999999488,
      "v": 35
    },
    {
      "midi": 47,
      "hit": false,
      "t": 295578.50400000036,
      "d": 657.8937500000466,
      "v": 35
    },
    {
      "midi": 51,
      "hit": false,
      "t": 295578.50400000036,
      "d": 657.8937500000466,
      "v": 42
    },
    {
      "midi": 71,
      "hit": false,
      "t": 295578.5040000005,
      "d": 157.89449999999488,
      "v": 42
    },
    {
      "midi": 57,
      "hit": false,
      "t": 295578.5040000009,
      "d": 631.5780000000377,
      "v": 33
    },
    {
      "midi": 59,
      "hit": false,
      "t": 295578.5040000009,
      "d": 631.5780000000377,
      "v": 25
    },
    {
      "midi": 66,
      "hit": false,
      "t": 295578.5040000009,
      "d": 657.8937500000466,
      "v": 48
    },
    {
      "midi": 83,
      "hit": false,
      "t": 295894.2930000012,
      "d": 171.0523750000284,
      "v": 38
    },
    {
      "midi": 95,
      "hit": false,
      "t": 296039.02962500125,
      "d": 171.0523750000284,
      "v": 31
    },
    {
      "midi": 40,
      "hit": false,
      "t": 296210.0820000004,
      "d": 1263.1560000000172,
      "v": 45
    },
    {
      "midi": 52,
      "hit": false,
      "t": 296210.0820000004,
      "d": 1263.1560000000172,
      "v": 30
    },
    {
      "midi": 71,
      "hit": false,
      "t": 296210.08200000046,
      "d": 157.89449999999488,
      "v": 40
    },
    {
      "midi": 57,
      "hit": false,
      "t": 296210.0820000009,
      "d": 342.1047499999986,
      "v": 45
    },
    {
      "midi": 59,
      "hit": false,
      "t": 296210.0820000009,
      "d": 1263.155999999959,
      "v": 30
    },
    {
      "midi": 64,
      "hit": false,
      "t": 296210.0820000009,
      "d": 1263.155999999959,
      "v": 35
    },
    {
      "midi": 56,
      "hit": false,
      "t": 296525.8710000009,
      "d": 342.1047499999986,
      "v": 55
    },
    {
      "midi": 83,
      "hit": false,
      "t": 296525.87100000127,
      "d": 197.36812500003725,
      "v": 40
    },
    {
      "midi": 95,
      "hit": false,
      "t": 296696.9233750013,
      "d": 144.73662500001956,
      "v": 33
    },
    {
      "midi": 76,
      "hit": false,
      "t": 296841.66000000044,
      "d": 131.57874999998603,
      "v": 38
    },
    {
      "midi": 55,
      "hit": false,
      "t": 296841.6600000009,
      "d": 342.1047499999986,
      "v": 63
    },
    {
      "midi": 54,
      "hit": false,
      "t": 297157.4490000009,
      "d": 342.1047499999986,
      "v": 66
    },
    {
      "midi": 76,
      "hit": false,
      "t": 297157.4490000013,
      "d": 2842.100999999966,
      "v": 37
    },
    {
      "midi": 88,
      "hit": false,
      "t": 297289.0277500013,
      "d": 2710.52224999998,
      "v": 30
    },
    {
      "midi": 71,
      "hit": false,
      "t": 297473.2380000004,
      "d": 342.1047499999986,
      "v": 60
    },
    {
      "midi": 36,
      "hit": false,
      "t": 297473.2380000004,
      "d": 1263.1560000000172,
      "v": 70
    },
    {
      "midi": 48,
      "hit": false,
      "t": 297473.2380000004,
      "d": 1263.1560000000172,
      "v": 55
    },
    {
      "midi": 52,
      "hit": false,
      "t": 297473.2380000009,
      "d": 1263.1560000000172,
      "v": 70
    },
    {
      "midi": 64,
      "hit": false,
      "t": 297473.2380000009,
      "d": 1276.3138749999925,
      "v": 48
    },
    {
      "midi": 70,
      "hit": false,
      "t": 297789.0270000004,
      "d": 342.1047499999986,
      "v": 52
    },
    {
      "midi": 69,
      "hit": false,
      "t": 298104.8160000004,
      "d": 342.1047499999986,
      "v": 55
    },
    {
      "midi": 68,
      "hit": false,
      "t": 298420.6050000004,
      "d": 342.1047499999986,
      "v": 58
    },
    {
      "midi": 67,
      "hit": false,
      "t": 298736.3940000004,
      "d": 342.1047499999986,
      "v": 61
    },
    {
      "midi": 47,
      "hit": false,
      "t": 298736.39400000044,
      "d": 342.1047499999986,
      "v": 52
    },
    {
      "midi": 40,
      "hit": false,
      "t": 298736.39400000044,
      "d": 3157.8899999999558,
      "v": 75
    },
    {
      "midi": 52,
      "hit": false,
      "t": 298736.3940000009,
      "d": 3157.8899999999558,
      "v": 75
    },
    {
      "midi": 66,
      "hit": false,
      "t": 299052.18300000037,
      "d": 342.1047499999986,
      "v": 65
    },
    {
      "midi": 46,
      "hit": false,
      "t": 299052.1830000004,
      "d": 342.1047499999986,
      "v": 60
    },
    {
      "midi": 65,
      "hit": false,
      "t": 299367.97200000036,
      "d": 342.1047499999986,
      "v": 68
    },
    {
      "midi": 45,
      "hit": false,
      "t": 299367.9720000004,
      "d": 342.1047499999986,
      "v": 68
    },
    {
      "midi": 64,
      "hit": false,
      "t": 299683.76100000035,
      "d": 315.78899999998976,
      "v": 72
    },
    {
      "midi": 44,
      "hit": false,
      "t": 299683.7610000004,
      "d": 315.78899999998976,
      "v": 74
    },
    {
      "midi": 64,
      "hit": false,
      "t": 299999.55000000034,
      "d": 1894.7339999999967,
      "v": 70
    },
    {
      "midi": 44,
      "hit": false,
      "t": 299999.5500000004,
      "d": 1894.7339999999967,
      "v": 58
    },
    {
      "midi": 59,
      "hit": false,
      "t": 299999.55000000086,
      "d": 1894.7339999999967,
      "v": 80
    },
    {
      "midi": 76,
      "hit": false,
      "t": 299999.55000000127,
      "d": 1894.7339999999967,
      "v": 55
    },
    {
      "midi": 88,
      "hit": false,
      "t": 299999.55000000127,
      "d": 1894.7339999999967,
      "v": 70
    },
    {
      "midi": 64,
      "hit": false,
      "t": 301894.28400000033,
      "d": 1894.7339999999967,
      "v": 30
    },
    {
      "midi": 40,
      "hit": false,
      "t": 301894.2840000004,
      "d": 1894.7339999999967,
      "v": 40
    },
    {
      "midi": 44,
      "hit": false,
      "t": 301894.2840000004,
      "d": 1894.7339999999967,
      "v": 28
    },
    {
      "midi": 52,
      "hit": false,
      "t": 301894.28400000086,
      "d": 1894.7339999999967,
      "v": 30
    },
    {
      "midi": 59,
      "hit": false,
      "t": 301894.28400000086,
      "d": 3789.4679999999935,
      "v": 25
    },
    {
      "midi": 76,
      "hit": false,
      "t": 301894.28400000127,
      "d": 1894.7339999999967,
      "v": 20
    },
    {
      "midi": 88,
      "hit": false,
      "t": 301894.28400000127,
      "d": 1894.7339999999967,
      "v": 35
    },
    {
      "midi": 64,
      "hit": false,
      "t": 303789.01800000033,
      "d": 1894.7339999999967,
      "v": 18
    },
    {
      "midi": 40,
      "hit": false,
      "t": 303789.0180000004,
      "d": 1894.7339999999967,
      "v": 30
    },
    {
      "midi": 44,
      "hit": false,
      "t": 303789.0180000004,
      "d": 1894.7339999999967,
      "v": 23
    },
    {
      "midi": 52,
      "hit": false,
      "t": 303789.01800000085,
      "d": 1894.7339999999967,
      "v": 20
    },
    {
      "midi": 76,
      "hit": false,
      "t": 303789.01800000126,
      "d": 1894.7339999999967,
      "v": 15
    },
    {
      "midi": 88,
      "hit": false,
      "t": 303789.01800000126,
      "d": 1894.7339999999967,
      "v": 28
    }
  ]
}