{
  "jsonPath": "Unknown/Unknown/Irini Merkouri/mia-kardia.json",
  "path": "Unknown\\Unknown\\Irini Merkouri\\Mia Kardia.mid",
  "name": "Mia Kardia",
  "difficulty": "Advanced",
  "bpm": 75,
  "notes": [
    {
      "midi": 64,
      "hit": false,
      "t": 6000,
      "d": 1003.125,
      "v": 107
    },
    {
      "midi": 61,
      "hit": false,
      "t": 6000,
      "d": 1031.25,
      "v": 121
    },
    {
      "midi": 69,
      "hit": false,
      "t": 6000,
      "d": 1084.375,
      "v": 114
    },
    {
      "midi": 45,
      "hit": false,
      "t": 6000,
      "d": 3396.875,
      "v": 107
    },
    {
      "midi": 52,
      "hit": false,
      "t": 6750,
      "d": 2600,
      "v": 98
    },
    {
      "midi": 64,
      "hit": false,
      "t": 7500,
      "d": 890.625,
      "v": 104
    },
    {
      "midi": 61,
      "hit": false,
      "t": 7500,
      "d": 1087.5,
      "v": 104
    },
    {
      "midi": 69,
      "hit": false,
      "t": 7500,
      "d": 1140.625,
      "v": 104
    },
    {
      "midi": 64,
      "hit": false,
      "t": 9000,
      "d": 987.5,
      "v": 97
    },
    {
      "midi": 61,
      "hit": false,
      "t": 9000,
      "d": 1009.375,
      "v": 97
    },
    {
      "midi": 69,
      "hit": false,
      "t": 9000,
      "d": 1009.375,
      "v": 97
    },
    {
      "midi": 45,
      "hit": false,
      "t": 9750,
      "d": 1900,
      "v": 117
    },
    {
      "midi": 52,
      "hit": false,
      "t": 9750,
      "d": 2000,
      "v": 107
    },
    {
      "midi": 69,
      "hit": false,
      "t": 10500,
      "d": 1006.25,
      "v": 127
    },
    {
      "midi": 61,
      "hit": false,
      "t": 10500,
      "d": 1034.375,
      "v": 127
    },
    {
      "midi": 64,
      "hit": false,
      "t": 10500,
      "d": 1162.5,
      "v": 127
    },
    {
      "midi": 59,
      "hit": false,
      "t": 10875,
      "d": 984.375,
      "v": 127
    },
    {
      "midi": 64,
      "hit": false,
      "t": 12000,
      "d": 1140.625,
      "v": 105
    },
    {
      "midi": 68,
      "hit": false,
      "t": 12000,
      "d": 1175,
      "v": 125
    },
    {
      "midi": 59,
      "hit": false,
      "t": 12000,
      "d": 1218.75,
      "v": 109
    },
    {
      "midi": 49,
      "hit": false,
      "t": 12000,
      "d": 1625,
      "v": 127
    },
    {
      "midi": 68,
      "hit": false,
      "t": 13500,
      "d": 1140.625,
      "v": 125
    },
    {
      "midi": 59,
      "hit": false,
      "t": 13500,
      "d": 1171.875,
      "v": 107
    },
    {
      "midi": 64,
      "hit": false,
      "t": 13500,
      "d": 1281.25,
      "v": 114
    },
    {
      "midi": 49,
      "hit": false,
      "t": 14250,
      "d": 3446.875,
      "v": 121
    },
    {
      "midi": 59,
      "hit": false,
      "t": 15000,
      "d": 275,
      "v": 90
    },
    {
      "midi": 64,
      "hit": false,
      "t": 15000,
      "d": 275,
      "v": 90
    },
    {
      "midi": 68,
      "hit": false,
      "t": 15000,
      "d": 275,
      "v": 90
    },
    {
      "midi": 59,
      "hit": false,
      "t": 15375,
      "d": 275,
      "v": 95
    },
    {
      "midi": 64,
      "hit": false,
      "t": 15375,
      "d": 275,
      "v": 96
    },
    {
      "midi": 68,
      "hit": false,
      "t": 15375,
      "d": 275,
      "v": 101
    },
    {
      "midi": 59,
      "hit": false,
      "t": 15750,
      "d": 275,
      "v": 117
    },
    {
      "midi": 64,
      "hit": false,
      "t": 15750,
      "d": 275,
      "v": 125
    },
    {
      "midi": 68,
      "hit": false,
      "t": 15750,
      "d": 275,
      "v": 127
    },
    {
      "midi": 59,
      "hit": false,
      "t": 16125,
      "d": 275,
      "v": 125
    },
    {
      "midi": 64,
      "hit": false,
      "t": 16125,
      "d": 275,
      "v": 125
    },
    {
      "midi": 68,
      "hit": false,
      "t": 16125,
      "d": 275,
      "v": 127
    },
    {
      "midi": 64,
      "hit": false,
      "t": 16500,
      "d": 281.25,
      "v": 127
    },
    {
      "midi": 68,
      "hit": false,
      "t": 16500,
      "d": 315.625,
      "v": 127
    },
    {
      "midi": 59,
      "hit": false,
      "t": 16500,
      "d": 1328.125,
      "v": 112
    },
    {
      "midi": 66,
      "hit": false,
      "t": 16875,
      "d": 915.625,
      "v": 127
    },
    {
      "midi": 64,
      "hit": false,
      "t": 16875,
      "d": 946.875,
      "v": 98
    },
    {
      "midi": 64,
      "hit": false,
      "t": 18000,
      "d": 1003.125,
      "v": 107
    },
    {
      "midi": 61,
      "hit": false,
      "t": 18000,
      "d": 1031.25,
      "v": 121
    },
    {
      "midi": 69,
      "hit": false,
      "t": 18000,
      "d": 1084.375,
      "v": 114
    },
    {
      "midi": 45,
      "hit": false,
      "t": 18000,
      "d": 3396.875,
      "v": 107
    },
    {
      "midi": 52,
      "hit": false,
      "t": 18750,
      "d": 2600,
      "v": 98
    },
    {
      "midi": 64,
      "hit": false,
      "t": 19500,
      "d": 890.625,
      "v": 104
    },
    {
      "midi": 61,
      "hit": false,
      "t": 19500,
      "d": 1087.5,
      "v": 104
    },
    {
      "midi": 69,
      "hit": false,
      "t": 19500,
      "d": 1140.625,
      "v": 104
    },
    {
      "midi": 64,
      "hit": false,
      "t": 21000,
      "d": 987.5,
      "v": 97
    },
    {
      "midi": 61,
      "hit": false,
      "t": 21000,
      "d": 1009.375,
      "v": 97
    },
    {
      "midi": 69,
      "hit": false,
      "t": 21000,
      "d": 1009.375,
      "v": 97
    },
    {
      "midi": 45,
      "hit": false,
      "t": 21750,
      "d": 1900,
      "v": 117
    },
    {
      "midi": 52,
      "hit": false,
      "t": 21750,
      "d": 2000,
      "v": 107
    },
    {
      "midi": 69,
      "hit": false,
      "t": 22500,
      "d": 1006.25,
      "v": 127
    },
    {
      "midi": 61,
      "hit": false,
      "t": 22500,
      "d": 1034.375,
      "v": 127
    },
    {
      "midi": 64,
      "hit": false,
      "t": 22500,
      "d": 1162.5,
      "v": 127
    },
    {
      "midi": 59,
      "hit": false,
      "t": 22875,
      "d": 984.375,
      "v": 127
    },
    {
      "midi": 64,
      "hit": false,
      "t": 24000,
      "d": 1140.625,
      "v": 105
    },
    {
      "midi": 68,
      "hit": false,
      "t": 24000,
      "d": 1175,
      "v": 125
    },
    {
      "midi": 59,
      "hit": false,
      "t": 24000,
      "d": 1218.75,
      "v": 109
    },
    {
      "midi": 49,
      "hit": false,
      "t": 24000,
      "d": 1625,
      "v": 127
    },
    {
      "midi": 68,
      "hit": false,
      "t": 25500,
      "d": 1140.625,
      "v": 125
    },
    {
      "midi": 59,
      "hit": false,
      "t": 25500,
      "d": 1171.875,
      "v": 107
    },
    {
      "midi": 64,
      "hit": false,
      "t": 25500,
      "d": 1281.25,
      "v": 114
    },
    {
      "midi": 49,
      "hit": false,
      "t": 26250,
      "d": 3446.875,
      "v": 121
    },
    {
      "midi": 59,
      "hit": false,
      "t": 27000,
      "d": 275,
      "v": 90
    },
    {
      "midi": 64,
      "hit": false,
      "t": 27000,
      "d": 275,
      "v": 90
    },
    {
      "midi": 68,
      "hit": false,
      "t": 27000,
      "d": 275,
      "v": 90
    },
    {
      "midi": 59,
      "hit": false,
      "t": 27375,
      "d": 275,
      "v": 95
    },
    {
      "midi": 64,
      "hit": false,
      "t": 27375,
      "d": 275,
      "v": 96
    },
    {
      "midi": 68,
      "hit": false,
      "t": 27375,
      "d": 275,
      "v": 101
    },
    {
      "midi": 59,
      "hit": false,
      "t": 27750,
      "d": 275,
      "v": 117
    },
    {
      "midi": 64,
      "hit": false,
      "t": 27750,
      "d": 275,
      "v": 125
    },
    {
      "midi": 68,
      "hit": false,
      "t": 27750,
      "d": 275,
      "v": 127
    },
    {
      "midi": 59,
      "hit": false,
      "t": 28125,
      "d": 275,
      "v": 125
    },
    {
      "midi": 64,
      "hit": false,
      "t": 28125,
      "d": 275,
      "v": 125
    },
    {
      "midi": 68,
      "hit": false,
      "t": 28125,
      "d": 275,
      "v": 127
    },
    {
      "midi": 64,
      "hit": false,
      "t": 28500,
      "d": 281.25,
      "v": 127
    },
    {
      "midi": 68,
      "hit": false,
      "t": 28500,
      "d": 315.625,
      "v": 127
    },
    {
      "midi": 59,
      "hit": false,
      "t": 28500,
      "d": 1328.125,
      "v": 112
    },
    {
      "midi": 66,
      "hit": false,
      "t": 28875,
      "d": 915.625,
      "v": 127
    },
    {
      "midi": 64,
      "hit": false,
      "t": 28875,
      "d": 946.875,
      "v": 98
    },
    {
      "midi": 61,
      "hit": false,
      "t": 30000,
      "d": 378.125,
      "v": 127
    },
    {
      "midi": 64,
      "hit": false,
      "t": 30000,
      "d": 406.25,
      "v": 127
    },
    {
      "midi": 69,
      "hit": false,
      "t": 30000,
      "d": 409.375,
      "v": 127
    },
    {
      "midi": 45,
      "hit": false,
      "t": 30000,
      "d": 440.625,
      "v": 127
    },
    {
      "midi": 68,
      "hit": false,
      "t": 31125,
      "d": 312.5,
      "v": 127
    },
    {
      "midi": 64,
      "hit": false,
      "t": 31125,
      "d": 315.625,
      "v": 127
    },
    {
      "midi": 44,
      "hit": false,
      "t": 31125,
      "d": 343.75,
      "v": 127
    },
    {
      "midi": 59,
      "hit": false,
      "t": 31125,
      "d": 346.875,
      "v": 127
    },
    {
      "midi": 38,
      "hit": false,
      "t": 32250,
      "d": 9446.875,
      "v": 127
    },
    {
      "midi": 61,
      "hit": false,
      "t": 32250,
      "d": 9468.75,
      "v": 127
    },
    {
      "midi": 57,
      "hit": false,
      "t": 32250,
      "d": 9493.75,
      "v": 127
    },
    {
      "midi": 66,
      "hit": false,
      "t": 32250,
      "d": 9500,
      "v": 127
    },
    {
      "midi": 61,
      "hit": false,
      "t": 42000,
      "d": 1031.25,
      "v": 125
    },
    {
      "midi": 57,
      "hit": false,
      "t": 42000,
      "d": 1228.125,
      "v": 114
    },
    {
      "midi": 52,
      "hit": false,
      "t": 42000,
      "d": 1234.375,
      "v": 121
    },
    {
      "midi": 45,
      "hit": false,
      "t": 42000,
      "d": 1734.375,
      "v": 121
    },
    {
      "midi": 52,
      "hit": false,
      "t": 43500,
      "d": 775,
      "v": 102
    },
    {
      "midi": 57,
      "hit": false,
      "t": 43500,
      "d": 1040.625,
      "v": 109
    },
    {
      "midi": 61,
      "hit": false,
      "t": 43500,
      "d": 1046.875,
      "v": 125
    },
    {
      "midi": 45,
      "hit": false,
      "t": 44250,
      "d": 2993.75,
      "v": 117
    },
    {
      "midi": 52,
      "hit": false,
      "t": 44625,
      "d": 2425,
      "v": 109
    },
    {
      "midi": 61,
      "hit": false,
      "t": 45000,
      "d": 815.625,
      "v": 127
    },
    {
      "midi": 57,
      "hit": false,
      "t": 45000,
      "d": 2003.125,
      "v": 104
    },
    {
      "midi": 62,
      "hit": false,
      "t": 45750,
      "d": 846.875,
      "v": 125
    },
    {
      "midi": 61,
      "hit": false,
      "t": 46500,
      "d": 456.25,
      "v": 113
    },
    {
      "midi": 52,
      "hit": false,
      "t": 47250,
      "d": 1306.25,
      "v": 107
    },
    {
      "midi": 55,
      "hit": false,
      "t": 47250,
      "d": 1906.25,
      "v": 127
    },
    {
      "midi": 59,
      "hit": false,
      "t": 47250,
      "d": 2068.75,
      "v": 121
    },
    {
      "midi": 40,
      "hit": false,
      "t": 48000,
      "d": 1737.5,
      "v": 102
    },
    {
      "midi": 52,
      "hit": false,
      "t": 48750,
      "d": 456.25,
      "v": 80
    },
    {
      "midi": 52,
      "hit": false,
      "t": 49500,
      "d": 612.5,
      "v": 107
    },
    {
      "midi": 55,
      "hit": false,
      "t": 49500,
      "d": 821.875,
      "v": 117
    },
    {
      "midi": 59,
      "hit": false,
      "t": 49500,
      "d": 956.25,
      "v": 112
    },
    {
      "midi": 40,
      "hit": false,
      "t": 50250,
      "d": 3146.875,
      "v": 105
    },
    {
      "midi": 52,
      "hit": false,
      "t": 50625,
      "d": 453.125,
      "v": 84
    },
    {
      "midi": 62,
      "hit": false,
      "t": 51000,
      "d": 650,
      "v": 117
    },
    {
      "midi": 59,
      "hit": false,
      "t": 51000,
      "d": 968.75,
      "v": 125
    },
    {
      "midi": 55,
      "hit": false,
      "t": 51000,
      "d": 1346.875,
      "v": 121
    },
    {
      "midi": 61,
      "hit": false,
      "t": 51750,
      "d": 696.875,
      "v": 127
    },
    {
      "midi": 55,
      "hit": false,
      "t": 52500,
      "d": 453.125,
      "v": 88
    },
    {
      "midi": 59,
      "hit": false,
      "t": 52500,
      "d": 553.125,
      "v": 121
    },
    {
      "midi": 55,
      "hit": false,
      "t": 53250,
      "d": 2003.125,
      "v": 117
    },
    {
      "midi": 59,
      "hit": false,
      "t": 53250,
      "d": 2056.25,
      "v": 105
    },
    {
      "midi": 62,
      "hit": false,
      "t": 54000,
      "d": 1228.125,
      "v": 125
    },
    {
      "midi": 43,
      "hit": false,
      "t": 54000,
      "d": 1943.75,
      "v": 125
    },
    {
      "midi": 55,
      "hit": false,
      "t": 55500,
      "d": 846.875,
      "v": 114
    },
    {
      "midi": 62,
      "hit": false,
      "t": 55500,
      "d": 1087.5,
      "v": 114
    },
    {
      "midi": 59,
      "hit": false,
      "t": 55500,
      "d": 1306.25,
      "v": 112
    },
    {
      "midi": 43,
      "hit": false,
      "t": 56250,
      "d": 2556.25,
      "v": 121
    },
    {
      "midi": 55,
      "hit": false,
      "t": 56625,
      "d": 240.625,
      "v": 114
    },
    {
      "midi": 59,
      "hit": false,
      "t": 57000,
      "d": 581.25,
      "v": 109
    },
    {
      "midi": 62,
      "hit": false,
      "t": 57000,
      "d": 659.375,
      "v": 127
    },
    {
      "midi": 55,
      "hit": false,
      "t": 57000,
      "d": 2384.375,
      "v": 114
    },
    {
      "midi": 59,
      "hit": false,
      "t": 57750,
      "d": 562.5,
      "v": 74
    },
    {
      "midi": 61,
      "hit": false,
      "t": 57750,
      "d": 662.5,
      "v": 125
    },
    {
      "midi": 59,
      "hit": false,
      "t": 58500,
      "d": 953.125,
      "v": 109
    },
    {
      "midi": 54,
      "hit": false,
      "t": 60000,
      "d": 900,
      "v": 121
    },
    {
      "midi": 62,
      "hit": false,
      "t": 60000,
      "d": 1118.75,
      "v": 121
    },
    {
      "midi": 57,
      "hit": false,
      "t": 60000,
      "d": 1196.875,
      "v": 109
    },
    {
      "midi": 50,
      "hit": false,
      "t": 60000,
      "d": 1850,
      "v": 105
    },
    {
      "midi": 54,
      "hit": false,
      "t": 61500,
      "d": 768.75,
      "v": 113
    },
    {
      "midi": 62,
      "hit": false,
      "t": 61500,
      "d": 1140.625,
      "v": 109
    },
    {
      "midi": 57,
      "hit": false,
      "t": 61500,
      "d": 1206.25,
      "v": 98
    },
    {
      "midi": 50,
      "hit": false,
      "t": 62250,
      "d": 2593.75,
      "v": 99
    },
    {
      "midi": 54,
      "hit": false,
      "t": 62625,
      "d": 696.875,
      "v": 98
    },
    {
      "midi": 57,
      "hit": false,
      "t": 63375,
      "d": 275,
      "v": 115
    },
    {
      "midi": 62,
      "hit": false,
      "t": 63375,
      "d": 275,
      "v": 115
    },
    {
      "midi": 66,
      "hit": false,
      "t": 63375,
      "d": 275,
      "v": 115
    },
    {
      "midi": 57,
      "hit": false,
      "t": 63750,
      "d": 275,
      "v": 115
    },
    {
      "midi": 62,
      "hit": false,
      "t": 63750,
      "d": 275,
      "v": 115
    },
    {
      "midi": 66,
      "hit": false,
      "t": 63750,
      "d": 275,
      "v": 115
    },
    {
      "midi": 57,
      "hit": false,
      "t": 64125,
      "d": 275,
      "v": 109
    },
    {
      "midi": 62,
      "hit": false,
      "t": 64125,
      "d": 275,
      "v": 117
    },
    {
      "midi": 66,
      "hit": false,
      "t": 64125,
      "d": 275,
      "v": 125
    },
    {
      "midi": 57,
      "hit": false,
      "t": 64500,
      "d": 334.375,
      "v": 127
    },
    {
      "midi": 62,
      "hit": false,
      "t": 64500,
      "d": 334.375,
      "v": 127
    },
    {
      "midi": 66,
      "hit": false,
      "t": 64500,
      "d": 334.375,
      "v": 127
    },
    {
      "midi": 62,
      "hit": false,
      "t": 64875,
      "d": 906.25,
      "v": 109
    },
    {
      "midi": 57,
      "hit": false,
      "t": 64875,
      "d": 937.5,
      "v": 105
    },
    {
      "midi": 64,
      "hit": false,
      "t": 64875,
      "d": 940.625,
      "v": 127
    },
    {
      "midi": 61,
      "hit": false,
      "t": 66000,
      "d": 1031.25,
      "v": 125
    },
    {
      "midi": 57,
      "hit": false,
      "t": 66000,
      "d": 1228.125,
      "v": 114
    },
    {
      "midi": 52,
      "hit": false,
      "t": 66000,
      "d": 1234.375,
      "v": 121
    },
    {
      "midi": 45,
      "hit": false,
      "t": 66000,
      "d": 1734.375,
      "v": 121
    },
    {
      "midi": 52,
      "hit": false,
      "t": 67500,
      "d": 775,
      "v": 102
    },
    {
      "midi": 57,
      "hit": false,
      "t": 67500,
      "d": 1040.625,
      "v": 109
    },
    {
      "midi": 61,
      "hit": false,
      "t": 67500,
      "d": 1046.875,
      "v": 125
    },
    {
      "midi": 45,
      "hit": false,
      "t": 68250,
      "d": 2993.75,
      "v": 117
    },
    {
      "midi": 52,
      "hit": false,
      "t": 68625,
      "d": 2425,
      "v": 109
    },
    {
      "midi": 61,
      "hit": false,
      "t": 69000,
      "d": 815.625,
      "v": 127
    },
    {
      "midi": 57,
      "hit": false,
      "t": 69000,
      "d": 2003.125,
      "v": 104
    },
    {
      "midi": 62,
      "hit": false,
      "t": 69750,
      "d": 846.875,
      "v": 125
    },
    {
      "midi": 61,
      "hit": false,
      "t": 70500,
      "d": 456.25,
      "v": 113
    },
    {
      "midi": 52,
      "hit": false,
      "t": 71250,
      "d": 1306.25,
      "v": 107
    },
    {
      "midi": 55,
      "hit": false,
      "t": 71250,
      "d": 1906.25,
      "v": 127
    },
    {
      "midi": 59,
      "hit": false,
      "t": 71250,
      "d": 2068.75,
      "v": 121
    },
    {
      "midi": 40,
      "hit": false,
      "t": 72000,
      "d": 1737.5,
      "v": 102
    },
    {
      "midi": 52,
      "hit": false,
      "t": 72750,
      "d": 456.25,
      "v": 80
    },
    {
      "midi": 52,
      "hit": false,
      "t": 73500,
      "d": 612.5,
      "v": 107
    },
    {
      "midi": 55,
      "hit": false,
      "t": 73500,
      "d": 821.875,
      "v": 117
    },
    {
      "midi": 59,
      "hit": false,
      "t": 73500,
      "d": 956.25,
      "v": 112
    },
    {
      "midi": 40,
      "hit": false,
      "t": 74250,
      "d": 3146.875,
      "v": 105
    },
    {
      "midi": 52,
      "hit": false,
      "t": 74625,
      "d": 453.125,
      "v": 84
    },
    {
      "midi": 62,
      "hit": false,
      "t": 75000,
      "d": 650,
      "v": 117
    },
    {
      "midi": 59,
      "hit": false,
      "t": 75000,
      "d": 968.75,
      "v": 125
    },
    {
      "midi": 55,
      "hit": false,
      "t": 75000,
      "d": 1346.875,
      "v": 121
    },
    {
      "midi": 61,
      "hit": false,
      "t": 75750,
      "d": 696.875,
      "v": 127
    },
    {
      "midi": 55,
      "hit": false,
      "t": 76500,
      "d": 453.125,
      "v": 88
    },
    {
      "midi": 59,
      "hit": false,
      "t": 76500,
      "d": 553.125,
      "v": 121
    },
    {
      "midi": 55,
      "hit": false,
      "t": 77250,
      "d": 2003.125,
      "v": 117
    },
    {
      "midi": 59,
      "hit": false,
      "t": 77250,
      "d": 2056.25,
      "v": 105
    },
    {
      "midi": 62,
      "hit": false,
      "t": 78000,
      "d": 1228.125,
      "v": 125
    },
    {
      "midi": 43,
      "hit": false,
      "t": 78000,
      "d": 1943.75,
      "v": 125
    },
    {
      "midi": 55,
      "hit": false,
      "t": 79500,
      "d": 846.875,
      "v": 114
    },
    {
      "midi": 62,
      "hit": false,
      "t": 79500,
      "d": 1087.5,
      "v": 114
    },
    {
      "midi": 59,
      "hit": false,
      "t": 79500,
      "d": 1306.25,
      "v": 112
    },
    {
      "midi": 43,
      "hit": false,
      "t": 80250,
      "d": 2556.25,
      "v": 121
    },
    {
      "midi": 55,
      "hit": false,
      "t": 80625,
      "d": 240.625,
      "v": 114
    },
    {
      "midi": 59,
      "hit": false,
      "t": 81000,
      "d": 581.25,
      "v": 109
    },
    {
      "midi": 62,
      "hit": false,
      "t": 81000,
      "d": 659.375,
      "v": 127
    },
    {
      "midi": 55,
      "hit": false,
      "t": 81000,
      "d": 2384.375,
      "v": 114
    },
    {
      "midi": 59,
      "hit": false,
      "t": 81750,
      "d": 562.5,
      "v": 74
    },
    {
      "midi": 61,
      "hit": false,
      "t": 81750,
      "d": 662.5,
      "v": 125
    },
    {
      "midi": 59,
      "hit": false,
      "t": 82500,
      "d": 953.125,
      "v": 109
    },
    {
      "midi": 54,
      "hit": false,
      "t": 84000,
      "d": 900,
      "v": 121
    },
    {
      "midi": 62,
      "hit": false,
      "t": 84000,
      "d": 1118.75,
      "v": 121
    },
    {
      "midi": 57,
      "hit": false,
      "t": 84000,
      "d": 1196.875,
      "v": 109
    },
    {
      "midi": 50,
      "hit": false,
      "t": 84000,
      "d": 1850,
      "v": 105
    },
    {
      "midi": 54,
      "hit": false,
      "t": 85500,
      "d": 768.75,
      "v": 113
    },
    {
      "midi": 62,
      "hit": false,
      "t": 85500,
      "d": 1140.625,
      "v": 109
    },
    {
      "midi": 57,
      "hit": false,
      "t": 85500,
      "d": 1206.25,
      "v": 98
    },
    {
      "midi": 50,
      "hit": false,
      "t": 86250,
      "d": 2593.75,
      "v": 99
    },
    {
      "midi": 54,
      "hit": false,
      "t": 86625,
      "d": 696.875,
      "v": 98
    },
    {
      "midi": 57,
      "hit": false,
      "t": 87375,
      "d": 275,
      "v": 115
    },
    {
      "midi": 62,
      "hit": false,
      "t": 87375,
      "d": 275,
      "v": 115
    },
    {
      "midi": 66,
      "hit": false,
      "t": 87375,
      "d": 275,
      "v": 115
    },
    {
      "midi": 57,
      "hit": false,
      "t": 87750,
      "d": 275,
      "v": 115
    },
    {
      "midi": 62,
      "hit": false,
      "t": 87750,
      "d": 275,
      "v": 115
    },
    {
      "midi": 66,
      "hit": false,
      "t": 87750,
      "d": 275,
      "v": 115
    },
    {
      "midi": 57,
      "hit": false,
      "t": 88125,
      "d": 275,
      "v": 109
    },
    {
      "midi": 62,
      "hit": false,
      "t": 88125,
      "d": 275,
      "v": 117
    },
    {
      "midi": 66,
      "hit": false,
      "t": 88125,
      "d": 275,
      "v": 125
    },
    {
      "midi": 57,
      "hit": false,
      "t": 88500,
      "d": 334.375,
      "v": 127
    },
    {
      "midi": 62,
      "hit": false,
      "t": 88500,
      "d": 334.375,
      "v": 127
    },
    {
      "midi": 66,
      "hit": false,
      "t": 88500,
      "d": 334.375,
      "v": 127
    },
    {
      "midi": 62,
      "hit": false,
      "t": 88875,
      "d": 906.25,
      "v": 109
    },
    {
      "midi": 57,
      "hit": false,
      "t": 88875,
      "d": 937.5,
      "v": 105
    },
    {
      "midi": 64,
      "hit": false,
      "t": 88875,
      "d": 940.625,
      "v": 127
    },
    {
      "midi": 61,
      "hit": false,
      "t": 90000,
      "d": 1031.25,
      "v": 125
    },
    {
      "midi": 57,
      "hit": false,
      "t": 90000,
      "d": 1228.125,
      "v": 114
    },
    {
      "midi": 52,
      "hit": false,
      "t": 90000,
      "d": 1234.375,
      "v": 121
    },
    {
      "midi": 45,
      "hit": false,
      "t": 90000,
      "d": 1734.375,
      "v": 121
    },
    {
      "midi": 52,
      "hit": false,
      "t": 91500,
      "d": 775,
      "v": 102
    },
    {
      "midi": 57,
      "hit": false,
      "t": 91500,
      "d": 1040.625,
      "v": 109
    },
    {
      "midi": 61,
      "hit": false,
      "t": 91500,
      "d": 1046.875,
      "v": 125
    },
    {
      "midi": 45,
      "hit": false,
      "t": 92250,
      "d": 2993.75,
      "v": 117
    },
    {
      "midi": 52,
      "hit": false,
      "t": 92625,
      "d": 2425,
      "v": 109
    },
    {
      "midi": 61,
      "hit": false,
      "t": 93000,
      "d": 815.625,
      "v": 127
    },
    {
      "midi": 57,
      "hit": false,
      "t": 93000,
      "d": 2003.125,
      "v": 104
    },
    {
      "midi": 62,
      "hit": false,
      "t": 93750,
      "d": 846.875,
      "v": 125
    },
    {
      "midi": 61,
      "hit": false,
      "t": 94500,
      "d": 456.25,
      "v": 113
    },
    {
      "midi": 52,
      "hit": false,
      "t": 95250,
      "d": 1306.25,
      "v": 107
    },
    {
      "midi": 55,
      "hit": false,
      "t": 95250,
      "d": 1906.25,
      "v": 127
    },
    {
      "midi": 59,
      "hit": false,
      "t": 95250,
      "d": 2068.75,
      "v": 121
    },
    {
      "midi": 40,
      "hit": false,
      "t": 96000,
      "d": 1737.5,
      "v": 102
    },
    {
      "midi": 52,
      "hit": false,
      "t": 96750,
      "d": 456.25,
      "v": 80
    },
    {
      "midi": 52,
      "hit": false,
      "t": 97500,
      "d": 612.5,
      "v": 107
    },
    {
      "midi": 55,
      "hit": false,
      "t": 97500,
      "d": 821.875,
      "v": 117
    },
    {
      "midi": 59,
      "hit": false,
      "t": 97500,
      "d": 956.25,
      "v": 112
    },
    {
      "midi": 40,
      "hit": false,
      "t": 98250,
      "d": 3146.875,
      "v": 105
    },
    {
      "midi": 52,
      "hit": false,
      "t": 98625,
      "d": 453.125,
      "v": 84
    },
    {
      "midi": 62,
      "hit": false,
      "t": 99000,
      "d": 650,
      "v": 117
    },
    {
      "midi": 59,
      "hit": false,
      "t": 99000,
      "d": 968.75,
      "v": 125
    },
    {
      "midi": 55,
      "hit": false,
      "t": 99000,
      "d": 1346.875,
      "v": 121
    },
    {
      "midi": 61,
      "hit": false,
      "t": 99750,
      "d": 696.875,
      "v": 127
    },
    {
      "midi": 55,
      "hit": false,
      "t": 100500,
      "d": 453.125,
      "v": 88
    },
    {
      "midi": 59,
      "hit": false,
      "t": 100500,
      "d": 553.125,
      "v": 121
    },
    {
      "midi": 55,
      "hit": false,
      "t": 101250,
      "d": 2003.125,
      "v": 117
    },
    {
      "midi": 59,
      "hit": false,
      "t": 101250,
      "d": 2056.25,
      "v": 105
    },
    {
      "midi": 62,
      "hit": false,
      "t": 102000,
      "d": 1228.125,
      "v": 125
    },
    {
      "midi": 43,
      "hit": false,
      "t": 102000,
      "d": 1943.75,
      "v": 125
    },
    {
      "midi": 55,
      "hit": false,
      "t": 103500,
      "d": 846.875,
      "v": 114
    },
    {
      "midi": 62,
      "hit": false,
      "t": 103500,
      "d": 1087.5,
      "v": 114
    },
    {
      "midi": 59,
      "hit": false,
      "t": 103500,
      "d": 1306.25,
      "v": 112
    },
    {
      "midi": 43,
      "hit": false,
      "t": 104250,
      "d": 2556.25,
      "v": 121
    },
    {
      "midi": 55,
      "hit": false,
      "t": 104625,
      "d": 240.625,
      "v": 114
    },
    {
      "midi": 59,
      "hit": false,
      "t": 105000,
      "d": 581.25,
      "v": 109
    },
    {
      "midi": 62,
      "hit": false,
      "t": 105000,
      "d": 659.375,
      "v": 127
    },
    {
      "midi": 55,
      "hit": false,
      "t": 105000,
      "d": 2384.375,
      "v": 114
    },
    {
      "midi": 59,
      "hit": false,
      "t": 105750,
      "d": 562.5,
      "v": 74
    },
    {
      "midi": 61,
      "hit": false,
      "t": 105750,
      "d": 662.5,
      "v": 125
    },
    {
      "midi": 59,
      "hit": false,
      "t": 106500,
      "d": 953.125,
      "v": 109
    },
    {
      "midi": 54,
      "hit": false,
      "t": 108000,
      "d": 900,
      "v": 121
    },
    {
      "midi": 62,
      "hit": false,
      "t": 108000,
      "d": 1118.75,
      "v": 121
    },
    {
      "midi": 57,
      "hit": false,
      "t": 108000,
      "d": 1196.875,
      "v": 109
    },
    {
      "midi": 50,
      "hit": false,
      "t": 108000,
      "d": 1850,
      "v": 105
    },
    {
      "midi": 54,
      "hit": false,
      "t": 109500,
      "d": 768.75,
      "v": 113
    },
    {
      "midi": 62,
      "hit": false,
      "t": 109500,
      "d": 1140.625,
      "v": 109
    },
    {
      "midi": 57,
      "hit": false,
      "t": 109500,
      "d": 1206.25,
      "v": 98
    },
    {
      "midi": 50,
      "hit": false,
      "t": 110250,
      "d": 2593.75,
      "v": 99
    },
    {
      "midi": 54,
      "hit": false,
      "t": 110625,
      "d": 696.875,
      "v": 98
    },
    {
      "midi": 57,
      "hit": false,
      "t": 111375,
      "d": 275,
      "v": 115
    },
    {
      "midi": 62,
      "hit": false,
      "t": 111375,
      "d": 275,
      "v": 115
    },
    {
      "midi": 66,
      "hit": false,
      "t": 111375,
      "d": 275,
      "v": 115
    },
    {
      "midi": 57,
      "hit": false,
      "t": 111750,
      "d": 275,
      "v": 115
    },
    {
      "midi": 62,
      "hit": false,
      "t": 111750,
      "d": 275,
      "v": 115
    },
    {
      "midi": 66,
      "hit": false,
      "t": 111750,
      "d": 275,
      "v": 115
    },
    {
      "midi": 57,
      "hit": false,
      "t": 112125,
      "d": 275,
      "v": 109
    },
    {
      "midi": 62,
      "hit": false,
      "t": 112125,
      "d": 275,
      "v": 117
    },
    {
      "midi": 66,
      "hit": false,
      "t": 112125,
      "d": 275,
      "v": 125
    },
    {
      "midi": 57,
      "hit": false,
      "t": 112500,
      "d": 334.375,
      "v": 127
    },
    {
      "midi": 62,
      "hit": false,
      "t": 112500,
      "d": 334.375,
      "v": 127
    },
    {
      "midi": 66,
      "hit": false,
      "t": 112500,
      "d": 334.375,
      "v": 127
    },
    {
      "midi": 62,
      "hit": false,
      "t": 112875,
      "d": 906.25,
      "v": 109
    },
    {
      "midi": 57,
      "hit": false,
      "t": 112875,
      "d": 937.5,
      "v": 105
    },
    {
      "midi": 64,
      "hit": false,
      "t": 112875,
      "d": 940.625,
      "v": 127
    },
    {
      "midi": 61,
      "hit": false,
      "t": 114000,
      "d": 1031.25,
      "v": 125
    },
    {
      "midi": 57,
      "hit": false,
      "t": 114000,
      "d": 1228.125,
      "v": 114
    },
    {
      "midi": 52,
      "hit": false,
      "t": 114000,
      "d": 1234.375,
      "v": 121
    },
    {
      "midi": 45,
      "hit": false,
      "t": 114000,
      "d": 1734.375,
      "v": 121
    },
    {
      "midi": 52,
      "hit": false,
      "t": 115500,
      "d": 775,
      "v": 102
    },
    {
      "midi": 57,
      "hit": false,
      "t": 115500,
      "d": 1040.625,
      "v": 109
    },
    {
      "midi": 61,
      "hit": false,
      "t": 115500,
      "d": 1046.875,
      "v": 125
    },
    {
      "midi": 45,
      "hit": false,
      "t": 116250,
      "d": 2993.75,
      "v": 117
    },
    {
      "midi": 52,
      "hit": false,
      "t": 116625,
      "d": 2425,
      "v": 109
    },
    {
      "midi": 61,
      "hit": false,
      "t": 117000,
      "d": 815.625,
      "v": 127
    },
    {
      "midi": 57,
      "hit": false,
      "t": 117000,
      "d": 2003.125,
      "v": 104
    },
    {
      "midi": 62,
      "hit": false,
      "t": 117750,
      "d": 846.875,
      "v": 125
    },
    {
      "midi": 61,
      "hit": false,
      "t": 118500,
      "d": 456.25,
      "v": 113
    },
    {
      "midi": 52,
      "hit": false,
      "t": 119250,
      "d": 1306.25,
      "v": 107
    },
    {
      "midi": 55,
      "hit": false,
      "t": 119250,
      "d": 1906.25,
      "v": 127
    },
    {
      "midi": 59,
      "hit": false,
      "t": 119250,
      "d": 2068.75,
      "v": 121
    },
    {
      "midi": 40,
      "hit": false,
      "t": 120000,
      "d": 1737.5,
      "v": 102
    },
    {
      "midi": 52,
      "hit": false,
      "t": 120750,
      "d": 456.25,
      "v": 80
    },
    {
      "midi": 52,
      "hit": false,
      "t": 121500,
      "d": 612.5,
      "v": 107
    },
    {
      "midi": 55,
      "hit": false,
      "t": 121500,
      "d": 821.875,
      "v": 117
    },
    {
      "midi": 59,
      "hit": false,
      "t": 121500,
      "d": 956.25,
      "v": 112
    },
    {
      "midi": 40,
      "hit": false,
      "t": 122250,
      "d": 3146.875,
      "v": 105
    },
    {
      "midi": 52,
      "hit": false,
      "t": 122625,
      "d": 453.125,
      "v": 84
    },
    {
      "midi": 62,
      "hit": false,
      "t": 123000,
      "d": 650,
      "v": 117
    },
    {
      "midi": 59,
      "hit": false,
      "t": 123000,
      "d": 968.75,
      "v": 125
    },
    {
      "midi": 55,
      "hit": false,
      "t": 123000,
      "d": 1346.875,
      "v": 121
    },
    {
      "midi": 61,
      "hit": false,
      "t": 123750,
      "d": 696.875,
      "v": 127
    },
    {
      "midi": 55,
      "hit": false,
      "t": 124500,
      "d": 453.125,
      "v": 88
    },
    {
      "midi": 59,
      "hit": false,
      "t": 124500,
      "d": 553.125,
      "v": 121
    },
    {
      "midi": 55,
      "hit": false,
      "t": 125250,
      "d": 2003.125,
      "v": 117
    },
    {
      "midi": 59,
      "hit": false,
      "t": 125250,
      "d": 2056.25,
      "v": 105
    },
    {
      "midi": 62,
      "hit": false,
      "t": 126000,
      "d": 1228.125,
      "v": 125
    },
    {
      "midi": 43,
      "hit": false,
      "t": 126000,
      "d": 1943.75,
      "v": 125
    },
    {
      "midi": 55,
      "hit": false,
      "t": 127500,
      "d": 846.875,
      "v": 114
    },
    {
      "midi": 62,
      "hit": false,
      "t": 127500,
      "d": 1087.5,
      "v": 114
    },
    {
      "midi": 59,
      "hit": false,
      "t": 127500,
      "d": 1306.25,
      "v": 112
    },
    {
      "midi": 43,
      "hit": false,
      "t": 128250,
      "d": 2556.25,
      "v": 121
    },
    {
      "midi": 55,
      "hit": false,
      "t": 128625,
      "d": 240.625,
      "v": 114
    },
    {
      "midi": 59,
      "hit": false,
      "t": 129000,
      "d": 581.25,
      "v": 109
    },
    {
      "midi": 62,
      "hit": false,
      "t": 129000,
      "d": 659.375,
      "v": 127
    },
    {
      "midi": 55,
      "hit": false,
      "t": 129000,
      "d": 2384.375,
      "v": 114
    },
    {
      "midi": 59,
      "hit": false,
      "t": 129750,
      "d": 562.5,
      "v": 74
    },
    {
      "midi": 61,
      "hit": false,
      "t": 129750,
      "d": 662.5,
      "v": 125
    },
    {
      "midi": 59,
      "hit": false,
      "t": 130500,
      "d": 953.125,
      "v": 109
    },
    {
      "midi": 54,
      "hit": false,
      "t": 132000,
      "d": 900,
      "v": 121
    },
    {
      "midi": 62,
      "hit": false,
      "t": 132000,
      "d": 1118.75,
      "v": 121
    },
    {
      "midi": 57,
      "hit": false,
      "t": 132000,
      "d": 1196.875,
      "v": 109
    },
    {
      "midi": 50,
      "hit": false,
      "t": 132000,
      "d": 1850,
      "v": 105
    },
    {
      "midi": 54,
      "hit": false,
      "t": 133500,
      "d": 768.75,
      "v": 113
    },
    {
      "midi": 62,
      "hit": false,
      "t": 133500,
      "d": 1140.625,
      "v": 109
    },
    {
      "midi": 57,
      "hit": false,
      "t": 133500,
      "d": 1206.25,
      "v": 98
    },
    {
      "midi": 50,
      "hit": false,
      "t": 134250,
      "d": 2593.75,
      "v": 99
    },
    {
      "midi": 54,
      "hit": false,
      "t": 134625,
      "d": 696.875,
      "v": 98
    },
    {
      "midi": 57,
      "hit": false,
      "t": 135375,
      "d": 275,
      "v": 115
    },
    {
      "midi": 62,
      "hit": false,
      "t": 135375,
      "d": 275,
      "v": 115
    },
    {
      "midi": 66,
      "hit": false,
      "t": 135375,
      "d": 275,
      "v": 115
    },
    {
      "midi": 57,
      "hit": false,
      "t": 135750,
      "d": 275,
      "v": 115
    },
    {
      "midi": 62,
      "hit": false,
      "t": 135750,
      "d": 275,
      "v": 115
    },
    {
      "midi": 66,
      "hit": false,
      "t": 135750,
      "d": 275,
      "v": 115
    },
    {
      "midi": 57,
      "hit": false,
      "t": 136125,
      "d": 275,
      "v": 109
    },
    {
      "midi": 62,
      "hit": false,
      "t": 136125,
      "d": 275,
      "v": 117
    },
    {
      "midi": 66,
      "hit": false,
      "t": 136125,
      "d": 275,
      "v": 125
    },
    {
      "midi": 57,
      "hit": false,
      "t": 136500,
      "d": 334.375,
      "v": 127
    },
    {
      "midi": 62,
      "hit": false,
      "t": 136500,
      "d": 334.375,
      "v": 127
    },
    {
      "midi": 66,
      "hit": false,
      "t": 136500,
      "d": 334.375,
      "v": 127
    },
    {
      "midi": 62,
      "hit": false,
      "t": 136875,
      "d": 906.25,
      "v": 109
    },
    {
      "midi": 57,
      "hit": false,
      "t": 136875,
      "d": 937.5,
      "v": 105
    },
    {
      "midi": 64,
      "hit": false,
      "t": 136875,
      "d": 940.625,
      "v": 127
    },
    {
      "midi": 64,
      "hit": false,
      "t": 138000,
      "d": 1003.125,
      "v": 107
    },
    {
      "midi": 61,
      "hit": false,
      "t": 138000,
      "d": 1031.25,
      "v": 121
    },
    {
      "midi": 69,
      "hit": false,
      "t": 138000,
      "d": 1084.375,
      "v": 114
    },
    {
      "midi": 45,
      "hit": false,
      "t": 138000,
      "d": 3396.875,
      "v": 107
    },
    {
      "midi": 52,
      "hit": false,
      "t": 138750,
      "d": 2600,
      "v": 98
    },
    {
      "midi": 64,
      "hit": false,
      "t": 139500,
      "d": 890.625,
      "v": 104
    },
    {
      "midi": 61,
      "hit": false,
      "t": 139500,
      "d": 1087.5,
      "v": 104
    },
    {
      "midi": 69,
      "hit": false,
      "t": 139500,
      "d": 1140.625,
      "v": 104
    },
    {
      "midi": 64,
      "hit": false,
      "t": 141000,
      "d": 987.5,
      "v": 97
    },
    {
      "midi": 61,
      "hit": false,
      "t": 141000,
      "d": 1009.375,
      "v": 97
    },
    {
      "midi": 69,
      "hit": false,
      "t": 141000,
      "d": 1009.375,
      "v": 97
    },
    {
      "midi": 45,
      "hit": false,
      "t": 141750,
      "d": 1900,
      "v": 117
    },
    {
      "midi": 52,
      "hit": false,
      "t": 141750,
      "d": 2000,
      "v": 107
    },
    {
      "midi": 69,
      "hit": false,
      "t": 142500,
      "d": 1006.25,
      "v": 127
    },
    {
      "midi": 61,
      "hit": false,
      "t": 142500,
      "d": 1034.375,
      "v": 127
    },
    {
      "midi": 64,
      "hit": false,
      "t": 142500,
      "d": 1162.5,
      "v": 127
    },
    {
      "midi": 59,
      "hit": false,
      "t": 142875,
      "d": 984.375,
      "v": 127
    },
    {
      "midi": 64,
      "hit": false,
      "t": 144000,
      "d": 1140.625,
      "v": 105
    },
    {
      "midi": 68,
      "hit": false,
      "t": 144000,
      "d": 1175,
      "v": 125
    },
    {
      "midi": 59,
      "hit": false,
      "t": 144000,
      "d": 1218.75,
      "v": 109
    },
    {
      "midi": 49,
      "hit": false,
      "t": 144000,
      "d": 1625,
      "v": 127
    },
    {
      "midi": 68,
      "hit": false,
      "t": 145500,
      "d": 1140.625,
      "v": 125
    },
    {
      "midi": 59,
      "hit": false,
      "t": 145500,
      "d": 1171.875,
      "v": 107
    },
    {
      "midi": 64,
      "hit": false,
      "t": 145500,
      "d": 1281.25,
      "v": 114
    },
    {
      "midi": 49,
      "hit": false,
      "t": 146250,
      "d": 3446.875,
      "v": 121
    },
    {
      "midi": 59,
      "hit": false,
      "t": 147000,
      "d": 275,
      "v": 90
    },
    {
      "midi": 64,
      "hit": false,
      "t": 147000,
      "d": 275,
      "v": 90
    },
    {
      "midi": 68,
      "hit": false,
      "t": 147000,
      "d": 275,
      "v": 90
    },
    {
      "midi": 59,
      "hit": false,
      "t": 147375,
      "d": 275,
      "v": 95
    },
    {
      "midi": 64,
      "hit": false,
      "t": 147375,
      "d": 275,
      "v": 96
    },
    {
      "midi": 68,
      "hit": false,
      "t": 147375,
      "d": 275,
      "v": 101
    },
    {
      "midi": 59,
      "hit": false,
      "t": 147750,
      "d": 275,
      "v": 117
    },
    {
      "midi": 64,
      "hit": false,
      "t": 147750,
      "d": 275,
      "v": 125
    },
    {
      "midi": 68,
      "hit": false,
      "t": 147750,
      "d": 275,
      "v": 127
    },
    {
      "midi": 59,
      "hit": false,
      "t": 148125,
      "d": 275,
      "v": 125
    },
    {
      "midi": 64,
      "hit": false,
      "t": 148125,
      "d": 275,
      "v": 125
    },
    {
      "midi": 68,
      "hit": false,
      "t": 148125,
      "d": 275,
      "v": 127
    },
    {
      "midi": 64,
      "hit": false,
      "t": 148500,
      "d": 281.25,
      "v": 127
    },
    {
      "midi": 68,
      "hit": false,
      "t": 148500,
      "d": 315.625,
      "v": 127
    },
    {
      "midi": 59,
      "hit": false,
      "t": 148500,
      "d": 1328.125,
      "v": 112
    },
    {
      "midi": 66,
      "hit": false,
      "t": 148875,
      "d": 915.625,
      "v": 127
    },
    {
      "midi": 64,
      "hit": false,
      "t": 148875,
      "d": 946.875,
      "v": 98
    },
    {
      "midi": 61,
      "hit": false,
      "t": 150000,
      "d": 915.625,
      "v": 111
    },
    {
      "midi": 66,
      "hit": false,
      "t": 150000,
      "d": 993.75,
      "v": 97
    },
    {
      "midi": 57,
      "hit": false,
      "t": 150000,
      "d": 1146.875,
      "v": 94
    },
    {
      "midi": 50,
      "hit": false,
      "t": 150000,
      "d": 1740.625,
      "v": 92
    },
    {
      "midi": 61,
      "hit": false,
      "t": 151500,
      "d": 734.375,
      "v": 111
    },
    {
      "midi": 66,
      "hit": false,
      "t": 151500,
      "d": 765.625,
      "v": 105
    },
    {
      "midi": 57,
      "hit": false,
      "t": 151500,
      "d": 768.75,
      "v": 97
    },
    {
      "midi": 50,
      "hit": false,
      "t": 152250,
      "d": 453.125,
      "v": 80
    },
    {
      "midi": 57,
      "hit": false,
      "t": 152625,
      "d": 1359.375,
      "v": 82
    },
    {
      "midi": 61,
      "hit": false,
      "t": 152625,
      "d": 1437.5,
      "v": 90
    },
    {
      "midi": 66,
      "hit": false,
      "t": 152625,
      "d": 1515.625,
      "v": 83
    },
    {
      "midi": 50,
      "hit": false,
      "t": 153000,
      "d": 750,
      "v": 89
    },
    {
      "midi": 50,
      "hit": false,
      "t": 153750,
      "d": 1021.875,
      "v": 52
    },
    {
      "midi": 57,
      "hit": false,
      "t": 154500,
      "d": 821.875,
      "v": 92
    },
    {
      "midi": 61,
      "hit": false,
      "t": 154500,
      "d": 828.125,
      "v": 111
    },
    {
      "midi": 66,
      "hit": false,
      "t": 154500,
      "d": 828.125,
      "v": 97
    },
    {
      "midi": 50,
      "hit": false,
      "t": 155250,
      "d": 534.375,
      "v": 92
    },
    {
      "midi": 61,
      "hit": false,
      "t": 155625,
      "d": 462.5,
      "v": 90
    },
    {
      "midi": 66,
      "hit": false,
      "t": 155625,
      "d": 634.375,
      "v": 86
    },
    {
      "midi": 57,
      "hit": false,
      "t": 155625,
      "d": 690.625,
      "v": 79
    },
    {
      "midi": 42,
      "hit": false,
      "t": 156000,
      "d": 1550,
      "v": 74
    },
    {
      "midi": 57,
      "hit": false,
      "t": 156750,
      "d": 428.125,
      "v": 57
    },
    {
      "midi": 61,
      "hit": false,
      "t": 156750,
      "d": 428.125,
      "v": 57
    },
    {
      "midi": 66,
      "hit": false,
      "t": 156750,
      "d": 428.125,
      "v": 57
    },
    {
      "midi": 57,
      "hit": false,
      "t": 157500,
      "d": 834.375,
      "v": 89
    },
    {
      "midi": 61,
      "hit": false,
      "t": 157500,
      "d": 853.125,
      "v": 105
    },
    {
      "midi": 66,
      "hit": false,
      "t": 157500,
      "d": 890.625,
      "v": 90
    },
    {
      "midi": 42,
      "hit": false,
      "t": 158250,
      "d": 525,
      "v": 90
    },
    {
      "midi": 57,
      "hit": false,
      "t": 158625,
      "d": 1500,
      "v": 77
    },
    {
      "midi": 61,
      "hit": false,
      "t": 158625,
      "d": 1500,
      "v": 77
    },
    {
      "midi": 66,
      "hit": false,
      "t": 158625,
      "d": 1500,
      "v": 73
    },
    {
      "midi": 42,
      "hit": false,
      "t": 159000,
      "d": 2878.125,
      "v": 90
    },
    {
      "midi": 73,
      "hit": false,
      "t": 159375,
      "d": 100,
      "v": 97
    },
    {
      "midi": 69,
      "hit": false,
      "t": 159375,
      "d": 103.125,
      "v": 92
    },
    {
      "midi": 78,
      "hit": false,
      "t": 159375,
      "d": 112.5,
      "v": 97
    },
    {
      "midi": 69,
      "hit": false,
      "t": 159750,
      "d": 100,
      "v": 92
    },
    {
      "midi": 73,
      "hit": false,
      "t": 159750,
      "d": 100,
      "v": 101
    },
    {
      "midi": 78,
      "hit": false,
      "t": 159750,
      "d": 100,
      "v": 105
    },
    {
      "midi": 73,
      "hit": false,
      "t": 160125,
      "d": 100,
      "v": 105
    },
    {
      "midi": 69,
      "hit": false,
      "t": 160125,
      "d": 103.125,
      "v": 87
    },
    {
      "midi": 78,
      "hit": false,
      "t": 160125,
      "d": 140.625,
      "v": 101
    },
    {
      "midi": 73,
      "hit": false,
      "t": 160500,
      "d": 112.5,
      "v": 111
    },
    {
      "midi": 69,
      "hit": false,
      "t": 160500,
      "d": 115.625,
      "v": 85
    },
    {
      "midi": 78,
      "hit": false,
      "t": 160500,
      "d": 118.75,
      "v": 101
    },
    {
      "midi": 69,
      "hit": false,
      "t": 160875,
      "d": 1125,
      "v": 89
    },
    {
      "midi": 73,
      "hit": false,
      "t": 160875,
      "d": 1125,
      "v": 105
    },
    {
      "midi": 78,
      "hit": false,
      "t": 160875,
      "d": 1125,
      "v": 101
    },
    {
      "midi": 64,
      "hit": false,
      "t": 162000,
      "d": 1003.125,
      "v": 107
    },
    {
      "midi": 61,
      "hit": false,
      "t": 162000,
      "d": 1031.25,
      "v": 121
    },
    {
      "midi": 69,
      "hit": false,
      "t": 162000,
      "d": 1084.375,
      "v": 114
    },
    {
      "midi": 45,
      "hit": false,
      "t": 162000,
      "d": 3396.875,
      "v": 107
    },
    {
      "midi": 52,
      "hit": false,
      "t": 162750,
      "d": 2600,
      "v": 98
    },
    {
      "midi": 64,
      "hit": false,
      "t": 163500,
      "d": 890.625,
      "v": 104
    },
    {
      "midi": 61,
      "hit": false,
      "t": 163500,
      "d": 1087.5,
      "v": 104
    },
    {
      "midi": 69,
      "hit": false,
      "t": 163500,
      "d": 1140.625,
      "v": 104
    },
    {
      "midi": 64,
      "hit": false,
      "t": 165000,
      "d": 987.5,
      "v": 97
    },
    {
      "midi": 61,
      "hit": false,
      "t": 165000,
      "d": 1009.375,
      "v": 97
    },
    {
      "midi": 69,
      "hit": false,
      "t": 165000,
      "d": 1009.375,
      "v": 97
    },
    {
      "midi": 45,
      "hit": false,
      "t": 165750,
      "d": 1900,
      "v": 117
    },
    {
      "midi": 52,
      "hit": false,
      "t": 165750,
      "d": 2000,
      "v": 107
    },
    {
      "midi": 69,
      "hit": false,
      "t": 166500,
      "d": 1006.25,
      "v": 127
    },
    {
      "midi": 61,
      "hit": false,
      "t": 166500,
      "d": 1034.375,
      "v": 127
    },
    {
      "midi": 64,
      "hit": false,
      "t": 166500,
      "d": 1162.5,
      "v": 127
    },
    {
      "midi": 59,
      "hit": false,
      "t": 166875,
      "d": 984.375,
      "v": 127
    },
    {
      "midi": 64,
      "hit": false,
      "t": 168000,
      "d": 1140.625,
      "v": 105
    },
    {
      "midi": 68,
      "hit": false,
      "t": 168000,
      "d": 1175,
      "v": 125
    },
    {
      "midi": 59,
      "hit": false,
      "t": 168000,
      "d": 1218.75,
      "v": 109
    },
    {
      "midi": 49,
      "hit": false,
      "t": 168000,
      "d": 1625,
      "v": 127
    },
    {
      "midi": 68,
      "hit": false,
      "t": 169500,
      "d": 1140.625,
      "v": 125
    },
    {
      "midi": 59,
      "hit": false,
      "t": 169500,
      "d": 1171.875,
      "v": 107
    },
    {
      "midi": 64,
      "hit": false,
      "t": 169500,
      "d": 1281.25,
      "v": 114
    },
    {
      "midi": 49,
      "hit": false,
      "t": 170250,
      "d": 3446.875,
      "v": 121
    },
    {
      "midi": 59,
      "hit": false,
      "t": 171000,
      "d": 275,
      "v": 90
    },
    {
      "midi": 64,
      "hit": false,
      "t": 171000,
      "d": 275,
      "v": 90
    },
    {
      "midi": 68,
      "hit": false,
      "t": 171000,
      "d": 275,
      "v": 90
    },
    {
      "midi": 59,
      "hit": false,
      "t": 171375,
      "d": 275,
      "v": 95
    },
    {
      "midi": 64,
      "hit": false,
      "t": 171375,
      "d": 275,
      "v": 96
    },
    {
      "midi": 68,
      "hit": false,
      "t": 171375,
      "d": 275,
      "v": 101
    },
    {
      "midi": 59,
      "hit": false,
      "t": 171750,
      "d": 275,
      "v": 117
    },
    {
      "midi": 64,
      "hit": false,
      "t": 171750,
      "d": 275,
      "v": 125
    },
    {
      "midi": 68,
      "hit": false,
      "t": 171750,
      "d": 275,
      "v": 127
    },
    {
      "midi": 59,
      "hit": false,
      "t": 172125,
      "d": 275,
      "v": 125
    },
    {
      "midi": 64,
      "hit": false,
      "t": 172125,
      "d": 275,
      "v": 125
    },
    {
      "midi": 68,
      "hit": false,
      "t": 172125,
      "d": 275,
      "v": 127
    },
    {
      "midi": 64,
      "hit": false,
      "t": 172500,
      "d": 281.25,
      "v": 127
    },
    {
      "midi": 68,
      "hit": false,
      "t": 172500,
      "d": 315.625,
      "v": 127
    },
    {
      "midi": 59,
      "hit": false,
      "t": 172500,
      "d": 1328.125,
      "v": 112
    },
    {
      "midi": 66,
      "hit": false,
      "t": 172875,
      "d": 915.625,
      "v": 127
    },
    {
      "midi": 64,
      "hit": false,
      "t": 172875,
      "d": 946.875,
      "v": 98
    },
    {
      "midi": 61,
      "hit": false,
      "t": 174000,
      "d": 915.625,
      "v": 111
    },
    {
      "midi": 66,
      "hit": false,
      "t": 174000,
      "d": 993.75,
      "v": 97
    },
    {
      "midi": 57,
      "hit": false,
      "t": 174000,
      "d": 1146.875,
      "v": 94
    },
    {
      "midi": 50,
      "hit": false,
      "t": 174000,
      "d": 1740.625,
      "v": 92
    },
    {
      "midi": 61,
      "hit": false,
      "t": 175500,
      "d": 734.375,
      "v": 111
    },
    {
      "midi": 66,
      "hit": false,
      "t": 175500,
      "d": 765.625,
      "v": 105
    },
    {
      "midi": 57,
      "hit": false,
      "t": 175500,
      "d": 768.75,
      "v": 97
    },
    {
      "midi": 50,
      "hit": false,
      "t": 176250,
      "d": 453.125,
      "v": 80
    },
    {
      "midi": 57,
      "hit": false,
      "t": 176625,
      "d": 1359.375,
      "v": 82
    },
    {
      "midi": 61,
      "hit": false,
      "t": 176625,
      "d": 1437.5,
      "v": 90
    },
    {
      "midi": 66,
      "hit": false,
      "t": 176625,
      "d": 1515.625,
      "v": 83
    },
    {
      "midi": 50,
      "hit": false,
      "t": 177000,
      "d": 750,
      "v": 89
    },
    {
      "midi": 50,
      "hit": false,
      "t": 177750,
      "d": 1021.875,
      "v": 52
    },
    {
      "midi": 57,
      "hit": false,
      "t": 178500,
      "d": 821.875,
      "v": 92
    },
    {
      "midi": 61,
      "hit": false,
      "t": 178500,
      "d": 828.125,
      "v": 111
    },
    {
      "midi": 66,
      "hit": false,
      "t": 178500,
      "d": 828.125,
      "v": 97
    },
    {
      "midi": 50,
      "hit": false,
      "t": 179250,
      "d": 534.375,
      "v": 92
    },
    {
      "midi": 61,
      "hit": false,
      "t": 179625,
      "d": 462.5,
      "v": 90
    },
    {
      "midi": 66,
      "hit": false,
      "t": 179625,
      "d": 634.375,
      "v": 86
    },
    {
      "midi": 57,
      "hit": false,
      "t": 179625,
      "d": 690.625,
      "v": 79
    },
    {
      "midi": 42,
      "hit": false,
      "t": 180000,
      "d": 1550,
      "v": 74
    },
    {
      "midi": 57,
      "hit": false,
      "t": 180750,
      "d": 428.125,
      "v": 57
    },
    {
      "midi": 61,
      "hit": false,
      "t": 180750,
      "d": 428.125,
      "v": 57
    },
    {
      "midi": 66,
      "hit": false,
      "t": 180750,
      "d": 428.125,
      "v": 57
    },
    {
      "midi": 57,
      "hit": false,
      "t": 181500,
      "d": 834.375,
      "v": 89
    },
    {
      "midi": 61,
      "hit": false,
      "t": 181500,
      "d": 853.125,
      "v": 105
    },
    {
      "midi": 66,
      "hit": false,
      "t": 181500,
      "d": 890.625,
      "v": 90
    },
    {
      "midi": 42,
      "hit": false,
      "t": 182250,
      "d": 525,
      "v": 90
    },
    {
      "midi": 57,
      "hit": false,
      "t": 182625,
      "d": 1500,
      "v": 77
    },
    {
      "midi": 61,
      "hit": false,
      "t": 182625,
      "d": 1500,
      "v": 77
    },
    {
      "midi": 66,
      "hit": false,
      "t": 182625,
      "d": 1500,
      "v": 73
    },
    {
      "midi": 42,
      "hit": false,
      "t": 183000,
      "d": 2878.125,
      "v": 90
    },
    {
      "midi": 73,
      "hit": false,
      "t": 183375,
      "d": 100,
      "v": 97
    },
    {
      "midi": 69,
      "hit": false,
      "t": 183375,
      "d": 103.125,
      "v": 92
    },
    {
      "midi": 78,
      "hit": false,
      "t": 183375,
      "d": 112.5,
      "v": 97
    },
    {
      "midi": 69,
      "hit": false,
      "t": 183750,
      "d": 100,
      "v": 92
    },
    {
      "midi": 73,
      "hit": false,
      "t": 183750,
      "d": 100,
      "v": 101
    },
    {
      "midi": 78,
      "hit": false,
      "t": 183750,
      "d": 100,
      "v": 105
    },
    {
      "midi": 73,
      "hit": false,
      "t": 184125,
      "d": 100,
      "v": 105
    },
    {
      "midi": 69,
      "hit": false,
      "t": 184125,
      "d": 103.125,
      "v": 87
    },
    {
      "midi": 78,
      "hit": false,
      "t": 184125,
      "d": 140.625,
      "v": 101
    },
    {
      "midi": 73,
      "hit": false,
      "t": 184500,
      "d": 112.5,
      "v": 111
    },
    {
      "midi": 69,
      "hit": false,
      "t": 184500,
      "d": 115.625,
      "v": 85
    },
    {
      "midi": 78,
      "hit": false,
      "t": 184500,
      "d": 118.75,
      "v": 101
    },
    {
      "midi": 69,
      "hit": false,
      "t": 184875,
      "d": 1125,
      "v": 89
    },
    {
      "midi": 73,
      "hit": false,
      "t": 184875,
      "d": 1125,
      "v": 105
    },
    {
      "midi": 78,
      "hit": false,
      "t": 184875,
      "d": 1125,
      "v": 101
    },
    {
      "midi": 64,
      "hit": false,
      "t": 186000,
      "d": 1003.125,
      "v": 107
    },
    {
      "midi": 61,
      "hit": false,
      "t": 186000,
      "d": 1031.25,
      "v": 121
    },
    {
      "midi": 69,
      "hit": false,
      "t": 186000,
      "d": 1084.375,
      "v": 114
    },
    {
      "midi": 45,
      "hit": false,
      "t": 186000,
      "d": 3396.875,
      "v": 107
    },
    {
      "midi": 52,
      "hit": false,
      "t": 186750,
      "d": 2600,
      "v": 98
    },
    {
      "midi": 64,
      "hit": false,
      "t": 187500,
      "d": 890.625,
      "v": 104
    },
    {
      "midi": 61,
      "hit": false,
      "t": 187500,
      "d": 1087.5,
      "v": 104
    },
    {
      "midi": 69,
      "hit": false,
      "t": 187500,
      "d": 1140.625,
      "v": 104
    },
    {
      "midi": 64,
      "hit": false,
      "t": 189000,
      "d": 987.5,
      "v": 97
    },
    {
      "midi": 61,
      "hit": false,
      "t": 189000,
      "d": 1009.375,
      "v": 97
    },
    {
      "midi": 69,
      "hit": false,
      "t": 189000,
      "d": 1009.375,
      "v": 97
    },
    {
      "midi": 45,
      "hit": false,
      "t": 189750,
      "d": 1900,
      "v": 117
    },
    {
      "midi": 52,
      "hit": false,
      "t": 189750,
      "d": 2000,
      "v": 107
    },
    {
      "midi": 69,
      "hit": false,
      "t": 190500,
      "d": 1006.25,
      "v": 127
    },
    {
      "midi": 61,
      "hit": false,
      "t": 190500,
      "d": 1034.375,
      "v": 127
    },
    {
      "midi": 64,
      "hit": false,
      "t": 190500,
      "d": 1162.5,
      "v": 127
    },
    {
      "midi": 59,
      "hit": false,
      "t": 190875,
      "d": 984.375,
      "v": 127
    },
    {
      "midi": 64,
      "hit": false,
      "t": 192000,
      "d": 1140.625,
      "v": 105
    },
    {
      "midi": 68,
      "hit": false,
      "t": 192000,
      "d": 1175,
      "v": 125
    },
    {
      "midi": 59,
      "hit": false,
      "t": 192000,
      "d": 1218.75,
      "v": 109
    },
    {
      "midi": 49,
      "hit": false,
      "t": 192000,
      "d": 1625,
      "v": 127
    },
    {
      "midi": 68,
      "hit": false,
      "t": 193500,
      "d": 1140.625,
      "v": 125
    },
    {
      "midi": 59,
      "hit": false,
      "t": 193500,
      "d": 1171.875,
      "v": 107
    },
    {
      "midi": 64,
      "hit": false,
      "t": 193500,
      "d": 1281.25,
      "v": 114
    },
    {
      "midi": 49,
      "hit": false,
      "t": 194250,
      "d": 3446.875,
      "v": 121
    },
    {
      "midi": 59,
      "hit": false,
      "t": 195000,
      "d": 275,
      "v": 90
    },
    {
      "midi": 64,
      "hit": false,
      "t": 195000,
      "d": 275,
      "v": 90
    },
    {
      "midi": 68,
      "hit": false,
      "t": 195000,
      "d": 275,
      "v": 90
    },
    {
      "midi": 59,
      "hit": false,
      "t": 195375,
      "d": 275,
      "v": 95
    },
    {
      "midi": 64,
      "hit": false,
      "t": 195375,
      "d": 275,
      "v": 96
    },
    {
      "midi": 68,
      "hit": false,
      "t": 195375,
      "d": 275,
      "v": 101
    },
    {
      "midi": 59,
      "hit": false,
      "t": 195750,
      "d": 275,
      "v": 117
    },
    {
      "midi": 64,
      "hit": false,
      "t": 195750,
      "d": 275,
      "v": 125
    },
    {
      "midi": 68,
      "hit": false,
      "t": 195750,
      "d": 275,
      "v": 127
    },
    {
      "midi": 59,
      "hit": false,
      "t": 196125,
      "d": 275,
      "v": 125
    },
    {
      "midi": 64,
      "hit": false,
      "t": 196125,
      "d": 275,
      "v": 125
    },
    {
      "midi": 68,
      "hit": false,
      "t": 196125,
      "d": 275,
      "v": 127
    },
    {
      "midi": 64,
      "hit": false,
      "t": 196500,
      "d": 281.25,
      "v": 127
    },
    {
      "midi": 68,
      "hit": false,
      "t": 196500,
      "d": 315.625,
      "v": 127
    },
    {
      "midi": 59,
      "hit": false,
      "t": 196500,
      "d": 1328.125,
      "v": 112
    },
    {
      "midi": 66,
      "hit": false,
      "t": 196875,
      "d": 915.625,
      "v": 127
    },
    {
      "midi": 64,
      "hit": false,
      "t": 196875,
      "d": 946.875,
      "v": 98
    },
    {
      "midi": 61,
      "hit": false,
      "t": 198000,
      "d": 915.625,
      "v": 111
    },
    {
      "midi": 66,
      "hit": false,
      "t": 198000,
      "d": 993.75,
      "v": 97
    },
    {
      "midi": 57,
      "hit": false,
      "t": 198000,
      "d": 1146.875,
      "v": 94
    },
    {
      "midi": 42,
      "hit": false,
      "t": 198000,
      "d": 1740.625,
      "v": 92
    },
    {
      "midi": 61,
      "hit": false,
      "t": 199500,
      "d": 734.375,
      "v": 111
    },
    {
      "midi": 66,
      "hit": false,
      "t": 199500,
      "d": 765.625,
      "v": 105
    },
    {
      "midi": 57,
      "hit": false,
      "t": 199500,
      "d": 768.75,
      "v": 97
    },
    {
      "midi": 42,
      "hit": false,
      "t": 200250,
      "d": 453.125,
      "v": 80
    },
    {
      "midi": 57,
      "hit": false,
      "t": 200625,
      "d": 1359.375,
      "v": 82
    },
    {
      "midi": 61,
      "hit": false,
      "t": 200625,
      "d": 1437.5,
      "v": 90
    },
    {
      "midi": 66,
      "hit": false,
      "t": 200625,
      "d": 1515.625,
      "v": 83
    },
    {
      "midi": 42,
      "hit": false,
      "t": 201000,
      "d": 671.875,
      "v": 89
    },
    {
      "midi": 42,
      "hit": false,
      "t": 201750,
      "d": 1021.875,
      "v": 52
    },
    {
      "midi": 57,
      "hit": false,
      "t": 202500,
      "d": 821.875,
      "v": 92
    },
    {
      "midi": 61,
      "hit": false,
      "t": 202500,
      "d": 828.125,
      "v": 111
    },
    {
      "midi": 66,
      "hit": false,
      "t": 202500,
      "d": 828.125,
      "v": 97
    },
    {
      "midi": 42,
      "hit": false,
      "t": 203250,
      "d": 534.375,
      "v": 92
    },
    {
      "midi": 61,
      "hit": false,
      "t": 203625,
      "d": 462.5,
      "v": 90
    },
    {
      "midi": 66,
      "hit": false,
      "t": 203625,
      "d": 634.375,
      "v": 86
    },
    {
      "midi": 57,
      "hit": false,
      "t": 203625,
      "d": 690.625,
      "v": 79
    },
    {
      "midi": 38,
      "hit": false,
      "t": 204000,
      "d": 1550,
      "v": 74
    },
    {
      "midi": 57,
      "hit": false,
      "t": 204750,
      "d": 428.125,
      "v": 57
    },
    {
      "midi": 62,
      "hit": false,
      "t": 204750,
      "d": 428.125,
      "v": 57
    },
    {
      "midi": 66,
      "hit": false,
      "t": 204750,
      "d": 428.125,
      "v": 57
    },
    {
      "midi": 57,
      "hit": false,
      "t": 205500,
      "d": 834.375,
      "v": 89
    },
    {
      "midi": 62,
      "hit": false,
      "t": 205500,
      "d": 853.125,
      "v": 105
    },
    {
      "midi": 66,
      "hit": false,
      "t": 205500,
      "d": 890.625,
      "v": 90
    },
    {
      "midi": 38,
      "hit": false,
      "t": 206250,
      "d": 525,
      "v": 90
    },
    {
      "midi": 57,
      "hit": false,
      "t": 206625,
      "d": 1500,
      "v": 77
    },
    {
      "midi": 62,
      "hit": false,
      "t": 206625,
      "d": 1500,
      "v": 77
    },
    {
      "midi": 66,
      "hit": false,
      "t": 206625,
      "d": 1500,
      "v": 73
    },
    {
      "midi": 38,
      "hit": false,
      "t": 207000,
      "d": 2878.125,
      "v": 90
    },
    {
      "midi": 74,
      "hit": false,
      "t": 207375,
      "d": 100,
      "v": 97
    },
    {
      "midi": 69,
      "hit": false,
      "t": 207375,
      "d": 103.125,
      "v": 92
    },
    {
      "midi": 78,
      "hit": false,
      "t": 207375,
      "d": 112.5,
      "v": 97
    },
    {
      "midi": 69,
      "hit": false,
      "t": 207750,
      "d": 100,
      "v": 92
    },
    {
      "midi": 74,
      "hit": false,
      "t": 207750,
      "d": 100,
      "v": 101
    },
    {
      "midi": 78,
      "hit": false,
      "t": 207750,
      "d": 100,
      "v": 105
    },
    {
      "midi": 74,
      "hit": false,
      "t": 208125,
      "d": 100,
      "v": 105
    },
    {
      "midi": 69,
      "hit": false,
      "t": 208125,
      "d": 103.125,
      "v": 87
    },
    {
      "midi": 78,
      "hit": false,
      "t": 208125,
      "d": 140.625,
      "v": 101
    },
    {
      "midi": 74,
      "hit": false,
      "t": 208500,
      "d": 112.5,
      "v": 111
    },
    {
      "midi": 69,
      "hit": false,
      "t": 208500,
      "d": 115.625,
      "v": 85
    },
    {
      "midi": 78,
      "hit": false,
      "t": 208500,
      "d": 118.75,
      "v": 101
    },
    {
      "midi": 69,
      "hit": false,
      "t": 208875,
      "d": 1125,
      "v": 89
    },
    {
      "midi": 74,
      "hit": false,
      "t": 208875,
      "d": 1125,
      "v": 105
    },
    {
      "midi": 78,
      "hit": false,
      "t": 208875,
      "d": 1125,
      "v": 101
    },
    {
      "midi": 64,
      "hit": false,
      "t": 210000,
      "d": 1003.125,
      "v": 107
    },
    {
      "midi": 61,
      "hit": false,
      "t": 210000,
      "d": 1031.25,
      "v": 121
    },
    {
      "midi": 69,
      "hit": false,
      "t": 210000,
      "d": 1084.375,
      "v": 114
    },
    {
      "midi": 45,
      "hit": false,
      "t": 210000,
      "d": 3396.875,
      "v": 107
    },
    {
      "midi": 52,
      "hit": false,
      "t": 210750,
      "d": 2600,
      "v": 98
    },
    {
      "midi": 64,
      "hit": false,
      "t": 211500,
      "d": 890.625,
      "v": 104
    },
    {
      "midi": 61,
      "hit": false,
      "t": 211500,
      "d": 1087.5,
      "v": 104
    },
    {
      "midi": 69,
      "hit": false,
      "t": 211500,
      "d": 1140.625,
      "v": 104
    },
    {
      "midi": 64,
      "hit": false,
      "t": 213000,
      "d": 987.5,
      "v": 97
    },
    {
      "midi": 61,
      "hit": false,
      "t": 213000,
      "d": 1009.375,
      "v": 97
    },
    {
      "midi": 69,
      "hit": false,
      "t": 213000,
      "d": 1009.375,
      "v": 97
    },
    {
      "midi": 45,
      "hit": false,
      "t": 213750,
      "d": 1900,
      "v": 117
    },
    {
      "midi": 52,
      "hit": false,
      "t": 213750,
      "d": 2000,
      "v": 107
    },
    {
      "midi": 69,
      "hit": false,
      "t": 214500,
      "d": 1006.25,
      "v": 127
    },
    {
      "midi": 61,
      "hit": false,
      "t": 214500,
      "d": 1034.375,
      "v": 127
    },
    {
      "midi": 64,
      "hit": false,
      "t": 214500,
      "d": 1162.5,
      "v": 127
    },
    {
      "midi": 59,
      "hit": false,
      "t": 214875,
      "d": 984.375,
      "v": 127
    },
    {
      "midi": 64,
      "hit": false,
      "t": 216000,
      "d": 1140.625,
      "v": 105
    },
    {
      "midi": 68,
      "hit": false,
      "t": 216000,
      "d": 1175,
      "v": 125
    },
    {
      "midi": 59,
      "hit": false,
      "t": 216000,
      "d": 1218.75,
      "v": 109
    },
    {
      "midi": 49,
      "hit": false,
      "t": 216000,
      "d": 1625,
      "v": 127
    },
    {
      "midi": 68,
      "hit": false,
      "t": 217500,
      "d": 1140.625,
      "v": 125
    },
    {
      "midi": 59,
      "hit": false,
      "t": 217500,
      "d": 1171.875,
      "v": 107
    },
    {
      "midi": 64,
      "hit": false,
      "t": 217500,
      "d": 1281.25,
      "v": 114
    },
    {
      "midi": 49,
      "hit": false,
      "t": 218250,
      "d": 3446.875,
      "v": 121
    },
    {
      "midi": 59,
      "hit": false,
      "t": 219000,
      "d": 275,
      "v": 90
    },
    {
      "midi": 64,
      "hit": false,
      "t": 219000,
      "d": 275,
      "v": 90
    },
    {
      "midi": 68,
      "hit": false,
      "t": 219000,
      "d": 275,
      "v": 90
    },
    {
      "midi": 59,
      "hit": false,
      "t": 219375,
      "d": 275,
      "v": 95
    },
    {
      "midi": 64,
      "hit": false,
      "t": 219375,
      "d": 275,
      "v": 96
    },
    {
      "midi": 68,
      "hit": false,
      "t": 219375,
      "d": 275,
      "v": 101
    },
    {
      "midi": 59,
      "hit": false,
      "t": 219750,
      "d": 275,
      "v": 117
    },
    {
      "midi": 64,
      "hit": false,
      "t": 219750,
      "d": 275,
      "v": 125
    },
    {
      "midi": 68,
      "hit": false,
      "t": 219750,
      "d": 275,
      "v": 127
    },
    {
      "midi": 59,
      "hit": false,
      "t": 220125,
      "d": 275,
      "v": 125
    },
    {
      "midi": 64,
      "hit": false,
      "t": 220125,
      "d": 275,
      "v": 125
    },
    {
      "midi": 68,
      "hit": false,
      "t": 220125,
      "d": 275,
      "v": 127
    },
    {
      "midi": 64,
      "hit": false,
      "t": 220500,
      "d": 281.25,
      "v": 127
    },
    {
      "midi": 68,
      "hit": false,
      "t": 220500,
      "d": 315.625,
      "v": 127
    },
    {
      "midi": 59,
      "hit": false,
      "t": 220500,
      "d": 1328.125,
      "v": 112
    },
    {
      "midi": 66,
      "hit": false,
      "t": 220875,
      "d": 915.625,
      "v": 127
    },
    {
      "midi": 64,
      "hit": false,
      "t": 220875,
      "d": 946.875,
      "v": 98
    },
    {
      "midi": 61,
      "hit": false,
      "t": 222000,
      "d": 915.625,
      "v": 111
    },
    {
      "midi": 66,
      "hit": false,
      "t": 222000,
      "d": 993.75,
      "v": 97
    },
    {
      "midi": 57,
      "hit": false,
      "t": 222000,
      "d": 1146.875,
      "v": 94
    },
    {
      "midi": 42,
      "hit": false,
      "t": 222000,
      "d": 1740.625,
      "v": 92
    },
    {
      "midi": 61,
      "hit": false,
      "t": 223500,
      "d": 734.375,
      "v": 111
    },
    {
      "midi": 66,
      "hit": false,
      "t": 223500,
      "d": 765.625,
      "v": 105
    },
    {
      "midi": 57,
      "hit": false,
      "t": 223500,
      "d": 768.75,
      "v": 97
    },
    {
      "midi": 42,
      "hit": false,
      "t": 224250,
      "d": 453.125,
      "v": 80
    },
    {
      "midi": 57,
      "hit": false,
      "t": 224625,
      "d": 1359.375,
      "v": 82
    },
    {
      "midi": 61,
      "hit": false,
      "t": 224625,
      "d": 1437.5,
      "v": 90
    },
    {
      "midi": 66,
      "hit": false,
      "t": 224625,
      "d": 1515.625,
      "v": 83
    },
    {
      "midi": 42,
      "hit": false,
      "t": 225000,
      "d": 671.875,
      "v": 89
    },
    {
      "midi": 42,
      "hit": false,
      "t": 225750,
      "d": 1021.875,
      "v": 52
    },
    {
      "midi": 57,
      "hit": false,
      "t": 226500,
      "d": 821.875,
      "v": 92
    },
    {
      "midi": 61,
      "hit": false,
      "t": 226500,
      "d": 828.125,
      "v": 111
    },
    {
      "midi": 66,
      "hit": false,
      "t": 226500,
      "d": 828.125,
      "v": 97
    },
    {
      "midi": 42,
      "hit": false,
      "t": 227250,
      "d": 534.375,
      "v": 92
    },
    {
      "midi": 61,
      "hit": false,
      "t": 227625,
      "d": 462.5,
      "v": 90
    },
    {
      "midi": 66,
      "hit": false,
      "t": 227625,
      "d": 634.375,
      "v": 86
    },
    {
      "midi": 57,
      "hit": false,
      "t": 227625,
      "d": 690.625,
      "v": 79
    },
    {
      "midi": 38,
      "hit": false,
      "t": 228000,
      "d": 1550,
      "v": 74
    },
    {
      "midi": 57,
      "hit": false,
      "t": 228750,
      "d": 428.125,
      "v": 57
    },
    {
      "midi": 62,
      "hit": false,
      "t": 228750,
      "d": 428.125,
      "v": 57
    },
    {
      "midi": 66,
      "hit": false,
      "t": 228750,
      "d": 428.125,
      "v": 57
    },
    {
      "midi": 57,
      "hit": false,
      "t": 229500,
      "d": 834.375,
      "v": 89
    },
    {
      "midi": 62,
      "hit": false,
      "t": 229500,
      "d": 853.125,
      "v": 105
    },
    {
      "midi": 66,
      "hit": false,
      "t": 229500,
      "d": 890.625,
      "v": 90
    },
    {
      "midi": 38,
      "hit": false,
      "t": 230250,
      "d": 525,
      "v": 90
    },
    {
      "midi": 57,
      "hit": false,
      "t": 230625,
      "d": 1500,
      "v": 77
    },
    {
      "midi": 62,
      "hit": false,
      "t": 230625,
      "d": 1500,
      "v": 77
    },
    {
      "midi": 66,
      "hit": false,
      "t": 230625,
      "d": 1500,
      "v": 73
    },
    {
      "midi": 38,
      "hit": false,
      "t": 231000,
      "d": 2878.125,
      "v": 90
    },
    {
      "midi": 74,
      "hit": false,
      "t": 231375,
      "d": 100,
      "v": 97
    },
    {
      "midi": 69,
      "hit": false,
      "t": 231375,
      "d": 103.125,
      "v": 92
    },
    {
      "midi": 78,
      "hit": false,
      "t": 231375,
      "d": 112.5,
      "v": 97
    },
    {
      "midi": 69,
      "hit": false,
      "t": 231750,
      "d": 100,
      "v": 92
    },
    {
      "midi": 74,
      "hit": false,
      "t": 231750,
      "d": 100,
      "v": 101
    },
    {
      "midi": 78,
      "hit": false,
      "t": 231750,
      "d": 100,
      "v": 105
    },
    {
      "midi": 74,
      "hit": false,
      "t": 232125,
      "d": 100,
      "v": 105
    },
    {
      "midi": 69,
      "hit": false,
      "t": 232125,
      "d": 103.125,
      "v": 87
    },
    {
      "midi": 78,
      "hit": false,
      "t": 232125,
      "d": 140.625,
      "v": 101
    },
    {
      "midi": 74,
      "hit": false,
      "t": 232500,
      "d": 112.5,
      "v": 111
    },
    {
      "midi": 69,
      "hit": false,
      "t": 232500,
      "d": 115.625,
      "v": 85
    },
    {
      "midi": 78,
      "hit": false,
      "t": 232500,
      "d": 118.75,
      "v": 101
    },
    {
      "midi": 69,
      "hit": false,
      "t": 232875,
      "d": 1125,
      "v": 89
    },
    {
      "midi": 74,
      "hit": false,
      "t": 232875,
      "d": 1125,
      "v": 105
    },
    {
      "midi": 78,
      "hit": false,
      "t": 232875,
      "d": 1125,
      "v": 101
    },
    {
      "midi": 61,
      "hit": false,
      "t": 234000,
      "d": 378.125,
      "v": 127
    },
    {
      "midi": 64,
      "hit": false,
      "t": 234000,
      "d": 406.25,
      "v": 127
    },
    {
      "midi": 69,
      "hit": false,
      "t": 234000,
      "d": 409.375,
      "v": 127
    },
    {
      "midi": 45,
      "hit": false,
      "t": 234000,
      "d": 440.625,
      "v": 127
    },
    {
      "midi": 68,
      "hit": false,
      "t": 235125,
      "d": 312.5,
      "v": 127
    },
    {
      "midi": 64,
      "hit": false,
      "t": 235125,
      "d": 315.625,
      "v": 127
    },
    {
      "midi": 44,
      "hit": false,
      "t": 235125,
      "d": 343.75,
      "v": 127
    },
    {
      "midi": 59,
      "hit": false,
      "t": 235125,
      "d": 346.875,
      "v": 127
    },
    {
      "midi": 38,
      "hit": false,
      "t": 236250,
      "d": 3750,
      "v": 127
    },
    {
      "midi": 57,
      "hit": false,
      "t": 236250,
      "d": 3750,
      "v": 127
    },
    {
      "midi": 61,
      "hit": false,
      "t": 236250,
      "d": 3750,
      "v": 127
    },
    {
      "midi": 66,
      "hit": false,
      "t": 236250,
      "d": 3750,
      "v": 127
    },
    {
      "midi": 61,
      "hit": false,
      "t": 240000,
      "d": 378.125,
      "v": 127
    },
    {
      "midi": 64,
      "hit": false,
      "t": 240000,
      "d": 406.25,
      "v": 127
    },
    {
      "midi": 69,
      "hit": false,
      "t": 240000,
      "d": 409.375,
      "v": 127
    },
    {
      "midi": 45,
      "hit": false,
      "t": 240000,
      "d": 440.625,
      "v": 127
    },
    {
      "midi": 68,
      "hit": false,
      "t": 241125,
      "d": 312.5,
      "v": 127
    },
    {
      "midi": 64,
      "hit": false,
      "t": 241125,
      "d": 315.625,
      "v": 127
    },
    {
      "midi": 44,
      "hit": false,
      "t": 241125,
      "d": 343.75,
      "v": 127
    },
    {
      "midi": 59,
      "hit": false,
      "t": 241125,
      "d": 346.875,
      "v": 127
    },
    {
      "midi": 38,
      "hit": false,
      "t": 242250,
      "d": 3750,
      "v": 127
    },
    {
      "midi": 57,
      "hit": false,
      "t": 242250,
      "d": 3750,
      "v": 127
    },
    {
      "midi": 61,
      "hit": false,
      "t": 242250,
      "d": 3750,
      "v": 127
    },
    {
      "midi": 66,
      "hit": false,
      "t": 242250,
      "d": 3750,
      "v": 127
    },
    {
      "midi": 61,
      "hit": false,
      "t": 246000,
      "d": 378.125,
      "v": 127
    },
    {
      "midi": 64,
      "hit": false,
      "t": 246000,
      "d": 406.25,
      "v": 127
    },
    {
      "midi": 69,
      "hit": false,
      "t": 246000,
      "d": 409.375,
      "v": 127
    },
    {
      "midi": 45,
      "hit": false,
      "t": 246000,
      "d": 440.625,
      "v": 127
    },
    {
      "midi": 68,
      "hit": false,
      "t": 247125,
      "d": 312.5,
      "v": 127
    },
    {
      "midi": 64,
      "hit": false,
      "t": 247125,
      "d": 315.625,
      "v": 127
    },
    {
      "midi": 44,
      "hit": false,
      "t": 247125,
      "d": 343.75,
      "v": 127
    },
    {
      "midi": 59,
      "hit": false,
      "t": 247125,
      "d": 346.875,
      "v": 127
    },
    {
      "midi": 38,
      "hit": false,
      "t": 248250,
      "d": 6750,
      "v": 127
    },
    {
      "midi": 57,
      "hit": false,
      "t": 248250,
      "d": 6750,
      "v": 127
    },
    {
      "midi": 61,
      "hit": false,
      "t": 248250,
      "d": 6750,
      "v": 127
    },
    {
      "midi": 66,
      "hit": false,
      "t": 248250,
      "d": 6750,
      "v": 127
    },
    {
      "midi": 73,
      "hit": false,
      "t": 255000,
      "d": 1031.25,
      "v": 127
    },
    {
      "midi": 57,
      "hit": false,
      "t": 255000,
      "d": 1228.125,
      "v": 114
    },
    {
      "midi": 64,
      "hit": false,
      "t": 255000,
      "d": 1234.375,
      "v": 121
    },
    {
      "midi": 45,
      "hit": false,
      "t": 255000,
      "d": 1734.375,
      "v": 121
    },
    {
      "midi": 64,
      "hit": false,
      "t": 256500,
      "d": 775,
      "v": 102
    },
    {
      "midi": 57,
      "hit": false,
      "t": 256500,
      "d": 1040.625,
      "v": 109
    },
    {
      "midi": 61,
      "hit": false,
      "t": 256500,
      "d": 1046.875,
      "v": 125
    },
    {
      "midi": 45,
      "hit": false,
      "t": 257250,
      "d": 2993.75,
      "v": 117
    },
    {
      "midi": 52,
      "hit": false,
      "t": 257625,
      "d": 2425,
      "v": 109
    },
    {
      "midi": 73,
      "hit": false,
      "t": 258000,
      "d": 815.625,
      "v": 127
    },
    {
      "midi": 57,
      "hit": false,
      "t": 258000,
      "d": 2003.125,
      "v": 104
    },
    {
      "midi": 74,
      "hit": false,
      "t": 258750,
      "d": 846.875,
      "v": 127
    },
    {
      "midi": 73,
      "hit": false,
      "t": 259500,
      "d": 456.25,
      "v": 127
    },
    {
      "midi": 52,
      "hit": false,
      "t": 260250,
      "d": 1306.25,
      "v": 107
    },
    {
      "midi": 55,
      "hit": false,
      "t": 260250,
      "d": 1906.25,
      "v": 127
    },
    {
      "midi": 71,
      "hit": false,
      "t": 260250,
      "d": 2068.75,
      "v": 127
    },
    {
      "midi": 40,
      "hit": false,
      "t": 261000,
      "d": 1737.5,
      "v": 102
    },
    {
      "midi": 52,
      "hit": false,
      "t": 261750,
      "d": 456.25,
      "v": 80
    },
    {
      "midi": 52,
      "hit": false,
      "t": 262500,
      "d": 612.5,
      "v": 107
    },
    {
      "midi": 67,
      "hit": false,
      "t": 262500,
      "d": 821.875,
      "v": 117
    },
    {
      "midi": 59,
      "hit": false,
      "t": 262500,
      "d": 956.25,
      "v": 112
    },
    {
      "midi": 40,
      "hit": false,
      "t": 263250,
      "d": 3146.875,
      "v": 105
    },
    {
      "midi": 52,
      "hit": false,
      "t": 263625,
      "d": 453.125,
      "v": 84
    },
    {
      "midi": 74,
      "hit": false,
      "t": 264000,
      "d": 650,
      "v": 127
    },
    {
      "midi": 59,
      "hit": false,
      "t": 264000,
      "d": 968.75,
      "v": 125
    },
    {
      "midi": 67,
      "hit": false,
      "t": 264000,
      "d": 1346.875,
      "v": 121
    },
    {
      "midi": 73,
      "hit": false,
      "t": 264750,
      "d": 696.875,
      "v": 127
    },
    {
      "midi": 67,
      "hit": false,
      "t": 265500,
      "d": 453.125,
      "v": 88
    },
    {
      "midi": 71,
      "hit": false,
      "t": 265500,
      "d": 553.125,
      "v": 127
    },
    {
      "midi": 67,
      "hit": false,
      "t": 266250,
      "d": 2003.125,
      "v": 127
    },
    {
      "midi": 55,
      "hit": false,
      "t": 267000,
      "d": 1125,
      "v": 105
    },
    {
      "midi": 59,
      "hit": false,
      "t": 267000,
      "d": 1125,
      "v": 105
    },
    {
      "midi": 62,
      "hit": false,
      "t": 267000,
      "d": 1228.125,
      "v": 125
    },
    {
      "midi": 43,
      "hit": false,
      "t": 267000,
      "d": 1943.75,
      "v": 125
    },
    {
      "midi": 55,
      "hit": false,
      "t": 268500,
      "d": 846.875,
      "v": 114
    },
    {
      "midi": 62,
      "hit": false,
      "t": 268500,
      "d": 1087.5,
      "v": 114
    },
    {
      "midi": 59,
      "hit": false,
      "t": 268500,
      "d": 1306.25,
      "v": 112
    },
    {
      "midi": 43,
      "hit": false,
      "t": 269250,
      "d": 2556.25,
      "v": 121
    },
    {
      "midi": 55,
      "hit": false,
      "t": 269625,
      "d": 240.625,
      "v": 114
    },
    {
      "midi": 59,
      "hit": false,
      "t": 270000,
      "d": 581.25,
      "v": 109
    },
    {
      "midi": 74,
      "hit": false,
      "t": 270000,
      "d": 659.375,
      "v": 127
    },
    {
      "midi": 55,
      "hit": false,
      "t": 270000,
      "d": 2384.375,
      "v": 114
    },
    {
      "midi": 59,
      "hit": false,
      "t": 270750,
      "d": 562.5,
      "v": 74
    },
    {
      "midi": 73,
      "hit": false,
      "t": 270750,
      "d": 662.5,
      "v": 127
    },
    {
      "midi": 71,
      "hit": false,
      "t": 271500,
      "d": 750,
      "v": 127
    },
    {
      "midi": 69,
      "hit": false,
      "t": 272250,
      "d": 1196.875,
      "v": 127
    },
    {
      "midi": 54,
      "hit": false,
      "t": 273000,
      "d": 900,
      "v": 121
    },
    {
      "midi": 62,
      "hit": false,
      "t": 273000,
      "d": 1118.75,
      "v": 121
    },
    {
      "midi": 50,
      "hit": false,
      "t": 273000,
      "d": 1850,
      "v": 105
    },
    {
      "midi": 54,
      "hit": false,
      "t": 274500,
      "d": 768.75,
      "v": 113
    },
    {
      "midi": 62,
      "hit": false,
      "t": 274500,
      "d": 1140.625,
      "v": 109
    },
    {
      "midi": 57,
      "hit": false,
      "t": 274500,
      "d": 1206.25,
      "v": 98
    },
    {
      "midi": 77,
      "hit": false,
      "t": 275250,
      "d": 196.875,
      "v": 115
    },
    {
      "midi": 69,
      "hit": false,
      "t": 275250,
      "d": 750,
      "v": 115
    },
    {
      "midi": 74,
      "hit": false,
      "t": 275250,
      "d": 750,
      "v": 115
    },
    {
      "midi": 50,
      "hit": false,
      "t": 275250,
      "d": 2593.75,
      "v": 99
    },
    {
      "midi": 78,
      "hit": false,
      "t": 275365.625,
      "d": 634.375,
      "v": 115
    },
    {
      "midi": 54,
      "hit": false,
      "t": 275625,
      "d": 696.875,
      "v": 98
    },
    {
      "midi": 69,
      "hit": false,
      "t": 276375,
      "d": 275,
      "v": 98
    },
    {
      "midi": 74,
      "hit": false,
      "t": 276375,
      "d": 275,
      "v": 98
    },
    {
      "midi": 78,
      "hit": false,
      "t": 276375,
      "d": 275,
      "v": 98
    },
    {
      "midi": 69,
      "hit": false,
      "t": 276750,
      "d": 275,
      "v": 115
    },
    {
      "midi": 74,
      "hit": false,
      "t": 276750,
      "d": 275,
      "v": 115
    },
    {
      "midi": 78,
      "hit": false,
      "t": 276750,
      "d": 275,
      "v": 115
    },
    {
      "midi": 69,
      "hit": false,
      "t": 277125,
      "d": 275,
      "v": 109
    },
    {
      "midi": 74,
      "hit": false,
      "t": 277125,
      "d": 275,
      "v": 117
    },
    {
      "midi": 78,
      "hit": false,
      "t": 277125,
      "d": 275,
      "v": 125
    },
    {
      "midi": 69,
      "hit": false,
      "t": 277500,
      "d": 334.375,
      "v": 127
    },
    {
      "midi": 74,
      "hit": false,
      "t": 277500,
      "d": 334.375,
      "v": 127
    },
    {
      "midi": 78,
      "hit": false,
      "t": 277500,
      "d": 334.375,
      "v": 127
    },
    {
      "midi": 76,
      "hit": false,
      "t": 277875,
      "d": 375,
      "v": 127
    },
    {
      "midi": 62,
      "hit": false,
      "t": 277875,
      "d": 906.25,
      "v": 109
    },
    {
      "midi": 69,
      "hit": false,
      "t": 277875,
      "d": 937.5,
      "v": 105
    },
    {
      "midi": 74,
      "hit": false,
      "t": 278250,
      "d": 750,
      "v": 98
    },
    {
      "midi": 71,
      "hit": false,
      "t": 278625,
      "d": 375,
      "v": 118
    },
    {
      "midi": 73,
      "hit": false,
      "t": 279000,
      "d": 1031.25,
      "v": 127
    },
    {
      "midi": 57,
      "hit": false,
      "t": 279000,
      "d": 1228.125,
      "v": 114
    },
    {
      "midi": 64,
      "hit": false,
      "t": 279000,
      "d": 1234.375,
      "v": 121
    },
    {
      "midi": 45,
      "hit": false,
      "t": 279000,
      "d": 1734.375,
      "v": 121
    },
    {
      "midi": 64,
      "hit": false,
      "t": 280500,
      "d": 775,
      "v": 102
    },
    {
      "midi": 57,
      "hit": false,
      "t": 280500,
      "d": 1040.625,
      "v": 109
    },
    {
      "midi": 61,
      "hit": false,
      "t": 280500,
      "d": 1046.875,
      "v": 125
    },
    {
      "midi": 45,
      "hit": false,
      "t": 281250,
      "d": 2993.75,
      "v": 117
    },
    {
      "midi": 52,
      "hit": false,
      "t": 281625,
      "d": 2425,
      "v": 109
    },
    {
      "midi": 73,
      "hit": false,
      "t": 282000,
      "d": 815.625,
      "v": 127
    },
    {
      "midi": 57,
      "hit": false,
      "t": 282000,
      "d": 2003.125,
      "v": 104
    },
    {
      "midi": 74,
      "hit": false,
      "t": 282750,
      "d": 846.875,
      "v": 127
    },
    {
      "midi": 73,
      "hit": false,
      "t": 283500,
      "d": 456.25,
      "v": 127
    },
    {
      "midi": 52,
      "hit": false,
      "t": 284250,
      "d": 1306.25,
      "v": 107
    },
    {
      "midi": 55,
      "hit": false,
      "t": 284250,
      "d": 1906.25,
      "v": 127
    },
    {
      "midi": 71,
      "hit": false,
      "t": 284250,
      "d": 2068.75,
      "v": 127
    },
    {
      "midi": 40,
      "hit": false,
      "t": 285000,
      "d": 1737.5,
      "v": 102
    },
    {
      "midi": 52,
      "hit": false,
      "t": 285750,
      "d": 456.25,
      "v": 80
    },
    {
      "midi": 52,
      "hit": false,
      "t": 286500,
      "d": 612.5,
      "v": 107
    },
    {
      "midi": 67,
      "hit": false,
      "t": 286500,
      "d": 821.875,
      "v": 117
    },
    {
      "midi": 59,
      "hit": false,
      "t": 286500,
      "d": 956.25,
      "v": 112
    },
    {
      "midi": 40,
      "hit": false,
      "t": 287250,
      "d": 3146.875,
      "v": 105
    },
    {
      "midi": 52,
      "hit": false,
      "t": 287625,
      "d": 453.125,
      "v": 84
    },
    {
      "midi": 74,
      "hit": false,
      "t": 288000,
      "d": 650,
      "v": 127
    },
    {
      "midi": 59,
      "hit": false,
      "t": 288000,
      "d": 968.75,
      "v": 125
    },
    {
      "midi": 67,
      "hit": false,
      "t": 288000,
      "d": 1346.875,
      "v": 121
    },
    {
      "midi": 73,
      "hit": false,
      "t": 288750,
      "d": 696.875,
      "v": 127
    },
    {
      "midi": 67,
      "hit": false,
      "t": 289500,
      "d": 453.125,
      "v": 88
    },
    {
      "midi": 71,
      "hit": false,
      "t": 289500,
      "d": 553.125,
      "v": 127
    },
    {
      "midi": 67,
      "hit": false,
      "t": 290250,
      "d": 2003.125,
      "v": 127
    },
    {
      "midi": 55,
      "hit": false,
      "t": 291000,
      "d": 1125,
      "v": 105
    },
    {
      "midi": 59,
      "hit": false,
      "t": 291000,
      "d": 1125,
      "v": 105
    },
    {
      "midi": 62,
      "hit": false,
      "t": 291000,
      "d": 1228.125,
      "v": 125
    },
    {
      "midi": 43,
      "hit": false,
      "t": 291000,
      "d": 1943.75,
      "v": 125
    },
    {
      "midi": 55,
      "hit": false,
      "t": 292500,
      "d": 846.875,
      "v": 114
    },
    {
      "midi": 62,
      "hit": false,
      "t": 292500,
      "d": 1087.5,
      "v": 114
    },
    {
      "midi": 59,
      "hit": false,
      "t": 292500,
      "d": 1306.25,
      "v": 112
    },
    {
      "midi": 43,
      "hit": false,
      "t": 293250,
      "d": 2556.25,
      "v": 121
    },
    {
      "midi": 55,
      "hit": false,
      "t": 293625,
      "d": 240.625,
      "v": 114
    },
    {
      "midi": 59,
      "hit": false,
      "t": 294000,
      "d": 581.25,
      "v": 109
    },
    {
      "midi": 74,
      "hit": false,
      "t": 294000,
      "d": 659.375,
      "v": 127
    },
    {
      "midi": 55,
      "hit": false,
      "t": 294000,
      "d": 2384.375,
      "v": 114
    },
    {
      "midi": 59,
      "hit": false,
      "t": 294750,
      "d": 562.5,
      "v": 74
    },
    {
      "midi": 73,
      "hit": false,
      "t": 294750,
      "d": 662.5,
      "v": 127
    },
    {
      "midi": 71,
      "hit": false,
      "t": 295500,
      "d": 750,
      "v": 127
    },
    {
      "midi": 69,
      "hit": false,
      "t": 296250,
      "d": 1196.875,
      "v": 127
    },
    {
      "midi": 54,
      "hit": false,
      "t": 297000,
      "d": 900,
      "v": 121
    },
    {
      "midi": 62,
      "hit": false,
      "t": 297000,
      "d": 1118.75,
      "v": 121
    },
    {
      "midi": 50,
      "hit": false,
      "t": 297000,
      "d": 1850,
      "v": 105
    },
    {
      "midi": 54,
      "hit": false,
      "t": 298500,
      "d": 768.75,
      "v": 113
    },
    {
      "midi": 62,
      "hit": false,
      "t": 298500,
      "d": 1140.625,
      "v": 109
    },
    {
      "midi": 57,
      "hit": false,
      "t": 298500,
      "d": 1206.25,
      "v": 98
    },
    {
      "midi": 69,
      "hit": false,
      "t": 298875,
      "d": 275,
      "v": 98
    },
    {
      "midi": 74,
      "hit": false,
      "t": 298875,
      "d": 275,
      "v": 98
    },
    {
      "midi": 78,
      "hit": false,
      "t": 298875,
      "d": 275,
      "v": 98
    },
    {
      "midi": 69,
      "hit": false,
      "t": 299250,
      "d": 275,
      "v": 115
    },
    {
      "midi": 74,
      "hit": false,
      "t": 299250,
      "d": 275,
      "v": 115
    },
    {
      "midi": 78,
      "hit": false,
      "t": 299250,
      "d": 275,
      "v": 115
    },
    {
      "midi": 50,
      "hit": false,
      "t": 299250,
      "d": 2593.75,
      "v": 99
    },
    {
      "midi": 69,
      "hit": false,
      "t": 299625,
      "d": 275,
      "v": 109
    },
    {
      "midi": 74,
      "hit": false,
      "t": 299625,
      "d": 275,
      "v": 117
    },
    {
      "midi": 78,
      "hit": false,
      "t": 299625,
      "d": 275,
      "v": 125
    },
    {
      "midi": 54,
      "hit": false,
      "t": 299625,
      "d": 696.875,
      "v": 98
    },
    {
      "midi": 69,
      "hit": false,
      "t": 300000,
      "d": 334.375,
      "v": 127
    },
    {
      "midi": 74,
      "hit": false,
      "t": 300000,
      "d": 334.375,
      "v": 127
    },
    {
      "midi": 78,
      "hit": false,
      "t": 300000,
      "d": 334.375,
      "v": 127
    },
    {
      "midi": 76,
      "hit": false,
      "t": 300375,
      "d": 375,
      "v": 127
    },
    {
      "midi": 69,
      "hit": false,
      "t": 300375,
      "d": 937.5,
      "v": 105
    },
    {
      "midi": 74,
      "hit": false,
      "t": 300750,
      "d": 750,
      "v": 127
    },
    {
      "midi": 57,
      "hit": false,
      "t": 301500,
      "d": 334.375,
      "v": 127
    },
    {
      "midi": 62,
      "hit": false,
      "t": 301500,
      "d": 334.375,
      "v": 127
    },
    {
      "midi": 66,
      "hit": false,
      "t": 301500,
      "d": 334.375,
      "v": 127
    },
    {
      "midi": 64,
      "hit": false,
      "t": 301875,
      "d": 375,
      "v": 127
    },
    {
      "midi": 57,
      "hit": false,
      "t": 301875,
      "d": 937.5,
      "v": 127
    },
    {
      "midi": 62,
      "hit": false,
      "t": 302250,
      "d": 375,
      "v": 127
    },
    {
      "midi": 59,
      "hit": false,
      "t": 302625,
      "d": 375,
      "v": 127
    },
    {
      "midi": 61,
      "hit": false,
      "t": 303000,
      "d": 1031.25,
      "v": 125
    },
    {
      "midi": 57,
      "hit": false,
      "t": 303000,
      "d": 1228.125,
      "v": 114
    },
    {
      "midi": 52,
      "hit": false,
      "t": 303000,
      "d": 1234.375,
      "v": 121
    },
    {
      "midi": 45,
      "hit": false,
      "t": 303000,
      "d": 1734.375,
      "v": 121
    },
    {
      "midi": 52,
      "hit": false,
      "t": 304500,
      "d": 775,
      "v": 102
    },
    {
      "midi": 57,
      "hit": false,
      "t": 304500,
      "d": 1040.625,
      "v": 109
    },
    {
      "midi": 61,
      "hit": false,
      "t": 304500,
      "d": 1046.875,
      "v": 125
    },
    {
      "midi": 45,
      "hit": false,
      "t": 305250,
      "d": 2993.75,
      "v": 117
    },
    {
      "midi": 52,
      "hit": false,
      "t": 305625,
      "d": 2425,
      "v": 109
    },
    {
      "midi": 61,
      "hit": false,
      "t": 306000,
      "d": 815.625,
      "v": 127
    },
    {
      "midi": 57,
      "hit": false,
      "t": 306000,
      "d": 2003.125,
      "v": 104
    },
    {
      "midi": 62,
      "hit": false,
      "t": 306750,
      "d": 846.875,
      "v": 125
    },
    {
      "midi": 61,
      "hit": false,
      "t": 307500,
      "d": 456.25,
      "v": 113
    },
    {
      "midi": 52,
      "hit": false,
      "t": 308250,
      "d": 1306.25,
      "v": 107
    },
    {
      "midi": 55,
      "hit": false,
      "t": 308250,
      "d": 1906.25,
      "v": 127
    },
    {
      "midi": 59,
      "hit": false,
      "t": 308250,
      "d": 2068.75,
      "v": 121
    },
    {
      "midi": 40,
      "hit": false,
      "t": 309000,
      "d": 1737.5,
      "v": 102
    },
    {
      "midi": 52,
      "hit": false,
      "t": 309750,
      "d": 456.25,
      "v": 80
    },
    {
      "midi": 52,
      "hit": false,
      "t": 310500,
      "d": 612.5,
      "v": 107
    },
    {
      "midi": 55,
      "hit": false,
      "t": 310500,
      "d": 821.875,
      "v": 117
    },
    {
      "midi": 59,
      "hit": false,
      "t": 310500,
      "d": 956.25,
      "v": 112
    },
    {
      "midi": 40,
      "hit": false,
      "t": 311250,
      "d": 3146.875,
      "v": 105
    },
    {
      "midi": 52,
      "hit": false,
      "t": 311625,
      "d": 453.125,
      "v": 84
    },
    {
      "midi": 62,
      "hit": false,
      "t": 312000,
      "d": 650,
      "v": 117
    },
    {
      "midi": 59,
      "hit": false,
      "t": 312000,
      "d": 968.75,
      "v": 125
    },
    {
      "midi": 55,
      "hit": false,
      "t": 312000,
      "d": 1346.875,
      "v": 121
    },
    {
      "midi": 61,
      "hit": false,
      "t": 312750,
      "d": 696.875,
      "v": 127
    },
    {
      "midi": 55,
      "hit": false,
      "t": 313500,
      "d": 453.125,
      "v": 88
    },
    {
      "midi": 59,
      "hit": false,
      "t": 313500,
      "d": 553.125,
      "v": 121
    },
    {
      "midi": 55,
      "hit": false,
      "t": 314250,
      "d": 2003.125,
      "v": 117
    },
    {
      "midi": 59,
      "hit": false,
      "t": 314250,
      "d": 2056.25,
      "v": 105
    },
    {
      "midi": 62,
      "hit": false,
      "t": 315000,
      "d": 1228.125,
      "v": 125
    },
    {
      "midi": 43,
      "hit": false,
      "t": 315000,
      "d": 1943.75,
      "v": 125
    },
    {
      "midi": 55,
      "hit": false,
      "t": 316500,
      "d": 846.875,
      "v": 114
    },
    {
      "midi": 62,
      "hit": false,
      "t": 316500,
      "d": 1087.5,
      "v": 114
    },
    {
      "midi": 59,
      "hit": false,
      "t": 316500,
      "d": 1306.25,
      "v": 112
    },
    {
      "midi": 43,
      "hit": false,
      "t": 317250,
      "d": 2556.25,
      "v": 121
    },
    {
      "midi": 55,
      "hit": false,
      "t": 317625,
      "d": 240.625,
      "v": 114
    },
    {
      "midi": 59,
      "hit": false,
      "t": 318000,
      "d": 581.25,
      "v": 109
    },
    {
      "midi": 62,
      "hit": false,
      "t": 318000,
      "d": 659.375,
      "v": 127
    },
    {
      "midi": 55,
      "hit": false,
      "t": 318000,
      "d": 2384.375,
      "v": 114
    },
    {
      "midi": 59,
      "hit": false,
      "t": 318750,
      "d": 562.5,
      "v": 74
    },
    {
      "midi": 61,
      "hit": false,
      "t": 318750,
      "d": 662.5,
      "v": 125
    },
    {
      "midi": 59,
      "hit": false,
      "t": 319500,
      "d": 953.125,
      "v": 109
    },
    {
      "midi": 54,
      "hit": false,
      "t": 321000,
      "d": 900,
      "v": 121
    },
    {
      "midi": 62,
      "hit": false,
      "t": 321000,
      "d": 1118.75,
      "v": 121
    },
    {
      "midi": 57,
      "hit": false,
      "t": 321000,
      "d": 1196.875,
      "v": 109
    },
    {
      "midi": 50,
      "hit": false,
      "t": 321000,
      "d": 1850,
      "v": 105
    },
    {
      "midi": 54,
      "hit": false,
      "t": 322500,
      "d": 768.75,
      "v": 113
    },
    {
      "midi": 62,
      "hit": false,
      "t": 322500,
      "d": 1140.625,
      "v": 109
    },
    {
      "midi": 57,
      "hit": false,
      "t": 322500,
      "d": 1206.25,
      "v": 98
    },
    {
      "midi": 50,
      "hit": false,
      "t": 323250,
      "d": 2593.75,
      "v": 99
    },
    {
      "midi": 54,
      "hit": false,
      "t": 323625,
      "d": 696.875,
      "v": 98
    },
    {
      "midi": 57,
      "hit": false,
      "t": 324375,
      "d": 275,
      "v": 115
    },
    {
      "midi": 62,
      "hit": false,
      "t": 324375,
      "d": 275,
      "v": 115
    },
    {
      "midi": 66,
      "hit": false,
      "t": 324375,
      "d": 275,
      "v": 115
    },
    {
      "midi": 57,
      "hit": false,
      "t": 324750,
      "d": 275,
      "v": 115
    },
    {
      "midi": 62,
      "hit": false,
      "t": 324750,
      "d": 275,
      "v": 115
    },
    {
      "midi": 66,
      "hit": false,
      "t": 324750,
      "d": 275,
      "v": 115
    },
    {
      "midi": 57,
      "hit": false,
      "t": 325125,
      "d": 275,
      "v": 109
    },
    {
      "midi": 62,
      "hit": false,
      "t": 325125,
      "d": 275,
      "v": 117
    },
    {
      "midi": 66,
      "hit": false,
      "t": 325125,
      "d": 275,
      "v": 125
    },
    {
      "midi": 57,
      "hit": false,
      "t": 325500,
      "d": 334.375,
      "v": 127
    },
    {
      "midi": 62,
      "hit": false,
      "t": 325500,
      "d": 334.375,
      "v": 127
    },
    {
      "midi": 66,
      "hit": false,
      "t": 325500,
      "d": 334.375,
      "v": 127
    },
    {
      "midi": 62,
      "hit": false,
      "t": 325875,
      "d": 906.25,
      "v": 109
    },
    {
      "midi": 57,
      "hit": false,
      "t": 325875,
      "d": 937.5,
      "v": 105
    },
    {
      "midi": 64,
      "hit": false,
      "t": 325875,
      "d": 940.625,
      "v": 127
    },
    {
      "midi": 61,
      "hit": false,
      "t": 327000,
      "d": 1031.25,
      "v": 125
    },
    {
      "midi": 57,
      "hit": false,
      "t": 327000,
      "d": 1228.125,
      "v": 114
    },
    {
      "midi": 52,
      "hit": false,
      "t": 327000,
      "d": 1234.375,
      "v": 121
    },
    {
      "midi": 45,
      "hit": false,
      "t": 327000,
      "d": 1734.375,
      "v": 121
    },
    {
      "midi": 52,
      "hit": false,
      "t": 328500,
      "d": 775,
      "v": 102
    },
    {
      "midi": 57,
      "hit": false,
      "t": 328500,
      "d": 1040.625,
      "v": 109
    },
    {
      "midi": 61,
      "hit": false,
      "t": 328500,
      "d": 1046.875,
      "v": 125
    },
    {
      "midi": 45,
      "hit": false,
      "t": 329250,
      "d": 2993.75,
      "v": 117
    },
    {
      "midi": 52,
      "hit": false,
      "t": 329625,
      "d": 2425,
      "v": 109
    },
    {
      "midi": 61,
      "hit": false,
      "t": 330000,
      "d": 815.625,
      "v": 127
    },
    {
      "midi": 57,
      "hit": false,
      "t": 330000,
      "d": 2003.125,
      "v": 104
    },
    {
      "midi": 62,
      "hit": false,
      "t": 330750,
      "d": 846.875,
      "v": 125
    },
    {
      "midi": 61,
      "hit": false,
      "t": 331500,
      "d": 456.25,
      "v": 113
    },
    {
      "midi": 52,
      "hit": false,
      "t": 332250,
      "d": 1306.25,
      "v": 107
    },
    {
      "midi": 55,
      "hit": false,
      "t": 332250,
      "d": 1906.25,
      "v": 127
    },
    {
      "midi": 59,
      "hit": false,
      "t": 332250,
      "d": 2068.75,
      "v": 121
    },
    {
      "midi": 40,
      "hit": false,
      "t": 333000,
      "d": 1737.5,
      "v": 102
    },
    {
      "midi": 52,
      "hit": false,
      "t": 333750,
      "d": 456.25,
      "v": 80
    },
    {
      "midi": 52,
      "hit": false,
      "t": 334500,
      "d": 612.5,
      "v": 107
    },
    {
      "midi": 55,
      "hit": false,
      "t": 334500,
      "d": 821.875,
      "v": 117
    },
    {
      "midi": 59,
      "hit": false,
      "t": 334500,
      "d": 956.25,
      "v": 112
    },
    {
      "midi": 40,
      "hit": false,
      "t": 335250,
      "d": 3146.875,
      "v": 105
    },
    {
      "midi": 52,
      "hit": false,
      "t": 335625,
      "d": 453.125,
      "v": 84
    },
    {
      "midi": 62,
      "hit": false,
      "t": 336000,
      "d": 650,
      "v": 117
    },
    {
      "midi": 59,
      "hit": false,
      "t": 336000,
      "d": 968.75,
      "v": 125
    },
    {
      "midi": 55,
      "hit": false,
      "t": 336000,
      "d": 1346.875,
      "v": 121
    },
    {
      "midi": 61,
      "hit": false,
      "t": 336750,
      "d": 696.875,
      "v": 127
    },
    {
      "midi": 55,
      "hit": false,
      "t": 337500,
      "d": 453.125,
      "v": 88
    },
    {
      "midi": 59,
      "hit": false,
      "t": 337500,
      "d": 553.125,
      "v": 121
    },
    {
      "midi": 55,
      "hit": false,
      "t": 338250,
      "d": 2003.125,
      "v": 117
    },
    {
      "midi": 59,
      "hit": false,
      "t": 338250,
      "d": 2056.25,
      "v": 105
    },
    {
      "midi": 62,
      "hit": false,
      "t": 339000,
      "d": 1228.125,
      "v": 125
    },
    {
      "midi": 43,
      "hit": false,
      "t": 339000,
      "d": 1943.75,
      "v": 125
    },
    {
      "midi": 55,
      "hit": false,
      "t": 340500,
      "d": 846.875,
      "v": 114
    },
    {
      "midi": 62,
      "hit": false,
      "t": 340500,
      "d": 1087.5,
      "v": 114
    },
    {
      "midi": 59,
      "hit": false,
      "t": 340500,
      "d": 1306.25,
      "v": 112
    },
    {
      "midi": 43,
      "hit": false,
      "t": 341250,
      "d": 2556.25,
      "v": 121
    },
    {
      "midi": 55,
      "hit": false,
      "t": 341625,
      "d": 240.625,
      "v": 114
    },
    {
      "midi": 59,
      "hit": false,
      "t": 342000,
      "d": 581.25,
      "v": 109
    },
    {
      "midi": 62,
      "hit": false,
      "t": 342000,
      "d": 659.375,
      "v": 127
    },
    {
      "midi": 55,
      "hit": false,
      "t": 342000,
      "d": 2384.375,
      "v": 114
    },
    {
      "midi": 59,
      "hit": false,
      "t": 342750,
      "d": 562.5,
      "v": 74
    },
    {
      "midi": 61,
      "hit": false,
      "t": 342750,
      "d": 662.5,
      "v": 125
    },
    {
      "midi": 59,
      "hit": false,
      "t": 343500,
      "d": 953.125,
      "v": 109
    },
    {
      "midi": 54,
      "hit": false,
      "t": 345000,
      "d": 900,
      "v": 121
    },
    {
      "midi": 62,
      "hit": false,
      "t": 345000,
      "d": 1118.75,
      "v": 121
    },
    {
      "midi": 57,
      "hit": false,
      "t": 345000,
      "d": 1196.875,
      "v": 109
    },
    {
      "midi": 50,
      "hit": false,
      "t": 345000,
      "d": 1850,
      "v": 105
    },
    {
      "midi": 54,
      "hit": false,
      "t": 346500,
      "d": 768.75,
      "v": 113
    },
    {
      "midi": 62,
      "hit": false,
      "t": 346500,
      "d": 1140.625,
      "v": 109
    },
    {
      "midi": 57,
      "hit": false,
      "t": 346500,
      "d": 1206.25,
      "v": 98
    },
    {
      "midi": 50,
      "hit": false,
      "t": 347250,
      "d": 2593.75,
      "v": 99
    },
    {
      "midi": 54,
      "hit": false,
      "t": 347625,
      "d": 696.875,
      "v": 98
    },
    {
      "midi": 57,
      "hit": false,
      "t": 348375,
      "d": 275,
      "v": 115
    },
    {
      "midi": 62,
      "hit": false,
      "t": 348375,
      "d": 275,
      "v": 115
    },
    {
      "midi": 66,
      "hit": false,
      "t": 348375,
      "d": 275,
      "v": 115
    },
    {
      "midi": 57,
      "hit": false,
      "t": 348750,
      "d": 275,
      "v": 115
    },
    {
      "midi": 62,
      "hit": false,
      "t": 348750,
      "d": 275,
      "v": 115
    },
    {
      "midi": 66,
      "hit": false,
      "t": 348750,
      "d": 275,
      "v": 115
    },
    {
      "midi": 57,
      "hit": false,
      "t": 349125,
      "d": 275,
      "v": 109
    },
    {
      "midi": 62,
      "hit": false,
      "t": 349125,
      "d": 275,
      "v": 117
    },
    {
      "midi": 66,
      "hit": false,
      "t": 349125,
      "d": 275,
      "v": 125
    },
    {
      "midi": 57,
      "hit": false,
      "t": 349500,
      "d": 334.375,
      "v": 127
    },
    {
      "midi": 62,
      "hit": false,
      "t": 349500,
      "d": 334.375,
      "v": 127
    },
    {
      "midi": 66,
      "hit": false,
      "t": 349500,
      "d": 334.375,
      "v": 127
    },
    {
      "midi": 62,
      "hit": false,
      "t": 349875,
      "d": 906.25,
      "v": 109
    },
    {
      "midi": 57,
      "hit": false,
      "t": 349875,
      "d": 937.5,
      "v": 105
    },
    {
      "midi": 64,
      "hit": false,
      "t": 349875,
      "d": 940.625,
      "v": 127
    },
    {
      "midi": 64,
      "hit": false,
      "t": 351000,
      "d": 1003.125,
      "v": 107
    },
    {
      "midi": 61,
      "hit": false,
      "t": 351000,
      "d": 1031.25,
      "v": 121
    },
    {
      "midi": 69,
      "hit": false,
      "t": 351000,
      "d": 1084.375,
      "v": 114
    },
    {
      "midi": 45,
      "hit": false,
      "t": 351000,
      "d": 3396.875,
      "v": 107
    },
    {
      "midi": 52,
      "hit": false,
      "t": 351750,
      "d": 2600,
      "v": 98
    },
    {
      "midi": 64,
      "hit": false,
      "t": 352500,
      "d": 890.625,
      "v": 104
    },
    {
      "midi": 61,
      "hit": false,
      "t": 352500,
      "d": 1087.5,
      "v": 104
    },
    {
      "midi": 69,
      "hit": false,
      "t": 352500,
      "d": 1140.625,
      "v": 104
    },
    {
      "midi": 64,
      "hit": false,
      "t": 354000,
      "d": 987.5,
      "v": 97
    },
    {
      "midi": 61,
      "hit": false,
      "t": 354000,
      "d": 1009.375,
      "v": 97
    },
    {
      "midi": 69,
      "hit": false,
      "t": 354000,
      "d": 1009.375,
      "v": 97
    },
    {
      "midi": 45,
      "hit": false,
      "t": 354750,
      "d": 1900,
      "v": 117
    },
    {
      "midi": 52,
      "hit": false,
      "t": 354750,
      "d": 2000,
      "v": 107
    },
    {
      "midi": 69,
      "hit": false,
      "t": 355500,
      "d": 1006.25,
      "v": 127
    },
    {
      "midi": 61,
      "hit": false,
      "t": 355500,
      "d": 1034.375,
      "v": 127
    },
    {
      "midi": 64,
      "hit": false,
      "t": 355500,
      "d": 1162.5,
      "v": 127
    },
    {
      "midi": 59,
      "hit": false,
      "t": 355875,
      "d": 984.375,
      "v": 127
    },
    {
      "midi": 64,
      "hit": false,
      "t": 357000,
      "d": 1140.625,
      "v": 105
    },
    {
      "midi": 68,
      "hit": false,
      "t": 357000,
      "d": 1175,
      "v": 125
    },
    {
      "midi": 59,
      "hit": false,
      "t": 357000,
      "d": 1218.75,
      "v": 109
    },
    {
      "midi": 49,
      "hit": false,
      "t": 357000,
      "d": 1625,
      "v": 127
    },
    {
      "midi": 68,
      "hit": false,
      "t": 358500,
      "d": 1140.625,
      "v": 125
    },
    {
      "midi": 59,
      "hit": false,
      "t": 358500,
      "d": 1171.875,
      "v": 107
    },
    {
      "midi": 64,
      "hit": false,
      "t": 358500,
      "d": 1281.25,
      "v": 114
    },
    {
      "midi": 49,
      "hit": false,
      "t": 359250,
      "d": 3446.875,
      "v": 121
    },
    {
      "midi": 59,
      "hit": false,
      "t": 360000,
      "d": 275,
      "v": 90
    },
    {
      "midi": 64,
      "hit": false,
      "t": 360000,
      "d": 275,
      "v": 90
    },
    {
      "midi": 68,
      "hit": false,
      "t": 360000,
      "d": 275,
      "v": 90
    },
    {
      "midi": 59,
      "hit": false,
      "t": 360375,
      "d": 275,
      "v": 95
    },
    {
      "midi": 64,
      "hit": false,
      "t": 360375,
      "d": 275,
      "v": 96
    },
    {
      "midi": 68,
      "hit": false,
      "t": 360375,
      "d": 275,
      "v": 101
    },
    {
      "midi": 59,
      "hit": false,
      "t": 360750,
      "d": 275,
      "v": 117
    },
    {
      "midi": 64,
      "hit": false,
      "t": 360750,
      "d": 275,
      "v": 125
    },
    {
      "midi": 68,
      "hit": false,
      "t": 360750,
      "d": 275,
      "v": 127
    },
    {
      "midi": 59,
      "hit": false,
      "t": 361125,
      "d": 275,
      "v": 125
    },
    {
      "midi": 64,
      "hit": false,
      "t": 361125,
      "d": 275,
      "v": 125
    },
    {
      "midi": 68,
      "hit": false,
      "t": 361125,
      "d": 275,
      "v": 127
    },
    {
      "midi": 64,
      "hit": false,
      "t": 361500,
      "d": 281.25,
      "v": 127
    },
    {
      "midi": 68,
      "hit": false,
      "t": 361500,
      "d": 315.625,
      "v": 127
    },
    {
      "midi": 59,
      "hit": false,
      "t": 361500,
      "d": 1328.125,
      "v": 112
    },
    {
      "midi": 66,
      "hit": false,
      "t": 361875,
      "d": 915.625,
      "v": 127
    },
    {
      "midi": 64,
      "hit": false,
      "t": 361875,
      "d": 946.875,
      "v": 98
    },
    {
      "midi": 61,
      "hit": false,
      "t": 363000,
      "d": 915.625,
      "v": 111
    },
    {
      "midi": 66,
      "hit": false,
      "t": 363000,
      "d": 993.75,
      "v": 97
    },
    {
      "midi": 57,
      "hit": false,
      "t": 363000,
      "d": 1146.875,
      "v": 94
    },
    {
      "midi": 50,
      "hit": false,
      "t": 363000,
      "d": 1740.625,
      "v": 92
    },
    {
      "midi": 61,
      "hit": false,
      "t": 364500,
      "d": 734.375,
      "v": 111
    },
    {
      "midi": 66,
      "hit": false,
      "t": 364500,
      "d": 765.625,
      "v": 105
    },
    {
      "midi": 57,
      "hit": false,
      "t": 364500,
      "d": 768.75,
      "v": 97
    },
    {
      "midi": 50,
      "hit": false,
      "t": 365250,
      "d": 453.125,
      "v": 80
    },
    {
      "midi": 57,
      "hit": false,
      "t": 365625,
      "d": 1359.375,
      "v": 82
    },
    {
      "midi": 61,
      "hit": false,
      "t": 365625,
      "d": 1437.5,
      "v": 90
    },
    {
      "midi": 66,
      "hit": false,
      "t": 365625,
      "d": 1515.625,
      "v": 83
    },
    {
      "midi": 50,
      "hit": false,
      "t": 366000,
      "d": 750,
      "v": 89
    },
    {
      "midi": 50,
      "hit": false,
      "t": 366750,
      "d": 1021.875,
      "v": 52
    },
    {
      "midi": 57,
      "hit": false,
      "t": 367500,
      "d": 821.875,
      "v": 92
    },
    {
      "midi": 61,
      "hit": false,
      "t": 367500,
      "d": 828.125,
      "v": 111
    },
    {
      "midi": 66,
      "hit": false,
      "t": 367500,
      "d": 828.125,
      "v": 97
    },
    {
      "midi": 50,
      "hit": false,
      "t": 368250,
      "d": 534.375,
      "v": 92
    },
    {
      "midi": 61,
      "hit": false,
      "t": 368625,
      "d": 462.5,
      "v": 90
    },
    {
      "midi": 66,
      "hit": false,
      "t": 368625,
      "d": 634.375,
      "v": 86
    },
    {
      "midi": 57,
      "hit": false,
      "t": 368625,
      "d": 690.625,
      "v": 79
    },
    {
      "midi": 42,
      "hit": false,
      "t": 369000,
      "d": 1550,
      "v": 74
    },
    {
      "midi": 57,
      "hit": false,
      "t": 369750,
      "d": 428.125,
      "v": 57
    },
    {
      "midi": 61,
      "hit": false,
      "t": 369750,
      "d": 428.125,
      "v": 57
    },
    {
      "midi": 66,
      "hit": false,
      "t": 369750,
      "d": 428.125,
      "v": 57
    },
    {
      "midi": 57,
      "hit": false,
      "t": 370500,
      "d": 834.375,
      "v": 89
    },
    {
      "midi": 61,
      "hit": false,
      "t": 370500,
      "d": 853.125,
      "v": 105
    },
    {
      "midi": 66,
      "hit": false,
      "t": 370500,
      "d": 890.625,
      "v": 90
    },
    {
      "midi": 42,
      "hit": false,
      "t": 371250,
      "d": 525,
      "v": 90
    },
    {
      "midi": 57,
      "hit": false,
      "t": 371625,
      "d": 1500,
      "v": 77
    },
    {
      "midi": 61,
      "hit": false,
      "t": 371625,
      "d": 1500,
      "v": 77
    },
    {
      "midi": 66,
      "hit": false,
      "t": 371625,
      "d": 1500,
      "v": 73
    },
    {
      "midi": 42,
      "hit": false,
      "t": 372000,
      "d": 2878.125,
      "v": 90
    },
    {
      "midi": 73,
      "hit": false,
      "t": 372375,
      "d": 100,
      "v": 97
    },
    {
      "midi": 69,
      "hit": false,
      "t": 372375,
      "d": 103.125,
      "v": 92
    },
    {
      "midi": 78,
      "hit": false,
      "t": 372375,
      "d": 112.5,
      "v": 97
    },
    {
      "midi": 69,
      "hit": false,
      "t": 372750,
      "d": 100,
      "v": 92
    },
    {
      "midi": 73,
      "hit": false,
      "t": 372750,
      "d": 100,
      "v": 101
    },
    {
      "midi": 78,
      "hit": false,
      "t": 372750,
      "d": 100,
      "v": 105
    },
    {
      "midi": 73,
      "hit": false,
      "t": 373125,
      "d": 100,
      "v": 105
    },
    {
      "midi": 69,
      "hit": false,
      "t": 373125,
      "d": 103.125,
      "v": 87
    },
    {
      "midi": 78,
      "hit": false,
      "t": 373125,
      "d": 140.625,
      "v": 101
    },
    {
      "midi": 73,
      "hit": false,
      "t": 373500,
      "d": 112.5,
      "v": 111
    },
    {
      "midi": 69,
      "hit": false,
      "t": 373500,
      "d": 115.625,
      "v": 85
    },
    {
      "midi": 78,
      "hit": false,
      "t": 373500,
      "d": 118.75,
      "v": 101
    },
    {
      "midi": 69,
      "hit": false,
      "t": 373875,
      "d": 1125,
      "v": 89
    },
    {
      "midi": 73,
      "hit": false,
      "t": 373875,
      "d": 1125,
      "v": 105
    },
    {
      "midi": 78,
      "hit": false,
      "t": 373875,
      "d": 1125,
      "v": 101
    },
    {
      "midi": 64,
      "hit": false,
      "t": 375000,
      "d": 1003.125,
      "v": 107
    },
    {
      "midi": 61,
      "hit": false,
      "t": 375000,
      "d": 1031.25,
      "v": 121
    },
    {
      "midi": 69,
      "hit": false,
      "t": 375000,
      "d": 1084.375,
      "v": 114
    },
    {
      "midi": 45,
      "hit": false,
      "t": 375000,
      "d": 3396.875,
      "v": 107
    },
    {
      "midi": 52,
      "hit": false,
      "t": 375750,
      "d": 2600,
      "v": 98
    },
    {
      "midi": 64,
      "hit": false,
      "t": 376500,
      "d": 890.625,
      "v": 104
    },
    {
      "midi": 61,
      "hit": false,
      "t": 376500,
      "d": 1087.5,
      "v": 104
    },
    {
      "midi": 69,
      "hit": false,
      "t": 376500,
      "d": 1140.625,
      "v": 104
    },
    {
      "midi": 64,
      "hit": false,
      "t": 378000,
      "d": 987.5,
      "v": 97
    },
    {
      "midi": 61,
      "hit": false,
      "t": 378000,
      "d": 1009.375,
      "v": 97
    },
    {
      "midi": 69,
      "hit": false,
      "t": 378000,
      "d": 1009.375,
      "v": 97
    },
    {
      "midi": 45,
      "hit": false,
      "t": 378750,
      "d": 1900,
      "v": 117
    },
    {
      "midi": 52,
      "hit": false,
      "t": 378750,
      "d": 2000,
      "v": 107
    },
    {
      "midi": 69,
      "hit": false,
      "t": 379500,
      "d": 1006.25,
      "v": 127
    },
    {
      "midi": 61,
      "hit": false,
      "t": 379500,
      "d": 1034.375,
      "v": 127
    },
    {
      "midi": 64,
      "hit": false,
      "t": 379500,
      "d": 1162.5,
      "v": 127
    },
    {
      "midi": 59,
      "hit": false,
      "t": 379875,
      "d": 984.375,
      "v": 127
    },
    {
      "midi": 64,
      "hit": false,
      "t": 381000,
      "d": 1140.625,
      "v": 105
    },
    {
      "midi": 68,
      "hit": false,
      "t": 381000,
      "d": 1175,
      "v": 125
    },
    {
      "midi": 59,
      "hit": false,
      "t": 381000,
      "d": 1218.75,
      "v": 109
    },
    {
      "midi": 49,
      "hit": false,
      "t": 381000,
      "d": 1625,
      "v": 127
    },
    {
      "midi": 68,
      "hit": false,
      "t": 382500,
      "d": 1140.625,
      "v": 125
    },
    {
      "midi": 59,
      "hit": false,
      "t": 382500,
      "d": 1171.875,
      "v": 107
    },
    {
      "midi": 64,
      "hit": false,
      "t": 382500,
      "d": 1281.25,
      "v": 114
    },
    {
      "midi": 49,
      "hit": false,
      "t": 383250,
      "d": 3446.875,
      "v": 121
    },
    {
      "midi": 59,
      "hit": false,
      "t": 384000,
      "d": 275,
      "v": 90
    },
    {
      "midi": 64,
      "hit": false,
      "t": 384000,
      "d": 275,
      "v": 90
    },
    {
      "midi": 68,
      "hit": false,
      "t": 384000,
      "d": 275,
      "v": 90
    },
    {
      "midi": 59,
      "hit": false,
      "t": 384375,
      "d": 275,
      "v": 95
    },
    {
      "midi": 64,
      "hit": false,
      "t": 384375,
      "d": 275,
      "v": 96
    },
    {
      "midi": 68,
      "hit": false,
      "t": 384375,
      "d": 275,
      "v": 101
    },
    {
      "midi": 59,
      "hit": false,
      "t": 384750,
      "d": 275,
      "v": 117
    },
    {
      "midi": 64,
      "hit": false,
      "t": 384750,
      "d": 275,
      "v": 125
    },
    {
      "midi": 68,
      "hit": false,
      "t": 384750,
      "d": 275,
      "v": 127
    },
    {
      "midi": 59,
      "hit": false,
      "t": 385125,
      "d": 275,
      "v": 125
    },
    {
      "midi": 64,
      "hit": false,
      "t": 385125,
      "d": 275,
      "v": 125
    },
    {
      "midi": 68,
      "hit": false,
      "t": 385125,
      "d": 275,
      "v": 127
    },
    {
      "midi": 64,
      "hit": false,
      "t": 385500,
      "d": 281.25,
      "v": 127
    },
    {
      "midi": 68,
      "hit": false,
      "t": 385500,
      "d": 315.625,
      "v": 127
    },
    {
      "midi": 59,
      "hit": false,
      "t": 385500,
      "d": 1328.125,
      "v": 112
    },
    {
      "midi": 66,
      "hit": false,
      "t": 385875,
      "d": 915.625,
      "v": 127
    },
    {
      "midi": 64,
      "hit": false,
      "t": 385875,
      "d": 946.875,
      "v": 98
    },
    {
      "midi": 61,
      "hit": false,
      "t": 387000,
      "d": 915.625,
      "v": 111
    },
    {
      "midi": 66,
      "hit": false,
      "t": 387000,
      "d": 993.75,
      "v": 97
    },
    {
      "midi": 57,
      "hit": false,
      "t": 387000,
      "d": 1146.875,
      "v": 94
    },
    {
      "midi": 50,
      "hit": false,
      "t": 387000,
      "d": 1740.625,
      "v": 92
    },
    {
      "midi": 61,
      "hit": false,
      "t": 388500,
      "d": 734.375,
      "v": 111
    },
    {
      "midi": 66,
      "hit": false,
      "t": 388500,
      "d": 765.625,
      "v": 105
    },
    {
      "midi": 57,
      "hit": false,
      "t": 388500,
      "d": 768.75,
      "v": 97
    },
    {
      "midi": 50,
      "hit": false,
      "t": 389250,
      "d": 453.125,
      "v": 80
    },
    {
      "midi": 57,
      "hit": false,
      "t": 389625,
      "d": 1359.375,
      "v": 82
    },
    {
      "midi": 61,
      "hit": false,
      "t": 389625,
      "d": 1437.5,
      "v": 90
    },
    {
      "midi": 66,
      "hit": false,
      "t": 389625,
      "d": 1515.625,
      "v": 83
    },
    {
      "midi": 50,
      "hit": false,
      "t": 390000,
      "d": 750,
      "v": 89
    },
    {
      "midi": 50,
      "hit": false,
      "t": 390750,
      "d": 1021.875,
      "v": 52
    },
    {
      "midi": 57,
      "hit": false,
      "t": 391500,
      "d": 821.875,
      "v": 92
    },
    {
      "midi": 61,
      "hit": false,
      "t": 391500,
      "d": 828.125,
      "v": 111
    },
    {
      "midi": 66,
      "hit": false,
      "t": 391500,
      "d": 828.125,
      "v": 97
    },
    {
      "midi": 50,
      "hit": false,
      "t": 392250,
      "d": 534.375,
      "v": 92
    },
    {
      "midi": 61,
      "hit": false,
      "t": 392625,
      "d": 462.5,
      "v": 90
    },
    {
      "midi": 66,
      "hit": false,
      "t": 392625,
      "d": 634.375,
      "v": 86
    },
    {
      "midi": 57,
      "hit": false,
      "t": 392625,
      "d": 690.625,
      "v": 79
    },
    {
      "midi": 42,
      "hit": false,
      "t": 393000,
      "d": 1550,
      "v": 74
    },
    {
      "midi": 57,
      "hit": false,
      "t": 393750,
      "d": 428.125,
      "v": 57
    },
    {
      "midi": 61,
      "hit": false,
      "t": 393750,
      "d": 428.125,
      "v": 57
    },
    {
      "midi": 66,
      "hit": false,
      "t": 393750,
      "d": 428.125,
      "v": 57
    },
    {
      "midi": 57,
      "hit": false,
      "t": 394500,
      "d": 834.375,
      "v": 89
    },
    {
      "midi": 61,
      "hit": false,
      "t": 394500,
      "d": 853.125,
      "v": 105
    },
    {
      "midi": 66,
      "hit": false,
      "t": 394500,
      "d": 890.625,
      "v": 90
    },
    {
      "midi": 42,
      "hit": false,
      "t": 395250,
      "d": 525,
      "v": 90
    },
    {
      "midi": 57,
      "hit": false,
      "t": 395625,
      "d": 1500,
      "v": 77
    },
    {
      "midi": 61,
      "hit": false,
      "t": 395625,
      "d": 1500,
      "v": 77
    },
    {
      "midi": 66,
      "hit": false,
      "t": 395625,
      "d": 1500,
      "v": 73
    },
    {
      "midi": 42,
      "hit": false,
      "t": 396000,
      "d": 2878.125,
      "v": 90
    },
    {
      "midi": 73,
      "hit": false,
      "t": 396375,
      "d": 100,
      "v": 97
    },
    {
      "midi": 69,
      "hit": false,
      "t": 396375,
      "d": 103.125,
      "v": 92
    },
    {
      "midi": 78,
      "hit": false,
      "t": 396375,
      "d": 112.5,
      "v": 97
    },
    {
      "midi": 69,
      "hit": false,
      "t": 396750,
      "d": 100,
      "v": 92
    },
    {
      "midi": 73,
      "hit": false,
      "t": 396750,
      "d": 100,
      "v": 101
    },
    {
      "midi": 78,
      "hit": false,
      "t": 396750,
      "d": 100,
      "v": 105
    },
    {
      "midi": 73,
      "hit": false,
      "t": 397125,
      "d": 100,
      "v": 105
    },
    {
      "midi": 69,
      "hit": false,
      "t": 397125,
      "d": 103.125,
      "v": 87
    },
    {
      "midi": 78,
      "hit": false,
      "t": 397125,
      "d": 140.625,
      "v": 101
    },
    {
      "midi": 73,
      "hit": false,
      "t": 397500,
      "d": 112.5,
      "v": 111
    },
    {
      "midi": 69,
      "hit": false,
      "t": 397500,
      "d": 115.625,
      "v": 85
    },
    {
      "midi": 78,
      "hit": false,
      "t": 397500,
      "d": 118.75,
      "v": 101
    },
    {
      "midi": 69,
      "hit": false,
      "t": 397875,
      "d": 1125,
      "v": 89
    },
    {
      "midi": 73,
      "hit": false,
      "t": 397875,
      "d": 1125,
      "v": 105
    },
    {
      "midi": 78,
      "hit": false,
      "t": 397875,
      "d": 1125,
      "v": 101
    },
    {
      "midi": 64,
      "hit": false,
      "t": 399000,
      "d": 1003.125,
      "v": 107
    },
    {
      "midi": 61,
      "hit": false,
      "t": 399000,
      "d": 1031.25,
      "v": 121
    },
    {
      "midi": 69,
      "hit": false,
      "t": 399000,
      "d": 1084.375,
      "v": 114
    },
    {
      "midi": 45,
      "hit": false,
      "t": 399000,
      "d": 3396.875,
      "v": 107
    },
    {
      "midi": 52,
      "hit": false,
      "t": 399750,
      "d": 2600,
      "v": 98
    },
    {
      "midi": 64,
      "hit": false,
      "t": 400500,
      "d": 890.625,
      "v": 104
    },
    {
      "midi": 61,
      "hit": false,
      "t": 400500,
      "d": 1087.5,
      "v": 104
    },
    {
      "midi": 69,
      "hit": false,
      "t": 400500,
      "d": 1140.625,
      "v": 104
    },
    {
      "midi": 64,
      "hit": false,
      "t": 402000,
      "d": 987.5,
      "v": 97
    },
    {
      "midi": 61,
      "hit": false,
      "t": 402000,
      "d": 1009.375,
      "v": 97
    },
    {
      "midi": 69,
      "hit": false,
      "t": 402000,
      "d": 1009.375,
      "v": 97
    },
    {
      "midi": 45,
      "hit": false,
      "t": 402750,
      "d": 1900,
      "v": 117
    },
    {
      "midi": 52,
      "hit": false,
      "t": 402750,
      "d": 2000,
      "v": 107
    },
    {
      "midi": 69,
      "hit": false,
      "t": 403500,
      "d": 1006.25,
      "v": 127
    },
    {
      "midi": 61,
      "hit": false,
      "t": 403500,
      "d": 1034.375,
      "v": 127
    },
    {
      "midi": 64,
      "hit": false,
      "t": 403500,
      "d": 1162.5,
      "v": 127
    },
    {
      "midi": 59,
      "hit": false,
      "t": 403875,
      "d": 984.375,
      "v": 127
    },
    {
      "midi": 64,
      "hit": false,
      "t": 405000,
      "d": 1140.625,
      "v": 105
    },
    {
      "midi": 68,
      "hit": false,
      "t": 405000,
      "d": 1175,
      "v": 125
    },
    {
      "midi": 59,
      "hit": false,
      "t": 405000,
      "d": 1218.75,
      "v": 109
    },
    {
      "midi": 49,
      "hit": false,
      "t": 405000,
      "d": 1625,
      "v": 127
    },
    {
      "midi": 68,
      "hit": false,
      "t": 406500,
      "d": 1140.625,
      "v": 125
    },
    {
      "midi": 59,
      "hit": false,
      "t": 406500,
      "d": 1171.875,
      "v": 107
    },
    {
      "midi": 64,
      "hit": false,
      "t": 406500,
      "d": 1281.25,
      "v": 114
    },
    {
      "midi": 49,
      "hit": false,
      "t": 407250,
      "d": 3446.875,
      "v": 121
    },
    {
      "midi": 59,
      "hit": false,
      "t": 408000,
      "d": 275,
      "v": 90
    },
    {
      "midi": 64,
      "hit": false,
      "t": 408000,
      "d": 275,
      "v": 90
    },
    {
      "midi": 68,
      "hit": false,
      "t": 408000,
      "d": 275,
      "v": 90
    },
    {
      "midi": 59,
      "hit": false,
      "t": 408375,
      "d": 275,
      "v": 95
    },
    {
      "midi": 64,
      "hit": false,
      "t": 408375,
      "d": 275,
      "v": 96
    },
    {
      "midi": 68,
      "hit": false,
      "t": 408375,
      "d": 275,
      "v": 101
    },
    {
      "midi": 59,
      "hit": false,
      "t": 408750,
      "d": 275,
      "v": 117
    },
    {
      "midi": 64,
      "hit": false,
      "t": 408750,
      "d": 275,
      "v": 125
    },
    {
      "midi": 68,
      "hit": false,
      "t": 408750,
      "d": 275,
      "v": 127
    },
    {
      "midi": 59,
      "hit": false,
      "t": 409125,
      "d": 275,
      "v": 125
    },
    {
      "midi": 64,
      "hit": false,
      "t": 409125,
      "d": 275,
      "v": 125
    },
    {
      "midi": 68,
      "hit": false,
      "t": 409125,
      "d": 275,
      "v": 127
    },
    {
      "midi": 64,
      "hit": false,
      "t": 409500,
      "d": 281.25,
      "v": 127
    },
    {
      "midi": 68,
      "hit": false,
      "t": 409500,
      "d": 315.625,
      "v": 127
    },
    {
      "midi": 59,
      "hit": false,
      "t": 409500,
      "d": 1328.125,
      "v": 112
    },
    {
      "midi": 66,
      "hit": false,
      "t": 409875,
      "d": 915.625,
      "v": 127
    },
    {
      "midi": 64,
      "hit": false,
      "t": 409875,
      "d": 946.875,
      "v": 98
    },
    {
      "midi": 61,
      "hit": false,
      "t": 411000,
      "d": 915.625,
      "v": 111
    },
    {
      "midi": 66,
      "hit": false,
      "t": 411000,
      "d": 993.75,
      "v": 97
    },
    {
      "midi": 57,
      "hit": false,
      "t": 411000,
      "d": 1146.875,
      "v": 94
    },
    {
      "midi": 42,
      "hit": false,
      "t": 411000,
      "d": 1740.625,
      "v": 92
    },
    {
      "midi": 61,
      "hit": false,
      "t": 412500,
      "d": 734.375,
      "v": 111
    },
    {
      "midi": 66,
      "hit": false,
      "t": 412500,
      "d": 765.625,
      "v": 105
    },
    {
      "midi": 57,
      "hit": false,
      "t": 412500,
      "d": 768.75,
      "v": 97
    },
    {
      "midi": 42,
      "hit": false,
      "t": 413250,
      "d": 453.125,
      "v": 80
    },
    {
      "midi": 57,
      "hit": false,
      "t": 413625,
      "d": 1359.375,
      "v": 82
    },
    {
      "midi": 61,
      "hit": false,
      "t": 413625,
      "d": 1437.5,
      "v": 90
    },
    {
      "midi": 66,
      "hit": false,
      "t": 413625,
      "d": 1515.625,
      "v": 83
    },
    {
      "midi": 42,
      "hit": false,
      "t": 414000,
      "d": 671.875,
      "v": 89
    },
    {
      "midi": 42,
      "hit": false,
      "t": 414750,
      "d": 1021.875,
      "v": 52
    },
    {
      "midi": 57,
      "hit": false,
      "t": 415500,
      "d": 821.875,
      "v": 92
    },
    {
      "midi": 61,
      "hit": false,
      "t": 415500,
      "d": 828.125,
      "v": 111
    },
    {
      "midi": 66,
      "hit": false,
      "t": 415500,
      "d": 828.125,
      "v": 97
    },
    {
      "midi": 42,
      "hit": false,
      "t": 416250,
      "d": 534.375,
      "v": 92
    },
    {
      "midi": 61,
      "hit": false,
      "t": 416625,
      "d": 462.5,
      "v": 90
    },
    {
      "midi": 66,
      "hit": false,
      "t": 416625,
      "d": 634.375,
      "v": 86
    },
    {
      "midi": 57,
      "hit": false,
      "t": 416625,
      "d": 690.625,
      "v": 79
    },
    {
      "midi": 38,
      "hit": false,
      "t": 417000,
      "d": 1550,
      "v": 74
    },
    {
      "midi": 57,
      "hit": false,
      "t": 417750,
      "d": 428.125,
      "v": 57
    },
    {
      "midi": 62,
      "hit": false,
      "t": 417750,
      "d": 428.125,
      "v": 57
    },
    {
      "midi": 66,
      "hit": false,
      "t": 417750,
      "d": 428.125,
      "v": 57
    },
    {
      "midi": 57,
      "hit": false,
      "t": 418500,
      "d": 834.375,
      "v": 89
    },
    {
      "midi": 62,
      "hit": false,
      "t": 418500,
      "d": 853.125,
      "v": 105
    },
    {
      "midi": 66,
      "hit": false,
      "t": 418500,
      "d": 890.625,
      "v": 90
    },
    {
      "midi": 38,
      "hit": false,
      "t": 419250,
      "d": 525,
      "v": 90
    },
    {
      "midi": 57,
      "hit": false,
      "t": 419625,
      "d": 1500,
      "v": 77
    },
    {
      "midi": 62,
      "hit": false,
      "t": 419625,
      "d": 1500,
      "v": 77
    },
    {
      "midi": 66,
      "hit": false,
      "t": 419625,
      "d": 1500,
      "v": 73
    },
    {
      "midi": 38,
      "hit": false,
      "t": 420000,
      "d": 2878.125,
      "v": 90
    },
    {
      "midi": 74,
      "hit": false,
      "t": 420375,
      "d": 100,
      "v": 97
    },
    {
      "midi": 69,
      "hit": false,
      "t": 420375,
      "d": 103.125,
      "v": 92
    },
    {
      "midi": 78,
      "hit": false,
      "t": 420375,
      "d": 112.5,
      "v": 97
    },
    {
      "midi": 69,
      "hit": false,
      "t": 420750,
      "d": 100,
      "v": 92
    },
    {
      "midi": 74,
      "hit": false,
      "t": 420750,
      "d": 100,
      "v": 101
    },
    {
      "midi": 78,
      "hit": false,
      "t": 420750,
      "d": 100,
      "v": 105
    },
    {
      "midi": 74,
      "hit": false,
      "t": 421125,
      "d": 100,
      "v": 105
    },
    {
      "midi": 69,
      "hit": false,
      "t": 421125,
      "d": 103.125,
      "v": 87
    },
    {
      "midi": 78,
      "hit": false,
      "t": 421125,
      "d": 140.625,
      "v": 101
    },
    {
      "midi": 74,
      "hit": false,
      "t": 421500,
      "d": 112.5,
      "v": 111
    },
    {
      "midi": 69,
      "hit": false,
      "t": 421500,
      "d": 115.625,
      "v": 85
    },
    {
      "midi": 78,
      "hit": false,
      "t": 421500,
      "d": 118.75,
      "v": 101
    },
    {
      "midi": 69,
      "hit": false,
      "t": 421875,
      "d": 1125,
      "v": 89
    },
    {
      "midi": 74,
      "hit": false,
      "t": 421875,
      "d": 1125,
      "v": 105
    },
    {
      "midi": 78,
      "hit": false,
      "t": 421875,
      "d": 1125,
      "v": 101
    },
    {
      "midi": 64,
      "hit": false,
      "t": 423000,
      "d": 1003.125,
      "v": 107
    },
    {
      "midi": 61,
      "hit": false,
      "t": 423000,
      "d": 1031.25,
      "v": 121
    },
    {
      "midi": 69,
      "hit": false,
      "t": 423000,
      "d": 1084.375,
      "v": 114
    },
    {
      "midi": 45,
      "hit": false,
      "t": 423000,
      "d": 3396.875,
      "v": 107
    },
    {
      "midi": 52,
      "hit": false,
      "t": 423750,
      "d": 2600,
      "v": 98
    },
    {
      "midi": 64,
      "hit": false,
      "t": 424500,
      "d": 890.625,
      "v": 104
    },
    {
      "midi": 61,
      "hit": false,
      "t": 424500,
      "d": 1087.5,
      "v": 104
    },
    {
      "midi": 69,
      "hit": false,
      "t": 424500,
      "d": 1140.625,
      "v": 104
    },
    {
      "midi": 64,
      "hit": false,
      "t": 426000,
      "d": 987.5,
      "v": 97
    },
    {
      "midi": 61,
      "hit": false,
      "t": 426000,
      "d": 1009.375,
      "v": 97
    },
    {
      "midi": 69,
      "hit": false,
      "t": 426000,
      "d": 1009.375,
      "v": 97
    },
    {
      "midi": 45,
      "hit": false,
      "t": 426750,
      "d": 1900,
      "v": 117
    },
    {
      "midi": 52,
      "hit": false,
      "t": 426750,
      "d": 2000,
      "v": 107
    },
    {
      "midi": 69,
      "hit": false,
      "t": 427500,
      "d": 1006.25,
      "v": 127
    },
    {
      "midi": 61,
      "hit": false,
      "t": 427500,
      "d": 1034.375,
      "v": 127
    },
    {
      "midi": 64,
      "hit": false,
      "t": 427500,
      "d": 1162.5,
      "v": 127
    },
    {
      "midi": 59,
      "hit": false,
      "t": 427875,
      "d": 984.375,
      "v": 127
    },
    {
      "midi": 64,
      "hit": false,
      "t": 429000,
      "d": 1140.625,
      "v": 105
    },
    {
      "midi": 68,
      "hit": false,
      "t": 429000,
      "d": 1175,
      "v": 125
    },
    {
      "midi": 59,
      "hit": false,
      "t": 429000,
      "d": 1218.75,
      "v": 109
    },
    {
      "midi": 49,
      "hit": false,
      "t": 429000,
      "d": 1625,
      "v": 127
    },
    {
      "midi": 68,
      "hit": false,
      "t": 430500,
      "d": 1140.625,
      "v": 125
    },
    {
      "midi": 59,
      "hit": false,
      "t": 430500,
      "d": 1171.875,
      "v": 107
    },
    {
      "midi": 64,
      "hit": false,
      "t": 430500,
      "d": 1281.25,
      "v": 114
    },
    {
      "midi": 49,
      "hit": false,
      "t": 431250,
      "d": 3446.875,
      "v": 121
    },
    {
      "midi": 59,
      "hit": false,
      "t": 432000,
      "d": 275,
      "v": 90
    },
    {
      "midi": 64,
      "hit": false,
      "t": 432000,
      "d": 275,
      "v": 90
    },
    {
      "midi": 68,
      "hit": false,
      "t": 432000,
      "d": 275,
      "v": 90
    },
    {
      "midi": 59,
      "hit": false,
      "t": 432375,
      "d": 275,
      "v": 95
    },
    {
      "midi": 64,
      "hit": false,
      "t": 432375,
      "d": 275,
      "v": 96
    },
    {
      "midi": 68,
      "hit": false,
      "t": 432375,
      "d": 275,
      "v": 101
    },
    {
      "midi": 59,
      "hit": false,
      "t": 432750,
      "d": 275,
      "v": 117
    },
    {
      "midi": 64,
      "hit": false,
      "t": 432750,
      "d": 275,
      "v": 125
    },
    {
      "midi": 68,
      "hit": false,
      "t": 432750,
      "d": 275,
      "v": 127
    },
    {
      "midi": 59,
      "hit": false,
      "t": 433125,
      "d": 275,
      "v": 125
    },
    {
      "midi": 64,
      "hit": false,
      "t": 433125,
      "d": 275,
      "v": 125
    },
    {
      "midi": 68,
      "hit": false,
      "t": 433125,
      "d": 275,
      "v": 127
    },
    {
      "midi": 64,
      "hit": false,
      "t": 433500,
      "d": 281.25,
      "v": 127
    },
    {
      "midi": 68,
      "hit": false,
      "t": 433500,
      "d": 315.625,
      "v": 127
    },
    {
      "midi": 59,
      "hit": false,
      "t": 433500,
      "d": 1328.125,
      "v": 112
    },
    {
      "midi": 66,
      "hit": false,
      "t": 433875,
      "d": 915.625,
      "v": 127
    },
    {
      "midi": 64,
      "hit": false,
      "t": 433875,
      "d": 946.875,
      "v": 98
    },
    {
      "midi": 61,
      "hit": false,
      "t": 435000,
      "d": 915.625,
      "v": 111
    },
    {
      "midi": 66,
      "hit": false,
      "t": 435000,
      "d": 993.75,
      "v": 97
    },
    {
      "midi": 57,
      "hit": false,
      "t": 435000,
      "d": 1146.875,
      "v": 94
    },
    {
      "midi": 42,
      "hit": false,
      "t": 435000,
      "d": 1740.625,
      "v": 92
    },
    {
      "midi": 61,
      "hit": false,
      "t": 436500,
      "d": 734.375,
      "v": 111
    },
    {
      "midi": 66,
      "hit": false,
      "t": 436500,
      "d": 765.625,
      "v": 105
    },
    {
      "midi": 57,
      "hit": false,
      "t": 436500,
      "d": 768.75,
      "v": 97
    },
    {
      "midi": 42,
      "hit": false,
      "t": 437250,
      "d": 453.125,
      "v": 80
    },
    {
      "midi": 57,
      "hit": false,
      "t": 437625,
      "d": 1359.375,
      "v": 82
    },
    {
      "midi": 61,
      "hit": false,
      "t": 437625,
      "d": 1437.5,
      "v": 90
    },
    {
      "midi": 66,
      "hit": false,
      "t": 437625,
      "d": 1515.625,
      "v": 83
    },
    {
      "midi": 42,
      "hit": false,
      "t": 438000,
      "d": 671.875,
      "v": 89
    },
    {
      "midi": 42,
      "hit": false,
      "t": 438750,
      "d": 1021.875,
      "v": 52
    },
    {
      "midi": 57,
      "hit": false,
      "t": 439500,
      "d": 821.875,
      "v": 92
    },
    {
      "midi": 61,
      "hit": false,
      "t": 439500,
      "d": 828.125,
      "v": 111
    },
    {
      "midi": 66,
      "hit": false,
      "t": 439500,
      "d": 828.125,
      "v": 97
    },
    {
      "midi": 42,
      "hit": false,
      "t": 440250,
      "d": 534.375,
      "v": 92
    },
    {
      "midi": 61,
      "hit": false,
      "t": 440625,
      "d": 462.5,
      "v": 90
    },
    {
      "midi": 66,
      "hit": false,
      "t": 440625,
      "d": 634.375,
      "v": 86
    },
    {
      "midi": 57,
      "hit": false,
      "t": 440625,
      "d": 690.625,
      "v": 79
    },
    {
      "midi": 38,
      "hit": false,
      "t": 441000,
      "d": 1550,
      "v": 74
    },
    {
      "midi": 57,
      "hit": false,
      "t": 441750,
      "d": 428.125,
      "v": 57
    },
    {
      "midi": 62,
      "hit": false,
      "t": 441750,
      "d": 428.125,
      "v": 57
    },
    {
      "midi": 66,
      "hit": false,
      "t": 441750,
      "d": 428.125,
      "v": 57
    },
    {
      "midi": 57,
      "hit": false,
      "t": 442500,
      "d": 834.375,
      "v": 89
    },
    {
      "midi": 62,
      "hit": false,
      "t": 442500,
      "d": 853.125,
      "v": 105
    },
    {
      "midi": 66,
      "hit": false,
      "t": 442500,
      "d": 890.625,
      "v": 90
    },
    {
      "midi": 38,
      "hit": false,
      "t": 443250,
      "d": 525,
      "v": 90
    },
    {
      "midi": 57,
      "hit": false,
      "t": 443625,
      "d": 1500,
      "v": 77
    },
    {
      "midi": 62,
      "hit": false,
      "t": 443625,
      "d": 1500,
      "v": 77
    },
    {
      "midi": 66,
      "hit": false,
      "t": 443625,
      "d": 1500,
      "v": 73
    },
    {
      "midi": 38,
      "hit": false,
      "t": 444000,
      "d": 2878.125,
      "v": 90
    },
    {
      "midi": 74,
      "hit": false,
      "t": 444375,
      "d": 100,
      "v": 97
    },
    {
      "midi": 69,
      "hit": false,
      "t": 444375,
      "d": 103.125,
      "v": 92
    },
    {
      "midi": 78,
      "hit": false,
      "t": 444375,
      "d": 112.5,
      "v": 97
    },
    {
      "midi": 69,
      "hit": false,
      "t": 444750,
      "d": 100,
      "v": 92
    },
    {
      "midi": 74,
      "hit": false,
      "t": 444750,
      "d": 100,
      "v": 101
    },
    {
      "midi": 78,
      "hit": false,
      "t": 444750,
      "d": 100,
      "v": 105
    },
    {
      "midi": 74,
      "hit": false,
      "t": 445125,
      "d": 100,
      "v": 105
    },
    {
      "midi": 69,
      "hit": false,
      "t": 445125,
      "d": 103.125,
      "v": 87
    },
    {
      "midi": 78,
      "hit": false,
      "t": 445125,
      "d": 140.625,
      "v": 101
    },
    {
      "midi": 74,
      "hit": false,
      "t": 445500,
      "d": 112.5,
      "v": 111
    },
    {
      "midi": 69,
      "hit": false,
      "t": 445500,
      "d": 115.625,
      "v": 85
    },
    {
      "midi": 78,
      "hit": false,
      "t": 445500,
      "d": 118.75,
      "v": 101
    },
    {
      "midi": 69,
      "hit": false,
      "t": 445875,
      "d": 1125,
      "v": 89
    },
    {
      "midi": 74,
      "hit": false,
      "t": 445875,
      "d": 1125,
      "v": 105
    },
    {
      "midi": 78,
      "hit": false,
      "t": 445875,
      "d": 1125,
      "v": 101
    },
    {
      "midi": 61,
      "hit": false,
      "t": 447000,
      "d": 378.125,
      "v": 127
    },
    {
      "midi": 64,
      "hit": false,
      "t": 447000,
      "d": 406.25,
      "v": 127
    },
    {
      "midi": 69,
      "hit": false,
      "t": 447000,
      "d": 409.375,
      "v": 127
    },
    {
      "midi": 45,
      "hit": false,
      "t": 447000,
      "d": 440.625,
      "v": 127
    },
    {
      "midi": 68,
      "hit": false,
      "t": 448125,
      "d": 312.5,
      "v": 127
    },
    {
      "midi": 64,
      "hit": false,
      "t": 448125,
      "d": 315.625,
      "v": 127
    },
    {
      "midi": 44,
      "hit": false,
      "t": 448125,
      "d": 343.75,
      "v": 127
    },
    {
      "midi": 59,
      "hit": false,
      "t": 448125,
      "d": 346.875,
      "v": 127
    },
    {
      "midi": 38,
      "hit": false,
      "t": 449250,
      "d": 3750,
      "v": 127
    },
    {
      "midi": 57,
      "hit": false,
      "t": 449250,
      "d": 3750,
      "v": 127
    },
    {
      "midi": 61,
      "hit": false,
      "t": 449250,
      "d": 3750,
      "v": 127
    },
    {
      "midi": 66,
      "hit": false,
      "t": 449250,
      "d": 3750,
      "v": 127
    },
    {
      "midi": 61,
      "hit": false,
      "t": 453000,
      "d": 378.125,
      "v": 127
    },
    {
      "midi": 64,
      "hit": false,
      "t": 453000,
      "d": 406.25,
      "v": 127
    },
    {
      "midi": 69,
      "hit": false,
      "t": 453000,
      "d": 409.375,
      "v": 127
    },
    {
      "midi": 45,
      "hit": false,
      "t": 453000,
      "d": 440.625,
      "v": 127
    },
    {
      "midi": 68,
      "hit": false,
      "t": 454125,
      "d": 312.5,
      "v": 127
    },
    {
      "midi": 64,
      "hit": false,
      "t": 454125,
      "d": 315.625,
      "v": 127
    },
    {
      "midi": 44,
      "hit": false,
      "t": 454125,
      "d": 343.75,
      "v": 127
    },
    {
      "midi": 59,
      "hit": false,
      "t": 454125,
      "d": 346.875,
      "v": 127
    },
    {
      "midi": 38,
      "hit": false,
      "t": 455250,
      "d": 3750,
      "v": 127
    },
    {
      "midi": 57,
      "hit": false,
      "t": 455250,
      "d": 3750,
      "v": 127
    },
    {
      "midi": 61,
      "hit": false,
      "t": 455250,
      "d": 3750,
      "v": 127
    },
    {
      "midi": 66,
      "hit": false,
      "t": 455250,
      "d": 3750,
      "v": 127
    },
    {
      "midi": 61,
      "hit": false,
      "t": 459000,
      "d": 378.125,
      "v": 127
    },
    {
      "midi": 64,
      "hit": false,
      "t": 459000,
      "d": 406.25,
      "v": 127
    },
    {
      "midi": 69,
      "hit": false,
      "t": 459000,
      "d": 409.375,
      "v": 127
    },
    {
      "midi": 45,
      "hit": false,
      "t": 459000,
      "d": 440.625,
      "v": 127
    },
    {
      "midi": 68,
      "hit": false,
      "t": 460125,
      "d": 312.5,
      "v": 127
    },
    {
      "midi": 64,
      "hit": false,
      "t": 460125,
      "d": 315.625,
      "v": 127
    },
    {
      "midi": 44,
      "hit": false,
      "t": 460125,
      "d": 343.75,
      "v": 127
    },
    {
      "midi": 59,
      "hit": false,
      "t": 460125,
      "d": 346.875,
      "v": 127
    },
    {
      "midi": 38,
      "hit": false,
      "t": 461250,
      "d": 6750,
      "v": 127
    },
    {
      "midi": 57,
      "hit": false,
      "t": 461250,
      "d": 6750,
      "v": 127
    },
    {
      "midi": 61,
      "hit": false,
      "t": 461250,
      "d": 6750,
      "v": 127
    },
    {
      "midi": 66,
      "hit": false,
      "t": 461250,
      "d": 6750,
      "v": 127
    },
    {
      "midi": 68,
      "hit": false,
      "t": 468000,
      "d": 1003.125,
      "v": 107
    },
    {
      "midi": 65,
      "hit": false,
      "t": 468000,
      "d": 1031.25,
      "v": 121
    },
    {
      "midi": 73,
      "hit": false,
      "t": 468000,
      "d": 1084.375,
      "v": 114
    },
    {
      "midi": 49,
      "hit": false,
      "t": 468000,
      "d": 3396.875,
      "v": 107
    },
    {
      "midi": 56,
      "hit": false,
      "t": 468750,
      "d": 2600,
      "v": 98
    },
    {
      "midi": 68,
      "hit": false,
      "t": 469500,
      "d": 890.625,
      "v": 104
    },
    {
      "midi": 65,
      "hit": false,
      "t": 469500,
      "d": 1087.5,
      "v": 104
    },
    {
      "midi": 73,
      "hit": false,
      "t": 469500,
      "d": 1140.625,
      "v": 104
    },
    {
      "midi": 68,
      "hit": false,
      "t": 471000,
      "d": 987.5,
      "v": 97
    },
    {
      "midi": 65,
      "hit": false,
      "t": 471000,
      "d": 1009.375,
      "v": 97
    },
    {
      "midi": 73,
      "hit": false,
      "t": 471000,
      "d": 1009.375,
      "v": 97
    },
    {
      "midi": 49,
      "hit": false,
      "t": 471750,
      "d": 1900,
      "v": 117
    },
    {
      "midi": 56,
      "hit": false,
      "t": 471750,
      "d": 2000,
      "v": 107
    },
    {
      "midi": 73,
      "hit": false,
      "t": 472500,
      "d": 1006.25,
      "v": 127
    },
    {
      "midi": 65,
      "hit": false,
      "t": 472500,
      "d": 1034.375,
      "v": 127
    },
    {
      "midi": 68,
      "hit": false,
      "t": 472500,
      "d": 1162.5,
      "v": 127
    },
    {
      "midi": 63,
      "hit": false,
      "t": 472875,
      "d": 984.375,
      "v": 127
    },
    {
      "midi": 68,
      "hit": false,
      "t": 474000,
      "d": 1140.625,
      "v": 105
    },
    {
      "midi": 72,
      "hit": false,
      "t": 474000,
      "d": 1175,
      "v": 125
    },
    {
      "midi": 63,
      "hit": false,
      "t": 474000,
      "d": 1218.75,
      "v": 109
    },
    {
      "midi": 53,
      "hit": false,
      "t": 474000,
      "d": 1625,
      "v": 127
    },
    {
      "midi": 72,
      "hit": false,
      "t": 475500,
      "d": 1140.625,
      "v": 125
    },
    {
      "midi": 63,
      "hit": false,
      "t": 475500,
      "d": 1171.875,
      "v": 107
    },
    {
      "midi": 68,
      "hit": false,
      "t": 475500,
      "d": 1281.25,
      "v": 114
    },
    {
      "midi": 53,
      "hit": false,
      "t": 476250,
      "d": 3446.875,
      "v": 121
    },
    {
      "midi": 72,
      "hit": false,
      "t": 477000,
      "d": 56.25,
      "v": 90
    },
    {
      "midi": 68,
      "hit": false,
      "t": 477000,
      "d": 134.375,
      "v": 90
    },
    {
      "midi": 63,
      "hit": false,
      "t": 477000,
      "d": 159.375,
      "v": 90
    },
    {
      "midi": 72,
      "hit": false,
      "t": 477375,
      "d": 109.375,
      "v": 101
    },
    {
      "midi": 68,
      "hit": false,
      "t": 477375,
      "d": 112.5,
      "v": 96
    },
    {
      "midi": 63,
      "hit": false,
      "t": 477375,
      "d": 115.625,
      "v": 95
    },
    {
      "midi": 63,
      "hit": false,
      "t": 477750,
      "d": 131.25,
      "v": 117
    },
    {
      "midi": 68,
      "hit": false,
      "t": 477750,
      "d": 165.625,
      "v": 125
    },
    {
      "midi": 72,
      "hit": false,
      "t": 477750,
      "d": 165.625,
      "v": 127
    },
    {
      "midi": 63,
      "hit": false,
      "t": 478125,
      "d": 103.125,
      "v": 125
    },
    {
      "midi": 72,
      "hit": false,
      "t": 478125,
      "d": 159.375,
      "v": 127
    },
    {
      "midi": 68,
      "hit": false,
      "t": 478125,
      "d": 162.5,
      "v": 125
    },
    {
      "midi": 68,
      "hit": false,
      "t": 478500,
      "d": 281.25,
      "v": 127
    },
    {
      "midi": 72,
      "hit": false,
      "t": 478500,
      "d": 315.625,
      "v": 127
    },
    {
      "midi": 63,
      "hit": false,
      "t": 478500,
      "d": 1328.125,
      "v": 112
    },
    {
      "midi": 70,
      "hit": false,
      "t": 478875,
      "d": 915.625,
      "v": 127
    },
    {
      "midi": 68,
      "hit": false,
      "t": 478875,
      "d": 946.875,
      "v": 98
    },
    {
      "midi": 65,
      "hit": false,
      "t": 480000,
      "d": 915.625,
      "v": 111
    },
    {
      "midi": 70,
      "hit": false,
      "t": 480000,
      "d": 993.75,
      "v": 97
    },
    {
      "midi": 61,
      "hit": false,
      "t": 480000,
      "d": 1146.875,
      "v": 94
    },
    {
      "midi": 54,
      "hit": false,
      "t": 480000,
      "d": 1740.625,
      "v": 92
    },
    {
      "midi": 65,
      "hit": false,
      "t": 481500,
      "d": 734.375,
      "v": 111
    },
    {
      "midi": 70,
      "hit": false,
      "t": 481500,
      "d": 765.625,
      "v": 105
    },
    {
      "midi": 61,
      "hit": false,
      "t": 481500,
      "d": 768.75,
      "v": 97
    },
    {
      "midi": 54,
      "hit": false,
      "t": 482250,
      "d": 453.125,
      "v": 80
    },
    {
      "midi": 61,
      "hit": false,
      "t": 482625,
      "d": 1359.375,
      "v": 82
    },
    {
      "midi": 65,
      "hit": false,
      "t": 482625,
      "d": 1437.5,
      "v": 90
    },
    {
      "midi": 70,
      "hit": false,
      "t": 482625,
      "d": 1515.625,
      "v": 83
    },
    {
      "midi": 54,
      "hit": false,
      "t": 483000,
      "d": 750,
      "v": 89
    },
    {
      "midi": 54,
      "hit": false,
      "t": 483750,
      "d": 1021.875,
      "v": 52
    },
    {
      "midi": 61,
      "hit": false,
      "t": 484500,
      "d": 821.875,
      "v": 92
    },
    {
      "midi": 65,
      "hit": false,
      "t": 484500,
      "d": 828.125,
      "v": 111
    },
    {
      "midi": 70,
      "hit": false,
      "t": 484500,
      "d": 828.125,
      "v": 97
    },
    {
      "midi": 54,
      "hit": false,
      "t": 485250,
      "d": 534.375,
      "v": 92
    },
    {
      "midi": 65,
      "hit": false,
      "t": 485625,
      "d": 462.5,
      "v": 90
    },
    {
      "midi": 70,
      "hit": false,
      "t": 485625,
      "d": 634.375,
      "v": 86
    },
    {
      "midi": 61,
      "hit": false,
      "t": 485625,
      "d": 690.625,
      "v": 79
    },
    {
      "midi": 46,
      "hit": false,
      "t": 486000,
      "d": 1550,
      "v": 74
    },
    {
      "midi": 61,
      "hit": false,
      "t": 486750,
      "d": 428.125,
      "v": 57
    },
    {
      "midi": 65,
      "hit": false,
      "t": 486750,
      "d": 428.125,
      "v": 57
    },
    {
      "midi": 70,
      "hit": false,
      "t": 486750,
      "d": 428.125,
      "v": 57
    },
    {
      "midi": 61,
      "hit": false,
      "t": 487500,
      "d": 834.375,
      "v": 89
    },
    {
      "midi": 65,
      "hit": false,
      "t": 487500,
      "d": 853.125,
      "v": 105
    },
    {
      "midi": 70,
      "hit": false,
      "t": 487500,
      "d": 890.625,
      "v": 90
    },
    {
      "midi": 46,
      "hit": false,
      "t": 488250,
      "d": 525,
      "v": 90
    },
    {
      "midi": 61,
      "hit": false,
      "t": 488625,
      "d": 1500,
      "v": 77
    },
    {
      "midi": 65,
      "hit": false,
      "t": 488625,
      "d": 1500,
      "v": 77
    },
    {
      "midi": 70,
      "hit": false,
      "t": 488625,
      "d": 1500,
      "v": 73
    },
    {
      "midi": 46,
      "hit": false,
      "t": 489000,
      "d": 2878.125,
      "v": 90
    },
    {
      "midi": 77,
      "hit": false,
      "t": 489375,
      "d": 100,
      "v": 97
    },
    {
      "midi": 73,
      "hit": false,
      "t": 489375,
      "d": 103.125,
      "v": 92
    },
    {
      "midi": 82,
      "hit": false,
      "t": 489375,
      "d": 112.5,
      "v": 97
    },
    {
      "midi": 73,
      "hit": false,
      "t": 489750,
      "d": 100,
      "v": 92
    },
    {
      "midi": 77,
      "hit": false,
      "t": 489750,
      "d": 100,
      "v": 101
    },
    {
      "midi": 82,
      "hit": false,
      "t": 489750,
      "d": 100,
      "v": 105
    },
    {
      "midi": 77,
      "hit": false,
      "t": 490125,
      "d": 100,
      "v": 105
    },
    {
      "midi": 73,
      "hit": false,
      "t": 490125,
      "d": 103.125,
      "v": 87
    },
    {
      "midi": 82,
      "hit": false,
      "t": 490125,
      "d": 140.625,
      "v": 101
    },
    {
      "midi": 77,
      "hit": false,
      "t": 490500,
      "d": 112.5,
      "v": 111
    },
    {
      "midi": 73,
      "hit": false,
      "t": 490500,
      "d": 115.625,
      "v": 85
    },
    {
      "midi": 82,
      "hit": false,
      "t": 490500,
      "d": 118.75,
      "v": 101
    },
    {
      "midi": 73,
      "hit": false,
      "t": 490875,
      "d": 1125,
      "v": 89
    },
    {
      "midi": 77,
      "hit": false,
      "t": 490875,
      "d": 1125,
      "v": 105
    },
    {
      "midi": 82,
      "hit": false,
      "t": 490875,
      "d": 1125,
      "v": 101
    },
    {
      "midi": 68,
      "hit": false,
      "t": 492000,
      "d": 1003.125,
      "v": 107
    },
    {
      "midi": 65,
      "hit": false,
      "t": 492000,
      "d": 1031.25,
      "v": 121
    },
    {
      "midi": 73,
      "hit": false,
      "t": 492000,
      "d": 1084.375,
      "v": 114
    },
    {
      "midi": 49,
      "hit": false,
      "t": 492000,
      "d": 3396.875,
      "v": 107
    },
    {
      "midi": 56,
      "hit": false,
      "t": 492750,
      "d": 2600,
      "v": 98
    },
    {
      "midi": 68,
      "hit": false,
      "t": 493500,
      "d": 890.625,
      "v": 104
    },
    {
      "midi": 65,
      "hit": false,
      "t": 493500,
      "d": 1087.5,
      "v": 104
    },
    {
      "midi": 73,
      "hit": false,
      "t": 493500,
      "d": 1140.625,
      "v": 104
    },
    {
      "midi": 68,
      "hit": false,
      "t": 495000,
      "d": 987.5,
      "v": 97
    },
    {
      "midi": 65,
      "hit": false,
      "t": 495000,
      "d": 1009.375,
      "v": 97
    },
    {
      "midi": 73,
      "hit": false,
      "t": 495000,
      "d": 1009.375,
      "v": 97
    },
    {
      "midi": 49,
      "hit": false,
      "t": 495750,
      "d": 1900,
      "v": 117
    },
    {
      "midi": 56,
      "hit": false,
      "t": 495750,
      "d": 2000,
      "v": 107
    },
    {
      "midi": 73,
      "hit": false,
      "t": 496500,
      "d": 1006.25,
      "v": 127
    },
    {
      "midi": 65,
      "hit": false,
      "t": 496500,
      "d": 1034.375,
      "v": 127
    },
    {
      "midi": 68,
      "hit": false,
      "t": 496500,
      "d": 1162.5,
      "v": 127
    },
    {
      "midi": 63,
      "hit": false,
      "t": 496875,
      "d": 984.375,
      "v": 127
    },
    {
      "midi": 68,
      "hit": false,
      "t": 498000,
      "d": 1140.625,
      "v": 105
    },
    {
      "midi": 72,
      "hit": false,
      "t": 498000,
      "d": 1175,
      "v": 125
    },
    {
      "midi": 63,
      "hit": false,
      "t": 498000,
      "d": 1218.75,
      "v": 109
    },
    {
      "midi": 53,
      "hit": false,
      "t": 498000,
      "d": 1625,
      "v": 127
    },
    {
      "midi": 72,
      "hit": false,
      "t": 499500,
      "d": 1140.625,
      "v": 125
    },
    {
      "midi": 63,
      "hit": false,
      "t": 499500,
      "d": 1171.875,
      "v": 107
    },
    {
      "midi": 68,
      "hit": false,
      "t": 499500,
      "d": 1281.25,
      "v": 114
    },
    {
      "midi": 53,
      "hit": false,
      "t": 500250,
      "d": 3446.875,
      "v": 121
    },
    {
      "midi": 72,
      "hit": false,
      "t": 501000,
      "d": 56.25,
      "v": 90
    },
    {
      "midi": 68,
      "hit": false,
      "t": 501000,
      "d": 134.375,
      "v": 90
    },
    {
      "midi": 63,
      "hit": false,
      "t": 501000,
      "d": 159.375,
      "v": 90
    },
    {
      "midi": 72,
      "hit": false,
      "t": 501375,
      "d": 109.375,
      "v": 101
    },
    {
      "midi": 68,
      "hit": false,
      "t": 501375,
      "d": 112.5,
      "v": 96
    },
    {
      "midi": 63,
      "hit": false,
      "t": 501375,
      "d": 115.625,
      "v": 95
    },
    {
      "midi": 63,
      "hit": false,
      "t": 501750,
      "d": 131.25,
      "v": 117
    },
    {
      "midi": 68,
      "hit": false,
      "t": 501750,
      "d": 165.625,
      "v": 125
    },
    {
      "midi": 72,
      "hit": false,
      "t": 501750,
      "d": 165.625,
      "v": 127
    },
    {
      "midi": 63,
      "hit": false,
      "t": 502125,
      "d": 103.125,
      "v": 125
    },
    {
      "midi": 72,
      "hit": false,
      "t": 502125,
      "d": 159.375,
      "v": 127
    },
    {
      "midi": 68,
      "hit": false,
      "t": 502125,
      "d": 162.5,
      "v": 125
    },
    {
      "midi": 68,
      "hit": false,
      "t": 502500,
      "d": 281.25,
      "v": 127
    },
    {
      "midi": 72,
      "hit": false,
      "t": 502500,
      "d": 315.625,
      "v": 127
    },
    {
      "midi": 63,
      "hit": false,
      "t": 502500,
      "d": 1328.125,
      "v": 112
    },
    {
      "midi": 70,
      "hit": false,
      "t": 502875,
      "d": 915.625,
      "v": 127
    },
    {
      "midi": 68,
      "hit": false,
      "t": 502875,
      "d": 946.875,
      "v": 98
    },
    {
      "midi": 65,
      "hit": false,
      "t": 504000,
      "d": 915.625,
      "v": 111
    },
    {
      "midi": 70,
      "hit": false,
      "t": 504000,
      "d": 993.75,
      "v": 97
    },
    {
      "midi": 61,
      "hit": false,
      "t": 504000,
      "d": 1146.875,
      "v": 94
    },
    {
      "midi": 54,
      "hit": false,
      "t": 504000,
      "d": 1740.625,
      "v": 92
    },
    {
      "midi": 65,
      "hit": false,
      "t": 505500,
      "d": 734.375,
      "v": 111
    },
    {
      "midi": 70,
      "hit": false,
      "t": 505500,
      "d": 765.625,
      "v": 105
    },
    {
      "midi": 61,
      "hit": false,
      "t": 505500,
      "d": 768.75,
      "v": 97
    },
    {
      "midi": 54,
      "hit": false,
      "t": 506250,
      "d": 453.125,
      "v": 80
    },
    {
      "midi": 61,
      "hit": false,
      "t": 506625,
      "d": 1359.375,
      "v": 82
    },
    {
      "midi": 65,
      "hit": false,
      "t": 506625,
      "d": 1437.5,
      "v": 90
    },
    {
      "midi": 70,
      "hit": false,
      "t": 506625,
      "d": 1515.625,
      "v": 83
    },
    {
      "midi": 54,
      "hit": false,
      "t": 507000,
      "d": 750,
      "v": 89
    },
    {
      "midi": 54,
      "hit": false,
      "t": 507750,
      "d": 1021.875,
      "v": 52
    },
    {
      "midi": 61,
      "hit": false,
      "t": 508500,
      "d": 821.875,
      "v": 92
    },
    {
      "midi": 65,
      "hit": false,
      "t": 508500,
      "d": 828.125,
      "v": 111
    },
    {
      "midi": 70,
      "hit": false,
      "t": 508500,
      "d": 828.125,
      "v": 97
    },
    {
      "midi": 54,
      "hit": false,
      "t": 509250,
      "d": 534.375,
      "v": 92
    },
    {
      "midi": 65,
      "hit": false,
      "t": 509625,
      "d": 462.5,
      "v": 90
    },
    {
      "midi": 70,
      "hit": false,
      "t": 509625,
      "d": 634.375,
      "v": 86
    },
    {
      "midi": 61,
      "hit": false,
      "t": 509625,
      "d": 690.625,
      "v": 79
    },
    {
      "midi": 46,
      "hit": false,
      "t": 510000,
      "d": 1550,
      "v": 74
    },
    {
      "midi": 61,
      "hit": false,
      "t": 510750,
      "d": 428.125,
      "v": 57
    },
    {
      "midi": 65,
      "hit": false,
      "t": 510750,
      "d": 428.125,
      "v": 57
    },
    {
      "midi": 70,
      "hit": false,
      "t": 510750,
      "d": 428.125,
      "v": 57
    },
    {
      "midi": 61,
      "hit": false,
      "t": 511500,
      "d": 834.375,
      "v": 89
    },
    {
      "midi": 65,
      "hit": false,
      "t": 511500,
      "d": 853.125,
      "v": 105
    },
    {
      "midi": 70,
      "hit": false,
      "t": 511500,
      "d": 890.625,
      "v": 90
    },
    {
      "midi": 46,
      "hit": false,
      "t": 512250,
      "d": 525,
      "v": 90
    },
    {
      "midi": 61,
      "hit": false,
      "t": 512625,
      "d": 1500,
      "v": 77
    },
    {
      "midi": 65,
      "hit": false,
      "t": 512625,
      "d": 1500,
      "v": 77
    },
    {
      "midi": 70,
      "hit": false,
      "t": 512625,
      "d": 1500,
      "v": 73
    },
    {
      "midi": 46,
      "hit": false,
      "t": 513000,
      "d": 2878.125,
      "v": 90
    },
    {
      "midi": 77,
      "hit": false,
      "t": 513375,
      "d": 100,
      "v": 97
    },
    {
      "midi": 73,
      "hit": false,
      "t": 513375,
      "d": 103.125,
      "v": 92
    },
    {
      "midi": 82,
      "hit": false,
      "t": 513375,
      "d": 112.5,
      "v": 97
    },
    {
      "midi": 73,
      "hit": false,
      "t": 513750,
      "d": 100,
      "v": 92
    },
    {
      "midi": 77,
      "hit": false,
      "t": 513750,
      "d": 100,
      "v": 101
    },
    {
      "midi": 82,
      "hit": false,
      "t": 513750,
      "d": 100,
      "v": 105
    },
    {
      "midi": 77,
      "hit": false,
      "t": 514125,
      "d": 100,
      "v": 105
    },
    {
      "midi": 73,
      "hit": false,
      "t": 514125,
      "d": 103.125,
      "v": 87
    },
    {
      "midi": 82,
      "hit": false,
      "t": 514125,
      "d": 140.625,
      "v": 101
    },
    {
      "midi": 77,
      "hit": false,
      "t": 514500,
      "d": 112.5,
      "v": 111
    },
    {
      "midi": 73,
      "hit": false,
      "t": 514500,
      "d": 115.625,
      "v": 85
    },
    {
      "midi": 82,
      "hit": false,
      "t": 514500,
      "d": 118.75,
      "v": 101
    },
    {
      "midi": 73,
      "hit": false,
      "t": 514875,
      "d": 1125,
      "v": 89
    },
    {
      "midi": 77,
      "hit": false,
      "t": 514875,
      "d": 1125,
      "v": 105
    },
    {
      "midi": 82,
      "hit": false,
      "t": 514875,
      "d": 1125,
      "v": 101
    },
    {
      "midi": 68,
      "hit": false,
      "t": 516000,
      "d": 1003.125,
      "v": 107
    },
    {
      "midi": 65,
      "hit": false,
      "t": 516000,
      "d": 1031.25,
      "v": 121
    },
    {
      "midi": 73,
      "hit": false,
      "t": 516000,
      "d": 1084.375,
      "v": 114
    },
    {
      "midi": 49,
      "hit": false,
      "t": 516000,
      "d": 3396.875,
      "v": 107
    },
    {
      "midi": 56,
      "hit": false,
      "t": 516750,
      "d": 2600,
      "v": 98
    },
    {
      "midi": 68,
      "hit": false,
      "t": 517500,
      "d": 890.625,
      "v": 104
    },
    {
      "midi": 65,
      "hit": false,
      "t": 517500,
      "d": 1087.5,
      "v": 104
    },
    {
      "midi": 73,
      "hit": false,
      "t": 517500,
      "d": 1140.625,
      "v": 104
    },
    {
      "midi": 68,
      "hit": false,
      "t": 519000,
      "d": 987.5,
      "v": 97
    },
    {
      "midi": 65,
      "hit": false,
      "t": 519000,
      "d": 1009.375,
      "v": 97
    },
    {
      "midi": 73,
      "hit": false,
      "t": 519000,
      "d": 1009.375,
      "v": 97
    },
    {
      "midi": 49,
      "hit": false,
      "t": 519750,
      "d": 1900,
      "v": 117
    },
    {
      "midi": 56,
      "hit": false,
      "t": 519750,
      "d": 2000,
      "v": 107
    },
    {
      "midi": 73,
      "hit": false,
      "t": 520500,
      "d": 1006.25,
      "v": 127
    },
    {
      "midi": 65,
      "hit": false,
      "t": 520500,
      "d": 1034.375,
      "v": 127
    },
    {
      "midi": 68,
      "hit": false,
      "t": 520500,
      "d": 1162.5,
      "v": 127
    },
    {
      "midi": 63,
      "hit": false,
      "t": 520875,
      "d": 984.375,
      "v": 127
    },
    {
      "midi": 68,
      "hit": false,
      "t": 522000,
      "d": 1140.625,
      "v": 105
    },
    {
      "midi": 72,
      "hit": false,
      "t": 522000,
      "d": 1175,
      "v": 125
    },
    {
      "midi": 63,
      "hit": false,
      "t": 522000,
      "d": 1218.75,
      "v": 109
    },
    {
      "midi": 53,
      "hit": false,
      "t": 522000,
      "d": 1625,
      "v": 127
    },
    {
      "midi": 72,
      "hit": false,
      "t": 523500,
      "d": 1140.625,
      "v": 125
    },
    {
      "midi": 63,
      "hit": false,
      "t": 523500,
      "d": 1171.875,
      "v": 107
    },
    {
      "midi": 68,
      "hit": false,
      "t": 523500,
      "d": 1281.25,
      "v": 114
    },
    {
      "midi": 53,
      "hit": false,
      "t": 524250,
      "d": 3446.875,
      "v": 121
    },
    {
      "midi": 72,
      "hit": false,
      "t": 525000,
      "d": 56.25,
      "v": 90
    },
    {
      "midi": 68,
      "hit": false,
      "t": 525000,
      "d": 134.375,
      "v": 90
    },
    {
      "midi": 63,
      "hit": false,
      "t": 525000,
      "d": 159.375,
      "v": 90
    },
    {
      "midi": 72,
      "hit": false,
      "t": 525375,
      "d": 109.375,
      "v": 101
    },
    {
      "midi": 68,
      "hit": false,
      "t": 525375,
      "d": 112.5,
      "v": 96
    },
    {
      "midi": 63,
      "hit": false,
      "t": 525375,
      "d": 115.625,
      "v": 95
    },
    {
      "midi": 63,
      "hit": false,
      "t": 525750,
      "d": 131.25,
      "v": 117
    },
    {
      "midi": 68,
      "hit": false,
      "t": 525750,
      "d": 165.625,
      "v": 125
    },
    {
      "midi": 72,
      "hit": false,
      "t": 525750,
      "d": 165.625,
      "v": 127
    },
    {
      "midi": 63,
      "hit": false,
      "t": 526125,
      "d": 103.125,
      "v": 125
    },
    {
      "midi": 72,
      "hit": false,
      "t": 526125,
      "d": 159.375,
      "v": 127
    },
    {
      "midi": 68,
      "hit": false,
      "t": 526125,
      "d": 162.5,
      "v": 125
    },
    {
      "midi": 68,
      "hit": false,
      "t": 526500,
      "d": 281.25,
      "v": 127
    },
    {
      "midi": 72,
      "hit": false,
      "t": 526500,
      "d": 315.625,
      "v": 127
    },
    {
      "midi": 63,
      "hit": false,
      "t": 526500,
      "d": 1328.125,
      "v": 112
    },
    {
      "midi": 70,
      "hit": false,
      "t": 526875,
      "d": 915.625,
      "v": 127
    },
    {
      "midi": 68,
      "hit": false,
      "t": 526875,
      "d": 946.875,
      "v": 98
    },
    {
      "midi": 65,
      "hit": false,
      "t": 528000,
      "d": 915.625,
      "v": 111
    },
    {
      "midi": 70,
      "hit": false,
      "t": 528000,
      "d": 993.75,
      "v": 97
    },
    {
      "midi": 61,
      "hit": false,
      "t": 528000,
      "d": 1146.875,
      "v": 94
    },
    {
      "midi": 54,
      "hit": false,
      "t": 528000,
      "d": 1740.625,
      "v": 92
    },
    {
      "midi": 65,
      "hit": false,
      "t": 529500,
      "d": 734.375,
      "v": 111
    },
    {
      "midi": 70,
      "hit": false,
      "t": 529500,
      "d": 765.625,
      "v": 105
    },
    {
      "midi": 61,
      "hit": false,
      "t": 529500,
      "d": 768.75,
      "v": 97
    },
    {
      "midi": 54,
      "hit": false,
      "t": 530250,
      "d": 453.125,
      "v": 80
    },
    {
      "midi": 61,
      "hit": false,
      "t": 530625,
      "d": 1359.375,
      "v": 82
    },
    {
      "midi": 65,
      "hit": false,
      "t": 530625,
      "d": 1437.5,
      "v": 90
    },
    {
      "midi": 70,
      "hit": false,
      "t": 530625,
      "d": 1515.625,
      "v": 83
    },
    {
      "midi": 54,
      "hit": false,
      "t": 531000,
      "d": 750,
      "v": 89
    },
    {
      "midi": 54,
      "hit": false,
      "t": 531750,
      "d": 1021.875,
      "v": 52
    },
    {
      "midi": 61,
      "hit": false,
      "t": 532500,
      "d": 821.875,
      "v": 92
    },
    {
      "midi": 65,
      "hit": false,
      "t": 532500,
      "d": 828.125,
      "v": 111
    },
    {
      "midi": 70,
      "hit": false,
      "t": 532500,
      "d": 828.125,
      "v": 97
    },
    {
      "midi": 54,
      "hit": false,
      "t": 533250,
      "d": 534.375,
      "v": 92
    },
    {
      "midi": 65,
      "hit": false,
      "t": 533625,
      "d": 462.5,
      "v": 90
    },
    {
      "midi": 70,
      "hit": false,
      "t": 533625,
      "d": 634.375,
      "v": 86
    },
    {
      "midi": 61,
      "hit": false,
      "t": 533625,
      "d": 690.625,
      "v": 79
    },
    {
      "midi": 46,
      "hit": false,
      "t": 534000,
      "d": 1550,
      "v": 74
    },
    {
      "midi": 61,
      "hit": false,
      "t": 534750,
      "d": 428.125,
      "v": 57
    },
    {
      "midi": 65,
      "hit": false,
      "t": 534750,
      "d": 428.125,
      "v": 57
    },
    {
      "midi": 70,
      "hit": false,
      "t": 534750,
      "d": 428.125,
      "v": 57
    },
    {
      "midi": 61,
      "hit": false,
      "t": 535500,
      "d": 834.375,
      "v": 89
    },
    {
      "midi": 65,
      "hit": false,
      "t": 535500,
      "d": 853.125,
      "v": 105
    },
    {
      "midi": 70,
      "hit": false,
      "t": 535500,
      "d": 890.625,
      "v": 90
    },
    {
      "midi": 46,
      "hit": false,
      "t": 536250,
      "d": 525,
      "v": 90
    },
    {
      "midi": 61,
      "hit": false,
      "t": 536625,
      "d": 1500,
      "v": 77
    },
    {
      "midi": 65,
      "hit": false,
      "t": 536625,
      "d": 1500,
      "v": 77
    },
    {
      "midi": 70,
      "hit": false,
      "t": 536625,
      "d": 1500,
      "v": 73
    },
    {
      "midi": 46,
      "hit": false,
      "t": 537000,
      "d": 2878.125,
      "v": 90
    },
    {
      "midi": 77,
      "hit": false,
      "t": 537375,
      "d": 100,
      "v": 97
    },
    {
      "midi": 73,
      "hit": false,
      "t": 537375,
      "d": 103.125,
      "v": 92
    },
    {
      "midi": 82,
      "hit": false,
      "t": 537375,
      "d": 112.5,
      "v": 97
    },
    {
      "midi": 73,
      "hit": false,
      "t": 537750,
      "d": 100,
      "v": 92
    },
    {
      "midi": 77,
      "hit": false,
      "t": 537750,
      "d": 100,
      "v": 101
    },
    {
      "midi": 82,
      "hit": false,
      "t": 537750,
      "d": 100,
      "v": 105
    },
    {
      "midi": 77,
      "hit": false,
      "t": 538125,
      "d": 100,
      "v": 105
    },
    {
      "midi": 73,
      "hit": false,
      "t": 538125,
      "d": 103.125,
      "v": 87
    },
    {
      "midi": 82,
      "hit": false,
      "t": 538125,
      "d": 140.625,
      "v": 101
    },
    {
      "midi": 77,
      "hit": false,
      "t": 538500,
      "d": 112.5,
      "v": 111
    },
    {
      "midi": 73,
      "hit": false,
      "t": 538500,
      "d": 115.625,
      "v": 85
    },
    {
      "midi": 82,
      "hit": false,
      "t": 538500,
      "d": 118.75,
      "v": 101
    },
    {
      "midi": 73,
      "hit": false,
      "t": 538875,
      "d": 1125,
      "v": 89
    },
    {
      "midi": 77,
      "hit": false,
      "t": 538875,
      "d": 1125,
      "v": 105
    },
    {
      "midi": 82,
      "hit": false,
      "t": 538875,
      "d": 1125,
      "v": 101
    },
    {
      "midi": 68,
      "hit": false,
      "t": 540000,
      "d": 1003.125,
      "v": 107
    },
    {
      "midi": 65,
      "hit": false,
      "t": 540000,
      "d": 1031.25,
      "v": 121
    },
    {
      "midi": 73,
      "hit": false,
      "t": 540000,
      "d": 1084.375,
      "v": 114
    },
    {
      "midi": 49,
      "hit": false,
      "t": 540000,
      "d": 3396.875,
      "v": 107
    },
    {
      "midi": 56,
      "hit": false,
      "t": 540750,
      "d": 2600,
      "v": 98
    },
    {
      "midi": 68,
      "hit": false,
      "t": 541500,
      "d": 890.625,
      "v": 104
    },
    {
      "midi": 65,
      "hit": false,
      "t": 541500,
      "d": 1087.5,
      "v": 104
    },
    {
      "midi": 73,
      "hit": false,
      "t": 541500,
      "d": 1140.625,
      "v": 104
    },
    {
      "midi": 68,
      "hit": false,
      "t": 543000,
      "d": 987.5,
      "v": 97
    },
    {
      "midi": 65,
      "hit": false,
      "t": 543000,
      "d": 1009.375,
      "v": 97
    },
    {
      "midi": 73,
      "hit": false,
      "t": 543000,
      "d": 1009.375,
      "v": 97
    },
    {
      "midi": 49,
      "hit": false,
      "t": 543750,
      "d": 1900,
      "v": 117
    },
    {
      "midi": 56,
      "hit": false,
      "t": 543750,
      "d": 2000,
      "v": 107
    },
    {
      "midi": 73,
      "hit": false,
      "t": 544500,
      "d": 1006.25,
      "v": 127
    },
    {
      "midi": 65,
      "hit": false,
      "t": 544500,
      "d": 1034.375,
      "v": 127
    },
    {
      "midi": 68,
      "hit": false,
      "t": 544500,
      "d": 1162.5,
      "v": 127
    },
    {
      "midi": 63,
      "hit": false,
      "t": 544875,
      "d": 984.375,
      "v": 127
    },
    {
      "midi": 68,
      "hit": false,
      "t": 546000,
      "d": 1140.625,
      "v": 105
    },
    {
      "midi": 72,
      "hit": false,
      "t": 546000,
      "d": 1175,
      "v": 125
    },
    {
      "midi": 63,
      "hit": false,
      "t": 546000,
      "d": 1218.75,
      "v": 109
    },
    {
      "midi": 53,
      "hit": false,
      "t": 546000,
      "d": 1625,
      "v": 127
    },
    {
      "midi": 72,
      "hit": false,
      "t": 547500,
      "d": 1140.625,
      "v": 125
    },
    {
      "midi": 63,
      "hit": false,
      "t": 547500,
      "d": 1171.875,
      "v": 107
    },
    {
      "midi": 68,
      "hit": false,
      "t": 547500,
      "d": 1281.25,
      "v": 114
    },
    {
      "midi": 53,
      "hit": false,
      "t": 548250,
      "d": 3446.875,
      "v": 121
    },
    {
      "midi": 72,
      "hit": false,
      "t": 549000,
      "d": 56.25,
      "v": 90
    },
    {
      "midi": 68,
      "hit": false,
      "t": 549000,
      "d": 134.375,
      "v": 90
    },
    {
      "midi": 63,
      "hit": false,
      "t": 549000,
      "d": 159.375,
      "v": 90
    },
    {
      "midi": 72,
      "hit": false,
      "t": 549375,
      "d": 109.375,
      "v": 101
    },
    {
      "midi": 68,
      "hit": false,
      "t": 549375,
      "d": 112.5,
      "v": 96
    },
    {
      "midi": 63,
      "hit": false,
      "t": 549375,
      "d": 115.625,
      "v": 95
    },
    {
      "midi": 63,
      "hit": false,
      "t": 549750,
      "d": 131.25,
      "v": 117
    },
    {
      "midi": 68,
      "hit": false,
      "t": 549750,
      "d": 165.625,
      "v": 125
    },
    {
      "midi": 72,
      "hit": false,
      "t": 549750,
      "d": 165.625,
      "v": 127
    },
    {
      "midi": 63,
      "hit": false,
      "t": 550125,
      "d": 103.125,
      "v": 125
    },
    {
      "midi": 72,
      "hit": false,
      "t": 550125,
      "d": 159.375,
      "v": 127
    },
    {
      "midi": 68,
      "hit": false,
      "t": 550125,
      "d": 162.5,
      "v": 125
    },
    {
      "midi": 68,
      "hit": false,
      "t": 550500,
      "d": 281.25,
      "v": 127
    },
    {
      "midi": 72,
      "hit": false,
      "t": 550500,
      "d": 315.625,
      "v": 127
    },
    {
      "midi": 63,
      "hit": false,
      "t": 550500,
      "d": 1328.125,
      "v": 112
    },
    {
      "midi": 70,
      "hit": false,
      "t": 550875,
      "d": 915.625,
      "v": 127
    },
    {
      "midi": 68,
      "hit": false,
      "t": 550875,
      "d": 946.875,
      "v": 98
    },
    {
      "midi": 65,
      "hit": false,
      "t": 552000,
      "d": 915.625,
      "v": 111
    },
    {
      "midi": 70,
      "hit": false,
      "t": 552000,
      "d": 993.75,
      "v": 97
    },
    {
      "midi": 61,
      "hit": false,
      "t": 552000,
      "d": 1146.875,
      "v": 94
    },
    {
      "midi": 54,
      "hit": false,
      "t": 552000,
      "d": 1740.625,
      "v": 92
    },
    {
      "midi": 65,
      "hit": false,
      "t": 553500,
      "d": 734.375,
      "v": 111
    },
    {
      "midi": 70,
      "hit": false,
      "t": 553500,
      "d": 765.625,
      "v": 105
    },
    {
      "midi": 61,
      "hit": false,
      "t": 553500,
      "d": 768.75,
      "v": 97
    },
    {
      "midi": 54,
      "hit": false,
      "t": 554250,
      "d": 453.125,
      "v": 80
    },
    {
      "midi": 61,
      "hit": false,
      "t": 554625,
      "d": 1359.375,
      "v": 82
    },
    {
      "midi": 65,
      "hit": false,
      "t": 554625,
      "d": 1437.5,
      "v": 90
    },
    {
      "midi": 70,
      "hit": false,
      "t": 554625,
      "d": 1515.625,
      "v": 83
    },
    {
      "midi": 54,
      "hit": false,
      "t": 555000,
      "d": 750,
      "v": 89
    },
    {
      "midi": 54,
      "hit": false,
      "t": 555750,
      "d": 1021.875,
      "v": 52
    },
    {
      "midi": 61,
      "hit": false,
      "t": 556500,
      "d": 821.875,
      "v": 92
    },
    {
      "midi": 65,
      "hit": false,
      "t": 556500,
      "d": 828.125,
      "v": 111
    },
    {
      "midi": 70,
      "hit": false,
      "t": 556500,
      "d": 828.125,
      "v": 97
    },
    {
      "midi": 54,
      "hit": false,
      "t": 557250,
      "d": 534.375,
      "v": 92
    },
    {
      "midi": 65,
      "hit": false,
      "t": 557625,
      "d": 462.5,
      "v": 90
    },
    {
      "midi": 70,
      "hit": false,
      "t": 557625,
      "d": 634.375,
      "v": 86
    },
    {
      "midi": 61,
      "hit": false,
      "t": 557625,
      "d": 690.625,
      "v": 79
    },
    {
      "midi": 46,
      "hit": false,
      "t": 558000,
      "d": 1550,
      "v": 74
    },
    {
      "midi": 61,
      "hit": false,
      "t": 558750,
      "d": 428.125,
      "v": 57
    },
    {
      "midi": 65,
      "hit": false,
      "t": 558750,
      "d": 428.125,
      "v": 57
    },
    {
      "midi": 70,
      "hit": false,
      "t": 558750,
      "d": 428.125,
      "v": 57
    },
    {
      "midi": 61,
      "hit": false,
      "t": 559500,
      "d": 834.375,
      "v": 89
    },
    {
      "midi": 65,
      "hit": false,
      "t": 559500,
      "d": 853.125,
      "v": 105
    },
    {
      "midi": 70,
      "hit": false,
      "t": 559500,
      "d": 890.625,
      "v": 90
    },
    {
      "midi": 46,
      "hit": false,
      "t": 560250,
      "d": 525,
      "v": 90
    },
    {
      "midi": 61,
      "hit": false,
      "t": 560625,
      "d": 1500,
      "v": 77
    },
    {
      "midi": 65,
      "hit": false,
      "t": 560625,
      "d": 1500,
      "v": 77
    },
    {
      "midi": 70,
      "hit": false,
      "t": 560625,
      "d": 1500,
      "v": 73
    },
    {
      "midi": 46,
      "hit": false,
      "t": 561000,
      "d": 2878.125,
      "v": 90
    },
    {
      "midi": 77,
      "hit": false,
      "t": 561375,
      "d": 100,
      "v": 97
    },
    {
      "midi": 73,
      "hit": false,
      "t": 561375,
      "d": 103.125,
      "v": 92
    },
    {
      "midi": 82,
      "hit": false,
      "t": 561375,
      "d": 112.5,
      "v": 97
    },
    {
      "midi": 73,
      "hit": false,
      "t": 561750,
      "d": 100,
      "v": 92
    },
    {
      "midi": 77,
      "hit": false,
      "t": 561750,
      "d": 100,
      "v": 101
    },
    {
      "midi": 82,
      "hit": false,
      "t": 561750,
      "d": 100,
      "v": 105
    },
    {
      "midi": 77,
      "hit": false,
      "t": 562125,
      "d": 100,
      "v": 105
    },
    {
      "midi": 73,
      "hit": false,
      "t": 562125,
      "d": 103.125,
      "v": 87
    },
    {
      "midi": 82,
      "hit": false,
      "t": 562125,
      "d": 140.625,
      "v": 101
    },
    {
      "midi": 77,
      "hit": false,
      "t": 562500,
      "d": 112.5,
      "v": 111
    },
    {
      "midi": 73,
      "hit": false,
      "t": 562500,
      "d": 115.625,
      "v": 85
    },
    {
      "midi": 82,
      "hit": false,
      "t": 562500,
      "d": 118.75,
      "v": 101
    },
    {
      "midi": 73,
      "hit": false,
      "t": 562875,
      "d": 1125,
      "v": 89
    },
    {
      "midi": 77,
      "hit": false,
      "t": 562875,
      "d": 1125,
      "v": 105
    },
    {
      "midi": 82,
      "hit": false,
      "t": 562875,
      "d": 1125,
      "v": 101
    },
    {
      "midi": 65,
      "hit": false,
      "t": 564000,
      "d": 378.125,
      "v": 127
    },
    {
      "midi": 68,
      "hit": false,
      "t": 564000,
      "d": 406.25,
      "v": 127
    },
    {
      "midi": 73,
      "hit": false,
      "t": 564000,
      "d": 409.375,
      "v": 127
    },
    {
      "midi": 49,
      "hit": false,
      "t": 564000,
      "d": 440.625,
      "v": 127
    },
    {
      "midi": 72,
      "hit": false,
      "t": 565125,
      "d": 312.5,
      "v": 127
    },
    {
      "midi": 68,
      "hit": false,
      "t": 565125,
      "d": 315.625,
      "v": 127
    },
    {
      "midi": 48,
      "hit": false,
      "t": 565125,
      "d": 343.75,
      "v": 127
    },
    {
      "midi": 63,
      "hit": false,
      "t": 565125,
      "d": 346.875,
      "v": 127
    },
    {
      "midi": 42,
      "hit": false,
      "t": 566250,
      "d": 3750,
      "v": 127
    },
    {
      "midi": 61,
      "hit": false,
      "t": 566250,
      "d": 3750,
      "v": 127
    },
    {
      "midi": 65,
      "hit": false,
      "t": 566250,
      "d": 3750,
      "v": 127
    },
    {
      "midi": 70,
      "hit": false,
      "t": 566250,
      "d": 3750,
      "v": 127
    },
    {
      "midi": 65,
      "hit": false,
      "t": 570000,
      "d": 378.125,
      "v": 127
    },
    {
      "midi": 68,
      "hit": false,
      "t": 570000,
      "d": 406.25,
      "v": 127
    },
    {
      "midi": 73,
      "hit": false,
      "t": 570000,
      "d": 409.375,
      "v": 127
    },
    {
      "midi": 49,
      "hit": false,
      "t": 570000,
      "d": 440.625,
      "v": 127
    },
    {
      "midi": 72,
      "hit": false,
      "t": 571125,
      "d": 312.5,
      "v": 127
    },
    {
      "midi": 68,
      "hit": false,
      "t": 571125,
      "d": 315.625,
      "v": 127
    },
    {
      "midi": 48,
      "hit": false,
      "t": 571125,
      "d": 343.75,
      "v": 127
    },
    {
      "midi": 63,
      "hit": false,
      "t": 571125,
      "d": 346.875,
      "v": 127
    },
    {
      "midi": 42,
      "hit": false,
      "t": 572250,
      "d": 3750,
      "v": 127
    },
    {
      "midi": 61,
      "hit": false,
      "t": 572250,
      "d": 3750,
      "v": 127
    },
    {
      "midi": 65,
      "hit": false,
      "t": 572250,
      "d": 3750,
      "v": 127
    },
    {
      "midi": 70,
      "hit": false,
      "t": 572250,
      "d": 3750,
      "v": 127
    },
    {
      "midi": 65,
      "hit": false,
      "t": 576000,
      "d": 378.125,
      "v": 127
    },
    {
      "midi": 68,
      "hit": false,
      "t": 576000,
      "d": 406.25,
      "v": 127
    },
    {
      "midi": 73,
      "hit": false,
      "t": 576000,
      "d": 409.375,
      "v": 127
    },
    {
      "midi": 49,
      "hit": false,
      "t": 576000,
      "d": 440.625,
      "v": 127
    },
    {
      "midi": 72,
      "hit": false,
      "t": 577125,
      "d": 312.5,
      "v": 127
    },
    {
      "midi": 68,
      "hit": false,
      "t": 577125,
      "d": 315.625,
      "v": 127
    },
    {
      "midi": 48,
      "hit": false,
      "t": 577125,
      "d": 343.75,
      "v": 127
    },
    {
      "midi": 63,
      "hit": false,
      "t": 577125,
      "d": 346.875,
      "v": 127
    },
    {
      "midi": 42,
      "hit": false,
      "t": 578250,
      "d": 6750,
      "v": 127
    },
    {
      "midi": 61,
      "hit": false,
      "t": 578250,
      "d": 6750,
      "v": 127
    },
    {
      "midi": 65,
      "hit": false,
      "t": 578250,
      "d": 6750,
      "v": 127
    },
    {
      "midi": 70,
      "hit": false,
      "t": 578250,
      "d": 6750,
      "v": 127
    }
  ]
}