{
  "jsonPath": "Rock/Pop Rock/Owl City/umbrella-beach.json",
  "path": "Rock\\Pop Rock\\Owl City\\Umbrella Beach.mid",
  "name": "Umbrella Beach",
  "difficulty": "Advanced",
  "bpm": 69.00009660013524,
  "notes": [
    {
      "midi": 48,
      "hit": false,
      "t": 0,
      "d": 2666.6659999999997,
      "v": 106
    },
    {
      "midi": 60,
      "hit": false,
      "t": 0,
      "d": 2666.6659999999997,
      "v": 96
    },
    {
      "midi": 67,
      "hit": false,
      "t": 666.6664999999999,
      "d": 666.6664999999999,
      "v": 111
    },
    {
      "midi": 72,
      "hit": false,
      "t": 1333.3329999999999,
      "d": 666.6665,
      "v": 96
    },
    {
      "midi": 76,
      "hit": false,
      "t": 1999.9995,
      "d": 666.6664999999998,
      "v": 85
    },
    {
      "midi": 79,
      "hit": false,
      "t": 2666.6659999999997,
      "d": 1999.9994999999994,
      "v": 80
    },
    {
      "midi": 40,
      "hit": false,
      "t": 2666.6659999999997,
      "d": 2666.6659999999997,
      "v": 96
    },
    {
      "midi": 59,
      "hit": false,
      "t": 2666.6659999999997,
      "d": 2666.6659999999997,
      "v": 96
    },
    {
      "midi": 78,
      "hit": false,
      "t": 4666.665499999999,
      "d": 666.6665000000003,
      "v": 111
    },
    {
      "midi": 78,
      "hit": false,
      "t": 5333.331999999999,
      "d": 666.6665000000003,
      "v": 111
    },
    {
      "midi": 41,
      "hit": false,
      "t": 5333.331999999999,
      "d": 2666.666000000001,
      "v": 96
    },
    {
      "midi": 57,
      "hit": false,
      "t": 5333.331999999999,
      "d": 2666.666000000001,
      "v": 96
    },
    {
      "midi": 60,
      "hit": false,
      "t": 5999.9985,
      "d": 666.6665000000003,
      "v": 111
    },
    {
      "midi": 77,
      "hit": false,
      "t": 5999.9985,
      "d": 666.6665000000003,
      "v": 96
    },
    {
      "midi": 81,
      "hit": false,
      "t": 6666.665,
      "d": 666.6665000000003,
      "v": 111
    },
    {
      "midi": 65,
      "hit": false,
      "t": 6666.665,
      "d": 1333.3330000000005,
      "v": 90
    },
    {
      "midi": 84,
      "hit": false,
      "t": 7333.3315,
      "d": 666.6665000000003,
      "v": 96
    },
    {
      "midi": 76,
      "hit": false,
      "t": 7999.9980000000005,
      "d": 1333.3329999999996,
      "v": 111
    },
    {
      "midi": 43,
      "hit": false,
      "t": 7999.9980000000005,
      "d": 2666.666,
      "v": 100
    },
    {
      "midi": 59,
      "hit": false,
      "t": 7999.9980000000005,
      "d": 2666.666,
      "v": 96
    },
    {
      "midi": 74,
      "hit": false,
      "t": 9333.331,
      "d": 1333.3330000000005,
      "v": 96
    },
    {
      "midi": 48,
      "hit": false,
      "t": 10666.664,
      "d": 2666.6659999999974,
      "v": 95
    },
    {
      "midi": 60,
      "hit": false,
      "t": 10666.664,
      "d": 2666.6659999999974,
      "v": 111
    },
    {
      "midi": 64,
      "hit": false,
      "t": 11333.3305,
      "d": 666.6664999999994,
      "v": 96
    },
    {
      "midi": 67,
      "hit": false,
      "t": 11333.3305,
      "d": 666.6664999999994,
      "v": 91
    },
    {
      "midi": 67,
      "hit": false,
      "t": 11999.997,
      "d": 666.6664999999994,
      "v": 85
    },
    {
      "midi": 72,
      "hit": false,
      "t": 11999.997,
      "d": 666.6664999999994,
      "v": 111
    },
    {
      "midi": 72,
      "hit": false,
      "t": 12666.663499999999,
      "d": 666.6664999999994,
      "v": 85
    },
    {
      "midi": 76,
      "hit": false,
      "t": 12666.663499999999,
      "d": 666.6664999999994,
      "v": 96
    },
    {
      "midi": 71,
      "hit": false,
      "t": 13333.329999999998,
      "d": 1333.3329999999987,
      "v": 111
    },
    {
      "midi": 79,
      "hit": false,
      "t": 13333.329999999998,
      "d": 1999.999499999998,
      "v": 90
    },
    {
      "midi": 40,
      "hit": false,
      "t": 13333.329999999998,
      "d": 2666.6659999999974,
      "v": 90
    },
    {
      "midi": 59,
      "hit": false,
      "t": 13333.329999999998,
      "d": 2666.6659999999974,
      "v": 96
    },
    {
      "midi": 64,
      "hit": false,
      "t": 13999.996499999997,
      "d": 666.6664999999994,
      "v": 85
    },
    {
      "midi": 71,
      "hit": false,
      "t": 14666.662999999997,
      "d": 1340.2774427083314,
      "v": 96
    },
    {
      "midi": 78,
      "hit": false,
      "t": 15333.329499999996,
      "d": 666.6664999999994,
      "v": 96
    },
    {
      "midi": 78,
      "hit": false,
      "t": 15999.995999999996,
      "d": 666.6664999999994,
      "v": 96
    },
    {
      "midi": 41,
      "hit": false,
      "t": 15999.995999999996,
      "d": 2666.6659999999974,
      "v": 96
    },
    {
      "midi": 57,
      "hit": false,
      "t": 15999.995999999996,
      "d": 2666.6659999999974,
      "v": 111
    },
    {
      "midi": 60,
      "hit": false,
      "t": 16666.662499999995,
      "d": 666.6664999999994,
      "v": 85
    },
    {
      "midi": 77,
      "hit": false,
      "t": 16666.662499999995,
      "d": 666.6664999999994,
      "v": 111
    },
    {
      "midi": 81,
      "hit": false,
      "t": 17333.328999999994,
      "d": 666.6664999999994,
      "v": 111
    },
    {
      "midi": 65,
      "hit": false,
      "t": 17333.328999999994,
      "d": 1333.3329999999987,
      "v": 96
    },
    {
      "midi": 84,
      "hit": false,
      "t": 17999.995499999994,
      "d": 666.6664999999994,
      "v": 85
    },
    {
      "midi": 76,
      "hit": false,
      "t": 18666.661999999993,
      "d": 1333.3329999999987,
      "v": 96
    },
    {
      "midi": 59,
      "hit": false,
      "t": 18666.661999999993,
      "d": 1999.999499999998,
      "v": 111
    },
    {
      "midi": 43,
      "hit": false,
      "t": 18666.661999999993,
      "d": 2666.6659999999974,
      "v": 96
    },
    {
      "midi": 65,
      "hit": false,
      "t": 19999.99499999999,
      "d": 666.6664999999994,
      "v": 111
    },
    {
      "midi": 74,
      "hit": false,
      "t": 19999.99499999999,
      "d": 1333.3329999999987,
      "v": 96
    },
    {
      "midi": 59,
      "hit": false,
      "t": 20666.66149999999,
      "d": 673.610942708332,
      "v": 85
    },
    {
      "midi": 60,
      "hit": false,
      "t": 21333.32799999999,
      "d": 1333.3329999999987,
      "v": 91
    },
    {
      "midi": 64,
      "hit": false,
      "t": 21333.32799999999,
      "d": 1333.3329999999987,
      "v": 91
    },
    {
      "midi": 67,
      "hit": false,
      "t": 21333.32799999999,
      "d": 1333.3329999999987,
      "v": 91
    },
    {
      "midi": 60,
      "hit": false,
      "t": 22666.66099999999,
      "d": 1333.3329999999987,
      "v": 91
    },
    {
      "midi": 64,
      "hit": false,
      "t": 22666.66099999999,
      "d": 1333.3329999999987,
      "v": 91
    },
    {
      "midi": 67,
      "hit": false,
      "t": 22666.66099999999,
      "d": 1333.3329999999987,
      "v": 91
    },
    {
      "midi": 60,
      "hit": false,
      "t": 23999.993999999988,
      "d": 1333.3329999999987,
      "v": 91
    },
    {
      "midi": 64,
      "hit": false,
      "t": 23999.993999999988,
      "d": 1333.3329999999987,
      "v": 91
    },
    {
      "midi": 67,
      "hit": false,
      "t": 23999.993999999988,
      "d": 1333.3329999999987,
      "v": 91
    },
    {
      "midi": 60,
      "hit": false,
      "t": 25333.326999999987,
      "d": 666.6664999999994,
      "v": 91
    },
    {
      "midi": 64,
      "hit": false,
      "t": 25333.326999999987,
      "d": 666.6664999999994,
      "v": 91
    },
    {
      "midi": 67,
      "hit": false,
      "t": 25333.326999999987,
      "d": 666.6664999999994,
      "v": 91
    },
    {
      "midi": 55,
      "hit": false,
      "t": 25999.993499999986,
      "d": 666.6664999999994,
      "v": 91
    },
    {
      "midi": 60,
      "hit": false,
      "t": 26666.659999999985,
      "d": 1333.3329999999987,
      "v": 91
    },
    {
      "midi": 64,
      "hit": false,
      "t": 26666.659999999985,
      "d": 1333.3329999999987,
      "v": 91
    },
    {
      "midi": 67,
      "hit": false,
      "t": 26666.659999999985,
      "d": 1333.3329999999987,
      "v": 91
    },
    {
      "midi": 60,
      "hit": false,
      "t": 27999.992999999984,
      "d": 1333.3329999999987,
      "v": 91
    },
    {
      "midi": 64,
      "hit": false,
      "t": 27999.992999999984,
      "d": 1333.3329999999987,
      "v": 91
    },
    {
      "midi": 67,
      "hit": false,
      "t": 27999.992999999984,
      "d": 1333.3329999999987,
      "v": 91
    },
    {
      "midi": 60,
      "hit": false,
      "t": 29333.325999999983,
      "d": 1333.3329999999987,
      "v": 91
    },
    {
      "midi": 64,
      "hit": false,
      "t": 29333.325999999983,
      "d": 1333.3329999999987,
      "v": 91
    },
    {
      "midi": 67,
      "hit": false,
      "t": 29333.325999999983,
      "d": 1333.3329999999987,
      "v": 91
    },
    {
      "midi": 60,
      "hit": false,
      "t": 30666.65899999998,
      "d": 666.6664999999994,
      "v": 91
    },
    {
      "midi": 64,
      "hit": false,
      "t": 30666.65899999998,
      "d": 666.6664999999994,
      "v": 91
    },
    {
      "midi": 67,
      "hit": false,
      "t": 30666.65899999998,
      "d": 666.6664999999994,
      "v": 91
    },
    {
      "midi": 55,
      "hit": false,
      "t": 31333.32549999998,
      "d": 666.6664999999994,
      "v": 91
    },
    {
      "midi": 60,
      "hit": false,
      "t": 31999.99199999998,
      "d": 1333.3330000000024,
      "v": 91
    },
    {
      "midi": 64,
      "hit": false,
      "t": 31999.99199999998,
      "d": 1333.3330000000024,
      "v": 91
    },
    {
      "midi": 67,
      "hit": false,
      "t": 31999.99199999998,
      "d": 1333.3330000000024,
      "v": 91
    },
    {
      "midi": 60,
      "hit": false,
      "t": 33333.32499999998,
      "d": 666.6664999999994,
      "v": 91
    },
    {
      "midi": 64,
      "hit": false,
      "t": 33333.32499999998,
      "d": 666.6664999999994,
      "v": 91
    },
    {
      "midi": 67,
      "hit": false,
      "t": 33333.32499999998,
      "d": 666.6664999999994,
      "v": 91
    },
    {
      "midi": 55,
      "hit": false,
      "t": 33999.99149999998,
      "d": 666.6664999999994,
      "v": 91
    },
    {
      "midi": 60,
      "hit": false,
      "t": 34666.65799999998,
      "d": 1333.3329999999987,
      "v": 91
    },
    {
      "midi": 64,
      "hit": false,
      "t": 34666.65799999998,
      "d": 1333.3329999999987,
      "v": 91
    },
    {
      "midi": 67,
      "hit": false,
      "t": 34666.65799999998,
      "d": 1333.3329999999987,
      "v": 91
    },
    {
      "midi": 60,
      "hit": false,
      "t": 35999.99099999998,
      "d": 666.6664999999994,
      "v": 91
    },
    {
      "midi": 64,
      "hit": false,
      "t": 35999.99099999998,
      "d": 666.6664999999994,
      "v": 91
    },
    {
      "midi": 67,
      "hit": false,
      "t": 35999.99099999998,
      "d": 666.6664999999994,
      "v": 91
    },
    {
      "midi": 55,
      "hit": false,
      "t": 36666.65749999998,
      "d": 666.6664999999994,
      "v": 91
    },
    {
      "midi": 57,
      "hit": false,
      "t": 37333.32399999998,
      "d": 1333.3329999999987,
      "v": 91
    },
    {
      "midi": 53,
      "hit": false,
      "t": 37333.32399999998,
      "d": 2666.6659999999974,
      "v": 91
    },
    {
      "midi": 57,
      "hit": false,
      "t": 38666.65699999998,
      "d": 666.6664999999994,
      "v": 91
    },
    {
      "midi": 60,
      "hit": false,
      "t": 39333.32349999998,
      "d": 666.6664999999994,
      "v": 91
    },
    {
      "midi": 65,
      "hit": false,
      "t": 39333.32349999998,
      "d": 666.6664999999994,
      "v": 91
    },
    {
      "midi": 55,
      "hit": false,
      "t": 39999.989999999976,
      "d": 2666.6659999999974,
      "v": 91
    },
    {
      "midi": 59,
      "hit": false,
      "t": 39999.989999999976,
      "d": 2666.6659999999974,
      "v": 91
    },
    {
      "midi": 67,
      "hit": false,
      "t": 41333.322999999975,
      "d": 1333.3329999999987,
      "v": 91
    },
    {
      "midi": 57,
      "hit": false,
      "t": 42666.65599999997,
      "d": 666.6664999999994,
      "v": 91
    },
    {
      "midi": 60,
      "hit": false,
      "t": 42666.65599999997,
      "d": 1333.3329999999987,
      "v": 91
    },
    {
      "midi": 52,
      "hit": false,
      "t": 42666.65599999997,
      "d": 2666.6659999999974,
      "v": 91
    },
    {
      "midi": 57,
      "hit": false,
      "t": 43333.32249999997,
      "d": 4673.609942708332,
      "v": 91
    },
    {
      "midi": 60,
      "hit": false,
      "t": 43999.98899999997,
      "d": 1333.3329999999987,
      "v": 91
    },
    {
      "midi": 64,
      "hit": false,
      "t": 44666.65549999997,
      "d": 666.6664999999994,
      "v": 91
    },
    {
      "midi": 60,
      "hit": false,
      "t": 45333.32199999997,
      "d": 666.6664999999994,
      "v": 91
    },
    {
      "midi": 64,
      "hit": false,
      "t": 45333.32199999997,
      "d": 666.6664999999994,
      "v": 91
    },
    {
      "midi": 67,
      "hit": false,
      "t": 45333.32199999997,
      "d": 666.6664999999994,
      "v": 91
    },
    {
      "midi": 60,
      "hit": false,
      "t": 45999.98849999997,
      "d": 2006.9439427083344,
      "v": 91
    },
    {
      "midi": 64,
      "hit": false,
      "t": 46666.65499999997,
      "d": 666.6664999999994,
      "v": 91
    },
    {
      "midi": 67,
      "hit": false,
      "t": 47333.32149999997,
      "d": 666.6664999999994,
      "v": 91
    },
    {
      "midi": 52,
      "hit": false,
      "t": 47999.98799999997,
      "d": 2666.6660000000047,
      "v": 91
    },
    {
      "midi": 40,
      "hit": false,
      "t": 50666.65399999997,
      "d": 2666.6659999999974,
      "v": 91
    },
    {
      "midi": 55,
      "hit": false,
      "t": 51333.32049999997,
      "d": 666.6664999999994,
      "v": 91
    },
    {
      "midi": 59,
      "hit": false,
      "t": 51999.98699999997,
      "d": 666.6664999999994,
      "v": 91
    },
    {
      "midi": 64,
      "hit": false,
      "t": 52666.65349999997,
      "d": 666.6664999999994,
      "v": 91
    },
    {
      "midi": 65,
      "hit": false,
      "t": 53333.31999999997,
      "d": 2666.6659999999974,
      "v": 91
    },
    {
      "midi": 57,
      "hit": false,
      "t": 54666.65299999997,
      "d": 9999.997499999998,
      "v": 91
    },
    {
      "midi": 60,
      "hit": false,
      "t": 55333.31949999997,
      "d": 666.6664999999994,
      "v": 91
    },
    {
      "midi": 55,
      "hit": false,
      "t": 55999.98599999997,
      "d": 1333.3329999999987,
      "v": 91
    },
    {
      "midi": 60,
      "hit": false,
      "t": 55999.98599999997,
      "d": 1999.999499999998,
      "v": 91
    },
    {
      "midi": 64,
      "hit": false,
      "t": 55999.98599999997,
      "d": 2666.6659999999974,
      "v": 91
    },
    {
      "midi": 55,
      "hit": false,
      "t": 57333.31899999997,
      "d": 1340.277442708335,
      "v": 91
    },
    {
      "midi": 60,
      "hit": false,
      "t": 57999.985499999966,
      "d": 6006.942942708338,
      "v": 91
    },
    {
      "midi": 62,
      "hit": false,
      "t": 58666.651999999965,
      "d": 1999.9995000000054,
      "v": 91
    },
    {
      "midi": 59,
      "hit": false,
      "t": 58666.651999999965,
      "d": 5333.332000000002,
      "v": 91
    },
    {
      "midi": 62,
      "hit": false,
      "t": 60666.65149999997,
      "d": 19340.27294270845,
      "v": 91
    },
    {
      "midi": 67,
      "hit": false,
      "t": 61333.31799999997,
      "d": 1333.3329999999987,
      "v": 91
    },
    {
      "midi": 71,
      "hit": false,
      "t": 62666.65099999997,
      "d": 1333.3329999999987,
      "v": 91
    },
    {
      "midi": 52,
      "hit": false,
      "t": 63999.98399999997,
      "d": 2666.666000000012,
      "v": 91
    },
    {
      "midi": 57,
      "hit": false,
      "t": 64666.65049999997,
      "d": 4673.6099427083755,
      "v": 91
    },
    {
      "midi": 60,
      "hit": false,
      "t": 65333.316999999966,
      "d": 1333.3330000000133,
      "v": 91
    },
    {
      "midi": 64,
      "hit": false,
      "t": 65999.98349999997,
      "d": 666.6665000000066,
      "v": 91
    },
    {
      "midi": 60,
      "hit": false,
      "t": 66666.64999999998,
      "d": 666.6665000000066,
      "v": 91
    },
    {
      "midi": 64,
      "hit": false,
      "t": 66666.64999999998,
      "d": 666.6665000000066,
      "v": 91
    },
    {
      "midi": 67,
      "hit": false,
      "t": 66666.64999999998,
      "d": 666.6665000000066,
      "v": 91
    },
    {
      "midi": 60,
      "hit": false,
      "t": 67333.31649999999,
      "d": 2006.9439427083562,
      "v": 91
    },
    {
      "midi": 64,
      "hit": false,
      "t": 67999.983,
      "d": 666.6665000000066,
      "v": 91
    },
    {
      "midi": 67,
      "hit": false,
      "t": 68666.6495,
      "d": 666.6665000000066,
      "v": 91
    },
    {
      "midi": 52,
      "hit": false,
      "t": 69333.316,
      "d": 2666.6660000000265,
      "v": 91
    },
    {
      "midi": 72,
      "hit": false,
      "t": 69999.98250000001,
      "d": 666.6665000000066,
      "v": 91
    },
    {
      "midi": 71,
      "hit": false,
      "t": 70666.64900000002,
      "d": 666.6665000000066,
      "v": 91
    },
    {
      "midi": 69,
      "hit": false,
      "t": 71333.31550000003,
      "d": 666.6665000000066,
      "v": 91
    },
    {
      "midi": 67,
      "hit": false,
      "t": 71999.98200000003,
      "d": 1333.3330000000133,
      "v": 91
    },
    {
      "midi": 40,
      "hit": false,
      "t": 71999.98200000003,
      "d": 2666.6660000000265,
      "v": 91
    },
    {
      "midi": 55,
      "hit": false,
      "t": 72666.64850000004,
      "d": 4666.665500000032,
      "v": 91
    },
    {
      "midi": 59,
      "hit": false,
      "t": 73333.31500000005,
      "d": 666.6665000000066,
      "v": 91
    },
    {
      "midi": 64,
      "hit": false,
      "t": 73333.31500000005,
      "d": 666.6665000000066,
      "v": 91
    },
    {
      "midi": 64,
      "hit": false,
      "t": 73999.98150000005,
      "d": 673.6109427083429,
      "v": 91
    },
    {
      "midi": 65,
      "hit": false,
      "t": 74666.64800000006,
      "d": 2666.666000000012,
      "v": 91
    },
    {
      "midi": 57,
      "hit": false,
      "t": 75999.98100000006,
      "d": 14673.60744270838,
      "v": 91
    },
    {
      "midi": 60,
      "hit": false,
      "t": 76666.64750000006,
      "d": 666.6665000000066,
      "v": 91
    },
    {
      "midi": 55,
      "hit": false,
      "t": 77333.31400000007,
      "d": 1333.3329999999987,
      "v": 91
    },
    {
      "midi": 60,
      "hit": false,
      "t": 77333.31400000007,
      "d": 1999.9995000000054,
      "v": 91
    },
    {
      "midi": 64,
      "hit": false,
      "t": 77333.31400000007,
      "d": 2666.666000000012,
      "v": 91
    },
    {
      "midi": 55,
      "hit": false,
      "t": 78666.64700000007,
      "d": 1340.2774427083496,
      "v": 91
    },
    {
      "midi": 60,
      "hit": false,
      "t": 79333.31350000008,
      "d": 6006.942942708367,
      "v": 91
    },
    {
      "midi": 59,
      "hit": false,
      "t": 79999.98000000008,
      "d": 5333.332000000024,
      "v": 91
    },
    {
      "midi": 62,
      "hit": false,
      "t": 81999.97950000009,
      "d": 2666.666000000012,
      "v": 91
    },
    {
      "midi": 67,
      "hit": false,
      "t": 82666.6460000001,
      "d": 2666.666000000012,
      "v": 91
    },
    {
      "midi": 55,
      "hit": false,
      "t": 83999.9790000001,
      "d": 3999.9990000000107,
      "v": 91
    },
    {
      "midi": 53,
      "hit": false,
      "t": 84666.6455000001,
      "d": 666.6665000000066,
      "v": 91
    },
    {
      "midi": 62,
      "hit": false,
      "t": 84666.6455000001,
      "d": 8666.664499999999,
      "v": 91
    },
    {
      "midi": 64,
      "hit": false,
      "t": 85333.3120000001,
      "d": 2666.6659999999974,
      "v": 91
    },
    {
      "midi": 67,
      "hit": false,
      "t": 85333.3120000001,
      "d": 2666.6659999999974,
      "v": 91
    },
    {
      "midi": 59,
      "hit": false,
      "t": 87999.9780000001,
      "d": 2666.6659999999974,
      "v": 91
    },
    {
      "midi": 64,
      "hit": false,
      "t": 87999.9780000001,
      "d": 2666.6659999999974,
      "v": 91
    },
    {
      "midi": 55,
      "hit": false,
      "t": 87999.9780000001,
      "d": 5333.331999999995,
      "v": 91
    },
    {
      "midi": 50,
      "hit": false,
      "t": 90666.6440000001,
      "d": 2666.6659999999974,
      "v": 91
    },
    {
      "midi": 53,
      "hit": false,
      "t": 90666.6440000001,
      "d": 2666.6659999999974,
      "v": 91
    },
    {
      "midi": 59,
      "hit": false,
      "t": 93333.3100000001,
      "d": 2666.6659999999974,
      "v": 91
    },
    {
      "midi": 62,
      "hit": false,
      "t": 93333.3100000001,
      "d": 2673.6104427083337,
      "v": 91
    },
    {
      "midi": 55,
      "hit": false,
      "t": 93333.3100000001,
      "d": 5333.331999999995,
      "v": 91
    },
    {
      "midi": 64,
      "hit": false,
      "t": 95999.9760000001,
      "d": 2666.6659999999974,
      "v": 91
    },
    {
      "midi": 67,
      "hit": false,
      "t": 95999.9760000001,
      "d": 2666.6659999999974,
      "v": 91
    },
    {
      "midi": 59,
      "hit": false,
      "t": 98666.6420000001,
      "d": 2666.6659999999974,
      "v": 91
    },
    {
      "midi": 64,
      "hit": false,
      "t": 98666.6420000001,
      "d": 2666.6659999999974,
      "v": 91
    },
    {
      "midi": 55,
      "hit": false,
      "t": 98666.6420000001,
      "d": 5333.331999999995,
      "v": 91
    },
    {
      "midi": 50,
      "hit": false,
      "t": 101333.30800000009,
      "d": 2666.6659999999974,
      "v": 91
    },
    {
      "midi": 53,
      "hit": false,
      "t": 101333.30800000009,
      "d": 2666.6659999999974,
      "v": 91
    },
    {
      "midi": 59,
      "hit": false,
      "t": 103999.97400000009,
      "d": 2666.6659999999974,
      "v": 91
    },
    {
      "midi": 62,
      "hit": false,
      "t": 103999.97400000009,
      "d": 2666.6659999999974,
      "v": 91
    },
    {
      "midi": 55,
      "hit": false,
      "t": 103999.97400000009,
      "d": 5333.331999999995,
      "v": 91
    },
    {
      "midi": 64,
      "hit": false,
      "t": 106666.64000000009,
      "d": 2666.6659999999974,
      "v": 91
    },
    {
      "midi": 67,
      "hit": false,
      "t": 106666.64000000009,
      "d": 2666.6659999999974,
      "v": 91
    },
    {
      "midi": 59,
      "hit": false,
      "t": 109333.30600000008,
      "d": 2666.6659999999974,
      "v": 91
    },
    {
      "midi": 64,
      "hit": false,
      "t": 109333.30600000008,
      "d": 2666.6659999999974,
      "v": 91
    },
    {
      "midi": 55,
      "hit": false,
      "t": 109333.30600000008,
      "d": 14666.663000000015,
      "v": 91
    },
    {
      "midi": 50,
      "hit": false,
      "t": 111999.97200000008,
      "d": 2666.6659999999974,
      "v": 91
    },
    {
      "midi": 53,
      "hit": false,
      "t": 111999.97200000008,
      "d": 2666.6659999999974,
      "v": 91
    },
    {
      "midi": 65,
      "hit": false,
      "t": 114666.63800000008,
      "d": 2666.6659999999974,
      "v": 91
    },
    {
      "midi": 60,
      "hit": false,
      "t": 114666.63800000008,
      "d": 9999.997500000027,
      "v": 91
    },
    {
      "midi": 57,
      "hit": false,
      "t": 114666.63800000008,
      "d": 40006.93444270843,
      "v": 91
    },
    {
      "midi": 72,
      "hit": false,
      "t": 117333.30400000008,
      "d": 666.6665000000066,
      "v": 91
    },
    {
      "midi": 76,
      "hit": false,
      "t": 117333.30400000008,
      "d": 666.6665000000066,
      "v": 91
    },
    {
      "midi": 69,
      "hit": false,
      "t": 117999.97050000008,
      "d": 666.6665000000066,
      "v": 91
    },
    {
      "midi": 72,
      "hit": false,
      "t": 118666.63700000009,
      "d": 1333.3329999999987,
      "v": 91
    },
    {
      "midi": 76,
      "hit": false,
      "t": 118666.63700000009,
      "d": 1333.3329999999987,
      "v": 91
    },
    {
      "midi": 65,
      "hit": false,
      "t": 119999.97000000009,
      "d": 2666.6659999999974,
      "v": 91
    },
    {
      "midi": 69,
      "hit": false,
      "t": 119999.97000000009,
      "d": 2666.6659999999974,
      "v": 91
    },
    {
      "midi": 74,
      "hit": false,
      "t": 119999.97000000009,
      "d": 2666.6659999999974,
      "v": 91
    },
    {
      "midi": 48,
      "hit": false,
      "t": 123333.30250000009,
      "d": 666.6665000000066,
      "v": 91
    },
    {
      "midi": 55,
      "hit": false,
      "t": 123999.9690000001,
      "d": 1333.3330000000133,
      "v": 91
    },
    {
      "midi": 60,
      "hit": false,
      "t": 124666.6355000001,
      "d": 666.6665000000066,
      "v": 91
    },
    {
      "midi": 55,
      "hit": false,
      "t": 125333.30200000011,
      "d": 1333.3329999999987,
      "v": 91
    },
    {
      "midi": 60,
      "hit": false,
      "t": 125333.30200000011,
      "d": 1333.3329999999987,
      "v": 91
    },
    {
      "midi": 64,
      "hit": false,
      "t": 125333.30200000011,
      "d": 1333.3329999999987,
      "v": 91
    },
    {
      "midi": 60,
      "hit": false,
      "t": 126666.63500000011,
      "d": 12006.941442708354,
      "v": 91
    },
    {
      "midi": 55,
      "hit": false,
      "t": 126666.63500000011,
      "d": 16666.66250000005,
      "v": 91
    },
    {
      "midi": 72,
      "hit": false,
      "t": 127999.96800000011,
      "d": 666.6665000000066,
      "v": 91
    },
    {
      "midi": 76,
      "hit": false,
      "t": 127999.96800000011,
      "d": 666.6665000000066,
      "v": 91
    },
    {
      "midi": 69,
      "hit": false,
      "t": 128666.63450000012,
      "d": 666.6665000000066,
      "v": 91
    },
    {
      "midi": 72,
      "hit": false,
      "t": 129333.30100000012,
      "d": 1333.3329999999987,
      "v": 91
    },
    {
      "midi": 76,
      "hit": false,
      "t": 129333.30100000012,
      "d": 1333.3329999999987,
      "v": 91
    },
    {
      "midi": 65,
      "hit": false,
      "t": 130666.63400000012,
      "d": 2666.666000000012,
      "v": 91
    },
    {
      "midi": 69,
      "hit": false,
      "t": 130666.63400000012,
      "d": 2666.666000000012,
      "v": 91
    },
    {
      "midi": 74,
      "hit": false,
      "t": 130666.63400000012,
      "d": 2666.666000000012,
      "v": 91
    },
    {
      "midi": 72,
      "hit": false,
      "t": 133333.30000000013,
      "d": 1999.9995000000054,
      "v": 91
    },
    {
      "midi": 76,
      "hit": false,
      "t": 133333.30000000013,
      "d": 1999.9995000000054,
      "v": 91
    },
    {
      "midi": 67,
      "hit": false,
      "t": 135333.29950000014,
      "d": 666.6664999999921,
      "v": 91
    },
    {
      "midi": 76,
      "hit": false,
      "t": 135999.96600000013,
      "d": 2666.6659999999974,
      "v": 91
    },
    {
      "midi": 79,
      "hit": false,
      "t": 135999.96600000013,
      "d": 2666.6659999999974,
      "v": 91
    },
    {
      "midi": 64,
      "hit": false,
      "t": 138666.63200000013,
      "d": 1333.3330000000133,
      "v": 91
    },
    {
      "midi": 67,
      "hit": false,
      "t": 138666.63200000013,
      "d": 1333.3330000000133,
      "v": 91
    },
    {
      "midi": 60,
      "hit": false,
      "t": 139999.96500000014,
      "d": 1333.3330000000133,
      "v": 91
    },
    {
      "midi": 64,
      "hit": false,
      "t": 139999.96500000014,
      "d": 1333.3330000000133,
      "v": 91
    },
    {
      "midi": 67,
      "hit": false,
      "t": 139999.96500000014,
      "d": 1333.3330000000133,
      "v": 91
    },
    {
      "midi": 60,
      "hit": false,
      "t": 141333.29800000016,
      "d": 1333.3330000000133,
      "v": 91
    },
    {
      "midi": 64,
      "hit": false,
      "t": 141333.29800000016,
      "d": 1333.3330000000133,
      "v": 91
    },
    {
      "midi": 67,
      "hit": false,
      "t": 141333.29800000016,
      "d": 1333.3330000000133,
      "v": 91
    },
    {
      "midi": 64,
      "hit": false,
      "t": 142666.63100000017,
      "d": 666.6664999999921,
      "v": 91
    },
    {
      "midi": 67,
      "hit": false,
      "t": 142666.63100000017,
      "d": 666.6664999999921,
      "v": 91
    },
    {
      "midi": 60,
      "hit": false,
      "t": 142666.63100000017,
      "d": 1340.2774427083205,
      "v": 91
    },
    {
      "midi": 55,
      "hit": false,
      "t": 143333.29750000016,
      "d": 5333.332000000024,
      "v": 91
    },
    {
      "midi": 64,
      "hit": false,
      "t": 143999.96400000015,
      "d": 1333.3330000000133,
      "v": 91
    },
    {
      "midi": 67,
      "hit": false,
      "t": 143999.96400000015,
      "d": 1333.3330000000133,
      "v": 91
    },
    {
      "midi": 60,
      "hit": false,
      "t": 145333.29700000017,
      "d": 1333.3330000000133,
      "v": 91
    },
    {
      "midi": 64,
      "hit": false,
      "t": 145333.29700000017,
      "d": 1333.3330000000133,
      "v": 91
    },
    {
      "midi": 67,
      "hit": false,
      "t": 145333.29700000017,
      "d": 1333.3330000000133,
      "v": 91
    },
    {
      "midi": 60,
      "hit": false,
      "t": 146666.63000000018,
      "d": 1333.3330000000133,
      "v": 91
    },
    {
      "midi": 64,
      "hit": false,
      "t": 146666.63000000018,
      "d": 1333.3330000000133,
      "v": 91
    },
    {
      "midi": 67,
      "hit": false,
      "t": 146666.63000000018,
      "d": 1333.3330000000133,
      "v": 91
    },
    {
      "midi": 64,
      "hit": false,
      "t": 147999.9630000002,
      "d": 666.6664999999921,
      "v": 91
    },
    {
      "midi": 67,
      "hit": false,
      "t": 147999.9630000002,
      "d": 666.6664999999921,
      "v": 91
    },
    {
      "midi": 60,
      "hit": false,
      "t": 147999.9630000002,
      "d": 1340.2774427083205,
      "v": 91
    },
    {
      "midi": 55,
      "hit": false,
      "t": 148666.62950000018,
      "d": 2666.6659999999974,
      "v": 91
    },
    {
      "midi": 64,
      "hit": false,
      "t": 149333.29600000018,
      "d": 1333.3330000000133,
      "v": 91
    },
    {
      "midi": 67,
      "hit": false,
      "t": 149333.29600000018,
      "d": 1333.3330000000133,
      "v": 91
    },
    {
      "midi": 64,
      "hit": false,
      "t": 150666.6290000002,
      "d": 666.6664999999921,
      "v": 91
    },
    {
      "midi": 67,
      "hit": false,
      "t": 150666.6290000002,
      "d": 666.6664999999921,
      "v": 91
    },
    {
      "midi": 60,
      "hit": false,
      "t": 150666.6290000002,
      "d": 5999.998499999987,
      "v": 91
    },
    {
      "midi": 55,
      "hit": false,
      "t": 151333.29550000018,
      "d": 2666.6659999999974,
      "v": 91
    },
    {
      "midi": 59,
      "hit": false,
      "t": 151999.96200000017,
      "d": 1333.3330000000133,
      "v": 91
    },
    {
      "midi": 64,
      "hit": false,
      "t": 151999.96200000017,
      "d": 1333.3330000000133,
      "v": 91
    },
    {
      "midi": 67,
      "hit": false,
      "t": 151999.96200000017,
      "d": 1333.3330000000133,
      "v": 91
    },
    {
      "midi": 59,
      "hit": false,
      "t": 153333.2950000002,
      "d": 666.6664999999921,
      "v": 91
    },
    {
      "midi": 64,
      "hit": false,
      "t": 153333.2950000002,
      "d": 666.6664999999921,
      "v": 91
    },
    {
      "midi": 67,
      "hit": false,
      "t": 153333.2950000002,
      "d": 666.6664999999921,
      "v": 91
    },
    {
      "midi": 55,
      "hit": false,
      "t": 153999.96150000018,
      "d": 3333.3324999999895,
      "v": 91
    },
    {
      "midi": 53,
      "hit": false,
      "t": 154666.62800000017,
      "d": 2666.6659999999974,
      "v": 91
    },
    {
      "midi": 57,
      "hit": false,
      "t": 155999.96100000018,
      "d": 4006.943442708347,
      "v": 91
    },
    {
      "midi": 65,
      "hit": false,
      "t": 156666.62750000018,
      "d": 666.6664999999921,
      "v": 91
    },
    {
      "midi": 60,
      "hit": false,
      "t": 156666.62750000018,
      "d": 3340.276942708355,
      "v": 91
    },
    {
      "midi": 59,
      "hit": false,
      "t": 157333.29400000017,
      "d": 2666.6660000000265,
      "v": 91
    },
    {
      "midi": 55,
      "hit": false,
      "t": 157333.29400000017,
      "d": 11333.330499999953,
      "v": 91
    },
    {
      "midi": 67,
      "hit": false,
      "t": 158666.62700000018,
      "d": 1333.3330000000133,
      "v": 91
    },
    {
      "midi": 52,
      "hit": false,
      "t": 159999.9600000002,
      "d": 2666.6659999999683,
      "v": 91
    },
    {
      "midi": 57,
      "hit": false,
      "t": 160666.6265000002,
      "d": 4673.609942708281,
      "v": 91
    },
    {
      "midi": 60,
      "hit": false,
      "t": 161333.29300000018,
      "d": 1333.3329999999842,
      "v": 91
    },
    {
      "midi": 64,
      "hit": false,
      "t": 161999.95950000017,
      "d": 666.6664999999921,
      "v": 91
    },
    {
      "midi": 60,
      "hit": false,
      "t": 162666.62600000016,
      "d": 666.6664999999921,
      "v": 91
    },
    {
      "midi": 64,
      "hit": false,
      "t": 162666.62600000016,
      "d": 666.6664999999921,
      "v": 91
    },
    {
      "midi": 67,
      "hit": false,
      "t": 162666.62600000016,
      "d": 666.6664999999921,
      "v": 91
    },
    {
      "midi": 60,
      "hit": false,
      "t": 163333.29250000016,
      "d": 2006.9439427083125,
      "v": 91
    },
    {
      "midi": 64,
      "hit": false,
      "t": 163999.95900000015,
      "d": 666.6664999999921,
      "v": 91
    },
    {
      "midi": 67,
      "hit": false,
      "t": 164666.62550000014,
      "d": 666.6664999999921,
      "v": 91
    },
    {
      "midi": 52,
      "hit": false,
      "t": 165333.29200000013,
      "d": 2666.6659999999974,
      "v": 91
    },
    {
      "midi": 40,
      "hit": false,
      "t": 167999.95800000013,
      "d": 2666.6659999999683,
      "v": 91
    },
    {
      "midi": 55,
      "hit": false,
      "t": 168666.62450000012,
      "d": 4666.665499999974,
      "v": 91
    },
    {
      "midi": 59,
      "hit": false,
      "t": 169333.2910000001,
      "d": 666.6664999999921,
      "v": 91
    },
    {
      "midi": 64,
      "hit": false,
      "t": 169999.9575000001,
      "d": 666.6664999999921,
      "v": 91
    },
    {
      "midi": 65,
      "hit": false,
      "t": 170666.6240000001,
      "d": 2666.6659999999974,
      "v": 91
    },
    {
      "midi": 57,
      "hit": false,
      "t": 171999.9570000001,
      "d": 9340.275442708342,
      "v": 91
    },
    {
      "midi": 60,
      "hit": false,
      "t": 172666.6235000001,
      "d": 666.6664999999921,
      "v": 91
    },
    {
      "midi": 55,
      "hit": false,
      "t": 173333.2900000001,
      "d": 1333.3330000000133,
      "v": 91
    },
    {
      "midi": 60,
      "hit": false,
      "t": 173333.2900000001,
      "d": 1999.9995000000054,
      "v": 91
    },
    {
      "midi": 64,
      "hit": false,
      "t": 173333.2900000001,
      "d": 2666.6659999999974,
      "v": 91
    },
    {
      "midi": 55,
      "hit": false,
      "t": 174666.6230000001,
      "d": 1340.2774427083205,
      "v": 91
    },
    {
      "midi": 60,
      "hit": false,
      "t": 175333.2895000001,
      "d": 6006.942942708352,
      "v": 91
    },
    {
      "midi": 62,
      "hit": false,
      "t": 175999.9560000001,
      "d": 1999.9995000000054,
      "v": 91
    },
    {
      "midi": 59,
      "hit": false,
      "t": 175999.9560000001,
      "d": 5333.332000000024,
      "v": 91
    },
    {
      "midi": 62,
      "hit": false,
      "t": 177999.9555000001,
      "d": 19340.272942708223,
      "v": 91
    },
    {
      "midi": 67,
      "hit": false,
      "t": 178666.6220000001,
      "d": 1333.3330000000133,
      "v": 91
    },
    {
      "midi": 71,
      "hit": false,
      "t": 179999.9550000001,
      "d": 1333.3330000000133,
      "v": 91
    },
    {
      "midi": 52,
      "hit": false,
      "t": 181333.28800000012,
      "d": 2666.6659999999683,
      "v": 91
    },
    {
      "midi": 57,
      "hit": false,
      "t": 181999.9545000001,
      "d": 4673.609942708281,
      "v": 91
    },
    {
      "midi": 60,
      "hit": false,
      "t": 182666.6210000001,
      "d": 1333.3329999999842,
      "v": 91
    },
    {
      "midi": 64,
      "hit": false,
      "t": 183333.2875000001,
      "d": 666.6664999999921,
      "v": 91
    },
    {
      "midi": 60,
      "hit": false,
      "t": 183999.95400000009,
      "d": 666.6664999999921,
      "v": 91
    },
    {
      "midi": 64,
      "hit": false,
      "t": 183999.95400000009,
      "d": 666.6664999999921,
      "v": 91
    },
    {
      "midi": 67,
      "hit": false,
      "t": 183999.95400000009,
      "d": 666.6664999999921,
      "v": 91
    },
    {
      "midi": 60,
      "hit": false,
      "t": 184666.62050000008,
      "d": 2006.9439427083125,
      "v": 91
    },
    {
      "midi": 64,
      "hit": false,
      "t": 185333.28700000007,
      "d": 666.6664999999921,
      "v": 91
    },
    {
      "midi": 67,
      "hit": false,
      "t": 185999.95350000006,
      "d": 666.6664999999921,
      "v": 91
    },
    {
      "midi": 52,
      "hit": false,
      "t": 186666.62000000005,
      "d": 2666.6659999999683,
      "v": 91
    },
    {
      "midi": 72,
      "hit": false,
      "t": 187333.28650000005,
      "d": 666.6664999999921,
      "v": 91
    },
    {
      "midi": 71,
      "hit": false,
      "t": 187999.95300000004,
      "d": 666.6664999999921,
      "v": 91
    },
    {
      "midi": 69,
      "hit": false,
      "t": 188666.61950000003,
      "d": 666.6664999999921,
      "v": 91
    },
    {
      "midi": 67,
      "hit": false,
      "t": 189333.28600000002,
      "d": 1333.3329999999842,
      "v": 91
    },
    {
      "midi": 40,
      "hit": false,
      "t": 189333.28600000002,
      "d": 2666.6659999999683,
      "v": 91
    },
    {
      "midi": 55,
      "hit": false,
      "t": 189999.9525,
      "d": 4666.665499999974,
      "v": 91
    },
    {
      "midi": 59,
      "hit": false,
      "t": 190666.619,
      "d": 666.6664999999921,
      "v": 91
    },
    {
      "midi": 64,
      "hit": false,
      "t": 190666.619,
      "d": 666.6664999999921,
      "v": 91
    },
    {
      "midi": 64,
      "hit": false,
      "t": 191333.2855,
      "d": 673.6109427083284,
      "v": 91
    },
    {
      "midi": 65,
      "hit": false,
      "t": 191999.952,
      "d": 2666.6659999999974,
      "v": 91
    },
    {
      "midi": 57,
      "hit": false,
      "t": 193333.285,
      "d": 14673.607442708308,
      "v": 91
    },
    {
      "midi": 60,
      "hit": false,
      "t": 193999.9515,
      "d": 666.6664999999921,
      "v": 91
    },
    {
      "midi": 55,
      "hit": false,
      "t": 194666.618,
      "d": 1333.3330000000133,
      "v": 91
    },
    {
      "midi": 60,
      "hit": false,
      "t": 194666.618,
      "d": 1999.9995000000054,
      "v": 91
    },
    {
      "midi": 64,
      "hit": false,
      "t": 194666.618,
      "d": 2666.6659999999974,
      "v": 91
    },
    {
      "midi": 55,
      "hit": false,
      "t": 195999.951,
      "d": 1340.2774427083205,
      "v": 91
    },
    {
      "midi": 60,
      "hit": false,
      "t": 196666.6175,
      "d": 6006.942942708323,
      "v": 91
    },
    {
      "midi": 59,
      "hit": false,
      "t": 197333.28399999999,
      "d": 5333.331999999995,
      "v": 91
    },
    {
      "midi": 62,
      "hit": false,
      "t": 199333.2835,
      "d": 2666.6659999999974,
      "v": 91
    },
    {
      "midi": 67,
      "hit": false,
      "t": 199999.94999999998,
      "d": 2666.6659999999974,
      "v": 91
    },
    {
      "midi": 55,
      "hit": false,
      "t": 201333.283,
      "d": 3333.3324999999895,
      "v": 91
    },
    {
      "midi": 53,
      "hit": false,
      "t": 201999.9495,
      "d": 666.6664999999921,
      "v": 91
    },
    {
      "midi": 62,
      "hit": false,
      "t": 201999.9495,
      "d": 8666.664499999984,
      "v": 91
    },
    {
      "midi": 64,
      "hit": false,
      "t": 202666.61599999998,
      "d": 1999.9995000000054,
      "v": 91
    },
    {
      "midi": 67,
      "hit": false,
      "t": 202666.61599999998,
      "d": 1999.9995000000054,
      "v": 91
    },
    {
      "midi": 55,
      "hit": false,
      "t": 204666.61549999999,
      "d": 666.6664999999921,
      "v": 91
    },
    {
      "midi": 55,
      "hit": false,
      "t": 205333.28199999998,
      "d": 1999.9995000000054,
      "v": 91
    },
    {
      "midi": 59,
      "hit": false,
      "t": 205333.28199999998,
      "d": 1999.9995000000054,
      "v": 91
    },
    {
      "midi": 64,
      "hit": false,
      "t": 205333.28199999998,
      "d": 1999.9995000000054,
      "v": 91
    },
    {
      "midi": 55,
      "hit": false,
      "t": 207333.28149999998,
      "d": 3333.3324999999895,
      "v": 91
    },
    {
      "midi": 50,
      "hit": false,
      "t": 207999.94799999997,
      "d": 1999.9995000000054,
      "v": 91
    },
    {
      "midi": 53,
      "hit": false,
      "t": 207999.94799999997,
      "d": 1999.9995000000054,
      "v": 91
    },
    {
      "midi": 57,
      "hit": false,
      "t": 209999.94749999998,
      "d": 8673.60894270832,
      "v": 91
    },
    {
      "midi": 59,
      "hit": false,
      "t": 210666.61399999997,
      "d": 1999.9995000000054,
      "v": 91
    },
    {
      "midi": 55,
      "hit": false,
      "t": 210666.61399999997,
      "d": 4666.665500000003,
      "v": 91
    },
    {
      "midi": 62,
      "hit": false,
      "t": 210666.61399999997,
      "d": 10666.66399999999,
      "v": 91
    },
    {
      "midi": 53,
      "hit": false,
      "t": 212666.61349999998,
      "d": 666.6664999999921,
      "v": 91
    },
    {
      "midi": 64,
      "hit": false,
      "t": 213333.27999999997,
      "d": 1999.9995000000054,
      "v": 91
    },
    {
      "midi": 67,
      "hit": false,
      "t": 213333.27999999997,
      "d": 1999.9995000000054,
      "v": 91
    },
    {
      "midi": 55,
      "hit": false,
      "t": 215333.27949999998,
      "d": 666.6664999999921,
      "v": 91
    },
    {
      "midi": 55,
      "hit": false,
      "t": 215999.94599999997,
      "d": 1999.9995000000054,
      "v": 91
    },
    {
      "midi": 59,
      "hit": false,
      "t": 215999.94599999997,
      "d": 1999.9995000000054,
      "v": 91
    },
    {
      "midi": 64,
      "hit": false,
      "t": 215999.94599999997,
      "d": 1999.9995000000054,
      "v": 91
    },
    {
      "midi": 55,
      "hit": false,
      "t": 217999.94549999997,
      "d": 3333.3324999999895,
      "v": 91
    },
    {
      "midi": 50,
      "hit": false,
      "t": 218666.61199999996,
      "d": 1999.9995000000054,
      "v": 91
    },
    {
      "midi": 53,
      "hit": false,
      "t": 218666.61199999996,
      "d": 1999.9995000000054,
      "v": 91
    },
    {
      "midi": 57,
      "hit": false,
      "t": 220666.61149999997,
      "d": 8673.60894270832,
      "v": 91
    },
    {
      "midi": 59,
      "hit": false,
      "t": 221333.27799999996,
      "d": 1999.9995000000054,
      "v": 91
    },
    {
      "midi": 55,
      "hit": false,
      "t": 221333.27799999996,
      "d": 4666.665500000003,
      "v": 91
    },
    {
      "midi": 62,
      "hit": false,
      "t": 221333.27799999996,
      "d": 18666.661999999982,
      "v": 91
    },
    {
      "midi": 53,
      "hit": false,
      "t": 223333.27749999997,
      "d": 666.6664999999921,
      "v": 91
    },
    {
      "midi": 64,
      "hit": false,
      "t": 223999.94399999996,
      "d": 1999.9995000000054,
      "v": 91
    },
    {
      "midi": 67,
      "hit": false,
      "t": 223999.94399999996,
      "d": 1999.9995000000054,
      "v": 91
    },
    {
      "midi": 55,
      "hit": false,
      "t": 225999.94349999996,
      "d": 666.6664999999921,
      "v": 91
    },
    {
      "midi": 55,
      "hit": false,
      "t": 226666.60999999996,
      "d": 1999.9995000000054,
      "v": 91
    },
    {
      "midi": 59,
      "hit": false,
      "t": 226666.60999999996,
      "d": 1999.9995000000054,
      "v": 91
    },
    {
      "midi": 64,
      "hit": false,
      "t": 226666.60999999996,
      "d": 1999.9995000000054,
      "v": 91
    },
    {
      "midi": 55,
      "hit": false,
      "t": 228666.60949999996,
      "d": 12666.663499999966,
      "v": 91
    },
    {
      "midi": 50,
      "hit": false,
      "t": 229333.27599999995,
      "d": 2666.6659999999974,
      "v": 91
    },
    {
      "midi": 53,
      "hit": false,
      "t": 229333.27599999995,
      "d": 2666.6659999999974,
      "v": 91
    },
    {
      "midi": 65,
      "hit": false,
      "t": 231999.94199999995,
      "d": 2666.6659999999974,
      "v": 91
    },
    {
      "midi": 57,
      "hit": false,
      "t": 231999.94199999995,
      "d": 7999.997999999992,
      "v": 91
    },
    {
      "midi": 60,
      "hit": false,
      "t": 231999.94199999995,
      "d": 9999.997499999969,
      "v": 91
    },
    {
      "midi": 72,
      "hit": false,
      "t": 234666.60799999995,
      "d": 666.6664999999921,
      "v": 91
    },
    {
      "midi": 76,
      "hit": false,
      "t": 234666.60799999995,
      "d": 666.6664999999921,
      "v": 91
    },
    {
      "midi": 69,
      "hit": false,
      "t": 235333.27449999994,
      "d": 666.6664999999921,
      "v": 91
    },
    {
      "midi": 72,
      "hit": false,
      "t": 235999.94099999993,
      "d": 1333.3330000000133,
      "v": 91
    },
    {
      "midi": 76,
      "hit": false,
      "t": 235999.94099999993,
      "d": 1333.3330000000133,
      "v": 91
    },
    {
      "midi": 65,
      "hit": false,
      "t": 237333.27399999995,
      "d": 2666.6659999999974,
      "v": 91
    },
    {
      "midi": 69,
      "hit": false,
      "t": 237333.27399999995,
      "d": 2666.6659999999974,
      "v": 91
    },
    {
      "midi": 74,
      "hit": false,
      "t": 237333.27399999995,
      "d": 2666.6659999999974,
      "v": 91
    },
    {
      "midi": 48,
      "hit": false,
      "t": 240666.60649999994,
      "d": 666.6664999999921,
      "v": 91
    },
    {
      "midi": 55,
      "hit": false,
      "t": 241333.27299999993,
      "d": 1333.3329999999842,
      "v": 91
    },
    {
      "midi": 60,
      "hit": false,
      "t": 241999.93949999992,
      "d": 666.6664999999921,
      "v": 91
    },
    {
      "midi": 55,
      "hit": false,
      "t": 242666.6059999999,
      "d": 1333.3330000000133,
      "v": 91
    },
    {
      "midi": 60,
      "hit": false,
      "t": 242666.6059999999,
      "d": 1333.3330000000133,
      "v": 91
    },
    {
      "midi": 64,
      "hit": false,
      "t": 242666.6059999999,
      "d": 1333.3330000000133,
      "v": 91
    },
    {
      "midi": 55,
      "hit": false,
      "t": 243999.93899999993,
      "d": 6673.609442708344,
      "v": 91
    },
    {
      "midi": 60,
      "hit": false,
      "t": 243999.93899999993,
      "d": 6673.609442708344,
      "v": 91
    },
    {
      "midi": 72,
      "hit": false,
      "t": 245333.27199999994,
      "d": 666.6664999999921,
      "v": 91
    },
    {
      "midi": 76,
      "hit": false,
      "t": 245333.27199999994,
      "d": 666.6664999999921,
      "v": 91
    },
    {
      "midi": 69,
      "hit": false,
      "t": 245999.93849999993,
      "d": 666.6664999999921,
      "v": 91
    },
    {
      "midi": 72,
      "hit": false,
      "t": 246666.60499999992,
      "d": 1333.3330000000133,
      "v": 91
    },
    {
      "midi": 76,
      "hit": false,
      "t": 246666.60499999992,
      "d": 1333.3330000000133,
      "v": 91
    },
    {
      "midi": 65,
      "hit": false,
      "t": 247999.93799999994,
      "d": 2666.6659999999974,
      "v": 91
    },
    {
      "midi": 69,
      "hit": false,
      "t": 247999.93799999994,
      "d": 2666.6659999999974,
      "v": 91
    },
    {
      "midi": 74,
      "hit": false,
      "t": 247999.93799999994,
      "d": 2666.6659999999974,
      "v": 91
    },
    {
      "midi": 64,
      "hit": false,
      "t": 250666.60399999993,
      "d": 1333.3330000000133,
      "v": 91
    },
    {
      "midi": 55,
      "hit": false,
      "t": 251999.93699999995,
      "d": 1333.3330000000133,
      "v": 91
    },
    {
      "midi": 60,
      "hit": false,
      "t": 251999.93699999995,
      "d": 1333.3330000000133,
      "v": 91
    },
    {
      "midi": 64,
      "hit": false,
      "t": 251999.93699999995,
      "d": 1333.3330000000133,
      "v": 91
    },
    {
      "midi": 55,
      "hit": false,
      "t": 253333.26999999996,
      "d": 1333.3330000000133,
      "v": 91
    },
    {
      "midi": 60,
      "hit": false,
      "t": 253333.26999999996,
      "d": 1333.3330000000133,
      "v": 91
    },
    {
      "midi": 64,
      "hit": false,
      "t": 253333.26999999996,
      "d": 1333.3330000000133,
      "v": 91
    },
    {
      "midi": 64,
      "hit": false,
      "t": 254666.60299999997,
      "d": 1333.3330000000133,
      "v": 91
    },
    {
      "midi": 60,
      "hit": false,
      "t": 254666.60299999997,
      "d": 1340.2774427083496,
      "v": 91
    },
    {
      "midi": 55,
      "hit": false,
      "t": 254666.60299999997,
      "d": 3999.99900000004,
      "v": 91
    },
    {
      "midi": 65,
      "hit": false,
      "t": 255999.936,
      "d": 1333.3330000000133,
      "v": 91
    },
    {
      "midi": 65,
      "hit": false,
      "t": 257333.269,
      "d": 1333.3330000000133,
      "v": 91
    },
    {
      "midi": 60,
      "hit": false,
      "t": 257333.269,
      "d": 6666.665000000008,
      "v": 91
    },
    {
      "midi": 57,
      "hit": false,
      "t": 257333.269,
      "d": 9340.275442708313,
      "v": 91
    },
    {
      "midi": 55,
      "hit": false,
      "t": 258666.602,
      "d": 1333.3330000000133,
      "v": 91
    },
    {
      "midi": 59,
      "hit": false,
      "t": 258666.602,
      "d": 1333.3330000000133,
      "v": 91
    },
    {
      "midi": 62,
      "hit": false,
      "t": 258666.602,
      "d": 1333.3330000000133,
      "v": 91
    },
    {
      "midi": 59,
      "hit": false,
      "t": 259999.93500000003,
      "d": 1333.3330000000133,
      "v": 91
    },
    {
      "midi": 55,
      "hit": false,
      "t": 259999.93500000003,
      "d": 1340.2774427083496,
      "v": 91
    },
    {
      "midi": 62,
      "hit": false,
      "t": 259999.93500000003,
      "d": 1340.2774427083496,
      "v": 91
    },
    {
      "midi": 59,
      "hit": false,
      "t": 261333.26800000004,
      "d": 1333.3329999999842,
      "v": 91
    },
    {
      "midi": 64,
      "hit": false,
      "t": 261333.26800000004,
      "d": 1333.3329999999842,
      "v": 91
    },
    {
      "midi": 55,
      "hit": false,
      "t": 262666.601,
      "d": 1333.3329999999842,
      "v": 91
    },
    {
      "midi": 59,
      "hit": false,
      "t": 262666.601,
      "d": 1333.3329999999842,
      "v": 91
    },
    {
      "midi": 64,
      "hit": false,
      "t": 262666.601,
      "d": 1333.3329999999842,
      "v": 91
    },
    {
      "midi": 55,
      "hit": false,
      "t": 263999.934,
      "d": 1333.3329999999842,
      "v": 91
    },
    {
      "midi": 60,
      "hit": false,
      "t": 263999.934,
      "d": 1333.3329999999842,
      "v": 91
    },
    {
      "midi": 64,
      "hit": false,
      "t": 263999.934,
      "d": 1333.3329999999842,
      "v": 91
    },
    {
      "midi": 64,
      "hit": false,
      "t": 265333.267,
      "d": 1333.3329999999842,
      "v": 91
    },
    {
      "midi": 55,
      "hit": false,
      "t": 265333.267,
      "d": 3999.9989999999525,
      "v": 91
    },
    {
      "midi": 60,
      "hit": false,
      "t": 265333.267,
      "d": 6673.609442708257,
      "v": 91
    },
    {
      "midi": 62,
      "hit": false,
      "t": 266666.6,
      "d": 1333.3329999999842,
      "v": 91
    },
    {
      "midi": 65,
      "hit": false,
      "t": 266666.6,
      "d": 1333.3329999999842,
      "v": 91
    },
    {
      "midi": 62,
      "hit": false,
      "t": 267999.93299999996,
      "d": 1333.3329999999842,
      "v": 91
    },
    {
      "midi": 65,
      "hit": false,
      "t": 267999.93299999996,
      "d": 1333.3329999999842,
      "v": 91
    },
    {
      "midi": 57,
      "hit": false,
      "t": 267999.93299999996,
      "d": 11999.996999999858,
      "v": 91
    },
    {
      "midi": 55,
      "hit": false,
      "t": 269333.26599999995,
      "d": 1333.3329999999842,
      "v": 91
    },
    {
      "midi": 62,
      "hit": false,
      "t": 269333.26599999995,
      "d": 1333.3329999999842,
      "v": 91
    },
    {
      "midi": 65,
      "hit": false,
      "t": 269333.26599999995,
      "d": 1333.3329999999842,
      "v": 91
    },
    {
      "midi": 62,
      "hit": false,
      "t": 270666.59899999993,
      "d": 1333.3329999999842,
      "v": 91
    },
    {
      "midi": 65,
      "hit": false,
      "t": 270666.59899999993,
      "d": 1333.3329999999842,
      "v": 91
    },
    {
      "midi": 55,
      "hit": false,
      "t": 270666.59899999993,
      "d": 1340.2774427083205,
      "v": 91
    },
    {
      "midi": 64,
      "hit": false,
      "t": 271999.9319999999,
      "d": 1333.3329999999842,
      "v": 91
    },
    {
      "midi": 55,
      "hit": false,
      "t": 273333.2649999999,
      "d": 1333.3329999999842,
      "v": 91
    },
    {
      "midi": 60,
      "hit": false,
      "t": 273333.2649999999,
      "d": 1333.3329999999842,
      "v": 91
    },
    {
      "midi": 64,
      "hit": false,
      "t": 273333.2649999999,
      "d": 1333.3329999999842,
      "v": 91
    },
    {
      "midi": 55,
      "hit": false,
      "t": 274666.5979999999,
      "d": 1333.3329999999842,
      "v": 91
    },
    {
      "midi": 60,
      "hit": false,
      "t": 274666.5979999999,
      "d": 1333.3329999999842,
      "v": 91
    },
    {
      "midi": 64,
      "hit": false,
      "t": 274666.5979999999,
      "d": 1333.3329999999842,
      "v": 91
    },
    {
      "midi": 64,
      "hit": false,
      "t": 275999.93099999987,
      "d": 1333.3329999999842,
      "v": 91
    },
    {
      "midi": 55,
      "hit": false,
      "t": 275999.93099999987,
      "d": 1340.2774427083205,
      "v": 91
    },
    {
      "midi": 60,
      "hit": false,
      "t": 275999.93099999987,
      "d": 3999.9989999999525,
      "v": 91
    },
    {
      "midi": 58,
      "hit": false,
      "t": 277333.26399999985,
      "d": 1333.3329999999842,
      "v": 91
    },
    {
      "midi": 63,
      "hit": false,
      "t": 277333.26399999985,
      "d": 1333.3329999999842,
      "v": 91
    },
    {
      "midi": 58,
      "hit": false,
      "t": 278666.59699999983,
      "d": 1333.3329999999842,
      "v": 91
    },
    {
      "midi": 63,
      "hit": false,
      "t": 278666.59699999983,
      "d": 1333.3329999999842,
      "v": 91
    },
    {
      "midi": 55,
      "hit": false,
      "t": 278666.59699999983,
      "d": 17333.328999999852,
      "v": 91
    },
    {
      "midi": 57,
      "hit": false,
      "t": 279999.9299999998,
      "d": 1333.3329999999842,
      "v": 91
    },
    {
      "midi": 60,
      "hit": false,
      "t": 279999.9299999998,
      "d": 1333.3329999999842,
      "v": 91
    },
    {
      "midi": 65,
      "hit": false,
      "t": 279999.9299999998,
      "d": 1333.3329999999842,
      "v": 91
    },
    {
      "midi": 65,
      "hit": false,
      "t": 281333.2629999998,
      "d": 1333.3329999999842,
      "v": 91
    },
    {
      "midi": 57,
      "hit": false,
      "t": 281333.2629999998,
      "d": 1340.2774427083205,
      "v": 91
    },
    {
      "midi": 60,
      "hit": false,
      "t": 281333.2629999998,
      "d": 6673.609442708257,
      "v": 91
    },
    {
      "midi": 62,
      "hit": false,
      "t": 282666.5959999998,
      "d": 1333.3329999999842,
      "v": 91
    },
    {
      "midi": 65,
      "hit": false,
      "t": 282666.5959999998,
      "d": 1333.3329999999842,
      "v": 91
    },
    {
      "midi": 62,
      "hit": false,
      "t": 283999.92899999977,
      "d": 1333.3329999999842,
      "v": 91
    },
    {
      "midi": 65,
      "hit": false,
      "t": 283999.92899999977,
      "d": 1333.3329999999842,
      "v": 91
    },
    {
      "midi": 57,
      "hit": false,
      "t": 283999.92899999977,
      "d": 43999.988999999536,
      "v": 91
    },
    {
      "midi": 58,
      "hit": false,
      "t": 285333.26199999976,
      "d": 1333.3329999999842,
      "v": 91
    },
    {
      "midi": 62,
      "hit": false,
      "t": 285333.26199999976,
      "d": 1333.3329999999842,
      "v": 91
    },
    {
      "midi": 65,
      "hit": false,
      "t": 285333.26199999976,
      "d": 1333.3329999999842,
      "v": 91
    },
    {
      "midi": 58,
      "hit": false,
      "t": 286666.59499999974,
      "d": 1333.3329999999842,
      "v": 91
    },
    {
      "midi": 62,
      "hit": false,
      "t": 286666.59499999974,
      "d": 1333.3329999999842,
      "v": 91
    },
    {
      "midi": 65,
      "hit": false,
      "t": 286666.59499999974,
      "d": 1333.3329999999842,
      "v": 91
    },
    {
      "midi": 56,
      "hit": false,
      "t": 287999.9279999997,
      "d": 5333.331999999995,
      "v": 91
    },
    {
      "midi": 63,
      "hit": false,
      "t": 287999.9279999997,
      "d": 5333.331999999995,
      "v": 91
    },
    {
      "midi": 72,
      "hit": false,
      "t": 289999.9274999997,
      "d": 666.6664999999921,
      "v": 107
    },
    {
      "midi": 75,
      "hit": false,
      "t": 290666.5939999997,
      "d": 2666.6660000000265,
      "v": 107
    },
    {
      "midi": 54,
      "hit": false,
      "t": 293333.2599999997,
      "d": 2666.6659999999683,
      "v": 91
    },
    {
      "midi": 62,
      "hit": false,
      "t": 293333.2599999997,
      "d": 2666.6659999999683,
      "v": 91
    },
    {
      "midi": 74,
      "hit": false,
      "t": 295333.2594999997,
      "d": 666.6664999999921,
      "v": 107
    },
    {
      "midi": 71,
      "hit": false,
      "t": 295999.9259999997,
      "d": 4666.665500000003,
      "v": 107
    },
    {
      "midi": 62,
      "hit": false,
      "t": 295999.9259999997,
      "d": 5333.331999999937,
      "v": 91
    },
    {
      "midi": 55,
      "hit": false,
      "t": 295999.9259999997,
      "d": 31999.99199999962,
      "v": 91
    },
    {
      "midi": 74,
      "hit": false,
      "t": 298333.2587499997,
      "d": 333.33325000002515,
      "v": 107
    },
    {
      "midi": 79,
      "hit": false,
      "t": 298666.5919999997,
      "d": 1999.9994999999763,
      "v": 107
    },
    {
      "midi": 67,
      "hit": false,
      "t": 300666.5914999997,
      "d": 222.22216666664463,
      "v": 107
    },
    {
      "midi": 71,
      "hit": false,
      "t": 300666.5914999997,
      "d": 333.33324999996694,
      "v": 107
    },
    {
      "midi": 74,
      "hit": false,
      "t": 300999.92474999966,
      "d": 222.22216666664463,
      "v": 107
    },
    {
      "midi": 71,
      "hit": false,
      "t": 300999.92474999966,
      "d": 8333.331249999872,
      "v": 107
    },
    {
      "midi": 67,
      "hit": false,
      "t": 301333.2579999996,
      "d": 1999.9994999999763,
      "v": 91
    },
    {
      "midi": 72,
      "hit": false,
      "t": 301333.2579999996,
      "d": 1999.9994999999763,
      "v": 91
    },
    {
      "midi": 76,
      "hit": false,
      "t": 301333.2579999996,
      "d": 1999.9994999999763,
      "v": 91
    },
    {
      "midi": 64,
      "hit": false,
      "t": 303333.2574999996,
      "d": 666.6664999999921,
      "v": 91
    },
    {
      "midi": 67,
      "hit": false,
      "t": 303333.2574999996,
      "d": 666.6664999999921,
      "v": 91
    },
    {
      "midi": 60,
      "hit": false,
      "t": 303333.2574999996,
      "d": 3340.2769427082967,
      "v": 91
    },
    {
      "midi": 59,
      "hit": false,
      "t": 303999.9239999996,
      "d": 1999.9994999999763,
      "v": 91
    },
    {
      "midi": 64,
      "hit": false,
      "t": 303999.9239999996,
      "d": 1999.9994999999763,
      "v": 91
    },
    {
      "midi": 67,
      "hit": false,
      "t": 303999.9239999996,
      "d": 1999.9994999999763,
      "v": 91
    },
    {
      "midi": 59,
      "hit": false,
      "t": 305999.92349999957,
      "d": 666.6664999999921,
      "v": 91
    },
    {
      "midi": 64,
      "hit": false,
      "t": 305999.92349999957,
      "d": 666.6664999999921,
      "v": 91
    },
    {
      "midi": 67,
      "hit": false,
      "t": 305999.92349999957,
      "d": 666.6664999999921,
      "v": 91
    },
    {
      "midi": 65,
      "hit": false,
      "t": 306666.58999999956,
      "d": 1999.9994999999763,
      "v": 91
    },
    {
      "midi": 69,
      "hit": false,
      "t": 306666.58999999956,
      "d": 1999.9994999999763,
      "v": 91
    },
    {
      "midi": 65,
      "hit": false,
      "t": 308666.58949999954,
      "d": 666.6664999999921,
      "v": 91
    },
    {
      "midi": 69,
      "hit": false,
      "t": 308666.58949999954,
      "d": 666.6664999999921,
      "v": 91
    },
    {
      "midi": 60,
      "hit": false,
      "t": 308666.58949999954,
      "d": 5333.331999999937,
      "v": 91
    },
    {
      "midi": 62,
      "hit": false,
      "t": 309333.2559999995,
      "d": 1333.3329999999842,
      "v": 91
    },
    {
      "midi": 67,
      "hit": false,
      "t": 309333.2559999995,
      "d": 1333.3329999999842,
      "v": 91
    },
    {
      "midi": 71,
      "hit": false,
      "t": 309333.2559999995,
      "d": 1999.9994999999763,
      "v": 91
    },
    {
      "midi": 72,
      "hit": false,
      "t": 310666.5889999995,
      "d": 666.6664999999921,
      "v": 91
    },
    {
      "midi": 76,
      "hit": false,
      "t": 310666.5889999995,
      "d": 666.6664999999921,
      "v": 91
    },
    {
      "midi": 74,
      "hit": false,
      "t": 311333.2554999995,
      "d": 666.6664999999921,
      "v": 91
    },
    {
      "midi": 71,
      "hit": false,
      "t": 311333.2554999995,
      "d": 8666.664499999897,
      "v": 91
    },
    {
      "midi": 64,
      "hit": false,
      "t": 311999.9219999995,
      "d": 1999.9994999999763,
      "v": 91
    },
    {
      "midi": 67,
      "hit": false,
      "t": 311999.9219999995,
      "d": 1999.9994999999763,
      "v": 91
    },
    {
      "midi": 72,
      "hit": false,
      "t": 311999.9219999995,
      "d": 1999.9994999999763,
      "v": 91
    },
    {
      "midi": 64,
      "hit": false,
      "t": 313999.9214999995,
      "d": 666.6664999999921,
      "v": 91
    },
    {
      "midi": 67,
      "hit": false,
      "t": 313999.9214999995,
      "d": 666.6664999999921,
      "v": 91
    },
    {
      "midi": 60,
      "hit": false,
      "t": 313999.9214999995,
      "d": 3340.2769427082967,
      "v": 91
    },
    {
      "midi": 59,
      "hit": false,
      "t": 314666.58799999946,
      "d": 1999.9994999999763,
      "v": 91
    },
    {
      "midi": 64,
      "hit": false,
      "t": 314666.58799999946,
      "d": 1999.9994999999763,
      "v": 91
    },
    {
      "midi": 67,
      "hit": false,
      "t": 314666.58799999946,
      "d": 1999.9994999999763,
      "v": 91
    },
    {
      "midi": 59,
      "hit": false,
      "t": 316666.58749999944,
      "d": 666.6664999999921,
      "v": 91
    },
    {
      "midi": 64,
      "hit": false,
      "t": 316666.58749999944,
      "d": 666.6664999999921,
      "v": 91
    },
    {
      "midi": 67,
      "hit": false,
      "t": 316666.58749999944,
      "d": 666.6664999999921,
      "v": 91
    },
    {
      "midi": 65,
      "hit": false,
      "t": 317333.25399999943,
      "d": 1999.9994999999763,
      "v": 91
    },
    {
      "midi": 69,
      "hit": false,
      "t": 317333.25399999943,
      "d": 1999.9994999999763,
      "v": 91
    },
    {
      "midi": 65,
      "hit": false,
      "t": 319333.2534999994,
      "d": 666.6664999999921,
      "v": 91
    },
    {
      "midi": 69,
      "hit": false,
      "t": 319333.2534999994,
      "d": 666.6664999999921,
      "v": 91
    },
    {
      "midi": 60,
      "hit": false,
      "t": 319333.2534999994,
      "d": 5333.331999999937,
      "v": 91
    },
    {
      "midi": 62,
      "hit": false,
      "t": 319999.9199999994,
      "d": 666.6664999999921,
      "v": 91
    },
    {
      "midi": 67,
      "hit": false,
      "t": 319999.9199999994,
      "d": 666.6664999999921,
      "v": 91
    },
    {
      "midi": 71,
      "hit": false,
      "t": 319999.9199999994,
      "d": 1999.9994999999763,
      "v": 91
    },
    {
      "midi": 67,
      "hit": false,
      "t": 320666.5864999994,
      "d": 2006.9439427083125,
      "v": 91
    },
    {
      "midi": 62,
      "hit": false,
      "t": 320666.5864999994,
      "d": 7333.331499999913,
      "v": 91
    },
    {
      "midi": 64,
      "hit": false,
      "t": 321333.2529999994,
      "d": 666.6664999999921,
      "v": 91
    },
    {
      "midi": 69,
      "hit": false,
      "t": 321333.2529999994,
      "d": 666.6664999999921,
      "v": 91
    },
    {
      "midi": 65,
      "hit": false,
      "t": 321999.9194999994,
      "d": 666.6664999999921,
      "v": 91
    },
    {
      "midi": 71,
      "hit": false,
      "t": 321999.9194999994,
      "d": 673.6109427083284,
      "v": 91
    },
    {
      "midi": 64,
      "hit": false,
      "t": 322666.58599999937,
      "d": 1999.9994999999763,
      "v": 91
    },
    {
      "midi": 72,
      "hit": false,
      "t": 322666.58599999937,
      "d": 1999.9994999999763,
      "v": 91
    },
    {
      "midi": 64,
      "hit": false,
      "t": 324666.58549999935,
      "d": 666.6664999999921,
      "v": 91
    },
    {
      "midi": 67,
      "hit": false,
      "t": 324666.58549999935,
      "d": 666.6664999999921,
      "v": 91
    },
    {
      "midi": 60,
      "hit": false,
      "t": 324666.58549999935,
      "d": 3340.2769427082967,
      "v": 91
    },
    {
      "midi": 59,
      "hit": false,
      "t": 325333.25199999934,
      "d": 1999.9994999999763,
      "v": 91
    },
    {
      "midi": 64,
      "hit": false,
      "t": 325333.25199999934,
      "d": 1999.9994999999763,
      "v": 91
    },
    {
      "midi": 67,
      "hit": false,
      "t": 325333.25199999934,
      "d": 1999.9994999999763,
      "v": 91
    },
    {
      "midi": 59,
      "hit": false,
      "t": 327333.2514999993,
      "d": 666.6664999999921,
      "v": 91
    },
    {
      "midi": 64,
      "hit": false,
      "t": 327333.2514999993,
      "d": 666.6664999999921,
      "v": 91
    },
    {
      "midi": 67,
      "hit": false,
      "t": 327333.2514999993,
      "d": 673.6109427083284,
      "v": 91
    },
    {
      "midi": 65,
      "hit": false,
      "t": 327999.9179999993,
      "d": 1999.9994999999763,
      "v": 91
    },
    {
      "midi": 69,
      "hit": false,
      "t": 327999.9179999993,
      "d": 1999.9994999999763,
      "v": 91
    },
    {
      "midi": 60,
      "hit": false,
      "t": 329999.9174999993,
      "d": 666.6664999999921,
      "v": 91
    },
    {
      "midi": 65,
      "hit": false,
      "t": 329999.9174999993,
      "d": 666.6664999999921,
      "v": 91
    },
    {
      "midi": 69,
      "hit": false,
      "t": 329999.9174999993,
      "d": 666.6664999999921,
      "v": 91
    },
    {
      "midi": 65,
      "hit": false,
      "t": 330666.5839999993,
      "d": 2666.6660000000265,
      "v": 91
    },
    {
      "midi": 69,
      "hit": false,
      "t": 330666.5839999993,
      "d": 2666.6660000000265,
      "v": 91
    },
    {
      "midi": 60,
      "hit": false,
      "t": 330666.5839999993,
      "d": 3333.3325000000186,
      "v": 91
    },
    {
      "midi": 45,
      "hit": false,
      "t": 333333.2499999993,
      "d": 2666.6659999999683,
      "v": 91
    },
    {
      "midi": 60,
      "hit": false,
      "t": 333999.9164999993,
      "d": 1333.3329999999842,
      "v": 91
    },
    {
      "midi": 64,
      "hit": false,
      "t": 334666.5829999993,
      "d": 666.6664999999921,
      "v": 91
    },
    {
      "midi": 60,
      "hit": false,
      "t": 335333.2494999993,
      "d": 24666.660499999824,
      "v": 91
    },
    {
      "midi": 72,
      "hit": false,
      "t": 335999.91599999927,
      "d": 1333.3329999999842,
      "v": 91
    },
    {
      "midi": 44,
      "hit": false,
      "t": 335999.91599999927,
      "d": 2666.6659999999683,
      "v": 91
    },
    {
      "midi": 64,
      "hit": false,
      "t": 337333.24899999925,
      "d": 1333.3329999999842,
      "v": 91
    },
    {
      "midi": 43,
      "hit": false,
      "t": 338666.58199999924,
      "d": 2666.6659999999683,
      "v": 91
    },
    {
      "midi": 64,
      "hit": false,
      "t": 339333.24849999923,
      "d": 666.6664999999921,
      "v": 91
    },
    {
      "midi": 72,
      "hit": false,
      "t": 339999.9149999992,
      "d": 666.6664999999921,
      "v": 91
    },
    {
      "midi": 74,
      "hit": false,
      "t": 340666.5814999992,
      "d": 666.6664999999921,
      "v": 91
    },
    {
      "midi": 42,
      "hit": false,
      "t": 341333.2479999992,
      "d": 2666.6660000000265,
      "v": 91
    },
    {
      "midi": 66,
      "hit": false,
      "t": 341333.2479999992,
      "d": 2666.6660000000265,
      "v": 91
    },
    {
      "midi": 72,
      "hit": false,
      "t": 341333.2479999992,
      "d": 2666.6660000000265,
      "v": 91
    },
    {
      "midi": 76,
      "hit": false,
      "t": 341333.2479999992,
      "d": 2666.6660000000265,
      "v": 91
    },
    {
      "midi": 69,
      "hit": false,
      "t": 343999.91399999923,
      "d": 666.6664999999921,
      "v": 91
    },
    {
      "midi": 65,
      "hit": false,
      "t": 343999.91399999923,
      "d": 1333.3329999999842,
      "v": 91
    },
    {
      "midi": 72,
      "hit": false,
      "t": 343999.91399999923,
      "d": 1333.3329999999842,
      "v": 91
    },
    {
      "midi": 38,
      "hit": false,
      "t": 343999.91399999923,
      "d": 2666.6659999999683,
      "v": 91
    },
    {
      "midi": 69,
      "hit": false,
      "t": 344666.5804999992,
      "d": 15333.329499999876,
      "v": 91
    },
    {
      "midi": 72,
      "hit": false,
      "t": 345333.2469999992,
      "d": 666.6664999999921,
      "v": 91
    },
    {
      "midi": 74,
      "hit": false,
      "t": 345999.9134999992,
      "d": 666.6664999999921,
      "v": 91
    },
    {
      "midi": 43,
      "hit": false,
      "t": 346666.5799999992,
      "d": 2666.6659999999683,
      "v": 91
    },
    {
      "midi": 67,
      "hit": false,
      "t": 346777.6910833325,
      "d": 2555.554916666646,
      "v": 91
    },
    {
      "midi": 71,
      "hit": false,
      "t": 346888.80216666585,
      "d": 2444.4438333333237,
      "v": 91
    },
    {
      "midi": 77,
      "hit": false,
      "t": 346999.91324999917,
      "d": 2333.3327500000014,
      "v": 91
    },
    {
      "midi": 48,
      "hit": false,
      "t": 349999.91249999916,
      "d": 9999.99749999994,
      "v": 91
    },
    {
      "midi": 67,
      "hit": false,
      "t": 350111.0235833325,
      "d": 9888.886416666617,
      "v": 91
    },
    {
      "midi": 72,
      "hit": false,
      "t": 350222.1346666658,
      "d": 9777.775333333295,
      "v": 91
    },
    {
      "midi": 76,
      "hit": false,
      "t": 350333.2457499991,
      "d": 9666.664249999973,
      "v": 91
    },
    {
      "midi": 79,
      "hit": false,
      "t": 350444.35683333245,
      "d": 9555.55316666665,
      "v": 91
    },
    {
      "midi": 84,
      "hit": false,
      "t": 350555.4679166658,
      "d": 9444.442083333328,
      "v": 91
    }
  ]
}