{
  "jsonPath": "Unknown/Unknown/Riccardo MutiSalvatore Licitra/stride-la-vampa-azucena-chorus-manrico-un-vecchio-zingaro.json",
  "path": "Unknown\\Unknown\\Riccardo MutiSalvatore Licitra\\Stride la vampa (Azucena_ chorus_ Manrico_ un vecchio zingaro).mid",
  "name": "Stride la vampa (Azucena_ chorus_ Manrico_ un vecchio zingaro)",
  "difficulty": "Advanced",
  "bpm": 114.0001710002565,
  "notes": [
    {
      "midi": 52,
      "hit": false,
      "t": 2694.6231510416665,
      "d": 54.824479166666606,
      "v": 80
    },
    {
      "midi": 67,
      "hit": false,
      "t": 3100.3242968749996,
      "d": 46.600807291667024,
      "v": 66
    },
    {
      "midi": 59,
      "hit": false,
      "t": 3105.8067447916665,
      "d": 43.859583333333376,
      "v": 68
    },
    {
      "midi": 64,
      "hit": false,
      "t": 3108.5479687499997,
      "d": 32.894687500000146,
      "v": 64
    },
    {
      "midi": 59,
      "hit": false,
      "t": 3497.801770833333,
      "d": 35.63591145833334,
      "v": 64
    },
    {
      "midi": 67,
      "hit": false,
      "t": 3500.5429947916664,
      "d": 30.15346354166695,
      "v": 74
    },
    {
      "midi": 64,
      "hit": false,
      "t": 3506.0254427083332,
      "d": 24.67101562500011,
      "v": 68
    },
    {
      "midi": 52,
      "hit": false,
      "t": 3865.12578125,
      "d": 35.63591145833334,
      "v": 85
    },
    {
      "midi": 67,
      "hit": false,
      "t": 4237.932239583333,
      "d": 43.85958333333292,
      "v": 64
    },
    {
      "midi": 59,
      "hit": false,
      "t": 4240.673463541667,
      "d": 52.08325520833296,
      "v": 66
    },
    {
      "midi": 64,
      "hit": false,
      "t": 4246.155911458333,
      "d": 30.153463541666497,
      "v": 61
    },
    {
      "midi": 59,
      "hit": false,
      "t": 4621.7035937499995,
      "d": 41.11835937500018,
      "v": 57
    },
    {
      "midi": 67,
      "hit": false,
      "t": 4624.444817708333,
      "d": 38.37713541666653,
      "v": 64
    },
    {
      "midi": 64,
      "hit": false,
      "t": 4640.892161458333,
      "d": 24.67101562500011,
      "v": 52
    },
    {
      "midi": 52,
      "hit": false,
      "t": 4994.510052083333,
      "d": 315.2407552083332,
      "v": 82
    },
    {
      "midi": 67,
      "hit": false,
      "t": 5353.610390624999,
      "d": 49.34203125000022,
      "v": 64
    },
    {
      "midi": 64,
      "hit": false,
      "t": 5359.0928385416655,
      "d": 41.11835937500018,
      "v": 66
    },
    {
      "midi": 59,
      "hit": false,
      "t": 5361.834062499999,
      "d": 49.34203125000022,
      "v": 59
    },
    {
      "midi": 59,
      "hit": false,
      "t": 5767.535208333333,
      "d": 52.08325520833296,
      "v": 62
    },
    {
      "midi": 67,
      "hit": false,
      "t": 5773.017656249999,
      "d": 49.34203125000022,
      "v": 70
    },
    {
      "midi": 64,
      "hit": false,
      "t": 5775.758880208333,
      "d": 38.37713541666653,
      "v": 66
    },
    {
      "midi": 52,
      "hit": false,
      "t": 6154.047786458333,
      "d": 230.2628125000001,
      "v": 85
    },
    {
      "midi": 67,
      "hit": false,
      "t": 6518.630572916666,
      "d": 63.04815104166664,
      "v": 72
    },
    {
      "midi": 64,
      "hit": false,
      "t": 6524.1130208333325,
      "d": 46.60080729166657,
      "v": 76
    },
    {
      "midi": 59,
      "hit": false,
      "t": 6529.595468749999,
      "d": 54.824479166667516,
      "v": 66
    },
    {
      "midi": 67,
      "hit": false,
      "t": 6905.143151041666,
      "d": 90.4603906250004,
      "v": 64
    },
    {
      "midi": 59,
      "hit": false,
      "t": 6910.625598958332,
      "d": 74.01304687500033,
      "v": 58
    },
    {
      "midi": 71,
      "hit": false,
      "t": 7149.112083333333,
      "d": 71.27182291666668,
      "v": 89
    },
    {
      "midi": 72,
      "hit": false,
      "t": 7212.160234375,
      "d": 112.39018229166595,
      "v": 98
    },
    {
      "midi": 52,
      "hit": false,
      "t": 7214.901458333334,
      "d": 71.27182291666577,
      "v": 89
    },
    {
      "midi": 71,
      "hit": false,
      "t": 7272.467161458333,
      "d": 348.13544270833245,
      "v": 85
    },
    {
      "midi": 59,
      "hit": false,
      "t": 7593.190364583333,
      "d": 101.42528645833227,
      "v": 76
    },
    {
      "midi": 70,
      "hit": false,
      "t": 7598.672812499999,
      "d": 287.82851562499945,
      "v": 74
    },
    {
      "midi": 64,
      "hit": false,
      "t": 7612.3789322916655,
      "d": 60.306927083332994,
      "v": 74
    },
    {
      "midi": 67,
      "hit": false,
      "t": 7615.120156249999,
      "d": 57.565703124999345,
      "v": 76
    },
    {
      "midi": 71,
      "hit": false,
      "t": 7856.347864583332,
      "d": 137.06119791666697,
      "v": 89
    },
    {
      "midi": 74,
      "hit": false,
      "t": 7957.773151041665,
      "d": 312.4995312500014,
      "v": 89
    },
    {
      "midi": 64,
      "hit": false,
      "t": 7971.479270833332,
      "d": 46.60080729166748,
      "v": 87
    },
    {
      "midi": 67,
      "hit": false,
      "t": 7974.220494791665,
      "d": 46.60080729166748,
      "v": 82
    },
    {
      "midi": 72,
      "hit": false,
      "t": 8220.930651041666,
      "d": 167.21466145833438,
      "v": 87
    },
    {
      "midi": 52,
      "hit": false,
      "t": 8347.026953125,
      "d": 87.71916666666766,
      "v": 85
    },
    {
      "midi": 71,
      "hit": false,
      "t": 8349.768177083333,
      "d": 978.6169531250034,
      "v": 107
    },
    {
      "midi": 59,
      "hit": false,
      "t": 8711.609739583335,
      "d": 79.49549479166853,
      "v": 70
    },
    {
      "midi": 67,
      "hit": false,
      "t": 8730.798307291669,
      "d": 41.11835937500109,
      "v": 57
    },
    {
      "midi": 64,
      "hit": false,
      "t": 8733.539531250002,
      "d": 54.824479166667516,
      "v": 60
    },
    {
      "midi": 67,
      "hit": false,
      "t": 9087.157421875003,
      "d": 43.85958333333292,
      "v": 72
    },
    {
      "midi": 64,
      "hit": false,
      "t": 9111.828437500002,
      "d": 24.67101562500102,
      "v": 51
    },
    {
      "midi": 69,
      "hit": false,
      "t": 9342.091250000003,
      "d": 32.894687500000146,
      "v": 57
    },
    {
      "midi": 71,
      "hit": false,
      "t": 9394.174505208337,
      "d": 123.35507812499964,
      "v": 89
    },
    {
      "midi": 47,
      "hit": false,
      "t": 9427.069192708337,
      "d": 90.46039062499949,
      "v": 78
    },
    {
      "midi": 69,
      "hit": false,
      "t": 9446.25776041667,
      "d": 394.7362499999981,
      "v": 89
    },
    {
      "midi": 68,
      "hit": false,
      "t": 9797.134427083336,
      "d": 282.34606770833307,
      "v": 66
    },
    {
      "midi": 66,
      "hit": false,
      "t": 9799.87565104167,
      "d": 76.75427083333307,
      "v": 59
    },
    {
      "midi": 63,
      "hit": false,
      "t": 9810.840546875002,
      "d": 68.53059895833394,
      "v": 60
    },
    {
      "midi": 59,
      "hit": false,
      "t": 9821.805442708335,
      "d": 65.78937500000029,
      "v": 78
    },
    {
      "midi": 69,
      "hit": false,
      "t": 10046.585807291669,
      "d": 169.95588541666802,
      "v": 85
    },
    {
      "midi": 66,
      "hit": false,
      "t": 10134.304973958337,
      "d": 49.34203125000022,
      "v": 68
    },
    {
      "midi": 59,
      "hit": false,
      "t": 10148.011093750003,
      "d": 35.635911458333794,
      "v": 70
    },
    {
      "midi": 72,
      "hit": false,
      "t": 10150.752317708337,
      "d": 309.75830729166773,
      "v": 82
    },
    {
      "midi": 63,
      "hit": false,
      "t": 10156.234765625004,
      "d": 27.41223958333285,
      "v": 50
    },
    {
      "midi": 71,
      "hit": false,
      "t": 10416.65104166667,
      "d": 153.50854166666795,
      "v": 89
    },
    {
      "midi": 47,
      "hit": false,
      "t": 10523.558776041671,
      "d": 65.78937500000029,
      "v": 82
    },
    {
      "midi": 69,
      "hit": false,
      "t": 10529.041223958338,
      "d": 964.9108333333334,
      "v": 95
    },
    {
      "midi": 59,
      "hit": false,
      "t": 10893.62401041667,
      "d": 79.49549479166672,
      "v": 70
    },
    {
      "midi": 66,
      "hit": false,
      "t": 10896.365234375004,
      "d": 68.53059895833212,
      "v": 68
    },
    {
      "midi": 63,
      "hit": false,
      "t": 10904.588906250003,
      "d": 63.04815104166664,
      "v": 64
    },
    {
      "midi": 66,
      "hit": false,
      "t": 11291.101484375004,
      "d": 68.53059895833394,
      "v": 68
    },
    {
      "midi": 59,
      "hit": false,
      "t": 11296.58393229167,
      "d": 30.153463541666497,
      "v": 58
    },
    {
      "midi": 63,
      "hit": false,
      "t": 11299.325156250005,
      "d": 63.04815104166664,
      "v": 64
    },
    {
      "midi": 67,
      "hit": false,
      "t": 11488.469609375004,
      "d": 65.78937500000029,
      "v": 87
    },
    {
      "midi": 69,
      "hit": false,
      "t": 11557.000208333338,
      "d": 120.61385416666599,
      "v": 80
    },
    {
      "midi": 52,
      "hit": false,
      "t": 11617.307135416671,
      "d": 197.36812500000087,
      "v": 85
    },
    {
      "midi": 67,
      "hit": false,
      "t": 11625.53080729167,
      "d": 389.25380208333445,
      "v": 87
    },
    {
      "midi": 55,
      "hit": false,
      "t": 11973.666250000006,
      "d": 76.75427083333307,
      "v": 72
    },
    {
      "midi": 66,
      "hit": false,
      "t": 11984.631145833338,
      "d": 279.6048437499994,
      "v": 61
    },
    {
      "midi": 64,
      "hit": false,
      "t": 11990.113593750006,
      "d": 57.565703124999345,
      "v": 63
    },
    {
      "midi": 67,
      "hit": false,
      "t": 12234.082526041671,
      "d": 104.16651041666773,
      "v": 87
    },
    {
      "midi": 64,
      "hit": false,
      "t": 12324.54291666667,
      "d": 52.083255208335686,
      "v": 72
    },
    {
      "midi": 69,
      "hit": false,
      "t": 12330.025364583338,
      "d": 271.3811718750021,
      "v": 95
    },
    {
      "midi": 55,
      "hit": false,
      "t": 12332.766588541672,
      "d": 60.30692708333481,
      "v": 80
    },
    {
      "midi": 67,
      "hit": false,
      "t": 12565.770625000006,
      "d": 139.8024218749997,
      "v": 70
    },
    {
      "midi": 66,
      "hit": false,
      "t": 12678.160807291673,
      "d": 781.2488281249971,
      "v": 70
    },
    {
      "midi": 47,
      "hit": false,
      "t": 12694.608151041673,
      "d": 723.6831249999977,
      "v": 72
    },
    {
      "midi": 59,
      "hit": false,
      "t": 13059.190937500005,
      "d": 71.27182291666577,
      "v": 66
    },
    {
      "midi": 63,
      "hit": false,
      "t": 13061.932161458339,
      "d": 71.27182291666577,
      "v": 61
    },
    {
      "midi": 54,
      "hit": false,
      "t": 13072.897057291671,
      "d": 76.75427083333307,
      "v": 47
    },
    {
      "midi": 63,
      "hit": false,
      "t": 13421.032500000005,
      "d": 63.04815104166482,
      "v": 62
    },
    {
      "midi": 59,
      "hit": false,
      "t": 13429.256171875004,
      "d": 76.75427083333125,
      "v": 57
    },
    {
      "midi": 54,
      "hit": false,
      "t": 13440.221067708337,
      "d": 57.565703124999345,
      "v": 39
    },
    {
      "midi": 52,
      "hit": false,
      "t": 13821.251197916668,
      "d": 381.0301302083335,
      "v": 56
    },
    {
      "midi": 67,
      "hit": false,
      "t": 14166.645416666668,
      "d": 60.30692708333481,
      "v": 64
    },
    {
      "midi": 64,
      "hit": false,
      "t": 14180.351536458335,
      "d": 41.11835937500109,
      "v": 53
    },
    {
      "midi": 59,
      "hit": false,
      "t": 14183.092760416668,
      "d": 41.11835937500109,
      "v": 57
    },
    {
      "midi": 67,
      "hit": false,
      "t": 14542.193098958336,
      "d": 41.11835937500109,
      "v": 60
    },
    {
      "midi": 59,
      "hit": false,
      "t": 14547.675546875003,
      "d": 43.85958333333474,
      "v": 57
    },
    {
      "midi": 64,
      "hit": false,
      "t": 14553.15799479167,
      "d": 35.635911458333794,
      "v": 53
    },
    {
      "midi": 52,
      "hit": false,
      "t": 14928.705677083339,
      "d": 334.42932291666693,
      "v": 64
    },
    {
      "midi": 67,
      "hit": false,
      "t": 15279.582343750006,
      "d": 57.565703124999345,
      "v": 70
    },
    {
      "midi": 64,
      "hit": false,
      "t": 15293.288463541672,
      "d": 35.635911458333794,
      "v": 60
    },
    {
      "midi": 59,
      "hit": false,
      "t": 15298.77091145834,
      "d": 38.377135416665624,
      "v": 57
    },
    {
      "midi": 67,
      "hit": false,
      "t": 15655.130026041672,
      "d": 74.01304687499942,
      "v": 58
    },
    {
      "midi": 59,
      "hit": false,
      "t": 15660.61247395834,
      "d": 54.8244791666657,
      "v": 66
    },
    {
      "midi": 64,
      "hit": false,
      "t": 15668.836145833338,
      "d": 49.34203125000022,
      "v": 56
    },
    {
      "midi": 71,
      "hit": false,
      "t": 15915.546302083338,
      "d": 65.78937500000029,
      "v": 82
    },
    {
      "midi": 52,
      "hit": false,
      "t": 15973.112005208337,
      "d": 65.78937500000211,
      "v": 80
    },
    {
      "midi": 72,
      "hit": false,
      "t": 15978.594453125004,
      "d": 109.64895833333503,
      "v": 95
    },
    {
      "midi": 71,
      "hit": false,
      "t": 16030.677708333338,
      "d": 353.61789062500065,
      "v": 82
    },
    {
      "midi": 70,
      "hit": false,
      "t": 16348.659687500007,
      "d": 287.82851562499854,
      "v": 70
    },
    {
      "midi": 59,
      "hit": false,
      "t": 16359.62458333334,
      "d": 79.4954947916649,
      "v": 63
    },
    {
      "midi": 64,
      "hit": false,
      "t": 16362.365807291673,
      "d": 63.04815104166482,
      "v": 66
    },
    {
      "midi": 67,
      "hit": false,
      "t": 16367.84825520834,
      "d": 54.8244791666657,
      "v": 64
    },
    {
      "midi": 71,
      "hit": false,
      "t": 16598.111067708338,
      "d": 134.31997395833605,
      "v": 82
    },
    {
      "midi": 74,
      "hit": false,
      "t": 16688.57145833334,
      "d": 331.6880989583369,
      "v": 91
    },
    {
      "midi": 64,
      "hit": false,
      "t": 16715.983697916672,
      "d": 46.60080729167021,
      "v": 63
    },
    {
      "midi": 67,
      "hit": false,
      "t": 16721.46614583334,
      "d": 35.63591145833561,
      "v": 66
    },
    {
      "midi": 72,
      "hit": false,
      "t": 16954.470182291676,
      "d": 167.21466145833256,
      "v": 89
    },
    {
      "midi": 52,
      "hit": false,
      "t": 17069.601588541675,
      "d": 98.68406250000044,
      "v": 78
    },
    {
      "midi": 71,
      "hit": false,
      "t": 17077.825260416674,
      "d": 953.9459374999897,
      "v": 98
    },
    {
      "midi": 59,
      "hit": false,
      "t": 17436.92559895834,
      "d": 74.01304687499578,
      "v": 62
    },
    {
      "midi": 64,
      "hit": false,
      "t": 17439.66682291667,
      "d": 74.01304687499578,
      "v": 72
    },
    {
      "midi": 67,
      "hit": false,
      "t": 17442.408046875003,
      "d": 68.53059895833212,
      "v": 57
    },
    {
      "midi": 59,
      "hit": false,
      "t": 17801.508385416666,
      "d": 68.53059895833212,
      "v": 68
    },
    {
      "midi": 67,
      "hit": false,
      "t": 17809.732057291665,
      "d": 46.60080729166657,
      "v": 68
    },
    {
      "midi": 64,
      "hit": false,
      "t": 17815.214505208332,
      "d": 43.8595833333311,
      "v": 62
    },
    {
      "midi": 69,
      "hit": false,
      "t": 18037.25364583333,
      "d": 43.85958333333474,
      "v": 76
    },
    {
      "midi": 71,
      "hit": false,
      "t": 18100.301796875,
      "d": 123.35507812500146,
      "v": 95
    },
    {
      "midi": 47,
      "hit": false,
      "t": 18138.678932291667,
      "d": 79.49549479166672,
      "v": 80
    },
    {
      "midi": 69,
      "hit": false,
      "t": 18163.349947916668,
      "d": 394.7362499999981,
      "v": 87
    },
    {
      "midi": 68,
      "hit": false,
      "t": 18508.744166666667,
      "d": 279.6048437499958,
      "v": 72
    },
    {
      "midi": 66,
      "hit": false,
      "t": 18511.485390625,
      "d": 68.53059895833212,
      "v": 61
    },
    {
      "midi": 59,
      "hit": false,
      "t": 18519.7090625,
      "d": 63.04815104166482,
      "v": 66
    },
    {
      "midi": 63,
      "hit": false,
      "t": 18527.932734374997,
      "d": 46.60080729166657,
      "v": 57
    },
    {
      "midi": 69,
      "hit": false,
      "t": 18758.195546874995,
      "d": 137.06119791667152,
      "v": 85
    },
    {
      "midi": 66,
      "hit": false,
      "t": 18832.208593749998,
      "d": 43.85958333333474,
      "v": 76
    },
    {
      "midi": 63,
      "hit": false,
      "t": 18843.173489583332,
      "d": 46.60080729166657,
      "v": 68
    },
    {
      "midi": 59,
      "hit": false,
      "t": 18854.138385416667,
      "d": 27.41223958333285,
      "v": 74
    },
    {
      "midi": 72,
      "hit": false,
      "t": 18856.879609375,
      "d": 293.3109635416695,
      "v": 82
    },
    {
      "midi": 71,
      "hit": false,
      "t": 19100.848541666666,
      "d": 172.6971093750035,
      "v": 85
    },
    {
      "midi": 47,
      "hit": false,
      "t": 19215.97994791667,
      "d": 71.27182291666759,
      "v": 80
    },
    {
      "midi": 69,
      "hit": false,
      "t": 19226.944843750003,
      "d": 918.3100260416686,
      "v": 98
    },
    {
      "midi": 59,
      "hit": false,
      "t": 19572.339062500003,
      "d": 93.20161458333314,
      "v": 82
    },
    {
      "midi": 66,
      "hit": false,
      "t": 19575.080286458335,
      "d": 74.01304687500306,
      "v": 63
    },
    {
      "midi": 63,
      "hit": false,
      "t": 19586.04518229167,
      "d": 65.78937500000029,
      "v": 62
    },
    {
      "midi": 66,
      "hit": false,
      "t": 19928.698177083337,
      "d": 57.565703125001164,
      "v": 78
    },
    {
      "midi": 59,
      "hit": false,
      "t": 19942.404296875004,
      "d": 54.824479166669335,
      "v": 87
    },
    {
      "midi": 63,
      "hit": false,
      "t": 19947.88674479167,
      "d": 27.41223958333285,
      "v": 66
    },
    {
      "midi": 67,
      "hit": false,
      "t": 20131.548750000005,
      "d": 76.75427083333125,
      "v": 98
    },
    {
      "midi": 69,
      "hit": false,
      "t": 20200.079348958338,
      "d": 128.83752604166511,
      "v": 85
    },
    {
      "midi": 52,
      "hit": false,
      "t": 20238.456484375005,
      "d": 71.27182291666395,
      "v": 80
    },
    {
      "midi": 67,
      "hit": false,
      "t": 20274.092395833337,
      "d": 619.5166145833282,
      "v": 91
    },
    {
      "midi": 45,
      "hit": false,
      "t": 20509.83765625,
      "d": 104.16651041666773,
      "v": 85
    },
    {
      "midi": 52,
      "hit": false,
      "t": 20570.144583333335,
      "d": 112.39018229166686,
      "v": 91
    },
    {
      "midi": 60,
      "hit": false,
      "t": 20668.828645833335,
      "d": 63.04815104166482,
      "v": 89
    },
    {
      "midi": 69,
      "hit": false,
      "t": 20852.490651041666,
      "d": 175.43833333333168,
      "v": 85
    },
    {
      "midi": 47,
      "hit": false,
      "t": 20970.36328125,
      "d": 63.04815104166482,
      "v": 68
    },
    {
      "midi": 57,
      "hit": false,
      "t": 20975.845729166667,
      "d": 71.27182291666395,
      "v": 72
    },
    {
      "midi": 66,
      "hit": false,
      "t": 20978.586953125,
      "d": 282.34606770833125,
      "v": 80
    },
    {
      "midi": 51,
      "hit": false,
      "t": 20981.32817708333,
      "d": 68.53059895833212,
      "v": 82
    },
    {
      "midi": 67,
      "hit": false,
      "t": 21228.03833333333,
      "d": 106.90773437499956,
      "v": 80
    },
    {
      "midi": 64,
      "hit": false,
      "t": 21329.463619791662,
      "d": 361.84156249999796,
      "v": 87
    },
    {
      "midi": 52,
      "hit": false,
      "t": 21340.428515624997,
      "d": 402.95992187499724,
      "v": 85
    },
    {
      "midi": 59,
      "hit": false,
      "t": 21710.493749999994,
      "d": 60.306927083332994,
      "v": 64
    },
    {
      "midi": 55,
      "hit": false,
      "t": 21718.717421874993,
      "d": 52.08325520833387,
      "v": 78
    },
    {
      "midi": 59,
      "hit": false,
      "t": 22069.59408854166,
      "d": 52.08325520833023,
      "v": 82
    },
    {
      "midi": 55,
      "hit": false,
      "t": 22072.335312499992,
      "d": 46.60080729166657,
      "v": 82
    },
    {
      "midi": 36,
      "hit": false,
      "t": 22494.483802083327,
      "d": 504.38520833333314,
      "v": 91
    },
    {
      "midi": 48,
      "hit": false,
      "t": 22497.22502604166,
      "d": 501.6439843750013,
      "v": 89
    },
    {
      "midi": 67,
      "hit": false,
      "t": 22878.255156249994,
      "d": 68.53059895833212,
      "v": 85
    },
    {
      "midi": 64,
      "hit": false,
      "t": 22883.73760416666,
      "d": 57.565703124997526,
      "v": 82
    },
    {
      "midi": 60,
      "hit": false,
      "t": 22891.96127604166,
      "d": 46.60080729166657,
      "v": 72
    },
    {
      "midi": 67,
      "hit": false,
      "t": 23267.508958333325,
      "d": 60.306927083332994,
      "v": 80
    },
    {
      "midi": 60,
      "hit": false,
      "t": 23270.250182291657,
      "d": 57.565703125001164,
      "v": 78
    },
    {
      "midi": 64,
      "hit": false,
      "t": 23281.21507812499,
      "d": 46.60080729166657,
      "v": 78
    },
    {
      "midi": 36,
      "hit": false,
      "t": 23632.091744791658,
      "d": 328.9468749999978,
      "v": 95
    },
    {
      "midi": 48,
      "hit": false,
      "t": 23640.315416666657,
      "d": 334.4293229166651,
      "v": 82
    },
    {
      "midi": 67,
      "hit": false,
      "t": 23982.96841145832,
      "d": 57.565703125001164,
      "v": 78
    },
    {
      "midi": 64,
      "hit": false,
      "t": 23993.933307291656,
      "d": 52.08325520833023,
      "v": 78
    },
    {
      "midi": 60,
      "hit": false,
      "t": 24002.156979166655,
      "d": 41.11835937499927,
      "v": 70
    },
    {
      "midi": 60,
      "hit": false,
      "t": 24344.80997395832,
      "d": 74.01304687499942,
      "v": 82
    },
    {
      "midi": 67,
      "hit": false,
      "t": 24350.292421874987,
      "d": 52.08325520833023,
      "v": 82
    },
    {
      "midi": 64,
      "hit": false,
      "t": 24353.03364583332,
      "d": 54.8244791666657,
      "v": 80
    },
    {
      "midi": 55,
      "hit": false,
      "t": 24747.76989583332,
      "d": 734.6480208333269,
      "v": 80
    },
    {
      "midi": 43,
      "hit": false,
      "t": 24753.252343749988,
      "d": 737.3892447916587,
      "v": 82
    },
    {
      "midi": 67,
      "hit": false,
      "t": 25101.38778645832,
      "d": 65.78937499999665,
      "v": 72
    },
    {
      "midi": 62,
      "hit": false,
      "t": 25115.093906249986,
      "d": 38.377135416663805,
      "v": 82
    },
    {
      "midi": 59,
      "hit": false,
      "t": 25117.835130208317,
      "d": 38.377135416663805,
      "v": 68
    },
    {
      "midi": 67,
      "hit": false,
      "t": 25468.71179687498,
      "d": 60.306927083329356,
      "v": 82
    },
    {
      "midi": 59,
      "hit": false,
      "t": 25474.194244791648,
      "d": 52.08325520833023,
      "v": 80
    },
    {
      "midi": 62,
      "hit": false,
      "t": 25479.676692708315,
      "d": 49.34203124999476,
      "v": 87
    },
    {
      "midi": 55,
      "hit": false,
      "t": 25855.224374999976,
      "d": 402.9599218750045,
      "v": 68
    },
    {
      "midi": 43,
      "hit": false,
      "t": 25866.18927083331,
      "d": 397.4774739583372,
      "v": 80
    },
    {
      "midi": 67,
      "hit": false,
      "t": 26211.58348958331,
      "d": 68.53059895833576,
      "v": 63
    },
    {
      "midi": 62,
      "hit": false,
      "t": 26217.065937499978,
      "d": 52.083255208337505,
      "v": 80
    },
    {
      "midi": 59,
      "hit": false,
      "t": 26228.030833333312,
      "d": 43.85958333333474,
      "v": 66
    },
    {
      "midi": 67,
      "hit": false,
      "t": 26570.68382812498,
      "d": 65.78937500000393,
      "v": 80
    },
    {
      "midi": 59,
      "hit": false,
      "t": 26581.648723958315,
      "d": 43.85958333333474,
      "v": 64
    },
    {
      "midi": 62,
      "hit": false,
      "t": 26587.131171874982,
      "d": 32.894687500000146,
      "v": 76
    },
    {
      "midi": 53,
      "hit": false,
      "t": 26981.867421874984,
      "d": 501.6439843749977,
      "v": 40
    },
    {
      "midi": 41,
      "hit": false,
      "t": 26984.608645833316,
      "d": 507.12643229166497,
      "v": 56
    },
    {
      "midi": 69,
      "hit": false,
      "t": 27335.485312499983,
      "d": 90.46039062499767,
      "v": 44
    },
    {
      "midi": 65,
      "hit": false,
      "t": 27354.673880208316,
      "d": 49.3420312499984,
      "v": 60
    },
    {
      "midi": 60,
      "hit": false,
      "t": 27371.121223958315,
      "d": 35.635911458331975,
      "v": 35
    },
    {
      "midi": 69,
      "hit": false,
      "t": 27702.809322916648,
      "d": 84.97794270833401,
      "v": 46
    },
    {
      "midi": 65,
      "hit": false,
      "t": 27713.774218749983,
      "d": 54.8244791666657,
      "v": 58
    },
    {
      "midi": 60,
      "hit": false,
      "t": 27719.25666666665,
      "d": 57.565703124997526,
      "v": 51
    },
    {
      "midi": 41,
      "hit": false,
      "t": 28086.580677083315,
      "d": 389.2538020833272,
      "v": 53
    },
    {
      "midi": 53,
      "hit": false,
      "t": 28089.321901041647,
      "d": 391.99502604166264,
      "v": 39
    },
    {
      "midi": 65,
      "hit": false,
      "t": 28462.12835937498,
      "d": 41.118359374995634,
      "v": 47
    },
    {
      "midi": 60,
      "hit": false,
      "t": 28464.86958333331,
      "d": 38.377135416663805,
      "v": 37
    },
    {
      "midi": 69,
      "hit": false,
      "t": 28467.610807291643,
      "d": 41.11835937499927,
      "v": 21
    },
    {
      "midi": 69,
      "hit": false,
      "t": 28823.969921874977,
      "d": 84.97794270833037,
      "v": 39
    },
    {
      "midi": 65,
      "hit": false,
      "t": 28826.71114583331,
      "d": 65.78937500000029,
      "v": 59
    },
    {
      "midi": 60,
      "hit": false,
      "t": 28837.676041666644,
      "d": 57.565703124997526,
      "v": 46
    },
    {
      "midi": 48,
      "hit": false,
      "t": 29188.55270833331,
      "d": 430.37216145832645,
      "v": 50
    },
    {
      "midi": 36,
      "hit": false,
      "t": 29191.293932291643,
      "d": 433.1133854166583,
      "v": 63
    },
    {
      "midi": 67,
      "hit": false,
      "t": 29553.135494791644,
      "d": 68.53059895832484,
      "v": 66
    },
    {
      "midi": 60,
      "hit": false,
      "t": 29555.876718749976,
      "d": 60.306927083329356,
      "v": 63
    },
    {
      "midi": 64,
      "hit": false,
      "t": 29558.617942708308,
      "d": 54.8244791666657,
      "v": 64
    },
    {
      "midi": 67,
      "hit": false,
      "t": 29909.494609374968,
      "d": 68.53059895833212,
      "v": 80
    },
    {
      "midi": 60,
      "hit": false,
      "t": 29917.718281249967,
      "d": 54.8244791666657,
      "v": 60
    },
    {
      "midi": 64,
      "hit": false,
      "t": 29923.200729166634,
      "d": 49.3420312499984,
      "v": 60
    },
    {
      "midi": 48,
      "hit": false,
      "t": 30290.524739583303,
      "d": 383.77135416666715,
      "v": 64
    },
    {
      "midi": 36,
      "hit": false,
      "t": 30293.265963541635,
      "d": 375.547682291668,
      "v": 76
    },
    {
      "midi": 67,
      "hit": false,
      "t": 30663.331197916636,
      "d": 79.49549479166308,
      "v": 82
    },
    {
      "midi": 60,
      "hit": false,
      "t": 30677.037317708302,
      "d": 63.04815104166482,
      "v": 82
    },
    {
      "midi": 64,
      "hit": false,
      "t": 30679.778541666634,
      "d": 52.08325520833387,
      "v": 74
    },
    {
      "midi": 60,
      "hit": false,
      "t": 31025.172760416634,
      "d": 63.04815104166482,
      "v": 85
    },
    {
      "midi": 64,
      "hit": false,
      "t": 31027.913984374965,
      "d": 54.8244791666657,
      "v": 82
    },
    {
      "midi": 67,
      "hit": false,
      "t": 31030.655208333297,
      "d": 65.78937500000029,
      "v": 87
    },
    {
      "midi": 33,
      "hit": false,
      "t": 31419.90901041663,
      "d": 372.8064583333289,
      "v": 102
    },
    {
      "midi": 45,
      "hit": false,
      "t": 31419.90901041663,
      "d": 372.8064583333289,
      "v": 102
    },
    {
      "midi": 69,
      "hit": false,
      "t": 31789.97424479163,
      "d": 84.97794270833037,
      "v": 82
    },
    {
      "midi": 64,
      "hit": false,
      "t": 31800.93914062496,
      "d": 54.8244791666657,
      "v": 76
    },
    {
      "midi": 60,
      "hit": false,
      "t": 31803.68036458329,
      "d": 57.565703125001164,
      "v": 89
    },
    {
      "midi": 69,
      "hit": false,
      "t": 32168.263151041625,
      "d": 74.01304687499942,
      "v": 89
    },
    {
      "midi": 60,
      "hit": false,
      "t": 32173.745598958292,
      "d": 60.306927083332994,
      "v": 85
    },
    {
      "midi": 64,
      "hit": false,
      "t": 32176.486822916624,
      "d": 52.08325520833387,
      "v": 78
    },
    {
      "midi": 45,
      "hit": false,
      "t": 32538.328385416626,
      "d": 507.12643229167224,
      "v": 89
    },
    {
      "midi": 57,
      "hit": false,
      "t": 32541.069609374958,
      "d": 487.93786458334216,
      "v": 85
    },
    {
      "midi": 69,
      "hit": false,
      "t": 32889.20505208329,
      "d": 90.46039062500495,
      "v": 80
    },
    {
      "midi": 64,
      "hit": false,
      "t": 32908.39361979163,
      "d": 63.0481510416721,
      "v": 85
    },
    {
      "midi": 60,
      "hit": false,
      "t": 32911.13484374996,
      "d": 60.30692708333663,
      "v": 80
    },
    {
      "midi": 69,
      "hit": false,
      "t": 33267.493958333296,
      "d": 93.20161458333314,
      "v": 82
    },
    {
      "midi": 64,
      "hit": false,
      "t": 33272.97640624996,
      "d": 74.01304687499942,
      "v": 82
    },
    {
      "midi": 60,
      "hit": false,
      "t": 33275.717630208295,
      "d": 74.01304687499942,
      "v": 85
    },
    {
      "midi": 54,
      "hit": false,
      "t": 33645.78286458329,
      "d": 753.8365885416715,
      "v": 76
    },
    {
      "midi": 42,
      "hit": false,
      "t": 33651.265312499956,
      "d": 740.1304687500087,
      "v": 80
    },
    {
      "midi": 63,
      "hit": false,
      "t": 34018.589322916625,
      "d": 90.46039062500495,
      "v": 70
    },
    {
      "midi": 69,
      "hit": false,
      "t": 34021.33054687496,
      "d": 112.39018229167414,
      "v": 78
    },
    {
      "midi": 59,
      "hit": false,
      "t": 34032.295442708295,
      "d": 79.49549479167035,
      "v": 68
    },
    {
      "midi": 59,
      "hit": false,
      "t": 34385.9133333333,
      "d": 65.78937500000029,
      "v": 78
    },
    {
      "midi": 69,
      "hit": false,
      "t": 34391.395781249965,
      "d": 65.78937500000029,
      "v": 68
    },
    {
      "midi": 63,
      "hit": false,
      "t": 34394.1370052083,
      "d": 54.8244791666657,
      "v": 60
    },
    {
      "midi": 54,
      "hit": false,
      "t": 34775.16713541663,
      "d": 463.26684895833023,
      "v": 78
    },
    {
      "midi": 42,
      "hit": false,
      "t": 34783.39080729163,
      "d": 446.819505208332,
      "v": 82
    },
    {
      "midi": 69,
      "hit": false,
      "t": 35131.52624999996,
      "d": 87.71916666666948,
      "v": 72
    },
    {
      "midi": 63,
      "hit": false,
      "t": 35145.23236979163,
      "d": 54.8244791666657,
      "v": 60
    },
    {
      "midi": 59,
      "hit": false,
      "t": 35147.973593749964,
      "d": 54.8244791666657,
      "v": 70
    },
    {
      "midi": 69,
      "hit": false,
      "t": 35501.59148437496,
      "d": 82.23671874999854,
      "v": 70
    },
    {
      "midi": 63,
      "hit": false,
      "t": 35507.07393229163,
      "d": 60.30692708333663,
      "v": 59
    },
    {
      "midi": 59,
      "hit": false,
      "t": 35509.81515624996,
      "d": 57.565703125001164,
      "v": 64
    },
    {
      "midi": 52,
      "hit": false,
      "t": 35877.139166666624,
      "d": 712.7182291666613,
      "v": 55
    },
    {
      "midi": 40,
      "hit": false,
      "t": 35899.06895833329,
      "d": 701.7533333333267,
      "v": 68
    },
    {
      "midi": 67,
      "hit": false,
      "t": 36260.91052083329,
      "d": 95.94283854166133,
      "v": 51
    },
    {
      "midi": 64,
      "hit": false,
      "t": 36263.65174479163,
      "d": 79.49549479166308,
      "v": 54
    },
    {
      "midi": 59,
      "hit": false,
      "t": 36271.875416666626,
      "d": 76.75427083332761,
      "v": 47
    },
    {
      "midi": 64,
      "hit": false,
      "t": 36641.94065104162,
      "d": 265.89872395832936,
      "v": 80
    },
    {
      "midi": 67,
      "hit": false,
      "t": 36647.42309895829,
      "d": 298.79341145833314,
      "v": 66
    },
    {
      "midi": 59,
      "hit": false,
      "t": 36655.646770833286,
      "d": 345.3942187499997,
      "v": 62
    },
    {
      "midi": 36,
      "hit": false,
      "t": 37012.00588541662,
      "d": 679.8235416666648,
      "v": 85
    },
    {
      "midi": 48,
      "hit": false,
      "t": 37014.747109374955,
      "d": 731.9067968749878,
      "v": 72
    },
    {
      "midi": 64,
      "hit": false,
      "t": 37335.47031249996,
      "d": 109.64895833332412,
      "v": 85
    },
    {
      "midi": 54,
      "hit": false,
      "t": 37351.917656249956,
      "d": 79.49549479166308,
      "v": 70
    },
    {
      "midi": 58,
      "hit": false,
      "t": 37357.40010416662,
      "d": 82.23671874999854,
      "v": 78
    },
    {
      "midi": 64,
      "hit": false,
      "t": 37697.31187499995,
      "d": 93.20161458332586,
      "v": 82
    },
    {
      "midi": 54,
      "hit": false,
      "t": 37705.53554687495,
      "d": 84.97794270832674,
      "v": 70
    },
    {
      "midi": 58,
      "hit": false,
      "t": 37711.01799479161,
      "d": 74.01304687499942,
      "v": 82
    },
    {
      "midi": 35,
      "hit": false,
      "t": 38086.56567708327,
      "d": 649.6700781250038,
      "v": 91
    },
    {
      "midi": 47,
      "hit": false,
      "t": 38086.56567708327,
      "d": 649.6700781250038,
      "v": 91
    },
    {
      "midi": 63,
      "hit": false,
      "t": 38431.95989583327,
      "d": 90.46039062500495,
      "v": 64
    },
    {
      "midi": 54,
      "hit": false,
      "t": 38442.924791666606,
      "d": 63.0481510416721,
      "v": 64
    },
    {
      "midi": 59,
      "hit": false,
      "t": 38445.66601562494,
      "d": 60.30692708333663,
      "v": 89
    },
    {
      "midi": 54,
      "hit": false,
      "t": 38796.54268229161,
      "d": 76.75427083332761,
      "v": 68
    },
    {
      "midi": 63,
      "hit": false,
      "t": 38802.025130208276,
      "d": 79.49549479166308,
      "v": 70
    },
    {
      "midi": 59,
      "hit": false,
      "t": 38807.50757812494,
      "d": 60.30692708333663,
      "v": 89
    },
    {
      "midi": 47,
      "hit": false,
      "t": 39204.98505208328,
      "d": 372.80645833333256,
      "v": 70
    },
    {
      "midi": 63,
      "hit": false,
      "t": 39536.67315104161,
      "d": 82.23671874999854,
      "v": 59
    },
    {
      "midi": 54,
      "hit": false,
      "t": 39553.120494791605,
      "d": 65.78937500000029,
      "v": 54
    },
    {
      "midi": 59,
      "hit": false,
      "t": 39566.826614583275,
      "d": 35.635911458331975,
      "v": 68
    },
    {
      "midi": 63,
      "hit": false,
      "t": 39906.738385416604,
      "d": 65.78937500000029,
      "v": 52
    },
    {
      "midi": 54,
      "hit": false,
      "t": 39917.70328124994,
      "d": 46.60080729166657,
      "v": 47
    },
    {
      "midi": 59,
      "hit": false,
      "t": 39928.66817708327,
      "d": 35.635911458331975,
      "v": 68
    },
    {
      "midi": 52,
      "hit": false,
      "t": 40350.8166666666,
      "d": 375.547682291668,
      "v": 59
    },
    {
      "midi": 67,
      "hit": false,
      "t": 40685.245989583265,
      "d": 65.78937500000029,
      "v": 58
    },
    {
      "midi": 64,
      "hit": false,
      "t": 40696.2108854166,
      "d": 46.60080729166657,
      "v": 53
    },
    {
      "midi": 59,
      "hit": false,
      "t": 40704.4345572916,
      "d": 41.11835937500291,
      "v": 47
    },
    {
      "midi": 59,
      "hit": false,
      "t": 41077.24101562493,
      "d": 57.565703125001164,
      "v": 52
    },
    {
      "midi": 67,
      "hit": false,
      "t": 41079.98223958327,
      "d": 38.37713541666744,
      "v": 57
    },
    {
      "midi": 64,
      "hit": false,
      "t": 41082.7234635416,
      "d": 43.8595833333311,
      "v": 57
    },
    {
      "midi": 52,
      "hit": false,
      "t": 41463.753593749934,
      "d": 285.08729166667035,
      "v": 78
    },
    {
      "midi": 67,
      "hit": false,
      "t": 41809.14781249994,
      "d": 60.30692708333663,
      "v": 64
    },
    {
      "midi": 64,
      "hit": false,
      "t": 41820.112708333276,
      "d": 41.11835937500291,
      "v": 64
    },
    {
      "midi": 59,
      "hit": false,
      "t": 41822.85393229161,
      "d": 49.34203125000204,
      "v": 59
    },
    {
      "midi": 64,
      "hit": false,
      "t": 42179.213046874946,
      "d": 101.42528645833227,
      "v": 60
    },
    {
      "midi": 59,
      "hit": false,
      "t": 42184.69549479161,
      "d": 82.23671874999854,
      "v": 61
    },
    {
      "midi": 67,
      "hit": false,
      "t": 42187.436718749945,
      "d": 95.9428385416686,
      "v": 66
    },
    {
      "midi": 71,
      "hit": false,
      "t": 42447.85299479161,
      "d": 479.7141927083285,
      "v": 64
    },
    {
      "midi": 72,
      "hit": false,
      "t": 42494.45380208328,
      "d": 104.16651041666046,
      "v": 98
    },
    {
      "midi": 52,
      "hit": false,
      "t": 42521.86604166661,
      "d": 98.6840624999968,
      "v": 82
    },
    {
      "midi": 59,
      "hit": false,
      "t": 42878.22515624994,
      "d": 93.20161458333314,
      "v": 78
    },
    {
      "midi": 70,
      "hit": false,
      "t": 42880.96638020827,
      "d": 268.63994791665755,
      "v": 66
    },
    {
      "midi": 67,
      "hit": false,
      "t": 42891.93127604161,
      "d": 60.306927083329356,
      "v": 66
    },
    {
      "midi": 64,
      "hit": false,
      "t": 42902.89617187494,
      "d": 65.78937499999302,
      "v": 59
    },
    {
      "midi": 71,
      "hit": false,
      "t": 43116.71164062493,
      "d": 139.80242187499243,
      "v": 89
    },
    {
      "midi": 74,
      "hit": false,
      "t": 43218.136927083266,
      "d": 296.0521874999904,
      "v": 82
    },
    {
      "midi": 67,
      "hit": false,
      "t": 43242.80794270826,
      "d": 43.8595833333311,
      "v": 64
    },
    {
      "midi": 64,
      "hit": false,
      "t": 43248.29039062493,
      "d": 35.635911458331975,
      "v": 72
    },
    {
      "midi": 72,
      "hit": false,
      "t": 43456.62341145826,
      "d": 175.4383333333244,
      "v": 78
    },
    {
      "midi": 52,
      "hit": false,
      "t": 43574.49604166659,
      "d": 79.49549479166308,
      "v": 82
    },
    {
      "midi": 71,
      "hit": false,
      "t": 43579.978489583256,
      "d": 915.5688020833404,
      "v": 98
    },
    {
      "midi": 59,
      "hit": false,
      "t": 43933.596380208255,
      "d": 90.46039062500495,
      "v": 70
    },
    {
      "midi": 67,
      "hit": false,
      "t": 43944.56127604159,
      "d": 63.0481510416721,
      "v": 66
    },
    {
      "midi": 64,
      "hit": false,
      "t": 43947.302499999925,
      "d": 65.78937500000029,
      "v": 58
    },
    {
      "midi": 67,
      "hit": false,
      "t": 44309.14406249992,
      "d": 52.083255208337505,
      "v": 78
    },
    {
      "midi": 64,
      "hit": false,
      "t": 44322.85018229159,
      "d": 38.37713541666744,
      "v": 68
    },
    {
      "midi": 59,
      "hit": false,
      "t": 44325.59140624993,
      "d": 35.635911458331975,
      "v": 47
    },
    {
      "midi": 69,
      "hit": false,
      "t": 44511.994635416595,
      "d": 43.8595833333311,
      "v": 74
    },
    {
      "midi": 71,
      "hit": false,
      "t": 44572.301562499924,
      "d": 120.61385416666599,
      "v": 91
    },
    {
      "midi": 69,
      "hit": false,
      "t": 44629.867265624925,
      "d": 386.51257812499534,
      "v": 87
    },
    {
      "midi": 47,
      "hit": false,
      "t": 44635.34971354159,
      "d": 74.01304687499942,
      "v": 78
    },
    {
      "midi": 68,
      "hit": false,
      "t": 44978.00270833325,
      "d": 290.569739583334,
      "v": 80
    },
    {
      "midi": 63,
      "hit": false,
      "t": 44988.96760416659,
      "d": 87.7191666666622,
      "v": 66
    },
    {
      "midi": 59,
      "hit": false,
      "t": 44991.70882812492,
      "d": 74.01304687499214,
      "v": 68
    },
    {
      "midi": 66,
      "hit": false,
      "t": 45010.89739583326,
      "d": 49.34203124999476,
      "v": 53
    },
    {
      "midi": 69,
      "hit": false,
      "t": 45230.19531249992,
      "d": 131.57875000000058,
      "v": 85
    },
    {
      "midi": 72,
      "hit": false,
      "t": 45326.13815104159,
      "d": 317.98197916666686,
      "v": 87
    },
    {
      "midi": 66,
      "hit": false,
      "t": 45334.36182291659,
      "d": 27.41223958333285,
      "v": 63
    },
    {
      "midi": 59,
      "hit": false,
      "t": 45345.32671874992,
      "d": 38.37713541666017,
      "v": 70
    },
    {
      "midi": 63,
      "hit": false,
      "t": 45350.809166666586,
      "d": 27.41223958333285,
      "v": 53
    },
    {
      "midi": 71,
      "hit": false,
      "t": 45583.81320312492,
      "d": 164.47343750000437,
      "v": 82
    },
    {
      "midi": 47,
      "hit": false,
      "t": 45693.46216145826,
      "d": 63.04815104166482,
      "v": 82
    },
    {
      "midi": 69,
      "hit": false,
      "t": 45696.20338541659,
      "d": 915.5688020833186,
      "v": 100
    },
    {
      "midi": 66,
      "hit": false,
      "t": 46049.821276041584,
      "d": 82.23671874999854,
      "v": 70
    },
    {
      "midi": 63,
      "hit": false,
      "t": 46071.751067708254,
      "d": 79.49549479166308,
      "v": 68
    },
    {
      "midi": 59,
      "hit": false,
      "t": 46077.23351562492,
      "d": 76.75427083333489,
      "v": 68
    },
    {
      "midi": 66,
      "hit": false,
      "t": 46414.40406249992,
      "d": 54.8244791666657,
      "v": 68
    },
    {
      "midi": 59,
      "hit": false,
      "t": 46422.62773437492,
      "d": 71.27182291666395,
      "v": 85
    },
    {
      "midi": 63,
      "hit": false,
      "t": 46441.81630208325,
      "d": 24.67101562499738,
      "v": 59
    },
    {
      "midi": 67,
      "hit": false,
      "t": 46611.77218749991,
      "d": 68.53059895832848,
      "v": 98
    },
    {
      "midi": 69,
      "hit": false,
      "t": 46674.820338541576,
      "d": 120.61385416666599,
      "v": 85
    },
    {
      "midi": 52,
      "hit": false,
      "t": 46743.350937499905,
      "d": 74.0130468750067,
      "v": 89
    },
    {
      "midi": 67,
      "hit": false,
      "t": 46746.09216145824,
      "d": 501.64398437500495,
      "v": 95
    },
    {
      "midi": 55,
      "hit": false,
      "t": 47075.03903645825,
      "d": 106.90773437499593,
      "v": 60
    },
    {
      "midi": 64,
      "hit": false,
      "t": 47083.26270833325,
      "d": 71.27182291666395,
      "v": 68
    },
    {
      "midi": 66,
      "hit": false,
      "t": 47294.33695312491,
      "d": 123.35507812500146,
      "v": 64
    },
    {
      "midi": 67,
      "hit": false,
      "t": 47409.468359374914,
      "d": 90.46039062499767,
      "v": 98
    },
    {
      "midi": 55,
      "hit": false,
      "t": 47428.65692708325,
      "d": 79.49549479166308,
      "v": 66
    },
    {
      "midi": 64,
      "hit": false,
      "t": 47445.104270833246,
      "d": 46.60080729166657,
      "v": 62
    },
    {
      "midi": 69,
      "hit": false,
      "t": 47497.187526041576,
      "d": 216.5566927083346,
      "v": 82
    },
    {
      "midi": 67,
      "hit": false,
      "t": 47683.59075520824,
      "d": 104.16651041666773,
      "v": 100
    },
    {
      "midi": 66,
      "hit": false,
      "t": 47779.53359374991,
      "d": 805.9198437500017,
      "v": 105
    },
    {
      "midi": 47,
      "hit": false,
      "t": 47790.498489583246,
      "d": 471.49052083332936,
      "v": 66
    },
    {
      "midi": 54,
      "hit": false,
      "t": 48130.410260416575,
      "d": 87.71916666666948,
      "v": 70
    },
    {
      "midi": 59,
      "hit": false,
      "t": 48133.15148437491,
      "d": 60.30692708333663,
      "v": 64
    },
    {
      "midi": 59,
      "hit": false,
      "t": 48497.73427083324,
      "d": 52.08325520833023,
      "v": 70
    },
    {
      "midi": 54,
      "hit": false,
      "t": 48505.95794270824,
      "d": 57.565703125001164,
      "v": 68
    },
    {
      "midi": 40,
      "hit": false,
      "t": 48870.54072916658,
      "d": 753.8365885416642,
      "v": 60
    },
    {
      "midi": 52,
      "hit": false,
      "t": 48876.02317708325,
      "d": 734.6480208333305,
      "v": 60
    },
    {
      "midi": 67,
      "hit": false,
      "t": 49248.82963541658,
      "d": 87.7191666666622,
      "v": 76
    },
    {
      "midi": 64,
      "hit": false,
      "t": 49254.31208333324,
      "d": 84.97794270833401,
      "v": 68
    },
    {
      "midi": 59,
      "hit": false,
      "t": 49262.53575520824,
      "d": 74.01304687499942,
      "v": 63
    },
    {
      "midi": 64,
      "hit": false,
      "t": 49613.41242187491,
      "d": 433.1133854166692,
      "v": 74
    },
    {
      "midi": 67,
      "hit": false,
      "t": 49616.15364583325,
      "d": 435.8546093749974,
      "v": 78
    },
    {
      "midi": 59,
      "hit": false,
      "t": 49621.63609374991,
      "d": 422.1484895833346,
      "v": 68
    },
    {
      "midi": 50,
      "hit": false,
      "t": 49988.96010416658,
      "d": 844.2969791666765,
      "v": 80
    },
    {
      "midi": 38,
      "hit": false,
      "t": 49994.442552083245,
      "d": 1041.6651041666773,
      "v": 89
    },
    {
      "midi": 68,
      "hit": false,
      "t": 50361.766562499906,
      "d": 98.68406250001135,
      "v": 82
    },
    {
      "midi": 64,
      "hit": false,
      "t": 50364.50778645824,
      "d": 93.20161458334042,
      "v": 87
    },
    {
      "midi": 59,
      "hit": false,
      "t": 50367.24901041658,
      "d": 87.71916666666948,
      "v": 82
    },
    {
      "midi": 59,
      "hit": false,
      "t": 50701.67833333325,
      "d": 68.53059895833576,
      "v": 89
    },
    {
      "midi": 64,
      "hit": false,
      "t": 50704.419557291585,
      "d": 76.75427083333489,
      "v": 89
    },
    {
      "midi": 68,
      "hit": false,
      "t": 50709.90200520825,
      "d": 84.97794270834129,
      "v": 80
    },
    {
      "midi": 76,
      "hit": false,
      "t": 51063.519895833255,
      "d": 139.8024218749997,
      "v": 105
    },
    {
      "midi": 36,
      "hit": false,
      "t": 51071.743567708254,
      "d": 696.2708854166631,
      "v": 91
    },
    {
      "midi": 48,
      "hit": false,
      "t": 51077.22601562492,
      "d": 764.8014843749988,
      "v": 100
    },
    {
      "midi": 69,
      "hit": false,
      "t": 51441.80880208325,
      "d": 76.75427083333489,
      "v": 95
    },
    {
      "midi": 64,
      "hit": false,
      "t": 51447.291249999915,
      "d": 57.565703125001164,
      "v": 87
    },
    {
      "midi": 60,
      "hit": false,
      "t": 51450.03247395825,
      "d": 57.565703125001164,
      "v": 78
    },
    {
      "midi": 69,
      "hit": false,
      "t": 51776.238124999916,
      "d": 65.78937500000029,
      "v": 91
    },
    {
      "midi": 64,
      "hit": false,
      "t": 51778.97934895825,
      "d": 46.60080729166657,
      "v": 87
    },
    {
      "midi": 60,
      "hit": false,
      "t": 51784.461796874915,
      "d": 46.60080729166657,
      "v": 93
    },
    {
      "midi": 33,
      "hit": false,
      "t": 52138.079687499914,
      "d": 178.17955729166715,
      "v": 105
    },
    {
      "midi": 45,
      "hit": false,
      "t": 52138.079687499914,
      "d": 178.17955729166715,
      "v": 105
    },
    {
      "midi": 76,
      "hit": false,
      "t": 52151.785807291584,
      "d": 38.37713541666744,
      "v": 80
    },
    {
      "midi": 69,
      "hit": false,
      "t": 52480.73268229158,
      "d": 79.49549479166308,
      "v": 70
    },
    {
      "midi": 65,
      "hit": false,
      "t": 52488.95635416658,
      "d": 74.01304687499942,
      "v": 80
    },
    {
      "midi": 60,
      "hit": false,
      "t": 52497.18002604158,
      "d": 57.565703125001164,
      "v": 70
    },
    {
      "midi": 69,
      "hit": false,
      "t": 52826.12690104158,
      "d": 93.20161458333314,
      "v": 70
    },
    {
      "midi": 65,
      "hit": false,
      "t": 52839.83302083325,
      "d": 60.306927083329356,
      "v": 68
    },
    {
      "midi": 60,
      "hit": false,
      "t": 52845.31546874991,
      "d": 63.04815104166482,
      "v": 68
    },
    {
      "midi": 35,
      "hit": false,
      "t": 53196.19213541658,
      "d": 301.5346354166686,
      "v": 82
    },
    {
      "midi": 47,
      "hit": false,
      "t": 53196.19213541658,
      "d": 301.5346354166686,
      "v": 82
    },
    {
      "midi": 67,
      "hit": false,
      "t": 53541.58635416658,
      "d": 76.75427083333489,
      "v": 68
    },
    {
      "midi": 64,
      "hit": false,
      "t": 53544.32757812492,
      "d": 65.78937500000029,
      "v": 76
    },
    {
      "midi": 67,
      "hit": false,
      "t": 53903.42791666658,
      "d": 98.68406250000407,
      "v": 64
    },
    {
      "midi": 64,
      "hit": false,
      "t": 53914.392812499915,
      "d": 60.30692708333663,
      "v": 85
    },
    {
      "midi": 35,
      "hit": false,
      "t": 54232.37479166658,
      "d": 301.5346354166686,
      "v": 82
    },
    {
      "midi": 47,
      "hit": false,
      "t": 54232.37479166658,
      "d": 301.5346354166686,
      "v": 82
    },
    {
      "midi": 66,
      "hit": false,
      "t": 54580.51023437492,
      "d": 74.01304687499942,
      "v": 68
    },
    {
      "midi": 59,
      "hit": false,
      "t": 54585.99268229158,
      "d": 57.565703125001164,
      "v": 78
    },
    {
      "midi": 63,
      "hit": false,
      "t": 54588.733906249916,
      "d": 63.04815104166482,
      "v": 63
    },
    {
      "midi": 66,
      "hit": false,
      "t": 54925.90445312492,
      "d": 71.27182291667123,
      "v": 72
    },
    {
      "midi": 59,
      "hit": false,
      "t": 54931.38690104158,
      "d": 52.083255208337505,
      "v": 68
    },
    {
      "midi": 63,
      "hit": false,
      "t": 54934.128124999916,
      "d": 79.49549479167035,
      "v": 60
    },
    {
      "midi": 64,
      "hit": false,
      "t": 55287.74601562492,
      "d": 82.23671874999854,
      "v": 68
    },
    {
      "midi": 67,
      "hit": false,
      "t": 55290.48723958326,
      "d": 82.23671874999854,
      "v": 87
    },
    {
      "midi": 35,
      "hit": false,
      "t": 55306.934583333255,
      "d": 748.3541406250079,
      "v": 68
    },
    {
      "midi": 47,
      "hit": false,
      "t": 55306.934583333255,
      "d": 748.3541406250079,
      "v": 68
    },
    {
      "midi": 64,
      "hit": false,
      "t": 55633.14023437492,
      "d": 98.6840624999968,
      "v": 72
    },
    {
      "midi": 67,
      "hit": false,
      "t": 55638.622682291585,
      "d": 106.9077343750032,
      "v": 80
    },
    {
      "midi": 65,
      "hit": false,
      "t": 55953.863437499924,
      "d": 317.98197916667414,
      "v": 66
    },
    {
      "midi": 68,
      "hit": false,
      "t": 55967.569557291594,
      "d": 370.06523437500437,
      "v": 98
    },
    {
      "midi": 69,
      "hit": false,
      "t": 56296.516432291595,
      "d": 68.53059895833576,
      "v": 87
    },
    {
      "midi": 66,
      "hit": false,
      "t": 56307.48132812493,
      "d": 76.75427083333489,
      "v": 78
    },
    {
      "midi": 35,
      "hit": false,
      "t": 56318.446223958264,
      "d": 734.6480208333378,
      "v": 93
    },
    {
      "midi": 47,
      "hit": false,
      "t": 56318.446223958264,
      "d": 734.6480208333378,
      "v": 93
    },
    {
      "midi": 64,
      "hit": false,
      "t": 56644.65187499993,
      "d": 339.91177083333605,
      "v": 89
    },
    {
      "midi": 61,
      "hit": false,
      "t": 56650.134322916594,
      "d": 331.6880989583369,
      "v": 80
    },
    {
      "midi": 66,
      "hit": false,
      "t": 56959.89263020826,
      "d": 287.8285156250058,
      "v": 87
    },
    {
      "midi": 63,
      "hit": false,
      "t": 56962.6338541666,
      "d": 296.05218750000495,
      "v": 82
    },
    {
      "midi": 35,
      "hit": false,
      "t": 57308.028072916604,
      "d": 781.2488281249971,
      "v": 91
    },
    {
      "midi": 47,
      "hit": false,
      "t": 57308.028072916604,
      "d": 781.2488281249971,
      "v": 91
    },
    {
      "midi": 67,
      "hit": false,
      "t": 57313.51052083327,
      "d": 153.50854166666977,
      "v": 102
    },
    {
      "midi": 64,
      "hit": false,
      "t": 57321.73419270827,
      "d": 145.28486979167064,
      "v": 93
    },
    {
      "midi": 64,
      "hit": false,
      "t": 57626.01005208327,
      "d": 71.27182291667123,
      "v": 100
    },
    {
      "midi": 67,
      "hit": false,
      "t": 57628.75127604161,
      "d": 98.68406250000407,
      "v": 105
    },
    {
      "midi": 65,
      "hit": false,
      "t": 57938.509583333274,
      "d": 367.3240104166616,
      "v": 93
    },
    {
      "midi": 68,
      "hit": false,
      "t": 57943.99203124994,
      "d": 372.80645833333256,
      "v": 105
    },
    {
      "midi": 69,
      "hit": false,
      "t": 58267.45645833327,
      "d": 109.64895833333867,
      "v": 102
    },
    {
      "midi": 66,
      "hit": false,
      "t": 58272.93890624993,
      "d": 126.0963020833442,
      "v": 95
    },
    {
      "midi": 35,
      "hit": false,
      "t": 58286.6450260416,
      "d": 729.1655729166741,
      "v": 100
    },
    {
      "midi": 47,
      "hit": false,
      "t": 58286.6450260416,
      "d": 729.1655729166741,
      "v": 100
    },
    {
      "midi": 64,
      "hit": false,
      "t": 58604.62700520828,
      "d": 263.1574999999939,
      "v": 87
    },
    {
      "midi": 61,
      "hit": false,
      "t": 58610.10945312494,
      "d": 175.43833333333168,
      "v": 89
    },
    {
      "midi": 66,
      "hit": false,
      "t": 58928.09143229161,
      "d": 164.47343750000437,
      "v": 110
    },
    {
      "midi": 63,
      "hit": false,
      "t": 58930.83265624994,
      "d": 142.54364583333518,
      "v": 107
    },
    {
      "midi": 67,
      "hit": false,
      "t": 59268.00320312494,
      "d": 515.350104166675,
      "v": 113
    },
    {
      "midi": 64,
      "hit": false,
      "t": 59270.74442708328,
      "d": 476.9729687500003,
      "v": 113
    },
    {
      "midi": 35,
      "hit": false,
      "t": 59281.70932291661,
      "d": 487.9378645833349,
      "v": 102
    },
    {
      "midi": 47,
      "hit": false,
      "t": 59281.70932291661,
      "d": 487.9378645833349,
      "v": 102
    },
    {
      "midi": 35,
      "hit": false,
      "t": 62949.466979166624,
      "d": 205.59179687500728,
      "v": 105
    },
    {
      "midi": 47,
      "hit": false,
      "t": 62949.466979166624,
      "d": 205.59179687500728,
      "v": 105
    },
    {
      "midi": 71,
      "hit": false,
      "t": 62949.466979166624,
      "d": 227.52158854167646,
      "v": 102
    },
    {
      "midi": 69,
      "hit": false,
      "t": 62952.20820312496,
      "d": 230.26281250000466,
      "v": 107
    },
    {
      "midi": 78,
      "hit": false,
      "t": 62954.949427083295,
      "d": 200.10934895833634,
      "v": 105
    },
    {
      "midi": 75,
      "hit": false,
      "t": 62954.949427083295,
      "d": 235.74526041666832,
      "v": 102
    },
    {
      "midi": 40,
      "hit": false,
      "t": 63431.922395833295,
      "d": 526.3150000000023,
      "v": 102
    },
    {
      "midi": 52,
      "hit": false,
      "t": 63431.922395833295,
      "d": 531.797447916666,
      "v": 119
    },
    {
      "midi": 76,
      "hit": false,
      "t": 63431.922395833295,
      "d": 583.8807031249962,
      "v": 100
    },
    {
      "midi": 71,
      "hit": false,
      "t": 63434.66361979163,
      "d": 564.6921354166625,
      "v": 91
    },
    {
      "midi": 67,
      "hit": false,
      "t": 63437.404843749966,
      "d": 542.7623437499933,
      "v": 100
    },
    {
      "midi": 71,
      "hit": false,
      "t": 65120.516354166626,
      "d": 95.9428385416686,
      "v": 60
    },
    {
      "midi": 72,
      "hit": false,
      "t": 65230.165312499965,
      "d": 112.39018229166686,
      "v": 74
    },
    {
      "midi": 71,
      "hit": false,
      "t": 65315.1432552083,
      "d": 82.23671874999854,
      "v": 64
    },
    {
      "midi": 70,
      "hit": false,
      "t": 65386.41507812496,
      "d": 76.75427083333489,
      "v": 89
    },
    {
      "midi": 71,
      "hit": false,
      "t": 65474.13424479163,
      "d": 115.1314062500096,
      "v": 80
    },
    {
      "midi": 47,
      "hit": false,
      "t": 65575.55953124996,
      "d": 734.6480208333523,
      "v": 59
    },
    {
      "midi": 51,
      "hit": false,
      "t": 65578.3007552083,
      "d": 740.1304687500233,
      "v": 59
    },
    {
      "midi": 57,
      "hit": false,
      "t": 65583.78320312497,
      "d": 764.8014843750134,
      "v": 52
    },
    {
      "midi": 79,
      "hit": false,
      "t": 65586.5244270833,
      "d": 882.6741145833366,
      "v": 87
    },
    {
      "midi": 78,
      "hit": false,
      "t": 66381.47937499998,
      "d": 476.972968749993,
      "v": 72
    },
    {
      "midi": 76,
      "hit": false,
      "t": 66800.88664062497,
      "d": 671.5998697916657,
      "v": 80
    },
    {
      "midi": 52,
      "hit": false,
      "t": 66803.62786458331,
      "d": 572.9158072916616,
      "v": 58
    },
    {
      "midi": 55,
      "hit": false,
      "t": 66803.62786458331,
      "d": 605.8104947916581,
      "v": 59
    },
    {
      "midi": 71,
      "hit": false,
      "t": 67519.08731770831,
      "d": 334.4293229166651,
      "v": 102
    },
    {
      "midi": 74,
      "hit": false,
      "t": 67856.25786458331,
      "d": 326.2056510416878,
      "v": 95
    },
    {
      "midi": 54,
      "hit": false,
      "t": 67861.74031249998,
      "d": 301.53463541668316,
      "v": 78
    },
    {
      "midi": 48,
      "hit": false,
      "t": 67867.22276041665,
      "d": 276.8636197916785,
      "v": 91
    },
    {
      "midi": 45,
      "hit": false,
      "t": 67869.96398437499,
      "d": 268.6399479166721,
      "v": 80
    },
    {
      "midi": 72,
      "hit": false,
      "t": 68116.674140625,
      "d": 202.85057291667908,
      "v": 100
    },
    {
      "midi": 71,
      "hit": false,
      "t": 68220.84065104167,
      "d": 350.8766666666779,
      "v": 100
    },
    {
      "midi": 69,
      "hit": false,
      "t": 68544.305078125,
      "d": 383.771354166689,
      "v": 93
    },
    {
      "midi": 51,
      "hit": false,
      "t": 68549.78752604168,
      "d": 101.42528645833954,
      "v": 82
    },
    {
      "midi": 54,
      "hit": false,
      "t": 68555.26997395835,
      "d": 82.23671874999127,
      "v": 72
    },
    {
      "midi": 47,
      "hit": false,
      "t": 68558.01119791668,
      "d": 84.97794270832674,
      "v": 82
    },
    {
      "midi": 52,
      "hit": false,
      "t": 68914.37031250002,
      "d": 227.5215885416692,
      "v": 91
    },
    {
      "midi": 55,
      "hit": false,
      "t": 68917.11153645835,
      "d": 227.5215885416692,
      "v": 87
    },
    {
      "midi": 71,
      "hit": false,
      "t": 68922.59398437502,
      "d": 304.2758593750041,
      "v": 110
    },
    {
      "midi": 67,
      "hit": false,
      "t": 69185.75148437503,
      "d": 126.09630208332965,
      "v": 82
    },
    {
      "midi": 64,
      "hit": false,
      "t": 69278.95309895836,
      "d": 93.20161458333314,
      "v": 93
    },
    {
      "midi": 71,
      "hit": false,
      "t": 69569.52283854168,
      "d": 65.78937499999302,
      "v": 62
    },
    {
      "midi": 72,
      "hit": false,
      "t": 69662.72445312502,
      "d": 106.90773437499593,
      "v": 64
    },
    {
      "midi": 71,
      "hit": false,
      "t": 69742.21994791667,
      "d": 90.46039062499767,
      "v": 60
    },
    {
      "midi": 70,
      "hit": false,
      "t": 69821.71544270834,
      "d": 68.53059895832848,
      "v": 72
    },
    {
      "midi": 71,
      "hit": false,
      "t": 69895.72848958334,
      "d": 54.8244791666657,
      "v": 72
    },
    {
      "midi": 79,
      "hit": false,
      "t": 70046.49580729168,
      "d": 855.2618750000111,
      "v": 66
    },
    {
      "midi": 47,
      "hit": false,
      "t": 70071.16682291668,
      "d": 715.4594531250041,
      "v": 56
    },
    {
      "midi": 57,
      "hit": false,
      "t": 70073.90804687502,
      "d": 734.6480208333378,
      "v": 51
    },
    {
      "midi": 51,
      "hit": false,
      "t": 70079.39049479169,
      "d": 701.7533333333267,
      "v": 54
    },
    {
      "midi": 78,
      "hit": false,
      "t": 70835.9683072917,
      "d": 468.74929687500116,
      "v": 70
    },
    {
      "midi": 55,
      "hit": false,
      "t": 71247.1519010417,
      "d": 545.503567708336,
      "v": 58
    },
    {
      "midi": 52,
      "hit": false,
      "t": 71247.1519010417,
      "d": 550.986015625007,
      "v": 62
    },
    {
      "midi": 76,
      "hit": false,
      "t": 71247.1519010417,
      "d": 709.9770052083331,
      "v": 74
    },
    {
      "midi": 71,
      "hit": false,
      "t": 71976.31747395836,
      "d": 235.74526041666104,
      "v": 102
    },
    {
      "midi": 74,
      "hit": false,
      "t": 72329.93536458336,
      "d": 331.68809895832965,
      "v": 98
    },
    {
      "midi": 54,
      "hit": false,
      "t": 72335.41781250003,
      "d": 315.2407552083314,
      "v": 85
    },
    {
      "midi": 45,
      "hit": false,
      "t": 72338.15903645837,
      "d": 274.1223958333285,
      "v": 85
    },
    {
      "midi": 48,
      "hit": false,
      "t": 72340.9002604167,
      "d": 279.6048437499994,
      "v": 100
    },
    {
      "midi": 72,
      "hit": false,
      "t": 72562.9394010417,
      "d": 328.9468749999942,
      "v": 89
    },
    {
      "midi": 71,
      "hit": false,
      "t": 72680.81203125003,
      "d": 307.0170833333541,
      "v": 91
    },
    {
      "midi": 69,
      "hit": false,
      "t": 72933.0046354167,
      "d": 106.90773437501048,
      "v": 72
    },
    {
      "midi": 51,
      "hit": false,
      "t": 73009.75890625005,
      "d": 126.09630208332965,
      "v": 78
    },
    {
      "midi": 47,
      "hit": false,
      "t": 73020.72380208338,
      "d": 158.9909895833407,
      "v": 82
    },
    {
      "midi": 67,
      "hit": false,
      "t": 73023.46502604171,
      "d": 260.4162760416657,
      "v": 105
    },
    {
      "midi": 57,
      "hit": false,
      "t": 73028.94747395838,
      "d": 126.09630208332965,
      "v": 89
    },
    {
      "midi": 66,
      "hit": false,
      "t": 73264.69273437504,
      "d": 145.28486979167792,
      "v": 78
    },
    {
      "midi": 64,
      "hit": false,
      "t": 73379.82414062505,
      "d": 68.53059895835759,
      "v": 113
    },
    {
      "midi": 55,
      "hit": false,
      "t": 73382.56536458338,
      "d": 74.01304687502852,
      "v": 85
    },
    {
      "midi": 52,
      "hit": false,
      "t": 73388.04781250005,
      "d": 57.565703125015716,
      "v": 95
    },
    {
      "midi": 83,
      "hit": false,
      "t": 73755.37182291674,
      "d": 246.71015625003201,
      "v": 98
    },
    {
      "midi": 79,
      "hit": false,
      "t": 73763.59549479175,
      "d": 235.74526041669014,
      "v": 102
    },
    {
      "midi": 76,
      "hit": false,
      "t": 73766.33671875008,
      "d": 213.81546875002095,
      "v": 98
    },
    {
      "midi": 88,
      "hit": false,
      "t": 73769.07794270842,
      "d": 224.78036458334827,
      "v": 116
    },
    {
      "midi": 43,
      "hit": false,
      "t": 73774.56039062509,
      "d": 235.74526041669014,
      "v": 93
    },
    {
      "midi": 40,
      "hit": false,
      "t": 73777.30161458343,
      "d": 230.2628125000192,
      "v": 102
    },
    {
      "midi": 52,
      "hit": false,
      "t": 73780.04283854176,
      "d": 213.8154687500064,
      "v": 105
    },
    {
      "midi": 47,
      "hit": false,
      "t": 73785.52528645843,
      "d": 222.0391406250128,
      "v": 105
    },
    {
      "midi": 52,
      "hit": false,
      "t": 75213.70296875012,
      "d": 315.24075520834594,
      "v": 82
    },
    {
      "midi": 67,
      "hit": false,
      "t": 75572.8033072918,
      "d": 49.34203125000931,
      "v": 64
    },
    {
      "midi": 64,
      "hit": false,
      "t": 75578.28575520848,
      "d": 41.11835937500291,
      "v": 66
    },
    {
      "midi": 59,
      "hit": false,
      "t": 75581.02697916681,
      "d": 49.34203125000931,
      "v": 59
    },
    {
      "midi": 59,
      "hit": false,
      "t": 75986.72812500015,
      "d": 52.08325520834478,
      "v": 62
    },
    {
      "midi": 67,
      "hit": false,
      "t": 75992.21057291683,
      "d": 49.34203125000931,
      "v": 70
    },
    {
      "midi": 64,
      "hit": false,
      "t": 75994.95179687516,
      "d": 38.37713541666744,
      "v": 66
    },
    {
      "midi": 52,
      "hit": false,
      "t": 76373.24070312516,
      "d": 230.26281250000466,
      "v": 85
    },
    {
      "midi": 67,
      "hit": false,
      "t": 76737.8234895835,
      "d": 63.0481510416721,
      "v": 72
    },
    {
      "midi": 64,
      "hit": false,
      "t": 76743.30593750018,
      "d": 46.600807291673846,
      "v": 76
    },
    {
      "midi": 59,
      "hit": false,
      "t": 76748.78838541685,
      "d": 54.8244791666657,
      "v": 66
    },
    {
      "midi": 64,
      "hit": false,
      "t": 77105.14750000018,
      "d": 46.600807291673846,
      "v": 76
    },
    {
      "midi": 67,
      "hit": false,
      "t": 77124.33606770851,
      "d": 90.46039062499767,
      "v": 64
    },
    {
      "midi": 59,
      "hit": false,
      "t": 77129.81851562519,
      "d": 74.01304687499942,
      "v": 58
    },
    {
      "midi": 71,
      "hit": false,
      "t": 77368.30500000018,
      "d": 71.27182291666395,
      "v": 89
    },
    {
      "midi": 72,
      "hit": false,
      "t": 77431.35315104184,
      "d": 112.39018229166686,
      "v": 98
    },
    {
      "midi": 52,
      "hit": false,
      "t": 77434.09437500018,
      "d": 71.27182291666395,
      "v": 89
    },
    {
      "midi": 71,
      "hit": false,
      "t": 77491.66007812518,
      "d": 348.13544270834245,
      "v": 85
    },
    {
      "midi": 59,
      "hit": false,
      "t": 77812.38328125018,
      "d": 101.42528645833954,
      "v": 76
    },
    {
      "midi": 70,
      "hit": false,
      "t": 77817.86572916685,
      "d": 287.82851562499127,
      "v": 74
    },
    {
      "midi": 64,
      "hit": false,
      "t": 77831.57184895851,
      "d": 60.30692708333663,
      "v": 74
    },
    {
      "midi": 67,
      "hit": false,
      "t": 77834.31307291685,
      "d": 57.565703125001164,
      "v": 76
    },
    {
      "midi": 71,
      "hit": false,
      "t": 78075.54078125018,
      "d": 137.06119791665697,
      "v": 89
    },
    {
      "midi": 74,
      "hit": false,
      "t": 78176.9660677085,
      "d": 312.4995312500105,
      "v": 89
    },
    {
      "midi": 64,
      "hit": false,
      "t": 78190.67218750017,
      "d": 46.600807291673846,
      "v": 87
    },
    {
      "midi": 67,
      "hit": false,
      "t": 78193.4134114585,
      "d": 46.600807291673846,
      "v": 82
    },
    {
      "midi": 72,
      "hit": false,
      "t": 78440.1235677085,
      "d": 167.2146614583471,
      "v": 87
    },
    {
      "midi": 52,
      "hit": false,
      "t": 78566.21986979185,
      "d": 87.71916666667676,
      "v": 85
    },
    {
      "midi": 71,
      "hit": false,
      "t": 78568.96109375019,
      "d": 978.6169531250198,
      "v": 107
    },
    {
      "midi": 59,
      "hit": false,
      "t": 78930.80265625019,
      "d": 79.49549479167035,
      "v": 70
    },
    {
      "midi": 67,
      "hit": false,
      "t": 78949.99122395852,
      "d": 41.11835937500291,
      "v": 57
    },
    {
      "midi": 64,
      "hit": false,
      "t": 78952.73244791686,
      "d": 54.8244791666657,
      "v": 60
    },
    {
      "midi": 59,
      "hit": false,
      "t": 79292.6442187502,
      "d": 79.49549479167035,
      "v": 70
    },
    {
      "midi": 67,
      "hit": false,
      "t": 79306.35033854186,
      "d": 43.85958333333838,
      "v": 72
    },
    {
      "midi": 64,
      "hit": false,
      "t": 79331.02135416686,
      "d": 24.671015625004657,
      "v": 51
    },
    {
      "midi": 69,
      "hit": false,
      "t": 79561.28416666687,
      "d": 32.89468749999651,
      "v": 57
    },
    {
      "midi": 71,
      "hit": false,
      "t": 79613.3674218752,
      "d": 123.35507812499418,
      "v": 89
    },
    {
      "midi": 47,
      "hit": false,
      "t": 79646.2621093752,
      "d": 90.46039062499767,
      "v": 78
    },
    {
      "midi": 69,
      "hit": false,
      "t": 79665.45067708353,
      "d": 394.7362499999872,
      "v": 89
    },
    {
      "midi": 68,
      "hit": false,
      "t": 80016.32734375019,
      "d": 282.34606770832033,
      "v": 66
    },
    {
      "midi": 66,
      "hit": false,
      "t": 80019.06856770853,
      "d": 76.75427083332033,
      "v": 59
    },
    {
      "midi": 63,
      "hit": false,
      "t": 80030.03346354185,
      "d": 68.53059895832848,
      "v": 60
    },
    {
      "midi": 59,
      "hit": false,
      "t": 80040.99835937518,
      "d": 65.78937500000757,
      "v": 78
    },
    {
      "midi": 69,
      "hit": false,
      "t": 80265.77872395852,
      "d": 169.95588541666802,
      "v": 85
    },
    {
      "midi": 66,
      "hit": false,
      "t": 80353.49789062518,
      "d": 49.34203125000931,
      "v": 68
    },
    {
      "midi": 59,
      "hit": false,
      "t": 80367.20401041684,
      "d": 35.63591145834653,
      "v": 70
    },
    {
      "midi": 72,
      "hit": false,
      "t": 80369.94523437518,
      "d": 309.758307291675,
      "v": 82
    },
    {
      "midi": 63,
      "hit": false,
      "t": 80375.42768229185,
      "d": 27.412239583340124,
      "v": 50
    },
    {
      "midi": 71,
      "hit": false,
      "t": 80635.84395833351,
      "d": 153.50854166668432,
      "v": 89
    },
    {
      "midi": 47,
      "hit": false,
      "t": 80742.75169270852,
      "d": 65.78937500000757,
      "v": 82
    },
    {
      "midi": 69,
      "hit": false,
      "t": 80748.2341406252,
      "d": 964.9108333333279,
      "v": 95
    },
    {
      "midi": 59,
      "hit": false,
      "t": 81112.81692708352,
      "d": 79.4954947916849,
      "v": 70
    },
    {
      "midi": 66,
      "hit": false,
      "t": 81115.55815104186,
      "d": 68.53059895834303,
      "v": 68
    },
    {
      "midi": 63,
      "hit": false,
      "t": 81123.78182291686,
      "d": 63.0481510416721,
      "v": 64
    },
    {
      "midi": 63,
      "hit": false,
      "t": 81502.07072916687,
      "d": 63.04815104165755,
      "v": 64
    },
    {
      "midi": 66,
      "hit": false,
      "t": 81502.07072916687,
      "d": 63.04815104165755,
      "v": 66
    },
    {
      "midi": 59,
      "hit": false,
      "t": 81515.77684895853,
      "d": 30.15346354166104,
      "v": 68
    },
    {
      "midi": 67,
      "hit": false,
      "t": 81707.66252604185,
      "d": 65.78937500000757,
      "v": 87
    },
    {
      "midi": 69,
      "hit": false,
      "t": 81776.1931250002,
      "d": 120.61385416665871,
      "v": 80
    },
    {
      "midi": 52,
      "hit": false,
      "t": 81836.50005208352,
      "d": 197.3681249999936,
      "v": 85
    },
    {
      "midi": 67,
      "hit": false,
      "t": 81844.72372395852,
      "d": 389.25380208331626,
      "v": 87
    },
    {
      "midi": 55,
      "hit": false,
      "t": 82192.85916666684,
      "d": 76.75427083333489,
      "v": 72
    },
    {
      "midi": 66,
      "hit": false,
      "t": 82203.82406250016,
      "d": 279.6048437499994,
      "v": 61
    },
    {
      "midi": 64,
      "hit": false,
      "t": 82209.30651041683,
      "d": 57.565703125001164,
      "v": 63
    },
    {
      "midi": 67,
      "hit": false,
      "t": 82453.2754427085,
      "d": 104.16651041667501,
      "v": 87
    },
    {
      "midi": 64,
      "hit": false,
      "t": 82543.7358333335,
      "d": 52.08325520834478,
      "v": 72
    },
    {
      "midi": 69,
      "hit": false,
      "t": 82549.21828125017,
      "d": 271.38117187500757,
      "v": 95
    },
    {
      "midi": 55,
      "hit": false,
      "t": 82551.9595052085,
      "d": 60.30692708333663,
      "v": 80
    },
    {
      "midi": 67,
      "hit": false,
      "t": 82784.96354166685,
      "d": 139.80242187499243,
      "v": 70
    },
    {
      "midi": 66,
      "hit": false,
      "t": 82897.35372395851,
      "d": 781.2488281249971,
      "v": 70
    },
    {
      "midi": 47,
      "hit": false,
      "t": 82913.80106770851,
      "d": 723.6831249999959,
      "v": 72
    },
    {
      "midi": 59,
      "hit": false,
      "t": 83278.38385416684,
      "d": 71.27182291666395,
      "v": 66
    },
    {
      "midi": 63,
      "hit": false,
      "t": 83281.12507812517,
      "d": 71.27182291666395,
      "v": 61
    },
    {
      "midi": 54,
      "hit": false,
      "t": 83292.0899739585,
      "d": 76.75427083333489,
      "v": 47
    },
    {
      "midi": 63,
      "hit": false,
      "t": 83640.22541666684,
      "d": 63.0481510416721,
      "v": 62
    },
    {
      "midi": 59,
      "hit": false,
      "t": 83648.44908854185,
      "d": 76.75427083333489,
      "v": 57
    },
    {
      "midi": 54,
      "hit": false,
      "t": 83659.41398437518,
      "d": 57.565703125001164,
      "v": 39
    },
    {
      "midi": 52,
      "hit": false,
      "t": 84040.44411458352,
      "d": 381.0301302083244,
      "v": 56
    },
    {
      "midi": 67,
      "hit": false,
      "t": 84385.83833333351,
      "d": 60.30692708333663,
      "v": 64
    },
    {
      "midi": 64,
      "hit": false,
      "t": 84399.54445312517,
      "d": 41.11835937500291,
      "v": 53
    },
    {
      "midi": 59,
      "hit": false,
      "t": 84402.2856770835,
      "d": 41.11835937500291,
      "v": 57
    },
    {
      "midi": 67,
      "hit": false,
      "t": 84761.38601562518,
      "d": 41.11835937500291,
      "v": 60
    },
    {
      "midi": 59,
      "hit": false,
      "t": 84766.86846354185,
      "d": 43.85958333333838,
      "v": 57
    },
    {
      "midi": 64,
      "hit": false,
      "t": 84772.35091145852,
      "d": 35.635911458331975,
      "v": 53
    },
    {
      "midi": 52,
      "hit": false,
      "t": 85147.89859375019,
      "d": 334.4293229166651,
      "v": 64
    },
    {
      "midi": 67,
      "hit": false,
      "t": 85498.77526041685,
      "d": 57.565703125001164,
      "v": 70
    },
    {
      "midi": 64,
      "hit": false,
      "t": 85512.48138020851,
      "d": 35.635911458331975,
      "v": 60
    },
    {
      "midi": 59,
      "hit": false,
      "t": 85517.96382812518,
      "d": 38.37713541666744,
      "v": 57
    },
    {
      "midi": 67,
      "hit": false,
      "t": 85874.32294270852,
      "d": 74.01304687501397,
      "v": 58
    },
    {
      "midi": 59,
      "hit": false,
      "t": 85879.80539062519,
      "d": 54.82447916668025,
      "v": 66
    },
    {
      "midi": 64,
      "hit": false,
      "t": 85888.0290625002,
      "d": 49.34203125000931,
      "v": 56
    },
    {
      "midi": 71,
      "hit": false,
      "t": 86134.7392187502,
      "d": 65.78937500000757,
      "v": 82
    },
    {
      "midi": 52,
      "hit": false,
      "t": 86192.3049218752,
      "d": 65.78937500000757,
      "v": 80
    },
    {
      "midi": 72,
      "hit": false,
      "t": 86197.78736979187,
      "d": 109.6489583333314,
      "v": 95
    },
    {
      "midi": 71,
      "hit": false,
      "t": 86249.8706250002,
      "d": 353.61789062499884,
      "v": 82
    },
    {
      "midi": 70,
      "hit": false,
      "t": 86567.85260416687,
      "d": 287.82851562499127,
      "v": 70
    },
    {
      "midi": 59,
      "hit": false,
      "t": 86578.8175000002,
      "d": 79.49549479167035,
      "v": 63
    },
    {
      "midi": 64,
      "hit": false,
      "t": 86581.55872395853,
      "d": 63.0481510416721,
      "v": 66
    },
    {
      "midi": 67,
      "hit": false,
      "t": 86587.0411718752,
      "d": 54.8244791666657,
      "v": 64
    },
    {
      "midi": 71,
      "hit": false,
      "t": 86817.30398437519,
      "d": 134.31997395833605,
      "v": 82
    },
    {
      "midi": 74,
      "hit": false,
      "t": 86907.76437500019,
      "d": 331.6880989583442,
      "v": 91
    },
    {
      "midi": 64,
      "hit": false,
      "t": 86935.17661458353,
      "d": 46.600807291673846,
      "v": 63
    },
    {
      "midi": 67,
      "hit": false,
      "t": 86940.6590625002,
      "d": 35.635911458331975,
      "v": 66
    },
    {
      "midi": 72,
      "hit": false,
      "t": 87173.66309895854,
      "d": 167.214661458318,
      "v": 89
    },
    {
      "midi": 52,
      "hit": false,
      "t": 87288.79450520853,
      "d": 98.68406250000407,
      "v": 78
    },
    {
      "midi": 71,
      "hit": false,
      "t": 87297.01817708353,
      "d": 953.9459375000151,
      "v": 98
    },
    {
      "midi": 59,
      "hit": false,
      "t": 87656.1185156252,
      "d": 74.01304687499942,
      "v": 62
    },
    {
      "midi": 64,
      "hit": false,
      "t": 87658.85973958354,
      "d": 74.01304687499942,
      "v": 72
    },
    {
      "midi": 67,
      "hit": false,
      "t": 87661.60096354187,
      "d": 68.53059895832848,
      "v": 57
    },
    {
      "midi": 59,
      "hit": false,
      "t": 88020.70130208354,
      "d": 68.53059895834303,
      "v": 68
    },
    {
      "midi": 67,
      "hit": false,
      "t": 88028.92497395855,
      "d": 46.600807291673846,
      "v": 68
    },
    {
      "midi": 64,
      "hit": false,
      "t": 88034.40742187522,
      "d": 43.85958333333838,
      "v": 62
    },
    {
      "midi": 69,
      "hit": false,
      "t": 88256.44656250022,
      "d": 43.85958333333838,
      "v": 76
    },
    {
      "midi": 71,
      "hit": false,
      "t": 88319.49471354189,
      "d": 123.35507812500873,
      "v": 95
    },
    {
      "midi": 47,
      "hit": false,
      "t": 88357.87184895856,
      "d": 79.49549479167035,
      "v": 80
    },
    {
      "midi": 69,
      "hit": false,
      "t": 88382.54286458356,
      "d": 394.7362500000163,
      "v": 87
    },
    {
      "midi": 68,
      "hit": false,
      "t": 88727.93708333357,
      "d": 279.60484375001397,
      "v": 72
    },
    {
      "midi": 66,
      "hit": false,
      "t": 88730.6783072919,
      "d": 68.53059895834303,
      "v": 61
    },
    {
      "midi": 59,
      "hit": false,
      "t": 88738.90197916691,
      "d": 63.0481510416721,
      "v": 66
    },
    {
      "midi": 63,
      "hit": false,
      "t": 88747.12565104192,
      "d": 46.600807291659294,
      "v": 57
    },
    {
      "midi": 69,
      "hit": false,
      "t": 88977.38846354192,
      "d": 137.06119791667152,
      "v": 85
    },
    {
      "midi": 66,
      "hit": false,
      "t": 89051.40151041692,
      "d": 43.859583333323826,
      "v": 76
    },
    {
      "midi": 63,
      "hit": false,
      "t": 89062.36640625025,
      "d": 46.600807291673846,
      "v": 68
    },
    {
      "midi": 59,
      "hit": false,
      "t": 89073.33130208358,
      "d": 27.412239583340124,
      "v": 74
    },
    {
      "midi": 72,
      "hit": false,
      "t": 89076.07252604191,
      "d": 293.31096354167676,
      "v": 82
    },
    {
      "midi": 71,
      "hit": false,
      "t": 89320.0414583336,
      "d": 172.69710937498894,
      "v": 85
    },
    {
      "midi": 47,
      "hit": false,
      "t": 89435.17286458358,
      "d": 71.27182291666395,
      "v": 80
    },
    {
      "midi": 69,
      "hit": false,
      "t": 89446.13776041691,
      "d": 918.3100260416686,
      "v": 98
    },
    {
      "midi": 59,
      "hit": false,
      "t": 89791.53197916692,
      "d": 93.20161458333314,
      "v": 82
    },
    {
      "midi": 66,
      "hit": false,
      "t": 89794.27320312525,
      "d": 74.01304687499942,
      "v": 63
    },
    {
      "midi": 63,
      "hit": false,
      "t": 89805.23809895858,
      "d": 65.78937500000757,
      "v": 62
    },
    {
      "midi": 66,
      "hit": false,
      "t": 90147.89109375025,
      "d": 57.565703125001164,
      "v": 78
    },
    {
      "midi": 59,
      "hit": false,
      "t": 90161.59721354191,
      "d": 54.8244791666657,
      "v": 87
    },
    {
      "midi": 63,
      "hit": false,
      "t": 90167.07966145859,
      "d": 27.412239583340124,
      "v": 66
    },
    {
      "midi": 67,
      "hit": false,
      "t": 90350.74166666692,
      "d": 76.75427083333489,
      "v": 98
    },
    {
      "midi": 69,
      "hit": false,
      "t": 90419.27226562524,
      "d": 128.83752604166511,
      "v": 85
    },
    {
      "midi": 52,
      "hit": false,
      "t": 90457.64940104191,
      "d": 71.27182291666395,
      "v": 80
    },
    {
      "midi": 67,
      "hit": false,
      "t": 90493.28531250024,
      "d": 619.5166145833355,
      "v": 91
    },
    {
      "midi": 45,
      "hit": false,
      "t": 90729.0305729169,
      "d": 104.16651041667501,
      "v": 85
    },
    {
      "midi": 52,
      "hit": false,
      "t": 90789.33750000024,
      "d": 112.39018229166686,
      "v": 91
    },
    {
      "midi": 60,
      "hit": false,
      "t": 90888.02156250025,
      "d": 63.04815104165755,
      "v": 89
    },
    {
      "midi": 69,
      "hit": false,
      "t": 91071.68356770858,
      "d": 175.43833333333896,
      "v": 85
    },
    {
      "midi": 47,
      "hit": false,
      "t": 91189.5561979169,
      "d": 63.04815104168665,
      "v": 68
    },
    {
      "midi": 57,
      "hit": false,
      "t": 91195.03864583357,
      "d": 71.2718229166785,
      "v": 72
    },
    {
      "midi": 66,
      "hit": false,
      "t": 91197.7798697919,
      "d": 282.34606770834944,
      "v": 80
    },
    {
      "midi": 51,
      "hit": false,
      "t": 91200.52109375024,
      "d": 68.53059895834303,
      "v": 82
    },
    {
      "midi": 67,
      "hit": false,
      "t": 91447.23125000026,
      "d": 106.90773437499593,
      "v": 80
    },
    {
      "midi": 64,
      "hit": false,
      "t": 91548.65653645858,
      "d": 361.84156250000524,
      "v": 87
    },
    {
      "midi": 52,
      "hit": false,
      "t": 91559.62143229193,
      "d": 402.95992187500815,
      "v": 85
    },
    {
      "midi": 59,
      "hit": false,
      "t": 91929.68666666692,
      "d": 60.306927083351184,
      "v": 64
    },
    {
      "midi": 55,
      "hit": false,
      "t": 91937.91033854193,
      "d": 52.08325520834478,
      "v": 78
    },
    {
      "midi": 59,
      "hit": false,
      "t": 92288.78700520861,
      "d": 52.08325520834478,
      "v": 82
    },
    {
      "midi": 55,
      "hit": false,
      "t": 92291.52822916694,
      "d": 46.600807291673846,
      "v": 82
    },
    {
      "midi": 36,
      "hit": false,
      "t": 92713.67671875028,
      "d": 504.38520833336224,
      "v": 91
    },
    {
      "midi": 48,
      "hit": false,
      "t": 92716.41794270862,
      "d": 501.6439843750268,
      "v": 89
    },
    {
      "midi": 67,
      "hit": false,
      "t": 93097.44807291696,
      "d": 68.53059895835759,
      "v": 85
    },
    {
      "midi": 64,
      "hit": false,
      "t": 93102.93052083363,
      "d": 57.565703125015716,
      "v": 82
    },
    {
      "midi": 60,
      "hit": false,
      "t": 93111.15419270864,
      "d": 46.600807291673846,
      "v": 72
    },
    {
      "midi": 67,
      "hit": false,
      "t": 93486.70187500032,
      "d": 60.30692708333663,
      "v": 80
    },
    {
      "midi": 60,
      "hit": false,
      "t": 93489.44309895865,
      "d": 57.565703125001164,
      "v": 78
    },
    {
      "midi": 64,
      "hit": false,
      "t": 93500.40799479198,
      "d": 46.600807291673846,
      "v": 78
    },
    {
      "midi": 36,
      "hit": false,
      "t": 93851.28466145866,
      "d": 328.94687500000873,
      "v": 95
    },
    {
      "midi": 48,
      "hit": false,
      "t": 93859.50833333367,
      "d": 334.4293229166651,
      "v": 82
    },
    {
      "midi": 67,
      "hit": false,
      "t": 94202.16132812534,
      "d": 57.565703125001164,
      "v": 78
    },
    {
      "midi": 64,
      "hit": false,
      "t": 94213.12622395866,
      "d": 52.08325520834478,
      "v": 78
    },
    {
      "midi": 60,
      "hit": false,
      "t": 94221.34989583367,
      "d": 41.11835937500291,
      "v": 70
    },
    {
      "midi": 60,
      "hit": false,
      "t": 94564.00289062534,
      "d": 74.01304687499942,
      "v": 82
    },
    {
      "midi": 67,
      "hit": false,
      "t": 94569.48533854201,
      "d": 52.08325520833023,
      "v": 82
    },
    {
      "midi": 64,
      "hit": false,
      "t": 94572.22656250035,
      "d": 54.8244791666657,
      "v": 80
    },
    {
      "midi": 55,
      "hit": false,
      "t": 94966.96281250034,
      "d": 734.6480208333523,
      "v": 80
    },
    {
      "midi": 43,
      "hit": false,
      "t": 94972.44526041701,
      "d": 737.3892447916878,
      "v": 82
    },
    {
      "midi": 67,
      "hit": false,
      "t": 95320.58070312535,
      "d": 65.78937499999302,
      "v": 72
    },
    {
      "midi": 62,
      "hit": false,
      "t": 95334.28682291701,
      "d": 38.37713541666744,
      "v": 82
    },
    {
      "midi": 59,
      "hit": false,
      "t": 95337.02804687535,
      "d": 38.37713541666744,
      "v": 68
    },
    {
      "midi": 67,
      "hit": false,
      "t": 95687.90471354201,
      "d": 60.306927083351184,
      "v": 82
    },
    {
      "midi": 59,
      "hit": false,
      "t": 95693.38716145868,
      "d": 52.08325520834478,
      "v": 80
    },
    {
      "midi": 62,
      "hit": false,
      "t": 95698.86960937535,
      "d": 49.34203125000931,
      "v": 87
    },
    {
      "midi": 55,
      "hit": false,
      "t": 96074.41729166702,
      "d": 402.9599218749936,
      "v": 68
    },
    {
      "midi": 43,
      "hit": false,
      "t": 96085.38218750035,
      "d": 397.4774739583372,
      "v": 80
    },
    {
      "midi": 67,
      "hit": false,
      "t": 96430.77640625036,
      "d": 68.53059895834303,
      "v": 63
    },
    {
      "midi": 62,
      "hit": false,
      "t": 96436.25885416703,
      "d": 52.08325520833023,
      "v": 80
    },
    {
      "midi": 59,
      "hit": false,
      "t": 96447.22375000035,
      "d": 43.85958333333838,
      "v": 66
    },
    {
      "midi": 67,
      "hit": false,
      "t": 96789.87674479203,
      "d": 65.78937499999302,
      "v": 80
    },
    {
      "midi": 59,
      "hit": false,
      "t": 96800.84164062535,
      "d": 43.85958333333838,
      "v": 64
    },
    {
      "midi": 62,
      "hit": false,
      "t": 96806.32408854202,
      "d": 32.89468749999651,
      "v": 76
    },
    {
      "midi": 53,
      "hit": false,
      "t": 97201.06033854201,
      "d": 501.6439843749977,
      "v": 40
    },
    {
      "midi": 41,
      "hit": false,
      "t": 97203.80156250035,
      "d": 507.1264322916686,
      "v": 56
    },
    {
      "midi": 69,
      "hit": false,
      "t": 97554.67822916701,
      "d": 90.46039062499767,
      "v": 44
    },
    {
      "midi": 65,
      "hit": false,
      "t": 97573.86679687534,
      "d": 49.34203124999476,
      "v": 60
    },
    {
      "midi": 60,
      "hit": false,
      "t": 97590.31414062534,
      "d": 35.635911458331975,
      "v": 35
    },
    {
      "midi": 69,
      "hit": false,
      "t": 97922.00223958369,
      "d": 84.97794270832674,
      "v": 46
    },
    {
      "midi": 65,
      "hit": false,
      "t": 97932.96713541701,
      "d": 54.8244791666657,
      "v": 58
    },
    {
      "midi": 60,
      "hit": false,
      "t": 97938.44958333368,
      "d": 57.565703125001164,
      "v": 51
    },
    {
      "midi": 41,
      "hit": false,
      "t": 98305.77359375035,
      "d": 389.25380208334536,
      "v": 53
    },
    {
      "midi": 53,
      "hit": false,
      "t": 98308.51481770868,
      "d": 391.99502604168083,
      "v": 39
    },
    {
      "midi": 65,
      "hit": false,
      "t": 98681.32127604201,
      "d": 41.11835937501746,
      "v": 47
    },
    {
      "midi": 60,
      "hit": false,
      "t": 98684.06250000035,
      "d": 38.377135416681995,
      "v": 37
    },
    {
      "midi": 69,
      "hit": false,
      "t": 98686.80372395868,
      "d": 41.11835937501746,
      "v": 21
    },
    {
      "midi": 69,
      "hit": false,
      "t": 99043.16283854203,
      "d": 84.97794270832674,
      "v": 39
    },
    {
      "midi": 65,
      "hit": false,
      "t": 99045.90406250037,
      "d": 65.78937499999302,
      "v": 59
    },
    {
      "midi": 60,
      "hit": false,
      "t": 99056.8689583337,
      "d": 57.565703125001164,
      "v": 46
    },
    {
      "midi": 48,
      "hit": false,
      "t": 99407.74562500036,
      "d": 430.3721614583483,
      "v": 50
    },
    {
      "midi": 36,
      "hit": false,
      "t": 99410.4868489587,
      "d": 433.11338541668374,
      "v": 63
    },
    {
      "midi": 67,
      "hit": false,
      "t": 99772.3284114587,
      "d": 68.53059895834303,
      "v": 66
    },
    {
      "midi": 60,
      "hit": false,
      "t": 99775.06963541704,
      "d": 60.30692708333663,
      "v": 63
    },
    {
      "midi": 64,
      "hit": false,
      "t": 99777.81085937537,
      "d": 54.8244791666657,
      "v": 64
    },
    {
      "midi": 67,
      "hit": false,
      "t": 100128.68752604205,
      "d": 68.53059895834303,
      "v": 80
    },
    {
      "midi": 60,
      "hit": false,
      "t": 100136.91119791706,
      "d": 54.8244791666657,
      "v": 60
    },
    {
      "midi": 64,
      "hit": false,
      "t": 100142.39364583373,
      "d": 49.34203124999476,
      "v": 60
    },
    {
      "midi": 48,
      "hit": false,
      "t": 100509.71765625039,
      "d": 383.771354166689,
      "v": 64
    },
    {
      "midi": 36,
      "hit": false,
      "t": 100512.45888020872,
      "d": 375.5476822916826,
      "v": 76
    },
    {
      "midi": 67,
      "hit": false,
      "t": 100882.52411458374,
      "d": 79.4954947916849,
      "v": 82
    },
    {
      "midi": 60,
      "hit": false,
      "t": 100896.23023437541,
      "d": 63.0481510416721,
      "v": 82
    },
    {
      "midi": 64,
      "hit": false,
      "t": 100898.97145833375,
      "d": 52.08325520833023,
      "v": 74
    },
    {
      "midi": 60,
      "hit": false,
      "t": 101244.36567708376,
      "d": 63.0481510416721,
      "v": 85
    },
    {
      "midi": 64,
      "hit": false,
      "t": 101247.10690104209,
      "d": 54.8244791666657,
      "v": 82
    },
    {
      "midi": 67,
      "hit": false,
      "t": 101249.84812500043,
      "d": 65.78937500000757,
      "v": 87
    },
    {
      "midi": 33,
      "hit": false,
      "t": 101639.10192708377,
      "d": 372.80645833333256,
      "v": 102
    },
    {
      "midi": 45,
      "hit": false,
      "t": 101639.10192708377,
      "d": 372.80645833333256,
      "v": 102
    },
    {
      "midi": 69,
      "hit": false,
      "t": 102009.16716145877,
      "d": 84.97794270834129,
      "v": 82
    },
    {
      "midi": 64,
      "hit": false,
      "t": 102020.13205729211,
      "d": 54.8244791666657,
      "v": 76
    },
    {
      "midi": 60,
      "hit": false,
      "t": 102022.87328125045,
      "d": 57.565703125001164,
      "v": 89
    },
    {
      "midi": 69,
      "hit": false,
      "t": 102387.45606770877,
      "d": 74.01304687501397,
      "v": 89
    },
    {
      "midi": 60,
      "hit": false,
      "t": 102392.93851562544,
      "d": 60.30692708333663,
      "v": 85
    },
    {
      "midi": 64,
      "hit": false,
      "t": 102395.67973958378,
      "d": 52.08325520833023,
      "v": 78
    },
    {
      "midi": 45,
      "hit": false,
      "t": 102757.52130208378,
      "d": 507.1264322916686,
      "v": 89
    },
    {
      "midi": 57,
      "hit": false,
      "t": 102760.26252604212,
      "d": 487.9378645833349,
      "v": 85
    },
    {
      "midi": 69,
      "hit": false,
      "t": 103108.39796875045,
      "d": 90.46039062501222,
      "v": 80
    },
    {
      "midi": 64,
      "hit": false,
      "t": 103127.58653645878,
      "d": 63.0481510416721,
      "v": 85
    },
    {
      "midi": 60,
      "hit": false,
      "t": 103130.32776041712,
      "d": 60.30692708333663,
      "v": 80
    },
    {
      "midi": 69,
      "hit": false,
      "t": 103486.68687500045,
      "d": 93.20161458333314,
      "v": 82
    },
    {
      "midi": 64,
      "hit": false,
      "t": 103492.16932291712,
      "d": 74.01304687499942,
      "v": 82
    },
    {
      "midi": 60,
      "hit": false,
      "t": 103494.91054687546,
      "d": 74.01304687499942,
      "v": 85
    },
    {
      "midi": 54,
      "hit": false,
      "t": 103864.97578125045,
      "d": 753.8365885417006,
      "v": 76
    },
    {
      "midi": 42,
      "hit": false,
      "t": 103870.45822916712,
      "d": 740.1304687500233,
      "v": 80
    },
    {
      "midi": 63,
      "hit": false,
      "t": 104237.7822395838,
      "d": 90.46039062499767,
      "v": 70
    },
    {
      "midi": 69,
      "hit": false,
      "t": 104240.52346354214,
      "d": 112.39018229166686,
      "v": 78
    },
    {
      "midi": 59,
      "hit": false,
      "t": 104251.48835937546,
      "d": 79.49549479167035,
      "v": 68
    },
    {
      "midi": 59,
      "hit": false,
      "t": 104605.10625000048,
      "d": 65.78937500000757,
      "v": 78
    },
    {
      "midi": 69,
      "hit": false,
      "t": 104610.58869791715,
      "d": 65.78937500000757,
      "v": 68
    },
    {
      "midi": 63,
      "hit": false,
      "t": 104613.32992187548,
      "d": 54.8244791666657,
      "v": 60
    },
    {
      "midi": 54,
      "hit": false,
      "t": 104994.36005208382,
      "d": 463.2668489583448,
      "v": 78
    },
    {
      "midi": 42,
      "hit": false,
      "t": 105002.58372395883,
      "d": 446.819505208332,
      "v": 82
    },
    {
      "midi": 69,
      "hit": false,
      "t": 105350.71916666717,
      "d": 87.7191666666622,
      "v": 72
    },
    {
      "midi": 63,
      "hit": false,
      "t": 105364.42528645883,
      "d": 54.8244791666657,
      "v": 60
    },
    {
      "midi": 59,
      "hit": false,
      "t": 105367.16651041717,
      "d": 54.8244791666657,
      "v": 70
    },
    {
      "midi": 69,
      "hit": false,
      "t": 105720.78440104217,
      "d": 82.23671875000582,
      "v": 70
    },
    {
      "midi": 63,
      "hit": false,
      "t": 105726.26684895884,
      "d": 60.30692708333663,
      "v": 59
    },
    {
      "midi": 59,
      "hit": false,
      "t": 105729.00807291718,
      "d": 57.565703125001164,
      "v": 64
    },
    {
      "midi": 52,
      "hit": false,
      "t": 106096.33208333385,
      "d": 712.7182291666977,
      "v": 55
    },
    {
      "midi": 40,
      "hit": false,
      "t": 106118.26187500052,
      "d": 701.7533333333558,
      "v": 68
    },
    {
      "midi": 67,
      "hit": false,
      "t": 106480.10343750053,
      "d": 95.94283854168316,
      "v": 51
    },
    {
      "midi": 64,
      "hit": false,
      "t": 106482.84466145886,
      "d": 79.49549479167035,
      "v": 54
    },
    {
      "midi": 59,
      "hit": false,
      "t": 106491.06833333387,
      "d": 76.75427083333489,
      "v": 47
    },
    {
      "midi": 64,
      "hit": false,
      "t": 106861.13356770888,
      "d": 265.8987239583512,
      "v": 80
    },
    {
      "midi": 67,
      "hit": false,
      "t": 106866.61601562555,
      "d": 298.7934114583477,
      "v": 66
    },
    {
      "midi": 59,
      "hit": false,
      "t": 106874.83968750056,
      "d": 345.394218750007,
      "v": 62
    },
    {
      "midi": 36,
      "hit": false,
      "t": 107231.19880208389,
      "d": 679.8235416666867,
      "v": 85
    },
    {
      "midi": 48,
      "hit": false,
      "t": 107233.94002604223,
      "d": 731.9067968750314,
      "v": 72
    },
    {
      "midi": 64,
      "hit": false,
      "t": 107554.66322916723,
      "d": 109.64895833334594,
      "v": 85
    },
    {
      "midi": 54,
      "hit": false,
      "t": 107571.11057291723,
      "d": 79.49549479167035,
      "v": 70
    },
    {
      "midi": 58,
      "hit": false,
      "t": 107576.5930208339,
      "d": 82.23671875000582,
      "v": 78
    },
    {
      "midi": 64,
      "hit": false,
      "t": 107916.50479166725,
      "d": 93.20161458334769,
      "v": 82
    },
    {
      "midi": 54,
      "hit": false,
      "t": 107924.72846354225,
      "d": 84.97794270834129,
      "v": 70
    },
    {
      "midi": 58,
      "hit": false,
      "t": 107930.21091145893,
      "d": 74.01304687499942,
      "v": 82
    },
    {
      "midi": 35,
      "hit": false,
      "t": 108305.75859375061,
      "d": 649.6700781249965,
      "v": 91
    },
    {
      "midi": 47,
      "hit": false,
      "t": 108305.75859375061,
      "d": 649.6700781249965,
      "v": 91
    },
    {
      "midi": 63,
      "hit": false,
      "t": 108651.1528125006,
      "d": 90.46039062499767,
      "v": 64
    },
    {
      "midi": 54,
      "hit": false,
      "t": 108662.11770833393,
      "d": 63.0481510416721,
      "v": 64
    },
    {
      "midi": 59,
      "hit": false,
      "t": 108664.85893229226,
      "d": 60.30692708333663,
      "v": 89
    },
    {
      "midi": 54,
      "hit": false,
      "t": 109015.73559895894,
      "d": 76.75427083334944,
      "v": 68
    },
    {
      "midi": 63,
      "hit": false,
      "t": 109021.21804687561,
      "d": 79.4954947916849,
      "v": 70
    },
    {
      "midi": 59,
      "hit": false,
      "t": 109026.70049479228,
      "d": 60.30692708333663,
      "v": 89
    },
    {
      "midi": 47,
      "hit": false,
      "t": 109424.17796875064,
      "d": 372.806458333318,
      "v": 70
    },
    {
      "midi": 63,
      "hit": false,
      "t": 109755.86606770896,
      "d": 82.23671874999127,
      "v": 59
    },
    {
      "midi": 54,
      "hit": false,
      "t": 109772.31341145896,
      "d": 65.78937499999302,
      "v": 54
    },
    {
      "midi": 59,
      "hit": false,
      "t": 109786.01953125063,
      "d": 35.635911458331975,
      "v": 68
    },
    {
      "midi": 63,
      "hit": false,
      "t": 110125.93130208396,
      "d": 65.78937500002212,
      "v": 52
    },
    {
      "midi": 59,
      "hit": false,
      "t": 110128.6725260423,
      "d": 35.63591145834653,
      "v": 68
    },
    {
      "midi": 54,
      "hit": false,
      "t": 110136.8961979173,
      "d": 46.600807291673846,
      "v": 47
    },
    {
      "midi": 52,
      "hit": false,
      "t": 110570.00958333399,
      "d": 375.547682291668,
      "v": 59
    },
    {
      "midi": 67,
      "hit": false,
      "t": 110904.43890625065,
      "d": 65.78937500000757,
      "v": 58
    },
    {
      "midi": 64,
      "hit": false,
      "t": 110915.40380208398,
      "d": 46.600807291673846,
      "v": 53
    },
    {
      "midi": 59,
      "hit": false,
      "t": 110923.62747395899,
      "d": 41.11835937500291,
      "v": 47
    },
    {
      "midi": 59,
      "hit": false,
      "t": 111296.43393229233,
      "d": 57.565703125015716,
      "v": 52
    },
    {
      "midi": 67,
      "hit": false,
      "t": 111299.17515625067,
      "d": 38.37713541666744,
      "v": 57
    },
    {
      "midi": 64,
      "hit": false,
      "t": 111301.916380209,
      "d": 43.85958333333838,
      "v": 57
    },
    {
      "midi": 52,
      "hit": false,
      "t": 111682.94651041734,
      "d": 285.0872916666558,
      "v": 78
    },
    {
      "midi": 67,
      "hit": false,
      "t": 112028.34072916734,
      "d": 60.30692708333663,
      "v": 64
    },
    {
      "midi": 64,
      "hit": false,
      "t": 112039.30562500066,
      "d": 41.11835937500291,
      "v": 64
    },
    {
      "midi": 59,
      "hit": false,
      "t": 112042.046848959,
      "d": 49.34203125000931,
      "v": 59
    },
    {
      "midi": 64,
      "hit": false,
      "t": 112398.40596354235,
      "d": 101.42528645833954,
      "v": 60
    },
    {
      "midi": 59,
      "hit": false,
      "t": 112403.88841145902,
      "d": 82.23671875000582,
      "v": 61
    },
    {
      "midi": 67,
      "hit": false,
      "t": 112406.62963541735,
      "d": 95.9428385416686,
      "v": 66
    },
    {
      "midi": 71,
      "hit": false,
      "t": 112667.04591145903,
      "d": 479.7141927083285,
      "v": 64
    },
    {
      "midi": 72,
      "hit": false,
      "t": 112713.64671875071,
      "d": 104.16651041666046,
      "v": 98
    },
    {
      "midi": 52,
      "hit": false,
      "t": 112741.05895833403,
      "d": 98.68406250000407,
      "v": 82
    },
    {
      "midi": 59,
      "hit": false,
      "t": 113097.41807291737,
      "d": 93.20161458333314,
      "v": 78
    },
    {
      "midi": 70,
      "hit": false,
      "t": 113100.1592968757,
      "d": 268.63994791665755,
      "v": 66
    },
    {
      "midi": 67,
      "hit": false,
      "t": 113111.12419270903,
      "d": 60.30692708333663,
      "v": 66
    },
    {
      "midi": 64,
      "hit": false,
      "t": 113122.08908854236,
      "d": 65.78937500000757,
      "v": 59
    },
    {
      "midi": 71,
      "hit": false,
      "t": 113335.90455729236,
      "d": 139.80242187500698,
      "v": 89
    },
    {
      "midi": 74,
      "hit": false,
      "t": 113437.32984375069,
      "d": 296.0521875000268,
      "v": 82
    },
    {
      "midi": 67,
      "hit": false,
      "t": 113462.0008593757,
      "d": 43.85958333335293,
      "v": 64
    },
    {
      "midi": 64,
      "hit": false,
      "t": 113467.48330729236,
      "d": 35.63591145834653,
      "v": 72
    },
    {
      "midi": 72,
      "hit": false,
      "t": 113675.81632812571,
      "d": 175.43833333333896,
      "v": 78
    },
    {
      "midi": 52,
      "hit": false,
      "t": 113793.68895833405,
      "d": 79.49549479167035,
      "v": 82
    },
    {
      "midi": 71,
      "hit": false,
      "t": 113799.17140625072,
      "d": 915.5688020833331,
      "v": 98
    },
    {
      "midi": 59,
      "hit": false,
      "t": 114152.78929687572,
      "d": 90.46039062499767,
      "v": 70
    },
    {
      "midi": 67,
      "hit": false,
      "t": 114163.75419270905,
      "d": 63.0481510416721,
      "v": 66
    },
    {
      "midi": 64,
      "hit": false,
      "t": 114166.49541666739,
      "d": 65.78937500000757,
      "v": 58
    },
    {
      "midi": 67,
      "hit": false,
      "t": 114528.33697916739,
      "d": 52.08325520833023,
      "v": 78
    },
    {
      "midi": 64,
      "hit": false,
      "t": 114542.04309895905,
      "d": 38.37713541666744,
      "v": 68
    },
    {
      "midi": 59,
      "hit": false,
      "t": 114544.78432291739,
      "d": 35.635911458331975,
      "v": 47
    },
    {
      "midi": 69,
      "hit": false,
      "t": 114731.18755208405,
      "d": 43.85958333333838,
      "v": 74
    },
    {
      "midi": 71,
      "hit": false,
      "t": 114791.49447916739,
      "d": 120.61385416667326,
      "v": 91
    },
    {
      "midi": 69,
      "hit": false,
      "t": 114849.06018229239,
      "d": 386.5125781250099,
      "v": 87
    },
    {
      "midi": 47,
      "hit": false,
      "t": 114854.54263020906,
      "d": 74.01304687499942,
      "v": 78
    },
    {
      "midi": 68,
      "hit": false,
      "t": 115197.19562500074,
      "d": 290.5697395833413,
      "v": 80
    },
    {
      "midi": 63,
      "hit": false,
      "t": 115208.16052083406,
      "d": 87.71916666667676,
      "v": 66
    },
    {
      "midi": 59,
      "hit": false,
      "t": 115210.9017447924,
      "d": 74.01304687501397,
      "v": 68
    },
    {
      "midi": 66,
      "hit": false,
      "t": 115230.09031250073,
      "d": 49.34203125000931,
      "v": 53
    },
    {
      "midi": 69,
      "hit": false,
      "t": 115449.38822916741,
      "d": 131.57875000000058,
      "v": 85
    },
    {
      "midi": 72,
      "hit": false,
      "t": 115545.33106770908,
      "d": 317.98197916666686,
      "v": 87
    },
    {
      "midi": 66,
      "hit": false,
      "t": 115553.55473958408,
      "d": 27.412239583325572,
      "v": 63
    },
    {
      "midi": 59,
      "hit": false,
      "t": 115564.51963541741,
      "d": 38.37713541666744,
      "v": 70
    },
    {
      "midi": 63,
      "hit": false,
      "t": 115570.00208333408,
      "d": 27.412239583325572,
      "v": 53
    },
    {
      "midi": 71,
      "hit": false,
      "t": 115803.00611979241,
      "d": 164.4734374999971,
      "v": 82
    },
    {
      "midi": 47,
      "hit": false,
      "t": 115912.65507812574,
      "d": 63.0481510416721,
      "v": 82
    },
    {
      "midi": 69,
      "hit": false,
      "t": 115915.39630208407,
      "d": 915.5688020833622,
      "v": 100
    },
    {
      "midi": 66,
      "hit": false,
      "t": 116269.01419270907,
      "d": 82.23671875000582,
      "v": 70
    },
    {
      "midi": 63,
      "hit": false,
      "t": 116290.94398437574,
      "d": 79.49549479167035,
      "v": 68
    },
    {
      "midi": 59,
      "hit": false,
      "t": 116296.42643229241,
      "d": 76.75427083333489,
      "v": 68
    },
    {
      "midi": 66,
      "hit": false,
      "t": 116633.59697916741,
      "d": 54.82447916668025,
      "v": 68
    },
    {
      "midi": 59,
      "hit": false,
      "t": 116641.82065104242,
      "d": 71.2718229166785,
      "v": 85
    },
    {
      "midi": 63,
      "hit": false,
      "t": 116661.00921875075,
      "d": 24.671015625004657,
      "v": 59
    },
    {
      "midi": 67,
      "hit": false,
      "t": 116830.96510416744,
      "d": 68.53059895834303,
      "v": 98
    },
    {
      "midi": 69,
      "hit": false,
      "t": 116894.01325520911,
      "d": 120.61385416667326,
      "v": 85
    },
    {
      "midi": 52,
      "hit": false,
      "t": 116962.54385416745,
      "d": 74.01304687499942,
      "v": 89
    },
    {
      "midi": 67,
      "hit": false,
      "t": 116965.28507812579,
      "d": 501.6439843749977,
      "v": 95
    },
    {
      "midi": 55,
      "hit": false,
      "t": 117294.23195312578,
      "d": 106.90773437501048,
      "v": 60
    },
    {
      "midi": 64,
      "hit": false,
      "t": 117302.45562500079,
      "d": 71.27182291666395,
      "v": 68
    },
    {
      "midi": 66,
      "hit": false,
      "t": 117513.52986979246,
      "d": 123.35507812500873,
      "v": 64
    },
    {
      "midi": 67,
      "hit": false,
      "t": 117628.66127604246,
      "d": 90.46039062501222,
      "v": 98
    },
    {
      "midi": 55,
      "hit": false,
      "t": 117647.8498437508,
      "d": 79.4954947916849,
      "v": 66
    },
    {
      "midi": 64,
      "hit": false,
      "t": 117664.2971875008,
      "d": 46.600807291673846,
      "v": 62
    },
    {
      "midi": 69,
      "hit": false,
      "t": 117716.38044270914,
      "d": 216.55669270834187,
      "v": 82
    },
    {
      "midi": 67,
      "hit": false,
      "t": 117902.78367187582,
      "d": 104.16651041666046,
      "v": 100
    },
    {
      "midi": 66,
      "hit": false,
      "t": 117998.72651041747,
      "d": 805.9198437500309,
      "v": 105
    },
    {
      "midi": 47,
      "hit": false,
      "t": 118009.69140625081,
      "d": 471.4905208333512,
      "v": 66
    },
    {
      "midi": 54,
      "hit": false,
      "t": 118349.60317708415,
      "d": 87.71916666667676,
      "v": 70
    },
    {
      "midi": 59,
      "hit": false,
      "t": 118352.34440104249,
      "d": 60.30692708333663,
      "v": 64
    },
    {
      "midi": 59,
      "hit": false,
      "t": 118716.92718750083,
      "d": 52.08325520834478,
      "v": 70
    },
    {
      "midi": 54,
      "hit": false,
      "t": 118725.15085937583,
      "d": 57.565703125001164,
      "v": 68
    },
    {
      "midi": 40,
      "hit": false,
      "t": 119089.73364583416,
      "d": 753.8365885416861,
      "v": 60
    },
    {
      "midi": 52,
      "hit": false,
      "t": 119095.21609375083,
      "d": 734.6480208333378,
      "v": 60
    },
    {
      "midi": 67,
      "hit": false,
      "t": 119468.02255208416,
      "d": 87.71916666667676,
      "v": 76
    },
    {
      "midi": 64,
      "hit": false,
      "t": 119473.50500000083,
      "d": 84.97794270834129,
      "v": 68
    },
    {
      "midi": 59,
      "hit": false,
      "t": 119481.72867187584,
      "d": 74.01304687499942,
      "v": 63
    },
    {
      "midi": 64,
      "hit": false,
      "t": 119832.6053385425,
      "d": 433.1133854166692,
      "v": 74
    },
    {
      "midi": 67,
      "hit": false,
      "t": 119835.34656250084,
      "d": 435.85460937500466,
      "v": 78
    },
    {
      "midi": 59,
      "hit": false,
      "t": 119840.82901041751,
      "d": 422.1484895833273,
      "v": 68
    },
    {
      "midi": 50,
      "hit": false,
      "t": 120208.15302083417,
      "d": 844.2969791666837,
      "v": 80
    },
    {
      "midi": 38,
      "hit": false,
      "t": 120213.63546875084,
      "d": 1041.6651041666773,
      "v": 89
    },
    {
      "midi": 68,
      "hit": false,
      "t": 120580.95947916752,
      "d": 98.68406250000407,
      "v": 82
    },
    {
      "midi": 64,
      "hit": false,
      "t": 120583.70070312585,
      "d": 93.20161458333314,
      "v": 87
    },
    {
      "midi": 59,
      "hit": false,
      "t": 120586.44192708419,
      "d": 87.7191666666622,
      "v": 82
    },
    {
      "midi": 59,
      "hit": false,
      "t": 120920.87125000086,
      "d": 68.53059895834303,
      "v": 89
    },
    {
      "midi": 64,
      "hit": false,
      "t": 120923.61247395919,
      "d": 76.75427083333489,
      "v": 89
    },
    {
      "midi": 68,
      "hit": false,
      "t": 120929.09492187586,
      "d": 84.97794270832674,
      "v": 80
    },
    {
      "midi": 76,
      "hit": false,
      "t": 121282.71281250086,
      "d": 139.80242187500698,
      "v": 105
    },
    {
      "midi": 36,
      "hit": false,
      "t": 121290.93648437587,
      "d": 696.2708854166704,
      "v": 91
    },
    {
      "midi": 48,
      "hit": false,
      "t": 121296.41893229254,
      "d": 764.8014843750134,
      "v": 100
    },
    {
      "midi": 69,
      "hit": false,
      "t": 121661.00171875086,
      "d": 76.75427083333489,
      "v": 95
    },
    {
      "midi": 64,
      "hit": false,
      "t": 121666.48416666753,
      "d": 57.565703125001164,
      "v": 87
    },
    {
      "midi": 60,
      "hit": false,
      "t": 121669.22539062587,
      "d": 57.565703125001164,
      "v": 78
    },
    {
      "midi": 69,
      "hit": false,
      "t": 121995.43104166754,
      "d": 65.78937500000757,
      "v": 91
    },
    {
      "midi": 64,
      "hit": false,
      "t": 121998.17226562588,
      "d": 46.600807291673846,
      "v": 87
    },
    {
      "midi": 60,
      "hit": false,
      "t": 122003.65471354255,
      "d": 46.600807291673846,
      "v": 93
    },
    {
      "midi": 33,
      "hit": false,
      "t": 122357.27260416755,
      "d": 178.17955729165988,
      "v": 105
    },
    {
      "midi": 45,
      "hit": false,
      "t": 122357.27260416755,
      "d": 178.17955729165988,
      "v": 105
    },
    {
      "midi": 76,
      "hit": false,
      "t": 122370.97872395921,
      "d": 38.37713541666744,
      "v": 80
    },
    {
      "midi": 69,
      "hit": false,
      "t": 122699.9255989592,
      "d": 79.4954947916849,
      "v": 70
    },
    {
      "midi": 65,
      "hit": false,
      "t": 122708.14927083421,
      "d": 74.01304687501397,
      "v": 80
    },
    {
      "midi": 60,
      "hit": false,
      "t": 122716.37294270922,
      "d": 57.565703125001164,
      "v": 70
    },
    {
      "midi": 69,
      "hit": false,
      "t": 123045.31981770923,
      "d": 93.20161458333314,
      "v": 70
    },
    {
      "midi": 65,
      "hit": false,
      "t": 123059.02593750089,
      "d": 60.30692708333663,
      "v": 68
    },
    {
      "midi": 60,
      "hit": false,
      "t": 123064.50838541756,
      "d": 63.0481510416721,
      "v": 68
    },
    {
      "midi": 35,
      "hit": false,
      "t": 123415.38505208422,
      "d": 301.5346354166686,
      "v": 82
    },
    {
      "midi": 47,
      "hit": false,
      "t": 123415.38505208422,
      "d": 301.5346354166686,
      "v": 82
    },
    {
      "midi": 67,
      "hit": false,
      "t": 123760.77927083423,
      "d": 76.75427083333489,
      "v": 68
    },
    {
      "midi": 64,
      "hit": false,
      "t": 123763.52049479257,
      "d": 65.78937499999302,
      "v": 76
    },
    {
      "midi": 67,
      "hit": false,
      "t": 124122.62083333424,
      "d": 98.68406250000407,
      "v": 64
    },
    {
      "midi": 64,
      "hit": false,
      "t": 124133.58572916756,
      "d": 60.30692708333663,
      "v": 85
    },
    {
      "midi": 35,
      "hit": false,
      "t": 124451.56770833425,
      "d": 260.4162760416657,
      "v": 85
    },
    {
      "midi": 47,
      "hit": false,
      "t": 124451.56770833425,
      "d": 260.4162760416657,
      "v": 85
    },
    {
      "midi": 66,
      "hit": false,
      "t": 124799.70315104257,
      "d": 74.01304687501397,
      "v": 68
    },
    {
      "midi": 59,
      "hit": false,
      "t": 124805.18559895924,
      "d": 57.565703125001164,
      "v": 78
    },
    {
      "midi": 63,
      "hit": false,
      "t": 124807.92682291758,
      "d": 63.0481510416721,
      "v": 63
    },
    {
      "midi": 66,
      "hit": false,
      "t": 125145.09736979258,
      "d": 71.27182291666395,
      "v": 72
    },
    {
      "midi": 59,
      "hit": false,
      "t": 125150.57981770925,
      "d": 52.08325520833023,
      "v": 68
    },
    {
      "midi": 63,
      "hit": false,
      "t": 125153.32104166759,
      "d": 79.4954947916558,
      "v": 60
    },
    {
      "midi": 64,
      "hit": false,
      "t": 125506.93893229259,
      "d": 82.23671875000582,
      "v": 68
    },
    {
      "midi": 67,
      "hit": false,
      "t": 125509.68015625092,
      "d": 82.23671875000582,
      "v": 87
    },
    {
      "midi": 35,
      "hit": false,
      "t": 125526.12750000092,
      "d": 748.3541406250006,
      "v": 68
    },
    {
      "midi": 47,
      "hit": false,
      "t": 125526.12750000092,
      "d": 748.3541406250006,
      "v": 68
    },
    {
      "midi": 64,
      "hit": false,
      "t": 125852.33315104259,
      "d": 98.68406250000407,
      "v": 72
    },
    {
      "midi": 67,
      "hit": false,
      "t": 125857.81559895926,
      "d": 106.90773437499593,
      "v": 80
    },
    {
      "midi": 65,
      "hit": false,
      "t": 126173.0563541676,
      "d": 317.98197916666686,
      "v": 66
    },
    {
      "midi": 68,
      "hit": false,
      "t": 126186.76247395926,
      "d": 370.0652343749971,
      "v": 98
    },
    {
      "midi": 69,
      "hit": false,
      "t": 126515.70934895927,
      "d": 68.53059895832848,
      "v": 87
    },
    {
      "midi": 66,
      "hit": false,
      "t": 126526.6742447926,
      "d": 76.75427083333489,
      "v": 78
    },
    {
      "midi": 35,
      "hit": false,
      "t": 126537.63914062592,
      "d": 734.6480208333378,
      "v": 93
    },
    {
      "midi": 47,
      "hit": false,
      "t": 126537.63914062592,
      "d": 734.6480208333378,
      "v": 93
    },
    {
      "midi": 64,
      "hit": false,
      "t": 126863.8447916676,
      "d": 339.91177083333605,
      "v": 89
    },
    {
      "midi": 61,
      "hit": false,
      "t": 126869.32723958427,
      "d": 331.68809895832965,
      "v": 80
    },
    {
      "midi": 66,
      "hit": false,
      "t": 127179.08554687593,
      "d": 287.8285156250058,
      "v": 87
    },
    {
      "midi": 63,
      "hit": false,
      "t": 127181.82677083426,
      "d": 296.0521874999977,
      "v": 82
    },
    {
      "midi": 35,
      "hit": false,
      "t": 127527.22098958425,
      "d": 781.2488281249971,
      "v": 91
    },
    {
      "midi": 47,
      "hit": false,
      "t": 127527.22098958425,
      "d": 781.2488281249971,
      "v": 91
    },
    {
      "midi": 67,
      "hit": false,
      "t": 127532.70343750092,
      "d": 153.50854166666977,
      "v": 102
    },
    {
      "midi": 64,
      "hit": false,
      "t": 127540.92710937593,
      "d": 145.28486979166337,
      "v": 93
    },
    {
      "midi": 64,
      "hit": false,
      "t": 127845.20296875092,
      "d": 71.27182291666395,
      "v": 100
    },
    {
      "midi": 67,
      "hit": false,
      "t": 127847.94419270926,
      "d": 98.68406249998952,
      "v": 105
    },
    {
      "midi": 65,
      "hit": false,
      "t": 128157.70250000092,
      "d": 367.3240104166762,
      "v": 93
    },
    {
      "midi": 68,
      "hit": false,
      "t": 128163.18494791759,
      "d": 372.80645833333256,
      "v": 105
    },
    {
      "midi": 69,
      "hit": false,
      "t": 128486.64937500092,
      "d": 109.6489583333314,
      "v": 102
    },
    {
      "midi": 66,
      "hit": false,
      "t": 128492.1318229176,
      "d": 126.09630208332965,
      "v": 95
    },
    {
      "midi": 35,
      "hit": false,
      "t": 128505.83794270926,
      "d": 729.1655729166814,
      "v": 100
    },
    {
      "midi": 47,
      "hit": false,
      "t": 128505.83794270926,
      "d": 729.1655729166814,
      "v": 100
    },
    {
      "midi": 64,
      "hit": false,
      "t": 128823.81992187593,
      "d": 263.1575000000157,
      "v": 87
    },
    {
      "midi": 61,
      "hit": false,
      "t": 128829.3023697926,
      "d": 175.43833333333896,
      "v": 89
    },
    {
      "midi": 66,
      "hit": false,
      "t": 129147.28434895928,
      "d": 164.4734374999971,
      "v": 110
    },
    {
      "midi": 63,
      "hit": false,
      "t": 129150.02557291761,
      "d": 142.5436458333279,
      "v": 107
    },
    {
      "midi": 67,
      "hit": false,
      "t": 129487.19611979261,
      "d": 515.3501041666605,
      "v": 113
    },
    {
      "midi": 64,
      "hit": false,
      "t": 129489.93734375095,
      "d": 476.972968749993,
      "v": 113
    },
    {
      "midi": 35,
      "hit": false,
      "t": 129500.90223958428,
      "d": 487.9378645833349,
      "v": 102
    },
    {
      "midi": 47,
      "hit": false,
      "t": 129500.90223958428,
      "d": 487.9378645833349,
      "v": 102
    },
    {
      "midi": 35,
      "hit": false,
      "t": 133168.65989583428,
      "d": 205.5917968749709,
      "v": 105
    },
    {
      "midi": 47,
      "hit": false,
      "t": 133168.65989583428,
      "d": 205.5917968749709,
      "v": 105
    },
    {
      "midi": 71,
      "hit": false,
      "t": 133168.65989583428,
      "d": 227.52158854162553,
      "v": 102
    },
    {
      "midi": 69,
      "hit": false,
      "t": 133171.4011197926,
      "d": 230.26281249997555,
      "v": 107
    },
    {
      "midi": 78,
      "hit": false,
      "t": 133174.14234375092,
      "d": 200.10934895832906,
      "v": 105
    },
    {
      "midi": 75,
      "hit": false,
      "t": 133174.14234375092,
      "d": 235.7452604166465,
      "v": 102
    },
    {
      "midi": 40,
      "hit": false,
      "t": 133651.11531250092,
      "d": 526.3149999999732,
      "v": 102
    },
    {
      "midi": 52,
      "hit": false,
      "t": 133651.11531250092,
      "d": 531.7974479166442,
      "v": 119
    },
    {
      "midi": 76,
      "hit": false,
      "t": 133651.11531250092,
      "d": 583.8807031250035,
      "v": 100
    },
    {
      "midi": 71,
      "hit": false,
      "t": 133653.85653645924,
      "d": 564.6921354166698,
      "v": 91
    },
    {
      "midi": 67,
      "hit": false,
      "t": 133656.59776041756,
      "d": 542.7623437500151,
      "v": 100
    }
  ]
}