{
  "jsonPath": "Soul/Soul/Stevie Wonder/for-once-in-my-life.json",
  "path": "Soul\\Soul\\Stevie Wonder\\For Once In My Life.mid",
  "name": "For Once In My Life",
  "difficulty": "Advanced",
  "bpm": 200,
  "notes": [
    {
      "midi": 53,
      "hit": false,
      "t": 20186.244000000002,
      "d": 981.2757499999934,
      "v": 103
    },
    {
      "midi": 57,
      "hit": false,
      "t": 20186.244000000002,
      "d": 981.2757499999934,
      "v": 102
    },
    {
      "midi": 60,
      "hit": false,
      "t": 20186.244000000002,
      "d": 981.2757499999934,
      "v": 103
    },
    {
      "midi": 68,
      "hit": false,
      "t": 20466.608500000002,
      "d": 70.09112499999901,
      "v": 101
    },
    {
      "midi": 72,
      "hit": false,
      "t": 20466.608500000002,
      "d": 140.18224999999802,
      "v": 117
    },
    {
      "midi": 69,
      "hit": false,
      "t": 20536.699625,
      "d": 70.09112499999901,
      "v": 119
    },
    {
      "midi": 68,
      "hit": false,
      "t": 20887.15525,
      "d": 70.09112499999901,
      "v": 103
    },
    {
      "midi": 72,
      "hit": false,
      "t": 20887.15525,
      "d": 70.09112499999901,
      "v": 101
    },
    {
      "midi": 68,
      "hit": false,
      "t": 21027.337499999998,
      "d": 70.09112499999901,
      "v": 103
    },
    {
      "midi": 69,
      "hit": false,
      "t": 21027.337499999998,
      "d": 70.09112499999901,
      "v": 117
    },
    {
      "midi": 65,
      "hit": false,
      "t": 21167.519749999996,
      "d": 70.09112499999901,
      "v": 119
    },
    {
      "midi": 68,
      "hit": false,
      "t": 21307.701999999994,
      "d": 70.09112499999901,
      "v": 102
    },
    {
      "midi": 69,
      "hit": false,
      "t": 21307.701999999994,
      "d": 70.09112499999901,
      "v": 108
    },
    {
      "midi": 53,
      "hit": false,
      "t": 21307.701999999994,
      "d": 981.2757499999934,
      "v": 111
    },
    {
      "midi": 57,
      "hit": false,
      "t": 21307.701999999994,
      "d": 981.2757499999934,
      "v": 105
    },
    {
      "midi": 61,
      "hit": false,
      "t": 21307.701999999994,
      "d": 1051.3668749999924,
      "v": 117
    },
    {
      "midi": 68,
      "hit": false,
      "t": 21728.24874999999,
      "d": 70.09112499999901,
      "v": 101
    },
    {
      "midi": 69,
      "hit": false,
      "t": 21728.24874999999,
      "d": 70.09112499999901,
      "v": 105
    },
    {
      "midi": 65,
      "hit": false,
      "t": 22008.61324999999,
      "d": 70.09112499999901,
      "v": 112
    },
    {
      "midi": 68,
      "hit": false,
      "t": 22148.79549999999,
      "d": 70.09112499999901,
      "v": 108
    },
    {
      "midi": 69,
      "hit": false,
      "t": 22148.79549999999,
      "d": 70.09112499999901,
      "v": 116
    },
    {
      "midi": 68,
      "hit": false,
      "t": 22429.159999999985,
      "d": 70.09112499999901,
      "v": 103
    },
    {
      "midi": 69,
      "hit": false,
      "t": 22429.159999999985,
      "d": 350.4556249999987,
      "v": 119
    },
    {
      "midi": 53,
      "hit": false,
      "t": 22429.159999999985,
      "d": 981.2757499999971,
      "v": 110
    },
    {
      "midi": 57,
      "hit": false,
      "t": 22429.159999999985,
      "d": 981.2757499999971,
      "v": 117
    },
    {
      "midi": 62,
      "hit": false,
      "t": 22429.159999999985,
      "d": 1051.366874999996,
      "v": 111
    },
    {
      "midi": 65,
      "hit": false,
      "t": 22849.706749999983,
      "d": 70.09112499999901,
      "v": 116
    },
    {
      "midi": 68,
      "hit": false,
      "t": 22989.88899999998,
      "d": 70.09112499999901,
      "v": 112
    },
    {
      "midi": 69,
      "hit": false,
      "t": 23130.07124999998,
      "d": 140.18225000000166,
      "v": 108
    },
    {
      "midi": 74,
      "hit": false,
      "t": 23130.07124999998,
      "d": 140.18225000000166,
      "v": 108
    },
    {
      "midi": 66,
      "hit": false,
      "t": 23410.435749999982,
      "d": 560.7289999999994,
      "v": 114
    },
    {
      "midi": 69,
      "hit": false,
      "t": 23410.435749999982,
      "d": 560.7289999999994,
      "v": 101
    },
    {
      "midi": 75,
      "hit": false,
      "t": 23410.435749999982,
      "d": 560.7289999999994,
      "v": 104
    },
    {
      "midi": 54,
      "hit": false,
      "t": 23550.61799999998,
      "d": 981.2757499999971,
      "v": 109
    },
    {
      "midi": 57,
      "hit": false,
      "t": 23550.61799999998,
      "d": 981.2757499999971,
      "v": 115
    },
    {
      "midi": 63,
      "hit": false,
      "t": 23550.61799999998,
      "d": 981.2757499999971,
      "v": 109
    },
    {
      "midi": 66,
      "hit": false,
      "t": 24041.25587499998,
      "d": 70.09112499999901,
      "v": 101
    },
    {
      "midi": 69,
      "hit": false,
      "t": 24041.25587499998,
      "d": 70.09112499999901,
      "v": 103
    },
    {
      "midi": 75,
      "hit": false,
      "t": 24041.25587499998,
      "d": 70.09112499999901,
      "v": 103
    },
    {
      "midi": 66,
      "hit": false,
      "t": 24321.62037499998,
      "d": 70.09112499999901,
      "v": 106
    },
    {
      "midi": 69,
      "hit": false,
      "t": 24321.62037499998,
      "d": 140.18224999999802,
      "v": 115
    },
    {
      "midi": 75,
      "hit": false,
      "t": 24321.62037499998,
      "d": 140.18224999999802,
      "v": 114
    },
    {
      "midi": 65,
      "hit": false,
      "t": 24672.07599999998,
      "d": 420.54675000000134,
      "v": 113
    },
    {
      "midi": 67,
      "hit": false,
      "t": 24672.07599999998,
      "d": 420.54675000000134,
      "v": 116
    },
    {
      "midi": 70,
      "hit": false,
      "t": 24672.07599999998,
      "d": 420.54675000000134,
      "v": 106
    },
    {
      "midi": 74,
      "hit": false,
      "t": 24672.07599999998,
      "d": 420.54675000000134,
      "v": 104
    },
    {
      "midi": 58,
      "hit": false,
      "t": 24672.07599999998,
      "d": 1051.3668749999997,
      "v": 105
    },
    {
      "midi": 62,
      "hit": false,
      "t": 24672.07599999998,
      "d": 1051.3668749999997,
      "v": 110
    },
    {
      "midi": 55,
      "hit": false,
      "t": 24672.07599999998,
      "d": 1121.4579999999987,
      "v": 107
    },
    {
      "midi": 65,
      "hit": false,
      "t": 25232.804999999982,
      "d": 280.3644999999997,
      "v": 112
    },
    {
      "midi": 67,
      "hit": false,
      "t": 25232.804999999982,
      "d": 350.4556249999987,
      "v": 111
    },
    {
      "midi": 70,
      "hit": false,
      "t": 25232.804999999982,
      "d": 350.4556249999987,
      "v": 120
    },
    {
      "midi": 74,
      "hit": false,
      "t": 25232.804999999982,
      "d": 350.4556249999987,
      "v": 110
    },
    {
      "midi": 66,
      "hit": false,
      "t": 25653.35174999998,
      "d": 280.3644999999997,
      "v": 117
    },
    {
      "midi": 70,
      "hit": false,
      "t": 25653.35174999998,
      "d": 280.3644999999997,
      "v": 108
    },
    {
      "midi": 74,
      "hit": false,
      "t": 25653.35174999998,
      "d": 280.3644999999997,
      "v": 114
    },
    {
      "midi": 58,
      "hit": false,
      "t": 25793.533999999978,
      "d": 981.2757500000043,
      "v": 105
    },
    {
      "midi": 62,
      "hit": false,
      "t": 25793.533999999978,
      "d": 981.2757500000043,
      "v": 108
    },
    {
      "midi": 54,
      "hit": false,
      "t": 25793.533999999978,
      "d": 1051.3668750000033,
      "v": 107
    },
    {
      "midi": 66,
      "hit": false,
      "t": 26073.89849999998,
      "d": 210.27337500000067,
      "v": 113
    },
    {
      "midi": 70,
      "hit": false,
      "t": 26073.89849999998,
      "d": 210.27337500000067,
      "v": 111
    },
    {
      "midi": 74,
      "hit": false,
      "t": 26073.89849999998,
      "d": 280.3644999999997,
      "v": 115
    },
    {
      "midi": 66,
      "hit": false,
      "t": 26494.445249999982,
      "d": 210.27337500000067,
      "v": 115
    },
    {
      "midi": 70,
      "hit": false,
      "t": 26494.445249999982,
      "d": 210.27337500000067,
      "v": 112
    },
    {
      "midi": 74,
      "hit": false,
      "t": 26494.445249999982,
      "d": 280.3644999999997,
      "v": 110
    },
    {
      "midi": 65,
      "hit": false,
      "t": 26914.99199999998,
      "d": 140.18225000000166,
      "v": 106
    },
    {
      "midi": 67,
      "hit": false,
      "t": 26914.99199999998,
      "d": 140.18225000000166,
      "v": 109
    },
    {
      "midi": 70,
      "hit": false,
      "t": 26914.99199999998,
      "d": 140.18225000000166,
      "v": 101
    },
    {
      "midi": 74,
      "hit": false,
      "t": 26914.99199999998,
      "d": 140.18225000000166,
      "v": 110
    },
    {
      "midi": 53,
      "hit": false,
      "t": 26914.99199999998,
      "d": 981.2757499999971,
      "v": 109
    },
    {
      "midi": 62,
      "hit": false,
      "t": 26914.99199999998,
      "d": 981.2757499999971,
      "v": 105
    },
    {
      "midi": 58,
      "hit": false,
      "t": 26914.99199999998,
      "d": 1051.366874999996,
      "v": 117
    },
    {
      "midi": 65,
      "hit": false,
      "t": 27335.53874999998,
      "d": 70.09112499999901,
      "v": 119
    },
    {
      "midi": 73,
      "hit": false,
      "t": 27475.72099999998,
      "d": 70.09112499999901,
      "v": 101
    },
    {
      "midi": 74,
      "hit": false,
      "t": 27615.903249999978,
      "d": 70.09112499999901,
      "v": 103
    },
    {
      "midi": 65,
      "hit": false,
      "t": 27756.085499999976,
      "d": 140.18225000000166,
      "v": 116
    },
    {
      "midi": 77,
      "hit": false,
      "t": 27756.085499999976,
      "d": 140.18225000000166,
      "v": 102
    },
    {
      "midi": 73,
      "hit": false,
      "t": 27896.267749999977,
      "d": 70.09112499999901,
      "v": 106
    },
    {
      "midi": 73,
      "hit": false,
      "t": 28036.449999999975,
      "d": 70.09112499999901,
      "v": 107
    },
    {
      "midi": 74,
      "hit": false,
      "t": 28036.449999999975,
      "d": 70.09112499999901,
      "v": 119
    },
    {
      "midi": 54,
      "hit": false,
      "t": 28036.449999999975,
      "d": 981.2757500000007,
      "v": 115
    },
    {
      "midi": 58,
      "hit": false,
      "t": 28036.449999999975,
      "d": 981.2757500000007,
      "v": 116
    },
    {
      "midi": 62,
      "hit": false,
      "t": 28036.449999999975,
      "d": 981.2757500000007,
      "v": 114
    },
    {
      "midi": 77,
      "hit": false,
      "t": 28106.541124999974,
      "d": 70.09112499999901,
      "v": 104
    },
    {
      "midi": 70,
      "hit": false,
      "t": 28176.632249999973,
      "d": 70.09112499999901,
      "v": 120
    },
    {
      "midi": 74,
      "hit": false,
      "t": 28176.632249999973,
      "d": 70.09112499999901,
      "v": 120
    },
    {
      "midi": 65,
      "hit": false,
      "t": 28246.723374999972,
      "d": 140.18225000000166,
      "v": 107
    },
    {
      "midi": 66,
      "hit": false,
      "t": 28737.361249999973,
      "d": 140.18225000000166,
      "v": 112
    },
    {
      "midi": 70,
      "hit": false,
      "t": 28737.361249999973,
      "d": 140.18225000000166,
      "v": 120
    },
    {
      "midi": 74,
      "hit": false,
      "t": 28737.361249999973,
      "d": 140.18225000000166,
      "v": 103
    },
    {
      "midi": 78,
      "hit": false,
      "t": 28737.361249999973,
      "d": 140.18225000000166,
      "v": 118
    },
    {
      "midi": 67,
      "hit": false,
      "t": 29087.816874999975,
      "d": 490.63787500000035,
      "v": 108
    },
    {
      "midi": 70,
      "hit": false,
      "t": 29087.816874999975,
      "d": 490.63787500000035,
      "v": 111
    },
    {
      "midi": 74,
      "hit": false,
      "t": 29087.816874999975,
      "d": 490.63787500000035,
      "v": 116
    },
    {
      "midi": 79,
      "hit": false,
      "t": 29087.816874999975,
      "d": 490.63787500000035,
      "v": 108
    },
    {
      "midi": 62,
      "hit": false,
      "t": 29157.907999999974,
      "d": 981.2757500000007,
      "v": 106
    },
    {
      "midi": 55,
      "hit": false,
      "t": 29157.907999999974,
      "d": 1051.3668749999997,
      "v": 112
    },
    {
      "midi": 58,
      "hit": false,
      "t": 29157.907999999974,
      "d": 1051.3668749999997,
      "v": 103
    },
    {
      "midi": 67,
      "hit": false,
      "t": 29718.636999999977,
      "d": 280.3644999999997,
      "v": 101
    },
    {
      "midi": 79,
      "hit": false,
      "t": 29718.636999999977,
      "d": 280.3644999999997,
      "v": 118
    },
    {
      "midi": 70,
      "hit": false,
      "t": 29718.636999999977,
      "d": 350.4556249999987,
      "v": 113
    },
    {
      "midi": 74,
      "hit": false,
      "t": 29718.636999999977,
      "d": 350.4556249999987,
      "v": 116
    },
    {
      "midi": 66,
      "hit": false,
      "t": 30139.183749999975,
      "d": 280.3644999999997,
      "v": 111
    },
    {
      "midi": 70,
      "hit": false,
      "t": 30139.183749999975,
      "d": 280.3644999999997,
      "v": 112
    },
    {
      "midi": 74,
      "hit": false,
      "t": 30139.183749999975,
      "d": 1121.4579999999987,
      "v": 103
    },
    {
      "midi": 78,
      "hit": false,
      "t": 30139.183749999975,
      "d": 1121.4579999999987,
      "v": 117
    },
    {
      "midi": 62,
      "hit": false,
      "t": 30279.365999999973,
      "d": 981.2757500000007,
      "v": 111
    },
    {
      "midi": 54,
      "hit": false,
      "t": 30279.365999999973,
      "d": 1051.3668749999997,
      "v": 117
    },
    {
      "midi": 58,
      "hit": false,
      "t": 30279.365999999973,
      "d": 1051.3668749999997,
      "v": 117
    },
    {
      "midi": 66,
      "hit": false,
      "t": 30559.730499999976,
      "d": 280.3644999999997,
      "v": 109
    },
    {
      "midi": 70,
      "hit": false,
      "t": 30559.730499999976,
      "d": 280.3644999999997,
      "v": 105
    },
    {
      "midi": 66,
      "hit": false,
      "t": 31120.459499999975,
      "d": 70.09112499999901,
      "v": 119
    },
    {
      "midi": 70,
      "hit": false,
      "t": 31120.459499999975,
      "d": 140.18224999999802,
      "v": 119
    },
    {
      "midi": 73,
      "hit": false,
      "t": 31330.732874999972,
      "d": 70.09112499999901,
      "v": 104
    },
    {
      "midi": 65,
      "hit": false,
      "t": 31400.82399999997,
      "d": 420.54675000000134,
      "v": 117
    },
    {
      "midi": 74,
      "hit": false,
      "t": 31400.82399999997,
      "d": 490.63787500000035,
      "v": 105
    },
    {
      "midi": 77,
      "hit": false,
      "t": 31400.82399999997,
      "d": 630.8201249999984,
      "v": 112
    },
    {
      "midi": 53,
      "hit": false,
      "t": 31400.82399999997,
      "d": 981.2757499999971,
      "v": 111
    },
    {
      "midi": 58,
      "hit": false,
      "t": 31400.82399999997,
      "d": 1051.366874999996,
      "v": 110
    },
    {
      "midi": 62,
      "hit": false,
      "t": 31400.82399999997,
      "d": 1051.366874999996,
      "v": 109
    },
    {
      "midi": 73,
      "hit": false,
      "t": 31961.55299999997,
      "d": 70.09112499999901,
      "v": 109
    },
    {
      "midi": 74,
      "hit": false,
      "t": 32101.73524999997,
      "d": 70.09112499999901,
      "v": 118
    },
    {
      "midi": 73,
      "hit": false,
      "t": 32171.826374999968,
      "d": 70.09112499999901,
      "v": 108
    },
    {
      "midi": 70,
      "hit": false,
      "t": 32241.917499999967,
      "d": 140.18225000000166,
      "v": 111
    },
    {
      "midi": 65,
      "hit": false,
      "t": 32382.09974999997,
      "d": 70.09112499999901,
      "v": 117
    },
    {
      "midi": 60,
      "hit": false,
      "t": 32522.281999999967,
      "d": 841.0934999999918,
      "v": 112
    },
    {
      "midi": 52,
      "hit": false,
      "t": 32522.281999999967,
      "d": 911.1846249999908,
      "v": 119
    },
    {
      "midi": 58,
      "hit": false,
      "t": 32522.281999999967,
      "d": 1051.3668749999888,
      "v": 118
    },
    {
      "midi": 63,
      "hit": false,
      "t": 32662.464249999968,
      "d": 70.09112499999901,
      "v": 117
    },
    {
      "midi": 64,
      "hit": false,
      "t": 32662.464249999968,
      "d": 210.27337499999703,
      "v": 118
    },
    {
      "midi": 67,
      "hit": false,
      "t": 32662.464249999968,
      "d": 280.36449999999604,
      "v": 119
    },
    {
      "midi": 63,
      "hit": false,
      "t": 33012.91987499996,
      "d": 70.09112499999901,
      "v": 116
    },
    {
      "midi": 64,
      "hit": false,
      "t": 33083.01099999996,
      "d": 210.27337499999703,
      "v": 120
    },
    {
      "midi": 67,
      "hit": false,
      "t": 33083.01099999996,
      "d": 420.54674999999406,
      "v": 105
    },
    {
      "midi": 60,
      "hit": false,
      "t": 33363.37549999996,
      "d": 140.18224999999802,
      "v": 116
    },
    {
      "midi": 57,
      "hit": false,
      "t": 33503.557749999956,
      "d": 70.09112499999901,
      "v": 109
    },
    {
      "midi": 68,
      "hit": false,
      "t": 33643.739999999954,
      "d": 70.09112499999901,
      "v": 105
    },
    {
      "midi": 60,
      "hit": false,
      "t": 33643.739999999954,
      "d": 350.4556250000023,
      "v": 118
    },
    {
      "midi": 69,
      "hit": false,
      "t": 33643.739999999954,
      "d": 350.4556250000023,
      "v": 116
    },
    {
      "midi": 53,
      "hit": false,
      "t": 33643.739999999954,
      "d": 1051.3668749999924,
      "v": 118
    },
    {
      "midi": 57,
      "hit": false,
      "t": 33643.739999999954,
      "d": 1051.3668749999924,
      "v": 113
    },
    {
      "midi": 68,
      "hit": false,
      "t": 34204.468999999954,
      "d": 70.09112499999901,
      "v": 115
    },
    {
      "midi": 60,
      "hit": false,
      "t": 34204.468999999954,
      "d": 210.27337499999703,
      "v": 108
    },
    {
      "midi": 69,
      "hit": false,
      "t": 34204.468999999954,
      "d": 210.27337499999703,
      "v": 110
    },
    {
      "midi": 64,
      "hit": false,
      "t": 34625.01574999995,
      "d": 140.18224999999802,
      "v": 105
    },
    {
      "midi": 68,
      "hit": false,
      "t": 34625.01574999995,
      "d": 140.18224999999802,
      "v": 118
    },
    {
      "midi": 72,
      "hit": false,
      "t": 34625.01574999995,
      "d": 210.27337499999703,
      "v": 104
    },
    {
      "midi": 76,
      "hit": false,
      "t": 34625.01574999995,
      "d": 210.27337499999703,
      "v": 109
    },
    {
      "midi": 52,
      "hit": false,
      "t": 34765.197999999946,
      "d": 1051.3668749999997,
      "v": 118
    },
    {
      "midi": 60,
      "hit": false,
      "t": 34765.197999999946,
      "d": 1051.3668749999997,
      "v": 108
    },
    {
      "midi": 56,
      "hit": false,
      "t": 34765.197999999946,
      "d": 1121.4579999999987,
      "v": 120
    },
    {
      "midi": 64,
      "hit": false,
      "t": 34975.47137499994,
      "d": 350.4556250000023,
      "v": 104
    },
    {
      "midi": 68,
      "hit": false,
      "t": 34975.47137499994,
      "d": 350.4556250000023,
      "v": 110
    },
    {
      "midi": 72,
      "hit": false,
      "t": 34975.47137499994,
      "d": 350.4556250000023,
      "v": 105
    },
    {
      "midi": 76,
      "hit": false,
      "t": 34975.47137499994,
      "d": 350.4556250000023,
      "v": 106
    },
    {
      "midi": 64,
      "hit": false,
      "t": 35606.29149999995,
      "d": 70.09112499999901,
      "v": 119
    },
    {
      "midi": 68,
      "hit": false,
      "t": 35606.29149999995,
      "d": 70.09112499999901,
      "v": 116
    },
    {
      "midi": 72,
      "hit": false,
      "t": 35606.29149999995,
      "d": 70.09112499999901,
      "v": 108
    },
    {
      "midi": 76,
      "hit": false,
      "t": 35606.29149999995,
      "d": 70.09112499999901,
      "v": 114
    },
    {
      "midi": 65,
      "hit": false,
      "t": 35746.47374999995,
      "d": 70.09112499999901,
      "v": 117
    },
    {
      "midi": 68,
      "hit": false,
      "t": 35886.655999999944,
      "d": 70.09112499999901,
      "v": 119
    },
    {
      "midi": 69,
      "hit": false,
      "t": 35886.655999999944,
      "d": 490.63787500000035,
      "v": 119
    },
    {
      "midi": 53,
      "hit": false,
      "t": 35886.655999999944,
      "d": 2172.8248749999766,
      "v": 114
    },
    {
      "midi": 57,
      "hit": false,
      "t": 35886.655999999944,
      "d": 2172.8248749999766,
      "v": 111
    },
    {
      "midi": 60,
      "hit": false,
      "t": 35886.655999999944,
      "d": 2172.8248749999766,
      "v": 103
    },
    {
      "midi": 65,
      "hit": false,
      "t": 36307.202749999946,
      "d": 140.18224999999802,
      "v": 108
    },
    {
      "midi": 68,
      "hit": false,
      "t": 36447.384999999944,
      "d": 70.09112499999901,
      "v": 116
    },
    {
      "midi": 72,
      "hit": false,
      "t": 36447.384999999944,
      "d": 70.09112499999901,
      "v": 104
    },
    {
      "midi": 69,
      "hit": false,
      "t": 36587.56724999994,
      "d": 70.09112499999901,
      "v": 113
    },
    {
      "midi": 72,
      "hit": false,
      "t": 36587.56724999994,
      "d": 70.09112499999901,
      "v": 117
    },
    {
      "midi": 69,
      "hit": false,
      "t": 36727.74949999994,
      "d": 70.09112499999901,
      "v": 101
    },
    {
      "midi": 72,
      "hit": false,
      "t": 36727.74949999994,
      "d": 70.09112499999901,
      "v": 119
    },
    {
      "midi": 69,
      "hit": false,
      "t": 36867.93174999994,
      "d": 70.09112499999901,
      "v": 107
    },
    {
      "midi": 72,
      "hit": false,
      "t": 36867.93174999994,
      "d": 70.09112499999901,
      "v": 120
    },
    {
      "midi": 68,
      "hit": false,
      "t": 37008.113999999936,
      "d": 140.18224999999802,
      "v": 118
    },
    {
      "midi": 72,
      "hit": false,
      "t": 37008.113999999936,
      "d": 350.45562499999505,
      "v": 110
    },
    {
      "midi": 69,
      "hit": false,
      "t": 37148.296249999934,
      "d": 140.18224999999802,
      "v": 102
    },
    {
      "midi": 69,
      "hit": false,
      "t": 37428.66074999993,
      "d": 70.09112499999901,
      "v": 120
    },
    {
      "midi": 72,
      "hit": false,
      "t": 37428.66074999993,
      "d": 70.09112499999901,
      "v": 115
    },
    {
      "midi": 68,
      "hit": false,
      "t": 37498.75187499993,
      "d": 70.09112499999901,
      "v": 117
    },
    {
      "midi": 72,
      "hit": false,
      "t": 37498.75187499993,
      "d": 490.6378749999931,
      "v": 101
    },
    {
      "midi": 69,
      "hit": false,
      "t": 37568.84299999993,
      "d": 70.09112499999901,
      "v": 101
    },
    {
      "midi": 68,
      "hit": false,
      "t": 37638.93412499993,
      "d": 70.09112499999901,
      "v": 109
    },
    {
      "midi": 65,
      "hit": false,
      "t": 37709.025249999926,
      "d": 70.09112499999901,
      "v": 120
    },
    {
      "midi": 67,
      "hit": false,
      "t": 37849.207499999924,
      "d": 140.18224999999802,
      "v": 120
    },
    {
      "midi": 68,
      "hit": false,
      "t": 38129.57199999992,
      "d": 70.09112499999901,
      "v": 108
    },
    {
      "midi": 60,
      "hit": false,
      "t": 38129.57199999992,
      "d": 280.36449999999604,
      "v": 114
    },
    {
      "midi": 53,
      "hit": false,
      "t": 38129.57199999992,
      "d": 2102.7337499999703,
      "v": 102
    },
    {
      "midi": 57,
      "hit": false,
      "t": 38129.57199999992,
      "d": 2102.7337499999703,
      "v": 118
    },
    {
      "midi": 69,
      "hit": false,
      "t": 38199.66312499992,
      "d": 280.36449999999604,
      "v": 119
    },
    {
      "midi": 68,
      "hit": false,
      "t": 38550.118749999914,
      "d": 70.09112499999901,
      "v": 105
    },
    {
      "midi": 69,
      "hit": false,
      "t": 38550.118749999914,
      "d": 140.18224999999802,
      "v": 118
    },
    {
      "midi": 65,
      "hit": false,
      "t": 38830.48324999991,
      "d": 140.18224999999802,
      "v": 102
    },
    {
      "midi": 60,
      "hit": false,
      "t": 39110.847749999906,
      "d": 70.09112499999901,
      "v": 116
    },
    {
      "midi": 65,
      "hit": false,
      "t": 39251.029999999904,
      "d": 140.18224999999802,
      "v": 115
    },
    {
      "midi": 68,
      "hit": false,
      "t": 39531.3944999999,
      "d": 140.18224999999802,
      "v": 119
    },
    {
      "midi": 60,
      "hit": false,
      "t": 39531.3944999999,
      "d": 210.27337499999703,
      "v": 115
    },
    {
      "midi": 69,
      "hit": false,
      "t": 39671.5767499999,
      "d": 70.09112499999901,
      "v": 115
    },
    {
      "midi": 68,
      "hit": false,
      "t": 39951.941249999894,
      "d": 140.18224999999802,
      "v": 110
    },
    {
      "midi": 60,
      "hit": false,
      "t": 39951.941249999894,
      "d": 210.27337499999703,
      "v": 103
    },
    {
      "midi": 69,
      "hit": false,
      "t": 40092.12349999989,
      "d": 70.09112499999901,
      "v": 110
    },
    {
      "midi": 61,
      "hit": false,
      "t": 40372.48799999989,
      "d": 911.1846249999944,
      "v": 110
    },
    {
      "midi": 53,
      "hit": false,
      "t": 40372.48799999989,
      "d": 1962.5514999999868,
      "v": 114
    },
    {
      "midi": 57,
      "hit": false,
      "t": 40372.48799999989,
      "d": 2032.6426249999859,
      "v": 120
    },
    {
      "midi": 68,
      "hit": false,
      "t": 40793.03474999989,
      "d": 70.09112499999901,
      "v": 105
    },
    {
      "midi": 69,
      "hit": false,
      "t": 40793.03474999989,
      "d": 140.18224999999802,
      "v": 106
    },
    {
      "midi": 73,
      "hit": false,
      "t": 40793.03474999989,
      "d": 140.18224999999802,
      "v": 107
    },
    {
      "midi": 65,
      "hit": false,
      "t": 41073.399249999886,
      "d": 70.09112499999901,
      "v": 107
    },
    {
      "midi": 69,
      "hit": false,
      "t": 41143.490374999885,
      "d": 70.09112499999901,
      "v": 104
    },
    {
      "midi": 73,
      "hit": false,
      "t": 41143.490374999885,
      "d": 70.09112499999901,
      "v": 119
    },
    {
      "midi": 65,
      "hit": false,
      "t": 41213.581499999884,
      "d": 70.09112499999901,
      "v": 105
    },
    {
      "midi": 61,
      "hit": false,
      "t": 41283.67262499988,
      "d": 140.18224999999802,
      "v": 112
    },
    {
      "midi": 65,
      "hit": false,
      "t": 41564.03712499988,
      "d": 210.27337499999703,
      "v": 105
    },
    {
      "midi": 68,
      "hit": false,
      "t": 41914.492749999874,
      "d": 70.09112499999901,
      "v": 115
    },
    {
      "midi": 69,
      "hit": false,
      "t": 41914.492749999874,
      "d": 140.18224999999802,
      "v": 116
    },
    {
      "midi": 73,
      "hit": false,
      "t": 41914.492749999874,
      "d": 140.18224999999802,
      "v": 108
    },
    {
      "midi": 68,
      "hit": false,
      "t": 42335.039499999875,
      "d": 70.09112499999901,
      "v": 112
    },
    {
      "midi": 69,
      "hit": false,
      "t": 42335.039499999875,
      "d": 140.18224999999802,
      "v": 117
    },
    {
      "midi": 73,
      "hit": false,
      "t": 42335.039499999875,
      "d": 140.18224999999802,
      "v": 118
    },
    {
      "midi": 62,
      "hit": false,
      "t": 42615.40399999987,
      "d": 560.7289999999994,
      "v": 101
    },
    {
      "midi": 65,
      "hit": false,
      "t": 42615.40399999987,
      "d": 560.7289999999994,
      "v": 101
    },
    {
      "midi": 69,
      "hit": false,
      "t": 42615.40399999987,
      "d": 560.7289999999994,
      "v": 115
    },
    {
      "midi": 74,
      "hit": false,
      "t": 42615.40399999987,
      "d": 630.8201249999984,
      "v": 119
    },
    {
      "midi": 57,
      "hit": false,
      "t": 42615.40399999987,
      "d": 2032.6426249999931,
      "v": 101
    },
    {
      "midi": 65,
      "hit": false,
      "t": 43386.40637499987,
      "d": 140.18224999999802,
      "v": 106
    },
    {
      "midi": 74,
      "hit": false,
      "t": 43386.40637499987,
      "d": 140.18224999999802,
      "v": 118
    },
    {
      "midi": 77,
      "hit": false,
      "t": 43386.40637499987,
      "d": 140.18224999999802,
      "v": 117
    },
    {
      "midi": 73,
      "hit": false,
      "t": 43806.95312499987,
      "d": 70.09112499999901,
      "v": 119
    },
    {
      "midi": 65,
      "hit": false,
      "t": 43806.95312499987,
      "d": 140.18224999999802,
      "v": 114
    },
    {
      "midi": 74,
      "hit": false,
      "t": 43806.95312499987,
      "d": 210.27337499999703,
      "v": 107
    },
    {
      "midi": 77,
      "hit": false,
      "t": 43806.95312499987,
      "d": 210.27337499999703,
      "v": 101
    },
    {
      "midi": 69,
      "hit": false,
      "t": 44297.59099999987,
      "d": 140.18224999999802,
      "v": 120
    },
    {
      "midi": 70,
      "hit": false,
      "t": 44437.77324999987,
      "d": 140.18224999999802,
      "v": 112
    },
    {
      "midi": 74,
      "hit": false,
      "t": 44577.955499999865,
      "d": 140.18224999999802,
      "v": 107
    },
    {
      "midi": 77,
      "hit": false,
      "t": 44718.13774999986,
      "d": 70.09112499999901,
      "v": 112
    },
    {
      "midi": 62,
      "hit": false,
      "t": 44788.22887499986,
      "d": 280.3645000000033,
      "v": 117
    },
    {
      "midi": 77,
      "hit": false,
      "t": 44788.22887499986,
      "d": 280.3645000000033,
      "v": 118
    },
    {
      "midi": 67,
      "hit": false,
      "t": 44788.22887499986,
      "d": 350.4556250000023,
      "v": 104
    },
    {
      "midi": 70,
      "hit": false,
      "t": 44788.22887499986,
      "d": 350.4556250000023,
      "v": 107
    },
    {
      "midi": 55,
      "hit": false,
      "t": 44788.22887499986,
      "d": 1471.9136249999938,
      "v": 117
    },
    {
      "midi": 58,
      "hit": false,
      "t": 44788.22887499986,
      "d": 1542.0047499999928,
      "v": 104
    },
    {
      "midi": 65,
      "hit": false,
      "t": 45419.04899999987,
      "d": 210.27337499999703,
      "v": 116
    },
    {
      "midi": 67,
      "hit": false,
      "t": 45419.04899999987,
      "d": 210.27337499999703,
      "v": 101
    },
    {
      "midi": 70,
      "hit": false,
      "t": 45419.04899999987,
      "d": 280.36449999999604,
      "v": 118
    },
    {
      "midi": 74,
      "hit": false,
      "t": 45419.04899999987,
      "d": 280.36449999999604,
      "v": 108
    },
    {
      "midi": 65,
      "hit": false,
      "t": 45839.59574999986,
      "d": 140.18224999999802,
      "v": 110
    },
    {
      "midi": 67,
      "hit": false,
      "t": 45839.59574999986,
      "d": 140.18224999999802,
      "v": 120
    },
    {
      "midi": 70,
      "hit": false,
      "t": 45839.59574999986,
      "d": 140.18224999999802,
      "v": 102
    },
    {
      "midi": 74,
      "hit": false,
      "t": 45839.59574999986,
      "d": 140.18224999999802,
      "v": 108
    },
    {
      "midi": 70,
      "hit": false,
      "t": 46119.96024999986,
      "d": 70.09112499999901,
      "v": 109
    },
    {
      "midi": 67,
      "hit": false,
      "t": 46190.05137499986,
      "d": 70.09112499999901,
      "v": 119
    },
    {
      "midi": 65,
      "hit": false,
      "t": 46260.142499999856,
      "d": 70.09112499999901,
      "v": 113
    },
    {
      "midi": 70,
      "hit": false,
      "t": 46540.50699999985,
      "d": 140.18224999999802,
      "v": 119
    },
    {
      "midi": 53,
      "hit": false,
      "t": 46540.50699999985,
      "d": 350.45562499999505,
      "v": 113
    },
    {
      "midi": 65,
      "hit": false,
      "t": 46540.50699999985,
      "d": 350.45562499999505,
      "v": 102
    },
    {
      "midi": 58,
      "hit": false,
      "t": 46540.50699999985,
      "d": 420.54674999999406,
      "v": 119
    },
    {
      "midi": 62,
      "hit": false,
      "t": 46540.50699999985,
      "d": 420.54674999999406,
      "v": 106
    },
    {
      "midi": 60,
      "hit": false,
      "t": 47101.235999999844,
      "d": 1682.1869999999835,
      "v": 113
    },
    {
      "midi": 52,
      "hit": false,
      "t": 47101.235999999844,
      "d": 2032.6426249999786,
      "v": 103
    },
    {
      "midi": 57,
      "hit": false,
      "t": 47101.235999999844,
      "d": 2102.7337499999776,
      "v": 109
    },
    {
      "midi": 64,
      "hit": false,
      "t": 47101.235999999844,
      "d": 2102.7337499999776,
      "v": 107
    },
    {
      "midi": 65,
      "hit": false,
      "t": 47521.782749999846,
      "d": 70.09112499999901,
      "v": 101
    },
    {
      "midi": 68,
      "hit": false,
      "t": 47661.964999999844,
      "d": 70.09112499999901,
      "v": 109
    },
    {
      "midi": 72,
      "hit": false,
      "t": 47661.964999999844,
      "d": 70.09112499999901,
      "v": 120
    },
    {
      "midi": 69,
      "hit": false,
      "t": 47802.14724999984,
      "d": 70.09112499999901,
      "v": 113
    },
    {
      "midi": 72,
      "hit": false,
      "t": 47802.14724999984,
      "d": 70.09112499999901,
      "v": 117
    },
    {
      "midi": 69,
      "hit": false,
      "t": 47942.32949999984,
      "d": 70.09112499999901,
      "v": 119
    },
    {
      "midi": 72,
      "hit": false,
      "t": 47942.32949999984,
      "d": 70.09112499999901,
      "v": 108
    },
    {
      "midi": 69,
      "hit": false,
      "t": 48082.51174999984,
      "d": 70.09112499999901,
      "v": 114
    },
    {
      "midi": 72,
      "hit": false,
      "t": 48082.51174999984,
      "d": 70.09112499999901,
      "v": 111
    },
    {
      "midi": 68,
      "hit": false,
      "t": 48222.693999999836,
      "d": 70.09112499999901,
      "v": 106
    },
    {
      "midi": 72,
      "hit": false,
      "t": 48222.693999999836,
      "d": 70.09112499999901,
      "v": 108
    },
    {
      "midi": 67,
      "hit": false,
      "t": 48222.693999999836,
      "d": 841.0934999999881,
      "v": 117
    },
    {
      "midi": 72,
      "hit": false,
      "t": 48362.876249999834,
      "d": 70.09112499999901,
      "v": 111
    },
    {
      "midi": 69,
      "hit": false,
      "t": 48362.876249999834,
      "d": 140.18224999999802,
      "v": 105
    },
    {
      "midi": 68,
      "hit": false,
      "t": 48643.24074999983,
      "d": 70.09112499999901,
      "v": 119
    },
    {
      "midi": 69,
      "hit": false,
      "t": 48643.24074999983,
      "d": 70.09112499999901,
      "v": 119
    },
    {
      "midi": 72,
      "hit": false,
      "t": 48643.24074999983,
      "d": 140.18224999999802,
      "v": 103
    },
    {
      "midi": 65,
      "hit": false,
      "t": 48713.33187499983,
      "d": 70.09112499999901,
      "v": 102
    },
    {
      "midi": 68,
      "hit": false,
      "t": 48713.33187499983,
      "d": 70.09112499999901,
      "v": 115
    },
    {
      "midi": 60,
      "hit": false,
      "t": 48783.42299999983,
      "d": 70.09112499999901,
      "v": 118
    },
    {
      "midi": 65,
      "hit": false,
      "t": 48923.605249999826,
      "d": 140.18224999999802,
      "v": 110
    },
    {
      "midi": 67,
      "hit": false,
      "t": 49063.787499999824,
      "d": 140.18224999999802,
      "v": 115
    },
    {
      "midi": 65,
      "hit": false,
      "t": 49344.15199999982,
      "d": 70.09112499999901,
      "v": 102
    },
    {
      "midi": 68,
      "hit": false,
      "t": 49344.15199999982,
      "d": 70.09112499999901,
      "v": 115
    },
    {
      "midi": 69,
      "hit": false,
      "t": 49344.15199999982,
      "d": 70.09112499999901,
      "v": 101
    },
    {
      "midi": 74,
      "hit": false,
      "t": 49344.15199999982,
      "d": 140.18224999999802,
      "v": 112
    },
    {
      "midi": 62,
      "hit": false,
      "t": 49344.15199999982,
      "d": 1401.8224999999875,
      "v": 116
    },
    {
      "midi": 53,
      "hit": false,
      "t": 49344.15199999982,
      "d": 2032.6426249999859,
      "v": 114
    },
    {
      "midi": 57,
      "hit": false,
      "t": 49344.15199999982,
      "d": 2032.6426249999859,
      "v": 120
    },
    {
      "midi": 68,
      "hit": false,
      "t": 49624.516499999816,
      "d": 70.09112499999901,
      "v": 106
    },
    {
      "midi": 65,
      "hit": false,
      "t": 49624.516499999816,
      "d": 140.18224999999802,
      "v": 105
    },
    {
      "midi": 69,
      "hit": false,
      "t": 49624.516499999816,
      "d": 140.18224999999802,
      "v": 117
    },
    {
      "midi": 74,
      "hit": false,
      "t": 49624.516499999816,
      "d": 210.27337499999703,
      "v": 106
    },
    {
      "midi": 65,
      "hit": false,
      "t": 49764.698749999814,
      "d": 210.27337499999703,
      "v": 111
    },
    {
      "midi": 68,
      "hit": false,
      "t": 50255.336624999814,
      "d": 70.09112499999901,
      "v": 119
    },
    {
      "midi": 65,
      "hit": false,
      "t": 50325.42774999981,
      "d": 70.09112499999901,
      "v": 103
    },
    {
      "midi": 69,
      "hit": false,
      "t": 50325.42774999981,
      "d": 210.27337499999703,
      "v": 106
    },
    {
      "midi": 74,
      "hit": false,
      "t": 50325.42774999981,
      "d": 210.27337499999703,
      "v": 114
    },
    {
      "midi": 65,
      "hit": false,
      "t": 50605.79224999981,
      "d": 70.09112499999901,
      "v": 119
    },
    {
      "midi": 65,
      "hit": false,
      "t": 50675.88337499981,
      "d": 70.09112499999901,
      "v": 115
    },
    {
      "midi": 69,
      "hit": false,
      "t": 50675.88337499981,
      "d": 70.09112499999901,
      "v": 116
    },
    {
      "midi": 62,
      "hit": false,
      "t": 50745.97449999981,
      "d": 140.18224999999802,
      "v": 117
    },
    {
      "midi": 65,
      "hit": false,
      "t": 50886.156749999805,
      "d": 210.27337499999703,
      "v": 113
    },
    {
      "midi": 69,
      "hit": false,
      "t": 50886.156749999805,
      "d": 210.27337499999703,
      "v": 118
    },
    {
      "midi": 65,
      "hit": false,
      "t": 51587.0679999998,
      "d": 1051.3668749999997,
      "v": 108
    },
    {
      "midi": 53,
      "hit": false,
      "t": 51587.0679999998,
      "d": 1121.4579999999987,
      "v": 106
    },
    {
      "midi": 62,
      "hit": false,
      "t": 51587.0679999998,
      "d": 1121.4579999999987,
      "v": 108
    },
    {
      "midi": 58,
      "hit": false,
      "t": 51587.0679999998,
      "d": 1191.5491249999977,
      "v": 118
    },
    {
      "midi": 55,
      "hit": false,
      "t": 52708.5259999998,
      "d": 911.1846250000017,
      "v": 106
    },
    {
      "midi": 67,
      "hit": false,
      "t": 52708.5259999998,
      "d": 981.2757500000007,
      "v": 105
    },
    {
      "midi": 60,
      "hit": false,
      "t": 52708.5259999998,
      "d": 1121.4579999999987,
      "v": 112
    },
    {
      "midi": 64,
      "hit": false,
      "t": 52708.5259999998,
      "d": 1121.4579999999987,
      "v": 109
    },
    {
      "midi": 57,
      "hit": false,
      "t": 53829.9839999998,
      "d": 140.18224999999802,
      "v": 113
    },
    {
      "midi": 62,
      "hit": false,
      "t": 53829.9839999998,
      "d": 140.18224999999802,
      "v": 102
    },
    {
      "midi": 65,
      "hit": false,
      "t": 53829.9839999998,
      "d": 140.18224999999802,
      "v": 106
    },
    {
      "midi": 69,
      "hit": false,
      "t": 53829.9839999998,
      "d": 140.18224999999802,
      "v": 112
    },
    {
      "midi": 56,
      "hit": false,
      "t": 54390.7129999998,
      "d": 140.18224999999802,
      "v": 115
    },
    {
      "midi": 62,
      "hit": false,
      "t": 54390.7129999998,
      "d": 140.18224999999802,
      "v": 105
    },
    {
      "midi": 55,
      "hit": false,
      "t": 54671.077499999796,
      "d": 140.18224999999802,
      "v": 116
    },
    {
      "midi": 61,
      "hit": false,
      "t": 54671.077499999796,
      "d": 140.18224999999802,
      "v": 111
    },
    {
      "midi": 54,
      "hit": false,
      "t": 54951.44199999979,
      "d": 280.3645000000033,
      "v": 110
    },
    {
      "midi": 60,
      "hit": false,
      "t": 54951.44199999979,
      "d": 280.3645000000033,
      "v": 106
    },
    {
      "midi": 53,
      "hit": false,
      "t": 55371.98874999979,
      "d": 350.4556250000023,
      "v": 116
    },
    {
      "midi": 58,
      "hit": false,
      "t": 55371.98874999979,
      "d": 420.54675000000134,
      "v": 116
    },
    {
      "midi": 48,
      "hit": false,
      "t": 55792.535499999794,
      "d": 70.09112499999901,
      "v": 104
    },
    {
      "midi": 57,
      "hit": false,
      "t": 56072.89999999979,
      "d": 911.1846249999944,
      "v": 118
    },
    {
      "midi": 53,
      "hit": false,
      "t": 56072.89999999979,
      "d": 981.2757499999934,
      "v": 119
    },
    {
      "midi": 60,
      "hit": false,
      "t": 56072.89999999979,
      "d": 1121.4579999999914,
      "v": 104
    },
    {
      "midi": 69,
      "hit": false,
      "t": 56633.62899999979,
      "d": 70.09112499999901,
      "v": 117
    },
    {
      "midi": 68,
      "hit": false,
      "t": 56633.62899999979,
      "d": 280.36449999999604,
      "v": 105
    },
    {
      "midi": 65,
      "hit": false,
      "t": 56913.993499999786,
      "d": 140.18224999999802,
      "v": 105
    },
    {
      "midi": 69,
      "hit": false,
      "t": 57054.175749999784,
      "d": 70.09112499999901,
      "v": 119
    },
    {
      "midi": 61,
      "hit": false,
      "t": 57194.35799999978,
      "d": 280.36449999999604,
      "v": 120
    },
    {
      "midi": 53,
      "hit": false,
      "t": 57194.35799999978,
      "d": 981.2757499999861,
      "v": 109
    },
    {
      "midi": 57,
      "hit": false,
      "t": 57194.35799999978,
      "d": 981.2757499999861,
      "v": 117
    },
    {
      "midi": 65,
      "hit": false,
      "t": 57334.54024999978,
      "d": 70.09112499999901,
      "v": 105
    },
    {
      "midi": 61,
      "hit": false,
      "t": 57474.72249999978,
      "d": 70.09112499999901,
      "v": 111
    },
    {
      "midi": 65,
      "hit": false,
      "t": 57474.72249999978,
      "d": 70.09112499999901,
      "v": 111
    },
    {
      "midi": 69,
      "hit": false,
      "t": 57474.72249999978,
      "d": 70.09112499999901,
      "v": 113
    },
    {
      "midi": 61,
      "hit": false,
      "t": 57614.904749999776,
      "d": 70.09112499999901,
      "v": 104
    },
    {
      "midi": 65,
      "hit": false,
      "t": 57614.904749999776,
      "d": 70.09112499999901,
      "v": 107
    },
    {
      "midi": 69,
      "hit": false,
      "t": 57614.904749999776,
      "d": 70.09112499999901,
      "v": 117
    },
    {
      "midi": 61,
      "hit": false,
      "t": 57895.26924999977,
      "d": 70.09112499999901,
      "v": 106
    },
    {
      "midi": 65,
      "hit": false,
      "t": 57895.26924999977,
      "d": 70.09112499999901,
      "v": 117
    },
    {
      "midi": 69,
      "hit": false,
      "t": 57895.26924999977,
      "d": 140.18224999999802,
      "v": 105
    },
    {
      "midi": 68,
      "hit": false,
      "t": 58315.815999999766,
      "d": 70.09112499999901,
      "v": 110
    },
    {
      "midi": 69,
      "hit": false,
      "t": 58315.815999999766,
      "d": 350.4556250000023,
      "v": 103
    },
    {
      "midi": 53,
      "hit": false,
      "t": 58315.815999999766,
      "d": 981.2757499999934,
      "v": 108
    },
    {
      "midi": 57,
      "hit": false,
      "t": 58315.815999999766,
      "d": 1051.3668749999924,
      "v": 115
    },
    {
      "midi": 62,
      "hit": false,
      "t": 58315.815999999766,
      "d": 1121.4579999999914,
      "v": 114
    },
    {
      "midi": 65,
      "hit": false,
      "t": 58736.36274999977,
      "d": 70.09112499999901,
      "v": 117
    },
    {
      "midi": 68,
      "hit": false,
      "t": 58876.544999999765,
      "d": 70.09112499999901,
      "v": 115
    },
    {
      "midi": 69,
      "hit": false,
      "t": 59016.72724999976,
      "d": 70.09112499999901,
      "v": 114
    },
    {
      "midi": 63,
      "hit": false,
      "t": 59437.27399999976,
      "d": 280.3645000000033,
      "v": 103
    },
    {
      "midi": 54,
      "hit": false,
      "t": 59437.27399999976,
      "d": 981.2757500000007,
      "v": 111
    },
    {
      "midi": 57,
      "hit": false,
      "t": 59437.27399999976,
      "d": 981.2757500000007,
      "v": 120
    },
    {
      "midi": 63,
      "hit": false,
      "t": 59717.63849999976,
      "d": 70.09112499999901,
      "v": 111
    },
    {
      "midi": 68,
      "hit": false,
      "t": 59717.63849999976,
      "d": 70.09112499999901,
      "v": 101
    },
    {
      "midi": 66,
      "hit": false,
      "t": 59717.63849999976,
      "d": 140.18224999999802,
      "v": 112
    },
    {
      "midi": 69,
      "hit": false,
      "t": 59717.63849999976,
      "d": 140.18224999999802,
      "v": 104
    },
    {
      "midi": 63,
      "hit": false,
      "t": 60138.18524999976,
      "d": 70.09112499999901,
      "v": 101
    },
    {
      "midi": 66,
      "hit": false,
      "t": 60138.18524999976,
      "d": 70.09112499999901,
      "v": 113
    },
    {
      "midi": 68,
      "hit": false,
      "t": 60138.18524999976,
      "d": 70.09112499999901,
      "v": 101
    },
    {
      "midi": 69,
      "hit": false,
      "t": 60138.18524999976,
      "d": 140.18224999999802,
      "v": 119
    },
    {
      "midi": 65,
      "hit": false,
      "t": 60558.731999999756,
      "d": 210.27337499999703,
      "v": 108
    },
    {
      "midi": 53,
      "hit": false,
      "t": 60558.731999999756,
      "d": 2102.7337499999776,
      "v": 113
    },
    {
      "midi": 58,
      "hit": false,
      "t": 60558.731999999756,
      "d": 2102.7337499999776,
      "v": 107
    },
    {
      "midi": 62,
      "hit": false,
      "t": 60558.731999999756,
      "d": 2242.9159999999756,
      "v": 119
    },
    {
      "midi": 65,
      "hit": false,
      "t": 60979.27874999975,
      "d": 140.18224999999802,
      "v": 112
    },
    {
      "midi": 77,
      "hit": false,
      "t": 61259.643249999746,
      "d": 70.09112499999901,
      "v": 103
    },
    {
      "midi": 74,
      "hit": false,
      "t": 61259.643249999746,
      "d": 140.18224999999802,
      "v": 119
    },
    {
      "midi": 74,
      "hit": false,
      "t": 61540.00774999974,
      "d": 70.09112499999901,
      "v": 105
    },
    {
      "midi": 77,
      "hit": false,
      "t": 61540.00774999974,
      "d": 140.18224999999802,
      "v": 108
    },
    {
      "midi": 65,
      "hit": false,
      "t": 61960.554499999744,
      "d": 70.09112499999901,
      "v": 104
    },
    {
      "midi": 65,
      "hit": false,
      "t": 62240.91899999974,
      "d": 70.09112499999901,
      "v": 112
    },
    {
      "midi": 65,
      "hit": false,
      "t": 62521.283499999736,
      "d": 70.09112499999901,
      "v": 102
    },
    {
      "midi": 52,
      "hit": false,
      "t": 62801.64799999973,
      "d": 2102.733749999992,
      "v": 102
    },
    {
      "midi": 60,
      "hit": false,
      "t": 62801.64799999973,
      "d": 2102.733749999992,
      "v": 105
    },
    {
      "midi": 58,
      "hit": false,
      "t": 62801.64799999973,
      "d": 2172.824874999991,
      "v": 106
    },
    {
      "midi": 72,
      "hit": false,
      "t": 63082.012499999735,
      "d": 70.09112499999901,
      "v": 116
    },
    {
      "midi": 75,
      "hit": false,
      "t": 63082.012499999735,
      "d": 70.09112499999901,
      "v": 114
    },
    {
      "midi": 76,
      "hit": false,
      "t": 63152.103624999734,
      "d": 140.18224999999802,
      "v": 119
    },
    {
      "midi": 74,
      "hit": false,
      "t": 63502.55924999973,
      "d": 70.09112499999901,
      "v": 105
    },
    {
      "midi": 77,
      "hit": false,
      "t": 63502.55924999973,
      "d": 140.18224999999802,
      "v": 115
    },
    {
      "midi": 82,
      "hit": false,
      "t": 63923.10599999973,
      "d": 140.18224999999802,
      "v": 103
    },
    {
      "midi": 77,
      "hit": false,
      "t": 64343.65274999973,
      "d": 70.09112499999901,
      "v": 107
    },
    {
      "midi": 76,
      "hit": false,
      "t": 64624.01724999973,
      "d": 70.09112499999901,
      "v": 110
    },
    {
      "midi": 73,
      "hit": false,
      "t": 65044.56399999972,
      "d": 70.09112499999901,
      "v": 105
    },
    {
      "midi": 74,
      "hit": false,
      "t": 65044.56399999972,
      "d": 140.18224999999802,
      "v": 118
    },
    {
      "midi": 79,
      "hit": false,
      "t": 65044.56399999972,
      "d": 140.18224999999802,
      "v": 103
    },
    {
      "midi": 58,
      "hit": false,
      "t": 65044.56399999972,
      "d": 981.2757500000153,
      "v": 107
    },
    {
      "midi": 62,
      "hit": false,
      "t": 65044.56399999972,
      "d": 981.2757500000153,
      "v": 104
    },
    {
      "midi": 55,
      "hit": false,
      "t": 65044.56399999972,
      "d": 1121.4580000000278,
      "v": 101
    },
    {
      "midi": 67,
      "hit": false,
      "t": 65745.47524999973,
      "d": 70.09112500000629,
      "v": 120
    },
    {
      "midi": 70,
      "hit": false,
      "t": 65745.47524999973,
      "d": 70.09112500000629,
      "v": 110
    },
    {
      "midi": 74,
      "hit": false,
      "t": 65745.47524999973,
      "d": 140.18225000001257,
      "v": 103
    },
    {
      "midi": 66,
      "hit": false,
      "t": 66025.83974999974,
      "d": 70.09112500000629,
      "v": 110
    },
    {
      "midi": 70,
      "hit": false,
      "t": 66025.83974999974,
      "d": 70.09112500000629,
      "v": 107
    },
    {
      "midi": 74,
      "hit": false,
      "t": 66025.83974999974,
      "d": 140.18225000001257,
      "v": 114
    },
    {
      "midi": 62,
      "hit": false,
      "t": 66166.02199999975,
      "d": 911.184625000009,
      "v": 116
    },
    {
      "midi": 58,
      "hit": false,
      "t": 66166.02199999975,
      "d": 981.2757500000153,
      "v": 114
    },
    {
      "midi": 54,
      "hit": false,
      "t": 66166.02199999975,
      "d": 1121.4580000000133,
      "v": 104
    },
    {
      "midi": 66,
      "hit": false,
      "t": 66446.38649999975,
      "d": 70.09112500000629,
      "v": 106
    },
    {
      "midi": 70,
      "hit": false,
      "t": 66446.38649999975,
      "d": 140.18225000001257,
      "v": 111
    },
    {
      "midi": 74,
      "hit": false,
      "t": 66446.38649999975,
      "d": 140.18225000001257,
      "v": 118
    },
    {
      "midi": 66,
      "hit": false,
      "t": 67007.11549999975,
      "d": 70.09112500000629,
      "v": 105
    },
    {
      "midi": 70,
      "hit": false,
      "t": 67007.11549999975,
      "d": 140.18225000001257,
      "v": 104
    },
    {
      "midi": 74,
      "hit": false,
      "t": 67007.11549999975,
      "d": 140.18225000001257,
      "v": 116
    },
    {
      "midi": 65,
      "hit": false,
      "t": 67287.47999999976,
      "d": 210.2733750000043,
      "v": 120
    },
    {
      "midi": 67,
      "hit": false,
      "t": 67287.47999999976,
      "d": 210.2733750000043,
      "v": 106
    },
    {
      "midi": 70,
      "hit": false,
      "t": 67287.47999999976,
      "d": 280.3645000000106,
      "v": 104
    },
    {
      "midi": 74,
      "hit": false,
      "t": 67287.47999999976,
      "d": 280.3645000000106,
      "v": 118
    },
    {
      "midi": 53,
      "hit": false,
      "t": 67287.47999999976,
      "d": 1051.3668750000506,
      "v": 110
    },
    {
      "midi": 58,
      "hit": false,
      "t": 67287.47999999976,
      "d": 1051.3668750000506,
      "v": 101
    },
    {
      "midi": 62,
      "hit": false,
      "t": 67287.47999999976,
      "d": 1051.3668750000506,
      "v": 101
    },
    {
      "midi": 74,
      "hit": false,
      "t": 67848.20899999977,
      "d": 70.09112500000629,
      "v": 102
    },
    {
      "midi": 77,
      "hit": false,
      "t": 67918.30012499978,
      "d": 70.09112500000629,
      "v": 104
    },
    {
      "midi": 74,
      "hit": false,
      "t": 67988.39124999978,
      "d": 140.18225000001257,
      "v": 112
    },
    {
      "midi": 70,
      "hit": false,
      "t": 68058.48237499979,
      "d": 140.18225000001257,
      "v": 106
    },
    {
      "midi": 67,
      "hit": false,
      "t": 68268.75574999981,
      "d": 70.09112500000629,
      "v": 116
    },
    {
      "midi": 55,
      "hit": false,
      "t": 68408.93799999982,
      "d": 981.2757500000153,
      "v": 119
    },
    {
      "midi": 64,
      "hit": false,
      "t": 68408.93799999982,
      "d": 981.2757500000153,
      "v": 118
    },
    {
      "midi": 58,
      "hit": false,
      "t": 68408.93799999982,
      "d": 1121.4580000000133,
      "v": 110
    },
    {
      "midi": 67,
      "hit": false,
      "t": 68689.30249999982,
      "d": 70.09112500000629,
      "v": 110
    },
    {
      "midi": 70,
      "hit": false,
      "t": 68689.30249999982,
      "d": 140.18225000001257,
      "v": 109
    },
    {
      "midi": 76,
      "hit": false,
      "t": 68689.30249999982,
      "d": 140.18225000001257,
      "v": 109
    },
    {
      "midi": 67,
      "hit": false,
      "t": 69250.03149999982,
      "d": 70.09112500000629,
      "v": 110
    },
    {
      "midi": 70,
      "hit": false,
      "t": 69250.03149999982,
      "d": 70.09112500000629,
      "v": 113
    },
    {
      "midi": 76,
      "hit": false,
      "t": 69250.03149999982,
      "d": 140.18225000001257,
      "v": 103
    },
    {
      "midi": 69,
      "hit": false,
      "t": 69530.39599999983,
      "d": 280.36449999999604,
      "v": 114
    },
    {
      "midi": 72,
      "hit": false,
      "t": 69530.39599999983,
      "d": 280.36449999999604,
      "v": 116
    },
    {
      "midi": 76,
      "hit": false,
      "t": 69530.39599999983,
      "d": 280.36449999999604,
      "v": 105
    },
    {
      "midi": 52,
      "hit": false,
      "t": 69530.39599999983,
      "d": 420.54674999999406,
      "v": 108
    },
    {
      "midi": 57,
      "hit": false,
      "t": 69530.39599999983,
      "d": 981.2757499999861,
      "v": 110
    },
    {
      "midi": 53,
      "hit": false,
      "t": 69530.39599999983,
      "d": 1051.3668749999924,
      "v": 104
    },
    {
      "midi": 64,
      "hit": false,
      "t": 69530.39599999983,
      "d": 1121.4579999999987,
      "v": 108
    },
    {
      "midi": 69,
      "hit": false,
      "t": 70091.12499999983,
      "d": 280.36449999999604,
      "v": 103
    },
    {
      "midi": 72,
      "hit": false,
      "t": 70091.12499999983,
      "d": 280.36449999999604,
      "v": 110
    },
    {
      "midi": 76,
      "hit": false,
      "t": 70091.12499999983,
      "d": 280.36449999999604,
      "v": 108
    },
    {
      "midi": 65,
      "hit": false,
      "t": 70511.67174999982,
      "d": 140.18225000001257,
      "v": 118
    },
    {
      "midi": 69,
      "hit": false,
      "t": 70511.67174999982,
      "d": 140.18225000001257,
      "v": 117
    },
    {
      "midi": 74,
      "hit": false,
      "t": 70511.67174999982,
      "d": 210.27337500001886,
      "v": 118
    },
    {
      "midi": 53,
      "hit": false,
      "t": 70651.85399999983,
      "d": 911.184625000009,
      "v": 102
    },
    {
      "midi": 57,
      "hit": false,
      "t": 70651.85399999983,
      "d": 1051.3668750000215,
      "v": 118
    },
    {
      "midi": 62,
      "hit": false,
      "t": 70651.85399999983,
      "d": 1121.4580000000278,
      "v": 110
    },
    {
      "midi": 65,
      "hit": false,
      "t": 70932.21849999984,
      "d": 280.36449999999604,
      "v": 113
    },
    {
      "midi": 69,
      "hit": false,
      "t": 70932.21849999984,
      "d": 280.36449999999604,
      "v": 105
    },
    {
      "midi": 74,
      "hit": false,
      "t": 70932.21849999984,
      "d": 280.36449999999604,
      "v": 107
    },
    {
      "midi": 65,
      "hit": false,
      "t": 71492.94749999983,
      "d": 140.18225000001257,
      "v": 113
    },
    {
      "midi": 69,
      "hit": false,
      "t": 71492.94749999983,
      "d": 140.18225000001257,
      "v": 105
    },
    {
      "midi": 74,
      "hit": false,
      "t": 71492.94749999983,
      "d": 140.18225000001257,
      "v": 115
    },
    {
      "midi": 55,
      "hit": false,
      "t": 71703.22087499985,
      "d": 911.184625000009,
      "v": 102
    },
    {
      "midi": 63,
      "hit": false,
      "t": 71703.22087499985,
      "d": 981.2757500000153,
      "v": 104
    },
    {
      "midi": 58,
      "hit": false,
      "t": 71703.22087499985,
      "d": 1191.5491250000196,
      "v": 119
    },
    {
      "midi": 67,
      "hit": false,
      "t": 71773.31199999986,
      "d": 280.36449999999604,
      "v": 113
    },
    {
      "midi": 70,
      "hit": false,
      "t": 71773.31199999986,
      "d": 350.4556250000023,
      "v": 106
    },
    {
      "midi": 72,
      "hit": false,
      "t": 71773.31199999986,
      "d": 350.4556250000023,
      "v": 111
    },
    {
      "midi": 75,
      "hit": false,
      "t": 71773.31199999986,
      "d": 350.4556250000023,
      "v": 101
    },
    {
      "midi": 67,
      "hit": false,
      "t": 72334.04099999987,
      "d": 280.36449999999604,
      "v": 105
    },
    {
      "midi": 70,
      "hit": false,
      "t": 72334.04099999987,
      "d": 280.36449999999604,
      "v": 107
    },
    {
      "midi": 72,
      "hit": false,
      "t": 72334.04099999987,
      "d": 280.36449999999604,
      "v": 120
    },
    {
      "midi": 75,
      "hit": false,
      "t": 72334.04099999987,
      "d": 280.36449999999604,
      "v": 115
    },
    {
      "midi": 65,
      "hit": false,
      "t": 72754.58774999988,
      "d": 140.18224999999802,
      "v": 102
    },
    {
      "midi": 69,
      "hit": false,
      "t": 72754.58774999988,
      "d": 140.18224999999802,
      "v": 110
    },
    {
      "midi": 72,
      "hit": false,
      "t": 72754.58774999988,
      "d": 140.18224999999802,
      "v": 107
    },
    {
      "midi": 75,
      "hit": false,
      "t": 72754.58774999988,
      "d": 140.18224999999802,
      "v": 103
    },
    {
      "midi": 53,
      "hit": false,
      "t": 72894.76999999987,
      "d": 911.1846249999944,
      "v": 110
    },
    {
      "midi": 57,
      "hit": false,
      "t": 72894.76999999987,
      "d": 1051.3668749999924,
      "v": 106
    },
    {
      "midi": 63,
      "hit": false,
      "t": 72894.76999999987,
      "d": 1051.3668749999924,
      "v": 120
    },
    {
      "midi": 65,
      "hit": false,
      "t": 73175.13449999987,
      "d": 210.2733750000043,
      "v": 120
    },
    {
      "midi": 69,
      "hit": false,
      "t": 73175.13449999987,
      "d": 210.2733750000043,
      "v": 102
    },
    {
      "midi": 72,
      "hit": false,
      "t": 73175.13449999987,
      "d": 210.2733750000043,
      "v": 107
    },
    {
      "midi": 75,
      "hit": false,
      "t": 73175.13449999987,
      "d": 210.2733750000043,
      "v": 118
    },
    {
      "midi": 60,
      "hit": false,
      "t": 74016.22799999987,
      "d": 280.36449999999604,
      "v": 110
    },
    {
      "midi": 53,
      "hit": false,
      "t": 74016.22799999987,
      "d": 2032.642625000095,
      "v": 106
    },
    {
      "midi": 57,
      "hit": false,
      "t": 74016.22799999987,
      "d": 2102.7337500001013,
      "v": 101
    },
    {
      "midi": 68,
      "hit": false,
      "t": 74296.59249999987,
      "d": 70.09112500000629,
      "v": 118
    },
    {
      "midi": 69,
      "hit": false,
      "t": 74296.59249999987,
      "d": 420.5467500000086,
      "v": 108
    },
    {
      "midi": 72,
      "hit": false,
      "t": 74296.59249999987,
      "d": 490.6378750000149,
      "v": 102
    },
    {
      "midi": 60,
      "hit": false,
      "t": 74296.59249999987,
      "d": 560.7290000000212,
      "v": 103
    },
    {
      "midi": 69,
      "hit": false,
      "t": 74717.13924999988,
      "d": 70.09112500000629,
      "v": 116
    },
    {
      "midi": 72,
      "hit": false,
      "t": 74787.23037499988,
      "d": 70.09112500000629,
      "v": 118
    },
    {
      "midi": 69,
      "hit": false,
      "t": 74857.32149999989,
      "d": 70.09112500000629,
      "v": 107
    },
    {
      "midi": 72,
      "hit": false,
      "t": 74927.4126249999,
      "d": 70.09112500000629,
      "v": 115
    },
    {
      "midi": 69,
      "hit": false,
      "t": 74997.5037499999,
      "d": 70.09112500000629,
      "v": 110
    },
    {
      "midi": 72,
      "hit": false,
      "t": 75067.59487499991,
      "d": 70.09112500000629,
      "v": 105
    },
    {
      "midi": 69,
      "hit": false,
      "t": 75137.68599999991,
      "d": 70.09112500000629,
      "v": 114
    },
    {
      "midi": 72,
      "hit": false,
      "t": 75207.77712499992,
      "d": 70.09112500000629,
      "v": 112
    },
    {
      "midi": 69,
      "hit": false,
      "t": 75277.86824999993,
      "d": 70.09112500000629,
      "v": 109
    },
    {
      "midi": 72,
      "hit": false,
      "t": 75347.95937499993,
      "d": 70.09112500000629,
      "v": 117
    },
    {
      "midi": 69,
      "hit": false,
      "t": 75418.05049999994,
      "d": 140.18224999999802,
      "v": 117
    },
    {
      "midi": 68,
      "hit": false,
      "t": 75558.23274999994,
      "d": 70.09112500000629,
      "v": 105
    },
    {
      "midi": 69,
      "hit": false,
      "t": 75628.32387499994,
      "d": 280.3645000000106,
      "v": 120
    },
    {
      "midi": 72,
      "hit": false,
      "t": 75628.32387499994,
      "d": 280.3645000000106,
      "v": 103
    },
    {
      "midi": 65,
      "hit": false,
      "t": 75838.59724999995,
      "d": 70.09112500000629,
      "v": 109
    },
    {
      "midi": 67,
      "hit": false,
      "t": 75978.77949999996,
      "d": 140.18225000001257,
      "v": 120
    },
    {
      "midi": 65,
      "hit": false,
      "t": 76118.96174999997,
      "d": 70.09112500000629,
      "v": 105
    },
    {
      "midi": 53,
      "hit": false,
      "t": 76259.14399999999,
      "d": 2102.733750000043,
      "v": 102
    },
    {
      "midi": 57,
      "hit": false,
      "t": 76259.14399999999,
      "d": 2102.733750000043,
      "v": 111
    },
    {
      "midi": 61,
      "hit": false,
      "t": 76259.14399999999,
      "d": 2172.8248750000494,
      "v": 119
    },
    {
      "midi": 68,
      "hit": false,
      "t": 76539.50849999998,
      "d": 70.09112500000629,
      "v": 116
    },
    {
      "midi": 69,
      "hit": false,
      "t": 76539.50849999998,
      "d": 140.18225000001257,
      "v": 105
    },
    {
      "midi": 73,
      "hit": false,
      "t": 76539.50849999998,
      "d": 140.18225000001257,
      "v": 118
    },
    {
      "midi": 68,
      "hit": false,
      "t": 76819.87299999999,
      "d": 70.09112500000629,
      "v": 113
    },
    {
      "midi": 69,
      "hit": false,
      "t": 76819.87299999999,
      "d": 350.4556250000023,
      "v": 119
    },
    {
      "midi": 73,
      "hit": false,
      "t": 76819.87299999999,
      "d": 350.4556250000023,
      "v": 115
    },
    {
      "midi": 68,
      "hit": false,
      "t": 77380.602,
      "d": 70.09112500000629,
      "v": 112
    },
    {
      "midi": 69,
      "hit": false,
      "t": 77380.602,
      "d": 280.3645000000106,
      "v": 115
    },
    {
      "midi": 73,
      "hit": false,
      "t": 77380.602,
      "d": 350.4556250000169,
      "v": 102
    },
    {
      "midi": 68,
      "hit": false,
      "t": 77801.14875000002,
      "d": 70.09112500000629,
      "v": 109
    },
    {
      "midi": 69,
      "hit": false,
      "t": 77801.14875000002,
      "d": 280.3645000000106,
      "v": 110
    },
    {
      "midi": 73,
      "hit": false,
      "t": 77801.14875000002,
      "d": 280.3645000000106,
      "v": 116
    },
    {
      "midi": 65,
      "hit": false,
      "t": 78081.51325000003,
      "d": 140.18224999999802,
      "v": 107
    },
    {
      "midi": 61,
      "hit": false,
      "t": 78502.06000000004,
      "d": 70.09112500000629,
      "v": 119
    },
    {
      "midi": 62,
      "hit": false,
      "t": 78502.06000000004,
      "d": 700.9112500000047,
      "v": 101
    },
    {
      "midi": 65,
      "hit": false,
      "t": 78502.06000000004,
      "d": 700.9112500000047,
      "v": 102
    },
    {
      "midi": 53,
      "hit": false,
      "t": 78502.06000000004,
      "d": 2102.7337499999994,
      "v": 104
    },
    {
      "midi": 57,
      "hit": false,
      "t": 78502.06000000004,
      "d": 2172.8248750000057,
      "v": 104
    },
    {
      "midi": 65,
      "hit": false,
      "t": 79343.15350000004,
      "d": 280.36449999999604,
      "v": 116
    },
    {
      "midi": 70,
      "hit": false,
      "t": 80184.24700000005,
      "d": 140.18224999999802,
      "v": 102
    },
    {
      "midi": 67,
      "hit": false,
      "t": 80464.61150000004,
      "d": 140.18224999999802,
      "v": 113
    },
    {
      "midi": 65,
      "hit": false,
      "t": 80744.97600000005,
      "d": 280.36449999999604,
      "v": 117
    },
    {
      "midi": 53,
      "hit": false,
      "t": 80744.97600000005,
      "d": 2032.6426250000368,
      "v": 112
    },
    {
      "midi": 59,
      "hit": false,
      "t": 80744.97600000005,
      "d": 2102.733750000043,
      "v": 112
    },
    {
      "midi": 62,
      "hit": false,
      "t": 80744.97600000005,
      "d": 2172.8248750000494,
      "v": 119
    },
    {
      "midi": 70,
      "hit": false,
      "t": 81025.34050000005,
      "d": 70.09112500000629,
      "v": 120
    },
    {
      "midi": 65,
      "hit": false,
      "t": 81025.34050000005,
      "d": 280.3645000000106,
      "v": 117
    },
    {
      "midi": 71,
      "hit": false,
      "t": 81025.34050000005,
      "d": 280.3645000000106,
      "v": 110
    },
    {
      "midi": 74,
      "hit": false,
      "t": 81025.34050000005,
      "d": 280.3645000000106,
      "v": 106
    },
    {
      "midi": 70,
      "hit": false,
      "t": 81445.88725000006,
      "d": 140.18224999999802,
      "v": 108
    },
    {
      "midi": 65,
      "hit": false,
      "t": 81445.88725000006,
      "d": 210.2733750000043,
      "v": 106
    },
    {
      "midi": 74,
      "hit": false,
      "t": 81445.88725000006,
      "d": 210.2733750000043,
      "v": 104
    },
    {
      "midi": 71,
      "hit": false,
      "t": 81445.88725000006,
      "d": 280.3645000000106,
      "v": 108
    },
    {
      "midi": 70,
      "hit": false,
      "t": 81866.43400000007,
      "d": 70.09112500000629,
      "v": 108
    },
    {
      "midi": 65,
      "hit": false,
      "t": 81866.43400000007,
      "d": 280.3645000000106,
      "v": 113
    },
    {
      "midi": 71,
      "hit": false,
      "t": 81866.43400000007,
      "d": 280.3645000000106,
      "v": 116
    },
    {
      "midi": 74,
      "hit": false,
      "t": 81866.43400000007,
      "d": 280.3645000000106,
      "v": 118
    },
    {
      "midi": 65,
      "hit": false,
      "t": 82286.98075000008,
      "d": 140.18224999999802,
      "v": 103
    },
    {
      "midi": 70,
      "hit": false,
      "t": 82286.98075000008,
      "d": 140.18224999999802,
      "v": 101
    },
    {
      "midi": 74,
      "hit": false,
      "t": 82286.98075000008,
      "d": 280.36449999999604,
      "v": 107
    },
    {
      "midi": 71,
      "hit": false,
      "t": 82286.98075000008,
      "d": 350.4556250000023,
      "v": 120
    },
    {
      "midi": 67,
      "hit": false,
      "t": 82707.52750000008,
      "d": 70.09112500000629,
      "v": 108
    },
    {
      "midi": 68,
      "hit": false,
      "t": 82987.89200000011,
      "d": 70.09112500000629,
      "v": 106
    },
    {
      "midi": 60,
      "hit": false,
      "t": 82987.89200000011,
      "d": 280.3645000000106,
      "v": 113
    },
    {
      "midi": 65,
      "hit": false,
      "t": 82987.89200000011,
      "d": 280.3645000000106,
      "v": 115
    },
    {
      "midi": 69,
      "hit": false,
      "t": 82987.89200000011,
      "d": 280.3645000000106,
      "v": 104
    },
    {
      "midi": 36,
      "hit": false,
      "t": 82987.89200000011,
      "d": 490.6378750000149,
      "v": 114
    },
    {
      "midi": 53,
      "hit": false,
      "t": 82987.89200000011,
      "d": 981.2757500000298,
      "v": 106
    },
    {
      "midi": 57,
      "hit": false,
      "t": 82987.89200000011,
      "d": 981.2757500000298,
      "v": 112
    },
    {
      "midi": 65,
      "hit": false,
      "t": 83548.62100000013,
      "d": 70.09112500000629,
      "v": 110
    },
    {
      "midi": 68,
      "hit": false,
      "t": 83548.62100000013,
      "d": 70.09112500000629,
      "v": 116
    },
    {
      "midi": 69,
      "hit": false,
      "t": 83548.62100000013,
      "d": 210.2733750000043,
      "v": 116
    },
    {
      "midi": 60,
      "hit": false,
      "t": 83548.62100000013,
      "d": 280.3645000000106,
      "v": 104
    },
    {
      "midi": 36,
      "hit": false,
      "t": 83548.62100000013,
      "d": 560.7290000000066,
      "v": 117
    },
    {
      "midi": 57,
      "hit": false,
      "t": 83969.16775000014,
      "d": 140.18224999999802,
      "v": 104
    },
    {
      "midi": 62,
      "hit": false,
      "t": 83969.16775000014,
      "d": 140.18224999999802,
      "v": 118
    },
    {
      "midi": 65,
      "hit": false,
      "t": 83969.16775000014,
      "d": 140.18224999999802,
      "v": 118
    },
    {
      "midi": 60,
      "hit": false,
      "t": 83969.16775000014,
      "d": 280.36449999999604,
      "v": 119
    },
    {
      "midi": 57,
      "hit": false,
      "t": 84109.35000000014,
      "d": 140.18224999999802,
      "v": 115
    },
    {
      "midi": 62,
      "hit": false,
      "t": 84109.35000000014,
      "d": 140.18224999999802,
      "v": 114
    },
    {
      "midi": 65,
      "hit": false,
      "t": 84109.35000000014,
      "d": 140.18224999999802,
      "v": 107
    },
    {
      "midi": 38,
      "hit": false,
      "t": 84109.35000000014,
      "d": 420.54674999999406,
      "v": 111
    },
    {
      "midi": 53,
      "hit": false,
      "t": 84109.35000000014,
      "d": 981.2757500000007,
      "v": 102
    },
    {
      "midi": 57,
      "hit": false,
      "t": 84389.71450000013,
      "d": 280.36449999999604,
      "v": 103
    },
    {
      "midi": 60,
      "hit": false,
      "t": 84389.71450000013,
      "d": 280.36449999999604,
      "v": 106
    },
    {
      "midi": 62,
      "hit": false,
      "t": 84389.71450000013,
      "d": 280.36449999999604,
      "v": 119
    },
    {
      "midi": 65,
      "hit": false,
      "t": 84389.71450000013,
      "d": 280.36449999999604,
      "v": 107
    },
    {
      "midi": 38,
      "hit": false,
      "t": 84670.07900000013,
      "d": 490.6378750000149,
      "v": 104
    },
    {
      "midi": 57,
      "hit": false,
      "t": 84810.26125000013,
      "d": 210.2733750000043,
      "v": 117
    },
    {
      "midi": 60,
      "hit": false,
      "t": 84810.26125000013,
      "d": 280.3645000000106,
      "v": 111
    },
    {
      "midi": 62,
      "hit": false,
      "t": 84810.26125000013,
      "d": 280.3645000000106,
      "v": 119
    },
    {
      "midi": 65,
      "hit": false,
      "t": 84810.26125000013,
      "d": 280.3645000000106,
      "v": 118
    },
    {
      "midi": 55,
      "hit": false,
      "t": 85230.80800000015,
      "d": 350.4556250000023,
      "v": 114
    },
    {
      "midi": 58,
      "hit": false,
      "t": 85230.80800000015,
      "d": 350.4556250000023,
      "v": 104
    },
    {
      "midi": 62,
      "hit": false,
      "t": 85230.80800000015,
      "d": 350.4556250000023,
      "v": 120
    },
    {
      "midi": 65,
      "hit": false,
      "t": 85230.80800000015,
      "d": 350.4556250000023,
      "v": 106
    },
    {
      "midi": 43,
      "hit": false,
      "t": 85230.80800000015,
      "d": 560.7290000000066,
      "v": 108
    },
    {
      "midi": 53,
      "hit": false,
      "t": 85230.80800000015,
      "d": 981.2757500000153,
      "v": 101
    },
    {
      "midi": 55,
      "hit": false,
      "t": 85791.53700000016,
      "d": 210.2733750000043,
      "v": 107
    },
    {
      "midi": 65,
      "hit": false,
      "t": 85791.53700000016,
      "d": 210.2733750000043,
      "v": 105
    },
    {
      "midi": 58,
      "hit": false,
      "t": 85791.53700000016,
      "d": 280.3645000000106,
      "v": 112
    },
    {
      "midi": 62,
      "hit": false,
      "t": 85791.53700000016,
      "d": 280.3645000000106,
      "v": 103
    },
    {
      "midi": 43,
      "hit": false,
      "t": 85791.53700000016,
      "d": 490.6378750000149,
      "v": 102
    },
    {
      "midi": 58,
      "hit": false,
      "t": 86212.08375000017,
      "d": 70.09112500000629,
      "v": 109
    },
    {
      "midi": 62,
      "hit": false,
      "t": 86212.08375000017,
      "d": 70.09112500000629,
      "v": 110
    },
    {
      "midi": 65,
      "hit": false,
      "t": 86212.08375000017,
      "d": 70.09112500000629,
      "v": 107
    },
    {
      "midi": 53,
      "hit": false,
      "t": 86212.08375000017,
      "d": 140.18225000001257,
      "v": 110
    },
    {
      "midi": 58,
      "hit": false,
      "t": 86282.17487500017,
      "d": 70.09112500000629,
      "v": 101
    },
    {
      "midi": 62,
      "hit": false,
      "t": 86282.17487500017,
      "d": 70.09112500000629,
      "v": 113
    },
    {
      "midi": 65,
      "hit": false,
      "t": 86282.17487500017,
      "d": 70.09112500000629,
      "v": 106
    },
    {
      "midi": 55,
      "hit": false,
      "t": 86282.17487500017,
      "d": 981.2757500000153,
      "v": 108
    },
    {
      "midi": 36,
      "hit": false,
      "t": 86352.26600000018,
      "d": 490.63787500000035,
      "v": 120
    },
    {
      "midi": 53,
      "hit": false,
      "t": 86632.63050000017,
      "d": 420.5467500000086,
      "v": 113
    },
    {
      "midi": 58,
      "hit": false,
      "t": 86632.63050000017,
      "d": 420.5467500000086,
      "v": 115
    },
    {
      "midi": 62,
      "hit": false,
      "t": 86632.63050000017,
      "d": 420.5467500000086,
      "v": 101
    },
    {
      "midi": 65,
      "hit": false,
      "t": 86632.63050000017,
      "d": 420.5467500000086,
      "v": 115
    },
    {
      "midi": 36,
      "hit": false,
      "t": 86912.99500000018,
      "d": 350.4556250000023,
      "v": 118
    },
    {
      "midi": 65,
      "hit": false,
      "t": 87193.35950000018,
      "d": 70.09112500000629,
      "v": 115
    },
    {
      "midi": 53,
      "hit": false,
      "t": 87193.35950000018,
      "d": 140.18225000001257,
      "v": 116
    },
    {
      "midi": 58,
      "hit": false,
      "t": 87193.35950000018,
      "d": 140.18225000001257,
      "v": 107
    },
    {
      "midi": 62,
      "hit": false,
      "t": 87193.35950000018,
      "d": 140.18225000001257,
      "v": 108
    },
    {
      "midi": 60,
      "hit": false,
      "t": 87473.72400000019,
      "d": 280.36449999999604,
      "v": 108
    },
    {
      "midi": 65,
      "hit": false,
      "t": 87473.72400000019,
      "d": 350.4556250000023,
      "v": 115
    },
    {
      "midi": 69,
      "hit": false,
      "t": 87473.72400000019,
      "d": 350.4556250000023,
      "v": 108
    },
    {
      "midi": 69,
      "hit": false,
      "t": 88034.4530000002,
      "d": 70.09112500000629,
      "v": 113
    },
    {
      "midi": 60,
      "hit": false,
      "t": 88034.4530000002,
      "d": 140.18225000001257,
      "v": 109
    },
    {
      "midi": 65,
      "hit": false,
      "t": 88034.4530000002,
      "d": 140.18225000001257,
      "v": 103
    },
    {
      "midi": 58,
      "hit": false,
      "t": 88314.81750000021,
      "d": 280.36449999999604,
      "v": 113
    },
    {
      "midi": 63,
      "hit": false,
      "t": 88314.81750000021,
      "d": 350.4556250000023,
      "v": 112
    },
    {
      "midi": 67,
      "hit": false,
      "t": 88314.81750000021,
      "d": 350.4556250000023,
      "v": 108
    },
    {
      "midi": 65,
      "hit": false,
      "t": 88875.54650000022,
      "d": 350.4556250000023,
      "v": 117
    },
    {
      "midi": 70,
      "hit": false,
      "t": 88875.54650000022,
      "d": 350.4556250000023,
      "v": 113
    },
    {
      "midi": 60,
      "hit": false,
      "t": 89436.27550000022,
      "d": 490.63787500000035,
      "v": 115
    },
    {
      "midi": 68,
      "hit": false,
      "t": 89436.27550000022,
      "d": 560.7290000000066,
      "v": 118
    },
    {
      "midi": 65,
      "hit": false,
      "t": 89436.27550000022,
      "d": 630.8201250000129,
      "v": 101
    },
    {
      "midi": 60,
      "hit": false,
      "t": 90277.36900000024,
      "d": 70.09112500000629,
      "v": 105
    },
    {
      "midi": 68,
      "hit": false,
      "t": 90277.36900000024,
      "d": 70.09112500000629,
      "v": 115
    },
    {
      "midi": 65,
      "hit": false,
      "t": 90277.36900000024,
      "d": 140.18225000001257,
      "v": 113
    },
    {
      "midi": 61,
      "hit": false,
      "t": 90557.73350000025,
      "d": 841.0935000000027,
      "v": 108
    },
    {
      "midi": 69,
      "hit": false,
      "t": 90557.73350000025,
      "d": 1051.366875000007,
      "v": 109
    },
    {
      "midi": 64,
      "hit": false,
      "t": 90557.73350000025,
      "d": 1121.4580000000133,
      "v": 113
    },
    {
      "midi": 61,
      "hit": false,
      "t": 91959.55600000026,
      "d": 280.36449999999604,
      "v": 111
    },
    {
      "midi": 66,
      "hit": false,
      "t": 91959.55600000026,
      "d": 280.36449999999604,
      "v": 116
    },
    {
      "midi": 70,
      "hit": false,
      "t": 91959.55600000026,
      "d": 280.36449999999604,
      "v": 112
    },
    {
      "midi": 61,
      "hit": false,
      "t": 92520.28500000025,
      "d": 140.18224999999802,
      "v": 105
    },
    {
      "midi": 70,
      "hit": false,
      "t": 92520.28500000025,
      "d": 140.18224999999802,
      "v": 110
    },
    {
      "midi": 66,
      "hit": false,
      "t": 92520.28500000025,
      "d": 280.36449999999604,
      "v": 106
    },
    {
      "midi": 64,
      "hit": false,
      "t": 92800.64950000025,
      "d": 140.18224999999802,
      "v": 110
    },
    {
      "midi": 59,
      "hit": false,
      "t": 92800.64950000025,
      "d": 280.36449999999604,
      "v": 101
    },
    {
      "midi": 68,
      "hit": false,
      "t": 92800.64950000025,
      "d": 280.36449999999604,
      "v": 105
    },
    {
      "midi": 66,
      "hit": false,
      "t": 93361.37850000024,
      "d": 280.36449999999604,
      "v": 120
    },
    {
      "midi": 71,
      "hit": false,
      "t": 93361.37850000024,
      "d": 280.36449999999604,
      "v": 108
    },
    {
      "midi": 61,
      "hit": false,
      "t": 93922.10750000023,
      "d": 560.7290000000066,
      "v": 107
    },
    {
      "midi": 66,
      "hit": false,
      "t": 93922.10750000023,
      "d": 560.7290000000066,
      "v": 102
    },
    {
      "midi": 69,
      "hit": false,
      "t": 93922.10750000023,
      "d": 560.7290000000066,
      "v": 118
    },
    {
      "midi": 61,
      "hit": false,
      "t": 94763.20100000023,
      "d": 140.18224999999802,
      "v": 114
    },
    {
      "midi": 66,
      "hit": false,
      "t": 94763.20100000023,
      "d": 140.18224999999802,
      "v": 101
    },
    {
      "midi": 69,
      "hit": false,
      "t": 94763.20100000023,
      "d": 140.18224999999802,
      "v": 119
    },
    {
      "midi": 62,
      "hit": false,
      "t": 95043.56550000023,
      "d": 700.9112500000047,
      "v": 111
    },
    {
      "midi": 70,
      "hit": false,
      "t": 95043.56550000023,
      "d": 911.184625000009,
      "v": 114
    },
    {
      "midi": 65,
      "hit": false,
      "t": 95043.56550000023,
      "d": 1051.366875000007,
      "v": 115
    },
    {
      "midi": 54,
      "hit": false,
      "t": 96445.38800000024,
      "d": 560.7290000000066,
      "v": 102
    },
    {
      "midi": 58,
      "hit": false,
      "t": 96445.38800000024,
      "d": 560.7290000000066,
      "v": 120
    },
    {
      "midi": 61,
      "hit": false,
      "t": 96445.38800000024,
      "d": 560.7290000000066,
      "v": 115
    },
    {
      "midi": 54,
      "hit": false,
      "t": 97006.11700000025,
      "d": 210.2733750000043,
      "v": 119
    },
    {
      "midi": 58,
      "hit": false,
      "t": 97006.11700000025,
      "d": 210.2733750000043,
      "v": 103
    },
    {
      "midi": 61,
      "hit": false,
      "t": 97006.11700000025,
      "d": 280.3645000000106,
      "v": 118
    },
    {
      "midi": 54,
      "hit": false,
      "t": 97426.66375000025,
      "d": 140.18224999999802,
      "v": 119
    },
    {
      "midi": 58,
      "hit": false,
      "t": 97426.66375000025,
      "d": 140.18224999999802,
      "v": 115
    },
    {
      "midi": 62,
      "hit": false,
      "t": 97426.66375000025,
      "d": 140.18224999999802,
      "v": 117
    },
    {
      "midi": 54,
      "hit": false,
      "t": 97566.84600000025,
      "d": 280.36449999999604,
      "v": 111
    },
    {
      "midi": 58,
      "hit": false,
      "t": 97566.84600000025,
      "d": 280.36449999999604,
      "v": 101
    },
    {
      "midi": 62,
      "hit": false,
      "t": 97566.84600000025,
      "d": 280.36449999999604,
      "v": 106
    },
    {
      "midi": 54,
      "hit": false,
      "t": 97847.21050000025,
      "d": 420.54674999999406,
      "v": 114
    },
    {
      "midi": 58,
      "hit": false,
      "t": 97847.21050000025,
      "d": 420.54674999999406,
      "v": 111
    },
    {
      "midi": 62,
      "hit": false,
      "t": 97847.21050000025,
      "d": 420.54674999999406,
      "v": 105
    },
    {
      "midi": 54,
      "hit": false,
      "t": 98407.93950000024,
      "d": 70.09112500000629,
      "v": 117
    },
    {
      "midi": 58,
      "hit": false,
      "t": 98407.93950000024,
      "d": 70.09112500000629,
      "v": 110
    },
    {
      "midi": 62,
      "hit": false,
      "t": 98407.93950000024,
      "d": 140.18225000001257,
      "v": 102
    },
    {
      "midi": 54,
      "hit": false,
      "t": 98688.30400000025,
      "d": 350.4556250000023,
      "v": 110
    },
    {
      "midi": 58,
      "hit": false,
      "t": 98688.30400000025,
      "d": 350.4556250000023,
      "v": 113
    },
    {
      "midi": 63,
      "hit": false,
      "t": 98688.30400000025,
      "d": 560.7290000000066,
      "v": 112
    },
    {
      "midi": 54,
      "hit": false,
      "t": 99249.03300000026,
      "d": 280.36449999999604,
      "v": 108
    },
    {
      "midi": 58,
      "hit": false,
      "t": 99249.03300000026,
      "d": 280.36449999999604,
      "v": 116
    },
    {
      "midi": 63,
      "hit": false,
      "t": 99249.03300000026,
      "d": 280.36449999999604,
      "v": 114
    },
    {
      "midi": 55,
      "hit": false,
      "t": 99669.57975000025,
      "d": 70.09112500000629,
      "v": 109
    },
    {
      "midi": 58,
      "hit": false,
      "t": 99669.57975000025,
      "d": 140.18225000001257,
      "v": 109
    },
    {
      "midi": 61,
      "hit": false,
      "t": 99669.57975000025,
      "d": 140.18225000001257,
      "v": 114
    },
    {
      "midi": 64,
      "hit": false,
      "t": 99669.57975000025,
      "d": 140.18225000001257,
      "v": 107
    },
    {
      "midi": 55,
      "hit": false,
      "t": 99809.76200000026,
      "d": 280.36449999999604,
      "v": 112
    },
    {
      "midi": 61,
      "hit": false,
      "t": 99809.76200000026,
      "d": 280.36449999999604,
      "v": 113
    },
    {
      "midi": 64,
      "hit": false,
      "t": 99809.76200000026,
      "d": 280.36449999999604,
      "v": 105
    },
    {
      "midi": 55,
      "hit": false,
      "t": 100090.12650000026,
      "d": 420.54674999999406,
      "v": 106
    },
    {
      "midi": 58,
      "hit": false,
      "t": 100090.12650000026,
      "d": 420.54674999999406,
      "v": 112
    },
    {
      "midi": 61,
      "hit": false,
      "t": 100090.12650000026,
      "d": 420.54674999999406,
      "v": 103
    },
    {
      "midi": 64,
      "hit": false,
      "t": 100090.12650000026,
      "d": 420.54674999999406,
      "v": 113
    },
    {
      "midi": 55,
      "hit": false,
      "t": 100650.85550000025,
      "d": 70.09112500000629,
      "v": 120
    },
    {
      "midi": 58,
      "hit": false,
      "t": 100650.85550000025,
      "d": 140.18225000001257,
      "v": 110
    },
    {
      "midi": 61,
      "hit": false,
      "t": 100650.85550000025,
      "d": 140.18225000001257,
      "v": 108
    },
    {
      "midi": 64,
      "hit": false,
      "t": 100650.85550000025,
      "d": 140.18225000001257,
      "v": 105
    },
    {
      "midi": 54,
      "hit": false,
      "t": 100931.22000000026,
      "d": 350.4556250000023,
      "v": 116
    },
    {
      "midi": 56,
      "hit": false,
      "t": 100931.22000000026,
      "d": 350.4556250000023,
      "v": 109
    },
    {
      "midi": 59,
      "hit": false,
      "t": 100931.22000000026,
      "d": 350.4556250000023,
      "v": 112
    },
    {
      "midi": 63,
      "hit": false,
      "t": 100931.22000000026,
      "d": 350.4556250000023,
      "v": 110
    },
    {
      "midi": 54,
      "hit": false,
      "t": 101491.94900000027,
      "d": 210.2733750000043,
      "v": 110
    },
    {
      "midi": 59,
      "hit": false,
      "t": 101491.94900000027,
      "d": 210.2733750000043,
      "v": 116
    },
    {
      "midi": 56,
      "hit": false,
      "t": 101491.94900000027,
      "d": 280.3645000000106,
      "v": 101
    },
    {
      "midi": 63,
      "hit": false,
      "t": 101491.94900000027,
      "d": 280.3645000000106,
      "v": 109
    },
    {
      "midi": 55,
      "hit": false,
      "t": 101912.49575000028,
      "d": 140.18224999999802,
      "v": 112
    },
    {
      "midi": 59,
      "hit": false,
      "t": 101912.49575000028,
      "d": 140.18224999999802,
      "v": 116
    },
    {
      "midi": 63,
      "hit": false,
      "t": 101912.49575000028,
      "d": 140.18224999999802,
      "v": 105
    },
    {
      "midi": 55,
      "hit": false,
      "t": 102052.67800000028,
      "d": 771.0023749999964,
      "v": 106
    },
    {
      "midi": 59,
      "hit": false,
      "t": 102052.67800000028,
      "d": 841.0935000000027,
      "v": 109
    },
    {
      "midi": 63,
      "hit": false,
      "t": 102052.67800000028,
      "d": 841.0935000000027,
      "v": 109
    },
    {
      "midi": 54,
      "hit": false,
      "t": 103174.13600000028,
      "d": 350.4556250000023,
      "v": 105
    },
    {
      "midi": 56,
      "hit": false,
      "t": 103174.13600000028,
      "d": 560.7290000000066,
      "v": 116
    },
    {
      "midi": 59,
      "hit": false,
      "t": 103174.13600000028,
      "d": 560.7290000000066,
      "v": 115
    },
    {
      "midi": 63,
      "hit": false,
      "t": 103174.13600000028,
      "d": 560.7290000000066,
      "v": 111
    },
    {
      "midi": 54,
      "hit": false,
      "t": 103734.86500000028,
      "d": 280.36449999999604,
      "v": 111
    },
    {
      "midi": 56,
      "hit": false,
      "t": 103734.86500000028,
      "d": 280.36449999999604,
      "v": 112
    },
    {
      "midi": 59,
      "hit": false,
      "t": 103734.86500000028,
      "d": 280.36449999999604,
      "v": 105
    },
    {
      "midi": 63,
      "hit": false,
      "t": 103734.86500000028,
      "d": 280.36449999999604,
      "v": 107
    },
    {
      "midi": 55,
      "hit": false,
      "t": 104155.41175000028,
      "d": 140.18224999999802,
      "v": 119
    },
    {
      "midi": 59,
      "hit": false,
      "t": 104155.41175000028,
      "d": 140.18224999999802,
      "v": 101
    },
    {
      "midi": 63,
      "hit": false,
      "t": 104155.41175000028,
      "d": 140.18224999999802,
      "v": 102
    },
    {
      "midi": 55,
      "hit": false,
      "t": 104295.59400000027,
      "d": 771.0023749999964,
      "v": 111
    },
    {
      "midi": 59,
      "hit": false,
      "t": 104295.59400000027,
      "d": 841.0935000000027,
      "v": 112
    },
    {
      "midi": 63,
      "hit": false,
      "t": 104295.59400000027,
      "d": 841.0935000000027,
      "v": 105
    },
    {
      "midi": 56,
      "hit": false,
      "t": 105417.05200000027,
      "d": 350.4556250000023,
      "v": 112
    },
    {
      "midi": 59,
      "hit": false,
      "t": 105417.05200000027,
      "d": 350.4556250000023,
      "v": 111
    },
    {
      "midi": 63,
      "hit": false,
      "t": 105417.05200000027,
      "d": 350.4556250000023,
      "v": 102
    },
    {
      "midi": 68,
      "hit": false,
      "t": 105417.05200000027,
      "d": 350.4556250000023,
      "v": 113
    },
    {
      "midi": 63,
      "hit": false,
      "t": 105977.78100000028,
      "d": 280.36449999999604,
      "v": 115
    },
    {
      "midi": 68,
      "hit": false,
      "t": 105977.78100000028,
      "d": 280.36449999999604,
      "v": 106
    },
    {
      "midi": 56,
      "hit": false,
      "t": 105977.78100000028,
      "d": 350.4556250000023,
      "v": 104
    },
    {
      "midi": 59,
      "hit": false,
      "t": 105977.78100000028,
      "d": 350.4556250000023,
      "v": 107
    },
    {
      "midi": 55,
      "hit": false,
      "t": 106398.32775000029,
      "d": 140.18224999999802,
      "v": 120
    },
    {
      "midi": 59,
      "hit": false,
      "t": 106398.32775000029,
      "d": 140.18224999999802,
      "v": 102
    },
    {
      "midi": 63,
      "hit": false,
      "t": 106398.32775000029,
      "d": 140.18224999999802,
      "v": 103
    },
    {
      "midi": 67,
      "hit": false,
      "t": 106398.32775000029,
      "d": 140.18224999999802,
      "v": 103
    },
    {
      "midi": 67,
      "hit": false,
      "t": 106538.51000000029,
      "d": 70.09112500000629,
      "v": 111
    },
    {
      "midi": 59,
      "hit": false,
      "t": 106538.51000000029,
      "d": 280.3645000000106,
      "v": 107
    },
    {
      "midi": 63,
      "hit": false,
      "t": 106538.51000000029,
      "d": 280.3645000000106,
      "v": 101
    },
    {
      "midi": 55,
      "hit": false,
      "t": 106818.8745000003,
      "d": 350.4556250000023,
      "v": 106
    },
    {
      "midi": 63,
      "hit": false,
      "t": 106818.8745000003,
      "d": 350.4556250000023,
      "v": 107
    },
    {
      "midi": 67,
      "hit": false,
      "t": 106818.8745000003,
      "d": 350.4556250000023,
      "v": 115
    },
    {
      "midi": 59,
      "hit": false,
      "t": 106818.8745000003,
      "d": 420.5467500000086,
      "v": 120
    },
    {
      "midi": 55,
      "hit": false,
      "t": 107379.6035000003,
      "d": 70.09112500000629,
      "v": 113
    },
    {
      "midi": 67,
      "hit": false,
      "t": 107379.6035000003,
      "d": 70.09112500000629,
      "v": 101
    },
    {
      "midi": 59,
      "hit": false,
      "t": 107379.6035000003,
      "d": 140.18225000001257,
      "v": 115
    },
    {
      "midi": 63,
      "hit": false,
      "t": 107379.6035000003,
      "d": 140.18225000001257,
      "v": 114
    },
    {
      "midi": 54,
      "hit": false,
      "t": 107659.96800000031,
      "d": 350.4556250000023,
      "v": 115
    },
    {
      "midi": 56,
      "hit": false,
      "t": 107659.96800000031,
      "d": 350.4556250000023,
      "v": 113
    },
    {
      "midi": 59,
      "hit": false,
      "t": 107659.96800000031,
      "d": 560.7290000000066,
      "v": 120
    },
    {
      "midi": 63,
      "hit": false,
      "t": 107659.96800000031,
      "d": 560.7290000000066,
      "v": 111
    },
    {
      "midi": 66,
      "hit": false,
      "t": 107659.96800000031,
      "d": 560.7290000000066,
      "v": 118
    },
    {
      "midi": 54,
      "hit": false,
      "t": 108220.69700000032,
      "d": 280.36449999999604,
      "v": 117
    },
    {
      "midi": 56,
      "hit": false,
      "t": 108220.69700000032,
      "d": 280.36449999999604,
      "v": 114
    },
    {
      "midi": 59,
      "hit": false,
      "t": 108220.69700000032,
      "d": 280.36449999999604,
      "v": 113
    },
    {
      "midi": 63,
      "hit": false,
      "t": 108220.69700000032,
      "d": 280.36449999999604,
      "v": 110
    },
    {
      "midi": 66,
      "hit": false,
      "t": 108220.69700000032,
      "d": 280.36449999999604,
      "v": 115
    },
    {
      "midi": 53,
      "hit": false,
      "t": 108641.24375000031,
      "d": 140.18224999999802,
      "v": 106
    },
    {
      "midi": 56,
      "hit": false,
      "t": 108641.24375000031,
      "d": 140.18224999999802,
      "v": 116
    },
    {
      "midi": 59,
      "hit": false,
      "t": 108641.24375000031,
      "d": 140.18224999999802,
      "v": 111
    },
    {
      "midi": 65,
      "hit": false,
      "t": 108641.24375000031,
      "d": 140.18224999999802,
      "v": 108
    },
    {
      "midi": 56,
      "hit": false,
      "t": 108781.42600000031,
      "d": 210.2733750000043,
      "v": 103
    },
    {
      "midi": 59,
      "hit": false,
      "t": 108781.42600000031,
      "d": 210.2733750000043,
      "v": 108
    },
    {
      "midi": 65,
      "hit": false,
      "t": 108781.42600000031,
      "d": 210.2733750000043,
      "v": 103
    },
    {
      "midi": 53,
      "hit": false,
      "t": 108991.69937500032,
      "d": 420.54674999999406,
      "v": 112
    },
    {
      "midi": 56,
      "hit": false,
      "t": 108991.69937500032,
      "d": 420.54674999999406,
      "v": 113
    },
    {
      "midi": 59,
      "hit": false,
      "t": 108991.69937500032,
      "d": 420.54674999999406,
      "v": 112
    },
    {
      "midi": 65,
      "hit": false,
      "t": 108991.69937500032,
      "d": 420.54674999999406,
      "v": 120
    },
    {
      "midi": 56,
      "hit": false,
      "t": 109622.51950000032,
      "d": 70.09112500000629,
      "v": 105
    },
    {
      "midi": 59,
      "hit": false,
      "t": 109622.51950000032,
      "d": 70.09112500000629,
      "v": 106
    },
    {
      "midi": 53,
      "hit": false,
      "t": 109622.51950000032,
      "d": 140.18225000001257,
      "v": 110
    },
    {
      "midi": 65,
      "hit": false,
      "t": 109622.51950000032,
      "d": 140.18225000001257,
      "v": 102
    },
    {
      "midi": 58,
      "hit": false,
      "t": 109902.88400000033,
      "d": 350.4556250000023,
      "v": 117
    },
    {
      "midi": 61,
      "hit": false,
      "t": 109902.88400000033,
      "d": 350.4556250000023,
      "v": 111
    },
    {
      "midi": 66,
      "hit": false,
      "t": 109902.88400000033,
      "d": 350.4556250000023,
      "v": 105
    },
    {
      "midi": 54,
      "hit": false,
      "t": 109902.88400000033,
      "d": 1051.3668750000215,
      "v": 101
    },
    {
      "midi": 58,
      "hit": false,
      "t": 110463.61300000033,
      "d": 210.2733750000043,
      "v": 101
    },
    {
      "midi": 61,
      "hit": false,
      "t": 110463.61300000033,
      "d": 210.2733750000043,
      "v": 107
    },
    {
      "midi": 66,
      "hit": false,
      "t": 110463.61300000033,
      "d": 210.2733750000043,
      "v": 111
    },
    {
      "midi": 56,
      "hit": false,
      "t": 110884.15975000034,
      "d": 70.09112500000629,
      "v": 120
    },
    {
      "midi": 53,
      "hit": false,
      "t": 110884.15975000034,
      "d": 140.18225000001257,
      "v": 114
    },
    {
      "midi": 57,
      "hit": false,
      "t": 110884.15975000034,
      "d": 140.18225000001257,
      "v": 117
    },
    {
      "midi": 61,
      "hit": false,
      "t": 110884.15975000034,
      "d": 140.18225000001257,
      "v": 108
    },
    {
      "midi": 53,
      "hit": false,
      "t": 111024.34200000035,
      "d": 280.36449999999604,
      "v": 114
    },
    {
      "midi": 57,
      "hit": false,
      "t": 111024.34200000035,
      "d": 280.36449999999604,
      "v": 104
    },
    {
      "midi": 61,
      "hit": false,
      "t": 111024.34200000035,
      "d": 280.36449999999604,
      "v": 103
    },
    {
      "midi": 56,
      "hit": false,
      "t": 111304.70650000035,
      "d": 70.09112500000629,
      "v": 110
    },
    {
      "midi": 53,
      "hit": false,
      "t": 111304.70650000035,
      "d": 420.5467500000086,
      "v": 120
    },
    {
      "midi": 57,
      "hit": false,
      "t": 111304.70650000035,
      "d": 420.5467500000086,
      "v": 119
    },
    {
      "midi": 61,
      "hit": false,
      "t": 111304.70650000035,
      "d": 420.5467500000086,
      "v": 104
    },
    {
      "midi": 53,
      "hit": false,
      "t": 111865.43550000036,
      "d": 70.09112500000629,
      "v": 115
    },
    {
      "midi": 57,
      "hit": false,
      "t": 111865.43550000036,
      "d": 70.09112500000629,
      "v": 103
    },
    {
      "midi": 61,
      "hit": false,
      "t": 111865.43550000036,
      "d": 140.18225000001257,
      "v": 116
    },
    {
      "midi": 66,
      "hit": false,
      "t": 112145.80000000037,
      "d": 280.36449999999604,
      "v": 120
    },
    {
      "midi": 58,
      "hit": false,
      "t": 112145.80000000037,
      "d": 560.7289999999921,
      "v": 101
    },
    {
      "midi": 61,
      "hit": false,
      "t": 112145.80000000037,
      "d": 560.7289999999921,
      "v": 108
    },
    {
      "midi": 54,
      "hit": false,
      "t": 112145.80000000037,
      "d": 2032.6426250000077,
      "v": 120
    },
    {
      "midi": 58,
      "hit": false,
      "t": 112706.52900000036,
      "d": 280.36449999999604,
      "v": 106
    },
    {
      "midi": 61,
      "hit": false,
      "t": 112706.52900000036,
      "d": 280.36449999999604,
      "v": 116
    },
    {
      "midi": 66,
      "hit": false,
      "t": 112706.52900000036,
      "d": 280.36449999999604,
      "v": 120
    },
    {
      "midi": 58,
      "hit": false,
      "t": 113127.07575000035,
      "d": 70.09112500000629,
      "v": 113
    },
    {
      "midi": 61,
      "hit": false,
      "t": 113127.07575000035,
      "d": 70.09112500000629,
      "v": 119
    },
    {
      "midi": 66,
      "hit": false,
      "t": 113127.07575000035,
      "d": 140.18225000001257,
      "v": 110
    },
    {
      "midi": 58,
      "hit": false,
      "t": 113547.62250000036,
      "d": 350.4556250000023,
      "v": 110
    },
    {
      "midi": 61,
      "hit": false,
      "t": 113547.62250000036,
      "d": 420.5467500000086,
      "v": 119
    },
    {
      "midi": 66,
      "hit": false,
      "t": 113547.62250000036,
      "d": 420.5467500000086,
      "v": 104
    },
    {
      "midi": 58,
      "hit": false,
      "t": 114108.35150000037,
      "d": 70.09112500000629,
      "v": 109
    },
    {
      "midi": 61,
      "hit": false,
      "t": 114108.35150000037,
      "d": 70.09112500000629,
      "v": 103
    },
    {
      "midi": 66,
      "hit": false,
      "t": 114108.35150000037,
      "d": 140.18225000001257,
      "v": 111
    },
    {
      "midi": 58,
      "hit": false,
      "t": 114388.71600000038,
      "d": 350.4556250000023,
      "v": 120
    },
    {
      "midi": 61,
      "hit": false,
      "t": 114388.71600000038,
      "d": 420.5467500000086,
      "v": 103
    },
    {
      "midi": 66,
      "hit": false,
      "t": 114388.71600000038,
      "d": 420.5467500000086,
      "v": 112
    },
    {
      "midi": 70,
      "hit": false,
      "t": 114388.71600000038,
      "d": 2102.7337500000285,
      "v": 103
    },
    {
      "midi": 58,
      "hit": false,
      "t": 114949.44500000039,
      "d": 280.36449999999604,
      "v": 115
    },
    {
      "midi": 61,
      "hit": false,
      "t": 114949.44500000039,
      "d": 280.36449999999604,
      "v": 119
    },
    {
      "midi": 66,
      "hit": false,
      "t": 114949.44500000039,
      "d": 280.36449999999604,
      "v": 120
    },
    {
      "midi": 58,
      "hit": false,
      "t": 115369.99175000038,
      "d": 70.09112500000629,
      "v": 111
    },
    {
      "midi": 61,
      "hit": false,
      "t": 115369.99175000038,
      "d": 140.18225000001257,
      "v": 108
    },
    {
      "midi": 66,
      "hit": false,
      "t": 115369.99175000038,
      "d": 140.18225000001257,
      "v": 113
    },
    {
      "midi": 58,
      "hit": false,
      "t": 115790.53850000039,
      "d": 350.4556250000023,
      "v": 119
    },
    {
      "midi": 61,
      "hit": false,
      "t": 115790.53850000039,
      "d": 350.4556250000023,
      "v": 109
    },
    {
      "midi": 66,
      "hit": false,
      "t": 115790.53850000039,
      "d": 350.4556250000023,
      "v": 105
    },
    {
      "midi": 58,
      "hit": false,
      "t": 116351.2675000004,
      "d": 70.09112500000629,
      "v": 117
    },
    {
      "midi": 61,
      "hit": false,
      "t": 116351.2675000004,
      "d": 140.18225000001257,
      "v": 107
    },
    {
      "midi": 66,
      "hit": false,
      "t": 116351.2675000004,
      "d": 140.18225000001257,
      "v": 111
    },
    {
      "midi": 58,
      "hit": false,
      "t": 116631.6320000004,
      "d": 560.7290000000066,
      "v": 119
    },
    {
      "midi": 62,
      "hit": false,
      "t": 116631.6320000004,
      "d": 560.7290000000066,
      "v": 106
    },
    {
      "midi": 66,
      "hit": false,
      "t": 116631.6320000004,
      "d": 560.7290000000066,
      "v": 104
    },
    {
      "midi": 70,
      "hit": false,
      "t": 116631.6320000004,
      "d": 2172.8248750000203,
      "v": 105
    },
    {
      "midi": 58,
      "hit": false,
      "t": 117192.36100000041,
      "d": 280.36449999999604,
      "v": 118
    },
    {
      "midi": 62,
      "hit": false,
      "t": 117192.36100000041,
      "d": 280.36449999999604,
      "v": 111
    },
    {
      "midi": 66,
      "hit": false,
      "t": 117192.36100000041,
      "d": 280.36449999999604,
      "v": 104
    },
    {
      "midi": 58,
      "hit": false,
      "t": 117612.9077500004,
      "d": 140.18224999999802,
      "v": 115
    },
    {
      "midi": 62,
      "hit": false,
      "t": 117612.9077500004,
      "d": 140.18224999999802,
      "v": 105
    },
    {
      "midi": 66,
      "hit": false,
      "t": 117612.9077500004,
      "d": 140.18224999999802,
      "v": 108
    },
    {
      "midi": 58,
      "hit": false,
      "t": 118033.4545000004,
      "d": 350.4556250000023,
      "v": 114
    },
    {
      "midi": 62,
      "hit": false,
      "t": 118033.4545000004,
      "d": 350.4556250000023,
      "v": 111
    },
    {
      "midi": 66,
      "hit": false,
      "t": 118033.4545000004,
      "d": 350.4556250000023,
      "v": 104
    },
    {
      "midi": 58,
      "hit": false,
      "t": 118594.1835000004,
      "d": 70.09112500000629,
      "v": 110
    },
    {
      "midi": 62,
      "hit": false,
      "t": 118594.1835000004,
      "d": 70.09112500000629,
      "v": 104
    },
    {
      "midi": 66,
      "hit": false,
      "t": 118594.1835000004,
      "d": 140.18225000001257,
      "v": 112
    },
    {
      "midi": 58,
      "hit": false,
      "t": 118874.54800000043,
      "d": 350.4556250000023,
      "v": 113
    },
    {
      "midi": 70,
      "hit": false,
      "t": 118874.54800000043,
      "d": 420.5467500000086,
      "v": 119
    },
    {
      "midi": 63,
      "hit": false,
      "t": 118874.54800000043,
      "d": 560.7290000000066,
      "v": 113
    },
    {
      "midi": 66,
      "hit": false,
      "t": 118874.54800000043,
      "d": 560.7290000000066,
      "v": 108
    },
    {
      "midi": 66,
      "hit": false,
      "t": 119435.27700000044,
      "d": 280.36449999999604,
      "v": 103
    },
    {
      "midi": 58,
      "hit": false,
      "t": 119435.27700000044,
      "d": 350.4556250000023,
      "v": 116
    },
    {
      "midi": 63,
      "hit": false,
      "t": 119435.27700000044,
      "d": 350.4556250000023,
      "v": 115
    },
    {
      "midi": 70,
      "hit": false,
      "t": 119435.27700000044,
      "d": 350.4556250000023,
      "v": 117
    },
    {
      "midi": 58,
      "hit": false,
      "t": 119855.82375000045,
      "d": 140.18224999999802,
      "v": 111
    },
    {
      "midi": 63,
      "hit": false,
      "t": 119855.82375000045,
      "d": 140.18224999999802,
      "v": 114
    },
    {
      "midi": 66,
      "hit": false,
      "t": 119855.82375000045,
      "d": 140.18224999999802,
      "v": 113
    },
    {
      "midi": 70,
      "hit": false,
      "t": 119855.82375000045,
      "d": 140.18224999999802,
      "v": 103
    },
    {
      "midi": 58,
      "hit": false,
      "t": 120276.37050000044,
      "d": 350.4556250000023,
      "v": 105
    },
    {
      "midi": 63,
      "hit": false,
      "t": 120276.37050000044,
      "d": 350.4556250000023,
      "v": 103
    },
    {
      "midi": 66,
      "hit": false,
      "t": 120276.37050000044,
      "d": 350.4556250000023,
      "v": 119
    },
    {
      "midi": 70,
      "hit": false,
      "t": 120276.37050000044,
      "d": 350.4556250000023,
      "v": 110
    },
    {
      "midi": 63,
      "hit": false,
      "t": 120696.91725000045,
      "d": 140.18224999999802,
      "v": 112
    },
    {
      "midi": 66,
      "hit": false,
      "t": 120696.91725000045,
      "d": 210.2733750000043,
      "v": 114
    },
    {
      "midi": 70,
      "hit": false,
      "t": 120696.91725000045,
      "d": 210.2733750000043,
      "v": 112
    },
    {
      "midi": 58,
      "hit": false,
      "t": 120696.91725000045,
      "d": 280.3645000000106,
      "v": 113
    },
    {
      "midi": 56,
      "hit": false,
      "t": 121117.46400000046,
      "d": 420.54674999999406,
      "v": 117
    },
    {
      "midi": 59,
      "hit": false,
      "t": 121117.46400000046,
      "d": 420.54674999999406,
      "v": 112
    },
    {
      "midi": 63,
      "hit": false,
      "t": 121117.46400000046,
      "d": 420.54674999999406,
      "v": 106
    },
    {
      "midi": 68,
      "hit": false,
      "t": 121117.46400000046,
      "d": 420.54674999999406,
      "v": 109
    },
    {
      "midi": 56,
      "hit": false,
      "t": 121678.19300000045,
      "d": 280.36449999999604,
      "v": 110
    },
    {
      "midi": 59,
      "hit": false,
      "t": 121678.19300000045,
      "d": 280.36449999999604,
      "v": 101
    },
    {
      "midi": 63,
      "hit": false,
      "t": 121678.19300000045,
      "d": 280.36449999999604,
      "v": 119
    },
    {
      "midi": 68,
      "hit": false,
      "t": 121678.19300000045,
      "d": 280.36449999999604,
      "v": 111
    },
    {
      "midi": 56,
      "hit": false,
      "t": 122098.73975000044,
      "d": 140.18224999999802,
      "v": 115
    },
    {
      "midi": 59,
      "hit": false,
      "t": 122098.73975000044,
      "d": 140.18224999999802,
      "v": 110
    },
    {
      "midi": 63,
      "hit": false,
      "t": 122098.73975000044,
      "d": 140.18224999999802,
      "v": 115
    },
    {
      "midi": 68,
      "hit": false,
      "t": 122098.73975000044,
      "d": 140.18224999999802,
      "v": 120
    },
    {
      "midi": 56,
      "hit": false,
      "t": 122519.28650000044,
      "d": 350.4556250000023,
      "v": 120
    },
    {
      "midi": 59,
      "hit": false,
      "t": 122519.28650000044,
      "d": 350.4556250000023,
      "v": 119
    },
    {
      "midi": 63,
      "hit": false,
      "t": 122519.28650000044,
      "d": 350.4556250000023,
      "v": 117
    },
    {
      "midi": 68,
      "hit": false,
      "t": 122519.28650000044,
      "d": 350.4556250000023,
      "v": 114
    },
    {
      "midi": 66,
      "hit": false,
      "t": 122799.65100000043,
      "d": 490.63787500002945,
      "v": 116
    },
    {
      "midi": 56,
      "hit": false,
      "t": 123080.01550000045,
      "d": 70.09112500000629,
      "v": 109
    },
    {
      "midi": 68,
      "hit": false,
      "t": 123080.01550000045,
      "d": 70.09112500000629,
      "v": 107
    },
    {
      "midi": 59,
      "hit": false,
      "t": 123080.01550000045,
      "d": 140.18225000001257,
      "v": 117
    },
    {
      "midi": 63,
      "hit": false,
      "t": 123080.01550000045,
      "d": 140.18225000001257,
      "v": 105
    },
    {
      "midi": 58,
      "hit": false,
      "t": 123360.38000000047,
      "d": 350.4556250000023,
      "v": 115
    },
    {
      "midi": 61,
      "hit": false,
      "t": 123360.38000000047,
      "d": 560.7290000000066,
      "v": 105
    },
    {
      "midi": 65,
      "hit": false,
      "t": 123360.38000000047,
      "d": 560.7290000000066,
      "v": 102
    },
    {
      "midi": 53,
      "hit": false,
      "t": 123360.38000000047,
      "d": 2032.6426250000222,
      "v": 102
    },
    {
      "midi": 56,
      "hit": false,
      "t": 123360.38000000047,
      "d": 2102.7337500000285,
      "v": 114
    },
    {
      "midi": 58,
      "hit": false,
      "t": 123921.10900000048,
      "d": 280.36449999999604,
      "v": 118
    },
    {
      "midi": 61,
      "hit": false,
      "t": 123921.10900000048,
      "d": 280.36449999999604,
      "v": 104
    },
    {
      "midi": 65,
      "hit": false,
      "t": 123921.10900000048,
      "d": 280.36449999999604,
      "v": 117
    },
    {
      "midi": 68,
      "hit": false,
      "t": 123921.10900000048,
      "d": 280.36449999999604,
      "v": 118
    },
    {
      "midi": 58,
      "hit": false,
      "t": 124341.65575000047,
      "d": 70.09112500000629,
      "v": 118
    },
    {
      "midi": 61,
      "hit": false,
      "t": 124341.65575000047,
      "d": 140.18225000001257,
      "v": 114
    },
    {
      "midi": 65,
      "hit": false,
      "t": 124341.65575000047,
      "d": 140.18225000001257,
      "v": 107
    },
    {
      "midi": 68,
      "hit": false,
      "t": 124341.65575000047,
      "d": 140.18225000001257,
      "v": 106
    },
    {
      "midi": 68,
      "hit": false,
      "t": 124481.83800000048,
      "d": 280.36449999999604,
      "v": 102
    },
    {
      "midi": 58,
      "hit": false,
      "t": 124762.20250000048,
      "d": 350.4556250000023,
      "v": 111
    },
    {
      "midi": 61,
      "hit": false,
      "t": 124762.20250000048,
      "d": 350.4556250000023,
      "v": 114
    },
    {
      "midi": 65,
      "hit": false,
      "t": 124762.20250000048,
      "d": 350.4556250000023,
      "v": 112
    },
    {
      "midi": 68,
      "hit": false,
      "t": 124762.20250000048,
      "d": 350.4556250000023,
      "v": 101
    },
    {
      "midi": 58,
      "hit": false,
      "t": 125182.74925000049,
      "d": 210.2733750000043,
      "v": 104
    },
    {
      "midi": 65,
      "hit": false,
      "t": 125182.74925000049,
      "d": 210.2733750000043,
      "v": 113
    },
    {
      "midi": 68,
      "hit": false,
      "t": 125182.74925000049,
      "d": 210.2733750000043,
      "v": 111
    },
    {
      "midi": 61,
      "hit": false,
      "t": 125182.74925000049,
      "d": 280.3645000000106,
      "v": 114
    },
    {
      "midi": 66,
      "hit": false,
      "t": 125603.2960000005,
      "d": 280.36449999999604,
      "v": 110
    },
    {
      "midi": 54,
      "hit": false,
      "t": 125603.2960000005,
      "d": 350.4556250000023,
      "v": 114
    },
    {
      "midi": 58,
      "hit": false,
      "t": 125603.2960000005,
      "d": 350.4556250000023,
      "v": 111
    },
    {
      "midi": 61,
      "hit": false,
      "t": 125603.2960000005,
      "d": 350.4556250000023,
      "v": 113
    },
    {
      "midi": 63,
      "hit": false,
      "t": 125603.2960000005,
      "d": 350.4556250000023,
      "v": 111
    },
    {
      "midi": 54,
      "hit": false,
      "t": 126164.0250000005,
      "d": 280.36449999999604,
      "v": 110
    },
    {
      "midi": 61,
      "hit": false,
      "t": 126164.0250000005,
      "d": 280.36449999999604,
      "v": 103
    },
    {
      "midi": 66,
      "hit": false,
      "t": 126164.0250000005,
      "d": 280.36449999999604,
      "v": 108
    },
    {
      "midi": 58,
      "hit": false,
      "t": 126164.0250000005,
      "d": 350.4556250000023,
      "v": 120
    },
    {
      "midi": 63,
      "hit": false,
      "t": 126164.0250000005,
      "d": 350.4556250000023,
      "v": 119
    },
    {
      "midi": 54,
      "hit": false,
      "t": 126584.57175000051,
      "d": 140.18224999999802,
      "v": 111
    },
    {
      "midi": 58,
      "hit": false,
      "t": 126584.57175000051,
      "d": 140.18224999999802,
      "v": 115
    },
    {
      "midi": 61,
      "hit": false,
      "t": 126584.57175000051,
      "d": 140.18224999999802,
      "v": 120
    },
    {
      "midi": 63,
      "hit": false,
      "t": 126584.57175000051,
      "d": 140.18224999999802,
      "v": 118
    },
    {
      "midi": 66,
      "hit": false,
      "t": 126584.57175000051,
      "d": 140.18224999999802,
      "v": 101
    },
    {
      "midi": 66,
      "hit": false,
      "t": 127005.1185000005,
      "d": 630.8201249999984,
      "v": 106
    },
    {
      "midi": 54,
      "hit": false,
      "t": 127005.1185000005,
      "d": 700.9112500000047,
      "v": 101
    },
    {
      "midi": 58,
      "hit": false,
      "t": 127005.1185000005,
      "d": 700.9112500000047,
      "v": 105
    },
    {
      "midi": 61,
      "hit": false,
      "t": 127005.1185000005,
      "d": 700.9112500000047,
      "v": 105
    },
    {
      "midi": 63,
      "hit": false,
      "t": 127005.1185000005,
      "d": 700.9112500000047,
      "v": 120
    },
    {
      "midi": 51,
      "hit": false,
      "t": 127846.21200000051,
      "d": 981.2757500000007,
      "v": 117
    },
    {
      "midi": 63,
      "hit": false,
      "t": 127846.21200000051,
      "d": 981.2757500000007,
      "v": 109
    },
    {
      "midi": 68,
      "hit": false,
      "t": 127846.21200000051,
      "d": 981.2757500000007,
      "v": 109
    },
    {
      "midi": 59,
      "hit": false,
      "t": 127846.21200000051,
      "d": 1051.366875000007,
      "v": 118
    },
    {
      "midi": 54,
      "hit": false,
      "t": 127846.21200000051,
      "d": 1121.4580000000133,
      "v": 111
    },
    {
      "midi": 56,
      "hit": false,
      "t": 128967.67000000052,
      "d": 560.7290000000066,
      "v": 119
    },
    {
      "midi": 53,
      "hit": false,
      "t": 128967.67000000052,
      "d": 911.184625000009,
      "v": 101
    },
    {
      "midi": 61,
      "hit": false,
      "t": 128967.67000000052,
      "d": 911.184625000009,
      "v": 101
    },
    {
      "midi": 65,
      "hit": false,
      "t": 128967.67000000052,
      "d": 911.184625000009,
      "v": 104
    },
    {
      "midi": 70,
      "hit": false,
      "t": 128967.67000000052,
      "d": 911.184625000009,
      "v": 115
    },
    {
      "midi": 56,
      "hit": false,
      "t": 129528.39900000053,
      "d": 280.36449999999604,
      "v": 103
    },
    {
      "midi": 54,
      "hit": false,
      "t": 130089.12800000054,
      "d": 350.4556250000023,
      "v": 116
    },
    {
      "midi": 58,
      "hit": false,
      "t": 130089.12800000054,
      "d": 350.4556250000023,
      "v": 117
    },
    {
      "midi": 63,
      "hit": false,
      "t": 130089.12800000054,
      "d": 350.4556250000023,
      "v": 113
    },
    {
      "midi": 57,
      "hit": false,
      "t": 130649.85700000054,
      "d": 70.09112500000629,
      "v": 113
    },
    {
      "midi": 63,
      "hit": false,
      "t": 130649.85700000054,
      "d": 140.18225000001257,
      "v": 106
    },
    {
      "midi": 56,
      "hit": false,
      "t": 130930.22150000055,
      "d": 140.18224999999802,
      "v": 103
    },
    {
      "midi": 62,
      "hit": false,
      "t": 130930.22150000055,
      "d": 140.18224999999802,
      "v": 113
    },
    {
      "midi": 55,
      "hit": false,
      "t": 131210.58600000056,
      "d": 280.36449999999604,
      "v": 108
    },
    {
      "midi": 61,
      "hit": false,
      "t": 131210.58600000056,
      "d": 280.36449999999604,
      "v": 115
    },
    {
      "midi": 59,
      "hit": false,
      "t": 131631.13275000057,
      "d": 350.4556250000023,
      "v": 118
    },
    {
      "midi": 54,
      "hit": false,
      "t": 131631.13275000057,
      "d": 420.5467500000086,
      "v": 102
    },
    {
      "midi": 49,
      "hit": false,
      "t": 132051.67950000058,
      "d": 140.18225000001257,
      "v": 118
    },
    {
      "midi": 54,
      "hit": false,
      "t": 132332.0440000006,
      "d": 560.7289999999921,
      "v": 109
    },
    {
      "midi": 58,
      "hit": false,
      "t": 132332.0440000006,
      "d": 560.7289999999921,
      "v": 114
    },
    {
      "midi": 61,
      "hit": false,
      "t": 132332.0440000006,
      "d": 560.7289999999921,
      "v": 113
    },
    {
      "midi": 54,
      "hit": false,
      "t": 132892.7730000006,
      "d": 280.36449999999604,
      "v": 104
    },
    {
      "midi": 58,
      "hit": false,
      "t": 132892.7730000006,
      "d": 280.36449999999604,
      "v": 102
    },
    {
      "midi": 61,
      "hit": false,
      "t": 132892.7730000006,
      "d": 280.36449999999604,
      "v": 112
    },
    {
      "midi": 54,
      "hit": false,
      "t": 133313.3197500006,
      "d": 140.18225000001257,
      "v": 110
    },
    {
      "midi": 58,
      "hit": false,
      "t": 133313.3197500006,
      "d": 140.18225000001257,
      "v": 110
    },
    {
      "midi": 62,
      "hit": false,
      "t": 133313.3197500006,
      "d": 140.18225000001257,
      "v": 101
    },
    {
      "midi": 54,
      "hit": false,
      "t": 133453.50200000062,
      "d": 280.36449999999604,
      "v": 108
    },
    {
      "midi": 58,
      "hit": false,
      "t": 133453.50200000062,
      "d": 280.36449999999604,
      "v": 108
    },
    {
      "midi": 62,
      "hit": false,
      "t": 133453.50200000062,
      "d": 280.36449999999604,
      "v": 111
    },
    {
      "midi": 54,
      "hit": false,
      "t": 133733.86650000061,
      "d": 350.4556250000023,
      "v": 113
    },
    {
      "midi": 58,
      "hit": false,
      "t": 133733.86650000061,
      "d": 350.4556250000023,
      "v": 108
    },
    {
      "midi": 62,
      "hit": false,
      "t": 133733.86650000061,
      "d": 420.5467500000086,
      "v": 106
    },
    {
      "midi": 54,
      "hit": false,
      "t": 134294.59550000064,
      "d": 70.09112500000629,
      "v": 106
    },
    {
      "midi": 58,
      "hit": false,
      "t": 134294.59550000064,
      "d": 70.09112500000629,
      "v": 105
    },
    {
      "midi": 62,
      "hit": false,
      "t": 134294.59550000064,
      "d": 140.18225000001257,
      "v": 105
    },
    {
      "midi": 54,
      "hit": false,
      "t": 134574.96000000066,
      "d": 350.4556250000023,
      "v": 102
    },
    {
      "midi": 58,
      "hit": false,
      "t": 134574.96000000066,
      "d": 350.4556250000023,
      "v": 103
    },
    {
      "midi": 63,
      "hit": false,
      "t": 134574.96000000066,
      "d": 350.4556250000023,
      "v": 111
    },
    {
      "midi": 54,
      "hit": false,
      "t": 135135.68900000065,
      "d": 280.36449999999604,
      "v": 111
    },
    {
      "midi": 58,
      "hit": false,
      "t": 135135.68900000065,
      "d": 280.36449999999604,
      "v": 116
    },
    {
      "midi": 63,
      "hit": false,
      "t": 135135.68900000065,
      "d": 350.4556250000023,
      "v": 107
    },
    {
      "midi": 55,
      "hit": false,
      "t": 135556.23575000066,
      "d": 140.18225000001257,
      "v": 117
    },
    {
      "midi": 58,
      "hit": false,
      "t": 135556.23575000066,
      "d": 140.18225000001257,
      "v": 105
    },
    {
      "midi": 61,
      "hit": false,
      "t": 135556.23575000066,
      "d": 140.18225000001257,
      "v": 103
    },
    {
      "midi": 64,
      "hit": false,
      "t": 135556.23575000066,
      "d": 140.18225000001257,
      "v": 114
    },
    {
      "midi": 55,
      "hit": false,
      "t": 135696.41800000067,
      "d": 280.36449999999604,
      "v": 103
    },
    {
      "midi": 61,
      "hit": false,
      "t": 135696.41800000067,
      "d": 280.36449999999604,
      "v": 103
    },
    {
      "midi": 64,
      "hit": false,
      "t": 135696.41800000067,
      "d": 280.36449999999604,
      "v": 117
    },
    {
      "midi": 55,
      "hit": false,
      "t": 135976.78250000067,
      "d": 350.4556250000023,
      "v": 110
    },
    {
      "midi": 58,
      "hit": false,
      "t": 135976.78250000067,
      "d": 350.4556250000023,
      "v": 102
    },
    {
      "midi": 61,
      "hit": false,
      "t": 135976.78250000067,
      "d": 350.4556250000023,
      "v": 105
    },
    {
      "midi": 64,
      "hit": false,
      "t": 135976.78250000067,
      "d": 350.4556250000023,
      "v": 107
    },
    {
      "midi": 55,
      "hit": false,
      "t": 136397.32925000068,
      "d": 210.27337499998976,
      "v": 112
    },
    {
      "midi": 58,
      "hit": false,
      "t": 136397.32925000068,
      "d": 210.27337499998976,
      "v": 113
    },
    {
      "midi": 61,
      "hit": false,
      "t": 136397.32925000068,
      "d": 210.27337499998976,
      "v": 119
    },
    {
      "midi": 64,
      "hit": false,
      "t": 136397.32925000068,
      "d": 210.27337499998976,
      "v": 113
    },
    {
      "midi": 54,
      "hit": false,
      "t": 136817.87600000066,
      "d": 350.4556250000023,
      "v": 107
    },
    {
      "midi": 59,
      "hit": false,
      "t": 136817.87600000066,
      "d": 350.4556250000023,
      "v": 105
    },
    {
      "midi": 63,
      "hit": false,
      "t": 136817.87600000066,
      "d": 350.4556250000023,
      "v": 112
    },
    {
      "midi": 54,
      "hit": false,
      "t": 137378.60500000065,
      "d": 280.36449999999604,
      "v": 120
    },
    {
      "midi": 59,
      "hit": false,
      "t": 137378.60500000065,
      "d": 280.36449999999604,
      "v": 114
    },
    {
      "midi": 63,
      "hit": false,
      "t": 137378.60500000065,
      "d": 280.36449999999604,
      "v": 108
    },
    {
      "midi": 54,
      "hit": false,
      "t": 137799.15175000066,
      "d": 140.18225000001257,
      "v": 102
    },
    {
      "midi": 59,
      "hit": false,
      "t": 137799.15175000066,
      "d": 140.18225000001257,
      "v": 120
    },
    {
      "midi": 63,
      "hit": false,
      "t": 137799.15175000066,
      "d": 140.18225000001257,
      "v": 117
    },
    {
      "midi": 54,
      "hit": false,
      "t": 138219.69850000067,
      "d": 350.4556250000023,
      "v": 101
    },
    {
      "midi": 59,
      "hit": false,
      "t": 138219.69850000067,
      "d": 350.4556250000023,
      "v": 106
    },
    {
      "midi": 63,
      "hit": false,
      "t": 138219.69850000067,
      "d": 350.4556250000023,
      "v": 106
    },
    {
      "midi": 54,
      "hit": false,
      "t": 138780.42750000066,
      "d": 70.09112500000629,
      "v": 101
    },
    {
      "midi": 59,
      "hit": false,
      "t": 138780.42750000066,
      "d": 140.18225000001257,
      "v": 111
    },
    {
      "midi": 63,
      "hit": false,
      "t": 138780.42750000066,
      "d": 140.18225000001257,
      "v": 104
    },
    {
      "midi": 56,
      "hit": false,
      "t": 139060.79200000069,
      "d": 350.4556250000023,
      "v": 115
    },
    {
      "midi": 59,
      "hit": false,
      "t": 139060.79200000069,
      "d": 350.4556250000023,
      "v": 118
    },
    {
      "midi": 65,
      "hit": false,
      "t": 139060.79200000069,
      "d": 350.4556250000023,
      "v": 105
    },
    {
      "midi": 61,
      "hit": false,
      "t": 139060.79200000069,
      "d": 2172.8248750000494,
      "v": 105
    },
    {
      "midi": 56,
      "hit": false,
      "t": 139621.52100000068,
      "d": 280.36449999999604,
      "v": 116
    },
    {
      "midi": 59,
      "hit": false,
      "t": 139621.52100000068,
      "d": 280.36449999999604,
      "v": 108
    },
    {
      "midi": 65,
      "hit": false,
      "t": 139621.52100000068,
      "d": 280.36449999999604,
      "v": 106
    },
    {
      "midi": 56,
      "hit": false,
      "t": 140042.0677500007,
      "d": 140.18225000001257,
      "v": 113
    },
    {
      "midi": 59,
      "hit": false,
      "t": 140042.0677500007,
      "d": 140.18225000001257,
      "v": 109
    },
    {
      "midi": 65,
      "hit": false,
      "t": 140042.0677500007,
      "d": 140.18225000001257,
      "v": 119
    },
    {
      "midi": 56,
      "hit": false,
      "t": 140462.6145000007,
      "d": 420.5467500000086,
      "v": 110
    },
    {
      "midi": 59,
      "hit": false,
      "t": 140462.6145000007,
      "d": 420.5467500000086,
      "v": 108
    },
    {
      "midi": 65,
      "hit": false,
      "t": 140462.6145000007,
      "d": 420.5467500000086,
      "v": 116
    },
    {
      "midi": 56,
      "hit": false,
      "t": 141023.34350000072,
      "d": 70.09112500000629,
      "v": 109
    },
    {
      "midi": 59,
      "hit": false,
      "t": 141023.34350000072,
      "d": 140.18225000001257,
      "v": 104
    },
    {
      "midi": 65,
      "hit": false,
      "t": 141023.34350000072,
      "d": 140.18225000001257,
      "v": 101
    },
    {
      "midi": 59,
      "hit": false,
      "t": 141303.70800000074,
      "d": 140.18225000001257,
      "v": 101
    },
    {
      "midi": 63,
      "hit": false,
      "t": 141303.70800000074,
      "d": 140.18225000001257,
      "v": 117
    },
    {
      "midi": 68,
      "hit": false,
      "t": 141303.70800000074,
      "d": 140.18225000001257,
      "v": 105
    },
    {
      "midi": 59,
      "hit": false,
      "t": 141584.07250000077,
      "d": 280.36449999999604,
      "v": 111
    },
    {
      "midi": 68,
      "hit": false,
      "t": 141584.07250000077,
      "d": 280.36449999999604,
      "v": 117
    },
    {
      "midi": 63,
      "hit": false,
      "t": 141584.07250000077,
      "d": 350.4556250000023,
      "v": 114
    },
    {
      "midi": 59,
      "hit": false,
      "t": 142004.61925000077,
      "d": 280.36449999999604,
      "v": 105
    },
    {
      "midi": 63,
      "hit": false,
      "t": 142004.61925000077,
      "d": 280.36449999999604,
      "v": 112
    },
    {
      "midi": 68,
      "hit": false,
      "t": 142004.61925000077,
      "d": 280.36449999999604,
      "v": 104
    },
    {
      "midi": 59,
      "hit": false,
      "t": 142425.16600000078,
      "d": 70.09112500000629,
      "v": 117
    },
    {
      "midi": 63,
      "hit": false,
      "t": 142425.16600000078,
      "d": 140.18225000001257,
      "v": 111
    },
    {
      "midi": 67,
      "hit": false,
      "t": 142425.16600000078,
      "d": 280.36450000002515,
      "v": 116
    },
    {
      "midi": 59,
      "hit": false,
      "t": 142705.5305000008,
      "d": 280.36449999999604,
      "v": 113
    },
    {
      "midi": 67,
      "hit": false,
      "t": 142705.5305000008,
      "d": 280.36449999999604,
      "v": 112
    },
    {
      "midi": 63,
      "hit": false,
      "t": 142705.5305000008,
      "d": 350.4556250000023,
      "v": 102
    },
    {
      "midi": 59,
      "hit": false,
      "t": 143126.07725000082,
      "d": 280.36449999999604,
      "v": 114
    },
    {
      "midi": 63,
      "hit": false,
      "t": 143126.07725000082,
      "d": 280.36449999999604,
      "v": 109
    },
    {
      "midi": 67,
      "hit": false,
      "t": 143126.07725000082,
      "d": 280.36449999999604,
      "v": 116
    },
    {
      "midi": 59,
      "hit": false,
      "t": 143546.62400000083,
      "d": 280.36449999999604,
      "v": 103
    },
    {
      "midi": 63,
      "hit": false,
      "t": 143546.62400000083,
      "d": 350.4556250000023,
      "v": 108
    },
    {
      "midi": 66,
      "hit": false,
      "t": 143546.62400000083,
      "d": 350.4556250000023,
      "v": 116
    },
    {
      "midi": 59,
      "hit": false,
      "t": 144107.35300000082,
      "d": 280.36449999999604,
      "v": 112
    },
    {
      "midi": 63,
      "hit": false,
      "t": 144107.35300000082,
      "d": 350.4556250000023,
      "v": 118
    },
    {
      "midi": 66,
      "hit": false,
      "t": 144107.35300000082,
      "d": 350.4556250000023,
      "v": 114
    },
    {
      "midi": 56,
      "hit": false,
      "t": 144527.89975000083,
      "d": 140.18225000001257,
      "v": 118
    },
    {
      "midi": 59,
      "hit": false,
      "t": 144527.89975000083,
      "d": 140.18225000001257,
      "v": 102
    },
    {
      "midi": 65,
      "hit": false,
      "t": 144527.89975000083,
      "d": 140.18225000001257,
      "v": 109
    },
    {
      "midi": 56,
      "hit": false,
      "t": 144668.08200000084,
      "d": 280.36449999999604,
      "v": 109
    },
    {
      "midi": 59,
      "hit": false,
      "t": 144668.08200000084,
      "d": 280.36449999999604,
      "v": 106
    },
    {
      "midi": 65,
      "hit": false,
      "t": 144668.08200000084,
      "d": 280.36449999999604,
      "v": 110
    },
    {
      "midi": 56,
      "hit": false,
      "t": 144948.44650000083,
      "d": 420.5467500000086,
      "v": 113
    },
    {
      "midi": 59,
      "hit": false,
      "t": 144948.44650000083,
      "d": 420.5467500000086,
      "v": 117
    },
    {
      "midi": 65,
      "hit": false,
      "t": 144948.44650000083,
      "d": 420.5467500000086,
      "v": 101
    },
    {
      "midi": 56,
      "hit": false,
      "t": 145509.17550000086,
      "d": 70.09112500000629,
      "v": 103
    },
    {
      "midi": 59,
      "hit": false,
      "t": 145509.17550000086,
      "d": 140.18225000001257,
      "v": 117
    },
    {
      "midi": 65,
      "hit": false,
      "t": 145509.17550000086,
      "d": 140.18225000001257,
      "v": 102
    },
    {
      "midi": 61,
      "hit": false,
      "t": 145789.54000000088,
      "d": 350.4556250000023,
      "v": 118
    },
    {
      "midi": 65,
      "hit": false,
      "t": 145789.54000000088,
      "d": 350.4556250000023,
      "v": 120
    },
    {
      "midi": 54,
      "hit": false,
      "t": 145789.54000000088,
      "d": 560.7289999999921,
      "v": 108
    },
    {
      "midi": 58,
      "hit": false,
      "t": 145789.54000000088,
      "d": 560.7289999999921,
      "v": 117
    },
    {
      "midi": 54,
      "hit": false,
      "t": 146350.26900000087,
      "d": 280.36449999999604,
      "v": 103
    },
    {
      "midi": 58,
      "hit": false,
      "t": 146350.26900000087,
      "d": 280.36449999999604,
      "v": 116
    },
    {
      "midi": 61,
      "hit": false,
      "t": 146350.26900000087,
      "d": 280.36449999999604,
      "v": 118
    },
    {
      "midi": 65,
      "hit": false,
      "t": 146350.26900000087,
      "d": 280.36449999999604,
      "v": 105
    },
    {
      "midi": 54,
      "hit": false,
      "t": 146770.81575000088,
      "d": 140.18225000001257,
      "v": 119
    },
    {
      "midi": 58,
      "hit": false,
      "t": 146770.81575000088,
      "d": 140.18225000001257,
      "v": 102
    },
    {
      "midi": 63,
      "hit": false,
      "t": 146770.81575000088,
      "d": 140.18225000001257,
      "v": 103
    },
    {
      "midi": 54,
      "hit": false,
      "t": 146910.9980000009,
      "d": 280.36449999999604,
      "v": 103
    },
    {
      "midi": 58,
      "hit": false,
      "t": 146910.9980000009,
      "d": 280.36449999999604,
      "v": 118
    },
    {
      "midi": 63,
      "hit": false,
      "t": 146910.9980000009,
      "d": 280.36449999999604,
      "v": 111
    },
    {
      "midi": 54,
      "hit": false,
      "t": 147191.3625000009,
      "d": 350.4556250000023,
      "v": 117
    },
    {
      "midi": 58,
      "hit": false,
      "t": 147191.3625000009,
      "d": 350.4556250000023,
      "v": 102
    },
    {
      "midi": 63,
      "hit": false,
      "t": 147191.3625000009,
      "d": 350.4556250000023,
      "v": 104
    },
    {
      "midi": 54,
      "hit": false,
      "t": 147752.09150000088,
      "d": 70.09112500000629,
      "v": 118
    },
    {
      "midi": 58,
      "hit": false,
      "t": 147752.09150000088,
      "d": 140.18225000001257,
      "v": 118
    },
    {
      "midi": 63,
      "hit": false,
      "t": 147752.09150000088,
      "d": 140.18225000001257,
      "v": 120
    },
    {
      "midi": 52,
      "hit": false,
      "t": 148032.4560000009,
      "d": 350.4556250000023,
      "v": 110
    },
    {
      "midi": 56,
      "hit": false,
      "t": 148032.4560000009,
      "d": 350.4556250000023,
      "v": 109
    },
    {
      "midi": 59,
      "hit": false,
      "t": 148032.4560000009,
      "d": 350.4556250000023,
      "v": 116
    },
    {
      "midi": 64,
      "hit": false,
      "t": 148032.4560000009,
      "d": 350.4556250000023,
      "v": 111
    },
    {
      "midi": 52,
      "hit": false,
      "t": 148593.1850000009,
      "d": 280.36449999999604,
      "v": 111
    },
    {
      "midi": 56,
      "hit": false,
      "t": 148593.1850000009,
      "d": 280.36449999999604,
      "v": 102
    },
    {
      "midi": 59,
      "hit": false,
      "t": 148593.1850000009,
      "d": 280.36449999999604,
      "v": 101
    },
    {
      "midi": 64,
      "hit": false,
      "t": 148593.1850000009,
      "d": 280.36449999999604,
      "v": 113
    },
    {
      "midi": 54,
      "hit": false,
      "t": 149013.7317500009,
      "d": 140.18225000001257,
      "v": 110
    },
    {
      "midi": 56,
      "hit": false,
      "t": 149013.7317500009,
      "d": 140.18225000001257,
      "v": 101
    },
    {
      "midi": 58,
      "hit": false,
      "t": 149013.7317500009,
      "d": 140.18225000001257,
      "v": 115
    },
    {
      "midi": 64,
      "hit": false,
      "t": 149013.7317500009,
      "d": 140.18225000001257,
      "v": 115
    },
    {
      "midi": 54,
      "hit": false,
      "t": 149153.91400000092,
      "d": 70.09112500000629,
      "v": 111
    },
    {
      "midi": 64,
      "hit": false,
      "t": 149153.91400000092,
      "d": 70.09112500000629,
      "v": 102
    },
    {
      "midi": 58,
      "hit": false,
      "t": 149153.91400000092,
      "d": 280.36449999999604,
      "v": 111
    },
    {
      "midi": 54,
      "hit": false,
      "t": 149434.27850000092,
      "d": 280.36449999999604,
      "v": 112
    },
    {
      "midi": 56,
      "hit": false,
      "t": 149434.27850000092,
      "d": 280.36449999999604,
      "v": 101
    },
    {
      "midi": 58,
      "hit": false,
      "t": 149434.27850000092,
      "d": 280.36449999999604,
      "v": 119
    },
    {
      "midi": 64,
      "hit": false,
      "t": 149434.27850000092,
      "d": 280.36449999999604,
      "v": 105
    },
    {
      "midi": 54,
      "hit": false,
      "t": 149854.82525000093,
      "d": 210.27337499998976,
      "v": 113
    },
    {
      "midi": 56,
      "hit": false,
      "t": 149854.82525000093,
      "d": 210.27337499998976,
      "v": 115
    },
    {
      "midi": 58,
      "hit": false,
      "t": 149854.82525000093,
      "d": 210.27337499998976,
      "v": 117
    },
    {
      "midi": 64,
      "hit": false,
      "t": 149854.82525000093,
      "d": 210.27337499998976,
      "v": 104
    },
    {
      "midi": 54,
      "hit": false,
      "t": 150275.3720000009,
      "d": 280.36449999999604,
      "v": 114
    },
    {
      "midi": 58,
      "hit": false,
      "t": 150275.3720000009,
      "d": 280.36449999999604,
      "v": 119
    },
    {
      "midi": 61,
      "hit": false,
      "t": 150275.3720000009,
      "d": 350.4556250000023,
      "v": 105
    },
    {
      "midi": 42,
      "hit": false,
      "t": 150275.3720000009,
      "d": 1542.0047500000219,
      "v": 120
    },
    {
      "midi": 54,
      "hit": false,
      "t": 150836.1010000009,
      "d": 280.36449999999604,
      "v": 116
    },
    {
      "midi": 58,
      "hit": false,
      "t": 150836.1010000009,
      "d": 280.36449999999604,
      "v": 118
    },
    {
      "midi": 61,
      "hit": false,
      "t": 150836.1010000009,
      "d": 280.36449999999604,
      "v": 102
    },
    {
      "midi": 54,
      "hit": false,
      "t": 151256.6477500009,
      "d": 140.18225000001257,
      "v": 105
    },
    {
      "midi": 58,
      "hit": false,
      "t": 151256.6477500009,
      "d": 140.18225000001257,
      "v": 118
    },
    {
      "midi": 61,
      "hit": false,
      "t": 151256.6477500009,
      "d": 140.18225000001257,
      "v": 114
    },
    {
      "midi": 54,
      "hit": false,
      "t": 151677.19450000091,
      "d": 280.36450000002515,
      "v": 110
    },
    {
      "midi": 58,
      "hit": false,
      "t": 151677.19450000091,
      "d": 280.36450000002515,
      "v": 114
    },
    {
      "midi": 61,
      "hit": false,
      "t": 151677.19450000091,
      "d": 280.36450000002515,
      "v": 111
    },
    {
      "midi": 42,
      "hit": false,
      "t": 151957.55900000094,
      "d": 140.18225000001257,
      "v": 120
    },
    {
      "midi": 54,
      "hit": false,
      "t": 152097.74125000095,
      "d": 140.18225000001257,
      "v": 112
    },
    {
      "midi": 58,
      "hit": false,
      "t": 152097.74125000095,
      "d": 140.18225000001257,
      "v": 108
    },
    {
      "midi": 61,
      "hit": false,
      "t": 152097.74125000095,
      "d": 140.18225000001257,
      "v": 102
    },
    {
      "midi": 42,
      "hit": false,
      "t": 152237.92350000096,
      "d": 140.18225000001257,
      "v": 107
    },
    {
      "midi": 58,
      "hit": false,
      "t": 152518.288000001,
      "d": 280.36449999999604,
      "v": 116
    },
    {
      "midi": 52,
      "hit": false,
      "t": 152518.288000001,
      "d": 350.4556250000023,
      "v": 110
    },
    {
      "midi": 54,
      "hit": false,
      "t": 152518.288000001,
      "d": 350.4556250000023,
      "v": 106
    },
    {
      "midi": 62,
      "hit": false,
      "t": 152518.288000001,
      "d": 350.4556250000023,
      "v": 113
    },
    {
      "midi": 42,
      "hit": false,
      "t": 152518.288000001,
      "d": 1331.731375000003,
      "v": 107
    },
    {
      "midi": 52,
      "hit": false,
      "t": 153079.01700000098,
      "d": 280.36449999999604,
      "v": 111
    },
    {
      "midi": 54,
      "hit": false,
      "t": 153079.01700000098,
      "d": 280.36449999999604,
      "v": 109
    },
    {
      "midi": 58,
      "hit": false,
      "t": 153079.01700000098,
      "d": 280.36449999999604,
      "v": 117
    },
    {
      "midi": 62,
      "hit": false,
      "t": 153079.01700000098,
      "d": 280.36449999999604,
      "v": 101
    },
    {
      "midi": 52,
      "hit": false,
      "t": 153499.563750001,
      "d": 140.18225000001257,
      "v": 119
    },
    {
      "midi": 54,
      "hit": false,
      "t": 153499.563750001,
      "d": 140.18225000001257,
      "v": 107
    },
    {
      "midi": 58,
      "hit": false,
      "t": 153499.563750001,
      "d": 140.18225000001257,
      "v": 113
    },
    {
      "midi": 62,
      "hit": false,
      "t": 153499.563750001,
      "d": 140.18225000001257,
      "v": 110
    },
    {
      "midi": 52,
      "hit": false,
      "t": 153920.110500001,
      "d": 280.36449999999604,
      "v": 119
    },
    {
      "midi": 54,
      "hit": false,
      "t": 153920.110500001,
      "d": 280.36449999999604,
      "v": 101
    },
    {
      "midi": 58,
      "hit": false,
      "t": 153920.110500001,
      "d": 280.36449999999604,
      "v": 103
    },
    {
      "midi": 62,
      "hit": false,
      "t": 153920.110500001,
      "d": 280.36449999999604,
      "v": 102
    },
    {
      "midi": 42,
      "hit": false,
      "t": 153920.110500001,
      "d": 350.4556250000023,
      "v": 119
    },
    {
      "midi": 52,
      "hit": false,
      "t": 154340.657250001,
      "d": 140.18225000001257,
      "v": 118
    },
    {
      "midi": 54,
      "hit": false,
      "t": 154340.657250001,
      "d": 140.18225000001257,
      "v": 111
    },
    {
      "midi": 58,
      "hit": false,
      "t": 154340.657250001,
      "d": 140.18225000001257,
      "v": 108
    },
    {
      "midi": 62,
      "hit": false,
      "t": 154340.657250001,
      "d": 140.18225000001257,
      "v": 119
    },
    {
      "midi": 42,
      "hit": false,
      "t": 154340.657250001,
      "d": 350.4556250000023,
      "v": 114
    },
    {
      "midi": 59,
      "hit": false,
      "t": 154761.20400000102,
      "d": 420.5467500000086,
      "v": 120
    },
    {
      "midi": 70,
      "hit": false,
      "t": 154761.20400000102,
      "d": 560.7290000000212,
      "v": 120
    },
    {
      "midi": 35,
      "hit": false,
      "t": 154761.20400000102,
      "d": 1682.1870000000636,
      "v": 107
    },
    {
      "midi": 58,
      "hit": false,
      "t": 154761.20400000102,
      "d": 1822.3692500000761,
      "v": 115
    },
    {
      "midi": 63,
      "hit": false,
      "t": 154761.20400000102,
      "d": 2032.642625000095,
      "v": 110
    },
    {
      "midi": 66,
      "hit": false,
      "t": 154761.20400000102,
      "d": 2032.642625000095,
      "v": 102
    },
    {
      "midi": 59,
      "hit": false,
      "t": 155321.93300000104,
      "d": 280.36449999999604,
      "v": 106
    },
    {
      "midi": 59,
      "hit": false,
      "t": 155742.47975000105,
      "d": 140.18225000001257,
      "v": 118
    },
    {
      "midi": 59,
      "hit": false,
      "t": 156022.84425000107,
      "d": 70.09112500000629,
      "v": 108
    },
    {
      "midi": 47,
      "hit": false,
      "t": 156443.39100000108,
      "d": 140.18225000001257,
      "v": 104
    },
    {
      "midi": 59,
      "hit": false,
      "t": 156443.39100000108,
      "d": 140.18225000001257,
      "v": 115
    },
    {
      "midi": 58,
      "hit": false,
      "t": 156583.5732500011,
      "d": 140.18225000001257,
      "v": 113
    },
    {
      "midi": 46,
      "hit": false,
      "t": 156583.5732500011,
      "d": 210.27337500001886,
      "v": 110
    },
    {
      "midi": 45,
      "hit": false,
      "t": 156723.7555000011,
      "d": 140.18225000001257,
      "v": 107
    },
    {
      "midi": 57,
      "hit": false,
      "t": 156723.7555000011,
      "d": 140.18225000001257,
      "v": 109
    },
    {
      "midi": 56,
      "hit": false,
      "t": 156863.93775000112,
      "d": 140.18225000001257,
      "v": 114
    },
    {
      "midi": 44,
      "hit": false,
      "t": 156863.93775000112,
      "d": 1401.8225000000093,
      "v": 119
    },
    {
      "midi": 54,
      "hit": false,
      "t": 157004.12000000113,
      "d": 280.36449999999604,
      "v": 117
    },
    {
      "midi": 56,
      "hit": false,
      "t": 157004.12000000113,
      "d": 280.36449999999604,
      "v": 116
    },
    {
      "midi": 60,
      "hit": false,
      "t": 157004.12000000113,
      "d": 280.36449999999604,
      "v": 106
    },
    {
      "midi": 63,
      "hit": false,
      "t": 157004.12000000113,
      "d": 280.36449999999604,
      "v": 120
    },
    {
      "midi": 66,
      "hit": false,
      "t": 157004.12000000113,
      "d": 280.36449999999604,
      "v": 118
    },
    {
      "midi": 54,
      "hit": false,
      "t": 157564.84900000112,
      "d": 210.27337499998976,
      "v": 106
    },
    {
      "midi": 56,
      "hit": false,
      "t": 157564.84900000112,
      "d": 210.27337499998976,
      "v": 113
    },
    {
      "midi": 60,
      "hit": false,
      "t": 157564.84900000112,
      "d": 210.27337499998976,
      "v": 113
    },
    {
      "midi": 63,
      "hit": false,
      "t": 157564.84900000112,
      "d": 210.27337499998976,
      "v": 101
    },
    {
      "midi": 66,
      "hit": false,
      "t": 157564.84900000112,
      "d": 210.27337499998976,
      "v": 102
    },
    {
      "midi": 54,
      "hit": false,
      "t": 157985.3957500011,
      "d": 70.09112500000629,
      "v": 102
    },
    {
      "midi": 60,
      "hit": false,
      "t": 157985.3957500011,
      "d": 70.09112500000629,
      "v": 102
    },
    {
      "midi": 56,
      "hit": false,
      "t": 157985.3957500011,
      "d": 140.18225000001257,
      "v": 117
    },
    {
      "midi": 63,
      "hit": false,
      "t": 157985.3957500011,
      "d": 140.18225000001257,
      "v": 102
    },
    {
      "midi": 66,
      "hit": false,
      "t": 157985.3957500011,
      "d": 140.18225000001257,
      "v": 103
    },
    {
      "midi": 54,
      "hit": false,
      "t": 158405.94250000114,
      "d": 70.09112500000629,
      "v": 107
    },
    {
      "midi": 60,
      "hit": false,
      "t": 158405.94250000114,
      "d": 70.09112500000629,
      "v": 109
    },
    {
      "midi": 66,
      "hit": false,
      "t": 158405.94250000114,
      "d": 70.09112500000629,
      "v": 105
    },
    {
      "midi": 56,
      "hit": false,
      "t": 158405.94250000114,
      "d": 140.18225000001257,
      "v": 120
    },
    {
      "midi": 63,
      "hit": false,
      "t": 158405.94250000114,
      "d": 140.18225000001257,
      "v": 108
    },
    {
      "midi": 44,
      "hit": false,
      "t": 158405.94250000114,
      "d": 350.45562500003143,
      "v": 117
    },
    {
      "midi": 54,
      "hit": false,
      "t": 158686.30700000116,
      "d": 140.18225000001257,
      "v": 101
    },
    {
      "midi": 60,
      "hit": false,
      "t": 158686.30700000116,
      "d": 140.18225000001257,
      "v": 113
    },
    {
      "midi": 66,
      "hit": false,
      "t": 158686.30700000116,
      "d": 140.18225000001257,
      "v": 106
    },
    {
      "midi": 56,
      "hit": false,
      "t": 158686.30700000116,
      "d": 210.27337500001886,
      "v": 117
    },
    {
      "midi": 63,
      "hit": false,
      "t": 158686.30700000116,
      "d": 210.27337500001886,
      "v": 105
    },
    {
      "midi": 44,
      "hit": false,
      "t": 158826.48925000118,
      "d": 280.36449999999604,
      "v": 114
    },
    {
      "midi": 58,
      "hit": false,
      "t": 159247.0360000012,
      "d": 280.36449999999604,
      "v": 109
    },
    {
      "midi": 66,
      "hit": false,
      "t": 159247.0360000012,
      "d": 280.36449999999604,
      "v": 101
    },
    {
      "midi": 54,
      "hit": false,
      "t": 159247.0360000012,
      "d": 350.4556250000023,
      "v": 117
    },
    {
      "midi": 61,
      "hit": false,
      "t": 159247.0360000012,
      "d": 350.4556250000023,
      "v": 120
    },
    {
      "midi": 70,
      "hit": false,
      "t": 159247.0360000012,
      "d": 350.4556250000023,
      "v": 114
    },
    {
      "midi": 37,
      "hit": false,
      "t": 159247.0360000012,
      "d": 490.6378750000149,
      "v": 113
    },
    {
      "midi": 58,
      "hit": false,
      "t": 159807.7650000012,
      "d": 210.27337499998976,
      "v": 119
    },
    {
      "midi": 66,
      "hit": false,
      "t": 159807.7650000012,
      "d": 210.27337499998976,
      "v": 113
    },
    {
      "midi": 54,
      "hit": false,
      "t": 159807.7650000012,
      "d": 280.36449999999604,
      "v": 118
    },
    {
      "midi": 61,
      "hit": false,
      "t": 159807.7650000012,
      "d": 280.36449999999604,
      "v": 104
    },
    {
      "midi": 70,
      "hit": false,
      "t": 159807.7650000012,
      "d": 280.36449999999604,
      "v": 115
    },
    {
      "midi": 37,
      "hit": false,
      "t": 159807.7650000012,
      "d": 560.7290000000212,
      "v": 112
    },
    {
      "midi": 54,
      "hit": false,
      "t": 160228.31175000122,
      "d": 140.18225000001257,
      "v": 119
    },
    {
      "midi": 58,
      "hit": false,
      "t": 160228.31175000122,
      "d": 140.18225000001257,
      "v": 106
    },
    {
      "midi": 61,
      "hit": false,
      "t": 160228.31175000122,
      "d": 140.18225000001257,
      "v": 115
    },
    {
      "midi": 66,
      "hit": false,
      "t": 160228.31175000122,
      "d": 140.18225000001257,
      "v": 118
    },
    {
      "midi": 70,
      "hit": false,
      "t": 160228.31175000122,
      "d": 140.18225000001257,
      "v": 110
    },
    {
      "midi": 54,
      "hit": false,
      "t": 160368.49400000123,
      "d": 70.09112500000629,
      "v": 112
    },
    {
      "midi": 58,
      "hit": false,
      "t": 160368.49400000123,
      "d": 280.36449999999604,
      "v": 115
    },
    {
      "midi": 61,
      "hit": false,
      "t": 160368.49400000123,
      "d": 280.36449999999604,
      "v": 101
    },
    {
      "midi": 66,
      "hit": false,
      "t": 160368.49400000123,
      "d": 280.36449999999604,
      "v": 118
    },
    {
      "midi": 39,
      "hit": false,
      "t": 160368.49400000123,
      "d": 420.5467500000086,
      "v": 108
    },
    {
      "midi": 63,
      "hit": false,
      "t": 160368.49400000123,
      "d": 981.2757500000589,
      "v": 118
    },
    {
      "midi": 58,
      "hit": false,
      "t": 160648.85850000122,
      "d": 280.36450000002515,
      "v": 116
    },
    {
      "midi": 61,
      "hit": false,
      "t": 160648.85850000122,
      "d": 280.36450000002515,
      "v": 108
    },
    {
      "midi": 66,
      "hit": false,
      "t": 160648.85850000122,
      "d": 280.36450000002515,
      "v": 113
    },
    {
      "midi": 70,
      "hit": false,
      "t": 160648.85850000122,
      "d": 280.36450000002515,
      "v": 117
    },
    {
      "midi": 54,
      "hit": false,
      "t": 160648.85850000122,
      "d": 350.45562500003143,
      "v": 108
    },
    {
      "midi": 39,
      "hit": false,
      "t": 160929.22300000125,
      "d": 490.637875000044,
      "v": 111
    },
    {
      "midi": 66,
      "hit": false,
      "t": 161069.40525000126,
      "d": 140.18225000001257,
      "v": 110
    },
    {
      "midi": 54,
      "hit": false,
      "t": 161069.40525000126,
      "d": 210.27337500001886,
      "v": 104
    },
    {
      "midi": 58,
      "hit": false,
      "t": 161069.40525000126,
      "d": 210.27337500001886,
      "v": 113
    },
    {
      "midi": 61,
      "hit": false,
      "t": 161069.40525000126,
      "d": 210.27337500001886,
      "v": 115
    },
    {
      "midi": 70,
      "hit": false,
      "t": 161069.40525000126,
      "d": 210.27337500001886,
      "v": 110
    },
    {
      "midi": 56,
      "hit": false,
      "t": 161489.9520000013,
      "d": 280.36449999999604,
      "v": 119
    },
    {
      "midi": 59,
      "hit": false,
      "t": 161489.9520000013,
      "d": 280.36449999999604,
      "v": 116
    },
    {
      "midi": 54,
      "hit": false,
      "t": 161489.9520000013,
      "d": 350.4556250000023,
      "v": 112
    },
    {
      "midi": 63,
      "hit": false,
      "t": 161489.9520000013,
      "d": 350.4556250000023,
      "v": 111
    },
    {
      "midi": 66,
      "hit": false,
      "t": 161489.9520000013,
      "d": 350.4556250000023,
      "v": 106
    },
    {
      "midi": 44,
      "hit": false,
      "t": 161489.9520000013,
      "d": 490.6378750000149,
      "v": 117
    },
    {
      "midi": 59,
      "hit": false,
      "t": 162050.68100000132,
      "d": 210.27337499998976,
      "v": 119
    },
    {
      "midi": 54,
      "hit": false,
      "t": 162050.68100000132,
      "d": 280.36449999999604,
      "v": 119
    },
    {
      "midi": 56,
      "hit": false,
      "t": 162050.68100000132,
      "d": 280.36449999999604,
      "v": 110
    },
    {
      "midi": 63,
      "hit": false,
      "t": 162050.68100000132,
      "d": 280.36449999999604,
      "v": 120
    },
    {
      "midi": 66,
      "hit": false,
      "t": 162050.68100000132,
      "d": 280.36449999999604,
      "v": 102
    },
    {
      "midi": 44,
      "hit": false,
      "t": 162050.68100000132,
      "d": 490.6378750000149,
      "v": 102
    },
    {
      "midi": 54,
      "hit": false,
      "t": 162471.22775000133,
      "d": 140.18225000001257,
      "v": 102
    },
    {
      "midi": 56,
      "hit": false,
      "t": 162471.22775000133,
      "d": 140.18225000001257,
      "v": 115
    },
    {
      "midi": 59,
      "hit": false,
      "t": 162471.22775000133,
      "d": 140.18225000001257,
      "v": 103
    },
    {
      "midi": 63,
      "hit": false,
      "t": 162471.22775000133,
      "d": 140.18225000001257,
      "v": 111
    },
    {
      "midi": 66,
      "hit": false,
      "t": 162471.22775000133,
      "d": 140.18225000001257,
      "v": 104
    },
    {
      "midi": 54,
      "hit": false,
      "t": 162611.41000000134,
      "d": 70.09112500000629,
      "v": 113
    },
    {
      "midi": 59,
      "hit": false,
      "t": 162611.41000000134,
      "d": 280.36449999999604,
      "v": 109
    },
    {
      "midi": 63,
      "hit": false,
      "t": 162611.41000000134,
      "d": 280.36449999999604,
      "v": 103
    },
    {
      "midi": 66,
      "hit": false,
      "t": 162611.41000000134,
      "d": 280.36449999999604,
      "v": 109
    },
    {
      "midi": 37,
      "hit": false,
      "t": 162611.41000000134,
      "d": 490.6378749999858,
      "v": 114
    },
    {
      "midi": 54,
      "hit": false,
      "t": 162891.77450000134,
      "d": 280.36449999999604,
      "v": 115
    },
    {
      "midi": 56,
      "hit": false,
      "t": 162891.77450000134,
      "d": 280.36449999999604,
      "v": 101
    },
    {
      "midi": 59,
      "hit": false,
      "t": 162891.77450000134,
      "d": 280.36449999999604,
      "v": 116
    },
    {
      "midi": 63,
      "hit": false,
      "t": 162891.77450000134,
      "d": 280.36449999999604,
      "v": 120
    },
    {
      "midi": 66,
      "hit": false,
      "t": 162891.77450000134,
      "d": 280.36449999999604,
      "v": 109
    },
    {
      "midi": 37,
      "hit": false,
      "t": 163172.13900000133,
      "d": 420.5467500000377,
      "v": 104
    },
    {
      "midi": 54,
      "hit": false,
      "t": 163312.32125000135,
      "d": 140.18225000001257,
      "v": 108
    },
    {
      "midi": 56,
      "hit": false,
      "t": 163312.32125000135,
      "d": 210.27337500001886,
      "v": 120
    },
    {
      "midi": 59,
      "hit": false,
      "t": 163312.32125000135,
      "d": 210.27337500001886,
      "v": 110
    },
    {
      "midi": 63,
      "hit": false,
      "t": 163312.32125000135,
      "d": 210.27337500001886,
      "v": 115
    },
    {
      "midi": 66,
      "hit": false,
      "t": 163312.32125000135,
      "d": 210.27337500001886,
      "v": 113
    },
    {
      "midi": 66,
      "hit": false,
      "t": 163732.86800000138,
      "d": 210.27337499998976,
      "v": 105
    },
    {
      "midi": 61,
      "hit": false,
      "t": 163732.86800000138,
      "d": 280.36449999999604,
      "v": 103
    },
    {
      "midi": 68,
      "hit": false,
      "t": 163732.86800000138,
      "d": 280.36449999999604,
      "v": 119
    },
    {
      "midi": 70,
      "hit": false,
      "t": 163732.86800000138,
      "d": 280.36449999999604,
      "v": 118
    },
    {
      "midi": 61,
      "hit": false,
      "t": 164293.59700000138,
      "d": 70.09112500000629,
      "v": 101
    },
    {
      "midi": 68,
      "hit": false,
      "t": 164293.59700000138,
      "d": 70.09112500000629,
      "v": 105
    },
    {
      "midi": 66,
      "hit": false,
      "t": 164293.59700000138,
      "d": 140.18225000001257,
      "v": 114
    },
    {
      "midi": 70,
      "hit": false,
      "t": 164293.59700000138,
      "d": 140.18225000001257,
      "v": 107
    },
    {
      "midi": 59,
      "hit": false,
      "t": 164573.9615000014,
      "d": 140.18225000001257,
      "v": 103
    },
    {
      "midi": 64,
      "hit": false,
      "t": 164573.9615000014,
      "d": 210.27337500001886,
      "v": 120
    },
    {
      "midi": 66,
      "hit": false,
      "t": 164573.9615000014,
      "d": 210.27337500001886,
      "v": 112
    },
    {
      "midi": 68,
      "hit": false,
      "t": 164573.9615000014,
      "d": 210.27337500001886,
      "v": 110
    },
    {
      "midi": 64,
      "hit": false,
      "t": 165134.69050000142,
      "d": 210.27337499998976,
      "v": 116
    },
    {
      "midi": 69,
      "hit": false,
      "t": 165134.69050000142,
      "d": 210.27337499998976,
      "v": 116
    },
    {
      "midi": 71,
      "hit": false,
      "t": 165134.69050000142,
      "d": 210.27337499998976,
      "v": 119
    },
    {
      "midi": 73,
      "hit": false,
      "t": 165134.69050000142,
      "d": 210.27337499998976,
      "v": 102
    },
    {
      "midi": 61,
      "hit": false,
      "t": 165695.41950000142,
      "d": 490.6378749999858,
      "v": 110
    },
    {
      "midi": 66,
      "hit": false,
      "t": 165695.41950000142,
      "d": 490.6378749999858,
      "v": 101
    },
    {
      "midi": 69,
      "hit": false,
      "t": 165695.41950000142,
      "d": 490.6378749999858,
      "v": 119
    },
    {
      "midi": 66,
      "hit": false,
      "t": 166536.5130000014,
      "d": 70.09112500000629,
      "v": 117
    },
    {
      "midi": 61,
      "hit": false,
      "t": 166536.5130000014,
      "d": 140.18225000001257,
      "v": 118
    },
    {
      "midi": 69,
      "hit": false,
      "t": 166536.5130000014,
      "d": 140.18225000001257,
      "v": 119
    },
    {
      "midi": 62,
      "hit": false,
      "t": 166816.87750000143,
      "d": 981.2757500000007,
      "v": 117
    },
    {
      "midi": 65,
      "hit": false,
      "t": 166816.87750000143,
      "d": 1051.366875000007,
      "v": 115
    },
    {
      "midi": 70,
      "hit": false,
      "t": 166816.87750000143,
      "d": 1121.4580000000133,
      "v": 104
    },
    {
      "midi": 61,
      "hit": false,
      "t": 168218.70000000144,
      "d": 280.36449999999604,
      "v": 106
    },
    {
      "midi": 66,
      "hit": false,
      "t": 168218.70000000144,
      "d": 280.36449999999604,
      "v": 107
    },
    {
      "midi": 68,
      "hit": false,
      "t": 168218.70000000144,
      "d": 280.36449999999604,
      "v": 109
    },
    {
      "midi": 70,
      "hit": false,
      "t": 168218.70000000144,
      "d": 350.4556250000023,
      "v": 105
    },
    {
      "midi": 68,
      "hit": false,
      "t": 168779.42900000143,
      "d": 70.09112500000629,
      "v": 91
    },
    {
      "midi": 61,
      "hit": false,
      "t": 168779.42900000143,
      "d": 140.18225000001257,
      "v": 98
    },
    {
      "midi": 66,
      "hit": false,
      "t": 168779.42900000143,
      "d": 140.18225000001257,
      "v": 105
    },
    {
      "midi": 70,
      "hit": false,
      "t": 168779.42900000143,
      "d": 140.18225000001257,
      "v": 94
    },
    {
      "midi": 59,
      "hit": false,
      "t": 169059.79350000145,
      "d": 140.18225000001257,
      "v": 97
    },
    {
      "midi": 64,
      "hit": false,
      "t": 169059.79350000145,
      "d": 210.27337500001886,
      "v": 102
    },
    {
      "midi": 66,
      "hit": false,
      "t": 169059.79350000145,
      "d": 210.27337500001886,
      "v": 104
    },
    {
      "midi": 68,
      "hit": false,
      "t": 169059.79350000145,
      "d": 280.36450000002515,
      "v": 109
    },
    {
      "midi": 64,
      "hit": false,
      "t": 169620.52250000148,
      "d": 210.27337499998976,
      "v": 100
    },
    {
      "midi": 71,
      "hit": false,
      "t": 169620.52250000148,
      "d": 210.27337499998976,
      "v": 100
    },
    {
      "midi": 69,
      "hit": false,
      "t": 169620.52250000148,
      "d": 280.36449999999604,
      "v": 95
    },
    {
      "midi": 73,
      "hit": false,
      "t": 169620.52250000148,
      "d": 280.36449999999604,
      "v": 104
    },
    {
      "midi": 61,
      "hit": false,
      "t": 170181.25150000147,
      "d": 630.8201249999984,
      "v": 107
    },
    {
      "midi": 66,
      "hit": false,
      "t": 170181.25150000147,
      "d": 630.8201249999984,
      "v": 94
    },
    {
      "midi": 69,
      "hit": false,
      "t": 170181.25150000147,
      "d": 630.8201249999984,
      "v": 102
    },
    {
      "midi": 66,
      "hit": false,
      "t": 171022.34500000146,
      "d": 70.09112500000629,
      "v": 107
    },
    {
      "midi": 61,
      "hit": false,
      "t": 171022.34500000146,
      "d": 140.18225000001257,
      "v": 96
    },
    {
      "midi": 69,
      "hit": false,
      "t": 171022.34500000146,
      "d": 140.18225000001257,
      "v": 96
    },
    {
      "midi": 62,
      "hit": false,
      "t": 171302.70950000148,
      "d": 1051.366875000007,
      "v": 94
    },
    {
      "midi": 65,
      "hit": false,
      "t": 171302.70950000148,
      "d": 1121.4580000000133,
      "v": 99
    },
    {
      "midi": 70,
      "hit": false,
      "t": 171302.70950000148,
      "d": 1121.4580000000133,
      "v": 103
    },
    {
      "midi": 61,
      "hit": false,
      "t": 172704.5320000015,
      "d": 280.36449999999604,
      "v": 106
    },
    {
      "midi": 66,
      "hit": false,
      "t": 172704.5320000015,
      "d": 280.36449999999604,
      "v": 107
    },
    {
      "midi": 68,
      "hit": false,
      "t": 172704.5320000015,
      "d": 280.36449999999604,
      "v": 109
    },
    {
      "midi": 70,
      "hit": false,
      "t": 172704.5320000015,
      "d": 350.4556250000023,
      "v": 105
    },
    {
      "midi": 68,
      "hit": false,
      "t": 173265.26100000148,
      "d": 70.09112500000629,
      "v": 91
    },
    {
      "midi": 61,
      "hit": false,
      "t": 173265.26100000148,
      "d": 140.18225000001257,
      "v": 98
    },
    {
      "midi": 66,
      "hit": false,
      "t": 173265.26100000148,
      "d": 140.18225000001257,
      "v": 105
    },
    {
      "midi": 70,
      "hit": false,
      "t": 173265.26100000148,
      "d": 140.18225000001257,
      "v": 94
    },
    {
      "midi": 59,
      "hit": false,
      "t": 173545.6255000015,
      "d": 140.18225000001257,
      "v": 97
    },
    {
      "midi": 64,
      "hit": false,
      "t": 173545.6255000015,
      "d": 210.27337500001886,
      "v": 102
    },
    {
      "midi": 66,
      "hit": false,
      "t": 173545.6255000015,
      "d": 210.27337500001886,
      "v": 104
    },
    {
      "midi": 68,
      "hit": false,
      "t": 173545.6255000015,
      "d": 280.36450000002515,
      "v": 109
    },
    {
      "midi": 64,
      "hit": false,
      "t": 174106.35450000153,
      "d": 210.27337499998976,
      "v": 100
    },
    {
      "midi": 71,
      "hit": false,
      "t": 174106.35450000153,
      "d": 210.27337499998976,
      "v": 100
    },
    {
      "midi": 69,
      "hit": false,
      "t": 174106.35450000153,
      "d": 280.36449999999604,
      "v": 95
    },
    {
      "midi": 73,
      "hit": false,
      "t": 174106.35450000153,
      "d": 280.36449999999604,
      "v": 104
    },
    {
      "midi": 61,
      "hit": false,
      "t": 174667.08350000152,
      "d": 630.8201249999984,
      "v": 107
    },
    {
      "midi": 66,
      "hit": false,
      "t": 174667.08350000152,
      "d": 630.8201249999984,
      "v": 94
    },
    {
      "midi": 69,
      "hit": false,
      "t": 174667.08350000152,
      "d": 630.8201249999984,
      "v": 102
    },
    {
      "midi": 66,
      "hit": false,
      "t": 175508.1770000015,
      "d": 70.09112500000629,
      "v": 107
    },
    {
      "midi": 61,
      "hit": false,
      "t": 175508.1770000015,
      "d": 140.18225000001257,
      "v": 96
    },
    {
      "midi": 69,
      "hit": false,
      "t": 175508.1770000015,
      "d": 140.18225000001257,
      "v": 96
    },
    {
      "midi": 62,
      "hit": false,
      "t": 175788.54150000153,
      "d": 1051.366875000007,
      "v": 94
    },
    {
      "midi": 65,
      "hit": false,
      "t": 175788.54150000153,
      "d": 1121.4580000000133,
      "v": 99
    },
    {
      "midi": 70,
      "hit": false,
      "t": 175788.54150000153,
      "d": 1121.4580000000133,
      "v": 103
    },
    {
      "midi": 66,
      "hit": false,
      "t": 177751.09300000154,
      "d": 280.36449999999604,
      "v": 91
    },
    {
      "midi": 68,
      "hit": false,
      "t": 177751.09300000154,
      "d": 280.36449999999604,
      "v": 91
    },
    {
      "midi": 61,
      "hit": false,
      "t": 177751.09300000154,
      "d": 350.4556250000023,
      "v": 104
    },
    {
      "midi": 70,
      "hit": false,
      "t": 177751.09300000154,
      "d": 350.4556250000023,
      "v": 94
    }
  ]
}