{
  "jsonPath": "Unknown/Unknown/The Sea Urchins/summershine.json",
  "path": "Unknown\\Unknown\\The Sea Urchins\\Summershine.mid",
  "name": "Summershine",
  "difficulty": "Advanced",
  "bpm": 75,
  "notes": [
    {
      "midi": 50,
      "hit": false,
      "t": 0,
      "d": 400,
      "v": 39
    },
    {
      "midi": 55,
      "hit": false,
      "t": 0,
      "d": 600,
      "v": 51
    },
    {
      "midi": 59,
      "hit": false,
      "t": 0,
      "d": 800,
      "v": 63
    },
    {
      "midi": 43,
      "hit": false,
      "t": 0,
      "d": 1600,
      "v": 64
    },
    {
      "midi": 50,
      "hit": false,
      "t": 400,
      "d": 1000,
      "v": 59
    },
    {
      "midi": 55,
      "hit": false,
      "t": 800,
      "d": 400,
      "v": 76
    },
    {
      "midi": 57,
      "hit": false,
      "t": 1200,
      "d": 1400,
      "v": 72
    },
    {
      "midi": 38,
      "hit": false,
      "t": 1600,
      "d": 1000,
      "v": 87
    },
    {
      "midi": 50,
      "hit": false,
      "t": 1600,
      "d": 1000,
      "v": 51
    },
    {
      "midi": 54,
      "hit": false,
      "t": 1600,
      "d": 1000,
      "v": 41
    },
    {
      "midi": 48,
      "hit": false,
      "t": 2800,
      "d": 1400,
      "v": 89
    },
    {
      "midi": 52,
      "hit": false,
      "t": 2800,
      "d": 2400,
      "v": 88
    },
    {
      "midi": 55,
      "hit": false,
      "t": 2800,
      "d": 2600,
      "v": 88
    },
    {
      "midi": 36,
      "hit": false,
      "t": 2800,
      "d": 3400,
      "v": 98
    },
    {
      "midi": 48,
      "hit": false,
      "t": 4800,
      "d": 400,
      "v": 2
    },
    {
      "midi": 52,
      "hit": false,
      "t": 5600,
      "d": 400,
      "v": 96
    },
    {
      "midi": 55,
      "hit": false,
      "t": 6000,
      "d": 800,
      "v": 81
    },
    {
      "midi": 50,
      "hit": false,
      "t": 6200,
      "d": 400,
      "v": 76
    },
    {
      "midi": 59,
      "hit": false,
      "t": 6400,
      "d": 1000,
      "v": 84
    },
    {
      "midi": 43,
      "hit": false,
      "t": 6400,
      "d": 1600,
      "v": 88
    },
    {
      "midi": 50,
      "hit": false,
      "t": 6800,
      "d": 800,
      "v": 78
    },
    {
      "midi": 55,
      "hit": false,
      "t": 7200,
      "d": 400,
      "v": 79
    },
    {
      "midi": 57,
      "hit": false,
      "t": 7600,
      "d": 1400,
      "v": 82
    },
    {
      "midi": 38,
      "hit": false,
      "t": 8000,
      "d": 1000,
      "v": 96
    },
    {
      "midi": 50,
      "hit": false,
      "t": 8000,
      "d": 1000,
      "v": 68
    },
    {
      "midi": 54,
      "hit": false,
      "t": 8000,
      "d": 1000,
      "v": 77
    },
    {
      "midi": 36,
      "hit": false,
      "t": 9200,
      "d": 1800,
      "v": 100
    },
    {
      "midi": 48,
      "hit": false,
      "t": 9200,
      "d": 1800,
      "v": 100
    },
    {
      "midi": 52,
      "hit": false,
      "t": 9200,
      "d": 1800,
      "v": 98
    },
    {
      "midi": 55,
      "hit": false,
      "t": 9200,
      "d": 1800,
      "v": 96
    },
    {
      "midi": 48,
      "hit": false,
      "t": 11200,
      "d": 600,
      "v": 93
    },
    {
      "midi": 52,
      "hit": false,
      "t": 11200,
      "d": 600,
      "v": 100
    },
    {
      "midi": 36,
      "hit": false,
      "t": 11200,
      "d": 800,
      "v": 90
    },
    {
      "midi": 55,
      "hit": false,
      "t": 11200,
      "d": 800,
      "v": 87
    },
    {
      "midi": 50,
      "hit": false,
      "t": 12000,
      "d": 400,
      "v": 88
    },
    {
      "midi": 54,
      "hit": false,
      "t": 12000,
      "d": 600,
      "v": 100
    },
    {
      "midi": 57,
      "hit": false,
      "t": 12000,
      "d": 600,
      "v": 80
    },
    {
      "midi": 38,
      "hit": false,
      "t": 12000,
      "d": 800,
      "v": 89
    },
    {
      "midi": 50,
      "hit": false,
      "t": 12600,
      "d": 400,
      "v": 83
    },
    {
      "midi": 55,
      "hit": false,
      "t": 12800,
      "d": 400,
      "v": 96
    },
    {
      "midi": 59,
      "hit": false,
      "t": 12800,
      "d": 1000,
      "v": 79
    },
    {
      "midi": 43,
      "hit": false,
      "t": 12800,
      "d": 1600,
      "v": 86
    },
    {
      "midi": 50,
      "hit": false,
      "t": 13200,
      "d": 800,
      "v": 78
    },
    {
      "midi": 55,
      "hit": false,
      "t": 13600,
      "d": 400,
      "v": 78
    },
    {
      "midi": 57,
      "hit": false,
      "t": 14000,
      "d": 1400,
      "v": 62
    },
    {
      "midi": 38,
      "hit": false,
      "t": 14400,
      "d": 1000,
      "v": 93
    },
    {
      "midi": 50,
      "hit": false,
      "t": 14400,
      "d": 1000,
      "v": 87
    },
    {
      "midi": 54,
      "hit": false,
      "t": 14400,
      "d": 1000,
      "v": 90
    },
    {
      "midi": 48,
      "hit": false,
      "t": 15600,
      "d": 2000,
      "v": 95
    },
    {
      "midi": 52,
      "hit": false,
      "t": 15600,
      "d": 2400,
      "v": 105
    },
    {
      "midi": 55,
      "hit": false,
      "t": 15600,
      "d": 2400,
      "v": 97
    },
    {
      "midi": 36,
      "hit": false,
      "t": 15600,
      "d": 3600,
      "v": 102
    },
    {
      "midi": 48,
      "hit": false,
      "t": 18000,
      "d": 600,
      "v": 97
    },
    {
      "midi": 50,
      "hit": false,
      "t": 18400,
      "d": 400,
      "v": 94
    },
    {
      "midi": 55,
      "hit": false,
      "t": 18800,
      "d": 200,
      "v": 78
    },
    {
      "midi": 50,
      "hit": false,
      "t": 19200,
      "d": 200,
      "v": 83
    },
    {
      "midi": 55,
      "hit": false,
      "t": 19200,
      "d": 400,
      "v": 105
    },
    {
      "midi": 59,
      "hit": false,
      "t": 19200,
      "d": 1200,
      "v": 92
    },
    {
      "midi": 43,
      "hit": false,
      "t": 19200,
      "d": 1600,
      "v": 113
    },
    {
      "midi": 50,
      "hit": false,
      "t": 19600,
      "d": 800,
      "v": 92
    },
    {
      "midi": 55,
      "hit": false,
      "t": 20000,
      "d": 400,
      "v": 102
    },
    {
      "midi": 57,
      "hit": false,
      "t": 20400,
      "d": 400,
      "v": 83
    },
    {
      "midi": 38,
      "hit": false,
      "t": 20800,
      "d": 800,
      "v": 96
    },
    {
      "midi": 50,
      "hit": false,
      "t": 20800,
      "d": 800,
      "v": 94
    },
    {
      "midi": 54,
      "hit": false,
      "t": 20800,
      "d": 800,
      "v": 100
    },
    {
      "midi": 57,
      "hit": false,
      "t": 20800,
      "d": 800,
      "v": 92
    },
    {
      "midi": 47,
      "hit": false,
      "t": 22000,
      "d": 200,
      "v": 94
    },
    {
      "midi": 48,
      "hit": false,
      "t": 22000,
      "d": 2800,
      "v": 95
    },
    {
      "midi": 52,
      "hit": false,
      "t": 22000,
      "d": 2800,
      "v": 105
    },
    {
      "midi": 36,
      "hit": false,
      "t": 22000,
      "d": 3000,
      "v": 117
    },
    {
      "midi": 55,
      "hit": false,
      "t": 22000,
      "d": 3000,
      "v": 96
    },
    {
      "midi": 50,
      "hit": false,
      "t": 25600,
      "d": 200,
      "v": 100
    },
    {
      "midi": 55,
      "hit": false,
      "t": 25600,
      "d": 400,
      "v": 98
    },
    {
      "midi": 59,
      "hit": false,
      "t": 25600,
      "d": 1200,
      "v": 94
    },
    {
      "midi": 43,
      "hit": false,
      "t": 25600,
      "d": 1600,
      "v": 118
    },
    {
      "midi": 55,
      "hit": false,
      "t": 25733.333333333332,
      "d": 140,
      "v": 86
    },
    {
      "midi": 55,
      "hit": false,
      "t": 25940,
      "d": 173.33333333333212,
      "v": 70
    },
    {
      "midi": 50,
      "hit": false,
      "t": 26000,
      "d": 1000,
      "v": 74
    },
    {
      "midi": 57,
      "hit": false,
      "t": 26153.333333333332,
      "d": 106.66666666666788,
      "v": 42
    },
    {
      "midi": 57,
      "hit": false,
      "t": 26366.666666666668,
      "d": 213.33333333333212,
      "v": 78
    },
    {
      "midi": 55,
      "hit": false,
      "t": 26400,
      "d": 400,
      "v": 64
    },
    {
      "midi": 55,
      "hit": false,
      "t": 26566.666666666668,
      "d": 113.33333333333212,
      "v": 78
    },
    {
      "midi": 55,
      "hit": false,
      "t": 26746.666666666668,
      "d": 240,
      "v": 76
    },
    {
      "midi": 57,
      "hit": false,
      "t": 26800,
      "d": 1400,
      "v": 69
    },
    {
      "midi": 57,
      "hit": false,
      "t": 26933.333333333336,
      "d": 473.3333333333321,
      "v": 80
    },
    {
      "midi": 38,
      "hit": false,
      "t": 27200,
      "d": 800,
      "v": 80
    },
    {
      "midi": 54,
      "hit": false,
      "t": 27200,
      "d": 800,
      "v": 66
    },
    {
      "midi": 50,
      "hit": false,
      "t": 27200,
      "d": 1000,
      "v": 75
    },
    {
      "midi": 55,
      "hit": false,
      "t": 27393.333333333336,
      "d": 120,
      "v": 70
    },
    {
      "midi": 55,
      "hit": false,
      "t": 27580.000000000004,
      "d": 193.33333333333212,
      "v": 64
    },
    {
      "midi": 57,
      "hit": false,
      "t": 27786.666666666668,
      "d": 126.66666666666788,
      "v": 78
    },
    {
      "midi": 57,
      "hit": false,
      "t": 27986.666666666668,
      "d": 193.33333333333212,
      "v": 78
    },
    {
      "midi": 55,
      "hit": false,
      "t": 28193.333333333332,
      "d": 106.66666666666788,
      "v": 62
    },
    {
      "midi": 55,
      "hit": false,
      "t": 28366.666666666668,
      "d": 480,
      "v": 78
    },
    {
      "midi": 52,
      "hit": false,
      "t": 28400,
      "d": 2400,
      "v": 63
    },
    {
      "midi": 55,
      "hit": false,
      "t": 28400,
      "d": 2800,
      "v": 70
    },
    {
      "midi": 48,
      "hit": false,
      "t": 28400,
      "d": 3200,
      "v": 76
    },
    {
      "midi": 36,
      "hit": false,
      "t": 28400,
      "d": 3400,
      "v": 92
    },
    {
      "midi": 55,
      "hit": false,
      "t": 28906.666666666668,
      "d": 180,
      "v": 70
    },
    {
      "midi": 55,
      "hit": false,
      "t": 29133.333333333336,
      "d": 206.66666666666788,
      "v": 72
    },
    {
      "midi": 57,
      "hit": false,
      "t": 29346.66666666667,
      "d": 113.33333333333212,
      "v": 64
    },
    {
      "midi": 57,
      "hit": false,
      "t": 29540.000000000004,
      "d": 166.66666666666788,
      "v": 83
    },
    {
      "midi": 55,
      "hit": false,
      "t": 29740.000000000004,
      "d": 120,
      "v": 55
    },
    {
      "midi": 55,
      "hit": false,
      "t": 29933.333333333336,
      "d": 186.66666666666424,
      "v": 78
    },
    {
      "midi": 57,
      "hit": false,
      "t": 30106.666666666668,
      "d": 140,
      "v": 76
    },
    {
      "midi": 57,
      "hit": false,
      "t": 30340,
      "d": 1680,
      "v": 93
    },
    {
      "midi": 52,
      "hit": false,
      "t": 31200,
      "d": 400,
      "v": 98
    },
    {
      "midi": 55,
      "hit": false,
      "t": 31600,
      "d": 200,
      "v": 77
    },
    {
      "midi": 50,
      "hit": false,
      "t": 32000,
      "d": 400,
      "v": 55
    },
    {
      "midi": 55,
      "hit": false,
      "t": 32000,
      "d": 600,
      "v": 55
    },
    {
      "midi": 59,
      "hit": false,
      "t": 32000,
      "d": 1400,
      "v": 81
    },
    {
      "midi": 43,
      "hit": false,
      "t": 32000,
      "d": 1600,
      "v": 89
    },
    {
      "midi": 55,
      "hit": false,
      "t": 32173.333333333332,
      "d": 93.33333333333212,
      "v": 103
    },
    {
      "midi": 55,
      "hit": false,
      "t": 32373.333333333332,
      "d": 106.66666666666788,
      "v": 100
    },
    {
      "midi": 55,
      "hit": false,
      "t": 32560,
      "d": 166.66666666666788,
      "v": 63
    },
    {
      "midi": 59,
      "hit": false,
      "t": 32773.333333333336,
      "d": 326.66666666666424,
      "v": 103
    },
    {
      "midi": 50,
      "hit": false,
      "t": 32800,
      "d": 200,
      "v": 41
    },
    {
      "midi": 55,
      "hit": false,
      "t": 32800,
      "d": 400,
      "v": 78
    },
    {
      "midi": 59,
      "hit": false,
      "t": 33166.666666666664,
      "d": 280,
      "v": 87
    },
    {
      "midi": 57,
      "hit": false,
      "t": 33200,
      "d": 400,
      "v": 57
    },
    {
      "midi": 50,
      "hit": false,
      "t": 33600,
      "d": 1000,
      "v": 78
    },
    {
      "midi": 54,
      "hit": false,
      "t": 33600,
      "d": 1000,
      "v": 78
    },
    {
      "midi": 57,
      "hit": false,
      "t": 33600,
      "d": 1000,
      "v": 87
    },
    {
      "midi": 38,
      "hit": false,
      "t": 33600,
      "d": 1200,
      "v": 86
    },
    {
      "midi": 54,
      "hit": false,
      "t": 33600,
      "d": 373.33333333333576,
      "v": 117
    },
    {
      "midi": 55,
      "hit": false,
      "t": 33980,
      "d": 420,
      "v": 81
    },
    {
      "midi": 57,
      "hit": false,
      "t": 34373.333333333336,
      "d": 346.66666666666424,
      "v": 102
    },
    {
      "midi": 55,
      "hit": false,
      "t": 34760,
      "d": 1520,
      "v": 102
    },
    {
      "midi": 48,
      "hit": false,
      "t": 34800,
      "d": 3200,
      "v": 78
    },
    {
      "midi": 52,
      "hit": false,
      "t": 34800,
      "d": 3200,
      "v": 87
    },
    {
      "midi": 55,
      "hit": false,
      "t": 34800,
      "d": 3200,
      "v": 83
    },
    {
      "midi": 36,
      "hit": false,
      "t": 34800,
      "d": 3400,
      "v": 81
    },
    {
      "midi": 55,
      "hit": false,
      "t": 36380,
      "d": 400,
      "v": 94
    },
    {
      "midi": 57,
      "hit": false,
      "t": 36773.333333333336,
      "d": 386.66666666666424,
      "v": 101
    },
    {
      "midi": 59,
      "hit": false,
      "t": 37153.333333333336,
      "d": 433.3333333333285,
      "v": 98
    },
    {
      "midi": 57,
      "hit": false,
      "t": 37560,
      "d": 1006.6666666666642,
      "v": 105
    },
    {
      "midi": 50,
      "hit": false,
      "t": 38400,
      "d": 200,
      "v": 95
    },
    {
      "midi": 55,
      "hit": false,
      "t": 38400,
      "d": 400,
      "v": 101
    },
    {
      "midi": 59,
      "hit": false,
      "t": 38400,
      "d": 1200,
      "v": 90
    },
    {
      "midi": 43,
      "hit": false,
      "t": 38400,
      "d": 1600,
      "v": 108
    },
    {
      "midi": 55,
      "hit": false,
      "t": 38540,
      "d": 120,
      "v": 93
    },
    {
      "midi": 55,
      "hit": false,
      "t": 38746.666666666664,
      "d": 193.33333333333576,
      "v": 97
    },
    {
      "midi": 50,
      "hit": false,
      "t": 38800,
      "d": 800,
      "v": 86
    },
    {
      "midi": 57,
      "hit": false,
      "t": 38960,
      "d": 100,
      "v": 100
    },
    {
      "midi": 57,
      "hit": false,
      "t": 39140,
      "d": 200,
      "v": 86
    },
    {
      "midi": 55,
      "hit": false,
      "t": 39200,
      "d": 400,
      "v": 103
    },
    {
      "midi": 55,
      "hit": false,
      "t": 39346.666666666664,
      "d": 126.66666666666424,
      "v": 86
    },
    {
      "midi": 55,
      "hit": false,
      "t": 39559.99999999999,
      "d": 166.66666666666424,
      "v": 86
    },
    {
      "midi": 57,
      "hit": false,
      "t": 39600,
      "d": 400,
      "v": 80
    },
    {
      "midi": 57,
      "hit": false,
      "t": 39766.66666666666,
      "d": 113.33333333333576,
      "v": 84
    },
    {
      "midi": 57,
      "hit": false,
      "t": 39959.99999999999,
      "d": 213.33333333332848,
      "v": 88
    },
    {
      "midi": 57,
      "hit": false,
      "t": 40000,
      "d": 600,
      "v": 87
    },
    {
      "midi": 50,
      "hit": false,
      "t": 40000,
      "d": 800,
      "v": 86
    },
    {
      "midi": 54,
      "hit": false,
      "t": 40000,
      "d": 1000,
      "v": 96
    },
    {
      "midi": 38,
      "hit": false,
      "t": 40000,
      "d": 1200,
      "v": 93
    },
    {
      "midi": 55,
      "hit": false,
      "t": 40166.66666666666,
      "d": 120,
      "v": 85
    },
    {
      "midi": 55,
      "hit": false,
      "t": 40379.99999999999,
      "d": 160,
      "v": 93
    },
    {
      "midi": 57,
      "hit": false,
      "t": 40573.33333333333,
      "d": 106.66666666666424,
      "v": 87
    },
    {
      "midi": 57,
      "hit": false,
      "t": 40753.33333333333,
      "d": 186.66666666666424,
      "v": 80
    },
    {
      "midi": 55,
      "hit": false,
      "t": 40959.99999999999,
      "d": 120,
      "v": 89
    },
    {
      "midi": 55,
      "hit": false,
      "t": 41166.66666666666,
      "d": 520,
      "v": 95
    },
    {
      "midi": 48,
      "hit": false,
      "t": 41200,
      "d": 2000,
      "v": 96
    },
    {
      "midi": 52,
      "hit": false,
      "t": 41200,
      "d": 2400,
      "v": 97
    },
    {
      "midi": 55,
      "hit": false,
      "t": 41200,
      "d": 2400,
      "v": 80
    },
    {
      "midi": 36,
      "hit": false,
      "t": 41200,
      "d": 3600,
      "v": 87
    },
    {
      "midi": 55,
      "hit": false,
      "t": 41753.33333333332,
      "d": 140,
      "v": 86
    },
    {
      "midi": 55,
      "hit": false,
      "t": 41959.999999999985,
      "d": 193.33333333333576,
      "v": 86
    },
    {
      "midi": 57,
      "hit": false,
      "t": 42166.66666666666,
      "d": 113.33333333333576,
      "v": 74
    },
    {
      "midi": 57,
      "hit": false,
      "t": 42366.66666666666,
      "d": 173.33333333333576,
      "v": 79
    },
    {
      "midi": 55,
      "hit": false,
      "t": 42546.66666666666,
      "d": 133.33333333333576,
      "v": 80
    },
    {
      "midi": 55,
      "hit": false,
      "t": 42746.66666666666,
      "d": 260,
      "v": 81
    },
    {
      "midi": 57,
      "hit": false,
      "t": 42973.33333333332,
      "d": 60,
      "v": 59
    },
    {
      "midi": 57,
      "hit": false,
      "t": 43179.999999999985,
      "d": 1960,
      "v": 102
    },
    {
      "midi": 50,
      "hit": false,
      "t": 43600,
      "d": 800,
      "v": 86
    },
    {
      "midi": 52,
      "hit": false,
      "t": 44000,
      "d": 400,
      "v": 93
    },
    {
      "midi": 55,
      "hit": false,
      "t": 44400,
      "d": 200,
      "v": 77
    },
    {
      "midi": 50,
      "hit": false,
      "t": 44600,
      "d": 400,
      "v": 94
    },
    {
      "midi": 55,
      "hit": false,
      "t": 44800,
      "d": 400,
      "v": 63
    },
    {
      "midi": 59,
      "hit": false,
      "t": 44800,
      "d": 1200,
      "v": 84
    },
    {
      "midi": 43,
      "hit": false,
      "t": 44800,
      "d": 1600,
      "v": 103
    },
    {
      "midi": 55,
      "hit": false,
      "t": 45166.66666666665,
      "d": 220,
      "v": 100
    },
    {
      "midi": 50,
      "hit": false,
      "t": 45200,
      "d": 800,
      "v": 88
    },
    {
      "midi": 57,
      "hit": false,
      "t": 45339.999999999985,
      "d": 126.66666666666424,
      "v": 103
    },
    {
      "midi": 57,
      "hit": false,
      "t": 45533.333333333314,
      "d": 146.66666666666424,
      "v": 86
    },
    {
      "midi": 55,
      "hit": false,
      "t": 45600,
      "d": 400,
      "v": 101
    },
    {
      "midi": 57,
      "hit": false,
      "t": 46000,
      "d": 200,
      "v": 69
    },
    {
      "midi": 59,
      "hit": false,
      "t": 46006.66666666664,
      "d": 153.33333333333576,
      "v": 79
    },
    {
      "midi": 62,
      "hit": false,
      "t": 46193.333333333314,
      "d": 113.33333333333576,
      "v": 82
    },
    {
      "midi": 62,
      "hit": false,
      "t": 46366.66666666665,
      "d": 426.66666666666424,
      "v": 94
    },
    {
      "midi": 57,
      "hit": false,
      "t": 46400,
      "d": 600,
      "v": 75
    },
    {
      "midi": 50,
      "hit": false,
      "t": 46400,
      "d": 800,
      "v": 71
    },
    {
      "midi": 54,
      "hit": false,
      "t": 46400,
      "d": 1000,
      "v": 85
    },
    {
      "midi": 38,
      "hit": false,
      "t": 46400,
      "d": 1200,
      "v": 93
    },
    {
      "midi": 60,
      "hit": false,
      "t": 46733.333333333314,
      "d": 406.66666666666424,
      "v": 94
    },
    {
      "midi": 59,
      "hit": false,
      "t": 47119.99999999998,
      "d": 113.33333333333576,
      "v": 101
    },
    {
      "midi": 60,
      "hit": false,
      "t": 47219.99999999998,
      "d": 153.33333333333576,
      "v": 89
    },
    {
      "midi": 59,
      "hit": false,
      "t": 47326.66666666665,
      "d": 173.33333333332848,
      "v": 95
    },
    {
      "midi": 57,
      "hit": false,
      "t": 47473.333333333314,
      "d": 866.6666666666642,
      "v": 98
    },
    {
      "midi": 36,
      "hit": false,
      "t": 47600,
      "d": 1800,
      "v": 90
    },
    {
      "midi": 48,
      "hit": false,
      "t": 47600,
      "d": 1800,
      "v": 69
    },
    {
      "midi": 52,
      "hit": false,
      "t": 47600,
      "d": 1800,
      "v": 97
    },
    {
      "midi": 55,
      "hit": false,
      "t": 47600,
      "d": 1800,
      "v": 78
    },
    {
      "midi": 55,
      "hit": false,
      "t": 48293.333333333314,
      "d": 1740,
      "v": 94
    },
    {
      "midi": 52,
      "hit": false,
      "t": 49600,
      "d": 200,
      "v": 76
    },
    {
      "midi": 48,
      "hit": false,
      "t": 49600,
      "d": 400,
      "v": 82
    },
    {
      "midi": 36,
      "hit": false,
      "t": 49600,
      "d": 600,
      "v": 79
    },
    {
      "midi": 55,
      "hit": false,
      "t": 49600,
      "d": 800,
      "v": 81
    },
    {
      "midi": 38,
      "hit": false,
      "t": 49800,
      "d": 400,
      "v": 38
    },
    {
      "midi": 62,
      "hit": false,
      "t": 49953.333333333314,
      "d": 806.6666666666642,
      "v": 85
    },
    {
      "midi": 50,
      "hit": false,
      "t": 50400,
      "d": 400,
      "v": 83
    },
    {
      "midi": 54,
      "hit": false,
      "t": 50400,
      "d": 400,
      "v": 81
    },
    {
      "midi": 57,
      "hit": false,
      "t": 50400,
      "d": 400,
      "v": 80
    },
    {
      "midi": 38,
      "hit": false,
      "t": 50400,
      "d": 600,
      "v": 94
    },
    {
      "midi": 57,
      "hit": false,
      "t": 50759.99999999998,
      "d": 220,
      "v": 87
    },
    {
      "midi": 59,
      "hit": false,
      "t": 50939.99999999998,
      "d": 166.66666666666424,
      "v": 85
    },
    {
      "midi": 57,
      "hit": false,
      "t": 51133.33333333331,
      "d": 106.66666666666424,
      "v": 93
    },
    {
      "midi": 60,
      "hit": false,
      "t": 51179.99999999997,
      "d": 286.66666666666424,
      "v": 101
    },
    {
      "midi": 45,
      "hit": false,
      "t": 51200,
      "d": 800,
      "v": 87
    },
    {
      "midi": 52,
      "hit": false,
      "t": 51200,
      "d": 1000,
      "v": 96
    },
    {
      "midi": 57,
      "hit": false,
      "t": 51200,
      "d": 1000,
      "v": 89
    },
    {
      "midi": 60,
      "hit": false,
      "t": 51200,
      "d": 1000,
      "v": 85
    },
    {
      "midi": 60,
      "hit": false,
      "t": 51513.3333333333,
      "d": 140,
      "v": 86
    },
    {
      "midi": 60,
      "hit": false,
      "t": 51726.666666666635,
      "d": 313.33333333333576,
      "v": 90
    },
    {
      "midi": 60,
      "hit": false,
      "t": 52099.99999999997,
      "d": 260,
      "v": 86
    },
    {
      "midi": 62,
      "hit": false,
      "t": 52339.99999999997,
      "d": 246.66666666667152,
      "v": 90
    },
    {
      "midi": 52,
      "hit": false,
      "t": 52400,
      "d": 200,
      "v": 96
    },
    {
      "midi": 45,
      "hit": false,
      "t": 52400,
      "d": 400,
      "v": 87
    },
    {
      "midi": 57,
      "hit": false,
      "t": 52400,
      "d": 400,
      "v": 83
    },
    {
      "midi": 60,
      "hit": false,
      "t": 52400,
      "d": 400,
      "v": 83
    },
    {
      "midi": 60,
      "hit": false,
      "t": 52513.33333333331,
      "d": 226.66666666667152,
      "v": 81
    },
    {
      "midi": 59,
      "hit": false,
      "t": 52759.99999999998,
      "d": 386.66666666666424,
      "v": 103
    },
    {
      "midi": 55,
      "hit": false,
      "t": 52800,
      "d": 800,
      "v": 86
    },
    {
      "midi": 43,
      "hit": false,
      "t": 52800,
      "d": 1000,
      "v": 95
    },
    {
      "midi": 50,
      "hit": false,
      "t": 52800,
      "d": 1000,
      "v": 93
    },
    {
      "midi": 59,
      "hit": false,
      "t": 52800,
      "d": 1200,
      "v": 80
    },
    {
      "midi": 57,
      "hit": false,
      "t": 53153.33333333331,
      "d": 346.66666666666424,
      "v": 88
    },
    {
      "midi": 55,
      "hit": false,
      "t": 53339.99999999997,
      "d": 920,
      "v": 71
    },
    {
      "midi": 41,
      "hit": false,
      "t": 54000,
      "d": 200,
      "v": 80
    },
    {
      "midi": 43,
      "hit": false,
      "t": 54000,
      "d": 400,
      "v": 57
    },
    {
      "midi": 50,
      "hit": false,
      "t": 54000,
      "d": 400,
      "v": 87
    },
    {
      "midi": 55,
      "hit": false,
      "t": 54000,
      "d": 400,
      "v": 84
    },
    {
      "midi": 59,
      "hit": false,
      "t": 54000,
      "d": 400,
      "v": 55
    },
    {
      "midi": 57,
      "hit": false,
      "t": 54193.33333333331,
      "d": 100,
      "v": 79
    },
    {
      "midi": 57,
      "hit": false,
      "t": 54386.66666666664,
      "d": 520,
      "v": 103
    },
    {
      "midi": 38,
      "hit": false,
      "t": 54400,
      "d": 1000,
      "v": 95
    },
    {
      "midi": 54,
      "hit": false,
      "t": 54400,
      "d": 1200,
      "v": 83
    },
    {
      "midi": 57,
      "hit": false,
      "t": 54400,
      "d": 1200,
      "v": 79
    },
    {
      "midi": 50,
      "hit": false,
      "t": 54400,
      "d": 1400,
      "v": 80
    },
    {
      "midi": 62,
      "hit": false,
      "t": 54786.66666666664,
      "d": 326.66666666666424,
      "v": 101
    },
    {
      "midi": 62,
      "hit": false,
      "t": 55193.33333333331,
      "d": 1966.6666666666642,
      "v": 106
    },
    {
      "midi": 38,
      "hit": false,
      "t": 55600,
      "d": 200,
      "v": 87
    },
    {
      "midi": 54,
      "hit": false,
      "t": 55600,
      "d": 400,
      "v": 62
    },
    {
      "midi": 57,
      "hit": false,
      "t": 55600,
      "d": 400,
      "v": 59
    },
    {
      "midi": 50,
      "hit": false,
      "t": 56000,
      "d": 600,
      "v": 85
    },
    {
      "midi": 54,
      "hit": false,
      "t": 56000,
      "d": 600,
      "v": 94
    },
    {
      "midi": 57,
      "hit": false,
      "t": 56000,
      "d": 600,
      "v": 78
    },
    {
      "midi": 38,
      "hit": false,
      "t": 56000,
      "d": 1000,
      "v": 94
    },
    {
      "midi": 50,
      "hit": false,
      "t": 56800,
      "d": 600,
      "v": 100
    },
    {
      "midi": 55,
      "hit": false,
      "t": 56800,
      "d": 600,
      "v": 102
    },
    {
      "midi": 59,
      "hit": false,
      "t": 56800,
      "d": 600,
      "v": 96
    },
    {
      "midi": 57,
      "hit": false,
      "t": 57153.33333333331,
      "d": 220,
      "v": 94
    },
    {
      "midi": 43,
      "hit": false,
      "t": 57200,
      "d": 200,
      "v": 108
    },
    {
      "midi": 59,
      "hit": false,
      "t": 57319.99999999997,
      "d": 260,
      "v": 100
    },
    {
      "midi": 60,
      "hit": false,
      "t": 57553.33333333331,
      "d": 306.66666666666424,
      "v": 103
    },
    {
      "midi": 52,
      "hit": false,
      "t": 57600,
      "d": 800,
      "v": 89
    },
    {
      "midi": 57,
      "hit": false,
      "t": 57600,
      "d": 800,
      "v": 94
    },
    {
      "midi": 60,
      "hit": false,
      "t": 57600,
      "d": 800,
      "v": 82
    },
    {
      "midi": 45,
      "hit": false,
      "t": 57600,
      "d": 1000,
      "v": 101
    },
    {
      "midi": 60,
      "hit": false,
      "t": 57906.666666666635,
      "d": 173.33333333333576,
      "v": 87
    },
    {
      "midi": 60,
      "hit": false,
      "t": 58126.666666666635,
      "d": 473.3333333333285,
      "v": 92
    },
    {
      "midi": 62,
      "hit": false,
      "t": 58553.3333333333,
      "d": 526.6666666666642,
      "v": 86
    },
    {
      "midi": 52,
      "hit": false,
      "t": 58800,
      "d": 200,
      "v": 83
    },
    {
      "midi": 60,
      "hit": false,
      "t": 58800,
      "d": 200,
      "v": 86
    },
    {
      "midi": 45,
      "hit": false,
      "t": 58800,
      "d": 400,
      "v": 102
    },
    {
      "midi": 57,
      "hit": false,
      "t": 58800,
      "d": 400,
      "v": 87
    },
    {
      "midi": 60,
      "hit": false,
      "t": 59019.99999999996,
      "d": 220,
      "v": 98
    },
    {
      "midi": 50,
      "hit": false,
      "t": 59200,
      "d": 800,
      "v": 98
    },
    {
      "midi": 55,
      "hit": false,
      "t": 59200,
      "d": 800,
      "v": 88
    },
    {
      "midi": 59,
      "hit": false,
      "t": 59200,
      "d": 800,
      "v": 85
    },
    {
      "midi": 43,
      "hit": false,
      "t": 59200,
      "d": 1000,
      "v": 96
    },
    {
      "midi": 59,
      "hit": false,
      "t": 59219.99999999996,
      "d": 380,
      "v": 101
    },
    {
      "midi": 57,
      "hit": false,
      "t": 59619.99999999996,
      "d": 400,
      "v": 92
    },
    {
      "midi": 55,
      "hit": false,
      "t": 59806.66666666663,
      "d": 780,
      "v": 101
    },
    {
      "midi": 50,
      "hit": false,
      "t": 60400,
      "d": 200,
      "v": 88
    },
    {
      "midi": 55,
      "hit": false,
      "t": 60400,
      "d": 200,
      "v": 69
    },
    {
      "midi": 59,
      "hit": false,
      "t": 60400,
      "d": 200,
      "v": 76
    },
    {
      "midi": 43,
      "hit": false,
      "t": 60400,
      "d": 400,
      "v": 86
    },
    {
      "midi": 57,
      "hit": false,
      "t": 60593.33333333329,
      "d": 80,
      "v": 93
    },
    {
      "midi": 57,
      "hit": false,
      "t": 60759.999999999956,
      "d": 320,
      "v": 102
    },
    {
      "midi": 38,
      "hit": false,
      "t": 60800,
      "d": 1000,
      "v": 100
    },
    {
      "midi": 50,
      "hit": false,
      "t": 60800,
      "d": 1400,
      "v": 85
    },
    {
      "midi": 54,
      "hit": false,
      "t": 60800,
      "d": 1400,
      "v": 103
    },
    {
      "midi": 57,
      "hit": false,
      "t": 60800,
      "d": 1400,
      "v": 83
    },
    {
      "midi": 50,
      "hit": false,
      "t": 61119.999999999956,
      "d": 226.66666666666424,
      "v": 94
    },
    {
      "midi": 52,
      "hit": false,
      "t": 61353.333333333285,
      "d": 606.6666666666642,
      "v": 110
    },
    {
      "midi": 50,
      "hit": false,
      "t": 61966.66666666661,
      "d": 1100,
      "v": 100
    },
    {
      "midi": 38,
      "hit": false,
      "t": 62000,
      "d": 200,
      "v": 86
    },
    {
      "midi": 50,
      "hit": false,
      "t": 62400,
      "d": 600,
      "v": 88
    },
    {
      "midi": 54,
      "hit": false,
      "t": 62400,
      "d": 600,
      "v": 93
    },
    {
      "midi": 57,
      "hit": false,
      "t": 62400,
      "d": 600,
      "v": 80
    },
    {
      "midi": 38,
      "hit": false,
      "t": 62400,
      "d": 800,
      "v": 78
    },
    {
      "midi": 50,
      "hit": false,
      "t": 63200,
      "d": 600,
      "v": 86
    },
    {
      "midi": 55,
      "hit": false,
      "t": 63200,
      "d": 600,
      "v": 76
    },
    {
      "midi": 59,
      "hit": false,
      "t": 63200,
      "d": 600,
      "v": 80
    },
    {
      "midi": 43,
      "hit": false,
      "t": 63200,
      "d": 800,
      "v": 92
    },
    {
      "midi": 57,
      "hit": false,
      "t": 63359.99999999995,
      "d": 106.66666666666424,
      "v": 110
    },
    {
      "midi": 57,
      "hit": false,
      "t": 63559.99999999995,
      "d": 240,
      "v": 100
    },
    {
      "midi": 59,
      "hit": false,
      "t": 63786.66666666661,
      "d": 100,
      "v": 100
    },
    {
      "midi": 57,
      "hit": false,
      "t": 63946.66666666661,
      "d": 73.33333333333576,
      "v": 87
    },
    {
      "midi": 59,
      "hit": false,
      "t": 63959.99999999995,
      "d": 73.33333333333576,
      "v": 88
    },
    {
      "midi": 60,
      "hit": false,
      "t": 63999.99999999995,
      "d": 293.33333333333576,
      "v": 101
    },
    {
      "midi": 45,
      "hit": false,
      "t": 64000,
      "d": 1000,
      "v": 84
    },
    {
      "midi": 52,
      "hit": false,
      "t": 64000,
      "d": 1000,
      "v": 88
    },
    {
      "midi": 57,
      "hit": false,
      "t": 64000,
      "d": 1000,
      "v": 80
    },
    {
      "midi": 60,
      "hit": false,
      "t": 64000,
      "d": 1000,
      "v": 80
    },
    {
      "midi": 60,
      "hit": false,
      "t": 64333.333333333285,
      "d": 160,
      "v": 93
    },
    {
      "midi": 60,
      "hit": false,
      "t": 64539.99999999995,
      "d": 360,
      "v": 88
    },
    {
      "midi": 60,
      "hit": false,
      "t": 64953.333333333285,
      "d": 233.33333333333576,
      "v": 89
    },
    {
      "midi": 62,
      "hit": false,
      "t": 65173.333333333285,
      "d": 280,
      "v": 78
    },
    {
      "midi": 45,
      "hit": false,
      "t": 65200,
      "d": 400,
      "v": 86
    },
    {
      "midi": 52,
      "hit": false,
      "t": 65200,
      "d": 400,
      "v": 84
    },
    {
      "midi": 57,
      "hit": false,
      "t": 65200,
      "d": 400,
      "v": 84
    },
    {
      "midi": 60,
      "hit": false,
      "t": 65200,
      "d": 400,
      "v": 79
    },
    {
      "midi": 60,
      "hit": false,
      "t": 65373.333333333285,
      "d": 160,
      "v": 86
    },
    {
      "midi": 59,
      "hit": false,
      "t": 65566.66666666661,
      "d": 406.6666666666715,
      "v": 106
    },
    {
      "midi": 52,
      "hit": false,
      "t": 65600,
      "d": 600,
      "v": 76
    },
    {
      "midi": 43,
      "hit": false,
      "t": 65600,
      "d": 1000,
      "v": 86
    },
    {
      "midi": 50,
      "hit": false,
      "t": 65600,
      "d": 1000,
      "v": 76
    },
    {
      "midi": 55,
      "hit": false,
      "t": 65600,
      "d": 1000,
      "v": 87
    },
    {
      "midi": 59,
      "hit": false,
      "t": 65600,
      "d": 1600,
      "v": 81
    },
    {
      "midi": 57,
      "hit": false,
      "t": 65973.33333333328,
      "d": 160,
      "v": 71
    },
    {
      "midi": 55,
      "hit": false,
      "t": 66166.66666666661,
      "d": 493.3333333333285,
      "v": 94
    },
    {
      "midi": 55,
      "hit": false,
      "t": 66759.99999999994,
      "d": 226.66666666667152,
      "v": 68
    },
    {
      "midi": 50,
      "hit": false,
      "t": 66800,
      "d": 200,
      "v": 68
    },
    {
      "midi": 55,
      "hit": false,
      "t": 66800,
      "d": 200,
      "v": 80
    },
    {
      "midi": 43,
      "hit": false,
      "t": 66800,
      "d": 400,
      "v": 73
    },
    {
      "midi": 57,
      "hit": false,
      "t": 66959.99999999994,
      "d": 120,
      "v": 85
    },
    {
      "midi": 57,
      "hit": false,
      "t": 67153.33333333327,
      "d": 400,
      "v": 103
    },
    {
      "midi": 38,
      "hit": false,
      "t": 67200,
      "d": 1200,
      "v": 89
    },
    {
      "midi": 50,
      "hit": false,
      "t": 67200,
      "d": 1400,
      "v": 76
    },
    {
      "midi": 54,
      "hit": false,
      "t": 67200,
      "d": 1600,
      "v": 82
    },
    {
      "midi": 57,
      "hit": false,
      "t": 67200,
      "d": 1600,
      "v": 79
    },
    {
      "midi": 62,
      "hit": false,
      "t": 67553.33333333327,
      "d": 286.6666666666715,
      "v": 105
    },
    {
      "midi": 62,
      "hit": false,
      "t": 67946.66666666661,
      "d": 1500,
      "v": 106
    },
    {
      "midi": 38,
      "hit": false,
      "t": 68400,
      "d": 400,
      "v": 74
    },
    {
      "midi": 57,
      "hit": false,
      "t": 68800,
      "d": 800,
      "v": 70
    },
    {
      "midi": 50,
      "hit": false,
      "t": 68800,
      "d": 1000,
      "v": 62
    },
    {
      "midi": 54,
      "hit": false,
      "t": 68800,
      "d": 1200,
      "v": 69
    },
    {
      "midi": 38,
      "hit": false,
      "t": 68800,
      "d": 1400,
      "v": 87
    },
    {
      "midi": 62,
      "hit": false,
      "t": 69573.33333333328,
      "d": 260,
      "v": 103
    },
    {
      "midi": 57,
      "hit": false,
      "t": 69600,
      "d": 400,
      "v": 105
    },
    {
      "midi": 62,
      "hit": false,
      "t": 69600,
      "d": 600,
      "v": 98
    },
    {
      "midi": 66,
      "hit": false,
      "t": 69600,
      "d": 600,
      "v": 93
    },
    {
      "midi": 64,
      "hit": false,
      "t": 69779.99999999996,
      "d": 193.33333333332848,
      "v": 101
    },
    {
      "midi": 66,
      "hit": false,
      "t": 69986.66666666661,
      "d": 213.33333333334303,
      "v": 108
    },
    {
      "midi": 67,
      "hit": false,
      "t": 70173.33333333328,
      "d": 686.6666666666715,
      "v": 94
    },
    {
      "midi": 62,
      "hit": false,
      "t": 70400,
      "d": 600,
      "v": 103
    },
    {
      "midi": 67,
      "hit": false,
      "t": 70400,
      "d": 600,
      "v": 93
    },
    {
      "midi": 59,
      "hit": false,
      "t": 70400,
      "d": 800,
      "v": 102
    },
    {
      "midi": 62,
      "hit": false,
      "t": 70859.99999999996,
      "d": 93.33333333332848,
      "v": 94
    },
    {
      "midi": 62,
      "hit": false,
      "t": 71059.99999999996,
      "d": 633.333333333343,
      "v": 103
    },
    {
      "midi": 43,
      "hit": false,
      "t": 71600,
      "d": 1400,
      "v": 83
    },
    {
      "midi": 59,
      "hit": false,
      "t": 71626.66666666663,
      "d": 93.33333333334303,
      "v": 100
    },
    {
      "midi": 59,
      "hit": false,
      "t": 71819.99999999997,
      "d": 766.6666666666715,
      "v": 93
    },
    {
      "midi": 50,
      "hit": false,
      "t": 72000,
      "d": 600,
      "v": 89
    },
    {
      "midi": 55,
      "hit": false,
      "t": 72000,
      "d": 600,
      "v": 83
    },
    {
      "midi": 59,
      "hit": false,
      "t": 72000,
      "d": 600,
      "v": 83
    },
    {
      "midi": 55,
      "hit": false,
      "t": 72613.33333333331,
      "d": 140,
      "v": 80
    },
    {
      "midi": 62,
      "hit": false,
      "t": 72766.66666666664,
      "d": 446.6666666666715,
      "v": 86
    },
    {
      "midi": 50,
      "hit": false,
      "t": 72800,
      "d": 400,
      "v": 83
    },
    {
      "midi": 55,
      "hit": false,
      "t": 72800,
      "d": 400,
      "v": 80
    },
    {
      "midi": 59,
      "hit": false,
      "t": 72800,
      "d": 400,
      "v": 79
    },
    {
      "midi": 60,
      "hit": false,
      "t": 73193.33333333331,
      "d": 793.333333333343,
      "v": 103
    },
    {
      "midi": 43,
      "hit": false,
      "t": 73200,
      "d": 200,
      "v": 88
    },
    {
      "midi": 51,
      "hit": false,
      "t": 73600,
      "d": 1000,
      "v": 80
    },
    {
      "midi": 55,
      "hit": false,
      "t": 73600,
      "d": 1000,
      "v": 76
    },
    {
      "midi": 59,
      "hit": false,
      "t": 73600,
      "d": 1200,
      "v": 77
    },
    {
      "midi": 43,
      "hit": false,
      "t": 73600,
      "d": 3200,
      "v": 66
    },
    {
      "midi": 59,
      "hit": false,
      "t": 73979.99999999999,
      "d": 380,
      "v": 97
    },
    {
      "midi": 57,
      "hit": false,
      "t": 74366.66666666666,
      "d": 313.3333333333285,
      "v": 97
    },
    {
      "midi": 51,
      "hit": false,
      "t": 74793.33333333331,
      "d": 1493.3333333333285,
      "v": 113
    },
    {
      "midi": 51,
      "hit": false,
      "t": 74800,
      "d": 1200,
      "v": 63
    },
    {
      "midi": 59,
      "hit": false,
      "t": 74800,
      "d": 1200,
      "v": 65
    },
    {
      "midi": 55,
      "hit": false,
      "t": 76733.33333333331,
      "d": 66.66666666667152,
      "v": 70
    },
    {
      "midi": 57,
      "hit": false,
      "t": 76733.33333333331,
      "d": 93.33333333334303,
      "v": 78
    },
    {
      "midi": 60,
      "hit": false,
      "t": 76779.99999999999,
      "d": 373.33333333334303,
      "v": 102
    },
    {
      "midi": 43,
      "hit": false,
      "t": 76800,
      "d": 400,
      "v": 70
    },
    {
      "midi": 52,
      "hit": false,
      "t": 76800,
      "d": 400,
      "v": 78
    },
    {
      "midi": 55,
      "hit": false,
      "t": 76800,
      "d": 400,
      "v": 81
    },
    {
      "midi": 60,
      "hit": false,
      "t": 76800,
      "d": 400,
      "v": 82
    },
    {
      "midi": 59,
      "hit": false,
      "t": 77186.66666666666,
      "d": 2740,
      "v": 96
    },
    {
      "midi": 50,
      "hit": false,
      "t": 77200,
      "d": 2400,
      "v": 90
    },
    {
      "midi": 55,
      "hit": false,
      "t": 77200,
      "d": 2400,
      "v": 86
    },
    {
      "midi": 59,
      "hit": false,
      "t": 77200,
      "d": 2400,
      "v": 79
    },
    {
      "midi": 43,
      "hit": false,
      "t": 77200,
      "d": 2600,
      "v": 76
    },
    {
      "midi": 57,
      "hit": false,
      "t": 79946.66666666666,
      "d": 80.00000000001455,
      "v": 98
    },
    {
      "midi": 55,
      "hit": false,
      "t": 79953.33333333333,
      "d": 46.66666666667152,
      "v": 81
    },
    {
      "midi": 52,
      "hit": false,
      "t": 80000,
      "d": 200,
      "v": 81
    },
    {
      "midi": 60,
      "hit": false,
      "t": 80000,
      "d": 200,
      "v": 83
    },
    {
      "midi": 55,
      "hit": false,
      "t": 80000,
      "d": 1000,
      "v": 80
    },
    {
      "midi": 43,
      "hit": false,
      "t": 80000,
      "d": 1200,
      "v": 85
    },
    {
      "midi": 60,
      "hit": false,
      "t": 80000,
      "d": 420.00000000001455,
      "v": 103
    },
    {
      "midi": 59,
      "hit": false,
      "t": 80393.33333333334,
      "d": 806.6666666666715,
      "v": 113
    },
    {
      "midi": 50,
      "hit": false,
      "t": 80400,
      "d": 600,
      "v": 86
    },
    {
      "midi": 59,
      "hit": false,
      "t": 80400,
      "d": 800,
      "v": 77
    },
    {
      "midi": 52,
      "hit": false,
      "t": 81200,
      "d": 200,
      "v": 78
    },
    {
      "midi": 43,
      "hit": false,
      "t": 81200,
      "d": 400,
      "v": 73
    },
    {
      "midi": 55,
      "hit": false,
      "t": 81200,
      "d": 400,
      "v": 73
    },
    {
      "midi": 60,
      "hit": false,
      "t": 81200,
      "d": 400,
      "v": 86
    },
    {
      "midi": 60,
      "hit": false,
      "t": 81220.00000000001,
      "d": 400,
      "v": 100
    },
    {
      "midi": 50,
      "hit": false,
      "t": 81600,
      "d": 600,
      "v": 93
    },
    {
      "midi": 55,
      "hit": false,
      "t": 81600,
      "d": 600,
      "v": 86
    },
    {
      "midi": 59,
      "hit": false,
      "t": 81600,
      "d": 600,
      "v": 81
    },
    {
      "midi": 43,
      "hit": false,
      "t": 81600,
      "d": 1000,
      "v": 86
    },
    {
      "midi": 59,
      "hit": false,
      "t": 81613.33333333334,
      "d": 700,
      "v": 110
    },
    {
      "midi": 59,
      "hit": false,
      "t": 82380.00000000001,
      "d": 720,
      "v": 95
    },
    {
      "midi": 50,
      "hit": false,
      "t": 82400,
      "d": 600,
      "v": 87
    },
    {
      "midi": 55,
      "hit": false,
      "t": 82400,
      "d": 600,
      "v": 81
    },
    {
      "midi": 59,
      "hit": false,
      "t": 82400,
      "d": 600,
      "v": 76
    },
    {
      "midi": 43,
      "hit": false,
      "t": 82800,
      "d": 400,
      "v": 53
    },
    {
      "midi": 55,
      "hit": false,
      "t": 83133.33333333334,
      "d": 73.33333333334303,
      "v": 81
    },
    {
      "midi": 59,
      "hit": false,
      "t": 83180.00000000001,
      "d": 413.33333333334303,
      "v": 97
    },
    {
      "midi": 55,
      "hit": false,
      "t": 83200,
      "d": 200,
      "v": 74
    },
    {
      "midi": 50,
      "hit": false,
      "t": 83200,
      "d": 400,
      "v": 84
    },
    {
      "midi": 59,
      "hit": false,
      "t": 83200,
      "d": 400,
      "v": 76
    },
    {
      "midi": 38,
      "hit": false,
      "t": 83200,
      "d": 1000,
      "v": 93
    },
    {
      "midi": 57,
      "hit": false,
      "t": 83546.66666666669,
      "d": 5140,
      "v": 106
    },
    {
      "midi": 50,
      "hit": false,
      "t": 83600,
      "d": 1000,
      "v": 76
    },
    {
      "midi": 54,
      "hit": false,
      "t": 83600,
      "d": 1000,
      "v": 88
    },
    {
      "midi": 57,
      "hit": false,
      "t": 83600,
      "d": 1000,
      "v": 83
    },
    {
      "midi": 38,
      "hit": false,
      "t": 84400,
      "d": 200,
      "v": 85
    },
    {
      "midi": 38,
      "hit": false,
      "t": 84800,
      "d": 800,
      "v": 86
    },
    {
      "midi": 50,
      "hit": false,
      "t": 84800,
      "d": 2000,
      "v": 52
    },
    {
      "midi": 54,
      "hit": false,
      "t": 84800,
      "d": 2000,
      "v": 76
    },
    {
      "midi": 57,
      "hit": false,
      "t": 84800,
      "d": 2000,
      "v": 64
    },
    {
      "midi": 38,
      "hit": false,
      "t": 86000,
      "d": 200,
      "v": 93
    },
    {
      "midi": 39,
      "hit": false,
      "t": 86400,
      "d": 200,
      "v": 98
    },
    {
      "midi": 39,
      "hit": false,
      "t": 86600,
      "d": 1000,
      "v": 86
    },
    {
      "midi": 59,
      "hit": false,
      "t": 86740.00000000003,
      "d": 720,
      "v": 113
    },
    {
      "midi": 50,
      "hit": false,
      "t": 86800,
      "d": 400,
      "v": 71
    },
    {
      "midi": 54,
      "hit": false,
      "t": 86800,
      "d": 400,
      "v": 79
    },
    {
      "midi": 57,
      "hit": false,
      "t": 86800,
      "d": 400,
      "v": 78
    },
    {
      "midi": 59,
      "hit": false,
      "t": 87200,
      "d": 1200,
      "v": 84
    },
    {
      "midi": 59,
      "hit": false,
      "t": 87526.6666666667,
      "d": 400,
      "v": 94
    },
    {
      "midi": 39,
      "hit": false,
      "t": 87600,
      "d": 400,
      "v": 106
    },
    {
      "midi": 64,
      "hit": false,
      "t": 87940.00000000003,
      "d": 380,
      "v": 103
    },
    {
      "midi": 39,
      "hit": false,
      "t": 88000,
      "d": 1400,
      "v": 102
    },
    {
      "midi": 59,
      "hit": false,
      "t": 88306.6666666667,
      "d": 366.66666666665697,
      "v": 103
    },
    {
      "midi": 60,
      "hit": false,
      "t": 88400,
      "d": 400,
      "v": 83
    },
    {
      "midi": 57,
      "hit": false,
      "t": 88686.66666666669,
      "d": 166.66666666667152,
      "v": 89
    },
    {
      "midi": 59,
      "hit": false,
      "t": 88800,
      "d": 200,
      "v": 100
    },
    {
      "midi": 57,
      "hit": false,
      "t": 89000,
      "d": 200,
      "v": 38
    },
    {
      "midi": 55,
      "hit": false,
      "t": 89066.66666666669,
      "d": 766.6666666666715,
      "v": 83
    },
    {
      "midi": 55,
      "hit": false,
      "t": 89200,
      "d": 200,
      "v": 79
    },
    {
      "midi": 57,
      "hit": false,
      "t": 89526.66666666669,
      "d": 433.3333333333285,
      "v": 105
    },
    {
      "midi": 39,
      "hit": false,
      "t": 89600,
      "d": 200,
      "v": 78
    },
    {
      "midi": 50,
      "hit": false,
      "t": 89600,
      "d": 200,
      "v": 63
    },
    {
      "midi": 54,
      "hit": false,
      "t": 89600,
      "d": 200,
      "v": 98
    },
    {
      "midi": 57,
      "hit": false,
      "t": 89600,
      "d": 200,
      "v": 78
    },
    {
      "midi": 59,
      "hit": false,
      "t": 89926.66666666669,
      "d": 2633.3333333333285,
      "v": 103
    },
    {
      "midi": 43,
      "hit": false,
      "t": 90000,
      "d": 800,
      "v": 84
    },
    {
      "midi": 50,
      "hit": false,
      "t": 90000,
      "d": 2600,
      "v": 83
    },
    {
      "midi": 55,
      "hit": false,
      "t": 90000,
      "d": 2600,
      "v": 94
    },
    {
      "midi": 59,
      "hit": false,
      "t": 90000,
      "d": 2600,
      "v": 87
    },
    {
      "midi": 43,
      "hit": false,
      "t": 90800,
      "d": 200,
      "v": 55
    },
    {
      "midi": 43,
      "hit": false,
      "t": 91200,
      "d": 1200,
      "v": 78
    },
    {
      "midi": 59,
      "hit": false,
      "t": 92740.00000000001,
      "d": 326.6666666666715,
      "v": 92
    },
    {
      "midi": 50,
      "hit": false,
      "t": 92800,
      "d": 400,
      "v": 58
    },
    {
      "midi": 55,
      "hit": false,
      "t": 92800,
      "d": 400,
      "v": 69
    },
    {
      "midi": 59,
      "hit": false,
      "t": 92800,
      "d": 400,
      "v": 73
    },
    {
      "midi": 43,
      "hit": false,
      "t": 92800,
      "d": 1200,
      "v": 85
    },
    {
      "midi": 59,
      "hit": false,
      "t": 93146.66666666669,
      "d": 273.3333333333285,
      "v": 79
    },
    {
      "midi": 50,
      "hit": false,
      "t": 93200,
      "d": 200,
      "v": 78
    },
    {
      "midi": 55,
      "hit": false,
      "t": 93200,
      "d": 400,
      "v": 79
    },
    {
      "midi": 59,
      "hit": false,
      "t": 93200,
      "d": 400,
      "v": 88
    },
    {
      "midi": 59,
      "hit": false,
      "t": 93493.33333333334,
      "d": 326.6666666666715,
      "v": 73
    },
    {
      "midi": 50,
      "hit": false,
      "t": 93600,
      "d": 200,
      "v": 76
    },
    {
      "midi": 55,
      "hit": false,
      "t": 93600,
      "d": 400,
      "v": 76
    },
    {
      "midi": 59,
      "hit": false,
      "t": 93600,
      "d": 400,
      "v": 83
    },
    {
      "midi": 59,
      "hit": false,
      "t": 93900.00000000001,
      "d": 413.3333333333285,
      "v": 72
    },
    {
      "midi": 50,
      "hit": false,
      "t": 94000,
      "d": 200,
      "v": 68
    },
    {
      "midi": 55,
      "hit": false,
      "t": 94000,
      "d": 200,
      "v": 70
    },
    {
      "midi": 59,
      "hit": false,
      "t": 94000,
      "d": 200,
      "v": 79
    },
    {
      "midi": 43,
      "hit": false,
      "t": 94200,
      "d": 200,
      "v": 79
    },
    {
      "midi": 60,
      "hit": false,
      "t": 94346.66666666667,
      "d": 300,
      "v": 65
    },
    {
      "midi": 52,
      "hit": false,
      "t": 94400,
      "d": 200,
      "v": 88
    },
    {
      "midi": 60,
      "hit": false,
      "t": 94400,
      "d": 200,
      "v": 80
    },
    {
      "midi": 57,
      "hit": false,
      "t": 94400,
      "d": 400,
      "v": 83
    },
    {
      "midi": 45,
      "hit": false,
      "t": 94400,
      "d": 800,
      "v": 93
    },
    {
      "midi": 60,
      "hit": false,
      "t": 94700,
      "d": 413.3333333333285,
      "v": 59
    },
    {
      "midi": 52,
      "hit": false,
      "t": 94800,
      "d": 200,
      "v": 65
    },
    {
      "midi": 57,
      "hit": false,
      "t": 94800,
      "d": 200,
      "v": 76
    },
    {
      "midi": 60,
      "hit": false,
      "t": 94800,
      "d": 200,
      "v": 66
    },
    {
      "midi": 62,
      "hit": false,
      "t": 95133.33333333333,
      "d": 393.3333333333285,
      "v": 79
    },
    {
      "midi": 55,
      "hit": false,
      "t": 95200,
      "d": 200,
      "v": 78
    },
    {
      "midi": 59,
      "hit": false,
      "t": 95200,
      "d": 200,
      "v": 94
    },
    {
      "midi": 62,
      "hit": false,
      "t": 95200,
      "d": 200,
      "v": 88
    },
    {
      "midi": 47,
      "hit": false,
      "t": 95200,
      "d": 400,
      "v": 93
    },
    {
      "midi": 60,
      "hit": false,
      "t": 95600,
      "d": 600,
      "v": 101
    },
    {
      "midi": 64,
      "hit": false,
      "t": 95600,
      "d": 600,
      "v": 94
    },
    {
      "midi": 55,
      "hit": false,
      "t": 95600,
      "d": 800,
      "v": 83
    },
    {
      "midi": 64,
      "hit": false,
      "t": 95699.99999999999,
      "d": 573.3333333333285,
      "v": 79
    },
    {
      "midi": 48,
      "hit": false,
      "t": 96000,
      "d": 1000,
      "v": 102
    },
    {
      "midi": 62,
      "hit": false,
      "t": 96200,
      "d": 200,
      "v": 76
    },
    {
      "midi": 62,
      "hit": false,
      "t": 96239.99999999999,
      "d": 400,
      "v": 79
    },
    {
      "midi": 60,
      "hit": false,
      "t": 96400,
      "d": 200,
      "v": 103
    },
    {
      "midi": 55,
      "hit": false,
      "t": 96600,
      "d": 1600,
      "v": 92
    },
    {
      "midi": 64,
      "hit": false,
      "t": 96666.66666666666,
      "d": 2333.3333333333285,
      "v": 74
    },
    {
      "midi": 60,
      "hit": false,
      "t": 96800,
      "d": 1400,
      "v": 96
    },
    {
      "midi": 64,
      "hit": false,
      "t": 96800,
      "d": 1400,
      "v": 74
    },
    {
      "midi": 48,
      "hit": false,
      "t": 97200,
      "d": 200,
      "v": 86
    },
    {
      "midi": 48,
      "hit": false,
      "t": 97600,
      "d": 1000,
      "v": 103
    },
    {
      "midi": 55,
      "hit": false,
      "t": 98400,
      "d": 600,
      "v": 72
    },
    {
      "midi": 60,
      "hit": false,
      "t": 98400,
      "d": 800,
      "v": 84
    },
    {
      "midi": 64,
      "hit": false,
      "t": 98400,
      "d": 800,
      "v": 81
    },
    {
      "midi": 48,
      "hit": false,
      "t": 98800,
      "d": 400,
      "v": 90
    },
    {
      "midi": 64,
      "hit": false,
      "t": 99179.99999999999,
      "d": 293.3333333333285,
      "v": 100
    },
    {
      "midi": 57,
      "hit": false,
      "t": 99200,
      "d": 400,
      "v": 86
    },
    {
      "midi": 60,
      "hit": false,
      "t": 99200,
      "d": 400,
      "v": 86
    },
    {
      "midi": 64,
      "hit": false,
      "t": 99200,
      "d": 400,
      "v": 81
    },
    {
      "midi": 45,
      "hit": false,
      "t": 99200,
      "d": 1200,
      "v": 64
    },
    {
      "midi": 64,
      "hit": false,
      "t": 99553.33333333331,
      "d": 306.6666666666715,
      "v": 83
    },
    {
      "midi": 57,
      "hit": false,
      "t": 99600,
      "d": 200,
      "v": 76
    },
    {
      "midi": 64,
      "hit": false,
      "t": 99600,
      "d": 200,
      "v": 65
    },
    {
      "midi": 60,
      "hit": false,
      "t": 99600,
      "d": 400,
      "v": 81
    },
    {
      "midi": 64,
      "hit": false,
      "t": 99966.66666666666,
      "d": 300,
      "v": 94
    },
    {
      "midi": 57,
      "hit": false,
      "t": 100000,
      "d": 200,
      "v": 80
    },
    {
      "midi": 64,
      "hit": false,
      "t": 100000,
      "d": 200,
      "v": 87
    },
    {
      "midi": 60,
      "hit": false,
      "t": 100000,
      "d": 400,
      "v": 81
    },
    {
      "midi": 64,
      "hit": false,
      "t": 100359.99999999999,
      "d": 126.66666666667152,
      "v": 84
    },
    {
      "midi": 57,
      "hit": false,
      "t": 100400,
      "d": 200,
      "v": 65
    },
    {
      "midi": 60,
      "hit": false,
      "t": 100400,
      "d": 200,
      "v": 78
    },
    {
      "midi": 64,
      "hit": false,
      "t": 100400,
      "d": 200,
      "v": 83
    },
    {
      "midi": 45,
      "hit": false,
      "t": 100600,
      "d": 200,
      "v": 76
    },
    {
      "midi": 66,
      "hit": false,
      "t": 100773.33333333333,
      "d": 353.3333333333285,
      "v": 102
    },
    {
      "midi": 57,
      "hit": false,
      "t": 100800,
      "d": 200,
      "v": 84
    },
    {
      "midi": 62,
      "hit": false,
      "t": 100800,
      "d": 400,
      "v": 86
    },
    {
      "midi": 66,
      "hit": false,
      "t": 100800,
      "d": 1200,
      "v": 98
    },
    {
      "midi": 59,
      "hit": false,
      "t": 101153.33333333333,
      "d": 306.6666666666715,
      "v": 102
    },
    {
      "midi": 57,
      "hit": false,
      "t": 101200,
      "d": 200,
      "v": 87
    },
    {
      "midi": 59,
      "hit": false,
      "t": 101540,
      "d": 366.6666666666715,
      "v": 102
    },
    {
      "midi": 57,
      "hit": false,
      "t": 101600,
      "d": 200,
      "v": 87
    },
    {
      "midi": 69,
      "hit": false,
      "t": 101926.66666666667,
      "d": 806.6666666666715,
      "v": 115
    },
    {
      "midi": 62,
      "hit": false,
      "t": 102000,
      "d": 200,
      "v": 94
    },
    {
      "midi": 69,
      "hit": false,
      "t": 102000,
      "d": 600,
      "v": 58
    },
    {
      "midi": 60,
      "hit": false,
      "t": 102000,
      "d": 800,
      "v": 97
    },
    {
      "midi": 64,
      "hit": false,
      "t": 102000,
      "d": 800,
      "v": 98
    },
    {
      "midi": 67,
      "hit": false,
      "t": 102766.66666666667,
      "d": 626.666666666657,
      "v": 117
    },
    {
      "midi": 62,
      "hit": false,
      "t": 102800,
      "d": 600,
      "v": 98
    },
    {
      "midi": 67,
      "hit": false,
      "t": 102800,
      "d": 1000,
      "v": 83
    },
    {
      "midi": 59,
      "hit": false,
      "t": 102800,
      "d": 1400,
      "v": 92
    },
    {
      "midi": 64,
      "hit": false,
      "t": 103380,
      "d": 220,
      "v": 101
    },
    {
      "midi": 64,
      "hit": false,
      "t": 103400,
      "d": 200,
      "v": 79
    }
  ]
}