{
  "jsonPath": "Country/Irish Country/Joe Dolan/these-are-the-days-of-our-lives.json",
  "path": "Country\\Irish Country\\Joe Dolan\\These Are The Days Of Our Lives.mid",
  "name": "These Are The Days Of Our Lives",
  "difficulty": "Advanced",
  "bpm": 112.00005973336519,
  "notes": [
    {
      "midi": 60,
      "hit": false,
      "t": 8571.424,
      "d": 2879.4627500000006,
      "v": 77
    },
    {
      "midi": 64,
      "hit": false,
      "t": 8571.424,
      "d": 2879.4627500000006,
      "v": 77
    },
    {
      "midi": 67,
      "hit": false,
      "t": 8571.424,
      "d": 2879.4627500000006,
      "v": 77
    },
    {
      "midi": 60,
      "hit": false,
      "t": 11517.851000000002,
      "d": 736.6067500000008,
      "v": 77
    },
    {
      "midi": 65,
      "hit": false,
      "t": 11517.851000000002,
      "d": 736.6067500000008,
      "v": 77
    },
    {
      "midi": 69,
      "hit": false,
      "t": 11517.851000000002,
      "d": 736.6067500000008,
      "v": 77
    },
    {
      "midi": 64,
      "hit": false,
      "t": 12321.422000000004,
      "d": 502.2318749999995,
      "v": 77
    },
    {
      "midi": 67,
      "hit": false,
      "t": 12321.422000000004,
      "d": 502.2318749999995,
      "v": 77
    },
    {
      "midi": 60,
      "hit": false,
      "t": 12321.422000000004,
      "d": 535.7139999999999,
      "v": 77
    },
    {
      "midi": 60,
      "hit": false,
      "t": 12857.136000000004,
      "d": 2109.3738749999993,
      "v": 77
    },
    {
      "midi": 53,
      "hit": false,
      "t": 12857.136000000004,
      "d": 2142.8559999999998,
      "v": 77
    },
    {
      "midi": 57,
      "hit": false,
      "t": 12857.136000000004,
      "d": 2142.8559999999998,
      "v": 77
    },
    {
      "midi": 53,
      "hit": false,
      "t": 14999.992000000004,
      "d": 736.6067500000008,
      "v": 77
    },
    {
      "midi": 58,
      "hit": false,
      "t": 14999.992000000004,
      "d": 736.6067500000008,
      "v": 77
    },
    {
      "midi": 62,
      "hit": false,
      "t": 14999.992000000004,
      "d": 736.6067500000008,
      "v": 77
    },
    {
      "midi": 53,
      "hit": false,
      "t": 15803.563000000006,
      "d": 1305.8028750000012,
      "v": 77
    },
    {
      "midi": 57,
      "hit": false,
      "t": 15803.563000000006,
      "d": 1305.8028750000012,
      "v": 77
    },
    {
      "midi": 60,
      "hit": false,
      "t": 15803.563000000006,
      "d": 1305.8028750000012,
      "v": 77
    },
    {
      "midi": 60,
      "hit": false,
      "t": 17142.848000000005,
      "d": 2879.462749999999,
      "v": 77
    },
    {
      "midi": 64,
      "hit": false,
      "t": 17142.848000000005,
      "d": 2879.462749999999,
      "v": 77
    },
    {
      "midi": 67,
      "hit": false,
      "t": 17142.848000000005,
      "d": 2879.462749999999,
      "v": 77
    },
    {
      "midi": 60,
      "hit": false,
      "t": 20089.275000000005,
      "d": 736.606749999999,
      "v": 77
    },
    {
      "midi": 65,
      "hit": false,
      "t": 20089.275000000005,
      "d": 736.606749999999,
      "v": 77
    },
    {
      "midi": 69,
      "hit": false,
      "t": 20089.275000000005,
      "d": 736.606749999999,
      "v": 77
    },
    {
      "midi": 64,
      "hit": false,
      "t": 20892.846000000005,
      "d": 502.2318750000013,
      "v": 77
    },
    {
      "midi": 67,
      "hit": false,
      "t": 20892.846000000005,
      "d": 502.2318750000013,
      "v": 77
    },
    {
      "midi": 60,
      "hit": false,
      "t": 20892.846000000005,
      "d": 535.7139999999999,
      "v": 77
    },
    {
      "midi": 53,
      "hit": false,
      "t": 21428.560000000005,
      "d": 2109.373875000001,
      "v": 77
    },
    {
      "midi": 57,
      "hit": false,
      "t": 21428.560000000005,
      "d": 2109.373875000001,
      "v": 77
    },
    {
      "midi": 60,
      "hit": false,
      "t": 21428.560000000005,
      "d": 2109.373875000001,
      "v": 77
    },
    {
      "midi": 53,
      "hit": false,
      "t": 23571.416000000005,
      "d": 736.606749999999,
      "v": 77
    },
    {
      "midi": 58,
      "hit": false,
      "t": 23571.416000000005,
      "d": 736.606749999999,
      "v": 77
    },
    {
      "midi": 62,
      "hit": false,
      "t": 23571.416000000005,
      "d": 736.606749999999,
      "v": 77
    },
    {
      "midi": 53,
      "hit": false,
      "t": 24374.987000000005,
      "d": 1305.8028750000012,
      "v": 77
    },
    {
      "midi": 57,
      "hit": false,
      "t": 24374.987000000005,
      "d": 1339.2849999999999,
      "v": 77
    },
    {
      "midi": 60,
      "hit": false,
      "t": 24374.987000000005,
      "d": 1339.2849999999999,
      "v": 77
    },
    {
      "midi": 55,
      "hit": false,
      "t": 25714.272000000004,
      "d": 4252.229875000001,
      "v": 77
    },
    {
      "midi": 60,
      "hit": false,
      "t": 25714.272000000004,
      "d": 4252.229875000001,
      "v": 77
    },
    {
      "midi": 64,
      "hit": false,
      "t": 25714.272000000004,
      "d": 4285.7119999999995,
      "v": 77
    },
    {
      "midi": 55,
      "hit": false,
      "t": 29999.984000000004,
      "d": 4252.229874999997,
      "v": 77
    },
    {
      "midi": 59,
      "hit": false,
      "t": 29999.984000000004,
      "d": 4252.229874999997,
      "v": 77
    },
    {
      "midi": 62,
      "hit": false,
      "t": 29999.984000000004,
      "d": 4252.229874999997,
      "v": 77
    },
    {
      "midi": 57,
      "hit": false,
      "t": 34285.696,
      "d": 4252.229874999997,
      "v": 77
    },
    {
      "midi": 62,
      "hit": false,
      "t": 34285.696,
      "d": 4285.7119999999995,
      "v": 77
    },
    {
      "midi": 65,
      "hit": false,
      "t": 34285.696,
      "d": 4285.7119999999995,
      "v": 77
    },
    {
      "midi": 57,
      "hit": false,
      "t": 38571.408,
      "d": 4252.229874999997,
      "v": 77
    },
    {
      "midi": 60,
      "hit": false,
      "t": 38571.408,
      "d": 4285.7119999999995,
      "v": 77
    },
    {
      "midi": 64,
      "hit": false,
      "t": 38571.408,
      "d": 4285.7119999999995,
      "v": 77
    },
    {
      "midi": 55,
      "hit": false,
      "t": 42857.12,
      "d": 4252.229874999997,
      "v": 77
    },
    {
      "midi": 59,
      "hit": false,
      "t": 42857.12,
      "d": 4252.229874999997,
      "v": 77
    },
    {
      "midi": 62,
      "hit": false,
      "t": 42857.12,
      "d": 4252.229874999997,
      "v": 77
    },
    {
      "midi": 60,
      "hit": false,
      "t": 47142.832,
      "d": 736.606749999999,
      "v": 77
    },
    {
      "midi": 64,
      "hit": false,
      "t": 47142.832,
      "d": 736.606749999999,
      "v": 77
    },
    {
      "midi": 67,
      "hit": false,
      "t": 47142.832,
      "d": 736.606749999999,
      "v": 77
    },
    {
      "midi": 62,
      "hit": false,
      "t": 47946.403,
      "d": 736.606749999999,
      "v": 77
    },
    {
      "midi": 65,
      "hit": false,
      "t": 47946.403,
      "d": 736.606749999999,
      "v": 77
    },
    {
      "midi": 67,
      "hit": false,
      "t": 47946.403,
      "d": 736.606749999999,
      "v": 77
    },
    {
      "midi": 60,
      "hit": false,
      "t": 48749.973999999995,
      "d": 502.2318749999977,
      "v": 77
    },
    {
      "midi": 64,
      "hit": false,
      "t": 48749.973999999995,
      "d": 502.2318749999977,
      "v": 77
    },
    {
      "midi": 67,
      "hit": false,
      "t": 48749.973999999995,
      "d": 502.2318749999977,
      "v": 77
    },
    {
      "midi": 59,
      "hit": false,
      "t": 49285.687999999995,
      "d": 736.606749999999,
      "v": 77
    },
    {
      "midi": 62,
      "hit": false,
      "t": 49285.687999999995,
      "d": 736.606749999999,
      "v": 77
    },
    {
      "midi": 67,
      "hit": false,
      "t": 49285.687999999995,
      "d": 736.606749999999,
      "v": 77
    },
    {
      "midi": 60,
      "hit": false,
      "t": 50089.25899999999,
      "d": 736.606749999999,
      "v": 77
    },
    {
      "midi": 64,
      "hit": false,
      "t": 50089.25899999999,
      "d": 736.606749999999,
      "v": 77
    },
    {
      "midi": 67,
      "hit": false,
      "t": 50089.25899999999,
      "d": 736.606749999999,
      "v": 77
    },
    {
      "midi": 59,
      "hit": false,
      "t": 50892.82999999999,
      "d": 502.2318749999977,
      "v": 77
    },
    {
      "midi": 62,
      "hit": false,
      "t": 50892.82999999999,
      "d": 502.2318749999977,
      "v": 77
    },
    {
      "midi": 67,
      "hit": false,
      "t": 50892.82999999999,
      "d": 535.7139999999999,
      "v": 77
    },
    {
      "midi": 57,
      "hit": false,
      "t": 51428.54399999999,
      "d": 4252.229874999997,
      "v": 77
    },
    {
      "midi": 60,
      "hit": false,
      "t": 51428.54399999999,
      "d": 4252.229874999997,
      "v": 77
    },
    {
      "midi": 65,
      "hit": false,
      "t": 51428.54399999999,
      "d": 4252.229874999997,
      "v": 77
    },
    {
      "midi": 72,
      "hit": false,
      "t": 52499.97199999999,
      "d": 3214.2839999999997,
      "v": 77
    },
    {
      "midi": 79,
      "hit": false,
      "t": 52499.97199999999,
      "d": 3214.2839999999997,
      "v": 77
    },
    {
      "midi": 60,
      "hit": false,
      "t": 55714.25599999999,
      "d": 736.606749999999,
      "v": 77
    },
    {
      "midi": 64,
      "hit": false,
      "t": 55714.25599999999,
      "d": 736.606749999999,
      "v": 77
    },
    {
      "midi": 67,
      "hit": false,
      "t": 55714.25599999999,
      "d": 736.606749999999,
      "v": 77
    },
    {
      "midi": 62,
      "hit": false,
      "t": 56517.82699999998,
      "d": 736.606749999999,
      "v": 77
    },
    {
      "midi": 65,
      "hit": false,
      "t": 56517.82699999998,
      "d": 736.606749999999,
      "v": 77
    },
    {
      "midi": 67,
      "hit": false,
      "t": 56517.82699999998,
      "d": 736.606749999999,
      "v": 77
    },
    {
      "midi": 60,
      "hit": false,
      "t": 57321.39799999998,
      "d": 502.2318749999977,
      "v": 77
    },
    {
      "midi": 64,
      "hit": false,
      "t": 57321.39799999998,
      "d": 502.2318749999977,
      "v": 77
    },
    {
      "midi": 67,
      "hit": false,
      "t": 57321.39799999998,
      "d": 502.2318749999977,
      "v": 77
    },
    {
      "midi": 59,
      "hit": false,
      "t": 57857.11199999998,
      "d": 736.606749999999,
      "v": 77
    },
    {
      "midi": 62,
      "hit": false,
      "t": 57857.11199999998,
      "d": 736.606749999999,
      "v": 77
    },
    {
      "midi": 67,
      "hit": false,
      "t": 57857.11199999998,
      "d": 736.606749999999,
      "v": 77
    },
    {
      "midi": 60,
      "hit": false,
      "t": 58660.682999999975,
      "d": 736.606749999999,
      "v": 77
    },
    {
      "midi": 64,
      "hit": false,
      "t": 58660.682999999975,
      "d": 736.606749999999,
      "v": 77
    },
    {
      "midi": 67,
      "hit": false,
      "t": 58660.682999999975,
      "d": 736.606749999999,
      "v": 77
    },
    {
      "midi": 59,
      "hit": false,
      "t": 59464.25399999997,
      "d": 502.2318749999977,
      "v": 77
    },
    {
      "midi": 62,
      "hit": false,
      "t": 59464.25399999997,
      "d": 502.2318749999977,
      "v": 77
    },
    {
      "midi": 67,
      "hit": false,
      "t": 59464.25399999997,
      "d": 535.7139999999999,
      "v": 77
    },
    {
      "midi": 57,
      "hit": false,
      "t": 59999.96799999997,
      "d": 4252.229874999997,
      "v": 77
    },
    {
      "midi": 60,
      "hit": false,
      "t": 59999.96799999997,
      "d": 4252.229874999997,
      "v": 77
    },
    {
      "midi": 65,
      "hit": false,
      "t": 59999.96799999997,
      "d": 4252.229874999997,
      "v": 77
    },
    {
      "midi": 84,
      "hit": false,
      "t": 61071.39599999997,
      "d": 3180.8018749999974,
      "v": 77
    },
    {
      "midi": 72,
      "hit": false,
      "t": 61071.39599999997,
      "d": 3214.2839999999997,
      "v": 77
    },
    {
      "midi": 79,
      "hit": false,
      "t": 61071.39599999997,
      "d": 3214.2839999999997,
      "v": 77
    },
    {
      "midi": 72,
      "hit": false,
      "t": 64285.67999999997,
      "d": 736.606749999999,
      "v": 77
    },
    {
      "midi": 76,
      "hit": false,
      "t": 64285.67999999997,
      "d": 736.606749999999,
      "v": 77
    },
    {
      "midi": 79,
      "hit": false,
      "t": 64285.67999999997,
      "d": 736.606749999999,
      "v": 77
    },
    {
      "midi": 76,
      "hit": false,
      "t": 64285.68000000001,
      "d": 770.0888750000013,
      "v": 119
    },
    {
      "midi": 79,
      "hit": false,
      "t": 64285.68000000001,
      "d": 770.0888750000013,
      "v": 119
    },
    {
      "midi": 74,
      "hit": false,
      "t": 65089.25099999997,
      "d": 736.606749999999,
      "v": 77
    },
    {
      "midi": 77,
      "hit": false,
      "t": 65089.25099999997,
      "d": 736.606749999999,
      "v": 77
    },
    {
      "midi": 79,
      "hit": false,
      "t": 65089.25099999997,
      "d": 736.606749999999,
      "v": 77
    },
    {
      "midi": 74,
      "hit": false,
      "t": 65089.25100000001,
      "d": 770.088874999994,
      "v": 119
    },
    {
      "midi": 77,
      "hit": false,
      "t": 65089.25100000001,
      "d": 770.088874999994,
      "v": 119
    },
    {
      "midi": 79,
      "hit": false,
      "t": 65892.82199999997,
      "d": 502.2318749999977,
      "v": 77
    },
    {
      "midi": 72,
      "hit": false,
      "t": 65892.82199999997,
      "d": 535.7139999999927,
      "v": 77
    },
    {
      "midi": 76,
      "hit": false,
      "t": 65892.82199999997,
      "d": 535.7139999999927,
      "v": 77
    },
    {
      "midi": 72,
      "hit": false,
      "t": 65892.822,
      "d": 502.2318749999977,
      "v": 119
    },
    {
      "midi": 76,
      "hit": false,
      "t": 65892.822,
      "d": 502.2318749999977,
      "v": 119
    },
    {
      "midi": 71,
      "hit": false,
      "t": 66428.53599999996,
      "d": 736.6067500000063,
      "v": 77
    },
    {
      "midi": 74,
      "hit": false,
      "t": 66428.53599999996,
      "d": 736.6067500000063,
      "v": 77
    },
    {
      "midi": 79,
      "hit": false,
      "t": 66428.53599999996,
      "d": 736.6067500000063,
      "v": 77
    },
    {
      "midi": 71,
      "hit": false,
      "t": 66428.536,
      "d": 770.0888750000013,
      "v": 119
    },
    {
      "midi": 74,
      "hit": false,
      "t": 66428.536,
      "d": 770.0888750000013,
      "v": 119
    },
    {
      "midi": 72,
      "hit": false,
      "t": 67232.10699999997,
      "d": 736.6067500000063,
      "v": 77
    },
    {
      "midi": 76,
      "hit": false,
      "t": 67232.10699999997,
      "d": 736.6067500000063,
      "v": 77
    },
    {
      "midi": 79,
      "hit": false,
      "t": 67232.10699999997,
      "d": 736.6067500000063,
      "v": 77
    },
    {
      "midi": 72,
      "hit": false,
      "t": 67232.10699999999,
      "d": 770.0888750000013,
      "v": 119
    },
    {
      "midi": 76,
      "hit": false,
      "t": 67232.10699999999,
      "d": 770.0888750000013,
      "v": 119
    },
    {
      "midi": 74,
      "hit": false,
      "t": 68035.67799999999,
      "d": 502.2318749999977,
      "v": 119
    },
    {
      "midi": 71,
      "hit": false,
      "t": 68035.67799999999,
      "d": 535.7139999999927,
      "v": 119
    },
    {
      "midi": 71,
      "hit": false,
      "t": 68035.67799999999,
      "d": 502.2318749999977,
      "v": 77
    },
    {
      "midi": 74,
      "hit": false,
      "t": 68035.67799999999,
      "d": 502.2318749999977,
      "v": 77
    },
    {
      "midi": 79,
      "hit": false,
      "t": 68035.67799999999,
      "d": 502.2318749999977,
      "v": 77
    },
    {
      "midi": 70,
      "hit": false,
      "t": 68571.39199999998,
      "d": 736.6067500000063,
      "v": 119
    },
    {
      "midi": 74,
      "hit": false,
      "t": 68571.39199999998,
      "d": 736.6067500000063,
      "v": 119
    },
    {
      "midi": 77,
      "hit": false,
      "t": 68571.39199999998,
      "d": 736.6067500000063,
      "v": 119
    },
    {
      "midi": 70,
      "hit": false,
      "t": 68571.39199999998,
      "d": 736.6067500000063,
      "v": 77
    },
    {
      "midi": 74,
      "hit": false,
      "t": 68571.39199999998,
      "d": 736.6067500000063,
      "v": 77
    },
    {
      "midi": 77,
      "hit": false,
      "t": 68571.39199999998,
      "d": 736.6067500000063,
      "v": 77
    },
    {
      "midi": 72,
      "hit": false,
      "t": 69374.96299999999,
      "d": 736.6067500000063,
      "v": 119
    },
    {
      "midi": 76,
      "hit": false,
      "t": 69374.96299999999,
      "d": 736.6067500000063,
      "v": 119
    },
    {
      "midi": 77,
      "hit": false,
      "t": 69374.96299999999,
      "d": 736.6067500000063,
      "v": 119
    },
    {
      "midi": 72,
      "hit": false,
      "t": 69374.96299999999,
      "d": 736.6067500000063,
      "v": 77
    },
    {
      "midi": 76,
      "hit": false,
      "t": 69374.96299999999,
      "d": 736.6067500000063,
      "v": 77
    },
    {
      "midi": 77,
      "hit": false,
      "t": 69374.96299999999,
      "d": 736.6067500000063,
      "v": 77
    },
    {
      "midi": 70,
      "hit": false,
      "t": 70178.534,
      "d": 502.2318749999977,
      "v": 119
    },
    {
      "midi": 74,
      "hit": false,
      "t": 70178.534,
      "d": 502.2318749999977,
      "v": 119
    },
    {
      "midi": 77,
      "hit": false,
      "t": 70178.534,
      "d": 502.2318749999977,
      "v": 119
    },
    {
      "midi": 70,
      "hit": false,
      "t": 70178.534,
      "d": 502.2318749999977,
      "v": 77
    },
    {
      "midi": 74,
      "hit": false,
      "t": 70178.534,
      "d": 502.2318749999977,
      "v": 77
    },
    {
      "midi": 77,
      "hit": false,
      "t": 70178.534,
      "d": 502.2318749999977,
      "v": 77
    },
    {
      "midi": 69,
      "hit": false,
      "t": 70714.24799999999,
      "d": 2109.373875000005,
      "v": 119
    },
    {
      "midi": 72,
      "hit": false,
      "t": 70714.24799999999,
      "d": 2109.373875000005,
      "v": 119
    },
    {
      "midi": 77,
      "hit": false,
      "t": 70714.24799999999,
      "d": 2109.373875000005,
      "v": 119
    },
    {
      "midi": 69,
      "hit": false,
      "t": 70714.24799999999,
      "d": 2109.373875000005,
      "v": 77
    },
    {
      "midi": 72,
      "hit": false,
      "t": 70714.24799999999,
      "d": 2109.373875000005,
      "v": 77
    },
    {
      "midi": 77,
      "hit": false,
      "t": 70714.24799999999,
      "d": 2109.373875000005,
      "v": 77
    },
    {
      "midi": 55,
      "hit": false,
      "t": 72857.10399999999,
      "d": 2109.373875000005,
      "v": 109
    },
    {
      "midi": 64,
      "hit": false,
      "t": 72857.10399999999,
      "d": 2109.373875000005,
      "v": 109
    },
    {
      "midi": 67,
      "hit": false,
      "t": 72857.10399999999,
      "d": 2109.373875000005,
      "v": 109
    },
    {
      "midi": 72,
      "hit": false,
      "t": 72857.10399999999,
      "d": 2109.373875000005,
      "v": 109
    },
    {
      "midi": 76,
      "hit": false,
      "t": 72857.10399999999,
      "d": 2109.373875000005,
      "v": 109
    },
    {
      "midi": 60,
      "hit": false,
      "t": 72857.10399999999,
      "d": 2142.8559999999998,
      "v": 109
    },
    {
      "midi": 55,
      "hit": false,
      "t": 74999.95999999999,
      "d": 1841.5168750000012,
      "v": 109
    },
    {
      "midi": 59,
      "hit": false,
      "t": 74999.95999999999,
      "d": 1841.5168750000012,
      "v": 109
    },
    {
      "midi": 62,
      "hit": false,
      "t": 74999.95999999999,
      "d": 1841.5168750000012,
      "v": 109
    },
    {
      "midi": 67,
      "hit": false,
      "t": 74999.95999999999,
      "d": 1841.5168750000012,
      "v": 109
    },
    {
      "midi": 71,
      "hit": false,
      "t": 74999.95999999999,
      "d": 1841.5168750000012,
      "v": 109
    },
    {
      "midi": 74,
      "hit": false,
      "t": 74999.95999999999,
      "d": 1841.5168750000012,
      "v": 109
    },
    {
      "midi": 65,
      "hit": false,
      "t": 77142.81599999999,
      "d": 2109.373875000005,
      "v": 109
    },
    {
      "midi": 69,
      "hit": false,
      "t": 77142.81599999999,
      "d": 2109.373875000005,
      "v": 109
    },
    {
      "midi": 60,
      "hit": false,
      "t": 77142.81599999999,
      "d": 2142.8559999999998,
      "v": 109
    },
    {
      "midi": 60,
      "hit": false,
      "t": 79285.67199999999,
      "d": 2879.462750000006,
      "v": 77
    },
    {
      "midi": 64,
      "hit": false,
      "t": 79285.67199999999,
      "d": 2879.462750000006,
      "v": 77
    },
    {
      "midi": 67,
      "hit": false,
      "t": 79285.67199999999,
      "d": 2879.462750000006,
      "v": 77
    },
    {
      "midi": 60,
      "hit": false,
      "t": 82232.099,
      "d": 736.6067500000063,
      "v": 77
    },
    {
      "midi": 65,
      "hit": false,
      "t": 82232.099,
      "d": 736.6067500000063,
      "v": 77
    },
    {
      "midi": 69,
      "hit": false,
      "t": 82232.099,
      "d": 736.6067500000063,
      "v": 77
    },
    {
      "midi": 64,
      "hit": false,
      "t": 83035.67000000001,
      "d": 502.2318749999977,
      "v": 77
    },
    {
      "midi": 67,
      "hit": false,
      "t": 83035.67000000001,
      "d": 502.2318749999977,
      "v": 77
    },
    {
      "midi": 60,
      "hit": false,
      "t": 83035.67000000001,
      "d": 535.7139999999927,
      "v": 77
    },
    {
      "midi": 60,
      "hit": false,
      "t": 83571.384,
      "d": 2109.373875000005,
      "v": 77
    },
    {
      "midi": 53,
      "hit": false,
      "t": 83571.384,
      "d": 2142.8559999999998,
      "v": 77
    },
    {
      "midi": 57,
      "hit": false,
      "t": 83571.384,
      "d": 2142.8559999999998,
      "v": 77
    },
    {
      "midi": 53,
      "hit": false,
      "t": 85714.24,
      "d": 736.6067500000063,
      "v": 77
    },
    {
      "midi": 58,
      "hit": false,
      "t": 85714.24,
      "d": 736.6067500000063,
      "v": 77
    },
    {
      "midi": 62,
      "hit": false,
      "t": 85714.24,
      "d": 736.6067500000063,
      "v": 77
    },
    {
      "midi": 53,
      "hit": false,
      "t": 86517.81100000002,
      "d": 1305.802874999994,
      "v": 77
    },
    {
      "midi": 57,
      "hit": false,
      "t": 86517.81100000002,
      "d": 1305.802874999994,
      "v": 77
    },
    {
      "midi": 60,
      "hit": false,
      "t": 86517.81100000002,
      "d": 1305.802874999994,
      "v": 77
    },
    {
      "midi": 60,
      "hit": false,
      "t": 87857.096,
      "d": 2879.462750000006,
      "v": 77
    },
    {
      "midi": 64,
      "hit": false,
      "t": 87857.096,
      "d": 2879.462750000006,
      "v": 77
    },
    {
      "midi": 67,
      "hit": false,
      "t": 87857.096,
      "d": 2879.462750000006,
      "v": 77
    },
    {
      "midi": 60,
      "hit": false,
      "t": 90803.52300000002,
      "d": 736.6067500000063,
      "v": 77
    },
    {
      "midi": 65,
      "hit": false,
      "t": 90803.52300000002,
      "d": 736.6067500000063,
      "v": 77
    },
    {
      "midi": 69,
      "hit": false,
      "t": 90803.52300000002,
      "d": 736.6067500000063,
      "v": 77
    },
    {
      "midi": 64,
      "hit": false,
      "t": 91607.09400000003,
      "d": 502.2318749999977,
      "v": 77
    },
    {
      "midi": 67,
      "hit": false,
      "t": 91607.09400000003,
      "d": 502.2318749999977,
      "v": 77
    },
    {
      "midi": 60,
      "hit": false,
      "t": 91607.09400000003,
      "d": 535.7139999999927,
      "v": 77
    },
    {
      "midi": 53,
      "hit": false,
      "t": 92142.80800000002,
      "d": 2109.373875000005,
      "v": 77
    },
    {
      "midi": 57,
      "hit": false,
      "t": 92142.80800000002,
      "d": 2109.373875000005,
      "v": 77
    },
    {
      "midi": 60,
      "hit": false,
      "t": 92142.80800000002,
      "d": 2109.373875000005,
      "v": 77
    },
    {
      "midi": 53,
      "hit": false,
      "t": 94285.66400000002,
      "d": 736.6067500000063,
      "v": 77
    },
    {
      "midi": 58,
      "hit": false,
      "t": 94285.66400000002,
      "d": 736.6067500000063,
      "v": 77
    },
    {
      "midi": 62,
      "hit": false,
      "t": 94285.66400000002,
      "d": 736.6067500000063,
      "v": 77
    },
    {
      "midi": 53,
      "hit": false,
      "t": 95089.23500000003,
      "d": 1305.802874999994,
      "v": 77
    },
    {
      "midi": 57,
      "hit": false,
      "t": 95089.23500000003,
      "d": 1339.284999999989,
      "v": 77
    },
    {
      "midi": 60,
      "hit": false,
      "t": 95089.23500000003,
      "d": 1339.284999999989,
      "v": 77
    },
    {
      "midi": 55,
      "hit": false,
      "t": 96428.52000000002,
      "d": 4252.2298750000045,
      "v": 77
    },
    {
      "midi": 60,
      "hit": false,
      "t": 96428.52000000002,
      "d": 4252.2298750000045,
      "v": 77
    },
    {
      "midi": 64,
      "hit": false,
      "t": 96428.52000000002,
      "d": 4285.7119999999995,
      "v": 77
    },
    {
      "midi": 55,
      "hit": false,
      "t": 100714.23200000002,
      "d": 4252.2298750000045,
      "v": 77
    },
    {
      "midi": 59,
      "hit": false,
      "t": 100714.23200000002,
      "d": 4252.2298750000045,
      "v": 77
    },
    {
      "midi": 62,
      "hit": false,
      "t": 100714.23200000002,
      "d": 4252.2298750000045,
      "v": 77
    },
    {
      "midi": 57,
      "hit": false,
      "t": 104999.94400000002,
      "d": 4252.2298750000045,
      "v": 77
    },
    {
      "midi": 62,
      "hit": false,
      "t": 104999.94400000002,
      "d": 4285.7119999999995,
      "v": 77
    },
    {
      "midi": 65,
      "hit": false,
      "t": 104999.94400000002,
      "d": 4285.7119999999995,
      "v": 77
    },
    {
      "midi": 57,
      "hit": false,
      "t": 109285.65600000002,
      "d": 4252.2298750000045,
      "v": 77
    },
    {
      "midi": 60,
      "hit": false,
      "t": 109285.65600000002,
      "d": 4285.7119999999995,
      "v": 77
    },
    {
      "midi": 64,
      "hit": false,
      "t": 109285.65600000002,
      "d": 4285.7119999999995,
      "v": 77
    },
    {
      "midi": 55,
      "hit": false,
      "t": 113571.36800000002,
      "d": 4252.2298750000045,
      "v": 77
    },
    {
      "midi": 59,
      "hit": false,
      "t": 113571.36800000002,
      "d": 4252.2298750000045,
      "v": 77
    },
    {
      "midi": 62,
      "hit": false,
      "t": 113571.36800000002,
      "d": 4252.2298750000045,
      "v": 77
    },
    {
      "midi": 60,
      "hit": false,
      "t": 117857.08000000002,
      "d": 736.6067500000063,
      "v": 77
    },
    {
      "midi": 64,
      "hit": false,
      "t": 117857.08000000002,
      "d": 736.6067500000063,
      "v": 77
    },
    {
      "midi": 67,
      "hit": false,
      "t": 117857.08000000002,
      "d": 736.6067500000063,
      "v": 77
    },
    {
      "midi": 62,
      "hit": false,
      "t": 118660.65100000003,
      "d": 736.6067500000063,
      "v": 77
    },
    {
      "midi": 65,
      "hit": false,
      "t": 118660.65100000003,
      "d": 736.6067500000063,
      "v": 77
    },
    {
      "midi": 67,
      "hit": false,
      "t": 118660.65100000003,
      "d": 736.6067500000063,
      "v": 77
    },
    {
      "midi": 60,
      "hit": false,
      "t": 119464.22200000004,
      "d": 502.2318749999977,
      "v": 77
    },
    {
      "midi": 64,
      "hit": false,
      "t": 119464.22200000004,
      "d": 502.2318749999977,
      "v": 77
    },
    {
      "midi": 67,
      "hit": false,
      "t": 119464.22200000004,
      "d": 502.2318749999977,
      "v": 77
    },
    {
      "midi": 59,
      "hit": false,
      "t": 119999.93600000003,
      "d": 736.6067500000063,
      "v": 77
    },
    {
      "midi": 62,
      "hit": false,
      "t": 119999.93600000003,
      "d": 736.6067500000063,
      "v": 77
    },
    {
      "midi": 67,
      "hit": false,
      "t": 119999.93600000003,
      "d": 736.6067500000063,
      "v": 77
    },
    {
      "midi": 60,
      "hit": false,
      "t": 120803.50700000004,
      "d": 736.6067500000063,
      "v": 77
    },
    {
      "midi": 64,
      "hit": false,
      "t": 120803.50700000004,
      "d": 736.6067500000063,
      "v": 77
    },
    {
      "midi": 67,
      "hit": false,
      "t": 120803.50700000004,
      "d": 736.6067500000063,
      "v": 77
    },
    {
      "midi": 59,
      "hit": false,
      "t": 121607.07800000005,
      "d": 502.2318749999977,
      "v": 77
    },
    {
      "midi": 62,
      "hit": false,
      "t": 121607.07800000005,
      "d": 502.2318749999977,
      "v": 77
    },
    {
      "midi": 67,
      "hit": false,
      "t": 121607.07800000005,
      "d": 535.7139999999927,
      "v": 77
    },
    {
      "midi": 57,
      "hit": false,
      "t": 122142.79200000004,
      "d": 4252.2298750000045,
      "v": 77
    },
    {
      "midi": 60,
      "hit": false,
      "t": 122142.79200000004,
      "d": 4252.2298750000045,
      "v": 77
    },
    {
      "midi": 65,
      "hit": false,
      "t": 122142.79200000004,
      "d": 4252.2298750000045,
      "v": 77
    },
    {
      "midi": 72,
      "hit": false,
      "t": 123214.22000000004,
      "d": 3214.2839999999997,
      "v": 77
    },
    {
      "midi": 79,
      "hit": false,
      "t": 123214.22000000004,
      "d": 3214.2839999999997,
      "v": 77
    },
    {
      "midi": 60,
      "hit": false,
      "t": 126428.50400000004,
      "d": 736.6067500000063,
      "v": 77
    },
    {
      "midi": 64,
      "hit": false,
      "t": 126428.50400000004,
      "d": 736.6067500000063,
      "v": 77
    },
    {
      "midi": 67,
      "hit": false,
      "t": 126428.50400000004,
      "d": 736.6067500000063,
      "v": 77
    },
    {
      "midi": 62,
      "hit": false,
      "t": 127232.07500000006,
      "d": 736.6067500000063,
      "v": 77
    },
    {
      "midi": 65,
      "hit": false,
      "t": 127232.07500000006,
      "d": 736.6067500000063,
      "v": 77
    },
    {
      "midi": 67,
      "hit": false,
      "t": 127232.07500000006,
      "d": 736.6067500000063,
      "v": 77
    },
    {
      "midi": 60,
      "hit": false,
      "t": 128035.64600000007,
      "d": 502.2318749999977,
      "v": 77
    },
    {
      "midi": 64,
      "hit": false,
      "t": 128035.64600000007,
      "d": 502.2318749999977,
      "v": 77
    },
    {
      "midi": 67,
      "hit": false,
      "t": 128035.64600000007,
      "d": 502.2318749999977,
      "v": 77
    },
    {
      "midi": 59,
      "hit": false,
      "t": 128571.36000000006,
      "d": 736.6067500000063,
      "v": 77
    },
    {
      "midi": 62,
      "hit": false,
      "t": 128571.36000000006,
      "d": 736.6067500000063,
      "v": 77
    },
    {
      "midi": 67,
      "hit": false,
      "t": 128571.36000000006,
      "d": 736.6067500000063,
      "v": 77
    },
    {
      "midi": 60,
      "hit": false,
      "t": 129374.93100000007,
      "d": 736.6067500000063,
      "v": 77
    },
    {
      "midi": 64,
      "hit": false,
      "t": 129374.93100000007,
      "d": 736.6067500000063,
      "v": 77
    },
    {
      "midi": 67,
      "hit": false,
      "t": 129374.93100000007,
      "d": 736.6067500000063,
      "v": 77
    },
    {
      "midi": 59,
      "hit": false,
      "t": 130178.50200000008,
      "d": 502.2318749999977,
      "v": 77
    },
    {
      "midi": 62,
      "hit": false,
      "t": 130178.50200000008,
      "d": 502.2318749999977,
      "v": 77
    },
    {
      "midi": 67,
      "hit": false,
      "t": 130178.50200000008,
      "d": 535.7139999999927,
      "v": 77
    },
    {
      "midi": 57,
      "hit": false,
      "t": 130714.21600000007,
      "d": 4252.229875000019,
      "v": 77
    },
    {
      "midi": 60,
      "hit": false,
      "t": 130714.21600000007,
      "d": 4252.229875000019,
      "v": 77
    },
    {
      "midi": 65,
      "hit": false,
      "t": 130714.21600000007,
      "d": 4252.229875000019,
      "v": 77
    },
    {
      "midi": 84,
      "hit": false,
      "t": 131785.6440000001,
      "d": 3180.8018750000047,
      "v": 77
    },
    {
      "midi": 72,
      "hit": false,
      "t": 131785.6440000001,
      "d": 3214.284000000014,
      "v": 77
    },
    {
      "midi": 79,
      "hit": false,
      "t": 131785.6440000001,
      "d": 3214.284000000014,
      "v": 77
    },
    {
      "midi": 76,
      "hit": false,
      "t": 134999.928,
      "d": 770.0888749999867,
      "v": 119
    },
    {
      "midi": 79,
      "hit": false,
      "t": 134999.928,
      "d": 770.0888749999867,
      "v": 119
    },
    {
      "midi": 72,
      "hit": false,
      "t": 134999.9280000001,
      "d": 736.6067500000063,
      "v": 77
    },
    {
      "midi": 76,
      "hit": false,
      "t": 134999.9280000001,
      "d": 736.6067500000063,
      "v": 77
    },
    {
      "midi": 79,
      "hit": false,
      "t": 134999.9280000001,
      "d": 736.6067500000063,
      "v": 77
    },
    {
      "midi": 74,
      "hit": false,
      "t": 135803.499,
      "d": 770.0888749999867,
      "v": 119
    },
    {
      "midi": 77,
      "hit": false,
      "t": 135803.499,
      "d": 770.0888749999867,
      "v": 119
    },
    {
      "midi": 74,
      "hit": false,
      "t": 135803.4990000001,
      "d": 736.6067500000063,
      "v": 77
    },
    {
      "midi": 77,
      "hit": false,
      "t": 135803.4990000001,
      "d": 736.6067500000063,
      "v": 77
    },
    {
      "midi": 79,
      "hit": false,
      "t": 135803.4990000001,
      "d": 736.6067500000063,
      "v": 77
    },
    {
      "midi": 72,
      "hit": false,
      "t": 136607.07,
      "d": 502.2318749999977,
      "v": 119
    },
    {
      "midi": 76,
      "hit": false,
      "t": 136607.07,
      "d": 502.2318749999977,
      "v": 119
    },
    {
      "midi": 79,
      "hit": false,
      "t": 136607.0700000001,
      "d": 502.2318749999977,
      "v": 77
    },
    {
      "midi": 72,
      "hit": false,
      "t": 136607.0700000001,
      "d": 535.7140000000072,
      "v": 77
    },
    {
      "midi": 76,
      "hit": false,
      "t": 136607.0700000001,
      "d": 535.7140000000072,
      "v": 77
    },
    {
      "midi": 71,
      "hit": false,
      "t": 137142.784,
      "d": 770.0888749999867,
      "v": 119
    },
    {
      "midi": 74,
      "hit": false,
      "t": 137142.784,
      "d": 770.0888749999867,
      "v": 119
    },
    {
      "midi": 71,
      "hit": false,
      "t": 137142.7840000001,
      "d": 736.6067500000063,
      "v": 77
    },
    {
      "midi": 74,
      "hit": false,
      "t": 137142.7840000001,
      "d": 736.6067500000063,
      "v": 77
    },
    {
      "midi": 79,
      "hit": false,
      "t": 137142.7840000001,
      "d": 736.6067500000063,
      "v": 77
    },
    {
      "midi": 72,
      "hit": false,
      "t": 137946.355,
      "d": 770.0888749999867,
      "v": 119
    },
    {
      "midi": 76,
      "hit": false,
      "t": 137946.355,
      "d": 770.0888749999867,
      "v": 119
    },
    {
      "midi": 72,
      "hit": false,
      "t": 137946.3550000001,
      "d": 736.6067500000063,
      "v": 77
    },
    {
      "midi": 76,
      "hit": false,
      "t": 137946.3550000001,
      "d": 736.6067500000063,
      "v": 77
    },
    {
      "midi": 79,
      "hit": false,
      "t": 137946.3550000001,
      "d": 736.6067500000063,
      "v": 77
    },
    {
      "midi": 74,
      "hit": false,
      "t": 138749.926,
      "d": 502.2318749999977,
      "v": 119
    },
    {
      "midi": 71,
      "hit": false,
      "t": 138749.926,
      "d": 535.7140000000072,
      "v": 119
    },
    {
      "midi": 71,
      "hit": false,
      "t": 138749.9260000001,
      "d": 502.2318749999977,
      "v": 77
    },
    {
      "midi": 74,
      "hit": false,
      "t": 138749.9260000001,
      "d": 502.2318749999977,
      "v": 77
    },
    {
      "midi": 79,
      "hit": false,
      "t": 138749.9260000001,
      "d": 502.2318749999977,
      "v": 77
    },
    {
      "midi": 70,
      "hit": false,
      "t": 139285.64,
      "d": 736.6067500000063,
      "v": 119
    },
    {
      "midi": 74,
      "hit": false,
      "t": 139285.64,
      "d": 736.6067500000063,
      "v": 119
    },
    {
      "midi": 77,
      "hit": false,
      "t": 139285.64,
      "d": 736.6067500000063,
      "v": 119
    },
    {
      "midi": 70,
      "hit": false,
      "t": 139285.6400000001,
      "d": 736.6067500000063,
      "v": 77
    },
    {
      "midi": 74,
      "hit": false,
      "t": 139285.6400000001,
      "d": 736.6067500000063,
      "v": 77
    },
    {
      "midi": 77,
      "hit": false,
      "t": 139285.6400000001,
      "d": 736.6067500000063,
      "v": 77
    },
    {
      "midi": 72,
      "hit": false,
      "t": 140089.211,
      "d": 736.6067500000063,
      "v": 119
    },
    {
      "midi": 76,
      "hit": false,
      "t": 140089.211,
      "d": 736.6067500000063,
      "v": 119
    },
    {
      "midi": 77,
      "hit": false,
      "t": 140089.211,
      "d": 736.6067500000063,
      "v": 119
    },
    {
      "midi": 72,
      "hit": false,
      "t": 140089.2110000001,
      "d": 736.6067500000063,
      "v": 77
    },
    {
      "midi": 76,
      "hit": false,
      "t": 140089.2110000001,
      "d": 736.6067500000063,
      "v": 77
    },
    {
      "midi": 77,
      "hit": false,
      "t": 140089.2110000001,
      "d": 736.6067500000063,
      "v": 77
    },
    {
      "midi": 70,
      "hit": false,
      "t": 140892.782,
      "d": 502.2318749999977,
      "v": 119
    },
    {
      "midi": 74,
      "hit": false,
      "t": 140892.782,
      "d": 502.2318749999977,
      "v": 119
    },
    {
      "midi": 77,
      "hit": false,
      "t": 140892.782,
      "d": 502.2318749999977,
      "v": 119
    },
    {
      "midi": 70,
      "hit": false,
      "t": 140892.7820000001,
      "d": 502.2318749999977,
      "v": 77
    },
    {
      "midi": 74,
      "hit": false,
      "t": 140892.7820000001,
      "d": 502.2318749999977,
      "v": 77
    },
    {
      "midi": 77,
      "hit": false,
      "t": 140892.7820000001,
      "d": 502.2318749999977,
      "v": 77
    },
    {
      "midi": 69,
      "hit": false,
      "t": 141428.496,
      "d": 2109.37387499999,
      "v": 119
    },
    {
      "midi": 72,
      "hit": false,
      "t": 141428.496,
      "d": 2109.37387499999,
      "v": 119
    },
    {
      "midi": 77,
      "hit": false,
      "t": 141428.496,
      "d": 2109.37387499999,
      "v": 119
    },
    {
      "midi": 69,
      "hit": false,
      "t": 141428.4960000001,
      "d": 2109.37387499999,
      "v": 77
    },
    {
      "midi": 72,
      "hit": false,
      "t": 141428.4960000001,
      "d": 2109.37387499999,
      "v": 77
    },
    {
      "midi": 77,
      "hit": false,
      "t": 141428.4960000001,
      "d": 2109.37387499999,
      "v": 77
    },
    {
      "midi": 55,
      "hit": false,
      "t": 143571.3520000001,
      "d": 2109.37387499999,
      "v": 109
    },
    {
      "midi": 64,
      "hit": false,
      "t": 143571.3520000001,
      "d": 2109.37387499999,
      "v": 109
    },
    {
      "midi": 67,
      "hit": false,
      "t": 143571.3520000001,
      "d": 2109.37387499999,
      "v": 109
    },
    {
      "midi": 72,
      "hit": false,
      "t": 143571.3520000001,
      "d": 2109.37387499999,
      "v": 109
    },
    {
      "midi": 76,
      "hit": false,
      "t": 143571.3520000001,
      "d": 2109.37387499999,
      "v": 109
    },
    {
      "midi": 60,
      "hit": false,
      "t": 143571.3520000001,
      "d": 2142.8559999999998,
      "v": 109
    },
    {
      "midi": 55,
      "hit": false,
      "t": 145714.2080000001,
      "d": 1841.5168750000012,
      "v": 109
    },
    {
      "midi": 59,
      "hit": false,
      "t": 145714.2080000001,
      "d": 1841.5168750000012,
      "v": 109
    },
    {
      "midi": 62,
      "hit": false,
      "t": 145714.2080000001,
      "d": 1841.5168750000012,
      "v": 109
    },
    {
      "midi": 67,
      "hit": false,
      "t": 145714.2080000001,
      "d": 1841.5168750000012,
      "v": 109
    },
    {
      "midi": 71,
      "hit": false,
      "t": 145714.2080000001,
      "d": 1841.5168750000012,
      "v": 109
    },
    {
      "midi": 74,
      "hit": false,
      "t": 145714.2080000001,
      "d": 1841.5168750000012,
      "v": 109
    },
    {
      "midi": 65,
      "hit": false,
      "t": 147857.0640000001,
      "d": 2109.37387499999,
      "v": 109
    },
    {
      "midi": 69,
      "hit": false,
      "t": 147857.0640000001,
      "d": 2109.37387499999,
      "v": 109
    },
    {
      "midi": 60,
      "hit": false,
      "t": 147857.0640000001,
      "d": 2142.8559999999998,
      "v": 109
    },
    {
      "midi": 62,
      "hit": false,
      "t": 149999.9200000001,
      "d": 4285.7119999999995,
      "v": 109
    },
    {
      "midi": 65,
      "hit": false,
      "t": 149999.9200000001,
      "d": 4285.7119999999995,
      "v": 109
    },
    {
      "midi": 69,
      "hit": false,
      "t": 149999.9200000001,
      "d": 4285.7119999999995,
      "v": 109
    },
    {
      "midi": 60,
      "hit": false,
      "t": 154285.6320000001,
      "d": 4285.7119999999995,
      "v": 109
    },
    {
      "midi": 64,
      "hit": false,
      "t": 154285.6320000001,
      "d": 4285.7119999999995,
      "v": 109
    },
    {
      "midi": 69,
      "hit": false,
      "t": 154285.6320000001,
      "d": 4285.7119999999995,
      "v": 109
    },
    {
      "midi": 62,
      "hit": false,
      "t": 158571.3440000001,
      "d": 4285.7119999999995,
      "v": 109
    },
    {
      "midi": 67,
      "hit": false,
      "t": 158571.3440000001,
      "d": 4285.7119999999995,
      "v": 109
    },
    {
      "midi": 71,
      "hit": false,
      "t": 158571.3440000001,
      "d": 4285.7119999999995,
      "v": 109
    },
    {
      "midi": 62,
      "hit": false,
      "t": 162857.0560000001,
      "d": 2142.8559999999998,
      "v": 109
    },
    {
      "midi": 65,
      "hit": false,
      "t": 162857.0560000001,
      "d": 2142.8559999999998,
      "v": 109
    },
    {
      "midi": 70,
      "hit": false,
      "t": 162857.0560000001,
      "d": 2142.8559999999998,
      "v": 109
    },
    {
      "midi": 60,
      "hit": false,
      "t": 164999.9120000001,
      "d": 2142.8559999999998,
      "v": 109
    },
    {
      "midi": 64,
      "hit": false,
      "t": 164999.9120000001,
      "d": 2142.8559999999998,
      "v": 109
    },
    {
      "midi": 69,
      "hit": false,
      "t": 164999.9120000001,
      "d": 2142.8559999999998,
      "v": 109
    },
    {
      "midi": 59,
      "hit": false,
      "t": 167142.7680000001,
      "d": 4285.7119999999995,
      "v": 109
    },
    {
      "midi": 62,
      "hit": false,
      "t": 167142.7680000001,
      "d": 4285.7119999999995,
      "v": 109
    },
    {
      "midi": 67,
      "hit": false,
      "t": 167142.7680000001,
      "d": 4285.7119999999995,
      "v": 109
    },
    {
      "midi": 62,
      "hit": false,
      "t": 171428.4800000001,
      "d": 4285.7119999999995,
      "v": 109
    },
    {
      "midi": 65,
      "hit": false,
      "t": 171428.4800000001,
      "d": 4285.7119999999995,
      "v": 109
    },
    {
      "midi": 69,
      "hit": false,
      "t": 171428.4800000001,
      "d": 4285.7119999999995,
      "v": 109
    },
    {
      "midi": 60,
      "hit": false,
      "t": 175714.1920000001,
      "d": 4285.7119999999995,
      "v": 109
    },
    {
      "midi": 64,
      "hit": false,
      "t": 175714.1920000001,
      "d": 4285.7119999999995,
      "v": 109
    },
    {
      "midi": 69,
      "hit": false,
      "t": 175714.1920000001,
      "d": 4285.7119999999995,
      "v": 109
    },
    {
      "midi": 64,
      "hit": false,
      "t": 179999.9040000001,
      "d": 4285.7119999999995,
      "v": 109
    },
    {
      "midi": 67,
      "hit": false,
      "t": 179999.9040000001,
      "d": 4285.7119999999995,
      "v": 109
    },
    {
      "midi": 71,
      "hit": false,
      "t": 179999.9040000001,
      "d": 4285.7119999999995,
      "v": 109
    },
    {
      "midi": 62,
      "hit": false,
      "t": 184285.6160000001,
      "d": 2142.8559999999998,
      "v": 109
    },
    {
      "midi": 65,
      "hit": false,
      "t": 184285.6160000001,
      "d": 2142.8559999999998,
      "v": 109
    },
    {
      "midi": 70,
      "hit": false,
      "t": 184285.6160000001,
      "d": 2142.8559999999998,
      "v": 109
    },
    {
      "midi": 60,
      "hit": false,
      "t": 186428.4720000001,
      "d": 2142.8559999999998,
      "v": 109
    },
    {
      "midi": 64,
      "hit": false,
      "t": 186428.4720000001,
      "d": 2142.8559999999998,
      "v": 109
    },
    {
      "midi": 69,
      "hit": false,
      "t": 186428.4720000001,
      "d": 2142.8559999999998,
      "v": 109
    },
    {
      "midi": 62,
      "hit": false,
      "t": 188571.3280000001,
      "d": 4252.22987499999,
      "v": 109
    },
    {
      "midi": 67,
      "hit": false,
      "t": 188571.3280000001,
      "d": 4252.22987499999,
      "v": 109
    },
    {
      "midi": 59,
      "hit": false,
      "t": 188571.3280000001,
      "d": 4285.7119999999995,
      "v": 109
    },
    {
      "midi": 60,
      "hit": false,
      "t": 192857.0400000001,
      "d": 736.6067500000063,
      "v": 112
    },
    {
      "midi": 64,
      "hit": false,
      "t": 192857.0400000001,
      "d": 736.6067500000063,
      "v": 112
    },
    {
      "midi": 67,
      "hit": false,
      "t": 192857.0400000001,
      "d": 736.6067500000063,
      "v": 112
    },
    {
      "midi": 62,
      "hit": false,
      "t": 193660.6110000001,
      "d": 736.6067500000063,
      "v": 112
    },
    {
      "midi": 65,
      "hit": false,
      "t": 193660.6110000001,
      "d": 736.6067500000063,
      "v": 112
    },
    {
      "midi": 67,
      "hit": false,
      "t": 193660.6110000001,
      "d": 736.6067500000063,
      "v": 112
    },
    {
      "midi": 60,
      "hit": false,
      "t": 194464.1820000001,
      "d": 502.2318749999977,
      "v": 112
    },
    {
      "midi": 64,
      "hit": false,
      "t": 194464.1820000001,
      "d": 502.2318749999977,
      "v": 112
    },
    {
      "midi": 67,
      "hit": false,
      "t": 194464.1820000001,
      "d": 502.2318749999977,
      "v": 112
    },
    {
      "midi": 59,
      "hit": false,
      "t": 194999.8960000001,
      "d": 736.6067500000063,
      "v": 112
    },
    {
      "midi": 62,
      "hit": false,
      "t": 194999.8960000001,
      "d": 736.6067500000063,
      "v": 112
    },
    {
      "midi": 67,
      "hit": false,
      "t": 194999.8960000001,
      "d": 736.6067500000063,
      "v": 112
    },
    {
      "midi": 60,
      "hit": false,
      "t": 195803.4670000001,
      "d": 736.6067500000063,
      "v": 112
    },
    {
      "midi": 64,
      "hit": false,
      "t": 195803.4670000001,
      "d": 736.6067500000063,
      "v": 112
    },
    {
      "midi": 67,
      "hit": false,
      "t": 195803.4670000001,
      "d": 736.6067500000063,
      "v": 112
    },
    {
      "midi": 59,
      "hit": false,
      "t": 196607.0380000001,
      "d": 502.2318749999977,
      "v": 112
    },
    {
      "midi": 62,
      "hit": false,
      "t": 196607.0380000001,
      "d": 502.2318749999977,
      "v": 112
    },
    {
      "midi": 67,
      "hit": false,
      "t": 196607.0380000001,
      "d": 535.7140000000072,
      "v": 112
    },
    {
      "midi": 57,
      "hit": false,
      "t": 197142.7520000001,
      "d": 4252.229875000019,
      "v": 112
    },
    {
      "midi": 60,
      "hit": false,
      "t": 197142.7520000001,
      "d": 4252.229875000019,
      "v": 112
    },
    {
      "midi": 65,
      "hit": false,
      "t": 197142.7520000001,
      "d": 4252.229875000019,
      "v": 112
    },
    {
      "midi": 72,
      "hit": false,
      "t": 198214.1800000001,
      "d": 3214.284000000014,
      "v": 112
    },
    {
      "midi": 79,
      "hit": false,
      "t": 198214.1800000001,
      "d": 3214.284000000014,
      "v": 112
    },
    {
      "midi": 60,
      "hit": false,
      "t": 201428.46400000012,
      "d": 736.6067500000063,
      "v": 112
    },
    {
      "midi": 64,
      "hit": false,
      "t": 201428.46400000012,
      "d": 736.6067500000063,
      "v": 112
    },
    {
      "midi": 67,
      "hit": false,
      "t": 201428.46400000012,
      "d": 736.6067500000063,
      "v": 112
    },
    {
      "midi": 62,
      "hit": false,
      "t": 202232.03500000012,
      "d": 736.6067500000063,
      "v": 112
    },
    {
      "midi": 65,
      "hit": false,
      "t": 202232.03500000012,
      "d": 736.6067500000063,
      "v": 112
    },
    {
      "midi": 67,
      "hit": false,
      "t": 202232.03500000012,
      "d": 736.6067500000063,
      "v": 112
    },
    {
      "midi": 60,
      "hit": false,
      "t": 203035.60600000012,
      "d": 502.2318749999977,
      "v": 112
    },
    {
      "midi": 64,
      "hit": false,
      "t": 203035.60600000012,
      "d": 502.2318749999977,
      "v": 112
    },
    {
      "midi": 67,
      "hit": false,
      "t": 203035.60600000012,
      "d": 502.2318749999977,
      "v": 112
    },
    {
      "midi": 59,
      "hit": false,
      "t": 203571.32000000012,
      "d": 736.6067500000063,
      "v": 112
    },
    {
      "midi": 62,
      "hit": false,
      "t": 203571.32000000012,
      "d": 736.6067500000063,
      "v": 112
    },
    {
      "midi": 67,
      "hit": false,
      "t": 203571.32000000012,
      "d": 736.6067500000063,
      "v": 112
    },
    {
      "midi": 60,
      "hit": false,
      "t": 204374.89100000012,
      "d": 736.6067500000063,
      "v": 112
    },
    {
      "midi": 64,
      "hit": false,
      "t": 204374.89100000012,
      "d": 736.6067500000063,
      "v": 112
    },
    {
      "midi": 67,
      "hit": false,
      "t": 204374.89100000012,
      "d": 736.6067500000063,
      "v": 112
    },
    {
      "midi": 59,
      "hit": false,
      "t": 205178.46200000012,
      "d": 502.2318749999977,
      "v": 112
    },
    {
      "midi": 62,
      "hit": false,
      "t": 205178.46200000012,
      "d": 502.2318749999977,
      "v": 112
    },
    {
      "midi": 67,
      "hit": false,
      "t": 205178.46200000012,
      "d": 535.7140000000072,
      "v": 112
    },
    {
      "midi": 57,
      "hit": false,
      "t": 205714.17600000012,
      "d": 4252.229875000019,
      "v": 112
    },
    {
      "midi": 60,
      "hit": false,
      "t": 205714.17600000012,
      "d": 4252.229875000019,
      "v": 112
    },
    {
      "midi": 65,
      "hit": false,
      "t": 205714.17600000012,
      "d": 4252.229875000019,
      "v": 112
    },
    {
      "midi": 84,
      "hit": false,
      "t": 206785.60400000014,
      "d": 3180.8018750000047,
      "v": 93
    },
    {
      "midi": 72,
      "hit": false,
      "t": 206785.60400000014,
      "d": 3214.284000000014,
      "v": 93
    },
    {
      "midi": 79,
      "hit": false,
      "t": 206785.60400000014,
      "d": 3214.284000000014,
      "v": 93
    },
    {
      "midi": 76,
      "hit": false,
      "t": 209999.888,
      "d": 770.0888749999867,
      "v": 119
    },
    {
      "midi": 79,
      "hit": false,
      "t": 209999.888,
      "d": 770.0888749999867,
      "v": 119
    },
    {
      "midi": 72,
      "hit": false,
      "t": 209999.88800000015,
      "d": 736.6067500000063,
      "v": 77
    },
    {
      "midi": 76,
      "hit": false,
      "t": 209999.88800000015,
      "d": 736.6067500000063,
      "v": 77
    },
    {
      "midi": 79,
      "hit": false,
      "t": 209999.88800000015,
      "d": 736.6067500000063,
      "v": 77
    },
    {
      "midi": 74,
      "hit": false,
      "t": 210803.459,
      "d": 770.0888749999867,
      "v": 119
    },
    {
      "midi": 77,
      "hit": false,
      "t": 210803.459,
      "d": 770.0888749999867,
      "v": 119
    },
    {
      "midi": 74,
      "hit": false,
      "t": 210803.45900000015,
      "d": 736.6067500000063,
      "v": 77
    },
    {
      "midi": 77,
      "hit": false,
      "t": 210803.45900000015,
      "d": 736.6067500000063,
      "v": 77
    },
    {
      "midi": 79,
      "hit": false,
      "t": 210803.45900000015,
      "d": 736.6067500000063,
      "v": 77
    },
    {
      "midi": 72,
      "hit": false,
      "t": 211607.03,
      "d": 502.2318749999977,
      "v": 119
    },
    {
      "midi": 76,
      "hit": false,
      "t": 211607.03,
      "d": 502.2318749999977,
      "v": 119
    },
    {
      "midi": 79,
      "hit": false,
      "t": 211607.03000000014,
      "d": 502.2318749999977,
      "v": 77
    },
    {
      "midi": 72,
      "hit": false,
      "t": 211607.03000000014,
      "d": 535.7140000000072,
      "v": 77
    },
    {
      "midi": 76,
      "hit": false,
      "t": 211607.03000000014,
      "d": 535.7140000000072,
      "v": 77
    },
    {
      "midi": 71,
      "hit": false,
      "t": 212142.744,
      "d": 770.0888749999867,
      "v": 119
    },
    {
      "midi": 74,
      "hit": false,
      "t": 212142.744,
      "d": 770.0888749999867,
      "v": 119
    },
    {
      "midi": 71,
      "hit": false,
      "t": 212142.74400000015,
      "d": 736.6067500000063,
      "v": 77
    },
    {
      "midi": 74,
      "hit": false,
      "t": 212142.74400000015,
      "d": 736.6067500000063,
      "v": 77
    },
    {
      "midi": 79,
      "hit": false,
      "t": 212142.74400000015,
      "d": 736.6067500000063,
      "v": 77
    },
    {
      "midi": 72,
      "hit": false,
      "t": 212946.315,
      "d": 770.0888749999867,
      "v": 119
    },
    {
      "midi": 76,
      "hit": false,
      "t": 212946.315,
      "d": 770.0888749999867,
      "v": 119
    },
    {
      "midi": 72,
      "hit": false,
      "t": 212946.31500000015,
      "d": 736.6067500000063,
      "v": 77
    },
    {
      "midi": 76,
      "hit": false,
      "t": 212946.31500000015,
      "d": 736.6067500000063,
      "v": 77
    },
    {
      "midi": 79,
      "hit": false,
      "t": 212946.31500000015,
      "d": 736.6067500000063,
      "v": 77
    },
    {
      "midi": 74,
      "hit": false,
      "t": 213749.886,
      "d": 502.2318749999977,
      "v": 119
    },
    {
      "midi": 71,
      "hit": false,
      "t": 213749.886,
      "d": 535.7140000000072,
      "v": 119
    },
    {
      "midi": 71,
      "hit": false,
      "t": 213749.88600000014,
      "d": 502.2318749999977,
      "v": 77
    },
    {
      "midi": 74,
      "hit": false,
      "t": 213749.88600000014,
      "d": 502.2318749999977,
      "v": 77
    },
    {
      "midi": 79,
      "hit": false,
      "t": 213749.88600000014,
      "d": 502.2318749999977,
      "v": 77
    },
    {
      "midi": 70,
      "hit": false,
      "t": 214285.6,
      "d": 736.6067500000063,
      "v": 119
    },
    {
      "midi": 74,
      "hit": false,
      "t": 214285.6,
      "d": 736.6067500000063,
      "v": 119
    },
    {
      "midi": 77,
      "hit": false,
      "t": 214285.6,
      "d": 736.6067500000063,
      "v": 119
    },
    {
      "midi": 70,
      "hit": false,
      "t": 214285.60000000015,
      "d": 736.6067500000063,
      "v": 77
    },
    {
      "midi": 74,
      "hit": false,
      "t": 214285.60000000015,
      "d": 736.6067500000063,
      "v": 77
    },
    {
      "midi": 77,
      "hit": false,
      "t": 214285.60000000015,
      "d": 736.6067500000063,
      "v": 77
    },
    {
      "midi": 72,
      "hit": false,
      "t": 215089.171,
      "d": 736.6067500000063,
      "v": 119
    },
    {
      "midi": 76,
      "hit": false,
      "t": 215089.171,
      "d": 736.6067500000063,
      "v": 119
    },
    {
      "midi": 77,
      "hit": false,
      "t": 215089.171,
      "d": 736.6067500000063,
      "v": 119
    },
    {
      "midi": 72,
      "hit": false,
      "t": 215089.17100000015,
      "d": 736.6067500000063,
      "v": 77
    },
    {
      "midi": 76,
      "hit": false,
      "t": 215089.17100000015,
      "d": 736.6067500000063,
      "v": 77
    },
    {
      "midi": 77,
      "hit": false,
      "t": 215089.17100000015,
      "d": 736.6067500000063,
      "v": 77
    },
    {
      "midi": 70,
      "hit": false,
      "t": 215892.742,
      "d": 502.2318749999977,
      "v": 119
    },
    {
      "midi": 74,
      "hit": false,
      "t": 215892.742,
      "d": 502.2318749999977,
      "v": 119
    },
    {
      "midi": 77,
      "hit": false,
      "t": 215892.742,
      "d": 502.2318749999977,
      "v": 119
    },
    {
      "midi": 70,
      "hit": false,
      "t": 215892.74200000014,
      "d": 502.2318749999977,
      "v": 77
    },
    {
      "midi": 74,
      "hit": false,
      "t": 215892.74200000014,
      "d": 502.2318749999977,
      "v": 77
    },
    {
      "midi": 77,
      "hit": false,
      "t": 215892.74200000014,
      "d": 502.2318749999977,
      "v": 77
    },
    {
      "midi": 69,
      "hit": false,
      "t": 216428.456,
      "d": 2109.37387499999,
      "v": 119
    },
    {
      "midi": 72,
      "hit": false,
      "t": 216428.456,
      "d": 2109.37387499999,
      "v": 119
    },
    {
      "midi": 77,
      "hit": false,
      "t": 216428.456,
      "d": 2109.37387499999,
      "v": 119
    },
    {
      "midi": 69,
      "hit": false,
      "t": 216428.45600000015,
      "d": 2109.37387499999,
      "v": 77
    },
    {
      "midi": 72,
      "hit": false,
      "t": 216428.45600000015,
      "d": 2109.37387499999,
      "v": 77
    },
    {
      "midi": 77,
      "hit": false,
      "t": 216428.45600000015,
      "d": 2109.37387499999,
      "v": 77
    },
    {
      "midi": 67,
      "hit": false,
      "t": 218571.312,
      "d": 2142.8559999999998,
      "v": 119
    },
    {
      "midi": 72,
      "hit": false,
      "t": 218571.312,
      "d": 2142.8559999999998,
      "v": 119
    },
    {
      "midi": 76,
      "hit": false,
      "t": 218571.312,
      "d": 2142.8559999999998,
      "v": 119
    },
    {
      "midi": 67,
      "hit": false,
      "t": 218571.31200000015,
      "d": 2142.8559999999998,
      "v": 77
    },
    {
      "midi": 72,
      "hit": false,
      "t": 218571.31200000015,
      "d": 2142.8559999999998,
      "v": 77
    },
    {
      "midi": 76,
      "hit": false,
      "t": 218571.31200000015,
      "d": 2142.8559999999998,
      "v": 77
    },
    {
      "midi": 67,
      "hit": false,
      "t": 220714.168,
      "d": 234.37487500000861,
      "v": 119
    },
    {
      "midi": 71,
      "hit": false,
      "t": 220714.168,
      "d": 234.37487500000861,
      "v": 119
    },
    {
      "midi": 74,
      "hit": false,
      "t": 220714.168,
      "d": 234.37487500000861,
      "v": 119
    },
    {
      "midi": 67,
      "hit": false,
      "t": 220714.16800000015,
      "d": 1841.5168750000012,
      "v": 77
    },
    {
      "midi": 71,
      "hit": false,
      "t": 220714.16800000015,
      "d": 1841.5168750000012,
      "v": 77
    },
    {
      "midi": 74,
      "hit": false,
      "t": 220714.16800000015,
      "d": 1841.5168750000012,
      "v": 77
    },
    {
      "midi": 65,
      "hit": false,
      "t": 222857.02400000015,
      "d": 8537.94187499999,
      "v": 77
    },
    {
      "midi": 60,
      "hit": false,
      "t": 222857.02400000015,
      "d": 8571.423999999999,
      "v": 77
    },
    {
      "midi": 69,
      "hit": false,
      "t": 222857.02400000015,
      "d": 8571.423999999999,
      "v": 77
    },
    {
      "midi": 69,
      "hit": false,
      "t": 223124.88100000002,
      "d": 223.2141666666721,
      "v": 87
    },
    {
      "midi": 67,
      "hit": false,
      "t": 223392.73800000004,
      "d": 223.2141666666721,
      "v": 87
    },
    {
      "midi": 72,
      "hit": false,
      "t": 223660.59500000006,
      "d": 223.2141666666721,
      "v": 87
    },
    {
      "midi": 69,
      "hit": false,
      "t": 223928.45200000008,
      "d": 223.2141666666721,
      "v": 87
    },
    {
      "midi": 67,
      "hit": false,
      "t": 224196.3090000001,
      "d": 223.2141666666721,
      "v": 87
    },
    {
      "midi": 60,
      "hit": false,
      "t": 224464.1660000001,
      "d": 223.2141666666721,
      "v": 87
    },
    {
      "midi": 67,
      "hit": false,
      "t": 224732.02300000013,
      "d": 223.2141666666721,
      "v": 87
    },
    {
      "midi": 67,
      "hit": false,
      "t": 224999.88000000015,
      "d": 223.2141666666721,
      "v": 87
    },
    {
      "midi": 72,
      "hit": false,
      "t": 224999.88000000015,
      "d": 2142.8559999999998,
      "v": 61
    },
    {
      "midi": 79,
      "hit": false,
      "t": 224999.88000000015,
      "d": 4252.22987499999,
      "v": 61
    },
    {
      "midi": 84,
      "hit": false,
      "t": 224999.88000000015,
      "d": 4252.22987499999,
      "v": 61
    },
    {
      "midi": 72,
      "hit": false,
      "t": 225267.73700000017,
      "d": 223.2141666666721,
      "v": 87
    },
    {
      "midi": 69,
      "hit": false,
      "t": 225535.5940000002,
      "d": 223.2141666666721,
      "v": 87
    },
    {
      "midi": 67,
      "hit": false,
      "t": 225803.4510000002,
      "d": 223.2141666666721,
      "v": 87
    },
    {
      "midi": 60,
      "hit": false,
      "t": 226071.30800000022,
      "d": 223.2141666666721,
      "v": 87
    },
    {
      "midi": 69,
      "hit": false,
      "t": 226339.16500000024,
      "d": 223.2141666666721,
      "v": 87
    },
    {
      "midi": 67,
      "hit": false,
      "t": 226607.02200000026,
      "d": 223.2141666666721,
      "v": 87
    },
    {
      "midi": 72,
      "hit": false,
      "t": 226874.87900000028,
      "d": 223.2141666666721,
      "v": 87
    },
    {
      "midi": 69,
      "hit": false,
      "t": 227142.7360000003,
      "d": 223.2141666666721,
      "v": 87
    },
    {
      "midi": 67,
      "hit": false,
      "t": 227410.5930000003,
      "d": 223.2141666666721,
      "v": 87
    },
    {
      "midi": 60,
      "hit": false,
      "t": 227678.45000000033,
      "d": 223.2141666666721,
      "v": 87
    },
    {
      "midi": 69,
      "hit": false,
      "t": 227946.30700000035,
      "d": 223.2141666666721,
      "v": 87
    },
    {
      "midi": 67,
      "hit": false,
      "t": 228214.16400000037,
      "d": 223.2141666666721,
      "v": 87
    },
    {
      "midi": 72,
      "hit": false,
      "t": 228482.0210000004,
      "d": 223.2141666666721,
      "v": 87
    },
    {
      "midi": 69,
      "hit": false,
      "t": 228749.8780000004,
      "d": 223.2141666666721,
      "v": 87
    },
    {
      "midi": 67,
      "hit": false,
      "t": 229017.73500000042,
      "d": 223.2141666666721,
      "v": 87
    },
    {
      "midi": 60,
      "hit": false,
      "t": 229285.59200000044,
      "d": 2109.37387499999,
      "v": 87
    },
    {
      "midi": 52,
      "hit": false,
      "t": 231428.44800000015,
      "d": 8537.94187499999,
      "v": 77
    },
    {
      "midi": 55,
      "hit": false,
      "t": 231428.44800000015,
      "d": 8537.94187499999,
      "v": 77
    },
    {
      "midi": 60,
      "hit": false,
      "t": 231428.44800000015,
      "d": 8537.94187499999,
      "v": 77
    },
    {
      "midi": 62,
      "hit": false,
      "t": 231428.44800000015,
      "d": 8571.423999999999,
      "v": 77
    }
  ]
}