{
  "jsonPath": "Rock/Autonomous Black Metal/Jute Gyte/skellig-rock.json",
  "path": "Rock\\Autonomous Black Metal\\Jute Gyte\\Skellig Rock.mid",
  "name": "Skellig Rock",
  "difficulty": "Advanced",
  "bpm": 100,
  "notes": [
    {
      "midi": 55,
      "hit": false,
      "t": 2400,
      "d": 740,
      "v": 127
    },
    {
      "midi": 71,
      "hit": false,
      "t": 2445,
      "d": 730,
      "v": 127
    },
    {
      "midi": 62,
      "hit": false,
      "t": 2450,
      "d": 680,
      "v": 127
    },
    {
      "midi": 74,
      "hit": false,
      "t": 2455,
      "d": 645,
      "v": 127
    },
    {
      "midi": 67,
      "hit": false,
      "t": 2465,
      "d": 705,
      "v": 127
    },
    {
      "midi": 62,
      "hit": false,
      "t": 3185,
      "d": 345,
      "v": 127
    },
    {
      "midi": 55,
      "hit": false,
      "t": 3185,
      "d": 385,
      "v": 127
    },
    {
      "midi": 67,
      "hit": false,
      "t": 3195,
      "d": 735,
      "v": 127
    },
    {
      "midi": 71,
      "hit": false,
      "t": 3205,
      "d": 735,
      "v": 127
    },
    {
      "midi": 74,
      "hit": false,
      "t": 3225,
      "d": 675,
      "v": 127
    },
    {
      "midi": 54,
      "hit": false,
      "t": 3905,
      "d": 795,
      "v": 127
    },
    {
      "midi": 57,
      "hit": false,
      "t": 3915,
      "d": 705,
      "v": 127
    },
    {
      "midi": 50,
      "hit": false,
      "t": 3930,
      "d": 680,
      "v": 127
    },
    {
      "midi": 66,
      "hit": false,
      "t": 4675,
      "d": 825,
      "v": 127
    },
    {
      "midi": 50,
      "hit": false,
      "t": 4685,
      "d": 400,
      "v": 127
    },
    {
      "midi": 57,
      "hit": false,
      "t": 4685,
      "d": 430,
      "v": 127
    },
    {
      "midi": 69,
      "hit": false,
      "t": 4690,
      "d": 785,
      "v": 127
    },
    {
      "midi": 62,
      "hit": false,
      "t": 4690,
      "d": 810,
      "v": 127
    },
    {
      "midi": 52,
      "hit": false,
      "t": 5470,
      "d": 720,
      "v": 127
    },
    {
      "midi": 59,
      "hit": false,
      "t": 5475,
      "d": 755,
      "v": 127
    },
    {
      "midi": 55,
      "hit": false,
      "t": 5490,
      "d": 800,
      "v": 127
    },
    {
      "midi": 64,
      "hit": false,
      "t": 5880,
      "d": 385,
      "v": 127
    },
    {
      "midi": 64,
      "hit": false,
      "t": 6270,
      "d": 1525,
      "v": 127
    },
    {
      "midi": 59,
      "hit": false,
      "t": 6290,
      "d": 385,
      "v": 127
    },
    {
      "midi": 71,
      "hit": false,
      "t": 6290,
      "d": 1465,
      "v": 127
    },
    {
      "midi": 67,
      "hit": false,
      "t": 6290,
      "d": 1505,
      "v": 127
    },
    {
      "midi": 52,
      "hit": false,
      "t": 6300,
      "d": 815,
      "v": 127
    },
    {
      "midi": 55,
      "hit": false,
      "t": 6650,
      "d": 270,
      "v": 127
    },
    {
      "midi": 59,
      "hit": false,
      "t": 6815,
      "d": 975,
      "v": 127
    },
    {
      "midi": 55,
      "hit": false,
      "t": 7040,
      "d": 800,
      "v": 127
    },
    {
      "midi": 52,
      "hit": false,
      "t": 7410,
      "d": 360,
      "v": 127
    },
    {
      "midi": 52,
      "hit": false,
      "t": 7830,
      "d": 500,
      "v": 127
    },
    {
      "midi": 59,
      "hit": false,
      "t": 7840,
      "d": 465,
      "v": 127
    },
    {
      "midi": 64,
      "hit": false,
      "t": 7850,
      "d": 835,
      "v": 127
    },
    {
      "midi": 67,
      "hit": false,
      "t": 7850,
      "d": 845,
      "v": 127
    },
    {
      "midi": 71,
      "hit": false,
      "t": 7860,
      "d": 810,
      "v": 127
    },
    {
      "midi": 55,
      "hit": false,
      "t": 8230,
      "d": 105,
      "v": 127
    },
    {
      "midi": 52,
      "hit": false,
      "t": 8620,
      "d": 820,
      "v": 127
    },
    {
      "midi": 48,
      "hit": false,
      "t": 8640,
      "d": 705,
      "v": 127
    },
    {
      "midi": 55,
      "hit": false,
      "t": 8640,
      "d": 750,
      "v": 127
    },
    {
      "midi": 60,
      "hit": false,
      "t": 9030,
      "d": 345,
      "v": 127
    },
    {
      "midi": 55,
      "hit": false,
      "t": 9400,
      "d": 465,
      "v": 127
    },
    {
      "midi": 60,
      "hit": false,
      "t": 9410,
      "d": 1530,
      "v": 127
    },
    {
      "midi": 64,
      "hit": false,
      "t": 9415,
      "d": 1545,
      "v": 127
    },
    {
      "midi": 67,
      "hit": false,
      "t": 9420,
      "d": 1480,
      "v": 127
    },
    {
      "midi": 48,
      "hit": false,
      "t": 9430,
      "d": 855,
      "v": 127
    },
    {
      "midi": 52,
      "hit": false,
      "t": 9820,
      "d": 250,
      "v": 127
    },
    {
      "midi": 55,
      "hit": false,
      "t": 10000,
      "d": 910,
      "v": 127
    },
    {
      "midi": 52,
      "hit": false,
      "t": 10230,
      "d": 790,
      "v": 127
    },
    {
      "midi": 48,
      "hit": false,
      "t": 10580,
      "d": 320,
      "v": 127
    },
    {
      "midi": 48,
      "hit": false,
      "t": 11030,
      "d": 490,
      "v": 127
    },
    {
      "midi": 55,
      "hit": false,
      "t": 11040,
      "d": 510,
      "v": 127
    },
    {
      "midi": 67,
      "hit": false,
      "t": 11050,
      "d": 875,
      "v": 127
    },
    {
      "midi": 64,
      "hit": false,
      "t": 11050,
      "d": 885,
      "v": 127
    },
    {
      "midi": 60,
      "hit": false,
      "t": 11060,
      "d": 850,
      "v": 127
    },
    {
      "midi": 52,
      "hit": false,
      "t": 11455,
      "d": 100,
      "v": 127
    },
    {
      "midi": 54,
      "hit": false,
      "t": 11840,
      "d": 5550,
      "v": 127
    },
    {
      "midi": 57,
      "hit": false,
      "t": 11850,
      "d": 5530,
      "v": 127
    },
    {
      "midi": 50,
      "hit": false,
      "t": 11860,
      "d": 5490,
      "v": 127
    },
    {
      "midi": 62,
      "hit": false,
      "t": 12260,
      "d": 520,
      "v": 127
    },
    {
      "midi": 66,
      "hit": false,
      "t": 12685,
      "d": 435,
      "v": 127
    },
    {
      "midi": 69,
      "hit": false,
      "t": 13095,
      "d": 515,
      "v": 127
    },
    {
      "midi": 66,
      "hit": false,
      "t": 13520,
      "d": 405,
      "v": 127
    },
    {
      "midi": 62,
      "hit": false,
      "t": 13925,
      "d": 495,
      "v": 127
    },
    {
      "midi": 66,
      "hit": false,
      "t": 14340,
      "d": 2605,
      "v": 127
    },
    {
      "midi": 62,
      "hit": false,
      "t": 14785,
      "d": 340,
      "v": 127
    },
    {
      "midi": 74,
      "hit": false,
      "t": 15210,
      "d": 1655,
      "v": 127
    },
    {
      "midi": 55,
      "hit": false,
      "t": 18380,
      "d": 2745,
      "v": 127
    },
    {
      "midi": 62,
      "hit": false,
      "t": 19800,
      "d": 1285,
      "v": 127
    },
    {
      "midi": 67,
      "hit": false,
      "t": 19840,
      "d": 570,
      "v": 127
    },
    {
      "midi": 71,
      "hit": false,
      "t": 19840,
      "d": 630,
      "v": 127
    },
    {
      "midi": 74,
      "hit": false,
      "t": 19845,
      "d": 510,
      "v": 127
    },
    {
      "midi": 59,
      "hit": false,
      "t": 20235,
      "d": 565,
      "v": 127
    },
    {
      "midi": 71,
      "hit": false,
      "t": 20630,
      "d": 880,
      "v": 127
    },
    {
      "midi": 67,
      "hit": false,
      "t": 20640,
      "d": 865,
      "v": 127
    },
    {
      "midi": 74,
      "hit": false,
      "t": 20645,
      "d": 845,
      "v": 127
    },
    {
      "midi": 59,
      "hit": false,
      "t": 21035,
      "d": 100,
      "v": 127
    },
    {
      "midi": 54,
      "hit": false,
      "t": 21450,
      "d": 2410,
      "v": 127
    },
    {
      "midi": 50,
      "hit": false,
      "t": 21460,
      "d": 2330,
      "v": 127
    },
    {
      "midi": 57,
      "hit": false,
      "t": 21470,
      "d": 2340,
      "v": 127
    },
    {
      "midi": 62,
      "hit": false,
      "t": 21875,
      "d": 430,
      "v": 127
    },
    {
      "midi": 66,
      "hit": false,
      "t": 22250,
      "d": 410,
      "v": 127
    },
    {
      "midi": 69,
      "hit": false,
      "t": 22625,
      "d": 460,
      "v": 127
    },
    {
      "midi": 66,
      "hit": false,
      "t": 23045,
      "d": 445,
      "v": 127
    },
    {
      "midi": 62,
      "hit": false,
      "t": 23455,
      "d": 375,
      "v": 127
    },
    {
      "midi": 57,
      "hit": false,
      "t": 23870,
      "d": 460,
      "v": 127
    },
    {
      "midi": 66,
      "hit": false,
      "t": 23870,
      "d": 830,
      "v": 127
    },
    {
      "midi": 50,
      "hit": false,
      "t": 23880,
      "d": 435,
      "v": 127
    },
    {
      "midi": 62,
      "hit": false,
      "t": 23880,
      "d": 815,
      "v": 127
    },
    {
      "midi": 69,
      "hit": false,
      "t": 23885,
      "d": 835,
      "v": 127
    },
    {
      "midi": 52,
      "hit": false,
      "t": 24640,
      "d": 3045,
      "v": 127
    },
    {
      "midi": 59,
      "hit": false,
      "t": 24660,
      "d": 3445,
      "v": 127
    },
    {
      "midi": 64,
      "hit": false,
      "t": 25060,
      "d": 450,
      "v": 127
    },
    {
      "midi": 67,
      "hit": false,
      "t": 25450,
      "d": 375,
      "v": 127
    },
    {
      "midi": 71,
      "hit": false,
      "t": 25815,
      "d": 420,
      "v": 127
    },
    {
      "midi": 67,
      "hit": false,
      "t": 26200,
      "d": 355,
      "v": 127
    },
    {
      "midi": 64,
      "hit": false,
      "t": 26610,
      "d": 445,
      "v": 127
    },
    {
      "midi": 67,
      "hit": false,
      "t": 27005,
      "d": 3140,
      "v": 127
    },
    {
      "midi": 71,
      "hit": false,
      "t": 27390,
      "d": 2690,
      "v": 127
    },
    {
      "midi": 55,
      "hit": false,
      "t": 27760,
      "d": 655,
      "v": 127
    },
    {
      "midi": 50,
      "hit": false,
      "t": 27820,
      "d": 905,
      "v": 127
    },
    {
      "midi": 62,
      "hit": false,
      "t": 27830,
      "d": 2300,
      "v": 127
    },
    {
      "midi": 59,
      "hit": false,
      "t": 28230,
      "d": 905,
      "v": 127
    },
    {
      "midi": 55,
      "hit": false,
      "t": 28590,
      "d": 985,
      "v": 127
    },
    {
      "midi": 50,
      "hit": false,
      "t": 28980,
      "d": 1130,
      "v": 127
    },
    {
      "midi": 59,
      "hit": false,
      "t": 29400,
      "d": 720,
      "v": 127
    },
    {
      "midi": 55,
      "hit": false,
      "t": 29775,
      "d": 445,
      "v": 127
    },
    {
      "midi": 59,
      "hit": false,
      "t": 30190,
      "d": 460,
      "v": 127
    },
    {
      "midi": 50,
      "hit": false,
      "t": 30205,
      "d": 475,
      "v": 127
    },
    {
      "midi": 62,
      "hit": false,
      "t": 30205,
      "d": 860,
      "v": 127
    },
    {
      "midi": 71,
      "hit": false,
      "t": 30220,
      "d": 810,
      "v": 127
    },
    {
      "midi": 67,
      "hit": false,
      "t": 30220,
      "d": 825,
      "v": 127
    },
    {
      "midi": 55,
      "hit": false,
      "t": 30545,
      "d": 125,
      "v": 127
    },
    {
      "midi": 55,
      "hit": false,
      "t": 30960,
      "d": 2380,
      "v": 127
    },
    {
      "midi": 52,
      "hit": false,
      "t": 30960,
      "d": 2420,
      "v": 127
    },
    {
      "midi": 48,
      "hit": false,
      "t": 31055,
      "d": 2210,
      "v": 127
    },
    {
      "midi": 60,
      "hit": false,
      "t": 31390,
      "d": 445,
      "v": 127
    },
    {
      "midi": 64,
      "hit": false,
      "t": 31750,
      "d": 425,
      "v": 127
    },
    {
      "midi": 67,
      "hit": false,
      "t": 32130,
      "d": 480,
      "v": 127
    },
    {
      "midi": 64,
      "hit": false,
      "t": 32540,
      "d": 455,
      "v": 127
    },
    {
      "midi": 60,
      "hit": false,
      "t": 32960,
      "d": 395,
      "v": 127
    },
    {
      "midi": 48,
      "hit": false,
      "t": 33370,
      "d": 455,
      "v": 127
    },
    {
      "midi": 55,
      "hit": false,
      "t": 33370,
      "d": 470,
      "v": 127
    },
    {
      "midi": 64,
      "hit": false,
      "t": 33380,
      "d": 925,
      "v": 127
    },
    {
      "midi": 60,
      "hit": false,
      "t": 33395,
      "d": 865,
      "v": 127
    },
    {
      "midi": 67,
      "hit": false,
      "t": 33395,
      "d": 905,
      "v": 127
    },
    {
      "midi": 52,
      "hit": false,
      "t": 33740,
      "d": 115,
      "v": 127
    },
    {
      "midi": 57,
      "hit": false,
      "t": 34175,
      "d": 2385,
      "v": 127
    },
    {
      "midi": 50,
      "hit": false,
      "t": 34185,
      "d": 2355,
      "v": 127
    },
    {
      "midi": 54,
      "hit": false,
      "t": 34195,
      "d": 2395,
      "v": 127
    },
    {
      "midi": 62,
      "hit": false,
      "t": 34600,
      "d": 490,
      "v": 127
    },
    {
      "midi": 66,
      "hit": false,
      "t": 34995,
      "d": 430,
      "v": 127
    },
    {
      "midi": 69,
      "hit": false,
      "t": 35395,
      "d": 430,
      "v": 127
    },
    {
      "midi": 66,
      "hit": false,
      "t": 35770,
      "d": 465,
      "v": 127
    },
    {
      "midi": 62,
      "hit": false,
      "t": 36190,
      "d": 370,
      "v": 127
    },
    {
      "midi": 66,
      "hit": false,
      "t": 36605,
      "d": 790,
      "v": 127
    },
    {
      "midi": 57,
      "hit": false,
      "t": 36615,
      "d": 425,
      "v": 127
    },
    {
      "midi": 50,
      "hit": false,
      "t": 36615,
      "d": 435,
      "v": 127
    },
    {
      "midi": 62,
      "hit": false,
      "t": 36615,
      "d": 575,
      "v": 127
    },
    {
      "midi": 69,
      "hit": false,
      "t": 36615,
      "d": 805,
      "v": 127
    },
    {
      "midi": 59,
      "hit": false,
      "t": 37385,
      "d": 4085,
      "v": 127
    },
    {
      "midi": 62,
      "hit": false,
      "t": 37395,
      "d": 4065,
      "v": 127
    },
    {
      "midi": 55,
      "hit": false,
      "t": 37415,
      "d": 4070,
      "v": 127
    },
    {
      "midi": 67,
      "hit": false,
      "t": 37810,
      "d": 410,
      "v": 127
    },
    {
      "midi": 71,
      "hit": false,
      "t": 38210,
      "d": 430,
      "v": 127
    },
    {
      "midi": 74,
      "hit": false,
      "t": 38595,
      "d": 410,
      "v": 127
    },
    {
      "midi": 71,
      "hit": false,
      "t": 38960,
      "d": 430,
      "v": 127
    },
    {
      "midi": 67,
      "hit": false,
      "t": 39390,
      "d": 400,
      "v": 127
    },
    {
      "midi": 71,
      "hit": false,
      "t": 39780,
      "d": 415,
      "v": 127
    },
    {
      "midi": 74,
      "hit": false,
      "t": 40175,
      "d": 405,
      "v": 127
    },
    {
      "midi": 71,
      "hit": false,
      "t": 40540,
      "d": 445,
      "v": 127
    },
    {
      "midi": 67,
      "hit": false,
      "t": 40955,
      "d": 480,
      "v": 127
    },
    {
      "midi": 71,
      "hit": false,
      "t": 41415,
      "d": 425,
      "v": 127
    },
    {
      "midi": 54,
      "hit": false,
      "t": 42150,
      "d": 770,
      "v": 127
    },
    {
      "midi": 47,
      "hit": false,
      "t": 42160,
      "d": 700,
      "v": 127
    },
    {
      "midi": 51,
      "hit": false,
      "t": 42160,
      "d": 760,
      "v": 127
    },
    {
      "midi": 59,
      "hit": false,
      "t": 42540,
      "d": 355,
      "v": 127
    },
    {
      "midi": 59,
      "hit": false,
      "t": 42940,
      "d": 820,
      "v": 127
    },
    {
      "midi": 63,
      "hit": false,
      "t": 42955,
      "d": 805,
      "v": 127
    },
    {
      "midi": 66,
      "hit": false,
      "t": 42955,
      "d": 850,
      "v": 127
    },
    {
      "midi": 54,
      "hit": false,
      "t": 42970,
      "d": 515,
      "v": 127
    },
    {
      "midi": 47,
      "hit": false,
      "t": 42980,
      "d": 470,
      "v": 127
    },
    {
      "midi": 51,
      "hit": false,
      "t": 43340,
      "d": 165,
      "v": 127
    },
    {
      "midi": 55,
      "hit": false,
      "t": 43710,
      "d": 790,
      "v": 127
    },
    {
      "midi": 52,
      "hit": false,
      "t": 43730,
      "d": 820,
      "v": 127
    },
    {
      "midi": 48,
      "hit": false,
      "t": 43760,
      "d": 685,
      "v": 127
    },
    {
      "midi": 60,
      "hit": false,
      "t": 44160,
      "d": 355,
      "v": 127
    },
    {
      "midi": 48,
      "hit": false,
      "t": 44530,
      "d": 1380,
      "v": 127
    },
    {
      "midi": 60,
      "hit": false,
      "t": 44540,
      "d": 1550,
      "v": 127
    },
    {
      "midi": 55,
      "hit": false,
      "t": 44550,
      "d": 480,
      "v": 127
    },
    {
      "midi": 67,
      "hit": false,
      "t": 44550,
      "d": 1480,
      "v": 127
    },
    {
      "midi": 64,
      "hit": false,
      "t": 44550,
      "d": 1540,
      "v": 127
    },
    {
      "midi": 52,
      "hit": false,
      "t": 44945,
      "d": 505,
      "v": 127
    },
    {
      "midi": 55,
      "hit": false,
      "t": 45350,
      "d": 710,
      "v": 127
    },
    {
      "midi": 52,
      "hit": false,
      "t": 45780,
      "d": 400,
      "v": 127
    },
    {
      "midi": 55,
      "hit": false,
      "t": 46145,
      "d": 525,
      "v": 127
    },
    {
      "midi": 48,
      "hit": false,
      "t": 46155,
      "d": 500,
      "v": 127
    },
    {
      "midi": 60,
      "hit": false,
      "t": 46165,
      "d": 885,
      "v": 127
    },
    {
      "midi": 64,
      "hit": false,
      "t": 46165,
      "d": 915,
      "v": 127
    },
    {
      "midi": 67,
      "hit": false,
      "t": 46180,
      "d": 920,
      "v": 127
    },
    {
      "midi": 52,
      "hit": false,
      "t": 46550,
      "d": 155,
      "v": 127
    },
    {
      "midi": 57,
      "hit": false,
      "t": 46940,
      "d": 755,
      "v": 127
    },
    {
      "midi": 54,
      "hit": false,
      "t": 46950,
      "d": 795,
      "v": 127
    },
    {
      "midi": 50,
      "hit": false,
      "t": 46970,
      "d": 690,
      "v": 127
    },
    {
      "midi": 62,
      "hit": false,
      "t": 47375,
      "d": 375,
      "v": 127
    },
    {
      "midi": 57,
      "hit": false,
      "t": 47765,
      "d": 485,
      "v": 127
    },
    {
      "midi": 50,
      "hit": false,
      "t": 47770,
      "d": 1300,
      "v": 127
    },
    {
      "midi": 69,
      "hit": false,
      "t": 47775,
      "d": 1535,
      "v": 127
    },
    {
      "midi": 62,
      "hit": false,
      "t": 47775,
      "d": 1575,
      "v": 127
    },
    {
      "midi": 66,
      "hit": false,
      "t": 47785,
      "d": 1570,
      "v": 127
    },
    {
      "midi": 54,
      "hit": false,
      "t": 48165,
      "d": 490,
      "v": 127
    },
    {
      "midi": 57,
      "hit": false,
      "t": 48555,
      "d": 755,
      "v": 127
    },
    {
      "midi": 54,
      "hit": false,
      "t": 48970,
      "d": 465,
      "v": 127
    },
    {
      "midi": 57,
      "hit": false,
      "t": 49400,
      "d": 450,
      "v": 127
    },
    {
      "midi": 50,
      "hit": false,
      "t": 49410,
      "d": 430,
      "v": 127
    },
    {
      "midi": 62,
      "hit": false,
      "t": 49410,
      "d": 770,
      "v": 127
    },
    {
      "midi": 66,
      "hit": false,
      "t": 49410,
      "d": 770,
      "v": 127
    },
    {
      "midi": 69,
      "hit": false,
      "t": 49410,
      "d": 825,
      "v": 127
    },
    {
      "midi": 54,
      "hit": false,
      "t": 49750,
      "d": 115,
      "v": 127
    },
    {
      "midi": 59,
      "hit": false,
      "t": 50120,
      "d": 750,
      "v": 127
    },
    {
      "midi": 55,
      "hit": false,
      "t": 50120,
      "d": 820,
      "v": 127
    },
    {
      "midi": 52,
      "hit": false,
      "t": 50130,
      "d": 725,
      "v": 127
    },
    {
      "midi": 64,
      "hit": false,
      "t": 50555,
      "d": 340,
      "v": 127
    },
    {
      "midi": 52,
      "hit": false,
      "t": 50940,
      "d": 590,
      "v": 127
    },
    {
      "midi": 64,
      "hit": false,
      "t": 50950,
      "d": 655,
      "v": 127
    },
    {
      "midi": 59,
      "hit": false,
      "t": 50950,
      "d": 685,
      "v": 127
    },
    {
      "midi": 71,
      "hit": false,
      "t": 50960,
      "d": 610,
      "v": 127
    },
    {
      "midi": 67,
      "hit": false,
      "t": 50960,
      "d": 1570,
      "v": 127
    },
    {
      "midi": 55,
      "hit": false,
      "t": 51355,
      "d": 1205,
      "v": 127
    },
    {
      "midi": 71,
      "hit": false,
      "t": 51740,
      "d": 730,
      "v": 127
    },
    {
      "midi": 59,
      "hit": false,
      "t": 51750,
      "d": 155,
      "v": 127
    },
    {
      "midi": 50,
      "hit": false,
      "t": 51760,
      "d": 725,
      "v": 127
    },
    {
      "midi": 62,
      "hit": false,
      "t": 51780,
      "d": 720,
      "v": 127
    },
    {
      "midi": 59,
      "hit": false,
      "t": 52160,
      "d": 340,
      "v": 127
    },
    {
      "midi": 59,
      "hit": false,
      "t": 52575,
      "d": 565,
      "v": 127
    },
    {
      "midi": 67,
      "hit": false,
      "t": 52585,
      "d": 425,
      "v": 127
    },
    {
      "midi": 50,
      "hit": false,
      "t": 52585,
      "d": 575,
      "v": 127
    },
    {
      "midi": 62,
      "hit": false,
      "t": 52585,
      "d": 590,
      "v": 127
    },
    {
      "midi": 71,
      "hit": false,
      "t": 52595,
      "d": 390,
      "v": 127
    },
    {
      "midi": 55,
      "hit": false,
      "t": 52940,
      "d": 310,
      "v": 127
    },
    {
      "midi": 59,
      "hit": false,
      "t": 53340,
      "d": 325,
      "v": 127
    },
    {
      "midi": 55,
      "hit": false,
      "t": 53350,
      "d": 810,
      "v": 127
    },
    {
      "midi": 52,
      "hit": false,
      "t": 53370,
      "d": 705,
      "v": 127
    },
    {
      "midi": 59,
      "hit": false,
      "t": 53775,
      "d": 335,
      "v": 127
    },
    {
      "midi": 67,
      "hit": false,
      "t": 54175,
      "d": 465,
      "v": 127
    },
    {
      "midi": 64,
      "hit": false,
      "t": 54175,
      "d": 480,
      "v": 127
    },
    {
      "midi": 52,
      "hit": false,
      "t": 54175,
      "d": 505,
      "v": 127
    },
    {
      "midi": 71,
      "hit": false,
      "t": 54190,
      "d": 425,
      "v": 127
    },
    {
      "midi": 59,
      "hit": false,
      "t": 54190,
      "d": 485,
      "v": 127
    },
    {
      "midi": 55,
      "hit": false,
      "t": 54560,
      "d": 155,
      "v": 127
    },
    {
      "midi": 50,
      "hit": false,
      "t": 54905,
      "d": 705,
      "v": 127
    },
    {
      "midi": 71,
      "hit": false,
      "t": 54935,
      "d": 720,
      "v": 127
    },
    {
      "midi": 62,
      "hit": false,
      "t": 54945,
      "d": 705,
      "v": 127
    },
    {
      "midi": 67,
      "hit": false,
      "t": 54955,
      "d": 635,
      "v": 127
    },
    {
      "midi": 55,
      "hit": false,
      "t": 55330,
      "d": 300,
      "v": 127
    },
    {
      "midi": 50,
      "hit": false,
      "t": 55740,
      "d": 505,
      "v": 127
    },
    {
      "midi": 66,
      "hit": false,
      "t": 55740,
      "d": 790,
      "v": 127
    },
    {
      "midi": 57,
      "hit": false,
      "t": 55745,
      "d": 515,
      "v": 127
    },
    {
      "midi": 62,
      "hit": false,
      "t": 55760,
      "d": 655,
      "v": 127
    },
    {
      "midi": 69,
      "hit": false,
      "t": 55760,
      "d": 770,
      "v": 127
    },
    {
      "midi": 54,
      "hit": false,
      "t": 56170,
      "d": 110,
      "v": 127
    },
    {
      "midi": 59,
      "hit": false,
      "t": 56540,
      "d": 1210,
      "v": 127
    },
    {
      "midi": 55,
      "hit": false,
      "t": 56540,
      "d": 1220,
      "v": 127
    },
    {
      "midi": 52,
      "hit": false,
      "t": 56550,
      "d": 1225,
      "v": 127
    },
    {
      "midi": 57,
      "hit": false,
      "t": 58065,
      "d": 1215,
      "v": 127
    },
    {
      "midi": 54,
      "hit": false,
      "t": 58065,
      "d": 1225,
      "v": 127
    },
    {
      "midi": 50,
      "hit": false,
      "t": 58070,
      "d": 1200,
      "v": 127
    },
    {
      "midi": 66,
      "hit": false,
      "t": 58080,
      "d": 1155,
      "v": 127
    },
    {
      "midi": 69,
      "hit": false,
      "t": 58090,
      "d": 1195,
      "v": 127
    },
    {
      "midi": 62,
      "hit": false,
      "t": 58100,
      "d": 1115,
      "v": 127
    },
    {
      "midi": 55,
      "hit": false,
      "t": 59725,
      "d": 795,
      "v": 127
    },
    {
      "midi": 59,
      "hit": false,
      "t": 59730,
      "d": 750,
      "v": 127
    },
    {
      "midi": 52,
      "hit": false,
      "t": 59740,
      "d": 710,
      "v": 127
    },
    {
      "midi": 64,
      "hit": false,
      "t": 59750,
      "d": 735,
      "v": 127
    },
    {
      "midi": 67,
      "hit": false,
      "t": 59750,
      "d": 760,
      "v": 127
    },
    {
      "midi": 71,
      "hit": false,
      "t": 59765,
      "d": 705,
      "v": 127
    },
    {
      "midi": 55,
      "hit": false,
      "t": 60575,
      "d": 305,
      "v": 127
    },
    {
      "midi": 59,
      "hit": false,
      "t": 60575,
      "d": 305,
      "v": 127
    },
    {
      "midi": 52,
      "hit": false,
      "t": 60590,
      "d": 290,
      "v": 127
    },
    {
      "midi": 64,
      "hit": false,
      "t": 60590,
      "d": 505,
      "v": 127
    },
    {
      "midi": 71,
      "hit": false,
      "t": 60590,
      "d": 530,
      "v": 127
    },
    {
      "midi": 67,
      "hit": false,
      "t": 60590,
      "d": 580,
      "v": 127
    },
    {
      "midi": 47,
      "hit": false,
      "t": 61350,
      "d": 690,
      "v": 127
    },
    {
      "midi": 51,
      "hit": false,
      "t": 61355,
      "d": 755,
      "v": 127
    },
    {
      "midi": 54,
      "hit": false,
      "t": 61355,
      "d": 1325,
      "v": 127
    },
    {
      "midi": 59,
      "hit": false,
      "t": 61720,
      "d": 360,
      "v": 127
    },
    {
      "midi": 59,
      "hit": false,
      "t": 62120,
      "d": 835,
      "v": 127
    },
    {
      "midi": 63,
      "hit": false,
      "t": 62130,
      "d": 845,
      "v": 127
    },
    {
      "midi": 66,
      "hit": false,
      "t": 62130,
      "d": 870,
      "v": 127
    },
    {
      "midi": 47,
      "hit": false,
      "t": 62140,
      "d": 510,
      "v": 127
    },
    {
      "midi": 51,
      "hit": false,
      "t": 62560,
      "d": 135,
      "v": 127
    },
    {
      "midi": 52,
      "hit": false,
      "t": 62945,
      "d": 820,
      "v": 127
    },
    {
      "midi": 48,
      "hit": false,
      "t": 62965,
      "d": 715,
      "v": 127
    },
    {
      "midi": 55,
      "hit": false,
      "t": 62965,
      "d": 765,
      "v": 127
    },
    {
      "midi": 60,
      "hit": false,
      "t": 63370,
      "d": 365,
      "v": 127
    },
    {
      "midi": 55,
      "hit": false,
      "t": 63770,
      "d": 455,
      "v": 127
    },
    {
      "midi": 48,
      "hit": false,
      "t": 63770,
      "d": 855,
      "v": 127
    },
    {
      "midi": 60,
      "hit": false,
      "t": 63775,
      "d": 1580,
      "v": 127
    },
    {
      "midi": 64,
      "hit": false,
      "t": 63775,
      "d": 1580,
      "v": 127
    },
    {
      "midi": 67,
      "hit": false,
      "t": 63785,
      "d": 1550,
      "v": 127
    },
    {
      "midi": 52,
      "hit": false,
      "t": 64165,
      "d": 275,
      "v": 127
    },
    {
      "midi": 55,
      "hit": false,
      "t": 64355,
      "d": 905,
      "v": 127
    },
    {
      "midi": 52,
      "hit": false,
      "t": 64560,
      "d": 835,
      "v": 127
    },
    {
      "midi": 48,
      "hit": false,
      "t": 64935,
      "d": 365,
      "v": 127
    },
    {
      "midi": 48,
      "hit": false,
      "t": 65375,
      "d": 485,
      "v": 127
    },
    {
      "midi": 55,
      "hit": false,
      "t": 65385,
      "d": 525,
      "v": 127
    },
    {
      "midi": 60,
      "hit": false,
      "t": 65395,
      "d": 770,
      "v": 127
    },
    {
      "midi": 64,
      "hit": false,
      "t": 65395,
      "d": 845,
      "v": 127
    },
    {
      "midi": 67,
      "hit": false,
      "t": 65410,
      "d": 820,
      "v": 127
    },
    {
      "midi": 52,
      "hit": false,
      "t": 65755,
      "d": 170,
      "v": 127
    },
    {
      "midi": 57,
      "hit": false,
      "t": 66155,
      "d": 765,
      "v": 127
    },
    {
      "midi": 50,
      "hit": false,
      "t": 66165,
      "d": 735,
      "v": 127
    },
    {
      "midi": 62,
      "hit": false,
      "t": 66540,
      "d": 370,
      "v": 127
    },
    {
      "midi": 62,
      "hit": false,
      "t": 66930,
      "d": 1570,
      "v": 127
    },
    {
      "midi": 66,
      "hit": false,
      "t": 66930,
      "d": 1570,
      "v": 127
    },
    {
      "midi": 69,
      "hit": false,
      "t": 66945,
      "d": 1525,
      "v": 127
    },
    {
      "midi": 57,
      "hit": false,
      "t": 66955,
      "d": 470,
      "v": 127
    },
    {
      "midi": 50,
      "hit": false,
      "t": 66955,
      "d": 1420,
      "v": 127
    },
    {
      "midi": 54,
      "hit": false,
      "t": 67330,
      "d": 505,
      "v": 127
    },
    {
      "midi": 57,
      "hit": false,
      "t": 67700,
      "d": 755,
      "v": 127
    },
    {
      "midi": 54,
      "hit": false,
      "t": 68140,
      "d": 405,
      "v": 127
    },
    {
      "midi": 57,
      "hit": false,
      "t": 68550,
      "d": 520,
      "v": 127
    },
    {
      "midi": 50,
      "hit": false,
      "t": 68560,
      "d": 485,
      "v": 127
    },
    {
      "midi": 62,
      "hit": false,
      "t": 68565,
      "d": 610,
      "v": 127
    },
    {
      "midi": 66,
      "hit": false,
      "t": 68565,
      "d": 695,
      "v": 127
    },
    {
      "midi": 69,
      "hit": false,
      "t": 68565,
      "d": 750,
      "v": 127
    },
    {
      "midi": 54,
      "hit": false,
      "t": 68955,
      "d": 130,
      "v": 127
    },
    {
      "midi": 59,
      "hit": false,
      "t": 69330,
      "d": 760,
      "v": 127
    },
    {
      "midi": 62,
      "hit": false,
      "t": 69350,
      "d": 695,
      "v": 127
    },
    {
      "midi": 55,
      "hit": false,
      "t": 69360,
      "d": 665,
      "v": 127
    },
    {
      "midi": 67,
      "hit": false,
      "t": 69725,
      "d": 350,
      "v": 127
    },
    {
      "midi": 74,
      "hit": false,
      "t": 70110,
      "d": 790,
      "v": 127
    },
    {
      "midi": 55,
      "hit": false,
      "t": 70120,
      "d": 455,
      "v": 127
    },
    {
      "midi": 67,
      "hit": false,
      "t": 70120,
      "d": 770,
      "v": 127
    },
    {
      "midi": 71,
      "hit": false,
      "t": 70125,
      "d": 795,
      "v": 127
    },
    {
      "midi": 62,
      "hit": false,
      "t": 70130,
      "d": 440,
      "v": 127
    },
    {
      "midi": 59,
      "hit": false,
      "t": 70490,
      "d": 95,
      "v": 127
    },
    {
      "midi": 54,
      "hit": false,
      "t": 70865,
      "d": 800,
      "v": 127
    },
    {
      "midi": 57,
      "hit": false,
      "t": 70870,
      "d": 725,
      "v": 127
    },
    {
      "midi": 50,
      "hit": false,
      "t": 70895,
      "d": 700,
      "v": 127
    },
    {
      "midi": 62,
      "hit": false,
      "t": 71265,
      "d": 1235,
      "v": 127
    },
    {
      "midi": 50,
      "hit": false,
      "t": 71665,
      "d": 495,
      "v": 127
    },
    {
      "midi": 57,
      "hit": false,
      "t": 71665,
      "d": 525,
      "v": 127
    },
    {
      "midi": 66,
      "hit": false,
      "t": 71680,
      "d": 785,
      "v": 127
    },
    {
      "midi": 69,
      "hit": false,
      "t": 71680,
      "d": 820,
      "v": 127
    },
    {
      "midi": 54,
      "hit": false,
      "t": 72070,
      "d": 140,
      "v": 127
    },
    {
      "midi": 52,
      "hit": false,
      "t": 72440,
      "d": 750,
      "v": 127
    },
    {
      "midi": 59,
      "hit": false,
      "t": 72450,
      "d": 765,
      "v": 127
    },
    {
      "midi": 55,
      "hit": false,
      "t": 72450,
      "d": 800,
      "v": 127
    },
    {
      "midi": 64,
      "hit": false,
      "t": 72850,
      "d": 340,
      "v": 127
    },
    {
      "midi": 64,
      "hit": false,
      "t": 73240,
      "d": 490,
      "v": 127
    },
    {
      "midi": 71,
      "hit": false,
      "t": 73250,
      "d": 465,
      "v": 127
    },
    {
      "midi": 67,
      "hit": false,
      "t": 73250,
      "d": 490,
      "v": 127
    },
    {
      "midi": 59,
      "hit": false,
      "t": 73260,
      "d": 710,
      "v": 127
    },
    {
      "midi": 52,
      "hit": false,
      "t": 73275,
      "d": 1060,
      "v": 127
    },
    {
      "midi": 55,
      "hit": false,
      "t": 73630,
      "d": 520,
      "v": 127
    },
    {
      "midi": 67,
      "hit": false,
      "t": 73860,
      "d": 1035,
      "v": 127
    },
    {
      "midi": 71,
      "hit": false,
      "t": 73870,
      "d": 1010,
      "v": 127
    },
    {
      "midi": 64,
      "hit": false,
      "t": 73870,
      "d": 1015,
      "v": 127
    },
    {
      "midi": 59,
      "hit": false,
      "t": 74070,
      "d": 825,
      "v": 127
    },
    {
      "midi": 55,
      "hit": false,
      "t": 74265,
      "d": 665,
      "v": 127
    },
    {
      "midi": 52,
      "hit": false,
      "t": 74485,
      "d": 400,
      "v": 127
    },
    {
      "midi": 67,
      "hit": false,
      "t": 74960,
      "d": 820,
      "v": 127
    },
    {
      "midi": 52,
      "hit": false,
      "t": 74970,
      "d": 500,
      "v": 127
    },
    {
      "midi": 59,
      "hit": false,
      "t": 74970,
      "d": 500,
      "v": 127
    },
    {
      "midi": 64,
      "hit": false,
      "t": 74970,
      "d": 785,
      "v": 127
    },
    {
      "midi": 71,
      "hit": false,
      "t": 74970,
      "d": 790,
      "v": 127
    },
    {
      "midi": 55,
      "hit": false,
      "t": 75360,
      "d": 125,
      "v": 127
    },
    {
      "midi": 52,
      "hit": false,
      "t": 75745,
      "d": 800,
      "v": 127
    },
    {
      "midi": 55,
      "hit": false,
      "t": 75755,
      "d": 755,
      "v": 127
    },
    {
      "midi": 48,
      "hit": false,
      "t": 75770,
      "d": 685,
      "v": 127
    },
    {
      "midi": 60,
      "hit": false,
      "t": 76145,
      "d": 385,
      "v": 127
    },
    {
      "midi": 55,
      "hit": false,
      "t": 76560,
      "d": 480,
      "v": 127
    },
    {
      "midi": 48,
      "hit": false,
      "t": 76560,
      "d": 1225,
      "v": 127
    },
    {
      "midi": 67,
      "hit": false,
      "t": 76575,
      "d": 1510,
      "v": 127
    },
    {
      "midi": 60,
      "hit": false,
      "t": 76575,
      "d": 1525,
      "v": 127
    },
    {
      "midi": 64,
      "hit": false,
      "t": 76575,
      "d": 1545,
      "v": 127
    },
    {
      "midi": 52,
      "hit": false,
      "t": 76960,
      "d": 515,
      "v": 127
    },
    {
      "midi": 55,
      "hit": false,
      "t": 77325,
      "d": 735,
      "v": 127
    },
    {
      "midi": 52,
      "hit": false,
      "t": 77705,
      "d": 485,
      "v": 127
    },
    {
      "midi": 55,
      "hit": false,
      "t": 78135,
      "d": 490,
      "v": 127
    },
    {
      "midi": 64,
      "hit": false,
      "t": 78145,
      "d": 850,
      "v": 127
    },
    {
      "midi": 48,
      "hit": false,
      "t": 78155,
      "d": 455,
      "v": 127
    },
    {
      "midi": 60,
      "hit": false,
      "t": 78155,
      "d": 785,
      "v": 127
    },
    {
      "midi": 67,
      "hit": false,
      "t": 78170,
      "d": 800,
      "v": 127
    },
    {
      "midi": 52,
      "hit": false,
      "t": 78500,
      "d": 140,
      "v": 127
    },
    {
      "midi": 57,
      "hit": false,
      "t": 78900,
      "d": 775,
      "v": 127
    },
    {
      "midi": 54,
      "hit": false,
      "t": 78900,
      "d": 815,
      "v": 127
    },
    {
      "midi": 50,
      "hit": false,
      "t": 78920,
      "d": 740,
      "v": 127
    },
    {
      "midi": 62,
      "hit": false,
      "t": 79310,
      "d": 380,
      "v": 127
    },
    {
      "midi": 62,
      "hit": false,
      "t": 79715,
      "d": 2145,
      "v": 127
    },
    {
      "midi": 66,
      "hit": false,
      "t": 79720,
      "d": 2135,
      "v": 127
    },
    {
      "midi": 57,
      "hit": false,
      "t": 79730,
      "d": 500,
      "v": 127
    },
    {
      "midi": 50,
      "hit": false,
      "t": 79730,
      "d": 1425,
      "v": 127
    },
    {
      "midi": 69,
      "hit": false,
      "t": 79730,
      "d": 2150,
      "v": 127
    },
    {
      "midi": 54,
      "hit": false,
      "t": 80095,
      "d": 775,
      "v": 127
    },
    {
      "midi": 57,
      "hit": false,
      "t": 80520,
      "d": 1070,
      "v": 127
    },
    {
      "midi": 54,
      "hit": false,
      "t": 81080,
      "d": 305,
      "v": 127
    },
    {
      "midi": 50,
      "hit": false,
      "t": 81305,
      "d": 475,
      "v": 127
    },
    {
      "midi": 54,
      "hit": false,
      "t": 81495,
      "d": 330,
      "v": 127
    },
    {
      "midi": 57,
      "hit": false,
      "t": 81685,
      "d": 140,
      "v": 127
    },
    {
      "midi": 59,
      "hit": false,
      "t": 82075,
      "d": 1195,
      "v": 127
    },
    {
      "midi": 62,
      "hit": false,
      "t": 82085,
      "d": 1120,
      "v": 127
    },
    {
      "midi": 55,
      "hit": false,
      "t": 82095,
      "d": 1080,
      "v": 127
    },
    {
      "midi": 55,
      "hit": false,
      "t": 83290,
      "d": 1130,
      "v": 127
    },
    {
      "midi": 62,
      "hit": false,
      "t": 83300,
      "d": 1125,
      "v": 127
    },
    {
      "midi": 74,
      "hit": false,
      "t": 83310,
      "d": 1000,
      "v": 127
    },
    {
      "midi": 71,
      "hit": false,
      "t": 83310,
      "d": 1100,
      "v": 127
    },
    {
      "midi": 67,
      "hit": false,
      "t": 83320,
      "d": 1050,
      "v": 127
    },
    {
      "midi": 59,
      "hit": false,
      "t": 84075,
      "d": 380,
      "v": 127
    },
    {
      "midi": 59,
      "hit": false,
      "t": 84465,
      "d": 395,
      "v": 127
    },
    {
      "midi": 71,
      "hit": false,
      "t": 84475,
      "d": 885,
      "v": 127
    },
    {
      "midi": 62,
      "hit": false,
      "t": 84485,
      "d": 290,
      "v": 127
    },
    {
      "midi": 67,
      "hit": false,
      "t": 84485,
      "d": 840,
      "v": 127
    },
    {
      "midi": 74,
      "hit": false,
      "t": 84485,
      "d": 845,
      "v": 127
    },
    {
      "midi": 55,
      "hit": false,
      "t": 84500,
      "d": 460,
      "v": 127
    },
    {
      "midi": 59,
      "hit": false,
      "t": 84885,
      "d": 100,
      "v": 127
    },
    {
      "midi": 62,
      "hit": false,
      "t": 84890,
      "d": 75,
      "v": 127
    },
    {
      "midi": 54,
      "hit": false,
      "t": 85265,
      "d": 1185,
      "v": 127
    },
    {
      "midi": 57,
      "hit": false,
      "t": 85270,
      "d": 1110,
      "v": 127
    },
    {
      "midi": 50,
      "hit": false,
      "t": 85280,
      "d": 1075,
      "v": 127
    },
    {
      "midi": 62,
      "hit": false,
      "t": 85680,
      "d": 710,
      "v": 127
    },
    {
      "midi": 66,
      "hit": false,
      "t": 86080,
      "d": 350,
      "v": 127
    },
    {
      "midi": 57,
      "hit": false,
      "t": 86470,
      "d": 1045,
      "v": 127
    },
    {
      "midi": 66,
      "hit": false,
      "t": 86470,
      "d": 1045,
      "v": 127
    },
    {
      "midi": 69,
      "hit": false,
      "t": 86485,
      "d": 955,
      "v": 127
    },
    {
      "midi": 62,
      "hit": false,
      "t": 86485,
      "d": 985,
      "v": 127
    },
    {
      "midi": 50,
      "hit": false,
      "t": 86485,
      "d": 1005,
      "v": 127
    },
    {
      "midi": 54,
      "hit": false,
      "t": 87245,
      "d": 325,
      "v": 127
    },
    {
      "midi": 66,
      "hit": false,
      "t": 87630,
      "d": 810,
      "v": 127
    },
    {
      "midi": 62,
      "hit": false,
      "t": 87640,
      "d": 765,
      "v": 127
    },
    {
      "midi": 69,
      "hit": false,
      "t": 87640,
      "d": 825,
      "v": 127
    },
    {
      "midi": 50,
      "hit": false,
      "t": 87650,
      "d": 500,
      "v": 127
    },
    {
      "midi": 57,
      "hit": false,
      "t": 87650,
      "d": 510,
      "v": 127
    },
    {
      "midi": 54,
      "hit": false,
      "t": 87660,
      "d": 510,
      "v": 127
    },
    {
      "midi": 59,
      "hit": false,
      "t": 88475,
      "d": 1115,
      "v": 127
    },
    {
      "midi": 55,
      "hit": false,
      "t": 88475,
      "d": 1180,
      "v": 127
    },
    {
      "midi": 52,
      "hit": false,
      "t": 88485,
      "d": 1060,
      "v": 127
    },
    {
      "midi": 64,
      "hit": false,
      "t": 88880,
      "d": 700,
      "v": 127
    },
    {
      "midi": 67,
      "hit": false,
      "t": 89275,
      "d": 370,
      "v": 127
    },
    {
      "midi": 59,
      "hit": false,
      "t": 89680,
      "d": 495,
      "v": 127
    },
    {
      "midi": 52,
      "hit": false,
      "t": 89680,
      "d": 1085,
      "v": 127
    },
    {
      "midi": 67,
      "hit": false,
      "t": 89690,
      "d": 1130,
      "v": 127
    },
    {
      "midi": 71,
      "hit": false,
      "t": 89700,
      "d": 1100,
      "v": 127
    },
    {
      "midi": 64,
      "hit": false,
      "t": 89700,
      "d": 1105,
      "v": 127
    },
    {
      "midi": 55,
      "hit": false,
      "t": 90065,
      "d": 775,
      "v": 127
    },
    {
      "midi": 59,
      "hit": false,
      "t": 90460,
      "d": 330,
      "v": 127
    },
    {
      "midi": 52,
      "hit": false,
      "t": 90870,
      "d": 530,
      "v": 127
    },
    {
      "midi": 59,
      "hit": false,
      "t": 90870,
      "d": 640,
      "v": 127
    },
    {
      "midi": 71,
      "hit": false,
      "t": 90880,
      "d": 620,
      "v": 127
    },
    {
      "midi": 64,
      "hit": false,
      "t": 90880,
      "d": 675,
      "v": 127
    },
    {
      "midi": 67,
      "hit": false,
      "t": 90880,
      "d": 2010,
      "v": 127
    },
    {
      "midi": 55,
      "hit": false,
      "t": 91290,
      "d": 270,
      "v": 127
    },
    {
      "midi": 55,
      "hit": false,
      "t": 91680,
      "d": 620,
      "v": 127
    },
    {
      "midi": 59,
      "hit": false,
      "t": 91690,
      "d": 295,
      "v": 127
    },
    {
      "midi": 50,
      "hit": false,
      "t": 91700,
      "d": 965,
      "v": 127
    },
    {
      "midi": 71,
      "hit": false,
      "t": 91700,
      "d": 1110,
      "v": 127
    },
    {
      "midi": 62,
      "hit": false,
      "t": 91710,
      "d": 1130,
      "v": 127
    },
    {
      "midi": 59,
      "hit": false,
      "t": 92120,
      "d": 710,
      "v": 127
    },
    {
      "midi": 55,
      "hit": false,
      "t": 92500,
      "d": 950,
      "v": 127
    },
    {
      "midi": 59,
      "hit": false,
      "t": 92910,
      "d": 270,
      "v": 127
    },
    {
      "midi": 50,
      "hit": false,
      "t": 92920,
      "d": 1105,
      "v": 127
    },
    {
      "midi": 71,
      "hit": false,
      "t": 92930,
      "d": 1085,
      "v": 127
    },
    {
      "midi": 62,
      "hit": false,
      "t": 92930,
      "d": 1110,
      "v": 127
    },
    {
      "midi": 67,
      "hit": false,
      "t": 92930,
      "d": 1135,
      "v": 127
    },
    {
      "midi": 59,
      "hit": false,
      "t": 93325,
      "d": 700,
      "v": 127
    },
    {
      "midi": 55,
      "hit": false,
      "t": 93695,
      "d": 385,
      "v": 127
    },
    {
      "midi": 59,
      "hit": false,
      "t": 94090,
      "d": 510,
      "v": 127
    },
    {
      "midi": 50,
      "hit": false,
      "t": 94100,
      "d": 500,
      "v": 127
    },
    {
      "midi": 62,
      "hit": false,
      "t": 94110,
      "d": 780,
      "v": 127
    },
    {
      "midi": 67,
      "hit": false,
      "t": 94110,
      "d": 820,
      "v": 127
    },
    {
      "midi": 71,
      "hit": false,
      "t": 94115,
      "d": 805,
      "v": 127
    },
    {
      "midi": 55,
      "hit": false,
      "t": 94490,
      "d": 125,
      "v": 127
    },
    {
      "midi": 52,
      "hit": false,
      "t": 94890,
      "d": 2340,
      "v": 127
    },
    {
      "midi": 48,
      "hit": false,
      "t": 94900,
      "d": 2260,
      "v": 127
    },
    {
      "midi": 55,
      "hit": false,
      "t": 94900,
      "d": 2310,
      "v": 127
    },
    {
      "midi": 60,
      "hit": false,
      "t": 95325,
      "d": 435,
      "v": 127
    },
    {
      "midi": 64,
      "hit": false,
      "t": 95675,
      "d": 485,
      "v": 127
    },
    {
      "midi": 67,
      "hit": false,
      "t": 96095,
      "d": 420,
      "v": 127
    },
    {
      "midi": 64,
      "hit": false,
      "t": 96465,
      "d": 400,
      "v": 127
    },
    {
      "midi": 60,
      "hit": false,
      "t": 96855,
      "d": 360,
      "v": 127
    },
    {
      "midi": 67,
      "hit": false,
      "t": 97260,
      "d": 530,
      "v": 127
    },
    {
      "midi": 64,
      "hit": false,
      "t": 97260,
      "d": 550,
      "v": 127
    },
    {
      "midi": 60,
      "hit": false,
      "t": 97270,
      "d": 515,
      "v": 127
    },
    {
      "midi": 48,
      "hit": false,
      "t": 97270,
      "d": 520,
      "v": 127
    },
    {
      "midi": 55,
      "hit": false,
      "t": 97270,
      "d": 555,
      "v": 127
    },
    {
      "midi": 52,
      "hit": false,
      "t": 97670,
      "d": 175,
      "v": 127
    },
    {
      "midi": 66,
      "hit": false,
      "t": 98060,
      "d": 2335,
      "v": 127
    },
    {
      "midi": 57,
      "hit": false,
      "t": 98070,
      "d": 540,
      "v": 127
    },
    {
      "midi": 62,
      "hit": false,
      "t": 98070,
      "d": 2315,
      "v": 127
    },
    {
      "midi": 50,
      "hit": false,
      "t": 98080,
      "d": 1280,
      "v": 127
    },
    {
      "midi": 69,
      "hit": false,
      "t": 98080,
      "d": 2250,
      "v": 127
    },
    {
      "midi": 54,
      "hit": false,
      "t": 98505,
      "d": 495,
      "v": 127
    },
    {
      "midi": 57,
      "hit": false,
      "t": 98885,
      "d": 1500,
      "v": 127
    },
    {
      "midi": 54,
      "hit": false,
      "t": 99260,
      "d": 460,
      "v": 127
    },
    {
      "midi": 50,
      "hit": false,
      "t": 99670,
      "d": 675,
      "v": 127
    },
    {
      "midi": 54,
      "hit": false,
      "t": 100075,
      "d": 375,
      "v": 127
    },
    {
      "midi": 66,
      "hit": false,
      "t": 100460,
      "d": 515,
      "v": 127
    },
    {
      "midi": 62,
      "hit": false,
      "t": 100470,
      "d": 475,
      "v": 127
    },
    {
      "midi": 57,
      "hit": false,
      "t": 100470,
      "d": 490,
      "v": 127
    },
    {
      "midi": 50,
      "hit": false,
      "t": 100480,
      "d": 455,
      "v": 127
    },
    {
      "midi": 69,
      "hit": false,
      "t": 100490,
      "d": 520,
      "v": 127
    },
    {
      "midi": 54,
      "hit": false,
      "t": 100845,
      "d": 120,
      "v": 127
    },
    {
      "midi": 62,
      "hit": false,
      "t": 101255,
      "d": 1155,
      "v": 127
    },
    {
      "midi": 59,
      "hit": false,
      "t": 101255,
      "d": 1215,
      "v": 127
    },
    {
      "midi": 55,
      "hit": false,
      "t": 101275,
      "d": 1085,
      "v": 127
    },
    {
      "midi": 67,
      "hit": false,
      "t": 101650,
      "d": 480,
      "v": 127
    },
    {
      "midi": 71,
      "hit": false,
      "t": 102090,
      "d": 1460,
      "v": 127
    },
    {
      "midi": 55,
      "hit": false,
      "t": 102460,
      "d": 1045,
      "v": 127
    },
    {
      "midi": 62,
      "hit": false,
      "t": 102470,
      "d": 540,
      "v": 127
    },
    {
      "midi": 74,
      "hit": false,
      "t": 102470,
      "d": 1035,
      "v": 127
    },
    {
      "midi": 67,
      "hit": false,
      "t": 102480,
      "d": 1060,
      "v": 127
    },
    {
      "midi": 59,
      "hit": false,
      "t": 102850,
      "d": 755,
      "v": 127
    },
    {
      "midi": 62,
      "hit": false,
      "t": 103230,
      "d": 320,
      "v": 127
    },
    {
      "midi": 55,
      "hit": false,
      "t": 103620,
      "d": 670,
      "v": 127
    },
    {
      "midi": 62,
      "hit": false,
      "t": 103620,
      "d": 690,
      "v": 127
    },
    {
      "midi": 67,
      "hit": false,
      "t": 103630,
      "d": 670,
      "v": 127
    },
    {
      "midi": 71,
      "hit": false,
      "t": 103630,
      "d": 715,
      "v": 127
    },
    {
      "midi": 74,
      "hit": false,
      "t": 103635,
      "d": 640,
      "v": 127
    },
    {
      "midi": 59,
      "hit": false,
      "t": 104020,
      "d": 375,
      "v": 127
    },
    {
      "midi": 62,
      "hit": false,
      "t": 104425,
      "d": 490,
      "v": 127
    },
    {
      "midi": 55,
      "hit": false,
      "t": 104425,
      "d": 895,
      "v": 127
    },
    {
      "midi": 74,
      "hit": false,
      "t": 104425,
      "d": 1090,
      "v": 127
    },
    {
      "midi": 67,
      "hit": false,
      "t": 104435,
      "d": 1080,
      "v": 127
    },
    {
      "midi": 71,
      "hit": false,
      "t": 104435,
      "d": 1110,
      "v": 127
    },
    {
      "midi": 59,
      "hit": false,
      "t": 104835,
      "d": 500,
      "v": 127
    },
    {
      "midi": 62,
      "hit": false,
      "t": 105195,
      "d": 115,
      "v": 127
    },
    {
      "midi": 54,
      "hit": false,
      "t": 106055,
      "d": 735,
      "v": 127
    },
    {
      "midi": 51,
      "hit": false,
      "t": 106055,
      "d": 750,
      "v": 127
    },
    {
      "midi": 47,
      "hit": false,
      "t": 106065,
      "d": 700,
      "v": 127
    },
    {
      "midi": 59,
      "hit": false,
      "t": 106415,
      "d": 385,
      "v": 127
    },
    {
      "midi": 59,
      "hit": false,
      "t": 106825,
      "d": 795,
      "v": 127
    },
    {
      "midi": 63,
      "hit": false,
      "t": 106830,
      "d": 830,
      "v": 127
    },
    {
      "midi": 51,
      "hit": false,
      "t": 106840,
      "d": 320,
      "v": 127
    },
    {
      "midi": 54,
      "hit": false,
      "t": 106840,
      "d": 525,
      "v": 127
    },
    {
      "midi": 66,
      "hit": false,
      "t": 106840,
      "d": 850,
      "v": 127
    },
    {
      "midi": 47,
      "hit": false,
      "t": 106855,
      "d": 495,
      "v": 127
    },
    {
      "midi": 51,
      "hit": false,
      "t": 107235,
      "d": 125,
      "v": 127
    },
    {
      "midi": 55,
      "hit": false,
      "t": 107630,
      "d": 730,
      "v": 127
    },
    {
      "midi": 52,
      "hit": false,
      "t": 107630,
      "d": 775,
      "v": 127
    },
    {
      "midi": 48,
      "hit": false,
      "t": 107650,
      "d": 650,
      "v": 127
    },
    {
      "midi": 60,
      "hit": false,
      "t": 108060,
      "d": 320,
      "v": 127
    },
    {
      "midi": 48,
      "hit": false,
      "t": 108430,
      "d": 1280,
      "v": 127
    },
    {
      "midi": 55,
      "hit": false,
      "t": 108440,
      "d": 475,
      "v": 127
    },
    {
      "midi": 67,
      "hit": false,
      "t": 108440,
      "d": 1490,
      "v": 127
    },
    {
      "midi": 60,
      "hit": false,
      "t": 108440,
      "d": 1515,
      "v": 127
    },
    {
      "midi": 64,
      "hit": false,
      "t": 108440,
      "d": 1530,
      "v": 127
    },
    {
      "midi": 52,
      "hit": false,
      "t": 108830,
      "d": 465,
      "v": 127
    },
    {
      "midi": 55,
      "hit": false,
      "t": 109225,
      "d": 715,
      "v": 127
    },
    {
      "midi": 52,
      "hit": false,
      "t": 109630,
      "d": 410,
      "v": 127
    },
    {
      "midi": 55,
      "hit": false,
      "t": 110025,
      "d": 550,
      "v": 127
    },
    {
      "midi": 60,
      "hit": false,
      "t": 110035,
      "d": 495,
      "v": 127
    },
    {
      "midi": 48,
      "hit": false,
      "t": 110035,
      "d": 515,
      "v": 127
    },
    {
      "midi": 64,
      "hit": false,
      "t": 110040,
      "d": 515,
      "v": 127
    },
    {
      "midi": 67,
      "hit": false,
      "t": 110040,
      "d": 535,
      "v": 127
    },
    {
      "midi": 52,
      "hit": false,
      "t": 110435,
      "d": 180,
      "v": 127
    },
    {
      "midi": 66,
      "hit": false,
      "t": 110800,
      "d": 545,
      "v": 127
    },
    {
      "midi": 69,
      "hit": false,
      "t": 110810,
      "d": 510,
      "v": 127
    },
    {
      "midi": 62,
      "hit": false,
      "t": 110810,
      "d": 535,
      "v": 127
    },
    {
      "midi": 57,
      "hit": false,
      "t": 110840,
      "d": 1050,
      "v": 127
    },
    {
      "midi": 50,
      "hit": false,
      "t": 110840,
      "d": 1470,
      "v": 127
    },
    {
      "midi": 54,
      "hit": false,
      "t": 111220,
      "d": 835,
      "v": 127
    },
    {
      "midi": 62,
      "hit": false,
      "t": 111630,
      "d": 1540,
      "v": 127
    },
    {
      "midi": 66,
      "hit": false,
      "t": 111630,
      "d": 1540,
      "v": 127
    },
    {
      "midi": 69,
      "hit": false,
      "t": 111640,
      "d": 1485,
      "v": 127
    },
    {
      "midi": 57,
      "hit": false,
      "t": 112030,
      "d": 1110,
      "v": 127
    },
    {
      "midi": 54,
      "hit": false,
      "t": 112220,
      "d": 265,
      "v": 127
    },
    {
      "midi": 50,
      "hit": false,
      "t": 112460,
      "d": 685,
      "v": 127
    },
    {
      "midi": 54,
      "hit": false,
      "t": 112850,
      "d": 370,
      "v": 127
    },
    {
      "midi": 66,
      "hit": false,
      "t": 113230,
      "d": 580,
      "v": 127
    },
    {
      "midi": 62,
      "hit": false,
      "t": 113240,
      "d": 530,
      "v": 127
    },
    {
      "midi": 57,
      "hit": false,
      "t": 113240,
      "d": 550,
      "v": 127
    },
    {
      "midi": 50,
      "hit": false,
      "t": 113250,
      "d": 485,
      "v": 127
    },
    {
      "midi": 69,
      "hit": false,
      "t": 113250,
      "d": 535,
      "v": 127
    },
    {
      "midi": 54,
      "hit": false,
      "t": 113590,
      "d": 235,
      "v": 127
    },
    {
      "midi": 67,
      "hit": false,
      "t": 113980,
      "d": 750,
      "v": 127
    },
    {
      "midi": 59,
      "hit": false,
      "t": 113990,
      "d": 705,
      "v": 127
    },
    {
      "midi": 64,
      "hit": false,
      "t": 113990,
      "d": 715,
      "v": 127
    },
    {
      "midi": 71,
      "hit": false,
      "t": 114000,
      "d": 680,
      "v": 127
    },
    {
      "midi": 52,
      "hit": false,
      "t": 114000,
      "d": 690,
      "v": 127
    },
    {
      "midi": 55,
      "hit": false,
      "t": 114425,
      "d": 340,
      "v": 127
    },
    {
      "midi": 52,
      "hit": false,
      "t": 114830,
      "d": 530,
      "v": 127
    },
    {
      "midi": 67,
      "hit": false,
      "t": 114830,
      "d": 585,
      "v": 127
    },
    {
      "midi": 59,
      "hit": false,
      "t": 114830,
      "d": 590,
      "v": 127
    },
    {
      "midi": 64,
      "hit": false,
      "t": 114835,
      "d": 555,
      "v": 127
    },
    {
      "midi": 71,
      "hit": false,
      "t": 114840,
      "d": 550,
      "v": 127
    },
    {
      "midi": 55,
      "hit": false,
      "t": 115250,
      "d": 195,
      "v": 127
    },
    {
      "midi": 66,
      "hit": false,
      "t": 115665,
      "d": 710,
      "v": 127
    },
    {
      "midi": 57,
      "hit": false,
      "t": 115670,
      "d": 325,
      "v": 127
    },
    {
      "midi": 62,
      "hit": false,
      "t": 115670,
      "d": 670,
      "v": 127
    },
    {
      "midi": 69,
      "hit": false,
      "t": 115680,
      "d": 665,
      "v": 127
    },
    {
      "midi": 54,
      "hit": false,
      "t": 115680,
      "d": 735,
      "v": 127
    },
    {
      "midi": 50,
      "hit": false,
      "t": 115695,
      "d": 610,
      "v": 127
    },
    {
      "midi": 57,
      "hit": false,
      "t": 116085,
      "d": 255,
      "v": 127
    },
    {
      "midi": 57,
      "hit": false,
      "t": 116455,
      "d": 580,
      "v": 127
    },
    {
      "midi": 50,
      "hit": false,
      "t": 116460,
      "d": 530,
      "v": 127
    },
    {
      "midi": 66,
      "hit": false,
      "t": 116465,
      "d": 605,
      "v": 127
    },
    {
      "midi": 62,
      "hit": false,
      "t": 116475,
      "d": 560,
      "v": 127
    },
    {
      "midi": 69,
      "hit": false,
      "t": 116475,
      "d": 570,
      "v": 127
    },
    {
      "midi": 54,
      "hit": false,
      "t": 116840,
      "d": 230,
      "v": 127
    },
    {
      "midi": 67,
      "hit": false,
      "t": 117240,
      "d": 725,
      "v": 127
    },
    {
      "midi": 59,
      "hit": false,
      "t": 117250,
      "d": 670,
      "v": 127
    },
    {
      "midi": 64,
      "hit": false,
      "t": 117250,
      "d": 685,
      "v": 127
    },
    {
      "midi": 71,
      "hit": false,
      "t": 117250,
      "d": 710,
      "v": 127
    },
    {
      "midi": 52,
      "hit": false,
      "t": 117260,
      "d": 635,
      "v": 127
    },
    {
      "midi": 55,
      "hit": false,
      "t": 117650,
      "d": 300,
      "v": 127
    },
    {
      "midi": 59,
      "hit": false,
      "t": 118035,
      "d": 485,
      "v": 127
    },
    {
      "midi": 52,
      "hit": false,
      "t": 118035,
      "d": 515,
      "v": 127
    },
    {
      "midi": 67,
      "hit": false,
      "t": 118045,
      "d": 425,
      "v": 127
    },
    {
      "midi": 64,
      "hit": false,
      "t": 118055,
      "d": 375,
      "v": 127
    },
    {
      "midi": 71,
      "hit": false,
      "t": 118060,
      "d": 370,
      "v": 127
    },
    {
      "midi": 55,
      "hit": false,
      "t": 118405,
      "d": 150,
      "v": 127
    },
    {
      "midi": 51,
      "hit": false,
      "t": 118795,
      "d": 655,
      "v": 127
    },
    {
      "midi": 54,
      "hit": false,
      "t": 118815,
      "d": 630,
      "v": 127
    },
    {
      "midi": 63,
      "hit": false,
      "t": 118815,
      "d": 640,
      "v": 127
    },
    {
      "midi": 66,
      "hit": false,
      "t": 118835,
      "d": 575,
      "v": 127
    },
    {
      "midi": 47,
      "hit": false,
      "t": 118835,
      "d": 585,
      "v": 127
    },
    {
      "midi": 59,
      "hit": false,
      "t": 118845,
      "d": 610,
      "v": 127
    },
    {
      "midi": 59,
      "hit": false,
      "t": 119555,
      "d": 525,
      "v": 127
    },
    {
      "midi": 63,
      "hit": false,
      "t": 119555,
      "d": 550,
      "v": 127
    },
    {
      "midi": 54,
      "hit": false,
      "t": 119555,
      "d": 560,
      "v": 127
    },
    {
      "midi": 51,
      "hit": false,
      "t": 119555,
      "d": 575,
      "v": 127
    },
    {
      "midi": 47,
      "hit": false,
      "t": 119560,
      "d": 520,
      "v": 127
    },
    {
      "midi": 66,
      "hit": false,
      "t": 119565,
      "d": 510,
      "v": 127
    },
    {
      "midi": 55,
      "hit": false,
      "t": 120375,
      "d": 355,
      "v": 127
    },
    {
      "midi": 64,
      "hit": false,
      "t": 120380,
      "d": 615,
      "v": 127
    },
    {
      "midi": 60,
      "hit": false,
      "t": 120385,
      "d": 585,
      "v": 127
    },
    {
      "midi": 52,
      "hit": false,
      "t": 120385,
      "d": 1295,
      "v": 127
    },
    {
      "midi": 48,
      "hit": false,
      "t": 120395,
      "d": 1490,
      "v": 127
    },
    {
      "midi": 67,
      "hit": false,
      "t": 120400,
      "d": 580,
      "v": 127
    },
    {
      "midi": 55,
      "hit": false,
      "t": 120845,
      "d": 650,
      "v": 127
    },
    {
      "midi": 64,
      "hit": false,
      "t": 121255,
      "d": 1495,
      "v": 127
    },
    {
      "midi": 67,
      "hit": false,
      "t": 121265,
      "d": 1465,
      "v": 127
    },
    {
      "midi": 60,
      "hit": false,
      "t": 121265,
      "d": 1485,
      "v": 127
    },
    {
      "midi": 55,
      "hit": false,
      "t": 121630,
      "d": 1130,
      "v": 127
    },
    {
      "midi": 52,
      "hit": false,
      "t": 121830,
      "d": 285,
      "v": 127
    },
    {
      "midi": 48,
      "hit": false,
      "t": 122040,
      "d": 700,
      "v": 127
    },
    {
      "midi": 52,
      "hit": false,
      "t": 122435,
      "d": 360,
      "v": 127
    },
    {
      "midi": 55,
      "hit": false,
      "t": 122860,
      "d": 515,
      "v": 127
    },
    {
      "midi": 64,
      "hit": false,
      "t": 122860,
      "d": 550,
      "v": 127
    },
    {
      "midi": 48,
      "hit": false,
      "t": 122870,
      "d": 480,
      "v": 127
    },
    {
      "midi": 60,
      "hit": false,
      "t": 122870,
      "d": 520,
      "v": 127
    },
    {
      "midi": 67,
      "hit": false,
      "t": 122870,
      "d": 540,
      "v": 127
    },
    {
      "midi": 52,
      "hit": false,
      "t": 123250,
      "d": 135,
      "v": 127
    },
    {
      "midi": 66,
      "hit": false,
      "t": 123620,
      "d": 580,
      "v": 127
    },
    {
      "midi": 54,
      "hit": false,
      "t": 123630,
      "d": 1085,
      "v": 127
    },
    {
      "midi": 62,
      "hit": false,
      "t": 123640,
      "d": 545,
      "v": 127
    },
    {
      "midi": 69,
      "hit": false,
      "t": 123640,
      "d": 545,
      "v": 127
    },
    {
      "midi": 57,
      "hit": false,
      "t": 123650,
      "d": 300,
      "v": 127
    },
    {
      "midi": 50,
      "hit": false,
      "t": 123665,
      "d": 2155,
      "v": 127
    },
    {
      "midi": 57,
      "hit": false,
      "t": 124045,
      "d": 1125,
      "v": 127
    },
    {
      "midi": 62,
      "hit": false,
      "t": 124450,
      "d": 515,
      "v": 127
    },
    {
      "midi": 66,
      "hit": false,
      "t": 124450,
      "d": 515,
      "v": 127
    },
    {
      "midi": 69,
      "hit": false,
      "t": 124460,
      "d": 495,
      "v": 127
    },
    {
      "midi": 54,
      "hit": false,
      "t": 124865,
      "d": 515,
      "v": 127
    },
    {
      "midi": 66,
      "hit": false,
      "t": 125070,
      "d": 885,
      "v": 127
    },
    {
      "midi": 69,
      "hit": false,
      "t": 125080,
      "d": 820,
      "v": 127
    },
    {
      "midi": 62,
      "hit": false,
      "t": 125080,
      "d": 840,
      "v": 127
    },
    {
      "midi": 57,
      "hit": false,
      "t": 125275,
      "d": 645,
      "v": 127
    },
    {
      "midi": 54,
      "hit": false,
      "t": 125645,
      "d": 365,
      "v": 127
    },
    {
      "midi": 57,
      "hit": false,
      "t": 126030,
      "d": 480,
      "v": 127
    },
    {
      "midi": 50,
      "hit": false,
      "t": 126040,
      "d": 440,
      "v": 127
    },
    {
      "midi": 66,
      "hit": false,
      "t": 126040,
      "d": 520,
      "v": 127
    },
    {
      "midi": 62,
      "hit": false,
      "t": 126050,
      "d": 470,
      "v": 127
    },
    {
      "midi": 69,
      "hit": false,
      "t": 126050,
      "d": 545,
      "v": 127
    },
    {
      "midi": 54,
      "hit": false,
      "t": 126395,
      "d": 135,
      "v": 127
    },
    {
      "midi": 59,
      "hit": false,
      "t": 126785,
      "d": 795,
      "v": 127
    },
    {
      "midi": 62,
      "hit": false,
      "t": 126790,
      "d": 750,
      "v": 127
    },
    {
      "midi": 55,
      "hit": false,
      "t": 126805,
      "d": 720,
      "v": 127
    },
    {
      "midi": 67,
      "hit": false,
      "t": 127215,
      "d": 345,
      "v": 127
    },
    {
      "midi": 71,
      "hit": false,
      "t": 127610,
      "d": 465,
      "v": 127
    },
    {
      "midi": 74,
      "hit": false,
      "t": 127620,
      "d": 425,
      "v": 127
    },
    {
      "midi": 67,
      "hit": false,
      "t": 127620,
      "d": 445,
      "v": 127
    },
    {
      "midi": 62,
      "hit": false,
      "t": 127620,
      "d": 520,
      "v": 127
    },
    {
      "midi": 55,
      "hit": false,
      "t": 127620,
      "d": 535,
      "v": 127
    },
    {
      "midi": 59,
      "hit": false,
      "t": 128035,
      "d": 130,
      "v": 127
    },
    {
      "midi": 66,
      "hit": false,
      "t": 128420,
      "d": 555,
      "v": 127
    },
    {
      "midi": 62,
      "hit": false,
      "t": 128435,
      "d": 525,
      "v": 127
    },
    {
      "midi": 50,
      "hit": false,
      "t": 128445,
      "d": 610,
      "v": 127
    },
    {
      "midi": 69,
      "hit": false,
      "t": 128450,
      "d": 485,
      "v": 127
    },
    {
      "midi": 57,
      "hit": false,
      "t": 128450,
      "d": 660,
      "v": 127
    },
    {
      "midi": 54,
      "hit": false,
      "t": 128830,
      "d": 340,
      "v": 127
    },
    {
      "midi": 57,
      "hit": false,
      "t": 129240,
      "d": 550,
      "v": 127
    },
    {
      "midi": 50,
      "hit": false,
      "t": 129260,
      "d": 485,
      "v": 127
    },
    {
      "midi": 66,
      "hit": false,
      "t": 129260,
      "d": 530,
      "v": 127
    },
    {
      "midi": 62,
      "hit": false,
      "t": 129280,
      "d": 460,
      "v": 127
    },
    {
      "midi": 69,
      "hit": false,
      "t": 129280,
      "d": 500,
      "v": 127
    },
    {
      "midi": 54,
      "hit": false,
      "t": 129620,
      "d": 220,
      "v": 127
    },
    {
      "midi": 67,
      "hit": false,
      "t": 130025,
      "d": 560,
      "v": 127
    },
    {
      "midi": 59,
      "hit": false,
      "t": 130025,
      "d": 1040,
      "v": 127
    },
    {
      "midi": 62,
      "hit": false,
      "t": 130030,
      "d": 205,
      "v": 127
    },
    {
      "midi": 52,
      "hit": false,
      "t": 130030,
      "d": 1690,
      "v": 127
    },
    {
      "midi": 64,
      "hit": false,
      "t": 130035,
      "d": 525,
      "v": 127
    },
    {
      "midi": 71,
      "hit": false,
      "t": 130035,
      "d": 530,
      "v": 127
    },
    {
      "midi": 55,
      "hit": false,
      "t": 130440,
      "d": 1065,
      "v": 127
    },
    {
      "midi": 64,
      "hit": false,
      "t": 130850,
      "d": 420,
      "v": 127
    },
    {
      "midi": 67,
      "hit": false,
      "t": 130850,
      "d": 440,
      "v": 127
    },
    {
      "midi": 71,
      "hit": false,
      "t": 130855,
      "d": 435,
      "v": 127
    },
    {
      "midi": 59,
      "hit": false,
      "t": 131210,
      "d": 1125,
      "v": 127
    },
    {
      "midi": 67,
      "hit": false,
      "t": 131425,
      "d": 245,
      "v": 127
    },
    {
      "midi": 64,
      "hit": false,
      "t": 131425,
      "d": 255,
      "v": 127
    },
    {
      "midi": 71,
      "hit": false,
      "t": 131425,
      "d": 255,
      "v": 127
    },
    {
      "midi": 55,
      "hit": false,
      "t": 131620,
      "d": 755,
      "v": 127
    },
    {
      "midi": 71,
      "hit": false,
      "t": 131820,
      "d": 430,
      "v": 127
    },
    {
      "midi": 64,
      "hit": false,
      "t": 131820,
      "d": 460,
      "v": 127
    },
    {
      "midi": 67,
      "hit": false,
      "t": 131820,
      "d": 480,
      "v": 127
    },
    {
      "midi": 52,
      "hit": false,
      "t": 132015,
      "d": 305,
      "v": 127
    },
    {
      "midi": 71,
      "hit": false,
      "t": 132420,
      "d": 430,
      "v": 127
    },
    {
      "midi": 67,
      "hit": false,
      "t": 132420,
      "d": 440,
      "v": 127
    },
    {
      "midi": 52,
      "hit": false,
      "t": 132425,
      "d": 490,
      "v": 127
    },
    {
      "midi": 64,
      "hit": false,
      "t": 132430,
      "d": 430,
      "v": 127
    },
    {
      "midi": 59,
      "hit": false,
      "t": 132430,
      "d": 490,
      "v": 127
    },
    {
      "midi": 55,
      "hit": false,
      "t": 132790,
      "d": 145,
      "v": 127
    },
    {
      "midi": 60,
      "hit": false,
      "t": 133180,
      "d": 650,
      "v": 127
    },
    {
      "midi": 64,
      "hit": false,
      "t": 133180,
      "d": 650,
      "v": 127
    },
    {
      "midi": 67,
      "hit": false,
      "t": 133190,
      "d": 610,
      "v": 127
    },
    {
      "midi": 52,
      "hit": false,
      "t": 133190,
      "d": 725,
      "v": 127
    },
    {
      "midi": 57,
      "hit": false,
      "t": 133200,
      "d": 175,
      "v": 127
    },
    {
      "midi": 55,
      "hit": false,
      "t": 133200,
      "d": 670,
      "v": 127
    },
    {
      "midi": 48,
      "hit": false,
      "t": 133215,
      "d": 655,
      "v": 127
    },
    {
      "midi": 55,
      "hit": false,
      "t": 133980,
      "d": 705,
      "v": 127
    },
    {
      "midi": 67,
      "hit": false,
      "t": 133990,
      "d": 420,
      "v": 127
    },
    {
      "midi": 60,
      "hit": false,
      "t": 133990,
      "d": 435,
      "v": 127
    },
    {
      "midi": 64,
      "hit": false,
      "t": 133990,
      "d": 435,
      "v": 127
    },
    {
      "midi": 48,
      "hit": false,
      "t": 133990,
      "d": 660,
      "v": 127
    },
    {
      "midi": 52,
      "hit": false,
      "t": 134350,
      "d": 370,
      "v": 127
    },
    {
      "midi": 67,
      "hit": false,
      "t": 134565,
      "d": 885,
      "v": 127
    },
    {
      "midi": 60,
      "hit": false,
      "t": 134565,
      "d": 915,
      "v": 127
    },
    {
      "midi": 64,
      "hit": false,
      "t": 134565,
      "d": 940,
      "v": 127
    },
    {
      "midi": 52,
      "hit": false,
      "t": 134800,
      "d": 325,
      "v": 127
    },
    {
      "midi": 55,
      "hit": false,
      "t": 134810,
      "d": 300,
      "v": 127
    },
    {
      "midi": 48,
      "hit": false,
      "t": 134820,
      "d": 290,
      "v": 127
    },
    {
      "midi": 52,
      "hit": false,
      "t": 135210,
      "d": 335,
      "v": 127
    },
    {
      "midi": 48,
      "hit": false,
      "t": 135215,
      "d": 280,
      "v": 127
    },
    {
      "midi": 55,
      "hit": false,
      "t": 135215,
      "d": 295,
      "v": 127
    },
    {
      "midi": 48,
      "hit": false,
      "t": 135620,
      "d": 505,
      "v": 127
    },
    {
      "midi": 60,
      "hit": false,
      "t": 135620,
      "d": 510,
      "v": 127
    },
    {
      "midi": 55,
      "hit": false,
      "t": 135620,
      "d": 525,
      "v": 127
    },
    {
      "midi": 64,
      "hit": false,
      "t": 135620,
      "d": 530,
      "v": 127
    },
    {
      "midi": 67,
      "hit": false,
      "t": 135630,
      "d": 520,
      "v": 127
    },
    {
      "midi": 52,
      "hit": false,
      "t": 136010,
      "d": 160,
      "v": 127
    },
    {
      "midi": 66,
      "hit": false,
      "t": 136395,
      "d": 730,
      "v": 127
    },
    {
      "midi": 54,
      "hit": false,
      "t": 136395,
      "d": 765,
      "v": 127
    },
    {
      "midi": 62,
      "hit": false,
      "t": 136405,
      "d": 695,
      "v": 127
    },
    {
      "midi": 57,
      "hit": false,
      "t": 136405,
      "d": 705,
      "v": 127
    },
    {
      "midi": 50,
      "hit": false,
      "t": 136420,
      "d": 655,
      "v": 127
    },
    {
      "midi": 69,
      "hit": false,
      "t": 136420,
      "d": 655,
      "v": 127
    },
    {
      "midi": 62,
      "hit": false,
      "t": 137225,
      "d": 505,
      "v": 127
    },
    {
      "midi": 66,
      "hit": false,
      "t": 137225,
      "d": 530,
      "v": 127
    },
    {
      "midi": 50,
      "hit": false,
      "t": 137230,
      "d": 690,
      "v": 127
    },
    {
      "midi": 57,
      "hit": false,
      "t": 137230,
      "d": 700,
      "v": 127
    },
    {
      "midi": 69,
      "hit": false,
      "t": 137235,
      "d": 480,
      "v": 127
    },
    {
      "midi": 54,
      "hit": false,
      "t": 137615,
      "d": 350,
      "v": 127
    },
    {
      "midi": 62,
      "hit": false,
      "t": 138030,
      "d": 340,
      "v": 127
    },
    {
      "midi": 66,
      "hit": false,
      "t": 138030,
      "d": 375,
      "v": 127
    },
    {
      "midi": 54,
      "hit": false,
      "t": 138040,
      "d": 690,
      "v": 127
    },
    {
      "midi": 69,
      "hit": false,
      "t": 138045,
      "d": 320,
      "v": 127
    },
    {
      "midi": 57,
      "hit": false,
      "t": 138045,
      "d": 615,
      "v": 127
    },
    {
      "midi": 50,
      "hit": false,
      "t": 138070,
      "d": 570,
      "v": 127
    },
    {
      "midi": 66,
      "hit": false,
      "t": 138615,
      "d": 370,
      "v": 127
    },
    {
      "midi": 62,
      "hit": false,
      "t": 138630,
      "d": 330,
      "v": 127
    },
    {
      "midi": 69,
      "hit": false,
      "t": 138630,
      "d": 330,
      "v": 127
    },
    {
      "midi": 54,
      "hit": false,
      "t": 138835,
      "d": 630,
      "v": 127
    },
    {
      "midi": 57,
      "hit": false,
      "t": 138845,
      "d": 605,
      "v": 127
    },
    {
      "midi": 50,
      "hit": false,
      "t": 138855,
      "d": 565,
      "v": 127
    },
    {
      "midi": 66,
      "hit": false,
      "t": 139230,
      "d": 150,
      "v": 127
    },
    {
      "midi": 62,
      "hit": false,
      "t": 139240,
      "d": 140,
      "v": 127
    },
    {
      "midi": 69,
      "hit": false,
      "t": 139250,
      "d": 140,
      "v": 127
    },
    {
      "midi": 64,
      "hit": false,
      "t": 139625,
      "d": 590,
      "v": 127
    },
    {
      "midi": 67,
      "hit": false,
      "t": 139625,
      "d": 595,
      "v": 127
    },
    {
      "midi": 71,
      "hit": false,
      "t": 139630,
      "d": 575,
      "v": 127
    },
    {
      "midi": 59,
      "hit": false,
      "t": 139645,
      "d": 650,
      "v": 127
    },
    {
      "midi": 55,
      "hit": false,
      "t": 139645,
      "d": 675,
      "v": 127
    },
    {
      "midi": 52,
      "hit": false,
      "t": 139670,
      "d": 610,
      "v": 127
    },
    {
      "midi": 64,
      "hit": false,
      "t": 140420,
      "d": 340,
      "v": 127
    },
    {
      "midi": 67,
      "hit": false,
      "t": 140420,
      "d": 365,
      "v": 127
    },
    {
      "midi": 71,
      "hit": false,
      "t": 140430,
      "d": 330,
      "v": 127
    },
    {
      "midi": 59,
      "hit": false,
      "t": 140450,
      "d": 640,
      "v": 127
    },
    {
      "midi": 55,
      "hit": false,
      "t": 140450,
      "d": 655,
      "v": 127
    },
    {
      "midi": 52,
      "hit": false,
      "t": 140460,
      "d": 610,
      "v": 127
    },
    {
      "midi": 67,
      "hit": false,
      "t": 141040,
      "d": 890,
      "v": 127
    },
    {
      "midi": 71,
      "hit": false,
      "t": 141050,
      "d": 830,
      "v": 127
    },
    {
      "midi": 64,
      "hit": false,
      "t": 141050,
      "d": 860,
      "v": 127
    },
    {
      "midi": 55,
      "hit": false,
      "t": 141210,
      "d": 235,
      "v": 127
    },
    {
      "midi": 59,
      "hit": false,
      "t": 141210,
      "d": 235,
      "v": 127
    },
    {
      "midi": 52,
      "hit": false,
      "t": 141220,
      "d": 180,
      "v": 127
    },
    {
      "midi": 59,
      "hit": false,
      "t": 141640,
      "d": 295,
      "v": 127
    },
    {
      "midi": 55,
      "hit": false,
      "t": 141640,
      "d": 300,
      "v": 127
    },
    {
      "midi": 52,
      "hit": false,
      "t": 141645,
      "d": 275,
      "v": 127
    },
    {
      "midi": 59,
      "hit": false,
      "t": 142040,
      "d": 265,
      "v": 127
    },
    {
      "midi": 71,
      "hit": false,
      "t": 142040,
      "d": 580,
      "v": 127
    },
    {
      "midi": 64,
      "hit": false,
      "t": 142040,
      "d": 600,
      "v": 127
    },
    {
      "midi": 67,
      "hit": false,
      "t": 142040,
      "d": 630,
      "v": 127
    },
    {
      "midi": 52,
      "hit": false,
      "t": 142050,
      "d": 225,
      "v": 127
    },
    {
      "midi": 55,
      "hit": false,
      "t": 142050,
      "d": 240,
      "v": 127
    },
    {
      "midi": 59,
      "hit": false,
      "t": 142410,
      "d": 230,
      "v": 127
    },
    {
      "midi": 52,
      "hit": false,
      "t": 142420,
      "d": 170,
      "v": 127
    },
    {
      "midi": 55,
      "hit": false,
      "t": 142420,
      "d": 210,
      "v": 127
    },
    {
      "midi": 59,
      "hit": false,
      "t": 142785,
      "d": 655,
      "v": 127
    },
    {
      "midi": 55,
      "hit": false,
      "t": 142790,
      "d": 635,
      "v": 127
    },
    {
      "midi": 67,
      "hit": false,
      "t": 142790,
      "d": 650,
      "v": 127
    },
    {
      "midi": 50,
      "hit": false,
      "t": 142800,
      "d": 640,
      "v": 127
    },
    {
      "midi": 71,
      "hit": false,
      "t": 142800,
      "d": 650,
      "v": 127
    },
    {
      "midi": 62,
      "hit": false,
      "t": 142815,
      "d": 635,
      "v": 127
    },
    {
      "midi": 62,
      "hit": false,
      "t": 143620,
      "d": 460,
      "v": 127
    },
    {
      "midi": 71,
      "hit": false,
      "t": 143630,
      "d": 410,
      "v": 127
    },
    {
      "midi": 67,
      "hit": false,
      "t": 143630,
      "d": 450,
      "v": 127
    },
    {
      "midi": 50,
      "hit": false,
      "t": 143630,
      "d": 645,
      "v": 127
    },
    {
      "midi": 55,
      "hit": false,
      "t": 143640,
      "d": 635,
      "v": 127
    },
    {
      "midi": 59,
      "hit": false,
      "t": 143640,
      "d": 635,
      "v": 127
    },
    {
      "midi": 62,
      "hit": false,
      "t": 144240,
      "d": 805,
      "v": 127
    },
    {
      "midi": 67,
      "hit": false,
      "t": 144240,
      "d": 825,
      "v": 127
    },
    {
      "midi": 71,
      "hit": false,
      "t": 144250,
      "d": 790,
      "v": 127
    },
    {
      "midi": 50,
      "hit": false,
      "t": 144400,
      "d": 250,
      "v": 127
    },
    {
      "midi": 55,
      "hit": false,
      "t": 144410,
      "d": 220,
      "v": 127
    },
    {
      "midi": 59,
      "hit": false,
      "t": 144410,
      "d": 235,
      "v": 127
    },
    {
      "midi": 50,
      "hit": false,
      "t": 144790,
      "d": 255,
      "v": 127
    },
    {
      "midi": 59,
      "hit": false,
      "t": 144790,
      "d": 255,
      "v": 127
    },
    {
      "midi": 55,
      "hit": false,
      "t": 144800,
      "d": 255,
      "v": 127
    },
    {
      "midi": 62,
      "hit": false,
      "t": 145185,
      "d": 495,
      "v": 127
    },
    {
      "midi": 50,
      "hit": false,
      "t": 145195,
      "d": 465,
      "v": 127
    },
    {
      "midi": 55,
      "hit": false,
      "t": 145195,
      "d": 480,
      "v": 127
    },
    {
      "midi": 59,
      "hit": false,
      "t": 145195,
      "d": 490,
      "v": 127
    },
    {
      "midi": 67,
      "hit": false,
      "t": 145195,
      "d": 565,
      "v": 127
    },
    {
      "midi": 71,
      "hit": false,
      "t": 145200,
      "d": 600,
      "v": 127
    },
    {
      "midi": 64,
      "hit": false,
      "t": 146005,
      "d": 715,
      "v": 127
    },
    {
      "midi": 60,
      "hit": false,
      "t": 146005,
      "d": 745,
      "v": 127
    },
    {
      "midi": 57,
      "hit": false,
      "t": 146025,
      "d": 655,
      "v": 127
    },
    {
      "midi": 64,
      "hit": false,
      "t": 146810,
      "d": 685,
      "v": 127
    },
    {
      "midi": 72,
      "hit": false,
      "t": 146820,
      "d": 460,
      "v": 127
    },
    {
      "midi": 57,
      "hit": false,
      "t": 146820,
      "d": 640,
      "v": 127
    },
    {
      "midi": 60,
      "hit": false,
      "t": 146830,
      "d": 665,
      "v": 127
    },
    {
      "midi": 76,
      "hit": false,
      "t": 146835,
      "d": 415,
      "v": 127
    },
    {
      "midi": 69,
      "hit": false,
      "t": 146845,
      "d": 420,
      "v": 127
    },
    {
      "midi": 69,
      "hit": false,
      "t": 147430,
      "d": 245,
      "v": 127
    },
    {
      "midi": 76,
      "hit": false,
      "t": 147430,
      "d": 245,
      "v": 127
    },
    {
      "midi": 72,
      "hit": false,
      "t": 147430,
      "d": 255,
      "v": 127
    },
    {
      "midi": 60,
      "hit": false,
      "t": 147585,
      "d": 305,
      "v": 127
    },
    {
      "midi": 57,
      "hit": false,
      "t": 147590,
      "d": 290,
      "v": 127
    },
    {
      "midi": 64,
      "hit": false,
      "t": 147590,
      "d": 310,
      "v": 127
    },
    {
      "midi": 69,
      "hit": false,
      "t": 147790,
      "d": 490,
      "v": 127
    },
    {
      "midi": 76,
      "hit": false,
      "t": 147790,
      "d": 490,
      "v": 127
    },
    {
      "midi": 72,
      "hit": false,
      "t": 147790,
      "d": 515,
      "v": 127
    },
    {
      "midi": 64,
      "hit": false,
      "t": 147985,
      "d": 330,
      "v": 127
    },
    {
      "midi": 57,
      "hit": false,
      "t": 147990,
      "d": 305,
      "v": 127
    },
    {
      "midi": 60,
      "hit": false,
      "t": 147990,
      "d": 345,
      "v": 127
    },
    {
      "midi": 64,
      "hit": false,
      "t": 148410,
      "d": 390,
      "v": 127
    },
    {
      "midi": 69,
      "hit": false,
      "t": 148410,
      "d": 405,
      "v": 127
    },
    {
      "midi": 72,
      "hit": false,
      "t": 148410,
      "d": 405,
      "v": 127
    },
    {
      "midi": 76,
      "hit": false,
      "t": 148415,
      "d": 355,
      "v": 127
    },
    {
      "midi": 60,
      "hit": false,
      "t": 148420,
      "d": 395,
      "v": 127
    },
    {
      "midi": 57,
      "hit": false,
      "t": 148420,
      "d": 405,
      "v": 127
    },
    {
      "midi": 57,
      "hit": false,
      "t": 149195,
      "d": 5465,
      "v": 127
    },
    {
      "midi": 50,
      "hit": false,
      "t": 149195,
      "d": 5485,
      "v": 127
    },
    {
      "midi": 66,
      "hit": false,
      "t": 149200,
      "d": 775,
      "v": 127
    },
    {
      "midi": 54,
      "hit": false,
      "t": 149205,
      "d": 5480,
      "v": 127
    },
    {
      "midi": 69,
      "hit": false,
      "t": 149220,
      "d": 615,
      "v": 127
    },
    {
      "midi": 62,
      "hit": false,
      "t": 149220,
      "d": 660,
      "v": 127
    },
    {
      "midi": 62,
      "hit": false,
      "t": 150000,
      "d": 280,
      "v": 127
    },
    {
      "midi": 66,
      "hit": false,
      "t": 150190,
      "d": 220,
      "v": 127
    },
    {
      "midi": 69,
      "hit": false,
      "t": 150375,
      "d": 270,
      "v": 127
    },
    {
      "midi": 66,
      "hit": false,
      "t": 150565,
      "d": 230,
      "v": 127
    },
    {
      "midi": 62,
      "hit": false,
      "t": 150770,
      "d": 265,
      "v": 127
    },
    {
      "midi": 66,
      "hit": false,
      "t": 150950,
      "d": 240,
      "v": 127
    },
    {
      "midi": 69,
      "hit": false,
      "t": 151145,
      "d": 280,
      "v": 127
    },
    {
      "midi": 66,
      "hit": false,
      "t": 151330,
      "d": 230,
      "v": 127
    },
    {
      "midi": 62,
      "hit": false,
      "t": 151535,
      "d": 315,
      "v": 127
    },
    {
      "midi": 66,
      "hit": false,
      "t": 151740,
      "d": 285,
      "v": 127
    },
    {
      "midi": 62,
      "hit": false,
      "t": 151945,
      "d": 2090,
      "v": 127
    },
    {
      "midi": 74,
      "hit": false,
      "t": 152320,
      "d": 1830,
      "v": 127
    },
    {
      "midi": 60,
      "hit": false,
      "t": 155545,
      "d": 755,
      "v": 127
    },
    {
      "midi": 57,
      "hit": false,
      "t": 155545,
      "d": 795,
      "v": 127
    },
    {
      "midi": 53,
      "hit": false,
      "t": 155545,
      "d": 835,
      "v": 127
    },
    {
      "midi": 72,
      "hit": false,
      "t": 155560,
      "d": 680,
      "v": 127
    },
    {
      "midi": 65,
      "hit": false,
      "t": 155560,
      "d": 695,
      "v": 127
    },
    {
      "midi": 69,
      "hit": false,
      "t": 155560,
      "d": 710,
      "v": 127
    },
    {
      "midi": 65,
      "hit": false,
      "t": 156380,
      "d": 250,
      "v": 127
    },
    {
      "midi": 69,
      "hit": false,
      "t": 156380,
      "d": 340,
      "v": 127
    },
    {
      "midi": 72,
      "hit": false,
      "t": 156390,
      "d": 245,
      "v": 127
    },
    {
      "midi": 60,
      "hit": false,
      "t": 156390,
      "d": 740,
      "v": 127
    },
    {
      "midi": 57,
      "hit": false,
      "t": 156390,
      "d": 775,
      "v": 127
    },
    {
      "midi": 53,
      "hit": false,
      "t": 156405,
      "d": 695,
      "v": 127
    },
    {
      "midi": 65,
      "hit": false,
      "t": 156765,
      "d": 350,
      "v": 127
    },
    {
      "midi": 69,
      "hit": false,
      "t": 156935,
      "d": 195,
      "v": 127
    },
    {
      "midi": 72,
      "hit": false,
      "t": 157180,
      "d": 500,
      "v": 127
    },
    {
      "midi": 65,
      "hit": false,
      "t": 157180,
      "d": 515,
      "v": 127
    },
    {
      "midi": 69,
      "hit": false,
      "t": 157180,
      "d": 515,
      "v": 127
    },
    {
      "midi": 60,
      "hit": false,
      "t": 157190,
      "d": 640,
      "v": 127
    },
    {
      "midi": 53,
      "hit": false,
      "t": 157200,
      "d": 620,
      "v": 127
    },
    {
      "midi": 57,
      "hit": false,
      "t": 157575,
      "d": 280,
      "v": 127
    },
    {
      "midi": 65,
      "hit": false,
      "t": 157960,
      "d": 520,
      "v": 127
    },
    {
      "midi": 69,
      "hit": false,
      "t": 157960,
      "d": 540,
      "v": 127
    },
    {
      "midi": 60,
      "hit": false,
      "t": 157960,
      "d": 555,
      "v": 127
    },
    {
      "midi": 72,
      "hit": false,
      "t": 157965,
      "d": 515,
      "v": 127
    },
    {
      "midi": 57,
      "hit": false,
      "t": 157990,
      "d": 75,
      "v": 127
    },
    {
      "midi": 53,
      "hit": false,
      "t": 157990,
      "d": 500,
      "v": 127
    },
    {
      "midi": 57,
      "hit": false,
      "t": 158370,
      "d": 155,
      "v": 127
    },
    {
      "midi": 71,
      "hit": false,
      "t": 158745,
      "d": 760,
      "v": 127
    },
    {
      "midi": 74,
      "hit": false,
      "t": 158755,
      "d": 710,
      "v": 127
    },
    {
      "midi": 67,
      "hit": false,
      "t": 158755,
      "d": 730,
      "v": 127
    },
    {
      "midi": 62,
      "hit": false,
      "t": 158765,
      "d": 260,
      "v": 127
    },
    {
      "midi": 59,
      "hit": false,
      "t": 158765,
      "d": 440,
      "v": 127
    },
    {
      "midi": 55,
      "hit": false,
      "t": 158780,
      "d": 635,
      "v": 127
    },
    {
      "midi": 62,
      "hit": false,
      "t": 159170,
      "d": 345,
      "v": 127
    },
    {
      "midi": 59,
      "hit": false,
      "t": 159340,
      "d": 250,
      "v": 127
    },
    {
      "midi": 74,
      "hit": false,
      "t": 159610,
      "d": 430,
      "v": 127
    },
    {
      "midi": 67,
      "hit": false,
      "t": 159610,
      "d": 440,
      "v": 127
    },
    {
      "midi": 71,
      "hit": false,
      "t": 159610,
      "d": 455,
      "v": 127
    },
    {
      "midi": 62,
      "hit": false,
      "t": 159610,
      "d": 720,
      "v": 127
    },
    {
      "midi": 55,
      "hit": false,
      "t": 159610,
      "d": 1070,
      "v": 127
    },
    {
      "midi": 59,
      "hit": false,
      "t": 159990,
      "d": 490,
      "v": 127
    },
    {
      "midi": 67,
      "hit": false,
      "t": 160180,
      "d": 910,
      "v": 127
    },
    {
      "midi": 71,
      "hit": false,
      "t": 160190,
      "d": 925,
      "v": 127
    },
    {
      "midi": 74,
      "hit": false,
      "t": 160200,
      "d": 865,
      "v": 127
    },
    {
      "midi": 62,
      "hit": false,
      "t": 160425,
      "d": 695,
      "v": 127
    },
    {
      "midi": 59,
      "hit": false,
      "t": 160600,
      "d": 570,
      "v": 127
    },
    {
      "midi": 55,
      "hit": false,
      "t": 160800,
      "d": 320,
      "v": 127
    },
    {
      "midi": 62,
      "hit": false,
      "t": 161180,
      "d": 590,
      "v": 127
    },
    {
      "midi": 55,
      "hit": false,
      "t": 161185,
      "d": 575,
      "v": 127
    },
    {
      "midi": 74,
      "hit": false,
      "t": 161190,
      "d": 540,
      "v": 127
    },
    {
      "midi": 67,
      "hit": false,
      "t": 161190,
      "d": 570,
      "v": 127
    },
    {
      "midi": 71,
      "hit": false,
      "t": 161190,
      "d": 570,
      "v": 127
    },
    {
      "midi": 59,
      "hit": false,
      "t": 161600,
      "d": 185,
      "v": 127
    },
    {
      "midi": 65,
      "hit": false,
      "t": 161990,
      "d": 510,
      "v": 127
    },
    {
      "midi": 69,
      "hit": false,
      "t": 161990,
      "d": 525,
      "v": 127
    },
    {
      "midi": 57,
      "hit": false,
      "t": 161990,
      "d": 565,
      "v": 127
    },
    {
      "midi": 53,
      "hit": false,
      "t": 161995,
      "d": 545,
      "v": 127
    },
    {
      "midi": 60,
      "hit": false,
      "t": 161995,
      "d": 560,
      "v": 127
    },
    {
      "midi": 72,
      "hit": false,
      "t": 162000,
      "d": 515,
      "v": 127
    },
    {
      "midi": 57,
      "hit": false,
      "t": 162810,
      "d": 545,
      "v": 127
    },
    {
      "midi": 60,
      "hit": false,
      "t": 162810,
      "d": 555,
      "v": 127
    },
    {
      "midi": 53,
      "hit": false,
      "t": 162820,
      "d": 525,
      "v": 127
    },
    {
      "midi": 65,
      "hit": false,
      "t": 162820,
      "d": 1050,
      "v": 127
    },
    {
      "midi": 72,
      "hit": false,
      "t": 162820,
      "d": 1070,
      "v": 127
    },
    {
      "midi": 69,
      "hit": false,
      "t": 162820,
      "d": 1115,
      "v": 127
    },
    {
      "midi": 53,
      "hit": false,
      "t": 163640,
      "d": 630,
      "v": 127
    },
    {
      "midi": 60,
      "hit": false,
      "t": 163645,
      "d": 645,
      "v": 127
    },
    {
      "midi": 57,
      "hit": false,
      "t": 163645,
      "d": 675,
      "v": 127
    },
    {
      "midi": 65,
      "hit": false,
      "t": 163995,
      "d": 310,
      "v": 127
    },
    {
      "midi": 65,
      "hit": false,
      "t": 164380,
      "d": 555,
      "v": 127
    },
    {
      "midi": 69,
      "hit": false,
      "t": 164390,
      "d": 560,
      "v": 127
    },
    {
      "midi": 72,
      "hit": false,
      "t": 164390,
      "d": 580,
      "v": 127
    },
    {
      "midi": 60,
      "hit": false,
      "t": 164400,
      "d": 545,
      "v": 127
    },
    {
      "midi": 53,
      "hit": false,
      "t": 164410,
      "d": 510,
      "v": 127
    },
    {
      "midi": 57,
      "hit": false,
      "t": 164780,
      "d": 165,
      "v": 127
    },
    {
      "midi": 67,
      "hit": false,
      "t": 165145,
      "d": 645,
      "v": 127
    },
    {
      "midi": 71,
      "hit": false,
      "t": 165145,
      "d": 655,
      "v": 127
    },
    {
      "midi": 74,
      "hit": false,
      "t": 165150,
      "d": 630,
      "v": 127
    },
    {
      "midi": 55,
      "hit": false,
      "t": 165165,
      "d": 585,
      "v": 127
    },
    {
      "midi": 62,
      "hit": false,
      "t": 165165,
      "d": 615,
      "v": 127
    },
    {
      "midi": 59,
      "hit": false,
      "t": 165165,
      "d": 625,
      "v": 127
    },
    {
      "midi": 71,
      "hit": false,
      "t": 165955,
      "d": 685,
      "v": 127
    },
    {
      "midi": 55,
      "hit": false,
      "t": 165960,
      "d": 620,
      "v": 127
    },
    {
      "midi": 62,
      "hit": false,
      "t": 165960,
      "d": 655,
      "v": 127
    },
    {
      "midi": 67,
      "hit": false,
      "t": 165960,
      "d": 675,
      "v": 127
    },
    {
      "midi": 74,
      "hit": false,
      "t": 165965,
      "d": 660,
      "v": 127
    },
    {
      "midi": 59,
      "hit": false,
      "t": 165970,
      "d": 665,
      "v": 127
    },
    {
      "midi": 67,
      "hit": false,
      "t": 166780,
      "d": 645,
      "v": 127
    },
    {
      "midi": 71,
      "hit": false,
      "t": 166780,
      "d": 665,
      "v": 127
    },
    {
      "midi": 74,
      "hit": false,
      "t": 166785,
      "d": 640,
      "v": 127
    },
    {
      "midi": 62,
      "hit": false,
      "t": 166790,
      "d": 645,
      "v": 127
    },
    {
      "midi": 55,
      "hit": false,
      "t": 166805,
      "d": 620,
      "v": 127
    },
    {
      "midi": 59,
      "hit": false,
      "t": 167165,
      "d": 295,
      "v": 127
    },
    {
      "midi": 71,
      "hit": false,
      "t": 167575,
      "d": 420,
      "v": 127
    },
    {
      "midi": 67,
      "hit": false,
      "t": 167580,
      "d": 390,
      "v": 127
    },
    {
      "midi": 74,
      "hit": false,
      "t": 167580,
      "d": 400,
      "v": 127
    },
    {
      "midi": 55,
      "hit": false,
      "t": 167595,
      "d": 400,
      "v": 127
    },
    {
      "midi": 62,
      "hit": false,
      "t": 167595,
      "d": 415,
      "v": 127
    },
    {
      "midi": 59,
      "hit": false,
      "t": 167920,
      "d": 130,
      "v": 127
    },
    {
      "midi": 63,
      "hit": false,
      "t": 168350,
      "d": 560,
      "v": 127
    },
    {
      "midi": 60,
      "hit": false,
      "t": 168360,
      "d": 600,
      "v": 127
    },
    {
      "midi": 56,
      "hit": false,
      "t": 168370,
      "d": 560,
      "v": 127
    },
    {
      "midi": 68,
      "hit": false,
      "t": 168380,
      "d": 560,
      "v": 127
    },
    {
      "midi": 75,
      "hit": false,
      "t": 168390,
      "d": 550,
      "v": 127
    },
    {
      "midi": 72,
      "hit": false,
      "t": 168400,
      "d": 535,
      "v": 127
    },
    {
      "midi": 60,
      "hit": false,
      "t": 169145,
      "d": 665,
      "v": 127
    },
    {
      "midi": 56,
      "hit": false,
      "t": 169155,
      "d": 600,
      "v": 127
    },
    {
      "midi": 72,
      "hit": false,
      "t": 169155,
      "d": 615,
      "v": 127
    },
    {
      "midi": 63,
      "hit": false,
      "t": 169155,
      "d": 630,
      "v": 127
    },
    {
      "midi": 68,
      "hit": false,
      "t": 169155,
      "d": 635,
      "v": 127
    },
    {
      "midi": 75,
      "hit": false,
      "t": 169160,
      "d": 610,
      "v": 127
    },
    {
      "midi": 63,
      "hit": false,
      "t": 169935,
      "d": 690,
      "v": 127
    },
    {
      "midi": 68,
      "hit": false,
      "t": 169935,
      "d": 690,
      "v": 127
    },
    {
      "midi": 75,
      "hit": false,
      "t": 169945,
      "d": 670,
      "v": 127
    },
    {
      "midi": 56,
      "hit": false,
      "t": 169955,
      "d": 615,
      "v": 127
    },
    {
      "midi": 60,
      "hit": false,
      "t": 169955,
      "d": 660,
      "v": 127
    },
    {
      "midi": 72,
      "hit": false,
      "t": 169960,
      "d": 640,
      "v": 127
    },
    {
      "midi": 68,
      "hit": false,
      "t": 170725,
      "d": 505,
      "v": 127
    },
    {
      "midi": 75,
      "hit": false,
      "t": 170730,
      "d": 590,
      "v": 127
    },
    {
      "midi": 63,
      "hit": false,
      "t": 170750,
      "d": 370,
      "v": 127
    },
    {
      "midi": 72,
      "hit": false,
      "t": 170750,
      "d": 515,
      "v": 127
    },
    {
      "midi": 60,
      "hit": false,
      "t": 170760,
      "d": 340,
      "v": 127
    },
    {
      "midi": 56,
      "hit": false,
      "t": 170770,
      "d": 310,
      "v": 127
    },
    {
      "midi": 62,
      "hit": false,
      "t": 171520,
      "d": 750,
      "v": 127
    },
    {
      "midi": 65,
      "hit": false,
      "t": 171530,
      "d": 715,
      "v": 127
    },
    {
      "midi": 58,
      "hit": false,
      "t": 171540,
      "d": 705,
      "v": 127
    },
    {
      "midi": 70,
      "hit": false,
      "t": 171950,
      "d": 310,
      "v": 127
    },
    {
      "midi": 74,
      "hit": false,
      "t": 172140,
      "d": 110,
      "v": 127
    },
    {
      "midi": 65,
      "hit": false,
      "t": 172295,
      "d": 745,
      "v": 127
    },
    {
      "midi": 58,
      "hit": false,
      "t": 172300,
      "d": 715,
      "v": 127
    },
    {
      "midi": 70,
      "hit": false,
      "t": 172305,
      "d": 575,
      "v": 127
    },
    {
      "midi": 77,
      "hit": false,
      "t": 172305,
      "d": 585,
      "v": 127
    },
    {
      "midi": 74,
      "hit": false,
      "t": 172305,
      "d": 595,
      "v": 127
    },
    {
      "midi": 62,
      "hit": false,
      "t": 172720,
      "d": 310,
      "v": 127
    },
    {
      "midi": 70,
      "hit": false,
      "t": 173115,
      "d": 635,
      "v": 127
    },
    {
      "midi": 77,
      "hit": false,
      "t": 173115,
      "d": 660,
      "v": 127
    },
    {
      "midi": 74,
      "hit": false,
      "t": 173125,
      "d": 640,
      "v": 127
    },
    {
      "midi": 65,
      "hit": false,
      "t": 173125,
      "d": 660,
      "v": 127
    },
    {
      "midi": 58,
      "hit": false,
      "t": 173135,
      "d": 630,
      "v": 127
    },
    {
      "midi": 62,
      "hit": false,
      "t": 173135,
      "d": 650,
      "v": 127
    },
    {
      "midi": 77,
      "hit": false,
      "t": 173855,
      "d": 310,
      "v": 127
    },
    {
      "midi": 74,
      "hit": false,
      "t": 173865,
      "d": 310,
      "v": 127
    },
    {
      "midi": 65,
      "hit": false,
      "t": 173865,
      "d": 335,
      "v": 127
    },
    {
      "midi": 62,
      "hit": false,
      "t": 173865,
      "d": 350,
      "v": 127
    },
    {
      "midi": 70,
      "hit": false,
      "t": 173865,
      "d": 355,
      "v": 127
    },
    {
      "midi": 58,
      "hit": false,
      "t": 173875,
      "d": 345,
      "v": 127
    },
    {
      "midi": 55,
      "hit": false,
      "t": 174685,
      "d": 1630,
      "v": 127
    },
    {
      "midi": 48,
      "hit": false,
      "t": 174690,
      "d": 1630,
      "v": 127
    },
    {
      "midi": 52,
      "hit": false,
      "t": 174695,
      "d": 1635,
      "v": 127
    },
    {
      "midi": 60,
      "hit": false,
      "t": 174705,
      "d": 3105,
      "v": 127
    },
    {
      "midi": 67,
      "hit": false,
      "t": 174705,
      "d": 3125,
      "v": 127
    },
    {
      "midi": 64,
      "hit": false,
      "t": 174705,
      "d": 3140,
      "v": 127
    },
    {
      "midi": 55,
      "hit": false,
      "t": 179505,
      "d": 720,
      "v": 127
    },
    {
      "midi": 52,
      "hit": false,
      "t": 179505,
      "d": 745,
      "v": 127
    },
    {
      "midi": 48,
      "hit": false,
      "t": 179515,
      "d": 680,
      "v": 127
    },
    {
      "midi": 64,
      "hit": false,
      "t": 179515,
      "d": 725,
      "v": 127
    },
    {
      "midi": 67,
      "hit": false,
      "t": 179530,
      "d": 680,
      "v": 127
    },
    {
      "midi": 60,
      "hit": false,
      "t": 179530,
      "d": 690,
      "v": 127
    },
    {
      "midi": 55,
      "hit": false,
      "t": 180310,
      "d": 495,
      "v": 127
    },
    {
      "midi": 48,
      "hit": false,
      "t": 180320,
      "d": 455,
      "v": 127
    },
    {
      "midi": 60,
      "hit": false,
      "t": 180320,
      "d": 465,
      "v": 127
    },
    {
      "midi": 64,
      "hit": false,
      "t": 180320,
      "d": 515,
      "v": 127
    },
    {
      "midi": 67,
      "hit": false,
      "t": 180320,
      "d": 545,
      "v": 127
    },
    {
      "midi": 52,
      "hit": false,
      "t": 180695,
      "d": 115,
      "v": 127
    },
    {
      "midi": 59,
      "hit": false,
      "t": 181100,
      "d": 825,
      "v": 127
    },
    {
      "midi": 62,
      "hit": false,
      "t": 181105,
      "d": 785,
      "v": 127
    },
    {
      "midi": 55,
      "hit": false,
      "t": 181125,
      "d": 740,
      "v": 127
    },
    {
      "midi": 67,
      "hit": false,
      "t": 181515,
      "d": 360,
      "v": 127
    },
    {
      "midi": 55,
      "hit": false,
      "t": 181945,
      "d": 510,
      "v": 127
    },
    {
      "midi": 62,
      "hit": false,
      "t": 181945,
      "d": 545,
      "v": 127
    },
    {
      "midi": 67,
      "hit": false,
      "t": 181950,
      "d": 785,
      "v": 127
    },
    {
      "midi": 71,
      "hit": false,
      "t": 181950,
      "d": 795,
      "v": 127
    },
    {
      "midi": 74,
      "hit": false,
      "t": 181950,
      "d": 800,
      "v": 127
    },
    {
      "midi": 59,
      "hit": false,
      "t": 182350,
      "d": 130,
      "v": 127
    },
    {
      "midi": 64,
      "hit": false,
      "t": 182725,
      "d": 835,
      "v": 127
    },
    {
      "midi": 60,
      "hit": false,
      "t": 182725,
      "d": 885,
      "v": 127
    },
    {
      "midi": 57,
      "hit": false,
      "t": 182735,
      "d": 795,
      "v": 127
    },
    {
      "midi": 69,
      "hit": false,
      "t": 183200,
      "d": 360,
      "v": 127
    },
    {
      "midi": 76,
      "hit": false,
      "t": 183620,
      "d": 405,
      "v": 127
    },
    {
      "midi": 69,
      "hit": false,
      "t": 183620,
      "d": 410,
      "v": 127
    },
    {
      "midi": 72,
      "hit": false,
      "t": 183620,
      "d": 420,
      "v": 127
    },
    {
      "midi": 57,
      "hit": false,
      "t": 183620,
      "d": 615,
      "v": 127
    },
    {
      "midi": 64,
      "hit": false,
      "t": 183630,
      "d": 620,
      "v": 127
    },
    {
      "midi": 60,
      "hit": false,
      "t": 183970,
      "d": 295,
      "v": 127
    },
    {
      "midi": 69,
      "hit": false,
      "t": 184145,
      "d": 885,
      "v": 127
    },
    {
      "midi": 72,
      "hit": false,
      "t": 184145,
      "d": 900,
      "v": 127
    },
    {
      "midi": 76,
      "hit": false,
      "t": 184155,
      "d": 820,
      "v": 127
    },
    {
      "midi": 57,
      "hit": false,
      "t": 184330,
      "d": 705,
      "v": 127
    },
    {
      "midi": 64,
      "hit": false,
      "t": 184340,
      "d": 715,
      "v": 127
    },
    {
      "midi": 60,
      "hit": false,
      "t": 184770,
      "d": 305,
      "v": 127
    },
    {
      "midi": 72,
      "hit": false,
      "t": 185125,
      "d": 895,
      "v": 127
    },
    {
      "midi": 64,
      "hit": false,
      "t": 185135,
      "d": 515,
      "v": 127
    },
    {
      "midi": 69,
      "hit": false,
      "t": 185135,
      "d": 805,
      "v": 127
    },
    {
      "midi": 57,
      "hit": false,
      "t": 185145,
      "d": 505,
      "v": 127
    },
    {
      "midi": 76,
      "hit": false,
      "t": 185145,
      "d": 835,
      "v": 127
    },
    {
      "midi": 60,
      "hit": false,
      "t": 185560,
      "d": 100,
      "v": 127
    },
    {
      "midi": 53,
      "hit": false,
      "t": 185960,
      "d": 825,
      "v": 127
    },
    {
      "midi": 50,
      "hit": false,
      "t": 185970,
      "d": 725,
      "v": 127
    },
    {
      "midi": 57,
      "hit": false,
      "t": 185975,
      "d": 765,
      "v": 127
    },
    {
      "midi": 62,
      "hit": false,
      "t": 186350,
      "d": 355,
      "v": 127
    },
    {
      "midi": 65,
      "hit": false,
      "t": 186530,
      "d": 200,
      "v": 127
    },
    {
      "midi": 62,
      "hit": false,
      "t": 186765,
      "d": 440,
      "v": 127
    },
    {
      "midi": 65,
      "hit": false,
      "t": 186765,
      "d": 450,
      "v": 127
    },
    {
      "midi": 69,
      "hit": false,
      "t": 186775,
      "d": 415,
      "v": 127
    },
    {
      "midi": 50,
      "hit": false,
      "t": 186795,
      "d": 1065,
      "v": 127
    },
    {
      "midi": 57,
      "hit": false,
      "t": 186795,
      "d": 1525,
      "v": 127
    },
    {
      "midi": 53,
      "hit": false,
      "t": 187150,
      "d": 480,
      "v": 127
    },
    {
      "midi": 69,
      "hit": false,
      "t": 187405,
      "d": 895,
      "v": 127
    },
    {
      "midi": 62,
      "hit": false,
      "t": 187405,
      "d": 920,
      "v": 127
    },
    {
      "midi": 65,
      "hit": false,
      "t": 187405,
      "d": 930,
      "v": 127
    },
    {
      "midi": 53,
      "hit": false,
      "t": 187780,
      "d": 255,
      "v": 127
    },
    {
      "midi": 50,
      "hit": false,
      "t": 187975,
      "d": 385,
      "v": 127
    },
    {
      "midi": 53,
      "hit": false,
      "t": 188180,
      "d": 230,
      "v": 127
    },
    {
      "midi": 62,
      "hit": false,
      "t": 188400,
      "d": 460,
      "v": 127
    },
    {
      "midi": 65,
      "hit": false,
      "t": 188400,
      "d": 610,
      "v": 127
    },
    {
      "midi": 69,
      "hit": false,
      "t": 188410,
      "d": 590,
      "v": 127
    },
    {
      "midi": 50,
      "hit": false,
      "t": 188425,
      "d": 410,
      "v": 127
    },
    {
      "midi": 57,
      "hit": false,
      "t": 188425,
      "d": 420,
      "v": 127
    },
    {
      "midi": 53,
      "hit": false,
      "t": 188750,
      "d": 120,
      "v": 127
    },
    {
      "midi": 59,
      "hit": false,
      "t": 189130,
      "d": 790,
      "v": 127
    },
    {
      "midi": 62,
      "hit": false,
      "t": 189140,
      "d": 750,
      "v": 127
    },
    {
      "midi": 55,
      "hit": false,
      "t": 189150,
      "d": 710,
      "v": 127
    },
    {
      "midi": 67,
      "hit": false,
      "t": 189560,
      "d": 300,
      "v": 127
    },
    {
      "midi": 71,
      "hit": false,
      "t": 189725,
      "d": 155,
      "v": 127
    },
    {
      "midi": 67,
      "hit": false,
      "t": 189930,
      "d": 400,
      "v": 127
    },
    {
      "midi": 71,
      "hit": false,
      "t": 189935,
      "d": 400,
      "v": 127
    },
    {
      "midi": 74,
      "hit": false,
      "t": 189945,
      "d": 375,
      "v": 127
    },
    {
      "midi": 62,
      "hit": false,
      "t": 189945,
      "d": 1960,
      "v": 127
    },
    {
      "midi": 55,
      "hit": false,
      "t": 189960,
      "d": 1935,
      "v": 127
    },
    {
      "midi": 59,
      "hit": false,
      "t": 190295,
      "d": 1785,
      "v": 127
    },
    {
      "midi": 74,
      "hit": false,
      "t": 190515,
      "d": 275,
      "v": 127
    },
    {
      "midi": 67,
      "hit": false,
      "t": 190515,
      "d": 285,
      "v": 127
    },
    {
      "midi": 71,
      "hit": false,
      "t": 190515,
      "d": 300,
      "v": 127
    },
    {
      "midi": 71,
      "hit": false,
      "t": 190930,
      "d": 110,
      "v": 127
    },
    {
      "midi": 67,
      "hit": false,
      "t": 190930,
      "d": 120,
      "v": 127
    },
    {
      "midi": 74,
      "hit": false,
      "t": 190940,
      "d": 100,
      "v": 127
    },
    {
      "midi": 67,
      "hit": false,
      "t": 191100,
      "d": 130,
      "v": 127
    },
    {
      "midi": 71,
      "hit": false,
      "t": 191110,
      "d": 110,
      "v": 127
    },
    {
      "midi": 74,
      "hit": false,
      "t": 191110,
      "d": 110,
      "v": 127
    },
    {
      "midi": 67,
      "hit": false,
      "t": 191290,
      "d": 120,
      "v": 127
    },
    {
      "midi": 74,
      "hit": false,
      "t": 191295,
      "d": 115,
      "v": 127
    },
    {
      "midi": 71,
      "hit": false,
      "t": 191300,
      "d": 115,
      "v": 127
    },
    {
      "midi": 67,
      "hit": false,
      "t": 191505,
      "d": 135,
      "v": 127
    },
    {
      "midi": 71,
      "hit": false,
      "t": 191505,
      "d": 135,
      "v": 127
    },
    {
      "midi": 74,
      "hit": false,
      "t": 191510,
      "d": 120,
      "v": 127
    },
    {
      "midi": 67,
      "hit": false,
      "t": 191725,
      "d": 125,
      "v": 127
    },
    {
      "midi": 71,
      "hit": false,
      "t": 191725,
      "d": 125,
      "v": 127
    },
    {
      "midi": 74,
      "hit": false,
      "t": 191735,
      "d": 105,
      "v": 127
    },
    {
      "midi": 67,
      "hit": false,
      "t": 191935,
      "d": 135,
      "v": 127
    },
    {
      "midi": 71,
      "hit": false,
      "t": 191935,
      "d": 135,
      "v": 127
    },
    {
      "midi": 74,
      "hit": false,
      "t": 191940,
      "d": 115,
      "v": 127
    },
    {
      "midi": 62,
      "hit": false,
      "t": 191940,
      "d": 130,
      "v": 127
    },
    {
      "midi": 55,
      "hit": false,
      "t": 191955,
      "d": 115,
      "v": 127
    },
    {
      "midi": 52,
      "hit": false,
      "t": 192350,
      "d": 710,
      "v": 127
    },
    {
      "midi": 48,
      "hit": false,
      "t": 192355,
      "d": 640,
      "v": 127
    },
    {
      "midi": 55,
      "hit": false,
      "t": 192355,
      "d": 665,
      "v": 127
    },
    {
      "midi": 60,
      "hit": false,
      "t": 192710,
      "d": 300,
      "v": 127
    },
    {
      "midi": 60,
      "hit": false,
      "t": 193090,
      "d": 440,
      "v": 127
    },
    {
      "midi": 64,
      "hit": false,
      "t": 193090,
      "d": 465,
      "v": 127
    },
    {
      "midi": 55,
      "hit": false,
      "t": 193090,
      "d": 510,
      "v": 127
    },
    {
      "midi": 48,
      "hit": false,
      "t": 193095,
      "d": 460,
      "v": 127
    },
    {
      "midi": 67,
      "hit": false,
      "t": 193095,
      "d": 465,
      "v": 127
    },
    {
      "midi": 52,
      "hit": false,
      "t": 193490,
      "d": 100,
      "v": 127
    },
    {
      "midi": 64,
      "hit": false,
      "t": 193920,
      "d": 715,
      "v": 127
    },
    {
      "midi": 68,
      "hit": false,
      "t": 193920,
      "d": 745,
      "v": 127
    },
    {
      "midi": 56,
      "hit": false,
      "t": 193920,
      "d": 755,
      "v": 127
    },
    {
      "midi": 52,
      "hit": false,
      "t": 193935,
      "d": 665,
      "v": 127
    },
    {
      "midi": 59,
      "hit": false,
      "t": 193935,
      "d": 700,
      "v": 127
    },
    {
      "midi": 71,
      "hit": false,
      "t": 193945,
      "d": 665,
      "v": 127
    },
    {
      "midi": 52,
      "hit": false,
      "t": 194720,
      "d": 485,
      "v": 127
    },
    {
      "midi": 59,
      "hit": false,
      "t": 194720,
      "d": 530,
      "v": 127
    },
    {
      "midi": 68,
      "hit": false,
      "t": 194725,
      "d": 605,
      "v": 127
    },
    {
      "midi": 64,
      "hit": false,
      "t": 194740,
      "d": 525,
      "v": 127
    },
    {
      "midi": 71,
      "hit": false,
      "t": 194740,
      "d": 605,
      "v": 127
    },
    {
      "midi": 56,
      "hit": false,
      "t": 195135,
      "d": 125,
      "v": 127
    },
    {
      "midi": 60,
      "hit": false,
      "t": 195510,
      "d": 800,
      "v": 127
    },
    {
      "midi": 64,
      "hit": false,
      "t": 195520,
      "d": 775,
      "v": 127
    },
    {
      "midi": 57,
      "hit": false,
      "t": 195540,
      "d": 720,
      "v": 127
    },
    {
      "midi": 69,
      "hit": false,
      "t": 195935,
      "d": 360,
      "v": 127
    },
    {
      "midi": 69,
      "hit": false,
      "t": 196340,
      "d": 415,
      "v": 127
    },
    {
      "midi": 72,
      "hit": false,
      "t": 196340,
      "d": 415,
      "v": 127
    },
    {
      "midi": 76,
      "hit": false,
      "t": 196350,
      "d": 395,
      "v": 127
    },
    {
      "midi": 57,
      "hit": false,
      "t": 196350,
      "d": 610,
      "v": 127
    },
    {
      "midi": 64,
      "hit": false,
      "t": 196350,
      "d": 630,
      "v": 127
    },
    {
      "midi": 60,
      "hit": false,
      "t": 196680,
      "d": 310,
      "v": 127
    },
    {
      "midi": 72,
      "hit": false,
      "t": 196860,
      "d": 970,
      "v": 127
    },
    {
      "midi": 76,
      "hit": false,
      "t": 196870,
      "d": 920,
      "v": 127
    },
    {
      "midi": 69,
      "hit": false,
      "t": 196870,
      "d": 950,
      "v": 127
    },
    {
      "midi": 64,
      "hit": false,
      "t": 197070,
      "d": 250,
      "v": 127
    },
    {
      "midi": 60,
      "hit": false,
      "t": 197070,
      "d": 760,
      "v": 127
    },
    {
      "midi": 57,
      "hit": false,
      "t": 197080,
      "d": 710,
      "v": 127
    },
    {
      "midi": 64,
      "hit": false,
      "t": 197475,
      "d": 325,
      "v": 127
    },
    {
      "midi": 57,
      "hit": false,
      "t": 197880,
      "d": 520,
      "v": 127
    },
    {
      "midi": 64,
      "hit": false,
      "t": 197880,
      "d": 520,
      "v": 127
    },
    {
      "midi": 69,
      "hit": false,
      "t": 197900,
      "d": 820,
      "v": 127
    },
    {
      "midi": 72,
      "hit": false,
      "t": 197900,
      "d": 840,
      "v": 127
    },
    {
      "midi": 76,
      "hit": false,
      "t": 197900,
      "d": 840,
      "v": 127
    },
    {
      "midi": 60,
      "hit": false,
      "t": 198300,
      "d": 120,
      "v": 127
    },
    {
      "midi": 57,
      "hit": false,
      "t": 198685,
      "d": 825,
      "v": 127
    },
    {
      "midi": 53,
      "hit": false,
      "t": 198695,
      "d": 720,
      "v": 127
    },
    {
      "midi": 60,
      "hit": false,
      "t": 198695,
      "d": 770,
      "v": 127
    },
    {
      "midi": 65,
      "hit": false,
      "t": 199115,
      "d": 310,
      "v": 127
    },
    {
      "midi": 60,
      "hit": false,
      "t": 199545,
      "d": 665,
      "v": 127
    },
    {
      "midi": 65,
      "hit": false,
      "t": 199555,
      "d": 420,
      "v": 127
    },
    {
      "midi": 53,
      "hit": false,
      "t": 199555,
      "d": 645,
      "v": 127
    },
    {
      "midi": 69,
      "hit": false,
      "t": 199560,
      "d": 425,
      "v": 127
    },
    {
      "midi": 72,
      "hit": false,
      "t": 199570,
      "d": 390,
      "v": 127
    },
    {
      "midi": 57,
      "hit": false,
      "t": 199920,
      "d": 330,
      "v": 127
    },
    {
      "midi": 65,
      "hit": false,
      "t": 200140,
      "d": 810,
      "v": 127
    },
    {
      "midi": 69,
      "hit": false,
      "t": 200140,
      "d": 825,
      "v": 127
    },
    {
      "midi": 72,
      "hit": false,
      "t": 200145,
      "d": 770,
      "v": 127
    },
    {
      "midi": 57,
      "hit": false,
      "t": 200330,
      "d": 315,
      "v": 127
    },
    {
      "midi": 60,
      "hit": false,
      "t": 200340,
      "d": 280,
      "v": 127
    },
    {
      "midi": 53,
      "hit": false,
      "t": 200350,
      "d": 270,
      "v": 127
    },
    {
      "midi": 57,
      "hit": false,
      "t": 200730,
      "d": 235,
      "v": 127
    },
    {
      "midi": 60,
      "hit": false,
      "t": 200735,
      "d": 205,
      "v": 127
    },
    {
      "midi": 53,
      "hit": false,
      "t": 200745,
      "d": 185,
      "v": 127
    },
    {
      "midi": 60,
      "hit": false,
      "t": 201110,
      "d": 280,
      "v": 127
    },
    {
      "midi": 65,
      "hit": false,
      "t": 201115,
      "d": 525,
      "v": 127
    },
    {
      "midi": 69,
      "hit": false,
      "t": 201115,
      "d": 545,
      "v": 127
    },
    {
      "midi": 53,
      "hit": false,
      "t": 201120,
      "d": 280,
      "v": 127
    },
    {
      "midi": 57,
      "hit": false,
      "t": 201120,
      "d": 290,
      "v": 127
    },
    {
      "midi": 72,
      "hit": false,
      "t": 201120,
      "d": 530,
      "v": 127
    },
    {
      "midi": 57,
      "hit": false,
      "t": 201520,
      "d": 130,
      "v": 127
    },
    {
      "midi": 60,
      "hit": false,
      "t": 201520,
      "d": 130,
      "v": 127
    },
    {
      "midi": 53,
      "hit": false,
      "t": 201530,
      "d": 105,
      "v": 127
    },
    {
      "midi": 67,
      "hit": false,
      "t": 201890,
      "d": 665,
      "v": 127
    },
    {
      "midi": 71,
      "hit": false,
      "t": 201890,
      "d": 675,
      "v": 127
    },
    {
      "midi": 74,
      "hit": false,
      "t": 201900,
      "d": 645,
      "v": 127
    },
    {
      "midi": 62,
      "hit": false,
      "t": 201910,
      "d": 680,
      "v": 127
    },
    {
      "midi": 59,
      "hit": false,
      "t": 201910,
      "d": 685,
      "v": 127
    },
    {
      "midi": 55,
      "hit": false,
      "t": 201920,
      "d": 650,
      "v": 127
    },
    {
      "midi": 67,
      "hit": false,
      "t": 202720,
      "d": 240,
      "v": 127
    },
    {
      "midi": 59,
      "hit": false,
      "t": 202725,
      "d": 755,
      "v": 127
    },
    {
      "midi": 71,
      "hit": false,
      "t": 202730,
      "d": 230,
      "v": 127
    },
    {
      "midi": 74,
      "hit": false,
      "t": 202730,
      "d": 235,
      "v": 127
    },
    {
      "midi": 62,
      "hit": false,
      "t": 202730,
      "d": 720,
      "v": 127
    },
    {
      "midi": 55,
      "hit": false,
      "t": 202740,
      "d": 705,
      "v": 127
    },
    {
      "midi": 71,
      "hit": false,
      "t": 203105,
      "d": 95,
      "v": 127
    },
    {
      "midi": 67,
      "hit": false,
      "t": 203105,
      "d": 105,
      "v": 127
    },
    {
      "midi": 74,
      "hit": false,
      "t": 203110,
      "d": 75,
      "v": 127
    },
    {
      "midi": 67,
      "hit": false,
      "t": 203290,
      "d": 345,
      "v": 127
    },
    {
      "midi": 74,
      "hit": false,
      "t": 203300,
      "d": 320,
      "v": 127
    },
    {
      "midi": 71,
      "hit": false,
      "t": 203300,
      "d": 350,
      "v": 127
    },
    {
      "midi": 62,
      "hit": false,
      "t": 203520,
      "d": 1085,
      "v": 127
    },
    {
      "midi": 59,
      "hit": false,
      "t": 203520,
      "d": 1110,
      "v": 127
    },
    {
      "midi": 55,
      "hit": false,
      "t": 203530,
      "d": 1070,
      "v": 127
    },
    {
      "midi": 67,
      "hit": false,
      "t": 203715,
      "d": 120,
      "v": 127
    },
    {
      "midi": 71,
      "hit": false,
      "t": 203720,
      "d": 95,
      "v": 127
    },
    {
      "midi": 74,
      "hit": false,
      "t": 203735,
      "d": 80,
      "v": 127
    },
    {
      "midi": 67,
      "hit": false,
      "t": 203890,
      "d": 130,
      "v": 127
    },
    {
      "midi": 71,
      "hit": false,
      "t": 203895,
      "d": 110,
      "v": 127
    },
    {
      "midi": 74,
      "hit": false,
      "t": 203895,
      "d": 115,
      "v": 127
    },
    {
      "midi": 67,
      "hit": false,
      "t": 204075,
      "d": 125,
      "v": 127
    },
    {
      "midi": 71,
      "hit": false,
      "t": 204080,
      "d": 110,
      "v": 127
    },
    {
      "midi": 74,
      "hit": false,
      "t": 204085,
      "d": 105,
      "v": 127
    },
    {
      "midi": 67,
      "hit": false,
      "t": 204280,
      "d": 130,
      "v": 127
    },
    {
      "midi": 71,
      "hit": false,
      "t": 204290,
      "d": 110,
      "v": 127
    },
    {
      "midi": 74,
      "hit": false,
      "t": 204290,
      "d": 115,
      "v": 127
    },
    {
      "midi": 67,
      "hit": false,
      "t": 204470,
      "d": 130,
      "v": 127
    },
    {
      "midi": 71,
      "hit": false,
      "t": 204480,
      "d": 110,
      "v": 127
    },
    {
      "midi": 74,
      "hit": false,
      "t": 204480,
      "d": 110,
      "v": 127
    },
    {
      "midi": 67,
      "hit": false,
      "t": 204655,
      "d": 130,
      "v": 127
    },
    {
      "midi": 71,
      "hit": false,
      "t": 204670,
      "d": 110,
      "v": 127
    },
    {
      "midi": 62,
      "hit": false,
      "t": 204670,
      "d": 120,
      "v": 127
    },
    {
      "midi": 74,
      "hit": false,
      "t": 204670,
      "d": 120,
      "v": 127
    },
    {
      "midi": 59,
      "hit": false,
      "t": 204670,
      "d": 130,
      "v": 127
    },
    {
      "midi": 55,
      "hit": false,
      "t": 204680,
      "d": 130,
      "v": 127
    },
    {
      "midi": 59,
      "hit": false,
      "t": 205090,
      "d": 280,
      "v": 127
    },
    {
      "midi": 56,
      "hit": false,
      "t": 205090,
      "d": 330,
      "v": 127
    },
    {
      "midi": 52,
      "hit": false,
      "t": 205100,
      "d": 290,
      "v": 127
    },
    {
      "midi": 54,
      "hit": false,
      "t": 205125,
      "d": 50,
      "v": 127
    },
    {
      "midi": 59,
      "hit": false,
      "t": 205905,
      "d": 220,
      "v": 127
    },
    {
      "midi": 68,
      "hit": false,
      "t": 205905,
      "d": 220,
      "v": 127
    },
    {
      "midi": 56,
      "hit": false,
      "t": 205905,
      "d": 235,
      "v": 127
    },
    {
      "midi": 64,
      "hit": false,
      "t": 205915,
      "d": 200,
      "v": 127
    },
    {
      "midi": 71,
      "hit": false,
      "t": 205915,
      "d": 220,
      "v": 127
    },
    {
      "midi": 52,
      "hit": false,
      "t": 205915,
      "d": 265,
      "v": 127
    },
    {
      "midi": 68,
      "hit": false,
      "t": 206690,
      "d": 160,
      "v": 127
    },
    {
      "midi": 64,
      "hit": false,
      "t": 206710,
      "d": 125,
      "v": 127
    },
    {
      "midi": 71,
      "hit": false,
      "t": 206710,
      "d": 150,
      "v": 127
    },
    {
      "midi": 56,
      "hit": false,
      "t": 206710,
      "d": 175,
      "v": 127
    },
    {
      "midi": 59,
      "hit": false,
      "t": 206720,
      "d": 130,
      "v": 127
    },
    {
      "midi": 52,
      "hit": false,
      "t": 206730,
      "d": 120,
      "v": 127
    },
    {
      "midi": 68,
      "hit": false,
      "t": 207500,
      "d": 175,
      "v": 127
    },
    {
      "midi": 64,
      "hit": false,
      "t": 207510,
      "d": 155,
      "v": 127
    },
    {
      "midi": 71,
      "hit": false,
      "t": 207510,
      "d": 180,
      "v": 127
    },
    {
      "midi": 56,
      "hit": false,
      "t": 207520,
      "d": 160,
      "v": 127
    },
    {
      "midi": 52,
      "hit": false,
      "t": 207520,
      "d": 170,
      "v": 127
    },
    {
      "midi": 59,
      "hit": false,
      "t": 207525,
      "d": 130,
      "v": 127
    },
    {
      "midi": 64,
      "hit": false,
      "t": 208290,
      "d": 150,
      "v": 127
    },
    {
      "midi": 60,
      "hit": false,
      "t": 208290,
      "d": 240,
      "v": 127
    },
    {
      "midi": 62,
      "hit": false,
      "t": 208300,
      "d": 75,
      "v": 127
    },
    {
      "midi": 57,
      "hit": false,
      "t": 208300,
      "d": 230,
      "v": 127
    },
    {
      "midi": 72,
      "hit": false,
      "t": 209110,
      "d": 125,
      "v": 127
    },
    {
      "midi": 76,
      "hit": false,
      "t": 209110,
      "d": 150,
      "v": 127
    },
    {
      "midi": 69,
      "hit": false,
      "t": 209120,
      "d": 90,
      "v": 127
    },
    {
      "midi": 67,
      "hit": false,
      "t": 209120,
      "d": 110,
      "v": 127
    },
    {
      "midi": 64,
      "hit": false,
      "t": 209135,
      "d": 110,
      "v": 127
    },
    {
      "midi": 60,
      "hit": false,
      "t": 209135,
      "d": 125,
      "v": 127
    },
    {
      "midi": 57,
      "hit": false,
      "t": 209135,
      "d": 145,
      "v": 127
    },
    {
      "midi": 72,
      "hit": false,
      "t": 209950,
      "d": 130,
      "v": 127
    },
    {
      "midi": 69,
      "hit": false,
      "t": 209960,
      "d": 120,
      "v": 127
    },
    {
      "midi": 76,
      "hit": false,
      "t": 209960,
      "d": 130,
      "v": 127
    },
    {
      "midi": 64,
      "hit": false,
      "t": 209960,
      "d": 140,
      "v": 127
    },
    {
      "midi": 60,
      "hit": false,
      "t": 209975,
      "d": 125,
      "v": 127
    },
    {
      "midi": 57,
      "hit": false,
      "t": 209975,
      "d": 135,
      "v": 127
    },
    {
      "midi": 76,
      "hit": false,
      "t": 210750,
      "d": 150,
      "v": 127
    },
    {
      "midi": 72,
      "hit": false,
      "t": 210760,
      "d": 105,
      "v": 127
    },
    {
      "midi": 69,
      "hit": false,
      "t": 210760,
      "d": 115,
      "v": 127
    },
    {
      "midi": 64,
      "hit": false,
      "t": 210780,
      "d": 135,
      "v": 127
    },
    {
      "midi": 60,
      "hit": false,
      "t": 210790,
      "d": 115,
      "v": 127
    },
    {
      "midi": 57,
      "hit": false,
      "t": 210800,
      "d": 110,
      "v": 127
    },
    {
      "midi": 60,
      "hit": false,
      "t": 211560,
      "d": 160,
      "v": 127
    },
    {
      "midi": 65,
      "hit": false,
      "t": 211560,
      "d": 160,
      "v": 127
    },
    {
      "midi": 69,
      "hit": false,
      "t": 211565,
      "d": 155,
      "v": 127
    },
    {
      "midi": 57,
      "hit": false,
      "t": 211575,
      "d": 145,
      "v": 127
    },
    {
      "midi": 53,
      "hit": false,
      "t": 211575,
      "d": 170,
      "v": 127
    },
    {
      "midi": 72,
      "hit": false,
      "t": 211580,
      "d": 130,
      "v": 127
    },
    {
      "midi": 65,
      "hit": false,
      "t": 212330,
      "d": 120,
      "v": 127
    },
    {
      "midi": 69,
      "hit": false,
      "t": 212340,
      "d": 110,
      "v": 127
    },
    {
      "midi": 72,
      "hit": false,
      "t": 212340,
      "d": 135,
      "v": 127
    },
    {
      "midi": 53,
      "hit": false,
      "t": 212355,
      "d": 110,
      "v": 127
    },
    {
      "midi": 57,
      "hit": false,
      "t": 212355,
      "d": 120,
      "v": 127
    },
    {
      "midi": 60,
      "hit": false,
      "t": 212355,
      "d": 120,
      "v": 127
    },
    {
      "midi": 60,
      "hit": false,
      "t": 213110,
      "d": 135,
      "v": 127
    },
    {
      "midi": 69,
      "hit": false,
      "t": 213110,
      "d": 140,
      "v": 127
    },
    {
      "midi": 57,
      "hit": false,
      "t": 213110,
      "d": 145,
      "v": 127
    },
    {
      "midi": 53,
      "hit": false,
      "t": 213125,
      "d": 85,
      "v": 127
    },
    {
      "midi": 65,
      "hit": false,
      "t": 213125,
      "d": 115,
      "v": 127
    },
    {
      "midi": 72,
      "hit": false,
      "t": 213125,
      "d": 125,
      "v": 127
    },
    {
      "midi": 57,
      "hit": false,
      "t": 213870,
      "d": 190,
      "v": 127
    },
    {
      "midi": 60,
      "hit": false,
      "t": 213880,
      "d": 165,
      "v": 127
    },
    {
      "midi": 53,
      "hit": false,
      "t": 213890,
      "d": 165,
      "v": 127
    },
    {
      "midi": 69,
      "hit": false,
      "t": 213895,
      "d": 150,
      "v": 127
    },
    {
      "midi": 65,
      "hit": false,
      "t": 213895,
      "d": 160,
      "v": 127
    },
    {
      "midi": 72,
      "hit": false,
      "t": 213895,
      "d": 195,
      "v": 127
    },
    {
      "midi": 71,
      "hit": false,
      "t": 214650,
      "d": 130,
      "v": 127
    },
    {
      "midi": 67,
      "hit": false,
      "t": 214650,
      "d": 145,
      "v": 127
    },
    {
      "midi": 74,
      "hit": false,
      "t": 214660,
      "d": 125,
      "v": 127
    },
    {
      "midi": 55,
      "hit": false,
      "t": 214670,
      "d": 140,
      "v": 127
    },
    {
      "midi": 59,
      "hit": false,
      "t": 214670,
      "d": 140,
      "v": 127
    },
    {
      "midi": 62,
      "hit": false,
      "t": 214675,
      "d": 130,
      "v": 127
    },
    {
      "midi": 67,
      "hit": false,
      "t": 215470,
      "d": 130,
      "v": 127
    },
    {
      "midi": 71,
      "hit": false,
      "t": 215470,
      "d": 130,
      "v": 127
    },
    {
      "midi": 59,
      "hit": false,
      "t": 215470,
      "d": 150,
      "v": 127
    },
    {
      "midi": 62,
      "hit": false,
      "t": 215480,
      "d": 130,
      "v": 127
    },
    {
      "midi": 55,
      "hit": false,
      "t": 215480,
      "d": 140,
      "v": 127
    },
    {
      "midi": 74,
      "hit": false,
      "t": 215485,
      "d": 125,
      "v": 127
    },
    {
      "midi": 67,
      "hit": false,
      "t": 216240,
      "d": 120,
      "v": 127
    },
    {
      "midi": 71,
      "hit": false,
      "t": 216240,
      "d": 130,
      "v": 127
    },
    {
      "midi": 62,
      "hit": false,
      "t": 216240,
      "d": 140,
      "v": 127
    },
    {
      "midi": 55,
      "hit": false,
      "t": 216255,
      "d": 105,
      "v": 127
    },
    {
      "midi": 59,
      "hit": false,
      "t": 216255,
      "d": 115,
      "v": 127
    },
    {
      "midi": 74,
      "hit": false,
      "t": 216255,
      "d": 115,
      "v": 127
    },
    {
      "midi": 71,
      "hit": false,
      "t": 217050,
      "d": 120,
      "v": 127
    },
    {
      "midi": 67,
      "hit": false,
      "t": 217050,
      "d": 130,
      "v": 127
    },
    {
      "midi": 74,
      "hit": false,
      "t": 217060,
      "d": 120,
      "v": 127
    },
    {
      "midi": 59,
      "hit": false,
      "t": 217070,
      "d": 110,
      "v": 127
    },
    {
      "midi": 62,
      "hit": false,
      "t": 217070,
      "d": 110,
      "v": 127
    },
    {
      "midi": 55,
      "hit": false,
      "t": 217080,
      "d": 105,
      "v": 127
    },
    {
      "midi": 57,
      "hit": false,
      "t": 217090,
      "d": 70,
      "v": 127
    },
    {
      "midi": 56,
      "hit": false,
      "t": 217880,
      "d": 170,
      "v": 127
    },
    {
      "midi": 59,
      "hit": false,
      "t": 217890,
      "d": 135,
      "v": 127
    },
    {
      "midi": 68,
      "hit": false,
      "t": 217890,
      "d": 135,
      "v": 127
    },
    {
      "midi": 52,
      "hit": false,
      "t": 217905,
      "d": 110,
      "v": 127
    },
    {
      "midi": 64,
      "hit": false,
      "t": 217905,
      "d": 130,
      "v": 127
    },
    {
      "midi": 71,
      "hit": false,
      "t": 217905,
      "d": 130,
      "v": 127
    },
    {
      "midi": 68,
      "hit": false,
      "t": 218680,
      "d": 130,
      "v": 127
    },
    {
      "midi": 56,
      "hit": false,
      "t": 218685,
      "d": 135,
      "v": 127
    },
    {
      "midi": 64,
      "hit": false,
      "t": 218690,
      "d": 105,
      "v": 127
    },
    {
      "midi": 71,
      "hit": false,
      "t": 218690,
      "d": 110,
      "v": 127
    },
    {
      "midi": 59,
      "hit": false,
      "t": 218690,
      "d": 130,
      "v": 127
    },
    {
      "midi": 52,
      "hit": false,
      "t": 218700,
      "d": 110,
      "v": 127
    },
    {
      "midi": 68,
      "hit": false,
      "t": 219515,
      "d": 125,
      "v": 127
    },
    {
      "midi": 71,
      "hit": false,
      "t": 219525,
      "d": 120,
      "v": 127
    },
    {
      "midi": 59,
      "hit": false,
      "t": 219525,
      "d": 130,
      "v": 127
    },
    {
      "midi": 64,
      "hit": false,
      "t": 219525,
      "d": 130,
      "v": 127
    },
    {
      "midi": 56,
      "hit": false,
      "t": 219525,
      "d": 140,
      "v": 127
    },
    {
      "midi": 52,
      "hit": false,
      "t": 219540,
      "d": 100,
      "v": 127
    },
    {
      "midi": 68,
      "hit": false,
      "t": 220325,
      "d": 150,
      "v": 127
    },
    {
      "midi": 64,
      "hit": false,
      "t": 220335,
      "d": 140,
      "v": 127
    },
    {
      "midi": 71,
      "hit": false,
      "t": 220335,
      "d": 165,
      "v": 127
    },
    {
      "midi": 56,
      "hit": false,
      "t": 220350,
      "d": 150,
      "v": 127
    },
    {
      "midi": 59,
      "hit": false,
      "t": 220350,
      "d": 175,
      "v": 127
    },
    {
      "midi": 52,
      "hit": false,
      "t": 220355,
      "d": 155,
      "v": 127
    },
    {
      "midi": 69,
      "hit": false,
      "t": 221095,
      "d": 165,
      "v": 127
    },
    {
      "midi": 72,
      "hit": false,
      "t": 221100,
      "d": 135,
      "v": 127
    },
    {
      "midi": 76,
      "hit": false,
      "t": 221110,
      "d": 125,
      "v": 127
    },
    {
      "midi": 60,
      "hit": false,
      "t": 221120,
      "d": 155,
      "v": 127
    },
    {
      "midi": 64,
      "hit": false,
      "t": 221130,
      "d": 120,
      "v": 127
    },
    {
      "midi": 57,
      "hit": false,
      "t": 221130,
      "d": 150,
      "v": 127
    },
    {
      "midi": 72,
      "hit": false,
      "t": 221880,
      "d": 115,
      "v": 127
    },
    {
      "midi": 69,
      "hit": false,
      "t": 221880,
      "d": 125,
      "v": 127
    },
    {
      "midi": 76,
      "hit": false,
      "t": 221895,
      "d": 115,
      "v": 127
    },
    {
      "midi": 60,
      "hit": false,
      "t": 221895,
      "d": 135,
      "v": 127
    },
    {
      "midi": 64,
      "hit": false,
      "t": 221895,
      "d": 135,
      "v": 127
    },
    {
      "midi": 57,
      "hit": false,
      "t": 221905,
      "d": 115,
      "v": 127
    },
    {
      "midi": 72,
      "hit": false,
      "t": 222675,
      "d": 115,
      "v": 127
    },
    {
      "midi": 69,
      "hit": false,
      "t": 222675,
      "d": 125,
      "v": 127
    },
    {
      "midi": 76,
      "hit": false,
      "t": 222690,
      "d": 115,
      "v": 127
    },
    {
      "midi": 60,
      "hit": false,
      "t": 222690,
      "d": 135,
      "v": 127
    },
    {
      "midi": 64,
      "hit": false,
      "t": 222690,
      "d": 135,
      "v": 127
    },
    {
      "midi": 57,
      "hit": false,
      "t": 222700,
      "d": 115,
      "v": 127
    },
    {
      "midi": 72,
      "hit": false,
      "t": 223455,
      "d": 105,
      "v": 127
    },
    {
      "midi": 69,
      "hit": false,
      "t": 223455,
      "d": 120,
      "v": 127
    },
    {
      "midi": 76,
      "hit": false,
      "t": 223465,
      "d": 120,
      "v": 127
    },
    {
      "midi": 60,
      "hit": false,
      "t": 223480,
      "d": 110,
      "v": 127
    },
    {
      "midi": 64,
      "hit": false,
      "t": 223480,
      "d": 115,
      "v": 127
    },
    {
      "midi": 57,
      "hit": false,
      "t": 223480,
      "d": 120,
      "v": 127
    },
    {
      "midi": 70,
      "hit": false,
      "t": 224255,
      "d": 585,
      "v": 127
    },
    {
      "midi": 62,
      "hit": false,
      "t": 224265,
      "d": 595,
      "v": 127
    },
    {
      "midi": 74,
      "hit": false,
      "t": 224265,
      "d": 595,
      "v": 127
    },
    {
      "midi": 58,
      "hit": false,
      "t": 224265,
      "d": 605,
      "v": 127
    },
    {
      "midi": 65,
      "hit": false,
      "t": 224275,
      "d": 580,
      "v": 127
    },
    {
      "midi": 77,
      "hit": false,
      "t": 224280,
      "d": 590,
      "v": 127
    },
    {
      "midi": 65,
      "hit": false,
      "t": 225015,
      "d": 1435,
      "v": 127
    },
    {
      "midi": 70,
      "hit": false,
      "t": 225030,
      "d": 210,
      "v": 127
    },
    {
      "midi": 77,
      "hit": false,
      "t": 225030,
      "d": 215,
      "v": 127
    },
    {
      "midi": 74,
      "hit": false,
      "t": 225030,
      "d": 260,
      "v": 127
    },
    {
      "midi": 62,
      "hit": false,
      "t": 225030,
      "d": 945,
      "v": 127
    },
    {
      "midi": 58,
      "hit": false,
      "t": 225030,
      "d": 1420,
      "v": 127
    },
    {
      "midi": 70,
      "hit": false,
      "t": 225435,
      "d": 255,
      "v": 127
    },
    {
      "midi": 74,
      "hit": false,
      "t": 225575,
      "d": 285,
      "v": 127
    },
    {
      "midi": 77,
      "hit": false,
      "t": 225795,
      "d": 675,
      "v": 127
    },
    {
      "midi": 74,
      "hit": false,
      "t": 226220,
      "d": 255,
      "v": 127
    },
    {
      "midi": 70,
      "hit": false,
      "t": 226240,
      "d": 200,
      "v": 127
    },
    {
      "midi": 62,
      "hit": false,
      "t": 226250,
      "d": 220,
      "v": 127
    },
    {
      "midi": 65,
      "hit": false,
      "t": 226590,
      "d": 355,
      "v": 127
    },
    {
      "midi": 77,
      "hit": false,
      "t": 226600,
      "d": 270,
      "v": 127
    },
    {
      "midi": 70,
      "hit": false,
      "t": 226600,
      "d": 295,
      "v": 127
    },
    {
      "midi": 74,
      "hit": false,
      "t": 226600,
      "d": 295,
      "v": 127
    },
    {
      "midi": 58,
      "hit": false,
      "t": 226600,
      "d": 325,
      "v": 127
    },
    {
      "midi": 62,
      "hit": false,
      "t": 226600,
      "d": 330,
      "v": 127
    },
    {
      "midi": 65,
      "hit": false,
      "t": 227030,
      "d": 100,
      "v": 127
    },
    {
      "midi": 58,
      "hit": false,
      "t": 227040,
      "d": 110,
      "v": 127
    },
    {
      "midi": 62,
      "hit": false,
      "t": 227040,
      "d": 110,
      "v": 127
    },
    {
      "midi": 70,
      "hit": false,
      "t": 227045,
      "d": 135,
      "v": 127
    },
    {
      "midi": 74,
      "hit": false,
      "t": 227050,
      "d": 130,
      "v": 127
    },
    {
      "midi": 77,
      "hit": false,
      "t": 227050,
      "d": 130,
      "v": 127
    },
    {
      "midi": 52,
      "hit": false,
      "t": 227475,
      "d": 695,
      "v": 127
    },
    {
      "midi": 55,
      "hit": false,
      "t": 227480,
      "d": 650,
      "v": 127
    },
    {
      "midi": 48,
      "hit": false,
      "t": 227495,
      "d": 620,
      "v": 127
    },
    {
      "midi": 60,
      "hit": false,
      "t": 227810,
      "d": 320,
      "v": 127
    },
    {
      "midi": 64,
      "hit": false,
      "t": 228000,
      "d": 155,
      "v": 127
    },
    {
      "midi": 48,
      "hit": false,
      "t": 228210,
      "d": 620,
      "v": 127
    },
    {
      "midi": 55,
      "hit": false,
      "t": 228210,
      "d": 650,
      "v": 127
    },
    {
      "midi": 67,
      "hit": false,
      "t": 228220,
      "d": 410,
      "v": 127
    },
    {
      "midi": 60,
      "hit": false,
      "t": 228220,
      "d": 430,
      "v": 127
    },
    {
      "midi": 64,
      "hit": false,
      "t": 228220,
      "d": 435,
      "v": 127
    },
    {
      "midi": 52,
      "hit": false,
      "t": 228615,
      "d": 235,
      "v": 127
    },
    {
      "midi": 64,
      "hit": false,
      "t": 228770,
      "d": 990,
      "v": 127
    },
    {
      "midi": 67,
      "hit": false,
      "t": 228780,
      "d": 950,
      "v": 127
    },
    {
      "midi": 60,
      "hit": false,
      "t": 228780,
      "d": 970,
      "v": 127
    },
    {
      "midi": 52,
      "hit": false,
      "t": 228965,
      "d": 435,
      "v": 127
    },
    {
      "midi": 55,
      "hit": false,
      "t": 228970,
      "d": 280,
      "v": 127
    },
    {
      "midi": 48,
      "hit": false,
      "t": 228975,
      "d": 295,
      "v": 127
    },
    {
      "midi": 48,
      "hit": false,
      "t": 229385,
      "d": 335,
      "v": 127
    },
    {
      "midi": 55,
      "hit": false,
      "t": 229400,
      "d": 330,
      "v": 127
    },
    {
      "midi": 55,
      "hit": false,
      "t": 229810,
      "d": 465,
      "v": 127
    },
    {
      "midi": 60,
      "hit": false,
      "t": 229820,
      "d": 430,
      "v": 127
    },
    {
      "midi": 52,
      "hit": false,
      "t": 229820,
      "d": 475,
      "v": 127
    },
    {
      "midi": 48,
      "hit": false,
      "t": 229830,
      "d": 420,
      "v": 127
    },
    {
      "midi": 64,
      "hit": false,
      "t": 229830,
      "d": 430,
      "v": 127
    },
    {
      "midi": 67,
      "hit": false,
      "t": 229830,
      "d": 450,
      "v": 127
    },
    {
      "midi": 54,
      "hit": false,
      "t": 230450,
      "d": 110,
      "v": 127
    },
    {
      "midi": 66,
      "hit": false,
      "t": 230660,
      "d": 2480,
      "v": 127
    },
    {
      "midi": 57,
      "hit": false,
      "t": 230660,
      "d": 2700,
      "v": 127
    },
    {
      "midi": 54,
      "hit": false,
      "t": 230660,
      "d": 2725,
      "v": 127
    },
    {
      "midi": 62,
      "hit": false,
      "t": 230670,
      "d": 2455,
      "v": 127
    },
    {
      "midi": 69,
      "hit": false,
      "t": 230670,
      "d": 2460,
      "v": 127
    },
    {
      "midi": 50,
      "hit": false,
      "t": 230670,
      "d": 2690,
      "v": 127
    },
    {
      "midi": 56,
      "hit": false,
      "t": 233870,
      "d": 5625,
      "v": 127
    },
    {
      "midi": 68,
      "hit": false,
      "t": 233880,
      "d": 1925,
      "v": 127
    },
    {
      "midi": 52,
      "hit": false,
      "t": 233890,
      "d": 5580,
      "v": 127
    },
    {
      "midi": 59,
      "hit": false,
      "t": 233890,
      "d": 5615,
      "v": 127
    },
    {
      "midi": 64,
      "hit": false,
      "t": 233900,
      "d": 1790,
      "v": 127
    },
    {
      "midi": 71,
      "hit": false,
      "t": 233900,
      "d": 1800,
      "v": 127
    },
    {
      "midi": 64,
      "hit": false,
      "t": 235790,
      "d": 260,
      "v": 127
    },
    {
      "midi": 68,
      "hit": false,
      "t": 235950,
      "d": 240,
      "v": 127
    },
    {
      "midi": 71,
      "hit": false,
      "t": 236160,
      "d": 290,
      "v": 127
    },
    {
      "midi": 68,
      "hit": false,
      "t": 236350,
      "d": 250,
      "v": 127
    },
    {
      "midi": 64,
      "hit": false,
      "t": 236570,
      "d": 2480,
      "v": 127
    },
    {
      "midi": 76,
      "hit": false,
      "t": 237015,
      "d": 2025,
      "v": 127
    },
    {
      "midi": 57,
      "hit": false,
      "t": 240190,
      "d": 1550,
      "v": 127
    },
    {
      "midi": 61,
      "hit": false,
      "t": 240610,
      "d": 1235,
      "v": 127
    },
    {
      "midi": 64,
      "hit": false,
      "t": 241010,
      "d": 745,
      "v": 127
    },
    {
      "midi": 69,
      "hit": false,
      "t": 241410,
      "d": 355,
      "v": 127
    },
    {
      "midi": 69,
      "hit": false,
      "t": 241820,
      "d": 775,
      "v": 127
    },
    {
      "midi": 57,
      "hit": false,
      "t": 241820,
      "d": 1355,
      "v": 127
    },
    {
      "midi": 64,
      "hit": false,
      "t": 241830,
      "d": 575,
      "v": 127
    },
    {
      "midi": 73,
      "hit": false,
      "t": 241830,
      "d": 770,
      "v": 127
    },
    {
      "midi": 76,
      "hit": false,
      "t": 241845,
      "d": 740,
      "v": 127
    },
    {
      "midi": 61,
      "hit": false,
      "t": 242250,
      "d": 935,
      "v": 127
    },
    {
      "midi": 73,
      "hit": false,
      "t": 242675,
      "d": 865,
      "v": 127
    },
    {
      "midi": 76,
      "hit": false,
      "t": 242685,
      "d": 845,
      "v": 127
    },
    {
      "midi": 69,
      "hit": false,
      "t": 242685,
      "d": 865,
      "v": 127
    },
    {
      "midi": 64,
      "hit": false,
      "t": 243060,
      "d": 110,
      "v": 127
    },
    {
      "midi": 56,
      "hit": false,
      "t": 243485,
      "d": 2385,
      "v": 127
    },
    {
      "midi": 59,
      "hit": false,
      "t": 243500,
      "d": 2310,
      "v": 127
    },
    {
      "midi": 52,
      "hit": false,
      "t": 243520,
      "d": 2270,
      "v": 127
    },
    {
      "midi": 64,
      "hit": false,
      "t": 243895,
      "d": 535,
      "v": 127
    },
    {
      "midi": 68,
      "hit": false,
      "t": 244265,
      "d": 470,
      "v": 127
    },
    {
      "midi": 71,
      "hit": false,
      "t": 244675,
      "d": 430,
      "v": 127
    },
    {
      "midi": 68,
      "hit": false,
      "t": 245060,
      "d": 460,
      "v": 127
    },
    {
      "midi": 64,
      "hit": false,
      "t": 245470,
      "d": 360,
      "v": 127
    },
    {
      "midi": 64,
      "hit": false,
      "t": 245880,
      "d": 840,
      "v": 127
    },
    {
      "midi": 68,
      "hit": false,
      "t": 245880,
      "d": 880,
      "v": 127
    },
    {
      "midi": 52,
      "hit": false,
      "t": 245890,
      "d": 440,
      "v": 127
    },
    {
      "midi": 59,
      "hit": false,
      "t": 245890,
      "d": 455,
      "v": 127
    },
    {
      "midi": 71,
      "hit": false,
      "t": 245905,
      "d": 835,
      "v": 127
    },
    {
      "midi": 56,
      "hit": false,
      "t": 246265,
      "d": 105,
      "v": 127
    },
    {
      "midi": 61,
      "hit": false,
      "t": 246655,
      "d": 2325,
      "v": 127
    },
    {
      "midi": 54,
      "hit": false,
      "t": 246690,
      "d": 2220,
      "v": 127
    },
    {
      "midi": 57,
      "hit": false,
      "t": 246695,
      "d": 2320,
      "v": 127
    },
    {
      "midi": 66,
      "hit": false,
      "t": 247020,
      "d": 505,
      "v": 127
    },
    {
      "midi": 69,
      "hit": false,
      "t": 247425,
      "d": 435,
      "v": 127
    },
    {
      "midi": 73,
      "hit": false,
      "t": 247795,
      "d": 465,
      "v": 127
    },
    {
      "midi": 69,
      "hit": false,
      "t": 248195,
      "d": 725,
      "v": 127
    },
    {
      "midi": 66,
      "hit": false,
      "t": 248595,
      "d": 335,
      "v": 127
    },
    {
      "midi": 61,
      "hit": false,
      "t": 248995,
      "d": 525,
      "v": 127
    },
    {
      "midi": 66,
      "hit": false,
      "t": 249005,
      "d": 850,
      "v": 127
    },
    {
      "midi": 73,
      "hit": false,
      "t": 249015,
      "d": 830,
      "v": 127
    },
    {
      "midi": 54,
      "hit": false,
      "t": 249025,
      "d": 450,
      "v": 127
    },
    {
      "midi": 69,
      "hit": false,
      "t": 249025,
      "d": 855,
      "v": 127
    },
    {
      "midi": 57,
      "hit": false,
      "t": 249415,
      "d": 115,
      "v": 127
    },
    {
      "midi": 61,
      "hit": false,
      "t": 249815,
      "d": 2360,
      "v": 127
    },
    {
      "midi": 64,
      "hit": false,
      "t": 249825,
      "d": 2300,
      "v": 127
    },
    {
      "midi": 57,
      "hit": false,
      "t": 249845,
      "d": 2250,
      "v": 127
    },
    {
      "midi": 69,
      "hit": false,
      "t": 250220,
      "d": 455,
      "v": 127
    },
    {
      "midi": 73,
      "hit": false,
      "t": 250620,
      "d": 435,
      "v": 127
    },
    {
      "midi": 76,
      "hit": false,
      "t": 251020,
      "d": 420,
      "v": 127
    },
    {
      "midi": 73,
      "hit": false,
      "t": 251430,
      "d": 470,
      "v": 127
    },
    {
      "midi": 69,
      "hit": false,
      "t": 251815,
      "d": 335,
      "v": 127
    },
    {
      "midi": 69,
      "hit": false,
      "t": 252180,
      "d": 870,
      "v": 127
    },
    {
      "midi": 73,
      "hit": false,
      "t": 252185,
      "d": 875,
      "v": 127
    },
    {
      "midi": 64,
      "hit": false,
      "t": 252195,
      "d": 465,
      "v": 127
    },
    {
      "midi": 57,
      "hit": false,
      "t": 252195,
      "d": 480,
      "v": 127
    },
    {
      "midi": 76,
      "hit": false,
      "t": 252195,
      "d": 855,
      "v": 127
    },
    {
      "midi": 61,
      "hit": false,
      "t": 252585,
      "d": 105,
      "v": 127
    },
    {
      "midi": 50,
      "hit": false,
      "t": 253020,
      "d": 2325,
      "v": 127
    },
    {
      "midi": 57,
      "hit": false,
      "t": 253030,
      "d": 2325,
      "v": 127
    },
    {
      "midi": 62,
      "hit": false,
      "t": 253410,
      "d": 500,
      "v": 127
    },
    {
      "midi": 66,
      "hit": false,
      "t": 253830,
      "d": 415,
      "v": 127
    },
    {
      "midi": 69,
      "hit": false,
      "t": 254215,
      "d": 450,
      "v": 127
    },
    {
      "midi": 66,
      "hit": false,
      "t": 254620,
      "d": 440,
      "v": 127
    },
    {
      "midi": 62,
      "hit": false,
      "t": 255015,
      "d": 350,
      "v": 127
    },
    {
      "midi": 62,
      "hit": false,
      "t": 255425,
      "d": 810,
      "v": 127
    },
    {
      "midi": 66,
      "hit": false,
      "t": 255425,
      "d": 845,
      "v": 127
    },
    {
      "midi": 50,
      "hit": false,
      "t": 255440,
      "d": 455,
      "v": 127
    },
    {
      "midi": 57,
      "hit": false,
      "t": 255440,
      "d": 485,
      "v": 127
    },
    {
      "midi": 69,
      "hit": false,
      "t": 255440,
      "d": 840,
      "v": 127
    },
    {
      "midi": 54,
      "hit": false,
      "t": 255805,
      "d": 120,
      "v": 127
    },
    {
      "midi": 56,
      "hit": false,
      "t": 256205,
      "d": 2380,
      "v": 127
    },
    {
      "midi": 59,
      "hit": false,
      "t": 256215,
      "d": 2315,
      "v": 127
    },
    {
      "midi": 52,
      "hit": false,
      "t": 256225,
      "d": 2275,
      "v": 127
    },
    {
      "midi": 64,
      "hit": false,
      "t": 256630,
      "d": 500,
      "v": 127
    },
    {
      "midi": 68,
      "hit": false,
      "t": 257050,
      "d": 425,
      "v": 127
    },
    {
      "midi": 71,
      "hit": false,
      "t": 257440,
      "d": 440,
      "v": 127
    },
    {
      "midi": 68,
      "hit": false,
      "t": 257815,
      "d": 445,
      "v": 127
    },
    {
      "midi": 64,
      "hit": false,
      "t": 258230,
      "d": 310,
      "v": 127
    },
    {
      "midi": 68,
      "hit": false,
      "t": 258595,
      "d": 830,
      "v": 127
    },
    {
      "midi": 64,
      "hit": false,
      "t": 258600,
      "d": 455,
      "v": 127
    },
    {
      "midi": 71,
      "hit": false,
      "t": 258610,
      "d": 870,
      "v": 127
    },
    {
      "midi": 59,
      "hit": false,
      "t": 258620,
      "d": 460,
      "v": 127
    },
    {
      "midi": 52,
      "hit": false,
      "t": 258635,
      "d": 415,
      "v": 127
    },
    {
      "midi": 56,
      "hit": false,
      "t": 258975,
      "d": 130,
      "v": 127
    },
    {
      "midi": 61,
      "hit": false,
      "t": 259390,
      "d": 3170,
      "v": 127
    },
    {
      "midi": 64,
      "hit": false,
      "t": 259400,
      "d": 3030,
      "v": 127
    },
    {
      "midi": 57,
      "hit": false,
      "t": 259420,
      "d": 2960,
      "v": 127
    },
    {
      "midi": 69,
      "hit": false,
      "t": 260240,
      "d": 385,
      "v": 127
    },
    {
      "midi": 73,
      "hit": false,
      "t": 260595,
      "d": 430,
      "v": 127
    },
    {
      "midi": 76,
      "hit": false,
      "t": 261020,
      "d": 455,
      "v": 127
    },
    {
      "midi": 73,
      "hit": false,
      "t": 261415,
      "d": 435,
      "v": 127
    },
    {
      "midi": 69,
      "hit": false,
      "t": 261830,
      "d": 615,
      "v": 127
    },
    {
      "midi": 73,
      "hit": false,
      "t": 262180,
      "d": 2060,
      "v": 127
    },
    {
      "midi": 57,
      "hit": false,
      "t": 262550,
      "d": 1295,
      "v": 127
    },
    {
      "midi": 64,
      "hit": false,
      "t": 262560,
      "d": 550,
      "v": 127
    },
    {
      "midi": 76,
      "hit": false,
      "t": 262570,
      "d": 1650,
      "v": 127
    },
    {
      "midi": 69,
      "hit": false,
      "t": 262570,
      "d": 1660,
      "v": 127
    },
    {
      "midi": 61,
      "hit": false,
      "t": 262995,
      "d": 540,
      "v": 127
    },
    {
      "midi": 64,
      "hit": false,
      "t": 263420,
      "d": 420,
      "v": 127
    },
    {
      "midi": 61,
      "hit": false,
      "t": 263760,
      "d": 110,
      "v": 127
    },
    {
      "midi": 49,
      "hit": false,
      "t": 264190,
      "d": 670,
      "v": 127
    },
    {
      "midi": 56,
      "hit": false,
      "t": 264190,
      "d": 690,
      "v": 127
    },
    {
      "midi": 53,
      "hit": false,
      "t": 264200,
      "d": 765,
      "v": 127
    },
    {
      "midi": 61,
      "hit": false,
      "t": 264925,
      "d": 910,
      "v": 127
    },
    {
      "midi": 68,
      "hit": false,
      "t": 264940,
      "d": 945,
      "v": 127
    },
    {
      "midi": 56,
      "hit": false,
      "t": 264950,
      "d": 560,
      "v": 127
    },
    {
      "midi": 49,
      "hit": false,
      "t": 264965,
      "d": 485,
      "v": 127
    },
    {
      "midi": 65,
      "hit": false,
      "t": 264965,
      "d": 905,
      "v": 127
    },
    {
      "midi": 53,
      "hit": false,
      "t": 265355,
      "d": 160,
      "v": 127
    },
    {
      "midi": 57,
      "hit": false,
      "t": 265780,
      "d": 2340,
      "v": 127
    },
    {
      "midi": 50,
      "hit": false,
      "t": 265790,
      "d": 2280,
      "v": 127
    },
    {
      "midi": 54,
      "hit": false,
      "t": 265790,
      "d": 2370,
      "v": 127
    },
    {
      "midi": 62,
      "hit": false,
      "t": 266205,
      "d": 475,
      "v": 127
    },
    {
      "midi": 66,
      "hit": false,
      "t": 266595,
      "d": 460,
      "v": 127
    },
    {
      "midi": 69,
      "hit": false,
      "t": 267005,
      "d": 465,
      "v": 127
    },
    {
      "midi": 66,
      "hit": false,
      "t": 267400,
      "d": 745,
      "v": 127
    },
    {
      "midi": 62,
      "hit": false,
      "t": 267790,
      "d": 345,
      "v": 127
    },
    {
      "midi": 57,
      "hit": false,
      "t": 268195,
      "d": 500,
      "v": 127
    },
    {
      "midi": 62,
      "hit": false,
      "t": 268195,
      "d": 770,
      "v": 127
    },
    {
      "midi": 66,
      "hit": false,
      "t": 268195,
      "d": 805,
      "v": 127
    },
    {
      "midi": 69,
      "hit": false,
      "t": 268210,
      "d": 800,
      "v": 127
    },
    {
      "midi": 50,
      "hit": false,
      "t": 268220,
      "d": 450,
      "v": 127
    },
    {
      "midi": 54,
      "hit": false,
      "t": 268590,
      "d": 120,
      "v": 127
    },
    {
      "midi": 59,
      "hit": false,
      "t": 269000,
      "d": 2305,
      "v": 127
    },
    {
      "midi": 56,
      "hit": false,
      "t": 269020,
      "d": 2345,
      "v": 127
    },
    {
      "midi": 52,
      "hit": false,
      "t": 269035,
      "d": 2240,
      "v": 127
    },
    {
      "midi": 64,
      "hit": false,
      "t": 269400,
      "d": 490,
      "v": 127
    },
    {
      "midi": 68,
      "hit": false,
      "t": 269800,
      "d": 450,
      "v": 127
    },
    {
      "midi": 71,
      "hit": false,
      "t": 270240,
      "d": 405,
      "v": 127
    },
    {
      "midi": 68,
      "hit": false,
      "t": 270570,
      "d": 480,
      "v": 127
    },
    {
      "midi": 64,
      "hit": false,
      "t": 270980,
      "d": 325,
      "v": 127
    },
    {
      "midi": 64,
      "hit": false,
      "t": 271365,
      "d": 860,
      "v": 127
    },
    {
      "midi": 68,
      "hit": false,
      "t": 271365,
      "d": 925,
      "v": 127
    },
    {
      "midi": 59,
      "hit": false,
      "t": 271380,
      "d": 500,
      "v": 127
    },
    {
      "midi": 71,
      "hit": false,
      "t": 271380,
      "d": 845,
      "v": 127
    },
    {
      "midi": 52,
      "hit": false,
      "t": 271390,
      "d": 430,
      "v": 127
    },
    {
      "midi": 56,
      "hit": false,
      "t": 271765,
      "d": 130,
      "v": 127
    },
    {
      "midi": 61,
      "hit": false,
      "t": 272180,
      "d": 730,
      "v": 127
    },
    {
      "midi": 57,
      "hit": false,
      "t": 272210,
      "d": 730,
      "v": 127
    },
    {
      "midi": 54,
      "hit": false,
      "t": 272215,
      "d": 655,
      "v": 127
    },
    {
      "midi": 61,
      "hit": false,
      "t": 272935,
      "d": 540,
      "v": 127
    },
    {
      "midi": 54,
      "hit": false,
      "t": 272955,
      "d": 490,
      "v": 127
    },
    {
      "midi": 66,
      "hit": false,
      "t": 272955,
      "d": 815,
      "v": 127
    },
    {
      "midi": 73,
      "hit": false,
      "t": 272955,
      "d": 835,
      "v": 127
    },
    {
      "midi": 69,
      "hit": false,
      "t": 272970,
      "d": 820,
      "v": 127
    },
    {
      "midi": 57,
      "hit": false,
      "t": 273335,
      "d": 160,
      "v": 127
    },
    {
      "midi": 59,
      "hit": false,
      "t": 273730,
      "d": 735,
      "v": 127
    },
    {
      "midi": 56,
      "hit": false,
      "t": 273730,
      "d": 745,
      "v": 127
    },
    {
      "midi": 52,
      "hit": false,
      "t": 273760,
      "d": 680,
      "v": 127
    },
    {
      "midi": 52,
      "hit": false,
      "t": 274525,
      "d": 495,
      "v": 127
    },
    {
      "midi": 59,
      "hit": false,
      "t": 274525,
      "d": 515,
      "v": 127
    },
    {
      "midi": 68,
      "hit": false,
      "t": 274540,
      "d": 905,
      "v": 127
    },
    {
      "midi": 71,
      "hit": false,
      "t": 274550,
      "d": 860,
      "v": 127
    },
    {
      "midi": 64,
      "hit": false,
      "t": 274550,
      "d": 865,
      "v": 127
    },
    {
      "midi": 56,
      "hit": false,
      "t": 274935,
      "d": 105,
      "v": 127
    },
    {
      "midi": 61,
      "hit": false,
      "t": 275355,
      "d": 755,
      "v": 127
    },
    {
      "midi": 57,
      "hit": false,
      "t": 275380,
      "d": 750,
      "v": 127
    },
    {
      "midi": 54,
      "hit": false,
      "t": 275390,
      "d": 680,
      "v": 127
    },
    {
      "midi": 66,
      "hit": false,
      "t": 275750,
      "d": 355,
      "v": 127
    },
    {
      "midi": 61,
      "hit": false,
      "t": 276120,
      "d": 560,
      "v": 127
    },
    {
      "midi": 54,
      "hit": false,
      "t": 276145,
      "d": 515,
      "v": 127
    },
    {
      "midi": 66,
      "hit": false,
      "t": 276145,
      "d": 955,
      "v": 127
    },
    {
      "midi": 69,
      "hit": false,
      "t": 276160,
      "d": 915,
      "v": 127
    },
    {
      "midi": 73,
      "hit": false,
      "t": 276160,
      "d": 925,
      "v": 127
    },
    {
      "midi": 57,
      "hit": false,
      "t": 276580,
      "d": 140,
      "v": 127
    },
    {
      "midi": 56,
      "hit": false,
      "t": 276950,
      "d": 705,
      "v": 127
    },
    {
      "midi": 53,
      "hit": false,
      "t": 276975,
      "d": 735,
      "v": 127
    },
    {
      "midi": 49,
      "hit": false,
      "t": 276985,
      "d": 635,
      "v": 127
    },
    {
      "midi": 65,
      "hit": false,
      "t": 277495,
      "d": 175,
      "v": 127
    },
    {
      "midi": 49,
      "hit": false,
      "t": 277745,
      "d": 545,
      "v": 127
    },
    {
      "midi": 56,
      "hit": false,
      "t": 277745,
      "d": 590,
      "v": 127
    },
    {
      "midi": 61,
      "hit": false,
      "t": 277745,
      "d": 855,
      "v": 127
    },
    {
      "midi": 68,
      "hit": false,
      "t": 277745,
      "d": 915,
      "v": 127
    },
    {
      "midi": 65,
      "hit": false,
      "t": 277755,
      "d": 885,
      "v": 127
    },
    {
      "midi": 53,
      "hit": false,
      "t": 278160,
      "d": 195,
      "v": 127
    },
    {
      "midi": 54,
      "hit": false,
      "t": 278540,
      "d": 790,
      "v": 127
    },
    {
      "midi": 57,
      "hit": false,
      "t": 278550,
      "d": 710,
      "v": 127
    },
    {
      "midi": 50,
      "hit": false,
      "t": 278570,
      "d": 665,
      "v": 127
    },
    {
      "midi": 66,
      "hit": false,
      "t": 279360,
      "d": 475,
      "v": 127
    },
    {
      "midi": 50,
      "hit": false,
      "t": 279360,
      "d": 645,
      "v": 127
    },
    {
      "midi": 57,
      "hit": false,
      "t": 279360,
      "d": 660,
      "v": 127
    },
    {
      "midi": 69,
      "hit": false,
      "t": 279375,
      "d": 420,
      "v": 127
    },
    {
      "midi": 62,
      "hit": false,
      "t": 279375,
      "d": 445,
      "v": 127
    },
    {
      "midi": 54,
      "hit": false,
      "t": 279770,
      "d": 300,
      "v": 127
    },
    {
      "midi": 62,
      "hit": false,
      "t": 279955,
      "d": 935,
      "v": 127
    },
    {
      "midi": 66,
      "hit": false,
      "t": 279955,
      "d": 950,
      "v": 127
    },
    {
      "midi": 69,
      "hit": false,
      "t": 279965,
      "d": 895,
      "v": 127
    },
    {
      "midi": 57,
      "hit": false,
      "t": 280175,
      "d": 705,
      "v": 127
    },
    {
      "midi": 50,
      "hit": false,
      "t": 280180,
      "d": 690,
      "v": 127
    },
    {
      "midi": 54,
      "hit": false,
      "t": 280545,
      "d": 385,
      "v": 127
    },
    {
      "midi": 66,
      "hit": false,
      "t": 280970,
      "d": 860,
      "v": 127
    },
    {
      "midi": 57,
      "hit": false,
      "t": 280980,
      "d": 530,
      "v": 127
    },
    {
      "midi": 62,
      "hit": false,
      "t": 280980,
      "d": 805,
      "v": 127
    },
    {
      "midi": 50,
      "hit": false,
      "t": 280990,
      "d": 480,
      "v": 127
    },
    {
      "midi": 69,
      "hit": false,
      "t": 280990,
      "d": 825,
      "v": 127
    },
    {
      "midi": 54,
      "hit": false,
      "t": 281380,
      "d": 130,
      "v": 127
    },
    {
      "midi": 56,
      "hit": false,
      "t": 281765,
      "d": 785,
      "v": 127
    },
    {
      "midi": 59,
      "hit": false,
      "t": 281775,
      "d": 740,
      "v": 127
    },
    {
      "midi": 52,
      "hit": false,
      "t": 281785,
      "d": 710,
      "v": 127
    },
    {
      "midi": 64,
      "hit": false,
      "t": 282170,
      "d": 365,
      "v": 127
    },
    {
      "midi": 64,
      "hit": false,
      "t": 282580,
      "d": 450,
      "v": 127
    },
    {
      "midi": 68,
      "hit": false,
      "t": 282580,
      "d": 465,
      "v": 127
    },
    {
      "midi": 71,
      "hit": false,
      "t": 282595,
      "d": 415,
      "v": 127
    },
    {
      "midi": 52,
      "hit": false,
      "t": 282595,
      "d": 655,
      "v": 127
    },
    {
      "midi": 59,
      "hit": false,
      "t": 282595,
      "d": 665,
      "v": 127
    },
    {
      "midi": 56,
      "hit": false,
      "t": 282985,
      "d": 310,
      "v": 127
    },
    {
      "midi": 64,
      "hit": false,
      "t": 283190,
      "d": 805,
      "v": 127
    },
    {
      "midi": 68,
      "hit": false,
      "t": 283190,
      "d": 835,
      "v": 127
    },
    {
      "midi": 71,
      "hit": false,
      "t": 283200,
      "d": 770,
      "v": 127
    },
    {
      "midi": 59,
      "hit": false,
      "t": 283370,
      "d": 630,
      "v": 127
    },
    {
      "midi": 52,
      "hit": false,
      "t": 283380,
      "d": 600,
      "v": 127
    },
    {
      "midi": 56,
      "hit": false,
      "t": 283765,
      "d": 290,
      "v": 127
    },
    {
      "midi": 68,
      "hit": false,
      "t": 284100,
      "d": 500,
      "v": 127
    },
    {
      "midi": 64,
      "hit": false,
      "t": 284105,
      "d": 460,
      "v": 127
    },
    {
      "midi": 71,
      "hit": false,
      "t": 284105,
      "d": 505,
      "v": 127
    },
    {
      "midi": 52,
      "hit": false,
      "t": 284130,
      "d": 445,
      "v": 127
    },
    {
      "midi": 59,
      "hit": false,
      "t": 284130,
      "d": 485,
      "v": 127
    },
    {
      "midi": 56,
      "hit": false,
      "t": 284490,
      "d": 135,
      "v": 127
    },
    {
      "midi": 61,
      "hit": false,
      "t": 284890,
      "d": 750,
      "v": 127
    },
    {
      "midi": 64,
      "hit": false,
      "t": 284915,
      "d": 660,
      "v": 127
    },
    {
      "midi": 57,
      "hit": false,
      "t": 284920,
      "d": 640,
      "v": 127
    },
    {
      "midi": 69,
      "hit": false,
      "t": 284920,
      "d": 700,
      "v": 127
    },
    {
      "midi": 73,
      "hit": false,
      "t": 284925,
      "d": 730,
      "v": 127
    },
    {
      "midi": 76,
      "hit": false,
      "t": 284935,
      "d": 665,
      "v": 127
    },
    {
      "midi": 64,
      "hit": false,
      "t": 285720,
      "d": 520,
      "v": 127
    },
    {
      "midi": 57,
      "hit": false,
      "t": 285720,
      "d": 560,
      "v": 127
    },
    {
      "midi": 73,
      "hit": false,
      "t": 285730,
      "d": 850,
      "v": 127
    },
    {
      "midi": 69,
      "hit": false,
      "t": 285740,
      "d": 800,
      "v": 127
    },
    {
      "midi": 76,
      "hit": false,
      "t": 285740,
      "d": 810,
      "v": 127
    },
    {
      "midi": 61,
      "hit": false,
      "t": 286150,
      "d": 135,
      "v": 127
    },
    {
      "midi": 56,
      "hit": false,
      "t": 286530,
      "d": 790,
      "v": 127
    },
    {
      "midi": 59,
      "hit": false,
      "t": 286550,
      "d": 675,
      "v": 127
    },
    {
      "midi": 52,
      "hit": false,
      "t": 286560,
      "d": 635,
      "v": 127
    },
    {
      "midi": 52,
      "hit": false,
      "t": 287330,
      "d": 495,
      "v": 127
    },
    {
      "midi": 59,
      "hit": false,
      "t": 287340,
      "d": 510,
      "v": 127
    },
    {
      "midi": 68,
      "hit": false,
      "t": 287350,
      "d": 940,
      "v": 127
    },
    {
      "midi": 64,
      "hit": false,
      "t": 287360,
      "d": 870,
      "v": 127
    },
    {
      "midi": 71,
      "hit": false,
      "t": 287365,
      "d": 865,
      "v": 127
    },
    {
      "midi": 56,
      "hit": false,
      "t": 287745,
      "d": 120,
      "v": 127
    },
    {
      "midi": 61,
      "hit": false,
      "t": 288135,
      "d": 805,
      "v": 127
    },
    {
      "midi": 57,
      "hit": false,
      "t": 288150,
      "d": 830,
      "v": 127
    },
    {
      "midi": 54,
      "hit": false,
      "t": 288160,
      "d": 690,
      "v": 127
    },
    {
      "midi": 61,
      "hit": false,
      "t": 288955,
      "d": 910,
      "v": 127
    },
    {
      "midi": 54,
      "hit": false,
      "t": 288980,
      "d": 1255,
      "v": 127
    },
    {
      "midi": 66,
      "hit": false,
      "t": 288990,
      "d": 400,
      "v": 127
    },
    {
      "midi": 73,
      "hit": false,
      "t": 289000,
      "d": 380,
      "v": 127
    },
    {
      "midi": 69,
      "hit": false,
      "t": 289000,
      "d": 400,
      "v": 127
    },
    {
      "midi": 57,
      "hit": false,
      "t": 289350,
      "d": 325,
      "v": 127
    },
    {
      "midi": 69,
      "hit": false,
      "t": 289535,
      "d": 975,
      "v": 127
    },
    {
      "midi": 66,
      "hit": false,
      "t": 289545,
      "d": 915,
      "v": 127
    },
    {
      "midi": 73,
      "hit": false,
      "t": 289545,
      "d": 945,
      "v": 127
    },
    {
      "midi": 57,
      "hit": false,
      "t": 289775,
      "d": 265,
      "v": 127
    },
    {
      "midi": 61,
      "hit": false,
      "t": 289965,
      "d": 565,
      "v": 127
    },
    {
      "midi": 57,
      "hit": false,
      "t": 290165,
      "d": 420,
      "v": 127
    },
    {
      "midi": 54,
      "hit": false,
      "t": 290340,
      "d": 205,
      "v": 127
    },
    {
      "midi": 73,
      "hit": false,
      "t": 290550,
      "d": 895,
      "v": 127
    },
    {
      "midi": 66,
      "hit": false,
      "t": 290560,
      "d": 860,
      "v": 127
    },
    {
      "midi": 69,
      "hit": false,
      "t": 290560,
      "d": 895,
      "v": 127
    },
    {
      "midi": 54,
      "hit": false,
      "t": 290585,
      "d": 425,
      "v": 127
    },
    {
      "midi": 61,
      "hit": false,
      "t": 290585,
      "d": 445,
      "v": 127
    },
    {
      "midi": 57,
      "hit": false,
      "t": 290930,
      "d": 135,
      "v": 127
    },
    {
      "midi": 54,
      "hit": false,
      "t": 291290,
      "d": 825,
      "v": 127
    },
    {
      "midi": 57,
      "hit": false,
      "t": 291300,
      "d": 775,
      "v": 127
    },
    {
      "midi": 50,
      "hit": false,
      "t": 291320,
      "d": 720,
      "v": 127
    },
    {
      "midi": 62,
      "hit": false,
      "t": 291730,
      "d": 355,
      "v": 127
    },
    {
      "midi": 66,
      "hit": false,
      "t": 291995,
      "d": 75,
      "v": 127
    },
    {
      "midi": 66,
      "hit": false,
      "t": 292130,
      "d": 495,
      "v": 127
    },
    {
      "midi": 50,
      "hit": false,
      "t": 292140,
      "d": 350,
      "v": 127
    },
    {
      "midi": 62,
      "hit": false,
      "t": 292140,
      "d": 470,
      "v": 127
    },
    {
      "midi": 57,
      "hit": false,
      "t": 292140,
      "d": 690,
      "v": 127
    },
    {
      "midi": 69,
      "hit": false,
      "t": 292150,
      "d": 440,
      "v": 127
    },
    {
      "midi": 50,
      "hit": false,
      "t": 292515,
      "d": 310,
      "v": 127
    },
    {
      "midi": 54,
      "hit": false,
      "t": 292540,
      "d": 340,
      "v": 127
    },
    {
      "midi": 62,
      "hit": false,
      "t": 292750,
      "d": 790,
      "v": 127
    },
    {
      "midi": 66,
      "hit": false,
      "t": 292750,
      "d": 850,
      "v": 127
    },
    {
      "midi": 69,
      "hit": false,
      "t": 292755,
      "d": 745,
      "v": 127
    },
    {
      "midi": 50,
      "hit": false,
      "t": 292970,
      "d": 310,
      "v": 127
    },
    {
      "midi": 57,
      "hit": false,
      "t": 292970,
      "d": 620,
      "v": 127
    },
    {
      "midi": 50,
      "hit": false,
      "t": 293305,
      "d": 260,
      "v": 127
    },
    {
      "midi": 54,
      "hit": false,
      "t": 293340,
      "d": 315,
      "v": 127
    },
    {
      "midi": 66,
      "hit": false,
      "t": 293715,
      "d": 670,
      "v": 127
    },
    {
      "midi": 50,
      "hit": false,
      "t": 293725,
      "d": 565,
      "v": 127
    },
    {
      "midi": 57,
      "hit": false,
      "t": 293725,
      "d": 595,
      "v": 127
    },
    {
      "midi": 62,
      "hit": false,
      "t": 293725,
      "d": 625,
      "v": 127
    },
    {
      "midi": 69,
      "hit": false,
      "t": 293750,
      "d": 610,
      "v": 127
    },
    {
      "midi": 54,
      "hit": false,
      "t": 294155,
      "d": 185,
      "v": 127
    },
    {
      "midi": 64,
      "hit": false,
      "t": 294550,
      "d": 665,
      "v": 127
    },
    {
      "midi": 68,
      "hit": false,
      "t": 294550,
      "d": 705,
      "v": 127
    },
    {
      "midi": 71,
      "hit": false,
      "t": 294560,
      "d": 635,
      "v": 127
    },
    {
      "midi": 59,
      "hit": false,
      "t": 294570,
      "d": 660,
      "v": 127
    },
    {
      "midi": 56,
      "hit": false,
      "t": 294570,
      "d": 715,
      "v": 127
    },
    {
      "midi": 52,
      "hit": false,
      "t": 294580,
      "d": 620,
      "v": 127
    },
    {
      "midi": 68,
      "hit": false,
      "t": 295345,
      "d": 705,
      "v": 127
    },
    {
      "midi": 52,
      "hit": false,
      "t": 295350,
      "d": 690,
      "v": 127
    },
    {
      "midi": 71,
      "hit": false,
      "t": 295355,
      "d": 650,
      "v": 127
    },
    {
      "midi": 64,
      "hit": false,
      "t": 295355,
      "d": 665,
      "v": 127
    },
    {
      "midi": 59,
      "hit": false,
      "t": 295365,
      "d": 685,
      "v": 127
    },
    {
      "midi": 64,
      "hit": false,
      "t": 296140,
      "d": 290,
      "v": 127
    },
    {
      "midi": 68,
      "hit": false,
      "t": 296140,
      "d": 330,
      "v": 127
    },
    {
      "midi": 71,
      "hit": false,
      "t": 296150,
      "d": 280,
      "v": 127
    },
    {
      "midi": 59,
      "hit": false,
      "t": 296170,
      "d": 445,
      "v": 127
    },
    {
      "midi": 56,
      "hit": false,
      "t": 296170,
      "d": 490,
      "v": 127
    },
    {
      "midi": 52,
      "hit": false,
      "t": 296195,
      "d": 400,
      "v": 127
    },
    {
      "midi": 64,
      "hit": false,
      "t": 296555,
      "d": 220,
      "v": 127
    },
    {
      "midi": 68,
      "hit": false,
      "t": 296555,
      "d": 260,
      "v": 127
    },
    {
      "midi": 71,
      "hit": false,
      "t": 296575,
      "d": 195,
      "v": 127
    },
    {
      "midi": 56,
      "hit": false,
      "t": 296730,
      "d": 280,
      "v": 127
    },
    {
      "midi": 59,
      "hit": false,
      "t": 296735,
      "d": 215,
      "v": 127
    },
    {
      "midi": 52,
      "hit": false,
      "t": 296745,
      "d": 195,
      "v": 127
    },
    {
      "midi": 68,
      "hit": false,
      "t": 296905,
      "d": 270,
      "v": 127
    },
    {
      "midi": 64,
      "hit": false,
      "t": 296915,
      "d": 220,
      "v": 127
    },
    {
      "midi": 71,
      "hit": false,
      "t": 296915,
      "d": 220,
      "v": 127
    },
    {
      "midi": 59,
      "hit": false,
      "t": 297080,
      "d": 290,
      "v": 127
    },
    {
      "midi": 56,
      "hit": false,
      "t": 297080,
      "d": 450,
      "v": 127
    },
    {
      "midi": 52,
      "hit": false,
      "t": 297090,
      "d": 400,
      "v": 127
    },
    {
      "midi": 64,
      "hit": false,
      "t": 297260,
      "d": 205,
      "v": 127
    },
    {
      "midi": 68,
      "hit": false,
      "t": 297260,
      "d": 230,
      "v": 127
    },
    {
      "midi": 71,
      "hit": false,
      "t": 297265,
      "d": 230,
      "v": 127
    },
    {
      "midi": 59,
      "hit": false,
      "t": 297390,
      "d": 110,
      "v": 127
    },
    {
      "midi": 65,
      "hit": false,
      "t": 297720,
      "d": 645,
      "v": 127
    },
    {
      "midi": 69,
      "hit": false,
      "t": 297720,
      "d": 670,
      "v": 127
    },
    {
      "midi": 72,
      "hit": false,
      "t": 297730,
      "d": 650,
      "v": 127
    },
    {
      "midi": 60,
      "hit": false,
      "t": 297740,
      "d": 690,
      "v": 127
    },
    {
      "midi": 57,
      "hit": false,
      "t": 297740,
      "d": 725,
      "v": 127
    },
    {
      "midi": 53,
      "hit": false,
      "t": 297750,
      "d": 660,
      "v": 127
    },
    {
      "midi": 53,
      "hit": false,
      "t": 298540,
      "d": 680,
      "v": 127
    },
    {
      "midi": 60,
      "hit": false,
      "t": 298545,
      "d": 695,
      "v": 127
    },
    {
      "midi": 72,
      "hit": false,
      "t": 298555,
      "d": 445,
      "v": 127
    },
    {
      "midi": 65,
      "hit": false,
      "t": 298555,
      "d": 450,
      "v": 127
    },
    {
      "midi": 69,
      "hit": false,
      "t": 298555,
      "d": 460,
      "v": 127
    },
    {
      "midi": 57,
      "hit": false,
      "t": 298950,
      "d": 330,
      "v": 127
    },
    {
      "midi": 65,
      "hit": false,
      "t": 299155,
      "d": 840,
      "v": 127
    },
    {
      "midi": 69,
      "hit": false,
      "t": 299155,
      "d": 855,
      "v": 127
    },
    {
      "midi": 72,
      "hit": false,
      "t": 299160,
      "d": 825,
      "v": 127
    },
    {
      "midi": 53,
      "hit": false,
      "t": 299325,
      "d": 670,
      "v": 127
    },
    {
      "midi": 60,
      "hit": false,
      "t": 299330,
      "d": 700,
      "v": 127
    },
    {
      "midi": 57,
      "hit": false,
      "t": 299735,
      "d": 340,
      "v": 127
    },
    {
      "midi": 69,
      "hit": false,
      "t": 300135,
      "d": 575,
      "v": 127
    },
    {
      "midi": 72,
      "hit": false,
      "t": 300135,
      "d": 575,
      "v": 127
    },
    {
      "midi": 53,
      "hit": false,
      "t": 300145,
      "d": 515,
      "v": 127
    },
    {
      "midi": 60,
      "hit": false,
      "t": 300145,
      "d": 545,
      "v": 127
    },
    {
      "midi": 65,
      "hit": false,
      "t": 300145,
      "d": 550,
      "v": 127
    },
    {
      "midi": 57,
      "hit": false,
      "t": 300520,
      "d": 180,
      "v": 127
    },
    {
      "midi": 71,
      "hit": false,
      "t": 300890,
      "d": 615,
      "v": 127
    },
    {
      "midi": 74,
      "hit": false,
      "t": 300900,
      "d": 570,
      "v": 127
    },
    {
      "midi": 67,
      "hit": false,
      "t": 300900,
      "d": 580,
      "v": 127
    },
    {
      "midi": 62,
      "hit": false,
      "t": 300900,
      "d": 660,
      "v": 127
    },
    {
      "midi": 55,
      "hit": false,
      "t": 300910,
      "d": 620,
      "v": 127
    },
    {
      "midi": 59,
      "hit": false,
      "t": 300910,
      "d": 680,
      "v": 127
    },
    {
      "midi": 57,
      "hit": false,
      "t": 300940,
      "d": 40,
      "v": 127
    },
    {
      "midi": 59,
      "hit": false,
      "t": 301730,
      "d": 640,
      "v": 127
    },
    {
      "midi": 67,
      "hit": false,
      "t": 301740,
      "d": 415,
      "v": 127
    },
    {
      "midi": 71,
      "hit": false,
      "t": 301740,
      "d": 430,
      "v": 127
    },
    {
      "midi": 55,
      "hit": false,
      "t": 301740,
      "d": 590,
      "v": 127
    },
    {
      "midi": 62,
      "hit": false,
      "t": 301740,
      "d": 630,
      "v": 127
    },
    {
      "midi": 74,
      "hit": false,
      "t": 301750,
      "d": 390,
      "v": 127
    },
    {
      "midi": 71,
      "hit": false,
      "t": 302340,
      "d": 750,
      "v": 127
    },
    {
      "midi": 74,
      "hit": false,
      "t": 302350,
      "d": 705,
      "v": 127
    },
    {
      "midi": 67,
      "hit": false,
      "t": 302350,
      "d": 730,
      "v": 127
    },
    {
      "midi": 55,
      "hit": false,
      "t": 302525,
      "d": 310,
      "v": 127
    },
    {
      "midi": 62,
      "hit": false,
      "t": 302525,
      "d": 310,
      "v": 127
    },
    {
      "midi": 59,
      "hit": false,
      "t": 302535,
      "d": 305,
      "v": 127
    },
    {
      "midi": 55,
      "hit": false,
      "t": 302935,
      "d": 205,
      "v": 127
    },
    {
      "midi": 62,
      "hit": false,
      "t": 302935,
      "d": 205,
      "v": 127
    },
    {
      "midi": 59,
      "hit": false,
      "t": 302935,
      "d": 215,
      "v": 127
    },
    {
      "midi": 67,
      "hit": false,
      "t": 303295,
      "d": 335,
      "v": 127
    },
    {
      "midi": 71,
      "hit": false,
      "t": 303300,
      "d": 350,
      "v": 127
    },
    {
      "midi": 62,
      "hit": false,
      "t": 303305,
      "d": 300,
      "v": 127
    },
    {
      "midi": 74,
      "hit": false,
      "t": 303305,
      "d": 310,
      "v": 127
    },
    {
      "midi": 55,
      "hit": false,
      "t": 303320,
      "d": 320,
      "v": 127
    },
    {
      "midi": 59,
      "hit": false,
      "t": 303320,
      "d": 320,
      "v": 127
    },
    {
      "midi": 64,
      "hit": false,
      "t": 304100,
      "d": 700,
      "v": 127
    },
    {
      "midi": 55,
      "hit": false,
      "t": 304110,
      "d": 665,
      "v": 127
    },
    {
      "midi": 67,
      "hit": false,
      "t": 304110,
      "d": 665,
      "v": 127
    },
    {
      "midi": 52,
      "hit": false,
      "t": 304110,
      "d": 675,
      "v": 127
    },
    {
      "midi": 60,
      "hit": false,
      "t": 304110,
      "d": 675,
      "v": 127
    },
    {
      "midi": 48,
      "hit": false,
      "t": 304120,
      "d": 625,
      "v": 127
    },
    {
      "midi": 52,
      "hit": false,
      "t": 304910,
      "d": 505,
      "v": 127
    },
    {
      "midi": 55,
      "hit": false,
      "t": 304920,
      "d": 495,
      "v": 127
    },
    {
      "midi": 48,
      "hit": false,
      "t": 304930,
      "d": 455,
      "v": 127
    },
    {
      "midi": 60,
      "hit": false,
      "t": 304930,
      "d": 485,
      "v": 127
    },
    {
      "midi": 64,
      "hit": false,
      "t": 304930,
      "d": 540,
      "v": 127
    },
    {
      "midi": 67,
      "hit": false,
      "t": 304940,
      "d": 550,
      "v": 127
    },
    {
      "midi": 62,
      "hit": false,
      "t": 305705,
      "d": 710,
      "v": 127
    },
    {
      "midi": 59,
      "hit": false,
      "t": 305705,
      "d": 760,
      "v": 127
    },
    {
      "midi": 55,
      "hit": false,
      "t": 305720,
      "d": 655,
      "v": 127
    },
    {
      "midi": 67,
      "hit": false,
      "t": 306095,
      "d": 340,
      "v": 127
    },
    {
      "midi": 71,
      "hit": false,
      "t": 306505,
      "d": 665,
      "v": 127
    },
    {
      "midi": 55,
      "hit": false,
      "t": 306515,
      "d": 625,
      "v": 127
    },
    {
      "midi": 67,
      "hit": false,
      "t": 306515,
      "d": 630,
      "v": 127
    },
    {
      "midi": 74,
      "hit": false,
      "t": 306515,
      "d": 645,
      "v": 127
    },
    {
      "midi": 62,
      "hit": false,
      "t": 306515,
      "d": 655,
      "v": 127
    },
    {
      "midi": 59,
      "hit": false,
      "t": 306940,
      "d": 230,
      "v": 127
    },
    {
      "midi": 72,
      "hit": false,
      "t": 307360,
      "d": 700,
      "v": 127
    },
    {
      "midi": 60,
      "hit": false,
      "t": 307360,
      "d": 710,
      "v": 127
    },
    {
      "midi": 69,
      "hit": false,
      "t": 307370,
      "d": 665,
      "v": 127
    },
    {
      "midi": 64,
      "hit": false,
      "t": 307370,
      "d": 675,
      "v": 127
    },
    {
      "midi": 76,
      "hit": false,
      "t": 307375,
      "d": 670,
      "v": 127
    },
    {
      "midi": 57,
      "hit": false,
      "t": 307380,
      "d": 635,
      "v": 127
    },
    {
      "midi": 64,
      "hit": false,
      "t": 308170,
      "d": 600,
      "v": 127
    },
    {
      "midi": 60,
      "hit": false,
      "t": 308170,
      "d": 620,
      "v": 127
    },
    {
      "midi": 69,
      "hit": false,
      "t": 308175,
      "d": 355,
      "v": 127
    },
    {
      "midi": 72,
      "hit": false,
      "t": 308175,
      "d": 405,
      "v": 127
    },
    {
      "midi": 76,
      "hit": false,
      "t": 308190,
      "d": 340,
      "v": 127
    },
    {
      "midi": 57,
      "hit": false,
      "t": 308190,
      "d": 560,
      "v": 127
    },
    {
      "midi": 69,
      "hit": false,
      "t": 308730,
      "d": 235,
      "v": 127
    },
    {
      "midi": 76,
      "hit": false,
      "t": 308730,
      "d": 260,
      "v": 127
    },
    {
      "midi": 72,
      "hit": false,
      "t": 308730,
      "d": 265,
      "v": 127
    },
    {
      "midi": 60,
      "hit": false,
      "t": 308905,
      "d": 235,
      "v": 127
    },
    {
      "midi": 57,
      "hit": false,
      "t": 308910,
      "d": 225,
      "v": 127
    },
    {
      "midi": 64,
      "hit": false,
      "t": 308915,
      "d": 245,
      "v": 127
    },
    {
      "midi": 76,
      "hit": false,
      "t": 309070,
      "d": 515,
      "v": 127
    },
    {
      "midi": 69,
      "hit": false,
      "t": 309070,
      "d": 530,
      "v": 127
    },
    {
      "midi": 72,
      "hit": false,
      "t": 309070,
      "d": 550,
      "v": 127
    },
    {
      "midi": 64,
      "hit": false,
      "t": 309290,
      "d": 320,
      "v": 127
    },
    {
      "midi": 60,
      "hit": false,
      "t": 309290,
      "d": 345,
      "v": 127
    },
    {
      "midi": 57,
      "hit": false,
      "t": 309300,
      "d": 285,
      "v": 127
    },
    {
      "midi": 69,
      "hit": false,
      "t": 309710,
      "d": 650,
      "v": 127
    },
    {
      "midi": 72,
      "hit": false,
      "t": 309710,
      "d": 760,
      "v": 127
    },
    {
      "midi": 60,
      "hit": false,
      "t": 309715,
      "d": 465,
      "v": 127
    },
    {
      "midi": 76,
      "hit": false,
      "t": 309720,
      "d": 690,
      "v": 127
    },
    {
      "midi": 57,
      "hit": false,
      "t": 309730,
      "d": 420,
      "v": 127
    },
    {
      "midi": 64,
      "hit": false,
      "t": 309730,
      "d": 430,
      "v": 127
    },
    {
      "midi": 57,
      "hit": false,
      "t": 310490,
      "d": 775,
      "v": 127
    },
    {
      "midi": 60,
      "hit": false,
      "t": 310495,
      "d": 740,
      "v": 127
    },
    {
      "midi": 53,
      "hit": false,
      "t": 310510,
      "d": 700,
      "v": 127
    },
    {
      "midi": 65,
      "hit": false,
      "t": 310905,
      "d": 335,
      "v": 127
    },
    {
      "midi": 65,
      "hit": false,
      "t": 311300,
      "d": 455,
      "v": 127
    },
    {
      "midi": 69,
      "hit": false,
      "t": 311305,
      "d": 460,
      "v": 127
    },
    {
      "midi": 72,
      "hit": false,
      "t": 311315,
      "d": 420,
      "v": 127
    },
    {
      "midi": 53,
      "hit": false,
      "t": 311335,
      "d": 680,
      "v": 127
    },
    {
      "midi": 60,
      "hit": false,
      "t": 311335,
      "d": 710,
      "v": 127
    },
    {
      "midi": 57,
      "hit": false,
      "t": 311700,
      "d": 350,
      "v": 127
    },
    {
      "midi": 69,
      "hit": false,
      "t": 311920,
      "d": 875,
      "v": 127
    },
    {
      "midi": 72,
      "hit": false,
      "t": 311930,
      "d": 820,
      "v": 127
    },
    {
      "midi": 65,
      "hit": false,
      "t": 311930,
      "d": 865,
      "v": 127
    },
    {
      "midi": 57,
      "hit": false,
      "t": 312135,
      "d": 295,
      "v": 127
    },
    {
      "midi": 60,
      "hit": false,
      "t": 312150,
      "d": 260,
      "v": 127
    },
    {
      "midi": 53,
      "hit": false,
      "t": 312160,
      "d": 245,
      "v": 127
    },
    {
      "midi": 60,
      "hit": false,
      "t": 312545,
      "d": 290,
      "v": 127
    },
    {
      "midi": 57,
      "hit": false,
      "t": 312545,
      "d": 335,
      "v": 127
    },
    {
      "midi": 53,
      "hit": false,
      "t": 312565,
      "d": 255,
      "v": 127
    },
    {
      "midi": 65,
      "hit": false,
      "t": 312925,
      "d": 650,
      "v": 127
    },
    {
      "midi": 72,
      "hit": false,
      "t": 312930,
      "d": 645,
      "v": 127
    },
    {
      "midi": 69,
      "hit": false,
      "t": 312930,
      "d": 660,
      "v": 127
    },
    {
      "midi": 60,
      "hit": false,
      "t": 312950,
      "d": 230,
      "v": 127
    },
    {
      "midi": 57,
      "hit": false,
      "t": 312950,
      "d": 255,
      "v": 127
    },
    {
      "midi": 53,
      "hit": false,
      "t": 312960,
      "d": 220,
      "v": 127
    },
    {
      "midi": 57,
      "hit": false,
      "t": 313345,
      "d": 185,
      "v": 127
    },
    {
      "midi": 53,
      "hit": false,
      "t": 313355,
      "d": 145,
      "v": 127
    },
    {
      "midi": 60,
      "hit": false,
      "t": 313355,
      "d": 175,
      "v": 127
    },
    {
      "midi": 59,
      "hit": false,
      "t": 313740,
      "d": 660,
      "v": 127
    },
    {
      "midi": 67,
      "hit": false,
      "t": 313740,
      "d": 660,
      "v": 127
    },
    {
      "midi": 71,
      "hit": false,
      "t": 313740,
      "d": 670,
      "v": 127
    },
    {
      "midi": 62,
      "hit": false,
      "t": 313745,
      "d": 635,
      "v": 127
    },
    {
      "midi": 74,
      "hit": false,
      "t": 313750,
      "d": 635,
      "v": 127
    },
    {
      "midi": 55,
      "hit": false,
      "t": 313760,
      "d": 590,
      "v": 127
    },
    {
      "midi": 62,
      "hit": false,
      "t": 314485,
      "d": 685,
      "v": 127
    },
    {
      "midi": 67,
      "hit": false,
      "t": 314485,
      "d": 695,
      "v": 127
    },
    {
      "midi": 71,
      "hit": false,
      "t": 314485,
      "d": 695,
      "v": 127
    },
    {
      "midi": 59,
      "hit": false,
      "t": 314485,
      "d": 720,
      "v": 127
    },
    {
      "midi": 74,
      "hit": false,
      "t": 314490,
      "d": 650,
      "v": 127
    },
    {
      "midi": 55,
      "hit": false,
      "t": 314510,
      "d": 600,
      "v": 127
    },
    {
      "midi": 62,
      "hit": false,
      "t": 315290,
      "d": 600,
      "v": 127
    },
    {
      "midi": 59,
      "hit": false,
      "t": 315290,
      "d": 630,
      "v": 127
    },
    {
      "midi": 55,
      "hit": false,
      "t": 315295,
      "d": 570,
      "v": 127
    },
    {
      "midi": 74,
      "hit": false,
      "t": 315300,
      "d": 575,
      "v": 127
    },
    {
      "midi": 67,
      "hit": false,
      "t": 315300,
      "d": 620,
      "v": 127
    },
    {
      "midi": 71,
      "hit": false,
      "t": 315300,
      "d": 635,
      "v": 127
    },
    {
      "midi": 71,
      "hit": false,
      "t": 316055,
      "d": 205,
      "v": 127
    },
    {
      "midi": 62,
      "hit": false,
      "t": 316055,
      "d": 280,
      "v": 127
    },
    {
      "midi": 59,
      "hit": false,
      "t": 316055,
      "d": 295,
      "v": 127
    },
    {
      "midi": 67,
      "hit": false,
      "t": 316060,
      "d": 210,
      "v": 127
    },
    {
      "midi": 74,
      "hit": false,
      "t": 316065,
      "d": 135,
      "v": 127
    },
    {
      "midi": 55,
      "hit": false,
      "t": 316080,
      "d": 280,
      "v": 127
    },
    {
      "midi": 60,
      "hit": false,
      "t": 316950,
      "d": 720,
      "v": 127
    },
    {
      "midi": 67,
      "hit": false,
      "t": 316955,
      "d": 705,
      "v": 127
    },
    {
      "midi": 64,
      "hit": false,
      "t": 316955,
      "d": 745,
      "v": 127
    },
    {
      "midi": 48,
      "hit": false,
      "t": 316965,
      "d": 685,
      "v": 127
    },
    {
      "midi": 52,
      "hit": false,
      "t": 316965,
      "d": 760,
      "v": 127
    },
    {
      "midi": 55,
      "hit": false,
      "t": 316970,
      "d": 705,
      "v": 127
    },
    {
      "midi": 48,
      "hit": false,
      "t": 317760,
      "d": 490,
      "v": 127
    },
    {
      "midi": 55,
      "hit": false,
      "t": 317765,
      "d": 510,
      "v": 127
    },
    {
      "midi": 60,
      "hit": false,
      "t": 317775,
      "d": 525,
      "v": 127
    },
    {
      "midi": 64,
      "hit": false,
      "t": 317775,
      "d": 730,
      "v": 127
    },
    {
      "midi": 67,
      "hit": false,
      "t": 317775,
      "d": 770,
      "v": 127
    },
    {
      "midi": 52,
      "hit": false,
      "t": 318175,
      "d": 110,
      "v": 127
    },
    {
      "midi": 62,
      "hit": false,
      "t": 318560,
      "d": 730,
      "v": 127
    },
    {
      "midi": 59,
      "hit": false,
      "t": 318560,
      "d": 780,
      "v": 127
    },
    {
      "midi": 55,
      "hit": false,
      "t": 318590,
      "d": 660,
      "v": 127
    },
    {
      "midi": 67,
      "hit": false,
      "t": 318940,
      "d": 365,
      "v": 127
    },
    {
      "midi": 67,
      "hit": false,
      "t": 319340,
      "d": 800,
      "v": 127
    },
    {
      "midi": 71,
      "hit": false,
      "t": 319350,
      "d": 830,
      "v": 127
    },
    {
      "midi": 74,
      "hit": false,
      "t": 319350,
      "d": 830,
      "v": 127
    },
    {
      "midi": 55,
      "hit": false,
      "t": 319360,
      "d": 475,
      "v": 127
    },
    {
      "midi": 62,
      "hit": false,
      "t": 319360,
      "d": 495,
      "v": 127
    },
    {
      "midi": 64,
      "hit": false,
      "t": 320110,
      "d": 745,
      "v": 127
    },
    {
      "midi": 57,
      "hit": false,
      "t": 320120,
      "d": 700,
      "v": 127
    },
    {
      "midi": 69,
      "hit": false,
      "t": 320525,
      "d": 335,
      "v": 127
    },
    {
      "midi": 64,
      "hit": false,
      "t": 320915,
      "d": 455,
      "v": 127
    },
    {
      "midi": 57,
      "hit": false,
      "t": 320915,
      "d": 1375,
      "v": 127
    },
    {
      "midi": 72,
      "hit": false,
      "t": 320930,
      "d": 1565,
      "v": 127
    },
    {
      "midi": 76,
      "hit": false,
      "t": 320940,
      "d": 1490,
      "v": 127
    },
    {
      "midi": 69,
      "hit": false,
      "t": 320940,
      "d": 1530,
      "v": 127
    },
    {
      "midi": 60,
      "hit": false,
      "t": 321340,
      "d": 580,
      "v": 127
    },
    {
      "midi": 64,
      "hit": false,
      "t": 321755,
      "d": 690,
      "v": 127
    },
    {
      "midi": 60,
      "hit": false,
      "t": 322130,
      "d": 450,
      "v": 127
    },
    {
      "midi": 64,
      "hit": false,
      "t": 322535,
      "d": 490,
      "v": 127
    },
    {
      "midi": 57,
      "hit": false,
      "t": 322535,
      "d": 505,
      "v": 127
    },
    {
      "midi": 69,
      "hit": false,
      "t": 322550,
      "d": 805,
      "v": 127
    },
    {
      "midi": 72,
      "hit": false,
      "t": 322550,
      "d": 840,
      "v": 127
    },
    {
      "midi": 76,
      "hit": false,
      "t": 322560,
      "d": 805,
      "v": 127
    },
    {
      "midi": 53,
      "hit": false,
      "t": 323335,
      "d": 695,
      "v": 127
    },
    {
      "midi": 60,
      "hit": false,
      "t": 323345,
      "d": 745,
      "v": 127
    },
    {
      "midi": 65,
      "hit": false,
      "t": 323720,
      "d": 345,
      "v": 127
    },
    {
      "midi": 60,
      "hit": false,
      "t": 324120,
      "d": 470,
      "v": 127
    },
    {
      "midi": 65,
      "hit": false,
      "t": 324130,
      "d": 1525,
      "v": 127
    },
    {
      "midi": 69,
      "hit": false,
      "t": 324130,
      "d": 1560,
      "v": 127
    },
    {
      "midi": 53,
      "hit": false,
      "t": 324145,
      "d": 905,
      "v": 127
    },
    {
      "midi": 72,
      "hit": false,
      "t": 324145,
      "d": 1435,
      "v": 127
    },
    {
      "midi": 57,
      "hit": false,
      "t": 324525,
      "d": 275,
      "v": 127
    },
    {
      "midi": 60,
      "hit": false,
      "t": 324715,
      "d": 940,
      "v": 127
    },
    {
      "midi": 57,
      "hit": false,
      "t": 324940,
      "d": 760,
      "v": 127
    },
    {
      "midi": 53,
      "hit": false,
      "t": 325335,
      "d": 300,
      "v": 127
    },
    {
      "midi": 53,
      "hit": false,
      "t": 325725,
      "d": 430,
      "v": 127
    },
    {
      "midi": 60,
      "hit": false,
      "t": 325735,
      "d": 460,
      "v": 127
    },
    {
      "midi": 65,
      "hit": false,
      "t": 325745,
      "d": 760,
      "v": 127
    },
    {
      "midi": 69,
      "hit": false,
      "t": 325745,
      "d": 810,
      "v": 127
    },
    {
      "midi": 72,
      "hit": false,
      "t": 325755,
      "d": 755,
      "v": 127
    },
    {
      "midi": 62,
      "hit": false,
      "t": 326540,
      "d": 785,
      "v": 127
    },
    {
      "midi": 55,
      "hit": false,
      "t": 326565,
      "d": 720,
      "v": 127
    },
    {
      "midi": 67,
      "hit": false,
      "t": 326940,
      "d": 390,
      "v": 127
    },
    {
      "midi": 62,
      "hit": false,
      "t": 327360,
      "d": 430,
      "v": 127
    },
    {
      "midi": 55,
      "hit": false,
      "t": 327365,
      "d": 1020,
      "v": 127
    },
    {
      "midi": 67,
      "hit": false,
      "t": 327375,
      "d": 2285,
      "v": 127
    },
    {
      "midi": 71,
      "hit": false,
      "t": 327390,
      "d": 2300,
      "v": 127
    },
    {
      "midi": 74,
      "hit": false,
      "t": 327405,
      "d": 2260,
      "v": 127
    },
    {
      "midi": 59,
      "hit": false,
      "t": 327740,
      "d": 310,
      "v": 127
    },
    {
      "midi": 62,
      "hit": false,
      "t": 327930,
      "d": 1365,
      "v": 127
    },
    {
      "midi": 59,
      "hit": false,
      "t": 328300,
      "d": 1030,
      "v": 127
    },
    {
      "midi": 55,
      "hit": false,
      "t": 328510,
      "d": 820,
      "v": 127
    },
    {
      "midi": 55,
      "hit": false,
      "t": 329740,
      "d": 715,
      "v": 127
    },
    {
      "midi": 48,
      "hit": false,
      "t": 329750,
      "d": 645,
      "v": 127
    },
    {
      "midi": 55,
      "hit": false,
      "t": 330500,
      "d": 395,
      "v": 127
    },
    {
      "midi": 48,
      "hit": false,
      "t": 330525,
      "d": 345,
      "v": 127
    },
    {
      "midi": 60,
      "hit": false,
      "t": 330530,
      "d": 485,
      "v": 127
    },
    {
      "midi": 64,
      "hit": false,
      "t": 330535,
      "d": 705,
      "v": 127
    },
    {
      "midi": 67,
      "hit": false,
      "t": 330545,
      "d": 735,
      "v": 127
    },
    {
      "midi": 62,
      "hit": false,
      "t": 331310,
      "d": 1320,
      "v": 127
    },
    {
      "midi": 55,
      "hit": false,
      "t": 331320,
      "d": 690,
      "v": 127
    },
    {
      "midi": 59,
      "hit": false,
      "t": 331320,
      "d": 800,
      "v": 127
    },
    {
      "midi": 67,
      "hit": false,
      "t": 331755,
      "d": 360,
      "v": 127
    },
    {
      "midi": 55,
      "hit": false,
      "t": 332130,
      "d": 460,
      "v": 127
    },
    {
      "midi": 74,
      "hit": false,
      "t": 332155,
      "d": 875,
      "v": 127
    },
    {
      "midi": 71,
      "hit": false,
      "t": 332155,
      "d": 885,
      "v": 127
    },
    {
      "midi": 67,
      "hit": false,
      "t": 332165,
      "d": 800,
      "v": 127
    },
    {
      "midi": 57,
      "hit": false,
      "t": 332890,
      "d": 2370,
      "v": 127
    },
    {
      "midi": 64,
      "hit": false,
      "t": 332900,
      "d": 2405,
      "v": 127
    },
    {
      "midi": 69,
      "hit": false,
      "t": 333325,
      "d": 1345,
      "v": 127
    },
    {
      "midi": 72,
      "hit": false,
      "t": 333720,
      "d": 490,
      "v": 127
    },
    {
      "midi": 76,
      "hit": false,
      "t": 334160,
      "d": 445,
      "v": 127
    },
    {
      "midi": 72,
      "hit": false,
      "t": 334510,
      "d": 750,
      "v": 127
    },
    {
      "midi": 69,
      "hit": false,
      "t": 334965,
      "d": 345,
      "v": 127
    },
    {
      "midi": 64,
      "hit": false,
      "t": 335340,
      "d": 445,
      "v": 127
    },
    {
      "midi": 69,
      "hit": false,
      "t": 335340,
      "d": 815,
      "v": 127
    },
    {
      "midi": 57,
      "hit": false,
      "t": 335355,
      "d": 455,
      "v": 127
    },
    {
      "midi": 76,
      "hit": false,
      "t": 335355,
      "d": 795,
      "v": 127
    },
    {
      "midi": 72,
      "hit": false,
      "t": 335355,
      "d": 840,
      "v": 127
    },
    {
      "midi": 53,
      "hit": false,
      "t": 336100,
      "d": 705,
      "v": 127
    },
    {
      "midi": 60,
      "hit": false,
      "t": 336130,
      "d": 720,
      "v": 127
    },
    {
      "midi": 65,
      "hit": false,
      "t": 336505,
      "d": 325,
      "v": 127
    },
    {
      "midi": 65,
      "hit": false,
      "t": 336875,
      "d": 1575,
      "v": 127
    },
    {
      "midi": 60,
      "hit": false,
      "t": 336885,
      "d": 440,
      "v": 127
    },
    {
      "midi": 72,
      "hit": false,
      "t": 336885,
      "d": 1495,
      "v": 127
    },
    {
      "midi": 69,
      "hit": false,
      "t": 336885,
      "d": 1585,
      "v": 127
    },
    {
      "midi": 53,
      "hit": false,
      "t": 336895,
      "d": 1475,
      "v": 127
    },
    {
      "midi": 57,
      "hit": false,
      "t": 337270,
      "d": 375,
      "v": 127
    },
    {
      "midi": 60,
      "hit": false,
      "t": 337480,
      "d": 950,
      "v": 127
    },
    {
      "midi": 60,
      "hit": false,
      "t": 338480,
      "d": 520,
      "v": 127
    },
    {
      "midi": 53,
      "hit": false,
      "t": 338495,
      "d": 470,
      "v": 127
    },
    {
      "midi": 65,
      "hit": false,
      "t": 338520,
      "d": 785,
      "v": 127
    },
    {
      "midi": 69,
      "hit": false,
      "t": 338520,
      "d": 920,
      "v": 127
    },
    {
      "midi": 72,
      "hit": false,
      "t": 338535,
      "d": 900,
      "v": 127
    },
    {
      "midi": 62,
      "hit": false,
      "t": 339315,
      "d": 1355,
      "v": 127
    },
    {
      "midi": 55,
      "hit": false,
      "t": 339340,
      "d": 715,
      "v": 127
    },
    {
      "midi": 67,
      "hit": false,
      "t": 339745,
      "d": 355,
      "v": 127
    },
    {
      "midi": 67,
      "hit": false,
      "t": 340120,
      "d": 1550,
      "v": 127
    },
    {
      "midi": 74,
      "hit": false,
      "t": 340130,
      "d": 1480,
      "v": 127
    },
    {
      "midi": 71,
      "hit": false,
      "t": 340130,
      "d": 1540,
      "v": 127
    },
    {
      "midi": 55,
      "hit": false,
      "t": 340150,
      "d": 1360,
      "v": 127
    },
    {
      "midi": 59,
      "hit": false,
      "t": 340585,
      "d": 670,
      "v": 127
    },
    {
      "midi": 62,
      "hit": false,
      "t": 340775,
      "d": 860,
      "v": 127
    },
    {
      "midi": 59,
      "hit": false,
      "t": 341350,
      "d": 385,
      "v": 127
    },
    {
      "midi": 62,
      "hit": false,
      "t": 341660,
      "d": 455,
      "v": 127
    },
    {
      "midi": 55,
      "hit": false,
      "t": 341680,
      "d": 450,
      "v": 127
    },
    {
      "midi": 67,
      "hit": false,
      "t": 341710,
      "d": 750,
      "v": 127
    },
    {
      "midi": 74,
      "hit": false,
      "t": 341715,
      "d": 755,
      "v": 127
    },
    {
      "midi": 71,
      "hit": false,
      "t": 341715,
      "d": 790,
      "v": 127
    },
    {
      "midi": 48,
      "hit": false,
      "t": 342460,
      "d": 710,
      "v": 127
    },
    {
      "midi": 55,
      "hit": false,
      "t": 342485,
      "d": 710,
      "v": 127
    },
    {
      "midi": 60,
      "hit": false,
      "t": 342890,
      "d": 345,
      "v": 127
    },
    {
      "midi": 64,
      "hit": false,
      "t": 343115,
      "d": 75,
      "v": 127
    },
    {
      "midi": 55,
      "hit": false,
      "t": 343255,
      "d": 415,
      "v": 127
    },
    {
      "midi": 48,
      "hit": false,
      "t": 343265,
      "d": 375,
      "v": 127
    },
    {
      "midi": 60,
      "hit": false,
      "t": 343265,
      "d": 555,
      "v": 127
    },
    {
      "midi": 64,
      "hit": false,
      "t": 343285,
      "d": 710,
      "v": 127
    },
    {
      "midi": 67,
      "hit": false,
      "t": 343290,
      "d": 790,
      "v": 127
    },
    {
      "midi": 55,
      "hit": false,
      "t": 344080,
      "d": 680,
      "v": 127
    },
    {
      "midi": 59,
      "hit": false,
      "t": 344085,
      "d": 810,
      "v": 127
    },
    {
      "midi": 62,
      "hit": false,
      "t": 344095,
      "d": 740,
      "v": 127
    },
    {
      "midi": 67,
      "hit": false,
      "t": 344475,
      "d": 385,
      "v": 127
    },
    {
      "midi": 55,
      "hit": false,
      "t": 344885,
      "d": 435,
      "v": 127
    },
    {
      "midi": 62,
      "hit": false,
      "t": 344885,
      "d": 445,
      "v": 127
    },
    {
      "midi": 67,
      "hit": false,
      "t": 344905,
      "d": 870,
      "v": 127
    },
    {
      "midi": 74,
      "hit": false,
      "t": 344910,
      "d": 880,
      "v": 127
    },
    {
      "midi": 71,
      "hit": false,
      "t": 344910,
      "d": 910,
      "v": 127
    },
    {
      "midi": 57,
      "hit": false,
      "t": 345695,
      "d": 770,
      "v": 127
    },
    {
      "midi": 64,
      "hit": false,
      "t": 345720,
      "d": 745,
      "v": 127
    },
    {
      "midi": 69,
      "hit": false,
      "t": 346130,
      "d": 365,
      "v": 127
    },
    {
      "midi": 76,
      "hit": false,
      "t": 346535,
      "d": 1500,
      "v": 127
    },
    {
      "midi": 57,
      "hit": false,
      "t": 346545,
      "d": 1325,
      "v": 127
    },
    {
      "midi": 69,
      "hit": false,
      "t": 346545,
      "d": 1510,
      "v": 127
    },
    {
      "midi": 72,
      "hit": false,
      "t": 346545,
      "d": 1555,
      "v": 127
    },
    {
      "midi": 64,
      "hit": false,
      "t": 346580,
      "d": 400,
      "v": 127
    },
    {
      "midi": 60,
      "hit": false,
      "t": 346950,
      "d": 440,
      "v": 127
    },
    {
      "midi": 64,
      "hit": false,
      "t": 347145,
      "d": 865,
      "v": 127
    },
    {
      "midi": 60,
      "hit": false,
      "t": 347710,
      "d": 485,
      "v": 127
    },
    {
      "midi": 64,
      "hit": false,
      "t": 348120,
      "d": 570,
      "v": 127
    },
    {
      "midi": 57,
      "hit": false,
      "t": 348135,
      "d": 590,
      "v": 127
    },
    {
      "midi": 72,
      "hit": false,
      "t": 348145,
      "d": 980,
      "v": 127
    },
    {
      "midi": 76,
      "hit": false,
      "t": 348160,
      "d": 930,
      "v": 127
    },
    {
      "midi": 69,
      "hit": false,
      "t": 348170,
      "d": 880,
      "v": 127
    },
    {
      "midi": 53,
      "hit": false,
      "t": 349010,
      "d": 720,
      "v": 127
    },
    {
      "midi": 60,
      "hit": false,
      "t": 349020,
      "d": 685,
      "v": 127
    },
    {
      "midi": 53,
      "hit": false,
      "t": 349765,
      "d": 1090,
      "v": 127
    },
    {
      "midi": 60,
      "hit": false,
      "t": 349775,
      "d": 425,
      "v": 127
    },
    {
      "midi": 65,
      "hit": false,
      "t": 349775,
      "d": 2160,
      "v": 127
    },
    {
      "midi": 69,
      "hit": false,
      "t": 349775,
      "d": 2210,
      "v": 127
    },
    {
      "midi": 72,
      "hit": false,
      "t": 349790,
      "d": 2135,
      "v": 127
    },
    {
      "midi": 57,
      "hit": false,
      "t": 350150,
      "d": 450,
      "v": 127
    },
    {
      "midi": 60,
      "hit": false,
      "t": 350350,
      "d": 1120,
      "v": 127
    },
    {
      "midi": 57,
      "hit": false,
      "t": 350730,
      "d": 300,
      "v": 127
    },
    {
      "midi": 53,
      "hit": false,
      "t": 350930,
      "d": 1000,
      "v": 127
    },
    {
      "midi": 57,
      "hit": false,
      "t": 351330,
      "d": 675,
      "v": 127
    },
    {
      "midi": 60,
      "hit": false,
      "t": 351755,
      "d": 230,
      "v": 127
    },
    {
      "midi": 55,
      "hit": false,
      "t": 352140,
      "d": 660,
      "v": 127
    },
    {
      "midi": 62,
      "hit": false,
      "t": 352150,
      "d": 680,
      "v": 127
    },
    {
      "midi": 67,
      "hit": false,
      "t": 352150,
      "d": 735,
      "v": 127
    },
    {
      "midi": 71,
      "hit": false,
      "t": 352530,
      "d": 865,
      "v": 127
    },
    {
      "midi": 67,
      "hit": false,
      "t": 352910,
      "d": 455,
      "v": 127
    },
    {
      "midi": 62,
      "hit": false,
      "t": 352910,
      "d": 815,
      "v": 127
    },
    {
      "midi": 55,
      "hit": false,
      "t": 352910,
      "d": 1275,
      "v": 127
    },
    {
      "midi": 74,
      "hit": false,
      "t": 352920,
      "d": 425,
      "v": 127
    },
    {
      "midi": 59,
      "hit": false,
      "t": 353295,
      "d": 645,
      "v": 127
    },
    {
      "midi": 71,
      "hit": false,
      "t": 353505,
      "d": 965,
      "v": 127
    },
    {
      "midi": 67,
      "hit": false,
      "t": 353515,
      "d": 910,
      "v": 127
    },
    {
      "midi": 74,
      "hit": false,
      "t": 353520,
      "d": 880,
      "v": 127
    },
    {
      "midi": 62,
      "hit": false,
      "t": 353885,
      "d": 510,
      "v": 127
    },
    {
      "midi": 59,
      "hit": false,
      "t": 354095,
      "d": 460,
      "v": 127
    },
    {
      "midi": 62,
      "hit": false,
      "t": 354500,
      "d": 525,
      "v": 127
    },
    {
      "midi": 71,
      "hit": false,
      "t": 354500,
      "d": 850,
      "v": 127
    },
    {
      "midi": 55,
      "hit": false,
      "t": 354520,
      "d": 510,
      "v": 127
    },
    {
      "midi": 67,
      "hit": false,
      "t": 354520,
      "d": 765,
      "v": 127
    },
    {
      "midi": 74,
      "hit": false,
      "t": 354520,
      "d": 780,
      "v": 127
    },
    {
      "midi": 59,
      "hit": false,
      "t": 354910,
      "d": 140,
      "v": 127
    },
    {
      "midi": 48,
      "hit": false,
      "t": 355320,
      "d": 630,
      "v": 127
    },
    {
      "midi": 55,
      "hit": false,
      "t": 355320,
      "d": 675,
      "v": 127
    },
    {
      "midi": 52,
      "hit": false,
      "t": 355320,
      "d": 710,
      "v": 127
    },
    {
      "midi": 60,
      "hit": false,
      "t": 355690,
      "d": 340,
      "v": 127
    },
    {
      "midi": 55,
      "hit": false,
      "t": 356050,
      "d": 480,
      "v": 127
    },
    {
      "midi": 48,
      "hit": false,
      "t": 356060,
      "d": 455,
      "v": 127
    },
    {
      "midi": 60,
      "hit": false,
      "t": 356085,
      "d": 525,
      "v": 127
    },
    {
      "midi": 64,
      "hit": false,
      "t": 356085,
      "d": 725,
      "v": 127
    },
    {
      "midi": 67,
      "hit": false,
      "t": 356095,
      "d": 775,
      "v": 127
    },
    {
      "midi": 52,
      "hit": false,
      "t": 356465,
      "d": 95,
      "v": 127
    },
    {
      "midi": 59,
      "hit": false,
      "t": 356860,
      "d": 770,
      "v": 127
    },
    {
      "midi": 62,
      "hit": false,
      "t": 356880,
      "d": 690,
      "v": 127
    },
    {
      "midi": 55,
      "hit": false,
      "t": 356890,
      "d": 615,
      "v": 127
    },
    {
      "midi": 67,
      "hit": false,
      "t": 357240,
      "d": 370,
      "v": 127
    },
    {
      "midi": 55,
      "hit": false,
      "t": 357645,
      "d": 490,
      "v": 127
    },
    {
      "midi": 74,
      "hit": false,
      "t": 357645,
      "d": 880,
      "v": 127
    },
    {
      "midi": 62,
      "hit": false,
      "t": 357655,
      "d": 485,
      "v": 127
    },
    {
      "midi": 67,
      "hit": false,
      "t": 357655,
      "d": 805,
      "v": 127
    },
    {
      "midi": 71,
      "hit": false,
      "t": 357660,
      "d": 875,
      "v": 127
    },
    {
      "midi": 59,
      "hit": false,
      "t": 358050,
      "d": 115,
      "v": 127
    },
    {
      "midi": 60,
      "hit": false,
      "t": 358440,
      "d": 790,
      "v": 127
    },
    {
      "midi": 57,
      "hit": false,
      "t": 358450,
      "d": 680,
      "v": 127
    },
    {
      "midi": 64,
      "hit": false,
      "t": 358450,
      "d": 735,
      "v": 127
    },
    {
      "midi": 69,
      "hit": false,
      "t": 358885,
      "d": 345,
      "v": 127
    },
    {
      "midi": 57,
      "hit": false,
      "t": 359255,
      "d": 1395,
      "v": 127
    },
    {
      "midi": 69,
      "hit": false,
      "t": 359265,
      "d": 1530,
      "v": 127
    },
    {
      "midi": 72,
      "hit": false,
      "t": 359265,
      "d": 1560,
      "v": 127
    },
    {
      "midi": 64,
      "hit": false,
      "t": 359275,
      "d": 415,
      "v": 127
    },
    {
      "midi": 76,
      "hit": false,
      "t": 359280,
      "d": 1465,
      "v": 127
    },
    {
      "midi": 60,
      "hit": false,
      "t": 359640,
      "d": 565,
      "v": 127
    },
    {
      "midi": 64,
      "hit": false,
      "t": 360050,
      "d": 730,
      "v": 127
    },
    {
      "midi": 60,
      "hit": false,
      "t": 360480,
      "d": 410,
      "v": 127
    },
    {
      "midi": 64,
      "hit": false,
      "t": 360880,
      "d": 555,
      "v": 127
    },
    {
      "midi": 69,
      "hit": false,
      "t": 360895,
      "d": 820,
      "v": 127
    },
    {
      "midi": 72,
      "hit": false,
      "t": 360895,
      "d": 870,
      "v": 127
    },
    {
      "midi": 57,
      "hit": false,
      "t": 360910,
      "d": 510,
      "v": 127
    },
    {
      "midi": 76,
      "hit": false,
      "t": 360910,
      "d": 820,
      "v": 127
    },
    {
      "midi": 60,
      "hit": false,
      "t": 361300,
      "d": 150,
      "v": 127
    },
    {
      "midi": 57,
      "hit": false,
      "t": 361695,
      "d": 770,
      "v": 127
    },
    {
      "midi": 53,
      "hit": false,
      "t": 361710,
      "d": 695,
      "v": 127
    },
    {
      "midi": 60,
      "hit": false,
      "t": 361730,
      "d": 710,
      "v": 127
    },
    {
      "midi": 65,
      "hit": false,
      "t": 362070,
      "d": 355,
      "v": 127
    },
    {
      "midi": 60,
      "hit": false,
      "t": 362500,
      "d": 400,
      "v": 127
    },
    {
      "midi": 53,
      "hit": false,
      "t": 362500,
      "d": 855,
      "v": 127
    },
    {
      "midi": 69,
      "hit": false,
      "t": 362500,
      "d": 1510,
      "v": 127
    },
    {
      "midi": 72,
      "hit": false,
      "t": 362510,
      "d": 1480,
      "v": 127
    },
    {
      "midi": 65,
      "hit": false,
      "t": 362510,
      "d": 1495,
      "v": 127
    },
    {
      "midi": 57,
      "hit": false,
      "t": 362865,
      "d": 265,
      "v": 127
    },
    {
      "midi": 60,
      "hit": false,
      "t": 363050,
      "d": 920,
      "v": 127
    },
    {
      "midi": 57,
      "hit": false,
      "t": 363270,
      "d": 800,
      "v": 127
    },
    {
      "midi": 53,
      "hit": false,
      "t": 363635,
      "d": 345,
      "v": 127
    },
    {
      "midi": 53,
      "hit": false,
      "t": 364060,
      "d": 455,
      "v": 127
    },
    {
      "midi": 60,
      "hit": false,
      "t": 364080,
      "d": 490,
      "v": 127
    },
    {
      "midi": 65,
      "hit": false,
      "t": 364080,
      "d": 830,
      "v": 127
    },
    {
      "midi": 72,
      "hit": false,
      "t": 364095,
      "d": 820,
      "v": 127
    },
    {
      "midi": 69,
      "hit": false,
      "t": 364095,
      "d": 845,
      "v": 127
    },
    {
      "midi": 57,
      "hit": false,
      "t": 364420,
      "d": 165,
      "v": 127
    },
    {
      "midi": 59,
      "hit": false,
      "t": 364830,
      "d": 815,
      "v": 127
    },
    {
      "midi": 55,
      "hit": false,
      "t": 364845,
      "d": 685,
      "v": 127
    },
    {
      "midi": 62,
      "hit": false,
      "t": 364845,
      "d": 740,
      "v": 127
    },
    {
      "midi": 67,
      "hit": false,
      "t": 365250,
      "d": 360,
      "v": 127
    },
    {
      "midi": 67,
      "hit": false,
      "t": 365670,
      "d": 440,
      "v": 127
    },
    {
      "midi": 71,
      "hit": false,
      "t": 365670,
      "d": 455,
      "v": 127
    },
    {
      "midi": 74,
      "hit": false,
      "t": 365680,
      "d": 420,
      "v": 127
    },
    {
      "midi": 62,
      "hit": false,
      "t": 365680,
      "d": 815,
      "v": 127
    },
    {
      "midi": 55,
      "hit": false,
      "t": 365690,
      "d": 1240,
      "v": 127
    },
    {
      "midi": 59,
      "hit": false,
      "t": 366055,
      "d": 625,
      "v": 127
    },
    {
      "midi": 67,
      "hit": false,
      "t": 366265,
      "d": 915,
      "v": 127
    },
    {
      "midi": 71,
      "hit": false,
      "t": 366270,
      "d": 940,
      "v": 127
    },
    {
      "midi": 74,
      "hit": false,
      "t": 366280,
      "d": 870,
      "v": 127
    },
    {
      "midi": 62,
      "hit": false,
      "t": 366640,
      "d": 510,
      "v": 127
    },
    {
      "midi": 59,
      "hit": false,
      "t": 366860,
      "d": 425,
      "v": 127
    },
    {
      "midi": 62,
      "hit": false,
      "t": 367240,
      "d": 450,
      "v": 127
    },
    {
      "midi": 55,
      "hit": false,
      "t": 367250,
      "d": 460,
      "v": 127
    },
    {
      "midi": 71,
      "hit": false,
      "t": 367260,
      "d": 740,
      "v": 127
    },
    {
      "midi": 67,
      "hit": false,
      "t": 367270,
      "d": 670,
      "v": 127
    },
    {
      "midi": 74,
      "hit": false,
      "t": 367270,
      "d": 670,
      "v": 127
    },
    {
      "midi": 48,
      "hit": false,
      "t": 368040,
      "d": 665,
      "v": 127
    },
    {
      "midi": 55,
      "hit": false,
      "t": 368075,
      "d": 680,
      "v": 127
    },
    {
      "midi": 60,
      "hit": false,
      "t": 368450,
      "d": 345,
      "v": 127
    },
    {
      "midi": 55,
      "hit": false,
      "t": 368830,
      "d": 500,
      "v": 127
    },
    {
      "midi": 48,
      "hit": false,
      "t": 368840,
      "d": 450,
      "v": 127
    },
    {
      "midi": 60,
      "hit": false,
      "t": 368855,
      "d": 515,
      "v": 127
    },
    {
      "midi": 64,
      "hit": false,
      "t": 368860,
      "d": 655,
      "v": 127
    },
    {
      "midi": 67,
      "hit": false,
      "t": 368870,
      "d": 715,
      "v": 127
    },
    {
      "midi": 52,
      "hit": false,
      "t": 369230,
      "d": 105,
      "v": 127
    },
    {
      "midi": 59,
      "hit": false,
      "t": 369640,
      "d": 760,
      "v": 127
    },
    {
      "midi": 62,
      "hit": false,
      "t": 369660,
      "d": 710,
      "v": 127
    },
    {
      "midi": 55,
      "hit": false,
      "t": 369670,
      "d": 650,
      "v": 127
    },
    {
      "midi": 67,
      "hit": false,
      "t": 370025,
      "d": 340,
      "v": 127
    },
    {
      "midi": 71,
      "hit": false,
      "t": 370450,
      "d": 820,
      "v": 127
    },
    {
      "midi": 74,
      "hit": false,
      "t": 370450,
      "d": 830,
      "v": 127
    },
    {
      "midi": 55,
      "hit": false,
      "t": 370460,
      "d": 430,
      "v": 127
    },
    {
      "midi": 62,
      "hit": false,
      "t": 370460,
      "d": 450,
      "v": 127
    },
    {
      "midi": 67,
      "hit": false,
      "t": 370465,
      "d": 695,
      "v": 127
    },
    {
      "midi": 59,
      "hit": false,
      "t": 370820,
      "d": 120,
      "v": 127
    },
    {
      "midi": 57,
      "hit": false,
      "t": 371245,
      "d": 690,
      "v": 127
    },
    {
      "midi": 64,
      "hit": false,
      "t": 371250,
      "d": 730,
      "v": 127
    },
    {
      "midi": 60,
      "hit": false,
      "t": 371260,
      "d": 755,
      "v": 127
    },
    {
      "midi": 69,
      "hit": false,
      "t": 371620,
      "d": 360,
      "v": 127
    },
    {
      "midi": 64,
      "hit": false,
      "t": 372030,
      "d": 1010,
      "v": 127
    },
    {
      "midi": 69,
      "hit": false,
      "t": 372040,
      "d": 475,
      "v": 127
    },
    {
      "midi": 57,
      "hit": false,
      "t": 372040,
      "d": 1520,
      "v": 127
    },
    {
      "midi": 72,
      "hit": false,
      "t": 372050,
      "d": 470,
      "v": 127
    },
    {
      "midi": 76,
      "hit": false,
      "t": 372055,
      "d": 450,
      "v": 127
    },
    {
      "midi": 60,
      "hit": false,
      "t": 372430,
      "d": 1250,
      "v": 127
    },
    {
      "midi": 69,
      "hit": false,
      "t": 372830,
      "d": 730,
      "v": 127
    },
    {
      "midi": 72,
      "hit": false,
      "t": 372840,
      "d": 760,
      "v": 127
    },
    {
      "midi": 76,
      "hit": false,
      "t": 372875,
      "d": 665,
      "v": 127
    },
    {
      "midi": 64,
      "hit": false,
      "t": 373270,
      "d": 930,
      "v": 127
    },
    {
      "midi": 57,
      "hit": false,
      "t": 373690,
      "d": 525,
      "v": 127
    },
    {
      "midi": 72,
      "hit": false,
      "t": 373700,
      "d": 825,
      "v": 127
    },
    {
      "midi": 69,
      "hit": false,
      "t": 373720,
      "d": 760,
      "v": 127
    },
    {
      "midi": 76,
      "hit": false,
      "t": 373720,
      "d": 770,
      "v": 127
    },
    {
      "midi": 60,
      "hit": false,
      "t": 374105,
      "d": 110,
      "v": 127
    },
    {
      "midi": 53,
      "hit": false,
      "t": 374515,
      "d": 1575,
      "v": 127
    },
    {
      "midi": 48,
      "hit": false,
      "t": 374515,
      "d": 1685,
      "v": 127
    },
    {
      "midi": 57,
      "hit": false,
      "t": 376665,
      "d": 690,
      "v": 127
    },
    {
      "midi": 60,
      "hit": false,
      "t": 377290,
      "d": 390,
      "v": 127
    },
    {
      "midi": 55,
      "hit": false,
      "t": 377640,
      "d": 860,
      "v": 127
    },
    {
      "midi": 59,
      "hit": false,
      "t": 378470,
      "d": 540,
      "v": 127
    },
    {
      "midi": 62,
      "hit": false,
      "t": 380070,
      "d": 530,
      "v": 127
    },
    {
      "midi": 55,
      "hit": false,
      "t": 380080,
      "d": 530,
      "v": 127
    },
    {
      "midi": 71,
      "hit": false,
      "t": 380080,
      "d": 790,
      "v": 127
    },
    {
      "midi": 74,
      "hit": false,
      "t": 380095,
      "d": 765,
      "v": 127
    },
    {
      "midi": 67,
      "hit": false,
      "t": 380110,
      "d": 715,
      "v": 127
    },
    {
      "midi": 59,
      "hit": false,
      "t": 380500,
      "d": 120,
      "v": 127
    },
    {
      "midi": 48,
      "hit": false,
      "t": 380895,
      "d": 680,
      "v": 127
    },
    {
      "midi": 55,
      "hit": false,
      "t": 380935,
      "d": 685,
      "v": 127
    },
    {
      "midi": 60,
      "hit": false,
      "t": 381270,
      "d": 330,
      "v": 127
    },
    {
      "midi": 55,
      "hit": false,
      "t": 381650,
      "d": 470,
      "v": 127
    },
    {
      "midi": 60,
      "hit": false,
      "t": 381685,
      "d": 485,
      "v": 127
    },
    {
      "midi": 67,
      "hit": false,
      "t": 381685,
      "d": 705,
      "v": 127
    },
    {
      "midi": 48,
      "hit": false,
      "t": 381700,
      "d": 400,
      "v": 127
    },
    {
      "midi": 64,
      "hit": false,
      "t": 381700,
      "d": 625,
      "v": 127
    },
    {
      "midi": 52,
      "hit": false,
      "t": 382040,
      "d": 95,
      "v": 127
    },
    {
      "midi": 59,
      "hit": false,
      "t": 382460,
      "d": 740,
      "v": 127
    },
    {
      "midi": 62,
      "hit": false,
      "t": 382470,
      "d": 690,
      "v": 127
    },
    {
      "midi": 55,
      "hit": false,
      "t": 382480,
      "d": 610,
      "v": 127
    },
    {
      "midi": 67,
      "hit": false,
      "t": 382850,
      "d": 340,
      "v": 127
    },
    {
      "midi": 55,
      "hit": false,
      "t": 383245,
      "d": 490,
      "v": 127
    },
    {
      "midi": 62,
      "hit": false,
      "t": 383260,
      "d": 490,
      "v": 127
    },
    {
      "midi": 67,
      "hit": false,
      "t": 383270,
      "d": 735,
      "v": 127
    },
    {
      "midi": 71,
      "hit": false,
      "t": 383270,
      "d": 805,
      "v": 127
    },
    {
      "midi": 74,
      "hit": false,
      "t": 383270,
      "d": 805,
      "v": 127
    },
    {
      "midi": 59,
      "hit": false,
      "t": 383645,
      "d": 125,
      "v": 127
    },
    {
      "midi": 60,
      "hit": false,
      "t": 384005,
      "d": 810,
      "v": 127
    },
    {
      "midi": 64,
      "hit": false,
      "t": 384025,
      "d": 730,
      "v": 127
    },
    {
      "midi": 57,
      "hit": false,
      "t": 384040,
      "d": 695,
      "v": 127
    },
    {
      "midi": 69,
      "hit": false,
      "t": 384435,
      "d": 370,
      "v": 127
    },
    {
      "midi": 72,
      "hit": false,
      "t": 384830,
      "d": 485,
      "v": 127
    },
    {
      "midi": 57,
      "hit": false,
      "t": 384840,
      "d": 1480,
      "v": 127
    },
    {
      "midi": 76,
      "hit": false,
      "t": 384845,
      "d": 455,
      "v": 127
    },
    {
      "midi": 69,
      "hit": false,
      "t": 384845,
      "d": 485,
      "v": 127
    },
    {
      "midi": 64,
      "hit": false,
      "t": 384855,
      "d": 1015,
      "v": 127
    },
    {
      "midi": 60,
      "hit": false,
      "t": 385235,
      "d": 1180,
      "v": 127
    },
    {
      "midi": 76,
      "hit": false,
      "t": 385625,
      "d": 665,
      "v": 127
    },
    {
      "midi": 69,
      "hit": false,
      "t": 385635,
      "d": 725,
      "v": 127
    },
    {
      "midi": 72,
      "hit": false,
      "t": 385635,
      "d": 760,
      "v": 127
    },
    {
      "midi": 64,
      "hit": false,
      "t": 386015,
      "d": 365,
      "v": 127
    },
    {
      "midi": 64,
      "hit": false,
      "t": 386405,
      "d": 565,
      "v": 127
    },
    {
      "midi": 57,
      "hit": false,
      "t": 386430,
      "d": 580,
      "v": 127
    },
    {
      "midi": 72,
      "hit": false,
      "t": 386460,
      "d": 895,
      "v": 127
    },
    {
      "midi": 69,
      "hit": false,
      "t": 386465,
      "d": 840,
      "v": 127
    },
    {
      "midi": 76,
      "hit": false,
      "t": 386465,
      "d": 865,
      "v": 127
    },
    {
      "midi": 60,
      "hit": false,
      "t": 386850,
      "d": 145,
      "v": 127
    },
    {
      "midi": 53,
      "hit": false,
      "t": 387580,
      "d": 2575,
      "v": 127
    },
    {
      "midi": 65,
      "hit": false,
      "t": 387975,
      "d": 805,
      "v": 127
    },
    {
      "midi": 69,
      "hit": false,
      "t": 388405,
      "d": 990,
      "v": 127
    },
    {
      "midi": 60,
      "hit": false,
      "t": 388800,
      "d": 1395,
      "v": 127
    },
    {
      "midi": 65,
      "hit": false,
      "t": 388835,
      "d": 540,
      "v": 127
    },
    {
      "midi": 72,
      "hit": false,
      "t": 388840,
      "d": 510,
      "v": 127
    },
    {
      "midi": 57,
      "hit": false,
      "t": 389230,
      "d": 590,
      "v": 127
    },
    {
      "midi": 69,
      "hit": false,
      "t": 389630,
      "d": 565,
      "v": 127
    },
    {
      "midi": 65,
      "hit": false,
      "t": 389640,
      "d": 505,
      "v": 127
    },
    {
      "midi": 72,
      "hit": false,
      "t": 389640,
      "d": 550,
      "v": 127
    },
    {
      "midi": 57,
      "hit": false,
      "t": 390050,
      "d": 170,
      "v": 127
    },
    {
      "midi": 62,
      "hit": false,
      "t": 390420,
      "d": 555,
      "v": 127
    },
    {
      "midi": 55,
      "hit": false,
      "t": 390420,
      "d": 1570,
      "v": 127
    },
    {
      "midi": 67,
      "hit": false,
      "t": 390430,
      "d": 1080,
      "v": 127
    },
    {
      "midi": 71,
      "hit": false,
      "t": 390430,
      "d": 1160,
      "v": 127
    },
    {
      "midi": 74,
      "hit": false,
      "t": 390440,
      "d": 995,
      "v": 127
    },
    {
      "midi": 59,
      "hit": false,
      "t": 390810,
      "d": 1230,
      "v": 127
    },
    {
      "midi": 62,
      "hit": false,
      "t": 391245,
      "d": 760,
      "v": 127
    },
    {
      "midi": 67,
      "hit": false,
      "t": 391660,
      "d": 365,
      "v": 127
    },
    {
      "midi": 67,
      "hit": false,
      "t": 392045,
      "d": 615,
      "v": 127
    },
    {
      "midi": 71,
      "hit": false,
      "t": 392055,
      "d": 565,
      "v": 127
    },
    {
      "midi": 62,
      "hit": false,
      "t": 392055,
      "d": 740,
      "v": 127
    },
    {
      "midi": 74,
      "hit": false,
      "t": 392070,
      "d": 485,
      "v": 127
    },
    {
      "midi": 55,
      "hit": false,
      "t": 392070,
      "d": 710,
      "v": 127
    },
    {
      "midi": 59,
      "hit": false,
      "t": 392430,
      "d": 430,
      "v": 127
    },
    {
      "midi": 55,
      "hit": false,
      "t": 392850,
      "d": 550,
      "v": 127
    },
    {
      "midi": 62,
      "hit": false,
      "t": 392860,
      "d": 515,
      "v": 127
    },
    {
      "midi": 74,
      "hit": false,
      "t": 392860,
      "d": 750,
      "v": 127
    },
    {
      "midi": 67,
      "hit": false,
      "t": 392870,
      "d": 740,
      "v": 127
    },
    {
      "midi": 71,
      "hit": false,
      "t": 392870,
      "d": 765,
      "v": 127
    },
    {
      "midi": 59,
      "hit": false,
      "t": 393275,
      "d": 125,
      "v": 127
    },
    {
      "midi": 55,
      "hit": false,
      "t": 393665,
      "d": 705,
      "v": 127
    },
    {
      "midi": 48,
      "hit": false,
      "t": 393670,
      "d": 655,
      "v": 127
    },
    {
      "midi": 60,
      "hit": false,
      "t": 394040,
      "d": 350,
      "v": 127
    },
    {
      "midi": 55,
      "hit": false,
      "t": 394410,
      "d": 475,
      "v": 127
    },
    {
      "midi": 48,
      "hit": false,
      "t": 394440,
      "d": 430,
      "v": 127
    },
    {
      "midi": 60,
      "hit": false,
      "t": 394450,
      "d": 530,
      "v": 127
    },
    {
      "midi": 64,
      "hit": false,
      "t": 394470,
      "d": 620,
      "v": 127
    },
    {
      "midi": 67,
      "hit": false,
      "t": 394470,
      "d": 690,
      "v": 127
    },
    {
      "midi": 52,
      "hit": false,
      "t": 394805,
      "d": 110,
      "v": 127
    },
    {
      "midi": 55,
      "hit": false,
      "t": 395210,
      "d": 1265,
      "v": 127
    },
    {
      "midi": 59,
      "hit": false,
      "t": 395610,
      "d": 425,
      "v": 127
    },
    {
      "midi": 62,
      "hit": false,
      "t": 396010,
      "d": 480,
      "v": 127
    },
    {
      "midi": 71,
      "hit": false,
      "t": 396010,
      "d": 850,
      "v": 127
    },
    {
      "midi": 67,
      "hit": false,
      "t": 396020,
      "d": 760,
      "v": 127
    },
    {
      "midi": 74,
      "hit": false,
      "t": 396020,
      "d": 840,
      "v": 127
    },
    {
      "midi": 59,
      "hit": false,
      "t": 396395,
      "d": 155,
      "v": 127
    },
    {
      "midi": 57,
      "hit": false,
      "t": 396755,
      "d": 770,
      "v": 127
    },
    {
      "midi": 64,
      "hit": false,
      "t": 396770,
      "d": 815,
      "v": 127
    },
    {
      "midi": 69,
      "hit": false,
      "t": 397190,
      "d": 365,
      "v": 127
    },
    {
      "midi": 64,
      "hit": false,
      "t": 397595,
      "d": 1510,
      "v": 127
    },
    {
      "midi": 69,
      "hit": false,
      "t": 397605,
      "d": 515,
      "v": 127
    },
    {
      "midi": 72,
      "hit": false,
      "t": 397615,
      "d": 550,
      "v": 127
    },
    {
      "midi": 57,
      "hit": false,
      "t": 397615,
      "d": 1415,
      "v": 127
    },
    {
      "midi": 76,
      "hit": false,
      "t": 397625,
      "d": 475,
      "v": 127
    },
    {
      "midi": 60,
      "hit": false,
      "t": 397985,
      "d": 1155,
      "v": 127
    },
    {
      "midi": 69,
      "hit": false,
      "t": 398370,
      "d": 720,
      "v": 127
    },
    {
      "midi": 72,
      "hit": false,
      "t": 398760,
      "d": 355,
      "v": 127
    },
    {
      "midi": 64,
      "hit": false,
      "t": 399125,
      "d": 530,
      "v": 127
    },
    {
      "midi": 57,
      "hit": false,
      "t": 399150,
      "d": 540,
      "v": 127
    },
    {
      "midi": 72,
      "hit": false,
      "t": 399150,
      "d": 850,
      "v": 127
    },
    {
      "midi": 69,
      "hit": false,
      "t": 399160,
      "d": 805,
      "v": 127
    },
    {
      "midi": 76,
      "hit": false,
      "t": 399160,
      "d": 810,
      "v": 127
    },
    {
      "midi": 60,
      "hit": false,
      "t": 399530,
      "d": 150,
      "v": 127
    },
    {
      "midi": 53,
      "hit": false,
      "t": 399870,
      "d": 735,
      "v": 127
    },
    {
      "midi": 60,
      "hit": false,
      "t": 399880,
      "d": 1290,
      "v": 127
    },
    {
      "midi": 65,
      "hit": false,
      "t": 400280,
      "d": 325,
      "v": 127
    },
    {
      "midi": 65,
      "hit": false,
      "t": 400655,
      "d": 1455,
      "v": 127
    },
    {
      "midi": 72,
      "hit": false,
      "t": 400665,
      "d": 1420,
      "v": 127
    },
    {
      "midi": 69,
      "hit": false,
      "t": 400665,
      "d": 1475,
      "v": 127
    },
    {
      "midi": 53,
      "hit": false,
      "t": 400680,
      "d": 1325,
      "v": 127
    },
    {
      "midi": 57,
      "hit": false,
      "t": 401015,
      "d": 505,
      "v": 127
    },
    {
      "midi": 60,
      "hit": false,
      "t": 401380,
      "d": 1265,
      "v": 127
    },
    {
      "midi": 57,
      "hit": false,
      "t": 401750,
      "d": 420,
      "v": 127
    },
    {
      "midi": 53,
      "hit": false,
      "t": 402170,
      "d": 555,
      "v": 127
    },
    {
      "midi": 65,
      "hit": false,
      "t": 402185,
      "d": 850,
      "v": 127
    },
    {
      "midi": 69,
      "hit": false,
      "t": 402195,
      "d": 935,
      "v": 127
    },
    {
      "midi": 72,
      "hit": false,
      "t": 402205,
      "d": 890,
      "v": 127
    },
    {
      "midi": 57,
      "hit": false,
      "t": 402540,
      "d": 250,
      "v": 127
    },
    {
      "midi": 55,
      "hit": false,
      "t": 402940,
      "d": 730,
      "v": 127
    },
    {
      "midi": 62,
      "hit": false,
      "t": 402950,
      "d": 700,
      "v": 127
    },
    {
      "midi": 67,
      "hit": false,
      "t": 403325,
      "d": 1310,
      "v": 127
    },
    {
      "midi": 71,
      "hit": false,
      "t": 403710,
      "d": 1120,
      "v": 127
    },
    {
      "midi": 62,
      "hit": false,
      "t": 403720,
      "d": 480,
      "v": 127
    },
    {
      "midi": 74,
      "hit": false,
      "t": 403720,
      "d": 920,
      "v": 127
    },
    {
      "midi": 55,
      "hit": false,
      "t": 403730,
      "d": 1440,
      "v": 127
    },
    {
      "midi": 59,
      "hit": false,
      "t": 404110,
      "d": 1150,
      "v": 127
    },
    {
      "midi": 62,
      "hit": false,
      "t": 404480,
      "d": 725,
      "v": 127
    },
    {
      "midi": 67,
      "hit": false,
      "t": 404870,
      "d": 560,
      "v": 127
    },
    {
      "midi": 62,
      "hit": false,
      "t": 405250,
      "d": 520,
      "v": 127
    },
    {
      "midi": 71,
      "hit": false,
      "t": 405270,
      "d": 555,
      "v": 127
    },
    {
      "midi": 55,
      "hit": false,
      "t": 405280,
      "d": 510,
      "v": 127
    },
    {
      "midi": 74,
      "hit": false,
      "t": 405710,
      "d": 1670,
      "v": 127
    },
    {
      "midi": 48,
      "hit": false,
      "t": 407160,
      "d": 2145,
      "v": 127
    },
    {
      "midi": 55,
      "hit": false,
      "t": 407200,
      "d": 2135,
      "v": 127
    },
    {
      "midi": 72,
      "hit": false,
      "t": 407295,
      "d": 1450,
      "v": 127
    }
  ]
}