{
  "jsonPath": "Rock/Rock-And-Roll/The Fleetwoods/goodnight-my-love-pleasant-dreams.json",
  "path": "Rock\\Rock-And-Roll\\The Fleetwoods\\(Goodnight My Love) Pleasant Dreams.mid",
  "name": "(Goodnight My Love) Pleasant Dreams",
  "difficulty": "Advanced",
  "bpm": 120,
  "notes": [
    {
      "midi": 59,
      "hit": false,
      "t": 11297.060999999998,
      "d": 219.6650750000008,
      "v": 42
    },
    {
      "midi": 55,
      "hit": false,
      "t": 11297.060999999998,
      "d": 240.58555833333412,
      "v": 54
    },
    {
      "midi": 62,
      "hit": false,
      "t": 11297.060999999998,
      "d": 261.50604166666744,
      "v": 42
    },
    {
      "midi": 67,
      "hit": false,
      "t": 11297.060999999998,
      "d": 271.966283333335,
      "v": 70
    },
    {
      "midi": 71,
      "hit": false,
      "t": 11297.060999999998,
      "d": 271.966283333335,
      "v": 66
    },
    {
      "midi": 74,
      "hit": false,
      "t": 11297.060999999998,
      "d": 271.966283333335,
      "v": 67
    },
    {
      "midi": 67,
      "hit": false,
      "t": 11715.470666666666,
      "d": 219.6650750000008,
      "v": 61
    },
    {
      "midi": 71,
      "hit": false,
      "t": 11715.470666666666,
      "d": 219.6650750000008,
      "v": 63
    },
    {
      "midi": 55,
      "hit": false,
      "t": 11715.470666666666,
      "d": 240.58555833333412,
      "v": 47
    },
    {
      "midi": 74,
      "hit": false,
      "t": 11715.470666666666,
      "d": 251.0458000000017,
      "v": 66
    },
    {
      "midi": 59,
      "hit": false,
      "t": 11715.470666666666,
      "d": 271.966283333335,
      "v": 51
    },
    {
      "midi": 62,
      "hit": false,
      "t": 11715.470666666666,
      "d": 303.3470083333359,
      "v": 49
    },
    {
      "midi": 74,
      "hit": false,
      "t": 12133.880333333336,
      "d": 209.20483333333323,
      "v": 56
    },
    {
      "midi": 55,
      "hit": false,
      "t": 12133.880333333336,
      "d": 240.58555833333412,
      "v": 51
    },
    {
      "midi": 67,
      "hit": false,
      "t": 12133.880333333336,
      "d": 240.58555833333412,
      "v": 70
    },
    {
      "midi": 71,
      "hit": false,
      "t": 12133.880333333336,
      "d": 240.58555833333412,
      "v": 64
    },
    {
      "midi": 59,
      "hit": false,
      "t": 12133.880333333336,
      "d": 261.50604166666744,
      "v": 43
    },
    {
      "midi": 62,
      "hit": false,
      "t": 12133.880333333336,
      "d": 282.42652500000077,
      "v": 51
    },
    {
      "midi": 71,
      "hit": false,
      "t": 12552.290000000005,
      "d": 230.12531666666655,
      "v": 70
    },
    {
      "midi": 55,
      "hit": false,
      "t": 12552.290000000005,
      "d": 271.9662833333332,
      "v": 63
    },
    {
      "midi": 59,
      "hit": false,
      "t": 12552.290000000005,
      "d": 282.42652500000077,
      "v": 60
    },
    {
      "midi": 67,
      "hit": false,
      "t": 12552.290000000005,
      "d": 292.88676666666834,
      "v": 62
    },
    {
      "midi": 74,
      "hit": false,
      "t": 12552.290000000005,
      "d": 292.88676666666834,
      "v": 61
    },
    {
      "midi": 62,
      "hit": false,
      "t": 12552.290000000005,
      "d": 324.26749166666923,
      "v": 48
    },
    {
      "midi": 55,
      "hit": false,
      "t": 12970.699666666675,
      "d": 219.6650750000008,
      "v": 58
    },
    {
      "midi": 59,
      "hit": false,
      "t": 12970.699666666675,
      "d": 240.58555833333412,
      "v": 51
    },
    {
      "midi": 74,
      "hit": false,
      "t": 12970.699666666675,
      "d": 251.0458000000017,
      "v": 56
    },
    {
      "midi": 67,
      "hit": false,
      "t": 12970.699666666675,
      "d": 261.50604166666926,
      "v": 56
    },
    {
      "midi": 62,
      "hit": false,
      "t": 12970.699666666675,
      "d": 271.96628333333683,
      "v": 51
    },
    {
      "midi": 71,
      "hit": false,
      "t": 12970.699666666675,
      "d": 303.3470083333377,
      "v": 58
    },
    {
      "midi": 74,
      "hit": false,
      "t": 13389.109333333347,
      "d": 219.6650750000008,
      "v": 58
    },
    {
      "midi": 67,
      "hit": false,
      "t": 13389.109333333347,
      "d": 251.0458000000017,
      "v": 66
    },
    {
      "midi": 62,
      "hit": false,
      "t": 13389.109333333347,
      "d": 271.966283333335,
      "v": 35
    },
    {
      "midi": 71,
      "hit": false,
      "t": 13389.109333333347,
      "d": 271.966283333335,
      "v": 68
    },
    {
      "midi": 55,
      "hit": false,
      "t": 13389.109333333347,
      "d": 303.3470083333359,
      "v": 52
    },
    {
      "midi": 59,
      "hit": false,
      "t": 13389.109333333347,
      "d": 324.26749166666923,
      "v": 44
    },
    {
      "midi": 59,
      "hit": false,
      "t": 13807.519000000017,
      "d": 219.6650750000008,
      "v": 42
    },
    {
      "midi": 55,
      "hit": false,
      "t": 13807.519000000017,
      "d": 240.58555833333412,
      "v": 54
    },
    {
      "midi": 64,
      "hit": false,
      "t": 13807.519000000017,
      "d": 261.50604166666744,
      "v": 42
    },
    {
      "midi": 67,
      "hit": false,
      "t": 13807.519000000017,
      "d": 271.966283333335,
      "v": 70
    },
    {
      "midi": 71,
      "hit": false,
      "t": 13807.519000000017,
      "d": 271.966283333335,
      "v": 64
    },
    {
      "midi": 76,
      "hit": false,
      "t": 13807.519000000017,
      "d": 271.966283333335,
      "v": 67
    },
    {
      "midi": 67,
      "hit": false,
      "t": 14225.928666666685,
      "d": 219.6650750000008,
      "v": 61
    },
    {
      "midi": 71,
      "hit": false,
      "t": 14225.928666666685,
      "d": 219.6650750000008,
      "v": 63
    },
    {
      "midi": 55,
      "hit": false,
      "t": 14225.928666666685,
      "d": 240.58555833333412,
      "v": 47
    },
    {
      "midi": 76,
      "hit": false,
      "t": 14225.928666666685,
      "d": 251.0458000000017,
      "v": 59
    },
    {
      "midi": 59,
      "hit": false,
      "t": 14225.928666666685,
      "d": 271.966283333335,
      "v": 51
    },
    {
      "midi": 64,
      "hit": false,
      "t": 14225.928666666685,
      "d": 303.3470083333359,
      "v": 49
    },
    {
      "midi": 76,
      "hit": false,
      "t": 14644.338333333355,
      "d": 209.20483333333323,
      "v": 56
    },
    {
      "midi": 55,
      "hit": false,
      "t": 14644.338333333355,
      "d": 240.58555833333412,
      "v": 51
    },
    {
      "midi": 67,
      "hit": false,
      "t": 14644.338333333355,
      "d": 240.58555833333412,
      "v": 70
    },
    {
      "midi": 71,
      "hit": false,
      "t": 14644.338333333355,
      "d": 240.58555833333412,
      "v": 64
    },
    {
      "midi": 59,
      "hit": false,
      "t": 14644.338333333355,
      "d": 261.50604166666744,
      "v": 43
    },
    {
      "midi": 64,
      "hit": false,
      "t": 14644.338333333355,
      "d": 282.42652500000077,
      "v": 51
    },
    {
      "midi": 71,
      "hit": false,
      "t": 15062.748000000023,
      "d": 230.12531666666655,
      "v": 70
    },
    {
      "midi": 55,
      "hit": false,
      "t": 15062.748000000023,
      "d": 271.9662833333332,
      "v": 63
    },
    {
      "midi": 59,
      "hit": false,
      "t": 15062.748000000023,
      "d": 282.42652500000077,
      "v": 60
    },
    {
      "midi": 67,
      "hit": false,
      "t": 15062.748000000023,
      "d": 292.88676666666834,
      "v": 62
    },
    {
      "midi": 76,
      "hit": false,
      "t": 15062.748000000023,
      "d": 292.88676666666834,
      "v": 54
    },
    {
      "midi": 64,
      "hit": false,
      "t": 15062.748000000023,
      "d": 324.26749166666923,
      "v": 48
    },
    {
      "midi": 55,
      "hit": false,
      "t": 15481.157666666693,
      "d": 219.6650750000008,
      "v": 58
    },
    {
      "midi": 59,
      "hit": false,
      "t": 15481.157666666693,
      "d": 240.58555833333412,
      "v": 51
    },
    {
      "midi": 76,
      "hit": false,
      "t": 15481.157666666693,
      "d": 251.0458000000017,
      "v": 56
    },
    {
      "midi": 67,
      "hit": false,
      "t": 15481.157666666693,
      "d": 261.50604166666926,
      "v": 56
    },
    {
      "midi": 64,
      "hit": false,
      "t": 15481.157666666693,
      "d": 271.96628333333683,
      "v": 51
    },
    {
      "midi": 71,
      "hit": false,
      "t": 15481.157666666693,
      "d": 303.3470083333377,
      "v": 58
    },
    {
      "midi": 64,
      "hit": false,
      "t": 15899.567333333365,
      "d": 251.04579999999987,
      "v": 35
    },
    {
      "midi": 67,
      "hit": false,
      "t": 15899.567333333365,
      "d": 251.04579999999987,
      "v": 66
    },
    {
      "midi": 71,
      "hit": false,
      "t": 15899.567333333365,
      "d": 271.9662833333332,
      "v": 68
    },
    {
      "midi": 55,
      "hit": false,
      "t": 15899.567333333365,
      "d": 303.3470083333341,
      "v": 52
    },
    {
      "midi": 76,
      "hit": false,
      "t": 15899.567333333365,
      "d": 303.3470083333341,
      "v": 58
    },
    {
      "midi": 59,
      "hit": false,
      "t": 15899.567333333365,
      "d": 324.2674916666674,
      "v": 44
    },
    {
      "midi": 60,
      "hit": false,
      "t": 16317.977000000034,
      "d": 219.66507499999898,
      "v": 42
    },
    {
      "midi": 55,
      "hit": false,
      "t": 16317.977000000034,
      "d": 240.58555833333412,
      "v": 54
    },
    {
      "midi": 64,
      "hit": false,
      "t": 16317.977000000034,
      "d": 261.50604166666926,
      "v": 42
    },
    {
      "midi": 69,
      "hit": false,
      "t": 16317.977000000034,
      "d": 271.96628333333683,
      "v": 70
    },
    {
      "midi": 72,
      "hit": false,
      "t": 16317.977000000034,
      "d": 271.96628333333683,
      "v": 64
    },
    {
      "midi": 76,
      "hit": false,
      "t": 16317.977000000034,
      "d": 271.96628333333683,
      "v": 67
    },
    {
      "midi": 69,
      "hit": false,
      "t": 16736.386666666705,
      "d": 219.6650750000008,
      "v": 61
    },
    {
      "midi": 72,
      "hit": false,
      "t": 16736.386666666705,
      "d": 219.6650750000008,
      "v": 63
    },
    {
      "midi": 55,
      "hit": false,
      "t": 16736.386666666705,
      "d": 240.58555833333594,
      "v": 47
    },
    {
      "midi": 76,
      "hit": false,
      "t": 16736.386666666705,
      "d": 251.0458000000035,
      "v": 59
    },
    {
      "midi": 60,
      "hit": false,
      "t": 16736.386666666705,
      "d": 271.96628333333865,
      "v": 51
    },
    {
      "midi": 64,
      "hit": false,
      "t": 16736.386666666705,
      "d": 303.3470083333377,
      "v": 49
    },
    {
      "midi": 76,
      "hit": false,
      "t": 17154.796333333376,
      "d": 209.20483333333323,
      "v": 56
    },
    {
      "midi": 55,
      "hit": false,
      "t": 17154.796333333376,
      "d": 240.5855583333323,
      "v": 51
    },
    {
      "midi": 69,
      "hit": false,
      "t": 17154.796333333376,
      "d": 240.5855583333323,
      "v": 70
    },
    {
      "midi": 72,
      "hit": false,
      "t": 17154.796333333376,
      "d": 240.5855583333323,
      "v": 64
    },
    {
      "midi": 60,
      "hit": false,
      "t": 17154.796333333376,
      "d": 261.50604166666744,
      "v": 43
    },
    {
      "midi": 64,
      "hit": false,
      "t": 17154.796333333376,
      "d": 282.4265250000026,
      "v": 51
    },
    {
      "midi": 72,
      "hit": false,
      "t": 17573.206000000046,
      "d": 230.12531666666837,
      "v": 70
    },
    {
      "midi": 55,
      "hit": false,
      "t": 17573.206000000046,
      "d": 271.966283333335,
      "v": 63
    },
    {
      "midi": 60,
      "hit": false,
      "t": 17573.206000000046,
      "d": 282.4265250000026,
      "v": 60
    },
    {
      "midi": 69,
      "hit": false,
      "t": 17573.206000000046,
      "d": 292.88676666667016,
      "v": 62
    },
    {
      "midi": 76,
      "hit": false,
      "t": 17573.206000000046,
      "d": 292.88676666667016,
      "v": 54
    },
    {
      "midi": 64,
      "hit": false,
      "t": 17573.206000000046,
      "d": 324.26749166666923,
      "v": 48
    },
    {
      "midi": 55,
      "hit": false,
      "t": 17991.615666666716,
      "d": 219.6650750000008,
      "v": 58
    },
    {
      "midi": 60,
      "hit": false,
      "t": 17991.615666666716,
      "d": 240.58555833333594,
      "v": 51
    },
    {
      "midi": 76,
      "hit": false,
      "t": 17991.615666666716,
      "d": 251.0458000000035,
      "v": 56
    },
    {
      "midi": 69,
      "hit": false,
      "t": 17991.615666666716,
      "d": 261.5060416666711,
      "v": 56
    },
    {
      "midi": 64,
      "hit": false,
      "t": 17991.615666666716,
      "d": 271.96628333333865,
      "v": 51
    },
    {
      "midi": 72,
      "hit": false,
      "t": 17991.615666666716,
      "d": 303.3470083333377,
      "v": 58
    },
    {
      "midi": 64,
      "hit": false,
      "t": 18410.025333333386,
      "d": 251.04579999999987,
      "v": 35
    },
    {
      "midi": 69,
      "hit": false,
      "t": 18410.025333333386,
      "d": 251.04579999999987,
      "v": 66
    },
    {
      "midi": 72,
      "hit": false,
      "t": 18410.025333333386,
      "d": 271.966283333335,
      "v": 68
    },
    {
      "midi": 55,
      "hit": false,
      "t": 18410.025333333386,
      "d": 303.3470083333341,
      "v": 52
    },
    {
      "midi": 76,
      "hit": false,
      "t": 18410.025333333386,
      "d": 303.3470083333341,
      "v": 58
    },
    {
      "midi": 60,
      "hit": false,
      "t": 18410.025333333386,
      "d": 324.26749166666923,
      "v": 44
    },
    {
      "midi": 62,
      "hit": false,
      "t": 18828.435000000056,
      "d": 219.6650750000008,
      "v": 42
    },
    {
      "midi": 57,
      "hit": false,
      "t": 18828.435000000056,
      "d": 240.58555833333594,
      "v": 54
    },
    {
      "midi": 66,
      "hit": false,
      "t": 18828.435000000056,
      "d": 261.5060416666711,
      "v": 42
    },
    {
      "midi": 69,
      "hit": false,
      "t": 18828.435000000056,
      "d": 271.96628333333865,
      "v": 70
    },
    {
      "midi": 72,
      "hit": false,
      "t": 18828.435000000056,
      "d": 271.96628333333865,
      "v": 64
    },
    {
      "midi": 74,
      "hit": false,
      "t": 18828.435000000056,
      "d": 271.96628333333865,
      "v": 67
    },
    {
      "midi": 69,
      "hit": false,
      "t": 19246.84466666673,
      "d": 219.6650750000008,
      "v": 61
    },
    {
      "midi": 72,
      "hit": false,
      "t": 19246.84466666673,
      "d": 219.6650750000008,
      "v": 63
    },
    {
      "midi": 57,
      "hit": false,
      "t": 19246.84466666673,
      "d": 240.58555833333594,
      "v": 47
    },
    {
      "midi": 74,
      "hit": false,
      "t": 19246.84466666673,
      "d": 251.0458000000035,
      "v": 59
    },
    {
      "midi": 62,
      "hit": false,
      "t": 19246.84466666673,
      "d": 271.96628333333865,
      "v": 51
    },
    {
      "midi": 66,
      "hit": false,
      "t": 19246.84466666673,
      "d": 303.3470083333377,
      "v": 49
    },
    {
      "midi": 74,
      "hit": false,
      "t": 19665.2543333334,
      "d": 209.20483333333323,
      "v": 56
    },
    {
      "midi": 57,
      "hit": false,
      "t": 19665.2543333334,
      "d": 240.5855583333323,
      "v": 51
    },
    {
      "midi": 69,
      "hit": false,
      "t": 19665.2543333334,
      "d": 240.5855583333323,
      "v": 70
    },
    {
      "midi": 72,
      "hit": false,
      "t": 19665.2543333334,
      "d": 240.5855583333323,
      "v": 64
    },
    {
      "midi": 62,
      "hit": false,
      "t": 19665.2543333334,
      "d": 261.50604166666744,
      "v": 43
    },
    {
      "midi": 66,
      "hit": false,
      "t": 19665.2543333334,
      "d": 282.4265250000026,
      "v": 51
    },
    {
      "midi": 72,
      "hit": false,
      "t": 20083.66400000007,
      "d": 230.12531666666837,
      "v": 70
    },
    {
      "midi": 57,
      "hit": false,
      "t": 20083.66400000007,
      "d": 271.966283333335,
      "v": 63
    },
    {
      "midi": 62,
      "hit": false,
      "t": 20083.66400000007,
      "d": 282.4265250000026,
      "v": 60
    },
    {
      "midi": 69,
      "hit": false,
      "t": 20083.66400000007,
      "d": 292.88676666667016,
      "v": 62
    },
    {
      "midi": 74,
      "hit": false,
      "t": 20083.66400000007,
      "d": 292.88676666667016,
      "v": 54
    },
    {
      "midi": 66,
      "hit": false,
      "t": 20083.66400000007,
      "d": 324.26749166666923,
      "v": 48
    },
    {
      "midi": 57,
      "hit": false,
      "t": 20502.07366666674,
      "d": 219.6650750000008,
      "v": 58
    },
    {
      "midi": 62,
      "hit": false,
      "t": 20502.07366666674,
      "d": 240.58555833333594,
      "v": 51
    },
    {
      "midi": 74,
      "hit": false,
      "t": 20502.07366666674,
      "d": 251.0458000000035,
      "v": 56
    },
    {
      "midi": 69,
      "hit": false,
      "t": 20502.07366666674,
      "d": 261.5060416666711,
      "v": 56
    },
    {
      "midi": 66,
      "hit": false,
      "t": 20502.07366666674,
      "d": 271.96628333333865,
      "v": 51
    },
    {
      "midi": 72,
      "hit": false,
      "t": 20502.07366666674,
      "d": 303.3470083333377,
      "v": 58
    },
    {
      "midi": 66,
      "hit": false,
      "t": 20920.48333333341,
      "d": 251.04579999999987,
      "v": 35
    },
    {
      "midi": 69,
      "hit": false,
      "t": 20920.48333333341,
      "d": 251.04579999999987,
      "v": 66
    },
    {
      "midi": 72,
      "hit": false,
      "t": 20920.48333333341,
      "d": 271.966283333335,
      "v": 68
    },
    {
      "midi": 57,
      "hit": false,
      "t": 20920.48333333341,
      "d": 303.3470083333341,
      "v": 52
    },
    {
      "midi": 74,
      "hit": false,
      "t": 20920.48333333341,
      "d": 303.3470083333341,
      "v": 58
    },
    {
      "midi": 62,
      "hit": false,
      "t": 20920.48333333341,
      "d": 324.26749166666923,
      "v": 44
    },
    {
      "midi": 59,
      "hit": false,
      "t": 21338.89300000008,
      "d": 219.6650750000008,
      "v": 42
    },
    {
      "midi": 55,
      "hit": false,
      "t": 21338.89300000008,
      "d": 240.58555833333594,
      "v": 54
    },
    {
      "midi": 62,
      "hit": false,
      "t": 21338.89300000008,
      "d": 261.5060416666711,
      "v": 42
    },
    {
      "midi": 66,
      "hit": false,
      "t": 21338.89300000008,
      "d": 271.96628333333865,
      "v": 70
    },
    {
      "midi": 71,
      "hit": false,
      "t": 21338.89300000008,
      "d": 271.96628333333865,
      "v": 66
    },
    {
      "midi": 74,
      "hit": false,
      "t": 21338.89300000008,
      "d": 271.96628333333865,
      "v": 67
    },
    {
      "midi": 66,
      "hit": false,
      "t": 21757.302666666754,
      "d": 219.6650750000008,
      "v": 61
    },
    {
      "midi": 71,
      "hit": false,
      "t": 21757.302666666754,
      "d": 219.6650750000008,
      "v": 63
    },
    {
      "midi": 55,
      "hit": false,
      "t": 21757.302666666754,
      "d": 240.58555833333594,
      "v": 47
    },
    {
      "midi": 74,
      "hit": false,
      "t": 21757.302666666754,
      "d": 251.0458000000035,
      "v": 66
    },
    {
      "midi": 59,
      "hit": false,
      "t": 21757.302666666754,
      "d": 271.96628333333865,
      "v": 51
    },
    {
      "midi": 62,
      "hit": false,
      "t": 21757.302666666754,
      "d": 303.3470083333377,
      "v": 49
    },
    {
      "midi": 74,
      "hit": false,
      "t": 22175.712333333424,
      "d": 209.20483333333323,
      "v": 56
    },
    {
      "midi": 55,
      "hit": false,
      "t": 22175.712333333424,
      "d": 240.5855583333323,
      "v": 51
    },
    {
      "midi": 66,
      "hit": false,
      "t": 22175.712333333424,
      "d": 240.5855583333323,
      "v": 70
    },
    {
      "midi": 71,
      "hit": false,
      "t": 22175.712333333424,
      "d": 240.5855583333323,
      "v": 64
    },
    {
      "midi": 59,
      "hit": false,
      "t": 22175.712333333424,
      "d": 261.50604166666744,
      "v": 43
    },
    {
      "midi": 62,
      "hit": false,
      "t": 22175.712333333424,
      "d": 282.4265250000026,
      "v": 51
    },
    {
      "midi": 71,
      "hit": false,
      "t": 22594.122000000094,
      "d": 230.12531666666837,
      "v": 70
    },
    {
      "midi": 55,
      "hit": false,
      "t": 22594.122000000094,
      "d": 271.966283333335,
      "v": 63
    },
    {
      "midi": 59,
      "hit": false,
      "t": 22594.122000000094,
      "d": 282.4265250000026,
      "v": 60
    },
    {
      "midi": 66,
      "hit": false,
      "t": 22594.122000000094,
      "d": 292.88676666667016,
      "v": 62
    },
    {
      "midi": 74,
      "hit": false,
      "t": 22594.122000000094,
      "d": 292.88676666667016,
      "v": 61
    },
    {
      "midi": 62,
      "hit": false,
      "t": 22594.122000000094,
      "d": 324.26749166666923,
      "v": 48
    },
    {
      "midi": 55,
      "hit": false,
      "t": 23012.531666666764,
      "d": 219.6650750000008,
      "v": 58
    },
    {
      "midi": 59,
      "hit": false,
      "t": 23012.531666666764,
      "d": 240.58555833333594,
      "v": 51
    },
    {
      "midi": 74,
      "hit": false,
      "t": 23012.531666666764,
      "d": 251.0458000000035,
      "v": 56
    },
    {
      "midi": 66,
      "hit": false,
      "t": 23012.531666666764,
      "d": 261.5060416666711,
      "v": 56
    },
    {
      "midi": 62,
      "hit": false,
      "t": 23012.531666666764,
      "d": 271.96628333333865,
      "v": 51
    },
    {
      "midi": 71,
      "hit": false,
      "t": 23012.531666666764,
      "d": 303.3470083333377,
      "v": 58
    },
    {
      "midi": 74,
      "hit": false,
      "t": 23430.941333333434,
      "d": 219.6650750000008,
      "v": 58
    },
    {
      "midi": 66,
      "hit": false,
      "t": 23430.941333333434,
      "d": 251.04579999999987,
      "v": 66
    },
    {
      "midi": 62,
      "hit": false,
      "t": 23430.941333333434,
      "d": 271.966283333335,
      "v": 35
    },
    {
      "midi": 71,
      "hit": false,
      "t": 23430.941333333434,
      "d": 271.966283333335,
      "v": 68
    },
    {
      "midi": 55,
      "hit": false,
      "t": 23430.941333333434,
      "d": 303.3470083333341,
      "v": 52
    },
    {
      "midi": 59,
      "hit": false,
      "t": 23430.941333333434,
      "d": 324.26749166666923,
      "v": 44
    },
    {
      "midi": 59,
      "hit": false,
      "t": 23849.351000000104,
      "d": 219.6650750000008,
      "v": 42
    },
    {
      "midi": 55,
      "hit": false,
      "t": 23849.351000000104,
      "d": 240.58555833333594,
      "v": 54
    },
    {
      "midi": 64,
      "hit": false,
      "t": 23849.351000000104,
      "d": 261.5060416666711,
      "v": 42
    },
    {
      "midi": 67,
      "hit": false,
      "t": 23849.351000000104,
      "d": 271.96628333333865,
      "v": 70
    },
    {
      "midi": 71,
      "hit": false,
      "t": 23849.351000000104,
      "d": 271.96628333333865,
      "v": 64
    },
    {
      "midi": 76,
      "hit": false,
      "t": 23849.351000000104,
      "d": 271.96628333333865,
      "v": 67
    },
    {
      "midi": 67,
      "hit": false,
      "t": 24267.760666666778,
      "d": 219.6650750000008,
      "v": 61
    },
    {
      "midi": 71,
      "hit": false,
      "t": 24267.760666666778,
      "d": 219.6650750000008,
      "v": 63
    },
    {
      "midi": 55,
      "hit": false,
      "t": 24267.760666666778,
      "d": 240.58555833333594,
      "v": 47
    },
    {
      "midi": 76,
      "hit": false,
      "t": 24267.760666666778,
      "d": 251.0458000000035,
      "v": 59
    },
    {
      "midi": 59,
      "hit": false,
      "t": 24267.760666666778,
      "d": 271.96628333333865,
      "v": 51
    },
    {
      "midi": 64,
      "hit": false,
      "t": 24267.760666666778,
      "d": 303.3470083333377,
      "v": 49
    },
    {
      "midi": 76,
      "hit": false,
      "t": 24686.170333333448,
      "d": 209.20483333333323,
      "v": 56
    },
    {
      "midi": 55,
      "hit": false,
      "t": 24686.170333333448,
      "d": 240.5855583333323,
      "v": 51
    },
    {
      "midi": 67,
      "hit": false,
      "t": 24686.170333333448,
      "d": 240.5855583333323,
      "v": 70
    },
    {
      "midi": 71,
      "hit": false,
      "t": 24686.170333333448,
      "d": 240.5855583333323,
      "v": 64
    },
    {
      "midi": 59,
      "hit": false,
      "t": 24686.170333333448,
      "d": 261.50604166666744,
      "v": 43
    },
    {
      "midi": 64,
      "hit": false,
      "t": 24686.170333333448,
      "d": 282.4265250000026,
      "v": 51
    },
    {
      "midi": 71,
      "hit": false,
      "t": 25104.580000000118,
      "d": 230.12531666666837,
      "v": 70
    },
    {
      "midi": 55,
      "hit": false,
      "t": 25104.580000000118,
      "d": 271.966283333335,
      "v": 63
    },
    {
      "midi": 59,
      "hit": false,
      "t": 25104.580000000118,
      "d": 282.4265250000026,
      "v": 60
    },
    {
      "midi": 67,
      "hit": false,
      "t": 25104.580000000118,
      "d": 292.88676666667016,
      "v": 62
    },
    {
      "midi": 76,
      "hit": false,
      "t": 25104.580000000118,
      "d": 292.88676666667016,
      "v": 54
    },
    {
      "midi": 64,
      "hit": false,
      "t": 25104.580000000118,
      "d": 324.26749166666923,
      "v": 48
    },
    {
      "midi": 55,
      "hit": false,
      "t": 25522.98966666679,
      "d": 219.6650750000008,
      "v": 58
    },
    {
      "midi": 59,
      "hit": false,
      "t": 25522.98966666679,
      "d": 240.58555833333594,
      "v": 51
    },
    {
      "midi": 76,
      "hit": false,
      "t": 25522.98966666679,
      "d": 251.0458000000035,
      "v": 56
    },
    {
      "midi": 67,
      "hit": false,
      "t": 25522.98966666679,
      "d": 261.5060416666711,
      "v": 56
    },
    {
      "midi": 64,
      "hit": false,
      "t": 25522.98966666679,
      "d": 271.96628333333865,
      "v": 51
    },
    {
      "midi": 71,
      "hit": false,
      "t": 25522.98966666679,
      "d": 303.3470083333377,
      "v": 58
    },
    {
      "midi": 64,
      "hit": false,
      "t": 25941.39933333346,
      "d": 251.04579999999987,
      "v": 35
    },
    {
      "midi": 67,
      "hit": false,
      "t": 25941.39933333346,
      "d": 251.04579999999987,
      "v": 66
    },
    {
      "midi": 71,
      "hit": false,
      "t": 25941.39933333346,
      "d": 271.966283333335,
      "v": 68
    },
    {
      "midi": 55,
      "hit": false,
      "t": 25941.39933333346,
      "d": 303.3470083333341,
      "v": 52
    },
    {
      "midi": 76,
      "hit": false,
      "t": 25941.39933333346,
      "d": 303.3470083333341,
      "v": 58
    },
    {
      "midi": 59,
      "hit": false,
      "t": 25941.39933333346,
      "d": 324.26749166666923,
      "v": 44
    },
    {
      "midi": 60,
      "hit": false,
      "t": 26359.80900000013,
      "d": 219.6650750000008,
      "v": 42
    },
    {
      "midi": 55,
      "hit": false,
      "t": 26359.80900000013,
      "d": 240.58555833333594,
      "v": 54
    },
    {
      "midi": 64,
      "hit": false,
      "t": 26359.80900000013,
      "d": 261.5060416666711,
      "v": 42
    },
    {
      "midi": 69,
      "hit": false,
      "t": 26359.80900000013,
      "d": 271.96628333333865,
      "v": 70
    },
    {
      "midi": 72,
      "hit": false,
      "t": 26359.80900000013,
      "d": 271.96628333333865,
      "v": 64
    },
    {
      "midi": 76,
      "hit": false,
      "t": 26359.80900000013,
      "d": 271.96628333333865,
      "v": 67
    },
    {
      "midi": 69,
      "hit": false,
      "t": 26778.218666666802,
      "d": 219.6650750000008,
      "v": 61
    },
    {
      "midi": 72,
      "hit": false,
      "t": 26778.218666666802,
      "d": 219.6650750000008,
      "v": 63
    },
    {
      "midi": 55,
      "hit": false,
      "t": 26778.218666666802,
      "d": 240.58555833333594,
      "v": 47
    },
    {
      "midi": 76,
      "hit": false,
      "t": 26778.218666666802,
      "d": 251.0458000000035,
      "v": 59
    },
    {
      "midi": 60,
      "hit": false,
      "t": 26778.218666666802,
      "d": 271.96628333333865,
      "v": 51
    },
    {
      "midi": 64,
      "hit": false,
      "t": 26778.218666666802,
      "d": 303.3470083333377,
      "v": 49
    },
    {
      "midi": 76,
      "hit": false,
      "t": 27196.628333333472,
      "d": 209.20483333333323,
      "v": 56
    },
    {
      "midi": 55,
      "hit": false,
      "t": 27196.628333333472,
      "d": 240.5855583333323,
      "v": 51
    },
    {
      "midi": 69,
      "hit": false,
      "t": 27196.628333333472,
      "d": 240.5855583333323,
      "v": 70
    },
    {
      "midi": 72,
      "hit": false,
      "t": 27196.628333333472,
      "d": 240.5855583333323,
      "v": 64
    },
    {
      "midi": 60,
      "hit": false,
      "t": 27196.628333333472,
      "d": 261.50604166666744,
      "v": 43
    },
    {
      "midi": 64,
      "hit": false,
      "t": 27196.628333333472,
      "d": 282.4265250000026,
      "v": 51
    },
    {
      "midi": 72,
      "hit": false,
      "t": 27615.038000000142,
      "d": 230.12531666666837,
      "v": 70
    },
    {
      "midi": 55,
      "hit": false,
      "t": 27615.038000000142,
      "d": 271.966283333335,
      "v": 63
    },
    {
      "midi": 60,
      "hit": false,
      "t": 27615.038000000142,
      "d": 282.4265250000026,
      "v": 60
    },
    {
      "midi": 69,
      "hit": false,
      "t": 27615.038000000142,
      "d": 292.88676666667016,
      "v": 62
    },
    {
      "midi": 76,
      "hit": false,
      "t": 27615.038000000142,
      "d": 292.88676666667016,
      "v": 54
    },
    {
      "midi": 64,
      "hit": false,
      "t": 27615.038000000142,
      "d": 324.26749166666923,
      "v": 48
    },
    {
      "midi": 55,
      "hit": false,
      "t": 28033.447666666812,
      "d": 219.6650750000008,
      "v": 58
    },
    {
      "midi": 60,
      "hit": false,
      "t": 28033.447666666812,
      "d": 240.58555833333594,
      "v": 51
    },
    {
      "midi": 76,
      "hit": false,
      "t": 28033.447666666812,
      "d": 251.0458000000035,
      "v": 56
    },
    {
      "midi": 69,
      "hit": false,
      "t": 28033.447666666812,
      "d": 261.5060416666711,
      "v": 56
    },
    {
      "midi": 64,
      "hit": false,
      "t": 28033.447666666812,
      "d": 271.96628333333865,
      "v": 51
    },
    {
      "midi": 72,
      "hit": false,
      "t": 28033.447666666812,
      "d": 303.3470083333377,
      "v": 58
    },
    {
      "midi": 64,
      "hit": false,
      "t": 28451.857333333483,
      "d": 251.04579999999987,
      "v": 35
    },
    {
      "midi": 69,
      "hit": false,
      "t": 28451.857333333483,
      "d": 251.04579999999987,
      "v": 66
    },
    {
      "midi": 72,
      "hit": false,
      "t": 28451.857333333483,
      "d": 271.966283333335,
      "v": 68
    },
    {
      "midi": 55,
      "hit": false,
      "t": 28451.857333333483,
      "d": 303.3470083333341,
      "v": 52
    },
    {
      "midi": 76,
      "hit": false,
      "t": 28451.857333333483,
      "d": 303.3470083333341,
      "v": 58
    },
    {
      "midi": 60,
      "hit": false,
      "t": 28451.857333333483,
      "d": 324.26749166666923,
      "v": 44
    },
    {
      "midi": 62,
      "hit": false,
      "t": 28870.267000000153,
      "d": 219.6650750000008,
      "v": 42
    },
    {
      "midi": 57,
      "hit": false,
      "t": 28870.267000000153,
      "d": 240.58555833333594,
      "v": 54
    },
    {
      "midi": 66,
      "hit": false,
      "t": 28870.267000000153,
      "d": 261.5060416666711,
      "v": 42
    },
    {
      "midi": 69,
      "hit": false,
      "t": 28870.267000000153,
      "d": 271.96628333333865,
      "v": 70
    },
    {
      "midi": 72,
      "hit": false,
      "t": 28870.267000000153,
      "d": 271.96628333333865,
      "v": 64
    },
    {
      "midi": 74,
      "hit": false,
      "t": 28870.267000000153,
      "d": 271.96628333333865,
      "v": 67
    },
    {
      "midi": 69,
      "hit": false,
      "t": 29288.676666666826,
      "d": 219.6650750000008,
      "v": 61
    },
    {
      "midi": 72,
      "hit": false,
      "t": 29288.676666666826,
      "d": 219.6650750000008,
      "v": 63
    },
    {
      "midi": 57,
      "hit": false,
      "t": 29288.676666666826,
      "d": 240.58555833333594,
      "v": 47
    },
    {
      "midi": 74,
      "hit": false,
      "t": 29288.676666666826,
      "d": 251.0458000000035,
      "v": 59
    },
    {
      "midi": 62,
      "hit": false,
      "t": 29288.676666666826,
      "d": 271.96628333333865,
      "v": 51
    },
    {
      "midi": 66,
      "hit": false,
      "t": 29288.676666666826,
      "d": 303.3470083333377,
      "v": 49
    },
    {
      "midi": 74,
      "hit": false,
      "t": 29707.086333333496,
      "d": 209.20483333333323,
      "v": 56
    },
    {
      "midi": 57,
      "hit": false,
      "t": 29707.086333333496,
      "d": 240.5855583333323,
      "v": 51
    },
    {
      "midi": 69,
      "hit": false,
      "t": 29707.086333333496,
      "d": 240.5855583333323,
      "v": 70
    },
    {
      "midi": 72,
      "hit": false,
      "t": 29707.086333333496,
      "d": 240.5855583333323,
      "v": 64
    },
    {
      "midi": 62,
      "hit": false,
      "t": 29707.086333333496,
      "d": 261.50604166666744,
      "v": 43
    },
    {
      "midi": 66,
      "hit": false,
      "t": 29707.086333333496,
      "d": 282.4265250000026,
      "v": 51
    },
    {
      "midi": 72,
      "hit": false,
      "t": 30125.496000000167,
      "d": 230.12531666666837,
      "v": 70
    },
    {
      "midi": 57,
      "hit": false,
      "t": 30125.496000000167,
      "d": 271.966283333335,
      "v": 63
    },
    {
      "midi": 62,
      "hit": false,
      "t": 30125.496000000167,
      "d": 282.4265250000026,
      "v": 60
    },
    {
      "midi": 69,
      "hit": false,
      "t": 30125.496000000167,
      "d": 292.88676666667016,
      "v": 62
    },
    {
      "midi": 74,
      "hit": false,
      "t": 30125.496000000167,
      "d": 292.88676666667016,
      "v": 54
    },
    {
      "midi": 66,
      "hit": false,
      "t": 30125.496000000167,
      "d": 324.26749166666923,
      "v": 48
    },
    {
      "midi": 57,
      "hit": false,
      "t": 30543.905666666837,
      "d": 219.6650750000008,
      "v": 58
    },
    {
      "midi": 62,
      "hit": false,
      "t": 30543.905666666837,
      "d": 240.58555833333594,
      "v": 51
    },
    {
      "midi": 74,
      "hit": false,
      "t": 30543.905666666837,
      "d": 251.0458000000035,
      "v": 56
    },
    {
      "midi": 69,
      "hit": false,
      "t": 30543.905666666837,
      "d": 261.5060416666711,
      "v": 56
    },
    {
      "midi": 66,
      "hit": false,
      "t": 30543.905666666837,
      "d": 271.96628333333865,
      "v": 51
    },
    {
      "midi": 72,
      "hit": false,
      "t": 30543.905666666837,
      "d": 303.3470083333377,
      "v": 58
    },
    {
      "midi": 66,
      "hit": false,
      "t": 30962.315333333507,
      "d": 251.04579999999987,
      "v": 35
    },
    {
      "midi": 69,
      "hit": false,
      "t": 30962.315333333507,
      "d": 251.04579999999987,
      "v": 66
    },
    {
      "midi": 72,
      "hit": false,
      "t": 30962.315333333507,
      "d": 271.966283333335,
      "v": 68
    },
    {
      "midi": 57,
      "hit": false,
      "t": 30962.315333333507,
      "d": 303.3470083333341,
      "v": 52
    },
    {
      "midi": 74,
      "hit": false,
      "t": 30962.315333333507,
      "d": 303.3470083333341,
      "v": 58
    },
    {
      "midi": 62,
      "hit": false,
      "t": 30962.315333333507,
      "d": 324.26749166666923,
      "v": 44
    },
    {
      "midi": 59,
      "hit": false,
      "t": 31380.725000000177,
      "d": 219.6650750000008,
      "v": 42
    },
    {
      "midi": 55,
      "hit": false,
      "t": 31380.725000000177,
      "d": 240.58555833333594,
      "v": 54
    },
    {
      "midi": 62,
      "hit": false,
      "t": 31380.725000000177,
      "d": 261.5060416666711,
      "v": 42
    },
    {
      "midi": 67,
      "hit": false,
      "t": 31380.725000000177,
      "d": 271.96628333333865,
      "v": 70
    },
    {
      "midi": 71,
      "hit": false,
      "t": 31380.725000000177,
      "d": 271.96628333333865,
      "v": 66
    },
    {
      "midi": 74,
      "hit": false,
      "t": 31380.725000000177,
      "d": 271.96628333333865,
      "v": 67
    },
    {
      "midi": 67,
      "hit": false,
      "t": 31799.13466666685,
      "d": 219.6650750000008,
      "v": 61
    },
    {
      "midi": 71,
      "hit": false,
      "t": 31799.13466666685,
      "d": 219.6650750000008,
      "v": 63
    },
    {
      "midi": 55,
      "hit": false,
      "t": 31799.13466666685,
      "d": 240.58555833333594,
      "v": 47
    },
    {
      "midi": 74,
      "hit": false,
      "t": 31799.13466666685,
      "d": 251.0458000000035,
      "v": 66
    },
    {
      "midi": 59,
      "hit": false,
      "t": 31799.13466666685,
      "d": 271.96628333333865,
      "v": 51
    },
    {
      "midi": 62,
      "hit": false,
      "t": 31799.13466666685,
      "d": 303.3470083333377,
      "v": 49
    },
    {
      "midi": 74,
      "hit": false,
      "t": 32217.54433333352,
      "d": 209.20483333333323,
      "v": 56
    },
    {
      "midi": 55,
      "hit": false,
      "t": 32217.54433333352,
      "d": 240.5855583333323,
      "v": 51
    },
    {
      "midi": 67,
      "hit": false,
      "t": 32217.54433333352,
      "d": 240.5855583333323,
      "v": 70
    },
    {
      "midi": 71,
      "hit": false,
      "t": 32217.54433333352,
      "d": 240.5855583333323,
      "v": 64
    },
    {
      "midi": 59,
      "hit": false,
      "t": 32217.54433333352,
      "d": 261.50604166666744,
      "v": 43
    },
    {
      "midi": 62,
      "hit": false,
      "t": 32217.54433333352,
      "d": 282.4265250000026,
      "v": 51
    },
    {
      "midi": 71,
      "hit": false,
      "t": 32635.95400000019,
      "d": 230.12531666666837,
      "v": 70
    },
    {
      "midi": 55,
      "hit": false,
      "t": 32635.95400000019,
      "d": 271.96628333333865,
      "v": 63
    },
    {
      "midi": 59,
      "hit": false,
      "t": 32635.95400000019,
      "d": 282.4265250000062,
      "v": 60
    },
    {
      "midi": 67,
      "hit": false,
      "t": 32635.95400000019,
      "d": 292.8867666666738,
      "v": 62
    },
    {
      "midi": 74,
      "hit": false,
      "t": 32635.95400000019,
      "d": 292.8867666666738,
      "v": 61
    },
    {
      "midi": 62,
      "hit": false,
      "t": 32635.95400000019,
      "d": 324.2674916666765,
      "v": 48
    },
    {
      "midi": 55,
      "hit": false,
      "t": 33054.36366666687,
      "d": 219.66507499999716,
      "v": 58
    },
    {
      "midi": 59,
      "hit": false,
      "t": 33054.36366666687,
      "d": 240.5855583333323,
      "v": 51
    },
    {
      "midi": 74,
      "hit": false,
      "t": 33054.36366666687,
      "d": 251.04579999999987,
      "v": 56
    },
    {
      "midi": 67,
      "hit": false,
      "t": 33054.36366666687,
      "d": 261.50604166666744,
      "v": 56
    },
    {
      "midi": 62,
      "hit": false,
      "t": 33054.36366666687,
      "d": 271.966283333335,
      "v": 51
    },
    {
      "midi": 71,
      "hit": false,
      "t": 33054.36366666687,
      "d": 303.3470083333377,
      "v": 58
    },
    {
      "midi": 74,
      "hit": false,
      "t": 33472.77333333354,
      "d": 219.66507499999716,
      "v": 58
    },
    {
      "midi": 67,
      "hit": false,
      "t": 33472.77333333354,
      "d": 251.04579999999987,
      "v": 66
    },
    {
      "midi": 62,
      "hit": false,
      "t": 33472.77333333354,
      "d": 271.966283333335,
      "v": 35
    },
    {
      "midi": 71,
      "hit": false,
      "t": 33472.77333333354,
      "d": 271.966283333335,
      "v": 68
    },
    {
      "midi": 55,
      "hit": false,
      "t": 33472.77333333354,
      "d": 303.3470083333377,
      "v": 52
    },
    {
      "midi": 59,
      "hit": false,
      "t": 33472.77333333354,
      "d": 324.26749166667287,
      "v": 44
    },
    {
      "midi": 59,
      "hit": false,
      "t": 33891.183000000216,
      "d": 219.66507499999716,
      "v": 42
    },
    {
      "midi": 55,
      "hit": false,
      "t": 33891.183000000216,
      "d": 240.5855583333323,
      "v": 54
    },
    {
      "midi": 64,
      "hit": false,
      "t": 33891.183000000216,
      "d": 261.50604166666744,
      "v": 42
    },
    {
      "midi": 67,
      "hit": false,
      "t": 33891.183000000216,
      "d": 271.966283333335,
      "v": 70
    },
    {
      "midi": 71,
      "hit": false,
      "t": 33891.183000000216,
      "d": 271.966283333335,
      "v": 64
    },
    {
      "midi": 76,
      "hit": false,
      "t": 33891.183000000216,
      "d": 271.966283333335,
      "v": 67
    },
    {
      "midi": 67,
      "hit": false,
      "t": 34309.59266666688,
      "d": 219.66507499999716,
      "v": 61
    },
    {
      "midi": 71,
      "hit": false,
      "t": 34309.59266666688,
      "d": 219.66507499999716,
      "v": 63
    },
    {
      "midi": 55,
      "hit": false,
      "t": 34309.59266666688,
      "d": 240.5855583333323,
      "v": 47
    },
    {
      "midi": 76,
      "hit": false,
      "t": 34309.59266666688,
      "d": 251.04579999999987,
      "v": 59
    },
    {
      "midi": 59,
      "hit": false,
      "t": 34309.59266666688,
      "d": 271.966283333335,
      "v": 51
    },
    {
      "midi": 64,
      "hit": false,
      "t": 34309.59266666688,
      "d": 303.3470083333377,
      "v": 49
    },
    {
      "midi": 76,
      "hit": false,
      "t": 34728.002333333556,
      "d": 209.20483333333686,
      "v": 56
    },
    {
      "midi": 55,
      "hit": false,
      "t": 34728.002333333556,
      "d": 240.58555833333958,
      "v": 51
    },
    {
      "midi": 67,
      "hit": false,
      "t": 34728.002333333556,
      "d": 240.58555833333958,
      "v": 70
    },
    {
      "midi": 71,
      "hit": false,
      "t": 34728.002333333556,
      "d": 240.58555833333958,
      "v": 64
    },
    {
      "midi": 59,
      "hit": false,
      "t": 34728.002333333556,
      "d": 261.5060416666747,
      "v": 43
    },
    {
      "midi": 64,
      "hit": false,
      "t": 34728.002333333556,
      "d": 282.42652500000986,
      "v": 51
    },
    {
      "midi": 71,
      "hit": false,
      "t": 35146.41200000023,
      "d": 230.12531666666473,
      "v": 70
    },
    {
      "midi": 55,
      "hit": false,
      "t": 35146.41200000023,
      "d": 271.966283333335,
      "v": 63
    },
    {
      "midi": 59,
      "hit": false,
      "t": 35146.41200000023,
      "d": 282.4265250000026,
      "v": 60
    },
    {
      "midi": 67,
      "hit": false,
      "t": 35146.41200000023,
      "d": 292.88676666667016,
      "v": 62
    },
    {
      "midi": 76,
      "hit": false,
      "t": 35146.41200000023,
      "d": 292.88676666667016,
      "v": 54
    },
    {
      "midi": 64,
      "hit": false,
      "t": 35146.41200000023,
      "d": 324.26749166667287,
      "v": 48
    },
    {
      "midi": 55,
      "hit": false,
      "t": 35564.8216666669,
      "d": 219.66507499999716,
      "v": 58
    },
    {
      "midi": 59,
      "hit": false,
      "t": 35564.8216666669,
      "d": 240.5855583333323,
      "v": 51
    },
    {
      "midi": 76,
      "hit": false,
      "t": 35564.8216666669,
      "d": 251.04579999999987,
      "v": 56
    },
    {
      "midi": 67,
      "hit": false,
      "t": 35564.8216666669,
      "d": 261.50604166666744,
      "v": 56
    },
    {
      "midi": 64,
      "hit": false,
      "t": 35564.8216666669,
      "d": 271.966283333335,
      "v": 51
    },
    {
      "midi": 71,
      "hit": false,
      "t": 35564.8216666669,
      "d": 303.3470083333377,
      "v": 58
    },
    {
      "midi": 64,
      "hit": false,
      "t": 35983.23133333358,
      "d": 251.04579999999987,
      "v": 35
    },
    {
      "midi": 67,
      "hit": false,
      "t": 35983.23133333358,
      "d": 251.04579999999987,
      "v": 66
    },
    {
      "midi": 71,
      "hit": false,
      "t": 35983.23133333358,
      "d": 271.966283333335,
      "v": 68
    },
    {
      "midi": 55,
      "hit": false,
      "t": 35983.23133333358,
      "d": 303.3470083333377,
      "v": 52
    },
    {
      "midi": 76,
      "hit": false,
      "t": 35983.23133333358,
      "d": 303.3470083333377,
      "v": 58
    },
    {
      "midi": 59,
      "hit": false,
      "t": 35983.23133333358,
      "d": 324.26749166667287,
      "v": 44
    },
    {
      "midi": 60,
      "hit": false,
      "t": 36401.64100000025,
      "d": 219.66507499999716,
      "v": 42
    },
    {
      "midi": 55,
      "hit": false,
      "t": 36401.64100000025,
      "d": 240.5855583333323,
      "v": 54
    },
    {
      "midi": 64,
      "hit": false,
      "t": 36401.64100000025,
      "d": 261.50604166666744,
      "v": 42
    },
    {
      "midi": 69,
      "hit": false,
      "t": 36401.64100000025,
      "d": 271.966283333335,
      "v": 70
    },
    {
      "midi": 72,
      "hit": false,
      "t": 36401.64100000025,
      "d": 271.966283333335,
      "v": 64
    },
    {
      "midi": 76,
      "hit": false,
      "t": 36401.64100000025,
      "d": 271.966283333335,
      "v": 67
    },
    {
      "midi": 69,
      "hit": false,
      "t": 36820.05066666692,
      "d": 219.66507499999716,
      "v": 61
    },
    {
      "midi": 72,
      "hit": false,
      "t": 36820.05066666692,
      "d": 219.66507499999716,
      "v": 63
    },
    {
      "midi": 55,
      "hit": false,
      "t": 36820.05066666692,
      "d": 240.5855583333323,
      "v": 47
    },
    {
      "midi": 76,
      "hit": false,
      "t": 36820.05066666692,
      "d": 251.04579999999987,
      "v": 59
    },
    {
      "midi": 60,
      "hit": false,
      "t": 36820.05066666692,
      "d": 271.966283333335,
      "v": 51
    },
    {
      "midi": 64,
      "hit": false,
      "t": 36820.05066666692,
      "d": 303.3470083333377,
      "v": 49
    },
    {
      "midi": 76,
      "hit": false,
      "t": 37238.46033333359,
      "d": 209.20483333333686,
      "v": 56
    },
    {
      "midi": 55,
      "hit": false,
      "t": 37238.46033333359,
      "d": 240.58555833333958,
      "v": 51
    },
    {
      "midi": 69,
      "hit": false,
      "t": 37238.46033333359,
      "d": 240.58555833333958,
      "v": 70
    },
    {
      "midi": 72,
      "hit": false,
      "t": 37238.46033333359,
      "d": 240.58555833333958,
      "v": 64
    },
    {
      "midi": 60,
      "hit": false,
      "t": 37238.46033333359,
      "d": 261.5060416666747,
      "v": 43
    },
    {
      "midi": 64,
      "hit": false,
      "t": 37238.46033333359,
      "d": 282.42652500000986,
      "v": 51
    },
    {
      "midi": 72,
      "hit": false,
      "t": 37656.870000000265,
      "d": 230.12531666666473,
      "v": 70
    },
    {
      "midi": 55,
      "hit": false,
      "t": 37656.870000000265,
      "d": 271.966283333335,
      "v": 63
    },
    {
      "midi": 60,
      "hit": false,
      "t": 37656.870000000265,
      "d": 282.4265250000026,
      "v": 60
    },
    {
      "midi": 69,
      "hit": false,
      "t": 37656.870000000265,
      "d": 292.88676666667016,
      "v": 62
    },
    {
      "midi": 76,
      "hit": false,
      "t": 37656.870000000265,
      "d": 292.88676666667016,
      "v": 54
    },
    {
      "midi": 64,
      "hit": false,
      "t": 37656.870000000265,
      "d": 324.26749166667287,
      "v": 48
    },
    {
      "midi": 55,
      "hit": false,
      "t": 38075.27966666694,
      "d": 219.66507499999716,
      "v": 58
    },
    {
      "midi": 60,
      "hit": false,
      "t": 38075.27966666694,
      "d": 240.5855583333323,
      "v": 51
    },
    {
      "midi": 76,
      "hit": false,
      "t": 38075.27966666694,
      "d": 251.04579999999987,
      "v": 56
    },
    {
      "midi": 69,
      "hit": false,
      "t": 38075.27966666694,
      "d": 261.50604166666744,
      "v": 56
    },
    {
      "midi": 64,
      "hit": false,
      "t": 38075.27966666694,
      "d": 271.966283333335,
      "v": 51
    },
    {
      "midi": 72,
      "hit": false,
      "t": 38075.27966666694,
      "d": 303.3470083333377,
      "v": 58
    },
    {
      "midi": 64,
      "hit": false,
      "t": 38493.68933333361,
      "d": 251.04579999999987,
      "v": 35
    },
    {
      "midi": 69,
      "hit": false,
      "t": 38493.68933333361,
      "d": 251.04579999999987,
      "v": 66
    },
    {
      "midi": 72,
      "hit": false,
      "t": 38493.68933333361,
      "d": 271.966283333335,
      "v": 68
    },
    {
      "midi": 55,
      "hit": false,
      "t": 38493.68933333361,
      "d": 303.3470083333377,
      "v": 52
    },
    {
      "midi": 76,
      "hit": false,
      "t": 38493.68933333361,
      "d": 303.3470083333377,
      "v": 58
    },
    {
      "midi": 60,
      "hit": false,
      "t": 38493.68933333361,
      "d": 324.26749166667287,
      "v": 44
    },
    {
      "midi": 62,
      "hit": false,
      "t": 38912.099000000286,
      "d": 219.66507499999716,
      "v": 42
    },
    {
      "midi": 57,
      "hit": false,
      "t": 38912.099000000286,
      "d": 240.5855583333323,
      "v": 54
    },
    {
      "midi": 66,
      "hit": false,
      "t": 38912.099000000286,
      "d": 261.50604166666744,
      "v": 42
    },
    {
      "midi": 69,
      "hit": false,
      "t": 38912.099000000286,
      "d": 271.966283333335,
      "v": 70
    },
    {
      "midi": 72,
      "hit": false,
      "t": 38912.099000000286,
      "d": 271.966283333335,
      "v": 64
    },
    {
      "midi": 74,
      "hit": false,
      "t": 38912.099000000286,
      "d": 271.966283333335,
      "v": 67
    },
    {
      "midi": 69,
      "hit": false,
      "t": 39330.50866666695,
      "d": 219.66507499999716,
      "v": 61
    },
    {
      "midi": 72,
      "hit": false,
      "t": 39330.50866666695,
      "d": 219.66507499999716,
      "v": 63
    },
    {
      "midi": 57,
      "hit": false,
      "t": 39330.50866666695,
      "d": 240.5855583333323,
      "v": 47
    },
    {
      "midi": 74,
      "hit": false,
      "t": 39330.50866666695,
      "d": 251.04579999999987,
      "v": 59
    },
    {
      "midi": 62,
      "hit": false,
      "t": 39330.50866666695,
      "d": 271.966283333335,
      "v": 51
    },
    {
      "midi": 66,
      "hit": false,
      "t": 39330.50866666695,
      "d": 303.3470083333377,
      "v": 49
    },
    {
      "midi": 74,
      "hit": false,
      "t": 39748.918333333626,
      "d": 209.20483333333686,
      "v": 56
    },
    {
      "midi": 57,
      "hit": false,
      "t": 39748.918333333626,
      "d": 240.58555833333958,
      "v": 51
    },
    {
      "midi": 69,
      "hit": false,
      "t": 39748.918333333626,
      "d": 240.58555833333958,
      "v": 70
    },
    {
      "midi": 72,
      "hit": false,
      "t": 39748.918333333626,
      "d": 240.58555833333958,
      "v": 64
    },
    {
      "midi": 62,
      "hit": false,
      "t": 39748.918333333626,
      "d": 261.5060416666747,
      "v": 43
    },
    {
      "midi": 66,
      "hit": false,
      "t": 39748.918333333626,
      "d": 282.42652500000986,
      "v": 51
    },
    {
      "midi": 72,
      "hit": false,
      "t": 40167.3280000003,
      "d": 230.12531666666473,
      "v": 70
    },
    {
      "midi": 57,
      "hit": false,
      "t": 40167.3280000003,
      "d": 271.966283333335,
      "v": 63
    },
    {
      "midi": 62,
      "hit": false,
      "t": 40167.3280000003,
      "d": 282.4265250000026,
      "v": 60
    },
    {
      "midi": 69,
      "hit": false,
      "t": 40167.3280000003,
      "d": 292.88676666667016,
      "v": 62
    },
    {
      "midi": 74,
      "hit": false,
      "t": 40167.3280000003,
      "d": 292.88676666667016,
      "v": 54
    },
    {
      "midi": 66,
      "hit": false,
      "t": 40167.3280000003,
      "d": 324.26749166667287,
      "v": 48
    },
    {
      "midi": 57,
      "hit": false,
      "t": 40585.73766666697,
      "d": 219.66507499999716,
      "v": 58
    },
    {
      "midi": 62,
      "hit": false,
      "t": 40585.73766666697,
      "d": 240.5855583333323,
      "v": 51
    },
    {
      "midi": 74,
      "hit": false,
      "t": 40585.73766666697,
      "d": 251.04579999999987,
      "v": 56
    },
    {
      "midi": 69,
      "hit": false,
      "t": 40585.73766666697,
      "d": 261.50604166666744,
      "v": 56
    },
    {
      "midi": 66,
      "hit": false,
      "t": 40585.73766666697,
      "d": 271.966283333335,
      "v": 51
    },
    {
      "midi": 72,
      "hit": false,
      "t": 40585.73766666697,
      "d": 303.3470083333377,
      "v": 58
    },
    {
      "midi": 66,
      "hit": false,
      "t": 41004.14733333365,
      "d": 251.04579999999987,
      "v": 35
    },
    {
      "midi": 69,
      "hit": false,
      "t": 41004.14733333365,
      "d": 251.04579999999987,
      "v": 66
    },
    {
      "midi": 72,
      "hit": false,
      "t": 41004.14733333365,
      "d": 271.966283333335,
      "v": 68
    },
    {
      "midi": 57,
      "hit": false,
      "t": 41004.14733333365,
      "d": 303.3470083333377,
      "v": 52
    },
    {
      "midi": 74,
      "hit": false,
      "t": 41004.14733333365,
      "d": 303.3470083333377,
      "v": 58
    },
    {
      "midi": 62,
      "hit": false,
      "t": 41004.14733333365,
      "d": 324.26749166667287,
      "v": 44
    },
    {
      "midi": 59,
      "hit": false,
      "t": 41422.55700000032,
      "d": 219.66507499999716,
      "v": 42
    },
    {
      "midi": 55,
      "hit": false,
      "t": 41422.55700000032,
      "d": 240.5855583333323,
      "v": 54
    },
    {
      "midi": 62,
      "hit": false,
      "t": 41422.55700000032,
      "d": 261.50604166666744,
      "v": 42
    },
    {
      "midi": 67,
      "hit": false,
      "t": 41422.55700000032,
      "d": 271.966283333335,
      "v": 70
    },
    {
      "midi": 71,
      "hit": false,
      "t": 41422.55700000032,
      "d": 271.966283333335,
      "v": 66
    },
    {
      "midi": 74,
      "hit": false,
      "t": 41422.55700000032,
      "d": 271.966283333335,
      "v": 67
    },
    {
      "midi": 67,
      "hit": false,
      "t": 41840.96666666699,
      "d": 219.66507499999716,
      "v": 61
    },
    {
      "midi": 71,
      "hit": false,
      "t": 41840.96666666699,
      "d": 219.66507499999716,
      "v": 63
    },
    {
      "midi": 55,
      "hit": false,
      "t": 41840.96666666699,
      "d": 240.5855583333323,
      "v": 47
    },
    {
      "midi": 74,
      "hit": false,
      "t": 41840.96666666699,
      "d": 251.04579999999987,
      "v": 66
    },
    {
      "midi": 59,
      "hit": false,
      "t": 41840.96666666699,
      "d": 271.966283333335,
      "v": 51
    },
    {
      "midi": 62,
      "hit": false,
      "t": 41840.96666666699,
      "d": 303.3470083333377,
      "v": 49
    },
    {
      "midi": 74,
      "hit": false,
      "t": 42259.37633333366,
      "d": 209.20483333333686,
      "v": 56
    },
    {
      "midi": 55,
      "hit": false,
      "t": 42259.37633333366,
      "d": 240.58555833333958,
      "v": 51
    },
    {
      "midi": 67,
      "hit": false,
      "t": 42259.37633333366,
      "d": 240.58555833333958,
      "v": 70
    },
    {
      "midi": 71,
      "hit": false,
      "t": 42259.37633333366,
      "d": 240.58555833333958,
      "v": 64
    },
    {
      "midi": 59,
      "hit": false,
      "t": 42259.37633333366,
      "d": 261.5060416666747,
      "v": 43
    },
    {
      "midi": 62,
      "hit": false,
      "t": 42259.37633333366,
      "d": 282.42652500000986,
      "v": 51
    },
    {
      "midi": 71,
      "hit": false,
      "t": 42677.786000000335,
      "d": 230.12531666666473,
      "v": 70
    },
    {
      "midi": 55,
      "hit": false,
      "t": 42677.786000000335,
      "d": 271.966283333335,
      "v": 63
    },
    {
      "midi": 59,
      "hit": false,
      "t": 42677.786000000335,
      "d": 282.4265250000026,
      "v": 60
    },
    {
      "midi": 67,
      "hit": false,
      "t": 42677.786000000335,
      "d": 292.88676666667016,
      "v": 62
    },
    {
      "midi": 74,
      "hit": false,
      "t": 42677.786000000335,
      "d": 292.88676666667016,
      "v": 61
    },
    {
      "midi": 62,
      "hit": false,
      "t": 42677.786000000335,
      "d": 324.26749166667287,
      "v": 48
    },
    {
      "midi": 55,
      "hit": false,
      "t": 43096.19566666701,
      "d": 219.66507499999716,
      "v": 58
    },
    {
      "midi": 59,
      "hit": false,
      "t": 43096.19566666701,
      "d": 240.5855583333323,
      "v": 51
    },
    {
      "midi": 74,
      "hit": false,
      "t": 43096.19566666701,
      "d": 251.04579999999987,
      "v": 56
    },
    {
      "midi": 67,
      "hit": false,
      "t": 43096.19566666701,
      "d": 261.50604166666744,
      "v": 56
    },
    {
      "midi": 62,
      "hit": false,
      "t": 43096.19566666701,
      "d": 271.966283333335,
      "v": 51
    },
    {
      "midi": 71,
      "hit": false,
      "t": 43096.19566666701,
      "d": 303.3470083333377,
      "v": 58
    },
    {
      "midi": 74,
      "hit": false,
      "t": 43514.60533333368,
      "d": 219.66507499999716,
      "v": 58
    },
    {
      "midi": 67,
      "hit": false,
      "t": 43514.60533333368,
      "d": 251.04579999999987,
      "v": 66
    },
    {
      "midi": 62,
      "hit": false,
      "t": 43514.60533333368,
      "d": 271.966283333335,
      "v": 35
    },
    {
      "midi": 71,
      "hit": false,
      "t": 43514.60533333368,
      "d": 271.966283333335,
      "v": 68
    },
    {
      "midi": 55,
      "hit": false,
      "t": 43514.60533333368,
      "d": 303.3470083333377,
      "v": 52
    },
    {
      "midi": 59,
      "hit": false,
      "t": 43514.60533333368,
      "d": 324.26749166667287,
      "v": 44
    },
    {
      "midi": 59,
      "hit": false,
      "t": 43933.015000000356,
      "d": 219.66507499999716,
      "v": 42
    },
    {
      "midi": 55,
      "hit": false,
      "t": 43933.015000000356,
      "d": 240.5855583333323,
      "v": 54
    },
    {
      "midi": 64,
      "hit": false,
      "t": 43933.015000000356,
      "d": 261.50604166666744,
      "v": 42
    },
    {
      "midi": 67,
      "hit": false,
      "t": 43933.015000000356,
      "d": 271.966283333335,
      "v": 70
    },
    {
      "midi": 71,
      "hit": false,
      "t": 43933.015000000356,
      "d": 271.966283333335,
      "v": 64
    },
    {
      "midi": 76,
      "hit": false,
      "t": 43933.015000000356,
      "d": 271.966283333335,
      "v": 67
    },
    {
      "midi": 67,
      "hit": false,
      "t": 44351.42466666702,
      "d": 219.66507499999716,
      "v": 61
    },
    {
      "midi": 71,
      "hit": false,
      "t": 44351.42466666702,
      "d": 219.66507499999716,
      "v": 63
    },
    {
      "midi": 55,
      "hit": false,
      "t": 44351.42466666702,
      "d": 240.5855583333323,
      "v": 47
    },
    {
      "midi": 76,
      "hit": false,
      "t": 44351.42466666702,
      "d": 251.04579999999987,
      "v": 59
    },
    {
      "midi": 59,
      "hit": false,
      "t": 44351.42466666702,
      "d": 271.966283333335,
      "v": 51
    },
    {
      "midi": 64,
      "hit": false,
      "t": 44351.42466666702,
      "d": 303.3470083333377,
      "v": 49
    },
    {
      "midi": 76,
      "hit": false,
      "t": 44769.834333333696,
      "d": 209.20483333333686,
      "v": 56
    },
    {
      "midi": 55,
      "hit": false,
      "t": 44769.834333333696,
      "d": 240.58555833333958,
      "v": 51
    },
    {
      "midi": 67,
      "hit": false,
      "t": 44769.834333333696,
      "d": 240.58555833333958,
      "v": 70
    },
    {
      "midi": 71,
      "hit": false,
      "t": 44769.834333333696,
      "d": 240.58555833333958,
      "v": 64
    },
    {
      "midi": 59,
      "hit": false,
      "t": 44769.834333333696,
      "d": 261.5060416666747,
      "v": 43
    },
    {
      "midi": 64,
      "hit": false,
      "t": 44769.834333333696,
      "d": 282.42652500000986,
      "v": 51
    },
    {
      "midi": 71,
      "hit": false,
      "t": 45188.24400000037,
      "d": 230.12531666666473,
      "v": 70
    },
    {
      "midi": 55,
      "hit": false,
      "t": 45188.24400000037,
      "d": 271.966283333335,
      "v": 63
    },
    {
      "midi": 59,
      "hit": false,
      "t": 45188.24400000037,
      "d": 282.4265250000026,
      "v": 60
    },
    {
      "midi": 67,
      "hit": false,
      "t": 45188.24400000037,
      "d": 292.88676666667016,
      "v": 62
    },
    {
      "midi": 76,
      "hit": false,
      "t": 45188.24400000037,
      "d": 292.88676666667016,
      "v": 54
    },
    {
      "midi": 64,
      "hit": false,
      "t": 45188.24400000037,
      "d": 324.26749166667287,
      "v": 48
    },
    {
      "midi": 55,
      "hit": false,
      "t": 45606.65366666704,
      "d": 219.66507499999716,
      "v": 58
    },
    {
      "midi": 59,
      "hit": false,
      "t": 45606.65366666704,
      "d": 240.5855583333323,
      "v": 51
    },
    {
      "midi": 76,
      "hit": false,
      "t": 45606.65366666704,
      "d": 251.04579999999987,
      "v": 56
    },
    {
      "midi": 67,
      "hit": false,
      "t": 45606.65366666704,
      "d": 261.50604166666744,
      "v": 56
    },
    {
      "midi": 64,
      "hit": false,
      "t": 45606.65366666704,
      "d": 271.966283333335,
      "v": 51
    },
    {
      "midi": 71,
      "hit": false,
      "t": 45606.65366666704,
      "d": 303.3470083333377,
      "v": 58
    },
    {
      "midi": 64,
      "hit": false,
      "t": 46025.06333333372,
      "d": 251.04579999999987,
      "v": 35
    },
    {
      "midi": 67,
      "hit": false,
      "t": 46025.06333333372,
      "d": 251.04579999999987,
      "v": 66
    },
    {
      "midi": 71,
      "hit": false,
      "t": 46025.06333333372,
      "d": 271.966283333335,
      "v": 68
    },
    {
      "midi": 55,
      "hit": false,
      "t": 46025.06333333372,
      "d": 303.3470083333377,
      "v": 52
    },
    {
      "midi": 76,
      "hit": false,
      "t": 46025.06333333372,
      "d": 303.3470083333377,
      "v": 58
    },
    {
      "midi": 59,
      "hit": false,
      "t": 46025.06333333372,
      "d": 324.26749166667287,
      "v": 44
    },
    {
      "midi": 60,
      "hit": false,
      "t": 46443.47300000039,
      "d": 219.66507499999716,
      "v": 42
    },
    {
      "midi": 55,
      "hit": false,
      "t": 46443.47300000039,
      "d": 240.5855583333323,
      "v": 54
    },
    {
      "midi": 64,
      "hit": false,
      "t": 46443.47300000039,
      "d": 261.50604166666744,
      "v": 42
    },
    {
      "midi": 69,
      "hit": false,
      "t": 46443.47300000039,
      "d": 271.966283333335,
      "v": 70
    },
    {
      "midi": 72,
      "hit": false,
      "t": 46443.47300000039,
      "d": 271.966283333335,
      "v": 64
    },
    {
      "midi": 76,
      "hit": false,
      "t": 46443.47300000039,
      "d": 271.966283333335,
      "v": 67
    },
    {
      "midi": 69,
      "hit": false,
      "t": 46861.88266666706,
      "d": 219.66507499999716,
      "v": 61
    },
    {
      "midi": 72,
      "hit": false,
      "t": 46861.88266666706,
      "d": 219.66507499999716,
      "v": 63
    },
    {
      "midi": 55,
      "hit": false,
      "t": 46861.88266666706,
      "d": 240.5855583333323,
      "v": 47
    },
    {
      "midi": 76,
      "hit": false,
      "t": 46861.88266666706,
      "d": 251.04579999999987,
      "v": 59
    },
    {
      "midi": 60,
      "hit": false,
      "t": 46861.88266666706,
      "d": 271.966283333335,
      "v": 51
    },
    {
      "midi": 64,
      "hit": false,
      "t": 46861.88266666706,
      "d": 303.3470083333377,
      "v": 49
    },
    {
      "midi": 76,
      "hit": false,
      "t": 47280.29233333373,
      "d": 209.20483333333686,
      "v": 56
    },
    {
      "midi": 55,
      "hit": false,
      "t": 47280.29233333373,
      "d": 240.58555833333958,
      "v": 51
    },
    {
      "midi": 69,
      "hit": false,
      "t": 47280.29233333373,
      "d": 240.58555833333958,
      "v": 70
    },
    {
      "midi": 72,
      "hit": false,
      "t": 47280.29233333373,
      "d": 240.58555833333958,
      "v": 64
    },
    {
      "midi": 60,
      "hit": false,
      "t": 47280.29233333373,
      "d": 261.5060416666747,
      "v": 43
    },
    {
      "midi": 64,
      "hit": false,
      "t": 47280.29233333373,
      "d": 282.42652500000986,
      "v": 51
    },
    {
      "midi": 72,
      "hit": false,
      "t": 47698.702000000405,
      "d": 230.12531666666473,
      "v": 70
    },
    {
      "midi": 55,
      "hit": false,
      "t": 47698.702000000405,
      "d": 271.966283333335,
      "v": 63
    },
    {
      "midi": 60,
      "hit": false,
      "t": 47698.702000000405,
      "d": 282.4265250000026,
      "v": 60
    },
    {
      "midi": 69,
      "hit": false,
      "t": 47698.702000000405,
      "d": 292.88676666667016,
      "v": 62
    },
    {
      "midi": 76,
      "hit": false,
      "t": 47698.702000000405,
      "d": 292.88676666667016,
      "v": 54
    },
    {
      "midi": 64,
      "hit": false,
      "t": 47698.702000000405,
      "d": 324.26749166667287,
      "v": 48
    },
    {
      "midi": 55,
      "hit": false,
      "t": 48117.11166666708,
      "d": 219.66507499999716,
      "v": 58
    },
    {
      "midi": 60,
      "hit": false,
      "t": 48117.11166666708,
      "d": 240.5855583333323,
      "v": 51
    },
    {
      "midi": 76,
      "hit": false,
      "t": 48117.11166666708,
      "d": 251.04579999999987,
      "v": 56
    },
    {
      "midi": 69,
      "hit": false,
      "t": 48117.11166666708,
      "d": 261.50604166666744,
      "v": 56
    },
    {
      "midi": 64,
      "hit": false,
      "t": 48117.11166666708,
      "d": 271.966283333335,
      "v": 51
    },
    {
      "midi": 72,
      "hit": false,
      "t": 48117.11166666708,
      "d": 303.3470083333377,
      "v": 58
    },
    {
      "midi": 64,
      "hit": false,
      "t": 48535.52133333375,
      "d": 251.04579999999987,
      "v": 35
    },
    {
      "midi": 69,
      "hit": false,
      "t": 48535.52133333375,
      "d": 251.04579999999987,
      "v": 66
    },
    {
      "midi": 72,
      "hit": false,
      "t": 48535.52133333375,
      "d": 271.966283333335,
      "v": 68
    },
    {
      "midi": 55,
      "hit": false,
      "t": 48535.52133333375,
      "d": 303.3470083333377,
      "v": 52
    },
    {
      "midi": 76,
      "hit": false,
      "t": 48535.52133333375,
      "d": 303.3470083333377,
      "v": 58
    },
    {
      "midi": 60,
      "hit": false,
      "t": 48535.52133333375,
      "d": 324.26749166667287,
      "v": 44
    },
    {
      "midi": 62,
      "hit": false,
      "t": 48953.931000000426,
      "d": 219.66507499999716,
      "v": 42
    },
    {
      "midi": 57,
      "hit": false,
      "t": 48953.931000000426,
      "d": 240.5855583333323,
      "v": 54
    },
    {
      "midi": 66,
      "hit": false,
      "t": 48953.931000000426,
      "d": 261.50604166666744,
      "v": 42
    },
    {
      "midi": 69,
      "hit": false,
      "t": 48953.931000000426,
      "d": 271.966283333335,
      "v": 70
    },
    {
      "midi": 72,
      "hit": false,
      "t": 48953.931000000426,
      "d": 271.966283333335,
      "v": 64
    },
    {
      "midi": 74,
      "hit": false,
      "t": 48953.931000000426,
      "d": 271.966283333335,
      "v": 67
    },
    {
      "midi": 69,
      "hit": false,
      "t": 49372.34066666709,
      "d": 219.66507499999716,
      "v": 61
    },
    {
      "midi": 72,
      "hit": false,
      "t": 49372.34066666709,
      "d": 219.66507499999716,
      "v": 63
    },
    {
      "midi": 57,
      "hit": false,
      "t": 49372.34066666709,
      "d": 240.5855583333323,
      "v": 47
    },
    {
      "midi": 74,
      "hit": false,
      "t": 49372.34066666709,
      "d": 251.04579999999987,
      "v": 59
    },
    {
      "midi": 62,
      "hit": false,
      "t": 49372.34066666709,
      "d": 271.966283333335,
      "v": 51
    },
    {
      "midi": 66,
      "hit": false,
      "t": 49372.34066666709,
      "d": 303.3470083333377,
      "v": 49
    },
    {
      "midi": 74,
      "hit": false,
      "t": 49790.750333333766,
      "d": 209.20483333333686,
      "v": 56
    },
    {
      "midi": 57,
      "hit": false,
      "t": 49790.750333333766,
      "d": 240.58555833333958,
      "v": 51
    },
    {
      "midi": 69,
      "hit": false,
      "t": 49790.750333333766,
      "d": 240.58555833333958,
      "v": 70
    },
    {
      "midi": 72,
      "hit": false,
      "t": 49790.750333333766,
      "d": 240.58555833333958,
      "v": 64
    },
    {
      "midi": 62,
      "hit": false,
      "t": 49790.750333333766,
      "d": 261.5060416666747,
      "v": 43
    },
    {
      "midi": 66,
      "hit": false,
      "t": 49790.750333333766,
      "d": 282.42652500000986,
      "v": 51
    },
    {
      "midi": 72,
      "hit": false,
      "t": 50209.16000000044,
      "d": 230.12531666666473,
      "v": 70
    },
    {
      "midi": 57,
      "hit": false,
      "t": 50209.16000000044,
      "d": 271.966283333335,
      "v": 63
    },
    {
      "midi": 62,
      "hit": false,
      "t": 50209.16000000044,
      "d": 282.4265250000026,
      "v": 60
    },
    {
      "midi": 69,
      "hit": false,
      "t": 50209.16000000044,
      "d": 292.88676666667016,
      "v": 62
    },
    {
      "midi": 74,
      "hit": false,
      "t": 50209.16000000044,
      "d": 292.88676666667016,
      "v": 54
    },
    {
      "midi": 66,
      "hit": false,
      "t": 50209.16000000044,
      "d": 324.26749166667287,
      "v": 48
    },
    {
      "midi": 57,
      "hit": false,
      "t": 50627.569666667114,
      "d": 219.66507499999716,
      "v": 58
    },
    {
      "midi": 62,
      "hit": false,
      "t": 50627.569666667114,
      "d": 240.5855583333323,
      "v": 51
    },
    {
      "midi": 74,
      "hit": false,
      "t": 50627.569666667114,
      "d": 251.04579999999987,
      "v": 56
    },
    {
      "midi": 69,
      "hit": false,
      "t": 50627.569666667114,
      "d": 261.50604166666744,
      "v": 56
    },
    {
      "midi": 66,
      "hit": false,
      "t": 50627.569666667114,
      "d": 271.966283333335,
      "v": 51
    },
    {
      "midi": 72,
      "hit": false,
      "t": 50627.569666667114,
      "d": 303.3470083333377,
      "v": 58
    },
    {
      "midi": 66,
      "hit": false,
      "t": 51045.97933333379,
      "d": 251.04579999999987,
      "v": 35
    },
    {
      "midi": 69,
      "hit": false,
      "t": 51045.97933333379,
      "d": 251.04579999999987,
      "v": 66
    },
    {
      "midi": 72,
      "hit": false,
      "t": 51045.97933333379,
      "d": 271.966283333335,
      "v": 68
    },
    {
      "midi": 57,
      "hit": false,
      "t": 51045.97933333379,
      "d": 303.3470083333377,
      "v": 52
    },
    {
      "midi": 74,
      "hit": false,
      "t": 51045.97933333379,
      "d": 303.3470083333377,
      "v": 58
    },
    {
      "midi": 62,
      "hit": false,
      "t": 51045.97933333379,
      "d": 324.26749166667287,
      "v": 44
    },
    {
      "midi": 59,
      "hit": false,
      "t": 51464.38900000046,
      "d": 219.66507499999716,
      "v": 42
    },
    {
      "midi": 55,
      "hit": false,
      "t": 51464.38900000046,
      "d": 240.5855583333323,
      "v": 54
    },
    {
      "midi": 62,
      "hit": false,
      "t": 51464.38900000046,
      "d": 261.50604166666744,
      "v": 42
    },
    {
      "midi": 67,
      "hit": false,
      "t": 51464.38900000046,
      "d": 271.966283333335,
      "v": 70
    },
    {
      "midi": 71,
      "hit": false,
      "t": 51464.38900000046,
      "d": 271.966283333335,
      "v": 66
    },
    {
      "midi": 74,
      "hit": false,
      "t": 51464.38900000046,
      "d": 271.966283333335,
      "v": 67
    },
    {
      "midi": 67,
      "hit": false,
      "t": 51882.79866666713,
      "d": 219.66507499999716,
      "v": 61
    },
    {
      "midi": 71,
      "hit": false,
      "t": 51882.79866666713,
      "d": 219.66507499999716,
      "v": 63
    },
    {
      "midi": 55,
      "hit": false,
      "t": 51882.79866666713,
      "d": 240.5855583333323,
      "v": 47
    },
    {
      "midi": 74,
      "hit": false,
      "t": 51882.79866666713,
      "d": 251.04579999999987,
      "v": 66
    },
    {
      "midi": 59,
      "hit": false,
      "t": 51882.79866666713,
      "d": 271.966283333335,
      "v": 51
    },
    {
      "midi": 62,
      "hit": false,
      "t": 51882.79866666713,
      "d": 303.3470083333377,
      "v": 49
    },
    {
      "midi": 74,
      "hit": false,
      "t": 52301.2083333338,
      "d": 209.20483333333686,
      "v": 56
    },
    {
      "midi": 55,
      "hit": false,
      "t": 52301.2083333338,
      "d": 240.58555833333958,
      "v": 51
    },
    {
      "midi": 67,
      "hit": false,
      "t": 52301.2083333338,
      "d": 240.58555833333958,
      "v": 70
    },
    {
      "midi": 71,
      "hit": false,
      "t": 52301.2083333338,
      "d": 240.58555833333958,
      "v": 64
    },
    {
      "midi": 59,
      "hit": false,
      "t": 52301.2083333338,
      "d": 261.5060416666747,
      "v": 43
    },
    {
      "midi": 62,
      "hit": false,
      "t": 52301.2083333338,
      "d": 282.42652500000986,
      "v": 51
    },
    {
      "midi": 71,
      "hit": false,
      "t": 52719.618000000475,
      "d": 230.12531666666473,
      "v": 70
    },
    {
      "midi": 55,
      "hit": false,
      "t": 52719.618000000475,
      "d": 271.966283333335,
      "v": 63
    },
    {
      "midi": 59,
      "hit": false,
      "t": 52719.618000000475,
      "d": 282.4265250000026,
      "v": 60
    },
    {
      "midi": 67,
      "hit": false,
      "t": 52719.618000000475,
      "d": 292.88676666667016,
      "v": 62
    },
    {
      "midi": 74,
      "hit": false,
      "t": 52719.618000000475,
      "d": 292.88676666667016,
      "v": 61
    },
    {
      "midi": 62,
      "hit": false,
      "t": 52719.618000000475,
      "d": 324.26749166667287,
      "v": 48
    },
    {
      "midi": 55,
      "hit": false,
      "t": 53138.02766666715,
      "d": 219.66507499999716,
      "v": 58
    },
    {
      "midi": 59,
      "hit": false,
      "t": 53138.02766666715,
      "d": 240.5855583333323,
      "v": 51
    },
    {
      "midi": 74,
      "hit": false,
      "t": 53138.02766666715,
      "d": 251.04579999999987,
      "v": 56
    },
    {
      "midi": 67,
      "hit": false,
      "t": 53138.02766666715,
      "d": 261.50604166666744,
      "v": 56
    },
    {
      "midi": 62,
      "hit": false,
      "t": 53138.02766666715,
      "d": 271.966283333335,
      "v": 51
    },
    {
      "midi": 71,
      "hit": false,
      "t": 53138.02766666715,
      "d": 303.3470083333377,
      "v": 58
    },
    {
      "midi": 74,
      "hit": false,
      "t": 53556.43733333382,
      "d": 219.66507499999716,
      "v": 58
    },
    {
      "midi": 67,
      "hit": false,
      "t": 53556.43733333382,
      "d": 251.04579999999987,
      "v": 66
    },
    {
      "midi": 62,
      "hit": false,
      "t": 53556.43733333382,
      "d": 271.966283333335,
      "v": 35
    },
    {
      "midi": 71,
      "hit": false,
      "t": 53556.43733333382,
      "d": 271.966283333335,
      "v": 68
    },
    {
      "midi": 55,
      "hit": false,
      "t": 53556.43733333382,
      "d": 303.3470083333377,
      "v": 52
    },
    {
      "midi": 59,
      "hit": false,
      "t": 53556.43733333382,
      "d": 324.26749166667287,
      "v": 44
    },
    {
      "midi": 59,
      "hit": false,
      "t": 53974.847000000496,
      "d": 219.66507499999716,
      "v": 42
    },
    {
      "midi": 55,
      "hit": false,
      "t": 53974.847000000496,
      "d": 240.5855583333323,
      "v": 54
    },
    {
      "midi": 64,
      "hit": false,
      "t": 53974.847000000496,
      "d": 261.50604166666744,
      "v": 42
    },
    {
      "midi": 67,
      "hit": false,
      "t": 53974.847000000496,
      "d": 271.966283333335,
      "v": 70
    },
    {
      "midi": 71,
      "hit": false,
      "t": 53974.847000000496,
      "d": 271.966283333335,
      "v": 64
    },
    {
      "midi": 76,
      "hit": false,
      "t": 53974.847000000496,
      "d": 271.966283333335,
      "v": 67
    },
    {
      "midi": 67,
      "hit": false,
      "t": 54393.25666666716,
      "d": 219.66507499999716,
      "v": 61
    },
    {
      "midi": 71,
      "hit": false,
      "t": 54393.25666666716,
      "d": 219.66507499999716,
      "v": 63
    },
    {
      "midi": 55,
      "hit": false,
      "t": 54393.25666666716,
      "d": 240.5855583333323,
      "v": 47
    },
    {
      "midi": 76,
      "hit": false,
      "t": 54393.25666666716,
      "d": 251.04579999999987,
      "v": 59
    },
    {
      "midi": 59,
      "hit": false,
      "t": 54393.25666666716,
      "d": 271.966283333335,
      "v": 51
    },
    {
      "midi": 64,
      "hit": false,
      "t": 54393.25666666716,
      "d": 303.3470083333377,
      "v": 49
    },
    {
      "midi": 76,
      "hit": false,
      "t": 54811.66633333384,
      "d": 209.20483333333686,
      "v": 56
    },
    {
      "midi": 55,
      "hit": false,
      "t": 54811.66633333384,
      "d": 240.58555833333958,
      "v": 51
    },
    {
      "midi": 67,
      "hit": false,
      "t": 54811.66633333384,
      "d": 240.58555833333958,
      "v": 70
    },
    {
      "midi": 71,
      "hit": false,
      "t": 54811.66633333384,
      "d": 240.58555833333958,
      "v": 64
    },
    {
      "midi": 59,
      "hit": false,
      "t": 54811.66633333384,
      "d": 261.5060416666747,
      "v": 43
    },
    {
      "midi": 64,
      "hit": false,
      "t": 54811.66633333384,
      "d": 282.42652500000986,
      "v": 51
    },
    {
      "midi": 71,
      "hit": false,
      "t": 55230.07600000051,
      "d": 230.12531666666473,
      "v": 70
    },
    {
      "midi": 55,
      "hit": false,
      "t": 55230.07600000051,
      "d": 271.966283333335,
      "v": 63
    },
    {
      "midi": 59,
      "hit": false,
      "t": 55230.07600000051,
      "d": 282.4265250000026,
      "v": 60
    },
    {
      "midi": 67,
      "hit": false,
      "t": 55230.07600000051,
      "d": 292.88676666667016,
      "v": 62
    },
    {
      "midi": 76,
      "hit": false,
      "t": 55230.07600000051,
      "d": 292.88676666667016,
      "v": 54
    },
    {
      "midi": 64,
      "hit": false,
      "t": 55230.07600000051,
      "d": 324.26749166667287,
      "v": 48
    },
    {
      "midi": 55,
      "hit": false,
      "t": 55648.485666667184,
      "d": 219.66507499999716,
      "v": 58
    },
    {
      "midi": 59,
      "hit": false,
      "t": 55648.485666667184,
      "d": 240.5855583333323,
      "v": 51
    },
    {
      "midi": 76,
      "hit": false,
      "t": 55648.485666667184,
      "d": 251.04579999999987,
      "v": 56
    },
    {
      "midi": 67,
      "hit": false,
      "t": 55648.485666667184,
      "d": 261.50604166666744,
      "v": 56
    },
    {
      "midi": 64,
      "hit": false,
      "t": 55648.485666667184,
      "d": 271.966283333335,
      "v": 51
    },
    {
      "midi": 71,
      "hit": false,
      "t": 55648.485666667184,
      "d": 303.3470083333377,
      "v": 58
    },
    {
      "midi": 64,
      "hit": false,
      "t": 56066.89533333386,
      "d": 251.04579999999987,
      "v": 35
    },
    {
      "midi": 67,
      "hit": false,
      "t": 56066.89533333386,
      "d": 251.04579999999987,
      "v": 66
    },
    {
      "midi": 71,
      "hit": false,
      "t": 56066.89533333386,
      "d": 271.966283333335,
      "v": 68
    },
    {
      "midi": 55,
      "hit": false,
      "t": 56066.89533333386,
      "d": 303.3470083333377,
      "v": 52
    },
    {
      "midi": 76,
      "hit": false,
      "t": 56066.89533333386,
      "d": 303.3470083333377,
      "v": 58
    },
    {
      "midi": 59,
      "hit": false,
      "t": 56066.89533333386,
      "d": 324.26749166667287,
      "v": 44
    },
    {
      "midi": 60,
      "hit": false,
      "t": 56485.30500000053,
      "d": 219.66507499999716,
      "v": 42
    },
    {
      "midi": 55,
      "hit": false,
      "t": 56485.30500000053,
      "d": 240.5855583333323,
      "v": 54
    },
    {
      "midi": 64,
      "hit": false,
      "t": 56485.30500000053,
      "d": 261.50604166666744,
      "v": 42
    },
    {
      "midi": 69,
      "hit": false,
      "t": 56485.30500000053,
      "d": 271.966283333335,
      "v": 70
    },
    {
      "midi": 72,
      "hit": false,
      "t": 56485.30500000053,
      "d": 271.966283333335,
      "v": 64
    },
    {
      "midi": 76,
      "hit": false,
      "t": 56485.30500000053,
      "d": 271.966283333335,
      "v": 67
    },
    {
      "midi": 69,
      "hit": false,
      "t": 56903.7146666672,
      "d": 219.66507499999716,
      "v": 61
    },
    {
      "midi": 72,
      "hit": false,
      "t": 56903.7146666672,
      "d": 219.66507499999716,
      "v": 63
    },
    {
      "midi": 55,
      "hit": false,
      "t": 56903.7146666672,
      "d": 240.5855583333323,
      "v": 47
    },
    {
      "midi": 76,
      "hit": false,
      "t": 56903.7146666672,
      "d": 251.04579999999987,
      "v": 59
    },
    {
      "midi": 60,
      "hit": false,
      "t": 56903.7146666672,
      "d": 271.966283333335,
      "v": 51
    },
    {
      "midi": 64,
      "hit": false,
      "t": 56903.7146666672,
      "d": 303.3470083333377,
      "v": 49
    },
    {
      "midi": 76,
      "hit": false,
      "t": 57322.12433333387,
      "d": 209.20483333333686,
      "v": 56
    },
    {
      "midi": 55,
      "hit": false,
      "t": 57322.12433333387,
      "d": 240.58555833333958,
      "v": 51
    },
    {
      "midi": 69,
      "hit": false,
      "t": 57322.12433333387,
      "d": 240.58555833333958,
      "v": 70
    },
    {
      "midi": 72,
      "hit": false,
      "t": 57322.12433333387,
      "d": 240.58555833333958,
      "v": 64
    },
    {
      "midi": 60,
      "hit": false,
      "t": 57322.12433333387,
      "d": 261.5060416666747,
      "v": 43
    },
    {
      "midi": 64,
      "hit": false,
      "t": 57322.12433333387,
      "d": 282.42652500000986,
      "v": 51
    },
    {
      "midi": 72,
      "hit": false,
      "t": 57740.534000000545,
      "d": 230.12531666666473,
      "v": 70
    },
    {
      "midi": 55,
      "hit": false,
      "t": 57740.534000000545,
      "d": 271.966283333335,
      "v": 63
    },
    {
      "midi": 60,
      "hit": false,
      "t": 57740.534000000545,
      "d": 282.4265250000026,
      "v": 60
    },
    {
      "midi": 69,
      "hit": false,
      "t": 57740.534000000545,
      "d": 292.88676666667016,
      "v": 62
    },
    {
      "midi": 76,
      "hit": false,
      "t": 57740.534000000545,
      "d": 292.88676666667016,
      "v": 54
    },
    {
      "midi": 64,
      "hit": false,
      "t": 57740.534000000545,
      "d": 324.26749166667287,
      "v": 48
    },
    {
      "midi": 55,
      "hit": false,
      "t": 58158.94366666722,
      "d": 219.66507499999716,
      "v": 58
    },
    {
      "midi": 60,
      "hit": false,
      "t": 58158.94366666722,
      "d": 240.5855583333323,
      "v": 51
    },
    {
      "midi": 76,
      "hit": false,
      "t": 58158.94366666722,
      "d": 251.04579999999987,
      "v": 56
    },
    {
      "midi": 69,
      "hit": false,
      "t": 58158.94366666722,
      "d": 261.50604166666744,
      "v": 56
    },
    {
      "midi": 64,
      "hit": false,
      "t": 58158.94366666722,
      "d": 271.966283333335,
      "v": 51
    },
    {
      "midi": 72,
      "hit": false,
      "t": 58158.94366666722,
      "d": 303.3470083333377,
      "v": 58
    },
    {
      "midi": 64,
      "hit": false,
      "t": 58577.35333333389,
      "d": 251.04579999999987,
      "v": 35
    },
    {
      "midi": 69,
      "hit": false,
      "t": 58577.35333333389,
      "d": 251.04579999999987,
      "v": 66
    },
    {
      "midi": 72,
      "hit": false,
      "t": 58577.35333333389,
      "d": 271.966283333335,
      "v": 68
    },
    {
      "midi": 55,
      "hit": false,
      "t": 58577.35333333389,
      "d": 303.3470083333377,
      "v": 52
    },
    {
      "midi": 76,
      "hit": false,
      "t": 58577.35333333389,
      "d": 303.3470083333377,
      "v": 58
    },
    {
      "midi": 60,
      "hit": false,
      "t": 58577.35333333389,
      "d": 324.26749166667287,
      "v": 44
    },
    {
      "midi": 62,
      "hit": false,
      "t": 58995.76300000057,
      "d": 219.66507499999716,
      "v": 42
    },
    {
      "midi": 57,
      "hit": false,
      "t": 58995.76300000057,
      "d": 240.5855583333323,
      "v": 54
    },
    {
      "midi": 66,
      "hit": false,
      "t": 58995.76300000057,
      "d": 261.50604166666744,
      "v": 42
    },
    {
      "midi": 69,
      "hit": false,
      "t": 58995.76300000057,
      "d": 271.966283333335,
      "v": 70
    },
    {
      "midi": 72,
      "hit": false,
      "t": 58995.76300000057,
      "d": 271.966283333335,
      "v": 64
    },
    {
      "midi": 74,
      "hit": false,
      "t": 58995.76300000057,
      "d": 271.966283333335,
      "v": 67
    },
    {
      "midi": 69,
      "hit": false,
      "t": 59414.17266666723,
      "d": 219.66507499999716,
      "v": 61
    },
    {
      "midi": 72,
      "hit": false,
      "t": 59414.17266666723,
      "d": 219.66507499999716,
      "v": 63
    },
    {
      "midi": 57,
      "hit": false,
      "t": 59414.17266666723,
      "d": 240.5855583333323,
      "v": 47
    },
    {
      "midi": 74,
      "hit": false,
      "t": 59414.17266666723,
      "d": 251.04579999999987,
      "v": 59
    },
    {
      "midi": 62,
      "hit": false,
      "t": 59414.17266666723,
      "d": 271.966283333335,
      "v": 51
    },
    {
      "midi": 66,
      "hit": false,
      "t": 59414.17266666723,
      "d": 303.3470083333377,
      "v": 49
    },
    {
      "midi": 74,
      "hit": false,
      "t": 59832.58233333391,
      "d": 209.20483333333686,
      "v": 56
    },
    {
      "midi": 57,
      "hit": false,
      "t": 59832.58233333391,
      "d": 240.58555833333958,
      "v": 51
    },
    {
      "midi": 69,
      "hit": false,
      "t": 59832.58233333391,
      "d": 240.58555833333958,
      "v": 70
    },
    {
      "midi": 72,
      "hit": false,
      "t": 59832.58233333391,
      "d": 240.58555833333958,
      "v": 64
    },
    {
      "midi": 62,
      "hit": false,
      "t": 59832.58233333391,
      "d": 261.5060416666747,
      "v": 43
    },
    {
      "midi": 66,
      "hit": false,
      "t": 59832.58233333391,
      "d": 282.42652500000986,
      "v": 51
    },
    {
      "midi": 72,
      "hit": false,
      "t": 60250.99200000058,
      "d": 230.12531666666473,
      "v": 70
    },
    {
      "midi": 57,
      "hit": false,
      "t": 60250.99200000058,
      "d": 271.966283333335,
      "v": 63
    },
    {
      "midi": 62,
      "hit": false,
      "t": 60250.99200000058,
      "d": 282.4265250000026,
      "v": 60
    },
    {
      "midi": 69,
      "hit": false,
      "t": 60250.99200000058,
      "d": 292.88676666667016,
      "v": 62
    },
    {
      "midi": 74,
      "hit": false,
      "t": 60250.99200000058,
      "d": 292.88676666667016,
      "v": 54
    },
    {
      "midi": 66,
      "hit": false,
      "t": 60250.99200000058,
      "d": 324.26749166667287,
      "v": 48
    },
    {
      "midi": 57,
      "hit": false,
      "t": 60669.401666667254,
      "d": 219.66507499999716,
      "v": 58
    },
    {
      "midi": 62,
      "hit": false,
      "t": 60669.401666667254,
      "d": 240.5855583333323,
      "v": 51
    },
    {
      "midi": 74,
      "hit": false,
      "t": 60669.401666667254,
      "d": 251.04579999999987,
      "v": 56
    },
    {
      "midi": 69,
      "hit": false,
      "t": 60669.401666667254,
      "d": 261.50604166666744,
      "v": 56
    },
    {
      "midi": 66,
      "hit": false,
      "t": 60669.401666667254,
      "d": 271.966283333335,
      "v": 51
    },
    {
      "midi": 72,
      "hit": false,
      "t": 60669.401666667254,
      "d": 303.3470083333377,
      "v": 58
    },
    {
      "midi": 66,
      "hit": false,
      "t": 61087.81133333393,
      "d": 251.04579999999987,
      "v": 35
    },
    {
      "midi": 69,
      "hit": false,
      "t": 61087.81133333393,
      "d": 251.04579999999987,
      "v": 66
    },
    {
      "midi": 72,
      "hit": false,
      "t": 61087.81133333393,
      "d": 271.966283333335,
      "v": 68
    },
    {
      "midi": 57,
      "hit": false,
      "t": 61087.81133333393,
      "d": 303.3470083333377,
      "v": 52
    },
    {
      "midi": 74,
      "hit": false,
      "t": 61087.81133333393,
      "d": 303.3470083333377,
      "v": 58
    },
    {
      "midi": 62,
      "hit": false,
      "t": 61087.81133333393,
      "d": 324.26749166667287,
      "v": 44
    },
    {
      "midi": 59,
      "hit": false,
      "t": 61506.2210000006,
      "d": 219.66507499999716,
      "v": 42
    },
    {
      "midi": 55,
      "hit": false,
      "t": 61506.2210000006,
      "d": 240.5855583333323,
      "v": 54
    },
    {
      "midi": 62,
      "hit": false,
      "t": 61506.2210000006,
      "d": 261.50604166666744,
      "v": 42
    },
    {
      "midi": 67,
      "hit": false,
      "t": 61506.2210000006,
      "d": 271.966283333335,
      "v": 70
    },
    {
      "midi": 71,
      "hit": false,
      "t": 61506.2210000006,
      "d": 271.966283333335,
      "v": 66
    },
    {
      "midi": 74,
      "hit": false,
      "t": 61506.2210000006,
      "d": 271.966283333335,
      "v": 67
    },
    {
      "midi": 67,
      "hit": false,
      "t": 61924.63066666727,
      "d": 219.66507499999716,
      "v": 61
    },
    {
      "midi": 71,
      "hit": false,
      "t": 61924.63066666727,
      "d": 219.66507499999716,
      "v": 63
    },
    {
      "midi": 55,
      "hit": false,
      "t": 61924.63066666727,
      "d": 240.5855583333323,
      "v": 47
    },
    {
      "midi": 74,
      "hit": false,
      "t": 61924.63066666727,
      "d": 251.04579999999987,
      "v": 66
    },
    {
      "midi": 59,
      "hit": false,
      "t": 61924.63066666727,
      "d": 271.966283333335,
      "v": 51
    },
    {
      "midi": 62,
      "hit": false,
      "t": 61924.63066666727,
      "d": 303.3470083333377,
      "v": 49
    },
    {
      "midi": 74,
      "hit": false,
      "t": 62343.04033333394,
      "d": 209.20483333333686,
      "v": 56
    },
    {
      "midi": 55,
      "hit": false,
      "t": 62343.04033333394,
      "d": 240.58555833333958,
      "v": 51
    },
    {
      "midi": 67,
      "hit": false,
      "t": 62343.04033333394,
      "d": 240.58555833333958,
      "v": 70
    },
    {
      "midi": 71,
      "hit": false,
      "t": 62343.04033333394,
      "d": 240.58555833333958,
      "v": 64
    },
    {
      "midi": 59,
      "hit": false,
      "t": 62343.04033333394,
      "d": 261.5060416666747,
      "v": 43
    },
    {
      "midi": 62,
      "hit": false,
      "t": 62343.04033333394,
      "d": 282.42652500000986,
      "v": 51
    },
    {
      "midi": 71,
      "hit": false,
      "t": 62761.450000000616,
      "d": 230.12531666666473,
      "v": 70
    },
    {
      "midi": 55,
      "hit": false,
      "t": 62761.450000000616,
      "d": 271.966283333335,
      "v": 63
    },
    {
      "midi": 59,
      "hit": false,
      "t": 62761.450000000616,
      "d": 282.4265250000026,
      "v": 60
    },
    {
      "midi": 67,
      "hit": false,
      "t": 62761.450000000616,
      "d": 292.88676666667016,
      "v": 62
    },
    {
      "midi": 74,
      "hit": false,
      "t": 62761.450000000616,
      "d": 292.88676666667016,
      "v": 61
    },
    {
      "midi": 62,
      "hit": false,
      "t": 62761.450000000616,
      "d": 324.26749166667287,
      "v": 48
    },
    {
      "midi": 55,
      "hit": false,
      "t": 63179.85966666729,
      "d": 219.66507499999716,
      "v": 58
    },
    {
      "midi": 59,
      "hit": false,
      "t": 63179.85966666729,
      "d": 240.5855583333323,
      "v": 51
    },
    {
      "midi": 74,
      "hit": false,
      "t": 63179.85966666729,
      "d": 251.04579999999987,
      "v": 56
    },
    {
      "midi": 67,
      "hit": false,
      "t": 63179.85966666729,
      "d": 261.50604166666744,
      "v": 56
    },
    {
      "midi": 62,
      "hit": false,
      "t": 63179.85966666729,
      "d": 271.966283333335,
      "v": 51
    },
    {
      "midi": 71,
      "hit": false,
      "t": 63179.85966666729,
      "d": 303.3470083333377,
      "v": 58
    },
    {
      "midi": 74,
      "hit": false,
      "t": 63598.26933333396,
      "d": 219.66507499999716,
      "v": 58
    },
    {
      "midi": 67,
      "hit": false,
      "t": 63598.26933333396,
      "d": 251.04579999999987,
      "v": 66
    },
    {
      "midi": 62,
      "hit": false,
      "t": 63598.26933333396,
      "d": 271.966283333335,
      "v": 35
    },
    {
      "midi": 71,
      "hit": false,
      "t": 63598.26933333396,
      "d": 271.966283333335,
      "v": 68
    },
    {
      "midi": 55,
      "hit": false,
      "t": 63598.26933333396,
      "d": 303.3470083333377,
      "v": 52
    },
    {
      "midi": 59,
      "hit": false,
      "t": 63598.26933333396,
      "d": 324.26749166667287,
      "v": 44
    },
    {
      "midi": 59,
      "hit": false,
      "t": 64016.67900000064,
      "d": 219.66507499999716,
      "v": 42
    },
    {
      "midi": 55,
      "hit": false,
      "t": 64016.67900000064,
      "d": 240.5855583333323,
      "v": 54
    },
    {
      "midi": 64,
      "hit": false,
      "t": 64016.67900000064,
      "d": 261.50604166666744,
      "v": 42
    },
    {
      "midi": 67,
      "hit": false,
      "t": 64016.67900000064,
      "d": 271.966283333335,
      "v": 70
    },
    {
      "midi": 71,
      "hit": false,
      "t": 64016.67900000064,
      "d": 271.966283333335,
      "v": 64
    },
    {
      "midi": 76,
      "hit": false,
      "t": 64016.67900000064,
      "d": 271.966283333335,
      "v": 67
    },
    {
      "midi": 67,
      "hit": false,
      "t": 64435.0886666673,
      "d": 219.66507499999716,
      "v": 61
    },
    {
      "midi": 71,
      "hit": false,
      "t": 64435.0886666673,
      "d": 219.66507499999716,
      "v": 63
    },
    {
      "midi": 55,
      "hit": false,
      "t": 64435.0886666673,
      "d": 240.5855583333323,
      "v": 47
    },
    {
      "midi": 76,
      "hit": false,
      "t": 64435.0886666673,
      "d": 251.04579999999987,
      "v": 59
    },
    {
      "midi": 59,
      "hit": false,
      "t": 64435.0886666673,
      "d": 271.966283333335,
      "v": 51
    },
    {
      "midi": 64,
      "hit": false,
      "t": 64435.0886666673,
      "d": 303.3470083333377,
      "v": 49
    },
    {
      "midi": 76,
      "hit": false,
      "t": 64853.49833333398,
      "d": 209.20483333333686,
      "v": 56
    },
    {
      "midi": 55,
      "hit": false,
      "t": 64853.49833333398,
      "d": 240.58555833333958,
      "v": 51
    },
    {
      "midi": 67,
      "hit": false,
      "t": 64853.49833333398,
      "d": 240.58555833333958,
      "v": 70
    },
    {
      "midi": 71,
      "hit": false,
      "t": 64853.49833333398,
      "d": 240.58555833333958,
      "v": 64
    },
    {
      "midi": 59,
      "hit": false,
      "t": 64853.49833333398,
      "d": 261.5060416666747,
      "v": 43
    },
    {
      "midi": 64,
      "hit": false,
      "t": 64853.49833333398,
      "d": 282.42652500000986,
      "v": 51
    },
    {
      "midi": 71,
      "hit": false,
      "t": 65271.90800000065,
      "d": 230.12531666666473,
      "v": 70
    },
    {
      "midi": 55,
      "hit": false,
      "t": 65271.90800000065,
      "d": 271.96628333332774,
      "v": 63
    },
    {
      "midi": 59,
      "hit": false,
      "t": 65271.90800000065,
      "d": 282.42652499998803,
      "v": 60
    },
    {
      "midi": 67,
      "hit": false,
      "t": 65271.90800000065,
      "d": 292.8867666666483,
      "v": 62
    },
    {
      "midi": 76,
      "hit": false,
      "t": 65271.90800000065,
      "d": 292.8867666666483,
      "v": 54
    },
    {
      "midi": 64,
      "hit": false,
      "t": 65271.90800000065,
      "d": 324.26749166664376,
      "v": 48
    },
    {
      "midi": 55,
      "hit": false,
      "t": 65690.3176666673,
      "d": 219.66507499999716,
      "v": 58
    },
    {
      "midi": 59,
      "hit": false,
      "t": 65690.3176666673,
      "d": 240.5855583333323,
      "v": 51
    },
    {
      "midi": 76,
      "hit": false,
      "t": 65690.3176666673,
      "d": 251.0457999999926,
      "v": 56
    },
    {
      "midi": 67,
      "hit": false,
      "t": 65690.3176666673,
      "d": 261.5060416666529,
      "v": 56
    },
    {
      "midi": 64,
      "hit": false,
      "t": 65690.3176666673,
      "d": 271.9662833333132,
      "v": 51
    },
    {
      "midi": 71,
      "hit": false,
      "t": 65690.3176666673,
      "d": 303.3470083333086,
      "v": 58
    },
    {
      "midi": 64,
      "hit": false,
      "t": 66108.72733333394,
      "d": 251.04580000000715,
      "v": 35
    },
    {
      "midi": 67,
      "hit": false,
      "t": 66108.72733333394,
      "d": 251.04580000000715,
      "v": 66
    },
    {
      "midi": 71,
      "hit": false,
      "t": 66108.72733333394,
      "d": 271.9662833333423,
      "v": 68
    },
    {
      "midi": 55,
      "hit": false,
      "t": 66108.72733333394,
      "d": 303.3470083333377,
      "v": 52
    },
    {
      "midi": 76,
      "hit": false,
      "t": 66108.72733333394,
      "d": 303.3470083333377,
      "v": 58
    },
    {
      "midi": 59,
      "hit": false,
      "t": 66108.72733333394,
      "d": 324.26749166667287,
      "v": 44
    },
    {
      "midi": 60,
      "hit": false,
      "t": 66527.13700000061,
      "d": 219.66507499999716,
      "v": 42
    },
    {
      "midi": 55,
      "hit": false,
      "t": 66527.13700000061,
      "d": 240.5855583333323,
      "v": 54
    },
    {
      "midi": 64,
      "hit": false,
      "t": 66527.13700000061,
      "d": 261.50604166666744,
      "v": 42
    },
    {
      "midi": 69,
      "hit": false,
      "t": 66527.13700000061,
      "d": 271.96628333332774,
      "v": 70
    },
    {
      "midi": 72,
      "hit": false,
      "t": 66527.13700000061,
      "d": 271.96628333332774,
      "v": 64
    },
    {
      "midi": 76,
      "hit": false,
      "t": 66527.13700000061,
      "d": 271.96628333332774,
      "v": 67
    },
    {
      "midi": 69,
      "hit": false,
      "t": 66945.54666666727,
      "d": 219.66507499999716,
      "v": 61
    },
    {
      "midi": 72,
      "hit": false,
      "t": 66945.54666666727,
      "d": 219.66507499999716,
      "v": 63
    },
    {
      "midi": 55,
      "hit": false,
      "t": 66945.54666666727,
      "d": 240.5855583333323,
      "v": 47
    },
    {
      "midi": 76,
      "hit": false,
      "t": 66945.54666666727,
      "d": 251.0457999999926,
      "v": 59
    },
    {
      "midi": 60,
      "hit": false,
      "t": 66945.54666666727,
      "d": 271.96628333332774,
      "v": 51
    },
    {
      "midi": 64,
      "hit": false,
      "t": 66945.54666666727,
      "d": 303.3470083333232,
      "v": 49
    },
    {
      "midi": 76,
      "hit": false,
      "t": 67363.95633333393,
      "d": 209.20483333333686,
      "v": 56
    },
    {
      "midi": 55,
      "hit": false,
      "t": 67363.95633333393,
      "d": 240.5855583333323,
      "v": 51
    },
    {
      "midi": 69,
      "hit": false,
      "t": 67363.95633333393,
      "d": 240.5855583333323,
      "v": 70
    },
    {
      "midi": 72,
      "hit": false,
      "t": 67363.95633333393,
      "d": 240.5855583333323,
      "v": 64
    },
    {
      "midi": 60,
      "hit": false,
      "t": 67363.95633333393,
      "d": 261.50604166666744,
      "v": 43
    },
    {
      "midi": 64,
      "hit": false,
      "t": 67363.95633333393,
      "d": 282.4265250000026,
      "v": 51
    },
    {
      "midi": 72,
      "hit": false,
      "t": 67782.3660000006,
      "d": 230.125316666672,
      "v": 70
    },
    {
      "midi": 55,
      "hit": false,
      "t": 67782.3660000006,
      "d": 271.9662833333423,
      "v": 63
    },
    {
      "midi": 60,
      "hit": false,
      "t": 67782.3660000006,
      "d": 282.4265250000026,
      "v": 60
    },
    {
      "midi": 69,
      "hit": false,
      "t": 67782.3660000006,
      "d": 292.8867666666629,
      "v": 62
    },
    {
      "midi": 76,
      "hit": false,
      "t": 67782.3660000006,
      "d": 292.8867666666629,
      "v": 54
    },
    {
      "midi": 64,
      "hit": false,
      "t": 67782.3660000006,
      "d": 324.2674916666583,
      "v": 48
    },
    {
      "midi": 55,
      "hit": false,
      "t": 68200.77566666726,
      "d": 219.66507499999716,
      "v": 58
    },
    {
      "midi": 60,
      "hit": false,
      "t": 68200.77566666726,
      "d": 240.5855583333323,
      "v": 51
    },
    {
      "midi": 76,
      "hit": false,
      "t": 68200.77566666726,
      "d": 251.0457999999926,
      "v": 56
    },
    {
      "midi": 69,
      "hit": false,
      "t": 68200.77566666726,
      "d": 261.5060416666529,
      "v": 56
    },
    {
      "midi": 64,
      "hit": false,
      "t": 68200.77566666726,
      "d": 271.9662833333132,
      "v": 51
    },
    {
      "midi": 72,
      "hit": false,
      "t": 68200.77566666726,
      "d": 303.3470083333086,
      "v": 58
    },
    {
      "midi": 64,
      "hit": false,
      "t": 68619.18533333391,
      "d": 251.04580000000715,
      "v": 35
    },
    {
      "midi": 69,
      "hit": false,
      "t": 68619.18533333391,
      "d": 251.04580000000715,
      "v": 66
    },
    {
      "midi": 72,
      "hit": false,
      "t": 68619.18533333391,
      "d": 271.9662833333423,
      "v": 68
    },
    {
      "midi": 55,
      "hit": false,
      "t": 68619.18533333391,
      "d": 303.3470083333377,
      "v": 52
    },
    {
      "midi": 76,
      "hit": false,
      "t": 68619.18533333391,
      "d": 303.3470083333377,
      "v": 58
    },
    {
      "midi": 60,
      "hit": false,
      "t": 68619.18533333391,
      "d": 324.26749166667287,
      "v": 44
    },
    {
      "midi": 62,
      "hit": false,
      "t": 69037.59500000058,
      "d": 219.66507499999716,
      "v": 42
    },
    {
      "midi": 57,
      "hit": false,
      "t": 69037.59500000058,
      "d": 240.5855583333323,
      "v": 54
    },
    {
      "midi": 66,
      "hit": false,
      "t": 69037.59500000058,
      "d": 261.50604166666744,
      "v": 42
    },
    {
      "midi": 69,
      "hit": false,
      "t": 69037.59500000058,
      "d": 271.96628333332774,
      "v": 70
    },
    {
      "midi": 72,
      "hit": false,
      "t": 69037.59500000058,
      "d": 271.96628333332774,
      "v": 64
    },
    {
      "midi": 74,
      "hit": false,
      "t": 69037.59500000058,
      "d": 271.96628333332774,
      "v": 67
    },
    {
      "midi": 69,
      "hit": false,
      "t": 69456.00466666724,
      "d": 219.66507499999716,
      "v": 61
    },
    {
      "midi": 72,
      "hit": false,
      "t": 69456.00466666724,
      "d": 219.66507499999716,
      "v": 63
    },
    {
      "midi": 57,
      "hit": false,
      "t": 69456.00466666724,
      "d": 240.5855583333323,
      "v": 47
    },
    {
      "midi": 74,
      "hit": false,
      "t": 69456.00466666724,
      "d": 251.0457999999926,
      "v": 59
    },
    {
      "midi": 62,
      "hit": false,
      "t": 69456.00466666724,
      "d": 271.96628333332774,
      "v": 51
    },
    {
      "midi": 66,
      "hit": false,
      "t": 69456.00466666724,
      "d": 303.3470083333232,
      "v": 49
    },
    {
      "midi": 74,
      "hit": false,
      "t": 69874.4143333339,
      "d": 209.20483333333686,
      "v": 56
    },
    {
      "midi": 57,
      "hit": false,
      "t": 69874.4143333339,
      "d": 240.5855583333323,
      "v": 51
    },
    {
      "midi": 69,
      "hit": false,
      "t": 69874.4143333339,
      "d": 240.5855583333323,
      "v": 70
    },
    {
      "midi": 72,
      "hit": false,
      "t": 69874.4143333339,
      "d": 240.5855583333323,
      "v": 64
    },
    {
      "midi": 62,
      "hit": false,
      "t": 69874.4143333339,
      "d": 261.50604166666744,
      "v": 43
    },
    {
      "midi": 66,
      "hit": false,
      "t": 69874.4143333339,
      "d": 282.4265250000026,
      "v": 51
    },
    {
      "midi": 72,
      "hit": false,
      "t": 70292.82400000058,
      "d": 230.125316666672,
      "v": 70
    },
    {
      "midi": 57,
      "hit": false,
      "t": 70292.82400000058,
      "d": 271.9662833333423,
      "v": 63
    },
    {
      "midi": 62,
      "hit": false,
      "t": 70292.82400000058,
      "d": 282.4265250000026,
      "v": 60
    },
    {
      "midi": 69,
      "hit": false,
      "t": 70292.82400000058,
      "d": 292.8867666666629,
      "v": 62
    },
    {
      "midi": 74,
      "hit": false,
      "t": 70292.82400000058,
      "d": 292.8867666666629,
      "v": 54
    },
    {
      "midi": 66,
      "hit": false,
      "t": 70292.82400000058,
      "d": 324.2674916666583,
      "v": 48
    },
    {
      "midi": 57,
      "hit": false,
      "t": 70711.23366666723,
      "d": 219.66507499999716,
      "v": 58
    },
    {
      "midi": 62,
      "hit": false,
      "t": 70711.23366666723,
      "d": 240.5855583333323,
      "v": 51
    },
    {
      "midi": 74,
      "hit": false,
      "t": 70711.23366666723,
      "d": 251.0457999999926,
      "v": 56
    },
    {
      "midi": 69,
      "hit": false,
      "t": 70711.23366666723,
      "d": 261.5060416666529,
      "v": 56
    },
    {
      "midi": 66,
      "hit": false,
      "t": 70711.23366666723,
      "d": 271.9662833333132,
      "v": 51
    },
    {
      "midi": 72,
      "hit": false,
      "t": 70711.23366666723,
      "d": 303.3470083333086,
      "v": 58
    },
    {
      "midi": 66,
      "hit": false,
      "t": 71129.64333333388,
      "d": 251.04580000000715,
      "v": 35
    },
    {
      "midi": 69,
      "hit": false,
      "t": 71129.64333333388,
      "d": 251.04580000000715,
      "v": 66
    },
    {
      "midi": 72,
      "hit": false,
      "t": 71129.64333333388,
      "d": 271.9662833333423,
      "v": 68
    },
    {
      "midi": 57,
      "hit": false,
      "t": 71129.64333333388,
      "d": 303.3470083333377,
      "v": 52
    },
    {
      "midi": 74,
      "hit": false,
      "t": 71129.64333333388,
      "d": 303.3470083333377,
      "v": 58
    },
    {
      "midi": 62,
      "hit": false,
      "t": 71129.64333333388,
      "d": 324.26749166667287,
      "v": 44
    },
    {
      "midi": 59,
      "hit": false,
      "t": 71548.05300000055,
      "d": 219.66507499999716,
      "v": 42
    },
    {
      "midi": 55,
      "hit": false,
      "t": 71548.05300000055,
      "d": 240.5855583333323,
      "v": 54
    },
    {
      "midi": 62,
      "hit": false,
      "t": 71548.05300000055,
      "d": 261.50604166666744,
      "v": 42
    },
    {
      "midi": 67,
      "hit": false,
      "t": 71548.05300000055,
      "d": 271.96628333332774,
      "v": 70
    },
    {
      "midi": 71,
      "hit": false,
      "t": 71548.05300000055,
      "d": 271.96628333332774,
      "v": 66
    },
    {
      "midi": 74,
      "hit": false,
      "t": 71548.05300000055,
      "d": 271.96628333332774,
      "v": 67
    },
    {
      "midi": 67,
      "hit": false,
      "t": 71966.46266666721,
      "d": 219.66507499999716,
      "v": 61
    },
    {
      "midi": 71,
      "hit": false,
      "t": 71966.46266666721,
      "d": 219.66507499999716,
      "v": 63
    },
    {
      "midi": 55,
      "hit": false,
      "t": 71966.46266666721,
      "d": 240.5855583333323,
      "v": 47
    },
    {
      "midi": 74,
      "hit": false,
      "t": 71966.46266666721,
      "d": 251.0457999999926,
      "v": 66
    },
    {
      "midi": 59,
      "hit": false,
      "t": 71966.46266666721,
      "d": 271.96628333332774,
      "v": 51
    },
    {
      "midi": 62,
      "hit": false,
      "t": 71966.46266666721,
      "d": 303.3470083333232,
      "v": 49
    },
    {
      "midi": 74,
      "hit": false,
      "t": 72384.87233333387,
      "d": 209.20483333333686,
      "v": 56
    },
    {
      "midi": 55,
      "hit": false,
      "t": 72384.87233333387,
      "d": 240.5855583333323,
      "v": 51
    },
    {
      "midi": 67,
      "hit": false,
      "t": 72384.87233333387,
      "d": 240.5855583333323,
      "v": 70
    },
    {
      "midi": 71,
      "hit": false,
      "t": 72384.87233333387,
      "d": 240.5855583333323,
      "v": 64
    },
    {
      "midi": 59,
      "hit": false,
      "t": 72384.87233333387,
      "d": 261.50604166666744,
      "v": 43
    },
    {
      "midi": 62,
      "hit": false,
      "t": 72384.87233333387,
      "d": 282.4265250000026,
      "v": 51
    },
    {
      "midi": 71,
      "hit": false,
      "t": 72803.28200000054,
      "d": 230.125316666672,
      "v": 70
    },
    {
      "midi": 55,
      "hit": false,
      "t": 72803.28200000054,
      "d": 271.9662833333423,
      "v": 63
    },
    {
      "midi": 59,
      "hit": false,
      "t": 72803.28200000054,
      "d": 282.4265250000026,
      "v": 60
    },
    {
      "midi": 67,
      "hit": false,
      "t": 72803.28200000054,
      "d": 292.8867666666629,
      "v": 62
    },
    {
      "midi": 74,
      "hit": false,
      "t": 72803.28200000054,
      "d": 292.8867666666629,
      "v": 61
    },
    {
      "midi": 62,
      "hit": false,
      "t": 72803.28200000054,
      "d": 324.2674916666583,
      "v": 48
    },
    {
      "midi": 55,
      "hit": false,
      "t": 73221.6916666672,
      "d": 219.66507499999716,
      "v": 58
    },
    {
      "midi": 59,
      "hit": false,
      "t": 73221.6916666672,
      "d": 240.5855583333323,
      "v": 51
    },
    {
      "midi": 74,
      "hit": false,
      "t": 73221.6916666672,
      "d": 251.0457999999926,
      "v": 56
    },
    {
      "midi": 67,
      "hit": false,
      "t": 73221.6916666672,
      "d": 261.5060416666529,
      "v": 56
    },
    {
      "midi": 62,
      "hit": false,
      "t": 73221.6916666672,
      "d": 271.9662833333132,
      "v": 51
    },
    {
      "midi": 71,
      "hit": false,
      "t": 73221.6916666672,
      "d": 303.3470083333086,
      "v": 58
    },
    {
      "midi": 74,
      "hit": false,
      "t": 73640.10133333385,
      "d": 219.66507499999716,
      "v": 58
    },
    {
      "midi": 67,
      "hit": false,
      "t": 73640.10133333385,
      "d": 251.0457999999926,
      "v": 66
    },
    {
      "midi": 62,
      "hit": false,
      "t": 73640.10133333385,
      "d": 271.96628333332774,
      "v": 35
    },
    {
      "midi": 71,
      "hit": false,
      "t": 73640.10133333385,
      "d": 271.96628333332774,
      "v": 68
    },
    {
      "midi": 55,
      "hit": false,
      "t": 73640.10133333385,
      "d": 303.3470083333232,
      "v": 52
    },
    {
      "midi": 59,
      "hit": false,
      "t": 73640.10133333385,
      "d": 324.2674916666583,
      "v": 44
    },
    {
      "midi": 59,
      "hit": false,
      "t": 74058.51100000051,
      "d": 219.66507499999716,
      "v": 42
    },
    {
      "midi": 55,
      "hit": false,
      "t": 74058.51100000051,
      "d": 240.5855583333323,
      "v": 54
    },
    {
      "midi": 64,
      "hit": false,
      "t": 74058.51100000051,
      "d": 261.50604166666744,
      "v": 42
    },
    {
      "midi": 67,
      "hit": false,
      "t": 74058.51100000051,
      "d": 271.96628333332774,
      "v": 70
    },
    {
      "midi": 71,
      "hit": false,
      "t": 74058.51100000051,
      "d": 271.96628333332774,
      "v": 64
    },
    {
      "midi": 76,
      "hit": false,
      "t": 74058.51100000051,
      "d": 271.96628333332774,
      "v": 67
    },
    {
      "midi": 67,
      "hit": false,
      "t": 74476.92066666717,
      "d": 219.66507499999716,
      "v": 61
    },
    {
      "midi": 71,
      "hit": false,
      "t": 74476.92066666717,
      "d": 219.66507499999716,
      "v": 63
    },
    {
      "midi": 55,
      "hit": false,
      "t": 74476.92066666717,
      "d": 240.5855583333323,
      "v": 47
    },
    {
      "midi": 76,
      "hit": false,
      "t": 74476.92066666717,
      "d": 251.0457999999926,
      "v": 59
    },
    {
      "midi": 59,
      "hit": false,
      "t": 74476.92066666717,
      "d": 271.96628333332774,
      "v": 51
    },
    {
      "midi": 64,
      "hit": false,
      "t": 74476.92066666717,
      "d": 303.3470083333232,
      "v": 49
    },
    {
      "midi": 76,
      "hit": false,
      "t": 74895.33033333383,
      "d": 209.20483333333686,
      "v": 56
    },
    {
      "midi": 55,
      "hit": false,
      "t": 74895.33033333383,
      "d": 240.5855583333323,
      "v": 51
    },
    {
      "midi": 67,
      "hit": false,
      "t": 74895.33033333383,
      "d": 240.5855583333323,
      "v": 70
    },
    {
      "midi": 71,
      "hit": false,
      "t": 74895.33033333383,
      "d": 240.5855583333323,
      "v": 64
    },
    {
      "midi": 59,
      "hit": false,
      "t": 74895.33033333383,
      "d": 261.50604166666744,
      "v": 43
    },
    {
      "midi": 64,
      "hit": false,
      "t": 74895.33033333383,
      "d": 282.4265250000026,
      "v": 51
    },
    {
      "midi": 71,
      "hit": false,
      "t": 75313.7400000005,
      "d": 230.125316666672,
      "v": 70
    },
    {
      "midi": 55,
      "hit": false,
      "t": 75313.7400000005,
      "d": 271.9662833333423,
      "v": 63
    },
    {
      "midi": 59,
      "hit": false,
      "t": 75313.7400000005,
      "d": 282.4265250000026,
      "v": 60
    },
    {
      "midi": 67,
      "hit": false,
      "t": 75313.7400000005,
      "d": 292.8867666666629,
      "v": 62
    },
    {
      "midi": 76,
      "hit": false,
      "t": 75313.7400000005,
      "d": 292.8867666666629,
      "v": 54
    },
    {
      "midi": 64,
      "hit": false,
      "t": 75313.7400000005,
      "d": 324.2674916666583,
      "v": 48
    },
    {
      "midi": 55,
      "hit": false,
      "t": 75732.14966666716,
      "d": 219.66507499999716,
      "v": 58
    },
    {
      "midi": 59,
      "hit": false,
      "t": 75732.14966666716,
      "d": 240.5855583333323,
      "v": 51
    },
    {
      "midi": 76,
      "hit": false,
      "t": 75732.14966666716,
      "d": 251.0457999999926,
      "v": 56
    },
    {
      "midi": 67,
      "hit": false,
      "t": 75732.14966666716,
      "d": 261.5060416666529,
      "v": 56
    },
    {
      "midi": 64,
      "hit": false,
      "t": 75732.14966666716,
      "d": 271.9662833333132,
      "v": 51
    },
    {
      "midi": 71,
      "hit": false,
      "t": 75732.14966666716,
      "d": 303.3470083333086,
      "v": 58
    },
    {
      "midi": 64,
      "hit": false,
      "t": 76150.5593333338,
      "d": 251.04580000000715,
      "v": 35
    },
    {
      "midi": 67,
      "hit": false,
      "t": 76150.5593333338,
      "d": 251.04580000000715,
      "v": 66
    },
    {
      "midi": 71,
      "hit": false,
      "t": 76150.5593333338,
      "d": 271.9662833333423,
      "v": 68
    },
    {
      "midi": 55,
      "hit": false,
      "t": 76150.5593333338,
      "d": 303.3470083333377,
      "v": 52
    },
    {
      "midi": 76,
      "hit": false,
      "t": 76150.5593333338,
      "d": 303.3470083333377,
      "v": 58
    },
    {
      "midi": 59,
      "hit": false,
      "t": 76150.5593333338,
      "d": 324.26749166667287,
      "v": 44
    },
    {
      "midi": 60,
      "hit": false,
      "t": 76568.96900000048,
      "d": 219.66507499999716,
      "v": 42
    },
    {
      "midi": 55,
      "hit": false,
      "t": 76568.96900000048,
      "d": 240.5855583333323,
      "v": 54
    },
    {
      "midi": 64,
      "hit": false,
      "t": 76568.96900000048,
      "d": 261.50604166666744,
      "v": 42
    },
    {
      "midi": 69,
      "hit": false,
      "t": 76568.96900000048,
      "d": 271.96628333332774,
      "v": 70
    },
    {
      "midi": 72,
      "hit": false,
      "t": 76568.96900000048,
      "d": 271.96628333332774,
      "v": 64
    },
    {
      "midi": 76,
      "hit": false,
      "t": 76568.96900000048,
      "d": 271.96628333332774,
      "v": 67
    },
    {
      "midi": 69,
      "hit": false,
      "t": 76987.37866666714,
      "d": 219.66507499999716,
      "v": 61
    },
    {
      "midi": 72,
      "hit": false,
      "t": 76987.37866666714,
      "d": 219.66507499999716,
      "v": 63
    },
    {
      "midi": 55,
      "hit": false,
      "t": 76987.37866666714,
      "d": 240.5855583333323,
      "v": 47
    },
    {
      "midi": 76,
      "hit": false,
      "t": 76987.37866666714,
      "d": 251.0457999999926,
      "v": 59
    },
    {
      "midi": 60,
      "hit": false,
      "t": 76987.37866666714,
      "d": 271.96628333332774,
      "v": 51
    },
    {
      "midi": 64,
      "hit": false,
      "t": 76987.37866666714,
      "d": 303.3470083333232,
      "v": 49
    },
    {
      "midi": 76,
      "hit": false,
      "t": 77405.7883333338,
      "d": 209.20483333333686,
      "v": 56
    },
    {
      "midi": 55,
      "hit": false,
      "t": 77405.7883333338,
      "d": 240.5855583333323,
      "v": 51
    },
    {
      "midi": 69,
      "hit": false,
      "t": 77405.7883333338,
      "d": 240.5855583333323,
      "v": 70
    },
    {
      "midi": 72,
      "hit": false,
      "t": 77405.7883333338,
      "d": 240.5855583333323,
      "v": 64
    },
    {
      "midi": 60,
      "hit": false,
      "t": 77405.7883333338,
      "d": 261.50604166666744,
      "v": 43
    },
    {
      "midi": 64,
      "hit": false,
      "t": 77405.7883333338,
      "d": 282.4265250000026,
      "v": 51
    },
    {
      "midi": 72,
      "hit": false,
      "t": 77824.19800000047,
      "d": 230.125316666672,
      "v": 70
    },
    {
      "midi": 55,
      "hit": false,
      "t": 77824.19800000047,
      "d": 271.9662833333423,
      "v": 63
    },
    {
      "midi": 60,
      "hit": false,
      "t": 77824.19800000047,
      "d": 282.4265250000026,
      "v": 60
    },
    {
      "midi": 69,
      "hit": false,
      "t": 77824.19800000047,
      "d": 292.8867666666629,
      "v": 62
    },
    {
      "midi": 76,
      "hit": false,
      "t": 77824.19800000047,
      "d": 292.8867666666629,
      "v": 54
    },
    {
      "midi": 64,
      "hit": false,
      "t": 77824.19800000047,
      "d": 324.2674916666583,
      "v": 48
    },
    {
      "midi": 55,
      "hit": false,
      "t": 78242.60766666713,
      "d": 219.66507499999716,
      "v": 58
    },
    {
      "midi": 60,
      "hit": false,
      "t": 78242.60766666713,
      "d": 240.5855583333323,
      "v": 51
    },
    {
      "midi": 76,
      "hit": false,
      "t": 78242.60766666713,
      "d": 251.0457999999926,
      "v": 56
    },
    {
      "midi": 69,
      "hit": false,
      "t": 78242.60766666713,
      "d": 261.5060416666529,
      "v": 56
    },
    {
      "midi": 64,
      "hit": false,
      "t": 78242.60766666713,
      "d": 271.9662833333132,
      "v": 51
    },
    {
      "midi": 72,
      "hit": false,
      "t": 78242.60766666713,
      "d": 303.3470083333086,
      "v": 58
    },
    {
      "midi": 64,
      "hit": false,
      "t": 78661.01733333377,
      "d": 251.04580000000715,
      "v": 35
    },
    {
      "midi": 69,
      "hit": false,
      "t": 78661.01733333377,
      "d": 251.04580000000715,
      "v": 66
    },
    {
      "midi": 72,
      "hit": false,
      "t": 78661.01733333377,
      "d": 271.9662833333423,
      "v": 68
    },
    {
      "midi": 55,
      "hit": false,
      "t": 78661.01733333377,
      "d": 303.3470083333377,
      "v": 52
    },
    {
      "midi": 76,
      "hit": false,
      "t": 78661.01733333377,
      "d": 303.3470083333377,
      "v": 58
    },
    {
      "midi": 60,
      "hit": false,
      "t": 78661.01733333377,
      "d": 324.26749166667287,
      "v": 44
    },
    {
      "midi": 62,
      "hit": false,
      "t": 79079.42700000045,
      "d": 219.66507499999716,
      "v": 42
    },
    {
      "midi": 57,
      "hit": false,
      "t": 79079.42700000045,
      "d": 240.5855583333323,
      "v": 54
    },
    {
      "midi": 66,
      "hit": false,
      "t": 79079.42700000045,
      "d": 261.50604166666744,
      "v": 42
    },
    {
      "midi": 69,
      "hit": false,
      "t": 79079.42700000045,
      "d": 271.96628333332774,
      "v": 70
    },
    {
      "midi": 72,
      "hit": false,
      "t": 79079.42700000045,
      "d": 271.96628333332774,
      "v": 64
    },
    {
      "midi": 74,
      "hit": false,
      "t": 79079.42700000045,
      "d": 271.96628333332774,
      "v": 67
    },
    {
      "midi": 69,
      "hit": false,
      "t": 79497.8366666671,
      "d": 219.66507499999716,
      "v": 61
    },
    {
      "midi": 72,
      "hit": false,
      "t": 79497.8366666671,
      "d": 219.66507499999716,
      "v": 63
    },
    {
      "midi": 57,
      "hit": false,
      "t": 79497.8366666671,
      "d": 240.5855583333323,
      "v": 47
    },
    {
      "midi": 74,
      "hit": false,
      "t": 79497.8366666671,
      "d": 251.0457999999926,
      "v": 59
    },
    {
      "midi": 62,
      "hit": false,
      "t": 79497.8366666671,
      "d": 271.96628333332774,
      "v": 51
    },
    {
      "midi": 66,
      "hit": false,
      "t": 79497.8366666671,
      "d": 303.3470083333232,
      "v": 49
    },
    {
      "midi": 74,
      "hit": false,
      "t": 79916.24633333377,
      "d": 209.20483333333686,
      "v": 56
    },
    {
      "midi": 57,
      "hit": false,
      "t": 79916.24633333377,
      "d": 240.5855583333323,
      "v": 51
    },
    {
      "midi": 69,
      "hit": false,
      "t": 79916.24633333377,
      "d": 240.5855583333323,
      "v": 70
    },
    {
      "midi": 72,
      "hit": false,
      "t": 79916.24633333377,
      "d": 240.5855583333323,
      "v": 64
    },
    {
      "midi": 62,
      "hit": false,
      "t": 79916.24633333377,
      "d": 261.50604166666744,
      "v": 43
    },
    {
      "midi": 66,
      "hit": false,
      "t": 79916.24633333377,
      "d": 282.4265250000026,
      "v": 51
    },
    {
      "midi": 72,
      "hit": false,
      "t": 80334.65600000044,
      "d": 230.125316666672,
      "v": 70
    },
    {
      "midi": 57,
      "hit": false,
      "t": 80334.65600000044,
      "d": 271.9662833333423,
      "v": 63
    },
    {
      "midi": 62,
      "hit": false,
      "t": 80334.65600000044,
      "d": 282.4265250000026,
      "v": 60
    },
    {
      "midi": 69,
      "hit": false,
      "t": 80334.65600000044,
      "d": 292.8867666666629,
      "v": 62
    },
    {
      "midi": 74,
      "hit": false,
      "t": 80334.65600000044,
      "d": 292.8867666666629,
      "v": 54
    },
    {
      "midi": 66,
      "hit": false,
      "t": 80334.65600000044,
      "d": 324.2674916666583,
      "v": 48
    },
    {
      "midi": 57,
      "hit": false,
      "t": 80753.0656666671,
      "d": 219.66507499999716,
      "v": 58
    },
    {
      "midi": 62,
      "hit": false,
      "t": 80753.0656666671,
      "d": 240.5855583333323,
      "v": 51
    },
    {
      "midi": 74,
      "hit": false,
      "t": 80753.0656666671,
      "d": 251.0457999999926,
      "v": 56
    },
    {
      "midi": 69,
      "hit": false,
      "t": 80753.0656666671,
      "d": 261.5060416666529,
      "v": 56
    },
    {
      "midi": 66,
      "hit": false,
      "t": 80753.0656666671,
      "d": 271.9662833333132,
      "v": 51
    },
    {
      "midi": 72,
      "hit": false,
      "t": 80753.0656666671,
      "d": 303.3470083333086,
      "v": 58
    },
    {
      "midi": 66,
      "hit": false,
      "t": 81171.47533333374,
      "d": 251.04580000000715,
      "v": 35
    },
    {
      "midi": 69,
      "hit": false,
      "t": 81171.47533333374,
      "d": 251.04580000000715,
      "v": 66
    },
    {
      "midi": 72,
      "hit": false,
      "t": 81171.47533333374,
      "d": 271.9662833333423,
      "v": 68
    },
    {
      "midi": 57,
      "hit": false,
      "t": 81171.47533333374,
      "d": 303.3470083333377,
      "v": 52
    },
    {
      "midi": 74,
      "hit": false,
      "t": 81171.47533333374,
      "d": 303.3470083333377,
      "v": 58
    },
    {
      "midi": 62,
      "hit": false,
      "t": 81171.47533333374,
      "d": 324.26749166667287,
      "v": 44
    },
    {
      "midi": 59,
      "hit": false,
      "t": 81589.88500000042,
      "d": 219.66507499999716,
      "v": 42
    },
    {
      "midi": 55,
      "hit": false,
      "t": 81589.88500000042,
      "d": 240.5855583333323,
      "v": 54
    },
    {
      "midi": 62,
      "hit": false,
      "t": 81589.88500000042,
      "d": 261.50604166666744,
      "v": 42
    },
    {
      "midi": 67,
      "hit": false,
      "t": 81589.88500000042,
      "d": 271.96628333332774,
      "v": 70
    },
    {
      "midi": 71,
      "hit": false,
      "t": 81589.88500000042,
      "d": 271.96628333332774,
      "v": 66
    },
    {
      "midi": 74,
      "hit": false,
      "t": 81589.88500000042,
      "d": 271.96628333332774,
      "v": 67
    },
    {
      "midi": 67,
      "hit": false,
      "t": 82008.29466666708,
      "d": 219.66507499999716,
      "v": 61
    },
    {
      "midi": 71,
      "hit": false,
      "t": 82008.29466666708,
      "d": 219.66507499999716,
      "v": 63
    },
    {
      "midi": 55,
      "hit": false,
      "t": 82008.29466666708,
      "d": 240.5855583333323,
      "v": 47
    },
    {
      "midi": 74,
      "hit": false,
      "t": 82008.29466666708,
      "d": 251.0457999999926,
      "v": 66
    },
    {
      "midi": 59,
      "hit": false,
      "t": 82008.29466666708,
      "d": 271.96628333332774,
      "v": 51
    },
    {
      "midi": 62,
      "hit": false,
      "t": 82008.29466666708,
      "d": 303.3470083333232,
      "v": 49
    },
    {
      "midi": 74,
      "hit": false,
      "t": 82426.70433333374,
      "d": 209.20483333333686,
      "v": 56
    },
    {
      "midi": 55,
      "hit": false,
      "t": 82426.70433333374,
      "d": 240.5855583333323,
      "v": 51
    },
    {
      "midi": 67,
      "hit": false,
      "t": 82426.70433333374,
      "d": 240.5855583333323,
      "v": 70
    },
    {
      "midi": 71,
      "hit": false,
      "t": 82426.70433333374,
      "d": 240.5855583333323,
      "v": 64
    },
    {
      "midi": 59,
      "hit": false,
      "t": 82426.70433333374,
      "d": 261.50604166666744,
      "v": 43
    },
    {
      "midi": 62,
      "hit": false,
      "t": 82426.70433333374,
      "d": 282.4265250000026,
      "v": 51
    },
    {
      "midi": 71,
      "hit": false,
      "t": 82845.11400000041,
      "d": 230.125316666672,
      "v": 70
    },
    {
      "midi": 55,
      "hit": false,
      "t": 82845.11400000041,
      "d": 271.9662833333423,
      "v": 63
    },
    {
      "midi": 59,
      "hit": false,
      "t": 82845.11400000041,
      "d": 282.4265250000026,
      "v": 60
    },
    {
      "midi": 67,
      "hit": false,
      "t": 82845.11400000041,
      "d": 292.8867666666629,
      "v": 62
    },
    {
      "midi": 74,
      "hit": false,
      "t": 82845.11400000041,
      "d": 292.8867666666629,
      "v": 61
    },
    {
      "midi": 62,
      "hit": false,
      "t": 82845.11400000041,
      "d": 324.2674916666583,
      "v": 48
    },
    {
      "midi": 55,
      "hit": false,
      "t": 83263.52366666707,
      "d": 219.66507499999716,
      "v": 58
    },
    {
      "midi": 59,
      "hit": false,
      "t": 83263.52366666707,
      "d": 240.5855583333323,
      "v": 51
    },
    {
      "midi": 74,
      "hit": false,
      "t": 83263.52366666707,
      "d": 251.0457999999926,
      "v": 56
    },
    {
      "midi": 67,
      "hit": false,
      "t": 83263.52366666707,
      "d": 261.5060416666529,
      "v": 56
    },
    {
      "midi": 62,
      "hit": false,
      "t": 83263.52366666707,
      "d": 271.9662833333132,
      "v": 51
    },
    {
      "midi": 71,
      "hit": false,
      "t": 83263.52366666707,
      "d": 303.3470083333086,
      "v": 58
    },
    {
      "midi": 74,
      "hit": false,
      "t": 83681.93333333371,
      "d": 219.66507499999716,
      "v": 58
    },
    {
      "midi": 67,
      "hit": false,
      "t": 83681.93333333371,
      "d": 251.0457999999926,
      "v": 66
    },
    {
      "midi": 62,
      "hit": false,
      "t": 83681.93333333371,
      "d": 271.96628333332774,
      "v": 35
    },
    {
      "midi": 71,
      "hit": false,
      "t": 83681.93333333371,
      "d": 271.96628333332774,
      "v": 68
    },
    {
      "midi": 55,
      "hit": false,
      "t": 83681.93333333371,
      "d": 303.3470083333232,
      "v": 52
    },
    {
      "midi": 59,
      "hit": false,
      "t": 83681.93333333371,
      "d": 324.2674916666583,
      "v": 44
    },
    {
      "midi": 59,
      "hit": false,
      "t": 84100.34300000037,
      "d": 219.66507499999716,
      "v": 42
    },
    {
      "midi": 55,
      "hit": false,
      "t": 84100.34300000037,
      "d": 240.5855583333323,
      "v": 54
    },
    {
      "midi": 64,
      "hit": false,
      "t": 84100.34300000037,
      "d": 261.50604166666744,
      "v": 42
    },
    {
      "midi": 67,
      "hit": false,
      "t": 84100.34300000037,
      "d": 271.96628333332774,
      "v": 70
    },
    {
      "midi": 71,
      "hit": false,
      "t": 84100.34300000037,
      "d": 271.96628333332774,
      "v": 64
    },
    {
      "midi": 76,
      "hit": false,
      "t": 84100.34300000037,
      "d": 271.96628333332774,
      "v": 67
    },
    {
      "midi": 67,
      "hit": false,
      "t": 84518.75266666703,
      "d": 219.66507499999716,
      "v": 61
    },
    {
      "midi": 71,
      "hit": false,
      "t": 84518.75266666703,
      "d": 219.66507499999716,
      "v": 63
    },
    {
      "midi": 55,
      "hit": false,
      "t": 84518.75266666703,
      "d": 240.5855583333323,
      "v": 47
    },
    {
      "midi": 76,
      "hit": false,
      "t": 84518.75266666703,
      "d": 251.0457999999926,
      "v": 59
    },
    {
      "midi": 59,
      "hit": false,
      "t": 84518.75266666703,
      "d": 271.96628333332774,
      "v": 51
    },
    {
      "midi": 64,
      "hit": false,
      "t": 84518.75266666703,
      "d": 303.3470083333232,
      "v": 49
    },
    {
      "midi": 76,
      "hit": false,
      "t": 84937.16233333369,
      "d": 209.20483333333686,
      "v": 56
    },
    {
      "midi": 55,
      "hit": false,
      "t": 84937.16233333369,
      "d": 240.5855583333323,
      "v": 51
    },
    {
      "midi": 67,
      "hit": false,
      "t": 84937.16233333369,
      "d": 240.5855583333323,
      "v": 70
    },
    {
      "midi": 71,
      "hit": false,
      "t": 84937.16233333369,
      "d": 240.5855583333323,
      "v": 64
    },
    {
      "midi": 59,
      "hit": false,
      "t": 84937.16233333369,
      "d": 261.50604166666744,
      "v": 43
    },
    {
      "midi": 64,
      "hit": false,
      "t": 84937.16233333369,
      "d": 282.4265250000026,
      "v": 51
    },
    {
      "midi": 71,
      "hit": false,
      "t": 85355.57200000036,
      "d": 230.125316666672,
      "v": 70
    },
    {
      "midi": 55,
      "hit": false,
      "t": 85355.57200000036,
      "d": 271.9662833333423,
      "v": 63
    },
    {
      "midi": 59,
      "hit": false,
      "t": 85355.57200000036,
      "d": 282.4265250000026,
      "v": 60
    },
    {
      "midi": 67,
      "hit": false,
      "t": 85355.57200000036,
      "d": 292.8867666666629,
      "v": 62
    },
    {
      "midi": 76,
      "hit": false,
      "t": 85355.57200000036,
      "d": 292.8867666666629,
      "v": 54
    },
    {
      "midi": 64,
      "hit": false,
      "t": 85355.57200000036,
      "d": 324.2674916666583,
      "v": 48
    },
    {
      "midi": 55,
      "hit": false,
      "t": 85773.98166666702,
      "d": 219.66507499999716,
      "v": 58
    },
    {
      "midi": 59,
      "hit": false,
      "t": 85773.98166666702,
      "d": 240.5855583333323,
      "v": 51
    },
    {
      "midi": 76,
      "hit": false,
      "t": 85773.98166666702,
      "d": 251.0457999999926,
      "v": 56
    },
    {
      "midi": 67,
      "hit": false,
      "t": 85773.98166666702,
      "d": 261.5060416666529,
      "v": 56
    },
    {
      "midi": 64,
      "hit": false,
      "t": 85773.98166666702,
      "d": 271.9662833333132,
      "v": 51
    },
    {
      "midi": 71,
      "hit": false,
      "t": 85773.98166666702,
      "d": 303.3470083333086,
      "v": 58
    },
    {
      "midi": 64,
      "hit": false,
      "t": 86192.39133333367,
      "d": 251.04580000000715,
      "v": 35
    },
    {
      "midi": 67,
      "hit": false,
      "t": 86192.39133333367,
      "d": 251.04580000000715,
      "v": 66
    },
    {
      "midi": 71,
      "hit": false,
      "t": 86192.39133333367,
      "d": 271.9662833333423,
      "v": 68
    },
    {
      "midi": 55,
      "hit": false,
      "t": 86192.39133333367,
      "d": 303.3470083333377,
      "v": 52
    },
    {
      "midi": 76,
      "hit": false,
      "t": 86192.39133333367,
      "d": 303.3470083333377,
      "v": 58
    },
    {
      "midi": 59,
      "hit": false,
      "t": 86192.39133333367,
      "d": 324.26749166667287,
      "v": 44
    },
    {
      "midi": 60,
      "hit": false,
      "t": 86610.80100000034,
      "d": 219.66507499999716,
      "v": 42
    },
    {
      "midi": 55,
      "hit": false,
      "t": 86610.80100000034,
      "d": 240.5855583333323,
      "v": 54
    },
    {
      "midi": 64,
      "hit": false,
      "t": 86610.80100000034,
      "d": 261.50604166666744,
      "v": 42
    },
    {
      "midi": 69,
      "hit": false,
      "t": 86610.80100000034,
      "d": 271.96628333332774,
      "v": 70
    },
    {
      "midi": 72,
      "hit": false,
      "t": 86610.80100000034,
      "d": 271.96628333332774,
      "v": 64
    },
    {
      "midi": 76,
      "hit": false,
      "t": 86610.80100000034,
      "d": 271.96628333332774,
      "v": 67
    },
    {
      "midi": 69,
      "hit": false,
      "t": 87029.210666667,
      "d": 219.66507499999716,
      "v": 61
    },
    {
      "midi": 72,
      "hit": false,
      "t": 87029.210666667,
      "d": 219.66507499999716,
      "v": 63
    },
    {
      "midi": 55,
      "hit": false,
      "t": 87029.210666667,
      "d": 240.5855583333323,
      "v": 47
    },
    {
      "midi": 76,
      "hit": false,
      "t": 87029.210666667,
      "d": 251.0457999999926,
      "v": 59
    },
    {
      "midi": 60,
      "hit": false,
      "t": 87029.210666667,
      "d": 271.96628333332774,
      "v": 51
    },
    {
      "midi": 64,
      "hit": false,
      "t": 87029.210666667,
      "d": 303.3470083333232,
      "v": 49
    },
    {
      "midi": 76,
      "hit": false,
      "t": 87447.62033333366,
      "d": 209.20483333333686,
      "v": 56
    },
    {
      "midi": 55,
      "hit": false,
      "t": 87447.62033333366,
      "d": 240.5855583333323,
      "v": 51
    },
    {
      "midi": 69,
      "hit": false,
      "t": 87447.62033333366,
      "d": 240.5855583333323,
      "v": 70
    },
    {
      "midi": 72,
      "hit": false,
      "t": 87447.62033333366,
      "d": 240.5855583333323,
      "v": 64
    },
    {
      "midi": 60,
      "hit": false,
      "t": 87447.62033333366,
      "d": 261.50604166666744,
      "v": 43
    },
    {
      "midi": 64,
      "hit": false,
      "t": 87447.62033333366,
      "d": 282.4265250000026,
      "v": 51
    },
    {
      "midi": 72,
      "hit": false,
      "t": 87866.03000000033,
      "d": 230.125316666672,
      "v": 70
    },
    {
      "midi": 55,
      "hit": false,
      "t": 87866.03000000033,
      "d": 271.9662833333423,
      "v": 63
    },
    {
      "midi": 60,
      "hit": false,
      "t": 87866.03000000033,
      "d": 282.4265250000026,
      "v": 60
    },
    {
      "midi": 69,
      "hit": false,
      "t": 87866.03000000033,
      "d": 292.8867666666629,
      "v": 62
    },
    {
      "midi": 76,
      "hit": false,
      "t": 87866.03000000033,
      "d": 292.8867666666629,
      "v": 54
    },
    {
      "midi": 64,
      "hit": false,
      "t": 87866.03000000033,
      "d": 324.2674916666583,
      "v": 48
    },
    {
      "midi": 55,
      "hit": false,
      "t": 88284.43966666699,
      "d": 219.66507499999716,
      "v": 58
    },
    {
      "midi": 60,
      "hit": false,
      "t": 88284.43966666699,
      "d": 240.5855583333323,
      "v": 51
    },
    {
      "midi": 76,
      "hit": false,
      "t": 88284.43966666699,
      "d": 251.0457999999926,
      "v": 56
    },
    {
      "midi": 69,
      "hit": false,
      "t": 88284.43966666699,
      "d": 261.5060416666529,
      "v": 56
    },
    {
      "midi": 64,
      "hit": false,
      "t": 88284.43966666699,
      "d": 271.9662833333132,
      "v": 51
    },
    {
      "midi": 72,
      "hit": false,
      "t": 88284.43966666699,
      "d": 303.3470083333086,
      "v": 58
    },
    {
      "midi": 64,
      "hit": false,
      "t": 88702.84933333364,
      "d": 251.04580000000715,
      "v": 35
    },
    {
      "midi": 69,
      "hit": false,
      "t": 88702.84933333364,
      "d": 251.04580000000715,
      "v": 66
    },
    {
      "midi": 72,
      "hit": false,
      "t": 88702.84933333364,
      "d": 271.9662833333423,
      "v": 68
    },
    {
      "midi": 55,
      "hit": false,
      "t": 88702.84933333364,
      "d": 303.3470083333377,
      "v": 52
    },
    {
      "midi": 76,
      "hit": false,
      "t": 88702.84933333364,
      "d": 303.3470083333377,
      "v": 58
    },
    {
      "midi": 60,
      "hit": false,
      "t": 88702.84933333364,
      "d": 324.26749166667287,
      "v": 44
    },
    {
      "midi": 62,
      "hit": false,
      "t": 89121.25900000031,
      "d": 219.66507499999716,
      "v": 42
    },
    {
      "midi": 57,
      "hit": false,
      "t": 89121.25900000031,
      "d": 240.5855583333323,
      "v": 54
    },
    {
      "midi": 66,
      "hit": false,
      "t": 89121.25900000031,
      "d": 261.50604166666744,
      "v": 42
    },
    {
      "midi": 69,
      "hit": false,
      "t": 89121.25900000031,
      "d": 271.96628333332774,
      "v": 70
    },
    {
      "midi": 72,
      "hit": false,
      "t": 89121.25900000031,
      "d": 271.96628333332774,
      "v": 64
    },
    {
      "midi": 74,
      "hit": false,
      "t": 89121.25900000031,
      "d": 271.96628333332774,
      "v": 67
    },
    {
      "midi": 69,
      "hit": false,
      "t": 89539.66866666697,
      "d": 219.66507499999716,
      "v": 61
    },
    {
      "midi": 72,
      "hit": false,
      "t": 89539.66866666697,
      "d": 219.66507499999716,
      "v": 63
    },
    {
      "midi": 57,
      "hit": false,
      "t": 89539.66866666697,
      "d": 240.5855583333323,
      "v": 47
    },
    {
      "midi": 74,
      "hit": false,
      "t": 89539.66866666697,
      "d": 251.0457999999926,
      "v": 59
    },
    {
      "midi": 62,
      "hit": false,
      "t": 89539.66866666697,
      "d": 271.96628333332774,
      "v": 51
    },
    {
      "midi": 66,
      "hit": false,
      "t": 89539.66866666697,
      "d": 303.3470083333232,
      "v": 49
    },
    {
      "midi": 74,
      "hit": false,
      "t": 89958.07833333363,
      "d": 209.20483333333686,
      "v": 56
    },
    {
      "midi": 57,
      "hit": false,
      "t": 89958.07833333363,
      "d": 240.5855583333323,
      "v": 51
    },
    {
      "midi": 69,
      "hit": false,
      "t": 89958.07833333363,
      "d": 240.5855583333323,
      "v": 70
    },
    {
      "midi": 72,
      "hit": false,
      "t": 89958.07833333363,
      "d": 240.5855583333323,
      "v": 64
    },
    {
      "midi": 62,
      "hit": false,
      "t": 89958.07833333363,
      "d": 261.50604166666744,
      "v": 43
    },
    {
      "midi": 66,
      "hit": false,
      "t": 89958.07833333363,
      "d": 282.4265250000026,
      "v": 51
    },
    {
      "midi": 72,
      "hit": false,
      "t": 90376.4880000003,
      "d": 230.125316666672,
      "v": 70
    },
    {
      "midi": 57,
      "hit": false,
      "t": 90376.4880000003,
      "d": 271.9662833333423,
      "v": 63
    },
    {
      "midi": 62,
      "hit": false,
      "t": 90376.4880000003,
      "d": 282.4265250000026,
      "v": 60
    },
    {
      "midi": 69,
      "hit": false,
      "t": 90376.4880000003,
      "d": 292.8867666666629,
      "v": 62
    },
    {
      "midi": 74,
      "hit": false,
      "t": 90376.4880000003,
      "d": 292.8867666666629,
      "v": 54
    },
    {
      "midi": 66,
      "hit": false,
      "t": 90376.4880000003,
      "d": 324.2674916666583,
      "v": 48
    },
    {
      "midi": 57,
      "hit": false,
      "t": 90794.89766666696,
      "d": 219.66507499999716,
      "v": 58
    },
    {
      "midi": 62,
      "hit": false,
      "t": 90794.89766666696,
      "d": 240.5855583333323,
      "v": 51
    },
    {
      "midi": 74,
      "hit": false,
      "t": 90794.89766666696,
      "d": 251.0457999999926,
      "v": 56
    },
    {
      "midi": 69,
      "hit": false,
      "t": 90794.89766666696,
      "d": 261.5060416666529,
      "v": 56
    },
    {
      "midi": 66,
      "hit": false,
      "t": 90794.89766666696,
      "d": 271.9662833333132,
      "v": 51
    },
    {
      "midi": 72,
      "hit": false,
      "t": 90794.89766666696,
      "d": 303.3470083333086,
      "v": 58
    },
    {
      "midi": 66,
      "hit": false,
      "t": 91213.3073333336,
      "d": 251.04580000000715,
      "v": 35
    },
    {
      "midi": 69,
      "hit": false,
      "t": 91213.3073333336,
      "d": 251.04580000000715,
      "v": 66
    },
    {
      "midi": 72,
      "hit": false,
      "t": 91213.3073333336,
      "d": 271.9662833333423,
      "v": 68
    },
    {
      "midi": 57,
      "hit": false,
      "t": 91213.3073333336,
      "d": 303.3470083333377,
      "v": 52
    },
    {
      "midi": 74,
      "hit": false,
      "t": 91213.3073333336,
      "d": 303.3470083333377,
      "v": 58
    },
    {
      "midi": 62,
      "hit": false,
      "t": 91213.3073333336,
      "d": 324.26749166667287,
      "v": 44
    },
    {
      "midi": 59,
      "hit": false,
      "t": 91631.71700000028,
      "d": 219.66507499999716,
      "v": 42
    },
    {
      "midi": 55,
      "hit": false,
      "t": 91631.71700000028,
      "d": 240.5855583333323,
      "v": 54
    },
    {
      "midi": 62,
      "hit": false,
      "t": 91631.71700000028,
      "d": 261.50604166666744,
      "v": 42
    },
    {
      "midi": 67,
      "hit": false,
      "t": 91631.71700000028,
      "d": 271.96628333332774,
      "v": 70
    },
    {
      "midi": 71,
      "hit": false,
      "t": 91631.71700000028,
      "d": 271.96628333332774,
      "v": 66
    },
    {
      "midi": 74,
      "hit": false,
      "t": 91631.71700000028,
      "d": 271.96628333332774,
      "v": 67
    },
    {
      "midi": 67,
      "hit": false,
      "t": 92050.12666666694,
      "d": 219.66507499999716,
      "v": 61
    },
    {
      "midi": 71,
      "hit": false,
      "t": 92050.12666666694,
      "d": 219.66507499999716,
      "v": 63
    },
    {
      "midi": 55,
      "hit": false,
      "t": 92050.12666666694,
      "d": 240.5855583333323,
      "v": 47
    },
    {
      "midi": 74,
      "hit": false,
      "t": 92050.12666666694,
      "d": 251.0457999999926,
      "v": 66
    },
    {
      "midi": 59,
      "hit": false,
      "t": 92050.12666666694,
      "d": 271.96628333332774,
      "v": 51
    },
    {
      "midi": 62,
      "hit": false,
      "t": 92050.12666666694,
      "d": 303.3470083333232,
      "v": 49
    },
    {
      "midi": 74,
      "hit": false,
      "t": 92468.5363333336,
      "d": 209.20483333333686,
      "v": 56
    },
    {
      "midi": 55,
      "hit": false,
      "t": 92468.5363333336,
      "d": 240.5855583333323,
      "v": 51
    },
    {
      "midi": 67,
      "hit": false,
      "t": 92468.5363333336,
      "d": 240.5855583333323,
      "v": 70
    },
    {
      "midi": 71,
      "hit": false,
      "t": 92468.5363333336,
      "d": 240.5855583333323,
      "v": 64
    },
    {
      "midi": 59,
      "hit": false,
      "t": 92468.5363333336,
      "d": 261.50604166666744,
      "v": 43
    },
    {
      "midi": 62,
      "hit": false,
      "t": 92468.5363333336,
      "d": 282.4265250000026,
      "v": 51
    },
    {
      "midi": 71,
      "hit": false,
      "t": 92886.94600000027,
      "d": 230.125316666672,
      "v": 70
    },
    {
      "midi": 55,
      "hit": false,
      "t": 92886.94600000027,
      "d": 271.9662833333423,
      "v": 63
    },
    {
      "midi": 59,
      "hit": false,
      "t": 92886.94600000027,
      "d": 282.4265250000026,
      "v": 60
    },
    {
      "midi": 67,
      "hit": false,
      "t": 92886.94600000027,
      "d": 292.8867666666629,
      "v": 62
    },
    {
      "midi": 74,
      "hit": false,
      "t": 92886.94600000027,
      "d": 292.8867666666629,
      "v": 61
    },
    {
      "midi": 62,
      "hit": false,
      "t": 92886.94600000027,
      "d": 324.2674916666583,
      "v": 48
    },
    {
      "midi": 55,
      "hit": false,
      "t": 93305.35566666693,
      "d": 219.66507499999716,
      "v": 58
    },
    {
      "midi": 59,
      "hit": false,
      "t": 93305.35566666693,
      "d": 240.5855583333323,
      "v": 51
    },
    {
      "midi": 74,
      "hit": false,
      "t": 93305.35566666693,
      "d": 251.0457999999926,
      "v": 56
    },
    {
      "midi": 67,
      "hit": false,
      "t": 93305.35566666693,
      "d": 261.5060416666529,
      "v": 56
    },
    {
      "midi": 62,
      "hit": false,
      "t": 93305.35566666693,
      "d": 271.9662833333132,
      "v": 51
    },
    {
      "midi": 71,
      "hit": false,
      "t": 93305.35566666693,
      "d": 303.3470083333086,
      "v": 58
    },
    {
      "midi": 74,
      "hit": false,
      "t": 93723.76533333358,
      "d": 219.66507499999716,
      "v": 58
    },
    {
      "midi": 67,
      "hit": false,
      "t": 93723.76533333358,
      "d": 251.0457999999926,
      "v": 66
    },
    {
      "midi": 62,
      "hit": false,
      "t": 93723.76533333358,
      "d": 271.96628333332774,
      "v": 35
    },
    {
      "midi": 71,
      "hit": false,
      "t": 93723.76533333358,
      "d": 271.96628333332774,
      "v": 68
    },
    {
      "midi": 55,
      "hit": false,
      "t": 93723.76533333358,
      "d": 303.3470083333232,
      "v": 52
    },
    {
      "midi": 59,
      "hit": false,
      "t": 93723.76533333358,
      "d": 324.2674916666583,
      "v": 44
    },
    {
      "midi": 59,
      "hit": false,
      "t": 94142.17500000024,
      "d": 219.66507499999716,
      "v": 42
    },
    {
      "midi": 55,
      "hit": false,
      "t": 94142.17500000024,
      "d": 240.5855583333323,
      "v": 54
    },
    {
      "midi": 64,
      "hit": false,
      "t": 94142.17500000024,
      "d": 261.50604166666744,
      "v": 42
    },
    {
      "midi": 67,
      "hit": false,
      "t": 94142.17500000024,
      "d": 271.96628333332774,
      "v": 70
    },
    {
      "midi": 71,
      "hit": false,
      "t": 94142.17500000024,
      "d": 271.96628333332774,
      "v": 64
    },
    {
      "midi": 76,
      "hit": false,
      "t": 94142.17500000024,
      "d": 271.96628333332774,
      "v": 67
    },
    {
      "midi": 67,
      "hit": false,
      "t": 94560.5846666669,
      "d": 219.66507499999716,
      "v": 61
    },
    {
      "midi": 71,
      "hit": false,
      "t": 94560.5846666669,
      "d": 219.66507499999716,
      "v": 63
    },
    {
      "midi": 55,
      "hit": false,
      "t": 94560.5846666669,
      "d": 240.5855583333323,
      "v": 47
    },
    {
      "midi": 76,
      "hit": false,
      "t": 94560.5846666669,
      "d": 251.0457999999926,
      "v": 59
    },
    {
      "midi": 59,
      "hit": false,
      "t": 94560.5846666669,
      "d": 271.96628333332774,
      "v": 51
    },
    {
      "midi": 64,
      "hit": false,
      "t": 94560.5846666669,
      "d": 303.3470083333232,
      "v": 49
    },
    {
      "midi": 76,
      "hit": false,
      "t": 94978.99433333355,
      "d": 209.20483333333686,
      "v": 56
    },
    {
      "midi": 55,
      "hit": false,
      "t": 94978.99433333355,
      "d": 240.5855583333323,
      "v": 51
    },
    {
      "midi": 67,
      "hit": false,
      "t": 94978.99433333355,
      "d": 240.5855583333323,
      "v": 70
    },
    {
      "midi": 71,
      "hit": false,
      "t": 94978.99433333355,
      "d": 240.5855583333323,
      "v": 64
    },
    {
      "midi": 59,
      "hit": false,
      "t": 94978.99433333355,
      "d": 261.50604166666744,
      "v": 43
    },
    {
      "midi": 64,
      "hit": false,
      "t": 94978.99433333355,
      "d": 282.4265250000026,
      "v": 51
    },
    {
      "midi": 71,
      "hit": false,
      "t": 95397.40400000023,
      "d": 230.125316666672,
      "v": 70
    },
    {
      "midi": 55,
      "hit": false,
      "t": 95397.40400000023,
      "d": 271.9662833333423,
      "v": 63
    },
    {
      "midi": 59,
      "hit": false,
      "t": 95397.40400000023,
      "d": 282.4265250000026,
      "v": 60
    },
    {
      "midi": 67,
      "hit": false,
      "t": 95397.40400000023,
      "d": 292.8867666666629,
      "v": 62
    },
    {
      "midi": 76,
      "hit": false,
      "t": 95397.40400000023,
      "d": 292.8867666666629,
      "v": 54
    },
    {
      "midi": 64,
      "hit": false,
      "t": 95397.40400000023,
      "d": 324.2674916666583,
      "v": 48
    },
    {
      "midi": 55,
      "hit": false,
      "t": 95815.81366666689,
      "d": 219.66507499999716,
      "v": 58
    },
    {
      "midi": 59,
      "hit": false,
      "t": 95815.81366666689,
      "d": 240.5855583333323,
      "v": 51
    },
    {
      "midi": 76,
      "hit": false,
      "t": 95815.81366666689,
      "d": 251.0457999999926,
      "v": 56
    },
    {
      "midi": 67,
      "hit": false,
      "t": 95815.81366666689,
      "d": 261.5060416666529,
      "v": 56
    },
    {
      "midi": 64,
      "hit": false,
      "t": 95815.81366666689,
      "d": 271.9662833333132,
      "v": 51
    },
    {
      "midi": 71,
      "hit": false,
      "t": 95815.81366666689,
      "d": 303.3470083333086,
      "v": 58
    },
    {
      "midi": 64,
      "hit": false,
      "t": 96234.22333333353,
      "d": 251.04580000000715,
      "v": 35
    },
    {
      "midi": 67,
      "hit": false,
      "t": 96234.22333333353,
      "d": 251.04580000000715,
      "v": 66
    },
    {
      "midi": 71,
      "hit": false,
      "t": 96234.22333333353,
      "d": 271.9662833333423,
      "v": 68
    },
    {
      "midi": 55,
      "hit": false,
      "t": 96234.22333333353,
      "d": 303.3470083333377,
      "v": 52
    },
    {
      "midi": 76,
      "hit": false,
      "t": 96234.22333333353,
      "d": 303.3470083333377,
      "v": 58
    },
    {
      "midi": 59,
      "hit": false,
      "t": 96234.22333333353,
      "d": 324.26749166667287,
      "v": 44
    },
    {
      "midi": 60,
      "hit": false,
      "t": 96652.6330000002,
      "d": 219.66507499999716,
      "v": 42
    },
    {
      "midi": 55,
      "hit": false,
      "t": 96652.6330000002,
      "d": 240.5855583333323,
      "v": 54
    },
    {
      "midi": 64,
      "hit": false,
      "t": 96652.6330000002,
      "d": 261.50604166666744,
      "v": 42
    },
    {
      "midi": 69,
      "hit": false,
      "t": 96652.6330000002,
      "d": 271.96628333332774,
      "v": 70
    },
    {
      "midi": 72,
      "hit": false,
      "t": 96652.6330000002,
      "d": 271.96628333332774,
      "v": 64
    },
    {
      "midi": 76,
      "hit": false,
      "t": 96652.6330000002,
      "d": 271.96628333332774,
      "v": 67
    },
    {
      "midi": 69,
      "hit": false,
      "t": 97071.04266666686,
      "d": 219.66507499999716,
      "v": 61
    },
    {
      "midi": 72,
      "hit": false,
      "t": 97071.04266666686,
      "d": 219.66507499999716,
      "v": 63
    },
    {
      "midi": 55,
      "hit": false,
      "t": 97071.04266666686,
      "d": 240.5855583333323,
      "v": 47
    },
    {
      "midi": 76,
      "hit": false,
      "t": 97071.04266666686,
      "d": 251.0457999999926,
      "v": 59
    },
    {
      "midi": 60,
      "hit": false,
      "t": 97071.04266666686,
      "d": 271.96628333332774,
      "v": 51
    },
    {
      "midi": 64,
      "hit": false,
      "t": 97071.04266666686,
      "d": 303.3470083333232,
      "v": 49
    },
    {
      "midi": 76,
      "hit": false,
      "t": 97489.45233333352,
      "d": 209.20483333333686,
      "v": 56
    },
    {
      "midi": 55,
      "hit": false,
      "t": 97489.45233333352,
      "d": 240.5855583333323,
      "v": 51
    },
    {
      "midi": 69,
      "hit": false,
      "t": 97489.45233333352,
      "d": 240.5855583333323,
      "v": 70
    },
    {
      "midi": 72,
      "hit": false,
      "t": 97489.45233333352,
      "d": 240.5855583333323,
      "v": 64
    },
    {
      "midi": 60,
      "hit": false,
      "t": 97489.45233333352,
      "d": 261.50604166666744,
      "v": 43
    },
    {
      "midi": 64,
      "hit": false,
      "t": 97489.45233333352,
      "d": 282.4265250000026,
      "v": 51
    },
    {
      "midi": 72,
      "hit": false,
      "t": 97907.8620000002,
      "d": 230.125316666672,
      "v": 70
    },
    {
      "midi": 55,
      "hit": false,
      "t": 97907.8620000002,
      "d": 271.9662833333423,
      "v": 63
    },
    {
      "midi": 60,
      "hit": false,
      "t": 97907.8620000002,
      "d": 282.4265250000026,
      "v": 60
    },
    {
      "midi": 69,
      "hit": false,
      "t": 97907.8620000002,
      "d": 292.8867666666629,
      "v": 62
    },
    {
      "midi": 76,
      "hit": false,
      "t": 97907.8620000002,
      "d": 292.8867666666629,
      "v": 54
    },
    {
      "midi": 64,
      "hit": false,
      "t": 97907.8620000002,
      "d": 324.2674916666583,
      "v": 48
    },
    {
      "midi": 55,
      "hit": false,
      "t": 98326.27166666686,
      "d": 219.66507499999716,
      "v": 58
    },
    {
      "midi": 60,
      "hit": false,
      "t": 98326.27166666686,
      "d": 240.5855583333323,
      "v": 51
    },
    {
      "midi": 76,
      "hit": false,
      "t": 98326.27166666686,
      "d": 251.0457999999926,
      "v": 56
    },
    {
      "midi": 69,
      "hit": false,
      "t": 98326.27166666686,
      "d": 261.5060416666529,
      "v": 56
    },
    {
      "midi": 64,
      "hit": false,
      "t": 98326.27166666686,
      "d": 271.9662833333132,
      "v": 51
    },
    {
      "midi": 72,
      "hit": false,
      "t": 98326.27166666686,
      "d": 303.3470083333086,
      "v": 58
    },
    {
      "midi": 64,
      "hit": false,
      "t": 98744.6813333335,
      "d": 251.04580000000715,
      "v": 35
    },
    {
      "midi": 69,
      "hit": false,
      "t": 98744.6813333335,
      "d": 251.04580000000715,
      "v": 66
    },
    {
      "midi": 72,
      "hit": false,
      "t": 98744.6813333335,
      "d": 271.9662833333423,
      "v": 68
    },
    {
      "midi": 55,
      "hit": false,
      "t": 98744.6813333335,
      "d": 303.3470083333377,
      "v": 52
    },
    {
      "midi": 76,
      "hit": false,
      "t": 98744.6813333335,
      "d": 303.3470083333377,
      "v": 58
    },
    {
      "midi": 60,
      "hit": false,
      "t": 98744.6813333335,
      "d": 324.26749166667287,
      "v": 44
    },
    {
      "midi": 62,
      "hit": false,
      "t": 99163.09100000017,
      "d": 219.66507499999716,
      "v": 42
    },
    {
      "midi": 57,
      "hit": false,
      "t": 99163.09100000017,
      "d": 240.5855583333323,
      "v": 54
    },
    {
      "midi": 66,
      "hit": false,
      "t": 99163.09100000017,
      "d": 261.50604166666744,
      "v": 42
    },
    {
      "midi": 69,
      "hit": false,
      "t": 99163.09100000017,
      "d": 271.96628333332774,
      "v": 70
    },
    {
      "midi": 72,
      "hit": false,
      "t": 99163.09100000017,
      "d": 271.96628333332774,
      "v": 64
    },
    {
      "midi": 74,
      "hit": false,
      "t": 99163.09100000017,
      "d": 271.96628333332774,
      "v": 67
    },
    {
      "midi": 69,
      "hit": false,
      "t": 99581.50066666683,
      "d": 219.66507499999716,
      "v": 61
    },
    {
      "midi": 72,
      "hit": false,
      "t": 99581.50066666683,
      "d": 219.66507499999716,
      "v": 63
    },
    {
      "midi": 57,
      "hit": false,
      "t": 99581.50066666683,
      "d": 240.5855583333323,
      "v": 47
    },
    {
      "midi": 74,
      "hit": false,
      "t": 99581.50066666683,
      "d": 251.0457999999926,
      "v": 59
    },
    {
      "midi": 62,
      "hit": false,
      "t": 99581.50066666683,
      "d": 271.96628333332774,
      "v": 51
    },
    {
      "midi": 66,
      "hit": false,
      "t": 99581.50066666683,
      "d": 303.3470083333232,
      "v": 49
    },
    {
      "midi": 74,
      "hit": false,
      "t": 99999.9103333335,
      "d": 209.20483333333686,
      "v": 56
    },
    {
      "midi": 57,
      "hit": false,
      "t": 99999.9103333335,
      "d": 240.5855583333323,
      "v": 51
    },
    {
      "midi": 69,
      "hit": false,
      "t": 99999.9103333335,
      "d": 240.5855583333323,
      "v": 70
    },
    {
      "midi": 72,
      "hit": false,
      "t": 99999.9103333335,
      "d": 240.5855583333323,
      "v": 64
    },
    {
      "midi": 62,
      "hit": false,
      "t": 99999.9103333335,
      "d": 261.50604166666744,
      "v": 43
    },
    {
      "midi": 66,
      "hit": false,
      "t": 99999.9103333335,
      "d": 282.4265250000026,
      "v": 51
    },
    {
      "midi": 72,
      "hit": false,
      "t": 100418.32000000017,
      "d": 230.125316666672,
      "v": 70
    },
    {
      "midi": 57,
      "hit": false,
      "t": 100418.32000000017,
      "d": 271.9662833333423,
      "v": 63
    },
    {
      "midi": 62,
      "hit": false,
      "t": 100418.32000000017,
      "d": 282.4265250000026,
      "v": 60
    },
    {
      "midi": 69,
      "hit": false,
      "t": 100418.32000000017,
      "d": 292.8867666666629,
      "v": 62
    },
    {
      "midi": 74,
      "hit": false,
      "t": 100418.32000000017,
      "d": 292.8867666666629,
      "v": 54
    },
    {
      "midi": 66,
      "hit": false,
      "t": 100418.32000000017,
      "d": 324.2674916666583,
      "v": 48
    },
    {
      "midi": 57,
      "hit": false,
      "t": 100836.72966666683,
      "d": 219.66507499999716,
      "v": 58
    },
    {
      "midi": 62,
      "hit": false,
      "t": 100836.72966666683,
      "d": 240.5855583333323,
      "v": 51
    },
    {
      "midi": 74,
      "hit": false,
      "t": 100836.72966666683,
      "d": 251.0457999999926,
      "v": 56
    },
    {
      "midi": 69,
      "hit": false,
      "t": 100836.72966666683,
      "d": 261.5060416666529,
      "v": 56
    },
    {
      "midi": 66,
      "hit": false,
      "t": 100836.72966666683,
      "d": 271.9662833333132,
      "v": 51
    },
    {
      "midi": 72,
      "hit": false,
      "t": 100836.72966666683,
      "d": 303.3470083333086,
      "v": 58
    },
    {
      "midi": 66,
      "hit": false,
      "t": 101255.13933333347,
      "d": 251.04580000000715,
      "v": 35
    },
    {
      "midi": 69,
      "hit": false,
      "t": 101255.13933333347,
      "d": 251.04580000000715,
      "v": 66
    },
    {
      "midi": 72,
      "hit": false,
      "t": 101255.13933333347,
      "d": 271.9662833333423,
      "v": 68
    },
    {
      "midi": 57,
      "hit": false,
      "t": 101255.13933333347,
      "d": 303.3470083333377,
      "v": 52
    },
    {
      "midi": 74,
      "hit": false,
      "t": 101255.13933333347,
      "d": 303.3470083333377,
      "v": 58
    },
    {
      "midi": 62,
      "hit": false,
      "t": 101255.13933333347,
      "d": 324.26749166667287,
      "v": 44
    },
    {
      "midi": 59,
      "hit": false,
      "t": 101673.54900000014,
      "d": 219.66507499999716,
      "v": 42
    },
    {
      "midi": 55,
      "hit": false,
      "t": 101673.54900000014,
      "d": 240.5855583333323,
      "v": 54
    },
    {
      "midi": 62,
      "hit": false,
      "t": 101673.54900000014,
      "d": 261.50604166666744,
      "v": 42
    },
    {
      "midi": 67,
      "hit": false,
      "t": 101673.54900000014,
      "d": 271.96628333332774,
      "v": 70
    },
    {
      "midi": 71,
      "hit": false,
      "t": 101673.54900000014,
      "d": 271.96628333332774,
      "v": 66
    },
    {
      "midi": 74,
      "hit": false,
      "t": 101673.54900000014,
      "d": 271.96628333332774,
      "v": 67
    },
    {
      "midi": 67,
      "hit": false,
      "t": 102091.9586666668,
      "d": 219.66507499999716,
      "v": 61
    },
    {
      "midi": 71,
      "hit": false,
      "t": 102091.9586666668,
      "d": 219.66507499999716,
      "v": 63
    },
    {
      "midi": 55,
      "hit": false,
      "t": 102091.9586666668,
      "d": 240.5855583333323,
      "v": 47
    },
    {
      "midi": 74,
      "hit": false,
      "t": 102091.9586666668,
      "d": 251.0457999999926,
      "v": 66
    },
    {
      "midi": 59,
      "hit": false,
      "t": 102091.9586666668,
      "d": 271.96628333332774,
      "v": 51
    },
    {
      "midi": 62,
      "hit": false,
      "t": 102091.9586666668,
      "d": 303.3470083333232,
      "v": 49
    },
    {
      "midi": 74,
      "hit": false,
      "t": 102510.36833333346,
      "d": 209.20483333333686,
      "v": 56
    },
    {
      "midi": 55,
      "hit": false,
      "t": 102510.36833333346,
      "d": 240.5855583333323,
      "v": 51
    },
    {
      "midi": 67,
      "hit": false,
      "t": 102510.36833333346,
      "d": 240.5855583333323,
      "v": 70
    },
    {
      "midi": 71,
      "hit": false,
      "t": 102510.36833333346,
      "d": 240.5855583333323,
      "v": 64
    },
    {
      "midi": 59,
      "hit": false,
      "t": 102510.36833333346,
      "d": 261.50604166666744,
      "v": 43
    },
    {
      "midi": 62,
      "hit": false,
      "t": 102510.36833333346,
      "d": 282.4265250000026,
      "v": 51
    },
    {
      "midi": 71,
      "hit": false,
      "t": 102928.77800000014,
      "d": 230.125316666672,
      "v": 70
    },
    {
      "midi": 55,
      "hit": false,
      "t": 102928.77800000014,
      "d": 271.9662833333423,
      "v": 63
    },
    {
      "midi": 59,
      "hit": false,
      "t": 102928.77800000014,
      "d": 282.4265250000026,
      "v": 60
    },
    {
      "midi": 67,
      "hit": false,
      "t": 102928.77800000014,
      "d": 292.8867666666629,
      "v": 62
    },
    {
      "midi": 74,
      "hit": false,
      "t": 102928.77800000014,
      "d": 292.8867666666629,
      "v": 61
    },
    {
      "midi": 62,
      "hit": false,
      "t": 102928.77800000014,
      "d": 324.2674916666583,
      "v": 48
    },
    {
      "midi": 55,
      "hit": false,
      "t": 103347.1876666668,
      "d": 219.66507499999716,
      "v": 58
    },
    {
      "midi": 59,
      "hit": false,
      "t": 103347.1876666668,
      "d": 240.5855583333323,
      "v": 51
    },
    {
      "midi": 74,
      "hit": false,
      "t": 103347.1876666668,
      "d": 251.0457999999926,
      "v": 56
    },
    {
      "midi": 67,
      "hit": false,
      "t": 103347.1876666668,
      "d": 261.5060416666529,
      "v": 56
    },
    {
      "midi": 62,
      "hit": false,
      "t": 103347.1876666668,
      "d": 271.9662833333132,
      "v": 51
    },
    {
      "midi": 71,
      "hit": false,
      "t": 103347.1876666668,
      "d": 303.3470083333086,
      "v": 58
    },
    {
      "midi": 74,
      "hit": false,
      "t": 103765.59733333344,
      "d": 219.66507499999716,
      "v": 58
    },
    {
      "midi": 67,
      "hit": false,
      "t": 103765.59733333344,
      "d": 251.0457999999926,
      "v": 66
    },
    {
      "midi": 62,
      "hit": false,
      "t": 103765.59733333344,
      "d": 271.96628333332774,
      "v": 35
    },
    {
      "midi": 71,
      "hit": false,
      "t": 103765.59733333344,
      "d": 271.96628333332774,
      "v": 68
    },
    {
      "midi": 55,
      "hit": false,
      "t": 103765.59733333344,
      "d": 303.3470083333232,
      "v": 52
    },
    {
      "midi": 59,
      "hit": false,
      "t": 103765.59733333344,
      "d": 324.2674916666583,
      "v": 44
    },
    {
      "midi": 59,
      "hit": false,
      "t": 104184.0070000001,
      "d": 219.66507499999716,
      "v": 42
    },
    {
      "midi": 55,
      "hit": false,
      "t": 104184.0070000001,
      "d": 240.5855583333323,
      "v": 54
    },
    {
      "midi": 62,
      "hit": false,
      "t": 104184.0070000001,
      "d": 261.50604166666744,
      "v": 42
    },
    {
      "midi": 67,
      "hit": false,
      "t": 104184.0070000001,
      "d": 271.96628333332774,
      "v": 70
    },
    {
      "midi": 71,
      "hit": false,
      "t": 104184.0070000001,
      "d": 271.96628333332774,
      "v": 66
    },
    {
      "midi": 74,
      "hit": false,
      "t": 104184.0070000001,
      "d": 271.96628333332774,
      "v": 67
    },
    {
      "midi": 67,
      "hit": false,
      "t": 104602.41666666676,
      "d": 219.66507499999716,
      "v": 61
    },
    {
      "midi": 71,
      "hit": false,
      "t": 104602.41666666676,
      "d": 219.66507499999716,
      "v": 63
    },
    {
      "midi": 55,
      "hit": false,
      "t": 104602.41666666676,
      "d": 240.5855583333323,
      "v": 47
    },
    {
      "midi": 74,
      "hit": false,
      "t": 104602.41666666676,
      "d": 251.0457999999926,
      "v": 66
    },
    {
      "midi": 59,
      "hit": false,
      "t": 104602.41666666676,
      "d": 271.96628333332774,
      "v": 51
    },
    {
      "midi": 62,
      "hit": false,
      "t": 104602.41666666676,
      "d": 303.3470083333232,
      "v": 49
    },
    {
      "midi": 74,
      "hit": false,
      "t": 105020.82633333342,
      "d": 209.20483333333686,
      "v": 56
    },
    {
      "midi": 55,
      "hit": false,
      "t": 105020.82633333342,
      "d": 240.5855583333323,
      "v": 51
    },
    {
      "midi": 67,
      "hit": false,
      "t": 105020.82633333342,
      "d": 240.5855583333323,
      "v": 70
    },
    {
      "midi": 71,
      "hit": false,
      "t": 105020.82633333342,
      "d": 240.5855583333323,
      "v": 64
    },
    {
      "midi": 59,
      "hit": false,
      "t": 105020.82633333342,
      "d": 261.50604166666744,
      "v": 43
    },
    {
      "midi": 62,
      "hit": false,
      "t": 105020.82633333342,
      "d": 282.4265250000026,
      "v": 51
    },
    {
      "midi": 71,
      "hit": false,
      "t": 105439.23600000009,
      "d": 230.125316666672,
      "v": 70
    },
    {
      "midi": 55,
      "hit": false,
      "t": 105439.23600000009,
      "d": 271.9662833333423,
      "v": 63
    },
    {
      "midi": 59,
      "hit": false,
      "t": 105439.23600000009,
      "d": 282.4265250000026,
      "v": 60
    },
    {
      "midi": 67,
      "hit": false,
      "t": 105439.23600000009,
      "d": 292.8867666666629,
      "v": 62
    },
    {
      "midi": 74,
      "hit": false,
      "t": 105439.23600000009,
      "d": 292.8867666666629,
      "v": 61
    },
    {
      "midi": 62,
      "hit": false,
      "t": 105439.23600000009,
      "d": 324.2674916666583,
      "v": 48
    },
    {
      "midi": 55,
      "hit": false,
      "t": 105857.64566666675,
      "d": 219.66507499999716,
      "v": 58
    },
    {
      "midi": 59,
      "hit": false,
      "t": 105857.64566666675,
      "d": 240.5855583333323,
      "v": 51
    },
    {
      "midi": 74,
      "hit": false,
      "t": 105857.64566666675,
      "d": 251.0457999999926,
      "v": 56
    },
    {
      "midi": 67,
      "hit": false,
      "t": 105857.64566666675,
      "d": 261.5060416666529,
      "v": 56
    },
    {
      "midi": 62,
      "hit": false,
      "t": 105857.64566666675,
      "d": 271.9662833333132,
      "v": 51
    },
    {
      "midi": 71,
      "hit": false,
      "t": 105857.64566666675,
      "d": 303.3470083333086,
      "v": 58
    },
    {
      "midi": 74,
      "hit": false,
      "t": 106276.0553333334,
      "d": 219.66507499999716,
      "v": 58
    },
    {
      "midi": 67,
      "hit": false,
      "t": 106276.0553333334,
      "d": 251.0457999999926,
      "v": 66
    },
    {
      "midi": 62,
      "hit": false,
      "t": 106276.0553333334,
      "d": 271.96628333332774,
      "v": 35
    },
    {
      "midi": 71,
      "hit": false,
      "t": 106276.0553333334,
      "d": 271.96628333332774,
      "v": 68
    },
    {
      "midi": 55,
      "hit": false,
      "t": 106276.0553333334,
      "d": 303.3470083333232,
      "v": 52
    },
    {
      "midi": 59,
      "hit": false,
      "t": 106276.0553333334,
      "d": 324.2674916666583,
      "v": 44
    },
    {
      "midi": 64,
      "hit": false,
      "t": 106694.46500000005,
      "d": 219.66507499999716,
      "v": 42
    },
    {
      "midi": 54,
      "hit": false,
      "t": 106694.46500000005,
      "d": 240.5855583333323,
      "v": 54
    },
    {
      "midi": 61,
      "hit": false,
      "t": 106694.46500000005,
      "d": 261.50604166666744,
      "v": 42
    },
    {
      "midi": 66,
      "hit": false,
      "t": 106694.46500000005,
      "d": 271.96628333332774,
      "v": 70
    },
    {
      "midi": 70,
      "hit": false,
      "t": 106694.46500000005,
      "d": 271.96628333332774,
      "v": 66
    },
    {
      "midi": 73,
      "hit": false,
      "t": 106694.46500000005,
      "d": 271.96628333332774,
      "v": 67
    },
    {
      "midi": 66,
      "hit": false,
      "t": 107112.87466666671,
      "d": 219.66507499999716,
      "v": 61
    },
    {
      "midi": 70,
      "hit": false,
      "t": 107112.87466666671,
      "d": 219.66507499999716,
      "v": 63
    },
    {
      "midi": 54,
      "hit": false,
      "t": 107112.87466666671,
      "d": 240.5855583333323,
      "v": 47
    },
    {
      "midi": 73,
      "hit": false,
      "t": 107112.87466666671,
      "d": 251.0457999999926,
      "v": 66
    },
    {
      "midi": 64,
      "hit": false,
      "t": 107112.87466666671,
      "d": 271.96628333332774,
      "v": 51
    },
    {
      "midi": 61,
      "hit": false,
      "t": 107112.87466666671,
      "d": 303.3470083333232,
      "v": 49
    },
    {
      "midi": 73,
      "hit": false,
      "t": 107531.28433333337,
      "d": 209.20483333333686,
      "v": 56
    },
    {
      "midi": 54,
      "hit": false,
      "t": 107531.28433333337,
      "d": 240.5855583333323,
      "v": 51
    },
    {
      "midi": 66,
      "hit": false,
      "t": 107531.28433333337,
      "d": 240.5855583333323,
      "v": 70
    },
    {
      "midi": 70,
      "hit": false,
      "t": 107531.28433333337,
      "d": 240.5855583333323,
      "v": 64
    },
    {
      "midi": 64,
      "hit": false,
      "t": 107531.28433333337,
      "d": 261.50604166666744,
      "v": 43
    },
    {
      "midi": 61,
      "hit": false,
      "t": 107531.28433333337,
      "d": 282.4265250000026,
      "v": 51
    },
    {
      "midi": 70,
      "hit": false,
      "t": 107949.69400000005,
      "d": 230.125316666672,
      "v": 70
    },
    {
      "midi": 54,
      "hit": false,
      "t": 107949.69400000005,
      "d": 271.9662833333423,
      "v": 63
    },
    {
      "midi": 64,
      "hit": false,
      "t": 107949.69400000005,
      "d": 282.4265250000026,
      "v": 60
    },
    {
      "midi": 66,
      "hit": false,
      "t": 107949.69400000005,
      "d": 292.8867666666629,
      "v": 62
    },
    {
      "midi": 73,
      "hit": false,
      "t": 107949.69400000005,
      "d": 292.8867666666629,
      "v": 61
    },
    {
      "midi": 61,
      "hit": false,
      "t": 107949.69400000005,
      "d": 324.2674916666583,
      "v": 48
    },
    {
      "midi": 54,
      "hit": false,
      "t": 108368.1036666667,
      "d": 219.66507499999716,
      "v": 58
    },
    {
      "midi": 64,
      "hit": false,
      "t": 108368.1036666667,
      "d": 240.5855583333323,
      "v": 51
    },
    {
      "midi": 73,
      "hit": false,
      "t": 108368.1036666667,
      "d": 251.0457999999926,
      "v": 56
    },
    {
      "midi": 66,
      "hit": false,
      "t": 108368.1036666667,
      "d": 261.5060416666529,
      "v": 56
    },
    {
      "midi": 61,
      "hit": false,
      "t": 108368.1036666667,
      "d": 271.9662833333132,
      "v": 51
    },
    {
      "midi": 70,
      "hit": false,
      "t": 108368.1036666667,
      "d": 303.3470083333086,
      "v": 58
    },
    {
      "midi": 73,
      "hit": false,
      "t": 108786.51333333335,
      "d": 219.66507499999716,
      "v": 58
    },
    {
      "midi": 66,
      "hit": false,
      "t": 108786.51333333335,
      "d": 251.0457999999926,
      "v": 66
    },
    {
      "midi": 61,
      "hit": false,
      "t": 108786.51333333335,
      "d": 271.96628333332774,
      "v": 35
    },
    {
      "midi": 70,
      "hit": false,
      "t": 108786.51333333335,
      "d": 271.96628333332774,
      "v": 68
    },
    {
      "midi": 54,
      "hit": false,
      "t": 108786.51333333335,
      "d": 303.3470083333232,
      "v": 52
    },
    {
      "midi": 64,
      "hit": false,
      "t": 108786.51333333335,
      "d": 324.2674916666583,
      "v": 44
    },
    {
      "midi": 64,
      "hit": false,
      "t": 109204.92300000001,
      "d": 219.66507499999716,
      "v": 42
    },
    {
      "midi": 54,
      "hit": false,
      "t": 109204.92300000001,
      "d": 240.5855583333323,
      "v": 54
    },
    {
      "midi": 61,
      "hit": false,
      "t": 109204.92300000001,
      "d": 261.50604166666744,
      "v": 42
    },
    {
      "midi": 66,
      "hit": false,
      "t": 109204.92300000001,
      "d": 271.96628333332774,
      "v": 70
    },
    {
      "midi": 70,
      "hit": false,
      "t": 109204.92300000001,
      "d": 271.96628333332774,
      "v": 66
    },
    {
      "midi": 73,
      "hit": false,
      "t": 109204.92300000001,
      "d": 271.96628333332774,
      "v": 67
    },
    {
      "midi": 66,
      "hit": false,
      "t": 109623.33266666667,
      "d": 219.66507499999716,
      "v": 61
    },
    {
      "midi": 70,
      "hit": false,
      "t": 109623.33266666667,
      "d": 219.66507499999716,
      "v": 63
    },
    {
      "midi": 54,
      "hit": false,
      "t": 109623.33266666667,
      "d": 240.5855583333323,
      "v": 47
    },
    {
      "midi": 73,
      "hit": false,
      "t": 109623.33266666667,
      "d": 251.0457999999926,
      "v": 66
    },
    {
      "midi": 64,
      "hit": false,
      "t": 109623.33266666667,
      "d": 271.96628333332774,
      "v": 51
    },
    {
      "midi": 61,
      "hit": false,
      "t": 109623.33266666667,
      "d": 303.3470083333232,
      "v": 49
    },
    {
      "midi": 73,
      "hit": false,
      "t": 110041.74233333333,
      "d": 209.20483333333686,
      "v": 56
    },
    {
      "midi": 54,
      "hit": false,
      "t": 110041.74233333333,
      "d": 240.5855583333323,
      "v": 51
    },
    {
      "midi": 66,
      "hit": false,
      "t": 110041.74233333333,
      "d": 240.5855583333323,
      "v": 70
    },
    {
      "midi": 70,
      "hit": false,
      "t": 110041.74233333333,
      "d": 240.5855583333323,
      "v": 64
    },
    {
      "midi": 64,
      "hit": false,
      "t": 110041.74233333333,
      "d": 261.50604166666744,
      "v": 43
    },
    {
      "midi": 61,
      "hit": false,
      "t": 110041.74233333333,
      "d": 282.4265250000026,
      "v": 51
    },
    {
      "midi": 70,
      "hit": false,
      "t": 110460.152,
      "d": 230.125316666672,
      "v": 70
    },
    {
      "midi": 54,
      "hit": false,
      "t": 110460.152,
      "d": 271.9662833333423,
      "v": 63
    },
    {
      "midi": 64,
      "hit": false,
      "t": 110460.152,
      "d": 282.4265250000026,
      "v": 60
    },
    {
      "midi": 66,
      "hit": false,
      "t": 110460.152,
      "d": 292.8867666666629,
      "v": 62
    },
    {
      "midi": 73,
      "hit": false,
      "t": 110460.152,
      "d": 292.8867666666629,
      "v": 61
    },
    {
      "midi": 61,
      "hit": false,
      "t": 110460.152,
      "d": 324.2674916666583,
      "v": 48
    },
    {
      "midi": 54,
      "hit": false,
      "t": 110878.56166666666,
      "d": 219.66507499999716,
      "v": 58
    },
    {
      "midi": 64,
      "hit": false,
      "t": 110878.56166666666,
      "d": 240.5855583333323,
      "v": 51
    },
    {
      "midi": 73,
      "hit": false,
      "t": 110878.56166666666,
      "d": 251.0457999999926,
      "v": 56
    },
    {
      "midi": 66,
      "hit": false,
      "t": 110878.56166666666,
      "d": 261.5060416666529,
      "v": 56
    },
    {
      "midi": 61,
      "hit": false,
      "t": 110878.56166666666,
      "d": 271.9662833333132,
      "v": 51
    },
    {
      "midi": 70,
      "hit": false,
      "t": 110878.56166666666,
      "d": 303.3470083333086,
      "v": 58
    },
    {
      "midi": 73,
      "hit": false,
      "t": 111296.9713333333,
      "d": 219.66507499999716,
      "v": 58
    },
    {
      "midi": 66,
      "hit": false,
      "t": 111296.9713333333,
      "d": 251.0457999999926,
      "v": 66
    },
    {
      "midi": 61,
      "hit": false,
      "t": 111296.9713333333,
      "d": 271.96628333332774,
      "v": 35
    },
    {
      "midi": 70,
      "hit": false,
      "t": 111296.9713333333,
      "d": 271.96628333332774,
      "v": 68
    },
    {
      "midi": 54,
      "hit": false,
      "t": 111296.9713333333,
      "d": 303.3470083333232,
      "v": 52
    },
    {
      "midi": 64,
      "hit": false,
      "t": 111296.9713333333,
      "d": 324.2674916666583,
      "v": 44
    },
    {
      "midi": 69,
      "hit": false,
      "t": 111715.38099999996,
      "d": 219.66507499999716,
      "v": 42
    },
    {
      "midi": 54,
      "hit": false,
      "t": 111715.38099999996,
      "d": 240.5855583333323,
      "v": 54
    },
    {
      "midi": 59,
      "hit": false,
      "t": 111715.38099999996,
      "d": 261.50604166666744,
      "v": 42
    },
    {
      "midi": 66,
      "hit": false,
      "t": 111715.38099999996,
      "d": 271.96628333332774,
      "v": 70
    },
    {
      "midi": 71,
      "hit": false,
      "t": 111715.38099999996,
      "d": 271.96628333332774,
      "v": 66
    },
    {
      "midi": 75,
      "hit": false,
      "t": 111715.38099999996,
      "d": 271.96628333332774,
      "v": 67
    },
    {
      "midi": 66,
      "hit": false,
      "t": 112133.79066666662,
      "d": 219.66507499999716,
      "v": 61
    },
    {
      "midi": 71,
      "hit": false,
      "t": 112133.79066666662,
      "d": 219.66507499999716,
      "v": 63
    },
    {
      "midi": 54,
      "hit": false,
      "t": 112133.79066666662,
      "d": 240.5855583333323,
      "v": 47
    },
    {
      "midi": 75,
      "hit": false,
      "t": 112133.79066666662,
      "d": 251.0457999999926,
      "v": 66
    },
    {
      "midi": 69,
      "hit": false,
      "t": 112133.79066666662,
      "d": 271.96628333332774,
      "v": 51
    },
    {
      "midi": 59,
      "hit": false,
      "t": 112133.79066666662,
      "d": 303.3470083333232,
      "v": 49
    },
    {
      "midi": 75,
      "hit": false,
      "t": 112552.20033333328,
      "d": 209.20483333333686,
      "v": 56
    },
    {
      "midi": 54,
      "hit": false,
      "t": 112552.20033333328,
      "d": 240.5855583333323,
      "v": 51
    },
    {
      "midi": 66,
      "hit": false,
      "t": 112552.20033333328,
      "d": 240.5855583333323,
      "v": 70
    },
    {
      "midi": 71,
      "hit": false,
      "t": 112552.20033333328,
      "d": 240.5855583333323,
      "v": 64
    },
    {
      "midi": 69,
      "hit": false,
      "t": 112552.20033333328,
      "d": 261.50604166666744,
      "v": 43
    },
    {
      "midi": 59,
      "hit": false,
      "t": 112552.20033333328,
      "d": 282.4265250000026,
      "v": 51
    },
    {
      "midi": 71,
      "hit": false,
      "t": 112970.60999999996,
      "d": 230.125316666672,
      "v": 70
    },
    {
      "midi": 54,
      "hit": false,
      "t": 112970.60999999996,
      "d": 271.9662833333423,
      "v": 63
    },
    {
      "midi": 69,
      "hit": false,
      "t": 112970.60999999996,
      "d": 282.4265250000026,
      "v": 60
    },
    {
      "midi": 66,
      "hit": false,
      "t": 112970.60999999996,
      "d": 292.8867666666629,
      "v": 62
    },
    {
      "midi": 75,
      "hit": false,
      "t": 112970.60999999996,
      "d": 292.8867666666629,
      "v": 61
    },
    {
      "midi": 59,
      "hit": false,
      "t": 112970.60999999996,
      "d": 324.2674916666583,
      "v": 48
    },
    {
      "midi": 64,
      "hit": false,
      "t": 114225.83899999995,
      "d": 219.66507499999716,
      "v": 42
    },
    {
      "midi": 54,
      "hit": false,
      "t": 114225.83899999995,
      "d": 240.5855583333323,
      "v": 54
    },
    {
      "midi": 61,
      "hit": false,
      "t": 114225.83899999995,
      "d": 261.50604166666744,
      "v": 42
    },
    {
      "midi": 66,
      "hit": false,
      "t": 114225.83899999995,
      "d": 271.96628333332774,
      "v": 70
    },
    {
      "midi": 70,
      "hit": false,
      "t": 114225.83899999995,
      "d": 271.96628333332774,
      "v": 66
    },
    {
      "midi": 73,
      "hit": false,
      "t": 114225.83899999995,
      "d": 271.96628333332774,
      "v": 67
    },
    {
      "midi": 66,
      "hit": false,
      "t": 114644.24866666661,
      "d": 219.66507499999716,
      "v": 61
    },
    {
      "midi": 70,
      "hit": false,
      "t": 114644.24866666661,
      "d": 219.66507499999716,
      "v": 63
    },
    {
      "midi": 54,
      "hit": false,
      "t": 114644.24866666661,
      "d": 240.5855583333323,
      "v": 47
    },
    {
      "midi": 73,
      "hit": false,
      "t": 114644.24866666661,
      "d": 251.0457999999926,
      "v": 66
    },
    {
      "midi": 64,
      "hit": false,
      "t": 114644.24866666661,
      "d": 271.96628333332774,
      "v": 51
    },
    {
      "midi": 61,
      "hit": false,
      "t": 114644.24866666661,
      "d": 303.3470083333232,
      "v": 49
    },
    {
      "midi": 73,
      "hit": false,
      "t": 115062.65833333327,
      "d": 209.20483333333686,
      "v": 56
    },
    {
      "midi": 54,
      "hit": false,
      "t": 115062.65833333327,
      "d": 240.5855583333323,
      "v": 51
    },
    {
      "midi": 66,
      "hit": false,
      "t": 115062.65833333327,
      "d": 240.5855583333323,
      "v": 70
    },
    {
      "midi": 70,
      "hit": false,
      "t": 115062.65833333327,
      "d": 240.5855583333323,
      "v": 64
    },
    {
      "midi": 64,
      "hit": false,
      "t": 115062.65833333327,
      "d": 261.50604166666744,
      "v": 43
    },
    {
      "midi": 61,
      "hit": false,
      "t": 115062.65833333327,
      "d": 282.4265250000026,
      "v": 51
    },
    {
      "midi": 70,
      "hit": false,
      "t": 115481.06799999994,
      "d": 230.125316666672,
      "v": 70
    },
    {
      "midi": 54,
      "hit": false,
      "t": 115481.06799999994,
      "d": 271.9662833333423,
      "v": 63
    },
    {
      "midi": 64,
      "hit": false,
      "t": 115481.06799999994,
      "d": 282.4265250000026,
      "v": 60
    },
    {
      "midi": 66,
      "hit": false,
      "t": 115481.06799999994,
      "d": 292.8867666666629,
      "v": 62
    },
    {
      "midi": 73,
      "hit": false,
      "t": 115481.06799999994,
      "d": 292.8867666666629,
      "v": 61
    },
    {
      "midi": 61,
      "hit": false,
      "t": 115481.06799999994,
      "d": 324.2674916666583,
      "v": 48
    },
    {
      "midi": 69,
      "hit": false,
      "t": 116736.29699999993,
      "d": 219.66507499999716,
      "v": 42
    },
    {
      "midi": 54,
      "hit": false,
      "t": 116736.29699999993,
      "d": 240.5855583333323,
      "v": 54
    },
    {
      "midi": 59,
      "hit": false,
      "t": 116736.29699999993,
      "d": 261.50604166666744,
      "v": 42
    },
    {
      "midi": 66,
      "hit": false,
      "t": 116736.29699999993,
      "d": 271.96628333332774,
      "v": 70
    },
    {
      "midi": 71,
      "hit": false,
      "t": 116736.29699999993,
      "d": 271.96628333332774,
      "v": 66
    },
    {
      "midi": 75,
      "hit": false,
      "t": 116736.29699999993,
      "d": 271.96628333332774,
      "v": 67
    },
    {
      "midi": 66,
      "hit": false,
      "t": 117154.70666666659,
      "d": 219.66507499999716,
      "v": 61
    },
    {
      "midi": 71,
      "hit": false,
      "t": 117154.70666666659,
      "d": 219.66507499999716,
      "v": 63
    },
    {
      "midi": 54,
      "hit": false,
      "t": 117154.70666666659,
      "d": 240.5855583333323,
      "v": 47
    },
    {
      "midi": 75,
      "hit": false,
      "t": 117154.70666666659,
      "d": 251.0457999999926,
      "v": 66
    },
    {
      "midi": 69,
      "hit": false,
      "t": 117154.70666666659,
      "d": 271.96628333332774,
      "v": 51
    },
    {
      "midi": 59,
      "hit": false,
      "t": 117154.70666666659,
      "d": 303.3470083333232,
      "v": 49
    },
    {
      "midi": 75,
      "hit": false,
      "t": 117573.11633333325,
      "d": 209.20483333333686,
      "v": 56
    },
    {
      "midi": 54,
      "hit": false,
      "t": 117573.11633333325,
      "d": 240.5855583333323,
      "v": 51
    },
    {
      "midi": 66,
      "hit": false,
      "t": 117573.11633333325,
      "d": 240.5855583333323,
      "v": 70
    },
    {
      "midi": 71,
      "hit": false,
      "t": 117573.11633333325,
      "d": 240.5855583333323,
      "v": 64
    },
    {
      "midi": 69,
      "hit": false,
      "t": 117573.11633333325,
      "d": 261.50604166666744,
      "v": 43
    },
    {
      "midi": 59,
      "hit": false,
      "t": 117573.11633333325,
      "d": 282.4265250000026,
      "v": 51
    },
    {
      "midi": 71,
      "hit": false,
      "t": 117991.52599999993,
      "d": 230.125316666672,
      "v": 70
    },
    {
      "midi": 54,
      "hit": false,
      "t": 117991.52599999993,
      "d": 271.9662833333423,
      "v": 63
    },
    {
      "midi": 69,
      "hit": false,
      "t": 117991.52599999993,
      "d": 282.4265250000026,
      "v": 60
    },
    {
      "midi": 66,
      "hit": false,
      "t": 117991.52599999993,
      "d": 292.8867666666629,
      "v": 62
    },
    {
      "midi": 75,
      "hit": false,
      "t": 117991.52599999993,
      "d": 292.8867666666629,
      "v": 61
    },
    {
      "midi": 59,
      "hit": false,
      "t": 117991.52599999993,
      "d": 324.2674916666583,
      "v": 48
    },
    {
      "midi": 64,
      "hit": false,
      "t": 119246.75499999992,
      "d": 219.66507499999716,
      "v": 42
    },
    {
      "midi": 54,
      "hit": false,
      "t": 119246.75499999992,
      "d": 240.5855583333323,
      "v": 54
    },
    {
      "midi": 61,
      "hit": false,
      "t": 119246.75499999992,
      "d": 261.50604166666744,
      "v": 42
    },
    {
      "midi": 66,
      "hit": false,
      "t": 119246.75499999992,
      "d": 271.96628333332774,
      "v": 70
    },
    {
      "midi": 70,
      "hit": false,
      "t": 119246.75499999992,
      "d": 271.96628333332774,
      "v": 66
    },
    {
      "midi": 73,
      "hit": false,
      "t": 119246.75499999992,
      "d": 271.96628333332774,
      "v": 67
    },
    {
      "midi": 66,
      "hit": false,
      "t": 119665.16466666658,
      "d": 219.66507499999716,
      "v": 61
    },
    {
      "midi": 70,
      "hit": false,
      "t": 119665.16466666658,
      "d": 219.66507499999716,
      "v": 63
    },
    {
      "midi": 54,
      "hit": false,
      "t": 119665.16466666658,
      "d": 240.5855583333323,
      "v": 47
    },
    {
      "midi": 73,
      "hit": false,
      "t": 119665.16466666658,
      "d": 251.0457999999926,
      "v": 66
    },
    {
      "midi": 64,
      "hit": false,
      "t": 119665.16466666658,
      "d": 271.96628333332774,
      "v": 51
    },
    {
      "midi": 61,
      "hit": false,
      "t": 119665.16466666658,
      "d": 303.3470083333232,
      "v": 49
    },
    {
      "midi": 73,
      "hit": false,
      "t": 120083.57433333324,
      "d": 209.20483333333686,
      "v": 56
    },
    {
      "midi": 54,
      "hit": false,
      "t": 120083.57433333324,
      "d": 240.5855583333323,
      "v": 51
    },
    {
      "midi": 66,
      "hit": false,
      "t": 120083.57433333324,
      "d": 240.5855583333323,
      "v": 70
    },
    {
      "midi": 70,
      "hit": false,
      "t": 120083.57433333324,
      "d": 240.5855583333323,
      "v": 64
    },
    {
      "midi": 64,
      "hit": false,
      "t": 120083.57433333324,
      "d": 261.50604166666744,
      "v": 43
    },
    {
      "midi": 61,
      "hit": false,
      "t": 120083.57433333324,
      "d": 282.4265250000026,
      "v": 51
    },
    {
      "midi": 70,
      "hit": false,
      "t": 120501.98399999991,
      "d": 230.125316666672,
      "v": 70
    },
    {
      "midi": 54,
      "hit": false,
      "t": 120501.98399999991,
      "d": 271.9662833333423,
      "v": 63
    },
    {
      "midi": 64,
      "hit": false,
      "t": 120501.98399999991,
      "d": 282.4265250000026,
      "v": 60
    },
    {
      "midi": 66,
      "hit": false,
      "t": 120501.98399999991,
      "d": 292.8867666666629,
      "v": 62
    },
    {
      "midi": 73,
      "hit": false,
      "t": 120501.98399999991,
      "d": 292.8867666666629,
      "v": 61
    },
    {
      "midi": 61,
      "hit": false,
      "t": 120501.98399999991,
      "d": 324.2674916666583,
      "v": 48
    },
    {
      "midi": 69,
      "hit": false,
      "t": 121757.2129999999,
      "d": 219.66507499999716,
      "v": 42
    },
    {
      "midi": 54,
      "hit": false,
      "t": 121757.2129999999,
      "d": 240.5855583333323,
      "v": 54
    },
    {
      "midi": 59,
      "hit": false,
      "t": 121757.2129999999,
      "d": 261.50604166666744,
      "v": 42
    },
    {
      "midi": 66,
      "hit": false,
      "t": 121757.2129999999,
      "d": 271.96628333332774,
      "v": 70
    },
    {
      "midi": 71,
      "hit": false,
      "t": 121757.2129999999,
      "d": 271.96628333332774,
      "v": 66
    },
    {
      "midi": 75,
      "hit": false,
      "t": 121757.2129999999,
      "d": 271.96628333332774,
      "v": 67
    },
    {
      "midi": 66,
      "hit": false,
      "t": 122175.62266666656,
      "d": 219.66507499999716,
      "v": 61
    },
    {
      "midi": 71,
      "hit": false,
      "t": 122175.62266666656,
      "d": 219.66507499999716,
      "v": 63
    },
    {
      "midi": 54,
      "hit": false,
      "t": 122175.62266666656,
      "d": 240.5855583333323,
      "v": 47
    },
    {
      "midi": 75,
      "hit": false,
      "t": 122175.62266666656,
      "d": 251.0457999999926,
      "v": 66
    },
    {
      "midi": 69,
      "hit": false,
      "t": 122175.62266666656,
      "d": 271.96628333332774,
      "v": 51
    },
    {
      "midi": 59,
      "hit": false,
      "t": 122175.62266666656,
      "d": 303.3470083333232,
      "v": 49
    },
    {
      "midi": 75,
      "hit": false,
      "t": 122594.03233333322,
      "d": 209.20483333333686,
      "v": 56
    },
    {
      "midi": 54,
      "hit": false,
      "t": 122594.03233333322,
      "d": 240.5855583333323,
      "v": 51
    },
    {
      "midi": 66,
      "hit": false,
      "t": 122594.03233333322,
      "d": 240.5855583333323,
      "v": 70
    },
    {
      "midi": 71,
      "hit": false,
      "t": 122594.03233333322,
      "d": 240.5855583333323,
      "v": 64
    },
    {
      "midi": 69,
      "hit": false,
      "t": 122594.03233333322,
      "d": 261.50604166666744,
      "v": 43
    },
    {
      "midi": 59,
      "hit": false,
      "t": 122594.03233333322,
      "d": 282.4265250000026,
      "v": 51
    },
    {
      "midi": 71,
      "hit": false,
      "t": 123012.4419999999,
      "d": 230.125316666672,
      "v": 70
    },
    {
      "midi": 54,
      "hit": false,
      "t": 123012.4419999999,
      "d": 271.9662833333423,
      "v": 63
    },
    {
      "midi": 69,
      "hit": false,
      "t": 123012.4419999999,
      "d": 282.4265250000026,
      "v": 60
    },
    {
      "midi": 66,
      "hit": false,
      "t": 123012.4419999999,
      "d": 292.8867666666629,
      "v": 62
    },
    {
      "midi": 75,
      "hit": false,
      "t": 123012.4419999999,
      "d": 292.8867666666629,
      "v": 61
    },
    {
      "midi": 59,
      "hit": false,
      "t": 123012.4419999999,
      "d": 324.2674916666583,
      "v": 48
    },
    {
      "midi": 64,
      "hit": false,
      "t": 124267.67099999989,
      "d": 219.66507499999716,
      "v": 42
    },
    {
      "midi": 54,
      "hit": false,
      "t": 124267.67099999989,
      "d": 240.5855583333323,
      "v": 54
    },
    {
      "midi": 61,
      "hit": false,
      "t": 124267.67099999989,
      "d": 261.50604166666744,
      "v": 42
    },
    {
      "midi": 66,
      "hit": false,
      "t": 124267.67099999989,
      "d": 271.96628333332774,
      "v": 70
    },
    {
      "midi": 70,
      "hit": false,
      "t": 124267.67099999989,
      "d": 271.96628333332774,
      "v": 66
    },
    {
      "midi": 73,
      "hit": false,
      "t": 124267.67099999989,
      "d": 271.96628333332774,
      "v": 67
    },
    {
      "midi": 66,
      "hit": false,
      "t": 124686.08066666654,
      "d": 219.66507499999716,
      "v": 61
    },
    {
      "midi": 70,
      "hit": false,
      "t": 124686.08066666654,
      "d": 219.66507499999716,
      "v": 63
    },
    {
      "midi": 54,
      "hit": false,
      "t": 124686.08066666654,
      "d": 240.5855583333323,
      "v": 47
    },
    {
      "midi": 73,
      "hit": false,
      "t": 124686.08066666654,
      "d": 251.0457999999926,
      "v": 66
    },
    {
      "midi": 64,
      "hit": false,
      "t": 124686.08066666654,
      "d": 271.96628333332774,
      "v": 51
    },
    {
      "midi": 61,
      "hit": false,
      "t": 124686.08066666654,
      "d": 303.3470083333232,
      "v": 49
    },
    {
      "midi": 73,
      "hit": false,
      "t": 125104.4903333332,
      "d": 209.20483333333686,
      "v": 56
    },
    {
      "midi": 54,
      "hit": false,
      "t": 125104.4903333332,
      "d": 240.5855583333323,
      "v": 51
    },
    {
      "midi": 66,
      "hit": false,
      "t": 125104.4903333332,
      "d": 240.5855583333323,
      "v": 70
    },
    {
      "midi": 70,
      "hit": false,
      "t": 125104.4903333332,
      "d": 240.5855583333323,
      "v": 64
    },
    {
      "midi": 64,
      "hit": false,
      "t": 125104.4903333332,
      "d": 261.50604166666744,
      "v": 43
    },
    {
      "midi": 61,
      "hit": false,
      "t": 125104.4903333332,
      "d": 282.4265250000026,
      "v": 51
    },
    {
      "midi": 70,
      "hit": false,
      "t": 125522.89999999988,
      "d": 230.125316666672,
      "v": 70
    },
    {
      "midi": 54,
      "hit": false,
      "t": 125522.89999999988,
      "d": 271.9662833333423,
      "v": 63
    },
    {
      "midi": 64,
      "hit": false,
      "t": 125522.89999999988,
      "d": 282.4265250000026,
      "v": 60
    },
    {
      "midi": 66,
      "hit": false,
      "t": 125522.89999999988,
      "d": 292.8867666666629,
      "v": 62
    },
    {
      "midi": 73,
      "hit": false,
      "t": 125522.89999999988,
      "d": 292.8867666666629,
      "v": 61
    },
    {
      "midi": 61,
      "hit": false,
      "t": 125522.89999999988,
      "d": 324.2674916666583,
      "v": 48
    },
    {
      "midi": 69,
      "hit": false,
      "t": 126778.12899999987,
      "d": 219.66507499999716,
      "v": 42
    },
    {
      "midi": 54,
      "hit": false,
      "t": 126778.12899999987,
      "d": 240.5855583333323,
      "v": 54
    },
    {
      "midi": 59,
      "hit": false,
      "t": 126778.12899999987,
      "d": 261.50604166666744,
      "v": 42
    },
    {
      "midi": 66,
      "hit": false,
      "t": 126778.12899999987,
      "d": 271.96628333332774,
      "v": 70
    },
    {
      "midi": 71,
      "hit": false,
      "t": 126778.12899999987,
      "d": 271.96628333332774,
      "v": 66
    },
    {
      "midi": 75,
      "hit": false,
      "t": 126778.12899999987,
      "d": 271.96628333332774,
      "v": 67
    },
    {
      "midi": 66,
      "hit": false,
      "t": 127196.53866666653,
      "d": 219.66507499999716,
      "v": 61
    },
    {
      "midi": 71,
      "hit": false,
      "t": 127196.53866666653,
      "d": 219.66507499999716,
      "v": 63
    },
    {
      "midi": 54,
      "hit": false,
      "t": 127196.53866666653,
      "d": 240.5855583333323,
      "v": 47
    },
    {
      "midi": 75,
      "hit": false,
      "t": 127196.53866666653,
      "d": 251.0457999999926,
      "v": 66
    },
    {
      "midi": 69,
      "hit": false,
      "t": 127196.53866666653,
      "d": 271.96628333332774,
      "v": 51
    },
    {
      "midi": 59,
      "hit": false,
      "t": 127196.53866666653,
      "d": 303.3470083333232,
      "v": 49
    },
    {
      "midi": 75,
      "hit": false,
      "t": 127614.94833333319,
      "d": 209.20483333333686,
      "v": 56
    },
    {
      "midi": 54,
      "hit": false,
      "t": 127614.94833333319,
      "d": 240.5855583333323,
      "v": 51
    },
    {
      "midi": 66,
      "hit": false,
      "t": 127614.94833333319,
      "d": 240.5855583333323,
      "v": 70
    },
    {
      "midi": 71,
      "hit": false,
      "t": 127614.94833333319,
      "d": 240.5855583333323,
      "v": 64
    },
    {
      "midi": 69,
      "hit": false,
      "t": 127614.94833333319,
      "d": 261.50604166666744,
      "v": 43
    },
    {
      "midi": 59,
      "hit": false,
      "t": 127614.94833333319,
      "d": 282.4265250000026,
      "v": 51
    },
    {
      "midi": 71,
      "hit": false,
      "t": 128033.35799999986,
      "d": 230.125316666672,
      "v": 70
    },
    {
      "midi": 54,
      "hit": false,
      "t": 128033.35799999986,
      "d": 271.9662833333423,
      "v": 63
    },
    {
      "midi": 69,
      "hit": false,
      "t": 128033.35799999986,
      "d": 282.4265250000026,
      "v": 60
    },
    {
      "midi": 66,
      "hit": false,
      "t": 128033.35799999986,
      "d": 292.8867666666629,
      "v": 62
    },
    {
      "midi": 75,
      "hit": false,
      "t": 128033.35799999986,
      "d": 292.8867666666629,
      "v": 61
    },
    {
      "midi": 59,
      "hit": false,
      "t": 128033.35799999986,
      "d": 324.2674916666583,
      "v": 48
    },
    {
      "midi": 59,
      "hit": false,
      "t": 129288.58699999985,
      "d": 219.66507499999716,
      "v": 42
    },
    {
      "midi": 55,
      "hit": false,
      "t": 129288.58699999985,
      "d": 240.5855583333323,
      "v": 54
    },
    {
      "midi": 62,
      "hit": false,
      "t": 129288.58699999985,
      "d": 261.50604166666744,
      "v": 42
    },
    {
      "midi": 67,
      "hit": false,
      "t": 129288.58699999985,
      "d": 271.96628333332774,
      "v": 70
    },
    {
      "midi": 71,
      "hit": false,
      "t": 129288.58699999985,
      "d": 271.96628333332774,
      "v": 66
    },
    {
      "midi": 74,
      "hit": false,
      "t": 129288.58699999985,
      "d": 271.96628333332774,
      "v": 67
    },
    {
      "midi": 67,
      "hit": false,
      "t": 129706.99666666651,
      "d": 219.66507499999716,
      "v": 61
    },
    {
      "midi": 71,
      "hit": false,
      "t": 129706.99666666651,
      "d": 219.66507499999716,
      "v": 63
    },
    {
      "midi": 55,
      "hit": false,
      "t": 129706.99666666651,
      "d": 240.5855583333323,
      "v": 47
    },
    {
      "midi": 74,
      "hit": false,
      "t": 129706.99666666651,
      "d": 251.0457999999926,
      "v": 66
    },
    {
      "midi": 59,
      "hit": false,
      "t": 129706.99666666651,
      "d": 271.96628333332774,
      "v": 51
    },
    {
      "midi": 62,
      "hit": false,
      "t": 129706.99666666651,
      "d": 303.3470083333232,
      "v": 49
    },
    {
      "midi": 74,
      "hit": false,
      "t": 130125.40633333317,
      "d": 209.20483333333686,
      "v": 56
    },
    {
      "midi": 55,
      "hit": false,
      "t": 130125.40633333317,
      "d": 240.5855583333323,
      "v": 51
    },
    {
      "midi": 67,
      "hit": false,
      "t": 130125.40633333317,
      "d": 240.5855583333323,
      "v": 70
    },
    {
      "midi": 71,
      "hit": false,
      "t": 130125.40633333317,
      "d": 240.5855583333323,
      "v": 64
    },
    {
      "midi": 59,
      "hit": false,
      "t": 130125.40633333317,
      "d": 261.50604166666744,
      "v": 43
    },
    {
      "midi": 62,
      "hit": false,
      "t": 130125.40633333317,
      "d": 282.4265250000026,
      "v": 51
    },
    {
      "midi": 73,
      "hit": false,
      "t": 130543.81599999985,
      "d": 230.125316666672,
      "v": 70
    },
    {
      "midi": 57,
      "hit": false,
      "t": 130543.81599999985,
      "d": 271.9662833333423,
      "v": 63
    },
    {
      "midi": 61,
      "hit": false,
      "t": 130543.81599999985,
      "d": 282.4265250000026,
      "v": 60
    },
    {
      "midi": 69,
      "hit": false,
      "t": 130543.81599999985,
      "d": 292.8867666666629,
      "v": 62
    },
    {
      "midi": 76,
      "hit": false,
      "t": 130543.81599999985,
      "d": 292.8867666666629,
      "v": 61
    },
    {
      "midi": 64,
      "hit": false,
      "t": 130543.81599999985,
      "d": 324.2674916666583,
      "v": 48
    },
    {
      "midi": 57,
      "hit": false,
      "t": 130962.2256666665,
      "d": 219.6650750000117,
      "v": 58
    },
    {
      "midi": 61,
      "hit": false,
      "t": 130962.2256666665,
      "d": 240.5855583333323,
      "v": 51
    },
    {
      "midi": 76,
      "hit": false,
      "t": 130962.2256666665,
      "d": 251.04580000000715,
      "v": 56
    },
    {
      "midi": 69,
      "hit": false,
      "t": 130962.2256666665,
      "d": 261.506041666682,
      "v": 56
    },
    {
      "midi": 64,
      "hit": false,
      "t": 130962.2256666665,
      "d": 271.96628333335684,
      "v": 51
    },
    {
      "midi": 73,
      "hit": false,
      "t": 130962.2256666665,
      "d": 303.3470083333523,
      "v": 58
    },
    {
      "midi": 76,
      "hit": false,
      "t": 131380.6353333332,
      "d": 219.66507499999716,
      "v": 58
    },
    {
      "midi": 69,
      "hit": false,
      "t": 131380.6353333332,
      "d": 251.0457999999926,
      "v": 66
    },
    {
      "midi": 64,
      "hit": false,
      "t": 131380.6353333332,
      "d": 271.9662833333132,
      "v": 35
    },
    {
      "midi": 73,
      "hit": false,
      "t": 131380.6353333332,
      "d": 271.9662833333132,
      "v": 68
    },
    {
      "midi": 57,
      "hit": false,
      "t": 131380.6353333332,
      "d": 303.3470083333086,
      "v": 52
    },
    {
      "midi": 61,
      "hit": false,
      "t": 131380.6353333332,
      "d": 324.2674916666292,
      "v": 44
    },
    {
      "midi": 62,
      "hit": false,
      "t": 131799.0449999998,
      "d": 219.66507499999716,
      "v": 42
    },
    {
      "midi": 54,
      "hit": false,
      "t": 131799.0449999998,
      "d": 240.58555833331775,
      "v": 54
    },
    {
      "midi": 57,
      "hit": false,
      "t": 131799.0449999998,
      "d": 261.50604166663834,
      "v": 42
    },
    {
      "midi": 66,
      "hit": false,
      "t": 131799.0449999998,
      "d": 271.9662833333132,
      "v": 70
    },
    {
      "midi": 69,
      "hit": false,
      "t": 131799.0449999998,
      "d": 271.9662833333132,
      "v": 66
    },
    {
      "midi": 74,
      "hit": false,
      "t": 131799.0449999998,
      "d": 271.9662833333132,
      "v": 67
    },
    {
      "midi": 66,
      "hit": false,
      "t": 132217.45466666645,
      "d": 219.66507499999716,
      "v": 61
    },
    {
      "midi": 69,
      "hit": false,
      "t": 132217.45466666645,
      "d": 219.66507499999716,
      "v": 63
    },
    {
      "midi": 54,
      "hit": false,
      "t": 132217.45466666645,
      "d": 240.58555833331775,
      "v": 47
    },
    {
      "midi": 74,
      "hit": false,
      "t": 132217.45466666645,
      "d": 251.0457999999926,
      "v": 66
    },
    {
      "midi": 62,
      "hit": false,
      "t": 132217.45466666645,
      "d": 271.9662833333132,
      "v": 51
    },
    {
      "midi": 57,
      "hit": false,
      "t": 132217.45466666645,
      "d": 303.3470083333086,
      "v": 49
    },
    {
      "midi": 74,
      "hit": false,
      "t": 132635.8643333331,
      "d": 209.2048333333223,
      "v": 56
    },
    {
      "midi": 54,
      "hit": false,
      "t": 132635.8643333331,
      "d": 240.58555833331775,
      "v": 51
    },
    {
      "midi": 66,
      "hit": false,
      "t": 132635.8643333331,
      "d": 240.58555833331775,
      "v": 70
    },
    {
      "midi": 69,
      "hit": false,
      "t": 132635.8643333331,
      "d": 240.58555833331775,
      "v": 64
    },
    {
      "midi": 62,
      "hit": false,
      "t": 132635.8643333331,
      "d": 261.50604166663834,
      "v": 43
    },
    {
      "midi": 57,
      "hit": false,
      "t": 132635.8643333331,
      "d": 282.42652499995893,
      "v": 51
    },
    {
      "midi": 69,
      "hit": false,
      "t": 133054.2739999997,
      "d": 230.125316666672,
      "v": 70
    },
    {
      "midi": 54,
      "hit": false,
      "t": 133054.2739999997,
      "d": 271.9662833333423,
      "v": 63
    },
    {
      "midi": 62,
      "hit": false,
      "t": 133054.2739999997,
      "d": 282.42652500001714,
      "v": 60
    },
    {
      "midi": 66,
      "hit": false,
      "t": 133054.2739999997,
      "d": 292.886766666692,
      "v": 62
    },
    {
      "midi": 74,
      "hit": false,
      "t": 133054.2739999997,
      "d": 292.886766666692,
      "v": 61
    },
    {
      "midi": 57,
      "hit": false,
      "t": 133054.2739999997,
      "d": 324.2674916666874,
      "v": 48
    },
    {
      "midi": 64,
      "hit": false,
      "t": 134309.50299999974,
      "d": 219.66507499999716,
      "v": 42
    },
    {
      "midi": 55,
      "hit": false,
      "t": 134309.50299999974,
      "d": 240.58555833331775,
      "v": 54
    },
    {
      "midi": 58,
      "hit": false,
      "t": 134309.50299999974,
      "d": 261.50604166663834,
      "v": 42
    },
    {
      "midi": 67,
      "hit": false,
      "t": 134309.50299999974,
      "d": 271.9662833333132,
      "v": 70
    },
    {
      "midi": 70,
      "hit": false,
      "t": 134309.50299999974,
      "d": 271.9662833333132,
      "v": 66
    },
    {
      "midi": 73,
      "hit": false,
      "t": 134309.50299999974,
      "d": 271.9662833333132,
      "v": 67
    },
    {
      "midi": 67,
      "hit": false,
      "t": 134727.91266666638,
      "d": 219.66507499999716,
      "v": 61
    },
    {
      "midi": 70,
      "hit": false,
      "t": 134727.91266666638,
      "d": 219.66507499999716,
      "v": 63
    },
    {
      "midi": 55,
      "hit": false,
      "t": 134727.91266666638,
      "d": 240.58555833331775,
      "v": 47
    },
    {
      "midi": 73,
      "hit": false,
      "t": 134727.91266666638,
      "d": 251.0457999999926,
      "v": 66
    },
    {
      "midi": 64,
      "hit": false,
      "t": 134727.91266666638,
      "d": 271.9662833333132,
      "v": 51
    },
    {
      "midi": 58,
      "hit": false,
      "t": 134727.91266666638,
      "d": 303.3470083333086,
      "v": 49
    },
    {
      "midi": 73,
      "hit": false,
      "t": 135146.32233333302,
      "d": 209.2048333333223,
      "v": 56
    },
    {
      "midi": 55,
      "hit": false,
      "t": 135146.32233333302,
      "d": 240.58555833331775,
      "v": 51
    },
    {
      "midi": 67,
      "hit": false,
      "t": 135146.32233333302,
      "d": 240.58555833331775,
      "v": 70
    },
    {
      "midi": 70,
      "hit": false,
      "t": 135146.32233333302,
      "d": 240.58555833331775,
      "v": 64
    },
    {
      "midi": 64,
      "hit": false,
      "t": 135146.32233333302,
      "d": 261.50604166663834,
      "v": 43
    },
    {
      "midi": 58,
      "hit": false,
      "t": 135146.32233333302,
      "d": 282.42652499995893,
      "v": 51
    },
    {
      "midi": 70,
      "hit": false,
      "t": 135564.73199999964,
      "d": 230.125316666672,
      "v": 70
    },
    {
      "midi": 55,
      "hit": false,
      "t": 135564.73199999964,
      "d": 271.9662833333423,
      "v": 63
    },
    {
      "midi": 64,
      "hit": false,
      "t": 135564.73199999964,
      "d": 282.42652500001714,
      "v": 60
    },
    {
      "midi": 67,
      "hit": false,
      "t": 135564.73199999964,
      "d": 292.886766666692,
      "v": 62
    },
    {
      "midi": 73,
      "hit": false,
      "t": 135564.73199999964,
      "d": 292.886766666692,
      "v": 61
    },
    {
      "midi": 58,
      "hit": false,
      "t": 135564.73199999964,
      "d": 324.2674916666874,
      "v": 48
    },
    {
      "midi": 62,
      "hit": false,
      "t": 136819.96099999966,
      "d": 219.66507499999716,
      "v": 42
    },
    {
      "midi": 54,
      "hit": false,
      "t": 136819.96099999966,
      "d": 240.58555833331775,
      "v": 54
    },
    {
      "midi": 57,
      "hit": false,
      "t": 136819.96099999966,
      "d": 261.50604166663834,
      "v": 42
    },
    {
      "midi": 66,
      "hit": false,
      "t": 136819.96099999966,
      "d": 271.9662833333132,
      "v": 70
    },
    {
      "midi": 69,
      "hit": false,
      "t": 136819.96099999966,
      "d": 271.9662833333132,
      "v": 66
    },
    {
      "midi": 74,
      "hit": false,
      "t": 136819.96099999966,
      "d": 271.9662833333132,
      "v": 67
    },
    {
      "midi": 66,
      "hit": false,
      "t": 137238.3706666663,
      "d": 219.66507499999716,
      "v": 61
    },
    {
      "midi": 69,
      "hit": false,
      "t": 137238.3706666663,
      "d": 219.66507499999716,
      "v": 63
    },
    {
      "midi": 54,
      "hit": false,
      "t": 137238.3706666663,
      "d": 240.58555833331775,
      "v": 47
    },
    {
      "midi": 74,
      "hit": false,
      "t": 137238.3706666663,
      "d": 251.0457999999926,
      "v": 66
    },
    {
      "midi": 62,
      "hit": false,
      "t": 137238.3706666663,
      "d": 271.9662833333132,
      "v": 51
    },
    {
      "midi": 57,
      "hit": false,
      "t": 137238.3706666663,
      "d": 303.3470083333086,
      "v": 49
    },
    {
      "midi": 74,
      "hit": false,
      "t": 137656.78033333295,
      "d": 209.2048333333223,
      "v": 56
    },
    {
      "midi": 54,
      "hit": false,
      "t": 137656.78033333295,
      "d": 240.58555833331775,
      "v": 51
    },
    {
      "midi": 66,
      "hit": false,
      "t": 137656.78033333295,
      "d": 240.58555833331775,
      "v": 70
    },
    {
      "midi": 69,
      "hit": false,
      "t": 137656.78033333295,
      "d": 240.58555833331775,
      "v": 64
    },
    {
      "midi": 62,
      "hit": false,
      "t": 137656.78033333295,
      "d": 261.50604166663834,
      "v": 43
    },
    {
      "midi": 57,
      "hit": false,
      "t": 137656.78033333295,
      "d": 282.42652499995893,
      "v": 51
    },
    {
      "midi": 69,
      "hit": false,
      "t": 138075.18999999957,
      "d": 230.125316666672,
      "v": 70
    },
    {
      "midi": 54,
      "hit": false,
      "t": 138075.18999999957,
      "d": 271.9662833333423,
      "v": 63
    },
    {
      "midi": 62,
      "hit": false,
      "t": 138075.18999999957,
      "d": 282.42652500001714,
      "v": 60
    },
    {
      "midi": 66,
      "hit": false,
      "t": 138075.18999999957,
      "d": 292.886766666692,
      "v": 62
    },
    {
      "midi": 74,
      "hit": false,
      "t": 138075.18999999957,
      "d": 292.886766666692,
      "v": 61
    },
    {
      "midi": 57,
      "hit": false,
      "t": 138075.18999999957,
      "d": 324.2674916666874,
      "v": 48
    },
    {
      "midi": 64,
      "hit": false,
      "t": 139330.4189999996,
      "d": 219.66507499999716,
      "v": 42
    },
    {
      "midi": 55,
      "hit": false,
      "t": 139330.4189999996,
      "d": 240.58555833331775,
      "v": 54
    },
    {
      "midi": 58,
      "hit": false,
      "t": 139330.4189999996,
      "d": 261.50604166663834,
      "v": 42
    },
    {
      "midi": 67,
      "hit": false,
      "t": 139330.4189999996,
      "d": 271.9662833333132,
      "v": 70
    },
    {
      "midi": 70,
      "hit": false,
      "t": 139330.4189999996,
      "d": 271.9662833333132,
      "v": 66
    },
    {
      "midi": 73,
      "hit": false,
      "t": 139330.4189999996,
      "d": 271.9662833333132,
      "v": 67
    },
    {
      "midi": 67,
      "hit": false,
      "t": 139748.82866666623,
      "d": 219.66507499999716,
      "v": 61
    },
    {
      "midi": 70,
      "hit": false,
      "t": 139748.82866666623,
      "d": 219.66507499999716,
      "v": 63
    },
    {
      "midi": 55,
      "hit": false,
      "t": 139748.82866666623,
      "d": 240.58555833331775,
      "v": 47
    },
    {
      "midi": 73,
      "hit": false,
      "t": 139748.82866666623,
      "d": 251.0457999999926,
      "v": 66
    },
    {
      "midi": 64,
      "hit": false,
      "t": 139748.82866666623,
      "d": 271.9662833333132,
      "v": 51
    },
    {
      "midi": 58,
      "hit": false,
      "t": 139748.82866666623,
      "d": 303.3470083333086,
      "v": 49
    },
    {
      "midi": 73,
      "hit": false,
      "t": 140167.23833333288,
      "d": 209.2048333333223,
      "v": 56
    },
    {
      "midi": 55,
      "hit": false,
      "t": 140167.23833333288,
      "d": 240.58555833331775,
      "v": 51
    },
    {
      "midi": 67,
      "hit": false,
      "t": 140167.23833333288,
      "d": 240.58555833331775,
      "v": 70
    },
    {
      "midi": 70,
      "hit": false,
      "t": 140167.23833333288,
      "d": 240.58555833331775,
      "v": 64
    },
    {
      "midi": 64,
      "hit": false,
      "t": 140167.23833333288,
      "d": 261.50604166663834,
      "v": 43
    },
    {
      "midi": 58,
      "hit": false,
      "t": 140167.23833333288,
      "d": 282.42652499995893,
      "v": 51
    },
    {
      "midi": 70,
      "hit": false,
      "t": 140585.6479999995,
      "d": 230.125316666672,
      "v": 70
    },
    {
      "midi": 55,
      "hit": false,
      "t": 140585.6479999995,
      "d": 271.9662833333423,
      "v": 63
    },
    {
      "midi": 64,
      "hit": false,
      "t": 140585.6479999995,
      "d": 282.42652500001714,
      "v": 60
    },
    {
      "midi": 67,
      "hit": false,
      "t": 140585.6479999995,
      "d": 292.886766666692,
      "v": 62
    },
    {
      "midi": 73,
      "hit": false,
      "t": 140585.6479999995,
      "d": 292.886766666692,
      "v": 61
    },
    {
      "midi": 58,
      "hit": false,
      "t": 140585.6479999995,
      "d": 324.2674916666874,
      "v": 48
    },
    {
      "midi": 62,
      "hit": false,
      "t": 141840.8769999995,
      "d": 219.66507499999716,
      "v": 42
    },
    {
      "midi": 54,
      "hit": false,
      "t": 141840.8769999995,
      "d": 240.58555833331775,
      "v": 54
    },
    {
      "midi": 57,
      "hit": false,
      "t": 141840.8769999995,
      "d": 261.50604166663834,
      "v": 42
    },
    {
      "midi": 66,
      "hit": false,
      "t": 141840.8769999995,
      "d": 271.9662833333132,
      "v": 70
    },
    {
      "midi": 69,
      "hit": false,
      "t": 141840.8769999995,
      "d": 271.9662833333132,
      "v": 66
    },
    {
      "midi": 74,
      "hit": false,
      "t": 141840.8769999995,
      "d": 271.9662833333132,
      "v": 67
    },
    {
      "midi": 66,
      "hit": false,
      "t": 142259.28666666616,
      "d": 219.66507499999716,
      "v": 61
    },
    {
      "midi": 69,
      "hit": false,
      "t": 142259.28666666616,
      "d": 219.66507499999716,
      "v": 63
    },
    {
      "midi": 54,
      "hit": false,
      "t": 142259.28666666616,
      "d": 240.58555833331775,
      "v": 47
    },
    {
      "midi": 74,
      "hit": false,
      "t": 142259.28666666616,
      "d": 251.0457999999926,
      "v": 66
    },
    {
      "midi": 62,
      "hit": false,
      "t": 142259.28666666616,
      "d": 271.9662833333132,
      "v": 51
    },
    {
      "midi": 57,
      "hit": false,
      "t": 142259.28666666616,
      "d": 303.3470083333086,
      "v": 49
    },
    {
      "midi": 74,
      "hit": false,
      "t": 142677.6963333328,
      "d": 209.2048333333223,
      "v": 56
    },
    {
      "midi": 54,
      "hit": false,
      "t": 142677.6963333328,
      "d": 240.58555833331775,
      "v": 51
    },
    {
      "midi": 66,
      "hit": false,
      "t": 142677.6963333328,
      "d": 240.58555833331775,
      "v": 70
    },
    {
      "midi": 69,
      "hit": false,
      "t": 142677.6963333328,
      "d": 240.58555833331775,
      "v": 64
    },
    {
      "midi": 62,
      "hit": false,
      "t": 142677.6963333328,
      "d": 261.50604166663834,
      "v": 43
    },
    {
      "midi": 57,
      "hit": false,
      "t": 142677.6963333328,
      "d": 282.42652499995893,
      "v": 51
    },
    {
      "midi": 69,
      "hit": false,
      "t": 143096.10599999942,
      "d": 230.125316666672,
      "v": 70
    },
    {
      "midi": 54,
      "hit": false,
      "t": 143096.10599999942,
      "d": 271.9662833333423,
      "v": 63
    },
    {
      "midi": 62,
      "hit": false,
      "t": 143096.10599999942,
      "d": 282.42652500001714,
      "v": 60
    },
    {
      "midi": 66,
      "hit": false,
      "t": 143096.10599999942,
      "d": 292.886766666692,
      "v": 62
    },
    {
      "midi": 74,
      "hit": false,
      "t": 143096.10599999942,
      "d": 292.886766666692,
      "v": 61
    },
    {
      "midi": 57,
      "hit": false,
      "t": 143096.10599999942,
      "d": 324.2674916666874,
      "v": 48
    },
    {
      "midi": 64,
      "hit": false,
      "t": 144351.33499999944,
      "d": 219.66507499999716,
      "v": 42
    },
    {
      "midi": 55,
      "hit": false,
      "t": 144351.33499999944,
      "d": 240.58555833331775,
      "v": 54
    },
    {
      "midi": 57,
      "hit": false,
      "t": 144351.33499999944,
      "d": 261.50604166663834,
      "v": 42
    },
    {
      "midi": 67,
      "hit": false,
      "t": 144351.33499999944,
      "d": 271.9662833333132,
      "v": 70
    },
    {
      "midi": 69,
      "hit": false,
      "t": 144351.33499999944,
      "d": 271.9662833333132,
      "v": 66
    },
    {
      "midi": 73,
      "hit": false,
      "t": 144351.33499999944,
      "d": 271.9662833333132,
      "v": 67
    },
    {
      "midi": 67,
      "hit": false,
      "t": 144769.74466666608,
      "d": 219.66507499999716,
      "v": 61
    },
    {
      "midi": 69,
      "hit": false,
      "t": 144769.74466666608,
      "d": 219.66507499999716,
      "v": 63
    },
    {
      "midi": 55,
      "hit": false,
      "t": 144769.74466666608,
      "d": 240.58555833331775,
      "v": 47
    },
    {
      "midi": 73,
      "hit": false,
      "t": 144769.74466666608,
      "d": 251.0457999999926,
      "v": 66
    },
    {
      "midi": 64,
      "hit": false,
      "t": 144769.74466666608,
      "d": 271.9662833333132,
      "v": 51
    },
    {
      "midi": 57,
      "hit": false,
      "t": 144769.74466666608,
      "d": 303.3470083333086,
      "v": 49
    },
    {
      "midi": 73,
      "hit": false,
      "t": 145188.15433333273,
      "d": 209.2048333333223,
      "v": 56
    },
    {
      "midi": 55,
      "hit": false,
      "t": 145188.15433333273,
      "d": 240.58555833331775,
      "v": 51
    },
    {
      "midi": 67,
      "hit": false,
      "t": 145188.15433333273,
      "d": 240.58555833331775,
      "v": 70
    },
    {
      "midi": 69,
      "hit": false,
      "t": 145188.15433333273,
      "d": 240.58555833331775,
      "v": 64
    },
    {
      "midi": 64,
      "hit": false,
      "t": 145188.15433333273,
      "d": 261.50604166663834,
      "v": 43
    },
    {
      "midi": 57,
      "hit": false,
      "t": 145188.15433333273,
      "d": 282.42652499995893,
      "v": 51
    },
    {
      "midi": 69,
      "hit": false,
      "t": 145606.56399999934,
      "d": 230.125316666672,
      "v": 70
    },
    {
      "midi": 55,
      "hit": false,
      "t": 145606.56399999934,
      "d": 271.9662833333423,
      "v": 63
    },
    {
      "midi": 64,
      "hit": false,
      "t": 145606.56399999934,
      "d": 282.42652500001714,
      "v": 60
    },
    {
      "midi": 67,
      "hit": false,
      "t": 145606.56399999934,
      "d": 292.886766666692,
      "v": 62
    },
    {
      "midi": 73,
      "hit": false,
      "t": 145606.56399999934,
      "d": 292.886766666692,
      "v": 61
    },
    {
      "midi": 57,
      "hit": false,
      "t": 145606.56399999934,
      "d": 324.2674916666874,
      "v": 48
    },
    {
      "midi": 62,
      "hit": false,
      "t": 146861.79299999936,
      "d": 219.66507499999716,
      "v": 42
    },
    {
      "midi": 57,
      "hit": false,
      "t": 146861.79299999936,
      "d": 240.58555833331775,
      "v": 54
    },
    {
      "midi": 66,
      "hit": false,
      "t": 146861.79299999936,
      "d": 261.50604166663834,
      "v": 42
    },
    {
      "midi": 69,
      "hit": false,
      "t": 146861.79299999936,
      "d": 271.9662833333132,
      "v": 70
    },
    {
      "midi": 72,
      "hit": false,
      "t": 146861.79299999936,
      "d": 271.9662833333132,
      "v": 64
    },
    {
      "midi": 74,
      "hit": false,
      "t": 146861.79299999936,
      "d": 271.9662833333132,
      "v": 67
    },
    {
      "midi": 69,
      "hit": false,
      "t": 147280.202666666,
      "d": 219.66507499999716,
      "v": 61
    },
    {
      "midi": 72,
      "hit": false,
      "t": 147280.202666666,
      "d": 219.66507499999716,
      "v": 63
    },
    {
      "midi": 57,
      "hit": false,
      "t": 147280.202666666,
      "d": 240.58555833331775,
      "v": 47
    },
    {
      "midi": 74,
      "hit": false,
      "t": 147280.202666666,
      "d": 251.0457999999926,
      "v": 59
    },
    {
      "midi": 62,
      "hit": false,
      "t": 147280.202666666,
      "d": 271.9662833333132,
      "v": 51
    },
    {
      "midi": 66,
      "hit": false,
      "t": 147280.202666666,
      "d": 303.3470083333086,
      "v": 49
    },
    {
      "midi": 74,
      "hit": false,
      "t": 147698.61233333265,
      "d": 209.2048333333223,
      "v": 56
    },
    {
      "midi": 57,
      "hit": false,
      "t": 147698.61233333265,
      "d": 240.58555833331775,
      "v": 51
    },
    {
      "midi": 69,
      "hit": false,
      "t": 147698.61233333265,
      "d": 240.58555833331775,
      "v": 70
    },
    {
      "midi": 72,
      "hit": false,
      "t": 147698.61233333265,
      "d": 240.58555833331775,
      "v": 64
    },
    {
      "midi": 62,
      "hit": false,
      "t": 147698.61233333265,
      "d": 261.50604166663834,
      "v": 43
    },
    {
      "midi": 66,
      "hit": false,
      "t": 147698.61233333265,
      "d": 282.42652499995893,
      "v": 51
    },
    {
      "midi": 72,
      "hit": false,
      "t": 148117.02199999927,
      "d": 230.125316666672,
      "v": 70
    },
    {
      "midi": 57,
      "hit": false,
      "t": 148117.02199999927,
      "d": 271.9662833333423,
      "v": 63
    },
    {
      "midi": 62,
      "hit": false,
      "t": 148117.02199999927,
      "d": 282.42652500001714,
      "v": 60
    },
    {
      "midi": 69,
      "hit": false,
      "t": 148117.02199999927,
      "d": 292.886766666692,
      "v": 62
    },
    {
      "midi": 74,
      "hit": false,
      "t": 148117.02199999927,
      "d": 292.886766666692,
      "v": 54
    },
    {
      "midi": 66,
      "hit": false,
      "t": 148117.02199999927,
      "d": 324.2674916666874,
      "v": 48
    },
    {
      "midi": 57,
      "hit": false,
      "t": 148535.43166666594,
      "d": 219.66507499999716,
      "v": 58
    },
    {
      "midi": 62,
      "hit": false,
      "t": 148535.43166666594,
      "d": 240.58555833331775,
      "v": 51
    },
    {
      "midi": 74,
      "hit": false,
      "t": 148535.43166666594,
      "d": 251.0457999999926,
      "v": 56
    },
    {
      "midi": 69,
      "hit": false,
      "t": 148535.43166666594,
      "d": 261.50604166666744,
      "v": 56
    },
    {
      "midi": 66,
      "hit": false,
      "t": 148535.43166666594,
      "d": 271.9662833333423,
      "v": 51
    },
    {
      "midi": 72,
      "hit": false,
      "t": 148535.43166666594,
      "d": 303.3470083333377,
      "v": 58
    },
    {
      "midi": 66,
      "hit": false,
      "t": 148953.84133333262,
      "d": 251.0457999999926,
      "v": 35
    },
    {
      "midi": 69,
      "hit": false,
      "t": 148953.84133333262,
      "d": 251.0457999999926,
      "v": 66
    },
    {
      "midi": 72,
      "hit": false,
      "t": 148953.84133333262,
      "d": 271.9662833333132,
      "v": 68
    },
    {
      "midi": 57,
      "hit": false,
      "t": 148953.84133333262,
      "d": 303.3470083333086,
      "v": 52
    },
    {
      "midi": 74,
      "hit": false,
      "t": 148953.84133333262,
      "d": 303.3470083333086,
      "v": 58
    },
    {
      "midi": 62,
      "hit": false,
      "t": 148953.84133333262,
      "d": 324.2674916666292,
      "v": 44
    },
    {
      "midi": 62,
      "hit": false,
      "t": 149372.25099999923,
      "d": 219.66507499999716,
      "v": 42
    },
    {
      "midi": 57,
      "hit": false,
      "t": 149372.25099999923,
      "d": 240.58555833331775,
      "v": 54
    },
    {
      "midi": 66,
      "hit": false,
      "t": 149372.25099999923,
      "d": 261.50604166663834,
      "v": 42
    },
    {
      "midi": 69,
      "hit": false,
      "t": 149372.25099999923,
      "d": 271.9662833333132,
      "v": 70
    },
    {
      "midi": 72,
      "hit": false,
      "t": 149372.25099999923,
      "d": 271.9662833333132,
      "v": 64
    },
    {
      "midi": 74,
      "hit": false,
      "t": 149372.25099999923,
      "d": 271.9662833333132,
      "v": 67
    },
    {
      "midi": 69,
      "hit": false,
      "t": 149790.66066666588,
      "d": 219.66507499999716,
      "v": 61
    },
    {
      "midi": 72,
      "hit": false,
      "t": 149790.66066666588,
      "d": 219.66507499999716,
      "v": 63
    },
    {
      "midi": 57,
      "hit": false,
      "t": 149790.66066666588,
      "d": 240.58555833331775,
      "v": 47
    },
    {
      "midi": 74,
      "hit": false,
      "t": 149790.66066666588,
      "d": 251.0457999999926,
      "v": 59
    },
    {
      "midi": 62,
      "hit": false,
      "t": 149790.66066666588,
      "d": 271.9662833333132,
      "v": 51
    },
    {
      "midi": 66,
      "hit": false,
      "t": 149790.66066666588,
      "d": 303.3470083333086,
      "v": 49
    },
    {
      "midi": 74,
      "hit": false,
      "t": 150209.07033333252,
      "d": 209.2048333333223,
      "v": 56
    },
    {
      "midi": 57,
      "hit": false,
      "t": 150209.07033333252,
      "d": 240.58555833331775,
      "v": 51
    },
    {
      "midi": 69,
      "hit": false,
      "t": 150209.07033333252,
      "d": 240.58555833331775,
      "v": 70
    },
    {
      "midi": 72,
      "hit": false,
      "t": 150209.07033333252,
      "d": 240.58555833331775,
      "v": 64
    },
    {
      "midi": 62,
      "hit": false,
      "t": 150209.07033333252,
      "d": 261.50604166663834,
      "v": 43
    },
    {
      "midi": 66,
      "hit": false,
      "t": 150209.07033333252,
      "d": 282.42652499995893,
      "v": 51
    },
    {
      "midi": 72,
      "hit": false,
      "t": 150627.47999999914,
      "d": 230.125316666672,
      "v": 70
    },
    {
      "midi": 57,
      "hit": false,
      "t": 150627.47999999914,
      "d": 271.9662833333423,
      "v": 63
    },
    {
      "midi": 62,
      "hit": false,
      "t": 150627.47999999914,
      "d": 282.42652500001714,
      "v": 60
    },
    {
      "midi": 69,
      "hit": false,
      "t": 150627.47999999914,
      "d": 292.886766666692,
      "v": 62
    },
    {
      "midi": 74,
      "hit": false,
      "t": 150627.47999999914,
      "d": 292.886766666692,
      "v": 54
    },
    {
      "midi": 66,
      "hit": false,
      "t": 150627.47999999914,
      "d": 324.2674916666874,
      "v": 48
    },
    {
      "midi": 57,
      "hit": false,
      "t": 151045.8896666658,
      "d": 219.66507499999716,
      "v": 58
    },
    {
      "midi": 62,
      "hit": false,
      "t": 151045.8896666658,
      "d": 240.58555833331775,
      "v": 51
    },
    {
      "midi": 74,
      "hit": false,
      "t": 151045.8896666658,
      "d": 251.0457999999926,
      "v": 56
    },
    {
      "midi": 69,
      "hit": false,
      "t": 151045.8896666658,
      "d": 261.50604166666744,
      "v": 56
    },
    {
      "midi": 66,
      "hit": false,
      "t": 151045.8896666658,
      "d": 271.9662833333423,
      "v": 51
    },
    {
      "midi": 72,
      "hit": false,
      "t": 151045.8896666658,
      "d": 303.3470083333377,
      "v": 58
    },
    {
      "midi": 66,
      "hit": false,
      "t": 151464.29933333248,
      "d": 251.0457999999926,
      "v": 35
    },
    {
      "midi": 69,
      "hit": false,
      "t": 151464.29933333248,
      "d": 251.0457999999926,
      "v": 66
    },
    {
      "midi": 72,
      "hit": false,
      "t": 151464.29933333248,
      "d": 271.9662833333132,
      "v": 68
    },
    {
      "midi": 57,
      "hit": false,
      "t": 151464.29933333248,
      "d": 303.3470083333086,
      "v": 52
    },
    {
      "midi": 74,
      "hit": false,
      "t": 151464.29933333248,
      "d": 303.3470083333086,
      "v": 58
    },
    {
      "midi": 62,
      "hit": false,
      "t": 151464.29933333248,
      "d": 324.2674916666292,
      "v": 44
    },
    {
      "midi": 59,
      "hit": false,
      "t": 151882.7089999991,
      "d": 219.66507499999716,
      "v": 42
    },
    {
      "midi": 55,
      "hit": false,
      "t": 151882.7089999991,
      "d": 240.58555833331775,
      "v": 54
    },
    {
      "midi": 62,
      "hit": false,
      "t": 151882.7089999991,
      "d": 261.50604166663834,
      "v": 42
    },
    {
      "midi": 67,
      "hit": false,
      "t": 151882.7089999991,
      "d": 271.9662833333132,
      "v": 70
    },
    {
      "midi": 71,
      "hit": false,
      "t": 151882.7089999991,
      "d": 271.9662833333132,
      "v": 66
    },
    {
      "midi": 74,
      "hit": false,
      "t": 151882.7089999991,
      "d": 271.9662833333132,
      "v": 67
    },
    {
      "midi": 67,
      "hit": false,
      "t": 152301.11866666574,
      "d": 219.66507499999716,
      "v": 61
    },
    {
      "midi": 71,
      "hit": false,
      "t": 152301.11866666574,
      "d": 219.66507499999716,
      "v": 63
    },
    {
      "midi": 55,
      "hit": false,
      "t": 152301.11866666574,
      "d": 240.58555833331775,
      "v": 47
    },
    {
      "midi": 74,
      "hit": false,
      "t": 152301.11866666574,
      "d": 251.0457999999926,
      "v": 66
    },
    {
      "midi": 59,
      "hit": false,
      "t": 152301.11866666574,
      "d": 271.9662833333132,
      "v": 51
    },
    {
      "midi": 62,
      "hit": false,
      "t": 152301.11866666574,
      "d": 303.3470083333086,
      "v": 49
    },
    {
      "midi": 74,
      "hit": false,
      "t": 152719.5283333324,
      "d": 209.2048333333223,
      "v": 56
    },
    {
      "midi": 55,
      "hit": false,
      "t": 152719.5283333324,
      "d": 240.58555833331775,
      "v": 51
    },
    {
      "midi": 67,
      "hit": false,
      "t": 152719.5283333324,
      "d": 240.58555833331775,
      "v": 70
    },
    {
      "midi": 71,
      "hit": false,
      "t": 152719.5283333324,
      "d": 240.58555833331775,
      "v": 64
    },
    {
      "midi": 59,
      "hit": false,
      "t": 152719.5283333324,
      "d": 261.50604166663834,
      "v": 43
    },
    {
      "midi": 62,
      "hit": false,
      "t": 152719.5283333324,
      "d": 282.42652499995893,
      "v": 51
    },
    {
      "midi": 71,
      "hit": false,
      "t": 153137.937999999,
      "d": 230.125316666672,
      "v": 70
    },
    {
      "midi": 55,
      "hit": false,
      "t": 153137.937999999,
      "d": 271.9662833333423,
      "v": 63
    },
    {
      "midi": 59,
      "hit": false,
      "t": 153137.937999999,
      "d": 282.42652500001714,
      "v": 60
    },
    {
      "midi": 67,
      "hit": false,
      "t": 153137.937999999,
      "d": 292.886766666692,
      "v": 62
    },
    {
      "midi": 74,
      "hit": false,
      "t": 153137.937999999,
      "d": 292.886766666692,
      "v": 61
    },
    {
      "midi": 62,
      "hit": false,
      "t": 153137.937999999,
      "d": 324.2674916666874,
      "v": 48
    },
    {
      "midi": 55,
      "hit": false,
      "t": 153556.34766666568,
      "d": 219.66507499999716,
      "v": 58
    },
    {
      "midi": 59,
      "hit": false,
      "t": 153556.34766666568,
      "d": 240.58555833331775,
      "v": 51
    },
    {
      "midi": 74,
      "hit": false,
      "t": 153556.34766666568,
      "d": 251.0457999999926,
      "v": 56
    },
    {
      "midi": 67,
      "hit": false,
      "t": 153556.34766666568,
      "d": 261.50604166666744,
      "v": 56
    },
    {
      "midi": 62,
      "hit": false,
      "t": 153556.34766666568,
      "d": 271.9662833333423,
      "v": 51
    },
    {
      "midi": 71,
      "hit": false,
      "t": 153556.34766666568,
      "d": 303.3470083333377,
      "v": 58
    },
    {
      "midi": 74,
      "hit": false,
      "t": 153974.75733333235,
      "d": 219.66507499999716,
      "v": 58
    },
    {
      "midi": 67,
      "hit": false,
      "t": 153974.75733333235,
      "d": 251.0457999999926,
      "v": 66
    },
    {
      "midi": 62,
      "hit": false,
      "t": 153974.75733333235,
      "d": 271.9662833333132,
      "v": 35
    },
    {
      "midi": 71,
      "hit": false,
      "t": 153974.75733333235,
      "d": 271.9662833333132,
      "v": 68
    },
    {
      "midi": 55,
      "hit": false,
      "t": 153974.75733333235,
      "d": 303.3470083333086,
      "v": 52
    },
    {
      "midi": 59,
      "hit": false,
      "t": 153974.75733333235,
      "d": 324.2674916666292,
      "v": 44
    },
    {
      "midi": 59,
      "hit": false,
      "t": 154393.16699999897,
      "d": 219.66507499999716,
      "v": 42
    },
    {
      "midi": 55,
      "hit": false,
      "t": 154393.16699999897,
      "d": 240.58555833331775,
      "v": 54
    },
    {
      "midi": 64,
      "hit": false,
      "t": 154393.16699999897,
      "d": 261.50604166663834,
      "v": 42
    },
    {
      "midi": 67,
      "hit": false,
      "t": 154393.16699999897,
      "d": 271.9662833333132,
      "v": 70
    },
    {
      "midi": 71,
      "hit": false,
      "t": 154393.16699999897,
      "d": 271.9662833333132,
      "v": 64
    },
    {
      "midi": 76,
      "hit": false,
      "t": 154393.16699999897,
      "d": 271.9662833333132,
      "v": 67
    },
    {
      "midi": 67,
      "hit": false,
      "t": 154811.5766666656,
      "d": 219.66507499999716,
      "v": 61
    },
    {
      "midi": 71,
      "hit": false,
      "t": 154811.5766666656,
      "d": 219.66507499999716,
      "v": 63
    },
    {
      "midi": 55,
      "hit": false,
      "t": 154811.5766666656,
      "d": 240.58555833331775,
      "v": 47
    },
    {
      "midi": 76,
      "hit": false,
      "t": 154811.5766666656,
      "d": 251.0457999999926,
      "v": 59
    },
    {
      "midi": 59,
      "hit": false,
      "t": 154811.5766666656,
      "d": 271.9662833333132,
      "v": 51
    },
    {
      "midi": 64,
      "hit": false,
      "t": 154811.5766666656,
      "d": 303.3470083333086,
      "v": 49
    },
    {
      "midi": 76,
      "hit": false,
      "t": 155229.98633333226,
      "d": 209.2048333333223,
      "v": 56
    },
    {
      "midi": 55,
      "hit": false,
      "t": 155229.98633333226,
      "d": 240.58555833331775,
      "v": 51
    },
    {
      "midi": 67,
      "hit": false,
      "t": 155229.98633333226,
      "d": 240.58555833331775,
      "v": 70
    },
    {
      "midi": 71,
      "hit": false,
      "t": 155229.98633333226,
      "d": 240.58555833331775,
      "v": 64
    },
    {
      "midi": 59,
      "hit": false,
      "t": 155229.98633333226,
      "d": 261.50604166663834,
      "v": 43
    },
    {
      "midi": 64,
      "hit": false,
      "t": 155229.98633333226,
      "d": 282.42652499995893,
      "v": 51
    },
    {
      "midi": 71,
      "hit": false,
      "t": 155648.39599999887,
      "d": 230.125316666672,
      "v": 70
    },
    {
      "midi": 55,
      "hit": false,
      "t": 155648.39599999887,
      "d": 271.9662833333423,
      "v": 63
    },
    {
      "midi": 59,
      "hit": false,
      "t": 155648.39599999887,
      "d": 282.42652500001714,
      "v": 60
    },
    {
      "midi": 67,
      "hit": false,
      "t": 155648.39599999887,
      "d": 292.886766666692,
      "v": 62
    },
    {
      "midi": 76,
      "hit": false,
      "t": 155648.39599999887,
      "d": 292.886766666692,
      "v": 54
    },
    {
      "midi": 64,
      "hit": false,
      "t": 155648.39599999887,
      "d": 324.2674916666874,
      "v": 48
    },
    {
      "midi": 55,
      "hit": false,
      "t": 156066.80566666555,
      "d": 219.66507499999716,
      "v": 58
    },
    {
      "midi": 59,
      "hit": false,
      "t": 156066.80566666555,
      "d": 240.58555833331775,
      "v": 51
    },
    {
      "midi": 76,
      "hit": false,
      "t": 156066.80566666555,
      "d": 251.0457999999926,
      "v": 56
    },
    {
      "midi": 67,
      "hit": false,
      "t": 156066.80566666555,
      "d": 261.50604166666744,
      "v": 56
    },
    {
      "midi": 64,
      "hit": false,
      "t": 156066.80566666555,
      "d": 271.9662833333423,
      "v": 51
    },
    {
      "midi": 71,
      "hit": false,
      "t": 156066.80566666555,
      "d": 303.3470083333377,
      "v": 58
    },
    {
      "midi": 64,
      "hit": false,
      "t": 156485.21533333222,
      "d": 251.0457999999926,
      "v": 35
    },
    {
      "midi": 67,
      "hit": false,
      "t": 156485.21533333222,
      "d": 251.0457999999926,
      "v": 66
    },
    {
      "midi": 71,
      "hit": false,
      "t": 156485.21533333222,
      "d": 271.9662833333132,
      "v": 68
    },
    {
      "midi": 55,
      "hit": false,
      "t": 156485.21533333222,
      "d": 303.3470083333086,
      "v": 52
    },
    {
      "midi": 76,
      "hit": false,
      "t": 156485.21533333222,
      "d": 303.3470083333086,
      "v": 58
    },
    {
      "midi": 59,
      "hit": false,
      "t": 156485.21533333222,
      "d": 324.2674916666292,
      "v": 44
    },
    {
      "midi": 60,
      "hit": false,
      "t": 156903.62499999884,
      "d": 219.66507499999716,
      "v": 42
    },
    {
      "midi": 55,
      "hit": false,
      "t": 156903.62499999884,
      "d": 240.58555833331775,
      "v": 54
    },
    {
      "midi": 64,
      "hit": false,
      "t": 156903.62499999884,
      "d": 261.50604166663834,
      "v": 42
    },
    {
      "midi": 69,
      "hit": false,
      "t": 156903.62499999884,
      "d": 271.9662833333132,
      "v": 70
    },
    {
      "midi": 72,
      "hit": false,
      "t": 156903.62499999884,
      "d": 271.9662833333132,
      "v": 64
    },
    {
      "midi": 76,
      "hit": false,
      "t": 156903.62499999884,
      "d": 271.9662833333132,
      "v": 67
    },
    {
      "midi": 69,
      "hit": false,
      "t": 157322.03466666548,
      "d": 219.66507499999716,
      "v": 61
    },
    {
      "midi": 72,
      "hit": false,
      "t": 157322.03466666548,
      "d": 219.66507499999716,
      "v": 63
    },
    {
      "midi": 55,
      "hit": false,
      "t": 157322.03466666548,
      "d": 240.58555833331775,
      "v": 47
    },
    {
      "midi": 76,
      "hit": false,
      "t": 157322.03466666548,
      "d": 251.0457999999926,
      "v": 59
    },
    {
      "midi": 60,
      "hit": false,
      "t": 157322.03466666548,
      "d": 271.9662833333132,
      "v": 51
    },
    {
      "midi": 64,
      "hit": false,
      "t": 157322.03466666548,
      "d": 303.3470083333086,
      "v": 49
    },
    {
      "midi": 76,
      "hit": false,
      "t": 157740.44433333213,
      "d": 209.2048333333223,
      "v": 56
    },
    {
      "midi": 55,
      "hit": false,
      "t": 157740.44433333213,
      "d": 240.58555833331775,
      "v": 51
    },
    {
      "midi": 69,
      "hit": false,
      "t": 157740.44433333213,
      "d": 240.58555833331775,
      "v": 70
    },
    {
      "midi": 72,
      "hit": false,
      "t": 157740.44433333213,
      "d": 240.58555833331775,
      "v": 64
    },
    {
      "midi": 60,
      "hit": false,
      "t": 157740.44433333213,
      "d": 261.50604166663834,
      "v": 43
    },
    {
      "midi": 64,
      "hit": false,
      "t": 157740.44433333213,
      "d": 282.42652499995893,
      "v": 51
    },
    {
      "midi": 72,
      "hit": false,
      "t": 158158.85399999874,
      "d": 230.125316666672,
      "v": 70
    },
    {
      "midi": 55,
      "hit": false,
      "t": 158158.85399999874,
      "d": 271.9662833333423,
      "v": 63
    },
    {
      "midi": 60,
      "hit": false,
      "t": 158158.85399999874,
      "d": 282.42652500001714,
      "v": 60
    },
    {
      "midi": 69,
      "hit": false,
      "t": 158158.85399999874,
      "d": 292.886766666692,
      "v": 62
    },
    {
      "midi": 76,
      "hit": false,
      "t": 158158.85399999874,
      "d": 292.886766666692,
      "v": 54
    },
    {
      "midi": 64,
      "hit": false,
      "t": 158158.85399999874,
      "d": 324.2674916666874,
      "v": 48
    },
    {
      "midi": 55,
      "hit": false,
      "t": 158577.2636666654,
      "d": 219.66507499999716,
      "v": 58
    },
    {
      "midi": 60,
      "hit": false,
      "t": 158577.2636666654,
      "d": 240.58555833331775,
      "v": 51
    },
    {
      "midi": 76,
      "hit": false,
      "t": 158577.2636666654,
      "d": 251.0457999999926,
      "v": 56
    },
    {
      "midi": 69,
      "hit": false,
      "t": 158577.2636666654,
      "d": 261.50604166666744,
      "v": 56
    },
    {
      "midi": 64,
      "hit": false,
      "t": 158577.2636666654,
      "d": 271.9662833333423,
      "v": 51
    },
    {
      "midi": 72,
      "hit": false,
      "t": 158577.2636666654,
      "d": 303.3470083333377,
      "v": 58
    },
    {
      "midi": 64,
      "hit": false,
      "t": 158995.6733333321,
      "d": 251.0457999999926,
      "v": 35
    },
    {
      "midi": 69,
      "hit": false,
      "t": 158995.6733333321,
      "d": 251.0457999999926,
      "v": 66
    },
    {
      "midi": 72,
      "hit": false,
      "t": 158995.6733333321,
      "d": 271.9662833333132,
      "v": 68
    },
    {
      "midi": 55,
      "hit": false,
      "t": 158995.6733333321,
      "d": 303.3470083333086,
      "v": 52
    },
    {
      "midi": 76,
      "hit": false,
      "t": 158995.6733333321,
      "d": 303.3470083333086,
      "v": 58
    },
    {
      "midi": 60,
      "hit": false,
      "t": 158995.6733333321,
      "d": 324.2674916666292,
      "v": 44
    },
    {
      "midi": 62,
      "hit": false,
      "t": 159414.0829999987,
      "d": 219.66507499999716,
      "v": 42
    },
    {
      "midi": 57,
      "hit": false,
      "t": 159414.0829999987,
      "d": 240.58555833331775,
      "v": 54
    },
    {
      "midi": 66,
      "hit": false,
      "t": 159414.0829999987,
      "d": 261.50604166663834,
      "v": 42
    },
    {
      "midi": 69,
      "hit": false,
      "t": 159414.0829999987,
      "d": 271.9662833333132,
      "v": 70
    },
    {
      "midi": 72,
      "hit": false,
      "t": 159414.0829999987,
      "d": 271.9662833333132,
      "v": 64
    },
    {
      "midi": 74,
      "hit": false,
      "t": 159414.0829999987,
      "d": 271.9662833333132,
      "v": 67
    },
    {
      "midi": 69,
      "hit": false,
      "t": 159832.49266666535,
      "d": 219.66507499999716,
      "v": 61
    },
    {
      "midi": 72,
      "hit": false,
      "t": 159832.49266666535,
      "d": 219.66507499999716,
      "v": 63
    },
    {
      "midi": 57,
      "hit": false,
      "t": 159832.49266666535,
      "d": 240.58555833331775,
      "v": 47
    },
    {
      "midi": 74,
      "hit": false,
      "t": 159832.49266666535,
      "d": 251.0457999999926,
      "v": 59
    },
    {
      "midi": 62,
      "hit": false,
      "t": 159832.49266666535,
      "d": 271.9662833333132,
      "v": 51
    },
    {
      "midi": 66,
      "hit": false,
      "t": 159832.49266666535,
      "d": 303.3470083333086,
      "v": 49
    },
    {
      "midi": 74,
      "hit": false,
      "t": 160250.902333332,
      "d": 209.2048333333223,
      "v": 56
    },
    {
      "midi": 57,
      "hit": false,
      "t": 160250.902333332,
      "d": 240.58555833331775,
      "v": 51
    },
    {
      "midi": 69,
      "hit": false,
      "t": 160250.902333332,
      "d": 240.58555833331775,
      "v": 70
    },
    {
      "midi": 72,
      "hit": false,
      "t": 160250.902333332,
      "d": 240.58555833331775,
      "v": 64
    },
    {
      "midi": 62,
      "hit": false,
      "t": 160250.902333332,
      "d": 261.50604166663834,
      "v": 43
    },
    {
      "midi": 66,
      "hit": false,
      "t": 160250.902333332,
      "d": 282.42652499995893,
      "v": 51
    },
    {
      "midi": 72,
      "hit": false,
      "t": 160669.3119999986,
      "d": 230.125316666672,
      "v": 70
    },
    {
      "midi": 57,
      "hit": false,
      "t": 160669.3119999986,
      "d": 271.9662833333423,
      "v": 63
    },
    {
      "midi": 62,
      "hit": false,
      "t": 160669.3119999986,
      "d": 282.42652500001714,
      "v": 60
    },
    {
      "midi": 69,
      "hit": false,
      "t": 160669.3119999986,
      "d": 292.886766666692,
      "v": 62
    },
    {
      "midi": 74,
      "hit": false,
      "t": 160669.3119999986,
      "d": 292.886766666692,
      "v": 54
    },
    {
      "midi": 66,
      "hit": false,
      "t": 160669.3119999986,
      "d": 324.2674916666874,
      "v": 48
    },
    {
      "midi": 57,
      "hit": false,
      "t": 161087.72166666528,
      "d": 219.66507499999716,
      "v": 58
    },
    {
      "midi": 62,
      "hit": false,
      "t": 161087.72166666528,
      "d": 240.58555833331775,
      "v": 51
    },
    {
      "midi": 74,
      "hit": false,
      "t": 161087.72166666528,
      "d": 251.0457999999926,
      "v": 56
    },
    {
      "midi": 69,
      "hit": false,
      "t": 161087.72166666528,
      "d": 261.50604166666744,
      "v": 56
    },
    {
      "midi": 66,
      "hit": false,
      "t": 161087.72166666528,
      "d": 271.9662833333423,
      "v": 51
    },
    {
      "midi": 72,
      "hit": false,
      "t": 161087.72166666528,
      "d": 303.3470083333377,
      "v": 58
    },
    {
      "midi": 66,
      "hit": false,
      "t": 161506.13133333196,
      "d": 251.0457999999926,
      "v": 35
    },
    {
      "midi": 69,
      "hit": false,
      "t": 161506.13133333196,
      "d": 251.0457999999926,
      "v": 66
    },
    {
      "midi": 72,
      "hit": false,
      "t": 161506.13133333196,
      "d": 271.9662833333132,
      "v": 68
    },
    {
      "midi": 57,
      "hit": false,
      "t": 161506.13133333196,
      "d": 303.3470083333086,
      "v": 52
    },
    {
      "midi": 74,
      "hit": false,
      "t": 161506.13133333196,
      "d": 303.3470083333086,
      "v": 58
    },
    {
      "midi": 62,
      "hit": false,
      "t": 161506.13133333196,
      "d": 324.2674916666292,
      "v": 44
    },
    {
      "midi": 59,
      "hit": false,
      "t": 161924.54099999857,
      "d": 219.66507499999716,
      "v": 42
    },
    {
      "midi": 55,
      "hit": false,
      "t": 161924.54099999857,
      "d": 240.58555833331775,
      "v": 54
    },
    {
      "midi": 62,
      "hit": false,
      "t": 161924.54099999857,
      "d": 261.50604166663834,
      "v": 42
    },
    {
      "midi": 67,
      "hit": false,
      "t": 161924.54099999857,
      "d": 271.9662833333132,
      "v": 70
    },
    {
      "midi": 71,
      "hit": false,
      "t": 161924.54099999857,
      "d": 271.9662833333132,
      "v": 66
    },
    {
      "midi": 74,
      "hit": false,
      "t": 161924.54099999857,
      "d": 271.9662833333132,
      "v": 67
    },
    {
      "midi": 67,
      "hit": false,
      "t": 162342.95066666522,
      "d": 219.66507499999716,
      "v": 61
    },
    {
      "midi": 71,
      "hit": false,
      "t": 162342.95066666522,
      "d": 219.66507499999716,
      "v": 63
    },
    {
      "midi": 55,
      "hit": false,
      "t": 162342.95066666522,
      "d": 240.58555833331775,
      "v": 47
    },
    {
      "midi": 74,
      "hit": false,
      "t": 162342.95066666522,
      "d": 251.0457999999926,
      "v": 66
    },
    {
      "midi": 59,
      "hit": false,
      "t": 162342.95066666522,
      "d": 271.9662833333132,
      "v": 51
    },
    {
      "midi": 62,
      "hit": false,
      "t": 162342.95066666522,
      "d": 303.3470083333086,
      "v": 49
    },
    {
      "midi": 74,
      "hit": false,
      "t": 162761.36033333186,
      "d": 209.2048333333223,
      "v": 56
    },
    {
      "midi": 55,
      "hit": false,
      "t": 162761.36033333186,
      "d": 240.58555833331775,
      "v": 51
    },
    {
      "midi": 67,
      "hit": false,
      "t": 162761.36033333186,
      "d": 240.58555833331775,
      "v": 70
    },
    {
      "midi": 71,
      "hit": false,
      "t": 162761.36033333186,
      "d": 240.58555833331775,
      "v": 64
    },
    {
      "midi": 59,
      "hit": false,
      "t": 162761.36033333186,
      "d": 261.50604166663834,
      "v": 43
    },
    {
      "midi": 62,
      "hit": false,
      "t": 162761.36033333186,
      "d": 282.42652499995893,
      "v": 51
    },
    {
      "midi": 71,
      "hit": false,
      "t": 163179.76999999848,
      "d": 230.125316666672,
      "v": 70
    },
    {
      "midi": 55,
      "hit": false,
      "t": 163179.76999999848,
      "d": 271.9662833333423,
      "v": 63
    },
    {
      "midi": 59,
      "hit": false,
      "t": 163179.76999999848,
      "d": 282.42652500001714,
      "v": 60
    },
    {
      "midi": 67,
      "hit": false,
      "t": 163179.76999999848,
      "d": 292.886766666692,
      "v": 62
    },
    {
      "midi": 74,
      "hit": false,
      "t": 163179.76999999848,
      "d": 292.886766666692,
      "v": 61
    },
    {
      "midi": 62,
      "hit": false,
      "t": 163179.76999999848,
      "d": 324.2674916666874,
      "v": 48
    },
    {
      "midi": 55,
      "hit": false,
      "t": 163598.17966666515,
      "d": 219.66507499999716,
      "v": 58
    },
    {
      "midi": 59,
      "hit": false,
      "t": 163598.17966666515,
      "d": 240.58555833331775,
      "v": 51
    },
    {
      "midi": 74,
      "hit": false,
      "t": 163598.17966666515,
      "d": 251.0457999999926,
      "v": 56
    },
    {
      "midi": 67,
      "hit": false,
      "t": 163598.17966666515,
      "d": 261.50604166666744,
      "v": 56
    },
    {
      "midi": 62,
      "hit": false,
      "t": 163598.17966666515,
      "d": 271.9662833333423,
      "v": 51
    },
    {
      "midi": 71,
      "hit": false,
      "t": 163598.17966666515,
      "d": 303.3470083333377,
      "v": 58
    },
    {
      "midi": 74,
      "hit": false,
      "t": 164016.58933333182,
      "d": 219.66507499999716,
      "v": 58
    },
    {
      "midi": 67,
      "hit": false,
      "t": 164016.58933333182,
      "d": 251.0457999999926,
      "v": 66
    },
    {
      "midi": 62,
      "hit": false,
      "t": 164016.58933333182,
      "d": 271.9662833333132,
      "v": 35
    },
    {
      "midi": 71,
      "hit": false,
      "t": 164016.58933333182,
      "d": 271.9662833333132,
      "v": 68
    },
    {
      "midi": 55,
      "hit": false,
      "t": 164016.58933333182,
      "d": 303.3470083333086,
      "v": 52
    },
    {
      "midi": 59,
      "hit": false,
      "t": 164016.58933333182,
      "d": 324.2674916666292,
      "v": 44
    },
    {
      "midi": 59,
      "hit": false,
      "t": 164434.99899999844,
      "d": 219.66507499999716,
      "v": 42
    },
    {
      "midi": 55,
      "hit": false,
      "t": 164434.99899999844,
      "d": 240.58555833331775,
      "v": 54
    },
    {
      "midi": 64,
      "hit": false,
      "t": 164434.99899999844,
      "d": 261.50604166663834,
      "v": 42
    },
    {
      "midi": 67,
      "hit": false,
      "t": 164434.99899999844,
      "d": 271.9662833333132,
      "v": 70
    },
    {
      "midi": 71,
      "hit": false,
      "t": 164434.99899999844,
      "d": 271.9662833333132,
      "v": 64
    },
    {
      "midi": 76,
      "hit": false,
      "t": 164434.99899999844,
      "d": 271.9662833333132,
      "v": 67
    },
    {
      "midi": 67,
      "hit": false,
      "t": 164853.40866666508,
      "d": 219.66507499999716,
      "v": 61
    },
    {
      "midi": 71,
      "hit": false,
      "t": 164853.40866666508,
      "d": 219.66507499999716,
      "v": 63
    },
    {
      "midi": 55,
      "hit": false,
      "t": 164853.40866666508,
      "d": 240.58555833331775,
      "v": 47
    },
    {
      "midi": 76,
      "hit": false,
      "t": 164853.40866666508,
      "d": 251.0457999999926,
      "v": 59
    },
    {
      "midi": 59,
      "hit": false,
      "t": 164853.40866666508,
      "d": 271.9662833333132,
      "v": 51
    },
    {
      "midi": 64,
      "hit": false,
      "t": 164853.40866666508,
      "d": 303.3470083333086,
      "v": 49
    },
    {
      "midi": 76,
      "hit": false,
      "t": 165271.81833333173,
      "d": 209.2048333333223,
      "v": 56
    },
    {
      "midi": 55,
      "hit": false,
      "t": 165271.81833333173,
      "d": 240.58555833331775,
      "v": 51
    },
    {
      "midi": 67,
      "hit": false,
      "t": 165271.81833333173,
      "d": 240.58555833331775,
      "v": 70
    },
    {
      "midi": 71,
      "hit": false,
      "t": 165271.81833333173,
      "d": 240.58555833331775,
      "v": 64
    },
    {
      "midi": 59,
      "hit": false,
      "t": 165271.81833333173,
      "d": 261.50604166663834,
      "v": 43
    },
    {
      "midi": 64,
      "hit": false,
      "t": 165271.81833333173,
      "d": 282.42652499995893,
      "v": 51
    },
    {
      "midi": 71,
      "hit": false,
      "t": 165690.22799999834,
      "d": 230.125316666672,
      "v": 70
    },
    {
      "midi": 55,
      "hit": false,
      "t": 165690.22799999834,
      "d": 271.9662833333423,
      "v": 63
    },
    {
      "midi": 59,
      "hit": false,
      "t": 165690.22799999834,
      "d": 282.42652500001714,
      "v": 60
    },
    {
      "midi": 67,
      "hit": false,
      "t": 165690.22799999834,
      "d": 292.886766666692,
      "v": 62
    },
    {
      "midi": 76,
      "hit": false,
      "t": 165690.22799999834,
      "d": 292.886766666692,
      "v": 54
    },
    {
      "midi": 64,
      "hit": false,
      "t": 165690.22799999834,
      "d": 324.2674916666874,
      "v": 48
    },
    {
      "midi": 55,
      "hit": false,
      "t": 166108.63766666502,
      "d": 219.66507499999716,
      "v": 58
    },
    {
      "midi": 59,
      "hit": false,
      "t": 166108.63766666502,
      "d": 240.58555833331775,
      "v": 51
    },
    {
      "midi": 76,
      "hit": false,
      "t": 166108.63766666502,
      "d": 251.0457999999926,
      "v": 56
    },
    {
      "midi": 67,
      "hit": false,
      "t": 166108.63766666502,
      "d": 261.50604166666744,
      "v": 56
    },
    {
      "midi": 64,
      "hit": false,
      "t": 166108.63766666502,
      "d": 271.9662833333423,
      "v": 51
    },
    {
      "midi": 71,
      "hit": false,
      "t": 166108.63766666502,
      "d": 303.3470083333377,
      "v": 58
    },
    {
      "midi": 64,
      "hit": false,
      "t": 166527.0473333317,
      "d": 251.0457999999926,
      "v": 35
    },
    {
      "midi": 67,
      "hit": false,
      "t": 166527.0473333317,
      "d": 251.0457999999926,
      "v": 66
    },
    {
      "midi": 71,
      "hit": false,
      "t": 166527.0473333317,
      "d": 271.9662833333132,
      "v": 68
    },
    {
      "midi": 55,
      "hit": false,
      "t": 166527.0473333317,
      "d": 303.3470083333086,
      "v": 52
    },
    {
      "midi": 76,
      "hit": false,
      "t": 166527.0473333317,
      "d": 303.3470083333086,
      "v": 58
    },
    {
      "midi": 59,
      "hit": false,
      "t": 166527.0473333317,
      "d": 324.2674916666292,
      "v": 44
    },
    {
      "midi": 60,
      "hit": false,
      "t": 166945.4569999983,
      "d": 219.66507499999716,
      "v": 42
    },
    {
      "midi": 55,
      "hit": false,
      "t": 166945.4569999983,
      "d": 240.58555833331775,
      "v": 54
    },
    {
      "midi": 64,
      "hit": false,
      "t": 166945.4569999983,
      "d": 261.50604166663834,
      "v": 42
    },
    {
      "midi": 69,
      "hit": false,
      "t": 166945.4569999983,
      "d": 271.9662833333132,
      "v": 70
    },
    {
      "midi": 72,
      "hit": false,
      "t": 166945.4569999983,
      "d": 271.9662833333132,
      "v": 64
    },
    {
      "midi": 76,
      "hit": false,
      "t": 166945.4569999983,
      "d": 271.9662833333132,
      "v": 67
    },
    {
      "midi": 69,
      "hit": false,
      "t": 167363.86666666495,
      "d": 219.66507499999716,
      "v": 61
    },
    {
      "midi": 72,
      "hit": false,
      "t": 167363.86666666495,
      "d": 219.66507499999716,
      "v": 63
    },
    {
      "midi": 55,
      "hit": false,
      "t": 167363.86666666495,
      "d": 240.58555833331775,
      "v": 47
    },
    {
      "midi": 76,
      "hit": false,
      "t": 167363.86666666495,
      "d": 251.0457999999926,
      "v": 59
    },
    {
      "midi": 60,
      "hit": false,
      "t": 167363.86666666495,
      "d": 271.9662833333132,
      "v": 51
    },
    {
      "midi": 64,
      "hit": false,
      "t": 167363.86666666495,
      "d": 303.3470083333086,
      "v": 49
    },
    {
      "midi": 76,
      "hit": false,
      "t": 167782.2763333316,
      "d": 209.2048333333223,
      "v": 56
    },
    {
      "midi": 55,
      "hit": false,
      "t": 167782.2763333316,
      "d": 240.58555833331775,
      "v": 51
    },
    {
      "midi": 69,
      "hit": false,
      "t": 167782.2763333316,
      "d": 240.58555833331775,
      "v": 70
    },
    {
      "midi": 72,
      "hit": false,
      "t": 167782.2763333316,
      "d": 240.58555833331775,
      "v": 64
    },
    {
      "midi": 60,
      "hit": false,
      "t": 167782.2763333316,
      "d": 261.50604166663834,
      "v": 43
    },
    {
      "midi": 64,
      "hit": false,
      "t": 167782.2763333316,
      "d": 282.42652499995893,
      "v": 51
    },
    {
      "midi": 72,
      "hit": false,
      "t": 168200.6859999982,
      "d": 230.125316666672,
      "v": 70
    },
    {
      "midi": 55,
      "hit": false,
      "t": 168200.6859999982,
      "d": 271.9662833333423,
      "v": 63
    },
    {
      "midi": 60,
      "hit": false,
      "t": 168200.6859999982,
      "d": 282.42652500001714,
      "v": 60
    },
    {
      "midi": 69,
      "hit": false,
      "t": 168200.6859999982,
      "d": 292.886766666692,
      "v": 62
    },
    {
      "midi": 76,
      "hit": false,
      "t": 168200.6859999982,
      "d": 292.886766666692,
      "v": 54
    },
    {
      "midi": 64,
      "hit": false,
      "t": 168200.6859999982,
      "d": 324.2674916666874,
      "v": 48
    },
    {
      "midi": 55,
      "hit": false,
      "t": 168619.09566666489,
      "d": 219.66507499999716,
      "v": 58
    },
    {
      "midi": 60,
      "hit": false,
      "t": 168619.09566666489,
      "d": 240.58555833331775,
      "v": 51
    },
    {
      "midi": 76,
      "hit": false,
      "t": 168619.09566666489,
      "d": 251.0457999999926,
      "v": 56
    },
    {
      "midi": 69,
      "hit": false,
      "t": 168619.09566666489,
      "d": 261.50604166666744,
      "v": 56
    },
    {
      "midi": 64,
      "hit": false,
      "t": 168619.09566666489,
      "d": 271.9662833333423,
      "v": 51
    },
    {
      "midi": 72,
      "hit": false,
      "t": 168619.09566666489,
      "d": 303.3470083333377,
      "v": 58
    },
    {
      "midi": 64,
      "hit": false,
      "t": 169037.50533333156,
      "d": 251.0457999999926,
      "v": 35
    },
    {
      "midi": 69,
      "hit": false,
      "t": 169037.50533333156,
      "d": 251.0457999999926,
      "v": 66
    },
    {
      "midi": 72,
      "hit": false,
      "t": 169037.50533333156,
      "d": 271.9662833333132,
      "v": 68
    },
    {
      "midi": 55,
      "hit": false,
      "t": 169037.50533333156,
      "d": 303.3470083333086,
      "v": 52
    },
    {
      "midi": 76,
      "hit": false,
      "t": 169037.50533333156,
      "d": 303.3470083333086,
      "v": 58
    },
    {
      "midi": 60,
      "hit": false,
      "t": 169037.50533333156,
      "d": 324.2674916666292,
      "v": 44
    },
    {
      "midi": 62,
      "hit": false,
      "t": 169455.91499999817,
      "d": 219.66507499999716,
      "v": 42
    },
    {
      "midi": 57,
      "hit": false,
      "t": 169455.91499999817,
      "d": 240.58555833331775,
      "v": 54
    },
    {
      "midi": 66,
      "hit": false,
      "t": 169455.91499999817,
      "d": 261.50604166663834,
      "v": 42
    },
    {
      "midi": 69,
      "hit": false,
      "t": 169455.91499999817,
      "d": 271.9662833333132,
      "v": 70
    },
    {
      "midi": 72,
      "hit": false,
      "t": 169455.91499999817,
      "d": 271.9662833333132,
      "v": 64
    },
    {
      "midi": 74,
      "hit": false,
      "t": 169455.91499999817,
      "d": 271.9662833333132,
      "v": 67
    },
    {
      "midi": 69,
      "hit": false,
      "t": 169874.32466666482,
      "d": 219.66507499999716,
      "v": 61
    },
    {
      "midi": 72,
      "hit": false,
      "t": 169874.32466666482,
      "d": 219.66507499999716,
      "v": 63
    },
    {
      "midi": 57,
      "hit": false,
      "t": 169874.32466666482,
      "d": 240.58555833331775,
      "v": 47
    },
    {
      "midi": 74,
      "hit": false,
      "t": 169874.32466666482,
      "d": 251.0457999999926,
      "v": 59
    },
    {
      "midi": 62,
      "hit": false,
      "t": 169874.32466666482,
      "d": 271.9662833333132,
      "v": 51
    },
    {
      "midi": 66,
      "hit": false,
      "t": 169874.32466666482,
      "d": 303.3470083333086,
      "v": 49
    },
    {
      "midi": 74,
      "hit": false,
      "t": 170292.73433333146,
      "d": 209.2048333333223,
      "v": 56
    },
    {
      "midi": 57,
      "hit": false,
      "t": 170292.73433333146,
      "d": 240.58555833331775,
      "v": 51
    },
    {
      "midi": 69,
      "hit": false,
      "t": 170292.73433333146,
      "d": 240.58555833331775,
      "v": 70
    },
    {
      "midi": 72,
      "hit": false,
      "t": 170292.73433333146,
      "d": 240.58555833331775,
      "v": 64
    },
    {
      "midi": 62,
      "hit": false,
      "t": 170292.73433333146,
      "d": 261.50604166663834,
      "v": 43
    },
    {
      "midi": 66,
      "hit": false,
      "t": 170292.73433333146,
      "d": 282.42652499995893,
      "v": 51
    },
    {
      "midi": 72,
      "hit": false,
      "t": 170711.14399999808,
      "d": 230.125316666672,
      "v": 70
    },
    {
      "midi": 57,
      "hit": false,
      "t": 170711.14399999808,
      "d": 271.9662833333423,
      "v": 63
    },
    {
      "midi": 62,
      "hit": false,
      "t": 170711.14399999808,
      "d": 282.42652500001714,
      "v": 60
    },
    {
      "midi": 69,
      "hit": false,
      "t": 170711.14399999808,
      "d": 292.886766666692,
      "v": 62
    },
    {
      "midi": 74,
      "hit": false,
      "t": 170711.14399999808,
      "d": 292.886766666692,
      "v": 54
    },
    {
      "midi": 66,
      "hit": false,
      "t": 170711.14399999808,
      "d": 324.2674916666874,
      "v": 48
    },
    {
      "midi": 57,
      "hit": false,
      "t": 171129.55366666475,
      "d": 219.66507499999716,
      "v": 58
    },
    {
      "midi": 62,
      "hit": false,
      "t": 171129.55366666475,
      "d": 240.58555833331775,
      "v": 51
    },
    {
      "midi": 74,
      "hit": false,
      "t": 171129.55366666475,
      "d": 251.0457999999926,
      "v": 56
    },
    {
      "midi": 69,
      "hit": false,
      "t": 171129.55366666475,
      "d": 261.50604166666744,
      "v": 56
    },
    {
      "midi": 66,
      "hit": false,
      "t": 171129.55366666475,
      "d": 271.9662833333423,
      "v": 51
    },
    {
      "midi": 72,
      "hit": false,
      "t": 171129.55366666475,
      "d": 303.3470083333377,
      "v": 58
    },
    {
      "midi": 66,
      "hit": false,
      "t": 171547.96333333143,
      "d": 251.0457999999926,
      "v": 35
    },
    {
      "midi": 69,
      "hit": false,
      "t": 171547.96333333143,
      "d": 251.0457999999926,
      "v": 66
    },
    {
      "midi": 72,
      "hit": false,
      "t": 171547.96333333143,
      "d": 271.9662833333132,
      "v": 68
    },
    {
      "midi": 57,
      "hit": false,
      "t": 171547.96333333143,
      "d": 303.3470083333086,
      "v": 52
    },
    {
      "midi": 74,
      "hit": false,
      "t": 171547.96333333143,
      "d": 303.3470083333086,
      "v": 58
    },
    {
      "midi": 62,
      "hit": false,
      "t": 171547.96333333143,
      "d": 324.2674916666292,
      "v": 44
    },
    {
      "midi": 59,
      "hit": false,
      "t": 171966.37299999804,
      "d": 219.66507499999716,
      "v": 42
    },
    {
      "midi": 55,
      "hit": false,
      "t": 171966.37299999804,
      "d": 240.58555833331775,
      "v": 54
    },
    {
      "midi": 62,
      "hit": false,
      "t": 171966.37299999804,
      "d": 261.50604166663834,
      "v": 42
    },
    {
      "midi": 67,
      "hit": false,
      "t": 171966.37299999804,
      "d": 271.9662833333132,
      "v": 70
    },
    {
      "midi": 71,
      "hit": false,
      "t": 171966.37299999804,
      "d": 271.9662833333132,
      "v": 66
    },
    {
      "midi": 74,
      "hit": false,
      "t": 171966.37299999804,
      "d": 271.9662833333132,
      "v": 67
    },
    {
      "midi": 67,
      "hit": false,
      "t": 172384.7826666647,
      "d": 219.66507499999716,
      "v": 61
    },
    {
      "midi": 71,
      "hit": false,
      "t": 172384.7826666647,
      "d": 219.66507499999716,
      "v": 63
    },
    {
      "midi": 55,
      "hit": false,
      "t": 172384.7826666647,
      "d": 240.58555833331775,
      "v": 47
    },
    {
      "midi": 74,
      "hit": false,
      "t": 172384.7826666647,
      "d": 251.0457999999926,
      "v": 66
    },
    {
      "midi": 59,
      "hit": false,
      "t": 172384.7826666647,
      "d": 271.9662833333132,
      "v": 51
    },
    {
      "midi": 62,
      "hit": false,
      "t": 172384.7826666647,
      "d": 303.3470083333086,
      "v": 49
    },
    {
      "midi": 74,
      "hit": false,
      "t": 172803.19233333133,
      "d": 209.2048333333223,
      "v": 56
    },
    {
      "midi": 55,
      "hit": false,
      "t": 172803.19233333133,
      "d": 240.58555833331775,
      "v": 51
    },
    {
      "midi": 67,
      "hit": false,
      "t": 172803.19233333133,
      "d": 240.58555833331775,
      "v": 70
    },
    {
      "midi": 71,
      "hit": false,
      "t": 172803.19233333133,
      "d": 240.58555833331775,
      "v": 64
    },
    {
      "midi": 59,
      "hit": false,
      "t": 172803.19233333133,
      "d": 261.50604166663834,
      "v": 43
    },
    {
      "midi": 62,
      "hit": false,
      "t": 172803.19233333133,
      "d": 282.42652499995893,
      "v": 51
    },
    {
      "midi": 71,
      "hit": false,
      "t": 173221.60199999795,
      "d": 230.125316666672,
      "v": 70
    },
    {
      "midi": 55,
      "hit": false,
      "t": 173221.60199999795,
      "d": 271.9662833333423,
      "v": 63
    },
    {
      "midi": 59,
      "hit": false,
      "t": 173221.60199999795,
      "d": 282.42652500001714,
      "v": 60
    },
    {
      "midi": 67,
      "hit": false,
      "t": 173221.60199999795,
      "d": 292.886766666692,
      "v": 62
    },
    {
      "midi": 74,
      "hit": false,
      "t": 173221.60199999795,
      "d": 292.886766666692,
      "v": 61
    },
    {
      "midi": 62,
      "hit": false,
      "t": 173221.60199999795,
      "d": 324.2674916666874,
      "v": 48
    },
    {
      "midi": 55,
      "hit": false,
      "t": 173640.01166666462,
      "d": 219.66507499999716,
      "v": 58
    },
    {
      "midi": 59,
      "hit": false,
      "t": 173640.01166666462,
      "d": 240.58555833331775,
      "v": 51
    },
    {
      "midi": 74,
      "hit": false,
      "t": 173640.01166666462,
      "d": 251.0457999999926,
      "v": 56
    },
    {
      "midi": 67,
      "hit": false,
      "t": 173640.01166666462,
      "d": 261.50604166666744,
      "v": 56
    },
    {
      "midi": 62,
      "hit": false,
      "t": 173640.01166666462,
      "d": 271.9662833333423,
      "v": 51
    },
    {
      "midi": 71,
      "hit": false,
      "t": 173640.01166666462,
      "d": 303.3470083333377,
      "v": 58
    },
    {
      "midi": 74,
      "hit": false,
      "t": 174058.4213333313,
      "d": 219.66507499999716,
      "v": 58
    },
    {
      "midi": 67,
      "hit": false,
      "t": 174058.4213333313,
      "d": 251.0457999999926,
      "v": 66
    },
    {
      "midi": 62,
      "hit": false,
      "t": 174058.4213333313,
      "d": 271.9662833333132,
      "v": 35
    },
    {
      "midi": 71,
      "hit": false,
      "t": 174058.4213333313,
      "d": 271.9662833333132,
      "v": 68
    },
    {
      "midi": 55,
      "hit": false,
      "t": 174058.4213333313,
      "d": 303.3470083333086,
      "v": 52
    },
    {
      "midi": 59,
      "hit": false,
      "t": 174058.4213333313,
      "d": 324.2674916666292,
      "v": 44
    },
    {
      "midi": 59,
      "hit": false,
      "t": 174476.8309999979,
      "d": 219.66507499999716,
      "v": 42
    },
    {
      "midi": 55,
      "hit": false,
      "t": 174476.8309999979,
      "d": 240.58555833331775,
      "v": 54
    },
    {
      "midi": 64,
      "hit": false,
      "t": 174476.8309999979,
      "d": 261.50604166663834,
      "v": 42
    },
    {
      "midi": 67,
      "hit": false,
      "t": 174476.8309999979,
      "d": 271.9662833333132,
      "v": 70
    },
    {
      "midi": 71,
      "hit": false,
      "t": 174476.8309999979,
      "d": 271.9662833333132,
      "v": 64
    },
    {
      "midi": 76,
      "hit": false,
      "t": 174476.8309999979,
      "d": 271.9662833333132,
      "v": 67
    },
    {
      "midi": 67,
      "hit": false,
      "t": 174895.24066666455,
      "d": 219.66507499999716,
      "v": 61
    },
    {
      "midi": 71,
      "hit": false,
      "t": 174895.24066666455,
      "d": 219.66507499999716,
      "v": 63
    },
    {
      "midi": 55,
      "hit": false,
      "t": 174895.24066666455,
      "d": 240.58555833331775,
      "v": 47
    },
    {
      "midi": 76,
      "hit": false,
      "t": 174895.24066666455,
      "d": 251.0457999999926,
      "v": 59
    },
    {
      "midi": 59,
      "hit": false,
      "t": 174895.24066666455,
      "d": 271.9662833333132,
      "v": 51
    },
    {
      "midi": 64,
      "hit": false,
      "t": 174895.24066666455,
      "d": 303.3470083333086,
      "v": 49
    },
    {
      "midi": 76,
      "hit": false,
      "t": 175313.6503333312,
      "d": 209.2048333333223,
      "v": 56
    },
    {
      "midi": 55,
      "hit": false,
      "t": 175313.6503333312,
      "d": 240.58555833331775,
      "v": 51
    },
    {
      "midi": 67,
      "hit": false,
      "t": 175313.6503333312,
      "d": 240.58555833331775,
      "v": 70
    },
    {
      "midi": 71,
      "hit": false,
      "t": 175313.6503333312,
      "d": 240.58555833331775,
      "v": 64
    },
    {
      "midi": 59,
      "hit": false,
      "t": 175313.6503333312,
      "d": 261.50604166663834,
      "v": 43
    },
    {
      "midi": 64,
      "hit": false,
      "t": 175313.6503333312,
      "d": 282.42652499995893,
      "v": 51
    },
    {
      "midi": 71,
      "hit": false,
      "t": 175732.05999999781,
      "d": 230.125316666672,
      "v": 70
    },
    {
      "midi": 55,
      "hit": false,
      "t": 175732.05999999781,
      "d": 271.9662833333423,
      "v": 63
    },
    {
      "midi": 59,
      "hit": false,
      "t": 175732.05999999781,
      "d": 282.42652500001714,
      "v": 60
    },
    {
      "midi": 67,
      "hit": false,
      "t": 175732.05999999781,
      "d": 292.886766666692,
      "v": 62
    },
    {
      "midi": 76,
      "hit": false,
      "t": 175732.05999999781,
      "d": 292.886766666692,
      "v": 54
    },
    {
      "midi": 64,
      "hit": false,
      "t": 175732.05999999781,
      "d": 324.2674916666874,
      "v": 48
    },
    {
      "midi": 55,
      "hit": false,
      "t": 176150.4696666645,
      "d": 219.66507499999716,
      "v": 58
    },
    {
      "midi": 59,
      "hit": false,
      "t": 176150.4696666645,
      "d": 240.58555833331775,
      "v": 51
    },
    {
      "midi": 76,
      "hit": false,
      "t": 176150.4696666645,
      "d": 251.0457999999926,
      "v": 56
    },
    {
      "midi": 67,
      "hit": false,
      "t": 176150.4696666645,
      "d": 261.50604166666744,
      "v": 56
    },
    {
      "midi": 64,
      "hit": false,
      "t": 176150.4696666645,
      "d": 271.9662833333423,
      "v": 51
    },
    {
      "midi": 71,
      "hit": false,
      "t": 176150.4696666645,
      "d": 303.3470083333377,
      "v": 58
    },
    {
      "midi": 64,
      "hit": false,
      "t": 176568.87933333116,
      "d": 251.0457999999926,
      "v": 35
    },
    {
      "midi": 67,
      "hit": false,
      "t": 176568.87933333116,
      "d": 251.0457999999926,
      "v": 66
    },
    {
      "midi": 71,
      "hit": false,
      "t": 176568.87933333116,
      "d": 271.9662833333132,
      "v": 68
    },
    {
      "midi": 55,
      "hit": false,
      "t": 176568.87933333116,
      "d": 303.3470083333086,
      "v": 52
    },
    {
      "midi": 76,
      "hit": false,
      "t": 176568.87933333116,
      "d": 303.3470083333086,
      "v": 58
    },
    {
      "midi": 59,
      "hit": false,
      "t": 176568.87933333116,
      "d": 324.2674916666292,
      "v": 44
    },
    {
      "midi": 60,
      "hit": false,
      "t": 176987.28899999778,
      "d": 219.66507499999716,
      "v": 42
    },
    {
      "midi": 55,
      "hit": false,
      "t": 176987.28899999778,
      "d": 240.58555833331775,
      "v": 54
    },
    {
      "midi": 64,
      "hit": false,
      "t": 176987.28899999778,
      "d": 261.50604166663834,
      "v": 42
    },
    {
      "midi": 69,
      "hit": false,
      "t": 176987.28899999778,
      "d": 271.9662833333132,
      "v": 70
    },
    {
      "midi": 72,
      "hit": false,
      "t": 176987.28899999778,
      "d": 271.9662833333132,
      "v": 64
    },
    {
      "midi": 76,
      "hit": false,
      "t": 176987.28899999778,
      "d": 271.9662833333132,
      "v": 67
    },
    {
      "midi": 69,
      "hit": false,
      "t": 177405.69866666442,
      "d": 219.66507499999716,
      "v": 61
    },
    {
      "midi": 72,
      "hit": false,
      "t": 177405.69866666442,
      "d": 219.66507499999716,
      "v": 63
    },
    {
      "midi": 55,
      "hit": false,
      "t": 177405.69866666442,
      "d": 240.58555833331775,
      "v": 47
    },
    {
      "midi": 76,
      "hit": false,
      "t": 177405.69866666442,
      "d": 251.0457999999926,
      "v": 59
    },
    {
      "midi": 60,
      "hit": false,
      "t": 177405.69866666442,
      "d": 271.9662833333132,
      "v": 51
    },
    {
      "midi": 64,
      "hit": false,
      "t": 177405.69866666442,
      "d": 303.3470083333086,
      "v": 49
    },
    {
      "midi": 76,
      "hit": false,
      "t": 177824.10833333107,
      "d": 209.2048333333223,
      "v": 56
    },
    {
      "midi": 55,
      "hit": false,
      "t": 177824.10833333107,
      "d": 240.58555833331775,
      "v": 51
    },
    {
      "midi": 69,
      "hit": false,
      "t": 177824.10833333107,
      "d": 240.58555833331775,
      "v": 70
    },
    {
      "midi": 72,
      "hit": false,
      "t": 177824.10833333107,
      "d": 240.58555833331775,
      "v": 64
    },
    {
      "midi": 60,
      "hit": false,
      "t": 177824.10833333107,
      "d": 261.50604166663834,
      "v": 43
    },
    {
      "midi": 64,
      "hit": false,
      "t": 177824.10833333107,
      "d": 282.42652499995893,
      "v": 51
    },
    {
      "midi": 72,
      "hit": false,
      "t": 178242.51799999768,
      "d": 230.125316666672,
      "v": 70
    },
    {
      "midi": 55,
      "hit": false,
      "t": 178242.51799999768,
      "d": 271.9662833333423,
      "v": 63
    },
    {
      "midi": 60,
      "hit": false,
      "t": 178242.51799999768,
      "d": 282.42652500001714,
      "v": 60
    },
    {
      "midi": 69,
      "hit": false,
      "t": 178242.51799999768,
      "d": 292.886766666692,
      "v": 62
    },
    {
      "midi": 76,
      "hit": false,
      "t": 178242.51799999768,
      "d": 292.886766666692,
      "v": 54
    },
    {
      "midi": 64,
      "hit": false,
      "t": 178242.51799999768,
      "d": 324.2674916666874,
      "v": 48
    },
    {
      "midi": 55,
      "hit": false,
      "t": 178660.92766666436,
      "d": 219.66507499999716,
      "v": 58
    },
    {
      "midi": 60,
      "hit": false,
      "t": 178660.92766666436,
      "d": 240.58555833331775,
      "v": 51
    },
    {
      "midi": 76,
      "hit": false,
      "t": 178660.92766666436,
      "d": 251.0457999999926,
      "v": 56
    },
    {
      "midi": 69,
      "hit": false,
      "t": 178660.92766666436,
      "d": 261.50604166666744,
      "v": 56
    },
    {
      "midi": 64,
      "hit": false,
      "t": 178660.92766666436,
      "d": 271.9662833333423,
      "v": 51
    },
    {
      "midi": 72,
      "hit": false,
      "t": 178660.92766666436,
      "d": 303.3470083333377,
      "v": 58
    },
    {
      "midi": 64,
      "hit": false,
      "t": 179079.33733333103,
      "d": 251.0457999999926,
      "v": 35
    },
    {
      "midi": 69,
      "hit": false,
      "t": 179079.33733333103,
      "d": 251.0457999999926,
      "v": 66
    },
    {
      "midi": 72,
      "hit": false,
      "t": 179079.33733333103,
      "d": 271.9662833333132,
      "v": 68
    },
    {
      "midi": 55,
      "hit": false,
      "t": 179079.33733333103,
      "d": 303.3470083333086,
      "v": 52
    },
    {
      "midi": 76,
      "hit": false,
      "t": 179079.33733333103,
      "d": 303.3470083333086,
      "v": 58
    },
    {
      "midi": 60,
      "hit": false,
      "t": 179079.33733333103,
      "d": 324.2674916666292,
      "v": 44
    },
    {
      "midi": 62,
      "hit": false,
      "t": 179497.74699999765,
      "d": 219.66507499999716,
      "v": 42
    },
    {
      "midi": 57,
      "hit": false,
      "t": 179497.74699999765,
      "d": 240.58555833331775,
      "v": 54
    },
    {
      "midi": 66,
      "hit": false,
      "t": 179497.74699999765,
      "d": 261.50604166663834,
      "v": 42
    },
    {
      "midi": 69,
      "hit": false,
      "t": 179497.74699999765,
      "d": 271.9662833333132,
      "v": 70
    },
    {
      "midi": 72,
      "hit": false,
      "t": 179497.74699999765,
      "d": 271.9662833333132,
      "v": 64
    },
    {
      "midi": 74,
      "hit": false,
      "t": 179497.74699999765,
      "d": 271.9662833333132,
      "v": 67
    },
    {
      "midi": 69,
      "hit": false,
      "t": 179916.1566666643,
      "d": 219.66507499999716,
      "v": 61
    },
    {
      "midi": 72,
      "hit": false,
      "t": 179916.1566666643,
      "d": 219.66507499999716,
      "v": 63
    },
    {
      "midi": 57,
      "hit": false,
      "t": 179916.1566666643,
      "d": 240.58555833331775,
      "v": 47
    },
    {
      "midi": 74,
      "hit": false,
      "t": 179916.1566666643,
      "d": 251.0457999999926,
      "v": 59
    },
    {
      "midi": 62,
      "hit": false,
      "t": 179916.1566666643,
      "d": 271.9662833333132,
      "v": 51
    },
    {
      "midi": 66,
      "hit": false,
      "t": 179916.1566666643,
      "d": 303.3470083333086,
      "v": 49
    },
    {
      "midi": 74,
      "hit": false,
      "t": 180334.56633333093,
      "d": 209.2048333333223,
      "v": 56
    },
    {
      "midi": 57,
      "hit": false,
      "t": 180334.56633333093,
      "d": 240.58555833331775,
      "v": 51
    },
    {
      "midi": 69,
      "hit": false,
      "t": 180334.56633333093,
      "d": 240.58555833331775,
      "v": 70
    },
    {
      "midi": 72,
      "hit": false,
      "t": 180334.56633333093,
      "d": 240.58555833331775,
      "v": 64
    },
    {
      "midi": 62,
      "hit": false,
      "t": 180334.56633333093,
      "d": 261.50604166663834,
      "v": 43
    },
    {
      "midi": 66,
      "hit": false,
      "t": 180334.56633333093,
      "d": 282.42652499995893,
      "v": 51
    },
    {
      "midi": 72,
      "hit": false,
      "t": 180752.97599999755,
      "d": 230.125316666672,
      "v": 70
    },
    {
      "midi": 57,
      "hit": false,
      "t": 180752.97599999755,
      "d": 271.9662833333423,
      "v": 63
    },
    {
      "midi": 62,
      "hit": false,
      "t": 180752.97599999755,
      "d": 282.42652500001714,
      "v": 60
    },
    {
      "midi": 69,
      "hit": false,
      "t": 180752.97599999755,
      "d": 292.886766666692,
      "v": 62
    },
    {
      "midi": 74,
      "hit": false,
      "t": 180752.97599999755,
      "d": 292.886766666692,
      "v": 54
    },
    {
      "midi": 66,
      "hit": false,
      "t": 180752.97599999755,
      "d": 324.2674916666874,
      "v": 48
    },
    {
      "midi": 57,
      "hit": false,
      "t": 181171.38566666422,
      "d": 219.66507499999716,
      "v": 58
    },
    {
      "midi": 62,
      "hit": false,
      "t": 181171.38566666422,
      "d": 240.58555833331775,
      "v": 51
    },
    {
      "midi": 74,
      "hit": false,
      "t": 181171.38566666422,
      "d": 251.0457999999926,
      "v": 56
    },
    {
      "midi": 69,
      "hit": false,
      "t": 181171.38566666422,
      "d": 261.50604166666744,
      "v": 56
    },
    {
      "midi": 66,
      "hit": false,
      "t": 181171.38566666422,
      "d": 271.9662833333423,
      "v": 51
    },
    {
      "midi": 72,
      "hit": false,
      "t": 181171.38566666422,
      "d": 303.3470083333377,
      "v": 58
    },
    {
      "midi": 66,
      "hit": false,
      "t": 181589.7953333309,
      "d": 251.0457999999926,
      "v": 35
    },
    {
      "midi": 69,
      "hit": false,
      "t": 181589.7953333309,
      "d": 251.0457999999926,
      "v": 66
    },
    {
      "midi": 72,
      "hit": false,
      "t": 181589.7953333309,
      "d": 271.9662833333132,
      "v": 68
    },
    {
      "midi": 57,
      "hit": false,
      "t": 181589.7953333309,
      "d": 303.3470083333086,
      "v": 52
    },
    {
      "midi": 74,
      "hit": false,
      "t": 181589.7953333309,
      "d": 303.3470083333086,
      "v": 58
    },
    {
      "midi": 62,
      "hit": false,
      "t": 181589.7953333309,
      "d": 324.2674916666292,
      "v": 44
    },
    {
      "midi": 59,
      "hit": false,
      "t": 182008.2049999975,
      "d": 219.66507499999716,
      "v": 42
    },
    {
      "midi": 55,
      "hit": false,
      "t": 182008.2049999975,
      "d": 240.58555833331775,
      "v": 54
    },
    {
      "midi": 62,
      "hit": false,
      "t": 182008.2049999975,
      "d": 261.50604166663834,
      "v": 42
    },
    {
      "midi": 67,
      "hit": false,
      "t": 182008.2049999975,
      "d": 271.9662833333132,
      "v": 70
    },
    {
      "midi": 71,
      "hit": false,
      "t": 182008.2049999975,
      "d": 271.9662833333132,
      "v": 66
    },
    {
      "midi": 74,
      "hit": false,
      "t": 182008.2049999975,
      "d": 271.9662833333132,
      "v": 67
    },
    {
      "midi": 67,
      "hit": false,
      "t": 182426.61466666416,
      "d": 219.66507499999716,
      "v": 61
    },
    {
      "midi": 71,
      "hit": false,
      "t": 182426.61466666416,
      "d": 219.66507499999716,
      "v": 63
    },
    {
      "midi": 55,
      "hit": false,
      "t": 182426.61466666416,
      "d": 240.58555833331775,
      "v": 47
    },
    {
      "midi": 74,
      "hit": false,
      "t": 182426.61466666416,
      "d": 251.0457999999926,
      "v": 66
    },
    {
      "midi": 59,
      "hit": false,
      "t": 182426.61466666416,
      "d": 271.9662833333132,
      "v": 51
    },
    {
      "midi": 62,
      "hit": false,
      "t": 182426.61466666416,
      "d": 303.3470083333086,
      "v": 49
    },
    {
      "midi": 74,
      "hit": false,
      "t": 182845.0243333308,
      "d": 209.2048333333223,
      "v": 56
    },
    {
      "midi": 55,
      "hit": false,
      "t": 182845.0243333308,
      "d": 240.58555833331775,
      "v": 51
    },
    {
      "midi": 67,
      "hit": false,
      "t": 182845.0243333308,
      "d": 240.58555833331775,
      "v": 70
    },
    {
      "midi": 71,
      "hit": false,
      "t": 182845.0243333308,
      "d": 240.58555833331775,
      "v": 64
    },
    {
      "midi": 59,
      "hit": false,
      "t": 182845.0243333308,
      "d": 261.50604166663834,
      "v": 43
    },
    {
      "midi": 62,
      "hit": false,
      "t": 182845.0243333308,
      "d": 282.42652499995893,
      "v": 51
    },
    {
      "midi": 71,
      "hit": false,
      "t": 183263.43399999742,
      "d": 230.125316666672,
      "v": 70
    },
    {
      "midi": 55,
      "hit": false,
      "t": 183263.43399999742,
      "d": 271.9662833333423,
      "v": 63
    },
    {
      "midi": 59,
      "hit": false,
      "t": 183263.43399999742,
      "d": 282.42652500001714,
      "v": 60
    },
    {
      "midi": 67,
      "hit": false,
      "t": 183263.43399999742,
      "d": 292.886766666692,
      "v": 62
    },
    {
      "midi": 74,
      "hit": false,
      "t": 183263.43399999742,
      "d": 292.886766666692,
      "v": 61
    },
    {
      "midi": 62,
      "hit": false,
      "t": 183263.43399999742,
      "d": 324.2674916666874,
      "v": 48
    },
    {
      "midi": 55,
      "hit": false,
      "t": 183681.8436666641,
      "d": 219.66507499999716,
      "v": 58
    },
    {
      "midi": 59,
      "hit": false,
      "t": 183681.8436666641,
      "d": 240.58555833331775,
      "v": 51
    },
    {
      "midi": 74,
      "hit": false,
      "t": 183681.8436666641,
      "d": 251.0457999999926,
      "v": 56
    },
    {
      "midi": 67,
      "hit": false,
      "t": 183681.8436666641,
      "d": 261.50604166666744,
      "v": 56
    },
    {
      "midi": 62,
      "hit": false,
      "t": 183681.8436666641,
      "d": 271.9662833333423,
      "v": 51
    },
    {
      "midi": 71,
      "hit": false,
      "t": 183681.8436666641,
      "d": 303.3470083333377,
      "v": 58
    },
    {
      "midi": 74,
      "hit": false,
      "t": 184100.25333333077,
      "d": 219.66507499999716,
      "v": 58
    },
    {
      "midi": 67,
      "hit": false,
      "t": 184100.25333333077,
      "d": 251.0457999999926,
      "v": 66
    },
    {
      "midi": 62,
      "hit": false,
      "t": 184100.25333333077,
      "d": 271.9662833333132,
      "v": 35
    },
    {
      "midi": 71,
      "hit": false,
      "t": 184100.25333333077,
      "d": 271.9662833333132,
      "v": 68
    },
    {
      "midi": 55,
      "hit": false,
      "t": 184100.25333333077,
      "d": 303.3470083333086,
      "v": 52
    },
    {
      "midi": 59,
      "hit": false,
      "t": 184100.25333333077,
      "d": 324.2674916666292,
      "v": 44
    },
    {
      "midi": 59,
      "hit": false,
      "t": 184518.66299999738,
      "d": 219.66507499999716,
      "v": 42
    },
    {
      "midi": 55,
      "hit": false,
      "t": 184518.66299999738,
      "d": 240.58555833331775,
      "v": 54
    },
    {
      "midi": 62,
      "hit": false,
      "t": 184518.66299999738,
      "d": 261.50604166663834,
      "v": 42
    },
    {
      "midi": 67,
      "hit": false,
      "t": 184518.66299999738,
      "d": 271.9662833333132,
      "v": 70
    },
    {
      "midi": 71,
      "hit": false,
      "t": 184518.66299999738,
      "d": 271.9662833333132,
      "v": 66
    },
    {
      "midi": 74,
      "hit": false,
      "t": 184518.66299999738,
      "d": 271.9662833333132,
      "v": 67
    },
    {
      "midi": 67,
      "hit": false,
      "t": 184937.07266666403,
      "d": 219.66507499999716,
      "v": 61
    },
    {
      "midi": 71,
      "hit": false,
      "t": 184937.07266666403,
      "d": 219.66507499999716,
      "v": 63
    },
    {
      "midi": 55,
      "hit": false,
      "t": 184937.07266666403,
      "d": 240.58555833331775,
      "v": 47
    },
    {
      "midi": 74,
      "hit": false,
      "t": 184937.07266666403,
      "d": 251.0457999999926,
      "v": 66
    },
    {
      "midi": 59,
      "hit": false,
      "t": 184937.07266666403,
      "d": 271.9662833333132,
      "v": 51
    },
    {
      "midi": 62,
      "hit": false,
      "t": 184937.07266666403,
      "d": 303.3470083333086,
      "v": 49
    },
    {
      "midi": 74,
      "hit": false,
      "t": 185355.48233333067,
      "d": 209.2048333333223,
      "v": 56
    },
    {
      "midi": 55,
      "hit": false,
      "t": 185355.48233333067,
      "d": 240.58555833331775,
      "v": 51
    },
    {
      "midi": 67,
      "hit": false,
      "t": 185355.48233333067,
      "d": 240.58555833331775,
      "v": 70
    },
    {
      "midi": 71,
      "hit": false,
      "t": 185355.48233333067,
      "d": 240.58555833331775,
      "v": 64
    },
    {
      "midi": 59,
      "hit": false,
      "t": 185355.48233333067,
      "d": 261.50604166663834,
      "v": 43
    },
    {
      "midi": 62,
      "hit": false,
      "t": 185355.48233333067,
      "d": 282.42652499995893,
      "v": 51
    },
    {
      "midi": 71,
      "hit": false,
      "t": 185773.8919999973,
      "d": 230.125316666672,
      "v": 70
    },
    {
      "midi": 55,
      "hit": false,
      "t": 185773.8919999973,
      "d": 271.9662833333423,
      "v": 63
    },
    {
      "midi": 59,
      "hit": false,
      "t": 185773.8919999973,
      "d": 282.42652500001714,
      "v": 60
    },
    {
      "midi": 67,
      "hit": false,
      "t": 185773.8919999973,
      "d": 292.886766666692,
      "v": 62
    },
    {
      "midi": 74,
      "hit": false,
      "t": 185773.8919999973,
      "d": 292.886766666692,
      "v": 61
    },
    {
      "midi": 62,
      "hit": false,
      "t": 185773.8919999973,
      "d": 324.2674916666874,
      "v": 48
    },
    {
      "midi": 55,
      "hit": false,
      "t": 186192.30166666396,
      "d": 219.66507499999716,
      "v": 58
    },
    {
      "midi": 59,
      "hit": false,
      "t": 186192.30166666396,
      "d": 240.58555833331775,
      "v": 51
    },
    {
      "midi": 74,
      "hit": false,
      "t": 186192.30166666396,
      "d": 251.0457999999926,
      "v": 56
    },
    {
      "midi": 67,
      "hit": false,
      "t": 186192.30166666396,
      "d": 261.50604166666744,
      "v": 56
    },
    {
      "midi": 62,
      "hit": false,
      "t": 186192.30166666396,
      "d": 271.9662833333423,
      "v": 51
    },
    {
      "midi": 71,
      "hit": false,
      "t": 186192.30166666396,
      "d": 303.3470083333377,
      "v": 58
    },
    {
      "midi": 74,
      "hit": false,
      "t": 186610.71133333063,
      "d": 219.66507499999716,
      "v": 58
    },
    {
      "midi": 67,
      "hit": false,
      "t": 186610.71133333063,
      "d": 251.0457999999926,
      "v": 66
    },
    {
      "midi": 62,
      "hit": false,
      "t": 186610.71133333063,
      "d": 271.9662833333132,
      "v": 35
    },
    {
      "midi": 71,
      "hit": false,
      "t": 186610.71133333063,
      "d": 271.9662833333132,
      "v": 68
    },
    {
      "midi": 55,
      "hit": false,
      "t": 186610.71133333063,
      "d": 303.3470083333086,
      "v": 52
    },
    {
      "midi": 59,
      "hit": false,
      "t": 186610.71133333063,
      "d": 324.2674916666292,
      "v": 44
    },
    {
      "midi": 61,
      "hit": false,
      "t": 187029.12099999725,
      "d": 219.66507499999716,
      "v": 42
    },
    {
      "midi": 58,
      "hit": false,
      "t": 187029.12099999725,
      "d": 240.58555833331775,
      "v": 54
    },
    {
      "midi": 63,
      "hit": false,
      "t": 187029.12099999725,
      "d": 261.50604166663834,
      "v": 42
    },
    {
      "midi": 67,
      "hit": false,
      "t": 187029.12099999725,
      "d": 271.9662833333132,
      "v": 70
    },
    {
      "midi": 70,
      "hit": false,
      "t": 187029.12099999725,
      "d": 271.9662833333132,
      "v": 66
    },
    {
      "midi": 75,
      "hit": false,
      "t": 187029.12099999725,
      "d": 271.9662833333132,
      "v": 67
    },
    {
      "midi": 67,
      "hit": false,
      "t": 187447.5306666639,
      "d": 219.66507499999716,
      "v": 61
    },
    {
      "midi": 70,
      "hit": false,
      "t": 187447.5306666639,
      "d": 219.66507499999716,
      "v": 63
    },
    {
      "midi": 58,
      "hit": false,
      "t": 187447.5306666639,
      "d": 240.58555833331775,
      "v": 47
    },
    {
      "midi": 75,
      "hit": false,
      "t": 187447.5306666639,
      "d": 251.0457999999926,
      "v": 66
    },
    {
      "midi": 61,
      "hit": false,
      "t": 187447.5306666639,
      "d": 271.9662833333132,
      "v": 51
    },
    {
      "midi": 63,
      "hit": false,
      "t": 187447.5306666639,
      "d": 303.3470083333086,
      "v": 49
    },
    {
      "midi": 75,
      "hit": false,
      "t": 187865.94033333054,
      "d": 209.2048333333223,
      "v": 56
    },
    {
      "midi": 58,
      "hit": false,
      "t": 187865.94033333054,
      "d": 240.58555833331775,
      "v": 51
    },
    {
      "midi": 67,
      "hit": false,
      "t": 187865.94033333054,
      "d": 240.58555833331775,
      "v": 70
    },
    {
      "midi": 70,
      "hit": false,
      "t": 187865.94033333054,
      "d": 240.58555833331775,
      "v": 64
    },
    {
      "midi": 61,
      "hit": false,
      "t": 187865.94033333054,
      "d": 261.50604166663834,
      "v": 43
    },
    {
      "midi": 63,
      "hit": false,
      "t": 187865.94033333054,
      "d": 282.42652499995893,
      "v": 51
    },
    {
      "midi": 70,
      "hit": false,
      "t": 188284.34999999715,
      "d": 230.125316666672,
      "v": 70
    },
    {
      "midi": 58,
      "hit": false,
      "t": 188284.34999999715,
      "d": 271.9662833333423,
      "v": 63
    },
    {
      "midi": 61,
      "hit": false,
      "t": 188284.34999999715,
      "d": 282.42652500001714,
      "v": 60
    },
    {
      "midi": 67,
      "hit": false,
      "t": 188284.34999999715,
      "d": 292.886766666692,
      "v": 62
    },
    {
      "midi": 75,
      "hit": false,
      "t": 188284.34999999715,
      "d": 292.886766666692,
      "v": 61
    },
    {
      "midi": 63,
      "hit": false,
      "t": 188284.34999999715,
      "d": 324.2674916666874,
      "v": 48
    },
    {
      "midi": 58,
      "hit": false,
      "t": 188702.75966666383,
      "d": 219.66507499999716,
      "v": 58
    },
    {
      "midi": 61,
      "hit": false,
      "t": 188702.75966666383,
      "d": 240.58555833331775,
      "v": 51
    },
    {
      "midi": 75,
      "hit": false,
      "t": 188702.75966666383,
      "d": 251.0457999999926,
      "v": 56
    },
    {
      "midi": 67,
      "hit": false,
      "t": 188702.75966666383,
      "d": 261.50604166666744,
      "v": 56
    },
    {
      "midi": 63,
      "hit": false,
      "t": 188702.75966666383,
      "d": 271.9662833333423,
      "v": 51
    },
    {
      "midi": 70,
      "hit": false,
      "t": 188702.75966666383,
      "d": 303.3470083333377,
      "v": 58
    },
    {
      "midi": 75,
      "hit": false,
      "t": 189121.1693333305,
      "d": 219.66507499999716,
      "v": 58
    },
    {
      "midi": 67,
      "hit": false,
      "t": 189121.1693333305,
      "d": 251.0457999999926,
      "v": 66
    },
    {
      "midi": 63,
      "hit": false,
      "t": 189121.1693333305,
      "d": 271.9662833333132,
      "v": 35
    },
    {
      "midi": 70,
      "hit": false,
      "t": 189121.1693333305,
      "d": 271.9662833333132,
      "v": 68
    },
    {
      "midi": 58,
      "hit": false,
      "t": 189121.1693333305,
      "d": 303.3470083333086,
      "v": 52
    },
    {
      "midi": 61,
      "hit": false,
      "t": 189121.1693333305,
      "d": 324.2674916666292,
      "v": 44
    },
    {
      "midi": 61,
      "hit": false,
      "t": 189539.57899999712,
      "d": 523.0120833333349,
      "v": 42
    },
    {
      "midi": 58,
      "hit": false,
      "t": 189539.57899999712,
      "d": 575.31329166668,
      "v": 54
    },
    {
      "midi": 63,
      "hit": false,
      "t": 189539.57899999712,
      "d": 638.0747416666709,
      "v": 42
    },
    {
      "midi": 67,
      "hit": false,
      "t": 189539.57899999712,
      "d": 658.9952249999915,
      "v": 70
    },
    {
      "midi": 70,
      "hit": false,
      "t": 189539.57899999712,
      "d": 658.9952249999915,
      "v": 66
    },
    {
      "midi": 75,
      "hit": false,
      "t": 189539.57899999712,
      "d": 658.9952249999915,
      "v": 67
    },
    {
      "midi": 75,
      "hit": false,
      "t": 190376.39833333043,
      "d": 543.9325666666555,
      "v": 56
    },
    {
      "midi": 58,
      "hit": false,
      "t": 190376.39833333043,
      "d": 638.0747416666418,
      "v": 51
    },
    {
      "midi": 67,
      "hit": false,
      "t": 190376.39833333043,
      "d": 638.0747416666418,
      "v": 70
    },
    {
      "midi": 70,
      "hit": false,
      "t": 190376.39833333043,
      "d": 638.0747416666418,
      "v": 64
    },
    {
      "midi": 61,
      "hit": false,
      "t": 190376.39833333043,
      "d": 700.8361916666327,
      "v": 43
    },
    {
      "midi": 63,
      "hit": false,
      "t": 190376.39833333043,
      "d": 732.2169166666281,
      "v": 51
    },
    {
      "midi": 75,
      "hit": false,
      "t": 191213.21766666372,
      "d": 596.2337750000006,
      "v": 56
    },
    {
      "midi": 67,
      "hit": false,
      "t": 191213.21766666372,
      "d": 638.0747416666709,
      "v": 56
    },
    {
      "midi": 63,
      "hit": false,
      "t": 191213.21766666372,
      "d": 658.9952249999915,
      "v": 51
    },
    {
      "midi": 61,
      "hit": false,
      "t": 191213.21766666372,
      "d": 679.9157083333121,
      "v": 51
    },
    {
      "midi": 58,
      "hit": false,
      "t": 191213.21766666372,
      "d": 721.7566749999824,
      "v": 58
    },
    {
      "midi": 70,
      "hit": false,
      "t": 191213.21766666372,
      "d": 721.7566749999824,
      "v": 71
    },
    {
      "midi": 60,
      "hit": false,
      "t": 192050.03699999704,
      "d": 219.66507499999716,
      "v": 42
    },
    {
      "midi": 56,
      "hit": false,
      "t": 192050.03699999704,
      "d": 240.58555833331775,
      "v": 54
    },
    {
      "midi": 63,
      "hit": false,
      "t": 192050.03699999704,
      "d": 261.50604166663834,
      "v": 42
    },
    {
      "midi": 68,
      "hit": false,
      "t": 192050.03699999704,
      "d": 271.9662833333132,
      "v": 70
    },
    {
      "midi": 72,
      "hit": false,
      "t": 192050.03699999704,
      "d": 271.9662833333132,
      "v": 66
    },
    {
      "midi": 75,
      "hit": false,
      "t": 192050.03699999704,
      "d": 271.9662833333132,
      "v": 67
    },
    {
      "midi": 68,
      "hit": false,
      "t": 192468.4466666637,
      "d": 219.66507499999716,
      "v": 61
    },
    {
      "midi": 72,
      "hit": false,
      "t": 192468.4466666637,
      "d": 219.66507499999716,
      "v": 63
    },
    {
      "midi": 56,
      "hit": false,
      "t": 192468.4466666637,
      "d": 240.58555833331775,
      "v": 47
    },
    {
      "midi": 75,
      "hit": false,
      "t": 192468.4466666637,
      "d": 251.0457999999926,
      "v": 66
    },
    {
      "midi": 60,
      "hit": false,
      "t": 192468.4466666637,
      "d": 271.9662833333132,
      "v": 51
    },
    {
      "midi": 63,
      "hit": false,
      "t": 192468.4466666637,
      "d": 303.3470083333086,
      "v": 49
    },
    {
      "midi": 75,
      "hit": false,
      "t": 192886.85633333033,
      "d": 209.2048333333223,
      "v": 56
    },
    {
      "midi": 56,
      "hit": false,
      "t": 192886.85633333033,
      "d": 240.58555833331775,
      "v": 51
    },
    {
      "midi": 68,
      "hit": false,
      "t": 192886.85633333033,
      "d": 240.58555833331775,
      "v": 70
    },
    {
      "midi": 72,
      "hit": false,
      "t": 192886.85633333033,
      "d": 240.58555833331775,
      "v": 64
    },
    {
      "midi": 60,
      "hit": false,
      "t": 192886.85633333033,
      "d": 261.50604166663834,
      "v": 43
    },
    {
      "midi": 63,
      "hit": false,
      "t": 192886.85633333033,
      "d": 282.42652499995893,
      "v": 51
    },
    {
      "midi": 72,
      "hit": false,
      "t": 193305.26599999695,
      "d": 230.125316666672,
      "v": 70
    },
    {
      "midi": 56,
      "hit": false,
      "t": 193305.26599999695,
      "d": 271.9662833333423,
      "v": 63
    },
    {
      "midi": 60,
      "hit": false,
      "t": 193305.26599999695,
      "d": 282.42652500001714,
      "v": 60
    },
    {
      "midi": 68,
      "hit": false,
      "t": 193305.26599999695,
      "d": 292.886766666692,
      "v": 62
    },
    {
      "midi": 75,
      "hit": false,
      "t": 193305.26599999695,
      "d": 292.886766666692,
      "v": 61
    },
    {
      "midi": 63,
      "hit": false,
      "t": 193305.26599999695,
      "d": 324.2674916666874,
      "v": 48
    },
    {
      "midi": 56,
      "hit": false,
      "t": 193723.67566666362,
      "d": 219.66507499999716,
      "v": 58
    },
    {
      "midi": 60,
      "hit": false,
      "t": 193723.67566666362,
      "d": 240.58555833331775,
      "v": 51
    },
    {
      "midi": 75,
      "hit": false,
      "t": 193723.67566666362,
      "d": 251.0457999999926,
      "v": 56
    },
    {
      "midi": 68,
      "hit": false,
      "t": 193723.67566666362,
      "d": 261.50604166666744,
      "v": 56
    },
    {
      "midi": 63,
      "hit": false,
      "t": 193723.67566666362,
      "d": 271.9662833333423,
      "v": 51
    },
    {
      "midi": 72,
      "hit": false,
      "t": 193723.67566666362,
      "d": 303.3470083333377,
      "v": 58
    },
    {
      "midi": 75,
      "hit": false,
      "t": 194142.0853333303,
      "d": 219.66507499999716,
      "v": 58
    },
    {
      "midi": 68,
      "hit": false,
      "t": 194142.0853333303,
      "d": 251.0457999999926,
      "v": 66
    },
    {
      "midi": 63,
      "hit": false,
      "t": 194142.0853333303,
      "d": 271.9662833333132,
      "v": 35
    },
    {
      "midi": 72,
      "hit": false,
      "t": 194142.0853333303,
      "d": 271.9662833333132,
      "v": 68
    },
    {
      "midi": 56,
      "hit": false,
      "t": 194142.0853333303,
      "d": 303.3470083333086,
      "v": 52
    },
    {
      "midi": 60,
      "hit": false,
      "t": 194142.0853333303,
      "d": 324.2674916666292,
      "v": 44
    },
    {
      "midi": 60,
      "hit": false,
      "t": 194560.4949999969,
      "d": 219.66507499999716,
      "v": 42
    },
    {
      "midi": 56,
      "hit": false,
      "t": 194560.4949999969,
      "d": 240.58555833331775,
      "v": 54
    },
    {
      "midi": 65,
      "hit": false,
      "t": 194560.4949999969,
      "d": 261.50604166663834,
      "v": 42
    },
    {
      "midi": 68,
      "hit": false,
      "t": 194560.4949999969,
      "d": 271.9662833333132,
      "v": 70
    },
    {
      "midi": 72,
      "hit": false,
      "t": 194560.4949999969,
      "d": 271.9662833333132,
      "v": 64
    },
    {
      "midi": 77,
      "hit": false,
      "t": 194560.4949999969,
      "d": 271.9662833333132,
      "v": 67
    },
    {
      "midi": 68,
      "hit": false,
      "t": 194978.90466666355,
      "d": 219.66507499999716,
      "v": 61
    },
    {
      "midi": 72,
      "hit": false,
      "t": 194978.90466666355,
      "d": 219.66507499999716,
      "v": 63
    },
    {
      "midi": 56,
      "hit": false,
      "t": 194978.90466666355,
      "d": 240.58555833331775,
      "v": 47
    },
    {
      "midi": 77,
      "hit": false,
      "t": 194978.90466666355,
      "d": 251.0457999999926,
      "v": 59
    },
    {
      "midi": 60,
      "hit": false,
      "t": 194978.90466666355,
      "d": 271.9662833333132,
      "v": 51
    },
    {
      "midi": 65,
      "hit": false,
      "t": 194978.90466666355,
      "d": 303.3470083333086,
      "v": 49
    },
    {
      "midi": 77,
      "hit": false,
      "t": 195397.3143333302,
      "d": 209.2048333333223,
      "v": 56
    },
    {
      "midi": 56,
      "hit": false,
      "t": 195397.3143333302,
      "d": 240.58555833331775,
      "v": 51
    },
    {
      "midi": 68,
      "hit": false,
      "t": 195397.3143333302,
      "d": 240.58555833331775,
      "v": 70
    },
    {
      "midi": 72,
      "hit": false,
      "t": 195397.3143333302,
      "d": 240.58555833331775,
      "v": 64
    },
    {
      "midi": 60,
      "hit": false,
      "t": 195397.3143333302,
      "d": 261.50604166663834,
      "v": 43
    },
    {
      "midi": 65,
      "hit": false,
      "t": 195397.3143333302,
      "d": 282.42652499995893,
      "v": 51
    },
    {
      "midi": 72,
      "hit": false,
      "t": 195815.72399999682,
      "d": 230.125316666672,
      "v": 70
    },
    {
      "midi": 56,
      "hit": false,
      "t": 195815.72399999682,
      "d": 271.9662833333423,
      "v": 63
    },
    {
      "midi": 60,
      "hit": false,
      "t": 195815.72399999682,
      "d": 282.42652500001714,
      "v": 60
    },
    {
      "midi": 68,
      "hit": false,
      "t": 195815.72399999682,
      "d": 292.886766666692,
      "v": 62
    },
    {
      "midi": 77,
      "hit": false,
      "t": 195815.72399999682,
      "d": 292.886766666692,
      "v": 54
    },
    {
      "midi": 65,
      "hit": false,
      "t": 195815.72399999682,
      "d": 324.2674916666874,
      "v": 48
    },
    {
      "midi": 56,
      "hit": false,
      "t": 196234.1336666635,
      "d": 219.66507499999716,
      "v": 58
    },
    {
      "midi": 60,
      "hit": false,
      "t": 196234.1336666635,
      "d": 240.58555833331775,
      "v": 51
    },
    {
      "midi": 77,
      "hit": false,
      "t": 196234.1336666635,
      "d": 251.0457999999926,
      "v": 56
    },
    {
      "midi": 68,
      "hit": false,
      "t": 196234.1336666635,
      "d": 261.50604166666744,
      "v": 56
    },
    {
      "midi": 65,
      "hit": false,
      "t": 196234.1336666635,
      "d": 271.9662833333423,
      "v": 51
    },
    {
      "midi": 72,
      "hit": false,
      "t": 196234.1336666635,
      "d": 303.3470083333377,
      "v": 58
    },
    {
      "midi": 65,
      "hit": false,
      "t": 196652.54333333016,
      "d": 251.0457999999926,
      "v": 35
    },
    {
      "midi": 68,
      "hit": false,
      "t": 196652.54333333016,
      "d": 251.0457999999926,
      "v": 66
    },
    {
      "midi": 72,
      "hit": false,
      "t": 196652.54333333016,
      "d": 271.9662833333132,
      "v": 68
    },
    {
      "midi": 56,
      "hit": false,
      "t": 196652.54333333016,
      "d": 303.3470083333086,
      "v": 52
    },
    {
      "midi": 77,
      "hit": false,
      "t": 196652.54333333016,
      "d": 303.3470083333086,
      "v": 58
    },
    {
      "midi": 60,
      "hit": false,
      "t": 196652.54333333016,
      "d": 324.2674916666292,
      "v": 44
    },
    {
      "midi": 61,
      "hit": false,
      "t": 197070.95299999678,
      "d": 219.66507499999716,
      "v": 42
    },
    {
      "midi": 56,
      "hit": false,
      "t": 197070.95299999678,
      "d": 240.58555833331775,
      "v": 54
    },
    {
      "midi": 65,
      "hit": false,
      "t": 197070.95299999678,
      "d": 261.50604166663834,
      "v": 42
    },
    {
      "midi": 70,
      "hit": false,
      "t": 197070.95299999678,
      "d": 271.9662833333132,
      "v": 70
    },
    {
      "midi": 73,
      "hit": false,
      "t": 197070.95299999678,
      "d": 271.9662833333132,
      "v": 64
    },
    {
      "midi": 77,
      "hit": false,
      "t": 197070.95299999678,
      "d": 271.9662833333132,
      "v": 67
    },
    {
      "midi": 70,
      "hit": false,
      "t": 197489.36266666342,
      "d": 219.66507499999716,
      "v": 61
    },
    {
      "midi": 73,
      "hit": false,
      "t": 197489.36266666342,
      "d": 219.66507499999716,
      "v": 63
    },
    {
      "midi": 56,
      "hit": false,
      "t": 197489.36266666342,
      "d": 240.58555833331775,
      "v": 47
    },
    {
      "midi": 77,
      "hit": false,
      "t": 197489.36266666342,
      "d": 251.0457999999926,
      "v": 59
    },
    {
      "midi": 61,
      "hit": false,
      "t": 197489.36266666342,
      "d": 271.9662833333132,
      "v": 51
    },
    {
      "midi": 65,
      "hit": false,
      "t": 197489.36266666342,
      "d": 303.3470083333086,
      "v": 49
    },
    {
      "midi": 77,
      "hit": false,
      "t": 197907.77233333007,
      "d": 209.2048333333223,
      "v": 56
    },
    {
      "midi": 56,
      "hit": false,
      "t": 197907.77233333007,
      "d": 240.58555833331775,
      "v": 51
    },
    {
      "midi": 70,
      "hit": false,
      "t": 197907.77233333007,
      "d": 240.58555833331775,
      "v": 70
    },
    {
      "midi": 73,
      "hit": false,
      "t": 197907.77233333007,
      "d": 240.58555833331775,
      "v": 64
    },
    {
      "midi": 61,
      "hit": false,
      "t": 197907.77233333007,
      "d": 261.50604166663834,
      "v": 43
    },
    {
      "midi": 65,
      "hit": false,
      "t": 197907.77233333007,
      "d": 282.42652499995893,
      "v": 51
    },
    {
      "midi": 73,
      "hit": false,
      "t": 198326.18199999668,
      "d": 230.125316666672,
      "v": 70
    },
    {
      "midi": 56,
      "hit": false,
      "t": 198326.18199999668,
      "d": 271.9662833333423,
      "v": 63
    },
    {
      "midi": 61,
      "hit": false,
      "t": 198326.18199999668,
      "d": 282.42652500001714,
      "v": 60
    },
    {
      "midi": 70,
      "hit": false,
      "t": 198326.18199999668,
      "d": 292.886766666692,
      "v": 62
    },
    {
      "midi": 77,
      "hit": false,
      "t": 198326.18199999668,
      "d": 292.886766666692,
      "v": 54
    },
    {
      "midi": 65,
      "hit": false,
      "t": 198326.18199999668,
      "d": 324.2674916666874,
      "v": 48
    },
    {
      "midi": 56,
      "hit": false,
      "t": 198744.59166666336,
      "d": 219.66507499999716,
      "v": 58
    },
    {
      "midi": 61,
      "hit": false,
      "t": 198744.59166666336,
      "d": 240.58555833331775,
      "v": 51
    },
    {
      "midi": 77,
      "hit": false,
      "t": 198744.59166666336,
      "d": 251.0457999999926,
      "v": 56
    },
    {
      "midi": 70,
      "hit": false,
      "t": 198744.59166666336,
      "d": 261.50604166666744,
      "v": 56
    },
    {
      "midi": 65,
      "hit": false,
      "t": 198744.59166666336,
      "d": 271.9662833333423,
      "v": 51
    },
    {
      "midi": 73,
      "hit": false,
      "t": 198744.59166666336,
      "d": 303.3470083333377,
      "v": 58
    },
    {
      "midi": 65,
      "hit": false,
      "t": 199163.00133333003,
      "d": 251.0457999999926,
      "v": 35
    },
    {
      "midi": 70,
      "hit": false,
      "t": 199163.00133333003,
      "d": 251.0457999999926,
      "v": 66
    },
    {
      "midi": 73,
      "hit": false,
      "t": 199163.00133333003,
      "d": 271.9662833333132,
      "v": 68
    },
    {
      "midi": 56,
      "hit": false,
      "t": 199163.00133333003,
      "d": 303.3470083333086,
      "v": 52
    },
    {
      "midi": 77,
      "hit": false,
      "t": 199163.00133333003,
      "d": 303.3470083333086,
      "v": 58
    },
    {
      "midi": 61,
      "hit": false,
      "t": 199163.00133333003,
      "d": 324.2674916666292,
      "v": 44
    },
    {
      "midi": 63,
      "hit": false,
      "t": 199581.41099999665,
      "d": 219.66507499999716,
      "v": 42
    },
    {
      "midi": 58,
      "hit": false,
      "t": 199581.41099999665,
      "d": 240.58555833331775,
      "v": 54
    },
    {
      "midi": 67,
      "hit": false,
      "t": 199581.41099999665,
      "d": 261.50604166663834,
      "v": 42
    },
    {
      "midi": 70,
      "hit": false,
      "t": 199581.41099999665,
      "d": 271.9662833333132,
      "v": 70
    },
    {
      "midi": 73,
      "hit": false,
      "t": 199581.41099999665,
      "d": 271.9662833333132,
      "v": 64
    },
    {
      "midi": 75,
      "hit": false,
      "t": 199581.41099999665,
      "d": 271.9662833333132,
      "v": 67
    },
    {
      "midi": 70,
      "hit": false,
      "t": 199999.8206666633,
      "d": 219.66507499999716,
      "v": 61
    },
    {
      "midi": 73,
      "hit": false,
      "t": 199999.8206666633,
      "d": 219.66507499999716,
      "v": 63
    },
    {
      "midi": 58,
      "hit": false,
      "t": 199999.8206666633,
      "d": 240.58555833331775,
      "v": 47
    },
    {
      "midi": 75,
      "hit": false,
      "t": 199999.8206666633,
      "d": 251.0457999999926,
      "v": 59
    },
    {
      "midi": 63,
      "hit": false,
      "t": 199999.8206666633,
      "d": 271.9662833333132,
      "v": 51
    },
    {
      "midi": 67,
      "hit": false,
      "t": 199999.8206666633,
      "d": 303.3470083333086,
      "v": 49
    },
    {
      "midi": 75,
      "hit": false,
      "t": 200418.23033332994,
      "d": 209.2048333333223,
      "v": 56
    },
    {
      "midi": 58,
      "hit": false,
      "t": 200418.23033332994,
      "d": 240.58555833331775,
      "v": 51
    },
    {
      "midi": 70,
      "hit": false,
      "t": 200418.23033332994,
      "d": 240.58555833331775,
      "v": 70
    },
    {
      "midi": 73,
      "hit": false,
      "t": 200418.23033332994,
      "d": 240.58555833331775,
      "v": 64
    },
    {
      "midi": 63,
      "hit": false,
      "t": 200418.23033332994,
      "d": 261.50604166663834,
      "v": 43
    },
    {
      "midi": 67,
      "hit": false,
      "t": 200418.23033332994,
      "d": 282.42652499995893,
      "v": 51
    },
    {
      "midi": 73,
      "hit": false,
      "t": 200836.63999999655,
      "d": 230.125316666672,
      "v": 70
    },
    {
      "midi": 58,
      "hit": false,
      "t": 200836.63999999655,
      "d": 271.9662833333423,
      "v": 63
    },
    {
      "midi": 63,
      "hit": false,
      "t": 200836.63999999655,
      "d": 282.42652500001714,
      "v": 60
    },
    {
      "midi": 70,
      "hit": false,
      "t": 200836.63999999655,
      "d": 292.886766666692,
      "v": 62
    },
    {
      "midi": 75,
      "hit": false,
      "t": 200836.63999999655,
      "d": 292.886766666692,
      "v": 54
    },
    {
      "midi": 67,
      "hit": false,
      "t": 200836.63999999655,
      "d": 324.2674916666874,
      "v": 48
    },
    {
      "midi": 58,
      "hit": false,
      "t": 201255.04966666322,
      "d": 219.66507499999716,
      "v": 58
    },
    {
      "midi": 63,
      "hit": false,
      "t": 201255.04966666322,
      "d": 240.58555833331775,
      "v": 51
    },
    {
      "midi": 75,
      "hit": false,
      "t": 201255.04966666322,
      "d": 251.0457999999926,
      "v": 56
    },
    {
      "midi": 70,
      "hit": false,
      "t": 201255.04966666322,
      "d": 261.50604166666744,
      "v": 56
    },
    {
      "midi": 67,
      "hit": false,
      "t": 201255.04966666322,
      "d": 271.9662833333423,
      "v": 51
    },
    {
      "midi": 73,
      "hit": false,
      "t": 201255.04966666322,
      "d": 303.3470083333377,
      "v": 58
    },
    {
      "midi": 67,
      "hit": false,
      "t": 201673.4593333299,
      "d": 251.0457999999926,
      "v": 35
    },
    {
      "midi": 70,
      "hit": false,
      "t": 201673.4593333299,
      "d": 251.0457999999926,
      "v": 66
    },
    {
      "midi": 73,
      "hit": false,
      "t": 201673.4593333299,
      "d": 271.9662833333132,
      "v": 68
    },
    {
      "midi": 58,
      "hit": false,
      "t": 201673.4593333299,
      "d": 303.3470083333086,
      "v": 52
    },
    {
      "midi": 75,
      "hit": false,
      "t": 201673.4593333299,
      "d": 303.3470083333086,
      "v": 58
    },
    {
      "midi": 63,
      "hit": false,
      "t": 201673.4593333299,
      "d": 324.2674916666292,
      "v": 44
    },
    {
      "midi": 60,
      "hit": false,
      "t": 202091.8689999965,
      "d": 219.66507499999716,
      "v": 42
    },
    {
      "midi": 56,
      "hit": false,
      "t": 202091.8689999965,
      "d": 240.58555833331775,
      "v": 54
    },
    {
      "midi": 63,
      "hit": false,
      "t": 202091.8689999965,
      "d": 261.50604166663834,
      "v": 42
    },
    {
      "midi": 68,
      "hit": false,
      "t": 202091.8689999965,
      "d": 271.9662833333132,
      "v": 70
    },
    {
      "midi": 72,
      "hit": false,
      "t": 202091.8689999965,
      "d": 271.9662833333132,
      "v": 66
    },
    {
      "midi": 75,
      "hit": false,
      "t": 202091.8689999965,
      "d": 271.9662833333132,
      "v": 67
    },
    {
      "midi": 68,
      "hit": false,
      "t": 202510.27866666316,
      "d": 219.66507499999716,
      "v": 61
    },
    {
      "midi": 72,
      "hit": false,
      "t": 202510.27866666316,
      "d": 219.66507499999716,
      "v": 63
    },
    {
      "midi": 56,
      "hit": false,
      "t": 202510.27866666316,
      "d": 240.58555833331775,
      "v": 47
    },
    {
      "midi": 75,
      "hit": false,
      "t": 202510.27866666316,
      "d": 251.0457999999926,
      "v": 66
    },
    {
      "midi": 60,
      "hit": false,
      "t": 202510.27866666316,
      "d": 271.9662833333132,
      "v": 51
    },
    {
      "midi": 63,
      "hit": false,
      "t": 202510.27866666316,
      "d": 303.3470083333086,
      "v": 49
    },
    {
      "midi": 75,
      "hit": false,
      "t": 202928.6883333298,
      "d": 209.2048333333223,
      "v": 56
    },
    {
      "midi": 56,
      "hit": false,
      "t": 202928.6883333298,
      "d": 240.58555833331775,
      "v": 51
    },
    {
      "midi": 68,
      "hit": false,
      "t": 202928.6883333298,
      "d": 240.58555833331775,
      "v": 70
    },
    {
      "midi": 72,
      "hit": false,
      "t": 202928.6883333298,
      "d": 240.58555833331775,
      "v": 64
    },
    {
      "midi": 60,
      "hit": false,
      "t": 202928.6883333298,
      "d": 261.50604166663834,
      "v": 43
    },
    {
      "midi": 63,
      "hit": false,
      "t": 202928.6883333298,
      "d": 282.42652499995893,
      "v": 51
    },
    {
      "midi": 72,
      "hit": false,
      "t": 203347.09799999642,
      "d": 230.125316666672,
      "v": 70
    },
    {
      "midi": 56,
      "hit": false,
      "t": 203347.09799999642,
      "d": 271.9662833333423,
      "v": 63
    },
    {
      "midi": 60,
      "hit": false,
      "t": 203347.09799999642,
      "d": 282.42652500001714,
      "v": 60
    },
    {
      "midi": 68,
      "hit": false,
      "t": 203347.09799999642,
      "d": 292.886766666692,
      "v": 62
    },
    {
      "midi": 75,
      "hit": false,
      "t": 203347.09799999642,
      "d": 292.886766666692,
      "v": 61
    },
    {
      "midi": 63,
      "hit": false,
      "t": 203347.09799999642,
      "d": 324.2674916666874,
      "v": 48
    },
    {
      "midi": 56,
      "hit": false,
      "t": 203765.5076666631,
      "d": 219.66507499999716,
      "v": 58
    },
    {
      "midi": 60,
      "hit": false,
      "t": 203765.5076666631,
      "d": 240.58555833331775,
      "v": 51
    },
    {
      "midi": 75,
      "hit": false,
      "t": 203765.5076666631,
      "d": 251.0457999999926,
      "v": 56
    },
    {
      "midi": 68,
      "hit": false,
      "t": 203765.5076666631,
      "d": 261.50604166666744,
      "v": 56
    },
    {
      "midi": 63,
      "hit": false,
      "t": 203765.5076666631,
      "d": 271.9662833333423,
      "v": 51
    },
    {
      "midi": 72,
      "hit": false,
      "t": 203765.5076666631,
      "d": 303.3470083333377,
      "v": 58
    },
    {
      "midi": 75,
      "hit": false,
      "t": 204183.91733332977,
      "d": 219.66507499999716,
      "v": 58
    },
    {
      "midi": 68,
      "hit": false,
      "t": 204183.91733332977,
      "d": 251.0457999999926,
      "v": 66
    },
    {
      "midi": 63,
      "hit": false,
      "t": 204183.91733332977,
      "d": 271.9662833333132,
      "v": 35
    },
    {
      "midi": 72,
      "hit": false,
      "t": 204183.91733332977,
      "d": 271.9662833333132,
      "v": 68
    },
    {
      "midi": 56,
      "hit": false,
      "t": 204183.91733332977,
      "d": 303.3470083333086,
      "v": 52
    },
    {
      "midi": 60,
      "hit": false,
      "t": 204183.91733332977,
      "d": 324.2674916666292,
      "v": 44
    },
    {
      "midi": 60,
      "hit": false,
      "t": 204602.32699999638,
      "d": 219.66507499999716,
      "v": 42
    },
    {
      "midi": 56,
      "hit": false,
      "t": 204602.32699999638,
      "d": 240.58555833331775,
      "v": 54
    },
    {
      "midi": 65,
      "hit": false,
      "t": 204602.32699999638,
      "d": 261.50604166663834,
      "v": 42
    },
    {
      "midi": 68,
      "hit": false,
      "t": 204602.32699999638,
      "d": 271.9662833333132,
      "v": 70
    },
    {
      "midi": 72,
      "hit": false,
      "t": 204602.32699999638,
      "d": 271.9662833333132,
      "v": 64
    },
    {
      "midi": 77,
      "hit": false,
      "t": 204602.32699999638,
      "d": 271.9662833333132,
      "v": 67
    },
    {
      "midi": 68,
      "hit": false,
      "t": 205020.73666666303,
      "d": 219.66507499999716,
      "v": 61
    },
    {
      "midi": 72,
      "hit": false,
      "t": 205020.73666666303,
      "d": 219.66507499999716,
      "v": 63
    },
    {
      "midi": 56,
      "hit": false,
      "t": 205020.73666666303,
      "d": 240.58555833331775,
      "v": 47
    },
    {
      "midi": 77,
      "hit": false,
      "t": 205020.73666666303,
      "d": 251.0457999999926,
      "v": 59
    },
    {
      "midi": 60,
      "hit": false,
      "t": 205020.73666666303,
      "d": 271.9662833333132,
      "v": 51
    },
    {
      "midi": 65,
      "hit": false,
      "t": 205020.73666666303,
      "d": 303.3470083333086,
      "v": 49
    },
    {
      "midi": 77,
      "hit": false,
      "t": 205439.14633332967,
      "d": 209.2048333333223,
      "v": 56
    },
    {
      "midi": 56,
      "hit": false,
      "t": 205439.14633332967,
      "d": 240.58555833331775,
      "v": 51
    },
    {
      "midi": 68,
      "hit": false,
      "t": 205439.14633332967,
      "d": 240.58555833331775,
      "v": 70
    },
    {
      "midi": 72,
      "hit": false,
      "t": 205439.14633332967,
      "d": 240.58555833331775,
      "v": 64
    },
    {
      "midi": 60,
      "hit": false,
      "t": 205439.14633332967,
      "d": 261.50604166663834,
      "v": 43
    },
    {
      "midi": 65,
      "hit": false,
      "t": 205439.14633332967,
      "d": 282.42652499995893,
      "v": 51
    },
    {
      "midi": 72,
      "hit": false,
      "t": 205857.5559999963,
      "d": 230.125316666672,
      "v": 70
    },
    {
      "midi": 56,
      "hit": false,
      "t": 205857.5559999963,
      "d": 271.9662833333423,
      "v": 63
    },
    {
      "midi": 60,
      "hit": false,
      "t": 205857.5559999963,
      "d": 282.42652500001714,
      "v": 60
    },
    {
      "midi": 68,
      "hit": false,
      "t": 205857.5559999963,
      "d": 292.886766666692,
      "v": 62
    },
    {
      "midi": 77,
      "hit": false,
      "t": 205857.5559999963,
      "d": 292.886766666692,
      "v": 54
    },
    {
      "midi": 65,
      "hit": false,
      "t": 205857.5559999963,
      "d": 324.2674916666874,
      "v": 48
    },
    {
      "midi": 56,
      "hit": false,
      "t": 206275.96566666296,
      "d": 219.66507499999716,
      "v": 58
    },
    {
      "midi": 60,
      "hit": false,
      "t": 206275.96566666296,
      "d": 240.58555833331775,
      "v": 51
    },
    {
      "midi": 77,
      "hit": false,
      "t": 206275.96566666296,
      "d": 251.0457999999926,
      "v": 56
    },
    {
      "midi": 68,
      "hit": false,
      "t": 206275.96566666296,
      "d": 261.50604166666744,
      "v": 56
    },
    {
      "midi": 65,
      "hit": false,
      "t": 206275.96566666296,
      "d": 271.9662833333423,
      "v": 51
    },
    {
      "midi": 72,
      "hit": false,
      "t": 206275.96566666296,
      "d": 303.3470083333377,
      "v": 58
    },
    {
      "midi": 65,
      "hit": false,
      "t": 206694.37533332963,
      "d": 251.0457999999926,
      "v": 35
    },
    {
      "midi": 68,
      "hit": false,
      "t": 206694.37533332963,
      "d": 251.0457999999926,
      "v": 66
    },
    {
      "midi": 72,
      "hit": false,
      "t": 206694.37533332963,
      "d": 271.9662833333132,
      "v": 68
    },
    {
      "midi": 56,
      "hit": false,
      "t": 206694.37533332963,
      "d": 303.3470083333086,
      "v": 52
    },
    {
      "midi": 77,
      "hit": false,
      "t": 206694.37533332963,
      "d": 303.3470083333086,
      "v": 58
    },
    {
      "midi": 60,
      "hit": false,
      "t": 206694.37533332963,
      "d": 324.2674916666292,
      "v": 44
    },
    {
      "midi": 61,
      "hit": false,
      "t": 207112.78499999625,
      "d": 219.66507499999716,
      "v": 42
    },
    {
      "midi": 56,
      "hit": false,
      "t": 207112.78499999625,
      "d": 240.58555833331775,
      "v": 54
    },
    {
      "midi": 65,
      "hit": false,
      "t": 207112.78499999625,
      "d": 261.50604166663834,
      "v": 42
    },
    {
      "midi": 70,
      "hit": false,
      "t": 207112.78499999625,
      "d": 271.9662833333132,
      "v": 70
    },
    {
      "midi": 73,
      "hit": false,
      "t": 207112.78499999625,
      "d": 271.9662833333132,
      "v": 64
    },
    {
      "midi": 77,
      "hit": false,
      "t": 207112.78499999625,
      "d": 271.9662833333132,
      "v": 67
    },
    {
      "midi": 70,
      "hit": false,
      "t": 207531.1946666629,
      "d": 219.66507499999716,
      "v": 61
    },
    {
      "midi": 73,
      "hit": false,
      "t": 207531.1946666629,
      "d": 219.66507499999716,
      "v": 63
    },
    {
      "midi": 56,
      "hit": false,
      "t": 207531.1946666629,
      "d": 240.58555833331775,
      "v": 47
    },
    {
      "midi": 77,
      "hit": false,
      "t": 207531.1946666629,
      "d": 251.0457999999926,
      "v": 59
    },
    {
      "midi": 61,
      "hit": false,
      "t": 207531.1946666629,
      "d": 271.9662833333132,
      "v": 51
    },
    {
      "midi": 65,
      "hit": false,
      "t": 207531.1946666629,
      "d": 303.3470083333086,
      "v": 49
    },
    {
      "midi": 77,
      "hit": false,
      "t": 207949.60433332954,
      "d": 209.2048333333223,
      "v": 56
    },
    {
      "midi": 56,
      "hit": false,
      "t": 207949.60433332954,
      "d": 240.58555833331775,
      "v": 51
    },
    {
      "midi": 70,
      "hit": false,
      "t": 207949.60433332954,
      "d": 240.58555833331775,
      "v": 70
    },
    {
      "midi": 73,
      "hit": false,
      "t": 207949.60433332954,
      "d": 240.58555833331775,
      "v": 64
    },
    {
      "midi": 61,
      "hit": false,
      "t": 207949.60433332954,
      "d": 261.50604166663834,
      "v": 43
    },
    {
      "midi": 65,
      "hit": false,
      "t": 207949.60433332954,
      "d": 282.42652499995893,
      "v": 51
    },
    {
      "midi": 73,
      "hit": false,
      "t": 208368.01399999615,
      "d": 230.125316666672,
      "v": 70
    },
    {
      "midi": 56,
      "hit": false,
      "t": 208368.01399999615,
      "d": 271.9662833333423,
      "v": 63
    },
    {
      "midi": 61,
      "hit": false,
      "t": 208368.01399999615,
      "d": 282.42652500001714,
      "v": 60
    },
    {
      "midi": 70,
      "hit": false,
      "t": 208368.01399999615,
      "d": 292.886766666692,
      "v": 62
    },
    {
      "midi": 77,
      "hit": false,
      "t": 208368.01399999615,
      "d": 292.886766666692,
      "v": 54
    },
    {
      "midi": 65,
      "hit": false,
      "t": 208368.01399999615,
      "d": 324.2674916666874,
      "v": 48
    },
    {
      "midi": 56,
      "hit": false,
      "t": 208786.42366666283,
      "d": 219.66507499999716,
      "v": 58
    },
    {
      "midi": 61,
      "hit": false,
      "t": 208786.42366666283,
      "d": 240.58555833331775,
      "v": 51
    },
    {
      "midi": 77,
      "hit": false,
      "t": 208786.42366666283,
      "d": 251.0457999999926,
      "v": 56
    },
    {
      "midi": 70,
      "hit": false,
      "t": 208786.42366666283,
      "d": 261.50604166666744,
      "v": 56
    },
    {
      "midi": 65,
      "hit": false,
      "t": 208786.42366666283,
      "d": 271.9662833333423,
      "v": 51
    },
    {
      "midi": 73,
      "hit": false,
      "t": 208786.42366666283,
      "d": 303.3470083333377,
      "v": 58
    },
    {
      "midi": 65,
      "hit": false,
      "t": 209204.8333333295,
      "d": 251.0457999999926,
      "v": 35
    },
    {
      "midi": 70,
      "hit": false,
      "t": 209204.8333333295,
      "d": 251.0457999999926,
      "v": 66
    },
    {
      "midi": 73,
      "hit": false,
      "t": 209204.8333333295,
      "d": 271.9662833333132,
      "v": 68
    },
    {
      "midi": 56,
      "hit": false,
      "t": 209204.8333333295,
      "d": 303.3470083333086,
      "v": 52
    },
    {
      "midi": 77,
      "hit": false,
      "t": 209204.8333333295,
      "d": 303.3470083333086,
      "v": 58
    },
    {
      "midi": 61,
      "hit": false,
      "t": 209204.8333333295,
      "d": 324.2674916666292,
      "v": 44
    },
    {
      "midi": 63,
      "hit": false,
      "t": 209623.24299999612,
      "d": 219.66507499999716,
      "v": 42
    },
    {
      "midi": 58,
      "hit": false,
      "t": 209623.24299999612,
      "d": 240.58555833331775,
      "v": 54
    },
    {
      "midi": 67,
      "hit": false,
      "t": 209623.24299999612,
      "d": 261.50604166663834,
      "v": 42
    },
    {
      "midi": 70,
      "hit": false,
      "t": 209623.24299999612,
      "d": 271.9662833333132,
      "v": 70
    },
    {
      "midi": 73,
      "hit": false,
      "t": 209623.24299999612,
      "d": 271.9662833333132,
      "v": 64
    },
    {
      "midi": 75,
      "hit": false,
      "t": 209623.24299999612,
      "d": 271.9662833333132,
      "v": 67
    },
    {
      "midi": 70,
      "hit": false,
      "t": 210041.65266666276,
      "d": 219.66507499999716,
      "v": 61
    },
    {
      "midi": 73,
      "hit": false,
      "t": 210041.65266666276,
      "d": 219.66507499999716,
      "v": 63
    },
    {
      "midi": 58,
      "hit": false,
      "t": 210041.65266666276,
      "d": 240.58555833331775,
      "v": 47
    },
    {
      "midi": 75,
      "hit": false,
      "t": 210041.65266666276,
      "d": 251.0457999999926,
      "v": 59
    },
    {
      "midi": 63,
      "hit": false,
      "t": 210041.65266666276,
      "d": 271.9662833333132,
      "v": 51
    },
    {
      "midi": 67,
      "hit": false,
      "t": 210041.65266666276,
      "d": 303.3470083333086,
      "v": 49
    },
    {
      "midi": 75,
      "hit": false,
      "t": 210460.0623333294,
      "d": 209.2048333333223,
      "v": 56
    },
    {
      "midi": 58,
      "hit": false,
      "t": 210460.0623333294,
      "d": 240.58555833331775,
      "v": 51
    },
    {
      "midi": 70,
      "hit": false,
      "t": 210460.0623333294,
      "d": 240.58555833331775,
      "v": 70
    },
    {
      "midi": 73,
      "hit": false,
      "t": 210460.0623333294,
      "d": 240.58555833331775,
      "v": 64
    },
    {
      "midi": 63,
      "hit": false,
      "t": 210460.0623333294,
      "d": 261.50604166663834,
      "v": 43
    },
    {
      "midi": 67,
      "hit": false,
      "t": 210460.0623333294,
      "d": 282.42652499995893,
      "v": 51
    },
    {
      "midi": 73,
      "hit": false,
      "t": 210878.47199999602,
      "d": 230.125316666672,
      "v": 70
    },
    {
      "midi": 58,
      "hit": false,
      "t": 210878.47199999602,
      "d": 271.9662833333423,
      "v": 63
    },
    {
      "midi": 63,
      "hit": false,
      "t": 210878.47199999602,
      "d": 282.42652500001714,
      "v": 60
    },
    {
      "midi": 70,
      "hit": false,
      "t": 210878.47199999602,
      "d": 292.886766666692,
      "v": 62
    },
    {
      "midi": 75,
      "hit": false,
      "t": 210878.47199999602,
      "d": 292.886766666692,
      "v": 54
    },
    {
      "midi": 67,
      "hit": false,
      "t": 210878.47199999602,
      "d": 324.2674916666874,
      "v": 48
    },
    {
      "midi": 58,
      "hit": false,
      "t": 211296.8816666627,
      "d": 219.66507499999716,
      "v": 58
    },
    {
      "midi": 63,
      "hit": false,
      "t": 211296.8816666627,
      "d": 240.58555833331775,
      "v": 51
    },
    {
      "midi": 75,
      "hit": false,
      "t": 211296.8816666627,
      "d": 251.0457999999926,
      "v": 56
    },
    {
      "midi": 70,
      "hit": false,
      "t": 211296.8816666627,
      "d": 261.50604166666744,
      "v": 56
    },
    {
      "midi": 67,
      "hit": false,
      "t": 211296.8816666627,
      "d": 271.9662833333423,
      "v": 51
    },
    {
      "midi": 73,
      "hit": false,
      "t": 211296.8816666627,
      "d": 303.3470083333377,
      "v": 58
    },
    {
      "midi": 67,
      "hit": false,
      "t": 211715.29133332937,
      "d": 251.0457999999926,
      "v": 35
    },
    {
      "midi": 70,
      "hit": false,
      "t": 211715.29133332937,
      "d": 251.0457999999926,
      "v": 66
    },
    {
      "midi": 73,
      "hit": false,
      "t": 211715.29133332937,
      "d": 271.9662833333132,
      "v": 68
    },
    {
      "midi": 58,
      "hit": false,
      "t": 211715.29133332937,
      "d": 303.3470083333086,
      "v": 52
    },
    {
      "midi": 75,
      "hit": false,
      "t": 211715.29133332937,
      "d": 303.3470083333086,
      "v": 58
    },
    {
      "midi": 63,
      "hit": false,
      "t": 211715.29133332937,
      "d": 324.2674916666292,
      "v": 44
    },
    {
      "midi": 60,
      "hit": false,
      "t": 212133.70099999598,
      "d": 219.66507499999716,
      "v": 42
    },
    {
      "midi": 56,
      "hit": false,
      "t": 212133.70099999598,
      "d": 240.58555833331775,
      "v": 54
    },
    {
      "midi": 63,
      "hit": false,
      "t": 212133.70099999598,
      "d": 261.50604166663834,
      "v": 42
    },
    {
      "midi": 68,
      "hit": false,
      "t": 212133.70099999598,
      "d": 271.9662833333132,
      "v": 70
    },
    {
      "midi": 72,
      "hit": false,
      "t": 212133.70099999598,
      "d": 271.9662833333132,
      "v": 66
    },
    {
      "midi": 75,
      "hit": false,
      "t": 212133.70099999598,
      "d": 271.9662833333132,
      "v": 67
    },
    {
      "midi": 68,
      "hit": false,
      "t": 212552.11066666263,
      "d": 219.66507499999716,
      "v": 61
    },
    {
      "midi": 72,
      "hit": false,
      "t": 212552.11066666263,
      "d": 219.66507499999716,
      "v": 63
    },
    {
      "midi": 56,
      "hit": false,
      "t": 212552.11066666263,
      "d": 240.58555833331775,
      "v": 47
    },
    {
      "midi": 75,
      "hit": false,
      "t": 212552.11066666263,
      "d": 251.0457999999926,
      "v": 66
    },
    {
      "midi": 60,
      "hit": false,
      "t": 212552.11066666263,
      "d": 271.9662833333132,
      "v": 51
    },
    {
      "midi": 63,
      "hit": false,
      "t": 212552.11066666263,
      "d": 303.3470083333086,
      "v": 49
    },
    {
      "midi": 75,
      "hit": false,
      "t": 212970.52033332927,
      "d": 209.2048333333223,
      "v": 56
    },
    {
      "midi": 56,
      "hit": false,
      "t": 212970.52033332927,
      "d": 240.58555833331775,
      "v": 51
    },
    {
      "midi": 68,
      "hit": false,
      "t": 212970.52033332927,
      "d": 240.58555833331775,
      "v": 70
    },
    {
      "midi": 72,
      "hit": false,
      "t": 212970.52033332927,
      "d": 240.58555833331775,
      "v": 64
    },
    {
      "midi": 60,
      "hit": false,
      "t": 212970.52033332927,
      "d": 261.50604166663834,
      "v": 43
    },
    {
      "midi": 63,
      "hit": false,
      "t": 212970.52033332927,
      "d": 282.42652499995893,
      "v": 51
    },
    {
      "midi": 72,
      "hit": false,
      "t": 213388.9299999959,
      "d": 230.125316666672,
      "v": 70
    },
    {
      "midi": 56,
      "hit": false,
      "t": 213388.9299999959,
      "d": 271.9662833333423,
      "v": 63
    },
    {
      "midi": 60,
      "hit": false,
      "t": 213388.9299999959,
      "d": 282.42652500001714,
      "v": 60
    },
    {
      "midi": 68,
      "hit": false,
      "t": 213388.9299999959,
      "d": 292.886766666692,
      "v": 62
    },
    {
      "midi": 75,
      "hit": false,
      "t": 213388.9299999959,
      "d": 292.886766666692,
      "v": 61
    },
    {
      "midi": 63,
      "hit": false,
      "t": 213388.9299999959,
      "d": 324.2674916666874,
      "v": 48
    },
    {
      "midi": 56,
      "hit": false,
      "t": 213807.33966666256,
      "d": 219.66507499999716,
      "v": 58
    },
    {
      "midi": 60,
      "hit": false,
      "t": 213807.33966666256,
      "d": 240.58555833331775,
      "v": 51
    },
    {
      "midi": 75,
      "hit": false,
      "t": 213807.33966666256,
      "d": 251.0457999999926,
      "v": 56
    },
    {
      "midi": 68,
      "hit": false,
      "t": 213807.33966666256,
      "d": 261.50604166666744,
      "v": 56
    },
    {
      "midi": 63,
      "hit": false,
      "t": 213807.33966666256,
      "d": 271.9662833333423,
      "v": 51
    },
    {
      "midi": 72,
      "hit": false,
      "t": 213807.33966666256,
      "d": 303.3470083333377,
      "v": 58
    },
    {
      "midi": 75,
      "hit": false,
      "t": 214225.74933332924,
      "d": 219.66507499999716,
      "v": 58
    },
    {
      "midi": 68,
      "hit": false,
      "t": 214225.74933332924,
      "d": 251.0457999999926,
      "v": 66
    },
    {
      "midi": 63,
      "hit": false,
      "t": 214225.74933332924,
      "d": 271.9662833333132,
      "v": 35
    },
    {
      "midi": 72,
      "hit": false,
      "t": 214225.74933332924,
      "d": 271.9662833333132,
      "v": 68
    },
    {
      "midi": 56,
      "hit": false,
      "t": 214225.74933332924,
      "d": 303.3470083333086,
      "v": 52
    },
    {
      "midi": 60,
      "hit": false,
      "t": 214225.74933332924,
      "d": 324.2674916666292,
      "v": 44
    },
    {
      "midi": 60,
      "hit": false,
      "t": 214644.15899999585,
      "d": 219.66507499999716,
      "v": 42
    },
    {
      "midi": 56,
      "hit": false,
      "t": 214644.15899999585,
      "d": 240.58555833331775,
      "v": 54
    },
    {
      "midi": 65,
      "hit": false,
      "t": 214644.15899999585,
      "d": 261.50604166663834,
      "v": 42
    },
    {
      "midi": 68,
      "hit": false,
      "t": 214644.15899999585,
      "d": 271.9662833333132,
      "v": 70
    },
    {
      "midi": 72,
      "hit": false,
      "t": 214644.15899999585,
      "d": 271.9662833333132,
      "v": 64
    },
    {
      "midi": 77,
      "hit": false,
      "t": 214644.15899999585,
      "d": 271.9662833333132,
      "v": 67
    },
    {
      "midi": 68,
      "hit": false,
      "t": 215062.5686666625,
      "d": 219.66507499999716,
      "v": 61
    },
    {
      "midi": 72,
      "hit": false,
      "t": 215062.5686666625,
      "d": 219.66507499999716,
      "v": 63
    },
    {
      "midi": 56,
      "hit": false,
      "t": 215062.5686666625,
      "d": 240.58555833331775,
      "v": 47
    },
    {
      "midi": 77,
      "hit": false,
      "t": 215062.5686666625,
      "d": 251.0457999999926,
      "v": 59
    },
    {
      "midi": 60,
      "hit": false,
      "t": 215062.5686666625,
      "d": 271.9662833333132,
      "v": 51
    },
    {
      "midi": 65,
      "hit": false,
      "t": 215062.5686666625,
      "d": 303.3470083333086,
      "v": 49
    },
    {
      "midi": 77,
      "hit": false,
      "t": 215480.97833332914,
      "d": 209.2048333333223,
      "v": 56
    },
    {
      "midi": 56,
      "hit": false,
      "t": 215480.97833332914,
      "d": 240.58555833331775,
      "v": 51
    },
    {
      "midi": 68,
      "hit": false,
      "t": 215480.97833332914,
      "d": 240.58555833331775,
      "v": 70
    },
    {
      "midi": 72,
      "hit": false,
      "t": 215480.97833332914,
      "d": 240.58555833331775,
      "v": 64
    },
    {
      "midi": 60,
      "hit": false,
      "t": 215480.97833332914,
      "d": 261.50604166663834,
      "v": 43
    },
    {
      "midi": 65,
      "hit": false,
      "t": 215480.97833332914,
      "d": 282.42652499995893,
      "v": 51
    },
    {
      "midi": 72,
      "hit": false,
      "t": 215899.38799999576,
      "d": 230.125316666672,
      "v": 70
    },
    {
      "midi": 56,
      "hit": false,
      "t": 215899.38799999576,
      "d": 271.9662833333423,
      "v": 63
    },
    {
      "midi": 60,
      "hit": false,
      "t": 215899.38799999576,
      "d": 282.42652500001714,
      "v": 60
    },
    {
      "midi": 68,
      "hit": false,
      "t": 215899.38799999576,
      "d": 292.886766666692,
      "v": 62
    },
    {
      "midi": 77,
      "hit": false,
      "t": 215899.38799999576,
      "d": 292.886766666692,
      "v": 54
    },
    {
      "midi": 65,
      "hit": false,
      "t": 215899.38799999576,
      "d": 324.2674916666874,
      "v": 48
    },
    {
      "midi": 56,
      "hit": false,
      "t": 216317.79766666243,
      "d": 219.66507499999716,
      "v": 58
    },
    {
      "midi": 60,
      "hit": false,
      "t": 216317.79766666243,
      "d": 240.58555833331775,
      "v": 51
    },
    {
      "midi": 77,
      "hit": false,
      "t": 216317.79766666243,
      "d": 251.0457999999926,
      "v": 56
    },
    {
      "midi": 68,
      "hit": false,
      "t": 216317.79766666243,
      "d": 261.50604166666744,
      "v": 56
    },
    {
      "midi": 65,
      "hit": false,
      "t": 216317.79766666243,
      "d": 271.9662833333423,
      "v": 51
    },
    {
      "midi": 72,
      "hit": false,
      "t": 216317.79766666243,
      "d": 303.3470083333377,
      "v": 58
    },
    {
      "midi": 65,
      "hit": false,
      "t": 216736.2073333291,
      "d": 251.0457999999926,
      "v": 35
    },
    {
      "midi": 68,
      "hit": false,
      "t": 216736.2073333291,
      "d": 251.0457999999926,
      "v": 66
    },
    {
      "midi": 72,
      "hit": false,
      "t": 216736.2073333291,
      "d": 271.9662833333132,
      "v": 68
    },
    {
      "midi": 56,
      "hit": false,
      "t": 216736.2073333291,
      "d": 303.3470083333086,
      "v": 52
    },
    {
      "midi": 77,
      "hit": false,
      "t": 216736.2073333291,
      "d": 303.3470083333086,
      "v": 58
    },
    {
      "midi": 60,
      "hit": false,
      "t": 216736.2073333291,
      "d": 324.2674916666292,
      "v": 44
    },
    {
      "midi": 61,
      "hit": false,
      "t": 217154.61699999572,
      "d": 1652.7181833333452,
      "v": 42
    },
    {
      "midi": 56,
      "hit": false,
      "t": 217154.61699999572,
      "d": 1820.0820500000264,
      "v": 54
    },
    {
      "midi": 65,
      "hit": false,
      "t": 217154.61699999572,
      "d": 1997.9061583333532,
      "v": 42
    },
    {
      "midi": 70,
      "hit": false,
      "t": 217154.61699999572,
      "d": 2050.2073666666984,
      "v": 70
    },
    {
      "midi": 73,
      "hit": false,
      "t": 217154.61699999572,
      "d": 2050.2073666666984,
      "v": 64
    },
    {
      "midi": 77,
      "hit": false,
      "t": 217154.61699999572,
      "d": 2050.2073666666984,
      "v": 67
    },
    {
      "midi": 60,
      "hit": false,
      "t": 224685.99099999576,
      "d": 219.66507499999716,
      "v": 42
    },
    {
      "midi": 56,
      "hit": false,
      "t": 224685.99099999576,
      "d": 240.58555833331775,
      "v": 54
    },
    {
      "midi": 63,
      "hit": false,
      "t": 224685.99099999576,
      "d": 261.50604166663834,
      "v": 42
    },
    {
      "midi": 68,
      "hit": false,
      "t": 224685.99099999576,
      "d": 271.9662833333132,
      "v": 70
    },
    {
      "midi": 72,
      "hit": false,
      "t": 224685.99099999576,
      "d": 271.9662833333132,
      "v": 66
    },
    {
      "midi": 75,
      "hit": false,
      "t": 224685.99099999576,
      "d": 271.9662833333132,
      "v": 67
    },
    {
      "midi": 68,
      "hit": false,
      "t": 225104.4006666624,
      "d": 219.66507499999716,
      "v": 61
    },
    {
      "midi": 72,
      "hit": false,
      "t": 225104.4006666624,
      "d": 219.66507499999716,
      "v": 63
    },
    {
      "midi": 56,
      "hit": false,
      "t": 225104.4006666624,
      "d": 240.58555833331775,
      "v": 47
    },
    {
      "midi": 75,
      "hit": false,
      "t": 225104.4006666624,
      "d": 251.0457999999926,
      "v": 66
    },
    {
      "midi": 60,
      "hit": false,
      "t": 225104.4006666624,
      "d": 271.9662833333132,
      "v": 51
    },
    {
      "midi": 63,
      "hit": false,
      "t": 225104.4006666624,
      "d": 303.3470083333086,
      "v": 49
    },
    {
      "midi": 75,
      "hit": false,
      "t": 225522.81033332905,
      "d": 209.2048333333223,
      "v": 56
    },
    {
      "midi": 56,
      "hit": false,
      "t": 225522.81033332905,
      "d": 240.58555833331775,
      "v": 51
    },
    {
      "midi": 68,
      "hit": false,
      "t": 225522.81033332905,
      "d": 240.58555833331775,
      "v": 70
    },
    {
      "midi": 72,
      "hit": false,
      "t": 225522.81033332905,
      "d": 240.58555833331775,
      "v": 64
    },
    {
      "midi": 60,
      "hit": false,
      "t": 225522.81033332905,
      "d": 261.50604166663834,
      "v": 43
    },
    {
      "midi": 63,
      "hit": false,
      "t": 225522.81033332905,
      "d": 282.42652499995893,
      "v": 51
    },
    {
      "midi": 72,
      "hit": false,
      "t": 225941.21999999566,
      "d": 230.125316666672,
      "v": 70
    },
    {
      "midi": 56,
      "hit": false,
      "t": 225941.21999999566,
      "d": 271.9662833333423,
      "v": 63
    },
    {
      "midi": 60,
      "hit": false,
      "t": 225941.21999999566,
      "d": 282.42652500001714,
      "v": 60
    },
    {
      "midi": 68,
      "hit": false,
      "t": 225941.21999999566,
      "d": 292.886766666692,
      "v": 62
    },
    {
      "midi": 75,
      "hit": false,
      "t": 225941.21999999566,
      "d": 292.886766666692,
      "v": 61
    },
    {
      "midi": 63,
      "hit": false,
      "t": 225941.21999999566,
      "d": 324.2674916666874,
      "v": 48
    },
    {
      "midi": 56,
      "hit": false,
      "t": 226359.62966666234,
      "d": 219.66507499999716,
      "v": 58
    },
    {
      "midi": 60,
      "hit": false,
      "t": 226359.62966666234,
      "d": 240.58555833331775,
      "v": 51
    },
    {
      "midi": 75,
      "hit": false,
      "t": 226359.62966666234,
      "d": 251.0457999999926,
      "v": 56
    },
    {
      "midi": 68,
      "hit": false,
      "t": 226359.62966666234,
      "d": 261.50604166666744,
      "v": 56
    },
    {
      "midi": 63,
      "hit": false,
      "t": 226359.62966666234,
      "d": 271.9662833333423,
      "v": 51
    },
    {
      "midi": 72,
      "hit": false,
      "t": 226359.62966666234,
      "d": 303.3470083333377,
      "v": 58
    },
    {
      "midi": 75,
      "hit": false,
      "t": 226778.039333329,
      "d": 219.66507499999716,
      "v": 58
    },
    {
      "midi": 68,
      "hit": false,
      "t": 226778.039333329,
      "d": 251.0457999999926,
      "v": 66
    },
    {
      "midi": 63,
      "hit": false,
      "t": 226778.039333329,
      "d": 271.9662833333132,
      "v": 35
    },
    {
      "midi": 72,
      "hit": false,
      "t": 226778.039333329,
      "d": 271.9662833333132,
      "v": 68
    },
    {
      "midi": 56,
      "hit": false,
      "t": 226778.039333329,
      "d": 303.3470083333086,
      "v": 52
    },
    {
      "midi": 60,
      "hit": false,
      "t": 226778.039333329,
      "d": 324.2674916666292,
      "v": 44
    },
    {
      "midi": 60,
      "hit": false,
      "t": 227196.44899999563,
      "d": 219.66507499999716,
      "v": 42
    },
    {
      "midi": 56,
      "hit": false,
      "t": 227196.44899999563,
      "d": 240.58555833331775,
      "v": 54
    },
    {
      "midi": 65,
      "hit": false,
      "t": 227196.44899999563,
      "d": 261.50604166663834,
      "v": 42
    },
    {
      "midi": 68,
      "hit": false,
      "t": 227196.44899999563,
      "d": 271.9662833333132,
      "v": 70
    },
    {
      "midi": 72,
      "hit": false,
      "t": 227196.44899999563,
      "d": 271.9662833333132,
      "v": 64
    },
    {
      "midi": 77,
      "hit": false,
      "t": 227196.44899999563,
      "d": 271.9662833333132,
      "v": 67
    },
    {
      "midi": 68,
      "hit": false,
      "t": 227614.85866666227,
      "d": 219.66507499999716,
      "v": 61
    },
    {
      "midi": 72,
      "hit": false,
      "t": 227614.85866666227,
      "d": 219.66507499999716,
      "v": 63
    },
    {
      "midi": 56,
      "hit": false,
      "t": 227614.85866666227,
      "d": 240.58555833331775,
      "v": 47
    },
    {
      "midi": 77,
      "hit": false,
      "t": 227614.85866666227,
      "d": 251.0457999999926,
      "v": 59
    },
    {
      "midi": 60,
      "hit": false,
      "t": 227614.85866666227,
      "d": 271.9662833333132,
      "v": 51
    },
    {
      "midi": 65,
      "hit": false,
      "t": 227614.85866666227,
      "d": 303.3470083333086,
      "v": 49
    },
    {
      "midi": 77,
      "hit": false,
      "t": 228033.26833332892,
      "d": 209.2048333333223,
      "v": 56
    },
    {
      "midi": 56,
      "hit": false,
      "t": 228033.26833332892,
      "d": 240.58555833331775,
      "v": 51
    },
    {
      "midi": 68,
      "hit": false,
      "t": 228033.26833332892,
      "d": 240.58555833331775,
      "v": 70
    },
    {
      "midi": 72,
      "hit": false,
      "t": 228033.26833332892,
      "d": 240.58555833331775,
      "v": 64
    },
    {
      "midi": 60,
      "hit": false,
      "t": 228033.26833332892,
      "d": 261.50604166663834,
      "v": 43
    },
    {
      "midi": 65,
      "hit": false,
      "t": 228033.26833332892,
      "d": 282.42652499995893,
      "v": 51
    },
    {
      "midi": 72,
      "hit": false,
      "t": 228451.67799999553,
      "d": 230.125316666672,
      "v": 70
    },
    {
      "midi": 56,
      "hit": false,
      "t": 228451.67799999553,
      "d": 271.9662833333423,
      "v": 63
    },
    {
      "midi": 60,
      "hit": false,
      "t": 228451.67799999553,
      "d": 282.42652500001714,
      "v": 60
    },
    {
      "midi": 68,
      "hit": false,
      "t": 228451.67799999553,
      "d": 292.886766666692,
      "v": 62
    },
    {
      "midi": 77,
      "hit": false,
      "t": 228451.67799999553,
      "d": 292.886766666692,
      "v": 54
    },
    {
      "midi": 65,
      "hit": false,
      "t": 228451.67799999553,
      "d": 324.2674916666874,
      "v": 48
    },
    {
      "midi": 56,
      "hit": false,
      "t": 228870.0876666622,
      "d": 219.66507499999716,
      "v": 58
    },
    {
      "midi": 60,
      "hit": false,
      "t": 228870.0876666622,
      "d": 240.58555833331775,
      "v": 51
    },
    {
      "midi": 77,
      "hit": false,
      "t": 228870.0876666622,
      "d": 251.0457999999926,
      "v": 56
    },
    {
      "midi": 68,
      "hit": false,
      "t": 228870.0876666622,
      "d": 261.50604166666744,
      "v": 56
    },
    {
      "midi": 65,
      "hit": false,
      "t": 228870.0876666622,
      "d": 271.9662833333423,
      "v": 51
    },
    {
      "midi": 72,
      "hit": false,
      "t": 228870.0876666622,
      "d": 303.3470083333377,
      "v": 58
    },
    {
      "midi": 65,
      "hit": false,
      "t": 229288.49733332888,
      "d": 251.0457999999926,
      "v": 35
    },
    {
      "midi": 68,
      "hit": false,
      "t": 229288.49733332888,
      "d": 251.0457999999926,
      "v": 66
    },
    {
      "midi": 72,
      "hit": false,
      "t": 229288.49733332888,
      "d": 271.9662833333132,
      "v": 68
    },
    {
      "midi": 56,
      "hit": false,
      "t": 229288.49733332888,
      "d": 303.3470083333086,
      "v": 52
    },
    {
      "midi": 77,
      "hit": false,
      "t": 229288.49733332888,
      "d": 303.3470083333086,
      "v": 58
    },
    {
      "midi": 60,
      "hit": false,
      "t": 229288.49733332888,
      "d": 324.2674916666292,
      "v": 44
    },
    {
      "midi": 61,
      "hit": false,
      "t": 229706.9069999955,
      "d": 219.66507499999716,
      "v": 42
    },
    {
      "midi": 56,
      "hit": false,
      "t": 229706.9069999955,
      "d": 240.58555833331775,
      "v": 54
    },
    {
      "midi": 65,
      "hit": false,
      "t": 229706.9069999955,
      "d": 261.50604166663834,
      "v": 42
    },
    {
      "midi": 70,
      "hit": false,
      "t": 229706.9069999955,
      "d": 271.9662833333132,
      "v": 70
    },
    {
      "midi": 73,
      "hit": false,
      "t": 229706.9069999955,
      "d": 271.9662833333132,
      "v": 64
    },
    {
      "midi": 77,
      "hit": false,
      "t": 229706.9069999955,
      "d": 271.9662833333132,
      "v": 67
    },
    {
      "midi": 70,
      "hit": false,
      "t": 230125.31666666214,
      "d": 219.66507499999716,
      "v": 61
    },
    {
      "midi": 73,
      "hit": false,
      "t": 230125.31666666214,
      "d": 219.66507499999716,
      "v": 63
    },
    {
      "midi": 56,
      "hit": false,
      "t": 230125.31666666214,
      "d": 240.58555833331775,
      "v": 47
    },
    {
      "midi": 77,
      "hit": false,
      "t": 230125.31666666214,
      "d": 251.0457999999926,
      "v": 59
    },
    {
      "midi": 61,
      "hit": false,
      "t": 230125.31666666214,
      "d": 271.9662833333132,
      "v": 51
    },
    {
      "midi": 65,
      "hit": false,
      "t": 230125.31666666214,
      "d": 303.3470083333086,
      "v": 49
    },
    {
      "midi": 77,
      "hit": false,
      "t": 230543.72633332878,
      "d": 209.2048333333223,
      "v": 56
    },
    {
      "midi": 56,
      "hit": false,
      "t": 230543.72633332878,
      "d": 240.58555833331775,
      "v": 51
    },
    {
      "midi": 70,
      "hit": false,
      "t": 230543.72633332878,
      "d": 240.58555833331775,
      "v": 70
    },
    {
      "midi": 73,
      "hit": false,
      "t": 230543.72633332878,
      "d": 240.58555833331775,
      "v": 64
    },
    {
      "midi": 61,
      "hit": false,
      "t": 230543.72633332878,
      "d": 261.50604166663834,
      "v": 43
    },
    {
      "midi": 65,
      "hit": false,
      "t": 230543.72633332878,
      "d": 282.42652499995893,
      "v": 51
    },
    {
      "midi": 73,
      "hit": false,
      "t": 230962.1359999954,
      "d": 230.125316666672,
      "v": 70
    },
    {
      "midi": 56,
      "hit": false,
      "t": 230962.1359999954,
      "d": 271.9662833333423,
      "v": 63
    },
    {
      "midi": 61,
      "hit": false,
      "t": 230962.1359999954,
      "d": 282.42652500001714,
      "v": 60
    },
    {
      "midi": 70,
      "hit": false,
      "t": 230962.1359999954,
      "d": 292.886766666692,
      "v": 62
    },
    {
      "midi": 77,
      "hit": false,
      "t": 230962.1359999954,
      "d": 292.886766666692,
      "v": 54
    },
    {
      "midi": 65,
      "hit": false,
      "t": 230962.1359999954,
      "d": 324.2674916666874,
      "v": 48
    },
    {
      "midi": 56,
      "hit": false,
      "t": 231380.54566666207,
      "d": 219.66507499999716,
      "v": 58
    },
    {
      "midi": 61,
      "hit": false,
      "t": 231380.54566666207,
      "d": 240.58555833331775,
      "v": 51
    },
    {
      "midi": 77,
      "hit": false,
      "t": 231380.54566666207,
      "d": 251.0457999999926,
      "v": 56
    },
    {
      "midi": 70,
      "hit": false,
      "t": 231380.54566666207,
      "d": 261.50604166666744,
      "v": 56
    },
    {
      "midi": 65,
      "hit": false,
      "t": 231380.54566666207,
      "d": 271.9662833333423,
      "v": 51
    },
    {
      "midi": 73,
      "hit": false,
      "t": 231380.54566666207,
      "d": 303.3470083333377,
      "v": 58
    },
    {
      "midi": 65,
      "hit": false,
      "t": 231798.95533332875,
      "d": 251.0457999999926,
      "v": 35
    },
    {
      "midi": 70,
      "hit": false,
      "t": 231798.95533332875,
      "d": 251.0457999999926,
      "v": 66
    },
    {
      "midi": 73,
      "hit": false,
      "t": 231798.95533332875,
      "d": 271.9662833333132,
      "v": 68
    },
    {
      "midi": 56,
      "hit": false,
      "t": 231798.95533332875,
      "d": 303.3470083333086,
      "v": 52
    },
    {
      "midi": 77,
      "hit": false,
      "t": 231798.95533332875,
      "d": 303.3470083333086,
      "v": 58
    },
    {
      "midi": 61,
      "hit": false,
      "t": 231798.95533332875,
      "d": 324.2674916666292,
      "v": 44
    },
    {
      "midi": 58,
      "hit": false,
      "t": 232217.36499999536,
      "d": 930.9615083333338,
      "v": 54
    },
    {
      "midi": 67,
      "hit": false,
      "t": 232217.36499999536,
      "d": 1025.10368333332,
      "v": 42
    },
    {
      "midi": 63,
      "hit": false,
      "t": 232217.36499999536,
      "d": 1046.0241666666407,
      "v": 42
    },
    {
      "midi": 70,
      "hit": false,
      "t": 232217.36499999536,
      "d": 1056.4844083333155,
      "v": 70
    },
    {
      "midi": 73,
      "hit": false,
      "t": 232217.36499999536,
      "d": 1056.4844083333155,
      "v": 64
    },
    {
      "midi": 75,
      "hit": false,
      "t": 232217.36499999536,
      "d": 1056.4844083333155,
      "v": 67
    },
    {
      "midi": 63,
      "hit": false,
      "t": 233472.59399999536,
      "d": 983.2627166666789,
      "v": 60
    },
    {
      "midi": 73,
      "hit": false,
      "t": 233472.59399999536,
      "d": 1004.1831999999995,
      "v": 70
    },
    {
      "midi": 70,
      "hit": false,
      "t": 233472.59399999536,
      "d": 1025.10368333332,
      "v": 62
    },
    {
      "midi": 75,
      "hit": false,
      "t": 233472.59399999536,
      "d": 1025.10368333332,
      "v": 54
    },
    {
      "midi": 58,
      "hit": false,
      "t": 233472.59399999536,
      "d": 1046.0241666666407,
      "v": 63
    },
    {
      "midi": 67,
      "hit": false,
      "t": 233472.59399999536,
      "d": 1129.7060999999812,
      "v": 48
    },
    {
      "midi": 56,
      "hit": false,
      "t": 234727.82299999535,
      "d": 5020.915999999997,
      "v": 54
    },
    {
      "midi": 63,
      "hit": false,
      "t": 234727.82299999535,
      "d": 5020.915999999997,
      "v": 42
    },
    {
      "midi": 75,
      "hit": false,
      "t": 234727.82299999535,
      "d": 5020.915999999997,
      "v": 67
    },
    {
      "midi": 60,
      "hit": false,
      "t": 234727.82299999535,
      "d": 5041.836483333318,
      "v": 42
    },
    {
      "midi": 68,
      "hit": false,
      "t": 234727.82299999535,
      "d": 5041.836483333318,
      "v": 70
    },
    {
      "midi": 72,
      "hit": false,
      "t": 234727.82299999535,
      "d": 5083.677449999988,
      "v": 66
    }
  ]
}