{
  "jsonPath": "Country/Oklahoma Country/Cross Canadian Ragweed/lonely-girl.json",
  "path": "Country\\Oklahoma Country\\Cross Canadian Ragweed\\Lonely Girl.mid",
  "name": "Lonely Girl",
  "difficulty": "Advanced",
  "bpm": 58.05122052691158,
  "notes": [
    {
      "midi": 46,
      "hit": false,
      "t": 59923.72,
      "d": 143.56724583333562,
      "v": 96
    },
    {
      "midi": 46,
      "hit": false,
      "t": 60423.08433333334,
      "d": 143.56724583333562,
      "v": 21
    },
    {
      "midi": 46,
      "hit": false,
      "t": 60922.44866666668,
      "d": 131.08313749999797,
      "v": 30
    },
    {
      "midi": 46,
      "hit": false,
      "t": 61421.81300000001,
      "d": 124.84108333333279,
      "v": 96
    },
    {
      "midi": 46,
      "hit": false,
      "t": 61921.17733333334,
      "d": 140.44621875000303,
      "v": 40
    },
    {
      "midi": 46,
      "hit": false,
      "t": 62420.54166666668,
      "d": 109.23594791666983,
      "v": 51
    },
    {
      "midi": 46,
      "hit": false,
      "t": 62919.90600000002,
      "d": 102.99389374999737,
      "v": 106
    },
    {
      "midi": 46,
      "hit": false,
      "t": 63419.27033333335,
      "d": 118.5990291666676,
      "v": 34
    },
    {
      "midi": 46,
      "hit": false,
      "t": 63918.63466666668,
      "d": 115.47800208333501,
      "v": 48
    },
    {
      "midi": 46,
      "hit": false,
      "t": 64417.99900000002,
      "d": 109.23594791666983,
      "v": 106
    },
    {
      "midi": 46,
      "hit": false,
      "t": 64917.36333333336,
      "d": 109.23594791666983,
      "v": 33
    },
    {
      "midi": 46,
      "hit": false,
      "t": 65416.727666666695,
      "d": 102.99389374999737,
      "v": 56
    },
    {
      "midi": 46,
      "hit": false,
      "t": 65916.09200000002,
      "d": 115.47800208332774,
      "v": 100
    },
    {
      "midi": 46,
      "hit": false,
      "t": 66415.45633333335,
      "d": 118.5990291666676,
      "v": 25
    },
    {
      "midi": 46,
      "hit": false,
      "t": 66914.82066666668,
      "d": 87.38875833332713,
      "v": 69
    },
    {
      "midi": 46,
      "hit": false,
      "t": 67414.18500000001,
      "d": 96.75183958333218,
      "v": 112
    },
    {
      "midi": 46,
      "hit": false,
      "t": 67913.54933333334,
      "d": 87.38875833332713,
      "v": 60
    },
    {
      "midi": 46,
      "hit": false,
      "t": 68412.91366666667,
      "d": 81.14670416666195,
      "v": 77
    },
    {
      "midi": 42,
      "hit": false,
      "t": 68865.46259375001,
      "d": 109.23594791666255,
      "v": 2
    },
    {
      "midi": 46,
      "hit": false,
      "t": 68912.278,
      "d": 46.81540624999616,
      "v": 127
    },
    {
      "midi": 46,
      "hit": false,
      "t": 69411.64233333334,
      "d": 102.99389374999737,
      "v": 64
    },
    {
      "midi": 46,
      "hit": false,
      "t": 69911.00666666667,
      "d": 102.99389374999737,
      "v": 59
    },
    {
      "midi": 46,
      "hit": false,
      "t": 70410.371,
      "d": 109.23594791666255,
      "v": 106
    },
    {
      "midi": 46,
      "hit": false,
      "t": 70909.73533333333,
      "d": 124.84108333333279,
      "v": 38
    },
    {
      "midi": 46,
      "hit": false,
      "t": 71409.09966666666,
      "d": 115.47800208332774,
      "v": 46
    },
    {
      "midi": 46,
      "hit": false,
      "t": 71908.46399999999,
      "d": 102.99389374999737,
      "v": 119
    },
    {
      "midi": 46,
      "hit": false,
      "t": 72407.82833333332,
      "d": 115.47800208332774,
      "v": 68
    },
    {
      "midi": 46,
      "hit": false,
      "t": 72907.19266666665,
      "d": 102.99389374999737,
      "v": 80
    },
    {
      "midi": 46,
      "hit": false,
      "t": 73406.55699999999,
      "d": 109.23594791666255,
      "v": 110
    },
    {
      "midi": 46,
      "hit": false,
      "t": 73905.92133333332,
      "d": 96.75183958333218,
      "v": 66
    },
    {
      "midi": 46,
      "hit": false,
      "t": 74405.28566666665,
      "d": 99.87286666667205,
      "v": 69
    },
    {
      "midi": 46,
      "hit": false,
      "t": 74904.65,
      "d": 109.23594791666255,
      "v": 113
    },
    {
      "midi": 46,
      "hit": false,
      "t": 75404.01433333333,
      "d": 134.20416458333784,
      "v": 75
    },
    {
      "midi": 46,
      "hit": false,
      "t": 75903.37866666666,
      "d": 96.75183958333218,
      "v": 101
    },
    {
      "midi": 46,
      "hit": false,
      "t": 76402.74299999999,
      "d": 99.87286666667205,
      "v": 122
    },
    {
      "midi": 46,
      "hit": false,
      "t": 76902.10733333333,
      "d": 87.38875833332713,
      "v": 83
    },
    {
      "midi": 46,
      "hit": false,
      "t": 77401.47166666666,
      "d": 81.14670416666195,
      "v": 86
    },
    {
      "midi": 46,
      "hit": false,
      "t": 77900.836,
      "d": 99.87286666667205,
      "v": 113
    },
    {
      "midi": 46,
      "hit": false,
      "t": 78400.20033333334,
      "d": 84.26773125000182,
      "v": 92
    },
    {
      "midi": 46,
      "hit": false,
      "t": 78899.56466666667,
      "d": 96.75183958333218,
      "v": 98
    },
    {
      "midi": 46,
      "hit": false,
      "t": 79398.929,
      "d": 112.35697500000242,
      "v": 119
    },
    {
      "midi": 46,
      "hit": false,
      "t": 80897.02200000001,
      "d": 109.23594791666255,
      "v": 98
    },
    {
      "midi": 46,
      "hit": false,
      "t": 82894.47933333334,
      "d": 112.35697500000242,
      "v": 55
    },
    {
      "midi": 46,
      "hit": false,
      "t": 83893.208,
      "d": 187.26162499999919,
      "v": 93
    },
    {
      "midi": 46,
      "hit": false,
      "t": 84392.57233333333,
      "d": 146.6882729166682,
      "v": 48
    },
    {
      "midi": 46,
      "hit": false,
      "t": 84891.93666666666,
      "d": 146.6882729166682,
      "v": 55
    },
    {
      "midi": 46,
      "hit": false,
      "t": 85391.30099999999,
      "d": 171.65648958332895,
      "v": 80
    },
    {
      "midi": 46,
      "hit": false,
      "t": 85890.66533333332,
      "d": 149.80929999999353,
      "v": 48
    },
    {
      "midi": 46,
      "hit": false,
      "t": 86390.02966666665,
      "d": 143.56724583332834,
      "v": 66
    },
    {
      "midi": 46,
      "hit": false,
      "t": 86889.39399999999,
      "d": 177.89854374999413,
      "v": 88
    },
    {
      "midi": 46,
      "hit": false,
      "t": 87388.75833333332,
      "d": 140.44621875000303,
      "v": 53
    },
    {
      "midi": 46,
      "hit": false,
      "t": 87888.12266666665,
      "d": 134.20416458333784,
      "v": 66
    },
    {
      "midi": 46,
      "hit": false,
      "t": 88387.48699999998,
      "d": 159.17238124999858,
      "v": 93
    },
    {
      "midi": 46,
      "hit": false,
      "t": 88886.85133333331,
      "d": 134.20416458333784,
      "v": 66
    },
    {
      "midi": 46,
      "hit": false,
      "t": 89386.21566666664,
      "d": 131.08313749999797,
      "v": 64
    },
    {
      "midi": 46,
      "hit": false,
      "t": 89885.57999999997,
      "d": 149.80929999999353,
      "v": 105
    },
    {
      "midi": 46,
      "hit": false,
      "t": 90384.9443333333,
      "d": 127.96211041667266,
      "v": 62
    },
    {
      "midi": 46,
      "hit": false,
      "t": 90884.30866666665,
      "d": 174.77751666666882,
      "v": 77
    },
    {
      "midi": 46,
      "hit": false,
      "t": 91383.67299999998,
      "d": 187.26162499999919,
      "v": 93
    },
    {
      "midi": 46,
      "hit": false,
      "t": 91883.03733333331,
      "d": 127.96211041667266,
      "v": 62
    },
    {
      "midi": 46,
      "hit": false,
      "t": 92382.40166666666,
      "d": 127.96211041667266,
      "v": 66
    },
    {
      "midi": 46,
      "hit": false,
      "t": 92881.766,
      "d": 205.98778749999474,
      "v": 88
    },
    {
      "midi": 46,
      "hit": false,
      "t": 93381.13033333333,
      "d": 143.56724583332834,
      "v": 53
    },
    {
      "midi": 46,
      "hit": false,
      "t": 93880.49466666667,
      "d": 140.44621875000303,
      "v": 64
    },
    {
      "midi": 46,
      "hit": false,
      "t": 94379.859,
      "d": 146.6882729166682,
      "v": 88
    },
    {
      "midi": 46,
      "hit": false,
      "t": 94879.22333333333,
      "d": 124.84108333333279,
      "v": 57
    },
    {
      "midi": 46,
      "hit": false,
      "t": 95378.58766666666,
      "d": 65.54156875000626,
      "v": 50
    },
    {
      "midi": 46,
      "hit": false,
      "t": 95877.952,
      "d": 149.80929999999353,
      "v": 93
    },
    {
      "midi": 46,
      "hit": false,
      "t": 96377.31633333334,
      "d": 131.08313749999797,
      "v": 53
    },
    {
      "midi": 46,
      "hit": false,
      "t": 96876.68066666667,
      "d": 118.5990291666676,
      "v": 50
    },
    {
      "midi": 46,
      "hit": false,
      "t": 97376.045,
      "d": 162.29340833333845,
      "v": 83
    },
    {
      "midi": 46,
      "hit": false,
      "t": 97875.40933333334,
      "d": 127.96211041667266,
      "v": 55
    },
    {
      "midi": 46,
      "hit": false,
      "t": 98374.77366666669,
      "d": 134.20416458333784,
      "v": 60
    },
    {
      "midi": 46,
      "hit": false,
      "t": 98874.13800000002,
      "d": 227.83497708333016,
      "v": 83
    },
    {
      "midi": 46,
      "hit": false,
      "t": 99373.50233333335,
      "d": 131.08313749999797,
      "v": 57
    },
    {
      "midi": 46,
      "hit": false,
      "t": 99872.86666666668,
      "d": 149.80929999999353,
      "v": 57
    },
    {
      "midi": 46,
      "hit": false,
      "t": 100372.23100000001,
      "d": 174.77751666666882,
      "v": 83
    },
    {
      "midi": 46,
      "hit": false,
      "t": 100871.59533333335,
      "d": 140.44621875000303,
      "v": 60
    },
    {
      "midi": 46,
      "hit": false,
      "t": 101370.95966666668,
      "d": 146.6882729166682,
      "v": 62
    },
    {
      "midi": 46,
      "hit": false,
      "t": 101870.32400000001,
      "d": 162.29340833333845,
      "v": 88
    },
    {
      "midi": 46,
      "hit": false,
      "t": 102369.68833333335,
      "d": 134.20416458333784,
      "v": 53
    },
    {
      "midi": 46,
      "hit": false,
      "t": 102869.05266666668,
      "d": 127.96211041667266,
      "v": 64
    },
    {
      "midi": 47,
      "hit": false,
      "t": 102869.05266666668,
      "d": 149.80929999999353,
      "v": 11
    },
    {
      "midi": 35,
      "hit": false,
      "t": 102869.05266666668,
      "d": 165.41443541666376,
      "v": 8
    },
    {
      "midi": 47,
      "hit": false,
      "t": 103368.41700000002,
      "d": 156.05135416667326,
      "v": 51
    },
    {
      "midi": 35,
      "hit": false,
      "t": 103368.41700000002,
      "d": 181.019570833334,
      "v": 51
    },
    {
      "midi": 46,
      "hit": false,
      "t": 103368.41700000003,
      "d": 156.05135416667326,
      "v": 88
    },
    {
      "midi": 47,
      "hit": false,
      "t": 103867.78133333335,
      "d": 131.08313749999797,
      "v": 61
    },
    {
      "midi": 35,
      "hit": false,
      "t": 103867.78133333335,
      "d": 181.019570833334,
      "v": 61
    },
    {
      "midi": 46,
      "hit": false,
      "t": 103867.78133333338,
      "d": 140.44621875000303,
      "v": 60
    },
    {
      "midi": 47,
      "hit": false,
      "t": 104367.14566666668,
      "d": 112.35697500000242,
      "v": 71
    },
    {
      "midi": 35,
      "hit": false,
      "t": 104367.14566666668,
      "d": 181.019570833334,
      "v": 71
    },
    {
      "midi": 46,
      "hit": false,
      "t": 104367.1456666667,
      "d": 124.84108333333279,
      "v": 66
    },
    {
      "midi": 47,
      "hit": false,
      "t": 104866.51000000001,
      "d": 115.47800208332774,
      "v": 81
    },
    {
      "midi": 35,
      "hit": false,
      "t": 104866.51000000001,
      "d": 146.6882729166682,
      "v": 81
    },
    {
      "midi": 46,
      "hit": false,
      "t": 104866.51000000004,
      "d": 134.20416458333784,
      "v": 105
    },
    {
      "midi": 47,
      "hit": false,
      "t": 105365.87433333334,
      "d": 109.23594791666255,
      "v": 91
    },
    {
      "midi": 35,
      "hit": false,
      "t": 105365.87433333334,
      "d": 143.56724583332834,
      "v": 91
    },
    {
      "midi": 46,
      "hit": false,
      "t": 105365.87433333337,
      "d": 118.5990291666676,
      "v": 60
    },
    {
      "midi": 47,
      "hit": false,
      "t": 105865.23866666667,
      "d": 99.87286666667205,
      "v": 100
    },
    {
      "midi": 35,
      "hit": false,
      "t": 105865.23866666667,
      "d": 102.99389375001192,
      "v": 100
    },
    {
      "midi": 46,
      "hit": false,
      "t": 105865.2386666667,
      "d": 134.20416458333784,
      "v": 71
    },
    {
      "midi": 47,
      "hit": false,
      "t": 106364.60300000002,
      "d": 96.75183958333218,
      "v": 110
    },
    {
      "midi": 35,
      "hit": false,
      "t": 106364.60300000002,
      "d": 99.87286666667205,
      "v": 110
    },
    {
      "midi": 46,
      "hit": false,
      "t": 106364.60300000003,
      "d": 124.84108333333279,
      "v": 105
    },
    {
      "midi": 46,
      "hit": false,
      "t": 106863.96733333336,
      "d": 93.63081250000687,
      "v": 69
    },
    {
      "midi": 35,
      "hit": false,
      "t": 106863.96733333336,
      "d": 96.75183958333218,
      "v": 120
    },
    {
      "midi": 47,
      "hit": false,
      "t": 106863.96733333336,
      "d": 99.87286666667205,
      "v": 120
    },
    {
      "midi": 46,
      "hit": false,
      "t": 107363.33166666671,
      "d": 81.14670416666195,
      "v": 40
    },
    {
      "midi": 35,
      "hit": false,
      "t": 107363.33166666671,
      "d": 383.8863312500034,
      "v": 127
    },
    {
      "midi": 47,
      "hit": false,
      "t": 107363.33166666671,
      "d": 390.1283854166686,
      "v": 127
    },
    {
      "midi": 64,
      "hit": false,
      "t": 107862.69600000004,
      "d": 349.5550333333231,
      "v": 127
    },
    {
      "midi": 68,
      "hit": false,
      "t": 107862.69600000004,
      "d": 349.5550333333231,
      "v": 127
    },
    {
      "midi": 71,
      "hit": false,
      "t": 107862.69600000004,
      "d": 349.5550333333231,
      "v": 127
    },
    {
      "midi": 64,
      "hit": false,
      "t": 108362.06033333336,
      "d": 349.55503333333763,
      "v": 115
    },
    {
      "midi": 68,
      "hit": false,
      "t": 108362.06033333336,
      "d": 349.55503333333763,
      "v": 115
    },
    {
      "midi": 71,
      "hit": false,
      "t": 108362.06033333336,
      "d": 349.55503333333763,
      "v": 115
    },
    {
      "midi": 64,
      "hit": false,
      "t": 108861.42466666669,
      "d": 349.55503333333763,
      "v": 105
    },
    {
      "midi": 68,
      "hit": false,
      "t": 108861.42466666669,
      "d": 349.55503333333763,
      "v": 105
    },
    {
      "midi": 71,
      "hit": false,
      "t": 108861.42466666669,
      "d": 349.55503333333763,
      "v": 105
    },
    {
      "midi": 64,
      "hit": false,
      "t": 109360.78900000002,
      "d": 349.55503333333763,
      "v": 127
    },
    {
      "midi": 68,
      "hit": false,
      "t": 109360.78900000002,
      "d": 349.55503333333763,
      "v": 127
    },
    {
      "midi": 71,
      "hit": false,
      "t": 109360.78900000002,
      "d": 349.55503333333763,
      "v": 127
    },
    {
      "midi": 64,
      "hit": false,
      "t": 109860.15333333335,
      "d": 349.55503333333763,
      "v": 112
    },
    {
      "midi": 68,
      "hit": false,
      "t": 109860.15333333335,
      "d": 349.55503333333763,
      "v": 112
    },
    {
      "midi": 71,
      "hit": false,
      "t": 109860.15333333335,
      "d": 349.55503333333763,
      "v": 100
    },
    {
      "midi": 64,
      "hit": false,
      "t": 110359.51766666668,
      "d": 349.55503333333763,
      "v": 100
    },
    {
      "midi": 68,
      "hit": false,
      "t": 110359.51766666668,
      "d": 349.55503333333763,
      "v": 100
    },
    {
      "midi": 71,
      "hit": false,
      "t": 110359.51766666668,
      "d": 349.55503333333763,
      "v": 100
    },
    {
      "midi": 63,
      "hit": false,
      "t": 110858.88200000001,
      "d": 349.55503333333763,
      "v": 127
    },
    {
      "midi": 66,
      "hit": false,
      "t": 110858.88200000001,
      "d": 349.55503333333763,
      "v": 127
    },
    {
      "midi": 71,
      "hit": false,
      "t": 110858.88200000001,
      "d": 349.55503333333763,
      "v": 127
    },
    {
      "midi": 63,
      "hit": false,
      "t": 111358.24633333334,
      "d": 349.55503333333763,
      "v": 118
    },
    {
      "midi": 66,
      "hit": false,
      "t": 111358.24633333334,
      "d": 349.55503333333763,
      "v": 118
    },
    {
      "midi": 71,
      "hit": false,
      "t": 111358.24633333334,
      "d": 349.55503333333763,
      "v": 118
    },
    {
      "midi": 63,
      "hit": false,
      "t": 111857.61066666667,
      "d": 349.55503333333763,
      "v": 108
    },
    {
      "midi": 66,
      "hit": false,
      "t": 111857.61066666667,
      "d": 349.55503333333763,
      "v": 108
    },
    {
      "midi": 71,
      "hit": false,
      "t": 111857.61066666667,
      "d": 349.55503333333763,
      "v": 108
    },
    {
      "midi": 63,
      "hit": false,
      "t": 112356.975,
      "d": 349.55503333333763,
      "v": 127
    },
    {
      "midi": 66,
      "hit": false,
      "t": 112356.975,
      "d": 349.55503333333763,
      "v": 127
    },
    {
      "midi": 71,
      "hit": false,
      "t": 112356.975,
      "d": 349.55503333333763,
      "v": 100
    },
    {
      "midi": 63,
      "hit": false,
      "t": 112856.33933333334,
      "d": 349.55503333333763,
      "v": 118
    },
    {
      "midi": 66,
      "hit": false,
      "t": 112856.33933333334,
      "d": 349.55503333333763,
      "v": 118
    },
    {
      "midi": 71,
      "hit": false,
      "t": 112856.33933333334,
      "d": 349.55503333333763,
      "v": 118
    },
    {
      "midi": 63,
      "hit": false,
      "t": 113355.70366666667,
      "d": 349.55503333333763,
      "v": 110
    },
    {
      "midi": 66,
      "hit": false,
      "t": 113355.70366666667,
      "d": 349.55503333333763,
      "v": 110
    },
    {
      "midi": 71,
      "hit": false,
      "t": 113355.70366666667,
      "d": 349.55503333333763,
      "v": 110
    },
    {
      "midi": 64,
      "hit": false,
      "t": 113855.068,
      "d": 349.55503333333763,
      "v": 127
    },
    {
      "midi": 68,
      "hit": false,
      "t": 113855.068,
      "d": 349.55503333333763,
      "v": 127
    },
    {
      "midi": 73,
      "hit": false,
      "t": 113855.068,
      "d": 349.55503333333763,
      "v": 127
    },
    {
      "midi": 64,
      "hit": false,
      "t": 114354.43233333333,
      "d": 349.55503333333763,
      "v": 113
    },
    {
      "midi": 68,
      "hit": false,
      "t": 114354.43233333333,
      "d": 349.55503333333763,
      "v": 113
    },
    {
      "midi": 73,
      "hit": false,
      "t": 114354.43233333333,
      "d": 349.55503333333763,
      "v": 113
    },
    {
      "midi": 64,
      "hit": false,
      "t": 114853.79666666666,
      "d": 349.55503333333763,
      "v": 94
    },
    {
      "midi": 68,
      "hit": false,
      "t": 114853.79666666666,
      "d": 349.55503333333763,
      "v": 100
    },
    {
      "midi": 73,
      "hit": false,
      "t": 114853.79666666666,
      "d": 349.55503333333763,
      "v": 106
    },
    {
      "midi": 64,
      "hit": false,
      "t": 115353.161,
      "d": 349.55503333333763,
      "v": 112
    },
    {
      "midi": 68,
      "hit": false,
      "t": 115353.161,
      "d": 349.55503333333763,
      "v": 127
    },
    {
      "midi": 73,
      "hit": false,
      "t": 115353.161,
      "d": 349.55503333333763,
      "v": 127
    },
    {
      "midi": 64,
      "hit": false,
      "t": 115852.52533333332,
      "d": 349.55503333333763,
      "v": 100
    },
    {
      "midi": 68,
      "hit": false,
      "t": 115852.52533333332,
      "d": 349.55503333333763,
      "v": 112
    },
    {
      "midi": 73,
      "hit": false,
      "t": 115852.52533333332,
      "d": 349.55503333333763,
      "v": 112
    },
    {
      "midi": 64,
      "hit": false,
      "t": 116351.88966666666,
      "d": 349.55503333333763,
      "v": 100
    },
    {
      "midi": 68,
      "hit": false,
      "t": 116351.88966666666,
      "d": 349.55503333333763,
      "v": 106
    },
    {
      "midi": 73,
      "hit": false,
      "t": 116351.88966666666,
      "d": 349.55503333333763,
      "v": 100
    },
    {
      "midi": 64,
      "hit": false,
      "t": 116851.25399999999,
      "d": 349.55503333333763,
      "v": 112
    },
    {
      "midi": 69,
      "hit": false,
      "t": 116851.25399999999,
      "d": 349.55503333333763,
      "v": 127
    },
    {
      "midi": 73,
      "hit": false,
      "t": 116851.25399999999,
      "d": 349.55503333333763,
      "v": 127
    },
    {
      "midi": 64,
      "hit": false,
      "t": 117350.61833333332,
      "d": 349.55503333333763,
      "v": 94
    },
    {
      "midi": 69,
      "hit": false,
      "t": 117350.61833333332,
      "d": 349.55503333333763,
      "v": 100
    },
    {
      "midi": 73,
      "hit": false,
      "t": 117350.61833333332,
      "d": 349.55503333333763,
      "v": 106
    },
    {
      "midi": 64,
      "hit": false,
      "t": 117849.98266666665,
      "d": 349.55503333333763,
      "v": 94
    },
    {
      "midi": 69,
      "hit": false,
      "t": 117849.98266666665,
      "d": 349.55503333333763,
      "v": 112
    },
    {
      "midi": 73,
      "hit": false,
      "t": 117849.98266666665,
      "d": 349.55503333333763,
      "v": 127
    },
    {
      "midi": 64,
      "hit": false,
      "t": 118349.34699999998,
      "d": 349.55503333333763,
      "v": 92
    },
    {
      "midi": 69,
      "hit": false,
      "t": 118349.34699999998,
      "d": 349.55503333333763,
      "v": 100
    },
    {
      "midi": 73,
      "hit": false,
      "t": 118349.34699999998,
      "d": 349.55503333333763,
      "v": 106
    },
    {
      "midi": 64,
      "hit": false,
      "t": 118848.71133333331,
      "d": 349.55503333333763,
      "v": 127
    },
    {
      "midi": 69,
      "hit": false,
      "t": 118848.71133333331,
      "d": 349.55503333333763,
      "v": 127
    },
    {
      "midi": 73,
      "hit": false,
      "t": 118848.71133333331,
      "d": 349.55503333333763,
      "v": 127
    },
    {
      "midi": 64,
      "hit": false,
      "t": 119348.07566666664,
      "d": 349.55503333333763,
      "v": 94
    },
    {
      "midi": 69,
      "hit": false,
      "t": 119348.07566666664,
      "d": 349.55503333333763,
      "v": 112
    },
    {
      "midi": 73,
      "hit": false,
      "t": 119348.07566666664,
      "d": 349.55503333333763,
      "v": 127
    },
    {
      "midi": 64,
      "hit": false,
      "t": 119847.43999999997,
      "d": 349.55503333333763,
      "v": 112
    },
    {
      "midi": 68,
      "hit": false,
      "t": 119847.43999999997,
      "d": 349.55503333333763,
      "v": 127
    },
    {
      "midi": 71,
      "hit": false,
      "t": 119847.43999999997,
      "d": 349.55503333333763,
      "v": 112
    },
    {
      "midi": 64,
      "hit": false,
      "t": 120346.8043333333,
      "d": 349.55503333333763,
      "v": 90
    },
    {
      "midi": 68,
      "hit": false,
      "t": 120346.8043333333,
      "d": 349.55503333333763,
      "v": 86
    },
    {
      "midi": 71,
      "hit": false,
      "t": 120346.8043333333,
      "d": 349.55503333333763,
      "v": 87
    },
    {
      "midi": 64,
      "hit": false,
      "t": 120846.16866666664,
      "d": 349.55503333333763,
      "v": 97
    },
    {
      "midi": 68,
      "hit": false,
      "t": 120846.16866666664,
      "d": 349.55503333333763,
      "v": 96
    },
    {
      "midi": 71,
      "hit": false,
      "t": 120846.16866666664,
      "d": 349.55503333333763,
      "v": 90
    },
    {
      "midi": 64,
      "hit": false,
      "t": 121345.53299999997,
      "d": 349.55503333333763,
      "v": 123
    },
    {
      "midi": 68,
      "hit": false,
      "t": 121345.53299999997,
      "d": 349.55503333333763,
      "v": 123
    },
    {
      "midi": 71,
      "hit": false,
      "t": 121345.53299999997,
      "d": 349.55503333333763,
      "v": 123
    },
    {
      "midi": 64,
      "hit": false,
      "t": 121844.8973333333,
      "d": 349.55503333333763,
      "v": 112
    },
    {
      "midi": 68,
      "hit": false,
      "t": 121844.8973333333,
      "d": 349.55503333333763,
      "v": 112
    },
    {
      "midi": 71,
      "hit": false,
      "t": 121844.8973333333,
      "d": 349.55503333333763,
      "v": 112
    },
    {
      "midi": 64,
      "hit": false,
      "t": 122344.26166666663,
      "d": 349.55503333333763,
      "v": 108
    },
    {
      "midi": 66,
      "hit": false,
      "t": 122344.26166666663,
      "d": 349.55503333333763,
      "v": 108
    },
    {
      "midi": 71,
      "hit": false,
      "t": 122344.26166666663,
      "d": 349.55503333333763,
      "v": 108
    },
    {
      "midi": 63,
      "hit": false,
      "t": 122843.62599999996,
      "d": 349.55503333333763,
      "v": 127
    },
    {
      "midi": 66,
      "hit": false,
      "t": 122843.62599999996,
      "d": 349.55503333333763,
      "v": 127
    },
    {
      "midi": 71,
      "hit": false,
      "t": 122843.62599999996,
      "d": 349.55503333333763,
      "v": 100
    },
    {
      "midi": 63,
      "hit": false,
      "t": 123342.99033333329,
      "d": 349.55503333333763,
      "v": 93
    },
    {
      "midi": 66,
      "hit": false,
      "t": 123342.99033333329,
      "d": 349.55503333333763,
      "v": 106
    },
    {
      "midi": 71,
      "hit": false,
      "t": 123342.99033333329,
      "d": 349.55503333333763,
      "v": 90
    },
    {
      "midi": 63,
      "hit": false,
      "t": 123842.35466666662,
      "d": 349.55503333333763,
      "v": 96
    },
    {
      "midi": 66,
      "hit": false,
      "t": 123842.35466666662,
      "d": 349.55503333333763,
      "v": 106
    },
    {
      "midi": 71,
      "hit": false,
      "t": 123842.35466666662,
      "d": 349.55503333333763,
      "v": 90
    },
    {
      "midi": 63,
      "hit": false,
      "t": 124341.71899999995,
      "d": 349.55503333333763,
      "v": 106
    },
    {
      "midi": 66,
      "hit": false,
      "t": 124341.71899999995,
      "d": 349.55503333333763,
      "v": 127
    },
    {
      "midi": 71,
      "hit": false,
      "t": 124341.71899999995,
      "d": 349.55503333333763,
      "v": 94
    },
    {
      "midi": 63,
      "hit": false,
      "t": 124841.08333333328,
      "d": 349.55503333333763,
      "v": 93
    },
    {
      "midi": 66,
      "hit": false,
      "t": 124841.08333333328,
      "d": 349.55503333333763,
      "v": 106
    },
    {
      "midi": 71,
      "hit": false,
      "t": 124841.08333333328,
      "d": 349.55503333333763,
      "v": 83
    },
    {
      "midi": 63,
      "hit": false,
      "t": 125340.44766666662,
      "d": 349.55503333333763,
      "v": 100
    },
    {
      "midi": 66,
      "hit": false,
      "t": 125340.44766666662,
      "d": 349.55503333333763,
      "v": 93
    },
    {
      "midi": 71,
      "hit": false,
      "t": 125340.44766666662,
      "d": 349.55503333333763,
      "v": 85
    },
    {
      "midi": 64,
      "hit": false,
      "t": 125792.99659374995,
      "d": 5873.772970833335,
      "v": 127
    },
    {
      "midi": 59,
      "hit": false,
      "t": 125839.81199999995,
      "d": 5873.77297083335,
      "v": 112
    },
    {
      "midi": 61,
      "hit": false,
      "t": 125839.81199999995,
      "d": 5876.89399791669,
      "v": 94
    },
    {
      "midi": 46,
      "hit": false,
      "t": 131832.18400000007,
      "d": 143.5672458333429,
      "v": 96
    },
    {
      "midi": 46,
      "hit": false,
      "t": 132331.5483333334,
      "d": 143.5672458333429,
      "v": 21
    },
    {
      "midi": 46,
      "hit": false,
      "t": 132830.91266666673,
      "d": 131.08313750001253,
      "v": 30
    },
    {
      "midi": 46,
      "hit": false,
      "t": 133330.2770000001,
      "d": 124.84108333333279,
      "v": 96
    },
    {
      "midi": 46,
      "hit": false,
      "t": 133829.64133333342,
      "d": 140.44621875000303,
      "v": 40
    },
    {
      "midi": 46,
      "hit": false,
      "t": 134329.00566666675,
      "d": 109.23594791666255,
      "v": 51
    },
    {
      "midi": 46,
      "hit": false,
      "t": 134828.37000000008,
      "d": 102.99389375001192,
      "v": 106
    },
    {
      "midi": 46,
      "hit": false,
      "t": 135327.7343333334,
      "d": 118.59902916665305,
      "v": 34
    },
    {
      "midi": 46,
      "hit": false,
      "t": 135827.09866666674,
      "d": 115.47800208334229,
      "v": 48
    },
    {
      "midi": 46,
      "hit": false,
      "t": 136326.46300000008,
      "d": 109.23594791666255,
      "v": 106
    },
    {
      "midi": 46,
      "hit": false,
      "t": 136825.8273333334,
      "d": 109.23594791666255,
      "v": 33
    },
    {
      "midi": 46,
      "hit": false,
      "t": 137325.19166666674,
      "d": 102.99389375001192,
      "v": 56
    },
    {
      "midi": 46,
      "hit": false,
      "t": 137824.55600000007,
      "d": 115.47800208334229,
      "v": 100
    },
    {
      "midi": 46,
      "hit": false,
      "t": 138323.9203333334,
      "d": 118.59902916665305,
      "v": 25
    },
    {
      "midi": 46,
      "hit": false,
      "t": 138823.28466666673,
      "d": 87.38875833334168,
      "v": 69
    },
    {
      "midi": 46,
      "hit": false,
      "t": 139322.64900000006,
      "d": 96.75183958333218,
      "v": 112
    },
    {
      "midi": 46,
      "hit": false,
      "t": 139822.0133333334,
      "d": 87.38875833334168,
      "v": 60
    },
    {
      "midi": 46,
      "hit": false,
      "t": 140321.37766666673,
      "d": 81.14670416666195,
      "v": 77
    },
    {
      "midi": 42,
      "hit": false,
      "t": 140773.92659375005,
      "d": 109.23594791669166,
      "v": 2
    },
    {
      "midi": 46,
      "hit": false,
      "t": 140820.74200000006,
      "d": 46.81540625001071,
      "v": 127
    },
    {
      "midi": 46,
      "hit": false,
      "t": 141320.10633333342,
      "d": 102.99389375001192,
      "v": 64
    },
    {
      "midi": 46,
      "hit": false,
      "t": 141819.47066666675,
      "d": 102.99389375001192,
      "v": 59
    },
    {
      "midi": 46,
      "hit": false,
      "t": 142318.83500000008,
      "d": 109.23594791666255,
      "v": 106
    },
    {
      "midi": 46,
      "hit": false,
      "t": 142818.1993333334,
      "d": 124.84108333333279,
      "v": 38
    },
    {
      "midi": 46,
      "hit": false,
      "t": 143317.56366666674,
      "d": 115.47800208334229,
      "v": 46
    },
    {
      "midi": 46,
      "hit": false,
      "t": 143816.92800000007,
      "d": 102.99389375001192,
      "v": 119
    },
    {
      "midi": 46,
      "hit": false,
      "t": 144316.2923333334,
      "d": 115.47800208334229,
      "v": 68
    },
    {
      "midi": 46,
      "hit": false,
      "t": 144815.65666666673,
      "d": 102.99389375001192,
      "v": 80
    },
    {
      "midi": 46,
      "hit": false,
      "t": 145315.02100000007,
      "d": 109.23594791666255,
      "v": 110
    },
    {
      "midi": 46,
      "hit": false,
      "t": 145814.3853333334,
      "d": 96.75183958333218,
      "v": 66
    },
    {
      "midi": 46,
      "hit": false,
      "t": 146313.74966666673,
      "d": 99.87286666667205,
      "v": 69
    },
    {
      "midi": 46,
      "hit": false,
      "t": 146813.11400000006,
      "d": 109.23594791666255,
      "v": 113
    },
    {
      "midi": 46,
      "hit": false,
      "t": 147312.4783333334,
      "d": 134.2041645833233,
      "v": 75
    },
    {
      "midi": 46,
      "hit": false,
      "t": 147811.84266666672,
      "d": 96.75183958333218,
      "v": 101
    },
    {
      "midi": 46,
      "hit": false,
      "t": 148311.20700000005,
      "d": 99.87286666667205,
      "v": 122
    },
    {
      "midi": 46,
      "hit": false,
      "t": 148810.57133333338,
      "d": 87.38875833334168,
      "v": 83
    },
    {
      "midi": 46,
      "hit": false,
      "t": 149309.93566666672,
      "d": 81.14670416666195,
      "v": 86
    },
    {
      "midi": 46,
      "hit": false,
      "t": 149809.30000000005,
      "d": 99.87286666667205,
      "v": 113
    },
    {
      "midi": 46,
      "hit": false,
      "t": 150308.66433333338,
      "d": 84.26773125000182,
      "v": 92
    },
    {
      "midi": 46,
      "hit": false,
      "t": 150808.0286666667,
      "d": 96.75183958333218,
      "v": 98
    },
    {
      "midi": 46,
      "hit": false,
      "t": 151307.39300000004,
      "d": 99.87286666667205,
      "v": 113
    },
    {
      "midi": 46,
      "hit": false,
      "t": 151806.75733333337,
      "d": 84.26773125000182,
      "v": 92
    },
    {
      "midi": 46,
      "hit": false,
      "t": 152306.1216666667,
      "d": 96.75183958333218,
      "v": 98
    },
    {
      "midi": 46,
      "hit": false,
      "t": 152805.48600000003,
      "d": 99.87286666667205,
      "v": 113
    },
    {
      "midi": 46,
      "hit": false,
      "t": 153304.85033333336,
      "d": 84.26773125000182,
      "v": 92
    },
    {
      "midi": 46,
      "hit": false,
      "t": 153804.2146666667,
      "d": 96.75183958333218,
      "v": 79
    },
    {
      "midi": 46,
      "hit": false,
      "t": 154303.57900000003,
      "d": 112.35697500000242,
      "v": 127
    },
    {
      "midi": 46,
      "hit": false,
      "t": 155801.67200000002,
      "d": 143.5672458333429,
      "v": 96
    },
    {
      "midi": 46,
      "hit": false,
      "t": 156301.03633333335,
      "d": 143.5672458333429,
      "v": 21
    },
    {
      "midi": 46,
      "hit": false,
      "t": 156800.40066666668,
      "d": 131.08313750001253,
      "v": 30
    },
    {
      "midi": 46,
      "hit": false,
      "t": 157299.76500000004,
      "d": 124.84108333333279,
      "v": 96
    },
    {
      "midi": 46,
      "hit": false,
      "t": 157799.12933333337,
      "d": 140.44621875000303,
      "v": 40
    },
    {
      "midi": 46,
      "hit": false,
      "t": 158298.4936666667,
      "d": 109.23594791666255,
      "v": 51
    },
    {
      "midi": 46,
      "hit": false,
      "t": 158797.85800000004,
      "d": 102.99389375001192,
      "v": 106
    },
    {
      "midi": 46,
      "hit": false,
      "t": 159297.22233333337,
      "d": 118.59902916665305,
      "v": 34
    },
    {
      "midi": 46,
      "hit": false,
      "t": 159796.5866666667,
      "d": 115.47800208334229,
      "v": 48
    },
    {
      "midi": 46,
      "hit": false,
      "t": 160295.95100000003,
      "d": 109.23594791666255,
      "v": 106
    },
    {
      "midi": 46,
      "hit": false,
      "t": 160795.31533333336,
      "d": 109.23594791666255,
      "v": 33
    },
    {
      "midi": 46,
      "hit": false,
      "t": 161294.6796666667,
      "d": 102.99389375001192,
      "v": 56
    },
    {
      "midi": 46,
      "hit": false,
      "t": 161794.04400000002,
      "d": 115.47800208334229,
      "v": 100
    },
    {
      "midi": 46,
      "hit": false,
      "t": 162293.40833333335,
      "d": 118.59902916665305,
      "v": 25
    },
    {
      "midi": 46,
      "hit": false,
      "t": 162792.7726666667,
      "d": 87.38875833334168,
      "v": 69
    },
    {
      "midi": 46,
      "hit": false,
      "t": 163292.13700000002,
      "d": 96.75183958333218,
      "v": 112
    },
    {
      "midi": 46,
      "hit": false,
      "t": 163791.50133333335,
      "d": 87.38875833334168,
      "v": 60
    },
    {
      "midi": 46,
      "hit": false,
      "t": 164290.86566666668,
      "d": 81.14670416666195,
      "v": 77
    },
    {
      "midi": 42,
      "hit": false,
      "t": 164743.41459375,
      "d": 109.23594791669166,
      "v": 2
    },
    {
      "midi": 46,
      "hit": false,
      "t": 164790.23,
      "d": 46.81540625001071,
      "v": 127
    },
    {
      "midi": 46,
      "hit": false,
      "t": 165289.59433333337,
      "d": 102.99389375001192,
      "v": 64
    },
    {
      "midi": 46,
      "hit": false,
      "t": 165788.9586666667,
      "d": 102.99389375001192,
      "v": 59
    },
    {
      "midi": 46,
      "hit": false,
      "t": 166288.32300000003,
      "d": 109.23594791666255,
      "v": 106
    },
    {
      "midi": 46,
      "hit": false,
      "t": 166787.68733333336,
      "d": 124.84108333333279,
      "v": 38
    },
    {
      "midi": 46,
      "hit": false,
      "t": 167287.0516666667,
      "d": 115.47800208334229,
      "v": 46
    },
    {
      "midi": 46,
      "hit": false,
      "t": 167786.41600000003,
      "d": 102.99389375001192,
      "v": 119
    },
    {
      "midi": 46,
      "hit": false,
      "t": 168285.78033333336,
      "d": 115.47800208334229,
      "v": 68
    },
    {
      "midi": 46,
      "hit": false,
      "t": 168785.1446666667,
      "d": 102.99389375001192,
      "v": 80
    },
    {
      "midi": 46,
      "hit": false,
      "t": 169284.50900000002,
      "d": 109.23594791666255,
      "v": 110
    },
    {
      "midi": 46,
      "hit": false,
      "t": 169783.87333333335,
      "d": 96.75183958333218,
      "v": 66
    },
    {
      "midi": 46,
      "hit": false,
      "t": 170283.23766666668,
      "d": 99.87286666667205,
      "v": 69
    },
    {
      "midi": 46,
      "hit": false,
      "t": 170782.602,
      "d": 109.23594791666255,
      "v": 113
    },
    {
      "midi": 46,
      "hit": false,
      "t": 171281.96633333334,
      "d": 134.2041645833233,
      "v": 75
    },
    {
      "midi": 46,
      "hit": false,
      "t": 171781.33066666668,
      "d": 96.75183958333218,
      "v": 101
    },
    {
      "midi": 46,
      "hit": false,
      "t": 172280.695,
      "d": 99.87286666667205,
      "v": 122
    },
    {
      "midi": 46,
      "hit": false,
      "t": 172780.05933333334,
      "d": 87.38875833334168,
      "v": 83
    },
    {
      "midi": 46,
      "hit": false,
      "t": 173279.42366666667,
      "d": 81.14670416666195,
      "v": 86
    },
    {
      "midi": 46,
      "hit": false,
      "t": 173778.788,
      "d": 99.87286666667205,
      "v": 113
    },
    {
      "midi": 46,
      "hit": false,
      "t": 174278.15233333333,
      "d": 84.26773125000182,
      "v": 92
    },
    {
      "midi": 46,
      "hit": false,
      "t": 174777.51666666666,
      "d": 96.75183958333218,
      "v": 98
    },
    {
      "midi": 46,
      "hit": false,
      "t": 175276.881,
      "d": 112.35697500000242,
      "v": 119
    },
    {
      "midi": 46,
      "hit": false,
      "t": 176774.974,
      "d": 109.23594791666255,
      "v": 98
    },
    {
      "midi": 46,
      "hit": false,
      "t": 178772.4313333333,
      "d": 112.35697500000242,
      "v": 55
    },
    {
      "midi": 46,
      "hit": false,
      "t": 179771.15999999997,
      "d": 187.26162500001374,
      "v": 93
    },
    {
      "midi": 46,
      "hit": false,
      "t": 180270.52433333333,
      "d": 146.68827291665366,
      "v": 48
    },
    {
      "midi": 46,
      "hit": false,
      "t": 180769.88866666667,
      "d": 146.68827291665366,
      "v": 55
    },
    {
      "midi": 46,
      "hit": false,
      "t": 181269.253,
      "d": 171.6564895833435,
      "v": 80
    },
    {
      "midi": 46,
      "hit": false,
      "t": 181768.61733333333,
      "d": 149.80929999999353,
      "v": 48
    },
    {
      "midi": 46,
      "hit": false,
      "t": 182267.98166666666,
      "d": 143.5672458333429,
      "v": 66
    },
    {
      "midi": 46,
      "hit": false,
      "t": 182767.346,
      "d": 177.89854374999413,
      "v": 88
    },
    {
      "midi": 46,
      "hit": false,
      "t": 183266.71033333332,
      "d": 140.44621875000303,
      "v": 53
    },
    {
      "midi": 46,
      "hit": false,
      "t": 183766.07466666665,
      "d": 134.2041645833233,
      "v": 66
    },
    {
      "midi": 46,
      "hit": false,
      "t": 184265.43899999998,
      "d": 159.17238125001313,
      "v": 93
    },
    {
      "midi": 46,
      "hit": false,
      "t": 184764.80333333334,
      "d": 134.2041645833233,
      "v": 66
    },
    {
      "midi": 46,
      "hit": false,
      "t": 185264.16766666668,
      "d": 131.08313750001253,
      "v": 64
    },
    {
      "midi": 46,
      "hit": false,
      "t": 185763.53200000004,
      "d": 149.80929999999353,
      "v": 105
    },
    {
      "midi": 46,
      "hit": false,
      "t": 186262.89633333337,
      "d": 127.96211041667266,
      "v": 62
    },
    {
      "midi": 46,
      "hit": false,
      "t": 186762.2606666667,
      "d": 174.77751666665426,
      "v": 77
    },
    {
      "midi": 46,
      "hit": false,
      "t": 187261.62500000003,
      "d": 187.26162500001374,
      "v": 93
    },
    {
      "midi": 46,
      "hit": false,
      "t": 187760.9893333334,
      "d": 127.96211041667266,
      "v": 62
    },
    {
      "midi": 46,
      "hit": false,
      "t": 188260.35366666672,
      "d": 127.96211041667266,
      "v": 66
    },
    {
      "midi": 46,
      "hit": false,
      "t": 188759.71800000005,
      "d": 205.98778749999474,
      "v": 88
    },
    {
      "midi": 46,
      "hit": false,
      "t": 189259.08233333338,
      "d": 143.5672458333429,
      "v": 53
    },
    {
      "midi": 46,
      "hit": false,
      "t": 189758.4466666667,
      "d": 140.44621875000303,
      "v": 64
    },
    {
      "midi": 46,
      "hit": false,
      "t": 190257.81100000005,
      "d": 146.68827291665366,
      "v": 88
    },
    {
      "midi": 46,
      "hit": false,
      "t": 190757.17533333338,
      "d": 124.84108333333279,
      "v": 57
    },
    {
      "midi": 46,
      "hit": false,
      "t": 191256.5396666667,
      "d": 65.54156874999171,
      "v": 50
    },
    {
      "midi": 46,
      "hit": false,
      "t": 191755.90400000004,
      "d": 149.80929999999353,
      "v": 93
    },
    {
      "midi": 46,
      "hit": false,
      "t": 192255.26833333337,
      "d": 131.08313750001253,
      "v": 53
    },
    {
      "midi": 46,
      "hit": false,
      "t": 192754.63266666673,
      "d": 118.59902916665305,
      "v": 50
    },
    {
      "midi": 46,
      "hit": false,
      "t": 193253.99700000006,
      "d": 162.2934083333239,
      "v": 83
    },
    {
      "midi": 46,
      "hit": false,
      "t": 193753.3613333334,
      "d": 127.96211041667266,
      "v": 55
    },
    {
      "midi": 46,
      "hit": false,
      "t": 194252.72566666672,
      "d": 134.2041645833233,
      "v": 60
    },
    {
      "midi": 46,
      "hit": false,
      "t": 194752.09000000005,
      "d": 227.8349770833447,
      "v": 83
    },
    {
      "midi": 46,
      "hit": false,
      "t": 195251.4543333334,
      "d": 131.08313750001253,
      "v": 57
    },
    {
      "midi": 46,
      "hit": false,
      "t": 195750.81866666675,
      "d": 149.80929999999353,
      "v": 57
    },
    {
      "midi": 46,
      "hit": false,
      "t": 196250.18300000008,
      "d": 174.77751666665426,
      "v": 83
    },
    {
      "midi": 46,
      "hit": false,
      "t": 196749.5473333334,
      "d": 140.44621875000303,
      "v": 60
    },
    {
      "midi": 46,
      "hit": false,
      "t": 197248.91166666674,
      "d": 146.68827291665366,
      "v": 62
    },
    {
      "midi": 46,
      "hit": false,
      "t": 197748.27600000007,
      "d": 162.2934083333239,
      "v": 88
    },
    {
      "midi": 46,
      "hit": false,
      "t": 198247.6403333334,
      "d": 134.2041645833233,
      "v": 53
    },
    {
      "midi": 47,
      "hit": false,
      "t": 198747.00466666665,
      "d": 149.80930000002263,
      "v": 11
    },
    {
      "midi": 35,
      "hit": false,
      "t": 198747.00466666665,
      "d": 165.41443541669287,
      "v": 8
    },
    {
      "midi": 46,
      "hit": false,
      "t": 198747.00466666673,
      "d": 127.96211041667266,
      "v": 64
    },
    {
      "midi": 47,
      "hit": false,
      "t": 199246.369,
      "d": 156.05135416667326,
      "v": 51
    },
    {
      "midi": 35,
      "hit": false,
      "t": 199246.369,
      "d": 181.019570833334,
      "v": 51
    },
    {
      "midi": 46,
      "hit": false,
      "t": 199246.36900000006,
      "d": 156.05135416667326,
      "v": 88
    },
    {
      "midi": 47,
      "hit": false,
      "t": 199745.73333333334,
      "d": 131.08313750001253,
      "v": 61
    },
    {
      "midi": 35,
      "hit": false,
      "t": 199745.73333333334,
      "d": 181.019570833334,
      "v": 61
    },
    {
      "midi": 46,
      "hit": false,
      "t": 199745.7333333334,
      "d": 140.44621875000303,
      "v": 60
    },
    {
      "midi": 47,
      "hit": false,
      "t": 200245.09766666667,
      "d": 112.35697500000242,
      "v": 71
    },
    {
      "midi": 35,
      "hit": false,
      "t": 200245.09766666667,
      "d": 181.019570833334,
      "v": 71
    },
    {
      "midi": 46,
      "hit": false,
      "t": 200245.09766666673,
      "d": 124.84108333333279,
      "v": 66
    },
    {
      "midi": 47,
      "hit": false,
      "t": 200744.462,
      "d": 115.47800208334229,
      "v": 81
    },
    {
      "midi": 35,
      "hit": false,
      "t": 200744.462,
      "d": 146.68827291668276,
      "v": 81
    },
    {
      "midi": 46,
      "hit": false,
      "t": 200744.46200000006,
      "d": 134.2041645833233,
      "v": 105
    },
    {
      "midi": 47,
      "hit": false,
      "t": 201243.82633333336,
      "d": 109.23594791666255,
      "v": 91
    },
    {
      "midi": 35,
      "hit": false,
      "t": 201243.82633333336,
      "d": 143.5672458333429,
      "v": 91
    },
    {
      "midi": 46,
      "hit": false,
      "t": 201243.8263333334,
      "d": 118.59902916665305,
      "v": 60
    },
    {
      "midi": 47,
      "hit": false,
      "t": 201743.1906666667,
      "d": 99.87286666667205,
      "v": 100
    },
    {
      "midi": 35,
      "hit": false,
      "t": 201743.1906666667,
      "d": 102.99389375001192,
      "v": 100
    },
    {
      "midi": 46,
      "hit": false,
      "t": 201743.19066666672,
      "d": 134.2041645833233,
      "v": 71
    },
    {
      "midi": 47,
      "hit": false,
      "t": 202242.55500000002,
      "d": 96.75183958333218,
      "v": 110
    },
    {
      "midi": 35,
      "hit": false,
      "t": 202242.55500000002,
      "d": 99.87286666667205,
      "v": 110
    },
    {
      "midi": 46,
      "hit": false,
      "t": 202242.55500000005,
      "d": 124.84108333333279,
      "v": 105
    },
    {
      "midi": 35,
      "hit": false,
      "t": 202741.91933333335,
      "d": 96.75183958333218,
      "v": 120
    },
    {
      "midi": 47,
      "hit": false,
      "t": 202741.91933333335,
      "d": 99.87286666667205,
      "v": 120
    },
    {
      "midi": 46,
      "hit": false,
      "t": 202741.91933333338,
      "d": 93.63081249999232,
      "v": 69
    },
    {
      "midi": 35,
      "hit": false,
      "t": 203241.28366666668,
      "d": 383.88633124998887,
      "v": 127
    },
    {
      "midi": 47,
      "hit": false,
      "t": 203241.28366666668,
      "d": 390.1283854166686,
      "v": 127
    },
    {
      "midi": 46,
      "hit": false,
      "t": 203241.2836666667,
      "d": 81.14670416666195,
      "v": 40
    },
    {
      "midi": 64,
      "hit": false,
      "t": 203740.64800000002,
      "d": 349.55503333333763,
      "v": 127
    },
    {
      "midi": 68,
      "hit": false,
      "t": 203740.64800000002,
      "d": 349.55503333333763,
      "v": 127
    },
    {
      "midi": 71,
      "hit": false,
      "t": 203740.64800000002,
      "d": 349.55503333333763,
      "v": 127
    },
    {
      "midi": 64,
      "hit": false,
      "t": 204240.01233333335,
      "d": 349.55503333333763,
      "v": 115
    },
    {
      "midi": 68,
      "hit": false,
      "t": 204240.01233333335,
      "d": 349.55503333333763,
      "v": 115
    },
    {
      "midi": 71,
      "hit": false,
      "t": 204240.01233333335,
      "d": 349.55503333333763,
      "v": 115
    },
    {
      "midi": 64,
      "hit": false,
      "t": 204739.37666666668,
      "d": 349.55503333333763,
      "v": 105
    },
    {
      "midi": 68,
      "hit": false,
      "t": 204739.37666666668,
      "d": 349.55503333333763,
      "v": 105
    },
    {
      "midi": 71,
      "hit": false,
      "t": 204739.37666666668,
      "d": 349.55503333333763,
      "v": 105
    },
    {
      "midi": 64,
      "hit": false,
      "t": 205238.741,
      "d": 349.55503333333763,
      "v": 127
    },
    {
      "midi": 68,
      "hit": false,
      "t": 205238.741,
      "d": 349.55503333333763,
      "v": 127
    },
    {
      "midi": 71,
      "hit": false,
      "t": 205238.741,
      "d": 349.55503333333763,
      "v": 127
    },
    {
      "midi": 64,
      "hit": false,
      "t": 205738.10533333334,
      "d": 349.55503333333763,
      "v": 112
    },
    {
      "midi": 68,
      "hit": false,
      "t": 205738.10533333334,
      "d": 349.55503333333763,
      "v": 112
    },
    {
      "midi": 71,
      "hit": false,
      "t": 205738.10533333334,
      "d": 349.55503333333763,
      "v": 100
    },
    {
      "midi": 64,
      "hit": false,
      "t": 206237.46966666667,
      "d": 349.55503333333763,
      "v": 100
    },
    {
      "midi": 68,
      "hit": false,
      "t": 206237.46966666667,
      "d": 349.55503333333763,
      "v": 100
    },
    {
      "midi": 71,
      "hit": false,
      "t": 206237.46966666667,
      "d": 349.55503333333763,
      "v": 100
    },
    {
      "midi": 63,
      "hit": false,
      "t": 206736.834,
      "d": 349.55503333333763,
      "v": 127
    },
    {
      "midi": 66,
      "hit": false,
      "t": 206736.834,
      "d": 349.55503333333763,
      "v": 127
    },
    {
      "midi": 71,
      "hit": false,
      "t": 206736.834,
      "d": 349.55503333333763,
      "v": 127
    },
    {
      "midi": 63,
      "hit": false,
      "t": 207236.19833333333,
      "d": 349.55503333333763,
      "v": 118
    },
    {
      "midi": 66,
      "hit": false,
      "t": 207236.19833333333,
      "d": 349.55503333333763,
      "v": 118
    },
    {
      "midi": 71,
      "hit": false,
      "t": 207236.19833333333,
      "d": 349.55503333333763,
      "v": 118
    },
    {
      "midi": 63,
      "hit": false,
      "t": 207735.56266666666,
      "d": 349.55503333333763,
      "v": 108
    },
    {
      "midi": 66,
      "hit": false,
      "t": 207735.56266666666,
      "d": 349.55503333333763,
      "v": 108
    },
    {
      "midi": 71,
      "hit": false,
      "t": 207735.56266666666,
      "d": 349.55503333333763,
      "v": 108
    },
    {
      "midi": 63,
      "hit": false,
      "t": 208234.927,
      "d": 349.55503333333763,
      "v": 127
    },
    {
      "midi": 66,
      "hit": false,
      "t": 208234.927,
      "d": 349.55503333333763,
      "v": 127
    },
    {
      "midi": 71,
      "hit": false,
      "t": 208234.927,
      "d": 349.55503333333763,
      "v": 100
    },
    {
      "midi": 63,
      "hit": false,
      "t": 208734.29133333333,
      "d": 349.55503333333763,
      "v": 118
    },
    {
      "midi": 66,
      "hit": false,
      "t": 208734.29133333333,
      "d": 349.55503333333763,
      "v": 118
    },
    {
      "midi": 71,
      "hit": false,
      "t": 208734.29133333333,
      "d": 349.55503333333763,
      "v": 118
    },
    {
      "midi": 63,
      "hit": false,
      "t": 209233.65566666666,
      "d": 349.55503333333763,
      "v": 110
    },
    {
      "midi": 66,
      "hit": false,
      "t": 209233.65566666666,
      "d": 349.55503333333763,
      "v": 110
    },
    {
      "midi": 71,
      "hit": false,
      "t": 209233.65566666666,
      "d": 349.55503333333763,
      "v": 110
    },
    {
      "midi": 64,
      "hit": false,
      "t": 209733.02,
      "d": 349.55503333333763,
      "v": 127
    },
    {
      "midi": 68,
      "hit": false,
      "t": 209733.02,
      "d": 349.55503333333763,
      "v": 127
    },
    {
      "midi": 73,
      "hit": false,
      "t": 209733.02,
      "d": 349.55503333333763,
      "v": 127
    },
    {
      "midi": 64,
      "hit": false,
      "t": 210232.38433333332,
      "d": 349.55503333333763,
      "v": 113
    },
    {
      "midi": 68,
      "hit": false,
      "t": 210232.38433333332,
      "d": 349.55503333333763,
      "v": 113
    },
    {
      "midi": 73,
      "hit": false,
      "t": 210232.38433333332,
      "d": 349.55503333333763,
      "v": 113
    },
    {
      "midi": 64,
      "hit": false,
      "t": 210731.74866666665,
      "d": 349.55503333333763,
      "v": 94
    },
    {
      "midi": 68,
      "hit": false,
      "t": 210731.74866666665,
      "d": 349.55503333333763,
      "v": 100
    },
    {
      "midi": 73,
      "hit": false,
      "t": 210731.74866666665,
      "d": 349.55503333333763,
      "v": 106
    },
    {
      "midi": 64,
      "hit": false,
      "t": 211231.11299999998,
      "d": 349.55503333333763,
      "v": 112
    },
    {
      "midi": 68,
      "hit": false,
      "t": 211231.11299999998,
      "d": 349.55503333333763,
      "v": 127
    },
    {
      "midi": 73,
      "hit": false,
      "t": 211231.11299999998,
      "d": 349.55503333333763,
      "v": 127
    },
    {
      "midi": 64,
      "hit": false,
      "t": 211730.4773333333,
      "d": 349.55503333333763,
      "v": 100
    },
    {
      "midi": 68,
      "hit": false,
      "t": 211730.4773333333,
      "d": 349.55503333333763,
      "v": 112
    },
    {
      "midi": 73,
      "hit": false,
      "t": 211730.4773333333,
      "d": 349.55503333333763,
      "v": 112
    },
    {
      "midi": 64,
      "hit": false,
      "t": 212229.84166666665,
      "d": 349.55503333333763,
      "v": 100
    },
    {
      "midi": 68,
      "hit": false,
      "t": 212229.84166666665,
      "d": 349.55503333333763,
      "v": 106
    },
    {
      "midi": 73,
      "hit": false,
      "t": 212229.84166666665,
      "d": 349.55503333333763,
      "v": 100
    },
    {
      "midi": 64,
      "hit": false,
      "t": 212729.20599999998,
      "d": 349.55503333333763,
      "v": 112
    },
    {
      "midi": 69,
      "hit": false,
      "t": 212729.20599999998,
      "d": 349.55503333333763,
      "v": 127
    },
    {
      "midi": 73,
      "hit": false,
      "t": 212729.20599999998,
      "d": 349.55503333333763,
      "v": 127
    },
    {
      "midi": 64,
      "hit": false,
      "t": 213228.5703333333,
      "d": 349.55503333333763,
      "v": 94
    },
    {
      "midi": 69,
      "hit": false,
      "t": 213228.5703333333,
      "d": 349.55503333333763,
      "v": 100
    },
    {
      "midi": 73,
      "hit": false,
      "t": 213228.5703333333,
      "d": 349.55503333333763,
      "v": 106
    },
    {
      "midi": 64,
      "hit": false,
      "t": 213727.93466666664,
      "d": 349.55503333333763,
      "v": 94
    },
    {
      "midi": 69,
      "hit": false,
      "t": 213727.93466666664,
      "d": 349.55503333333763,
      "v": 112
    },
    {
      "midi": 73,
      "hit": false,
      "t": 213727.93466666664,
      "d": 349.55503333333763,
      "v": 127
    },
    {
      "midi": 64,
      "hit": false,
      "t": 214227.29899999997,
      "d": 349.55503333333763,
      "v": 92
    },
    {
      "midi": 69,
      "hit": false,
      "t": 214227.29899999997,
      "d": 349.55503333333763,
      "v": 100
    },
    {
      "midi": 73,
      "hit": false,
      "t": 214227.29899999997,
      "d": 349.55503333333763,
      "v": 106
    },
    {
      "midi": 64,
      "hit": false,
      "t": 214726.6633333333,
      "d": 349.55503333333763,
      "v": 127
    },
    {
      "midi": 69,
      "hit": false,
      "t": 214726.6633333333,
      "d": 349.55503333333763,
      "v": 127
    },
    {
      "midi": 73,
      "hit": false,
      "t": 214726.6633333333,
      "d": 349.55503333333763,
      "v": 127
    },
    {
      "midi": 64,
      "hit": false,
      "t": 215226.02766666663,
      "d": 349.55503333333763,
      "v": 94
    },
    {
      "midi": 69,
      "hit": false,
      "t": 215226.02766666663,
      "d": 349.55503333333763,
      "v": 112
    },
    {
      "midi": 73,
      "hit": false,
      "t": 215226.02766666663,
      "d": 349.55503333333763,
      "v": 127
    },
    {
      "midi": 64,
      "hit": false,
      "t": 215725.39199999996,
      "d": 349.55503333333763,
      "v": 112
    },
    {
      "midi": 68,
      "hit": false,
      "t": 215725.39199999996,
      "d": 349.55503333333763,
      "v": 127
    },
    {
      "midi": 71,
      "hit": false,
      "t": 215725.39199999996,
      "d": 349.55503333333763,
      "v": 112
    },
    {
      "midi": 64,
      "hit": false,
      "t": 216224.7563333333,
      "d": 349.55503333333763,
      "v": 90
    },
    {
      "midi": 68,
      "hit": false,
      "t": 216224.7563333333,
      "d": 349.55503333333763,
      "v": 86
    },
    {
      "midi": 71,
      "hit": false,
      "t": 216224.7563333333,
      "d": 349.55503333333763,
      "v": 87
    },
    {
      "midi": 64,
      "hit": false,
      "t": 216724.12066666663,
      "d": 349.55503333333763,
      "v": 97
    },
    {
      "midi": 68,
      "hit": false,
      "t": 216724.12066666663,
      "d": 349.55503333333763,
      "v": 96
    },
    {
      "midi": 71,
      "hit": false,
      "t": 216724.12066666663,
      "d": 349.55503333333763,
      "v": 90
    },
    {
      "midi": 64,
      "hit": false,
      "t": 217223.48499999996,
      "d": 349.55503333333763,
      "v": 123
    },
    {
      "midi": 68,
      "hit": false,
      "t": 217223.48499999996,
      "d": 349.55503333333763,
      "v": 123
    },
    {
      "midi": 71,
      "hit": false,
      "t": 217223.48499999996,
      "d": 349.55503333333763,
      "v": 123
    },
    {
      "midi": 64,
      "hit": false,
      "t": 217722.8493333333,
      "d": 349.55503333333763,
      "v": 112
    },
    {
      "midi": 68,
      "hit": false,
      "t": 217722.8493333333,
      "d": 349.55503333333763,
      "v": 112
    },
    {
      "midi": 71,
      "hit": false,
      "t": 217722.8493333333,
      "d": 349.55503333333763,
      "v": 112
    },
    {
      "midi": 64,
      "hit": false,
      "t": 218222.21366666662,
      "d": 349.55503333333763,
      "v": 108
    },
    {
      "midi": 66,
      "hit": false,
      "t": 218222.21366666662,
      "d": 349.55503333333763,
      "v": 108
    },
    {
      "midi": 71,
      "hit": false,
      "t": 218222.21366666662,
      "d": 349.55503333333763,
      "v": 108
    },
    {
      "midi": 63,
      "hit": false,
      "t": 218721.57799999995,
      "d": 349.55503333333763,
      "v": 127
    },
    {
      "midi": 66,
      "hit": false,
      "t": 218721.57799999995,
      "d": 349.55503333333763,
      "v": 127
    },
    {
      "midi": 71,
      "hit": false,
      "t": 218721.57799999995,
      "d": 349.55503333333763,
      "v": 100
    },
    {
      "midi": 63,
      "hit": false,
      "t": 219220.94233333328,
      "d": 349.55503333333763,
      "v": 93
    },
    {
      "midi": 66,
      "hit": false,
      "t": 219220.94233333328,
      "d": 349.55503333333763,
      "v": 106
    },
    {
      "midi": 71,
      "hit": false,
      "t": 219220.94233333328,
      "d": 349.55503333333763,
      "v": 90
    },
    {
      "midi": 63,
      "hit": false,
      "t": 219720.3066666666,
      "d": 349.55503333333763,
      "v": 96
    },
    {
      "midi": 66,
      "hit": false,
      "t": 219720.3066666666,
      "d": 349.55503333333763,
      "v": 106
    },
    {
      "midi": 71,
      "hit": false,
      "t": 219720.3066666666,
      "d": 349.55503333333763,
      "v": 90
    },
    {
      "midi": 63,
      "hit": false,
      "t": 220219.67099999994,
      "d": 349.55503333333763,
      "v": 106
    },
    {
      "midi": 66,
      "hit": false,
      "t": 220219.67099999994,
      "d": 349.55503333333763,
      "v": 127
    },
    {
      "midi": 71,
      "hit": false,
      "t": 220219.67099999994,
      "d": 349.55503333333763,
      "v": 94
    },
    {
      "midi": 63,
      "hit": false,
      "t": 220719.03533333328,
      "d": 349.55503333333763,
      "v": 93
    },
    {
      "midi": 66,
      "hit": false,
      "t": 220719.03533333328,
      "d": 349.55503333333763,
      "v": 106
    },
    {
      "midi": 71,
      "hit": false,
      "t": 220719.03533333328,
      "d": 349.55503333333763,
      "v": 83
    },
    {
      "midi": 63,
      "hit": false,
      "t": 221218.3996666666,
      "d": 349.55503333333763,
      "v": 100
    },
    {
      "midi": 66,
      "hit": false,
      "t": 221218.3996666666,
      "d": 349.55503333333763,
      "v": 93
    },
    {
      "midi": 71,
      "hit": false,
      "t": 221218.3996666666,
      "d": 349.55503333333763,
      "v": 85
    },
    {
      "midi": 61,
      "hit": false,
      "t": 221717.76399999994,
      "d": 349.55503333333763,
      "v": 127
    },
    {
      "midi": 64,
      "hit": false,
      "t": 221717.76399999994,
      "d": 349.55503333333763,
      "v": 127
    },
    {
      "midi": 69,
      "hit": false,
      "t": 221717.76399999994,
      "d": 349.55503333333763,
      "v": 100
    },
    {
      "midi": 61,
      "hit": false,
      "t": 222217.12833333327,
      "d": 349.55503333333763,
      "v": 93
    },
    {
      "midi": 64,
      "hit": false,
      "t": 222217.12833333327,
      "d": 349.55503333333763,
      "v": 106
    },
    {
      "midi": 69,
      "hit": false,
      "t": 222217.12833333327,
      "d": 349.55503333333763,
      "v": 90
    },
    {
      "midi": 61,
      "hit": false,
      "t": 222716.4926666666,
      "d": 349.55503333333763,
      "v": 96
    },
    {
      "midi": 64,
      "hit": false,
      "t": 222716.4926666666,
      "d": 349.55503333333763,
      "v": 106
    },
    {
      "midi": 69,
      "hit": false,
      "t": 222716.4926666666,
      "d": 349.55503333333763,
      "v": 90
    },
    {
      "midi": 61,
      "hit": false,
      "t": 223215.85699999993,
      "d": 349.55503333333763,
      "v": 106
    },
    {
      "midi": 64,
      "hit": false,
      "t": 223215.85699999993,
      "d": 349.55503333333763,
      "v": 127
    },
    {
      "midi": 69,
      "hit": false,
      "t": 223215.85699999993,
      "d": 349.55503333333763,
      "v": 94
    },
    {
      "midi": 61,
      "hit": false,
      "t": 223715.22133333326,
      "d": 349.55503333333763,
      "v": 93
    },
    {
      "midi": 64,
      "hit": false,
      "t": 223715.22133333326,
      "d": 349.55503333333763,
      "v": 106
    },
    {
      "midi": 69,
      "hit": false,
      "t": 223715.22133333326,
      "d": 349.55503333333763,
      "v": 83
    },
    {
      "midi": 61,
      "hit": false,
      "t": 224214.5856666666,
      "d": 349.55503333333763,
      "v": 100
    },
    {
      "midi": 64,
      "hit": false,
      "t": 224214.5856666666,
      "d": 349.55503333333763,
      "v": 93
    },
    {
      "midi": 69,
      "hit": false,
      "t": 224214.5856666666,
      "d": 349.55503333333763,
      "v": 85
    },
    {
      "midi": 61,
      "hit": false,
      "t": 224713.94999999992,
      "d": 349.55503333333763,
      "v": 127
    },
    {
      "midi": 64,
      "hit": false,
      "t": 224713.94999999992,
      "d": 349.55503333333763,
      "v": 127
    },
    {
      "midi": 69,
      "hit": false,
      "t": 224713.94999999992,
      "d": 349.55503333333763,
      "v": 100
    },
    {
      "midi": 61,
      "hit": false,
      "t": 225213.31433333326,
      "d": 349.55503333333763,
      "v": 93
    },
    {
      "midi": 64,
      "hit": false,
      "t": 225213.31433333326,
      "d": 349.55503333333763,
      "v": 106
    },
    {
      "midi": 69,
      "hit": false,
      "t": 225213.31433333326,
      "d": 349.55503333333763,
      "v": 90
    },
    {
      "midi": 61,
      "hit": false,
      "t": 225712.6786666666,
      "d": 349.55503333333763,
      "v": 96
    },
    {
      "midi": 64,
      "hit": false,
      "t": 225712.6786666666,
      "d": 349.55503333333763,
      "v": 106
    },
    {
      "midi": 69,
      "hit": false,
      "t": 225712.6786666666,
      "d": 349.55503333333763,
      "v": 90
    },
    {
      "midi": 61,
      "hit": false,
      "t": 226212.04299999992,
      "d": 349.55503333333763,
      "v": 106
    },
    {
      "midi": 64,
      "hit": false,
      "t": 226212.04299999992,
      "d": 349.55503333333763,
      "v": 127
    },
    {
      "midi": 69,
      "hit": false,
      "t": 226212.04299999992,
      "d": 349.55503333333763,
      "v": 94
    },
    {
      "midi": 61,
      "hit": false,
      "t": 226711.40733333325,
      "d": 349.55503333333763,
      "v": 93
    },
    {
      "midi": 64,
      "hit": false,
      "t": 226711.40733333325,
      "d": 349.55503333333763,
      "v": 106
    },
    {
      "midi": 69,
      "hit": false,
      "t": 226711.40733333325,
      "d": 349.55503333333763,
      "v": 83
    },
    {
      "midi": 61,
      "hit": false,
      "t": 227210.77166666658,
      "d": 349.55503333333763,
      "v": 100
    },
    {
      "midi": 64,
      "hit": false,
      "t": 227210.77166666658,
      "d": 349.55503333333763,
      "v": 93
    },
    {
      "midi": 69,
      "hit": false,
      "t": 227210.77166666658,
      "d": 349.55503333333763,
      "v": 85
    },
    {
      "midi": 64,
      "hit": false,
      "t": 227710.1359999999,
      "d": 349.55503333333763,
      "v": 127
    },
    {
      "midi": 68,
      "hit": false,
      "t": 227710.1359999999,
      "d": 349.55503333333763,
      "v": 127
    },
    {
      "midi": 71,
      "hit": false,
      "t": 227710.1359999999,
      "d": 349.55503333333763,
      "v": 127
    },
    {
      "midi": 64,
      "hit": false,
      "t": 228209.50033333324,
      "d": 349.55503333333763,
      "v": 115
    },
    {
      "midi": 68,
      "hit": false,
      "t": 228209.50033333324,
      "d": 349.55503333333763,
      "v": 115
    },
    {
      "midi": 71,
      "hit": false,
      "t": 228209.50033333324,
      "d": 349.55503333333763,
      "v": 115
    },
    {
      "midi": 64,
      "hit": false,
      "t": 228708.86466666657,
      "d": 349.55503333333763,
      "v": 105
    },
    {
      "midi": 68,
      "hit": false,
      "t": 228708.86466666657,
      "d": 349.55503333333763,
      "v": 105
    },
    {
      "midi": 71,
      "hit": false,
      "t": 228708.86466666657,
      "d": 349.55503333333763,
      "v": 105
    },
    {
      "midi": 64,
      "hit": false,
      "t": 229208.2289999999,
      "d": 349.55503333333763,
      "v": 127
    },
    {
      "midi": 68,
      "hit": false,
      "t": 229208.2289999999,
      "d": 349.55503333333763,
      "v": 127
    },
    {
      "midi": 71,
      "hit": false,
      "t": 229208.2289999999,
      "d": 349.55503333333763,
      "v": 127
    },
    {
      "midi": 64,
      "hit": false,
      "t": 229707.59333333324,
      "d": 349.55503333333763,
      "v": 112
    },
    {
      "midi": 68,
      "hit": false,
      "t": 229707.59333333324,
      "d": 349.55503333333763,
      "v": 112
    },
    {
      "midi": 71,
      "hit": false,
      "t": 229707.59333333324,
      "d": 349.55503333333763,
      "v": 100
    },
    {
      "midi": 64,
      "hit": false,
      "t": 230206.95766666657,
      "d": 349.55503333333763,
      "v": 100
    },
    {
      "midi": 68,
      "hit": false,
      "t": 230206.95766666657,
      "d": 349.55503333333763,
      "v": 100
    },
    {
      "midi": 71,
      "hit": false,
      "t": 230206.95766666657,
      "d": 349.55503333333763,
      "v": 100
    },
    {
      "midi": 63,
      "hit": false,
      "t": 230706.3219999999,
      "d": 349.55503333333763,
      "v": 127
    },
    {
      "midi": 66,
      "hit": false,
      "t": 230706.3219999999,
      "d": 349.55503333333763,
      "v": 127
    },
    {
      "midi": 71,
      "hit": false,
      "t": 230706.3219999999,
      "d": 349.55503333333763,
      "v": 127
    },
    {
      "midi": 63,
      "hit": false,
      "t": 231205.68633333323,
      "d": 349.55503333333763,
      "v": 118
    },
    {
      "midi": 66,
      "hit": false,
      "t": 231205.68633333323,
      "d": 349.55503333333763,
      "v": 118
    },
    {
      "midi": 71,
      "hit": false,
      "t": 231205.68633333323,
      "d": 349.55503333333763,
      "v": 118
    },
    {
      "midi": 63,
      "hit": false,
      "t": 231705.05066666656,
      "d": 349.55503333333763,
      "v": 108
    },
    {
      "midi": 66,
      "hit": false,
      "t": 231705.05066666656,
      "d": 349.55503333333763,
      "v": 108
    },
    {
      "midi": 71,
      "hit": false,
      "t": 231705.05066666656,
      "d": 349.55503333333763,
      "v": 108
    },
    {
      "midi": 63,
      "hit": false,
      "t": 232204.4149999999,
      "d": 349.55503333333763,
      "v": 127
    },
    {
      "midi": 66,
      "hit": false,
      "t": 232204.4149999999,
      "d": 349.55503333333763,
      "v": 127
    },
    {
      "midi": 71,
      "hit": false,
      "t": 232204.4149999999,
      "d": 349.55503333333763,
      "v": 100
    },
    {
      "midi": 63,
      "hit": false,
      "t": 232703.77933333322,
      "d": 349.55503333333763,
      "v": 118
    },
    {
      "midi": 66,
      "hit": false,
      "t": 232703.77933333322,
      "d": 349.55503333333763,
      "v": 118
    },
    {
      "midi": 71,
      "hit": false,
      "t": 232703.77933333322,
      "d": 349.55503333333763,
      "v": 118
    },
    {
      "midi": 63,
      "hit": false,
      "t": 233203.14366666655,
      "d": 349.55503333333763,
      "v": 110
    },
    {
      "midi": 66,
      "hit": false,
      "t": 233203.14366666655,
      "d": 349.55503333333763,
      "v": 110
    },
    {
      "midi": 71,
      "hit": false,
      "t": 233203.14366666655,
      "d": 349.55503333333763,
      "v": 110
    },
    {
      "midi": 64,
      "hit": false,
      "t": 233702.50799999989,
      "d": 349.55503333333763,
      "v": 127
    },
    {
      "midi": 68,
      "hit": false,
      "t": 233702.50799999989,
      "d": 349.55503333333763,
      "v": 127
    },
    {
      "midi": 73,
      "hit": false,
      "t": 233702.50799999989,
      "d": 349.55503333333763,
      "v": 127
    },
    {
      "midi": 64,
      "hit": false,
      "t": 234201.87233333322,
      "d": 349.55503333333763,
      "v": 113
    },
    {
      "midi": 68,
      "hit": false,
      "t": 234201.87233333322,
      "d": 349.55503333333763,
      "v": 113
    },
    {
      "midi": 73,
      "hit": false,
      "t": 234201.87233333322,
      "d": 349.55503333333763,
      "v": 113
    },
    {
      "midi": 64,
      "hit": false,
      "t": 234701.23666666655,
      "d": 349.55503333333763,
      "v": 94
    },
    {
      "midi": 68,
      "hit": false,
      "t": 234701.23666666655,
      "d": 349.55503333333763,
      "v": 100
    },
    {
      "midi": 73,
      "hit": false,
      "t": 234701.23666666655,
      "d": 349.55503333333763,
      "v": 106
    },
    {
      "midi": 64,
      "hit": false,
      "t": 235200.60099999988,
      "d": 349.55503333333763,
      "v": 112
    },
    {
      "midi": 68,
      "hit": false,
      "t": 235200.60099999988,
      "d": 349.55503333333763,
      "v": 127
    },
    {
      "midi": 73,
      "hit": false,
      "t": 235200.60099999988,
      "d": 349.55503333333763,
      "v": 127
    },
    {
      "midi": 64,
      "hit": false,
      "t": 235699.9653333332,
      "d": 349.55503333333763,
      "v": 100
    },
    {
      "midi": 68,
      "hit": false,
      "t": 235699.9653333332,
      "d": 349.55503333333763,
      "v": 112
    },
    {
      "midi": 73,
      "hit": false,
      "t": 235699.9653333332,
      "d": 349.55503333333763,
      "v": 112
    },
    {
      "midi": 64,
      "hit": false,
      "t": 236199.32966666654,
      "d": 349.55503333333763,
      "v": 100
    },
    {
      "midi": 68,
      "hit": false,
      "t": 236199.32966666654,
      "d": 349.55503333333763,
      "v": 106
    },
    {
      "midi": 73,
      "hit": false,
      "t": 236199.32966666654,
      "d": 349.55503333333763,
      "v": 100
    },
    {
      "midi": 64,
      "hit": false,
      "t": 236698.69399999987,
      "d": 349.55503333333763,
      "v": 112
    },
    {
      "midi": 69,
      "hit": false,
      "t": 236698.69399999987,
      "d": 349.55503333333763,
      "v": 127
    },
    {
      "midi": 73,
      "hit": false,
      "t": 236698.69399999987,
      "d": 349.55503333333763,
      "v": 127
    },
    {
      "midi": 64,
      "hit": false,
      "t": 237198.0583333332,
      "d": 349.55503333333763,
      "v": 94
    },
    {
      "midi": 69,
      "hit": false,
      "t": 237198.0583333332,
      "d": 349.55503333333763,
      "v": 100
    },
    {
      "midi": 73,
      "hit": false,
      "t": 237198.0583333332,
      "d": 349.55503333333763,
      "v": 106
    },
    {
      "midi": 64,
      "hit": false,
      "t": 237697.42266666653,
      "d": 349.55503333333763,
      "v": 94
    },
    {
      "midi": 69,
      "hit": false,
      "t": 237697.42266666653,
      "d": 349.55503333333763,
      "v": 112
    },
    {
      "midi": 73,
      "hit": false,
      "t": 237697.42266666653,
      "d": 349.55503333333763,
      "v": 127
    },
    {
      "midi": 64,
      "hit": false,
      "t": 238196.78699999987,
      "d": 349.55503333333763,
      "v": 92
    },
    {
      "midi": 69,
      "hit": false,
      "t": 238196.78699999987,
      "d": 349.55503333333763,
      "v": 100
    },
    {
      "midi": 73,
      "hit": false,
      "t": 238196.78699999987,
      "d": 349.55503333333763,
      "v": 106
    },
    {
      "midi": 64,
      "hit": false,
      "t": 238696.1513333332,
      "d": 349.55503333333763,
      "v": 127
    },
    {
      "midi": 69,
      "hit": false,
      "t": 238696.1513333332,
      "d": 349.55503333333763,
      "v": 127
    },
    {
      "midi": 73,
      "hit": false,
      "t": 238696.1513333332,
      "d": 349.55503333333763,
      "v": 127
    },
    {
      "midi": 64,
      "hit": false,
      "t": 239195.51566666653,
      "d": 349.55503333333763,
      "v": 94
    },
    {
      "midi": 69,
      "hit": false,
      "t": 239195.51566666653,
      "d": 349.55503333333763,
      "v": 112
    },
    {
      "midi": 73,
      "hit": false,
      "t": 239195.51566666653,
      "d": 349.55503333333763,
      "v": 127
    },
    {
      "midi": 64,
      "hit": false,
      "t": 239694.87999999986,
      "d": 349.55503333333763,
      "v": 112
    },
    {
      "midi": 68,
      "hit": false,
      "t": 239694.87999999986,
      "d": 349.55503333333763,
      "v": 127
    },
    {
      "midi": 71,
      "hit": false,
      "t": 239694.87999999986,
      "d": 349.55503333333763,
      "v": 112
    },
    {
      "midi": 64,
      "hit": false,
      "t": 240194.2443333332,
      "d": 349.55503333333763,
      "v": 90
    },
    {
      "midi": 68,
      "hit": false,
      "t": 240194.2443333332,
      "d": 349.55503333333763,
      "v": 86
    },
    {
      "midi": 71,
      "hit": false,
      "t": 240194.2443333332,
      "d": 349.55503333333763,
      "v": 87
    },
    {
      "midi": 64,
      "hit": false,
      "t": 240693.60866666652,
      "d": 349.55503333333763,
      "v": 97
    },
    {
      "midi": 68,
      "hit": false,
      "t": 240693.60866666652,
      "d": 349.55503333333763,
      "v": 96
    },
    {
      "midi": 71,
      "hit": false,
      "t": 240693.60866666652,
      "d": 349.55503333333763,
      "v": 90
    },
    {
      "midi": 64,
      "hit": false,
      "t": 241192.97299999985,
      "d": 349.55503333333763,
      "v": 123
    },
    {
      "midi": 68,
      "hit": false,
      "t": 241192.97299999985,
      "d": 349.55503333333763,
      "v": 123
    },
    {
      "midi": 71,
      "hit": false,
      "t": 241192.97299999985,
      "d": 349.55503333333763,
      "v": 123
    },
    {
      "midi": 64,
      "hit": false,
      "t": 241692.33733333318,
      "d": 349.55503333333763,
      "v": 112
    },
    {
      "midi": 68,
      "hit": false,
      "t": 241692.33733333318,
      "d": 349.55503333333763,
      "v": 112
    },
    {
      "midi": 71,
      "hit": false,
      "t": 241692.33733333318,
      "d": 349.55503333333763,
      "v": 112
    },
    {
      "midi": 64,
      "hit": false,
      "t": 242191.70166666651,
      "d": 349.55503333333763,
      "v": 108
    },
    {
      "midi": 66,
      "hit": false,
      "t": 242191.70166666651,
      "d": 349.55503333333763,
      "v": 108
    },
    {
      "midi": 71,
      "hit": false,
      "t": 242191.70166666651,
      "d": 349.55503333333763,
      "v": 108
    },
    {
      "midi": 63,
      "hit": false,
      "t": 242691.06599999985,
      "d": 349.55503333333763,
      "v": 127
    },
    {
      "midi": 66,
      "hit": false,
      "t": 242691.06599999985,
      "d": 349.55503333333763,
      "v": 127
    },
    {
      "midi": 71,
      "hit": false,
      "t": 242691.06599999985,
      "d": 349.55503333333763,
      "v": 100
    },
    {
      "midi": 63,
      "hit": false,
      "t": 243190.43033333318,
      "d": 349.55503333333763,
      "v": 93
    },
    {
      "midi": 66,
      "hit": false,
      "t": 243190.43033333318,
      "d": 349.55503333333763,
      "v": 106
    },
    {
      "midi": 71,
      "hit": false,
      "t": 243190.43033333318,
      "d": 349.55503333333763,
      "v": 90
    },
    {
      "midi": 63,
      "hit": false,
      "t": 243689.7946666665,
      "d": 349.55503333333763,
      "v": 96
    },
    {
      "midi": 66,
      "hit": false,
      "t": 243689.7946666665,
      "d": 349.55503333333763,
      "v": 106
    },
    {
      "midi": 71,
      "hit": false,
      "t": 243689.7946666665,
      "d": 349.55503333333763,
      "v": 90
    },
    {
      "midi": 63,
      "hit": false,
      "t": 244189.15899999984,
      "d": 349.55503333333763,
      "v": 106
    },
    {
      "midi": 66,
      "hit": false,
      "t": 244189.15899999984,
      "d": 349.55503333333763,
      "v": 127
    },
    {
      "midi": 71,
      "hit": false,
      "t": 244189.15899999984,
      "d": 349.55503333333763,
      "v": 94
    },
    {
      "midi": 63,
      "hit": false,
      "t": 244688.52333333317,
      "d": 349.55503333333763,
      "v": 93
    },
    {
      "midi": 66,
      "hit": false,
      "t": 244688.52333333317,
      "d": 349.55503333333763,
      "v": 106
    },
    {
      "midi": 71,
      "hit": false,
      "t": 244688.52333333317,
      "d": 349.55503333333763,
      "v": 83
    },
    {
      "midi": 63,
      "hit": false,
      "t": 245187.8876666665,
      "d": 349.55503333333763,
      "v": 100
    },
    {
      "midi": 66,
      "hit": false,
      "t": 245187.8876666665,
      "d": 349.55503333333763,
      "v": 93
    },
    {
      "midi": 71,
      "hit": false,
      "t": 245187.8876666665,
      "d": 349.55503333333763,
      "v": 85
    },
    {
      "midi": 61,
      "hit": false,
      "t": 245687.25199999983,
      "d": 349.55503333333763,
      "v": 127
    },
    {
      "midi": 64,
      "hit": false,
      "t": 245687.25199999983,
      "d": 349.55503333333763,
      "v": 127
    },
    {
      "midi": 69,
      "hit": false,
      "t": 245687.25199999983,
      "d": 349.55503333333763,
      "v": 100
    },
    {
      "midi": 61,
      "hit": false,
      "t": 246186.61633333316,
      "d": 349.55503333333763,
      "v": 93
    },
    {
      "midi": 64,
      "hit": false,
      "t": 246186.61633333316,
      "d": 349.55503333333763,
      "v": 106
    },
    {
      "midi": 69,
      "hit": false,
      "t": 246186.61633333316,
      "d": 349.55503333333763,
      "v": 90
    },
    {
      "midi": 61,
      "hit": false,
      "t": 246685.9806666665,
      "d": 349.55503333333763,
      "v": 96
    },
    {
      "midi": 64,
      "hit": false,
      "t": 246685.9806666665,
      "d": 349.55503333333763,
      "v": 106
    },
    {
      "midi": 69,
      "hit": false,
      "t": 246685.9806666665,
      "d": 349.55503333333763,
      "v": 90
    },
    {
      "midi": 61,
      "hit": false,
      "t": 247185.34499999983,
      "d": 349.55503333333763,
      "v": 106
    },
    {
      "midi": 64,
      "hit": false,
      "t": 247185.34499999983,
      "d": 349.55503333333763,
      "v": 127
    },
    {
      "midi": 69,
      "hit": false,
      "t": 247185.34499999983,
      "d": 349.55503333333763,
      "v": 94
    },
    {
      "midi": 61,
      "hit": false,
      "t": 247684.70933333316,
      "d": 349.55503333333763,
      "v": 93
    },
    {
      "midi": 64,
      "hit": false,
      "t": 247684.70933333316,
      "d": 349.55503333333763,
      "v": 106
    },
    {
      "midi": 69,
      "hit": false,
      "t": 247684.70933333316,
      "d": 349.55503333333763,
      "v": 83
    },
    {
      "midi": 61,
      "hit": false,
      "t": 248184.0736666665,
      "d": 349.55503333333763,
      "v": 100
    },
    {
      "midi": 64,
      "hit": false,
      "t": 248184.0736666665,
      "d": 349.55503333333763,
      "v": 93
    },
    {
      "midi": 69,
      "hit": false,
      "t": 248184.0736666665,
      "d": 349.55503333333763,
      "v": 85
    },
    {
      "midi": 61,
      "hit": false,
      "t": 248683.43799999982,
      "d": 349.55503333333763,
      "v": 127
    },
    {
      "midi": 64,
      "hit": false,
      "t": 248683.43799999982,
      "d": 349.55503333333763,
      "v": 127
    },
    {
      "midi": 69,
      "hit": false,
      "t": 248683.43799999982,
      "d": 349.55503333333763,
      "v": 100
    },
    {
      "midi": 61,
      "hit": false,
      "t": 249182.80233333315,
      "d": 349.55503333333763,
      "v": 93
    },
    {
      "midi": 64,
      "hit": false,
      "t": 249182.80233333315,
      "d": 349.55503333333763,
      "v": 106
    },
    {
      "midi": 69,
      "hit": false,
      "t": 249182.80233333315,
      "d": 349.55503333333763,
      "v": 90
    },
    {
      "midi": 61,
      "hit": false,
      "t": 249682.16666666648,
      "d": 349.55503333333763,
      "v": 96
    },
    {
      "midi": 64,
      "hit": false,
      "t": 249682.16666666648,
      "d": 349.55503333333763,
      "v": 106
    },
    {
      "midi": 69,
      "hit": false,
      "t": 249682.16666666648,
      "d": 349.55503333333763,
      "v": 90
    },
    {
      "midi": 61,
      "hit": false,
      "t": 250181.5309999998,
      "d": 349.55503333333763,
      "v": 106
    },
    {
      "midi": 64,
      "hit": false,
      "t": 250181.5309999998,
      "d": 349.55503333333763,
      "v": 127
    },
    {
      "midi": 69,
      "hit": false,
      "t": 250181.5309999998,
      "d": 349.55503333333763,
      "v": 94
    },
    {
      "midi": 46,
      "hit": false,
      "t": 250181.53100000005,
      "d": 127.96211041667266,
      "v": 59
    },
    {
      "midi": 61,
      "hit": false,
      "t": 250680.89533333314,
      "d": 349.55503333333763,
      "v": 93
    },
    {
      "midi": 64,
      "hit": false,
      "t": 250680.89533333314,
      "d": 349.55503333333763,
      "v": 106
    },
    {
      "midi": 69,
      "hit": false,
      "t": 250680.89533333314,
      "d": 349.55503333333763,
      "v": 83
    },
    {
      "midi": 46,
      "hit": false,
      "t": 250680.89533333338,
      "d": 134.2041645833233,
      "v": 80
    },
    {
      "midi": 61,
      "hit": false,
      "t": 251180.25966666648,
      "d": 349.55503333333763,
      "v": 100
    },
    {
      "midi": 64,
      "hit": false,
      "t": 251180.25966666648,
      "d": 349.55503333333763,
      "v": 93
    },
    {
      "midi": 69,
      "hit": false,
      "t": 251180.25966666648,
      "d": 349.55503333333763,
      "v": 85
    },
    {
      "midi": 46,
      "hit": false,
      "t": 251180.2596666667,
      "d": 81.14670416666195,
      "v": 101
    },
    {
      "midi": 62,
      "hit": false,
      "t": 251679.6239999998,
      "d": 1242.1687791666482,
      "v": 127
    },
    {
      "midi": 57,
      "hit": false,
      "t": 251679.6239999998,
      "d": 1248.410833333328,
      "v": 127
    },
    {
      "midi": 66,
      "hit": false,
      "t": 251679.6239999998,
      "d": 1254.6528875000076,
      "v": 127
    },
    {
      "midi": 50,
      "hit": false,
      "t": 251679.6239999998,
      "d": 1747.775166666659,
      "v": 127
    },
    {
      "midi": 57,
      "hit": false,
      "t": 253177.7169999998,
      "d": 627.3264437500038,
      "v": 127
    },
    {
      "midi": 62,
      "hit": false,
      "t": 253177.7169999998,
      "d": 1008.0917479166528,
      "v": 127
    },
    {
      "midi": 66,
      "hit": false,
      "t": 253177.7169999998,
      "d": 1033.0599645833136,
      "v": 127
    },
    {
      "midi": 50,
      "hit": false,
      "t": 253677.08133333313,
      "d": 227.8349770833447,
      "v": 15
    },
    {
      "midi": 57,
      "hit": false,
      "t": 254176.44566666646,
      "d": 187.26162499998463,
      "v": 92
    },
    {
      "midi": 57,
      "hit": false,
      "t": 254675.8099999998,
      "d": 658.5367145833443,
      "v": 127
    },
    {
      "midi": 61,
      "hit": false,
      "t": 254675.8099999998,
      "d": 686.6259583333449,
      "v": 127
    },
    {
      "midi": 64,
      "hit": false,
      "t": 254675.8099999998,
      "d": 689.7469854166848,
      "v": 127
    },
    {
      "midi": 45,
      "hit": false,
      "t": 254675.8099999998,
      "d": 2172.234850000008,
      "v": 127
    },
    {
      "midi": 57,
      "hit": false,
      "t": 256173.90299999982,
      "d": 443.18584583332995,
      "v": 112
    },
    {
      "midi": 61,
      "hit": false,
      "t": 256673.26733333315,
      "d": 343.3129791666579,
      "v": 127
    },
    {
      "midi": 64,
      "hit": false,
      "t": 257172.63166666648,
      "d": 143.5672458333429,
      "v": 97
    },
    {
      "midi": 59,
      "hit": false,
      "t": 257671.99599999984,
      "d": 555.5428208333324,
      "v": 127
    },
    {
      "midi": 62,
      "hit": false,
      "t": 257671.99599999984,
      "d": 564.9059020833229,
      "v": 120
    },
    {
      "midi": 66,
      "hit": false,
      "t": 257671.99599999984,
      "d": 580.5110374999931,
      "v": 127
    },
    {
      "midi": 47,
      "hit": false,
      "t": 257671.99599999984,
      "d": 867.6455291666498,
      "v": 112
    },
    {
      "midi": 47,
      "hit": false,
      "t": 258920.40683333317,
      "d": 739.6834187500062,
      "v": 72
    },
    {
      "midi": 62,
      "hit": false,
      "t": 259170.08899999983,
      "d": 71.78362291667145,
      "v": 127
    },
    {
      "midi": 66,
      "hit": false,
      "t": 259170.08899999983,
      "d": 78.02567708335118,
      "v": 127
    },
    {
      "midi": 71,
      "hit": false,
      "t": 259170.08899999983,
      "d": 87.38875833334168,
      "v": 127
    },
    {
      "midi": 66,
      "hit": false,
      "t": 259669.45333333316,
      "d": 84.26773125000182,
      "v": 112
    },
    {
      "midi": 62,
      "hit": false,
      "t": 259669.45333333316,
      "d": 102.99389375001192,
      "v": 100
    },
    {
      "midi": 59,
      "hit": false,
      "t": 259669.45333333316,
      "d": 109.23594791669166,
      "v": 97
    },
    {
      "midi": 47,
      "hit": false,
      "t": 260168.81766666652,
      "d": 165.41443541666376,
      "v": 63
    },
    {
      "midi": 59,
      "hit": false,
      "t": 260668.18199999986,
      "d": 580.5110374999931,
      "v": 127
    },
    {
      "midi": 62,
      "hit": false,
      "t": 260668.18199999986,
      "d": 646.0526062499848,
      "v": 127
    },
    {
      "midi": 67,
      "hit": false,
      "t": 260668.18199999986,
      "d": 661.657741666655,
      "v": 127
    },
    {
      "midi": 43,
      "hit": false,
      "t": 260668.18199999986,
      "d": 2047.3937666666461,
      "v": 92
    },
    {
      "midi": 55,
      "hit": false,
      "t": 261666.91066666652,
      "d": 358.91811458332813,
      "v": 55
    },
    {
      "midi": 67,
      "hit": false,
      "t": 262166.27499999985,
      "d": 109.23594791669166,
      "v": 127
    },
    {
      "midi": 62,
      "hit": false,
      "t": 262166.27499999985,
      "d": 112.35697500000242,
      "v": 127
    },
    {
      "midi": 71,
      "hit": false,
      "t": 262166.27499999985,
      "d": 115.47800208331319,
      "v": 120
    },
    {
      "midi": 62,
      "hit": false,
      "t": 262665.6393333332,
      "d": 134.2041645832942,
      "v": 127
    },
    {
      "midi": 59,
      "hit": false,
      "t": 262665.6393333332,
      "d": 156.05135416664416,
      "v": 120
    },
    {
      "midi": 67,
      "hit": false,
      "t": 262665.6393333332,
      "d": 162.2934083333239,
      "v": 120
    },
    {
      "midi": 43,
      "hit": false,
      "t": 263165.0036666665,
      "d": 237.1980583333061,
      "v": 92
    },
    {
      "midi": 50,
      "hit": false,
      "t": 263664.36799999984,
      "d": 674.1418500000145,
      "v": 97
    },
    {
      "midi": 57,
      "hit": false,
      "t": 263664.36799999984,
      "d": 695.9890395833645,
      "v": 127
    },
    {
      "midi": 62,
      "hit": false,
      "t": 263664.36799999984,
      "d": 711.5941750000347,
      "v": 127
    },
    {
      "midi": 66,
      "hit": false,
      "t": 263664.36799999984,
      "d": 736.5623916666955,
      "v": 127
    },
    {
      "midi": 50,
      "hit": false,
      "t": 264663.09666666656,
      "d": 486.8802249999717,
      "v": 81
    },
    {
      "midi": 71,
      "hit": false,
      "t": 265162.4609999999,
      "d": 65.54156874999171,
      "v": 94
    },
    {
      "midi": 66,
      "hit": false,
      "t": 265162.4609999999,
      "d": 109.23594791663345,
      "v": 127
    },
    {
      "midi": 62,
      "hit": false,
      "t": 265162.4609999999,
      "d": 112.35697499994421,
      "v": 127
    },
    {
      "midi": 69,
      "hit": false,
      "t": 265162.4609999999,
      "d": 131.08313749992521,
      "v": 127
    },
    {
      "midi": 50,
      "hit": false,
      "t": 266161.1896666665,
      "d": 102.99389375001192,
      "v": 35
    },
    {
      "midi": 61,
      "hit": false,
      "t": 266660.5539999998,
      "d": 630.4474708333146,
      "v": 127
    },
    {
      "midi": 69,
      "hit": false,
      "t": 266660.5539999998,
      "d": 852.0403937500087,
      "v": 127
    },
    {
      "midi": 45,
      "hit": false,
      "t": 266660.5539999998,
      "d": 867.6455291666789,
      "v": 127
    },
    {
      "midi": 64,
      "hit": false,
      "t": 266660.5539999998,
      "d": 889.4927187500289,
      "v": 127
    },
    {
      "midi": 45,
      "hit": false,
      "t": 267659.28266666655,
      "d": 408.8545479166787,
      "v": 58
    },
    {
      "midi": 57,
      "hit": false,
      "t": 268158.6469999999,
      "d": 814.5880687499885,
      "v": 120
    },
    {
      "midi": 61,
      "hit": false,
      "t": 268158.6469999999,
      "d": 898.8557999999612,
      "v": 127
    },
    {
      "midi": 64,
      "hit": false,
      "t": 268158.6469999999,
      "d": 908.2188812499517,
      "v": 127
    },
    {
      "midi": 45,
      "hit": false,
      "t": 268658.0113333332,
      "d": 143.5672458333429,
      "v": 72
    },
    {
      "midi": 45,
      "hit": false,
      "t": 269157.3756666665,
      "d": 162.2934083333239,
      "v": 55
    },
    {
      "midi": 43,
      "hit": false,
      "t": 269656.7399999998,
      "d": 739.6834187500062,
      "v": 127
    },
    {
      "midi": 59,
      "hit": false,
      "t": 269656.7399999998,
      "d": 4687.782679166528,
      "v": 127
    },
    {
      "midi": 67,
      "hit": false,
      "t": 269656.7399999998,
      "d": 4747.082193749899,
      "v": 127
    },
    {
      "midi": 62,
      "hit": false,
      "t": 269656.7399999998,
      "d": 4750.203220833209,
      "v": 127
    },
    {
      "midi": 43,
      "hit": false,
      "t": 271654.19733333314,
      "d": 187.26162499998463,
      "v": 76
    },
    {
      "midi": 31,
      "hit": false,
      "t": 271654.19733333314,
      "d": 205.98778749996563,
      "v": 68
    },
    {
      "midi": 43,
      "hit": false,
      "t": 272153.5616666664,
      "d": 237.1980583333061,
      "v": 97
    },
    {
      "midi": 31,
      "hit": false,
      "t": 272153.5616666664,
      "d": 240.31908541661687,
      "v": 97
    },
    {
      "midi": 43,
      "hit": false,
      "t": 272652.9259999997,
      "d": 171.6564895833144,
      "v": 127
    },
    {
      "midi": 31,
      "hit": false,
      "t": 272652.9259999997,
      "d": 177.89854374999413,
      "v": 127
    },
    {
      "midi": 31,
      "hit": false,
      "t": 273152.290333333,
      "d": 234.07703124999534,
      "v": 127
    },
    {
      "midi": 43,
      "hit": false,
      "t": 273152.290333333,
      "d": 237.1980583333061,
      "v": 127
    },
    {
      "midi": 31,
      "hit": false,
      "t": 273651.65466666635,
      "d": 259.0452479166561,
      "v": 127
    },
    {
      "midi": 43,
      "hit": false,
      "t": 273651.65466666635,
      "d": 268.4083291666466,
      "v": 127
    },
    {
      "midi": 31,
      "hit": false,
      "t": 274151.0189999997,
      "d": 234.07703124999534,
      "v": 127
    },
    {
      "midi": 43,
      "hit": false,
      "t": 274151.0189999997,
      "d": 240.31908541667508,
      "v": 127
    },
    {
      "midi": 65,
      "hit": false,
      "t": 274650.383333333,
      "d": 31.210270833340473,
      "v": 97
    },
    {
      "midi": 31,
      "hit": false,
      "t": 274650.383333333,
      "d": 243.44011249998584,
      "v": 127
    },
    {
      "midi": 43,
      "hit": false,
      "t": 274650.383333333,
      "d": 249.68216666666558,
      "v": 127
    },
    {
      "midi": 62,
      "hit": false,
      "t": 274650.383333333,
      "d": 265.2873020833358,
      "v": 127
    },
    {
      "midi": 55,
      "hit": false,
      "t": 274650.383333333,
      "d": 287.1344916666858,
      "v": 127
    },
    {
      "midi": 67,
      "hit": false,
      "t": 274650.383333333,
      "d": 299.61860000004526,
      "v": 127
    },
    {
      "midi": 43,
      "hit": false,
      "t": 275149.7476666664,
      "d": 240.31908541667508,
      "v": 127
    },
    {
      "midi": 31,
      "hit": false,
      "t": 275149.7476666664,
      "d": 255.92422083334532,
      "v": 127
    },
    {
      "midi": 62,
      "hit": false,
      "t": 275149.7476666664,
      "d": 265.2873020833358,
      "v": 127
    },
    {
      "midi": 67,
      "hit": false,
      "t": 275149.7476666664,
      "d": 280.89243750000605,
      "v": 127
    },
    {
      "midi": 55,
      "hit": false,
      "t": 275149.7476666664,
      "d": 302.739627083356,
      "v": 127
    },
    {
      "midi": 46,
      "hit": false,
      "t": 275649.112,
      "d": 187.26162499998463,
      "v": 93
    },
    {
      "midi": 46,
      "hit": false,
      "t": 276148.47633333335,
      "d": 146.68827291665366,
      "v": 48
    },
    {
      "midi": 46,
      "hit": false,
      "t": 276647.8406666667,
      "d": 146.68827291665366,
      "v": 55
    },
    {
      "midi": 46,
      "hit": false,
      "t": 277147.205,
      "d": 171.6564895833144,
      "v": 80
    },
    {
      "midi": 46,
      "hit": false,
      "t": 277646.56933333335,
      "d": 149.80930000002263,
      "v": 48
    },
    {
      "midi": 46,
      "hit": false,
      "t": 278145.9336666667,
      "d": 143.5672458333429,
      "v": 66
    },
    {
      "midi": 46,
      "hit": false,
      "t": 278645.298,
      "d": 177.89854374999413,
      "v": 88
    },
    {
      "midi": 46,
      "hit": false,
      "t": 279144.66233333334,
      "d": 140.44621874997392,
      "v": 53
    },
    {
      "midi": 46,
      "hit": false,
      "t": 279644.0266666667,
      "d": 134.2041645833524,
      "v": 66
    },
    {
      "midi": 46,
      "hit": false,
      "t": 280143.391,
      "d": 159.17238125001313,
      "v": 93
    },
    {
      "midi": 46,
      "hit": false,
      "t": 280642.75533333333,
      "d": 134.2041645833524,
      "v": 66
    },
    {
      "midi": 46,
      "hit": false,
      "t": 281142.11966666667,
      "d": 131.08313749998342,
      "v": 64
    },
    {
      "midi": 46,
      "hit": false,
      "t": 281641.484,
      "d": 149.80930000002263,
      "v": 105
    },
    {
      "midi": 46,
      "hit": false,
      "t": 282140.8483333333,
      "d": 127.96211041667266,
      "v": 62
    },
    {
      "midi": 46,
      "hit": false,
      "t": 282640.21266666666,
      "d": 174.77751666668337,
      "v": 77
    },
    {
      "midi": 46,
      "hit": false,
      "t": 283139.577,
      "d": 187.26162499998463,
      "v": 93
    },
    {
      "midi": 46,
      "hit": false,
      "t": 283638.9413333333,
      "d": 127.96211041667266,
      "v": 62
    },
    {
      "midi": 46,
      "hit": false,
      "t": 284138.30566666665,
      "d": 127.96211041667266,
      "v": 66
    },
    {
      "midi": 46,
      "hit": false,
      "t": 284637.67,
      "d": 205.98778750002384,
      "v": 88
    },
    {
      "midi": 46,
      "hit": false,
      "t": 285137.0343333333,
      "d": 143.5672458333429,
      "v": 53
    },
    {
      "midi": 46,
      "hit": false,
      "t": 285636.39866666665,
      "d": 140.44621874997392,
      "v": 64
    },
    {
      "midi": 46,
      "hit": false,
      "t": 286135.763,
      "d": 146.68827291665366,
      "v": 88
    },
    {
      "midi": 46,
      "hit": false,
      "t": 286635.1273333333,
      "d": 124.8410833333619,
      "v": 57
    },
    {
      "midi": 46,
      "hit": false,
      "t": 287134.4916666667,
      "d": 65.54156874999171,
      "v": 50
    },
    {
      "midi": 46,
      "hit": false,
      "t": 287633.856,
      "d": 149.80930000002263,
      "v": 93
    },
    {
      "midi": 46,
      "hit": false,
      "t": 288133.22033333336,
      "d": 131.08313749998342,
      "v": 53
    },
    {
      "midi": 46,
      "hit": false,
      "t": 288632.5846666667,
      "d": 118.59902916668216,
      "v": 50
    },
    {
      "midi": 46,
      "hit": false,
      "t": 289131.949,
      "d": 162.2934083333239,
      "v": 83
    },
    {
      "midi": 46,
      "hit": false,
      "t": 289631.31333333335,
      "d": 127.96211041667266,
      "v": 55
    },
    {
      "midi": 46,
      "hit": false,
      "t": 290130.6776666667,
      "d": 134.2041645833524,
      "v": 60
    },
    {
      "midi": 46,
      "hit": false,
      "t": 290630.042,
      "d": 227.8349770833156,
      "v": 83
    },
    {
      "midi": 46,
      "hit": false,
      "t": 291129.40633333335,
      "d": 131.08313749998342,
      "v": 57
    },
    {
      "midi": 46,
      "hit": false,
      "t": 291628.7706666667,
      "d": 149.80930000002263,
      "v": 57
    },
    {
      "midi": 46,
      "hit": false,
      "t": 292128.135,
      "d": 174.77751666668337,
      "v": 83
    },
    {
      "midi": 46,
      "hit": false,
      "t": 292627.49933333334,
      "d": 140.44621874997392,
      "v": 60
    },
    {
      "midi": 46,
      "hit": false,
      "t": 293126.8636666667,
      "d": 146.68827291665366,
      "v": 62
    },
    {
      "midi": 46,
      "hit": false,
      "t": 293626.228,
      "d": 162.2934083333239,
      "v": 88
    },
    {
      "midi": 46,
      "hit": false,
      "t": 294125.59233333333,
      "d": 134.2041645833524,
      "v": 53
    },
    {
      "midi": 47,
      "hit": false,
      "t": 294624.95666666643,
      "d": 149.80930000002263,
      "v": 11
    },
    {
      "midi": 35,
      "hit": false,
      "t": 294624.95666666643,
      "d": 165.41443541669287,
      "v": 8
    },
    {
      "midi": 46,
      "hit": false,
      "t": 294624.95666666667,
      "d": 127.96211041667266,
      "v": 64
    },
    {
      "midi": 47,
      "hit": false,
      "t": 295124.32099999976,
      "d": 156.05135416664416,
      "v": 51
    },
    {
      "midi": 35,
      "hit": false,
      "t": 295124.32099999976,
      "d": 181.0195708333049,
      "v": 51
    },
    {
      "midi": 46,
      "hit": false,
      "t": 295124.321,
      "d": 156.05135416664416,
      "v": 88
    },
    {
      "midi": 47,
      "hit": false,
      "t": 295623.6853333331,
      "d": 131.08313749998342,
      "v": 61
    },
    {
      "midi": 35,
      "hit": false,
      "t": 295623.6853333331,
      "d": 181.0195708333049,
      "v": 61
    },
    {
      "midi": 46,
      "hit": false,
      "t": 295623.6853333333,
      "d": 140.44621874997392,
      "v": 60
    },
    {
      "midi": 47,
      "hit": false,
      "t": 296123.0496666664,
      "d": 112.35697500000242,
      "v": 71
    },
    {
      "midi": 35,
      "hit": false,
      "t": 296123.0496666664,
      "d": 181.0195708333631,
      "v": 71
    },
    {
      "midi": 46,
      "hit": false,
      "t": 296123.04966666666,
      "d": 124.8410833333619,
      "v": 66
    },
    {
      "midi": 47,
      "hit": false,
      "t": 296622.4139999998,
      "d": 115.47800208331319,
      "v": 81
    },
    {
      "midi": 35,
      "hit": false,
      "t": 296622.4139999998,
      "d": 146.68827291665366,
      "v": 81
    },
    {
      "midi": 46,
      "hit": false,
      "t": 296622.41400000005,
      "d": 134.2041645833524,
      "v": 105
    },
    {
      "midi": 47,
      "hit": false,
      "t": 297121.77833333315,
      "d": 109.23594791669166,
      "v": 91
    },
    {
      "midi": 35,
      "hit": false,
      "t": 297121.77833333315,
      "d": 143.5672458333429,
      "v": 91
    },
    {
      "midi": 46,
      "hit": false,
      "t": 297121.7783333334,
      "d": 118.59902916668216,
      "v": 60
    },
    {
      "midi": 47,
      "hit": false,
      "t": 297621.1426666665,
      "d": 99.87286666664295,
      "v": 100
    },
    {
      "midi": 35,
      "hit": false,
      "t": 297621.1426666665,
      "d": 102.99389374995371,
      "v": 100
    },
    {
      "midi": 46,
      "hit": false,
      "t": 297621.1426666667,
      "d": 134.2041645833524,
      "v": 71
    },
    {
      "midi": 47,
      "hit": false,
      "t": 298120.50699999975,
      "d": 96.75183958333218,
      "v": 110
    },
    {
      "midi": 35,
      "hit": false,
      "t": 298120.50699999975,
      "d": 99.87286666664295,
      "v": 110
    },
    {
      "midi": 46,
      "hit": false,
      "t": 298120.50700000004,
      "d": 124.8410833333619,
      "v": 105
    },
    {
      "midi": 35,
      "hit": false,
      "t": 298619.8713333331,
      "d": 96.75183958333218,
      "v": 120
    },
    {
      "midi": 47,
      "hit": false,
      "t": 298619.8713333331,
      "d": 99.87286666664295,
      "v": 120
    },
    {
      "midi": 46,
      "hit": false,
      "t": 298619.87133333343,
      "d": 93.63081250002142,
      "v": 69
    },
    {
      "midi": 35,
      "hit": false,
      "t": 299119.2356666664,
      "d": 383.886331250018,
      "v": 127
    },
    {
      "midi": 47,
      "hit": false,
      "t": 299119.2356666664,
      "d": 390.1283854166977,
      "v": 127
    },
    {
      "midi": 46,
      "hit": false,
      "t": 299119.23566666676,
      "d": 81.14670416666195,
      "v": 40
    },
    {
      "midi": 64,
      "hit": false,
      "t": 299618.5999999998,
      "d": 349.55503333330853,
      "v": 127
    },
    {
      "midi": 68,
      "hit": false,
      "t": 299618.5999999998,
      "d": 349.55503333330853,
      "v": 127
    },
    {
      "midi": 71,
      "hit": false,
      "t": 299618.5999999998,
      "d": 349.55503333330853,
      "v": 127
    },
    {
      "midi": 64,
      "hit": false,
      "t": 300117.96433333313,
      "d": 349.55503333330853,
      "v": 115
    },
    {
      "midi": 68,
      "hit": false,
      "t": 300117.96433333313,
      "d": 349.55503333330853,
      "v": 115
    },
    {
      "midi": 71,
      "hit": false,
      "t": 300117.96433333313,
      "d": 349.55503333330853,
      "v": 115
    },
    {
      "midi": 64,
      "hit": false,
      "t": 300617.32866666646,
      "d": 349.55503333330853,
      "v": 105
    },
    {
      "midi": 68,
      "hit": false,
      "t": 300617.32866666646,
      "d": 349.55503333330853,
      "v": 105
    },
    {
      "midi": 71,
      "hit": false,
      "t": 300617.32866666646,
      "d": 349.55503333330853,
      "v": 105
    },
    {
      "midi": 64,
      "hit": false,
      "t": 301116.6929999998,
      "d": 349.55503333330853,
      "v": 127
    },
    {
      "midi": 68,
      "hit": false,
      "t": 301116.6929999998,
      "d": 349.55503333330853,
      "v": 127
    },
    {
      "midi": 71,
      "hit": false,
      "t": 301116.6929999998,
      "d": 349.55503333330853,
      "v": 127
    },
    {
      "midi": 64,
      "hit": false,
      "t": 301616.0573333331,
      "d": 349.55503333330853,
      "v": 112
    },
    {
      "midi": 68,
      "hit": false,
      "t": 301616.0573333331,
      "d": 349.55503333330853,
      "v": 112
    },
    {
      "midi": 71,
      "hit": false,
      "t": 301616.0573333331,
      "d": 349.55503333330853,
      "v": 100
    },
    {
      "midi": 64,
      "hit": false,
      "t": 302115.42166666646,
      "d": 349.55503333330853,
      "v": 100
    },
    {
      "midi": 68,
      "hit": false,
      "t": 302115.42166666646,
      "d": 349.55503333330853,
      "v": 100
    },
    {
      "midi": 71,
      "hit": false,
      "t": 302115.42166666646,
      "d": 349.55503333330853,
      "v": 100
    },
    {
      "midi": 63,
      "hit": false,
      "t": 302614.7859999998,
      "d": 349.55503333330853,
      "v": 127
    },
    {
      "midi": 66,
      "hit": false,
      "t": 302614.7859999998,
      "d": 349.55503333330853,
      "v": 127
    },
    {
      "midi": 71,
      "hit": false,
      "t": 302614.7859999998,
      "d": 349.55503333330853,
      "v": 127
    },
    {
      "midi": 63,
      "hit": false,
      "t": 303114.1503333331,
      "d": 349.55503333330853,
      "v": 118
    },
    {
      "midi": 66,
      "hit": false,
      "t": 303114.1503333331,
      "d": 349.55503333330853,
      "v": 118
    },
    {
      "midi": 71,
      "hit": false,
      "t": 303114.1503333331,
      "d": 349.55503333330853,
      "v": 118
    },
    {
      "midi": 63,
      "hit": false,
      "t": 303613.51466666645,
      "d": 349.55503333330853,
      "v": 108
    },
    {
      "midi": 66,
      "hit": false,
      "t": 303613.51466666645,
      "d": 349.55503333330853,
      "v": 108
    },
    {
      "midi": 71,
      "hit": false,
      "t": 303613.51466666645,
      "d": 349.55503333330853,
      "v": 108
    },
    {
      "midi": 63,
      "hit": false,
      "t": 304112.8789999998,
      "d": 349.55503333330853,
      "v": 127
    },
    {
      "midi": 66,
      "hit": false,
      "t": 304112.8789999998,
      "d": 349.55503333330853,
      "v": 127
    },
    {
      "midi": 71,
      "hit": false,
      "t": 304112.8789999998,
      "d": 349.55503333330853,
      "v": 100
    },
    {
      "midi": 63,
      "hit": false,
      "t": 304612.2433333331,
      "d": 349.55503333330853,
      "v": 118
    },
    {
      "midi": 66,
      "hit": false,
      "t": 304612.2433333331,
      "d": 349.55503333330853,
      "v": 118
    },
    {
      "midi": 71,
      "hit": false,
      "t": 304612.2433333331,
      "d": 349.55503333330853,
      "v": 118
    },
    {
      "midi": 63,
      "hit": false,
      "t": 305111.60766666644,
      "d": 349.55503333330853,
      "v": 110
    },
    {
      "midi": 66,
      "hit": false,
      "t": 305111.60766666644,
      "d": 349.55503333330853,
      "v": 110
    },
    {
      "midi": 71,
      "hit": false,
      "t": 305111.60766666644,
      "d": 349.55503333330853,
      "v": 110
    },
    {
      "midi": 64,
      "hit": false,
      "t": 305610.9719999998,
      "d": 349.55503333330853,
      "v": 127
    },
    {
      "midi": 68,
      "hit": false,
      "t": 305610.9719999998,
      "d": 349.55503333330853,
      "v": 127
    },
    {
      "midi": 73,
      "hit": false,
      "t": 305610.9719999998,
      "d": 349.55503333330853,
      "v": 127
    },
    {
      "midi": 64,
      "hit": false,
      "t": 306110.3363333331,
      "d": 349.55503333330853,
      "v": 113
    },
    {
      "midi": 68,
      "hit": false,
      "t": 306110.3363333331,
      "d": 349.55503333330853,
      "v": 113
    },
    {
      "midi": 73,
      "hit": false,
      "t": 306110.3363333331,
      "d": 349.55503333330853,
      "v": 113
    },
    {
      "midi": 64,
      "hit": false,
      "t": 306609.70066666644,
      "d": 349.55503333330853,
      "v": 94
    },
    {
      "midi": 68,
      "hit": false,
      "t": 306609.70066666644,
      "d": 349.55503333330853,
      "v": 100
    },
    {
      "midi": 73,
      "hit": false,
      "t": 306609.70066666644,
      "d": 349.55503333330853,
      "v": 106
    },
    {
      "midi": 64,
      "hit": false,
      "t": 307109.06499999977,
      "d": 349.55503333330853,
      "v": 112
    },
    {
      "midi": 68,
      "hit": false,
      "t": 307109.06499999977,
      "d": 349.55503333330853,
      "v": 127
    },
    {
      "midi": 73,
      "hit": false,
      "t": 307109.06499999977,
      "d": 349.55503333330853,
      "v": 127
    },
    {
      "midi": 64,
      "hit": false,
      "t": 307608.4293333331,
      "d": 349.55503333330853,
      "v": 100
    },
    {
      "midi": 68,
      "hit": false,
      "t": 307608.4293333331,
      "d": 349.55503333330853,
      "v": 112
    },
    {
      "midi": 73,
      "hit": false,
      "t": 307608.4293333331,
      "d": 349.55503333330853,
      "v": 112
    },
    {
      "midi": 64,
      "hit": false,
      "t": 308107.79366666643,
      "d": 349.55503333330853,
      "v": 100
    },
    {
      "midi": 68,
      "hit": false,
      "t": 308107.79366666643,
      "d": 349.55503333330853,
      "v": 106
    },
    {
      "midi": 73,
      "hit": false,
      "t": 308107.79366666643,
      "d": 349.55503333330853,
      "v": 100
    },
    {
      "midi": 64,
      "hit": false,
      "t": 308607.15799999976,
      "d": 349.55503333330853,
      "v": 112
    },
    {
      "midi": 69,
      "hit": false,
      "t": 308607.15799999976,
      "d": 349.55503333330853,
      "v": 127
    },
    {
      "midi": 73,
      "hit": false,
      "t": 308607.15799999976,
      "d": 349.55503333330853,
      "v": 127
    },
    {
      "midi": 64,
      "hit": false,
      "t": 309106.5223333331,
      "d": 349.55503333330853,
      "v": 94
    },
    {
      "midi": 69,
      "hit": false,
      "t": 309106.5223333331,
      "d": 349.55503333330853,
      "v": 100
    },
    {
      "midi": 73,
      "hit": false,
      "t": 309106.5223333331,
      "d": 349.55503333330853,
      "v": 106
    },
    {
      "midi": 64,
      "hit": false,
      "t": 309605.8866666664,
      "d": 349.55503333330853,
      "v": 94
    },
    {
      "midi": 69,
      "hit": false,
      "t": 309605.8866666664,
      "d": 349.55503333330853,
      "v": 112
    },
    {
      "midi": 73,
      "hit": false,
      "t": 309605.8866666664,
      "d": 349.55503333330853,
      "v": 127
    },
    {
      "midi": 64,
      "hit": false,
      "t": 310105.25099999976,
      "d": 349.55503333330853,
      "v": 92
    },
    {
      "midi": 69,
      "hit": false,
      "t": 310105.25099999976,
      "d": 349.55503333330853,
      "v": 100
    },
    {
      "midi": 73,
      "hit": false,
      "t": 310105.25099999976,
      "d": 349.55503333330853,
      "v": 106
    },
    {
      "midi": 64,
      "hit": false,
      "t": 310604.6153333331,
      "d": 349.55503333330853,
      "v": 127
    },
    {
      "midi": 69,
      "hit": false,
      "t": 310604.6153333331,
      "d": 349.55503333330853,
      "v": 127
    },
    {
      "midi": 73,
      "hit": false,
      "t": 310604.6153333331,
      "d": 349.55503333330853,
      "v": 127
    },
    {
      "midi": 64,
      "hit": false,
      "t": 311103.9796666664,
      "d": 349.55503333330853,
      "v": 94
    },
    {
      "midi": 69,
      "hit": false,
      "t": 311103.9796666664,
      "d": 349.55503333330853,
      "v": 112
    },
    {
      "midi": 73,
      "hit": false,
      "t": 311103.9796666664,
      "d": 349.55503333330853,
      "v": 127
    },
    {
      "midi": 64,
      "hit": false,
      "t": 311603.34399999975,
      "d": 349.55503333330853,
      "v": 112
    },
    {
      "midi": 68,
      "hit": false,
      "t": 311603.34399999975,
      "d": 349.55503333330853,
      "v": 127
    },
    {
      "midi": 71,
      "hit": false,
      "t": 311603.34399999975,
      "d": 349.55503333330853,
      "v": 112
    },
    {
      "midi": 64,
      "hit": false,
      "t": 312102.7083333331,
      "d": 349.55503333330853,
      "v": 90
    },
    {
      "midi": 68,
      "hit": false,
      "t": 312102.7083333331,
      "d": 349.55503333330853,
      "v": 86
    },
    {
      "midi": 71,
      "hit": false,
      "t": 312102.7083333331,
      "d": 349.55503333330853,
      "v": 87
    },
    {
      "midi": 64,
      "hit": false,
      "t": 312602.0726666664,
      "d": 349.55503333330853,
      "v": 97
    },
    {
      "midi": 68,
      "hit": false,
      "t": 312602.0726666664,
      "d": 349.55503333330853,
      "v": 96
    },
    {
      "midi": 71,
      "hit": false,
      "t": 312602.0726666664,
      "d": 349.55503333330853,
      "v": 90
    },
    {
      "midi": 64,
      "hit": false,
      "t": 313101.43699999974,
      "d": 349.55503333330853,
      "v": 123
    },
    {
      "midi": 68,
      "hit": false,
      "t": 313101.43699999974,
      "d": 349.55503333330853,
      "v": 123
    },
    {
      "midi": 71,
      "hit": false,
      "t": 313101.43699999974,
      "d": 349.55503333330853,
      "v": 123
    },
    {
      "midi": 64,
      "hit": false,
      "t": 313600.8013333331,
      "d": 349.55503333330853,
      "v": 112
    },
    {
      "midi": 68,
      "hit": false,
      "t": 313600.8013333331,
      "d": 349.55503333330853,
      "v": 112
    },
    {
      "midi": 71,
      "hit": false,
      "t": 313600.8013333331,
      "d": 349.55503333330853,
      "v": 112
    },
    {
      "midi": 64,
      "hit": false,
      "t": 314100.1656666664,
      "d": 349.55503333330853,
      "v": 108
    },
    {
      "midi": 66,
      "hit": false,
      "t": 314100.1656666664,
      "d": 349.55503333330853,
      "v": 108
    },
    {
      "midi": 71,
      "hit": false,
      "t": 314100.1656666664,
      "d": 349.55503333330853,
      "v": 108
    },
    {
      "midi": 63,
      "hit": false,
      "t": 314599.52999999974,
      "d": 349.55503333330853,
      "v": 127
    },
    {
      "midi": 66,
      "hit": false,
      "t": 314599.52999999974,
      "d": 349.55503333330853,
      "v": 127
    },
    {
      "midi": 71,
      "hit": false,
      "t": 314599.52999999974,
      "d": 349.55503333330853,
      "v": 100
    },
    {
      "midi": 63,
      "hit": false,
      "t": 315098.89433333307,
      "d": 349.55503333330853,
      "v": 93
    },
    {
      "midi": 66,
      "hit": false,
      "t": 315098.89433333307,
      "d": 349.55503333330853,
      "v": 106
    },
    {
      "midi": 71,
      "hit": false,
      "t": 315098.89433333307,
      "d": 349.55503333330853,
      "v": 90
    },
    {
      "midi": 63,
      "hit": false,
      "t": 315598.2586666664,
      "d": 349.55503333330853,
      "v": 96
    },
    {
      "midi": 66,
      "hit": false,
      "t": 315598.2586666664,
      "d": 349.55503333330853,
      "v": 106
    },
    {
      "midi": 71,
      "hit": false,
      "t": 315598.2586666664,
      "d": 349.55503333330853,
      "v": 90
    },
    {
      "midi": 63,
      "hit": false,
      "t": 316097.62299999973,
      "d": 349.55503333330853,
      "v": 106
    },
    {
      "midi": 66,
      "hit": false,
      "t": 316097.62299999973,
      "d": 349.55503333330853,
      "v": 127
    },
    {
      "midi": 71,
      "hit": false,
      "t": 316097.62299999973,
      "d": 349.55503333330853,
      "v": 94
    },
    {
      "midi": 63,
      "hit": false,
      "t": 316596.98733333306,
      "d": 349.55503333330853,
      "v": 93
    },
    {
      "midi": 66,
      "hit": false,
      "t": 316596.98733333306,
      "d": 349.55503333330853,
      "v": 106
    },
    {
      "midi": 71,
      "hit": false,
      "t": 316596.98733333306,
      "d": 349.55503333330853,
      "v": 83
    },
    {
      "midi": 63,
      "hit": false,
      "t": 317096.3516666664,
      "d": 349.55503333330853,
      "v": 100
    },
    {
      "midi": 66,
      "hit": false,
      "t": 317096.3516666664,
      "d": 349.55503333330853,
      "v": 93
    },
    {
      "midi": 71,
      "hit": false,
      "t": 317096.3516666664,
      "d": 349.55503333330853,
      "v": 85
    },
    {
      "midi": 61,
      "hit": false,
      "t": 317595.7159999997,
      "d": 349.55503333330853,
      "v": 127
    },
    {
      "midi": 64,
      "hit": false,
      "t": 317595.7159999997,
      "d": 349.55503333330853,
      "v": 127
    },
    {
      "midi": 69,
      "hit": false,
      "t": 317595.7159999997,
      "d": 349.55503333330853,
      "v": 100
    },
    {
      "midi": 61,
      "hit": false,
      "t": 318095.08033333306,
      "d": 349.55503333330853,
      "v": 93
    },
    {
      "midi": 64,
      "hit": false,
      "t": 318095.08033333306,
      "d": 349.55503333330853,
      "v": 106
    },
    {
      "midi": 69,
      "hit": false,
      "t": 318095.08033333306,
      "d": 349.55503333330853,
      "v": 90
    },
    {
      "midi": 61,
      "hit": false,
      "t": 318594.4446666664,
      "d": 349.55503333330853,
      "v": 96
    },
    {
      "midi": 64,
      "hit": false,
      "t": 318594.4446666664,
      "d": 349.55503333330853,
      "v": 106
    },
    {
      "midi": 69,
      "hit": false,
      "t": 318594.4446666664,
      "d": 349.55503333330853,
      "v": 90
    },
    {
      "midi": 61,
      "hit": false,
      "t": 319093.8089999997,
      "d": 349.55503333330853,
      "v": 106
    },
    {
      "midi": 64,
      "hit": false,
      "t": 319093.8089999997,
      "d": 349.55503333330853,
      "v": 127
    },
    {
      "midi": 69,
      "hit": false,
      "t": 319093.8089999997,
      "d": 349.55503333330853,
      "v": 94
    },
    {
      "midi": 61,
      "hit": false,
      "t": 319593.17333333305,
      "d": 349.55503333330853,
      "v": 93
    },
    {
      "midi": 64,
      "hit": false,
      "t": 319593.17333333305,
      "d": 349.55503333330853,
      "v": 106
    },
    {
      "midi": 69,
      "hit": false,
      "t": 319593.17333333305,
      "d": 349.55503333330853,
      "v": 83
    },
    {
      "midi": 61,
      "hit": false,
      "t": 320092.5376666664,
      "d": 349.55503333330853,
      "v": 100
    },
    {
      "midi": 64,
      "hit": false,
      "t": 320092.5376666664,
      "d": 349.55503333330853,
      "v": 93
    },
    {
      "midi": 69,
      "hit": false,
      "t": 320092.5376666664,
      "d": 349.55503333330853,
      "v": 85
    },
    {
      "midi": 61,
      "hit": false,
      "t": 320591.9019999997,
      "d": 349.55503333330853,
      "v": 127
    },
    {
      "midi": 64,
      "hit": false,
      "t": 320591.9019999997,
      "d": 349.55503333330853,
      "v": 127
    },
    {
      "midi": 69,
      "hit": false,
      "t": 320591.9019999997,
      "d": 349.55503333330853,
      "v": 100
    },
    {
      "midi": 61,
      "hit": false,
      "t": 321091.26633333304,
      "d": 349.55503333330853,
      "v": 93
    },
    {
      "midi": 64,
      "hit": false,
      "t": 321091.26633333304,
      "d": 349.55503333330853,
      "v": 106
    },
    {
      "midi": 69,
      "hit": false,
      "t": 321091.26633333304,
      "d": 349.55503333330853,
      "v": 90
    },
    {
      "midi": 61,
      "hit": false,
      "t": 321590.6306666664,
      "d": 349.55503333330853,
      "v": 96
    },
    {
      "midi": 64,
      "hit": false,
      "t": 321590.6306666664,
      "d": 349.55503333330853,
      "v": 106
    },
    {
      "midi": 69,
      "hit": false,
      "t": 321590.6306666664,
      "d": 349.55503333330853,
      "v": 90
    },
    {
      "midi": 61,
      "hit": false,
      "t": 322089.9949999997,
      "d": 349.55503333330853,
      "v": 106
    },
    {
      "midi": 64,
      "hit": false,
      "t": 322089.9949999997,
      "d": 349.55503333330853,
      "v": 127
    },
    {
      "midi": 69,
      "hit": false,
      "t": 322089.9949999997,
      "d": 349.55503333330853,
      "v": 94
    },
    {
      "midi": 61,
      "hit": false,
      "t": 322589.35933333304,
      "d": 349.55503333330853,
      "v": 93
    },
    {
      "midi": 64,
      "hit": false,
      "t": 322589.35933333304,
      "d": 349.55503333330853,
      "v": 106
    },
    {
      "midi": 69,
      "hit": false,
      "t": 322589.35933333304,
      "d": 349.55503333330853,
      "v": 83
    },
    {
      "midi": 61,
      "hit": false,
      "t": 323088.72366666637,
      "d": 349.55503333330853,
      "v": 100
    },
    {
      "midi": 64,
      "hit": false,
      "t": 323088.72366666637,
      "d": 349.55503333330853,
      "v": 93
    },
    {
      "midi": 69,
      "hit": false,
      "t": 323088.72366666637,
      "d": 349.55503333330853,
      "v": 85
    },
    {
      "midi": 64,
      "hit": false,
      "t": 323588.0879999997,
      "d": 349.55503333330853,
      "v": 127
    },
    {
      "midi": 68,
      "hit": false,
      "t": 323588.0879999997,
      "d": 349.55503333330853,
      "v": 127
    },
    {
      "midi": 71,
      "hit": false,
      "t": 323588.0879999997,
      "d": 349.55503333330853,
      "v": 127
    },
    {
      "midi": 64,
      "hit": false,
      "t": 324087.452333333,
      "d": 349.55503333330853,
      "v": 115
    },
    {
      "midi": 68,
      "hit": false,
      "t": 324087.452333333,
      "d": 349.55503333330853,
      "v": 115
    },
    {
      "midi": 71,
      "hit": false,
      "t": 324087.452333333,
      "d": 349.55503333330853,
      "v": 115
    },
    {
      "midi": 64,
      "hit": false,
      "t": 324586.81666666636,
      "d": 349.55503333330853,
      "v": 105
    },
    {
      "midi": 68,
      "hit": false,
      "t": 324586.81666666636,
      "d": 349.55503333330853,
      "v": 105
    },
    {
      "midi": 71,
      "hit": false,
      "t": 324586.81666666636,
      "d": 349.55503333330853,
      "v": 105
    },
    {
      "midi": 64,
      "hit": false,
      "t": 325086.1809999997,
      "d": 349.55503333330853,
      "v": 127
    },
    {
      "midi": 68,
      "hit": false,
      "t": 325086.1809999997,
      "d": 349.55503333330853,
      "v": 127
    },
    {
      "midi": 71,
      "hit": false,
      "t": 325086.1809999997,
      "d": 349.55503333330853,
      "v": 127
    },
    {
      "midi": 64,
      "hit": false,
      "t": 325585.545333333,
      "d": 349.55503333330853,
      "v": 112
    },
    {
      "midi": 68,
      "hit": false,
      "t": 325585.545333333,
      "d": 349.55503333330853,
      "v": 112
    },
    {
      "midi": 71,
      "hit": false,
      "t": 325585.545333333,
      "d": 349.55503333330853,
      "v": 100
    },
    {
      "midi": 64,
      "hit": false,
      "t": 326084.90966666635,
      "d": 349.55503333330853,
      "v": 100
    },
    {
      "midi": 68,
      "hit": false,
      "t": 326084.90966666635,
      "d": 349.55503333330853,
      "v": 100
    },
    {
      "midi": 71,
      "hit": false,
      "t": 326084.90966666635,
      "d": 349.55503333330853,
      "v": 100
    },
    {
      "midi": 63,
      "hit": false,
      "t": 326584.2739999997,
      "d": 349.55503333330853,
      "v": 127
    },
    {
      "midi": 66,
      "hit": false,
      "t": 326584.2739999997,
      "d": 349.55503333330853,
      "v": 127
    },
    {
      "midi": 71,
      "hit": false,
      "t": 326584.2739999997,
      "d": 349.55503333330853,
      "v": 127
    },
    {
      "midi": 63,
      "hit": false,
      "t": 327083.638333333,
      "d": 349.55503333330853,
      "v": 118
    },
    {
      "midi": 66,
      "hit": false,
      "t": 327083.638333333,
      "d": 349.55503333330853,
      "v": 118
    },
    {
      "midi": 71,
      "hit": false,
      "t": 327083.638333333,
      "d": 349.55503333330853,
      "v": 118
    },
    {
      "midi": 63,
      "hit": false,
      "t": 327583.00266666635,
      "d": 349.55503333330853,
      "v": 108
    },
    {
      "midi": 66,
      "hit": false,
      "t": 327583.00266666635,
      "d": 349.55503333330853,
      "v": 108
    },
    {
      "midi": 71,
      "hit": false,
      "t": 327583.00266666635,
      "d": 349.55503333330853,
      "v": 108
    },
    {
      "midi": 63,
      "hit": false,
      "t": 328082.3669999997,
      "d": 349.55503333330853,
      "v": 127
    },
    {
      "midi": 66,
      "hit": false,
      "t": 328082.3669999997,
      "d": 349.55503333330853,
      "v": 127
    },
    {
      "midi": 71,
      "hit": false,
      "t": 328082.3669999997,
      "d": 349.55503333330853,
      "v": 100
    },
    {
      "midi": 63,
      "hit": false,
      "t": 328581.731333333,
      "d": 349.55503333330853,
      "v": 118
    },
    {
      "midi": 66,
      "hit": false,
      "t": 328581.731333333,
      "d": 349.55503333330853,
      "v": 118
    },
    {
      "midi": 71,
      "hit": false,
      "t": 328581.731333333,
      "d": 349.55503333330853,
      "v": 118
    },
    {
      "midi": 63,
      "hit": false,
      "t": 329081.09566666634,
      "d": 349.55503333330853,
      "v": 110
    },
    {
      "midi": 66,
      "hit": false,
      "t": 329081.09566666634,
      "d": 349.55503333330853,
      "v": 110
    },
    {
      "midi": 71,
      "hit": false,
      "t": 329081.09566666634,
      "d": 349.55503333330853,
      "v": 110
    },
    {
      "midi": 64,
      "hit": false,
      "t": 329580.4599999997,
      "d": 349.55503333330853,
      "v": 127
    },
    {
      "midi": 68,
      "hit": false,
      "t": 329580.4599999997,
      "d": 349.55503333330853,
      "v": 127
    },
    {
      "midi": 73,
      "hit": false,
      "t": 329580.4599999997,
      "d": 349.55503333330853,
      "v": 127
    },
    {
      "midi": 64,
      "hit": false,
      "t": 330079.824333333,
      "d": 349.55503333330853,
      "v": 113
    },
    {
      "midi": 68,
      "hit": false,
      "t": 330079.824333333,
      "d": 349.55503333330853,
      "v": 113
    },
    {
      "midi": 73,
      "hit": false,
      "t": 330079.824333333,
      "d": 349.55503333330853,
      "v": 113
    },
    {
      "midi": 64,
      "hit": false,
      "t": 330579.18866666633,
      "d": 349.55503333330853,
      "v": 94
    },
    {
      "midi": 68,
      "hit": false,
      "t": 330579.18866666633,
      "d": 349.55503333330853,
      "v": 100
    },
    {
      "midi": 73,
      "hit": false,
      "t": 330579.18866666633,
      "d": 349.55503333330853,
      "v": 106
    },
    {
      "midi": 64,
      "hit": false,
      "t": 331078.55299999967,
      "d": 349.55503333330853,
      "v": 112
    },
    {
      "midi": 68,
      "hit": false,
      "t": 331078.55299999967,
      "d": 349.55503333330853,
      "v": 127
    },
    {
      "midi": 73,
      "hit": false,
      "t": 331078.55299999967,
      "d": 349.55503333330853,
      "v": 127
    },
    {
      "midi": 64,
      "hit": false,
      "t": 331577.917333333,
      "d": 349.55503333330853,
      "v": 100
    },
    {
      "midi": 68,
      "hit": false,
      "t": 331577.917333333,
      "d": 349.55503333330853,
      "v": 112
    },
    {
      "midi": 73,
      "hit": false,
      "t": 331577.917333333,
      "d": 349.55503333330853,
      "v": 112
    },
    {
      "midi": 64,
      "hit": false,
      "t": 332077.2816666663,
      "d": 349.55503333330853,
      "v": 100
    },
    {
      "midi": 68,
      "hit": false,
      "t": 332077.2816666663,
      "d": 349.55503333330853,
      "v": 106
    },
    {
      "midi": 73,
      "hit": false,
      "t": 332077.2816666663,
      "d": 349.55503333330853,
      "v": 100
    },
    {
      "midi": 64,
      "hit": false,
      "t": 332576.64599999966,
      "d": 349.55503333330853,
      "v": 112
    },
    {
      "midi": 69,
      "hit": false,
      "t": 332576.64599999966,
      "d": 349.55503333330853,
      "v": 127
    },
    {
      "midi": 73,
      "hit": false,
      "t": 332576.64599999966,
      "d": 349.55503333330853,
      "v": 127
    },
    {
      "midi": 64,
      "hit": false,
      "t": 333076.010333333,
      "d": 349.55503333330853,
      "v": 94
    },
    {
      "midi": 69,
      "hit": false,
      "t": 333076.010333333,
      "d": 349.55503333330853,
      "v": 100
    },
    {
      "midi": 73,
      "hit": false,
      "t": 333076.010333333,
      "d": 349.55503333330853,
      "v": 106
    },
    {
      "midi": 64,
      "hit": false,
      "t": 333575.3746666663,
      "d": 349.55503333330853,
      "v": 94
    },
    {
      "midi": 69,
      "hit": false,
      "t": 333575.3746666663,
      "d": 349.55503333330853,
      "v": 112
    },
    {
      "midi": 73,
      "hit": false,
      "t": 333575.3746666663,
      "d": 349.55503333330853,
      "v": 127
    },
    {
      "midi": 64,
      "hit": false,
      "t": 334074.73899999965,
      "d": 349.55503333330853,
      "v": 92
    },
    {
      "midi": 69,
      "hit": false,
      "t": 334074.73899999965,
      "d": 349.55503333330853,
      "v": 100
    },
    {
      "midi": 73,
      "hit": false,
      "t": 334074.73899999965,
      "d": 349.55503333330853,
      "v": 106
    },
    {
      "midi": 64,
      "hit": false,
      "t": 334574.103333333,
      "d": 349.55503333330853,
      "v": 127
    },
    {
      "midi": 69,
      "hit": false,
      "t": 334574.103333333,
      "d": 349.55503333330853,
      "v": 127
    },
    {
      "midi": 73,
      "hit": false,
      "t": 334574.103333333,
      "d": 349.55503333330853,
      "v": 127
    },
    {
      "midi": 64,
      "hit": false,
      "t": 335073.4676666663,
      "d": 349.55503333330853,
      "v": 94
    },
    {
      "midi": 69,
      "hit": false,
      "t": 335073.4676666663,
      "d": 349.55503333330853,
      "v": 112
    },
    {
      "midi": 73,
      "hit": false,
      "t": 335073.4676666663,
      "d": 349.55503333330853,
      "v": 127
    },
    {
      "midi": 64,
      "hit": false,
      "t": 335572.83199999965,
      "d": 349.55503333330853,
      "v": 112
    },
    {
      "midi": 68,
      "hit": false,
      "t": 335572.83199999965,
      "d": 349.55503333330853,
      "v": 127
    },
    {
      "midi": 71,
      "hit": false,
      "t": 335572.83199999965,
      "d": 349.55503333330853,
      "v": 112
    },
    {
      "midi": 64,
      "hit": false,
      "t": 336072.196333333,
      "d": 349.55503333330853,
      "v": 90
    },
    {
      "midi": 68,
      "hit": false,
      "t": 336072.196333333,
      "d": 349.55503333330853,
      "v": 86
    },
    {
      "midi": 71,
      "hit": false,
      "t": 336072.196333333,
      "d": 349.55503333330853,
      "v": 87
    },
    {
      "midi": 64,
      "hit": false,
      "t": 336571.5606666663,
      "d": 349.55503333330853,
      "v": 97
    },
    {
      "midi": 68,
      "hit": false,
      "t": 336571.5606666663,
      "d": 349.55503333330853,
      "v": 96
    },
    {
      "midi": 71,
      "hit": false,
      "t": 336571.5606666663,
      "d": 349.55503333330853,
      "v": 90
    },
    {
      "midi": 64,
      "hit": false,
      "t": 337070.92499999964,
      "d": 349.55503333330853,
      "v": 123
    },
    {
      "midi": 68,
      "hit": false,
      "t": 337070.92499999964,
      "d": 349.55503333330853,
      "v": 123
    },
    {
      "midi": 71,
      "hit": false,
      "t": 337070.92499999964,
      "d": 349.55503333330853,
      "v": 123
    },
    {
      "midi": 64,
      "hit": false,
      "t": 337570.28933333297,
      "d": 349.55503333330853,
      "v": 112
    },
    {
      "midi": 68,
      "hit": false,
      "t": 337570.28933333297,
      "d": 349.55503333330853,
      "v": 112
    },
    {
      "midi": 71,
      "hit": false,
      "t": 337570.28933333297,
      "d": 349.55503333330853,
      "v": 112
    },
    {
      "midi": 64,
      "hit": false,
      "t": 338069.6536666663,
      "d": 349.55503333330853,
      "v": 108
    },
    {
      "midi": 66,
      "hit": false,
      "t": 338069.6536666663,
      "d": 349.55503333330853,
      "v": 108
    },
    {
      "midi": 71,
      "hit": false,
      "t": 338069.6536666663,
      "d": 349.55503333330853,
      "v": 108
    },
    {
      "midi": 63,
      "hit": false,
      "t": 338569.01799999963,
      "d": 349.55503333330853,
      "v": 127
    },
    {
      "midi": 66,
      "hit": false,
      "t": 338569.01799999963,
      "d": 349.55503333330853,
      "v": 127
    },
    {
      "midi": 71,
      "hit": false,
      "t": 338569.01799999963,
      "d": 349.55503333330853,
      "v": 100
    },
    {
      "midi": 63,
      "hit": false,
      "t": 339068.38233333296,
      "d": 349.55503333330853,
      "v": 93
    },
    {
      "midi": 66,
      "hit": false,
      "t": 339068.38233333296,
      "d": 349.55503333330853,
      "v": 106
    },
    {
      "midi": 71,
      "hit": false,
      "t": 339068.38233333296,
      "d": 349.55503333330853,
      "v": 90
    },
    {
      "midi": 63,
      "hit": false,
      "t": 339567.7466666663,
      "d": 349.55503333330853,
      "v": 96
    },
    {
      "midi": 66,
      "hit": false,
      "t": 339567.7466666663,
      "d": 349.55503333330853,
      "v": 106
    },
    {
      "midi": 71,
      "hit": false,
      "t": 339567.7466666663,
      "d": 349.55503333330853,
      "v": 90
    },
    {
      "midi": 63,
      "hit": false,
      "t": 340067.1109999996,
      "d": 349.55503333330853,
      "v": 106
    },
    {
      "midi": 66,
      "hit": false,
      "t": 340067.1109999996,
      "d": 349.55503333330853,
      "v": 127
    },
    {
      "midi": 71,
      "hit": false,
      "t": 340067.1109999996,
      "d": 349.55503333330853,
      "v": 94
    },
    {
      "midi": 63,
      "hit": false,
      "t": 340566.47533333296,
      "d": 349.55503333330853,
      "v": 93
    },
    {
      "midi": 66,
      "hit": false,
      "t": 340566.47533333296,
      "d": 349.55503333330853,
      "v": 106
    },
    {
      "midi": 71,
      "hit": false,
      "t": 340566.47533333296,
      "d": 349.55503333330853,
      "v": 83
    },
    {
      "midi": 63,
      "hit": false,
      "t": 341065.8396666663,
      "d": 349.55503333330853,
      "v": 100
    },
    {
      "midi": 66,
      "hit": false,
      "t": 341065.8396666663,
      "d": 349.55503333330853,
      "v": 93
    },
    {
      "midi": 71,
      "hit": false,
      "t": 341065.8396666663,
      "d": 349.55503333330853,
      "v": 85
    },
    {
      "midi": 61,
      "hit": false,
      "t": 341565.2039999996,
      "d": 349.55503333330853,
      "v": 127
    },
    {
      "midi": 64,
      "hit": false,
      "t": 341565.2039999996,
      "d": 349.55503333330853,
      "v": 127
    },
    {
      "midi": 69,
      "hit": false,
      "t": 341565.2039999996,
      "d": 349.55503333330853,
      "v": 100
    },
    {
      "midi": 61,
      "hit": false,
      "t": 342064.56833333295,
      "d": 349.55503333330853,
      "v": 93
    },
    {
      "midi": 64,
      "hit": false,
      "t": 342064.56833333295,
      "d": 349.55503333330853,
      "v": 106
    },
    {
      "midi": 69,
      "hit": false,
      "t": 342064.56833333295,
      "d": 349.55503333330853,
      "v": 90
    },
    {
      "midi": 61,
      "hit": false,
      "t": 342563.9326666663,
      "d": 349.55503333330853,
      "v": 96
    },
    {
      "midi": 64,
      "hit": false,
      "t": 342563.9326666663,
      "d": 349.55503333330853,
      "v": 106
    },
    {
      "midi": 69,
      "hit": false,
      "t": 342563.9326666663,
      "d": 349.55503333330853,
      "v": 90
    },
    {
      "midi": 61,
      "hit": false,
      "t": 343063.2969999996,
      "d": 349.55503333330853,
      "v": 106
    },
    {
      "midi": 64,
      "hit": false,
      "t": 343063.2969999996,
      "d": 349.55503333330853,
      "v": 127
    },
    {
      "midi": 69,
      "hit": false,
      "t": 343063.2969999996,
      "d": 349.55503333330853,
      "v": 94
    },
    {
      "midi": 61,
      "hit": false,
      "t": 343562.66133333294,
      "d": 349.55503333330853,
      "v": 93
    },
    {
      "midi": 64,
      "hit": false,
      "t": 343562.66133333294,
      "d": 349.55503333330853,
      "v": 106
    },
    {
      "midi": 69,
      "hit": false,
      "t": 343562.66133333294,
      "d": 349.55503333330853,
      "v": 83
    },
    {
      "midi": 61,
      "hit": false,
      "t": 344062.0256666663,
      "d": 349.55503333330853,
      "v": 100
    },
    {
      "midi": 64,
      "hit": false,
      "t": 344062.0256666663,
      "d": 349.55503333330853,
      "v": 93
    },
    {
      "midi": 69,
      "hit": false,
      "t": 344062.0256666663,
      "d": 349.55503333330853,
      "v": 85
    },
    {
      "midi": 61,
      "hit": false,
      "t": 344561.3899999996,
      "d": 349.55503333330853,
      "v": 127
    },
    {
      "midi": 64,
      "hit": false,
      "t": 344561.3899999996,
      "d": 349.55503333330853,
      "v": 127
    },
    {
      "midi": 69,
      "hit": false,
      "t": 344561.3899999996,
      "d": 349.55503333330853,
      "v": 100
    },
    {
      "midi": 61,
      "hit": false,
      "t": 345060.75433333294,
      "d": 349.55503333330853,
      "v": 93
    },
    {
      "midi": 64,
      "hit": false,
      "t": 345060.75433333294,
      "d": 349.55503333330853,
      "v": 106
    },
    {
      "midi": 69,
      "hit": false,
      "t": 345060.75433333294,
      "d": 349.55503333330853,
      "v": 90
    },
    {
      "midi": 61,
      "hit": false,
      "t": 345560.11866666627,
      "d": 349.55503333330853,
      "v": 96
    },
    {
      "midi": 64,
      "hit": false,
      "t": 345560.11866666627,
      "d": 349.55503333330853,
      "v": 106
    },
    {
      "midi": 69,
      "hit": false,
      "t": 345560.11866666627,
      "d": 349.55503333330853,
      "v": 90
    },
    {
      "midi": 61,
      "hit": false,
      "t": 346059.4829999996,
      "d": 349.55503333330853,
      "v": 106
    },
    {
      "midi": 64,
      "hit": false,
      "t": 346059.4829999996,
      "d": 349.55503333330853,
      "v": 127
    },
    {
      "midi": 69,
      "hit": false,
      "t": 346059.4829999996,
      "d": 349.55503333330853,
      "v": 94
    },
    {
      "midi": 46,
      "hit": false,
      "t": 346059.4830000001,
      "d": 127.96211041667266,
      "v": 59
    },
    {
      "midi": 61,
      "hit": false,
      "t": 346558.84733333293,
      "d": 349.55503333330853,
      "v": 93
    },
    {
      "midi": 64,
      "hit": false,
      "t": 346558.84733333293,
      "d": 349.55503333330853,
      "v": 106
    },
    {
      "midi": 69,
      "hit": false,
      "t": 346558.84733333293,
      "d": 349.55503333330853,
      "v": 83
    },
    {
      "midi": 46,
      "hit": false,
      "t": 346558.84733333346,
      "d": 134.2041645833524,
      "v": 80
    },
    {
      "midi": 61,
      "hit": false,
      "t": 347058.21166666626,
      "d": 349.55503333330853,
      "v": 100
    },
    {
      "midi": 64,
      "hit": false,
      "t": 347058.21166666626,
      "d": 349.55503333330853,
      "v": 93
    },
    {
      "midi": 69,
      "hit": false,
      "t": 347058.21166666626,
      "d": 349.55503333330853,
      "v": 85
    },
    {
      "midi": 46,
      "hit": false,
      "t": 347058.2116666668,
      "d": 81.14670416666195,
      "v": 101
    },
    {
      "midi": 64,
      "hit": false,
      "t": 347557.5759999996,
      "d": 349.55503333330853,
      "v": 112
    },
    {
      "midi": 68,
      "hit": false,
      "t": 347557.5759999996,
      "d": 349.55503333330853,
      "v": 127
    },
    {
      "midi": 71,
      "hit": false,
      "t": 347557.5759999996,
      "d": 349.55503333330853,
      "v": 112
    },
    {
      "midi": 64,
      "hit": false,
      "t": 348056.9403333329,
      "d": 349.55503333330853,
      "v": 90
    },
    {
      "midi": 68,
      "hit": false,
      "t": 348056.9403333329,
      "d": 349.55503333330853,
      "v": 86
    },
    {
      "midi": 71,
      "hit": false,
      "t": 348056.9403333329,
      "d": 349.55503333330853,
      "v": 87
    },
    {
      "midi": 64,
      "hit": false,
      "t": 348556.30466666626,
      "d": 349.55503333330853,
      "v": 97
    },
    {
      "midi": 68,
      "hit": false,
      "t": 348556.30466666626,
      "d": 349.55503333330853,
      "v": 96
    },
    {
      "midi": 71,
      "hit": false,
      "t": 348556.30466666626,
      "d": 349.55503333330853,
      "v": 90
    },
    {
      "midi": 64,
      "hit": false,
      "t": 349055.6689999996,
      "d": 349.55503333330853,
      "v": 123
    },
    {
      "midi": 68,
      "hit": false,
      "t": 349055.6689999996,
      "d": 349.55503333330853,
      "v": 123
    },
    {
      "midi": 71,
      "hit": false,
      "t": 349055.6689999996,
      "d": 349.55503333330853,
      "v": 123
    },
    {
      "midi": 64,
      "hit": false,
      "t": 349555.0333333329,
      "d": 349.55503333330853,
      "v": 112
    },
    {
      "midi": 68,
      "hit": false,
      "t": 349555.0333333329,
      "d": 349.55503333330853,
      "v": 112
    },
    {
      "midi": 71,
      "hit": false,
      "t": 349555.0333333329,
      "d": 349.55503333330853,
      "v": 112
    },
    {
      "midi": 64,
      "hit": false,
      "t": 350054.39766666625,
      "d": 349.55503333330853,
      "v": 108
    },
    {
      "midi": 66,
      "hit": false,
      "t": 350054.39766666625,
      "d": 349.55503333330853,
      "v": 108
    },
    {
      "midi": 71,
      "hit": false,
      "t": 350054.39766666625,
      "d": 349.55503333330853,
      "v": 108
    },
    {
      "midi": 63,
      "hit": false,
      "t": 350553.7619999996,
      "d": 349.55503333330853,
      "v": 127
    },
    {
      "midi": 66,
      "hit": false,
      "t": 350553.7619999996,
      "d": 349.55503333330853,
      "v": 127
    },
    {
      "midi": 71,
      "hit": false,
      "t": 350553.7619999996,
      "d": 349.55503333330853,
      "v": 100
    },
    {
      "midi": 63,
      "hit": false,
      "t": 351053.1263333329,
      "d": 349.55503333330853,
      "v": 93
    },
    {
      "midi": 66,
      "hit": false,
      "t": 351053.1263333329,
      "d": 349.55503333330853,
      "v": 106
    },
    {
      "midi": 71,
      "hit": false,
      "t": 351053.1263333329,
      "d": 349.55503333330853,
      "v": 90
    },
    {
      "midi": 63,
      "hit": false,
      "t": 351552.49066666624,
      "d": 349.55503333330853,
      "v": 96
    },
    {
      "midi": 66,
      "hit": false,
      "t": 351552.49066666624,
      "d": 349.55503333330853,
      "v": 106
    },
    {
      "midi": 71,
      "hit": false,
      "t": 351552.49066666624,
      "d": 349.55503333330853,
      "v": 90
    },
    {
      "midi": 63,
      "hit": false,
      "t": 352051.8549999996,
      "d": 349.55503333330853,
      "v": 106
    },
    {
      "midi": 66,
      "hit": false,
      "t": 352051.8549999996,
      "d": 349.55503333330853,
      "v": 127
    },
    {
      "midi": 71,
      "hit": false,
      "t": 352051.8549999996,
      "d": 349.55503333330853,
      "v": 94
    },
    {
      "midi": 63,
      "hit": false,
      "t": 352551.2193333329,
      "d": 349.55503333330853,
      "v": 93
    },
    {
      "midi": 66,
      "hit": false,
      "t": 352551.2193333329,
      "d": 349.55503333330853,
      "v": 106
    },
    {
      "midi": 71,
      "hit": false,
      "t": 352551.2193333329,
      "d": 349.55503333330853,
      "v": 83
    },
    {
      "midi": 63,
      "hit": false,
      "t": 353050.58366666624,
      "d": 349.55503333330853,
      "v": 100
    },
    {
      "midi": 66,
      "hit": false,
      "t": 353050.58366666624,
      "d": 349.55503333330853,
      "v": 93
    },
    {
      "midi": 71,
      "hit": false,
      "t": 353050.58366666624,
      "d": 349.55503333330853,
      "v": 85
    },
    {
      "midi": 61,
      "hit": false,
      "t": 353549.94799999957,
      "d": 349.55503333330853,
      "v": 127
    },
    {
      "midi": 64,
      "hit": false,
      "t": 353549.94799999957,
      "d": 349.55503333330853,
      "v": 127
    },
    {
      "midi": 69,
      "hit": false,
      "t": 353549.94799999957,
      "d": 349.55503333330853,
      "v": 100
    },
    {
      "midi": 61,
      "hit": false,
      "t": 354049.3123333329,
      "d": 349.55503333330853,
      "v": 93
    },
    {
      "midi": 64,
      "hit": false,
      "t": 354049.3123333329,
      "d": 349.55503333330853,
      "v": 106
    },
    {
      "midi": 69,
      "hit": false,
      "t": 354049.3123333329,
      "d": 349.55503333330853,
      "v": 90
    },
    {
      "midi": 61,
      "hit": false,
      "t": 354548.67666666623,
      "d": 349.55503333330853,
      "v": 96
    },
    {
      "midi": 64,
      "hit": false,
      "t": 354548.67666666623,
      "d": 349.55503333330853,
      "v": 106
    },
    {
      "midi": 69,
      "hit": false,
      "t": 354548.67666666623,
      "d": 349.55503333330853,
      "v": 90
    },
    {
      "midi": 61,
      "hit": false,
      "t": 355048.04099999956,
      "d": 349.55503333330853,
      "v": 106
    },
    {
      "midi": 64,
      "hit": false,
      "t": 355048.04099999956,
      "d": 349.55503333330853,
      "v": 127
    },
    {
      "midi": 69,
      "hit": false,
      "t": 355048.04099999956,
      "d": 349.55503333330853,
      "v": 94
    },
    {
      "midi": 61,
      "hit": false,
      "t": 355547.4053333329,
      "d": 349.55503333330853,
      "v": 93
    },
    {
      "midi": 64,
      "hit": false,
      "t": 355547.4053333329,
      "d": 349.55503333330853,
      "v": 106
    },
    {
      "midi": 69,
      "hit": false,
      "t": 355547.4053333329,
      "d": 349.55503333330853,
      "v": 83
    },
    {
      "midi": 61,
      "hit": false,
      "t": 356046.7696666662,
      "d": 349.55503333330853,
      "v": 100
    },
    {
      "midi": 64,
      "hit": false,
      "t": 356046.7696666662,
      "d": 349.55503333330853,
      "v": 93
    },
    {
      "midi": 69,
      "hit": false,
      "t": 356046.7696666662,
      "d": 349.55503333330853,
      "v": 85
    },
    {
      "midi": 61,
      "hit": false,
      "t": 356546.13399999955,
      "d": 349.55503333330853,
      "v": 127
    },
    {
      "midi": 64,
      "hit": false,
      "t": 356546.13399999955,
      "d": 349.55503333330853,
      "v": 127
    },
    {
      "midi": 69,
      "hit": false,
      "t": 356546.13399999955,
      "d": 349.55503333330853,
      "v": 100
    },
    {
      "midi": 61,
      "hit": false,
      "t": 357045.4983333329,
      "d": 349.55503333330853,
      "v": 93
    },
    {
      "midi": 64,
      "hit": false,
      "t": 357045.4983333329,
      "d": 349.55503333330853,
      "v": 106
    },
    {
      "midi": 69,
      "hit": false,
      "t": 357045.4983333329,
      "d": 349.55503333330853,
      "v": 90
    },
    {
      "midi": 61,
      "hit": false,
      "t": 357544.8626666662,
      "d": 349.55503333330853,
      "v": 96
    },
    {
      "midi": 64,
      "hit": false,
      "t": 357544.8626666662,
      "d": 349.55503333330853,
      "v": 106
    },
    {
      "midi": 69,
      "hit": false,
      "t": 357544.8626666662,
      "d": 349.55503333330853,
      "v": 90
    },
    {
      "midi": 61,
      "hit": false,
      "t": 358044.22699999955,
      "d": 349.55503333330853,
      "v": 106
    },
    {
      "midi": 64,
      "hit": false,
      "t": 358044.22699999955,
      "d": 349.55503333330853,
      "v": 127
    },
    {
      "midi": 69,
      "hit": false,
      "t": 358044.22699999955,
      "d": 349.55503333330853,
      "v": 94
    },
    {
      "midi": 46,
      "hit": false,
      "t": 358044.22700000013,
      "d": 127.96211041667266,
      "v": 59
    },
    {
      "midi": 61,
      "hit": false,
      "t": 358543.5913333329,
      "d": 349.55503333330853,
      "v": 93
    },
    {
      "midi": 64,
      "hit": false,
      "t": 358543.5913333329,
      "d": 349.55503333330853,
      "v": 106
    },
    {
      "midi": 69,
      "hit": false,
      "t": 358543.5913333329,
      "d": 349.55503333330853,
      "v": 83
    },
    {
      "midi": 46,
      "hit": false,
      "t": 358543.59133333346,
      "d": 134.2041645833524,
      "v": 80
    },
    {
      "midi": 61,
      "hit": false,
      "t": 359042.9556666662,
      "d": 349.55503333330853,
      "v": 100
    },
    {
      "midi": 64,
      "hit": false,
      "t": 359042.9556666662,
      "d": 349.55503333330853,
      "v": 93
    },
    {
      "midi": 69,
      "hit": false,
      "t": 359042.9556666662,
      "d": 349.55503333330853,
      "v": 85
    },
    {
      "midi": 46,
      "hit": false,
      "t": 359042.9556666668,
      "d": 81.14670416666195,
      "v": 101
    },
    {
      "midi": 64,
      "hit": false,
      "t": 359542.31999999954,
      "d": 349.55503333330853,
      "v": 112
    },
    {
      "midi": 68,
      "hit": false,
      "t": 359542.31999999954,
      "d": 349.55503333330853,
      "v": 127
    },
    {
      "midi": 71,
      "hit": false,
      "t": 359542.31999999954,
      "d": 349.55503333330853,
      "v": 112
    },
    {
      "midi": 64,
      "hit": false,
      "t": 360041.6843333329,
      "d": 349.55503333330853,
      "v": 90
    },
    {
      "midi": 68,
      "hit": false,
      "t": 360041.6843333329,
      "d": 349.55503333330853,
      "v": 86
    },
    {
      "midi": 71,
      "hit": false,
      "t": 360041.6843333329,
      "d": 349.55503333330853,
      "v": 87
    },
    {
      "midi": 64,
      "hit": false,
      "t": 360541.0486666662,
      "d": 349.55503333330853,
      "v": 97
    },
    {
      "midi": 68,
      "hit": false,
      "t": 360541.0486666662,
      "d": 349.55503333330853,
      "v": 96
    },
    {
      "midi": 71,
      "hit": false,
      "t": 360541.0486666662,
      "d": 349.55503333330853,
      "v": 90
    },
    {
      "midi": 64,
      "hit": false,
      "t": 361040.41299999953,
      "d": 349.55503333330853,
      "v": 123
    },
    {
      "midi": 68,
      "hit": false,
      "t": 361040.41299999953,
      "d": 349.55503333330853,
      "v": 123
    },
    {
      "midi": 71,
      "hit": false,
      "t": 361040.41299999953,
      "d": 349.55503333330853,
      "v": 123
    }
  ]
}