{
  "jsonPath": "Soul/Neo Soul/Alicia Keys/if-i-aint-got-you.json",
  "path": "Soul\\Neo Soul\\Alicia Keys\\If I Aint Got You.mid",
  "name": "If I Aint Got You",
  "difficulty": "Advanced",
  "bpm": 125,
  "notes": [
    {
      "midi": 76,
      "hit": false,
      "t": 2880,
      "d": 184,
      "v": 77
    },
    {
      "midi": 60,
      "hit": false,
      "t": 2880,
      "d": 364,
      "v": 46
    },
    {
      "midi": 55,
      "hit": false,
      "t": 2880,
      "d": 2324,
      "v": 55
    },
    {
      "midi": 48,
      "hit": false,
      "t": 2880,
      "d": 2368,
      "v": 54
    },
    {
      "midi": 71,
      "hit": false,
      "t": 3040,
      "d": 220,
      "v": 65
    },
    {
      "midi": 67,
      "hit": false,
      "t": 3200,
      "d": 84,
      "v": 64
    },
    {
      "midi": 76,
      "hit": false,
      "t": 3360,
      "d": 204,
      "v": 81
    },
    {
      "midi": 71,
      "hit": false,
      "t": 3520,
      "d": 208,
      "v": 72
    },
    {
      "midi": 67,
      "hit": false,
      "t": 3680,
      "d": 104,
      "v": 78
    },
    {
      "midi": 76,
      "hit": false,
      "t": 3840,
      "d": 156,
      "v": 85
    },
    {
      "midi": 71,
      "hit": false,
      "t": 4000,
      "d": 200,
      "v": 75
    },
    {
      "midi": 67,
      "hit": false,
      "t": 4160,
      "d": 88,
      "v": 77
    },
    {
      "midi": 76,
      "hit": false,
      "t": 4320,
      "d": 160,
      "v": 88
    },
    {
      "midi": 71,
      "hit": false,
      "t": 4480,
      "d": 216,
      "v": 76
    },
    {
      "midi": 67,
      "hit": false,
      "t": 4640,
      "d": 100,
      "v": 76
    },
    {
      "midi": 76,
      "hit": false,
      "t": 4800,
      "d": 168,
      "v": 90
    },
    {
      "midi": 71,
      "hit": false,
      "t": 4960,
      "d": 216,
      "v": 73
    },
    {
      "midi": 67,
      "hit": false,
      "t": 5120,
      "d": 116,
      "v": 73
    },
    {
      "midi": 76,
      "hit": false,
      "t": 5280,
      "d": 172,
      "v": 90
    },
    {
      "midi": 71,
      "hit": false,
      "t": 5440,
      "d": 204,
      "v": 73
    },
    {
      "midi": 67,
      "hit": false,
      "t": 5600,
      "d": 84,
      "v": 78
    },
    {
      "midi": 74,
      "hit": false,
      "t": 5760,
      "d": 236,
      "v": 86
    },
    {
      "midi": 59,
      "hit": false,
      "t": 5760,
      "d": 2488,
      "v": 51
    },
    {
      "midi": 54,
      "hit": false,
      "t": 5760,
      "d": 2572,
      "v": 59
    },
    {
      "midi": 47,
      "hit": false,
      "t": 5760,
      "d": 2596,
      "v": 55
    },
    {
      "midi": 69,
      "hit": false,
      "t": 5920,
      "d": 208,
      "v": 74
    },
    {
      "midi": 66,
      "hit": false,
      "t": 6080,
      "d": 144,
      "v": 75
    },
    {
      "midi": 74,
      "hit": false,
      "t": 6240,
      "d": 188,
      "v": 93
    },
    {
      "midi": 69,
      "hit": false,
      "t": 6400,
      "d": 216,
      "v": 79
    },
    {
      "midi": 66,
      "hit": false,
      "t": 6560,
      "d": 124,
      "v": 81
    },
    {
      "midi": 74,
      "hit": false,
      "t": 6720,
      "d": 184,
      "v": 93
    },
    {
      "midi": 69,
      "hit": false,
      "t": 6880,
      "d": 200,
      "v": 83
    },
    {
      "midi": 66,
      "hit": false,
      "t": 7040,
      "d": 136,
      "v": 82
    },
    {
      "midi": 74,
      "hit": false,
      "t": 7200,
      "d": 172,
      "v": 85
    },
    {
      "midi": 69,
      "hit": false,
      "t": 7360,
      "d": 196,
      "v": 78
    },
    {
      "midi": 66,
      "hit": false,
      "t": 7520,
      "d": 136,
      "v": 81
    },
    {
      "midi": 74,
      "hit": false,
      "t": 7680,
      "d": 172,
      "v": 92
    },
    {
      "midi": 69,
      "hit": false,
      "t": 7840,
      "d": 192,
      "v": 81
    },
    {
      "midi": 66,
      "hit": false,
      "t": 8000,
      "d": 140,
      "v": 82
    },
    {
      "midi": 74,
      "hit": false,
      "t": 8160,
      "d": 204,
      "v": 89
    },
    {
      "midi": 69,
      "hit": false,
      "t": 8320,
      "d": 176,
      "v": 74
    },
    {
      "midi": 66,
      "hit": false,
      "t": 8480,
      "d": 136,
      "v": 81
    },
    {
      "midi": 72,
      "hit": false,
      "t": 8640,
      "d": 216,
      "v": 86
    },
    {
      "midi": 57,
      "hit": false,
      "t": 8640,
      "d": 2456,
      "v": 49
    },
    {
      "midi": 52,
      "hit": false,
      "t": 8640,
      "d": 2504,
      "v": 57
    },
    {
      "midi": 45,
      "hit": false,
      "t": 8640,
      "d": 2552,
      "v": 53
    },
    {
      "midi": 67,
      "hit": false,
      "t": 8800,
      "d": 204,
      "v": 79
    },
    {
      "midi": 64,
      "hit": false,
      "t": 8960,
      "d": 116,
      "v": 79
    },
    {
      "midi": 72,
      "hit": false,
      "t": 9120,
      "d": 180,
      "v": 90
    },
    {
      "midi": 67,
      "hit": false,
      "t": 9280,
      "d": 188,
      "v": 81
    },
    {
      "midi": 64,
      "hit": false,
      "t": 9440,
      "d": 136,
      "v": 78
    },
    {
      "midi": 72,
      "hit": false,
      "t": 9600,
      "d": 176,
      "v": 91
    },
    {
      "midi": 67,
      "hit": false,
      "t": 9760,
      "d": 212,
      "v": 82
    },
    {
      "midi": 64,
      "hit": false,
      "t": 9920,
      "d": 92,
      "v": 76
    },
    {
      "midi": 72,
      "hit": false,
      "t": 10080,
      "d": 184,
      "v": 91
    },
    {
      "midi": 67,
      "hit": false,
      "t": 10240,
      "d": 196,
      "v": 83
    },
    {
      "midi": 64,
      "hit": false,
      "t": 10400,
      "d": 104,
      "v": 78
    },
    {
      "midi": 72,
      "hit": false,
      "t": 10560,
      "d": 184,
      "v": 88
    },
    {
      "midi": 67,
      "hit": false,
      "t": 10720,
      "d": 192,
      "v": 80
    },
    {
      "midi": 64,
      "hit": false,
      "t": 10880,
      "d": 116,
      "v": 81
    },
    {
      "midi": 72,
      "hit": false,
      "t": 11040,
      "d": 184,
      "v": 95
    },
    {
      "midi": 67,
      "hit": false,
      "t": 11200,
      "d": 196,
      "v": 78
    },
    {
      "midi": 64,
      "hit": false,
      "t": 11360,
      "d": 92,
      "v": 78
    },
    {
      "midi": 71,
      "hit": false,
      "t": 11520,
      "d": 236,
      "v": 85
    },
    {
      "midi": 55,
      "hit": false,
      "t": 11520,
      "d": 1212,
      "v": 53
    },
    {
      "midi": 43,
      "hit": false,
      "t": 11520,
      "d": 1236,
      "v": 58
    },
    {
      "midi": 50,
      "hit": false,
      "t": 11520,
      "d": 1296,
      "v": 57
    },
    {
      "midi": 66,
      "hit": false,
      "t": 11680,
      "d": 216,
      "v": 83
    },
    {
      "midi": 62,
      "hit": false,
      "t": 11840,
      "d": 100,
      "v": 73
    },
    {
      "midi": 71,
      "hit": false,
      "t": 12000,
      "d": 204,
      "v": 89
    },
    {
      "midi": 66,
      "hit": false,
      "t": 12160,
      "d": 200,
      "v": 84
    },
    {
      "midi": 62,
      "hit": false,
      "t": 12320,
      "d": 136,
      "v": 80
    },
    {
      "midi": 71,
      "hit": false,
      "t": 12480,
      "d": 192,
      "v": 84
    },
    {
      "midi": 66,
      "hit": false,
      "t": 12640,
      "d": 164,
      "v": 77
    },
    {
      "midi": 62,
      "hit": false,
      "t": 12800,
      "d": 68,
      "v": 78
    },
    {
      "midi": 71,
      "hit": false,
      "t": 12960,
      "d": 224,
      "v": 97
    },
    {
      "midi": 43,
      "hit": false,
      "t": 12960,
      "d": 304,
      "v": 76
    },
    {
      "midi": 50,
      "hit": false,
      "t": 12960,
      "d": 324,
      "v": 67
    },
    {
      "midi": 55,
      "hit": false,
      "t": 12960,
      "d": 336,
      "v": 64
    },
    {
      "midi": 67,
      "hit": false,
      "t": 13120,
      "d": 104,
      "v": 81
    },
    {
      "midi": 71,
      "hit": false,
      "t": 13280,
      "d": 72,
      "v": 70
    },
    {
      "midi": 72,
      "hit": false,
      "t": 13440,
      "d": 176,
      "v": 88
    },
    {
      "midi": 45,
      "hit": false,
      "t": 13440,
      "d": 352,
      "v": 78
    },
    {
      "midi": 57,
      "hit": false,
      "t": 13440,
      "d": 360,
      "v": 71
    },
    {
      "midi": 67,
      "hit": false,
      "t": 13600,
      "d": 172,
      "v": 80
    },
    {
      "midi": 72,
      "hit": false,
      "t": 13760,
      "d": 88,
      "v": 80
    },
    {
      "midi": 74,
      "hit": false,
      "t": 13920,
      "d": 232,
      "v": 97
    },
    {
      "midi": 59,
      "hit": false,
      "t": 13920,
      "d": 276,
      "v": 78
    },
    {
      "midi": 47,
      "hit": false,
      "t": 13920,
      "d": 300,
      "v": 84
    },
    {
      "midi": 67,
      "hit": false,
      "t": 14080,
      "d": 184,
      "v": 86
    },
    {
      "midi": 74,
      "hit": false,
      "t": 14240,
      "d": 108,
      "v": 89
    },
    {
      "midi": 76,
      "hit": false,
      "t": 14400,
      "d": 244,
      "v": 82
    },
    {
      "midi": 60,
      "hit": false,
      "t": 14400,
      "d": 788,
      "v": 63
    },
    {
      "midi": 55,
      "hit": false,
      "t": 14400,
      "d": 2504,
      "v": 68
    },
    {
      "midi": 48,
      "hit": false,
      "t": 14400,
      "d": 2544,
      "v": 67
    },
    {
      "midi": 71,
      "hit": false,
      "t": 14560,
      "d": 216,
      "v": 78
    },
    {
      "midi": 67,
      "hit": false,
      "t": 14720,
      "d": 132,
      "v": 81
    },
    {
      "midi": 76,
      "hit": false,
      "t": 14880,
      "d": 184,
      "v": 89
    },
    {
      "midi": 71,
      "hit": false,
      "t": 15040,
      "d": 204,
      "v": 78
    },
    {
      "midi": 67,
      "hit": false,
      "t": 15200,
      "d": 132,
      "v": 76
    },
    {
      "midi": 76,
      "hit": false,
      "t": 15360,
      "d": 176,
      "v": 91
    },
    {
      "midi": 71,
      "hit": false,
      "t": 15520,
      "d": 212,
      "v": 77
    },
    {
      "midi": 67,
      "hit": false,
      "t": 15680,
      "d": 120,
      "v": 74
    },
    {
      "midi": 60,
      "hit": false,
      "t": 15840,
      "d": 124,
      "v": 59
    },
    {
      "midi": 76,
      "hit": false,
      "t": 15840,
      "d": 176,
      "v": 88
    },
    {
      "midi": 71,
      "hit": false,
      "t": 16000,
      "d": 212,
      "v": 74
    },
    {
      "midi": 67,
      "hit": false,
      "t": 16160,
      "d": 108,
      "v": 78
    },
    {
      "midi": 76,
      "hit": false,
      "t": 16320,
      "d": 176,
      "v": 90
    },
    {
      "midi": 71,
      "hit": false,
      "t": 16480,
      "d": 236,
      "v": 72
    },
    {
      "midi": 67,
      "hit": false,
      "t": 16640,
      "d": 116,
      "v": 82
    },
    {
      "midi": 76,
      "hit": false,
      "t": 16800,
      "d": 196,
      "v": 90
    },
    {
      "midi": 71,
      "hit": false,
      "t": 16960,
      "d": 216,
      "v": 76
    },
    {
      "midi": 67,
      "hit": false,
      "t": 17120,
      "d": 104,
      "v": 76
    },
    {
      "midi": 74,
      "hit": false,
      "t": 17280,
      "d": 228,
      "v": 92
    },
    {
      "midi": 59,
      "hit": false,
      "t": 17280,
      "d": 304,
      "v": 51
    },
    {
      "midi": 47,
      "hit": false,
      "t": 17280,
      "d": 1952,
      "v": 56
    },
    {
      "midi": 54,
      "hit": false,
      "t": 17280,
      "d": 1980,
      "v": 62
    },
    {
      "midi": 69,
      "hit": false,
      "t": 17440,
      "d": 200,
      "v": 78
    },
    {
      "midi": 66,
      "hit": false,
      "t": 17600,
      "d": 160,
      "v": 82
    },
    {
      "midi": 74,
      "hit": false,
      "t": 17760,
      "d": 172,
      "v": 87
    },
    {
      "midi": 69,
      "hit": false,
      "t": 17920,
      "d": 200,
      "v": 84
    },
    {
      "midi": 66,
      "hit": false,
      "t": 18080,
      "d": 136,
      "v": 83
    },
    {
      "midi": 74,
      "hit": false,
      "t": 18240,
      "d": 168,
      "v": 95
    },
    {
      "midi": 69,
      "hit": false,
      "t": 18400,
      "d": 220,
      "v": 75
    },
    {
      "midi": 66,
      "hit": false,
      "t": 18560,
      "d": 128,
      "v": 76
    },
    {
      "midi": 59,
      "hit": false,
      "t": 18720,
      "d": 92,
      "v": 48
    },
    {
      "midi": 74,
      "hit": false,
      "t": 18720,
      "d": 180,
      "v": 95
    },
    {
      "midi": 69,
      "hit": false,
      "t": 18880,
      "d": 196,
      "v": 78
    },
    {
      "midi": 66,
      "hit": false,
      "t": 19040,
      "d": 148,
      "v": 73
    },
    {
      "midi": 74,
      "hit": false,
      "t": 19200,
      "d": 168,
      "v": 89
    },
    {
      "midi": 69,
      "hit": false,
      "t": 19360,
      "d": 172,
      "v": 78
    },
    {
      "midi": 66,
      "hit": false,
      "t": 19520,
      "d": 96,
      "v": 80
    },
    {
      "midi": 61,
      "hit": false,
      "t": 19680,
      "d": 112,
      "v": 58
    },
    {
      "midi": 56,
      "hit": false,
      "t": 19680,
      "d": 196,
      "v": 65
    },
    {
      "midi": 73,
      "hit": false,
      "t": 19680,
      "d": 240,
      "v": 93
    },
    {
      "midi": 46,
      "hit": false,
      "t": 19680,
      "d": 260,
      "v": 69
    },
    {
      "midi": 68,
      "hit": false,
      "t": 19840,
      "d": 132,
      "v": 77
    },
    {
      "midi": 65,
      "hit": false,
      "t": 20000,
      "d": 96,
      "v": 85
    },
    {
      "midi": 72,
      "hit": false,
      "t": 20160,
      "d": 324,
      "v": 85
    },
    {
      "midi": 55,
      "hit": false,
      "t": 20160,
      "d": 2552,
      "v": 70
    },
    {
      "midi": 45,
      "hit": false,
      "t": 20160,
      "d": 2564,
      "v": 71
    },
    {
      "midi": 67,
      "hit": false,
      "t": 20320,
      "d": 224,
      "v": 78
    },
    {
      "midi": 64,
      "hit": false,
      "t": 20480,
      "d": 144,
      "v": 80
    },
    {
      "midi": 72,
      "hit": false,
      "t": 20640,
      "d": 172,
      "v": 91
    },
    {
      "midi": 67,
      "hit": false,
      "t": 20800,
      "d": 212,
      "v": 80
    },
    {
      "midi": 64,
      "hit": false,
      "t": 20960,
      "d": 136,
      "v": 78
    },
    {
      "midi": 72,
      "hit": false,
      "t": 21120,
      "d": 184,
      "v": 93
    },
    {
      "midi": 67,
      "hit": false,
      "t": 21280,
      "d": 204,
      "v": 75
    },
    {
      "midi": 64,
      "hit": false,
      "t": 21440,
      "d": 112,
      "v": 79
    },
    {
      "midi": 72,
      "hit": false,
      "t": 21600,
      "d": 176,
      "v": 90
    },
    {
      "midi": 67,
      "hit": false,
      "t": 21760,
      "d": 212,
      "v": 81
    },
    {
      "midi": 64,
      "hit": false,
      "t": 21920,
      "d": 132,
      "v": 78
    },
    {
      "midi": 72,
      "hit": false,
      "t": 22080,
      "d": 188,
      "v": 87
    },
    {
      "midi": 67,
      "hit": false,
      "t": 22240,
      "d": 232,
      "v": 80
    },
    {
      "midi": 64,
      "hit": false,
      "t": 22400,
      "d": 116,
      "v": 79
    },
    {
      "midi": 72,
      "hit": false,
      "t": 22560,
      "d": 176,
      "v": 94
    },
    {
      "midi": 67,
      "hit": false,
      "t": 22720,
      "d": 212,
      "v": 78
    },
    {
      "midi": 64,
      "hit": false,
      "t": 22880,
      "d": 112,
      "v": 79
    },
    {
      "midi": 66,
      "hit": false,
      "t": 23040,
      "d": 716,
      "v": 76
    },
    {
      "midi": 71,
      "hit": false,
      "t": 23040,
      "d": 816,
      "v": 89
    },
    {
      "midi": 55,
      "hit": false,
      "t": 23040,
      "d": 1900,
      "v": 60
    },
    {
      "midi": 50,
      "hit": false,
      "t": 23040,
      "d": 1912,
      "v": 66
    },
    {
      "midi": 43,
      "hit": false,
      "t": 23040,
      "d": 1920,
      "v": 67
    },
    {
      "midi": 51,
      "hit": false,
      "t": 25760,
      "d": 72,
      "v": 95
    },
    {
      "midi": 63,
      "hit": false,
      "t": 25760,
      "d": 72,
      "v": 100
    },
    {
      "midi": 60,
      "hit": false,
      "t": 25760,
      "d": 84,
      "v": 98
    },
    {
      "midi": 67,
      "hit": false,
      "t": 25760,
      "d": 92,
      "v": 97
    },
    {
      "midi": 72,
      "hit": false,
      "t": 25760,
      "d": 96,
      "v": 95
    },
    {
      "midi": 44,
      "hit": false,
      "t": 25760,
      "d": 112,
      "v": 98
    },
    {
      "midi": 59,
      "hit": false,
      "t": 25920,
      "d": 468,
      "v": 96
    },
    {
      "midi": 66,
      "hit": false,
      "t": 25920,
      "d": 840,
      "v": 96
    },
    {
      "midi": 62,
      "hit": false,
      "t": 25920,
      "d": 852,
      "v": 98
    },
    {
      "midi": 71,
      "hit": false,
      "t": 25920,
      "d": 876,
      "v": 93
    },
    {
      "midi": 50,
      "hit": false,
      "t": 25920,
      "d": 1204,
      "v": 89
    },
    {
      "midi": 55,
      "hit": false,
      "t": 25920,
      "d": 1252,
      "v": 92
    },
    {
      "midi": 43,
      "hit": false,
      "t": 25920,
      "d": 2368,
      "v": 89
    },
    {
      "midi": 59,
      "hit": false,
      "t": 26400,
      "d": 412,
      "v": 59
    },
    {
      "midi": 59,
      "hit": false,
      "t": 26880,
      "d": 212,
      "v": 54
    },
    {
      "midi": 71,
      "hit": false,
      "t": 26880,
      "d": 244,
      "v": 72
    },
    {
      "midi": 62,
      "hit": false,
      "t": 26880,
      "d": 280,
      "v": 60
    },
    {
      "midi": 66,
      "hit": false,
      "t": 26880,
      "d": 304,
      "v": 73
    },
    {
      "midi": 50,
      "hit": false,
      "t": 27200,
      "d": 992,
      "v": 84
    },
    {
      "midi": 59,
      "hit": false,
      "t": 27200,
      "d": 1380,
      "v": 87
    },
    {
      "midi": 71,
      "hit": false,
      "t": 27360,
      "d": 692,
      "v": 99
    },
    {
      "midi": 62,
      "hit": false,
      "t": 27360,
      "d": 704,
      "v": 102
    },
    {
      "midi": 66,
      "hit": false,
      "t": 27360,
      "d": 732,
      "v": 100
    },
    {
      "midi": 55,
      "hit": false,
      "t": 27360,
      "d": 844,
      "v": 96
    },
    {
      "midi": 62,
      "hit": false,
      "t": 28320,
      "d": 292,
      "v": 76
    },
    {
      "midi": 66,
      "hit": false,
      "t": 28320,
      "d": 332,
      "v": 92
    },
    {
      "midi": 55,
      "hit": false,
      "t": 28800,
      "d": 484,
      "v": 71
    },
    {
      "midi": 62,
      "hit": false,
      "t": 28800,
      "d": 520,
      "v": 94
    },
    {
      "midi": 67,
      "hit": false,
      "t": 28800,
      "d": 600,
      "v": 99
    },
    {
      "midi": 59,
      "hit": false,
      "t": 28800,
      "d": 620,
      "v": 84
    },
    {
      "midi": 47,
      "hit": false,
      "t": 28800,
      "d": 2340,
      "v": 77
    },
    {
      "midi": 40,
      "hit": false,
      "t": 28800,
      "d": 2404,
      "v": 69
    },
    {
      "midi": 59,
      "hit": false,
      "t": 29760,
      "d": 504,
      "v": 61
    },
    {
      "midi": 67,
      "hit": false,
      "t": 29760,
      "d": 504,
      "v": 65
    },
    {
      "midi": 62,
      "hit": false,
      "t": 29760,
      "d": 524,
      "v": 60
    },
    {
      "midi": 55,
      "hit": false,
      "t": 30240,
      "d": 216,
      "v": 72
    },
    {
      "midi": 52,
      "hit": false,
      "t": 30240,
      "d": 556,
      "v": 58
    },
    {
      "midi": 67,
      "hit": false,
      "t": 30720,
      "d": 764,
      "v": 106
    },
    {
      "midi": 59,
      "hit": false,
      "t": 30720,
      "d": 776,
      "v": 104
    },
    {
      "midi": 62,
      "hit": false,
      "t": 30720,
      "d": 812,
      "v": 101
    },
    {
      "midi": 52,
      "hit": false,
      "t": 31200,
      "d": 36,
      "v": 81
    },
    {
      "midi": 55,
      "hit": false,
      "t": 31520,
      "d": 584,
      "v": 93
    },
    {
      "midi": 60,
      "hit": false,
      "t": 31680,
      "d": 792,
      "v": 103
    },
    {
      "midi": 64,
      "hit": false,
      "t": 31680,
      "d": 864,
      "v": 99
    },
    {
      "midi": 67,
      "hit": false,
      "t": 31680,
      "d": 876,
      "v": 98
    },
    {
      "midi": 45,
      "hit": false,
      "t": 31680,
      "d": 1352,
      "v": 89
    },
    {
      "midi": 52,
      "hit": false,
      "t": 31680,
      "d": 1456,
      "v": 85
    },
    {
      "midi": 55,
      "hit": false,
      "t": 32160,
      "d": 284,
      "v": 75
    },
    {
      "midi": 60,
      "hit": false,
      "t": 32640,
      "d": 456,
      "v": 61
    },
    {
      "midi": 64,
      "hit": false,
      "t": 32640,
      "d": 528,
      "v": 64
    },
    {
      "midi": 55,
      "hit": false,
      "t": 33120,
      "d": 856,
      "v": 72
    },
    {
      "midi": 45,
      "hit": false,
      "t": 33120,
      "d": 1016,
      "v": 57
    },
    {
      "midi": 67,
      "hit": false,
      "t": 33600,
      "d": 692,
      "v": 104
    },
    {
      "midi": 60,
      "hit": false,
      "t": 33600,
      "d": 792,
      "v": 104
    },
    {
      "midi": 64,
      "hit": false,
      "t": 33600,
      "d": 844,
      "v": 101
    },
    {
      "midi": 52,
      "hit": false,
      "t": 34080,
      "d": 60,
      "v": 78
    },
    {
      "midi": 55,
      "hit": false,
      "t": 34400,
      "d": 96,
      "v": 78
    },
    {
      "midi": 57,
      "hit": false,
      "t": 34560,
      "d": 36,
      "v": 70
    },
    {
      "midi": 60,
      "hit": false,
      "t": 34560,
      "d": 764,
      "v": 101
    },
    {
      "midi": 64,
      "hit": false,
      "t": 34560,
      "d": 788,
      "v": 95
    },
    {
      "midi": 50,
      "hit": false,
      "t": 34560,
      "d": 1220,
      "v": 88
    },
    {
      "midi": 54,
      "hit": false,
      "t": 34560,
      "d": 1268,
      "v": 93
    },
    {
      "midi": 64,
      "hit": false,
      "t": 35520,
      "d": 272,
      "v": 78
    },
    {
      "midi": 60,
      "hit": false,
      "t": 35520,
      "d": 288,
      "v": 75
    },
    {
      "midi": 57,
      "hit": false,
      "t": 35840,
      "d": 556,
      "v": 84
    },
    {
      "midi": 50,
      "hit": false,
      "t": 35840,
      "d": 1140,
      "v": 81
    },
    {
      "midi": 62,
      "hit": false,
      "t": 36000,
      "d": 572,
      "v": 97
    },
    {
      "midi": 69,
      "hit": false,
      "t": 36000,
      "d": 676,
      "v": 97
    },
    {
      "midi": 54,
      "hit": false,
      "t": 36000,
      "d": 992,
      "v": 98
    },
    {
      "midi": 57,
      "hit": false,
      "t": 36480,
      "d": 684,
      "v": 88
    },
    {
      "midi": 62,
      "hit": false,
      "t": 36960,
      "d": 296,
      "v": 102
    },
    {
      "midi": 69,
      "hit": false,
      "t": 36960,
      "d": 320,
      "v": 110
    },
    {
      "midi": 59,
      "hit": false,
      "t": 37440,
      "d": 404,
      "v": 83
    },
    {
      "midi": 62,
      "hit": false,
      "t": 37440,
      "d": 736,
      "v": 88
    },
    {
      "midi": 66,
      "hit": false,
      "t": 37440,
      "d": 756,
      "v": 95
    },
    {
      "midi": 50,
      "hit": false,
      "t": 37440,
      "d": 1264,
      "v": 81
    },
    {
      "midi": 55,
      "hit": false,
      "t": 37440,
      "d": 1304,
      "v": 78
    },
    {
      "midi": 43,
      "hit": false,
      "t": 37440,
      "d": 2448,
      "v": 78
    },
    {
      "midi": 59,
      "hit": false,
      "t": 37920,
      "d": 260,
      "v": 57
    },
    {
      "midi": 59,
      "hit": false,
      "t": 38400,
      "d": 252,
      "v": 48
    },
    {
      "midi": 62,
      "hit": false,
      "t": 38400,
      "d": 476,
      "v": 59
    },
    {
      "midi": 66,
      "hit": false,
      "t": 38400,
      "d": 500,
      "v": 64
    },
    {
      "midi": 55,
      "hit": false,
      "t": 38880,
      "d": 604,
      "v": 70
    },
    {
      "midi": 59,
      "hit": false,
      "t": 38880,
      "d": 956,
      "v": 86
    },
    {
      "midi": 50,
      "hit": false,
      "t": 38880,
      "d": 976,
      "v": 77
    },
    {
      "midi": 71,
      "hit": false,
      "t": 39360,
      "d": 756,
      "v": 101
    },
    {
      "midi": 62,
      "hit": false,
      "t": 39360,
      "d": 776,
      "v": 103
    },
    {
      "midi": 66,
      "hit": false,
      "t": 39360,
      "d": 796,
      "v": 101
    },
    {
      "midi": 55,
      "hit": false,
      "t": 39840,
      "d": 36,
      "v": 78
    },
    {
      "midi": 59,
      "hit": false,
      "t": 40160,
      "d": 596,
      "v": 87
    },
    {
      "midi": 62,
      "hit": false,
      "t": 40320,
      "d": 824,
      "v": 95
    },
    {
      "midi": 65,
      "hit": false,
      "t": 40320,
      "d": 836,
      "v": 93
    },
    {
      "midi": 71,
      "hit": false,
      "t": 40320,
      "d": 844,
      "v": 93
    },
    {
      "midi": 68,
      "hit": false,
      "t": 40320,
      "d": 928,
      "v": 92
    },
    {
      "midi": 44,
      "hit": false,
      "t": 40320,
      "d": 1372,
      "v": 93
    },
    {
      "midi": 53,
      "hit": false,
      "t": 40320,
      "d": 1384,
      "v": 93
    },
    {
      "midi": 59,
      "hit": false,
      "t": 40800,
      "d": 296,
      "v": 80
    },
    {
      "midi": 59,
      "hit": false,
      "t": 41280,
      "d": 244,
      "v": 64
    },
    {
      "midi": 65,
      "hit": false,
      "t": 41280,
      "d": 472,
      "v": 64
    },
    {
      "midi": 62,
      "hit": false,
      "t": 41280,
      "d": 484,
      "v": 62
    },
    {
      "midi": 68,
      "hit": false,
      "t": 41280,
      "d": 536,
      "v": 48
    },
    {
      "midi": 59,
      "hit": false,
      "t": 41760,
      "d": 212,
      "v": 86
    },
    {
      "midi": 53,
      "hit": false,
      "t": 41760,
      "d": 676,
      "v": 69
    },
    {
      "midi": 44,
      "hit": false,
      "t": 41760,
      "d": 704,
      "v": 73
    },
    {
      "midi": 65,
      "hit": false,
      "t": 42240,
      "d": 740,
      "v": 103
    },
    {
      "midi": 68,
      "hit": false,
      "t": 42240,
      "d": 740,
      "v": 101
    },
    {
      "midi": 62,
      "hit": false,
      "t": 42240,
      "d": 772,
      "v": 105
    },
    {
      "midi": 53,
      "hit": false,
      "t": 42720,
      "d": 48,
      "v": 82
    },
    {
      "midi": 44,
      "hit": false,
      "t": 42720,
      "d": 88,
      "v": 85
    },
    {
      "midi": 59,
      "hit": false,
      "t": 43040,
      "d": 192,
      "v": 84
    },
    {
      "midi": 60,
      "hit": false,
      "t": 43200,
      "d": 764,
      "v": 98
    },
    {
      "midi": 67,
      "hit": false,
      "t": 43200,
      "d": 884,
      "v": 93
    },
    {
      "midi": 55,
      "hit": false,
      "t": 43200,
      "d": 1364,
      "v": 88
    },
    {
      "midi": 52,
      "hit": false,
      "t": 43200,
      "d": 1380,
      "v": 75
    },
    {
      "midi": 45,
      "hit": false,
      "t": 43200,
      "d": 1400,
      "v": 85
    },
    {
      "midi": 64,
      "hit": false,
      "t": 43200,
      "d": 1444,
      "v": 91
    },
    {
      "midi": 57,
      "hit": false,
      "t": 43680,
      "d": 236,
      "v": 73
    },
    {
      "midi": 57,
      "hit": false,
      "t": 44160,
      "d": 288,
      "v": 60
    },
    {
      "midi": 67,
      "hit": false,
      "t": 44160,
      "d": 432,
      "v": 36
    },
    {
      "midi": 60,
      "hit": false,
      "t": 44160,
      "d": 472,
      "v": 63
    },
    {
      "midi": 55,
      "hit": false,
      "t": 44640,
      "d": 664,
      "v": 80
    },
    {
      "midi": 45,
      "hit": false,
      "t": 44640,
      "d": 776,
      "v": 89
    },
    {
      "midi": 57,
      "hit": false,
      "t": 44640,
      "d": 912,
      "v": 96
    },
    {
      "midi": 67,
      "hit": false,
      "t": 45120,
      "d": 808,
      "v": 101
    },
    {
      "midi": 60,
      "hit": false,
      "t": 45120,
      "d": 812,
      "v": 99
    },
    {
      "midi": 64,
      "hit": false,
      "t": 45120,
      "d": 828,
      "v": 100
    },
    {
      "midi": 55,
      "hit": false,
      "t": 45600,
      "d": 132,
      "v": 93
    },
    {
      "midi": 45,
      "hit": false,
      "t": 45600,
      "d": 524,
      "v": 93
    },
    {
      "midi": 57,
      "hit": false,
      "t": 45920,
      "d": 164,
      "v": 81
    },
    {
      "midi": 60,
      "hit": false,
      "t": 46080,
      "d": 468,
      "v": 102
    },
    {
      "midi": 64,
      "hit": false,
      "t": 46080,
      "d": 488,
      "v": 96
    },
    {
      "midi": 54,
      "hit": false,
      "t": 46080,
      "d": 1268,
      "v": 91
    },
    {
      "midi": 50,
      "hit": false,
      "t": 46080,
      "d": 1292,
      "v": 87
    },
    {
      "midi": 57,
      "hit": false,
      "t": 46560,
      "d": 1292,
      "v": 81
    },
    {
      "midi": 67,
      "hit": false,
      "t": 47040,
      "d": 136,
      "v": 55
    },
    {
      "midi": 69,
      "hit": false,
      "t": 47040,
      "d": 1500,
      "v": 98
    },
    {
      "midi": 62,
      "hit": false,
      "t": 47520,
      "d": 544,
      "v": 104
    },
    {
      "midi": 50,
      "hit": false,
      "t": 47520,
      "d": 1028,
      "v": 87
    },
    {
      "midi": 54,
      "hit": false,
      "t": 47520,
      "d": 1040,
      "v": 91
    },
    {
      "midi": 66,
      "hit": false,
      "t": 47520,
      "d": 1044,
      "v": 101
    },
    {
      "midi": 64,
      "hit": false,
      "t": 48000,
      "d": 520,
      "v": 90
    },
    {
      "midi": 57,
      "hit": false,
      "t": 48000,
      "d": 544,
      "v": 66
    },
    {
      "midi": 62,
      "hit": false,
      "t": 48480,
      "d": 104,
      "v": 89
    },
    {
      "midi": 71,
      "hit": false,
      "t": 48960,
      "d": 516,
      "v": 86
    },
    {
      "midi": 62,
      "hit": false,
      "t": 48960,
      "d": 532,
      "v": 85
    },
    {
      "midi": 66,
      "hit": false,
      "t": 48960,
      "d": 532,
      "v": 87
    },
    {
      "midi": 43,
      "hit": false,
      "t": 48960,
      "d": 1056,
      "v": 78
    },
    {
      "midi": 50,
      "hit": false,
      "t": 48960,
      "d": 1096,
      "v": 75
    },
    {
      "midi": 55,
      "hit": false,
      "t": 48960,
      "d": 1132,
      "v": 73
    },
    {
      "midi": 59,
      "hit": false,
      "t": 48960,
      "d": 1184,
      "v": 88
    },
    {
      "midi": 62,
      "hit": false,
      "t": 49760,
      "d": 448,
      "v": 92
    },
    {
      "midi": 66,
      "hit": false,
      "t": 49760,
      "d": 672,
      "v": 96
    },
    {
      "midi": 71,
      "hit": false,
      "t": 49760,
      "d": 704,
      "v": 94
    },
    {
      "midi": 45,
      "hit": false,
      "t": 50400,
      "d": 1104,
      "v": 79
    },
    {
      "midi": 64,
      "hit": false,
      "t": 50400,
      "d": 1136,
      "v": 86
    },
    {
      "midi": 60,
      "hit": false,
      "t": 50400,
      "d": 1212,
      "v": 88
    },
    {
      "midi": 55,
      "hit": false,
      "t": 50400,
      "d": 1292,
      "v": 87
    },
    {
      "midi": 67,
      "hit": false,
      "t": 50400,
      "d": 1372,
      "v": 84
    },
    {
      "midi": 59,
      "hit": false,
      "t": 51840,
      "d": 804,
      "v": 85
    },
    {
      "midi": 47,
      "hit": false,
      "t": 51840,
      "d": 1176,
      "v": 82
    },
    {
      "midi": 62,
      "hit": false,
      "t": 51840,
      "d": 1196,
      "v": 91
    },
    {
      "midi": 54,
      "hit": false,
      "t": 51840,
      "d": 1264,
      "v": 88
    },
    {
      "midi": 69,
      "hit": false,
      "t": 51840,
      "d": 1384,
      "v": 91
    },
    {
      "midi": 66,
      "hit": false,
      "t": 51840,
      "d": 1396,
      "v": 88
    },
    {
      "midi": 64,
      "hit": false,
      "t": 53280,
      "d": 536,
      "v": 93
    },
    {
      "midi": 67,
      "hit": false,
      "t": 53280,
      "d": 596,
      "v": 88
    },
    {
      "midi": 52,
      "hit": false,
      "t": 53280,
      "d": 1096,
      "v": 73
    },
    {
      "midi": 55,
      "hit": false,
      "t": 53280,
      "d": 1124,
      "v": 78
    },
    {
      "midi": 45,
      "hit": false,
      "t": 53280,
      "d": 1172,
      "v": 70
    },
    {
      "midi": 60,
      "hit": false,
      "t": 53280,
      "d": 1236,
      "v": 91
    },
    {
      "midi": 64,
      "hit": false,
      "t": 54080,
      "d": 424,
      "v": 98
    },
    {
      "midi": 67,
      "hit": false,
      "t": 54080,
      "d": 608,
      "v": 97
    },
    {
      "midi": 62,
      "hit": false,
      "t": 54720,
      "d": 524,
      "v": 92
    },
    {
      "midi": 66,
      "hit": false,
      "t": 54720,
      "d": 544,
      "v": 92
    },
    {
      "midi": 71,
      "hit": false,
      "t": 54720,
      "d": 544,
      "v": 91
    },
    {
      "midi": 43,
      "hit": false,
      "t": 54720,
      "d": 1048,
      "v": 81
    },
    {
      "midi": 50,
      "hit": false,
      "t": 54720,
      "d": 1096,
      "v": 81
    },
    {
      "midi": 55,
      "hit": false,
      "t": 54720,
      "d": 1148,
      "v": 79
    },
    {
      "midi": 59,
      "hit": false,
      "t": 54720,
      "d": 1484,
      "v": 88
    },
    {
      "midi": 71,
      "hit": false,
      "t": 55520,
      "d": 368,
      "v": 101
    },
    {
      "midi": 62,
      "hit": false,
      "t": 55520,
      "d": 412,
      "v": 99
    },
    {
      "midi": 66,
      "hit": false,
      "t": 55520,
      "d": 432,
      "v": 101
    },
    {
      "midi": 52,
      "hit": false,
      "t": 56160,
      "d": 972,
      "v": 74
    },
    {
      "midi": 45,
      "hit": false,
      "t": 56160,
      "d": 988,
      "v": 74
    },
    {
      "midi": 60,
      "hit": false,
      "t": 56160,
      "d": 1016,
      "v": 88
    },
    {
      "midi": 64,
      "hit": false,
      "t": 56160,
      "d": 1136,
      "v": 83
    },
    {
      "midi": 67,
      "hit": false,
      "t": 56160,
      "d": 1280,
      "v": 79
    },
    {
      "midi": 55,
      "hit": false,
      "t": 56160,
      "d": 1372,
      "v": 76
    },
    {
      "midi": 57,
      "hit": false,
      "t": 57120,
      "d": 1364,
      "v": 82
    },
    {
      "midi": 47,
      "hit": false,
      "t": 57600,
      "d": 952,
      "v": 80
    },
    {
      "midi": 62,
      "hit": false,
      "t": 57600,
      "d": 976,
      "v": 96
    },
    {
      "midi": 54,
      "hit": false,
      "t": 57600,
      "d": 996,
      "v": 86
    },
    {
      "midi": 66,
      "hit": false,
      "t": 57600,
      "d": 1000,
      "v": 97
    },
    {
      "midi": 55,
      "hit": false,
      "t": 59040,
      "d": 236,
      "v": 93
    },
    {
      "midi": 60,
      "hit": false,
      "t": 59040,
      "d": 256,
      "v": 94
    },
    {
      "midi": 48,
      "hit": false,
      "t": 59040,
      "d": 312,
      "v": 90
    },
    {
      "midi": 71,
      "hit": false,
      "t": 59040,
      "d": 372,
      "v": 95
    },
    {
      "midi": 64,
      "hit": false,
      "t": 59040,
      "d": 544,
      "v": 106
    },
    {
      "midi": 67,
      "hit": false,
      "t": 59040,
      "d": 560,
      "v": 97
    },
    {
      "midi": 59,
      "hit": false,
      "t": 59520,
      "d": 52,
      "v": 80
    },
    {
      "midi": 54,
      "hit": false,
      "t": 59520,
      "d": 92,
      "v": 82
    },
    {
      "midi": 47,
      "hit": false,
      "t": 59520,
      "d": 104,
      "v": 84
    },
    {
      "midi": 62,
      "hit": false,
      "t": 59520,
      "d": 336,
      "v": 96
    },
    {
      "midi": 69,
      "hit": false,
      "t": 59520,
      "d": 436,
      "v": 94
    },
    {
      "midi": 66,
      "hit": false,
      "t": 59520,
      "d": 536,
      "v": 98
    },
    {
      "midi": 57,
      "hit": false,
      "t": 60000,
      "d": 44,
      "v": 82
    },
    {
      "midi": 45,
      "hit": false,
      "t": 60000,
      "d": 56,
      "v": 76
    },
    {
      "midi": 52,
      "hit": false,
      "t": 60000,
      "d": 56,
      "v": 80
    },
    {
      "midi": 64,
      "hit": false,
      "t": 60000,
      "d": 260,
      "v": 92
    },
    {
      "midi": 60,
      "hit": false,
      "t": 60000,
      "d": 284,
      "v": 87
    },
    {
      "midi": 67,
      "hit": false,
      "t": 60000,
      "d": 468,
      "v": 85
    },
    {
      "midi": 62,
      "hit": false,
      "t": 60480,
      "d": 552,
      "v": 91
    },
    {
      "midi": 71,
      "hit": false,
      "t": 60480,
      "d": 552,
      "v": 92
    },
    {
      "midi": 66,
      "hit": false,
      "t": 60480,
      "d": 564,
      "v": 90
    },
    {
      "midi": 43,
      "hit": false,
      "t": 60480,
      "d": 984,
      "v": 81
    },
    {
      "midi": 50,
      "hit": false,
      "t": 60480,
      "d": 1044,
      "v": 83
    },
    {
      "midi": 55,
      "hit": false,
      "t": 60480,
      "d": 1076,
      "v": 82
    },
    {
      "midi": 59,
      "hit": false,
      "t": 60480,
      "d": 1476,
      "v": 89
    },
    {
      "midi": 71,
      "hit": false,
      "t": 61280,
      "d": 352,
      "v": 97
    },
    {
      "midi": 62,
      "hit": false,
      "t": 61280,
      "d": 376,
      "v": 102
    },
    {
      "midi": 66,
      "hit": false,
      "t": 61280,
      "d": 396,
      "v": 101
    },
    {
      "midi": 45,
      "hit": false,
      "t": 61920,
      "d": 992,
      "v": 79
    },
    {
      "midi": 52,
      "hit": false,
      "t": 61920,
      "d": 1004,
      "v": 73
    },
    {
      "midi": 60,
      "hit": false,
      "t": 61920,
      "d": 1004,
      "v": 91
    },
    {
      "midi": 55,
      "hit": false,
      "t": 61920,
      "d": 1040,
      "v": 78
    },
    {
      "midi": 64,
      "hit": false,
      "t": 61920,
      "d": 1112,
      "v": 85
    },
    {
      "midi": 67,
      "hit": false,
      "t": 61920,
      "d": 1172,
      "v": 90
    },
    {
      "midi": 57,
      "hit": false,
      "t": 62880,
      "d": 1680,
      "v": 84
    },
    {
      "midi": 47,
      "hit": false,
      "t": 63200,
      "d": 1244,
      "v": 82
    },
    {
      "midi": 62,
      "hit": false,
      "t": 63360,
      "d": 764,
      "v": 96
    },
    {
      "midi": 69,
      "hit": false,
      "t": 63360,
      "d": 772,
      "v": 97
    },
    {
      "midi": 66,
      "hit": false,
      "t": 63360,
      "d": 796,
      "v": 101
    },
    {
      "midi": 54,
      "hit": false,
      "t": 63360,
      "d": 1140,
      "v": 83
    },
    {
      "midi": 62,
      "hit": false,
      "t": 64320,
      "d": 304,
      "v": 101
    },
    {
      "midi": 66,
      "hit": false,
      "t": 64320,
      "d": 440,
      "v": 104
    },
    {
      "midi": 69,
      "hit": false,
      "t": 64320,
      "d": 484,
      "v": 104
    },
    {
      "midi": 64,
      "hit": false,
      "t": 64800,
      "d": 756,
      "v": 92
    },
    {
      "midi": 67,
      "hit": false,
      "t": 64800,
      "d": 784,
      "v": 87
    },
    {
      "midi": 55,
      "hit": false,
      "t": 64800,
      "d": 1088,
      "v": 79
    },
    {
      "midi": 52,
      "hit": false,
      "t": 64800,
      "d": 1100,
      "v": 79
    },
    {
      "midi": 45,
      "hit": false,
      "t": 64800,
      "d": 1172,
      "v": 69
    },
    {
      "midi": 60,
      "hit": false,
      "t": 64800,
      "d": 1304,
      "v": 91
    },
    {
      "midi": 64,
      "hit": false,
      "t": 65760,
      "d": 272,
      "v": 104
    },
    {
      "midi": 67,
      "hit": false,
      "t": 65760,
      "d": 404,
      "v": 106
    },
    {
      "midi": 62,
      "hit": false,
      "t": 66240,
      "d": 504,
      "v": 99
    },
    {
      "midi": 66,
      "hit": false,
      "t": 66240,
      "d": 512,
      "v": 98
    },
    {
      "midi": 71,
      "hit": false,
      "t": 66240,
      "d": 520,
      "v": 96
    },
    {
      "midi": 43,
      "hit": false,
      "t": 66240,
      "d": 1236,
      "v": 79
    },
    {
      "midi": 55,
      "hit": false,
      "t": 66240,
      "d": 1252,
      "v": 80
    },
    {
      "midi": 50,
      "hit": false,
      "t": 66240,
      "d": 1256,
      "v": 80
    },
    {
      "midi": 59,
      "hit": false,
      "t": 66720,
      "d": 772,
      "v": 86
    },
    {
      "midi": 62,
      "hit": false,
      "t": 67040,
      "d": 512,
      "v": 102
    },
    {
      "midi": 66,
      "hit": false,
      "t": 67040,
      "d": 576,
      "v": 100
    },
    {
      "midi": 71,
      "hit": false,
      "t": 67040,
      "d": 580,
      "v": 106
    },
    {
      "midi": 60,
      "hit": false,
      "t": 67680,
      "d": 336,
      "v": 93
    },
    {
      "midi": 64,
      "hit": false,
      "t": 67680,
      "d": 484,
      "v": 95
    },
    {
      "midi": 67,
      "hit": false,
      "t": 67680,
      "d": 492,
      "v": 92
    },
    {
      "midi": 71,
      "hit": false,
      "t": 67680,
      "d": 496,
      "v": 84
    },
    {
      "midi": 52,
      "hit": false,
      "t": 67680,
      "d": 1168,
      "v": 84
    },
    {
      "midi": 45,
      "hit": false,
      "t": 67680,
      "d": 1196,
      "v": 92
    },
    {
      "midi": 55,
      "hit": false,
      "t": 67680,
      "d": 1376,
      "v": 85
    },
    {
      "midi": 60,
      "hit": false,
      "t": 68160,
      "d": 844,
      "v": 82
    },
    {
      "midi": 64,
      "hit": false,
      "t": 68480,
      "d": 504,
      "v": 103
    },
    {
      "midi": 71,
      "hit": false,
      "t": 68480,
      "d": 552,
      "v": 103
    },
    {
      "midi": 67,
      "hit": false,
      "t": 68480,
      "d": 612,
      "v": 102
    },
    {
      "midi": 59,
      "hit": false,
      "t": 69120,
      "d": 876,
      "v": 100
    },
    {
      "midi": 62,
      "hit": false,
      "t": 69120,
      "d": 952,
      "v": 103
    },
    {
      "midi": 47,
      "hit": false,
      "t": 69120,
      "d": 964,
      "v": 80
    },
    {
      "midi": 66,
      "hit": false,
      "t": 69120,
      "d": 972,
      "v": 100
    },
    {
      "midi": 54,
      "hit": false,
      "t": 69120,
      "d": 996,
      "v": 91
    },
    {
      "midi": 71,
      "hit": false,
      "t": 69120,
      "d": 996,
      "v": 100
    },
    {
      "midi": 67,
      "hit": false,
      "t": 70560,
      "d": 368,
      "v": 111
    },
    {
      "midi": 79,
      "hit": false,
      "t": 70560,
      "d": 384,
      "v": 109
    },
    {
      "midi": 59,
      "hit": false,
      "t": 70560,
      "d": 852,
      "v": 93
    },
    {
      "midi": 52,
      "hit": false,
      "t": 70560,
      "d": 872,
      "v": 92
    },
    {
      "midi": 69,
      "hit": false,
      "t": 71040,
      "d": 356,
      "v": 110
    },
    {
      "midi": 81,
      "hit": false,
      "t": 71040,
      "d": 368,
      "v": 113
    },
    {
      "midi": 71,
      "hit": false,
      "t": 71520,
      "d": 376,
      "v": 107
    },
    {
      "midi": 83,
      "hit": false,
      "t": 71520,
      "d": 396,
      "v": 110
    },
    {
      "midi": 59,
      "hit": false,
      "t": 72000,
      "d": 396,
      "v": 99
    },
    {
      "midi": 64,
      "hit": false,
      "t": 72000,
      "d": 696,
      "v": 97
    },
    {
      "midi": 48,
      "hit": false,
      "t": 72000,
      "d": 816,
      "v": 99
    },
    {
      "midi": 71,
      "hit": false,
      "t": 72000,
      "d": 844,
      "v": 95
    },
    {
      "midi": 55,
      "hit": false,
      "t": 72000,
      "d": 864,
      "v": 88
    },
    {
      "midi": 67,
      "hit": false,
      "t": 72000,
      "d": 872,
      "v": 97
    },
    {
      "midi": 59,
      "hit": false,
      "t": 72480,
      "d": 384,
      "v": 76
    },
    {
      "midi": 64,
      "hit": false,
      "t": 72960,
      "d": 44,
      "v": 92
    },
    {
      "midi": 71,
      "hit": false,
      "t": 72960,
      "d": 44,
      "v": 75
    },
    {
      "midi": 67,
      "hit": false,
      "t": 72960,
      "d": 92,
      "v": 87
    },
    {
      "midi": 62,
      "hit": false,
      "t": 73440,
      "d": 480,
      "v": 87
    },
    {
      "midi": 67,
      "hit": false,
      "t": 73440,
      "d": 644,
      "v": 97
    },
    {
      "midi": 74,
      "hit": false,
      "t": 73440,
      "d": 708,
      "v": 92
    },
    {
      "midi": 71,
      "hit": false,
      "t": 73440,
      "d": 712,
      "v": 86
    },
    {
      "midi": 60,
      "hit": false,
      "t": 73440,
      "d": 976,
      "v": 89
    },
    {
      "midi": 55,
      "hit": false,
      "t": 73440,
      "d": 1016,
      "v": 93
    },
    {
      "midi": 62,
      "hit": false,
      "t": 73920,
      "d": 192,
      "v": 53
    },
    {
      "midi": 67,
      "hit": false,
      "t": 74400,
      "d": 356,
      "v": 106
    },
    {
      "midi": 71,
      "hit": false,
      "t": 74400,
      "d": 512,
      "v": 104
    },
    {
      "midi": 66,
      "hit": false,
      "t": 74880,
      "d": 696,
      "v": 97
    },
    {
      "midi": 69,
      "hit": false,
      "t": 74880,
      "d": 696,
      "v": 93
    },
    {
      "midi": 62,
      "hit": false,
      "t": 74880,
      "d": 744,
      "v": 87
    },
    {
      "midi": 47,
      "hit": false,
      "t": 74880,
      "d": 924,
      "v": 78
    },
    {
      "midi": 54,
      "hit": false,
      "t": 74880,
      "d": 980,
      "v": 85
    },
    {
      "midi": 59,
      "hit": false,
      "t": 74880,
      "d": 992,
      "v": 79
    },
    {
      "midi": 62,
      "hit": false,
      "t": 75840,
      "d": 104,
      "v": 81
    },
    {
      "midi": 66,
      "hit": false,
      "t": 75840,
      "d": 140,
      "v": 84
    },
    {
      "midi": 69,
      "hit": false,
      "t": 75840,
      "d": 140,
      "v": 86
    },
    {
      "midi": 54,
      "hit": false,
      "t": 76160,
      "d": 212,
      "v": 79
    },
    {
      "midi": 57,
      "hit": false,
      "t": 76320,
      "d": 232,
      "v": 98
    },
    {
      "midi": 66,
      "hit": false,
      "t": 76320,
      "d": 552,
      "v": 101
    },
    {
      "midi": 74,
      "hit": false,
      "t": 76320,
      "d": 996,
      "v": 105
    },
    {
      "midi": 62,
      "hit": false,
      "t": 76320,
      "d": 1012,
      "v": 93
    },
    {
      "midi": 69,
      "hit": false,
      "t": 76800,
      "d": 524,
      "v": 95
    },
    {
      "midi": 66,
      "hit": false,
      "t": 77280,
      "d": 96,
      "v": 98
    },
    {
      "midi": 45,
      "hit": false,
      "t": 77600,
      "d": 2032,
      "v": 71
    },
    {
      "midi": 64,
      "hit": false,
      "t": 77760,
      "d": 380,
      "v": 100
    },
    {
      "midi": 60,
      "hit": false,
      "t": 77760,
      "d": 452,
      "v": 83
    },
    {
      "midi": 67,
      "hit": false,
      "t": 77760,
      "d": 504,
      "v": 106
    },
    {
      "midi": 72,
      "hit": false,
      "t": 77760,
      "d": 672,
      "v": 105
    },
    {
      "midi": 52,
      "hit": false,
      "t": 77760,
      "d": 1144,
      "v": 81
    },
    {
      "midi": 64,
      "hit": false,
      "t": 78240,
      "d": 124,
      "v": 78
    },
    {
      "midi": 64,
      "hit": false,
      "t": 78720,
      "d": 92,
      "v": 86
    },
    {
      "midi": 67,
      "hit": false,
      "t": 78720,
      "d": 132,
      "v": 89
    },
    {
      "midi": 52,
      "hit": false,
      "t": 79040,
      "d": 1108,
      "v": 87
    },
    {
      "midi": 60,
      "hit": false,
      "t": 79200,
      "d": 432,
      "v": 98
    },
    {
      "midi": 64,
      "hit": false,
      "t": 79200,
      "d": 816,
      "v": 101
    },
    {
      "midi": 57,
      "hit": false,
      "t": 79200,
      "d": 884,
      "v": 95
    },
    {
      "midi": 60,
      "hit": false,
      "t": 79680,
      "d": 212,
      "v": 57
    },
    {
      "midi": 67,
      "hit": false,
      "t": 79680,
      "d": 320,
      "v": 89
    },
    {
      "midi": 67,
      "hit": false,
      "t": 80160,
      "d": 184,
      "v": 106
    },
    {
      "midi": 72,
      "hit": false,
      "t": 80160,
      "d": 216,
      "v": 105
    },
    {
      "midi": 62,
      "hit": false,
      "t": 80640,
      "d": 636,
      "v": 100
    },
    {
      "midi": 66,
      "hit": false,
      "t": 80640,
      "d": 684,
      "v": 102
    },
    {
      "midi": 71,
      "hit": false,
      "t": 80640,
      "d": 936,
      "v": 97
    },
    {
      "midi": 55,
      "hit": false,
      "t": 80640,
      "d": 1080,
      "v": 81
    },
    {
      "midi": 50,
      "hit": false,
      "t": 80640,
      "d": 1092,
      "v": 84
    },
    {
      "midi": 43,
      "hit": false,
      "t": 80640,
      "d": 1148,
      "v": 81
    },
    {
      "midi": 59,
      "hit": false,
      "t": 81120,
      "d": 352,
      "v": 73
    },
    {
      "midi": 59,
      "hit": false,
      "t": 81600,
      "d": 36,
      "v": 63
    },
    {
      "midi": 62,
      "hit": false,
      "t": 81600,
      "d": 60,
      "v": 73
    },
    {
      "midi": 66,
      "hit": false,
      "t": 81600,
      "d": 116,
      "v": 79
    },
    {
      "midi": 55,
      "hit": false,
      "t": 82080,
      "d": 76,
      "v": 105
    },
    {
      "midi": 50,
      "hit": false,
      "t": 82080,
      "d": 88,
      "v": 105
    },
    {
      "midi": 43,
      "hit": false,
      "t": 82080,
      "d": 104,
      "v": 109
    },
    {
      "midi": 59,
      "hit": false,
      "t": 82080,
      "d": 112,
      "v": 101
    },
    {
      "midi": 62,
      "hit": false,
      "t": 82080,
      "d": 164,
      "v": 103
    },
    {
      "midi": 66,
      "hit": false,
      "t": 82080,
      "d": 164,
      "v": 98
    },
    {
      "midi": 71,
      "hit": false,
      "t": 82080,
      "d": 192,
      "v": 101
    },
    {
      "midi": 47,
      "hit": false,
      "t": 83360,
      "d": 36,
      "v": 84
    },
    {
      "midi": 59,
      "hit": false,
      "t": 83360,
      "d": 52,
      "v": 91
    },
    {
      "midi": 54,
      "hit": false,
      "t": 83360,
      "d": 72,
      "v": 98
    },
    {
      "midi": 62,
      "hit": false,
      "t": 83360,
      "d": 80,
      "v": 96
    },
    {
      "midi": 66,
      "hit": false,
      "t": 83360,
      "d": 108,
      "v": 101
    },
    {
      "midi": 69,
      "hit": false,
      "t": 83360,
      "d": 108,
      "v": 98
    },
    {
      "midi": 69,
      "hit": false,
      "t": 83520,
      "d": 44,
      "v": 49
    },
    {
      "midi": 64,
      "hit": false,
      "t": 83520,
      "d": 360,
      "v": 95
    },
    {
      "midi": 67,
      "hit": false,
      "t": 83520,
      "d": 556,
      "v": 97
    },
    {
      "midi": 71,
      "hit": false,
      "t": 83520,
      "d": 652,
      "v": 88
    },
    {
      "midi": 48,
      "hit": false,
      "t": 83520,
      "d": 1156,
      "v": 104
    },
    {
      "midi": 55,
      "hit": false,
      "t": 83520,
      "d": 1164,
      "v": 101
    },
    {
      "midi": 60,
      "hit": false,
      "t": 83520,
      "d": 1168,
      "v": 106
    },
    {
      "midi": 64,
      "hit": false,
      "t": 84000,
      "d": 564,
      "v": 85
    },
    {
      "midi": 67,
      "hit": false,
      "t": 84480,
      "d": 96,
      "v": 93
    },
    {
      "midi": 71,
      "hit": false,
      "t": 84480,
      "d": 160,
      "v": 88
    },
    {
      "midi": 71,
      "hit": false,
      "t": 84960,
      "d": 352,
      "v": 96
    },
    {
      "midi": 67,
      "hit": false,
      "t": 84960,
      "d": 368,
      "v": 103
    },
    {
      "midi": 76,
      "hit": false,
      "t": 84960,
      "d": 464,
      "v": 102
    },
    {
      "midi": 60,
      "hit": false,
      "t": 84960,
      "d": 532,
      "v": 90
    },
    {
      "midi": 55,
      "hit": false,
      "t": 84960,
      "d": 676,
      "v": 93
    },
    {
      "midi": 67,
      "hit": false,
      "t": 85440,
      "d": 272,
      "v": 80
    },
    {
      "midi": 71,
      "hit": false,
      "t": 85440,
      "d": 372,
      "v": 75
    },
    {
      "midi": 64,
      "hit": false,
      "t": 85920,
      "d": 92,
      "v": 93
    },
    {
      "midi": 67,
      "hit": false,
      "t": 85920,
      "d": 96,
      "v": 101
    },
    {
      "midi": 62,
      "hit": false,
      "t": 86400,
      "d": 376,
      "v": 100
    },
    {
      "midi": 69,
      "hit": false,
      "t": 86400,
      "d": 440,
      "v": 100
    },
    {
      "midi": 66,
      "hit": false,
      "t": 86400,
      "d": 444,
      "v": 104
    },
    {
      "midi": 74,
      "hit": false,
      "t": 86400,
      "d": 480,
      "v": 101
    },
    {
      "midi": 47,
      "hit": false,
      "t": 86400,
      "d": 1236,
      "v": 81
    },
    {
      "midi": 59,
      "hit": false,
      "t": 86400,
      "d": 1560,
      "v": 85
    },
    {
      "midi": 54,
      "hit": false,
      "t": 86400,
      "d": 1612,
      "v": 88
    },
    {
      "midi": 62,
      "hit": false,
      "t": 86880,
      "d": 172,
      "v": 58
    },
    {
      "midi": 69,
      "hit": false,
      "t": 86880,
      "d": 248,
      "v": 47
    },
    {
      "midi": 66,
      "hit": false,
      "t": 86880,
      "d": 292,
      "v": 49
    },
    {
      "midi": 62,
      "hit": false,
      "t": 87360,
      "d": 172,
      "v": 64
    },
    {
      "midi": 69,
      "hit": false,
      "t": 87360,
      "d": 192,
      "v": 70
    },
    {
      "midi": 66,
      "hit": false,
      "t": 87360,
      "d": 224,
      "v": 67
    },
    {
      "midi": 62,
      "hit": false,
      "t": 87840,
      "d": 92,
      "v": 101
    },
    {
      "midi": 69,
      "hit": false,
      "t": 87840,
      "d": 128,
      "v": 108
    },
    {
      "midi": 66,
      "hit": false,
      "t": 87840,
      "d": 152,
      "v": 108
    },
    {
      "midi": 62,
      "hit": false,
      "t": 88320,
      "d": 72,
      "v": 78
    },
    {
      "midi": 69,
      "hit": false,
      "t": 88320,
      "d": 96,
      "v": 79
    },
    {
      "midi": 66,
      "hit": false,
      "t": 88320,
      "d": 136,
      "v": 77
    },
    {
      "midi": 61,
      "hit": false,
      "t": 88800,
      "d": 148,
      "v": 85
    },
    {
      "midi": 56,
      "hit": false,
      "t": 88800,
      "d": 184,
      "v": 85
    },
    {
      "midi": 46,
      "hit": false,
      "t": 88800,
      "d": 232,
      "v": 86
    },
    {
      "midi": 65,
      "hit": false,
      "t": 88800,
      "d": 276,
      "v": 95
    },
    {
      "midi": 73,
      "hit": false,
      "t": 88800,
      "d": 332,
      "v": 94
    },
    {
      "midi": 68,
      "hit": false,
      "t": 88800,
      "d": 400,
      "v": 95
    },
    {
      "midi": 64,
      "hit": false,
      "t": 89280,
      "d": 396,
      "v": 104
    },
    {
      "midi": 67,
      "hit": false,
      "t": 89280,
      "d": 624,
      "v": 105
    },
    {
      "midi": 72,
      "hit": false,
      "t": 89280,
      "d": 700,
      "v": 104
    },
    {
      "midi": 60,
      "hit": false,
      "t": 89280,
      "d": 1044,
      "v": 75
    },
    {
      "midi": 55,
      "hit": false,
      "t": 89280,
      "d": 1064,
      "v": 82
    },
    {
      "midi": 45,
      "hit": false,
      "t": 89280,
      "d": 2540,
      "v": 86
    },
    {
      "midi": 64,
      "hit": false,
      "t": 89760,
      "d": 108,
      "v": 74
    },
    {
      "midi": 64,
      "hit": false,
      "t": 90240,
      "d": 36,
      "v": 84
    },
    {
      "midi": 67,
      "hit": false,
      "t": 90240,
      "d": 60,
      "v": 72
    },
    {
      "midi": 72,
      "hit": false,
      "t": 90240,
      "d": 116,
      "v": 89
    },
    {
      "midi": 62,
      "hit": false,
      "t": 90720,
      "d": 504,
      "v": 100
    },
    {
      "midi": 67,
      "hit": false,
      "t": 90720,
      "d": 1004,
      "v": 101
    },
    {
      "midi": 55,
      "hit": false,
      "t": 90720,
      "d": 1052,
      "v": 93
    },
    {
      "midi": 64,
      "hit": false,
      "t": 91200,
      "d": 492,
      "v": 93
    },
    {
      "midi": 62,
      "hit": false,
      "t": 91680,
      "d": 72,
      "v": 92
    },
    {
      "midi": 62,
      "hit": false,
      "t": 92160,
      "d": 380,
      "v": 96
    },
    {
      "midi": 66,
      "hit": false,
      "t": 92160,
      "d": 628,
      "v": 103
    },
    {
      "midi": 71,
      "hit": false,
      "t": 92160,
      "d": 652,
      "v": 93
    },
    {
      "midi": 74,
      "hit": false,
      "t": 92160,
      "d": 684,
      "v": 102
    },
    {
      "midi": 43,
      "hit": false,
      "t": 92160,
      "d": 1084,
      "v": 85
    },
    {
      "midi": 50,
      "hit": false,
      "t": 92160,
      "d": 1124,
      "v": 89
    },
    {
      "midi": 55,
      "hit": false,
      "t": 92160,
      "d": 1124,
      "v": 88
    },
    {
      "midi": 62,
      "hit": false,
      "t": 92640,
      "d": 620,
      "v": 80
    },
    {
      "midi": 74,
      "hit": false,
      "t": 93120,
      "d": 124,
      "v": 79
    },
    {
      "midi": 71,
      "hit": false,
      "t": 93120,
      "d": 136,
      "v": 72
    },
    {
      "midi": 66,
      "hit": false,
      "t": 93120,
      "d": 144,
      "v": 82
    },
    {
      "midi": 55,
      "hit": false,
      "t": 93600,
      "d": 236,
      "v": 92
    },
    {
      "midi": 62,
      "hit": false,
      "t": 93600,
      "d": 244,
      "v": 101
    },
    {
      "midi": 66,
      "hit": false,
      "t": 93600,
      "d": 256,
      "v": 108
    },
    {
      "midi": 50,
      "hit": false,
      "t": 93600,
      "d": 276,
      "v": 91
    },
    {
      "midi": 71,
      "hit": false,
      "t": 93600,
      "d": 276,
      "v": 99
    },
    {
      "midi": 74,
      "hit": false,
      "t": 93600,
      "d": 276,
      "v": 104
    },
    {
      "midi": 43,
      "hit": false,
      "t": 93600,
      "d": 300,
      "v": 97
    },
    {
      "midi": 60,
      "hit": false,
      "t": 94880,
      "d": 96,
      "v": 99
    },
    {
      "midi": 51,
      "hit": false,
      "t": 94880,
      "d": 100,
      "v": 103
    },
    {
      "midi": 63,
      "hit": false,
      "t": 94880,
      "d": 112,
      "v": 105
    },
    {
      "midi": 44,
      "hit": false,
      "t": 94880,
      "d": 116,
      "v": 100
    },
    {
      "midi": 67,
      "hit": false,
      "t": 94880,
      "d": 124,
      "v": 102
    },
    {
      "midi": 59,
      "hit": false,
      "t": 95040,
      "d": 468,
      "v": 96
    },
    {
      "midi": 66,
      "hit": false,
      "t": 95040,
      "d": 840,
      "v": 96
    },
    {
      "midi": 62,
      "hit": false,
      "t": 95040,
      "d": 852,
      "v": 98
    },
    {
      "midi": 71,
      "hit": false,
      "t": 95040,
      "d": 876,
      "v": 93
    },
    {
      "midi": 50,
      "hit": false,
      "t": 95040,
      "d": 1204,
      "v": 89
    },
    {
      "midi": 55,
      "hit": false,
      "t": 95040,
      "d": 1252,
      "v": 92
    },
    {
      "midi": 43,
      "hit": false,
      "t": 95040,
      "d": 2368,
      "v": 89
    },
    {
      "midi": 59,
      "hit": false,
      "t": 95520,
      "d": 412,
      "v": 59
    },
    {
      "midi": 59,
      "hit": false,
      "t": 96000,
      "d": 212,
      "v": 54
    },
    {
      "midi": 71,
      "hit": false,
      "t": 96000,
      "d": 244,
      "v": 72
    },
    {
      "midi": 62,
      "hit": false,
      "t": 96000,
      "d": 280,
      "v": 60
    },
    {
      "midi": 66,
      "hit": false,
      "t": 96000,
      "d": 304,
      "v": 73
    },
    {
      "midi": 50,
      "hit": false,
      "t": 96320,
      "d": 992,
      "v": 84
    },
    {
      "midi": 59,
      "hit": false,
      "t": 96320,
      "d": 1380,
      "v": 87
    },
    {
      "midi": 71,
      "hit": false,
      "t": 96480,
      "d": 692,
      "v": 99
    },
    {
      "midi": 62,
      "hit": false,
      "t": 96480,
      "d": 704,
      "v": 102
    },
    {
      "midi": 66,
      "hit": false,
      "t": 96480,
      "d": 732,
      "v": 100
    },
    {
      "midi": 55,
      "hit": false,
      "t": 96480,
      "d": 844,
      "v": 96
    },
    {
      "midi": 62,
      "hit": false,
      "t": 97440,
      "d": 292,
      "v": 76
    },
    {
      "midi": 66,
      "hit": false,
      "t": 97440,
      "d": 332,
      "v": 92
    },
    {
      "midi": 55,
      "hit": false,
      "t": 97920,
      "d": 484,
      "v": 71
    },
    {
      "midi": 62,
      "hit": false,
      "t": 97920,
      "d": 520,
      "v": 94
    },
    {
      "midi": 67,
      "hit": false,
      "t": 97920,
      "d": 600,
      "v": 99
    },
    {
      "midi": 59,
      "hit": false,
      "t": 97920,
      "d": 620,
      "v": 84
    },
    {
      "midi": 47,
      "hit": false,
      "t": 97920,
      "d": 2340,
      "v": 77
    },
    {
      "midi": 40,
      "hit": false,
      "t": 97920,
      "d": 2404,
      "v": 69
    },
    {
      "midi": 59,
      "hit": false,
      "t": 98880,
      "d": 504,
      "v": 61
    },
    {
      "midi": 67,
      "hit": false,
      "t": 98880,
      "d": 504,
      "v": 65
    },
    {
      "midi": 62,
      "hit": false,
      "t": 98880,
      "d": 524,
      "v": 60
    },
    {
      "midi": 55,
      "hit": false,
      "t": 99360,
      "d": 216,
      "v": 72
    },
    {
      "midi": 52,
      "hit": false,
      "t": 99360,
      "d": 556,
      "v": 58
    },
    {
      "midi": 67,
      "hit": false,
      "t": 99840,
      "d": 764,
      "v": 106
    },
    {
      "midi": 59,
      "hit": false,
      "t": 99840,
      "d": 776,
      "v": 104
    },
    {
      "midi": 62,
      "hit": false,
      "t": 99840,
      "d": 812,
      "v": 101
    },
    {
      "midi": 52,
      "hit": false,
      "t": 100320,
      "d": 36,
      "v": 81
    },
    {
      "midi": 55,
      "hit": false,
      "t": 100640,
      "d": 584,
      "v": 93
    },
    {
      "midi": 60,
      "hit": false,
      "t": 100800,
      "d": 792,
      "v": 103
    },
    {
      "midi": 64,
      "hit": false,
      "t": 100800,
      "d": 864,
      "v": 99
    },
    {
      "midi": 67,
      "hit": false,
      "t": 100800,
      "d": 876,
      "v": 98
    },
    {
      "midi": 45,
      "hit": false,
      "t": 100800,
      "d": 1352,
      "v": 89
    },
    {
      "midi": 52,
      "hit": false,
      "t": 100800,
      "d": 1456,
      "v": 85
    },
    {
      "midi": 55,
      "hit": false,
      "t": 101280,
      "d": 284,
      "v": 75
    },
    {
      "midi": 60,
      "hit": false,
      "t": 101760,
      "d": 456,
      "v": 61
    },
    {
      "midi": 64,
      "hit": false,
      "t": 101760,
      "d": 528,
      "v": 64
    },
    {
      "midi": 55,
      "hit": false,
      "t": 102240,
      "d": 856,
      "v": 72
    },
    {
      "midi": 45,
      "hit": false,
      "t": 102240,
      "d": 1016,
      "v": 57
    },
    {
      "midi": 67,
      "hit": false,
      "t": 102720,
      "d": 692,
      "v": 104
    },
    {
      "midi": 60,
      "hit": false,
      "t": 102720,
      "d": 792,
      "v": 104
    },
    {
      "midi": 64,
      "hit": false,
      "t": 102720,
      "d": 844,
      "v": 101
    },
    {
      "midi": 52,
      "hit": false,
      "t": 103200,
      "d": 60,
      "v": 78
    },
    {
      "midi": 55,
      "hit": false,
      "t": 103520,
      "d": 96,
      "v": 78
    },
    {
      "midi": 57,
      "hit": false,
      "t": 103680,
      "d": 36,
      "v": 70
    },
    {
      "midi": 60,
      "hit": false,
      "t": 103680,
      "d": 764,
      "v": 101
    },
    {
      "midi": 64,
      "hit": false,
      "t": 103680,
      "d": 788,
      "v": 95
    },
    {
      "midi": 50,
      "hit": false,
      "t": 103680,
      "d": 1220,
      "v": 88
    },
    {
      "midi": 54,
      "hit": false,
      "t": 103680,
      "d": 1268,
      "v": 93
    },
    {
      "midi": 64,
      "hit": false,
      "t": 104640,
      "d": 272,
      "v": 78
    },
    {
      "midi": 60,
      "hit": false,
      "t": 104640,
      "d": 288,
      "v": 75
    },
    {
      "midi": 57,
      "hit": false,
      "t": 104960,
      "d": 556,
      "v": 84
    },
    {
      "midi": 50,
      "hit": false,
      "t": 104960,
      "d": 1140,
      "v": 81
    },
    {
      "midi": 62,
      "hit": false,
      "t": 105120,
      "d": 572,
      "v": 97
    },
    {
      "midi": 69,
      "hit": false,
      "t": 105120,
      "d": 676,
      "v": 97
    },
    {
      "midi": 54,
      "hit": false,
      "t": 105120,
      "d": 992,
      "v": 98
    },
    {
      "midi": 57,
      "hit": false,
      "t": 105600,
      "d": 684,
      "v": 88
    },
    {
      "midi": 62,
      "hit": false,
      "t": 106080,
      "d": 296,
      "v": 102
    },
    {
      "midi": 69,
      "hit": false,
      "t": 106080,
      "d": 320,
      "v": 110
    },
    {
      "midi": 59,
      "hit": false,
      "t": 106560,
      "d": 404,
      "v": 83
    },
    {
      "midi": 62,
      "hit": false,
      "t": 106560,
      "d": 736,
      "v": 88
    },
    {
      "midi": 66,
      "hit": false,
      "t": 106560,
      "d": 756,
      "v": 95
    },
    {
      "midi": 50,
      "hit": false,
      "t": 106560,
      "d": 1264,
      "v": 81
    },
    {
      "midi": 55,
      "hit": false,
      "t": 106560,
      "d": 1304,
      "v": 78
    },
    {
      "midi": 43,
      "hit": false,
      "t": 106560,
      "d": 2448,
      "v": 78
    },
    {
      "midi": 59,
      "hit": false,
      "t": 107040,
      "d": 260,
      "v": 57
    },
    {
      "midi": 59,
      "hit": false,
      "t": 107520,
      "d": 252,
      "v": 48
    },
    {
      "midi": 62,
      "hit": false,
      "t": 107520,
      "d": 476,
      "v": 59
    },
    {
      "midi": 66,
      "hit": false,
      "t": 107520,
      "d": 500,
      "v": 64
    },
    {
      "midi": 55,
      "hit": false,
      "t": 108000,
      "d": 604,
      "v": 70
    },
    {
      "midi": 59,
      "hit": false,
      "t": 108000,
      "d": 956,
      "v": 86
    },
    {
      "midi": 50,
      "hit": false,
      "t": 108000,
      "d": 976,
      "v": 77
    },
    {
      "midi": 71,
      "hit": false,
      "t": 108480,
      "d": 756,
      "v": 101
    },
    {
      "midi": 62,
      "hit": false,
      "t": 108480,
      "d": 776,
      "v": 103
    },
    {
      "midi": 66,
      "hit": false,
      "t": 108480,
      "d": 796,
      "v": 101
    },
    {
      "midi": 55,
      "hit": false,
      "t": 108960,
      "d": 36,
      "v": 78
    },
    {
      "midi": 59,
      "hit": false,
      "t": 109280,
      "d": 596,
      "v": 87
    },
    {
      "midi": 62,
      "hit": false,
      "t": 109440,
      "d": 824,
      "v": 95
    },
    {
      "midi": 65,
      "hit": false,
      "t": 109440,
      "d": 836,
      "v": 93
    },
    {
      "midi": 71,
      "hit": false,
      "t": 109440,
      "d": 844,
      "v": 93
    },
    {
      "midi": 68,
      "hit": false,
      "t": 109440,
      "d": 928,
      "v": 92
    },
    {
      "midi": 44,
      "hit": false,
      "t": 109440,
      "d": 1372,
      "v": 93
    },
    {
      "midi": 53,
      "hit": false,
      "t": 109440,
      "d": 1384,
      "v": 93
    },
    {
      "midi": 59,
      "hit": false,
      "t": 109920,
      "d": 296,
      "v": 80
    },
    {
      "midi": 59,
      "hit": false,
      "t": 110400,
      "d": 244,
      "v": 64
    },
    {
      "midi": 65,
      "hit": false,
      "t": 110400,
      "d": 472,
      "v": 64
    },
    {
      "midi": 62,
      "hit": false,
      "t": 110400,
      "d": 484,
      "v": 62
    },
    {
      "midi": 68,
      "hit": false,
      "t": 110400,
      "d": 536,
      "v": 48
    },
    {
      "midi": 59,
      "hit": false,
      "t": 110880,
      "d": 212,
      "v": 86
    },
    {
      "midi": 53,
      "hit": false,
      "t": 110880,
      "d": 676,
      "v": 69
    },
    {
      "midi": 44,
      "hit": false,
      "t": 110880,
      "d": 704,
      "v": 73
    },
    {
      "midi": 65,
      "hit": false,
      "t": 111360,
      "d": 740,
      "v": 103
    },
    {
      "midi": 68,
      "hit": false,
      "t": 111360,
      "d": 740,
      "v": 101
    },
    {
      "midi": 62,
      "hit": false,
      "t": 111360,
      "d": 772,
      "v": 105
    },
    {
      "midi": 53,
      "hit": false,
      "t": 111840,
      "d": 48,
      "v": 82
    },
    {
      "midi": 44,
      "hit": false,
      "t": 111840,
      "d": 88,
      "v": 85
    },
    {
      "midi": 59,
      "hit": false,
      "t": 112160,
      "d": 192,
      "v": 84
    },
    {
      "midi": 60,
      "hit": false,
      "t": 112320,
      "d": 764,
      "v": 98
    },
    {
      "midi": 67,
      "hit": false,
      "t": 112320,
      "d": 884,
      "v": 93
    },
    {
      "midi": 55,
      "hit": false,
      "t": 112320,
      "d": 1364,
      "v": 88
    },
    {
      "midi": 52,
      "hit": false,
      "t": 112320,
      "d": 1380,
      "v": 75
    },
    {
      "midi": 45,
      "hit": false,
      "t": 112320,
      "d": 1400,
      "v": 85
    },
    {
      "midi": 64,
      "hit": false,
      "t": 112320,
      "d": 1444,
      "v": 91
    },
    {
      "midi": 57,
      "hit": false,
      "t": 112800,
      "d": 236,
      "v": 73
    },
    {
      "midi": 57,
      "hit": false,
      "t": 113280,
      "d": 288,
      "v": 60
    },
    {
      "midi": 67,
      "hit": false,
      "t": 113280,
      "d": 432,
      "v": 36
    },
    {
      "midi": 60,
      "hit": false,
      "t": 113280,
      "d": 472,
      "v": 63
    },
    {
      "midi": 55,
      "hit": false,
      "t": 113760,
      "d": 664,
      "v": 80
    },
    {
      "midi": 45,
      "hit": false,
      "t": 113760,
      "d": 776,
      "v": 89
    },
    {
      "midi": 57,
      "hit": false,
      "t": 113760,
      "d": 912,
      "v": 96
    },
    {
      "midi": 67,
      "hit": false,
      "t": 114240,
      "d": 808,
      "v": 101
    },
    {
      "midi": 60,
      "hit": false,
      "t": 114240,
      "d": 812,
      "v": 99
    },
    {
      "midi": 64,
      "hit": false,
      "t": 114240,
      "d": 828,
      "v": 100
    },
    {
      "midi": 55,
      "hit": false,
      "t": 114720,
      "d": 132,
      "v": 93
    },
    {
      "midi": 45,
      "hit": false,
      "t": 114720,
      "d": 524,
      "v": 93
    },
    {
      "midi": 57,
      "hit": false,
      "t": 115040,
      "d": 164,
      "v": 81
    },
    {
      "midi": 60,
      "hit": false,
      "t": 115200,
      "d": 468,
      "v": 102
    },
    {
      "midi": 64,
      "hit": false,
      "t": 115200,
      "d": 488,
      "v": 96
    },
    {
      "midi": 54,
      "hit": false,
      "t": 115200,
      "d": 1268,
      "v": 91
    },
    {
      "midi": 50,
      "hit": false,
      "t": 115200,
      "d": 1292,
      "v": 87
    },
    {
      "midi": 57,
      "hit": false,
      "t": 115680,
      "d": 1292,
      "v": 81
    },
    {
      "midi": 67,
      "hit": false,
      "t": 116160,
      "d": 136,
      "v": 55
    },
    {
      "midi": 69,
      "hit": false,
      "t": 116160,
      "d": 1500,
      "v": 98
    },
    {
      "midi": 62,
      "hit": false,
      "t": 116640,
      "d": 544,
      "v": 104
    },
    {
      "midi": 50,
      "hit": false,
      "t": 116640,
      "d": 1028,
      "v": 87
    },
    {
      "midi": 54,
      "hit": false,
      "t": 116640,
      "d": 1040,
      "v": 91
    },
    {
      "midi": 66,
      "hit": false,
      "t": 116640,
      "d": 1044,
      "v": 101
    },
    {
      "midi": 71,
      "hit": false,
      "t": 118080,
      "d": 516,
      "v": 86
    },
    {
      "midi": 62,
      "hit": false,
      "t": 118080,
      "d": 532,
      "v": 85
    },
    {
      "midi": 66,
      "hit": false,
      "t": 118080,
      "d": 532,
      "v": 87
    },
    {
      "midi": 43,
      "hit": false,
      "t": 118080,
      "d": 1056,
      "v": 78
    },
    {
      "midi": 50,
      "hit": false,
      "t": 118080,
      "d": 1096,
      "v": 75
    },
    {
      "midi": 55,
      "hit": false,
      "t": 118080,
      "d": 1132,
      "v": 73
    },
    {
      "midi": 59,
      "hit": false,
      "t": 118080,
      "d": 1184,
      "v": 88
    },
    {
      "midi": 62,
      "hit": false,
      "t": 118880,
      "d": 448,
      "v": 92
    },
    {
      "midi": 66,
      "hit": false,
      "t": 118880,
      "d": 672,
      "v": 96
    },
    {
      "midi": 71,
      "hit": false,
      "t": 118880,
      "d": 704,
      "v": 94
    },
    {
      "midi": 45,
      "hit": false,
      "t": 119520,
      "d": 1104,
      "v": 79
    },
    {
      "midi": 64,
      "hit": false,
      "t": 119520,
      "d": 1136,
      "v": 86
    },
    {
      "midi": 60,
      "hit": false,
      "t": 119520,
      "d": 1212,
      "v": 88
    },
    {
      "midi": 55,
      "hit": false,
      "t": 119520,
      "d": 1292,
      "v": 87
    },
    {
      "midi": 67,
      "hit": false,
      "t": 119520,
      "d": 1372,
      "v": 84
    },
    {
      "midi": 59,
      "hit": false,
      "t": 120960,
      "d": 804,
      "v": 85
    },
    {
      "midi": 47,
      "hit": false,
      "t": 120960,
      "d": 1176,
      "v": 82
    },
    {
      "midi": 62,
      "hit": false,
      "t": 120960,
      "d": 1196,
      "v": 91
    },
    {
      "midi": 54,
      "hit": false,
      "t": 120960,
      "d": 1264,
      "v": 88
    },
    {
      "midi": 69,
      "hit": false,
      "t": 120960,
      "d": 1384,
      "v": 91
    },
    {
      "midi": 66,
      "hit": false,
      "t": 120960,
      "d": 1396,
      "v": 88
    },
    {
      "midi": 64,
      "hit": false,
      "t": 122400,
      "d": 536,
      "v": 93
    },
    {
      "midi": 67,
      "hit": false,
      "t": 122400,
      "d": 596,
      "v": 88
    },
    {
      "midi": 52,
      "hit": false,
      "t": 122400,
      "d": 1096,
      "v": 73
    },
    {
      "midi": 55,
      "hit": false,
      "t": 122400,
      "d": 1124,
      "v": 78
    },
    {
      "midi": 45,
      "hit": false,
      "t": 122400,
      "d": 1172,
      "v": 70
    },
    {
      "midi": 60,
      "hit": false,
      "t": 122400,
      "d": 1236,
      "v": 91
    },
    {
      "midi": 64,
      "hit": false,
      "t": 123200,
      "d": 424,
      "v": 98
    },
    {
      "midi": 67,
      "hit": false,
      "t": 123200,
      "d": 608,
      "v": 97
    },
    {
      "midi": 62,
      "hit": false,
      "t": 123840,
      "d": 524,
      "v": 92
    },
    {
      "midi": 66,
      "hit": false,
      "t": 123840,
      "d": 544,
      "v": 92
    },
    {
      "midi": 71,
      "hit": false,
      "t": 123840,
      "d": 544,
      "v": 91
    },
    {
      "midi": 43,
      "hit": false,
      "t": 123840,
      "d": 1048,
      "v": 81
    },
    {
      "midi": 50,
      "hit": false,
      "t": 123840,
      "d": 1096,
      "v": 81
    },
    {
      "midi": 55,
      "hit": false,
      "t": 123840,
      "d": 1148,
      "v": 79
    },
    {
      "midi": 59,
      "hit": false,
      "t": 123840,
      "d": 1484,
      "v": 88
    },
    {
      "midi": 71,
      "hit": false,
      "t": 124640,
      "d": 368,
      "v": 101
    },
    {
      "midi": 62,
      "hit": false,
      "t": 124640,
      "d": 412,
      "v": 99
    },
    {
      "midi": 66,
      "hit": false,
      "t": 124640,
      "d": 432,
      "v": 101
    },
    {
      "midi": 52,
      "hit": false,
      "t": 125280,
      "d": 972,
      "v": 74
    },
    {
      "midi": 45,
      "hit": false,
      "t": 125280,
      "d": 988,
      "v": 74
    },
    {
      "midi": 60,
      "hit": false,
      "t": 125280,
      "d": 1016,
      "v": 88
    },
    {
      "midi": 64,
      "hit": false,
      "t": 125280,
      "d": 1136,
      "v": 83
    },
    {
      "midi": 67,
      "hit": false,
      "t": 125280,
      "d": 1280,
      "v": 79
    },
    {
      "midi": 55,
      "hit": false,
      "t": 125280,
      "d": 1372,
      "v": 76
    },
    {
      "midi": 57,
      "hit": false,
      "t": 126240,
      "d": 1364,
      "v": 82
    },
    {
      "midi": 47,
      "hit": false,
      "t": 126720,
      "d": 952,
      "v": 80
    },
    {
      "midi": 62,
      "hit": false,
      "t": 126720,
      "d": 976,
      "v": 96
    },
    {
      "midi": 54,
      "hit": false,
      "t": 126720,
      "d": 996,
      "v": 86
    },
    {
      "midi": 66,
      "hit": false,
      "t": 126720,
      "d": 1000,
      "v": 97
    },
    {
      "midi": 55,
      "hit": false,
      "t": 128160,
      "d": 236,
      "v": 93
    },
    {
      "midi": 60,
      "hit": false,
      "t": 128160,
      "d": 256,
      "v": 94
    },
    {
      "midi": 48,
      "hit": false,
      "t": 128160,
      "d": 312,
      "v": 90
    },
    {
      "midi": 71,
      "hit": false,
      "t": 128160,
      "d": 372,
      "v": 95
    },
    {
      "midi": 64,
      "hit": false,
      "t": 128160,
      "d": 544,
      "v": 106
    },
    {
      "midi": 67,
      "hit": false,
      "t": 128160,
      "d": 560,
      "v": 97
    },
    {
      "midi": 59,
      "hit": false,
      "t": 128640,
      "d": 52,
      "v": 80
    },
    {
      "midi": 54,
      "hit": false,
      "t": 128640,
      "d": 92,
      "v": 82
    },
    {
      "midi": 47,
      "hit": false,
      "t": 128640,
      "d": 104,
      "v": 84
    },
    {
      "midi": 62,
      "hit": false,
      "t": 128640,
      "d": 336,
      "v": 96
    },
    {
      "midi": 69,
      "hit": false,
      "t": 128640,
      "d": 436,
      "v": 94
    },
    {
      "midi": 66,
      "hit": false,
      "t": 128640,
      "d": 536,
      "v": 98
    },
    {
      "midi": 57,
      "hit": false,
      "t": 129120,
      "d": 44,
      "v": 82
    },
    {
      "midi": 45,
      "hit": false,
      "t": 129120,
      "d": 56,
      "v": 76
    },
    {
      "midi": 52,
      "hit": false,
      "t": 129120,
      "d": 56,
      "v": 80
    },
    {
      "midi": 64,
      "hit": false,
      "t": 129120,
      "d": 260,
      "v": 92
    },
    {
      "midi": 60,
      "hit": false,
      "t": 129120,
      "d": 284,
      "v": 87
    },
    {
      "midi": 67,
      "hit": false,
      "t": 129120,
      "d": 468,
      "v": 85
    },
    {
      "midi": 62,
      "hit": false,
      "t": 129600,
      "d": 552,
      "v": 91
    },
    {
      "midi": 71,
      "hit": false,
      "t": 129600,
      "d": 552,
      "v": 92
    },
    {
      "midi": 66,
      "hit": false,
      "t": 129600,
      "d": 564,
      "v": 90
    },
    {
      "midi": 43,
      "hit": false,
      "t": 129600,
      "d": 984,
      "v": 81
    },
    {
      "midi": 50,
      "hit": false,
      "t": 129600,
      "d": 1044,
      "v": 83
    },
    {
      "midi": 55,
      "hit": false,
      "t": 129600,
      "d": 1076,
      "v": 82
    },
    {
      "midi": 59,
      "hit": false,
      "t": 129600,
      "d": 1476,
      "v": 89
    },
    {
      "midi": 71,
      "hit": false,
      "t": 130400,
      "d": 352,
      "v": 97
    },
    {
      "midi": 62,
      "hit": false,
      "t": 130400,
      "d": 376,
      "v": 102
    },
    {
      "midi": 66,
      "hit": false,
      "t": 130400,
      "d": 396,
      "v": 101
    },
    {
      "midi": 45,
      "hit": false,
      "t": 131040,
      "d": 992,
      "v": 79
    },
    {
      "midi": 52,
      "hit": false,
      "t": 131040,
      "d": 1004,
      "v": 73
    },
    {
      "midi": 60,
      "hit": false,
      "t": 131040,
      "d": 1004,
      "v": 91
    },
    {
      "midi": 55,
      "hit": false,
      "t": 131040,
      "d": 1040,
      "v": 78
    },
    {
      "midi": 64,
      "hit": false,
      "t": 131040,
      "d": 1112,
      "v": 85
    },
    {
      "midi": 67,
      "hit": false,
      "t": 131040,
      "d": 1172,
      "v": 90
    },
    {
      "midi": 57,
      "hit": false,
      "t": 132000,
      "d": 1680,
      "v": 84
    },
    {
      "midi": 47,
      "hit": false,
      "t": 132320,
      "d": 1244,
      "v": 82
    },
    {
      "midi": 62,
      "hit": false,
      "t": 132480,
      "d": 764,
      "v": 96
    },
    {
      "midi": 69,
      "hit": false,
      "t": 132480,
      "d": 772,
      "v": 97
    },
    {
      "midi": 66,
      "hit": false,
      "t": 132480,
      "d": 796,
      "v": 101
    },
    {
      "midi": 54,
      "hit": false,
      "t": 132480,
      "d": 1140,
      "v": 83
    },
    {
      "midi": 62,
      "hit": false,
      "t": 133440,
      "d": 304,
      "v": 101
    },
    {
      "midi": 66,
      "hit": false,
      "t": 133440,
      "d": 440,
      "v": 104
    },
    {
      "midi": 69,
      "hit": false,
      "t": 133440,
      "d": 484,
      "v": 104
    },
    {
      "midi": 64,
      "hit": false,
      "t": 133920,
      "d": 756,
      "v": 92
    },
    {
      "midi": 67,
      "hit": false,
      "t": 133920,
      "d": 784,
      "v": 87
    },
    {
      "midi": 55,
      "hit": false,
      "t": 133920,
      "d": 1088,
      "v": 79
    },
    {
      "midi": 52,
      "hit": false,
      "t": 133920,
      "d": 1100,
      "v": 79
    },
    {
      "midi": 45,
      "hit": false,
      "t": 133920,
      "d": 1172,
      "v": 69
    },
    {
      "midi": 60,
      "hit": false,
      "t": 133920,
      "d": 1304,
      "v": 91
    },
    {
      "midi": 64,
      "hit": false,
      "t": 134880,
      "d": 272,
      "v": 104
    },
    {
      "midi": 67,
      "hit": false,
      "t": 134880,
      "d": 404,
      "v": 106
    },
    {
      "midi": 62,
      "hit": false,
      "t": 135360,
      "d": 504,
      "v": 99
    },
    {
      "midi": 66,
      "hit": false,
      "t": 135360,
      "d": 512,
      "v": 98
    },
    {
      "midi": 71,
      "hit": false,
      "t": 135360,
      "d": 520,
      "v": 96
    },
    {
      "midi": 43,
      "hit": false,
      "t": 135360,
      "d": 1236,
      "v": 79
    },
    {
      "midi": 55,
      "hit": false,
      "t": 135360,
      "d": 1252,
      "v": 80
    },
    {
      "midi": 50,
      "hit": false,
      "t": 135360,
      "d": 1256,
      "v": 80
    },
    {
      "midi": 59,
      "hit": false,
      "t": 135840,
      "d": 772,
      "v": 86
    },
    {
      "midi": 62,
      "hit": false,
      "t": 136160,
      "d": 512,
      "v": 102
    },
    {
      "midi": 66,
      "hit": false,
      "t": 136160,
      "d": 576,
      "v": 100
    },
    {
      "midi": 71,
      "hit": false,
      "t": 136160,
      "d": 580,
      "v": 106
    },
    {
      "midi": 60,
      "hit": false,
      "t": 136800,
      "d": 336,
      "v": 93
    },
    {
      "midi": 64,
      "hit": false,
      "t": 136800,
      "d": 484,
      "v": 95
    },
    {
      "midi": 67,
      "hit": false,
      "t": 136800,
      "d": 492,
      "v": 92
    },
    {
      "midi": 71,
      "hit": false,
      "t": 136800,
      "d": 496,
      "v": 84
    },
    {
      "midi": 52,
      "hit": false,
      "t": 136800,
      "d": 1168,
      "v": 84
    },
    {
      "midi": 45,
      "hit": false,
      "t": 136800,
      "d": 1196,
      "v": 92
    },
    {
      "midi": 55,
      "hit": false,
      "t": 136800,
      "d": 1376,
      "v": 85
    },
    {
      "midi": 60,
      "hit": false,
      "t": 137280,
      "d": 844,
      "v": 82
    },
    {
      "midi": 64,
      "hit": false,
      "t": 137600,
      "d": 504,
      "v": 103
    },
    {
      "midi": 71,
      "hit": false,
      "t": 137600,
      "d": 552,
      "v": 103
    },
    {
      "midi": 67,
      "hit": false,
      "t": 137600,
      "d": 612,
      "v": 102
    },
    {
      "midi": 59,
      "hit": false,
      "t": 138240,
      "d": 876,
      "v": 100
    },
    {
      "midi": 62,
      "hit": false,
      "t": 138240,
      "d": 952,
      "v": 103
    },
    {
      "midi": 47,
      "hit": false,
      "t": 138240,
      "d": 964,
      "v": 80
    },
    {
      "midi": 66,
      "hit": false,
      "t": 138240,
      "d": 972,
      "v": 100
    },
    {
      "midi": 54,
      "hit": false,
      "t": 138240,
      "d": 996,
      "v": 91
    },
    {
      "midi": 71,
      "hit": false,
      "t": 138240,
      "d": 996,
      "v": 100
    },
    {
      "midi": 67,
      "hit": false,
      "t": 139680,
      "d": 368,
      "v": 111
    },
    {
      "midi": 79,
      "hit": false,
      "t": 139680,
      "d": 384,
      "v": 109
    },
    {
      "midi": 59,
      "hit": false,
      "t": 139680,
      "d": 852,
      "v": 93
    },
    {
      "midi": 52,
      "hit": false,
      "t": 139680,
      "d": 872,
      "v": 92
    },
    {
      "midi": 69,
      "hit": false,
      "t": 140160,
      "d": 356,
      "v": 110
    },
    {
      "midi": 81,
      "hit": false,
      "t": 140160,
      "d": 368,
      "v": 113
    },
    {
      "midi": 71,
      "hit": false,
      "t": 140640,
      "d": 376,
      "v": 107
    },
    {
      "midi": 83,
      "hit": false,
      "t": 140640,
      "d": 396,
      "v": 110
    },
    {
      "midi": 59,
      "hit": false,
      "t": 141120,
      "d": 396,
      "v": 99
    },
    {
      "midi": 64,
      "hit": false,
      "t": 141120,
      "d": 696,
      "v": 97
    },
    {
      "midi": 48,
      "hit": false,
      "t": 141120,
      "d": 816,
      "v": 99
    },
    {
      "midi": 71,
      "hit": false,
      "t": 141120,
      "d": 844,
      "v": 95
    },
    {
      "midi": 55,
      "hit": false,
      "t": 141120,
      "d": 864,
      "v": 88
    },
    {
      "midi": 67,
      "hit": false,
      "t": 141120,
      "d": 872,
      "v": 97
    },
    {
      "midi": 59,
      "hit": false,
      "t": 141600,
      "d": 384,
      "v": 76
    },
    {
      "midi": 64,
      "hit": false,
      "t": 142080,
      "d": 44,
      "v": 92
    },
    {
      "midi": 71,
      "hit": false,
      "t": 142080,
      "d": 44,
      "v": 75
    },
    {
      "midi": 67,
      "hit": false,
      "t": 142080,
      "d": 92,
      "v": 87
    },
    {
      "midi": 62,
      "hit": false,
      "t": 142560,
      "d": 480,
      "v": 87
    },
    {
      "midi": 67,
      "hit": false,
      "t": 142560,
      "d": 644,
      "v": 97
    },
    {
      "midi": 74,
      "hit": false,
      "t": 142560,
      "d": 708,
      "v": 92
    },
    {
      "midi": 71,
      "hit": false,
      "t": 142560,
      "d": 712,
      "v": 86
    },
    {
      "midi": 60,
      "hit": false,
      "t": 142560,
      "d": 976,
      "v": 89
    },
    {
      "midi": 55,
      "hit": false,
      "t": 142560,
      "d": 1016,
      "v": 93
    },
    {
      "midi": 62,
      "hit": false,
      "t": 143040,
      "d": 192,
      "v": 53
    },
    {
      "midi": 67,
      "hit": false,
      "t": 143520,
      "d": 356,
      "v": 106
    },
    {
      "midi": 71,
      "hit": false,
      "t": 143520,
      "d": 512,
      "v": 104
    },
    {
      "midi": 66,
      "hit": false,
      "t": 144000,
      "d": 696,
      "v": 97
    },
    {
      "midi": 69,
      "hit": false,
      "t": 144000,
      "d": 696,
      "v": 93
    },
    {
      "midi": 62,
      "hit": false,
      "t": 144000,
      "d": 744,
      "v": 87
    },
    {
      "midi": 47,
      "hit": false,
      "t": 144000,
      "d": 924,
      "v": 78
    },
    {
      "midi": 54,
      "hit": false,
      "t": 144000,
      "d": 980,
      "v": 85
    },
    {
      "midi": 59,
      "hit": false,
      "t": 144000,
      "d": 992,
      "v": 79
    },
    {
      "midi": 62,
      "hit": false,
      "t": 144960,
      "d": 104,
      "v": 81
    },
    {
      "midi": 66,
      "hit": false,
      "t": 144960,
      "d": 140,
      "v": 84
    },
    {
      "midi": 69,
      "hit": false,
      "t": 144960,
      "d": 140,
      "v": 86
    },
    {
      "midi": 54,
      "hit": false,
      "t": 145280,
      "d": 212,
      "v": 79
    },
    {
      "midi": 57,
      "hit": false,
      "t": 145440,
      "d": 232,
      "v": 98
    },
    {
      "midi": 66,
      "hit": false,
      "t": 145440,
      "d": 552,
      "v": 101
    },
    {
      "midi": 74,
      "hit": false,
      "t": 145440,
      "d": 996,
      "v": 105
    },
    {
      "midi": 62,
      "hit": false,
      "t": 145440,
      "d": 1012,
      "v": 93
    },
    {
      "midi": 69,
      "hit": false,
      "t": 145920,
      "d": 524,
      "v": 95
    },
    {
      "midi": 66,
      "hit": false,
      "t": 146400,
      "d": 96,
      "v": 98
    },
    {
      "midi": 45,
      "hit": false,
      "t": 146720,
      "d": 2032,
      "v": 71
    },
    {
      "midi": 64,
      "hit": false,
      "t": 146880,
      "d": 380,
      "v": 100
    },
    {
      "midi": 60,
      "hit": false,
      "t": 146880,
      "d": 452,
      "v": 83
    },
    {
      "midi": 67,
      "hit": false,
      "t": 146880,
      "d": 504,
      "v": 106
    },
    {
      "midi": 72,
      "hit": false,
      "t": 146880,
      "d": 672,
      "v": 105
    },
    {
      "midi": 52,
      "hit": false,
      "t": 146880,
      "d": 1144,
      "v": 81
    },
    {
      "midi": 64,
      "hit": false,
      "t": 147360,
      "d": 124,
      "v": 78
    },
    {
      "midi": 64,
      "hit": false,
      "t": 147840,
      "d": 92,
      "v": 86
    },
    {
      "midi": 67,
      "hit": false,
      "t": 147840,
      "d": 132,
      "v": 89
    },
    {
      "midi": 52,
      "hit": false,
      "t": 148160,
      "d": 1108,
      "v": 87
    },
    {
      "midi": 60,
      "hit": false,
      "t": 148320,
      "d": 432,
      "v": 98
    },
    {
      "midi": 64,
      "hit": false,
      "t": 148320,
      "d": 816,
      "v": 101
    },
    {
      "midi": 57,
      "hit": false,
      "t": 148320,
      "d": 884,
      "v": 95
    },
    {
      "midi": 60,
      "hit": false,
      "t": 148800,
      "d": 212,
      "v": 57
    },
    {
      "midi": 67,
      "hit": false,
      "t": 148800,
      "d": 320,
      "v": 89
    },
    {
      "midi": 67,
      "hit": false,
      "t": 149280,
      "d": 184,
      "v": 106
    },
    {
      "midi": 72,
      "hit": false,
      "t": 149280,
      "d": 216,
      "v": 105
    },
    {
      "midi": 62,
      "hit": false,
      "t": 149760,
      "d": 636,
      "v": 100
    },
    {
      "midi": 66,
      "hit": false,
      "t": 149760,
      "d": 684,
      "v": 102
    },
    {
      "midi": 71,
      "hit": false,
      "t": 149760,
      "d": 936,
      "v": 97
    },
    {
      "midi": 55,
      "hit": false,
      "t": 149760,
      "d": 1080,
      "v": 81
    },
    {
      "midi": 50,
      "hit": false,
      "t": 149760,
      "d": 1092,
      "v": 84
    },
    {
      "midi": 43,
      "hit": false,
      "t": 149760,
      "d": 1148,
      "v": 81
    },
    {
      "midi": 59,
      "hit": false,
      "t": 150240,
      "d": 352,
      "v": 73
    },
    {
      "midi": 59,
      "hit": false,
      "t": 150720,
      "d": 36,
      "v": 63
    },
    {
      "midi": 62,
      "hit": false,
      "t": 150720,
      "d": 60,
      "v": 73
    },
    {
      "midi": 66,
      "hit": false,
      "t": 150720,
      "d": 116,
      "v": 79
    },
    {
      "midi": 55,
      "hit": false,
      "t": 151200,
      "d": 76,
      "v": 105
    },
    {
      "midi": 50,
      "hit": false,
      "t": 151200,
      "d": 88,
      "v": 105
    },
    {
      "midi": 43,
      "hit": false,
      "t": 151200,
      "d": 104,
      "v": 109
    },
    {
      "midi": 59,
      "hit": false,
      "t": 151200,
      "d": 112,
      "v": 101
    },
    {
      "midi": 62,
      "hit": false,
      "t": 151200,
      "d": 164,
      "v": 103
    },
    {
      "midi": 66,
      "hit": false,
      "t": 151200,
      "d": 164,
      "v": 98
    },
    {
      "midi": 71,
      "hit": false,
      "t": 151200,
      "d": 192,
      "v": 101
    },
    {
      "midi": 47,
      "hit": false,
      "t": 152480,
      "d": 36,
      "v": 84
    },
    {
      "midi": 59,
      "hit": false,
      "t": 152480,
      "d": 52,
      "v": 91
    },
    {
      "midi": 54,
      "hit": false,
      "t": 152480,
      "d": 72,
      "v": 98
    },
    {
      "midi": 62,
      "hit": false,
      "t": 152480,
      "d": 80,
      "v": 96
    },
    {
      "midi": 66,
      "hit": false,
      "t": 152480,
      "d": 108,
      "v": 101
    },
    {
      "midi": 69,
      "hit": false,
      "t": 152480,
      "d": 108,
      "v": 98
    },
    {
      "midi": 69,
      "hit": false,
      "t": 152640,
      "d": 44,
      "v": 49
    },
    {
      "midi": 64,
      "hit": false,
      "t": 152640,
      "d": 360,
      "v": 95
    },
    {
      "midi": 67,
      "hit": false,
      "t": 152640,
      "d": 556,
      "v": 97
    },
    {
      "midi": 71,
      "hit": false,
      "t": 152640,
      "d": 652,
      "v": 88
    },
    {
      "midi": 48,
      "hit": false,
      "t": 152640,
      "d": 1156,
      "v": 104
    },
    {
      "midi": 55,
      "hit": false,
      "t": 152640,
      "d": 1164,
      "v": 101
    },
    {
      "midi": 60,
      "hit": false,
      "t": 152640,
      "d": 1168,
      "v": 106
    },
    {
      "midi": 64,
      "hit": false,
      "t": 153120,
      "d": 564,
      "v": 85
    },
    {
      "midi": 67,
      "hit": false,
      "t": 153600,
      "d": 96,
      "v": 93
    },
    {
      "midi": 71,
      "hit": false,
      "t": 153600,
      "d": 160,
      "v": 88
    },
    {
      "midi": 71,
      "hit": false,
      "t": 154080,
      "d": 352,
      "v": 96
    },
    {
      "midi": 67,
      "hit": false,
      "t": 154080,
      "d": 368,
      "v": 103
    },
    {
      "midi": 76,
      "hit": false,
      "t": 154080,
      "d": 464,
      "v": 102
    },
    {
      "midi": 60,
      "hit": false,
      "t": 154080,
      "d": 532,
      "v": 90
    },
    {
      "midi": 55,
      "hit": false,
      "t": 154080,
      "d": 676,
      "v": 93
    },
    {
      "midi": 67,
      "hit": false,
      "t": 154560,
      "d": 272,
      "v": 80
    },
    {
      "midi": 71,
      "hit": false,
      "t": 154560,
      "d": 372,
      "v": 75
    },
    {
      "midi": 64,
      "hit": false,
      "t": 155040,
      "d": 92,
      "v": 93
    },
    {
      "midi": 67,
      "hit": false,
      "t": 155040,
      "d": 96,
      "v": 101
    },
    {
      "midi": 62,
      "hit": false,
      "t": 155520,
      "d": 376,
      "v": 100
    },
    {
      "midi": 69,
      "hit": false,
      "t": 155520,
      "d": 440,
      "v": 100
    },
    {
      "midi": 66,
      "hit": false,
      "t": 155520,
      "d": 444,
      "v": 104
    },
    {
      "midi": 74,
      "hit": false,
      "t": 155520,
      "d": 480,
      "v": 101
    },
    {
      "midi": 47,
      "hit": false,
      "t": 155520,
      "d": 1236,
      "v": 81
    },
    {
      "midi": 59,
      "hit": false,
      "t": 155520,
      "d": 1560,
      "v": 85
    },
    {
      "midi": 54,
      "hit": false,
      "t": 155520,
      "d": 1612,
      "v": 88
    },
    {
      "midi": 62,
      "hit": false,
      "t": 156000,
      "d": 172,
      "v": 58
    },
    {
      "midi": 69,
      "hit": false,
      "t": 156000,
      "d": 248,
      "v": 47
    },
    {
      "midi": 66,
      "hit": false,
      "t": 156000,
      "d": 292,
      "v": 49
    },
    {
      "midi": 62,
      "hit": false,
      "t": 156480,
      "d": 172,
      "v": 64
    },
    {
      "midi": 69,
      "hit": false,
      "t": 156480,
      "d": 192,
      "v": 70
    },
    {
      "midi": 66,
      "hit": false,
      "t": 156480,
      "d": 224,
      "v": 67
    },
    {
      "midi": 62,
      "hit": false,
      "t": 156960,
      "d": 92,
      "v": 101
    },
    {
      "midi": 69,
      "hit": false,
      "t": 156960,
      "d": 128,
      "v": 108
    },
    {
      "midi": 66,
      "hit": false,
      "t": 156960,
      "d": 152,
      "v": 108
    },
    {
      "midi": 62,
      "hit": false,
      "t": 157440,
      "d": 72,
      "v": 78
    },
    {
      "midi": 69,
      "hit": false,
      "t": 157440,
      "d": 96,
      "v": 79
    },
    {
      "midi": 66,
      "hit": false,
      "t": 157440,
      "d": 136,
      "v": 77
    },
    {
      "midi": 61,
      "hit": false,
      "t": 157920,
      "d": 148,
      "v": 85
    },
    {
      "midi": 56,
      "hit": false,
      "t": 157920,
      "d": 184,
      "v": 85
    },
    {
      "midi": 46,
      "hit": false,
      "t": 157920,
      "d": 232,
      "v": 86
    },
    {
      "midi": 65,
      "hit": false,
      "t": 157920,
      "d": 276,
      "v": 95
    },
    {
      "midi": 73,
      "hit": false,
      "t": 157920,
      "d": 332,
      "v": 94
    },
    {
      "midi": 68,
      "hit": false,
      "t": 157920,
      "d": 400,
      "v": 95
    },
    {
      "midi": 64,
      "hit": false,
      "t": 158400,
      "d": 396,
      "v": 104
    },
    {
      "midi": 67,
      "hit": false,
      "t": 158400,
      "d": 624,
      "v": 105
    },
    {
      "midi": 72,
      "hit": false,
      "t": 158400,
      "d": 700,
      "v": 104
    },
    {
      "midi": 60,
      "hit": false,
      "t": 158400,
      "d": 1044,
      "v": 75
    },
    {
      "midi": 55,
      "hit": false,
      "t": 158400,
      "d": 1064,
      "v": 82
    },
    {
      "midi": 45,
      "hit": false,
      "t": 158400,
      "d": 2540,
      "v": 86
    },
    {
      "midi": 64,
      "hit": false,
      "t": 158880,
      "d": 108,
      "v": 74
    },
    {
      "midi": 64,
      "hit": false,
      "t": 159360,
      "d": 36,
      "v": 84
    },
    {
      "midi": 67,
      "hit": false,
      "t": 159360,
      "d": 60,
      "v": 72
    },
    {
      "midi": 72,
      "hit": false,
      "t": 159360,
      "d": 116,
      "v": 89
    },
    {
      "midi": 62,
      "hit": false,
      "t": 159840,
      "d": 504,
      "v": 100
    },
    {
      "midi": 67,
      "hit": false,
      "t": 159840,
      "d": 1004,
      "v": 101
    },
    {
      "midi": 55,
      "hit": false,
      "t": 159840,
      "d": 1052,
      "v": 93
    },
    {
      "midi": 64,
      "hit": false,
      "t": 160320,
      "d": 492,
      "v": 93
    },
    {
      "midi": 62,
      "hit": false,
      "t": 160800,
      "d": 72,
      "v": 92
    },
    {
      "midi": 66,
      "hit": false,
      "t": 161280,
      "d": 352,
      "v": 95
    },
    {
      "midi": 62,
      "hit": false,
      "t": 161280,
      "d": 356,
      "v": 98
    },
    {
      "midi": 71,
      "hit": false,
      "t": 161280,
      "d": 364,
      "v": 100
    },
    {
      "midi": 43,
      "hit": false,
      "t": 161280,
      "d": 1308,
      "v": 103
    },
    {
      "midi": 50,
      "hit": false,
      "t": 161280,
      "d": 1308,
      "v": 96
    },
    {
      "midi": 55,
      "hit": false,
      "t": 161280,
      "d": 1324,
      "v": 102
    },
    {
      "midi": 59,
      "hit": false,
      "t": 161280,
      "d": 1336,
      "v": 101
    },
    {
      "midi": 62,
      "hit": false,
      "t": 161760,
      "d": 288,
      "v": 96
    },
    {
      "midi": 66,
      "hit": false,
      "t": 161760,
      "d": 288,
      "v": 99
    },
    {
      "midi": 71,
      "hit": false,
      "t": 161760,
      "d": 304,
      "v": 101
    },
    {
      "midi": 71,
      "hit": false,
      "t": 162240,
      "d": 344,
      "v": 104
    },
    {
      "midi": 62,
      "hit": false,
      "t": 162240,
      "d": 356,
      "v": 102
    },
    {
      "midi": 66,
      "hit": false,
      "t": 162240,
      "d": 368,
      "v": 101
    },
    {
      "midi": 43,
      "hit": false,
      "t": 162720,
      "d": 352,
      "v": 107
    },
    {
      "midi": 62,
      "hit": false,
      "t": 162720,
      "d": 376,
      "v": 108
    },
    {
      "midi": 55,
      "hit": false,
      "t": 162720,
      "d": 380,
      "v": 108
    },
    {
      "midi": 59,
      "hit": false,
      "t": 162720,
      "d": 392,
      "v": 104
    },
    {
      "midi": 50,
      "hit": false,
      "t": 162720,
      "d": 396,
      "v": 107
    },
    {
      "midi": 66,
      "hit": false,
      "t": 162720,
      "d": 396,
      "v": 103
    },
    {
      "midi": 45,
      "hit": false,
      "t": 163200,
      "d": 364,
      "v": 109
    },
    {
      "midi": 57,
      "hit": false,
      "t": 163200,
      "d": 376,
      "v": 110
    },
    {
      "midi": 60,
      "hit": false,
      "t": 163200,
      "d": 380,
      "v": 107
    },
    {
      "midi": 66,
      "hit": false,
      "t": 163200,
      "d": 384,
      "v": 104
    },
    {
      "midi": 66,
      "hit": false,
      "t": 163680,
      "d": 264,
      "v": 103
    },
    {
      "midi": 62,
      "hit": false,
      "t": 163680,
      "d": 288,
      "v": 111
    },
    {
      "midi": 47,
      "hit": false,
      "t": 163680,
      "d": 320,
      "v": 108
    },
    {
      "midi": 59,
      "hit": false,
      "t": 163680,
      "d": 336,
      "v": 110
    },
    {
      "midi": 59,
      "hit": false,
      "t": 164160,
      "d": 396,
      "v": 99
    },
    {
      "midi": 64,
      "hit": false,
      "t": 164160,
      "d": 696,
      "v": 97
    },
    {
      "midi": 48,
      "hit": false,
      "t": 164160,
      "d": 816,
      "v": 99
    },
    {
      "midi": 71,
      "hit": false,
      "t": 164160,
      "d": 844,
      "v": 95
    },
    {
      "midi": 55,
      "hit": false,
      "t": 164160,
      "d": 864,
      "v": 88
    },
    {
      "midi": 67,
      "hit": false,
      "t": 164160,
      "d": 872,
      "v": 97
    },
    {
      "midi": 59,
      "hit": false,
      "t": 164640,
      "d": 384,
      "v": 76
    },
    {
      "midi": 64,
      "hit": false,
      "t": 165120,
      "d": 44,
      "v": 92
    },
    {
      "midi": 71,
      "hit": false,
      "t": 165120,
      "d": 44,
      "v": 75
    },
    {
      "midi": 67,
      "hit": false,
      "t": 165120,
      "d": 92,
      "v": 87
    },
    {
      "midi": 62,
      "hit": false,
      "t": 165600,
      "d": 480,
      "v": 87
    },
    {
      "midi": 67,
      "hit": false,
      "t": 165600,
      "d": 644,
      "v": 97
    },
    {
      "midi": 74,
      "hit": false,
      "t": 165600,
      "d": 708,
      "v": 92
    },
    {
      "midi": 71,
      "hit": false,
      "t": 165600,
      "d": 712,
      "v": 86
    },
    {
      "midi": 60,
      "hit": false,
      "t": 165600,
      "d": 976,
      "v": 89
    },
    {
      "midi": 55,
      "hit": false,
      "t": 165600,
      "d": 1016,
      "v": 93
    },
    {
      "midi": 62,
      "hit": false,
      "t": 166080,
      "d": 192,
      "v": 53
    },
    {
      "midi": 67,
      "hit": false,
      "t": 166560,
      "d": 356,
      "v": 106
    },
    {
      "midi": 71,
      "hit": false,
      "t": 166560,
      "d": 512,
      "v": 104
    },
    {
      "midi": 66,
      "hit": false,
      "t": 167040,
      "d": 696,
      "v": 97
    },
    {
      "midi": 69,
      "hit": false,
      "t": 167040,
      "d": 696,
      "v": 93
    },
    {
      "midi": 62,
      "hit": false,
      "t": 167040,
      "d": 744,
      "v": 87
    },
    {
      "midi": 47,
      "hit": false,
      "t": 167040,
      "d": 924,
      "v": 78
    },
    {
      "midi": 54,
      "hit": false,
      "t": 167040,
      "d": 980,
      "v": 85
    },
    {
      "midi": 59,
      "hit": false,
      "t": 167040,
      "d": 992,
      "v": 79
    },
    {
      "midi": 62,
      "hit": false,
      "t": 168000,
      "d": 104,
      "v": 81
    },
    {
      "midi": 66,
      "hit": false,
      "t": 168000,
      "d": 140,
      "v": 84
    },
    {
      "midi": 69,
      "hit": false,
      "t": 168000,
      "d": 140,
      "v": 86
    },
    {
      "midi": 54,
      "hit": false,
      "t": 168320,
      "d": 212,
      "v": 79
    },
    {
      "midi": 57,
      "hit": false,
      "t": 168480,
      "d": 232,
      "v": 98
    },
    {
      "midi": 66,
      "hit": false,
      "t": 168480,
      "d": 552,
      "v": 101
    },
    {
      "midi": 74,
      "hit": false,
      "t": 168480,
      "d": 996,
      "v": 105
    },
    {
      "midi": 62,
      "hit": false,
      "t": 168480,
      "d": 1012,
      "v": 93
    },
    {
      "midi": 69,
      "hit": false,
      "t": 168960,
      "d": 524,
      "v": 95
    },
    {
      "midi": 66,
      "hit": false,
      "t": 169440,
      "d": 96,
      "v": 98
    },
    {
      "midi": 45,
      "hit": false,
      "t": 169760,
      "d": 2032,
      "v": 71
    },
    {
      "midi": 64,
      "hit": false,
      "t": 169920,
      "d": 380,
      "v": 100
    },
    {
      "midi": 60,
      "hit": false,
      "t": 169920,
      "d": 452,
      "v": 83
    },
    {
      "midi": 67,
      "hit": false,
      "t": 169920,
      "d": 504,
      "v": 106
    },
    {
      "midi": 72,
      "hit": false,
      "t": 169920,
      "d": 672,
      "v": 105
    },
    {
      "midi": 52,
      "hit": false,
      "t": 169920,
      "d": 1144,
      "v": 81
    },
    {
      "midi": 64,
      "hit": false,
      "t": 170400,
      "d": 124,
      "v": 78
    },
    {
      "midi": 64,
      "hit": false,
      "t": 170880,
      "d": 92,
      "v": 86
    },
    {
      "midi": 67,
      "hit": false,
      "t": 170880,
      "d": 132,
      "v": 89
    },
    {
      "midi": 52,
      "hit": false,
      "t": 171200,
      "d": 1108,
      "v": 87
    },
    {
      "midi": 60,
      "hit": false,
      "t": 171360,
      "d": 432,
      "v": 98
    },
    {
      "midi": 64,
      "hit": false,
      "t": 171360,
      "d": 816,
      "v": 101
    },
    {
      "midi": 57,
      "hit": false,
      "t": 171360,
      "d": 884,
      "v": 95
    },
    {
      "midi": 60,
      "hit": false,
      "t": 171840,
      "d": 212,
      "v": 57
    },
    {
      "midi": 67,
      "hit": false,
      "t": 171840,
      "d": 320,
      "v": 89
    },
    {
      "midi": 67,
      "hit": false,
      "t": 172320,
      "d": 184,
      "v": 106
    },
    {
      "midi": 72,
      "hit": false,
      "t": 172320,
      "d": 216,
      "v": 105
    },
    {
      "midi": 62,
      "hit": false,
      "t": 172800,
      "d": 636,
      "v": 100
    },
    {
      "midi": 66,
      "hit": false,
      "t": 172800,
      "d": 684,
      "v": 102
    },
    {
      "midi": 71,
      "hit": false,
      "t": 172800,
      "d": 936,
      "v": 97
    },
    {
      "midi": 55,
      "hit": false,
      "t": 172800,
      "d": 1080,
      "v": 81
    },
    {
      "midi": 50,
      "hit": false,
      "t": 172800,
      "d": 1092,
      "v": 84
    },
    {
      "midi": 43,
      "hit": false,
      "t": 172800,
      "d": 1148,
      "v": 81
    },
    {
      "midi": 59,
      "hit": false,
      "t": 173280,
      "d": 352,
      "v": 73
    },
    {
      "midi": 59,
      "hit": false,
      "t": 173760,
      "d": 36,
      "v": 63
    },
    {
      "midi": 62,
      "hit": false,
      "t": 173760,
      "d": 60,
      "v": 73
    },
    {
      "midi": 66,
      "hit": false,
      "t": 173760,
      "d": 116,
      "v": 79
    },
    {
      "midi": 55,
      "hit": false,
      "t": 174240,
      "d": 76,
      "v": 105
    },
    {
      "midi": 50,
      "hit": false,
      "t": 174240,
      "d": 88,
      "v": 105
    },
    {
      "midi": 43,
      "hit": false,
      "t": 174240,
      "d": 104,
      "v": 109
    },
    {
      "midi": 59,
      "hit": false,
      "t": 174240,
      "d": 112,
      "v": 101
    },
    {
      "midi": 62,
      "hit": false,
      "t": 174240,
      "d": 164,
      "v": 103
    },
    {
      "midi": 66,
      "hit": false,
      "t": 174240,
      "d": 164,
      "v": 98
    },
    {
      "midi": 71,
      "hit": false,
      "t": 174240,
      "d": 192,
      "v": 101
    },
    {
      "midi": 47,
      "hit": false,
      "t": 175520,
      "d": 36,
      "v": 84
    },
    {
      "midi": 59,
      "hit": false,
      "t": 175520,
      "d": 52,
      "v": 91
    },
    {
      "midi": 54,
      "hit": false,
      "t": 175520,
      "d": 72,
      "v": 98
    },
    {
      "midi": 62,
      "hit": false,
      "t": 175520,
      "d": 80,
      "v": 96
    },
    {
      "midi": 66,
      "hit": false,
      "t": 175520,
      "d": 108,
      "v": 101
    },
    {
      "midi": 69,
      "hit": false,
      "t": 175520,
      "d": 108,
      "v": 98
    },
    {
      "midi": 69,
      "hit": false,
      "t": 175680,
      "d": 44,
      "v": 49
    },
    {
      "midi": 64,
      "hit": false,
      "t": 175680,
      "d": 360,
      "v": 95
    },
    {
      "midi": 67,
      "hit": false,
      "t": 175680,
      "d": 556,
      "v": 97
    },
    {
      "midi": 71,
      "hit": false,
      "t": 175680,
      "d": 652,
      "v": 88
    },
    {
      "midi": 48,
      "hit": false,
      "t": 175680,
      "d": 1156,
      "v": 104
    },
    {
      "midi": 55,
      "hit": false,
      "t": 175680,
      "d": 1164,
      "v": 101
    },
    {
      "midi": 60,
      "hit": false,
      "t": 175680,
      "d": 1168,
      "v": 106
    },
    {
      "midi": 64,
      "hit": false,
      "t": 176160,
      "d": 564,
      "v": 85
    },
    {
      "midi": 67,
      "hit": false,
      "t": 176640,
      "d": 96,
      "v": 93
    },
    {
      "midi": 71,
      "hit": false,
      "t": 176640,
      "d": 160,
      "v": 88
    },
    {
      "midi": 71,
      "hit": false,
      "t": 177120,
      "d": 352,
      "v": 96
    },
    {
      "midi": 67,
      "hit": false,
      "t": 177120,
      "d": 368,
      "v": 103
    },
    {
      "midi": 76,
      "hit": false,
      "t": 177120,
      "d": 464,
      "v": 102
    },
    {
      "midi": 60,
      "hit": false,
      "t": 177120,
      "d": 532,
      "v": 90
    },
    {
      "midi": 55,
      "hit": false,
      "t": 177120,
      "d": 676,
      "v": 93
    },
    {
      "midi": 67,
      "hit": false,
      "t": 177600,
      "d": 272,
      "v": 80
    },
    {
      "midi": 71,
      "hit": false,
      "t": 177600,
      "d": 372,
      "v": 75
    },
    {
      "midi": 64,
      "hit": false,
      "t": 178080,
      "d": 92,
      "v": 93
    },
    {
      "midi": 67,
      "hit": false,
      "t": 178080,
      "d": 96,
      "v": 101
    },
    {
      "midi": 62,
      "hit": false,
      "t": 178560,
      "d": 376,
      "v": 100
    },
    {
      "midi": 69,
      "hit": false,
      "t": 178560,
      "d": 440,
      "v": 100
    },
    {
      "midi": 66,
      "hit": false,
      "t": 178560,
      "d": 444,
      "v": 104
    },
    {
      "midi": 74,
      "hit": false,
      "t": 178560,
      "d": 480,
      "v": 101
    },
    {
      "midi": 47,
      "hit": false,
      "t": 178560,
      "d": 1236,
      "v": 81
    },
    {
      "midi": 59,
      "hit": false,
      "t": 178560,
      "d": 1560,
      "v": 85
    },
    {
      "midi": 54,
      "hit": false,
      "t": 178560,
      "d": 1612,
      "v": 88
    },
    {
      "midi": 62,
      "hit": false,
      "t": 179040,
      "d": 172,
      "v": 58
    },
    {
      "midi": 69,
      "hit": false,
      "t": 179040,
      "d": 248,
      "v": 47
    },
    {
      "midi": 66,
      "hit": false,
      "t": 179040,
      "d": 292,
      "v": 49
    },
    {
      "midi": 62,
      "hit": false,
      "t": 179520,
      "d": 172,
      "v": 64
    },
    {
      "midi": 69,
      "hit": false,
      "t": 179520,
      "d": 192,
      "v": 70
    },
    {
      "midi": 66,
      "hit": false,
      "t": 179520,
      "d": 224,
      "v": 67
    },
    {
      "midi": 62,
      "hit": false,
      "t": 180000,
      "d": 92,
      "v": 101
    },
    {
      "midi": 69,
      "hit": false,
      "t": 180000,
      "d": 128,
      "v": 108
    },
    {
      "midi": 66,
      "hit": false,
      "t": 180000,
      "d": 152,
      "v": 108
    },
    {
      "midi": 62,
      "hit": false,
      "t": 180480,
      "d": 72,
      "v": 78
    },
    {
      "midi": 69,
      "hit": false,
      "t": 180480,
      "d": 96,
      "v": 79
    },
    {
      "midi": 66,
      "hit": false,
      "t": 180480,
      "d": 136,
      "v": 77
    },
    {
      "midi": 61,
      "hit": false,
      "t": 180960,
      "d": 148,
      "v": 85
    },
    {
      "midi": 56,
      "hit": false,
      "t": 180960,
      "d": 184,
      "v": 85
    },
    {
      "midi": 46,
      "hit": false,
      "t": 180960,
      "d": 232,
      "v": 86
    },
    {
      "midi": 65,
      "hit": false,
      "t": 180960,
      "d": 276,
      "v": 95
    },
    {
      "midi": 73,
      "hit": false,
      "t": 180960,
      "d": 332,
      "v": 94
    },
    {
      "midi": 68,
      "hit": false,
      "t": 180960,
      "d": 400,
      "v": 95
    },
    {
      "midi": 64,
      "hit": false,
      "t": 181440,
      "d": 396,
      "v": 104
    },
    {
      "midi": 67,
      "hit": false,
      "t": 181440,
      "d": 624,
      "v": 105
    },
    {
      "midi": 72,
      "hit": false,
      "t": 181440,
      "d": 700,
      "v": 104
    },
    {
      "midi": 60,
      "hit": false,
      "t": 181440,
      "d": 1044,
      "v": 75
    },
    {
      "midi": 55,
      "hit": false,
      "t": 181440,
      "d": 1064,
      "v": 82
    },
    {
      "midi": 45,
      "hit": false,
      "t": 181440,
      "d": 2540,
      "v": 86
    },
    {
      "midi": 64,
      "hit": false,
      "t": 181920,
      "d": 108,
      "v": 74
    },
    {
      "midi": 64,
      "hit": false,
      "t": 182400,
      "d": 36,
      "v": 84
    },
    {
      "midi": 67,
      "hit": false,
      "t": 182400,
      "d": 60,
      "v": 72
    },
    {
      "midi": 72,
      "hit": false,
      "t": 182400,
      "d": 116,
      "v": 89
    },
    {
      "midi": 62,
      "hit": false,
      "t": 182880,
      "d": 504,
      "v": 100
    },
    {
      "midi": 67,
      "hit": false,
      "t": 182880,
      "d": 1004,
      "v": 101
    },
    {
      "midi": 55,
      "hit": false,
      "t": 182880,
      "d": 1052,
      "v": 93
    },
    {
      "midi": 64,
      "hit": false,
      "t": 183360,
      "d": 492,
      "v": 93
    },
    {
      "midi": 62,
      "hit": false,
      "t": 183840,
      "d": 72,
      "v": 92
    },
    {
      "midi": 62,
      "hit": false,
      "t": 184320,
      "d": 380,
      "v": 96
    },
    {
      "midi": 66,
      "hit": false,
      "t": 184320,
      "d": 628,
      "v": 103
    },
    {
      "midi": 71,
      "hit": false,
      "t": 184320,
      "d": 652,
      "v": 93
    },
    {
      "midi": 74,
      "hit": false,
      "t": 184320,
      "d": 684,
      "v": 102
    },
    {
      "midi": 43,
      "hit": false,
      "t": 184320,
      "d": 1084,
      "v": 85
    },
    {
      "midi": 50,
      "hit": false,
      "t": 184320,
      "d": 1124,
      "v": 89
    },
    {
      "midi": 55,
      "hit": false,
      "t": 184320,
      "d": 1124,
      "v": 88
    },
    {
      "midi": 62,
      "hit": false,
      "t": 184800,
      "d": 620,
      "v": 80
    },
    {
      "midi": 74,
      "hit": false,
      "t": 185280,
      "d": 124,
      "v": 79
    },
    {
      "midi": 71,
      "hit": false,
      "t": 185280,
      "d": 136,
      "v": 72
    },
    {
      "midi": 66,
      "hit": false,
      "t": 185280,
      "d": 144,
      "v": 82
    },
    {
      "midi": 55,
      "hit": false,
      "t": 185760,
      "d": 236,
      "v": 92
    },
    {
      "midi": 62,
      "hit": false,
      "t": 185760,
      "d": 244,
      "v": 101
    },
    {
      "midi": 66,
      "hit": false,
      "t": 185760,
      "d": 256,
      "v": 108
    },
    {
      "midi": 50,
      "hit": false,
      "t": 185760,
      "d": 276,
      "v": 91
    },
    {
      "midi": 71,
      "hit": false,
      "t": 185760,
      "d": 276,
      "v": 99
    },
    {
      "midi": 74,
      "hit": false,
      "t": 185760,
      "d": 276,
      "v": 104
    },
    {
      "midi": 43,
      "hit": false,
      "t": 185760,
      "d": 300,
      "v": 97
    },
    {
      "midi": 76,
      "hit": false,
      "t": 187200,
      "d": 184,
      "v": 77
    },
    {
      "midi": 60,
      "hit": false,
      "t": 187200,
      "d": 364,
      "v": 46
    },
    {
      "midi": 55,
      "hit": false,
      "t": 187200,
      "d": 2324,
      "v": 55
    },
    {
      "midi": 48,
      "hit": false,
      "t": 187200,
      "d": 2368,
      "v": 54
    },
    {
      "midi": 71,
      "hit": false,
      "t": 187360,
      "d": 220,
      "v": 65
    },
    {
      "midi": 67,
      "hit": false,
      "t": 187520,
      "d": 84,
      "v": 64
    },
    {
      "midi": 76,
      "hit": false,
      "t": 187680,
      "d": 204,
      "v": 81
    },
    {
      "midi": 71,
      "hit": false,
      "t": 187840,
      "d": 208,
      "v": 72
    },
    {
      "midi": 67,
      "hit": false,
      "t": 188000,
      "d": 104,
      "v": 78
    },
    {
      "midi": 76,
      "hit": false,
      "t": 188160,
      "d": 156,
      "v": 85
    },
    {
      "midi": 71,
      "hit": false,
      "t": 188320,
      "d": 200,
      "v": 75
    },
    {
      "midi": 67,
      "hit": false,
      "t": 188480,
      "d": 88,
      "v": 77
    },
    {
      "midi": 76,
      "hit": false,
      "t": 188640,
      "d": 160,
      "v": 88
    },
    {
      "midi": 71,
      "hit": false,
      "t": 188800,
      "d": 216,
      "v": 76
    },
    {
      "midi": 67,
      "hit": false,
      "t": 188960,
      "d": 100,
      "v": 76
    },
    {
      "midi": 76,
      "hit": false,
      "t": 189120,
      "d": 168,
      "v": 90
    },
    {
      "midi": 71,
      "hit": false,
      "t": 189280,
      "d": 216,
      "v": 73
    },
    {
      "midi": 67,
      "hit": false,
      "t": 189440,
      "d": 116,
      "v": 73
    },
    {
      "midi": 76,
      "hit": false,
      "t": 189600,
      "d": 172,
      "v": 90
    },
    {
      "midi": 71,
      "hit": false,
      "t": 189760,
      "d": 204,
      "v": 73
    },
    {
      "midi": 67,
      "hit": false,
      "t": 189920,
      "d": 84,
      "v": 78
    },
    {
      "midi": 74,
      "hit": false,
      "t": 190080,
      "d": 236,
      "v": 86
    },
    {
      "midi": 59,
      "hit": false,
      "t": 190080,
      "d": 2488,
      "v": 51
    },
    {
      "midi": 54,
      "hit": false,
      "t": 190080,
      "d": 2572,
      "v": 59
    },
    {
      "midi": 47,
      "hit": false,
      "t": 190080,
      "d": 2596,
      "v": 55
    },
    {
      "midi": 69,
      "hit": false,
      "t": 190240,
      "d": 208,
      "v": 74
    },
    {
      "midi": 66,
      "hit": false,
      "t": 190400,
      "d": 144,
      "v": 75
    },
    {
      "midi": 74,
      "hit": false,
      "t": 190560,
      "d": 188,
      "v": 93
    },
    {
      "midi": 69,
      "hit": false,
      "t": 190720,
      "d": 216,
      "v": 79
    },
    {
      "midi": 66,
      "hit": false,
      "t": 190880,
      "d": 124,
      "v": 81
    },
    {
      "midi": 74,
      "hit": false,
      "t": 191040,
      "d": 184,
      "v": 93
    },
    {
      "midi": 69,
      "hit": false,
      "t": 191200,
      "d": 200,
      "v": 83
    },
    {
      "midi": 66,
      "hit": false,
      "t": 191360,
      "d": 136,
      "v": 82
    },
    {
      "midi": 74,
      "hit": false,
      "t": 191520,
      "d": 172,
      "v": 85
    },
    {
      "midi": 69,
      "hit": false,
      "t": 191680,
      "d": 196,
      "v": 78
    },
    {
      "midi": 66,
      "hit": false,
      "t": 191840,
      "d": 136,
      "v": 81
    },
    {
      "midi": 74,
      "hit": false,
      "t": 192000,
      "d": 172,
      "v": 92
    },
    {
      "midi": 69,
      "hit": false,
      "t": 192160,
      "d": 192,
      "v": 81
    },
    {
      "midi": 66,
      "hit": false,
      "t": 192320,
      "d": 140,
      "v": 82
    },
    {
      "midi": 74,
      "hit": false,
      "t": 192480,
      "d": 204,
      "v": 89
    },
    {
      "midi": 69,
      "hit": false,
      "t": 192640,
      "d": 176,
      "v": 74
    },
    {
      "midi": 66,
      "hit": false,
      "t": 192800,
      "d": 136,
      "v": 81
    },
    {
      "midi": 72,
      "hit": false,
      "t": 192960,
      "d": 216,
      "v": 86
    },
    {
      "midi": 57,
      "hit": false,
      "t": 192960,
      "d": 2456,
      "v": 49
    },
    {
      "midi": 52,
      "hit": false,
      "t": 192960,
      "d": 2504,
      "v": 57
    },
    {
      "midi": 45,
      "hit": false,
      "t": 192960,
      "d": 2552,
      "v": 53
    },
    {
      "midi": 67,
      "hit": false,
      "t": 193120,
      "d": 204,
      "v": 79
    },
    {
      "midi": 64,
      "hit": false,
      "t": 193280,
      "d": 116,
      "v": 79
    },
    {
      "midi": 72,
      "hit": false,
      "t": 193440,
      "d": 180,
      "v": 90
    },
    {
      "midi": 67,
      "hit": false,
      "t": 193600,
      "d": 188,
      "v": 81
    },
    {
      "midi": 64,
      "hit": false,
      "t": 193760,
      "d": 136,
      "v": 78
    },
    {
      "midi": 72,
      "hit": false,
      "t": 193920,
      "d": 176,
      "v": 91
    },
    {
      "midi": 67,
      "hit": false,
      "t": 194080,
      "d": 212,
      "v": 82
    },
    {
      "midi": 64,
      "hit": false,
      "t": 194240,
      "d": 92,
      "v": 76
    },
    {
      "midi": 72,
      "hit": false,
      "t": 194400,
      "d": 184,
      "v": 91
    },
    {
      "midi": 67,
      "hit": false,
      "t": 194560,
      "d": 196,
      "v": 83
    },
    {
      "midi": 64,
      "hit": false,
      "t": 194720,
      "d": 104,
      "v": 78
    },
    {
      "midi": 72,
      "hit": false,
      "t": 194880,
      "d": 184,
      "v": 88
    },
    {
      "midi": 67,
      "hit": false,
      "t": 195040,
      "d": 192,
      "v": 80
    },
    {
      "midi": 64,
      "hit": false,
      "t": 195200,
      "d": 116,
      "v": 81
    },
    {
      "midi": 72,
      "hit": false,
      "t": 195360,
      "d": 184,
      "v": 95
    },
    {
      "midi": 67,
      "hit": false,
      "t": 195520,
      "d": 196,
      "v": 78
    },
    {
      "midi": 64,
      "hit": false,
      "t": 195680,
      "d": 92,
      "v": 78
    },
    {
      "midi": 71,
      "hit": false,
      "t": 195840,
      "d": 236,
      "v": 85
    },
    {
      "midi": 55,
      "hit": false,
      "t": 195840,
      "d": 1212,
      "v": 53
    },
    {
      "midi": 43,
      "hit": false,
      "t": 195840,
      "d": 1236,
      "v": 58
    },
    {
      "midi": 50,
      "hit": false,
      "t": 195840,
      "d": 1296,
      "v": 57
    },
    {
      "midi": 66,
      "hit": false,
      "t": 196000,
      "d": 216,
      "v": 83
    },
    {
      "midi": 62,
      "hit": false,
      "t": 196160,
      "d": 100,
      "v": 73
    },
    {
      "midi": 71,
      "hit": false,
      "t": 196320,
      "d": 204,
      "v": 89
    },
    {
      "midi": 66,
      "hit": false,
      "t": 196480,
      "d": 200,
      "v": 84
    },
    {
      "midi": 62,
      "hit": false,
      "t": 196640,
      "d": 136,
      "v": 80
    },
    {
      "midi": 71,
      "hit": false,
      "t": 196800,
      "d": 192,
      "v": 84
    },
    {
      "midi": 66,
      "hit": false,
      "t": 196960,
      "d": 164,
      "v": 77
    },
    {
      "midi": 62,
      "hit": false,
      "t": 197120,
      "d": 68,
      "v": 78
    },
    {
      "midi": 71,
      "hit": false,
      "t": 197280,
      "d": 224,
      "v": 97
    },
    {
      "midi": 43,
      "hit": false,
      "t": 197280,
      "d": 304,
      "v": 76
    },
    {
      "midi": 50,
      "hit": false,
      "t": 197280,
      "d": 324,
      "v": 67
    },
    {
      "midi": 55,
      "hit": false,
      "t": 197280,
      "d": 336,
      "v": 64
    },
    {
      "midi": 67,
      "hit": false,
      "t": 197440,
      "d": 104,
      "v": 81
    },
    {
      "midi": 71,
      "hit": false,
      "t": 197600,
      "d": 72,
      "v": 70
    },
    {
      "midi": 72,
      "hit": false,
      "t": 197760,
      "d": 176,
      "v": 88
    },
    {
      "midi": 45,
      "hit": false,
      "t": 197760,
      "d": 352,
      "v": 78
    },
    {
      "midi": 57,
      "hit": false,
      "t": 197760,
      "d": 360,
      "v": 71
    },
    {
      "midi": 67,
      "hit": false,
      "t": 197920,
      "d": 172,
      "v": 80
    },
    {
      "midi": 72,
      "hit": false,
      "t": 198080,
      "d": 88,
      "v": 80
    },
    {
      "midi": 74,
      "hit": false,
      "t": 198240,
      "d": 232,
      "v": 97
    },
    {
      "midi": 59,
      "hit": false,
      "t": 198240,
      "d": 276,
      "v": 78
    },
    {
      "midi": 47,
      "hit": false,
      "t": 198240,
      "d": 300,
      "v": 84
    },
    {
      "midi": 67,
      "hit": false,
      "t": 198400,
      "d": 184,
      "v": 86
    },
    {
      "midi": 74,
      "hit": false,
      "t": 198560,
      "d": 108,
      "v": 89
    },
    {
      "midi": 76,
      "hit": false,
      "t": 198720,
      "d": 244,
      "v": 82
    },
    {
      "midi": 60,
      "hit": false,
      "t": 198720,
      "d": 788,
      "v": 63
    },
    {
      "midi": 55,
      "hit": false,
      "t": 198720,
      "d": 2504,
      "v": 68
    },
    {
      "midi": 48,
      "hit": false,
      "t": 198720,
      "d": 2544,
      "v": 67
    },
    {
      "midi": 71,
      "hit": false,
      "t": 198880,
      "d": 216,
      "v": 78
    },
    {
      "midi": 67,
      "hit": false,
      "t": 199040,
      "d": 132,
      "v": 81
    },
    {
      "midi": 76,
      "hit": false,
      "t": 199200,
      "d": 184,
      "v": 89
    },
    {
      "midi": 71,
      "hit": false,
      "t": 199360,
      "d": 204,
      "v": 78
    },
    {
      "midi": 67,
      "hit": false,
      "t": 199520,
      "d": 132,
      "v": 76
    },
    {
      "midi": 76,
      "hit": false,
      "t": 199680,
      "d": 176,
      "v": 91
    },
    {
      "midi": 71,
      "hit": false,
      "t": 199840,
      "d": 212,
      "v": 77
    },
    {
      "midi": 67,
      "hit": false,
      "t": 200000,
      "d": 120,
      "v": 74
    },
    {
      "midi": 60,
      "hit": false,
      "t": 200160,
      "d": 124,
      "v": 59
    },
    {
      "midi": 76,
      "hit": false,
      "t": 200160,
      "d": 176,
      "v": 88
    },
    {
      "midi": 71,
      "hit": false,
      "t": 200320,
      "d": 212,
      "v": 74
    },
    {
      "midi": 67,
      "hit": false,
      "t": 200480,
      "d": 108,
      "v": 78
    },
    {
      "midi": 76,
      "hit": false,
      "t": 200640,
      "d": 176,
      "v": 90
    },
    {
      "midi": 71,
      "hit": false,
      "t": 200800,
      "d": 236,
      "v": 72
    },
    {
      "midi": 67,
      "hit": false,
      "t": 200960,
      "d": 116,
      "v": 82
    },
    {
      "midi": 76,
      "hit": false,
      "t": 201120,
      "d": 196,
      "v": 90
    },
    {
      "midi": 71,
      "hit": false,
      "t": 201280,
      "d": 216,
      "v": 76
    },
    {
      "midi": 67,
      "hit": false,
      "t": 201440,
      "d": 104,
      "v": 76
    },
    {
      "midi": 74,
      "hit": false,
      "t": 201600,
      "d": 228,
      "v": 92
    },
    {
      "midi": 59,
      "hit": false,
      "t": 201600,
      "d": 304,
      "v": 51
    },
    {
      "midi": 47,
      "hit": false,
      "t": 201600,
      "d": 1952,
      "v": 56
    },
    {
      "midi": 54,
      "hit": false,
      "t": 201600,
      "d": 1980,
      "v": 62
    },
    {
      "midi": 69,
      "hit": false,
      "t": 201760,
      "d": 200,
      "v": 78
    },
    {
      "midi": 66,
      "hit": false,
      "t": 201920,
      "d": 160,
      "v": 82
    },
    {
      "midi": 74,
      "hit": false,
      "t": 202080,
      "d": 172,
      "v": 87
    },
    {
      "midi": 69,
      "hit": false,
      "t": 202240,
      "d": 200,
      "v": 84
    },
    {
      "midi": 66,
      "hit": false,
      "t": 202400,
      "d": 136,
      "v": 83
    },
    {
      "midi": 74,
      "hit": false,
      "t": 202560,
      "d": 168,
      "v": 95
    },
    {
      "midi": 69,
      "hit": false,
      "t": 202720,
      "d": 220,
      "v": 75
    },
    {
      "midi": 66,
      "hit": false,
      "t": 202880,
      "d": 128,
      "v": 76
    },
    {
      "midi": 59,
      "hit": false,
      "t": 203040,
      "d": 92,
      "v": 48
    },
    {
      "midi": 74,
      "hit": false,
      "t": 203040,
      "d": 180,
      "v": 95
    },
    {
      "midi": 69,
      "hit": false,
      "t": 203200,
      "d": 196,
      "v": 78
    },
    {
      "midi": 66,
      "hit": false,
      "t": 203360,
      "d": 148,
      "v": 73
    },
    {
      "midi": 74,
      "hit": false,
      "t": 203520,
      "d": 168,
      "v": 89
    },
    {
      "midi": 69,
      "hit": false,
      "t": 203680,
      "d": 172,
      "v": 78
    },
    {
      "midi": 66,
      "hit": false,
      "t": 203840,
      "d": 96,
      "v": 80
    },
    {
      "midi": 61,
      "hit": false,
      "t": 204000,
      "d": 112,
      "v": 58
    },
    {
      "midi": 56,
      "hit": false,
      "t": 204000,
      "d": 196,
      "v": 65
    },
    {
      "midi": 73,
      "hit": false,
      "t": 204000,
      "d": 240,
      "v": 93
    },
    {
      "midi": 46,
      "hit": false,
      "t": 204000,
      "d": 260,
      "v": 69
    },
    {
      "midi": 68,
      "hit": false,
      "t": 204160,
      "d": 132,
      "v": 77
    },
    {
      "midi": 65,
      "hit": false,
      "t": 204320,
      "d": 96,
      "v": 85
    },
    {
      "midi": 45,
      "hit": false,
      "t": 204488,
      "d": 3288,
      "v": 65
    },
    {
      "midi": 72,
      "hit": false,
      "t": 204500,
      "d": 436,
      "v": 91
    },
    {
      "midi": 60,
      "hit": false,
      "t": 204500,
      "d": 1912,
      "v": 89
    },
    {
      "midi": 57,
      "hit": false,
      "t": 204504,
      "d": 3220,
      "v": 70
    },
    {
      "midi": 52,
      "hit": false,
      "t": 204504,
      "d": 3232,
      "v": 73
    },
    {
      "midi": 67,
      "hit": false,
      "t": 204708,
      "d": 388,
      "v": 82
    },
    {
      "midi": 64,
      "hit": false,
      "t": 204872,
      "d": 204,
      "v": 77
    },
    {
      "midi": 72,
      "hit": false,
      "t": 205080,
      "d": 492,
      "v": 93
    },
    {
      "midi": 67,
      "hit": false,
      "t": 205272,
      "d": 488,
      "v": 77
    },
    {
      "midi": 64,
      "hit": false,
      "t": 205480,
      "d": 268,
      "v": 77
    },
    {
      "midi": 72,
      "hit": false,
      "t": 205728,
      "d": 616,
      "v": 95
    },
    {
      "midi": 67,
      "hit": false,
      "t": 205992,
      "d": 1896,
      "v": 80
    },
    {
      "midi": 64,
      "hit": false,
      "t": 206212,
      "d": 472,
      "v": 79
    },
    {
      "midi": 60,
      "hit": false,
      "t": 206540,
      "d": 1308,
      "v": 82
    },
    {
      "midi": 43,
      "hit": false,
      "t": 208604,
      "d": 1324,
      "v": 74
    },
    {
      "midi": 59,
      "hit": false,
      "t": 208648,
      "d": 980,
      "v": 68
    },
    {
      "midi": 50,
      "hit": false,
      "t": 208652,
      "d": 1224,
      "v": 78
    },
    {
      "midi": 62,
      "hit": false,
      "t": 208672,
      "d": 1076,
      "v": 79
    },
    {
      "midi": 55,
      "hit": false,
      "t": 208700,
      "d": 1168,
      "v": 65
    },
    {
      "midi": 66,
      "hit": false,
      "t": 208744,
      "d": 1012,
      "v": 79
    },
    {
      "midi": 71,
      "hit": false,
      "t": 208816,
      "d": 964,
      "v": 79
    },
    {
      "midi": 74,
      "hit": false,
      "t": 210908,
      "d": 284,
      "v": 50
    },
    {
      "midi": 75,
      "hit": false,
      "t": 211196,
      "d": 112,
      "v": 70
    },
    {
      "midi": 76,
      "hit": false,
      "t": 211452,
      "d": 64,
      "v": 69
    },
    {
      "midi": 77,
      "hit": false,
      "t": 211732,
      "d": 64,
      "v": 59
    },
    {
      "midi": 78,
      "hit": false,
      "t": 212004,
      "d": 320,
      "v": 62
    },
    {
      "midi": 79,
      "hit": false,
      "t": 212332,
      "d": 316,
      "v": 71
    },
    {
      "midi": 81,
      "hit": false,
      "t": 212688,
      "d": 396,
      "v": 74
    },
    {
      "midi": 82,
      "hit": false,
      "t": 213092,
      "d": 544,
      "v": 62
    },
    {
      "midi": 83,
      "hit": false,
      "t": 213652,
      "d": 2816,
      "v": 73
    },
    {
      "midi": 43,
      "hit": false,
      "t": 215440,
      "d": 76,
      "v": 78
    }
  ]
}