{
  "jsonPath": "Unknown/Unknown/Gram Parsons  Emmylou Harris/brand-new-heartache.json",
  "path": "Unknown\\Unknown\\Gram Parsons  Emmylou Harris\\Brand New Heartache.mid",
  "name": "Brand New Heartache",
  "difficulty": "Advanced",
  "bpm": 120,
  "notes": [
    {
      "midi": 76,
      "hit": false,
      "t": 4852.619999999999,
      "d": 139.28816666666626,
      "v": 71
    },
    {
      "midi": 71,
      "hit": false,
      "t": 4852.619999999999,
      "d": 278.5763333333334,
      "v": 59
    },
    {
      "midi": 68,
      "hit": false,
      "t": 4852.619999999999,
      "d": 386.41233333333366,
      "v": 59
    },
    {
      "midi": 40,
      "hit": false,
      "t": 4852.619999999999,
      "d": 512.2210000000005,
      "v": 60
    },
    {
      "midi": 76,
      "hit": false,
      "t": 5032.346666666665,
      "d": 139.28816666666717,
      "v": 53
    },
    {
      "midi": 71,
      "hit": false,
      "t": 5212.073333333333,
      "d": 345.97383333333346,
      "v": 71
    },
    {
      "midi": 76,
      "hit": false,
      "t": 5212.073333333333,
      "d": 354.96016666666674,
      "v": 71
    },
    {
      "midi": 68,
      "hit": false,
      "t": 5391.799999999999,
      "d": 444.8235000000004,
      "v": 74
    },
    {
      "midi": 42,
      "hit": false,
      "t": 5391.799999999999,
      "d": 557.1526666666668,
      "v": 56
    },
    {
      "midi": 73,
      "hit": false,
      "t": 5571.526666666667,
      "d": 336.9874999999993,
      "v": 79
    },
    {
      "midi": 76,
      "hit": false,
      "t": 5751.253333333333,
      "d": 157.2608333333328,
      "v": 56
    },
    {
      "midi": 76,
      "hit": false,
      "t": 5930.98,
      "d": 215.67199999999957,
      "v": 71
    },
    {
      "midi": 71,
      "hit": false,
      "t": 5930.98,
      "d": 458.3029999999999,
      "v": 63
    },
    {
      "midi": 44,
      "hit": false,
      "t": 5930.98,
      "d": 525.7004999999999,
      "v": 57
    },
    {
      "midi": 68,
      "hit": false,
      "t": 6110.706666666666,
      "d": 354.96016666666674,
      "v": 59
    },
    {
      "midi": 76,
      "hit": false,
      "t": 6290.4333333333325,
      "d": 215.67200000000048,
      "v": 54
    },
    {
      "midi": 71,
      "hit": false,
      "t": 6470.16,
      "d": 220.16516666666666,
      "v": 74
    },
    {
      "midi": 57,
      "hit": false,
      "t": 6470.16,
      "d": 525.7004999999999,
      "v": 55
    },
    {
      "midi": 45,
      "hit": false,
      "t": 6470.16,
      "d": 957.0445000000009,
      "v": 40
    },
    {
      "midi": 73,
      "hit": false,
      "t": 6649.886666666666,
      "d": 188.71299999999974,
      "v": 74
    },
    {
      "midi": 69,
      "hit": false,
      "t": 6829.613333333333,
      "d": 381.9191666666675,
      "v": 81
    },
    {
      "midi": 61,
      "hit": false,
      "t": 7009.34,
      "d": 390.90550000000076,
      "v": 70
    },
    {
      "midi": 49,
      "hit": false,
      "t": 7009.34,
      "d": 458.3030000000008,
      "v": 55
    },
    {
      "midi": 64,
      "hit": false,
      "t": 7189.066666666667,
      "d": 310.02850000000126,
      "v": 66
    },
    {
      "midi": 69,
      "hit": false,
      "t": 7368.793333333334,
      "d": 323.5080000000007,
      "v": 75
    },
    {
      "midi": 61,
      "hit": false,
      "t": 7548.520000000001,
      "d": 260.60366666666687,
      "v": 55
    },
    {
      "midi": 49,
      "hit": false,
      "t": 7561.999500000002,
      "d": 525.7004999999999,
      "v": 55
    },
    {
      "midi": 61,
      "hit": false,
      "t": 7907.973333333335,
      "d": 215.67199999999957,
      "v": 73
    },
    {
      "midi": 69,
      "hit": false,
      "t": 8087.700000000002,
      "d": 224.65833333333376,
      "v": 73
    },
    {
      "midi": 52,
      "hit": false,
      "t": 8087.700000000002,
      "d": 525.7004999999999,
      "v": 55
    },
    {
      "midi": 64,
      "hit": false,
      "t": 8267.426666666668,
      "d": 166.2471666666679,
      "v": 63
    },
    {
      "midi": 62,
      "hit": false,
      "t": 8447.153333333335,
      "d": 206.6856666666663,
      "v": 86
    },
    {
      "midi": 63,
      "hit": false,
      "t": 8626.880000000001,
      "d": 215.67200000000048,
      "v": 86
    },
    {
      "midi": 59,
      "hit": false,
      "t": 8626.880000000001,
      "d": 525.7005000000008,
      "v": 55
    },
    {
      "midi": 71,
      "hit": false,
      "t": 8806.606666666668,
      "d": 175.23350000000028,
      "v": 80
    },
    {
      "midi": 63,
      "hit": false,
      "t": 8986.333333333336,
      "d": 202.1924999999992,
      "v": 80
    },
    {
      "midi": 71,
      "hit": false,
      "t": 9166.060000000001,
      "d": 368.4396666666671,
      "v": 87
    },
    {
      "midi": 51,
      "hit": false,
      "t": 9166.060000000001,
      "d": 525.7005000000008,
      "v": 55
    },
    {
      "midi": 61,
      "hit": false,
      "t": 9525.513333333334,
      "d": 265.09683333333487,
      "v": 70
    },
    {
      "midi": 54,
      "hit": false,
      "t": 9705.240000000002,
      "d": 525.7005000000008,
      "v": 55
    },
    {
      "midi": 69,
      "hit": false,
      "t": 9884.966666666669,
      "d": 170.74033333333318,
      "v": 68
    },
    {
      "midi": 61,
      "hit": false,
      "t": 10064.693333333336,
      "d": 215.67199999999866,
      "v": 72
    },
    {
      "midi": 69,
      "hit": false,
      "t": 10244.420000000002,
      "d": 179.72666666666555,
      "v": 64
    },
    {
      "midi": 51,
      "hit": false,
      "t": 10244.420000000002,
      "d": 525.700499999999,
      "v": 55
    },
    {
      "midi": 61,
      "hit": false,
      "t": 10424.146666666667,
      "d": 202.19250000000102,
      "v": 61
    },
    {
      "midi": 59,
      "hit": false,
      "t": 10603.873333333335,
      "d": 166.2471666666661,
      "v": 57
    },
    {
      "midi": 59,
      "hit": false,
      "t": 10783.6,
      "d": 417.8644999999997,
      "v": 68
    },
    {
      "midi": 56,
      "hit": false,
      "t": 10783.6,
      "d": 525.700499999999,
      "v": 55
    },
    {
      "midi": 68,
      "hit": false,
      "t": 11143.053333333333,
      "d": 462.79616666666516,
      "v": 68
    },
    {
      "midi": 71,
      "hit": false,
      "t": 11143.053333333333,
      "d": 462.79616666666516,
      "v": 56
    },
    {
      "midi": 52,
      "hit": false,
      "t": 11322.779999999999,
      "d": 525.700499999999,
      "v": 55
    },
    {
      "midi": 64,
      "hit": false,
      "t": 11682.233333333332,
      "d": 206.6856666666663,
      "v": 77
    },
    {
      "midi": 59,
      "hit": false,
      "t": 11861.959999999997,
      "d": 471.78250000000116,
      "v": 78
    },
    {
      "midi": 56,
      "hit": false,
      "t": 12041.686666666665,
      "d": 525.7005000000008,
      "v": 55
    },
    {
      "midi": 68,
      "hit": false,
      "t": 12221.413333333332,
      "d": 157.26083333333372,
      "v": 52
    },
    {
      "midi": 71,
      "hit": false,
      "t": 12221.413333333332,
      "d": 157.26083333333372,
      "v": 52
    },
    {
      "midi": 69,
      "hit": false,
      "t": 12401.14,
      "d": 354.9601666666658,
      "v": 78
    },
    {
      "midi": 52,
      "hit": false,
      "t": 12401.14,
      "d": 525.7005000000008,
      "v": 48
    },
    {
      "midi": 64,
      "hit": false,
      "t": 12401.14,
      "d": 525.7005000000008,
      "v": 55
    },
    {
      "midi": 68,
      "hit": false,
      "t": 12760.593333333332,
      "d": 157.26083333333372,
      "v": 49
    },
    {
      "midi": 71,
      "hit": false,
      "t": 12760.593333333332,
      "d": 157.26083333333372,
      "v": 52
    },
    {
      "midi": 54,
      "hit": false,
      "t": 12940.32,
      "d": 525.700499999999,
      "v": 48
    },
    {
      "midi": 66,
      "hit": false,
      "t": 12940.32,
      "d": 525.700499999999,
      "v": 65
    },
    {
      "midi": 59,
      "hit": false,
      "t": 13299.773333333333,
      "d": 170.74033333333318,
      "v": 61
    },
    {
      "midi": 57,
      "hit": false,
      "t": 13479.5,
      "d": 341.48066666666637,
      "v": 71
    },
    {
      "midi": 51,
      "hit": false,
      "t": 13479.5,
      "d": 525.700499999999,
      "v": 48
    },
    {
      "midi": 59,
      "hit": false,
      "t": 13838.953333333333,
      "d": 269.5899999999983,
      "v": 69
    },
    {
      "midi": 54,
      "hit": false,
      "t": 14018.679999999998,
      "d": 525.700499999999,
      "v": 48
    },
    {
      "midi": 66,
      "hit": false,
      "t": 14378.133333333331,
      "d": 112.32916666666642,
      "v": 53
    },
    {
      "midi": 71,
      "hit": false,
      "t": 14378.133333333331,
      "d": 112.32916666666642,
      "v": 38
    },
    {
      "midi": 51,
      "hit": false,
      "t": 14557.859999999997,
      "d": 525.7005000000026,
      "v": 48
    },
    {
      "midi": 59,
      "hit": false,
      "t": 14737.586666666664,
      "d": 292.0558333333356,
      "v": 52
    },
    {
      "midi": 71,
      "hit": false,
      "t": 14917.313333333332,
      "d": 80.87700000000041,
      "v": 65
    },
    {
      "midi": 66,
      "hit": false,
      "t": 14917.313333333332,
      "d": 85.3701666666675,
      "v": 66
    },
    {
      "midi": 52,
      "hit": false,
      "t": 15097.039999999999,
      "d": 363.9465,
      "v": 55
    },
    {
      "midi": 59,
      "hit": false,
      "t": 15456.493333333332,
      "d": 301.042166666668,
      "v": 47
    },
    {
      "midi": 56,
      "hit": false,
      "t": 15636.22,
      "d": 332.494333333334,
      "v": 59
    },
    {
      "midi": 59,
      "hit": false,
      "t": 15995.673333333334,
      "d": 125.80866666666589,
      "v": 66
    },
    {
      "midi": 52,
      "hit": false,
      "t": 16175.4,
      "d": 363.9465,
      "v": 55
    },
    {
      "midi": 59,
      "hit": false,
      "t": 16175.4,
      "d": 597.5911666666634,
      "v": 68
    },
    {
      "midi": 56,
      "hit": false,
      "t": 16714.579999999998,
      "d": 354.960166666664,
      "v": 68
    },
    {
      "midi": 54,
      "hit": false,
      "t": 17074.03333333333,
      "d": 107.83599999999933,
      "v": 51
    },
    {
      "midi": 56,
      "hit": false,
      "t": 17253.759999999995,
      "d": 323.50800000000163,
      "v": 61
    },
    {
      "midi": 47,
      "hit": false,
      "t": 17253.759999999995,
      "d": 444.82350000000224,
      "v": 55
    },
    {
      "midi": 59,
      "hit": false,
      "t": 17613.21333333333,
      "d": 179.7266666666692,
      "v": 70
    },
    {
      "midi": 61,
      "hit": false,
      "t": 17792.94,
      "d": 310.02850000000035,
      "v": 78
    },
    {
      "midi": 52,
      "hit": false,
      "t": 17792.94,
      "d": 444.82350000000224,
      "v": 55
    },
    {
      "midi": 59,
      "hit": false,
      "t": 18152.393333333333,
      "d": 98.84966666666878,
      "v": 61
    },
    {
      "midi": 59,
      "hit": false,
      "t": 18332.120000000003,
      "d": 292.055833333332,
      "v": 63
    },
    {
      "midi": 47,
      "hit": false,
      "t": 18332.120000000003,
      "d": 444.8234999999986,
      "v": 55
    },
    {
      "midi": 59,
      "hit": false,
      "t": 18691.573333333334,
      "d": 179.7266666666692,
      "v": 54
    },
    {
      "midi": 56,
      "hit": false,
      "t": 18871.300000000003,
      "d": 345.97383333333346,
      "v": 71
    },
    {
      "midi": 52,
      "hit": false,
      "t": 18871.300000000003,
      "d": 444.82350000000224,
      "v": 55
    },
    {
      "midi": 59,
      "hit": false,
      "t": 19230.753333333338,
      "d": 157.26083333333372,
      "v": 67
    },
    {
      "midi": 56,
      "hit": false,
      "t": 19410.480000000003,
      "d": 323.50800000000163,
      "v": 61
    },
    {
      "midi": 47,
      "hit": false,
      "t": 19410.480000000003,
      "d": 444.82350000000224,
      "v": 55
    },
    {
      "midi": 59,
      "hit": false,
      "t": 19769.933333333338,
      "d": 179.7266666666692,
      "v": 54
    },
    {
      "midi": 61,
      "hit": false,
      "t": 19949.660000000007,
      "d": 310.02850000000035,
      "v": 68
    },
    {
      "midi": 52,
      "hit": false,
      "t": 19949.660000000007,
      "d": 444.82350000000224,
      "v": 55
    },
    {
      "midi": 59,
      "hit": false,
      "t": 20309.113333333342,
      "d": 98.84966666666878,
      "v": 61
    },
    {
      "midi": 59,
      "hit": false,
      "t": 20488.84000000001,
      "d": 292.055833333332,
      "v": 63
    },
    {
      "midi": 47,
      "hit": false,
      "t": 20488.84000000001,
      "d": 444.8234999999986,
      "v": 55
    },
    {
      "midi": 59,
      "hit": false,
      "t": 20848.293333333342,
      "d": 179.7266666666692,
      "v": 54
    },
    {
      "midi": 56,
      "hit": false,
      "t": 21028.02000000001,
      "d": 345.97383333333346,
      "v": 71
    },
    {
      "midi": 52,
      "hit": false,
      "t": 21028.02000000001,
      "d": 444.82350000000224,
      "v": 55
    },
    {
      "midi": 59,
      "hit": false,
      "t": 21387.473333333346,
      "d": 157.26083333333372,
      "v": 67
    },
    {
      "midi": 59,
      "hit": false,
      "t": 21567.20000000001,
      "d": 377.4260000000031,
      "v": 62
    },
    {
      "midi": 47,
      "hit": false,
      "t": 21567.20000000001,
      "d": 444.82350000000224,
      "v": 55
    },
    {
      "midi": 64,
      "hit": false,
      "t": 21926.653333333346,
      "d": 179.7266666666692,
      "v": 67
    },
    {
      "midi": 56,
      "hit": false,
      "t": 22106.380000000016,
      "d": 417.8644999999997,
      "v": 55
    },
    {
      "midi": 52,
      "hit": false,
      "t": 22106.380000000016,
      "d": 444.8234999999986,
      "v": 55
    },
    {
      "midi": 64,
      "hit": false,
      "t": 22465.83333333335,
      "d": 161.75399999999718,
      "v": 72
    },
    {
      "midi": 47,
      "hit": false,
      "t": 22645.560000000016,
      "d": 444.82350000000224,
      "v": 55
    },
    {
      "midi": 62,
      "hit": false,
      "t": 22645.560000000016,
      "d": 638.0296666666691,
      "v": 70
    },
    {
      "midi": 56,
      "hit": false,
      "t": 23005.01333333335,
      "d": 417.8644999999997,
      "v": 55
    },
    {
      "midi": 59,
      "hit": false,
      "t": 23184.74000000002,
      "d": 417.86449999999604,
      "v": 55
    },
    {
      "midi": 50,
      "hit": false,
      "t": 23184.74000000002,
      "d": 444.82349999999497,
      "v": 55
    },
    {
      "midi": 49,
      "hit": false,
      "t": 23723.920000000016,
      "d": 444.82350000000224,
      "v": 55
    },
    {
      "midi": 57,
      "hit": false,
      "t": 24083.37333333335,
      "d": 130.3018333333348,
      "v": 39
    },
    {
      "midi": 61,
      "hit": false,
      "t": 24083.37333333335,
      "d": 130.3018333333348,
      "v": 37
    },
    {
      "midi": 61,
      "hit": false,
      "t": 24263.10000000002,
      "d": 287.5626666666649,
      "v": 44
    },
    {
      "midi": 57,
      "hit": false,
      "t": 24263.10000000002,
      "d": 310.0284999999967,
      "v": 56
    },
    {
      "midi": 45,
      "hit": false,
      "t": 24263.10000000002,
      "d": 444.8234999999986,
      "v": 55
    },
    {
      "midi": 52,
      "hit": false,
      "t": 24622.55333333335,
      "d": 444.82350000000224,
      "v": 55
    },
    {
      "midi": 49,
      "hit": false,
      "t": 24802.28000000002,
      "d": 444.82350000000224,
      "v": 55
    },
    {
      "midi": 61,
      "hit": false,
      "t": 25161.733333333355,
      "d": 197.69933333333756,
      "v": 51
    },
    {
      "midi": 57,
      "hit": false,
      "t": 25161.733333333355,
      "d": 202.19250000000466,
      "v": 53
    },
    {
      "midi": 45,
      "hit": false,
      "t": 25341.460000000025,
      "d": 444.82350000000224,
      "v": 55
    },
    {
      "midi": 52,
      "hit": false,
      "t": 25521.186666666694,
      "d": 292.055833333332,
      "v": 55
    },
    {
      "midi": 57,
      "hit": false,
      "t": 25700.91333333336,
      "d": 107.83599999999933,
      "v": 62
    },
    {
      "midi": 61,
      "hit": false,
      "t": 25700.91333333336,
      "d": 116.82233333333352,
      "v": 68
    },
    {
      "midi": 51,
      "hit": false,
      "t": 25880.640000000025,
      "d": 444.82350000000224,
      "v": 55
    },
    {
      "midi": 57,
      "hit": false,
      "t": 26240.09333333336,
      "d": 121.31550000000061,
      "v": 69
    },
    {
      "midi": 57,
      "hit": false,
      "t": 26419.820000000025,
      "d": 305.53533333333326,
      "v": 71
    },
    {
      "midi": 47,
      "hit": false,
      "t": 26419.820000000025,
      "d": 444.82350000000224,
      "v": 55
    },
    {
      "midi": 54,
      "hit": false,
      "t": 26779.27333333336,
      "d": 296.5490000000027,
      "v": 48
    },
    {
      "midi": 66,
      "hit": false,
      "t": 26959.00000000003,
      "d": 188.71299999999974,
      "v": 53
    },
    {
      "midi": 71,
      "hit": false,
      "t": 26959.00000000003,
      "d": 301.04216666666616,
      "v": 45
    },
    {
      "midi": 51,
      "hit": false,
      "t": 26959.00000000003,
      "d": 444.8234999999986,
      "v": 55
    },
    {
      "midi": 54,
      "hit": false,
      "t": 27318.45333333336,
      "d": 116.82233333333352,
      "v": 40
    },
    {
      "midi": 57,
      "hit": false,
      "t": 27318.45333333336,
      "d": 121.31550000000061,
      "v": 64
    },
    {
      "midi": 71,
      "hit": false,
      "t": 27498.180000000026,
      "d": 287.5626666666649,
      "v": 52
    },
    {
      "midi": 47,
      "hit": false,
      "t": 27498.180000000026,
      "d": 444.8234999999986,
      "v": 55
    },
    {
      "midi": 54,
      "hit": false,
      "t": 27857.633333333357,
      "d": 94.35650000000169,
      "v": 57
    },
    {
      "midi": 52,
      "hit": false,
      "t": 28037.360000000026,
      "d": 444.82350000000224,
      "v": 55
    },
    {
      "midi": 64,
      "hit": false,
      "t": 28396.81333333336,
      "d": 121.31550000000061,
      "v": 40
    },
    {
      "midi": 59,
      "hit": false,
      "t": 28396.81333333336,
      "d": 125.8086666666677,
      "v": 65
    },
    {
      "midi": 47,
      "hit": false,
      "t": 28576.54000000003,
      "d": 444.8234999999986,
      "v": 55
    },
    {
      "midi": 68,
      "hit": false,
      "t": 28756.266666666696,
      "d": 134.79499999999825,
      "v": 35
    },
    {
      "midi": 59,
      "hit": false,
      "t": 28935.99333333336,
      "d": 121.31550000000061,
      "v": 64
    },
    {
      "midi": 64,
      "hit": false,
      "t": 28935.99333333336,
      "d": 134.7950000000019,
      "v": 66
    },
    {
      "midi": 52,
      "hit": false,
      "t": 29115.72000000003,
      "d": 444.8234999999986,
      "v": 55
    },
    {
      "midi": 68,
      "hit": false,
      "t": 29295.446666666696,
      "d": 107.83599999999933,
      "v": 39
    },
    {
      "midi": 59,
      "hit": false,
      "t": 29475.17333333336,
      "d": 157.26083333333372,
      "v": 65
    },
    {
      "midi": 56,
      "hit": false,
      "t": 29654.900000000027,
      "d": 319.01483333333454,
      "v": 71
    },
    {
      "midi": 47,
      "hit": false,
      "t": 29654.900000000027,
      "d": 444.82350000000224,
      "v": 55
    },
    {
      "midi": 59,
      "hit": false,
      "t": 30014.35333333336,
      "d": 112.32916666666642,
      "v": 70
    },
    {
      "midi": 64,
      "hit": false,
      "t": 30014.35333333336,
      "d": 112.32916666666642,
      "v": 65
    },
    {
      "midi": 51,
      "hit": false,
      "t": 30194.080000000027,
      "d": 444.82350000000224,
      "v": 55
    },
    {
      "midi": 57,
      "hit": false,
      "t": 30553.533333333362,
      "d": 184.21983333333628,
      "v": 53
    },
    {
      "midi": 54,
      "hit": false,
      "t": 30553.533333333362,
      "d": 197.69933333333756,
      "v": 52
    },
    {
      "midi": 47,
      "hit": false,
      "t": 30733.26000000003,
      "d": 444.82350000000224,
      "v": 55
    },
    {
      "midi": 57,
      "hit": false,
      "t": 31092.713333333366,
      "d": 143.78133333333244,
      "v": 57
    },
    {
      "midi": 54,
      "hit": false,
      "t": 31092.713333333366,
      "d": 148.27449999999953,
      "v": 56
    },
    {
      "midi": 51,
      "hit": false,
      "t": 31272.44000000003,
      "d": 444.82350000000224,
      "v": 55
    },
    {
      "midi": 54,
      "hit": false,
      "t": 31631.893333333366,
      "d": 107.83599999999933,
      "v": 56
    },
    {
      "midi": 57,
      "hit": false,
      "t": 31631.893333333366,
      "d": 116.82233333333352,
      "v": 71
    },
    {
      "midi": 59,
      "hit": false,
      "t": 31631.893333333366,
      "d": 292.055833333332,
      "v": 60
    },
    {
      "midi": 61,
      "hit": false,
      "t": 31811.62000000003,
      "d": 292.055833333332,
      "v": 60
    },
    {
      "midi": 47,
      "hit": false,
      "t": 31811.62000000003,
      "d": 444.82349999999497,
      "v": 55
    },
    {
      "midi": 59,
      "hit": false,
      "t": 32171.073333333363,
      "d": 62.90433333333203,
      "v": 68
    },
    {
      "midi": 63,
      "hit": false,
      "t": 32171.073333333363,
      "d": 148.2744999999959,
      "v": 71
    },
    {
      "midi": 52,
      "hit": false,
      "t": 32350.800000000025,
      "d": 363.94650000000183,
      "v": 55
    },
    {
      "midi": 59,
      "hit": false,
      "t": 32710.25333333336,
      "d": 301.0421666666625,
      "v": 47
    },
    {
      "midi": 56,
      "hit": false,
      "t": 32889.980000000025,
      "d": 332.49433333332854,
      "v": 59
    },
    {
      "midi": 59,
      "hit": false,
      "t": 33249.433333333356,
      "d": 125.80866666666407,
      "v": 66
    },
    {
      "midi": 52,
      "hit": false,
      "t": 33429.16000000002,
      "d": 363.9464999999982,
      "v": 55
    },
    {
      "midi": 59,
      "hit": false,
      "t": 33429.16000000002,
      "d": 597.5911666666652,
      "v": 68
    },
    {
      "midi": 56,
      "hit": false,
      "t": 33968.34000000002,
      "d": 354.960166666664,
      "v": 68
    },
    {
      "midi": 54,
      "hit": false,
      "t": 34327.79333333335,
      "d": 107.83600000000297,
      "v": 51
    },
    {
      "midi": 56,
      "hit": false,
      "t": 34507.52000000002,
      "d": 323.50800000000163,
      "v": 61
    },
    {
      "midi": 47,
      "hit": false,
      "t": 34507.52000000002,
      "d": 444.8235000000059,
      "v": 55
    },
    {
      "midi": 59,
      "hit": false,
      "t": 34866.97333333336,
      "d": 179.7266666666692,
      "v": 70
    },
    {
      "midi": 61,
      "hit": false,
      "t": 35046.700000000026,
      "d": 310.02850000000035,
      "v": 78
    },
    {
      "midi": 52,
      "hit": false,
      "t": 35046.700000000026,
      "d": 444.8234999999986,
      "v": 55
    },
    {
      "midi": 59,
      "hit": false,
      "t": 35406.15333333336,
      "d": 98.84966666666878,
      "v": 61
    },
    {
      "midi": 59,
      "hit": false,
      "t": 35585.88000000003,
      "d": 292.055833333332,
      "v": 63
    },
    {
      "midi": 47,
      "hit": false,
      "t": 35585.88000000003,
      "d": 444.8234999999986,
      "v": 55
    },
    {
      "midi": 59,
      "hit": false,
      "t": 35945.33333333336,
      "d": 179.7266666666692,
      "v": 54
    },
    {
      "midi": 56,
      "hit": false,
      "t": 36125.06000000003,
      "d": 345.9738333333298,
      "v": 71
    },
    {
      "midi": 52,
      "hit": false,
      "t": 36125.06000000003,
      "d": 444.8234999999986,
      "v": 55
    },
    {
      "midi": 59,
      "hit": false,
      "t": 36484.51333333336,
      "d": 157.26083333333372,
      "v": 67
    },
    {
      "midi": 56,
      "hit": false,
      "t": 36664.24000000003,
      "d": 323.50800000000163,
      "v": 61
    },
    {
      "midi": 47,
      "hit": false,
      "t": 36664.24000000003,
      "d": 444.8235000000059,
      "v": 55
    },
    {
      "midi": 59,
      "hit": false,
      "t": 37023.693333333365,
      "d": 179.7266666666692,
      "v": 54
    },
    {
      "midi": 61,
      "hit": false,
      "t": 37203.420000000035,
      "d": 310.02850000000035,
      "v": 68
    },
    {
      "midi": 52,
      "hit": false,
      "t": 37203.420000000035,
      "d": 444.8234999999986,
      "v": 55
    },
    {
      "midi": 59,
      "hit": false,
      "t": 37562.873333333366,
      "d": 98.84966666666878,
      "v": 61
    },
    {
      "midi": 59,
      "hit": false,
      "t": 37742.600000000035,
      "d": 292.055833333332,
      "v": 63
    },
    {
      "midi": 47,
      "hit": false,
      "t": 37742.600000000035,
      "d": 444.8234999999986,
      "v": 55
    },
    {
      "midi": 59,
      "hit": false,
      "t": 38102.053333333366,
      "d": 179.7266666666692,
      "v": 54
    },
    {
      "midi": 56,
      "hit": false,
      "t": 38281.780000000035,
      "d": 345.9738333333298,
      "v": 71
    },
    {
      "midi": 52,
      "hit": false,
      "t": 38281.780000000035,
      "d": 444.8234999999986,
      "v": 55
    },
    {
      "midi": 59,
      "hit": false,
      "t": 38641.233333333366,
      "d": 157.26083333333372,
      "v": 67
    },
    {
      "midi": 59,
      "hit": false,
      "t": 38820.960000000036,
      "d": 377.4259999999995,
      "v": 62
    },
    {
      "midi": 47,
      "hit": false,
      "t": 38820.960000000036,
      "d": 444.8234999999986,
      "v": 55
    },
    {
      "midi": 64,
      "hit": false,
      "t": 39180.41333333337,
      "d": 179.7266666666692,
      "v": 67
    },
    {
      "midi": 56,
      "hit": false,
      "t": 39360.140000000036,
      "d": 417.86449999999604,
      "v": 55
    },
    {
      "midi": 52,
      "hit": false,
      "t": 39360.140000000036,
      "d": 444.8234999999986,
      "v": 55
    },
    {
      "midi": 64,
      "hit": false,
      "t": 39719.59333333337,
      "d": 161.75400000000081,
      "v": 72
    },
    {
      "midi": 47,
      "hit": false,
      "t": 39899.320000000036,
      "d": 444.8234999999986,
      "v": 55
    },
    {
      "midi": 62,
      "hit": false,
      "t": 39899.320000000036,
      "d": 638.0296666666691,
      "v": 70
    },
    {
      "midi": 56,
      "hit": false,
      "t": 40258.77333333337,
      "d": 417.8645000000033,
      "v": 55
    },
    {
      "midi": 59,
      "hit": false,
      "t": 40438.50000000004,
      "d": 417.8645000000033,
      "v": 55
    },
    {
      "midi": 50,
      "hit": false,
      "t": 40438.50000000004,
      "d": 444.8235000000059,
      "v": 55
    },
    {
      "midi": 49,
      "hit": false,
      "t": 40977.680000000044,
      "d": 444.8234999999986,
      "v": 55
    },
    {
      "midi": 57,
      "hit": false,
      "t": 41337.133333333375,
      "d": 130.30183333333116,
      "v": 39
    },
    {
      "midi": 61,
      "hit": false,
      "t": 41337.133333333375,
      "d": 130.30183333333116,
      "v": 37
    },
    {
      "midi": 61,
      "hit": false,
      "t": 41516.86000000004,
      "d": 287.5626666666649,
      "v": 44
    },
    {
      "midi": 57,
      "hit": false,
      "t": 41516.86000000004,
      "d": 310.02850000000035,
      "v": 56
    },
    {
      "midi": 45,
      "hit": false,
      "t": 41516.86000000004,
      "d": 444.8234999999986,
      "v": 55
    },
    {
      "midi": 52,
      "hit": false,
      "t": 41876.31333333337,
      "d": 444.8235000000059,
      "v": 55
    },
    {
      "midi": 49,
      "hit": false,
      "t": 42056.04000000004,
      "d": 444.8235000000059,
      "v": 55
    },
    {
      "midi": 61,
      "hit": false,
      "t": 42415.493333333376,
      "d": 197.69933333333756,
      "v": 51
    },
    {
      "midi": 57,
      "hit": false,
      "t": 42415.493333333376,
      "d": 202.19250000000466,
      "v": 53
    },
    {
      "midi": 45,
      "hit": false,
      "t": 42595.220000000045,
      "d": 444.8235000000059,
      "v": 55
    },
    {
      "midi": 52,
      "hit": false,
      "t": 42774.946666666714,
      "d": 292.05583333333925,
      "v": 55
    },
    {
      "midi": 57,
      "hit": false,
      "t": 42954.67333333338,
      "d": 107.83600000000297,
      "v": 62
    },
    {
      "midi": 61,
      "hit": false,
      "t": 42954.67333333338,
      "d": 116.82233333333716,
      "v": 68
    },
    {
      "midi": 51,
      "hit": false,
      "t": 43134.40000000005,
      "d": 444.8234999999986,
      "v": 55
    },
    {
      "midi": 57,
      "hit": false,
      "t": 43493.85333333338,
      "d": 121.31550000000425,
      "v": 69
    },
    {
      "midi": 57,
      "hit": false,
      "t": 43673.58000000005,
      "d": 305.53533333333326,
      "v": 71
    },
    {
      "midi": 47,
      "hit": false,
      "t": 43673.58000000005,
      "d": 444.8234999999986,
      "v": 55
    },
    {
      "midi": 54,
      "hit": false,
      "t": 44033.033333333384,
      "d": 296.54899999999907,
      "v": 48
    },
    {
      "midi": 66,
      "hit": false,
      "t": 44212.76000000005,
      "d": 188.7129999999961,
      "v": 53
    },
    {
      "midi": 71,
      "hit": false,
      "t": 44212.76000000005,
      "d": 301.04216666666616,
      "v": 45
    },
    {
      "midi": 51,
      "hit": false,
      "t": 44212.76000000005,
      "d": 444.8234999999986,
      "v": 55
    },
    {
      "midi": 54,
      "hit": false,
      "t": 44572.213333333384,
      "d": 116.82233333333716,
      "v": 40
    },
    {
      "midi": 57,
      "hit": false,
      "t": 44572.213333333384,
      "d": 121.31550000000425,
      "v": 64
    },
    {
      "midi": 71,
      "hit": false,
      "t": 44751.94000000005,
      "d": 287.5626666666649,
      "v": 52
    },
    {
      "midi": 47,
      "hit": false,
      "t": 44751.94000000005,
      "d": 444.8234999999986,
      "v": 55
    },
    {
      "midi": 54,
      "hit": false,
      "t": 45111.393333333384,
      "d": 94.35650000000169,
      "v": 57
    },
    {
      "midi": 52,
      "hit": false,
      "t": 45291.12000000005,
      "d": 444.8234999999986,
      "v": 55
    },
    {
      "midi": 64,
      "hit": false,
      "t": 45650.573333333385,
      "d": 121.31550000000425,
      "v": 40
    },
    {
      "midi": 59,
      "hit": false,
      "t": 45650.573333333385,
      "d": 125.80866666667134,
      "v": 65
    },
    {
      "midi": 47,
      "hit": false,
      "t": 45830.300000000054,
      "d": 444.8234999999986,
      "v": 55
    },
    {
      "midi": 59,
      "hit": false,
      "t": 46189.753333333385,
      "d": 121.31550000000425,
      "v": 64
    },
    {
      "midi": 64,
      "hit": false,
      "t": 46189.753333333385,
      "d": 134.79500000000553,
      "v": 66
    },
    {
      "midi": 52,
      "hit": false,
      "t": 46369.480000000054,
      "d": 444.8235000000059,
      "v": 55
    },
    {
      "midi": 68,
      "hit": false,
      "t": 46549.20666666672,
      "d": 107.83600000000297,
      "v": 39
    },
    {
      "midi": 59,
      "hit": false,
      "t": 46728.93333333339,
      "d": 157.26083333333372,
      "v": 65
    },
    {
      "midi": 56,
      "hit": false,
      "t": 46908.66000000006,
      "d": 319.01483333333454,
      "v": 71
    },
    {
      "midi": 47,
      "hit": false,
      "t": 46908.66000000006,
      "d": 444.8234999999986,
      "v": 55
    },
    {
      "midi": 59,
      "hit": false,
      "t": 47268.11333333339,
      "d": 112.32916666667006,
      "v": 70
    },
    {
      "midi": 64,
      "hit": false,
      "t": 47268.11333333339,
      "d": 112.32916666667006,
      "v": 65
    },
    {
      "midi": 52,
      "hit": false,
      "t": 47447.84000000006,
      "d": 444.8234999999986,
      "v": 55
    },
    {
      "midi": 59,
      "hit": false,
      "t": 47807.29333333339,
      "d": 184.21983333333628,
      "v": 53
    },
    {
      "midi": 56,
      "hit": false,
      "t": 47807.29333333339,
      "d": 197.69933333333756,
      "v": 52
    },
    {
      "midi": 47,
      "hit": false,
      "t": 47987.02000000006,
      "d": 444.8235000000059,
      "v": 55
    },
    {
      "midi": 64,
      "hit": false,
      "t": 48346.4733333334,
      "d": 143.78133333333244,
      "v": 57
    },
    {
      "midi": 56,
      "hit": false,
      "t": 48346.4733333334,
      "d": 148.27449999999953,
      "v": 56
    },
    {
      "midi": 52,
      "hit": false,
      "t": 48526.20000000007,
      "d": 444.8234999999986,
      "v": 55
    },
    {
      "midi": 54,
      "hit": false,
      "t": 48885.6533333334,
      "d": 107.83600000000297,
      "v": 56
    },
    {
      "midi": 59,
      "hit": false,
      "t": 48885.6533333334,
      "d": 215.67200000000594,
      "v": 60
    },
    {
      "midi": 61,
      "hit": false,
      "t": 49065.38000000007,
      "d": 292.05583333333925,
      "v": 60
    },
    {
      "midi": 47,
      "hit": false,
      "t": 49065.38000000007,
      "d": 444.8235000000059,
      "v": 55
    },
    {
      "midi": 64,
      "hit": false,
      "t": 49424.83333333341,
      "d": 148.27449999999953,
      "v": 61
    },
    {
      "midi": 59,
      "hit": false,
      "t": 49424.83333333341,
      "d": 184.21983333333628,
      "v": 58
    },
    {
      "midi": 49,
      "hit": false,
      "t": 49604.56000000008,
      "d": 444.8234999999986,
      "v": 55
    },
    {
      "midi": 57,
      "hit": false,
      "t": 49964.01333333341,
      "d": 130.30183333333116,
      "v": 39
    },
    {
      "midi": 61,
      "hit": false,
      "t": 49964.01333333341,
      "d": 130.30183333333116,
      "v": 37
    },
    {
      "midi": 61,
      "hit": false,
      "t": 50143.74000000007,
      "d": 287.5626666666649,
      "v": 44
    },
    {
      "midi": 57,
      "hit": false,
      "t": 50143.74000000007,
      "d": 310.02850000000035,
      "v": 56
    },
    {
      "midi": 45,
      "hit": false,
      "t": 50143.74000000007,
      "d": 444.8234999999986,
      "v": 55
    },
    {
      "midi": 52,
      "hit": false,
      "t": 50503.1933333334,
      "d": 444.8235000000059,
      "v": 55
    },
    {
      "midi": 49,
      "hit": false,
      "t": 50682.92000000007,
      "d": 444.8235000000059,
      "v": 55
    },
    {
      "midi": 61,
      "hit": false,
      "t": 51042.37333333341,
      "d": 197.69933333333756,
      "v": 51
    },
    {
      "midi": 57,
      "hit": false,
      "t": 51042.37333333341,
      "d": 202.19250000000466,
      "v": 53
    },
    {
      "midi": 45,
      "hit": false,
      "t": 51222.10000000008,
      "d": 444.8235000000059,
      "v": 55
    },
    {
      "midi": 57,
      "hit": false,
      "t": 51581.55333333342,
      "d": 107.83600000000297,
      "v": 62
    },
    {
      "midi": 61,
      "hit": false,
      "t": 51581.55333333342,
      "d": 116.82233333333716,
      "v": 68
    },
    {
      "midi": 51,
      "hit": false,
      "t": 51761.280000000086,
      "d": 444.8234999999986,
      "v": 55
    },
    {
      "midi": 57,
      "hit": false,
      "t": 52120.73333333342,
      "d": 121.31550000000425,
      "v": 54
    },
    {
      "midi": 57,
      "hit": false,
      "t": 52300.46000000009,
      "d": 305.53533333333326,
      "v": 71
    },
    {
      "midi": 47,
      "hit": false,
      "t": 52300.46000000009,
      "d": 444.8234999999986,
      "v": 55
    },
    {
      "midi": 54,
      "hit": false,
      "t": 52659.91333333342,
      "d": 296.54899999999907,
      "v": 48
    },
    {
      "midi": 66,
      "hit": false,
      "t": 52839.64000000009,
      "d": 188.7129999999961,
      "v": 53
    },
    {
      "midi": 71,
      "hit": false,
      "t": 52839.64000000009,
      "d": 301.04216666666616,
      "v": 45
    },
    {
      "midi": 51,
      "hit": false,
      "t": 52839.64000000009,
      "d": 444.8234999999986,
      "v": 55
    },
    {
      "midi": 54,
      "hit": false,
      "t": 53199.09333333342,
      "d": 116.82233333333716,
      "v": 40
    },
    {
      "midi": 57,
      "hit": false,
      "t": 53199.09333333342,
      "d": 121.31550000000425,
      "v": 64
    },
    {
      "midi": 71,
      "hit": false,
      "t": 53378.82000000009,
      "d": 287.5626666666649,
      "v": 52
    },
    {
      "midi": 47,
      "hit": false,
      "t": 53378.82000000009,
      "d": 444.8234999999986,
      "v": 55
    },
    {
      "midi": 54,
      "hit": false,
      "t": 53738.27333333342,
      "d": 94.35650000000169,
      "v": 57
    },
    {
      "midi": 52,
      "hit": false,
      "t": 53918.00000000009,
      "d": 363.9464999999982,
      "v": 55
    },
    {
      "midi": 59,
      "hit": false,
      "t": 54277.45333333342,
      "d": 301.04216666666616,
      "v": 47
    },
    {
      "midi": 56,
      "hit": false,
      "t": 54457.18000000009,
      "d": 332.49433333332854,
      "v": 59
    },
    {
      "midi": 59,
      "hit": false,
      "t": 54816.63333333342,
      "d": 125.80866666666407,
      "v": 55
    },
    {
      "midi": 52,
      "hit": false,
      "t": 54996.36000000008,
      "d": 363.9464999999982,
      "v": 55
    },
    {
      "midi": 59,
      "hit": false,
      "t": 54996.36000000008,
      "d": 597.5911666666652,
      "v": 68
    },
    {
      "midi": 47,
      "hit": false,
      "t": 55355.81333333341,
      "d": 444.8234999999986,
      "v": 55
    },
    {
      "midi": 56,
      "hit": false,
      "t": 55535.54000000008,
      "d": 354.960166666664,
      "v": 68
    },
    {
      "midi": 54,
      "hit": false,
      "t": 55894.99333333341,
      "d": 107.83600000000297,
      "v": 51
    },
    {
      "midi": 52,
      "hit": false,
      "t": 56074.72000000008,
      "d": 444.8234999999986,
      "v": 55
    },
    {
      "midi": 59,
      "hit": false,
      "t": 56434.17333333341,
      "d": 184.21983333333628,
      "v": 53
    },
    {
      "midi": 56,
      "hit": false,
      "t": 56434.17333333341,
      "d": 197.69933333333756,
      "v": 52
    },
    {
      "midi": 47,
      "hit": false,
      "t": 56613.90000000008,
      "d": 444.8235000000059,
      "v": 55
    },
    {
      "midi": 64,
      "hit": false,
      "t": 56973.35333333342,
      "d": 143.78133333333244,
      "v": 57
    },
    {
      "midi": 56,
      "hit": false,
      "t": 56973.35333333342,
      "d": 148.27449999999953,
      "v": 56
    },
    {
      "midi": 52,
      "hit": false,
      "t": 57153.08000000009,
      "d": 444.8234999999986,
      "v": 55
    },
    {
      "midi": 54,
      "hit": false,
      "t": 57512.53333333342,
      "d": 107.83600000000297,
      "v": 56
    },
    {
      "midi": 59,
      "hit": false,
      "t": 57512.53333333342,
      "d": 215.67200000000594,
      "v": 60
    },
    {
      "midi": 61,
      "hit": false,
      "t": 57692.26000000009,
      "d": 292.05583333333925,
      "v": 60
    },
    {
      "midi": 47,
      "hit": false,
      "t": 57692.26000000009,
      "d": 444.8235000000059,
      "v": 55
    },
    {
      "midi": 64,
      "hit": false,
      "t": 58051.71333333343,
      "d": 148.27449999999953,
      "v": 61
    },
    {
      "midi": 59,
      "hit": false,
      "t": 58051.71333333343,
      "d": 184.21983333333628,
      "v": 58
    },
    {
      "midi": 49,
      "hit": false,
      "t": 58231.4400000001,
      "d": 444.8234999999986,
      "v": 55
    },
    {
      "midi": 57,
      "hit": false,
      "t": 58590.89333333343,
      "d": 130.30183333333116,
      "v": 39
    },
    {
      "midi": 64,
      "hit": false,
      "t": 58590.89333333343,
      "d": 130.30183333333116,
      "v": 37
    },
    {
      "midi": 64,
      "hit": false,
      "t": 58770.62000000009,
      "d": 287.5626666666649,
      "v": 44
    },
    {
      "midi": 57,
      "hit": false,
      "t": 58770.62000000009,
      "d": 310.02850000000035,
      "v": 56
    },
    {
      "midi": 45,
      "hit": false,
      "t": 58770.62000000009,
      "d": 444.8234999999986,
      "v": 55
    },
    {
      "midi": 52,
      "hit": false,
      "t": 59130.07333333342,
      "d": 444.8235000000059,
      "v": 55
    },
    {
      "midi": 49,
      "hit": false,
      "t": 59309.80000000009,
      "d": 444.8235000000059,
      "v": 55
    },
    {
      "midi": 61,
      "hit": false,
      "t": 59669.25333333343,
      "d": 197.69933333333756,
      "v": 51
    },
    {
      "midi": 57,
      "hit": false,
      "t": 59669.25333333343,
      "d": 202.19250000000466,
      "v": 53
    },
    {
      "midi": 45,
      "hit": false,
      "t": 59848.9800000001,
      "d": 444.8235000000059,
      "v": 55
    },
    {
      "midi": 57,
      "hit": false,
      "t": 60208.433333333436,
      "d": 107.83600000000297,
      "v": 62
    },
    {
      "midi": 51,
      "hit": false,
      "t": 60388.160000000105,
      "d": 444.8234999999986,
      "v": 55
    },
    {
      "midi": 57,
      "hit": false,
      "t": 60747.61333333344,
      "d": 121.31550000000425,
      "v": 54
    },
    {
      "midi": 57,
      "hit": false,
      "t": 60927.340000000106,
      "d": 305.53533333333326,
      "v": 71
    },
    {
      "midi": 47,
      "hit": false,
      "t": 60927.340000000106,
      "d": 444.8234999999986,
      "v": 55
    },
    {
      "midi": 54,
      "hit": false,
      "t": 61286.79333333344,
      "d": 296.54899999999907,
      "v": 48
    },
    {
      "midi": 71,
      "hit": false,
      "t": 61286.79333333344,
      "d": 301.04216666666616,
      "v": 45
    },
    {
      "midi": 66,
      "hit": false,
      "t": 61466.520000000106,
      "d": 188.7129999999961,
      "v": 53
    },
    {
      "midi": 51,
      "hit": false,
      "t": 61466.520000000106,
      "d": 444.8234999999986,
      "v": 55
    },
    {
      "midi": 54,
      "hit": false,
      "t": 61825.97333333344,
      "d": 116.82233333333716,
      "v": 40
    },
    {
      "midi": 57,
      "hit": false,
      "t": 61825.97333333344,
      "d": 121.31550000000425,
      "v": 64
    },
    {
      "midi": 71,
      "hit": false,
      "t": 62005.700000000106,
      "d": 287.5626666666649,
      "v": 52
    },
    {
      "midi": 47,
      "hit": false,
      "t": 62005.700000000106,
      "d": 444.8234999999986,
      "v": 55
    },
    {
      "midi": 54,
      "hit": false,
      "t": 62365.15333333344,
      "d": 94.35650000000169,
      "v": 57
    },
    {
      "midi": 52,
      "hit": false,
      "t": 62544.88000000011,
      "d": 363.9464999999982,
      "v": 55
    },
    {
      "midi": 59,
      "hit": false,
      "t": 62904.33333333344,
      "d": 301.04216666666616,
      "v": 47
    },
    {
      "midi": 56,
      "hit": false,
      "t": 63084.06000000011,
      "d": 332.49433333332854,
      "v": 59
    },
    {
      "midi": 59,
      "hit": false,
      "t": 63443.51333333344,
      "d": 125.80866666666407,
      "v": 55
    },
    {
      "midi": 52,
      "hit": false,
      "t": 63623.2400000001,
      "d": 363.9464999999982,
      "v": 55
    },
    {
      "midi": 59,
      "hit": false,
      "t": 63623.2400000001,
      "d": 597.5911666666652,
      "v": 68
    },
    {
      "midi": 47,
      "hit": false,
      "t": 63982.69333333343,
      "d": 444.8234999999986,
      "v": 55
    },
    {
      "midi": 52,
      "hit": false,
      "t": 64162.4200000001,
      "d": 354.960166666664,
      "v": 68
    },
    {
      "midi": 59,
      "hit": false,
      "t": 64521.87333333343,
      "d": 107.83600000000297,
      "v": 51
    },
    {
      "midi": 51,
      "hit": false,
      "t": 64701.6000000001,
      "d": 444.8234999999986,
      "v": 55
    },
    {
      "midi": 57,
      "hit": false,
      "t": 65061.05333333343,
      "d": 202.19250000000466,
      "v": 50
    },
    {
      "midi": 47,
      "hit": false,
      "t": 65240.7800000001,
      "d": 444.8234999999986,
      "v": 55
    },
    {
      "midi": 57,
      "hit": false,
      "t": 65600.23333333344,
      "d": 215.67199999999139,
      "v": 51
    },
    {
      "midi": 63,
      "hit": false,
      "t": 65600.23333333344,
      "d": 224.65833333332557,
      "v": 58
    },
    {
      "midi": 51,
      "hit": false,
      "t": 65779.9600000001,
      "d": 444.8234999999986,
      "v": 55
    },
    {
      "midi": 57,
      "hit": false,
      "t": 66139.41333333343,
      "d": 229.15149999999267,
      "v": 59
    },
    {
      "midi": 63,
      "hit": false,
      "t": 66139.41333333343,
      "d": 242.63099999999395,
      "v": 62
    },
    {
      "midi": 47,
      "hit": false,
      "t": 66319.14000000009,
      "d": 444.8234999999986,
      "v": 55
    },
    {
      "midi": 57,
      "hit": false,
      "t": 66678.59333333343,
      "d": 112.32916666666279,
      "v": 59
    },
    {
      "midi": 52,
      "hit": false,
      "t": 66858.3200000001,
      "d": 363.94650000000547,
      "v": 55
    },
    {
      "midi": 59,
      "hit": false,
      "t": 67217.77333333343,
      "d": 301.04216666666616,
      "v": 47
    },
    {
      "midi": 56,
      "hit": false,
      "t": 67397.5000000001,
      "d": 332.4943333333358,
      "v": 59
    },
    {
      "midi": 59,
      "hit": false,
      "t": 67756.95333333344,
      "d": 125.80866666666407,
      "v": 66
    },
    {
      "midi": 52,
      "hit": false,
      "t": 67936.68000000011,
      "d": 363.94650000000547,
      "v": 55
    },
    {
      "midi": 59,
      "hit": false,
      "t": 67936.68000000011,
      "d": 597.5911666666798,
      "v": 68
    },
    {
      "midi": 56,
      "hit": false,
      "t": 68475.86000000012,
      "d": 354.9601666666713,
      "v": 68
    },
    {
      "midi": 54,
      "hit": false,
      "t": 68835.31333333346,
      "d": 107.83599999999569,
      "v": 51
    },
    {
      "midi": 56,
      "hit": false,
      "t": 69015.04000000012,
      "d": 323.50800000000163,
      "v": 61
    },
    {
      "midi": 47,
      "hit": false,
      "t": 69015.04000000012,
      "d": 444.8234999999986,
      "v": 55
    },
    {
      "midi": 59,
      "hit": false,
      "t": 69374.49333333346,
      "d": 179.72666666665464,
      "v": 70
    },
    {
      "midi": 61,
      "hit": false,
      "t": 69554.22000000012,
      "d": 310.02850000000035,
      "v": 78
    },
    {
      "midi": 52,
      "hit": false,
      "t": 69554.22000000012,
      "d": 444.8234999999986,
      "v": 55
    },
    {
      "midi": 59,
      "hit": false,
      "t": 69913.67333333346,
      "d": 98.8496666666615,
      "v": 61
    },
    {
      "midi": 59,
      "hit": false,
      "t": 70093.40000000011,
      "d": 292.055833333332,
      "v": 63
    },
    {
      "midi": 47,
      "hit": false,
      "t": 70093.40000000011,
      "d": 444.8234999999986,
      "v": 55
    },
    {
      "midi": 59,
      "hit": false,
      "t": 70452.85333333345,
      "d": 179.72666666665464,
      "v": 54
    },
    {
      "midi": 56,
      "hit": false,
      "t": 70632.5800000001,
      "d": 345.9738333333371,
      "v": 71
    },
    {
      "midi": 52,
      "hit": false,
      "t": 70632.5800000001,
      "d": 444.8234999999986,
      "v": 55
    },
    {
      "midi": 59,
      "hit": false,
      "t": 70992.03333333344,
      "d": 157.26083333333372,
      "v": 67
    },
    {
      "midi": 56,
      "hit": false,
      "t": 71171.76000000011,
      "d": 323.50800000000163,
      "v": 61
    },
    {
      "midi": 47,
      "hit": false,
      "t": 71171.76000000011,
      "d": 444.8234999999986,
      "v": 55
    },
    {
      "midi": 59,
      "hit": false,
      "t": 71531.21333333345,
      "d": 179.72666666665464,
      "v": 54
    },
    {
      "midi": 61,
      "hit": false,
      "t": 71710.9400000001,
      "d": 310.02850000000035,
      "v": 68
    },
    {
      "midi": 52,
      "hit": false,
      "t": 71710.9400000001,
      "d": 444.8234999999986,
      "v": 55
    },
    {
      "midi": 59,
      "hit": false,
      "t": 72070.39333333344,
      "d": 98.8496666666615,
      "v": 61
    },
    {
      "midi": 59,
      "hit": false,
      "t": 72250.1200000001,
      "d": 292.055833333332,
      "v": 63
    },
    {
      "midi": 47,
      "hit": false,
      "t": 72250.1200000001,
      "d": 444.8234999999986,
      "v": 55
    },
    {
      "midi": 59,
      "hit": false,
      "t": 72609.57333333344,
      "d": 179.72666666665464,
      "v": 54
    },
    {
      "midi": 56,
      "hit": false,
      "t": 72789.30000000009,
      "d": 345.9738333333371,
      "v": 71
    },
    {
      "midi": 52,
      "hit": false,
      "t": 72789.30000000009,
      "d": 444.8234999999986,
      "v": 55
    },
    {
      "midi": 59,
      "hit": false,
      "t": 73148.75333333343,
      "d": 157.26083333333372,
      "v": 67
    },
    {
      "midi": 59,
      "hit": false,
      "t": 73328.4800000001,
      "d": 377.42600000000675,
      "v": 62
    },
    {
      "midi": 47,
      "hit": false,
      "t": 73328.4800000001,
      "d": 444.82350000001315,
      "v": 55
    },
    {
      "midi": 64,
      "hit": false,
      "t": 73687.93333333344,
      "d": 179.7266666666692,
      "v": 67
    },
    {
      "midi": 56,
      "hit": false,
      "t": 73867.6600000001,
      "d": 417.8645000000106,
      "v": 55
    },
    {
      "midi": 52,
      "hit": false,
      "t": 73867.6600000001,
      "d": 444.82350000001315,
      "v": 55
    },
    {
      "midi": 64,
      "hit": false,
      "t": 74227.11333333344,
      "d": 161.75400000001537,
      "v": 72
    },
    {
      "midi": 47,
      "hit": false,
      "t": 74406.84000000013,
      "d": 444.8234999999986,
      "v": 55
    },
    {
      "midi": 62,
      "hit": false,
      "t": 74406.84000000013,
      "d": 638.0296666666545,
      "v": 70
    },
    {
      "midi": 56,
      "hit": false,
      "t": 74766.29333333347,
      "d": 417.8644999999815,
      "v": 55
    },
    {
      "midi": 59,
      "hit": false,
      "t": 74946.02000000012,
      "d": 417.86449999999604,
      "v": 55
    },
    {
      "midi": 50,
      "hit": false,
      "t": 74946.02000000012,
      "d": 444.8234999999986,
      "v": 55
    },
    {
      "midi": 49,
      "hit": false,
      "t": 75485.20000000011,
      "d": 444.8234999999986,
      "v": 55
    },
    {
      "midi": 57,
      "hit": false,
      "t": 75844.65333333345,
      "d": 130.30183333333116,
      "v": 39
    },
    {
      "midi": 61,
      "hit": false,
      "t": 75844.65333333345,
      "d": 130.30183333333116,
      "v": 37
    },
    {
      "midi": 61,
      "hit": false,
      "t": 76024.38000000012,
      "d": 287.5626666666649,
      "v": 44
    },
    {
      "midi": 57,
      "hit": false,
      "t": 76024.38000000012,
      "d": 310.02850000000035,
      "v": 56
    },
    {
      "midi": 45,
      "hit": false,
      "t": 76024.38000000012,
      "d": 444.8234999999986,
      "v": 55
    },
    {
      "midi": 52,
      "hit": false,
      "t": 76383.83333333346,
      "d": 444.82349999998405,
      "v": 55
    },
    {
      "midi": 49,
      "hit": false,
      "t": 76563.56000000011,
      "d": 444.82349999998405,
      "v": 55
    },
    {
      "midi": 61,
      "hit": false,
      "t": 76923.01333333344,
      "d": 197.699333333323,
      "v": 51
    },
    {
      "midi": 57,
      "hit": false,
      "t": 76923.01333333344,
      "d": 202.1924999999901,
      "v": 53
    },
    {
      "midi": 45,
      "hit": false,
      "t": 77102.74000000009,
      "d": 444.8234999999986,
      "v": 55
    },
    {
      "midi": 52,
      "hit": false,
      "t": 77282.46666666676,
      "d": 292.055833333332,
      "v": 55
    },
    {
      "midi": 57,
      "hit": false,
      "t": 77462.19333333343,
      "d": 107.83599999999569,
      "v": 62
    },
    {
      "midi": 61,
      "hit": false,
      "t": 77462.19333333343,
      "d": 116.82233333332988,
      "v": 68
    },
    {
      "midi": 51,
      "hit": false,
      "t": 77641.9200000001,
      "d": 444.8234999999986,
      "v": 55
    },
    {
      "midi": 57,
      "hit": false,
      "t": 78001.37333333344,
      "d": 121.31549999999697,
      "v": 69
    },
    {
      "midi": 57,
      "hit": false,
      "t": 78181.10000000011,
      "d": 305.53533333333326,
      "v": 71
    },
    {
      "midi": 47,
      "hit": false,
      "t": 78181.10000000011,
      "d": 444.8234999999986,
      "v": 55
    },
    {
      "midi": 54,
      "hit": false,
      "t": 78540.55333333345,
      "d": 296.5489999999845,
      "v": 48
    },
    {
      "midi": 66,
      "hit": false,
      "t": 78720.2800000001,
      "d": 188.71300000000338,
      "v": 53
    },
    {
      "midi": 71,
      "hit": false,
      "t": 78720.2800000001,
      "d": 301.04216666666616,
      "v": 45
    },
    {
      "midi": 51,
      "hit": false,
      "t": 78720.2800000001,
      "d": 444.8234999999986,
      "v": 55
    },
    {
      "midi": 54,
      "hit": false,
      "t": 79079.73333333344,
      "d": 116.82233333332988,
      "v": 40
    },
    {
      "midi": 57,
      "hit": false,
      "t": 79079.73333333344,
      "d": 121.31549999999697,
      "v": 64
    },
    {
      "midi": 71,
      "hit": false,
      "t": 79259.46000000011,
      "d": 287.5626666666649,
      "v": 52
    },
    {
      "midi": 47,
      "hit": false,
      "t": 79259.46000000011,
      "d": 444.8234999999986,
      "v": 55
    },
    {
      "midi": 54,
      "hit": false,
      "t": 79618.91333333345,
      "d": 94.35649999999441,
      "v": 57
    },
    {
      "midi": 52,
      "hit": false,
      "t": 79798.6400000001,
      "d": 444.8234999999986,
      "v": 55
    },
    {
      "midi": 64,
      "hit": false,
      "t": 80158.09333333344,
      "d": 121.31549999999697,
      "v": 40
    },
    {
      "midi": 59,
      "hit": false,
      "t": 80158.09333333344,
      "d": 125.80866666666407,
      "v": 65
    },
    {
      "midi": 47,
      "hit": false,
      "t": 80337.82000000011,
      "d": 444.8234999999986,
      "v": 55
    },
    {
      "midi": 59,
      "hit": false,
      "t": 80697.27333333345,
      "d": 121.31549999999697,
      "v": 64
    },
    {
      "midi": 64,
      "hit": false,
      "t": 80697.27333333345,
      "d": 134.79499999999825,
      "v": 66
    },
    {
      "midi": 52,
      "hit": false,
      "t": 80877.00000000012,
      "d": 444.8234999999986,
      "v": 55
    },
    {
      "midi": 68,
      "hit": false,
      "t": 81056.72666666679,
      "d": 107.83599999999569,
      "v": 39
    },
    {
      "midi": 59,
      "hit": false,
      "t": 81236.45333333345,
      "d": 157.26083333333372,
      "v": 65
    },
    {
      "midi": 56,
      "hit": false,
      "t": 81416.18000000012,
      "d": 319.01483333333454,
      "v": 71
    },
    {
      "midi": 47,
      "hit": false,
      "t": 81416.18000000012,
      "d": 444.8234999999986,
      "v": 55
    },
    {
      "midi": 59,
      "hit": false,
      "t": 81775.63333333346,
      "d": 112.32916666666279,
      "v": 70
    },
    {
      "midi": 64,
      "hit": false,
      "t": 81775.63333333346,
      "d": 112.32916666666279,
      "v": 65
    },
    {
      "midi": 51,
      "hit": false,
      "t": 81955.36000000013,
      "d": 444.8234999999986,
      "v": 55
    },
    {
      "midi": 57,
      "hit": false,
      "t": 82314.81333333347,
      "d": 202.1924999999901,
      "v": 50
    },
    {
      "midi": 47,
      "hit": false,
      "t": 82494.54000000012,
      "d": 444.8234999999986,
      "v": 55
    },
    {
      "midi": 57,
      "hit": false,
      "t": 82853.99333333346,
      "d": 215.67199999999139,
      "v": 51
    },
    {
      "midi": 63,
      "hit": false,
      "t": 82853.99333333346,
      "d": 224.65833333332557,
      "v": 58
    },
    {
      "midi": 51,
      "hit": false,
      "t": 83033.72000000012,
      "d": 444.8234999999986,
      "v": 55
    },
    {
      "midi": 57,
      "hit": false,
      "t": 83393.17333333346,
      "d": 229.15149999999267,
      "v": 59
    },
    {
      "midi": 63,
      "hit": false,
      "t": 83393.17333333346,
      "d": 242.63099999999395,
      "v": 62
    },
    {
      "midi": 47,
      "hit": false,
      "t": 83572.90000000011,
      "d": 444.8234999999986,
      "v": 55
    },
    {
      "midi": 57,
      "hit": false,
      "t": 83932.35333333345,
      "d": 112.32916666666279,
      "v": 59
    },
    {
      "midi": 52,
      "hit": false,
      "t": 84112.08000000012,
      "d": 363.94650000000547,
      "v": 55
    },
    {
      "midi": 59,
      "hit": false,
      "t": 84471.53333333346,
      "d": 301.04216666666616,
      "v": 47
    },
    {
      "midi": 56,
      "hit": false,
      "t": 84651.26000000013,
      "d": 332.4943333333358,
      "v": 59
    },
    {
      "midi": 59,
      "hit": false,
      "t": 85010.71333333346,
      "d": 125.80866666666407,
      "v": 66
    },
    {
      "midi": 52,
      "hit": false,
      "t": 85190.44000000013,
      "d": 363.94650000000547,
      "v": 55
    },
    {
      "midi": 59,
      "hit": false,
      "t": 85190.44000000013,
      "d": 597.5911666666798,
      "v": 68
    },
    {
      "midi": 56,
      "hit": false,
      "t": 85729.62000000014,
      "d": 354.9601666666713,
      "v": 68
    },
    {
      "midi": 54,
      "hit": false,
      "t": 86089.07333333348,
      "d": 107.83599999999569,
      "v": 51
    },
    {
      "midi": 56,
      "hit": false,
      "t": 86268.80000000015,
      "d": 323.50800000000163,
      "v": 61
    },
    {
      "midi": 47,
      "hit": false,
      "t": 86268.80000000015,
      "d": 444.8234999999986,
      "v": 55
    },
    {
      "midi": 59,
      "hit": false,
      "t": 86628.25333333349,
      "d": 179.72666666665464,
      "v": 70
    },
    {
      "midi": 61,
      "hit": false,
      "t": 86807.98000000014,
      "d": 310.02850000000035,
      "v": 56
    },
    {
      "midi": 52,
      "hit": false,
      "t": 86807.98000000014,
      "d": 444.8234999999986,
      "v": 56
    },
    {
      "midi": 59,
      "hit": false,
      "t": 87167.43333333348,
      "d": 98.8496666666615,
      "v": 61
    },
    {
      "midi": 59,
      "hit": false,
      "t": 87347.16000000013,
      "d": 292.055833333332,
      "v": 63
    },
    {
      "midi": 47,
      "hit": false,
      "t": 87347.16000000013,
      "d": 444.8234999999986,
      "v": 55
    },
    {
      "midi": 59,
      "hit": false,
      "t": 87706.61333333347,
      "d": 179.72666666665464,
      "v": 54
    },
    {
      "midi": 56,
      "hit": false,
      "t": 87886.34000000013,
      "d": 345.9738333333371,
      "v": 71
    },
    {
      "midi": 52,
      "hit": false,
      "t": 87886.34000000013,
      "d": 444.8234999999986,
      "v": 55
    },
    {
      "midi": 59,
      "hit": false,
      "t": 88245.79333333347,
      "d": 157.26083333333372,
      "v": 67
    },
    {
      "midi": 56,
      "hit": false,
      "t": 88425.52000000014,
      "d": 323.50800000000163,
      "v": 61
    },
    {
      "midi": 47,
      "hit": false,
      "t": 88425.52000000014,
      "d": 444.8234999999986,
      "v": 55
    },
    {
      "midi": 59,
      "hit": false,
      "t": 88784.97333333347,
      "d": 179.72666666665464,
      "v": 54
    },
    {
      "midi": 61,
      "hit": false,
      "t": 88964.70000000013,
      "d": 310.02850000000035,
      "v": 68
    },
    {
      "midi": 52,
      "hit": false,
      "t": 88964.70000000013,
      "d": 444.8234999999986,
      "v": 55
    },
    {
      "midi": 59,
      "hit": false,
      "t": 89324.15333333347,
      "d": 98.8496666666615,
      "v": 61
    },
    {
      "midi": 59,
      "hit": false,
      "t": 89503.88000000012,
      "d": 292.055833333332,
      "v": 63
    },
    {
      "midi": 47,
      "hit": false,
      "t": 89503.88000000012,
      "d": 444.8234999999986,
      "v": 55
    },
    {
      "midi": 59,
      "hit": false,
      "t": 89863.33333333346,
      "d": 179.72666666665464,
      "v": 54
    },
    {
      "midi": 56,
      "hit": false,
      "t": 90043.06000000011,
      "d": 345.9738333333371,
      "v": 71
    },
    {
      "midi": 52,
      "hit": false,
      "t": 90043.06000000011,
      "d": 444.8234999999986,
      "v": 55
    },
    {
      "midi": 59,
      "hit": false,
      "t": 90402.51333333345,
      "d": 157.26083333333372,
      "v": 67
    },
    {
      "midi": 59,
      "hit": false,
      "t": 90582.24000000012,
      "d": 377.42600000000675,
      "v": 62
    },
    {
      "midi": 47,
      "hit": false,
      "t": 90582.24000000012,
      "d": 444.82350000001315,
      "v": 55
    },
    {
      "midi": 64,
      "hit": false,
      "t": 90941.69333333346,
      "d": 179.7266666666692,
      "v": 67
    },
    {
      "midi": 56,
      "hit": false,
      "t": 91121.42000000013,
      "d": 417.8645000000106,
      "v": 55
    },
    {
      "midi": 52,
      "hit": false,
      "t": 91121.42000000013,
      "d": 444.82350000001315,
      "v": 55
    },
    {
      "midi": 64,
      "hit": false,
      "t": 91480.87333333347,
      "d": 161.75400000001537,
      "v": 72
    },
    {
      "midi": 47,
      "hit": false,
      "t": 91660.60000000015,
      "d": 444.8234999999986,
      "v": 55
    },
    {
      "midi": 62,
      "hit": false,
      "t": 91660.60000000015,
      "d": 638.0296666666545,
      "v": 70
    },
    {
      "midi": 56,
      "hit": false,
      "t": 92020.05333333349,
      "d": 417.8644999999815,
      "v": 55
    },
    {
      "midi": 59,
      "hit": false,
      "t": 92199.78000000014,
      "d": 417.86449999999604,
      "v": 55
    },
    {
      "midi": 50,
      "hit": false,
      "t": 92199.78000000014,
      "d": 444.8234999999986,
      "v": 55
    },
    {
      "midi": 49,
      "hit": false,
      "t": 92738.96000000014,
      "d": 444.8234999999986,
      "v": 55
    },
    {
      "midi": 57,
      "hit": false,
      "t": 93098.41333333348,
      "d": 130.30183333333116,
      "v": 39
    },
    {
      "midi": 61,
      "hit": false,
      "t": 93098.41333333348,
      "d": 130.30183333333116,
      "v": 37
    },
    {
      "midi": 61,
      "hit": false,
      "t": 93278.14000000014,
      "d": 287.5626666666649,
      "v": 44
    },
    {
      "midi": 57,
      "hit": false,
      "t": 93278.14000000014,
      "d": 310.02850000000035,
      "v": 56
    },
    {
      "midi": 45,
      "hit": false,
      "t": 93278.14000000014,
      "d": 444.8234999999986,
      "v": 55
    },
    {
      "midi": 52,
      "hit": false,
      "t": 93637.59333333348,
      "d": 444.82349999998405,
      "v": 55
    },
    {
      "midi": 49,
      "hit": false,
      "t": 93817.32000000014,
      "d": 444.82349999998405,
      "v": 55
    },
    {
      "midi": 61,
      "hit": false,
      "t": 94176.77333333346,
      "d": 197.699333333323,
      "v": 51
    },
    {
      "midi": 57,
      "hit": false,
      "t": 94176.77333333346,
      "d": 202.1924999999901,
      "v": 53
    },
    {
      "midi": 45,
      "hit": false,
      "t": 94356.50000000012,
      "d": 444.8234999999986,
      "v": 55
    },
    {
      "midi": 52,
      "hit": false,
      "t": 94536.22666666679,
      "d": 292.055833333332,
      "v": 55
    },
    {
      "midi": 57,
      "hit": false,
      "t": 94715.95333333345,
      "d": 107.83599999999569,
      "v": 62
    },
    {
      "midi": 61,
      "hit": false,
      "t": 94715.95333333345,
      "d": 116.82233333332988,
      "v": 68
    },
    {
      "midi": 51,
      "hit": false,
      "t": 94895.68000000012,
      "d": 444.8234999999986,
      "v": 55
    },
    {
      "midi": 57,
      "hit": false,
      "t": 95255.13333333346,
      "d": 121.31549999999697,
      "v": 69
    },
    {
      "midi": 57,
      "hit": false,
      "t": 95434.86000000013,
      "d": 305.53533333333326,
      "v": 71
    },
    {
      "midi": 47,
      "hit": false,
      "t": 95434.86000000013,
      "d": 444.8234999999986,
      "v": 55
    },
    {
      "midi": 54,
      "hit": false,
      "t": 95794.31333333347,
      "d": 296.5489999999845,
      "v": 48
    },
    {
      "midi": 66,
      "hit": false,
      "t": 95974.04000000012,
      "d": 188.71300000000338,
      "v": 53
    },
    {
      "midi": 71,
      "hit": false,
      "t": 95974.04000000012,
      "d": 301.04216666666616,
      "v": 45
    },
    {
      "midi": 51,
      "hit": false,
      "t": 95974.04000000012,
      "d": 444.8234999999986,
      "v": 55
    },
    {
      "midi": 54,
      "hit": false,
      "t": 96333.49333333346,
      "d": 116.82233333332988,
      "v": 40
    },
    {
      "midi": 57,
      "hit": false,
      "t": 96333.49333333346,
      "d": 121.31549999999697,
      "v": 64
    },
    {
      "midi": 71,
      "hit": false,
      "t": 96513.22000000013,
      "d": 287.5626666666649,
      "v": 52
    },
    {
      "midi": 47,
      "hit": false,
      "t": 96513.22000000013,
      "d": 444.8234999999986,
      "v": 55
    },
    {
      "midi": 54,
      "hit": false,
      "t": 96872.67333333347,
      "d": 94.35649999999441,
      "v": 57
    },
    {
      "midi": 52,
      "hit": false,
      "t": 97052.40000000013,
      "d": 444.8234999999986,
      "v": 55
    },
    {
      "midi": 64,
      "hit": false,
      "t": 97411.85333333346,
      "d": 121.31549999999697,
      "v": 40
    },
    {
      "midi": 59,
      "hit": false,
      "t": 97411.85333333346,
      "d": 125.80866666666407,
      "v": 65
    },
    {
      "midi": 47,
      "hit": false,
      "t": 97591.58000000013,
      "d": 444.8234999999986,
      "v": 55
    },
    {
      "midi": 59,
      "hit": false,
      "t": 97951.03333333347,
      "d": 121.31549999999697,
      "v": 64
    },
    {
      "midi": 64,
      "hit": false,
      "t": 97951.03333333347,
      "d": 134.79499999999825,
      "v": 66
    },
    {
      "midi": 52,
      "hit": false,
      "t": 98130.76000000014,
      "d": 444.8234999999986,
      "v": 55
    },
    {
      "midi": 68,
      "hit": false,
      "t": 98310.48666666681,
      "d": 107.83599999999569,
      "v": 39
    },
    {
      "midi": 59,
      "hit": false,
      "t": 98490.21333333348,
      "d": 157.26083333333372,
      "v": 65
    },
    {
      "midi": 56,
      "hit": false,
      "t": 98669.94000000015,
      "d": 319.01483333333454,
      "v": 71
    },
    {
      "midi": 47,
      "hit": false,
      "t": 98669.94000000015,
      "d": 444.8234999999986,
      "v": 55
    },
    {
      "midi": 59,
      "hit": false,
      "t": 99029.39333333349,
      "d": 112.32916666666279,
      "v": 70
    },
    {
      "midi": 64,
      "hit": false,
      "t": 99029.39333333349,
      "d": 112.32916666666279,
      "v": 65
    },
    {
      "midi": 52,
      "hit": false,
      "t": 99209.12000000016,
      "d": 444.8234999999986,
      "v": 55
    },
    {
      "midi": 59,
      "hit": false,
      "t": 99568.5733333335,
      "d": 184.21983333332173,
      "v": 53
    },
    {
      "midi": 56,
      "hit": false,
      "t": 99568.5733333335,
      "d": 197.699333333323,
      "v": 52
    },
    {
      "midi": 47,
      "hit": false,
      "t": 99748.30000000015,
      "d": 444.8234999999986,
      "v": 55
    },
    {
      "midi": 64,
      "hit": false,
      "t": 100107.75333333349,
      "d": 143.78133333333244,
      "v": 57
    },
    {
      "midi": 56,
      "hit": false,
      "t": 100107.75333333349,
      "d": 148.27449999999953,
      "v": 56
    },
    {
      "midi": 52,
      "hit": false,
      "t": 100287.48000000016,
      "d": 444.8234999999986,
      "v": 55
    },
    {
      "midi": 54,
      "hit": false,
      "t": 100646.9333333335,
      "d": 107.83599999999569,
      "v": 56
    },
    {
      "midi": 59,
      "hit": false,
      "t": 100646.9333333335,
      "d": 215.67200000000594,
      "v": 60
    },
    {
      "midi": 61,
      "hit": false,
      "t": 100826.66000000016,
      "d": 292.055833333332,
      "v": 60
    },
    {
      "midi": 47,
      "hit": false,
      "t": 100826.66000000016,
      "d": 444.8234999999986,
      "v": 55
    },
    {
      "midi": 64,
      "hit": false,
      "t": 101186.1133333335,
      "d": 148.27449999999953,
      "v": 61
    },
    {
      "midi": 59,
      "hit": false,
      "t": 101186.1133333335,
      "d": 184.21983333333628,
      "v": 58
    },
    {
      "midi": 49,
      "hit": false,
      "t": 101365.84000000017,
      "d": 444.8234999999986,
      "v": 55
    },
    {
      "midi": 57,
      "hit": false,
      "t": 101725.29333333351,
      "d": 130.30183333333116,
      "v": 52
    },
    {
      "midi": 61,
      "hit": false,
      "t": 101725.29333333351,
      "d": 130.30183333333116,
      "v": 52
    },
    {
      "midi": 61,
      "hit": false,
      "t": 101905.02000000018,
      "d": 287.5626666666649,
      "v": 65
    },
    {
      "midi": 57,
      "hit": false,
      "t": 101905.02000000018,
      "d": 310.02850000000035,
      "v": 65
    },
    {
      "midi": 45,
      "hit": false,
      "t": 101905.02000000018,
      "d": 444.8234999999986,
      "v": 65
    },
    {
      "midi": 52,
      "hit": false,
      "t": 102264.47333333352,
      "d": 444.82349999998405,
      "v": 55
    },
    {
      "midi": 49,
      "hit": false,
      "t": 102444.20000000017,
      "d": 444.82349999998405,
      "v": 68
    },
    {
      "midi": 61,
      "hit": false,
      "t": 102803.6533333335,
      "d": 197.699333333323,
      "v": 51
    },
    {
      "midi": 57,
      "hit": false,
      "t": 102803.6533333335,
      "d": 202.1924999999901,
      "v": 53
    },
    {
      "midi": 45,
      "hit": false,
      "t": 102983.38000000015,
      "d": 444.8234999999986,
      "v": 55
    },
    {
      "midi": 57,
      "hit": false,
      "t": 103342.83333333349,
      "d": 107.83599999999569,
      "v": 62
    },
    {
      "midi": 61,
      "hit": false,
      "t": 103342.83333333349,
      "d": 116.82233333332988,
      "v": 68
    },
    {
      "midi": 51,
      "hit": false,
      "t": 103522.56000000016,
      "d": 444.8234999999986,
      "v": 55
    },
    {
      "midi": 57,
      "hit": false,
      "t": 103882.0133333335,
      "d": 121.31549999999697,
      "v": 54
    },
    {
      "midi": 57,
      "hit": false,
      "t": 104061.74000000017,
      "d": 305.53533333333326,
      "v": 71
    },
    {
      "midi": 47,
      "hit": false,
      "t": 104061.74000000017,
      "d": 444.8234999999986,
      "v": 55
    },
    {
      "midi": 54,
      "hit": false,
      "t": 104421.1933333335,
      "d": 296.5489999999845,
      "v": 48
    },
    {
      "midi": 66,
      "hit": false,
      "t": 104600.92000000016,
      "d": 188.71300000000338,
      "v": 53
    },
    {
      "midi": 71,
      "hit": false,
      "t": 104600.92000000016,
      "d": 301.04216666666616,
      "v": 45
    },
    {
      "midi": 51,
      "hit": false,
      "t": 104600.92000000016,
      "d": 444.8234999999986,
      "v": 55
    },
    {
      "midi": 54,
      "hit": false,
      "t": 104960.3733333335,
      "d": 116.82233333332988,
      "v": 40
    },
    {
      "midi": 57,
      "hit": false,
      "t": 104960.3733333335,
      "d": 121.31549999999697,
      "v": 64
    },
    {
      "midi": 71,
      "hit": false,
      "t": 105140.10000000017,
      "d": 287.5626666666649,
      "v": 52
    },
    {
      "midi": 47,
      "hit": false,
      "t": 105140.10000000017,
      "d": 444.8234999999986,
      "v": 55
    },
    {
      "midi": 54,
      "hit": false,
      "t": 105499.5533333335,
      "d": 94.35649999999441,
      "v": 57
    },
    {
      "midi": 52,
      "hit": false,
      "t": 105679.28000000016,
      "d": 363.94650000000547,
      "v": 55
    },
    {
      "midi": 59,
      "hit": false,
      "t": 106038.7333333335,
      "d": 301.04216666666616,
      "v": 47
    },
    {
      "midi": 56,
      "hit": false,
      "t": 106218.46000000017,
      "d": 332.4943333333358,
      "v": 59
    },
    {
      "midi": 59,
      "hit": false,
      "t": 106577.9133333335,
      "d": 125.80866666666407,
      "v": 55
    },
    {
      "midi": 52,
      "hit": false,
      "t": 106757.64000000017,
      "d": 363.94650000000547,
      "v": 55
    },
    {
      "midi": 59,
      "hit": false,
      "t": 106757.64000000017,
      "d": 597.5911666666798,
      "v": 68
    },
    {
      "midi": 47,
      "hit": false,
      "t": 107117.09333333351,
      "d": 444.82350000001315,
      "v": 55
    },
    {
      "midi": 56,
      "hit": false,
      "t": 107296.82000000018,
      "d": 354.9601666666713,
      "v": 68
    },
    {
      "midi": 54,
      "hit": false,
      "t": 107656.27333333352,
      "d": 107.83599999999569,
      "v": 51
    },
    {
      "midi": 52,
      "hit": false,
      "t": 107836.00000000019,
      "d": 444.8234999999986,
      "v": 55
    },
    {
      "midi": 59,
      "hit": false,
      "t": 108195.45333333353,
      "d": 184.21983333332173,
      "v": 53
    },
    {
      "midi": 56,
      "hit": false,
      "t": 108195.45333333353,
      "d": 197.699333333323,
      "v": 52
    },
    {
      "midi": 47,
      "hit": false,
      "t": 108375.18000000018,
      "d": 444.8234999999986,
      "v": 55
    },
    {
      "midi": 64,
      "hit": false,
      "t": 108734.63333333352,
      "d": 143.78133333333244,
      "v": 57
    },
    {
      "midi": 56,
      "hit": false,
      "t": 108734.63333333352,
      "d": 148.27449999999953,
      "v": 56
    },
    {
      "midi": 52,
      "hit": false,
      "t": 108914.36000000019,
      "d": 444.8234999999986,
      "v": 55
    },
    {
      "midi": 54,
      "hit": false,
      "t": 109273.81333333353,
      "d": 107.83599999999569,
      "v": 56
    },
    {
      "midi": 59,
      "hit": false,
      "t": 109273.81333333353,
      "d": 215.67200000000594,
      "v": 60
    },
    {
      "midi": 61,
      "hit": false,
      "t": 109453.5400000002,
      "d": 292.055833333332,
      "v": 60
    },
    {
      "midi": 47,
      "hit": false,
      "t": 109453.5400000002,
      "d": 444.8234999999986,
      "v": 55
    },
    {
      "midi": 64,
      "hit": false,
      "t": 109812.99333333354,
      "d": 148.27449999999953,
      "v": 61
    },
    {
      "midi": 59,
      "hit": false,
      "t": 109812.99333333354,
      "d": 184.21983333333628,
      "v": 58
    },
    {
      "midi": 49,
      "hit": false,
      "t": 109992.7200000002,
      "d": 444.8234999999986,
      "v": 55
    },
    {
      "midi": 57,
      "hit": false,
      "t": 110352.17333333354,
      "d": 130.30183333333116,
      "v": 39
    },
    {
      "midi": 64,
      "hit": false,
      "t": 110352.17333333354,
      "d": 130.30183333333116,
      "v": 37
    },
    {
      "midi": 64,
      "hit": false,
      "t": 110531.90000000021,
      "d": 287.5626666666649,
      "v": 44
    },
    {
      "midi": 57,
      "hit": false,
      "t": 110531.90000000021,
      "d": 310.02850000000035,
      "v": 56
    },
    {
      "midi": 45,
      "hit": false,
      "t": 110531.90000000021,
      "d": 444.8234999999986,
      "v": 55
    },
    {
      "midi": 52,
      "hit": false,
      "t": 110891.35333333355,
      "d": 444.82349999998405,
      "v": 55
    },
    {
      "midi": 49,
      "hit": false,
      "t": 111071.0800000002,
      "d": 444.82349999998405,
      "v": 55
    },
    {
      "midi": 61,
      "hit": false,
      "t": 111430.53333333353,
      "d": 197.699333333323,
      "v": 51
    },
    {
      "midi": 57,
      "hit": false,
      "t": 111430.53333333353,
      "d": 202.1924999999901,
      "v": 53
    },
    {
      "midi": 45,
      "hit": false,
      "t": 111610.26000000018,
      "d": 444.8234999999986,
      "v": 55
    },
    {
      "midi": 57,
      "hit": false,
      "t": 111969.71333333352,
      "d": 107.83599999999569,
      "v": 62
    },
    {
      "midi": 51,
      "hit": false,
      "t": 112149.44000000019,
      "d": 444.8234999999986,
      "v": 55
    },
    {
      "midi": 57,
      "hit": false,
      "t": 112508.89333333353,
      "d": 121.31549999999697,
      "v": 54
    },
    {
      "midi": 57,
      "hit": false,
      "t": 112688.6200000002,
      "d": 305.53533333333326,
      "v": 71
    },
    {
      "midi": 47,
      "hit": false,
      "t": 112688.6200000002,
      "d": 444.8234999999986,
      "v": 55
    },
    {
      "midi": 54,
      "hit": false,
      "t": 113048.07333333354,
      "d": 296.5489999999845,
      "v": 48
    },
    {
      "midi": 71,
      "hit": false,
      "t": 113048.07333333354,
      "d": 301.0421666666516,
      "v": 45
    },
    {
      "midi": 66,
      "hit": false,
      "t": 113227.80000000019,
      "d": 188.71300000000338,
      "v": 53
    },
    {
      "midi": 51,
      "hit": false,
      "t": 113227.80000000019,
      "d": 444.8234999999986,
      "v": 55
    },
    {
      "midi": 54,
      "hit": false,
      "t": 113587.25333333353,
      "d": 116.82233333332988,
      "v": 40
    },
    {
      "midi": 57,
      "hit": false,
      "t": 113587.25333333353,
      "d": 121.31549999999697,
      "v": 64
    },
    {
      "midi": 71,
      "hit": false,
      "t": 113766.9800000002,
      "d": 287.5626666666649,
      "v": 52
    },
    {
      "midi": 47,
      "hit": false,
      "t": 113766.9800000002,
      "d": 444.8234999999986,
      "v": 55
    },
    {
      "midi": 54,
      "hit": false,
      "t": 114126.43333333354,
      "d": 94.35649999999441,
      "v": 57
    },
    {
      "midi": 52,
      "hit": false,
      "t": 114306.16000000019,
      "d": 363.94650000000547,
      "v": 55
    },
    {
      "midi": 59,
      "hit": false,
      "t": 114665.61333333353,
      "d": 301.04216666666616,
      "v": 47
    },
    {
      "midi": 56,
      "hit": false,
      "t": 114845.3400000002,
      "d": 332.4943333333358,
      "v": 59
    },
    {
      "midi": 59,
      "hit": false,
      "t": 115204.79333333354,
      "d": 125.80866666666407,
      "v": 55
    },
    {
      "midi": 52,
      "hit": false,
      "t": 115384.52000000021,
      "d": 363.94650000000547,
      "v": 55
    },
    {
      "midi": 59,
      "hit": false,
      "t": 115384.52000000021,
      "d": 597.5911666666798,
      "v": 68
    },
    {
      "midi": 47,
      "hit": false,
      "t": 115743.97333333355,
      "d": 444.82350000001315,
      "v": 55
    },
    {
      "midi": 52,
      "hit": false,
      "t": 115923.70000000022,
      "d": 354.9601666666713,
      "v": 68
    },
    {
      "midi": 59,
      "hit": false,
      "t": 116283.15333333355,
      "d": 107.83599999999569,
      "v": 51
    },
    {
      "midi": 51,
      "hit": false,
      "t": 116462.88000000022,
      "d": 444.8234999999986,
      "v": 55
    },
    {
      "midi": 57,
      "hit": false,
      "t": 116822.33333333356,
      "d": 202.1924999999901,
      "v": 50
    },
    {
      "midi": 47,
      "hit": false,
      "t": 117002.06000000022,
      "d": 444.8234999999986,
      "v": 55
    },
    {
      "midi": 57,
      "hit": false,
      "t": 117361.51333333355,
      "d": 215.67199999999139,
      "v": 51
    },
    {
      "midi": 63,
      "hit": false,
      "t": 117361.51333333355,
      "d": 224.65833333332557,
      "v": 58
    },
    {
      "midi": 51,
      "hit": false,
      "t": 117541.24000000021,
      "d": 444.8234999999986,
      "v": 55
    },
    {
      "midi": 57,
      "hit": false,
      "t": 117900.69333333355,
      "d": 229.15149999999267,
      "v": 59
    },
    {
      "midi": 63,
      "hit": false,
      "t": 117900.69333333355,
      "d": 242.63099999999395,
      "v": 62
    },
    {
      "midi": 47,
      "hit": false,
      "t": 118080.4200000002,
      "d": 444.8234999999986,
      "v": 55
    },
    {
      "midi": 57,
      "hit": false,
      "t": 118439.87333333354,
      "d": 112.32916666666279,
      "v": 59
    },
    {
      "midi": 52,
      "hit": false,
      "t": 118619.60000000021,
      "d": 363.94650000000547,
      "v": 55
    },
    {
      "midi": 59,
      "hit": false,
      "t": 118979.05333333355,
      "d": 301.04216666666616,
      "v": 47
    },
    {
      "midi": 56,
      "hit": false,
      "t": 119158.78000000022,
      "d": 332.4943333333358,
      "v": 59
    },
    {
      "midi": 59,
      "hit": false,
      "t": 119518.23333333356,
      "d": 125.80866666666407,
      "v": 66
    },
    {
      "midi": 52,
      "hit": false,
      "t": 119697.96000000022,
      "d": 363.94650000000547,
      "v": 55
    },
    {
      "midi": 59,
      "hit": false,
      "t": 119697.96000000022,
      "d": 597.5911666666798,
      "v": 68
    },
    {
      "midi": 56,
      "hit": false,
      "t": 120237.14000000023,
      "d": 354.9601666666713,
      "v": 68
    },
    {
      "midi": 54,
      "hit": false,
      "t": 120596.59333333357,
      "d": 107.83599999999569,
      "v": 51
    },
    {
      "midi": 56,
      "hit": false,
      "t": 120776.32000000024,
      "d": 323.50800000000163,
      "v": 61
    },
    {
      "midi": 47,
      "hit": false,
      "t": 120776.32000000024,
      "d": 444.8234999999986,
      "v": 55
    },
    {
      "midi": 56,
      "hit": false,
      "t": 121135.77333333358,
      "d": 179.72666666665464,
      "v": 70
    },
    {
      "midi": 59,
      "hit": false,
      "t": 121315.50000000023,
      "d": 233.64466666665976,
      "v": 63
    },
    {
      "midi": 52,
      "hit": false,
      "t": 121315.50000000023,
      "d": 444.82349999998405,
      "v": 63
    },
    {
      "midi": 59,
      "hit": false,
      "t": 121674.95333333356,
      "d": 98.8496666666615,
      "v": 61
    },
    {
      "midi": 59,
      "hit": false,
      "t": 121854.68000000021,
      "d": 292.055833333332,
      "v": 63
    },
    {
      "midi": 47,
      "hit": false,
      "t": 121854.68000000021,
      "d": 444.8234999999986,
      "v": 55
    },
    {
      "midi": 59,
      "hit": false,
      "t": 122214.13333333355,
      "d": 179.72666666665464,
      "v": 54
    },
    {
      "midi": 56,
      "hit": false,
      "t": 122393.8600000002,
      "d": 345.9738333333371,
      "v": 71
    },
    {
      "midi": 52,
      "hit": false,
      "t": 122393.8600000002,
      "d": 444.8234999999986,
      "v": 55
    },
    {
      "midi": 59,
      "hit": false,
      "t": 122753.31333333354,
      "d": 157.26083333333372,
      "v": 67
    },
    {
      "midi": 56,
      "hit": false,
      "t": 122933.04000000021,
      "d": 323.50800000000163,
      "v": 61
    },
    {
      "midi": 47,
      "hit": false,
      "t": 122933.04000000021,
      "d": 444.8234999999986,
      "v": 55
    },
    {
      "midi": 59,
      "hit": false,
      "t": 123292.49333333355,
      "d": 179.72666666665464,
      "v": 54
    },
    {
      "midi": 61,
      "hit": false,
      "t": 123472.2200000002,
      "d": 310.02850000000035,
      "v": 68
    },
    {
      "midi": 52,
      "hit": false,
      "t": 123472.2200000002,
      "d": 444.8234999999986,
      "v": 55
    },
    {
      "midi": 59,
      "hit": false,
      "t": 123831.67333333354,
      "d": 98.8496666666615,
      "v": 61
    },
    {
      "midi": 59,
      "hit": false,
      "t": 124011.4000000002,
      "d": 292.055833333332,
      "v": 63
    },
    {
      "midi": 47,
      "hit": false,
      "t": 124011.4000000002,
      "d": 444.8234999999986,
      "v": 55
    },
    {
      "midi": 59,
      "hit": false,
      "t": 124370.85333333354,
      "d": 179.72666666665464,
      "v": 54
    },
    {
      "midi": 56,
      "hit": false,
      "t": 124550.58000000019,
      "d": 345.9738333333371,
      "v": 71
    },
    {
      "midi": 52,
      "hit": false,
      "t": 124550.58000000019,
      "d": 444.8234999999986,
      "v": 55
    },
    {
      "midi": 59,
      "hit": false,
      "t": 124910.03333333353,
      "d": 157.26083333333372,
      "v": 67
    },
    {
      "midi": 59,
      "hit": false,
      "t": 125089.7600000002,
      "d": 377.42600000000675,
      "v": 62
    },
    {
      "midi": 47,
      "hit": false,
      "t": 125089.7600000002,
      "d": 444.82350000001315,
      "v": 55
    },
    {
      "midi": 64,
      "hit": false,
      "t": 125449.21333333354,
      "d": 179.7266666666692,
      "v": 67
    },
    {
      "midi": 56,
      "hit": false,
      "t": 125628.9400000002,
      "d": 417.8645000000106,
      "v": 55
    },
    {
      "midi": 52,
      "hit": false,
      "t": 125628.9400000002,
      "d": 444.82350000001315,
      "v": 55
    },
    {
      "midi": 64,
      "hit": false,
      "t": 125988.39333333354,
      "d": 161.75400000001537,
      "v": 72
    },
    {
      "midi": 47,
      "hit": false,
      "t": 126168.12000000023,
      "d": 444.8234999999986,
      "v": 55
    },
    {
      "midi": 62,
      "hit": false,
      "t": 126168.12000000023,
      "d": 638.0296666666545,
      "v": 70
    },
    {
      "midi": 56,
      "hit": false,
      "t": 126527.57333333357,
      "d": 417.8644999999815,
      "v": 55
    },
    {
      "midi": 59,
      "hit": false,
      "t": 126707.30000000022,
      "d": 417.86449999999604,
      "v": 55
    },
    {
      "midi": 50,
      "hit": false,
      "t": 126707.30000000022,
      "d": 444.8234999999986,
      "v": 55
    },
    {
      "midi": 49,
      "hit": false,
      "t": 127246.48000000021,
      "d": 444.8234999999986,
      "v": 55
    },
    {
      "midi": 57,
      "hit": false,
      "t": 127605.93333333355,
      "d": 130.30183333333116,
      "v": 39
    },
    {
      "midi": 61,
      "hit": false,
      "t": 127605.93333333355,
      "d": 130.30183333333116,
      "v": 37
    },
    {
      "midi": 61,
      "hit": false,
      "t": 127785.66000000022,
      "d": 287.5626666666649,
      "v": 44
    },
    {
      "midi": 57,
      "hit": false,
      "t": 127785.66000000022,
      "d": 310.02850000000035,
      "v": 56
    },
    {
      "midi": 45,
      "hit": false,
      "t": 127785.66000000022,
      "d": 444.8234999999986,
      "v": 55
    },
    {
      "midi": 52,
      "hit": false,
      "t": 128145.11333333356,
      "d": 444.82349999998405,
      "v": 55
    },
    {
      "midi": 49,
      "hit": false,
      "t": 128324.84000000021,
      "d": 444.82349999998405,
      "v": 55
    },
    {
      "midi": 61,
      "hit": false,
      "t": 128684.29333333354,
      "d": 197.699333333323,
      "v": 51
    },
    {
      "midi": 57,
      "hit": false,
      "t": 128684.29333333354,
      "d": 202.1924999999901,
      "v": 53
    },
    {
      "midi": 45,
      "hit": false,
      "t": 128864.0200000002,
      "d": 444.8234999999986,
      "v": 55
    },
    {
      "midi": 57,
      "hit": false,
      "t": 129223.47333333353,
      "d": 107.83599999999569,
      "v": 62
    },
    {
      "midi": 61,
      "hit": false,
      "t": 129223.47333333353,
      "d": 116.82233333332988,
      "v": 68
    },
    {
      "midi": 51,
      "hit": false,
      "t": 129403.2000000002,
      "d": 444.8234999999986,
      "v": 55
    },
    {
      "midi": 57,
      "hit": false,
      "t": 129762.65333333354,
      "d": 121.31549999999697,
      "v": 69
    },
    {
      "midi": 57,
      "hit": false,
      "t": 129942.38000000021,
      "d": 305.53533333333326,
      "v": 71
    },
    {
      "midi": 47,
      "hit": false,
      "t": 129942.38000000021,
      "d": 444.8234999999986,
      "v": 55
    },
    {
      "midi": 54,
      "hit": false,
      "t": 130301.83333333355,
      "d": 296.5489999999845,
      "v": 48
    },
    {
      "midi": 66,
      "hit": false,
      "t": 130481.5600000002,
      "d": 188.71300000000338,
      "v": 53
    },
    {
      "midi": 71,
      "hit": false,
      "t": 130481.5600000002,
      "d": 301.04216666666616,
      "v": 45
    },
    {
      "midi": 51,
      "hit": false,
      "t": 130481.5600000002,
      "d": 444.8234999999986,
      "v": 55
    },
    {
      "midi": 54,
      "hit": false,
      "t": 130841.01333333354,
      "d": 116.82233333332988,
      "v": 40
    },
    {
      "midi": 57,
      "hit": false,
      "t": 130841.01333333354,
      "d": 121.31549999999697,
      "v": 64
    },
    {
      "midi": 71,
      "hit": false,
      "t": 131020.74000000021,
      "d": 287.56266666667943,
      "v": 52
    },
    {
      "midi": 47,
      "hit": false,
      "t": 131020.74000000021,
      "d": 444.82350000001315,
      "v": 55
    },
    {
      "midi": 54,
      "hit": false,
      "t": 131380.19333333356,
      "d": 94.35649999999441,
      "v": 57
    },
    {
      "midi": 52,
      "hit": false,
      "t": 131559.92000000022,
      "d": 444.8234999999986,
      "v": 55
    },
    {
      "midi": 64,
      "hit": false,
      "t": 131919.37333333355,
      "d": 121.31549999999697,
      "v": 40
    },
    {
      "midi": 59,
      "hit": false,
      "t": 131919.37333333355,
      "d": 125.80866666664951,
      "v": 65
    },
    {
      "midi": 47,
      "hit": false,
      "t": 132099.1000000002,
      "d": 444.8234999999986,
      "v": 55
    },
    {
      "midi": 59,
      "hit": false,
      "t": 132458.55333333355,
      "d": 121.31549999999697,
      "v": 64
    },
    {
      "midi": 64,
      "hit": false,
      "t": 132458.55333333355,
      "d": 134.7949999999837,
      "v": 66
    },
    {
      "midi": 52,
      "hit": false,
      "t": 132638.2800000002,
      "d": 444.8234999999986,
      "v": 55
    },
    {
      "midi": 68,
      "hit": false,
      "t": 132818.00666666686,
      "d": 107.83600000001024,
      "v": 39
    },
    {
      "midi": 59,
      "hit": false,
      "t": 132997.73333333354,
      "d": 157.26083333333372,
      "v": 65
    },
    {
      "midi": 56,
      "hit": false,
      "t": 133177.4600000002,
      "d": 319.01483333332,
      "v": 71
    },
    {
      "midi": 47,
      "hit": false,
      "t": 133177.4600000002,
      "d": 444.8234999999695,
      "v": 55
    },
    {
      "midi": 59,
      "hit": false,
      "t": 133536.9133333335,
      "d": 112.32916666666279,
      "v": 70
    },
    {
      "midi": 64,
      "hit": false,
      "t": 133536.9133333335,
      "d": 112.32916666666279,
      "v": 65
    },
    {
      "midi": 52,
      "hit": false,
      "t": 133716.64000000016,
      "d": 444.8234999999986,
      "v": 55
    },
    {
      "midi": 56,
      "hit": false,
      "t": 134076.0933333335,
      "d": 202.19249999997555,
      "v": 50
    },
    {
      "midi": 64,
      "hit": false,
      "t": 134076.0933333335,
      "d": 224.65833333329647,
      "v": 69
    },
    {
      "midi": 47,
      "hit": false,
      "t": 134255.82000000015,
      "d": 444.8234999999695,
      "v": 55
    },
    {
      "midi": 56,
      "hit": false,
      "t": 134615.27333333346,
      "d": 215.67199999999139,
      "v": 51
    },
    {
      "midi": 62,
      "hit": false,
      "t": 134615.27333333346,
      "d": 224.65833333332557,
      "v": 68
    },
    {
      "midi": 52,
      "hit": false,
      "t": 134795.00000000012,
      "d": 444.8234999999986,
      "v": 55
    },
    {
      "midi": 56,
      "hit": false,
      "t": 135154.45333333345,
      "d": 229.1514999999781,
      "v": 59
    },
    {
      "midi": 62,
      "hit": false,
      "t": 135154.45333333345,
      "d": 242.63099999996484,
      "v": 62
    },
    {
      "midi": 47,
      "hit": false,
      "t": 135334.1800000001,
      "d": 444.8234999999695,
      "v": 55
    },
    {
      "midi": 59,
      "hit": false,
      "t": 135693.63333333342,
      "d": 112.32916666666279,
      "v": 59
    },
    {
      "midi": 49,
      "hit": false,
      "t": 135873.36000000007,
      "d": 444.8234999999986,
      "v": 55
    },
    {
      "midi": 57,
      "hit": false,
      "t": 136232.8133333334,
      "d": 130.30183333333116,
      "v": 39
    },
    {
      "midi": 61,
      "hit": false,
      "t": 136232.8133333334,
      "d": 130.30183333333116,
      "v": 37
    },
    {
      "midi": 64,
      "hit": false,
      "t": 136412.54000000007,
      "d": 287.5626666666649,
      "v": 52
    },
    {
      "midi": 57,
      "hit": false,
      "t": 136412.54000000007,
      "d": 310.0284999999858,
      "v": 56
    },
    {
      "midi": 45,
      "hit": false,
      "t": 136412.54000000007,
      "d": 444.8234999999695,
      "v": 55
    },
    {
      "midi": 52,
      "hit": false,
      "t": 136771.99333333338,
      "d": 444.8234999999986,
      "v": 55
    },
    {
      "midi": 49,
      "hit": false,
      "t": 136951.72000000003,
      "d": 444.8234999999986,
      "v": 55
    },
    {
      "midi": 61,
      "hit": false,
      "t": 137311.17333333337,
      "d": 197.699333333323,
      "v": 51
    },
    {
      "midi": 57,
      "hit": false,
      "t": 137311.17333333337,
      "d": 202.19249999997555,
      "v": 53
    },
    {
      "midi": 45,
      "hit": false,
      "t": 137490.90000000002,
      "d": 444.8234999999695,
      "v": 55
    },
    {
      "midi": 57,
      "hit": false,
      "t": 137850.35333333333,
      "d": 107.83599999998114,
      "v": 62
    },
    {
      "midi": 61,
      "hit": false,
      "t": 137850.35333333333,
      "d": 116.82233333331533,
      "v": 68
    },
    {
      "midi": 51,
      "hit": false,
      "t": 138030.08,
      "d": 444.8234999999986,
      "v": 55
    },
    {
      "midi": 57,
      "hit": false,
      "t": 138389.53333333333,
      "d": 121.31549999999697,
      "v": 69
    },
    {
      "midi": 57,
      "hit": false,
      "t": 138569.25999999998,
      "d": 305.53533333333326,
      "v": 71
    },
    {
      "midi": 47,
      "hit": false,
      "t": 138569.25999999998,
      "d": 444.8234999999986,
      "v": 55
    },
    {
      "midi": 54,
      "hit": false,
      "t": 138928.71333333332,
      "d": 296.54899999999907,
      "v": 48
    },
    {
      "midi": 66,
      "hit": false,
      "t": 139108.43999999997,
      "d": 188.71300000001793,
      "v": 53
    },
    {
      "midi": 71,
      "hit": false,
      "t": 139108.43999999997,
      "d": 301.0421666666807,
      "v": 45
    },
    {
      "midi": 51,
      "hit": false,
      "t": 139108.43999999997,
      "d": 444.8234999999986,
      "v": 55
    },
    {
      "midi": 54,
      "hit": false,
      "t": 139467.8933333333,
      "d": 116.82233333331533,
      "v": 40
    },
    {
      "midi": 57,
      "hit": false,
      "t": 139467.8933333333,
      "d": 121.31549999996787,
      "v": 64
    },
    {
      "midi": 71,
      "hit": false,
      "t": 139647.61999999994,
      "d": 287.5626666666649,
      "v": 52
    },
    {
      "midi": 47,
      "hit": false,
      "t": 139647.61999999994,
      "d": 444.8234999999986,
      "v": 55
    },
    {
      "midi": 54,
      "hit": false,
      "t": 140007.07333333328,
      "d": 94.35649999999441,
      "v": 57
    },
    {
      "midi": 52,
      "hit": false,
      "t": 140186.79999999993,
      "d": 444.8234999999986,
      "v": 55
    },
    {
      "midi": 64,
      "hit": false,
      "t": 140546.25333333327,
      "d": 121.31549999999697,
      "v": 40
    },
    {
      "midi": 59,
      "hit": false,
      "t": 140546.25333333327,
      "d": 125.80866666664951,
      "v": 65
    },
    {
      "midi": 47,
      "hit": false,
      "t": 140725.97999999992,
      "d": 444.8234999999986,
      "v": 55
    },
    {
      "midi": 59,
      "hit": false,
      "t": 141085.43333333326,
      "d": 121.31549999999697,
      "v": 64
    },
    {
      "midi": 64,
      "hit": false,
      "t": 141085.43333333326,
      "d": 134.7949999999837,
      "v": 66
    },
    {
      "midi": 52,
      "hit": false,
      "t": 141265.15999999992,
      "d": 444.8234999999986,
      "v": 55
    },
    {
      "midi": 68,
      "hit": false,
      "t": 141444.88666666657,
      "d": 107.83600000001024,
      "v": 39
    },
    {
      "midi": 59,
      "hit": false,
      "t": 141624.61333333325,
      "d": 157.26083333333372,
      "v": 65
    },
    {
      "midi": 56,
      "hit": false,
      "t": 141804.3399999999,
      "d": 319.01483333332,
      "v": 71
    },
    {
      "midi": 47,
      "hit": false,
      "t": 141804.3399999999,
      "d": 444.8234999999695,
      "v": 55
    },
    {
      "midi": 59,
      "hit": false,
      "t": 142163.79333333322,
      "d": 112.32916666666279,
      "v": 43
    },
    {
      "midi": 52,
      "hit": false,
      "t": 142343.51999999987,
      "d": 305.53533333330415,
      "v": 55
    },
    {
      "midi": 56,
      "hit": false,
      "t": 142352.5063333332,
      "d": 319.0148333332909,
      "v": 54
    },
    {
      "midi": 64,
      "hit": false,
      "t": 142365.9858333332,
      "d": 224.65833333332557,
      "v": 69
    },
    {
      "midi": 59,
      "hit": false,
      "t": 142873.7136666665,
      "d": 314.52166666663834,
      "v": 50
    },
    {
      "midi": 47,
      "hit": false,
      "t": 142882.69999999984,
      "d": 292.0558333333174,
      "v": 55
    },
    {
      "midi": 63,
      "hit": false,
      "t": 142896.17949999982,
      "d": 278.5763333333307,
      "v": 69
    },
    {
      "midi": 52,
      "hit": false,
      "t": 143421.8799999998,
      "d": 5405.279499999975,
      "v": 55
    },
    {
      "midi": 64,
      "hit": false,
      "t": 143426.37316666645,
      "d": 5414.265833333309,
      "v": 76
    },
    {
      "midi": 56,
      "hit": false,
      "t": 143426.37316666645,
      "d": 5432.238499999978,
      "v": 51
    }
  ]
}