{
  "jsonPath": "Electronic/Freestyle/Will To Power/baby-i-love-youfreebird.json",
  "path": "Electronic\\Freestyle\\Will To Power\\Baby_ I Love YouFreebird.mid",
  "name": "Baby_ I Love YouFreebird",
  "difficulty": "Advanced",
  "bpm": 75,
  "notes": [
    {
      "midi": 55,
      "hit": false,
      "t": 3204.1666666666665,
      "d": 1604.1666666666665,
      "v": 98
    },
    {
      "midi": 67,
      "hit": false,
      "t": 3804.1666666666665,
      "d": 4.166666666666515,
      "v": 95
    },
    {
      "midi": 71,
      "hit": false,
      "t": 3804.1666666666665,
      "d": 4.166666666666515,
      "v": 95
    },
    {
      "midi": 74,
      "hit": false,
      "t": 3804.1666666666665,
      "d": 4.166666666666515,
      "v": 95
    },
    {
      "midi": 62,
      "hit": false,
      "t": 4204.166666666666,
      "d": 204.16666666666697,
      "v": 93
    },
    {
      "midi": 67,
      "hit": false,
      "t": 4404.166666666666,
      "d": 204.16666666666697,
      "v": 72
    },
    {
      "midi": 71,
      "hit": false,
      "t": 4604.166666666666,
      "d": 204.16666666666697,
      "v": 95
    },
    {
      "midi": 54,
      "hit": false,
      "t": 4804.166666666666,
      "d": 1604.166666666667,
      "v": 90
    },
    {
      "midi": 62,
      "hit": false,
      "t": 5404.166666666666,
      "d": 4.16666666666697,
      "v": 110
    },
    {
      "midi": 66,
      "hit": false,
      "t": 5404.166666666666,
      "d": 4.16666666666697,
      "v": 110
    },
    {
      "midi": 69,
      "hit": false,
      "t": 5404.166666666666,
      "d": 4.16666666666697,
      "v": 110
    },
    {
      "midi": 66,
      "hit": false,
      "t": 6004.166666666666,
      "d": 4.16666666666697,
      "v": 95
    },
    {
      "midi": 69,
      "hit": false,
      "t": 6204.166666666666,
      "d": 204.16666666666697,
      "v": 84
    },
    {
      "midi": 64,
      "hit": false,
      "t": 7004.166666666666,
      "d": 4.16666666666697,
      "v": 90
    },
    {
      "midi": 67,
      "hit": false,
      "t": 7004.166666666666,
      "d": 4.16666666666697,
      "v": 90
    },
    {
      "midi": 71,
      "hit": false,
      "t": 7004.166666666666,
      "d": 4.16666666666697,
      "v": 90
    },
    {
      "midi": 64,
      "hit": false,
      "t": 7404.166666666666,
      "d": 4.16666666666697,
      "v": 110
    },
    {
      "midi": 67,
      "hit": false,
      "t": 7604.166666666666,
      "d": 204.16666666666697,
      "v": 116
    },
    {
      "midi": 71,
      "hit": false,
      "t": 7804.166666666666,
      "d": 204.16666666666697,
      "v": 81
    },
    {
      "midi": 76,
      "hit": false,
      "t": 8004.166666666666,
      "d": 204.16666666666606,
      "v": 107
    },
    {
      "midi": 71,
      "hit": false,
      "t": 8204.166666666666,
      "d": 204.16666666666606,
      "v": 104
    },
    {
      "midi": 67,
      "hit": false,
      "t": 8404.166666666666,
      "d": 204.16666666666606,
      "v": 87
    },
    {
      "midi": 52,
      "hit": false,
      "t": 8804.166666666666,
      "d": 4.16666666666606,
      "v": 93
    },
    {
      "midi": 64,
      "hit": false,
      "t": 8804.166666666666,
      "d": 4.16666666666606,
      "v": 93
    },
    {
      "midi": 59,
      "hit": false,
      "t": 8804.166666666666,
      "d": 404.16666666666606,
      "v": 93
    },
    {
      "midi": 67,
      "hit": false,
      "t": 8804.166666666666,
      "d": 404.16666666666606,
      "v": 93
    },
    {
      "midi": 50,
      "hit": false,
      "t": 9204.166666666666,
      "d": 404.16666666666606,
      "v": 81
    },
    {
      "midi": 57,
      "hit": false,
      "t": 9204.166666666666,
      "d": 404.16666666666606,
      "v": 81
    },
    {
      "midi": 62,
      "hit": false,
      "t": 9204.166666666666,
      "d": 404.16666666666606,
      "v": 81
    },
    {
      "midi": 66,
      "hit": false,
      "t": 9204.166666666666,
      "d": 404.16666666666606,
      "v": 81
    },
    {
      "midi": 55,
      "hit": false,
      "t": 10204.166666666666,
      "d": 4.16666666666606,
      "v": 107
    },
    {
      "midi": 60,
      "hit": false,
      "t": 10204.166666666666,
      "d": 4.16666666666606,
      "v": 107
    },
    {
      "midi": 64,
      "hit": false,
      "t": 10204.166666666666,
      "d": 4.16666666666606,
      "v": 107
    },
    {
      "midi": 64,
      "hit": false,
      "t": 10804.166666666666,
      "d": 4.16666666666606,
      "v": 90
    },
    {
      "midi": 48,
      "hit": false,
      "t": 11004.166666666666,
      "d": 4.16666666666606,
      "v": 66
    },
    {
      "midi": 62,
      "hit": false,
      "t": 11204.166666666666,
      "d": 4.16666666666606,
      "v": 81
    },
    {
      "midi": 54,
      "hit": false,
      "t": 11604.166666666666,
      "d": 4.16666666666606,
      "v": 110
    },
    {
      "midi": 57,
      "hit": false,
      "t": 11604.166666666666,
      "d": 4.16666666666606,
      "v": 110
    },
    {
      "midi": 62,
      "hit": false,
      "t": 11604.166666666666,
      "d": 4.16666666666606,
      "v": 110
    },
    {
      "midi": 62,
      "hit": false,
      "t": 12404.166666666666,
      "d": 4.16666666666606,
      "v": 87
    },
    {
      "midi": 47,
      "hit": false,
      "t": 12604.166666666666,
      "d": 4.16666666666606,
      "v": 69
    },
    {
      "midi": 60,
      "hit": false,
      "t": 12804.166666666666,
      "d": 4.16666666666606,
      "v": 81
    },
    {
      "midi": 45,
      "hit": false,
      "t": 12804.166666666666,
      "d": 404.16666666666606,
      "v": 81
    },
    {
      "midi": 57,
      "hit": false,
      "t": 12804.166666666666,
      "d": 404.16666666666606,
      "v": 81
    },
    {
      "midi": 64,
      "hit": false,
      "t": 12804.166666666666,
      "d": 404.16666666666606,
      "v": 81
    },
    {
      "midi": 47,
      "hit": false,
      "t": 13204.166666666666,
      "d": 404.16666666666606,
      "v": 75
    },
    {
      "midi": 59,
      "hit": false,
      "t": 13204.166666666666,
      "d": 404.16666666666606,
      "v": 75
    },
    {
      "midi": 62,
      "hit": false,
      "t": 13204.166666666666,
      "d": 404.16666666666606,
      "v": 75
    },
    {
      "midi": 66,
      "hit": false,
      "t": 13204.166666666666,
      "d": 404.16666666666606,
      "v": 75
    },
    {
      "midi": 48,
      "hit": false,
      "t": 13604.166666666666,
      "d": 404.16666666666606,
      "v": 81
    },
    {
      "midi": 60,
      "hit": false,
      "t": 14004.166666666666,
      "d": 4.16666666666606,
      "v": 98
    },
    {
      "midi": 64,
      "hit": false,
      "t": 14004.166666666666,
      "d": 4.16666666666606,
      "v": 98
    },
    {
      "midi": 67,
      "hit": false,
      "t": 14004.166666666666,
      "d": 4.16666666666606,
      "v": 98
    },
    {
      "midi": 50,
      "hit": false,
      "t": 14004.166666666666,
      "d": 2004.166666666666,
      "v": 98
    },
    {
      "midi": 69,
      "hit": false,
      "t": 14004.166666666666,
      "d": 2004.166666666666,
      "v": 98
    },
    {
      "midi": 67,
      "hit": false,
      "t": 16004.166666666666,
      "d": 4.16666666666606,
      "v": 90
    },
    {
      "midi": 59,
      "hit": false,
      "t": 17204.166666666664,
      "d": 4.166666666667879,
      "v": 95
    },
    {
      "midi": 62,
      "hit": false,
      "t": 17204.166666666664,
      "d": 4.166666666667879,
      "v": 95
    },
    {
      "midi": 67,
      "hit": false,
      "t": 17204.166666666664,
      "d": 4.166666666667879,
      "v": 95
    },
    {
      "midi": 62,
      "hit": false,
      "t": 17604.166666666664,
      "d": 4.166666666667879,
      "v": 107
    },
    {
      "midi": 57,
      "hit": false,
      "t": 18804.166666666664,
      "d": 4.166666666667879,
      "v": 90
    },
    {
      "midi": 62,
      "hit": false,
      "t": 18804.166666666664,
      "d": 4.166666666667879,
      "v": 90
    },
    {
      "midi": 66,
      "hit": false,
      "t": 18804.166666666664,
      "d": 4.166666666667879,
      "v": 90
    },
    {
      "midi": 55,
      "hit": false,
      "t": 19204.166666666664,
      "d": 2404.166666666668,
      "v": 116
    },
    {
      "midi": 59,
      "hit": false,
      "t": 19204.166666666664,
      "d": 2404.166666666668,
      "v": 116
    },
    {
      "midi": 64,
      "hit": false,
      "t": 19204.166666666664,
      "d": 2404.166666666668,
      "v": 116
    },
    {
      "midi": 67,
      "hit": false,
      "t": 21604.166666666664,
      "d": 404.1666666666679,
      "v": 95
    },
    {
      "midi": 71,
      "hit": false,
      "t": 21604.166666666664,
      "d": 404.1666666666679,
      "v": 95
    },
    {
      "midi": 66,
      "hit": false,
      "t": 22004.166666666664,
      "d": 404.1666666666679,
      "v": 87
    },
    {
      "midi": 69,
      "hit": false,
      "t": 22004.166666666664,
      "d": 404.1666666666679,
      "v": 87
    },
    {
      "midi": 60,
      "hit": false,
      "t": 22404.166666666664,
      "d": 1204.1666666666679,
      "v": 101
    },
    {
      "midi": 67,
      "hit": false,
      "t": 22404.166666666664,
      "d": 1204.1666666666679,
      "v": 101
    },
    {
      "midi": 64,
      "hit": false,
      "t": 23604.166666666664,
      "d": 4.166666666667879,
      "v": 75
    },
    {
      "midi": 67,
      "hit": false,
      "t": 23804.166666666664,
      "d": 1404.1666666666679,
      "v": 122
    },
    {
      "midi": 60,
      "hit": false,
      "t": 25204.166666666664,
      "d": 204.16666666666788,
      "v": 93
    },
    {
      "midi": 64,
      "hit": false,
      "t": 25404.166666666664,
      "d": 204.16666666666788,
      "v": 81
    },
    {
      "midi": 57,
      "hit": false,
      "t": 25604.166666666664,
      "d": 1604.1666666666679,
      "v": 113
    },
    {
      "midi": 63,
      "hit": false,
      "t": 25604.166666666664,
      "d": 1604.1666666666679,
      "v": 113
    },
    {
      "midi": 67,
      "hit": false,
      "t": 27204.166666666664,
      "d": 4.166666666667879,
      "v": 101
    },
    {
      "midi": 63,
      "hit": false,
      "t": 27404.166666666664,
      "d": 204.16666666666788,
      "v": 78
    },
    {
      "midi": 60,
      "hit": false,
      "t": 27604.166666666664,
      "d": 204.16666666666788,
      "v": 98
    },
    {
      "midi": 57,
      "hit": false,
      "t": 27804.166666666664,
      "d": 204.16666666666788,
      "v": 93
    },
    {
      "midi": 53,
      "hit": false,
      "t": 28004.166666666664,
      "d": 804.1666666666679,
      "v": 110
    },
    {
      "midi": 59,
      "hit": false,
      "t": 28804.166666666664,
      "d": 1604.1666666666679,
      "v": 104
    },
    {
      "midi": 67,
      "hit": false,
      "t": 28804.166666666664,
      "d": 1604.1666666666679,
      "v": 104
    },
    {
      "midi": 62,
      "hit": false,
      "t": 30404.166666666664,
      "d": 4.166666666667879,
      "v": 101
    },
    {
      "midi": 57,
      "hit": false,
      "t": 31604.166666666664,
      "d": 4.166666666667879,
      "v": 81
    },
    {
      "midi": 62,
      "hit": false,
      "t": 31604.166666666664,
      "d": 4.166666666667879,
      "v": 81
    },
    {
      "midi": 66,
      "hit": false,
      "t": 31604.166666666664,
      "d": 4.166666666667879,
      "v": 81
    },
    {
      "midi": 55,
      "hit": false,
      "t": 32004.166666666664,
      "d": 1604.1666666666642,
      "v": 95
    },
    {
      "midi": 59,
      "hit": false,
      "t": 32004.166666666664,
      "d": 1604.1666666666642,
      "v": 95
    },
    {
      "midi": 64,
      "hit": false,
      "t": 32004.166666666664,
      "d": 1604.1666666666642,
      "v": 95
    },
    {
      "midi": 76,
      "hit": false,
      "t": 33604.166666666664,
      "d": 204.16666666666424,
      "v": 95
    },
    {
      "midi": 71,
      "hit": false,
      "t": 33804.166666666664,
      "d": 204.16666666666424,
      "v": 81
    },
    {
      "midi": 67,
      "hit": false,
      "t": 34004.166666666664,
      "d": 204.16666666666424,
      "v": 104
    },
    {
      "midi": 64,
      "hit": false,
      "t": 34204.166666666664,
      "d": 604.1666666666642,
      "v": 113
    },
    {
      "midi": 66,
      "hit": false,
      "t": 34804.166666666664,
      "d": 404.16666666666424,
      "v": 93
    },
    {
      "midi": 69,
      "hit": false,
      "t": 34804.166666666664,
      "d": 404.16666666666424,
      "v": 93
    },
    {
      "midi": 60,
      "hit": false,
      "t": 35204.166666666664,
      "d": 1604.1666666666642,
      "v": 116
    },
    {
      "midi": 64,
      "hit": false,
      "t": 35204.166666666664,
      "d": 1604.1666666666642,
      "v": 116
    },
    {
      "midi": 67,
      "hit": false,
      "t": 36804.166666666664,
      "d": 4.166666666664241,
      "v": 95
    },
    {
      "midi": 67,
      "hit": false,
      "t": 37604.166666666664,
      "d": 4.166666666664241,
      "v": 98
    },
    {
      "midi": 64,
      "hit": false,
      "t": 38004.166666666664,
      "d": 404.16666666666424,
      "v": 93
    },
    {
      "midi": 57,
      "hit": false,
      "t": 38404.166666666664,
      "d": 1604.1666666666642,
      "v": 52
    },
    {
      "midi": 63,
      "hit": false,
      "t": 38404.166666666664,
      "d": 1604.1666666666642,
      "v": 52
    },
    {
      "midi": 67,
      "hit": false,
      "t": 40004.166666666664,
      "d": 4.166666666664241,
      "v": 101
    },
    {
      "midi": 63,
      "hit": false,
      "t": 40204.166666666664,
      "d": 204.16666666666424,
      "v": 95
    },
    {
      "midi": 60,
      "hit": false,
      "t": 40404.166666666664,
      "d": 204.16666666666424,
      "v": 104
    },
    {
      "midi": 57,
      "hit": false,
      "t": 40604.166666666664,
      "d": 204.16666666666424,
      "v": 90
    },
    {
      "midi": 53,
      "hit": false,
      "t": 40804.166666666664,
      "d": 804.1666666666642,
      "v": 116
    },
    {
      "midi": 59,
      "hit": false,
      "t": 43604.166666666664,
      "d": 4.166666666664241,
      "v": 93
    },
    {
      "midi": 62,
      "hit": false,
      "t": 43604.166666666664,
      "d": 4.166666666664241,
      "v": 93
    },
    {
      "midi": 66,
      "hit": false,
      "t": 43604.166666666664,
      "d": 4.166666666664241,
      "v": 93
    },
    {
      "midi": 59,
      "hit": false,
      "t": 44404.166666666664,
      "d": 4.166666666664241,
      "v": 87
    },
    {
      "midi": 62,
      "hit": false,
      "t": 44404.166666666664,
      "d": 4.166666666664241,
      "v": 87
    },
    {
      "midi": 53,
      "hit": false,
      "t": 44404.166666666664,
      "d": 404.16666666666424,
      "v": 87
    },
    {
      "midi": 59,
      "hit": false,
      "t": 44804.166666666664,
      "d": 4.166666666664241,
      "v": 110
    },
    {
      "midi": 56,
      "hit": false,
      "t": 44804.166666666664,
      "d": 1804.1666666666642,
      "v": 110
    },
    {
      "midi": 59,
      "hit": false,
      "t": 46604.166666666664,
      "d": 4.166666666664241,
      "v": 95
    },
    {
      "midi": 64,
      "hit": false,
      "t": 46604.166666666664,
      "d": 4.166666666664241,
      "v": 95
    },
    {
      "midi": 57,
      "hit": false,
      "t": 48004.166666666664,
      "d": 4.166666666664241,
      "v": 110
    },
    {
      "midi": 64,
      "hit": false,
      "t": 48004.166666666664,
      "d": 4.166666666664241,
      "v": 110
    },
    {
      "midi": 57,
      "hit": false,
      "t": 50004.166666666664,
      "d": 4.166666666664241,
      "v": 110
    },
    {
      "midi": 60,
      "hit": false,
      "t": 50004.166666666664,
      "d": 4.166666666664241,
      "v": 110
    },
    {
      "midi": 64,
      "hit": false,
      "t": 50004.166666666664,
      "d": 4.166666666664241,
      "v": 110
    },
    {
      "midi": 57,
      "hit": false,
      "t": 50604.166666666664,
      "d": 4.166666666664241,
      "v": 93
    },
    {
      "midi": 60,
      "hit": false,
      "t": 50604.166666666664,
      "d": 4.166666666664241,
      "v": 93
    },
    {
      "midi": 64,
      "hit": false,
      "t": 50604.166666666664,
      "d": 4.166666666664241,
      "v": 93
    },
    {
      "midi": 57,
      "hit": false,
      "t": 51204.166666666664,
      "d": 4.166666666664241,
      "v": 101
    },
    {
      "midi": 60,
      "hit": false,
      "t": 51204.166666666664,
      "d": 4.166666666664241,
      "v": 101
    },
    {
      "midi": 64,
      "hit": false,
      "t": 51204.166666666664,
      "d": 4.166666666664241,
      "v": 101
    },
    {
      "midi": 57,
      "hit": false,
      "t": 52204.166666666664,
      "d": 4.166666666664241,
      "v": 93
    },
    {
      "midi": 60,
      "hit": false,
      "t": 52204.166666666664,
      "d": 4.166666666664241,
      "v": 93
    },
    {
      "midi": 64,
      "hit": false,
      "t": 52204.166666666664,
      "d": 4.166666666664241,
      "v": 93
    },
    {
      "midi": 57,
      "hit": false,
      "t": 52804.166666666664,
      "d": 4.166666666664241,
      "v": 107
    },
    {
      "midi": 57,
      "hit": false,
      "t": 53804.166666666664,
      "d": 4.166666666664241,
      "v": 90
    },
    {
      "midi": 62,
      "hit": false,
      "t": 53804.166666666664,
      "d": 4.166666666664241,
      "v": 90
    },
    {
      "midi": 66,
      "hit": false,
      "t": 53804.166666666664,
      "d": 4.166666666664241,
      "v": 90
    },
    {
      "midi": 62,
      "hit": false,
      "t": 54404.166666666664,
      "d": 4.166666666664241,
      "v": 101
    },
    {
      "midi": 59,
      "hit": false,
      "t": 54404.166666666664,
      "d": 1604.1666666666642,
      "v": 101
    },
    {
      "midi": 67,
      "hit": false,
      "t": 54404.166666666664,
      "d": 1604.1666666666642,
      "v": 101
    },
    {
      "midi": 62,
      "hit": false,
      "t": 56004.166666666664,
      "d": 4.166666666664241,
      "v": 95
    },
    {
      "midi": 57,
      "hit": false,
      "t": 56004.166666666664,
      "d": 1604.1666666666642,
      "v": 95
    },
    {
      "midi": 66,
      "hit": false,
      "t": 56004.166666666664,
      "d": 1604.1666666666642,
      "v": 95
    },
    {
      "midi": 57,
      "hit": false,
      "t": 58804.166666666664,
      "d": 4.166666666664241,
      "v": 87
    },
    {
      "midi": 60,
      "hit": false,
      "t": 58804.166666666664,
      "d": 4.166666666664241,
      "v": 87
    },
    {
      "midi": 64,
      "hit": false,
      "t": 58804.166666666664,
      "d": 4.166666666664241,
      "v": 87
    },
    {
      "midi": 60,
      "hit": false,
      "t": 59404.166666666664,
      "d": 4.166666666664241,
      "v": 104
    },
    {
      "midi": 64,
      "hit": false,
      "t": 59404.166666666664,
      "d": 4.166666666664241,
      "v": 104
    },
    {
      "midi": 60,
      "hit": false,
      "t": 60004.166666666664,
      "d": 4.166666666664241,
      "v": 93
    },
    {
      "midi": 64,
      "hit": false,
      "t": 60004.166666666664,
      "d": 4.166666666664241,
      "v": 93
    },
    {
      "midi": 59,
      "hit": false,
      "t": 60204.166666666664,
      "d": 204.16666666666424,
      "v": 90
    },
    {
      "midi": 62,
      "hit": false,
      "t": 60204.166666666664,
      "d": 204.16666666666424,
      "v": 90
    },
    {
      "midi": 57,
      "hit": false,
      "t": 60404.166666666664,
      "d": 404.16666666666424,
      "v": 116
    },
    {
      "midi": 60,
      "hit": false,
      "t": 60404.166666666664,
      "d": 404.16666666666424,
      "v": 116
    },
    {
      "midi": 59,
      "hit": false,
      "t": 60804.166666666664,
      "d": 1604.1666666666642,
      "v": 107
    },
    {
      "midi": 67,
      "hit": false,
      "t": 60804.166666666664,
      "d": 1604.1666666666642,
      "v": 107
    },
    {
      "midi": 62,
      "hit": false,
      "t": 62404.166666666664,
      "d": 4.166666666664241,
      "v": 104
    },
    {
      "midi": 66,
      "hit": false,
      "t": 62404.166666666664,
      "d": 1604.1666666666642,
      "v": 104
    },
    {
      "midi": 57,
      "hit": false,
      "t": 64004.166666666664,
      "d": 4.166666666664241,
      "v": 93
    },
    {
      "midi": 57,
      "hit": false,
      "t": 64604.166666666664,
      "d": 4.166666666664241,
      "v": 101
    },
    {
      "midi": 60,
      "hit": false,
      "t": 64604.166666666664,
      "d": 4.166666666664241,
      "v": 101
    },
    {
      "midi": 64,
      "hit": false,
      "t": 64604.166666666664,
      "d": 4.166666666664241,
      "v": 101
    },
    {
      "midi": 57,
      "hit": false,
      "t": 65204.166666666664,
      "d": 4.166666666664241,
      "v": 81
    },
    {
      "midi": 60,
      "hit": false,
      "t": 65204.166666666664,
      "d": 4.166666666664241,
      "v": 81
    },
    {
      "midi": 64,
      "hit": false,
      "t": 65204.166666666664,
      "d": 4.166666666664241,
      "v": 81
    },
    {
      "midi": 57,
      "hit": false,
      "t": 65804.16666666666,
      "d": 4.166666666671517,
      "v": 101
    },
    {
      "midi": 60,
      "hit": false,
      "t": 65804.16666666666,
      "d": 4.166666666671517,
      "v": 101
    },
    {
      "midi": 64,
      "hit": false,
      "t": 65804.16666666666,
      "d": 4.166666666671517,
      "v": 101
    },
    {
      "midi": 60,
      "hit": false,
      "t": 66404.16666666666,
      "d": 4.166666666671517,
      "v": 93
    },
    {
      "midi": 64,
      "hit": false,
      "t": 66404.16666666666,
      "d": 4.166666666671517,
      "v": 93
    },
    {
      "midi": 59,
      "hit": false,
      "t": 66604.16666666666,
      "d": 204.16666666667152,
      "v": 81
    },
    {
      "midi": 62,
      "hit": false,
      "t": 66604.16666666666,
      "d": 204.16666666667152,
      "v": 81
    },
    {
      "midi": 57,
      "hit": false,
      "t": 66804.16666666666,
      "d": 404.1666666666715,
      "v": 113
    },
    {
      "midi": 60,
      "hit": false,
      "t": 66804.16666666666,
      "d": 404.1666666666715,
      "v": 113
    },
    {
      "midi": 59,
      "hit": false,
      "t": 67204.16666666666,
      "d": 1604.1666666666715,
      "v": 101
    },
    {
      "midi": 67,
      "hit": false,
      "t": 67204.16666666666,
      "d": 1604.1666666666715,
      "v": 101
    },
    {
      "midi": 62,
      "hit": false,
      "t": 68804.16666666666,
      "d": 4.166666666671517,
      "v": 110
    },
    {
      "midi": 66,
      "hit": false,
      "t": 68804.16666666666,
      "d": 1604.1666666666715,
      "v": 110
    },
    {
      "midi": 57,
      "hit": false,
      "t": 70404.16666666666,
      "d": 4.166666666671517,
      "v": 93
    },
    {
      "midi": 57,
      "hit": false,
      "t": 71004.16666666666,
      "d": 4.166666666671517,
      "v": 101
    },
    {
      "midi": 60,
      "hit": false,
      "t": 71004.16666666666,
      "d": 4.166666666671517,
      "v": 101
    },
    {
      "midi": 64,
      "hit": false,
      "t": 71004.16666666666,
      "d": 4.166666666671517,
      "v": 101
    },
    {
      "midi": 57,
      "hit": false,
      "t": 71604.16666666666,
      "d": 4.166666666671517,
      "v": 81
    },
    {
      "midi": 60,
      "hit": false,
      "t": 71604.16666666666,
      "d": 4.166666666671517,
      "v": 81
    },
    {
      "midi": 64,
      "hit": false,
      "t": 71604.16666666666,
      "d": 4.166666666671517,
      "v": 81
    },
    {
      "midi": 57,
      "hit": false,
      "t": 72204.16666666666,
      "d": 4.166666666671517,
      "v": 101
    },
    {
      "midi": 60,
      "hit": false,
      "t": 72204.16666666666,
      "d": 4.166666666671517,
      "v": 101
    },
    {
      "midi": 64,
      "hit": false,
      "t": 72204.16666666666,
      "d": 4.166666666671517,
      "v": 101
    },
    {
      "midi": 60,
      "hit": false,
      "t": 72804.16666666666,
      "d": 4.166666666671517,
      "v": 93
    },
    {
      "midi": 64,
      "hit": false,
      "t": 72804.16666666666,
      "d": 4.166666666671517,
      "v": 93
    },
    {
      "midi": 59,
      "hit": false,
      "t": 73004.16666666666,
      "d": 204.16666666667152,
      "v": 81
    },
    {
      "midi": 62,
      "hit": false,
      "t": 73004.16666666666,
      "d": 204.16666666667152,
      "v": 81
    },
    {
      "midi": 57,
      "hit": false,
      "t": 73204.16666666666,
      "d": 404.1666666666715,
      "v": 113
    },
    {
      "midi": 60,
      "hit": false,
      "t": 73604.16666666666,
      "d": 4.166666666671517,
      "v": 98
    },
    {
      "midi": 55,
      "hit": false,
      "t": 74204.16666666666,
      "d": 4.166666666671517,
      "v": 93
    },
    {
      "midi": 60,
      "hit": false,
      "t": 74204.16666666666,
      "d": 4.166666666671517,
      "v": 93
    },
    {
      "midi": 64,
      "hit": false,
      "t": 74204.16666666666,
      "d": 4.166666666671517,
      "v": 93
    },
    {
      "midi": 64,
      "hit": false,
      "t": 74804.16666666666,
      "d": 4.166666666671517,
      "v": 93
    },
    {
      "midi": 62,
      "hit": false,
      "t": 75204.16666666666,
      "d": 4.166666666671517,
      "v": 93
    },
    {
      "midi": 54,
      "hit": false,
      "t": 75604.16666666666,
      "d": 4.166666666671517,
      "v": 110
    },
    {
      "midi": 59,
      "hit": false,
      "t": 75604.16666666666,
      "d": 4.166666666671517,
      "v": 110
    },
    {
      "midi": 62,
      "hit": false,
      "t": 75604.16666666666,
      "d": 4.166666666671517,
      "v": 110
    },
    {
      "midi": 62,
      "hit": false,
      "t": 76404.16666666666,
      "d": 4.166666666671517,
      "v": 78
    },
    {
      "midi": 60,
      "hit": false,
      "t": 76804.16666666666,
      "d": 4.166666666671517,
      "v": 87
    },
    {
      "midi": 57,
      "hit": false,
      "t": 76804.16666666666,
      "d": 404.1666666666715,
      "v": 87
    },
    {
      "midi": 64,
      "hit": false,
      "t": 76804.16666666666,
      "d": 404.1666666666715,
      "v": 87
    },
    {
      "midi": 59,
      "hit": false,
      "t": 77204.16666666666,
      "d": 404.1666666666715,
      "v": 95
    },
    {
      "midi": 62,
      "hit": false,
      "t": 77204.16666666666,
      "d": 404.1666666666715,
      "v": 95
    },
    {
      "midi": 66,
      "hit": false,
      "t": 77204.16666666666,
      "d": 404.1666666666715,
      "v": 95
    },
    {
      "midi": 60,
      "hit": false,
      "t": 78004.16666666666,
      "d": 4.166666666671517,
      "v": 119
    },
    {
      "midi": 64,
      "hit": false,
      "t": 78004.16666666666,
      "d": 4.166666666671517,
      "v": 119
    },
    {
      "midi": 67,
      "hit": false,
      "t": 78004.16666666666,
      "d": 4.166666666671517,
      "v": 119
    },
    {
      "midi": 69,
      "hit": false,
      "t": 78004.16666666666,
      "d": 2004.1666666666715,
      "v": 119
    },
    {
      "midi": 67,
      "hit": false,
      "t": 80004.16666666666,
      "d": 4.166666666671517,
      "v": 107
    },
    {
      "midi": 59,
      "hit": false,
      "t": 80004.16666666666,
      "d": 1604.1666666666715,
      "v": 107
    },
    {
      "midi": 62,
      "hit": false,
      "t": 81604.16666666666,
      "d": 4.166666666671517,
      "v": 101
    },
    {
      "midi": 57,
      "hit": false,
      "t": 81604.16666666666,
      "d": 1604.1666666666715,
      "v": 101
    },
    {
      "midi": 66,
      "hit": false,
      "t": 81604.16666666666,
      "d": 1604.1666666666715,
      "v": 101
    },
    {
      "midi": 67,
      "hit": false,
      "t": 83204.16666666666,
      "d": 2804.1666666666715,
      "v": 113
    },
    {
      "midi": 59,
      "hit": false,
      "t": 86004.16666666666,
      "d": 4.166666666671517,
      "v": 90
    },
    {
      "midi": 64,
      "hit": false,
      "t": 86004.16666666666,
      "d": 4.166666666671517,
      "v": 90
    },
    {
      "midi": 55,
      "hit": false,
      "t": 86004.16666666666,
      "d": 404.1666666666715,
      "v": 90
    },
    {
      "midi": 57,
      "hit": false,
      "t": 86404.16666666666,
      "d": 1604.1666666666715,
      "v": 104
    },
    {
      "midi": 65,
      "hit": false,
      "t": 86404.16666666666,
      "d": 1604.1666666666715,
      "v": 104
    },
    {
      "midi": 60,
      "hit": false,
      "t": 88004.16666666666,
      "d": 4.166666666671517,
      "v": 95
    },
    {
      "midi": 55,
      "hit": false,
      "t": 89204.16666666666,
      "d": 4.166666666671517,
      "v": 87
    },
    {
      "midi": 60,
      "hit": false,
      "t": 89204.16666666666,
      "d": 4.166666666671517,
      "v": 87
    },
    {
      "midi": 64,
      "hit": false,
      "t": 89204.16666666666,
      "d": 4.166666666671517,
      "v": 87
    },
    {
      "midi": 54,
      "hit": false,
      "t": 89604.16666666666,
      "d": 3204.1666666666715,
      "v": 98
    },
    {
      "midi": 57,
      "hit": false,
      "t": 89604.16666666666,
      "d": 3204.1666666666715,
      "v": 98
    },
    {
      "midi": 62,
      "hit": false,
      "t": 91404.16666666666,
      "d": 4.166666666671517,
      "v": 95
    },
    {
      "midi": 79,
      "hit": false,
      "t": 91804.16666666666,
      "d": 204.16666666667152,
      "v": 93
    },
    {
      "midi": 78,
      "hit": false,
      "t": 92004.16666666666,
      "d": 204.16666666667152,
      "v": 101
    },
    {
      "midi": 74,
      "hit": false,
      "t": 92204.16666666666,
      "d": 204.16666666667152,
      "v": 75
    },
    {
      "midi": 69,
      "hit": false,
      "t": 92404.16666666666,
      "d": 204.16666666667152,
      "v": 87
    },
    {
      "midi": 74,
      "hit": false,
      "t": 92604.16666666666,
      "d": 204.16666666667152,
      "v": 116
    },
    {
      "midi": 62,
      "hit": false,
      "t": 92804.16666666666,
      "d": 4.166666666671517,
      "v": 98
    },
    {
      "midi": 59,
      "hit": false,
      "t": 92804.16666666666,
      "d": 1604.1666666666715,
      "v": 98
    },
    {
      "midi": 67,
      "hit": false,
      "t": 92804.16666666666,
      "d": 1604.1666666666715,
      "v": 98
    },
    {
      "midi": 62,
      "hit": false,
      "t": 94404.16666666666,
      "d": 4.166666666671517,
      "v": 90
    },
    {
      "midi": 57,
      "hit": false,
      "t": 95604.16666666666,
      "d": 4.166666666671517,
      "v": 81
    },
    {
      "midi": 62,
      "hit": false,
      "t": 95604.16666666666,
      "d": 4.166666666671517,
      "v": 81
    },
    {
      "midi": 66,
      "hit": false,
      "t": 95604.16666666666,
      "d": 4.166666666671517,
      "v": 81
    },
    {
      "midi": 64,
      "hit": false,
      "t": 96004.16666666666,
      "d": 1004.1666666666715,
      "v": 95
    },
    {
      "midi": 67,
      "hit": false,
      "t": 96004.16666666666,
      "d": 1004.1666666666715,
      "v": 95
    },
    {
      "midi": 59,
      "hit": false,
      "t": 97004.16666666666,
      "d": 4.166666666671517,
      "v": 110
    },
    {
      "midi": 64,
      "hit": false,
      "t": 97204.16666666666,
      "d": 204.16666666667152,
      "v": 78
    },
    {
      "midi": 67,
      "hit": false,
      "t": 97404.16666666666,
      "d": 204.16666666667152,
      "v": 87
    },
    {
      "midi": 71,
      "hit": false,
      "t": 97604.16666666666,
      "d": 1204.1666666666715,
      "v": 116
    },
    {
      "midi": 55,
      "hit": false,
      "t": 98804.16666666666,
      "d": 404.1666666666715,
      "v": 95
    },
    {
      "midi": 59,
      "hit": false,
      "t": 98804.16666666666,
      "d": 404.1666666666715,
      "v": 95
    },
    {
      "midi": 64,
      "hit": false,
      "t": 98804.16666666666,
      "d": 404.1666666666715,
      "v": 95
    },
    {
      "midi": 57,
      "hit": false,
      "t": 99204.16666666666,
      "d": 1604.1666666666715,
      "v": 107
    },
    {
      "midi": 65,
      "hit": false,
      "t": 100004.16666666666,
      "d": 4.166666666671517,
      "v": 90
    },
    {
      "midi": 69,
      "hit": false,
      "t": 100404.16666666666,
      "d": 404.1666666666715,
      "v": 75
    },
    {
      "midi": 60,
      "hit": false,
      "t": 100804.16666666666,
      "d": 4.166666666671517,
      "v": 101
    },
    {
      "midi": 55,
      "hit": false,
      "t": 100804.16666666666,
      "d": 804.1666666666715,
      "v": 101
    },
    {
      "midi": 64,
      "hit": false,
      "t": 100804.16666666666,
      "d": 804.1666666666715,
      "v": 101
    },
    {
      "midi": 60,
      "hit": false,
      "t": 101604.16666666666,
      "d": 4.166666666671517,
      "v": 90
    },
    {
      "midi": 60,
      "hit": false,
      "t": 102004.16666666666,
      "d": 4.166666666671517,
      "v": 93
    },
    {
      "midi": 64,
      "hit": false,
      "t": 102204.16666666666,
      "d": 204.16666666667152,
      "v": 84
    },
    {
      "midi": 54,
      "hit": false,
      "t": 102404.16666666666,
      "d": 1604.1666666666715,
      "v": 104
    },
    {
      "midi": 57,
      "hit": false,
      "t": 102404.16666666666,
      "d": 1604.1666666666715,
      "v": 104
    },
    {
      "midi": 62,
      "hit": false,
      "t": 104004.16666666666,
      "d": 4.166666666671517,
      "v": 101
    },
    {
      "midi": 64,
      "hit": false,
      "t": 104204.16666666666,
      "d": 204.16666666667152,
      "v": 78
    },
    {
      "midi": 66,
      "hit": false,
      "t": 104404.16666666666,
      "d": 204.16666666667152,
      "v": 107
    },
    {
      "midi": 67,
      "hit": false,
      "t": 104604.16666666666,
      "d": 404.1666666666715,
      "v": 72
    },
    {
      "midi": 64,
      "hit": false,
      "t": 105004.16666666666,
      "d": 204.16666666667152,
      "v": 104
    },
    {
      "midi": 67,
      "hit": false,
      "t": 105204.16666666666,
      "d": 204.16666666667152,
      "v": 84
    },
    {
      "midi": 64,
      "hit": false,
      "t": 105404.16666666666,
      "d": 204.16666666667152,
      "v": 104
    },
    {
      "midi": 59,
      "hit": false,
      "t": 105604.16666666666,
      "d": 804.1666666666715,
      "v": 113
    },
    {
      "midi": 67,
      "hit": false,
      "t": 105604.16666666666,
      "d": 804.1666666666715,
      "v": 113
    },
    {
      "midi": 62,
      "hit": false,
      "t": 106404.16666666666,
      "d": 4.166666666671517,
      "v": 72
    },
    {
      "midi": 67,
      "hit": false,
      "t": 106804.16666666666,
      "d": 404.1666666666715,
      "v": 95
    },
    {
      "midi": 57,
      "hit": false,
      "t": 107204.16666666666,
      "d": 804.1666666666715,
      "v": 110
    },
    {
      "midi": 66,
      "hit": false,
      "t": 107204.16666666666,
      "d": 804.1666666666715,
      "v": 110
    },
    {
      "midi": 62,
      "hit": false,
      "t": 108004.16666666666,
      "d": 4.166666666671517,
      "v": 90
    },
    {
      "midi": 66,
      "hit": false,
      "t": 108404.16666666666,
      "d": 404.1666666666715,
      "v": 104
    },
    {
      "midi": 64,
      "hit": false,
      "t": 108804.16666666666,
      "d": 1004.1666666666715,
      "v": 110
    },
    {
      "midi": 67,
      "hit": false,
      "t": 108804.16666666666,
      "d": 1004.1666666666715,
      "v": 110
    },
    {
      "midi": 59,
      "hit": false,
      "t": 109804.16666666666,
      "d": 4.166666666671517,
      "v": 104
    },
    {
      "midi": 64,
      "hit": false,
      "t": 110004.16666666666,
      "d": 204.16666666667152,
      "v": 81
    },
    {
      "midi": 67,
      "hit": false,
      "t": 110204.16666666666,
      "d": 204.16666666667152,
      "v": 87
    },
    {
      "midi": 71,
      "hit": false,
      "t": 110404.16666666666,
      "d": 804.1666666666715,
      "v": 113
    },
    {
      "midi": 64,
      "hit": false,
      "t": 111204.16666666666,
      "d": 404.1666666666715,
      "v": 93
    },
    {
      "midi": 67,
      "hit": false,
      "t": 111604.16666666666,
      "d": 404.1666666666715,
      "v": 78
    },
    {
      "midi": 57,
      "hit": false,
      "t": 112004.16666666666,
      "d": 804.1666666666715,
      "v": 110
    },
    {
      "midi": 65,
      "hit": false,
      "t": 112004.16666666666,
      "d": 804.1666666666715,
      "v": 110
    },
    {
      "midi": 60,
      "hit": false,
      "t": 112804.16666666666,
      "d": 4.166666666671517,
      "v": 87
    },
    {
      "midi": 65,
      "hit": false,
      "t": 113204.16666666666,
      "d": 404.1666666666715,
      "v": 75
    },
    {
      "midi": 55,
      "hit": false,
      "t": 113604.16666666666,
      "d": 1604.1666666666715,
      "v": 98
    },
    {
      "midi": 60,
      "hit": false,
      "t": 113604.16666666666,
      "d": 1604.1666666666715,
      "v": 98
    },
    {
      "midi": 64,
      "hit": false,
      "t": 114404.16666666666,
      "d": 4.166666666671517,
      "v": 104
    },
    {
      "midi": 62,
      "hit": false,
      "t": 116004.16666666666,
      "d": 4.166666666671517,
      "v": 93
    },
    {
      "midi": 54,
      "hit": false,
      "t": 116804.16666666666,
      "d": 4.166666666671517,
      "v": 87
    },
    {
      "midi": 57,
      "hit": false,
      "t": 116804.16666666666,
      "d": 4.166666666671517,
      "v": 87
    },
    {
      "midi": 62,
      "hit": false,
      "t": 116804.16666666666,
      "d": 4.166666666671517,
      "v": 87
    },
    {
      "midi": 79,
      "hit": false,
      "t": 117404.16666666666,
      "d": 204.16666666667152,
      "v": 90
    },
    {
      "midi": 78,
      "hit": false,
      "t": 117604.16666666666,
      "d": 204.16666666667152,
      "v": 98
    },
    {
      "midi": 74,
      "hit": false,
      "t": 117804.16666666666,
      "d": 204.16666666667152,
      "v": 107
    },
    {
      "midi": 69,
      "hit": false,
      "t": 118004.16666666666,
      "d": 204.16666666667152,
      "v": 78
    },
    {
      "midi": 74,
      "hit": false,
      "t": 118204.16666666666,
      "d": 204.16666666667152,
      "v": 98
    },
    {
      "midi": 59,
      "hit": false,
      "t": 118404.16666666666,
      "d": 804.1666666666715,
      "v": 104
    },
    {
      "midi": 67,
      "hit": false,
      "t": 118404.16666666666,
      "d": 804.1666666666715,
      "v": 104
    },
    {
      "midi": 62,
      "hit": false,
      "t": 119204.16666666666,
      "d": 4.166666666671517,
      "v": 81
    },
    {
      "midi": 67,
      "hit": false,
      "t": 119604.16666666666,
      "d": 404.1666666666715,
      "v": 90
    },
    {
      "midi": 57,
      "hit": false,
      "t": 120004.16666666666,
      "d": 804.1666666666715,
      "v": 107
    },
    {
      "midi": 66,
      "hit": false,
      "t": 120004.16666666666,
      "d": 804.1666666666715,
      "v": 107
    },
    {
      "midi": 62,
      "hit": false,
      "t": 120804.16666666666,
      "d": 4.166666666671517,
      "v": 90
    },
    {
      "midi": 66,
      "hit": false,
      "t": 121204.16666666666,
      "d": 404.1666666666715,
      "v": 81
    },
    {
      "midi": 59,
      "hit": false,
      "t": 121604.16666666666,
      "d": 1004.1666666666715,
      "v": 110
    },
    {
      "midi": 67,
      "hit": false,
      "t": 121604.16666666666,
      "d": 1004.1666666666715,
      "v": 110
    },
    {
      "midi": 64,
      "hit": false,
      "t": 122604.16666666666,
      "d": 4.166666666671517,
      "v": 84
    },
    {
      "midi": 67,
      "hit": false,
      "t": 122804.16666666666,
      "d": 204.16666666667152,
      "v": 98
    },
    {
      "midi": 71,
      "hit": false,
      "t": 123004.16666666666,
      "d": 204.16666666667152,
      "v": 75
    },
    {
      "midi": 76,
      "hit": false,
      "t": 123204.16666666666,
      "d": 1204.1666666666715,
      "v": 110
    },
    {
      "midi": 64,
      "hit": false,
      "t": 124404.16666666666,
      "d": 404.1666666666715,
      "v": 87
    },
    {
      "midi": 67,
      "hit": false,
      "t": 124404.16666666666,
      "d": 404.1666666666715,
      "v": 87
    },
    {
      "midi": 71,
      "hit": false,
      "t": 124404.16666666666,
      "d": 404.1666666666715,
      "v": 87
    },
    {
      "midi": 65,
      "hit": false,
      "t": 124804.16666666666,
      "d": 804.1666666666715,
      "v": 101
    },
    {
      "midi": 69,
      "hit": false,
      "t": 124804.16666666666,
      "d": 804.1666666666715,
      "v": 101
    },
    {
      "midi": 60,
      "hit": false,
      "t": 125604.16666666666,
      "d": 4.166666666671517,
      "v": 101
    },
    {
      "midi": 65,
      "hit": false,
      "t": 125804.16666666666,
      "d": 204.16666666667152,
      "v": 87
    },
    {
      "midi": 69,
      "hit": false,
      "t": 126004.16666666666,
      "d": 404.1666666666715,
      "v": 104
    },
    {
      "midi": 60,
      "hit": false,
      "t": 127604.16666666666,
      "d": 4.166666666671517,
      "v": 78
    },
    {
      "midi": 64,
      "hit": false,
      "t": 127604.16666666666,
      "d": 4.166666666671517,
      "v": 78
    },
    {
      "midi": 67,
      "hit": false,
      "t": 127604.16666666666,
      "d": 4.166666666671517,
      "v": 78
    },
    {
      "midi": 57,
      "hit": false,
      "t": 128804.16666666666,
      "d": 4.166666666671517,
      "v": 110
    },
    {
      "midi": 62,
      "hit": false,
      "t": 128804.16666666666,
      "d": 4.166666666671517,
      "v": 110
    },
    {
      "midi": 66,
      "hit": false,
      "t": 128804.16666666666,
      "d": 4.166666666671517,
      "v": 110
    },
    {
      "midi": 57,
      "hit": false,
      "t": 131204.16666666666,
      "d": 4.166666666656965,
      "v": 87
    },
    {
      "midi": 60,
      "hit": false,
      "t": 131204.16666666666,
      "d": 804.166666666657,
      "v": 87
    },
    {
      "midi": 65,
      "hit": false,
      "t": 131204.16666666666,
      "d": 804.166666666657,
      "v": 87
    },
    {
      "midi": 57,
      "hit": false,
      "t": 132004.16666666666,
      "d": 4.166666666656965,
      "v": 84
    },
    {
      "midi": 60,
      "hit": false,
      "t": 132204.16666666666,
      "d": 204.16666666665697,
      "v": 66
    },
    {
      "midi": 65,
      "hit": false,
      "t": 132404.16666666666,
      "d": 404.16666666665697,
      "v": 101
    },
    {
      "midi": 60,
      "hit": false,
      "t": 132804.16666666666,
      "d": 804.166666666657,
      "v": 113
    },
    {
      "midi": 64,
      "hit": false,
      "t": 132804.16666666666,
      "d": 804.166666666657,
      "v": 113
    },
    {
      "midi": 55,
      "hit": false,
      "t": 133604.16666666666,
      "d": 4.166666666656965,
      "v": 78
    },
    {
      "midi": 60,
      "hit": false,
      "t": 133804.16666666666,
      "d": 204.16666666665697,
      "v": 64
    },
    {
      "midi": 64,
      "hit": false,
      "t": 134004.16666666666,
      "d": 404.16666666665697,
      "v": 101
    },
    {
      "midi": 54,
      "hit": false,
      "t": 135204.16666666666,
      "d": 4.166666666656965,
      "v": 107
    },
    {
      "midi": 57,
      "hit": false,
      "t": 135204.16666666666,
      "d": 4.166666666656965,
      "v": 107
    },
    {
      "midi": 62,
      "hit": false,
      "t": 135204.16666666666,
      "d": 4.166666666656965,
      "v": 107
    },
    {
      "midi": 62,
      "hit": false,
      "t": 137604.16666666666,
      "d": 4.166666666656965,
      "v": 98
    },
    {
      "midi": 59,
      "hit": false,
      "t": 138804.16666666666,
      "d": 4.166666666656965,
      "v": 84
    },
    {
      "midi": 62,
      "hit": false,
      "t": 138804.16666666666,
      "d": 4.166666666656965,
      "v": 84
    },
    {
      "midi": 67,
      "hit": false,
      "t": 138804.16666666666,
      "d": 4.166666666656965,
      "v": 84
    },
    {
      "midi": 62,
      "hit": false,
      "t": 139204.16666666666,
      "d": 4.166666666656965,
      "v": 104
    },
    {
      "midi": 57,
      "hit": false,
      "t": 140404.16666666666,
      "d": 4.166666666656965,
      "v": 84
    },
    {
      "midi": 62,
      "hit": false,
      "t": 140404.16666666666,
      "d": 4.166666666656965,
      "v": 84
    },
    {
      "midi": 66,
      "hit": false,
      "t": 140404.16666666666,
      "d": 4.166666666656965,
      "v": 84
    },
    {
      "midi": 55,
      "hit": false,
      "t": 140804.16666666666,
      "d": 2404.166666666657,
      "v": 107
    },
    {
      "midi": 59,
      "hit": false,
      "t": 140804.16666666666,
      "d": 2404.166666666657,
      "v": 107
    },
    {
      "midi": 64,
      "hit": false,
      "t": 140804.16666666666,
      "d": 2404.166666666657,
      "v": 107
    },
    {
      "midi": 67,
      "hit": false,
      "t": 143204.16666666666,
      "d": 404.16666666665697,
      "v": 101
    },
    {
      "midi": 71,
      "hit": false,
      "t": 143204.16666666666,
      "d": 404.16666666665697,
      "v": 101
    },
    {
      "midi": 66,
      "hit": false,
      "t": 143604.16666666666,
      "d": 404.16666666665697,
      "v": 81
    },
    {
      "midi": 69,
      "hit": false,
      "t": 143604.16666666666,
      "d": 404.16666666665697,
      "v": 81
    },
    {
      "midi": 60,
      "hit": false,
      "t": 144004.16666666666,
      "d": 1204.166666666657,
      "v": 107
    },
    {
      "midi": 67,
      "hit": false,
      "t": 144004.16666666666,
      "d": 1204.166666666657,
      "v": 107
    },
    {
      "midi": 64,
      "hit": false,
      "t": 145204.16666666666,
      "d": 4.166666666656965,
      "v": 69
    },
    {
      "midi": 67,
      "hit": false,
      "t": 147204.16666666666,
      "d": 4.166666666656965,
      "v": 101
    },
    {
      "midi": 57,
      "hit": false,
      "t": 147204.16666666666,
      "d": 1604.166666666657,
      "v": 101
    },
    {
      "midi": 63,
      "hit": false,
      "t": 147204.16666666666,
      "d": 1604.166666666657,
      "v": 101
    },
    {
      "midi": 67,
      "hit": false,
      "t": 148804.16666666666,
      "d": 4.166666666656965,
      "v": 90
    },
    {
      "midi": 63,
      "hit": false,
      "t": 149004.16666666666,
      "d": 204.16666666665697,
      "v": 95
    },
    {
      "midi": 60,
      "hit": false,
      "t": 149204.16666666666,
      "d": 204.16666666665697,
      "v": 75
    },
    {
      "midi": 57,
      "hit": false,
      "t": 149404.16666666666,
      "d": 204.16666666665697,
      "v": 93
    },
    {
      "midi": 53,
      "hit": false,
      "t": 149604.16666666666,
      "d": 804.166666666657,
      "v": 101
    },
    {
      "midi": 59,
      "hit": false,
      "t": 150404.16666666666,
      "d": 1604.166666666657,
      "v": 90
    },
    {
      "midi": 67,
      "hit": false,
      "t": 150404.16666666666,
      "d": 1604.166666666657,
      "v": 90
    },
    {
      "midi": 62,
      "hit": false,
      "t": 152004.16666666666,
      "d": 4.166666666656965,
      "v": 98
    },
    {
      "midi": 57,
      "hit": false,
      "t": 153204.16666666666,
      "d": 4.166666666656965,
      "v": 95
    },
    {
      "midi": 62,
      "hit": false,
      "t": 153204.16666666666,
      "d": 4.166666666656965,
      "v": 95
    },
    {
      "midi": 66,
      "hit": false,
      "t": 153204.16666666666,
      "d": 4.166666666656965,
      "v": 95
    },
    {
      "midi": 55,
      "hit": false,
      "t": 153604.16666666666,
      "d": 1604.166666666657,
      "v": 104
    },
    {
      "midi": 59,
      "hit": false,
      "t": 153604.16666666666,
      "d": 1604.166666666657,
      "v": 104
    },
    {
      "midi": 64,
      "hit": false,
      "t": 153604.16666666666,
      "d": 1604.166666666657,
      "v": 104
    },
    {
      "midi": 76,
      "hit": false,
      "t": 155204.16666666666,
      "d": 204.16666666665697,
      "v": 90
    },
    {
      "midi": 71,
      "hit": false,
      "t": 155404.16666666666,
      "d": 204.16666666665697,
      "v": 104
    },
    {
      "midi": 67,
      "hit": false,
      "t": 155604.16666666666,
      "d": 204.16666666665697,
      "v": 78
    },
    {
      "midi": 64,
      "hit": false,
      "t": 155804.16666666666,
      "d": 604.166666666657,
      "v": 113
    },
    {
      "midi": 66,
      "hit": false,
      "t": 156404.16666666666,
      "d": 404.16666666665697,
      "v": 90
    },
    {
      "midi": 69,
      "hit": false,
      "t": 156404.16666666666,
      "d": 404.16666666665697,
      "v": 90
    },
    {
      "midi": 60,
      "hit": false,
      "t": 156804.16666666666,
      "d": 1604.166666666657,
      "v": 107
    },
    {
      "midi": 64,
      "hit": false,
      "t": 156804.16666666666,
      "d": 1604.166666666657,
      "v": 107
    },
    {
      "midi": 67,
      "hit": false,
      "t": 158404.16666666666,
      "d": 4.166666666656965,
      "v": 95
    },
    {
      "midi": 67,
      "hit": false,
      "t": 159204.16666666666,
      "d": 4.166666666656965,
      "v": 87
    },
    {
      "midi": 64,
      "hit": false,
      "t": 159604.16666666666,
      "d": 404.16666666665697,
      "v": 104
    },
    {
      "midi": 57,
      "hit": false,
      "t": 160004.16666666666,
      "d": 1604.166666666657,
      "v": 110
    },
    {
      "midi": 63,
      "hit": false,
      "t": 160004.16666666666,
      "d": 1604.166666666657,
      "v": 110
    },
    {
      "midi": 67,
      "hit": false,
      "t": 161604.16666666666,
      "d": 4.166666666656965,
      "v": 98
    },
    {
      "midi": 63,
      "hit": false,
      "t": 161804.16666666666,
      "d": 204.16666666665697,
      "v": 72
    },
    {
      "midi": 60,
      "hit": false,
      "t": 162004.16666666666,
      "d": 204.16666666665697,
      "v": 110
    },
    {
      "midi": 57,
      "hit": false,
      "t": 162204.16666666666,
      "d": 204.16666666665697,
      "v": 87
    },
    {
      "midi": 53,
      "hit": false,
      "t": 162404.16666666666,
      "d": 804.166666666657,
      "v": 101
    },
    {
      "midi": 59,
      "hit": false,
      "t": 165204.16666666666,
      "d": 4.166666666656965,
      "v": 90
    },
    {
      "midi": 62,
      "hit": false,
      "t": 165204.16666666666,
      "d": 4.166666666656965,
      "v": 90
    },
    {
      "midi": 66,
      "hit": false,
      "t": 165204.16666666666,
      "d": 4.166666666656965,
      "v": 90
    },
    {
      "midi": 59,
      "hit": false,
      "t": 166004.16666666666,
      "d": 4.166666666656965,
      "v": 81
    },
    {
      "midi": 62,
      "hit": false,
      "t": 166004.16666666666,
      "d": 4.166666666656965,
      "v": 81
    },
    {
      "midi": 54,
      "hit": false,
      "t": 166004.16666666666,
      "d": 404.16666666665697,
      "v": 81
    },
    {
      "midi": 59,
      "hit": false,
      "t": 166404.16666666666,
      "d": 4.166666666656965,
      "v": 95
    },
    {
      "midi": 56,
      "hit": false,
      "t": 166404.16666666666,
      "d": 1804.166666666657,
      "v": 95
    },
    {
      "midi": 59,
      "hit": false,
      "t": 168204.16666666666,
      "d": 4.166666666656965,
      "v": 101
    },
    {
      "midi": 64,
      "hit": false,
      "t": 168204.16666666666,
      "d": 4.166666666656965,
      "v": 101
    },
    {
      "midi": 57,
      "hit": false,
      "t": 168204.16666666666,
      "d": 604.166666666657,
      "v": 101
    },
    {
      "midi": 56,
      "hit": false,
      "t": 168804.16666666666,
      "d": 804.166666666657,
      "v": 84
    },
    {
      "midi": 64,
      "hit": false,
      "t": 169604.16666666666,
      "d": 4.166666666656965,
      "v": 113
    },
    {
      "midi": 57,
      "hit": false,
      "t": 171604.16666666666,
      "d": 4.166666666656965,
      "v": 93
    },
    {
      "midi": 60,
      "hit": false,
      "t": 171604.16666666666,
      "d": 4.166666666656965,
      "v": 93
    },
    {
      "midi": 64,
      "hit": false,
      "t": 171604.16666666666,
      "d": 4.166666666656965,
      "v": 93
    },
    {
      "midi": 57,
      "hit": false,
      "t": 172204.16666666666,
      "d": 4.166666666656965,
      "v": 84
    },
    {
      "midi": 60,
      "hit": false,
      "t": 172204.16666666666,
      "d": 4.166666666656965,
      "v": 84
    },
    {
      "midi": 64,
      "hit": false,
      "t": 172204.16666666666,
      "d": 4.166666666656965,
      "v": 84
    },
    {
      "midi": 60,
      "hit": false,
      "t": 172804.16666666666,
      "d": 4.166666666656965,
      "v": 101
    },
    {
      "midi": 64,
      "hit": false,
      "t": 172804.16666666666,
      "d": 4.166666666656965,
      "v": 101
    },
    {
      "midi": 66,
      "hit": false,
      "t": 174404.16666666666,
      "d": 1604.166666666657,
      "v": 87
    },
    {
      "midi": 62,
      "hit": false,
      "t": 176004.16666666666,
      "d": 4.166666666656965,
      "v": 107
    },
    {
      "midi": 59,
      "hit": false,
      "t": 176004.16666666666,
      "d": 1604.166666666657,
      "v": 107
    },
    {
      "midi": 67,
      "hit": false,
      "t": 176004.16666666666,
      "d": 1604.166666666657,
      "v": 107
    },
    {
      "midi": 62,
      "hit": false,
      "t": 177604.16666666666,
      "d": 4.166666666656965,
      "v": 104
    },
    {
      "midi": 66,
      "hit": false,
      "t": 177604.16666666666,
      "d": 1604.166666666657,
      "v": 104
    },
    {
      "midi": 57,
      "hit": false,
      "t": 179204.16666666666,
      "d": 4.166666666656965,
      "v": 93
    },
    {
      "midi": 57,
      "hit": false,
      "t": 179804.16666666666,
      "d": 4.166666666656965,
      "v": 101
    },
    {
      "midi": 60,
      "hit": false,
      "t": 179804.16666666666,
      "d": 4.166666666656965,
      "v": 101
    },
    {
      "midi": 64,
      "hit": false,
      "t": 179804.16666666666,
      "d": 4.166666666656965,
      "v": 101
    },
    {
      "midi": 57,
      "hit": false,
      "t": 180404.16666666666,
      "d": 4.166666666656965,
      "v": 81
    },
    {
      "midi": 60,
      "hit": false,
      "t": 180404.16666666666,
      "d": 4.166666666656965,
      "v": 81
    },
    {
      "midi": 64,
      "hit": false,
      "t": 180404.16666666666,
      "d": 4.166666666656965,
      "v": 81
    },
    {
      "midi": 57,
      "hit": false,
      "t": 181004.16666666666,
      "d": 4.166666666656965,
      "v": 101
    },
    {
      "midi": 60,
      "hit": false,
      "t": 181004.16666666666,
      "d": 4.166666666656965,
      "v": 101
    },
    {
      "midi": 64,
      "hit": false,
      "t": 181004.16666666666,
      "d": 4.166666666656965,
      "v": 101
    },
    {
      "midi": 60,
      "hit": false,
      "t": 181604.16666666666,
      "d": 4.166666666656965,
      "v": 93
    },
    {
      "midi": 64,
      "hit": false,
      "t": 181604.16666666666,
      "d": 4.166666666656965,
      "v": 93
    },
    {
      "midi": 59,
      "hit": false,
      "t": 181804.16666666666,
      "d": 204.16666666665697,
      "v": 81
    },
    {
      "midi": 62,
      "hit": false,
      "t": 181804.16666666666,
      "d": 204.16666666665697,
      "v": 81
    },
    {
      "midi": 57,
      "hit": false,
      "t": 182004.16666666666,
      "d": 404.16666666665697,
      "v": 113
    },
    {
      "midi": 60,
      "hit": false,
      "t": 182004.16666666666,
      "d": 404.16666666665697,
      "v": 113
    },
    {
      "midi": 59,
      "hit": false,
      "t": 182404.16666666666,
      "d": 1604.166666666657,
      "v": 107
    },
    {
      "midi": 67,
      "hit": false,
      "t": 182404.16666666666,
      "d": 1604.166666666657,
      "v": 107
    },
    {
      "midi": 62,
      "hit": false,
      "t": 184004.16666666666,
      "d": 4.166666666656965,
      "v": 104
    },
    {
      "midi": 66,
      "hit": false,
      "t": 184004.16666666666,
      "d": 1604.166666666657,
      "v": 104
    },
    {
      "midi": 57,
      "hit": false,
      "t": 185604.16666666666,
      "d": 4.166666666656965,
      "v": 93
    },
    {
      "midi": 57,
      "hit": false,
      "t": 186204.16666666666,
      "d": 4.166666666656965,
      "v": 101
    },
    {
      "midi": 60,
      "hit": false,
      "t": 186204.16666666666,
      "d": 4.166666666656965,
      "v": 101
    },
    {
      "midi": 64,
      "hit": false,
      "t": 186204.16666666666,
      "d": 4.166666666656965,
      "v": 101
    },
    {
      "midi": 57,
      "hit": false,
      "t": 186804.16666666666,
      "d": 4.166666666656965,
      "v": 81
    },
    {
      "midi": 60,
      "hit": false,
      "t": 186804.16666666666,
      "d": 4.166666666656965,
      "v": 81
    },
    {
      "midi": 64,
      "hit": false,
      "t": 186804.16666666666,
      "d": 4.166666666656965,
      "v": 81
    },
    {
      "midi": 57,
      "hit": false,
      "t": 187404.16666666666,
      "d": 4.166666666656965,
      "v": 101
    },
    {
      "midi": 60,
      "hit": false,
      "t": 187404.16666666666,
      "d": 4.166666666656965,
      "v": 101
    },
    {
      "midi": 64,
      "hit": false,
      "t": 187404.16666666666,
      "d": 4.166666666656965,
      "v": 101
    },
    {
      "midi": 60,
      "hit": false,
      "t": 188004.16666666666,
      "d": 4.166666666656965,
      "v": 93
    },
    {
      "midi": 64,
      "hit": false,
      "t": 188004.16666666666,
      "d": 4.166666666656965,
      "v": 93
    },
    {
      "midi": 59,
      "hit": false,
      "t": 188204.16666666666,
      "d": 204.16666666665697,
      "v": 81
    },
    {
      "midi": 62,
      "hit": false,
      "t": 188204.16666666666,
      "d": 204.16666666665697,
      "v": 81
    },
    {
      "midi": 57,
      "hit": false,
      "t": 188404.16666666666,
      "d": 404.16666666665697,
      "v": 113
    },
    {
      "midi": 60,
      "hit": false,
      "t": 188404.16666666666,
      "d": 404.16666666665697,
      "v": 113
    },
    {
      "midi": 59,
      "hit": false,
      "t": 188804.16666666666,
      "d": 1604.166666666657,
      "v": 107
    },
    {
      "midi": 67,
      "hit": false,
      "t": 188804.16666666666,
      "d": 1604.166666666657,
      "v": 107
    },
    {
      "midi": 62,
      "hit": false,
      "t": 190404.16666666666,
      "d": 4.166666666656965,
      "v": 104
    },
    {
      "midi": 66,
      "hit": false,
      "t": 190404.16666666666,
      "d": 1604.166666666657,
      "v": 104
    },
    {
      "midi": 57,
      "hit": false,
      "t": 192004.16666666666,
      "d": 4.166666666656965,
      "v": 93
    },
    {
      "midi": 57,
      "hit": false,
      "t": 192604.16666666666,
      "d": 4.166666666656965,
      "v": 101
    },
    {
      "midi": 60,
      "hit": false,
      "t": 192604.16666666666,
      "d": 4.166666666656965,
      "v": 101
    },
    {
      "midi": 64,
      "hit": false,
      "t": 192604.16666666666,
      "d": 4.166666666656965,
      "v": 101
    },
    {
      "midi": 57,
      "hit": false,
      "t": 193204.16666666666,
      "d": 4.166666666656965,
      "v": 81
    },
    {
      "midi": 60,
      "hit": false,
      "t": 193204.16666666666,
      "d": 4.166666666656965,
      "v": 81
    },
    {
      "midi": 64,
      "hit": false,
      "t": 193204.16666666666,
      "d": 4.166666666656965,
      "v": 81
    },
    {
      "midi": 57,
      "hit": false,
      "t": 193804.16666666666,
      "d": 4.166666666656965,
      "v": 101
    },
    {
      "midi": 60,
      "hit": false,
      "t": 193804.16666666666,
      "d": 4.166666666656965,
      "v": 101
    },
    {
      "midi": 64,
      "hit": false,
      "t": 193804.16666666666,
      "d": 4.166666666656965,
      "v": 101
    },
    {
      "midi": 60,
      "hit": false,
      "t": 194404.16666666666,
      "d": 4.166666666656965,
      "v": 93
    },
    {
      "midi": 64,
      "hit": false,
      "t": 194404.16666666666,
      "d": 4.166666666656965,
      "v": 93
    },
    {
      "midi": 59,
      "hit": false,
      "t": 194604.16666666666,
      "d": 204.16666666665697,
      "v": 81
    },
    {
      "midi": 62,
      "hit": false,
      "t": 194604.16666666666,
      "d": 204.16666666665697,
      "v": 81
    },
    {
      "midi": 57,
      "hit": false,
      "t": 194804.16666666666,
      "d": 404.16666666665697,
      "v": 113
    },
    {
      "midi": 60,
      "hit": false,
      "t": 194804.16666666666,
      "d": 404.16666666665697,
      "v": 113
    },
    {
      "midi": 59,
      "hit": false,
      "t": 195204.16666666666,
      "d": 1604.166666666657,
      "v": 107
    },
    {
      "midi": 67,
      "hit": false,
      "t": 195204.16666666666,
      "d": 1604.166666666657,
      "v": 107
    },
    {
      "midi": 62,
      "hit": false,
      "t": 196804.16666666666,
      "d": 4.166666666656965,
      "v": 104
    },
    {
      "midi": 66,
      "hit": false,
      "t": 196804.16666666666,
      "d": 1604.166666666657,
      "v": 104
    },
    {
      "midi": 57,
      "hit": false,
      "t": 198404.16666666666,
      "d": 4.166666666656965,
      "v": 93
    },
    {
      "midi": 57,
      "hit": false,
      "t": 199004.16666666666,
      "d": 4.166666666656965,
      "v": 101
    },
    {
      "midi": 60,
      "hit": false,
      "t": 199004.16666666666,
      "d": 4.166666666656965,
      "v": 101
    },
    {
      "midi": 64,
      "hit": false,
      "t": 199004.16666666666,
      "d": 4.166666666656965,
      "v": 101
    },
    {
      "midi": 57,
      "hit": false,
      "t": 199604.16666666666,
      "d": 4.166666666656965,
      "v": 81
    },
    {
      "midi": 60,
      "hit": false,
      "t": 199604.16666666666,
      "d": 4.166666666656965,
      "v": 81
    },
    {
      "midi": 64,
      "hit": false,
      "t": 199604.16666666666,
      "d": 4.166666666656965,
      "v": 81
    },
    {
      "midi": 57,
      "hit": false,
      "t": 200204.16666666666,
      "d": 4.166666666656965,
      "v": 101
    },
    {
      "midi": 60,
      "hit": false,
      "t": 200204.16666666666,
      "d": 4.166666666656965,
      "v": 101
    },
    {
      "midi": 64,
      "hit": false,
      "t": 200204.16666666666,
      "d": 4.166666666656965,
      "v": 101
    },
    {
      "midi": 60,
      "hit": false,
      "t": 200804.16666666666,
      "d": 4.166666666656965,
      "v": 93
    },
    {
      "midi": 64,
      "hit": false,
      "t": 200804.16666666666,
      "d": 4.166666666656965,
      "v": 93
    },
    {
      "midi": 59,
      "hit": false,
      "t": 201004.16666666666,
      "d": 204.16666666665697,
      "v": 81
    },
    {
      "midi": 62,
      "hit": false,
      "t": 201004.16666666666,
      "d": 204.16666666665697,
      "v": 81
    },
    {
      "midi": 57,
      "hit": false,
      "t": 201204.16666666666,
      "d": 404.16666666665697,
      "v": 113
    },
    {
      "midi": 60,
      "hit": false,
      "t": 201204.16666666666,
      "d": 404.16666666665697,
      "v": 113
    },
    {
      "midi": 59,
      "hit": false,
      "t": 201604.16666666666,
      "d": 1604.166666666657,
      "v": 107
    },
    {
      "midi": 67,
      "hit": false,
      "t": 201604.16666666666,
      "d": 1604.166666666657,
      "v": 107
    },
    {
      "midi": 62,
      "hit": false,
      "t": 203204.16666666666,
      "d": 4.166666666656965,
      "v": 104
    },
    {
      "midi": 66,
      "hit": false,
      "t": 203204.16666666666,
      "d": 1604.166666666657,
      "v": 104
    },
    {
      "midi": 57,
      "hit": false,
      "t": 204804.16666666666,
      "d": 4.166666666656965,
      "v": 93
    },
    {
      "midi": 57,
      "hit": false,
      "t": 205404.16666666666,
      "d": 4.166666666656965,
      "v": 101
    },
    {
      "midi": 60,
      "hit": false,
      "t": 205404.16666666666,
      "d": 4.166666666656965,
      "v": 101
    },
    {
      "midi": 64,
      "hit": false,
      "t": 205404.16666666666,
      "d": 4.166666666656965,
      "v": 101
    },
    {
      "midi": 57,
      "hit": false,
      "t": 206004.16666666666,
      "d": 4.166666666656965,
      "v": 81
    },
    {
      "midi": 60,
      "hit": false,
      "t": 206004.16666666666,
      "d": 4.166666666656965,
      "v": 81
    },
    {
      "midi": 64,
      "hit": false,
      "t": 206004.16666666666,
      "d": 4.166666666656965,
      "v": 81
    },
    {
      "midi": 57,
      "hit": false,
      "t": 206604.16666666666,
      "d": 4.166666666656965,
      "v": 101
    },
    {
      "midi": 60,
      "hit": false,
      "t": 206604.16666666666,
      "d": 4.166666666656965,
      "v": 101
    },
    {
      "midi": 64,
      "hit": false,
      "t": 206604.16666666666,
      "d": 4.166666666656965,
      "v": 101
    },
    {
      "midi": 60,
      "hit": false,
      "t": 207204.16666666666,
      "d": 4.166666666656965,
      "v": 93
    },
    {
      "midi": 64,
      "hit": false,
      "t": 207204.16666666666,
      "d": 4.166666666656965,
      "v": 93
    },
    {
      "midi": 59,
      "hit": false,
      "t": 207404.16666666666,
      "d": 204.16666666665697,
      "v": 81
    },
    {
      "midi": 62,
      "hit": false,
      "t": 207404.16666666666,
      "d": 204.16666666665697,
      "v": 81
    },
    {
      "midi": 57,
      "hit": false,
      "t": 207604.16666666666,
      "d": 404.16666666665697,
      "v": 113
    },
    {
      "midi": 60,
      "hit": false,
      "t": 207604.16666666666,
      "d": 404.16666666665697,
      "v": 113
    },
    {
      "midi": 59,
      "hit": false,
      "t": 208004.16666666666,
      "d": 1604.166666666657,
      "v": 107
    },
    {
      "midi": 67,
      "hit": false,
      "t": 208004.16666666666,
      "d": 1604.166666666657,
      "v": 107
    },
    {
      "midi": 62,
      "hit": false,
      "t": 209604.16666666666,
      "d": 4.166666666656965,
      "v": 104
    },
    {
      "midi": 66,
      "hit": false,
      "t": 209604.16666666666,
      "d": 1604.166666666657,
      "v": 104
    },
    {
      "midi": 57,
      "hit": false,
      "t": 211204.16666666666,
      "d": 4.166666666656965,
      "v": 93
    },
    {
      "midi": 57,
      "hit": false,
      "t": 211804.16666666666,
      "d": 4.166666666656965,
      "v": 101
    },
    {
      "midi": 60,
      "hit": false,
      "t": 211804.16666666666,
      "d": 4.166666666656965,
      "v": 101
    },
    {
      "midi": 64,
      "hit": false,
      "t": 211804.16666666666,
      "d": 4.166666666656965,
      "v": 101
    },
    {
      "midi": 57,
      "hit": false,
      "t": 212404.16666666666,
      "d": 4.166666666656965,
      "v": 81
    },
    {
      "midi": 60,
      "hit": false,
      "t": 212404.16666666666,
      "d": 4.166666666656965,
      "v": 81
    },
    {
      "midi": 64,
      "hit": false,
      "t": 212404.16666666666,
      "d": 4.166666666656965,
      "v": 81
    },
    {
      "midi": 57,
      "hit": false,
      "t": 213004.16666666666,
      "d": 4.166666666656965,
      "v": 101
    },
    {
      "midi": 60,
      "hit": false,
      "t": 213004.16666666666,
      "d": 4.166666666656965,
      "v": 101
    },
    {
      "midi": 64,
      "hit": false,
      "t": 213004.16666666666,
      "d": 4.166666666656965,
      "v": 101
    },
    {
      "midi": 60,
      "hit": false,
      "t": 213604.16666666666,
      "d": 4.166666666656965,
      "v": 93
    },
    {
      "midi": 64,
      "hit": false,
      "t": 213604.16666666666,
      "d": 4.166666666656965,
      "v": 93
    },
    {
      "midi": 59,
      "hit": false,
      "t": 213804.16666666666,
      "d": 204.16666666665697,
      "v": 81
    },
    {
      "midi": 62,
      "hit": false,
      "t": 213804.16666666666,
      "d": 204.16666666665697,
      "v": 81
    },
    {
      "midi": 57,
      "hit": false,
      "t": 214004.16666666666,
      "d": 404.16666666665697,
      "v": 113
    },
    {
      "midi": 60,
      "hit": false,
      "t": 214404.16666666666,
      "d": 4.166666666656965,
      "v": 98
    },
    {
      "midi": 55,
      "hit": false,
      "t": 215004.16666666666,
      "d": 4.166666666656965,
      "v": 87
    },
    {
      "midi": 60,
      "hit": false,
      "t": 215004.16666666666,
      "d": 4.166666666656965,
      "v": 87
    },
    {
      "midi": 64,
      "hit": false,
      "t": 215004.16666666666,
      "d": 4.166666666656965,
      "v": 87
    },
    {
      "midi": 55,
      "hit": false,
      "t": 215204.16666666666,
      "d": 4.166666666656965,
      "v": 101
    },
    {
      "midi": 60,
      "hit": false,
      "t": 215204.16666666666,
      "d": 4.166666666656965,
      "v": 101
    },
    {
      "midi": 64,
      "hit": false,
      "t": 215204.16666666666,
      "d": 4.166666666656965,
      "v": 101
    },
    {
      "midi": 64,
      "hit": false,
      "t": 215604.16666666666,
      "d": 4.166666666656965,
      "v": 87
    },
    {
      "midi": 62,
      "hit": false,
      "t": 216004.16666666666,
      "d": 4.166666666656965,
      "v": 107
    },
    {
      "midi": 54,
      "hit": false,
      "t": 216404.16666666666,
      "d": 4.166666666656965,
      "v": 110
    },
    {
      "midi": 59,
      "hit": false,
      "t": 216404.16666666666,
      "d": 4.166666666656965,
      "v": 110
    },
    {
      "midi": 62,
      "hit": false,
      "t": 216404.16666666666,
      "d": 4.166666666656965,
      "v": 110
    },
    {
      "midi": 62,
      "hit": false,
      "t": 217204.16666666666,
      "d": 4.166666666656965,
      "v": 98
    },
    {
      "midi": 60,
      "hit": false,
      "t": 217604.16666666666,
      "d": 4.166666666656965,
      "v": 101
    },
    {
      "midi": 57,
      "hit": false,
      "t": 217604.16666666666,
      "d": 404.16666666665697,
      "v": 101
    },
    {
      "midi": 64,
      "hit": false,
      "t": 217604.16666666666,
      "d": 404.16666666665697,
      "v": 101
    },
    {
      "midi": 59,
      "hit": false,
      "t": 218004.16666666666,
      "d": 404.16666666665697,
      "v": 90
    },
    {
      "midi": 62,
      "hit": false,
      "t": 218004.16666666666,
      "d": 404.16666666665697,
      "v": 90
    },
    {
      "midi": 66,
      "hit": false,
      "t": 218004.16666666666,
      "d": 404.16666666665697,
      "v": 90
    },
    {
      "midi": 60,
      "hit": false,
      "t": 218804.16666666666,
      "d": 4.166666666656965,
      "v": 107
    },
    {
      "midi": 64,
      "hit": false,
      "t": 218804.16666666666,
      "d": 4.166666666656965,
      "v": 107
    },
    {
      "midi": 67,
      "hit": false,
      "t": 218804.16666666666,
      "d": 4.166666666656965,
      "v": 107
    },
    {
      "midi": 69,
      "hit": false,
      "t": 218804.16666666666,
      "d": 2004.166666666657,
      "v": 107
    },
    {
      "midi": 67,
      "hit": false,
      "t": 220804.16666666666,
      "d": 4.166666666656965,
      "v": 107
    },
    {
      "midi": 59,
      "hit": false,
      "t": 220804.16666666666,
      "d": 1604.166666666657,
      "v": 107
    },
    {
      "midi": 62,
      "hit": false,
      "t": 222404.16666666666,
      "d": 4.166666666656965,
      "v": 104
    },
    {
      "midi": 66,
      "hit": false,
      "t": 222404.16666666666,
      "d": 1604.166666666657,
      "v": 104
    },
    {
      "midi": 57,
      "hit": false,
      "t": 224004.16666666666,
      "d": 4.166666666656965,
      "v": 93
    },
    {
      "midi": 57,
      "hit": false,
      "t": 224604.16666666666,
      "d": 4.166666666656965,
      "v": 101
    },
    {
      "midi": 60,
      "hit": false,
      "t": 224604.16666666666,
      "d": 4.166666666656965,
      "v": 101
    },
    {
      "midi": 64,
      "hit": false,
      "t": 224604.16666666666,
      "d": 4.166666666656965,
      "v": 101
    },
    {
      "midi": 57,
      "hit": false,
      "t": 225204.16666666666,
      "d": 4.166666666656965,
      "v": 81
    },
    {
      "midi": 60,
      "hit": false,
      "t": 225204.16666666666,
      "d": 4.166666666656965,
      "v": 81
    },
    {
      "midi": 64,
      "hit": false,
      "t": 225204.16666666666,
      "d": 4.166666666656965,
      "v": 81
    },
    {
      "midi": 57,
      "hit": false,
      "t": 225804.16666666666,
      "d": 4.166666666656965,
      "v": 101
    },
    {
      "midi": 60,
      "hit": false,
      "t": 225804.16666666666,
      "d": 4.166666666656965,
      "v": 101
    },
    {
      "midi": 64,
      "hit": false,
      "t": 225804.16666666666,
      "d": 4.166666666656965,
      "v": 101
    },
    {
      "midi": 60,
      "hit": false,
      "t": 226404.16666666666,
      "d": 4.166666666656965,
      "v": 93
    },
    {
      "midi": 64,
      "hit": false,
      "t": 226404.16666666666,
      "d": 4.166666666656965,
      "v": 93
    },
    {
      "midi": 59,
      "hit": false,
      "t": 226604.16666666666,
      "d": 204.16666666665697,
      "v": 81
    },
    {
      "midi": 62,
      "hit": false,
      "t": 226604.16666666666,
      "d": 204.16666666665697,
      "v": 81
    },
    {
      "midi": 57,
      "hit": false,
      "t": 226804.16666666666,
      "d": 404.16666666665697,
      "v": 113
    },
    {
      "midi": 60,
      "hit": false,
      "t": 226804.16666666666,
      "d": 404.16666666665697,
      "v": 113
    },
    {
      "midi": 59,
      "hit": false,
      "t": 227204.16666666666,
      "d": 1604.166666666657,
      "v": 107
    },
    {
      "midi": 67,
      "hit": false,
      "t": 227204.16666666666,
      "d": 1604.166666666657,
      "v": 107
    },
    {
      "midi": 62,
      "hit": false,
      "t": 228804.16666666666,
      "d": 4.166666666656965,
      "v": 104
    },
    {
      "midi": 66,
      "hit": false,
      "t": 228804.16666666666,
      "d": 1604.166666666657,
      "v": 104
    },
    {
      "midi": 57,
      "hit": false,
      "t": 230404.16666666666,
      "d": 4.166666666656965,
      "v": 93
    },
    {
      "midi": 57,
      "hit": false,
      "t": 231004.16666666666,
      "d": 4.166666666656965,
      "v": 101
    },
    {
      "midi": 60,
      "hit": false,
      "t": 231004.16666666666,
      "d": 4.166666666656965,
      "v": 101
    },
    {
      "midi": 64,
      "hit": false,
      "t": 231004.16666666666,
      "d": 4.166666666656965,
      "v": 101
    },
    {
      "midi": 57,
      "hit": false,
      "t": 231604.16666666666,
      "d": 4.166666666656965,
      "v": 81
    },
    {
      "midi": 60,
      "hit": false,
      "t": 231604.16666666666,
      "d": 4.166666666656965,
      "v": 81
    },
    {
      "midi": 64,
      "hit": false,
      "t": 231604.16666666666,
      "d": 4.166666666656965,
      "v": 81
    },
    {
      "midi": 57,
      "hit": false,
      "t": 232204.16666666666,
      "d": 4.166666666656965,
      "v": 101
    },
    {
      "midi": 60,
      "hit": false,
      "t": 232204.16666666666,
      "d": 4.166666666656965,
      "v": 101
    },
    {
      "midi": 64,
      "hit": false,
      "t": 232204.16666666666,
      "d": 4.166666666656965,
      "v": 101
    },
    {
      "midi": 60,
      "hit": false,
      "t": 232804.16666666666,
      "d": 4.166666666656965,
      "v": 93
    },
    {
      "midi": 64,
      "hit": false,
      "t": 232804.16666666666,
      "d": 4.166666666656965,
      "v": 93
    },
    {
      "midi": 59,
      "hit": false,
      "t": 233004.16666666666,
      "d": 204.16666666665697,
      "v": 81
    },
    {
      "midi": 62,
      "hit": false,
      "t": 233004.16666666666,
      "d": 204.16666666665697,
      "v": 81
    },
    {
      "midi": 57,
      "hit": false,
      "t": 233204.16666666666,
      "d": 404.16666666665697,
      "v": 113
    },
    {
      "midi": 60,
      "hit": false,
      "t": 233204.16666666666,
      "d": 404.16666666665697,
      "v": 113
    },
    {
      "midi": 59,
      "hit": false,
      "t": 233604.16666666666,
      "d": 1604.166666666657,
      "v": 93
    },
    {
      "midi": 67,
      "hit": false,
      "t": 233604.16666666666,
      "d": 1604.166666666657,
      "v": 93
    },
    {
      "midi": 62,
      "hit": false,
      "t": 235204.16666666666,
      "d": 4.166666666656965,
      "v": 81
    },
    {
      "midi": 66,
      "hit": false,
      "t": 235204.16666666666,
      "d": 1604.166666666657,
      "v": 81
    },
    {
      "midi": 57,
      "hit": false,
      "t": 236804.16666666666,
      "d": 4.166666666656965,
      "v": 69
    },
    {
      "midi": 57,
      "hit": false,
      "t": 237404.16666666666,
      "d": 4.166666666656965,
      "v": 64
    },
    {
      "midi": 60,
      "hit": false,
      "t": 237404.16666666666,
      "d": 4.166666666656965,
      "v": 64
    },
    {
      "midi": 64,
      "hit": false,
      "t": 237404.16666666666,
      "d": 4.166666666656965,
      "v": 64
    },
    {
      "midi": 57,
      "hit": false,
      "t": 238004.16666666666,
      "d": 4.166666666656965,
      "v": 60
    },
    {
      "midi": 60,
      "hit": false,
      "t": 238004.16666666666,
      "d": 4.166666666656965,
      "v": 60
    },
    {
      "midi": 64,
      "hit": false,
      "t": 238004.16666666666,
      "d": 4.166666666656965,
      "v": 60
    },
    {
      "midi": 57,
      "hit": false,
      "t": 238604.16666666666,
      "d": 4.166666666656965,
      "v": 55
    },
    {
      "midi": 60,
      "hit": false,
      "t": 238604.16666666666,
      "d": 4.166666666656965,
      "v": 55
    },
    {
      "midi": 64,
      "hit": false,
      "t": 238604.16666666666,
      "d": 4.166666666656965,
      "v": 55
    },
    {
      "midi": 60,
      "hit": false,
      "t": 239204.16666666666,
      "d": 4.166666666656965,
      "v": 51
    },
    {
      "midi": 64,
      "hit": false,
      "t": 239204.16666666666,
      "d": 4.166666666656965,
      "v": 51
    },
    {
      "midi": 59,
      "hit": false,
      "t": 239404.16666666666,
      "d": 204.16666666665697,
      "v": 49
    },
    {
      "midi": 62,
      "hit": false,
      "t": 239404.16666666666,
      "d": 204.16666666665697,
      "v": 49
    },
    {
      "midi": 57,
      "hit": false,
      "t": 239604.16666666666,
      "d": 404.16666666665697,
      "v": 48
    },
    {
      "midi": 60,
      "hit": false,
      "t": 239604.16666666666,
      "d": 404.16666666665697,
      "v": 48
    },
    {
      "midi": 59,
      "hit": false,
      "t": 240004.16666666666,
      "d": 1604.166666666657,
      "v": 45
    },
    {
      "midi": 67,
      "hit": false,
      "t": 240004.16666666666,
      "d": 1604.166666666657,
      "v": 45
    },
    {
      "midi": 62,
      "hit": false,
      "t": 241604.16666666666,
      "d": 4.166666666656965,
      "v": 33
    },
    {
      "midi": 66,
      "hit": false,
      "t": 241604.16666666666,
      "d": 1604.166666666657,
      "v": 33
    },
    {
      "midi": 57,
      "hit": false,
      "t": 243204.16666666666,
      "d": 4.166666666656965,
      "v": 21
    },
    {
      "midi": 57,
      "hit": false,
      "t": 243804.16666666666,
      "d": 4.166666666656965,
      "v": 16
    },
    {
      "midi": 60,
      "hit": false,
      "t": 243804.16666666666,
      "d": 4.166666666656965,
      "v": 16
    },
    {
      "midi": 64,
      "hit": false,
      "t": 243804.16666666666,
      "d": 4.166666666656965,
      "v": 16
    },
    {
      "midi": 57,
      "hit": false,
      "t": 244404.16666666666,
      "d": 4.166666666656965,
      "v": 12
    },
    {
      "midi": 60,
      "hit": false,
      "t": 244404.16666666666,
      "d": 4.166666666656965,
      "v": 12
    },
    {
      "midi": 64,
      "hit": false,
      "t": 244404.16666666666,
      "d": 4.166666666656965,
      "v": 12
    },
    {
      "midi": 57,
      "hit": false,
      "t": 245004.16666666666,
      "d": 4.166666666656965,
      "v": 7
    },
    {
      "midi": 60,
      "hit": false,
      "t": 245004.16666666666,
      "d": 4.166666666656965,
      "v": 7
    },
    {
      "midi": 64,
      "hit": false,
      "t": 245004.16666666666,
      "d": 4.166666666656965,
      "v": 7
    },
    {
      "midi": 60,
      "hit": false,
      "t": 245604.16666666666,
      "d": 4.166666666656965,
      "v": 3
    },
    {
      "midi": 64,
      "hit": false,
      "t": 245604.16666666666,
      "d": 4.166666666656965,
      "v": 3
    },
    {
      "midi": 59,
      "hit": false,
      "t": 245804.16666666666,
      "d": 204.16666666665697,
      "v": 1
    },
    {
      "midi": 62,
      "hit": false,
      "t": 245804.16666666666,
      "d": 204.16666666665697,
      "v": 1
    },
    {
      "midi": 57,
      "hit": false,
      "t": 246004.16666666666,
      "d": 404.16666666665697,
      "v": 1
    },
    {
      "midi": 60,
      "hit": false,
      "t": 246004.16666666666,
      "d": 404.16666666665697,
      "v": 1
    }
  ]
}