{
  "jsonPath": "Animes/Parasite Eve MIDI Collection/arise-within-you.json",
  "path": "Animes\\Parasite Eve MIDI Collection\\Arise Within You.mid",
  "name": "Arise Within You",
  "difficulty": "Advanced",
  "bpm": 137.99987580011177,
  "notes": [
    {
      "midi": 58,
      "hit": false,
      "t": 3478.2639999999997,
      "d": 326.08725000000004,
      "v": 100
    },
    {
      "midi": 55,
      "hit": false,
      "t": 3478.2639999999997,
      "d": 326.08725000000004,
      "v": 100
    },
    {
      "midi": 62,
      "hit": false,
      "t": 3478.2639999999997,
      "d": 326.08725000000004,
      "v": 100
    },
    {
      "midi": 65,
      "hit": false,
      "t": 3478.2639999999997,
      "d": 326.08725000000004,
      "v": 100
    },
    {
      "midi": 42,
      "hit": false,
      "t": 3478.2639999999997,
      "d": 108.69574999999986,
      "v": 100
    },
    {
      "midi": 65,
      "hit": false,
      "t": 3478.264,
      "d": 3478.264,
      "v": 100
    },
    {
      "midi": 58,
      "hit": false,
      "t": 3478.264,
      "d": 3478.264,
      "v": 100
    },
    {
      "midi": 48,
      "hit": false,
      "t": 3478.264,
      "d": 3478.264,
      "v": 100
    },
    {
      "midi": 55,
      "hit": false,
      "t": 3478.264,
      "d": 3478.264,
      "v": 100
    },
    {
      "midi": 62,
      "hit": false,
      "t": 3478.264,
      "d": 3478.264,
      "v": 100
    },
    {
      "midi": 65,
      "hit": false,
      "t": 3478.264,
      "d": 3478.264,
      "v": 100
    },
    {
      "midi": 55,
      "hit": false,
      "t": 3478.264,
      "d": 3478.264,
      "v": 100
    },
    {
      "midi": 62,
      "hit": false,
      "t": 3478.264,
      "d": 3478.264,
      "v": 100
    },
    {
      "midi": 58,
      "hit": false,
      "t": 3478.264,
      "d": 3478.264,
      "v": 100
    },
    {
      "midi": 48,
      "hit": false,
      "t": 3478.264,
      "d": 3478.264,
      "v": 100
    },
    {
      "midi": 65,
      "hit": false,
      "t": 3478.264,
      "d": 3478.264,
      "v": 100
    },
    {
      "midi": 58,
      "hit": false,
      "t": 3478.264,
      "d": 326.08725000000004,
      "v": 100
    },
    {
      "midi": 65,
      "hit": false,
      "t": 3478.264,
      "d": 326.08725000000004,
      "v": 100
    },
    {
      "midi": 62,
      "hit": false,
      "t": 3478.264,
      "d": 326.08725000000004,
      "v": 100
    },
    {
      "midi": 55,
      "hit": false,
      "t": 3478.264,
      "d": 326.08725000000004,
      "v": 100
    },
    {
      "midi": 59,
      "hit": false,
      "t": 3478.264,
      "d": 434.7829999999999,
      "v": 100
    },
    {
      "midi": 42,
      "hit": false,
      "t": 3586.9597499999995,
      "d": 108.69574999999986,
      "v": 100
    },
    {
      "midi": 46,
      "hit": false,
      "t": 3695.6554999999994,
      "d": 108.69574999999986,
      "v": 100
    },
    {
      "midi": 62,
      "hit": false,
      "t": 3804.3512499999997,
      "d": 326.0872499999996,
      "v": 100
    },
    {
      "midi": 55,
      "hit": false,
      "t": 3804.3512499999997,
      "d": 326.0872499999996,
      "v": 100
    },
    {
      "midi": 65,
      "hit": false,
      "t": 3804.3512499999997,
      "d": 326.0872499999996,
      "v": 100
    },
    {
      "midi": 58,
      "hit": false,
      "t": 3804.3512499999997,
      "d": 326.0872499999996,
      "v": 100
    },
    {
      "midi": 55,
      "hit": false,
      "t": 3804.35125,
      "d": 326.08725000000004,
      "v": 100
    },
    {
      "midi": 62,
      "hit": false,
      "t": 3804.35125,
      "d": 326.08725000000004,
      "v": 100
    },
    {
      "midi": 58,
      "hit": false,
      "t": 3804.35125,
      "d": 326.08725000000004,
      "v": 100
    },
    {
      "midi": 65,
      "hit": false,
      "t": 3804.35125,
      "d": 326.08725000000004,
      "v": 100
    },
    {
      "midi": 42,
      "hit": false,
      "t": 3913.046999999999,
      "d": 108.69574999999986,
      "v": 100
    },
    {
      "midi": 59,
      "hit": false,
      "t": 3913.047,
      "d": 434.7829999999999,
      "v": 100
    },
    {
      "midi": 46,
      "hit": false,
      "t": 4021.742749999999,
      "d": 108.69575000000032,
      "v": 100
    },
    {
      "midi": 62,
      "hit": false,
      "t": 4130.438499999999,
      "d": 326.0872499999996,
      "v": 100
    },
    {
      "midi": 55,
      "hit": false,
      "t": 4130.438499999999,
      "d": 326.0872499999996,
      "v": 100
    },
    {
      "midi": 58,
      "hit": false,
      "t": 4130.438499999999,
      "d": 326.0872499999996,
      "v": 100
    },
    {
      "midi": 65,
      "hit": false,
      "t": 4130.438499999999,
      "d": 326.0872499999996,
      "v": 100
    },
    {
      "midi": 42,
      "hit": false,
      "t": 4130.438499999999,
      "d": 108.69574999999986,
      "v": 100
    },
    {
      "midi": 55,
      "hit": false,
      "t": 4130.4385,
      "d": 326.0872499999996,
      "v": 100
    },
    {
      "midi": 62,
      "hit": false,
      "t": 4130.4385,
      "d": 326.0872499999996,
      "v": 100
    },
    {
      "midi": 65,
      "hit": false,
      "t": 4130.4385,
      "d": 326.0872499999996,
      "v": 100
    },
    {
      "midi": 58,
      "hit": false,
      "t": 4130.4385,
      "d": 326.0872499999996,
      "v": 100
    },
    {
      "midi": 46,
      "hit": false,
      "t": 4239.134249999999,
      "d": 108.69574999999986,
      "v": 100
    },
    {
      "midi": 42,
      "hit": false,
      "t": 4347.829999999999,
      "d": 108.69574999999986,
      "v": 100
    },
    {
      "midi": 59,
      "hit": false,
      "t": 4347.83,
      "d": 434.78300000000036,
      "v": 100
    },
    {
      "midi": 62,
      "hit": false,
      "t": 4456.525749999999,
      "d": 326.0872499999996,
      "v": 100
    },
    {
      "midi": 55,
      "hit": false,
      "t": 4456.525749999999,
      "d": 326.0872499999996,
      "v": 100
    },
    {
      "midi": 58,
      "hit": false,
      "t": 4456.525749999999,
      "d": 326.0872499999996,
      "v": 100
    },
    {
      "midi": 65,
      "hit": false,
      "t": 4456.525749999999,
      "d": 326.0872499999996,
      "v": 100
    },
    {
      "midi": 42,
      "hit": false,
      "t": 4456.525749999999,
      "d": 108.69574999999986,
      "v": 100
    },
    {
      "midi": 55,
      "hit": false,
      "t": 4456.52575,
      "d": 326.0872499999996,
      "v": 100
    },
    {
      "midi": 62,
      "hit": false,
      "t": 4456.52575,
      "d": 326.0872499999996,
      "v": 100
    },
    {
      "midi": 65,
      "hit": false,
      "t": 4456.52575,
      "d": 326.0872499999996,
      "v": 100
    },
    {
      "midi": 58,
      "hit": false,
      "t": 4456.52575,
      "d": 326.0872499999996,
      "v": 100
    },
    {
      "midi": 46,
      "hit": false,
      "t": 4565.221499999999,
      "d": 108.69574999999986,
      "v": 100
    },
    {
      "midi": 59,
      "hit": false,
      "t": 4782.613,
      "d": 434.78300000000036,
      "v": 100
    },
    {
      "midi": 62,
      "hit": false,
      "t": 4891.308749999998,
      "d": 108.69574999999986,
      "v": 100
    },
    {
      "midi": 58,
      "hit": false,
      "t": 4891.308749999998,
      "d": 108.69574999999986,
      "v": 100
    },
    {
      "midi": 65,
      "hit": false,
      "t": 4891.308749999998,
      "d": 108.69574999999986,
      "v": 100
    },
    {
      "midi": 55,
      "hit": false,
      "t": 4891.308749999998,
      "d": 108.69574999999986,
      "v": 100
    },
    {
      "midi": 42,
      "hit": false,
      "t": 4891.308749999998,
      "d": 108.69574999999986,
      "v": 100
    },
    {
      "midi": 58,
      "hit": false,
      "t": 4891.308749999999,
      "d": 108.69574999999986,
      "v": 100
    },
    {
      "midi": 62,
      "hit": false,
      "t": 4891.308749999999,
      "d": 108.69574999999986,
      "v": 100
    },
    {
      "midi": 55,
      "hit": false,
      "t": 4891.308749999999,
      "d": 108.69574999999986,
      "v": 100
    },
    {
      "midi": 65,
      "hit": false,
      "t": 4891.308749999999,
      "d": 108.69574999999986,
      "v": 100
    },
    {
      "midi": 46,
      "hit": false,
      "t": 5000.004499999998,
      "d": 108.69574999999986,
      "v": 100
    },
    {
      "midi": 42,
      "hit": false,
      "t": 5217.395999999998,
      "d": 108.69574999999986,
      "v": 100
    },
    {
      "midi": 59,
      "hit": false,
      "t": 5217.396000000001,
      "d": 434.78300000000036,
      "v": 100
    },
    {
      "midi": 42,
      "hit": false,
      "t": 5326.091749999998,
      "d": 108.69574999999986,
      "v": 100
    },
    {
      "midi": 46,
      "hit": false,
      "t": 5434.787499999998,
      "d": 108.69574999999986,
      "v": 100
    },
    {
      "midi": 42,
      "hit": false,
      "t": 5652.178999999997,
      "d": 108.69574999999986,
      "v": 100
    },
    {
      "midi": 59,
      "hit": false,
      "t": 5652.179000000001,
      "d": 434.78300000000036,
      "v": 100
    },
    {
      "midi": 46,
      "hit": false,
      "t": 5760.874749999997,
      "d": 108.69574999999986,
      "v": 100
    },
    {
      "midi": 42,
      "hit": false,
      "t": 5869.570499999997,
      "d": 108.69574999999986,
      "v": 100
    },
    {
      "midi": 46,
      "hit": false,
      "t": 5978.266249999997,
      "d": 108.69574999999986,
      "v": 100
    },
    {
      "midi": 42,
      "hit": false,
      "t": 6086.961999999997,
      "d": 108.69574999999986,
      "v": 100
    },
    {
      "midi": 59,
      "hit": false,
      "t": 6086.962000000001,
      "d": 434.78300000000036,
      "v": 100
    },
    {
      "midi": 42,
      "hit": false,
      "t": 6195.657749999997,
      "d": 108.69574999999986,
      "v": 100
    },
    {
      "midi": 46,
      "hit": false,
      "t": 6304.3534999999965,
      "d": 108.69574999999986,
      "v": 100
    },
    {
      "midi": 59,
      "hit": false,
      "t": 6521.745000000002,
      "d": 434.78300000000036,
      "v": 100
    },
    {
      "midi": 42,
      "hit": false,
      "t": 6630.440749999996,
      "d": 108.69574999999986,
      "v": 100
    },
    {
      "midi": 46,
      "hit": false,
      "t": 6739.136499999996,
      "d": 108.69574999999986,
      "v": 100
    },
    {
      "midi": 42,
      "hit": false,
      "t": 6956.527999999996,
      "d": 108.69574999999986,
      "v": 100
    },
    {
      "midi": 55,
      "hit": false,
      "t": 6956.527999999998,
      "d": 326.0872499999996,
      "v": 100
    },
    {
      "midi": 62,
      "hit": false,
      "t": 6956.527999999998,
      "d": 326.0872499999996,
      "v": 100
    },
    {
      "midi": 58,
      "hit": false,
      "t": 6956.527999999998,
      "d": 326.0872499999996,
      "v": 100
    },
    {
      "midi": 58,
      "hit": false,
      "t": 6956.527999999999,
      "d": 326.0872499999996,
      "v": 100
    },
    {
      "midi": 62,
      "hit": false,
      "t": 6956.527999999999,
      "d": 326.0872499999996,
      "v": 100
    },
    {
      "midi": 55,
      "hit": false,
      "t": 6956.527999999999,
      "d": 326.0872499999996,
      "v": 100
    },
    {
      "midi": 48,
      "hit": false,
      "t": 6956.528,
      "d": 3478.264000000001,
      "v": 100
    },
    {
      "midi": 55,
      "hit": false,
      "t": 6956.528,
      "d": 3478.264000000001,
      "v": 100
    },
    {
      "midi": 51,
      "hit": false,
      "t": 6956.528,
      "d": 3478.264000000001,
      "v": 100
    },
    {
      "midi": 58,
      "hit": false,
      "t": 6956.528,
      "d": 3478.264000000001,
      "v": 100
    },
    {
      "midi": 62,
      "hit": false,
      "t": 6956.528,
      "d": 3478.264000000001,
      "v": 100
    },
    {
      "midi": 51,
      "hit": false,
      "t": 6956.528,
      "d": 3478.264000000001,
      "v": 100
    },
    {
      "midi": 62,
      "hit": false,
      "t": 6956.528,
      "d": 3478.264000000001,
      "v": 100
    },
    {
      "midi": 55,
      "hit": false,
      "t": 6956.528,
      "d": 3478.264000000001,
      "v": 100
    },
    {
      "midi": 58,
      "hit": false,
      "t": 6956.528,
      "d": 3478.264000000001,
      "v": 100
    },
    {
      "midi": 62,
      "hit": false,
      "t": 6956.528,
      "d": 3478.264000000001,
      "v": 100
    },
    {
      "midi": 59,
      "hit": false,
      "t": 6956.528000000002,
      "d": 434.78300000000036,
      "v": 100
    },
    {
      "midi": 42,
      "hit": false,
      "t": 7065.223749999996,
      "d": 108.69574999999986,
      "v": 100
    },
    {
      "midi": 46,
      "hit": false,
      "t": 7173.919499999995,
      "d": 108.69574999999986,
      "v": 100
    },
    {
      "midi": 55,
      "hit": false,
      "t": 7282.615249999998,
      "d": 326.0872499999996,
      "v": 100
    },
    {
      "midi": 62,
      "hit": false,
      "t": 7282.615249999998,
      "d": 326.0872499999996,
      "v": 100
    },
    {
      "midi": 58,
      "hit": false,
      "t": 7282.615249999998,
      "d": 326.0872499999996,
      "v": 100
    },
    {
      "midi": 58,
      "hit": false,
      "t": 7282.615249999999,
      "d": 326.0872499999996,
      "v": 100
    },
    {
      "midi": 62,
      "hit": false,
      "t": 7282.615249999999,
      "d": 326.0872499999996,
      "v": 100
    },
    {
      "midi": 55,
      "hit": false,
      "t": 7282.615249999999,
      "d": 326.0872499999996,
      "v": 100
    },
    {
      "midi": 42,
      "hit": false,
      "t": 7391.310999999995,
      "d": 108.69574999999986,
      "v": 100
    },
    {
      "midi": 59,
      "hit": false,
      "t": 7391.311000000002,
      "d": 434.78300000000036,
      "v": 100
    },
    {
      "midi": 46,
      "hit": false,
      "t": 7500.006749999995,
      "d": 108.69574999999986,
      "v": 100
    },
    {
      "midi": 42,
      "hit": false,
      "t": 7608.702499999995,
      "d": 108.69574999999986,
      "v": 100
    },
    {
      "midi": 55,
      "hit": false,
      "t": 7608.702499999998,
      "d": 326.0872499999996,
      "v": 100
    },
    {
      "midi": 62,
      "hit": false,
      "t": 7608.702499999998,
      "d": 326.0872499999996,
      "v": 100
    },
    {
      "midi": 58,
      "hit": false,
      "t": 7608.702499999998,
      "d": 326.0872499999996,
      "v": 100
    },
    {
      "midi": 58,
      "hit": false,
      "t": 7608.7024999999985,
      "d": 326.0872499999996,
      "v": 100
    },
    {
      "midi": 62,
      "hit": false,
      "t": 7608.7024999999985,
      "d": 326.0872499999996,
      "v": 100
    },
    {
      "midi": 55,
      "hit": false,
      "t": 7608.7024999999985,
      "d": 326.0872499999996,
      "v": 100
    },
    {
      "midi": 46,
      "hit": false,
      "t": 7717.398249999995,
      "d": 108.69574999999986,
      "v": 100
    },
    {
      "midi": 42,
      "hit": false,
      "t": 7826.093999999995,
      "d": 108.69574999999986,
      "v": 100
    },
    {
      "midi": 59,
      "hit": false,
      "t": 7826.094000000003,
      "d": 434.78299999999945,
      "v": 100
    },
    {
      "midi": 42,
      "hit": false,
      "t": 7934.7897499999945,
      "d": 108.69574999999986,
      "v": 100
    },
    {
      "midi": 55,
      "hit": false,
      "t": 7934.789749999997,
      "d": 326.0872499999996,
      "v": 100
    },
    {
      "midi": 62,
      "hit": false,
      "t": 7934.789749999997,
      "d": 326.0872499999996,
      "v": 100
    },
    {
      "midi": 58,
      "hit": false,
      "t": 7934.789749999997,
      "d": 326.0872499999996,
      "v": 100
    },
    {
      "midi": 58,
      "hit": false,
      "t": 7934.789749999998,
      "d": 326.0872500000005,
      "v": 100
    },
    {
      "midi": 62,
      "hit": false,
      "t": 7934.789749999998,
      "d": 326.0872500000005,
      "v": 100
    },
    {
      "midi": 55,
      "hit": false,
      "t": 7934.789749999998,
      "d": 326.0872500000005,
      "v": 100
    },
    {
      "midi": 46,
      "hit": false,
      "t": 8043.485499999994,
      "d": 108.69574999999986,
      "v": 100
    },
    {
      "midi": 59,
      "hit": false,
      "t": 8260.877000000002,
      "d": 434.78299999999945,
      "v": 100
    },
    {
      "midi": 42,
      "hit": false,
      "t": 8369.572749999994,
      "d": 108.69575000000077,
      "v": 100
    },
    {
      "midi": 55,
      "hit": false,
      "t": 8369.572749999998,
      "d": 108.69575000000077,
      "v": 100
    },
    {
      "midi": 62,
      "hit": false,
      "t": 8369.572749999998,
      "d": 108.69575000000077,
      "v": 100
    },
    {
      "midi": 58,
      "hit": false,
      "t": 8369.572749999998,
      "d": 108.69575000000077,
      "v": 100
    },
    {
      "midi": 58,
      "hit": false,
      "t": 8369.57275,
      "d": 108.69575000000077,
      "v": 100
    },
    {
      "midi": 62,
      "hit": false,
      "t": 8369.57275,
      "d": 108.69575000000077,
      "v": 100
    },
    {
      "midi": 55,
      "hit": false,
      "t": 8369.57275,
      "d": 108.69575000000077,
      "v": 100
    },
    {
      "midi": 46,
      "hit": false,
      "t": 8478.268499999995,
      "d": 108.69575000000077,
      "v": 100
    },
    {
      "midi": 42,
      "hit": false,
      "t": 8695.659999999996,
      "d": 108.69575000000077,
      "v": 100
    },
    {
      "midi": 59,
      "hit": false,
      "t": 8695.660000000002,
      "d": 434.78299999999945,
      "v": 100
    },
    {
      "midi": 42,
      "hit": false,
      "t": 8804.355749999997,
      "d": 108.69575000000077,
      "v": 100
    },
    {
      "midi": 46,
      "hit": false,
      "t": 8913.051499999998,
      "d": 108.69575000000077,
      "v": 100
    },
    {
      "midi": 42,
      "hit": false,
      "t": 9130.443,
      "d": 108.69575000000077,
      "v": 100
    },
    {
      "midi": 59,
      "hit": false,
      "t": 9130.443000000001,
      "d": 434.78299999999945,
      "v": 100
    },
    {
      "midi": 46,
      "hit": false,
      "t": 9239.13875,
      "d": 108.69575000000077,
      "v": 100
    },
    {
      "midi": 42,
      "hit": false,
      "t": 9347.8345,
      "d": 108.69575000000077,
      "v": 100
    },
    {
      "midi": 46,
      "hit": false,
      "t": 9456.530250000002,
      "d": 108.69575000000077,
      "v": 100
    },
    {
      "midi": 59,
      "hit": false,
      "t": 9565.226,
      "d": 434.78299999999945,
      "v": 100
    },
    {
      "midi": 42,
      "hit": false,
      "t": 9565.226000000002,
      "d": 108.69575000000077,
      "v": 100
    },
    {
      "midi": 42,
      "hit": false,
      "t": 9673.921750000003,
      "d": 108.69575000000077,
      "v": 100
    },
    {
      "midi": 46,
      "hit": false,
      "t": 9782.617500000004,
      "d": 108.69575000000077,
      "v": 100
    },
    {
      "midi": 59,
      "hit": false,
      "t": 10000.009,
      "d": 434.78299999999945,
      "v": 100
    },
    {
      "midi": 42,
      "hit": false,
      "t": 10108.704750000004,
      "d": 108.69575000000077,
      "v": 100
    },
    {
      "midi": 46,
      "hit": false,
      "t": 10217.400500000005,
      "d": 108.69575000000077,
      "v": 100
    },
    {
      "midi": 55,
      "hit": false,
      "t": 10434.791999999998,
      "d": 326.0872500000005,
      "v": 100
    },
    {
      "midi": 58,
      "hit": false,
      "t": 10434.791999999998,
      "d": 326.0872500000005,
      "v": 100
    },
    {
      "midi": 65,
      "hit": false,
      "t": 10434.791999999998,
      "d": 326.0872500000005,
      "v": 100
    },
    {
      "midi": 62,
      "hit": false,
      "t": 10434.791999999998,
      "d": 326.0872500000005,
      "v": 100
    },
    {
      "midi": 58,
      "hit": false,
      "t": 10434.792,
      "d": 326.0872500000005,
      "v": 100
    },
    {
      "midi": 55,
      "hit": false,
      "t": 10434.792,
      "d": 326.0872500000005,
      "v": 100
    },
    {
      "midi": 62,
      "hit": false,
      "t": 10434.792,
      "d": 326.0872500000005,
      "v": 100
    },
    {
      "midi": 65,
      "hit": false,
      "t": 10434.792,
      "d": 326.0872500000005,
      "v": 100
    },
    {
      "midi": 36,
      "hit": false,
      "t": 10434.792,
      "d": 434.78299999999945,
      "v": 100
    },
    {
      "midi": 42,
      "hit": false,
      "t": 10434.792,
      "d": 217.39149999999972,
      "v": 100
    },
    {
      "midi": 35,
      "hit": false,
      "t": 10434.792,
      "d": 217.39149999999972,
      "v": 100
    },
    {
      "midi": 59,
      "hit": false,
      "t": 10434.792,
      "d": 434.78300000000127,
      "v": 100
    },
    {
      "midi": 65,
      "hit": false,
      "t": 10434.792000000001,
      "d": 3478.263999999999,
      "v": 100
    },
    {
      "midi": 55,
      "hit": false,
      "t": 10434.792000000001,
      "d": 3478.263999999999,
      "v": 100
    },
    {
      "midi": 62,
      "hit": false,
      "t": 10434.792000000001,
      "d": 3478.263999999999,
      "v": 100
    },
    {
      "midi": 58,
      "hit": false,
      "t": 10434.792000000001,
      "d": 3478.263999999999,
      "v": 100
    },
    {
      "midi": 48,
      "hit": false,
      "t": 10434.792000000001,
      "d": 3478.263999999999,
      "v": 100
    },
    {
      "midi": 62,
      "hit": false,
      "t": 10434.792000000001,
      "d": 3478.263999999999,
      "v": 100
    },
    {
      "midi": 55,
      "hit": false,
      "t": 10434.792000000001,
      "d": 3478.263999999999,
      "v": 100
    },
    {
      "midi": 65,
      "hit": false,
      "t": 10434.792000000001,
      "d": 3478.263999999999,
      "v": 100
    },
    {
      "midi": 48,
      "hit": false,
      "t": 10434.792000000001,
      "d": 3478.263999999999,
      "v": 100
    },
    {
      "midi": 58,
      "hit": false,
      "t": 10434.792000000001,
      "d": 3478.263999999999,
      "v": 100
    },
    {
      "midi": 65,
      "hit": false,
      "t": 10434.792000000001,
      "d": 3478.263999999999,
      "v": 100
    },
    {
      "midi": 42,
      "hit": false,
      "t": 10434.792000000007,
      "d": 108.69575000000077,
      "v": 100
    },
    {
      "midi": 49,
      "hit": false,
      "t": 10434.792000000007,
      "d": 217.39150000000154,
      "v": 100
    },
    {
      "midi": 42,
      "hit": false,
      "t": 10543.487750000008,
      "d": 108.69575000000077,
      "v": 100
    },
    {
      "midi": 42,
      "hit": false,
      "t": 10652.1835,
      "d": 108.69575000000077,
      "v": 100
    },
    {
      "midi": 46,
      "hit": false,
      "t": 10652.183500000008,
      "d": 108.69575000000077,
      "v": 100
    },
    {
      "midi": 55,
      "hit": false,
      "t": 10760.879249999998,
      "d": 326.0872500000005,
      "v": 100
    },
    {
      "midi": 62,
      "hit": false,
      "t": 10760.879249999998,
      "d": 326.0872500000005,
      "v": 100
    },
    {
      "midi": 58,
      "hit": false,
      "t": 10760.879249999998,
      "d": 326.0872500000005,
      "v": 100
    },
    {
      "midi": 65,
      "hit": false,
      "t": 10760.879249999998,
      "d": 326.0872500000005,
      "v": 100
    },
    {
      "midi": 62,
      "hit": false,
      "t": 10760.87925,
      "d": 326.0872500000005,
      "v": 100
    },
    {
      "midi": 55,
      "hit": false,
      "t": 10760.87925,
      "d": 326.0872500000005,
      "v": 100
    },
    {
      "midi": 65,
      "hit": false,
      "t": 10760.87925,
      "d": 326.0872500000005,
      "v": 100
    },
    {
      "midi": 58,
      "hit": false,
      "t": 10760.87925,
      "d": 326.0872500000005,
      "v": 100
    },
    {
      "midi": 42,
      "hit": false,
      "t": 10760.87925,
      "d": 108.69575000000077,
      "v": 100
    },
    {
      "midi": 48,
      "hit": false,
      "t": 10869.574999999999,
      "d": 217.39149999999972,
      "v": 100
    },
    {
      "midi": 38,
      "hit": false,
      "t": 10869.575,
      "d": 108.69575000000077,
      "v": 100
    },
    {
      "midi": 35,
      "hit": false,
      "t": 10869.575,
      "d": 217.39150000000154,
      "v": 100
    },
    {
      "midi": 42,
      "hit": false,
      "t": 10869.575,
      "d": 217.39150000000154,
      "v": 100
    },
    {
      "midi": 59,
      "hit": false,
      "t": 10869.575,
      "d": 434.7830000000031,
      "v": 100
    },
    {
      "midi": 42,
      "hit": false,
      "t": 10869.57500000001,
      "d": 108.69575000000077,
      "v": 100
    },
    {
      "midi": 46,
      "hit": false,
      "t": 10978.27075000001,
      "d": 108.69575000000077,
      "v": 100
    },
    {
      "midi": 55,
      "hit": false,
      "t": 11086.966499999999,
      "d": 326.0872500000005,
      "v": 100
    },
    {
      "midi": 62,
      "hit": false,
      "t": 11086.966499999999,
      "d": 326.0872500000005,
      "v": 100
    },
    {
      "midi": 65,
      "hit": false,
      "t": 11086.966499999999,
      "d": 326.0872500000005,
      "v": 100
    },
    {
      "midi": 58,
      "hit": false,
      "t": 11086.966499999999,
      "d": 326.0872500000005,
      "v": 100
    },
    {
      "midi": 36,
      "hit": false,
      "t": 11086.966499999999,
      "d": 217.39149999999972,
      "v": 100
    },
    {
      "midi": 62,
      "hit": false,
      "t": 11086.9665,
      "d": 326.0872500000005,
      "v": 100
    },
    {
      "midi": 55,
      "hit": false,
      "t": 11086.9665,
      "d": 326.0872500000005,
      "v": 100
    },
    {
      "midi": 58,
      "hit": false,
      "t": 11086.9665,
      "d": 326.0872500000005,
      "v": 100
    },
    {
      "midi": 65,
      "hit": false,
      "t": 11086.9665,
      "d": 326.0872500000005,
      "v": 100
    },
    {
      "midi": 42,
      "hit": false,
      "t": 11086.966500000002,
      "d": 108.69575000000077,
      "v": 100
    },
    {
      "midi": 42,
      "hit": false,
      "t": 11086.966500000011,
      "d": 108.69575000000077,
      "v": 100
    },
    {
      "midi": 42,
      "hit": false,
      "t": 11195.662250000003,
      "d": 108.69575000000077,
      "v": 100
    },
    {
      "midi": 38,
      "hit": false,
      "t": 11195.662250000003,
      "d": 108.69575000000077,
      "v": 100
    },
    {
      "midi": 46,
      "hit": false,
      "t": 11195.662250000012,
      "d": 108.69575000000077,
      "v": 100
    },
    {
      "midi": 36,
      "hit": false,
      "t": 11304.357999999998,
      "d": 108.69575000000077,
      "v": 100
    },
    {
      "midi": 35,
      "hit": false,
      "t": 11304.358000000004,
      "d": 217.39150000000154,
      "v": 100
    },
    {
      "midi": 42,
      "hit": false,
      "t": 11304.358000000004,
      "d": 217.39150000000154,
      "v": 100
    },
    {
      "midi": 59,
      "hit": false,
      "t": 11304.358000000004,
      "d": 434.7830000000031,
      "v": 100
    },
    {
      "midi": 42,
      "hit": false,
      "t": 11304.358000000013,
      "d": 108.69575000000077,
      "v": 100
    },
    {
      "midi": 55,
      "hit": false,
      "t": 11413.05375,
      "d": 326.0872500000005,
      "v": 100
    },
    {
      "midi": 62,
      "hit": false,
      "t": 11413.05375,
      "d": 326.0872500000005,
      "v": 100
    },
    {
      "midi": 65,
      "hit": false,
      "t": 11413.05375,
      "d": 326.0872500000005,
      "v": 100
    },
    {
      "midi": 58,
      "hit": false,
      "t": 11413.05375,
      "d": 326.0872500000005,
      "v": 100
    },
    {
      "midi": 36,
      "hit": false,
      "t": 11413.05375,
      "d": 108.69575000000077,
      "v": 100
    },
    {
      "midi": 62,
      "hit": false,
      "t": 11413.053750000001,
      "d": 326.0872500000005,
      "v": 100
    },
    {
      "midi": 55,
      "hit": false,
      "t": 11413.053750000001,
      "d": 326.0872500000005,
      "v": 100
    },
    {
      "midi": 58,
      "hit": false,
      "t": 11413.053750000001,
      "d": 326.0872500000005,
      "v": 100
    },
    {
      "midi": 65,
      "hit": false,
      "t": 11413.053750000001,
      "d": 326.0872500000005,
      "v": 100
    },
    {
      "midi": 38,
      "hit": false,
      "t": 11413.053750000005,
      "d": 108.69575000000077,
      "v": 100
    },
    {
      "midi": 42,
      "hit": false,
      "t": 11413.053750000014,
      "d": 108.69575000000077,
      "v": 100
    },
    {
      "midi": 36,
      "hit": false,
      "t": 11521.7495,
      "d": 217.39149999999972,
      "v": 100
    },
    {
      "midi": 46,
      "hit": false,
      "t": 11521.749500000005,
      "d": 108.69575000000077,
      "v": 100
    },
    {
      "midi": 46,
      "hit": false,
      "t": 11521.749500000014,
      "d": 108.69575000000077,
      "v": 100
    },
    {
      "midi": 48,
      "hit": false,
      "t": 11739.141,
      "d": 217.39149999999972,
      "v": 100
    },
    {
      "midi": 40,
      "hit": false,
      "t": 11739.141000000007,
      "d": 217.39149999999972,
      "v": 100
    },
    {
      "midi": 35,
      "hit": false,
      "t": 11739.141000000007,
      "d": 217.39149999999972,
      "v": 100
    },
    {
      "midi": 59,
      "hit": false,
      "t": 11739.141000000007,
      "d": 434.78300000000127,
      "v": 100
    },
    {
      "midi": 58,
      "hit": false,
      "t": 11847.83675,
      "d": 108.69575000000077,
      "v": 100
    },
    {
      "midi": 62,
      "hit": false,
      "t": 11847.83675,
      "d": 108.69575000000077,
      "v": 100
    },
    {
      "midi": 55,
      "hit": false,
      "t": 11847.83675,
      "d": 108.69575000000077,
      "v": 100
    },
    {
      "midi": 65,
      "hit": false,
      "t": 11847.83675,
      "d": 108.69575000000077,
      "v": 100
    },
    {
      "midi": 62,
      "hit": false,
      "t": 11847.836750000002,
      "d": 108.69575000000077,
      "v": 100
    },
    {
      "midi": 58,
      "hit": false,
      "t": 11847.836750000002,
      "d": 108.69575000000077,
      "v": 100
    },
    {
      "midi": 65,
      "hit": false,
      "t": 11847.836750000002,
      "d": 108.69575000000077,
      "v": 100
    },
    {
      "midi": 55,
      "hit": false,
      "t": 11847.836750000002,
      "d": 108.69575000000077,
      "v": 100
    },
    {
      "midi": 42,
      "hit": false,
      "t": 11847.836750000015,
      "d": 108.69575000000077,
      "v": 100
    },
    {
      "midi": 36,
      "hit": false,
      "t": 11956.5325,
      "d": 217.39149999999972,
      "v": 100
    },
    {
      "midi": 35,
      "hit": false,
      "t": 11956.532500000007,
      "d": 108.69575000000077,
      "v": 100
    },
    {
      "midi": 49,
      "hit": false,
      "t": 11956.532500000007,
      "d": 217.39150000000154,
      "v": 100
    },
    {
      "midi": 46,
      "hit": false,
      "t": 11956.532500000016,
      "d": 108.69575000000077,
      "v": 100
    },
    {
      "midi": 36,
      "hit": false,
      "t": 12173.923999999999,
      "d": 434.78299999999945,
      "v": 100
    },
    {
      "midi": 42,
      "hit": false,
      "t": 12173.924000000008,
      "d": 217.39149999999972,
      "v": 100
    },
    {
      "midi": 35,
      "hit": false,
      "t": 12173.924000000008,
      "d": 217.39149999999972,
      "v": 100
    },
    {
      "midi": 59,
      "hit": false,
      "t": 12173.924000000008,
      "d": 434.78300000000127,
      "v": 100
    },
    {
      "midi": 42,
      "hit": false,
      "t": 12173.924000000017,
      "d": 108.69575000000077,
      "v": 100
    },
    {
      "midi": 42,
      "hit": false,
      "t": 12282.619750000018,
      "d": 108.69575000000077,
      "v": 100
    },
    {
      "midi": 42,
      "hit": false,
      "t": 12391.315500000008,
      "d": 108.69575000000077,
      "v": 100
    },
    {
      "midi": 46,
      "hit": false,
      "t": 12391.315500000019,
      "d": 108.69575000000077,
      "v": 100
    },
    {
      "midi": 42,
      "hit": false,
      "t": 12500.011250000009,
      "d": 108.69575000000077,
      "v": 100
    },
    {
      "midi": 48,
      "hit": false,
      "t": 12608.706999999999,
      "d": 217.39149999999972,
      "v": 100
    },
    {
      "midi": 38,
      "hit": false,
      "t": 12608.70700000001,
      "d": 108.69575000000077,
      "v": 100
    },
    {
      "midi": 35,
      "hit": false,
      "t": 12608.70700000001,
      "d": 217.39150000000154,
      "v": 100
    },
    {
      "midi": 42,
      "hit": false,
      "t": 12608.70700000001,
      "d": 217.39150000000154,
      "v": 100
    },
    {
      "midi": 59,
      "hit": false,
      "t": 12608.70700000001,
      "d": 434.7830000000031,
      "v": 100
    },
    {
      "midi": 42,
      "hit": false,
      "t": 12608.70700000002,
      "d": 108.69575000000077,
      "v": 100
    },
    {
      "midi": 46,
      "hit": false,
      "t": 12717.402750000021,
      "d": 108.69575000000077,
      "v": 100
    },
    {
      "midi": 36,
      "hit": false,
      "t": 12826.098499999998,
      "d": 217.39149999999972,
      "v": 100
    },
    {
      "midi": 42,
      "hit": false,
      "t": 12826.098500000011,
      "d": 108.69575000000077,
      "v": 100
    },
    {
      "midi": 42,
      "hit": false,
      "t": 12826.098500000022,
      "d": 108.69575000000077,
      "v": 100
    },
    {
      "midi": 42,
      "hit": false,
      "t": 12934.794250000012,
      "d": 108.69575000000077,
      "v": 100
    },
    {
      "midi": 38,
      "hit": false,
      "t": 12934.794250000012,
      "d": 108.69575000000077,
      "v": 100
    },
    {
      "midi": 46,
      "hit": false,
      "t": 12934.794250000023,
      "d": 108.69575000000077,
      "v": 100
    },
    {
      "midi": 36,
      "hit": false,
      "t": 13043.489999999998,
      "d": 108.69575000000077,
      "v": 100
    },
    {
      "midi": 42,
      "hit": false,
      "t": 13043.490000000013,
      "d": 217.39149999999972,
      "v": 100
    },
    {
      "midi": 35,
      "hit": false,
      "t": 13043.490000000013,
      "d": 217.39149999999972,
      "v": 100
    },
    {
      "midi": 59,
      "hit": false,
      "t": 13043.490000000013,
      "d": 434.78299999999945,
      "v": 100
    },
    {
      "midi": 42,
      "hit": false,
      "t": 13043.490000000023,
      "d": 108.69575000000077,
      "v": 100
    },
    {
      "midi": 36,
      "hit": false,
      "t": 13152.185749999999,
      "d": 108.69575000000077,
      "v": 100
    },
    {
      "midi": 42,
      "hit": false,
      "t": 13152.185750000024,
      "d": 108.69575000000077,
      "v": 100
    },
    {
      "midi": 36,
      "hit": false,
      "t": 13260.8815,
      "d": 217.39149999999972,
      "v": 100
    },
    {
      "midi": 46,
      "hit": false,
      "t": 13260.881500000012,
      "d": 217.39149999999972,
      "v": 100
    },
    {
      "midi": 46,
      "hit": false,
      "t": 13260.881500000025,
      "d": 108.69575000000077,
      "v": 100
    },
    {
      "midi": 48,
      "hit": false,
      "t": 13478.273,
      "d": 217.39149999999972,
      "v": 100
    },
    {
      "midi": 38,
      "hit": false,
      "t": 13478.273000000012,
      "d": 217.39149999999972,
      "v": 100
    },
    {
      "midi": 35,
      "hit": false,
      "t": 13478.273000000012,
      "d": 217.39149999999972,
      "v": 100
    },
    {
      "midi": 59,
      "hit": false,
      "t": 13478.273000000012,
      "d": 434.78300000000127,
      "v": 100
    },
    {
      "midi": 42,
      "hit": false,
      "t": 13586.968750000025,
      "d": 108.69575000000077,
      "v": 100
    },
    {
      "midi": 36,
      "hit": false,
      "t": 13695.664499999999,
      "d": 217.39149999999972,
      "v": 100
    },
    {
      "midi": 38,
      "hit": false,
      "t": 13695.664500000012,
      "d": 108.69575000000077,
      "v": 100
    },
    {
      "midi": 49,
      "hit": false,
      "t": 13695.664500000012,
      "d": 217.39150000000154,
      "v": 100
    },
    {
      "midi": 46,
      "hit": false,
      "t": 13695.664500000026,
      "d": 108.69575000000077,
      "v": 100
    },
    {
      "midi": 57,
      "hit": false,
      "t": 13695.664500000026,
      "d": 217.39150000000154,
      "v": 100
    },
    {
      "midi": 38,
      "hit": false,
      "t": 13804.360250000012,
      "d": 108.69575000000077,
      "v": 100
    },
    {
      "midi": 36,
      "hit": false,
      "t": 13913.055999999999,
      "d": 434.78299999999945,
      "v": 100
    },
    {
      "midi": 48,
      "hit": false,
      "t": 13913.056,
      "d": 3478.263999999999,
      "v": 100
    },
    {
      "midi": 60,
      "hit": false,
      "t": 13913.056,
      "d": 3478.263999999999,
      "v": 100
    },
    {
      "midi": 53,
      "hit": false,
      "t": 13913.056,
      "d": 3478.263999999999,
      "v": 100
    },
    {
      "midi": 67,
      "hit": false,
      "t": 13913.056,
      "d": 3478.263999999999,
      "v": 100
    },
    {
      "midi": 55,
      "hit": false,
      "t": 13913.056,
      "d": 3478.263999999999,
      "v": 100
    },
    {
      "midi": 60,
      "hit": false,
      "t": 13913.056,
      "d": 326.0872500000005,
      "v": 100
    },
    {
      "midi": 53,
      "hit": false,
      "t": 13913.056,
      "d": 326.0872500000005,
      "v": 100
    },
    {
      "midi": 67,
      "hit": false,
      "t": 13913.056,
      "d": 326.0872500000005,
      "v": 100
    },
    {
      "midi": 53,
      "hit": false,
      "t": 13913.056,
      "d": 3478.263999999999,
      "v": 100
    },
    {
      "midi": 60,
      "hit": false,
      "t": 13913.056,
      "d": 3478.263999999999,
      "v": 100
    },
    {
      "midi": 48,
      "hit": false,
      "t": 13913.056,
      "d": 3478.263999999999,
      "v": 100
    },
    {
      "midi": 55,
      "hit": false,
      "t": 13913.056,
      "d": 3478.263999999999,
      "v": 100
    },
    {
      "midi": 67,
      "hit": false,
      "t": 13913.056,
      "d": 3478.263999999999,
      "v": 100
    },
    {
      "midi": 60,
      "hit": false,
      "t": 13913.056,
      "d": 3478.263999999999,
      "v": 100
    },
    {
      "midi": 67,
      "hit": false,
      "t": 13913.056,
      "d": 3478.263999999999,
      "v": 100
    },
    {
      "midi": 67,
      "hit": false,
      "t": 13913.056000000002,
      "d": 326.0872500000005,
      "v": 100
    },
    {
      "midi": 53,
      "hit": false,
      "t": 13913.056000000002,
      "d": 326.0872500000005,
      "v": 100
    },
    {
      "midi": 60,
      "hit": false,
      "t": 13913.056000000002,
      "d": 326.0872500000005,
      "v": 100
    },
    {
      "midi": 35,
      "hit": false,
      "t": 13913.056000000013,
      "d": 217.39149999999972,
      "v": 100
    },
    {
      "midi": 42,
      "hit": false,
      "t": 13913.056000000013,
      "d": 217.39149999999972,
      "v": 100
    },
    {
      "midi": 59,
      "hit": false,
      "t": 13913.056000000013,
      "d": 434.78300000000127,
      "v": 100
    },
    {
      "midi": 42,
      "hit": false,
      "t": 13913.056000000028,
      "d": 108.69575000000077,
      "v": 100
    },
    {
      "midi": 49,
      "hit": false,
      "t": 13913.056000000028,
      "d": 217.39150000000154,
      "v": 100
    },
    {
      "midi": 42,
      "hit": false,
      "t": 14021.751750000029,
      "d": 108.69575000000077,
      "v": 100
    },
    {
      "midi": 42,
      "hit": false,
      "t": 14130.447500000013,
      "d": 108.69575000000077,
      "v": 100
    },
    {
      "midi": 46,
      "hit": false,
      "t": 14130.44750000003,
      "d": 108.69575000000077,
      "v": 100
    },
    {
      "midi": 67,
      "hit": false,
      "t": 14239.143250000001,
      "d": 326.0872500000005,
      "v": 100
    },
    {
      "midi": 53,
      "hit": false,
      "t": 14239.143250000001,
      "d": 326.0872500000005,
      "v": 100
    },
    {
      "midi": 60,
      "hit": false,
      "t": 14239.143250000001,
      "d": 326.0872500000005,
      "v": 100
    },
    {
      "midi": 60,
      "hit": false,
      "t": 14239.143250000003,
      "d": 326.0872500000005,
      "v": 100
    },
    {
      "midi": 53,
      "hit": false,
      "t": 14239.143250000003,
      "d": 326.0872500000005,
      "v": 100
    },
    {
      "midi": 67,
      "hit": false,
      "t": 14239.143250000003,
      "d": 326.0872500000005,
      "v": 100
    },
    {
      "midi": 42,
      "hit": false,
      "t": 14239.143250000014,
      "d": 108.69575000000077,
      "v": 100
    },
    {
      "midi": 48,
      "hit": false,
      "t": 14347.838999999998,
      "d": 217.39149999999972,
      "v": 100
    },
    {
      "midi": 38,
      "hit": false,
      "t": 14347.839000000014,
      "d": 108.69575000000077,
      "v": 100
    },
    {
      "midi": 42,
      "hit": false,
      "t": 14347.839000000014,
      "d": 217.39150000000154,
      "v": 100
    },
    {
      "midi": 35,
      "hit": false,
      "t": 14347.839000000014,
      "d": 217.39150000000154,
      "v": 100
    },
    {
      "midi": 59,
      "hit": false,
      "t": 14347.839000000014,
      "d": 434.7830000000031,
      "v": 100
    },
    {
      "midi": 42,
      "hit": false,
      "t": 14347.83900000003,
      "d": 108.69575000000077,
      "v": 100
    },
    {
      "midi": 46,
      "hit": false,
      "t": 14456.534750000032,
      "d": 108.69575000000077,
      "v": 100
    },
    {
      "midi": 36,
      "hit": false,
      "t": 14565.230499999998,
      "d": 217.39149999999972,
      "v": 100
    },
    {
      "midi": 53,
      "hit": false,
      "t": 14565.230500000001,
      "d": 326.0872500000005,
      "v": 100
    },
    {
      "midi": 60,
      "hit": false,
      "t": 14565.230500000001,
      "d": 326.0872500000005,
      "v": 100
    },
    {
      "midi": 67,
      "hit": false,
      "t": 14565.230500000001,
      "d": 326.0872500000005,
      "v": 100
    },
    {
      "midi": 67,
      "hit": false,
      "t": 14565.230500000003,
      "d": 326.0872500000005,
      "v": 100
    },
    {
      "midi": 60,
      "hit": false,
      "t": 14565.230500000003,
      "d": 326.0872500000005,
      "v": 100
    },
    {
      "midi": 53,
      "hit": false,
      "t": 14565.230500000003,
      "d": 326.0872500000005,
      "v": 100
    },
    {
      "midi": 42,
      "hit": false,
      "t": 14565.230500000016,
      "d": 108.69575000000077,
      "v": 100
    },
    {
      "midi": 42,
      "hit": false,
      "t": 14565.230500000032,
      "d": 108.69575000000077,
      "v": 100
    },
    {
      "midi": 38,
      "hit": false,
      "t": 14673.926250000017,
      "d": 108.69575000000077,
      "v": 100
    },
    {
      "midi": 42,
      "hit": false,
      "t": 14673.926250000017,
      "d": 108.69575000000077,
      "v": 100
    },
    {
      "midi": 46,
      "hit": false,
      "t": 14673.926250000033,
      "d": 108.69575000000077,
      "v": 100
    },
    {
      "midi": 36,
      "hit": false,
      "t": 14782.621999999998,
      "d": 108.69575000000077,
      "v": 100
    },
    {
      "midi": 35,
      "hit": false,
      "t": 14782.622000000018,
      "d": 217.39149999999972,
      "v": 100
    },
    {
      "midi": 42,
      "hit": false,
      "t": 14782.622000000018,
      "d": 217.39149999999972,
      "v": 100
    },
    {
      "midi": 59,
      "hit": false,
      "t": 14782.622000000018,
      "d": 434.78300000000127,
      "v": 100
    },
    {
      "midi": 42,
      "hit": false,
      "t": 14782.622000000034,
      "d": 108.69575000000077,
      "v": 100
    },
    {
      "midi": 36,
      "hit": false,
      "t": 14891.317749999998,
      "d": 108.69575000000077,
      "v": 100
    },
    {
      "midi": 60,
      "hit": false,
      "t": 14891.317750000002,
      "d": 326.0872500000005,
      "v": 100
    },
    {
      "midi": 67,
      "hit": false,
      "t": 14891.317750000002,
      "d": 326.0872500000005,
      "v": 100
    },
    {
      "midi": 53,
      "hit": false,
      "t": 14891.317750000002,
      "d": 326.0872500000005,
      "v": 100
    },
    {
      "midi": 53,
      "hit": false,
      "t": 14891.317750000004,
      "d": 326.0872500000005,
      "v": 100
    },
    {
      "midi": 67,
      "hit": false,
      "t": 14891.317750000004,
      "d": 326.0872500000005,
      "v": 100
    },
    {
      "midi": 60,
      "hit": false,
      "t": 14891.317750000004,
      "d": 326.0872500000005,
      "v": 100
    },
    {
      "midi": 42,
      "hit": false,
      "t": 14891.317750000035,
      "d": 108.69575000000077,
      "v": 100
    },
    {
      "midi": 36,
      "hit": false,
      "t": 15000.0135,
      "d": 217.39149999999972,
      "v": 100
    },
    {
      "midi": 46,
      "hit": false,
      "t": 15000.013500000017,
      "d": 108.69575000000077,
      "v": 100
    },
    {
      "midi": 46,
      "hit": false,
      "t": 15000.013500000035,
      "d": 108.69575000000077,
      "v": 100
    },
    {
      "midi": 48,
      "hit": false,
      "t": 15217.404999999999,
      "d": 217.39149999999972,
      "v": 100
    },
    {
      "midi": 35,
      "hit": false,
      "t": 15217.405000000019,
      "d": 217.39149999999972,
      "v": 100
    },
    {
      "midi": 40,
      "hit": false,
      "t": 15217.405000000019,
      "d": 217.39149999999972,
      "v": 100
    },
    {
      "midi": 59,
      "hit": false,
      "t": 15217.405000000019,
      "d": 434.78300000000127,
      "v": 100
    },
    {
      "midi": 60,
      "hit": false,
      "t": 15326.100750000003,
      "d": 108.69575000000077,
      "v": 100
    },
    {
      "midi": 53,
      "hit": false,
      "t": 15326.100750000003,
      "d": 108.69575000000077,
      "v": 100
    },
    {
      "midi": 67,
      "hit": false,
      "t": 15326.100750000003,
      "d": 108.69575000000077,
      "v": 100
    },
    {
      "midi": 67,
      "hit": false,
      "t": 15326.100750000005,
      "d": 108.69575000000077,
      "v": 100
    },
    {
      "midi": 53,
      "hit": false,
      "t": 15326.100750000005,
      "d": 108.69575000000077,
      "v": 100
    },
    {
      "midi": 60,
      "hit": false,
      "t": 15326.100750000005,
      "d": 108.69575000000077,
      "v": 100
    },
    {
      "midi": 42,
      "hit": false,
      "t": 15326.100750000036,
      "d": 108.69575000000077,
      "v": 100
    },
    {
      "midi": 36,
      "hit": false,
      "t": 15434.796499999999,
      "d": 217.39149999999972,
      "v": 100
    },
    {
      "midi": 35,
      "hit": false,
      "t": 15434.796500000019,
      "d": 108.69575000000077,
      "v": 100
    },
    {
      "midi": 49,
      "hit": false,
      "t": 15434.796500000019,
      "d": 217.39150000000154,
      "v": 100
    },
    {
      "midi": 46,
      "hit": false,
      "t": 15434.796500000037,
      "d": 108.69575000000077,
      "v": 100
    },
    {
      "midi": 36,
      "hit": false,
      "t": 15652.187999999998,
      "d": 434.78299999999945,
      "v": 100
    },
    {
      "midi": 35,
      "hit": false,
      "t": 15652.18800000002,
      "d": 217.39149999999972,
      "v": 100
    },
    {
      "midi": 42,
      "hit": false,
      "t": 15652.18800000002,
      "d": 217.39149999999972,
      "v": 100
    },
    {
      "midi": 59,
      "hit": false,
      "t": 15652.18800000002,
      "d": 434.78300000000127,
      "v": 100
    },
    {
      "midi": 42,
      "hit": false,
      "t": 15652.188000000038,
      "d": 108.69575000000077,
      "v": 100
    },
    {
      "midi": 42,
      "hit": false,
      "t": 15760.883750000039,
      "d": 108.69575000000077,
      "v": 100
    },
    {
      "midi": 42,
      "hit": false,
      "t": 15869.57950000002,
      "d": 108.69575000000077,
      "v": 100
    },
    {
      "midi": 46,
      "hit": false,
      "t": 15869.57950000004,
      "d": 108.69575000000077,
      "v": 100
    },
    {
      "midi": 42,
      "hit": false,
      "t": 15978.27525000002,
      "d": 108.69575000000077,
      "v": 100
    },
    {
      "midi": 48,
      "hit": false,
      "t": 16086.970999999998,
      "d": 217.39149999999972,
      "v": 100
    },
    {
      "midi": 38,
      "hit": false,
      "t": 16086.971000000021,
      "d": 108.69575000000077,
      "v": 100
    },
    {
      "midi": 42,
      "hit": false,
      "t": 16086.971000000021,
      "d": 217.39150000000154,
      "v": 100
    },
    {
      "midi": 35,
      "hit": false,
      "t": 16086.971000000021,
      "d": 217.39150000000154,
      "v": 100
    },
    {
      "midi": 59,
      "hit": false,
      "t": 16086.971000000021,
      "d": 434.78300000000127,
      "v": 100
    },
    {
      "midi": 42,
      "hit": false,
      "t": 16086.971000000041,
      "d": 108.69575000000077,
      "v": 100
    },
    {
      "midi": 46,
      "hit": false,
      "t": 16195.666750000042,
      "d": 108.69575000000077,
      "v": 100
    },
    {
      "midi": 36,
      "hit": false,
      "t": 16304.362499999997,
      "d": 217.39149999999972,
      "v": 100
    },
    {
      "midi": 42,
      "hit": false,
      "t": 16304.362500000023,
      "d": 108.69575000000077,
      "v": 100
    },
    {
      "midi": 42,
      "hit": false,
      "t": 16304.362500000043,
      "d": 108.69574999999895,
      "v": 100
    },
    {
      "midi": 38,
      "hit": false,
      "t": 16413.058250000024,
      "d": 108.69574999999895,
      "v": 100
    },
    {
      "midi": 42,
      "hit": false,
      "t": 16413.058250000024,
      "d": 108.69574999999895,
      "v": 100
    },
    {
      "midi": 46,
      "hit": false,
      "t": 16413.058250000042,
      "d": 108.69574999999895,
      "v": 100
    },
    {
      "midi": 36,
      "hit": false,
      "t": 16521.753999999997,
      "d": 108.69574999999895,
      "v": 100
    },
    {
      "midi": 42,
      "hit": false,
      "t": 16521.754000000023,
      "d": 217.3914999999979,
      "v": 100
    },
    {
      "midi": 35,
      "hit": false,
      "t": 16521.754000000023,
      "d": 217.3914999999979,
      "v": 100
    },
    {
      "midi": 59,
      "hit": false,
      "t": 16521.754000000023,
      "d": 434.7829999999958,
      "v": 100
    },
    {
      "midi": 42,
      "hit": false,
      "t": 16521.75400000004,
      "d": 108.69574999999895,
      "v": 100
    },
    {
      "midi": 36,
      "hit": false,
      "t": 16630.449749999996,
      "d": 108.69574999999895,
      "v": 100
    },
    {
      "midi": 38,
      "hit": false,
      "t": 16630.44975000002,
      "d": 108.69574999999895,
      "v": 100
    },
    {
      "midi": 42,
      "hit": false,
      "t": 16630.44975000004,
      "d": 108.69574999999895,
      "v": 100
    },
    {
      "midi": 36,
      "hit": false,
      "t": 16739.145499999995,
      "d": 217.39150000000154,
      "v": 100
    },
    {
      "midi": 38,
      "hit": false,
      "t": 16739.14550000002,
      "d": 108.69574999999895,
      "v": 100
    },
    {
      "midi": 46,
      "hit": false,
      "t": 16739.14550000002,
      "d": 217.3914999999979,
      "v": 100
    },
    {
      "midi": 46,
      "hit": false,
      "t": 16739.14550000004,
      "d": 108.69574999999895,
      "v": 100
    },
    {
      "midi": 48,
      "hit": false,
      "t": 16956.536999999997,
      "d": 217.39150000000154,
      "v": 100
    },
    {
      "midi": 41,
      "hit": false,
      "t": 16956.537,
      "d": 45.289895833331684,
      "v": 100
    },
    {
      "midi": 35,
      "hit": false,
      "t": 16956.53700000002,
      "d": 217.3914999999979,
      "v": 100
    },
    {
      "midi": 59,
      "hit": false,
      "t": 16956.53700000002,
      "d": 434.7829999999958,
      "v": 100
    },
    {
      "midi": 43,
      "hit": false,
      "t": 17065.23275,
      "d": 45.289895833331684,
      "v": 100
    },
    {
      "midi": 38,
      "hit": false,
      "t": 17065.232750000017,
      "d": 108.69574999999895,
      "v": 100
    },
    {
      "midi": 42,
      "hit": false,
      "t": 17065.23275000004,
      "d": 108.69574999999895,
      "v": 100
    },
    {
      "midi": 46,
      "hit": false,
      "t": 17173.928499999998,
      "d": 45.289895833331684,
      "v": 100
    },
    {
      "midi": 36,
      "hit": false,
      "t": 17173.928499999998,
      "d": 217.39150000000154,
      "v": 100
    },
    {
      "midi": 38,
      "hit": false,
      "t": 17173.928500000016,
      "d": 108.69574999999895,
      "v": 100
    },
    {
      "midi": 49,
      "hit": false,
      "t": 17173.928500000016,
      "d": 217.3914999999979,
      "v": 100
    },
    {
      "midi": 46,
      "hit": false,
      "t": 17173.92850000004,
      "d": 108.69574999999895,
      "v": 100
    },
    {
      "midi": 50,
      "hit": false,
      "t": 17282.624249999997,
      "d": 45.289895833331684,
      "v": 100
    },
    {
      "midi": 38,
      "hit": false,
      "t": 17282.624250000015,
      "d": 108.69574999999895,
      "v": 100
    },
    {
      "midi": 36,
      "hit": false,
      "t": 17391.319999999996,
      "d": 45.289895833331684,
      "v": 100
    },
    {
      "midi": 48,
      "hit": false,
      "t": 17391.32,
      "d": 3478.263999999999,
      "v": 100
    },
    {
      "midi": 58,
      "hit": false,
      "t": 17391.32,
      "d": 3478.263999999999,
      "v": 100
    },
    {
      "midi": 65,
      "hit": false,
      "t": 17391.32,
      "d": 3478.263999999999,
      "v": 100
    },
    {
      "midi": 62,
      "hit": false,
      "t": 17391.32,
      "d": 3478.263999999999,
      "v": 100
    },
    {
      "midi": 55,
      "hit": false,
      "t": 17391.32,
      "d": 3478.263999999999,
      "v": 100
    },
    {
      "midi": 65,
      "hit": false,
      "t": 17391.32,
      "d": 3478.263999999999,
      "v": 100
    },
    {
      "midi": 58,
      "hit": false,
      "t": 17391.32,
      "d": 3478.263999999999,
      "v": 100
    },
    {
      "midi": 48,
      "hit": false,
      "t": 17391.32,
      "d": 3478.263999999999,
      "v": 100
    },
    {
      "midi": 55,
      "hit": false,
      "t": 17391.32,
      "d": 3478.263999999999,
      "v": 100
    },
    {
      "midi": 62,
      "hit": false,
      "t": 17391.32,
      "d": 3478.263999999999,
      "v": 100
    },
    {
      "midi": 65,
      "hit": false,
      "t": 17391.32,
      "d": 3478.263999999999,
      "v": 100
    },
    {
      "midi": 48,
      "hit": false,
      "t": 17391.32,
      "d": 108.69574999999895,
      "v": 100
    },
    {
      "midi": 36,
      "hit": false,
      "t": 17391.32,
      "d": 434.78299999999945,
      "v": 100
    },
    {
      "midi": 58,
      "hit": false,
      "t": 17391.320000000003,
      "d": 326.0872500000005,
      "v": 100
    },
    {
      "midi": 55,
      "hit": false,
      "t": 17391.320000000003,
      "d": 326.0872500000005,
      "v": 100
    },
    {
      "midi": 62,
      "hit": false,
      "t": 17391.320000000003,
      "d": 326.0872500000005,
      "v": 100
    },
    {
      "midi": 65,
      "hit": false,
      "t": 17391.320000000003,
      "d": 326.0872500000005,
      "v": 100
    },
    {
      "midi": 55,
      "hit": false,
      "t": 17391.320000000007,
      "d": 326.0872500000005,
      "v": 100
    },
    {
      "midi": 58,
      "hit": false,
      "t": 17391.320000000007,
      "d": 326.0872500000005,
      "v": 100
    },
    {
      "midi": 65,
      "hit": false,
      "t": 17391.320000000007,
      "d": 326.0872500000005,
      "v": 100
    },
    {
      "midi": 62,
      "hit": false,
      "t": 17391.320000000007,
      "d": 326.0872500000005,
      "v": 100
    },
    {
      "midi": 42,
      "hit": false,
      "t": 17391.320000000014,
      "d": 217.39150000000154,
      "v": 100
    },
    {
      "midi": 35,
      "hit": false,
      "t": 17391.320000000014,
      "d": 217.39150000000154,
      "v": 100
    },
    {
      "midi": 59,
      "hit": false,
      "t": 17391.320000000014,
      "d": 434.78299999999945,
      "v": 100
    },
    {
      "midi": 42,
      "hit": false,
      "t": 17391.320000000036,
      "d": 108.69574999999895,
      "v": 100
    },
    {
      "midi": 49,
      "hit": false,
      "t": 17391.320000000036,
      "d": 217.3914999999979,
      "v": 100
    },
    {
      "midi": 48,
      "hit": false,
      "t": 17500.01575,
      "d": 108.69574999999895,
      "v": 100
    },
    {
      "midi": 42,
      "hit": false,
      "t": 17500.015750000035,
      "d": 108.69574999999895,
      "v": 100
    },
    {
      "midi": 36,
      "hit": false,
      "t": 17608.711499999994,
      "d": 45.289895833331684,
      "v": 100
    },
    {
      "midi": 48,
      "hit": false,
      "t": 17608.711499999998,
      "d": 108.69574999999895,
      "v": 100
    },
    {
      "midi": 42,
      "hit": false,
      "t": 17608.711500000016,
      "d": 108.69574999999895,
      "v": 100
    },
    {
      "midi": 46,
      "hit": false,
      "t": 17608.711500000034,
      "d": 108.69574999999895,
      "v": 100
    },
    {
      "midi": 51,
      "hit": false,
      "t": 17717.407249999997,
      "d": 217.39150000000154,
      "v": 100
    },
    {
      "midi": 62,
      "hit": false,
      "t": 17717.407250000004,
      "d": 326.0872500000005,
      "v": 100
    },
    {
      "midi": 55,
      "hit": false,
      "t": 17717.407250000004,
      "d": 326.0872500000005,
      "v": 100
    },
    {
      "midi": 65,
      "hit": false,
      "t": 17717.407250000004,
      "d": 326.0872500000005,
      "v": 100
    },
    {
      "midi": 58,
      "hit": false,
      "t": 17717.407250000004,
      "d": 326.0872500000005,
      "v": 100
    },
    {
      "midi": 55,
      "hit": false,
      "t": 17717.407250000007,
      "d": 326.0872500000005,
      "v": 100
    },
    {
      "midi": 62,
      "hit": false,
      "t": 17717.407250000007,
      "d": 326.0872500000005,
      "v": 100
    },
    {
      "midi": 58,
      "hit": false,
      "t": 17717.407250000007,
      "d": 326.0872500000005,
      "v": 100
    },
    {
      "midi": 65,
      "hit": false,
      "t": 17717.407250000007,
      "d": 326.0872500000005,
      "v": 100
    },
    {
      "midi": 42,
      "hit": false,
      "t": 17717.407250000015,
      "d": 108.69574999999895,
      "v": 100
    },
    {
      "midi": 36,
      "hit": false,
      "t": 17826.102999999992,
      "d": 45.289895833331684,
      "v": 100
    },
    {
      "midi": 48,
      "hit": false,
      "t": 17826.103,
      "d": 217.39150000000154,
      "v": 100
    },
    {
      "midi": 38,
      "hit": false,
      "t": 17826.103000000014,
      "d": 108.69574999999895,
      "v": 100
    },
    {
      "midi": 35,
      "hit": false,
      "t": 17826.103000000014,
      "d": 217.3914999999979,
      "v": 100
    },
    {
      "midi": 42,
      "hit": false,
      "t": 17826.103000000014,
      "d": 217.3914999999979,
      "v": 100
    },
    {
      "midi": 59,
      "hit": false,
      "t": 17826.103000000014,
      "d": 434.7829999999958,
      "v": 100
    },
    {
      "midi": 42,
      "hit": false,
      "t": 17826.103000000032,
      "d": 108.69574999999895,
      "v": 100
    },
    {
      "midi": 40,
      "hit": false,
      "t": 17826.103000000032,
      "d": 217.3914999999979,
      "v": 100
    },
    {
      "midi": 48,
      "hit": false,
      "t": 17934.79874999999,
      "d": 45.289895833331684,
      "v": 100
    },
    {
      "midi": 48,
      "hit": false,
      "t": 17934.798749999998,
      "d": 108.69574999999895,
      "v": 100
    },
    {
      "midi": 46,
      "hit": false,
      "t": 17934.79875000003,
      "d": 108.69574999999895,
      "v": 100
    },
    {
      "midi": 48,
      "hit": false,
      "t": 18043.494499999997,
      "d": 108.69574999999895,
      "v": 100
    },
    {
      "midi": 36,
      "hit": false,
      "t": 18043.4945,
      "d": 217.39150000000154,
      "v": 100
    },
    {
      "midi": 62,
      "hit": false,
      "t": 18043.494500000004,
      "d": 326.0872500000005,
      "v": 100
    },
    {
      "midi": 55,
      "hit": false,
      "t": 18043.494500000004,
      "d": 326.0872500000005,
      "v": 100
    },
    {
      "midi": 58,
      "hit": false,
      "t": 18043.494500000004,
      "d": 326.0872500000005,
      "v": 100
    },
    {
      "midi": 65,
      "hit": false,
      "t": 18043.494500000004,
      "d": 326.0872500000005,
      "v": 100
    },
    {
      "midi": 55,
      "hit": false,
      "t": 18043.494500000008,
      "d": 326.0872500000005,
      "v": 100
    },
    {
      "midi": 62,
      "hit": false,
      "t": 18043.494500000008,
      "d": 326.0872500000005,
      "v": 100
    },
    {
      "midi": 65,
      "hit": false,
      "t": 18043.494500000008,
      "d": 326.0872500000005,
      "v": 100
    },
    {
      "midi": 58,
      "hit": false,
      "t": 18043.494500000008,
      "d": 326.0872500000005,
      "v": 100
    },
    {
      "midi": 42,
      "hit": false,
      "t": 18043.49450000001,
      "d": 108.69574999999895,
      "v": 100
    },
    {
      "midi": 42,
      "hit": false,
      "t": 18043.49450000003,
      "d": 108.69574999999895,
      "v": 100
    },
    {
      "midi": 43,
      "hit": false,
      "t": 18152.19024999999,
      "d": 45.289895833331684,
      "v": 100
    },
    {
      "midi": 48,
      "hit": false,
      "t": 18152.190249999996,
      "d": 108.69574999999895,
      "v": 100
    },
    {
      "midi": 42,
      "hit": false,
      "t": 18152.19025000001,
      "d": 108.69574999999895,
      "v": 100
    },
    {
      "midi": 38,
      "hit": false,
      "t": 18152.19025000001,
      "d": 108.69574999999895,
      "v": 100
    },
    {
      "midi": 46,
      "hit": false,
      "t": 18152.19025000003,
      "d": 108.69574999999895,
      "v": 100
    },
    {
      "midi": 51,
      "hit": false,
      "t": 18260.885999999995,
      "d": 217.39150000000154,
      "v": 100
    },
    {
      "midi": 36,
      "hit": false,
      "t": 18260.886000000002,
      "d": 108.69574999999895,
      "v": 100
    },
    {
      "midi": 42,
      "hit": false,
      "t": 18260.88600000001,
      "d": 217.39150000000154,
      "v": 100
    },
    {
      "midi": 35,
      "hit": false,
      "t": 18260.88600000001,
      "d": 217.39150000000154,
      "v": 100
    },
    {
      "midi": 59,
      "hit": false,
      "t": 18260.88600000001,
      "d": 434.78299999999945,
      "v": 100
    },
    {
      "midi": 42,
      "hit": false,
      "t": 18260.886000000028,
      "d": 108.69574999999895,
      "v": 100
    },
    {
      "midi": 41,
      "hit": false,
      "t": 18369.581749999987,
      "d": 45.289895833331684,
      "v": 100
    },
    {
      "midi": 36,
      "hit": false,
      "t": 18369.58175,
      "d": 108.69574999999895,
      "v": 100
    },
    {
      "midi": 62,
      "hit": false,
      "t": 18369.581750000005,
      "d": 326.0872500000005,
      "v": 100
    },
    {
      "midi": 55,
      "hit": false,
      "t": 18369.581750000005,
      "d": 326.0872500000005,
      "v": 100
    },
    {
      "midi": 58,
      "hit": false,
      "t": 18369.581750000005,
      "d": 326.0872500000005,
      "v": 100
    },
    {
      "midi": 65,
      "hit": false,
      "t": 18369.581750000005,
      "d": 326.0872500000005,
      "v": 100
    },
    {
      "midi": 55,
      "hit": false,
      "t": 18369.58175000001,
      "d": 326.0872500000005,
      "v": 100
    },
    {
      "midi": 62,
      "hit": false,
      "t": 18369.58175000001,
      "d": 326.0872500000005,
      "v": 100
    },
    {
      "midi": 65,
      "hit": false,
      "t": 18369.58175000001,
      "d": 326.0872500000005,
      "v": 100
    },
    {
      "midi": 58,
      "hit": false,
      "t": 18369.58175000001,
      "d": 326.0872500000005,
      "v": 100
    },
    {
      "midi": 42,
      "hit": false,
      "t": 18369.581750000027,
      "d": 108.69574999999895,
      "v": 100
    },
    {
      "midi": 41,
      "hit": false,
      "t": 18478.277499999986,
      "d": 86.05080208333311,
      "v": 100
    },
    {
      "midi": 48,
      "hit": false,
      "t": 18478.277499999997,
      "d": 108.69574999999895,
      "v": 100
    },
    {
      "midi": 36,
      "hit": false,
      "t": 18478.2775,
      "d": 217.39150000000154,
      "v": 100
    },
    {
      "midi": 46,
      "hit": false,
      "t": 18478.27750000001,
      "d": 108.69574999999895,
      "v": 100
    },
    {
      "midi": 46,
      "hit": false,
      "t": 18478.277500000026,
      "d": 108.69574999999895,
      "v": 100
    },
    {
      "midi": 48,
      "hit": false,
      "t": 18586.973249999995,
      "d": 108.69574999999895,
      "v": 100
    },
    {
      "midi": 43,
      "hit": false,
      "t": 18695.668999999987,
      "d": 45.289895833331684,
      "v": 100
    },
    {
      "midi": 53,
      "hit": false,
      "t": 18695.668999999994,
      "d": 108.69574999999895,
      "v": 100
    },
    {
      "midi": 48,
      "hit": false,
      "t": 18695.669,
      "d": 217.39150000000154,
      "v": 100
    },
    {
      "midi": 40,
      "hit": false,
      "t": 18695.66900000001,
      "d": 217.39150000000154,
      "v": 100
    },
    {
      "midi": 35,
      "hit": false,
      "t": 18695.66900000001,
      "d": 217.39150000000154,
      "v": 100
    },
    {
      "midi": 59,
      "hit": false,
      "t": 18695.66900000001,
      "d": 434.78299999999945,
      "v": 100
    },
    {
      "midi": 40,
      "hit": false,
      "t": 18695.669000000024,
      "d": 217.3914999999979,
      "v": 100
    },
    {
      "midi": 45,
      "hit": false,
      "t": 18804.364749999986,
      "d": 45.289895833331684,
      "v": 100
    },
    {
      "midi": 48,
      "hit": false,
      "t": 18804.364749999993,
      "d": 108.69574999999895,
      "v": 100
    },
    {
      "midi": 62,
      "hit": false,
      "t": 18804.364750000004,
      "d": 108.69574999999895,
      "v": 100
    },
    {
      "midi": 58,
      "hit": false,
      "t": 18804.364750000004,
      "d": 108.69574999999895,
      "v": 100
    },
    {
      "midi": 65,
      "hit": false,
      "t": 18804.364750000004,
      "d": 108.69574999999895,
      "v": 100
    },
    {
      "midi": 55,
      "hit": false,
      "t": 18804.364750000004,
      "d": 108.69574999999895,
      "v": 100
    },
    {
      "midi": 58,
      "hit": false,
      "t": 18804.364750000008,
      "d": 108.69574999999895,
      "v": 100
    },
    {
      "midi": 62,
      "hit": false,
      "t": 18804.364750000008,
      "d": 108.69574999999895,
      "v": 100
    },
    {
      "midi": 55,
      "hit": false,
      "t": 18804.364750000008,
      "d": 108.69574999999895,
      "v": 100
    },
    {
      "midi": 65,
      "hit": false,
      "t": 18804.364750000008,
      "d": 108.69574999999895,
      "v": 100
    },
    {
      "midi": 42,
      "hit": false,
      "t": 18804.364750000022,
      "d": 108.69574999999895,
      "v": 100
    },
    {
      "midi": 46,
      "hit": false,
      "t": 18913.060499999985,
      "d": 45.289895833331684,
      "v": 100
    },
    {
      "midi": 55,
      "hit": false,
      "t": 18913.060499999992,
      "d": 108.69574999999895,
      "v": 100
    },
    {
      "midi": 36,
      "hit": false,
      "t": 18913.060500000003,
      "d": 217.39150000000154,
      "v": 100
    },
    {
      "midi": 35,
      "hit": false,
      "t": 18913.06050000001,
      "d": 108.69574999999895,
      "v": 100
    },
    {
      "midi": 49,
      "hit": false,
      "t": 18913.06050000001,
      "d": 217.3914999999979,
      "v": 100
    },
    {
      "midi": 46,
      "hit": false,
      "t": 18913.06050000002,
      "d": 108.69574999999895,
      "v": 100
    },
    {
      "midi": 50,
      "hit": false,
      "t": 19021.756249999984,
      "d": 45.289895833331684,
      "v": 100
    },
    {
      "midi": 48,
      "hit": false,
      "t": 19021.75624999999,
      "d": 108.69574999999895,
      "v": 100
    },
    {
      "midi": 36,
      "hit": false,
      "t": 19130.451999999983,
      "d": 45.289895833331684,
      "v": 100
    },
    {
      "midi": 48,
      "hit": false,
      "t": 19130.45199999999,
      "d": 108.69574999999895,
      "v": 100
    },
    {
      "midi": 36,
      "hit": false,
      "t": 19130.452000000005,
      "d": 434.78299999999945,
      "v": 100
    },
    {
      "midi": 42,
      "hit": false,
      "t": 19130.45200000001,
      "d": 217.39150000000154,
      "v": 100
    },
    {
      "midi": 35,
      "hit": false,
      "t": 19130.45200000001,
      "d": 217.39150000000154,
      "v": 100
    },
    {
      "midi": 59,
      "hit": false,
      "t": 19130.45200000001,
      "d": 434.78299999999945,
      "v": 100
    },
    {
      "midi": 42,
      "hit": false,
      "t": 19130.45200000002,
      "d": 108.69574999999895,
      "v": 100
    },
    {
      "midi": 36,
      "hit": false,
      "t": 19239.147749999982,
      "d": 45.289895833331684,
      "v": 100
    },
    {
      "midi": 48,
      "hit": false,
      "t": 19239.14774999999,
      "d": 108.69574999999895,
      "v": 100
    },
    {
      "midi": 42,
      "hit": false,
      "t": 19239.14775000002,
      "d": 108.69574999999895,
      "v": 100
    },
    {
      "midi": 36,
      "hit": false,
      "t": 19347.84349999998,
      "d": 86.05080208333311,
      "v": 100
    },
    {
      "midi": 48,
      "hit": false,
      "t": 19347.843499999988,
      "d": 108.69574999999895,
      "v": 100
    },
    {
      "midi": 42,
      "hit": false,
      "t": 19347.84350000001,
      "d": 108.69574999999895,
      "v": 100
    },
    {
      "midi": 46,
      "hit": false,
      "t": 19347.843500000017,
      "d": 108.69574999999895,
      "v": 100
    },
    {
      "midi": 51,
      "hit": false,
      "t": 19456.539249999987,
      "d": 217.39150000000154,
      "v": 100
    },
    {
      "midi": 55,
      "hit": false,
      "t": 19456.53925,
      "d": 326.0872500000005,
      "v": 100
    },
    {
      "midi": 62,
      "hit": false,
      "t": 19456.53925,
      "d": 326.0872500000005,
      "v": 100
    },
    {
      "midi": 58,
      "hit": false,
      "t": 19456.53925,
      "d": 326.0872500000005,
      "v": 100
    },
    {
      "midi": 65,
      "hit": false,
      "t": 19456.53925,
      "d": 326.0872500000005,
      "v": 100
    },
    {
      "midi": 62,
      "hit": false,
      "t": 19456.539250000005,
      "d": 326.0872500000005,
      "v": 100
    },
    {
      "midi": 55,
      "hit": false,
      "t": 19456.539250000005,
      "d": 326.0872500000005,
      "v": 100
    },
    {
      "midi": 65,
      "hit": false,
      "t": 19456.539250000005,
      "d": 326.0872500000005,
      "v": 100
    },
    {
      "midi": 58,
      "hit": false,
      "t": 19456.539250000005,
      "d": 326.0872500000005,
      "v": 100
    },
    {
      "midi": 42,
      "hit": false,
      "t": 19456.53925000001,
      "d": 108.69574999999895,
      "v": 100
    },
    {
      "midi": 36,
      "hit": false,
      "t": 19565.234999999982,
      "d": 45.289895833331684,
      "v": 100
    },
    {
      "midi": 48,
      "hit": false,
      "t": 19565.235000000004,
      "d": 217.39150000000154,
      "v": 100
    },
    {
      "midi": 38,
      "hit": false,
      "t": 19565.235000000008,
      "d": 108.69574999999895,
      "v": 100
    },
    {
      "midi": 35,
      "hit": false,
      "t": 19565.235000000008,
      "d": 217.3914999999979,
      "v": 100
    },
    {
      "midi": 42,
      "hit": false,
      "t": 19565.235000000008,
      "d": 217.3914999999979,
      "v": 100
    },
    {
      "midi": 59,
      "hit": false,
      "t": 19565.235000000008,
      "d": 434.7829999999958,
      "v": 100
    },
    {
      "midi": 42,
      "hit": false,
      "t": 19565.235000000015,
      "d": 108.69574999999895,
      "v": 100
    },
    {
      "midi": 40,
      "hit": false,
      "t": 19565.235000000015,
      "d": 217.3914999999979,
      "v": 100
    },
    {
      "midi": 48,
      "hit": false,
      "t": 19673.93074999998,
      "d": 45.289895833331684,
      "v": 100
    },
    {
      "midi": 48,
      "hit": false,
      "t": 19673.93074999999,
      "d": 108.69574999999895,
      "v": 100
    },
    {
      "midi": 46,
      "hit": false,
      "t": 19673.930750000014,
      "d": 108.69574999999895,
      "v": 100
    },
    {
      "midi": 48,
      "hit": false,
      "t": 19782.626499999988,
      "d": 108.69574999999895,
      "v": 100
    },
    {
      "midi": 55,
      "hit": false,
      "t": 19782.626500000002,
      "d": 326.0872500000005,
      "v": 100
    },
    {
      "midi": 62,
      "hit": false,
      "t": 19782.626500000002,
      "d": 326.0872500000005,
      "v": 100
    },
    {
      "midi": 65,
      "hit": false,
      "t": 19782.626500000002,
      "d": 326.0872500000005,
      "v": 100
    },
    {
      "midi": 58,
      "hit": false,
      "t": 19782.626500000002,
      "d": 326.0872500000005,
      "v": 100
    },
    {
      "midi": 62,
      "hit": false,
      "t": 19782.626500000006,
      "d": 326.0872500000005,
      "v": 100
    },
    {
      "midi": 55,
      "hit": false,
      "t": 19782.626500000006,
      "d": 326.0872500000005,
      "v": 100
    },
    {
      "midi": 58,
      "hit": false,
      "t": 19782.626500000006,
      "d": 326.0872500000005,
      "v": 100
    },
    {
      "midi": 65,
      "hit": false,
      "t": 19782.626500000006,
      "d": 326.0872500000005,
      "v": 100
    },
    {
      "midi": 36,
      "hit": false,
      "t": 19782.626500000006,
      "d": 217.39150000000154,
      "v": 100
    },
    {
      "midi": 42,
      "hit": false,
      "t": 19782.626500000006,
      "d": 108.69574999999895,
      "v": 100
    },
    {
      "midi": 42,
      "hit": false,
      "t": 19782.626500000013,
      "d": 108.69574999999895,
      "v": 100
    },
    {
      "midi": 43,
      "hit": false,
      "t": 19891.32224999998,
      "d": 45.289895833331684,
      "v": 100
    },
    {
      "midi": 48,
      "hit": false,
      "t": 19891.322249999987,
      "d": 108.69574999999895,
      "v": 100
    },
    {
      "midi": 42,
      "hit": false,
      "t": 19891.322250000005,
      "d": 108.69574999999895,
      "v": 100
    },
    {
      "midi": 38,
      "hit": false,
      "t": 19891.322250000005,
      "d": 108.69574999999895,
      "v": 100
    },
    {
      "midi": 46,
      "hit": false,
      "t": 19891.322250000012,
      "d": 108.69574999999895,
      "v": 100
    },
    {
      "midi": 51,
      "hit": false,
      "t": 20000.017999999985,
      "d": 217.39150000000154,
      "v": 100
    },
    {
      "midi": 35,
      "hit": false,
      "t": 20000.018000000004,
      "d": 217.3914999999979,
      "v": 100
    },
    {
      "midi": 42,
      "hit": false,
      "t": 20000.018000000004,
      "d": 217.3914999999979,
      "v": 100
    },
    {
      "midi": 59,
      "hit": false,
      "t": 20000.018000000004,
      "d": 434.78299999999945,
      "v": 100
    },
    {
      "midi": 36,
      "hit": false,
      "t": 20000.018000000007,
      "d": 108.69574999999895,
      "v": 100
    },
    {
      "midi": 42,
      "hit": false,
      "t": 20000.01800000001,
      "d": 108.69574999999895,
      "v": 100
    },
    {
      "midi": 41,
      "hit": false,
      "t": 20108.713749999977,
      "d": 45.289895833331684,
      "v": 100
    },
    {
      "midi": 55,
      "hit": false,
      "t": 20108.713750000003,
      "d": 326.0872500000005,
      "v": 100
    },
    {
      "midi": 62,
      "hit": false,
      "t": 20108.713750000003,
      "d": 326.0872500000005,
      "v": 100
    },
    {
      "midi": 65,
      "hit": false,
      "t": 20108.713750000003,
      "d": 326.0872500000005,
      "v": 100
    },
    {
      "midi": 58,
      "hit": false,
      "t": 20108.713750000003,
      "d": 326.0872500000005,
      "v": 100
    },
    {
      "midi": 38,
      "hit": false,
      "t": 20108.713750000003,
      "d": 108.69574999999895,
      "v": 100
    },
    {
      "midi": 62,
      "hit": false,
      "t": 20108.713750000006,
      "d": 326.0872500000005,
      "v": 100
    },
    {
      "midi": 55,
      "hit": false,
      "t": 20108.713750000006,
      "d": 326.0872500000005,
      "v": 100
    },
    {
      "midi": 58,
      "hit": false,
      "t": 20108.713750000006,
      "d": 326.0872500000005,
      "v": 100
    },
    {
      "midi": 65,
      "hit": false,
      "t": 20108.713750000006,
      "d": 326.0872500000005,
      "v": 100
    },
    {
      "midi": 36,
      "hit": false,
      "t": 20108.713750000006,
      "d": 108.69574999999895,
      "v": 100
    },
    {
      "midi": 42,
      "hit": false,
      "t": 20108.71375000001,
      "d": 108.69574999999895,
      "v": 100
    },
    {
      "midi": 41,
      "hit": false,
      "t": 20217.409499999976,
      "d": 86.05080208333311,
      "v": 100
    },
    {
      "midi": 48,
      "hit": false,
      "t": 20217.409499999987,
      "d": 108.69574999999895,
      "v": 100
    },
    {
      "midi": 46,
      "hit": false,
      "t": 20217.4095,
      "d": 217.39150000000154,
      "v": 100
    },
    {
      "midi": 36,
      "hit": false,
      "t": 20217.409500000005,
      "d": 217.39150000000154,
      "v": 100
    },
    {
      "midi": 46,
      "hit": false,
      "t": 20217.40950000001,
      "d": 108.69574999999895,
      "v": 100
    },
    {
      "midi": 48,
      "hit": false,
      "t": 20326.105249999986,
      "d": 108.69574999999895,
      "v": 100
    },
    {
      "midi": 43,
      "hit": false,
      "t": 20434.800999999978,
      "d": 45.289895833331684,
      "v": 100
    },
    {
      "midi": 53,
      "hit": false,
      "t": 20434.800999999985,
      "d": 108.69574999999895,
      "v": 100
    },
    {
      "midi": 38,
      "hit": false,
      "t": 20434.801000000003,
      "d": 217.39150000000154,
      "v": 100
    },
    {
      "midi": 35,
      "hit": false,
      "t": 20434.801000000003,
      "d": 217.39150000000154,
      "v": 100
    },
    {
      "midi": 59,
      "hit": false,
      "t": 20434.801000000003,
      "d": 434.78299999999945,
      "v": 100
    },
    {
      "midi": 48,
      "hit": false,
      "t": 20434.801000000007,
      "d": 217.39150000000154,
      "v": 100
    },
    {
      "midi": 40,
      "hit": false,
      "t": 20434.801000000007,
      "d": 217.3914999999979,
      "v": 100
    },
    {
      "midi": 45,
      "hit": false,
      "t": 20543.496749999977,
      "d": 45.289895833331684,
      "v": 100
    },
    {
      "midi": 48,
      "hit": false,
      "t": 20543.496749999984,
      "d": 108.69574999999895,
      "v": 100
    },
    {
      "midi": 58,
      "hit": false,
      "t": 20543.496750000002,
      "d": 108.69574999999895,
      "v": 100
    },
    {
      "midi": 62,
      "hit": false,
      "t": 20543.496750000002,
      "d": 108.69574999999895,
      "v": 100
    },
    {
      "midi": 55,
      "hit": false,
      "t": 20543.496750000002,
      "d": 108.69574999999895,
      "v": 100
    },
    {
      "midi": 65,
      "hit": false,
      "t": 20543.496750000002,
      "d": 108.69574999999895,
      "v": 100
    },
    {
      "midi": 62,
      "hit": false,
      "t": 20543.496750000006,
      "d": 108.69574999999895,
      "v": 100
    },
    {
      "midi": 58,
      "hit": false,
      "t": 20543.496750000006,
      "d": 108.69574999999895,
      "v": 100
    },
    {
      "midi": 65,
      "hit": false,
      "t": 20543.496750000006,
      "d": 108.69574999999895,
      "v": 100
    },
    {
      "midi": 55,
      "hit": false,
      "t": 20543.496750000006,
      "d": 108.69574999999895,
      "v": 100
    },
    {
      "midi": 42,
      "hit": false,
      "t": 20543.496750000006,
      "d": 108.69574999999895,
      "v": 100
    },
    {
      "midi": 46,
      "hit": false,
      "t": 20652.192499999976,
      "d": 45.289895833331684,
      "v": 100
    },
    {
      "midi": 55,
      "hit": false,
      "t": 20652.192499999983,
      "d": 108.69574999999895,
      "v": 100
    },
    {
      "midi": 38,
      "hit": false,
      "t": 20652.192500000005,
      "d": 108.69574999999895,
      "v": 100
    },
    {
      "midi": 49,
      "hit": false,
      "t": 20652.192500000005,
      "d": 217.3914999999979,
      "v": 100
    },
    {
      "midi": 46,
      "hit": false,
      "t": 20652.192500000005,
      "d": 108.69574999999895,
      "v": 100
    },
    {
      "midi": 36,
      "hit": false,
      "t": 20652.19250000001,
      "d": 217.39150000000154,
      "v": 100
    },
    {
      "midi": 50,
      "hit": false,
      "t": 20760.888249999975,
      "d": 45.289895833331684,
      "v": 100
    },
    {
      "midi": 48,
      "hit": false,
      "t": 20760.88824999998,
      "d": 108.69574999999895,
      "v": 100
    },
    {
      "midi": 38,
      "hit": false,
      "t": 20760.888250000004,
      "d": 108.69574999999895,
      "v": 100
    },
    {
      "midi": 36,
      "hit": false,
      "t": 20869.583999999973,
      "d": 45.289895833331684,
      "v": 100
    },
    {
      "midi": 48,
      "hit": false,
      "t": 20869.58399999998,
      "d": 108.69574999999895,
      "v": 100
    },
    {
      "midi": 53,
      "hit": false,
      "t": 20869.584,
      "d": 3478.263999999999,
      "v": 100
    },
    {
      "midi": 63,
      "hit": false,
      "t": 20869.584,
      "d": 3478.263999999999,
      "v": 100
    },
    {
      "midi": 56,
      "hit": false,
      "t": 20869.584,
      "d": 3478.263999999999,
      "v": 100
    },
    {
      "midi": 51,
      "hit": false,
      "t": 20869.584,
      "d": 3478.263999999999,
      "v": 100
    },
    {
      "midi": 68,
      "hit": false,
      "t": 20869.584,
      "d": 3478.263999999999,
      "v": 100
    },
    {
      "midi": 56,
      "hit": false,
      "t": 20869.584,
      "d": 3478.263999999999,
      "v": 100
    },
    {
      "midi": 63,
      "hit": false,
      "t": 20869.584,
      "d": 3478.263999999999,
      "v": 100
    },
    {
      "midi": 53,
      "hit": false,
      "t": 20869.584,
      "d": 3478.263999999999,
      "v": 100
    },
    {
      "midi": 68,
      "hit": false,
      "t": 20869.584,
      "d": 3478.263999999999,
      "v": 100
    },
    {
      "midi": 51,
      "hit": false,
      "t": 20869.584,
      "d": 3478.263999999999,
      "v": 100
    },
    {
      "midi": 67,
      "hit": false,
      "t": 20869.584,
      "d": 3478.263999999999,
      "v": 100
    },
    {
      "midi": 60,
      "hit": false,
      "t": 20869.584,
      "d": 3478.263999999999,
      "v": 100
    },
    {
      "midi": 56,
      "hit": false,
      "t": 20869.584000000003,
      "d": 326.0872500000005,
      "v": 100
    },
    {
      "midi": 60,
      "hit": false,
      "t": 20869.584000000003,
      "d": 326.0872500000005,
      "v": 100
    },
    {
      "midi": 63,
      "hit": false,
      "t": 20869.584000000003,
      "d": 326.0872500000005,
      "v": 100
    },
    {
      "midi": 35,
      "hit": false,
      "t": 20869.584000000003,
      "d": 217.39150000000154,
      "v": 100
    },
    {
      "midi": 42,
      "hit": false,
      "t": 20869.584000000003,
      "d": 217.39150000000154,
      "v": 100
    },
    {
      "midi": 59,
      "hit": false,
      "t": 20869.584000000003,
      "d": 434.78299999999945,
      "v": 100
    },
    {
      "midi": 42,
      "hit": false,
      "t": 20869.584000000003,
      "d": 108.69574999999895,
      "v": 100
    },
    {
      "midi": 49,
      "hit": false,
      "t": 20869.584000000003,
      "d": 217.3914999999979,
      "v": 100
    },
    {
      "midi": 63,
      "hit": false,
      "t": 20869.584000000006,
      "d": 326.0872500000005,
      "v": 100
    },
    {
      "midi": 60,
      "hit": false,
      "t": 20869.584000000006,
      "d": 326.0872500000005,
      "v": 100
    },
    {
      "midi": 56,
      "hit": false,
      "t": 20869.584000000006,
      "d": 326.0872500000005,
      "v": 100
    },
    {
      "midi": 36,
      "hit": false,
      "t": 20869.58400000001,
      "d": 434.78299999999945,
      "v": 100
    },
    {
      "midi": 48,
      "hit": false,
      "t": 20978.27974999998,
      "d": 108.69574999999895,
      "v": 100
    },
    {
      "midi": 42,
      "hit": false,
      "t": 20978.27975,
      "d": 108.69574999999895,
      "v": 100
    },
    {
      "midi": 36,
      "hit": false,
      "t": 21086.97549999997,
      "d": 45.289895833331684,
      "v": 100
    },
    {
      "midi": 48,
      "hit": false,
      "t": 21086.97549999998,
      "d": 108.69574999999895,
      "v": 100
    },
    {
      "midi": 46,
      "hit": false,
      "t": 21086.9755,
      "d": 108.69574999999895,
      "v": 100
    },
    {
      "midi": 42,
      "hit": false,
      "t": 21086.975500000004,
      "d": 108.69574999999895,
      "v": 100
    },
    {
      "midi": 51,
      "hit": false,
      "t": 21195.671249999978,
      "d": 217.39150000000154,
      "v": 100
    },
    {
      "midi": 56,
      "hit": false,
      "t": 21195.671250000003,
      "d": 326.0872500000005,
      "v": 100
    },
    {
      "midi": 63,
      "hit": false,
      "t": 21195.671250000003,
      "d": 326.0872500000005,
      "v": 100
    },
    {
      "midi": 60,
      "hit": false,
      "t": 21195.671250000003,
      "d": 326.0872500000005,
      "v": 100
    },
    {
      "midi": 42,
      "hit": false,
      "t": 21195.671250000003,
      "d": 108.69574999999895,
      "v": 100
    },
    {
      "midi": 60,
      "hit": false,
      "t": 21195.671250000007,
      "d": 326.0872500000005,
      "v": 100
    },
    {
      "midi": 63,
      "hit": false,
      "t": 21195.671250000007,
      "d": 326.0872500000005,
      "v": 100
    },
    {
      "midi": 56,
      "hit": false,
      "t": 21195.671250000007,
      "d": 326.0872500000005,
      "v": 100
    },
    {
      "midi": 36,
      "hit": false,
      "t": 21304.36699999997,
      "d": 45.289895833331684,
      "v": 100
    },
    {
      "midi": 42,
      "hit": false,
      "t": 21304.367,
      "d": 108.69574999999895,
      "v": 100
    },
    {
      "midi": 40,
      "hit": false,
      "t": 21304.367,
      "d": 217.3914999999979,
      "v": 100
    },
    {
      "midi": 38,
      "hit": false,
      "t": 21304.367000000002,
      "d": 108.69574999999895,
      "v": 100
    },
    {
      "midi": 42,
      "hit": false,
      "t": 21304.367000000002,
      "d": 217.3914999999979,
      "v": 100
    },
    {
      "midi": 35,
      "hit": false,
      "t": 21304.367000000002,
      "d": 217.3914999999979,
      "v": 100
    },
    {
      "midi": 59,
      "hit": false,
      "t": 21304.367000000002,
      "d": 434.7829999999958,
      "v": 100
    },
    {
      "midi": 48,
      "hit": false,
      "t": 21304.36700000001,
      "d": 217.39150000000154,
      "v": 100
    },
    {
      "midi": 48,
      "hit": false,
      "t": 21413.06274999997,
      "d": 45.289895833331684,
      "v": 100
    },
    {
      "midi": 48,
      "hit": false,
      "t": 21413.06274999998,
      "d": 108.69574999999895,
      "v": 100
    },
    {
      "midi": 46,
      "hit": false,
      "t": 21413.062749999997,
      "d": 108.69574999999895,
      "v": 100
    },
    {
      "midi": 48,
      "hit": false,
      "t": 21521.758499999978,
      "d": 108.69574999999895,
      "v": 100
    },
    {
      "midi": 42,
      "hit": false,
      "t": 21521.758499999996,
      "d": 108.69574999999895,
      "v": 100
    },
    {
      "midi": 42,
      "hit": false,
      "t": 21521.7585,
      "d": 108.69574999999895,
      "v": 100
    },
    {
      "midi": 56,
      "hit": false,
      "t": 21521.758500000004,
      "d": 326.0872500000005,
      "v": 100
    },
    {
      "midi": 63,
      "hit": false,
      "t": 21521.758500000004,
      "d": 326.0872500000005,
      "v": 100
    },
    {
      "midi": 60,
      "hit": false,
      "t": 21521.758500000004,
      "d": 326.0872500000005,
      "v": 100
    },
    {
      "midi": 60,
      "hit": false,
      "t": 21521.758500000007,
      "d": 326.0872500000005,
      "v": 100
    },
    {
      "midi": 63,
      "hit": false,
      "t": 21521.758500000007,
      "d": 326.0872500000005,
      "v": 100
    },
    {
      "midi": 56,
      "hit": false,
      "t": 21521.758500000007,
      "d": 326.0872500000005,
      "v": 100
    },
    {
      "midi": 36,
      "hit": false,
      "t": 21521.75850000001,
      "d": 217.39150000000154,
      "v": 100
    },
    {
      "midi": 43,
      "hit": false,
      "t": 21630.454249999966,
      "d": 45.289895833331684,
      "v": 100
    },
    {
      "midi": 48,
      "hit": false,
      "t": 21630.454249999977,
      "d": 108.69574999999895,
      "v": 100
    },
    {
      "midi": 46,
      "hit": false,
      "t": 21630.454249999995,
      "d": 108.69574999999895,
      "v": 100
    },
    {
      "midi": 38,
      "hit": false,
      "t": 21630.45425,
      "d": 108.69574999999895,
      "v": 100
    },
    {
      "midi": 42,
      "hit": false,
      "t": 21630.45425,
      "d": 108.69574999999895,
      "v": 100
    },
    {
      "midi": 51,
      "hit": false,
      "t": 21739.149999999976,
      "d": 217.39150000000154,
      "v": 100
    },
    {
      "midi": 42,
      "hit": false,
      "t": 21739.149999999994,
      "d": 108.69574999999895,
      "v": 100
    },
    {
      "midi": 35,
      "hit": false,
      "t": 21739.149999999998,
      "d": 217.39150000000154,
      "v": 100
    },
    {
      "midi": 42,
      "hit": false,
      "t": 21739.149999999998,
      "d": 217.39150000000154,
      "v": 100
    },
    {
      "midi": 59,
      "hit": false,
      "t": 21739.149999999998,
      "d": 434.78299999999945,
      "v": 100
    },
    {
      "midi": 36,
      "hit": false,
      "t": 21739.150000000012,
      "d": 108.69574999999895,
      "v": 100
    },
    {
      "midi": 41,
      "hit": false,
      "t": 21847.845749999964,
      "d": 45.289895833331684,
      "v": 100
    },
    {
      "midi": 42,
      "hit": false,
      "t": 21847.845749999993,
      "d": 108.69574999999895,
      "v": 100
    },
    {
      "midi": 56,
      "hit": false,
      "t": 21847.845750000004,
      "d": 326.0872500000005,
      "v": 100
    },
    {
      "midi": 63,
      "hit": false,
      "t": 21847.845750000004,
      "d": 326.0872500000005,
      "v": 100
    },
    {
      "midi": 60,
      "hit": false,
      "t": 21847.845750000004,
      "d": 326.0872500000005,
      "v": 100
    },
    {
      "midi": 60,
      "hit": false,
      "t": 21847.845750000008,
      "d": 326.0872500000005,
      "v": 100
    },
    {
      "midi": 63,
      "hit": false,
      "t": 21847.845750000008,
      "d": 326.0872500000005,
      "v": 100
    },
    {
      "midi": 56,
      "hit": false,
      "t": 21847.845750000008,
      "d": 326.0872500000005,
      "v": 100
    },
    {
      "midi": 36,
      "hit": false,
      "t": 21847.84575000001,
      "d": 108.69574999999895,
      "v": 100
    },
    {
      "midi": 41,
      "hit": false,
      "t": 21956.541499999963,
      "d": 86.05080208333311,
      "v": 100
    },
    {
      "midi": 48,
      "hit": false,
      "t": 21956.541499999978,
      "d": 108.69574999999895,
      "v": 100
    },
    {
      "midi": 46,
      "hit": false,
      "t": 21956.541499999992,
      "d": 108.69574999999895,
      "v": 100
    },
    {
      "midi": 46,
      "hit": false,
      "t": 21956.5415,
      "d": 108.69574999999895,
      "v": 100
    },
    {
      "midi": 36,
      "hit": false,
      "t": 21956.54150000001,
      "d": 217.39150000000154,
      "v": 100
    },
    {
      "midi": 48,
      "hit": false,
      "t": 22065.237249999976,
      "d": 108.69574999999895,
      "v": 100
    },
    {
      "midi": 43,
      "hit": false,
      "t": 22173.932999999965,
      "d": 45.289895833331684,
      "v": 100
    },
    {
      "midi": 53,
      "hit": false,
      "t": 22173.932999999975,
      "d": 108.69574999999895,
      "v": 100
    },
    {
      "midi": 40,
      "hit": false,
      "t": 22173.93299999999,
      "d": 217.3914999999979,
      "v": 100
    },
    {
      "midi": 35,
      "hit": false,
      "t": 22173.932999999997,
      "d": 217.39150000000154,
      "v": 100
    },
    {
      "midi": 40,
      "hit": false,
      "t": 22173.932999999997,
      "d": 217.39150000000154,
      "v": 100
    },
    {
      "midi": 59,
      "hit": false,
      "t": 22173.932999999997,
      "d": 434.78299999999945,
      "v": 100
    },
    {
      "midi": 48,
      "hit": false,
      "t": 22173.93300000001,
      "d": 217.39150000000154,
      "v": 100
    },
    {
      "midi": 45,
      "hit": false,
      "t": 22282.628749999963,
      "d": 45.289895833331684,
      "v": 100
    },
    {
      "midi": 48,
      "hit": false,
      "t": 22282.628749999974,
      "d": 108.69574999999895,
      "v": 100
    },
    {
      "midi": 42,
      "hit": false,
      "t": 22282.62874999999,
      "d": 108.69574999999895,
      "v": 100
    },
    {
      "midi": 56,
      "hit": false,
      "t": 22282.628750000003,
      "d": 108.69574999999895,
      "v": 100
    },
    {
      "midi": 60,
      "hit": false,
      "t": 22282.628750000003,
      "d": 108.69574999999895,
      "v": 100
    },
    {
      "midi": 63,
      "hit": false,
      "t": 22282.628750000003,
      "d": 108.69574999999895,
      "v": 100
    },
    {
      "midi": 63,
      "hit": false,
      "t": 22282.628750000007,
      "d": 108.69574999999895,
      "v": 100
    },
    {
      "midi": 60,
      "hit": false,
      "t": 22282.628750000007,
      "d": 108.69574999999895,
      "v": 100
    },
    {
      "midi": 56,
      "hit": false,
      "t": 22282.628750000007,
      "d": 108.69574999999895,
      "v": 100
    },
    {
      "midi": 46,
      "hit": false,
      "t": 22391.324499999962,
      "d": 45.289895833331684,
      "v": 100
    },
    {
      "midi": 55,
      "hit": false,
      "t": 22391.324499999973,
      "d": 108.69574999999895,
      "v": 100
    },
    {
      "midi": 46,
      "hit": false,
      "t": 22391.324499999988,
      "d": 108.69574999999895,
      "v": 100
    },
    {
      "midi": 35,
      "hit": false,
      "t": 22391.3245,
      "d": 108.69574999999895,
      "v": 100
    },
    {
      "midi": 49,
      "hit": false,
      "t": 22391.3245,
      "d": 217.3914999999979,
      "v": 100
    },
    {
      "midi": 36,
      "hit": false,
      "t": 22391.324500000013,
      "d": 217.39150000000154,
      "v": 100
    },
    {
      "midi": 50,
      "hit": false,
      "t": 22500.02024999996,
      "d": 45.289895833331684,
      "v": 100
    },
    {
      "midi": 48,
      "hit": false,
      "t": 22500.020249999972,
      "d": 108.69574999999895,
      "v": 100
    },
    {
      "midi": 36,
      "hit": false,
      "t": 22608.71599999996,
      "d": 45.289895833331684,
      "v": 100
    },
    {
      "midi": 48,
      "hit": false,
      "t": 22608.71599999997,
      "d": 108.69574999999895,
      "v": 100
    },
    {
      "midi": 42,
      "hit": false,
      "t": 22608.715999999986,
      "d": 108.69574999999895,
      "v": 100
    },
    {
      "midi": 35,
      "hit": false,
      "t": 22608.715999999997,
      "d": 217.39150000000154,
      "v": 100
    },
    {
      "midi": 42,
      "hit": false,
      "t": 22608.715999999997,
      "d": 217.39150000000154,
      "v": 100
    },
    {
      "midi": 59,
      "hit": false,
      "t": 22608.715999999997,
      "d": 434.78299999999945,
      "v": 100
    },
    {
      "midi": 36,
      "hit": false,
      "t": 22608.716000000015,
      "d": 434.78299999999945,
      "v": 100
    },
    {
      "midi": 36,
      "hit": false,
      "t": 22717.41174999996,
      "d": 45.289895833331684,
      "v": 100
    },
    {
      "midi": 48,
      "hit": false,
      "t": 22717.41174999997,
      "d": 108.69574999999895,
      "v": 100
    },
    {
      "midi": 42,
      "hit": false,
      "t": 22717.411749999985,
      "d": 108.69574999999895,
      "v": 100
    },
    {
      "midi": 36,
      "hit": false,
      "t": 22826.10749999996,
      "d": 86.05080208333311,
      "v": 100
    },
    {
      "midi": 48,
      "hit": false,
      "t": 22826.10749999997,
      "d": 108.69574999999895,
      "v": 100
    },
    {
      "midi": 46,
      "hit": false,
      "t": 22826.107499999984,
      "d": 108.69574999999895,
      "v": 100
    },
    {
      "midi": 42,
      "hit": false,
      "t": 22826.1075,
      "d": 108.69574999999895,
      "v": 100
    },
    {
      "midi": 51,
      "hit": false,
      "t": 22934.803249999968,
      "d": 217.39150000000154,
      "v": 100
    },
    {
      "midi": 42,
      "hit": false,
      "t": 22934.803249999997,
      "d": 108.69574999999895,
      "v": 100
    },
    {
      "midi": 60,
      "hit": false,
      "t": 22934.80325,
      "d": 326.0872500000005,
      "v": 100
    },
    {
      "midi": 63,
      "hit": false,
      "t": 22934.80325,
      "d": 326.0872500000005,
      "v": 100
    },
    {
      "midi": 56,
      "hit": false,
      "t": 22934.80325,
      "d": 326.0872500000005,
      "v": 100
    },
    {
      "midi": 56,
      "hit": false,
      "t": 22934.803250000004,
      "d": 326.0872500000005,
      "v": 100
    },
    {
      "midi": 63,
      "hit": false,
      "t": 22934.803250000004,
      "d": 326.0872500000005,
      "v": 100
    },
    {
      "midi": 60,
      "hit": false,
      "t": 22934.803250000004,
      "d": 326.0872500000005,
      "v": 100
    },
    {
      "midi": 36,
      "hit": false,
      "t": 23043.49899999996,
      "d": 45.289895833331684,
      "v": 100
    },
    {
      "midi": 42,
      "hit": false,
      "t": 23043.49899999998,
      "d": 108.69574999999895,
      "v": 100
    },
    {
      "midi": 40,
      "hit": false,
      "t": 23043.49899999998,
      "d": 217.3914999999979,
      "v": 100
    },
    {
      "midi": 38,
      "hit": false,
      "t": 23043.498999999996,
      "d": 108.69574999999895,
      "v": 100
    },
    {
      "midi": 42,
      "hit": false,
      "t": 23043.498999999996,
      "d": 217.3914999999979,
      "v": 100
    },
    {
      "midi": 35,
      "hit": false,
      "t": 23043.498999999996,
      "d": 217.3914999999979,
      "v": 100
    },
    {
      "midi": 59,
      "hit": false,
      "t": 23043.498999999996,
      "d": 434.7829999999958,
      "v": 100
    },
    {
      "midi": 48,
      "hit": false,
      "t": 23043.499000000014,
      "d": 217.39150000000154,
      "v": 100
    },
    {
      "midi": 48,
      "hit": false,
      "t": 23152.19474999996,
      "d": 45.289895833331684,
      "v": 100
    },
    {
      "midi": 48,
      "hit": false,
      "t": 23152.19474999997,
      "d": 108.69574999999895,
      "v": 100
    },
    {
      "midi": 46,
      "hit": false,
      "t": 23152.19474999998,
      "d": 108.69574999999895,
      "v": 100
    },
    {
      "midi": 48,
      "hit": false,
      "t": 23260.89049999997,
      "d": 108.69574999999895,
      "v": 100
    },
    {
      "midi": 42,
      "hit": false,
      "t": 23260.89049999998,
      "d": 108.69574999999895,
      "v": 100
    },
    {
      "midi": 42,
      "hit": false,
      "t": 23260.890499999994,
      "d": 108.69574999999895,
      "v": 100
    },
    {
      "midi": 60,
      "hit": false,
      "t": 23260.8905,
      "d": 326.0872500000005,
      "v": 100
    },
    {
      "midi": 63,
      "hit": false,
      "t": 23260.8905,
      "d": 326.0872500000005,
      "v": 100
    },
    {
      "midi": 56,
      "hit": false,
      "t": 23260.8905,
      "d": 326.0872500000005,
      "v": 100
    },
    {
      "midi": 56,
      "hit": false,
      "t": 23260.890500000005,
      "d": 326.0872500000005,
      "v": 100
    },
    {
      "midi": 63,
      "hit": false,
      "t": 23260.890500000005,
      "d": 326.0872500000005,
      "v": 100
    },
    {
      "midi": 60,
      "hit": false,
      "t": 23260.890500000005,
      "d": 326.0872500000005,
      "v": 100
    },
    {
      "midi": 36,
      "hit": false,
      "t": 23260.890500000016,
      "d": 217.39150000000154,
      "v": 100
    },
    {
      "midi": 43,
      "hit": false,
      "t": 23369.586249999957,
      "d": 45.289895833331684,
      "v": 100
    },
    {
      "midi": 48,
      "hit": false,
      "t": 23369.586249999968,
      "d": 108.69574999999895,
      "v": 100
    },
    {
      "midi": 46,
      "hit": false,
      "t": 23369.58624999998,
      "d": 108.69574999999895,
      "v": 100
    },
    {
      "midi": 38,
      "hit": false,
      "t": 23369.586249999993,
      "d": 108.69574999999895,
      "v": 100
    },
    {
      "midi": 42,
      "hit": false,
      "t": 23369.586249999993,
      "d": 108.69574999999895,
      "v": 100
    },
    {
      "midi": 51,
      "hit": false,
      "t": 23478.281999999967,
      "d": 217.39150000000154,
      "v": 100
    },
    {
      "midi": 42,
      "hit": false,
      "t": 23478.281999999977,
      "d": 108.69574999999895,
      "v": 100
    },
    {
      "midi": 35,
      "hit": false,
      "t": 23478.281999999992,
      "d": 217.39150000000154,
      "v": 100
    },
    {
      "midi": 42,
      "hit": false,
      "t": 23478.281999999992,
      "d": 217.39150000000154,
      "v": 100
    },
    {
      "midi": 59,
      "hit": false,
      "t": 23478.281999999992,
      "d": 434.7830000000031,
      "v": 100
    },
    {
      "midi": 36,
      "hit": false,
      "t": 23478.282000000017,
      "d": 108.69574999999895,
      "v": 100
    },
    {
      "midi": 41,
      "hit": false,
      "t": 23586.977749999955,
      "d": 45.289895833331684,
      "v": 100
    },
    {
      "midi": 42,
      "hit": false,
      "t": 23586.977749999976,
      "d": 108.69574999999895,
      "v": 100
    },
    {
      "midi": 60,
      "hit": false,
      "t": 23586.977750000002,
      "d": 326.0872500000005,
      "v": 100
    },
    {
      "midi": 63,
      "hit": false,
      "t": 23586.977750000002,
      "d": 326.0872500000005,
      "v": 100
    },
    {
      "midi": 56,
      "hit": false,
      "t": 23586.977750000002,
      "d": 326.0872500000005,
      "v": 100
    },
    {
      "midi": 56,
      "hit": false,
      "t": 23586.977750000005,
      "d": 326.0872500000005,
      "v": 100
    },
    {
      "midi": 63,
      "hit": false,
      "t": 23586.977750000005,
      "d": 326.0872500000005,
      "v": 100
    },
    {
      "midi": 60,
      "hit": false,
      "t": 23586.977750000005,
      "d": 326.0872500000005,
      "v": 100
    },
    {
      "midi": 36,
      "hit": false,
      "t": 23586.977750000016,
      "d": 108.69574999999895,
      "v": 100
    },
    {
      "midi": 41,
      "hit": false,
      "t": 23695.673499999953,
      "d": 86.05080208333311,
      "v": 100
    },
    {
      "midi": 48,
      "hit": false,
      "t": 23695.673499999968,
      "d": 108.69574999999895,
      "v": 100
    },
    {
      "midi": 46,
      "hit": false,
      "t": 23695.673499999975,
      "d": 108.69574999999895,
      "v": 100
    },
    {
      "midi": 46,
      "hit": false,
      "t": 23695.673499999994,
      "d": 217.39150000000154,
      "v": 100
    },
    {
      "midi": 36,
      "hit": false,
      "t": 23695.673500000015,
      "d": 217.39150000000154,
      "v": 100
    },
    {
      "midi": 48,
      "hit": false,
      "t": 23804.369249999967,
      "d": 108.69574999999895,
      "v": 100
    },
    {
      "midi": 43,
      "hit": false,
      "t": 23913.064999999955,
      "d": 45.289895833331684,
      "v": 100
    },
    {
      "midi": 53,
      "hit": false,
      "t": 23913.064999999966,
      "d": 108.69574999999895,
      "v": 100
    },
    {
      "midi": 40,
      "hit": false,
      "t": 23913.064999999973,
      "d": 217.3914999999979,
      "v": 100
    },
    {
      "midi": 35,
      "hit": false,
      "t": 23913.064999999995,
      "d": 217.39150000000154,
      "v": 100
    },
    {
      "midi": 38,
      "hit": false,
      "t": 23913.064999999995,
      "d": 217.39150000000154,
      "v": 100
    },
    {
      "midi": 59,
      "hit": false,
      "t": 23913.064999999995,
      "d": 434.78299999999945,
      "v": 100
    },
    {
      "midi": 48,
      "hit": false,
      "t": 23913.065000000017,
      "d": 217.39150000000154,
      "v": 100
    },
    {
      "midi": 45,
      "hit": false,
      "t": 24021.760749999954,
      "d": 45.289895833331684,
      "v": 100
    },
    {
      "midi": 48,
      "hit": false,
      "t": 24021.760749999965,
      "d": 108.69574999999895,
      "v": 100
    },
    {
      "midi": 42,
      "hit": false,
      "t": 24021.760749999972,
      "d": 108.69574999999895,
      "v": 100
    },
    {
      "midi": 63,
      "hit": false,
      "t": 24021.76075,
      "d": 108.69574999999895,
      "v": 100
    },
    {
      "midi": 60,
      "hit": false,
      "t": 24021.76075,
      "d": 108.69574999999895,
      "v": 100
    },
    {
      "midi": 56,
      "hit": false,
      "t": 24021.76075,
      "d": 108.69574999999895,
      "v": 100
    },
    {
      "midi": 56,
      "hit": false,
      "t": 24021.760750000005,
      "d": 108.69574999999895,
      "v": 100
    },
    {
      "midi": 60,
      "hit": false,
      "t": 24021.760750000005,
      "d": 108.69574999999895,
      "v": 100
    },
    {
      "midi": 63,
      "hit": false,
      "t": 24021.760750000005,
      "d": 108.69574999999895,
      "v": 100
    },
    {
      "midi": 46,
      "hit": false,
      "t": 24130.456499999953,
      "d": 45.289895833331684,
      "v": 100
    },
    {
      "midi": 55,
      "hit": false,
      "t": 24130.456499999964,
      "d": 108.69574999999895,
      "v": 100
    },
    {
      "midi": 46,
      "hit": false,
      "t": 24130.45649999997,
      "d": 108.69574999999895,
      "v": 100
    },
    {
      "midi": 57,
      "hit": false,
      "t": 24130.45649999997,
      "d": 217.3914999999979,
      "v": 100
    },
    {
      "midi": 38,
      "hit": false,
      "t": 24130.456499999997,
      "d": 108.69574999999895,
      "v": 100
    },
    {
      "midi": 49,
      "hit": false,
      "t": 24130.456499999997,
      "d": 217.3914999999979,
      "v": 100
    },
    {
      "midi": 36,
      "hit": false,
      "t": 24130.45650000002,
      "d": 217.39150000000154,
      "v": 100
    },
    {
      "midi": 50,
      "hit": false,
      "t": 24239.152249999952,
      "d": 45.289895833331684,
      "v": 100
    },
    {
      "midi": 48,
      "hit": false,
      "t": 24239.152249999963,
      "d": 108.69574999999895,
      "v": 100
    },
    {
      "midi": 38,
      "hit": false,
      "t": 24239.152249999996,
      "d": 108.69574999999895,
      "v": 100
    },
    {
      "midi": 36,
      "hit": false,
      "t": 24347.84799999995,
      "d": 45.289895833331684,
      "v": 100
    },
    {
      "midi": 48,
      "hit": false,
      "t": 24347.84799999996,
      "d": 108.69574999999895,
      "v": 100
    },
    {
      "midi": 42,
      "hit": false,
      "t": 24347.84799999997,
      "d": 108.69574999999895,
      "v": 100
    },
    {
      "midi": 49,
      "hit": false,
      "t": 24347.84799999997,
      "d": 217.3914999999979,
      "v": 100
    },
    {
      "midi": 42,
      "hit": false,
      "t": 24347.847999999994,
      "d": 217.39150000000154,
      "v": 100
    },
    {
      "midi": 35,
      "hit": false,
      "t": 24347.847999999994,
      "d": 217.39150000000154,
      "v": 100
    },
    {
      "midi": 59,
      "hit": false,
      "t": 24347.847999999994,
      "d": 434.78299999999945,
      "v": 100
    },
    {
      "midi": 63,
      "hit": false,
      "t": 24347.847999999998,
      "d": 502.7178437500006,
      "v": 100
    },
    {
      "midi": 58,
      "hit": false,
      "t": 24347.847999999998,
      "d": 502.7178437500006,
      "v": 100
    },
    {
      "midi": 70,
      "hit": false,
      "t": 24347.847999999998,
      "d": 3478.263999999999,
      "v": 100
    },
    {
      "midi": 51,
      "hit": false,
      "t": 24347.847999999998,
      "d": 3478.263999999999,
      "v": 100
    },
    {
      "midi": 53,
      "hit": false,
      "t": 24347.847999999998,
      "d": 3478.263999999999,
      "v": 100
    },
    {
      "midi": 58,
      "hit": false,
      "t": 24347.847999999998,
      "d": 502.7178437500006,
      "v": 100
    },
    {
      "midi": 63,
      "hit": false,
      "t": 24347.847999999998,
      "d": 502.7178437500006,
      "v": 100
    },
    {
      "midi": 70,
      "hit": false,
      "t": 24347.847999999998,
      "d": 3478.263999999999,
      "v": 100
    },
    {
      "midi": 53,
      "hit": false,
      "t": 24347.847999999998,
      "d": 3478.263999999999,
      "v": 100
    },
    {
      "midi": 51,
      "hit": false,
      "t": 24347.847999999998,
      "d": 3478.263999999999,
      "v": 100
    },
    {
      "midi": 68,
      "hit": false,
      "t": 24347.847999999998,
      "d": 3478.263999999999,
      "v": 100
    },
    {
      "midi": 63,
      "hit": false,
      "t": 24347.847999999998,
      "d": 3478.263999999999,
      "v": 100
    },
    {
      "midi": 63,
      "hit": false,
      "t": 24347.848,
      "d": 326.0872500000005,
      "v": 100
    },
    {
      "midi": 60,
      "hit": false,
      "t": 24347.848,
      "d": 326.0872500000005,
      "v": 100
    },
    {
      "midi": 56,
      "hit": false,
      "t": 24347.848,
      "d": 326.0872500000005,
      "v": 100
    },
    {
      "midi": 56,
      "hit": false,
      "t": 24347.848000000005,
      "d": 326.0872500000005,
      "v": 100
    },
    {
      "midi": 60,
      "hit": false,
      "t": 24347.848000000005,
      "d": 326.0872500000005,
      "v": 100
    },
    {
      "midi": 63,
      "hit": false,
      "t": 24347.848000000005,
      "d": 326.0872500000005,
      "v": 100
    },
    {
      "midi": 36,
      "hit": false,
      "t": 24347.84800000002,
      "d": 434.78299999999945,
      "v": 100
    },
    {
      "midi": 48,
      "hit": false,
      "t": 24456.54374999996,
      "d": 108.69574999999895,
      "v": 100
    },
    {
      "midi": 42,
      "hit": false,
      "t": 24456.543749999968,
      "d": 108.69574999999895,
      "v": 100
    },
    {
      "midi": 36,
      "hit": false,
      "t": 24565.23949999995,
      "d": 45.289895833331684,
      "v": 100
    },
    {
      "midi": 48,
      "hit": false,
      "t": 24565.23949999996,
      "d": 108.69574999999895,
      "v": 100
    },
    {
      "midi": 46,
      "hit": false,
      "t": 24565.239499999967,
      "d": 108.69574999999895,
      "v": 100
    },
    {
      "midi": 42,
      "hit": false,
      "t": 24565.239499999996,
      "d": 108.69574999999895,
      "v": 100
    },
    {
      "midi": 51,
      "hit": false,
      "t": 24673.93524999996,
      "d": 217.39150000000154,
      "v": 100
    },
    {
      "midi": 42,
      "hit": false,
      "t": 24673.935249999995,
      "d": 108.69574999999895,
      "v": 100
    },
    {
      "midi": 60,
      "hit": false,
      "t": 24673.935250000002,
      "d": 326.0872500000005,
      "v": 100
    },
    {
      "midi": 63,
      "hit": false,
      "t": 24673.935250000002,
      "d": 326.0872500000005,
      "v": 100
    },
    {
      "midi": 56,
      "hit": false,
      "t": 24673.935250000002,
      "d": 326.0872500000005,
      "v": 100
    },
    {
      "midi": 56,
      "hit": false,
      "t": 24673.935250000006,
      "d": 326.0872500000005,
      "v": 100
    },
    {
      "midi": 63,
      "hit": false,
      "t": 24673.935250000006,
      "d": 326.0872500000005,
      "v": 100
    },
    {
      "midi": 60,
      "hit": false,
      "t": 24673.935250000006,
      "d": 326.0872500000005,
      "v": 100
    },
    {
      "midi": 36,
      "hit": false,
      "t": 24782.630999999947,
      "d": 45.289895833331684,
      "v": 100
    },
    {
      "midi": 42,
      "hit": false,
      "t": 24782.630999999965,
      "d": 108.69574999999895,
      "v": 100
    },
    {
      "midi": 40,
      "hit": false,
      "t": 24782.630999999965,
      "d": 217.3914999999979,
      "v": 100
    },
    {
      "midi": 38,
      "hit": false,
      "t": 24782.630999999994,
      "d": 108.69574999999895,
      "v": 100
    },
    {
      "midi": 35,
      "hit": false,
      "t": 24782.630999999994,
      "d": 217.3914999999979,
      "v": 100
    },
    {
      "midi": 42,
      "hit": false,
      "t": 24782.630999999994,
      "d": 217.3914999999979,
      "v": 100
    },
    {
      "midi": 59,
      "hit": false,
      "t": 24782.630999999994,
      "d": 434.7829999999958,
      "v": 100
    },
    {
      "midi": 48,
      "hit": false,
      "t": 24782.63100000002,
      "d": 217.39150000000154,
      "v": 100
    },
    {
      "midi": 48,
      "hit": false,
      "t": 24891.326749999946,
      "d": 45.289895833331684,
      "v": 100
    },
    {
      "midi": 48,
      "hit": false,
      "t": 24891.32674999996,
      "d": 108.69574999999895,
      "v": 100
    },
    {
      "midi": 46,
      "hit": false,
      "t": 24891.326749999964,
      "d": 108.69574999999895,
      "v": 100
    },
    {
      "midi": 48,
      "hit": false,
      "t": 25000.02249999996,
      "d": 108.69574999999895,
      "v": 100
    },
    {
      "midi": 42,
      "hit": false,
      "t": 25000.022499999963,
      "d": 108.69574999999895,
      "v": 100
    },
    {
      "midi": 42,
      "hit": false,
      "t": 25000.022499999992,
      "d": 108.69574999999895,
      "v": 100
    },
    {
      "midi": 60,
      "hit": false,
      "t": 25000.022500000003,
      "d": 326.0872500000005,
      "v": 100
    },
    {
      "midi": 63,
      "hit": false,
      "t": 25000.022500000003,
      "d": 326.0872500000005,
      "v": 100
    },
    {
      "midi": 56,
      "hit": false,
      "t": 25000.022500000003,
      "d": 326.0872500000005,
      "v": 100
    },
    {
      "midi": 56,
      "hit": false,
      "t": 25000.022500000006,
      "d": 326.0872500000005,
      "v": 100
    },
    {
      "midi": 63,
      "hit": false,
      "t": 25000.022500000006,
      "d": 326.0872500000005,
      "v": 100
    },
    {
      "midi": 60,
      "hit": false,
      "t": 25000.022500000006,
      "d": 326.0872500000005,
      "v": 100
    },
    {
      "midi": 36,
      "hit": false,
      "t": 25000.02250000002,
      "d": 217.39150000000154,
      "v": 100
    },
    {
      "midi": 43,
      "hit": false,
      "t": 25108.718249999944,
      "d": 45.289895833331684,
      "v": 100
    },
    {
      "midi": 48,
      "hit": false,
      "t": 25108.718249999958,
      "d": 108.69574999999895,
      "v": 100
    },
    {
      "midi": 46,
      "hit": false,
      "t": 25108.71824999996,
      "d": 108.69574999999895,
      "v": 100
    },
    {
      "midi": 42,
      "hit": false,
      "t": 25108.71824999999,
      "d": 108.69574999999895,
      "v": 100
    },
    {
      "midi": 38,
      "hit": false,
      "t": 25108.71824999999,
      "d": 108.69574999999895,
      "v": 100
    },
    {
      "midi": 51,
      "hit": false,
      "t": 25217.413999999957,
      "d": 217.39150000000154,
      "v": 100
    },
    {
      "midi": 42,
      "hit": false,
      "t": 25217.41399999996,
      "d": 108.69574999999895,
      "v": 100
    },
    {
      "midi": 42,
      "hit": false,
      "t": 25217.41399999999,
      "d": 217.39150000000154,
      "v": 100
    },
    {
      "midi": 35,
      "hit": false,
      "t": 25217.41399999999,
      "d": 217.39150000000154,
      "v": 100
    },
    {
      "midi": 59,
      "hit": false,
      "t": 25217.41399999999,
      "d": 434.78299999999945,
      "v": 100
    },
    {
      "midi": 36,
      "hit": false,
      "t": 25217.414000000022,
      "d": 108.69574999999895,
      "v": 100
    },
    {
      "midi": 41,
      "hit": false,
      "t": 25326.10974999994,
      "d": 45.289895833331684,
      "v": 100
    },
    {
      "midi": 42,
      "hit": false,
      "t": 25326.10974999996,
      "d": 108.69574999999895,
      "v": 100
    },
    {
      "midi": 60,
      "hit": false,
      "t": 25326.109750000003,
      "d": 326.0872500000005,
      "v": 100
    },
    {
      "midi": 63,
      "hit": false,
      "t": 25326.109750000003,
      "d": 326.0872500000005,
      "v": 100
    },
    {
      "midi": 56,
      "hit": false,
      "t": 25326.109750000003,
      "d": 326.0872500000005,
      "v": 100
    },
    {
      "midi": 56,
      "hit": false,
      "t": 25326.109750000007,
      "d": 326.0872500000005,
      "v": 100
    },
    {
      "midi": 63,
      "hit": false,
      "t": 25326.109750000007,
      "d": 326.0872500000005,
      "v": 100
    },
    {
      "midi": 60,
      "hit": false,
      "t": 25326.109750000007,
      "d": 326.0872500000005,
      "v": 100
    },
    {
      "midi": 36,
      "hit": false,
      "t": 25326.10975000002,
      "d": 108.69574999999895,
      "v": 100
    },
    {
      "midi": 41,
      "hit": false,
      "t": 25434.80549999994,
      "d": 86.05080208333311,
      "v": 100
    },
    {
      "midi": 48,
      "hit": false,
      "t": 25434.80549999996,
      "d": 108.69574999999895,
      "v": 100
    },
    {
      "midi": 46,
      "hit": false,
      "t": 25434.80549999996,
      "d": 108.69574999999895,
      "v": 100
    },
    {
      "midi": 46,
      "hit": false,
      "t": 25434.80549999999,
      "d": 108.69574999999895,
      "v": 100
    },
    {
      "midi": 36,
      "hit": false,
      "t": 25434.80550000002,
      "d": 217.39150000000154,
      "v": 100
    },
    {
      "midi": 48,
      "hit": false,
      "t": 25543.501249999958,
      "d": 108.69574999999895,
      "v": 100
    },
    {
      "midi": 43,
      "hit": false,
      "t": 25652.196999999942,
      "d": 45.289895833331684,
      "v": 100
    },
    {
      "midi": 53,
      "hit": false,
      "t": 25652.196999999956,
      "d": 108.69574999999895,
      "v": 100
    },
    {
      "midi": 40,
      "hit": false,
      "t": 25652.196999999956,
      "d": 217.3914999999979,
      "v": 100
    },
    {
      "midi": 40,
      "hit": false,
      "t": 25652.19699999999,
      "d": 217.39150000000154,
      "v": 100
    },
    {
      "midi": 35,
      "hit": false,
      "t": 25652.19699999999,
      "d": 217.39150000000154,
      "v": 100
    },
    {
      "midi": 59,
      "hit": false,
      "t": 25652.19699999999,
      "d": 434.78299999999945,
      "v": 100
    },
    {
      "midi": 48,
      "hit": false,
      "t": 25652.197000000022,
      "d": 217.39150000000154,
      "v": 100
    },
    {
      "midi": 45,
      "hit": false,
      "t": 25760.89274999994,
      "d": 45.289895833331684,
      "v": 100
    },
    {
      "midi": 48,
      "hit": false,
      "t": 25760.892749999955,
      "d": 108.69574999999895,
      "v": 100
    },
    {
      "midi": 42,
      "hit": false,
      "t": 25760.892749999955,
      "d": 108.69574999999895,
      "v": 100
    },
    {
      "midi": 63,
      "hit": false,
      "t": 25760.892750000003,
      "d": 108.69574999999895,
      "v": 100
    },
    {
      "midi": 60,
      "hit": false,
      "t": 25760.892750000003,
      "d": 108.69574999999895,
      "v": 100
    },
    {
      "midi": 56,
      "hit": false,
      "t": 25760.892750000003,
      "d": 108.69574999999895,
      "v": 100
    },
    {
      "midi": 56,
      "hit": false,
      "t": 25760.892750000006,
      "d": 108.69574999999895,
      "v": 100
    },
    {
      "midi": 60,
      "hit": false,
      "t": 25760.892750000006,
      "d": 108.69574999999895,
      "v": 100
    },
    {
      "midi": 63,
      "hit": false,
      "t": 25760.892750000006,
      "d": 108.69574999999895,
      "v": 100
    },
    {
      "midi": 46,
      "hit": false,
      "t": 25869.58849999994,
      "d": 45.289895833331684,
      "v": 100
    },
    {
      "midi": 55,
      "hit": false,
      "t": 25869.588499999954,
      "d": 108.69574999999895,
      "v": 100
    },
    {
      "midi": 46,
      "hit": false,
      "t": 25869.588499999954,
      "d": 108.69574999999895,
      "v": 100
    },
    {
      "midi": 35,
      "hit": false,
      "t": 25869.58849999999,
      "d": 108.69574999999895,
      "v": 100
    },
    {
      "midi": 49,
      "hit": false,
      "t": 25869.58849999999,
      "d": 217.3914999999979,
      "v": 100
    },
    {
      "midi": 36,
      "hit": false,
      "t": 25869.588500000023,
      "d": 217.39150000000154,
      "v": 100
    },
    {
      "midi": 50,
      "hit": false,
      "t": 25978.28424999994,
      "d": 45.289895833331684,
      "v": 100
    },
    {
      "midi": 48,
      "hit": false,
      "t": 25978.284249999953,
      "d": 108.69574999999895,
      "v": 100
    },
    {
      "midi": 36,
      "hit": false,
      "t": 26086.979999999938,
      "d": 45.289895833331684,
      "v": 100
    },
    {
      "midi": 48,
      "hit": false,
      "t": 26086.979999999952,
      "d": 108.69574999999895,
      "v": 100
    },
    {
      "midi": 42,
      "hit": false,
      "t": 26086.979999999952,
      "d": 108.69574999999895,
      "v": 100
    },
    {
      "midi": 42,
      "hit": false,
      "t": 26086.97999999999,
      "d": 217.39150000000154,
      "v": 100
    },
    {
      "midi": 35,
      "hit": false,
      "t": 26086.97999999999,
      "d": 217.39150000000154,
      "v": 100
    },
    {
      "midi": 59,
      "hit": false,
      "t": 26086.97999999999,
      "d": 434.78299999999945,
      "v": 100
    },
    {
      "midi": 36,
      "hit": false,
      "t": 26086.980000000025,
      "d": 434.78299999999945,
      "v": 100
    },
    {
      "midi": 36,
      "hit": false,
      "t": 26195.675749999937,
      "d": 45.289895833331684,
      "v": 100
    },
    {
      "midi": 48,
      "hit": false,
      "t": 26195.67574999995,
      "d": 108.69574999999895,
      "v": 100
    },
    {
      "midi": 42,
      "hit": false,
      "t": 26195.67574999995,
      "d": 108.69574999999895,
      "v": 100
    },
    {
      "midi": 36,
      "hit": false,
      "t": 26304.371499999936,
      "d": 86.05080208333311,
      "v": 100
    },
    {
      "midi": 48,
      "hit": false,
      "t": 26304.37149999995,
      "d": 108.69574999999895,
      "v": 100
    },
    {
      "midi": 46,
      "hit": false,
      "t": 26304.37149999995,
      "d": 108.69574999999895,
      "v": 100
    },
    {
      "midi": 42,
      "hit": false,
      "t": 26304.37149999999,
      "d": 108.69574999999895,
      "v": 100
    },
    {
      "midi": 51,
      "hit": false,
      "t": 26413.06724999995,
      "d": 217.39150000000154,
      "v": 100
    },
    {
      "midi": 42,
      "hit": false,
      "t": 26413.06724999999,
      "d": 108.69574999999895,
      "v": 100
    },
    {
      "midi": 56,
      "hit": false,
      "t": 26413.06725,
      "d": 326.0872500000005,
      "v": 100
    },
    {
      "midi": 63,
      "hit": false,
      "t": 26413.06725,
      "d": 326.0872500000005,
      "v": 100
    },
    {
      "midi": 60,
      "hit": false,
      "t": 26413.06725,
      "d": 326.0872500000005,
      "v": 100
    },
    {
      "midi": 60,
      "hit": false,
      "t": 26413.067250000004,
      "d": 326.0872500000005,
      "v": 100
    },
    {
      "midi": 63,
      "hit": false,
      "t": 26413.067250000004,
      "d": 326.0872500000005,
      "v": 100
    },
    {
      "midi": 56,
      "hit": false,
      "t": 26413.067250000004,
      "d": 326.0872500000005,
      "v": 100
    },
    {
      "midi": 36,
      "hit": false,
      "t": 26521.762999999937,
      "d": 45.289895833331684,
      "v": 100
    },
    {
      "midi": 42,
      "hit": false,
      "t": 26521.762999999948,
      "d": 108.69574999999895,
      "v": 100
    },
    {
      "midi": 40,
      "hit": false,
      "t": 26521.762999999948,
      "d": 217.3914999999979,
      "v": 100
    },
    {
      "midi": 38,
      "hit": false,
      "t": 26521.762999999988,
      "d": 108.69574999999895,
      "v": 100
    },
    {
      "midi": 35,
      "hit": false,
      "t": 26521.762999999988,
      "d": 217.3914999999979,
      "v": 100
    },
    {
      "midi": 42,
      "hit": false,
      "t": 26521.762999999988,
      "d": 217.3914999999979,
      "v": 100
    },
    {
      "midi": 59,
      "hit": false,
      "t": 26521.762999999988,
      "d": 434.7829999999958,
      "v": 100
    },
    {
      "midi": 48,
      "hit": false,
      "t": 26521.763000000024,
      "d": 217.39150000000154,
      "v": 100
    },
    {
      "midi": 48,
      "hit": false,
      "t": 26630.458749999936,
      "d": 45.289895833331684,
      "v": 100
    },
    {
      "midi": 46,
      "hit": false,
      "t": 26630.458749999947,
      "d": 108.69574999999895,
      "v": 100
    },
    {
      "midi": 48,
      "hit": false,
      "t": 26630.45874999995,
      "d": 108.69574999999895,
      "v": 100
    },
    {
      "midi": 42,
      "hit": false,
      "t": 26739.154499999946,
      "d": 108.69574999999895,
      "v": 100
    },
    {
      "midi": 48,
      "hit": false,
      "t": 26739.15449999995,
      "d": 108.69574999999895,
      "v": 100
    },
    {
      "midi": 42,
      "hit": false,
      "t": 26739.154499999986,
      "d": 108.69574999999895,
      "v": 100
    },
    {
      "midi": 56,
      "hit": false,
      "t": 26739.1545,
      "d": 326.0872500000005,
      "v": 100
    },
    {
      "midi": 63,
      "hit": false,
      "t": 26739.1545,
      "d": 326.0872500000005,
      "v": 100
    },
    {
      "midi": 60,
      "hit": false,
      "t": 26739.1545,
      "d": 326.0872500000005,
      "v": 100
    },
    {
      "midi": 60,
      "hit": false,
      "t": 26739.154500000004,
      "d": 326.0872500000005,
      "v": 100
    },
    {
      "midi": 63,
      "hit": false,
      "t": 26739.154500000004,
      "d": 326.0872500000005,
      "v": 100
    },
    {
      "midi": 56,
      "hit": false,
      "t": 26739.154500000004,
      "d": 326.0872500000005,
      "v": 100
    },
    {
      "midi": 36,
      "hit": false,
      "t": 26739.154500000026,
      "d": 217.39150000000154,
      "v": 100
    },
    {
      "midi": 43,
      "hit": false,
      "t": 26847.850249999934,
      "d": 45.289895833331684,
      "v": 100
    },
    {
      "midi": 46,
      "hit": false,
      "t": 26847.850249999945,
      "d": 108.69574999999895,
      "v": 100
    },
    {
      "midi": 48,
      "hit": false,
      "t": 26847.85024999995,
      "d": 108.69574999999895,
      "v": 100
    },
    {
      "midi": 42,
      "hit": false,
      "t": 26847.850249999985,
      "d": 108.69574999999895,
      "v": 100
    },
    {
      "midi": 38,
      "hit": false,
      "t": 26847.850249999985,
      "d": 108.69574999999895,
      "v": 100
    },
    {
      "midi": 42,
      "hit": false,
      "t": 26956.545999999944,
      "d": 108.69574999999895,
      "v": 100
    },
    {
      "midi": 51,
      "hit": false,
      "t": 26956.545999999948,
      "d": 217.39150000000154,
      "v": 100
    },
    {
      "midi": 42,
      "hit": false,
      "t": 26956.545999999984,
      "d": 217.39150000000154,
      "v": 100
    },
    {
      "midi": 35,
      "hit": false,
      "t": 26956.545999999984,
      "d": 217.39150000000154,
      "v": 100
    },
    {
      "midi": 59,
      "hit": false,
      "t": 26956.545999999984,
      "d": 434.7830000000031,
      "v": 100
    },
    {
      "midi": 36,
      "hit": false,
      "t": 26956.546000000028,
      "d": 108.69574999999895,
      "v": 100
    },
    {
      "midi": 41,
      "hit": false,
      "t": 27065.241749999932,
      "d": 45.289895833331684,
      "v": 100
    },
    {
      "midi": 42,
      "hit": false,
      "t": 27065.241749999943,
      "d": 108.69574999999895,
      "v": 100
    },
    {
      "midi": 56,
      "hit": false,
      "t": 27065.24175,
      "d": 326.0872500000005,
      "v": 100
    },
    {
      "midi": 63,
      "hit": false,
      "t": 27065.24175,
      "d": 326.0872500000005,
      "v": 100
    },
    {
      "midi": 60,
      "hit": false,
      "t": 27065.24175,
      "d": 326.0872500000005,
      "v": 100
    },
    {
      "midi": 60,
      "hit": false,
      "t": 27065.241750000005,
      "d": 326.0872500000005,
      "v": 100
    },
    {
      "midi": 63,
      "hit": false,
      "t": 27065.241750000005,
      "d": 326.0872500000005,
      "v": 100
    },
    {
      "midi": 56,
      "hit": false,
      "t": 27065.241750000005,
      "d": 326.0872500000005,
      "v": 100
    },
    {
      "midi": 36,
      "hit": false,
      "t": 27065.241750000027,
      "d": 108.69574999999895,
      "v": 100
    },
    {
      "midi": 41,
      "hit": false,
      "t": 27173.93749999993,
      "d": 86.05080208333311,
      "v": 100
    },
    {
      "midi": 46,
      "hit": false,
      "t": 27173.93749999994,
      "d": 108.69574999999895,
      "v": 100
    },
    {
      "midi": 48,
      "hit": false,
      "t": 27173.93749999995,
      "d": 108.69574999999895,
      "v": 100
    },
    {
      "midi": 46,
      "hit": false,
      "t": 27173.937499999985,
      "d": 217.39150000000154,
      "v": 100
    },
    {
      "midi": 36,
      "hit": false,
      "t": 27173.937500000025,
      "d": 217.39150000000154,
      "v": 100
    },
    {
      "midi": 48,
      "hit": false,
      "t": 27282.633249999948,
      "d": 108.69574999999895,
      "v": 100
    },
    {
      "midi": 43,
      "hit": false,
      "t": 27391.328999999932,
      "d": 45.289895833331684,
      "v": 100
    },
    {
      "midi": 40,
      "hit": false,
      "t": 27391.32899999994,
      "d": 217.3914999999979,
      "v": 100
    },
    {
      "midi": 53,
      "hit": false,
      "t": 27391.328999999947,
      "d": 108.69574999999895,
      "v": 100
    },
    {
      "midi": 38,
      "hit": false,
      "t": 27391.328999999987,
      "d": 217.39150000000154,
      "v": 100
    },
    {
      "midi": 35,
      "hit": false,
      "t": 27391.328999999987,
      "d": 217.39150000000154,
      "v": 100
    },
    {
      "midi": 59,
      "hit": false,
      "t": 27391.328999999987,
      "d": 434.78299999999945,
      "v": 100
    },
    {
      "midi": 48,
      "hit": false,
      "t": 27391.329000000027,
      "d": 217.39150000000154,
      "v": 100
    },
    {
      "midi": 45,
      "hit": false,
      "t": 27500.02474999993,
      "d": 45.289895833331684,
      "v": 100
    },
    {
      "midi": 42,
      "hit": false,
      "t": 27500.02474999994,
      "d": 108.69574999999895,
      "v": 100
    },
    {
      "midi": 48,
      "hit": false,
      "t": 27500.024749999946,
      "d": 108.69574999999895,
      "v": 100
    },
    {
      "midi": 56,
      "hit": false,
      "t": 27500.02475,
      "d": 108.69574999999895,
      "v": 100
    },
    {
      "midi": 60,
      "hit": false,
      "t": 27500.02475,
      "d": 108.69574999999895,
      "v": 100
    },
    {
      "midi": 63,
      "hit": false,
      "t": 27500.02475,
      "d": 108.69574999999895,
      "v": 100
    },
    {
      "midi": 63,
      "hit": false,
      "t": 27500.024750000004,
      "d": 108.69574999999895,
      "v": 100
    },
    {
      "midi": 60,
      "hit": false,
      "t": 27500.024750000004,
      "d": 108.69574999999895,
      "v": 100
    },
    {
      "midi": 56,
      "hit": false,
      "t": 27500.024750000004,
      "d": 108.69574999999895,
      "v": 100
    },
    {
      "midi": 46,
      "hit": false,
      "t": 27608.72049999993,
      "d": 45.289895833331684,
      "v": 100
    },
    {
      "midi": 46,
      "hit": false,
      "t": 27608.720499999938,
      "d": 108.69574999999895,
      "v": 100
    },
    {
      "midi": 55,
      "hit": false,
      "t": 27608.720499999945,
      "d": 108.69574999999895,
      "v": 100
    },
    {
      "midi": 38,
      "hit": false,
      "t": 27608.72049999999,
      "d": 108.69574999999895,
      "v": 100
    },
    {
      "midi": 49,
      "hit": false,
      "t": 27608.72049999999,
      "d": 217.3914999999979,
      "v": 100
    },
    {
      "midi": 36,
      "hit": false,
      "t": 27608.72050000003,
      "d": 217.39150000000154,
      "v": 100
    },
    {
      "midi": 50,
      "hit": false,
      "t": 27717.41624999993,
      "d": 45.289895833331684,
      "v": 100
    },
    {
      "midi": 48,
      "hit": false,
      "t": 27717.416249999944,
      "d": 108.69574999999895,
      "v": 100
    },
    {
      "midi": 38,
      "hit": false,
      "t": 27717.416249999987,
      "d": 108.69574999999895,
      "v": 100
    },
    {
      "midi": 36,
      "hit": false,
      "t": 27826.11199999993,
      "d": 45.289895833331684,
      "v": 100
    },
    {
      "midi": 42,
      "hit": false,
      "t": 27826.111999999936,
      "d": 108.69574999999895,
      "v": 100
    },
    {
      "midi": 49,
      "hit": false,
      "t": 27826.111999999936,
      "d": 217.3914999999979,
      "v": 100
    },
    {
      "midi": 48,
      "hit": false,
      "t": 27826.111999999943,
      "d": 108.69574999999895,
      "v": 100
    },
    {
      "midi": 42,
      "hit": false,
      "t": 27826.111999999986,
      "d": 217.39150000000154,
      "v": 100
    },
    {
      "midi": 35,
      "hit": false,
      "t": 27826.111999999986,
      "d": 217.39150000000154,
      "v": 100
    },
    {
      "midi": 59,
      "hit": false,
      "t": 27826.111999999986,
      "d": 434.78299999999945,
      "v": 100
    },
    {
      "midi": 48,
      "hit": false,
      "t": 27826.111999999997,
      "d": 3478.263999999999,
      "v": 100
    },
    {
      "midi": 55,
      "hit": false,
      "t": 27826.111999999997,
      "d": 3478.263999999999,
      "v": 100
    },
    {
      "midi": 50,
      "hit": false,
      "t": 27826.111999999997,
      "d": 3478.263999999999,
      "v": 100
    },
    {
      "midi": 62,
      "hit": false,
      "t": 27826.111999999997,
      "d": 3478.263999999999,
      "v": 100
    },
    {
      "midi": 67,
      "hit": false,
      "t": 27826.111999999997,
      "d": 3478.263999999999,
      "v": 100
    },
    {
      "midi": 48,
      "hit": false,
      "t": 27826.111999999997,
      "d": 3478.263999999999,
      "v": 100
    },
    {
      "midi": 62,
      "hit": false,
      "t": 27826.111999999997,
      "d": 3478.263999999999,
      "v": 100
    },
    {
      "midi": 67,
      "hit": false,
      "t": 27826.111999999997,
      "d": 3478.263999999999,
      "v": 100
    },
    {
      "midi": 55,
      "hit": false,
      "t": 27826.111999999997,
      "d": 3478.263999999999,
      "v": 100
    },
    {
      "midi": 50,
      "hit": false,
      "t": 27826.111999999997,
      "d": 3478.263999999999,
      "v": 100
    },
    {
      "midi": 60,
      "hit": false,
      "t": 27826.112,
      "d": 326.0872500000005,
      "v": 100
    },
    {
      "midi": 62,
      "hit": false,
      "t": 27826.112,
      "d": 326.0872500000005,
      "v": 100
    },
    {
      "midi": 55,
      "hit": false,
      "t": 27826.112,
      "d": 326.0872500000005,
      "v": 100
    },
    {
      "midi": 55,
      "hit": false,
      "t": 27826.112000000005,
      "d": 326.0872500000005,
      "v": 100
    },
    {
      "midi": 62,
      "hit": false,
      "t": 27826.112000000005,
      "d": 326.0872500000005,
      "v": 100
    },
    {
      "midi": 36,
      "hit": false,
      "t": 27826.11200000003,
      "d": 434.78299999999945,
      "v": 100
    },
    {
      "midi": 42,
      "hit": false,
      "t": 27934.807749999934,
      "d": 108.69574999999895,
      "v": 100
    },
    {
      "midi": 48,
      "hit": false,
      "t": 27934.80774999994,
      "d": 108.69574999999895,
      "v": 100
    },
    {
      "midi": 36,
      "hit": false,
      "t": 28043.503499999926,
      "d": 45.289895833331684,
      "v": 100
    },
    {
      "midi": 46,
      "hit": false,
      "t": 28043.503499999933,
      "d": 108.69574999999895,
      "v": 100
    },
    {
      "midi": 48,
      "hit": false,
      "t": 28043.50349999994,
      "d": 108.69574999999895,
      "v": 100
    },
    {
      "midi": 42,
      "hit": false,
      "t": 28043.503499999988,
      "d": 108.69574999999895,
      "v": 100
    },
    {
      "midi": 51,
      "hit": false,
      "t": 28152.19924999994,
      "d": 217.39150000000154,
      "v": 100
    },
    {
      "midi": 42,
      "hit": false,
      "t": 28152.199249999987,
      "d": 108.69574999999895,
      "v": 100
    },
    {
      "midi": 60,
      "hit": false,
      "t": 28152.19925,
      "d": 326.0872500000005,
      "v": 100
    },
    {
      "midi": 62,
      "hit": false,
      "t": 28152.19925,
      "d": 326.0872500000005,
      "v": 100
    },
    {
      "midi": 55,
      "hit": false,
      "t": 28152.19925,
      "d": 326.0872500000005,
      "v": 100
    },
    {
      "midi": 55,
      "hit": false,
      "t": 28152.199250000005,
      "d": 326.0872500000005,
      "v": 100
    },
    {
      "midi": 62,
      "hit": false,
      "t": 28152.199250000005,
      "d": 326.0872500000005,
      "v": 100
    },
    {
      "midi": 36,
      "hit": false,
      "t": 28260.894999999924,
      "d": 45.289895833331684,
      "v": 100
    },
    {
      "midi": 42,
      "hit": false,
      "t": 28260.89499999993,
      "d": 108.69574999999895,
      "v": 100
    },
    {
      "midi": 40,
      "hit": false,
      "t": 28260.89499999993,
      "d": 217.3914999999979,
      "v": 100
    },
    {
      "midi": 38,
      "hit": false,
      "t": 28260.894999999986,
      "d": 108.69574999999895,
      "v": 100
    },
    {
      "midi": 35,
      "hit": false,
      "t": 28260.894999999986,
      "d": 217.3914999999979,
      "v": 100
    },
    {
      "midi": 42,
      "hit": false,
      "t": 28260.894999999986,
      "d": 217.3914999999979,
      "v": 100
    },
    {
      "midi": 59,
      "hit": false,
      "t": 28260.894999999986,
      "d": 434.7829999999958,
      "v": 100
    },
    {
      "midi": 48,
      "hit": false,
      "t": 28260.89500000003,
      "d": 217.39150000000154,
      "v": 100
    },
    {
      "midi": 48,
      "hit": false,
      "t": 28369.590749999923,
      "d": 45.289895833331684,
      "v": 100
    },
    {
      "midi": 46,
      "hit": false,
      "t": 28369.59074999993,
      "d": 108.69574999999895,
      "v": 100
    },
    {
      "midi": 48,
      "hit": false,
      "t": 28369.59074999994,
      "d": 108.69574999999895,
      "v": 100
    },
    {
      "midi": 42,
      "hit": false,
      "t": 28478.28649999993,
      "d": 108.69574999999895,
      "v": 100
    },
    {
      "midi": 48,
      "hit": false,
      "t": 28478.28649999994,
      "d": 108.69574999999895,
      "v": 100
    },
    {
      "midi": 42,
      "hit": false,
      "t": 28478.286499999984,
      "d": 108.69574999999895,
      "v": 100
    },
    {
      "midi": 60,
      "hit": false,
      "t": 28478.286500000002,
      "d": 326.0872500000005,
      "v": 100
    },
    {
      "midi": 62,
      "hit": false,
      "t": 28478.286500000002,
      "d": 326.0872500000005,
      "v": 100
    },
    {
      "midi": 55,
      "hit": false,
      "t": 28478.286500000002,
      "d": 326.0872500000005,
      "v": 100
    },
    {
      "midi": 55,
      "hit": false,
      "t": 28478.286500000006,
      "d": 326.0872500000005,
      "v": 100
    },
    {
      "midi": 62,
      "hit": false,
      "t": 28478.286500000006,
      "d": 326.0872500000005,
      "v": 100
    },
    {
      "midi": 36,
      "hit": false,
      "t": 28478.28650000003,
      "d": 217.39150000000154,
      "v": 100
    },
    {
      "midi": 43,
      "hit": false,
      "t": 28586.98224999992,
      "d": 45.289895833331684,
      "v": 100
    },
    {
      "midi": 46,
      "hit": false,
      "t": 28586.982249999928,
      "d": 108.69574999999895,
      "v": 100
    },
    {
      "midi": 48,
      "hit": false,
      "t": 28586.98224999994,
      "d": 108.69574999999895,
      "v": 100
    },
    {
      "midi": 42,
      "hit": false,
      "t": 28586.982249999983,
      "d": 108.69574999999895,
      "v": 100
    },
    {
      "midi": 38,
      "hit": false,
      "t": 28586.982249999983,
      "d": 108.69574999999895,
      "v": 100
    },
    {
      "midi": 42,
      "hit": false,
      "t": 28695.677999999927,
      "d": 108.69574999999895,
      "v": 100
    },
    {
      "midi": 51,
      "hit": false,
      "t": 28695.677999999938,
      "d": 217.39150000000154,
      "v": 100
    },
    {
      "midi": 42,
      "hit": false,
      "t": 28695.67799999998,
      "d": 217.39150000000154,
      "v": 100
    },
    {
      "midi": 35,
      "hit": false,
      "t": 28695.67799999998,
      "d": 217.39150000000154,
      "v": 100
    },
    {
      "midi": 59,
      "hit": false,
      "t": 28695.67799999998,
      "d": 434.78299999999945,
      "v": 100
    },
    {
      "midi": 36,
      "hit": false,
      "t": 28695.678000000033,
      "d": 108.69574999999895,
      "v": 100
    },
    {
      "midi": 41,
      "hit": false,
      "t": 28804.37374999992,
      "d": 45.289895833331684,
      "v": 100
    },
    {
      "midi": 42,
      "hit": false,
      "t": 28804.373749999926,
      "d": 108.69574999999895,
      "v": 100
    },
    {
      "midi": 60,
      "hit": false,
      "t": 28804.373750000002,
      "d": 326.0872500000005,
      "v": 100
    },
    {
      "midi": 62,
      "hit": false,
      "t": 28804.373750000002,
      "d": 326.0872500000005,
      "v": 100
    },
    {
      "midi": 55,
      "hit": false,
      "t": 28804.373750000002,
      "d": 326.0872500000005,
      "v": 100
    },
    {
      "midi": 55,
      "hit": false,
      "t": 28804.373750000006,
      "d": 326.0872500000005,
      "v": 100
    },
    {
      "midi": 62,
      "hit": false,
      "t": 28804.373750000006,
      "d": 326.0872500000005,
      "v": 100
    },
    {
      "midi": 36,
      "hit": false,
      "t": 28804.37375000003,
      "d": 108.69574999999895,
      "v": 100
    },
    {
      "midi": 41,
      "hit": false,
      "t": 28913.069499999918,
      "d": 86.05080208333311,
      "v": 100
    },
    {
      "midi": 46,
      "hit": false,
      "t": 28913.069499999925,
      "d": 108.69574999999895,
      "v": 100
    },
    {
      "midi": 48,
      "hit": false,
      "t": 28913.06949999994,
      "d": 108.69574999999895,
      "v": 100
    },
    {
      "midi": 46,
      "hit": false,
      "t": 28913.069499999983,
      "d": 108.69574999999895,
      "v": 100
    },
    {
      "midi": 36,
      "hit": false,
      "t": 28913.06950000003,
      "d": 217.39150000000154,
      "v": 100
    },
    {
      "midi": 48,
      "hit": false,
      "t": 29021.76524999994,
      "d": 108.69574999999895,
      "v": 100
    },
    {
      "midi": 43,
      "hit": false,
      "t": 29130.46099999992,
      "d": 45.289895833331684,
      "v": 100
    },
    {
      "midi": 40,
      "hit": false,
      "t": 29130.460999999923,
      "d": 217.3914999999979,
      "v": 100
    },
    {
      "midi": 53,
      "hit": false,
      "t": 29130.460999999937,
      "d": 108.69574999999895,
      "v": 100
    },
    {
      "midi": 40,
      "hit": false,
      "t": 29130.46099999998,
      "d": 217.39150000000154,
      "v": 100
    },
    {
      "midi": 35,
      "hit": false,
      "t": 29130.46099999998,
      "d": 217.39150000000154,
      "v": 100
    },
    {
      "midi": 59,
      "hit": false,
      "t": 29130.46099999998,
      "d": 434.78299999999945,
      "v": 100
    },
    {
      "midi": 48,
      "hit": false,
      "t": 29130.461000000032,
      "d": 217.39150000000154,
      "v": 100
    },
    {
      "midi": 45,
      "hit": false,
      "t": 29239.15674999992,
      "d": 45.289895833331684,
      "v": 100
    },
    {
      "midi": 42,
      "hit": false,
      "t": 29239.156749999922,
      "d": 108.69574999999895,
      "v": 100
    },
    {
      "midi": 48,
      "hit": false,
      "t": 29239.156749999936,
      "d": 108.69574999999895,
      "v": 100
    },
    {
      "midi": 60,
      "hit": false,
      "t": 29239.156750000002,
      "d": 108.69574999999895,
      "v": 100
    },
    {
      "midi": 62,
      "hit": false,
      "t": 29239.156750000002,
      "d": 108.69574999999895,
      "v": 100
    },
    {
      "midi": 55,
      "hit": false,
      "t": 29239.156750000002,
      "d": 108.69574999999895,
      "v": 100
    },
    {
      "midi": 55,
      "hit": false,
      "t": 29239.156750000006,
      "d": 108.69574999999895,
      "v": 100
    },
    {
      "midi": 62,
      "hit": false,
      "t": 29239.156750000006,
      "d": 108.69574999999895,
      "v": 100
    },
    {
      "midi": 46,
      "hit": false,
      "t": 29347.852499999917,
      "d": 45.289895833331684,
      "v": 100
    },
    {
      "midi": 46,
      "hit": false,
      "t": 29347.85249999992,
      "d": 108.69574999999895,
      "v": 100
    },
    {
      "midi": 55,
      "hit": false,
      "t": 29347.852499999935,
      "d": 108.69574999999895,
      "v": 100
    },
    {
      "midi": 35,
      "hit": false,
      "t": 29347.852499999983,
      "d": 108.69574999999895,
      "v": 100
    },
    {
      "midi": 49,
      "hit": false,
      "t": 29347.852499999983,
      "d": 217.3914999999979,
      "v": 100
    },
    {
      "midi": 36,
      "hit": false,
      "t": 29347.852500000034,
      "d": 217.39150000000154,
      "v": 100
    },
    {
      "midi": 50,
      "hit": false,
      "t": 29456.548249999916,
      "d": 45.289895833331684,
      "v": 100
    },
    {
      "midi": 48,
      "hit": false,
      "t": 29456.548249999934,
      "d": 108.69574999999895,
      "v": 100
    },
    {
      "midi": 36,
      "hit": false,
      "t": 29565.243999999915,
      "d": 45.289895833331684,
      "v": 100
    },
    {
      "midi": 42,
      "hit": false,
      "t": 29565.24399999992,
      "d": 108.69574999999895,
      "v": 100
    },
    {
      "midi": 48,
      "hit": false,
      "t": 29565.243999999933,
      "d": 108.69574999999895,
      "v": 100
    },
    {
      "midi": 42,
      "hit": false,
      "t": 29565.24399999998,
      "d": 217.39150000000154,
      "v": 100
    },
    {
      "midi": 35,
      "hit": false,
      "t": 29565.24399999998,
      "d": 217.39150000000154,
      "v": 100
    },
    {
      "midi": 59,
      "hit": false,
      "t": 29565.24399999998,
      "d": 434.78299999999945,
      "v": 100
    },
    {
      "midi": 36,
      "hit": false,
      "t": 29565.244000000035,
      "d": 434.78299999999945,
      "v": 100
    },
    {
      "midi": 36,
      "hit": false,
      "t": 29673.939749999914,
      "d": 45.289895833331684,
      "v": 100
    },
    {
      "midi": 42,
      "hit": false,
      "t": 29673.939749999918,
      "d": 108.69574999999895,
      "v": 100
    },
    {
      "midi": 48,
      "hit": false,
      "t": 29673.939749999932,
      "d": 108.69574999999895,
      "v": 100
    },
    {
      "midi": 36,
      "hit": false,
      "t": 29782.635499999913,
      "d": 86.05080208333311,
      "v": 100
    },
    {
      "midi": 46,
      "hit": false,
      "t": 29782.635499999917,
      "d": 108.69574999999895,
      "v": 100
    },
    {
      "midi": 48,
      "hit": false,
      "t": 29782.63549999993,
      "d": 108.69574999999895,
      "v": 100
    },
    {
      "midi": 42,
      "hit": false,
      "t": 29782.635499999982,
      "d": 108.69574999999895,
      "v": 100
    },
    {
      "midi": 51,
      "hit": false,
      "t": 29891.33124999993,
      "d": 217.39150000000154,
      "v": 100
    },
    {
      "midi": 42,
      "hit": false,
      "t": 29891.33124999998,
      "d": 108.69574999999895,
      "v": 100
    },
    {
      "midi": 36,
      "hit": false,
      "t": 30000.026999999915,
      "d": 45.289895833331684,
      "v": 100
    },
    {
      "midi": 42,
      "hit": false,
      "t": 30000.026999999915,
      "d": 108.69574999999895,
      "v": 100
    },
    {
      "midi": 40,
      "hit": false,
      "t": 30000.026999999915,
      "d": 217.3914999999979,
      "v": 100
    },
    {
      "midi": 38,
      "hit": false,
      "t": 30000.02699999998,
      "d": 108.69574999999895,
      "v": 100
    },
    {
      "midi": 35,
      "hit": false,
      "t": 30000.02699999998,
      "d": 217.3914999999979,
      "v": 100
    },
    {
      "midi": 42,
      "hit": false,
      "t": 30000.02699999998,
      "d": 217.3914999999979,
      "v": 100
    },
    {
      "midi": 59,
      "hit": false,
      "t": 30000.02699999998,
      "d": 434.7829999999958,
      "v": 100
    },
    {
      "midi": 48,
      "hit": false,
      "t": 30000.027000000035,
      "d": 217.39150000000154,
      "v": 100
    },
    {
      "midi": 48,
      "hit": false,
      "t": 30108.722749999914,
      "d": 45.289895833331684,
      "v": 100
    },
    {
      "midi": 46,
      "hit": false,
      "t": 30108.722749999914,
      "d": 108.69574999999895,
      "v": 100
    },
    {
      "midi": 48,
      "hit": false,
      "t": 30108.72274999993,
      "d": 108.69574999999895,
      "v": 100
    },
    {
      "midi": 60,
      "hit": false,
      "t": 30108.72275,
      "d": 326.0872500000005,
      "v": 100
    },
    {
      "midi": 55,
      "hit": false,
      "t": 30108.72275,
      "d": 326.0872500000005,
      "v": 100
    },
    {
      "midi": 62,
      "hit": false,
      "t": 30108.72275,
      "d": 326.0872500000005,
      "v": 100
    },
    {
      "midi": 62,
      "hit": false,
      "t": 30108.722750000004,
      "d": 326.0872500000005,
      "v": 100
    },
    {
      "midi": 55,
      "hit": false,
      "t": 30108.722750000004,
      "d": 326.0872500000005,
      "v": 100
    },
    {
      "midi": 42,
      "hit": false,
      "t": 30217.418499999912,
      "d": 108.69574999999895,
      "v": 100
    },
    {
      "midi": 48,
      "hit": false,
      "t": 30217.41849999993,
      "d": 108.69574999999895,
      "v": 100
    },
    {
      "midi": 42,
      "hit": false,
      "t": 30217.418499999978,
      "d": 108.69574999999895,
      "v": 100
    },
    {
      "midi": 36,
      "hit": false,
      "t": 30217.418500000036,
      "d": 217.39150000000154,
      "v": 100
    },
    {
      "midi": 43,
      "hit": false,
      "t": 30326.11424999991,
      "d": 45.289895833331684,
      "v": 100
    },
    {
      "midi": 46,
      "hit": false,
      "t": 30326.11424999991,
      "d": 108.69574999999895,
      "v": 100
    },
    {
      "midi": 48,
      "hit": false,
      "t": 30326.11424999993,
      "d": 108.69574999999895,
      "v": 100
    },
    {
      "midi": 42,
      "hit": false,
      "t": 30326.114249999977,
      "d": 108.69574999999895,
      "v": 100
    },
    {
      "midi": 38,
      "hit": false,
      "t": 30326.114249999977,
      "d": 108.69574999999895,
      "v": 100
    },
    {
      "midi": 42,
      "hit": false,
      "t": 30434.80999999991,
      "d": 108.69574999999895,
      "v": 100
    },
    {
      "midi": 49,
      "hit": false,
      "t": 30434.80999999991,
      "d": 217.3914999999979,
      "v": 100
    },
    {
      "midi": 51,
      "hit": false,
      "t": 30434.80999999993,
      "d": 217.39150000000154,
      "v": 100
    },
    {
      "midi": 42,
      "hit": false,
      "t": 30434.809999999976,
      "d": 217.39150000000154,
      "v": 100
    },
    {
      "midi": 35,
      "hit": false,
      "t": 30434.809999999976,
      "d": 217.39150000000154,
      "v": 100
    },
    {
      "midi": 59,
      "hit": false,
      "t": 30434.809999999976,
      "d": 434.7830000000031,
      "v": 100
    },
    {
      "midi": 60,
      "hit": false,
      "t": 30434.81,
      "d": 326.0872500000005,
      "v": 100
    },
    {
      "midi": 55,
      "hit": false,
      "t": 30434.81,
      "d": 326.0872500000005,
      "v": 100
    },
    {
      "midi": 62,
      "hit": false,
      "t": 30434.81,
      "d": 326.0872500000005,
      "v": 100
    },
    {
      "midi": 62,
      "hit": false,
      "t": 30434.810000000005,
      "d": 326.0872500000005,
      "v": 100
    },
    {
      "midi": 55,
      "hit": false,
      "t": 30434.810000000005,
      "d": 326.0872500000005,
      "v": 100
    },
    {
      "midi": 36,
      "hit": false,
      "t": 30434.810000000038,
      "d": 108.69574999999895,
      "v": 100
    },
    {
      "midi": 41,
      "hit": false,
      "t": 30543.50574999991,
      "d": 45.289895833331684,
      "v": 100
    },
    {
      "midi": 42,
      "hit": false,
      "t": 30543.50574999991,
      "d": 108.69574999999895,
      "v": 100
    },
    {
      "midi": 36,
      "hit": false,
      "t": 30543.505750000037,
      "d": 108.69574999999895,
      "v": 100
    },
    {
      "midi": 41,
      "hit": false,
      "t": 30652.20149999991,
      "d": 86.05080208333311,
      "v": 100
    },
    {
      "midi": 46,
      "hit": false,
      "t": 30652.20149999991,
      "d": 108.69574999999895,
      "v": 100
    },
    {
      "midi": 48,
      "hit": false,
      "t": 30652.20149999993,
      "d": 108.69574999999895,
      "v": 100
    },
    {
      "midi": 46,
      "hit": false,
      "t": 30652.201499999977,
      "d": 217.39150000000154,
      "v": 100
    },
    {
      "midi": 36,
      "hit": false,
      "t": 30652.201500000036,
      "d": 217.39150000000154,
      "v": 100
    },
    {
      "midi": 48,
      "hit": false,
      "t": 30760.89724999993,
      "d": 108.69574999999895,
      "v": 100
    },
    {
      "midi": 60,
      "hit": false,
      "t": 30760.89725,
      "d": 326.0872500000005,
      "v": 100
    },
    {
      "midi": 55,
      "hit": false,
      "t": 30760.89725,
      "d": 326.0872500000005,
      "v": 100
    },
    {
      "midi": 62,
      "hit": false,
      "t": 30760.89725,
      "d": 326.0872500000005,
      "v": 100
    },
    {
      "midi": 62,
      "hit": false,
      "t": 30760.897250000005,
      "d": 326.0872500000005,
      "v": 100
    },
    {
      "midi": 55,
      "hit": false,
      "t": 30760.897250000005,
      "d": 326.0872500000005,
      "v": 100
    },
    {
      "midi": 57,
      "hit": false,
      "t": 30869.592999999906,
      "d": 217.3914999999979,
      "v": 100
    },
    {
      "midi": 40,
      "hit": false,
      "t": 30869.592999999906,
      "d": 217.3914999999979,
      "v": 100
    },
    {
      "midi": 43,
      "hit": false,
      "t": 30869.59299999991,
      "d": 45.289895833331684,
      "v": 100
    },
    {
      "midi": 53,
      "hit": false,
      "t": 30869.592999999928,
      "d": 108.69574999999895,
      "v": 100
    },
    {
      "midi": 35,
      "hit": false,
      "t": 30869.59299999998,
      "d": 217.3914999999979,
      "v": 100
    },
    {
      "midi": 59,
      "hit": false,
      "t": 30869.59299999998,
      "d": 434.7829999999958,
      "v": 100
    },
    {
      "midi": 48,
      "hit": false,
      "t": 30869.593000000037,
      "d": 217.39150000000154,
      "v": 100
    },
    {
      "midi": 42,
      "hit": false,
      "t": 30978.288749999905,
      "d": 108.69574999999895,
      "v": 100
    },
    {
      "midi": 45,
      "hit": false,
      "t": 30978.28874999991,
      "d": 45.289895833331684,
      "v": 100
    },
    {
      "midi": 48,
      "hit": false,
      "t": 30978.288749999927,
      "d": 108.69574999999895,
      "v": 100
    },
    {
      "midi": 38,
      "hit": false,
      "t": 30978.288749999978,
      "d": 108.69574999999895,
      "v": 100
    },
    {
      "midi": 46,
      "hit": false,
      "t": 31086.984499999904,
      "d": 108.69574999999895,
      "v": 100
    },
    {
      "midi": 46,
      "hit": false,
      "t": 31086.984499999908,
      "d": 45.289895833331684,
      "v": 100
    },
    {
      "midi": 55,
      "hit": false,
      "t": 31086.984499999926,
      "d": 108.69574999999895,
      "v": 100
    },
    {
      "midi": 38,
      "hit": false,
      "t": 31086.984499999977,
      "d": 108.69574999999895,
      "v": 100
    },
    {
      "midi": 49,
      "hit": false,
      "t": 31086.984499999977,
      "d": 217.3914999999979,
      "v": 100
    },
    {
      "midi": 36,
      "hit": false,
      "t": 31086.98450000004,
      "d": 217.39150000000154,
      "v": 100
    },
    {
      "midi": 50,
      "hit": false,
      "t": 31195.680249999907,
      "d": 45.289895833331684,
      "v": 100
    },
    {
      "midi": 48,
      "hit": false,
      "t": 31195.680249999925,
      "d": 108.69574999999895,
      "v": 100
    },
    {
      "midi": 38,
      "hit": false,
      "t": 31195.680249999976,
      "d": 108.69574999999895,
      "v": 100
    },
    {
      "midi": 60,
      "hit": false,
      "t": 31195.68025,
      "d": 108.69574999999895,
      "v": 100
    },
    {
      "midi": 55,
      "hit": false,
      "t": 31195.68025,
      "d": 108.69574999999895,
      "v": 100
    },
    {
      "midi": 62,
      "hit": false,
      "t": 31195.68025,
      "d": 108.69574999999895,
      "v": 100
    },
    {
      "midi": 62,
      "hit": false,
      "t": 31195.680250000005,
      "d": 108.69574999999895,
      "v": 100
    },
    {
      "midi": 55,
      "hit": false,
      "t": 31195.680250000005,
      "d": 108.69574999999895,
      "v": 100
    },
    {
      "midi": 42,
      "hit": false,
      "t": 31304.375999999902,
      "d": 108.69574999999895,
      "v": 100
    },
    {
      "midi": 49,
      "hit": false,
      "t": 31304.375999999902,
      "d": 217.3914999999979,
      "v": 100
    },
    {
      "midi": 36,
      "hit": false,
      "t": 31304.375999999906,
      "d": 45.289895833331684,
      "v": 100
    },
    {
      "midi": 48,
      "hit": false,
      "t": 31304.375999999924,
      "d": 108.69574999999895,
      "v": 100
    },
    {
      "midi": 35,
      "hit": false,
      "t": 31304.375999999975,
      "d": 217.39150000000154,
      "v": 100
    },
    {
      "midi": 42,
      "hit": false,
      "t": 31304.375999999975,
      "d": 217.39150000000154,
      "v": 100
    },
    {
      "midi": 59,
      "hit": false,
      "t": 31304.375999999975,
      "d": 434.78299999999945,
      "v": 100
    },
    {
      "midi": 65,
      "hit": false,
      "t": 31304.375999999997,
      "d": 3478.264000000003,
      "v": 100
    },
    {
      "midi": 58,
      "hit": false,
      "t": 31304.375999999997,
      "d": 3478.264000000003,
      "v": 100
    },
    {
      "midi": 48,
      "hit": false,
      "t": 31304.375999999997,
      "d": 3478.264000000003,
      "v": 100
    },
    {
      "midi": 55,
      "hit": false,
      "t": 31304.375999999997,
      "d": 3478.264000000003,
      "v": 100
    },
    {
      "midi": 62,
      "hit": false,
      "t": 31304.375999999997,
      "d": 3478.264000000003,
      "v": 100
    },
    {
      "midi": 48,
      "hit": false,
      "t": 31304.375999999997,
      "d": 3478.264000000003,
      "v": 100
    },
    {
      "midi": 58,
      "hit": false,
      "t": 31304.375999999997,
      "d": 3478.264000000003,
      "v": 100
    },
    {
      "midi": 65,
      "hit": false,
      "t": 31304.375999999997,
      "d": 3478.264000000003,
      "v": 100
    },
    {
      "midi": 62,
      "hit": false,
      "t": 31304.375999999997,
      "d": 3478.264000000003,
      "v": 100
    },
    {
      "midi": 55,
      "hit": false,
      "t": 31304.375999999997,
      "d": 3478.264000000003,
      "v": 100
    },
    {
      "midi": 65,
      "hit": false,
      "t": 31304.375999999997,
      "d": 3478.264000000003,
      "v": 100
    },
    {
      "midi": 55,
      "hit": false,
      "t": 31304.376,
      "d": 326.0872500000005,
      "v": 100
    },
    {
      "midi": 58,
      "hit": false,
      "t": 31304.376,
      "d": 326.0872500000005,
      "v": 100
    },
    {
      "midi": 65,
      "hit": false,
      "t": 31304.376,
      "d": 326.0872500000005,
      "v": 100
    },
    {
      "midi": 62,
      "hit": false,
      "t": 31304.376,
      "d": 326.0872500000005,
      "v": 100
    },
    {
      "midi": 58,
      "hit": false,
      "t": 31304.376000000004,
      "d": 326.0872500000005,
      "v": 100
    },
    {
      "midi": 55,
      "hit": false,
      "t": 31304.376000000004,
      "d": 326.0872500000005,
      "v": 100
    },
    {
      "midi": 62,
      "hit": false,
      "t": 31304.376000000004,
      "d": 326.0872500000005,
      "v": 100
    },
    {
      "midi": 65,
      "hit": false,
      "t": 31304.376000000004,
      "d": 326.0872500000005,
      "v": 100
    },
    {
      "midi": 36,
      "hit": false,
      "t": 31304.37600000004,
      "d": 434.78299999999945,
      "v": 100
    },
    {
      "midi": 42,
      "hit": false,
      "t": 31413.0717499999,
      "d": 108.69574999999895,
      "v": 100
    },
    {
      "midi": 48,
      "hit": false,
      "t": 31413.071749999923,
      "d": 108.69574999999895,
      "v": 100
    },
    {
      "midi": 46,
      "hit": false,
      "t": 31521.7674999999,
      "d": 108.69574999999895,
      "v": 100
    },
    {
      "midi": 36,
      "hit": false,
      "t": 31521.767499999904,
      "d": 45.289895833331684,
      "v": 100
    },
    {
      "midi": 48,
      "hit": false,
      "t": 31521.76749999992,
      "d": 108.69574999999895,
      "v": 100
    },
    {
      "midi": 42,
      "hit": false,
      "t": 31521.767499999976,
      "d": 108.69574999999895,
      "v": 100
    },
    {
      "midi": 51,
      "hit": false,
      "t": 31630.46324999992,
      "d": 217.39150000000154,
      "v": 100
    },
    {
      "midi": 42,
      "hit": false,
      "t": 31630.463249999975,
      "d": 108.69574999999895,
      "v": 100
    },
    {
      "midi": 55,
      "hit": false,
      "t": 31630.46325,
      "d": 326.0872500000005,
      "v": 100
    },
    {
      "midi": 62,
      "hit": false,
      "t": 31630.46325,
      "d": 326.0872500000005,
      "v": 100
    },
    {
      "midi": 58,
      "hit": false,
      "t": 31630.46325,
      "d": 326.0872500000005,
      "v": 100
    },
    {
      "midi": 65,
      "hit": false,
      "t": 31630.46325,
      "d": 326.0872500000005,
      "v": 100
    },
    {
      "midi": 62,
      "hit": false,
      "t": 31630.463250000004,
      "d": 326.0872500000005,
      "v": 100
    },
    {
      "midi": 55,
      "hit": false,
      "t": 31630.463250000004,
      "d": 326.0872500000005,
      "v": 100
    },
    {
      "midi": 65,
      "hit": false,
      "t": 31630.463250000004,
      "d": 326.0872500000005,
      "v": 100
    },
    {
      "midi": 58,
      "hit": false,
      "t": 31630.463250000004,
      "d": 326.0872500000005,
      "v": 100
    },
    {
      "midi": 42,
      "hit": false,
      "t": 31739.158999999898,
      "d": 108.69574999999895,
      "v": 100
    },
    {
      "midi": 40,
      "hit": false,
      "t": 31739.158999999898,
      "d": 217.3914999999979,
      "v": 100
    },
    {
      "midi": 36,
      "hit": false,
      "t": 31739.1589999999,
      "d": 45.289895833331684,
      "v": 100
    },
    {
      "midi": 38,
      "hit": false,
      "t": 31739.158999999974,
      "d": 108.69574999999895,
      "v": 100
    },
    {
      "midi": 42,
      "hit": false,
      "t": 31739.158999999974,
      "d": 217.3914999999979,
      "v": 100
    },
    {
      "midi": 35,
      "hit": false,
      "t": 31739.158999999974,
      "d": 217.3914999999979,
      "v": 100
    },
    {
      "midi": 59,
      "hit": false,
      "t": 31739.158999999974,
      "d": 434.7829999999958,
      "v": 100
    },
    {
      "midi": 48,
      "hit": false,
      "t": 31739.15900000004,
      "d": 217.39150000000154,
      "v": 100
    },
    {
      "midi": 46,
      "hit": false,
      "t": 31847.854749999897,
      "d": 108.69574999999895,
      "v": 100
    },
    {
      "midi": 48,
      "hit": false,
      "t": 31847.8547499999,
      "d": 45.289895833331684,
      "v": 100
    },
    {
      "midi": 48,
      "hit": false,
      "t": 31847.854749999922,
      "d": 108.69574999999895,
      "v": 100
    },
    {
      "midi": 42,
      "hit": false,
      "t": 31956.550499999896,
      "d": 108.69574999999895,
      "v": 100
    },
    {
      "midi": 48,
      "hit": false,
      "t": 31956.55049999992,
      "d": 108.69574999999895,
      "v": 100
    },
    {
      "midi": 42,
      "hit": false,
      "t": 31956.550499999972,
      "d": 108.69574999999895,
      "v": 100
    },
    {
      "midi": 55,
      "hit": false,
      "t": 31956.5505,
      "d": 326.0872500000005,
      "v": 100
    },
    {
      "midi": 62,
      "hit": false,
      "t": 31956.5505,
      "d": 326.0872500000005,
      "v": 100
    },
    {
      "midi": 65,
      "hit": false,
      "t": 31956.5505,
      "d": 326.0872500000005,
      "v": 100
    },
    {
      "midi": 58,
      "hit": false,
      "t": 31956.5505,
      "d": 326.0872500000005,
      "v": 100
    },
    {
      "midi": 62,
      "hit": false,
      "t": 31956.550500000005,
      "d": 326.0872500000005,
      "v": 100
    },
    {
      "midi": 55,
      "hit": false,
      "t": 31956.550500000005,
      "d": 326.0872500000005,
      "v": 100
    },
    {
      "midi": 58,
      "hit": false,
      "t": 31956.550500000005,
      "d": 326.0872500000005,
      "v": 100
    },
    {
      "midi": 65,
      "hit": false,
      "t": 31956.550500000005,
      "d": 326.0872500000005,
      "v": 100
    },
    {
      "midi": 36,
      "hit": false,
      "t": 31956.55050000004,
      "d": 217.39150000000154,
      "v": 100
    },
    {
      "midi": 46,
      "hit": false,
      "t": 32065.246249999895,
      "d": 108.69574999999895,
      "v": 100
    },
    {
      "midi": 43,
      "hit": false,
      "t": 32065.2462499999,
      "d": 45.289895833331684,
      "v": 100
    },
    {
      "midi": 48,
      "hit": false,
      "t": 32065.24624999992,
      "d": 108.69574999999895,
      "v": 100
    },
    {
      "midi": 38,
      "hit": false,
      "t": 32065.24624999997,
      "d": 108.69574999999895,
      "v": 100
    },
    {
      "midi": 42,
      "hit": false,
      "t": 32065.24624999997,
      "d": 108.69574999999895,
      "v": 100
    },
    {
      "midi": 42,
      "hit": false,
      "t": 32173.941999999894,
      "d": 108.69574999999895,
      "v": 100
    },
    {
      "midi": 51,
      "hit": false,
      "t": 32173.94199999992,
      "d": 217.39150000000154,
      "v": 100
    },
    {
      "midi": 35,
      "hit": false,
      "t": 32173.94199999997,
      "d": 217.39150000000154,
      "v": 100
    },
    {
      "midi": 42,
      "hit": false,
      "t": 32173.94199999997,
      "d": 217.39150000000154,
      "v": 100
    },
    {
      "midi": 59,
      "hit": false,
      "t": 32173.94199999997,
      "d": 434.78299999999945,
      "v": 100
    },
    {
      "midi": 36,
      "hit": false,
      "t": 32173.942000000043,
      "d": 108.69574999999895,
      "v": 100
    },
    {
      "midi": 42,
      "hit": false,
      "t": 32282.637749999893,
      "d": 108.69574999999895,
      "v": 100
    },
    {
      "midi": 41,
      "hit": false,
      "t": 32282.637749999896,
      "d": 45.289895833331684,
      "v": 100
    },
    {
      "midi": 55,
      "hit": false,
      "t": 32282.63775,
      "d": 326.0872500000005,
      "v": 100
    },
    {
      "midi": 62,
      "hit": false,
      "t": 32282.63775,
      "d": 326.0872500000005,
      "v": 100
    },
    {
      "midi": 65,
      "hit": false,
      "t": 32282.63775,
      "d": 326.0872500000005,
      "v": 100
    },
    {
      "midi": 58,
      "hit": false,
      "t": 32282.63775,
      "d": 326.0872500000005,
      "v": 100
    },
    {
      "midi": 62,
      "hit": false,
      "t": 32282.637750000005,
      "d": 326.0872500000005,
      "v": 100
    },
    {
      "midi": 55,
      "hit": false,
      "t": 32282.637750000005,
      "d": 326.0872500000005,
      "v": 100
    },
    {
      "midi": 58,
      "hit": false,
      "t": 32282.637750000005,
      "d": 326.0872500000005,
      "v": 100
    },
    {
      "midi": 65,
      "hit": false,
      "t": 32282.637750000005,
      "d": 326.0872500000005,
      "v": 100
    },
    {
      "midi": 36,
      "hit": false,
      "t": 32282.63775000004,
      "d": 108.69574999999895,
      "v": 100
    },
    {
      "midi": 46,
      "hit": false,
      "t": 32391.33349999989,
      "d": 108.69574999999895,
      "v": 100
    },
    {
      "midi": 41,
      "hit": false,
      "t": 32391.333499999895,
      "d": 86.05080208333311,
      "v": 100
    },
    {
      "midi": 48,
      "hit": false,
      "t": 32391.33349999992,
      "d": 108.69574999999895,
      "v": 100
    },
    {
      "midi": 46,
      "hit": false,
      "t": 32391.33349999997,
      "d": 108.69574999999895,
      "v": 100
    },
    {
      "midi": 36,
      "hit": false,
      "t": 32391.33350000004,
      "d": 217.39150000000154,
      "v": 100
    },
    {
      "midi": 48,
      "hit": false,
      "t": 32500.02924999992,
      "d": 108.69574999999895,
      "v": 100
    },
    {
      "midi": 40,
      "hit": false,
      "t": 32608.72499999989,
      "d": 217.3914999999979,
      "v": 100
    },
    {
      "midi": 43,
      "hit": false,
      "t": 32608.724999999897,
      "d": 45.289895833331684,
      "v": 100
    },
    {
      "midi": 53,
      "hit": false,
      "t": 32608.72499999992,
      "d": 108.69574999999895,
      "v": 100
    },
    {
      "midi": 35,
      "hit": false,
      "t": 32608.72499999997,
      "d": 217.3914999999979,
      "v": 100
    },
    {
      "midi": 40,
      "hit": false,
      "t": 32608.72499999997,
      "d": 217.3914999999979,
      "v": 100
    },
    {
      "midi": 59,
      "hit": false,
      "t": 32608.72499999997,
      "d": 434.7829999999958,
      "v": 100
    },
    {
      "midi": 48,
      "hit": false,
      "t": 32608.725000000042,
      "d": 217.3914999999979,
      "v": 100
    },
    {
      "midi": 42,
      "hit": false,
      "t": 32717.42074999989,
      "d": 108.69574999999895,
      "v": 100
    },
    {
      "midi": 45,
      "hit": false,
      "t": 32717.420749999896,
      "d": 45.289895833331684,
      "v": 100
    },
    {
      "midi": 48,
      "hit": false,
      "t": 32717.420749999917,
      "d": 108.69574999999895,
      "v": 100
    },
    {
      "midi": 58,
      "hit": false,
      "t": 32717.42075,
      "d": 108.69575000000259,
      "v": 100
    },
    {
      "midi": 62,
      "hit": false,
      "t": 32717.42075,
      "d": 108.69575000000259,
      "v": 100
    },
    {
      "midi": 55,
      "hit": false,
      "t": 32717.42075,
      "d": 108.69575000000259,
      "v": 100
    },
    {
      "midi": 65,
      "hit": false,
      "t": 32717.42075,
      "d": 108.69575000000259,
      "v": 100
    },
    {
      "midi": 62,
      "hit": false,
      "t": 32717.420750000005,
      "d": 108.69574999999895,
      "v": 100
    },
    {
      "midi": 58,
      "hit": false,
      "t": 32717.420750000005,
      "d": 108.69574999999895,
      "v": 100
    },
    {
      "midi": 65,
      "hit": false,
      "t": 32717.420750000005,
      "d": 108.69574999999895,
      "v": 100
    },
    {
      "midi": 55,
      "hit": false,
      "t": 32717.420750000005,
      "d": 108.69574999999895,
      "v": 100
    },
    {
      "midi": 46,
      "hit": false,
      "t": 32826.11649999989,
      "d": 108.69574999999895,
      "v": 100
    },
    {
      "midi": 46,
      "hit": false,
      "t": 32826.116499999895,
      "d": 45.289895833331684,
      "v": 100
    },
    {
      "midi": 55,
      "hit": false,
      "t": 32826.11649999992,
      "d": 108.69574999999895,
      "v": 100
    },
    {
      "midi": 35,
      "hit": false,
      "t": 32826.11649999997,
      "d": 108.69574999999895,
      "v": 100
    },
    {
      "midi": 49,
      "hit": false,
      "t": 32826.11649999997,
      "d": 217.3914999999979,
      "v": 100
    },
    {
      "midi": 36,
      "hit": false,
      "t": 32826.11650000004,
      "d": 217.3914999999979,
      "v": 100
    },
    {
      "midi": 50,
      "hit": false,
      "t": 32934.81224999989,
      "d": 45.289895833331684,
      "v": 100
    },
    {
      "midi": 48,
      "hit": false,
      "t": 32934.812249999915,
      "d": 108.69574999999895,
      "v": 100
    },
    {
      "midi": 42,
      "hit": false,
      "t": 33043.507999999885,
      "d": 108.69574999999895,
      "v": 100
    },
    {
      "midi": 36,
      "hit": false,
      "t": 33043.50799999989,
      "d": 45.289895833331684,
      "v": 100
    },
    {
      "midi": 48,
      "hit": false,
      "t": 33043.507999999914,
      "d": 108.69574999999895,
      "v": 100
    },
    {
      "midi": 35,
      "hit": false,
      "t": 33043.507999999965,
      "d": 217.3914999999979,
      "v": 100
    },
    {
      "midi": 42,
      "hit": false,
      "t": 33043.507999999965,
      "d": 217.3914999999979,
      "v": 100
    },
    {
      "midi": 59,
      "hit": false,
      "t": 33043.507999999965,
      "d": 434.7829999999958,
      "v": 100
    },
    {
      "midi": 36,
      "hit": false,
      "t": 33043.50800000004,
      "d": 434.7830000000031,
      "v": 100
    },
    {
      "midi": 42,
      "hit": false,
      "t": 33152.203749999884,
      "d": 108.69574999999895,
      "v": 100
    },
    {
      "midi": 36,
      "hit": false,
      "t": 33152.20374999989,
      "d": 45.289895833331684,
      "v": 100
    },
    {
      "midi": 48,
      "hit": false,
      "t": 33152.20374999991,
      "d": 108.69574999999895,
      "v": 100
    },
    {
      "midi": 46,
      "hit": false,
      "t": 33260.89949999988,
      "d": 108.69574999999895,
      "v": 100
    },
    {
      "midi": 36,
      "hit": false,
      "t": 33260.89949999989,
      "d": 86.05080208333675,
      "v": 100
    },
    {
      "midi": 48,
      "hit": false,
      "t": 33260.89949999991,
      "d": 108.69574999999895,
      "v": 100
    },
    {
      "midi": 42,
      "hit": false,
      "t": 33260.89949999996,
      "d": 108.69574999999895,
      "v": 100
    },
    {
      "midi": 51,
      "hit": false,
      "t": 33369.59524999991,
      "d": 217.3914999999979,
      "v": 100
    },
    {
      "midi": 42,
      "hit": false,
      "t": 33369.59524999996,
      "d": 108.69574999999895,
      "v": 100
    },
    {
      "midi": 62,
      "hit": false,
      "t": 33369.595250000006,
      "d": 326.08724999999686,
      "v": 100
    },
    {
      "midi": 55,
      "hit": false,
      "t": 33369.595250000006,
      "d": 326.08724999999686,
      "v": 100
    },
    {
      "midi": 65,
      "hit": false,
      "t": 33369.595250000006,
      "d": 326.08724999999686,
      "v": 100
    },
    {
      "midi": 58,
      "hit": false,
      "t": 33369.595250000006,
      "d": 326.08724999999686,
      "v": 100
    },
    {
      "midi": 55,
      "hit": false,
      "t": 33369.595250000006,
      "d": 326.08724999999686,
      "v": 100
    },
    {
      "midi": 62,
      "hit": false,
      "t": 33369.595250000006,
      "d": 326.08724999999686,
      "v": 100
    },
    {
      "midi": 58,
      "hit": false,
      "t": 33369.595250000006,
      "d": 326.08724999999686,
      "v": 100
    },
    {
      "midi": 65,
      "hit": false,
      "t": 33369.595250000006,
      "d": 326.08724999999686,
      "v": 100
    },
    {
      "midi": 42,
      "hit": false,
      "t": 33478.29099999988,
      "d": 108.69574999999895,
      "v": 100
    },
    {
      "midi": 40,
      "hit": false,
      "t": 33478.29099999988,
      "d": 217.3914999999979,
      "v": 100
    },
    {
      "midi": 36,
      "hit": false,
      "t": 33478.290999999896,
      "d": 45.289895833331684,
      "v": 100
    },
    {
      "midi": 38,
      "hit": false,
      "t": 33478.29099999996,
      "d": 108.69574999999895,
      "v": 100
    },
    {
      "midi": 42,
      "hit": false,
      "t": 33478.29099999996,
      "d": 217.3914999999979,
      "v": 100
    },
    {
      "midi": 35,
      "hit": false,
      "t": 33478.29099999996,
      "d": 217.3914999999979,
      "v": 100
    },
    {
      "midi": 59,
      "hit": false,
      "t": 33478.29099999996,
      "d": 434.7829999999958,
      "v": 100
    },
    {
      "midi": 48,
      "hit": false,
      "t": 33478.29100000004,
      "d": 217.3914999999979,
      "v": 100
    },
    {
      "midi": 46,
      "hit": false,
      "t": 33586.98674999988,
      "d": 108.69574999999895,
      "v": 100
    },
    {
      "midi": 48,
      "hit": false,
      "t": 33586.986749999895,
      "d": 45.289895833331684,
      "v": 100
    },
    {
      "midi": 48,
      "hit": false,
      "t": 33586.98674999991,
      "d": 108.69574999999895,
      "v": 100
    },
    {
      "midi": 42,
      "hit": false,
      "t": 33695.68249999988,
      "d": 108.69574999999895,
      "v": 100
    },
    {
      "midi": 48,
      "hit": false,
      "t": 33695.68249999991,
      "d": 108.69574999999895,
      "v": 100
    },
    {
      "midi": 42,
      "hit": false,
      "t": 33695.68249999996,
      "d": 108.69574999999895,
      "v": 100
    },
    {
      "midi": 62,
      "hit": false,
      "t": 33695.6825,
      "d": 326.08724999999686,
      "v": 100
    },
    {
      "midi": 55,
      "hit": false,
      "t": 33695.6825,
      "d": 326.08724999999686,
      "v": 100
    },
    {
      "midi": 58,
      "hit": false,
      "t": 33695.6825,
      "d": 326.08724999999686,
      "v": 100
    },
    {
      "midi": 65,
      "hit": false,
      "t": 33695.6825,
      "d": 326.08724999999686,
      "v": 100
    },
    {
      "midi": 55,
      "hit": false,
      "t": 33695.6825,
      "d": 326.08724999999686,
      "v": 100
    },
    {
      "midi": 62,
      "hit": false,
      "t": 33695.6825,
      "d": 326.08724999999686,
      "v": 100
    },
    {
      "midi": 65,
      "hit": false,
      "t": 33695.6825,
      "d": 326.08724999999686,
      "v": 100
    },
    {
      "midi": 58,
      "hit": false,
      "t": 33695.6825,
      "d": 326.08724999999686,
      "v": 100
    },
    {
      "midi": 36,
      "hit": false,
      "t": 33695.68250000004,
      "d": 217.3914999999979,
      "v": 100
    },
    {
      "midi": 46,
      "hit": false,
      "t": 33804.37824999988,
      "d": 108.69574999999895,
      "v": 100
    },
    {
      "midi": 43,
      "hit": false,
      "t": 33804.37824999989,
      "d": 45.289895833331684,
      "v": 100
    },
    {
      "midi": 48,
      "hit": false,
      "t": 33804.37824999991,
      "d": 108.69574999999895,
      "v": 100
    },
    {
      "midi": 38,
      "hit": false,
      "t": 33804.37824999996,
      "d": 108.69574999999895,
      "v": 100
    },
    {
      "midi": 42,
      "hit": false,
      "t": 33804.37824999996,
      "d": 108.69574999999895,
      "v": 100
    },
    {
      "midi": 42,
      "hit": false,
      "t": 33913.07399999988,
      "d": 108.69574999999895,
      "v": 100
    },
    {
      "midi": 51,
      "hit": false,
      "t": 33913.073999999906,
      "d": 217.3914999999979,
      "v": 100
    },
    {
      "midi": 42,
      "hit": false,
      "t": 33913.07399999996,
      "d": 217.3914999999979,
      "v": 100
    },
    {
      "midi": 35,
      "hit": false,
      "t": 33913.07399999996,
      "d": 217.3914999999979,
      "v": 100
    },
    {
      "midi": 59,
      "hit": false,
      "t": 33913.07399999996,
      "d": 434.7829999999958,
      "v": 100
    },
    {
      "midi": 36,
      "hit": false,
      "t": 33913.07400000004,
      "d": 108.69574999999895,
      "v": 100
    },
    {
      "midi": 42,
      "hit": false,
      "t": 34021.769749999876,
      "d": 108.69574999999895,
      "v": 100
    },
    {
      "midi": 41,
      "hit": false,
      "t": 34021.76974999989,
      "d": 45.289895833331684,
      "v": 100
    },
    {
      "midi": 38,
      "hit": false,
      "t": 34021.769749999956,
      "d": 108.69574999999895,
      "v": 100
    },
    {
      "midi": 62,
      "hit": false,
      "t": 34021.76975,
      "d": 326.08724999999686,
      "v": 100
    },
    {
      "midi": 55,
      "hit": false,
      "t": 34021.76975,
      "d": 326.08724999999686,
      "v": 100
    },
    {
      "midi": 58,
      "hit": false,
      "t": 34021.76975,
      "d": 326.08724999999686,
      "v": 100
    },
    {
      "midi": 65,
      "hit": false,
      "t": 34021.76975,
      "d": 326.08724999999686,
      "v": 100
    },
    {
      "midi": 55,
      "hit": false,
      "t": 34021.76975,
      "d": 326.08724999999686,
      "v": 100
    },
    {
      "midi": 62,
      "hit": false,
      "t": 34021.76975,
      "d": 326.08724999999686,
      "v": 100
    },
    {
      "midi": 65,
      "hit": false,
      "t": 34021.76975,
      "d": 326.08724999999686,
      "v": 100
    },
    {
      "midi": 58,
      "hit": false,
      "t": 34021.76975,
      "d": 326.08724999999686,
      "v": 100
    },
    {
      "midi": 36,
      "hit": false,
      "t": 34021.769750000036,
      "d": 108.69574999999895,
      "v": 100
    },
    {
      "midi": 46,
      "hit": false,
      "t": 34130.465499999875,
      "d": 108.69574999999895,
      "v": 100
    },
    {
      "midi": 41,
      "hit": false,
      "t": 34130.46549999989,
      "d": 86.05080208333675,
      "v": 100
    },
    {
      "midi": 48,
      "hit": false,
      "t": 34130.465499999904,
      "d": 108.69574999999895,
      "v": 100
    },
    {
      "midi": 46,
      "hit": false,
      "t": 34130.465499999955,
      "d": 217.3914999999979,
      "v": 100
    },
    {
      "midi": 36,
      "hit": false,
      "t": 34130.465500000035,
      "d": 217.3914999999979,
      "v": 100
    },
    {
      "midi": 48,
      "hit": false,
      "t": 34239.1612499999,
      "d": 108.69574999999895,
      "v": 100
    },
    {
      "midi": 40,
      "hit": false,
      "t": 34347.85699999987,
      "d": 217.3914999999979,
      "v": 100
    },
    {
      "midi": 43,
      "hit": false,
      "t": 34347.856999999894,
      "d": 45.289895833331684,
      "v": 100
    },
    {
      "midi": 53,
      "hit": false,
      "t": 34347.8569999999,
      "d": 108.69574999999895,
      "v": 100
    },
    {
      "midi": 35,
      "hit": false,
      "t": 34347.85699999995,
      "d": 217.3914999999979,
      "v": 100
    },
    {
      "midi": 38,
      "hit": false,
      "t": 34347.85699999995,
      "d": 217.3914999999979,
      "v": 100
    },
    {
      "midi": 59,
      "hit": false,
      "t": 34347.85699999995,
      "d": 434.7829999999958,
      "v": 100
    },
    {
      "midi": 48,
      "hit": false,
      "t": 34347.85700000003,
      "d": 217.3914999999979,
      "v": 100
    },
    {
      "midi": 42,
      "hit": false,
      "t": 34456.55274999987,
      "d": 108.69574999999895,
      "v": 100
    },
    {
      "midi": 45,
      "hit": false,
      "t": 34456.55274999989,
      "d": 45.289895833331684,
      "v": 100
    },
    {
      "midi": 48,
      "hit": false,
      "t": 34456.5527499999,
      "d": 108.69574999999895,
      "v": 100
    },
    {
      "midi": 62,
      "hit": false,
      "t": 34456.552749999995,
      "d": 108.69574999999895,
      "v": 100
    },
    {
      "midi": 58,
      "hit": false,
      "t": 34456.552749999995,
      "d": 108.69574999999895,
      "v": 100
    },
    {
      "midi": 65,
      "hit": false,
      "t": 34456.552749999995,
      "d": 108.69574999999895,
      "v": 100
    },
    {
      "midi": 55,
      "hit": false,
      "t": 34456.552749999995,
      "d": 108.69574999999895,
      "v": 100
    },
    {
      "midi": 58,
      "hit": false,
      "t": 34456.552749999995,
      "d": 108.69574999999895,
      "v": 100
    },
    {
      "midi": 62,
      "hit": false,
      "t": 34456.552749999995,
      "d": 108.69574999999895,
      "v": 100
    },
    {
      "midi": 55,
      "hit": false,
      "t": 34456.552749999995,
      "d": 108.69574999999895,
      "v": 100
    },
    {
      "midi": 65,
      "hit": false,
      "t": 34456.552749999995,
      "d": 108.69574999999895,
      "v": 100
    },
    {
      "midi": 46,
      "hit": false,
      "t": 34565.24849999987,
      "d": 108.69574999999895,
      "v": 100
    },
    {
      "midi": 57,
      "hit": false,
      "t": 34565.24849999987,
      "d": 217.3914999999979,
      "v": 100
    },
    {
      "midi": 46,
      "hit": false,
      "t": 34565.24849999989,
      "d": 45.289895833331684,
      "v": 100
    },
    {
      "midi": 55,
      "hit": false,
      "t": 34565.2484999999,
      "d": 108.69574999999895,
      "v": 100
    },
    {
      "midi": 38,
      "hit": false,
      "t": 34565.24849999995,
      "d": 108.69574999999895,
      "v": 100
    },
    {
      "midi": 49,
      "hit": false,
      "t": 34565.24849999995,
      "d": 217.3914999999979,
      "v": 100
    },
    {
      "midi": 36,
      "hit": false,
      "t": 34565.24850000003,
      "d": 217.3914999999979,
      "v": 100
    },
    {
      "midi": 50,
      "hit": false,
      "t": 34673.94424999989,
      "d": 45.289895833331684,
      "v": 100
    },
    {
      "midi": 48,
      "hit": false,
      "t": 34673.9442499999,
      "d": 108.69574999999895,
      "v": 100
    },
    {
      "midi": 38,
      "hit": false,
      "t": 34673.94424999995,
      "d": 108.69574999999895,
      "v": 100
    },
    {
      "midi": 42,
      "hit": false,
      "t": 34782.63999999987,
      "d": 108.69574999999895,
      "v": 100
    },
    {
      "midi": 49,
      "hit": false,
      "t": 34782.63999999987,
      "d": 217.3914999999979,
      "v": 100
    },
    {
      "midi": 36,
      "hit": false,
      "t": 34782.63999999989,
      "d": 45.289895833331684,
      "v": 100
    },
    {
      "midi": 48,
      "hit": false,
      "t": 34782.6399999999,
      "d": 108.69574999999895,
      "v": 100
    },
    {
      "midi": 42,
      "hit": false,
      "t": 34782.63999999995,
      "d": 217.3914999999979,
      "v": 100
    },
    {
      "midi": 35,
      "hit": false,
      "t": 34782.63999999995,
      "d": 217.3914999999979,
      "v": 100
    },
    {
      "midi": 59,
      "hit": false,
      "t": 34782.63999999995,
      "d": 434.7829999999958,
      "v": 100
    },
    {
      "midi": 63,
      "hit": false,
      "t": 34782.63999999999,
      "d": 326.08724999999686,
      "v": 100
    },
    {
      "midi": 60,
      "hit": false,
      "t": 34782.63999999999,
      "d": 326.08724999999686,
      "v": 100
    },
    {
      "midi": 56,
      "hit": false,
      "t": 34782.63999999999,
      "d": 326.08724999999686,
      "v": 100
    },
    {
      "midi": 56,
      "hit": false,
      "t": 34782.63999999999,
      "d": 326.08724999999686,
      "v": 100
    },
    {
      "midi": 60,
      "hit": false,
      "t": 34782.63999999999,
      "d": 326.08724999999686,
      "v": 100
    },
    {
      "midi": 63,
      "hit": false,
      "t": 34782.63999999999,
      "d": 326.08724999999686,
      "v": 100
    },
    {
      "midi": 56,
      "hit": false,
      "t": 34782.64,
      "d": 3478.264000000003,
      "v": 100
    },
    {
      "midi": 63,
      "hit": false,
      "t": 34782.64,
      "d": 3478.264000000003,
      "v": 100
    },
    {
      "midi": 53,
      "hit": false,
      "t": 34782.64,
      "d": 3478.264000000003,
      "v": 100
    },
    {
      "midi": 68,
      "hit": false,
      "t": 34782.64,
      "d": 3478.264000000003,
      "v": 100
    },
    {
      "midi": 51,
      "hit": false,
      "t": 34782.64,
      "d": 3478.264000000003,
      "v": 100
    },
    {
      "midi": 53,
      "hit": false,
      "t": 34782.64,
      "d": 3478.264000000003,
      "v": 100
    },
    {
      "midi": 63,
      "hit": false,
      "t": 34782.64,
      "d": 3478.264000000003,
      "v": 100
    },
    {
      "midi": 56,
      "hit": false,
      "t": 34782.64,
      "d": 3478.264000000003,
      "v": 100
    },
    {
      "midi": 51,
      "hit": false,
      "t": 34782.64,
      "d": 3478.264000000003,
      "v": 100
    },
    {
      "midi": 68,
      "hit": false,
      "t": 34782.64,
      "d": 3478.264000000003,
      "v": 100
    },
    {
      "midi": 60,
      "hit": false,
      "t": 34782.64,
      "d": 3478.264000000003,
      "v": 100
    },
    {
      "midi": 67,
      "hit": false,
      "t": 34782.64,
      "d": 3478.264000000003,
      "v": 100
    },
    {
      "midi": 36,
      "hit": false,
      "t": 34782.64000000003,
      "d": 434.7830000000031,
      "v": 100
    },
    {
      "midi": 42,
      "hit": false,
      "t": 34891.33574999987,
      "d": 108.69574999999895,
      "v": 100
    },
    {
      "midi": 48,
      "hit": false,
      "t": 34891.3357499999,
      "d": 108.69574999999895,
      "v": 100
    },
    {
      "midi": 46,
      "hit": false,
      "t": 35000.031499999866,
      "d": 108.69574999999895,
      "v": 100
    },
    {
      "midi": 36,
      "hit": false,
      "t": 35000.03149999989,
      "d": 45.289895833331684,
      "v": 100
    },
    {
      "midi": 48,
      "hit": false,
      "t": 35000.031499999895,
      "d": 108.69574999999895,
      "v": 100
    },
    {
      "midi": 42,
      "hit": false,
      "t": 35000.03149999995,
      "d": 108.69574999999895,
      "v": 100
    },
    {
      "midi": 51,
      "hit": false,
      "t": 35108.727249999894,
      "d": 217.3914999999979,
      "v": 100
    },
    {
      "midi": 42,
      "hit": false,
      "t": 35108.727249999945,
      "d": 108.69574999999895,
      "v": 100
    },
    {
      "midi": 60,
      "hit": false,
      "t": 35108.72724999999,
      "d": 326.08724999999686,
      "v": 100
    },
    {
      "midi": 63,
      "hit": false,
      "t": 35108.72724999999,
      "d": 326.08724999999686,
      "v": 100
    },
    {
      "midi": 56,
      "hit": false,
      "t": 35108.72724999999,
      "d": 326.08724999999686,
      "v": 100
    },
    {
      "midi": 56,
      "hit": false,
      "t": 35108.72724999999,
      "d": 326.08724999999686,
      "v": 100
    },
    {
      "midi": 63,
      "hit": false,
      "t": 35108.72724999999,
      "d": 326.08724999999686,
      "v": 100
    },
    {
      "midi": 60,
      "hit": false,
      "t": 35108.72724999999,
      "d": 326.08724999999686,
      "v": 100
    },
    {
      "midi": 42,
      "hit": false,
      "t": 35217.422999999864,
      "d": 108.69574999999895,
      "v": 100
    },
    {
      "midi": 40,
      "hit": false,
      "t": 35217.422999999864,
      "d": 217.3914999999979,
      "v": 100
    },
    {
      "midi": 36,
      "hit": false,
      "t": 35217.422999999886,
      "d": 45.289895833331684,
      "v": 100
    },
    {
      "midi": 38,
      "hit": false,
      "t": 35217.422999999944,
      "d": 108.69574999999895,
      "v": 100
    },
    {
      "midi": 35,
      "hit": false,
      "t": 35217.422999999944,
      "d": 217.3914999999979,
      "v": 100
    },
    {
      "midi": 42,
      "hit": false,
      "t": 35217.422999999944,
      "d": 217.3914999999979,
      "v": 100
    },
    {
      "midi": 59,
      "hit": false,
      "t": 35217.422999999944,
      "d": 434.7829999999958,
      "v": 100
    },
    {
      "midi": 48,
      "hit": false,
      "t": 35217.42300000003,
      "d": 217.3914999999979,
      "v": 100
    },
    {
      "midi": 46,
      "hit": false,
      "t": 35326.11874999986,
      "d": 108.69574999999895,
      "v": 100
    },
    {
      "midi": 48,
      "hit": false,
      "t": 35326.118749999885,
      "d": 45.289895833331684,
      "v": 100
    },
    {
      "midi": 48,
      "hit": false,
      "t": 35326.11874999989,
      "d": 108.69574999999895,
      "v": 100
    },
    {
      "midi": 42,
      "hit": false,
      "t": 35434.81449999986,
      "d": 108.69574999999895,
      "v": 100
    },
    {
      "midi": 48,
      "hit": false,
      "t": 35434.81449999989,
      "d": 108.69574999999895,
      "v": 100
    },
    {
      "midi": 42,
      "hit": false,
      "t": 35434.81449999994,
      "d": 108.69574999999895,
      "v": 100
    },
    {
      "midi": 60,
      "hit": false,
      "t": 35434.814499999986,
      "d": 326.08724999999686,
      "v": 100
    },
    {
      "midi": 63,
      "hit": false,
      "t": 35434.814499999986,
      "d": 326.08724999999686,
      "v": 100
    },
    {
      "midi": 56,
      "hit": false,
      "t": 35434.814499999986,
      "d": 326.08724999999686,
      "v": 100
    },
    {
      "midi": 56,
      "hit": false,
      "t": 35434.814499999986,
      "d": 326.08724999999686,
      "v": 100
    },
    {
      "midi": 63,
      "hit": false,
      "t": 35434.814499999986,
      "d": 326.08724999999686,
      "v": 100
    },
    {
      "midi": 60,
      "hit": false,
      "t": 35434.814499999986,
      "d": 326.08724999999686,
      "v": 100
    },
    {
      "midi": 36,
      "hit": false,
      "t": 35434.81450000003,
      "d": 217.3914999999979,
      "v": 100
    },
    {
      "midi": 46,
      "hit": false,
      "t": 35543.51024999986,
      "d": 108.69574999999895,
      "v": 100
    },
    {
      "midi": 43,
      "hit": false,
      "t": 35543.51024999988,
      "d": 45.289895833331684,
      "v": 100
    },
    {
      "midi": 48,
      "hit": false,
      "t": 35543.51024999989,
      "d": 108.69574999999895,
      "v": 100
    },
    {
      "midi": 42,
      "hit": false,
      "t": 35543.51024999994,
      "d": 108.69574999999895,
      "v": 100
    },
    {
      "midi": 38,
      "hit": false,
      "t": 35543.51024999994,
      "d": 108.69574999999895,
      "v": 100
    },
    {
      "midi": 42,
      "hit": false,
      "t": 35652.20599999986,
      "d": 108.69574999999895,
      "v": 100
    },
    {
      "midi": 51,
      "hit": false,
      "t": 35652.20599999989,
      "d": 217.3914999999979,
      "v": 100
    },
    {
      "midi": 42,
      "hit": false,
      "t": 35652.20599999994,
      "d": 217.3914999999979,
      "v": 100
    },
    {
      "midi": 35,
      "hit": false,
      "t": 35652.20599999994,
      "d": 217.3914999999979,
      "v": 100
    },
    {
      "midi": 59,
      "hit": false,
      "t": 35652.20599999994,
      "d": 434.7829999999958,
      "v": 100
    },
    {
      "midi": 36,
      "hit": false,
      "t": 35652.20600000003,
      "d": 108.69574999999895,
      "v": 100
    },
    {
      "midi": 42,
      "hit": false,
      "t": 35760.90174999986,
      "d": 108.69574999999895,
      "v": 100
    },
    {
      "midi": 41,
      "hit": false,
      "t": 35760.90174999988,
      "d": 45.289895833331684,
      "v": 100
    },
    {
      "midi": 60,
      "hit": false,
      "t": 35760.90174999998,
      "d": 326.08724999999686,
      "v": 100
    },
    {
      "midi": 63,
      "hit": false,
      "t": 35760.90174999998,
      "d": 326.08724999999686,
      "v": 100
    },
    {
      "midi": 56,
      "hit": false,
      "t": 35760.90174999998,
      "d": 326.08724999999686,
      "v": 100
    },
    {
      "midi": 56,
      "hit": false,
      "t": 35760.90174999998,
      "d": 326.08724999999686,
      "v": 100
    },
    {
      "midi": 63,
      "hit": false,
      "t": 35760.90174999998,
      "d": 326.08724999999686,
      "v": 100
    },
    {
      "midi": 60,
      "hit": false,
      "t": 35760.90174999998,
      "d": 326.08724999999686,
      "v": 100
    },
    {
      "midi": 36,
      "hit": false,
      "t": 35760.90175000003,
      "d": 108.69574999999895,
      "v": 100
    },
    {
      "midi": 46,
      "hit": false,
      "t": 35869.59749999986,
      "d": 108.69574999999895,
      "v": 100
    },
    {
      "midi": 41,
      "hit": false,
      "t": 35869.59749999988,
      "d": 86.05080208333675,
      "v": 100
    },
    {
      "midi": 48,
      "hit": false,
      "t": 35869.59749999989,
      "d": 108.69574999999895,
      "v": 100
    },
    {
      "midi": 46,
      "hit": false,
      "t": 35869.59749999994,
      "d": 108.69574999999895,
      "v": 100
    },
    {
      "midi": 36,
      "hit": false,
      "t": 35869.597500000025,
      "d": 217.3914999999979,
      "v": 100
    },
    {
      "midi": 48,
      "hit": false,
      "t": 35978.293249999886,
      "d": 108.69574999999895,
      "v": 100
    },
    {
      "midi": 40,
      "hit": false,
      "t": 36086.988999999856,
      "d": 217.3914999999979,
      "v": 100
    },
    {
      "midi": 43,
      "hit": false,
      "t": 36086.988999999885,
      "d": 45.289895833331684,
      "v": 100
    },
    {
      "midi": 53,
      "hit": false,
      "t": 36086.988999999885,
      "d": 108.69574999999895,
      "v": 100
    },
    {
      "midi": 40,
      "hit": false,
      "t": 36086.988999999936,
      "d": 217.3914999999979,
      "v": 100
    },
    {
      "midi": 35,
      "hit": false,
      "t": 36086.988999999936,
      "d": 217.3914999999979,
      "v": 100
    },
    {
      "midi": 59,
      "hit": false,
      "t": 36086.988999999936,
      "d": 434.7829999999958,
      "v": 100
    },
    {
      "midi": 48,
      "hit": false,
      "t": 36086.98900000002,
      "d": 217.3914999999979,
      "v": 100
    },
    {
      "midi": 42,
      "hit": false,
      "t": 36195.684749999855,
      "d": 108.69574999999895,
      "v": 100
    },
    {
      "midi": 45,
      "hit": false,
      "t": 36195.684749999884,
      "d": 45.289895833331684,
      "v": 100
    },
    {
      "midi": 48,
      "hit": false,
      "t": 36195.684749999884,
      "d": 108.69574999999895,
      "v": 100
    },
    {
      "midi": 63,
      "hit": false,
      "t": 36195.68474999998,
      "d": 108.69574999999895,
      "v": 100
    },
    {
      "midi": 60,
      "hit": false,
      "t": 36195.68474999998,
      "d": 108.69574999999895,
      "v": 100
    },
    {
      "midi": 56,
      "hit": false,
      "t": 36195.68474999998,
      "d": 108.69574999999895,
      "v": 100
    },
    {
      "midi": 56,
      "hit": false,
      "t": 36195.68474999998,
      "d": 108.69574999999895,
      "v": 100
    },
    {
      "midi": 60,
      "hit": false,
      "t": 36195.68474999998,
      "d": 108.69574999999895,
      "v": 100
    },
    {
      "midi": 63,
      "hit": false,
      "t": 36195.68474999998,
      "d": 108.69574999999895,
      "v": 100
    },
    {
      "midi": 46,
      "hit": false,
      "t": 36304.380499999854,
      "d": 108.69574999999895,
      "v": 100
    },
    {
      "midi": 46,
      "hit": false,
      "t": 36304.38049999988,
      "d": 45.289895833331684,
      "v": 100
    },
    {
      "midi": 55,
      "hit": false,
      "t": 36304.38049999988,
      "d": 108.69574999999895,
      "v": 100
    },
    {
      "midi": 35,
      "hit": false,
      "t": 36304.380499999934,
      "d": 108.69574999999895,
      "v": 100
    },
    {
      "midi": 49,
      "hit": false,
      "t": 36304.380499999934,
      "d": 217.3914999999979,
      "v": 100
    },
    {
      "midi": 36,
      "hit": false,
      "t": 36304.38050000002,
      "d": 217.3914999999979,
      "v": 100
    },
    {
      "midi": 50,
      "hit": false,
      "t": 36413.07624999988,
      "d": 45.289895833331684,
      "v": 100
    },
    {
      "midi": 48,
      "hit": false,
      "t": 36413.07624999988,
      "d": 108.69574999999895,
      "v": 100
    },
    {
      "midi": 42,
      "hit": false,
      "t": 36521.77199999985,
      "d": 108.69574999999895,
      "v": 100
    },
    {
      "midi": 36,
      "hit": false,
      "t": 36521.77199999988,
      "d": 45.289895833331684,
      "v": 100
    },
    {
      "midi": 48,
      "hit": false,
      "t": 36521.77199999988,
      "d": 108.69574999999895,
      "v": 100
    },
    {
      "midi": 42,
      "hit": false,
      "t": 36521.77199999993,
      "d": 217.3914999999979,
      "v": 100
    },
    {
      "midi": 35,
      "hit": false,
      "t": 36521.77199999993,
      "d": 217.3914999999979,
      "v": 100
    },
    {
      "midi": 59,
      "hit": false,
      "t": 36521.77199999993,
      "d": 434.7829999999958,
      "v": 100
    },
    {
      "midi": 36,
      "hit": false,
      "t": 36521.77200000002,
      "d": 434.7830000000031,
      "v": 100
    },
    {
      "midi": 42,
      "hit": false,
      "t": 36630.46774999985,
      "d": 108.69574999999895,
      "v": 100
    },
    {
      "midi": 36,
      "hit": false,
      "t": 36630.46774999988,
      "d": 45.289895833331684,
      "v": 100
    },
    {
      "midi": 48,
      "hit": false,
      "t": 36630.46774999988,
      "d": 108.69574999999895,
      "v": 100
    },
    {
      "midi": 46,
      "hit": false,
      "t": 36739.16349999985,
      "d": 108.69574999999895,
      "v": 100
    },
    {
      "midi": 36,
      "hit": false,
      "t": 36739.16349999988,
      "d": 86.05080208333675,
      "v": 100
    },
    {
      "midi": 48,
      "hit": false,
      "t": 36739.16349999988,
      "d": 108.69574999999895,
      "v": 100
    },
    {
      "midi": 42,
      "hit": false,
      "t": 36739.16349999993,
      "d": 108.69574999999895,
      "v": 100
    },
    {
      "midi": 51,
      "hit": false,
      "t": 36847.85924999988,
      "d": 217.3914999999979,
      "v": 100
    },
    {
      "midi": 42,
      "hit": false,
      "t": 36847.85924999993,
      "d": 108.69574999999895,
      "v": 100
    },
    {
      "midi": 56,
      "hit": false,
      "t": 36847.85924999998,
      "d": 326.08724999999686,
      "v": 100
    },
    {
      "midi": 63,
      "hit": false,
      "t": 36847.85924999998,
      "d": 326.08724999999686,
      "v": 100
    },
    {
      "midi": 60,
      "hit": false,
      "t": 36847.85924999998,
      "d": 326.08724999999686,
      "v": 100
    },
    {
      "midi": 60,
      "hit": false,
      "t": 36847.85924999998,
      "d": 326.08724999999686,
      "v": 100
    },
    {
      "midi": 63,
      "hit": false,
      "t": 36847.85924999998,
      "d": 326.08724999999686,
      "v": 100
    },
    {
      "midi": 56,
      "hit": false,
      "t": 36847.85924999998,
      "d": 326.08724999999686,
      "v": 100
    },
    {
      "midi": 42,
      "hit": false,
      "t": 36956.55499999985,
      "d": 108.69574999999895,
      "v": 100
    },
    {
      "midi": 40,
      "hit": false,
      "t": 36956.55499999985,
      "d": 217.3914999999979,
      "v": 100
    },
    {
      "midi": 36,
      "hit": false,
      "t": 36956.554999999884,
      "d": 45.289895833331684,
      "v": 100
    },
    {
      "midi": 38,
      "hit": false,
      "t": 36956.55499999993,
      "d": 108.69574999999895,
      "v": 100
    },
    {
      "midi": 35,
      "hit": false,
      "t": 36956.55499999993,
      "d": 217.3914999999979,
      "v": 100
    },
    {
      "midi": 42,
      "hit": false,
      "t": 36956.55499999993,
      "d": 217.3914999999979,
      "v": 100
    },
    {
      "midi": 59,
      "hit": false,
      "t": 36956.55499999993,
      "d": 434.7829999999958,
      "v": 100
    },
    {
      "midi": 48,
      "hit": false,
      "t": 36956.55500000002,
      "d": 217.3914999999979,
      "v": 100
    },
    {
      "midi": 46,
      "hit": false,
      "t": 37065.25074999985,
      "d": 108.69574999999895,
      "v": 100
    },
    {
      "midi": 48,
      "hit": false,
      "t": 37065.250749999876,
      "d": 108.69574999999895,
      "v": 100
    },
    {
      "midi": 48,
      "hit": false,
      "t": 37065.25074999988,
      "d": 45.289895833331684,
      "v": 100
    },
    {
      "midi": 42,
      "hit": false,
      "t": 37173.946499999845,
      "d": 108.69574999999895,
      "v": 100
    },
    {
      "midi": 48,
      "hit": false,
      "t": 37173.946499999875,
      "d": 108.69574999999895,
      "v": 100
    },
    {
      "midi": 42,
      "hit": false,
      "t": 37173.946499999925,
      "d": 108.69574999999895,
      "v": 100
    },
    {
      "midi": 56,
      "hit": false,
      "t": 37173.94649999998,
      "d": 326.08724999999686,
      "v": 100
    },
    {
      "midi": 63,
      "hit": false,
      "t": 37173.94649999998,
      "d": 326.08724999999686,
      "v": 100
    },
    {
      "midi": 60,
      "hit": false,
      "t": 37173.94649999998,
      "d": 326.08724999999686,
      "v": 100
    },
    {
      "midi": 60,
      "hit": false,
      "t": 37173.94649999998,
      "d": 326.08724999999686,
      "v": 100
    },
    {
      "midi": 63,
      "hit": false,
      "t": 37173.94649999998,
      "d": 326.08724999999686,
      "v": 100
    },
    {
      "midi": 56,
      "hit": false,
      "t": 37173.94649999998,
      "d": 326.08724999999686,
      "v": 100
    },
    {
      "midi": 36,
      "hit": false,
      "t": 37173.94650000002,
      "d": 217.3914999999979,
      "v": 100
    },
    {
      "midi": 46,
      "hit": false,
      "t": 37282.642249999844,
      "d": 108.69574999999895,
      "v": 100
    },
    {
      "midi": 48,
      "hit": false,
      "t": 37282.64224999987,
      "d": 108.69574999999895,
      "v": 100
    },
    {
      "midi": 43,
      "hit": false,
      "t": 37282.64224999988,
      "d": 45.289895833331684,
      "v": 100
    },
    {
      "midi": 42,
      "hit": false,
      "t": 37282.642249999924,
      "d": 108.69574999999895,
      "v": 100
    },
    {
      "midi": 38,
      "hit": false,
      "t": 37282.642249999924,
      "d": 108.69574999999895,
      "v": 100
    },
    {
      "midi": 42,
      "hit": false,
      "t": 37391.33799999984,
      "d": 108.69574999999895,
      "v": 100
    },
    {
      "midi": 51,
      "hit": false,
      "t": 37391.33799999987,
      "d": 217.3914999999979,
      "v": 100
    },
    {
      "midi": 42,
      "hit": false,
      "t": 37391.33799999992,
      "d": 217.3914999999979,
      "v": 100
    },
    {
      "midi": 35,
      "hit": false,
      "t": 37391.33799999992,
      "d": 217.3914999999979,
      "v": 100
    },
    {
      "midi": 59,
      "hit": false,
      "t": 37391.33799999992,
      "d": 434.7829999999958,
      "v": 100
    },
    {
      "midi": 36,
      "hit": false,
      "t": 37391.33800000002,
      "d": 108.69574999999895,
      "v": 100
    },
    {
      "midi": 42,
      "hit": false,
      "t": 37500.03374999984,
      "d": 108.69574999999895,
      "v": 100
    },
    {
      "midi": 41,
      "hit": false,
      "t": 37500.03374999988,
      "d": 45.289895833331684,
      "v": 100
    },
    {
      "midi": 56,
      "hit": false,
      "t": 37500.03374999997,
      "d": 326.08724999999686,
      "v": 100
    },
    {
      "midi": 63,
      "hit": false,
      "t": 37500.03374999997,
      "d": 326.08724999999686,
      "v": 100
    },
    {
      "midi": 60,
      "hit": false,
      "t": 37500.03374999997,
      "d": 326.08724999999686,
      "v": 100
    },
    {
      "midi": 60,
      "hit": false,
      "t": 37500.03374999997,
      "d": 326.08724999999686,
      "v": 100
    },
    {
      "midi": 63,
      "hit": false,
      "t": 37500.03374999997,
      "d": 326.08724999999686,
      "v": 100
    },
    {
      "midi": 56,
      "hit": false,
      "t": 37500.03374999997,
      "d": 326.08724999999686,
      "v": 100
    },
    {
      "midi": 36,
      "hit": false,
      "t": 37500.03375000002,
      "d": 108.69574999999895,
      "v": 100
    },
    {
      "midi": 46,
      "hit": false,
      "t": 37608.72949999984,
      "d": 108.69574999999895,
      "v": 100
    },
    {
      "midi": 48,
      "hit": false,
      "t": 37608.72949999987,
      "d": 108.69574999999895,
      "v": 100
    },
    {
      "midi": 41,
      "hit": false,
      "t": 37608.72949999988,
      "d": 86.05080208333675,
      "v": 100
    },
    {
      "midi": 46,
      "hit": false,
      "t": 37608.72949999992,
      "d": 217.3914999999979,
      "v": 100
    },
    {
      "midi": 36,
      "hit": false,
      "t": 37608.729500000016,
      "d": 217.3914999999979,
      "v": 100
    },
    {
      "midi": 48,
      "hit": false,
      "t": 37717.42524999987,
      "d": 108.69574999999895,
      "v": 100
    },
    {
      "midi": 40,
      "hit": false,
      "t": 37826.12099999984,
      "d": 217.3914999999979,
      "v": 100
    },
    {
      "midi": 53,
      "hit": false,
      "t": 37826.12099999987,
      "d": 108.69574999999895,
      "v": 100
    },
    {
      "midi": 43,
      "hit": false,
      "t": 37826.12099999988,
      "d": 45.289895833331684,
      "v": 100
    },
    {
      "midi": 38,
      "hit": false,
      "t": 37826.12099999992,
      "d": 217.3914999999979,
      "v": 100
    },
    {
      "midi": 35,
      "hit": false,
      "t": 37826.12099999992,
      "d": 217.3914999999979,
      "v": 100
    },
    {
      "midi": 59,
      "hit": false,
      "t": 37826.12099999992,
      "d": 434.7829999999958,
      "v": 100
    },
    {
      "midi": 48,
      "hit": false,
      "t": 37826.121000000014,
      "d": 217.3914999999979,
      "v": 100
    },
    {
      "midi": 42,
      "hit": false,
      "t": 37934.81674999984,
      "d": 108.69574999999895,
      "v": 100
    },
    {
      "midi": 48,
      "hit": false,
      "t": 37934.81674999987,
      "d": 108.69574999999895,
      "v": 100
    },
    {
      "midi": 45,
      "hit": false,
      "t": 37934.81674999988,
      "d": 45.289895833331684,
      "v": 100
    },
    {
      "midi": 56,
      "hit": false,
      "t": 37934.81674999997,
      "d": 108.69574999999895,
      "v": 100
    },
    {
      "midi": 60,
      "hit": false,
      "t": 37934.81674999997,
      "d": 108.69574999999895,
      "v": 100
    },
    {
      "midi": 63,
      "hit": false,
      "t": 37934.81674999997,
      "d": 108.69574999999895,
      "v": 100
    },
    {
      "midi": 63,
      "hit": false,
      "t": 37934.81674999997,
      "d": 108.69574999999895,
      "v": 100
    },
    {
      "midi": 60,
      "hit": false,
      "t": 37934.81674999997,
      "d": 108.69574999999895,
      "v": 100
    },
    {
      "midi": 56,
      "hit": false,
      "t": 37934.81674999997,
      "d": 108.69574999999895,
      "v": 100
    },
    {
      "midi": 46,
      "hit": false,
      "t": 38043.51249999984,
      "d": 108.69574999999895,
      "v": 100
    },
    {
      "midi": 55,
      "hit": false,
      "t": 38043.512499999866,
      "d": 108.69574999999895,
      "v": 100
    },
    {
      "midi": 46,
      "hit": false,
      "t": 38043.51249999988,
      "d": 45.289895833331684,
      "v": 100
    },
    {
      "midi": 38,
      "hit": false,
      "t": 38043.51249999992,
      "d": 108.69574999999895,
      "v": 100
    },
    {
      "midi": 49,
      "hit": false,
      "t": 38043.51249999992,
      "d": 217.3914999999979,
      "v": 100
    },
    {
      "midi": 36,
      "hit": false,
      "t": 38043.51250000001,
      "d": 217.3914999999979,
      "v": 100
    },
    {
      "midi": 48,
      "hit": false,
      "t": 38152.208249999865,
      "d": 108.69574999999895,
      "v": 100
    },
    {
      "midi": 50,
      "hit": false,
      "t": 38152.20824999988,
      "d": 45.289895833331684,
      "v": 100
    },
    {
      "midi": 38,
      "hit": false,
      "t": 38152.208249999916,
      "d": 108.69574999999895,
      "v": 100
    },
    {
      "midi": 42,
      "hit": false,
      "t": 38260.903999999835,
      "d": 108.69574999999895,
      "v": 100
    },
    {
      "midi": 49,
      "hit": false,
      "t": 38260.903999999835,
      "d": 217.3914999999979,
      "v": 100
    },
    {
      "midi": 48,
      "hit": false,
      "t": 38260.903999999864,
      "d": 108.69574999999895,
      "v": 100
    },
    {
      "midi": 36,
      "hit": false,
      "t": 38260.90399999988,
      "d": 45.289895833331684,
      "v": 100
    },
    {
      "midi": 35,
      "hit": false,
      "t": 38260.903999999915,
      "d": 217.3914999999979,
      "v": 100
    },
    {
      "midi": 42,
      "hit": false,
      "t": 38260.903999999915,
      "d": 217.3914999999979,
      "v": 100
    },
    {
      "midi": 59,
      "hit": false,
      "t": 38260.903999999915,
      "d": 434.7829999999958,
      "v": 100
    },
    {
      "midi": 56,
      "hit": false,
      "t": 38260.903999999966,
      "d": 326.08724999999686,
      "v": 100
    },
    {
      "midi": 60,
      "hit": false,
      "t": 38260.903999999966,
      "d": 326.08724999999686,
      "v": 100
    },
    {
      "midi": 63,
      "hit": false,
      "t": 38260.903999999966,
      "d": 326.08724999999686,
      "v": 100
    },
    {
      "midi": 63,
      "hit": false,
      "t": 38260.903999999966,
      "d": 326.08724999999686,
      "v": 100
    },
    {
      "midi": 60,
      "hit": false,
      "t": 38260.903999999966,
      "d": 326.08724999999686,
      "v": 100
    },
    {
      "midi": 56,
      "hit": false,
      "t": 38260.903999999966,
      "d": 326.08724999999686,
      "v": 100
    },
    {
      "midi": 58,
      "hit": false,
      "t": 38260.904,
      "d": 502.717843749997,
      "v": 100
    },
    {
      "midi": 63,
      "hit": false,
      "t": 38260.904,
      "d": 502.717843749997,
      "v": 100
    },
    {
      "midi": 70,
      "hit": false,
      "t": 38260.904,
      "d": 3478.2639999999956,
      "v": 100
    },
    {
      "midi": 53,
      "hit": false,
      "t": 38260.904,
      "d": 3478.2639999999956,
      "v": 100
    },
    {
      "midi": 51,
      "hit": false,
      "t": 38260.904,
      "d": 3478.2639999999956,
      "v": 100
    },
    {
      "midi": 63,
      "hit": false,
      "t": 38260.904,
      "d": 502.717843749997,
      "v": 100
    },
    {
      "midi": 58,
      "hit": false,
      "t": 38260.904,
      "d": 502.717843749997,
      "v": 100
    },
    {
      "midi": 70,
      "hit": false,
      "t": 38260.904,
      "d": 3478.2639999999956,
      "v": 100
    },
    {
      "midi": 51,
      "hit": false,
      "t": 38260.904,
      "d": 3478.2639999999956,
      "v": 100
    },
    {
      "midi": 53,
      "hit": false,
      "t": 38260.904,
      "d": 3478.2639999999956,
      "v": 100
    },
    {
      "midi": 63,
      "hit": false,
      "t": 38260.904,
      "d": 3478.264000000003,
      "v": 100
    },
    {
      "midi": 68,
      "hit": false,
      "t": 38260.904,
      "d": 3478.264000000003,
      "v": 100
    },
    {
      "midi": 36,
      "hit": false,
      "t": 38260.90400000001,
      "d": 434.7830000000031,
      "v": 100
    },
    {
      "midi": 42,
      "hit": false,
      "t": 38369.599749999834,
      "d": 108.69574999999895,
      "v": 100
    },
    {
      "midi": 48,
      "hit": false,
      "t": 38369.59974999986,
      "d": 108.69574999999895,
      "v": 100
    },
    {
      "midi": 46,
      "hit": false,
      "t": 38478.29549999983,
      "d": 108.69574999999895,
      "v": 100
    },
    {
      "midi": 48,
      "hit": false,
      "t": 38478.29549999986,
      "d": 108.69574999999895,
      "v": 100
    },
    {
      "midi": 36,
      "hit": false,
      "t": 38478.29549999988,
      "d": 45.289895833331684,
      "v": 100
    },
    {
      "midi": 42,
      "hit": false,
      "t": 38478.29549999991,
      "d": 108.69574999999895,
      "v": 100
    },
    {
      "midi": 51,
      "hit": false,
      "t": 38586.99124999986,
      "d": 217.3914999999979,
      "v": 100
    },
    {
      "midi": 42,
      "hit": false,
      "t": 38586.99124999991,
      "d": 108.69574999999895,
      "v": 100
    },
    {
      "midi": 56,
      "hit": false,
      "t": 38586.99124999996,
      "d": 326.08724999999686,
      "v": 100
    },
    {
      "midi": 63,
      "hit": false,
      "t": 38586.99124999996,
      "d": 326.08724999999686,
      "v": 100
    },
    {
      "midi": 60,
      "hit": false,
      "t": 38586.99124999996,
      "d": 326.08724999999686,
      "v": 100
    },
    {
      "midi": 60,
      "hit": false,
      "t": 38586.99124999996,
      "d": 326.08724999999686,
      "v": 100
    },
    {
      "midi": 63,
      "hit": false,
      "t": 38586.99124999996,
      "d": 326.08724999999686,
      "v": 100
    },
    {
      "midi": 56,
      "hit": false,
      "t": 38586.99124999996,
      "d": 326.08724999999686,
      "v": 100
    },
    {
      "midi": 42,
      "hit": false,
      "t": 38695.68699999983,
      "d": 108.69574999999895,
      "v": 100
    },
    {
      "midi": 40,
      "hit": false,
      "t": 38695.68699999983,
      "d": 217.3914999999979,
      "v": 100
    },
    {
      "midi": 36,
      "hit": false,
      "t": 38695.686999999874,
      "d": 45.289895833331684,
      "v": 100
    },
    {
      "midi": 38,
      "hit": false,
      "t": 38695.68699999991,
      "d": 108.69574999999895,
      "v": 100
    },
    {
      "midi": 42,
      "hit": false,
      "t": 38695.68699999991,
      "d": 217.3914999999979,
      "v": 100
    },
    {
      "midi": 35,
      "hit": false,
      "t": 38695.68699999991,
      "d": 217.3914999999979,
      "v": 100
    },
    {
      "midi": 59,
      "hit": false,
      "t": 38695.68699999991,
      "d": 434.7829999999958,
      "v": 100
    },
    {
      "midi": 48,
      "hit": false,
      "t": 38695.68700000001,
      "d": 217.3914999999979,
      "v": 100
    },
    {
      "midi": 46,
      "hit": false,
      "t": 38804.38274999983,
      "d": 108.69574999999895,
      "v": 100
    },
    {
      "midi": 48,
      "hit": false,
      "t": 38804.38274999986,
      "d": 108.69574999999895,
      "v": 100
    },
    {
      "midi": 48,
      "hit": false,
      "t": 38804.38274999987,
      "d": 45.289895833331684,
      "v": 100
    },
    {
      "midi": 42,
      "hit": false,
      "t": 38913.07849999983,
      "d": 108.69574999999895,
      "v": 100
    },
    {
      "midi": 48,
      "hit": false,
      "t": 38913.07849999986,
      "d": 108.69574999999895,
      "v": 100
    },
    {
      "midi": 42,
      "hit": false,
      "t": 38913.07849999991,
      "d": 108.69574999999895,
      "v": 100
    },
    {
      "midi": 56,
      "hit": false,
      "t": 38913.07849999996,
      "d": 326.08724999999686,
      "v": 100
    },
    {
      "midi": 63,
      "hit": false,
      "t": 38913.07849999996,
      "d": 326.08724999999686,
      "v": 100
    },
    {
      "midi": 60,
      "hit": false,
      "t": 38913.07849999996,
      "d": 326.08724999999686,
      "v": 100
    },
    {
      "midi": 60,
      "hit": false,
      "t": 38913.07849999996,
      "d": 326.08724999999686,
      "v": 100
    },
    {
      "midi": 63,
      "hit": false,
      "t": 38913.07849999996,
      "d": 326.08724999999686,
      "v": 100
    },
    {
      "midi": 56,
      "hit": false,
      "t": 38913.07849999996,
      "d": 326.08724999999686,
      "v": 100
    },
    {
      "midi": 36,
      "hit": false,
      "t": 38913.07850000001,
      "d": 217.3914999999979,
      "v": 100
    },
    {
      "midi": 46,
      "hit": false,
      "t": 39021.77424999983,
      "d": 108.69574999999895,
      "v": 100
    },
    {
      "midi": 48,
      "hit": false,
      "t": 39021.77424999986,
      "d": 108.69574999999895,
      "v": 100
    },
    {
      "midi": 43,
      "hit": false,
      "t": 39021.77424999987,
      "d": 45.289895833331684,
      "v": 100
    },
    {
      "midi": 38,
      "hit": false,
      "t": 39021.77424999991,
      "d": 108.69574999999895,
      "v": 100
    },
    {
      "midi": 42,
      "hit": false,
      "t": 39021.77424999991,
      "d": 108.69574999999895,
      "v": 100
    },
    {
      "midi": 42,
      "hit": false,
      "t": 39130.46999999983,
      "d": 108.69574999999895,
      "v": 100
    },
    {
      "midi": 51,
      "hit": false,
      "t": 39130.469999999856,
      "d": 217.3914999999979,
      "v": 100
    },
    {
      "midi": 35,
      "hit": false,
      "t": 39130.46999999991,
      "d": 217.3914999999979,
      "v": 100
    },
    {
      "midi": 42,
      "hit": false,
      "t": 39130.46999999991,
      "d": 217.3914999999979,
      "v": 100
    },
    {
      "midi": 59,
      "hit": false,
      "t": 39130.46999999991,
      "d": 434.7829999999958,
      "v": 100
    },
    {
      "midi": 36,
      "hit": false,
      "t": 39130.47000000001,
      "d": 108.69574999999895,
      "v": 100
    },
    {
      "midi": 42,
      "hit": false,
      "t": 39239.165749999825,
      "d": 108.69574999999895,
      "v": 100
    },
    {
      "midi": 41,
      "hit": false,
      "t": 39239.16574999987,
      "d": 45.289895833331684,
      "v": 100
    },
    {
      "midi": 56,
      "hit": false,
      "t": 39239.16574999996,
      "d": 326.08724999999686,
      "v": 100
    },
    {
      "midi": 63,
      "hit": false,
      "t": 39239.16574999996,
      "d": 326.08724999999686,
      "v": 100
    },
    {
      "midi": 60,
      "hit": false,
      "t": 39239.16574999996,
      "d": 326.08724999999686,
      "v": 100
    },
    {
      "midi": 60,
      "hit": false,
      "t": 39239.16574999996,
      "d": 326.08724999999686,
      "v": 100
    },
    {
      "midi": 63,
      "hit": false,
      "t": 39239.16574999996,
      "d": 326.08724999999686,
      "v": 100
    },
    {
      "midi": 56,
      "hit": false,
      "t": 39239.16574999996,
      "d": 326.08724999999686,
      "v": 100
    },
    {
      "midi": 36,
      "hit": false,
      "t": 39239.16575000001,
      "d": 108.69574999999895,
      "v": 100
    },
    {
      "midi": 46,
      "hit": false,
      "t": 39347.861499999824,
      "d": 108.69574999999895,
      "v": 100
    },
    {
      "midi": 48,
      "hit": false,
      "t": 39347.86149999985,
      "d": 108.69574999999895,
      "v": 100
    },
    {
      "midi": 41,
      "hit": false,
      "t": 39347.86149999987,
      "d": 86.05080208333675,
      "v": 100
    },
    {
      "midi": 46,
      "hit": false,
      "t": 39347.861499999904,
      "d": 108.69574999999895,
      "v": 100
    },
    {
      "midi": 36,
      "hit": false,
      "t": 39347.861500000006,
      "d": 217.3914999999979,
      "v": 100
    },
    {
      "midi": 48,
      "hit": false,
      "t": 39456.55724999985,
      "d": 108.69574999999895,
      "v": 100
    },
    {
      "midi": 40,
      "hit": false,
      "t": 39565.25299999982,
      "d": 217.3914999999979,
      "v": 100
    },
    {
      "midi": 53,
      "hit": false,
      "t": 39565.25299999985,
      "d": 108.69574999999895,
      "v": 100
    },
    {
      "midi": 43,
      "hit": false,
      "t": 39565.25299999987,
      "d": 45.289895833331684,
      "v": 100
    },
    {
      "midi": 35,
      "hit": false,
      "t": 39565.2529999999,
      "d": 217.3914999999979,
      "v": 100
    },
    {
      "midi": 40,
      "hit": false,
      "t": 39565.2529999999,
      "d": 217.3914999999979,
      "v": 100
    },
    {
      "midi": 59,
      "hit": false,
      "t": 39565.2529999999,
      "d": 434.7829999999958,
      "v": 100
    },
    {
      "midi": 48,
      "hit": false,
      "t": 39565.253000000004,
      "d": 217.3914999999979,
      "v": 100
    },
    {
      "midi": 42,
      "hit": false,
      "t": 39673.94874999982,
      "d": 108.69574999999895,
      "v": 100
    },
    {
      "midi": 48,
      "hit": false,
      "t": 39673.94874999985,
      "d": 108.69574999999895,
      "v": 100
    },
    {
      "midi": 45,
      "hit": false,
      "t": 39673.94874999987,
      "d": 45.289895833331684,
      "v": 100
    },
    {
      "midi": 56,
      "hit": false,
      "t": 39673.94874999995,
      "d": 108.69574999999895,
      "v": 100
    },
    {
      "midi": 60,
      "hit": false,
      "t": 39673.94874999995,
      "d": 108.69574999999895,
      "v": 100
    },
    {
      "midi": 63,
      "hit": false,
      "t": 39673.94874999995,
      "d": 108.69574999999895,
      "v": 100
    },
    {
      "midi": 63,
      "hit": false,
      "t": 39673.94874999995,
      "d": 108.69574999999895,
      "v": 100
    },
    {
      "midi": 60,
      "hit": false,
      "t": 39673.94874999995,
      "d": 108.69574999999895,
      "v": 100
    },
    {
      "midi": 56,
      "hit": false,
      "t": 39673.94874999995,
      "d": 108.69574999999895,
      "v": 100
    },
    {
      "midi": 46,
      "hit": false,
      "t": 39782.64449999982,
      "d": 108.69574999999895,
      "v": 100
    },
    {
      "midi": 55,
      "hit": false,
      "t": 39782.64449999985,
      "d": 108.69574999999895,
      "v": 100
    },
    {
      "midi": 46,
      "hit": false,
      "t": 39782.64449999987,
      "d": 45.289895833331684,
      "v": 100
    },
    {
      "midi": 35,
      "hit": false,
      "t": 39782.6444999999,
      "d": 108.69574999999895,
      "v": 100
    },
    {
      "midi": 49,
      "hit": false,
      "t": 39782.6444999999,
      "d": 217.3914999999979,
      "v": 100
    },
    {
      "midi": 36,
      "hit": false,
      "t": 39782.6445,
      "d": 217.3914999999979,
      "v": 100
    },
    {
      "midi": 48,
      "hit": false,
      "t": 39891.34024999985,
      "d": 108.69574999999895,
      "v": 100
    },
    {
      "midi": 50,
      "hit": false,
      "t": 39891.34024999987,
      "d": 45.289895833331684,
      "v": 100
    },
    {
      "midi": 42,
      "hit": false,
      "t": 40000.03599999982,
      "d": 108.69574999999895,
      "v": 100
    },
    {
      "midi": 48,
      "hit": false,
      "t": 40000.03599999985,
      "d": 108.69574999999895,
      "v": 100
    },
    {
      "midi": 36,
      "hit": false,
      "t": 40000.03599999987,
      "d": 45.289895833331684,
      "v": 100
    },
    {
      "midi": 35,
      "hit": false,
      "t": 40000.0359999999,
      "d": 217.3914999999979,
      "v": 100
    },
    {
      "midi": 42,
      "hit": false,
      "t": 40000.0359999999,
      "d": 217.3914999999979,
      "v": 100
    },
    {
      "midi": 59,
      "hit": false,
      "t": 40000.0359999999,
      "d": 434.7829999999958,
      "v": 100
    },
    {
      "midi": 36,
      "hit": false,
      "t": 40000.036,
      "d": 434.7830000000031,
      "v": 100
    },
    {
      "midi": 42,
      "hit": false,
      "t": 40108.73174999982,
      "d": 108.69574999999895,
      "v": 100
    },
    {
      "midi": 48,
      "hit": false,
      "t": 40108.731749999846,
      "d": 108.69574999999895,
      "v": 100
    },
    {
      "midi": 36,
      "hit": false,
      "t": 40108.73174999987,
      "d": 45.289895833331684,
      "v": 100
    },
    {
      "midi": 46,
      "hit": false,
      "t": 40217.427499999816,
      "d": 108.69574999999895,
      "v": 100
    },
    {
      "midi": 48,
      "hit": false,
      "t": 40217.427499999845,
      "d": 108.69574999999895,
      "v": 100
    },
    {
      "midi": 36,
      "hit": false,
      "t": 40217.42749999987,
      "d": 86.05080208333675,
      "v": 100
    },
    {
      "midi": 42,
      "hit": false,
      "t": 40217.427499999896,
      "d": 108.69574999999895,
      "v": 100
    },
    {
      "midi": 51,
      "hit": false,
      "t": 40326.123249999844,
      "d": 217.3914999999979,
      "v": 100
    },
    {
      "midi": 42,
      "hit": false,
      "t": 40326.123249999895,
      "d": 108.69574999999895,
      "v": 100
    },
    {
      "midi": 60,
      "hit": false,
      "t": 40326.12324999995,
      "d": 326.08724999999686,
      "v": 100
    },
    {
      "midi": 63,
      "hit": false,
      "t": 40326.12324999995,
      "d": 326.08724999999686,
      "v": 100
    },
    {
      "midi": 56,
      "hit": false,
      "t": 40326.12324999995,
      "d": 326.08724999999686,
      "v": 100
    },
    {
      "midi": 56,
      "hit": false,
      "t": 40326.12324999995,
      "d": 326.08724999999686,
      "v": 100
    },
    {
      "midi": 63,
      "hit": false,
      "t": 40326.12324999995,
      "d": 326.08724999999686,
      "v": 100
    },
    {
      "midi": 60,
      "hit": false,
      "t": 40326.12324999995,
      "d": 326.08724999999686,
      "v": 100
    },
    {
      "midi": 42,
      "hit": false,
      "t": 40434.818999999814,
      "d": 108.69574999999895,
      "v": 100
    },
    {
      "midi": 40,
      "hit": false,
      "t": 40434.818999999814,
      "d": 217.3914999999979,
      "v": 100
    },
    {
      "midi": 36,
      "hit": false,
      "t": 40434.81899999987,
      "d": 45.289895833331684,
      "v": 100
    },
    {
      "midi": 38,
      "hit": false,
      "t": 40434.818999999894,
      "d": 108.69574999999895,
      "v": 100
    },
    {
      "midi": 42,
      "hit": false,
      "t": 40434.818999999894,
      "d": 217.3914999999979,
      "v": 100
    },
    {
      "midi": 35,
      "hit": false,
      "t": 40434.818999999894,
      "d": 217.3914999999979,
      "v": 100
    },
    {
      "midi": 59,
      "hit": false,
      "t": 40434.818999999894,
      "d": 434.7829999999958,
      "v": 100
    },
    {
      "midi": 48,
      "hit": false,
      "t": 40434.819,
      "d": 217.3914999999979,
      "v": 100
    },
    {
      "midi": 46,
      "hit": false,
      "t": 40543.51474999981,
      "d": 108.69574999999895,
      "v": 100
    },
    {
      "midi": 48,
      "hit": false,
      "t": 40543.51474999984,
      "d": 108.69574999999895,
      "v": 100
    },
    {
      "midi": 48,
      "hit": false,
      "t": 40543.51474999987,
      "d": 45.289895833331684,
      "v": 100
    },
    {
      "midi": 42,
      "hit": false,
      "t": 40652.21049999981,
      "d": 108.69574999999895,
      "v": 100
    },
    {
      "midi": 48,
      "hit": false,
      "t": 40652.21049999984,
      "d": 108.69574999999895,
      "v": 100
    },
    {
      "midi": 42,
      "hit": false,
      "t": 40652.21049999989,
      "d": 108.69574999999895,
      "v": 100
    },
    {
      "midi": 60,
      "hit": false,
      "t": 40652.21049999995,
      "d": 326.08724999999686,
      "v": 100
    },
    {
      "midi": 63,
      "hit": false,
      "t": 40652.21049999995,
      "d": 326.08724999999686,
      "v": 100
    },
    {
      "midi": 56,
      "hit": false,
      "t": 40652.21049999995,
      "d": 326.08724999999686,
      "v": 100
    },
    {
      "midi": 56,
      "hit": false,
      "t": 40652.21049999995,
      "d": 326.08724999999686,
      "v": 100
    },
    {
      "midi": 63,
      "hit": false,
      "t": 40652.21049999995,
      "d": 326.08724999999686,
      "v": 100
    },
    {
      "midi": 60,
      "hit": false,
      "t": 40652.21049999995,
      "d": 326.08724999999686,
      "v": 100
    },
    {
      "midi": 36,
      "hit": false,
      "t": 40652.2105,
      "d": 217.3914999999979,
      "v": 100
    },
    {
      "midi": 46,
      "hit": false,
      "t": 40760.90624999981,
      "d": 108.69574999999895,
      "v": 100
    },
    {
      "midi": 48,
      "hit": false,
      "t": 40760.90624999984,
      "d": 108.69574999999895,
      "v": 100
    },
    {
      "midi": 43,
      "hit": false,
      "t": 40760.90624999987,
      "d": 45.289895833331684,
      "v": 100
    },
    {
      "midi": 38,
      "hit": false,
      "t": 40760.90624999989,
      "d": 108.69574999999895,
      "v": 100
    },
    {
      "midi": 42,
      "hit": false,
      "t": 40760.90624999989,
      "d": 108.69574999999895,
      "v": 100
    },
    {
      "midi": 42,
      "hit": false,
      "t": 40869.60199999981,
      "d": 108.69574999999895,
      "v": 100
    },
    {
      "midi": 51,
      "hit": false,
      "t": 40869.60199999984,
      "d": 217.3914999999979,
      "v": 100
    },
    {
      "midi": 35,
      "hit": false,
      "t": 40869.60199999989,
      "d": 217.3914999999979,
      "v": 100
    },
    {
      "midi": 42,
      "hit": false,
      "t": 40869.60199999989,
      "d": 217.3914999999979,
      "v": 100
    },
    {
      "midi": 59,
      "hit": false,
      "t": 40869.60199999989,
      "d": 434.7829999999958,
      "v": 100
    },
    {
      "midi": 36,
      "hit": false,
      "t": 40869.602,
      "d": 108.69574999999895,
      "v": 100
    },
    {
      "midi": 42,
      "hit": false,
      "t": 40978.29774999981,
      "d": 108.69574999999895,
      "v": 100
    },
    {
      "midi": 41,
      "hit": false,
      "t": 40978.29774999987,
      "d": 45.289895833331684,
      "v": 100
    },
    {
      "midi": 60,
      "hit": false,
      "t": 40978.29774999995,
      "d": 326.08724999999686,
      "v": 100
    },
    {
      "midi": 63,
      "hit": false,
      "t": 40978.29774999995,
      "d": 326.08724999999686,
      "v": 100
    },
    {
      "midi": 56,
      "hit": false,
      "t": 40978.29774999995,
      "d": 326.08724999999686,
      "v": 100
    },
    {
      "midi": 56,
      "hit": false,
      "t": 40978.29774999995,
      "d": 326.08724999999686,
      "v": 100
    },
    {
      "midi": 63,
      "hit": false,
      "t": 40978.29774999995,
      "d": 326.08724999999686,
      "v": 100
    },
    {
      "midi": 60,
      "hit": false,
      "t": 40978.29774999995,
      "d": 326.08724999999686,
      "v": 100
    },
    {
      "midi": 36,
      "hit": false,
      "t": 40978.29775,
      "d": 108.69574999999895,
      "v": 100
    },
    {
      "midi": 46,
      "hit": false,
      "t": 41086.99349999981,
      "d": 108.69574999999895,
      "v": 100
    },
    {
      "midi": 48,
      "hit": false,
      "t": 41086.99349999984,
      "d": 108.69574999999895,
      "v": 100
    },
    {
      "midi": 41,
      "hit": false,
      "t": 41086.993499999866,
      "d": 86.05080208333675,
      "v": 100
    },
    {
      "midi": 46,
      "hit": false,
      "t": 41086.99349999989,
      "d": 217.3914999999979,
      "v": 100
    },
    {
      "midi": 36,
      "hit": false,
      "t": 41086.9935,
      "d": 217.3914999999979,
      "v": 100
    },
    {
      "midi": 48,
      "hit": false,
      "t": 41195.689249999836,
      "d": 108.69574999999895,
      "v": 100
    },
    {
      "midi": 40,
      "hit": false,
      "t": 41304.384999999806,
      "d": 217.3914999999979,
      "v": 100
    },
    {
      "midi": 53,
      "hit": false,
      "t": 41304.384999999835,
      "d": 108.69574999999895,
      "v": 100
    },
    {
      "midi": 43,
      "hit": false,
      "t": 41304.38499999987,
      "d": 45.289895833331684,
      "v": 100
    },
    {
      "midi": 35,
      "hit": false,
      "t": 41304.384999999886,
      "d": 217.3914999999979,
      "v": 100
    },
    {
      "midi": 38,
      "hit": false,
      "t": 41304.384999999886,
      "d": 217.3914999999979,
      "v": 100
    },
    {
      "midi": 59,
      "hit": false,
      "t": 41304.384999999886,
      "d": 434.7829999999958,
      "v": 100
    },
    {
      "midi": 48,
      "hit": false,
      "t": 41304.384999999995,
      "d": 217.3914999999979,
      "v": 100
    },
    {
      "midi": 42,
      "hit": false,
      "t": 41413.080749999805,
      "d": 108.69574999999895,
      "v": 100
    },
    {
      "midi": 48,
      "hit": false,
      "t": 41413.080749999834,
      "d": 108.69574999999895,
      "v": 100
    },
    {
      "midi": 45,
      "hit": false,
      "t": 41413.08074999987,
      "d": 45.289895833331684,
      "v": 100
    },
    {
      "midi": 63,
      "hit": false,
      "t": 41413.08074999994,
      "d": 108.69574999999895,
      "v": 100
    },
    {
      "midi": 60,
      "hit": false,
      "t": 41413.08074999994,
      "d": 108.69574999999895,
      "v": 100
    },
    {
      "midi": 56,
      "hit": false,
      "t": 41413.08074999994,
      "d": 108.69574999999895,
      "v": 100
    },
    {
      "midi": 56,
      "hit": false,
      "t": 41413.08074999994,
      "d": 108.69574999999895,
      "v": 100
    },
    {
      "midi": 60,
      "hit": false,
      "t": 41413.08074999994,
      "d": 108.69574999999895,
      "v": 100
    },
    {
      "midi": 63,
      "hit": false,
      "t": 41413.08074999994,
      "d": 108.69574999999895,
      "v": 100
    },
    {
      "midi": 46,
      "hit": false,
      "t": 41521.7764999998,
      "d": 108.69574999999895,
      "v": 100
    },
    {
      "midi": 57,
      "hit": false,
      "t": 41521.7764999998,
      "d": 217.3914999999979,
      "v": 100
    },
    {
      "midi": 55,
      "hit": false,
      "t": 41521.77649999983,
      "d": 108.69574999999895,
      "v": 100
    },
    {
      "midi": 46,
      "hit": false,
      "t": 41521.77649999987,
      "d": 45.289895833331684,
      "v": 100
    },
    {
      "midi": 38,
      "hit": false,
      "t": 41521.77649999988,
      "d": 108.69574999999895,
      "v": 100
    },
    {
      "midi": 49,
      "hit": false,
      "t": 41521.77649999988,
      "d": 217.3914999999979,
      "v": 100
    },
    {
      "midi": 36,
      "hit": false,
      "t": 41521.77649999999,
      "d": 217.3914999999979,
      "v": 100
    },
    {
      "midi": 48,
      "hit": false,
      "t": 41630.47224999983,
      "d": 108.69574999999895,
      "v": 100
    },
    {
      "midi": 50,
      "hit": false,
      "t": 41630.47224999987,
      "d": 45.289895833331684,
      "v": 100
    },
    {
      "midi": 38,
      "hit": false,
      "t": 41630.47224999988,
      "d": 108.69574999999895,
      "v": 100
    },
    {
      "midi": 42,
      "hit": false,
      "t": 41739.1679999998,
      "d": 108.69574999999895,
      "v": 100
    },
    {
      "midi": 49,
      "hit": false,
      "t": 41739.1679999998,
      "d": 217.3914999999979,
      "v": 100
    },
    {
      "midi": 48,
      "hit": false,
      "t": 41739.16799999983,
      "d": 108.69574999999895,
      "v": 100
    },
    {
      "midi": 36,
      "hit": false,
      "t": 41739.16799999987,
      "d": 45.289895833331684,
      "v": 100
    },
    {
      "midi": 35,
      "hit": false,
      "t": 41739.16799999988,
      "d": 217.3914999999979,
      "v": 100
    },
    {
      "midi": 42,
      "hit": false,
      "t": 41739.16799999988,
      "d": 217.3914999999979,
      "v": 100
    },
    {
      "midi": 59,
      "hit": false,
      "t": 41739.16799999988,
      "d": 434.7829999999958,
      "v": 100
    },
    {
      "midi": 55,
      "hit": false,
      "t": 41739.16799999994,
      "d": 326.08724999999686,
      "v": 100
    },
    {
      "midi": 62,
      "hit": false,
      "t": 41739.16799999994,
      "d": 326.08724999999686,
      "v": 100
    },
    {
      "midi": 60,
      "hit": false,
      "t": 41739.16799999994,
      "d": 326.08724999999686,
      "v": 100
    },
    {
      "midi": 62,
      "hit": false,
      "t": 41739.16799999994,
      "d": 326.08724999999686,
      "v": 100
    },
    {
      "midi": 55,
      "hit": false,
      "t": 41739.16799999994,
      "d": 326.08724999999686,
      "v": 100
    },
    {
      "midi": 36,
      "hit": false,
      "t": 41739.16799999999,
      "d": 434.7830000000031,
      "v": 100
    },
    {
      "midi": 48,
      "hit": false,
      "t": 41739.168,
      "d": 3478.264000000003,
      "v": 100
    },
    {
      "midi": 62,
      "hit": false,
      "t": 41739.168,
      "d": 3478.264000000003,
      "v": 100
    },
    {
      "midi": 67,
      "hit": false,
      "t": 41739.168,
      "d": 3478.264000000003,
      "v": 100
    },
    {
      "midi": 55,
      "hit": false,
      "t": 41739.168,
      "d": 3478.264000000003,
      "v": 100
    },
    {
      "midi": 50,
      "hit": false,
      "t": 41739.168,
      "d": 3478.264000000003,
      "v": 100
    },
    {
      "midi": 48,
      "hit": false,
      "t": 41739.168,
      "d": 3478.264000000003,
      "v": 100
    },
    {
      "midi": 55,
      "hit": false,
      "t": 41739.168,
      "d": 3478.264000000003,
      "v": 100
    },
    {
      "midi": 50,
      "hit": false,
      "t": 41739.168,
      "d": 3478.264000000003,
      "v": 100
    },
    {
      "midi": 62,
      "hit": false,
      "t": 41739.168,
      "d": 3478.264000000003,
      "v": 100
    },
    {
      "midi": 67,
      "hit": false,
      "t": 41739.168,
      "d": 3478.264000000003,
      "v": 100
    },
    {
      "midi": 42,
      "hit": false,
      "t": 41847.8637499998,
      "d": 108.69574999999895,
      "v": 100
    },
    {
      "midi": 48,
      "hit": false,
      "t": 41847.86374999983,
      "d": 108.69574999999895,
      "v": 100
    },
    {
      "midi": 46,
      "hit": false,
      "t": 41956.5594999998,
      "d": 108.69574999999895,
      "v": 100
    },
    {
      "midi": 48,
      "hit": false,
      "t": 41956.55949999983,
      "d": 108.69574999999895,
      "v": 100
    },
    {
      "midi": 36,
      "hit": false,
      "t": 41956.559499999865,
      "d": 45.289895833331684,
      "v": 100
    },
    {
      "midi": 42,
      "hit": false,
      "t": 41956.55949999988,
      "d": 108.69574999999895,
      "v": 100
    },
    {
      "midi": 51,
      "hit": false,
      "t": 42065.25524999983,
      "d": 217.3914999999979,
      "v": 100
    },
    {
      "midi": 42,
      "hit": false,
      "t": 42065.25524999988,
      "d": 108.69574999999895,
      "v": 100
    },
    {
      "midi": 55,
      "hit": false,
      "t": 42065.25524999994,
      "d": 326.08724999999686,
      "v": 100
    },
    {
      "midi": 62,
      "hit": false,
      "t": 42065.25524999994,
      "d": 326.08724999999686,
      "v": 100
    },
    {
      "midi": 60,
      "hit": false,
      "t": 42065.25524999994,
      "d": 326.08724999999686,
      "v": 100
    },
    {
      "midi": 62,
      "hit": false,
      "t": 42065.25524999994,
      "d": 326.08724999999686,
      "v": 100
    },
    {
      "midi": 55,
      "hit": false,
      "t": 42065.25524999994,
      "d": 326.08724999999686,
      "v": 100
    },
    {
      "midi": 42,
      "hit": false,
      "t": 42173.9509999998,
      "d": 108.69574999999895,
      "v": 100
    },
    {
      "midi": 40,
      "hit": false,
      "t": 42173.9509999998,
      "d": 217.3914999999979,
      "v": 100
    },
    {
      "midi": 36,
      "hit": false,
      "t": 42173.95099999986,
      "d": 45.289895833331684,
      "v": 100
    },
    {
      "midi": 38,
      "hit": false,
      "t": 42173.95099999988,
      "d": 108.69574999999895,
      "v": 100
    },
    {
      "midi": 42,
      "hit": false,
      "t": 42173.95099999988,
      "d": 217.3914999999979,
      "v": 100
    },
    {
      "midi": 35,
      "hit": false,
      "t": 42173.95099999988,
      "d": 217.3914999999979,
      "v": 100
    },
    {
      "midi": 59,
      "hit": false,
      "t": 42173.95099999988,
      "d": 434.7829999999958,
      "v": 100
    },
    {
      "midi": 48,
      "hit": false,
      "t": 42173.950999999994,
      "d": 217.3914999999979,
      "v": 100
    },
    {
      "midi": 46,
      "hit": false,
      "t": 42282.646749999796,
      "d": 108.69574999999895,
      "v": 100
    },
    {
      "midi": 48,
      "hit": false,
      "t": 42282.646749999825,
      "d": 108.69574999999895,
      "v": 100
    },
    {
      "midi": 48,
      "hit": false,
      "t": 42282.64674999986,
      "d": 45.289895833331684,
      "v": 100
    },
    {
      "midi": 42,
      "hit": false,
      "t": 42391.342499999795,
      "d": 108.69574999999895,
      "v": 100
    },
    {
      "midi": 48,
      "hit": false,
      "t": 42391.342499999824,
      "d": 108.69574999999895,
      "v": 100
    },
    {
      "midi": 42,
      "hit": false,
      "t": 42391.342499999875,
      "d": 108.69574999999895,
      "v": 100
    },
    {
      "midi": 55,
      "hit": false,
      "t": 42391.34249999993,
      "d": 326.08724999999686,
      "v": 100
    },
    {
      "midi": 62,
      "hit": false,
      "t": 42391.34249999993,
      "d": 326.08724999999686,
      "v": 100
    },
    {
      "midi": 60,
      "hit": false,
      "t": 42391.34249999993,
      "d": 326.08724999999686,
      "v": 100
    },
    {
      "midi": 62,
      "hit": false,
      "t": 42391.34249999993,
      "d": 326.08724999999686,
      "v": 100
    },
    {
      "midi": 55,
      "hit": false,
      "t": 42391.34249999993,
      "d": 326.08724999999686,
      "v": 100
    },
    {
      "midi": 36,
      "hit": false,
      "t": 42391.34249999999,
      "d": 217.3914999999979,
      "v": 100
    },
    {
      "midi": 46,
      "hit": false,
      "t": 42500.038249999794,
      "d": 108.69574999999895,
      "v": 100
    },
    {
      "midi": 48,
      "hit": false,
      "t": 42500.03824999982,
      "d": 108.69574999999895,
      "v": 100
    },
    {
      "midi": 43,
      "hit": false,
      "t": 42500.03824999986,
      "d": 45.289895833331684,
      "v": 100
    },
    {
      "midi": 38,
      "hit": false,
      "t": 42500.038249999874,
      "d": 108.69574999999895,
      "v": 100
    },
    {
      "midi": 42,
      "hit": false,
      "t": 42500.038249999874,
      "d": 108.69574999999895,
      "v": 100
    },
    {
      "midi": 42,
      "hit": false,
      "t": 42608.73399999979,
      "d": 108.69574999999895,
      "v": 100
    },
    {
      "midi": 51,
      "hit": false,
      "t": 42608.73399999982,
      "d": 217.3914999999979,
      "v": 100
    },
    {
      "midi": 35,
      "hit": false,
      "t": 42608.73399999987,
      "d": 217.3914999999979,
      "v": 100
    },
    {
      "midi": 42,
      "hit": false,
      "t": 42608.73399999987,
      "d": 217.3914999999979,
      "v": 100
    },
    {
      "midi": 59,
      "hit": false,
      "t": 42608.73399999987,
      "d": 434.7829999999958,
      "v": 100
    },
    {
      "midi": 36,
      "hit": false,
      "t": 42608.73399999999,
      "d": 108.69574999999895,
      "v": 100
    },
    {
      "midi": 42,
      "hit": false,
      "t": 42717.42974999979,
      "d": 108.69574999999895,
      "v": 100
    },
    {
      "midi": 41,
      "hit": false,
      "t": 42717.42974999986,
      "d": 45.289895833331684,
      "v": 100
    },
    {
      "midi": 55,
      "hit": false,
      "t": 42717.42974999993,
      "d": 326.08724999999686,
      "v": 100
    },
    {
      "midi": 62,
      "hit": false,
      "t": 42717.42974999993,
      "d": 326.08724999999686,
      "v": 100
    },
    {
      "midi": 60,
      "hit": false,
      "t": 42717.42974999993,
      "d": 326.08724999999686,
      "v": 100
    },
    {
      "midi": 62,
      "hit": false,
      "t": 42717.42974999993,
      "d": 326.08724999999686,
      "v": 100
    },
    {
      "midi": 55,
      "hit": false,
      "t": 42717.42974999993,
      "d": 326.08724999999686,
      "v": 100
    },
    {
      "midi": 36,
      "hit": false,
      "t": 42717.42974999999,
      "d": 108.69574999999895,
      "v": 100
    },
    {
      "midi": 46,
      "hit": false,
      "t": 42826.12549999979,
      "d": 108.69574999999895,
      "v": 100
    },
    {
      "midi": 48,
      "hit": false,
      "t": 42826.12549999982,
      "d": 108.69574999999895,
      "v": 100
    },
    {
      "midi": 41,
      "hit": false,
      "t": 42826.12549999986,
      "d": 86.05080208333675,
      "v": 100
    },
    {
      "midi": 46,
      "hit": false,
      "t": 42826.12549999987,
      "d": 108.69574999999895,
      "v": 100
    },
    {
      "midi": 36,
      "hit": false,
      "t": 42826.12549999999,
      "d": 217.3914999999979,
      "v": 100
    },
    {
      "midi": 48,
      "hit": false,
      "t": 42934.82124999982,
      "d": 108.69574999999895,
      "v": 100
    },
    {
      "midi": 40,
      "hit": false,
      "t": 43043.51699999979,
      "d": 217.3914999999979,
      "v": 100
    },
    {
      "midi": 53,
      "hit": false,
      "t": 43043.51699999982,
      "d": 108.69574999999895,
      "v": 100
    },
    {
      "midi": 43,
      "hit": false,
      "t": 43043.51699999986,
      "d": 45.289895833331684,
      "v": 100
    },
    {
      "midi": 35,
      "hit": false,
      "t": 43043.51699999987,
      "d": 217.3914999999979,
      "v": 100
    },
    {
      "midi": 40,
      "hit": false,
      "t": 43043.51699999987,
      "d": 217.3914999999979,
      "v": 100
    },
    {
      "midi": 59,
      "hit": false,
      "t": 43043.51699999987,
      "d": 434.7829999999958,
      "v": 100
    },
    {
      "midi": 48,
      "hit": false,
      "t": 43043.516999999985,
      "d": 217.3914999999979,
      "v": 100
    },
    {
      "midi": 42,
      "hit": false,
      "t": 43152.21274999979,
      "d": 108.69574999999895,
      "v": 100
    },
    {
      "midi": 48,
      "hit": false,
      "t": 43152.21274999982,
      "d": 108.69574999999895,
      "v": 100
    },
    {
      "midi": 45,
      "hit": false,
      "t": 43152.21274999986,
      "d": 45.289895833331684,
      "v": 100
    },
    {
      "midi": 55,
      "hit": false,
      "t": 43152.212749999926,
      "d": 108.69574999999895,
      "v": 100
    },
    {
      "midi": 62,
      "hit": false,
      "t": 43152.212749999926,
      "d": 108.69574999999895,
      "v": 100
    },
    {
      "midi": 60,
      "hit": false,
      "t": 43152.212749999926,
      "d": 108.69574999999895,
      "v": 100
    },
    {
      "midi": 62,
      "hit": false,
      "t": 43152.212749999926,
      "d": 108.69574999999895,
      "v": 100
    },
    {
      "midi": 55,
      "hit": false,
      "t": 43152.212749999926,
      "d": 108.69574999999895,
      "v": 100
    },
    {
      "midi": 46,
      "hit": false,
      "t": 43260.90849999979,
      "d": 108.69574999999895,
      "v": 100
    },
    {
      "midi": 55,
      "hit": false,
      "t": 43260.908499999816,
      "d": 108.69574999999895,
      "v": 100
    },
    {
      "midi": 46,
      "hit": false,
      "t": 43260.90849999986,
      "d": 45.289895833331684,
      "v": 100
    },
    {
      "midi": 35,
      "hit": false,
      "t": 43260.90849999987,
      "d": 108.69574999999895,
      "v": 100
    },
    {
      "midi": 49,
      "hit": false,
      "t": 43260.90849999987,
      "d": 217.3914999999979,
      "v": 100
    },
    {
      "midi": 36,
      "hit": false,
      "t": 43260.90849999998,
      "d": 217.3914999999979,
      "v": 100
    },
    {
      "midi": 48,
      "hit": false,
      "t": 43369.604249999815,
      "d": 108.69574999999895,
      "v": 100
    },
    {
      "midi": 50,
      "hit": false,
      "t": 43369.60424999986,
      "d": 45.289895833331684,
      "v": 100
    },
    {
      "midi": 42,
      "hit": false,
      "t": 43478.299999999785,
      "d": 108.69574999999895,
      "v": 100
    },
    {
      "midi": 48,
      "hit": false,
      "t": 43478.299999999814,
      "d": 108.69574999999895,
      "v": 100
    },
    {
      "midi": 36,
      "hit": false,
      "t": 43478.29999999986,
      "d": 45.289895833331684,
      "v": 100
    },
    {
      "midi": 35,
      "hit": false,
      "t": 43478.299999999865,
      "d": 217.3914999999979,
      "v": 100
    },
    {
      "midi": 42,
      "hit": false,
      "t": 43478.299999999865,
      "d": 217.3914999999979,
      "v": 100
    },
    {
      "midi": 59,
      "hit": false,
      "t": 43478.299999999865,
      "d": 434.7829999999958,
      "v": 100
    },
    {
      "midi": 36,
      "hit": false,
      "t": 43478.29999999998,
      "d": 434.7830000000031,
      "v": 100
    },
    {
      "midi": 42,
      "hit": false,
      "t": 43586.99574999978,
      "d": 108.69574999999895,
      "v": 100
    },
    {
      "midi": 48,
      "hit": false,
      "t": 43586.99574999981,
      "d": 108.69574999999895,
      "v": 100
    },
    {
      "midi": 36,
      "hit": false,
      "t": 43586.995749999856,
      "d": 45.289895833331684,
      "v": 100
    },
    {
      "midi": 46,
      "hit": false,
      "t": 43695.69149999978,
      "d": 108.69574999999895,
      "v": 100
    },
    {
      "midi": 48,
      "hit": false,
      "t": 43695.69149999981,
      "d": 108.69574999999895,
      "v": 100
    },
    {
      "midi": 36,
      "hit": false,
      "t": 43695.691499999855,
      "d": 86.05080208333675,
      "v": 100
    },
    {
      "midi": 42,
      "hit": false,
      "t": 43695.69149999986,
      "d": 108.69574999999895,
      "v": 100
    },
    {
      "midi": 51,
      "hit": false,
      "t": 43804.38724999981,
      "d": 217.3914999999979,
      "v": 100
    },
    {
      "midi": 42,
      "hit": false,
      "t": 43804.38724999986,
      "d": 108.69574999999895,
      "v": 100
    },
    {
      "midi": 42,
      "hit": false,
      "t": 43913.08299999978,
      "d": 108.69574999999895,
      "v": 100
    },
    {
      "midi": 40,
      "hit": false,
      "t": 43913.08299999978,
      "d": 217.3914999999979,
      "v": 100
    },
    {
      "midi": 36,
      "hit": false,
      "t": 43913.08299999986,
      "d": 45.289895833331684,
      "v": 100
    },
    {
      "midi": 38,
      "hit": false,
      "t": 43913.08299999986,
      "d": 108.69574999999895,
      "v": 100
    },
    {
      "midi": 42,
      "hit": false,
      "t": 43913.08299999986,
      "d": 217.3914999999979,
      "v": 100
    },
    {
      "midi": 35,
      "hit": false,
      "t": 43913.08299999986,
      "d": 217.3914999999979,
      "v": 100
    },
    {
      "midi": 59,
      "hit": false,
      "t": 43913.08299999986,
      "d": 434.7829999999958,
      "v": 100
    },
    {
      "midi": 48,
      "hit": false,
      "t": 43913.082999999984,
      "d": 217.3914999999979,
      "v": 100
    },
    {
      "midi": 46,
      "hit": false,
      "t": 44021.77874999978,
      "d": 108.69574999999895,
      "v": 100
    },
    {
      "midi": 48,
      "hit": false,
      "t": 44021.77874999981,
      "d": 108.69574999999895,
      "v": 100
    },
    {
      "midi": 48,
      "hit": false,
      "t": 44021.77874999986,
      "d": 45.289895833331684,
      "v": 100
    },
    {
      "midi": 62,
      "hit": false,
      "t": 44021.778749999925,
      "d": 326.08724999999686,
      "v": 100
    },
    {
      "midi": 55,
      "hit": false,
      "t": 44021.778749999925,
      "d": 326.08724999999686,
      "v": 100
    },
    {
      "midi": 60,
      "hit": false,
      "t": 44021.778749999925,
      "d": 326.08724999999686,
      "v": 100
    },
    {
      "midi": 55,
      "hit": false,
      "t": 44021.778749999925,
      "d": 326.08724999999686,
      "v": 100
    },
    {
      "midi": 62,
      "hit": false,
      "t": 44021.778749999925,
      "d": 326.08724999999686,
      "v": 100
    },
    {
      "midi": 42,
      "hit": false,
      "t": 44130.47449999978,
      "d": 108.69574999999895,
      "v": 100
    },
    {
      "midi": 48,
      "hit": false,
      "t": 44130.47449999981,
      "d": 108.69574999999895,
      "v": 100
    },
    {
      "midi": 42,
      "hit": false,
      "t": 44130.47449999986,
      "d": 108.69574999999895,
      "v": 100
    },
    {
      "midi": 36,
      "hit": false,
      "t": 44130.47449999998,
      "d": 217.3914999999979,
      "v": 100
    },
    {
      "midi": 46,
      "hit": false,
      "t": 44239.17024999978,
      "d": 108.69574999999895,
      "v": 100
    },
    {
      "midi": 48,
      "hit": false,
      "t": 44239.17024999981,
      "d": 108.69574999999895,
      "v": 100
    },
    {
      "midi": 43,
      "hit": false,
      "t": 44239.17024999986,
      "d": 45.289895833331684,
      "v": 100
    },
    {
      "midi": 38,
      "hit": false,
      "t": 44239.17024999986,
      "d": 108.69574999999895,
      "v": 100
    },
    {
      "midi": 42,
      "hit": false,
      "t": 44239.17024999986,
      "d": 108.69574999999895,
      "v": 100
    },
    {
      "midi": 42,
      "hit": false,
      "t": 44347.865999999776,
      "d": 108.69574999999895,
      "v": 100
    },
    {
      "midi": 51,
      "hit": false,
      "t": 44347.865999999805,
      "d": 217.3914999999979,
      "v": 100
    },
    {
      "midi": 35,
      "hit": false,
      "t": 44347.865999999856,
      "d": 217.3914999999979,
      "v": 100
    },
    {
      "midi": 42,
      "hit": false,
      "t": 44347.865999999856,
      "d": 217.3914999999979,
      "v": 100
    },
    {
      "midi": 59,
      "hit": false,
      "t": 44347.865999999856,
      "d": 434.7829999999958,
      "v": 100
    },
    {
      "midi": 62,
      "hit": false,
      "t": 44347.86599999992,
      "d": 326.08724999999686,
      "v": 100
    },
    {
      "midi": 55,
      "hit": false,
      "t": 44347.86599999992,
      "d": 326.08724999999686,
      "v": 100
    },
    {
      "midi": 60,
      "hit": false,
      "t": 44347.86599999992,
      "d": 326.08724999999686,
      "v": 100
    },
    {
      "midi": 55,
      "hit": false,
      "t": 44347.86599999992,
      "d": 326.08724999999686,
      "v": 100
    },
    {
      "midi": 62,
      "hit": false,
      "t": 44347.86599999992,
      "d": 326.08724999999686,
      "v": 100
    },
    {
      "midi": 36,
      "hit": false,
      "t": 44347.86599999998,
      "d": 108.69574999999895,
      "v": 100
    },
    {
      "midi": 42,
      "hit": false,
      "t": 44456.561749999775,
      "d": 108.69574999999895,
      "v": 100
    },
    {
      "midi": 41,
      "hit": false,
      "t": 44456.561749999855,
      "d": 45.289895833331684,
      "v": 100
    },
    {
      "midi": 36,
      "hit": false,
      "t": 44456.56174999998,
      "d": 108.69574999999895,
      "v": 100
    },
    {
      "midi": 46,
      "hit": false,
      "t": 44565.257499999774,
      "d": 108.69574999999895,
      "v": 100
    },
    {
      "midi": 48,
      "hit": false,
      "t": 44565.2574999998,
      "d": 108.69574999999895,
      "v": 100
    },
    {
      "midi": 41,
      "hit": false,
      "t": 44565.257499999854,
      "d": 86.05080208333675,
      "v": 100
    },
    {
      "midi": 46,
      "hit": false,
      "t": 44565.257499999854,
      "d": 217.3914999999979,
      "v": 100
    },
    {
      "midi": 36,
      "hit": false,
      "t": 44565.25749999998,
      "d": 217.3914999999979,
      "v": 100
    },
    {
      "midi": 48,
      "hit": false,
      "t": 44673.9532499998,
      "d": 108.69574999999895,
      "v": 100
    },
    {
      "midi": 62,
      "hit": false,
      "t": 44673.95324999992,
      "d": 326.08724999999686,
      "v": 100
    },
    {
      "midi": 55,
      "hit": false,
      "t": 44673.95324999992,
      "d": 326.08724999999686,
      "v": 100
    },
    {
      "midi": 60,
      "hit": false,
      "t": 44673.95324999992,
      "d": 326.08724999999686,
      "v": 100
    },
    {
      "midi": 55,
      "hit": false,
      "t": 44673.95324999992,
      "d": 326.08724999999686,
      "v": 100
    },
    {
      "midi": 62,
      "hit": false,
      "t": 44673.95324999992,
      "d": 326.08724999999686,
      "v": 100
    },
    {
      "midi": 40,
      "hit": false,
      "t": 44782.64899999977,
      "d": 217.3914999999979,
      "v": 100
    },
    {
      "midi": 53,
      "hit": false,
      "t": 44782.6489999998,
      "d": 108.69574999999895,
      "v": 100
    },
    {
      "midi": 35,
      "hit": false,
      "t": 44782.64899999985,
      "d": 217.3914999999979,
      "v": 100
    },
    {
      "midi": 59,
      "hit": false,
      "t": 44782.64899999985,
      "d": 434.7829999999958,
      "v": 100
    },
    {
      "midi": 43,
      "hit": false,
      "t": 44782.64899999986,
      "d": 45.289895833331684,
      "v": 100
    },
    {
      "midi": 48,
      "hit": false,
      "t": 44782.648999999976,
      "d": 217.3914999999979,
      "v": 100
    },
    {
      "midi": 42,
      "hit": false,
      "t": 44891.34474999977,
      "d": 108.69574999999895,
      "v": 100
    },
    {
      "midi": 48,
      "hit": false,
      "t": 44891.3447499998,
      "d": 108.69574999999895,
      "v": 100
    },
    {
      "midi": 38,
      "hit": false,
      "t": 44891.34474999985,
      "d": 108.69574999999895,
      "v": 100
    },
    {
      "midi": 45,
      "hit": false,
      "t": 44891.34474999986,
      "d": 45.289895833331684,
      "v": 100
    },
    {
      "midi": 46,
      "hit": false,
      "t": 45000.04049999977,
      "d": 108.69574999999895,
      "v": 100
    },
    {
      "midi": 55,
      "hit": false,
      "t": 45000.0404999998,
      "d": 108.69574999999895,
      "v": 100
    },
    {
      "midi": 38,
      "hit": false,
      "t": 45000.04049999985,
      "d": 108.69574999999895,
      "v": 100
    },
    {
      "midi": 49,
      "hit": false,
      "t": 45000.04049999985,
      "d": 217.3914999999979,
      "v": 100
    },
    {
      "midi": 46,
      "hit": false,
      "t": 45000.04049999986,
      "d": 45.289895833331684,
      "v": 100
    },
    {
      "midi": 36,
      "hit": false,
      "t": 45000.040499999974,
      "d": 217.3914999999979,
      "v": 100
    },
    {
      "midi": 48,
      "hit": false,
      "t": 45108.7362499998,
      "d": 108.69574999999895,
      "v": 100
    },
    {
      "midi": 38,
      "hit": false,
      "t": 45108.73624999985,
      "d": 108.69574999999895,
      "v": 100
    },
    {
      "midi": 50,
      "hit": false,
      "t": 45108.736249999856,
      "d": 45.289895833331684,
      "v": 100
    },
    {
      "midi": 62,
      "hit": false,
      "t": 45108.736249999914,
      "d": 108.69574999999895,
      "v": 100
    },
    {
      "midi": 55,
      "hit": false,
      "t": 45108.736249999914,
      "d": 108.69574999999895,
      "v": 100
    },
    {
      "midi": 60,
      "hit": false,
      "t": 45108.736249999914,
      "d": 108.69574999999895,
      "v": 100
    },
    {
      "midi": 55,
      "hit": false,
      "t": 45108.736249999914,
      "d": 108.69574999999895,
      "v": 100
    },
    {
      "midi": 62,
      "hit": false,
      "t": 45108.736249999914,
      "d": 108.69574999999895,
      "v": 100
    },
    {
      "midi": 49,
      "hit": false,
      "t": 45217.43199999977,
      "d": 217.3914999999979,
      "v": 100
    },
    {
      "midi": 36,
      "hit": false,
      "t": 45217.4319999998,
      "d": 3478.264000000003,
      "v": 100
    },
    {
      "midi": 35,
      "hit": false,
      "t": 45217.43199999985,
      "d": 217.3914999999979,
      "v": 100
    },
    {
      "midi": 48,
      "hit": false,
      "t": 45217.432,
      "d": 3478.264000000003,
      "v": 100
    },
    {
      "midi": 58,
      "hit": false,
      "t": 45217.432,
      "d": 3478.264000000003,
      "v": 100
    },
    {
      "midi": 65,
      "hit": false,
      "t": 45217.432,
      "d": 3478.264000000003,
      "v": 100
    },
    {
      "midi": 62,
      "hit": false,
      "t": 45217.432,
      "d": 3478.264000000003,
      "v": 100
    },
    {
      "midi": 55,
      "hit": false,
      "t": 45217.432,
      "d": 3478.264000000003,
      "v": 100
    },
    {
      "midi": 48,
      "hit": false,
      "t": 45217.432,
      "d": 3478.264000000003,
      "v": 100
    },
    {
      "midi": 58,
      "hit": false,
      "t": 45217.432,
      "d": 3478.264000000003,
      "v": 100
    },
    {
      "midi": 65,
      "hit": false,
      "t": 45217.432,
      "d": 3478.264000000003,
      "v": 100
    },
    {
      "midi": 62,
      "hit": false,
      "t": 45217.432,
      "d": 3478.264000000003,
      "v": 100
    },
    {
      "midi": 55,
      "hit": false,
      "t": 45217.432,
      "d": 3478.264000000003,
      "v": 100
    },
    {
      "midi": 35,
      "hit": false,
      "t": 45652.214999999844,
      "d": 217.3914999999979,
      "v": 100
    },
    {
      "midi": 35,
      "hit": false,
      "t": 46086.99799999984,
      "d": 217.3914999999979,
      "v": 100
    },
    {
      "midi": 35,
      "hit": false,
      "t": 46521.780999999835,
      "d": 217.3914999999979,
      "v": 100
    },
    {
      "midi": 35,
      "hit": false,
      "t": 46956.56399999983,
      "d": 217.3914999999979,
      "v": 100
    },
    {
      "midi": 35,
      "hit": false,
      "t": 47391.34699999983,
      "d": 217.3914999999979,
      "v": 100
    },
    {
      "midi": 35,
      "hit": false,
      "t": 47826.12999999982,
      "d": 217.3914999999979,
      "v": 100
    },
    {
      "midi": 35,
      "hit": false,
      "t": 48260.91299999982,
      "d": 217.3914999999979,
      "v": 100
    },
    {
      "midi": 36,
      "hit": false,
      "t": 48695.6959999998,
      "d": 3478.264000000003,
      "v": 100
    },
    {
      "midi": 35,
      "hit": false,
      "t": 48695.695999999814,
      "d": 217.3914999999979,
      "v": 100
    },
    {
      "midi": 51,
      "hit": false,
      "t": 48695.696,
      "d": 3478.264000000003,
      "v": 100
    },
    {
      "midi": 55,
      "hit": false,
      "t": 48695.696,
      "d": 3478.264000000003,
      "v": 100
    },
    {
      "midi": 48,
      "hit": false,
      "t": 48695.696,
      "d": 3478.264000000003,
      "v": 100
    },
    {
      "midi": 62,
      "hit": false,
      "t": 48695.696,
      "d": 3478.264000000003,
      "v": 100
    },
    {
      "midi": 58,
      "hit": false,
      "t": 48695.696,
      "d": 3478.264000000003,
      "v": 100
    },
    {
      "midi": 51,
      "hit": false,
      "t": 48695.696,
      "d": 3478.264000000003,
      "v": 100
    },
    {
      "midi": 55,
      "hit": false,
      "t": 48695.696,
      "d": 3478.264000000003,
      "v": 100
    },
    {
      "midi": 48,
      "hit": false,
      "t": 48695.696,
      "d": 3478.264000000003,
      "v": 100
    },
    {
      "midi": 62,
      "hit": false,
      "t": 48695.696,
      "d": 3478.264000000003,
      "v": 100
    },
    {
      "midi": 58,
      "hit": false,
      "t": 48695.696,
      "d": 3478.264000000003,
      "v": 100
    },
    {
      "midi": 35,
      "hit": false,
      "t": 49130.47899999981,
      "d": 217.3914999999979,
      "v": 100
    },
    {
      "midi": 35,
      "hit": false,
      "t": 49565.261999999806,
      "d": 217.3914999999979,
      "v": 100
    },
    {
      "midi": 35,
      "hit": false,
      "t": 50000.0449999998,
      "d": 217.3914999999979,
      "v": 100
    },
    {
      "midi": 35,
      "hit": false,
      "t": 50434.8279999998,
      "d": 217.3914999999979,
      "v": 100
    },
    {
      "midi": 35,
      "hit": false,
      "t": 50869.61099999979,
      "d": 217.3914999999979,
      "v": 100
    },
    {
      "midi": 42,
      "hit": false,
      "t": 51304.39399999977,
      "d": 108.69574999999895,
      "v": 100
    },
    {
      "midi": 35,
      "hit": false,
      "t": 51304.39399999979,
      "d": 217.3914999999979,
      "v": 100
    },
    {
      "midi": 42,
      "hit": false,
      "t": 51413.089749999766,
      "d": 108.69574999999895,
      "v": 100
    },
    {
      "midi": 42,
      "hit": false,
      "t": 51521.785499999765,
      "d": 108.69574999999895,
      "v": 100
    },
    {
      "midi": 42,
      "hit": false,
      "t": 51630.481249999764,
      "d": 108.69574999999895,
      "v": 100
    },
    {
      "midi": 42,
      "hit": false,
      "t": 51739.17699999976,
      "d": 54.347874999999476,
      "v": 100
    },
    {
      "midi": 35,
      "hit": false,
      "t": 51739.176999999785,
      "d": 217.3914999999979,
      "v": 100
    },
    {
      "midi": 42,
      "hit": false,
      "t": 51793.52487499976,
      "d": 54.347874999999476,
      "v": 100
    },
    {
      "midi": 42,
      "hit": false,
      "t": 51847.87274999976,
      "d": 54.347874999999476,
      "v": 100
    },
    {
      "midi": 42,
      "hit": false,
      "t": 51902.22062499976,
      "d": 54.347874999999476,
      "v": 100
    },
    {
      "midi": 46,
      "hit": false,
      "t": 51956.56849999976,
      "d": 108.69574999999895,
      "v": 100
    },
    {
      "midi": 42,
      "hit": false,
      "t": 52173.95999999976,
      "d": 217.3914999999979,
      "v": 100
    },
    {
      "midi": 35,
      "hit": false,
      "t": 52173.95999999978,
      "d": 217.3914999999979,
      "v": 100
    },
    {
      "midi": 59,
      "hit": false,
      "t": 52173.95999999978,
      "d": 434.7829999999958,
      "v": 100
    },
    {
      "midi": 36,
      "hit": false,
      "t": 52173.9599999998,
      "d": 3478.264000000003,
      "v": 100
    },
    {
      "midi": 79,
      "hit": false,
      "t": 52173.96,
      "d": 217.3914999999979,
      "v": 100
    },
    {
      "midi": 62,
      "hit": false,
      "t": 52173.96000000001,
      "d": 3478.264000000003,
      "v": 100
    },
    {
      "midi": 55,
      "hit": false,
      "t": 52173.96000000001,
      "d": 3478.264000000003,
      "v": 100
    },
    {
      "midi": 65,
      "hit": false,
      "t": 52173.96000000001,
      "d": 3478.264000000003,
      "v": 100
    },
    {
      "midi": 48,
      "hit": false,
      "t": 52173.96000000001,
      "d": 3478.264000000003,
      "v": 100
    },
    {
      "midi": 58,
      "hit": false,
      "t": 52173.96000000001,
      "d": 3478.264000000003,
      "v": 100
    },
    {
      "midi": 62,
      "hit": false,
      "t": 52173.96000000001,
      "d": 3478.264000000003,
      "v": 100
    },
    {
      "midi": 55,
      "hit": false,
      "t": 52173.96000000001,
      "d": 3478.264000000003,
      "v": 100
    },
    {
      "midi": 65,
      "hit": false,
      "t": 52173.96000000001,
      "d": 3478.264000000003,
      "v": 100
    },
    {
      "midi": 48,
      "hit": false,
      "t": 52173.96000000001,
      "d": 3478.264000000003,
      "v": 100
    },
    {
      "midi": 58,
      "hit": false,
      "t": 52173.96000000001,
      "d": 3478.264000000003,
      "v": 100
    },
    {
      "midi": 46,
      "hit": false,
      "t": 52391.35149999976,
      "d": 217.3914999999979,
      "v": 100
    },
    {
      "midi": 72,
      "hit": false,
      "t": 52391.3515,
      "d": 217.3914999999979,
      "v": 100
    },
    {
      "midi": 42,
      "hit": false,
      "t": 52608.742999999755,
      "d": 217.3914999999979,
      "v": 100
    },
    {
      "midi": 35,
      "hit": false,
      "t": 52608.74299999978,
      "d": 217.3914999999979,
      "v": 100
    },
    {
      "midi": 59,
      "hit": false,
      "t": 52608.74299999978,
      "d": 434.7829999999958,
      "v": 100
    },
    {
      "midi": 77,
      "hit": false,
      "t": 52608.742999999995,
      "d": 217.3914999999979,
      "v": 100
    },
    {
      "midi": 46,
      "hit": false,
      "t": 52826.13449999975,
      "d": 217.3914999999979,
      "v": 100
    },
    {
      "midi": 72,
      "hit": false,
      "t": 52826.13449999999,
      "d": 217.3914999999979,
      "v": 100
    },
    {
      "midi": 42,
      "hit": false,
      "t": 53043.52599999975,
      "d": 217.3914999999979,
      "v": 100
    },
    {
      "midi": 35,
      "hit": false,
      "t": 53043.52599999977,
      "d": 217.3914999999979,
      "v": 100
    },
    {
      "midi": 59,
      "hit": false,
      "t": 53043.52599999977,
      "d": 434.7829999999958,
      "v": 100
    },
    {
      "midi": 79,
      "hit": false,
      "t": 53043.52599999999,
      "d": 217.3914999999979,
      "v": 100
    },
    {
      "midi": 46,
      "hit": false,
      "t": 53260.91749999975,
      "d": 217.3914999999979,
      "v": 100
    },
    {
      "midi": 72,
      "hit": false,
      "t": 53260.91749999999,
      "d": 217.3914999999979,
      "v": 100
    },
    {
      "midi": 42,
      "hit": false,
      "t": 53478.30899999975,
      "d": 217.3914999999979,
      "v": 100
    },
    {
      "midi": 35,
      "hit": false,
      "t": 53478.30899999977,
      "d": 217.3914999999979,
      "v": 100
    },
    {
      "midi": 59,
      "hit": false,
      "t": 53478.30899999977,
      "d": 434.7829999999958,
      "v": 100
    },
    {
      "midi": 77,
      "hit": false,
      "t": 53478.30899999999,
      "d": 217.3914999999979,
      "v": 100
    },
    {
      "midi": 46,
      "hit": false,
      "t": 53695.700499999744,
      "d": 217.3914999999979,
      "v": 100
    },
    {
      "midi": 72,
      "hit": false,
      "t": 53695.700499999984,
      "d": 217.3914999999979,
      "v": 100
    },
    {
      "midi": 42,
      "hit": false,
      "t": 53913.09199999974,
      "d": 217.3914999999979,
      "v": 100
    },
    {
      "midi": 35,
      "hit": false,
      "t": 53913.091999999764,
      "d": 217.3914999999979,
      "v": 100
    },
    {
      "midi": 59,
      "hit": false,
      "t": 53913.091999999764,
      "d": 434.7829999999958,
      "v": 100
    },
    {
      "midi": 79,
      "hit": false,
      "t": 53913.09199999998,
      "d": 217.3914999999979,
      "v": 100
    },
    {
      "midi": 46,
      "hit": false,
      "t": 54130.48349999974,
      "d": 217.3914999999979,
      "v": 100
    },
    {
      "midi": 72,
      "hit": false,
      "t": 54130.48349999998,
      "d": 217.3914999999979,
      "v": 100
    },
    {
      "midi": 42,
      "hit": false,
      "t": 54347.87499999974,
      "d": 217.3914999999979,
      "v": 100
    },
    {
      "midi": 35,
      "hit": false,
      "t": 54347.87499999976,
      "d": 217.3914999999979,
      "v": 100
    },
    {
      "midi": 59,
      "hit": false,
      "t": 54347.87499999976,
      "d": 434.7829999999958,
      "v": 100
    },
    {
      "midi": 77,
      "hit": false,
      "t": 54347.87499999998,
      "d": 217.3914999999979,
      "v": 100
    },
    {
      "midi": 46,
      "hit": false,
      "t": 54565.266499999736,
      "d": 217.3914999999979,
      "v": 100
    },
    {
      "midi": 72,
      "hit": false,
      "t": 54565.266499999976,
      "d": 217.3914999999979,
      "v": 100
    },
    {
      "midi": 42,
      "hit": false,
      "t": 54782.657999999734,
      "d": 217.3914999999979,
      "v": 100
    },
    {
      "midi": 35,
      "hit": false,
      "t": 54782.657999999756,
      "d": 217.3914999999979,
      "v": 100
    },
    {
      "midi": 59,
      "hit": false,
      "t": 54782.657999999756,
      "d": 434.7829999999958,
      "v": 100
    },
    {
      "midi": 82,
      "hit": false,
      "t": 54782.657999999974,
      "d": 217.3914999999979,
      "v": 100
    },
    {
      "midi": 46,
      "hit": false,
      "t": 55000.04949999973,
      "d": 217.3914999999979,
      "v": 100
    },
    {
      "midi": 72,
      "hit": false,
      "t": 55000.04949999997,
      "d": 217.3914999999979,
      "v": 100
    },
    {
      "midi": 42,
      "hit": false,
      "t": 55217.44099999973,
      "d": 217.3914999999979,
      "v": 100
    },
    {
      "midi": 35,
      "hit": false,
      "t": 55217.44099999975,
      "d": 217.3914999999979,
      "v": 100
    },
    {
      "midi": 59,
      "hit": false,
      "t": 55217.44099999975,
      "d": 434.7829999999958,
      "v": 100
    },
    {
      "midi": 79,
      "hit": false,
      "t": 55217.44099999997,
      "d": 217.3914999999979,
      "v": 100
    },
    {
      "midi": 46,
      "hit": false,
      "t": 55434.83249999973,
      "d": 217.3914999999979,
      "v": 100
    },
    {
      "midi": 72,
      "hit": false,
      "t": 55434.83249999997,
      "d": 217.3914999999979,
      "v": 100
    },
    {
      "midi": 42,
      "hit": false,
      "t": 55652.223999999725,
      "d": 217.3914999999979,
      "v": 100
    },
    {
      "midi": 35,
      "hit": false,
      "t": 55652.22399999975,
      "d": 217.3914999999979,
      "v": 100
    },
    {
      "midi": 59,
      "hit": false,
      "t": 55652.22399999975,
      "d": 434.7829999999958,
      "v": 100
    },
    {
      "midi": 36,
      "hit": false,
      "t": 55652.223999999806,
      "d": 3478.264000000003,
      "v": 100
    },
    {
      "midi": 79,
      "hit": false,
      "t": 55652.223999999966,
      "d": 217.3914999999979,
      "v": 100
    },
    {
      "midi": 53,
      "hit": false,
      "t": 55652.22400000001,
      "d": 3478.264000000003,
      "v": 100
    },
    {
      "midi": 60,
      "hit": false,
      "t": 55652.22400000001,
      "d": 3478.264000000003,
      "v": 100
    },
    {
      "midi": 48,
      "hit": false,
      "t": 55652.22400000001,
      "d": 3478.264000000003,
      "v": 100
    },
    {
      "midi": 55,
      "hit": false,
      "t": 55652.22400000001,
      "d": 3478.264000000003,
      "v": 100
    },
    {
      "midi": 67,
      "hit": false,
      "t": 55652.22400000001,
      "d": 3478.264000000003,
      "v": 100
    },
    {
      "midi": 53,
      "hit": false,
      "t": 55652.22400000001,
      "d": 3478.264000000003,
      "v": 100
    },
    {
      "midi": 60,
      "hit": false,
      "t": 55652.22400000001,
      "d": 3478.264000000003,
      "v": 100
    },
    {
      "midi": 48,
      "hit": false,
      "t": 55652.22400000001,
      "d": 3478.264000000003,
      "v": 100
    },
    {
      "midi": 55,
      "hit": false,
      "t": 55652.22400000001,
      "d": 3478.264000000003,
      "v": 100
    },
    {
      "midi": 67,
      "hit": false,
      "t": 55652.22400000001,
      "d": 3478.264000000003,
      "v": 100
    },
    {
      "midi": 46,
      "hit": false,
      "t": 55869.61549999972,
      "d": 217.3914999999979,
      "v": 100
    },
    {
      "midi": 72,
      "hit": false,
      "t": 55869.61549999996,
      "d": 217.3914999999979,
      "v": 100
    },
    {
      "midi": 42,
      "hit": false,
      "t": 56087.00699999972,
      "d": 217.3914999999979,
      "v": 100
    },
    {
      "midi": 35,
      "hit": false,
      "t": 56087.00699999974,
      "d": 217.3914999999979,
      "v": 100
    },
    {
      "midi": 59,
      "hit": false,
      "t": 56087.00699999974,
      "d": 434.7829999999958,
      "v": 100
    },
    {
      "midi": 77,
      "hit": false,
      "t": 56087.00699999996,
      "d": 217.3914999999979,
      "v": 100
    },
    {
      "midi": 46,
      "hit": false,
      "t": 56304.39849999972,
      "d": 217.3914999999979,
      "v": 100
    },
    {
      "midi": 72,
      "hit": false,
      "t": 56304.39849999996,
      "d": 217.3914999999979,
      "v": 100
    },
    {
      "midi": 42,
      "hit": false,
      "t": 56521.78999999972,
      "d": 217.3914999999979,
      "v": 100
    },
    {
      "midi": 35,
      "hit": false,
      "t": 56521.78999999974,
      "d": 217.3914999999979,
      "v": 100
    },
    {
      "midi": 59,
      "hit": false,
      "t": 56521.78999999974,
      "d": 434.7829999999958,
      "v": 100
    },
    {
      "midi": 79,
      "hit": false,
      "t": 56521.78999999996,
      "d": 217.3914999999979,
      "v": 100
    },
    {
      "midi": 46,
      "hit": false,
      "t": 56739.181499999715,
      "d": 217.3914999999979,
      "v": 100
    },
    {
      "midi": 72,
      "hit": false,
      "t": 56739.181499999955,
      "d": 217.3914999999979,
      "v": 100
    },
    {
      "midi": 42,
      "hit": false,
      "t": 56956.57299999971,
      "d": 217.3914999999979,
      "v": 100
    },
    {
      "midi": 35,
      "hit": false,
      "t": 56956.572999999735,
      "d": 217.3914999999979,
      "v": 100
    },
    {
      "midi": 59,
      "hit": false,
      "t": 56956.572999999735,
      "d": 434.7829999999958,
      "v": 100
    },
    {
      "midi": 77,
      "hit": false,
      "t": 56956.57299999995,
      "d": 217.3914999999979,
      "v": 100
    },
    {
      "midi": 46,
      "hit": false,
      "t": 57173.96449999971,
      "d": 217.3914999999979,
      "v": 100
    },
    {
      "midi": 72,
      "hit": false,
      "t": 57173.96449999995,
      "d": 217.3914999999979,
      "v": 100
    },
    {
      "midi": 42,
      "hit": false,
      "t": 57391.35599999971,
      "d": 217.3914999999979,
      "v": 100
    },
    {
      "midi": 35,
      "hit": false,
      "t": 57391.35599999973,
      "d": 217.3914999999979,
      "v": 100
    },
    {
      "midi": 59,
      "hit": false,
      "t": 57391.35599999973,
      "d": 434.7829999999958,
      "v": 100
    },
    {
      "midi": 79,
      "hit": false,
      "t": 57391.35599999995,
      "d": 217.3914999999979,
      "v": 100
    },
    {
      "midi": 46,
      "hit": false,
      "t": 57608.74749999971,
      "d": 217.3914999999979,
      "v": 100
    },
    {
      "midi": 72,
      "hit": false,
      "t": 57608.74749999995,
      "d": 217.3914999999979,
      "v": 100
    },
    {
      "midi": 42,
      "hit": false,
      "t": 57826.138999999705,
      "d": 217.3914999999979,
      "v": 100
    },
    {
      "midi": 35,
      "hit": false,
      "t": 57826.13899999973,
      "d": 217.3914999999979,
      "v": 100
    },
    {
      "midi": 59,
      "hit": false,
      "t": 57826.13899999973,
      "d": 434.7829999999958,
      "v": 100
    },
    {
      "midi": 77,
      "hit": false,
      "t": 57826.138999999945,
      "d": 217.3914999999979,
      "v": 100
    },
    {
      "midi": 46,
      "hit": false,
      "t": 58043.5304999997,
      "d": 217.3914999999979,
      "v": 100
    },
    {
      "midi": 72,
      "hit": false,
      "t": 58043.53049999994,
      "d": 217.3914999999979,
      "v": 100
    },
    {
      "midi": 42,
      "hit": false,
      "t": 58260.9219999997,
      "d": 217.3914999999979,
      "v": 100
    },
    {
      "midi": 42,
      "hit": false,
      "t": 58260.92199999972,
      "d": 108.69574999999895,
      "v": 100
    },
    {
      "midi": 35,
      "hit": false,
      "t": 58260.92199999972,
      "d": 217.3914999999979,
      "v": 100
    },
    {
      "midi": 59,
      "hit": false,
      "t": 58260.92199999972,
      "d": 434.7829999999958,
      "v": 100
    },
    {
      "midi": 75,
      "hit": false,
      "t": 58260.92199999994,
      "d": 217.3914999999979,
      "v": 100
    },
    {
      "midi": 42,
      "hit": false,
      "t": 58369.61774999972,
      "d": 108.69574999999895,
      "v": 100
    },
    {
      "midi": 46,
      "hit": false,
      "t": 58478.3134999997,
      "d": 217.3914999999979,
      "v": 100
    },
    {
      "midi": 42,
      "hit": false,
      "t": 58478.31349999972,
      "d": 108.69574999999895,
      "v": 100
    },
    {
      "midi": 72,
      "hit": false,
      "t": 58478.31349999994,
      "d": 217.3914999999979,
      "v": 100
    },
    {
      "midi": 42,
      "hit": false,
      "t": 58587.00924999972,
      "d": 108.69574999999895,
      "v": 100
    },
    {
      "midi": 42,
      "hit": false,
      "t": 58695.704999999696,
      "d": 217.3914999999979,
      "v": 100
    },
    {
      "midi": 42,
      "hit": false,
      "t": 58695.70499999972,
      "d": 54.347874999999476,
      "v": 100
    },
    {
      "midi": 35,
      "hit": false,
      "t": 58695.70499999972,
      "d": 217.3914999999979,
      "v": 100
    },
    {
      "midi": 59,
      "hit": false,
      "t": 58695.70499999972,
      "d": 434.7829999999958,
      "v": 100
    },
    {
      "midi": 77,
      "hit": false,
      "t": 58695.704999999936,
      "d": 217.3914999999979,
      "v": 100
    },
    {
      "midi": 42,
      "hit": false,
      "t": 58750.05287499972,
      "d": 54.347874999999476,
      "v": 100
    },
    {
      "midi": 42,
      "hit": false,
      "t": 58804.40074999972,
      "d": 54.347874999999476,
      "v": 100
    },
    {
      "midi": 42,
      "hit": false,
      "t": 58858.74862499972,
      "d": 54.347874999999476,
      "v": 100
    },
    {
      "midi": 46,
      "hit": false,
      "t": 58913.096499999694,
      "d": 217.3914999999979,
      "v": 100
    },
    {
      "midi": 46,
      "hit": false,
      "t": 58913.096499999716,
      "d": 217.3914999999979,
      "v": 100
    },
    {
      "midi": 72,
      "hit": false,
      "t": 58913.096499999934,
      "d": 217.3914999999979,
      "v": 100
    },
    {
      "midi": 42,
      "hit": false,
      "t": 59130.48799999969,
      "d": 217.3914999999979,
      "v": 100
    },
    {
      "midi": 42,
      "hit": false,
      "t": 59130.487999999714,
      "d": 217.3914999999979,
      "v": 100
    },
    {
      "midi": 35,
      "hit": false,
      "t": 59130.487999999714,
      "d": 217.3914999999979,
      "v": 100
    },
    {
      "midi": 59,
      "hit": false,
      "t": 59130.487999999714,
      "d": 434.7829999999958,
      "v": 100
    },
    {
      "midi": 36,
      "hit": false,
      "t": 59130.48799999981,
      "d": 3478.264000000003,
      "v": 100
    },
    {
      "midi": 79,
      "hit": false,
      "t": 59130.48799999993,
      "d": 217.3914999999979,
      "v": 100
    },
    {
      "midi": 36,
      "hit": false,
      "t": 59130.48799999997,
      "d": 434.7830000000031,
      "v": 100
    },
    {
      "midi": 65,
      "hit": false,
      "t": 59130.48800000001,
      "d": 3478.264000000003,
      "v": 100
    },
    {
      "midi": 58,
      "hit": false,
      "t": 59130.48800000001,
      "d": 3478.264000000003,
      "v": 100
    },
    {
      "midi": 48,
      "hit": false,
      "t": 59130.48800000001,
      "d": 3478.264000000003,
      "v": 100
    },
    {
      "midi": 55,
      "hit": false,
      "t": 59130.48800000001,
      "d": 3478.264000000003,
      "v": 100
    },
    {
      "midi": 62,
      "hit": false,
      "t": 59130.48800000001,
      "d": 3478.264000000003,
      "v": 100
    },
    {
      "midi": 65,
      "hit": false,
      "t": 59130.48800000001,
      "d": 3478.264000000003,
      "v": 100
    },
    {
      "midi": 58,
      "hit": false,
      "t": 59130.48800000001,
      "d": 3478.264000000003,
      "v": 100
    },
    {
      "midi": 48,
      "hit": false,
      "t": 59130.48800000001,
      "d": 3478.264000000003,
      "v": 100
    },
    {
      "midi": 55,
      "hit": false,
      "t": 59130.48800000001,
      "d": 3478.264000000003,
      "v": 100
    },
    {
      "midi": 62,
      "hit": false,
      "t": 59130.48800000001,
      "d": 3478.264000000003,
      "v": 100
    },
    {
      "midi": 46,
      "hit": false,
      "t": 59347.87949999969,
      "d": 217.3914999999979,
      "v": 100
    },
    {
      "midi": 42,
      "hit": false,
      "t": 59347.87949999971,
      "d": 108.69574999999895,
      "v": 100
    },
    {
      "midi": 72,
      "hit": false,
      "t": 59347.87949999993,
      "d": 217.3914999999979,
      "v": 100
    },
    {
      "midi": 42,
      "hit": false,
      "t": 59456.57524999971,
      "d": 108.69574999999895,
      "v": 100
    },
    {
      "midi": 42,
      "hit": false,
      "t": 59565.27099999969,
      "d": 217.3914999999979,
      "v": 100
    },
    {
      "midi": 42,
      "hit": false,
      "t": 59565.27099999971,
      "d": 217.3914999999979,
      "v": 100
    },
    {
      "midi": 35,
      "hit": false,
      "t": 59565.27099999971,
      "d": 217.3914999999979,
      "v": 100
    },
    {
      "midi": 59,
      "hit": false,
      "t": 59565.27099999971,
      "d": 434.7829999999958,
      "v": 100
    },
    {
      "midi": 77,
      "hit": false,
      "t": 59565.27099999993,
      "d": 217.3914999999979,
      "v": 100
    },
    {
      "midi": 48,
      "hit": false,
      "t": 59565.27099999997,
      "d": 217.3914999999979,
      "v": 100
    },
    {
      "midi": 46,
      "hit": false,
      "t": 59782.662499999686,
      "d": 217.3914999999979,
      "v": 100
    },
    {
      "midi": 42,
      "hit": false,
      "t": 59782.66249999971,
      "d": 108.69574999999895,
      "v": 100
    },
    {
      "midi": 72,
      "hit": false,
      "t": 59782.662499999926,
      "d": 217.3914999999979,
      "v": 100
    },
    {
      "midi": 36,
      "hit": false,
      "t": 59782.66249999997,
      "d": 217.3914999999979,
      "v": 100
    },
    {
      "midi": 42,
      "hit": false,
      "t": 59891.35824999971,
      "d": 108.69574999999895,
      "v": 100
    },
    {
      "midi": 42,
      "hit": false,
      "t": 60000.05399999968,
      "d": 217.3914999999979,
      "v": 100
    },
    {
      "midi": 42,
      "hit": false,
      "t": 60000.053999999705,
      "d": 217.3914999999979,
      "v": 100
    },
    {
      "midi": 35,
      "hit": false,
      "t": 60000.053999999705,
      "d": 217.3914999999979,
      "v": 100
    },
    {
      "midi": 59,
      "hit": false,
      "t": 60000.053999999705,
      "d": 434.7829999999958,
      "v": 100
    },
    {
      "midi": 79,
      "hit": false,
      "t": 60000.053999999924,
      "d": 217.3914999999979,
      "v": 100
    },
    {
      "midi": 36,
      "hit": false,
      "t": 60000.05399999997,
      "d": 108.69574999999895,
      "v": 100
    },
    {
      "midi": 36,
      "hit": false,
      "t": 60108.749749999966,
      "d": 108.69574999999895,
      "v": 100
    },
    {
      "midi": 46,
      "hit": false,
      "t": 60217.44549999968,
      "d": 217.3914999999979,
      "v": 100
    },
    {
      "midi": 46,
      "hit": false,
      "t": 60217.4454999997,
      "d": 217.3914999999979,
      "v": 100
    },
    {
      "midi": 72,
      "hit": false,
      "t": 60217.44549999992,
      "d": 217.3914999999979,
      "v": 100
    },
    {
      "midi": 36,
      "hit": false,
      "t": 60217.445499999965,
      "d": 217.3914999999979,
      "v": 100
    },
    {
      "midi": 40,
      "hit": false,
      "t": 60434.83699999968,
      "d": 217.3914999999979,
      "v": 100
    },
    {
      "midi": 42,
      "hit": false,
      "t": 60434.83699999968,
      "d": 217.3914999999979,
      "v": 100
    },
    {
      "midi": 35,
      "hit": false,
      "t": 60434.8369999997,
      "d": 217.3914999999979,
      "v": 100
    },
    {
      "midi": 59,
      "hit": false,
      "t": 60434.8369999997,
      "d": 434.7829999999958,
      "v": 100
    },
    {
      "midi": 77,
      "hit": false,
      "t": 60434.83699999992,
      "d": 217.3914999999979,
      "v": 100
    },
    {
      "midi": 48,
      "hit": false,
      "t": 60434.83699999996,
      "d": 217.3914999999979,
      "v": 100
    },
    {
      "midi": 46,
      "hit": false,
      "t": 60652.22849999968,
      "d": 217.3914999999979,
      "v": 100
    },
    {
      "midi": 72,
      "hit": false,
      "t": 60652.22849999992,
      "d": 217.3914999999979,
      "v": 100
    },
    {
      "midi": 36,
      "hit": false,
      "t": 60652.22849999996,
      "d": 217.3914999999979,
      "v": 100
    },
    {
      "midi": 42,
      "hit": false,
      "t": 60869.619999999675,
      "d": 217.3914999999979,
      "v": 100
    },
    {
      "midi": 42,
      "hit": false,
      "t": 60869.6199999997,
      "d": 217.3914999999979,
      "v": 100
    },
    {
      "midi": 35,
      "hit": false,
      "t": 60869.6199999997,
      "d": 217.3914999999979,
      "v": 100
    },
    {
      "midi": 59,
      "hit": false,
      "t": 60869.6199999997,
      "d": 434.7829999999958,
      "v": 100
    },
    {
      "midi": 79,
      "hit": false,
      "t": 60869.619999999915,
      "d": 217.3914999999979,
      "v": 100
    },
    {
      "midi": 36,
      "hit": false,
      "t": 60869.61999999996,
      "d": 434.7830000000031,
      "v": 100
    },
    {
      "midi": 46,
      "hit": false,
      "t": 61087.01149999967,
      "d": 217.3914999999979,
      "v": 100
    },
    {
      "midi": 42,
      "hit": false,
      "t": 61087.011499999695,
      "d": 108.69574999999895,
      "v": 100
    },
    {
      "midi": 72,
      "hit": false,
      "t": 61087.01149999991,
      "d": 217.3914999999979,
      "v": 100
    },
    {
      "midi": 42,
      "hit": false,
      "t": 61195.707249999694,
      "d": 108.69574999999895,
      "v": 100
    },
    {
      "midi": 42,
      "hit": false,
      "t": 61304.40299999967,
      "d": 217.3914999999979,
      "v": 100
    },
    {
      "midi": 42,
      "hit": false,
      "t": 61304.40299999969,
      "d": 217.3914999999979,
      "v": 100
    },
    {
      "midi": 35,
      "hit": false,
      "t": 61304.40299999969,
      "d": 217.3914999999979,
      "v": 100
    },
    {
      "midi": 59,
      "hit": false,
      "t": 61304.40299999969,
      "d": 434.7829999999958,
      "v": 100
    },
    {
      "midi": 77,
      "hit": false,
      "t": 61304.40299999991,
      "d": 217.3914999999979,
      "v": 100
    },
    {
      "midi": 48,
      "hit": false,
      "t": 61304.40299999996,
      "d": 217.3914999999979,
      "v": 100
    },
    {
      "midi": 46,
      "hit": false,
      "t": 61521.79449999967,
      "d": 217.3914999999979,
      "v": 100
    },
    {
      "midi": 42,
      "hit": false,
      "t": 61521.79449999969,
      "d": 108.69574999999895,
      "v": 100
    },
    {
      "midi": 72,
      "hit": false,
      "t": 61521.79449999991,
      "d": 217.3914999999979,
      "v": 100
    },
    {
      "midi": 36,
      "hit": false,
      "t": 61521.79449999996,
      "d": 217.3914999999979,
      "v": 100
    },
    {
      "midi": 42,
      "hit": false,
      "t": 61630.49024999969,
      "d": 108.69574999999895,
      "v": 100
    },
    {
      "midi": 42,
      "hit": false,
      "t": 61739.18599999967,
      "d": 217.3914999999979,
      "v": 100
    },
    {
      "midi": 42,
      "hit": false,
      "t": 61739.18599999969,
      "d": 217.3914999999979,
      "v": 100
    },
    {
      "midi": 35,
      "hit": false,
      "t": 61739.18599999969,
      "d": 217.3914999999979,
      "v": 100
    },
    {
      "midi": 59,
      "hit": false,
      "t": 61739.18599999969,
      "d": 434.7829999999958,
      "v": 100
    },
    {
      "midi": 82,
      "hit": false,
      "t": 61739.18599999991,
      "d": 217.3914999999979,
      "v": 100
    },
    {
      "midi": 36,
      "hit": false,
      "t": 61739.18599999996,
      "d": 108.69574999999895,
      "v": 100
    },
    {
      "midi": 36,
      "hit": false,
      "t": 61847.88174999996,
      "d": 108.69574999999895,
      "v": 100
    },
    {
      "midi": 46,
      "hit": false,
      "t": 61956.577499999665,
      "d": 217.3914999999979,
      "v": 100
    },
    {
      "midi": 46,
      "hit": false,
      "t": 61956.57749999969,
      "d": 217.3914999999979,
      "v": 100
    },
    {
      "midi": 72,
      "hit": false,
      "t": 61956.577499999905,
      "d": 217.3914999999979,
      "v": 100
    },
    {
      "midi": 36,
      "hit": false,
      "t": 61956.577499999956,
      "d": 217.3914999999979,
      "v": 100
    },
    {
      "midi": 40,
      "hit": false,
      "t": 62173.96899999966,
      "d": 217.3914999999979,
      "v": 100
    },
    {
      "midi": 42,
      "hit": false,
      "t": 62173.96899999966,
      "d": 217.3914999999979,
      "v": 100
    },
    {
      "midi": 35,
      "hit": false,
      "t": 62173.968999999684,
      "d": 217.3914999999979,
      "v": 100
    },
    {
      "midi": 59,
      "hit": false,
      "t": 62173.968999999684,
      "d": 434.7829999999958,
      "v": 100
    },
    {
      "midi": 79,
      "hit": false,
      "t": 62173.9689999999,
      "d": 217.3914999999979,
      "v": 100
    },
    {
      "midi": 48,
      "hit": false,
      "t": 62173.968999999954,
      "d": 217.3914999999979,
      "v": 100
    },
    {
      "midi": 46,
      "hit": false,
      "t": 62391.36049999966,
      "d": 217.3914999999979,
      "v": 100
    },
    {
      "midi": 72,
      "hit": false,
      "t": 62391.3604999999,
      "d": 217.3914999999979,
      "v": 100
    },
    {
      "midi": 36,
      "hit": false,
      "t": 62391.36049999995,
      "d": 217.3914999999979,
      "v": 100
    },
    {
      "midi": 42,
      "hit": false,
      "t": 62608.75199999966,
      "d": 217.3914999999979,
      "v": 100
    },
    {
      "midi": 35,
      "hit": false,
      "t": 62608.75199999968,
      "d": 217.3914999999979,
      "v": 100
    },
    {
      "midi": 42,
      "hit": false,
      "t": 62608.75199999968,
      "d": 217.3914999999979,
      "v": 100
    },
    {
      "midi": 59,
      "hit": false,
      "t": 62608.75199999968,
      "d": 434.7829999999958,
      "v": 100
    },
    {
      "midi": 36,
      "hit": false,
      "t": 62608.75199999981,
      "d": 3478.264000000003,
      "v": 100
    },
    {
      "midi": 79,
      "hit": false,
      "t": 62608.7519999999,
      "d": 217.3914999999979,
      "v": 100
    },
    {
      "midi": 36,
      "hit": false,
      "t": 62608.75199999995,
      "d": 434.7830000000031,
      "v": 100
    },
    {
      "midi": 48,
      "hit": false,
      "t": 62608.752000000015,
      "d": 3478.264000000003,
      "v": 100
    },
    {
      "midi": 55,
      "hit": false,
      "t": 62608.752000000015,
      "d": 3478.264000000003,
      "v": 100
    },
    {
      "midi": 51,
      "hit": false,
      "t": 62608.752000000015,
      "d": 3478.264000000003,
      "v": 100
    },
    {
      "midi": 58,
      "hit": false,
      "t": 62608.752000000015,
      "d": 3478.264000000003,
      "v": 100
    },
    {
      "midi": 62,
      "hit": false,
      "t": 62608.752000000015,
      "d": 3478.264000000003,
      "v": 100
    },
    {
      "midi": 48,
      "hit": false,
      "t": 62608.752000000015,
      "d": 3478.264000000003,
      "v": 100
    },
    {
      "midi": 55,
      "hit": false,
      "t": 62608.752000000015,
      "d": 3478.264000000003,
      "v": 100
    },
    {
      "midi": 51,
      "hit": false,
      "t": 62608.752000000015,
      "d": 3478.264000000003,
      "v": 100
    },
    {
      "midi": 58,
      "hit": false,
      "t": 62608.752000000015,
      "d": 3478.264000000003,
      "v": 100
    },
    {
      "midi": 62,
      "hit": false,
      "t": 62608.752000000015,
      "d": 3478.264000000003,
      "v": 100
    },
    {
      "midi": 46,
      "hit": false,
      "t": 62826.143499999656,
      "d": 217.3914999999979,
      "v": 100
    },
    {
      "midi": 42,
      "hit": false,
      "t": 62826.14349999968,
      "d": 108.69574999999895,
      "v": 100
    },
    {
      "midi": 72,
      "hit": false,
      "t": 62826.1434999999,
      "d": 217.3914999999979,
      "v": 100
    },
    {
      "midi": 42,
      "hit": false,
      "t": 62934.83924999968,
      "d": 108.69574999999895,
      "v": 100
    },
    {
      "midi": 42,
      "hit": false,
      "t": 63043.534999999654,
      "d": 217.3914999999979,
      "v": 100
    },
    {
      "midi": 35,
      "hit": false,
      "t": 63043.534999999676,
      "d": 217.3914999999979,
      "v": 100
    },
    {
      "midi": 42,
      "hit": false,
      "t": 63043.534999999676,
      "d": 217.3914999999979,
      "v": 100
    },
    {
      "midi": 59,
      "hit": false,
      "t": 63043.534999999676,
      "d": 434.7829999999958,
      "v": 100
    },
    {
      "midi": 77,
      "hit": false,
      "t": 63043.534999999894,
      "d": 217.3914999999979,
      "v": 100
    },
    {
      "midi": 48,
      "hit": false,
      "t": 63043.53499999995,
      "d": 217.3914999999979,
      "v": 100
    },
    {
      "midi": 46,
      "hit": false,
      "t": 63260.92649999965,
      "d": 217.3914999999979,
      "v": 100
    },
    {
      "midi": 42,
      "hit": false,
      "t": 63260.926499999674,
      "d": 108.69574999999895,
      "v": 100
    },
    {
      "midi": 72,
      "hit": false,
      "t": 63260.92649999989,
      "d": 217.3914999999979,
      "v": 100
    },
    {
      "midi": 36,
      "hit": false,
      "t": 63260.92649999995,
      "d": 217.3914999999979,
      "v": 100
    },
    {
      "midi": 42,
      "hit": false,
      "t": 63369.62224999967,
      "d": 108.69574999999895,
      "v": 100
    },
    {
      "midi": 42,
      "hit": false,
      "t": 63478.31799999965,
      "d": 217.3914999999979,
      "v": 100
    },
    {
      "midi": 35,
      "hit": false,
      "t": 63478.31799999967,
      "d": 217.3914999999979,
      "v": 100
    },
    {
      "midi": 42,
      "hit": false,
      "t": 63478.31799999967,
      "d": 217.3914999999979,
      "v": 100
    },
    {
      "midi": 59,
      "hit": false,
      "t": 63478.31799999967,
      "d": 434.7829999999958,
      "v": 100
    },
    {
      "midi": 79,
      "hit": false,
      "t": 63478.31799999989,
      "d": 217.3914999999979,
      "v": 100
    },
    {
      "midi": 36,
      "hit": false,
      "t": 63478.31799999995,
      "d": 108.69574999999895,
      "v": 100
    },
    {
      "midi": 36,
      "hit": false,
      "t": 63587.01374999995,
      "d": 108.69574999999895,
      "v": 100
    },
    {
      "midi": 46,
      "hit": false,
      "t": 63695.70949999965,
      "d": 217.3914999999979,
      "v": 100
    },
    {
      "midi": 46,
      "hit": false,
      "t": 63695.70949999967,
      "d": 217.3914999999979,
      "v": 100
    },
    {
      "midi": 72,
      "hit": false,
      "t": 63695.70949999989,
      "d": 217.3914999999979,
      "v": 100
    },
    {
      "midi": 36,
      "hit": false,
      "t": 63695.709499999946,
      "d": 217.3914999999979,
      "v": 100
    },
    {
      "midi": 42,
      "hit": false,
      "t": 63913.100999999646,
      "d": 217.3914999999979,
      "v": 100
    },
    {
      "midi": 40,
      "hit": false,
      "t": 63913.100999999646,
      "d": 217.3914999999979,
      "v": 100
    },
    {
      "midi": 35,
      "hit": false,
      "t": 63913.10099999967,
      "d": 217.3914999999979,
      "v": 100
    },
    {
      "midi": 59,
      "hit": false,
      "t": 63913.10099999967,
      "d": 434.7829999999958,
      "v": 100
    },
    {
      "midi": 77,
      "hit": false,
      "t": 63913.100999999886,
      "d": 217.3914999999979,
      "v": 100
    },
    {
      "midi": 48,
      "hit": false,
      "t": 63913.100999999944,
      "d": 217.3914999999979,
      "v": 100
    },
    {
      "midi": 46,
      "hit": false,
      "t": 64130.492499999644,
      "d": 217.3914999999979,
      "v": 100
    },
    {
      "midi": 72,
      "hit": false,
      "t": 64130.492499999884,
      "d": 217.3914999999979,
      "v": 100
    },
    {
      "midi": 36,
      "hit": false,
      "t": 64130.49249999994,
      "d": 217.3914999999979,
      "v": 100
    },
    {
      "midi": 42,
      "hit": false,
      "t": 64347.88399999964,
      "d": 217.3914999999979,
      "v": 100
    },
    {
      "midi": 35,
      "hit": false,
      "t": 64347.88399999966,
      "d": 217.3914999999979,
      "v": 100
    },
    {
      "midi": 42,
      "hit": false,
      "t": 64347.88399999966,
      "d": 217.3914999999979,
      "v": 100
    },
    {
      "midi": 59,
      "hit": false,
      "t": 64347.88399999966,
      "d": 434.7829999999958,
      "v": 100
    },
    {
      "midi": 79,
      "hit": false,
      "t": 64347.88399999988,
      "d": 217.3914999999979,
      "v": 100
    },
    {
      "midi": 36,
      "hit": false,
      "t": 64347.88399999994,
      "d": 434.7830000000031,
      "v": 100
    },
    {
      "midi": 46,
      "hit": false,
      "t": 64565.27549999964,
      "d": 217.3914999999979,
      "v": 100
    },
    {
      "midi": 42,
      "hit": false,
      "t": 64565.27549999966,
      "d": 108.69574999999895,
      "v": 100
    },
    {
      "midi": 72,
      "hit": false,
      "t": 64565.27549999988,
      "d": 217.3914999999979,
      "v": 100
    },
    {
      "midi": 42,
      "hit": false,
      "t": 64673.97124999966,
      "d": 108.69574999999895,
      "v": 100
    },
    {
      "midi": 42,
      "hit": false,
      "t": 64782.66699999964,
      "d": 217.3914999999979,
      "v": 100
    },
    {
      "midi": 35,
      "hit": false,
      "t": 64782.66699999966,
      "d": 217.3914999999979,
      "v": 100
    },
    {
      "midi": 42,
      "hit": false,
      "t": 64782.66699999966,
      "d": 217.3914999999979,
      "v": 100
    },
    {
      "midi": 59,
      "hit": false,
      "t": 64782.66699999966,
      "d": 434.7829999999958,
      "v": 100
    },
    {
      "midi": 77,
      "hit": false,
      "t": 64782.66699999988,
      "d": 217.3914999999979,
      "v": 100
    },
    {
      "midi": 48,
      "hit": false,
      "t": 64782.66699999994,
      "d": 217.3914999999979,
      "v": 100
    },
    {
      "midi": 46,
      "hit": false,
      "t": 65000.058499999635,
      "d": 217.3914999999979,
      "v": 100
    },
    {
      "midi": 42,
      "hit": false,
      "t": 65000.05849999966,
      "d": 108.69574999999895,
      "v": 100
    },
    {
      "midi": 72,
      "hit": false,
      "t": 65000.058499999875,
      "d": 217.3914999999979,
      "v": 100
    },
    {
      "midi": 36,
      "hit": false,
      "t": 65000.05849999994,
      "d": 217.3914999999979,
      "v": 100
    },
    {
      "midi": 42,
      "hit": false,
      "t": 65108.754249999656,
      "d": 108.69574999999895,
      "v": 100
    },
    {
      "midi": 42,
      "hit": false,
      "t": 65217.44999999963,
      "d": 217.3914999999979,
      "v": 100
    },
    {
      "midi": 40,
      "hit": false,
      "t": 65217.449999999655,
      "d": 108.69574999999895,
      "v": 100
    },
    {
      "midi": 42,
      "hit": false,
      "t": 65217.449999999655,
      "d": 217.3914999999979,
      "v": 100
    },
    {
      "midi": 35,
      "hit": false,
      "t": 65217.449999999655,
      "d": 217.3914999999979,
      "v": 100
    },
    {
      "midi": 59,
      "hit": false,
      "t": 65217.449999999655,
      "d": 434.7830000000031,
      "v": 100
    },
    {
      "midi": 75,
      "hit": false,
      "t": 65217.44999999987,
      "d": 217.3914999999979,
      "v": 100
    },
    {
      "midi": 36,
      "hit": false,
      "t": 65217.44999999994,
      "d": 108.69574999999895,
      "v": 100
    },
    {
      "midi": 40,
      "hit": false,
      "t": 65326.145749999654,
      "d": 108.69574999999895,
      "v": 100
    },
    {
      "midi": 36,
      "hit": false,
      "t": 65326.14574999994,
      "d": 108.69574999999895,
      "v": 100
    },
    {
      "midi": 46,
      "hit": false,
      "t": 65434.84149999963,
      "d": 217.3914999999979,
      "v": 100
    },
    {
      "midi": 40,
      "hit": false,
      "t": 65434.84149999965,
      "d": 108.69575000000623,
      "v": 100
    },
    {
      "midi": 46,
      "hit": false,
      "t": 65434.84149999965,
      "d": 217.39150000000518,
      "v": 100
    },
    {
      "midi": 72,
      "hit": false,
      "t": 65434.84149999987,
      "d": 217.39150000000518,
      "v": 100
    },
    {
      "midi": 36,
      "hit": false,
      "t": 65434.84149999994,
      "d": 217.3914999999979,
      "v": 100
    },
    {
      "midi": 40,
      "hit": false,
      "t": 65543.53724999966,
      "d": 108.69574999999895,
      "v": 100
    },
    {
      "midi": 42,
      "hit": false,
      "t": 65652.23299999963,
      "d": 217.3914999999979,
      "v": 100
    },
    {
      "midi": 40,
      "hit": false,
      "t": 65652.23299999963,
      "d": 217.3914999999979,
      "v": 100
    },
    {
      "midi": 40,
      "hit": false,
      "t": 65652.23299999966,
      "d": 54.34787500000675,
      "v": 100
    },
    {
      "midi": 35,
      "hit": false,
      "t": 65652.23299999966,
      "d": 217.391500000027,
      "v": 100
    },
    {
      "midi": 59,
      "hit": false,
      "t": 65652.23299999966,
      "d": 434.783000000054,
      "v": 100
    },
    {
      "midi": 77,
      "hit": false,
      "t": 65652.23299999988,
      "d": 217.3914999999979,
      "v": 100
    },
    {
      "midi": 48,
      "hit": false,
      "t": 65652.23299999993,
      "d": 217.3914999999979,
      "v": 100
    },
    {
      "midi": 40,
      "hit": false,
      "t": 65706.58087499966,
      "d": 54.34787500000675,
      "v": 100
    },
    {
      "midi": 40,
      "hit": false,
      "t": 65760.92874999967,
      "d": 54.34787500000675,
      "v": 100
    },
    {
      "midi": 40,
      "hit": false,
      "t": 65815.27662499968,
      "d": 54.34787500000675,
      "v": 100
    },
    {
      "midi": 46,
      "hit": false,
      "t": 65869.62449999963,
      "d": 217.3914999999979,
      "v": 100
    },
    {
      "midi": 40,
      "hit": false,
      "t": 65869.62449999969,
      "d": 54.34787500000675,
      "v": 100
    },
    {
      "midi": 72,
      "hit": false,
      "t": 65869.62449999987,
      "d": 217.3914999999979,
      "v": 100
    },
    {
      "midi": 36,
      "hit": false,
      "t": 65869.62449999993,
      "d": 217.3914999999979,
      "v": 100
    },
    {
      "midi": 40,
      "hit": false,
      "t": 65923.97237499969,
      "d": 54.34787500000675,
      "v": 100
    },
    {
      "midi": 40,
      "hit": false,
      "t": 65978.3202499997,
      "d": 54.34787500000675,
      "v": 100
    },
    {
      "midi": 40,
      "hit": false,
      "t": 66032.6681249997,
      "d": 54.34787500000675,
      "v": 100
    },
    {
      "midi": 42,
      "hit": false,
      "t": 66087.01599999962,
      "d": 217.3914999999979,
      "v": 100
    },
    {
      "midi": 42,
      "hit": false,
      "t": 66087.01599999971,
      "d": 217.3914999999979,
      "v": 100
    },
    {
      "midi": 35,
      "hit": false,
      "t": 66087.01599999971,
      "d": 217.3914999999979,
      "v": 100
    },
    {
      "midi": 59,
      "hit": false,
      "t": 66087.01599999971,
      "d": 434.7829999999958,
      "v": 100
    },
    {
      "midi": 36,
      "hit": false,
      "t": 66087.01599999981,
      "d": 3478.2639999999956,
      "v": 100
    },
    {
      "midi": 79,
      "hit": false,
      "t": 66087.01599999987,
      "d": 217.3914999999979,
      "v": 100
    },
    {
      "midi": 36,
      "hit": false,
      "t": 66087.01599999993,
      "d": 434.7829999999958,
      "v": 100
    },
    {
      "midi": 65,
      "hit": false,
      "t": 66087.01600000002,
      "d": 3478.2639999999956,
      "v": 100
    },
    {
      "midi": 55,
      "hit": false,
      "t": 66087.01600000002,
      "d": 3478.2639999999956,
      "v": 100
    },
    {
      "midi": 62,
      "hit": false,
      "t": 66087.01600000002,
      "d": 3478.2639999999956,
      "v": 100
    },
    {
      "midi": 58,
      "hit": false,
      "t": 66087.01600000002,
      "d": 3478.2639999999956,
      "v": 100
    },
    {
      "midi": 48,
      "hit": false,
      "t": 66087.01600000002,
      "d": 3478.2639999999956,
      "v": 100
    },
    {
      "midi": 65,
      "hit": false,
      "t": 66087.01600000002,
      "d": 3478.2639999999956,
      "v": 100
    },
    {
      "midi": 55,
      "hit": false,
      "t": 66087.01600000002,
      "d": 3478.2639999999956,
      "v": 100
    },
    {
      "midi": 62,
      "hit": false,
      "t": 66087.01600000002,
      "d": 3478.2639999999956,
      "v": 100
    },
    {
      "midi": 58,
      "hit": false,
      "t": 66087.01600000002,
      "d": 3478.2639999999956,
      "v": 100
    },
    {
      "midi": 48,
      "hit": false,
      "t": 66087.01600000002,
      "d": 3478.2639999999956,
      "v": 100
    },
    {
      "midi": 46,
      "hit": false,
      "t": 66304.40749999962,
      "d": 217.3914999999979,
      "v": 100
    },
    {
      "midi": 42,
      "hit": false,
      "t": 66304.40749999971,
      "d": 108.69574999999895,
      "v": 100
    },
    {
      "midi": 72,
      "hit": false,
      "t": 66304.40749999987,
      "d": 217.3914999999979,
      "v": 100
    },
    {
      "midi": 42,
      "hit": false,
      "t": 66413.10324999971,
      "d": 108.69574999999895,
      "v": 100
    },
    {
      "midi": 40,
      "hit": false,
      "t": 66521.79899999962,
      "d": 217.3914999999979,
      "v": 100
    },
    {
      "midi": 42,
      "hit": false,
      "t": 66521.79899999962,
      "d": 217.3914999999979,
      "v": 100
    },
    {
      "midi": 40,
      "hit": false,
      "t": 66521.79899999971,
      "d": 217.3914999999979,
      "v": 100
    },
    {
      "midi": 35,
      "hit": false,
      "t": 66521.79899999971,
      "d": 217.3914999999979,
      "v": 100
    },
    {
      "midi": 42,
      "hit": false,
      "t": 66521.79899999971,
      "d": 217.3914999999979,
      "v": 100
    },
    {
      "midi": 59,
      "hit": false,
      "t": 66521.79899999971,
      "d": 434.7829999999958,
      "v": 100
    },
    {
      "midi": 77,
      "hit": false,
      "t": 66521.79899999987,
      "d": 217.3914999999979,
      "v": 100
    },
    {
      "midi": 48,
      "hit": false,
      "t": 66521.79899999993,
      "d": 217.3914999999979,
      "v": 100
    },
    {
      "midi": 46,
      "hit": false,
      "t": 66739.19049999962,
      "d": 217.3914999999979,
      "v": 100
    },
    {
      "midi": 42,
      "hit": false,
      "t": 66739.1904999997,
      "d": 108.69574999999895,
      "v": 100
    },
    {
      "midi": 72,
      "hit": false,
      "t": 66739.19049999987,
      "d": 217.3914999999979,
      "v": 100
    },
    {
      "midi": 36,
      "hit": false,
      "t": 66739.19049999992,
      "d": 217.3914999999979,
      "v": 100
    },
    {
      "midi": 40,
      "hit": false,
      "t": 66847.8862499997,
      "d": 108.69574999999895,
      "v": 100
    },
    {
      "midi": 42,
      "hit": false,
      "t": 66847.8862499997,
      "d": 108.69574999999895,
      "v": 100
    },
    {
      "midi": 42,
      "hit": false,
      "t": 66956.58199999962,
      "d": 217.3914999999979,
      "v": 100
    },
    {
      "midi": 35,
      "hit": false,
      "t": 66956.5819999997,
      "d": 217.3914999999979,
      "v": 100
    },
    {
      "midi": 42,
      "hit": false,
      "t": 66956.5819999997,
      "d": 217.3914999999979,
      "v": 100
    },
    {
      "midi": 59,
      "hit": false,
      "t": 66956.5819999997,
      "d": 434.7829999999958,
      "v": 100
    },
    {
      "midi": 79,
      "hit": false,
      "t": 66956.58199999986,
      "d": 217.3914999999979,
      "v": 100
    },
    {
      "midi": 36,
      "hit": false,
      "t": 66956.58199999992,
      "d": 108.69574999999895,
      "v": 100
    },
    {
      "midi": 40,
      "hit": false,
      "t": 67065.2777499997,
      "d": 108.69574999999895,
      "v": 100
    },
    {
      "midi": 36,
      "hit": false,
      "t": 67065.27774999992,
      "d": 108.69574999999895,
      "v": 100
    },
    {
      "midi": 46,
      "hit": false,
      "t": 67173.97349999961,
      "d": 217.3914999999979,
      "v": 100
    },
    {
      "midi": 46,
      "hit": false,
      "t": 67173.9734999997,
      "d": 217.3914999999979,
      "v": 100
    },
    {
      "midi": 72,
      "hit": false,
      "t": 67173.97349999986,
      "d": 217.3914999999979,
      "v": 100
    },
    {
      "midi": 36,
      "hit": false,
      "t": 67173.97349999992,
      "d": 217.3914999999979,
      "v": 100
    },
    {
      "midi": 40,
      "hit": false,
      "t": 67391.36499999961,
      "d": 217.3914999999979,
      "v": 100
    },
    {
      "midi": 42,
      "hit": false,
      "t": 67391.36499999961,
      "d": 217.3914999999979,
      "v": 100
    },
    {
      "midi": 40,
      "hit": false,
      "t": 67391.3649999997,
      "d": 108.69574999999895,
      "v": 100
    },
    {
      "midi": 35,
      "hit": false,
      "t": 67391.3649999997,
      "d": 217.3914999999979,
      "v": 100
    },
    {
      "midi": 59,
      "hit": false,
      "t": 67391.3649999997,
      "d": 434.7829999999958,
      "v": 100
    },
    {
      "midi": 77,
      "hit": false,
      "t": 67391.36499999986,
      "d": 217.3914999999979,
      "v": 100
    },
    {
      "midi": 48,
      "hit": false,
      "t": 67391.36499999992,
      "d": 217.3914999999979,
      "v": 100
    },
    {
      "midi": 57,
      "hit": false,
      "t": 67608.75649999961,
      "d": 217.3914999999979,
      "v": 100
    },
    {
      "midi": 46,
      "hit": false,
      "t": 67608.75649999961,
      "d": 217.3914999999979,
      "v": 100
    },
    {
      "midi": 35,
      "hit": false,
      "t": 67608.7564999997,
      "d": 108.69574999999895,
      "v": 100
    },
    {
      "midi": 72,
      "hit": false,
      "t": 67608.75649999986,
      "d": 217.3914999999979,
      "v": 100
    },
    {
      "midi": 36,
      "hit": false,
      "t": 67608.75649999992,
      "d": 217.3914999999979,
      "v": 100
    },
    {
      "midi": 42,
      "hit": false,
      "t": 67826.14799999961,
      "d": 217.3914999999979,
      "v": 100
    },
    {
      "midi": 42,
      "hit": false,
      "t": 67826.1479999997,
      "d": 217.3914999999979,
      "v": 100
    },
    {
      "midi": 35,
      "hit": false,
      "t": 67826.1479999997,
      "d": 217.3914999999979,
      "v": 100
    },
    {
      "midi": 59,
      "hit": false,
      "t": 67826.1479999997,
      "d": 434.7829999999958,
      "v": 100
    },
    {
      "midi": 79,
      "hit": false,
      "t": 67826.14799999986,
      "d": 217.3914999999979,
      "v": 100
    },
    {
      "midi": 36,
      "hit": false,
      "t": 67826.14799999991,
      "d": 434.7829999999958,
      "v": 100
    },
    {
      "midi": 46,
      "hit": false,
      "t": 68043.5394999996,
      "d": 217.3914999999979,
      "v": 100
    },
    {
      "midi": 42,
      "hit": false,
      "t": 68043.5394999997,
      "d": 108.69574999999895,
      "v": 100
    },
    {
      "midi": 72,
      "hit": false,
      "t": 68043.53949999985,
      "d": 217.3914999999979,
      "v": 100
    },
    {
      "midi": 42,
      "hit": false,
      "t": 68152.23524999969,
      "d": 108.69574999999895,
      "v": 100
    },
    {
      "midi": 40,
      "hit": false,
      "t": 68260.9309999996,
      "d": 217.3914999999979,
      "v": 100
    },
    {
      "midi": 42,
      "hit": false,
      "t": 68260.9309999996,
      "d": 217.3914999999979,
      "v": 100
    },
    {
      "midi": 40,
      "hit": false,
      "t": 68260.93099999969,
      "d": 108.69574999999895,
      "v": 100
    },
    {
      "midi": 35,
      "hit": false,
      "t": 68260.93099999969,
      "d": 217.3914999999979,
      "v": 100
    },
    {
      "midi": 42,
      "hit": false,
      "t": 68260.93099999969,
      "d": 217.3914999999979,
      "v": 100
    },
    {
      "midi": 59,
      "hit": false,
      "t": 68260.93099999969,
      "d": 434.7829999999958,
      "v": 100
    },
    {
      "midi": 77,
      "hit": false,
      "t": 68260.93099999985,
      "d": 217.3914999999979,
      "v": 100
    },
    {
      "midi": 48,
      "hit": false,
      "t": 68260.93099999991,
      "d": 217.3914999999979,
      "v": 100
    },
    {
      "midi": 46,
      "hit": false,
      "t": 68478.3224999996,
      "d": 217.3914999999979,
      "v": 100
    },
    {
      "midi": 42,
      "hit": false,
      "t": 68478.32249999969,
      "d": 108.69574999999895,
      "v": 100
    },
    {
      "midi": 72,
      "hit": false,
      "t": 68478.32249999985,
      "d": 217.3914999999979,
      "v": 100
    },
    {
      "midi": 36,
      "hit": false,
      "t": 68478.32249999991,
      "d": 217.3914999999979,
      "v": 100
    },
    {
      "midi": 40,
      "hit": false,
      "t": 68587.01824999969,
      "d": 108.69574999999895,
      "v": 100
    },
    {
      "midi": 42,
      "hit": false,
      "t": 68587.01824999969,
      "d": 108.69574999999895,
      "v": 100
    },
    {
      "midi": 42,
      "hit": false,
      "t": 68695.7139999996,
      "d": 217.3914999999979,
      "v": 100
    },
    {
      "midi": 35,
      "hit": false,
      "t": 68695.71399999969,
      "d": 217.3914999999979,
      "v": 100
    },
    {
      "midi": 42,
      "hit": false,
      "t": 68695.71399999969,
      "d": 217.3914999999979,
      "v": 100
    },
    {
      "midi": 59,
      "hit": false,
      "t": 68695.71399999969,
      "d": 434.7829999999958,
      "v": 100
    },
    {
      "midi": 82,
      "hit": false,
      "t": 68695.71399999985,
      "d": 217.3914999999979,
      "v": 100
    },
    {
      "midi": 36,
      "hit": false,
      "t": 68695.7139999999,
      "d": 108.69574999999895,
      "v": 100
    },
    {
      "midi": 40,
      "hit": false,
      "t": 68804.40974999969,
      "d": 108.69574999999895,
      "v": 100
    },
    {
      "midi": 36,
      "hit": false,
      "t": 68804.4097499999,
      "d": 108.69574999999895,
      "v": 100
    },
    {
      "midi": 46,
      "hit": false,
      "t": 68913.1054999996,
      "d": 217.3914999999979,
      "v": 100
    },
    {
      "midi": 46,
      "hit": false,
      "t": 68913.10549999968,
      "d": 217.3914999999979,
      "v": 100
    },
    {
      "midi": 72,
      "hit": false,
      "t": 68913.10549999985,
      "d": 217.3914999999979,
      "v": 100
    },
    {
      "midi": 36,
      "hit": false,
      "t": 68913.1054999999,
      "d": 217.3914999999979,
      "v": 100
    },
    {
      "midi": 40,
      "hit": false,
      "t": 69130.4969999996,
      "d": 217.3914999999979,
      "v": 100
    },
    {
      "midi": 42,
      "hit": false,
      "t": 69130.4969999996,
      "d": 217.3914999999979,
      "v": 100
    },
    {
      "midi": 40,
      "hit": false,
      "t": 69130.49699999968,
      "d": 108.69574999999895,
      "v": 100
    },
    {
      "midi": 35,
      "hit": false,
      "t": 69130.49699999968,
      "d": 217.3914999999979,
      "v": 100
    },
    {
      "midi": 59,
      "hit": false,
      "t": 69130.49699999968,
      "d": 434.7829999999958,
      "v": 100
    },
    {
      "midi": 79,
      "hit": false,
      "t": 69130.49699999984,
      "d": 217.3914999999979,
      "v": 100
    },
    {
      "midi": 48,
      "hit": false,
      "t": 69130.4969999999,
      "d": 217.3914999999979,
      "v": 100
    },
    {
      "midi": 57,
      "hit": false,
      "t": 69347.8884999996,
      "d": 217.3914999999979,
      "v": 100
    },
    {
      "midi": 46,
      "hit": false,
      "t": 69347.8884999996,
      "d": 217.3914999999979,
      "v": 100
    },
    {
      "midi": 40,
      "hit": false,
      "t": 69347.88849999968,
      "d": 108.69574999999895,
      "v": 100
    },
    {
      "midi": 72,
      "hit": false,
      "t": 69347.88849999984,
      "d": 217.3914999999979,
      "v": 100
    },
    {
      "midi": 36,
      "hit": false,
      "t": 69347.8884999999,
      "d": 217.3914999999979,
      "v": 100
    },
    {
      "midi": 40,
      "hit": false,
      "t": 69456.58424999968,
      "d": 108.69574999999895,
      "v": 100
    },
    {
      "midi": 42,
      "hit": false,
      "t": 69565.27999999959,
      "d": 217.3914999999979,
      "v": 100
    },
    {
      "midi": 35,
      "hit": false,
      "t": 69565.27999999968,
      "d": 217.3914999999979,
      "v": 100
    },
    {
      "midi": 42,
      "hit": false,
      "t": 69565.27999999968,
      "d": 217.3914999999979,
      "v": 100
    },
    {
      "midi": 59,
      "hit": false,
      "t": 69565.27999999968,
      "d": 434.7829999999958,
      "v": 100
    },
    {
      "midi": 36,
      "hit": false,
      "t": 69565.27999999981,
      "d": 3478.2639999999956,
      "v": 100
    },
    {
      "midi": 79,
      "hit": false,
      "t": 69565.27999999984,
      "d": 217.3914999999979,
      "v": 100
    },
    {
      "midi": 36,
      "hit": false,
      "t": 69565.2799999999,
      "d": 434.7829999999958,
      "v": 100
    },
    {
      "midi": 48,
      "hit": false,
      "t": 69565.28000000001,
      "d": 3478.2639999999956,
      "v": 100
    },
    {
      "midi": 60,
      "hit": false,
      "t": 69565.28000000001,
      "d": 3478.2639999999956,
      "v": 100
    },
    {
      "midi": 53,
      "hit": false,
      "t": 69565.28000000001,
      "d": 3478.2639999999956,
      "v": 100
    },
    {
      "midi": 67,
      "hit": false,
      "t": 69565.28000000001,
      "d": 3478.2639999999956,
      "v": 100
    },
    {
      "midi": 55,
      "hit": false,
      "t": 69565.28000000001,
      "d": 3478.2639999999956,
      "v": 100
    },
    {
      "midi": 48,
      "hit": false,
      "t": 69565.28000000001,
      "d": 3478.2639999999956,
      "v": 100
    },
    {
      "midi": 60,
      "hit": false,
      "t": 69565.28000000001,
      "d": 3478.2639999999956,
      "v": 100
    },
    {
      "midi": 53,
      "hit": false,
      "t": 69565.28000000001,
      "d": 3478.2639999999956,
      "v": 100
    },
    {
      "midi": 67,
      "hit": false,
      "t": 69565.28000000001,
      "d": 3478.2639999999956,
      "v": 100
    },
    {
      "midi": 55,
      "hit": false,
      "t": 69565.28000000001,
      "d": 3478.2639999999956,
      "v": 100
    },
    {
      "midi": 46,
      "hit": false,
      "t": 69782.67149999959,
      "d": 217.3914999999979,
      "v": 100
    },
    {
      "midi": 42,
      "hit": false,
      "t": 69782.67149999968,
      "d": 108.69574999999895,
      "v": 100
    },
    {
      "midi": 72,
      "hit": false,
      "t": 69782.67149999984,
      "d": 217.3914999999979,
      "v": 100
    },
    {
      "midi": 42,
      "hit": false,
      "t": 69891.36724999968,
      "d": 108.69574999999895,
      "v": 100
    },
    {
      "midi": 40,
      "hit": false,
      "t": 70000.06299999959,
      "d": 217.3914999999979,
      "v": 100
    },
    {
      "midi": 42,
      "hit": false,
      "t": 70000.06299999959,
      "d": 217.3914999999979,
      "v": 100
    },
    {
      "midi": 35,
      "hit": false,
      "t": 70000.06299999967,
      "d": 217.3914999999979,
      "v": 100
    },
    {
      "midi": 40,
      "hit": false,
      "t": 70000.06299999967,
      "d": 217.3914999999979,
      "v": 100
    },
    {
      "midi": 42,
      "hit": false,
      "t": 70000.06299999967,
      "d": 217.3914999999979,
      "v": 100
    },
    {
      "midi": 59,
      "hit": false,
      "t": 70000.06299999967,
      "d": 434.7829999999958,
      "v": 100
    },
    {
      "midi": 77,
      "hit": false,
      "t": 70000.06299999983,
      "d": 217.3914999999979,
      "v": 100
    },
    {
      "midi": 48,
      "hit": false,
      "t": 70000.0629999999,
      "d": 217.3914999999979,
      "v": 100
    },
    {
      "midi": 46,
      "hit": false,
      "t": 70217.45449999959,
      "d": 217.3914999999979,
      "v": 100
    },
    {
      "midi": 42,
      "hit": false,
      "t": 70217.45449999967,
      "d": 108.69574999999895,
      "v": 100
    },
    {
      "midi": 72,
      "hit": false,
      "t": 70217.45449999983,
      "d": 217.3914999999979,
      "v": 100
    },
    {
      "midi": 36,
      "hit": false,
      "t": 70217.45449999989,
      "d": 217.3914999999979,
      "v": 100
    },
    {
      "midi": 42,
      "hit": false,
      "t": 70326.15024999967,
      "d": 108.69574999999895,
      "v": 100
    },
    {
      "midi": 40,
      "hit": false,
      "t": 70326.15024999967,
      "d": 108.69574999999895,
      "v": 100
    },
    {
      "midi": 42,
      "hit": false,
      "t": 70434.84599999958,
      "d": 217.3914999999979,
      "v": 100
    },
    {
      "midi": 42,
      "hit": false,
      "t": 70434.84599999967,
      "d": 217.3914999999979,
      "v": 100
    },
    {
      "midi": 35,
      "hit": false,
      "t": 70434.84599999967,
      "d": 217.3914999999979,
      "v": 100
    },
    {
      "midi": 59,
      "hit": false,
      "t": 70434.84599999967,
      "d": 434.7829999999958,
      "v": 100
    },
    {
      "midi": 79,
      "hit": false,
      "t": 70434.84599999983,
      "d": 217.3914999999979,
      "v": 100
    },
    {
      "midi": 36,
      "hit": false,
      "t": 70434.84599999989,
      "d": 108.69574999999895,
      "v": 100
    },
    {
      "midi": 40,
      "hit": false,
      "t": 70543.54174999967,
      "d": 108.69574999999895,
      "v": 100
    },
    {
      "midi": 36,
      "hit": false,
      "t": 70543.54174999989,
      "d": 108.69574999999895,
      "v": 100
    },
    {
      "midi": 46,
      "hit": false,
      "t": 70652.23749999958,
      "d": 217.3914999999979,
      "v": 100
    },
    {
      "midi": 46,
      "hit": false,
      "t": 70652.23749999967,
      "d": 217.3914999999979,
      "v": 100
    },
    {
      "midi": 72,
      "hit": false,
      "t": 70652.23749999983,
      "d": 217.3914999999979,
      "v": 100
    },
    {
      "midi": 36,
      "hit": false,
      "t": 70652.23749999989,
      "d": 217.3914999999979,
      "v": 100
    },
    {
      "midi": 42,
      "hit": false,
      "t": 70869.62899999958,
      "d": 217.3914999999979,
      "v": 100
    },
    {
      "midi": 40,
      "hit": false,
      "t": 70869.62899999958,
      "d": 217.3914999999979,
      "v": 100
    },
    {
      "midi": 40,
      "hit": false,
      "t": 70869.62899999967,
      "d": 108.69574999999895,
      "v": 100
    },
    {
      "midi": 35,
      "hit": false,
      "t": 70869.62899999967,
      "d": 217.3914999999979,
      "v": 100
    },
    {
      "midi": 59,
      "hit": false,
      "t": 70869.62899999967,
      "d": 434.7829999999958,
      "v": 100
    },
    {
      "midi": 77,
      "hit": false,
      "t": 70869.62899999983,
      "d": 217.3914999999979,
      "v": 100
    },
    {
      "midi": 48,
      "hit": false,
      "t": 70869.62899999988,
      "d": 217.3914999999979,
      "v": 100
    },
    {
      "midi": 46,
      "hit": false,
      "t": 71087.02049999958,
      "d": 217.3914999999979,
      "v": 100
    },
    {
      "midi": 49,
      "hit": false,
      "t": 71087.02049999958,
      "d": 217.3914999999979,
      "v": 100
    },
    {
      "midi": 35,
      "hit": false,
      "t": 71087.02049999966,
      "d": 108.69574999999895,
      "v": 100
    },
    {
      "midi": 72,
      "hit": false,
      "t": 71087.02049999982,
      "d": 217.3914999999979,
      "v": 100
    },
    {
      "midi": 36,
      "hit": false,
      "t": 71087.02049999988,
      "d": 217.3914999999979,
      "v": 100
    },
    {
      "midi": 57,
      "hit": false,
      "t": 71304.41199999957,
      "d": 217.3914999999979,
      "v": 100
    },
    {
      "midi": 42,
      "hit": false,
      "t": 71304.41199999957,
      "d": 217.3914999999979,
      "v": 100
    },
    {
      "midi": 35,
      "hit": false,
      "t": 71304.41199999966,
      "d": 217.3914999999979,
      "v": 100
    },
    {
      "midi": 42,
      "hit": false,
      "t": 71304.41199999966,
      "d": 217.3914999999979,
      "v": 100
    },
    {
      "midi": 59,
      "hit": false,
      "t": 71304.41199999966,
      "d": 434.7829999999958,
      "v": 100
    },
    {
      "midi": 79,
      "hit": false,
      "t": 71304.41199999982,
      "d": 217.3914999999979,
      "v": 100
    },
    {
      "midi": 36,
      "hit": false,
      "t": 71304.41199999988,
      "d": 434.7829999999958,
      "v": 100
    },
    {
      "midi": 46,
      "hit": false,
      "t": 71521.80349999957,
      "d": 217.3914999999979,
      "v": 100
    },
    {
      "midi": 42,
      "hit": false,
      "t": 71521.80349999966,
      "d": 108.69574999999895,
      "v": 100
    },
    {
      "midi": 72,
      "hit": false,
      "t": 71521.80349999982,
      "d": 217.3914999999979,
      "v": 100
    },
    {
      "midi": 42,
      "hit": false,
      "t": 71630.49924999966,
      "d": 108.69574999999895,
      "v": 100
    },
    {
      "midi": 40,
      "hit": false,
      "t": 71739.19499999957,
      "d": 217.3914999999979,
      "v": 100
    },
    {
      "midi": 42,
      "hit": false,
      "t": 71739.19499999957,
      "d": 217.3914999999979,
      "v": 100
    },
    {
      "midi": 40,
      "hit": false,
      "t": 71739.19499999966,
      "d": 108.69574999999895,
      "v": 100
    },
    {
      "midi": 42,
      "hit": false,
      "t": 71739.19499999966,
      "d": 217.3914999999979,
      "v": 100
    },
    {
      "midi": 35,
      "hit": false,
      "t": 71739.19499999966,
      "d": 217.3914999999979,
      "v": 100
    },
    {
      "midi": 59,
      "hit": false,
      "t": 71739.19499999966,
      "d": 434.7829999999958,
      "v": 100
    },
    {
      "midi": 77,
      "hit": false,
      "t": 71739.19499999982,
      "d": 217.3914999999979,
      "v": 100
    },
    {
      "midi": 48,
      "hit": false,
      "t": 71739.19499999988,
      "d": 217.3914999999979,
      "v": 100
    },
    {
      "midi": 46,
      "hit": false,
      "t": 71956.58649999957,
      "d": 217.3914999999979,
      "v": 100
    },
    {
      "midi": 42,
      "hit": false,
      "t": 71956.58649999966,
      "d": 108.69574999999895,
      "v": 100
    },
    {
      "midi": 72,
      "hit": false,
      "t": 71956.58649999982,
      "d": 217.3914999999979,
      "v": 100
    },
    {
      "midi": 36,
      "hit": false,
      "t": 71956.58649999987,
      "d": 217.3914999999979,
      "v": 100
    },
    {
      "midi": 42,
      "hit": false,
      "t": 72065.28224999965,
      "d": 108.69574999999895,
      "v": 100
    },
    {
      "midi": 40,
      "hit": false,
      "t": 72065.28224999965,
      "d": 108.69574999999895,
      "v": 100
    },
    {
      "midi": 42,
      "hit": false,
      "t": 72173.97799999957,
      "d": 217.3914999999979,
      "v": 100
    },
    {
      "midi": 42,
      "hit": false,
      "t": 72173.97799999965,
      "d": 217.3914999999979,
      "v": 100
    },
    {
      "midi": 35,
      "hit": false,
      "t": 72173.97799999965,
      "d": 217.3914999999979,
      "v": 100
    },
    {
      "midi": 59,
      "hit": false,
      "t": 72173.97799999965,
      "d": 434.7829999999958,
      "v": 100
    },
    {
      "midi": 75,
      "hit": false,
      "t": 72173.97799999981,
      "d": 217.3914999999979,
      "v": 100
    },
    {
      "midi": 36,
      "hit": false,
      "t": 72173.97799999987,
      "d": 108.69574999999895,
      "v": 100
    },
    {
      "midi": 40,
      "hit": false,
      "t": 72282.67374999965,
      "d": 108.69574999999895,
      "v": 100
    },
    {
      "midi": 36,
      "hit": false,
      "t": 72282.67374999987,
      "d": 108.69574999999895,
      "v": 100
    },
    {
      "midi": 46,
      "hit": false,
      "t": 72391.36949999956,
      "d": 217.3914999999979,
      "v": 100
    },
    {
      "midi": 40,
      "hit": false,
      "t": 72391.36949999965,
      "d": 108.69574999999895,
      "v": 100
    },
    {
      "midi": 46,
      "hit": false,
      "t": 72391.36949999965,
      "d": 217.3914999999979,
      "v": 100
    },
    {
      "midi": 72,
      "hit": false,
      "t": 72391.36949999981,
      "d": 217.3914999999979,
      "v": 100
    },
    {
      "midi": 36,
      "hit": false,
      "t": 72391.36949999987,
      "d": 217.3914999999979,
      "v": 100
    },
    {
      "midi": 42,
      "hit": false,
      "t": 72608.76099999956,
      "d": 217.3914999999979,
      "v": 100
    },
    {
      "midi": 40,
      "hit": false,
      "t": 72608.76099999956,
      "d": 217.3914999999979,
      "v": 100
    },
    {
      "midi": 40,
      "hit": false,
      "t": 72608.76099999965,
      "d": 108.69574999999895,
      "v": 100
    },
    {
      "midi": 35,
      "hit": false,
      "t": 72608.76099999965,
      "d": 217.3914999999979,
      "v": 100
    },
    {
      "midi": 59,
      "hit": false,
      "t": 72608.76099999965,
      "d": 434.7829999999958,
      "v": 100
    },
    {
      "midi": 77,
      "hit": false,
      "t": 72608.76099999981,
      "d": 217.3914999999979,
      "v": 100
    },
    {
      "midi": 41,
      "hit": false,
      "t": 72608.76099999985,
      "d": 45.28989583333896,
      "v": 100
    },
    {
      "midi": 48,
      "hit": false,
      "t": 72608.76099999987,
      "d": 217.3914999999979,
      "v": 100
    },
    {
      "midi": 43,
      "hit": false,
      "t": 72717.45674999985,
      "d": 45.28989583333896,
      "v": 100
    },
    {
      "midi": 46,
      "hit": false,
      "t": 72826.15249999956,
      "d": 217.3914999999979,
      "v": 100
    },
    {
      "midi": 57,
      "hit": false,
      "t": 72826.15249999956,
      "d": 217.3914999999979,
      "v": 100
    },
    {
      "midi": 40,
      "hit": false,
      "t": 72826.15249999965,
      "d": 108.69574999999895,
      "v": 100
    },
    {
      "midi": 72,
      "hit": false,
      "t": 72826.15249999981,
      "d": 217.3914999999979,
      "v": 100
    },
    {
      "midi": 46,
      "hit": false,
      "t": 72826.15249999985,
      "d": 45.28989583333896,
      "v": 100
    },
    {
      "midi": 36,
      "hit": false,
      "t": 72826.15249999987,
      "d": 217.3914999999979,
      "v": 100
    },
    {
      "midi": 40,
      "hit": false,
      "t": 72934.84824999965,
      "d": 108.69574999999895,
      "v": 100
    },
    {
      "midi": 50,
      "hit": false,
      "t": 72934.84824999985,
      "d": 45.28989583333896,
      "v": 100
    },
    {
      "midi": 49,
      "hit": false,
      "t": 73043.54399999956,
      "d": 217.3914999999979,
      "v": 100
    },
    {
      "midi": 42,
      "hit": false,
      "t": 73043.54399999956,
      "d": 217.3914999999979,
      "v": 100
    },
    {
      "midi": 42,
      "hit": false,
      "t": 73043.54399999965,
      "d": 217.3914999999979,
      "v": 100
    },
    {
      "midi": 35,
      "hit": false,
      "t": 73043.54399999965,
      "d": 217.3914999999979,
      "v": 100
    },
    {
      "midi": 59,
      "hit": false,
      "t": 73043.54399999965,
      "d": 434.7829999999958,
      "v": 100
    },
    {
      "midi": 48,
      "hit": false,
      "t": 73043.5439999998,
      "d": 108.69574999999895,
      "v": 100
    },
    {
      "midi": 36,
      "hit": false,
      "t": 73043.54399999985,
      "d": 45.28989583333896,
      "v": 100
    },
    {
      "midi": 36,
      "hit": false,
      "t": 73043.54399999986,
      "d": 434.7829999999958,
      "v": 100
    },
    {
      "midi": 55,
      "hit": false,
      "t": 73043.5439999999,
      "d": 326.08724999999686,
      "v": 100
    },
    {
      "midi": 58,
      "hit": false,
      "t": 73043.5439999999,
      "d": 326.08724999999686,
      "v": 100
    },
    {
      "midi": 65,
      "hit": false,
      "t": 73043.5439999999,
      "d": 326.08724999999686,
      "v": 100
    },
    {
      "midi": 62,
      "hit": false,
      "t": 73043.5439999999,
      "d": 326.08724999999686,
      "v": 100
    },
    {
      "midi": 58,
      "hit": false,
      "t": 73043.5439999999,
      "d": 326.08724999999686,
      "v": 100
    },
    {
      "midi": 55,
      "hit": false,
      "t": 73043.5439999999,
      "d": 326.08724999999686,
      "v": 100
    },
    {
      "midi": 62,
      "hit": false,
      "t": 73043.5439999999,
      "d": 326.08724999999686,
      "v": 100
    },
    {
      "midi": 65,
      "hit": false,
      "t": 73043.5439999999,
      "d": 326.08724999999686,
      "v": 100
    },
    {
      "midi": 65,
      "hit": false,
      "t": 73043.54400000001,
      "d": 3478.2639999999956,
      "v": 100
    },
    {
      "midi": 58,
      "hit": false,
      "t": 73043.54400000001,
      "d": 3478.2639999999956,
      "v": 100
    },
    {
      "midi": 48,
      "hit": false,
      "t": 73043.54400000001,
      "d": 3478.2639999999956,
      "v": 100
    },
    {
      "midi": 55,
      "hit": false,
      "t": 73043.54400000001,
      "d": 3478.2639999999956,
      "v": 100
    },
    {
      "midi": 62,
      "hit": false,
      "t": 73043.54400000001,
      "d": 3478.2639999999956,
      "v": 100
    },
    {
      "midi": 48,
      "hit": false,
      "t": 73043.54400000001,
      "d": 3478.2639999999956,
      "v": 100
    },
    {
      "midi": 58,
      "hit": false,
      "t": 73043.54400000001,
      "d": 3478.2639999999956,
      "v": 100
    },
    {
      "midi": 65,
      "hit": false,
      "t": 73043.54400000001,
      "d": 3478.2639999999956,
      "v": 100
    },
    {
      "midi": 62,
      "hit": false,
      "t": 73043.54400000001,
      "d": 3478.2639999999956,
      "v": 100
    },
    {
      "midi": 55,
      "hit": false,
      "t": 73043.54400000001,
      "d": 3478.2639999999956,
      "v": 100
    },
    {
      "midi": 65,
      "hit": false,
      "t": 73043.54400000001,
      "d": 3478.2639999999956,
      "v": 100
    },
    {
      "midi": 48,
      "hit": false,
      "t": 73152.2397499998,
      "d": 108.69574999999895,
      "v": 100
    },
    {
      "midi": 46,
      "hit": false,
      "t": 73260.93549999956,
      "d": 217.3914999999979,
      "v": 100
    },
    {
      "midi": 42,
      "hit": false,
      "t": 73260.93549999964,
      "d": 108.69574999999895,
      "v": 100
    },
    {
      "midi": 48,
      "hit": false,
      "t": 73260.9354999998,
      "d": 108.69574999999895,
      "v": 100
    },
    {
      "midi": 36,
      "hit": false,
      "t": 73260.93549999986,
      "d": 45.28989583333896,
      "v": 100
    },
    {
      "midi": 42,
      "hit": false,
      "t": 73369.63124999964,
      "d": 108.69574999999895,
      "v": 100
    },
    {
      "midi": 51,
      "hit": false,
      "t": 73369.6312499998,
      "d": 217.3914999999979,
      "v": 100
    },
    {
      "midi": 55,
      "hit": false,
      "t": 73369.6312499999,
      "d": 326.08724999999686,
      "v": 100
    },
    {
      "midi": 62,
      "hit": false,
      "t": 73369.6312499999,
      "d": 326.08724999999686,
      "v": 100
    },
    {
      "midi": 58,
      "hit": false,
      "t": 73369.6312499999,
      "d": 326.08724999999686,
      "v": 100
    },
    {
      "midi": 65,
      "hit": false,
      "t": 73369.6312499999,
      "d": 326.08724999999686,
      "v": 100
    },
    {
      "midi": 62,
      "hit": false,
      "t": 73369.6312499999,
      "d": 326.08724999999686,
      "v": 100
    },
    {
      "midi": 55,
      "hit": false,
      "t": 73369.6312499999,
      "d": 326.08724999999686,
      "v": 100
    },
    {
      "midi": 65,
      "hit": false,
      "t": 73369.6312499999,
      "d": 326.08724999999686,
      "v": 100
    },
    {
      "midi": 58,
      "hit": false,
      "t": 73369.6312499999,
      "d": 326.08724999999686,
      "v": 100
    },
    {
      "midi": 40,
      "hit": false,
      "t": 73478.32699999955,
      "d": 217.3914999999979,
      "v": 100
    },
    {
      "midi": 42,
      "hit": false,
      "t": 73478.32699999955,
      "d": 217.3914999999979,
      "v": 100
    },
    {
      "midi": 40,
      "hit": false,
      "t": 73478.32699999964,
      "d": 217.3914999999979,
      "v": 100
    },
    {
      "midi": 35,
      "hit": false,
      "t": 73478.32699999964,
      "d": 217.3914999999979,
      "v": 100
    },
    {
      "midi": 42,
      "hit": false,
      "t": 73478.32699999964,
      "d": 217.3914999999979,
      "v": 100
    },
    {
      "midi": 59,
      "hit": false,
      "t": 73478.32699999964,
      "d": 434.7829999999958,
      "v": 100
    },
    {
      "midi": 84,
      "hit": false,
      "t": 73478.3269999998,
      "d": 217.3914999999979,
      "v": 100
    },
    {
      "midi": 48,
      "hit": false,
      "t": 73478.32699999986,
      "d": 217.3914999999979,
      "v": 100
    },
    {
      "midi": 36,
      "hit": false,
      "t": 73478.32699999987,
      "d": 45.28989583333896,
      "v": 100
    },
    {
      "midi": 48,
      "hit": false,
      "t": 73587.0227499998,
      "d": 108.69574999999895,
      "v": 100
    },
    {
      "midi": 48,
      "hit": false,
      "t": 73587.02274999987,
      "d": 45.28989583333896,
      "v": 100
    },
    {
      "midi": 46,
      "hit": false,
      "t": 73695.71849999955,
      "d": 217.3914999999979,
      "v": 100
    },
    {
      "midi": 42,
      "hit": false,
      "t": 73695.71849999964,
      "d": 108.69574999999895,
      "v": 100
    },
    {
      "midi": 48,
      "hit": false,
      "t": 73695.7184999998,
      "d": 108.69574999999895,
      "v": 100
    },
    {
      "midi": 36,
      "hit": false,
      "t": 73695.71849999986,
      "d": 217.3914999999979,
      "v": 100
    },
    {
      "midi": 55,
      "hit": false,
      "t": 73695.7184999999,
      "d": 326.08724999999686,
      "v": 100
    },
    {
      "midi": 62,
      "hit": false,
      "t": 73695.7184999999,
      "d": 326.08724999999686,
      "v": 100
    },
    {
      "midi": 65,
      "hit": false,
      "t": 73695.7184999999,
      "d": 326.08724999999686,
      "v": 100
    },
    {
      "midi": 58,
      "hit": false,
      "t": 73695.7184999999,
      "d": 326.08724999999686,
      "v": 100
    },
    {
      "midi": 62,
      "hit": false,
      "t": 73695.7184999999,
      "d": 326.08724999999686,
      "v": 100
    },
    {
      "midi": 55,
      "hit": false,
      "t": 73695.7184999999,
      "d": 326.08724999999686,
      "v": 100
    },
    {
      "midi": 58,
      "hit": false,
      "t": 73695.7184999999,
      "d": 326.08724999999686,
      "v": 100
    },
    {
      "midi": 65,
      "hit": false,
      "t": 73695.7184999999,
      "d": 326.08724999999686,
      "v": 100
    },
    {
      "midi": 40,
      "hit": false,
      "t": 73804.41424999964,
      "d": 108.69574999999895,
      "v": 100
    },
    {
      "midi": 42,
      "hit": false,
      "t": 73804.41424999964,
      "d": 108.69574999999895,
      "v": 100
    },
    {
      "midi": 48,
      "hit": false,
      "t": 73804.4142499998,
      "d": 108.69574999999895,
      "v": 100
    },
    {
      "midi": 43,
      "hit": false,
      "t": 73804.41424999989,
      "d": 45.28989583333896,
      "v": 100
    },
    {
      "midi": 42,
      "hit": false,
      "t": 73913.10999999955,
      "d": 217.3914999999979,
      "v": 100
    },
    {
      "midi": 35,
      "hit": false,
      "t": 73913.10999999964,
      "d": 217.3914999999979,
      "v": 100
    },
    {
      "midi": 42,
      "hit": false,
      "t": 73913.10999999964,
      "d": 217.3914999999979,
      "v": 100
    },
    {
      "midi": 59,
      "hit": false,
      "t": 73913.10999999964,
      "d": 434.7829999999958,
      "v": 100
    },
    {
      "midi": 51,
      "hit": false,
      "t": 73913.1099999998,
      "d": 217.3914999999979,
      "v": 100
    },
    {
      "midi": 36,
      "hit": false,
      "t": 73913.10999999986,
      "d": 108.69574999999895,
      "v": 100
    },
    {
      "midi": 40,
      "hit": false,
      "t": 74021.80574999964,
      "d": 108.69574999999895,
      "v": 100
    },
    {
      "midi": 36,
      "hit": false,
      "t": 74021.80574999985,
      "d": 108.69574999999895,
      "v": 100
    },
    {
      "midi": 55,
      "hit": false,
      "t": 74021.8057499999,
      "d": 326.08724999999686,
      "v": 100
    },
    {
      "midi": 62,
      "hit": false,
      "t": 74021.8057499999,
      "d": 326.08724999999686,
      "v": 100
    },
    {
      "midi": 65,
      "hit": false,
      "t": 74021.8057499999,
      "d": 326.08724999999686,
      "v": 100
    },
    {
      "midi": 58,
      "hit": false,
      "t": 74021.8057499999,
      "d": 326.08724999999686,
      "v": 100
    },
    {
      "midi": 62,
      "hit": false,
      "t": 74021.8057499999,
      "d": 326.08724999999686,
      "v": 100
    },
    {
      "midi": 55,
      "hit": false,
      "t": 74021.8057499999,
      "d": 326.08724999999686,
      "v": 100
    },
    {
      "midi": 58,
      "hit": false,
      "t": 74021.8057499999,
      "d": 326.08724999999686,
      "v": 100
    },
    {
      "midi": 65,
      "hit": false,
      "t": 74021.8057499999,
      "d": 326.08724999999686,
      "v": 100
    },
    {
      "midi": 41,
      "hit": false,
      "t": 74021.8057499999,
      "d": 45.28989583333896,
      "v": 100
    },
    {
      "midi": 46,
      "hit": false,
      "t": 74130.50149999955,
      "d": 217.3914999999979,
      "v": 100
    },
    {
      "midi": 46,
      "hit": false,
      "t": 74130.50149999963,
      "d": 217.3914999999979,
      "v": 100
    },
    {
      "midi": 48,
      "hit": false,
      "t": 74130.5014999998,
      "d": 108.69574999999895,
      "v": 100
    },
    {
      "midi": 36,
      "hit": false,
      "t": 74130.50149999985,
      "d": 217.3914999999979,
      "v": 100
    },
    {
      "midi": 41,
      "hit": false,
      "t": 74130.5014999999,
      "d": 86.05080208333675,
      "v": 100
    },
    {
      "midi": 48,
      "hit": false,
      "t": 74239.1972499998,
      "d": 108.69574999999895,
      "v": 100
    },
    {
      "midi": 40,
      "hit": false,
      "t": 74347.89299999955,
      "d": 217.3914999999979,
      "v": 100
    },
    {
      "midi": 42,
      "hit": false,
      "t": 74347.89299999955,
      "d": 217.3914999999979,
      "v": 100
    },
    {
      "midi": 40,
      "hit": false,
      "t": 74347.89299999963,
      "d": 108.69574999999895,
      "v": 100
    },
    {
      "midi": 35,
      "hit": false,
      "t": 74347.89299999963,
      "d": 217.3914999999979,
      "v": 100
    },
    {
      "midi": 59,
      "hit": false,
      "t": 74347.89299999963,
      "d": 434.7829999999958,
      "v": 100
    },
    {
      "midi": 53,
      "hit": false,
      "t": 74347.89299999979,
      "d": 108.69574999999895,
      "v": 100
    },
    {
      "midi": 84,
      "hit": false,
      "t": 74347.89299999979,
      "d": 217.3914999999979,
      "v": 100
    },
    {
      "midi": 48,
      "hit": false,
      "t": 74347.89299999985,
      "d": 217.3914999999979,
      "v": 100
    },
    {
      "midi": 43,
      "hit": false,
      "t": 74347.8929999999,
      "d": 45.28989583333896,
      "v": 100
    },
    {
      "midi": 48,
      "hit": false,
      "t": 74456.58874999979,
      "d": 108.69574999999895,
      "v": 100
    },
    {
      "midi": 58,
      "hit": false,
      "t": 74456.5887499999,
      "d": 108.69574999999895,
      "v": 100
    },
    {
      "midi": 62,
      "hit": false,
      "t": 74456.5887499999,
      "d": 108.69574999999895,
      "v": 100
    },
    {
      "midi": 55,
      "hit": false,
      "t": 74456.5887499999,
      "d": 108.69574999999895,
      "v": 100
    },
    {
      "midi": 65,
      "hit": false,
      "t": 74456.5887499999,
      "d": 108.69574999999895,
      "v": 100
    },
    {
      "midi": 62,
      "hit": false,
      "t": 74456.5887499999,
      "d": 108.69574999999895,
      "v": 100
    },
    {
      "midi": 58,
      "hit": false,
      "t": 74456.5887499999,
      "d": 108.69574999999895,
      "v": 100
    },
    {
      "midi": 65,
      "hit": false,
      "t": 74456.5887499999,
      "d": 108.69574999999895,
      "v": 100
    },
    {
      "midi": 55,
      "hit": false,
      "t": 74456.5887499999,
      "d": 108.69574999999895,
      "v": 100
    },
    {
      "midi": 45,
      "hit": false,
      "t": 74456.5887499999,
      "d": 45.28989583333896,
      "v": 100
    },
    {
      "midi": 49,
      "hit": false,
      "t": 74565.28449999954,
      "d": 217.3914999999979,
      "v": 100
    },
    {
      "midi": 46,
      "hit": false,
      "t": 74565.28449999954,
      "d": 217.3914999999979,
      "v": 100
    },
    {
      "midi": 35,
      "hit": false,
      "t": 74565.28449999963,
      "d": 108.69574999999895,
      "v": 100
    },
    {
      "midi": 55,
      "hit": false,
      "t": 74565.28449999979,
      "d": 108.69574999999895,
      "v": 100
    },
    {
      "midi": 36,
      "hit": false,
      "t": 74565.28449999985,
      "d": 217.3914999999979,
      "v": 100
    },
    {
      "midi": 46,
      "hit": false,
      "t": 74565.28449999989,
      "d": 45.28989583333896,
      "v": 100
    },
    {
      "midi": 48,
      "hit": false,
      "t": 74673.98024999979,
      "d": 108.69574999999895,
      "v": 100
    },
    {
      "midi": 50,
      "hit": false,
      "t": 74673.98024999989,
      "d": 45.28989583333896,
      "v": 100
    },
    {
      "midi": 42,
      "hit": false,
      "t": 74782.67599999954,
      "d": 217.3914999999979,
      "v": 100
    },
    {
      "midi": 35,
      "hit": false,
      "t": 74782.67599999963,
      "d": 217.3914999999979,
      "v": 100
    },
    {
      "midi": 42,
      "hit": false,
      "t": 74782.67599999963,
      "d": 217.3914999999979,
      "v": 100
    },
    {
      "midi": 59,
      "hit": false,
      "t": 74782.67599999963,
      "d": 434.7829999999958,
      "v": 100
    },
    {
      "midi": 48,
      "hit": false,
      "t": 74782.67599999979,
      "d": 108.69574999999895,
      "v": 100
    },
    {
      "midi": 36,
      "hit": false,
      "t": 74782.67599999985,
      "d": 434.7829999999958,
      "v": 100
    },
    {
      "midi": 36,
      "hit": false,
      "t": 74782.67599999989,
      "d": 45.28989583333896,
      "v": 100
    },
    {
      "midi": 48,
      "hit": false,
      "t": 74891.37174999979,
      "d": 108.69574999999895,
      "v": 100
    },
    {
      "midi": 36,
      "hit": false,
      "t": 74891.37174999989,
      "d": 45.28989583333896,
      "v": 100
    },
    {
      "midi": 46,
      "hit": false,
      "t": 75000.06749999954,
      "d": 217.3914999999979,
      "v": 100
    },
    {
      "midi": 42,
      "hit": false,
      "t": 75000.06749999963,
      "d": 108.69574999999895,
      "v": 100
    },
    {
      "midi": 48,
      "hit": false,
      "t": 75000.06749999979,
      "d": 108.69574999999895,
      "v": 100
    },
    {
      "midi": 36,
      "hit": false,
      "t": 75000.06749999989,
      "d": 86.05080208333675,
      "v": 100
    },
    {
      "midi": 42,
      "hit": false,
      "t": 75108.76324999963,
      "d": 108.69574999999895,
      "v": 100
    },
    {
      "midi": 51,
      "hit": false,
      "t": 75108.76324999979,
      "d": 217.3914999999979,
      "v": 100
    },
    {
      "midi": 62,
      "hit": false,
      "t": 75108.76324999989,
      "d": 326.08724999999686,
      "v": 100
    },
    {
      "midi": 55,
      "hit": false,
      "t": 75108.76324999989,
      "d": 326.08724999999686,
      "v": 100
    },
    {
      "midi": 65,
      "hit": false,
      "t": 75108.76324999989,
      "d": 326.08724999999686,
      "v": 100
    },
    {
      "midi": 58,
      "hit": false,
      "t": 75108.76324999989,
      "d": 326.08724999999686,
      "v": 100
    },
    {
      "midi": 55,
      "hit": false,
      "t": 75108.76324999989,
      "d": 326.08724999999686,
      "v": 100
    },
    {
      "midi": 62,
      "hit": false,
      "t": 75108.76324999989,
      "d": 326.08724999999686,
      "v": 100
    },
    {
      "midi": 58,
      "hit": false,
      "t": 75108.76324999989,
      "d": 326.08724999999686,
      "v": 100
    },
    {
      "midi": 65,
      "hit": false,
      "t": 75108.76324999989,
      "d": 326.08724999999686,
      "v": 100
    },
    {
      "midi": 42,
      "hit": false,
      "t": 75217.45899999954,
      "d": 217.3914999999979,
      "v": 100
    },
    {
      "midi": 40,
      "hit": false,
      "t": 75217.45899999954,
      "d": 217.3914999999979,
      "v": 100
    },
    {
      "midi": 40,
      "hit": false,
      "t": 75217.45899999962,
      "d": 108.69574999999895,
      "v": 100
    },
    {
      "midi": 42,
      "hit": false,
      "t": 75217.45899999962,
      "d": 217.3914999999979,
      "v": 100
    },
    {
      "midi": 35,
      "hit": false,
      "t": 75217.45899999962,
      "d": 217.3914999999979,
      "v": 100
    },
    {
      "midi": 59,
      "hit": false,
      "t": 75217.45899999962,
      "d": 434.7829999999958,
      "v": 100
    },
    {
      "midi": 84,
      "hit": false,
      "t": 75217.45899999978,
      "d": 217.3914999999979,
      "v": 100
    },
    {
      "midi": 48,
      "hit": false,
      "t": 75217.45899999984,
      "d": 217.3914999999979,
      "v": 100
    },
    {
      "midi": 36,
      "hit": false,
      "t": 75217.45899999989,
      "d": 45.28989583333896,
      "v": 100
    },
    {
      "midi": 48,
      "hit": false,
      "t": 75326.15474999978,
      "d": 108.69574999999895,
      "v": 100
    },
    {
      "midi": 48,
      "hit": false,
      "t": 75326.15474999989,
      "d": 45.28989583333896,
      "v": 100
    },
    {
      "midi": 46,
      "hit": false,
      "t": 75434.85049999953,
      "d": 217.3914999999979,
      "v": 100
    },
    {
      "midi": 42,
      "hit": false,
      "t": 75434.85049999962,
      "d": 108.69574999999895,
      "v": 100
    },
    {
      "midi": 48,
      "hit": false,
      "t": 75434.85049999978,
      "d": 108.69574999999895,
      "v": 100
    },
    {
      "midi": 36,
      "hit": false,
      "t": 75434.85049999984,
      "d": 217.3914999999979,
      "v": 100
    },
    {
      "midi": 62,
      "hit": false,
      "t": 75434.85049999988,
      "d": 326.08724999999686,
      "v": 100
    },
    {
      "midi": 55,
      "hit": false,
      "t": 75434.85049999988,
      "d": 326.08724999999686,
      "v": 100
    },
    {
      "midi": 58,
      "hit": false,
      "t": 75434.85049999988,
      "d": 326.08724999999686,
      "v": 100
    },
    {
      "midi": 65,
      "hit": false,
      "t": 75434.85049999988,
      "d": 326.08724999999686,
      "v": 100
    },
    {
      "midi": 55,
      "hit": false,
      "t": 75434.85049999988,
      "d": 326.08724999999686,
      "v": 100
    },
    {
      "midi": 62,
      "hit": false,
      "t": 75434.85049999988,
      "d": 326.08724999999686,
      "v": 100
    },
    {
      "midi": 65,
      "hit": false,
      "t": 75434.85049999988,
      "d": 326.08724999999686,
      "v": 100
    },
    {
      "midi": 58,
      "hit": false,
      "t": 75434.85049999988,
      "d": 326.08724999999686,
      "v": 100
    },
    {
      "midi": 42,
      "hit": false,
      "t": 75543.54624999962,
      "d": 108.69574999999895,
      "v": 100
    },
    {
      "midi": 40,
      "hit": false,
      "t": 75543.54624999962,
      "d": 108.69574999999895,
      "v": 100
    },
    {
      "midi": 48,
      "hit": false,
      "t": 75543.54624999978,
      "d": 108.69574999999895,
      "v": 100
    },
    {
      "midi": 43,
      "hit": false,
      "t": 75543.5462499999,
      "d": 45.28989583333896,
      "v": 100
    },
    {
      "midi": 42,
      "hit": false,
      "t": 75652.24199999953,
      "d": 217.3914999999979,
      "v": 100
    },
    {
      "midi": 42,
      "hit": false,
      "t": 75652.24199999962,
      "d": 217.3914999999979,
      "v": 100
    },
    {
      "midi": 35,
      "hit": false,
      "t": 75652.24199999962,
      "d": 217.3914999999979,
      "v": 100
    },
    {
      "midi": 59,
      "hit": false,
      "t": 75652.24199999962,
      "d": 434.7829999999958,
      "v": 100
    },
    {
      "midi": 51,
      "hit": false,
      "t": 75652.24199999978,
      "d": 217.3914999999979,
      "v": 100
    },
    {
      "midi": 36,
      "hit": false,
      "t": 75652.24199999984,
      "d": 108.69574999999895,
      "v": 100
    },
    {
      "midi": 40,
      "hit": false,
      "t": 75760.93774999962,
      "d": 108.69574999999895,
      "v": 100
    },
    {
      "midi": 36,
      "hit": false,
      "t": 75760.93774999984,
      "d": 108.69574999999895,
      "v": 100
    },
    {
      "midi": 62,
      "hit": false,
      "t": 75760.93774999988,
      "d": 326.08724999999686,
      "v": 100
    },
    {
      "midi": 55,
      "hit": false,
      "t": 75760.93774999988,
      "d": 326.08724999999686,
      "v": 100
    },
    {
      "midi": 58,
      "hit": false,
      "t": 75760.93774999988,
      "d": 326.08724999999686,
      "v": 100
    },
    {
      "midi": 65,
      "hit": false,
      "t": 75760.93774999988,
      "d": 326.08724999999686,
      "v": 100
    },
    {
      "midi": 55,
      "hit": false,
      "t": 75760.93774999988,
      "d": 326.08724999999686,
      "v": 100
    },
    {
      "midi": 62,
      "hit": false,
      "t": 75760.93774999988,
      "d": 326.08724999999686,
      "v": 100
    },
    {
      "midi": 65,
      "hit": false,
      "t": 75760.93774999988,
      "d": 326.08724999999686,
      "v": 100
    },
    {
      "midi": 58,
      "hit": false,
      "t": 75760.93774999988,
      "d": 326.08724999999686,
      "v": 100
    },
    {
      "midi": 41,
      "hit": false,
      "t": 75760.93774999991,
      "d": 45.28989583333896,
      "v": 100
    },
    {
      "midi": 46,
      "hit": false,
      "t": 75869.63349999953,
      "d": 217.3914999999979,
      "v": 100
    },
    {
      "midi": 46,
      "hit": false,
      "t": 75869.63349999962,
      "d": 217.3914999999979,
      "v": 100
    },
    {
      "midi": 48,
      "hit": false,
      "t": 75869.63349999978,
      "d": 108.69574999999895,
      "v": 100
    },
    {
      "midi": 36,
      "hit": false,
      "t": 75869.63349999984,
      "d": 217.3914999999979,
      "v": 100
    },
    {
      "midi": 41,
      "hit": false,
      "t": 75869.63349999991,
      "d": 86.05080208333675,
      "v": 100
    },
    {
      "midi": 48,
      "hit": false,
      "t": 75978.32924999978,
      "d": 108.69574999999895,
      "v": 100
    },
    {
      "midi": 42,
      "hit": false,
      "t": 76087.02499999953,
      "d": 217.3914999999979,
      "v": 100
    },
    {
      "midi": 40,
      "hit": false,
      "t": 76087.02499999953,
      "d": 217.3914999999979,
      "v": 100
    },
    {
      "midi": 40,
      "hit": false,
      "t": 76087.02499999962,
      "d": 108.69574999999895,
      "v": 100
    },
    {
      "midi": 35,
      "hit": false,
      "t": 76087.02499999962,
      "d": 217.3914999999979,
      "v": 100
    },
    {
      "midi": 59,
      "hit": false,
      "t": 76087.02499999962,
      "d": 434.7829999999958,
      "v": 100
    },
    {
      "midi": 53,
      "hit": false,
      "t": 76087.02499999978,
      "d": 108.69574999999895,
      "v": 100
    },
    {
      "midi": 84,
      "hit": false,
      "t": 76087.02499999978,
      "d": 217.3914999999979,
      "v": 100
    },
    {
      "midi": 48,
      "hit": false,
      "t": 76087.02499999983,
      "d": 217.3914999999979,
      "v": 100
    },
    {
      "midi": 43,
      "hit": false,
      "t": 76087.0249999999,
      "d": 45.28989583333896,
      "v": 100
    },
    {
      "midi": 48,
      "hit": false,
      "t": 76195.72074999977,
      "d": 108.69574999999895,
      "v": 100
    },
    {
      "midi": 62,
      "hit": false,
      "t": 76195.72074999988,
      "d": 108.69574999999895,
      "v": 100
    },
    {
      "midi": 58,
      "hit": false,
      "t": 76195.72074999988,
      "d": 108.69574999999895,
      "v": 100
    },
    {
      "midi": 65,
      "hit": false,
      "t": 76195.72074999988,
      "d": 108.69574999999895,
      "v": 100
    },
    {
      "midi": 55,
      "hit": false,
      "t": 76195.72074999988,
      "d": 108.69574999999895,
      "v": 100
    },
    {
      "midi": 58,
      "hit": false,
      "t": 76195.72074999988,
      "d": 108.69574999999895,
      "v": 100
    },
    {
      "midi": 62,
      "hit": false,
      "t": 76195.72074999988,
      "d": 108.69574999999895,
      "v": 100
    },
    {
      "midi": 55,
      "hit": false,
      "t": 76195.72074999988,
      "d": 108.69574999999895,
      "v": 100
    },
    {
      "midi": 65,
      "hit": false,
      "t": 76195.72074999988,
      "d": 108.69574999999895,
      "v": 100
    },
    {
      "midi": 45,
      "hit": false,
      "t": 76195.7207499999,
      "d": 45.28989583333896,
      "v": 100
    },
    {
      "midi": 46,
      "hit": false,
      "t": 76304.41649999953,
      "d": 217.3914999999979,
      "v": 100
    },
    {
      "midi": 57,
      "hit": false,
      "t": 76304.41649999953,
      "d": 217.3914999999979,
      "v": 100
    },
    {
      "midi": 40,
      "hit": false,
      "t": 76304.41649999961,
      "d": 108.69574999999895,
      "v": 100
    },
    {
      "midi": 55,
      "hit": false,
      "t": 76304.41649999977,
      "d": 108.69574999999895,
      "v": 100
    },
    {
      "midi": 36,
      "hit": false,
      "t": 76304.41649999983,
      "d": 217.3914999999979,
      "v": 100
    },
    {
      "midi": 46,
      "hit": false,
      "t": 76304.4164999999,
      "d": 45.28989583333896,
      "v": 100
    },
    {
      "midi": 40,
      "hit": false,
      "t": 76413.11224999961,
      "d": 108.69574999999895,
      "v": 100
    },
    {
      "midi": 48,
      "hit": false,
      "t": 76413.11224999977,
      "d": 108.69574999999895,
      "v": 100
    },
    {
      "midi": 50,
      "hit": false,
      "t": 76413.1122499999,
      "d": 45.28989583333896,
      "v": 100
    },
    {
      "midi": 49,
      "hit": false,
      "t": 76521.80799999952,
      "d": 217.3914999999979,
      "v": 100
    },
    {
      "midi": 42,
      "hit": false,
      "t": 76521.80799999952,
      "d": 217.3914999999979,
      "v": 100
    },
    {
      "midi": 42,
      "hit": false,
      "t": 76521.80799999961,
      "d": 217.3914999999979,
      "v": 100
    },
    {
      "midi": 35,
      "hit": false,
      "t": 76521.80799999961,
      "d": 217.3914999999979,
      "v": 100
    },
    {
      "midi": 59,
      "hit": false,
      "t": 76521.80799999961,
      "d": 434.7829999999958,
      "v": 100
    },
    {
      "midi": 48,
      "hit": false,
      "t": 76521.80799999977,
      "d": 108.69574999999895,
      "v": 100
    },
    {
      "midi": 36,
      "hit": false,
      "t": 76521.80799999983,
      "d": 434.7829999999958,
      "v": 100
    },
    {
      "midi": 63,
      "hit": false,
      "t": 76521.80799999987,
      "d": 326.08724999999686,
      "v": 100
    },
    {
      "midi": 60,
      "hit": false,
      "t": 76521.80799999987,
      "d": 326.08724999999686,
      "v": 100
    },
    {
      "midi": 56,
      "hit": false,
      "t": 76521.80799999987,
      "d": 326.08724999999686,
      "v": 100
    },
    {
      "midi": 56,
      "hit": false,
      "t": 76521.80799999987,
      "d": 326.08724999999686,
      "v": 100
    },
    {
      "midi": 60,
      "hit": false,
      "t": 76521.80799999987,
      "d": 326.08724999999686,
      "v": 100
    },
    {
      "midi": 63,
      "hit": false,
      "t": 76521.80799999987,
      "d": 326.08724999999686,
      "v": 100
    },
    {
      "midi": 36,
      "hit": false,
      "t": 76521.8079999999,
      "d": 45.28989583333896,
      "v": 100
    },
    {
      "midi": 56,
      "hit": false,
      "t": 76521.808,
      "d": 3478.2639999999956,
      "v": 100
    },
    {
      "midi": 63,
      "hit": false,
      "t": 76521.808,
      "d": 3478.2639999999956,
      "v": 100
    },
    {
      "midi": 53,
      "hit": false,
      "t": 76521.808,
      "d": 3478.2639999999956,
      "v": 100
    },
    {
      "midi": 68,
      "hit": false,
      "t": 76521.808,
      "d": 3478.2639999999956,
      "v": 100
    },
    {
      "midi": 51,
      "hit": false,
      "t": 76521.808,
      "d": 3478.2639999999956,
      "v": 100
    },
    {
      "midi": 53,
      "hit": false,
      "t": 76521.808,
      "d": 3478.2639999999956,
      "v": 100
    },
    {
      "midi": 63,
      "hit": false,
      "t": 76521.808,
      "d": 3478.2639999999956,
      "v": 100
    },
    {
      "midi": 56,
      "hit": false,
      "t": 76521.808,
      "d": 3478.2639999999956,
      "v": 100
    },
    {
      "midi": 51,
      "hit": false,
      "t": 76521.808,
      "d": 3478.2639999999956,
      "v": 100
    },
    {
      "midi": 68,
      "hit": false,
      "t": 76521.808,
      "d": 3478.2639999999956,
      "v": 100
    },
    {
      "midi": 60,
      "hit": false,
      "t": 76521.808,
      "d": 3478.2639999999956,
      "v": 100
    },
    {
      "midi": 67,
      "hit": false,
      "t": 76521.808,
      "d": 3478.2639999999956,
      "v": 100
    },
    {
      "midi": 48,
      "hit": false,
      "t": 76630.50374999977,
      "d": 108.69574999999895,
      "v": 100
    },
    {
      "midi": 46,
      "hit": false,
      "t": 76739.19949999952,
      "d": 217.3914999999979,
      "v": 100
    },
    {
      "midi": 42,
      "hit": false,
      "t": 76739.19949999961,
      "d": 108.69574999999895,
      "v": 100
    },
    {
      "midi": 48,
      "hit": false,
      "t": 76739.19949999977,
      "d": 108.69574999999895,
      "v": 100
    },
    {
      "midi": 36,
      "hit": false,
      "t": 76739.19949999992,
      "d": 45.28989583333896,
      "v": 100
    },
    {
      "midi": 42,
      "hit": false,
      "t": 76847.89524999961,
      "d": 108.69574999999895,
      "v": 100
    },
    {
      "midi": 51,
      "hit": false,
      "t": 76847.89524999977,
      "d": 217.3914999999979,
      "v": 100
    },
    {
      "midi": 60,
      "hit": false,
      "t": 76847.89524999987,
      "d": 326.08724999999686,
      "v": 100
    },
    {
      "midi": 63,
      "hit": false,
      "t": 76847.89524999987,
      "d": 326.08724999999686,
      "v": 100
    },
    {
      "midi": 56,
      "hit": false,
      "t": 76847.89524999987,
      "d": 326.08724999999686,
      "v": 100
    },
    {
      "midi": 56,
      "hit": false,
      "t": 76847.89524999987,
      "d": 326.08724999999686,
      "v": 100
    },
    {
      "midi": 63,
      "hit": false,
      "t": 76847.89524999987,
      "d": 326.08724999999686,
      "v": 100
    },
    {
      "midi": 60,
      "hit": false,
      "t": 76847.89524999987,
      "d": 326.08724999999686,
      "v": 100
    },
    {
      "midi": 42,
      "hit": false,
      "t": 76956.59099999952,
      "d": 217.3914999999979,
      "v": 100
    },
    {
      "midi": 40,
      "hit": false,
      "t": 76956.59099999952,
      "d": 217.3914999999979,
      "v": 100
    },
    {
      "midi": 40,
      "hit": false,
      "t": 76956.59099999961,
      "d": 217.3914999999979,
      "v": 100
    },
    {
      "midi": 35,
      "hit": false,
      "t": 76956.59099999961,
      "d": 217.3914999999979,
      "v": 100
    },
    {
      "midi": 42,
      "hit": false,
      "t": 76956.59099999961,
      "d": 217.3914999999979,
      "v": 100
    },
    {
      "midi": 59,
      "hit": false,
      "t": 76956.59099999961,
      "d": 434.7829999999958,
      "v": 100
    },
    {
      "midi": 84,
      "hit": false,
      "t": 76956.59099999977,
      "d": 217.3914999999979,
      "v": 100
    },
    {
      "midi": 48,
      "hit": false,
      "t": 76956.59099999983,
      "d": 217.3914999999979,
      "v": 100
    },
    {
      "midi": 36,
      "hit": false,
      "t": 76956.59099999993,
      "d": 45.28989583333896,
      "v": 100
    },
    {
      "midi": 48,
      "hit": false,
      "t": 77065.28674999977,
      "d": 108.69574999999895,
      "v": 100
    },
    {
      "midi": 48,
      "hit": false,
      "t": 77065.28674999993,
      "d": 45.28989583333896,
      "v": 100
    },
    {
      "midi": 46,
      "hit": false,
      "t": 77173.98249999952,
      "d": 217.3914999999979,
      "v": 100
    },
    {
      "midi": 42,
      "hit": false,
      "t": 77173.9824999996,
      "d": 108.69574999999895,
      "v": 100
    },
    {
      "midi": 48,
      "hit": false,
      "t": 77173.98249999977,
      "d": 108.69574999999895,
      "v": 100
    },
    {
      "midi": 36,
      "hit": false,
      "t": 77173.98249999982,
      "d": 217.3914999999979,
      "v": 100
    },
    {
      "midi": 60,
      "hit": false,
      "t": 77173.98249999987,
      "d": 326.08724999999686,
      "v": 100
    },
    {
      "midi": 63,
      "hit": false,
      "t": 77173.98249999987,
      "d": 326.08724999999686,
      "v": 100
    },
    {
      "midi": 56,
      "hit": false,
      "t": 77173.98249999987,
      "d": 326.08724999999686,
      "v": 100
    },
    {
      "midi": 56,
      "hit": false,
      "t": 77173.98249999987,
      "d": 326.08724999999686,
      "v": 100
    },
    {
      "midi": 63,
      "hit": false,
      "t": 77173.98249999987,
      "d": 326.08724999999686,
      "v": 100
    },
    {
      "midi": 60,
      "hit": false,
      "t": 77173.98249999987,
      "d": 326.08724999999686,
      "v": 100
    },
    {
      "midi": 40,
      "hit": false,
      "t": 77282.6782499996,
      "d": 108.69574999999895,
      "v": 100
    },
    {
      "midi": 42,
      "hit": false,
      "t": 77282.6782499996,
      "d": 108.69574999999895,
      "v": 100
    },
    {
      "midi": 48,
      "hit": false,
      "t": 77282.67824999976,
      "d": 108.69574999999895,
      "v": 100
    },
    {
      "midi": 43,
      "hit": false,
      "t": 77282.67824999994,
      "d": 45.28989583333896,
      "v": 100
    },
    {
      "midi": 42,
      "hit": false,
      "t": 77391.37399999952,
      "d": 217.3914999999979,
      "v": 100
    },
    {
      "midi": 35,
      "hit": false,
      "t": 77391.3739999996,
      "d": 217.3914999999979,
      "v": 100
    },
    {
      "midi": 42,
      "hit": false,
      "t": 77391.3739999996,
      "d": 217.3914999999979,
      "v": 100
    },
    {
      "midi": 59,
      "hit": false,
      "t": 77391.3739999996,
      "d": 434.7829999999958,
      "v": 100
    },
    {
      "midi": 51,
      "hit": false,
      "t": 77391.37399999976,
      "d": 217.3914999999979,
      "v": 100
    },
    {
      "midi": 36,
      "hit": false,
      "t": 77391.37399999982,
      "d": 108.69574999999895,
      "v": 100
    },
    {
      "midi": 40,
      "hit": false,
      "t": 77500.0697499996,
      "d": 108.69574999999895,
      "v": 100
    },
    {
      "midi": 36,
      "hit": false,
      "t": 77500.06974999982,
      "d": 108.69574999999895,
      "v": 100
    },
    {
      "midi": 60,
      "hit": false,
      "t": 77500.06974999986,
      "d": 326.08724999999686,
      "v": 100
    },
    {
      "midi": 63,
      "hit": false,
      "t": 77500.06974999986,
      "d": 326.08724999999686,
      "v": 100
    },
    {
      "midi": 56,
      "hit": false,
      "t": 77500.06974999986,
      "d": 326.08724999999686,
      "v": 100
    },
    {
      "midi": 56,
      "hit": false,
      "t": 77500.06974999986,
      "d": 326.08724999999686,
      "v": 100
    },
    {
      "midi": 63,
      "hit": false,
      "t": 77500.06974999986,
      "d": 326.08724999999686,
      "v": 100
    },
    {
      "midi": 60,
      "hit": false,
      "t": 77500.06974999986,
      "d": 326.08724999999686,
      "v": 100
    },
    {
      "midi": 41,
      "hit": false,
      "t": 77500.06974999995,
      "d": 45.28989583333896,
      "v": 100
    },
    {
      "midi": 46,
      "hit": false,
      "t": 77608.76549999951,
      "d": 217.3914999999979,
      "v": 100
    },
    {
      "midi": 46,
      "hit": false,
      "t": 77608.7654999996,
      "d": 217.3914999999979,
      "v": 100
    },
    {
      "midi": 48,
      "hit": false,
      "t": 77608.76549999976,
      "d": 108.69574999999895,
      "v": 100
    },
    {
      "midi": 36,
      "hit": false,
      "t": 77608.76549999982,
      "d": 217.3914999999979,
      "v": 100
    },
    {
      "midi": 41,
      "hit": false,
      "t": 77608.76549999995,
      "d": 86.05080208333675,
      "v": 100
    },
    {
      "midi": 48,
      "hit": false,
      "t": 77717.46124999976,
      "d": 108.69574999999895,
      "v": 100
    },
    {
      "midi": 40,
      "hit": false,
      "t": 77826.15699999951,
      "d": 217.3914999999979,
      "v": 100
    },
    {
      "midi": 42,
      "hit": false,
      "t": 77826.15699999951,
      "d": 217.3914999999979,
      "v": 100
    },
    {
      "midi": 40,
      "hit": false,
      "t": 77826.1569999996,
      "d": 108.69574999999895,
      "v": 100
    },
    {
      "midi": 35,
      "hit": false,
      "t": 77826.1569999996,
      "d": 217.3914999999979,
      "v": 100
    },
    {
      "midi": 59,
      "hit": false,
      "t": 77826.1569999996,
      "d": 434.7829999999958,
      "v": 100
    },
    {
      "midi": 53,
      "hit": false,
      "t": 77826.15699999976,
      "d": 108.69574999999895,
      "v": 100
    },
    {
      "midi": 84,
      "hit": false,
      "t": 77826.15699999976,
      "d": 217.3914999999979,
      "v": 100
    },
    {
      "midi": 48,
      "hit": false,
      "t": 77826.15699999982,
      "d": 217.3914999999979,
      "v": 100
    },
    {
      "midi": 43,
      "hit": false,
      "t": 77826.15699999995,
      "d": 45.28989583333896,
      "v": 100
    },
    {
      "midi": 48,
      "hit": false,
      "t": 77934.85274999976,
      "d": 108.69574999999895,
      "v": 100
    },
    {
      "midi": 63,
      "hit": false,
      "t": 77934.85274999986,
      "d": 108.69574999999895,
      "v": 100
    },
    {
      "midi": 60,
      "hit": false,
      "t": 77934.85274999986,
      "d": 108.69574999999895,
      "v": 100
    },
    {
      "midi": 56,
      "hit": false,
      "t": 77934.85274999986,
      "d": 108.69574999999895,
      "v": 100
    },
    {
      "midi": 56,
      "hit": false,
      "t": 77934.85274999986,
      "d": 108.69574999999895,
      "v": 100
    },
    {
      "midi": 60,
      "hit": false,
      "t": 77934.85274999986,
      "d": 108.69574999999895,
      "v": 100
    },
    {
      "midi": 63,
      "hit": false,
      "t": 77934.85274999986,
      "d": 108.69574999999895,
      "v": 100
    },
    {
      "midi": 45,
      "hit": false,
      "t": 77934.85274999995,
      "d": 45.28989583333896,
      "v": 100
    },
    {
      "midi": 46,
      "hit": false,
      "t": 78043.54849999951,
      "d": 217.3914999999979,
      "v": 100
    },
    {
      "midi": 35,
      "hit": false,
      "t": 78043.5484999996,
      "d": 108.69574999999895,
      "v": 100
    },
    {
      "midi": 55,
      "hit": false,
      "t": 78043.54849999976,
      "d": 108.69574999999895,
      "v": 100
    },
    {
      "midi": 36,
      "hit": false,
      "t": 78043.54849999982,
      "d": 217.3914999999979,
      "v": 100
    },
    {
      "midi": 46,
      "hit": false,
      "t": 78043.54849999995,
      "d": 45.28989583333896,
      "v": 100
    },
    {
      "midi": 48,
      "hit": false,
      "t": 78152.24424999976,
      "d": 108.69574999999895,
      "v": 100
    },
    {
      "midi": 50,
      "hit": false,
      "t": 78152.24424999995,
      "d": 45.28989583333896,
      "v": 100
    },
    {
      "midi": 42,
      "hit": false,
      "t": 78260.93999999951,
      "d": 217.3914999999979,
      "v": 100
    },
    {
      "midi": 42,
      "hit": false,
      "t": 78260.9399999996,
      "d": 217.3914999999979,
      "v": 100
    },
    {
      "midi": 35,
      "hit": false,
      "t": 78260.9399999996,
      "d": 217.3914999999979,
      "v": 100
    },
    {
      "midi": 59,
      "hit": false,
      "t": 78260.9399999996,
      "d": 434.7829999999958,
      "v": 100
    },
    {
      "midi": 48,
      "hit": false,
      "t": 78260.93999999975,
      "d": 108.69574999999895,
      "v": 100
    },
    {
      "midi": 36,
      "hit": false,
      "t": 78260.93999999981,
      "d": 434.7829999999958,
      "v": 100
    },
    {
      "midi": 36,
      "hit": false,
      "t": 78260.93999999994,
      "d": 45.28989583333896,
      "v": 100
    },
    {
      "midi": 48,
      "hit": false,
      "t": 78369.63574999975,
      "d": 108.69574999999895,
      "v": 100
    },
    {
      "midi": 36,
      "hit": false,
      "t": 78369.63574999994,
      "d": 45.28989583333896,
      "v": 100
    },
    {
      "midi": 46,
      "hit": false,
      "t": 78478.3314999995,
      "d": 217.3914999999979,
      "v": 100
    },
    {
      "midi": 42,
      "hit": false,
      "t": 78478.3314999996,
      "d": 108.69574999999895,
      "v": 100
    },
    {
      "midi": 48,
      "hit": false,
      "t": 78478.33149999975,
      "d": 108.69574999999895,
      "v": 100
    },
    {
      "midi": 36,
      "hit": false,
      "t": 78478.33149999994,
      "d": 86.05080208333675,
      "v": 100
    },
    {
      "midi": 42,
      "hit": false,
      "t": 78587.02724999959,
      "d": 108.69574999999895,
      "v": 100
    },
    {
      "midi": 51,
      "hit": false,
      "t": 78587.02724999975,
      "d": 217.3914999999979,
      "v": 100
    },
    {
      "midi": 56,
      "hit": false,
      "t": 78587.02724999985,
      "d": 326.08724999999686,
      "v": 100
    },
    {
      "midi": 63,
      "hit": false,
      "t": 78587.02724999985,
      "d": 326.08724999999686,
      "v": 100
    },
    {
      "midi": 60,
      "hit": false,
      "t": 78587.02724999985,
      "d": 326.08724999999686,
      "v": 100
    },
    {
      "midi": 60,
      "hit": false,
      "t": 78587.02724999985,
      "d": 326.08724999999686,
      "v": 100
    },
    {
      "midi": 63,
      "hit": false,
      "t": 78587.02724999985,
      "d": 326.08724999999686,
      "v": 100
    },
    {
      "midi": 56,
      "hit": false,
      "t": 78587.02724999985,
      "d": 326.08724999999686,
      "v": 100
    },
    {
      "midi": 42,
      "hit": false,
      "t": 78695.7229999995,
      "d": 217.3914999999979,
      "v": 100
    },
    {
      "midi": 40,
      "hit": false,
      "t": 78695.7229999995,
      "d": 217.3914999999979,
      "v": 100
    },
    {
      "midi": 40,
      "hit": false,
      "t": 78695.72299999959,
      "d": 108.69574999999895,
      "v": 100
    },
    {
      "midi": 35,
      "hit": false,
      "t": 78695.72299999959,
      "d": 217.3914999999979,
      "v": 100
    },
    {
      "midi": 42,
      "hit": false,
      "t": 78695.72299999959,
      "d": 217.3914999999979,
      "v": 100
    },
    {
      "midi": 59,
      "hit": false,
      "t": 78695.72299999959,
      "d": 434.7829999999958,
      "v": 100
    },
    {
      "midi": 84,
      "hit": false,
      "t": 78695.72299999975,
      "d": 217.3914999999979,
      "v": 100
    },
    {
      "midi": 48,
      "hit": false,
      "t": 78695.72299999981,
      "d": 217.3914999999979,
      "v": 100
    },
    {
      "midi": 36,
      "hit": false,
      "t": 78695.72299999994,
      "d": 45.28989583333896,
      "v": 100
    },
    {
      "midi": 48,
      "hit": false,
      "t": 78804.41874999975,
      "d": 108.69574999999895,
      "v": 100
    },
    {
      "midi": 48,
      "hit": false,
      "t": 78804.41874999994,
      "d": 45.28989583333896,
      "v": 100
    },
    {
      "midi": 46,
      "hit": false,
      "t": 78913.1144999995,
      "d": 217.3914999999979,
      "v": 100
    },
    {
      "midi": 42,
      "hit": false,
      "t": 78913.11449999959,
      "d": 108.69574999999895,
      "v": 100
    },
    {
      "midi": 48,
      "hit": false,
      "t": 78913.11449999975,
      "d": 108.69574999999895,
      "v": 100
    },
    {
      "midi": 36,
      "hit": false,
      "t": 78913.1144999998,
      "d": 217.3914999999979,
      "v": 100
    },
    {
      "midi": 56,
      "hit": false,
      "t": 78913.11449999985,
      "d": 326.08724999999686,
      "v": 100
    },
    {
      "midi": 63,
      "hit": false,
      "t": 78913.11449999985,
      "d": 326.08724999999686,
      "v": 100
    },
    {
      "midi": 60,
      "hit": false,
      "t": 78913.11449999985,
      "d": 326.08724999999686,
      "v": 100
    },
    {
      "midi": 60,
      "hit": false,
      "t": 78913.11449999985,
      "d": 326.08724999999686,
      "v": 100
    },
    {
      "midi": 63,
      "hit": false,
      "t": 78913.11449999985,
      "d": 326.08724999999686,
      "v": 100
    },
    {
      "midi": 56,
      "hit": false,
      "t": 78913.11449999985,
      "d": 326.08724999999686,
      "v": 100
    },
    {
      "midi": 40,
      "hit": false,
      "t": 79021.81024999959,
      "d": 108.69574999999895,
      "v": 100
    },
    {
      "midi": 42,
      "hit": false,
      "t": 79021.81024999959,
      "d": 108.69574999999895,
      "v": 100
    },
    {
      "midi": 48,
      "hit": false,
      "t": 79021.81024999975,
      "d": 108.69574999999895,
      "v": 100
    },
    {
      "midi": 43,
      "hit": false,
      "t": 79021.81024999995,
      "d": 45.28989583333896,
      "v": 100
    },
    {
      "midi": 42,
      "hit": false,
      "t": 79130.5059999995,
      "d": 217.3914999999979,
      "v": 100
    },
    {
      "midi": 35,
      "hit": false,
      "t": 79130.50599999959,
      "d": 217.3914999999979,
      "v": 100
    },
    {
      "midi": 42,
      "hit": false,
      "t": 79130.50599999959,
      "d": 217.3914999999979,
      "v": 100
    },
    {
      "midi": 59,
      "hit": false,
      "t": 79130.50599999959,
      "d": 434.7829999999958,
      "v": 100
    },
    {
      "midi": 51,
      "hit": false,
      "t": 79130.50599999975,
      "d": 217.3914999999979,
      "v": 100
    },
    {
      "midi": 36,
      "hit": false,
      "t": 79130.5059999998,
      "d": 108.69574999999895,
      "v": 100
    },
    {
      "midi": 40,
      "hit": false,
      "t": 79239.20174999959,
      "d": 108.69574999999895,
      "v": 100
    },
    {
      "midi": 36,
      "hit": false,
      "t": 79239.2017499998,
      "d": 108.69574999999895,
      "v": 100
    },
    {
      "midi": 56,
      "hit": false,
      "t": 79239.20174999985,
      "d": 326.08724999999686,
      "v": 100
    },
    {
      "midi": 63,
      "hit": false,
      "t": 79239.20174999985,
      "d": 326.08724999999686,
      "v": 100
    },
    {
      "midi": 60,
      "hit": false,
      "t": 79239.20174999985,
      "d": 326.08724999999686,
      "v": 100
    },
    {
      "midi": 60,
      "hit": false,
      "t": 79239.20174999985,
      "d": 326.08724999999686,
      "v": 100
    },
    {
      "midi": 63,
      "hit": false,
      "t": 79239.20174999985,
      "d": 326.08724999999686,
      "v": 100
    },
    {
      "midi": 56,
      "hit": false,
      "t": 79239.20174999985,
      "d": 326.08724999999686,
      "v": 100
    },
    {
      "midi": 41,
      "hit": false,
      "t": 79239.20174999996,
      "d": 45.28989583333896,
      "v": 100
    },
    {
      "midi": 46,
      "hit": false,
      "t": 79347.8974999995,
      "d": 217.3914999999979,
      "v": 100
    },
    {
      "midi": 40,
      "hit": false,
      "t": 79347.89749999958,
      "d": 108.69574999999895,
      "v": 100
    },
    {
      "midi": 46,
      "hit": false,
      "t": 79347.89749999958,
      "d": 217.3914999999979,
      "v": 100
    },
    {
      "midi": 48,
      "hit": false,
      "t": 79347.89749999974,
      "d": 108.69574999999895,
      "v": 100
    },
    {
      "midi": 36,
      "hit": false,
      "t": 79347.8974999998,
      "d": 217.3914999999979,
      "v": 100
    },
    {
      "midi": 41,
      "hit": false,
      "t": 79347.89749999996,
      "d": 86.05080208333675,
      "v": 100
    },
    {
      "midi": 48,
      "hit": false,
      "t": 79456.59324999974,
      "d": 108.69574999999895,
      "v": 100
    },
    {
      "midi": 40,
      "hit": false,
      "t": 79565.2889999995,
      "d": 217.3914999999979,
      "v": 100
    },
    {
      "midi": 42,
      "hit": false,
      "t": 79565.2889999995,
      "d": 217.3914999999979,
      "v": 100
    },
    {
      "midi": 40,
      "hit": false,
      "t": 79565.28899999958,
      "d": 108.69574999999895,
      "v": 100
    },
    {
      "midi": 35,
      "hit": false,
      "t": 79565.28899999958,
      "d": 217.3914999999979,
      "v": 100
    },
    {
      "midi": 59,
      "hit": false,
      "t": 79565.28899999958,
      "d": 434.7829999999958,
      "v": 100
    },
    {
      "midi": 53,
      "hit": false,
      "t": 79565.28899999974,
      "d": 108.69574999999895,
      "v": 100
    },
    {
      "midi": 84,
      "hit": false,
      "t": 79565.28899999974,
      "d": 217.3914999999979,
      "v": 100
    },
    {
      "midi": 48,
      "hit": false,
      "t": 79565.2889999998,
      "d": 217.3914999999979,
      "v": 100
    },
    {
      "midi": 43,
      "hit": false,
      "t": 79565.28899999996,
      "d": 45.28989583333896,
      "v": 100
    },
    {
      "midi": 48,
      "hit": false,
      "t": 79673.98474999974,
      "d": 108.69574999999895,
      "v": 100
    },
    {
      "midi": 56,
      "hit": false,
      "t": 79673.98474999984,
      "d": 108.69574999999895,
      "v": 100
    },
    {
      "midi": 60,
      "hit": false,
      "t": 79673.98474999984,
      "d": 108.69574999999895,
      "v": 100
    },
    {
      "midi": 63,
      "hit": false,
      "t": 79673.98474999984,
      "d": 108.69574999999895,
      "v": 100
    },
    {
      "midi": 63,
      "hit": false,
      "t": 79673.98474999984,
      "d": 108.69574999999895,
      "v": 100
    },
    {
      "midi": 60,
      "hit": false,
      "t": 79673.98474999984,
      "d": 108.69574999999895,
      "v": 100
    },
    {
      "midi": 56,
      "hit": false,
      "t": 79673.98474999984,
      "d": 108.69574999999895,
      "v": 100
    },
    {
      "midi": 45,
      "hit": false,
      "t": 79673.98474999996,
      "d": 45.28989583333896,
      "v": 100
    },
    {
      "midi": 57,
      "hit": false,
      "t": 79782.6804999995,
      "d": 217.3914999999979,
      "v": 100
    },
    {
      "midi": 46,
      "hit": false,
      "t": 79782.6804999995,
      "d": 217.3914999999979,
      "v": 100
    },
    {
      "midi": 40,
      "hit": false,
      "t": 79782.68049999958,
      "d": 108.69574999999895,
      "v": 100
    },
    {
      "midi": 35,
      "hit": false,
      "t": 79782.68049999958,
      "d": 108.69574999999895,
      "v": 100
    },
    {
      "midi": 55,
      "hit": false,
      "t": 79782.68049999974,
      "d": 108.69574999999895,
      "v": 100
    },
    {
      "midi": 36,
      "hit": false,
      "t": 79782.6804999998,
      "d": 217.3914999999979,
      "v": 100
    },
    {
      "midi": 46,
      "hit": false,
      "t": 79782.68049999996,
      "d": 45.28989583333896,
      "v": 100
    },
    {
      "midi": 40,
      "hit": false,
      "t": 79891.37624999958,
      "d": 108.69574999999895,
      "v": 100
    },
    {
      "midi": 48,
      "hit": false,
      "t": 79891.37624999974,
      "d": 108.69574999999895,
      "v": 100
    },
    {
      "midi": 50,
      "hit": false,
      "t": 79891.37624999996,
      "d": 45.28989583333896,
      "v": 100
    },
    {
      "midi": 42,
      "hit": false,
      "t": 80000.07199999949,
      "d": 217.3914999999979,
      "v": 100
    },
    {
      "midi": 35,
      "hit": false,
      "t": 80000.07199999958,
      "d": 217.3914999999979,
      "v": 100
    },
    {
      "midi": 42,
      "hit": false,
      "t": 80000.07199999958,
      "d": 217.3914999999979,
      "v": 100
    },
    {
      "midi": 59,
      "hit": false,
      "t": 80000.07199999958,
      "d": 434.7829999999958,
      "v": 100
    },
    {
      "midi": 48,
      "hit": false,
      "t": 80000.07199999974,
      "d": 108.69574999999895,
      "v": 100
    },
    {
      "midi": 36,
      "hit": false,
      "t": 80000.0719999998,
      "d": 434.7829999999958,
      "v": 100
    },
    {
      "midi": 56,
      "hit": false,
      "t": 80000.07199999984,
      "d": 326.08724999999686,
      "v": 100
    },
    {
      "midi": 60,
      "hit": false,
      "t": 80000.07199999984,
      "d": 326.08724999999686,
      "v": 100
    },
    {
      "midi": 63,
      "hit": false,
      "t": 80000.07199999984,
      "d": 326.08724999999686,
      "v": 100
    },
    {
      "midi": 63,
      "hit": false,
      "t": 80000.07199999984,
      "d": 326.08724999999686,
      "v": 100
    },
    {
      "midi": 60,
      "hit": false,
      "t": 80000.07199999984,
      "d": 326.08724999999686,
      "v": 100
    },
    {
      "midi": 56,
      "hit": false,
      "t": 80000.07199999984,
      "d": 326.08724999999686,
      "v": 100
    },
    {
      "midi": 36,
      "hit": false,
      "t": 80000.07199999996,
      "d": 45.28989583333896,
      "v": 100
    },
    {
      "midi": 58,
      "hit": false,
      "t": 80000.072,
      "d": 502.717843749997,
      "v": 100
    },
    {
      "midi": 63,
      "hit": false,
      "t": 80000.072,
      "d": 502.717843749997,
      "v": 100
    },
    {
      "midi": 70,
      "hit": false,
      "t": 80000.072,
      "d": 3478.2639999999956,
      "v": 100
    },
    {
      "midi": 53,
      "hit": false,
      "t": 80000.072,
      "d": 3478.2639999999956,
      "v": 100
    },
    {
      "midi": 51,
      "hit": false,
      "t": 80000.072,
      "d": 3478.2639999999956,
      "v": 100
    },
    {
      "midi": 63,
      "hit": false,
      "t": 80000.072,
      "d": 502.717843749997,
      "v": 100
    },
    {
      "midi": 58,
      "hit": false,
      "t": 80000.072,
      "d": 502.717843749997,
      "v": 100
    },
    {
      "midi": 70,
      "hit": false,
      "t": 80000.072,
      "d": 3478.2639999999956,
      "v": 100
    },
    {
      "midi": 51,
      "hit": false,
      "t": 80000.072,
      "d": 3478.2639999999956,
      "v": 100
    },
    {
      "midi": 53,
      "hit": false,
      "t": 80000.072,
      "d": 3478.2639999999956,
      "v": 100
    },
    {
      "midi": 63,
      "hit": false,
      "t": 80000.072,
      "d": 3478.2639999999956,
      "v": 100
    },
    {
      "midi": 68,
      "hit": false,
      "t": 80000.072,
      "d": 3478.2639999999956,
      "v": 100
    },
    {
      "midi": 48,
      "hit": false,
      "t": 80108.76774999974,
      "d": 108.69574999999895,
      "v": 100
    },
    {
      "midi": 46,
      "hit": false,
      "t": 80217.46349999949,
      "d": 217.3914999999979,
      "v": 100
    },
    {
      "midi": 42,
      "hit": false,
      "t": 80217.46349999958,
      "d": 108.69574999999895,
      "v": 100
    },
    {
      "midi": 48,
      "hit": false,
      "t": 80217.46349999974,
      "d": 108.69574999999895,
      "v": 100
    },
    {
      "midi": 36,
      "hit": false,
      "t": 80217.46349999997,
      "d": 45.28989583333896,
      "v": 100
    },
    {
      "midi": 42,
      "hit": false,
      "t": 80326.15924999957,
      "d": 108.69574999999895,
      "v": 100
    },
    {
      "midi": 51,
      "hit": false,
      "t": 80326.15924999974,
      "d": 217.3914999999979,
      "v": 100
    },
    {
      "midi": 56,
      "hit": false,
      "t": 80326.15924999984,
      "d": 326.08724999999686,
      "v": 100
    },
    {
      "midi": 63,
      "hit": false,
      "t": 80326.15924999984,
      "d": 326.08724999999686,
      "v": 100
    },
    {
      "midi": 60,
      "hit": false,
      "t": 80326.15924999984,
      "d": 326.08724999999686,
      "v": 100
    },
    {
      "midi": 60,
      "hit": false,
      "t": 80326.15924999984,
      "d": 326.08724999999686,
      "v": 100
    },
    {
      "midi": 63,
      "hit": false,
      "t": 80326.15924999984,
      "d": 326.08724999999686,
      "v": 100
    },
    {
      "midi": 56,
      "hit": false,
      "t": 80326.15924999984,
      "d": 326.08724999999686,
      "v": 100
    },
    {
      "midi": 42,
      "hit": false,
      "t": 80434.85499999949,
      "d": 217.3914999999979,
      "v": 100
    },
    {
      "midi": 40,
      "hit": false,
      "t": 80434.85499999949,
      "d": 217.3914999999979,
      "v": 100
    },
    {
      "midi": 35,
      "hit": false,
      "t": 80434.85499999957,
      "d": 217.3914999999979,
      "v": 100
    },
    {
      "midi": 40,
      "hit": false,
      "t": 80434.85499999957,
      "d": 217.3914999999979,
      "v": 100
    },
    {
      "midi": 42,
      "hit": false,
      "t": 80434.85499999957,
      "d": 217.3914999999979,
      "v": 100
    },
    {
      "midi": 59,
      "hit": false,
      "t": 80434.85499999957,
      "d": 434.7829999999958,
      "v": 100
    },
    {
      "midi": 84,
      "hit": false,
      "t": 80434.85499999973,
      "d": 217.3914999999979,
      "v": 100
    },
    {
      "midi": 48,
      "hit": false,
      "t": 80434.85499999979,
      "d": 217.3914999999979,
      "v": 100
    },
    {
      "midi": 36,
      "hit": false,
      "t": 80434.85499999998,
      "d": 45.28989583333896,
      "v": 100
    },
    {
      "midi": 48,
      "hit": false,
      "t": 80543.55074999973,
      "d": 108.69574999999895,
      "v": 100
    },
    {
      "midi": 48,
      "hit": false,
      "t": 80543.55074999998,
      "d": 45.28989583333896,
      "v": 100
    },
    {
      "midi": 46,
      "hit": false,
      "t": 80652.24649999948,
      "d": 217.3914999999979,
      "v": 100
    },
    {
      "midi": 42,
      "hit": false,
      "t": 80652.24649999957,
      "d": 108.69574999999895,
      "v": 100
    },
    {
      "midi": 48,
      "hit": false,
      "t": 80652.24649999973,
      "d": 108.69574999999895,
      "v": 100
    },
    {
      "midi": 36,
      "hit": false,
      "t": 80652.24649999979,
      "d": 217.3914999999979,
      "v": 100
    },
    {
      "midi": 56,
      "hit": false,
      "t": 80652.24649999983,
      "d": 326.08724999999686,
      "v": 100
    },
    {
      "midi": 63,
      "hit": false,
      "t": 80652.24649999983,
      "d": 326.08724999999686,
      "v": 100
    },
    {
      "midi": 60,
      "hit": false,
      "t": 80652.24649999983,
      "d": 326.08724999999686,
      "v": 100
    },
    {
      "midi": 60,
      "hit": false,
      "t": 80652.24649999983,
      "d": 326.08724999999686,
      "v": 100
    },
    {
      "midi": 63,
      "hit": false,
      "t": 80652.24649999983,
      "d": 326.08724999999686,
      "v": 100
    },
    {
      "midi": 56,
      "hit": false,
      "t": 80652.24649999983,
      "d": 326.08724999999686,
      "v": 100
    },
    {
      "midi": 42,
      "hit": false,
      "t": 80760.94224999957,
      "d": 108.69574999999895,
      "v": 100
    },
    {
      "midi": 40,
      "hit": false,
      "t": 80760.94224999957,
      "d": 108.69574999999895,
      "v": 100
    },
    {
      "midi": 48,
      "hit": false,
      "t": 80760.94224999973,
      "d": 108.69574999999895,
      "v": 100
    },
    {
      "midi": 43,
      "hit": false,
      "t": 80760.94225,
      "d": 45.28989583333896,
      "v": 100
    },
    {
      "midi": 42,
      "hit": false,
      "t": 80869.63799999948,
      "d": 217.3914999999979,
      "v": 100
    },
    {
      "midi": 42,
      "hit": false,
      "t": 80869.63799999957,
      "d": 217.3914999999979,
      "v": 100
    },
    {
      "midi": 35,
      "hit": false,
      "t": 80869.63799999957,
      "d": 217.3914999999979,
      "v": 100
    },
    {
      "midi": 59,
      "hit": false,
      "t": 80869.63799999957,
      "d": 434.7829999999958,
      "v": 100
    },
    {
      "midi": 51,
      "hit": false,
      "t": 80869.63799999973,
      "d": 217.3914999999979,
      "v": 100
    },
    {
      "midi": 36,
      "hit": false,
      "t": 80869.63799999979,
      "d": 108.69574999999895,
      "v": 100
    },
    {
      "midi": 40,
      "hit": false,
      "t": 80978.33374999957,
      "d": 108.69574999999895,
      "v": 100
    },
    {
      "midi": 36,
      "hit": false,
      "t": 80978.33374999979,
      "d": 108.69574999999895,
      "v": 100
    },
    {
      "midi": 56,
      "hit": false,
      "t": 80978.33374999983,
      "d": 326.08724999999686,
      "v": 100
    },
    {
      "midi": 63,
      "hit": false,
      "t": 80978.33374999983,
      "d": 326.08724999999686,
      "v": 100
    },
    {
      "midi": 60,
      "hit": false,
      "t": 80978.33374999983,
      "d": 326.08724999999686,
      "v": 100
    },
    {
      "midi": 60,
      "hit": false,
      "t": 80978.33374999983,
      "d": 326.08724999999686,
      "v": 100
    },
    {
      "midi": 63,
      "hit": false,
      "t": 80978.33374999983,
      "d": 326.08724999999686,
      "v": 100
    },
    {
      "midi": 56,
      "hit": false,
      "t": 80978.33374999983,
      "d": 326.08724999999686,
      "v": 100
    },
    {
      "midi": 41,
      "hit": false,
      "t": 80978.33375,
      "d": 45.28989583333896,
      "v": 100
    },
    {
      "midi": 46,
      "hit": false,
      "t": 81087.02949999948,
      "d": 217.3914999999979,
      "v": 100
    },
    {
      "midi": 46,
      "hit": false,
      "t": 81087.02949999957,
      "d": 217.3914999999979,
      "v": 100
    },
    {
      "midi": 48,
      "hit": false,
      "t": 81087.02949999973,
      "d": 108.69574999999895,
      "v": 100
    },
    {
      "midi": 36,
      "hit": false,
      "t": 81087.02949999979,
      "d": 217.3914999999979,
      "v": 100
    },
    {
      "midi": 41,
      "hit": false,
      "t": 81087.0295,
      "d": 86.05080208333675,
      "v": 100
    },
    {
      "midi": 48,
      "hit": false,
      "t": 81195.72524999973,
      "d": 108.69574999999895,
      "v": 100
    },
    {
      "midi": 42,
      "hit": false,
      "t": 81304.42099999948,
      "d": 217.3914999999979,
      "v": 100
    },
    {
      "midi": 40,
      "hit": false,
      "t": 81304.42099999948,
      "d": 217.3914999999979,
      "v": 100
    },
    {
      "midi": 40,
      "hit": false,
      "t": 81304.42099999957,
      "d": 108.69574999999895,
      "v": 100
    },
    {
      "midi": 35,
      "hit": false,
      "t": 81304.42099999957,
      "d": 217.3914999999979,
      "v": 100
    },
    {
      "midi": 59,
      "hit": false,
      "t": 81304.42099999957,
      "d": 434.7829999999958,
      "v": 100
    },
    {
      "midi": 53,
      "hit": false,
      "t": 81304.42099999973,
      "d": 108.69574999999895,
      "v": 100
    },
    {
      "midi": 84,
      "hit": false,
      "t": 81304.42099999973,
      "d": 217.3914999999979,
      "v": 100
    },
    {
      "midi": 48,
      "hit": false,
      "t": 81304.42099999978,
      "d": 217.3914999999979,
      "v": 100
    },
    {
      "midi": 43,
      "hit": false,
      "t": 81304.421,
      "d": 45.28989583333896,
      "v": 100
    },
    {
      "midi": 48,
      "hit": false,
      "t": 81413.11674999972,
      "d": 108.69574999999895,
      "v": 100
    },
    {
      "midi": 56,
      "hit": false,
      "t": 81413.11674999983,
      "d": 108.69574999999895,
      "v": 100
    },
    {
      "midi": 60,
      "hit": false,
      "t": 81413.11674999983,
      "d": 108.69574999999895,
      "v": 100
    },
    {
      "midi": 63,
      "hit": false,
      "t": 81413.11674999983,
      "d": 108.69574999999895,
      "v": 100
    },
    {
      "midi": 63,
      "hit": false,
      "t": 81413.11674999983,
      "d": 108.69574999999895,
      "v": 100
    },
    {
      "midi": 60,
      "hit": false,
      "t": 81413.11674999983,
      "d": 108.69574999999895,
      "v": 100
    },
    {
      "midi": 56,
      "hit": false,
      "t": 81413.11674999983,
      "d": 108.69574999999895,
      "v": 100
    },
    {
      "midi": 45,
      "hit": false,
      "t": 81413.11675,
      "d": 45.28989583333896,
      "v": 100
    },
    {
      "midi": 46,
      "hit": false,
      "t": 81521.81249999948,
      "d": 217.3914999999979,
      "v": 100
    },
    {
      "midi": 49,
      "hit": false,
      "t": 81521.81249999948,
      "d": 217.3914999999979,
      "v": 100
    },
    {
      "midi": 40,
      "hit": false,
      "t": 81521.81249999956,
      "d": 108.69574999999895,
      "v": 100
    },
    {
      "midi": 55,
      "hit": false,
      "t": 81521.81249999972,
      "d": 108.69574999999895,
      "v": 100
    },
    {
      "midi": 36,
      "hit": false,
      "t": 81521.81249999978,
      "d": 217.3914999999979,
      "v": 100
    },
    {
      "midi": 46,
      "hit": false,
      "t": 81521.8125,
      "d": 45.28989583333896,
      "v": 100
    },
    {
      "midi": 40,
      "hit": false,
      "t": 81630.50824999956,
      "d": 108.69574999999895,
      "v": 100
    },
    {
      "midi": 48,
      "hit": false,
      "t": 81630.50824999972,
      "d": 108.69574999999895,
      "v": 100
    },
    {
      "midi": 50,
      "hit": false,
      "t": 81630.50825,
      "d": 45.28989583333896,
      "v": 100
    },
    {
      "midi": 42,
      "hit": false,
      "t": 81739.20399999947,
      "d": 217.3914999999979,
      "v": 100
    },
    {
      "midi": 42,
      "hit": false,
      "t": 81739.20399999956,
      "d": 217.3914999999979,
      "v": 100
    },
    {
      "midi": 35,
      "hit": false,
      "t": 81739.20399999956,
      "d": 217.3914999999979,
      "v": 100
    },
    {
      "midi": 59,
      "hit": false,
      "t": 81739.20399999956,
      "d": 434.7829999999958,
      "v": 100
    },
    {
      "midi": 48,
      "hit": false,
      "t": 81739.20399999972,
      "d": 108.69574999999895,
      "v": 100
    },
    {
      "midi": 36,
      "hit": false,
      "t": 81739.20399999978,
      "d": 434.7829999999958,
      "v": 100
    },
    {
      "midi": 36,
      "hit": false,
      "t": 81739.204,
      "d": 45.28989583333896,
      "v": 100
    },
    {
      "midi": 48,
      "hit": false,
      "t": 81847.89974999972,
      "d": 108.69574999999895,
      "v": 100
    },
    {
      "midi": 36,
      "hit": false,
      "t": 81847.89975,
      "d": 45.28989583333896,
      "v": 100
    },
    {
      "midi": 46,
      "hit": false,
      "t": 81956.59549999947,
      "d": 217.3914999999979,
      "v": 100
    },
    {
      "midi": 42,
      "hit": false,
      "t": 81956.59549999956,
      "d": 108.69574999999895,
      "v": 100
    },
    {
      "midi": 48,
      "hit": false,
      "t": 81956.59549999972,
      "d": 108.69574999999895,
      "v": 100
    },
    {
      "midi": 36,
      "hit": false,
      "t": 81956.5955,
      "d": 86.05080208333675,
      "v": 100
    },
    {
      "midi": 42,
      "hit": false,
      "t": 82065.29124999956,
      "d": 108.69574999999895,
      "v": 100
    },
    {
      "midi": 51,
      "hit": false,
      "t": 82065.29124999972,
      "d": 217.3914999999979,
      "v": 100
    },
    {
      "midi": 60,
      "hit": false,
      "t": 82065.29124999982,
      "d": 326.08724999999686,
      "v": 100
    },
    {
      "midi": 63,
      "hit": false,
      "t": 82065.29124999982,
      "d": 326.08724999999686,
      "v": 100
    },
    {
      "midi": 56,
      "hit": false,
      "t": 82065.29124999982,
      "d": 326.08724999999686,
      "v": 100
    },
    {
      "midi": 56,
      "hit": false,
      "t": 82065.29124999982,
      "d": 326.08724999999686,
      "v": 100
    },
    {
      "midi": 63,
      "hit": false,
      "t": 82065.29124999982,
      "d": 326.08724999999686,
      "v": 100
    },
    {
      "midi": 60,
      "hit": false,
      "t": 82065.29124999982,
      "d": 326.08724999999686,
      "v": 100
    },
    {
      "midi": 40,
      "hit": false,
      "t": 82173.98699999947,
      "d": 217.3914999999979,
      "v": 100
    },
    {
      "midi": 42,
      "hit": false,
      "t": 82173.98699999947,
      "d": 217.3914999999979,
      "v": 100
    },
    {
      "midi": 40,
      "hit": false,
      "t": 82173.98699999956,
      "d": 108.69574999999895,
      "v": 100
    },
    {
      "midi": 35,
      "hit": false,
      "t": 82173.98699999956,
      "d": 217.3914999999979,
      "v": 100
    },
    {
      "midi": 42,
      "hit": false,
      "t": 82173.98699999956,
      "d": 217.3914999999979,
      "v": 100
    },
    {
      "midi": 59,
      "hit": false,
      "t": 82173.98699999956,
      "d": 434.7829999999958,
      "v": 100
    },
    {
      "midi": 84,
      "hit": false,
      "t": 82173.98699999972,
      "d": 217.3914999999979,
      "v": 100
    },
    {
      "midi": 48,
      "hit": false,
      "t": 82173.98699999978,
      "d": 217.3914999999979,
      "v": 100
    },
    {
      "midi": 36,
      "hit": false,
      "t": 82173.987,
      "d": 45.28989583333896,
      "v": 100
    },
    {
      "midi": 48,
      "hit": false,
      "t": 82282.68274999972,
      "d": 108.69574999999895,
      "v": 100
    },
    {
      "midi": 48,
      "hit": false,
      "t": 82282.68274999999,
      "d": 45.28989583333896,
      "v": 100
    },
    {
      "midi": 46,
      "hit": false,
      "t": 82391.37849999947,
      "d": 217.3914999999979,
      "v": 100
    },
    {
      "midi": 42,
      "hit": false,
      "t": 82391.37849999956,
      "d": 108.69574999999895,
      "v": 100
    },
    {
      "midi": 48,
      "hit": false,
      "t": 82391.37849999972,
      "d": 108.69574999999895,
      "v": 100
    },
    {
      "midi": 36,
      "hit": false,
      "t": 82391.37849999977,
      "d": 217.3914999999979,
      "v": 100
    },
    {
      "midi": 60,
      "hit": false,
      "t": 82391.37849999982,
      "d": 326.08724999999686,
      "v": 100
    },
    {
      "midi": 63,
      "hit": false,
      "t": 82391.37849999982,
      "d": 326.08724999999686,
      "v": 100
    },
    {
      "midi": 56,
      "hit": false,
      "t": 82391.37849999982,
      "d": 326.08724999999686,
      "v": 100
    },
    {
      "midi": 56,
      "hit": false,
      "t": 82391.37849999982,
      "d": 326.08724999999686,
      "v": 100
    },
    {
      "midi": 63,
      "hit": false,
      "t": 82391.37849999982,
      "d": 326.08724999999686,
      "v": 100
    },
    {
      "midi": 60,
      "hit": false,
      "t": 82391.37849999982,
      "d": 326.08724999999686,
      "v": 100
    },
    {
      "midi": 40,
      "hit": false,
      "t": 82500.07424999955,
      "d": 108.69574999999895,
      "v": 100
    },
    {
      "midi": 42,
      "hit": false,
      "t": 82500.07424999955,
      "d": 108.69574999999895,
      "v": 100
    },
    {
      "midi": 48,
      "hit": false,
      "t": 82500.07424999971,
      "d": 108.69574999999895,
      "v": 100
    },
    {
      "midi": 43,
      "hit": false,
      "t": 82500.07425,
      "d": 45.28989583333896,
      "v": 100
    },
    {
      "midi": 42,
      "hit": false,
      "t": 82608.76999999947,
      "d": 217.3914999999979,
      "v": 100
    },
    {
      "midi": 35,
      "hit": false,
      "t": 82608.76999999955,
      "d": 217.3914999999979,
      "v": 100
    },
    {
      "midi": 42,
      "hit": false,
      "t": 82608.76999999955,
      "d": 217.3914999999979,
      "v": 100
    },
    {
      "midi": 59,
      "hit": false,
      "t": 82608.76999999955,
      "d": 434.7829999999958,
      "v": 100
    },
    {
      "midi": 51,
      "hit": false,
      "t": 82608.76999999971,
      "d": 217.3914999999979,
      "v": 100
    },
    {
      "midi": 36,
      "hit": false,
      "t": 82608.76999999977,
      "d": 108.69574999999895,
      "v": 100
    },
    {
      "midi": 40,
      "hit": false,
      "t": 82717.46574999955,
      "d": 108.69574999999895,
      "v": 100
    },
    {
      "midi": 36,
      "hit": false,
      "t": 82717.46574999977,
      "d": 108.69574999999895,
      "v": 100
    },
    {
      "midi": 60,
      "hit": false,
      "t": 82717.46574999981,
      "d": 326.08724999999686,
      "v": 100
    },
    {
      "midi": 63,
      "hit": false,
      "t": 82717.46574999981,
      "d": 326.08724999999686,
      "v": 100
    },
    {
      "midi": 56,
      "hit": false,
      "t": 82717.46574999981,
      "d": 326.08724999999686,
      "v": 100
    },
    {
      "midi": 56,
      "hit": false,
      "t": 82717.46574999981,
      "d": 326.08724999999686,
      "v": 100
    },
    {
      "midi": 63,
      "hit": false,
      "t": 82717.46574999981,
      "d": 326.08724999999686,
      "v": 100
    },
    {
      "midi": 60,
      "hit": false,
      "t": 82717.46574999981,
      "d": 326.08724999999686,
      "v": 100
    },
    {
      "midi": 41,
      "hit": false,
      "t": 82717.46575000002,
      "d": 45.28989583333896,
      "v": 100
    },
    {
      "midi": 46,
      "hit": false,
      "t": 82826.16149999946,
      "d": 217.3914999999979,
      "v": 100
    },
    {
      "midi": 46,
      "hit": false,
      "t": 82826.16149999955,
      "d": 217.3914999999979,
      "v": 100
    },
    {
      "midi": 48,
      "hit": false,
      "t": 82826.16149999971,
      "d": 108.69574999999895,
      "v": 100
    },
    {
      "midi": 36,
      "hit": false,
      "t": 82826.16149999977,
      "d": 217.3914999999979,
      "v": 100
    },
    {
      "midi": 41,
      "hit": false,
      "t": 82826.16150000002,
      "d": 86.05080208333675,
      "v": 100
    },
    {
      "midi": 48,
      "hit": false,
      "t": 82934.85724999971,
      "d": 108.69574999999895,
      "v": 100
    },
    {
      "midi": 40,
      "hit": false,
      "t": 83043.55299999946,
      "d": 217.3914999999979,
      "v": 100
    },
    {
      "midi": 42,
      "hit": false,
      "t": 83043.55299999946,
      "d": 217.3914999999979,
      "v": 100
    },
    {
      "midi": 40,
      "hit": false,
      "t": 83043.55299999955,
      "d": 108.69574999999895,
      "v": 100
    },
    {
      "midi": 35,
      "hit": false,
      "t": 83043.55299999955,
      "d": 217.3914999999979,
      "v": 100
    },
    {
      "midi": 59,
      "hit": false,
      "t": 83043.55299999955,
      "d": 434.7829999999958,
      "v": 100
    },
    {
      "midi": 53,
      "hit": false,
      "t": 83043.55299999971,
      "d": 108.69574999999895,
      "v": 100
    },
    {
      "midi": 84,
      "hit": false,
      "t": 83043.55299999971,
      "d": 217.3914999999979,
      "v": 100
    },
    {
      "midi": 48,
      "hit": false,
      "t": 83043.55299999977,
      "d": 217.3914999999979,
      "v": 100
    },
    {
      "midi": 43,
      "hit": false,
      "t": 83043.55300000001,
      "d": 45.28989583333896,
      "v": 100
    },
    {
      "midi": 48,
      "hit": false,
      "t": 83152.24874999971,
      "d": 108.69574999999895,
      "v": 100
    },
    {
      "midi": 63,
      "hit": false,
      "t": 83152.24874999981,
      "d": 108.69574999999895,
      "v": 100
    },
    {
      "midi": 60,
      "hit": false,
      "t": 83152.24874999981,
      "d": 108.69574999999895,
      "v": 100
    },
    {
      "midi": 56,
      "hit": false,
      "t": 83152.24874999981,
      "d": 108.69574999999895,
      "v": 100
    },
    {
      "midi": 56,
      "hit": false,
      "t": 83152.24874999981,
      "d": 108.69574999999895,
      "v": 100
    },
    {
      "midi": 60,
      "hit": false,
      "t": 83152.24874999981,
      "d": 108.69574999999895,
      "v": 100
    },
    {
      "midi": 63,
      "hit": false,
      "t": 83152.24874999981,
      "d": 108.69574999999895,
      "v": 100
    },
    {
      "midi": 45,
      "hit": false,
      "t": 83152.24875000001,
      "d": 45.28989583333896,
      "v": 100
    },
    {
      "midi": 57,
      "hit": false,
      "t": 83260.94449999946,
      "d": 217.3914999999979,
      "v": 100
    },
    {
      "midi": 46,
      "hit": false,
      "t": 83260.94449999946,
      "d": 217.3914999999979,
      "v": 100
    },
    {
      "midi": 35,
      "hit": false,
      "t": 83260.94449999955,
      "d": 108.69574999999895,
      "v": 100
    },
    {
      "midi": 55,
      "hit": false,
      "t": 83260.9444999997,
      "d": 108.69574999999895,
      "v": 100
    },
    {
      "midi": 36,
      "hit": false,
      "t": 83260.94449999976,
      "d": 217.3914999999979,
      "v": 100
    },
    {
      "midi": 46,
      "hit": false,
      "t": 83260.94450000001,
      "d": 45.28989583333896,
      "v": 100
    },
    {
      "midi": 48,
      "hit": false,
      "t": 83369.6402499997,
      "d": 108.69574999999895,
      "v": 100
    },
    {
      "midi": 50,
      "hit": false,
      "t": 83369.64025000001,
      "d": 45.28989583333896,
      "v": 100
    },
    {
      "midi": 49,
      "hit": false,
      "t": 83478.33599999946,
      "d": 217.3914999999979,
      "v": 100
    },
    {
      "midi": 42,
      "hit": false,
      "t": 83478.33599999946,
      "d": 217.3914999999979,
      "v": 100
    },
    {
      "midi": 35,
      "hit": false,
      "t": 83478.33599999954,
      "d": 217.3914999999979,
      "v": 100
    },
    {
      "midi": 42,
      "hit": false,
      "t": 83478.33599999954,
      "d": 217.3914999999979,
      "v": 100
    },
    {
      "midi": 59,
      "hit": false,
      "t": 83478.33599999954,
      "d": 434.7829999999958,
      "v": 100
    },
    {
      "midi": 48,
      "hit": false,
      "t": 83478.3359999997,
      "d": 108.69574999999895,
      "v": 100
    },
    {
      "midi": 36,
      "hit": false,
      "t": 83478.33599999976,
      "d": 434.7829999999958,
      "v": 100
    },
    {
      "midi": 55,
      "hit": false,
      "t": 83478.3359999998,
      "d": 326.08724999999686,
      "v": 100
    },
    {
      "midi": 62,
      "hit": false,
      "t": 83478.3359999998,
      "d": 326.08724999999686,
      "v": 100
    },
    {
      "midi": 60,
      "hit": false,
      "t": 83478.3359999998,
      "d": 326.08724999999686,
      "v": 100
    },
    {
      "midi": 62,
      "hit": false,
      "t": 83478.3359999998,
      "d": 326.08724999999686,
      "v": 100
    },
    {
      "midi": 55,
      "hit": false,
      "t": 83478.3359999998,
      "d": 326.08724999999686,
      "v": 100
    },
    {
      "midi": 50,
      "hit": false,
      "t": 83478.336,
      "d": 3478.2639999999956,
      "v": 100
    },
    {
      "midi": 55,
      "hit": false,
      "t": 83478.336,
      "d": 3478.2639999999956,
      "v": 100
    },
    {
      "midi": 48,
      "hit": false,
      "t": 83478.336,
      "d": 3478.2639999999956,
      "v": 100
    },
    {
      "midi": 67,
      "hit": false,
      "t": 83478.336,
      "d": 3478.2639999999956,
      "v": 100
    },
    {
      "midi": 62,
      "hit": false,
      "t": 83478.336,
      "d": 3478.2639999999956,
      "v": 100
    },
    {
      "midi": 67,
      "hit": false,
      "t": 83478.336,
      "d": 3478.2639999999956,
      "v": 100
    },
    {
      "midi": 62,
      "hit": false,
      "t": 83478.336,
      "d": 3478.2639999999956,
      "v": 100
    },
    {
      "midi": 48,
      "hit": false,
      "t": 83478.336,
      "d": 3478.2639999999956,
      "v": 100
    },
    {
      "midi": 50,
      "hit": false,
      "t": 83478.336,
      "d": 3478.2639999999956,
      "v": 100
    },
    {
      "midi": 55,
      "hit": false,
      "t": 83478.336,
      "d": 3478.2639999999956,
      "v": 100
    },
    {
      "midi": 36,
      "hit": false,
      "t": 83478.33600000001,
      "d": 45.28989583333896,
      "v": 100
    },
    {
      "midi": 48,
      "hit": false,
      "t": 83587.0317499997,
      "d": 108.69574999999895,
      "v": 100
    },
    {
      "midi": 46,
      "hit": false,
      "t": 83695.72749999946,
      "d": 217.3914999999979,
      "v": 100
    },
    {
      "midi": 42,
      "hit": false,
      "t": 83695.72749999954,
      "d": 108.69574999999895,
      "v": 100
    },
    {
      "midi": 48,
      "hit": false,
      "t": 83695.7274999997,
      "d": 108.69574999999895,
      "v": 100
    },
    {
      "midi": 36,
      "hit": false,
      "t": 83695.72750000002,
      "d": 45.28989583333896,
      "v": 100
    },
    {
      "midi": 42,
      "hit": false,
      "t": 83804.42324999954,
      "d": 108.69574999999895,
      "v": 100
    },
    {
      "midi": 51,
      "hit": false,
      "t": 83804.4232499997,
      "d": 217.3914999999979,
      "v": 100
    },
    {
      "midi": 55,
      "hit": false,
      "t": 83804.4232499998,
      "d": 326.08724999999686,
      "v": 100
    },
    {
      "midi": 62,
      "hit": false,
      "t": 83804.4232499998,
      "d": 326.08724999999686,
      "v": 100
    },
    {
      "midi": 60,
      "hit": false,
      "t": 83804.4232499998,
      "d": 326.08724999999686,
      "v": 100
    },
    {
      "midi": 62,
      "hit": false,
      "t": 83804.4232499998,
      "d": 326.08724999999686,
      "v": 100
    },
    {
      "midi": 55,
      "hit": false,
      "t": 83804.4232499998,
      "d": 326.08724999999686,
      "v": 100
    },
    {
      "midi": 40,
      "hit": false,
      "t": 83913.11899999945,
      "d": 217.3914999999979,
      "v": 100
    },
    {
      "midi": 42,
      "hit": false,
      "t": 83913.11899999945,
      "d": 217.3914999999979,
      "v": 100
    },
    {
      "midi": 35,
      "hit": false,
      "t": 83913.11899999954,
      "d": 217.3914999999979,
      "v": 100
    },
    {
      "midi": 40,
      "hit": false,
      "t": 83913.11899999954,
      "d": 217.3914999999979,
      "v": 100
    },
    {
      "midi": 42,
      "hit": false,
      "t": 83913.11899999954,
      "d": 217.3914999999979,
      "v": 100
    },
    {
      "midi": 59,
      "hit": false,
      "t": 83913.11899999954,
      "d": 434.7829999999958,
      "v": 100
    },
    {
      "midi": 84,
      "hit": false,
      "t": 83913.1189999997,
      "d": 217.3914999999979,
      "v": 100
    },
    {
      "midi": 48,
      "hit": false,
      "t": 83913.11899999976,
      "d": 217.3914999999979,
      "v": 100
    },
    {
      "midi": 36,
      "hit": false,
      "t": 83913.11900000004,
      "d": 45.28989583333896,
      "v": 100
    },
    {
      "midi": 48,
      "hit": false,
      "t": 84021.8147499997,
      "d": 108.69574999999895,
      "v": 100
    },
    {
      "midi": 48,
      "hit": false,
      "t": 84021.81475000003,
      "d": 45.28989583333896,
      "v": 100
    },
    {
      "midi": 46,
      "hit": false,
      "t": 84130.51049999945,
      "d": 217.3914999999979,
      "v": 100
    },
    {
      "midi": 42,
      "hit": false,
      "t": 84130.51049999954,
      "d": 108.69574999999895,
      "v": 100
    },
    {
      "midi": 48,
      "hit": false,
      "t": 84130.5104999997,
      "d": 108.69574999999895,
      "v": 100
    },
    {
      "midi": 36,
      "hit": false,
      "t": 84130.51049999976,
      "d": 217.3914999999979,
      "v": 100
    },
    {
      "midi": 55,
      "hit": false,
      "t": 84130.5104999998,
      "d": 326.08724999999686,
      "v": 100
    },
    {
      "midi": 62,
      "hit": false,
      "t": 84130.5104999998,
      "d": 326.08724999999686,
      "v": 100
    },
    {
      "midi": 60,
      "hit": false,
      "t": 84130.5104999998,
      "d": 326.08724999999686,
      "v": 100
    },
    {
      "midi": 62,
      "hit": false,
      "t": 84130.5104999998,
      "d": 326.08724999999686,
      "v": 100
    },
    {
      "midi": 55,
      "hit": false,
      "t": 84130.5104999998,
      "d": 326.08724999999686,
      "v": 100
    },
    {
      "midi": 42,
      "hit": false,
      "t": 84239.20624999954,
      "d": 108.69574999999895,
      "v": 100
    },
    {
      "midi": 40,
      "hit": false,
      "t": 84239.20624999954,
      "d": 108.69574999999895,
      "v": 100
    },
    {
      "midi": 48,
      "hit": false,
      "t": 84239.2062499997,
      "d": 108.69574999999895,
      "v": 100
    },
    {
      "midi": 43,
      "hit": false,
      "t": 84239.20625000005,
      "d": 45.28989583333896,
      "v": 100
    },
    {
      "midi": 42,
      "hit": false,
      "t": 84347.90199999945,
      "d": 217.3914999999979,
      "v": 100
    },
    {
      "midi": 42,
      "hit": false,
      "t": 84347.90199999954,
      "d": 217.3914999999979,
      "v": 100
    },
    {
      "midi": 35,
      "hit": false,
      "t": 84347.90199999954,
      "d": 217.3914999999979,
      "v": 100
    },
    {
      "midi": 59,
      "hit": false,
      "t": 84347.90199999954,
      "d": 434.7829999999958,
      "v": 100
    },
    {
      "midi": 51,
      "hit": false,
      "t": 84347.9019999997,
      "d": 217.3914999999979,
      "v": 100
    },
    {
      "midi": 36,
      "hit": false,
      "t": 84347.90199999975,
      "d": 108.69574999999895,
      "v": 100
    },
    {
      "midi": 40,
      "hit": false,
      "t": 84456.59774999954,
      "d": 108.69574999999895,
      "v": 100
    },
    {
      "midi": 36,
      "hit": false,
      "t": 84456.59774999975,
      "d": 108.69574999999895,
      "v": 100
    },
    {
      "midi": 55,
      "hit": false,
      "t": 84456.5977499998,
      "d": 326.08724999999686,
      "v": 100
    },
    {
      "midi": 62,
      "hit": false,
      "t": 84456.5977499998,
      "d": 326.08724999999686,
      "v": 100
    },
    {
      "midi": 60,
      "hit": false,
      "t": 84456.5977499998,
      "d": 326.08724999999686,
      "v": 100
    },
    {
      "midi": 62,
      "hit": false,
      "t": 84456.5977499998,
      "d": 326.08724999999686,
      "v": 100
    },
    {
      "midi": 55,
      "hit": false,
      "t": 84456.5977499998,
      "d": 326.08724999999686,
      "v": 100
    },
    {
      "midi": 41,
      "hit": false,
      "t": 84456.59775000006,
      "d": 45.28989583333896,
      "v": 100
    },
    {
      "midi": 46,
      "hit": false,
      "t": 84565.29349999945,
      "d": 217.3914999999979,
      "v": 100
    },
    {
      "midi": 46,
      "hit": false,
      "t": 84565.29349999953,
      "d": 217.3914999999979,
      "v": 100
    },
    {
      "midi": 48,
      "hit": false,
      "t": 84565.2934999997,
      "d": 108.69574999999895,
      "v": 100
    },
    {
      "midi": 36,
      "hit": false,
      "t": 84565.29349999975,
      "d": 217.3914999999979,
      "v": 100
    },
    {
      "midi": 41,
      "hit": false,
      "t": 84565.29350000006,
      "d": 86.05080208333675,
      "v": 100
    },
    {
      "midi": 48,
      "hit": false,
      "t": 84673.9892499997,
      "d": 108.69574999999895,
      "v": 100
    },
    {
      "midi": 42,
      "hit": false,
      "t": 84782.68499999944,
      "d": 217.3914999999979,
      "v": 100
    },
    {
      "midi": 40,
      "hit": false,
      "t": 84782.68499999944,
      "d": 217.3914999999979,
      "v": 100
    },
    {
      "midi": 40,
      "hit": false,
      "t": 84782.68499999953,
      "d": 108.69574999999895,
      "v": 100
    },
    {
      "midi": 35,
      "hit": false,
      "t": 84782.68499999953,
      "d": 217.3914999999979,
      "v": 100
    },
    {
      "midi": 59,
      "hit": false,
      "t": 84782.68499999953,
      "d": 434.7829999999958,
      "v": 100
    },
    {
      "midi": 53,
      "hit": false,
      "t": 84782.68499999969,
      "d": 108.69574999999895,
      "v": 100
    },
    {
      "midi": 84,
      "hit": false,
      "t": 84782.68499999969,
      "d": 217.3914999999979,
      "v": 100
    },
    {
      "midi": 48,
      "hit": false,
      "t": 84782.68499999975,
      "d": 217.3914999999979,
      "v": 100
    },
    {
      "midi": 43,
      "hit": false,
      "t": 84782.68500000006,
      "d": 45.28989583333896,
      "v": 100
    },
    {
      "midi": 48,
      "hit": false,
      "t": 84891.38074999969,
      "d": 108.69574999999895,
      "v": 100
    },
    {
      "midi": 55,
      "hit": false,
      "t": 84891.3807499998,
      "d": 108.69574999999895,
      "v": 100
    },
    {
      "midi": 62,
      "hit": false,
      "t": 84891.3807499998,
      "d": 108.69574999999895,
      "v": 100
    },
    {
      "midi": 60,
      "hit": false,
      "t": 84891.3807499998,
      "d": 108.69574999999895,
      "v": 100
    },
    {
      "midi": 62,
      "hit": false,
      "t": 84891.3807499998,
      "d": 108.69574999999895,
      "v": 100
    },
    {
      "midi": 55,
      "hit": false,
      "t": 84891.3807499998,
      "d": 108.69574999999895,
      "v": 100
    },
    {
      "midi": 45,
      "hit": false,
      "t": 84891.38075000005,
      "d": 45.28989583333896,
      "v": 100
    },
    {
      "midi": 46,
      "hit": false,
      "t": 85000.07649999944,
      "d": 217.3914999999979,
      "v": 100
    },
    {
      "midi": 40,
      "hit": false,
      "t": 85000.07649999953,
      "d": 108.69574999999895,
      "v": 100
    },
    {
      "midi": 55,
      "hit": false,
      "t": 85000.07649999969,
      "d": 108.69574999999895,
      "v": 100
    },
    {
      "midi": 36,
      "hit": false,
      "t": 85000.07649999975,
      "d": 217.3914999999979,
      "v": 100
    },
    {
      "midi": 46,
      "hit": false,
      "t": 85000.07650000005,
      "d": 45.28989583333896,
      "v": 100
    },
    {
      "midi": 40,
      "hit": false,
      "t": 85108.77224999953,
      "d": 108.69574999999895,
      "v": 100
    },
    {
      "midi": 48,
      "hit": false,
      "t": 85108.77224999969,
      "d": 108.69574999999895,
      "v": 100
    },
    {
      "midi": 50,
      "hit": false,
      "t": 85108.77225000005,
      "d": 45.28989583333896,
      "v": 100
    },
    {
      "midi": 42,
      "hit": false,
      "t": 85217.46799999944,
      "d": 217.3914999999979,
      "v": 100
    },
    {
      "midi": 35,
      "hit": false,
      "t": 85217.46799999953,
      "d": 217.3914999999979,
      "v": 100
    },
    {
      "midi": 42,
      "hit": false,
      "t": 85217.46799999953,
      "d": 217.3914999999979,
      "v": 100
    },
    {
      "midi": 59,
      "hit": false,
      "t": 85217.46799999953,
      "d": 434.7829999999958,
      "v": 100
    },
    {
      "midi": 48,
      "hit": false,
      "t": 85217.46799999969,
      "d": 108.69574999999895,
      "v": 100
    },
    {
      "midi": 36,
      "hit": false,
      "t": 85217.46799999975,
      "d": 434.7829999999958,
      "v": 100
    },
    {
      "midi": 36,
      "hit": false,
      "t": 85217.46800000005,
      "d": 45.28989583333896,
      "v": 100
    },
    {
      "midi": 48,
      "hit": false,
      "t": 85326.16374999969,
      "d": 108.69574999999895,
      "v": 100
    },
    {
      "midi": 36,
      "hit": false,
      "t": 85326.16375000005,
      "d": 45.28989583333896,
      "v": 100
    },
    {
      "midi": 46,
      "hit": false,
      "t": 85434.85949999944,
      "d": 217.3914999999979,
      "v": 100
    },
    {
      "midi": 42,
      "hit": false,
      "t": 85434.85949999953,
      "d": 108.69574999999895,
      "v": 100
    },
    {
      "midi": 48,
      "hit": false,
      "t": 85434.85949999969,
      "d": 108.69574999999895,
      "v": 100
    },
    {
      "midi": 36,
      "hit": false,
      "t": 85434.85950000005,
      "d": 86.05080208333675,
      "v": 100
    },
    {
      "midi": 42,
      "hit": false,
      "t": 85543.55524999952,
      "d": 108.69574999999895,
      "v": 100
    },
    {
      "midi": 51,
      "hit": false,
      "t": 85543.55524999968,
      "d": 217.3914999999979,
      "v": 100
    },
    {
      "midi": 40,
      "hit": false,
      "t": 85652.25099999944,
      "d": 217.3914999999979,
      "v": 100
    },
    {
      "midi": 42,
      "hit": false,
      "t": 85652.25099999944,
      "d": 217.3914999999979,
      "v": 100
    },
    {
      "midi": 40,
      "hit": false,
      "t": 85652.25099999952,
      "d": 108.69574999999895,
      "v": 100
    },
    {
      "midi": 42,
      "hit": false,
      "t": 85652.25099999952,
      "d": 217.3914999999979,
      "v": 100
    },
    {
      "midi": 35,
      "hit": false,
      "t": 85652.25099999952,
      "d": 217.3914999999979,
      "v": 100
    },
    {
      "midi": 59,
      "hit": false,
      "t": 85652.25099999952,
      "d": 434.7829999999958,
      "v": 100
    },
    {
      "midi": 84,
      "hit": false,
      "t": 85652.25099999968,
      "d": 217.3914999999979,
      "v": 100
    },
    {
      "midi": 48,
      "hit": false,
      "t": 85652.25099999974,
      "d": 217.3914999999979,
      "v": 100
    },
    {
      "midi": 36,
      "hit": false,
      "t": 85652.25100000005,
      "d": 45.28989583333896,
      "v": 100
    },
    {
      "midi": 48,
      "hit": false,
      "t": 85760.94674999968,
      "d": 108.69574999999895,
      "v": 100
    },
    {
      "midi": 62,
      "hit": false,
      "t": 85760.9467499998,
      "d": 326.08724999999686,
      "v": 100
    },
    {
      "midi": 55,
      "hit": false,
      "t": 85760.9467499998,
      "d": 326.08724999999686,
      "v": 100
    },
    {
      "midi": 60,
      "hit": false,
      "t": 85760.9467499998,
      "d": 326.08724999999686,
      "v": 100
    },
    {
      "midi": 55,
      "hit": false,
      "t": 85760.9467499998,
      "d": 326.08724999999686,
      "v": 100
    },
    {
      "midi": 62,
      "hit": false,
      "t": 85760.9467499998,
      "d": 326.08724999999686,
      "v": 100
    },
    {
      "midi": 48,
      "hit": false,
      "t": 85760.94675000005,
      "d": 45.28989583333896,
      "v": 100
    },
    {
      "midi": 46,
      "hit": false,
      "t": 85869.64249999943,
      "d": 217.3914999999979,
      "v": 100
    },
    {
      "midi": 42,
      "hit": false,
      "t": 85869.64249999952,
      "d": 108.69574999999895,
      "v": 100
    },
    {
      "midi": 48,
      "hit": false,
      "t": 85869.64249999968,
      "d": 108.69574999999895,
      "v": 100
    },
    {
      "midi": 36,
      "hit": false,
      "t": 85869.64249999974,
      "d": 217.3914999999979,
      "v": 100
    },
    {
      "midi": 42,
      "hit": false,
      "t": 85978.33824999952,
      "d": 108.69574999999895,
      "v": 100
    },
    {
      "midi": 40,
      "hit": false,
      "t": 85978.33824999952,
      "d": 108.69574999999895,
      "v": 100
    },
    {
      "midi": 48,
      "hit": false,
      "t": 85978.33824999968,
      "d": 108.69574999999895,
      "v": 100
    },
    {
      "midi": 43,
      "hit": false,
      "t": 85978.33825000006,
      "d": 45.28989583333896,
      "v": 100
    },
    {
      "midi": 42,
      "hit": false,
      "t": 86087.03399999943,
      "d": 217.3914999999979,
      "v": 100
    },
    {
      "midi": 42,
      "hit": false,
      "t": 86087.03399999952,
      "d": 217.3914999999979,
      "v": 100
    },
    {
      "midi": 35,
      "hit": false,
      "t": 86087.03399999952,
      "d": 217.3914999999979,
      "v": 100
    },
    {
      "midi": 59,
      "hit": false,
      "t": 86087.03399999952,
      "d": 434.7829999999958,
      "v": 100
    },
    {
      "midi": 51,
      "hit": false,
      "t": 86087.03399999968,
      "d": 217.3914999999979,
      "v": 100
    },
    {
      "midi": 36,
      "hit": false,
      "t": 86087.03399999974,
      "d": 108.69574999999895,
      "v": 100
    },
    {
      "midi": 62,
      "hit": false,
      "t": 86087.0339999998,
      "d": 326.08724999999686,
      "v": 100
    },
    {
      "midi": 55,
      "hit": false,
      "t": 86087.0339999998,
      "d": 326.08724999999686,
      "v": 100
    },
    {
      "midi": 60,
      "hit": false,
      "t": 86087.0339999998,
      "d": 326.08724999999686,
      "v": 100
    },
    {
      "midi": 55,
      "hit": false,
      "t": 86087.0339999998,
      "d": 326.08724999999686,
      "v": 100
    },
    {
      "midi": 62,
      "hit": false,
      "t": 86087.0339999998,
      "d": 326.08724999999686,
      "v": 100
    },
    {
      "midi": 40,
      "hit": false,
      "t": 86195.72974999952,
      "d": 108.69574999999895,
      "v": 100
    },
    {
      "midi": 36,
      "hit": false,
      "t": 86195.72974999974,
      "d": 108.69574999999895,
      "v": 100
    },
    {
      "midi": 41,
      "hit": false,
      "t": 86195.72975000007,
      "d": 45.28989583333896,
      "v": 100
    },
    {
      "midi": 46,
      "hit": false,
      "t": 86304.42549999943,
      "d": 217.3914999999979,
      "v": 100
    },
    {
      "midi": 40,
      "hit": false,
      "t": 86304.42549999952,
      "d": 108.69574999999895,
      "v": 100
    },
    {
      "midi": 46,
      "hit": false,
      "t": 86304.42549999952,
      "d": 217.3914999999979,
      "v": 100
    },
    {
      "midi": 48,
      "hit": false,
      "t": 86304.42549999968,
      "d": 108.69574999999895,
      "v": 100
    },
    {
      "midi": 36,
      "hit": false,
      "t": 86304.42549999974,
      "d": 217.3914999999979,
      "v": 100
    },
    {
      "midi": 41,
      "hit": false,
      "t": 86304.42550000007,
      "d": 86.05080208333675,
      "v": 100
    },
    {
      "midi": 48,
      "hit": false,
      "t": 86413.12124999968,
      "d": 108.69574999999895,
      "v": 100
    },
    {
      "midi": 62,
      "hit": false,
      "t": 86413.1212499998,
      "d": 326.08724999999686,
      "v": 100
    },
    {
      "midi": 55,
      "hit": false,
      "t": 86413.1212499998,
      "d": 326.08724999999686,
      "v": 100
    },
    {
      "midi": 60,
      "hit": false,
      "t": 86413.1212499998,
      "d": 326.08724999999686,
      "v": 100
    },
    {
      "midi": 55,
      "hit": false,
      "t": 86413.1212499998,
      "d": 326.08724999999686,
      "v": 100
    },
    {
      "midi": 62,
      "hit": false,
      "t": 86413.1212499998,
      "d": 326.08724999999686,
      "v": 100
    },
    {
      "midi": 42,
      "hit": false,
      "t": 86521.81699999943,
      "d": 217.3914999999979,
      "v": 100
    },
    {
      "midi": 40,
      "hit": false,
      "t": 86521.81699999943,
      "d": 217.3914999999979,
      "v": 100
    },
    {
      "midi": 40,
      "hit": false,
      "t": 86521.81699999952,
      "d": 108.69574999999895,
      "v": 100
    },
    {
      "midi": 35,
      "hit": false,
      "t": 86521.81699999952,
      "d": 217.3914999999979,
      "v": 100
    },
    {
      "midi": 59,
      "hit": false,
      "t": 86521.81699999952,
      "d": 434.7829999999958,
      "v": 100
    },
    {
      "midi": 53,
      "hit": false,
      "t": 86521.81699999968,
      "d": 108.69574999999895,
      "v": 100
    },
    {
      "midi": 84,
      "hit": false,
      "t": 86521.81699999968,
      "d": 108.69574999999895,
      "v": 100
    },
    {
      "midi": 48,
      "hit": false,
      "t": 86521.81699999973,
      "d": 217.3914999999979,
      "v": 100
    },
    {
      "midi": 43,
      "hit": false,
      "t": 86521.81700000007,
      "d": 45.28989583333896,
      "v": 100
    },
    {
      "midi": 40,
      "hit": false,
      "t": 86630.51274999951,
      "d": 108.69574999999895,
      "v": 100
    },
    {
      "midi": 48,
      "hit": false,
      "t": 86630.51274999967,
      "d": 108.69574999999895,
      "v": 100
    },
    {
      "midi": 79,
      "hit": false,
      "t": 86630.51274999967,
      "d": 108.69574999999895,
      "v": 100
    },
    {
      "midi": 45,
      "hit": false,
      "t": 86630.51275000007,
      "d": 45.28989583333896,
      "v": 100
    },
    {
      "midi": 46,
      "hit": false,
      "t": 86739.20849999943,
      "d": 217.3914999999979,
      "v": 100
    },
    {
      "midi": 40,
      "hit": false,
      "t": 86739.20849999951,
      "d": 108.69574999999895,
      "v": 100
    },
    {
      "midi": 55,
      "hit": false,
      "t": 86739.20849999967,
      "d": 108.69574999999895,
      "v": 100
    },
    {
      "midi": 72,
      "hit": false,
      "t": 86739.20849999967,
      "d": 108.69574999999895,
      "v": 100
    },
    {
      "midi": 36,
      "hit": false,
      "t": 86739.20849999973,
      "d": 217.3914999999979,
      "v": 100
    },
    {
      "midi": 46,
      "hit": false,
      "t": 86739.20850000007,
      "d": 45.28989583333896,
      "v": 100
    },
    {
      "midi": 40,
      "hit": false,
      "t": 86847.90424999951,
      "d": 108.69574999999895,
      "v": 100
    },
    {
      "midi": 48,
      "hit": false,
      "t": 86847.90424999967,
      "d": 108.69574999999895,
      "v": 100
    },
    {
      "midi": 67,
      "hit": false,
      "t": 86847.90424999967,
      "d": 108.69574999999895,
      "v": 100
    },
    {
      "midi": 62,
      "hit": false,
      "t": 86847.90424999979,
      "d": 108.69574999999895,
      "v": 100
    },
    {
      "midi": 55,
      "hit": false,
      "t": 86847.90424999979,
      "d": 108.69574999999895,
      "v": 100
    },
    {
      "midi": 60,
      "hit": false,
      "t": 86847.90424999979,
      "d": 108.69574999999895,
      "v": 100
    },
    {
      "midi": 55,
      "hit": false,
      "t": 86847.90424999979,
      "d": 108.69574999999895,
      "v": 100
    },
    {
      "midi": 62,
      "hit": false,
      "t": 86847.90424999979,
      "d": 108.69574999999895,
      "v": 100
    },
    {
      "midi": 50,
      "hit": false,
      "t": 86847.90425000007,
      "d": 45.28989583333896,
      "v": 100
    },
    {
      "midi": 49,
      "hit": false,
      "t": 86956.59999999942,
      "d": 217.3914999999979,
      "v": 100
    },
    {
      "midi": 42,
      "hit": false,
      "t": 86956.59999999942,
      "d": 217.3914999999979,
      "v": 100
    },
    {
      "midi": 35,
      "hit": false,
      "t": 86956.59999999951,
      "d": 217.3914999999979,
      "v": 100
    },
    {
      "midi": 42,
      "hit": false,
      "t": 86956.59999999951,
      "d": 217.3914999999979,
      "v": 100
    },
    {
      "midi": 59,
      "hit": false,
      "t": 86956.59999999951,
      "d": 434.7829999999958,
      "v": 100
    },
    {
      "midi": 48,
      "hit": false,
      "t": 86956.59999999967,
      "d": 108.69574999999895,
      "v": 100
    },
    {
      "midi": 36,
      "hit": false,
      "t": 86956.59999999973,
      "d": 434.7829999999958,
      "v": 100
    },
    {
      "midi": 58,
      "hit": false,
      "t": 86956.59999999979,
      "d": 326.08724999999686,
      "v": 100
    },
    {
      "midi": 55,
      "hit": false,
      "t": 86956.59999999979,
      "d": 326.08724999999686,
      "v": 100
    },
    {
      "midi": 62,
      "hit": false,
      "t": 86956.59999999979,
      "d": 326.08724999999686,
      "v": 100
    },
    {
      "midi": 65,
      "hit": false,
      "t": 86956.59999999979,
      "d": 326.08724999999686,
      "v": 100
    },
    {
      "midi": 55,
      "hit": false,
      "t": 86956.59999999979,
      "d": 326.08724999999686,
      "v": 100
    },
    {
      "midi": 58,
      "hit": false,
      "t": 86956.59999999979,
      "d": 326.08724999999686,
      "v": 100
    },
    {
      "midi": 65,
      "hit": false,
      "t": 86956.59999999979,
      "d": 326.08724999999686,
      "v": 100
    },
    {
      "midi": 62,
      "hit": false,
      "t": 86956.59999999979,
      "d": 326.08724999999686,
      "v": 100
    },
    {
      "midi": 48,
      "hit": false,
      "t": 86956.59999999999,
      "d": 3478.2639999999956,
      "v": 100
    },
    {
      "midi": 58,
      "hit": false,
      "t": 86956.59999999999,
      "d": 3478.2639999999956,
      "v": 100
    },
    {
      "midi": 65,
      "hit": false,
      "t": 86956.59999999999,
      "d": 3478.2639999999956,
      "v": 100
    },
    {
      "midi": 62,
      "hit": false,
      "t": 86956.59999999999,
      "d": 3478.2639999999956,
      "v": 100
    },
    {
      "midi": 55,
      "hit": false,
      "t": 86956.59999999999,
      "d": 3478.2639999999956,
      "v": 100
    },
    {
      "midi": 65,
      "hit": false,
      "t": 86956.59999999999,
      "d": 3478.2639999999956,
      "v": 100
    },
    {
      "midi": 58,
      "hit": false,
      "t": 86956.59999999999,
      "d": 3478.2639999999956,
      "v": 100
    },
    {
      "midi": 48,
      "hit": false,
      "t": 86956.59999999999,
      "d": 3478.2639999999956,
      "v": 100
    },
    {
      "midi": 55,
      "hit": false,
      "t": 86956.59999999999,
      "d": 3478.2639999999956,
      "v": 100
    },
    {
      "midi": 62,
      "hit": false,
      "t": 86956.59999999999,
      "d": 3478.2639999999956,
      "v": 100
    },
    {
      "midi": 65,
      "hit": false,
      "t": 86956.59999999999,
      "d": 3478.2639999999956,
      "v": 100
    },
    {
      "midi": 36,
      "hit": false,
      "t": 86956.60000000006,
      "d": 45.28989583333896,
      "v": 100
    },
    {
      "midi": 48,
      "hit": false,
      "t": 87065.29574999967,
      "d": 108.69574999999895,
      "v": 100
    },
    {
      "midi": 46,
      "hit": false,
      "t": 87173.99149999942,
      "d": 217.3914999999979,
      "v": 100
    },
    {
      "midi": 42,
      "hit": false,
      "t": 87173.99149999951,
      "d": 108.69574999999895,
      "v": 100
    },
    {
      "midi": 48,
      "hit": false,
      "t": 87173.99149999967,
      "d": 108.69574999999895,
      "v": 100
    },
    {
      "midi": 36,
      "hit": false,
      "t": 87173.99150000008,
      "d": 45.28989583333896,
      "v": 100
    },
    {
      "midi": 42,
      "hit": false,
      "t": 87282.68724999951,
      "d": 108.69574999999895,
      "v": 100
    },
    {
      "midi": 51,
      "hit": false,
      "t": 87282.68724999967,
      "d": 217.3914999999979,
      "v": 100
    },
    {
      "midi": 62,
      "hit": false,
      "t": 87282.68724999978,
      "d": 326.08724999999686,
      "v": 100
    },
    {
      "midi": 55,
      "hit": false,
      "t": 87282.68724999978,
      "d": 326.08724999999686,
      "v": 100
    },
    {
      "midi": 65,
      "hit": false,
      "t": 87282.68724999978,
      "d": 326.08724999999686,
      "v": 100
    },
    {
      "midi": 58,
      "hit": false,
      "t": 87282.68724999978,
      "d": 326.08724999999686,
      "v": 100
    },
    {
      "midi": 55,
      "hit": false,
      "t": 87282.68724999978,
      "d": 326.08724999999686,
      "v": 100
    },
    {
      "midi": 62,
      "hit": false,
      "t": 87282.68724999978,
      "d": 326.08724999999686,
      "v": 100
    },
    {
      "midi": 58,
      "hit": false,
      "t": 87282.68724999978,
      "d": 326.08724999999686,
      "v": 100
    },
    {
      "midi": 65,
      "hit": false,
      "t": 87282.68724999978,
      "d": 326.08724999999686,
      "v": 100
    },
    {
      "midi": 42,
      "hit": false,
      "t": 87391.38299999942,
      "d": 217.3914999999979,
      "v": 100
    },
    {
      "midi": 40,
      "hit": false,
      "t": 87391.38299999942,
      "d": 217.3914999999979,
      "v": 100
    },
    {
      "midi": 35,
      "hit": false,
      "t": 87391.3829999995,
      "d": 217.3914999999979,
      "v": 100
    },
    {
      "midi": 40,
      "hit": false,
      "t": 87391.3829999995,
      "d": 217.3914999999979,
      "v": 100
    },
    {
      "midi": 42,
      "hit": false,
      "t": 87391.3829999995,
      "d": 217.3914999999979,
      "v": 100
    },
    {
      "midi": 59,
      "hit": false,
      "t": 87391.3829999995,
      "d": 434.7829999999958,
      "v": 100
    },
    {
      "midi": 84,
      "hit": false,
      "t": 87391.38299999967,
      "d": 217.3914999999979,
      "v": 100
    },
    {
      "midi": 48,
      "hit": false,
      "t": 87391.38299999973,
      "d": 217.3914999999979,
      "v": 100
    },
    {
      "midi": 36,
      "hit": false,
      "t": 87391.38300000009,
      "d": 45.28989583333896,
      "v": 100
    },
    {
      "midi": 48,
      "hit": false,
      "t": 87500.07874999967,
      "d": 108.69574999999895,
      "v": 100
    },
    {
      "midi": 48,
      "hit": false,
      "t": 87500.07875000009,
      "d": 45.28989583333896,
      "v": 100
    },
    {
      "midi": 46,
      "hit": false,
      "t": 87608.77449999942,
      "d": 217.3914999999979,
      "v": 100
    },
    {
      "midi": 42,
      "hit": false,
      "t": 87608.7744999995,
      "d": 108.69574999999895,
      "v": 100
    },
    {
      "midi": 48,
      "hit": false,
      "t": 87608.77449999966,
      "d": 108.69574999999895,
      "v": 100
    },
    {
      "midi": 36,
      "hit": false,
      "t": 87608.77449999972,
      "d": 217.3914999999979,
      "v": 100
    },
    {
      "midi": 62,
      "hit": false,
      "t": 87608.77449999978,
      "d": 326.08724999999686,
      "v": 100
    },
    {
      "midi": 55,
      "hit": false,
      "t": 87608.77449999978,
      "d": 326.08724999999686,
      "v": 100
    },
    {
      "midi": 58,
      "hit": false,
      "t": 87608.77449999978,
      "d": 326.08724999999686,
      "v": 100
    },
    {
      "midi": 65,
      "hit": false,
      "t": 87608.77449999978,
      "d": 326.08724999999686,
      "v": 100
    },
    {
      "midi": 55,
      "hit": false,
      "t": 87608.77449999978,
      "d": 326.08724999999686,
      "v": 100
    },
    {
      "midi": 62,
      "hit": false,
      "t": 87608.77449999978,
      "d": 326.08724999999686,
      "v": 100
    },
    {
      "midi": 65,
      "hit": false,
      "t": 87608.77449999978,
      "d": 326.08724999999686,
      "v": 100
    },
    {
      "midi": 58,
      "hit": false,
      "t": 87608.77449999978,
      "d": 326.08724999999686,
      "v": 100
    },
    {
      "midi": 42,
      "hit": false,
      "t": 87717.4702499995,
      "d": 108.69574999999895,
      "v": 100
    },
    {
      "midi": 40,
      "hit": false,
      "t": 87717.4702499995,
      "d": 108.69574999999895,
      "v": 100
    },
    {
      "midi": 48,
      "hit": false,
      "t": 87717.47024999966,
      "d": 108.69574999999895,
      "v": 100
    },
    {
      "midi": 43,
      "hit": false,
      "t": 87717.4702500001,
      "d": 45.28989583333896,
      "v": 100
    },
    {
      "midi": 42,
      "hit": false,
      "t": 87826.16599999942,
      "d": 217.3914999999979,
      "v": 100
    },
    {
      "midi": 42,
      "hit": false,
      "t": 87826.1659999995,
      "d": 217.3914999999979,
      "v": 100
    },
    {
      "midi": 35,
      "hit": false,
      "t": 87826.1659999995,
      "d": 217.3914999999979,
      "v": 100
    },
    {
      "midi": 59,
      "hit": false,
      "t": 87826.1659999995,
      "d": 434.7829999999958,
      "v": 100
    },
    {
      "midi": 51,
      "hit": false,
      "t": 87826.16599999966,
      "d": 217.3914999999979,
      "v": 100
    },
    {
      "midi": 36,
      "hit": false,
      "t": 87826.16599999972,
      "d": 108.69574999999895,
      "v": 100
    },
    {
      "midi": 40,
      "hit": false,
      "t": 87934.8617499995,
      "d": 108.69574999999895,
      "v": 100
    },
    {
      "midi": 36,
      "hit": false,
      "t": 87934.86174999972,
      "d": 108.69574999999895,
      "v": 100
    },
    {
      "midi": 62,
      "hit": false,
      "t": 87934.86174999978,
      "d": 326.08724999999686,
      "v": 100
    },
    {
      "midi": 55,
      "hit": false,
      "t": 87934.86174999978,
      "d": 326.08724999999686,
      "v": 100
    },
    {
      "midi": 58,
      "hit": false,
      "t": 87934.86174999978,
      "d": 326.08724999999686,
      "v": 100
    },
    {
      "midi": 65,
      "hit": false,
      "t": 87934.86174999978,
      "d": 326.08724999999686,
      "v": 100
    },
    {
      "midi": 55,
      "hit": false,
      "t": 87934.86174999978,
      "d": 326.08724999999686,
      "v": 100
    },
    {
      "midi": 62,
      "hit": false,
      "t": 87934.86174999978,
      "d": 326.08724999999686,
      "v": 100
    },
    {
      "midi": 65,
      "hit": false,
      "t": 87934.86174999978,
      "d": 326.08724999999686,
      "v": 100
    },
    {
      "midi": 58,
      "hit": false,
      "t": 87934.86174999978,
      "d": 326.08724999999686,
      "v": 100
    },
    {
      "midi": 41,
      "hit": false,
      "t": 87934.86175000011,
      "d": 45.28989583333896,
      "v": 100
    },
    {
      "midi": 46,
      "hit": false,
      "t": 88043.55749999941,
      "d": 217.3914999999979,
      "v": 100
    },
    {
      "midi": 46,
      "hit": false,
      "t": 88043.5574999995,
      "d": 217.3914999999979,
      "v": 100
    },
    {
      "midi": 48,
      "hit": false,
      "t": 88043.55749999966,
      "d": 108.69574999999895,
      "v": 100
    },
    {
      "midi": 36,
      "hit": false,
      "t": 88043.55749999972,
      "d": 217.3914999999979,
      "v": 100
    },
    {
      "midi": 41,
      "hit": false,
      "t": 88043.55750000011,
      "d": 86.05080208333675,
      "v": 100
    },
    {
      "midi": 48,
      "hit": false,
      "t": 88152.25324999966,
      "d": 108.69574999999895,
      "v": 100
    },
    {
      "midi": 42,
      "hit": false,
      "t": 88260.94899999941,
      "d": 217.3914999999979,
      "v": 100
    },
    {
      "midi": 40,
      "hit": false,
      "t": 88260.94899999941,
      "d": 217.3914999999979,
      "v": 100
    },
    {
      "midi": 40,
      "hit": false,
      "t": 88260.9489999995,
      "d": 108.69574999999895,
      "v": 100
    },
    {
      "midi": 35,
      "hit": false,
      "t": 88260.9489999995,
      "d": 217.3914999999979,
      "v": 100
    },
    {
      "midi": 59,
      "hit": false,
      "t": 88260.9489999995,
      "d": 434.7829999999958,
      "v": 100
    },
    {
      "midi": 53,
      "hit": false,
      "t": 88260.94899999966,
      "d": 108.69574999999895,
      "v": 100
    },
    {
      "midi": 84,
      "hit": false,
      "t": 88260.94899999966,
      "d": 217.3914999999979,
      "v": 100
    },
    {
      "midi": 48,
      "hit": false,
      "t": 88260.94899999972,
      "d": 217.3914999999979,
      "v": 100
    },
    {
      "midi": 43,
      "hit": false,
      "t": 88260.94900000011,
      "d": 45.28989583333896,
      "v": 100
    },
    {
      "midi": 48,
      "hit": false,
      "t": 88369.64474999966,
      "d": 108.69574999999895,
      "v": 100
    },
    {
      "midi": 62,
      "hit": false,
      "t": 88369.64474999977,
      "d": 108.69574999999895,
      "v": 100
    },
    {
      "midi": 58,
      "hit": false,
      "t": 88369.64474999977,
      "d": 108.69574999999895,
      "v": 100
    },
    {
      "midi": 65,
      "hit": false,
      "t": 88369.64474999977,
      "d": 108.69574999999895,
      "v": 100
    },
    {
      "midi": 55,
      "hit": false,
      "t": 88369.64474999977,
      "d": 108.69574999999895,
      "v": 100
    },
    {
      "midi": 58,
      "hit": false,
      "t": 88369.64474999977,
      "d": 108.69574999999895,
      "v": 100
    },
    {
      "midi": 62,
      "hit": false,
      "t": 88369.64474999977,
      "d": 108.69574999999895,
      "v": 100
    },
    {
      "midi": 55,
      "hit": false,
      "t": 88369.64474999977,
      "d": 108.69574999999895,
      "v": 100
    },
    {
      "midi": 65,
      "hit": false,
      "t": 88369.64474999977,
      "d": 108.69574999999895,
      "v": 100
    },
    {
      "midi": 45,
      "hit": false,
      "t": 88369.64475000011,
      "d": 45.28989583333896,
      "v": 100
    },
    {
      "midi": 57,
      "hit": false,
      "t": 88478.34049999941,
      "d": 217.3914999999979,
      "v": 100
    },
    {
      "midi": 46,
      "hit": false,
      "t": 88478.34049999941,
      "d": 217.3914999999979,
      "v": 100
    },
    {
      "midi": 35,
      "hit": false,
      "t": 88478.3404999995,
      "d": 108.69574999999895,
      "v": 100
    },
    {
      "midi": 55,
      "hit": false,
      "t": 88478.34049999966,
      "d": 108.69574999999895,
      "v": 100
    },
    {
      "midi": 36,
      "hit": false,
      "t": 88478.34049999971,
      "d": 217.3914999999979,
      "v": 100
    },
    {
      "midi": 46,
      "hit": false,
      "t": 88478.34050000011,
      "d": 45.28989583333896,
      "v": 100
    },
    {
      "midi": 48,
      "hit": false,
      "t": 88587.03624999966,
      "d": 108.69574999999895,
      "v": 100
    },
    {
      "midi": 50,
      "hit": false,
      "t": 88587.0362500001,
      "d": 45.28989583333896,
      "v": 100
    },
    {
      "midi": 49,
      "hit": false,
      "t": 88695.7319999994,
      "d": 217.3914999999979,
      "v": 100
    },
    {
      "midi": 42,
      "hit": false,
      "t": 88695.7319999994,
      "d": 217.3914999999979,
      "v": 100
    },
    {
      "midi": 42,
      "hit": false,
      "t": 88695.7319999995,
      "d": 217.3914999999979,
      "v": 100
    },
    {
      "midi": 35,
      "hit": false,
      "t": 88695.7319999995,
      "d": 217.3914999999979,
      "v": 100
    },
    {
      "midi": 59,
      "hit": false,
      "t": 88695.7319999995,
      "d": 434.7829999999958,
      "v": 100
    },
    {
      "midi": 48,
      "hit": false,
      "t": 88695.73199999965,
      "d": 108.69574999999895,
      "v": 100
    },
    {
      "midi": 36,
      "hit": false,
      "t": 88695.73199999971,
      "d": 434.7829999999958,
      "v": 100
    },
    {
      "midi": 36,
      "hit": false,
      "t": 88695.7320000001,
      "d": 45.28989583333896,
      "v": 100
    },
    {
      "midi": 48,
      "hit": false,
      "t": 88804.42774999965,
      "d": 108.69574999999895,
      "v": 100
    },
    {
      "midi": 36,
      "hit": false,
      "t": 88804.4277500001,
      "d": 45.28989583333896,
      "v": 100
    },
    {
      "midi": 46,
      "hit": false,
      "t": 88913.1234999994,
      "d": 217.3914999999979,
      "v": 100
    },
    {
      "midi": 42,
      "hit": false,
      "t": 88913.12349999949,
      "d": 108.69574999999895,
      "v": 100
    },
    {
      "midi": 48,
      "hit": false,
      "t": 88913.12349999965,
      "d": 108.69574999999895,
      "v": 100
    },
    {
      "midi": 36,
      "hit": false,
      "t": 88913.1235000001,
      "d": 86.05080208333675,
      "v": 100
    },
    {
      "midi": 42,
      "hit": false,
      "t": 89021.81924999949,
      "d": 108.69574999999895,
      "v": 100
    },
    {
      "midi": 51,
      "hit": false,
      "t": 89021.81924999965,
      "d": 217.3914999999979,
      "v": 100
    },
    {
      "midi": 55,
      "hit": false,
      "t": 89021.81924999977,
      "d": 326.08724999999686,
      "v": 100
    },
    {
      "midi": 62,
      "hit": false,
      "t": 89021.81924999977,
      "d": 326.08724999999686,
      "v": 100
    },
    {
      "midi": 58,
      "hit": false,
      "t": 89021.81924999977,
      "d": 326.08724999999686,
      "v": 100
    },
    {
      "midi": 65,
      "hit": false,
      "t": 89021.81924999977,
      "d": 326.08724999999686,
      "v": 100
    },
    {
      "midi": 62,
      "hit": false,
      "t": 89021.81924999977,
      "d": 326.08724999999686,
      "v": 100
    },
    {
      "midi": 55,
      "hit": false,
      "t": 89021.81924999977,
      "d": 326.08724999999686,
      "v": 100
    },
    {
      "midi": 65,
      "hit": false,
      "t": 89021.81924999977,
      "d": 326.08724999999686,
      "v": 100
    },
    {
      "midi": 58,
      "hit": false,
      "t": 89021.81924999977,
      "d": 326.08724999999686,
      "v": 100
    },
    {
      "midi": 40,
      "hit": false,
      "t": 89130.5149999994,
      "d": 217.3914999999979,
      "v": 100
    },
    {
      "midi": 42,
      "hit": false,
      "t": 89130.5149999994,
      "d": 217.3914999999979,
      "v": 100
    },
    {
      "midi": 40,
      "hit": false,
      "t": 89130.51499999949,
      "d": 108.69574999999895,
      "v": 100
    },
    {
      "midi": 35,
      "hit": false,
      "t": 89130.51499999949,
      "d": 217.3914999999979,
      "v": 100
    },
    {
      "midi": 42,
      "hit": false,
      "t": 89130.51499999949,
      "d": 217.3914999999979,
      "v": 100
    },
    {
      "midi": 59,
      "hit": false,
      "t": 89130.51499999949,
      "d": 434.7829999999958,
      "v": 100
    },
    {
      "midi": 84,
      "hit": false,
      "t": 89130.51499999965,
      "d": 217.3914999999979,
      "v": 100
    },
    {
      "midi": 48,
      "hit": false,
      "t": 89130.51499999971,
      "d": 217.3914999999979,
      "v": 100
    },
    {
      "midi": 36,
      "hit": false,
      "t": 89130.5150000001,
      "d": 45.28989583333896,
      "v": 100
    },
    {
      "midi": 48,
      "hit": false,
      "t": 89239.21074999965,
      "d": 108.69574999999895,
      "v": 100
    },
    {
      "midi": 48,
      "hit": false,
      "t": 89239.2107500001,
      "d": 45.28989583333896,
      "v": 100
    },
    {
      "midi": 46,
      "hit": false,
      "t": 89347.9064999994,
      "d": 217.3914999999979,
      "v": 100
    },
    {
      "midi": 42,
      "hit": false,
      "t": 89347.90649999949,
      "d": 108.69574999999895,
      "v": 100
    },
    {
      "midi": 48,
      "hit": false,
      "t": 89347.90649999965,
      "d": 108.69574999999895,
      "v": 100
    },
    {
      "midi": 36,
      "hit": false,
      "t": 89347.9064999997,
      "d": 217.3914999999979,
      "v": 100
    },
    {
      "midi": 55,
      "hit": false,
      "t": 89347.90649999976,
      "d": 326.08724999999686,
      "v": 100
    },
    {
      "midi": 62,
      "hit": false,
      "t": 89347.90649999976,
      "d": 326.08724999999686,
      "v": 100
    },
    {
      "midi": 65,
      "hit": false,
      "t": 89347.90649999976,
      "d": 326.08724999999686,
      "v": 100
    },
    {
      "midi": 58,
      "hit": false,
      "t": 89347.90649999976,
      "d": 326.08724999999686,
      "v": 100
    },
    {
      "midi": 62,
      "hit": false,
      "t": 89347.90649999976,
      "d": 326.08724999999686,
      "v": 100
    },
    {
      "midi": 55,
      "hit": false,
      "t": 89347.90649999976,
      "d": 326.08724999999686,
      "v": 100
    },
    {
      "midi": 58,
      "hit": false,
      "t": 89347.90649999976,
      "d": 326.08724999999686,
      "v": 100
    },
    {
      "midi": 65,
      "hit": false,
      "t": 89347.90649999976,
      "d": 326.08724999999686,
      "v": 100
    },
    {
      "midi": 40,
      "hit": false,
      "t": 89456.60224999949,
      "d": 108.69574999999895,
      "v": 100
    },
    {
      "midi": 42,
      "hit": false,
      "t": 89456.60224999949,
      "d": 108.69574999999895,
      "v": 100
    },
    {
      "midi": 48,
      "hit": false,
      "t": 89456.60224999965,
      "d": 108.69574999999895,
      "v": 100
    },
    {
      "midi": 43,
      "hit": false,
      "t": 89456.60225000011,
      "d": 45.28989583333896,
      "v": 100
    },
    {
      "midi": 42,
      "hit": false,
      "t": 89565.2979999994,
      "d": 217.3914999999979,
      "v": 100
    },
    {
      "midi": 35,
      "hit": false,
      "t": 89565.29799999949,
      "d": 217.3914999999979,
      "v": 100
    },
    {
      "midi": 42,
      "hit": false,
      "t": 89565.29799999949,
      "d": 217.3914999999979,
      "v": 100
    },
    {
      "midi": 59,
      "hit": false,
      "t": 89565.29799999949,
      "d": 434.7829999999958,
      "v": 100
    },
    {
      "midi": 51,
      "hit": false,
      "t": 89565.29799999965,
      "d": 217.3914999999979,
      "v": 100
    },
    {
      "midi": 36,
      "hit": false,
      "t": 89565.2979999997,
      "d": 108.69574999999895,
      "v": 100
    },
    {
      "midi": 40,
      "hit": false,
      "t": 89673.99374999948,
      "d": 108.69574999999895,
      "v": 100
    },
    {
      "midi": 36,
      "hit": false,
      "t": 89673.9937499997,
      "d": 108.69574999999895,
      "v": 100
    },
    {
      "midi": 55,
      "hit": false,
      "t": 89673.99374999976,
      "d": 326.08724999999686,
      "v": 100
    },
    {
      "midi": 62,
      "hit": false,
      "t": 89673.99374999976,
      "d": 326.08724999999686,
      "v": 100
    },
    {
      "midi": 65,
      "hit": false,
      "t": 89673.99374999976,
      "d": 326.08724999999686,
      "v": 100
    },
    {
      "midi": 58,
      "hit": false,
      "t": 89673.99374999976,
      "d": 326.08724999999686,
      "v": 100
    },
    {
      "midi": 62,
      "hit": false,
      "t": 89673.99374999976,
      "d": 326.08724999999686,
      "v": 100
    },
    {
      "midi": 55,
      "hit": false,
      "t": 89673.99374999976,
      "d": 326.08724999999686,
      "v": 100
    },
    {
      "midi": 58,
      "hit": false,
      "t": 89673.99374999976,
      "d": 326.08724999999686,
      "v": 100
    },
    {
      "midi": 65,
      "hit": false,
      "t": 89673.99374999976,
      "d": 326.08724999999686,
      "v": 100
    },
    {
      "midi": 41,
      "hit": false,
      "t": 89673.99375000013,
      "d": 45.28989583333896,
      "v": 100
    },
    {
      "midi": 46,
      "hit": false,
      "t": 89782.6894999994,
      "d": 217.3914999999979,
      "v": 100
    },
    {
      "midi": 46,
      "hit": false,
      "t": 89782.68949999948,
      "d": 217.3914999999979,
      "v": 100
    },
    {
      "midi": 48,
      "hit": false,
      "t": 89782.68949999964,
      "d": 108.69574999999895,
      "v": 100
    },
    {
      "midi": 36,
      "hit": false,
      "t": 89782.6894999997,
      "d": 217.3914999999979,
      "v": 100
    },
    {
      "midi": 41,
      "hit": false,
      "t": 89782.68950000012,
      "d": 86.05080208333675,
      "v": 100
    },
    {
      "midi": 48,
      "hit": false,
      "t": 89891.38524999964,
      "d": 108.69574999999895,
      "v": 100
    },
    {
      "midi": 40,
      "hit": false,
      "t": 90000.0809999994,
      "d": 217.3914999999979,
      "v": 100
    },
    {
      "midi": 42,
      "hit": false,
      "t": 90000.0809999994,
      "d": 217.3914999999979,
      "v": 100
    },
    {
      "midi": 40,
      "hit": false,
      "t": 90000.08099999948,
      "d": 108.69574999999895,
      "v": 100
    },
    {
      "midi": 35,
      "hit": false,
      "t": 90000.08099999948,
      "d": 217.3914999999979,
      "v": 100
    },
    {
      "midi": 59,
      "hit": false,
      "t": 90000.08099999948,
      "d": 434.7829999999958,
      "v": 100
    },
    {
      "midi": 53,
      "hit": false,
      "t": 90000.08099999964,
      "d": 108.69574999999895,
      "v": 100
    },
    {
      "midi": 84,
      "hit": false,
      "t": 90000.08099999964,
      "d": 217.3914999999979,
      "v": 100
    },
    {
      "midi": 48,
      "hit": false,
      "t": 90000.0809999997,
      "d": 217.3914999999979,
      "v": 100
    },
    {
      "midi": 43,
      "hit": false,
      "t": 90000.08100000012,
      "d": 45.28989583333896,
      "v": 100
    },
    {
      "midi": 48,
      "hit": false,
      "t": 90108.77674999964,
      "d": 108.69574999999895,
      "v": 100
    },
    {
      "midi": 58,
      "hit": false,
      "t": 90108.77674999976,
      "d": 108.69574999999895,
      "v": 100
    },
    {
      "midi": 62,
      "hit": false,
      "t": 90108.77674999976,
      "d": 108.69574999999895,
      "v": 100
    },
    {
      "midi": 55,
      "hit": false,
      "t": 90108.77674999976,
      "d": 108.69574999999895,
      "v": 100
    },
    {
      "midi": 65,
      "hit": false,
      "t": 90108.77674999976,
      "d": 108.69574999999895,
      "v": 100
    },
    {
      "midi": 62,
      "hit": false,
      "t": 90108.77674999976,
      "d": 108.69574999999895,
      "v": 100
    },
    {
      "midi": 58,
      "hit": false,
      "t": 90108.77674999976,
      "d": 108.69574999999895,
      "v": 100
    },
    {
      "midi": 65,
      "hit": false,
      "t": 90108.77674999976,
      "d": 108.69574999999895,
      "v": 100
    },
    {
      "midi": 55,
      "hit": false,
      "t": 90108.77674999976,
      "d": 108.69574999999895,
      "v": 100
    },
    {
      "midi": 45,
      "hit": false,
      "t": 90108.77675000012,
      "d": 45.28989583333896,
      "v": 100
    },
    {
      "midi": 57,
      "hit": false,
      "t": 90217.47249999939,
      "d": 217.3914999999979,
      "v": 100
    },
    {
      "midi": 46,
      "hit": false,
      "t": 90217.47249999939,
      "d": 217.3914999999979,
      "v": 100
    },
    {
      "midi": 40,
      "hit": false,
      "t": 90217.47249999948,
      "d": 108.69574999999895,
      "v": 100
    },
    {
      "midi": 55,
      "hit": false,
      "t": 90217.47249999964,
      "d": 108.69574999999895,
      "v": 100
    },
    {
      "midi": 36,
      "hit": false,
      "t": 90217.4724999997,
      "d": 217.3914999999979,
      "v": 100
    },
    {
      "midi": 46,
      "hit": false,
      "t": 90217.47250000012,
      "d": 45.28989583333896,
      "v": 100
    },
    {
      "midi": 40,
      "hit": false,
      "t": 90326.16824999948,
      "d": 108.69574999999895,
      "v": 100
    },
    {
      "midi": 48,
      "hit": false,
      "t": 90326.16824999964,
      "d": 108.69574999999895,
      "v": 100
    },
    {
      "midi": 50,
      "hit": false,
      "t": 90326.16825000012,
      "d": 45.28989583333896,
      "v": 100
    },
    {
      "midi": 42,
      "hit": false,
      "t": 90434.86399999939,
      "d": 217.3914999999979,
      "v": 100
    },
    {
      "midi": 35,
      "hit": false,
      "t": 90434.86399999948,
      "d": 217.3914999999979,
      "v": 100
    },
    {
      "midi": 42,
      "hit": false,
      "t": 90434.86399999948,
      "d": 217.3914999999979,
      "v": 100
    },
    {
      "midi": 59,
      "hit": false,
      "t": 90434.86399999948,
      "d": 434.7829999999958,
      "v": 100
    },
    {
      "midi": 48,
      "hit": false,
      "t": 90434.86399999964,
      "d": 108.69574999999895,
      "v": 100
    },
    {
      "midi": 36,
      "hit": false,
      "t": 90434.8639999997,
      "d": 434.7829999999958,
      "v": 100
    },
    {
      "midi": 56,
      "hit": false,
      "t": 90434.86399999975,
      "d": 326.08724999999686,
      "v": 100
    },
    {
      "midi": 60,
      "hit": false,
      "t": 90434.86399999975,
      "d": 326.08724999999686,
      "v": 100
    },
    {
      "midi": 63,
      "hit": false,
      "t": 90434.86399999975,
      "d": 326.08724999999686,
      "v": 100
    },
    {
      "midi": 63,
      "hit": false,
      "t": 90434.86399999975,
      "d": 326.08724999999686,
      "v": 100
    },
    {
      "midi": 60,
      "hit": false,
      "t": 90434.86399999975,
      "d": 326.08724999999686,
      "v": 100
    },
    {
      "midi": 56,
      "hit": false,
      "t": 90434.86399999975,
      "d": 326.08724999999686,
      "v": 100
    },
    {
      "midi": 53,
      "hit": false,
      "t": 90434.86399999999,
      "d": 3478.2639999999956,
      "v": 100
    },
    {
      "midi": 63,
      "hit": false,
      "t": 90434.86399999999,
      "d": 3478.2639999999956,
      "v": 100
    },
    {
      "midi": 56,
      "hit": false,
      "t": 90434.86399999999,
      "d": 3478.2639999999956,
      "v": 100
    },
    {
      "midi": 51,
      "hit": false,
      "t": 90434.86399999999,
      "d": 3478.2639999999956,
      "v": 100
    },
    {
      "midi": 68,
      "hit": false,
      "t": 90434.86399999999,
      "d": 3478.2639999999956,
      "v": 100
    },
    {
      "midi": 56,
      "hit": false,
      "t": 90434.86399999999,
      "d": 3478.2639999999956,
      "v": 100
    },
    {
      "midi": 63,
      "hit": false,
      "t": 90434.86399999999,
      "d": 3478.2639999999956,
      "v": 100
    },
    {
      "midi": 53,
      "hit": false,
      "t": 90434.86399999999,
      "d": 3478.2639999999956,
      "v": 100
    },
    {
      "midi": 68,
      "hit": false,
      "t": 90434.86399999999,
      "d": 3478.2639999999956,
      "v": 100
    },
    {
      "midi": 51,
      "hit": false,
      "t": 90434.86399999999,
      "d": 3478.2639999999956,
      "v": 100
    },
    {
      "midi": 67,
      "hit": false,
      "t": 90434.86399999999,
      "d": 3478.2639999999956,
      "v": 100
    },
    {
      "midi": 60,
      "hit": false,
      "t": 90434.86399999999,
      "d": 3478.2639999999956,
      "v": 100
    },
    {
      "midi": 36,
      "hit": false,
      "t": 90434.86400000012,
      "d": 45.28989583333896,
      "v": 100
    },
    {
      "midi": 48,
      "hit": false,
      "t": 90543.55974999964,
      "d": 108.69574999999895,
      "v": 100
    },
    {
      "midi": 46,
      "hit": false,
      "t": 90652.25549999939,
      "d": 217.3914999999979,
      "v": 100
    },
    {
      "midi": 42,
      "hit": false,
      "t": 90652.25549999948,
      "d": 108.69574999999895,
      "v": 100
    },
    {
      "midi": 48,
      "hit": false,
      "t": 90652.25549999964,
      "d": 108.69574999999895,
      "v": 100
    },
    {
      "midi": 36,
      "hit": false,
      "t": 90652.25550000013,
      "d": 45.28989583333896,
      "v": 100
    },
    {
      "midi": 42,
      "hit": false,
      "t": 90760.95124999947,
      "d": 108.69574999999895,
      "v": 100
    },
    {
      "midi": 51,
      "hit": false,
      "t": 90760.95124999963,
      "d": 217.3914999999979,
      "v": 100
    },
    {
      "midi": 56,
      "hit": false,
      "t": 90760.95124999975,
      "d": 326.08724999999686,
      "v": 100
    },
    {
      "midi": 63,
      "hit": false,
      "t": 90760.95124999975,
      "d": 326.08724999999686,
      "v": 100
    },
    {
      "midi": 60,
      "hit": false,
      "t": 90760.95124999975,
      "d": 326.08724999999686,
      "v": 100
    },
    {
      "midi": 60,
      "hit": false,
      "t": 90760.95124999975,
      "d": 326.08724999999686,
      "v": 100
    },
    {
      "midi": 63,
      "hit": false,
      "t": 90760.95124999975,
      "d": 326.08724999999686,
      "v": 100
    },
    {
      "midi": 56,
      "hit": false,
      "t": 90760.95124999975,
      "d": 326.08724999999686,
      "v": 100
    },
    {
      "midi": 40,
      "hit": false,
      "t": 90869.64699999939,
      "d": 217.3914999999979,
      "v": 100
    },
    {
      "midi": 42,
      "hit": false,
      "t": 90869.64699999939,
      "d": 217.3914999999979,
      "v": 100
    },
    {
      "midi": 35,
      "hit": false,
      "t": 90869.64699999947,
      "d": 217.3914999999979,
      "v": 100
    },
    {
      "midi": 40,
      "hit": false,
      "t": 90869.64699999947,
      "d": 217.3914999999979,
      "v": 100
    },
    {
      "midi": 42,
      "hit": false,
      "t": 90869.64699999947,
      "d": 217.3914999999979,
      "v": 100
    },
    {
      "midi": 59,
      "hit": false,
      "t": 90869.64699999947,
      "d": 434.7829999999958,
      "v": 100
    },
    {
      "midi": 84,
      "hit": false,
      "t": 90869.64699999963,
      "d": 217.3914999999979,
      "v": 100
    },
    {
      "midi": 48,
      "hit": false,
      "t": 90869.64699999969,
      "d": 217.3914999999979,
      "v": 100
    },
    {
      "midi": 36,
      "hit": false,
      "t": 90869.64700000014,
      "d": 45.28989583333896,
      "v": 100
    },
    {
      "midi": 48,
      "hit": false,
      "t": 90978.34274999963,
      "d": 108.69574999999895,
      "v": 100
    },
    {
      "midi": 48,
      "hit": false,
      "t": 90978.34275000014,
      "d": 45.28989583333896,
      "v": 100
    },
    {
      "midi": 46,
      "hit": false,
      "t": 91087.03849999938,
      "d": 217.3914999999979,
      "v": 100
    },
    {
      "midi": 42,
      "hit": false,
      "t": 91087.03849999947,
      "d": 108.69574999999895,
      "v": 100
    },
    {
      "midi": 48,
      "hit": false,
      "t": 91087.03849999963,
      "d": 108.69574999999895,
      "v": 100
    },
    {
      "midi": 36,
      "hit": false,
      "t": 91087.03849999969,
      "d": 217.3914999999979,
      "v": 100
    },
    {
      "midi": 56,
      "hit": false,
      "t": 91087.03849999975,
      "d": 326.08724999999686,
      "v": 100
    },
    {
      "midi": 63,
      "hit": false,
      "t": 91087.03849999975,
      "d": 326.08724999999686,
      "v": 100
    },
    {
      "midi": 60,
      "hit": false,
      "t": 91087.03849999975,
      "d": 326.08724999999686,
      "v": 100
    },
    {
      "midi": 60,
      "hit": false,
      "t": 91087.03849999975,
      "d": 326.08724999999686,
      "v": 100
    },
    {
      "midi": 63,
      "hit": false,
      "t": 91087.03849999975,
      "d": 326.08724999999686,
      "v": 100
    },
    {
      "midi": 56,
      "hit": false,
      "t": 91087.03849999975,
      "d": 326.08724999999686,
      "v": 100
    },
    {
      "midi": 42,
      "hit": false,
      "t": 91195.73424999947,
      "d": 108.69574999999895,
      "v": 100
    },
    {
      "midi": 40,
      "hit": false,
      "t": 91195.73424999947,
      "d": 108.69574999999895,
      "v": 100
    },
    {
      "midi": 48,
      "hit": false,
      "t": 91195.73424999963,
      "d": 108.69574999999895,
      "v": 100
    },
    {
      "midi": 43,
      "hit": false,
      "t": 91195.73425000015,
      "d": 45.28989583333896,
      "v": 100
    },
    {
      "midi": 42,
      "hit": false,
      "t": 91304.42999999938,
      "d": 217.3914999999979,
      "v": 100
    },
    {
      "midi": 42,
      "hit": false,
      "t": 91304.42999999947,
      "d": 217.3914999999979,
      "v": 100
    },
    {
      "midi": 35,
      "hit": false,
      "t": 91304.42999999947,
      "d": 217.3914999999979,
      "v": 100
    },
    {
      "midi": 59,
      "hit": false,
      "t": 91304.42999999947,
      "d": 434.7829999999958,
      "v": 100
    },
    {
      "midi": 51,
      "hit": false,
      "t": 91304.42999999963,
      "d": 217.3914999999979,
      "v": 100
    },
    {
      "midi": 36,
      "hit": false,
      "t": 91304.42999999969,
      "d": 108.69574999999895,
      "v": 100
    },
    {
      "midi": 40,
      "hit": false,
      "t": 91413.12574999947,
      "d": 108.69574999999895,
      "v": 100
    },
    {
      "midi": 36,
      "hit": false,
      "t": 91413.12574999969,
      "d": 108.69574999999895,
      "v": 100
    },
    {
      "midi": 56,
      "hit": false,
      "t": 91413.12574999974,
      "d": 326.08724999999686,
      "v": 100
    },
    {
      "midi": 63,
      "hit": false,
      "t": 91413.12574999974,
      "d": 326.08724999999686,
      "v": 100
    },
    {
      "midi": 60,
      "hit": false,
      "t": 91413.12574999974,
      "d": 326.08724999999686,
      "v": 100
    },
    {
      "midi": 60,
      "hit": false,
      "t": 91413.12574999974,
      "d": 326.08724999999686,
      "v": 100
    },
    {
      "midi": 63,
      "hit": false,
      "t": 91413.12574999974,
      "d": 326.08724999999686,
      "v": 100
    },
    {
      "midi": 56,
      "hit": false,
      "t": 91413.12574999974,
      "d": 326.08724999999686,
      "v": 100
    },
    {
      "midi": 41,
      "hit": false,
      "t": 91413.12575000017,
      "d": 45.28989583333896,
      "v": 100
    },
    {
      "midi": 46,
      "hit": false,
      "t": 91521.82149999938,
      "d": 217.3914999999979,
      "v": 100
    },
    {
      "midi": 46,
      "hit": false,
      "t": 91521.82149999947,
      "d": 217.3914999999979,
      "v": 100
    },
    {
      "midi": 48,
      "hit": false,
      "t": 91521.82149999963,
      "d": 108.69574999999895,
      "v": 100
    },
    {
      "midi": 36,
      "hit": false,
      "t": 91521.82149999969,
      "d": 217.3914999999979,
      "v": 100
    },
    {
      "midi": 41,
      "hit": false,
      "t": 91521.82150000017,
      "d": 86.05080208333675,
      "v": 100
    },
    {
      "midi": 48,
      "hit": false,
      "t": 91630.51724999963,
      "d": 108.69574999999895,
      "v": 100
    },
    {
      "midi": 42,
      "hit": false,
      "t": 91739.21299999938,
      "d": 217.3914999999979,
      "v": 100
    },
    {
      "midi": 40,
      "hit": false,
      "t": 91739.21299999938,
      "d": 217.3914999999979,
      "v": 100
    },
    {
      "midi": 40,
      "hit": false,
      "t": 91739.21299999946,
      "d": 108.69574999999895,
      "v": 100
    },
    {
      "midi": 35,
      "hit": false,
      "t": 91739.21299999946,
      "d": 217.3914999999979,
      "v": 100
    },
    {
      "midi": 59,
      "hit": false,
      "t": 91739.21299999946,
      "d": 434.7829999999958,
      "v": 100
    },
    {
      "midi": 53,
      "hit": false,
      "t": 91739.21299999963,
      "d": 108.69574999999895,
      "v": 100
    },
    {
      "midi": 84,
      "hit": false,
      "t": 91739.21299999963,
      "d": 217.3914999999979,
      "v": 100
    },
    {
      "midi": 48,
      "hit": false,
      "t": 91739.21299999968,
      "d": 217.3914999999979,
      "v": 100
    },
    {
      "midi": 43,
      "hit": false,
      "t": 91739.21300000016,
      "d": 45.28989583333896,
      "v": 100
    },
    {
      "midi": 48,
      "hit": false,
      "t": 91847.90874999962,
      "d": 108.69574999999895,
      "v": 100
    },
    {
      "midi": 56,
      "hit": false,
      "t": 91847.90874999974,
      "d": 108.69574999999895,
      "v": 100
    },
    {
      "midi": 60,
      "hit": false,
      "t": 91847.90874999974,
      "d": 108.69574999999895,
      "v": 100
    },
    {
      "midi": 63,
      "hit": false,
      "t": 91847.90874999974,
      "d": 108.69574999999895,
      "v": 100
    },
    {
      "midi": 63,
      "hit": false,
      "t": 91847.90874999974,
      "d": 108.69574999999895,
      "v": 100
    },
    {
      "midi": 60,
      "hit": false,
      "t": 91847.90874999974,
      "d": 108.69574999999895,
      "v": 100
    },
    {
      "midi": 56,
      "hit": false,
      "t": 91847.90874999974,
      "d": 108.69574999999895,
      "v": 100
    },
    {
      "midi": 45,
      "hit": false,
      "t": 91847.90875000016,
      "d": 45.28989583333896,
      "v": 100
    },
    {
      "midi": 46,
      "hit": false,
      "t": 91956.60449999938,
      "d": 217.3914999999979,
      "v": 100
    },
    {
      "midi": 35,
      "hit": false,
      "t": 91956.60449999946,
      "d": 108.69574999999895,
      "v": 100
    },
    {
      "midi": 55,
      "hit": false,
      "t": 91956.60449999962,
      "d": 108.69574999999895,
      "v": 100
    },
    {
      "midi": 36,
      "hit": false,
      "t": 91956.60449999968,
      "d": 217.3914999999979,
      "v": 100
    },
    {
      "midi": 46,
      "hit": false,
      "t": 91956.60450000016,
      "d": 45.28989583333896,
      "v": 100
    },
    {
      "midi": 48,
      "hit": false,
      "t": 92065.30024999962,
      "d": 108.69574999999895,
      "v": 100
    },
    {
      "midi": 50,
      "hit": false,
      "t": 92065.30025000016,
      "d": 45.28989583333896,
      "v": 100
    },
    {
      "midi": 42,
      "hit": false,
      "t": 92173.99599999937,
      "d": 217.3914999999979,
      "v": 100
    },
    {
      "midi": 35,
      "hit": false,
      "t": 92173.99599999946,
      "d": 217.3914999999979,
      "v": 100
    },
    {
      "midi": 42,
      "hit": false,
      "t": 92173.99599999946,
      "d": 217.3914999999979,
      "v": 100
    },
    {
      "midi": 59,
      "hit": false,
      "t": 92173.99599999946,
      "d": 434.7829999999958,
      "v": 100
    },
    {
      "midi": 48,
      "hit": false,
      "t": 92173.99599999962,
      "d": 108.69574999999895,
      "v": 100
    },
    {
      "midi": 36,
      "hit": false,
      "t": 92173.99599999968,
      "d": 434.7829999999958,
      "v": 100
    },
    {
      "midi": 36,
      "hit": false,
      "t": 92173.99600000016,
      "d": 45.28989583333896,
      "v": 100
    },
    {
      "midi": 48,
      "hit": false,
      "t": 92282.69174999962,
      "d": 108.69574999999895,
      "v": 100
    },
    {
      "midi": 36,
      "hit": false,
      "t": 92282.69175000016,
      "d": 45.28989583333896,
      "v": 100
    },
    {
      "midi": 46,
      "hit": false,
      "t": 92391.38749999937,
      "d": 217.3914999999979,
      "v": 100
    },
    {
      "midi": 42,
      "hit": false,
      "t": 92391.38749999946,
      "d": 108.69574999999895,
      "v": 100
    },
    {
      "midi": 48,
      "hit": false,
      "t": 92391.38749999962,
      "d": 108.69574999999895,
      "v": 100
    },
    {
      "midi": 36,
      "hit": false,
      "t": 92391.38750000016,
      "d": 86.05080208333675,
      "v": 100
    },
    {
      "midi": 42,
      "hit": false,
      "t": 92500.08324999946,
      "d": 108.69574999999895,
      "v": 100
    },
    {
      "midi": 51,
      "hit": false,
      "t": 92500.08324999962,
      "d": 217.3914999999979,
      "v": 100
    },
    {
      "midi": 60,
      "hit": false,
      "t": 92500.08324999973,
      "d": 326.08724999999686,
      "v": 100
    },
    {
      "midi": 63,
      "hit": false,
      "t": 92500.08324999973,
      "d": 326.08724999999686,
      "v": 100
    },
    {
      "midi": 56,
      "hit": false,
      "t": 92500.08324999973,
      "d": 326.08724999999686,
      "v": 100
    },
    {
      "midi": 56,
      "hit": false,
      "t": 92500.08324999973,
      "d": 326.08724999999686,
      "v": 100
    },
    {
      "midi": 63,
      "hit": false,
      "t": 92500.08324999973,
      "d": 326.08724999999686,
      "v": 100
    },
    {
      "midi": 60,
      "hit": false,
      "t": 92500.08324999973,
      "d": 326.08724999999686,
      "v": 100
    },
    {
      "midi": 40,
      "hit": false,
      "t": 92608.77899999937,
      "d": 217.3914999999979,
      "v": 100
    },
    {
      "midi": 42,
      "hit": false,
      "t": 92608.77899999937,
      "d": 217.3914999999979,
      "v": 100
    },
    {
      "midi": 40,
      "hit": false,
      "t": 92608.77899999946,
      "d": 108.69574999999895,
      "v": 100
    },
    {
      "midi": 42,
      "hit": false,
      "t": 92608.77899999946,
      "d": 217.3914999999979,
      "v": 100
    },
    {
      "midi": 35,
      "hit": false,
      "t": 92608.77899999946,
      "d": 217.3914999999979,
      "v": 100
    },
    {
      "midi": 59,
      "hit": false,
      "t": 92608.77899999946,
      "d": 434.7829999999958,
      "v": 100
    },
    {
      "midi": 84,
      "hit": false,
      "t": 92608.77899999962,
      "d": 217.3914999999979,
      "v": 100
    },
    {
      "midi": 48,
      "hit": false,
      "t": 92608.77899999967,
      "d": 217.3914999999979,
      "v": 100
    },
    {
      "midi": 36,
      "hit": false,
      "t": 92608.77900000016,
      "d": 45.28989583333896,
      "v": 100
    },
    {
      "midi": 48,
      "hit": false,
      "t": 92717.47474999962,
      "d": 108.69574999999895,
      "v": 100
    },
    {
      "midi": 48,
      "hit": false,
      "t": 92717.47475000015,
      "d": 45.28989583333896,
      "v": 100
    },
    {
      "midi": 46,
      "hit": false,
      "t": 92826.17049999937,
      "d": 217.3914999999979,
      "v": 100
    },
    {
      "midi": 42,
      "hit": false,
      "t": 92826.17049999945,
      "d": 108.69574999999895,
      "v": 100
    },
    {
      "midi": 48,
      "hit": false,
      "t": 92826.17049999961,
      "d": 108.69574999999895,
      "v": 100
    },
    {
      "midi": 36,
      "hit": false,
      "t": 92826.17049999967,
      "d": 217.3914999999979,
      "v": 100
    },
    {
      "midi": 60,
      "hit": false,
      "t": 92826.17049999973,
      "d": 326.08724999999686,
      "v": 100
    },
    {
      "midi": 63,
      "hit": false,
      "t": 92826.17049999973,
      "d": 326.08724999999686,
      "v": 100
    },
    {
      "midi": 56,
      "hit": false,
      "t": 92826.17049999973,
      "d": 326.08724999999686,
      "v": 100
    },
    {
      "midi": 56,
      "hit": false,
      "t": 92826.17049999973,
      "d": 326.08724999999686,
      "v": 100
    },
    {
      "midi": 63,
      "hit": false,
      "t": 92826.17049999973,
      "d": 326.08724999999686,
      "v": 100
    },
    {
      "midi": 60,
      "hit": false,
      "t": 92826.17049999973,
      "d": 326.08724999999686,
      "v": 100
    },
    {
      "midi": 42,
      "hit": false,
      "t": 92934.86624999945,
      "d": 108.69574999999895,
      "v": 100
    },
    {
      "midi": 40,
      "hit": false,
      "t": 92934.86624999945,
      "d": 108.69574999999895,
      "v": 100
    },
    {
      "midi": 48,
      "hit": false,
      "t": 92934.86624999961,
      "d": 108.69574999999895,
      "v": 100
    },
    {
      "midi": 43,
      "hit": false,
      "t": 92934.86625000017,
      "d": 45.28989583333896,
      "v": 100
    },
    {
      "midi": 42,
      "hit": false,
      "t": 93043.56199999937,
      "d": 217.3914999999979,
      "v": 100
    },
    {
      "midi": 42,
      "hit": false,
      "t": 93043.56199999945,
      "d": 217.3914999999979,
      "v": 100
    },
    {
      "midi": 35,
      "hit": false,
      "t": 93043.56199999945,
      "d": 217.3914999999979,
      "v": 100
    },
    {
      "midi": 59,
      "hit": false,
      "t": 93043.56199999945,
      "d": 434.7829999999958,
      "v": 100
    },
    {
      "midi": 51,
      "hit": false,
      "t": 93043.56199999961,
      "d": 217.3914999999979,
      "v": 100
    },
    {
      "midi": 36,
      "hit": false,
      "t": 93043.56199999967,
      "d": 108.69574999999895,
      "v": 100
    },
    {
      "midi": 40,
      "hit": false,
      "t": 93152.25774999945,
      "d": 108.69574999999895,
      "v": 100
    },
    {
      "midi": 36,
      "hit": false,
      "t": 93152.25774999967,
      "d": 108.69574999999895,
      "v": 100
    },
    {
      "midi": 60,
      "hit": false,
      "t": 93152.25774999973,
      "d": 326.08724999999686,
      "v": 100
    },
    {
      "midi": 63,
      "hit": false,
      "t": 93152.25774999973,
      "d": 326.08724999999686,
      "v": 100
    },
    {
      "midi": 56,
      "hit": false,
      "t": 93152.25774999973,
      "d": 326.08724999999686,
      "v": 100
    },
    {
      "midi": 56,
      "hit": false,
      "t": 93152.25774999973,
      "d": 326.08724999999686,
      "v": 100
    },
    {
      "midi": 63,
      "hit": false,
      "t": 93152.25774999973,
      "d": 326.08724999999686,
      "v": 100
    },
    {
      "midi": 60,
      "hit": false,
      "t": 93152.25774999973,
      "d": 326.08724999999686,
      "v": 100
    },
    {
      "midi": 41,
      "hit": false,
      "t": 93152.25775000018,
      "d": 45.28989583333896,
      "v": 100
    },
    {
      "midi": 46,
      "hit": false,
      "t": 93260.95349999936,
      "d": 217.3914999999979,
      "v": 100
    },
    {
      "midi": 40,
      "hit": false,
      "t": 93260.95349999945,
      "d": 108.69574999999895,
      "v": 100
    },
    {
      "midi": 46,
      "hit": false,
      "t": 93260.95349999945,
      "d": 217.3914999999979,
      "v": 100
    },
    {
      "midi": 48,
      "hit": false,
      "t": 93260.95349999961,
      "d": 108.69574999999895,
      "v": 100
    },
    {
      "midi": 36,
      "hit": false,
      "t": 93260.95349999967,
      "d": 217.3914999999979,
      "v": 100
    },
    {
      "midi": 41,
      "hit": false,
      "t": 93260.95350000018,
      "d": 86.05080208333675,
      "v": 100
    },
    {
      "midi": 48,
      "hit": false,
      "t": 93369.64924999961,
      "d": 108.69574999999895,
      "v": 100
    },
    {
      "midi": 42,
      "hit": false,
      "t": 93478.34499999936,
      "d": 217.3914999999979,
      "v": 100
    },
    {
      "midi": 40,
      "hit": false,
      "t": 93478.34499999936,
      "d": 217.3914999999979,
      "v": 100
    },
    {
      "midi": 40,
      "hit": false,
      "t": 93478.34499999945,
      "d": 108.69574999999895,
      "v": 100
    },
    {
      "midi": 35,
      "hit": false,
      "t": 93478.34499999945,
      "d": 217.3914999999979,
      "v": 100
    },
    {
      "midi": 59,
      "hit": false,
      "t": 93478.34499999945,
      "d": 434.7829999999958,
      "v": 100
    },
    {
      "midi": 53,
      "hit": false,
      "t": 93478.34499999961,
      "d": 108.69574999999895,
      "v": 100
    },
    {
      "midi": 84,
      "hit": false,
      "t": 93478.34499999961,
      "d": 217.3914999999979,
      "v": 100
    },
    {
      "midi": 48,
      "hit": false,
      "t": 93478.34499999967,
      "d": 217.3914999999979,
      "v": 100
    },
    {
      "midi": 43,
      "hit": false,
      "t": 93478.34500000018,
      "d": 45.28989583333896,
      "v": 100
    },
    {
      "midi": 48,
      "hit": false,
      "t": 93587.0407499996,
      "d": 108.69574999999895,
      "v": 100
    },
    {
      "midi": 63,
      "hit": false,
      "t": 93587.04074999972,
      "d": 108.69574999999895,
      "v": 100
    },
    {
      "midi": 60,
      "hit": false,
      "t": 93587.04074999972,
      "d": 108.69574999999895,
      "v": 100
    },
    {
      "midi": 56,
      "hit": false,
      "t": 93587.04074999972,
      "d": 108.69574999999895,
      "v": 100
    },
    {
      "midi": 56,
      "hit": false,
      "t": 93587.04074999972,
      "d": 108.69574999999895,
      "v": 100
    },
    {
      "midi": 60,
      "hit": false,
      "t": 93587.04074999972,
      "d": 108.69574999999895,
      "v": 100
    },
    {
      "midi": 63,
      "hit": false,
      "t": 93587.04074999972,
      "d": 108.69574999999895,
      "v": 100
    },
    {
      "midi": 45,
      "hit": false,
      "t": 93587.04075000017,
      "d": 45.28989583333896,
      "v": 100
    },
    {
      "midi": 46,
      "hit": false,
      "t": 93695.73649999936,
      "d": 217.3914999999979,
      "v": 100
    },
    {
      "midi": 57,
      "hit": false,
      "t": 93695.73649999936,
      "d": 217.3914999999979,
      "v": 100
    },
    {
      "midi": 35,
      "hit": false,
      "t": 93695.73649999945,
      "d": 108.69574999999895,
      "v": 100
    },
    {
      "midi": 40,
      "hit": false,
      "t": 93695.73649999945,
      "d": 108.69574999999895,
      "v": 100
    },
    {
      "midi": 55,
      "hit": false,
      "t": 93695.7364999996,
      "d": 108.69574999999895,
      "v": 100
    },
    {
      "midi": 36,
      "hit": false,
      "t": 93695.73649999966,
      "d": 217.3914999999979,
      "v": 100
    },
    {
      "midi": 46,
      "hit": false,
      "t": 93695.73650000017,
      "d": 45.28989583333896,
      "v": 100
    },
    {
      "midi": 40,
      "hit": false,
      "t": 93804.43224999945,
      "d": 108.69574999999895,
      "v": 100
    },
    {
      "midi": 48,
      "hit": false,
      "t": 93804.4322499996,
      "d": 108.69574999999895,
      "v": 100
    },
    {
      "midi": 50,
      "hit": false,
      "t": 93804.43225000017,
      "d": 45.28989583333896,
      "v": 100
    },
    {
      "midi": 49,
      "hit": false,
      "t": 93913.12799999936,
      "d": 217.3914999999979,
      "v": 100
    },
    {
      "midi": 42,
      "hit": false,
      "t": 93913.12799999936,
      "d": 217.3914999999979,
      "v": 100
    },
    {
      "midi": 42,
      "hit": false,
      "t": 93913.12799999944,
      "d": 217.3914999999979,
      "v": 100
    },
    {
      "midi": 35,
      "hit": false,
      "t": 93913.12799999944,
      "d": 217.3914999999979,
      "v": 100
    },
    {
      "midi": 59,
      "hit": false,
      "t": 93913.12799999944,
      "d": 434.7829999999958,
      "v": 100
    },
    {
      "midi": 48,
      "hit": false,
      "t": 93913.1279999996,
      "d": 108.69574999999895,
      "v": 100
    },
    {
      "midi": 36,
      "hit": false,
      "t": 93913.12799999966,
      "d": 434.7829999999958,
      "v": 100
    },
    {
      "midi": 63,
      "hit": false,
      "t": 93913.12799999972,
      "d": 326.08724999999686,
      "v": 100
    },
    {
      "midi": 60,
      "hit": false,
      "t": 93913.12799999972,
      "d": 326.08724999999686,
      "v": 100
    },
    {
      "midi": 56,
      "hit": false,
      "t": 93913.12799999972,
      "d": 326.08724999999686,
      "v": 100
    },
    {
      "midi": 56,
      "hit": false,
      "t": 93913.12799999972,
      "d": 326.08724999999686,
      "v": 100
    },
    {
      "midi": 60,
      "hit": false,
      "t": 93913.12799999972,
      "d": 326.08724999999686,
      "v": 100
    },
    {
      "midi": 63,
      "hit": false,
      "t": 93913.12799999972,
      "d": 326.08724999999686,
      "v": 100
    },
    {
      "midi": 63,
      "hit": false,
      "t": 93913.12799999998,
      "d": 502.717843749997,
      "v": 100
    },
    {
      "midi": 58,
      "hit": false,
      "t": 93913.12799999998,
      "d": 502.717843749997,
      "v": 100
    },
    {
      "midi": 70,
      "hit": false,
      "t": 93913.12799999998,
      "d": 3478.2639999999956,
      "v": 100
    },
    {
      "midi": 51,
      "hit": false,
      "t": 93913.12799999998,
      "d": 3478.2639999999956,
      "v": 100
    },
    {
      "midi": 53,
      "hit": false,
      "t": 93913.12799999998,
      "d": 3478.2639999999956,
      "v": 100
    },
    {
      "midi": 58,
      "hit": false,
      "t": 93913.12799999998,
      "d": 502.717843749997,
      "v": 100
    },
    {
      "midi": 63,
      "hit": false,
      "t": 93913.12799999998,
      "d": 502.717843749997,
      "v": 100
    },
    {
      "midi": 70,
      "hit": false,
      "t": 93913.12799999998,
      "d": 3478.2639999999956,
      "v": 100
    },
    {
      "midi": 53,
      "hit": false,
      "t": 93913.12799999998,
      "d": 3478.2639999999956,
      "v": 100
    },
    {
      "midi": 51,
      "hit": false,
      "t": 93913.12799999998,
      "d": 3478.2639999999956,
      "v": 100
    },
    {
      "midi": 68,
      "hit": false,
      "t": 93913.12799999998,
      "d": 3478.2639999999956,
      "v": 100
    },
    {
      "midi": 63,
      "hit": false,
      "t": 93913.12799999998,
      "d": 3478.2639999999956,
      "v": 100
    },
    {
      "midi": 36,
      "hit": false,
      "t": 93913.12800000017,
      "d": 45.28989583333896,
      "v": 100
    },
    {
      "midi": 48,
      "hit": false,
      "t": 94021.8237499996,
      "d": 108.69574999999895,
      "v": 100
    },
    {
      "midi": 46,
      "hit": false,
      "t": 94130.51949999935,
      "d": 217.3914999999979,
      "v": 100
    },
    {
      "midi": 42,
      "hit": false,
      "t": 94130.51949999944,
      "d": 108.69574999999895,
      "v": 100
    },
    {
      "midi": 48,
      "hit": false,
      "t": 94130.5194999996,
      "d": 108.69574999999895,
      "v": 100
    },
    {
      "midi": 36,
      "hit": false,
      "t": 94130.51950000018,
      "d": 45.28989583333896,
      "v": 100
    },
    {
      "midi": 42,
      "hit": false,
      "t": 94239.21524999944,
      "d": 108.69574999999895,
      "v": 100
    },
    {
      "midi": 51,
      "hit": false,
      "t": 94239.2152499996,
      "d": 217.3914999999979,
      "v": 100
    },
    {
      "midi": 60,
      "hit": false,
      "t": 94239.21524999972,
      "d": 326.08724999999686,
      "v": 100
    },
    {
      "midi": 63,
      "hit": false,
      "t": 94239.21524999972,
      "d": 326.08724999999686,
      "v": 100
    },
    {
      "midi": 56,
      "hit": false,
      "t": 94239.21524999972,
      "d": 326.08724999999686,
      "v": 100
    },
    {
      "midi": 56,
      "hit": false,
      "t": 94239.21524999972,
      "d": 326.08724999999686,
      "v": 100
    },
    {
      "midi": 63,
      "hit": false,
      "t": 94239.21524999972,
      "d": 326.08724999999686,
      "v": 100
    },
    {
      "midi": 60,
      "hit": false,
      "t": 94239.21524999972,
      "d": 326.08724999999686,
      "v": 100
    },
    {
      "midi": 40,
      "hit": false,
      "t": 94347.91099999935,
      "d": 217.3914999999979,
      "v": 100
    },
    {
      "midi": 42,
      "hit": false,
      "t": 94347.91099999935,
      "d": 217.3914999999979,
      "v": 100
    },
    {
      "midi": 40,
      "hit": false,
      "t": 94347.91099999944,
      "d": 217.3914999999979,
      "v": 100
    },
    {
      "midi": 35,
      "hit": false,
      "t": 94347.91099999944,
      "d": 217.3914999999979,
      "v": 100
    },
    {
      "midi": 42,
      "hit": false,
      "t": 94347.91099999944,
      "d": 217.3914999999979,
      "v": 100
    },
    {
      "midi": 59,
      "hit": false,
      "t": 94347.91099999944,
      "d": 434.7829999999958,
      "v": 100
    },
    {
      "midi": 84,
      "hit": false,
      "t": 94347.9109999996,
      "d": 217.3914999999979,
      "v": 100
    },
    {
      "midi": 48,
      "hit": false,
      "t": 94347.91099999966,
      "d": 217.3914999999979,
      "v": 100
    },
    {
      "midi": 36,
      "hit": false,
      "t": 94347.9110000002,
      "d": 45.28989583333896,
      "v": 100
    },
    {
      "midi": 48,
      "hit": false,
      "t": 94456.6067499996,
      "d": 108.69574999999895,
      "v": 100
    },
    {
      "midi": 48,
      "hit": false,
      "t": 94456.6067500002,
      "d": 45.28989583333896,
      "v": 100
    },
    {
      "midi": 46,
      "hit": false,
      "t": 94565.30249999935,
      "d": 217.3914999999979,
      "v": 100
    },
    {
      "midi": 42,
      "hit": false,
      "t": 94565.30249999944,
      "d": 108.69574999999895,
      "v": 100
    },
    {
      "midi": 48,
      "hit": false,
      "t": 94565.3024999996,
      "d": 108.69574999999895,
      "v": 100
    },
    {
      "midi": 36,
      "hit": false,
      "t": 94565.30249999966,
      "d": 217.3914999999979,
      "v": 100
    },
    {
      "midi": 60,
      "hit": false,
      "t": 94565.30249999971,
      "d": 326.08724999999686,
      "v": 100
    },
    {
      "midi": 63,
      "hit": false,
      "t": 94565.30249999971,
      "d": 326.08724999999686,
      "v": 100
    },
    {
      "midi": 56,
      "hit": false,
      "t": 94565.30249999971,
      "d": 326.08724999999686,
      "v": 100
    },
    {
      "midi": 56,
      "hit": false,
      "t": 94565.30249999971,
      "d": 326.08724999999686,
      "v": 100
    },
    {
      "midi": 63,
      "hit": false,
      "t": 94565.30249999971,
      "d": 326.08724999999686,
      "v": 100
    },
    {
      "midi": 60,
      "hit": false,
      "t": 94565.30249999971,
      "d": 326.08724999999686,
      "v": 100
    },
    {
      "midi": 40,
      "hit": false,
      "t": 94673.99824999944,
      "d": 108.69574999999895,
      "v": 100
    },
    {
      "midi": 42,
      "hit": false,
      "t": 94673.99824999944,
      "d": 108.69574999999895,
      "v": 100
    },
    {
      "midi": 48,
      "hit": false,
      "t": 94673.9982499996,
      "d": 108.69574999999895,
      "v": 100
    },
    {
      "midi": 43,
      "hit": false,
      "t": 94673.99825000021,
      "d": 45.28989583333896,
      "v": 100
    },
    {
      "midi": 42,
      "hit": false,
      "t": 94782.69399999935,
      "d": 217.3914999999979,
      "v": 100
    },
    {
      "midi": 35,
      "hit": false,
      "t": 94782.69399999944,
      "d": 217.3914999999979,
      "v": 100
    },
    {
      "midi": 42,
      "hit": false,
      "t": 94782.69399999944,
      "d": 217.3914999999979,
      "v": 100
    },
    {
      "midi": 59,
      "hit": false,
      "t": 94782.69399999944,
      "d": 434.7829999999958,
      "v": 100
    },
    {
      "midi": 51,
      "hit": false,
      "t": 94782.6939999996,
      "d": 217.3914999999979,
      "v": 100
    },
    {
      "midi": 36,
      "hit": false,
      "t": 94782.69399999965,
      "d": 108.69574999999895,
      "v": 100
    },
    {
      "midi": 40,
      "hit": false,
      "t": 94891.38974999943,
      "d": 108.69574999999895,
      "v": 100
    },
    {
      "midi": 36,
      "hit": false,
      "t": 94891.38974999965,
      "d": 108.69574999999895,
      "v": 100
    },
    {
      "midi": 60,
      "hit": false,
      "t": 94891.38974999971,
      "d": 326.08724999999686,
      "v": 100
    },
    {
      "midi": 63,
      "hit": false,
      "t": 94891.38974999971,
      "d": 326.08724999999686,
      "v": 100
    },
    {
      "midi": 56,
      "hit": false,
      "t": 94891.38974999971,
      "d": 326.08724999999686,
      "v": 100
    },
    {
      "midi": 56,
      "hit": false,
      "t": 94891.38974999971,
      "d": 326.08724999999686,
      "v": 100
    },
    {
      "midi": 63,
      "hit": false,
      "t": 94891.38974999971,
      "d": 326.08724999999686,
      "v": 100
    },
    {
      "midi": 60,
      "hit": false,
      "t": 94891.38974999971,
      "d": 326.08724999999686,
      "v": 100
    },
    {
      "midi": 41,
      "hit": false,
      "t": 94891.38975000022,
      "d": 45.28989583333896,
      "v": 100
    },
    {
      "midi": 46,
      "hit": false,
      "t": 95000.08549999935,
      "d": 217.3914999999979,
      "v": 100
    },
    {
      "midi": 46,
      "hit": false,
      "t": 95000.08549999943,
      "d": 217.3914999999979,
      "v": 100
    },
    {
      "midi": 48,
      "hit": false,
      "t": 95000.0854999996,
      "d": 108.69574999999895,
      "v": 100
    },
    {
      "midi": 36,
      "hit": false,
      "t": 95000.08549999965,
      "d": 217.3914999999979,
      "v": 100
    },
    {
      "midi": 41,
      "hit": false,
      "t": 95000.08550000022,
      "d": 86.05080208333675,
      "v": 100
    },
    {
      "midi": 48,
      "hit": false,
      "t": 95108.78124999959,
      "d": 108.69574999999895,
      "v": 100
    },
    {
      "midi": 40,
      "hit": false,
      "t": 95217.47699999934,
      "d": 217.3914999999979,
      "v": 100
    },
    {
      "midi": 42,
      "hit": false,
      "t": 95217.47699999934,
      "d": 217.3914999999979,
      "v": 100
    },
    {
      "midi": 40,
      "hit": false,
      "t": 95217.47699999943,
      "d": 108.69574999999895,
      "v": 100
    },
    {
      "midi": 35,
      "hit": false,
      "t": 95217.47699999943,
      "d": 217.3914999999979,
      "v": 100
    },
    {
      "midi": 59,
      "hit": false,
      "t": 95217.47699999943,
      "d": 434.7829999999958,
      "v": 100
    },
    {
      "midi": 53,
      "hit": false,
      "t": 95217.47699999959,
      "d": 108.69574999999895,
      "v": 100
    },
    {
      "midi": 84,
      "hit": false,
      "t": 95217.47699999959,
      "d": 217.3914999999979,
      "v": 100
    },
    {
      "midi": 48,
      "hit": false,
      "t": 95217.47699999965,
      "d": 217.3914999999979,
      "v": 100
    },
    {
      "midi": 43,
      "hit": false,
      "t": 95217.47700000022,
      "d": 45.28989583333896,
      "v": 100
    },
    {
      "midi": 48,
      "hit": false,
      "t": 95326.17274999959,
      "d": 108.69574999999895,
      "v": 100
    },
    {
      "midi": 63,
      "hit": false,
      "t": 95326.1727499997,
      "d": 108.69574999999895,
      "v": 100
    },
    {
      "midi": 60,
      "hit": false,
      "t": 95326.1727499997,
      "d": 108.69574999999895,
      "v": 100
    },
    {
      "midi": 56,
      "hit": false,
      "t": 95326.1727499997,
      "d": 108.69574999999895,
      "v": 100
    },
    {
      "midi": 56,
      "hit": false,
      "t": 95326.1727499997,
      "d": 108.69574999999895,
      "v": 100
    },
    {
      "midi": 60,
      "hit": false,
      "t": 95326.1727499997,
      "d": 108.69574999999895,
      "v": 100
    },
    {
      "midi": 63,
      "hit": false,
      "t": 95326.1727499997,
      "d": 108.69574999999895,
      "v": 100
    },
    {
      "midi": 45,
      "hit": false,
      "t": 95326.17275000022,
      "d": 45.28989583333896,
      "v": 100
    },
    {
      "midi": 46,
      "hit": false,
      "t": 95434.86849999934,
      "d": 217.3914999999979,
      "v": 100
    },
    {
      "midi": 40,
      "hit": false,
      "t": 95434.86849999943,
      "d": 108.69574999999895,
      "v": 100
    },
    {
      "midi": 55,
      "hit": false,
      "t": 95434.86849999959,
      "d": 108.69574999999895,
      "v": 100
    },
    {
      "midi": 36,
      "hit": false,
      "t": 95434.86849999965,
      "d": 217.3914999999979,
      "v": 100
    },
    {
      "midi": 46,
      "hit": false,
      "t": 95434.86850000022,
      "d": 45.28989583333896,
      "v": 100
    },
    {
      "midi": 40,
      "hit": false,
      "t": 95543.56424999943,
      "d": 108.69574999999895,
      "v": 100
    },
    {
      "midi": 48,
      "hit": false,
      "t": 95543.56424999959,
      "d": 108.69574999999895,
      "v": 100
    },
    {
      "midi": 50,
      "hit": false,
      "t": 95543.56425000021,
      "d": 45.28989583333896,
      "v": 100
    },
    {
      "midi": 42,
      "hit": false,
      "t": 95652.25999999934,
      "d": 217.3914999999979,
      "v": 100
    },
    {
      "midi": 35,
      "hit": false,
      "t": 95652.25999999943,
      "d": 217.3914999999979,
      "v": 100
    },
    {
      "midi": 42,
      "hit": false,
      "t": 95652.25999999943,
      "d": 217.3914999999979,
      "v": 100
    },
    {
      "midi": 59,
      "hit": false,
      "t": 95652.25999999943,
      "d": 434.7829999999958,
      "v": 100
    },
    {
      "midi": 48,
      "hit": false,
      "t": 95652.25999999959,
      "d": 108.69574999999895,
      "v": 100
    },
    {
      "midi": 36,
      "hit": false,
      "t": 95652.25999999965,
      "d": 434.7829999999958,
      "v": 100
    },
    {
      "midi": 36,
      "hit": false,
      "t": 95652.26000000021,
      "d": 45.28989583333896,
      "v": 100
    },
    {
      "midi": 48,
      "hit": false,
      "t": 95760.95574999959,
      "d": 108.69574999999895,
      "v": 100
    },
    {
      "midi": 36,
      "hit": false,
      "t": 95760.95575000021,
      "d": 45.28989583333896,
      "v": 100
    },
    {
      "midi": 46,
      "hit": false,
      "t": 95869.65149999934,
      "d": 217.3914999999979,
      "v": 100
    },
    {
      "midi": 42,
      "hit": false,
      "t": 95869.65149999943,
      "d": 108.69574999999895,
      "v": 100
    },
    {
      "midi": 48,
      "hit": false,
      "t": 95869.65149999959,
      "d": 108.69574999999895,
      "v": 100
    },
    {
      "midi": 36,
      "hit": false,
      "t": 95869.65150000021,
      "d": 86.05080208333675,
      "v": 100
    },
    {
      "midi": 42,
      "hit": false,
      "t": 95978.34724999942,
      "d": 108.69574999999895,
      "v": 100
    },
    {
      "midi": 51,
      "hit": false,
      "t": 95978.34724999958,
      "d": 217.3914999999979,
      "v": 100
    },
    {
      "midi": 56,
      "hit": false,
      "t": 95978.3472499997,
      "d": 326.08724999999686,
      "v": 100
    },
    {
      "midi": 63,
      "hit": false,
      "t": 95978.3472499997,
      "d": 326.08724999999686,
      "v": 100
    },
    {
      "midi": 60,
      "hit": false,
      "t": 95978.3472499997,
      "d": 326.08724999999686,
      "v": 100
    },
    {
      "midi": 60,
      "hit": false,
      "t": 95978.3472499997,
      "d": 326.08724999999686,
      "v": 100
    },
    {
      "midi": 63,
      "hit": false,
      "t": 95978.3472499997,
      "d": 326.08724999999686,
      "v": 100
    },
    {
      "midi": 56,
      "hit": false,
      "t": 95978.3472499997,
      "d": 326.08724999999686,
      "v": 100
    },
    {
      "midi": 42,
      "hit": false,
      "t": 96087.04299999934,
      "d": 217.3914999999979,
      "v": 100
    },
    {
      "midi": 40,
      "hit": false,
      "t": 96087.04299999934,
      "d": 217.3914999999979,
      "v": 100
    },
    {
      "midi": 40,
      "hit": false,
      "t": 96087.04299999942,
      "d": 108.69574999999895,
      "v": 100
    },
    {
      "midi": 42,
      "hit": false,
      "t": 96087.04299999942,
      "d": 217.3914999999979,
      "v": 100
    },
    {
      "midi": 35,
      "hit": false,
      "t": 96087.04299999942,
      "d": 217.3914999999979,
      "v": 100
    },
    {
      "midi": 59,
      "hit": false,
      "t": 96087.04299999942,
      "d": 434.7829999999958,
      "v": 100
    },
    {
      "midi": 84,
      "hit": false,
      "t": 96087.04299999958,
      "d": 217.3914999999979,
      "v": 100
    },
    {
      "midi": 48,
      "hit": false,
      "t": 96087.04299999964,
      "d": 217.3914999999979,
      "v": 100
    },
    {
      "midi": 36,
      "hit": false,
      "t": 96087.04300000021,
      "d": 45.28989583333896,
      "v": 100
    },
    {
      "midi": 48,
      "hit": false,
      "t": 96195.73874999958,
      "d": 108.69574999999895,
      "v": 100
    },
    {
      "midi": 48,
      "hit": false,
      "t": 96195.73875000021,
      "d": 45.28989583333896,
      "v": 100
    },
    {
      "midi": 46,
      "hit": false,
      "t": 96304.43449999933,
      "d": 217.3914999999979,
      "v": 100
    },
    {
      "midi": 42,
      "hit": false,
      "t": 96304.43449999942,
      "d": 108.69574999999895,
      "v": 100
    },
    {
      "midi": 48,
      "hit": false,
      "t": 96304.43449999958,
      "d": 108.69574999999895,
      "v": 100
    },
    {
      "midi": 36,
      "hit": false,
      "t": 96304.43449999964,
      "d": 217.3914999999979,
      "v": 100
    },
    {
      "midi": 56,
      "hit": false,
      "t": 96304.4344999997,
      "d": 326.08724999999686,
      "v": 100
    },
    {
      "midi": 63,
      "hit": false,
      "t": 96304.4344999997,
      "d": 326.08724999999686,
      "v": 100
    },
    {
      "midi": 60,
      "hit": false,
      "t": 96304.4344999997,
      "d": 326.08724999999686,
      "v": 100
    },
    {
      "midi": 60,
      "hit": false,
      "t": 96304.4344999997,
      "d": 326.08724999999686,
      "v": 100
    },
    {
      "midi": 63,
      "hit": false,
      "t": 96304.4344999997,
      "d": 326.08724999999686,
      "v": 100
    },
    {
      "midi": 56,
      "hit": false,
      "t": 96304.4344999997,
      "d": 326.08724999999686,
      "v": 100
    },
    {
      "midi": 42,
      "hit": false,
      "t": 96413.13024999942,
      "d": 108.69574999999895,
      "v": 100
    },
    {
      "midi": 40,
      "hit": false,
      "t": 96413.13024999942,
      "d": 108.69574999999895,
      "v": 100
    },
    {
      "midi": 48,
      "hit": false,
      "t": 96413.13024999958,
      "d": 108.69574999999895,
      "v": 100
    },
    {
      "midi": 43,
      "hit": false,
      "t": 96413.13025000022,
      "d": 45.28989583333896,
      "v": 100
    },
    {
      "midi": 42,
      "hit": false,
      "t": 96521.82599999933,
      "d": 217.3914999999979,
      "v": 100
    },
    {
      "midi": 42,
      "hit": false,
      "t": 96521.82599999942,
      "d": 217.3914999999979,
      "v": 100
    },
    {
      "midi": 35,
      "hit": false,
      "t": 96521.82599999942,
      "d": 217.3914999999979,
      "v": 100
    },
    {
      "midi": 59,
      "hit": false,
      "t": 96521.82599999942,
      "d": 434.7829999999958,
      "v": 100
    },
    {
      "midi": 51,
      "hit": false,
      "t": 96521.82599999958,
      "d": 217.3914999999979,
      "v": 100
    },
    {
      "midi": 36,
      "hit": false,
      "t": 96521.82599999964,
      "d": 108.69574999999895,
      "v": 100
    },
    {
      "midi": 40,
      "hit": false,
      "t": 96630.52174999942,
      "d": 108.69574999999895,
      "v": 100
    },
    {
      "midi": 36,
      "hit": false,
      "t": 96630.52174999964,
      "d": 108.69574999999895,
      "v": 100
    },
    {
      "midi": 56,
      "hit": false,
      "t": 96630.5217499997,
      "d": 326.08724999999686,
      "v": 100
    },
    {
      "midi": 63,
      "hit": false,
      "t": 96630.5217499997,
      "d": 326.08724999999686,
      "v": 100
    },
    {
      "midi": 60,
      "hit": false,
      "t": 96630.5217499997,
      "d": 326.08724999999686,
      "v": 100
    },
    {
      "midi": 60,
      "hit": false,
      "t": 96630.5217499997,
      "d": 326.08724999999686,
      "v": 100
    },
    {
      "midi": 63,
      "hit": false,
      "t": 96630.5217499997,
      "d": 326.08724999999686,
      "v": 100
    },
    {
      "midi": 56,
      "hit": false,
      "t": 96630.5217499997,
      "d": 326.08724999999686,
      "v": 100
    },
    {
      "midi": 41,
      "hit": false,
      "t": 96630.52175000023,
      "d": 45.28989583333896,
      "v": 100
    },
    {
      "midi": 46,
      "hit": false,
      "t": 96739.21749999933,
      "d": 217.3914999999979,
      "v": 100
    },
    {
      "midi": 46,
      "hit": false,
      "t": 96739.21749999942,
      "d": 217.3914999999979,
      "v": 100
    },
    {
      "midi": 48,
      "hit": false,
      "t": 96739.21749999958,
      "d": 108.69574999999895,
      "v": 100
    },
    {
      "midi": 36,
      "hit": false,
      "t": 96739.21749999964,
      "d": 217.3914999999979,
      "v": 100
    },
    {
      "midi": 41,
      "hit": false,
      "t": 96739.21750000023,
      "d": 86.05080208333675,
      "v": 100
    },
    {
      "midi": 48,
      "hit": false,
      "t": 96847.91324999958,
      "d": 108.69574999999895,
      "v": 100
    },
    {
      "midi": 42,
      "hit": false,
      "t": 96956.60899999933,
      "d": 217.3914999999979,
      "v": 100
    },
    {
      "midi": 40,
      "hit": false,
      "t": 96956.60899999933,
      "d": 217.3914999999979,
      "v": 100
    },
    {
      "midi": 40,
      "hit": false,
      "t": 96956.60899999941,
      "d": 108.69574999999895,
      "v": 100
    },
    {
      "midi": 35,
      "hit": false,
      "t": 96956.60899999941,
      "d": 217.3914999999979,
      "v": 100
    },
    {
      "midi": 59,
      "hit": false,
      "t": 96956.60899999941,
      "d": 434.7829999999958,
      "v": 100
    },
    {
      "midi": 53,
      "hit": false,
      "t": 96956.60899999957,
      "d": 108.69574999999895,
      "v": 100
    },
    {
      "midi": 84,
      "hit": false,
      "t": 96956.60899999957,
      "d": 217.3914999999979,
      "v": 100
    },
    {
      "midi": 48,
      "hit": false,
      "t": 96956.60899999963,
      "d": 217.3914999999979,
      "v": 100
    },
    {
      "midi": 43,
      "hit": false,
      "t": 96956.60900000023,
      "d": 45.28989583333896,
      "v": 100
    },
    {
      "midi": 48,
      "hit": false,
      "t": 97065.30474999957,
      "d": 108.69574999999895,
      "v": 100
    },
    {
      "midi": 56,
      "hit": false,
      "t": 97065.30474999969,
      "d": 108.69574999999895,
      "v": 100
    },
    {
      "midi": 60,
      "hit": false,
      "t": 97065.30474999969,
      "d": 108.69574999999895,
      "v": 100
    },
    {
      "midi": 63,
      "hit": false,
      "t": 97065.30474999969,
      "d": 108.69574999999895,
      "v": 100
    },
    {
      "midi": 63,
      "hit": false,
      "t": 97065.30474999969,
      "d": 108.69574999999895,
      "v": 100
    },
    {
      "midi": 60,
      "hit": false,
      "t": 97065.30474999969,
      "d": 108.69574999999895,
      "v": 100
    },
    {
      "midi": 56,
      "hit": false,
      "t": 97065.30474999969,
      "d": 108.69574999999895,
      "v": 100
    },
    {
      "midi": 45,
      "hit": false,
      "t": 97065.30475000023,
      "d": 45.28989583333896,
      "v": 100
    },
    {
      "midi": 46,
      "hit": false,
      "t": 97174.00049999933,
      "d": 217.3914999999979,
      "v": 100
    },
    {
      "midi": 57,
      "hit": false,
      "t": 97174.00049999933,
      "d": 217.3914999999979,
      "v": 100
    },
    {
      "midi": 35,
      "hit": false,
      "t": 97174.00049999941,
      "d": 108.69574999999895,
      "v": 100
    },
    {
      "midi": 55,
      "hit": false,
      "t": 97174.00049999957,
      "d": 108.69574999999895,
      "v": 100
    },
    {
      "midi": 36,
      "hit": false,
      "t": 97174.00049999963,
      "d": 217.3914999999979,
      "v": 100
    },
    {
      "midi": 46,
      "hit": false,
      "t": 97174.00050000023,
      "d": 45.28989583333896,
      "v": 100
    },
    {
      "midi": 48,
      "hit": false,
      "t": 97282.69624999957,
      "d": 108.69574999999895,
      "v": 100
    },
    {
      "midi": 50,
      "hit": false,
      "t": 97282.69625000023,
      "d": 45.28989583333896,
      "v": 100
    },
    {
      "midi": 49,
      "hit": false,
      "t": 97391.39199999932,
      "d": 217.3914999999979,
      "v": 100
    },
    {
      "midi": 42,
      "hit": false,
      "t": 97391.39199999932,
      "d": 217.3914999999979,
      "v": 100
    },
    {
      "midi": 42,
      "hit": false,
      "t": 97391.39199999941,
      "d": 217.3914999999979,
      "v": 100
    },
    {
      "midi": 35,
      "hit": false,
      "t": 97391.39199999941,
      "d": 217.3914999999979,
      "v": 100
    },
    {
      "midi": 59,
      "hit": false,
      "t": 97391.39199999941,
      "d": 434.7829999999958,
      "v": 100
    },
    {
      "midi": 48,
      "hit": false,
      "t": 97391.39199999957,
      "d": 108.69574999999895,
      "v": 100
    },
    {
      "midi": 36,
      "hit": false,
      "t": 97391.39199999963,
      "d": 434.7829999999958,
      "v": 100
    },
    {
      "midi": 60,
      "hit": false,
      "t": 97391.39199999969,
      "d": 326.08724999999686,
      "v": 100
    },
    {
      "midi": 62,
      "hit": false,
      "t": 97391.39199999969,
      "d": 326.08724999999686,
      "v": 100
    },
    {
      "midi": 55,
      "hit": false,
      "t": 97391.39199999969,
      "d": 326.08724999999686,
      "v": 100
    },
    {
      "midi": 55,
      "hit": false,
      "t": 97391.39199999969,
      "d": 326.08724999999686,
      "v": 100
    },
    {
      "midi": 62,
      "hit": false,
      "t": 97391.39199999969,
      "d": 326.08724999999686,
      "v": 100
    },
    {
      "midi": 48,
      "hit": false,
      "t": 97391.39199999998,
      "d": 3478.2639999999956,
      "v": 100
    },
    {
      "midi": 55,
      "hit": false,
      "t": 97391.39199999998,
      "d": 3478.2639999999956,
      "v": 100
    },
    {
      "midi": 50,
      "hit": false,
      "t": 97391.39199999998,
      "d": 3478.2639999999956,
      "v": 100
    },
    {
      "midi": 62,
      "hit": false,
      "t": 97391.39199999998,
      "d": 3478.2639999999956,
      "v": 100
    },
    {
      "midi": 67,
      "hit": false,
      "t": 97391.39199999998,
      "d": 3478.2639999999956,
      "v": 100
    },
    {
      "midi": 48,
      "hit": false,
      "t": 97391.39199999998,
      "d": 3478.2639999999956,
      "v": 100
    },
    {
      "midi": 62,
      "hit": false,
      "t": 97391.39199999998,
      "d": 3478.2639999999956,
      "v": 100
    },
    {
      "midi": 67,
      "hit": false,
      "t": 97391.39199999998,
      "d": 3478.2639999999956,
      "v": 100
    },
    {
      "midi": 55,
      "hit": false,
      "t": 97391.39199999998,
      "d": 3478.2639999999956,
      "v": 100
    },
    {
      "midi": 50,
      "hit": false,
      "t": 97391.39199999998,
      "d": 3478.2639999999956,
      "v": 100
    },
    {
      "midi": 36,
      "hit": false,
      "t": 97391.39200000023,
      "d": 45.28989583333896,
      "v": 100
    },
    {
      "midi": 48,
      "hit": false,
      "t": 97500.08774999957,
      "d": 108.69574999999895,
      "v": 100
    },
    {
      "midi": 46,
      "hit": false,
      "t": 97608.78349999932,
      "d": 217.3914999999979,
      "v": 100
    },
    {
      "midi": 42,
      "hit": false,
      "t": 97608.78349999941,
      "d": 108.69574999999895,
      "v": 100
    },
    {
      "midi": 48,
      "hit": false,
      "t": 97608.78349999957,
      "d": 108.69574999999895,
      "v": 100
    },
    {
      "midi": 36,
      "hit": false,
      "t": 97608.78350000024,
      "d": 45.28989583333896,
      "v": 100
    },
    {
      "midi": 42,
      "hit": false,
      "t": 97717.47924999941,
      "d": 108.69574999999895,
      "v": 100
    },
    {
      "midi": 51,
      "hit": false,
      "t": 97717.47924999957,
      "d": 217.3914999999979,
      "v": 100
    },
    {
      "midi": 60,
      "hit": false,
      "t": 97717.47924999968,
      "d": 326.08724999999686,
      "v": 100
    },
    {
      "midi": 62,
      "hit": false,
      "t": 97717.47924999968,
      "d": 326.08724999999686,
      "v": 100
    },
    {
      "midi": 55,
      "hit": false,
      "t": 97717.47924999968,
      "d": 326.08724999999686,
      "v": 100
    },
    {
      "midi": 55,
      "hit": false,
      "t": 97717.47924999968,
      "d": 326.08724999999686,
      "v": 100
    },
    {
      "midi": 62,
      "hit": false,
      "t": 97717.47924999968,
      "d": 326.08724999999686,
      "v": 100
    },
    {
      "midi": 42,
      "hit": false,
      "t": 97826.17499999932,
      "d": 217.3914999999979,
      "v": 100
    },
    {
      "midi": 40,
      "hit": false,
      "t": 97826.17499999932,
      "d": 217.3914999999979,
      "v": 100
    },
    {
      "midi": 40,
      "hit": false,
      "t": 97826.1749999994,
      "d": 217.3914999999979,
      "v": 100
    },
    {
      "midi": 35,
      "hit": false,
      "t": 97826.1749999994,
      "d": 217.3914999999979,
      "v": 100
    },
    {
      "midi": 42,
      "hit": false,
      "t": 97826.1749999994,
      "d": 217.3914999999979,
      "v": 100
    },
    {
      "midi": 59,
      "hit": false,
      "t": 97826.1749999994,
      "d": 434.7829999999958,
      "v": 100
    },
    {
      "midi": 84,
      "hit": false,
      "t": 97826.17499999957,
      "d": 217.3914999999979,
      "v": 100
    },
    {
      "midi": 48,
      "hit": false,
      "t": 97826.17499999962,
      "d": 217.3914999999979,
      "v": 100
    },
    {
      "midi": 36,
      "hit": false,
      "t": 97826.17500000025,
      "d": 45.28989583333896,
      "v": 100
    },
    {
      "midi": 48,
      "hit": false,
      "t": 97934.87074999957,
      "d": 108.69574999999895,
      "v": 100
    },
    {
      "midi": 48,
      "hit": false,
      "t": 97934.87075000025,
      "d": 45.28989583333896,
      "v": 100
    },
    {
      "midi": 46,
      "hit": false,
      "t": 98043.56649999932,
      "d": 217.3914999999979,
      "v": 100
    },
    {
      "midi": 42,
      "hit": false,
      "t": 98043.5664999994,
      "d": 108.69574999999895,
      "v": 100
    },
    {
      "midi": 48,
      "hit": false,
      "t": 98043.56649999956,
      "d": 108.69574999999895,
      "v": 100
    },
    {
      "midi": 36,
      "hit": false,
      "t": 98043.56649999962,
      "d": 217.3914999999979,
      "v": 100
    },
    {
      "midi": 60,
      "hit": false,
      "t": 98043.56649999968,
      "d": 326.08724999999686,
      "v": 100
    },
    {
      "midi": 62,
      "hit": false,
      "t": 98043.56649999968,
      "d": 326.08724999999686,
      "v": 100
    },
    {
      "midi": 55,
      "hit": false,
      "t": 98043.56649999968,
      "d": 326.08724999999686,
      "v": 100
    },
    {
      "midi": 55,
      "hit": false,
      "t": 98043.56649999968,
      "d": 326.08724999999686,
      "v": 100
    },
    {
      "midi": 62,
      "hit": false,
      "t": 98043.56649999968,
      "d": 326.08724999999686,
      "v": 100
    },
    {
      "midi": 40,
      "hit": false,
      "t": 98152.2622499994,
      "d": 108.69574999999895,
      "v": 100
    },
    {
      "midi": 42,
      "hit": false,
      "t": 98152.2622499994,
      "d": 108.69574999999895,
      "v": 100
    },
    {
      "midi": 48,
      "hit": false,
      "t": 98152.26224999956,
      "d": 108.69574999999895,
      "v": 100
    },
    {
      "midi": 43,
      "hit": false,
      "t": 98152.26225000026,
      "d": 45.28989583333896,
      "v": 100
    },
    {
      "midi": 42,
      "hit": false,
      "t": 98260.95799999931,
      "d": 217.3914999999979,
      "v": 100
    },
    {
      "midi": 35,
      "hit": false,
      "t": 98260.9579999994,
      "d": 217.3914999999979,
      "v": 100
    },
    {
      "midi": 42,
      "hit": false,
      "t": 98260.9579999994,
      "d": 217.3914999999979,
      "v": 100
    },
    {
      "midi": 59,
      "hit": false,
      "t": 98260.9579999994,
      "d": 434.7829999999958,
      "v": 100
    },
    {
      "midi": 51,
      "hit": false,
      "t": 98260.95799999956,
      "d": 217.3914999999979,
      "v": 100
    },
    {
      "midi": 36,
      "hit": false,
      "t": 98260.95799999962,
      "d": 108.69574999999895,
      "v": 100
    },
    {
      "midi": 40,
      "hit": false,
      "t": 98369.6537499994,
      "d": 108.69574999999895,
      "v": 100
    },
    {
      "midi": 36,
      "hit": false,
      "t": 98369.65374999962,
      "d": 108.69574999999895,
      "v": 100
    },
    {
      "midi": 60,
      "hit": false,
      "t": 98369.65374999968,
      "d": 326.08724999999686,
      "v": 100
    },
    {
      "midi": 62,
      "hit": false,
      "t": 98369.65374999968,
      "d": 326.08724999999686,
      "v": 100
    },
    {
      "midi": 55,
      "hit": false,
      "t": 98369.65374999968,
      "d": 326.08724999999686,
      "v": 100
    },
    {
      "midi": 55,
      "hit": false,
      "t": 98369.65374999968,
      "d": 326.08724999999686,
      "v": 100
    },
    {
      "midi": 62,
      "hit": false,
      "t": 98369.65374999968,
      "d": 326.08724999999686,
      "v": 100
    },
    {
      "midi": 41,
      "hit": false,
      "t": 98369.65375000027,
      "d": 45.28989583333896,
      "v": 100
    },
    {
      "midi": 46,
      "hit": false,
      "t": 98478.34949999931,
      "d": 217.3914999999979,
      "v": 100
    },
    {
      "midi": 46,
      "hit": false,
      "t": 98478.3494999994,
      "d": 217.3914999999979,
      "v": 100
    },
    {
      "midi": 48,
      "hit": false,
      "t": 98478.34949999956,
      "d": 108.69574999999895,
      "v": 100
    },
    {
      "midi": 36,
      "hit": false,
      "t": 98478.34949999962,
      "d": 217.3914999999979,
      "v": 100
    },
    {
      "midi": 41,
      "hit": false,
      "t": 98478.34950000027,
      "d": 86.05080208333675,
      "v": 100
    },
    {
      "midi": 48,
      "hit": false,
      "t": 98587.04524999956,
      "d": 108.69574999999895,
      "v": 100
    },
    {
      "midi": 40,
      "hit": false,
      "t": 98695.74099999931,
      "d": 217.3914999999979,
      "v": 100
    },
    {
      "midi": 42,
      "hit": false,
      "t": 98695.74099999931,
      "d": 217.3914999999979,
      "v": 100
    },
    {
      "midi": 40,
      "hit": false,
      "t": 98695.7409999994,
      "d": 108.69574999999895,
      "v": 100
    },
    {
      "midi": 35,
      "hit": false,
      "t": 98695.7409999994,
      "d": 217.3914999999979,
      "v": 100
    },
    {
      "midi": 59,
      "hit": false,
      "t": 98695.7409999994,
      "d": 434.7829999999958,
      "v": 100
    },
    {
      "midi": 53,
      "hit": false,
      "t": 98695.74099999956,
      "d": 108.69574999999895,
      "v": 100
    },
    {
      "midi": 84,
      "hit": false,
      "t": 98695.74099999956,
      "d": 217.3914999999979,
      "v": 100
    },
    {
      "midi": 48,
      "hit": false,
      "t": 98695.74099999962,
      "d": 217.3914999999979,
      "v": 100
    },
    {
      "midi": 43,
      "hit": false,
      "t": 98695.74100000027,
      "d": 45.28989583333896,
      "v": 100
    },
    {
      "midi": 48,
      "hit": false,
      "t": 98804.43674999956,
      "d": 108.69574999999895,
      "v": 100
    },
    {
      "midi": 60,
      "hit": false,
      "t": 98804.43674999967,
      "d": 108.69574999999895,
      "v": 100
    },
    {
      "midi": 62,
      "hit": false,
      "t": 98804.43674999967,
      "d": 108.69574999999895,
      "v": 100
    },
    {
      "midi": 55,
      "hit": false,
      "t": 98804.43674999967,
      "d": 108.69574999999895,
      "v": 100
    },
    {
      "midi": 55,
      "hit": false,
      "t": 98804.43674999967,
      "d": 108.69574999999895,
      "v": 100
    },
    {
      "midi": 62,
      "hit": false,
      "t": 98804.43674999967,
      "d": 108.69574999999895,
      "v": 100
    },
    {
      "midi": 45,
      "hit": false,
      "t": 98804.43675000027,
      "d": 45.28989583333896,
      "v": 100
    },
    {
      "midi": 46,
      "hit": false,
      "t": 98913.13249999931,
      "d": 217.3914999999979,
      "v": 100
    },
    {
      "midi": 40,
      "hit": false,
      "t": 98913.1324999994,
      "d": 108.69574999999895,
      "v": 100
    },
    {
      "midi": 55,
      "hit": false,
      "t": 98913.13249999956,
      "d": 108.69574999999895,
      "v": 100
    },
    {
      "midi": 36,
      "hit": false,
      "t": 98913.13249999961,
      "d": 217.3914999999979,
      "v": 100
    },
    {
      "midi": 46,
      "hit": false,
      "t": 98913.13250000027,
      "d": 45.28989583333896,
      "v": 100
    },
    {
      "midi": 40,
      "hit": false,
      "t": 99021.8282499994,
      "d": 108.69574999999895,
      "v": 100
    },
    {
      "midi": 48,
      "hit": false,
      "t": 99021.82824999955,
      "d": 108.69574999999895,
      "v": 100
    },
    {
      "midi": 50,
      "hit": false,
      "t": 99021.82825000027,
      "d": 45.28989583333896,
      "v": 100
    },
    {
      "midi": 42,
      "hit": false,
      "t": 99130.5239999993,
      "d": 217.3914999999979,
      "v": 100
    },
    {
      "midi": 42,
      "hit": false,
      "t": 99130.5239999994,
      "d": 217.3914999999979,
      "v": 100
    },
    {
      "midi": 35,
      "hit": false,
      "t": 99130.5239999994,
      "d": 217.3914999999979,
      "v": 100
    },
    {
      "midi": 59,
      "hit": false,
      "t": 99130.5239999994,
      "d": 434.7829999999958,
      "v": 100
    },
    {
      "midi": 48,
      "hit": false,
      "t": 99130.52399999955,
      "d": 108.69574999999895,
      "v": 100
    },
    {
      "midi": 36,
      "hit": false,
      "t": 99130.52399999961,
      "d": 434.7829999999958,
      "v": 100
    },
    {
      "midi": 36,
      "hit": false,
      "t": 99130.52400000027,
      "d": 45.28989583333896,
      "v": 100
    },
    {
      "midi": 48,
      "hit": false,
      "t": 99239.21974999955,
      "d": 108.69574999999895,
      "v": 100
    },
    {
      "midi": 36,
      "hit": false,
      "t": 99239.21975000027,
      "d": 45.28989583333896,
      "v": 100
    },
    {
      "midi": 46,
      "hit": false,
      "t": 99347.9154999993,
      "d": 217.3914999999979,
      "v": 100
    },
    {
      "midi": 42,
      "hit": false,
      "t": 99347.91549999939,
      "d": 108.69574999999895,
      "v": 100
    },
    {
      "midi": 48,
      "hit": false,
      "t": 99347.91549999955,
      "d": 108.69574999999895,
      "v": 100
    },
    {
      "midi": 36,
      "hit": false,
      "t": 99347.91550000026,
      "d": 86.05080208333675,
      "v": 100
    },
    {
      "midi": 42,
      "hit": false,
      "t": 99456.61124999939,
      "d": 108.69574999999895,
      "v": 100
    },
    {
      "midi": 51,
      "hit": false,
      "t": 99456.61124999955,
      "d": 217.3914999999979,
      "v": 100
    },
    {
      "midi": 42,
      "hit": false,
      "t": 99565.3069999993,
      "d": 217.3914999999979,
      "v": 100
    },
    {
      "midi": 40,
      "hit": false,
      "t": 99565.3069999993,
      "d": 217.3914999999979,
      "v": 100
    },
    {
      "midi": 40,
      "hit": false,
      "t": 99565.30699999939,
      "d": 108.69574999999895,
      "v": 100
    },
    {
      "midi": 35,
      "hit": false,
      "t": 99565.30699999939,
      "d": 217.3914999999979,
      "v": 100
    },
    {
      "midi": 42,
      "hit": false,
      "t": 99565.30699999939,
      "d": 217.3914999999979,
      "v": 100
    },
    {
      "midi": 59,
      "hit": false,
      "t": 99565.30699999939,
      "d": 434.7829999999958,
      "v": 100
    },
    {
      "midi": 84,
      "hit": false,
      "t": 99565.30699999955,
      "d": 217.3914999999979,
      "v": 100
    },
    {
      "midi": 48,
      "hit": false,
      "t": 99565.30699999961,
      "d": 217.3914999999979,
      "v": 100
    },
    {
      "midi": 36,
      "hit": false,
      "t": 99565.30700000026,
      "d": 45.28989583333896,
      "v": 100
    },
    {
      "midi": 48,
      "hit": false,
      "t": 99674.00274999955,
      "d": 108.69574999999895,
      "v": 100
    },
    {
      "midi": 60,
      "hit": false,
      "t": 99674.00274999968,
      "d": 326.08724999999686,
      "v": 100
    },
    {
      "midi": 55,
      "hit": false,
      "t": 99674.00274999968,
      "d": 326.08724999999686,
      "v": 100
    },
    {
      "midi": 62,
      "hit": false,
      "t": 99674.00274999968,
      "d": 326.08724999999686,
      "v": 100
    },
    {
      "midi": 62,
      "hit": false,
      "t": 99674.00274999968,
      "d": 326.08724999999686,
      "v": 100
    },
    {
      "midi": 55,
      "hit": false,
      "t": 99674.00274999968,
      "d": 326.08724999999686,
      "v": 100
    },
    {
      "midi": 48,
      "hit": false,
      "t": 99674.00275000026,
      "d": 45.28989583333896,
      "v": 100
    },
    {
      "midi": 46,
      "hit": false,
      "t": 99782.6984999993,
      "d": 217.3914999999979,
      "v": 100
    },
    {
      "midi": 42,
      "hit": false,
      "t": 99782.69849999939,
      "d": 108.69574999999895,
      "v": 100
    },
    {
      "midi": 48,
      "hit": false,
      "t": 99782.69849999955,
      "d": 108.69574999999895,
      "v": 100
    },
    {
      "midi": 36,
      "hit": false,
      "t": 99782.6984999996,
      "d": 217.3914999999979,
      "v": 100
    },
    {
      "midi": 40,
      "hit": false,
      "t": 99891.39424999939,
      "d": 108.69574999999895,
      "v": 100
    },
    {
      "midi": 42,
      "hit": false,
      "t": 99891.39424999939,
      "d": 108.69574999999895,
      "v": 100
    },
    {
      "midi": 48,
      "hit": false,
      "t": 99891.39424999955,
      "d": 108.69574999999895,
      "v": 100
    },
    {
      "midi": 43,
      "hit": false,
      "t": 99891.39425000027,
      "d": 45.28989583333896,
      "v": 100
    },
    {
      "midi": 42,
      "hit": false,
      "t": 100000.0899999993,
      "d": 217.3914999999979,
      "v": 100
    },
    {
      "midi": 35,
      "hit": false,
      "t": 100000.08999999939,
      "d": 217.3914999999979,
      "v": 100
    },
    {
      "midi": 42,
      "hit": false,
      "t": 100000.08999999939,
      "d": 217.3914999999979,
      "v": 100
    },
    {
      "midi": 59,
      "hit": false,
      "t": 100000.08999999939,
      "d": 434.7829999999958,
      "v": 100
    },
    {
      "midi": 51,
      "hit": false,
      "t": 100000.08999999955,
      "d": 217.3914999999979,
      "v": 100
    },
    {
      "midi": 36,
      "hit": false,
      "t": 100000.0899999996,
      "d": 108.69574999999895,
      "v": 100
    },
    {
      "midi": 60,
      "hit": false,
      "t": 100000.08999999968,
      "d": 326.08724999999686,
      "v": 100
    },
    {
      "midi": 55,
      "hit": false,
      "t": 100000.08999999968,
      "d": 326.08724999999686,
      "v": 100
    },
    {
      "midi": 62,
      "hit": false,
      "t": 100000.08999999968,
      "d": 326.08724999999686,
      "v": 100
    },
    {
      "midi": 62,
      "hit": false,
      "t": 100000.08999999968,
      "d": 326.08724999999686,
      "v": 100
    },
    {
      "midi": 55,
      "hit": false,
      "t": 100000.08999999968,
      "d": 326.08724999999686,
      "v": 100
    },
    {
      "midi": 40,
      "hit": false,
      "t": 100108.78574999938,
      "d": 108.69574999999895,
      "v": 100
    },
    {
      "midi": 36,
      "hit": false,
      "t": 100108.7857499996,
      "d": 108.69574999999895,
      "v": 100
    },
    {
      "midi": 41,
      "hit": false,
      "t": 100108.78575000029,
      "d": 45.28989583333896,
      "v": 100
    },
    {
      "midi": 46,
      "hit": false,
      "t": 100217.4814999993,
      "d": 217.3914999999979,
      "v": 100
    },
    {
      "midi": 40,
      "hit": false,
      "t": 100217.48149999938,
      "d": 108.69574999999895,
      "v": 100
    },
    {
      "midi": 46,
      "hit": false,
      "t": 100217.48149999938,
      "d": 217.3914999999979,
      "v": 100
    },
    {
      "midi": 48,
      "hit": false,
      "t": 100217.48149999954,
      "d": 108.69574999999895,
      "v": 100
    },
    {
      "midi": 36,
      "hit": false,
      "t": 100217.4814999996,
      "d": 217.3914999999979,
      "v": 100
    },
    {
      "midi": 41,
      "hit": false,
      "t": 100217.48150000029,
      "d": 86.05080208333675,
      "v": 100
    },
    {
      "midi": 48,
      "hit": false,
      "t": 100326.17724999954,
      "d": 108.69574999999895,
      "v": 100
    },
    {
      "midi": 60,
      "hit": false,
      "t": 100326.17724999967,
      "d": 326.08724999999686,
      "v": 100
    },
    {
      "midi": 55,
      "hit": false,
      "t": 100326.17724999967,
      "d": 326.08724999999686,
      "v": 100
    },
    {
      "midi": 62,
      "hit": false,
      "t": 100326.17724999967,
      "d": 326.08724999999686,
      "v": 100
    },
    {
      "midi": 62,
      "hit": false,
      "t": 100326.17724999967,
      "d": 326.08724999999686,
      "v": 100
    },
    {
      "midi": 55,
      "hit": false,
      "t": 100326.17724999967,
      "d": 326.08724999999686,
      "v": 100
    },
    {
      "midi": 40,
      "hit": false,
      "t": 100434.8729999993,
      "d": 217.3914999999979,
      "v": 100
    },
    {
      "midi": 42,
      "hit": false,
      "t": 100434.8729999993,
      "d": 217.3914999999979,
      "v": 100
    },
    {
      "midi": 40,
      "hit": false,
      "t": 100434.87299999938,
      "d": 108.69574999999895,
      "v": 100
    },
    {
      "midi": 35,
      "hit": false,
      "t": 100434.87299999938,
      "d": 217.3914999999979,
      "v": 100
    },
    {
      "midi": 59,
      "hit": false,
      "t": 100434.87299999938,
      "d": 434.7829999999958,
      "v": 100
    },
    {
      "midi": 53,
      "hit": false,
      "t": 100434.87299999954,
      "d": 108.69574999999895,
      "v": 100
    },
    {
      "midi": 84,
      "hit": false,
      "t": 100434.87299999954,
      "d": 108.69574999999895,
      "v": 100
    },
    {
      "midi": 48,
      "hit": false,
      "t": 100434.8729999996,
      "d": 217.3914999999979,
      "v": 100
    },
    {
      "midi": 43,
      "hit": false,
      "t": 100434.87300000028,
      "d": 45.28989583333896,
      "v": 100
    },
    {
      "midi": 40,
      "hit": false,
      "t": 100543.56874999938,
      "d": 108.69574999999895,
      "v": 100
    },
    {
      "midi": 48,
      "hit": false,
      "t": 100543.56874999954,
      "d": 108.69574999999895,
      "v": 100
    },
    {
      "midi": 79,
      "hit": false,
      "t": 100543.56874999954,
      "d": 108.69574999999895,
      "v": 100
    },
    {
      "midi": 45,
      "hit": false,
      "t": 100543.56875000028,
      "d": 45.28989583333896,
      "v": 100
    },
    {
      "midi": 57,
      "hit": false,
      "t": 100652.26449999929,
      "d": 217.3914999999979,
      "v": 100
    },
    {
      "midi": 46,
      "hit": false,
      "t": 100652.26449999929,
      "d": 217.3914999999979,
      "v": 100
    },
    {
      "midi": 40,
      "hit": false,
      "t": 100652.26449999938,
      "d": 108.69574999999895,
      "v": 100
    },
    {
      "midi": 55,
      "hit": false,
      "t": 100652.26449999954,
      "d": 108.69574999999895,
      "v": 100
    },
    {
      "midi": 72,
      "hit": false,
      "t": 100652.26449999954,
      "d": 108.69574999999895,
      "v": 100
    },
    {
      "midi": 36,
      "hit": false,
      "t": 100652.2644999996,
      "d": 217.3914999999979,
      "v": 100
    },
    {
      "midi": 46,
      "hit": false,
      "t": 100652.26450000028,
      "d": 45.28989583333896,
      "v": 100
    },
    {
      "midi": 40,
      "hit": false,
      "t": 100760.96024999938,
      "d": 108.69574999999895,
      "v": 100
    },
    {
      "midi": 48,
      "hit": false,
      "t": 100760.96024999954,
      "d": 108.69574999999895,
      "v": 100
    },
    {
      "midi": 67,
      "hit": false,
      "t": 100760.96024999954,
      "d": 108.69574999999895,
      "v": 100
    },
    {
      "midi": 60,
      "hit": false,
      "t": 100760.96024999967,
      "d": 108.69574999999895,
      "v": 100
    },
    {
      "midi": 55,
      "hit": false,
      "t": 100760.96024999967,
      "d": 108.69574999999895,
      "v": 100
    },
    {
      "midi": 62,
      "hit": false,
      "t": 100760.96024999967,
      "d": 108.69574999999895,
      "v": 100
    },
    {
      "midi": 62,
      "hit": false,
      "t": 100760.96024999967,
      "d": 108.69574999999895,
      "v": 100
    },
    {
      "midi": 55,
      "hit": false,
      "t": 100760.96024999967,
      "d": 108.69574999999895,
      "v": 100
    },
    {
      "midi": 50,
      "hit": false,
      "t": 100760.96025000028,
      "d": 45.28989583333896,
      "v": 100
    },
    {
      "midi": 49,
      "hit": false,
      "t": 100869.65599999929,
      "d": 217.3914999999979,
      "v": 100
    },
    {
      "midi": 35,
      "hit": false,
      "t": 100869.65599999938,
      "d": 217.3914999999979,
      "v": 100
    },
    {
      "midi": 36,
      "hit": false,
      "t": 100869.65599999954,
      "d": 3478.2639999999956,
      "v": 100
    },
    {
      "midi": 60,
      "hit": false,
      "t": 100869.65599999954,
      "d": 108.69574999999895,
      "v": 100
    },
    {
      "midi": 65,
      "hit": false,
      "t": 100869.65599999997,
      "d": 3478.2639999999956,
      "v": 100
    },
    {
      "midi": 58,
      "hit": false,
      "t": 100869.65599999997,
      "d": 3478.2639999999956,
      "v": 100
    },
    {
      "midi": 48,
      "hit": false,
      "t": 100869.65599999997,
      "d": 3478.2639999999956,
      "v": 100
    },
    {
      "midi": 55,
      "hit": false,
      "t": 100869.65599999997,
      "d": 3478.2639999999956,
      "v": 100
    },
    {
      "midi": 62,
      "hit": false,
      "t": 100869.65599999997,
      "d": 3478.2639999999956,
      "v": 100
    },
    {
      "midi": 65,
      "hit": false,
      "t": 100869.65599999997,
      "d": 3478.2639999999956,
      "v": 100
    },
    {
      "midi": 58,
      "hit": false,
      "t": 100869.65599999997,
      "d": 3478.2639999999956,
      "v": 100
    },
    {
      "midi": 48,
      "hit": false,
      "t": 100869.65599999997,
      "d": 3478.2639999999956,
      "v": 100
    },
    {
      "midi": 55,
      "hit": false,
      "t": 100869.65599999997,
      "d": 3478.2639999999956,
      "v": 100
    },
    {
      "midi": 62,
      "hit": false,
      "t": 100869.65599999997,
      "d": 3478.2639999999956,
      "v": 100
    },
    {
      "midi": 67,
      "hit": false,
      "t": 100978.35174999954,
      "d": 108.69574999999895,
      "v": 100
    },
    {
      "midi": 79,
      "hit": false,
      "t": 101087.04749999953,
      "d": 108.69574999999895,
      "v": 100
    },
    {
      "midi": 84,
      "hit": false,
      "t": 101195.74324999953,
      "d": 108.69574999999895,
      "v": 100
    },
    {
      "midi": 35,
      "hit": false,
      "t": 101304.43899999937,
      "d": 217.3914999999979,
      "v": 100
    },
    {
      "midi": 35,
      "hit": false,
      "t": 101739.22199999937,
      "d": 217.3914999999979,
      "v": 100
    },
    {
      "midi": 35,
      "hit": false,
      "t": 102174.00499999936,
      "d": 217.3914999999979,
      "v": 100
    },
    {
      "midi": 35,
      "hit": false,
      "t": 102608.78799999936,
      "d": 217.3914999999979,
      "v": 100
    },
    {
      "midi": 35,
      "hit": false,
      "t": 103043.57099999936,
      "d": 217.3914999999979,
      "v": 100
    },
    {
      "midi": 35,
      "hit": false,
      "t": 103478.35399999935,
      "d": 217.3914999999979,
      "v": 100
    },
    {
      "midi": 35,
      "hit": false,
      "t": 103913.13699999935,
      "d": 217.3914999999979,
      "v": 100
    },
    {
      "midi": 35,
      "hit": false,
      "t": 104347.91999999934,
      "d": 217.3914999999979,
      "v": 100
    },
    {
      "midi": 36,
      "hit": false,
      "t": 104347.91999999953,
      "d": 3478.2639999999956,
      "v": 100
    },
    {
      "midi": 48,
      "hit": false,
      "t": 104347.91999999997,
      "d": 3478.2639999999956,
      "v": 100
    },
    {
      "midi": 55,
      "hit": false,
      "t": 104347.91999999997,
      "d": 3478.2639999999956,
      "v": 100
    },
    {
      "midi": 51,
      "hit": false,
      "t": 104347.91999999997,
      "d": 3478.2639999999956,
      "v": 100
    },
    {
      "midi": 58,
      "hit": false,
      "t": 104347.91999999997,
      "d": 3478.2639999999956,
      "v": 100
    },
    {
      "midi": 62,
      "hit": false,
      "t": 104347.91999999997,
      "d": 3478.2639999999956,
      "v": 100
    },
    {
      "midi": 48,
      "hit": false,
      "t": 104347.91999999997,
      "d": 3478.2639999999956,
      "v": 100
    },
    {
      "midi": 55,
      "hit": false,
      "t": 104347.91999999997,
      "d": 3478.2639999999956,
      "v": 100
    },
    {
      "midi": 51,
      "hit": false,
      "t": 104347.91999999997,
      "d": 3478.2639999999956,
      "v": 100
    },
    {
      "midi": 58,
      "hit": false,
      "t": 104347.91999999997,
      "d": 3478.2639999999956,
      "v": 100
    },
    {
      "midi": 62,
      "hit": false,
      "t": 104347.91999999997,
      "d": 3478.2639999999956,
      "v": 100
    },
    {
      "midi": 35,
      "hit": false,
      "t": 104782.70299999934,
      "d": 217.3914999999979,
      "v": 100
    },
    {
      "midi": 35,
      "hit": false,
      "t": 105217.48599999934,
      "d": 217.3914999999979,
      "v": 100
    },
    {
      "midi": 35,
      "hit": false,
      "t": 105652.26899999933,
      "d": 217.3914999999979,
      "v": 100
    },
    {
      "midi": 35,
      "hit": false,
      "t": 106087.05199999933,
      "d": 217.3914999999979,
      "v": 100
    },
    {
      "midi": 35,
      "hit": false,
      "t": 106521.83499999932,
      "d": 217.3914999999979,
      "v": 100
    },
    {
      "midi": 42,
      "hit": false,
      "t": 106956.61799999929,
      "d": 108.69574999999895,
      "v": 100
    },
    {
      "midi": 35,
      "hit": false,
      "t": 106956.61799999932,
      "d": 217.3914999999979,
      "v": 100
    },
    {
      "midi": 42,
      "hit": false,
      "t": 107065.31374999929,
      "d": 108.69574999999895,
      "v": 100
    },
    {
      "midi": 42,
      "hit": false,
      "t": 107174.00949999929,
      "d": 108.69574999999895,
      "v": 100
    },
    {
      "midi": 42,
      "hit": false,
      "t": 107282.70524999929,
      "d": 108.69574999999895,
      "v": 100
    },
    {
      "midi": 42,
      "hit": false,
      "t": 107391.40099999928,
      "d": 54.34787500000675,
      "v": 100
    },
    {
      "midi": 35,
      "hit": false,
      "t": 107391.40099999931,
      "d": 217.3914999999979,
      "v": 100
    },
    {
      "midi": 79,
      "hit": false,
      "t": 107391.40099999953,
      "d": 217.3914999999979,
      "v": 100
    },
    {
      "midi": 42,
      "hit": false,
      "t": 107445.74887499929,
      "d": 54.34787500000675,
      "v": 100
    },
    {
      "midi": 42,
      "hit": false,
      "t": 107500.0967499993,
      "d": 54.34787500000675,
      "v": 100
    },
    {
      "midi": 42,
      "hit": false,
      "t": 107554.4446249993,
      "d": 54.34787500000675,
      "v": 100
    },
    {
      "midi": 46,
      "hit": false,
      "t": 107608.79249999931,
      "d": 108.69574999999895,
      "v": 100
    },
    {
      "midi": 35,
      "hit": false,
      "t": 107826.18399999931,
      "d": 217.3914999999979,
      "v": 100
    },
    {
      "midi": 59,
      "hit": false,
      "t": 107826.18399999931,
      "d": 434.7829999999958,
      "v": 100
    },
    {
      "midi": 42,
      "hit": false,
      "t": 107826.18399999931,
      "d": 217.3914999999979,
      "v": 100
    },
    {
      "midi": 36,
      "hit": false,
      "t": 107826.18399999953,
      "d": 3478.2639999999956,
      "v": 100
    },
    {
      "midi": 79,
      "hit": false,
      "t": 107826.18399999953,
      "d": 217.3914999999979,
      "v": 100
    },
    {
      "midi": 65,
      "hit": false,
      "t": 107826.18399999996,
      "d": 3478.2639999999956,
      "v": 100
    },
    {
      "midi": 55,
      "hit": false,
      "t": 107826.18399999996,
      "d": 3478.2639999999956,
      "v": 100
    },
    {
      "midi": 62,
      "hit": false,
      "t": 107826.18399999996,
      "d": 3478.2639999999956,
      "v": 100
    },
    {
      "midi": 58,
      "hit": false,
      "t": 107826.18399999996,
      "d": 3478.2639999999956,
      "v": 100
    },
    {
      "midi": 48,
      "hit": false,
      "t": 107826.18399999996,
      "d": 3478.2639999999956,
      "v": 100
    },
    {
      "midi": 65,
      "hit": false,
      "t": 107826.18399999996,
      "d": 3478.2639999999956,
      "v": 100
    },
    {
      "midi": 55,
      "hit": false,
      "t": 107826.18399999996,
      "d": 3478.2639999999956,
      "v": 100
    },
    {
      "midi": 62,
      "hit": false,
      "t": 107826.18399999996,
      "d": 3478.2639999999956,
      "v": 100
    },
    {
      "midi": 58,
      "hit": false,
      "t": 107826.18399999996,
      "d": 3478.2639999999956,
      "v": 100
    },
    {
      "midi": 48,
      "hit": false,
      "t": 107826.18399999996,
      "d": 3478.2639999999956,
      "v": 100
    },
    {
      "midi": 46,
      "hit": false,
      "t": 108043.57549999931,
      "d": 217.3914999999979,
      "v": 100
    },
    {
      "midi": 72,
      "hit": false,
      "t": 108043.57549999953,
      "d": 217.3914999999979,
      "v": 100
    },
    {
      "midi": 35,
      "hit": false,
      "t": 108260.9669999993,
      "d": 217.3914999999979,
      "v": 100
    },
    {
      "midi": 59,
      "hit": false,
      "t": 108260.9669999993,
      "d": 434.7829999999958,
      "v": 100
    },
    {
      "midi": 42,
      "hit": false,
      "t": 108260.9669999993,
      "d": 217.3914999999979,
      "v": 100
    },
    {
      "midi": 77,
      "hit": false,
      "t": 108260.96699999952,
      "d": 217.3914999999979,
      "v": 100
    },
    {
      "midi": 46,
      "hit": false,
      "t": 108478.3584999993,
      "d": 217.3914999999979,
      "v": 100
    },
    {
      "midi": 72,
      "hit": false,
      "t": 108478.35849999952,
      "d": 217.3914999999979,
      "v": 100
    },
    {
      "midi": 35,
      "hit": false,
      "t": 108695.7499999993,
      "d": 217.3914999999979,
      "v": 100
    },
    {
      "midi": 59,
      "hit": false,
      "t": 108695.7499999993,
      "d": 434.7829999999958,
      "v": 100
    },
    {
      "midi": 42,
      "hit": false,
      "t": 108695.7499999993,
      "d": 217.3914999999979,
      "v": 100
    },
    {
      "midi": 79,
      "hit": false,
      "t": 108695.74999999952,
      "d": 217.3914999999979,
      "v": 100
    },
    {
      "midi": 46,
      "hit": false,
      "t": 108913.1414999993,
      "d": 217.3914999999979,
      "v": 100
    },
    {
      "midi": 72,
      "hit": false,
      "t": 108913.14149999952,
      "d": 217.3914999999979,
      "v": 100
    },
    {
      "midi": 35,
      "hit": false,
      "t": 109130.5329999993,
      "d": 217.3914999999979,
      "v": 100
    },
    {
      "midi": 59,
      "hit": false,
      "t": 109130.5329999993,
      "d": 434.7829999999958,
      "v": 100
    },
    {
      "midi": 42,
      "hit": false,
      "t": 109130.5329999993,
      "d": 217.3914999999979,
      "v": 100
    },
    {
      "midi": 77,
      "hit": false,
      "t": 109130.53299999952,
      "d": 217.3914999999979,
      "v": 100
    },
    {
      "midi": 46,
      "hit": false,
      "t": 109347.9244999993,
      "d": 217.3914999999979,
      "v": 100
    },
    {
      "midi": 72,
      "hit": false,
      "t": 109347.92449999951,
      "d": 217.3914999999979,
      "v": 100
    },
    {
      "midi": 35,
      "hit": false,
      "t": 109565.3159999993,
      "d": 217.3914999999979,
      "v": 100
    },
    {
      "midi": 59,
      "hit": false,
      "t": 109565.3159999993,
      "d": 434.7829999999958,
      "v": 100
    },
    {
      "midi": 42,
      "hit": false,
      "t": 109565.3159999993,
      "d": 217.3914999999979,
      "v": 100
    },
    {
      "midi": 79,
      "hit": false,
      "t": 109565.31599999951,
      "d": 217.3914999999979,
      "v": 100
    },
    {
      "midi": 46,
      "hit": false,
      "t": 109782.70749999929,
      "d": 217.3914999999979,
      "v": 100
    },
    {
      "midi": 72,
      "hit": false,
      "t": 109782.70749999951,
      "d": 217.3914999999979,
      "v": 100
    },
    {
      "midi": 35,
      "hit": false,
      "t": 110000.09899999929,
      "d": 217.3914999999979,
      "v": 100
    },
    {
      "midi": 59,
      "hit": false,
      "t": 110000.09899999929,
      "d": 434.7829999999958,
      "v": 100
    },
    {
      "midi": 42,
      "hit": false,
      "t": 110000.09899999929,
      "d": 217.3914999999979,
      "v": 100
    },
    {
      "midi": 77,
      "hit": false,
      "t": 110000.0989999995,
      "d": 217.3914999999979,
      "v": 100
    },
    {
      "midi": 46,
      "hit": false,
      "t": 110217.49049999929,
      "d": 217.3914999999979,
      "v": 100
    },
    {
      "midi": 72,
      "hit": false,
      "t": 110217.4904999995,
      "d": 217.3914999999979,
      "v": 100
    },
    {
      "midi": 35,
      "hit": false,
      "t": 110434.88199999928,
      "d": 217.3914999999979,
      "v": 100
    },
    {
      "midi": 59,
      "hit": false,
      "t": 110434.88199999928,
      "d": 434.7829999999958,
      "v": 100
    },
    {
      "midi": 42,
      "hit": false,
      "t": 110434.88199999928,
      "d": 217.3914999999979,
      "v": 100
    },
    {
      "midi": 82,
      "hit": false,
      "t": 110434.8819999995,
      "d": 217.3914999999979,
      "v": 100
    },
    {
      "midi": 46,
      "hit": false,
      "t": 110652.27349999928,
      "d": 217.3914999999979,
      "v": 100
    },
    {
      "midi": 72,
      "hit": false,
      "t": 110652.2734999995,
      "d": 217.3914999999979,
      "v": 100
    },
    {
      "midi": 35,
      "hit": false,
      "t": 110869.66499999928,
      "d": 217.3914999999979,
      "v": 100
    },
    {
      "midi": 59,
      "hit": false,
      "t": 110869.66499999928,
      "d": 434.7829999999958,
      "v": 100
    },
    {
      "midi": 42,
      "hit": false,
      "t": 110869.66499999928,
      "d": 217.3914999999979,
      "v": 100
    },
    {
      "midi": 79,
      "hit": false,
      "t": 110869.6649999995,
      "d": 217.3914999999979,
      "v": 100
    },
    {
      "midi": 46,
      "hit": false,
      "t": 111087.05649999928,
      "d": 217.3914999999979,
      "v": 100
    },
    {
      "midi": 72,
      "hit": false,
      "t": 111087.0564999995,
      "d": 217.3914999999979,
      "v": 100
    },
    {
      "midi": 35,
      "hit": false,
      "t": 111304.44799999928,
      "d": 217.3914999999979,
      "v": 100
    },
    {
      "midi": 59,
      "hit": false,
      "t": 111304.44799999928,
      "d": 434.7829999999958,
      "v": 100
    },
    {
      "midi": 42,
      "hit": false,
      "t": 111304.44799999928,
      "d": 217.3914999999979,
      "v": 100
    },
    {
      "midi": 79,
      "hit": false,
      "t": 111304.4479999995,
      "d": 217.3914999999979,
      "v": 100
    },
    {
      "midi": 36,
      "hit": false,
      "t": 111304.44799999952,
      "d": 3478.2639999999956,
      "v": 100
    },
    {
      "midi": 48,
      "hit": false,
      "t": 111304.44799999996,
      "d": 3478.2639999999956,
      "v": 100
    },
    {
      "midi": 60,
      "hit": false,
      "t": 111304.44799999996,
      "d": 3478.2639999999956,
      "v": 100
    },
    {
      "midi": 53,
      "hit": false,
      "t": 111304.44799999996,
      "d": 3478.2639999999956,
      "v": 100
    },
    {
      "midi": 67,
      "hit": false,
      "t": 111304.44799999996,
      "d": 3478.2639999999956,
      "v": 100
    },
    {
      "midi": 55,
      "hit": false,
      "t": 111304.44799999996,
      "d": 3478.2639999999956,
      "v": 100
    },
    {
      "midi": 48,
      "hit": false,
      "t": 111304.44799999996,
      "d": 3478.2639999999956,
      "v": 100
    },
    {
      "midi": 60,
      "hit": false,
      "t": 111304.44799999996,
      "d": 3478.2639999999956,
      "v": 100
    },
    {
      "midi": 53,
      "hit": false,
      "t": 111304.44799999996,
      "d": 3478.2639999999956,
      "v": 100
    },
    {
      "midi": 67,
      "hit": false,
      "t": 111304.44799999996,
      "d": 3478.2639999999956,
      "v": 100
    },
    {
      "midi": 55,
      "hit": false,
      "t": 111304.44799999996,
      "d": 3478.2639999999956,
      "v": 100
    },
    {
      "midi": 46,
      "hit": false,
      "t": 111521.83949999927,
      "d": 217.3914999999979,
      "v": 100
    },
    {
      "midi": 72,
      "hit": false,
      "t": 111521.83949999949,
      "d": 217.3914999999979,
      "v": 100
    },
    {
      "midi": 35,
      "hit": false,
      "t": 111739.23099999927,
      "d": 217.3914999999979,
      "v": 100
    },
    {
      "midi": 59,
      "hit": false,
      "t": 111739.23099999927,
      "d": 434.7829999999958,
      "v": 100
    },
    {
      "midi": 42,
      "hit": false,
      "t": 111739.23099999927,
      "d": 217.3914999999979,
      "v": 100
    },
    {
      "midi": 77,
      "hit": false,
      "t": 111739.23099999949,
      "d": 217.3914999999979,
      "v": 100
    },
    {
      "midi": 46,
      "hit": false,
      "t": 111956.62249999927,
      "d": 217.3914999999979,
      "v": 100
    },
    {
      "midi": 72,
      "hit": false,
      "t": 111956.62249999949,
      "d": 217.3914999999979,
      "v": 100
    },
    {
      "midi": 35,
      "hit": false,
      "t": 112174.01399999927,
      "d": 217.3914999999979,
      "v": 100
    },
    {
      "midi": 59,
      "hit": false,
      "t": 112174.01399999927,
      "d": 434.7829999999958,
      "v": 100
    },
    {
      "midi": 42,
      "hit": false,
      "t": 112174.01399999927,
      "d": 217.3914999999979,
      "v": 100
    },
    {
      "midi": 79,
      "hit": false,
      "t": 112174.01399999949,
      "d": 217.3914999999979,
      "v": 100
    },
    {
      "midi": 46,
      "hit": false,
      "t": 112391.40549999927,
      "d": 217.3914999999979,
      "v": 100
    },
    {
      "midi": 72,
      "hit": false,
      "t": 112391.40549999948,
      "d": 217.3914999999979,
      "v": 100
    },
    {
      "midi": 35,
      "hit": false,
      "t": 112608.79699999926,
      "d": 217.3914999999979,
      "v": 100
    },
    {
      "midi": 59,
      "hit": false,
      "t": 112608.79699999926,
      "d": 434.7829999999958,
      "v": 100
    },
    {
      "midi": 42,
      "hit": false,
      "t": 112608.79699999926,
      "d": 217.3914999999979,
      "v": 100
    },
    {
      "midi": 77,
      "hit": false,
      "t": 112608.79699999948,
      "d": 217.3914999999979,
      "v": 100
    },
    {
      "midi": 46,
      "hit": false,
      "t": 112826.18849999926,
      "d": 217.3914999999979,
      "v": 100
    },
    {
      "midi": 72,
      "hit": false,
      "t": 112826.18849999948,
      "d": 217.3914999999979,
      "v": 100
    },
    {
      "midi": 35,
      "hit": false,
      "t": 113043.57999999926,
      "d": 217.3914999999979,
      "v": 100
    },
    {
      "midi": 59,
      "hit": false,
      "t": 113043.57999999926,
      "d": 434.7829999999958,
      "v": 100
    },
    {
      "midi": 42,
      "hit": false,
      "t": 113043.57999999926,
      "d": 217.3914999999979,
      "v": 100
    },
    {
      "midi": 79,
      "hit": false,
      "t": 113043.57999999948,
      "d": 217.3914999999979,
      "v": 100
    },
    {
      "midi": 46,
      "hit": false,
      "t": 113260.97149999926,
      "d": 217.3914999999979,
      "v": 100
    },
    {
      "midi": 72,
      "hit": false,
      "t": 113260.97149999948,
      "d": 217.3914999999979,
      "v": 100
    },
    {
      "midi": 35,
      "hit": false,
      "t": 113478.36299999926,
      "d": 217.3914999999979,
      "v": 100
    },
    {
      "midi": 59,
      "hit": false,
      "t": 113478.36299999926,
      "d": 434.7829999999958,
      "v": 100
    },
    {
      "midi": 42,
      "hit": false,
      "t": 113478.36299999926,
      "d": 217.3914999999979,
      "v": 100
    },
    {
      "midi": 77,
      "hit": false,
      "t": 113478.36299999947,
      "d": 217.3914999999979,
      "v": 100
    },
    {
      "midi": 46,
      "hit": false,
      "t": 113695.75449999925,
      "d": 217.3914999999979,
      "v": 100
    },
    {
      "midi": 72,
      "hit": false,
      "t": 113695.75449999947,
      "d": 217.3914999999979,
      "v": 100
    },
    {
      "midi": 42,
      "hit": false,
      "t": 113913.14599999925,
      "d": 108.69574999999895,
      "v": 100
    },
    {
      "midi": 35,
      "hit": false,
      "t": 113913.14599999925,
      "d": 217.3914999999979,
      "v": 100
    },
    {
      "midi": 59,
      "hit": false,
      "t": 113913.14599999925,
      "d": 434.7829999999958,
      "v": 100
    },
    {
      "midi": 42,
      "hit": false,
      "t": 113913.14599999925,
      "d": 217.3914999999979,
      "v": 100
    },
    {
      "midi": 75,
      "hit": false,
      "t": 113913.14599999947,
      "d": 217.3914999999979,
      "v": 100
    },
    {
      "midi": 42,
      "hit": false,
      "t": 114021.84174999925,
      "d": 108.69574999999895,
      "v": 100
    },
    {
      "midi": 42,
      "hit": false,
      "t": 114130.53749999925,
      "d": 108.69574999999895,
      "v": 100
    },
    {
      "midi": 46,
      "hit": false,
      "t": 114130.53749999925,
      "d": 217.3914999999979,
      "v": 100
    },
    {
      "midi": 72,
      "hit": false,
      "t": 114130.53749999947,
      "d": 217.3914999999979,
      "v": 100
    },
    {
      "midi": 42,
      "hit": false,
      "t": 114239.23324999925,
      "d": 108.69574999999895,
      "v": 100
    },
    {
      "midi": 42,
      "hit": false,
      "t": 114347.92899999925,
      "d": 54.34787500000675,
      "v": 100
    },
    {
      "midi": 35,
      "hit": false,
      "t": 114347.92899999925,
      "d": 217.391500000027,
      "v": 100
    },
    {
      "midi": 59,
      "hit": false,
      "t": 114347.92899999925,
      "d": 434.7830000000249,
      "v": 100
    },
    {
      "midi": 42,
      "hit": false,
      "t": 114347.92899999925,
      "d": 217.3914999999979,
      "v": 100
    },
    {
      "midi": 77,
      "hit": false,
      "t": 114347.92899999947,
      "d": 217.3914999999979,
      "v": 100
    },
    {
      "midi": 42,
      "hit": false,
      "t": 114402.27687499925,
      "d": 54.34787500000675,
      "v": 100
    },
    {
      "midi": 42,
      "hit": false,
      "t": 114456.62474999926,
      "d": 54.34787500000675,
      "v": 100
    },
    {
      "midi": 42,
      "hit": false,
      "t": 114510.97262499927,
      "d": 54.34787500000675,
      "v": 100
    },
    {
      "midi": 46,
      "hit": false,
      "t": 114565.32049999924,
      "d": 217.3914999999979,
      "v": 100
    },
    {
      "midi": 46,
      "hit": false,
      "t": 114565.32049999927,
      "d": 217.3914999999979,
      "v": 100
    },
    {
      "midi": 72,
      "hit": false,
      "t": 114565.32049999946,
      "d": 217.3914999999979,
      "v": 100
    },
    {
      "midi": 42,
      "hit": false,
      "t": 114782.71199999924,
      "d": 217.3914999999979,
      "v": 100
    },
    {
      "midi": 35,
      "hit": false,
      "t": 114782.71199999927,
      "d": 217.3914999999979,
      "v": 100
    },
    {
      "midi": 42,
      "hit": false,
      "t": 114782.71199999927,
      "d": 217.3914999999979,
      "v": 100
    },
    {
      "midi": 59,
      "hit": false,
      "t": 114782.71199999927,
      "d": 434.7829999999958,
      "v": 100
    },
    {
      "midi": 79,
      "hit": false,
      "t": 114782.71199999946,
      "d": 217.3914999999979,
      "v": 100
    },
    {
      "midi": 36,
      "hit": false,
      "t": 114782.71199999952,
      "d": 3478.2639999999956,
      "v": 100
    },
    {
      "midi": 36,
      "hit": false,
      "t": 114782.71199999959,
      "d": 434.7829999999958,
      "v": 100
    },
    {
      "midi": 48,
      "hit": false,
      "t": 114782.71199999996,
      "d": 3478.2639999999956,
      "v": 100
    },
    {
      "midi": 58,
      "hit": false,
      "t": 114782.71199999996,
      "d": 3478.2639999999956,
      "v": 100
    },
    {
      "midi": 65,
      "hit": false,
      "t": 114782.71199999996,
      "d": 3478.2639999999956,
      "v": 100
    },
    {
      "midi": 62,
      "hit": false,
      "t": 114782.71199999996,
      "d": 3478.2639999999956,
      "v": 100
    },
    {
      "midi": 55,
      "hit": false,
      "t": 114782.71199999996,
      "d": 3478.2639999999956,
      "v": 100
    },
    {
      "midi": 48,
      "hit": false,
      "t": 114782.71199999996,
      "d": 3478.2639999999956,
      "v": 100
    },
    {
      "midi": 58,
      "hit": false,
      "t": 114782.71199999996,
      "d": 3478.2639999999956,
      "v": 100
    },
    {
      "midi": 65,
      "hit": false,
      "t": 114782.71199999996,
      "d": 3478.2639999999956,
      "v": 100
    },
    {
      "midi": 62,
      "hit": false,
      "t": 114782.71199999996,
      "d": 3478.2639999999956,
      "v": 100
    },
    {
      "midi": 55,
      "hit": false,
      "t": 114782.71199999996,
      "d": 3478.2639999999956,
      "v": 100
    },
    {
      "midi": 46,
      "hit": false,
      "t": 115000.10349999924,
      "d": 217.3914999999979,
      "v": 100
    },
    {
      "midi": 42,
      "hit": false,
      "t": 115000.10349999927,
      "d": 108.69574999999895,
      "v": 100
    },
    {
      "midi": 72,
      "hit": false,
      "t": 115000.10349999946,
      "d": 217.3914999999979,
      "v": 100
    },
    {
      "midi": 42,
      "hit": false,
      "t": 115108.79924999927,
      "d": 108.69574999999895,
      "v": 100
    },
    {
      "midi": 42,
      "hit": false,
      "t": 115217.49499999924,
      "d": 217.3914999999979,
      "v": 100
    },
    {
      "midi": 35,
      "hit": false,
      "t": 115217.49499999927,
      "d": 217.3914999999979,
      "v": 100
    },
    {
      "midi": 42,
      "hit": false,
      "t": 115217.49499999927,
      "d": 217.3914999999979,
      "v": 100
    },
    {
      "midi": 59,
      "hit": false,
      "t": 115217.49499999927,
      "d": 434.7829999999958,
      "v": 100
    },
    {
      "midi": 77,
      "hit": false,
      "t": 115217.49499999946,
      "d": 217.3914999999979,
      "v": 100
    },
    {
      "midi": 48,
      "hit": false,
      "t": 115217.49499999959,
      "d": 217.3914999999979,
      "v": 100
    },
    {
      "midi": 46,
      "hit": false,
      "t": 115434.88649999924,
      "d": 217.3914999999979,
      "v": 100
    },
    {
      "midi": 42,
      "hit": false,
      "t": 115434.88649999927,
      "d": 108.69574999999895,
      "v": 100
    },
    {
      "midi": 72,
      "hit": false,
      "t": 115434.88649999945,
      "d": 217.3914999999979,
      "v": 100
    },
    {
      "midi": 36,
      "hit": false,
      "t": 115434.88649999959,
      "d": 217.3914999999979,
      "v": 100
    },
    {
      "midi": 42,
      "hit": false,
      "t": 115543.58224999926,
      "d": 108.69574999999895,
      "v": 100
    },
    {
      "midi": 42,
      "hit": false,
      "t": 115652.27799999923,
      "d": 217.3914999999979,
      "v": 100
    },
    {
      "midi": 35,
      "hit": false,
      "t": 115652.27799999926,
      "d": 217.3914999999979,
      "v": 100
    },
    {
      "midi": 42,
      "hit": false,
      "t": 115652.27799999926,
      "d": 217.3914999999979,
      "v": 100
    },
    {
      "midi": 59,
      "hit": false,
      "t": 115652.27799999926,
      "d": 434.7829999999958,
      "v": 100
    },
    {
      "midi": 79,
      "hit": false,
      "t": 115652.27799999945,
      "d": 217.3914999999979,
      "v": 100
    },
    {
      "midi": 36,
      "hit": false,
      "t": 115652.27799999958,
      "d": 108.69574999999895,
      "v": 100
    },
    {
      "midi": 36,
      "hit": false,
      "t": 115760.97374999958,
      "d": 108.69574999999895,
      "v": 100
    },
    {
      "midi": 46,
      "hit": false,
      "t": 115869.66949999923,
      "d": 217.3914999999979,
      "v": 100
    },
    {
      "midi": 46,
      "hit": false,
      "t": 115869.66949999926,
      "d": 217.3914999999979,
      "v": 100
    },
    {
      "midi": 72,
      "hit": false,
      "t": 115869.66949999945,
      "d": 217.3914999999979,
      "v": 100
    },
    {
      "midi": 36,
      "hit": false,
      "t": 115869.66949999958,
      "d": 217.3914999999979,
      "v": 100
    },
    {
      "midi": 42,
      "hit": false,
      "t": 116087.06099999923,
      "d": 217.3914999999979,
      "v": 100
    },
    {
      "midi": 40,
      "hit": false,
      "t": 116087.06099999923,
      "d": 217.3914999999979,
      "v": 100
    },
    {
      "midi": 35,
      "hit": false,
      "t": 116087.06099999926,
      "d": 217.3914999999979,
      "v": 100
    },
    {
      "midi": 59,
      "hit": false,
      "t": 116087.06099999926,
      "d": 434.7829999999958,
      "v": 100
    },
    {
      "midi": 77,
      "hit": false,
      "t": 116087.06099999945,
      "d": 217.3914999999979,
      "v": 100
    },
    {
      "midi": 48,
      "hit": false,
      "t": 116087.06099999958,
      "d": 217.3914999999979,
      "v": 100
    },
    {
      "midi": 46,
      "hit": false,
      "t": 116304.45249999923,
      "d": 217.3914999999979,
      "v": 100
    },
    {
      "midi": 72,
      "hit": false,
      "t": 116304.45249999945,
      "d": 217.3914999999979,
      "v": 100
    },
    {
      "midi": 36,
      "hit": false,
      "t": 116304.45249999958,
      "d": 217.3914999999979,
      "v": 100
    },
    {
      "midi": 42,
      "hit": false,
      "t": 116521.84399999923,
      "d": 217.3914999999979,
      "v": 100
    },
    {
      "midi": 35,
      "hit": false,
      "t": 116521.84399999926,
      "d": 217.3914999999979,
      "v": 100
    },
    {
      "midi": 42,
      "hit": false,
      "t": 116521.84399999926,
      "d": 217.3914999999979,
      "v": 100
    },
    {
      "midi": 59,
      "hit": false,
      "t": 116521.84399999926,
      "d": 434.7829999999958,
      "v": 100
    },
    {
      "midi": 79,
      "hit": false,
      "t": 116521.84399999944,
      "d": 217.3914999999979,
      "v": 100
    },
    {
      "midi": 36,
      "hit": false,
      "t": 116521.84399999958,
      "d": 434.7829999999958,
      "v": 100
    },
    {
      "midi": 46,
      "hit": false,
      "t": 116739.23549999922,
      "d": 217.3914999999979,
      "v": 100
    },
    {
      "midi": 42,
      "hit": false,
      "t": 116739.23549999925,
      "d": 108.69574999999895,
      "v": 100
    },
    {
      "midi": 72,
      "hit": false,
      "t": 116739.23549999944,
      "d": 217.3914999999979,
      "v": 100
    },
    {
      "midi": 42,
      "hit": false,
      "t": 116847.93124999925,
      "d": 108.69574999999895,
      "v": 100
    },
    {
      "midi": 42,
      "hit": false,
      "t": 116956.62699999922,
      "d": 217.3914999999979,
      "v": 100
    },
    {
      "midi": 35,
      "hit": false,
      "t": 116956.62699999925,
      "d": 217.3914999999979,
      "v": 100
    },
    {
      "midi": 42,
      "hit": false,
      "t": 116956.62699999925,
      "d": 217.3914999999979,
      "v": 100
    },
    {
      "midi": 59,
      "hit": false,
      "t": 116956.62699999925,
      "d": 434.7829999999958,
      "v": 100
    },
    {
      "midi": 77,
      "hit": false,
      "t": 116956.62699999944,
      "d": 217.3914999999979,
      "v": 100
    },
    {
      "midi": 48,
      "hit": false,
      "t": 116956.62699999957,
      "d": 217.3914999999979,
      "v": 100
    },
    {
      "midi": 46,
      "hit": false,
      "t": 117174.01849999922,
      "d": 217.3914999999979,
      "v": 100
    },
    {
      "midi": 42,
      "hit": false,
      "t": 117174.01849999925,
      "d": 108.69574999999895,
      "v": 100
    },
    {
      "midi": 72,
      "hit": false,
      "t": 117174.01849999944,
      "d": 217.3914999999979,
      "v": 100
    },
    {
      "midi": 36,
      "hit": false,
      "t": 117174.01849999957,
      "d": 217.3914999999979,
      "v": 100
    },
    {
      "midi": 42,
      "hit": false,
      "t": 117282.71424999925,
      "d": 108.69574999999895,
      "v": 100
    },
    {
      "midi": 42,
      "hit": false,
      "t": 117391.40999999922,
      "d": 217.3914999999979,
      "v": 100
    },
    {
      "midi": 35,
      "hit": false,
      "t": 117391.40999999925,
      "d": 217.3914999999979,
      "v": 100
    },
    {
      "midi": 42,
      "hit": false,
      "t": 117391.40999999925,
      "d": 217.3914999999979,
      "v": 100
    },
    {
      "midi": 59,
      "hit": false,
      "t": 117391.40999999925,
      "d": 434.7829999999958,
      "v": 100
    },
    {
      "midi": 82,
      "hit": false,
      "t": 117391.40999999944,
      "d": 217.3914999999979,
      "v": 100
    },
    {
      "midi": 36,
      "hit": false,
      "t": 117391.40999999957,
      "d": 108.69574999999895,
      "v": 100
    },
    {
      "midi": 36,
      "hit": false,
      "t": 117500.10574999957,
      "d": 108.69574999999895,
      "v": 100
    },
    {
      "midi": 46,
      "hit": false,
      "t": 117608.80149999922,
      "d": 217.3914999999979,
      "v": 100
    },
    {
      "midi": 46,
      "hit": false,
      "t": 117608.80149999924,
      "d": 217.3914999999979,
      "v": 100
    },
    {
      "midi": 72,
      "hit": false,
      "t": 117608.80149999943,
      "d": 217.3914999999979,
      "v": 100
    },
    {
      "midi": 36,
      "hit": false,
      "t": 117608.80149999956,
      "d": 217.3914999999979,
      "v": 100
    },
    {
      "midi": 42,
      "hit": false,
      "t": 117826.19299999921,
      "d": 217.3914999999979,
      "v": 100
    },
    {
      "midi": 40,
      "hit": false,
      "t": 117826.19299999921,
      "d": 217.3914999999979,
      "v": 100
    },
    {
      "midi": 35,
      "hit": false,
      "t": 117826.19299999924,
      "d": 217.3914999999979,
      "v": 100
    },
    {
      "midi": 59,
      "hit": false,
      "t": 117826.19299999924,
      "d": 434.7829999999958,
      "v": 100
    },
    {
      "midi": 79,
      "hit": false,
      "t": 117826.19299999943,
      "d": 217.3914999999979,
      "v": 100
    },
    {
      "midi": 48,
      "hit": false,
      "t": 117826.19299999956,
      "d": 217.3914999999979,
      "v": 100
    },
    {
      "midi": 46,
      "hit": false,
      "t": 118043.58449999921,
      "d": 217.3914999999979,
      "v": 100
    },
    {
      "midi": 72,
      "hit": false,
      "t": 118043.58449999943,
      "d": 217.3914999999979,
      "v": 100
    },
    {
      "midi": 36,
      "hit": false,
      "t": 118043.58449999956,
      "d": 217.3914999999979,
      "v": 100
    },
    {
      "midi": 42,
      "hit": false,
      "t": 118260.97599999921,
      "d": 217.3914999999979,
      "v": 100
    },
    {
      "midi": 42,
      "hit": false,
      "t": 118260.97599999924,
      "d": 217.3914999999979,
      "v": 100
    },
    {
      "midi": 35,
      "hit": false,
      "t": 118260.97599999924,
      "d": 217.3914999999979,
      "v": 100
    },
    {
      "midi": 59,
      "hit": false,
      "t": 118260.97599999924,
      "d": 434.7829999999958,
      "v": 100
    },
    {
      "midi": 79,
      "hit": false,
      "t": 118260.97599999943,
      "d": 217.3914999999979,
      "v": 100
    },
    {
      "midi": 36,
      "hit": false,
      "t": 118260.97599999951,
      "d": 3478.2639999999956,
      "v": 100
    },
    {
      "midi": 36,
      "hit": false,
      "t": 118260.97599999956,
      "d": 434.7829999999958,
      "v": 100
    },
    {
      "midi": 51,
      "hit": false,
      "t": 118260.97599999995,
      "d": 3478.2639999999956,
      "v": 100
    },
    {
      "midi": 55,
      "hit": false,
      "t": 118260.97599999995,
      "d": 3478.2639999999956,
      "v": 100
    },
    {
      "midi": 48,
      "hit": false,
      "t": 118260.97599999995,
      "d": 3478.2639999999956,
      "v": 100
    },
    {
      "midi": 62,
      "hit": false,
      "t": 118260.97599999995,
      "d": 3478.2639999999956,
      "v": 100
    },
    {
      "midi": 58,
      "hit": false,
      "t": 118260.97599999995,
      "d": 3478.2639999999956,
      "v": 100
    },
    {
      "midi": 51,
      "hit": false,
      "t": 118260.97599999995,
      "d": 3478.2639999999956,
      "v": 100
    },
    {
      "midi": 55,
      "hit": false,
      "t": 118260.97599999995,
      "d": 3478.2639999999956,
      "v": 100
    },
    {
      "midi": 48,
      "hit": false,
      "t": 118260.97599999995,
      "d": 3478.2639999999956,
      "v": 100
    },
    {
      "midi": 62,
      "hit": false,
      "t": 118260.97599999995,
      "d": 3478.2639999999956,
      "v": 100
    },
    {
      "midi": 58,
      "hit": false,
      "t": 118260.97599999995,
      "d": 3478.2639999999956,
      "v": 100
    },
    {
      "midi": 46,
      "hit": false,
      "t": 118478.3674999992,
      "d": 217.3914999999979,
      "v": 100
    },
    {
      "midi": 42,
      "hit": false,
      "t": 118478.36749999924,
      "d": 108.69574999999895,
      "v": 100
    },
    {
      "midi": 72,
      "hit": false,
      "t": 118478.36749999943,
      "d": 217.3914999999979,
      "v": 100
    },
    {
      "midi": 42,
      "hit": false,
      "t": 118587.06324999924,
      "d": 108.69574999999895,
      "v": 100
    },
    {
      "midi": 42,
      "hit": false,
      "t": 118695.7589999992,
      "d": 217.3914999999979,
      "v": 100
    },
    {
      "midi": 42,
      "hit": false,
      "t": 118695.75899999923,
      "d": 217.3914999999979,
      "v": 100
    },
    {
      "midi": 35,
      "hit": false,
      "t": 118695.75899999923,
      "d": 217.3914999999979,
      "v": 100
    },
    {
      "midi": 59,
      "hit": false,
      "t": 118695.75899999923,
      "d": 434.7829999999958,
      "v": 100
    },
    {
      "midi": 77,
      "hit": false,
      "t": 118695.75899999942,
      "d": 217.3914999999979,
      "v": 100
    },
    {
      "midi": 48,
      "hit": false,
      "t": 118695.75899999955,
      "d": 217.3914999999979,
      "v": 100
    },
    {
      "midi": 46,
      "hit": false,
      "t": 118913.1504999992,
      "d": 217.3914999999979,
      "v": 100
    },
    {
      "midi": 42,
      "hit": false,
      "t": 118913.15049999923,
      "d": 108.69574999999895,
      "v": 100
    },
    {
      "midi": 72,
      "hit": false,
      "t": 118913.15049999942,
      "d": 217.3914999999979,
      "v": 100
    },
    {
      "midi": 36,
      "hit": false,
      "t": 118913.15049999955,
      "d": 217.3914999999979,
      "v": 100
    },
    {
      "midi": 42,
      "hit": false,
      "t": 119021.84624999923,
      "d": 108.69574999999895,
      "v": 100
    },
    {
      "midi": 42,
      "hit": false,
      "t": 119130.5419999992,
      "d": 217.3914999999979,
      "v": 100
    },
    {
      "midi": 42,
      "hit": false,
      "t": 119130.54199999923,
      "d": 217.3914999999979,
      "v": 100
    },
    {
      "midi": 35,
      "hit": false,
      "t": 119130.54199999923,
      "d": 217.3914999999979,
      "v": 100
    },
    {
      "midi": 59,
      "hit": false,
      "t": 119130.54199999923,
      "d": 434.7829999999958,
      "v": 100
    },
    {
      "midi": 79,
      "hit": false,
      "t": 119130.54199999942,
      "d": 217.3914999999979,
      "v": 100
    },
    {
      "midi": 36,
      "hit": false,
      "t": 119130.54199999955,
      "d": 108.69574999999895,
      "v": 100
    },
    {
      "midi": 36,
      "hit": false,
      "t": 119239.23774999955,
      "d": 108.69574999999895,
      "v": 100
    },
    {
      "midi": 46,
      "hit": false,
      "t": 119347.9334999992,
      "d": 217.3914999999979,
      "v": 100
    },
    {
      "midi": 46,
      "hit": false,
      "t": 119347.93349999923,
      "d": 217.3914999999979,
      "v": 100
    },
    {
      "midi": 72,
      "hit": false,
      "t": 119347.93349999942,
      "d": 217.3914999999979,
      "v": 100
    },
    {
      "midi": 36,
      "hit": false,
      "t": 119347.93349999955,
      "d": 217.3914999999979,
      "v": 100
    },
    {
      "midi": 40,
      "hit": false,
      "t": 119565.3249999992,
      "d": 217.3914999999979,
      "v": 100
    },
    {
      "midi": 42,
      "hit": false,
      "t": 119565.3249999992,
      "d": 217.3914999999979,
      "v": 100
    },
    {
      "midi": 35,
      "hit": false,
      "t": 119565.32499999923,
      "d": 217.3914999999979,
      "v": 100
    },
    {
      "midi": 59,
      "hit": false,
      "t": 119565.32499999923,
      "d": 434.7829999999958,
      "v": 100
    },
    {
      "midi": 77,
      "hit": false,
      "t": 119565.32499999942,
      "d": 217.3914999999979,
      "v": 100
    },
    {
      "midi": 48,
      "hit": false,
      "t": 119565.32499999955,
      "d": 217.3914999999979,
      "v": 100
    },
    {
      "midi": 46,
      "hit": false,
      "t": 119782.7164999992,
      "d": 217.3914999999979,
      "v": 100
    },
    {
      "midi": 72,
      "hit": false,
      "t": 119782.71649999941,
      "d": 217.3914999999979,
      "v": 100
    },
    {
      "midi": 36,
      "hit": false,
      "t": 119782.71649999954,
      "d": 217.3914999999979,
      "v": 100
    },
    {
      "midi": 42,
      "hit": false,
      "t": 120000.10799999919,
      "d": 217.3914999999979,
      "v": 100
    },
    {
      "midi": 42,
      "hit": false,
      "t": 120000.10799999922,
      "d": 217.3914999999979,
      "v": 100
    },
    {
      "midi": 35,
      "hit": false,
      "t": 120000.10799999922,
      "d": 217.3914999999979,
      "v": 100
    },
    {
      "midi": 59,
      "hit": false,
      "t": 120000.10799999922,
      "d": 434.7829999999958,
      "v": 100
    },
    {
      "midi": 79,
      "hit": false,
      "t": 120000.10799999941,
      "d": 217.3914999999979,
      "v": 100
    },
    {
      "midi": 36,
      "hit": false,
      "t": 120000.10799999954,
      "d": 434.7829999999958,
      "v": 100
    },
    {
      "midi": 46,
      "hit": false,
      "t": 120217.49949999919,
      "d": 217.3914999999979,
      "v": 100
    },
    {
      "midi": 42,
      "hit": false,
      "t": 120217.49949999922,
      "d": 108.69574999999895,
      "v": 100
    },
    {
      "midi": 72,
      "hit": false,
      "t": 120217.49949999941,
      "d": 217.3914999999979,
      "v": 100
    },
    {
      "midi": 42,
      "hit": false,
      "t": 120326.19524999922,
      "d": 108.69574999999895,
      "v": 100
    },
    {
      "midi": 42,
      "hit": false,
      "t": 120434.89099999919,
      "d": 217.3914999999979,
      "v": 100
    },
    {
      "midi": 42,
      "hit": false,
      "t": 120434.89099999922,
      "d": 217.3914999999979,
      "v": 100
    },
    {
      "midi": 35,
      "hit": false,
      "t": 120434.89099999922,
      "d": 217.3914999999979,
      "v": 100
    },
    {
      "midi": 59,
      "hit": false,
      "t": 120434.89099999922,
      "d": 434.7829999999958,
      "v": 100
    },
    {
      "midi": 77,
      "hit": false,
      "t": 120434.8909999994,
      "d": 217.3914999999979,
      "v": 100
    },
    {
      "midi": 48,
      "hit": false,
      "t": 120434.89099999954,
      "d": 217.3914999999979,
      "v": 100
    },
    {
      "midi": 46,
      "hit": false,
      "t": 120652.28249999919,
      "d": 217.3914999999979,
      "v": 100
    },
    {
      "midi": 42,
      "hit": false,
      "t": 120652.28249999922,
      "d": 108.69574999999895,
      "v": 100
    },
    {
      "midi": 72,
      "hit": false,
      "t": 120652.2824999994,
      "d": 217.3914999999979,
      "v": 100
    },
    {
      "midi": 36,
      "hit": false,
      "t": 120652.28249999954,
      "d": 217.3914999999979,
      "v": 100
    },
    {
      "midi": 42,
      "hit": false,
      "t": 120760.97824999921,
      "d": 108.69574999999895,
      "v": 100
    },
    {
      "midi": 42,
      "hit": false,
      "t": 120869.67399999918,
      "d": 217.3914999999979,
      "v": 100
    },
    {
      "midi": 40,
      "hit": false,
      "t": 120869.67399999921,
      "d": 108.69574999999895,
      "v": 100
    },
    {
      "midi": 35,
      "hit": false,
      "t": 120869.67399999921,
      "d": 217.3914999999979,
      "v": 100
    },
    {
      "midi": 42,
      "hit": false,
      "t": 120869.67399999921,
      "d": 217.3914999999979,
      "v": 100
    },
    {
      "midi": 59,
      "hit": false,
      "t": 120869.67399999921,
      "d": 434.7829999999958,
      "v": 100
    },
    {
      "midi": 75,
      "hit": false,
      "t": 120869.6739999994,
      "d": 217.3914999999979,
      "v": 100
    },
    {
      "midi": 36,
      "hit": false,
      "t": 120869.67399999953,
      "d": 108.69574999999895,
      "v": 100
    },
    {
      "midi": 40,
      "hit": false,
      "t": 120978.36974999921,
      "d": 108.69574999999895,
      "v": 100
    },
    {
      "midi": 36,
      "hit": false,
      "t": 120978.36974999953,
      "d": 108.69574999999895,
      "v": 100
    },
    {
      "midi": 46,
      "hit": false,
      "t": 121087.06549999918,
      "d": 217.3914999999979,
      "v": 100
    },
    {
      "midi": 40,
      "hit": false,
      "t": 121087.06549999921,
      "d": 108.69574999999895,
      "v": 100
    },
    {
      "midi": 46,
      "hit": false,
      "t": 121087.06549999921,
      "d": 217.3914999999979,
      "v": 100
    },
    {
      "midi": 72,
      "hit": false,
      "t": 121087.0654999994,
      "d": 217.3914999999979,
      "v": 100
    },
    {
      "midi": 36,
      "hit": false,
      "t": 121087.06549999953,
      "d": 217.3914999999979,
      "v": 100
    },
    {
      "midi": 40,
      "hit": false,
      "t": 121195.76124999921,
      "d": 108.69574999999895,
      "v": 100
    },
    {
      "midi": 40,
      "hit": false,
      "t": 121304.45699999918,
      "d": 217.3914999999979,
      "v": 100
    },
    {
      "midi": 42,
      "hit": false,
      "t": 121304.45699999918,
      "d": 217.3914999999979,
      "v": 100
    },
    {
      "midi": 40,
      "hit": false,
      "t": 121304.45699999921,
      "d": 54.34787500000675,
      "v": 100
    },
    {
      "midi": 35,
      "hit": false,
      "t": 121304.45699999921,
      "d": 217.391500000027,
      "v": 100
    },
    {
      "midi": 59,
      "hit": false,
      "t": 121304.45699999921,
      "d": 434.783000000054,
      "v": 100
    },
    {
      "midi": 77,
      "hit": false,
      "t": 121304.4569999994,
      "d": 217.3914999999979,
      "v": 100
    },
    {
      "midi": 48,
      "hit": false,
      "t": 121304.45699999953,
      "d": 217.3914999999979,
      "v": 100
    },
    {
      "midi": 40,
      "hit": false,
      "t": 121358.80487499922,
      "d": 54.34787500000675,
      "v": 100
    },
    {
      "midi": 40,
      "hit": false,
      "t": 121413.15274999922,
      "d": 54.34787500000675,
      "v": 100
    },
    {
      "midi": 40,
      "hit": false,
      "t": 121467.50062499923,
      "d": 54.34787500000675,
      "v": 100
    },
    {
      "midi": 46,
      "hit": false,
      "t": 121521.84849999918,
      "d": 217.3914999999979,
      "v": 100
    },
    {
      "midi": 40,
      "hit": false,
      "t": 121521.84849999924,
      "d": 54.34787500000675,
      "v": 100
    },
    {
      "midi": 72,
      "hit": false,
      "t": 121521.8484999994,
      "d": 217.3914999999979,
      "v": 100
    },
    {
      "midi": 36,
      "hit": false,
      "t": 121521.84849999953,
      "d": 217.3914999999979,
      "v": 100
    },
    {
      "midi": 40,
      "hit": false,
      "t": 121576.19637499924,
      "d": 54.34787500000675,
      "v": 100
    },
    {
      "midi": 40,
      "hit": false,
      "t": 121630.54424999925,
      "d": 54.34787500000675,
      "v": 100
    },
    {
      "midi": 40,
      "hit": false,
      "t": 121684.89212499926,
      "d": 54.34787500000675,
      "v": 100
    },
    {
      "midi": 42,
      "hit": false,
      "t": 121739.23999999918,
      "d": 217.3914999999979,
      "v": 100
    },
    {
      "midi": 35,
      "hit": false,
      "t": 121739.23999999926,
      "d": 217.3914999999979,
      "v": 100
    },
    {
      "midi": 42,
      "hit": false,
      "t": 121739.23999999926,
      "d": 217.3914999999979,
      "v": 100
    },
    {
      "midi": 59,
      "hit": false,
      "t": 121739.23999999926,
      "d": 434.7829999999958,
      "v": 100
    },
    {
      "midi": 79,
      "hit": false,
      "t": 121739.2399999994,
      "d": 217.3914999999979,
      "v": 100
    },
    {
      "midi": 36,
      "hit": false,
      "t": 121739.23999999951,
      "d": 3478.2639999999956,
      "v": 100
    },
    {
      "midi": 36,
      "hit": false,
      "t": 121739.23999999953,
      "d": 434.7829999999958,
      "v": 100
    },
    {
      "midi": 62,
      "hit": false,
      "t": 121739.23999999995,
      "d": 3478.2639999999956,
      "v": 100
    },
    {
      "midi": 55,
      "hit": false,
      "t": 121739.23999999995,
      "d": 3478.2639999999956,
      "v": 100
    },
    {
      "midi": 65,
      "hit": false,
      "t": 121739.23999999995,
      "d": 3478.2639999999956,
      "v": 100
    },
    {
      "midi": 48,
      "hit": false,
      "t": 121739.23999999995,
      "d": 3478.2639999999956,
      "v": 100
    },
    {
      "midi": 58,
      "hit": false,
      "t": 121739.23999999995,
      "d": 3478.2639999999956,
      "v": 100
    },
    {
      "midi": 62,
      "hit": false,
      "t": 121739.23999999995,
      "d": 3478.2639999999956,
      "v": 100
    },
    {
      "midi": 55,
      "hit": false,
      "t": 121739.23999999995,
      "d": 3478.2639999999956,
      "v": 100
    },
    {
      "midi": 65,
      "hit": false,
      "t": 121739.23999999995,
      "d": 3478.2639999999956,
      "v": 100
    },
    {
      "midi": 48,
      "hit": false,
      "t": 121739.23999999995,
      "d": 3478.2639999999956,
      "v": 100
    },
    {
      "midi": 58,
      "hit": false,
      "t": 121739.23999999995,
      "d": 3478.2639999999956,
      "v": 100
    },
    {
      "midi": 46,
      "hit": false,
      "t": 121956.63149999917,
      "d": 217.3914999999979,
      "v": 100
    },
    {
      "midi": 42,
      "hit": false,
      "t": 121956.63149999926,
      "d": 108.69574999999895,
      "v": 100
    },
    {
      "midi": 72,
      "hit": false,
      "t": 121956.63149999939,
      "d": 217.3914999999979,
      "v": 100
    },
    {
      "midi": 42,
      "hit": false,
      "t": 122065.32724999926,
      "d": 108.69574999999895,
      "v": 100
    },
    {
      "midi": 42,
      "hit": false,
      "t": 122174.02299999917,
      "d": 217.3914999999979,
      "v": 100
    },
    {
      "midi": 40,
      "hit": false,
      "t": 122174.02299999917,
      "d": 217.3914999999979,
      "v": 100
    },
    {
      "midi": 35,
      "hit": false,
      "t": 122174.02299999926,
      "d": 217.3914999999979,
      "v": 100
    },
    {
      "midi": 40,
      "hit": false,
      "t": 122174.02299999926,
      "d": 217.3914999999979,
      "v": 100
    },
    {
      "midi": 42,
      "hit": false,
      "t": 122174.02299999926,
      "d": 217.3914999999979,
      "v": 100
    },
    {
      "midi": 59,
      "hit": false,
      "t": 122174.02299999926,
      "d": 434.7829999999958,
      "v": 100
    },
    {
      "midi": 77,
      "hit": false,
      "t": 122174.02299999939,
      "d": 217.3914999999979,
      "v": 100
    },
    {
      "midi": 48,
      "hit": false,
      "t": 122174.02299999952,
      "d": 217.3914999999979,
      "v": 100
    },
    {
      "midi": 46,
      "hit": false,
      "t": 122391.41449999917,
      "d": 217.3914999999979,
      "v": 100
    },
    {
      "midi": 42,
      "hit": false,
      "t": 122391.41449999926,
      "d": 108.69574999999895,
      "v": 100
    },
    {
      "midi": 72,
      "hit": false,
      "t": 122391.41449999939,
      "d": 217.3914999999979,
      "v": 100
    },
    {
      "midi": 36,
      "hit": false,
      "t": 122391.41449999952,
      "d": 217.3914999999979,
      "v": 100
    },
    {
      "midi": 42,
      "hit": false,
      "t": 122500.11024999926,
      "d": 108.69574999999895,
      "v": 100
    },
    {
      "midi": 40,
      "hit": false,
      "t": 122500.11024999926,
      "d": 108.69574999999895,
      "v": 100
    },
    {
      "midi": 42,
      "hit": false,
      "t": 122608.80599999917,
      "d": 217.3914999999979,
      "v": 100
    },
    {
      "midi": 42,
      "hit": false,
      "t": 122608.80599999925,
      "d": 217.3914999999979,
      "v": 100
    },
    {
      "midi": 35,
      "hit": false,
      "t": 122608.80599999925,
      "d": 217.3914999999979,
      "v": 100
    },
    {
      "midi": 59,
      "hit": false,
      "t": 122608.80599999925,
      "d": 434.7829999999958,
      "v": 100
    },
    {
      "midi": 79,
      "hit": false,
      "t": 122608.80599999939,
      "d": 217.3914999999979,
      "v": 100
    },
    {
      "midi": 36,
      "hit": false,
      "t": 122608.80599999952,
      "d": 108.69574999999895,
      "v": 100
    },
    {
      "midi": 40,
      "hit": false,
      "t": 122717.50174999925,
      "d": 108.69574999999895,
      "v": 100
    },
    {
      "midi": 36,
      "hit": false,
      "t": 122717.50174999952,
      "d": 108.69574999999895,
      "v": 100
    },
    {
      "midi": 46,
      "hit": false,
      "t": 122826.19749999917,
      "d": 217.3914999999979,
      "v": 100
    },
    {
      "midi": 46,
      "hit": false,
      "t": 122826.19749999925,
      "d": 217.3914999999979,
      "v": 100
    },
    {
      "midi": 72,
      "hit": false,
      "t": 122826.19749999938,
      "d": 217.3914999999979,
      "v": 100
    },
    {
      "midi": 36,
      "hit": false,
      "t": 122826.19749999951,
      "d": 217.3914999999979,
      "v": 100
    },
    {
      "midi": 42,
      "hit": false,
      "t": 123043.58899999916,
      "d": 217.3914999999979,
      "v": 100
    },
    {
      "midi": 40,
      "hit": false,
      "t": 123043.58899999916,
      "d": 217.3914999999979,
      "v": 100
    },
    {
      "midi": 40,
      "hit": false,
      "t": 123043.58899999925,
      "d": 108.69574999999895,
      "v": 100
    },
    {
      "midi": 35,
      "hit": false,
      "t": 123043.58899999925,
      "d": 217.3914999999979,
      "v": 100
    },
    {
      "midi": 59,
      "hit": false,
      "t": 123043.58899999925,
      "d": 434.7829999999958,
      "v": 100
    },
    {
      "midi": 77,
      "hit": false,
      "t": 123043.58899999938,
      "d": 217.3914999999979,
      "v": 100
    },
    {
      "midi": 48,
      "hit": false,
      "t": 123043.58899999951,
      "d": 217.3914999999979,
      "v": 100
    },
    {
      "midi": 46,
      "hit": false,
      "t": 123260.98049999916,
      "d": 217.3914999999979,
      "v": 100
    },
    {
      "midi": 57,
      "hit": false,
      "t": 123260.98049999916,
      "d": 217.3914999999979,
      "v": 100
    },
    {
      "midi": 35,
      "hit": false,
      "t": 123260.98049999925,
      "d": 108.69574999999895,
      "v": 100
    },
    {
      "midi": 72,
      "hit": false,
      "t": 123260.98049999938,
      "d": 217.3914999999979,
      "v": 100
    },
    {
      "midi": 36,
      "hit": false,
      "t": 123260.98049999951,
      "d": 217.3914999999979,
      "v": 100
    },
    {
      "midi": 42,
      "hit": false,
      "t": 123478.37199999916,
      "d": 217.3914999999979,
      "v": 100
    },
    {
      "midi": 35,
      "hit": false,
      "t": 123478.37199999925,
      "d": 217.3914999999979,
      "v": 100
    },
    {
      "midi": 42,
      "hit": false,
      "t": 123478.37199999925,
      "d": 217.3914999999979,
      "v": 100
    },
    {
      "midi": 59,
      "hit": false,
      "t": 123478.37199999925,
      "d": 434.7829999999958,
      "v": 100
    },
    {
      "midi": 79,
      "hit": false,
      "t": 123478.37199999938,
      "d": 217.3914999999979,
      "v": 100
    },
    {
      "midi": 36,
      "hit": false,
      "t": 123478.37199999951,
      "d": 434.7829999999958,
      "v": 100
    },
    {
      "midi": 46,
      "hit": false,
      "t": 123695.76349999916,
      "d": 217.3914999999979,
      "v": 100
    },
    {
      "midi": 42,
      "hit": false,
      "t": 123695.76349999924,
      "d": 108.69574999999895,
      "v": 100
    },
    {
      "midi": 72,
      "hit": false,
      "t": 123695.76349999938,
      "d": 217.3914999999979,
      "v": 100
    },
    {
      "midi": 42,
      "hit": false,
      "t": 123804.45924999924,
      "d": 108.69574999999895,
      "v": 100
    },
    {
      "midi": 42,
      "hit": false,
      "t": 123913.15499999915,
      "d": 217.3914999999979,
      "v": 100
    },
    {
      "midi": 40,
      "hit": false,
      "t": 123913.15499999915,
      "d": 217.3914999999979,
      "v": 100
    },
    {
      "midi": 40,
      "hit": false,
      "t": 123913.15499999924,
      "d": 108.69574999999895,
      "v": 100
    },
    {
      "midi": 42,
      "hit": false,
      "t": 123913.15499999924,
      "d": 217.3914999999979,
      "v": 100
    },
    {
      "midi": 35,
      "hit": false,
      "t": 123913.15499999924,
      "d": 217.3914999999979,
      "v": 100
    },
    {
      "midi": 59,
      "hit": false,
      "t": 123913.15499999924,
      "d": 434.7829999999958,
      "v": 100
    },
    {
      "midi": 77,
      "hit": false,
      "t": 123913.15499999937,
      "d": 217.3914999999979,
      "v": 100
    },
    {
      "midi": 48,
      "hit": false,
      "t": 123913.1549999995,
      "d": 217.3914999999979,
      "v": 100
    },
    {
      "midi": 46,
      "hit": false,
      "t": 124130.54649999915,
      "d": 217.3914999999979,
      "v": 100
    },
    {
      "midi": 42,
      "hit": false,
      "t": 124130.54649999924,
      "d": 108.69574999999895,
      "v": 100
    },
    {
      "midi": 72,
      "hit": false,
      "t": 124130.54649999937,
      "d": 217.3914999999979,
      "v": 100
    },
    {
      "midi": 36,
      "hit": false,
      "t": 124130.5464999995,
      "d": 217.3914999999979,
      "v": 100
    },
    {
      "midi": 42,
      "hit": false,
      "t": 124239.24224999924,
      "d": 108.69574999999895,
      "v": 100
    },
    {
      "midi": 40,
      "hit": false,
      "t": 124239.24224999924,
      "d": 108.69574999999895,
      "v": 100
    },
    {
      "midi": 42,
      "hit": false,
      "t": 124347.93799999915,
      "d": 217.3914999999979,
      "v": 100
    },
    {
      "midi": 42,
      "hit": false,
      "t": 124347.93799999924,
      "d": 217.3914999999979,
      "v": 100
    },
    {
      "midi": 35,
      "hit": false,
      "t": 124347.93799999924,
      "d": 217.3914999999979,
      "v": 100
    },
    {
      "midi": 59,
      "hit": false,
      "t": 124347.93799999924,
      "d": 434.7829999999958,
      "v": 100
    },
    {
      "midi": 82,
      "hit": false,
      "t": 124347.93799999937,
      "d": 217.3914999999979,
      "v": 100
    },
    {
      "midi": 36,
      "hit": false,
      "t": 124347.9379999995,
      "d": 108.69574999999895,
      "v": 100
    },
    {
      "midi": 40,
      "hit": false,
      "t": 124456.63374999924,
      "d": 108.69574999999895,
      "v": 100
    },
    {
      "midi": 36,
      "hit": false,
      "t": 124456.6337499995,
      "d": 108.69574999999895,
      "v": 100
    },
    {
      "midi": 46,
      "hit": false,
      "t": 124565.32949999915,
      "d": 217.3914999999979,
      "v": 100
    },
    {
      "midi": 46,
      "hit": false,
      "t": 124565.32949999924,
      "d": 217.3914999999979,
      "v": 100
    },
    {
      "midi": 72,
      "hit": false,
      "t": 124565.32949999937,
      "d": 217.3914999999979,
      "v": 100
    },
    {
      "midi": 36,
      "hit": false,
      "t": 124565.3294999995,
      "d": 217.3914999999979,
      "v": 100
    },
    {
      "midi": 42,
      "hit": false,
      "t": 124782.72099999915,
      "d": 217.3914999999979,
      "v": 100
    },
    {
      "midi": 40,
      "hit": false,
      "t": 124782.72099999915,
      "d": 217.3914999999979,
      "v": 100
    },
    {
      "midi": 40,
      "hit": false,
      "t": 124782.72099999923,
      "d": 108.69574999999895,
      "v": 100
    },
    {
      "midi": 35,
      "hit": false,
      "t": 124782.72099999923,
      "d": 217.3914999999979,
      "v": 100
    },
    {
      "midi": 59,
      "hit": false,
      "t": 124782.72099999923,
      "d": 434.7829999999958,
      "v": 100
    },
    {
      "midi": 79,
      "hit": false,
      "t": 124782.72099999936,
      "d": 217.3914999999979,
      "v": 100
    },
    {
      "midi": 48,
      "hit": false,
      "t": 124782.7209999995,
      "d": 217.3914999999979,
      "v": 100
    },
    {
      "midi": 46,
      "hit": false,
      "t": 125000.11249999914,
      "d": 217.3914999999979,
      "v": 100
    },
    {
      "midi": 57,
      "hit": false,
      "t": 125000.11249999914,
      "d": 217.3914999999979,
      "v": 100
    },
    {
      "midi": 40,
      "hit": false,
      "t": 125000.11249999923,
      "d": 108.69574999999895,
      "v": 100
    },
    {
      "midi": 72,
      "hit": false,
      "t": 125000.11249999936,
      "d": 217.3914999999979,
      "v": 100
    },
    {
      "midi": 36,
      "hit": false,
      "t": 125000.1124999995,
      "d": 217.3914999999979,
      "v": 100
    },
    {
      "midi": 40,
      "hit": false,
      "t": 125108.80824999923,
      "d": 108.69574999999895,
      "v": 100
    },
    {
      "midi": 42,
      "hit": false,
      "t": 125217.50399999914,
      "d": 217.3914999999979,
      "v": 100
    },
    {
      "midi": 42,
      "hit": false,
      "t": 125217.50399999923,
      "d": 217.3914999999979,
      "v": 100
    },
    {
      "midi": 35,
      "hit": false,
      "t": 125217.50399999923,
      "d": 217.3914999999979,
      "v": 100
    },
    {
      "midi": 59,
      "hit": false,
      "t": 125217.50399999923,
      "d": 434.7829999999958,
      "v": 100
    },
    {
      "midi": 79,
      "hit": false,
      "t": 125217.50399999936,
      "d": 217.3914999999979,
      "v": 100
    },
    {
      "midi": 36,
      "hit": false,
      "t": 125217.50399999949,
      "d": 434.7829999999958,
      "v": 100
    },
    {
      "midi": 36,
      "hit": false,
      "t": 125217.5039999995,
      "d": 3478.2639999999956,
      "v": 100
    },
    {
      "midi": 53,
      "hit": false,
      "t": 125217.50399999994,
      "d": 3478.2639999999956,
      "v": 100
    },
    {
      "midi": 60,
      "hit": false,
      "t": 125217.50399999994,
      "d": 3478.2639999999956,
      "v": 100
    },
    {
      "midi": 48,
      "hit": false,
      "t": 125217.50399999994,
      "d": 3478.2639999999956,
      "v": 100
    },
    {
      "midi": 55,
      "hit": false,
      "t": 125217.50399999994,
      "d": 3478.2639999999956,
      "v": 100
    },
    {
      "midi": 67,
      "hit": false,
      "t": 125217.50399999994,
      "d": 3478.2639999999956,
      "v": 100
    },
    {
      "midi": 53,
      "hit": false,
      "t": 125217.50399999994,
      "d": 3478.2639999999956,
      "v": 100
    },
    {
      "midi": 60,
      "hit": false,
      "t": 125217.50399999994,
      "d": 3478.2639999999956,
      "v": 100
    },
    {
      "midi": 48,
      "hit": false,
      "t": 125217.50399999994,
      "d": 3478.2639999999956,
      "v": 100
    },
    {
      "midi": 55,
      "hit": false,
      "t": 125217.50399999994,
      "d": 3478.2639999999956,
      "v": 100
    },
    {
      "midi": 67,
      "hit": false,
      "t": 125217.50399999994,
      "d": 3478.2639999999956,
      "v": 100
    },
    {
      "midi": 46,
      "hit": false,
      "t": 125434.89549999914,
      "d": 217.3914999999979,
      "v": 100
    },
    {
      "midi": 42,
      "hit": false,
      "t": 125434.89549999923,
      "d": 108.69574999999895,
      "v": 100
    },
    {
      "midi": 72,
      "hit": false,
      "t": 125434.89549999936,
      "d": 217.3914999999979,
      "v": 100
    },
    {
      "midi": 42,
      "hit": false,
      "t": 125543.59124999923,
      "d": 108.69574999999895,
      "v": 100
    },
    {
      "midi": 42,
      "hit": false,
      "t": 125652.28699999914,
      "d": 217.3914999999979,
      "v": 100
    },
    {
      "midi": 40,
      "hit": false,
      "t": 125652.28699999914,
      "d": 217.3914999999979,
      "v": 100
    },
    {
      "midi": 40,
      "hit": false,
      "t": 125652.28699999923,
      "d": 217.3914999999979,
      "v": 100
    },
    {
      "midi": 35,
      "hit": false,
      "t": 125652.28699999923,
      "d": 217.3914999999979,
      "v": 100
    },
    {
      "midi": 42,
      "hit": false,
      "t": 125652.28699999923,
      "d": 217.3914999999979,
      "v": 100
    },
    {
      "midi": 59,
      "hit": false,
      "t": 125652.28699999923,
      "d": 434.7829999999958,
      "v": 100
    },
    {
      "midi": 77,
      "hit": false,
      "t": 125652.28699999936,
      "d": 217.3914999999979,
      "v": 100
    },
    {
      "midi": 48,
      "hit": false,
      "t": 125652.28699999949,
      "d": 217.3914999999979,
      "v": 100
    },
    {
      "midi": 46,
      "hit": false,
      "t": 125869.67849999914,
      "d": 217.3914999999979,
      "v": 100
    },
    {
      "midi": 42,
      "hit": false,
      "t": 125869.67849999922,
      "d": 108.69574999999895,
      "v": 100
    },
    {
      "midi": 72,
      "hit": false,
      "t": 125869.67849999935,
      "d": 217.3914999999979,
      "v": 100
    },
    {
      "midi": 36,
      "hit": false,
      "t": 125869.67849999949,
      "d": 217.3914999999979,
      "v": 100
    },
    {
      "midi": 40,
      "hit": false,
      "t": 125978.37424999922,
      "d": 108.69574999999895,
      "v": 100
    },
    {
      "midi": 42,
      "hit": false,
      "t": 125978.37424999922,
      "d": 108.69574999999895,
      "v": 100
    },
    {
      "midi": 42,
      "hit": false,
      "t": 126087.06999999913,
      "d": 217.3914999999979,
      "v": 100
    },
    {
      "midi": 35,
      "hit": false,
      "t": 126087.06999999922,
      "d": 217.3914999999979,
      "v": 100
    },
    {
      "midi": 42,
      "hit": false,
      "t": 126087.06999999922,
      "d": 217.3914999999979,
      "v": 100
    },
    {
      "midi": 59,
      "hit": false,
      "t": 126087.06999999922,
      "d": 434.7829999999958,
      "v": 100
    },
    {
      "midi": 79,
      "hit": false,
      "t": 126087.06999999935,
      "d": 217.3914999999979,
      "v": 100
    },
    {
      "midi": 36,
      "hit": false,
      "t": 126087.06999999948,
      "d": 108.69574999999895,
      "v": 100
    },
    {
      "midi": 40,
      "hit": false,
      "t": 126195.76574999922,
      "d": 108.69574999999895,
      "v": 100
    },
    {
      "midi": 36,
      "hit": false,
      "t": 126195.76574999948,
      "d": 108.69574999999895,
      "v": 100
    },
    {
      "midi": 46,
      "hit": false,
      "t": 126304.46149999913,
      "d": 217.3914999999979,
      "v": 100
    },
    {
      "midi": 46,
      "hit": false,
      "t": 126304.46149999922,
      "d": 217.3914999999979,
      "v": 100
    },
    {
      "midi": 72,
      "hit": false,
      "t": 126304.46149999935,
      "d": 217.3914999999979,
      "v": 100
    },
    {
      "midi": 36,
      "hit": false,
      "t": 126304.46149999948,
      "d": 217.3914999999979,
      "v": 100
    },
    {
      "midi": 40,
      "hit": false,
      "t": 126521.85299999913,
      "d": 217.3914999999979,
      "v": 100
    },
    {
      "midi": 42,
      "hit": false,
      "t": 126521.85299999913,
      "d": 217.3914999999979,
      "v": 100
    },
    {
      "midi": 40,
      "hit": false,
      "t": 126521.85299999922,
      "d": 108.69574999999895,
      "v": 100
    },
    {
      "midi": 35,
      "hit": false,
      "t": 126521.85299999922,
      "d": 217.3914999999979,
      "v": 100
    },
    {
      "midi": 59,
      "hit": false,
      "t": 126521.85299999922,
      "d": 434.7829999999958,
      "v": 100
    },
    {
      "midi": 77,
      "hit": false,
      "t": 126521.85299999935,
      "d": 217.3914999999979,
      "v": 100
    },
    {
      "midi": 48,
      "hit": false,
      "t": 126521.85299999948,
      "d": 217.3914999999979,
      "v": 100
    },
    {
      "midi": 49,
      "hit": false,
      "t": 126739.24449999913,
      "d": 217.3914999999979,
      "v": 100
    },
    {
      "midi": 46,
      "hit": false,
      "t": 126739.24449999913,
      "d": 217.3914999999979,
      "v": 100
    },
    {
      "midi": 35,
      "hit": false,
      "t": 126739.24449999921,
      "d": 108.69574999999895,
      "v": 100
    },
    {
      "midi": 72,
      "hit": false,
      "t": 126739.24449999935,
      "d": 217.3914999999979,
      "v": 100
    },
    {
      "midi": 36,
      "hit": false,
      "t": 126739.24449999948,
      "d": 217.3914999999979,
      "v": 100
    },
    {
      "midi": 42,
      "hit": false,
      "t": 126956.63599999913,
      "d": 217.3914999999979,
      "v": 100
    },
    {
      "midi": 57,
      "hit": false,
      "t": 126956.63599999913,
      "d": 217.3914999999979,
      "v": 100
    },
    {
      "midi": 42,
      "hit": false,
      "t": 126956.63599999921,
      "d": 217.3914999999979,
      "v": 100
    },
    {
      "midi": 35,
      "hit": false,
      "t": 126956.63599999921,
      "d": 217.3914999999979,
      "v": 100
    },
    {
      "midi": 59,
      "hit": false,
      "t": 126956.63599999921,
      "d": 434.7829999999958,
      "v": 100
    },
    {
      "midi": 79,
      "hit": false,
      "t": 126956.63599999934,
      "d": 217.3914999999979,
      "v": 100
    },
    {
      "midi": 36,
      "hit": false,
      "t": 126956.63599999947,
      "d": 434.7829999999958,
      "v": 100
    },
    {
      "midi": 46,
      "hit": false,
      "t": 127174.02749999912,
      "d": 217.3914999999979,
      "v": 100
    },
    {
      "midi": 42,
      "hit": false,
      "t": 127174.02749999921,
      "d": 108.69574999999895,
      "v": 100
    },
    {
      "midi": 72,
      "hit": false,
      "t": 127174.02749999934,
      "d": 217.3914999999979,
      "v": 100
    },
    {
      "midi": 42,
      "hit": false,
      "t": 127282.72324999921,
      "d": 108.69574999999895,
      "v": 100
    },
    {
      "midi": 42,
      "hit": false,
      "t": 127391.41899999912,
      "d": 217.3914999999979,
      "v": 100
    },
    {
      "midi": 40,
      "hit": false,
      "t": 127391.41899999912,
      "d": 217.3914999999979,
      "v": 100
    },
    {
      "midi": 40,
      "hit": false,
      "t": 127391.41899999921,
      "d": 108.69574999999895,
      "v": 100
    },
    {
      "midi": 35,
      "hit": false,
      "t": 127391.41899999921,
      "d": 217.3914999999979,
      "v": 100
    },
    {
      "midi": 42,
      "hit": false,
      "t": 127391.41899999921,
      "d": 217.3914999999979,
      "v": 100
    },
    {
      "midi": 59,
      "hit": false,
      "t": 127391.41899999921,
      "d": 434.7829999999958,
      "v": 100
    },
    {
      "midi": 77,
      "hit": false,
      "t": 127391.41899999934,
      "d": 217.3914999999979,
      "v": 100
    },
    {
      "midi": 48,
      "hit": false,
      "t": 127391.41899999947,
      "d": 217.3914999999979,
      "v": 100
    },
    {
      "midi": 46,
      "hit": false,
      "t": 127608.81049999912,
      "d": 217.3914999999979,
      "v": 100
    },
    {
      "midi": 42,
      "hit": false,
      "t": 127608.8104999992,
      "d": 108.69574999999895,
      "v": 100
    },
    {
      "midi": 72,
      "hit": false,
      "t": 127608.81049999934,
      "d": 217.3914999999979,
      "v": 100
    },
    {
      "midi": 36,
      "hit": false,
      "t": 127608.81049999947,
      "d": 217.3914999999979,
      "v": 100
    },
    {
      "midi": 40,
      "hit": false,
      "t": 127717.5062499992,
      "d": 108.69574999999895,
      "v": 100
    },
    {
      "midi": 42,
      "hit": false,
      "t": 127717.5062499992,
      "d": 108.69574999999895,
      "v": 100
    },
    {
      "midi": 42,
      "hit": false,
      "t": 127826.20199999912,
      "d": 217.3914999999979,
      "v": 100
    },
    {
      "midi": 35,
      "hit": false,
      "t": 127826.2019999992,
      "d": 217.3914999999979,
      "v": 100
    },
    {
      "midi": 42,
      "hit": false,
      "t": 127826.2019999992,
      "d": 217.3914999999979,
      "v": 100
    },
    {
      "midi": 59,
      "hit": false,
      "t": 127826.2019999992,
      "d": 434.7829999999958,
      "v": 100
    },
    {
      "midi": 75,
      "hit": false,
      "t": 127826.20199999934,
      "d": 217.3914999999979,
      "v": 100
    },
    {
      "midi": 36,
      "hit": false,
      "t": 127826.20199999947,
      "d": 108.69574999999895,
      "v": 100
    },
    {
      "midi": 40,
      "hit": false,
      "t": 127934.8977499992,
      "d": 108.69574999999895,
      "v": 100
    },
    {
      "midi": 36,
      "hit": false,
      "t": 127934.89774999947,
      "d": 108.69574999999895,
      "v": 100
    },
    {
      "midi": 46,
      "hit": false,
      "t": 128043.59349999912,
      "d": 217.3914999999979,
      "v": 100
    },
    {
      "midi": 40,
      "hit": false,
      "t": 128043.5934999992,
      "d": 108.69574999999895,
      "v": 100
    },
    {
      "midi": 46,
      "hit": false,
      "t": 128043.5934999992,
      "d": 217.3914999999979,
      "v": 100
    },
    {
      "midi": 72,
      "hit": false,
      "t": 128043.59349999933,
      "d": 217.3914999999979,
      "v": 100
    },
    {
      "midi": 36,
      "hit": false,
      "t": 128043.59349999946,
      "d": 217.3914999999979,
      "v": 100
    },
    {
      "midi": 40,
      "hit": false,
      "t": 128260.98499999911,
      "d": 217.3914999999979,
      "v": 100
    },
    {
      "midi": 42,
      "hit": false,
      "t": 128260.98499999911,
      "d": 217.3914999999979,
      "v": 100
    },
    {
      "midi": 40,
      "hit": false,
      "t": 128260.9849999992,
      "d": 108.69574999999895,
      "v": 100
    },
    {
      "midi": 35,
      "hit": false,
      "t": 128260.9849999992,
      "d": 217.3914999999979,
      "v": 100
    },
    {
      "midi": 59,
      "hit": false,
      "t": 128260.9849999992,
      "d": 434.7829999999958,
      "v": 100
    },
    {
      "midi": 77,
      "hit": false,
      "t": 128260.98499999933,
      "d": 217.3914999999979,
      "v": 100
    },
    {
      "midi": 48,
      "hit": false,
      "t": 128260.98499999946,
      "d": 217.3914999999979,
      "v": 100
    },
    {
      "midi": 41,
      "hit": false,
      "t": 128260.98500000028,
      "d": 45.28989583333896,
      "v": 100
    },
    {
      "midi": 43,
      "hit": false,
      "t": 128369.68075000028,
      "d": 45.28989583333896,
      "v": 100
    },
    {
      "midi": 57,
      "hit": false,
      "t": 128478.37649999911,
      "d": 217.3914999999979,
      "v": 100
    },
    {
      "midi": 46,
      "hit": false,
      "t": 128478.37649999911,
      "d": 217.3914999999979,
      "v": 100
    },
    {
      "midi": 40,
      "hit": false,
      "t": 128478.3764999992,
      "d": 108.69574999999895,
      "v": 100
    },
    {
      "midi": 72,
      "hit": false,
      "t": 128478.37649999933,
      "d": 217.3914999999979,
      "v": 100
    },
    {
      "midi": 36,
      "hit": false,
      "t": 128478.37649999946,
      "d": 217.3914999999979,
      "v": 100
    },
    {
      "midi": 46,
      "hit": false,
      "t": 128478.37650000027,
      "d": 45.28989583333896,
      "v": 100
    },
    {
      "midi": 40,
      "hit": false,
      "t": 128587.0722499992,
      "d": 108.69574999999895,
      "v": 100
    },
    {
      "midi": 50,
      "hit": false,
      "t": 128587.07225000027,
      "d": 45.28989583333896,
      "v": 100
    },
    {
      "midi": 42,
      "hit": false,
      "t": 128695.76799999911,
      "d": 217.3914999999979,
      "v": 100
    },
    {
      "midi": 49,
      "hit": false,
      "t": 128695.76799999911,
      "d": 217.3914999999979,
      "v": 100
    },
    {
      "midi": 35,
      "hit": false,
      "t": 128695.7679999992,
      "d": 217.3914999999979,
      "v": 100
    },
    {
      "midi": 42,
      "hit": false,
      "t": 128695.7679999992,
      "d": 217.3914999999979,
      "v": 100
    },
    {
      "midi": 59,
      "hit": false,
      "t": 128695.7679999992,
      "d": 434.7829999999958,
      "v": 100
    },
    {
      "midi": 36,
      "hit": false,
      "t": 128695.76799999946,
      "d": 434.7829999999958,
      "v": 100
    },
    {
      "midi": 48,
      "hit": false,
      "t": 128695.7679999995,
      "d": 108.69574999999895,
      "v": 100
    },
    {
      "midi": 58,
      "hit": false,
      "t": 128695.76799999966,
      "d": 326.08724999999686,
      "v": 100
    },
    {
      "midi": 55,
      "hit": false,
      "t": 128695.76799999966,
      "d": 326.08724999999686,
      "v": 100
    },
    {
      "midi": 62,
      "hit": false,
      "t": 128695.76799999966,
      "d": 326.08724999999686,
      "v": 100
    },
    {
      "midi": 65,
      "hit": false,
      "t": 128695.76799999966,
      "d": 326.08724999999686,
      "v": 100
    },
    {
      "midi": 55,
      "hit": false,
      "t": 128695.76799999966,
      "d": 326.08724999999686,
      "v": 100
    },
    {
      "midi": 58,
      "hit": false,
      "t": 128695.76799999966,
      "d": 326.08724999999686,
      "v": 100
    },
    {
      "midi": 65,
      "hit": false,
      "t": 128695.76799999966,
      "d": 326.08724999999686,
      "v": 100
    },
    {
      "midi": 62,
      "hit": false,
      "t": 128695.76799999966,
      "d": 326.08724999999686,
      "v": 100
    },
    {
      "midi": 48,
      "hit": false,
      "t": 128695.76799999994,
      "d": 3478.26400000001,
      "v": 100
    },
    {
      "midi": 58,
      "hit": false,
      "t": 128695.76799999994,
      "d": 3478.26400000001,
      "v": 100
    },
    {
      "midi": 65,
      "hit": false,
      "t": 128695.76799999994,
      "d": 3478.26400000001,
      "v": 100
    },
    {
      "midi": 62,
      "hit": false,
      "t": 128695.76799999994,
      "d": 3478.26400000001,
      "v": 100
    },
    {
      "midi": 55,
      "hit": false,
      "t": 128695.76799999994,
      "d": 3478.26400000001,
      "v": 100
    },
    {
      "midi": 65,
      "hit": false,
      "t": 128695.76799999994,
      "d": 3478.26400000001,
      "v": 100
    },
    {
      "midi": 58,
      "hit": false,
      "t": 128695.76799999994,
      "d": 3478.26400000001,
      "v": 100
    },
    {
      "midi": 48,
      "hit": false,
      "t": 128695.76799999994,
      "d": 3478.26400000001,
      "v": 100
    },
    {
      "midi": 55,
      "hit": false,
      "t": 128695.76799999994,
      "d": 3478.26400000001,
      "v": 100
    },
    {
      "midi": 62,
      "hit": false,
      "t": 128695.76799999994,
      "d": 3478.26400000001,
      "v": 100
    },
    {
      "midi": 65,
      "hit": false,
      "t": 128695.76799999998,
      "d": 3478.2639999999956,
      "v": 100
    },
    {
      "midi": 36,
      "hit": false,
      "t": 128695.76800000027,
      "d": 45.28989583333896,
      "v": 100
    },
    {
      "midi": 48,
      "hit": false,
      "t": 128804.4637499995,
      "d": 108.69574999999895,
      "v": 100
    },
    {
      "midi": 46,
      "hit": false,
      "t": 128913.1594999991,
      "d": 217.3914999999979,
      "v": 100
    },
    {
      "midi": 42,
      "hit": false,
      "t": 128913.1594999992,
      "d": 108.69574999999895,
      "v": 100
    },
    {
      "midi": 48,
      "hit": false,
      "t": 128913.1594999995,
      "d": 108.69574999999895,
      "v": 100
    },
    {
      "midi": 36,
      "hit": false,
      "t": 128913.15950000029,
      "d": 45.28989583333896,
      "v": 100
    },
    {
      "midi": 42,
      "hit": false,
      "t": 129021.8552499992,
      "d": 108.69574999999895,
      "v": 100
    },
    {
      "midi": 51,
      "hit": false,
      "t": 129021.8552499995,
      "d": 217.3914999999979,
      "v": 100
    },
    {
      "midi": 62,
      "hit": false,
      "t": 129021.85524999966,
      "d": 326.08724999999686,
      "v": 100
    },
    {
      "midi": 55,
      "hit": false,
      "t": 129021.85524999966,
      "d": 326.08724999999686,
      "v": 100
    },
    {
      "midi": 65,
      "hit": false,
      "t": 129021.85524999966,
      "d": 326.08724999999686,
      "v": 100
    },
    {
      "midi": 58,
      "hit": false,
      "t": 129021.85524999966,
      "d": 326.08724999999686,
      "v": 100
    },
    {
      "midi": 55,
      "hit": false,
      "t": 129021.85524999966,
      "d": 326.08724999999686,
      "v": 100
    },
    {
      "midi": 62,
      "hit": false,
      "t": 129021.85524999966,
      "d": 326.08724999999686,
      "v": 100
    },
    {
      "midi": 58,
      "hit": false,
      "t": 129021.85524999966,
      "d": 326.08724999999686,
      "v": 100
    },
    {
      "midi": 65,
      "hit": false,
      "t": 129021.85524999966,
      "d": 326.08724999999686,
      "v": 100
    },
    {
      "midi": 42,
      "hit": false,
      "t": 129130.5509999991,
      "d": 217.3914999999979,
      "v": 100
    },
    {
      "midi": 40,
      "hit": false,
      "t": 129130.5509999991,
      "d": 217.3914999999979,
      "v": 100
    },
    {
      "midi": 35,
      "hit": false,
      "t": 129130.55099999919,
      "d": 217.3914999999979,
      "v": 100
    },
    {
      "midi": 40,
      "hit": false,
      "t": 129130.55099999919,
      "d": 217.3914999999979,
      "v": 100
    },
    {
      "midi": 42,
      "hit": false,
      "t": 129130.55099999919,
      "d": 217.3914999999979,
      "v": 100
    },
    {
      "midi": 59,
      "hit": false,
      "t": 129130.55099999919,
      "d": 434.7829999999958,
      "v": 100
    },
    {
      "midi": 84,
      "hit": false,
      "t": 129130.55099999932,
      "d": 217.3914999999979,
      "v": 100
    },
    {
      "midi": 48,
      "hit": false,
      "t": 129130.55099999945,
      "d": 217.3914999999979,
      "v": 100
    },
    {
      "midi": 36,
      "hit": false,
      "t": 129130.5510000003,
      "d": 45.28989583333896,
      "v": 100
    },
    {
      "midi": 48,
      "hit": false,
      "t": 129239.2467499995,
      "d": 108.69574999999895,
      "v": 100
    },
    {
      "midi": 48,
      "hit": false,
      "t": 129239.2467500003,
      "d": 45.28989583333896,
      "v": 100
    },
    {
      "midi": 46,
      "hit": false,
      "t": 129347.9424999991,
      "d": 217.3914999999979,
      "v": 100
    },
    {
      "midi": 42,
      "hit": false,
      "t": 129347.94249999919,
      "d": 108.69574999999895,
      "v": 100
    },
    {
      "midi": 36,
      "hit": false,
      "t": 129347.94249999945,
      "d": 217.3914999999979,
      "v": 100
    },
    {
      "midi": 48,
      "hit": false,
      "t": 129347.9424999995,
      "d": 108.69574999999895,
      "v": 100
    },
    {
      "midi": 62,
      "hit": false,
      "t": 129347.94249999966,
      "d": 326.08724999999686,
      "v": 100
    },
    {
      "midi": 55,
      "hit": false,
      "t": 129347.94249999966,
      "d": 326.08724999999686,
      "v": 100
    },
    {
      "midi": 58,
      "hit": false,
      "t": 129347.94249999966,
      "d": 326.08724999999686,
      "v": 100
    },
    {
      "midi": 65,
      "hit": false,
      "t": 129347.94249999966,
      "d": 326.08724999999686,
      "v": 100
    },
    {
      "midi": 55,
      "hit": false,
      "t": 129347.94249999966,
      "d": 326.08724999999686,
      "v": 100
    },
    {
      "midi": 62,
      "hit": false,
      "t": 129347.94249999966,
      "d": 326.08724999999686,
      "v": 100
    },
    {
      "midi": 65,
      "hit": false,
      "t": 129347.94249999966,
      "d": 326.08724999999686,
      "v": 100
    },
    {
      "midi": 58,
      "hit": false,
      "t": 129347.94249999966,
      "d": 326.08724999999686,
      "v": 100
    },
    {
      "midi": 42,
      "hit": false,
      "t": 129456.63824999919,
      "d": 108.69574999999895,
      "v": 100
    },
    {
      "midi": 40,
      "hit": false,
      "t": 129456.63824999919,
      "d": 108.69574999999895,
      "v": 100
    },
    {
      "midi": 48,
      "hit": false,
      "t": 129456.6382499995,
      "d": 108.69574999999895,
      "v": 100
    },
    {
      "midi": 43,
      "hit": false,
      "t": 129456.63825000031,
      "d": 45.28989583333896,
      "v": 100
    },
    {
      "midi": 42,
      "hit": false,
      "t": 129565.3339999991,
      "d": 217.3914999999979,
      "v": 100
    },
    {
      "midi": 42,
      "hit": false,
      "t": 129565.33399999919,
      "d": 217.3914999999979,
      "v": 100
    },
    {
      "midi": 35,
      "hit": false,
      "t": 129565.33399999919,
      "d": 217.3914999999979,
      "v": 100
    },
    {
      "midi": 59,
      "hit": false,
      "t": 129565.33399999919,
      "d": 434.7829999999958,
      "v": 100
    },
    {
      "midi": 36,
      "hit": false,
      "t": 129565.33399999945,
      "d": 108.69574999999895,
      "v": 100
    },
    {
      "midi": 51,
      "hit": false,
      "t": 129565.3339999995,
      "d": 217.3914999999979,
      "v": 100
    },
    {
      "midi": 40,
      "hit": false,
      "t": 129674.02974999919,
      "d": 108.69574999999895,
      "v": 100
    },
    {
      "midi": 36,
      "hit": false,
      "t": 129674.02974999945,
      "d": 108.69574999999895,
      "v": 100
    },
    {
      "midi": 62,
      "hit": false,
      "t": 129674.02974999965,
      "d": 326.08724999999686,
      "v": 100
    },
    {
      "midi": 55,
      "hit": false,
      "t": 129674.02974999965,
      "d": 326.08724999999686,
      "v": 100
    },
    {
      "midi": 58,
      "hit": false,
      "t": 129674.02974999965,
      "d": 326.08724999999686,
      "v": 100
    },
    {
      "midi": 65,
      "hit": false,
      "t": 129674.02974999965,
      "d": 326.08724999999686,
      "v": 100
    },
    {
      "midi": 55,
      "hit": false,
      "t": 129674.02974999965,
      "d": 326.08724999999686,
      "v": 100
    },
    {
      "midi": 62,
      "hit": false,
      "t": 129674.02974999965,
      "d": 326.08724999999686,
      "v": 100
    },
    {
      "midi": 65,
      "hit": false,
      "t": 129674.02974999965,
      "d": 326.08724999999686,
      "v": 100
    },
    {
      "midi": 58,
      "hit": false,
      "t": 129674.02974999965,
      "d": 326.08724999999686,
      "v": 100
    },
    {
      "midi": 41,
      "hit": false,
      "t": 129674.02975000032,
      "d": 45.28989583333896,
      "v": 100
    },
    {
      "midi": 46,
      "hit": false,
      "t": 129782.7254999991,
      "d": 217.3914999999979,
      "v": 100
    },
    {
      "midi": 46,
      "hit": false,
      "t": 129782.72549999919,
      "d": 217.3914999999979,
      "v": 100
    },
    {
      "midi": 36,
      "hit": false,
      "t": 129782.72549999945,
      "d": 217.3914999999979,
      "v": 100
    },
    {
      "midi": 48,
      "hit": false,
      "t": 129782.72549999949,
      "d": 108.69574999999895,
      "v": 100
    },
    {
      "midi": 41,
      "hit": false,
      "t": 129782.72550000032,
      "d": 86.05080208333675,
      "v": 100
    },
    {
      "midi": 48,
      "hit": false,
      "t": 129891.42124999949,
      "d": 108.69574999999895,
      "v": 100
    },
    {
      "midi": 42,
      "hit": false,
      "t": 130000.1169999991,
      "d": 217.3914999999979,
      "v": 100
    },
    {
      "midi": 40,
      "hit": false,
      "t": 130000.1169999991,
      "d": 217.3914999999979,
      "v": 100
    },
    {
      "midi": 40,
      "hit": false,
      "t": 130000.11699999918,
      "d": 108.69574999999895,
      "v": 100
    },
    {
      "midi": 35,
      "hit": false,
      "t": 130000.11699999918,
      "d": 217.3914999999979,
      "v": 100
    },
    {
      "midi": 59,
      "hit": false,
      "t": 130000.11699999918,
      "d": 434.7829999999958,
      "v": 100
    },
    {
      "midi": 84,
      "hit": false,
      "t": 130000.11699999931,
      "d": 217.3914999999979,
      "v": 100
    },
    {
      "midi": 48,
      "hit": false,
      "t": 130000.11699999945,
      "d": 217.3914999999979,
      "v": 100
    },
    {
      "midi": 53,
      "hit": false,
      "t": 130000.11699999949,
      "d": 108.69574999999895,
      "v": 100
    },
    {
      "midi": 43,
      "hit": false,
      "t": 130000.11700000032,
      "d": 45.28989583333896,
      "v": 100
    },
    {
      "midi": 48,
      "hit": false,
      "t": 130108.81274999949,
      "d": 108.69574999999895,
      "v": 100
    },
    {
      "midi": 62,
      "hit": false,
      "t": 130108.81274999965,
      "d": 108.69574999999895,
      "v": 100
    },
    {
      "midi": 58,
      "hit": false,
      "t": 130108.81274999965,
      "d": 108.69574999999895,
      "v": 100
    },
    {
      "midi": 65,
      "hit": false,
      "t": 130108.81274999965,
      "d": 108.69574999999895,
      "v": 100
    },
    {
      "midi": 55,
      "hit": false,
      "t": 130108.81274999965,
      "d": 108.69574999999895,
      "v": 100
    },
    {
      "midi": 58,
      "hit": false,
      "t": 130108.81274999965,
      "d": 108.69574999999895,
      "v": 100
    },
    {
      "midi": 62,
      "hit": false,
      "t": 130108.81274999965,
      "d": 108.69574999999895,
      "v": 100
    },
    {
      "midi": 55,
      "hit": false,
      "t": 130108.81274999965,
      "d": 108.69574999999895,
      "v": 100
    },
    {
      "midi": 65,
      "hit": false,
      "t": 130108.81274999965,
      "d": 108.69574999999895,
      "v": 100
    },
    {
      "midi": 45,
      "hit": false,
      "t": 130108.81275000032,
      "d": 45.28989583333896,
      "v": 100
    },
    {
      "midi": 46,
      "hit": false,
      "t": 130217.5084999991,
      "d": 217.3914999999979,
      "v": 100
    },
    {
      "midi": 49,
      "hit": false,
      "t": 130217.5084999991,
      "d": 217.3914999999979,
      "v": 100
    },
    {
      "midi": 35,
      "hit": false,
      "t": 130217.50849999918,
      "d": 108.69574999999895,
      "v": 100
    },
    {
      "midi": 36,
      "hit": false,
      "t": 130217.50849999944,
      "d": 217.3914999999979,
      "v": 100
    },
    {
      "midi": 55,
      "hit": false,
      "t": 130217.50849999949,
      "d": 108.69574999999895,
      "v": 100
    },
    {
      "midi": 46,
      "hit": false,
      "t": 130217.50850000032,
      "d": 45.28989583333896,
      "v": 100
    },
    {
      "midi": 48,
      "hit": false,
      "t": 130326.20424999949,
      "d": 108.69574999999895,
      "v": 100
    },
    {
      "midi": 50,
      "hit": false,
      "t": 130326.20425000032,
      "d": 45.28989583333896,
      "v": 100
    },
    {
      "midi": 42,
      "hit": false,
      "t": 130434.89999999909,
      "d": 217.3914999999979,
      "v": 100
    },
    {
      "midi": 42,
      "hit": false,
      "t": 130434.89999999918,
      "d": 217.3914999999979,
      "v": 100
    },
    {
      "midi": 35,
      "hit": false,
      "t": 130434.89999999918,
      "d": 217.3914999999979,
      "v": 100
    },
    {
      "midi": 59,
      "hit": false,
      "t": 130434.89999999918,
      "d": 434.7829999999958,
      "v": 100
    },
    {
      "midi": 36,
      "hit": false,
      "t": 130434.89999999944,
      "d": 434.7829999999958,
      "v": 100
    },
    {
      "midi": 48,
      "hit": false,
      "t": 130434.89999999948,
      "d": 108.69574999999895,
      "v": 100
    },
    {
      "midi": 36,
      "hit": false,
      "t": 130434.90000000031,
      "d": 45.28989583333896,
      "v": 100
    },
    {
      "midi": 48,
      "hit": false,
      "t": 130543.59574999948,
      "d": 108.69574999999895,
      "v": 100
    },
    {
      "midi": 36,
      "hit": false,
      "t": 130543.59575000031,
      "d": 45.28989583333896,
      "v": 100
    },
    {
      "midi": 46,
      "hit": false,
      "t": 130652.29149999909,
      "d": 217.3914999999979,
      "v": 100
    },
    {
      "midi": 42,
      "hit": false,
      "t": 130652.29149999918,
      "d": 108.69574999999895,
      "v": 100
    },
    {
      "midi": 48,
      "hit": false,
      "t": 130652.29149999948,
      "d": 108.69574999999895,
      "v": 100
    },
    {
      "midi": 36,
      "hit": false,
      "t": 130652.29150000031,
      "d": 86.05080208333675,
      "v": 100
    },
    {
      "midi": 42,
      "hit": false,
      "t": 130760.98724999918,
      "d": 108.69574999999895,
      "v": 100
    },
    {
      "midi": 51,
      "hit": false,
      "t": 130760.98724999948,
      "d": 217.3914999999979,
      "v": 100
    },
    {
      "midi": 55,
      "hit": false,
      "t": 130760.98724999964,
      "d": 326.08724999999686,
      "v": 100
    },
    {
      "midi": 62,
      "hit": false,
      "t": 130760.98724999964,
      "d": 326.08724999999686,
      "v": 100
    },
    {
      "midi": 58,
      "hit": false,
      "t": 130760.98724999964,
      "d": 326.08724999999686,
      "v": 100
    },
    {
      "midi": 65,
      "hit": false,
      "t": 130760.98724999964,
      "d": 326.08724999999686,
      "v": 100
    },
    {
      "midi": 62,
      "hit": false,
      "t": 130760.98724999964,
      "d": 326.08724999999686,
      "v": 100
    },
    {
      "midi": 55,
      "hit": false,
      "t": 130760.98724999964,
      "d": 326.08724999999686,
      "v": 100
    },
    {
      "midi": 65,
      "hit": false,
      "t": 130760.98724999964,
      "d": 326.08724999999686,
      "v": 100
    },
    {
      "midi": 58,
      "hit": false,
      "t": 130760.98724999964,
      "d": 326.08724999999686,
      "v": 100
    },
    {
      "midi": 40,
      "hit": false,
      "t": 130869.68299999909,
      "d": 217.3914999999979,
      "v": 100
    },
    {
      "midi": 42,
      "hit": false,
      "t": 130869.68299999909,
      "d": 217.3914999999979,
      "v": 100
    },
    {
      "midi": 40,
      "hit": false,
      "t": 130869.68299999918,
      "d": 108.69574999999895,
      "v": 100
    },
    {
      "midi": 35,
      "hit": false,
      "t": 130869.68299999918,
      "d": 217.3914999999979,
      "v": 100
    },
    {
      "midi": 42,
      "hit": false,
      "t": 130869.68299999918,
      "d": 217.3914999999979,
      "v": 100
    },
    {
      "midi": 59,
      "hit": false,
      "t": 130869.68299999918,
      "d": 434.7830000000249,
      "v": 100
    },
    {
      "midi": 84,
      "hit": false,
      "t": 130869.6829999993,
      "d": 217.39150000001246,
      "v": 100
    },
    {
      "midi": 48,
      "hit": false,
      "t": 130869.68299999944,
      "d": 217.3914999999979,
      "v": 100
    },
    {
      "midi": 36,
      "hit": false,
      "t": 130869.68300000031,
      "d": 45.28989583333896,
      "v": 100
    },
    {
      "midi": 48,
      "hit": false,
      "t": 130978.37874999948,
      "d": 108.6957500000135,
      "v": 100
    },
    {
      "midi": 48,
      "hit": false,
      "t": 130978.37875000031,
      "d": 45.28989583333896,
      "v": 100
    },
    {
      "midi": 46,
      "hit": false,
      "t": 131087.0744999991,
      "d": 217.3914999999979,
      "v": 100
    },
    {
      "midi": 42,
      "hit": false,
      "t": 131087.07449999917,
      "d": 108.6957500000135,
      "v": 100
    },
    {
      "midi": 36,
      "hit": false,
      "t": 131087.07449999943,
      "d": 217.3914999999979,
      "v": 100
    },
    {
      "midi": 48,
      "hit": false,
      "t": 131087.0744999995,
      "d": 108.6957500000135,
      "v": 100
    },
    {
      "midi": 55,
      "hit": false,
      "t": 131087.07449999964,
      "d": 326.0872500000114,
      "v": 100
    },
    {
      "midi": 62,
      "hit": false,
      "t": 131087.07449999964,
      "d": 326.0872500000114,
      "v": 100
    },
    {
      "midi": 65,
      "hit": false,
      "t": 131087.07449999964,
      "d": 326.0872500000114,
      "v": 100
    },
    {
      "midi": 58,
      "hit": false,
      "t": 131087.07449999964,
      "d": 326.0872500000114,
      "v": 100
    },
    {
      "midi": 62,
      "hit": false,
      "t": 131087.07449999964,
      "d": 326.0872500000114,
      "v": 100
    },
    {
      "midi": 55,
      "hit": false,
      "t": 131087.07449999964,
      "d": 326.0872500000114,
      "v": 100
    },
    {
      "midi": 58,
      "hit": false,
      "t": 131087.07449999964,
      "d": 326.0872500000114,
      "v": 100
    },
    {
      "midi": 65,
      "hit": false,
      "t": 131087.07449999964,
      "d": 326.0872500000114,
      "v": 100
    },
    {
      "midi": 40,
      "hit": false,
      "t": 131195.7702499992,
      "d": 108.6957500000135,
      "v": 100
    },
    {
      "midi": 42,
      "hit": false,
      "t": 131195.7702499992,
      "d": 108.6957500000135,
      "v": 100
    },
    {
      "midi": 48,
      "hit": false,
      "t": 131195.7702499995,
      "d": 108.6957500000135,
      "v": 100
    },
    {
      "midi": 43,
      "hit": false,
      "t": 131195.77025000032,
      "d": 45.28989583332441,
      "v": 100
    },
    {
      "midi": 42,
      "hit": false,
      "t": 131304.46599999908,
      "d": 217.3914999999979,
      "v": 100
    },
    {
      "midi": 35,
      "hit": false,
      "t": 131304.4659999992,
      "d": 217.391500000027,
      "v": 100
    },
    {
      "midi": 42,
      "hit": false,
      "t": 131304.4659999992,
      "d": 217.391500000027,
      "v": 100
    },
    {
      "midi": 59,
      "hit": false,
      "t": 131304.4659999992,
      "d": 434.7830000000249,
      "v": 100
    },
    {
      "midi": 36,
      "hit": false,
      "t": 131304.46599999943,
      "d": 108.6957500000135,
      "v": 100
    },
    {
      "midi": 51,
      "hit": false,
      "t": 131304.46599999952,
      "d": 217.3914999999979,
      "v": 100
    },
    {
      "midi": 40,
      "hit": false,
      "t": 131413.1617499992,
      "d": 108.6957500000135,
      "v": 100
    },
    {
      "midi": 36,
      "hit": false,
      "t": 131413.16174999945,
      "d": 108.6957500000135,
      "v": 100
    },
    {
      "midi": 55,
      "hit": false,
      "t": 131413.16174999965,
      "d": 326.0872500000114,
      "v": 100
    },
    {
      "midi": 62,
      "hit": false,
      "t": 131413.16174999965,
      "d": 326.0872500000114,
      "v": 100
    },
    {
      "midi": 65,
      "hit": false,
      "t": 131413.16174999965,
      "d": 326.0872500000114,
      "v": 100
    },
    {
      "midi": 58,
      "hit": false,
      "t": 131413.16174999965,
      "d": 326.0872500000114,
      "v": 100
    },
    {
      "midi": 62,
      "hit": false,
      "t": 131413.16174999965,
      "d": 326.0872500000114,
      "v": 100
    },
    {
      "midi": 55,
      "hit": false,
      "t": 131413.16174999965,
      "d": 326.0872500000114,
      "v": 100
    },
    {
      "midi": 58,
      "hit": false,
      "t": 131413.16174999965,
      "d": 326.0872500000114,
      "v": 100
    },
    {
      "midi": 65,
      "hit": false,
      "t": 131413.16174999965,
      "d": 326.0872500000114,
      "v": 100
    },
    {
      "midi": 41,
      "hit": false,
      "t": 131413.16175000032,
      "d": 45.28989583332441,
      "v": 100
    },
    {
      "midi": 46,
      "hit": false,
      "t": 131521.85749999908,
      "d": 217.3914999999979,
      "v": 100
    },
    {
      "midi": 46,
      "hit": false,
      "t": 131521.85749999923,
      "d": 217.3914999999979,
      "v": 100
    },
    {
      "midi": 36,
      "hit": false,
      "t": 131521.85749999946,
      "d": 217.3914999999979,
      "v": 100
    },
    {
      "midi": 48,
      "hit": false,
      "t": 131521.85749999952,
      "d": 108.6957500000135,
      "v": 100
    },
    {
      "midi": 41,
      "hit": false,
      "t": 131521.8575000003,
      "d": 86.05080208333675,
      "v": 100
    },
    {
      "midi": 48,
      "hit": false,
      "t": 131630.55324999953,
      "d": 108.6957500000135,
      "v": 100
    },
    {
      "midi": 40,
      "hit": false,
      "t": 131739.24899999908,
      "d": 217.3914999999979,
      "v": 100
    },
    {
      "midi": 42,
      "hit": false,
      "t": 131739.24899999908,
      "d": 217.3914999999979,
      "v": 100
    },
    {
      "midi": 40,
      "hit": false,
      "t": 131739.24899999922,
      "d": 108.6957500000135,
      "v": 100
    },
    {
      "midi": 35,
      "hit": false,
      "t": 131739.24899999922,
      "d": 217.391500000027,
      "v": 100
    },
    {
      "midi": 59,
      "hit": false,
      "t": 131739.24899999922,
      "d": 434.783000000054,
      "v": 100
    },
    {
      "midi": 84,
      "hit": false,
      "t": 131739.2489999993,
      "d": 217.3914999999979,
      "v": 100
    },
    {
      "midi": 48,
      "hit": false,
      "t": 131739.24899999946,
      "d": 217.3914999999979,
      "v": 100
    },
    {
      "midi": 53,
      "hit": false,
      "t": 131739.24899999955,
      "d": 108.6957500000135,
      "v": 100
    },
    {
      "midi": 43,
      "hit": false,
      "t": 131739.2490000003,
      "d": 45.28989583332441,
      "v": 100
    },
    {
      "midi": 48,
      "hit": false,
      "t": 131847.94474999956,
      "d": 108.6957500000135,
      "v": 100
    },
    {
      "midi": 58,
      "hit": false,
      "t": 131847.94474999967,
      "d": 108.6957500000135,
      "v": 100
    },
    {
      "midi": 62,
      "hit": false,
      "t": 131847.94474999967,
      "d": 108.6957500000135,
      "v": 100
    },
    {
      "midi": 55,
      "hit": false,
      "t": 131847.94474999967,
      "d": 108.6957500000135,
      "v": 100
    },
    {
      "midi": 65,
      "hit": false,
      "t": 131847.94474999967,
      "d": 108.6957500000135,
      "v": 100
    },
    {
      "midi": 62,
      "hit": false,
      "t": 131847.94474999967,
      "d": 108.6957500000135,
      "v": 100
    },
    {
      "midi": 58,
      "hit": false,
      "t": 131847.94474999967,
      "d": 108.6957500000135,
      "v": 100
    },
    {
      "midi": 65,
      "hit": false,
      "t": 131847.94474999967,
      "d": 108.6957500000135,
      "v": 100
    },
    {
      "midi": 55,
      "hit": false,
      "t": 131847.94474999967,
      "d": 108.6957500000135,
      "v": 100
    },
    {
      "midi": 45,
      "hit": false,
      "t": 131847.9447500003,
      "d": 45.28989583332441,
      "v": 100
    },
    {
      "midi": 57,
      "hit": false,
      "t": 131956.64049999908,
      "d": 217.3914999999979,
      "v": 100
    },
    {
      "midi": 46,
      "hit": false,
      "t": 131956.64049999908,
      "d": 217.3914999999979,
      "v": 100
    },
    {
      "midi": 40,
      "hit": false,
      "t": 131956.64049999925,
      "d": 108.6957500000135,
      "v": 100
    },
    {
      "midi": 36,
      "hit": false,
      "t": 131956.64049999946,
      "d": 217.3914999999979,
      "v": 100
    },
    {
      "midi": 55,
      "hit": false,
      "t": 131956.64049999957,
      "d": 108.6957500000135,
      "v": 100
    },
    {
      "midi": 46,
      "hit": false,
      "t": 131956.64050000027,
      "d": 45.28989583332441,
      "v": 100
    },
    {
      "midi": 40,
      "hit": false,
      "t": 132065.33624999927,
      "d": 108.6957500000135,
      "v": 100
    },
    {
      "midi": 48,
      "hit": false,
      "t": 132065.3362499996,
      "d": 108.6957500000135,
      "v": 100
    },
    {
      "midi": 50,
      "hit": false,
      "t": 132065.33625000025,
      "d": 45.28989583332441,
      "v": 100
    },
    {
      "midi": 42,
      "hit": false,
      "t": 132174.03199999908,
      "d": 217.3914999999979,
      "v": 100
    },
    {
      "midi": 49,
      "hit": false,
      "t": 132174.03199999908,
      "d": 217.3914999999979,
      "v": 100
    },
    {
      "midi": 35,
      "hit": false,
      "t": 132174.03199999928,
      "d": 217.3914999999979,
      "v": 100
    },
    {
      "midi": 42,
      "hit": false,
      "t": 132174.03199999928,
      "d": 217.3914999999979,
      "v": 100
    },
    {
      "midi": 59,
      "hit": false,
      "t": 132174.03199999928,
      "d": 434.7830000000249,
      "v": 100
    },
    {
      "midi": 36,
      "hit": false,
      "t": 132174.03199999945,
      "d": 434.7829999999958,
      "v": 100
    },
    {
      "midi": 48,
      "hit": false,
      "t": 132174.0319999996,
      "d": 108.6957500000135,
      "v": 100
    },
    {
      "midi": 56,
      "hit": false,
      "t": 132174.0319999997,
      "d": 326.0872500000114,
      "v": 100
    },
    {
      "midi": 60,
      "hit": false,
      "t": 132174.0319999997,
      "d": 326.0872500000114,
      "v": 100
    },
    {
      "midi": 63,
      "hit": false,
      "t": 132174.0319999997,
      "d": 326.0872500000114,
      "v": 100
    },
    {
      "midi": 63,
      "hit": false,
      "t": 132174.0319999997,
      "d": 326.0872500000114,
      "v": 100
    },
    {
      "midi": 60,
      "hit": false,
      "t": 132174.0319999997,
      "d": 326.0872500000114,
      "v": 100
    },
    {
      "midi": 56,
      "hit": false,
      "t": 132174.0319999997,
      "d": 326.0872500000114,
      "v": 100
    },
    {
      "midi": 53,
      "hit": false,
      "t": 132174.03199999995,
      "d": 3478.2639999999956,
      "v": 100
    },
    {
      "midi": 63,
      "hit": false,
      "t": 132174.03199999995,
      "d": 3478.2639999999956,
      "v": 100
    },
    {
      "midi": 56,
      "hit": false,
      "t": 132174.03199999995,
      "d": 3478.2639999999956,
      "v": 100
    },
    {
      "midi": 51,
      "hit": false,
      "t": 132174.03199999995,
      "d": 3478.2639999999956,
      "v": 100
    },
    {
      "midi": 68,
      "hit": false,
      "t": 132174.03199999995,
      "d": 3478.2639999999956,
      "v": 100
    },
    {
      "midi": 56,
      "hit": false,
      "t": 132174.03199999995,
      "d": 3478.2639999999956,
      "v": 100
    },
    {
      "midi": 63,
      "hit": false,
      "t": 132174.03199999995,
      "d": 3478.2639999999956,
      "v": 100
    },
    {
      "midi": 53,
      "hit": false,
      "t": 132174.03199999995,
      "d": 3478.2639999999956,
      "v": 100
    },
    {
      "midi": 68,
      "hit": false,
      "t": 132174.03199999995,
      "d": 3478.2639999999956,
      "v": 100
    },
    {
      "midi": 51,
      "hit": false,
      "t": 132174.03199999995,
      "d": 3478.2639999999956,
      "v": 100
    },
    {
      "midi": 67,
      "hit": false,
      "t": 132174.03199999998,
      "d": 3478.2639999999956,
      "v": 100
    },
    {
      "midi": 60,
      "hit": false,
      "t": 132174.03199999998,
      "d": 3478.2639999999956,
      "v": 100
    },
    {
      "midi": 36,
      "hit": false,
      "t": 132174.03200000024,
      "d": 45.28989583332441,
      "v": 100
    },
    {
      "midi": 48,
      "hit": false,
      "t": 132282.7277499996,
      "d": 108.6957500000135,
      "v": 100
    },
    {
      "midi": 46,
      "hit": false,
      "t": 132391.42349999907,
      "d": 217.3914999999979,
      "v": 100
    },
    {
      "midi": 42,
      "hit": false,
      "t": 132391.42349999928,
      "d": 108.6957500000135,
      "v": 100
    },
    {
      "midi": 48,
      "hit": false,
      "t": 132391.42349999963,
      "d": 108.6957500000135,
      "v": 100
    },
    {
      "midi": 36,
      "hit": false,
      "t": 132391.42350000024,
      "d": 45.28989583332441,
      "v": 100
    },
    {
      "midi": 42,
      "hit": false,
      "t": 132500.1192499993,
      "d": 108.6957500000135,
      "v": 100
    },
    {
      "midi": 51,
      "hit": false,
      "t": 132500.11924999964,
      "d": 217.3914999999979,
      "v": 100
    },
    {
      "midi": 56,
      "hit": false,
      "t": 132500.1192499997,
      "d": 326.0872500000114,
      "v": 100
    },
    {
      "midi": 63,
      "hit": false,
      "t": 132500.1192499997,
      "d": 326.0872500000114,
      "v": 100
    },
    {
      "midi": 60,
      "hit": false,
      "t": 132500.1192499997,
      "d": 326.0872500000114,
      "v": 100
    },
    {
      "midi": 60,
      "hit": false,
      "t": 132500.1192499997,
      "d": 326.0872500000114,
      "v": 100
    },
    {
      "midi": 63,
      "hit": false,
      "t": 132500.1192499997,
      "d": 326.0872500000114,
      "v": 100
    },
    {
      "midi": 56,
      "hit": false,
      "t": 132500.1192499997,
      "d": 326.0872500000114,
      "v": 100
    },
    {
      "midi": 40,
      "hit": false,
      "t": 132608.81499999907,
      "d": 217.3914999999979,
      "v": 100
    },
    {
      "midi": 42,
      "hit": false,
      "t": 132608.81499999907,
      "d": 217.3914999999979,
      "v": 100
    },
    {
      "midi": 35,
      "hit": false,
      "t": 132608.8149999993,
      "d": 217.3914999999979,
      "v": 100
    },
    {
      "midi": 40,
      "hit": false,
      "t": 132608.8149999993,
      "d": 217.3914999999979,
      "v": 100
    },
    {
      "midi": 42,
      "hit": false,
      "t": 132608.8149999993,
      "d": 217.3914999999979,
      "v": 100
    },
    {
      "midi": 59,
      "hit": false,
      "t": 132608.8149999993,
      "d": 434.7830000000249,
      "v": 100
    },
    {
      "midi": 84,
      "hit": false,
      "t": 132608.8149999993,
      "d": 217.3914999999979,
      "v": 100
    },
    {
      "midi": 48,
      "hit": false,
      "t": 132608.81499999945,
      "d": 217.3914999999979,
      "v": 100
    },
    {
      "midi": 36,
      "hit": false,
      "t": 132608.81500000024,
      "d": 45.28989583332441,
      "v": 100
    },
    {
      "midi": 48,
      "hit": false,
      "t": 132717.51074999964,
      "d": 108.6957500000135,
      "v": 100
    },
    {
      "midi": 48,
      "hit": false,
      "t": 132717.51075000022,
      "d": 45.28989583332441,
      "v": 100
    },
    {
      "midi": 46,
      "hit": false,
      "t": 132826.20649999907,
      "d": 217.3914999999979,
      "v": 100
    },
    {
      "midi": 42,
      "hit": false,
      "t": 132826.2064999993,
      "d": 108.6957500000135,
      "v": 100
    },
    {
      "midi": 36,
      "hit": false,
      "t": 132826.20649999945,
      "d": 217.3914999999979,
      "v": 100
    },
    {
      "midi": 48,
      "hit": false,
      "t": 132826.20649999965,
      "d": 108.6957500000135,
      "v": 100
    },
    {
      "midi": 56,
      "hit": false,
      "t": 132826.2064999997,
      "d": 326.0872500000114,
      "v": 100
    },
    {
      "midi": 63,
      "hit": false,
      "t": 132826.2064999997,
      "d": 326.0872500000114,
      "v": 100
    },
    {
      "midi": 60,
      "hit": false,
      "t": 132826.2064999997,
      "d": 326.0872500000114,
      "v": 100
    },
    {
      "midi": 60,
      "hit": false,
      "t": 132826.2064999997,
      "d": 326.0872500000114,
      "v": 100
    },
    {
      "midi": 63,
      "hit": false,
      "t": 132826.2064999997,
      "d": 326.0872500000114,
      "v": 100
    },
    {
      "midi": 56,
      "hit": false,
      "t": 132826.2064999997,
      "d": 326.0872500000114,
      "v": 100
    },
    {
      "midi": 42,
      "hit": false,
      "t": 132934.90224999932,
      "d": 108.6957500000135,
      "v": 100
    },
    {
      "midi": 40,
      "hit": false,
      "t": 132934.90224999932,
      "d": 108.6957500000135,
      "v": 100
    },
    {
      "midi": 48,
      "hit": false,
      "t": 132934.90224999966,
      "d": 108.6957500000135,
      "v": 100
    },
    {
      "midi": 43,
      "hit": false,
      "t": 132934.90225000022,
      "d": 45.28989583332441,
      "v": 100
    },
    {
      "midi": 42,
      "hit": false,
      "t": 133043.59799999907,
      "d": 217.3914999999979,
      "v": 100
    },
    {
      "midi": 42,
      "hit": false,
      "t": 133043.59799999933,
      "d": 217.391500000027,
      "v": 100
    },
    {
      "midi": 35,
      "hit": false,
      "t": 133043.59799999933,
      "d": 217.391500000027,
      "v": 100
    },
    {
      "midi": 59,
      "hit": false,
      "t": 133043.59799999933,
      "d": 434.7830000000249,
      "v": 100
    },
    {
      "midi": 36,
      "hit": false,
      "t": 133043.59799999945,
      "d": 108.6957500000135,
      "v": 100
    },
    {
      "midi": 51,
      "hit": false,
      "t": 133043.59799999968,
      "d": 217.3914999999979,
      "v": 100
    },
    {
      "midi": 40,
      "hit": false,
      "t": 133152.29374999934,
      "d": 108.6957500000135,
      "v": 100
    },
    {
      "midi": 36,
      "hit": false,
      "t": 133152.29374999946,
      "d": 108.6957500000135,
      "v": 100
    },
    {
      "midi": 56,
      "hit": false,
      "t": 133152.29374999972,
      "d": 326.0872500000114,
      "v": 100
    },
    {
      "midi": 63,
      "hit": false,
      "t": 133152.29374999972,
      "d": 326.0872500000114,
      "v": 100
    },
    {
      "midi": 60,
      "hit": false,
      "t": 133152.29374999972,
      "d": 326.0872500000114,
      "v": 100
    },
    {
      "midi": 60,
      "hit": false,
      "t": 133152.29374999972,
      "d": 326.0872500000114,
      "v": 100
    },
    {
      "midi": 63,
      "hit": false,
      "t": 133152.29374999972,
      "d": 326.0872500000114,
      "v": 100
    },
    {
      "midi": 56,
      "hit": false,
      "t": 133152.29374999972,
      "d": 326.0872500000114,
      "v": 100
    },
    {
      "midi": 41,
      "hit": false,
      "t": 133152.29375000022,
      "d": 45.28989583332441,
      "v": 100
    },
    {
      "midi": 46,
      "hit": false,
      "t": 133260.98949999906,
      "d": 217.3914999999979,
      "v": 100
    },
    {
      "midi": 46,
      "hit": false,
      "t": 133260.98949999936,
      "d": 217.3914999999979,
      "v": 100
    },
    {
      "midi": 36,
      "hit": false,
      "t": 133260.98949999947,
      "d": 217.3914999999979,
      "v": 100
    },
    {
      "midi": 48,
      "hit": false,
      "t": 133260.98949999968,
      "d": 108.6957500000135,
      "v": 100
    },
    {
      "midi": 41,
      "hit": false,
      "t": 133260.9895000002,
      "d": 86.05080208333675,
      "v": 100
    },
    {
      "midi": 48,
      "hit": false,
      "t": 133369.6852499997,
      "d": 108.6957500000135,
      "v": 100
    },
    {
      "midi": 42,
      "hit": false,
      "t": 133478.38099999906,
      "d": 217.3914999999979,
      "v": 100
    },
    {
      "midi": 40,
      "hit": false,
      "t": 133478.38099999906,
      "d": 217.3914999999979,
      "v": 100
    },
    {
      "midi": 84,
      "hit": false,
      "t": 133478.3809999993,
      "d": 217.3914999999979,
      "v": 100
    },
    {
      "midi": 40,
      "hit": false,
      "t": 133478.38099999935,
      "d": 108.6957500000135,
      "v": 100
    },
    {
      "midi": 35,
      "hit": false,
      "t": 133478.38099999935,
      "d": 217.391500000027,
      "v": 100
    },
    {
      "midi": 59,
      "hit": false,
      "t": 133478.38099999935,
      "d": 434.783000000054,
      "v": 100
    },
    {
      "midi": 48,
      "hit": false,
      "t": 133478.38099999947,
      "d": 217.3914999999979,
      "v": 100
    },
    {
      "midi": 53,
      "hit": false,
      "t": 133478.3809999997,
      "d": 108.6957500000135,
      "v": 100
    },
    {
      "midi": 43,
      "hit": false,
      "t": 133478.3810000002,
      "d": 45.28989583332441,
      "v": 100
    },
    {
      "midi": 48,
      "hit": false,
      "t": 133587.07674999972,
      "d": 108.6957500000135,
      "v": 100
    },
    {
      "midi": 56,
      "hit": false,
      "t": 133587.07674999975,
      "d": 108.6957500000135,
      "v": 100
    },
    {
      "midi": 60,
      "hit": false,
      "t": 133587.07674999975,
      "d": 108.6957500000135,
      "v": 100
    },
    {
      "midi": 63,
      "hit": false,
      "t": 133587.07674999975,
      "d": 108.6957500000135,
      "v": 100
    },
    {
      "midi": 63,
      "hit": false,
      "t": 133587.07674999975,
      "d": 108.6957500000135,
      "v": 100
    },
    {
      "midi": 60,
      "hit": false,
      "t": 133587.07674999975,
      "d": 108.6957500000135,
      "v": 100
    },
    {
      "midi": 56,
      "hit": false,
      "t": 133587.07674999975,
      "d": 108.6957500000135,
      "v": 100
    },
    {
      "midi": 45,
      "hit": false,
      "t": 133587.07675000018,
      "d": 45.28989583332441,
      "v": 100
    },
    {
      "midi": 46,
      "hit": false,
      "t": 133695.77249999906,
      "d": 217.3914999999979,
      "v": 100
    },
    {
      "midi": 35,
      "hit": false,
      "t": 133695.77249999938,
      "d": 108.6957500000135,
      "v": 100
    },
    {
      "midi": 36,
      "hit": false,
      "t": 133695.77249999947,
      "d": 217.3914999999979,
      "v": 100
    },
    {
      "midi": 55,
      "hit": false,
      "t": 133695.77249999973,
      "d": 108.6957500000135,
      "v": 100
    },
    {
      "midi": 46,
      "hit": false,
      "t": 133695.77250000017,
      "d": 45.28989583332441,
      "v": 100
    },
    {
      "midi": 48,
      "hit": false,
      "t": 133804.46824999974,
      "d": 108.6957500000135,
      "v": 100
    },
    {
      "midi": 50,
      "hit": false,
      "t": 133804.46825000015,
      "d": 45.28989583332441,
      "v": 100
    },
    {
      "midi": 42,
      "hit": false,
      "t": 133913.16399999906,
      "d": 217.3914999999979,
      "v": 100
    },
    {
      "midi": 35,
      "hit": false,
      "t": 133913.1639999994,
      "d": 217.3914999999979,
      "v": 100
    },
    {
      "midi": 42,
      "hit": false,
      "t": 133913.1639999994,
      "d": 217.3914999999979,
      "v": 100
    },
    {
      "midi": 59,
      "hit": false,
      "t": 133913.1639999994,
      "d": 434.7830000000249,
      "v": 100
    },
    {
      "midi": 36,
      "hit": false,
      "t": 133913.16399999947,
      "d": 434.7829999999958,
      "v": 100
    },
    {
      "midi": 48,
      "hit": false,
      "t": 133913.16399999976,
      "d": 108.6957500000135,
      "v": 100
    },
    {
      "midi": 36,
      "hit": false,
      "t": 133913.16400000014,
      "d": 45.28989583332441,
      "v": 100
    },
    {
      "midi": 48,
      "hit": false,
      "t": 134021.85974999977,
      "d": 108.6957500000135,
      "v": 100
    },
    {
      "midi": 36,
      "hit": false,
      "t": 134021.85975000012,
      "d": 45.28989583332441,
      "v": 100
    },
    {
      "midi": 46,
      "hit": false,
      "t": 134130.55549999906,
      "d": 217.3914999999979,
      "v": 100
    },
    {
      "midi": 42,
      "hit": false,
      "t": 134130.5554999994,
      "d": 108.6957500000135,
      "v": 100
    },
    {
      "midi": 48,
      "hit": false,
      "t": 134130.55549999978,
      "d": 108.6957500000135,
      "v": 100
    },
    {
      "midi": 36,
      "hit": false,
      "t": 134130.5555000001,
      "d": 86.05080208333675,
      "v": 100
    },
    {
      "midi": 42,
      "hit": false,
      "t": 134239.25124999942,
      "d": 108.6957500000135,
      "v": 100
    },
    {
      "midi": 60,
      "hit": false,
      "t": 134239.25124999977,
      "d": 326.0872500000114,
      "v": 100
    },
    {
      "midi": 63,
      "hit": false,
      "t": 134239.25124999977,
      "d": 326.0872500000114,
      "v": 100
    },
    {
      "midi": 56,
      "hit": false,
      "t": 134239.25124999977,
      "d": 326.0872500000114,
      "v": 100
    },
    {
      "midi": 56,
      "hit": false,
      "t": 134239.25124999977,
      "d": 326.0872500000114,
      "v": 100
    },
    {
      "midi": 63,
      "hit": false,
      "t": 134239.25124999977,
      "d": 326.0872500000114,
      "v": 100
    },
    {
      "midi": 60,
      "hit": false,
      "t": 134239.25124999977,
      "d": 326.0872500000114,
      "v": 100
    },
    {
      "midi": 51,
      "hit": false,
      "t": 134239.2512499998,
      "d": 217.3914999999979,
      "v": 100
    },
    {
      "midi": 40,
      "hit": false,
      "t": 134347.94699999905,
      "d": 217.3914999999979,
      "v": 100
    },
    {
      "midi": 42,
      "hit": false,
      "t": 134347.94699999905,
      "d": 217.3914999999979,
      "v": 100
    },
    {
      "midi": 84,
      "hit": false,
      "t": 134347.9469999993,
      "d": 217.3914999999979,
      "v": 100
    },
    {
      "midi": 40,
      "hit": false,
      "t": 134347.94699999943,
      "d": 108.6957500000135,
      "v": 100
    },
    {
      "midi": 42,
      "hit": false,
      "t": 134347.94699999943,
      "d": 217.391500000027,
      "v": 100
    },
    {
      "midi": 35,
      "hit": false,
      "t": 134347.94699999943,
      "d": 217.391500000027,
      "v": 100
    },
    {
      "midi": 59,
      "hit": false,
      "t": 134347.94699999943,
      "d": 434.783000000054,
      "v": 100
    },
    {
      "midi": 48,
      "hit": false,
      "t": 134347.94699999946,
      "d": 217.3914999999979,
      "v": 100
    },
    {
      "midi": 36,
      "hit": false,
      "t": 134347.9470000001,
      "d": 45.28989583332441,
      "v": 100
    },
    {
      "midi": 48,
      "hit": false,
      "t": 134456.6427499998,
      "d": 108.6957500000135,
      "v": 100
    },
    {
      "midi": 48,
      "hit": false,
      "t": 134456.6427500001,
      "d": 45.28989583332441,
      "v": 100
    },
    {
      "midi": 46,
      "hit": false,
      "t": 134565.33849999905,
      "d": 217.3914999999979,
      "v": 100
    },
    {
      "midi": 36,
      "hit": false,
      "t": 134565.33849999946,
      "d": 217.3914999999979,
      "v": 100
    },
    {
      "midi": 42,
      "hit": false,
      "t": 134565.33849999946,
      "d": 108.6957500000135,
      "v": 100
    },
    {
      "midi": 60,
      "hit": false,
      "t": 134565.33849999978,
      "d": 326.0872500000114,
      "v": 100
    },
    {
      "midi": 63,
      "hit": false,
      "t": 134565.33849999978,
      "d": 326.0872500000114,
      "v": 100
    },
    {
      "midi": 56,
      "hit": false,
      "t": 134565.33849999978,
      "d": 326.0872500000114,
      "v": 100
    },
    {
      "midi": 56,
      "hit": false,
      "t": 134565.33849999978,
      "d": 326.0872500000114,
      "v": 100
    },
    {
      "midi": 63,
      "hit": false,
      "t": 134565.33849999978,
      "d": 326.0872500000114,
      "v": 100
    },
    {
      "midi": 60,
      "hit": false,
      "t": 134565.33849999978,
      "d": 326.0872500000114,
      "v": 100
    },
    {
      "midi": 48,
      "hit": false,
      "t": 134565.3384999998,
      "d": 108.6957500000135,
      "v": 100
    },
    {
      "midi": 42,
      "hit": false,
      "t": 134674.03424999947,
      "d": 108.6957500000135,
      "v": 100
    },
    {
      "midi": 40,
      "hit": false,
      "t": 134674.03424999947,
      "d": 108.6957500000135,
      "v": 100
    },
    {
      "midi": 48,
      "hit": false,
      "t": 134674.03424999982,
      "d": 108.6957500000135,
      "v": 100
    },
    {
      "midi": 43,
      "hit": false,
      "t": 134674.03425000008,
      "d": 45.28989583332441,
      "v": 100
    },
    {
      "midi": 42,
      "hit": false,
      "t": 134782.72999999905,
      "d": 217.3914999999979,
      "v": 100
    },
    {
      "midi": 36,
      "hit": false,
      "t": 134782.72999999946,
      "d": 108.6957500000135,
      "v": 100
    },
    {
      "midi": 42,
      "hit": false,
      "t": 134782.7299999995,
      "d": 217.391500000027,
      "v": 100
    },
    {
      "midi": 35,
      "hit": false,
      "t": 134782.7299999995,
      "d": 217.391500000027,
      "v": 100
    },
    {
      "midi": 59,
      "hit": false,
      "t": 134782.7299999995,
      "d": 434.783000000054,
      "v": 100
    },
    {
      "midi": 51,
      "hit": false,
      "t": 134782.72999999984,
      "d": 217.3914999999979,
      "v": 100
    },
    {
      "midi": 36,
      "hit": false,
      "t": 134891.42574999947,
      "d": 108.6957500000135,
      "v": 100
    },
    {
      "midi": 40,
      "hit": false,
      "t": 134891.4257499995,
      "d": 108.6957500000135,
      "v": 100
    },
    {
      "midi": 60,
      "hit": false,
      "t": 134891.4257499998,
      "d": 326.0872500000114,
      "v": 100
    },
    {
      "midi": 63,
      "hit": false,
      "t": 134891.4257499998,
      "d": 326.0872500000114,
      "v": 100
    },
    {
      "midi": 56,
      "hit": false,
      "t": 134891.4257499998,
      "d": 326.0872500000114,
      "v": 100
    },
    {
      "midi": 56,
      "hit": false,
      "t": 134891.4257499998,
      "d": 326.0872500000114,
      "v": 100
    },
    {
      "midi": 63,
      "hit": false,
      "t": 134891.4257499998,
      "d": 326.0872500000114,
      "v": 100
    },
    {
      "midi": 60,
      "hit": false,
      "t": 134891.4257499998,
      "d": 326.0872500000114,
      "v": 100
    },
    {
      "midi": 41,
      "hit": false,
      "t": 134891.42575000008,
      "d": 45.28989583332441,
      "v": 100
    },
    {
      "midi": 46,
      "hit": false,
      "t": 135000.12149999905,
      "d": 217.3914999999979,
      "v": 100
    },
    {
      "midi": 36,
      "hit": false,
      "t": 135000.12149999948,
      "d": 217.3914999999979,
      "v": 100
    },
    {
      "midi": 40,
      "hit": false,
      "t": 135000.1214999995,
      "d": 108.6957500000135,
      "v": 100
    },
    {
      "midi": 46,
      "hit": false,
      "t": 135000.1214999995,
      "d": 217.391500000027,
      "v": 100
    },
    {
      "midi": 48,
      "hit": false,
      "t": 135000.12149999983,
      "d": 108.6957500000135,
      "v": 100
    },
    {
      "midi": 41,
      "hit": false,
      "t": 135000.12150000007,
      "d": 86.05080208333675,
      "v": 100
    },
    {
      "midi": 48,
      "hit": false,
      "t": 135108.81724999985,
      "d": 108.6957500000135,
      "v": 100
    },
    {
      "midi": 42,
      "hit": false,
      "t": 135217.51299999905,
      "d": 217.3914999999979,
      "v": 100
    },
    {
      "midi": 40,
      "hit": false,
      "t": 135217.51299999905,
      "d": 217.3914999999979,
      "v": 100
    },
    {
      "midi": 84,
      "hit": false,
      "t": 135217.51299999928,
      "d": 217.3914999999979,
      "v": 100
    },
    {
      "midi": 48,
      "hit": false,
      "t": 135217.51299999948,
      "d": 217.3914999999979,
      "v": 100
    },
    {
      "midi": 40,
      "hit": false,
      "t": 135217.51299999954,
      "d": 108.6957500000135,
      "v": 100
    },
    {
      "midi": 35,
      "hit": false,
      "t": 135217.51299999954,
      "d": 217.391500000027,
      "v": 100
    },
    {
      "midi": 59,
      "hit": false,
      "t": 135217.51299999954,
      "d": 434.783000000054,
      "v": 100
    },
    {
      "midi": 53,
      "hit": false,
      "t": 135217.51299999986,
      "d": 108.6957500000135,
      "v": 100
    },
    {
      "midi": 43,
      "hit": false,
      "t": 135217.51300000006,
      "d": 45.28989583332441,
      "v": 100
    },
    {
      "midi": 63,
      "hit": false,
      "t": 135326.20874999982,
      "d": 108.6957500000135,
      "v": 100
    },
    {
      "midi": 60,
      "hit": false,
      "t": 135326.20874999982,
      "d": 108.6957500000135,
      "v": 100
    },
    {
      "midi": 56,
      "hit": false,
      "t": 135326.20874999982,
      "d": 108.6957500000135,
      "v": 100
    },
    {
      "midi": 56,
      "hit": false,
      "t": 135326.20874999982,
      "d": 108.6957500000135,
      "v": 100
    },
    {
      "midi": 60,
      "hit": false,
      "t": 135326.20874999982,
      "d": 108.6957500000135,
      "v": 100
    },
    {
      "midi": 63,
      "hit": false,
      "t": 135326.20874999982,
      "d": 108.6957500000135,
      "v": 100
    },
    {
      "midi": 48,
      "hit": false,
      "t": 135326.20874999987,
      "d": 108.6957500000135,
      "v": 100
    },
    {
      "midi": 45,
      "hit": false,
      "t": 135326.20875000005,
      "d": 45.28989583332441,
      "v": 100
    },
    {
      "midi": 46,
      "hit": false,
      "t": 135434.90449999904,
      "d": 217.3914999999979,
      "v": 100
    },
    {
      "midi": 57,
      "hit": false,
      "t": 135434.90449999904,
      "d": 217.3914999999979,
      "v": 100
    },
    {
      "midi": 36,
      "hit": false,
      "t": 135434.90449999948,
      "d": 217.3914999999979,
      "v": 100
    },
    {
      "midi": 35,
      "hit": false,
      "t": 135434.90449999957,
      "d": 108.6957500000135,
      "v": 100
    },
    {
      "midi": 40,
      "hit": false,
      "t": 135434.90449999957,
      "d": 108.6957500000135,
      "v": 100
    },
    {
      "midi": 55,
      "hit": false,
      "t": 135434.9044999999,
      "d": 108.6957500000135,
      "v": 100
    },
    {
      "midi": 46,
      "hit": false,
      "t": 135434.90450000003,
      "d": 45.28989583332441,
      "v": 100
    },
    {
      "midi": 40,
      "hit": false,
      "t": 135543.60024999958,
      "d": 108.6957500000135,
      "v": 100
    },
    {
      "midi": 48,
      "hit": false,
      "t": 135543.6002499999,
      "d": 108.6957500000135,
      "v": 100
    },
    {
      "midi": 50,
      "hit": false,
      "t": 135543.60025000002,
      "d": 45.28989583332441,
      "v": 100
    },
    {
      "midi": 42,
      "hit": false,
      "t": 135652.29599999904,
      "d": 217.3914999999979,
      "v": 100
    },
    {
      "midi": 36,
      "hit": false,
      "t": 135652.29599999948,
      "d": 434.7829999999958,
      "v": 100
    },
    {
      "midi": 42,
      "hit": false,
      "t": 135652.2959999996,
      "d": 217.3914999999979,
      "v": 100
    },
    {
      "midi": 35,
      "hit": false,
      "t": 135652.2959999996,
      "d": 217.3914999999979,
      "v": 100
    },
    {
      "midi": 59,
      "hit": false,
      "t": 135652.2959999996,
      "d": 434.7830000000249,
      "v": 100
    },
    {
      "midi": 63,
      "hit": false,
      "t": 135652.29599999983,
      "d": 326.0872500000114,
      "v": 100
    },
    {
      "midi": 60,
      "hit": false,
      "t": 135652.29599999983,
      "d": 326.0872500000114,
      "v": 100
    },
    {
      "midi": 56,
      "hit": false,
      "t": 135652.29599999983,
      "d": 326.0872500000114,
      "v": 100
    },
    {
      "midi": 56,
      "hit": false,
      "t": 135652.29599999983,
      "d": 326.0872500000114,
      "v": 100
    },
    {
      "midi": 60,
      "hit": false,
      "t": 135652.29599999983,
      "d": 326.0872500000114,
      "v": 100
    },
    {
      "midi": 63,
      "hit": false,
      "t": 135652.29599999983,
      "d": 326.0872500000114,
      "v": 100
    },
    {
      "midi": 48,
      "hit": false,
      "t": 135652.29599999991,
      "d": 108.6957500000135,
      "v": 100
    },
    {
      "midi": 63,
      "hit": false,
      "t": 135652.29599999994,
      "d": 502.717843749997,
      "v": 100
    },
    {
      "midi": 58,
      "hit": false,
      "t": 135652.29599999994,
      "d": 502.717843749997,
      "v": 100
    },
    {
      "midi": 70,
      "hit": false,
      "t": 135652.29599999994,
      "d": 3478.2639999999956,
      "v": 100
    },
    {
      "midi": 51,
      "hit": false,
      "t": 135652.29599999994,
      "d": 3478.2639999999956,
      "v": 100
    },
    {
      "midi": 53,
      "hit": false,
      "t": 135652.29599999994,
      "d": 3478.2639999999956,
      "v": 100
    },
    {
      "midi": 58,
      "hit": false,
      "t": 135652.29599999994,
      "d": 502.717843749997,
      "v": 100
    },
    {
      "midi": 63,
      "hit": false,
      "t": 135652.29599999994,
      "d": 502.717843749997,
      "v": 100
    },
    {
      "midi": 70,
      "hit": false,
      "t": 135652.29599999994,
      "d": 3478.2639999999956,
      "v": 100
    },
    {
      "midi": 53,
      "hit": false,
      "t": 135652.29599999994,
      "d": 3478.2639999999956,
      "v": 100
    },
    {
      "midi": 51,
      "hit": false,
      "t": 135652.29599999994,
      "d": 3478.2639999999956,
      "v": 100
    },
    {
      "midi": 68,
      "hit": false,
      "t": 135652.29599999997,
      "d": 3478.2639999999956,
      "v": 100
    },
    {
      "midi": 63,
      "hit": false,
      "t": 135652.29599999997,
      "d": 3478.2639999999956,
      "v": 100
    },
    {
      "midi": 36,
      "hit": false,
      "t": 135652.296,
      "d": 45.28989583332441,
      "v": 100
    },
    {
      "midi": 48,
      "hit": false,
      "t": 135760.99174999993,
      "d": 108.6957500000135,
      "v": 100
    },
    {
      "midi": 46,
      "hit": false,
      "t": 135869.68749999904,
      "d": 217.3914999999979,
      "v": 100
    },
    {
      "midi": 42,
      "hit": false,
      "t": 135869.6874999996,
      "d": 108.6957500000135,
      "v": 100
    },
    {
      "midi": 48,
      "hit": false,
      "t": 135869.68749999994,
      "d": 108.6957500000135,
      "v": 100
    },
    {
      "midi": 36,
      "hit": false,
      "t": 135869.6875,
      "d": 45.28989583332441,
      "v": 100
    },
    {
      "midi": 42,
      "hit": false,
      "t": 135978.3832499996,
      "d": 108.6957500000135,
      "v": 100
    },
    {
      "midi": 60,
      "hit": false,
      "t": 135978.38324999984,
      "d": 326.0872500000114,
      "v": 100
    },
    {
      "midi": 63,
      "hit": false,
      "t": 135978.38324999984,
      "d": 326.0872500000114,
      "v": 100
    },
    {
      "midi": 56,
      "hit": false,
      "t": 135978.38324999984,
      "d": 326.0872500000114,
      "v": 100
    },
    {
      "midi": 56,
      "hit": false,
      "t": 135978.38324999984,
      "d": 326.0872500000114,
      "v": 100
    },
    {
      "midi": 63,
      "hit": false,
      "t": 135978.38324999984,
      "d": 326.0872500000114,
      "v": 100
    },
    {
      "midi": 60,
      "hit": false,
      "t": 135978.38324999984,
      "d": 326.0872500000114,
      "v": 100
    },
    {
      "midi": 51,
      "hit": false,
      "t": 135978.38324999996,
      "d": 217.3914999999979,
      "v": 100
    },
    {
      "midi": 40,
      "hit": false,
      "t": 136087.07899999904,
      "d": 217.3914999999979,
      "v": 100
    },
    {
      "midi": 42,
      "hit": false,
      "t": 136087.07899999904,
      "d": 217.3914999999979,
      "v": 100
    },
    {
      "midi": 84,
      "hit": false,
      "t": 136087.07899999927,
      "d": 217.3914999999979,
      "v": 100
    },
    {
      "midi": 48,
      "hit": false,
      "t": 136087.07899999947,
      "d": 217.3914999999979,
      "v": 100
    },
    {
      "midi": 40,
      "hit": false,
      "t": 136087.07899999962,
      "d": 217.3914999999979,
      "v": 100
    },
    {
      "midi": 35,
      "hit": false,
      "t": 136087.07899999962,
      "d": 217.3914999999979,
      "v": 100
    },
    {
      "midi": 42,
      "hit": false,
      "t": 136087.07899999962,
      "d": 217.3914999999979,
      "v": 100
    },
    {
      "midi": 59,
      "hit": false,
      "t": 136087.07899999962,
      "d": 434.7830000000249,
      "v": 100
    },
    {
      "midi": 36,
      "hit": false,
      "t": 136087.079,
      "d": 45.28989583332441,
      "v": 100
    },
    {
      "midi": 48,
      "hit": false,
      "t": 136195.77474999995,
      "d": 108.6957500000135,
      "v": 100
    },
    {
      "midi": 48,
      "hit": false,
      "t": 136195.77474999998,
      "d": 45.28989583332441,
      "v": 100
    },
    {
      "midi": 46,
      "hit": false,
      "t": 136304.47049999904,
      "d": 217.3914999999979,
      "v": 100
    },
    {
      "midi": 36,
      "hit": false,
      "t": 136304.47049999947,
      "d": 217.3914999999979,
      "v": 100
    },
    {
      "midi": 42,
      "hit": false,
      "t": 136304.47049999962,
      "d": 108.6957500000135,
      "v": 100
    },
    {
      "midi": 60,
      "hit": false,
      "t": 136304.47049999985,
      "d": 326.0872500000114,
      "v": 100
    },
    {
      "midi": 63,
      "hit": false,
      "t": 136304.47049999985,
      "d": 326.0872500000114,
      "v": 100
    },
    {
      "midi": 56,
      "hit": false,
      "t": 136304.47049999985,
      "d": 326.0872500000114,
      "v": 100
    },
    {
      "midi": 56,
      "hit": false,
      "t": 136304.47049999985,
      "d": 326.0872500000114,
      "v": 100
    },
    {
      "midi": 63,
      "hit": false,
      "t": 136304.47049999985,
      "d": 326.0872500000114,
      "v": 100
    },
    {
      "midi": 60,
      "hit": false,
      "t": 136304.47049999985,
      "d": 326.0872500000114,
      "v": 100
    },
    {
      "midi": 48,
      "hit": false,
      "t": 136304.47049999997,
      "d": 108.6957500000135,
      "v": 100
    },
    {
      "midi": 40,
      "hit": false,
      "t": 136413.16624999963,
      "d": 108.6957500000135,
      "v": 100
    },
    {
      "midi": 42,
      "hit": false,
      "t": 136413.16624999963,
      "d": 108.6957500000135,
      "v": 100
    },
    {
      "midi": 43,
      "hit": false,
      "t": 136413.16624999998,
      "d": 45.28989583332441,
      "v": 100
    },
    {
      "midi": 48,
      "hit": false,
      "t": 136413.16624999998,
      "d": 108.6957500000135,
      "v": 100
    },
    {
      "midi": 42,
      "hit": false,
      "t": 136521.86199999903,
      "d": 217.3914999999979,
      "v": 100
    },
    {
      "midi": 36,
      "hit": false,
      "t": 136521.86199999947,
      "d": 108.6957500000135,
      "v": 100
    },
    {
      "midi": 35,
      "hit": false,
      "t": 136521.86199999964,
      "d": 217.391500000027,
      "v": 100
    },
    {
      "midi": 42,
      "hit": false,
      "t": 136521.86199999964,
      "d": 217.391500000027,
      "v": 100
    },
    {
      "midi": 59,
      "hit": false,
      "t": 136521.86199999964,
      "d": 434.7830000000249,
      "v": 100
    },
    {
      "midi": 51,
      "hit": false,
      "t": 136521.862,
      "d": 217.3914999999979,
      "v": 100
    },
    {
      "midi": 36,
      "hit": false,
      "t": 136630.55774999948,
      "d": 108.6957500000135,
      "v": 100
    },
    {
      "midi": 40,
      "hit": false,
      "t": 136630.55774999966,
      "d": 108.6957500000135,
      "v": 100
    },
    {
      "midi": 60,
      "hit": false,
      "t": 136630.55774999986,
      "d": 326.0872500000114,
      "v": 100
    },
    {
      "midi": 63,
      "hit": false,
      "t": 136630.55774999986,
      "d": 326.0872500000114,
      "v": 100
    },
    {
      "midi": 56,
      "hit": false,
      "t": 136630.55774999986,
      "d": 326.0872500000114,
      "v": 100
    },
    {
      "midi": 56,
      "hit": false,
      "t": 136630.55774999986,
      "d": 326.0872500000114,
      "v": 100
    },
    {
      "midi": 63,
      "hit": false,
      "t": 136630.55774999986,
      "d": 326.0872500000114,
      "v": 100
    },
    {
      "midi": 60,
      "hit": false,
      "t": 136630.55774999986,
      "d": 326.0872500000114,
      "v": 100
    },
    {
      "midi": 41,
      "hit": false,
      "t": 136630.55774999998,
      "d": 45.28989583332441,
      "v": 100
    },
    {
      "midi": 46,
      "hit": false,
      "t": 136739.25349999903,
      "d": 217.3914999999979,
      "v": 100
    },
    {
      "midi": 36,
      "hit": false,
      "t": 136739.2534999995,
      "d": 217.3914999999979,
      "v": 100
    },
    {
      "midi": 46,
      "hit": false,
      "t": 136739.25349999967,
      "d": 217.3914999999979,
      "v": 100
    },
    {
      "midi": 41,
      "hit": false,
      "t": 136739.25349999996,
      "d": 86.05080208333675,
      "v": 100
    },
    {
      "midi": 48,
      "hit": false,
      "t": 136739.2535,
      "d": 108.6957500000135,
      "v": 100
    },
    {
      "midi": 48,
      "hit": false,
      "t": 136847.94925,
      "d": 108.6957500000135,
      "v": 100
    },
    {
      "midi": 40,
      "hit": false,
      "t": 136956.64499999903,
      "d": 217.3914999999979,
      "v": 100
    },
    {
      "midi": 42,
      "hit": false,
      "t": 136956.64499999903,
      "d": 217.3914999999979,
      "v": 100
    },
    {
      "midi": 84,
      "hit": false,
      "t": 136956.64499999926,
      "d": 217.3914999999979,
      "v": 100
    },
    {
      "midi": 48,
      "hit": false,
      "t": 136956.6449999995,
      "d": 217.3914999999979,
      "v": 100
    },
    {
      "midi": 40,
      "hit": false,
      "t": 136956.64499999967,
      "d": 108.6957500000135,
      "v": 100
    },
    {
      "midi": 35,
      "hit": false,
      "t": 136956.64499999967,
      "d": 217.391500000027,
      "v": 100
    },
    {
      "midi": 59,
      "hit": false,
      "t": 136956.64499999967,
      "d": 434.783000000054,
      "v": 100
    },
    {
      "midi": 43,
      "hit": false,
      "t": 136956.64499999996,
      "d": 45.28989583332441,
      "v": 100
    },
    {
      "midi": 53,
      "hit": false,
      "t": 136956.64500000002,
      "d": 108.6957500000135,
      "v": 100
    },
    {
      "midi": 63,
      "hit": false,
      "t": 137065.3407499999,
      "d": 108.6957500000135,
      "v": 100
    },
    {
      "midi": 60,
      "hit": false,
      "t": 137065.3407499999,
      "d": 108.6957500000135,
      "v": 100
    },
    {
      "midi": 56,
      "hit": false,
      "t": 137065.3407499999,
      "d": 108.6957500000135,
      "v": 100
    },
    {
      "midi": 56,
      "hit": false,
      "t": 137065.3407499999,
      "d": 108.6957500000135,
      "v": 100
    },
    {
      "midi": 60,
      "hit": false,
      "t": 137065.3407499999,
      "d": 108.6957500000135,
      "v": 100
    },
    {
      "midi": 63,
      "hit": false,
      "t": 137065.3407499999,
      "d": 108.6957500000135,
      "v": 100
    },
    {
      "midi": 45,
      "hit": false,
      "t": 137065.34074999994,
      "d": 45.28989583332441,
      "v": 100
    },
    {
      "midi": 48,
      "hit": false,
      "t": 137065.34075000003,
      "d": 108.6957500000135,
      "v": 100
    },
    {
      "midi": 49,
      "hit": false,
      "t": 137174.03649999903,
      "d": 217.3914999999979,
      "v": 100
    },
    {
      "midi": 46,
      "hit": false,
      "t": 137174.03649999903,
      "d": 217.3914999999979,
      "v": 100
    },
    {
      "midi": 36,
      "hit": false,
      "t": 137174.0364999995,
      "d": 217.3914999999979,
      "v": 100
    },
    {
      "midi": 40,
      "hit": false,
      "t": 137174.0364999997,
      "d": 108.6957500000135,
      "v": 100
    },
    {
      "midi": 46,
      "hit": false,
      "t": 137174.03649999993,
      "d": 45.28989583332441,
      "v": 100
    },
    {
      "midi": 55,
      "hit": false,
      "t": 137174.03650000005,
      "d": 108.6957500000135,
      "v": 100
    },
    {
      "midi": 40,
      "hit": false,
      "t": 137282.7322499997,
      "d": 108.6957500000135,
      "v": 100
    },
    {
      "midi": 50,
      "hit": false,
      "t": 137282.7322499999,
      "d": 45.28989583332441,
      "v": 100
    },
    {
      "midi": 48,
      "hit": false,
      "t": 137282.73225000006,
      "d": 108.6957500000135,
      "v": 100
    },
    {
      "midi": 42,
      "hit": false,
      "t": 137391.42799999902,
      "d": 217.3914999999979,
      "v": 100
    },
    {
      "midi": 36,
      "hit": false,
      "t": 137391.4279999995,
      "d": 434.7829999999958,
      "v": 100
    },
    {
      "midi": 35,
      "hit": false,
      "t": 137391.42799999972,
      "d": 217.3914999999979,
      "v": 100
    },
    {
      "midi": 42,
      "hit": false,
      "t": 137391.42799999972,
      "d": 217.3914999999979,
      "v": 100
    },
    {
      "midi": 59,
      "hit": false,
      "t": 137391.42799999972,
      "d": 434.7830000000249,
      "v": 100
    },
    {
      "midi": 36,
      "hit": false,
      "t": 137391.4279999999,
      "d": 45.28989583332441,
      "v": 100
    },
    {
      "midi": 48,
      "hit": false,
      "t": 137391.42800000007,
      "d": 108.6957500000135,
      "v": 100
    },
    {
      "midi": 36,
      "hit": false,
      "t": 137500.12374999988,
      "d": 45.28989583332441,
      "v": 100
    },
    {
      "midi": 48,
      "hit": false,
      "t": 137500.1237500001,
      "d": 108.6957500000135,
      "v": 100
    },
    {
      "midi": 46,
      "hit": false,
      "t": 137608.81949999902,
      "d": 217.3914999999979,
      "v": 100
    },
    {
      "midi": 42,
      "hit": false,
      "t": 137608.81949999972,
      "d": 108.6957500000135,
      "v": 100
    },
    {
      "midi": 36,
      "hit": false,
      "t": 137608.81949999987,
      "d": 86.05080208333675,
      "v": 100
    },
    {
      "midi": 48,
      "hit": false,
      "t": 137608.8195000001,
      "d": 108.6957500000135,
      "v": 100
    },
    {
      "midi": 42,
      "hit": false,
      "t": 137717.51524999973,
      "d": 108.6957500000135,
      "v": 100
    },
    {
      "midi": 56,
      "hit": false,
      "t": 137717.5152499999,
      "d": 326.0872500000114,
      "v": 100
    },
    {
      "midi": 63,
      "hit": false,
      "t": 137717.5152499999,
      "d": 326.0872500000114,
      "v": 100
    },
    {
      "midi": 60,
      "hit": false,
      "t": 137717.5152499999,
      "d": 326.0872500000114,
      "v": 100
    },
    {
      "midi": 60,
      "hit": false,
      "t": 137717.5152499999,
      "d": 326.0872500000114,
      "v": 100
    },
    {
      "midi": 63,
      "hit": false,
      "t": 137717.5152499999,
      "d": 326.0872500000114,
      "v": 100
    },
    {
      "midi": 56,
      "hit": false,
      "t": 137717.5152499999,
      "d": 326.0872500000114,
      "v": 100
    },
    {
      "midi": 51,
      "hit": false,
      "t": 137717.5152500001,
      "d": 217.3914999999979,
      "v": 100
    },
    {
      "midi": 42,
      "hit": false,
      "t": 137826.21099999902,
      "d": 217.3914999999979,
      "v": 100
    },
    {
      "midi": 40,
      "hit": false,
      "t": 137826.21099999902,
      "d": 217.3914999999979,
      "v": 100
    },
    {
      "midi": 84,
      "hit": false,
      "t": 137826.21099999925,
      "d": 217.3914999999979,
      "v": 100
    },
    {
      "midi": 48,
      "hit": false,
      "t": 137826.2109999995,
      "d": 217.3914999999979,
      "v": 100
    },
    {
      "midi": 40,
      "hit": false,
      "t": 137826.21099999975,
      "d": 108.6957500000135,
      "v": 100
    },
    {
      "midi": 42,
      "hit": false,
      "t": 137826.21099999975,
      "d": 217.391500000027,
      "v": 100
    },
    {
      "midi": 35,
      "hit": false,
      "t": 137826.21099999975,
      "d": 217.391500000027,
      "v": 100
    },
    {
      "midi": 59,
      "hit": false,
      "t": 137826.21099999975,
      "d": 434.783000000054,
      "v": 100
    },
    {
      "midi": 36,
      "hit": false,
      "t": 137826.21099999986,
      "d": 45.28989583332441,
      "v": 100
    },
    {
      "midi": 48,
      "hit": false,
      "t": 137934.90674999985,
      "d": 45.28989583332441,
      "v": 100
    },
    {
      "midi": 48,
      "hit": false,
      "t": 137934.9067500001,
      "d": 108.6957500000135,
      "v": 100
    },
    {
      "midi": 46,
      "hit": false,
      "t": 138043.60249999902,
      "d": 217.3914999999979,
      "v": 100
    },
    {
      "midi": 36,
      "hit": false,
      "t": 138043.60249999948,
      "d": 217.3914999999979,
      "v": 100
    },
    {
      "midi": 42,
      "hit": false,
      "t": 138043.60249999978,
      "d": 108.6957500000135,
      "v": 100
    },
    {
      "midi": 56,
      "hit": false,
      "t": 138043.60249999992,
      "d": 326.0872500000114,
      "v": 100
    },
    {
      "midi": 63,
      "hit": false,
      "t": 138043.60249999992,
      "d": 326.0872500000114,
      "v": 100
    },
    {
      "midi": 60,
      "hit": false,
      "t": 138043.60249999992,
      "d": 326.0872500000114,
      "v": 100
    },
    {
      "midi": 60,
      "hit": false,
      "t": 138043.60249999992,
      "d": 326.0872500000114,
      "v": 100
    },
    {
      "midi": 63,
      "hit": false,
      "t": 138043.60249999992,
      "d": 326.0872500000114,
      "v": 100
    },
    {
      "midi": 56,
      "hit": false,
      "t": 138043.60249999992,
      "d": 326.0872500000114,
      "v": 100
    },
    {
      "midi": 48,
      "hit": false,
      "t": 138043.60250000012,
      "d": 108.6957500000135,
      "v": 100
    },
    {
      "midi": 42,
      "hit": false,
      "t": 138152.2982499998,
      "d": 108.6957500000135,
      "v": 100
    },
    {
      "midi": 40,
      "hit": false,
      "t": 138152.2982499998,
      "d": 108.6957500000135,
      "v": 100
    },
    {
      "midi": 43,
      "hit": false,
      "t": 138152.29824999985,
      "d": 45.28989583332441,
      "v": 100
    },
    {
      "midi": 48,
      "hit": false,
      "t": 138152.29825000014,
      "d": 108.6957500000135,
      "v": 100
    },
    {
      "midi": 42,
      "hit": false,
      "t": 138260.99399999902,
      "d": 217.3914999999979,
      "v": 100
    },
    {
      "midi": 36,
      "hit": false,
      "t": 138260.99399999948,
      "d": 108.6957500000135,
      "v": 100
    },
    {
      "midi": 42,
      "hit": false,
      "t": 138260.9939999998,
      "d": 217.391500000027,
      "v": 100
    },
    {
      "midi": 35,
      "hit": false,
      "t": 138260.9939999998,
      "d": 217.391500000027,
      "v": 100
    },
    {
      "midi": 59,
      "hit": false,
      "t": 138260.9939999998,
      "d": 434.7830000000249,
      "v": 100
    },
    {
      "midi": 51,
      "hit": false,
      "t": 138260.99400000015,
      "d": 217.3914999999979,
      "v": 100
    },
    {
      "midi": 36,
      "hit": false,
      "t": 138369.6897499995,
      "d": 108.6957500000135,
      "v": 100
    },
    {
      "midi": 40,
      "hit": false,
      "t": 138369.68974999982,
      "d": 108.6957500000135,
      "v": 100
    },
    {
      "midi": 41,
      "hit": false,
      "t": 138369.68974999984,
      "d": 45.28989583332441,
      "v": 100
    },
    {
      "midi": 56,
      "hit": false,
      "t": 138369.68974999993,
      "d": 326.0872500000114,
      "v": 100
    },
    {
      "midi": 63,
      "hit": false,
      "t": 138369.68974999993,
      "d": 326.0872500000114,
      "v": 100
    },
    {
      "midi": 60,
      "hit": false,
      "t": 138369.68974999993,
      "d": 326.0872500000114,
      "v": 100
    },
    {
      "midi": 60,
      "hit": false,
      "t": 138369.68974999993,
      "d": 326.0872500000114,
      "v": 100
    },
    {
      "midi": 63,
      "hit": false,
      "t": 138369.68974999993,
      "d": 326.0872500000114,
      "v": 100
    },
    {
      "midi": 56,
      "hit": false,
      "t": 138369.68974999993,
      "d": 326.0872500000114,
      "v": 100
    },
    {
      "midi": 46,
      "hit": false,
      "t": 138478.385499999,
      "d": 217.3914999999979,
      "v": 100
    },
    {
      "midi": 36,
      "hit": false,
      "t": 138478.3854999995,
      "d": 217.3914999999979,
      "v": 100
    },
    {
      "midi": 41,
      "hit": false,
      "t": 138478.38549999983,
      "d": 86.05080208333675,
      "v": 100
    },
    {
      "midi": 46,
      "hit": false,
      "t": 138478.38549999983,
      "d": 217.3914999999979,
      "v": 100
    },
    {
      "midi": 48,
      "hit": false,
      "t": 138478.38550000015,
      "d": 108.6957500000135,
      "v": 100
    },
    {
      "midi": 48,
      "hit": false,
      "t": 138587.08125000016,
      "d": 108.6957500000135,
      "v": 100
    },
    {
      "midi": 42,
      "hit": false,
      "t": 138695.776999999,
      "d": 217.3914999999979,
      "v": 100
    },
    {
      "midi": 40,
      "hit": false,
      "t": 138695.776999999,
      "d": 217.3914999999979,
      "v": 100
    },
    {
      "midi": 84,
      "hit": false,
      "t": 138695.77699999925,
      "d": 217.3914999999979,
      "v": 100
    },
    {
      "midi": 48,
      "hit": false,
      "t": 138695.7769999995,
      "d": 217.3914999999979,
      "v": 100
    },
    {
      "midi": 43,
      "hit": false,
      "t": 138695.77699999983,
      "d": 45.28989583332441,
      "v": 100
    },
    {
      "midi": 40,
      "hit": false,
      "t": 138695.77699999983,
      "d": 108.6957500000135,
      "v": 100
    },
    {
      "midi": 35,
      "hit": false,
      "t": 138695.77699999983,
      "d": 217.391500000027,
      "v": 100
    },
    {
      "midi": 59,
      "hit": false,
      "t": 138695.77699999983,
      "d": 434.783000000054,
      "v": 100
    },
    {
      "midi": 53,
      "hit": false,
      "t": 138695.77700000018,
      "d": 108.6957500000135,
      "v": 100
    },
    {
      "midi": 45,
      "hit": false,
      "t": 138804.4727499998,
      "d": 45.28989583332441,
      "v": 100
    },
    {
      "midi": 56,
      "hit": false,
      "t": 138804.47274999996,
      "d": 108.6957500000135,
      "v": 100
    },
    {
      "midi": 60,
      "hit": false,
      "t": 138804.47274999996,
      "d": 108.6957500000135,
      "v": 100
    },
    {
      "midi": 63,
      "hit": false,
      "t": 138804.47274999996,
      "d": 108.6957500000135,
      "v": 100
    },
    {
      "midi": 63,
      "hit": false,
      "t": 138804.47274999996,
      "d": 108.6957500000135,
      "v": 100
    },
    {
      "midi": 60,
      "hit": false,
      "t": 138804.47274999996,
      "d": 108.6957500000135,
      "v": 100
    },
    {
      "midi": 56,
      "hit": false,
      "t": 138804.47274999996,
      "d": 108.6957500000135,
      "v": 100
    },
    {
      "midi": 48,
      "hit": false,
      "t": 138804.4727500002,
      "d": 108.6957500000135,
      "v": 100
    },
    {
      "midi": 46,
      "hit": false,
      "t": 138913.168499999,
      "d": 217.3914999999979,
      "v": 100
    },
    {
      "midi": 57,
      "hit": false,
      "t": 138913.168499999,
      "d": 217.3914999999979,
      "v": 100
    },
    {
      "midi": 36,
      "hit": false,
      "t": 138913.1684999995,
      "d": 217.3914999999979,
      "v": 100
    },
    {
      "midi": 46,
      "hit": false,
      "t": 138913.1684999998,
      "d": 45.28989583332441,
      "v": 100
    },
    {
      "midi": 35,
      "hit": false,
      "t": 138913.16849999985,
      "d": 108.6957500000135,
      "v": 100
    },
    {
      "midi": 55,
      "hit": false,
      "t": 138913.1685000002,
      "d": 108.6957500000135,
      "v": 100
    },
    {
      "midi": 50,
      "hit": false,
      "t": 139021.86424999978,
      "d": 45.28989583332441,
      "v": 100
    },
    {
      "midi": 48,
      "hit": false,
      "t": 139021.86425000022,
      "d": 108.6957500000135,
      "v": 100
    },
    {
      "midi": 42,
      "hit": false,
      "t": 139130.559999999,
      "d": 217.3914999999979,
      "v": 100
    },
    {
      "midi": 49,
      "hit": false,
      "t": 139130.559999999,
      "d": 217.3914999999979,
      "v": 100
    },
    {
      "midi": 36,
      "hit": false,
      "t": 139130.5599999995,
      "d": 434.7829999999958,
      "v": 100
    },
    {
      "midi": 36,
      "hit": false,
      "t": 139130.55999999976,
      "d": 45.28989583332441,
      "v": 100
    },
    {
      "midi": 42,
      "hit": false,
      "t": 139130.55999999988,
      "d": 217.3914999999979,
      "v": 100
    },
    {
      "midi": 35,
      "hit": false,
      "t": 139130.55999999988,
      "d": 217.3914999999979,
      "v": 100
    },
    {
      "midi": 59,
      "hit": false,
      "t": 139130.55999999988,
      "d": 434.7830000000249,
      "v": 100
    },
    {
      "midi": 48,
      "hit": false,
      "t": 139130.55999999994,
      "d": 3478.2639999999956,
      "v": 100
    },
    {
      "midi": 55,
      "hit": false,
      "t": 139130.55999999994,
      "d": 3478.2639999999956,
      "v": 100
    },
    {
      "midi": 50,
      "hit": false,
      "t": 139130.55999999994,
      "d": 3478.2639999999956,
      "v": 100
    },
    {
      "midi": 62,
      "hit": false,
      "t": 139130.55999999994,
      "d": 3478.2639999999956,
      "v": 100
    },
    {
      "midi": 67,
      "hit": false,
      "t": 139130.55999999994,
      "d": 3478.2639999999956,
      "v": 100
    },
    {
      "midi": 48,
      "hit": false,
      "t": 139130.55999999994,
      "d": 3478.2639999999956,
      "v": 100
    },
    {
      "midi": 62,
      "hit": false,
      "t": 139130.55999999994,
      "d": 3478.2639999999956,
      "v": 100
    },
    {
      "midi": 67,
      "hit": false,
      "t": 139130.55999999994,
      "d": 3478.2639999999956,
      "v": 100
    },
    {
      "midi": 55,
      "hit": false,
      "t": 139130.55999999994,
      "d": 3478.2639999999956,
      "v": 100
    },
    {
      "midi": 50,
      "hit": false,
      "t": 139130.55999999994,
      "d": 3478.2639999999956,
      "v": 100
    },
    {
      "midi": 60,
      "hit": false,
      "t": 139130.55999999997,
      "d": 326.0872500000114,
      "v": 100
    },
    {
      "midi": 62,
      "hit": false,
      "t": 139130.55999999997,
      "d": 326.0872500000114,
      "v": 100
    },
    {
      "midi": 55,
      "hit": false,
      "t": 139130.55999999997,
      "d": 326.0872500000114,
      "v": 100
    },
    {
      "midi": 55,
      "hit": false,
      "t": 139130.55999999997,
      "d": 326.0872500000114,
      "v": 100
    },
    {
      "midi": 62,
      "hit": false,
      "t": 139130.55999999997,
      "d": 326.0872500000114,
      "v": 100
    },
    {
      "midi": 48,
      "hit": false,
      "t": 139130.56000000023,
      "d": 108.6957500000135,
      "v": 100
    },
    {
      "midi": 48,
      "hit": false,
      "t": 139239.25575000024,
      "d": 108.6957500000135,
      "v": 100
    },
    {
      "midi": 46,
      "hit": false,
      "t": 139347.951499999,
      "d": 217.3914999999979,
      "v": 100
    },
    {
      "midi": 36,
      "hit": false,
      "t": 139347.95149999976,
      "d": 45.28989583332441,
      "v": 100
    },
    {
      "midi": 42,
      "hit": false,
      "t": 139347.95149999988,
      "d": 108.6957500000135,
      "v": 100
    },
    {
      "midi": 48,
      "hit": false,
      "t": 139347.95150000026,
      "d": 108.6957500000135,
      "v": 100
    },
    {
      "midi": 42,
      "hit": false,
      "t": 139456.6472499999,
      "d": 108.6957500000135,
      "v": 100
    },
    {
      "midi": 60,
      "hit": false,
      "t": 139456.64724999998,
      "d": 326.0872500000114,
      "v": 100
    },
    {
      "midi": 62,
      "hit": false,
      "t": 139456.64724999998,
      "d": 326.0872500000114,
      "v": 100
    },
    {
      "midi": 55,
      "hit": false,
      "t": 139456.64724999998,
      "d": 326.0872500000114,
      "v": 100
    },
    {
      "midi": 55,
      "hit": false,
      "t": 139456.64724999998,
      "d": 326.0872500000114,
      "v": 100
    },
    {
      "midi": 62,
      "hit": false,
      "t": 139456.64724999998,
      "d": 326.0872500000114,
      "v": 100
    },
    {
      "midi": 51,
      "hit": false,
      "t": 139456.64725000027,
      "d": 217.3914999999979,
      "v": 100
    },
    {
      "midi": 42,
      "hit": false,
      "t": 139565.342999999,
      "d": 217.3914999999979,
      "v": 100
    },
    {
      "midi": 40,
      "hit": false,
      "t": 139565.342999999,
      "d": 217.3914999999979,
      "v": 100
    },
    {
      "midi": 84,
      "hit": false,
      "t": 139565.34299999924,
      "d": 217.3914999999979,
      "v": 100
    },
    {
      "midi": 48,
      "hit": false,
      "t": 139565.3429999995,
      "d": 217.3914999999979,
      "v": 100
    },
    {
      "midi": 36,
      "hit": false,
      "t": 139565.34299999976,
      "d": 45.28989583332441,
      "v": 100
    },
    {
      "midi": 40,
      "hit": false,
      "t": 139565.3429999999,
      "d": 217.3914999999979,
      "v": 100
    },
    {
      "midi": 35,
      "hit": false,
      "t": 139565.3429999999,
      "d": 217.3914999999979,
      "v": 100
    },
    {
      "midi": 42,
      "hit": false,
      "t": 139565.3429999999,
      "d": 217.3914999999979,
      "v": 100
    },
    {
      "midi": 59,
      "hit": false,
      "t": 139565.3429999999,
      "d": 434.7830000000249,
      "v": 100
    },
    {
      "midi": 48,
      "hit": false,
      "t": 139674.03874999975,
      "d": 45.28989583332441,
      "v": 100
    },
    {
      "midi": 48,
      "hit": false,
      "t": 139674.03875000027,
      "d": 108.6957500000135,
      "v": 100
    },
    {
      "midi": 46,
      "hit": false,
      "t": 139782.734499999,
      "d": 217.3914999999979,
      "v": 100
    },
    {
      "midi": 36,
      "hit": false,
      "t": 139782.7344999995,
      "d": 217.3914999999979,
      "v": 100
    },
    {
      "midi": 42,
      "hit": false,
      "t": 139782.7344999999,
      "d": 108.6957500000135,
      "v": 100
    },
    {
      "midi": 60,
      "hit": false,
      "t": 139782.7345,
      "d": 326.0872500000114,
      "v": 100
    },
    {
      "midi": 62,
      "hit": false,
      "t": 139782.7345,
      "d": 326.0872500000114,
      "v": 100
    },
    {
      "midi": 55,
      "hit": false,
      "t": 139782.7345,
      "d": 326.0872500000114,
      "v": 100
    },
    {
      "midi": 55,
      "hit": false,
      "t": 139782.7345,
      "d": 326.0872500000114,
      "v": 100
    },
    {
      "midi": 62,
      "hit": false,
      "t": 139782.7345,
      "d": 326.0872500000114,
      "v": 100
    },
    {
      "midi": 48,
      "hit": false,
      "t": 139782.73450000028,
      "d": 108.6957500000135,
      "v": 100
    },
    {
      "midi": 43,
      "hit": false,
      "t": 139891.43024999974,
      "d": 45.28989583332441,
      "v": 100
    },
    {
      "midi": 40,
      "hit": false,
      "t": 139891.43024999992,
      "d": 108.6957500000135,
      "v": 100
    },
    {
      "midi": 42,
      "hit": false,
      "t": 139891.43024999992,
      "d": 108.6957500000135,
      "v": 100
    },
    {
      "midi": 48,
      "hit": false,
      "t": 139891.4302500003,
      "d": 108.6957500000135,
      "v": 100
    },
    {
      "midi": 42,
      "hit": false,
      "t": 140000.125999999,
      "d": 217.3914999999979,
      "v": 100
    },
    {
      "midi": 36,
      "hit": false,
      "t": 140000.1259999995,
      "d": 108.6957500000135,
      "v": 100
    },
    {
      "midi": 35,
      "hit": false,
      "t": 140000.12599999993,
      "d": 217.391500000027,
      "v": 100
    },
    {
      "midi": 42,
      "hit": false,
      "t": 140000.12599999993,
      "d": 217.391500000027,
      "v": 100
    },
    {
      "midi": 59,
      "hit": false,
      "t": 140000.12599999993,
      "d": 434.7830000000249,
      "v": 100
    },
    {
      "midi": 51,
      "hit": false,
      "t": 140000.1260000003,
      "d": 217.3914999999979,
      "v": 100
    },
    {
      "midi": 36,
      "hit": false,
      "t": 140108.8217499995,
      "d": 108.6957500000135,
      "v": 100
    },
    {
      "midi": 41,
      "hit": false,
      "t": 140108.82174999974,
      "d": 45.28989583332441,
      "v": 100
    },
    {
      "midi": 40,
      "hit": false,
      "t": 140108.82174999994,
      "d": 108.6957500000135,
      "v": 100
    },
    {
      "midi": 60,
      "hit": false,
      "t": 140108.82175,
      "d": 326.0872500000114,
      "v": 100
    },
    {
      "midi": 62,
      "hit": false,
      "t": 140108.82175,
      "d": 326.0872500000114,
      "v": 100
    },
    {
      "midi": 55,
      "hit": false,
      "t": 140108.82175,
      "d": 326.0872500000114,
      "v": 100
    },
    {
      "midi": 55,
      "hit": false,
      "t": 140108.82175,
      "d": 326.0872500000114,
      "v": 100
    },
    {
      "midi": 62,
      "hit": false,
      "t": 140108.82175,
      "d": 326.0872500000114,
      "v": 100
    },
    {
      "midi": 46,
      "hit": false,
      "t": 140217.517499999,
      "d": 217.3914999999979,
      "v": 100
    },
    {
      "midi": 36,
      "hit": false,
      "t": 140217.51749999952,
      "d": 217.3914999999979,
      "v": 100
    },
    {
      "midi": 41,
      "hit": false,
      "t": 140217.51749999973,
      "d": 86.05080208333675,
      "v": 100
    },
    {
      "midi": 46,
      "hit": false,
      "t": 140217.51749999996,
      "d": 217.3914999999979,
      "v": 100
    },
    {
      "midi": 48,
      "hit": false,
      "t": 140217.5175000003,
      "d": 108.6957500000135,
      "v": 100
    },
    {
      "midi": 48,
      "hit": false,
      "t": 140326.21325000032,
      "d": 108.6957500000135,
      "v": 100
    },
    {
      "midi": 40,
      "hit": false,
      "t": 140434.908999999,
      "d": 217.3914999999979,
      "v": 100
    },
    {
      "midi": 42,
      "hit": false,
      "t": 140434.908999999,
      "d": 217.3914999999979,
      "v": 100
    },
    {
      "midi": 84,
      "hit": false,
      "t": 140434.90899999923,
      "d": 217.3914999999979,
      "v": 100
    },
    {
      "midi": 48,
      "hit": false,
      "t": 140434.90899999952,
      "d": 217.3914999999979,
      "v": 100
    },
    {
      "midi": 43,
      "hit": false,
      "t": 140434.90899999972,
      "d": 45.28989583332441,
      "v": 100
    },
    {
      "midi": 40,
      "hit": false,
      "t": 140434.90899999996,
      "d": 108.6957500000135,
      "v": 100
    },
    {
      "midi": 35,
      "hit": false,
      "t": 140434.90899999996,
      "d": 217.391500000027,
      "v": 100
    },
    {
      "midi": 59,
      "hit": false,
      "t": 140434.90899999996,
      "d": 434.783000000054,
      "v": 100
    },
    {
      "midi": 53,
      "hit": false,
      "t": 140434.90900000033,
      "d": 108.6957500000135,
      "v": 100
    },
    {
      "midi": 45,
      "hit": false,
      "t": 140543.6047499997,
      "d": 45.28989583332441,
      "v": 100
    },
    {
      "midi": 60,
      "hit": false,
      "t": 140543.60475000003,
      "d": 108.6957500000135,
      "v": 100
    },
    {
      "midi": 62,
      "hit": false,
      "t": 140543.60475000003,
      "d": 108.6957500000135,
      "v": 100
    },
    {
      "midi": 55,
      "hit": false,
      "t": 140543.60475000003,
      "d": 108.6957500000135,
      "v": 100
    },
    {
      "midi": 55,
      "hit": false,
      "t": 140543.60475000003,
      "d": 108.6957500000135,
      "v": 100
    },
    {
      "midi": 62,
      "hit": false,
      "t": 140543.60475000003,
      "d": 108.6957500000135,
      "v": 100
    },
    {
      "midi": 48,
      "hit": false,
      "t": 140543.60475000035,
      "d": 108.6957500000135,
      "v": 100
    },
    {
      "midi": 46,
      "hit": false,
      "t": 140652.300499999,
      "d": 217.3914999999979,
      "v": 100
    },
    {
      "midi": 36,
      "hit": false,
      "t": 140652.30049999952,
      "d": 217.3914999999979,
      "v": 100
    },
    {
      "midi": 46,
      "hit": false,
      "t": 140652.3004999997,
      "d": 45.28989583332441,
      "v": 100
    },
    {
      "midi": 40,
      "hit": false,
      "t": 140652.30049999998,
      "d": 108.6957500000135,
      "v": 100
    },
    {
      "midi": 55,
      "hit": false,
      "t": 140652.30050000036,
      "d": 108.6957500000135,
      "v": 100
    },
    {
      "midi": 50,
      "hit": false,
      "t": 140760.99624999968,
      "d": 45.28989583332441,
      "v": 100
    },
    {
      "midi": 40,
      "hit": false,
      "t": 140760.99625,
      "d": 108.6957500000135,
      "v": 100
    },
    {
      "midi": 48,
      "hit": false,
      "t": 140760.99625000037,
      "d": 108.6957500000135,
      "v": 100
    },
    {
      "midi": 42,
      "hit": false,
      "t": 140869.691999999,
      "d": 217.3914999999979,
      "v": 100
    },
    {
      "midi": 36,
      "hit": false,
      "t": 140869.69199999952,
      "d": 434.7829999999958,
      "v": 100
    },
    {
      "midi": 36,
      "hit": false,
      "t": 140869.69199999966,
      "d": 45.28989583332441,
      "v": 100
    },
    {
      "midi": 42,
      "hit": false,
      "t": 140869.692,
      "d": 217.3914999999979,
      "v": 100
    },
    {
      "midi": 35,
      "hit": false,
      "t": 140869.692,
      "d": 217.3914999999979,
      "v": 100
    },
    {
      "midi": 59,
      "hit": false,
      "t": 140869.692,
      "d": 434.7830000000249,
      "v": 100
    },
    {
      "midi": 48,
      "hit": false,
      "t": 140869.6920000004,
      "d": 108.6957500000135,
      "v": 100
    },
    {
      "midi": 36,
      "hit": false,
      "t": 140978.38774999965,
      "d": 45.28989583332441,
      "v": 100
    },
    {
      "midi": 48,
      "hit": false,
      "t": 140978.3877500004,
      "d": 108.6957500000135,
      "v": 100
    },
    {
      "midi": 46,
      "hit": false,
      "t": 141087.083499999,
      "d": 217.3914999999979,
      "v": 100
    },
    {
      "midi": 36,
      "hit": false,
      "t": 141087.08349999963,
      "d": 86.05080208333675,
      "v": 100
    },
    {
      "midi": 42,
      "hit": false,
      "t": 141087.0835,
      "d": 108.6957500000135,
      "v": 100
    },
    {
      "midi": 48,
      "hit": false,
      "t": 141087.08350000042,
      "d": 108.6957500000135,
      "v": 100
    },
    {
      "midi": 42,
      "hit": false,
      "t": 141195.77925000002,
      "d": 108.6957500000135,
      "v": 100
    },
    {
      "midi": 51,
      "hit": false,
      "t": 141195.77925000043,
      "d": 217.3914999999979,
      "v": 100
    },
    {
      "midi": 42,
      "hit": false,
      "t": 141304.474999999,
      "d": 217.3914999999979,
      "v": 100
    },
    {
      "midi": 40,
      "hit": false,
      "t": 141304.474999999,
      "d": 217.3914999999979,
      "v": 100
    },
    {
      "midi": 84,
      "hit": false,
      "t": 141304.47499999922,
      "d": 217.3914999999979,
      "v": 100
    },
    {
      "midi": 48,
      "hit": false,
      "t": 141304.4749999995,
      "d": 217.3914999999979,
      "v": 100
    },
    {
      "midi": 36,
      "hit": false,
      "t": 141304.47499999963,
      "d": 45.28989583332441,
      "v": 100
    },
    {
      "midi": 40,
      "hit": false,
      "t": 141304.47500000003,
      "d": 108.6957500000135,
      "v": 100
    },
    {
      "midi": 35,
      "hit": false,
      "t": 141304.47500000003,
      "d": 217.391500000027,
      "v": 100
    },
    {
      "midi": 42,
      "hit": false,
      "t": 141304.47500000003,
      "d": 217.391500000027,
      "v": 100
    },
    {
      "midi": 59,
      "hit": false,
      "t": 141304.47500000003,
      "d": 434.783000000054,
      "v": 100
    },
    {
      "midi": 48,
      "hit": false,
      "t": 141413.1707499996,
      "d": 45.28989583332441,
      "v": 100
    },
    {
      "midi": 60,
      "hit": false,
      "t": 141413.17075000005,
      "d": 326.0872500000114,
      "v": 100
    },
    {
      "midi": 55,
      "hit": false,
      "t": 141413.17075000005,
      "d": 326.0872500000114,
      "v": 100
    },
    {
      "midi": 62,
      "hit": false,
      "t": 141413.17075000005,
      "d": 326.0872500000114,
      "v": 100
    },
    {
      "midi": 62,
      "hit": false,
      "t": 141413.17075000005,
      "d": 326.0872500000114,
      "v": 100
    },
    {
      "midi": 55,
      "hit": false,
      "t": 141413.17075000005,
      "d": 326.0872500000114,
      "v": 100
    },
    {
      "midi": 48,
      "hit": false,
      "t": 141413.17075000043,
      "d": 108.6957500000135,
      "v": 100
    },
    {
      "midi": 46,
      "hit": false,
      "t": 141521.86649999899,
      "d": 217.3914999999979,
      "v": 100
    },
    {
      "midi": 36,
      "hit": false,
      "t": 141521.8664999995,
      "d": 217.3914999999979,
      "v": 100
    },
    {
      "midi": 42,
      "hit": false,
      "t": 141521.86650000006,
      "d": 108.6957500000135,
      "v": 100
    },
    {
      "midi": 48,
      "hit": false,
      "t": 141521.86650000044,
      "d": 108.6957500000135,
      "v": 100
    },
    {
      "midi": 43,
      "hit": false,
      "t": 141630.5622499996,
      "d": 45.28989583332441,
      "v": 100
    },
    {
      "midi": 40,
      "hit": false,
      "t": 141630.56225000008,
      "d": 108.6957500000135,
      "v": 100
    },
    {
      "midi": 42,
      "hit": false,
      "t": 141630.56225000008,
      "d": 108.6957500000135,
      "v": 100
    },
    {
      "midi": 48,
      "hit": false,
      "t": 141630.56225000045,
      "d": 108.6957500000135,
      "v": 100
    },
    {
      "midi": 42,
      "hit": false,
      "t": 141739.25799999898,
      "d": 217.3914999999979,
      "v": 100
    },
    {
      "midi": 36,
      "hit": false,
      "t": 141739.2579999995,
      "d": 108.6957500000135,
      "v": 100
    },
    {
      "midi": 60,
      "hit": false,
      "t": 141739.25800000006,
      "d": 326.0872500000114,
      "v": 100
    },
    {
      "midi": 55,
      "hit": false,
      "t": 141739.25800000006,
      "d": 326.0872500000114,
      "v": 100
    },
    {
      "midi": 62,
      "hit": false,
      "t": 141739.25800000006,
      "d": 326.0872500000114,
      "v": 100
    },
    {
      "midi": 62,
      "hit": false,
      "t": 141739.25800000006,
      "d": 326.0872500000114,
      "v": 100
    },
    {
      "midi": 55,
      "hit": false,
      "t": 141739.25800000006,
      "d": 326.0872500000114,
      "v": 100
    },
    {
      "midi": 35,
      "hit": false,
      "t": 141739.2580000001,
      "d": 217.391500000027,
      "v": 100
    },
    {
      "midi": 42,
      "hit": false,
      "t": 141739.2580000001,
      "d": 217.391500000027,
      "v": 100
    },
    {
      "midi": 59,
      "hit": false,
      "t": 141739.2580000001,
      "d": 434.783000000054,
      "v": 100
    },
    {
      "midi": 51,
      "hit": false,
      "t": 141739.25800000047,
      "d": 217.3914999999979,
      "v": 100
    },
    {
      "midi": 36,
      "hit": false,
      "t": 141847.95374999952,
      "d": 108.6957500000135,
      "v": 100
    },
    {
      "midi": 41,
      "hit": false,
      "t": 141847.9537499996,
      "d": 45.28989583332441,
      "v": 100
    },
    {
      "midi": 40,
      "hit": false,
      "t": 141847.9537500001,
      "d": 108.6957500000135,
      "v": 100
    },
    {
      "midi": 46,
      "hit": false,
      "t": 141956.64949999898,
      "d": 217.3914999999979,
      "v": 100
    },
    {
      "midi": 36,
      "hit": false,
      "t": 141956.64949999953,
      "d": 217.3914999999979,
      "v": 100
    },
    {
      "midi": 41,
      "hit": false,
      "t": 141956.6494999996,
      "d": 86.05080208333675,
      "v": 100
    },
    {
      "midi": 40,
      "hit": false,
      "t": 141956.64950000012,
      "d": 108.6957500000135,
      "v": 100
    },
    {
      "midi": 46,
      "hit": false,
      "t": 141956.64950000012,
      "d": 217.391500000027,
      "v": 100
    },
    {
      "midi": 48,
      "hit": false,
      "t": 141956.64950000047,
      "d": 108.6957500000135,
      "v": 100
    },
    {
      "midi": 60,
      "hit": false,
      "t": 142065.34525000007,
      "d": 326.0872500000114,
      "v": 100
    },
    {
      "midi": 55,
      "hit": false,
      "t": 142065.34525000007,
      "d": 326.0872500000114,
      "v": 100
    },
    {
      "midi": 62,
      "hit": false,
      "t": 142065.34525000007,
      "d": 326.0872500000114,
      "v": 100
    },
    {
      "midi": 62,
      "hit": false,
      "t": 142065.34525000007,
      "d": 326.0872500000114,
      "v": 100
    },
    {
      "midi": 55,
      "hit": false,
      "t": 142065.34525000007,
      "d": 326.0872500000114,
      "v": 100
    },
    {
      "midi": 48,
      "hit": false,
      "t": 142065.34525000048,
      "d": 108.6957500000135,
      "v": 100
    },
    {
      "midi": 40,
      "hit": false,
      "t": 142174.04099999898,
      "d": 217.3914999999979,
      "v": 100
    },
    {
      "midi": 42,
      "hit": false,
      "t": 142174.04099999898,
      "d": 217.3914999999979,
      "v": 100
    },
    {
      "midi": 84,
      "hit": false,
      "t": 142174.0409999992,
      "d": 108.6957500000135,
      "v": 100
    },
    {
      "midi": 48,
      "hit": false,
      "t": 142174.04099999953,
      "d": 217.3914999999979,
      "v": 100
    },
    {
      "midi": 43,
      "hit": false,
      "t": 142174.0409999996,
      "d": 45.28989583332441,
      "v": 100
    },
    {
      "midi": 40,
      "hit": false,
      "t": 142174.04100000014,
      "d": 108.6957500000135,
      "v": 100
    },
    {
      "midi": 35,
      "hit": false,
      "t": 142174.04100000014,
      "d": 217.391500000027,
      "v": 100
    },
    {
      "midi": 59,
      "hit": false,
      "t": 142174.04100000014,
      "d": 434.783000000054,
      "v": 100
    },
    {
      "midi": 53,
      "hit": false,
      "t": 142174.0410000005,
      "d": 108.6957500000135,
      "v": 100
    },
    {
      "midi": 79,
      "hit": false,
      "t": 142282.73674999923,
      "d": 108.6957500000135,
      "v": 100
    },
    {
      "midi": 45,
      "hit": false,
      "t": 142282.73674999957,
      "d": 45.28989583332441,
      "v": 100
    },
    {
      "midi": 40,
      "hit": false,
      "t": 142282.73675000016,
      "d": 108.6957500000135,
      "v": 100
    },
    {
      "midi": 48,
      "hit": false,
      "t": 142282.7367500005,
      "d": 108.6957500000135,
      "v": 100
    },
    {
      "midi": 46,
      "hit": false,
      "t": 142391.43249999898,
      "d": 217.3914999999979,
      "v": 100
    },
    {
      "midi": 72,
      "hit": false,
      "t": 142391.43249999924,
      "d": 108.6957500000135,
      "v": 100
    },
    {
      "midi": 36,
      "hit": false,
      "t": 142391.43249999953,
      "d": 217.3914999999979,
      "v": 100
    },
    {
      "midi": 46,
      "hit": false,
      "t": 142391.43249999956,
      "d": 45.28989583332441,
      "v": 100
    },
    {
      "midi": 40,
      "hit": false,
      "t": 142391.43250000017,
      "d": 108.6957500000135,
      "v": 100
    },
    {
      "midi": 55,
      "hit": false,
      "t": 142391.43250000052,
      "d": 108.6957500000135,
      "v": 100
    },
    {
      "midi": 67,
      "hit": false,
      "t": 142500.12824999925,
      "d": 108.6957500000135,
      "v": 100
    },
    {
      "midi": 50,
      "hit": false,
      "t": 142500.12824999954,
      "d": 45.28989583332441,
      "v": 100
    },
    {
      "midi": 60,
      "hit": false,
      "t": 142500.1282500001,
      "d": 108.6957500000135,
      "v": 100
    },
    {
      "midi": 55,
      "hit": false,
      "t": 142500.1282500001,
      "d": 108.6957500000135,
      "v": 100
    },
    {
      "midi": 62,
      "hit": false,
      "t": 142500.1282500001,
      "d": 108.6957500000135,
      "v": 100
    },
    {
      "midi": 62,
      "hit": false,
      "t": 142500.1282500001,
      "d": 108.6957500000135,
      "v": 100
    },
    {
      "midi": 55,
      "hit": false,
      "t": 142500.1282500001,
      "d": 108.6957500000135,
      "v": 100
    },
    {
      "midi": 40,
      "hit": false,
      "t": 142500.12825000018,
      "d": 108.6957500000135,
      "v": 100
    },
    {
      "midi": 48,
      "hit": false,
      "t": 142500.12825000053,
      "d": 108.6957500000135,
      "v": 100
    },
    {
      "midi": 49,
      "hit": false,
      "t": 142608.82399999897,
      "d": 217.3914999999979,
      "v": 100
    },
    {
      "midi": 42,
      "hit": false,
      "t": 142608.82399999897,
      "d": 217.3914999999979,
      "v": 100
    },
    {
      "midi": 36,
      "hit": false,
      "t": 142608.82399999953,
      "d": 45.28989583332441,
      "v": 100
    },
    {
      "midi": 36,
      "hit": false,
      "t": 142608.82399999953,
      "d": 434.7829999999958,
      "v": 100
    },
    {
      "midi": 65,
      "hit": false,
      "t": 142608.82399999994,
      "d": 3478.2639999999956,
      "v": 100
    },
    {
      "midi": 58,
      "hit": false,
      "t": 142608.82399999994,
      "d": 3478.2639999999956,
      "v": 100
    },
    {
      "midi": 48,
      "hit": false,
      "t": 142608.82399999994,
      "d": 3478.2639999999956,
      "v": 100
    },
    {
      "midi": 55,
      "hit": false,
      "t": 142608.82399999994,
      "d": 3478.2639999999956,
      "v": 100
    },
    {
      "midi": 62,
      "hit": false,
      "t": 142608.82399999994,
      "d": 3478.2639999999956,
      "v": 100
    },
    {
      "midi": 48,
      "hit": false,
      "t": 142608.82399999994,
      "d": 3478.2639999999956,
      "v": 100
    },
    {
      "midi": 58,
      "hit": false,
      "t": 142608.82399999994,
      "d": 3478.2639999999956,
      "v": 100
    },
    {
      "midi": 65,
      "hit": false,
      "t": 142608.82399999994,
      "d": 3478.2639999999956,
      "v": 100
    },
    {
      "midi": 62,
      "hit": false,
      "t": 142608.82399999994,
      "d": 3478.2639999999956,
      "v": 100
    },
    {
      "midi": 55,
      "hit": false,
      "t": 142608.82399999994,
      "d": 3478.2639999999956,
      "v": 100
    },
    {
      "midi": 65,
      "hit": false,
      "t": 142608.82399999996,
      "d": 3478.2639999999956,
      "v": 100
    },
    {
      "midi": 55,
      "hit": false,
      "t": 142608.8240000001,
      "d": 326.0872500000114,
      "v": 100
    },
    {
      "midi": 58,
      "hit": false,
      "t": 142608.8240000001,
      "d": 326.0872500000114,
      "v": 100
    },
    {
      "midi": 65,
      "hit": false,
      "t": 142608.8240000001,
      "d": 326.0872500000114,
      "v": 100
    },
    {
      "midi": 62,
      "hit": false,
      "t": 142608.8240000001,
      "d": 326.0872500000114,
      "v": 100
    },
    {
      "midi": 58,
      "hit": false,
      "t": 142608.8240000001,
      "d": 326.0872500000114,
      "v": 100
    },
    {
      "midi": 55,
      "hit": false,
      "t": 142608.8240000001,
      "d": 326.0872500000114,
      "v": 100
    },
    {
      "midi": 62,
      "hit": false,
      "t": 142608.8240000001,
      "d": 326.0872500000114,
      "v": 100
    },
    {
      "midi": 65,
      "hit": false,
      "t": 142608.8240000001,
      "d": 326.0872500000114,
      "v": 100
    },
    {
      "midi": 42,
      "hit": false,
      "t": 142608.8240000002,
      "d": 217.3914999999979,
      "v": 100
    },
    {
      "midi": 35,
      "hit": false,
      "t": 142608.8240000002,
      "d": 217.3914999999979,
      "v": 100
    },
    {
      "midi": 59,
      "hit": false,
      "t": 142608.8240000002,
      "d": 434.7830000000249,
      "v": 100
    },
    {
      "midi": 48,
      "hit": false,
      "t": 142608.82400000055,
      "d": 108.6957500000135,
      "v": 100
    },
    {
      "midi": 48,
      "hit": false,
      "t": 142717.51975000056,
      "d": 108.6957500000135,
      "v": 100
    },
    {
      "midi": 46,
      "hit": false,
      "t": 142826.21549999897,
      "d": 217.3914999999979,
      "v": 100
    },
    {
      "midi": 36,
      "hit": false,
      "t": 142826.21549999953,
      "d": 45.28989583332441,
      "v": 100
    },
    {
      "midi": 42,
      "hit": false,
      "t": 142826.2155000002,
      "d": 108.6957500000135,
      "v": 100
    },
    {
      "midi": 48,
      "hit": false,
      "t": 142826.21550000057,
      "d": 108.6957500000135,
      "v": 100
    },
    {
      "midi": 55,
      "hit": false,
      "t": 142934.91125000012,
      "d": 326.0872500000114,
      "v": 100
    },
    {
      "midi": 62,
      "hit": false,
      "t": 142934.91125000012,
      "d": 326.0872500000114,
      "v": 100
    },
    {
      "midi": 58,
      "hit": false,
      "t": 142934.91125000012,
      "d": 326.0872500000114,
      "v": 100
    },
    {
      "midi": 65,
      "hit": false,
      "t": 142934.91125000012,
      "d": 326.0872500000114,
      "v": 100
    },
    {
      "midi": 62,
      "hit": false,
      "t": 142934.91125000012,
      "d": 326.0872500000114,
      "v": 100
    },
    {
      "midi": 55,
      "hit": false,
      "t": 142934.91125000012,
      "d": 326.0872500000114,
      "v": 100
    },
    {
      "midi": 65,
      "hit": false,
      "t": 142934.91125000012,
      "d": 326.0872500000114,
      "v": 100
    },
    {
      "midi": 58,
      "hit": false,
      "t": 142934.91125000012,
      "d": 326.0872500000114,
      "v": 100
    },
    {
      "midi": 42,
      "hit": false,
      "t": 142934.9112500002,
      "d": 108.6957500000135,
      "v": 100
    },
    {
      "midi": 51,
      "hit": false,
      "t": 142934.9112500006,
      "d": 217.3914999999979,
      "v": 100
    },
    {
      "midi": 40,
      "hit": false,
      "t": 143043.60699999897,
      "d": 217.3914999999979,
      "v": 100
    },
    {
      "midi": 42,
      "hit": false,
      "t": 143043.60699999897,
      "d": 217.3914999999979,
      "v": 100
    },
    {
      "midi": 84,
      "hit": false,
      "t": 143043.60699999926,
      "d": 217.3914999999979,
      "v": 100
    },
    {
      "midi": 36,
      "hit": false,
      "t": 143043.60699999952,
      "d": 45.28989583332441,
      "v": 100
    },
    {
      "midi": 48,
      "hit": false,
      "t": 143043.60699999952,
      "d": 217.3914999999979,
      "v": 100
    },
    {
      "midi": 40,
      "hit": false,
      "t": 143043.60700000022,
      "d": 217.3914999999979,
      "v": 100
    },
    {
      "midi": 35,
      "hit": false,
      "t": 143043.60700000022,
      "d": 217.3914999999979,
      "v": 100
    },
    {
      "midi": 42,
      "hit": false,
      "t": 143043.60700000022,
      "d": 217.3914999999979,
      "v": 100
    },
    {
      "midi": 59,
      "hit": false,
      "t": 143043.60700000022,
      "d": 434.7830000000249,
      "v": 100
    },
    {
      "midi": 48,
      "hit": false,
      "t": 143152.3027499995,
      "d": 45.28989583332441,
      "v": 100
    },
    {
      "midi": 48,
      "hit": false,
      "t": 143152.30275000058,
      "d": 108.6957500000135,
      "v": 100
    },
    {
      "midi": 46,
      "hit": false,
      "t": 143260.99849999897,
      "d": 217.3914999999979,
      "v": 100
    },
    {
      "midi": 36,
      "hit": false,
      "t": 143260.99849999952,
      "d": 217.3914999999979,
      "v": 100
    },
    {
      "midi": 55,
      "hit": false,
      "t": 143260.99850000013,
      "d": 326.0872500000114,
      "v": 100
    },
    {
      "midi": 62,
      "hit": false,
      "t": 143260.99850000013,
      "d": 326.0872500000114,
      "v": 100
    },
    {
      "midi": 65,
      "hit": false,
      "t": 143260.99850000013,
      "d": 326.0872500000114,
      "v": 100
    },
    {
      "midi": 58,
      "hit": false,
      "t": 143260.99850000013,
      "d": 326.0872500000114,
      "v": 100
    },
    {
      "midi": 62,
      "hit": false,
      "t": 143260.99850000013,
      "d": 326.0872500000114,
      "v": 100
    },
    {
      "midi": 55,
      "hit": false,
      "t": 143260.99850000013,
      "d": 326.0872500000114,
      "v": 100
    },
    {
      "midi": 58,
      "hit": false,
      "t": 143260.99850000013,
      "d": 326.0872500000114,
      "v": 100
    },
    {
      "midi": 65,
      "hit": false,
      "t": 143260.99850000013,
      "d": 326.0872500000114,
      "v": 100
    },
    {
      "midi": 42,
      "hit": false,
      "t": 143260.99850000022,
      "d": 108.6957500000135,
      "v": 100
    },
    {
      "midi": 48,
      "hit": false,
      "t": 143260.9985000006,
      "d": 108.6957500000135,
      "v": 100
    },
    {
      "midi": 43,
      "hit": false,
      "t": 143369.6942499995,
      "d": 45.28989583332441,
      "v": 100
    },
    {
      "midi": 40,
      "hit": false,
      "t": 143369.69425000023,
      "d": 108.6957500000135,
      "v": 100
    },
    {
      "midi": 42,
      "hit": false,
      "t": 143369.69425000023,
      "d": 108.6957500000135,
      "v": 100
    },
    {
      "midi": 48,
      "hit": false,
      "t": 143369.6942500006,
      "d": 108.6957500000135,
      "v": 100
    },
    {
      "midi": 42,
      "hit": false,
      "t": 143478.38999999897,
      "d": 217.3914999999979,
      "v": 100
    },
    {
      "midi": 36,
      "hit": false,
      "t": 143478.38999999952,
      "d": 108.6957500000135,
      "v": 100
    },
    {
      "midi": 35,
      "hit": false,
      "t": 143478.39000000025,
      "d": 217.391500000027,
      "v": 100
    },
    {
      "midi": 42,
      "hit": false,
      "t": 143478.39000000025,
      "d": 217.391500000027,
      "v": 100
    },
    {
      "midi": 59,
      "hit": false,
      "t": 143478.39000000025,
      "d": 434.7830000000249,
      "v": 100
    },
    {
      "midi": 51,
      "hit": false,
      "t": 143478.39000000063,
      "d": 217.3914999999979,
      "v": 100
    },
    {
      "midi": 41,
      "hit": false,
      "t": 143587.0857499995,
      "d": 45.28989583332441,
      "v": 100
    },
    {
      "midi": 36,
      "hit": false,
      "t": 143587.08574999953,
      "d": 108.6957500000135,
      "v": 100
    },
    {
      "midi": 55,
      "hit": false,
      "t": 143587.08575000014,
      "d": 326.0872500000114,
      "v": 100
    },
    {
      "midi": 62,
      "hit": false,
      "t": 143587.08575000014,
      "d": 326.0872500000114,
      "v": 100
    },
    {
      "midi": 65,
      "hit": false,
      "t": 143587.08575000014,
      "d": 326.0872500000114,
      "v": 100
    },
    {
      "midi": 58,
      "hit": false,
      "t": 143587.08575000014,
      "d": 326.0872500000114,
      "v": 100
    },
    {
      "midi": 62,
      "hit": false,
      "t": 143587.08575000014,
      "d": 326.0872500000114,
      "v": 100
    },
    {
      "midi": 55,
      "hit": false,
      "t": 143587.08575000014,
      "d": 326.0872500000114,
      "v": 100
    },
    {
      "midi": 58,
      "hit": false,
      "t": 143587.08575000014,
      "d": 326.0872500000114,
      "v": 100
    },
    {
      "midi": 65,
      "hit": false,
      "t": 143587.08575000014,
      "d": 326.0872500000114,
      "v": 100
    },
    {
      "midi": 40,
      "hit": false,
      "t": 143587.08575000026,
      "d": 108.6957500000135,
      "v": 100
    },
    {
      "midi": 46,
      "hit": false,
      "t": 143695.78149999896,
      "d": 217.3914999999979,
      "v": 100
    },
    {
      "midi": 41,
      "hit": false,
      "t": 143695.7814999995,
      "d": 86.05080208333675,
      "v": 100
    },
    {
      "midi": 36,
      "hit": false,
      "t": 143695.78149999955,
      "d": 217.3914999999979,
      "v": 100
    },
    {
      "midi": 46,
      "hit": false,
      "t": 143695.78150000027,
      "d": 217.3914999999979,
      "v": 100
    },
    {
      "midi": 48,
      "hit": false,
      "t": 143695.78150000062,
      "d": 108.6957500000135,
      "v": 100
    },
    {
      "midi": 48,
      "hit": false,
      "t": 143804.47725000064,
      "d": 108.6957500000135,
      "v": 100
    },
    {
      "midi": 40,
      "hit": false,
      "t": 143913.17299999896,
      "d": 217.3914999999979,
      "v": 100
    },
    {
      "midi": 42,
      "hit": false,
      "t": 143913.17299999896,
      "d": 217.3914999999979,
      "v": 100
    },
    {
      "midi": 84,
      "hit": false,
      "t": 143913.17299999925,
      "d": 217.3914999999979,
      "v": 100
    },
    {
      "midi": 43,
      "hit": false,
      "t": 143913.1729999995,
      "d": 45.28989583332441,
      "v": 100
    },
    {
      "midi": 48,
      "hit": false,
      "t": 143913.17299999954,
      "d": 217.3914999999979,
      "v": 100
    },
    {
      "midi": 40,
      "hit": false,
      "t": 143913.17300000027,
      "d": 108.6957500000135,
      "v": 100
    },
    {
      "midi": 35,
      "hit": false,
      "t": 143913.17300000027,
      "d": 217.391500000027,
      "v": 100
    },
    {
      "midi": 59,
      "hit": false,
      "t": 143913.17300000027,
      "d": 434.783000000054,
      "v": 100
    },
    {
      "midi": 53,
      "hit": false,
      "t": 143913.17300000065,
      "d": 108.6957500000135,
      "v": 100
    },
    {
      "midi": 45,
      "hit": false,
      "t": 144021.86874999947,
      "d": 45.28989583332441,
      "v": 100
    },
    {
      "midi": 58,
      "hit": false,
      "t": 144021.86875000017,
      "d": 108.6957500000135,
      "v": 100
    },
    {
      "midi": 62,
      "hit": false,
      "t": 144021.86875000017,
      "d": 108.6957500000135,
      "v": 100
    },
    {
      "midi": 55,
      "hit": false,
      "t": 144021.86875000017,
      "d": 108.6957500000135,
      "v": 100
    },
    {
      "midi": 65,
      "hit": false,
      "t": 144021.86875000017,
      "d": 108.6957500000135,
      "v": 100
    },
    {
      "midi": 62,
      "hit": false,
      "t": 144021.86875000017,
      "d": 108.6957500000135,
      "v": 100
    },
    {
      "midi": 58,
      "hit": false,
      "t": 144021.86875000017,
      "d": 108.6957500000135,
      "v": 100
    },
    {
      "midi": 65,
      "hit": false,
      "t": 144021.86875000017,
      "d": 108.6957500000135,
      "v": 100
    },
    {
      "midi": 55,
      "hit": false,
      "t": 144021.86875000017,
      "d": 108.6957500000135,
      "v": 100
    },
    {
      "midi": 48,
      "hit": false,
      "t": 144021.86875000066,
      "d": 108.6957500000135,
      "v": 100
    },
    {
      "midi": 49,
      "hit": false,
      "t": 144130.56449999896,
      "d": 217.3914999999979,
      "v": 100
    },
    {
      "midi": 46,
      "hit": false,
      "t": 144130.56449999896,
      "d": 217.3914999999979,
      "v": 100
    },
    {
      "midi": 46,
      "hit": false,
      "t": 144130.56449999945,
      "d": 45.28989583332441,
      "v": 100
    },
    {
      "midi": 36,
      "hit": false,
      "t": 144130.56449999954,
      "d": 217.3914999999979,
      "v": 100
    },
    {
      "midi": 35,
      "hit": false,
      "t": 144130.5645000003,
      "d": 108.6957500000135,
      "v": 100
    },
    {
      "midi": 55,
      "hit": false,
      "t": 144130.56450000068,
      "d": 108.6957500000135,
      "v": 100
    },
    {
      "midi": 50,
      "hit": false,
      "t": 144239.26024999944,
      "d": 45.28989583332441,
      "v": 100
    },
    {
      "midi": 48,
      "hit": false,
      "t": 144239.2602500007,
      "d": 108.6957500000135,
      "v": 100
    },
    {
      "midi": 42,
      "hit": false,
      "t": 144347.95599999896,
      "d": 217.3914999999979,
      "v": 100
    },
    {
      "midi": 36,
      "hit": false,
      "t": 144347.95599999942,
      "d": 45.28989583332441,
      "v": 100
    },
    {
      "midi": 36,
      "hit": false,
      "t": 144347.95599999954,
      "d": 434.7829999999958,
      "v": 100
    },
    {
      "midi": 35,
      "hit": false,
      "t": 144347.95600000033,
      "d": 217.3914999999979,
      "v": 100
    },
    {
      "midi": 42,
      "hit": false,
      "t": 144347.95600000033,
      "d": 217.3914999999979,
      "v": 100
    },
    {
      "midi": 59,
      "hit": false,
      "t": 144347.95600000033,
      "d": 434.7830000000249,
      "v": 100
    },
    {
      "midi": 48,
      "hit": false,
      "t": 144347.9560000007,
      "d": 108.6957500000135,
      "v": 100
    },
    {
      "midi": 36,
      "hit": false,
      "t": 144456.6517499994,
      "d": 45.28989583332441,
      "v": 100
    },
    {
      "midi": 48,
      "hit": false,
      "t": 144456.65175000072,
      "d": 108.6957500000135,
      "v": 100
    },
    {
      "midi": 46,
      "hit": false,
      "t": 144565.34749999896,
      "d": 217.3914999999979,
      "v": 100
    },
    {
      "midi": 36,
      "hit": false,
      "t": 144565.3474999994,
      "d": 86.05080208333675,
      "v": 100
    },
    {
      "midi": 42,
      "hit": false,
      "t": 144565.34750000032,
      "d": 108.6957500000135,
      "v": 100
    },
    {
      "midi": 48,
      "hit": false,
      "t": 144565.34750000073,
      "d": 108.6957500000135,
      "v": 100
    },
    {
      "midi": 62,
      "hit": false,
      "t": 144674.0432500002,
      "d": 326.0872500000114,
      "v": 100
    },
    {
      "midi": 55,
      "hit": false,
      "t": 144674.0432500002,
      "d": 326.0872500000114,
      "v": 100
    },
    {
      "midi": 65,
      "hit": false,
      "t": 144674.0432500002,
      "d": 326.0872500000114,
      "v": 100
    },
    {
      "midi": 58,
      "hit": false,
      "t": 144674.0432500002,
      "d": 326.0872500000114,
      "v": 100
    },
    {
      "midi": 55,
      "hit": false,
      "t": 144674.0432500002,
      "d": 326.0872500000114,
      "v": 100
    },
    {
      "midi": 62,
      "hit": false,
      "t": 144674.0432500002,
      "d": 326.0872500000114,
      "v": 100
    },
    {
      "midi": 58,
      "hit": false,
      "t": 144674.0432500002,
      "d": 326.0872500000114,
      "v": 100
    },
    {
      "midi": 65,
      "hit": false,
      "t": 144674.0432500002,
      "d": 326.0872500000114,
      "v": 100
    },
    {
      "midi": 42,
      "hit": false,
      "t": 144674.04325000034,
      "d": 108.6957500000135,
      "v": 100
    },
    {
      "midi": 51,
      "hit": false,
      "t": 144674.04325000074,
      "d": 217.3914999999979,
      "v": 100
    },
    {
      "midi": 42,
      "hit": false,
      "t": 144782.73899999895,
      "d": 217.3914999999979,
      "v": 100
    },
    {
      "midi": 40,
      "hit": false,
      "t": 144782.73899999895,
      "d": 217.3914999999979,
      "v": 100
    },
    {
      "midi": 84,
      "hit": false,
      "t": 144782.73899999924,
      "d": 217.3914999999979,
      "v": 100
    },
    {
      "midi": 36,
      "hit": false,
      "t": 144782.7389999994,
      "d": 45.28989583332441,
      "v": 100
    },
    {
      "midi": 48,
      "hit": false,
      "t": 144782.73899999954,
      "d": 217.3914999999979,
      "v": 100
    },
    {
      "midi": 40,
      "hit": false,
      "t": 144782.73900000035,
      "d": 108.6957500000135,
      "v": 100
    },
    {
      "midi": 42,
      "hit": false,
      "t": 144782.73900000035,
      "d": 217.391500000027,
      "v": 100
    },
    {
      "midi": 35,
      "hit": false,
      "t": 144782.73900000035,
      "d": 217.391500000027,
      "v": 100
    },
    {
      "midi": 59,
      "hit": false,
      "t": 144782.73900000035,
      "d": 434.783000000054,
      "v": 100
    },
    {
      "midi": 48,
      "hit": false,
      "t": 144891.43474999937,
      "d": 45.28989583332441,
      "v": 100
    },
    {
      "midi": 48,
      "hit": false,
      "t": 144891.43475000074,
      "d": 108.6957500000135,
      "v": 100
    },
    {
      "midi": 46,
      "hit": false,
      "t": 145000.13049999895,
      "d": 217.3914999999979,
      "v": 100
    },
    {
      "midi": 36,
      "hit": false,
      "t": 145000.13049999953,
      "d": 217.3914999999979,
      "v": 100
    },
    {
      "midi": 62,
      "hit": false,
      "t": 145000.1305000002,
      "d": 326.0872500000114,
      "v": 100
    },
    {
      "midi": 55,
      "hit": false,
      "t": 145000.1305000002,
      "d": 326.0872500000114,
      "v": 100
    },
    {
      "midi": 58,
      "hit": false,
      "t": 145000.1305000002,
      "d": 326.0872500000114,
      "v": 100
    },
    {
      "midi": 65,
      "hit": false,
      "t": 145000.1305000002,
      "d": 326.0872500000114,
      "v": 100
    },
    {
      "midi": 55,
      "hit": false,
      "t": 145000.1305000002,
      "d": 326.0872500000114,
      "v": 100
    },
    {
      "midi": 62,
      "hit": false,
      "t": 145000.1305000002,
      "d": 326.0872500000114,
      "v": 100
    },
    {
      "midi": 65,
      "hit": false,
      "t": 145000.1305000002,
      "d": 326.0872500000114,
      "v": 100
    },
    {
      "midi": 58,
      "hit": false,
      "t": 145000.1305000002,
      "d": 326.0872500000114,
      "v": 100
    },
    {
      "midi": 42,
      "hit": false,
      "t": 145000.13050000038,
      "d": 108.6957500000135,
      "v": 100
    },
    {
      "midi": 48,
      "hit": false,
      "t": 145000.13050000076,
      "d": 108.6957500000135,
      "v": 100
    },
    {
      "midi": 43,
      "hit": false,
      "t": 145108.82624999937,
      "d": 45.28989583332441,
      "v": 100
    },
    {
      "midi": 42,
      "hit": false,
      "t": 145108.8262500004,
      "d": 108.6957500000135,
      "v": 100
    },
    {
      "midi": 40,
      "hit": false,
      "t": 145108.8262500004,
      "d": 108.6957500000135,
      "v": 100
    },
    {
      "midi": 48,
      "hit": false,
      "t": 145108.82625000077,
      "d": 108.6957500000135,
      "v": 100
    },
    {
      "midi": 42,
      "hit": false,
      "t": 145217.52199999895,
      "d": 217.3914999999979,
      "v": 100
    },
    {
      "midi": 36,
      "hit": false,
      "t": 145217.52199999953,
      "d": 108.6957500000135,
      "v": 100
    },
    {
      "midi": 42,
      "hit": false,
      "t": 145217.5220000004,
      "d": 217.391500000027,
      "v": 100
    },
    {
      "midi": 35,
      "hit": false,
      "t": 145217.5220000004,
      "d": 217.391500000027,
      "v": 100
    },
    {
      "midi": 59,
      "hit": false,
      "t": 145217.5220000004,
      "d": 434.7830000000249,
      "v": 100
    },
    {
      "midi": 51,
      "hit": false,
      "t": 145217.52200000078,
      "d": 217.3914999999979,
      "v": 100
    },
    {
      "midi": 41,
      "hit": false,
      "t": 145326.21774999937,
      "d": 45.28989583332441,
      "v": 100
    },
    {
      "midi": 36,
      "hit": false,
      "t": 145326.21774999955,
      "d": 108.6957500000135,
      "v": 100
    },
    {
      "midi": 62,
      "hit": false,
      "t": 145326.2177500002,
      "d": 326.0872500000114,
      "v": 100
    },
    {
      "midi": 55,
      "hit": false,
      "t": 145326.2177500002,
      "d": 326.0872500000114,
      "v": 100
    },
    {
      "midi": 58,
      "hit": false,
      "t": 145326.2177500002,
      "d": 326.0872500000114,
      "v": 100
    },
    {
      "midi": 65,
      "hit": false,
      "t": 145326.2177500002,
      "d": 326.0872500000114,
      "v": 100
    },
    {
      "midi": 55,
      "hit": false,
      "t": 145326.2177500002,
      "d": 326.0872500000114,
      "v": 100
    },
    {
      "midi": 62,
      "hit": false,
      "t": 145326.2177500002,
      "d": 326.0872500000114,
      "v": 100
    },
    {
      "midi": 65,
      "hit": false,
      "t": 145326.2177500002,
      "d": 326.0872500000114,
      "v": 100
    },
    {
      "midi": 58,
      "hit": false,
      "t": 145326.2177500002,
      "d": 326.0872500000114,
      "v": 100
    },
    {
      "midi": 40,
      "hit": false,
      "t": 145326.21775000042,
      "d": 108.6957500000135,
      "v": 100
    },
    {
      "midi": 46,
      "hit": false,
      "t": 145434.91349999895,
      "d": 217.3914999999979,
      "v": 100
    },
    {
      "midi": 41,
      "hit": false,
      "t": 145434.91349999935,
      "d": 86.05080208333675,
      "v": 100
    },
    {
      "midi": 36,
      "hit": false,
      "t": 145434.91349999956,
      "d": 217.3914999999979,
      "v": 100
    },
    {
      "midi": 46,
      "hit": false,
      "t": 145434.91350000043,
      "d": 217.3914999999979,
      "v": 100
    },
    {
      "midi": 48,
      "hit": false,
      "t": 145434.91350000078,
      "d": 108.6957500000135,
      "v": 100
    },
    {
      "midi": 48,
      "hit": false,
      "t": 145543.6092500008,
      "d": 108.6957500000135,
      "v": 100
    },
    {
      "midi": 42,
      "hit": false,
      "t": 145652.30499999895,
      "d": 217.3914999999979,
      "v": 100
    },
    {
      "midi": 40,
      "hit": false,
      "t": 145652.30499999895,
      "d": 217.3914999999979,
      "v": 100
    },
    {
      "midi": 84,
      "hit": false,
      "t": 145652.30499999924,
      "d": 217.3914999999979,
      "v": 100
    },
    {
      "midi": 43,
      "hit": false,
      "t": 145652.30499999935,
      "d": 45.28989583332441,
      "v": 100
    },
    {
      "midi": 48,
      "hit": false,
      "t": 145652.30499999956,
      "d": 217.3914999999979,
      "v": 100
    },
    {
      "midi": 40,
      "hit": false,
      "t": 145652.30500000043,
      "d": 108.6957500000135,
      "v": 100
    },
    {
      "midi": 35,
      "hit": false,
      "t": 145652.30500000043,
      "d": 217.391500000027,
      "v": 100
    },
    {
      "midi": 59,
      "hit": false,
      "t": 145652.30500000043,
      "d": 434.783000000054,
      "v": 100
    },
    {
      "midi": 53,
      "hit": false,
      "t": 145652.3050000008,
      "d": 108.6957500000135,
      "v": 100
    },
    {
      "midi": 45,
      "hit": false,
      "t": 145761.00074999934,
      "d": 45.28989583332441,
      "v": 100
    },
    {
      "midi": 62,
      "hit": false,
      "t": 145761.00075000024,
      "d": 108.6957500000135,
      "v": 100
    },
    {
      "midi": 58,
      "hit": false,
      "t": 145761.00075000024,
      "d": 108.6957500000135,
      "v": 100
    },
    {
      "midi": 65,
      "hit": false,
      "t": 145761.00075000024,
      "d": 108.6957500000135,
      "v": 100
    },
    {
      "midi": 55,
      "hit": false,
      "t": 145761.00075000024,
      "d": 108.6957500000135,
      "v": 100
    },
    {
      "midi": 58,
      "hit": false,
      "t": 145761.00075000024,
      "d": 108.6957500000135,
      "v": 100
    },
    {
      "midi": 62,
      "hit": false,
      "t": 145761.00075000024,
      "d": 108.6957500000135,
      "v": 100
    },
    {
      "midi": 55,
      "hit": false,
      "t": 145761.00075000024,
      "d": 108.6957500000135,
      "v": 100
    },
    {
      "midi": 65,
      "hit": false,
      "t": 145761.00075000024,
      "d": 108.6957500000135,
      "v": 100
    },
    {
      "midi": 48,
      "hit": false,
      "t": 145761.00075000082,
      "d": 108.6957500000135,
      "v": 100
    },
    {
      "midi": 46,
      "hit": false,
      "t": 145869.69649999894,
      "d": 217.3914999999979,
      "v": 100
    },
    {
      "midi": 57,
      "hit": false,
      "t": 145869.69649999894,
      "d": 217.3914999999979,
      "v": 100
    },
    {
      "midi": 46,
      "hit": false,
      "t": 145869.69649999932,
      "d": 45.28989583332441,
      "v": 100
    },
    {
      "midi": 36,
      "hit": false,
      "t": 145869.69649999955,
      "d": 217.3914999999979,
      "v": 100
    },
    {
      "midi": 40,
      "hit": false,
      "t": 145869.69650000046,
      "d": 108.6957500000135,
      "v": 100
    },
    {
      "midi": 55,
      "hit": false,
      "t": 145869.69650000083,
      "d": 108.6957500000135,
      "v": 100
    },
    {
      "midi": 50,
      "hit": false,
      "t": 145978.3922499993,
      "d": 45.28989583332441,
      "v": 100
    },
    {
      "midi": 40,
      "hit": false,
      "t": 145978.39225000047,
      "d": 108.6957500000135,
      "v": 100
    },
    {
      "midi": 48,
      "hit": false,
      "t": 145978.39225000085,
      "d": 108.6957500000135,
      "v": 100
    },
    {
      "midi": 49,
      "hit": false,
      "t": 146087.08799999894,
      "d": 217.3914999999979,
      "v": 100
    },
    {
      "midi": 42,
      "hit": false,
      "t": 146087.08799999894,
      "d": 217.3914999999979,
      "v": 100
    },
    {
      "midi": 36,
      "hit": false,
      "t": 146087.0879999993,
      "d": 45.28989583332441,
      "v": 100
    },
    {
      "midi": 36,
      "hit": false,
      "t": 146087.08799999955,
      "d": 434.7829999999958,
      "v": 100
    },
    {
      "midi": 56,
      "hit": false,
      "t": 146087.08799999993,
      "d": 3478.2639999999956,
      "v": 100
    },
    {
      "midi": 63,
      "hit": false,
      "t": 146087.08799999993,
      "d": 3478.2639999999956,
      "v": 100
    },
    {
      "midi": 53,
      "hit": false,
      "t": 146087.08799999993,
      "d": 3478.2639999999956,
      "v": 100
    },
    {
      "midi": 68,
      "hit": false,
      "t": 146087.08799999993,
      "d": 3478.2639999999956,
      "v": 100
    },
    {
      "midi": 51,
      "hit": false,
      "t": 146087.08799999993,
      "d": 3478.2639999999956,
      "v": 100
    },
    {
      "midi": 53,
      "hit": false,
      "t": 146087.08799999993,
      "d": 3478.2639999999956,
      "v": 100
    },
    {
      "midi": 63,
      "hit": false,
      "t": 146087.08799999993,
      "d": 3478.2639999999956,
      "v": 100
    },
    {
      "midi": 56,
      "hit": false,
      "t": 146087.08799999993,
      "d": 3478.2639999999956,
      "v": 100
    },
    {
      "midi": 51,
      "hit": false,
      "t": 146087.08799999993,
      "d": 3478.2639999999956,
      "v": 100
    },
    {
      "midi": 68,
      "hit": false,
      "t": 146087.08799999993,
      "d": 3478.2639999999956,
      "v": 100
    },
    {
      "midi": 60,
      "hit": false,
      "t": 146087.08799999996,
      "d": 3478.2639999999956,
      "v": 100
    },
    {
      "midi": 67,
      "hit": false,
      "t": 146087.08799999996,
      "d": 3478.2639999999956,
      "v": 100
    },
    {
      "midi": 63,
      "hit": false,
      "t": 146087.08800000025,
      "d": 326.0872500000114,
      "v": 100
    },
    {
      "midi": 60,
      "hit": false,
      "t": 146087.08800000025,
      "d": 326.0872500000114,
      "v": 100
    },
    {
      "midi": 56,
      "hit": false,
      "t": 146087.08800000025,
      "d": 326.0872500000114,
      "v": 100
    },
    {
      "midi": 56,
      "hit": false,
      "t": 146087.08800000025,
      "d": 326.0872500000114,
      "v": 100
    },
    {
      "midi": 60,
      "hit": false,
      "t": 146087.08800000025,
      "d": 326.0872500000114,
      "v": 100
    },
    {
      "midi": 63,
      "hit": false,
      "t": 146087.08800000025,
      "d": 326.0872500000114,
      "v": 100
    },
    {
      "midi": 42,
      "hit": false,
      "t": 146087.08800000048,
      "d": 217.3914999999979,
      "v": 100
    },
    {
      "midi": 35,
      "hit": false,
      "t": 146087.08800000048,
      "d": 217.3914999999979,
      "v": 100
    },
    {
      "midi": 59,
      "hit": false,
      "t": 146087.08800000048,
      "d": 434.7830000000249,
      "v": 100
    },
    {
      "midi": 48,
      "hit": false,
      "t": 146087.08800000086,
      "d": 108.6957500000135,
      "v": 100
    },
    {
      "midi": 48,
      "hit": false,
      "t": 146195.78375000088,
      "d": 108.6957500000135,
      "v": 100
    },
    {
      "midi": 46,
      "hit": false,
      "t": 146304.47949999894,
      "d": 217.3914999999979,
      "v": 100
    },
    {
      "midi": 36,
      "hit": false,
      "t": 146304.4794999993,
      "d": 45.28989583332441,
      "v": 100
    },
    {
      "midi": 42,
      "hit": false,
      "t": 146304.47950000048,
      "d": 108.6957500000135,
      "v": 100
    },
    {
      "midi": 48,
      "hit": false,
      "t": 146304.4795000009,
      "d": 108.6957500000135,
      "v": 100
    },
    {
      "midi": 60,
      "hit": false,
      "t": 146413.17525000026,
      "d": 326.0872500000114,
      "v": 100
    },
    {
      "midi": 63,
      "hit": false,
      "t": 146413.17525000026,
      "d": 326.0872500000114,
      "v": 100
    },
    {
      "midi": 56,
      "hit": false,
      "t": 146413.17525000026,
      "d": 326.0872500000114,
      "v": 100
    },
    {
      "midi": 56,
      "hit": false,
      "t": 146413.17525000026,
      "d": 326.0872500000114,
      "v": 100
    },
    {
      "midi": 63,
      "hit": false,
      "t": 146413.17525000026,
      "d": 326.0872500000114,
      "v": 100
    },
    {
      "midi": 60,
      "hit": false,
      "t": 146413.17525000026,
      "d": 326.0872500000114,
      "v": 100
    },
    {
      "midi": 42,
      "hit": false,
      "t": 146413.1752500005,
      "d": 108.6957500000135,
      "v": 100
    },
    {
      "midi": 51,
      "hit": false,
      "t": 146413.1752500009,
      "d": 217.3914999999979,
      "v": 100
    },
    {
      "midi": 42,
      "hit": false,
      "t": 146521.87099999894,
      "d": 217.3914999999979,
      "v": 100
    },
    {
      "midi": 40,
      "hit": false,
      "t": 146521.87099999894,
      "d": 217.3914999999979,
      "v": 100
    },
    {
      "midi": 84,
      "hit": false,
      "t": 146521.87099999923,
      "d": 217.3914999999979,
      "v": 100
    },
    {
      "midi": 36,
      "hit": false,
      "t": 146521.8709999993,
      "d": 45.28989583332441,
      "v": 100
    },
    {
      "midi": 48,
      "hit": false,
      "t": 146521.87099999955,
      "d": 217.3914999999979,
      "v": 100
    },
    {
      "midi": 40,
      "hit": false,
      "t": 146521.8710000005,
      "d": 217.3914999999979,
      "v": 100
    },
    {
      "midi": 35,
      "hit": false,
      "t": 146521.8710000005,
      "d": 217.3914999999979,
      "v": 100
    },
    {
      "midi": 42,
      "hit": false,
      "t": 146521.8710000005,
      "d": 217.3914999999979,
      "v": 100
    },
    {
      "midi": 59,
      "hit": false,
      "t": 146521.8710000005,
      "d": 434.7830000000249,
      "v": 100
    },
    {
      "midi": 48,
      "hit": false,
      "t": 146630.56674999927,
      "d": 45.28989583332441,
      "v": 100
    },
    {
      "midi": 48,
      "hit": false,
      "t": 146630.5667500009,
      "d": 108.6957500000135,
      "v": 100
    },
    {
      "midi": 46,
      "hit": false,
      "t": 146739.26249999893,
      "d": 217.3914999999979,
      "v": 100
    },
    {
      "midi": 36,
      "hit": false,
      "t": 146739.26249999955,
      "d": 217.3914999999979,
      "v": 100
    },
    {
      "midi": 60,
      "hit": false,
      "t": 146739.26250000027,
      "d": 326.0872500000114,
      "v": 100
    },
    {
      "midi": 63,
      "hit": false,
      "t": 146739.26250000027,
      "d": 326.0872500000114,
      "v": 100
    },
    {
      "midi": 56,
      "hit": false,
      "t": 146739.26250000027,
      "d": 326.0872500000114,
      "v": 100
    },
    {
      "midi": 56,
      "hit": false,
      "t": 146739.26250000027,
      "d": 326.0872500000114,
      "v": 100
    },
    {
      "midi": 63,
      "hit": false,
      "t": 146739.26250000027,
      "d": 326.0872500000114,
      "v": 100
    },
    {
      "midi": 60,
      "hit": false,
      "t": 146739.26250000027,
      "d": 326.0872500000114,
      "v": 100
    },
    {
      "midi": 42,
      "hit": false,
      "t": 146739.2625000005,
      "d": 108.6957500000135,
      "v": 100
    },
    {
      "midi": 48,
      "hit": false,
      "t": 146739.2625000009,
      "d": 108.6957500000135,
      "v": 100
    },
    {
      "midi": 43,
      "hit": false,
      "t": 146847.95824999927,
      "d": 45.28989583332441,
      "v": 100
    },
    {
      "midi": 40,
      "hit": false,
      "t": 146847.95825000052,
      "d": 108.6957500000135,
      "v": 100
    },
    {
      "midi": 42,
      "hit": false,
      "t": 146847.95825000052,
      "d": 108.6957500000135,
      "v": 100
    },
    {
      "midi": 48,
      "hit": false,
      "t": 146847.95825000093,
      "d": 108.6957500000135,
      "v": 100
    },
    {
      "midi": 42,
      "hit": false,
      "t": 146956.65399999893,
      "d": 217.3914999999979,
      "v": 100
    },
    {
      "midi": 36,
      "hit": false,
      "t": 146956.65399999954,
      "d": 108.6957500000135,
      "v": 100
    },
    {
      "midi": 35,
      "hit": false,
      "t": 146956.65400000053,
      "d": 217.391500000027,
      "v": 100
    },
    {
      "midi": 42,
      "hit": false,
      "t": 146956.65400000053,
      "d": 217.391500000027,
      "v": 100
    },
    {
      "midi": 59,
      "hit": false,
      "t": 146956.65400000053,
      "d": 434.7830000000249,
      "v": 100
    },
    {
      "midi": 51,
      "hit": false,
      "t": 146956.65400000094,
      "d": 217.3914999999979,
      "v": 100
    },
    {
      "midi": 41,
      "hit": false,
      "t": 147065.34974999927,
      "d": 45.28989583332441,
      "v": 100
    },
    {
      "midi": 36,
      "hit": false,
      "t": 147065.34974999956,
      "d": 108.6957500000135,
      "v": 100
    },
    {
      "midi": 60,
      "hit": false,
      "t": 147065.34975000028,
      "d": 326.0872500000114,
      "v": 100
    },
    {
      "midi": 63,
      "hit": false,
      "t": 147065.34975000028,
      "d": 326.0872500000114,
      "v": 100
    },
    {
      "midi": 56,
      "hit": false,
      "t": 147065.34975000028,
      "d": 326.0872500000114,
      "v": 100
    },
    {
      "midi": 56,
      "hit": false,
      "t": 147065.34975000028,
      "d": 326.0872500000114,
      "v": 100
    },
    {
      "midi": 63,
      "hit": false,
      "t": 147065.34975000028,
      "d": 326.0872500000114,
      "v": 100
    },
    {
      "midi": 60,
      "hit": false,
      "t": 147065.34975000028,
      "d": 326.0872500000114,
      "v": 100
    },
    {
      "midi": 40,
      "hit": false,
      "t": 147065.34975000055,
      "d": 108.6957500000135,
      "v": 100
    },
    {
      "midi": 46,
      "hit": false,
      "t": 147174.04549999893,
      "d": 217.3914999999979,
      "v": 100
    },
    {
      "midi": 41,
      "hit": false,
      "t": 147174.04549999925,
      "d": 86.05080208333675,
      "v": 100
    },
    {
      "midi": 36,
      "hit": false,
      "t": 147174.04549999957,
      "d": 217.3914999999979,
      "v": 100
    },
    {
      "midi": 46,
      "hit": false,
      "t": 147174.04550000056,
      "d": 217.3914999999979,
      "v": 100
    },
    {
      "midi": 48,
      "hit": false,
      "t": 147174.04550000094,
      "d": 108.6957500000135,
      "v": 100
    },
    {
      "midi": 48,
      "hit": false,
      "t": 147282.74125000095,
      "d": 108.6957500000135,
      "v": 100
    },
    {
      "midi": 40,
      "hit": false,
      "t": 147391.43699999893,
      "d": 217.3914999999979,
      "v": 100
    },
    {
      "midi": 42,
      "hit": false,
      "t": 147391.43699999893,
      "d": 217.3914999999979,
      "v": 100
    },
    {
      "midi": 84,
      "hit": false,
      "t": 147391.43699999922,
      "d": 217.3914999999979,
      "v": 100
    },
    {
      "midi": 43,
      "hit": false,
      "t": 147391.43699999925,
      "d": 45.28989583332441,
      "v": 100
    },
    {
      "midi": 48,
      "hit": false,
      "t": 147391.43699999957,
      "d": 217.3914999999979,
      "v": 100
    },
    {
      "midi": 40,
      "hit": false,
      "t": 147391.43700000056,
      "d": 108.6957500000135,
      "v": 100
    },
    {
      "midi": 35,
      "hit": false,
      "t": 147391.43700000056,
      "d": 217.391500000027,
      "v": 100
    },
    {
      "midi": 59,
      "hit": false,
      "t": 147391.43700000056,
      "d": 434.783000000054,
      "v": 100
    },
    {
      "midi": 53,
      "hit": false,
      "t": 147391.43700000097,
      "d": 108.6957500000135,
      "v": 100
    },
    {
      "midi": 45,
      "hit": false,
      "t": 147500.13274999923,
      "d": 45.28989583332441,
      "v": 100
    },
    {
      "midi": 63,
      "hit": false,
      "t": 147500.1327500003,
      "d": 108.6957500000135,
      "v": 100
    },
    {
      "midi": 60,
      "hit": false,
      "t": 147500.1327500003,
      "d": 108.6957500000135,
      "v": 100
    },
    {
      "midi": 56,
      "hit": false,
      "t": 147500.1327500003,
      "d": 108.6957500000135,
      "v": 100
    },
    {
      "midi": 56,
      "hit": false,
      "t": 147500.1327500003,
      "d": 108.6957500000135,
      "v": 100
    },
    {
      "midi": 60,
      "hit": false,
      "t": 147500.1327500003,
      "d": 108.6957500000135,
      "v": 100
    },
    {
      "midi": 63,
      "hit": false,
      "t": 147500.1327500003,
      "d": 108.6957500000135,
      "v": 100
    },
    {
      "midi": 48,
      "hit": false,
      "t": 147500.13275000098,
      "d": 108.6957500000135,
      "v": 100
    },
    {
      "midi": 46,
      "hit": false,
      "t": 147608.82849999893,
      "d": 217.3914999999979,
      "v": 100
    },
    {
      "midi": 46,
      "hit": false,
      "t": 147608.82849999922,
      "d": 45.28989583332441,
      "v": 100
    },
    {
      "midi": 36,
      "hit": false,
      "t": 147608.82849999957,
      "d": 217.3914999999979,
      "v": 100
    },
    {
      "midi": 35,
      "hit": false,
      "t": 147608.82850000059,
      "d": 108.6957500000135,
      "v": 100
    },
    {
      "midi": 55,
      "hit": false,
      "t": 147608.828500001,
      "d": 108.6957500000135,
      "v": 100
    },
    {
      "midi": 50,
      "hit": false,
      "t": 147717.5242499992,
      "d": 45.28989583332441,
      "v": 100
    },
    {
      "midi": 48,
      "hit": false,
      "t": 147717.524250001,
      "d": 108.6957500000135,
      "v": 100
    },
    {
      "midi": 42,
      "hit": false,
      "t": 147826.21999999892,
      "d": 217.3914999999979,
      "v": 100
    },
    {
      "midi": 36,
      "hit": false,
      "t": 147826.2199999992,
      "d": 45.28989583332441,
      "v": 100
    },
    {
      "midi": 36,
      "hit": false,
      "t": 147826.21999999956,
      "d": 434.7829999999958,
      "v": 100
    },
    {
      "midi": 42,
      "hit": false,
      "t": 147826.2200000006,
      "d": 217.3914999999979,
      "v": 100
    },
    {
      "midi": 35,
      "hit": false,
      "t": 147826.2200000006,
      "d": 217.3914999999979,
      "v": 100
    },
    {
      "midi": 59,
      "hit": false,
      "t": 147826.2200000006,
      "d": 434.7830000000249,
      "v": 100
    },
    {
      "midi": 48,
      "hit": false,
      "t": 147826.22000000102,
      "d": 108.6957500000135,
      "v": 100
    },
    {
      "midi": 36,
      "hit": false,
      "t": 147934.91574999917,
      "d": 45.28989583332441,
      "v": 100
    },
    {
      "midi": 48,
      "hit": false,
      "t": 147934.91575000103,
      "d": 108.6957500000135,
      "v": 100
    },
    {
      "midi": 46,
      "hit": false,
      "t": 148043.61149999892,
      "d": 217.3914999999979,
      "v": 100
    },
    {
      "midi": 36,
      "hit": false,
      "t": 148043.61149999916,
      "d": 86.05080208333675,
      "v": 100
    },
    {
      "midi": 42,
      "hit": false,
      "t": 148043.6115000006,
      "d": 108.6957500000135,
      "v": 100
    },
    {
      "midi": 48,
      "hit": false,
      "t": 148043.61150000105,
      "d": 108.6957500000135,
      "v": 100
    },
    {
      "midi": 56,
      "hit": false,
      "t": 148152.30725000033,
      "d": 326.0872500000114,
      "v": 100
    },
    {
      "midi": 63,
      "hit": false,
      "t": 148152.30725000033,
      "d": 326.0872500000114,
      "v": 100
    },
    {
      "midi": 60,
      "hit": false,
      "t": 148152.30725000033,
      "d": 326.0872500000114,
      "v": 100
    },
    {
      "midi": 60,
      "hit": false,
      "t": 148152.30725000033,
      "d": 326.0872500000114,
      "v": 100
    },
    {
      "midi": 63,
      "hit": false,
      "t": 148152.30725000033,
      "d": 326.0872500000114,
      "v": 100
    },
    {
      "midi": 56,
      "hit": false,
      "t": 148152.30725000033,
      "d": 326.0872500000114,
      "v": 100
    },
    {
      "midi": 42,
      "hit": false,
      "t": 148152.30725000062,
      "d": 108.6957500000135,
      "v": 100
    },
    {
      "midi": 51,
      "hit": false,
      "t": 148152.30725000106,
      "d": 217.3914999999979,
      "v": 100
    },
    {
      "midi": 42,
      "hit": false,
      "t": 148261.00299999892,
      "d": 217.3914999999979,
      "v": 100
    },
    {
      "midi": 40,
      "hit": false,
      "t": 148261.00299999892,
      "d": 217.3914999999979,
      "v": 100
    },
    {
      "midi": 36,
      "hit": false,
      "t": 148261.00299999915,
      "d": 45.28989583332441,
      "v": 100
    },
    {
      "midi": 84,
      "hit": false,
      "t": 148261.0029999992,
      "d": 217.3914999999979,
      "v": 100
    },
    {
      "midi": 48,
      "hit": false,
      "t": 148261.00299999956,
      "d": 217.3914999999979,
      "v": 100
    },
    {
      "midi": 40,
      "hit": false,
      "t": 148261.00300000064,
      "d": 108.6957500000135,
      "v": 100
    },
    {
      "midi": 35,
      "hit": false,
      "t": 148261.00300000064,
      "d": 217.391500000027,
      "v": 100
    },
    {
      "midi": 42,
      "hit": false,
      "t": 148261.00300000064,
      "d": 217.391500000027,
      "v": 100
    },
    {
      "midi": 59,
      "hit": false,
      "t": 148261.00300000064,
      "d": 434.783000000054,
      "v": 100
    },
    {
      "midi": 48,
      "hit": false,
      "t": 148369.69874999914,
      "d": 45.28989583332441,
      "v": 100
    },
    {
      "midi": 48,
      "hit": false,
      "t": 148369.69875000106,
      "d": 108.6957500000135,
      "v": 100
    },
    {
      "midi": 46,
      "hit": false,
      "t": 148478.39449999892,
      "d": 217.3914999999979,
      "v": 100
    },
    {
      "midi": 36,
      "hit": false,
      "t": 148478.39449999956,
      "d": 217.3914999999979,
      "v": 100
    },
    {
      "midi": 56,
      "hit": false,
      "t": 148478.39450000034,
      "d": 326.0872500000114,
      "v": 100
    },
    {
      "midi": 63,
      "hit": false,
      "t": 148478.39450000034,
      "d": 326.0872500000114,
      "v": 100
    },
    {
      "midi": 60,
      "hit": false,
      "t": 148478.39450000034,
      "d": 326.0872500000114,
      "v": 100
    },
    {
      "midi": 60,
      "hit": false,
      "t": 148478.39450000034,
      "d": 326.0872500000114,
      "v": 100
    },
    {
      "midi": 63,
      "hit": false,
      "t": 148478.39450000034,
      "d": 326.0872500000114,
      "v": 100
    },
    {
      "midi": 56,
      "hit": false,
      "t": 148478.39450000034,
      "d": 326.0872500000114,
      "v": 100
    },
    {
      "midi": 42,
      "hit": false,
      "t": 148478.39450000066,
      "d": 108.6957500000135,
      "v": 100
    },
    {
      "midi": 48,
      "hit": false,
      "t": 148478.39450000107,
      "d": 108.6957500000135,
      "v": 100
    },
    {
      "midi": 43,
      "hit": false,
      "t": 148587.09024999914,
      "d": 45.28989583332441,
      "v": 100
    },
    {
      "midi": 40,
      "hit": false,
      "t": 148587.09025000068,
      "d": 108.6957500000135,
      "v": 100
    },
    {
      "midi": 42,
      "hit": false,
      "t": 148587.09025000068,
      "d": 108.6957500000135,
      "v": 100
    },
    {
      "midi": 48,
      "hit": false,
      "t": 148587.09025000109,
      "d": 108.6957500000135,
      "v": 100
    },
    {
      "midi": 42,
      "hit": false,
      "t": 148695.78599999892,
      "d": 217.3914999999979,
      "v": 100
    },
    {
      "midi": 36,
      "hit": false,
      "t": 148695.78599999956,
      "d": 108.6957500000135,
      "v": 100
    },
    {
      "midi": 35,
      "hit": false,
      "t": 148695.7860000007,
      "d": 217.391500000027,
      "v": 100
    },
    {
      "midi": 42,
      "hit": false,
      "t": 148695.7860000007,
      "d": 217.391500000027,
      "v": 100
    },
    {
      "midi": 59,
      "hit": false,
      "t": 148695.7860000007,
      "d": 434.783000000054,
      "v": 100
    },
    {
      "midi": 51,
      "hit": false,
      "t": 148695.7860000011,
      "d": 217.3914999999979,
      "v": 100
    },
    {
      "midi": 41,
      "hit": false,
      "t": 148804.48174999913,
      "d": 45.28989583332441,
      "v": 100
    },
    {
      "midi": 36,
      "hit": false,
      "t": 148804.48174999957,
      "d": 108.6957500000135,
      "v": 100
    },
    {
      "midi": 56,
      "hit": false,
      "t": 148804.48175000036,
      "d": 326.0872500000114,
      "v": 100
    },
    {
      "midi": 63,
      "hit": false,
      "t": 148804.48175000036,
      "d": 326.0872500000114,
      "v": 100
    },
    {
      "midi": 60,
      "hit": false,
      "t": 148804.48175000036,
      "d": 326.0872500000114,
      "v": 100
    },
    {
      "midi": 60,
      "hit": false,
      "t": 148804.48175000036,
      "d": 326.0872500000114,
      "v": 100
    },
    {
      "midi": 63,
      "hit": false,
      "t": 148804.48175000036,
      "d": 326.0872500000114,
      "v": 100
    },
    {
      "midi": 56,
      "hit": false,
      "t": 148804.48175000036,
      "d": 326.0872500000114,
      "v": 100
    },
    {
      "midi": 40,
      "hit": false,
      "t": 148804.4817500007,
      "d": 108.6957500000135,
      "v": 100
    },
    {
      "midi": 46,
      "hit": false,
      "t": 148913.1774999989,
      "d": 217.3914999999979,
      "v": 100
    },
    {
      "midi": 41,
      "hit": false,
      "t": 148913.17749999912,
      "d": 86.05080208333675,
      "v": 100
    },
    {
      "midi": 36,
      "hit": false,
      "t": 148913.17749999958,
      "d": 217.3914999999979,
      "v": 100
    },
    {
      "midi": 40,
      "hit": false,
      "t": 148913.17750000072,
      "d": 108.6957500000135,
      "v": 100
    },
    {
      "midi": 46,
      "hit": false,
      "t": 148913.17750000072,
      "d": 217.391500000027,
      "v": 100
    },
    {
      "midi": 48,
      "hit": false,
      "t": 148913.1775000011,
      "d": 108.6957500000135,
      "v": 100
    },
    {
      "midi": 48,
      "hit": false,
      "t": 149021.8732500011,
      "d": 108.6957500000135,
      "v": 100
    },
    {
      "midi": 40,
      "hit": false,
      "t": 149130.5689999989,
      "d": 217.3914999999979,
      "v": 100
    },
    {
      "midi": 42,
      "hit": false,
      "t": 149130.5689999989,
      "d": 217.3914999999979,
      "v": 100
    },
    {
      "midi": 43,
      "hit": false,
      "t": 149130.56899999912,
      "d": 45.28989583332441,
      "v": 100
    },
    {
      "midi": 84,
      "hit": false,
      "t": 149130.5689999992,
      "d": 217.3914999999979,
      "v": 100
    },
    {
      "midi": 48,
      "hit": false,
      "t": 149130.56899999958,
      "d": 217.3914999999979,
      "v": 100
    },
    {
      "midi": 40,
      "hit": false,
      "t": 149130.56900000075,
      "d": 108.6957500000135,
      "v": 100
    },
    {
      "midi": 35,
      "hit": false,
      "t": 149130.56900000075,
      "d": 217.391500000027,
      "v": 100
    },
    {
      "midi": 59,
      "hit": false,
      "t": 149130.56900000075,
      "d": 434.783000000054,
      "v": 100
    },
    {
      "midi": 53,
      "hit": false,
      "t": 149130.56900000112,
      "d": 108.6957500000135,
      "v": 100
    },
    {
      "midi": 45,
      "hit": false,
      "t": 149239.2647499991,
      "d": 45.28989583332441,
      "v": 100
    },
    {
      "midi": 56,
      "hit": false,
      "t": 149239.26475000038,
      "d": 108.6957500000135,
      "v": 100
    },
    {
      "midi": 60,
      "hit": false,
      "t": 149239.26475000038,
      "d": 108.6957500000135,
      "v": 100
    },
    {
      "midi": 63,
      "hit": false,
      "t": 149239.26475000038,
      "d": 108.6957500000135,
      "v": 100
    },
    {
      "midi": 63,
      "hit": false,
      "t": 149239.26475000038,
      "d": 108.6957500000135,
      "v": 100
    },
    {
      "midi": 60,
      "hit": false,
      "t": 149239.26475000038,
      "d": 108.6957500000135,
      "v": 100
    },
    {
      "midi": 56,
      "hit": false,
      "t": 149239.26475000038,
      "d": 108.6957500000135,
      "v": 100
    },
    {
      "midi": 48,
      "hit": false,
      "t": 149239.26475000114,
      "d": 108.6957500000135,
      "v": 100
    },
    {
      "midi": 57,
      "hit": false,
      "t": 149347.9604999989,
      "d": 217.3914999999979,
      "v": 100
    },
    {
      "midi": 46,
      "hit": false,
      "t": 149347.9604999989,
      "d": 217.3914999999979,
      "v": 100
    },
    {
      "midi": 46,
      "hit": false,
      "t": 149347.96049999908,
      "d": 45.28989583332441,
      "v": 100
    },
    {
      "midi": 36,
      "hit": false,
      "t": 149347.96049999958,
      "d": 217.3914999999979,
      "v": 100
    },
    {
      "midi": 40,
      "hit": false,
      "t": 149347.96050000077,
      "d": 108.6957500000135,
      "v": 100
    },
    {
      "midi": 35,
      "hit": false,
      "t": 149347.96050000077,
      "d": 108.6957500000135,
      "v": 100
    },
    {
      "midi": 55,
      "hit": false,
      "t": 149347.96050000115,
      "d": 108.6957500000135,
      "v": 100
    },
    {
      "midi": 50,
      "hit": false,
      "t": 149456.65624999907,
      "d": 45.28989583332441,
      "v": 100
    },
    {
      "midi": 40,
      "hit": false,
      "t": 149456.6562500008,
      "d": 108.6957500000135,
      "v": 100
    },
    {
      "midi": 48,
      "hit": false,
      "t": 149456.65625000116,
      "d": 108.6957500000135,
      "v": 100
    },
    {
      "midi": 42,
      "hit": false,
      "t": 149565.3519999989,
      "d": 217.3914999999979,
      "v": 100
    },
    {
      "midi": 36,
      "hit": false,
      "t": 149565.35199999905,
      "d": 45.28989583332441,
      "v": 100
    },
    {
      "midi": 36,
      "hit": false,
      "t": 149565.35199999958,
      "d": 434.7829999999958,
      "v": 100
    },
    {
      "midi": 58,
      "hit": false,
      "t": 149565.35199999993,
      "d": 502.717843749997,
      "v": 100
    },
    {
      "midi": 63,
      "hit": false,
      "t": 149565.35199999993,
      "d": 502.717843749997,
      "v": 100
    },
    {
      "midi": 70,
      "hit": false,
      "t": 149565.35199999993,
      "d": 3478.2639999999956,
      "v": 100
    },
    {
      "midi": 53,
      "hit": false,
      "t": 149565.35199999993,
      "d": 3478.2639999999956,
      "v": 100
    },
    {
      "midi": 51,
      "hit": false,
      "t": 149565.35199999993,
      "d": 3478.2639999999956,
      "v": 100
    },
    {
      "midi": 63,
      "hit": false,
      "t": 149565.35199999993,
      "d": 502.717843749997,
      "v": 100
    },
    {
      "midi": 58,
      "hit": false,
      "t": 149565.35199999993,
      "d": 502.717843749997,
      "v": 100
    },
    {
      "midi": 70,
      "hit": false,
      "t": 149565.35199999993,
      "d": 3478.2639999999956,
      "v": 100
    },
    {
      "midi": 51,
      "hit": false,
      "t": 149565.35199999993,
      "d": 3478.2639999999956,
      "v": 100
    },
    {
      "midi": 53,
      "hit": false,
      "t": 149565.35199999993,
      "d": 3478.2639999999956,
      "v": 100
    },
    {
      "midi": 63,
      "hit": false,
      "t": 149565.35199999996,
      "d": 3478.2639999999956,
      "v": 100
    },
    {
      "midi": 68,
      "hit": false,
      "t": 149565.35199999996,
      "d": 3478.2639999999956,
      "v": 100
    },
    {
      "midi": 56,
      "hit": false,
      "t": 149565.3520000004,
      "d": 326.0872500000114,
      "v": 100
    },
    {
      "midi": 60,
      "hit": false,
      "t": 149565.3520000004,
      "d": 326.0872500000114,
      "v": 100
    },
    {
      "midi": 63,
      "hit": false,
      "t": 149565.3520000004,
      "d": 326.0872500000114,
      "v": 100
    },
    {
      "midi": 63,
      "hit": false,
      "t": 149565.3520000004,
      "d": 326.0872500000114,
      "v": 100
    },
    {
      "midi": 60,
      "hit": false,
      "t": 149565.3520000004,
      "d": 326.0872500000114,
      "v": 100
    },
    {
      "midi": 56,
      "hit": false,
      "t": 149565.3520000004,
      "d": 326.0872500000114,
      "v": 100
    },
    {
      "midi": 35,
      "hit": false,
      "t": 149565.3520000008,
      "d": 217.3914999999979,
      "v": 100
    },
    {
      "midi": 42,
      "hit": false,
      "t": 149565.3520000008,
      "d": 217.3914999999979,
      "v": 100
    },
    {
      "midi": 59,
      "hit": false,
      "t": 149565.3520000008,
      "d": 434.7830000000249,
      "v": 100
    },
    {
      "midi": 48,
      "hit": false,
      "t": 149565.35200000118,
      "d": 108.6957500000135,
      "v": 100
    },
    {
      "midi": 48,
      "hit": false,
      "t": 149674.0477500012,
      "d": 108.6957500000135,
      "v": 100
    },
    {
      "midi": 46,
      "hit": false,
      "t": 149782.7434999989,
      "d": 217.3914999999979,
      "v": 100
    },
    {
      "midi": 36,
      "hit": false,
      "t": 149782.74349999905,
      "d": 45.28989583332441,
      "v": 100
    },
    {
      "midi": 42,
      "hit": false,
      "t": 149782.7435000008,
      "d": 108.6957500000135,
      "v": 100
    },
    {
      "midi": 48,
      "hit": false,
      "t": 149782.7435000012,
      "d": 108.6957500000135,
      "v": 100
    },
    {
      "midi": 56,
      "hit": false,
      "t": 149891.4392500004,
      "d": 326.0872500000114,
      "v": 100
    },
    {
      "midi": 63,
      "hit": false,
      "t": 149891.4392500004,
      "d": 326.0872500000114,
      "v": 100
    },
    {
      "midi": 60,
      "hit": false,
      "t": 149891.4392500004,
      "d": 326.0872500000114,
      "v": 100
    },
    {
      "midi": 60,
      "hit": false,
      "t": 149891.4392500004,
      "d": 326.0872500000114,
      "v": 100
    },
    {
      "midi": 63,
      "hit": false,
      "t": 149891.4392500004,
      "d": 326.0872500000114,
      "v": 100
    },
    {
      "midi": 56,
      "hit": false,
      "t": 149891.4392500004,
      "d": 326.0872500000114,
      "v": 100
    },
    {
      "midi": 42,
      "hit": false,
      "t": 149891.4392500008,
      "d": 108.6957500000135,
      "v": 100
    },
    {
      "midi": 51,
      "hit": false,
      "t": 149891.43925000122,
      "d": 217.3914999999979,
      "v": 100
    },
    {
      "midi": 42,
      "hit": false,
      "t": 150000.1349999989,
      "d": 217.3914999999979,
      "v": 100
    },
    {
      "midi": 40,
      "hit": false,
      "t": 150000.1349999989,
      "d": 217.3914999999979,
      "v": 100
    },
    {
      "midi": 36,
      "hit": false,
      "t": 150000.13499999905,
      "d": 45.28989583332441,
      "v": 100
    },
    {
      "midi": 84,
      "hit": false,
      "t": 150000.1349999992,
      "d": 217.3914999999979,
      "v": 100
    },
    {
      "midi": 48,
      "hit": false,
      "t": 150000.13499999957,
      "d": 217.3914999999979,
      "v": 100
    },
    {
      "midi": 35,
      "hit": false,
      "t": 150000.13500000082,
      "d": 217.3914999999979,
      "v": 100
    },
    {
      "midi": 40,
      "hit": false,
      "t": 150000.13500000082,
      "d": 217.3914999999979,
      "v": 100
    },
    {
      "midi": 42,
      "hit": false,
      "t": 150000.13500000082,
      "d": 217.3914999999979,
      "v": 100
    },
    {
      "midi": 59,
      "hit": false,
      "t": 150000.13500000082,
      "d": 434.7830000000249,
      "v": 100
    },
    {
      "midi": 48,
      "hit": false,
      "t": 150108.83074999903,
      "d": 45.28989583332441,
      "v": 100
    },
    {
      "midi": 48,
      "hit": false,
      "t": 150108.83075000122,
      "d": 108.6957500000135,
      "v": 100
    },
    {
      "midi": 46,
      "hit": false,
      "t": 150217.5264999989,
      "d": 217.3914999999979,
      "v": 100
    },
    {
      "midi": 36,
      "hit": false,
      "t": 150217.52649999957,
      "d": 217.3914999999979,
      "v": 100
    },
    {
      "midi": 56,
      "hit": false,
      "t": 150217.52650000041,
      "d": 326.0872500000114,
      "v": 100
    },
    {
      "midi": 63,
      "hit": false,
      "t": 150217.52650000041,
      "d": 326.0872500000114,
      "v": 100
    },
    {
      "midi": 60,
      "hit": false,
      "t": 150217.52650000041,
      "d": 326.0872500000114,
      "v": 100
    },
    {
      "midi": 60,
      "hit": false,
      "t": 150217.52650000041,
      "d": 326.0872500000114,
      "v": 100
    },
    {
      "midi": 63,
      "hit": false,
      "t": 150217.52650000041,
      "d": 326.0872500000114,
      "v": 100
    },
    {
      "midi": 56,
      "hit": false,
      "t": 150217.52650000041,
      "d": 326.0872500000114,
      "v": 100
    },
    {
      "midi": 42,
      "hit": false,
      "t": 150217.52650000082,
      "d": 108.6957500000135,
      "v": 100
    },
    {
      "midi": 48,
      "hit": false,
      "t": 150217.52650000123,
      "d": 108.6957500000135,
      "v": 100
    },
    {
      "midi": 43,
      "hit": false,
      "t": 150326.22224999903,
      "d": 45.28989583332441,
      "v": 100
    },
    {
      "midi": 42,
      "hit": false,
      "t": 150326.22225000084,
      "d": 108.6957500000135,
      "v": 100
    },
    {
      "midi": 40,
      "hit": false,
      "t": 150326.22225000084,
      "d": 108.6957500000135,
      "v": 100
    },
    {
      "midi": 48,
      "hit": false,
      "t": 150326.22225000124,
      "d": 108.6957500000135,
      "v": 100
    },
    {
      "midi": 42,
      "hit": false,
      "t": 150434.9179999989,
      "d": 217.3914999999979,
      "v": 100
    },
    {
      "midi": 36,
      "hit": false,
      "t": 150434.91799999957,
      "d": 108.6957500000135,
      "v": 100
    },
    {
      "midi": 42,
      "hit": false,
      "t": 150434.91800000085,
      "d": 217.391500000027,
      "v": 100
    },
    {
      "midi": 35,
      "hit": false,
      "t": 150434.91800000085,
      "d": 217.391500000027,
      "v": 100
    },
    {
      "midi": 59,
      "hit": false,
      "t": 150434.91800000085,
      "d": 434.7830000000249,
      "v": 100
    },
    {
      "midi": 51,
      "hit": false,
      "t": 150434.91800000126,
      "d": 217.3914999999979,
      "v": 100
    },
    {
      "midi": 41,
      "hit": false,
      "t": 150543.61374999903,
      "d": 45.28989583332441,
      "v": 100
    },
    {
      "midi": 36,
      "hit": false,
      "t": 150543.61374999958,
      "d": 108.6957500000135,
      "v": 100
    },
    {
      "midi": 56,
      "hit": false,
      "t": 150543.61375000043,
      "d": 326.0872500000114,
      "v": 100
    },
    {
      "midi": 63,
      "hit": false,
      "t": 150543.61375000043,
      "d": 326.0872500000114,
      "v": 100
    },
    {
      "midi": 60,
      "hit": false,
      "t": 150543.61375000043,
      "d": 326.0872500000114,
      "v": 100
    },
    {
      "midi": 60,
      "hit": false,
      "t": 150543.61375000043,
      "d": 326.0872500000114,
      "v": 100
    },
    {
      "midi": 63,
      "hit": false,
      "t": 150543.61375000043,
      "d": 326.0872500000114,
      "v": 100
    },
    {
      "midi": 56,
      "hit": false,
      "t": 150543.61375000043,
      "d": 326.0872500000114,
      "v": 100
    },
    {
      "midi": 40,
      "hit": false,
      "t": 150543.61375000086,
      "d": 108.6957500000135,
      "v": 100
    },
    {
      "midi": 46,
      "hit": false,
      "t": 150652.3094999989,
      "d": 217.3914999999979,
      "v": 100
    },
    {
      "midi": 41,
      "hit": false,
      "t": 150652.309499999,
      "d": 86.05080208333675,
      "v": 100
    },
    {
      "midi": 36,
      "hit": false,
      "t": 150652.3094999996,
      "d": 217.3914999999979,
      "v": 100
    },
    {
      "midi": 46,
      "hit": false,
      "t": 150652.30950000088,
      "d": 217.3914999999979,
      "v": 100
    },
    {
      "midi": 48,
      "hit": false,
      "t": 150652.30950000125,
      "d": 108.6957500000135,
      "v": 100
    },
    {
      "midi": 48,
      "hit": false,
      "t": 150761.00525000127,
      "d": 108.6957500000135,
      "v": 100
    },
    {
      "midi": 42,
      "hit": false,
      "t": 150869.7009999989,
      "d": 217.3914999999979,
      "v": 100
    },
    {
      "midi": 40,
      "hit": false,
      "t": 150869.7009999989,
      "d": 217.3914999999979,
      "v": 100
    },
    {
      "midi": 43,
      "hit": false,
      "t": 150869.700999999,
      "d": 45.28989583332441,
      "v": 100
    },
    {
      "midi": 84,
      "hit": false,
      "t": 150869.7009999992,
      "d": 217.3914999999979,
      "v": 100
    },
    {
      "midi": 48,
      "hit": false,
      "t": 150869.7009999996,
      "d": 217.3914999999979,
      "v": 100
    },
    {
      "midi": 40,
      "hit": false,
      "t": 150869.70100000087,
      "d": 108.6957500000135,
      "v": 100
    },
    {
      "midi": 35,
      "hit": false,
      "t": 150869.70100000087,
      "d": 217.391500000027,
      "v": 100
    },
    {
      "midi": 59,
      "hit": false,
      "t": 150869.70100000087,
      "d": 434.783000000054,
      "v": 100
    },
    {
      "midi": 53,
      "hit": false,
      "t": 150869.70100000128,
      "d": 108.6957500000135,
      "v": 100
    },
    {
      "midi": 45,
      "hit": false,
      "t": 150978.396749999,
      "d": 45.28989583332441,
      "v": 100
    },
    {
      "midi": 56,
      "hit": false,
      "t": 150978.39675000045,
      "d": 108.6957500000135,
      "v": 100
    },
    {
      "midi": 60,
      "hit": false,
      "t": 150978.39675000045,
      "d": 108.6957500000135,
      "v": 100
    },
    {
      "midi": 63,
      "hit": false,
      "t": 150978.39675000045,
      "d": 108.6957500000135,
      "v": 100
    },
    {
      "midi": 63,
      "hit": false,
      "t": 150978.39675000045,
      "d": 108.6957500000135,
      "v": 100
    },
    {
      "midi": 60,
      "hit": false,
      "t": 150978.39675000045,
      "d": 108.6957500000135,
      "v": 100
    },
    {
      "midi": 56,
      "hit": false,
      "t": 150978.39675000045,
      "d": 108.6957500000135,
      "v": 100
    },
    {
      "midi": 48,
      "hit": false,
      "t": 150978.3967500013,
      "d": 108.6957500000135,
      "v": 100
    },
    {
      "midi": 46,
      "hit": false,
      "t": 151087.0924999989,
      "d": 217.3914999999979,
      "v": 100
    },
    {
      "midi": 49,
      "hit": false,
      "t": 151087.0924999989,
      "d": 217.3914999999979,
      "v": 100
    },
    {
      "midi": 46,
      "hit": false,
      "t": 151087.09249999898,
      "d": 45.28989583332441,
      "v": 100
    },
    {
      "midi": 36,
      "hit": false,
      "t": 151087.0924999996,
      "d": 217.3914999999979,
      "v": 100
    },
    {
      "midi": 40,
      "hit": false,
      "t": 151087.0925000009,
      "d": 108.6957500000135,
      "v": 100
    },
    {
      "midi": 55,
      "hit": false,
      "t": 151087.0925000013,
      "d": 108.6957500000135,
      "v": 100
    },
    {
      "midi": 50,
      "hit": false,
      "t": 151195.78824999896,
      "d": 45.28989583332441,
      "v": 100
    },
    {
      "midi": 40,
      "hit": false,
      "t": 151195.78825000091,
      "d": 108.6957500000135,
      "v": 100
    },
    {
      "midi": 48,
      "hit": false,
      "t": 151195.78825000132,
      "d": 108.6957500000135,
      "v": 100
    },
    {
      "midi": 42,
      "hit": false,
      "t": 151304.4839999989,
      "d": 217.3914999999979,
      "v": 100
    },
    {
      "midi": 36,
      "hit": false,
      "t": 151304.48399999895,
      "d": 45.28989583332441,
      "v": 100
    },
    {
      "midi": 36,
      "hit": false,
      "t": 151304.4839999996,
      "d": 434.7829999999958,
      "v": 100
    },
    {
      "midi": 42,
      "hit": false,
      "t": 151304.48400000093,
      "d": 217.3914999999979,
      "v": 100
    },
    {
      "midi": 35,
      "hit": false,
      "t": 151304.48400000093,
      "d": 217.3914999999979,
      "v": 100
    },
    {
      "midi": 59,
      "hit": false,
      "t": 151304.48400000093,
      "d": 434.7830000000249,
      "v": 100
    },
    {
      "midi": 48,
      "hit": false,
      "t": 151304.48400000134,
      "d": 108.6957500000135,
      "v": 100
    },
    {
      "midi": 36,
      "hit": false,
      "t": 151413.17974999893,
      "d": 45.28989583332441,
      "v": 100
    },
    {
      "midi": 48,
      "hit": false,
      "t": 151413.17975000135,
      "d": 108.6957500000135,
      "v": 100
    },
    {
      "midi": 46,
      "hit": false,
      "t": 151521.8754999989,
      "d": 217.3914999999979,
      "v": 100
    },
    {
      "midi": 36,
      "hit": false,
      "t": 151521.87549999892,
      "d": 86.05080208333675,
      "v": 100
    },
    {
      "midi": 42,
      "hit": false,
      "t": 151521.87550000093,
      "d": 108.6957500000135,
      "v": 100
    },
    {
      "midi": 48,
      "hit": false,
      "t": 151521.87550000136,
      "d": 108.6957500000135,
      "v": 100
    },
    {
      "midi": 60,
      "hit": false,
      "t": 151630.57125000047,
      "d": 326.0872500000114,
      "v": 100
    },
    {
      "midi": 63,
      "hit": false,
      "t": 151630.57125000047,
      "d": 326.0872500000114,
      "v": 100
    },
    {
      "midi": 56,
      "hit": false,
      "t": 151630.57125000047,
      "d": 326.0872500000114,
      "v": 100
    },
    {
      "midi": 56,
      "hit": false,
      "t": 151630.57125000047,
      "d": 326.0872500000114,
      "v": 100
    },
    {
      "midi": 63,
      "hit": false,
      "t": 151630.57125000047,
      "d": 326.0872500000114,
      "v": 100
    },
    {
      "midi": 60,
      "hit": false,
      "t": 151630.57125000047,
      "d": 326.0872500000114,
      "v": 100
    },
    {
      "midi": 42,
      "hit": false,
      "t": 151630.57125000094,
      "d": 108.6957500000135,
      "v": 100
    },
    {
      "midi": 51,
      "hit": false,
      "t": 151630.57125000138,
      "d": 217.3914999999979,
      "v": 100
    },
    {
      "midi": 40,
      "hit": false,
      "t": 151739.2669999989,
      "d": 217.3914999999979,
      "v": 100
    },
    {
      "midi": 42,
      "hit": false,
      "t": 151739.2669999989,
      "d": 217.3914999999979,
      "v": 100
    },
    {
      "midi": 36,
      "hit": false,
      "t": 151739.26699999892,
      "d": 45.28989583332441,
      "v": 100
    },
    {
      "midi": 84,
      "hit": false,
      "t": 151739.26699999918,
      "d": 217.3914999999979,
      "v": 100
    },
    {
      "midi": 48,
      "hit": false,
      "t": 151739.26699999959,
      "d": 217.3914999999979,
      "v": 100
    },
    {
      "midi": 40,
      "hit": false,
      "t": 151739.26700000095,
      "d": 108.6957500000135,
      "v": 100
    },
    {
      "midi": 35,
      "hit": false,
      "t": 151739.26700000095,
      "d": 217.391500000027,
      "v": 100
    },
    {
      "midi": 42,
      "hit": false,
      "t": 151739.26700000095,
      "d": 217.391500000027,
      "v": 100
    },
    {
      "midi": 59,
      "hit": false,
      "t": 151739.26700000095,
      "d": 434.783000000054,
      "v": 100
    },
    {
      "midi": 48,
      "hit": false,
      "t": 151847.9627499989,
      "d": 45.28989583332441,
      "v": 100
    },
    {
      "midi": 48,
      "hit": false,
      "t": 151847.96275000137,
      "d": 108.6957500000135,
      "v": 100
    },
    {
      "midi": 46,
      "hit": false,
      "t": 151956.65849999888,
      "d": 217.3914999999979,
      "v": 100
    },
    {
      "midi": 36,
      "hit": false,
      "t": 151956.65849999958,
      "d": 217.3914999999979,
      "v": 100
    },
    {
      "midi": 60,
      "hit": false,
      "t": 151956.65850000049,
      "d": 326.0872500000114,
      "v": 100
    },
    {
      "midi": 63,
      "hit": false,
      "t": 151956.65850000049,
      "d": 326.0872500000114,
      "v": 100
    },
    {
      "midi": 56,
      "hit": false,
      "t": 151956.65850000049,
      "d": 326.0872500000114,
      "v": 100
    },
    {
      "midi": 56,
      "hit": false,
      "t": 151956.65850000049,
      "d": 326.0872500000114,
      "v": 100
    },
    {
      "midi": 63,
      "hit": false,
      "t": 151956.65850000049,
      "d": 326.0872500000114,
      "v": 100
    },
    {
      "midi": 60,
      "hit": false,
      "t": 151956.65850000049,
      "d": 326.0872500000114,
      "v": 100
    },
    {
      "midi": 42,
      "hit": false,
      "t": 151956.65850000098,
      "d": 108.6957500000135,
      "v": 100
    },
    {
      "midi": 48,
      "hit": false,
      "t": 151956.6585000014,
      "d": 108.6957500000135,
      "v": 100
    },
    {
      "midi": 43,
      "hit": false,
      "t": 152065.3542499989,
      "d": 45.28989583332441,
      "v": 100
    },
    {
      "midi": 40,
      "hit": false,
      "t": 152065.354250001,
      "d": 108.6957500000135,
      "v": 100
    },
    {
      "midi": 42,
      "hit": false,
      "t": 152065.354250001,
      "d": 108.6957500000135,
      "v": 100
    },
    {
      "midi": 48,
      "hit": false,
      "t": 152065.3542500014,
      "d": 108.6957500000135,
      "v": 100
    },
    {
      "midi": 42,
      "hit": false,
      "t": 152174.04999999888,
      "d": 217.3914999999979,
      "v": 100
    },
    {
      "midi": 36,
      "hit": false,
      "t": 152174.04999999958,
      "d": 108.6957500000135,
      "v": 100
    },
    {
      "midi": 35,
      "hit": false,
      "t": 152174.050000001,
      "d": 217.391500000027,
      "v": 100
    },
    {
      "midi": 42,
      "hit": false,
      "t": 152174.050000001,
      "d": 217.391500000027,
      "v": 100
    },
    {
      "midi": 59,
      "hit": false,
      "t": 152174.050000001,
      "d": 434.7830000000249,
      "v": 100
    },
    {
      "midi": 51,
      "hit": false,
      "t": 152174.0500000014,
      "d": 217.3914999999979,
      "v": 100
    },
    {
      "midi": 41,
      "hit": false,
      "t": 152282.7457499989,
      "d": 45.28989583332441,
      "v": 100
    },
    {
      "midi": 36,
      "hit": false,
      "t": 152282.7457499996,
      "d": 108.6957500000135,
      "v": 100
    },
    {
      "midi": 60,
      "hit": false,
      "t": 152282.7457500005,
      "d": 326.0872500000114,
      "v": 100
    },
    {
      "midi": 63,
      "hit": false,
      "t": 152282.7457500005,
      "d": 326.0872500000114,
      "v": 100
    },
    {
      "midi": 56,
      "hit": false,
      "t": 152282.7457500005,
      "d": 326.0872500000114,
      "v": 100
    },
    {
      "midi": 56,
      "hit": false,
      "t": 152282.7457500005,
      "d": 326.0872500000114,
      "v": 100
    },
    {
      "midi": 63,
      "hit": false,
      "t": 152282.7457500005,
      "d": 326.0872500000114,
      "v": 100
    },
    {
      "midi": 60,
      "hit": false,
      "t": 152282.7457500005,
      "d": 326.0872500000114,
      "v": 100
    },
    {
      "midi": 40,
      "hit": false,
      "t": 152282.74575000102,
      "d": 108.6957500000135,
      "v": 100
    },
    {
      "midi": 41,
      "hit": false,
      "t": 152391.44149999888,
      "d": 86.05080208333675,
      "v": 100
    },
    {
      "midi": 46,
      "hit": false,
      "t": 152391.44149999888,
      "d": 217.3914999999979,
      "v": 100
    },
    {
      "midi": 36,
      "hit": false,
      "t": 152391.4414999996,
      "d": 217.3914999999979,
      "v": 100
    },
    {
      "midi": 46,
      "hit": false,
      "t": 152391.44150000103,
      "d": 217.3914999999979,
      "v": 100
    },
    {
      "midi": 48,
      "hit": false,
      "t": 152391.4415000014,
      "d": 108.6957500000135,
      "v": 100
    },
    {
      "midi": 48,
      "hit": false,
      "t": 152500.13725000143,
      "d": 108.6957500000135,
      "v": 100
    },
    {
      "midi": 43,
      "hit": false,
      "t": 152608.83299999888,
      "d": 45.28989583332441,
      "v": 100
    },
    {
      "midi": 40,
      "hit": false,
      "t": 152608.83299999888,
      "d": 217.3914999999979,
      "v": 100
    },
    {
      "midi": 42,
      "hit": false,
      "t": 152608.83299999888,
      "d": 217.3914999999979,
      "v": 100
    },
    {
      "midi": 84,
      "hit": false,
      "t": 152608.83299999917,
      "d": 217.3914999999979,
      "v": 100
    },
    {
      "midi": 48,
      "hit": false,
      "t": 152608.8329999996,
      "d": 217.3914999999979,
      "v": 100
    },
    {
      "midi": 40,
      "hit": false,
      "t": 152608.83300000103,
      "d": 108.6957500000135,
      "v": 100
    },
    {
      "midi": 35,
      "hit": false,
      "t": 152608.83300000103,
      "d": 217.391500000027,
      "v": 100
    },
    {
      "midi": 59,
      "hit": false,
      "t": 152608.83300000103,
      "d": 434.783000000054,
      "v": 100
    },
    {
      "midi": 53,
      "hit": false,
      "t": 152608.83300000144,
      "d": 108.6957500000135,
      "v": 100
    },
    {
      "midi": 45,
      "hit": false,
      "t": 152717.52874999886,
      "d": 45.28989583332441,
      "v": 100
    },
    {
      "midi": 63,
      "hit": false,
      "t": 152717.52875000052,
      "d": 108.6957500000135,
      "v": 100
    },
    {
      "midi": 60,
      "hit": false,
      "t": 152717.52875000052,
      "d": 108.6957500000135,
      "v": 100
    },
    {
      "midi": 56,
      "hit": false,
      "t": 152717.52875000052,
      "d": 108.6957500000135,
      "v": 100
    },
    {
      "midi": 56,
      "hit": false,
      "t": 152717.52875000052,
      "d": 108.6957500000135,
      "v": 100
    },
    {
      "midi": 60,
      "hit": false,
      "t": 152717.52875000052,
      "d": 108.6957500000135,
      "v": 100
    },
    {
      "midi": 63,
      "hit": false,
      "t": 152717.52875000052,
      "d": 108.6957500000135,
      "v": 100
    },
    {
      "midi": 48,
      "hit": false,
      "t": 152717.52875000145,
      "d": 108.6957500000135,
      "v": 100
    },
    {
      "midi": 46,
      "hit": false,
      "t": 152826.22449999885,
      "d": 45.28989583332441,
      "v": 100
    },
    {
      "midi": 57,
      "hit": false,
      "t": 152826.22449999888,
      "d": 217.3914999999979,
      "v": 100
    },
    {
      "midi": 46,
      "hit": false,
      "t": 152826.22449999888,
      "d": 217.3914999999979,
      "v": 100
    },
    {
      "midi": 36,
      "hit": false,
      "t": 152826.2244999996,
      "d": 217.3914999999979,
      "v": 100
    },
    {
      "midi": 35,
      "hit": false,
      "t": 152826.22450000106,
      "d": 108.6957500000135,
      "v": 100
    },
    {
      "midi": 55,
      "hit": false,
      "t": 152826.22450000147,
      "d": 108.6957500000135,
      "v": 100
    },
    {
      "midi": 50,
      "hit": false,
      "t": 152934.92024999883,
      "d": 45.28989583332441,
      "v": 100
    },
    {
      "midi": 48,
      "hit": false,
      "t": 152934.92025000148,
      "d": 108.6957500000135,
      "v": 100
    },
    {
      "midi": 36,
      "hit": false,
      "t": 153043.61599999882,
      "d": 45.28989583332441,
      "v": 100
    },
    {
      "midi": 49,
      "hit": false,
      "t": 153043.61599999887,
      "d": 217.3914999999979,
      "v": 100
    },
    {
      "midi": 42,
      "hit": false,
      "t": 153043.61599999887,
      "d": 217.3914999999979,
      "v": 100
    },
    {
      "midi": 36,
      "hit": false,
      "t": 153043.6159999996,
      "d": 434.7829999999958,
      "v": 100
    },
    {
      "midi": 50,
      "hit": false,
      "t": 153043.61599999992,
      "d": 3478.2639999999956,
      "v": 100
    },
    {
      "midi": 55,
      "hit": false,
      "t": 153043.61599999992,
      "d": 3478.2639999999956,
      "v": 100
    },
    {
      "midi": 48,
      "hit": false,
      "t": 153043.61599999992,
      "d": 3478.2639999999956,
      "v": 100
    },
    {
      "midi": 67,
      "hit": false,
      "t": 153043.61599999992,
      "d": 3478.2639999999956,
      "v": 100
    },
    {
      "midi": 62,
      "hit": false,
      "t": 153043.61599999992,
      "d": 3478.2639999999956,
      "v": 100
    },
    {
      "midi": 67,
      "hit": false,
      "t": 153043.61599999992,
      "d": 3478.2639999999956,
      "v": 100
    },
    {
      "midi": 62,
      "hit": false,
      "t": 153043.61599999992,
      "d": 3478.2639999999956,
      "v": 100
    },
    {
      "midi": 48,
      "hit": false,
      "t": 153043.61599999992,
      "d": 3478.2639999999956,
      "v": 100
    },
    {
      "midi": 50,
      "hit": false,
      "t": 153043.61599999992,
      "d": 3478.2639999999956,
      "v": 100
    },
    {
      "midi": 55,
      "hit": false,
      "t": 153043.61599999992,
      "d": 3478.2639999999956,
      "v": 100
    },
    {
      "midi": 55,
      "hit": false,
      "t": 153043.61600000053,
      "d": 326.0872500000114,
      "v": 100
    },
    {
      "midi": 62,
      "hit": false,
      "t": 153043.61600000053,
      "d": 326.0872500000114,
      "v": 100
    },
    {
      "midi": 60,
      "hit": false,
      "t": 153043.61600000053,
      "d": 326.0872500000114,
      "v": 100
    },
    {
      "midi": 62,
      "hit": false,
      "t": 153043.61600000053,
      "d": 326.0872500000114,
      "v": 100
    },
    {
      "midi": 55,
      "hit": false,
      "t": 153043.61600000053,
      "d": 326.0872500000114,
      "v": 100
    },
    {
      "midi": 35,
      "hit": false,
      "t": 153043.6160000011,
      "d": 217.3914999999979,
      "v": 100
    },
    {
      "midi": 42,
      "hit": false,
      "t": 153043.6160000011,
      "d": 217.3914999999979,
      "v": 100
    },
    {
      "midi": 59,
      "hit": false,
      "t": 153043.6160000011,
      "d": 434.7830000000249,
      "v": 100
    },
    {
      "midi": 48,
      "hit": false,
      "t": 153043.6160000015,
      "d": 108.6957500000135,
      "v": 100
    },
    {
      "midi": 48,
      "hit": false,
      "t": 153152.3117500015,
      "d": 108.6957500000135,
      "v": 100
    },
    {
      "midi": 36,
      "hit": false,
      "t": 153261.0074999988,
      "d": 45.28989583332441,
      "v": 100
    },
    {
      "midi": 46,
      "hit": false,
      "t": 153261.00749999887,
      "d": 217.3914999999979,
      "v": 100
    },
    {
      "midi": 42,
      "hit": false,
      "t": 153261.00750000108,
      "d": 108.6957500000135,
      "v": 100
    },
    {
      "midi": 48,
      "hit": false,
      "t": 153261.00750000152,
      "d": 108.6957500000135,
      "v": 100
    },
    {
      "midi": 55,
      "hit": false,
      "t": 153369.70325000054,
      "d": 326.0872500000114,
      "v": 100
    },
    {
      "midi": 62,
      "hit": false,
      "t": 153369.70325000054,
      "d": 326.0872500000114,
      "v": 100
    },
    {
      "midi": 60,
      "hit": false,
      "t": 153369.70325000054,
      "d": 326.0872500000114,
      "v": 100
    },
    {
      "midi": 62,
      "hit": false,
      "t": 153369.70325000054,
      "d": 326.0872500000114,
      "v": 100
    },
    {
      "midi": 55,
      "hit": false,
      "t": 153369.70325000054,
      "d": 326.0872500000114,
      "v": 100
    },
    {
      "midi": 42,
      "hit": false,
      "t": 153369.7032500011,
      "d": 108.6957500000135,
      "v": 100
    },
    {
      "midi": 51,
      "hit": false,
      "t": 153369.70325000153,
      "d": 217.3914999999979,
      "v": 100
    },
    {
      "midi": 36,
      "hit": false,
      "t": 153478.3989999988,
      "d": 45.28989583332441,
      "v": 100
    },
    {
      "midi": 40,
      "hit": false,
      "t": 153478.39899999887,
      "d": 217.3914999999979,
      "v": 100
    },
    {
      "midi": 42,
      "hit": false,
      "t": 153478.39899999887,
      "d": 217.3914999999979,
      "v": 100
    },
    {
      "midi": 84,
      "hit": false,
      "t": 153478.39899999916,
      "d": 217.3914999999979,
      "v": 100
    },
    {
      "midi": 48,
      "hit": false,
      "t": 153478.3989999996,
      "d": 217.3914999999979,
      "v": 100
    },
    {
      "midi": 35,
      "hit": false,
      "t": 153478.3990000011,
      "d": 217.3914999999979,
      "v": 100
    },
    {
      "midi": 40,
      "hit": false,
      "t": 153478.3990000011,
      "d": 217.3914999999979,
      "v": 100
    },
    {
      "midi": 42,
      "hit": false,
      "t": 153478.3990000011,
      "d": 217.3914999999979,
      "v": 100
    },
    {
      "midi": 59,
      "hit": false,
      "t": 153478.3990000011,
      "d": 434.7830000000249,
      "v": 100
    },
    {
      "midi": 48,
      "hit": false,
      "t": 153587.0947499988,
      "d": 45.28989583332441,
      "v": 100
    },
    {
      "midi": 48,
      "hit": false,
      "t": 153587.09475000153,
      "d": 108.6957500000135,
      "v": 100
    },
    {
      "midi": 46,
      "hit": false,
      "t": 153695.79049999887,
      "d": 217.3914999999979,
      "v": 100
    },
    {
      "midi": 36,
      "hit": false,
      "t": 153695.7904999996,
      "d": 217.3914999999979,
      "v": 100
    },
    {
      "midi": 55,
      "hit": false,
      "t": 153695.79050000056,
      "d": 326.0872500000114,
      "v": 100
    },
    {
      "midi": 62,
      "hit": false,
      "t": 153695.79050000056,
      "d": 326.0872500000114,
      "v": 100
    },
    {
      "midi": 60,
      "hit": false,
      "t": 153695.79050000056,
      "d": 326.0872500000114,
      "v": 100
    },
    {
      "midi": 62,
      "hit": false,
      "t": 153695.79050000056,
      "d": 326.0872500000114,
      "v": 100
    },
    {
      "midi": 55,
      "hit": false,
      "t": 153695.79050000056,
      "d": 326.0872500000114,
      "v": 100
    },
    {
      "midi": 42,
      "hit": false,
      "t": 153695.7905000011,
      "d": 108.6957500000135,
      "v": 100
    },
    {
      "midi": 48,
      "hit": false,
      "t": 153695.79050000155,
      "d": 108.6957500000135,
      "v": 100
    },
    {
      "midi": 43,
      "hit": false,
      "t": 153804.4862499988,
      "d": 45.28989583332441,
      "v": 100
    },
    {
      "midi": 42,
      "hit": false,
      "t": 153804.48625000112,
      "d": 108.6957500000135,
      "v": 100
    },
    {
      "midi": 40,
      "hit": false,
      "t": 153804.48625000112,
      "d": 108.6957500000135,
      "v": 100
    },
    {
      "midi": 48,
      "hit": false,
      "t": 153804.48625000156,
      "d": 108.6957500000135,
      "v": 100
    },
    {
      "midi": 42,
      "hit": false,
      "t": 153913.18199999887,
      "d": 217.3914999999979,
      "v": 100
    },
    {
      "midi": 36,
      "hit": false,
      "t": 153913.1819999996,
      "d": 108.6957500000135,
      "v": 100
    },
    {
      "midi": 42,
      "hit": false,
      "t": 153913.18200000114,
      "d": 217.391500000027,
      "v": 100
    },
    {
      "midi": 35,
      "hit": false,
      "t": 153913.18200000114,
      "d": 217.391500000027,
      "v": 100
    },
    {
      "midi": 59,
      "hit": false,
      "t": 153913.18200000114,
      "d": 434.7830000000249,
      "v": 100
    },
    {
      "midi": 51,
      "hit": false,
      "t": 153913.18200000157,
      "d": 217.3914999999979,
      "v": 100
    },
    {
      "midi": 41,
      "hit": false,
      "t": 154021.8777499988,
      "d": 45.28989583332441,
      "v": 100
    },
    {
      "midi": 36,
      "hit": false,
      "t": 154021.8777499996,
      "d": 108.6957500000135,
      "v": 100
    },
    {
      "midi": 55,
      "hit": false,
      "t": 154021.87775000057,
      "d": 326.0872500000114,
      "v": 100
    },
    {
      "midi": 62,
      "hit": false,
      "t": 154021.87775000057,
      "d": 326.0872500000114,
      "v": 100
    },
    {
      "midi": 60,
      "hit": false,
      "t": 154021.87775000057,
      "d": 326.0872500000114,
      "v": 100
    },
    {
      "midi": 62,
      "hit": false,
      "t": 154021.87775000057,
      "d": 326.0872500000114,
      "v": 100
    },
    {
      "midi": 55,
      "hit": false,
      "t": 154021.87775000057,
      "d": 326.0872500000114,
      "v": 100
    },
    {
      "midi": 40,
      "hit": false,
      "t": 154021.87775000115,
      "d": 108.6957500000135,
      "v": 100
    },
    {
      "midi": 41,
      "hit": false,
      "t": 154130.57349999878,
      "d": 86.05080208333675,
      "v": 100
    },
    {
      "midi": 46,
      "hit": false,
      "t": 154130.57349999886,
      "d": 217.3914999999979,
      "v": 100
    },
    {
      "midi": 36,
      "hit": false,
      "t": 154130.57349999962,
      "d": 217.3914999999979,
      "v": 100
    },
    {
      "midi": 46,
      "hit": false,
      "t": 154130.57350000116,
      "d": 217.3914999999979,
      "v": 100
    },
    {
      "midi": 48,
      "hit": false,
      "t": 154130.57350000157,
      "d": 108.6957500000135,
      "v": 100
    },
    {
      "midi": 48,
      "hit": false,
      "t": 154239.26925000158,
      "d": 108.6957500000135,
      "v": 100
    },
    {
      "midi": 43,
      "hit": false,
      "t": 154347.96499999877,
      "d": 45.28989583332441,
      "v": 100
    },
    {
      "midi": 42,
      "hit": false,
      "t": 154347.96499999886,
      "d": 217.3914999999979,
      "v": 100
    },
    {
      "midi": 40,
      "hit": false,
      "t": 154347.96499999886,
      "d": 217.3914999999979,
      "v": 100
    },
    {
      "midi": 84,
      "hit": false,
      "t": 154347.96499999915,
      "d": 217.3914999999979,
      "v": 100
    },
    {
      "midi": 48,
      "hit": false,
      "t": 154347.96499999962,
      "d": 217.3914999999979,
      "v": 100
    },
    {
      "midi": 40,
      "hit": false,
      "t": 154347.96500000116,
      "d": 108.6957500000135,
      "v": 100
    },
    {
      "midi": 35,
      "hit": false,
      "t": 154347.96500000116,
      "d": 217.391500000027,
      "v": 100
    },
    {
      "midi": 59,
      "hit": false,
      "t": 154347.96500000116,
      "d": 434.783000000054,
      "v": 100
    },
    {
      "midi": 53,
      "hit": false,
      "t": 154347.9650000016,
      "d": 108.6957500000135,
      "v": 100
    },
    {
      "midi": 45,
      "hit": false,
      "t": 154456.66074999876,
      "d": 45.28989583332441,
      "v": 100
    },
    {
      "midi": 55,
      "hit": false,
      "t": 154456.6607500006,
      "d": 108.6957500000135,
      "v": 100
    },
    {
      "midi": 62,
      "hit": false,
      "t": 154456.6607500006,
      "d": 108.6957500000135,
      "v": 100
    },
    {
      "midi": 60,
      "hit": false,
      "t": 154456.6607500006,
      "d": 108.6957500000135,
      "v": 100
    },
    {
      "midi": 62,
      "hit": false,
      "t": 154456.6607500006,
      "d": 108.6957500000135,
      "v": 100
    },
    {
      "midi": 55,
      "hit": false,
      "t": 154456.6607500006,
      "d": 108.6957500000135,
      "v": 100
    },
    {
      "midi": 48,
      "hit": false,
      "t": 154456.6607500016,
      "d": 108.6957500000135,
      "v": 100
    },
    {
      "midi": 46,
      "hit": false,
      "t": 154565.35649999874,
      "d": 45.28989583332441,
      "v": 100
    },
    {
      "midi": 46,
      "hit": false,
      "t": 154565.35649999886,
      "d": 217.3914999999979,
      "v": 100
    },
    {
      "midi": 36,
      "hit": false,
      "t": 154565.35649999962,
      "d": 217.3914999999979,
      "v": 100
    },
    {
      "midi": 40,
      "hit": false,
      "t": 154565.3565000012,
      "d": 108.6957500000135,
      "v": 100
    },
    {
      "midi": 55,
      "hit": false,
      "t": 154565.35650000162,
      "d": 108.6957500000135,
      "v": 100
    },
    {
      "midi": 50,
      "hit": false,
      "t": 154674.05224999873,
      "d": 45.28989583332441,
      "v": 100
    },
    {
      "midi": 40,
      "hit": false,
      "t": 154674.0522500012,
      "d": 108.6957500000135,
      "v": 100
    },
    {
      "midi": 48,
      "hit": false,
      "t": 154674.05225000164,
      "d": 108.6957500000135,
      "v": 100
    },
    {
      "midi": 36,
      "hit": false,
      "t": 154782.7479999987,
      "d": 45.28989583332441,
      "v": 100
    },
    {
      "midi": 42,
      "hit": false,
      "t": 154782.74799999886,
      "d": 217.3914999999979,
      "v": 100
    },
    {
      "midi": 36,
      "hit": false,
      "t": 154782.7479999996,
      "d": 434.7829999999958,
      "v": 100
    },
    {
      "midi": 35,
      "hit": false,
      "t": 154782.74800000121,
      "d": 217.3914999999979,
      "v": 100
    },
    {
      "midi": 42,
      "hit": false,
      "t": 154782.74800000121,
      "d": 217.3914999999979,
      "v": 100
    },
    {
      "midi": 59,
      "hit": false,
      "t": 154782.74800000121,
      "d": 434.7830000000249,
      "v": 100
    },
    {
      "midi": 48,
      "hit": false,
      "t": 154782.74800000165,
      "d": 108.6957500000135,
      "v": 100
    },
    {
      "midi": 36,
      "hit": false,
      "t": 154891.4437499987,
      "d": 45.28989583332441,
      "v": 100
    },
    {
      "midi": 48,
      "hit": false,
      "t": 154891.44375000166,
      "d": 108.6957500000135,
      "v": 100
    },
    {
      "midi": 36,
      "hit": false,
      "t": 155000.13949999868,
      "d": 86.05080208333675,
      "v": 100
    },
    {
      "midi": 46,
      "hit": false,
      "t": 155000.13949999886,
      "d": 217.3914999999979,
      "v": 100
    },
    {
      "midi": 42,
      "hit": false,
      "t": 155000.1395000012,
      "d": 108.6957500000135,
      "v": 100
    },
    {
      "midi": 48,
      "hit": false,
      "t": 155000.13950000168,
      "d": 108.6957500000135,
      "v": 100
    },
    {
      "midi": 42,
      "hit": false,
      "t": 155108.83525000123,
      "d": 108.6957500000135,
      "v": 100
    },
    {
      "midi": 51,
      "hit": false,
      "t": 155108.8352500017,
      "d": 217.3914999999979,
      "v": 100
    },
    {
      "midi": 36,
      "hit": false,
      "t": 155217.53099999868,
      "d": 45.28989583332441,
      "v": 100
    },
    {
      "midi": 40,
      "hit": false,
      "t": 155217.53099999885,
      "d": 217.3914999999979,
      "v": 100
    },
    {
      "midi": 42,
      "hit": false,
      "t": 155217.53099999885,
      "d": 217.3914999999979,
      "v": 100
    },
    {
      "midi": 84,
      "hit": false,
      "t": 155217.53099999914,
      "d": 217.3914999999979,
      "v": 100
    },
    {
      "midi": 48,
      "hit": false,
      "t": 155217.5309999996,
      "d": 217.3914999999979,
      "v": 100
    },
    {
      "midi": 40,
      "hit": false,
      "t": 155217.53100000124,
      "d": 108.6957500000135,
      "v": 100
    },
    {
      "midi": 42,
      "hit": false,
      "t": 155217.53100000124,
      "d": 217.391500000027,
      "v": 100
    },
    {
      "midi": 35,
      "hit": false,
      "t": 155217.53100000124,
      "d": 217.391500000027,
      "v": 100
    },
    {
      "midi": 59,
      "hit": false,
      "t": 155217.53100000124,
      "d": 434.783000000054,
      "v": 100
    },
    {
      "midi": 48,
      "hit": false,
      "t": 155326.22674999866,
      "d": 45.28989583332441,
      "v": 100
    },
    {
      "midi": 62,
      "hit": false,
      "t": 155326.2267500006,
      "d": 326.0872500000114,
      "v": 100
    },
    {
      "midi": 55,
      "hit": false,
      "t": 155326.2267500006,
      "d": 326.0872500000114,
      "v": 100
    },
    {
      "midi": 60,
      "hit": false,
      "t": 155326.2267500006,
      "d": 326.0872500000114,
      "v": 100
    },
    {
      "midi": 55,
      "hit": false,
      "t": 155326.2267500006,
      "d": 326.0872500000114,
      "v": 100
    },
    {
      "midi": 62,
      "hit": false,
      "t": 155326.2267500006,
      "d": 326.0872500000114,
      "v": 100
    },
    {
      "midi": 48,
      "hit": false,
      "t": 155326.2267500017,
      "d": 108.6957500000135,
      "v": 100
    },
    {
      "midi": 46,
      "hit": false,
      "t": 155434.92249999885,
      "d": 217.3914999999979,
      "v": 100
    },
    {
      "midi": 36,
      "hit": false,
      "t": 155434.9224999996,
      "d": 217.3914999999979,
      "v": 100
    },
    {
      "midi": 42,
      "hit": false,
      "t": 155434.92250000127,
      "d": 108.6957500000135,
      "v": 100
    },
    {
      "midi": 48,
      "hit": false,
      "t": 155434.9225000017,
      "d": 108.6957500000135,
      "v": 100
    },
    {
      "midi": 43,
      "hit": false,
      "t": 155543.61824999866,
      "d": 45.28989583332441,
      "v": 100
    },
    {
      "midi": 42,
      "hit": false,
      "t": 155543.61825000128,
      "d": 108.6957500000135,
      "v": 100
    },
    {
      "midi": 40,
      "hit": false,
      "t": 155543.61825000128,
      "d": 108.6957500000135,
      "v": 100
    },
    {
      "midi": 48,
      "hit": false,
      "t": 155543.61825000172,
      "d": 108.6957500000135,
      "v": 100
    },
    {
      "midi": 42,
      "hit": false,
      "t": 155652.31399999885,
      "d": 217.3914999999979,
      "v": 100
    },
    {
      "midi": 36,
      "hit": false,
      "t": 155652.3139999996,
      "d": 108.6957500000135,
      "v": 100
    },
    {
      "midi": 62,
      "hit": false,
      "t": 155652.31400000062,
      "d": 326.0872500000114,
      "v": 100
    },
    {
      "midi": 55,
      "hit": false,
      "t": 155652.31400000062,
      "d": 326.0872500000114,
      "v": 100
    },
    {
      "midi": 60,
      "hit": false,
      "t": 155652.31400000062,
      "d": 326.0872500000114,
      "v": 100
    },
    {
      "midi": 55,
      "hit": false,
      "t": 155652.31400000062,
      "d": 326.0872500000114,
      "v": 100
    },
    {
      "midi": 62,
      "hit": false,
      "t": 155652.31400000062,
      "d": 326.0872500000114,
      "v": 100
    },
    {
      "midi": 42,
      "hit": false,
      "t": 155652.3140000013,
      "d": 217.391500000027,
      "v": 100
    },
    {
      "midi": 35,
      "hit": false,
      "t": 155652.3140000013,
      "d": 217.391500000027,
      "v": 100
    },
    {
      "midi": 59,
      "hit": false,
      "t": 155652.3140000013,
      "d": 434.783000000054,
      "v": 100
    },
    {
      "midi": 51,
      "hit": false,
      "t": 155652.31400000173,
      "d": 217.3914999999979,
      "v": 100
    },
    {
      "midi": 41,
      "hit": false,
      "t": 155761.00974999866,
      "d": 45.28989583332441,
      "v": 100
    },
    {
      "midi": 36,
      "hit": false,
      "t": 155761.00974999962,
      "d": 108.6957500000135,
      "v": 100
    },
    {
      "midi": 40,
      "hit": false,
      "t": 155761.0097500013,
      "d": 108.6957500000135,
      "v": 100
    },
    {
      "midi": 41,
      "hit": false,
      "t": 155869.70549999864,
      "d": 86.05080208333675,
      "v": 100
    },
    {
      "midi": 46,
      "hit": false,
      "t": 155869.70549999885,
      "d": 217.3914999999979,
      "v": 100
    },
    {
      "midi": 36,
      "hit": false,
      "t": 155869.70549999963,
      "d": 217.3914999999979,
      "v": 100
    },
    {
      "midi": 40,
      "hit": false,
      "t": 155869.70550000132,
      "d": 108.6957500000135,
      "v": 100
    },
    {
      "midi": 46,
      "hit": false,
      "t": 155869.70550000132,
      "d": 217.391500000027,
      "v": 100
    },
    {
      "midi": 48,
      "hit": false,
      "t": 155869.70550000173,
      "d": 108.6957500000135,
      "v": 100
    },
    {
      "midi": 62,
      "hit": false,
      "t": 155978.40125000064,
      "d": 326.0872500000114,
      "v": 100
    },
    {
      "midi": 55,
      "hit": false,
      "t": 155978.40125000064,
      "d": 326.0872500000114,
      "v": 100
    },
    {
      "midi": 60,
      "hit": false,
      "t": 155978.40125000064,
      "d": 326.0872500000114,
      "v": 100
    },
    {
      "midi": 55,
      "hit": false,
      "t": 155978.40125000064,
      "d": 326.0872500000114,
      "v": 100
    },
    {
      "midi": 62,
      "hit": false,
      "t": 155978.40125000064,
      "d": 326.0872500000114,
      "v": 100
    },
    {
      "midi": 48,
      "hit": false,
      "t": 155978.40125000174,
      "d": 108.6957500000135,
      "v": 100
    },
    {
      "midi": 43,
      "hit": false,
      "t": 156087.09699999864,
      "d": 45.28989583332441,
      "v": 100
    },
    {
      "midi": 42,
      "hit": false,
      "t": 156087.09699999884,
      "d": 217.3914999999979,
      "v": 100
    },
    {
      "midi": 40,
      "hit": false,
      "t": 156087.09699999884,
      "d": 217.3914999999979,
      "v": 100
    },
    {
      "midi": 84,
      "hit": false,
      "t": 156087.09699999914,
      "d": 108.6957500000135,
      "v": 100
    },
    {
      "midi": 48,
      "hit": false,
      "t": 156087.09699999963,
      "d": 217.3914999999979,
      "v": 100
    },
    {
      "midi": 40,
      "hit": false,
      "t": 156087.09700000135,
      "d": 108.6957500000135,
      "v": 100
    },
    {
      "midi": 35,
      "hit": false,
      "t": 156087.09700000135,
      "d": 217.391500000027,
      "v": 100
    },
    {
      "midi": 59,
      "hit": false,
      "t": 156087.09700000135,
      "d": 434.783000000054,
      "v": 100
    },
    {
      "midi": 53,
      "hit": false,
      "t": 156087.09700000176,
      "d": 108.6957500000135,
      "v": 100
    },
    {
      "midi": 45,
      "hit": false,
      "t": 156195.79274999863,
      "d": 45.28989583332441,
      "v": 100
    },
    {
      "midi": 79,
      "hit": false,
      "t": 156195.79274999915,
      "d": 108.6957500000135,
      "v": 100
    },
    {
      "midi": 40,
      "hit": false,
      "t": 156195.79275000136,
      "d": 108.6957500000135,
      "v": 100
    },
    {
      "midi": 48,
      "hit": false,
      "t": 156195.79275000177,
      "d": 108.6957500000135,
      "v": 100
    },
    {
      "midi": 46,
      "hit": false,
      "t": 156304.4884999986,
      "d": 45.28989583332441,
      "v": 100
    },
    {
      "midi": 46,
      "hit": false,
      "t": 156304.48849999884,
      "d": 217.3914999999979,
      "v": 100
    },
    {
      "midi": 72,
      "hit": false,
      "t": 156304.48849999916,
      "d": 108.6957500000135,
      "v": 100
    },
    {
      "midi": 36,
      "hit": false,
      "t": 156304.48849999963,
      "d": 217.3914999999979,
      "v": 100
    },
    {
      "midi": 40,
      "hit": false,
      "t": 156304.48850000137,
      "d": 108.6957500000135,
      "v": 100
    },
    {
      "midi": 55,
      "hit": false,
      "t": 156304.48850000178,
      "d": 108.6957500000135,
      "v": 100
    },
    {
      "midi": 50,
      "hit": false,
      "t": 156413.1842499986,
      "d": 45.28989583332441,
      "v": 100
    },
    {
      "midi": 67,
      "hit": false,
      "t": 156413.18424999918,
      "d": 108.6957500000135,
      "v": 100
    },
    {
      "midi": 62,
      "hit": false,
      "t": 156413.18425000066,
      "d": 108.6957500000135,
      "v": 100
    },
    {
      "midi": 55,
      "hit": false,
      "t": 156413.18425000066,
      "d": 108.6957500000135,
      "v": 100
    },
    {
      "midi": 60,
      "hit": false,
      "t": 156413.18425000066,
      "d": 108.6957500000135,
      "v": 100
    },
    {
      "midi": 55,
      "hit": false,
      "t": 156413.18425000066,
      "d": 108.6957500000135,
      "v": 100
    },
    {
      "midi": 62,
      "hit": false,
      "t": 156413.18425000066,
      "d": 108.6957500000135,
      "v": 100
    },
    {
      "midi": 40,
      "hit": false,
      "t": 156413.1842500014,
      "d": 108.6957500000135,
      "v": 100
    },
    {
      "midi": 48,
      "hit": false,
      "t": 156413.1842500018,
      "d": 108.6957500000135,
      "v": 100
    },
    {
      "midi": 36,
      "hit": false,
      "t": 156521.87999999858,
      "d": 45.28989583332441,
      "v": 100
    },
    {
      "midi": 49,
      "hit": false,
      "t": 156521.87999999884,
      "d": 217.3914999999979,
      "v": 100
    },
    {
      "midi": 42,
      "hit": false,
      "t": 156521.87999999884,
      "d": 217.3914999999979,
      "v": 100
    },
    {
      "midi": 36,
      "hit": false,
      "t": 156521.87999999963,
      "d": 434.7829999999958,
      "v": 100
    },
    {
      "midi": 65,
      "hit": false,
      "t": 156521.87999999992,
      "d": 3478.2640000002284,
      "v": 100
    },
    {
      "midi": 58,
      "hit": false,
      "t": 156521.87999999992,
      "d": 3478.2640000002284,
      "v": 100
    },
    {
      "midi": 48,
      "hit": false,
      "t": 156521.87999999992,
      "d": 3478.2640000002284,
      "v": 100
    },
    {
      "midi": 55,
      "hit": false,
      "t": 156521.87999999992,
      "d": 3478.2640000002284,
      "v": 100
    },
    {
      "midi": 62,
      "hit": false,
      "t": 156521.87999999992,
      "d": 3478.2640000002284,
      "v": 100
    },
    {
      "midi": 48,
      "hit": false,
      "t": 156521.87999999992,
      "d": 3478.2640000002284,
      "v": 100
    },
    {
      "midi": 58,
      "hit": false,
      "t": 156521.87999999992,
      "d": 3478.2640000002284,
      "v": 100
    },
    {
      "midi": 65,
      "hit": false,
      "t": 156521.87999999992,
      "d": 3478.2640000002284,
      "v": 100
    },
    {
      "midi": 62,
      "hit": false,
      "t": 156521.87999999992,
      "d": 3478.2640000002284,
      "v": 100
    },
    {
      "midi": 55,
      "hit": false,
      "t": 156521.87999999992,
      "d": 3478.2640000002284,
      "v": 100
    },
    {
      "midi": 65,
      "hit": false,
      "t": 156521.87999999995,
      "d": 3478.2640000002284,
      "v": 100
    },
    {
      "midi": 55,
      "hit": false,
      "t": 156521.88000000067,
      "d": 326.0872500000114,
      "v": 100
    },
    {
      "midi": 58,
      "hit": false,
      "t": 156521.88000000067,
      "d": 326.0872500000114,
      "v": 100
    },
    {
      "midi": 65,
      "hit": false,
      "t": 156521.88000000067,
      "d": 326.0872500000114,
      "v": 100
    },
    {
      "midi": 62,
      "hit": false,
      "t": 156521.88000000067,
      "d": 326.0872500000114,
      "v": 100
    },
    {
      "midi": 58,
      "hit": false,
      "t": 156521.88000000067,
      "d": 326.0872500000114,
      "v": 100
    },
    {
      "midi": 55,
      "hit": false,
      "t": 156521.88000000067,
      "d": 326.0872500000114,
      "v": 100
    },
    {
      "midi": 62,
      "hit": false,
      "t": 156521.88000000067,
      "d": 326.0872500000114,
      "v": 100
    },
    {
      "midi": 65,
      "hit": false,
      "t": 156521.88000000067,
      "d": 326.0872500000114,
      "v": 100
    },
    {
      "midi": 42,
      "hit": false,
      "t": 156521.8800000014,
      "d": 217.3914999999979,
      "v": 100
    },
    {
      "midi": 35,
      "hit": false,
      "t": 156521.8800000014,
      "d": 217.3914999999979,
      "v": 100
    },
    {
      "midi": 59,
      "hit": false,
      "t": 156521.8800000014,
      "d": 434.7830000000249,
      "v": 100
    },
    {
      "midi": 48,
      "hit": false,
      "t": 156521.8800000018,
      "d": 108.6957500000135,
      "v": 100
    },
    {
      "midi": 48,
      "hit": false,
      "t": 156630.57575000182,
      "d": 108.6957500000135,
      "v": 100
    },
    {
      "midi": 36,
      "hit": false,
      "t": 156739.27149999858,
      "d": 45.28989583332441,
      "v": 100
    },
    {
      "midi": 46,
      "hit": false,
      "t": 156739.27149999884,
      "d": 217.3914999999979,
      "v": 100
    },
    {
      "midi": 42,
      "hit": false,
      "t": 156739.2715000014,
      "d": 108.6957500000135,
      "v": 100
    },
    {
      "midi": 48,
      "hit": false,
      "t": 156739.27150000184,
      "d": 108.6957500000135,
      "v": 100
    },
    {
      "midi": 55,
      "hit": false,
      "t": 156847.9672500007,
      "d": 326.0872500000114,
      "v": 100
    },
    {
      "midi": 62,
      "hit": false,
      "t": 156847.9672500007,
      "d": 326.0872500000114,
      "v": 100
    },
    {
      "midi": 58,
      "hit": false,
      "t": 156847.9672500007,
      "d": 326.0872500000114,
      "v": 100
    },
    {
      "midi": 65,
      "hit": false,
      "t": 156847.9672500007,
      "d": 326.0872500000114,
      "v": 100
    },
    {
      "midi": 62,
      "hit": false,
      "t": 156847.9672500007,
      "d": 326.0872500000114,
      "v": 100
    },
    {
      "midi": 55,
      "hit": false,
      "t": 156847.9672500007,
      "d": 326.0872500000114,
      "v": 100
    },
    {
      "midi": 65,
      "hit": false,
      "t": 156847.9672500007,
      "d": 326.0872500000114,
      "v": 100
    },
    {
      "midi": 58,
      "hit": false,
      "t": 156847.9672500007,
      "d": 326.0872500000114,
      "v": 100
    },
    {
      "midi": 42,
      "hit": false,
      "t": 156847.9672500014,
      "d": 108.6957500000135,
      "v": 100
    },
    {
      "midi": 51,
      "hit": false,
      "t": 156847.96725000185,
      "d": 217.3914999999979,
      "v": 100
    },
    {
      "midi": 36,
      "hit": false,
      "t": 156956.66299999857,
      "d": 45.28989583332441,
      "v": 100
    },
    {
      "midi": 40,
      "hit": false,
      "t": 156956.66299999884,
      "d": 217.3914999999979,
      "v": 100
    },
    {
      "midi": 42,
      "hit": false,
      "t": 156956.66299999884,
      "d": 217.3914999999979,
      "v": 100
    },
    {
      "midi": 84,
      "hit": false,
      "t": 156956.6629999992,
      "d": 217.3914999999979,
      "v": 100
    },
    {
      "midi": 48,
      "hit": false,
      "t": 156956.66299999962,
      "d": 217.3914999999979,
      "v": 100
    },
    {
      "midi": 40,
      "hit": false,
      "t": 156956.66300000143,
      "d": 217.3914999999979,
      "v": 100
    },
    {
      "midi": 35,
      "hit": false,
      "t": 156956.66300000143,
      "d": 217.3914999999979,
      "v": 100
    },
    {
      "midi": 42,
      "hit": false,
      "t": 156956.66300000143,
      "d": 217.3914999999979,
      "v": 100
    },
    {
      "midi": 59,
      "hit": false,
      "t": 156956.66300000143,
      "d": 434.7830000000249,
      "v": 100
    },
    {
      "midi": 48,
      "hit": false,
      "t": 157065.35874999856,
      "d": 45.28989583332441,
      "v": 100
    },
    {
      "midi": 48,
      "hit": false,
      "t": 157065.35875000185,
      "d": 108.6957500000135,
      "v": 100
    },
    {
      "midi": 46,
      "hit": false,
      "t": 157174.05449999883,
      "d": 217.3914999999979,
      "v": 100
    },
    {
      "midi": 36,
      "hit": false,
      "t": 157174.05449999962,
      "d": 217.3914999999979,
      "v": 100
    },
    {
      "midi": 55,
      "hit": false,
      "t": 157174.0545000007,
      "d": 326.0872500000114,
      "v": 100
    },
    {
      "midi": 62,
      "hit": false,
      "t": 157174.0545000007,
      "d": 326.0872500000114,
      "v": 100
    },
    {
      "midi": 65,
      "hit": false,
      "t": 157174.0545000007,
      "d": 326.0872500000114,
      "v": 100
    },
    {
      "midi": 58,
      "hit": false,
      "t": 157174.0545000007,
      "d": 326.0872500000114,
      "v": 100
    },
    {
      "midi": 62,
      "hit": false,
      "t": 157174.0545000007,
      "d": 326.0872500000114,
      "v": 100
    },
    {
      "midi": 55,
      "hit": false,
      "t": 157174.0545000007,
      "d": 326.0872500000114,
      "v": 100
    },
    {
      "midi": 58,
      "hit": false,
      "t": 157174.0545000007,
      "d": 326.0872500000114,
      "v": 100
    },
    {
      "midi": 65,
      "hit": false,
      "t": 157174.0545000007,
      "d": 326.0872500000114,
      "v": 100
    },
    {
      "midi": 42,
      "hit": false,
      "t": 157174.05450000142,
      "d": 108.6957500000135,
      "v": 100
    },
    {
      "midi": 48,
      "hit": false,
      "t": 157174.05450000186,
      "d": 108.6957500000135,
      "v": 100
    },
    {
      "midi": 43,
      "hit": false,
      "t": 157282.75024999856,
      "d": 45.28989583332441,
      "v": 100
    },
    {
      "midi": 40,
      "hit": false,
      "t": 157282.75025000144,
      "d": 108.6957500000135,
      "v": 100
    },
    {
      "midi": 42,
      "hit": false,
      "t": 157282.75025000144,
      "d": 108.6957500000135,
      "v": 100
    },
    {
      "midi": 48,
      "hit": false,
      "t": 157282.75025000187,
      "d": 108.6957500000135,
      "v": 100
    },
    {
      "midi": 42,
      "hit": false,
      "t": 157391.44599999883,
      "d": 217.3914999999979,
      "v": 100
    },
    {
      "midi": 36,
      "hit": false,
      "t": 157391.44599999962,
      "d": 108.6957500000135,
      "v": 100
    },
    {
      "midi": 35,
      "hit": false,
      "t": 157391.44600000145,
      "d": 217.391500000027,
      "v": 100
    },
    {
      "midi": 42,
      "hit": false,
      "t": 157391.44600000145,
      "d": 217.391500000027,
      "v": 100
    },
    {
      "midi": 59,
      "hit": false,
      "t": 157391.44600000145,
      "d": 434.7830000000249,
      "v": 100
    },
    {
      "midi": 51,
      "hit": false,
      "t": 157391.4460000019,
      "d": 217.3914999999979,
      "v": 100
    },
    {
      "midi": 41,
      "hit": false,
      "t": 157500.14174999855,
      "d": 45.28989583332441,
      "v": 100
    },
    {
      "midi": 36,
      "hit": false,
      "t": 157500.14174999963,
      "d": 108.6957500000135,
      "v": 100
    },
    {
      "midi": 55,
      "hit": false,
      "t": 157500.1417500007,
      "d": 326.0872500000114,
      "v": 100
    },
    {
      "midi": 62,
      "hit": false,
      "t": 157500.1417500007,
      "d": 326.0872500000114,
      "v": 100
    },
    {
      "midi": 65,
      "hit": false,
      "t": 157500.1417500007,
      "d": 326.0872500000114,
      "v": 100
    },
    {
      "midi": 58,
      "hit": false,
      "t": 157500.1417500007,
      "d": 326.0872500000114,
      "v": 100
    },
    {
      "midi": 62,
      "hit": false,
      "t": 157500.1417500007,
      "d": 326.0872500000114,
      "v": 100
    },
    {
      "midi": 55,
      "hit": false,
      "t": 157500.1417500007,
      "d": 326.0872500000114,
      "v": 100
    },
    {
      "midi": 58,
      "hit": false,
      "t": 157500.1417500007,
      "d": 326.0872500000114,
      "v": 100
    },
    {
      "midi": 65,
      "hit": false,
      "t": 157500.1417500007,
      "d": 326.0872500000114,
      "v": 100
    },
    {
      "midi": 40,
      "hit": false,
      "t": 157500.14175000146,
      "d": 108.6957500000135,
      "v": 100
    },
    {
      "midi": 41,
      "hit": false,
      "t": 157608.83749999854,
      "d": 86.05080208333675,
      "v": 100
    },
    {
      "midi": 46,
      "hit": false,
      "t": 157608.83749999883,
      "d": 217.3914999999979,
      "v": 100
    },
    {
      "midi": 36,
      "hit": false,
      "t": 157608.83749999964,
      "d": 217.3914999999979,
      "v": 100
    },
    {
      "midi": 46,
      "hit": false,
      "t": 157608.83750000148,
      "d": 217.3914999999979,
      "v": 100
    },
    {
      "midi": 48,
      "hit": false,
      "t": 157608.8375000019,
      "d": 108.6957500000135,
      "v": 100
    },
    {
      "midi": 48,
      "hit": false,
      "t": 157717.5332500019,
      "d": 108.6957500000135,
      "v": 100
    },
    {
      "midi": 43,
      "hit": false,
      "t": 157826.22899999854,
      "d": 45.28989583332441,
      "v": 100
    },
    {
      "midi": 40,
      "hit": false,
      "t": 157826.22899999883,
      "d": 217.3914999999979,
      "v": 100
    },
    {
      "midi": 42,
      "hit": false,
      "t": 157826.22899999883,
      "d": 217.3914999999979,
      "v": 100
    },
    {
      "midi": 84,
      "hit": false,
      "t": 157826.22899999918,
      "d": 217.3914999999979,
      "v": 100
    },
    {
      "midi": 48,
      "hit": false,
      "t": 157826.22899999964,
      "d": 217.3914999999979,
      "v": 100
    },
    {
      "midi": 40,
      "hit": false,
      "t": 157826.22900000148,
      "d": 108.6957500000135,
      "v": 100
    },
    {
      "midi": 35,
      "hit": false,
      "t": 157826.22900000148,
      "d": 217.391500000027,
      "v": 100
    },
    {
      "midi": 59,
      "hit": false,
      "t": 157826.22900000148,
      "d": 434.783000000054,
      "v": 100
    },
    {
      "midi": 53,
      "hit": false,
      "t": 157826.2290000019,
      "d": 108.6957500000135,
      "v": 100
    },
    {
      "midi": 45,
      "hit": false,
      "t": 157934.92474999852,
      "d": 45.28989583332441,
      "v": 100
    },
    {
      "midi": 58,
      "hit": false,
      "t": 157934.92475000073,
      "d": 108.6957500000135,
      "v": 100
    },
    {
      "midi": 62,
      "hit": false,
      "t": 157934.92475000073,
      "d": 108.6957500000135,
      "v": 100
    },
    {
      "midi": 55,
      "hit": false,
      "t": 157934.92475000073,
      "d": 108.6957500000135,
      "v": 100
    },
    {
      "midi": 65,
      "hit": false,
      "t": 157934.92475000073,
      "d": 108.6957500000135,
      "v": 100
    },
    {
      "midi": 62,
      "hit": false,
      "t": 157934.92475000073,
      "d": 108.6957500000135,
      "v": 100
    },
    {
      "midi": 58,
      "hit": false,
      "t": 157934.92475000073,
      "d": 108.6957500000135,
      "v": 100
    },
    {
      "midi": 65,
      "hit": false,
      "t": 157934.92475000073,
      "d": 108.6957500000135,
      "v": 100
    },
    {
      "midi": 55,
      "hit": false,
      "t": 157934.92475000073,
      "d": 108.6957500000135,
      "v": 100
    },
    {
      "midi": 48,
      "hit": false,
      "t": 157934.92475000193,
      "d": 108.6957500000135,
      "v": 100
    },
    {
      "midi": 46,
      "hit": false,
      "t": 158043.6204999985,
      "d": 45.28989583332441,
      "v": 100
    },
    {
      "midi": 49,
      "hit": false,
      "t": 158043.62049999883,
      "d": 217.3914999999979,
      "v": 100
    },
    {
      "midi": 46,
      "hit": false,
      "t": 158043.62049999883,
      "d": 217.3914999999979,
      "v": 100
    },
    {
      "midi": 36,
      "hit": false,
      "t": 158043.62049999964,
      "d": 217.3914999999979,
      "v": 100
    },
    {
      "midi": 35,
      "hit": false,
      "t": 158043.6205000015,
      "d": 108.6957500000135,
      "v": 100
    },
    {
      "midi": 55,
      "hit": false,
      "t": 158043.62050000194,
      "d": 108.6957500000135,
      "v": 100
    },
    {
      "midi": 50,
      "hit": false,
      "t": 158152.3162499985,
      "d": 45.28989583332441,
      "v": 100
    },
    {
      "midi": 48,
      "hit": false,
      "t": 158152.31625000195,
      "d": 108.6957500000135,
      "v": 100
    },
    {
      "midi": 36,
      "hit": false,
      "t": 158261.01199999847,
      "d": 45.28989583332441,
      "v": 100
    },
    {
      "midi": 42,
      "hit": false,
      "t": 158261.01199999882,
      "d": 217.391500000027,
      "v": 100
    },
    {
      "midi": 36,
      "hit": false,
      "t": 158261.01199999964,
      "d": 434.783000000054,
      "v": 100
    },
    {
      "midi": 35,
      "hit": false,
      "t": 158261.01200000153,
      "d": 217.391500000027,
      "v": 100
    },
    {
      "midi": 42,
      "hit": false,
      "t": 158261.01200000153,
      "d": 217.391500000027,
      "v": 100
    },
    {
      "midi": 59,
      "hit": false,
      "t": 158261.01200000153,
      "d": 434.783000000054,
      "v": 100
    },
    {
      "midi": 48,
      "hit": false,
      "t": 158261.01200000197,
      "d": 108.6957500000135,
      "v": 100
    },
    {
      "midi": 36,
      "hit": false,
      "t": 158369.70774999846,
      "d": 45.28989583332441,
      "v": 100
    },
    {
      "midi": 48,
      "hit": false,
      "t": 158369.70775000198,
      "d": 108.6957500000135,
      "v": 100
    },
    {
      "midi": 36,
      "hit": false,
      "t": 158478.40349999844,
      "d": 86.05080208333675,
      "v": 100
    },
    {
      "midi": 46,
      "hit": false,
      "t": 158478.40349999885,
      "d": 217.391500000027,
      "v": 100
    },
    {
      "midi": 42,
      "hit": false,
      "t": 158478.40350000156,
      "d": 108.6957500000135,
      "v": 100
    },
    {
      "midi": 48,
      "hit": false,
      "t": 158478.403500002,
      "d": 108.6957500000135,
      "v": 100
    },
    {
      "midi": 62,
      "hit": false,
      "t": 158587.09925000079,
      "d": 326.0872500000405,
      "v": 100
    },
    {
      "midi": 55,
      "hit": false,
      "t": 158587.09925000079,
      "d": 326.0872500000405,
      "v": 100
    },
    {
      "midi": 65,
      "hit": false,
      "t": 158587.09925000079,
      "d": 326.0872500000405,
      "v": 100
    },
    {
      "midi": 58,
      "hit": false,
      "t": 158587.09925000079,
      "d": 326.0872500000405,
      "v": 100
    },
    {
      "midi": 55,
      "hit": false,
      "t": 158587.09925000079,
      "d": 326.0872500000405,
      "v": 100
    },
    {
      "midi": 62,
      "hit": false,
      "t": 158587.09925000079,
      "d": 326.0872500000405,
      "v": 100
    },
    {
      "midi": 58,
      "hit": false,
      "t": 158587.09925000079,
      "d": 326.0872500000405,
      "v": 100
    },
    {
      "midi": 65,
      "hit": false,
      "t": 158587.09925000079,
      "d": 326.0872500000405,
      "v": 100
    },
    {
      "midi": 42,
      "hit": false,
      "t": 158587.09925000157,
      "d": 108.6957500000135,
      "v": 100
    },
    {
      "midi": 51,
      "hit": false,
      "t": 158587.099250002,
      "d": 217.391500000027,
      "v": 100
    },
    {
      "midi": 36,
      "hit": false,
      "t": 158695.79499999847,
      "d": 45.28989583332441,
      "v": 100
    },
    {
      "midi": 42,
      "hit": false,
      "t": 158695.79499999888,
      "d": 217.391500000027,
      "v": 100
    },
    {
      "midi": 40,
      "hit": false,
      "t": 158695.79499999888,
      "d": 217.391500000027,
      "v": 100
    },
    {
      "midi": 84,
      "hit": false,
      "t": 158695.79499999923,
      "d": 217.391500000027,
      "v": 100
    },
    {
      "midi": 48,
      "hit": false,
      "t": 158695.7949999997,
      "d": 217.391500000027,
      "v": 100
    },
    {
      "midi": 40,
      "hit": false,
      "t": 158695.79500000158,
      "d": 108.6957500000135,
      "v": 100
    },
    {
      "midi": 42,
      "hit": false,
      "t": 158695.79500000158,
      "d": 217.391500000027,
      "v": 100
    },
    {
      "midi": 35,
      "hit": false,
      "t": 158695.79500000158,
      "d": 217.391500000027,
      "v": 100
    },
    {
      "midi": 59,
      "hit": false,
      "t": 158695.79500000158,
      "d": 434.783000000054,
      "v": 100
    },
    {
      "midi": 48,
      "hit": false,
      "t": 158804.49074999845,
      "d": 45.28989583332441,
      "v": 100
    },
    {
      "midi": 48,
      "hit": false,
      "t": 158804.49075000203,
      "d": 108.6957500000135,
      "v": 100
    },
    {
      "midi": 46,
      "hit": false,
      "t": 158913.1864999989,
      "d": 217.391500000027,
      "v": 100
    },
    {
      "midi": 36,
      "hit": false,
      "t": 158913.18649999972,
      "d": 217.391500000027,
      "v": 100
    },
    {
      "midi": 62,
      "hit": false,
      "t": 158913.18650000083,
      "d": 326.0872500000405,
      "v": 100
    },
    {
      "midi": 55,
      "hit": false,
      "t": 158913.18650000083,
      "d": 326.0872500000405,
      "v": 100
    },
    {
      "midi": 58,
      "hit": false,
      "t": 158913.18650000083,
      "d": 326.0872500000405,
      "v": 100
    },
    {
      "midi": 65,
      "hit": false,
      "t": 158913.18650000083,
      "d": 326.0872500000405,
      "v": 100
    },
    {
      "midi": 55,
      "hit": false,
      "t": 158913.18650000083,
      "d": 326.0872500000405,
      "v": 100
    },
    {
      "midi": 62,
      "hit": false,
      "t": 158913.18650000083,
      "d": 326.0872500000405,
      "v": 100
    },
    {
      "midi": 65,
      "hit": false,
      "t": 158913.18650000083,
      "d": 326.0872500000405,
      "v": 100
    },
    {
      "midi": 58,
      "hit": false,
      "t": 158913.18650000083,
      "d": 326.0872500000405,
      "v": 100
    },
    {
      "midi": 42,
      "hit": false,
      "t": 158913.1865000016,
      "d": 108.6957500000135,
      "v": 100
    },
    {
      "midi": 48,
      "hit": false,
      "t": 158913.18650000205,
      "d": 108.6957500000135,
      "v": 100
    },
    {
      "midi": 43,
      "hit": false,
      "t": 159021.88224999845,
      "d": 45.28989583332441,
      "v": 100
    },
    {
      "midi": 42,
      "hit": false,
      "t": 159021.88225000162,
      "d": 108.6957500000135,
      "v": 100
    },
    {
      "midi": 40,
      "hit": false,
      "t": 159021.88225000162,
      "d": 108.6957500000135,
      "v": 100
    },
    {
      "midi": 48,
      "hit": false,
      "t": 159021.88225000206,
      "d": 108.6957500000135,
      "v": 100
    },
    {
      "midi": 42,
      "hit": false,
      "t": 159130.57799999893,
      "d": 217.391500000027,
      "v": 100
    },
    {
      "midi": 36,
      "hit": false,
      "t": 159130.57799999975,
      "d": 108.6957500000135,
      "v": 100
    },
    {
      "midi": 42,
      "hit": false,
      "t": 159130.57800000164,
      "d": 217.391500000027,
      "v": 100
    },
    {
      "midi": 35,
      "hit": false,
      "t": 159130.57800000164,
      "d": 217.391500000027,
      "v": 100
    },
    {
      "midi": 59,
      "hit": false,
      "t": 159130.57800000164,
      "d": 434.783000000054,
      "v": 100
    },
    {
      "midi": 51,
      "hit": false,
      "t": 159130.57800000207,
      "d": 217.391500000027,
      "v": 100
    },
    {
      "midi": 41,
      "hit": false,
      "t": 159239.27374999845,
      "d": 45.28989583332441,
      "v": 100
    },
    {
      "midi": 36,
      "hit": false,
      "t": 159239.27374999976,
      "d": 108.6957500000135,
      "v": 100
    },
    {
      "midi": 62,
      "hit": false,
      "t": 159239.27375000087,
      "d": 326.0872500000405,
      "v": 100
    },
    {
      "midi": 55,
      "hit": false,
      "t": 159239.27375000087,
      "d": 326.0872500000405,
      "v": 100
    },
    {
      "midi": 58,
      "hit": false,
      "t": 159239.27375000087,
      "d": 326.0872500000405,
      "v": 100
    },
    {
      "midi": 65,
      "hit": false,
      "t": 159239.27375000087,
      "d": 326.0872500000405,
      "v": 100
    },
    {
      "midi": 55,
      "hit": false,
      "t": 159239.27375000087,
      "d": 326.0872500000405,
      "v": 100
    },
    {
      "midi": 62,
      "hit": false,
      "t": 159239.27375000087,
      "d": 326.0872500000405,
      "v": 100
    },
    {
      "midi": 65,
      "hit": false,
      "t": 159239.27375000087,
      "d": 326.0872500000405,
      "v": 100
    },
    {
      "midi": 58,
      "hit": false,
      "t": 159239.27375000087,
      "d": 326.0872500000405,
      "v": 100
    },
    {
      "midi": 40,
      "hit": false,
      "t": 159239.27375000165,
      "d": 108.6957500000135,
      "v": 100
    },
    {
      "midi": 41,
      "hit": false,
      "t": 159347.96949999843,
      "d": 86.05080208333675,
      "v": 100
    },
    {
      "midi": 46,
      "hit": false,
      "t": 159347.96949999896,
      "d": 217.391500000027,
      "v": 100
    },
    {
      "midi": 36,
      "hit": false,
      "t": 159347.96949999977,
      "d": 217.391500000027,
      "v": 100
    },
    {
      "midi": 46,
      "hit": false,
      "t": 159347.96950000167,
      "d": 217.391500000027,
      "v": 100
    },
    {
      "midi": 48,
      "hit": false,
      "t": 159347.9695000021,
      "d": 108.6957500000135,
      "v": 100
    },
    {
      "midi": 48,
      "hit": false,
      "t": 159456.66525000212,
      "d": 108.6957500000135,
      "v": 100
    },
    {
      "midi": 43,
      "hit": false,
      "t": 159565.36099999846,
      "d": 45.28989583332441,
      "v": 100
    },
    {
      "midi": 42,
      "hit": false,
      "t": 159565.360999999,
      "d": 217.391500000027,
      "v": 100
    },
    {
      "midi": 40,
      "hit": false,
      "t": 159565.360999999,
      "d": 217.391500000027,
      "v": 100
    },
    {
      "midi": 84,
      "hit": false,
      "t": 159565.36099999934,
      "d": 217.391500000027,
      "v": 100
    },
    {
      "midi": 48,
      "hit": false,
      "t": 159565.3609999998,
      "d": 217.391500000027,
      "v": 100
    },
    {
      "midi": 40,
      "hit": false,
      "t": 159565.3610000017,
      "d": 108.6957500000135,
      "v": 100
    },
    {
      "midi": 35,
      "hit": false,
      "t": 159565.3610000017,
      "d": 217.391500000027,
      "v": 100
    },
    {
      "midi": 59,
      "hit": false,
      "t": 159565.3610000017,
      "d": 434.783000000054,
      "v": 100
    },
    {
      "midi": 53,
      "hit": false,
      "t": 159565.36100000213,
      "d": 108.6957500000135,
      "v": 100
    },
    {
      "midi": 45,
      "hit": false,
      "t": 159674.05674999845,
      "d": 45.28989583332441,
      "v": 100
    },
    {
      "midi": 62,
      "hit": false,
      "t": 159674.05675000092,
      "d": 108.6957500000135,
      "v": 100
    },
    {
      "midi": 58,
      "hit": false,
      "t": 159674.05675000092,
      "d": 108.6957500000135,
      "v": 100
    },
    {
      "midi": 65,
      "hit": false,
      "t": 159674.05675000092,
      "d": 108.6957500000135,
      "v": 100
    },
    {
      "midi": 55,
      "hit": false,
      "t": 159674.05675000092,
      "d": 108.6957500000135,
      "v": 100
    },
    {
      "midi": 58,
      "hit": false,
      "t": 159674.05675000092,
      "d": 108.6957500000135,
      "v": 100
    },
    {
      "midi": 62,
      "hit": false,
      "t": 159674.05675000092,
      "d": 108.6957500000135,
      "v": 100
    },
    {
      "midi": 55,
      "hit": false,
      "t": 159674.05675000092,
      "d": 108.6957500000135,
      "v": 100
    },
    {
      "midi": 65,
      "hit": false,
      "t": 159674.05675000092,
      "d": 108.6957500000135,
      "v": 100
    },
    {
      "midi": 48,
      "hit": false,
      "t": 159674.05675000214,
      "d": 108.6957500000135,
      "v": 100
    },
    {
      "midi": 46,
      "hit": false,
      "t": 159782.75249999843,
      "d": 45.28989583332441,
      "v": 100
    },
    {
      "midi": 46,
      "hit": false,
      "t": 159782.752499999,
      "d": 217.391500000027,
      "v": 100
    },
    {
      "midi": 57,
      "hit": false,
      "t": 159782.752499999,
      "d": 217.391500000027,
      "v": 100
    },
    {
      "midi": 36,
      "hit": false,
      "t": 159782.75249999983,
      "d": 217.391500000027,
      "v": 100
    },
    {
      "midi": 40,
      "hit": false,
      "t": 159782.75250000172,
      "d": 108.6957500000135,
      "v": 100
    },
    {
      "midi": 55,
      "hit": false,
      "t": 159782.75250000216,
      "d": 108.6957500000135,
      "v": 100
    },
    {
      "midi": 50,
      "hit": false,
      "t": 159891.44824999842,
      "d": 45.28989583332441,
      "v": 100
    },
    {
      "midi": 40,
      "hit": false,
      "t": 159891.44825000173,
      "d": 108.6957500000135,
      "v": 100
    },
    {
      "midi": 48,
      "hit": false,
      "t": 159891.44825000217,
      "d": 108.6957500000135,
      "v": 100
    },
    {
      "midi": 36,
      "hit": false,
      "t": 160000.1439999984,
      "d": 45.28989583332441,
      "v": 100
    },
    {
      "midi": 49,
      "hit": false,
      "t": 160000.14399999904,
      "d": 217.391500000027,
      "v": 100
    },
    {
      "midi": 42,
      "hit": false,
      "t": 160000.14399999904,
      "d": 217.391500000027,
      "v": 100
    },
    {
      "midi": 36,
      "hit": false,
      "t": 160000.14399999985,
      "d": 434.783000000054,
      "v": 100
    },
    {
      "midi": 56,
      "hit": false,
      "t": 160000.14400000015,
      "d": 3478.264000000432,
      "v": 100
    },
    {
      "midi": 63,
      "hit": false,
      "t": 160000.14400000015,
      "d": 3478.264000000432,
      "v": 100
    },
    {
      "midi": 53,
      "hit": false,
      "t": 160000.14400000015,
      "d": 3478.264000000432,
      "v": 100
    },
    {
      "midi": 68,
      "hit": false,
      "t": 160000.14400000015,
      "d": 3478.264000000432,
      "v": 100
    },
    {
      "midi": 51,
      "hit": false,
      "t": 160000.14400000015,
      "d": 3478.264000000432,
      "v": 100
    },
    {
      "midi": 53,
      "hit": false,
      "t": 160000.14400000015,
      "d": 3478.264000000432,
      "v": 100
    },
    {
      "midi": 63,
      "hit": false,
      "t": 160000.14400000015,
      "d": 3478.264000000432,
      "v": 100
    },
    {
      "midi": 56,
      "hit": false,
      "t": 160000.14400000015,
      "d": 3478.264000000432,
      "v": 100
    },
    {
      "midi": 51,
      "hit": false,
      "t": 160000.14400000015,
      "d": 3478.264000000432,
      "v": 100
    },
    {
      "midi": 68,
      "hit": false,
      "t": 160000.14400000015,
      "d": 3478.264000000432,
      "v": 100
    },
    {
      "midi": 60,
      "hit": false,
      "t": 160000.14400000017,
      "d": 3478.264000000432,
      "v": 100
    },
    {
      "midi": 67,
      "hit": false,
      "t": 160000.14400000017,
      "d": 3478.264000000432,
      "v": 100
    },
    {
      "midi": 63,
      "hit": false,
      "t": 160000.14400000096,
      "d": 326.0872500000405,
      "v": 100
    },
    {
      "midi": 60,
      "hit": false,
      "t": 160000.14400000096,
      "d": 326.0872500000405,
      "v": 100
    },
    {
      "midi": 56,
      "hit": false,
      "t": 160000.14400000096,
      "d": 326.0872500000405,
      "v": 100
    },
    {
      "midi": 56,
      "hit": false,
      "t": 160000.14400000096,
      "d": 326.0872500000405,
      "v": 100
    },
    {
      "midi": 60,
      "hit": false,
      "t": 160000.14400000096,
      "d": 326.0872500000405,
      "v": 100
    },
    {
      "midi": 63,
      "hit": false,
      "t": 160000.14400000096,
      "d": 326.0872500000405,
      "v": 100
    },
    {
      "midi": 42,
      "hit": false,
      "t": 160000.14400000175,
      "d": 217.391500000027,
      "v": 100
    },
    {
      "midi": 35,
      "hit": false,
      "t": 160000.14400000175,
      "d": 217.391500000027,
      "v": 100
    },
    {
      "midi": 59,
      "hit": false,
      "t": 160000.14400000175,
      "d": 434.783000000054,
      "v": 100
    },
    {
      "midi": 48,
      "hit": false,
      "t": 160000.14400000218,
      "d": 108.6957500000135,
      "v": 100
    },
    {
      "midi": 48,
      "hit": false,
      "t": 160108.8397500022,
      "d": 108.6957500000135,
      "v": 100
    },
    {
      "midi": 36,
      "hit": false,
      "t": 160217.5354999984,
      "d": 45.28989583332441,
      "v": 100
    },
    {
      "midi": 46,
      "hit": false,
      "t": 160217.53549999907,
      "d": 217.391500000027,
      "v": 100
    },
    {
      "midi": 42,
      "hit": false,
      "t": 160217.53550000177,
      "d": 108.6957500000135,
      "v": 100
    },
    {
      "midi": 48,
      "hit": false,
      "t": 160217.5355000022,
      "d": 108.6957500000135,
      "v": 100
    },
    {
      "midi": 60,
      "hit": false,
      "t": 160326.231250001,
      "d": 326.0872500000405,
      "v": 100
    },
    {
      "midi": 63,
      "hit": false,
      "t": 160326.231250001,
      "d": 326.0872500000405,
      "v": 100
    },
    {
      "midi": 56,
      "hit": false,
      "t": 160326.231250001,
      "d": 326.0872500000405,
      "v": 100
    },
    {
      "midi": 56,
      "hit": false,
      "t": 160326.231250001,
      "d": 326.0872500000405,
      "v": 100
    },
    {
      "midi": 63,
      "hit": false,
      "t": 160326.231250001,
      "d": 326.0872500000405,
      "v": 100
    },
    {
      "midi": 60,
      "hit": false,
      "t": 160326.231250001,
      "d": 326.0872500000405,
      "v": 100
    },
    {
      "midi": 42,
      "hit": false,
      "t": 160326.2312500018,
      "d": 108.6957500000135,
      "v": 100
    },
    {
      "midi": 51,
      "hit": false,
      "t": 160326.23125000222,
      "d": 217.391500000027,
      "v": 100
    },
    {
      "midi": 36,
      "hit": false,
      "t": 160434.9269999984,
      "d": 45.28989583332441,
      "v": 100
    },
    {
      "midi": 42,
      "hit": false,
      "t": 160434.9269999991,
      "d": 217.391500000027,
      "v": 100
    },
    {
      "midi": 40,
      "hit": false,
      "t": 160434.9269999991,
      "d": 217.391500000027,
      "v": 100
    },
    {
      "midi": 84,
      "hit": false,
      "t": 160434.92699999944,
      "d": 217.391500000027,
      "v": 100
    },
    {
      "midi": 48,
      "hit": false,
      "t": 160434.9269999999,
      "d": 217.391500000027,
      "v": 100
    },
    {
      "midi": 40,
      "hit": false,
      "t": 160434.9270000018,
      "d": 217.391500000027,
      "v": 100
    },
    {
      "midi": 35,
      "hit": false,
      "t": 160434.9270000018,
      "d": 217.391500000027,
      "v": 100
    },
    {
      "midi": 42,
      "hit": false,
      "t": 160434.9270000018,
      "d": 217.391500000027,
      "v": 100
    },
    {
      "midi": 59,
      "hit": false,
      "t": 160434.9270000018,
      "d": 434.783000000054,
      "v": 100
    },
    {
      "midi": 48,
      "hit": false,
      "t": 160543.62274999838,
      "d": 45.28989583332441,
      "v": 100
    },
    {
      "midi": 48,
      "hit": false,
      "t": 160543.62275000225,
      "d": 108.6957500000135,
      "v": 100
    },
    {
      "midi": 46,
      "hit": false,
      "t": 160652.31849999912,
      "d": 217.391500000027,
      "v": 100
    },
    {
      "midi": 36,
      "hit": false,
      "t": 160652.31849999994,
      "d": 217.391500000027,
      "v": 100
    },
    {
      "midi": 60,
      "hit": false,
      "t": 160652.31850000104,
      "d": 326.0872500000405,
      "v": 100
    },
    {
      "midi": 63,
      "hit": false,
      "t": 160652.31850000104,
      "d": 326.0872500000405,
      "v": 100
    },
    {
      "midi": 56,
      "hit": false,
      "t": 160652.31850000104,
      "d": 326.0872500000405,
      "v": 100
    },
    {
      "midi": 56,
      "hit": false,
      "t": 160652.31850000104,
      "d": 326.0872500000405,
      "v": 100
    },
    {
      "midi": 63,
      "hit": false,
      "t": 160652.31850000104,
      "d": 326.0872500000405,
      "v": 100
    },
    {
      "midi": 60,
      "hit": false,
      "t": 160652.31850000104,
      "d": 326.0872500000405,
      "v": 100
    },
    {
      "midi": 42,
      "hit": false,
      "t": 160652.31850000183,
      "d": 108.6957500000135,
      "v": 100
    },
    {
      "midi": 48,
      "hit": false,
      "t": 160652.31850000226,
      "d": 108.6957500000135,
      "v": 100
    },
    {
      "midi": 43,
      "hit": false,
      "t": 160761.01424999838,
      "d": 45.28989583332441,
      "v": 100
    },
    {
      "midi": 40,
      "hit": false,
      "t": 160761.01425000184,
      "d": 108.6957500000135,
      "v": 100
    },
    {
      "midi": 42,
      "hit": false,
      "t": 160761.01425000184,
      "d": 108.6957500000135,
      "v": 100
    },
    {
      "midi": 48,
      "hit": false,
      "t": 160761.01425000228,
      "d": 108.6957500000135,
      "v": 100
    },
    {
      "midi": 42,
      "hit": false,
      "t": 160869.70999999915,
      "d": 217.391500000027,
      "v": 100
    },
    {
      "midi": 36,
      "hit": false,
      "t": 160869.70999999996,
      "d": 108.6957500000135,
      "v": 100
    },
    {
      "midi": 35,
      "hit": false,
      "t": 160869.71000000185,
      "d": 217.391500000027,
      "v": 100
    },
    {
      "midi": 42,
      "hit": false,
      "t": 160869.71000000185,
      "d": 217.391500000027,
      "v": 100
    },
    {
      "midi": 59,
      "hit": false,
      "t": 160869.71000000185,
      "d": 434.783000000054,
      "v": 100
    },
    {
      "midi": 51,
      "hit": false,
      "t": 160869.7100000023,
      "d": 217.391500000027,
      "v": 100
    },
    {
      "midi": 41,
      "hit": false,
      "t": 160978.40574999838,
      "d": 45.28989583332441,
      "v": 100
    },
    {
      "midi": 36,
      "hit": false,
      "t": 160978.40574999998,
      "d": 108.6957500000135,
      "v": 100
    },
    {
      "midi": 60,
      "hit": false,
      "t": 160978.40575000108,
      "d": 326.0872500000405,
      "v": 100
    },
    {
      "midi": 63,
      "hit": false,
      "t": 160978.40575000108,
      "d": 326.0872500000405,
      "v": 100
    },
    {
      "midi": 56,
      "hit": false,
      "t": 160978.40575000108,
      "d": 326.0872500000405,
      "v": 100
    },
    {
      "midi": 56,
      "hit": false,
      "t": 160978.40575000108,
      "d": 326.0872500000405,
      "v": 100
    },
    {
      "midi": 63,
      "hit": false,
      "t": 160978.40575000108,
      "d": 326.0872500000405,
      "v": 100
    },
    {
      "midi": 60,
      "hit": false,
      "t": 160978.40575000108,
      "d": 326.0872500000405,
      "v": 100
    },
    {
      "midi": 40,
      "hit": false,
      "t": 160978.40575000187,
      "d": 108.6957500000135,
      "v": 100
    },
    {
      "midi": 41,
      "hit": false,
      "t": 161087.10149999836,
      "d": 86.05080208333675,
      "v": 100
    },
    {
      "midi": 46,
      "hit": false,
      "t": 161087.10149999917,
      "d": 217.391500000027,
      "v": 100
    },
    {
      "midi": 36,
      "hit": false,
      "t": 161087.1015,
      "d": 217.391500000027,
      "v": 100
    },
    {
      "midi": 46,
      "hit": false,
      "t": 161087.10150000188,
      "d": 217.391500000027,
      "v": 100
    },
    {
      "midi": 48,
      "hit": false,
      "t": 161087.10150000232,
      "d": 108.6957500000135,
      "v": 100
    },
    {
      "midi": 48,
      "hit": false,
      "t": 161195.79725000233,
      "d": 108.6957500000135,
      "v": 100
    },
    {
      "midi": 43,
      "hit": false,
      "t": 161304.4929999984,
      "d": 45.28989583332441,
      "v": 100
    },
    {
      "midi": 40,
      "hit": false,
      "t": 161304.4929999992,
      "d": 217.391500000027,
      "v": 100
    },
    {
      "midi": 42,
      "hit": false,
      "t": 161304.4929999992,
      "d": 217.391500000027,
      "v": 100
    },
    {
      "midi": 84,
      "hit": false,
      "t": 161304.49299999955,
      "d": 217.391500000027,
      "v": 100
    },
    {
      "midi": 48,
      "hit": false,
      "t": 161304.49300000002,
      "d": 217.391500000027,
      "v": 100
    },
    {
      "midi": 40,
      "hit": false,
      "t": 161304.4930000019,
      "d": 108.6957500000135,
      "v": 100
    },
    {
      "midi": 35,
      "hit": false,
      "t": 161304.4930000019,
      "d": 217.391500000027,
      "v": 100
    },
    {
      "midi": 59,
      "hit": false,
      "t": 161304.4930000019,
      "d": 434.783000000054,
      "v": 100
    },
    {
      "midi": 53,
      "hit": false,
      "t": 161304.49300000235,
      "d": 108.6957500000135,
      "v": 100
    },
    {
      "midi": 45,
      "hit": false,
      "t": 161413.18874999837,
      "d": 45.28989583332441,
      "v": 100
    },
    {
      "midi": 63,
      "hit": false,
      "t": 161413.18875000114,
      "d": 108.6957500000135,
      "v": 100
    },
    {
      "midi": 60,
      "hit": false,
      "t": 161413.18875000114,
      "d": 108.6957500000135,
      "v": 100
    },
    {
      "midi": 56,
      "hit": false,
      "t": 161413.18875000114,
      "d": 108.6957500000135,
      "v": 100
    },
    {
      "midi": 56,
      "hit": false,
      "t": 161413.18875000114,
      "d": 108.6957500000135,
      "v": 100
    },
    {
      "midi": 60,
      "hit": false,
      "t": 161413.18875000114,
      "d": 108.6957500000135,
      "v": 100
    },
    {
      "midi": 63,
      "hit": false,
      "t": 161413.18875000114,
      "d": 108.6957500000135,
      "v": 100
    },
    {
      "midi": 48,
      "hit": false,
      "t": 161413.18875000236,
      "d": 108.6957500000135,
      "v": 100
    },
    {
      "midi": 46,
      "hit": false,
      "t": 161521.88449999836,
      "d": 45.28989583332441,
      "v": 100
    },
    {
      "midi": 46,
      "hit": false,
      "t": 161521.88449999923,
      "d": 217.391500000027,
      "v": 100
    },
    {
      "midi": 36,
      "hit": false,
      "t": 161521.88450000004,
      "d": 217.391500000027,
      "v": 100
    },
    {
      "midi": 35,
      "hit": false,
      "t": 161521.88450000194,
      "d": 108.6957500000135,
      "v": 100
    },
    {
      "midi": 55,
      "hit": false,
      "t": 161521.88450000237,
      "d": 108.6957500000135,
      "v": 100
    },
    {
      "midi": 50,
      "hit": false,
      "t": 161630.58024999834,
      "d": 45.28989583332441,
      "v": 100
    },
    {
      "midi": 48,
      "hit": false,
      "t": 161630.5802500024,
      "d": 108.6957500000135,
      "v": 100
    },
    {
      "midi": 36,
      "hit": false,
      "t": 161739.27599999832,
      "d": 45.28989583332441,
      "v": 100
    },
    {
      "midi": 42,
      "hit": false,
      "t": 161739.27599999926,
      "d": 217.391500000027,
      "v": 100
    },
    {
      "midi": 36,
      "hit": false,
      "t": 161739.27600000007,
      "d": 434.783000000054,
      "v": 100
    },
    {
      "midi": 42,
      "hit": false,
      "t": 161739.27600000196,
      "d": 217.391500000027,
      "v": 100
    },
    {
      "midi": 35,
      "hit": false,
      "t": 161739.27600000196,
      "d": 217.391500000027,
      "v": 100
    },
    {
      "midi": 59,
      "hit": false,
      "t": 161739.27600000196,
      "d": 434.783000000054,
      "v": 100
    },
    {
      "midi": 48,
      "hit": false,
      "t": 161739.2760000024,
      "d": 108.6957500000135,
      "v": 100
    },
    {
      "midi": 36,
      "hit": false,
      "t": 161847.9717499983,
      "d": 45.28989583332441,
      "v": 100
    },
    {
      "midi": 48,
      "hit": false,
      "t": 161847.9717500024,
      "d": 108.6957500000135,
      "v": 100
    },
    {
      "midi": 36,
      "hit": false,
      "t": 161956.6674999983,
      "d": 86.05080208333675,
      "v": 100
    },
    {
      "midi": 46,
      "hit": false,
      "t": 161956.66749999928,
      "d": 217.391500000027,
      "v": 100
    },
    {
      "midi": 42,
      "hit": false,
      "t": 161956.667500002,
      "d": 108.6957500000135,
      "v": 100
    },
    {
      "midi": 48,
      "hit": false,
      "t": 161956.66750000243,
      "d": 108.6957500000135,
      "v": 100
    },
    {
      "midi": 56,
      "hit": false,
      "t": 162065.36325000122,
      "d": 326.0872500000405,
      "v": 100
    },
    {
      "midi": 63,
      "hit": false,
      "t": 162065.36325000122,
      "d": 326.0872500000405,
      "v": 100
    },
    {
      "midi": 60,
      "hit": false,
      "t": 162065.36325000122,
      "d": 326.0872500000405,
      "v": 100
    },
    {
      "midi": 60,
      "hit": false,
      "t": 162065.36325000122,
      "d": 326.0872500000405,
      "v": 100
    },
    {
      "midi": 63,
      "hit": false,
      "t": 162065.36325000122,
      "d": 326.0872500000405,
      "v": 100
    },
    {
      "midi": 56,
      "hit": false,
      "t": 162065.36325000122,
      "d": 326.0872500000405,
      "v": 100
    },
    {
      "midi": 42,
      "hit": false,
      "t": 162065.363250002,
      "d": 108.6957500000135,
      "v": 100
    },
    {
      "midi": 51,
      "hit": false,
      "t": 162065.36325000244,
      "d": 217.391500000027,
      "v": 100
    },
    {
      "midi": 36,
      "hit": false,
      "t": 162174.05899999832,
      "d": 45.28989583332441,
      "v": 100
    },
    {
      "midi": 42,
      "hit": false,
      "t": 162174.0589999993,
      "d": 217.391500000027,
      "v": 100
    },
    {
      "midi": 40,
      "hit": false,
      "t": 162174.0589999993,
      "d": 217.391500000027,
      "v": 100
    },
    {
      "midi": 84,
      "hit": false,
      "t": 162174.05899999966,
      "d": 217.391500000027,
      "v": 100
    },
    {
      "midi": 48,
      "hit": false,
      "t": 162174.05900000012,
      "d": 217.391500000027,
      "v": 100
    },
    {
      "midi": 40,
      "hit": false,
      "t": 162174.05900000202,
      "d": 108.6957500000135,
      "v": 100
    },
    {
      "midi": 35,
      "hit": false,
      "t": 162174.05900000202,
      "d": 217.391500000027,
      "v": 100
    },
    {
      "midi": 42,
      "hit": false,
      "t": 162174.05900000202,
      "d": 217.391500000027,
      "v": 100
    },
    {
      "midi": 59,
      "hit": false,
      "t": 162174.05900000202,
      "d": 434.783000000054,
      "v": 100
    },
    {
      "midi": 48,
      "hit": false,
      "t": 162282.7547499983,
      "d": 45.28989583332441,
      "v": 100
    },
    {
      "midi": 48,
      "hit": false,
      "t": 162282.75475000247,
      "d": 108.6957500000135,
      "v": 100
    },
    {
      "midi": 46,
      "hit": false,
      "t": 162391.45049999934,
      "d": 217.391500000027,
      "v": 100
    },
    {
      "midi": 36,
      "hit": false,
      "t": 162391.45050000015,
      "d": 217.391500000027,
      "v": 100
    },
    {
      "midi": 56,
      "hit": false,
      "t": 162391.45050000126,
      "d": 326.0872500000405,
      "v": 100
    },
    {
      "midi": 63,
      "hit": false,
      "t": 162391.45050000126,
      "d": 326.0872500000405,
      "v": 100
    },
    {
      "midi": 60,
      "hit": false,
      "t": 162391.45050000126,
      "d": 326.0872500000405,
      "v": 100
    },
    {
      "midi": 60,
      "hit": false,
      "t": 162391.45050000126,
      "d": 326.0872500000405,
      "v": 100
    },
    {
      "midi": 63,
      "hit": false,
      "t": 162391.45050000126,
      "d": 326.0872500000405,
      "v": 100
    },
    {
      "midi": 56,
      "hit": false,
      "t": 162391.45050000126,
      "d": 326.0872500000405,
      "v": 100
    },
    {
      "midi": 42,
      "hit": false,
      "t": 162391.45050000204,
      "d": 108.6957500000135,
      "v": 100
    },
    {
      "midi": 48,
      "hit": false,
      "t": 162391.45050000248,
      "d": 108.6957500000135,
      "v": 100
    },
    {
      "midi": 43,
      "hit": false,
      "t": 162500.1462499983,
      "d": 45.28989583332441,
      "v": 100
    },
    {
      "midi": 40,
      "hit": false,
      "t": 162500.14625000206,
      "d": 108.6957500000135,
      "v": 100
    },
    {
      "midi": 42,
      "hit": false,
      "t": 162500.14625000206,
      "d": 108.6957500000135,
      "v": 100
    },
    {
      "midi": 48,
      "hit": false,
      "t": 162500.1462500025,
      "d": 108.6957500000135,
      "v": 100
    },
    {
      "midi": 42,
      "hit": false,
      "t": 162608.84199999936,
      "d": 217.391500000027,
      "v": 100
    },
    {
      "midi": 36,
      "hit": false,
      "t": 162608.84200000018,
      "d": 108.6957500000135,
      "v": 100
    },
    {
      "midi": 35,
      "hit": false,
      "t": 162608.84200000207,
      "d": 217.391500000027,
      "v": 100
    },
    {
      "midi": 42,
      "hit": false,
      "t": 162608.84200000207,
      "d": 217.391500000027,
      "v": 100
    },
    {
      "midi": 59,
      "hit": false,
      "t": 162608.84200000207,
      "d": 434.783000000054,
      "v": 100
    },
    {
      "midi": 51,
      "hit": false,
      "t": 162608.8420000025,
      "d": 217.391500000027,
      "v": 100
    },
    {
      "midi": 41,
      "hit": false,
      "t": 162717.5377499983,
      "d": 45.28989583332441,
      "v": 100
    },
    {
      "midi": 36,
      "hit": false,
      "t": 162717.5377500002,
      "d": 108.6957500000135,
      "v": 100
    },
    {
      "midi": 56,
      "hit": false,
      "t": 162717.5377500013,
      "d": 326.0872500000405,
      "v": 100
    },
    {
      "midi": 63,
      "hit": false,
      "t": 162717.5377500013,
      "d": 326.0872500000405,
      "v": 100
    },
    {
      "midi": 60,
      "hit": false,
      "t": 162717.5377500013,
      "d": 326.0872500000405,
      "v": 100
    },
    {
      "midi": 60,
      "hit": false,
      "t": 162717.5377500013,
      "d": 326.0872500000405,
      "v": 100
    },
    {
      "midi": 63,
      "hit": false,
      "t": 162717.5377500013,
      "d": 326.0872500000405,
      "v": 100
    },
    {
      "midi": 56,
      "hit": false,
      "t": 162717.5377500013,
      "d": 326.0872500000405,
      "v": 100
    },
    {
      "midi": 40,
      "hit": false,
      "t": 162717.53775000208,
      "d": 108.6957500000135,
      "v": 100
    },
    {
      "midi": 41,
      "hit": false,
      "t": 162826.23349999828,
      "d": 86.05080208333675,
      "v": 100
    },
    {
      "midi": 46,
      "hit": false,
      "t": 162826.2334999994,
      "d": 217.391500000027,
      "v": 100
    },
    {
      "midi": 36,
      "hit": false,
      "t": 162826.2335000002,
      "d": 217.391500000027,
      "v": 100
    },
    {
      "midi": 40,
      "hit": false,
      "t": 162826.2335000021,
      "d": 108.6957500000135,
      "v": 100
    },
    {
      "midi": 46,
      "hit": false,
      "t": 162826.2335000021,
      "d": 217.391500000027,
      "v": 100
    },
    {
      "midi": 48,
      "hit": false,
      "t": 162826.23350000253,
      "d": 108.6957500000135,
      "v": 100
    },
    {
      "midi": 48,
      "hit": false,
      "t": 162934.92925000255,
      "d": 108.6957500000135,
      "v": 100
    },
    {
      "midi": 43,
      "hit": false,
      "t": 163043.6249999983,
      "d": 45.28989583332441,
      "v": 100
    },
    {
      "midi": 40,
      "hit": false,
      "t": 163043.62499999942,
      "d": 217.391500000027,
      "v": 100
    },
    {
      "midi": 42,
      "hit": false,
      "t": 163043.62499999942,
      "d": 217.391500000027,
      "v": 100
    },
    {
      "midi": 84,
      "hit": false,
      "t": 163043.62499999977,
      "d": 217.391500000027,
      "v": 100
    },
    {
      "midi": 48,
      "hit": false,
      "t": 163043.62500000023,
      "d": 217.391500000027,
      "v": 100
    },
    {
      "midi": 40,
      "hit": false,
      "t": 163043.62500000212,
      "d": 108.6957500000135,
      "v": 100
    },
    {
      "midi": 35,
      "hit": false,
      "t": 163043.62500000212,
      "d": 217.391500000027,
      "v": 100
    },
    {
      "midi": 59,
      "hit": false,
      "t": 163043.62500000212,
      "d": 434.783000000054,
      "v": 100
    },
    {
      "midi": 53,
      "hit": false,
      "t": 163043.62500000256,
      "d": 108.6957500000135,
      "v": 100
    },
    {
      "midi": 45,
      "hit": false,
      "t": 163152.3207499983,
      "d": 45.28989583332441,
      "v": 100
    },
    {
      "midi": 56,
      "hit": false,
      "t": 163152.32075000135,
      "d": 108.6957500000135,
      "v": 100
    },
    {
      "midi": 60,
      "hit": false,
      "t": 163152.32075000135,
      "d": 108.6957500000135,
      "v": 100
    },
    {
      "midi": 63,
      "hit": false,
      "t": 163152.32075000135,
      "d": 108.6957500000135,
      "v": 100
    },
    {
      "midi": 63,
      "hit": false,
      "t": 163152.32075000135,
      "d": 108.6957500000135,
      "v": 100
    },
    {
      "midi": 60,
      "hit": false,
      "t": 163152.32075000135,
      "d": 108.6957500000135,
      "v": 100
    },
    {
      "midi": 56,
      "hit": false,
      "t": 163152.32075000135,
      "d": 108.6957500000135,
      "v": 100
    },
    {
      "midi": 48,
      "hit": false,
      "t": 163152.32075000257,
      "d": 108.6957500000135,
      "v": 100
    },
    {
      "midi": 46,
      "hit": false,
      "t": 163261.01649999828,
      "d": 45.28989583332441,
      "v": 100
    },
    {
      "midi": 57,
      "hit": false,
      "t": 163261.01649999944,
      "d": 217.391500000027,
      "v": 100
    },
    {
      "midi": 46,
      "hit": false,
      "t": 163261.01649999944,
      "d": 217.391500000027,
      "v": 100
    },
    {
      "midi": 36,
      "hit": false,
      "t": 163261.01650000026,
      "d": 217.391500000027,
      "v": 100
    },
    {
      "midi": 40,
      "hit": false,
      "t": 163261.01650000215,
      "d": 108.6957500000135,
      "v": 100
    },
    {
      "midi": 35,
      "hit": false,
      "t": 163261.01650000215,
      "d": 108.6957500000135,
      "v": 100
    },
    {
      "midi": 55,
      "hit": false,
      "t": 163261.0165000026,
      "d": 108.6957500000135,
      "v": 100
    },
    {
      "midi": 50,
      "hit": false,
      "t": 163369.71224999827,
      "d": 45.28989583332441,
      "v": 100
    },
    {
      "midi": 40,
      "hit": false,
      "t": 163369.71225000217,
      "d": 108.6957500000135,
      "v": 100
    },
    {
      "midi": 48,
      "hit": false,
      "t": 163369.7122500026,
      "d": 108.6957500000135,
      "v": 100
    }
  ]
}