{
  "jsonPath": "Animes/Parasite Eve MIDI Collection/theme-of-aya.json",
  "path": "Animes\\Parasite Eve MIDI Collection\\Theme of Aya.mid",
  "name": "Theme of Aya",
  "difficulty": "Advanced",
  "bpm": 166.00035966744593,
  "notes": [
    {
      "midi": 85,
      "hit": false,
      "t": 0,
      "d": 481.92666666666673,
      "v": 110
    },
    {
      "midi": 30,
      "hit": false,
      "t": 0,
      "d": 2801.19875,
      "v": 110
    },
    {
      "midi": 85,
      "hit": false,
      "t": 90.36125000000001,
      "d": 481.9266666666666,
      "v": 110
    },
    {
      "midi": 78,
      "hit": false,
      "t": 180.72250000000003,
      "d": 176.9574479166667,
      "v": 110
    },
    {
      "midi": 78,
      "hit": false,
      "t": 271.08375,
      "d": 176.95744791666664,
      "v": 110
    },
    {
      "midi": 81,
      "hit": false,
      "t": 361.44500000000005,
      "d": 176.95744791666664,
      "v": 110
    },
    {
      "midi": 81,
      "hit": false,
      "t": 451.80625,
      "d": 176.95744791666664,
      "v": 110
    },
    {
      "midi": 88,
      "hit": false,
      "t": 542.1675,
      "d": 481.92666666666673,
      "v": 110
    },
    {
      "midi": 88,
      "hit": false,
      "t": 632.52875,
      "d": 481.92666666666673,
      "v": 110
    },
    {
      "midi": 78,
      "hit": false,
      "t": 722.8900000000001,
      "d": 176.95744791666664,
      "v": 110
    },
    {
      "midi": 78,
      "hit": false,
      "t": 813.25125,
      "d": 176.95744791666664,
      "v": 110
    },
    {
      "midi": 81,
      "hit": false,
      "t": 903.6125000000001,
      "d": 176.95744791666664,
      "v": 110
    },
    {
      "midi": 81,
      "hit": false,
      "t": 993.97375,
      "d": 176.95744791666664,
      "v": 110
    },
    {
      "midi": 86,
      "hit": false,
      "t": 1084.335,
      "d": 301.20416666666665,
      "v": 110
    },
    {
      "midi": 86,
      "hit": false,
      "t": 1174.69625,
      "d": 301.20416666666665,
      "v": 110
    },
    {
      "midi": 78,
      "hit": false,
      "t": 1265.0575000000001,
      "d": 176.95744791666652,
      "v": 110
    },
    {
      "midi": 78,
      "hit": false,
      "t": 1355.41875,
      "d": 176.95744791666652,
      "v": 110
    },
    {
      "midi": 85,
      "hit": false,
      "t": 1445.78,
      "d": 481.92666666666673,
      "v": 110
    },
    {
      "midi": 85,
      "hit": false,
      "t": 1536.14125,
      "d": 481.92666666666673,
      "v": 110
    },
    {
      "midi": 78,
      "hit": false,
      "t": 1626.5025,
      "d": 176.95744791666675,
      "v": 110
    },
    {
      "midi": 78,
      "hit": false,
      "t": 1716.86375,
      "d": 176.95744791666675,
      "v": 110
    },
    {
      "midi": 81,
      "hit": false,
      "t": 1807.2250000000001,
      "d": 176.95744791666652,
      "v": 110
    },
    {
      "midi": 81,
      "hit": false,
      "t": 1897.58625,
      "d": 176.95744791666652,
      "v": 110
    },
    {
      "midi": 88,
      "hit": false,
      "t": 1987.9475,
      "d": 481.92666666666696,
      "v": 110
    },
    {
      "midi": 88,
      "hit": false,
      "t": 2078.30875,
      "d": 481.92666666666673,
      "v": 110
    },
    {
      "midi": 78,
      "hit": false,
      "t": 2168.67,
      "d": 176.95744791666675,
      "v": 110
    },
    {
      "midi": 78,
      "hit": false,
      "t": 2259.03125,
      "d": 176.95744791666675,
      "v": 110
    },
    {
      "midi": 81,
      "hit": false,
      "t": 2349.3925000000004,
      "d": 176.95744791666675,
      "v": 110
    },
    {
      "midi": 81,
      "hit": false,
      "t": 2439.7537500000003,
      "d": 176.95744791666675,
      "v": 110
    },
    {
      "midi": 86,
      "hit": false,
      "t": 2530.1150000000007,
      "d": 301.2041666666664,
      "v": 110
    },
    {
      "midi": 86,
      "hit": false,
      "t": 2620.4762500000006,
      "d": 301.2041666666664,
      "v": 110
    },
    {
      "midi": 78,
      "hit": false,
      "t": 2710.8375000000005,
      "d": 176.95744791666675,
      "v": 110
    },
    {
      "midi": 78,
      "hit": false,
      "t": 2801.1987500000005,
      "d": 176.95744791666675,
      "v": 110
    },
    {
      "midi": 28,
      "hit": false,
      "t": 2891.56,
      "d": 2801.19875,
      "v": 110
    },
    {
      "midi": 83,
      "hit": false,
      "t": 2891.560000000001,
      "d": 481.92666666666673,
      "v": 110
    },
    {
      "midi": 83,
      "hit": false,
      "t": 2981.921250000001,
      "d": 481.92666666666673,
      "v": 110
    },
    {
      "midi": 76,
      "hit": false,
      "t": 3072.2825000000007,
      "d": 176.95744791666675,
      "v": 110
    },
    {
      "midi": 76,
      "hit": false,
      "t": 3162.6437500000006,
      "d": 176.95744791666675,
      "v": 110
    },
    {
      "midi": 79,
      "hit": false,
      "t": 3253.005000000001,
      "d": 176.95744791666675,
      "v": 110
    },
    {
      "midi": 79,
      "hit": false,
      "t": 3343.366250000001,
      "d": 176.95744791666675,
      "v": 110
    },
    {
      "midi": 86,
      "hit": false,
      "t": 3433.7275000000013,
      "d": 481.92666666666673,
      "v": 110
    },
    {
      "midi": 86,
      "hit": false,
      "t": 3524.0887500000013,
      "d": 481.92666666666673,
      "v": 110
    },
    {
      "midi": 76,
      "hit": false,
      "t": 3614.450000000001,
      "d": 176.95744791666675,
      "v": 110
    },
    {
      "midi": 76,
      "hit": false,
      "t": 3704.811250000001,
      "d": 176.95744791666675,
      "v": 110
    },
    {
      "midi": 79,
      "hit": false,
      "t": 3795.1725000000015,
      "d": 176.95744791666675,
      "v": 110
    },
    {
      "midi": 79,
      "hit": false,
      "t": 3885.5337500000014,
      "d": 176.95744791666675,
      "v": 110
    },
    {
      "midi": 85,
      "hit": false,
      "t": 3975.895000000002,
      "d": 538.4024479166669,
      "v": 110
    },
    {
      "midi": 85,
      "hit": false,
      "t": 4066.2562500000017,
      "d": 538.4024479166669,
      "v": 110
    },
    {
      "midi": 76,
      "hit": false,
      "t": 4156.617500000002,
      "d": 176.95744791666675,
      "v": 110
    },
    {
      "midi": 76,
      "hit": false,
      "t": 4246.978750000002,
      "d": 176.95744791666675,
      "v": 110
    },
    {
      "midi": 79,
      "hit": false,
      "t": 4337.340000000002,
      "d": 176.95744791666675,
      "v": 110
    },
    {
      "midi": 79,
      "hit": false,
      "t": 4427.701250000002,
      "d": 176.95744791666675,
      "v": 110
    },
    {
      "midi": 88,
      "hit": false,
      "t": 4518.062500000002,
      "d": 481.9266666666663,
      "v": 110
    },
    {
      "midi": 88,
      "hit": false,
      "t": 4608.423750000002,
      "d": 481.9266666666663,
      "v": 110
    },
    {
      "midi": 76,
      "hit": false,
      "t": 4698.785000000002,
      "d": 176.95744791666675,
      "v": 110
    },
    {
      "midi": 76,
      "hit": false,
      "t": 4789.146250000002,
      "d": 176.95744791666675,
      "v": 110
    },
    {
      "midi": 79,
      "hit": false,
      "t": 4879.5075000000015,
      "d": 176.95744791666675,
      "v": 110
    },
    {
      "midi": 79,
      "hit": false,
      "t": 4969.8687500000015,
      "d": 176.95744791666675,
      "v": 110
    },
    {
      "midi": 86,
      "hit": false,
      "t": 5060.230000000001,
      "d": 481.9266666666663,
      "v": 110
    },
    {
      "midi": 86,
      "hit": false,
      "t": 5150.591250000001,
      "d": 481.9266666666663,
      "v": 110
    },
    {
      "midi": 76,
      "hit": false,
      "t": 5240.952500000001,
      "d": 176.95744791666675,
      "v": 110
    },
    {
      "midi": 76,
      "hit": false,
      "t": 5331.313750000001,
      "d": 176.95744791666675,
      "v": 110
    },
    {
      "midi": 85,
      "hit": false,
      "t": 5421.675000000001,
      "d": 301.2041666666664,
      "v": 110
    },
    {
      "midi": 85,
      "hit": false,
      "t": 5512.036250000001,
      "d": 301.2041666666664,
      "v": 110
    },
    {
      "midi": 76,
      "hit": false,
      "t": 5602.397500000001,
      "d": 176.95744791666675,
      "v": 110
    },
    {
      "midi": 76,
      "hit": false,
      "t": 5692.758750000001,
      "d": 176.95744791666675,
      "v": 110
    },
    {
      "midi": 30,
      "hit": false,
      "t": 5783.12,
      "d": 2801.1987500000005,
      "v": 110
    },
    {
      "midi": 85,
      "hit": false,
      "t": 5783.120000000001,
      "d": 481.9266666666663,
      "v": 110
    },
    {
      "midi": 85,
      "hit": false,
      "t": 5873.481250000001,
      "d": 481.9266666666663,
      "v": 110
    },
    {
      "midi": 78,
      "hit": false,
      "t": 5963.842500000001,
      "d": 176.95744791666675,
      "v": 110
    },
    {
      "midi": 78,
      "hit": false,
      "t": 6054.203750000001,
      "d": 176.95744791666675,
      "v": 110
    },
    {
      "midi": 81,
      "hit": false,
      "t": 6144.5650000000005,
      "d": 176.95744791666675,
      "v": 110
    },
    {
      "midi": 81,
      "hit": false,
      "t": 6234.92625,
      "d": 176.95744791666675,
      "v": 110
    },
    {
      "midi": 88,
      "hit": false,
      "t": 6325.2875,
      "d": 481.9266666666663,
      "v": 110
    },
    {
      "midi": 88,
      "hit": false,
      "t": 6415.64875,
      "d": 481.9266666666663,
      "v": 110
    },
    {
      "midi": 78,
      "hit": false,
      "t": 6506.01,
      "d": 176.95744791666675,
      "v": 110
    },
    {
      "midi": 78,
      "hit": false,
      "t": 6596.37125,
      "d": 176.95744791666675,
      "v": 110
    },
    {
      "midi": 81,
      "hit": false,
      "t": 6686.7325,
      "d": 176.95744791666675,
      "v": 110
    },
    {
      "midi": 81,
      "hit": false,
      "t": 6777.09375,
      "d": 176.95744791666675,
      "v": 110
    },
    {
      "midi": 86,
      "hit": false,
      "t": 6867.455,
      "d": 301.2041666666664,
      "v": 110
    },
    {
      "midi": 86,
      "hit": false,
      "t": 6957.81625,
      "d": 301.2041666666664,
      "v": 110
    },
    {
      "midi": 78,
      "hit": false,
      "t": 7048.1775,
      "d": 176.95744791666675,
      "v": 110
    },
    {
      "midi": 78,
      "hit": false,
      "t": 7138.53875,
      "d": 176.95744791666675,
      "v": 110
    },
    {
      "midi": 85,
      "hit": false,
      "t": 7228.9,
      "d": 481.9266666666663,
      "v": 110
    },
    {
      "midi": 85,
      "hit": false,
      "t": 7319.26125,
      "d": 481.9266666666663,
      "v": 110
    },
    {
      "midi": 78,
      "hit": false,
      "t": 7409.6224999999995,
      "d": 176.95744791666675,
      "v": 110
    },
    {
      "midi": 78,
      "hit": false,
      "t": 7499.983749999999,
      "d": 176.95744791666675,
      "v": 110
    },
    {
      "midi": 81,
      "hit": false,
      "t": 7590.344999999999,
      "d": 176.95744791666675,
      "v": 110
    },
    {
      "midi": 81,
      "hit": false,
      "t": 7680.706249999999,
      "d": 176.95744791666675,
      "v": 110
    },
    {
      "midi": 88,
      "hit": false,
      "t": 7771.067499999999,
      "d": 481.9266666666663,
      "v": 110
    },
    {
      "midi": 88,
      "hit": false,
      "t": 7861.428749999999,
      "d": 481.9266666666663,
      "v": 110
    },
    {
      "midi": 78,
      "hit": false,
      "t": 7951.789999999999,
      "d": 176.95744791666675,
      "v": 110
    },
    {
      "midi": 78,
      "hit": false,
      "t": 8042.151249999999,
      "d": 176.95744791666584,
      "v": 110
    },
    {
      "midi": 81,
      "hit": false,
      "t": 8132.512499999999,
      "d": 176.95744791666584,
      "v": 110
    },
    {
      "midi": 81,
      "hit": false,
      "t": 8222.873749999999,
      "d": 176.95744791666584,
      "v": 110
    },
    {
      "midi": 86,
      "hit": false,
      "t": 8313.234999999999,
      "d": 301.2041666666664,
      "v": 110
    },
    {
      "midi": 86,
      "hit": false,
      "t": 8403.596249999999,
      "d": 301.2041666666664,
      "v": 110
    },
    {
      "midi": 78,
      "hit": false,
      "t": 8493.957499999999,
      "d": 176.95744791666584,
      "v": 110
    },
    {
      "midi": 78,
      "hit": false,
      "t": 8584.318749999999,
      "d": 176.95744791666584,
      "v": 110
    },
    {
      "midi": 90,
      "hit": false,
      "t": 8674.679999999998,
      "d": 481.9266666666663,
      "v": 110
    },
    {
      "midi": 35,
      "hit": false,
      "t": 8674.68,
      "d": 2801.1987499999996,
      "v": 110
    },
    {
      "midi": 90,
      "hit": false,
      "t": 8765.041249999998,
      "d": 481.9266666666663,
      "v": 110
    },
    {
      "midi": 79,
      "hit": false,
      "t": 8855.402499999998,
      "d": 176.95744791666584,
      "v": 110
    },
    {
      "midi": 79,
      "hit": false,
      "t": 8945.763749999998,
      "d": 176.95744791666584,
      "v": 110
    },
    {
      "midi": 83,
      "hit": false,
      "t": 9036.124999999998,
      "d": 176.95744791666584,
      "v": 110
    },
    {
      "midi": 83,
      "hit": false,
      "t": 9126.486249999998,
      "d": 176.95744791666584,
      "v": 110
    },
    {
      "midi": 88,
      "hit": false,
      "t": 9216.847499999998,
      "d": 301.2041666666664,
      "v": 110
    },
    {
      "midi": 88,
      "hit": false,
      "t": 9307.208749999998,
      "d": 301.2041666666664,
      "v": 110
    },
    {
      "midi": 79,
      "hit": false,
      "t": 9397.569999999998,
      "d": 176.95744791666584,
      "v": 110
    },
    {
      "midi": 79,
      "hit": false,
      "t": 9487.931249999998,
      "d": 176.95744791666584,
      "v": 110
    },
    {
      "midi": 83,
      "hit": false,
      "t": 9578.292499999998,
      "d": 176.95744791666584,
      "v": 110
    },
    {
      "midi": 83,
      "hit": false,
      "t": 9668.653749999998,
      "d": 176.95744791666584,
      "v": 110
    },
    {
      "midi": 86,
      "hit": false,
      "t": 9759.014999999998,
      "d": 538.4024479166656,
      "v": 110
    },
    {
      "midi": 86,
      "hit": false,
      "t": 9849.376249999998,
      "d": 538.4024479166656,
      "v": 110
    },
    {
      "midi": 79,
      "hit": false,
      "t": 9939.737499999997,
      "d": 176.95744791666584,
      "v": 110
    },
    {
      "midi": 79,
      "hit": false,
      "t": 10030.098749999997,
      "d": 176.95744791666584,
      "v": 110
    },
    {
      "midi": 83,
      "hit": false,
      "t": 10120.459999999997,
      "d": 176.95744791666584,
      "v": 110
    },
    {
      "midi": 83,
      "hit": false,
      "t": 10210.821249999997,
      "d": 176.95744791666584,
      "v": 110
    },
    {
      "midi": 85,
      "hit": false,
      "t": 10301.182499999997,
      "d": 301.2041666666664,
      "v": 110
    },
    {
      "midi": 85,
      "hit": false,
      "t": 10391.543749999997,
      "d": 301.2041666666664,
      "v": 110
    },
    {
      "midi": 79,
      "hit": false,
      "t": 10481.904999999997,
      "d": 176.95744791666584,
      "v": 110
    },
    {
      "midi": 79,
      "hit": false,
      "t": 10572.266249999997,
      "d": 176.95744791666584,
      "v": 110
    },
    {
      "midi": 83,
      "hit": false,
      "t": 10662.627499999997,
      "d": 176.95744791666584,
      "v": 110
    },
    {
      "midi": 83,
      "hit": false,
      "t": 10752.988749999997,
      "d": 176.95744791666584,
      "v": 110
    },
    {
      "midi": 86,
      "hit": false,
      "t": 10843.349999999997,
      "d": 301.2041666666664,
      "v": 110
    },
    {
      "midi": 86,
      "hit": false,
      "t": 10933.711249999997,
      "d": 301.2041666666664,
      "v": 110
    },
    {
      "midi": 79,
      "hit": false,
      "t": 11024.072499999997,
      "d": 176.95744791666584,
      "v": 110
    },
    {
      "midi": 79,
      "hit": false,
      "t": 11114.433749999997,
      "d": 176.95744791666584,
      "v": 110
    },
    {
      "midi": 83,
      "hit": false,
      "t": 11204.794999999996,
      "d": 301.2041666666664,
      "v": 110
    },
    {
      "midi": 83,
      "hit": false,
      "t": 11295.156249999996,
      "d": 301.2041666666664,
      "v": 110
    },
    {
      "midi": 79,
      "hit": false,
      "t": 11385.517499999996,
      "d": 176.95744791666584,
      "v": 110
    },
    {
      "midi": 79,
      "hit": false,
      "t": 11475.878749999996,
      "d": 176.95744791666584,
      "v": 110
    },
    {
      "midi": 85,
      "hit": false,
      "t": 11566.239999999996,
      "d": 481.9266666666663,
      "v": 110
    },
    {
      "midi": 30,
      "hit": false,
      "t": 11566.24,
      "d": 2801.1987499999996,
      "v": 110
    },
    {
      "midi": 54,
      "hit": false,
      "t": 11566.240000000002,
      "d": 176.95744791666584,
      "v": 110
    },
    {
      "midi": 85,
      "hit": false,
      "t": 11656.601249999996,
      "d": 481.9266666666663,
      "v": 110
    },
    {
      "midi": 78,
      "hit": false,
      "t": 11746.962499999996,
      "d": 176.95744791666584,
      "v": 110
    },
    {
      "midi": 56,
      "hit": false,
      "t": 11746.962500000001,
      "d": 176.95744791666584,
      "v": 110
    },
    {
      "midi": 78,
      "hit": false,
      "t": 11837.323749999996,
      "d": 176.95744791666584,
      "v": 110
    },
    {
      "midi": 81,
      "hit": false,
      "t": 11927.684999999996,
      "d": 176.95744791666584,
      "v": 110
    },
    {
      "midi": 57,
      "hit": false,
      "t": 11927.685000000001,
      "d": 176.95744791666584,
      "v": 110
    },
    {
      "midi": 81,
      "hit": false,
      "t": 12018.046249999996,
      "d": 176.95744791666584,
      "v": 110
    },
    {
      "midi": 88,
      "hit": false,
      "t": 12108.407499999996,
      "d": 481.9266666666663,
      "v": 110
    },
    {
      "midi": 61,
      "hit": false,
      "t": 12108.407500000001,
      "d": 176.95744791666584,
      "v": 110
    },
    {
      "midi": 88,
      "hit": false,
      "t": 12198.768749999996,
      "d": 481.9266666666663,
      "v": 110
    },
    {
      "midi": 78,
      "hit": false,
      "t": 12289.129999999996,
      "d": 176.95744791666584,
      "v": 110
    },
    {
      "midi": 66,
      "hit": false,
      "t": 12289.130000000001,
      "d": 176.95744791666584,
      "v": 110
    },
    {
      "midi": 78,
      "hit": false,
      "t": 12379.491249999995,
      "d": 176.95744791666584,
      "v": 110
    },
    {
      "midi": 81,
      "hit": false,
      "t": 12469.852499999995,
      "d": 176.95744791666584,
      "v": 110
    },
    {
      "midi": 61,
      "hit": false,
      "t": 12469.8525,
      "d": 176.95744791666584,
      "v": 110
    },
    {
      "midi": 81,
      "hit": false,
      "t": 12560.213749999995,
      "d": 176.95744791666584,
      "v": 110
    },
    {
      "midi": 86,
      "hit": false,
      "t": 12650.574999999995,
      "d": 301.2041666666664,
      "v": 110
    },
    {
      "midi": 68,
      "hit": false,
      "t": 12650.575,
      "d": 176.95744791666584,
      "v": 110
    },
    {
      "midi": 86,
      "hit": false,
      "t": 12740.936249999995,
      "d": 301.2041666666664,
      "v": 110
    },
    {
      "midi": 78,
      "hit": false,
      "t": 12831.297499999995,
      "d": 176.95744791666584,
      "v": 110
    },
    {
      "midi": 61,
      "hit": false,
      "t": 12831.2975,
      "d": 176.95744791666584,
      "v": 110
    },
    {
      "midi": 78,
      "hit": false,
      "t": 12921.658749999995,
      "d": 176.95744791666584,
      "v": 110
    },
    {
      "midi": 85,
      "hit": false,
      "t": 13012.019999999995,
      "d": 481.9266666666663,
      "v": 110
    },
    {
      "midi": 69,
      "hit": false,
      "t": 13012.02,
      "d": 176.95744791666584,
      "v": 110
    },
    {
      "midi": 85,
      "hit": false,
      "t": 13102.381249999995,
      "d": 481.9266666666663,
      "v": 110
    },
    {
      "midi": 78,
      "hit": false,
      "t": 13192.742499999995,
      "d": 176.95744791666584,
      "v": 110
    },
    {
      "midi": 68,
      "hit": false,
      "t": 13192.7425,
      "d": 176.95744791666584,
      "v": 110
    },
    {
      "midi": 78,
      "hit": false,
      "t": 13283.103749999995,
      "d": 176.95744791666584,
      "v": 110
    },
    {
      "midi": 81,
      "hit": false,
      "t": 13373.464999999995,
      "d": 176.95744791666584,
      "v": 110
    },
    {
      "midi": 66,
      "hit": false,
      "t": 13373.465,
      "d": 176.95744791666584,
      "v": 110
    },
    {
      "midi": 81,
      "hit": false,
      "t": 13463.826249999995,
      "d": 176.95744791666584,
      "v": 110
    },
    {
      "midi": 88,
      "hit": false,
      "t": 13554.187499999995,
      "d": 481.9266666666663,
      "v": 110
    },
    {
      "midi": 73,
      "hit": false,
      "t": 13554.1875,
      "d": 176.95744791666584,
      "v": 110
    },
    {
      "midi": 88,
      "hit": false,
      "t": 13644.548749999994,
      "d": 481.9266666666663,
      "v": 110
    },
    {
      "midi": 78,
      "hit": false,
      "t": 13734.909999999994,
      "d": 176.95744791666584,
      "v": 110
    },
    {
      "midi": 71,
      "hit": false,
      "t": 13734.91,
      "d": 176.95744791666584,
      "v": 110
    },
    {
      "midi": 78,
      "hit": false,
      "t": 13825.271249999994,
      "d": 176.95744791666584,
      "v": 110
    },
    {
      "midi": 81,
      "hit": false,
      "t": 13915.632499999994,
      "d": 176.95744791666584,
      "v": 110
    },
    {
      "midi": 69,
      "hit": false,
      "t": 13915.6325,
      "d": 176.95744791666584,
      "v": 110
    },
    {
      "midi": 81,
      "hit": false,
      "t": 14005.993749999994,
      "d": 176.95744791666584,
      "v": 110
    },
    {
      "midi": 86,
      "hit": false,
      "t": 14096.354999999994,
      "d": 301.2041666666664,
      "v": 110
    },
    {
      "midi": 68,
      "hit": false,
      "t": 14096.355,
      "d": 176.95744791666584,
      "v": 110
    },
    {
      "midi": 86,
      "hit": false,
      "t": 14186.716249999994,
      "d": 301.2041666666664,
      "v": 110
    },
    {
      "midi": 78,
      "hit": false,
      "t": 14277.077499999994,
      "d": 176.95744791666584,
      "v": 110
    },
    {
      "midi": 66,
      "hit": false,
      "t": 14277.0775,
      "d": 176.95744791666584,
      "v": 110
    },
    {
      "midi": 78,
      "hit": false,
      "t": 14367.438749999994,
      "d": 176.95744791666584,
      "v": 110
    },
    {
      "midi": 83,
      "hit": false,
      "t": 14457.799999999994,
      "d": 481.9266666666663,
      "v": 110
    },
    {
      "midi": 52,
      "hit": false,
      "t": 14457.8,
      "d": 176.95744791666584,
      "v": 110
    },
    {
      "midi": 28,
      "hit": false,
      "t": 14457.8,
      "d": 2801.1987499999996,
      "v": 110
    },
    {
      "midi": 83,
      "hit": false,
      "t": 14548.161249999994,
      "d": 481.9266666666663,
      "v": 110
    },
    {
      "midi": 76,
      "hit": false,
      "t": 14638.522499999994,
      "d": 176.95744791666584,
      "v": 110
    },
    {
      "midi": 54,
      "hit": false,
      "t": 14638.5225,
      "d": 176.95744791666584,
      "v": 110
    },
    {
      "midi": 76,
      "hit": false,
      "t": 14728.883749999994,
      "d": 176.95744791666584,
      "v": 110
    },
    {
      "midi": 79,
      "hit": false,
      "t": 14819.244999999994,
      "d": 176.95744791666584,
      "v": 110
    },
    {
      "midi": 55,
      "hit": false,
      "t": 14819.244999999999,
      "d": 176.95744791666584,
      "v": 110
    },
    {
      "midi": 79,
      "hit": false,
      "t": 14909.606249999993,
      "d": 176.95744791666584,
      "v": 110
    },
    {
      "midi": 86,
      "hit": false,
      "t": 14999.967499999993,
      "d": 481.9266666666663,
      "v": 110
    },
    {
      "midi": 59,
      "hit": false,
      "t": 14999.967499999999,
      "d": 176.95744791666584,
      "v": 110
    },
    {
      "midi": 86,
      "hit": false,
      "t": 15090.328749999993,
      "d": 481.9266666666663,
      "v": 110
    },
    {
      "midi": 76,
      "hit": false,
      "t": 15180.689999999993,
      "d": 176.95744791666584,
      "v": 110
    },
    {
      "midi": 64,
      "hit": false,
      "t": 15180.689999999999,
      "d": 176.95744791666584,
      "v": 110
    },
    {
      "midi": 76,
      "hit": false,
      "t": 15271.051249999993,
      "d": 176.95744791666584,
      "v": 110
    },
    {
      "midi": 79,
      "hit": false,
      "t": 15361.412499999993,
      "d": 176.95744791666584,
      "v": 110
    },
    {
      "midi": 59,
      "hit": false,
      "t": 15361.412499999999,
      "d": 176.95744791666584,
      "v": 110
    },
    {
      "midi": 79,
      "hit": false,
      "t": 15451.773749999993,
      "d": 176.95744791666584,
      "v": 110
    },
    {
      "midi": 85,
      "hit": false,
      "t": 15542.134999999993,
      "d": 538.4024479166656,
      "v": 110
    },
    {
      "midi": 66,
      "hit": false,
      "t": 15542.134999999998,
      "d": 176.95744791666584,
      "v": 110
    },
    {
      "midi": 85,
      "hit": false,
      "t": 15632.496249999993,
      "d": 538.4024479166656,
      "v": 110
    },
    {
      "midi": 76,
      "hit": false,
      "t": 15722.857499999993,
      "d": 176.95744791666584,
      "v": 110
    },
    {
      "midi": 59,
      "hit": false,
      "t": 15722.857499999998,
      "d": 176.95744791666584,
      "v": 110
    },
    {
      "midi": 76,
      "hit": false,
      "t": 15813.218749999993,
      "d": 176.95744791666584,
      "v": 110
    },
    {
      "midi": 79,
      "hit": false,
      "t": 15903.579999999993,
      "d": 176.95744791666584,
      "v": 110
    },
    {
      "midi": 67,
      "hit": false,
      "t": 15903.579999999998,
      "d": 176.95744791666584,
      "v": 110
    },
    {
      "midi": 79,
      "hit": false,
      "t": 15993.941249999993,
      "d": 176.95744791666584,
      "v": 110
    },
    {
      "midi": 88,
      "hit": false,
      "t": 16084.302499999993,
      "d": 481.9266666666681,
      "v": 110
    },
    {
      "midi": 66,
      "hit": false,
      "t": 16084.302499999998,
      "d": 176.95744791666584,
      "v": 110
    },
    {
      "midi": 88,
      "hit": false,
      "t": 16174.663749999992,
      "d": 481.9266666666663,
      "v": 110
    },
    {
      "midi": 76,
      "hit": false,
      "t": 16265.024999999992,
      "d": 176.95744791666766,
      "v": 110
    },
    {
      "midi": 64,
      "hit": false,
      "t": 16265.024999999998,
      "d": 176.95744791666584,
      "v": 110
    },
    {
      "midi": 76,
      "hit": false,
      "t": 16355.386249999992,
      "d": 176.95744791666584,
      "v": 110
    },
    {
      "midi": 79,
      "hit": false,
      "t": 16445.747499999994,
      "d": 176.95744791666584,
      "v": 110
    },
    {
      "midi": 71,
      "hit": false,
      "t": 16445.747499999998,
      "d": 176.95744791666584,
      "v": 110
    },
    {
      "midi": 79,
      "hit": false,
      "t": 16536.108749999992,
      "d": 176.95744791666584,
      "v": 110
    },
    {
      "midi": 86,
      "hit": false,
      "t": 16626.469999999994,
      "d": 481.9266666666663,
      "v": 110
    },
    {
      "midi": 69,
      "hit": false,
      "t": 16626.469999999998,
      "d": 176.95744791666584,
      "v": 110
    },
    {
      "midi": 86,
      "hit": false,
      "t": 16716.831249999992,
      "d": 481.9266666666663,
      "v": 110
    },
    {
      "midi": 76,
      "hit": false,
      "t": 16807.192499999994,
      "d": 176.95744791666584,
      "v": 110
    },
    {
      "midi": 67,
      "hit": false,
      "t": 16807.192499999997,
      "d": 176.95744791666584,
      "v": 110
    },
    {
      "midi": 76,
      "hit": false,
      "t": 16897.553749999992,
      "d": 176.95744791666584,
      "v": 110
    },
    {
      "midi": 85,
      "hit": false,
      "t": 16987.914999999994,
      "d": 301.2041666666664,
      "v": 110
    },
    {
      "midi": 66,
      "hit": false,
      "t": 16987.914999999997,
      "d": 176.95744791666584,
      "v": 110
    },
    {
      "midi": 85,
      "hit": false,
      "t": 17078.27624999999,
      "d": 301.2041666666664,
      "v": 110
    },
    {
      "midi": 76,
      "hit": false,
      "t": 17168.637499999993,
      "d": 176.95744791666584,
      "v": 110
    },
    {
      "midi": 64,
      "hit": false,
      "t": 17168.637499999997,
      "d": 176.95744791666584,
      "v": 110
    },
    {
      "midi": 76,
      "hit": false,
      "t": 17258.99874999999,
      "d": 176.95744791666584,
      "v": 110
    },
    {
      "midi": 85,
      "hit": false,
      "t": 17349.359999999993,
      "d": 481.9266666666663,
      "v": 110
    },
    {
      "midi": 54,
      "hit": false,
      "t": 17349.359999999997,
      "d": 176.95744791666584,
      "v": 110
    },
    {
      "midi": 30,
      "hit": false,
      "t": 17349.36,
      "d": 2801.1987499999996,
      "v": 110
    },
    {
      "midi": 85,
      "hit": false,
      "t": 17439.72124999999,
      "d": 481.9266666666663,
      "v": 110
    },
    {
      "midi": 78,
      "hit": false,
      "t": 17530.082499999993,
      "d": 176.95744791666584,
      "v": 110
    },
    {
      "midi": 56,
      "hit": false,
      "t": 17530.082499999997,
      "d": 176.95744791666584,
      "v": 110
    },
    {
      "midi": 78,
      "hit": false,
      "t": 17620.44374999999,
      "d": 176.95744791666584,
      "v": 110
    },
    {
      "midi": 81,
      "hit": false,
      "t": 17710.804999999993,
      "d": 176.95744791666584,
      "v": 110
    },
    {
      "midi": 57,
      "hit": false,
      "t": 17710.804999999997,
      "d": 176.95744791666584,
      "v": 110
    },
    {
      "midi": 81,
      "hit": false,
      "t": 17801.16624999999,
      "d": 176.95744791666584,
      "v": 110
    },
    {
      "midi": 88,
      "hit": false,
      "t": 17891.527499999993,
      "d": 481.9266666666663,
      "v": 110
    },
    {
      "midi": 61,
      "hit": false,
      "t": 17891.527499999997,
      "d": 176.95744791666584,
      "v": 110
    },
    {
      "midi": 88,
      "hit": false,
      "t": 17981.88874999999,
      "d": 481.9266666666663,
      "v": 110
    },
    {
      "midi": 78,
      "hit": false,
      "t": 18072.249999999993,
      "d": 176.95744791666584,
      "v": 110
    },
    {
      "midi": 66,
      "hit": false,
      "t": 18072.249999999996,
      "d": 176.95744791666584,
      "v": 110
    },
    {
      "midi": 78,
      "hit": false,
      "t": 18162.61124999999,
      "d": 176.95744791666584,
      "v": 110
    },
    {
      "midi": 81,
      "hit": false,
      "t": 18252.972499999993,
      "d": 176.95744791666584,
      "v": 110
    },
    {
      "midi": 61,
      "hit": false,
      "t": 18252.972499999996,
      "d": 176.95744791666584,
      "v": 110
    },
    {
      "midi": 81,
      "hit": false,
      "t": 18343.33374999999,
      "d": 176.95744791666584,
      "v": 110
    },
    {
      "midi": 86,
      "hit": false,
      "t": 18433.694999999992,
      "d": 301.2041666666664,
      "v": 110
    },
    {
      "midi": 68,
      "hit": false,
      "t": 18433.694999999996,
      "d": 176.95744791666584,
      "v": 110
    },
    {
      "midi": 86,
      "hit": false,
      "t": 18524.05624999999,
      "d": 301.2041666666664,
      "v": 110
    },
    {
      "midi": 78,
      "hit": false,
      "t": 18614.417499999992,
      "d": 176.95744791666584,
      "v": 110
    },
    {
      "midi": 61,
      "hit": false,
      "t": 18614.417499999996,
      "d": 176.95744791666584,
      "v": 110
    },
    {
      "midi": 78,
      "hit": false,
      "t": 18704.77874999999,
      "d": 176.95744791666584,
      "v": 110
    },
    {
      "midi": 85,
      "hit": false,
      "t": 18795.139999999992,
      "d": 481.9266666666663,
      "v": 110
    },
    {
      "midi": 69,
      "hit": false,
      "t": 18795.139999999996,
      "d": 176.95744791666584,
      "v": 110
    },
    {
      "midi": 85,
      "hit": false,
      "t": 18885.50124999999,
      "d": 481.9266666666663,
      "v": 110
    },
    {
      "midi": 78,
      "hit": false,
      "t": 18975.862499999992,
      "d": 176.95744791666584,
      "v": 110
    },
    {
      "midi": 68,
      "hit": false,
      "t": 18975.862499999996,
      "d": 176.95744791666584,
      "v": 110
    },
    {
      "midi": 78,
      "hit": false,
      "t": 19066.22374999999,
      "d": 176.95744791666584,
      "v": 110
    },
    {
      "midi": 81,
      "hit": false,
      "t": 19156.584999999992,
      "d": 176.95744791666584,
      "v": 110
    },
    {
      "midi": 66,
      "hit": false,
      "t": 19156.584999999995,
      "d": 176.95744791666584,
      "v": 110
    },
    {
      "midi": 81,
      "hit": false,
      "t": 19246.94624999999,
      "d": 176.95744791666584,
      "v": 110
    },
    {
      "midi": 88,
      "hit": false,
      "t": 19337.30749999999,
      "d": 481.9266666666663,
      "v": 110
    },
    {
      "midi": 73,
      "hit": false,
      "t": 19337.307499999995,
      "d": 176.95744791666584,
      "v": 110
    },
    {
      "midi": 88,
      "hit": false,
      "t": 19427.66874999999,
      "d": 481.9266666666663,
      "v": 110
    },
    {
      "midi": 78,
      "hit": false,
      "t": 19518.02999999999,
      "d": 176.95744791666584,
      "v": 110
    },
    {
      "midi": 71,
      "hit": false,
      "t": 19518.029999999995,
      "d": 176.95744791666584,
      "v": 110
    },
    {
      "midi": 78,
      "hit": false,
      "t": 19608.39124999999,
      "d": 176.95744791666584,
      "v": 110
    },
    {
      "midi": 81,
      "hit": false,
      "t": 19698.75249999999,
      "d": 176.95744791666584,
      "v": 110
    },
    {
      "midi": 69,
      "hit": false,
      "t": 19698.752499999995,
      "d": 176.95744791666584,
      "v": 110
    },
    {
      "midi": 81,
      "hit": false,
      "t": 19789.11374999999,
      "d": 176.95744791666584,
      "v": 110
    },
    {
      "midi": 86,
      "hit": false,
      "t": 19879.47499999999,
      "d": 301.2041666666664,
      "v": 110
    },
    {
      "midi": 68,
      "hit": false,
      "t": 19879.474999999995,
      "d": 176.95744791666584,
      "v": 110
    },
    {
      "midi": 86,
      "hit": false,
      "t": 19969.83624999999,
      "d": 301.2041666666664,
      "v": 110
    },
    {
      "midi": 78,
      "hit": false,
      "t": 20060.19749999999,
      "d": 176.95744791666584,
      "v": 110
    },
    {
      "midi": 66,
      "hit": false,
      "t": 20060.197499999995,
      "d": 176.95744791666584,
      "v": 110
    },
    {
      "midi": 78,
      "hit": false,
      "t": 20150.55874999999,
      "d": 176.95744791666584,
      "v": 110
    },
    {
      "midi": 90,
      "hit": false,
      "t": 20240.91999999999,
      "d": 481.9266666666663,
      "v": 110
    },
    {
      "midi": 67,
      "hit": false,
      "t": 20240.919999999995,
      "d": 176.95744791666584,
      "v": 110
    },
    {
      "midi": 35,
      "hit": false,
      "t": 20240.920000000002,
      "d": 2801.1987499999996,
      "v": 110
    },
    {
      "midi": 90,
      "hit": false,
      "t": 20331.28124999999,
      "d": 481.9266666666663,
      "v": 110
    },
    {
      "midi": 79,
      "hit": false,
      "t": 20421.64249999999,
      "d": 176.95744791666584,
      "v": 110
    },
    {
      "midi": 69,
      "hit": false,
      "t": 20421.642499999994,
      "d": 176.95744791666584,
      "v": 110
    },
    {
      "midi": 79,
      "hit": false,
      "t": 20512.00374999999,
      "d": 176.95744791666584,
      "v": 110
    },
    {
      "midi": 83,
      "hit": false,
      "t": 20602.36499999999,
      "d": 176.95744791666584,
      "v": 110
    },
    {
      "midi": 71,
      "hit": false,
      "t": 20602.364999999994,
      "d": 176.95744791666584,
      "v": 110
    },
    {
      "midi": 83,
      "hit": false,
      "t": 20692.72624999999,
      "d": 176.95744791666584,
      "v": 110
    },
    {
      "midi": 88,
      "hit": false,
      "t": 20783.08749999999,
      "d": 301.2041666666664,
      "v": 110
    },
    {
      "midi": 73,
      "hit": false,
      "t": 20783.087499999994,
      "d": 176.95744791666584,
      "v": 110
    },
    {
      "midi": 88,
      "hit": false,
      "t": 20873.44874999999,
      "d": 301.2041666666664,
      "v": 110
    },
    {
      "midi": 79,
      "hit": false,
      "t": 20963.80999999999,
      "d": 176.95744791666584,
      "v": 110
    },
    {
      "midi": 74,
      "hit": false,
      "t": 20963.809999999994,
      "d": 176.95744791666584,
      "v": 110
    },
    {
      "midi": 79,
      "hit": false,
      "t": 21054.17124999999,
      "d": 176.95744791666584,
      "v": 110
    },
    {
      "midi": 83,
      "hit": false,
      "t": 21144.53249999999,
      "d": 176.95744791666584,
      "v": 110
    },
    {
      "midi": 73,
      "hit": false,
      "t": 21144.532499999994,
      "d": 176.95744791666584,
      "v": 110
    },
    {
      "midi": 83,
      "hit": false,
      "t": 21234.89374999999,
      "d": 176.95744791666584,
      "v": 110
    },
    {
      "midi": 86,
      "hit": false,
      "t": 21325.25499999999,
      "d": 538.4024479166656,
      "v": 110
    },
    {
      "midi": 71,
      "hit": false,
      "t": 21325.254999999994,
      "d": 176.95744791666584,
      "v": 110
    },
    {
      "midi": 86,
      "hit": false,
      "t": 21415.61624999999,
      "d": 538.4024479166656,
      "v": 110
    },
    {
      "midi": 79,
      "hit": false,
      "t": 21505.97749999999,
      "d": 176.95744791666584,
      "v": 110
    },
    {
      "midi": 76,
      "hit": false,
      "t": 21505.977499999994,
      "d": 176.95744791666584,
      "v": 110
    },
    {
      "midi": 79,
      "hit": false,
      "t": 21596.338749999988,
      "d": 176.95744791666584,
      "v": 110
    },
    {
      "midi": 83,
      "hit": false,
      "t": 21686.69999999999,
      "d": 176.95744791666584,
      "v": 110
    },
    {
      "midi": 74,
      "hit": false,
      "t": 21686.699999999993,
      "d": 176.95744791666584,
      "v": 110
    },
    {
      "midi": 83,
      "hit": false,
      "t": 21777.061249999988,
      "d": 176.95744791666584,
      "v": 110
    },
    {
      "midi": 85,
      "hit": false,
      "t": 21867.42249999999,
      "d": 301.2041666666664,
      "v": 110
    },
    {
      "midi": 73,
      "hit": false,
      "t": 21867.422499999993,
      "d": 176.95744791666584,
      "v": 110
    },
    {
      "midi": 85,
      "hit": false,
      "t": 21957.783749999988,
      "d": 301.2041666666664,
      "v": 110
    },
    {
      "midi": 79,
      "hit": false,
      "t": 22048.14499999999,
      "d": 176.95744791666584,
      "v": 110
    },
    {
      "midi": 71,
      "hit": false,
      "t": 22048.144999999993,
      "d": 176.95744791666584,
      "v": 110
    },
    {
      "midi": 79,
      "hit": false,
      "t": 22138.506249999988,
      "d": 176.95744791666584,
      "v": 110
    },
    {
      "midi": 83,
      "hit": false,
      "t": 22228.86749999999,
      "d": 176.95744791666584,
      "v": 110
    },
    {
      "midi": 69,
      "hit": false,
      "t": 22228.867499999993,
      "d": 176.95744791666584,
      "v": 110
    },
    {
      "midi": 83,
      "hit": false,
      "t": 22319.228749999987,
      "d": 176.95744791666584,
      "v": 110
    },
    {
      "midi": 86,
      "hit": false,
      "t": 22409.58999999999,
      "d": 301.2041666666664,
      "v": 110
    },
    {
      "midi": 67,
      "hit": false,
      "t": 22409.589999999993,
      "d": 176.95744791666584,
      "v": 110
    },
    {
      "midi": 86,
      "hit": false,
      "t": 22499.951249999987,
      "d": 301.2041666666664,
      "v": 110
    },
    {
      "midi": 79,
      "hit": false,
      "t": 22590.31249999999,
      "d": 176.95744791666584,
      "v": 110
    },
    {
      "midi": 66,
      "hit": false,
      "t": 22590.312499999993,
      "d": 176.95744791666584,
      "v": 110
    },
    {
      "midi": 79,
      "hit": false,
      "t": 22680.673749999987,
      "d": 176.95744791666584,
      "v": 110
    },
    {
      "midi": 83,
      "hit": false,
      "t": 22771.03499999999,
      "d": 301.2041666666664,
      "v": 110
    },
    {
      "midi": 64,
      "hit": false,
      "t": 22771.034999999993,
      "d": 176.95744791666584,
      "v": 110
    },
    {
      "midi": 83,
      "hit": false,
      "t": 22861.396249999987,
      "d": 301.2041666666664,
      "v": 110
    },
    {
      "midi": 79,
      "hit": false,
      "t": 22951.75749999999,
      "d": 176.95744791666584,
      "v": 110
    },
    {
      "midi": 71,
      "hit": false,
      "t": 22951.757499999992,
      "d": 176.95744791666584,
      "v": 110
    },
    {
      "midi": 79,
      "hit": false,
      "t": 23042.118749999987,
      "d": 176.95744791666584,
      "v": 110
    },
    {
      "midi": 85,
      "hit": false,
      "t": 23132.47999999999,
      "d": 481.9266666666663,
      "v": 110
    },
    {
      "midi": 54,
      "hit": false,
      "t": 23132.479999999992,
      "d": 176.95744791666584,
      "v": 110
    },
    {
      "midi": 30,
      "hit": false,
      "t": 23132.480000000003,
      "d": 2801.1987499999996,
      "v": 110
    },
    {
      "midi": 43,
      "hit": false,
      "t": 23132.480000000003,
      "d": 176.95744791666584,
      "v": 110
    },
    {
      "midi": 85,
      "hit": false,
      "t": 23222.841249999987,
      "d": 481.9266666666663,
      "v": 110
    },
    {
      "midi": 78,
      "hit": false,
      "t": 23313.20249999999,
      "d": 176.95744791666584,
      "v": 110
    },
    {
      "midi": 56,
      "hit": false,
      "t": 23313.202499999992,
      "d": 176.95744791666584,
      "v": 110
    },
    {
      "midi": 43,
      "hit": false,
      "t": 23313.202500000003,
      "d": 176.95744791666584,
      "v": 110
    },
    {
      "midi": 42,
      "hit": false,
      "t": 23313.202500000003,
      "d": 176.95744791666584,
      "v": 110
    },
    {
      "midi": 78,
      "hit": false,
      "t": 23403.563749999987,
      "d": 176.95744791666584,
      "v": 110
    },
    {
      "midi": 81,
      "hit": false,
      "t": 23493.92499999999,
      "d": 176.95744791666584,
      "v": 110
    },
    {
      "midi": 57,
      "hit": false,
      "t": 23493.924999999992,
      "d": 176.95744791666584,
      "v": 110
    },
    {
      "midi": 43,
      "hit": false,
      "t": 23493.925000000003,
      "d": 176.95744791666584,
      "v": 110
    },
    {
      "midi": 45,
      "hit": false,
      "t": 23493.925000000003,
      "d": 176.95744791666584,
      "v": 110
    },
    {
      "midi": 81,
      "hit": false,
      "t": 23584.286249999986,
      "d": 176.95744791666584,
      "v": 110
    },
    {
      "midi": 88,
      "hit": false,
      "t": 23674.64749999999,
      "d": 481.9266666666663,
      "v": 110
    },
    {
      "midi": 61,
      "hit": false,
      "t": 23674.647499999992,
      "d": 176.95744791666584,
      "v": 110
    },
    {
      "midi": 43,
      "hit": false,
      "t": 23674.647500000003,
      "d": 176.95744791666584,
      "v": 110
    },
    {
      "midi": 42,
      "hit": false,
      "t": 23674.647500000003,
      "d": 176.95744791666584,
      "v": 110
    },
    {
      "midi": 88,
      "hit": false,
      "t": 23765.008749999986,
      "d": 481.9266666666663,
      "v": 110
    },
    {
      "midi": 78,
      "hit": false,
      "t": 23855.369999999988,
      "d": 176.95744791666584,
      "v": 110
    },
    {
      "midi": 66,
      "hit": false,
      "t": 23855.36999999999,
      "d": 176.95744791666584,
      "v": 110
    },
    {
      "midi": 47,
      "hit": false,
      "t": 23855.370000000003,
      "d": 176.95744791666584,
      "v": 110
    },
    {
      "midi": 78,
      "hit": false,
      "t": 23945.731249999986,
      "d": 176.95744791666584,
      "v": 110
    },
    {
      "midi": 81,
      "hit": false,
      "t": 24036.092499999988,
      "d": 176.95744791666584,
      "v": 110
    },
    {
      "midi": 61,
      "hit": false,
      "t": 24036.09249999999,
      "d": 176.95744791666584,
      "v": 110
    },
    {
      "midi": 42,
      "hit": false,
      "t": 24036.092500000002,
      "d": 176.95744791666584,
      "v": 110
    },
    {
      "midi": 81,
      "hit": false,
      "t": 24126.453749999986,
      "d": 176.95744791666584,
      "v": 110
    },
    {
      "midi": 86,
      "hit": false,
      "t": 24216.814999999988,
      "d": 301.2041666666664,
      "v": 110
    },
    {
      "midi": 68,
      "hit": false,
      "t": 24216.81499999999,
      "d": 176.95744791666584,
      "v": 110
    },
    {
      "midi": 49,
      "hit": false,
      "t": 24216.815000000002,
      "d": 176.95744791666584,
      "v": 110
    },
    {
      "midi": 86,
      "hit": false,
      "t": 24307.176249999986,
      "d": 301.2041666666664,
      "v": 110
    },
    {
      "midi": 78,
      "hit": false,
      "t": 24397.537499999988,
      "d": 176.95744791666584,
      "v": 110
    },
    {
      "midi": 61,
      "hit": false,
      "t": 24397.53749999999,
      "d": 176.95744791666584,
      "v": 110
    },
    {
      "midi": 42,
      "hit": false,
      "t": 24397.537500000002,
      "d": 176.95744791666584,
      "v": 110
    },
    {
      "midi": 78,
      "hit": false,
      "t": 24487.898749999986,
      "d": 176.95744791666584,
      "v": 110
    },
    {
      "midi": 85,
      "hit": false,
      "t": 24578.259999999987,
      "d": 481.9266666666663,
      "v": 110
    },
    {
      "midi": 69,
      "hit": false,
      "t": 24578.25999999999,
      "d": 176.95744791666584,
      "v": 110
    },
    {
      "midi": 30,
      "hit": false,
      "t": 24578.260000000002,
      "d": 1355.4187500000007,
      "v": 110
    },
    {
      "midi": 85,
      "hit": false,
      "t": 24668.621249999986,
      "d": 481.9266666666663,
      "v": 110
    },
    {
      "midi": 78,
      "hit": false,
      "t": 24758.982499999987,
      "d": 176.95744791666584,
      "v": 110
    },
    {
      "midi": 68,
      "hit": false,
      "t": 24758.98249999999,
      "d": 176.95744791666584,
      "v": 110
    },
    {
      "midi": 35,
      "hit": false,
      "t": 24758.982500000002,
      "d": 176.95744791666584,
      "v": 110
    },
    {
      "midi": 42,
      "hit": false,
      "t": 24758.982500000002,
      "d": 176.95744791666584,
      "v": 110
    },
    {
      "midi": 78,
      "hit": false,
      "t": 24849.343749999985,
      "d": 176.95744791666584,
      "v": 110
    },
    {
      "midi": 81,
      "hit": false,
      "t": 24939.704999999987,
      "d": 176.95744791666584,
      "v": 110
    },
    {
      "midi": 66,
      "hit": false,
      "t": 24939.70499999999,
      "d": 176.95744791666584,
      "v": 110
    },
    {
      "midi": 35,
      "hit": false,
      "t": 24939.705,
      "d": 176.95744791666584,
      "v": 110
    },
    {
      "midi": 41,
      "hit": false,
      "t": 24939.705,
      "d": 176.95744791666584,
      "v": 110
    },
    {
      "midi": 45,
      "hit": false,
      "t": 24939.705,
      "d": 176.95744791666584,
      "v": 110
    },
    {
      "midi": 81,
      "hit": false,
      "t": 25030.066249999985,
      "d": 176.95744791666584,
      "v": 110
    },
    {
      "midi": 88,
      "hit": false,
      "t": 25120.427499999987,
      "d": 481.9266666666663,
      "v": 110
    },
    {
      "midi": 73,
      "hit": false,
      "t": 25120.42749999999,
      "d": 176.95744791666584,
      "v": 110
    },
    {
      "midi": 42,
      "hit": false,
      "t": 25120.4275,
      "d": 176.95744791666584,
      "v": 110
    },
    {
      "midi": 88,
      "hit": false,
      "t": 25210.788749999985,
      "d": 481.9266666666663,
      "v": 110
    },
    {
      "midi": 78,
      "hit": false,
      "t": 25301.149999999987,
      "d": 176.95744791666584,
      "v": 110
    },
    {
      "midi": 71,
      "hit": false,
      "t": 25301.14999999999,
      "d": 176.95744791666584,
      "v": 110
    },
    {
      "midi": 35,
      "hit": false,
      "t": 25301.15,
      "d": 176.95744791666584,
      "v": 110
    },
    {
      "midi": 47,
      "hit": false,
      "t": 25301.15,
      "d": 176.95744791666584,
      "v": 110
    },
    {
      "midi": 78,
      "hit": false,
      "t": 25391.511249999985,
      "d": 176.95744791666584,
      "v": 110
    },
    {
      "midi": 81,
      "hit": false,
      "t": 25481.872499999987,
      "d": 176.95744791666584,
      "v": 110
    },
    {
      "midi": 69,
      "hit": false,
      "t": 25481.87249999999,
      "d": 176.95744791666584,
      "v": 110
    },
    {
      "midi": 42,
      "hit": false,
      "t": 25481.8725,
      "d": 176.95744791666584,
      "v": 110
    },
    {
      "midi": 81,
      "hit": false,
      "t": 25572.233749999985,
      "d": 176.95744791666584,
      "v": 110
    },
    {
      "midi": 86,
      "hit": false,
      "t": 25662.594999999987,
      "d": 301.2041666666664,
      "v": 110
    },
    {
      "midi": 68,
      "hit": false,
      "t": 25662.59499999999,
      "d": 176.95744791666584,
      "v": 110
    },
    {
      "midi": 35,
      "hit": false,
      "t": 25662.595,
      "d": 176.95744791666584,
      "v": 110
    },
    {
      "midi": 49,
      "hit": false,
      "t": 25662.595,
      "d": 176.95744791666584,
      "v": 110
    },
    {
      "midi": 86,
      "hit": false,
      "t": 25752.956249999985,
      "d": 301.2041666666664,
      "v": 110
    },
    {
      "midi": 78,
      "hit": false,
      "t": 25843.317499999986,
      "d": 176.95744791666584,
      "v": 110
    },
    {
      "midi": 66,
      "hit": false,
      "t": 25843.31749999999,
      "d": 176.95744791666584,
      "v": 110
    },
    {
      "midi": 35,
      "hit": false,
      "t": 25843.3175,
      "d": 176.95744791666584,
      "v": 110
    },
    {
      "midi": 42,
      "hit": false,
      "t": 25843.3175,
      "d": 176.95744791666948,
      "v": 110
    },
    {
      "midi": 78,
      "hit": false,
      "t": 25933.678749999985,
      "d": 176.95744791666584,
      "v": 110
    },
    {
      "midi": 83,
      "hit": false,
      "t": 26024.039999999986,
      "d": 481.9266666666663,
      "v": 110
    },
    {
      "midi": 52,
      "hit": false,
      "t": 26024.03999999999,
      "d": 176.95744791666584,
      "v": 110
    },
    {
      "midi": 43,
      "hit": false,
      "t": 26024.04,
      "d": 176.95744791666584,
      "v": 110
    },
    {
      "midi": 28,
      "hit": false,
      "t": 26024.040000000005,
      "d": 2801.1987499999996,
      "v": 110
    },
    {
      "midi": 83,
      "hit": false,
      "t": 26114.401249999984,
      "d": 481.9266666666663,
      "v": 110
    },
    {
      "midi": 76,
      "hit": false,
      "t": 26204.762499999986,
      "d": 176.95744791666584,
      "v": 110
    },
    {
      "midi": 54,
      "hit": false,
      "t": 26204.76249999999,
      "d": 176.95744791666584,
      "v": 110
    },
    {
      "midi": 43,
      "hit": false,
      "t": 26204.7625,
      "d": 176.95744791666584,
      "v": 110
    },
    {
      "midi": 40,
      "hit": false,
      "t": 26204.762500000004,
      "d": 176.95744791666584,
      "v": 110
    },
    {
      "midi": 76,
      "hit": false,
      "t": 26295.123749999984,
      "d": 176.95744791666584,
      "v": 110
    },
    {
      "midi": 79,
      "hit": false,
      "t": 26385.484999999986,
      "d": 176.95744791666584,
      "v": 110
    },
    {
      "midi": 55,
      "hit": false,
      "t": 26385.48499999999,
      "d": 176.95744791666584,
      "v": 110
    },
    {
      "midi": 43,
      "hit": false,
      "t": 26385.485,
      "d": 176.95744791666584,
      "v": 110
    },
    {
      "midi": 43,
      "hit": false,
      "t": 26385.485000000004,
      "d": 176.95744791666584,
      "v": 110
    },
    {
      "midi": 79,
      "hit": false,
      "t": 26475.846249999984,
      "d": 176.95744791666584,
      "v": 110
    },
    {
      "midi": 86,
      "hit": false,
      "t": 26566.207499999986,
      "d": 481.9266666666663,
      "v": 110
    },
    {
      "midi": 59,
      "hit": false,
      "t": 26566.20749999999,
      "d": 176.95744791666584,
      "v": 110
    },
    {
      "midi": 43,
      "hit": false,
      "t": 26566.2075,
      "d": 176.95744791666584,
      "v": 110
    },
    {
      "midi": 40,
      "hit": false,
      "t": 26566.207500000004,
      "d": 176.95744791666584,
      "v": 110
    },
    {
      "midi": 86,
      "hit": false,
      "t": 26656.568749999984,
      "d": 481.9266666666663,
      "v": 110
    },
    {
      "midi": 76,
      "hit": false,
      "t": 26746.929999999986,
      "d": 176.95744791666584,
      "v": 110
    },
    {
      "midi": 64,
      "hit": false,
      "t": 26746.92999999999,
      "d": 176.95744791666584,
      "v": 110
    },
    {
      "midi": 45,
      "hit": false,
      "t": 26746.930000000004,
      "d": 176.95744791666584,
      "v": 110
    },
    {
      "midi": 76,
      "hit": false,
      "t": 26837.291249999984,
      "d": 176.95744791666584,
      "v": 110
    },
    {
      "midi": 79,
      "hit": false,
      "t": 26927.652499999986,
      "d": 176.95744791666584,
      "v": 110
    },
    {
      "midi": 59,
      "hit": false,
      "t": 26927.65249999999,
      "d": 176.95744791666584,
      "v": 110
    },
    {
      "midi": 40,
      "hit": false,
      "t": 26927.652500000004,
      "d": 176.95744791666584,
      "v": 110
    },
    {
      "midi": 79,
      "hit": false,
      "t": 27018.013749999984,
      "d": 176.95744791666584,
      "v": 110
    },
    {
      "midi": 85,
      "hit": false,
      "t": 27108.374999999985,
      "d": 538.4024479166656,
      "v": 110
    },
    {
      "midi": 66,
      "hit": false,
      "t": 27108.37499999999,
      "d": 176.95744791666584,
      "v": 110
    },
    {
      "midi": 47,
      "hit": false,
      "t": 27108.375000000004,
      "d": 176.95744791666584,
      "v": 110
    },
    {
      "midi": 85,
      "hit": false,
      "t": 27198.736249999984,
      "d": 538.4024479166656,
      "v": 110
    },
    {
      "midi": 76,
      "hit": false,
      "t": 27289.097499999985,
      "d": 176.95744791666584,
      "v": 110
    },
    {
      "midi": 59,
      "hit": false,
      "t": 27289.09749999999,
      "d": 176.95744791666584,
      "v": 110
    },
    {
      "midi": 40,
      "hit": false,
      "t": 27289.097500000003,
      "d": 176.95744791666584,
      "v": 110
    },
    {
      "midi": 76,
      "hit": false,
      "t": 27379.458749999983,
      "d": 176.95744791666584,
      "v": 110
    },
    {
      "midi": 79,
      "hit": false,
      "t": 27469.819999999985,
      "d": 176.95744791666584,
      "v": 110
    },
    {
      "midi": 67,
      "hit": false,
      "t": 27469.81999999999,
      "d": 176.95744791666584,
      "v": 110
    },
    {
      "midi": 28,
      "hit": false,
      "t": 27469.820000000003,
      "d": 1355.4187500000007,
      "v": 110
    },
    {
      "midi": 79,
      "hit": false,
      "t": 27560.181249999983,
      "d": 176.95744791666584,
      "v": 110
    },
    {
      "midi": 88,
      "hit": false,
      "t": 27650.542499999985,
      "d": 481.9266666666663,
      "v": 110
    },
    {
      "midi": 66,
      "hit": false,
      "t": 27650.54249999999,
      "d": 176.95744791666584,
      "v": 110
    },
    {
      "midi": 35,
      "hit": false,
      "t": 27650.5425,
      "d": 176.95744791666584,
      "v": 110
    },
    {
      "midi": 40,
      "hit": false,
      "t": 27650.542500000003,
      "d": 176.95744791666584,
      "v": 110
    },
    {
      "midi": 88,
      "hit": false,
      "t": 27740.903749999983,
      "d": 481.9266666666663,
      "v": 110
    },
    {
      "midi": 76,
      "hit": false,
      "t": 27831.264999999985,
      "d": 176.95744791666584,
      "v": 110
    },
    {
      "midi": 64,
      "hit": false,
      "t": 27831.26499999999,
      "d": 176.95744791666584,
      "v": 110
    },
    {
      "midi": 35,
      "hit": false,
      "t": 27831.265,
      "d": 176.95744791666584,
      "v": 110
    },
    {
      "midi": 41,
      "hit": false,
      "t": 27831.265,
      "d": 176.95744791666584,
      "v": 110
    },
    {
      "midi": 43,
      "hit": false,
      "t": 27831.265000000003,
      "d": 176.95744791666584,
      "v": 110
    },
    {
      "midi": 76,
      "hit": false,
      "t": 27921.626249999983,
      "d": 176.95744791666584,
      "v": 110
    },
    {
      "midi": 79,
      "hit": false,
      "t": 28011.987499999985,
      "d": 176.95744791666584,
      "v": 110
    },
    {
      "midi": 71,
      "hit": false,
      "t": 28011.98749999999,
      "d": 176.95744791666584,
      "v": 110
    },
    {
      "midi": 40,
      "hit": false,
      "t": 28011.987500000003,
      "d": 176.95744791666584,
      "v": 110
    },
    {
      "midi": 79,
      "hit": false,
      "t": 28102.348749999983,
      "d": 176.95744791666584,
      "v": 110
    },
    {
      "midi": 86,
      "hit": false,
      "t": 28192.709999999985,
      "d": 481.9266666666663,
      "v": 110
    },
    {
      "midi": 69,
      "hit": false,
      "t": 28192.70999999999,
      "d": 176.95744791666584,
      "v": 110
    },
    {
      "midi": 35,
      "hit": false,
      "t": 28192.71,
      "d": 176.95744791666584,
      "v": 110
    },
    {
      "midi": 45,
      "hit": false,
      "t": 28192.710000000003,
      "d": 176.95744791666584,
      "v": 110
    },
    {
      "midi": 86,
      "hit": false,
      "t": 28283.071249999983,
      "d": 481.9266666666663,
      "v": 110
    },
    {
      "midi": 76,
      "hit": false,
      "t": 28373.432499999984,
      "d": 176.95744791666584,
      "v": 110
    },
    {
      "midi": 67,
      "hit": false,
      "t": 28373.432499999988,
      "d": 176.95744791666584,
      "v": 110
    },
    {
      "midi": 40,
      "hit": false,
      "t": 28373.432500000003,
      "d": 176.95744791666584,
      "v": 110
    },
    {
      "midi": 76,
      "hit": false,
      "t": 28463.793749999983,
      "d": 176.95744791666584,
      "v": 110
    },
    {
      "midi": 85,
      "hit": false,
      "t": 28554.154999999984,
      "d": 301.2041666666664,
      "v": 110
    },
    {
      "midi": 66,
      "hit": false,
      "t": 28554.154999999988,
      "d": 176.95744791666584,
      "v": 110
    },
    {
      "midi": 35,
      "hit": false,
      "t": 28554.155,
      "d": 176.95744791666584,
      "v": 110
    },
    {
      "midi": 47,
      "hit": false,
      "t": 28554.155000000002,
      "d": 176.95744791666584,
      "v": 110
    },
    {
      "midi": 85,
      "hit": false,
      "t": 28644.516249999982,
      "d": 301.2041666666664,
      "v": 110
    },
    {
      "midi": 76,
      "hit": false,
      "t": 28734.877499999984,
      "d": 176.95744791666584,
      "v": 110
    },
    {
      "midi": 64,
      "hit": false,
      "t": 28734.877499999988,
      "d": 176.95744791666584,
      "v": 110
    },
    {
      "midi": 35,
      "hit": false,
      "t": 28734.8775,
      "d": 176.95744791666584,
      "v": 110
    },
    {
      "midi": 40,
      "hit": false,
      "t": 28734.877500000002,
      "d": 176.95744791666948,
      "v": 110
    },
    {
      "midi": 76,
      "hit": false,
      "t": 28825.238749999982,
      "d": 176.95744791666584,
      "v": 110
    },
    {
      "midi": 85,
      "hit": false,
      "t": 28915.599999999984,
      "d": 481.9266666666663,
      "v": 110
    },
    {
      "midi": 54,
      "hit": false,
      "t": 28915.599999999988,
      "d": 176.95744791666584,
      "v": 110
    },
    {
      "midi": 43,
      "hit": false,
      "t": 28915.6,
      "d": 176.95744791666584,
      "v": 110
    },
    {
      "midi": 30,
      "hit": false,
      "t": 28915.600000000006,
      "d": 2801.1987499999996,
      "v": 110
    },
    {
      "midi": 85,
      "hit": false,
      "t": 29005.961249999982,
      "d": 481.9266666666663,
      "v": 110
    },
    {
      "midi": 78,
      "hit": false,
      "t": 29096.322499999984,
      "d": 176.95744791666584,
      "v": 110
    },
    {
      "midi": 56,
      "hit": false,
      "t": 29096.322499999987,
      "d": 176.95744791666584,
      "v": 110
    },
    {
      "midi": 43,
      "hit": false,
      "t": 29096.3225,
      "d": 176.95744791666584,
      "v": 110
    },
    {
      "midi": 42,
      "hit": false,
      "t": 29096.322500000006,
      "d": 176.95744791666584,
      "v": 110
    },
    {
      "midi": 78,
      "hit": false,
      "t": 29186.683749999982,
      "d": 176.95744791666584,
      "v": 110
    },
    {
      "midi": 81,
      "hit": false,
      "t": 29277.044999999984,
      "d": 176.95744791666584,
      "v": 110
    },
    {
      "midi": 57,
      "hit": false,
      "t": 29277.044999999987,
      "d": 176.95744791666584,
      "v": 110
    },
    {
      "midi": 43,
      "hit": false,
      "t": 29277.045,
      "d": 176.95744791666584,
      "v": 110
    },
    {
      "midi": 45,
      "hit": false,
      "t": 29277.045000000006,
      "d": 176.95744791666584,
      "v": 110
    },
    {
      "midi": 81,
      "hit": false,
      "t": 29367.40624999998,
      "d": 176.95744791666584,
      "v": 110
    },
    {
      "midi": 88,
      "hit": false,
      "t": 29457.767499999984,
      "d": 481.9266666666663,
      "v": 110
    },
    {
      "midi": 61,
      "hit": false,
      "t": 29457.767499999987,
      "d": 176.95744791666584,
      "v": 110
    },
    {
      "midi": 43,
      "hit": false,
      "t": 29457.767499999998,
      "d": 176.95744791666584,
      "v": 110
    },
    {
      "midi": 42,
      "hit": false,
      "t": 29457.767500000005,
      "d": 176.95744791666584,
      "v": 110
    },
    {
      "midi": 88,
      "hit": false,
      "t": 29548.12874999998,
      "d": 481.9266666666663,
      "v": 110
    },
    {
      "midi": 78,
      "hit": false,
      "t": 29638.489999999983,
      "d": 176.95744791666584,
      "v": 110
    },
    {
      "midi": 66,
      "hit": false,
      "t": 29638.489999999987,
      "d": 176.95744791666584,
      "v": 110
    },
    {
      "midi": 47,
      "hit": false,
      "t": 29638.490000000005,
      "d": 176.95744791666584,
      "v": 110
    },
    {
      "midi": 78,
      "hit": false,
      "t": 29728.85124999998,
      "d": 176.95744791666584,
      "v": 110
    },
    {
      "midi": 81,
      "hit": false,
      "t": 29819.212499999983,
      "d": 176.95744791666584,
      "v": 110
    },
    {
      "midi": 61,
      "hit": false,
      "t": 29819.212499999987,
      "d": 176.95744791666584,
      "v": 110
    },
    {
      "midi": 42,
      "hit": false,
      "t": 29819.212500000005,
      "d": 176.95744791666584,
      "v": 110
    },
    {
      "midi": 81,
      "hit": false,
      "t": 29909.57374999998,
      "d": 176.95744791666584,
      "v": 110
    },
    {
      "midi": 86,
      "hit": false,
      "t": 29999.934999999983,
      "d": 301.2041666666664,
      "v": 110
    },
    {
      "midi": 68,
      "hit": false,
      "t": 29999.934999999987,
      "d": 176.95744791666584,
      "v": 110
    },
    {
      "midi": 49,
      "hit": false,
      "t": 29999.935000000005,
      "d": 176.95744791666584,
      "v": 110
    },
    {
      "midi": 86,
      "hit": false,
      "t": 30090.29624999998,
      "d": 301.2041666666664,
      "v": 110
    },
    {
      "midi": 78,
      "hit": false,
      "t": 30180.657499999983,
      "d": 176.95744791666584,
      "v": 110
    },
    {
      "midi": 61,
      "hit": false,
      "t": 30180.657499999987,
      "d": 176.95744791666584,
      "v": 110
    },
    {
      "midi": 42,
      "hit": false,
      "t": 30180.657500000005,
      "d": 176.95744791666584,
      "v": 110
    },
    {
      "midi": 78,
      "hit": false,
      "t": 30271.01874999998,
      "d": 176.95744791666584,
      "v": 110
    },
    {
      "midi": 85,
      "hit": false,
      "t": 30361.379999999983,
      "d": 481.9266666666663,
      "v": 110
    },
    {
      "midi": 69,
      "hit": false,
      "t": 30361.379999999986,
      "d": 176.95744791666584,
      "v": 110
    },
    {
      "midi": 30,
      "hit": false,
      "t": 30361.380000000005,
      "d": 1355.4187500000007,
      "v": 110
    },
    {
      "midi": 85,
      "hit": false,
      "t": 30451.74124999998,
      "d": 481.9266666666663,
      "v": 110
    },
    {
      "midi": 78,
      "hit": false,
      "t": 30542.102499999983,
      "d": 176.95744791666584,
      "v": 110
    },
    {
      "midi": 68,
      "hit": false,
      "t": 30542.102499999986,
      "d": 176.95744791666584,
      "v": 110
    },
    {
      "midi": 35,
      "hit": false,
      "t": 30542.102499999997,
      "d": 176.95744791666584,
      "v": 110
    },
    {
      "midi": 42,
      "hit": false,
      "t": 30542.102500000005,
      "d": 176.95744791666584,
      "v": 110
    },
    {
      "midi": 78,
      "hit": false,
      "t": 30632.46374999998,
      "d": 176.95744791666584,
      "v": 110
    },
    {
      "midi": 81,
      "hit": false,
      "t": 30722.824999999983,
      "d": 176.95744791666584,
      "v": 110
    },
    {
      "midi": 66,
      "hit": false,
      "t": 30722.824999999986,
      "d": 176.95744791666584,
      "v": 110
    },
    {
      "midi": 35,
      "hit": false,
      "t": 30722.824999999997,
      "d": 176.95744791666584,
      "v": 110
    },
    {
      "midi": 41,
      "hit": false,
      "t": 30722.824999999997,
      "d": 176.95744791666584,
      "v": 110
    },
    {
      "midi": 45,
      "hit": false,
      "t": 30722.825000000004,
      "d": 176.95744791666584,
      "v": 110
    },
    {
      "midi": 81,
      "hit": false,
      "t": 30813.18624999998,
      "d": 176.95744791666584,
      "v": 110
    },
    {
      "midi": 88,
      "hit": false,
      "t": 30903.547499999982,
      "d": 481.9266666666663,
      "v": 110
    },
    {
      "midi": 73,
      "hit": false,
      "t": 30903.547499999986,
      "d": 176.95744791666584,
      "v": 110
    },
    {
      "midi": 42,
      "hit": false,
      "t": 30903.547500000004,
      "d": 176.95744791666584,
      "v": 110
    },
    {
      "midi": 88,
      "hit": false,
      "t": 30993.90874999998,
      "d": 481.9266666666663,
      "v": 110
    },
    {
      "midi": 78,
      "hit": false,
      "t": 31084.269999999982,
      "d": 176.95744791666584,
      "v": 110
    },
    {
      "midi": 71,
      "hit": false,
      "t": 31084.269999999986,
      "d": 176.95744791666584,
      "v": 110
    },
    {
      "midi": 35,
      "hit": false,
      "t": 31084.269999999997,
      "d": 176.95744791666584,
      "v": 110
    },
    {
      "midi": 47,
      "hit": false,
      "t": 31084.270000000004,
      "d": 176.95744791666584,
      "v": 110
    },
    {
      "midi": 78,
      "hit": false,
      "t": 31174.63124999998,
      "d": 176.95744791666584,
      "v": 110
    },
    {
      "midi": 81,
      "hit": false,
      "t": 31264.992499999982,
      "d": 176.95744791666584,
      "v": 110
    },
    {
      "midi": 69,
      "hit": false,
      "t": 31264.992499999986,
      "d": 176.95744791666584,
      "v": 110
    },
    {
      "midi": 42,
      "hit": false,
      "t": 31264.992500000004,
      "d": 176.95744791666584,
      "v": 110
    },
    {
      "midi": 81,
      "hit": false,
      "t": 31355.35374999998,
      "d": 176.95744791666584,
      "v": 110
    },
    {
      "midi": 86,
      "hit": false,
      "t": 31445.714999999982,
      "d": 301.2041666666664,
      "v": 110
    },
    {
      "midi": 68,
      "hit": false,
      "t": 31445.714999999986,
      "d": 176.95744791666584,
      "v": 110
    },
    {
      "midi": 35,
      "hit": false,
      "t": 31445.714999999997,
      "d": 176.95744791666584,
      "v": 110
    },
    {
      "midi": 49,
      "hit": false,
      "t": 31445.715000000004,
      "d": 176.95744791666584,
      "v": 110
    },
    {
      "midi": 86,
      "hit": false,
      "t": 31536.07624999998,
      "d": 301.2041666666664,
      "v": 110
    },
    {
      "midi": 78,
      "hit": false,
      "t": 31626.43749999998,
      "d": 176.95744791666584,
      "v": 110
    },
    {
      "midi": 66,
      "hit": false,
      "t": 31626.437499999985,
      "d": 176.95744791666584,
      "v": 110
    },
    {
      "midi": 35,
      "hit": false,
      "t": 31626.437499999996,
      "d": 176.95744791666584,
      "v": 110
    },
    {
      "midi": 42,
      "hit": false,
      "t": 31626.437500000004,
      "d": 176.95744791666948,
      "v": 110
    },
    {
      "midi": 78,
      "hit": false,
      "t": 31716.79874999998,
      "d": 176.95744791666584,
      "v": 110
    },
    {
      "midi": 90,
      "hit": false,
      "t": 31807.15999999998,
      "d": 481.9266666666663,
      "v": 110
    },
    {
      "midi": 67,
      "hit": false,
      "t": 31807.159999999985,
      "d": 176.95744791666584,
      "v": 110
    },
    {
      "midi": 43,
      "hit": false,
      "t": 31807.159999999996,
      "d": 176.95744791666584,
      "v": 110
    },
    {
      "midi": 35,
      "hit": false,
      "t": 31807.160000000007,
      "d": 2801.1987499999996,
      "v": 110
    },
    {
      "midi": 90,
      "hit": false,
      "t": 31897.52124999998,
      "d": 481.9266666666663,
      "v": 110
    },
    {
      "midi": 79,
      "hit": false,
      "t": 31987.88249999998,
      "d": 176.95744791666584,
      "v": 110
    },
    {
      "midi": 69,
      "hit": false,
      "t": 31987.882499999985,
      "d": 176.95744791666584,
      "v": 110
    },
    {
      "midi": 43,
      "hit": false,
      "t": 31987.882499999996,
      "d": 176.95744791666584,
      "v": 110
    },
    {
      "midi": 43,
      "hit": false,
      "t": 31987.882500000007,
      "d": 176.95744791666584,
      "v": 110
    },
    {
      "midi": 79,
      "hit": false,
      "t": 32078.24374999998,
      "d": 176.95744791666584,
      "v": 110
    },
    {
      "midi": 83,
      "hit": false,
      "t": 32168.60499999998,
      "d": 176.95744791666584,
      "v": 110
    },
    {
      "midi": 71,
      "hit": false,
      "t": 32168.604999999985,
      "d": 176.95744791666584,
      "v": 110
    },
    {
      "midi": 43,
      "hit": false,
      "t": 32168.604999999996,
      "d": 176.95744791666584,
      "v": 110
    },
    {
      "midi": 47,
      "hit": false,
      "t": 32168.605000000007,
      "d": 176.95744791666584,
      "v": 110
    },
    {
      "midi": 83,
      "hit": false,
      "t": 32258.96624999998,
      "d": 176.95744791666584,
      "v": 110
    },
    {
      "midi": 88,
      "hit": false,
      "t": 32349.32749999998,
      "d": 301.2041666666664,
      "v": 110
    },
    {
      "midi": 73,
      "hit": false,
      "t": 32349.327499999985,
      "d": 176.95744791666584,
      "v": 110
    },
    {
      "midi": 43,
      "hit": false,
      "t": 32349.327499999996,
      "d": 176.95744791666584,
      "v": 110
    },
    {
      "midi": 43,
      "hit": false,
      "t": 32349.327500000007,
      "d": 176.95744791666584,
      "v": 110
    },
    {
      "midi": 88,
      "hit": false,
      "t": 32439.68874999998,
      "d": 301.2041666666664,
      "v": 110
    },
    {
      "midi": 79,
      "hit": false,
      "t": 32530.04999999998,
      "d": 176.95744791666584,
      "v": 110
    },
    {
      "midi": 74,
      "hit": false,
      "t": 32530.049999999985,
      "d": 176.95744791666584,
      "v": 110
    },
    {
      "midi": 52,
      "hit": false,
      "t": 32530.050000000007,
      "d": 176.95744791666584,
      "v": 110
    },
    {
      "midi": 79,
      "hit": false,
      "t": 32620.41124999998,
      "d": 176.95744791666584,
      "v": 110
    },
    {
      "midi": 83,
      "hit": false,
      "t": 32710.77249999998,
      "d": 176.95744791666584,
      "v": 110
    },
    {
      "midi": 73,
      "hit": false,
      "t": 32710.772499999985,
      "d": 176.95744791666948,
      "v": 110
    },
    {
      "midi": 43,
      "hit": false,
      "t": 32710.772500000006,
      "d": 176.95744791666948,
      "v": 110
    },
    {
      "midi": 83,
      "hit": false,
      "t": 32801.13374999998,
      "d": 176.95744791666948,
      "v": 110
    },
    {
      "midi": 86,
      "hit": false,
      "t": 32891.49499999998,
      "d": 538.4024479166765,
      "v": 110
    },
    {
      "midi": 71,
      "hit": false,
      "t": 32891.49499999999,
      "d": 176.95744791666948,
      "v": 110
    },
    {
      "midi": 54,
      "hit": false,
      "t": 32891.49500000001,
      "d": 176.95744791666948,
      "v": 110
    },
    {
      "midi": 86,
      "hit": false,
      "t": 32981.85624999998,
      "d": 538.4024479166765,
      "v": 110
    },
    {
      "midi": 79,
      "hit": false,
      "t": 33072.217499999984,
      "d": 176.95744791666948,
      "v": 110
    },
    {
      "midi": 76,
      "hit": false,
      "t": 33072.21749999999,
      "d": 176.95744791666948,
      "v": 110
    },
    {
      "midi": 43,
      "hit": false,
      "t": 33072.21750000001,
      "d": 176.95744791666948,
      "v": 110
    },
    {
      "midi": 79,
      "hit": false,
      "t": 33162.578749999986,
      "d": 176.95744791666948,
      "v": 110
    },
    {
      "midi": 83,
      "hit": false,
      "t": 33252.93999999999,
      "d": 176.95744791666948,
      "v": 110
    },
    {
      "midi": 74,
      "hit": false,
      "t": 33252.939999999995,
      "d": 176.95744791666948,
      "v": 110
    },
    {
      "midi": 35,
      "hit": false,
      "t": 33252.94000000002,
      "d": 1355.4187500000262,
      "v": 110
    },
    {
      "midi": 83,
      "hit": false,
      "t": 33343.30124999999,
      "d": 176.95744791666948,
      "v": 110
    },
    {
      "midi": 85,
      "hit": false,
      "t": 33433.66249999999,
      "d": 301.20416666667006,
      "v": 110
    },
    {
      "midi": 73,
      "hit": false,
      "t": 33433.6625,
      "d": 176.95744791666948,
      "v": 110
    },
    {
      "midi": 35,
      "hit": false,
      "t": 33433.6625,
      "d": 176.95744791666948,
      "v": 110
    },
    {
      "midi": 47,
      "hit": false,
      "t": 33433.66250000002,
      "d": 176.95744791666948,
      "v": 110
    },
    {
      "midi": 85,
      "hit": false,
      "t": 33524.02374999999,
      "d": 301.20416666667006,
      "v": 110
    },
    {
      "midi": 79,
      "hit": false,
      "t": 33614.384999999995,
      "d": 176.95744791666948,
      "v": 110
    },
    {
      "midi": 71,
      "hit": false,
      "t": 33614.385,
      "d": 176.95744791666948,
      "v": 110
    },
    {
      "midi": 35,
      "hit": false,
      "t": 33614.385,
      "d": 176.95744791666948,
      "v": 110
    },
    {
      "midi": 41,
      "hit": false,
      "t": 33614.385,
      "d": 176.95744791666948,
      "v": 110
    },
    {
      "midi": 50,
      "hit": false,
      "t": 33614.385000000024,
      "d": 176.95744791666948,
      "v": 110
    },
    {
      "midi": 79,
      "hit": false,
      "t": 33704.74625,
      "d": 176.95744791666948,
      "v": 110
    },
    {
      "midi": 83,
      "hit": false,
      "t": 33795.1075,
      "d": 176.95744791666948,
      "v": 110
    },
    {
      "midi": 69,
      "hit": false,
      "t": 33795.107500000006,
      "d": 176.95744791666948,
      "v": 110
    },
    {
      "midi": 47,
      "hit": false,
      "t": 33795.10750000003,
      "d": 176.95744791666948,
      "v": 110
    },
    {
      "midi": 83,
      "hit": false,
      "t": 33885.46875,
      "d": 176.95744791666948,
      "v": 110
    },
    {
      "midi": 86,
      "hit": false,
      "t": 33975.83,
      "d": 301.20416666667006,
      "v": 110
    },
    {
      "midi": 35,
      "hit": false,
      "t": 33975.83,
      "d": 176.95744791666948,
      "v": 110
    },
    {
      "midi": 67,
      "hit": false,
      "t": 33975.83000000001,
      "d": 176.95744791666948,
      "v": 110
    },
    {
      "midi": 52,
      "hit": false,
      "t": 33975.83000000003,
      "d": 176.95744791666948,
      "v": 110
    },
    {
      "midi": 86,
      "hit": false,
      "t": 34066.19125,
      "d": 301.20416666667006,
      "v": 110
    },
    {
      "midi": 79,
      "hit": false,
      "t": 34156.552500000005,
      "d": 176.95744791666948,
      "v": 110
    },
    {
      "midi": 66,
      "hit": false,
      "t": 34156.55250000001,
      "d": 176.95744791666948,
      "v": 110
    },
    {
      "midi": 47,
      "hit": false,
      "t": 34156.552500000034,
      "d": 176.95744791666948,
      "v": 110
    },
    {
      "midi": 79,
      "hit": false,
      "t": 34246.91375000001,
      "d": 176.95744791666948,
      "v": 110
    },
    {
      "midi": 35,
      "hit": false,
      "t": 34337.275,
      "d": 176.95744791666948,
      "v": 110
    },
    {
      "midi": 83,
      "hit": false,
      "t": 34337.27500000001,
      "d": 301.20416666667006,
      "v": 110
    },
    {
      "midi": 64,
      "hit": false,
      "t": 34337.275000000016,
      "d": 176.95744791666948,
      "v": 110
    },
    {
      "midi": 54,
      "hit": false,
      "t": 34337.27500000004,
      "d": 176.95744791666948,
      "v": 110
    },
    {
      "midi": 83,
      "hit": false,
      "t": 34427.63625000001,
      "d": 301.20416666667006,
      "v": 110
    },
    {
      "midi": 35,
      "hit": false,
      "t": 34517.997500000005,
      "d": 176.95744791666948,
      "v": 110
    },
    {
      "midi": 79,
      "hit": false,
      "t": 34517.99750000001,
      "d": 176.95744791666948,
      "v": 110
    },
    {
      "midi": 71,
      "hit": false,
      "t": 34517.99750000002,
      "d": 176.95744791666948,
      "v": 110
    },
    {
      "midi": 47,
      "hit": false,
      "t": 34517.99750000004,
      "d": 176.95744791666948,
      "v": 110
    },
    {
      "midi": 79,
      "hit": false,
      "t": 34608.358750000014,
      "d": 176.95744791666948,
      "v": 110
    },
    {
      "midi": 80,
      "hit": false,
      "t": 34698.72,
      "d": 2801.198750000003,
      "v": 110
    },
    {
      "midi": 30,
      "hit": false,
      "t": 34698.72000000001,
      "d": 2801.198750000003,
      "v": 110
    },
    {
      "midi": 43,
      "hit": false,
      "t": 34698.72000000001,
      "d": 176.95744791666948,
      "v": 110
    },
    {
      "midi": 85,
      "hit": false,
      "t": 34698.720000000016,
      "d": 481.92666666667355,
      "v": 110
    },
    {
      "midi": 54,
      "hit": false,
      "t": 34698.72000000002,
      "d": 176.95744791666948,
      "v": 110
    },
    {
      "midi": 85,
      "hit": false,
      "t": 34789.08125000002,
      "d": 481.92666666667355,
      "v": 110
    },
    {
      "midi": 43,
      "hit": false,
      "t": 34879.44250000001,
      "d": 176.95744791666948,
      "v": 110
    },
    {
      "midi": 78,
      "hit": false,
      "t": 34879.44250000002,
      "d": 176.95744791666948,
      "v": 110
    },
    {
      "midi": 56,
      "hit": false,
      "t": 34879.44250000003,
      "d": 176.95744791666948,
      "v": 110
    },
    {
      "midi": 42,
      "hit": false,
      "t": 34879.44250000004,
      "d": 176.95744791666948,
      "v": 110
    },
    {
      "midi": 78,
      "hit": false,
      "t": 34969.80375000002,
      "d": 176.95744791666948,
      "v": 110
    },
    {
      "midi": 43,
      "hit": false,
      "t": 35060.165000000015,
      "d": 176.95744791666948,
      "v": 110
    },
    {
      "midi": 81,
      "hit": false,
      "t": 35060.16500000002,
      "d": 176.95744791666948,
      "v": 110
    },
    {
      "midi": 57,
      "hit": false,
      "t": 35060.16500000003,
      "d": 176.95744791666948,
      "v": 110
    },
    {
      "midi": 45,
      "hit": false,
      "t": 35060.165000000045,
      "d": 176.95744791666948,
      "v": 110
    },
    {
      "midi": 81,
      "hit": false,
      "t": 35150.526250000024,
      "d": 176.95744791666948,
      "v": 110
    },
    {
      "midi": 43,
      "hit": false,
      "t": 35240.88750000002,
      "d": 176.95744791666948,
      "v": 110
    },
    {
      "midi": 88,
      "hit": false,
      "t": 35240.887500000026,
      "d": 481.92666666667355,
      "v": 110
    },
    {
      "midi": 61,
      "hit": false,
      "t": 35240.88750000003,
      "d": 176.95744791666948,
      "v": 110
    },
    {
      "midi": 42,
      "hit": false,
      "t": 35240.88750000005,
      "d": 176.95744791666948,
      "v": 110
    },
    {
      "midi": 88,
      "hit": false,
      "t": 35331.24875000003,
      "d": 481.92666666667355,
      "v": 110
    },
    {
      "midi": 78,
      "hit": false,
      "t": 35421.61000000003,
      "d": 176.95744791666948,
      "v": 110
    },
    {
      "midi": 66,
      "hit": false,
      "t": 35421.61000000004,
      "d": 176.95744791666948,
      "v": 110
    },
    {
      "midi": 47,
      "hit": false,
      "t": 35421.61000000005,
      "d": 176.95744791666948,
      "v": 110
    },
    {
      "midi": 78,
      "hit": false,
      "t": 35511.97125000003,
      "d": 176.95744791666948,
      "v": 110
    },
    {
      "midi": 44,
      "hit": false,
      "t": 35602.33250000002,
      "d": 176.95744791666948,
      "v": 110
    },
    {
      "midi": 81,
      "hit": false,
      "t": 35602.33250000003,
      "d": 176.95744791666948,
      "v": 110
    },
    {
      "midi": 61,
      "hit": false,
      "t": 35602.33250000004,
      "d": 176.95744791666948,
      "v": 110
    },
    {
      "midi": 42,
      "hit": false,
      "t": 35602.332500000055,
      "d": 176.95744791666948,
      "v": 110
    },
    {
      "midi": 81,
      "hit": false,
      "t": 35692.693750000035,
      "d": 176.95744791666948,
      "v": 110
    },
    {
      "midi": 44,
      "hit": false,
      "t": 35783.05500000002,
      "d": 176.95744791666948,
      "v": 110
    },
    {
      "midi": 86,
      "hit": false,
      "t": 35783.05500000004,
      "d": 301.20416666667006,
      "v": 110
    },
    {
      "midi": 68,
      "hit": false,
      "t": 35783.055000000044,
      "d": 176.95744791666948,
      "v": 110
    },
    {
      "midi": 49,
      "hit": false,
      "t": 35783.05500000006,
      "d": 176.95744791666948,
      "v": 110
    },
    {
      "midi": 86,
      "hit": false,
      "t": 35873.41625000004,
      "d": 301.20416666667006,
      "v": 110
    },
    {
      "midi": 44,
      "hit": false,
      "t": 35963.777500000026,
      "d": 176.95744791666948,
      "v": 110
    },
    {
      "midi": 78,
      "hit": false,
      "t": 35963.77750000004,
      "d": 176.95744791666948,
      "v": 110
    },
    {
      "midi": 61,
      "hit": false,
      "t": 35963.77750000005,
      "d": 176.95744791666948,
      "v": 110
    },
    {
      "midi": 42,
      "hit": false,
      "t": 35963.77750000006,
      "d": 176.95744791666948,
      "v": 110
    },
    {
      "midi": 78,
      "hit": false,
      "t": 36054.13875000004,
      "d": 176.95744791666948,
      "v": 110
    },
    {
      "midi": 85,
      "hit": false,
      "t": 36144.500000000044,
      "d": 481.92666666667355,
      "v": 110
    },
    {
      "midi": 69,
      "hit": false,
      "t": 36144.50000000005,
      "d": 176.95744791666948,
      "v": 110
    },
    {
      "midi": 30,
      "hit": false,
      "t": 36144.500000000065,
      "d": 1355.4187500000262,
      "v": 110
    },
    {
      "midi": 85,
      "hit": false,
      "t": 36234.861250000045,
      "d": 481.92666666667355,
      "v": 110
    },
    {
      "midi": 35,
      "hit": false,
      "t": 36325.22250000003,
      "d": 176.95744791666948,
      "v": 110
    },
    {
      "midi": 78,
      "hit": false,
      "t": 36325.22250000005,
      "d": 176.95744791666948,
      "v": 110
    },
    {
      "midi": 68,
      "hit": false,
      "t": 36325.222500000054,
      "d": 176.95744791666948,
      "v": 110
    },
    {
      "midi": 42,
      "hit": false,
      "t": 36325.22250000007,
      "d": 176.95744791666948,
      "v": 110
    },
    {
      "midi": 78,
      "hit": false,
      "t": 36415.58375000005,
      "d": 176.95744791666948,
      "v": 110
    },
    {
      "midi": 35,
      "hit": false,
      "t": 36505.945000000036,
      "d": 176.95744791666948,
      "v": 110
    },
    {
      "midi": 41,
      "hit": false,
      "t": 36505.945000000036,
      "d": 176.95744791666948,
      "v": 110
    },
    {
      "midi": 81,
      "hit": false,
      "t": 36505.94500000005,
      "d": 176.95744791666948,
      "v": 110
    },
    {
      "midi": 66,
      "hit": false,
      "t": 36505.94500000006,
      "d": 176.95744791666948,
      "v": 110
    },
    {
      "midi": 45,
      "hit": false,
      "t": 36505.94500000007,
      "d": 176.95744791666948,
      "v": 110
    },
    {
      "midi": 81,
      "hit": false,
      "t": 36596.30625000005,
      "d": 176.95744791666948,
      "v": 110
    },
    {
      "midi": 88,
      "hit": false,
      "t": 36686.667500000054,
      "d": 481.92666666667355,
      "v": 110
    },
    {
      "midi": 73,
      "hit": false,
      "t": 36686.66750000006,
      "d": 176.95744791666948,
      "v": 110
    },
    {
      "midi": 42,
      "hit": false,
      "t": 36686.667500000076,
      "d": 176.95744791666948,
      "v": 110
    },
    {
      "midi": 88,
      "hit": false,
      "t": 36777.028750000056,
      "d": 481.92666666667355,
      "v": 110
    },
    {
      "midi": 35,
      "hit": false,
      "t": 36867.390000000036,
      "d": 176.95744791666948,
      "v": 110
    },
    {
      "midi": 78,
      "hit": false,
      "t": 36867.39000000006,
      "d": 176.95744791666948,
      "v": 110
    },
    {
      "midi": 71,
      "hit": false,
      "t": 36867.390000000065,
      "d": 176.95744791666948,
      "v": 110
    },
    {
      "midi": 47,
      "hit": false,
      "t": 36867.39000000008,
      "d": 176.95744791666948,
      "v": 110
    },
    {
      "midi": 78,
      "hit": false,
      "t": 36957.75125000006,
      "d": 176.95744791666948,
      "v": 110
    },
    {
      "midi": 81,
      "hit": false,
      "t": 37048.11250000006,
      "d": 176.95744791666948,
      "v": 110
    },
    {
      "midi": 69,
      "hit": false,
      "t": 37048.11250000007,
      "d": 176.95744791666948,
      "v": 110
    },
    {
      "midi": 42,
      "hit": false,
      "t": 37048.11250000008,
      "d": 176.95744791666948,
      "v": 110
    },
    {
      "midi": 81,
      "hit": false,
      "t": 37138.47375000006,
      "d": 176.95744791666948,
      "v": 110
    },
    {
      "midi": 35,
      "hit": false,
      "t": 37228.835000000036,
      "d": 176.95744791666948,
      "v": 110
    },
    {
      "midi": 86,
      "hit": false,
      "t": 37228.835000000065,
      "d": 301.20416666667006,
      "v": 110
    },
    {
      "midi": 68,
      "hit": false,
      "t": 37228.83500000007,
      "d": 176.95744791666948,
      "v": 110
    },
    {
      "midi": 49,
      "hit": false,
      "t": 37228.83500000009,
      "d": 176.95744791666948,
      "v": 110
    },
    {
      "midi": 86,
      "hit": false,
      "t": 37319.196250000066,
      "d": 301.20416666667006,
      "v": 110
    },
    {
      "midi": 35,
      "hit": false,
      "t": 37409.55750000004,
      "d": 176.95744791666948,
      "v": 110
    },
    {
      "midi": 78,
      "hit": false,
      "t": 37409.55750000007,
      "d": 176.95744791666948,
      "v": 110
    },
    {
      "midi": 66,
      "hit": false,
      "t": 37409.557500000075,
      "d": 176.95744791666948,
      "v": 110
    },
    {
      "midi": 42,
      "hit": false,
      "t": 37409.55750000009,
      "d": 176.95744791666948,
      "v": 110
    },
    {
      "midi": 78,
      "hit": false,
      "t": 37499.91875000007,
      "d": 176.95744791666948,
      "v": 110
    },
    {
      "midi": 83,
      "hit": false,
      "t": 37590.280000000006,
      "d": 2078.308750000004,
      "v": 110
    },
    {
      "midi": 28,
      "hit": false,
      "t": 37590.28000000001,
      "d": 2801.198750000003,
      "v": 110
    },
    {
      "midi": 43,
      "hit": false,
      "t": 37590.28000000004,
      "d": 176.95744791666948,
      "v": 110
    },
    {
      "midi": 83,
      "hit": false,
      "t": 37590.28000000007,
      "d": 481.92666666667355,
      "v": 110
    },
    {
      "midi": 52,
      "hit": false,
      "t": 37590.28000000008,
      "d": 176.95744791666948,
      "v": 110
    },
    {
      "midi": 83,
      "hit": false,
      "t": 37680.64125000007,
      "d": 481.92666666667355,
      "v": 110
    },
    {
      "midi": 43,
      "hit": false,
      "t": 37771.002500000046,
      "d": 176.95744791666948,
      "v": 110
    },
    {
      "midi": 76,
      "hit": false,
      "t": 37771.002500000075,
      "d": 176.95744791666948,
      "v": 110
    },
    {
      "midi": 54,
      "hit": false,
      "t": 37771.00250000008,
      "d": 176.95744791666948,
      "v": 110
    },
    {
      "midi": 40,
      "hit": false,
      "t": 37771.00250000009,
      "d": 176.95744791666948,
      "v": 110
    },
    {
      "midi": 76,
      "hit": false,
      "t": 37861.36375000008,
      "d": 176.95744791666948,
      "v": 110
    },
    {
      "midi": 43,
      "hit": false,
      "t": 37951.72500000005,
      "d": 176.95744791666948,
      "v": 110
    },
    {
      "midi": 79,
      "hit": false,
      "t": 37951.72500000008,
      "d": 176.95744791666948,
      "v": 110
    },
    {
      "midi": 55,
      "hit": false,
      "t": 37951.725000000086,
      "d": 176.95744791666948,
      "v": 110
    },
    {
      "midi": 43,
      "hit": false,
      "t": 37951.72500000009,
      "d": 176.95744791666948,
      "v": 110
    },
    {
      "midi": 79,
      "hit": false,
      "t": 38042.08625000008,
      "d": 176.95744791666948,
      "v": 110
    },
    {
      "midi": 43,
      "hit": false,
      "t": 38132.44750000005,
      "d": 176.95744791666948,
      "v": 110
    },
    {
      "midi": 86,
      "hit": false,
      "t": 38132.44750000008,
      "d": 481.92666666667355,
      "v": 110
    },
    {
      "midi": 59,
      "hit": false,
      "t": 38132.44750000009,
      "d": 176.95744791666948,
      "v": 110
    },
    {
      "midi": 40,
      "hit": false,
      "t": 38132.4475000001,
      "d": 176.95744791666948,
      "v": 110
    },
    {
      "midi": 86,
      "hit": false,
      "t": 38222.808750000084,
      "d": 481.92666666667355,
      "v": 110
    },
    {
      "midi": 76,
      "hit": false,
      "t": 38313.170000000086,
      "d": 176.95744791666948,
      "v": 110
    },
    {
      "midi": 64,
      "hit": false,
      "t": 38313.17000000009,
      "d": 176.95744791666948,
      "v": 110
    },
    {
      "midi": 45,
      "hit": false,
      "t": 38313.1700000001,
      "d": 176.95744791666948,
      "v": 110
    },
    {
      "midi": 76,
      "hit": false,
      "t": 38403.53125000009,
      "d": 176.95744791666948,
      "v": 110
    },
    {
      "midi": 44,
      "hit": false,
      "t": 38493.89250000005,
      "d": 176.95744791666948,
      "v": 110
    },
    {
      "midi": 79,
      "hit": false,
      "t": 38493.89250000009,
      "d": 176.95744791666948,
      "v": 110
    },
    {
      "midi": 59,
      "hit": false,
      "t": 38493.892500000096,
      "d": 176.95744791666948,
      "v": 110
    },
    {
      "midi": 40,
      "hit": false,
      "t": 38493.8925000001,
      "d": 176.95744791666948,
      "v": 110
    },
    {
      "midi": 79,
      "hit": false,
      "t": 38584.25375000009,
      "d": 176.95744791666948,
      "v": 110
    },
    {
      "midi": 44,
      "hit": false,
      "t": 38674.615000000056,
      "d": 176.95744791666948,
      "v": 110
    },
    {
      "midi": 85,
      "hit": false,
      "t": 38674.61500000009,
      "d": 538.4024479166765,
      "v": 110
    },
    {
      "midi": 66,
      "hit": false,
      "t": 38674.6150000001,
      "d": 176.95744791666948,
      "v": 110
    },
    {
      "midi": 47,
      "hit": false,
      "t": 38674.61500000011,
      "d": 176.95744791666948,
      "v": 110
    },
    {
      "midi": 85,
      "hit": false,
      "t": 38764.976250000094,
      "d": 538.4024479166765,
      "v": 110
    },
    {
      "midi": 44,
      "hit": false,
      "t": 38855.33750000006,
      "d": 176.95744791666948,
      "v": 110
    },
    {
      "midi": 76,
      "hit": false,
      "t": 38855.337500000096,
      "d": 176.95744791666948,
      "v": 110
    },
    {
      "midi": 59,
      "hit": false,
      "t": 38855.3375000001,
      "d": 176.95744791666948,
      "v": 110
    },
    {
      "midi": 40,
      "hit": false,
      "t": 38855.33750000011,
      "d": 176.95744791666948,
      "v": 110
    },
    {
      "midi": 76,
      "hit": false,
      "t": 38945.6987500001,
      "d": 176.95744791666948,
      "v": 110
    },
    {
      "midi": 79,
      "hit": false,
      "t": 39036.0600000001,
      "d": 176.95744791666948,
      "v": 110
    },
    {
      "midi": 67,
      "hit": false,
      "t": 39036.06000000011,
      "d": 176.95744791666948,
      "v": 110
    },
    {
      "midi": 28,
      "hit": false,
      "t": 39036.060000000114,
      "d": 1355.4187500000262,
      "v": 110
    },
    {
      "midi": 79,
      "hit": false,
      "t": 39126.4212500001,
      "d": 176.95744791666948,
      "v": 110
    },
    {
      "midi": 35,
      "hit": false,
      "t": 39216.78250000007,
      "d": 176.95744791666948,
      "v": 110
    },
    {
      "midi": 88,
      "hit": false,
      "t": 39216.7825000001,
      "d": 481.92666666667355,
      "v": 110
    },
    {
      "midi": 66,
      "hit": false,
      "t": 39216.78250000011,
      "d": 176.95744791666948,
      "v": 110
    },
    {
      "midi": 40,
      "hit": false,
      "t": 39216.78250000012,
      "d": 176.95744791666948,
      "v": 110
    },
    {
      "midi": 88,
      "hit": false,
      "t": 39307.143750000105,
      "d": 481.92666666667355,
      "v": 110
    },
    {
      "midi": 35,
      "hit": false,
      "t": 39397.50500000007,
      "d": 176.95744791666948,
      "v": 110
    },
    {
      "midi": 41,
      "hit": false,
      "t": 39397.50500000007,
      "d": 176.95744791666948,
      "v": 110
    },
    {
      "midi": 76,
      "hit": false,
      "t": 39397.50500000011,
      "d": 176.95744791666948,
      "v": 110
    },
    {
      "midi": 64,
      "hit": false,
      "t": 39397.505000000114,
      "d": 176.95744791666948,
      "v": 110
    },
    {
      "midi": 43,
      "hit": false,
      "t": 39397.50500000012,
      "d": 176.95744791666948,
      "v": 110
    },
    {
      "midi": 76,
      "hit": false,
      "t": 39487.86625000011,
      "d": 176.95744791666948,
      "v": 110
    },
    {
      "midi": 79,
      "hit": false,
      "t": 39578.22750000011,
      "d": 176.95744791666948,
      "v": 110
    },
    {
      "midi": 71,
      "hit": false,
      "t": 39578.22750000012,
      "d": 176.95744791666948,
      "v": 110
    },
    {
      "midi": 40,
      "hit": false,
      "t": 39578.227500000125,
      "d": 176.95744791666948,
      "v": 110
    },
    {
      "midi": 79,
      "hit": false,
      "t": 39668.58875000011,
      "d": 176.95744791666948,
      "v": 110
    },
    {
      "midi": 81,
      "hit": false,
      "t": 39758.95000000001,
      "d": 301.20416666667006,
      "v": 110
    },
    {
      "midi": 35,
      "hit": false,
      "t": 39758.95000000007,
      "d": 176.95744791666948,
      "v": 110
    },
    {
      "midi": 86,
      "hit": false,
      "t": 39758.95000000011,
      "d": 481.92666666667355,
      "v": 110
    },
    {
      "midi": 69,
      "hit": false,
      "t": 39758.95000000012,
      "d": 176.95744791666948,
      "v": 110
    },
    {
      "midi": 45,
      "hit": false,
      "t": 39758.95000000013,
      "d": 176.95744791666948,
      "v": 110
    },
    {
      "midi": 86,
      "hit": false,
      "t": 39849.311250000115,
      "d": 481.92666666667355,
      "v": 110
    },
    {
      "midi": 76,
      "hit": false,
      "t": 39939.67250000012,
      "d": 176.95744791666948,
      "v": 110
    },
    {
      "midi": 67,
      "hit": false,
      "t": 39939.672500000124,
      "d": 176.95744791666948,
      "v": 110
    },
    {
      "midi": 40,
      "hit": false,
      "t": 39939.67250000013,
      "d": 176.95744791666948,
      "v": 110
    },
    {
      "midi": 76,
      "hit": false,
      "t": 40030.03375000012,
      "d": 176.95744791666948,
      "v": 110
    },
    {
      "midi": 80,
      "hit": false,
      "t": 40120.39500000002,
      "d": 301.20416666667006,
      "v": 110
    },
    {
      "midi": 35,
      "hit": false,
      "t": 40120.39500000007,
      "d": 176.95744791666948,
      "v": 110
    },
    {
      "midi": 85,
      "hit": false,
      "t": 40120.39500000012,
      "d": 301.20416666667006,
      "v": 110
    },
    {
      "midi": 66,
      "hit": false,
      "t": 40120.39500000013,
      "d": 176.95744791666948,
      "v": 110
    },
    {
      "midi": 47,
      "hit": false,
      "t": 40120.395000000135,
      "d": 176.95744791666948,
      "v": 110
    },
    {
      "midi": 85,
      "hit": false,
      "t": 40210.75625000012,
      "d": 301.20416666667006,
      "v": 110
    },
    {
      "midi": 35,
      "hit": false,
      "t": 40301.11750000007,
      "d": 176.95744791666948,
      "v": 110
    },
    {
      "midi": 76,
      "hit": false,
      "t": 40301.117500000124,
      "d": 176.95744791666948,
      "v": 110
    },
    {
      "midi": 64,
      "hit": false,
      "t": 40301.11750000013,
      "d": 176.95744791666948,
      "v": 110
    },
    {
      "midi": 40,
      "hit": false,
      "t": 40301.11750000014,
      "d": 176.95744791666948,
      "v": 110
    },
    {
      "midi": 76,
      "hit": false,
      "t": 40391.478750000126,
      "d": 176.95744791666948,
      "v": 110
    },
    {
      "midi": 30,
      "hit": false,
      "t": 40481.84000000002,
      "d": 2801.198750000003,
      "v": 110
    },
    {
      "midi": 78,
      "hit": false,
      "t": 40481.840000000026,
      "d": 301.20416666667006,
      "v": 110
    },
    {
      "midi": 43,
      "hit": false,
      "t": 40481.84000000008,
      "d": 176.95744791666948,
      "v": 110
    },
    {
      "midi": 85,
      "hit": false,
      "t": 40481.84000000013,
      "d": 481.92666666667355,
      "v": 110
    },
    {
      "midi": 54,
      "hit": false,
      "t": 40481.840000000135,
      "d": 176.95744791666948,
      "v": 110
    },
    {
      "midi": 85,
      "hit": false,
      "t": 40572.20125000013,
      "d": 481.92666666667355,
      "v": 110
    },
    {
      "midi": 43,
      "hit": false,
      "t": 40662.56250000008,
      "d": 176.95744791666948,
      "v": 110
    },
    {
      "midi": 78,
      "hit": false,
      "t": 40662.56250000013,
      "d": 176.95744791666948,
      "v": 110
    },
    {
      "midi": 56,
      "hit": false,
      "t": 40662.56250000014,
      "d": 176.95744791666948,
      "v": 110
    },
    {
      "midi": 42,
      "hit": false,
      "t": 40662.56250000014,
      "d": 176.95744791666948,
      "v": 110
    },
    {
      "midi": 78,
      "hit": false,
      "t": 40752.92375000013,
      "d": 176.95744791666948,
      "v": 110
    },
    {
      "midi": 80,
      "hit": false,
      "t": 40843.28500000003,
      "d": 301.20416666667006,
      "v": 110
    },
    {
      "midi": 43,
      "hit": false,
      "t": 40843.28500000008,
      "d": 176.95744791666948,
      "v": 110
    },
    {
      "midi": 81,
      "hit": false,
      "t": 40843.285000000134,
      "d": 176.95744791666948,
      "v": 110
    },
    {
      "midi": 57,
      "hit": false,
      "t": 40843.28500000014,
      "d": 176.95744791666948,
      "v": 110
    },
    {
      "midi": 45,
      "hit": false,
      "t": 40843.28500000014,
      "d": 176.95744791666948,
      "v": 110
    },
    {
      "midi": 81,
      "hit": false,
      "t": 40933.646250000136,
      "d": 176.95744791666948,
      "v": 110
    },
    {
      "midi": 43,
      "hit": false,
      "t": 41024.00750000009,
      "d": 176.95744791666948,
      "v": 110
    },
    {
      "midi": 88,
      "hit": false,
      "t": 41024.00750000014,
      "d": 481.92666666667355,
      "v": 110
    },
    {
      "midi": 61,
      "hit": false,
      "t": 41024.007500000145,
      "d": 176.95744791666948,
      "v": 110
    },
    {
      "midi": 42,
      "hit": false,
      "t": 41024.007500000145,
      "d": 176.95744791666948,
      "v": 110
    },
    {
      "midi": 88,
      "hit": false,
      "t": 41114.36875000014,
      "d": 481.92666666667355,
      "v": 110
    },
    {
      "midi": 81,
      "hit": false,
      "t": 41204.73000000004,
      "d": 2078.3087499999965,
      "v": 110
    },
    {
      "midi": 78,
      "hit": false,
      "t": 41204.73000000014,
      "d": 176.95744791666948,
      "v": 110
    },
    {
      "midi": 66,
      "hit": false,
      "t": 41204.73000000015,
      "d": 176.95744791666948,
      "v": 110
    },
    {
      "midi": 47,
      "hit": false,
      "t": 41204.73000000015,
      "d": 176.95744791666948,
      "v": 110
    },
    {
      "midi": 78,
      "hit": false,
      "t": 41295.09125000014,
      "d": 176.95744791666948,
      "v": 110
    },
    {
      "midi": 44,
      "hit": false,
      "t": 41385.45250000009,
      "d": 176.95744791666948,
      "v": 110
    },
    {
      "midi": 81,
      "hit": false,
      "t": 41385.452500000145,
      "d": 176.95744791666948,
      "v": 110
    },
    {
      "midi": 61,
      "hit": false,
      "t": 41385.45250000015,
      "d": 176.95744791666948,
      "v": 110
    },
    {
      "midi": 42,
      "hit": false,
      "t": 41385.45250000015,
      "d": 176.95744791666948,
      "v": 110
    },
    {
      "midi": 81,
      "hit": false,
      "t": 41475.81375000015,
      "d": 176.95744791666948,
      "v": 110
    },
    {
      "midi": 44,
      "hit": false,
      "t": 41566.17500000009,
      "d": 176.95744791666948,
      "v": 110
    },
    {
      "midi": 86,
      "hit": false,
      "t": 41566.17500000015,
      "d": 301.20416666667006,
      "v": 110
    },
    {
      "midi": 68,
      "hit": false,
      "t": 41566.175000000156,
      "d": 176.95744791666948,
      "v": 110
    },
    {
      "midi": 49,
      "hit": false,
      "t": 41566.175000000156,
      "d": 176.95744791666948,
      "v": 110
    },
    {
      "midi": 86,
      "hit": false,
      "t": 41656.53625000015,
      "d": 301.20416666667006,
      "v": 110
    },
    {
      "midi": 44,
      "hit": false,
      "t": 41746.897500000094,
      "d": 176.95744791666948,
      "v": 110
    },
    {
      "midi": 78,
      "hit": false,
      "t": 41746.89750000015,
      "d": 176.95744791666948,
      "v": 110
    },
    {
      "midi": 61,
      "hit": false,
      "t": 41746.89750000016,
      "d": 176.95744791666948,
      "v": 110
    },
    {
      "midi": 42,
      "hit": false,
      "t": 41746.89750000016,
      "d": 176.95744791666948,
      "v": 110
    },
    {
      "midi": 78,
      "hit": false,
      "t": 41837.258750000154,
      "d": 176.95744791666948,
      "v": 110
    },
    {
      "midi": 85,
      "hit": false,
      "t": 41927.620000000155,
      "d": 481.92666666667355,
      "v": 110
    },
    {
      "midi": 69,
      "hit": false,
      "t": 41927.62000000016,
      "d": 176.95744791666948,
      "v": 110
    },
    {
      "midi": 30,
      "hit": false,
      "t": 41927.62000000016,
      "d": 1355.4187500000262,
      "v": 110
    },
    {
      "midi": 85,
      "hit": false,
      "t": 42017.98125000016,
      "d": 481.92666666667355,
      "v": 110
    },
    {
      "midi": 35,
      "hit": false,
      "t": 42108.3425000001,
      "d": 176.95744791666948,
      "v": 110
    },
    {
      "midi": 78,
      "hit": false,
      "t": 42108.34250000016,
      "d": 176.95744791666948,
      "v": 110
    },
    {
      "midi": 68,
      "hit": false,
      "t": 42108.342500000166,
      "d": 176.95744791666948,
      "v": 110
    },
    {
      "midi": 42,
      "hit": false,
      "t": 42108.342500000166,
      "d": 176.95744791666948,
      "v": 110
    },
    {
      "midi": 78,
      "hit": false,
      "t": 42198.70375000016,
      "d": 176.95744791666948,
      "v": 110
    },
    {
      "midi": 35,
      "hit": false,
      "t": 42289.065000000104,
      "d": 176.95744791666948,
      "v": 110
    },
    {
      "midi": 41,
      "hit": false,
      "t": 42289.065000000104,
      "d": 176.95744791666948,
      "v": 110
    },
    {
      "midi": 81,
      "hit": false,
      "t": 42289.06500000016,
      "d": 176.95744791666948,
      "v": 110
    },
    {
      "midi": 66,
      "hit": false,
      "t": 42289.06500000017,
      "d": 176.95744791666948,
      "v": 110
    },
    {
      "midi": 45,
      "hit": false,
      "t": 42289.06500000017,
      "d": 176.95744791666948,
      "v": 110
    },
    {
      "midi": 81,
      "hit": false,
      "t": 42379.426250000164,
      "d": 176.95744791666948,
      "v": 110
    },
    {
      "midi": 88,
      "hit": false,
      "t": 42469.787500000166,
      "d": 481.92666666667355,
      "v": 110
    },
    {
      "midi": 73,
      "hit": false,
      "t": 42469.78750000017,
      "d": 176.95744791666948,
      "v": 110
    },
    {
      "midi": 42,
      "hit": false,
      "t": 42469.78750000017,
      "d": 176.95744791666948,
      "v": 110
    },
    {
      "midi": 88,
      "hit": false,
      "t": 42560.14875000017,
      "d": 481.92666666667355,
      "v": 110
    },
    {
      "midi": 35,
      "hit": false,
      "t": 42650.510000000104,
      "d": 176.95744791666948,
      "v": 110
    },
    {
      "midi": 78,
      "hit": false,
      "t": 42650.51000000017,
      "d": 176.95744791666948,
      "v": 110
    },
    {
      "midi": 71,
      "hit": false,
      "t": 42650.51000000018,
      "d": 176.95744791666948,
      "v": 110
    },
    {
      "midi": 47,
      "hit": false,
      "t": 42650.51000000018,
      "d": 176.95744791666948,
      "v": 110
    },
    {
      "midi": 78,
      "hit": false,
      "t": 42740.87125000017,
      "d": 176.95744791666948,
      "v": 110
    },
    {
      "midi": 81,
      "hit": false,
      "t": 42831.23250000017,
      "d": 176.95744791666948,
      "v": 110
    },
    {
      "midi": 69,
      "hit": false,
      "t": 42831.23250000018,
      "d": 176.95744791666948,
      "v": 110
    },
    {
      "midi": 42,
      "hit": false,
      "t": 42831.23250000018,
      "d": 176.95744791666948,
      "v": 110
    },
    {
      "midi": 81,
      "hit": false,
      "t": 42921.593750000175,
      "d": 176.95744791666948,
      "v": 110
    },
    {
      "midi": 35,
      "hit": false,
      "t": 43011.9550000001,
      "d": 176.95744791666948,
      "v": 110
    },
    {
      "midi": 86,
      "hit": false,
      "t": 43011.95500000018,
      "d": 301.20416666667006,
      "v": 110
    },
    {
      "midi": 68,
      "hit": false,
      "t": 43011.955000000184,
      "d": 176.95744791666948,
      "v": 110
    },
    {
      "midi": 49,
      "hit": false,
      "t": 43011.955000000184,
      "d": 176.95744791666948,
      "v": 110
    },
    {
      "midi": 86,
      "hit": false,
      "t": 43102.31625000018,
      "d": 301.20416666667006,
      "v": 110
    },
    {
      "midi": 35,
      "hit": false,
      "t": 43192.67750000011,
      "d": 176.95744791666948,
      "v": 110
    },
    {
      "midi": 78,
      "hit": false,
      "t": 43192.67750000018,
      "d": 176.95744791666948,
      "v": 110
    },
    {
      "midi": 66,
      "hit": false,
      "t": 43192.67750000019,
      "d": 176.95744791666948,
      "v": 110
    },
    {
      "midi": 42,
      "hit": false,
      "t": 43192.67750000019,
      "d": 176.95744791666948,
      "v": 110
    },
    {
      "midi": 78,
      "hit": false,
      "t": 43283.03875000018,
      "d": 176.95744791666948,
      "v": 110
    },
    {
      "midi": 35,
      "hit": false,
      "t": 43373.40000000002,
      "d": 2801.198750000003,
      "v": 110
    },
    {
      "midi": 83,
      "hit": false,
      "t": 43373.40000000004,
      "d": 632.5287499999977,
      "v": 110
    },
    {
      "midi": 43,
      "hit": false,
      "t": 43373.40000000011,
      "d": 176.95744791666948,
      "v": 110
    },
    {
      "midi": 90,
      "hit": false,
      "t": 43373.40000000018,
      "d": 481.92666666667355,
      "v": 110
    },
    {
      "midi": 67,
      "hit": false,
      "t": 43373.40000000019,
      "d": 176.95744791666948,
      "v": 110
    },
    {
      "midi": 90,
      "hit": false,
      "t": 43463.761250000185,
      "d": 481.92666666667355,
      "v": 110
    },
    {
      "midi": 43,
      "hit": false,
      "t": 43554.122500000114,
      "d": 176.95744791666948,
      "v": 110
    },
    {
      "midi": 79,
      "hit": false,
      "t": 43554.12250000019,
      "d": 176.95744791666948,
      "v": 110
    },
    {
      "midi": 43,
      "hit": false,
      "t": 43554.12250000019,
      "d": 176.95744791666948,
      "v": 110
    },
    {
      "midi": 69,
      "hit": false,
      "t": 43554.122500000194,
      "d": 176.95744791666948,
      "v": 110
    },
    {
      "midi": 79,
      "hit": false,
      "t": 43644.48375000019,
      "d": 176.95744791666948,
      "v": 110
    },
    {
      "midi": 43,
      "hit": false,
      "t": 43734.84500000012,
      "d": 176.95744791666948,
      "v": 110
    },
    {
      "midi": 83,
      "hit": false,
      "t": 43734.84500000019,
      "d": 176.95744791666948,
      "v": 110
    },
    {
      "midi": 47,
      "hit": false,
      "t": 43734.84500000019,
      "d": 176.95744791666948,
      "v": 110
    },
    {
      "midi": 71,
      "hit": false,
      "t": 43734.8450000002,
      "d": 176.95744791666948,
      "v": 110
    },
    {
      "midi": 83,
      "hit": false,
      "t": 43825.20625000019,
      "d": 176.95744791666948,
      "v": 110
    },
    {
      "midi": 43,
      "hit": false,
      "t": 43915.56750000012,
      "d": 176.95744791666948,
      "v": 110
    },
    {
      "midi": 88,
      "hit": false,
      "t": 43915.567500000194,
      "d": 301.20416666667006,
      "v": 110
    },
    {
      "midi": 43,
      "hit": false,
      "t": 43915.567500000194,
      "d": 176.95744791666948,
      "v": 110
    },
    {
      "midi": 73,
      "hit": false,
      "t": 43915.5675000002,
      "d": 176.95744791666948,
      "v": 110
    },
    {
      "midi": 88,
      "hit": false,
      "t": 44005.928750000196,
      "d": 301.20416666667006,
      "v": 110
    },
    {
      "midi": 81,
      "hit": false,
      "t": 44096.29000000004,
      "d": 632.5287499999977,
      "v": 110
    },
    {
      "midi": 79,
      "hit": false,
      "t": 44096.2900000002,
      "d": 176.95744791666948,
      "v": 110
    },
    {
      "midi": 52,
      "hit": false,
      "t": 44096.2900000002,
      "d": 176.95744791666948,
      "v": 110
    },
    {
      "midi": 74,
      "hit": false,
      "t": 44096.290000000205,
      "d": 176.95744791666948,
      "v": 110
    },
    {
      "midi": 79,
      "hit": false,
      "t": 44186.6512500002,
      "d": 176.95744791666948,
      "v": 110
    },
    {
      "midi": 44,
      "hit": false,
      "t": 44277.01250000012,
      "d": 176.95744791666948,
      "v": 110
    },
    {
      "midi": 83,
      "hit": false,
      "t": 44277.0125000002,
      "d": 176.95744791666948,
      "v": 110
    },
    {
      "midi": 43,
      "hit": false,
      "t": 44277.0125000002,
      "d": 176.95744791666948,
      "v": 110
    },
    {
      "midi": 73,
      "hit": false,
      "t": 44277.01250000021,
      "d": 176.95744791666948,
      "v": 110
    },
    {
      "midi": 83,
      "hit": false,
      "t": 44367.3737500002,
      "d": 176.95744791666948,
      "v": 110
    },
    {
      "midi": 44,
      "hit": false,
      "t": 44457.735000000124,
      "d": 176.95744791666948,
      "v": 110
    },
    {
      "midi": 86,
      "hit": false,
      "t": 44457.735000000204,
      "d": 538.4024479166765,
      "v": 110
    },
    {
      "midi": 54,
      "hit": false,
      "t": 44457.735000000204,
      "d": 176.95744791666948,
      "v": 110
    },
    {
      "midi": 71,
      "hit": false,
      "t": 44457.73500000021,
      "d": 176.95744791666948,
      "v": 110
    },
    {
      "midi": 86,
      "hit": false,
      "t": 44548.096250000206,
      "d": 538.4024479166765,
      "v": 110
    },
    {
      "midi": 44,
      "hit": false,
      "t": 44638.45750000013,
      "d": 176.95744791666948,
      "v": 110
    },
    {
      "midi": 79,
      "hit": false,
      "t": 44638.45750000021,
      "d": 176.95744791666948,
      "v": 110
    },
    {
      "midi": 43,
      "hit": false,
      "t": 44638.45750000021,
      "d": 176.95744791666948,
      "v": 110
    },
    {
      "midi": 76,
      "hit": false,
      "t": 44638.457500000215,
      "d": 176.95744791666948,
      "v": 110
    },
    {
      "midi": 79,
      "hit": false,
      "t": 44728.81875000021,
      "d": 176.95744791666948,
      "v": 110
    },
    {
      "midi": 79,
      "hit": false,
      "t": 44819.18000000004,
      "d": 632.5287499999977,
      "v": 110
    },
    {
      "midi": 83,
      "hit": false,
      "t": 44819.18000000021,
      "d": 176.95744791666948,
      "v": 110
    },
    {
      "midi": 35,
      "hit": false,
      "t": 44819.18000000021,
      "d": 1355.4187500000262,
      "v": 110
    },
    {
      "midi": 74,
      "hit": false,
      "t": 44819.18000000022,
      "d": 176.95744791666948,
      "v": 110
    },
    {
      "midi": 83,
      "hit": false,
      "t": 44909.54125000021,
      "d": 176.95744791666948,
      "v": 110
    },
    {
      "midi": 35,
      "hit": false,
      "t": 44999.902500000135,
      "d": 176.95744791666948,
      "v": 110
    },
    {
      "midi": 85,
      "hit": false,
      "t": 44999.902500000215,
      "d": 301.20416666667006,
      "v": 110
    },
    {
      "midi": 47,
      "hit": false,
      "t": 44999.902500000215,
      "d": 176.95744791666948,
      "v": 110
    },
    {
      "midi": 73,
      "hit": false,
      "t": 44999.90250000022,
      "d": 176.95744791666948,
      "v": 110
    },
    {
      "midi": 85,
      "hit": false,
      "t": 45090.26375000022,
      "d": 301.20416666667006,
      "v": 110
    },
    {
      "midi": 35,
      "hit": false,
      "t": 45180.62500000014,
      "d": 176.95744791666948,
      "v": 110
    },
    {
      "midi": 41,
      "hit": false,
      "t": 45180.62500000014,
      "d": 176.95744791666948,
      "v": 110
    },
    {
      "midi": 79,
      "hit": false,
      "t": 45180.62500000022,
      "d": 176.95744791666948,
      "v": 110
    },
    {
      "midi": 50,
      "hit": false,
      "t": 45180.62500000022,
      "d": 176.95744791666948,
      "v": 110
    },
    {
      "midi": 71,
      "hit": false,
      "t": 45180.625000000226,
      "d": 176.95744791666948,
      "v": 110
    },
    {
      "midi": 79,
      "hit": false,
      "t": 45270.98625000022,
      "d": 176.95744791666948,
      "v": 110
    },
    {
      "midi": 83,
      "hit": false,
      "t": 45361.34750000022,
      "d": 176.95744791666948,
      "v": 110
    },
    {
      "midi": 47,
      "hit": false,
      "t": 45361.34750000022,
      "d": 176.95744791666948,
      "v": 110
    },
    {
      "midi": 69,
      "hit": false,
      "t": 45361.34750000023,
      "d": 176.95744791666948,
      "v": 110
    },
    {
      "midi": 83,
      "hit": false,
      "t": 45451.70875000022,
      "d": 176.95744791666948,
      "v": 110
    },
    {
      "midi": 78,
      "hit": false,
      "t": 45542.070000000036,
      "d": 632.5287499999977,
      "v": 110
    },
    {
      "midi": 35,
      "hit": false,
      "t": 45542.07000000014,
      "d": 176.95744791666948,
      "v": 110
    },
    {
      "midi": 86,
      "hit": false,
      "t": 45542.070000000225,
      "d": 301.20416666667006,
      "v": 110
    },
    {
      "midi": 52,
      "hit": false,
      "t": 45542.070000000225,
      "d": 176.95744791666948,
      "v": 110
    },
    {
      "midi": 67,
      "hit": false,
      "t": 45542.07000000023,
      "d": 176.95744791666948,
      "v": 110
    },
    {
      "midi": 86,
      "hit": false,
      "t": 45632.43125000023,
      "d": 301.20416666667006,
      "v": 110
    },
    {
      "midi": 79,
      "hit": false,
      "t": 45722.79250000023,
      "d": 176.95744791666948,
      "v": 110
    },
    {
      "midi": 47,
      "hit": false,
      "t": 45722.79250000023,
      "d": 176.95744791666948,
      "v": 110
    },
    {
      "midi": 66,
      "hit": false,
      "t": 45722.792500000236,
      "d": 176.95744791666948,
      "v": 110
    },
    {
      "midi": 79,
      "hit": false,
      "t": 45813.15375000023,
      "d": 176.95744791666948,
      "v": 110
    },
    {
      "midi": 35,
      "hit": false,
      "t": 45903.51500000014,
      "d": 176.95744791666948,
      "v": 110
    },
    {
      "midi": 83,
      "hit": false,
      "t": 45903.51500000023,
      "d": 301.20416666667006,
      "v": 110
    },
    {
      "midi": 54,
      "hit": false,
      "t": 45903.51500000023,
      "d": 176.95744791666948,
      "v": 110
    },
    {
      "midi": 64,
      "hit": false,
      "t": 45903.51500000024,
      "d": 176.95744791666948,
      "v": 110
    },
    {
      "midi": 83,
      "hit": false,
      "t": 45993.876250000234,
      "d": 301.20416666667006,
      "v": 110
    },
    {
      "midi": 35,
      "hit": false,
      "t": 46084.23750000014,
      "d": 176.95744791666948,
      "v": 110
    },
    {
      "midi": 79,
      "hit": false,
      "t": 46084.237500000236,
      "d": 176.95744791666948,
      "v": 110
    },
    {
      "midi": 47,
      "hit": false,
      "t": 46084.237500000236,
      "d": 176.95744791666948,
      "v": 110
    },
    {
      "midi": 71,
      "hit": false,
      "t": 46084.23750000024,
      "d": 176.95744791666948,
      "v": 110
    },
    {
      "midi": 79,
      "hit": false,
      "t": 46174.59875000024,
      "d": 176.95744791666948,
      "v": 110
    },
    {
      "midi": 30,
      "hit": false,
      "t": 46264.96000000003,
      "d": 2801.198750000003,
      "v": 110
    },
    {
      "midi": 80,
      "hit": false,
      "t": 46264.960000000036,
      "d": 2801.198750000003,
      "v": 110
    },
    {
      "midi": 43,
      "hit": false,
      "t": 46264.960000000145,
      "d": 176.95744791666948,
      "v": 110
    },
    {
      "midi": 85,
      "hit": false,
      "t": 46264.96000000024,
      "d": 481.92666666667355,
      "v": 110
    },
    {
      "midi": 54,
      "hit": false,
      "t": 46264.96000000025,
      "d": 176.95744791666948,
      "v": 110
    },
    {
      "midi": 85,
      "hit": false,
      "t": 46355.32125000024,
      "d": 481.92666666667355,
      "v": 110
    },
    {
      "midi": 43,
      "hit": false,
      "t": 46445.68250000015,
      "d": 176.95744791666948,
      "v": 110
    },
    {
      "midi": 42,
      "hit": false,
      "t": 46445.682500000235,
      "d": 176.95744791666948,
      "v": 110
    },
    {
      "midi": 78,
      "hit": false,
      "t": 46445.68250000024,
      "d": 176.95744791666948,
      "v": 110
    },
    {
      "midi": 56,
      "hit": false,
      "t": 46445.68250000025,
      "d": 176.95744791666948,
      "v": 110
    },
    {
      "midi": 78,
      "hit": false,
      "t": 46536.043750000244,
      "d": 176.95744791666948,
      "v": 110
    },
    {
      "midi": 43,
      "hit": false,
      "t": 46626.40500000015,
      "d": 176.95744791666948,
      "v": 110
    },
    {
      "midi": 45,
      "hit": false,
      "t": 46626.40500000024,
      "d": 176.95744791666948,
      "v": 110
    },
    {
      "midi": 81,
      "hit": false,
      "t": 46626.405000000246,
      "d": 176.95744791666948,
      "v": 110
    },
    {
      "midi": 57,
      "hit": false,
      "t": 46626.40500000025,
      "d": 176.95744791666948,
      "v": 110
    },
    {
      "midi": 81,
      "hit": false,
      "t": 46716.76625000025,
      "d": 176.95744791666948,
      "v": 110
    },
    {
      "midi": 43,
      "hit": false,
      "t": 46807.127500000155,
      "d": 176.95744791666948,
      "v": 110
    },
    {
      "midi": 42,
      "hit": false,
      "t": 46807.12750000024,
      "d": 176.95744791666948,
      "v": 110
    },
    {
      "midi": 88,
      "hit": false,
      "t": 46807.12750000025,
      "d": 481.92666666667355,
      "v": 110
    },
    {
      "midi": 61,
      "hit": false,
      "t": 46807.12750000026,
      "d": 176.95744791666948,
      "v": 110
    },
    {
      "midi": 88,
      "hit": false,
      "t": 46897.48875000025,
      "d": 481.92666666667355,
      "v": 110
    },
    {
      "midi": 47,
      "hit": false,
      "t": 46987.850000000246,
      "d": 176.95744791666948,
      "v": 110
    },
    {
      "midi": 78,
      "hit": false,
      "t": 46987.85000000025,
      "d": 176.95744791666948,
      "v": 110
    },
    {
      "midi": 66,
      "hit": false,
      "t": 46987.85000000026,
      "d": 176.95744791666948,
      "v": 110
    },
    {
      "midi": 78,
      "hit": false,
      "t": 47078.211250000255,
      "d": 176.95744791666948,
      "v": 110
    },
    {
      "midi": 44,
      "hit": false,
      "t": 47168.572500000155,
      "d": 176.95744791666948,
      "v": 110
    },
    {
      "midi": 42,
      "hit": false,
      "t": 47168.57250000025,
      "d": 176.95744791666948,
      "v": 110
    },
    {
      "midi": 81,
      "hit": false,
      "t": 47168.57250000026,
      "d": 176.95744791666948,
      "v": 110
    },
    {
      "midi": 61,
      "hit": false,
      "t": 47168.572500000264,
      "d": 176.95744791666948,
      "v": 110
    },
    {
      "midi": 81,
      "hit": false,
      "t": 47258.93375000026,
      "d": 176.95744791666948,
      "v": 110
    },
    {
      "midi": 44,
      "hit": false,
      "t": 47349.29500000016,
      "d": 176.95744791666948,
      "v": 110
    },
    {
      "midi": 49,
      "hit": false,
      "t": 47349.29500000025,
      "d": 176.95744791666948,
      "v": 110
    },
    {
      "midi": 86,
      "hit": false,
      "t": 47349.29500000026,
      "d": 301.20416666667006,
      "v": 110
    },
    {
      "midi": 68,
      "hit": false,
      "t": 47349.29500000027,
      "d": 176.95744791666948,
      "v": 110
    },
    {
      "midi": 86,
      "hit": false,
      "t": 47439.65625000026,
      "d": 301.20416666667006,
      "v": 110
    },
    {
      "midi": 44,
      "hit": false,
      "t": 47530.01750000016,
      "d": 176.95744791666948,
      "v": 110
    },
    {
      "midi": 42,
      "hit": false,
      "t": 47530.01750000026,
      "d": 176.95744791666948,
      "v": 110
    },
    {
      "midi": 78,
      "hit": false,
      "t": 47530.017500000264,
      "d": 176.95744791666948,
      "v": 110
    },
    {
      "midi": 61,
      "hit": false,
      "t": 47530.01750000027,
      "d": 176.95744791666948,
      "v": 110
    },
    {
      "midi": 78,
      "hit": false,
      "t": 47620.378750000265,
      "d": 176.95744791666948,
      "v": 110
    },
    {
      "midi": 30,
      "hit": false,
      "t": 47710.74000000026,
      "d": 1355.4187500000262,
      "v": 110
    },
    {
      "midi": 85,
      "hit": false,
      "t": 47710.74000000027,
      "d": 481.92666666667355,
      "v": 110
    },
    {
      "midi": 69,
      "hit": false,
      "t": 47710.740000000274,
      "d": 176.95744791666948,
      "v": 110
    },
    {
      "midi": 85,
      "hit": false,
      "t": 47801.10125000027,
      "d": 481.92666666667355,
      "v": 110
    },
    {
      "midi": 35,
      "hit": false,
      "t": 47891.46250000017,
      "d": 176.95744791666948,
      "v": 110
    },
    {
      "midi": 42,
      "hit": false,
      "t": 47891.46250000026,
      "d": 176.95744791666948,
      "v": 110
    },
    {
      "midi": 78,
      "hit": false,
      "t": 47891.46250000027,
      "d": 176.95744791666948,
      "v": 110
    },
    {
      "midi": 68,
      "hit": false,
      "t": 47891.46250000028,
      "d": 176.95744791666948,
      "v": 110
    },
    {
      "midi": 78,
      "hit": false,
      "t": 47981.82375000027,
      "d": 176.95744791666948,
      "v": 110
    },
    {
      "midi": 35,
      "hit": false,
      "t": 48072.18500000017,
      "d": 176.95744791666948,
      "v": 110
    },
    {
      "midi": 41,
      "hit": false,
      "t": 48072.18500000017,
      "d": 176.95744791666948,
      "v": 110
    },
    {
      "midi": 45,
      "hit": false,
      "t": 48072.18500000027,
      "d": 176.95744791666948,
      "v": 110
    },
    {
      "midi": 81,
      "hit": false,
      "t": 48072.185000000274,
      "d": 176.95744791666948,
      "v": 110
    },
    {
      "midi": 66,
      "hit": false,
      "t": 48072.18500000028,
      "d": 176.95744791666948,
      "v": 110
    },
    {
      "midi": 81,
      "hit": false,
      "t": 48162.546250000276,
      "d": 176.95744791666948,
      "v": 110
    },
    {
      "midi": 42,
      "hit": false,
      "t": 48252.90750000027,
      "d": 176.95744791666948,
      "v": 110
    },
    {
      "midi": 88,
      "hit": false,
      "t": 48252.90750000028,
      "d": 481.92666666667355,
      "v": 110
    },
    {
      "midi": 73,
      "hit": false,
      "t": 48252.907500000285,
      "d": 176.95744791666948,
      "v": 110
    },
    {
      "midi": 88,
      "hit": false,
      "t": 48343.26875000028,
      "d": 481.92666666667355,
      "v": 110
    },
    {
      "midi": 35,
      "hit": false,
      "t": 48433.63000000017,
      "d": 176.95744791666948,
      "v": 110
    },
    {
      "midi": 47,
      "hit": false,
      "t": 48433.630000000274,
      "d": 176.95744791666948,
      "v": 110
    },
    {
      "midi": 78,
      "hit": false,
      "t": 48433.63000000028,
      "d": 176.95744791666948,
      "v": 110
    },
    {
      "midi": 71,
      "hit": false,
      "t": 48433.63000000029,
      "d": 176.95744791666948,
      "v": 110
    },
    {
      "midi": 78,
      "hit": false,
      "t": 48523.99125000028,
      "d": 176.95744791666948,
      "v": 110
    },
    {
      "midi": 42,
      "hit": false,
      "t": 48614.35250000028,
      "d": 176.95744791666948,
      "v": 110
    },
    {
      "midi": 81,
      "hit": false,
      "t": 48614.352500000285,
      "d": 176.95744791666948,
      "v": 110
    },
    {
      "midi": 69,
      "hit": false,
      "t": 48614.35250000029,
      "d": 176.95744791666948,
      "v": 110
    },
    {
      "midi": 81,
      "hit": false,
      "t": 48704.71375000029,
      "d": 176.95744791666948,
      "v": 110
    },
    {
      "midi": 35,
      "hit": false,
      "t": 48795.07500000017,
      "d": 176.95744791666948,
      "v": 110
    },
    {
      "midi": 49,
      "hit": false,
      "t": 48795.07500000028,
      "d": 176.95744791666948,
      "v": 110
    },
    {
      "midi": 86,
      "hit": false,
      "t": 48795.07500000029,
      "d": 301.20416666667006,
      "v": 110
    },
    {
      "midi": 68,
      "hit": false,
      "t": 48795.075000000295,
      "d": 176.95744791666948,
      "v": 110
    },
    {
      "midi": 86,
      "hit": false,
      "t": 48885.43625000029,
      "d": 301.20416666667006,
      "v": 110
    },
    {
      "midi": 35,
      "hit": false,
      "t": 48975.797500000175,
      "d": 176.95744791666948,
      "v": 110
    },
    {
      "midi": 42,
      "hit": false,
      "t": 48975.797500000284,
      "d": 176.95744791666948,
      "v": 110
    },
    {
      "midi": 78,
      "hit": false,
      "t": 48975.79750000029,
      "d": 176.95744791666948,
      "v": 110
    },
    {
      "midi": 66,
      "hit": false,
      "t": 48975.7975000003,
      "d": 176.95744791666948,
      "v": 110
    },
    {
      "midi": 78,
      "hit": false,
      "t": 49066.15875000029,
      "d": 176.95744791666948,
      "v": 110
    },
    {
      "midi": 28,
      "hit": false,
      "t": 49156.52000000003,
      "d": 2801.198750000003,
      "v": 110
    },
    {
      "midi": 83,
      "hit": false,
      "t": 49156.52000000004,
      "d": 2078.308750000004,
      "v": 110
    },
    {
      "midi": 43,
      "hit": false,
      "t": 49156.52000000018,
      "d": 176.95744791666948,
      "v": 110
    },
    {
      "midi": 83,
      "hit": false,
      "t": 49156.520000000295,
      "d": 481.92666666667355,
      "v": 110
    },
    {
      "midi": 52,
      "hit": false,
      "t": 49156.5200000003,
      "d": 176.95744791666948,
      "v": 110
    },
    {
      "midi": 83,
      "hit": false,
      "t": 49246.8812500003,
      "d": 481.92666666667355,
      "v": 110
    },
    {
      "midi": 43,
      "hit": false,
      "t": 49337.24250000018,
      "d": 176.95744791666948,
      "v": 110
    },
    {
      "midi": 40,
      "hit": false,
      "t": 49337.242500000284,
      "d": 176.95744791666948,
      "v": 110
    },
    {
      "midi": 76,
      "hit": false,
      "t": 49337.2425000003,
      "d": 176.95744791666948,
      "v": 110
    },
    {
      "midi": 54,
      "hit": false,
      "t": 49337.242500000306,
      "d": 176.95744791666948,
      "v": 110
    },
    {
      "midi": 76,
      "hit": false,
      "t": 49427.6037500003,
      "d": 176.95744791666948,
      "v": 110
    },
    {
      "midi": 43,
      "hit": false,
      "t": 49517.965000000186,
      "d": 176.95744791666948,
      "v": 110
    },
    {
      "midi": 43,
      "hit": false,
      "t": 49517.96500000029,
      "d": 176.95744791666948,
      "v": 110
    },
    {
      "midi": 79,
      "hit": false,
      "t": 49517.9650000003,
      "d": 176.95744791666948,
      "v": 110
    },
    {
      "midi": 55,
      "hit": false,
      "t": 49517.96500000031,
      "d": 176.95744791666948,
      "v": 110
    },
    {
      "midi": 79,
      "hit": false,
      "t": 49608.326250000304,
      "d": 176.95744791666948,
      "v": 110
    },
    {
      "midi": 43,
      "hit": false,
      "t": 49698.68750000019,
      "d": 176.95744791666948,
      "v": 110
    },
    {
      "midi": 40,
      "hit": false,
      "t": 49698.68750000029,
      "d": 176.95744791666948,
      "v": 110
    },
    {
      "midi": 86,
      "hit": false,
      "t": 49698.687500000306,
      "d": 481.92666666667355,
      "v": 110
    },
    {
      "midi": 59,
      "hit": false,
      "t": 49698.68750000031,
      "d": 176.95744791666948,
      "v": 110
    },
    {
      "midi": 86,
      "hit": false,
      "t": 49789.04875000031,
      "d": 481.92666666667355,
      "v": 110
    },
    {
      "midi": 45,
      "hit": false,
      "t": 49879.410000000295,
      "d": 176.95744791666948,
      "v": 110
    },
    {
      "midi": 76,
      "hit": false,
      "t": 49879.41000000031,
      "d": 176.95744791666948,
      "v": 110
    },
    {
      "midi": 64,
      "hit": false,
      "t": 49879.410000000316,
      "d": 176.95744791666948,
      "v": 110
    },
    {
      "midi": 76,
      "hit": false,
      "t": 49969.77125000031,
      "d": 176.95744791666948,
      "v": 110
    },
    {
      "midi": 44,
      "hit": false,
      "t": 50060.13250000019,
      "d": 176.95744791666948,
      "v": 110
    },
    {
      "midi": 40,
      "hit": false,
      "t": 50060.1325000003,
      "d": 176.95744791666948,
      "v": 110
    },
    {
      "midi": 79,
      "hit": false,
      "t": 50060.13250000031,
      "d": 176.95744791666948,
      "v": 110
    },
    {
      "midi": 59,
      "hit": false,
      "t": 50060.13250000032,
      "d": 176.95744791666948,
      "v": 110
    },
    {
      "midi": 79,
      "hit": false,
      "t": 50150.493750000314,
      "d": 176.95744791666948,
      "v": 110
    },
    {
      "midi": 44,
      "hit": false,
      "t": 50240.85500000019,
      "d": 176.95744791666948,
      "v": 110
    },
    {
      "midi": 47,
      "hit": false,
      "t": 50240.8550000003,
      "d": 176.95744791666948,
      "v": 110
    },
    {
      "midi": 85,
      "hit": false,
      "t": 50240.855000000316,
      "d": 538.4024479166765,
      "v": 110
    },
    {
      "midi": 66,
      "hit": false,
      "t": 50240.85500000032,
      "d": 176.95744791666948,
      "v": 110
    },
    {
      "midi": 85,
      "hit": false,
      "t": 50331.21625000032,
      "d": 538.4024479166765,
      "v": 110
    },
    {
      "midi": 44,
      "hit": false,
      "t": 50421.577500000196,
      "d": 176.95744791666948,
      "v": 110
    },
    {
      "midi": 40,
      "hit": false,
      "t": 50421.577500000305,
      "d": 176.95744791666948,
      "v": 110
    },
    {
      "midi": 76,
      "hit": false,
      "t": 50421.57750000032,
      "d": 176.95744791666948,
      "v": 110
    },
    {
      "midi": 59,
      "hit": false,
      "t": 50421.57750000033,
      "d": 176.95744791666948,
      "v": 110
    },
    {
      "midi": 76,
      "hit": false,
      "t": 50511.93875000032,
      "d": 176.95744791666948,
      "v": 110
    },
    {
      "midi": 28,
      "hit": false,
      "t": 50602.30000000031,
      "d": 1355.4187500000262,
      "v": 110
    },
    {
      "midi": 79,
      "hit": false,
      "t": 50602.30000000032,
      "d": 176.95744791666948,
      "v": 110
    },
    {
      "midi": 67,
      "hit": false,
      "t": 50602.30000000033,
      "d": 176.95744791666948,
      "v": 110
    },
    {
      "midi": 79,
      "hit": false,
      "t": 50692.661250000325,
      "d": 176.95744791666948,
      "v": 110
    },
    {
      "midi": 35,
      "hit": false,
      "t": 50783.0225000002,
      "d": 176.95744791666948,
      "v": 110
    },
    {
      "midi": 40,
      "hit": false,
      "t": 50783.02250000031,
      "d": 176.95744791666948,
      "v": 110
    },
    {
      "midi": 88,
      "hit": false,
      "t": 50783.02250000033,
      "d": 481.92666666667355,
      "v": 110
    },
    {
      "midi": 66,
      "hit": false,
      "t": 50783.022500000334,
      "d": 176.95744791666948,
      "v": 110
    },
    {
      "midi": 88,
      "hit": false,
      "t": 50873.38375000033,
      "d": 481.92666666667355,
      "v": 110
    },
    {
      "midi": 35,
      "hit": false,
      "t": 50963.745000000206,
      "d": 176.95744791666948,
      "v": 110
    },
    {
      "midi": 41,
      "hit": false,
      "t": 50963.745000000206,
      "d": 176.95744791666948,
      "v": 110
    },
    {
      "midi": 43,
      "hit": false,
      "t": 50963.745000000315,
      "d": 176.95744791666948,
      "v": 110
    },
    {
      "midi": 76,
      "hit": false,
      "t": 50963.74500000033,
      "d": 176.95744791666948,
      "v": 110
    },
    {
      "midi": 64,
      "hit": false,
      "t": 50963.74500000034,
      "d": 176.95744791666948,
      "v": 110
    },
    {
      "midi": 76,
      "hit": false,
      "t": 51054.10625000033,
      "d": 176.95744791666948,
      "v": 110
    },
    {
      "midi": 40,
      "hit": false,
      "t": 51144.46750000032,
      "d": 176.95744791666948,
      "v": 110
    },
    {
      "midi": 79,
      "hit": false,
      "t": 51144.46750000033,
      "d": 176.95744791666948,
      "v": 110
    },
    {
      "midi": 71,
      "hit": false,
      "t": 51144.46750000034,
      "d": 176.95744791666948,
      "v": 110
    },
    {
      "midi": 79,
      "hit": false,
      "t": 51234.828750000335,
      "d": 176.95744791666948,
      "v": 110
    },
    {
      "midi": 81,
      "hit": false,
      "t": 51325.190000000046,
      "d": 301.20416666667006,
      "v": 110
    },
    {
      "midi": 35,
      "hit": false,
      "t": 51325.190000000206,
      "d": 176.95744791666948,
      "v": 110
    },
    {
      "midi": 45,
      "hit": false,
      "t": 51325.19000000032,
      "d": 176.95744791666948,
      "v": 110
    },
    {
      "midi": 86,
      "hit": false,
      "t": 51325.19000000034,
      "d": 481.92666666667355,
      "v": 110
    },
    {
      "midi": 69,
      "hit": false,
      "t": 51325.190000000344,
      "d": 176.95744791666948,
      "v": 110
    },
    {
      "midi": 86,
      "hit": false,
      "t": 51415.55125000034,
      "d": 481.92666666667355,
      "v": 110
    },
    {
      "midi": 40,
      "hit": false,
      "t": 51505.912500000326,
      "d": 176.95744791666948,
      "v": 110
    },
    {
      "midi": 76,
      "hit": false,
      "t": 51505.91250000034,
      "d": 176.95744791666948,
      "v": 110
    },
    {
      "midi": 67,
      "hit": false,
      "t": 51505.91250000035,
      "d": 176.95744791666948,
      "v": 110
    },
    {
      "midi": 76,
      "hit": false,
      "t": 51596.27375000034,
      "d": 176.95744791666948,
      "v": 110
    },
    {
      "midi": 80,
      "hit": false,
      "t": 51686.63500000005,
      "d": 301.20416666667006,
      "v": 110
    },
    {
      "midi": 35,
      "hit": false,
      "t": 51686.635000000206,
      "d": 176.95744791666948,
      "v": 110
    },
    {
      "midi": 47,
      "hit": false,
      "t": 51686.63500000033,
      "d": 176.95744791666948,
      "v": 110
    },
    {
      "midi": 85,
      "hit": false,
      "t": 51686.635000000344,
      "d": 301.20416666667006,
      "v": 110
    },
    {
      "midi": 66,
      "hit": false,
      "t": 51686.63500000035,
      "d": 176.95744791666948,
      "v": 110
    },
    {
      "midi": 85,
      "hit": false,
      "t": 51776.996250000346,
      "d": 301.20416666667006,
      "v": 110
    },
    {
      "midi": 35,
      "hit": false,
      "t": 51867.35750000021,
      "d": 176.95744791666948,
      "v": 110
    },
    {
      "midi": 40,
      "hit": false,
      "t": 51867.35750000033,
      "d": 176.95744791666948,
      "v": 110
    },
    {
      "midi": 76,
      "hit": false,
      "t": 51867.35750000035,
      "d": 176.95744791666948,
      "v": 110
    },
    {
      "midi": 64,
      "hit": false,
      "t": 51867.357500000355,
      "d": 176.95744791666948,
      "v": 110
    },
    {
      "midi": 76,
      "hit": false,
      "t": 51957.71875000035,
      "d": 176.95744791666948,
      "v": 110
    },
    {
      "midi": 30,
      "hit": false,
      "t": 52048.08000000004,
      "d": 2801.198750000003,
      "v": 110
    },
    {
      "midi": 78,
      "hit": false,
      "t": 52048.08000000006,
      "d": 301.20416666667006,
      "v": 110
    },
    {
      "midi": 43,
      "hit": false,
      "t": 52048.08000000021,
      "d": 176.95744791666948,
      "v": 110
    },
    {
      "midi": 85,
      "hit": false,
      "t": 52048.08000000035,
      "d": 481.92666666667355,
      "v": 110
    },
    {
      "midi": 54,
      "hit": false,
      "t": 52048.08000000036,
      "d": 176.95744791666948,
      "v": 110
    },
    {
      "midi": 85,
      "hit": false,
      "t": 52138.44125000035,
      "d": 481.92666666667355,
      "v": 110
    },
    {
      "midi": 43,
      "hit": false,
      "t": 52228.802500000216,
      "d": 176.95744791666948,
      "v": 110
    },
    {
      "midi": 42,
      "hit": false,
      "t": 52228.80250000033,
      "d": 176.95744791666948,
      "v": 110
    },
    {
      "midi": 78,
      "hit": false,
      "t": 52228.802500000354,
      "d": 176.95744791666948,
      "v": 110
    },
    {
      "midi": 56,
      "hit": false,
      "t": 52228.80250000036,
      "d": 176.95744791666948,
      "v": 110
    },
    {
      "midi": 78,
      "hit": false,
      "t": 52319.163750000356,
      "d": 176.95744791666948,
      "v": 110
    },
    {
      "midi": 80,
      "hit": false,
      "t": 52409.52500000007,
      "d": 301.20416666667006,
      "v": 110
    },
    {
      "midi": 43,
      "hit": false,
      "t": 52409.52500000022,
      "d": 176.95744791666948,
      "v": 110
    },
    {
      "midi": 45,
      "hit": false,
      "t": 52409.525000000336,
      "d": 176.95744791666948,
      "v": 110
    },
    {
      "midi": 81,
      "hit": false,
      "t": 52409.52500000036,
      "d": 176.95744791666948,
      "v": 110
    },
    {
      "midi": 57,
      "hit": false,
      "t": 52409.525000000365,
      "d": 176.95744791666948,
      "v": 110
    },
    {
      "midi": 81,
      "hit": false,
      "t": 52499.88625000036,
      "d": 176.95744791666948,
      "v": 110
    },
    {
      "midi": 43,
      "hit": false,
      "t": 52590.24750000022,
      "d": 176.95744791666948,
      "v": 110
    },
    {
      "midi": 42,
      "hit": false,
      "t": 52590.24750000034,
      "d": 176.95744791666948,
      "v": 110
    },
    {
      "midi": 88,
      "hit": false,
      "t": 52590.24750000036,
      "d": 481.92666666667355,
      "v": 110
    },
    {
      "midi": 61,
      "hit": false,
      "t": 52590.24750000037,
      "d": 176.95744791666948,
      "v": 110
    },
    {
      "midi": 88,
      "hit": false,
      "t": 52680.60875000036,
      "d": 481.92666666667355,
      "v": 110
    },
    {
      "midi": 81,
      "hit": false,
      "t": 52770.970000000074,
      "d": 2078.3087499999965,
      "v": 110
    },
    {
      "midi": 47,
      "hit": false,
      "t": 52770.97000000034,
      "d": 176.95744791666948,
      "v": 110
    },
    {
      "midi": 78,
      "hit": false,
      "t": 52770.970000000365,
      "d": 176.95744791666948,
      "v": 110
    },
    {
      "midi": 66,
      "hit": false,
      "t": 52770.97000000037,
      "d": 176.95744791666948,
      "v": 110
    },
    {
      "midi": 78,
      "hit": false,
      "t": 52861.33125000037,
      "d": 176.95744791666948,
      "v": 110
    },
    {
      "midi": 44,
      "hit": false,
      "t": 52951.69250000022,
      "d": 176.95744791666948,
      "v": 110
    },
    {
      "midi": 42,
      "hit": false,
      "t": 52951.69250000035,
      "d": 176.95744791666948,
      "v": 110
    },
    {
      "midi": 81,
      "hit": false,
      "t": 52951.69250000037,
      "d": 176.95744791666948,
      "v": 110
    },
    {
      "midi": 61,
      "hit": false,
      "t": 52951.692500000376,
      "d": 176.95744791666948,
      "v": 110
    },
    {
      "midi": 81,
      "hit": false,
      "t": 53042.05375000037,
      "d": 176.95744791666948,
      "v": 110
    },
    {
      "midi": 44,
      "hit": false,
      "t": 53132.41500000023,
      "d": 176.95744791666948,
      "v": 110
    },
    {
      "midi": 49,
      "hit": false,
      "t": 53132.41500000035,
      "d": 176.95744791666948,
      "v": 110
    },
    {
      "midi": 86,
      "hit": false,
      "t": 53132.41500000037,
      "d": 301.20416666667006,
      "v": 110
    },
    {
      "midi": 68,
      "hit": false,
      "t": 53132.41500000038,
      "d": 176.95744791666948,
      "v": 110
    },
    {
      "midi": 86,
      "hit": false,
      "t": 53222.776250000374,
      "d": 301.20416666667006,
      "v": 110
    },
    {
      "midi": 44,
      "hit": false,
      "t": 53313.13750000023,
      "d": 176.95744791666948,
      "v": 110
    },
    {
      "midi": 42,
      "hit": false,
      "t": 53313.13750000035,
      "d": 176.95744791666948,
      "v": 110
    },
    {
      "midi": 78,
      "hit": false,
      "t": 53313.137500000375,
      "d": 176.95744791666948,
      "v": 110
    },
    {
      "midi": 61,
      "hit": false,
      "t": 53313.13750000038,
      "d": 176.95744791666948,
      "v": 110
    },
    {
      "midi": 78,
      "hit": false,
      "t": 53403.49875000038,
      "d": 176.95744791666948,
      "v": 110
    },
    {
      "midi": 30,
      "hit": false,
      "t": 53493.86000000036,
      "d": 1355.4187500000262,
      "v": 110
    },
    {
      "midi": 85,
      "hit": false,
      "t": 53493.86000000038,
      "d": 481.92666666667355,
      "v": 110
    },
    {
      "midi": 69,
      "hit": false,
      "t": 53493.860000000386,
      "d": 176.95744791666948,
      "v": 110
    },
    {
      "midi": 85,
      "hit": false,
      "t": 53584.22125000038,
      "d": 481.92666666667355,
      "v": 110
    },
    {
      "midi": 35,
      "hit": false,
      "t": 53674.58250000024,
      "d": 176.95744791666948,
      "v": 110
    },
    {
      "midi": 42,
      "hit": false,
      "t": 53674.58250000036,
      "d": 176.95744791666948,
      "v": 110
    },
    {
      "midi": 78,
      "hit": false,
      "t": 53674.58250000038,
      "d": 176.95744791666948,
      "v": 110
    },
    {
      "midi": 68,
      "hit": false,
      "t": 53674.58250000039,
      "d": 176.95744791666948,
      "v": 110
    },
    {
      "midi": 78,
      "hit": false,
      "t": 53764.943750000384,
      "d": 176.95744791666948,
      "v": 110
    },
    {
      "midi": 35,
      "hit": false,
      "t": 53855.30500000024,
      "d": 176.95744791666948,
      "v": 110
    },
    {
      "midi": 41,
      "hit": false,
      "t": 53855.30500000024,
      "d": 176.95744791666948,
      "v": 110
    },
    {
      "midi": 45,
      "hit": false,
      "t": 53855.305000000364,
      "d": 176.95744791666948,
      "v": 110
    },
    {
      "midi": 81,
      "hit": false,
      "t": 53855.305000000386,
      "d": 176.95744791666948,
      "v": 110
    },
    {
      "midi": 66,
      "hit": false,
      "t": 53855.30500000039,
      "d": 176.95744791666948,
      "v": 110
    },
    {
      "midi": 81,
      "hit": false,
      "t": 53945.66625000039,
      "d": 176.95744791666948,
      "v": 110
    },
    {
      "midi": 42,
      "hit": false,
      "t": 54036.02750000037,
      "d": 176.95744791666948,
      "v": 110
    },
    {
      "midi": 88,
      "hit": false,
      "t": 54036.02750000039,
      "d": 481.92666666667355,
      "v": 110
    },
    {
      "midi": 73,
      "hit": false,
      "t": 54036.0275000004,
      "d": 176.95744791666948,
      "v": 110
    },
    {
      "midi": 88,
      "hit": false,
      "t": 54126.38875000039,
      "d": 481.92666666667355,
      "v": 110
    },
    {
      "midi": 35,
      "hit": false,
      "t": 54216.75000000024,
      "d": 176.95744791666948,
      "v": 110
    },
    {
      "midi": 47,
      "hit": false,
      "t": 54216.75000000037,
      "d": 176.95744791666948,
      "v": 110
    },
    {
      "midi": 78,
      "hit": false,
      "t": 54216.75000000039,
      "d": 176.95744791666948,
      "v": 110
    },
    {
      "midi": 71,
      "hit": false,
      "t": 54216.7500000004,
      "d": 176.95744791666948,
      "v": 110
    },
    {
      "midi": 78,
      "hit": false,
      "t": 54307.111250000395,
      "d": 176.95744791666948,
      "v": 110
    },
    {
      "midi": 42,
      "hit": false,
      "t": 54397.472500000375,
      "d": 176.95744791666948,
      "v": 110
    },
    {
      "midi": 81,
      "hit": false,
      "t": 54397.4725000004,
      "d": 176.95744791666948,
      "v": 110
    },
    {
      "midi": 69,
      "hit": false,
      "t": 54397.472500000404,
      "d": 176.95744791666948,
      "v": 110
    },
    {
      "midi": 81,
      "hit": false,
      "t": 54487.8337500004,
      "d": 176.95744791666948,
      "v": 110
    },
    {
      "midi": 35,
      "hit": false,
      "t": 54578.19500000024,
      "d": 176.95744791666948,
      "v": 110
    },
    {
      "midi": 49,
      "hit": false,
      "t": 54578.19500000038,
      "d": 176.95744791666948,
      "v": 110
    },
    {
      "midi": 86,
      "hit": false,
      "t": 54578.1950000004,
      "d": 301.20416666667006,
      "v": 110
    },
    {
      "midi": 68,
      "hit": false,
      "t": 54578.19500000041,
      "d": 176.95744791666948,
      "v": 110
    },
    {
      "midi": 86,
      "hit": false,
      "t": 54668.5562500004,
      "d": 301.20416666667006,
      "v": 110
    },
    {
      "midi": 35,
      "hit": false,
      "t": 54758.91750000024,
      "d": 176.95744791666948,
      "v": 110
    },
    {
      "midi": 42,
      "hit": false,
      "t": 54758.91750000038,
      "d": 176.95744791666948,
      "v": 110
    },
    {
      "midi": 78,
      "hit": false,
      "t": 54758.9175000004,
      "d": 176.95744791666948,
      "v": 110
    },
    {
      "midi": 66,
      "hit": false,
      "t": 54758.91750000041,
      "d": 176.95744791666948,
      "v": 110
    },
    {
      "midi": 78,
      "hit": false,
      "t": 54849.278750000405,
      "d": 176.95744791666948,
      "v": 110
    },
    {
      "midi": 35,
      "hit": false,
      "t": 54939.64000000004,
      "d": 2801.198750000003,
      "v": 110
    },
    {
      "midi": 83,
      "hit": false,
      "t": 54939.64000000007,
      "d": 632.5287499999977,
      "v": 110
    },
    {
      "midi": 43,
      "hit": false,
      "t": 54939.64000000025,
      "d": 176.95744791666948,
      "v": 110
    },
    {
      "midi": 90,
      "hit": false,
      "t": 54939.64000000041,
      "d": 481.92666666667355,
      "v": 110
    },
    {
      "midi": 67,
      "hit": false,
      "t": 54939.640000000414,
      "d": 176.95744791666948,
      "v": 110
    },
    {
      "midi": 90,
      "hit": false,
      "t": 55030.00125000041,
      "d": 481.92666666667355,
      "v": 110
    },
    {
      "midi": 43,
      "hit": false,
      "t": 55120.36250000025,
      "d": 176.95744791666948,
      "v": 110
    },
    {
      "midi": 43,
      "hit": false,
      "t": 55120.36250000038,
      "d": 176.95744791666948,
      "v": 110
    },
    {
      "midi": 79,
      "hit": false,
      "t": 55120.36250000041,
      "d": 176.95744791666948,
      "v": 110
    },
    {
      "midi": 69,
      "hit": false,
      "t": 55120.36250000042,
      "d": 176.95744791666948,
      "v": 110
    },
    {
      "midi": 79,
      "hit": false,
      "t": 55210.72375000041,
      "d": 176.95744791666948,
      "v": 110
    },
    {
      "midi": 43,
      "hit": false,
      "t": 55301.085000000254,
      "d": 176.95744791666948,
      "v": 110
    },
    {
      "midi": 47,
      "hit": false,
      "t": 55301.085000000385,
      "d": 176.95744791666948,
      "v": 110
    },
    {
      "midi": 83,
      "hit": false,
      "t": 55301.085000000414,
      "d": 176.95744791666948,
      "v": 110
    },
    {
      "midi": 71,
      "hit": false,
      "t": 55301.08500000042,
      "d": 176.95744791666948,
      "v": 110
    },
    {
      "midi": 83,
      "hit": false,
      "t": 55391.446250000416,
      "d": 176.95744791666948,
      "v": 110
    },
    {
      "midi": 43,
      "hit": false,
      "t": 55481.80750000026,
      "d": 176.95744791666948,
      "v": 110
    },
    {
      "midi": 43,
      "hit": false,
      "t": 55481.80750000039,
      "d": 176.95744791666948,
      "v": 110
    },
    {
      "midi": 88,
      "hit": false,
      "t": 55481.80750000042,
      "d": 301.20416666667006,
      "v": 110
    },
    {
      "midi": 73,
      "hit": false,
      "t": 55481.807500000425,
      "d": 176.95744791666948,
      "v": 110
    },
    {
      "midi": 88,
      "hit": false,
      "t": 55572.16875000042,
      "d": 301.20416666667006,
      "v": 110
    },
    {
      "midi": 81,
      "hit": false,
      "t": 55662.53000000007,
      "d": 632.5287499999977,
      "v": 110
    },
    {
      "midi": 52,
      "hit": false,
      "t": 55662.53000000039,
      "d": 176.95744791666948,
      "v": 110
    },
    {
      "midi": 79,
      "hit": false,
      "t": 55662.53000000042,
      "d": 176.95744791666948,
      "v": 110
    },
    {
      "midi": 74,
      "hit": false,
      "t": 55662.53000000043,
      "d": 176.95744791666948,
      "v": 110
    },
    {
      "midi": 79,
      "hit": false,
      "t": 55752.89125000042,
      "d": 176.95744791666948,
      "v": 110
    },
    {
      "midi": 44,
      "hit": false,
      "t": 55843.25250000026,
      "d": 176.95744791666948,
      "v": 110
    },
    {
      "midi": 43,
      "hit": false,
      "t": 55843.252500000395,
      "d": 176.95744791666948,
      "v": 110
    },
    {
      "midi": 83,
      "hit": false,
      "t": 55843.252500000424,
      "d": 176.95744791666948,
      "v": 110
    },
    {
      "midi": 73,
      "hit": false,
      "t": 55843.25250000043,
      "d": 176.95744791666948,
      "v": 110
    },
    {
      "midi": 83,
      "hit": false,
      "t": 55933.613750000426,
      "d": 176.95744791666948,
      "v": 110
    },
    {
      "midi": 44,
      "hit": false,
      "t": 56023.97500000026,
      "d": 176.95744791666948,
      "v": 110
    },
    {
      "midi": 54,
      "hit": false,
      "t": 56023.9750000004,
      "d": 176.95744791666948,
      "v": 110
    },
    {
      "midi": 86,
      "hit": false,
      "t": 56023.97500000043,
      "d": 538.4024479166765,
      "v": 110
    },
    {
      "midi": 71,
      "hit": false,
      "t": 56023.975000000435,
      "d": 176.95744791666948,
      "v": 110
    },
    {
      "midi": 86,
      "hit": false,
      "t": 56114.33625000043,
      "d": 538.4024479166765,
      "v": 110
    },
    {
      "midi": 44,
      "hit": false,
      "t": 56204.697500000264,
      "d": 176.95744791666948,
      "v": 110
    },
    {
      "midi": 43,
      "hit": false,
      "t": 56204.6975000004,
      "d": 176.95744791666948,
      "v": 110
    },
    {
      "midi": 79,
      "hit": false,
      "t": 56204.69750000043,
      "d": 176.95744791666948,
      "v": 110
    },
    {
      "midi": 76,
      "hit": false,
      "t": 56204.69750000044,
      "d": 176.95744791666948,
      "v": 110
    },
    {
      "midi": 79,
      "hit": false,
      "t": 56295.05875000043,
      "d": 176.95744791666948,
      "v": 110
    },
    {
      "midi": 79,
      "hit": false,
      "t": 56385.42000000007,
      "d": 632.5287499999977,
      "v": 110
    },
    {
      "midi": 35,
      "hit": false,
      "t": 56385.420000000406,
      "d": 1355.4187500000262,
      "v": 110
    },
    {
      "midi": 83,
      "hit": false,
      "t": 56385.420000000435,
      "d": 176.95744791666948,
      "v": 110
    },
    {
      "midi": 74,
      "hit": false,
      "t": 56385.42000000044,
      "d": 176.95744791666948,
      "v": 110
    },
    {
      "midi": 83,
      "hit": false,
      "t": 56475.78125000044,
      "d": 176.95744791666948,
      "v": 110
    },
    {
      "midi": 35,
      "hit": false,
      "t": 56566.14250000027,
      "d": 176.95744791666948,
      "v": 110
    },
    {
      "midi": 47,
      "hit": false,
      "t": 56566.14250000041,
      "d": 176.95744791666948,
      "v": 110
    },
    {
      "midi": 85,
      "hit": false,
      "t": 56566.14250000044,
      "d": 301.20416666667006,
      "v": 110
    },
    {
      "midi": 73,
      "hit": false,
      "t": 56566.142500000446,
      "d": 176.95744791666948,
      "v": 110
    },
    {
      "midi": 85,
      "hit": false,
      "t": 56656.50375000044,
      "d": 301.20416666667006,
      "v": 110
    },
    {
      "midi": 35,
      "hit": false,
      "t": 56746.865000000274,
      "d": 176.95744791666948,
      "v": 110
    },
    {
      "midi": 41,
      "hit": false,
      "t": 56746.865000000274,
      "d": 176.95744791666948,
      "v": 110
    },
    {
      "midi": 50,
      "hit": false,
      "t": 56746.86500000041,
      "d": 176.95744791666948,
      "v": 110
    },
    {
      "midi": 79,
      "hit": false,
      "t": 56746.86500000044,
      "d": 176.95744791666948,
      "v": 110
    },
    {
      "midi": 71,
      "hit": false,
      "t": 56746.86500000045,
      "d": 176.95744791666948,
      "v": 110
    },
    {
      "midi": 79,
      "hit": false,
      "t": 56837.22625000044,
      "d": 176.95744791666948,
      "v": 110
    },
    {
      "midi": 47,
      "hit": false,
      "t": 56927.587500000416,
      "d": 176.95744791666948,
      "v": 110
    },
    {
      "midi": 83,
      "hit": false,
      "t": 56927.587500000445,
      "d": 176.95744791666948,
      "v": 110
    },
    {
      "midi": 69,
      "hit": false,
      "t": 56927.58750000045,
      "d": 176.95744791666948,
      "v": 110
    },
    {
      "midi": 83,
      "hit": false,
      "t": 57017.94875000045,
      "d": 176.95744791666948,
      "v": 110
    },
    {
      "midi": 78,
      "hit": false,
      "t": 57108.31000000007,
      "d": 632.5287499999977,
      "v": 110
    },
    {
      "midi": 35,
      "hit": false,
      "t": 57108.310000000274,
      "d": 176.95744791666948,
      "v": 110
    },
    {
      "midi": 52,
      "hit": false,
      "t": 57108.31000000042,
      "d": 176.95744791666948,
      "v": 110
    },
    {
      "midi": 86,
      "hit": false,
      "t": 57108.31000000045,
      "d": 301.20416666667006,
      "v": 110
    },
    {
      "midi": 67,
      "hit": false,
      "t": 57108.310000000456,
      "d": 176.95744791666948,
      "v": 110
    },
    {
      "midi": 86,
      "hit": false,
      "t": 57198.67125000045,
      "d": 301.20416666667006,
      "v": 110
    },
    {
      "midi": 47,
      "hit": false,
      "t": 57289.03250000042,
      "d": 176.95744791666948,
      "v": 110
    },
    {
      "midi": 79,
      "hit": false,
      "t": 57289.03250000045,
      "d": 176.95744791666948,
      "v": 110
    },
    {
      "midi": 66,
      "hit": false,
      "t": 57289.03250000046,
      "d": 176.95744791666948,
      "v": 110
    },
    {
      "midi": 79,
      "hit": false,
      "t": 57379.393750000454,
      "d": 176.95744791666948,
      "v": 110
    },
    {
      "midi": 35,
      "hit": false,
      "t": 57469.755000000274,
      "d": 176.95744791666948,
      "v": 110
    },
    {
      "midi": 54,
      "hit": false,
      "t": 57469.75500000043,
      "d": 176.95744791666948,
      "v": 110
    },
    {
      "midi": 83,
      "hit": false,
      "t": 57469.755000000456,
      "d": 301.20416666667006,
      "v": 110
    },
    {
      "midi": 64,
      "hit": false,
      "t": 57469.75500000046,
      "d": 176.95744791666948,
      "v": 110
    },
    {
      "midi": 83,
      "hit": false,
      "t": 57560.11625000046,
      "d": 301.20416666667006,
      "v": 110
    },
    {
      "midi": 35,
      "hit": false,
      "t": 57650.47750000028,
      "d": 176.95744791666948,
      "v": 110
    },
    {
      "midi": 47,
      "hit": false,
      "t": 57650.47750000043,
      "d": 176.95744791666948,
      "v": 110
    },
    {
      "midi": 79,
      "hit": false,
      "t": 57650.47750000046,
      "d": 176.95744791666948,
      "v": 110
    },
    {
      "midi": 71,
      "hit": false,
      "t": 57650.47750000047,
      "d": 176.95744791666948,
      "v": 110
    },
    {
      "midi": 79,
      "hit": false,
      "t": 57740.83875000046,
      "d": 176.95744791666948,
      "v": 110
    },
    {
      "midi": 30,
      "hit": false,
      "t": 57831.20000000005,
      "d": 2801.198750000003,
      "v": 110
    },
    {
      "midi": 80,
      "hit": false,
      "t": 57831.20000000007,
      "d": 2801.198750000003,
      "v": 110
    },
    {
      "midi": 43,
      "hit": false,
      "t": 57831.20000000028,
      "d": 176.95744791666948,
      "v": 110
    },
    {
      "midi": 85,
      "hit": false,
      "t": 57831.20000000046,
      "d": 481.92666666667355,
      "v": 110
    },
    {
      "midi": 54,
      "hit": false,
      "t": 57831.20000000047,
      "d": 176.95744791666948,
      "v": 110
    },
    {
      "midi": 85,
      "hit": false,
      "t": 57921.561250000464,
      "d": 481.92666666667355,
      "v": 110
    },
    {
      "midi": 43,
      "hit": false,
      "t": 58011.922500000284,
      "d": 176.95744791666948,
      "v": 110
    },
    {
      "midi": 42,
      "hit": false,
      "t": 58011.92250000043,
      "d": 176.95744791666948,
      "v": 110
    },
    {
      "midi": 78,
      "hit": false,
      "t": 58011.922500000466,
      "d": 176.95744791666948,
      "v": 110
    },
    {
      "midi": 56,
      "hit": false,
      "t": 58011.92250000047,
      "d": 176.95744791666948,
      "v": 110
    },
    {
      "midi": 78,
      "hit": false,
      "t": 58102.28375000047,
      "d": 176.95744791666948,
      "v": 110
    },
    {
      "midi": 43,
      "hit": false,
      "t": 58192.64500000029,
      "d": 176.95744791666948,
      "v": 110
    },
    {
      "midi": 45,
      "hit": false,
      "t": 58192.64500000043,
      "d": 176.95744791666948,
      "v": 110
    },
    {
      "midi": 81,
      "hit": false,
      "t": 58192.64500000047,
      "d": 176.95744791666948,
      "v": 110
    },
    {
      "midi": 57,
      "hit": false,
      "t": 58192.64500000048,
      "d": 176.95744791666948,
      "v": 110
    },
    {
      "midi": 81,
      "hit": false,
      "t": 58283.00625000047,
      "d": 176.95744791666948,
      "v": 110
    },
    {
      "midi": 43,
      "hit": false,
      "t": 58373.36750000029,
      "d": 176.95744791666948,
      "v": 110
    },
    {
      "midi": 42,
      "hit": false,
      "t": 58373.36750000044,
      "d": 176.95744791666948,
      "v": 110
    },
    {
      "midi": 88,
      "hit": false,
      "t": 58373.36750000047,
      "d": 481.92666666667355,
      "v": 110
    },
    {
      "midi": 61,
      "hit": false,
      "t": 58373.36750000048,
      "d": 176.95744791666948,
      "v": 110
    },
    {
      "midi": 88,
      "hit": false,
      "t": 58463.728750000475,
      "d": 481.92666666667355,
      "v": 110
    },
    {
      "midi": 47,
      "hit": false,
      "t": 58554.09000000044,
      "d": 176.95744791666948,
      "v": 110
    },
    {
      "midi": 78,
      "hit": false,
      "t": 58554.09000000048,
      "d": 176.95744791666948,
      "v": 110
    },
    {
      "midi": 66,
      "hit": false,
      "t": 58554.090000000484,
      "d": 176.95744791666948,
      "v": 110
    },
    {
      "midi": 78,
      "hit": false,
      "t": 58644.45125000048,
      "d": 176.95744791666948,
      "v": 110
    },
    {
      "midi": 44,
      "hit": false,
      "t": 58734.81250000029,
      "d": 176.95744791666948,
      "v": 110
    },
    {
      "midi": 42,
      "hit": false,
      "t": 58734.812500000444,
      "d": 176.95744791666948,
      "v": 110
    },
    {
      "midi": 81,
      "hit": false,
      "t": 58734.81250000048,
      "d": 176.95744791666948,
      "v": 110
    },
    {
      "midi": 61,
      "hit": false,
      "t": 58734.81250000049,
      "d": 176.95744791666948,
      "v": 110
    },
    {
      "midi": 81,
      "hit": false,
      "t": 58825.17375000048,
      "d": 176.95744791666948,
      "v": 110
    },
    {
      "midi": 44,
      "hit": false,
      "t": 58915.535000000295,
      "d": 176.95744791666948,
      "v": 110
    },
    {
      "midi": 49,
      "hit": false,
      "t": 58915.53500000045,
      "d": 176.95744791666948,
      "v": 110
    },
    {
      "midi": 86,
      "hit": false,
      "t": 58915.535000000484,
      "d": 301.20416666667006,
      "v": 110
    },
    {
      "midi": 68,
      "hit": false,
      "t": 58915.53500000049,
      "d": 176.95744791666948,
      "v": 110
    },
    {
      "midi": 86,
      "hit": false,
      "t": 59005.896250000485,
      "d": 301.20416666667006,
      "v": 110
    },
    {
      "midi": 44,
      "hit": false,
      "t": 59096.2575000003,
      "d": 176.95744791666948,
      "v": 110
    },
    {
      "midi": 42,
      "hit": false,
      "t": 59096.25750000045,
      "d": 176.95744791666948,
      "v": 110
    },
    {
      "midi": 78,
      "hit": false,
      "t": 59096.25750000049,
      "d": 176.95744791666948,
      "v": 110
    },
    {
      "midi": 61,
      "hit": false,
      "t": 59096.257500000494,
      "d": 176.95744791666948,
      "v": 110
    },
    {
      "midi": 78,
      "hit": false,
      "t": 59186.61875000049,
      "d": 176.95744791666948,
      "v": 110
    },
    {
      "midi": 30,
      "hit": false,
      "t": 59276.980000000454,
      "d": 1355.4187500000262,
      "v": 110
    },
    {
      "midi": 85,
      "hit": false,
      "t": 59276.98000000049,
      "d": 481.92666666667355,
      "v": 110
    },
    {
      "midi": 69,
      "hit": false,
      "t": 59276.9800000005,
      "d": 176.95744791666948,
      "v": 110
    },
    {
      "midi": 85,
      "hit": false,
      "t": 59367.34125000049,
      "d": 481.92666666667355,
      "v": 110
    },
    {
      "midi": 35,
      "hit": false,
      "t": 59457.702500000305,
      "d": 176.95744791666948,
      "v": 110
    },
    {
      "midi": 42,
      "hit": false,
      "t": 59457.70250000046,
      "d": 176.95744791666948,
      "v": 110
    },
    {
      "midi": 78,
      "hit": false,
      "t": 59457.702500000494,
      "d": 176.95744791666948,
      "v": 110
    },
    {
      "midi": 68,
      "hit": false,
      "t": 59457.7025000005,
      "d": 176.95744791666948,
      "v": 110
    },
    {
      "midi": 78,
      "hit": false,
      "t": 59548.063750000496,
      "d": 176.95744791666948,
      "v": 110
    },
    {
      "midi": 35,
      "hit": false,
      "t": 59638.42500000031,
      "d": 176.95744791666948,
      "v": 110
    },
    {
      "midi": 41,
      "hit": false,
      "t": 59638.42500000031,
      "d": 176.95744791666948,
      "v": 110
    },
    {
      "midi": 45,
      "hit": false,
      "t": 59638.42500000046,
      "d": 176.95744791666948,
      "v": 110
    },
    {
      "midi": 81,
      "hit": false,
      "t": 59638.4250000005,
      "d": 176.95744791666948,
      "v": 110
    },
    {
      "midi": 66,
      "hit": false,
      "t": 59638.425000000505,
      "d": 176.95744791666948,
      "v": 110
    },
    {
      "midi": 81,
      "hit": false,
      "t": 59728.7862500005,
      "d": 176.95744791666948,
      "v": 110
    },
    {
      "midi": 42,
      "hit": false,
      "t": 59819.147500000465,
      "d": 176.95744791666948,
      "v": 110
    },
    {
      "midi": 88,
      "hit": false,
      "t": 59819.1475000005,
      "d": 481.92666666667355,
      "v": 110
    },
    {
      "midi": 73,
      "hit": false,
      "t": 59819.14750000051,
      "d": 176.95744791666948,
      "v": 110
    },
    {
      "midi": 88,
      "hit": false,
      "t": 59909.5087500005,
      "d": 481.92666666667355,
      "v": 110
    },
    {
      "midi": 35,
      "hit": false,
      "t": 59999.87000000031,
      "d": 176.95744791666948,
      "v": 110
    },
    {
      "midi": 47,
      "hit": false,
      "t": 59999.87000000047,
      "d": 176.95744791666948,
      "v": 110
    },
    {
      "midi": 78,
      "hit": false,
      "t": 59999.870000000505,
      "d": 176.95744791666948,
      "v": 110
    },
    {
      "midi": 71,
      "hit": false,
      "t": 59999.87000000051,
      "d": 176.95744791666948,
      "v": 110
    },
    {
      "midi": 78,
      "hit": false,
      "t": 60090.23125000051,
      "d": 176.95744791666948,
      "v": 110
    },
    {
      "midi": 42,
      "hit": false,
      "t": 60180.59250000047,
      "d": 176.95744791666948,
      "v": 110
    },
    {
      "midi": 81,
      "hit": false,
      "t": 60180.59250000051,
      "d": 176.95744791666948,
      "v": 110
    },
    {
      "midi": 69,
      "hit": false,
      "t": 60180.592500000515,
      "d": 176.95744791666948,
      "v": 110
    },
    {
      "midi": 81,
      "hit": false,
      "t": 60270.95375000051,
      "d": 176.95744791666948,
      "v": 110
    },
    {
      "midi": 35,
      "hit": false,
      "t": 60361.31500000031,
      "d": 176.95744791666948,
      "v": 110
    },
    {
      "midi": 49,
      "hit": false,
      "t": 60361.315000000475,
      "d": 176.95744791666948,
      "v": 110
    },
    {
      "midi": 86,
      "hit": false,
      "t": 60361.31500000051,
      "d": 301.20416666667006,
      "v": 110
    },
    {
      "midi": 68,
      "hit": false,
      "t": 60361.31500000052,
      "d": 176.95744791666948,
      "v": 110
    },
    {
      "midi": 86,
      "hit": false,
      "t": 60451.67625000051,
      "d": 301.20416666667006,
      "v": 110
    },
    {
      "midi": 35,
      "hit": false,
      "t": 60542.03750000031,
      "d": 176.95744791666948,
      "v": 110
    },
    {
      "midi": 42,
      "hit": false,
      "t": 60542.03750000048,
      "d": 176.95744791666948,
      "v": 110
    },
    {
      "midi": 78,
      "hit": false,
      "t": 60542.037500000515,
      "d": 176.95744791666948,
      "v": 110
    },
    {
      "midi": 66,
      "hit": false,
      "t": 60542.03750000052,
      "d": 176.95744791666948,
      "v": 110
    },
    {
      "midi": 78,
      "hit": false,
      "t": 60632.39875000052,
      "d": 176.95744791666948,
      "v": 110
    },
    {
      "midi": 28,
      "hit": false,
      "t": 60722.76000000005,
      "d": 2801.198750000003,
      "v": 110
    },
    {
      "midi": 83,
      "hit": false,
      "t": 60722.760000000075,
      "d": 2078.308750000004,
      "v": 110
    },
    {
      "midi": 43,
      "hit": false,
      "t": 60722.760000000315,
      "d": 176.95744791666948,
      "v": 110
    },
    {
      "midi": 83,
      "hit": false,
      "t": 60722.76000000052,
      "d": 481.92666666667355,
      "v": 110
    },
    {
      "midi": 52,
      "hit": false,
      "t": 60722.760000000526,
      "d": 176.95744791666948,
      "v": 110
    },
    {
      "midi": 83,
      "hit": false,
      "t": 60813.12125000052,
      "d": 481.92666666667355,
      "v": 110
    },
    {
      "midi": 43,
      "hit": false,
      "t": 60903.48250000032,
      "d": 176.95744791666948,
      "v": 110
    },
    {
      "midi": 40,
      "hit": false,
      "t": 60903.48250000048,
      "d": 176.95744791666948,
      "v": 110
    },
    {
      "midi": 76,
      "hit": false,
      "t": 60903.48250000052,
      "d": 176.95744791666948,
      "v": 110
    },
    {
      "midi": 54,
      "hit": false,
      "t": 60903.48250000053,
      "d": 176.95744791666948,
      "v": 110
    },
    {
      "midi": 76,
      "hit": false,
      "t": 60993.843750000524,
      "d": 176.95744791666948,
      "v": 110
    },
    {
      "midi": 43,
      "hit": false,
      "t": 61084.20500000032,
      "d": 176.95744791666948,
      "v": 110
    },
    {
      "midi": 43,
      "hit": false,
      "t": 61084.20500000048,
      "d": 176.95744791666948,
      "v": 110
    },
    {
      "midi": 79,
      "hit": false,
      "t": 61084.205000000526,
      "d": 176.95744791666948,
      "v": 110
    },
    {
      "midi": 55,
      "hit": false,
      "t": 61084.20500000053,
      "d": 176.95744791666948,
      "v": 110
    },
    {
      "midi": 79,
      "hit": false,
      "t": 61174.56625000053,
      "d": 176.95744791666948,
      "v": 110
    },
    {
      "midi": 43,
      "hit": false,
      "t": 61264.927500000325,
      "d": 176.95744791666948,
      "v": 110
    },
    {
      "midi": 40,
      "hit": false,
      "t": 61264.927500000485,
      "d": 176.95744791666948,
      "v": 110
    },
    {
      "midi": 86,
      "hit": false,
      "t": 61264.92750000053,
      "d": 481.92666666667355,
      "v": 110
    },
    {
      "midi": 59,
      "hit": false,
      "t": 61264.92750000054,
      "d": 176.95744791666948,
      "v": 110
    },
    {
      "midi": 86,
      "hit": false,
      "t": 61355.28875000053,
      "d": 481.92666666667355,
      "v": 110
    },
    {
      "midi": 45,
      "hit": false,
      "t": 61445.65000000049,
      "d": 176.95744791666948,
      "v": 110
    },
    {
      "midi": 76,
      "hit": false,
      "t": 61445.65000000053,
      "d": 176.95744791666948,
      "v": 110
    },
    {
      "midi": 64,
      "hit": false,
      "t": 61445.65000000054,
      "d": 176.95744791666948,
      "v": 110
    },
    {
      "midi": 76,
      "hit": false,
      "t": 61536.011250000534,
      "d": 176.95744791666948,
      "v": 110
    },
    {
      "midi": 44,
      "hit": false,
      "t": 61626.372500000325,
      "d": 176.95744791666948,
      "v": 110
    },
    {
      "midi": 40,
      "hit": false,
      "t": 61626.37250000049,
      "d": 176.95744791666948,
      "v": 110
    },
    {
      "midi": 79,
      "hit": false,
      "t": 61626.372500000536,
      "d": 176.95744791666948,
      "v": 110
    },
    {
      "midi": 59,
      "hit": false,
      "t": 61626.37250000054,
      "d": 176.95744791666948,
      "v": 110
    },
    {
      "midi": 79,
      "hit": false,
      "t": 61716.73375000054,
      "d": 176.95744791666948,
      "v": 110
    },
    {
      "midi": 44,
      "hit": false,
      "t": 61807.09500000033,
      "d": 176.95744791666948,
      "v": 110
    },
    {
      "midi": 47,
      "hit": false,
      "t": 61807.095000000496,
      "d": 176.95744791666948,
      "v": 110
    },
    {
      "midi": 85,
      "hit": false,
      "t": 61807.09500000054,
      "d": 538.4024479166765,
      "v": 110
    },
    {
      "midi": 66,
      "hit": false,
      "t": 61807.09500000055,
      "d": 176.95744791666948,
      "v": 110
    },
    {
      "midi": 85,
      "hit": false,
      "t": 61897.45625000054,
      "d": 538.4024479166765,
      "v": 110
    },
    {
      "midi": 44,
      "hit": false,
      "t": 61987.81750000033,
      "d": 176.95744791666948,
      "v": 110
    },
    {
      "midi": 40,
      "hit": false,
      "t": 61987.8175000005,
      "d": 176.95744791666948,
      "v": 110
    },
    {
      "midi": 76,
      "hit": false,
      "t": 61987.81750000054,
      "d": 176.95744791666948,
      "v": 110
    },
    {
      "midi": 59,
      "hit": false,
      "t": 61987.81750000055,
      "d": 176.95744791666948,
      "v": 110
    },
    {
      "midi": 76,
      "hit": false,
      "t": 62078.178750000545,
      "d": 176.95744791666948,
      "v": 110
    },
    {
      "midi": 28,
      "hit": false,
      "t": 62168.5400000005,
      "d": 1355.4187500000262,
      "v": 110
    },
    {
      "midi": 79,
      "hit": false,
      "t": 62168.54000000055,
      "d": 176.95744791666948,
      "v": 110
    },
    {
      "midi": 67,
      "hit": false,
      "t": 62168.540000000554,
      "d": 176.95744791666948,
      "v": 110
    },
    {
      "midi": 79,
      "hit": false,
      "t": 62258.90125000055,
      "d": 176.95744791666948,
      "v": 110
    },
    {
      "midi": 35,
      "hit": false,
      "t": 62349.26250000034,
      "d": 176.95744791666948,
      "v": 110
    },
    {
      "midi": 40,
      "hit": false,
      "t": 62349.26250000051,
      "d": 176.95744791666948,
      "v": 110
    },
    {
      "midi": 88,
      "hit": false,
      "t": 62349.26250000055,
      "d": 481.92666666667355,
      "v": 110
    },
    {
      "midi": 66,
      "hit": false,
      "t": 62349.26250000056,
      "d": 176.95744791666948,
      "v": 110
    },
    {
      "midi": 88,
      "hit": false,
      "t": 62439.62375000055,
      "d": 481.92666666667355,
      "v": 110
    },
    {
      "midi": 35,
      "hit": false,
      "t": 62529.98500000034,
      "d": 176.95744791666948,
      "v": 110
    },
    {
      "midi": 41,
      "hit": false,
      "t": 62529.98500000034,
      "d": 176.95744791666948,
      "v": 110
    },
    {
      "midi": 43,
      "hit": false,
      "t": 62529.98500000051,
      "d": 176.95744791666948,
      "v": 110
    },
    {
      "midi": 76,
      "hit": false,
      "t": 62529.98500000055,
      "d": 176.95744791666948,
      "v": 110
    },
    {
      "midi": 64,
      "hit": false,
      "t": 62529.98500000056,
      "d": 176.95744791666948,
      "v": 110
    },
    {
      "midi": 76,
      "hit": false,
      "t": 62620.346250000555,
      "d": 176.95744791666948,
      "v": 110
    },
    {
      "midi": 40,
      "hit": false,
      "t": 62710.70750000051,
      "d": 176.95744791666948,
      "v": 110
    },
    {
      "midi": 79,
      "hit": false,
      "t": 62710.70750000056,
      "d": 176.95744791666948,
      "v": 110
    },
    {
      "midi": 71,
      "hit": false,
      "t": 62710.707500000564,
      "d": 176.95744791666948,
      "v": 110
    },
    {
      "midi": 79,
      "hit": false,
      "t": 62801.06875000056,
      "d": 176.95744791666948,
      "v": 110
    },
    {
      "midi": 81,
      "hit": false,
      "t": 62891.43000000008,
      "d": 301.20416666667006,
      "v": 110
    },
    {
      "midi": 35,
      "hit": false,
      "t": 62891.43000000034,
      "d": 176.95744791666948,
      "v": 110
    },
    {
      "midi": 45,
      "hit": false,
      "t": 62891.43000000052,
      "d": 176.95744791666948,
      "v": 110
    },
    {
      "midi": 86,
      "hit": false,
      "t": 62891.43000000056,
      "d": 481.92666666667355,
      "v": 110
    },
    {
      "midi": 69,
      "hit": false,
      "t": 62891.43000000057,
      "d": 176.95744791666948,
      "v": 110
    },
    {
      "midi": 86,
      "hit": false,
      "t": 62981.79125000056,
      "d": 481.92666666667355,
      "v": 110
    },
    {
      "midi": 40,
      "hit": false,
      "t": 63072.15250000052,
      "d": 176.95744791666948,
      "v": 110
    },
    {
      "midi": 76,
      "hit": false,
      "t": 63072.152500000564,
      "d": 176.95744791666948,
      "v": 110
    },
    {
      "midi": 67,
      "hit": false,
      "t": 63072.15250000057,
      "d": 176.95744791666948,
      "v": 110
    },
    {
      "midi": 76,
      "hit": false,
      "t": 63162.513750000566,
      "d": 176.95744791666948,
      "v": 110
    },
    {
      "midi": 80,
      "hit": false,
      "t": 63252.87500000009,
      "d": 301.20416666667006,
      "v": 110
    },
    {
      "midi": 35,
      "hit": false,
      "t": 63252.87500000034,
      "d": 176.95744791666948,
      "v": 110
    },
    {
      "midi": 47,
      "hit": false,
      "t": 63252.875000000524,
      "d": 176.95744791666948,
      "v": 110
    },
    {
      "midi": 85,
      "hit": false,
      "t": 63252.87500000057,
      "d": 301.20416666667006,
      "v": 110
    },
    {
      "midi": 66,
      "hit": false,
      "t": 63252.875000000575,
      "d": 176.95744791666948,
      "v": 110
    },
    {
      "midi": 85,
      "hit": false,
      "t": 63343.23625000057,
      "d": 301.20416666667006,
      "v": 110
    },
    {
      "midi": 35,
      "hit": false,
      "t": 63433.597500000345,
      "d": 176.95744791666948,
      "v": 110
    },
    {
      "midi": 40,
      "hit": false,
      "t": 63433.59750000053,
      "d": 176.95744791666948,
      "v": 110
    },
    {
      "midi": 76,
      "hit": false,
      "t": 63433.59750000057,
      "d": 176.95744791666948,
      "v": 110
    },
    {
      "midi": 64,
      "hit": false,
      "t": 63433.59750000058,
      "d": 176.95744791666948,
      "v": 110
    },
    {
      "midi": 76,
      "hit": false,
      "t": 63523.95875000057,
      "d": 176.95744791666948,
      "v": 110
    },
    {
      "midi": 30,
      "hit": false,
      "t": 63614.32000000006,
      "d": 2801.198750000003,
      "v": 110
    },
    {
      "midi": 78,
      "hit": false,
      "t": 63614.320000000094,
      "d": 301.20416666667006,
      "v": 110
    },
    {
      "midi": 43,
      "hit": false,
      "t": 63614.32000000035,
      "d": 176.95744791666948,
      "v": 110
    },
    {
      "midi": 85,
      "hit": false,
      "t": 63614.320000000575,
      "d": 481.92666666667355,
      "v": 110
    },
    {
      "midi": 54,
      "hit": false,
      "t": 63614.32000000058,
      "d": 176.95744791666948,
      "v": 110
    },
    {
      "midi": 85,
      "hit": false,
      "t": 63704.681250000576,
      "d": 481.92666666667355,
      "v": 110
    },
    {
      "midi": 43,
      "hit": false,
      "t": 63795.04250000035,
      "d": 176.95744791666948,
      "v": 110
    },
    {
      "midi": 42,
      "hit": false,
      "t": 63795.04250000053,
      "d": 176.95744791666948,
      "v": 110
    },
    {
      "midi": 78,
      "hit": false,
      "t": 63795.04250000058,
      "d": 176.95744791666948,
      "v": 110
    },
    {
      "midi": 56,
      "hit": false,
      "t": 63795.042500000585,
      "d": 176.95744791666948,
      "v": 110
    },
    {
      "midi": 78,
      "hit": false,
      "t": 63885.40375000058,
      "d": 176.95744791666948,
      "v": 110
    },
    {
      "midi": 80,
      "hit": false,
      "t": 63975.7650000001,
      "d": 301.20416666667006,
      "v": 110
    },
    {
      "midi": 43,
      "hit": false,
      "t": 63975.765000000356,
      "d": 176.95744791666948,
      "v": 110
    },
    {
      "midi": 45,
      "hit": false,
      "t": 63975.76500000053,
      "d": 176.95744791666948,
      "v": 110
    },
    {
      "midi": 81,
      "hit": false,
      "t": 63975.76500000058,
      "d": 176.95744791666948,
      "v": 110
    },
    {
      "midi": 57,
      "hit": false,
      "t": 63975.76500000059,
      "d": 176.95744791666948,
      "v": 110
    },
    {
      "midi": 81,
      "hit": false,
      "t": 64066.12625000058,
      "d": 176.95744791666948,
      "v": 110
    },
    {
      "midi": 43,
      "hit": false,
      "t": 64156.48750000036,
      "d": 176.95744791666948,
      "v": 110
    },
    {
      "midi": 42,
      "hit": false,
      "t": 64156.487500000534,
      "d": 176.95744791666948,
      "v": 110
    },
    {
      "midi": 88,
      "hit": false,
      "t": 64156.487500000585,
      "d": 481.92666666667355,
      "v": 110
    },
    {
      "midi": 61,
      "hit": false,
      "t": 64156.48750000059,
      "d": 176.95744791666948,
      "v": 110
    },
    {
      "midi": 88,
      "hit": false,
      "t": 64246.84875000059,
      "d": 481.92666666667355,
      "v": 110
    },
    {
      "midi": 81,
      "hit": false,
      "t": 64337.21000000011,
      "d": 2078.3087499999965,
      "v": 110
    },
    {
      "midi": 47,
      "hit": false,
      "t": 64337.21000000054,
      "d": 176.95744791666948,
      "v": 110
    },
    {
      "midi": 78,
      "hit": false,
      "t": 64337.21000000059,
      "d": 176.95744791666948,
      "v": 110
    },
    {
      "midi": 66,
      "hit": false,
      "t": 64337.210000000596,
      "d": 176.95744791666948,
      "v": 110
    },
    {
      "midi": 78,
      "hit": false,
      "t": 64427.57125000059,
      "d": 176.95744791666948,
      "v": 110
    },
    {
      "midi": 44,
      "hit": false,
      "t": 64517.93250000036,
      "d": 176.95744791666948,
      "v": 110
    },
    {
      "midi": 42,
      "hit": false,
      "t": 64517.93250000054,
      "d": 176.95744791666948,
      "v": 110
    },
    {
      "midi": 81,
      "hit": false,
      "t": 64517.93250000059,
      "d": 176.95744791666948,
      "v": 110
    },
    {
      "midi": 61,
      "hit": false,
      "t": 64517.9325000006,
      "d": 176.95744791666948,
      "v": 110
    },
    {
      "midi": 81,
      "hit": false,
      "t": 64608.293750000594,
      "d": 176.95744791666948,
      "v": 110
    },
    {
      "midi": 44,
      "hit": false,
      "t": 64698.65500000036,
      "d": 176.95744791666948,
      "v": 110
    },
    {
      "midi": 49,
      "hit": false,
      "t": 64698.655000000545,
      "d": 176.95744791666948,
      "v": 110
    },
    {
      "midi": 86,
      "hit": false,
      "t": 64698.655000000595,
      "d": 301.20416666667006,
      "v": 110
    },
    {
      "midi": 68,
      "hit": false,
      "t": 64698.6550000006,
      "d": 176.95744791666948,
      "v": 110
    },
    {
      "midi": 86,
      "hit": false,
      "t": 64789.0162500006,
      "d": 301.20416666667006,
      "v": 110
    },
    {
      "midi": 44,
      "hit": false,
      "t": 64879.377500000366,
      "d": 176.95744791666948,
      "v": 110
    },
    {
      "midi": 42,
      "hit": false,
      "t": 64879.37750000055,
      "d": 176.95744791666948,
      "v": 110
    },
    {
      "midi": 78,
      "hit": false,
      "t": 64879.3775000006,
      "d": 176.95744791666948,
      "v": 110
    },
    {
      "midi": 61,
      "hit": false,
      "t": 64879.377500000606,
      "d": 176.95744791666948,
      "v": 110
    },
    {
      "midi": 78,
      "hit": false,
      "t": 64969.7387500006,
      "d": 176.95744791666948,
      "v": 110
    },
    {
      "midi": 30,
      "hit": false,
      "t": 65060.10000000055,
      "d": 1355.4187499999607,
      "v": 110
    },
    {
      "midi": 85,
      "hit": false,
      "t": 65060.1000000006,
      "d": 481.92666666668083,
      "v": 110
    },
    {
      "midi": 69,
      "hit": false,
      "t": 65060.10000000061,
      "d": 176.95744791666948,
      "v": 110
    },
    {
      "midi": 85,
      "hit": false,
      "t": 65150.461250000604,
      "d": 481.92666666668083,
      "v": 110
    },
    {
      "midi": 35,
      "hit": false,
      "t": 65240.82250000037,
      "d": 176.95744791666948,
      "v": 110
    },
    {
      "midi": 42,
      "hit": false,
      "t": 65240.822500000555,
      "d": 176.95744791666948,
      "v": 110
    },
    {
      "midi": 78,
      "hit": false,
      "t": 65240.822500000606,
      "d": 176.95744791666948,
      "v": 110
    },
    {
      "midi": 68,
      "hit": false,
      "t": 65240.82250000061,
      "d": 176.95744791666948,
      "v": 110
    },
    {
      "midi": 78,
      "hit": false,
      "t": 65331.18375000061,
      "d": 176.95744791666948,
      "v": 110
    },
    {
      "midi": 35,
      "hit": false,
      "t": 65421.54500000038,
      "d": 176.9574479166622,
      "v": 110
    },
    {
      "midi": 41,
      "hit": false,
      "t": 65421.54500000038,
      "d": 176.9574479166622,
      "v": 110
    },
    {
      "midi": 45,
      "hit": false,
      "t": 65421.54500000056,
      "d": 176.95744791666948,
      "v": 110
    },
    {
      "midi": 81,
      "hit": false,
      "t": 65421.54500000061,
      "d": 176.95744791667676,
      "v": 110
    },
    {
      "midi": 66,
      "hit": false,
      "t": 65421.54500000062,
      "d": 176.95744791666948,
      "v": 110
    },
    {
      "midi": 81,
      "hit": false,
      "t": 65511.90625000061,
      "d": 176.95744791667676,
      "v": 110
    },
    {
      "midi": 42,
      "hit": false,
      "t": 65602.26750000055,
      "d": 176.9574479166622,
      "v": 110
    },
    {
      "midi": 88,
      "hit": false,
      "t": 65602.26750000061,
      "d": 481.9266666666663,
      "v": 110
    },
    {
      "midi": 73,
      "hit": false,
      "t": 65602.26750000061,
      "d": 176.9574479166622,
      "v": 110
    },
    {
      "midi": 88,
      "hit": false,
      "t": 65692.62875000061,
      "d": 481.9266666666663,
      "v": 110
    },
    {
      "midi": 35,
      "hit": false,
      "t": 65782.99000000037,
      "d": 176.9574479166622,
      "v": 110
    },
    {
      "midi": 47,
      "hit": false,
      "t": 65782.99000000054,
      "d": 176.9574479166622,
      "v": 110
    },
    {
      "midi": 71,
      "hit": false,
      "t": 65782.9900000006,
      "d": 176.9574479166622,
      "v": 110
    },
    {
      "midi": 78,
      "hit": false,
      "t": 65782.99000000062,
      "d": 176.9574479166622,
      "v": 110
    },
    {
      "midi": 78,
      "hit": false,
      "t": 65873.35125000062,
      "d": 176.9574479166622,
      "v": 110
    },
    {
      "midi": 42,
      "hit": false,
      "t": 65963.71250000053,
      "d": 176.9574479166622,
      "v": 110
    },
    {
      "midi": 69,
      "hit": false,
      "t": 65963.71250000059,
      "d": 176.9574479166622,
      "v": 110
    },
    {
      "midi": 81,
      "hit": false,
      "t": 65963.7125000006,
      "d": 176.95744791667676,
      "v": 110
    },
    {
      "midi": 81,
      "hit": false,
      "t": 66054.0737500006,
      "d": 176.95744791667676,
      "v": 110
    },
    {
      "midi": 35,
      "hit": false,
      "t": 66144.43500000036,
      "d": 176.9574479166622,
      "v": 110
    },
    {
      "midi": 49,
      "hit": false,
      "t": 66144.43500000052,
      "d": 176.9574479166622,
      "v": 110
    },
    {
      "midi": 68,
      "hit": false,
      "t": 66144.43500000058,
      "d": 176.9574479166622,
      "v": 110
    },
    {
      "midi": 86,
      "hit": false,
      "t": 66144.43500000061,
      "d": 301.20416666667734,
      "v": 110
    },
    {
      "midi": 86,
      "hit": false,
      "t": 66234.79625000061,
      "d": 301.20416666667734,
      "v": 110
    },
    {
      "midi": 35,
      "hit": false,
      "t": 66325.15750000035,
      "d": 176.9574479166622,
      "v": 110
    },
    {
      "midi": 42,
      "hit": false,
      "t": 66325.15750000051,
      "d": 176.9574479166622,
      "v": 110
    },
    {
      "midi": 66,
      "hit": false,
      "t": 66325.15750000057,
      "d": 176.9574479166622,
      "v": 110
    },
    {
      "midi": 78,
      "hit": false,
      "t": 66325.15750000061,
      "d": 176.95744791667676,
      "v": 110
    },
    {
      "midi": 78,
      "hit": false,
      "t": 66415.51875000061,
      "d": 176.95744791667676,
      "v": 110
    },
    {
      "midi": 35,
      "hit": false,
      "t": 66505.88000000006,
      "d": 2801.198749999996,
      "v": 110
    },
    {
      "midi": 83,
      "hit": false,
      "t": 66505.8800000001,
      "d": 632.5287499999977,
      "v": 110
    },
    {
      "midi": 43,
      "hit": false,
      "t": 66505.88000000034,
      "d": 176.9574479166622,
      "v": 110
    },
    {
      "midi": 67,
      "hit": false,
      "t": 66505.88000000056,
      "d": 176.9574479166622,
      "v": 110
    },
    {
      "midi": 90,
      "hit": false,
      "t": 66505.88000000062,
      "d": 481.9266666666663,
      "v": 110
    },
    {
      "midi": 90,
      "hit": false,
      "t": 66596.24125000062,
      "d": 481.9266666666663,
      "v": 110
    },
    {
      "midi": 43,
      "hit": false,
      "t": 66686.60250000033,
      "d": 176.9574479166622,
      "v": 110
    },
    {
      "midi": 43,
      "hit": false,
      "t": 66686.6025000005,
      "d": 176.9574479166622,
      "v": 110
    },
    {
      "midi": 69,
      "hit": false,
      "t": 66686.60250000055,
      "d": 176.9574479166622,
      "v": 110
    },
    {
      "midi": 79,
      "hit": false,
      "t": 66686.60250000062,
      "d": 176.9574479166622,
      "v": 110
    },
    {
      "midi": 79,
      "hit": false,
      "t": 66776.96375000062,
      "d": 176.9574479166622,
      "v": 110
    },
    {
      "midi": 43,
      "hit": false,
      "t": 66867.32500000032,
      "d": 176.9574479166622,
      "v": 110
    },
    {
      "midi": 47,
      "hit": false,
      "t": 66867.32500000049,
      "d": 176.9574479166622,
      "v": 110
    },
    {
      "midi": 71,
      "hit": false,
      "t": 66867.32500000054,
      "d": 176.9574479166622,
      "v": 110
    },
    {
      "midi": 83,
      "hit": false,
      "t": 66867.32500000061,
      "d": 176.95744791667676,
      "v": 110
    },
    {
      "midi": 83,
      "hit": false,
      "t": 66957.68625000061,
      "d": 176.95744791667676,
      "v": 110
    },
    {
      "midi": 43,
      "hit": false,
      "t": 67048.0475000003,
      "d": 176.9574479166622,
      "v": 110
    },
    {
      "midi": 43,
      "hit": false,
      "t": 67048.04750000048,
      "d": 176.9574479166622,
      "v": 110
    },
    {
      "midi": 73,
      "hit": false,
      "t": 67048.04750000052,
      "d": 176.9574479166622,
      "v": 110
    },
    {
      "midi": 88,
      "hit": false,
      "t": 67048.04750000061,
      "d": 301.20416666667734,
      "v": 110
    },
    {
      "midi": 88,
      "hit": false,
      "t": 67138.40875000061,
      "d": 301.20416666667734,
      "v": 110
    },
    {
      "midi": 81,
      "hit": false,
      "t": 67228.7700000001,
      "d": 632.5287499999977,
      "v": 110
    },
    {
      "midi": 52,
      "hit": false,
      "t": 67228.77000000047,
      "d": 176.9574479166622,
      "v": 110
    },
    {
      "midi": 74,
      "hit": false,
      "t": 67228.77000000051,
      "d": 176.9574479166622,
      "v": 110
    },
    {
      "midi": 79,
      "hit": false,
      "t": 67228.77000000062,
      "d": 176.95744791667676,
      "v": 110
    },
    {
      "midi": 79,
      "hit": false,
      "t": 67319.13125000062,
      "d": 176.95744791667676,
      "v": 110
    },
    {
      "midi": 44,
      "hit": false,
      "t": 67409.4925000003,
      "d": 176.9574479166622,
      "v": 110
    },
    {
      "midi": 43,
      "hit": false,
      "t": 67409.49250000046,
      "d": 176.9574479166622,
      "v": 110
    },
    {
      "midi": 73,
      "hit": false,
      "t": 67409.4925000005,
      "d": 176.9574479166622,
      "v": 110
    },
    {
      "midi": 83,
      "hit": false,
      "t": 67409.49250000062,
      "d": 176.9574479166622,
      "v": 110
    },
    {
      "midi": 83,
      "hit": false,
      "t": 67499.85375000062,
      "d": 176.9574479166622,
      "v": 110
    },
    {
      "midi": 44,
      "hit": false,
      "t": 67590.21500000029,
      "d": 176.9574479166622,
      "v": 110
    },
    {
      "midi": 54,
      "hit": false,
      "t": 67590.21500000045,
      "d": 176.9574479166622,
      "v": 110
    },
    {
      "midi": 71,
      "hit": false,
      "t": 67590.21500000049,
      "d": 176.9574479166622,
      "v": 110
    },
    {
      "midi": 86,
      "hit": false,
      "t": 67590.21500000061,
      "d": 538.4024479166546,
      "v": 110
    },
    {
      "midi": 86,
      "hit": false,
      "t": 67680.57625000061,
      "d": 538.4024479166546,
      "v": 110
    },
    {
      "midi": 44,
      "hit": false,
      "t": 67770.93750000028,
      "d": 176.9574479166622,
      "v": 110
    },
    {
      "midi": 43,
      "hit": false,
      "t": 67770.93750000044,
      "d": 176.9574479166622,
      "v": 110
    },
    {
      "midi": 76,
      "hit": false,
      "t": 67770.93750000048,
      "d": 176.9574479166622,
      "v": 110
    },
    {
      "midi": 79,
      "hit": false,
      "t": 67770.93750000061,
      "d": 176.9574479166622,
      "v": 110
    },
    {
      "midi": 79,
      "hit": false,
      "t": 67861.29875000061,
      "d": 176.9574479166622,
      "v": 110
    },
    {
      "midi": 79,
      "hit": false,
      "t": 67951.6600000001,
      "d": 632.5287499999977,
      "v": 110
    },
    {
      "midi": 35,
      "hit": false,
      "t": 67951.66000000043,
      "d": 1355.4187499999389,
      "v": 110
    },
    {
      "midi": 74,
      "hit": false,
      "t": 67951.66000000047,
      "d": 176.9574479166622,
      "v": 110
    },
    {
      "midi": 83,
      "hit": false,
      "t": 67951.6600000006,
      "d": 176.9574479166622,
      "v": 110
    },
    {
      "midi": 83,
      "hit": false,
      "t": 68042.0212500006,
      "d": 176.9574479166622,
      "v": 110
    },
    {
      "midi": 35,
      "hit": false,
      "t": 68132.38250000027,
      "d": 176.9574479166622,
      "v": 110
    },
    {
      "midi": 47,
      "hit": false,
      "t": 68132.38250000043,
      "d": 176.9574479166622,
      "v": 110
    },
    {
      "midi": 73,
      "hit": false,
      "t": 68132.38250000046,
      "d": 176.9574479166622,
      "v": 110
    },
    {
      "midi": 85,
      "hit": false,
      "t": 68132.38250000059,
      "d": 301.20416666667734,
      "v": 110
    },
    {
      "midi": 85,
      "hit": false,
      "t": 68222.74375000059,
      "d": 301.20416666667734,
      "v": 110
    },
    {
      "midi": 35,
      "hit": false,
      "t": 68313.10500000026,
      "d": 176.9574479166622,
      "v": 110
    },
    {
      "midi": 41,
      "hit": false,
      "t": 68313.10500000026,
      "d": 176.9574479166622,
      "v": 110
    },
    {
      "midi": 50,
      "hit": false,
      "t": 68313.10500000042,
      "d": 176.9574479166622,
      "v": 110
    },
    {
      "midi": 71,
      "hit": false,
      "t": 68313.10500000045,
      "d": 176.9574479166622,
      "v": 110
    },
    {
      "midi": 79,
      "hit": false,
      "t": 68313.10500000059,
      "d": 176.95744791667676,
      "v": 110
    },
    {
      "midi": 79,
      "hit": false,
      "t": 68403.4662500006,
      "d": 176.95744791667676,
      "v": 110
    },
    {
      "midi": 47,
      "hit": false,
      "t": 68493.8275000004,
      "d": 176.9574479166622,
      "v": 110
    },
    {
      "midi": 69,
      "hit": false,
      "t": 68493.82750000044,
      "d": 176.9574479166622,
      "v": 110
    },
    {
      "midi": 83,
      "hit": false,
      "t": 68493.8275000006,
      "d": 176.9574479166622,
      "v": 110
    },
    {
      "midi": 83,
      "hit": false,
      "t": 68584.1887500006,
      "d": 176.9574479166622,
      "v": 110
    },
    {
      "midi": 78,
      "hit": false,
      "t": 68674.5500000001,
      "d": 632.5287499999977,
      "v": 110
    },
    {
      "midi": 35,
      "hit": false,
      "t": 68674.55000000025,
      "d": 176.9574479166622,
      "v": 110
    },
    {
      "midi": 52,
      "hit": false,
      "t": 68674.5500000004,
      "d": 176.9574479166622,
      "v": 110
    },
    {
      "midi": 67,
      "hit": false,
      "t": 68674.55000000042,
      "d": 176.9574479166622,
      "v": 110
    },
    {
      "midi": 86,
      "hit": false,
      "t": 68674.55000000058,
      "d": 301.20416666667734,
      "v": 110
    },
    {
      "midi": 86,
      "hit": false,
      "t": 68764.91125000059,
      "d": 301.20416666667734,
      "v": 110
    },
    {
      "midi": 47,
      "hit": false,
      "t": 68855.27250000038,
      "d": 176.9574479166622,
      "v": 110
    },
    {
      "midi": 66,
      "hit": false,
      "t": 68855.27250000041,
      "d": 176.9574479166622,
      "v": 110
    },
    {
      "midi": 79,
      "hit": false,
      "t": 68855.27250000059,
      "d": 176.95744791667676,
      "v": 110
    },
    {
      "midi": 79,
      "hit": false,
      "t": 68945.63375000059,
      "d": 176.95744791667676,
      "v": 110
    },
    {
      "midi": 35,
      "hit": false,
      "t": 69035.99500000024,
      "d": 176.9574479166622,
      "v": 110
    },
    {
      "midi": 54,
      "hit": false,
      "t": 69035.99500000037,
      "d": 176.9574479166622,
      "v": 110
    },
    {
      "midi": 64,
      "hit": false,
      "t": 69035.9950000004,
      "d": 176.9574479166622,
      "v": 110
    },
    {
      "midi": 83,
      "hit": false,
      "t": 69035.99500000059,
      "d": 301.20416666667734,
      "v": 110
    },
    {
      "midi": 83,
      "hit": false,
      "t": 69126.3562500006,
      "d": 301.20416666667734,
      "v": 110
    },
    {
      "midi": 35,
      "hit": false,
      "t": 69216.71750000023,
      "d": 176.9574479166622,
      "v": 110
    },
    {
      "midi": 47,
      "hit": false,
      "t": 69216.71750000036,
      "d": 176.9574479166622,
      "v": 110
    },
    {
      "midi": 71,
      "hit": false,
      "t": 69216.71750000039,
      "d": 176.9574479166622,
      "v": 110
    },
    {
      "midi": 79,
      "hit": false,
      "t": 69216.7175000006,
      "d": 176.95744791667676,
      "v": 110
    },
    {
      "midi": 79,
      "hit": false,
      "t": 69307.0787500006,
      "d": 176.95744791667676,
      "v": 110
    },
    {
      "midi": 30,
      "hit": false,
      "t": 69397.44000000006,
      "d": 2801.198750000025,
      "v": 110
    },
    {
      "midi": 80,
      "hit": false,
      "t": 69397.4400000001,
      "d": 2801.1987500001123,
      "v": 110
    },
    {
      "midi": 43,
      "hit": false,
      "t": 69397.44000000022,
      "d": 176.9574479166622,
      "v": 110
    },
    {
      "midi": 54,
      "hit": false,
      "t": 69397.44000000038,
      "d": 176.95744791667676,
      "v": 110
    },
    {
      "midi": 85,
      "hit": false,
      "t": 69397.4400000006,
      "d": 481.9266666666372,
      "v": 110
    },
    {
      "midi": 85,
      "hit": false,
      "t": 69487.8012500006,
      "d": 481.9266666666372,
      "v": 110
    },
    {
      "midi": 43,
      "hit": false,
      "t": 69578.16250000021,
      "d": 176.9574479166622,
      "v": 110
    },
    {
      "midi": 42,
      "hit": false,
      "t": 69578.16250000034,
      "d": 176.9574479166622,
      "v": 110
    },
    {
      "midi": 56,
      "hit": false,
      "t": 69578.16250000038,
      "d": 176.9574479166622,
      "v": 110
    },
    {
      "midi": 78,
      "hit": false,
      "t": 69578.16250000059,
      "d": 176.9574479166622,
      "v": 110
    },
    {
      "midi": 78,
      "hit": false,
      "t": 69668.52375000059,
      "d": 176.9574479166622,
      "v": 110
    },
    {
      "midi": 43,
      "hit": false,
      "t": 69758.8850000002,
      "d": 176.9574479166622,
      "v": 110
    },
    {
      "midi": 45,
      "hit": false,
      "t": 69758.88500000033,
      "d": 176.95744791664765,
      "v": 110
    },
    {
      "midi": 57,
      "hit": false,
      "t": 69758.88500000037,
      "d": 176.95744791667676,
      "v": 110
    },
    {
      "midi": 81,
      "hit": false,
      "t": 69758.88500000058,
      "d": 176.9574479166622,
      "v": 110
    },
    {
      "midi": 81,
      "hit": false,
      "t": 69849.24625000058,
      "d": 176.9574479166622,
      "v": 110
    },
    {
      "midi": 43,
      "hit": false,
      "t": 69939.60750000019,
      "d": 176.9574479166622,
      "v": 110
    },
    {
      "midi": 42,
      "hit": false,
      "t": 69939.6075000003,
      "d": 176.9574479166622,
      "v": 110
    },
    {
      "midi": 61,
      "hit": false,
      "t": 69939.60750000038,
      "d": 176.9574479166622,
      "v": 110
    },
    {
      "midi": 88,
      "hit": false,
      "t": 69939.60750000057,
      "d": 481.9266666666372,
      "v": 110
    },
    {
      "midi": 88,
      "hit": false,
      "t": 70029.96875000057,
      "d": 481.9266666666372,
      "v": 110
    },
    {
      "midi": 47,
      "hit": false,
      "t": 70120.3300000003,
      "d": 176.9574479166622,
      "v": 110
    },
    {
      "midi": 66,
      "hit": false,
      "t": 70120.33000000037,
      "d": 176.95744791667676,
      "v": 110
    },
    {
      "midi": 78,
      "hit": false,
      "t": 70120.33000000055,
      "d": 176.9574479166622,
      "v": 110
    },
    {
      "midi": 78,
      "hit": false,
      "t": 70210.69125000056,
      "d": 176.9574479166622,
      "v": 110
    },
    {
      "midi": 44,
      "hit": false,
      "t": 70301.05250000018,
      "d": 176.9574479166622,
      "v": 110
    },
    {
      "midi": 42,
      "hit": false,
      "t": 70301.05250000028,
      "d": 176.9574479166622,
      "v": 110
    },
    {
      "midi": 61,
      "hit": false,
      "t": 70301.05250000037,
      "d": 176.9574479166622,
      "v": 110
    },
    {
      "midi": 81,
      "hit": false,
      "t": 70301.05250000054,
      "d": 176.9574479166622,
      "v": 110
    },
    {
      "midi": 81,
      "hit": false,
      "t": 70391.41375000055,
      "d": 176.9574479166622,
      "v": 110
    },
    {
      "midi": 44,
      "hit": false,
      "t": 70481.77500000017,
      "d": 176.9574479166622,
      "v": 110
    },
    {
      "midi": 49,
      "hit": false,
      "t": 70481.77500000027,
      "d": 176.9574479166622,
      "v": 110
    },
    {
      "midi": 68,
      "hit": false,
      "t": 70481.77500000036,
      "d": 176.95744791667676,
      "v": 110
    },
    {
      "midi": 86,
      "hit": false,
      "t": 70481.77500000053,
      "d": 301.20416666664823,
      "v": 110
    },
    {
      "midi": 86,
      "hit": false,
      "t": 70572.13625000053,
      "d": 301.20416666664823,
      "v": 110
    },
    {
      "midi": 44,
      "hit": false,
      "t": 70662.49750000016,
      "d": 176.9574479166622,
      "v": 110
    },
    {
      "midi": 42,
      "hit": false,
      "t": 70662.49750000026,
      "d": 176.9574479166622,
      "v": 110
    },
    {
      "midi": 61,
      "hit": false,
      "t": 70662.49750000036,
      "d": 176.9574479166622,
      "v": 110
    },
    {
      "midi": 78,
      "hit": false,
      "t": 70662.49750000052,
      "d": 176.9574479166622,
      "v": 110
    },
    {
      "midi": 78,
      "hit": false,
      "t": 70752.85875000052,
      "d": 176.9574479166622,
      "v": 110
    },
    {
      "midi": 30,
      "hit": false,
      "t": 70843.22000000025,
      "d": 1355.4187499999389,
      "v": 110
    },
    {
      "midi": 69,
      "hit": false,
      "t": 70843.22000000035,
      "d": 176.95744791667676,
      "v": 110
    },
    {
      "midi": 85,
      "hit": false,
      "t": 70843.22000000051,
      "d": 481.9266666666663,
      "v": 110
    },
    {
      "midi": 85,
      "hit": false,
      "t": 70933.58125000051,
      "d": 481.9266666666663,
      "v": 110
    },
    {
      "midi": 35,
      "hit": false,
      "t": 71023.94250000014,
      "d": 176.95744791667676,
      "v": 110
    },
    {
      "midi": 42,
      "hit": false,
      "t": 71023.94250000025,
      "d": 176.9574479166622,
      "v": 110
    },
    {
      "midi": 68,
      "hit": false,
      "t": 71023.94250000035,
      "d": 176.9574479166622,
      "v": 110
    },
    {
      "midi": 78,
      "hit": false,
      "t": 71023.94250000051,
      "d": 176.95744791667676,
      "v": 110
    },
    {
      "midi": 78,
      "hit": false,
      "t": 71114.30375000052,
      "d": 176.95744791667676,
      "v": 110
    },
    {
      "midi": 35,
      "hit": false,
      "t": 71204.66500000014,
      "d": 176.95744791667676,
      "v": 110
    },
    {
      "midi": 41,
      "hit": false,
      "t": 71204.66500000014,
      "d": 176.95744791667676,
      "v": 110
    },
    {
      "midi": 45,
      "hit": false,
      "t": 71204.66500000024,
      "d": 176.9574479166622,
      "v": 110
    },
    {
      "midi": 66,
      "hit": false,
      "t": 71204.66500000034,
      "d": 176.95744791667676,
      "v": 110
    },
    {
      "midi": 81,
      "hit": false,
      "t": 71204.66500000052,
      "d": 176.9574479166622,
      "v": 110
    },
    {
      "midi": 81,
      "hit": false,
      "t": 71295.02625000052,
      "d": 176.9574479166622,
      "v": 110
    },
    {
      "midi": 42,
      "hit": false,
      "t": 71385.38750000023,
      "d": 176.9574479166622,
      "v": 110
    },
    {
      "midi": 73,
      "hit": false,
      "t": 71385.38750000035,
      "d": 176.9574479166622,
      "v": 110
    },
    {
      "midi": 88,
      "hit": false,
      "t": 71385.3875000005,
      "d": 481.9266666666663,
      "v": 110
    },
    {
      "midi": 88,
      "hit": false,
      "t": 71475.74875000051,
      "d": 481.9266666666663,
      "v": 110
    },
    {
      "midi": 35,
      "hit": false,
      "t": 71566.11000000015,
      "d": 176.95744791667676,
      "v": 110
    },
    {
      "midi": 47,
      "hit": false,
      "t": 71566.11000000022,
      "d": 176.9574479166622,
      "v": 110
    },
    {
      "midi": 71,
      "hit": false,
      "t": 71566.11000000034,
      "d": 176.95744791667676,
      "v": 110
    },
    {
      "midi": 78,
      "hit": false,
      "t": 71566.11000000051,
      "d": 176.95744791667676,
      "v": 110
    },
    {
      "midi": 78,
      "hit": false,
      "t": 71656.47125000051,
      "d": 176.95744791667676,
      "v": 110
    },
    {
      "midi": 42,
      "hit": false,
      "t": 71746.83250000021,
      "d": 176.9574479166622,
      "v": 110
    },
    {
      "midi": 69,
      "hit": false,
      "t": 71746.83250000034,
      "d": 176.9574479166622,
      "v": 110
    },
    {
      "midi": 81,
      "hit": false,
      "t": 71746.83250000051,
      "d": 176.9574479166622,
      "v": 110
    },
    {
      "midi": 81,
      "hit": false,
      "t": 71837.19375000052,
      "d": 176.9574479166622,
      "v": 110
    },
    {
      "midi": 35,
      "hit": false,
      "t": 71927.55500000017,
      "d": 176.95744791667676,
      "v": 110
    },
    {
      "midi": 49,
      "hit": false,
      "t": 71927.5550000002,
      "d": 176.9574479166622,
      "v": 110
    },
    {
      "midi": 68,
      "hit": false,
      "t": 71927.55500000033,
      "d": 176.95744791667676,
      "v": 110
    },
    {
      "midi": 86,
      "hit": false,
      "t": 71927.5550000005,
      "d": 301.2041666666628,
      "v": 110
    },
    {
      "midi": 86,
      "hit": false,
      "t": 72017.9162500005,
      "d": 301.2041666666628,
      "v": 110
    },
    {
      "midi": 35,
      "hit": false,
      "t": 72108.27750000017,
      "d": 176.9574479166622,
      "v": 110
    },
    {
      "midi": 42,
      "hit": false,
      "t": 72108.27750000019,
      "d": 176.9574479166622,
      "v": 110
    },
    {
      "midi": 66,
      "hit": false,
      "t": 72108.27750000033,
      "d": 176.9574479166622,
      "v": 110
    },
    {
      "midi": 78,
      "hit": false,
      "t": 72108.2775000005,
      "d": 176.9574479166622,
      "v": 110
    },
    {
      "midi": 78,
      "hit": false,
      "t": 72198.63875000051,
      "d": 176.9574479166622,
      "v": 110
    },
    {
      "midi": 28,
      "hit": false,
      "t": 72289.00000000009,
      "d": 2801.1987500000832,
      "v": 110
    },
    {
      "midi": 43,
      "hit": false,
      "t": 72289.00000000016,
      "d": 176.9574479166622,
      "v": 110
    },
    {
      "midi": 83,
      "hit": false,
      "t": 72289.00000000022,
      "d": 2078.308749999953,
      "v": 110
    },
    {
      "midi": 52,
      "hit": false,
      "t": 72289.00000000032,
      "d": 176.9574479166622,
      "v": 110
    },
    {
      "midi": 83,
      "hit": false,
      "t": 72289.0000000005,
      "d": 481.9266666666663,
      "v": 110
    },
    {
      "midi": 83,
      "hit": false,
      "t": 72379.3612500005,
      "d": 481.9266666666663,
      "v": 110
    },
    {
      "midi": 43,
      "hit": false,
      "t": 72469.72250000015,
      "d": 176.9574479166622,
      "v": 110
    },
    {
      "midi": 40,
      "hit": false,
      "t": 72469.72250000018,
      "d": 176.9574479166622,
      "v": 110
    },
    {
      "midi": 54,
      "hit": false,
      "t": 72469.72250000031,
      "d": 176.9574479166622,
      "v": 110
    },
    {
      "midi": 76,
      "hit": false,
      "t": 72469.7225000005,
      "d": 176.9574479166622,
      "v": 110
    },
    {
      "midi": 76,
      "hit": false,
      "t": 72560.0837500005,
      "d": 176.9574479166622,
      "v": 110
    },
    {
      "midi": 43,
      "hit": false,
      "t": 72650.44500000014,
      "d": 176.95744791667676,
      "v": 110
    },
    {
      "midi": 43,
      "hit": false,
      "t": 72650.44500000017,
      "d": 176.95744791667676,
      "v": 110
    },
    {
      "midi": 55,
      "hit": false,
      "t": 72650.4450000003,
      "d": 176.9574479166622,
      "v": 110
    },
    {
      "midi": 79,
      "hit": false,
      "t": 72650.44500000049,
      "d": 176.95744791667676,
      "v": 110
    },
    {
      "midi": 79,
      "hit": false,
      "t": 72740.80625000049,
      "d": 176.95744791667676,
      "v": 110
    },
    {
      "midi": 43,
      "hit": false,
      "t": 72831.16750000014,
      "d": 176.9574479166622,
      "v": 110
    },
    {
      "midi": 40,
      "hit": false,
      "t": 72831.16750000017,
      "d": 176.9574479166622,
      "v": 110
    },
    {
      "midi": 59,
      "hit": false,
      "t": 72831.16750000029,
      "d": 176.9574479166622,
      "v": 110
    },
    {
      "midi": 86,
      "hit": false,
      "t": 72831.16750000049,
      "d": 481.9266666666663,
      "v": 110
    },
    {
      "midi": 86,
      "hit": false,
      "t": 72921.52875000049,
      "d": 481.9266666666663,
      "v": 110
    },
    {
      "midi": 45,
      "hit": false,
      "t": 73011.89000000016,
      "d": 176.95744791667676,
      "v": 110
    },
    {
      "midi": 64,
      "hit": false,
      "t": 73011.89000000028,
      "d": 176.9574479166622,
      "v": 110
    },
    {
      "midi": 76,
      "hit": false,
      "t": 73011.8900000005,
      "d": 176.95744791667676,
      "v": 110
    },
    {
      "midi": 76,
      "hit": false,
      "t": 73102.2512500005,
      "d": 176.95744791667676,
      "v": 110
    },
    {
      "midi": 44,
      "hit": false,
      "t": 73192.61250000013,
      "d": 176.9574479166622,
      "v": 110
    },
    {
      "midi": 40,
      "hit": false,
      "t": 73192.61250000016,
      "d": 176.9574479166622,
      "v": 110
    },
    {
      "midi": 59,
      "hit": false,
      "t": 73192.61250000026,
      "d": 176.95744791667676,
      "v": 110
    },
    {
      "midi": 79,
      "hit": false,
      "t": 73192.6125000005,
      "d": 176.95744791664765,
      "v": 110
    },
    {
      "midi": 79,
      "hit": false,
      "t": 73282.9737500005,
      "d": 176.95744791664765,
      "v": 110
    },
    {
      "midi": 44,
      "hit": false,
      "t": 73373.33500000012,
      "d": 176.95744791667676,
      "v": 110
    },
    {
      "midi": 47,
      "hit": false,
      "t": 73373.33500000015,
      "d": 176.95744791667676,
      "v": 110
    },
    {
      "midi": 66,
      "hit": false,
      "t": 73373.33500000027,
      "d": 176.9574479166622,
      "v": 110
    },
    {
      "midi": 85,
      "hit": false,
      "t": 73373.33500000047,
      "d": 538.4024479166692,
      "v": 110
    },
    {
      "midi": 85,
      "hit": false,
      "t": 73463.69625000047,
      "d": 538.4024479166692,
      "v": 110
    },
    {
      "midi": 44,
      "hit": false,
      "t": 73554.05750000013,
      "d": 176.9574479166622,
      "v": 110
    },
    {
      "midi": 40,
      "hit": false,
      "t": 73554.05750000016,
      "d": 176.9574479166622,
      "v": 110
    },
    {
      "midi": 59,
      "hit": false,
      "t": 73554.05750000026,
      "d": 176.9574479166622,
      "v": 110
    },
    {
      "midi": 76,
      "hit": false,
      "t": 73554.05750000049,
      "d": 176.9574479166622,
      "v": 110
    },
    {
      "midi": 76,
      "hit": false,
      "t": 73644.41875000049,
      "d": 176.9574479166622,
      "v": 110
    },
    {
      "midi": 28,
      "hit": false,
      "t": 73734.78000000014,
      "d": 1355.4187499999389,
      "v": 110
    },
    {
      "midi": 67,
      "hit": false,
      "t": 73734.78000000025,
      "d": 176.9574479166622,
      "v": 110
    },
    {
      "midi": 79,
      "hit": false,
      "t": 73734.78000000048,
      "d": 176.9574479166622,
      "v": 110
    },
    {
      "midi": 79,
      "hit": false,
      "t": 73825.14125000048,
      "d": 176.9574479166622,
      "v": 110
    },
    {
      "midi": 35,
      "hit": false,
      "t": 73915.50250000012,
      "d": 176.9574479166622,
      "v": 110
    },
    {
      "midi": 40,
      "hit": false,
      "t": 73915.50250000015,
      "d": 176.9574479166622,
      "v": 110
    },
    {
      "midi": 66,
      "hit": false,
      "t": 73915.50250000024,
      "d": 176.9574479166622,
      "v": 110
    },
    {
      "midi": 88,
      "hit": false,
      "t": 73915.50250000047,
      "d": 481.9266666666663,
      "v": 110
    },
    {
      "midi": 88,
      "hit": false,
      "t": 74005.86375000047,
      "d": 481.9266666666663,
      "v": 110
    },
    {
      "midi": 35,
      "hit": false,
      "t": 74096.22500000011,
      "d": 176.9574479166622,
      "v": 110
    },
    {
      "midi": 41,
      "hit": false,
      "t": 74096.22500000011,
      "d": 176.9574479166622,
      "v": 110
    },
    {
      "midi": 43,
      "hit": false,
      "t": 74096.22500000014,
      "d": 176.9574479166622,
      "v": 110
    },
    {
      "midi": 64,
      "hit": false,
      "t": 74096.22500000022,
      "d": 176.9574479166622,
      "v": 110
    },
    {
      "midi": 76,
      "hit": false,
      "t": 74096.22500000047,
      "d": 176.9574479166622,
      "v": 110
    },
    {
      "midi": 76,
      "hit": false,
      "t": 74186.58625000047,
      "d": 176.9574479166622,
      "v": 110
    },
    {
      "midi": 40,
      "hit": false,
      "t": 74276.94750000013,
      "d": 176.9574479166622,
      "v": 110
    },
    {
      "midi": 71,
      "hit": false,
      "t": 74276.94750000021,
      "d": 176.9574479166622,
      "v": 110
    },
    {
      "midi": 79,
      "hit": false,
      "t": 74276.94750000046,
      "d": 176.95744791667676,
      "v": 110
    },
    {
      "midi": 79,
      "hit": false,
      "t": 74367.30875000046,
      "d": 176.95744791667676,
      "v": 110
    },
    {
      "midi": 35,
      "hit": false,
      "t": 74457.6700000001,
      "d": 176.9574479166622,
      "v": 110
    },
    {
      "midi": 45,
      "hit": false,
      "t": 74457.67000000011,
      "d": 176.9574479166622,
      "v": 110
    },
    {
      "midi": 81,
      "hit": false,
      "t": 74457.67000000017,
      "d": 301.2041666666628,
      "v": 110
    },
    {
      "midi": 69,
      "hit": false,
      "t": 74457.6700000002,
      "d": 176.9574479166622,
      "v": 110
    },
    {
      "midi": 86,
      "hit": false,
      "t": 74457.67000000046,
      "d": 481.9266666666663,
      "v": 110
    },
    {
      "midi": 86,
      "hit": false,
      "t": 74548.03125000047,
      "d": 481.9266666666663,
      "v": 110
    },
    {
      "midi": 40,
      "hit": false,
      "t": 74638.3925000001,
      "d": 176.9574479166622,
      "v": 110
    },
    {
      "midi": 67,
      "hit": false,
      "t": 74638.39250000019,
      "d": 176.9574479166622,
      "v": 110
    },
    {
      "midi": 76,
      "hit": false,
      "t": 74638.39250000047,
      "d": 176.9574479166622,
      "v": 110
    },
    {
      "midi": 76,
      "hit": false,
      "t": 74728.75375000047,
      "d": 176.9574479166622,
      "v": 110
    },
    {
      "midi": 35,
      "hit": false,
      "t": 74819.11500000009,
      "d": 176.9574479166622,
      "v": 110
    },
    {
      "midi": 47,
      "hit": false,
      "t": 74819.11500000009,
      "d": 176.9574479166622,
      "v": 110
    },
    {
      "midi": 80,
      "hit": false,
      "t": 74819.11500000017,
      "d": 301.2041666666628,
      "v": 110
    },
    {
      "midi": 66,
      "hit": false,
      "t": 74819.11500000018,
      "d": 176.9574479166622,
      "v": 110
    },
    {
      "midi": 85,
      "hit": false,
      "t": 74819.11500000046,
      "d": 301.20416666667734,
      "v": 110
    },
    {
      "midi": 85,
      "hit": false,
      "t": 74909.47625000046,
      "d": 301.20416666667734,
      "v": 110
    },
    {
      "midi": 35,
      "hit": false,
      "t": 74999.83750000008,
      "d": 176.9574479166622,
      "v": 110
    },
    {
      "midi": 40,
      "hit": false,
      "t": 74999.83750000008,
      "d": 176.9574479166622,
      "v": 110
    },
    {
      "midi": 64,
      "hit": false,
      "t": 74999.83750000017,
      "d": 176.9574479166622,
      "v": 110
    },
    {
      "midi": 76,
      "hit": false,
      "t": 74999.83750000046,
      "d": 176.95744791667676,
      "v": 110
    },
    {
      "midi": 76,
      "hit": false,
      "t": 75090.19875000046,
      "d": 176.95744791667676,
      "v": 110
    },
    {
      "midi": 43,
      "hit": false,
      "t": 75180.56000000007,
      "d": 176.95744791667676,
      "v": 110
    },
    {
      "midi": 54,
      "hit": false,
      "t": 75180.56000000016,
      "d": 176.95744791667676,
      "v": 110
    },
    {
      "midi": 78,
      "hit": false,
      "t": 75180.56000000016,
      "d": 301.2041666666919,
      "v": 110
    },
    {
      "midi": 30,
      "hit": false,
      "t": 75180.56000000017,
      "d": 2801.1987499999814,
      "v": 110
    },
    {
      "midi": 85,
      "hit": false,
      "t": 75180.56000000046,
      "d": 481.9266666666372,
      "v": 110
    },
    {
      "midi": 85,
      "hit": false,
      "t": 75270.92125000047,
      "d": 481.9266666666372,
      "v": 110
    },
    {
      "midi": 42,
      "hit": false,
      "t": 75361.28250000006,
      "d": 176.9574479166622,
      "v": 110
    },
    {
      "midi": 43,
      "hit": false,
      "t": 75361.28250000007,
      "d": 176.95744791667676,
      "v": 110
    },
    {
      "midi": 56,
      "hit": false,
      "t": 75361.28250000016,
      "d": 176.9574479166622,
      "v": 110
    },
    {
      "midi": 78,
      "hit": false,
      "t": 75361.28250000045,
      "d": 176.9574479166622,
      "v": 110
    },
    {
      "midi": 78,
      "hit": false,
      "t": 75451.64375000045,
      "d": 176.9574479166622,
      "v": 110
    },
    {
      "midi": 45,
      "hit": false,
      "t": 75542.00500000005,
      "d": 176.9574479166622,
      "v": 110
    },
    {
      "midi": 43,
      "hit": false,
      "t": 75542.00500000008,
      "d": 176.95744791667676,
      "v": 110
    },
    {
      "midi": 57,
      "hit": false,
      "t": 75542.00500000015,
      "d": 176.95744791667676,
      "v": 110
    },
    {
      "midi": 80,
      "hit": false,
      "t": 75542.00500000018,
      "d": 301.20416666667734,
      "v": 110
    },
    {
      "midi": 81,
      "hit": false,
      "t": 75542.00500000044,
      "d": 176.95744791664765,
      "v": 110
    },
    {
      "midi": 81,
      "hit": false,
      "t": 75632.36625000044,
      "d": 176.95744791664765,
      "v": 110
    },
    {
      "midi": 42,
      "hit": false,
      "t": 75722.72750000004,
      "d": 176.9574479166622,
      "v": 110
    },
    {
      "midi": 43,
      "hit": false,
      "t": 75722.72750000008,
      "d": 176.9574479166622,
      "v": 110
    },
    {
      "midi": 61,
      "hit": false,
      "t": 75722.72750000015,
      "d": 176.9574479166622,
      "v": 110
    },
    {
      "midi": 88,
      "hit": false,
      "t": 75722.72750000042,
      "d": 481.9266666666372,
      "v": 110
    },
    {
      "midi": 88,
      "hit": false,
      "t": 75813.08875000042,
      "d": 481.9266666666372,
      "v": 110
    },
    {
      "midi": 47,
      "hit": false,
      "t": 75903.45000000003,
      "d": 176.9574479166622,
      "v": 110
    },
    {
      "midi": 66,
      "hit": false,
      "t": 75903.45000000014,
      "d": 176.95744791667676,
      "v": 110
    },
    {
      "midi": 81,
      "hit": false,
      "t": 75903.45000000019,
      "d": 2078.3087500001275,
      "v": 110
    },
    {
      "midi": 78,
      "hit": false,
      "t": 75903.4500000004,
      "d": 176.9574479166622,
      "v": 110
    },
    {
      "midi": 78,
      "hit": false,
      "t": 75993.8112500004,
      "d": 176.9574479166622,
      "v": 110
    },
    {
      "midi": 42,
      "hit": false,
      "t": 76084.17250000002,
      "d": 176.95744791667676,
      "v": 110
    },
    {
      "midi": 44,
      "hit": false,
      "t": 76084.17250000007,
      "d": 176.95744791667676,
      "v": 110
    },
    {
      "midi": 61,
      "hit": false,
      "t": 76084.17250000015,
      "d": 176.9574479166622,
      "v": 110
    },
    {
      "midi": 81,
      "hit": false,
      "t": 76084.1725000004,
      "d": 176.9574479166622,
      "v": 110
    },
    {
      "midi": 81,
      "hit": false,
      "t": 76174.5337500004,
      "d": 176.9574479166622,
      "v": 110
    },
    {
      "midi": 49,
      "hit": false,
      "t": 76264.89500000002,
      "d": 176.9574479166622,
      "v": 110
    },
    {
      "midi": 44,
      "hit": false,
      "t": 76264.89500000008,
      "d": 176.95744791667676,
      "v": 110
    },
    {
      "midi": 68,
      "hit": false,
      "t": 76264.89500000014,
      "d": 176.95744791667676,
      "v": 110
    },
    {
      "midi": 86,
      "hit": false,
      "t": 76264.89500000038,
      "d": 301.20416666664823,
      "v": 110
    },
    {
      "midi": 86,
      "hit": false,
      "t": 76355.25625000038,
      "d": 301.20416666664823,
      "v": 110
    },
    {
      "midi": 42,
      "hit": false,
      "t": 76445.61750000001,
      "d": 176.9574479166622,
      "v": 110
    },
    {
      "midi": 44,
      "hit": false,
      "t": 76445.61750000008,
      "d": 176.9574479166622,
      "v": 110
    },
    {
      "midi": 61,
      "hit": false,
      "t": 76445.61750000014,
      "d": 176.9574479166622,
      "v": 110
    },
    {
      "midi": 78,
      "hit": false,
      "t": 76445.61750000037,
      "d": 176.9574479166622,
      "v": 110
    },
    {
      "midi": 78,
      "hit": false,
      "t": 76535.97875000037,
      "d": 176.9574479166622,
      "v": 110
    },
    {
      "midi": 30,
      "hit": false,
      "t": 76626.34,
      "d": 1355.4187499999389,
      "v": 110
    },
    {
      "midi": 69,
      "hit": false,
      "t": 76626.34000000013,
      "d": 176.9574479166622,
      "v": 110
    },
    {
      "midi": 85,
      "hit": false,
      "t": 76626.34000000036,
      "d": 481.92666666668083,
      "v": 110
    },
    {
      "midi": 85,
      "hit": false,
      "t": 76716.70125000036,
      "d": 481.92666666668083,
      "v": 110
    },
    {
      "midi": 42,
      "hit": false,
      "t": 76807.06249999999,
      "d": 176.9574479166622,
      "v": 110
    },
    {
      "midi": 35,
      "hit": false,
      "t": 76807.06250000007,
      "d": 176.95744791667676,
      "v": 110
    },
    {
      "midi": 68,
      "hit": false,
      "t": 76807.06250000012,
      "d": 176.9574479166622,
      "v": 110
    },
    {
      "midi": 78,
      "hit": false,
      "t": 76807.06250000036,
      "d": 176.95744791667676,
      "v": 110
    },
    {
      "midi": 78,
      "hit": false,
      "t": 76897.42375000037,
      "d": 176.95744791667676,
      "v": 110
    },
    {
      "midi": 45,
      "hit": false,
      "t": 76987.78499999997,
      "d": 176.9574479166622,
      "v": 110
    },
    {
      "midi": 35,
      "hit": false,
      "t": 76987.78500000008,
      "d": 176.95744791667676,
      "v": 110
    },
    {
      "midi": 41,
      "hit": false,
      "t": 76987.78500000008,
      "d": 176.95744791667676,
      "v": 110
    },
    {
      "midi": 66,
      "hit": false,
      "t": 76987.7850000001,
      "d": 176.9574479166622,
      "v": 110
    },
    {
      "midi": 81,
      "hit": false,
      "t": 76987.78500000037,
      "d": 176.95744791667676,
      "v": 110
    },
    {
      "midi": 81,
      "hit": false,
      "t": 77078.14625000037,
      "d": 176.95744791667676,
      "v": 110
    },
    {
      "midi": 42,
      "hit": false,
      "t": 77168.50749999996,
      "d": 176.9574479166622,
      "v": 110
    },
    {
      "midi": 73,
      "hit": false,
      "t": 77168.5075000001,
      "d": 176.9574479166622,
      "v": 110
    },
    {
      "midi": 88,
      "hit": false,
      "t": 77168.50750000037,
      "d": 481.9266666666663,
      "v": 110
    },
    {
      "midi": 88,
      "hit": false,
      "t": 77258.86875000037,
      "d": 481.9266666666663,
      "v": 110
    },
    {
      "midi": 47,
      "hit": false,
      "t": 77349.22999999995,
      "d": 176.9574479166622,
      "v": 110
    },
    {
      "midi": 71,
      "hit": false,
      "t": 77349.23000000008,
      "d": 176.9574479166622,
      "v": 110
    },
    {
      "midi": 35,
      "hit": false,
      "t": 77349.23000000008,
      "d": 176.95744791667676,
      "v": 110
    },
    {
      "midi": 78,
      "hit": false,
      "t": 77349.23000000037,
      "d": 176.95744791667676,
      "v": 110
    },
    {
      "midi": 78,
      "hit": false,
      "t": 77439.59125000038,
      "d": 176.95744791667676,
      "v": 110
    },
    {
      "midi": 42,
      "hit": false,
      "t": 77529.95249999994,
      "d": 176.95744791667676,
      "v": 110
    },
    {
      "midi": 69,
      "hit": false,
      "t": 77529.95250000007,
      "d": 176.9574479166622,
      "v": 110
    },
    {
      "midi": 81,
      "hit": false,
      "t": 77529.95250000038,
      "d": 176.9574479166622,
      "v": 110
    },
    {
      "midi": 81,
      "hit": false,
      "t": 77620.31375000038,
      "d": 176.9574479166622,
      "v": 110
    },
    {
      "midi": 49,
      "hit": false,
      "t": 77710.67499999994,
      "d": 176.9574479166622,
      "v": 110
    },
    {
      "midi": 68,
      "hit": false,
      "t": 77710.67500000006,
      "d": 176.9574479166622,
      "v": 110
    },
    {
      "midi": 35,
      "hit": false,
      "t": 77710.67500000009,
      "d": 176.95744791667676,
      "v": 110
    },
    {
      "midi": 86,
      "hit": false,
      "t": 77710.67500000037,
      "d": 301.2041666666628,
      "v": 110
    },
    {
      "midi": 86,
      "hit": false,
      "t": 77801.03625000037,
      "d": 301.2041666666628,
      "v": 110
    },
    {
      "midi": 42,
      "hit": false,
      "t": 77891.39749999993,
      "d": 176.9574479166622,
      "v": 110
    },
    {
      "midi": 66,
      "hit": false,
      "t": 77891.39750000005,
      "d": 176.9574479166622,
      "v": 110
    },
    {
      "midi": 35,
      "hit": false,
      "t": 77891.3975000001,
      "d": 176.9574479166622,
      "v": 110
    },
    {
      "midi": 78,
      "hit": false,
      "t": 77891.39750000037,
      "d": 176.9574479166622,
      "v": 110
    },
    {
      "midi": 78,
      "hit": false,
      "t": 77981.75875000037,
      "d": 176.9574479166622,
      "v": 110
    },
    {
      "midi": 67,
      "hit": false,
      "t": 78072.12000000004,
      "d": 176.9574479166622,
      "v": 110
    },
    {
      "midi": 43,
      "hit": false,
      "t": 78072.12000000008,
      "d": 176.9574479166622,
      "v": 110
    },
    {
      "midi": 35,
      "hit": false,
      "t": 78072.12000000016,
      "d": 2801.1987499999377,
      "v": 110
    },
    {
      "midi": 83,
      "hit": false,
      "t": 78072.12000000032,
      "d": 632.5287499999686,
      "v": 110
    },
    {
      "midi": 90,
      "hit": false,
      "t": 78072.12000000036,
      "d": 481.92666666668083,
      "v": 110
    },
    {
      "midi": 90,
      "hit": false,
      "t": 78162.48125000036,
      "d": 481.92666666668083,
      "v": 110
    },
    {
      "midi": 43,
      "hit": false,
      "t": 78252.84249999993,
      "d": 176.9574479166622,
      "v": 110
    },
    {
      "midi": 69,
      "hit": false,
      "t": 78252.84250000003,
      "d": 176.9574479166622,
      "v": 110
    },
    {
      "midi": 43,
      "hit": false,
      "t": 78252.84250000007,
      "d": 176.9574479166622,
      "v": 110
    },
    {
      "midi": 79,
      "hit": false,
      "t": 78252.84250000038,
      "d": 176.9574479166622,
      "v": 110
    },
    {
      "midi": 79,
      "hit": false,
      "t": 78343.20375000038,
      "d": 176.9574479166622,
      "v": 110
    },
    {
      "midi": 47,
      "hit": false,
      "t": 78433.56499999992,
      "d": 176.9574479166622,
      "v": 110
    },
    {
      "midi": 71,
      "hit": false,
      "t": 78433.56500000002,
      "d": 176.9574479166622,
      "v": 110
    },
    {
      "midi": 43,
      "hit": false,
      "t": 78433.56500000006,
      "d": 176.9574479166622,
      "v": 110
    },
    {
      "midi": 83,
      "hit": false,
      "t": 78433.56500000037,
      "d": 176.95744791667676,
      "v": 110
    },
    {
      "midi": 83,
      "hit": false,
      "t": 78523.92625000037,
      "d": 176.95744791667676,
      "v": 110
    },
    {
      "midi": 43,
      "hit": false,
      "t": 78614.2874999999,
      "d": 176.9574479166622,
      "v": 110
    },
    {
      "midi": 73,
      "hit": false,
      "t": 78614.2875,
      "d": 176.9574479166622,
      "v": 110
    },
    {
      "midi": 43,
      "hit": false,
      "t": 78614.28750000005,
      "d": 176.9574479166622,
      "v": 110
    },
    {
      "midi": 88,
      "hit": false,
      "t": 78614.28750000037,
      "d": 301.20416666667734,
      "v": 110
    },
    {
      "midi": 88,
      "hit": false,
      "t": 78704.64875000037,
      "d": 301.20416666667734,
      "v": 110
    },
    {
      "midi": 52,
      "hit": false,
      "t": 78795.0099999999,
      "d": 176.9574479166622,
      "v": 110
    },
    {
      "midi": 74,
      "hit": false,
      "t": 78795.01,
      "d": 176.9574479166622,
      "v": 110
    },
    {
      "midi": 81,
      "hit": false,
      "t": 78795.01000000029,
      "d": 632.5287499999831,
      "v": 110
    },
    {
      "midi": 79,
      "hit": false,
      "t": 78795.01000000037,
      "d": 176.95744791667676,
      "v": 110
    },
    {
      "midi": 79,
      "hit": false,
      "t": 78885.37125000037,
      "d": 176.95744791667676,
      "v": 110
    },
    {
      "midi": 43,
      "hit": false,
      "t": 78975.73249999988,
      "d": 176.9574479166622,
      "v": 110
    },
    {
      "midi": 73,
      "hit": false,
      "t": 78975.73249999998,
      "d": 176.9574479166622,
      "v": 110
    },
    {
      "midi": 44,
      "hit": false,
      "t": 78975.73250000004,
      "d": 176.95744791667676,
      "v": 110
    },
    {
      "midi": 83,
      "hit": false,
      "t": 78975.73250000038,
      "d": 176.9574479166622,
      "v": 110
    },
    {
      "midi": 83,
      "hit": false,
      "t": 79066.09375000038,
      "d": 176.9574479166622,
      "v": 110
    },
    {
      "midi": 54,
      "hit": false,
      "t": 79156.45499999987,
      "d": 176.9574479166622,
      "v": 110
    },
    {
      "midi": 71,
      "hit": false,
      "t": 79156.45499999997,
      "d": 176.9574479166622,
      "v": 110
    },
    {
      "midi": 44,
      "hit": false,
      "t": 79156.45500000005,
      "d": 176.9574479166622,
      "v": 110
    },
    {
      "midi": 86,
      "hit": false,
      "t": 79156.45500000037,
      "d": 538.4024479166692,
      "v": 110
    },
    {
      "midi": 86,
      "hit": false,
      "t": 79246.81625000037,
      "d": 538.4024479166692,
      "v": 110
    },
    {
      "midi": 43,
      "hit": false,
      "t": 79337.17749999986,
      "d": 176.9574479166622,
      "v": 110
    },
    {
      "midi": 76,
      "hit": false,
      "t": 79337.17749999996,
      "d": 176.9574479166622,
      "v": 110
    },
    {
      "midi": 44,
      "hit": false,
      "t": 79337.17750000003,
      "d": 176.9574479166622,
      "v": 110
    },
    {
      "midi": 79,
      "hit": false,
      "t": 79337.17750000038,
      "d": 176.9574479166622,
      "v": 110
    },
    {
      "midi": 79,
      "hit": false,
      "t": 79427.53875000039,
      "d": 176.9574479166622,
      "v": 110
    },
    {
      "midi": 35,
      "hit": false,
      "t": 79517.89999999985,
      "d": 1355.4187499999389,
      "v": 110
    },
    {
      "midi": 74,
      "hit": false,
      "t": 79517.89999999995,
      "d": 176.9574479166622,
      "v": 110
    },
    {
      "midi": 79,
      "hit": false,
      "t": 79517.90000000027,
      "d": 632.5287499999977,
      "v": 110
    },
    {
      "midi": 83,
      "hit": false,
      "t": 79517.90000000037,
      "d": 176.9574479166622,
      "v": 110
    },
    {
      "midi": 83,
      "hit": false,
      "t": 79608.26125000037,
      "d": 176.9574479166622,
      "v": 110
    },
    {
      "midi": 47,
      "hit": false,
      "t": 79698.62249999985,
      "d": 176.9574479166622,
      "v": 110
    },
    {
      "midi": 73,
      "hit": false,
      "t": 79698.62249999994,
      "d": 176.9574479166622,
      "v": 110
    },
    {
      "midi": 35,
      "hit": false,
      "t": 79698.62250000003,
      "d": 176.9574479166622,
      "v": 110
    },
    {
      "midi": 85,
      "hit": false,
      "t": 79698.62250000036,
      "d": 301.20416666667734,
      "v": 110
    },
    {
      "midi": 85,
      "hit": false,
      "t": 79788.98375000036,
      "d": 301.20416666667734,
      "v": 110
    },
    {
      "midi": 50,
      "hit": false,
      "t": 79879.34499999984,
      "d": 176.9574479166622,
      "v": 110
    },
    {
      "midi": 71,
      "hit": false,
      "t": 79879.34499999993,
      "d": 176.9574479166622,
      "v": 110
    },
    {
      "midi": 35,
      "hit": false,
      "t": 79879.34500000002,
      "d": 176.9574479166622,
      "v": 110
    },
    {
      "midi": 41,
      "hit": false,
      "t": 79879.34500000002,
      "d": 176.9574479166622,
      "v": 110
    },
    {
      "midi": 79,
      "hit": false,
      "t": 79879.34500000036,
      "d": 176.95744791667676,
      "v": 110
    },
    {
      "midi": 79,
      "hit": false,
      "t": 79969.70625000037,
      "d": 176.95744791667676,
      "v": 110
    },
    {
      "midi": 47,
      "hit": false,
      "t": 80060.06749999983,
      "d": 176.9574479166622,
      "v": 110
    },
    {
      "midi": 69,
      "hit": false,
      "t": 80060.06749999992,
      "d": 176.9574479166622,
      "v": 110
    },
    {
      "midi": 83,
      "hit": false,
      "t": 80060.06750000037,
      "d": 176.9574479166622,
      "v": 110
    },
    {
      "midi": 83,
      "hit": false,
      "t": 80150.42875000037,
      "d": 176.9574479166622,
      "v": 110
    },
    {
      "midi": 52,
      "hit": false,
      "t": 80240.78999999982,
      "d": 176.9574479166622,
      "v": 110
    },
    {
      "midi": 67,
      "hit": false,
      "t": 80240.7899999999,
      "d": 176.9574479166622,
      "v": 110
    },
    {
      "midi": 35,
      "hit": false,
      "t": 80240.79000000001,
      "d": 176.9574479166622,
      "v": 110
    },
    {
      "midi": 78,
      "hit": false,
      "t": 80240.79000000027,
      "d": 632.5287499999977,
      "v": 110
    },
    {
      "midi": 86,
      "hit": false,
      "t": 80240.79000000036,
      "d": 301.20416666667734,
      "v": 110
    },
    {
      "midi": 86,
      "hit": false,
      "t": 80331.15125000036,
      "d": 301.20416666667734,
      "v": 110
    },
    {
      "midi": 47,
      "hit": false,
      "t": 80421.51249999981,
      "d": 176.9574479166622,
      "v": 110
    },
    {
      "midi": 66,
      "hit": false,
      "t": 80421.5124999999,
      "d": 176.9574479166622,
      "v": 110
    },
    {
      "midi": 79,
      "hit": false,
      "t": 80421.51250000036,
      "d": 176.95744791667676,
      "v": 110
    },
    {
      "midi": 79,
      "hit": false,
      "t": 80511.87375000036,
      "d": 176.95744791667676,
      "v": 110
    },
    {
      "midi": 54,
      "hit": false,
      "t": 80602.2349999998,
      "d": 176.9574479166622,
      "v": 110
    },
    {
      "midi": 64,
      "hit": false,
      "t": 80602.23499999988,
      "d": 176.9574479166622,
      "v": 110
    },
    {
      "midi": 35,
      "hit": false,
      "t": 80602.235,
      "d": 176.9574479166622,
      "v": 110
    },
    {
      "midi": 83,
      "hit": false,
      "t": 80602.23500000036,
      "d": 301.20416666667734,
      "v": 110
    },
    {
      "midi": 83,
      "hit": false,
      "t": 80692.59625000037,
      "d": 301.20416666667734,
      "v": 110
    },
    {
      "midi": 47,
      "hit": false,
      "t": 80782.95749999979,
      "d": 176.9574479166622,
      "v": 110
    },
    {
      "midi": 71,
      "hit": false,
      "t": 80782.95749999987,
      "d": 176.9574479166622,
      "v": 110
    },
    {
      "midi": 35,
      "hit": false,
      "t": 80782.95749999999,
      "d": 176.9574479166622,
      "v": 110
    },
    {
      "midi": 79,
      "hit": false,
      "t": 80782.95750000037,
      "d": 176.95744791667676,
      "v": 110
    },
    {
      "midi": 79,
      "hit": false,
      "t": 80873.31875000037,
      "d": 176.95744791667676,
      "v": 110
    }
  ]
}