{
  "jsonPath": "Classical/Ballroom/Roger Williams/clair-de-lune.json",
  "path": "Classical\\Ballroom\\Roger Williams\\Clair De Lune.mid",
  "name": "Clair De Lune",
  "difficulty": "Advanced",
  "bpm": 120,
  "notes": [
    {
      "midi": 68,
      "hit": false,
      "t": 109.375,
      "d": 4119.791666666667,
      "v": 50
    },
    {
      "midi": 65,
      "hit": false,
      "t": 130.20833333333334,
      "d": 4125.000000000001,
      "v": 46
    },
    {
      "midi": 80,
      "hit": false,
      "t": 1234.375,
      "d": 1588.541666666667,
      "v": 43
    },
    {
      "midi": 77,
      "hit": false,
      "t": 1265.625,
      "d": 723.9583333333335,
      "v": 34
    },
    {
      "midi": 77,
      "hit": false,
      "t": 2822.916666666667,
      "d": 1770.833333333333,
      "v": 43
    },
    {
      "midi": 73,
      "hit": false,
      "t": 2828.1250000000005,
      "d": 1734.3749999999995,
      "v": 27
    },
    {
      "midi": 66,
      "hit": false,
      "t": 4197.916666666667,
      "d": 2463.541666666667,
      "v": 46
    },
    {
      "midi": 69,
      "hit": false,
      "t": 4223.958333333334,
      "d": 2708.333333333333,
      "v": 26
    },
    {
      "midi": 75,
      "hit": false,
      "t": 4562.5,
      "d": 359.375,
      "v": 61
    },
    {
      "midi": 72,
      "hit": false,
      "t": 4562.5,
      "d": 364.58333333333303,
      "v": 53
    },
    {
      "midi": 77,
      "hit": false,
      "t": 4916.666666666667,
      "d": 473.95833333333303,
      "v": 52
    },
    {
      "midi": 73,
      "hit": false,
      "t": 4921.875,
      "d": 442.70833333333303,
      "v": 46
    },
    {
      "midi": 75,
      "hit": false,
      "t": 5348.958333333333,
      "d": 2260.416666666667,
      "v": 48
    },
    {
      "midi": 72,
      "hit": false,
      "t": 5354.166666666666,
      "d": 2270.833333333334,
      "v": 40
    },
    {
      "midi": 68,
      "hit": false,
      "t": 7229.166666666667,
      "d": 2890.624999999999,
      "v": 31
    },
    {
      "midi": 65,
      "hit": false,
      "t": 7296.875,
      "d": 2859.375,
      "v": 22
    },
    {
      "midi": 73,
      "hit": false,
      "t": 7588.541666666667,
      "d": 343.7499999999991,
      "v": 59
    },
    {
      "midi": 70,
      "hit": false,
      "t": 7609.375,
      "d": 296.875,
      "v": 51
    },
    {
      "midi": 72,
      "hit": false,
      "t": 7906.25,
      "d": 468.7500000000018,
      "v": 54
    },
    {
      "midi": 75,
      "hit": false,
      "t": 7911.458333333333,
      "d": 437.5000000000009,
      "v": 58
    },
    {
      "midi": 73,
      "hit": false,
      "t": 8322.916666666666,
      "d": 1067.708333333334,
      "v": 54
    },
    {
      "midi": 70,
      "hit": false,
      "t": 8343.75,
      "d": 2494.791666666666,
      "v": 54
    },
    {
      "midi": 77,
      "hit": false,
      "t": 9026.041666666668,
      "d": 1234.3749999999982,
      "v": 43
    },
    {
      "midi": 73,
      "hit": false,
      "t": 10166.666666666666,
      "d": 1067.708333333334,
      "v": 48
    },
    {
      "midi": 66,
      "hit": false,
      "t": 10916.666666666666,
      "d": 2130.208333333334,
      "v": 37
    },
    {
      "midi": 63,
      "hit": false,
      "t": 11031.25,
      "d": 2046.875,
      "v": 29
    },
    {
      "midi": 72,
      "hit": false,
      "t": 11296.875,
      "d": 328.125,
      "v": 39
    },
    {
      "midi": 68,
      "hit": false,
      "t": 11312.5,
      "d": 333.33333333333394,
      "v": 35
    },
    {
      "midi": 73,
      "hit": false,
      "t": 11593.75,
      "d": 437.5,
      "v": 54
    },
    {
      "midi": 70,
      "hit": false,
      "t": 11703.125,
      "d": 322.91666666666606,
      "v": 15
    },
    {
      "midi": 68,
      "hit": false,
      "t": 12052.083333333334,
      "d": 1031.25,
      "v": 35
    },
    {
      "midi": 72,
      "hit": false,
      "t": 12062.5,
      "d": 1515.625,
      "v": 40
    },
    {
      "midi": 66,
      "hit": false,
      "t": 14197.916666666666,
      "d": 1463.541666666666,
      "v": 37
    },
    {
      "midi": 63,
      "hit": false,
      "t": 14270.833333333332,
      "d": 1484.375,
      "v": 21
    },
    {
      "midi": 61,
      "hit": false,
      "t": 14374.999999999998,
      "d": 1557.291666666666,
      "v": 15
    },
    {
      "midi": 70,
      "hit": false,
      "t": 14661.458333333332,
      "d": 343.75,
      "v": 64
    },
    {
      "midi": 72,
      "hit": false,
      "t": 15010.416666666666,
      "d": 307.29166666666606,
      "v": 61
    },
    {
      "midi": 70,
      "hit": false,
      "t": 15291.666666666666,
      "d": 302.0833333333321,
      "v": 72
    },
    {
      "midi": 75,
      "hit": false,
      "t": 15583.333333333332,
      "d": 291.66666666666606,
      "v": 72
    },
    {
      "midi": 70,
      "hit": false,
      "t": 15848.958333333332,
      "d": 302.0833333333321,
      "v": 72
    },
    {
      "midi": 68,
      "hit": false,
      "t": 16156.249999999998,
      "d": 333.33333333333394,
      "v": 56
    },
    {
      "midi": 66,
      "hit": false,
      "t": 16156.249999999998,
      "d": 375.0000000000018,
      "v": 49
    },
    {
      "midi": 63,
      "hit": false,
      "t": 16171.874999999998,
      "d": 442.70833333333394,
      "v": 34
    },
    {
      "midi": 60,
      "hit": false,
      "t": 16312.499999999998,
      "d": 364.58333333333394,
      "v": 34
    },
    {
      "midi": 70,
      "hit": false,
      "t": 16468.75,
      "d": 312.49999999999636,
      "v": 64
    },
    {
      "midi": 68,
      "hit": false,
      "t": 16776.041666666664,
      "d": 442.7083333333321,
      "v": 64
    },
    {
      "midi": 63,
      "hit": false,
      "t": 17145.83333333333,
      "d": 1671.8750000000036,
      "v": 53
    },
    {
      "midi": 61,
      "hit": false,
      "t": 17161.45833333333,
      "d": 1671.8750000000036,
      "v": 39
    },
    {
      "midi": 58,
      "hit": false,
      "t": 17218.749999999996,
      "d": 1609.3750000000036,
      "v": 34
    },
    {
      "midi": 66,
      "hit": false,
      "t": 17494.791666666664,
      "d": 307.2916666666679,
      "v": 58
    },
    {
      "midi": 68,
      "hit": false,
      "t": 17807.291666666664,
      "d": 406.25,
      "v": 64
    },
    {
      "midi": 66,
      "hit": false,
      "t": 18182.291666666664,
      "d": 1276.0416666666679,
      "v": 59
    },
    {
      "midi": 63,
      "hit": false,
      "t": 19479.166666666664,
      "d": 713.5416666666642,
      "v": 21
    },
    {
      "midi": 60,
      "hit": false,
      "t": 19510.416666666664,
      "d": 651.0416666666642,
      "v": 28
    },
    {
      "midi": 65,
      "hit": false,
      "t": 19515.624999999996,
      "d": 1515.625,
      "v": 23
    },
    {
      "midi": 57,
      "hit": false,
      "t": 19541.666666666664,
      "d": 682.2916666666642,
      "v": 39
    },
    {
      "midi": 61,
      "hit": false,
      "t": 20979.16666666666,
      "d": 921.8749999999964,
      "v": 39
    },
    {
      "midi": 58,
      "hit": false,
      "t": 21005.20833333333,
      "d": 2614.583333333332,
      "v": 28
    },
    {
      "midi": 56,
      "hit": false,
      "t": 21036.45833333333,
      "d": 2000,
      "v": 45
    },
    {
      "midi": 65,
      "hit": false,
      "t": 21463.54166666666,
      "d": 328.12499999999636,
      "v": 31
    },
    {
      "midi": 66,
      "hit": false,
      "t": 21770.833333333325,
      "d": 296.875,
      "v": 59
    },
    {
      "midi": 65,
      "hit": false,
      "t": 22109.374999999993,
      "d": 291.6666666666679,
      "v": 38
    },
    {
      "midi": 61,
      "hit": false,
      "t": 22255.20833333333,
      "d": 1114.5833333333321,
      "v": 15
    },
    {
      "midi": 70,
      "hit": false,
      "t": 22385.41666666666,
      "d": 291.6666666666679,
      "v": 64
    },
    {
      "midi": 65,
      "hit": false,
      "t": 22708.33333333333,
      "d": 286.4583333333321,
      "v": 43
    },
    {
      "midi": 63,
      "hit": false,
      "t": 23005.20833333333,
      "d": 328.125,
      "v": 69
    },
    {
      "midi": 54,
      "hit": false,
      "t": 23036.45833333333,
      "d": 588.5416666666642,
      "v": 31
    },
    {
      "midi": 65,
      "hit": false,
      "t": 23333.33333333333,
      "d": 322.91666666666424,
      "v": 61
    },
    {
      "midi": 63,
      "hit": false,
      "t": 23635.41666666666,
      "d": 572.9166666666642,
      "v": 68
    },
    {
      "midi": 58,
      "hit": false,
      "t": 23999.999999999993,
      "d": 1723.9583333333321,
      "v": 53
    },
    {
      "midi": 56,
      "hit": false,
      "t": 23999.999999999993,
      "d": 1812.5,
      "v": 41
    },
    {
      "midi": 53,
      "hit": false,
      "t": 24067.708333333325,
      "d": 1770.8333333333358,
      "v": 51
    },
    {
      "midi": 61,
      "hit": false,
      "t": 24395.833333333325,
      "d": 385.4166666666679,
      "v": 64
    },
    {
      "midi": 63,
      "hit": false,
      "t": 24770.833333333325,
      "d": 453.125,
      "v": 54
    },
    {
      "midi": 61,
      "hit": false,
      "t": 25203.124999999993,
      "d": 1682.2916666666679,
      "v": 64
    },
    {
      "midi": 56,
      "hit": false,
      "t": 27041.66666666666,
      "d": 83.33333333333212,
      "v": 36
    },
    {
      "midi": 54,
      "hit": false,
      "t": 27057.29166666666,
      "d": 328.125,
      "v": 27
    },
    {
      "midi": 51,
      "hit": false,
      "t": 27078.124999999993,
      "d": 322.9166666666679,
      "v": 38
    },
    {
      "midi": 60,
      "hit": false,
      "t": 27083.333333333325,
      "d": 734.3750000000036,
      "v": 42
    },
    {
      "midi": 44,
      "hit": false,
      "t": 27786.45833333333,
      "d": 916.6666666666642,
      "v": 51
    },
    {
      "midi": 37,
      "hit": false,
      "t": 28411.45833333333,
      "d": 239.58333333333212,
      "v": 59
    },
    {
      "midi": 56,
      "hit": false,
      "t": 28828.124999999993,
      "d": 156.24999999999636,
      "v": 58
    },
    {
      "midi": 53,
      "hit": false,
      "t": 28927.083333333325,
      "d": 20.83333333333212,
      "v": 15
    },
    {
      "midi": 68,
      "hit": false,
      "t": 29281.24999999999,
      "d": 1541.6666666666642,
      "v": 51
    },
    {
      "midi": 65,
      "hit": false,
      "t": 29333.33333333332,
      "d": 1572.9166666666642,
      "v": 27
    },
    {
      "midi": 80,
      "hit": false,
      "t": 29854.166666666653,
      "d": 1182.2916666666642,
      "v": 80
    },
    {
      "midi": 77,
      "hit": false,
      "t": 29916.666666666653,
      "d": 578.125,
      "v": 46
    },
    {
      "midi": 77,
      "hit": false,
      "t": 31057.29166666665,
      "d": 1427.0833333333358,
      "v": 55
    },
    {
      "midi": 73,
      "hit": false,
      "t": 31083.333333333318,
      "d": 666.6666666666679,
      "v": 33
    },
    {
      "midi": 49,
      "hit": false,
      "t": 32140.624999999985,
      "d": 302.0833333333321,
      "v": 51
    },
    {
      "midi": 42,
      "hit": false,
      "t": 32187.499999999985,
      "d": 223.95833333333212,
      "v": 51
    },
    {
      "midi": 49,
      "hit": false,
      "t": 32869.79166666665,
      "d": 1651.0416666666642,
      "v": 23
    },
    {
      "midi": 66,
      "hit": false,
      "t": 32869.79166666665,
      "d": 1723.9583333333285,
      "v": 36
    },
    {
      "midi": 75,
      "hit": false,
      "t": 32874.999999999985,
      "d": 411.45833333333576,
      "v": 44
    },
    {
      "midi": 61,
      "hit": false,
      "t": 32921.874999999985,
      "d": 1578.1249999999927,
      "v": 15
    },
    {
      "midi": 70,
      "hit": false,
      "t": 32942.70833333332,
      "d": 354.16666666666424,
      "v": 23
    },
    {
      "midi": 54,
      "hit": false,
      "t": 32989.58333333332,
      "d": 1578.1249999999927,
      "v": 23
    },
    {
      "midi": 58,
      "hit": false,
      "t": 32994.79166666666,
      "d": 1520.8333333333212,
      "v": 27
    },
    {
      "midi": 77,
      "hit": false,
      "t": 33276.04166666666,
      "d": 531.2499999999927,
      "v": 47
    },
    {
      "midi": 70,
      "hit": false,
      "t": 33526.04166666665,
      "d": 697.9166666666642,
      "v": 15
    },
    {
      "midi": 75,
      "hit": false,
      "t": 33770.833333333314,
      "d": 1104.1666666666642,
      "v": 43
    },
    {
      "midi": 49,
      "hit": false,
      "t": 35234.37499999998,
      "d": 187.5,
      "v": 51
    },
    {
      "midi": 41,
      "hit": false,
      "t": 35276.04166666664,
      "d": 109.375,
      "v": 47
    },
    {
      "midi": 73,
      "hit": false,
      "t": 35682.29166666664,
      "d": 166.66666666667152,
      "v": 62
    },
    {
      "midi": 61,
      "hit": false,
      "t": 35687.49999999998,
      "d": 83.33333333333576,
      "v": 61
    },
    {
      "midi": 56,
      "hit": false,
      "t": 35718.74999999998,
      "d": 276.0416666666715,
      "v": 59
    },
    {
      "midi": 53,
      "hit": false,
      "t": 35802.083333333314,
      "d": 1973.9583333333358,
      "v": 19
    },
    {
      "midi": 75,
      "hit": false,
      "t": 36005.208333333314,
      "d": 104.16666666666424,
      "v": 80
    },
    {
      "midi": 63,
      "hit": false,
      "t": 36015.62499999998,
      "d": 62.5,
      "v": 78
    },
    {
      "midi": 68,
      "hit": false,
      "t": 36515.62499999998,
      "d": 557.2916666666715,
      "v": 42
    },
    {
      "midi": 73,
      "hit": false,
      "t": 36536.458333333314,
      "d": 494.7916666666715,
      "v": 32
    },
    {
      "midi": 61,
      "hit": false,
      "t": 36552.083333333314,
      "d": 583.3333333333358,
      "v": 36
    },
    {
      "midi": 65,
      "hit": false,
      "t": 36588.54166666665,
      "d": 531.25,
      "v": 15
    },
    {
      "midi": 75,
      "hit": false,
      "t": 37437.499999999985,
      "d": 187.5,
      "v": 16
    },
    {
      "midi": 77,
      "hit": false,
      "t": 37687.499999999985,
      "d": 1385.4166666666642,
      "v": 49
    },
    {
      "midi": 61,
      "hit": false,
      "t": 37692.70833333332,
      "d": 265.6249999999927,
      "v": 49
    },
    {
      "midi": 65,
      "hit": false,
      "t": 37703.124999999985,
      "d": 500,
      "v": 30
    },
    {
      "midi": 73,
      "hit": false,
      "t": 37703.124999999985,
      "d": 562.5,
      "v": 44
    },
    {
      "midi": 56,
      "hit": false,
      "t": 37718.749999999985,
      "d": 291.66666666666424,
      "v": 40
    },
    {
      "midi": 49,
      "hit": false,
      "t": 38729.16666666665,
      "d": 260.41666666666424,
      "v": 47
    },
    {
      "midi": 42,
      "hit": false,
      "t": 38760.41666666665,
      "d": 203.125,
      "v": 46
    },
    {
      "midi": 75,
      "hit": false,
      "t": 39359.374999999985,
      "d": 416.66666666665697,
      "v": 58
    },
    {
      "midi": 66,
      "hit": false,
      "t": 39385.41666666665,
      "d": 2104.166666666657,
      "v": 44
    },
    {
      "midi": 70,
      "hit": false,
      "t": 39395.833333333314,
      "d": 395.8333333333285,
      "v": 49
    },
    {
      "midi": 58,
      "hit": false,
      "t": 39432.29166666665,
      "d": 2104.166666666657,
      "v": 25
    },
    {
      "midi": 49,
      "hit": false,
      "t": 39432.29166666665,
      "d": 2239.583333333321,
      "v": 15
    },
    {
      "midi": 61,
      "hit": false,
      "t": 39442.708333333314,
      "d": 1067.7083333333285,
      "v": 18
    },
    {
      "midi": 54,
      "hit": false,
      "t": 39499.99999999998,
      "d": 2114.5833333333285,
      "v": 29
    },
    {
      "midi": 77,
      "hit": false,
      "t": 39765.62499999998,
      "d": 500,
      "v": 58
    },
    {
      "midi": 70,
      "hit": false,
      "t": 40041.66666666664,
      "d": 1484.375,
      "v": 23
    },
    {
      "midi": 75,
      "hit": false,
      "t": 40187.49999999998,
      "d": 1317.7083333333285,
      "v": 64
    },
    {
      "midi": 73,
      "hit": false,
      "t": 41447.91666666664,
      "d": 479.16666666666424,
      "v": 47
    },
    {
      "midi": 44,
      "hit": false,
      "t": 42302.08333333331,
      "d": 270.83333333333576,
      "v": 59
    },
    {
      "midi": 73,
      "hit": false,
      "t": 42848.95833333331,
      "d": 260.4166666666715,
      "v": 80
    },
    {
      "midi": 61,
      "hit": false,
      "t": 42869.79166666664,
      "d": 223.95833333333576,
      "v": 64
    },
    {
      "midi": 68,
      "hit": false,
      "t": 42890.62499999998,
      "d": 317.70833333333576,
      "v": 54
    },
    {
      "midi": 53,
      "hit": false,
      "t": 42921.87499999998,
      "d": 2531.2499999999927,
      "v": 42
    },
    {
      "midi": 59,
      "hit": false,
      "t": 42927.083333333314,
      "d": 281.25,
      "v": 49
    },
    {
      "midi": 75,
      "hit": false,
      "t": 43291.66666666665,
      "d": 171.875,
      "v": 88
    },
    {
      "midi": 63,
      "hit": false,
      "t": 43296.874999999985,
      "d": 93.75,
      "v": 88
    },
    {
      "midi": 82,
      "hit": false,
      "t": 43989.583333333314,
      "d": 546.8749999999927,
      "v": 79
    },
    {
      "midi": 70,
      "hit": false,
      "t": 43999.99999999998,
      "d": 541.6666666666642,
      "v": 69
    },
    {
      "midi": 61,
      "hit": false,
      "t": 44026.04166666664,
      "d": 1432.2916666666642,
      "v": 50
    },
    {
      "midi": 77,
      "hit": false,
      "t": 44036.45833333331,
      "d": 864.5833333333358,
      "v": 61
    },
    {
      "midi": 59,
      "hit": false,
      "t": 44062.49999999997,
      "d": 1437.5,
      "v": 44
    },
    {
      "midi": 65,
      "hit": false,
      "t": 44072.916666666635,
      "d": 1000.0000000000073,
      "v": 35
    },
    {
      "midi": 80,
      "hit": false,
      "t": 44843.74999999998,
      "d": 385.41666666666424,
      "v": 69
    },
    {
      "midi": 68,
      "hit": false,
      "t": 44859.37499999998,
      "d": 505.2083333333285,
      "v": 53
    },
    {
      "midi": 77,
      "hit": false,
      "t": 45796.87499999997,
      "d": 1015.6250000000073,
      "v": 63
    },
    {
      "midi": 65,
      "hit": false,
      "t": 45817.70833333331,
      "d": 598.9583333333358,
      "v": 46
    },
    {
      "midi": 46,
      "hit": false,
      "t": 46385.41666666664,
      "d": 302.08333333333576,
      "v": 59
    },
    {
      "midi": 75,
      "hit": false,
      "t": 47072.91666666664,
      "d": 526.0416666666715,
      "v": 64
    },
    {
      "midi": 63,
      "hit": false,
      "t": 47104.16666666664,
      "d": 1432.2916666666715,
      "v": 48
    },
    {
      "midi": 70,
      "hit": false,
      "t": 47109.37499999998,
      "d": 2234.375,
      "v": 43
    },
    {
      "midi": 65,
      "hit": false,
      "t": 47130.208333333314,
      "d": 3406.2499999999927,
      "v": 28
    },
    {
      "midi": 58,
      "hit": false,
      "t": 47171.87499999998,
      "d": 3135.4166666666642,
      "v": 27
    },
    {
      "midi": 53,
      "hit": false,
      "t": 47192.708333333314,
      "d": 3151.0416666666642,
      "v": 16
    },
    {
      "midi": 77,
      "hit": false,
      "t": 47588.54166666665,
      "d": 526.0416666666642,
      "v": 64
    },
    {
      "midi": 75,
      "hit": false,
      "t": 48119.79166666665,
      "d": 1229.1666666666642,
      "v": 64
    },
    {
      "midi": 73,
      "hit": false,
      "t": 49296.87499999998,
      "d": 1135.4166666666642,
      "v": 54
    },
    {
      "midi": 61,
      "hit": false,
      "t": 49348.958333333314,
      "d": 713.5416666666642,
      "v": 32
    },
    {
      "midi": 70,
      "hit": false,
      "t": 50432.29166666664,
      "d": 296.875,
      "v": 43
    },
    {
      "midi": 27,
      "hit": false,
      "t": 51911.45833333331,
      "d": 286.45833333333576,
      "v": 48
    },
    {
      "midi": 39,
      "hit": false,
      "t": 51947.91666666664,
      "d": 302.08333333333576,
      "v": 38
    },
    {
      "midi": 70,
      "hit": false,
      "t": 53286.458333333314,
      "d": 817.7083333333358,
      "v": 31
    },
    {
      "midi": 89,
      "hit": false,
      "t": 53296.87499999998,
      "d": 619.7916666666642,
      "v": 47
    },
    {
      "midi": 82,
      "hit": false,
      "t": 53322.91666666664,
      "d": 640.625,
      "v": 49
    },
    {
      "midi": 77,
      "hit": false,
      "t": 53343.74999999998,
      "d": 572.9166666666642,
      "v": 15
    },
    {
      "midi": 66,
      "hit": false,
      "t": 53390.62499999998,
      "d": 578.125,
      "v": 22
    },
    {
      "midi": 65,
      "hit": false,
      "t": 53468.74999999998,
      "d": 505.20833333333576,
      "v": 14
    },
    {
      "midi": 87,
      "hit": false,
      "t": 54859.374999999985,
      "d": 229.16666666667152,
      "v": 48
    },
    {
      "midi": 75,
      "hit": false,
      "t": 54895.83333333332,
      "d": 187.5,
      "v": 15
    },
    {
      "midi": 70,
      "hit": false,
      "t": 54916.66666666666,
      "d": 187.5,
      "v": 15
    },
    {
      "midi": 63,
      "hit": false,
      "t": 54942.70833333332,
      "d": 192.70833333333576,
      "v": 19
    },
    {
      "midi": 82,
      "hit": false,
      "t": 54999.999999999985,
      "d": 140.62500000000728,
      "v": 15
    },
    {
      "midi": 87,
      "hit": false,
      "t": 55354.16666666666,
      "d": 140.62499999999272,
      "v": 54
    },
    {
      "midi": 75,
      "hit": false,
      "t": 55354.16666666666,
      "d": 161.45833333332848,
      "v": 57
    },
    {
      "midi": 70,
      "hit": false,
      "t": 55364.58333333332,
      "d": 151.04166666666424,
      "v": 47
    },
    {
      "midi": 63,
      "hit": false,
      "t": 55374.999999999985,
      "d": 151.04166666666424,
      "v": 44
    },
    {
      "midi": 82,
      "hit": false,
      "t": 55385.41666666665,
      "d": 171.875,
      "v": 37
    },
    {
      "midi": 66,
      "hit": false,
      "t": 55427.083333333314,
      "d": 88.54166666667152,
      "v": 29
    },
    {
      "midi": 87,
      "hit": false,
      "t": 55713.54166666665,
      "d": 119.79166666666424,
      "v": 60
    },
    {
      "midi": 75,
      "hit": false,
      "t": 55718.749999999985,
      "d": 109.37499999999272,
      "v": 68
    },
    {
      "midi": 70,
      "hit": false,
      "t": 55729.16666666665,
      "d": 104.16666666666424,
      "v": 57
    },
    {
      "midi": 82,
      "hit": false,
      "t": 55755.208333333314,
      "d": 104.16666666666424,
      "v": 36
    },
    {
      "midi": 63,
      "hit": false,
      "t": 55755.208333333314,
      "d": 109.375,
      "v": 36
    },
    {
      "midi": 73,
      "hit": false,
      "t": 56020.833333333314,
      "d": 78.125,
      "v": 64
    },
    {
      "midi": 85,
      "hit": false,
      "t": 56031.24999999998,
      "d": 98.95833333333576,
      "v": 52
    },
    {
      "midi": 82,
      "hit": false,
      "t": 56036.458333333314,
      "d": 98.95833333333576,
      "v": 48
    },
    {
      "midi": 61,
      "hit": false,
      "t": 56052.083333333314,
      "d": 83.33333333333576,
      "v": 46
    },
    {
      "midi": 70,
      "hit": false,
      "t": 56078.12499999998,
      "d": 57.29166666667152,
      "v": 21
    },
    {
      "midi": 73,
      "hit": false,
      "t": 56302.083333333314,
      "d": 83.33333333333576,
      "v": 60
    },
    {
      "midi": 85,
      "hit": false,
      "t": 56317.708333333314,
      "d": 88.54166666667152,
      "v": 46
    },
    {
      "midi": 82,
      "hit": false,
      "t": 56322.91666666665,
      "d": 93.75000000000728,
      "v": 44
    },
    {
      "midi": 70,
      "hit": false,
      "t": 56348.958333333314,
      "d": 41.66666666667152,
      "v": 27
    },
    {
      "midi": 61,
      "hit": false,
      "t": 56348.958333333314,
      "d": 62.500000000007276,
      "v": 37
    },
    {
      "midi": 73,
      "hit": false,
      "t": 56557.29166666666,
      "d": 88.54166666667152,
      "v": 64
    },
    {
      "midi": 85,
      "hit": false,
      "t": 56583.33333333332,
      "d": 93.75000000000728,
      "v": 36
    },
    {
      "midi": 61,
      "hit": false,
      "t": 56588.54166666666,
      "d": 88.54166666667152,
      "v": 41
    },
    {
      "midi": 70,
      "hit": false,
      "t": 56593.74999999999,
      "d": 72.91666666667152,
      "v": 32
    },
    {
      "midi": 82,
      "hit": false,
      "t": 56614.58333333333,
      "d": 67.70833333333576,
      "v": 23
    },
    {
      "midi": 72,
      "hit": false,
      "t": 56833.33333333333,
      "d": 98.95833333332848,
      "v": 42
    },
    {
      "midi": 84,
      "hit": false,
      "t": 56833.33333333333,
      "d": 124.99999999999272,
      "v": 55
    },
    {
      "midi": 70,
      "hit": false,
      "t": 56843.74999999999,
      "d": 104.16666666666424,
      "v": 49
    },
    {
      "midi": 82,
      "hit": false,
      "t": 56885.41666666666,
      "d": 88.54166666666424,
      "v": 22
    },
    {
      "midi": 72,
      "hit": false,
      "t": 57114.58333333332,
      "d": 135.4166666666497,
      "v": 70
    },
    {
      "midi": 84,
      "hit": false,
      "t": 57140.624999999985,
      "d": 124.99999999998545,
      "v": 40
    },
    {
      "midi": 70,
      "hit": false,
      "t": 57166.66666666665,
      "d": 78.12499999999272,
      "v": 34
    },
    {
      "midi": 82,
      "hit": false,
      "t": 57166.66666666665,
      "d": 119.79166666665697,
      "v": 33
    },
    {
      "midi": 78,
      "hit": false,
      "t": 57208.333333333314,
      "d": 72.91666666665697,
      "v": 14
    },
    {
      "midi": 60,
      "hit": false,
      "t": 57218.74999999998,
      "d": 31.249999999992724,
      "v": 15
    },
    {
      "midi": 66,
      "hit": false,
      "t": 57244.79166666664,
      "d": 2.6041666666642413,
      "v": 14
    },
    {
      "midi": 72,
      "hit": false,
      "t": 57458.33333333331,
      "d": 140.625,
      "v": 64
    },
    {
      "midi": 84,
      "hit": false,
      "t": 57463.54166666664,
      "d": 161.45833333332848,
      "v": 64
    },
    {
      "midi": 70,
      "hit": false,
      "t": 57473.95833333331,
      "d": 182.29166666666424,
      "v": 52
    },
    {
      "midi": 78,
      "hit": false,
      "t": 57489.58333333331,
      "d": 171.875,
      "v": 39
    },
    {
      "midi": 82,
      "hit": false,
      "t": 57494.79166666664,
      "d": 218.75,
      "v": 43
    },
    {
      "midi": 85,
      "hit": false,
      "t": 57932.29166666664,
      "d": 171.87500000000728,
      "v": 69
    },
    {
      "midi": 73,
      "hit": false,
      "t": 57953.12499999998,
      "d": 187.50000000000728,
      "v": 53
    },
    {
      "midi": 70,
      "hit": false,
      "t": 57968.74999999998,
      "d": 135.41666666667152,
      "v": 26
    },
    {
      "midi": 61,
      "hit": false,
      "t": 58031.24999999998,
      "d": 104.16666666667152,
      "v": 26
    },
    {
      "midi": 82,
      "hit": false,
      "t": 58041.66666666664,
      "d": 67.70833333334303,
      "v": 15
    },
    {
      "midi": 66,
      "hit": false,
      "t": 58078.12499999998,
      "d": 5.208333333335759,
      "v": 15
    },
    {
      "midi": 82,
      "hit": false,
      "t": 58583.33333333332,
      "d": 317.70833333333576,
      "v": 51
    },
    {
      "midi": 70,
      "hit": false,
      "t": 58583.33333333332,
      "d": 463.5416666666715,
      "v": 51
    },
    {
      "midi": 66,
      "hit": false,
      "t": 58604.16666666666,
      "d": 255.20833333333576,
      "v": 48
    },
    {
      "midi": 61,
      "hit": false,
      "t": 58682.29166666666,
      "d": 281.25,
      "v": 33
    },
    {
      "midi": 58,
      "hit": false,
      "t": 58703.12499999999,
      "d": 281.25,
      "v": 38
    },
    {
      "midi": 78,
      "hit": false,
      "t": 58755.20833333333,
      "d": 208.33333333332848,
      "v": 15
    },
    {
      "midi": 27,
      "hit": false,
      "t": 59963.54166666666,
      "d": 291.66666666666424,
      "v": 46
    },
    {
      "midi": 46,
      "hit": false,
      "t": 59968.74999999999,
      "d": 244.79166666666424,
      "v": 45
    },
    {
      "midi": 39,
      "hit": false,
      "t": 59999.99999999999,
      "d": 338.54166666666424,
      "v": 31
    },
    {
      "midi": 70,
      "hit": false,
      "t": 61312.49999999999,
      "d": 687.5000000000073,
      "v": 27
    },
    {
      "midi": 77,
      "hit": false,
      "t": 61333.33333333333,
      "d": 479.1666666666715,
      "v": 34
    },
    {
      "midi": 89,
      "hit": false,
      "t": 61333.33333333333,
      "d": 520.8333333333358,
      "v": 45
    },
    {
      "midi": 82,
      "hit": false,
      "t": 61338.541666666664,
      "d": 625,
      "v": 40
    },
    {
      "midi": 66,
      "hit": false,
      "t": 61432.291666666664,
      "d": 552.0833333333358,
      "v": 15
    },
    {
      "midi": 65,
      "hit": false,
      "t": 61463.541666666664,
      "d": 531.25,
      "v": 16
    },
    {
      "midi": 90,
      "hit": false,
      "t": 62557.291666666664,
      "d": 348.9583333333285,
      "v": 79
    },
    {
      "midi": 78,
      "hit": false,
      "t": 62557.291666666664,
      "d": 359.3749999999927,
      "v": 59
    },
    {
      "midi": 82,
      "hit": false,
      "t": 62645.83333333333,
      "d": 270.8333333333285,
      "v": 15
    },
    {
      "midi": 66,
      "hit": false,
      "t": 62661.45833333333,
      "d": 140.625,
      "v": 38
    },
    {
      "midi": 89,
      "hit": false,
      "t": 63104.16666666666,
      "d": 182.29166666666424,
      "v": 58
    },
    {
      "midi": 70,
      "hit": false,
      "t": 63119.79166666666,
      "d": 161.45833333332848,
      "v": 33
    },
    {
      "midi": 82,
      "hit": false,
      "t": 63135.41666666666,
      "d": 229.16666666666424,
      "v": 24
    },
    {
      "midi": 77,
      "hit": false,
      "t": 63140.62499999999,
      "d": 182.29166666666424,
      "v": 17
    },
    {
      "midi": 88,
      "hit": false,
      "t": 63197.91666666666,
      "d": 26.04166666666424,
      "v": 15
    },
    {
      "midi": 65,
      "hit": false,
      "t": 63213.54166666666,
      "d": 125,
      "v": 15
    },
    {
      "midi": 66,
      "hit": false,
      "t": 63255.20833333332,
      "d": 62.5,
      "v": 15
    },
    {
      "midi": 75,
      "hit": false,
      "t": 63510.41666666666,
      "d": 156.25000000000728,
      "v": 68
    },
    {
      "midi": 87,
      "hit": false,
      "t": 63515.62499999999,
      "d": 223.95833333333576,
      "v": 68
    },
    {
      "midi": 63,
      "hit": false,
      "t": 63557.29166666666,
      "d": 135.41666666667152,
      "v": 43
    },
    {
      "midi": 70,
      "hit": false,
      "t": 63578.12499999999,
      "d": 72.91666666667152,
      "v": 15
    },
    {
      "midi": 82,
      "hit": false,
      "t": 63598.95833333333,
      "d": 62.5,
      "v": 15
    },
    {
      "midi": 66,
      "hit": false,
      "t": 63614.58333333333,
      "d": 83.33333333333576,
      "v": 23
    },
    {
      "midi": 89,
      "hit": false,
      "t": 63843.74999999999,
      "d": 130.20833333334303,
      "v": 68
    },
    {
      "midi": 70,
      "hit": false,
      "t": 63859.37499999999,
      "d": 109.37500000000728,
      "v": 46
    },
    {
      "midi": 82,
      "hit": false,
      "t": 63880.20833333333,
      "d": 140.62500000000728,
      "v": 39
    },
    {
      "midi": 77,
      "hit": false,
      "t": 63901.041666666664,
      "d": 78.12500000000728,
      "v": 22
    },
    {
      "midi": 65,
      "hit": false,
      "t": 63916.666666666664,
      "d": 104.16666666667152,
      "v": 22
    },
    {
      "midi": 87,
      "hit": false,
      "t": 64145.833333333336,
      "d": 119.79166666667152,
      "v": 64
    },
    {
      "midi": 75,
      "hit": false,
      "t": 64145.833333333336,
      "d": 140.62500000000728,
      "v": 59
    },
    {
      "midi": 63,
      "hit": false,
      "t": 64166.66666666667,
      "d": 161.45833333333576,
      "v": 48
    },
    {
      "midi": 82,
      "hit": false,
      "t": 64192.708333333336,
      "d": 88.54166666667152,
      "v": 18
    },
    {
      "midi": 70,
      "hit": false,
      "t": 64197.91666666667,
      "d": 72.91666666667152,
      "v": 20
    },
    {
      "midi": 73,
      "hit": false,
      "t": 64437.50000000001,
      "d": 93.75,
      "v": 78
    },
    {
      "midi": 85,
      "hit": false,
      "t": 64447.91666666667,
      "d": 140.62500000000728,
      "v": 64
    },
    {
      "midi": 82,
      "hit": false,
      "t": 64463.54166666667,
      "d": 125.00000000000728,
      "v": 47
    },
    {
      "midi": 61,
      "hit": false,
      "t": 64463.54166666667,
      "d": 130.20833333334303,
      "v": 55
    },
    {
      "midi": 70,
      "hit": false,
      "t": 64531.25000000001,
      "d": 36.45833333333576,
      "v": 15
    },
    {
      "midi": 87,
      "hit": false,
      "t": 64723.95833333335,
      "d": 135.41666666666424,
      "v": 80
    },
    {
      "midi": 75,
      "hit": false,
      "t": 64739.58333333335,
      "d": 125,
      "v": 64
    },
    {
      "midi": 70,
      "hit": false,
      "t": 64755.20833333335,
      "d": 98.95833333332848,
      "v": 61
    },
    {
      "midi": 63,
      "hit": false,
      "t": 64765.625000000015,
      "d": 114.58333333333576,
      "v": 57
    },
    {
      "midi": 85,
      "hit": false,
      "t": 65031.250000000015,
      "d": 171.875,
      "v": 68
    },
    {
      "midi": 73,
      "hit": false,
      "t": 65036.45833333335,
      "d": 187.5,
      "v": 64
    },
    {
      "midi": 61,
      "hit": false,
      "t": 65046.875000000015,
      "d": 140.625,
      "v": 69
    },
    {
      "midi": 70,
      "hit": false,
      "t": 65093.750000000015,
      "d": 83.33333333333576,
      "v": 23
    },
    {
      "midi": 82,
      "hit": false,
      "t": 65161.45833333335,
      "d": 78.125,
      "v": 28
    },
    {
      "midi": 84,
      "hit": false,
      "t": 65401.041666666686,
      "d": 130.20833333333576,
      "v": 64
    },
    {
      "midi": 72,
      "hit": false,
      "t": 65406.25000000002,
      "d": 83.33333333333576,
      "v": 62
    },
    {
      "midi": 82,
      "hit": false,
      "t": 65406.25000000002,
      "d": 218.75000000000728,
      "v": 56
    },
    {
      "midi": 70,
      "hit": false,
      "t": 65421.87500000002,
      "d": 171.87500000000728,
      "v": 49
    },
    {
      "midi": 60,
      "hit": false,
      "t": 65468.75000000002,
      "d": 145.83333333333576,
      "v": 30
    },
    {
      "midi": 66,
      "hit": false,
      "t": 65515.62500000002,
      "d": 83.33333333333576,
      "v": 15
    },
    {
      "midi": 87,
      "hit": false,
      "t": 65817.70833333336,
      "d": 156.25,
      "v": 58
    },
    {
      "midi": 85,
      "hit": false,
      "t": 65880.20833333336,
      "d": 171.875,
      "v": 55
    },
    {
      "midi": 70,
      "hit": false,
      "t": 65885.41666666669,
      "d": 156.25,
      "v": 42
    },
    {
      "midi": 73,
      "hit": false,
      "t": 65906.25000000001,
      "d": 161.45833333334303,
      "v": 15
    },
    {
      "midi": 61,
      "hit": false,
      "t": 65932.29166666669,
      "d": 161.45833333334303,
      "v": 33
    },
    {
      "midi": 66,
      "hit": false,
      "t": 65994.79166666669,
      "d": 57.29166666667152,
      "v": 15
    },
    {
      "midi": 82,
      "hit": false,
      "t": 66557.2916666667,
      "d": 718.75,
      "v": 53
    },
    {
      "midi": 70,
      "hit": false,
      "t": 66562.50000000003,
      "d": 442.70833333334303,
      "v": 40
    },
    {
      "midi": 66,
      "hit": false,
      "t": 66625.00000000003,
      "d": 276.0416666666715,
      "v": 26
    },
    {
      "midi": 63,
      "hit": false,
      "t": 66651.0416666667,
      "d": 432.2916666666715,
      "v": 38
    },
    {
      "midi": 58,
      "hit": false,
      "t": 66671.87500000003,
      "d": 432.2916666666715,
      "v": 38
    },
    {
      "midi": 78,
      "hit": false,
      "t": 66697.9166666667,
      "d": 682.2916666666715,
      "v": 25
    },
    {
      "midi": 32,
      "hit": false,
      "t": 67713.5416666667,
      "d": 302.08333333334303,
      "v": 53
    },
    {
      "midi": 44,
      "hit": false,
      "t": 67729.1666666667,
      "d": 354.1666666666715,
      "v": 36
    },
    {
      "midi": 78,
      "hit": false,
      "t": 68541.6666666667,
      "d": 286.4583333333285,
      "v": 59
    },
    {
      "midi": 66,
      "hit": false,
      "t": 68546.87500000003,
      "d": 244.79166666667152,
      "v": 49
    },
    {
      "midi": 63,
      "hit": false,
      "t": 68562.50000000003,
      "d": 307.2916666666715,
      "v": 41
    },
    {
      "midi": 54,
      "hit": false,
      "t": 68562.50000000003,
      "d": 312.5,
      "v": 50
    },
    {
      "midi": 75,
      "hit": false,
      "t": 68604.1666666667,
      "d": 526.041666666657,
      "v": 42
    },
    {
      "midi": 60,
      "hit": false,
      "t": 68630.20833333337,
      "d": 192.70833333332848,
      "v": 32
    },
    {
      "midi": 80,
      "hit": false,
      "t": 69203.12500000003,
      "d": 156.25,
      "v": 71
    },
    {
      "midi": 68,
      "hit": false,
      "t": 69223.95833333336,
      "d": 114.58333333334303,
      "v": 64
    },
    {
      "midi": 56,
      "hit": false,
      "t": 69265.62500000003,
      "d": 614.5833333333285,
      "v": 37
    },
    {
      "midi": 63,
      "hit": false,
      "t": 69312.50000000003,
      "d": 354.1666666666715,
      "v": 22
    },
    {
      "midi": 84,
      "hit": false,
      "t": 69697.9166666667,
      "d": 302.0833333333285,
      "v": 64
    },
    {
      "midi": 72,
      "hit": false,
      "t": 69729.1666666667,
      "d": 296.875,
      "v": 53
    },
    {
      "midi": 60,
      "hit": false,
      "t": 69750.00000000003,
      "d": 317.70833333334303,
      "v": 50
    },
    {
      "midi": 70,
      "hit": false,
      "t": 70270.83333333337,
      "d": 291.6666666666715,
      "v": 59
    },
    {
      "midi": 82,
      "hit": false,
      "t": 70291.6666666667,
      "d": 213.54166666668607,
      "v": 57
    },
    {
      "midi": 58,
      "hit": false,
      "t": 70333.33333333337,
      "d": 208.33333333334303,
      "v": 32
    },
    {
      "midi": 66,
      "hit": false,
      "t": 70338.5416666667,
      "d": 130.20833333334303,
      "v": 15
    },
    {
      "midi": 78,
      "hit": false,
      "t": 70369.7916666667,
      "d": 119.79166666668607,
      "v": 26
    },
    {
      "midi": 63,
      "hit": false,
      "t": 70395.83333333337,
      "d": 83.33333333334303,
      "v": 15
    },
    {
      "midi": 78,
      "hit": false,
      "t": 70906.25000000004,
      "d": 489.5833333333285,
      "v": 55
    },
    {
      "midi": 66,
      "hit": false,
      "t": 70916.66666666672,
      "d": 333.3333333333285,
      "v": 46
    },
    {
      "midi": 63,
      "hit": false,
      "t": 70927.08333333339,
      "d": 130.20833333332848,
      "v": 39
    },
    {
      "midi": 58,
      "hit": false,
      "t": 70958.33333333339,
      "d": 119.79166666665697,
      "v": 30
    },
    {
      "midi": 54,
      "hit": false,
      "t": 70973.95833333339,
      "d": 166.66666666665697,
      "v": 49
    },
    {
      "midi": 33,
      "hit": false,
      "t": 71635.4166666667,
      "d": 338.54166666665697,
      "v": 64
    },
    {
      "midi": 45,
      "hit": false,
      "t": 71687.50000000003,
      "d": 375,
      "v": 37
    },
    {
      "midi": 66,
      "hit": false,
      "t": 72421.87500000003,
      "d": 255.20833333331393,
      "v": 49
    },
    {
      "midi": 78,
      "hit": false,
      "t": 72427.08333333336,
      "d": 244.79166666665697,
      "v": 52
    },
    {
      "midi": 54,
      "hit": false,
      "t": 72463.54166666669,
      "d": 203.125,
      "v": 52
    },
    {
      "midi": 63,
      "hit": false,
      "t": 72463.54166666669,
      "d": 203.125,
      "v": 36
    },
    {
      "midi": 60,
      "hit": false,
      "t": 72505.20833333336,
      "d": 182.29166666665697,
      "v": 37
    },
    {
      "midi": 72,
      "hit": false,
      "t": 72598.95833333336,
      "d": 52.08333333332848,
      "v": 15
    },
    {
      "midi": 78,
      "hit": false,
      "t": 72838.54166666669,
      "d": 161.45833333332848,
      "v": 57
    },
    {
      "midi": 66,
      "hit": false,
      "t": 72848.95833333336,
      "d": 119.79166666665697,
      "v": 55
    },
    {
      "midi": 54,
      "hit": false,
      "t": 72864.58333333336,
      "d": 109.37499999998545,
      "v": 56
    },
    {
      "midi": 63,
      "hit": false,
      "t": 72921.87500000003,
      "d": 36.45833333332848,
      "v": 15
    },
    {
      "midi": 60,
      "hit": false,
      "t": 72937.50000000003,
      "d": 26.041666666656965,
      "v": 14
    },
    {
      "midi": 78,
      "hit": false,
      "t": 73114.58333333334,
      "d": 140.625,
      "v": 57
    },
    {
      "midi": 66,
      "hit": false,
      "t": 73125.00000000001,
      "d": 114.58333333332848,
      "v": 48
    },
    {
      "midi": 54,
      "hit": false,
      "t": 73145.83333333334,
      "d": 93.75,
      "v": 56
    },
    {
      "midi": 63,
      "hit": false,
      "t": 73156.25000000001,
      "d": 78.125,
      "v": 40
    },
    {
      "midi": 60,
      "hit": false,
      "t": 73177.08333333334,
      "d": 78.125,
      "v": 39
    },
    {
      "midi": 78,
      "hit": false,
      "t": 73385.41666666667,
      "d": 119.79166666667152,
      "v": 61
    },
    {
      "midi": 66,
      "hit": false,
      "t": 73390.625,
      "d": 109.37500000001455,
      "v": 64
    },
    {
      "midi": 54,
      "hit": false,
      "t": 73401.04166666667,
      "d": 151.04166666667152,
      "v": 59
    },
    {
      "midi": 63,
      "hit": false,
      "t": 73427.08333333334,
      "d": 72.91666666667152,
      "v": 40
    },
    {
      "midi": 80,
      "hit": false,
      "t": 73682.29166666667,
      "d": 177.08333333332848,
      "v": 64
    },
    {
      "midi": 68,
      "hit": false,
      "t": 73708.33333333334,
      "d": 171.875,
      "v": 53
    },
    {
      "midi": 63,
      "hit": false,
      "t": 73713.54166666667,
      "d": 156.25,
      "v": 61
    },
    {
      "midi": 56,
      "hit": false,
      "t": 73760.41666666667,
      "d": 171.87500000001455,
      "v": 35
    },
    {
      "midi": 75,
      "hit": false,
      "t": 73765.625,
      "d": 140.62500000001455,
      "v": 41
    },
    {
      "midi": 72,
      "hit": false,
      "t": 73776.04166666667,
      "d": 145.83333333334303,
      "v": 21
    },
    {
      "midi": 60,
      "hit": false,
      "t": 73796.875,
      "d": 93.75000000001455,
      "v": 15
    },
    {
      "midi": 66,
      "hit": false,
      "t": 74067.70833333336,
      "d": 291.66666666665697,
      "v": 61
    },
    {
      "midi": 78,
      "hit": false,
      "t": 74078.12500000003,
      "d": 510.4166666666424,
      "v": 71
    },
    {
      "midi": 75,
      "hit": false,
      "t": 74083.33333333336,
      "d": 609.3749999999709,
      "v": 62
    },
    {
      "midi": 63,
      "hit": false,
      "t": 74098.95833333336,
      "d": 187.49999999998545,
      "v": 50
    },
    {
      "midi": 60,
      "hit": false,
      "t": 74114.58333333336,
      "d": 281.24999999998545,
      "v": 43
    },
    {
      "midi": 54,
      "hit": false,
      "t": 74119.79166666669,
      "d": 354.16666666665697,
      "v": 39
    },
    {
      "midi": 72,
      "hit": false,
      "t": 74187.50000000001,
      "d": 499.99999999998545,
      "v": 21
    },
    {
      "midi": 34,
      "hit": false,
      "t": 75072.91666666666,
      "d": 218.74999999998545,
      "v": 80
    },
    {
      "midi": 46,
      "hit": false,
      "t": 75088.54166666666,
      "d": 286.45833333331393,
      "v": 57
    },
    {
      "midi": 78,
      "hit": false,
      "t": 75708.3333333333,
      "d": 312.5,
      "v": 71
    },
    {
      "midi": 66,
      "hit": false,
      "t": 75713.54166666663,
      "d": 234.375,
      "v": 63
    },
    {
      "midi": 61,
      "hit": false,
      "t": 75713.54166666663,
      "d": 375,
      "v": 63
    },
    {
      "midi": 54,
      "hit": false,
      "t": 75723.9583333333,
      "d": 578.125,
      "v": 60
    },
    {
      "midi": 73,
      "hit": false,
      "t": 75734.37499999997,
      "d": 354.16666666665697,
      "v": 60
    },
    {
      "midi": 70,
      "hit": false,
      "t": 75739.5833333333,
      "d": 333.3333333333285,
      "v": 54
    },
    {
      "midi": 58,
      "hit": false,
      "t": 75781.24999999997,
      "d": 161.45833333332848,
      "v": 44
    },
    {
      "midi": 68,
      "hit": false,
      "t": 76213.54166666663,
      "d": 109.375,
      "v": 80
    },
    {
      "midi": 80,
      "hit": false,
      "t": 76213.54166666663,
      "d": 156.25,
      "v": 78
    },
    {
      "midi": 56,
      "hit": false,
      "t": 76223.9583333333,
      "d": 666.666666666657,
      "v": 72
    },
    {
      "midi": 85,
      "hit": false,
      "t": 76718.74999999996,
      "d": 135.41666666667152,
      "v": 79
    },
    {
      "midi": 73,
      "hit": false,
      "t": 76723.95833333328,
      "d": 114.58333333334303,
      "v": 104
    },
    {
      "midi": 61,
      "hit": false,
      "t": 76734.37499999996,
      "d": 187.5,
      "v": 69
    },
    {
      "midi": 82,
      "hit": false,
      "t": 77213.54166666663,
      "d": 171.87499999998545,
      "v": 88
    },
    {
      "midi": 70,
      "hit": false,
      "t": 77213.54166666663,
      "d": 229.16666666665697,
      "v": 72
    },
    {
      "midi": 66,
      "hit": false,
      "t": 77218.74999999996,
      "d": 171.87499999998545,
      "v": 64
    },
    {
      "midi": 75,
      "hit": false,
      "t": 77239.58333333328,
      "d": 177.08333333332848,
      "v": 54
    },
    {
      "midi": 58,
      "hit": false,
      "t": 77276.04166666661,
      "d": 203.125,
      "v": 40
    },
    {
      "midi": 61,
      "hit": false,
      "t": 77723.95833333328,
      "d": 130.20833333332848,
      "v": 79
    },
    {
      "midi": 78,
      "hit": false,
      "t": 77729.16666666661,
      "d": 468.75000000001455,
      "v": 72
    },
    {
      "midi": 66,
      "hit": false,
      "t": 77734.37499999994,
      "d": 312.50000000001455,
      "v": 63
    },
    {
      "midi": 54,
      "hit": false,
      "t": 77749.99999999994,
      "d": 145.83333333334303,
      "v": 63
    },
    {
      "midi": 36,
      "hit": false,
      "t": 78364.5833333333,
      "d": 265.625,
      "v": 71
    },
    {
      "midi": 48,
      "hit": false,
      "t": 78364.5833333333,
      "d": 333.3333333333285,
      "v": 71
    },
    {
      "midi": 78,
      "hit": false,
      "t": 79005.2083333333,
      "d": 213.54166666665697,
      "v": 77
    },
    {
      "midi": 63,
      "hit": false,
      "t": 79015.62499999997,
      "d": 208.33333333331393,
      "v": 72
    },
    {
      "midi": 66,
      "hit": false,
      "t": 79015.62499999997,
      "d": 213.5416666666424,
      "v": 72
    },
    {
      "midi": 54,
      "hit": false,
      "t": 79046.87499999997,
      "d": 166.66666666665697,
      "v": 53
    },
    {
      "midi": 70,
      "hit": false,
      "t": 79046.87499999997,
      "d": 197.9166666666424,
      "v": 43
    },
    {
      "midi": 75,
      "hit": false,
      "t": 79046.87499999997,
      "d": 213.5416666666424,
      "v": 53
    },
    {
      "midi": 58,
      "hit": false,
      "t": 79067.7083333333,
      "d": 151.04166666665697,
      "v": 47
    },
    {
      "midi": 66,
      "hit": false,
      "t": 79369.79166666661,
      "d": 119.79166666665697,
      "v": 63
    },
    {
      "midi": 78,
      "hit": false,
      "t": 79369.79166666661,
      "d": 151.04166666665697,
      "v": 71
    },
    {
      "midi": 63,
      "hit": false,
      "t": 79374.99999999994,
      "d": 114.58333333332848,
      "v": 68
    },
    {
      "midi": 54,
      "hit": false,
      "t": 79380.20833333327,
      "d": 98.95833333332848,
      "v": 68
    },
    {
      "midi": 70,
      "hit": false,
      "t": 79385.4166666666,
      "d": 125,
      "v": 53
    },
    {
      "midi": 75,
      "hit": false,
      "t": 79395.83333333327,
      "d": 140.625,
      "v": 54
    },
    {
      "midi": 58,
      "hit": false,
      "t": 79401.0416666666,
      "d": 78.125,
      "v": 55
    },
    {
      "midi": 63,
      "hit": false,
      "t": 79640.62499999994,
      "d": 109.37499999998545,
      "v": 68
    },
    {
      "midi": 66,
      "hit": false,
      "t": 79640.62499999994,
      "d": 114.58333333331393,
      "v": 68
    },
    {
      "midi": 78,
      "hit": false,
      "t": 79645.83333333327,
      "d": 119.79166666665697,
      "v": 64
    },
    {
      "midi": 75,
      "hit": false,
      "t": 79651.0416666666,
      "d": 145.83333333332848,
      "v": 51
    },
    {
      "midi": 54,
      "hit": false,
      "t": 79656.24999999993,
      "d": 93.75,
      "v": 64
    },
    {
      "midi": 70,
      "hit": false,
      "t": 79656.24999999993,
      "d": 93.75,
      "v": 57
    },
    {
      "midi": 58,
      "hit": false,
      "t": 79666.6666666666,
      "d": 78.125,
      "v": 54
    },
    {
      "midi": 63,
      "hit": false,
      "t": 79885.4166666666,
      "d": 119.79166666667152,
      "v": 64
    },
    {
      "midi": 54,
      "hit": false,
      "t": 79885.4166666666,
      "d": 145.83333333334303,
      "v": 64
    },
    {
      "midi": 66,
      "hit": false,
      "t": 79890.62499999993,
      "d": 83.33333333334303,
      "v": 76
    },
    {
      "midi": 78,
      "hit": false,
      "t": 79890.62499999993,
      "d": 130.20833333334303,
      "v": 78
    },
    {
      "midi": 70,
      "hit": false,
      "t": 79901.0416666666,
      "d": 62.5,
      "v": 61
    },
    {
      "midi": 80,
      "hit": false,
      "t": 80161.45833333327,
      "d": 197.91666666667152,
      "v": 80
    },
    {
      "midi": 68,
      "hit": false,
      "t": 80171.87499999994,
      "d": 203.125,
      "v": 72
    },
    {
      "midi": 56,
      "hit": false,
      "t": 80177.08333333327,
      "d": 276.0416666666715,
      "v": 72
    },
    {
      "midi": 65,
      "hit": false,
      "t": 80182.2916666666,
      "d": 119.79166666667152,
      "v": 58
    },
    {
      "midi": 72,
      "hit": false,
      "t": 80192.70833333327,
      "d": 239.58333333334303,
      "v": 68
    },
    {
      "midi": 60,
      "hit": false,
      "t": 80239.58333333327,
      "d": 197.91666666667152,
      "v": 29
    },
    {
      "midi": 77,
      "hit": false,
      "t": 80244.7916666666,
      "d": 125.00000000001455,
      "v": 34
    },
    {
      "midi": 66,
      "hit": false,
      "t": 80562.49999999994,
      "d": 286.4583333333285,
      "v": 72
    },
    {
      "midi": 63,
      "hit": false,
      "t": 80567.70833333327,
      "d": 250,
      "v": 80
    },
    {
      "midi": 78,
      "hit": false,
      "t": 80567.70833333327,
      "d": 552.0833333333285,
      "v": 68
    },
    {
      "midi": 75,
      "hit": false,
      "t": 80572.9166666666,
      "d": 614.583333333343,
      "v": 64
    },
    {
      "midi": 70,
      "hit": false,
      "t": 80578.12499999993,
      "d": 583.333333333343,
      "v": 62
    },
    {
      "midi": 54,
      "hit": false,
      "t": 80588.5416666666,
      "d": 359.375,
      "v": 58
    },
    {
      "midi": 58,
      "hit": false,
      "t": 80598.95833333327,
      "d": 348.9583333333285,
      "v": 57
    },
    {
      "midi": 37,
      "hit": false,
      "t": 81437.49999999994,
      "d": 203.125,
      "v": 88
    },
    {
      "midi": 49,
      "hit": false,
      "t": 81437.49999999994,
      "d": 265.625,
      "v": 79
    },
    {
      "midi": 78,
      "hit": false,
      "t": 81999.99999999994,
      "d": 296.87499999998545,
      "v": 88
    },
    {
      "midi": 66,
      "hit": false,
      "t": 82005.20833333327,
      "d": 218.75,
      "v": 79
    },
    {
      "midi": 61,
      "hit": false,
      "t": 82005.20833333327,
      "d": 354.1666666666424,
      "v": 79
    },
    {
      "midi": 73,
      "hit": false,
      "t": 82015.62499999994,
      "d": 307.2916666666424,
      "v": 62
    },
    {
      "midi": 70,
      "hit": false,
      "t": 82020.83333333327,
      "d": 281.24999999998545,
      "v": 71
    },
    {
      "midi": 58,
      "hit": false,
      "t": 82062.49999999994,
      "d": 177.08333333332848,
      "v": 42
    },
    {
      "midi": 54,
      "hit": false,
      "t": 82067.70833333327,
      "d": 229.16666666665697,
      "v": 18
    },
    {
      "midi": 53,
      "hit": false,
      "t": 82104.1666666666,
      "d": 187.5,
      "v": 22
    },
    {
      "midi": 56,
      "hit": false,
      "t": 82432.29166666658,
      "d": 598.958333333343,
      "v": 80
    },
    {
      "midi": 68,
      "hit": false,
      "t": 82437.49999999991,
      "d": 109.375,
      "v": 104
    },
    {
      "midi": 80,
      "hit": false,
      "t": 82437.49999999991,
      "d": 250,
      "v": 104
    },
    {
      "midi": 75,
      "hit": false,
      "t": 82885.41666666658,
      "d": 93.75,
      "v": 88
    },
    {
      "midi": 87,
      "hit": false,
      "t": 82885.41666666658,
      "d": 119.79166666667152,
      "v": 110
    },
    {
      "midi": 63,
      "hit": false,
      "t": 82911.45833333326,
      "d": 156.25,
      "v": 80
    },
    {
      "midi": 85,
      "hit": false,
      "t": 83374.99999999993,
      "d": 197.91666666668607,
      "v": 104
    },
    {
      "midi": 70,
      "hit": false,
      "t": 83380.20833333326,
      "d": 109.37500000001455,
      "v": 71
    },
    {
      "midi": 73,
      "hit": false,
      "t": 83380.20833333326,
      "d": 229.16666666668607,
      "v": 104
    },
    {
      "midi": 78,
      "hit": false,
      "t": 83395.83333333326,
      "d": 197.91666666668607,
      "v": 68
    },
    {
      "midi": 82,
      "hit": false,
      "t": 83406.24999999993,
      "d": 192.70833333334303,
      "v": 58
    },
    {
      "midi": 61,
      "hit": false,
      "t": 83406.24999999993,
      "d": 390.62500000001455,
      "v": 64
    },
    {
      "midi": 66,
      "hit": false,
      "t": 83479.1666666666,
      "d": 83.33333333334303,
      "v": 22
    },
    {
      "midi": 70,
      "hit": false,
      "t": 83927.08333333327,
      "d": 312.5,
      "v": 88
    },
    {
      "midi": 82,
      "hit": false,
      "t": 83927.08333333327,
      "d": 442.7083333333285,
      "v": 110
    },
    {
      "midi": 58,
      "hit": false,
      "t": 83942.70833333327,
      "d": 156.25,
      "v": 72
    },
    {
      "midi": 39,
      "hit": false,
      "t": 84510.4166666666,
      "d": 213.54166666665697,
      "v": 90
    },
    {
      "midi": 51,
      "hit": false,
      "t": 84510.4166666666,
      "d": 276.04166666665697,
      "v": 90
    },
    {
      "midi": 82,
      "hit": false,
      "t": 85109.37499999993,
      "d": 244.79166666665697,
      "v": 80
    },
    {
      "midi": 66,
      "hit": false,
      "t": 85114.58333333326,
      "d": 182.29166666665697,
      "v": 79
    },
    {
      "midi": 70,
      "hit": false,
      "t": 85114.58333333326,
      "d": 208.33333333332848,
      "v": 92
    },
    {
      "midi": 78,
      "hit": false,
      "t": 85119.79166666658,
      "d": 223.95833333332848,
      "v": 78
    },
    {
      "midi": 58,
      "hit": false,
      "t": 85124.99999999991,
      "d": 171.875,
      "v": 71
    },
    {
      "midi": 61,
      "hit": false,
      "t": 85140.62499999991,
      "d": 187.5,
      "v": 64
    },
    {
      "midi": 66,
      "hit": false,
      "t": 85473.95833333326,
      "d": 109.375,
      "v": 80
    },
    {
      "midi": 82,
      "hit": false,
      "t": 85489.58333333326,
      "d": 161.45833333331393,
      "v": 80
    },
    {
      "midi": 58,
      "hit": false,
      "t": 85494.79166666658,
      "d": 88.54166666667152,
      "v": 69
    },
    {
      "midi": 70,
      "hit": false,
      "t": 85494.79166666658,
      "d": 114.58333333332848,
      "v": 80
    },
    {
      "midi": 78,
      "hit": false,
      "t": 85494.79166666658,
      "d": 135.41666666665697,
      "v": 78
    },
    {
      "midi": 61,
      "hit": false,
      "t": 85505.20833333326,
      "d": 83.33333333332848,
      "v": 64
    },
    {
      "midi": 66,
      "hit": false,
      "t": 85776.04166666657,
      "d": 104.16666666665697,
      "v": 72
    },
    {
      "midi": 70,
      "hit": false,
      "t": 85776.04166666657,
      "d": 119.79166666665697,
      "v": 88
    },
    {
      "midi": 82,
      "hit": false,
      "t": 85776.04166666657,
      "d": 156.24999999998545,
      "v": 72
    },
    {
      "midi": 58,
      "hit": false,
      "t": 85791.66666666657,
      "d": 119.79166666665697,
      "v": 64
    },
    {
      "midi": 78,
      "hit": false,
      "t": 85796.8749999999,
      "d": 104.16666666665697,
      "v": 57
    },
    {
      "midi": 61,
      "hit": false,
      "t": 85796.8749999999,
      "d": 114.58333333332848,
      "v": 64
    },
    {
      "midi": 58,
      "hit": false,
      "t": 86026.04166666656,
      "d": 72.91666666664241,
      "v": 70
    },
    {
      "midi": 66,
      "hit": false,
      "t": 86031.24999999988,
      "d": 109.37499999998545,
      "v": 76
    },
    {
      "midi": 70,
      "hit": false,
      "t": 86036.45833333321,
      "d": 109.37499999998545,
      "v": 84
    },
    {
      "midi": 82,
      "hit": false,
      "t": 86041.66666666654,
      "d": 140.625,
      "v": 88
    },
    {
      "midi": 78,
      "hit": false,
      "t": 86062.49999999987,
      "d": 130.20833333334303,
      "v": 69
    },
    {
      "midi": 61,
      "hit": false,
      "t": 86067.7083333332,
      "d": 88.54166666667152,
      "v": 61
    },
    {
      "midi": 68,
      "hit": false,
      "t": 86286.45833333321,
      "d": 98.95833333332848,
      "v": 71
    },
    {
      "midi": 84,
      "hit": false,
      "t": 86296.87499999988,
      "d": 151.04166666665697,
      "v": 88
    },
    {
      "midi": 72,
      "hit": false,
      "t": 86302.08333333321,
      "d": 130.20833333332848,
      "v": 84
    },
    {
      "midi": 60,
      "hit": false,
      "t": 86307.29166666654,
      "d": 161.45833333332848,
      "v": 64
    },
    {
      "midi": 80,
      "hit": false,
      "t": 86369.79166666654,
      "d": 26.041666666671517,
      "v": 15
    },
    {
      "midi": 58,
      "hit": false,
      "t": 86557.29166666654,
      "d": 93.74999999998545,
      "v": 79
    },
    {
      "midi": 66,
      "hit": false,
      "t": 86562.49999999987,
      "d": 88.54166666665697,
      "v": 76
    },
    {
      "midi": 70,
      "hit": false,
      "t": 86567.7083333332,
      "d": 72.91666666665697,
      "v": 84
    },
    {
      "midi": 82,
      "hit": false,
      "t": 86572.91666666653,
      "d": 125,
      "v": 88
    },
    {
      "midi": 78,
      "hit": false,
      "t": 86635.41666666653,
      "d": 5.208333333328483,
      "v": 15
    },
    {
      "midi": 70,
      "hit": false,
      "t": 86838.54166666653,
      "d": 140.625,
      "v": 95
    },
    {
      "midi": 61,
      "hit": false,
      "t": 86843.74999999985,
      "d": 145.83333333334303,
      "v": 79
    },
    {
      "midi": 85,
      "hit": false,
      "t": 86843.74999999985,
      "d": 156.25000000001455,
      "v": 94
    },
    {
      "midi": 73,
      "hit": false,
      "t": 86848.95833333318,
      "d": 88.54166666667152,
      "v": 88
    },
    {
      "midi": 82,
      "hit": false,
      "t": 86859.37499999985,
      "d": 130.20833333334303,
      "v": 78
    },
    {
      "midi": 66,
      "hit": false,
      "t": 86901.04166666653,
      "d": 67.70833333332848,
      "v": 29
    },
    {
      "midi": 63,
      "hit": false,
      "t": 87166.66666666654,
      "d": 52.08333333332848,
      "v": 69
    },
    {
      "midi": 70,
      "hit": false,
      "t": 87166.66666666654,
      "d": 98.95833333332848,
      "v": 80
    },
    {
      "midi": 75,
      "hit": false,
      "t": 87171.87499999987,
      "d": 83.33333333332848,
      "v": 122
    },
    {
      "midi": 87,
      "hit": false,
      "t": 87171.87499999987,
      "d": 130.20833333332848,
      "v": 94
    },
    {
      "midi": 82,
      "hit": false,
      "t": 87182.29166666654,
      "d": 57.291666666656965,
      "v": 80
    },
    {
      "midi": 65,
      "hit": false,
      "t": 87557.29166666653,
      "d": 1182.291666666657,
      "v": 55
    },
    {
      "midi": 73,
      "hit": false,
      "t": 87619.79166666653,
      "d": 1098.9583333333285,
      "v": 69
    },
    {
      "midi": 68,
      "hit": false,
      "t": 87619.79166666653,
      "d": 1119.791666666657,
      "v": 52
    },
    {
      "midi": 77,
      "hit": false,
      "t": 87703.12499999985,
      "d": 937.5,
      "v": 80
    },
    {
      "midi": 80,
      "hit": false,
      "t": 87744.79166666653,
      "d": 1765.6249999999854,
      "v": 72
    },
    {
      "midi": 85,
      "hit": false,
      "t": 87833.33333333318,
      "d": 1552.0833333333285,
      "v": 71
    },
    {
      "midi": 92,
      "hit": false,
      "t": 87984.37499999985,
      "d": 1567.7083333333285,
      "v": 80
    },
    {
      "midi": 64,
      "hit": false,
      "t": 89317.70833333318,
      "d": 187.5,
      "v": 50
    },
    {
      "midi": 68,
      "hit": false,
      "t": 89453.12499999984,
      "d": 505.2083333333576,
      "v": 64
    },
    {
      "midi": 73,
      "hit": false,
      "t": 89562.49999999985,
      "d": 369.7916666666715,
      "v": 56
    },
    {
      "midi": 76,
      "hit": false,
      "t": 89661.45833333318,
      "d": 171.87500000001455,
      "v": 55
    },
    {
      "midi": 80,
      "hit": false,
      "t": 89718.74999999985,
      "d": 1187.5000000000146,
      "v": 46
    },
    {
      "midi": 85,
      "hit": false,
      "t": 89822.91666666653,
      "d": 1041.6666666666715,
      "v": 54
    },
    {
      "midi": 92,
      "hit": false,
      "t": 89963.54166666653,
      "d": 1067.7083333333285,
      "v": 64
    },
    {
      "midi": 63,
      "hit": false,
      "t": 90770.8333333332,
      "d": 255.20833333332848,
      "v": 51
    },
    {
      "midi": 66,
      "hit": false,
      "t": 90911.4583333332,
      "d": 156.24999999998545,
      "v": 48
    },
    {
      "midi": 68,
      "hit": false,
      "t": 91124.99999999985,
      "d": 20.833333333328483,
      "v": 15
    },
    {
      "midi": 73,
      "hit": false,
      "t": 91161.45833333318,
      "d": 458.3333333333285,
      "v": 56
    },
    {
      "midi": 75,
      "hit": false,
      "t": 91270.83333333318,
      "d": 135.41666666665697,
      "v": 46
    },
    {
      "midi": 80,
      "hit": false,
      "t": 91338.54166666651,
      "d": 223.95833333332848,
      "v": 43
    },
    {
      "midi": 85,
      "hit": false,
      "t": 91494.79166666651,
      "d": 296.875,
      "v": 40
    },
    {
      "midi": 92,
      "hit": false,
      "t": 91619.79166666651,
      "d": 343.75,
      "v": 51
    },
    {
      "midi": 56,
      "hit": false,
      "t": 93036.45833333318,
      "d": 312.5,
      "v": 46
    },
    {
      "midi": 63,
      "hit": false,
      "t": 93322.91666666651,
      "d": 234.375,
      "v": 54
    },
    {
      "midi": 66,
      "hit": false,
      "t": 93552.08333333318,
      "d": 807.291666666657,
      "v": 47
    },
    {
      "midi": 63,
      "hit": false,
      "t": 93749.99999999984,
      "d": 630.2083333333285,
      "v": 33
    },
    {
      "midi": 72,
      "hit": false,
      "t": 93765.62499999984,
      "d": 239.58333333332848,
      "v": 48
    },
    {
      "midi": 68,
      "hit": false,
      "t": 93989.58333333317,
      "d": 182.29166666667152,
      "v": 34
    },
    {
      "midi": 75,
      "hit": false,
      "t": 94208.33333333317,
      "d": 322.9166666666715,
      "v": 37
    },
    {
      "midi": 80,
      "hit": false,
      "t": 94515.62499999984,
      "d": 192.70833333332848,
      "v": 47
    },
    {
      "midi": 68,
      "hit": false,
      "t": 97338.5416666665,
      "d": 2187.5,
      "v": 49
    },
    {
      "midi": 37,
      "hit": false,
      "t": 97348.95833333317,
      "d": 468.75,
      "v": 48
    },
    {
      "midi": 65,
      "hit": false,
      "t": 97364.58333333317,
      "d": 541.6666666666715,
      "v": 49
    },
    {
      "midi": 44,
      "hit": false,
      "t": 97786.45833333317,
      "d": 265.625,
      "v": 51
    },
    {
      "midi": 49,
      "hit": false,
      "t": 98036.45833333317,
      "d": 322.91666666665697,
      "v": 55
    },
    {
      "midi": 53,
      "hit": false,
      "t": 98229.1666666665,
      "d": 130.20833333332848,
      "v": 64
    },
    {
      "midi": 56,
      "hit": false,
      "t": 98416.6666666665,
      "d": 213.54166666667152,
      "v": 71
    },
    {
      "midi": 61,
      "hit": false,
      "t": 98619.7916666665,
      "d": 83.33333333334303,
      "v": 58
    },
    {
      "midi": 41,
      "hit": false,
      "t": 98776.04166666651,
      "d": 270.8333333333285,
      "v": 64
    },
    {
      "midi": 48,
      "hit": false,
      "t": 98968.74999999984,
      "d": 302.0833333333285,
      "v": 72
    },
    {
      "midi": 53,
      "hit": false,
      "t": 99145.83333333317,
      "d": 171.875,
      "v": 72
    },
    {
      "midi": 56,
      "hit": false,
      "t": 99291.6666666665,
      "d": 166.66666666667152,
      "v": 80
    },
    {
      "midi": 60,
      "hit": false,
      "t": 99505.20833333317,
      "d": 171.875,
      "v": 64
    },
    {
      "midi": 65,
      "hit": false,
      "t": 99692.70833333317,
      "d": 67.70833333334303,
      "v": 52
    },
    {
      "midi": 44,
      "hit": false,
      "t": 99749.99999999984,
      "d": 1234.375,
      "v": 43
    },
    {
      "midi": 71,
      "hit": false,
      "t": 99963.54166666651,
      "d": 671.875,
      "v": 71
    },
    {
      "midi": 68,
      "hit": false,
      "t": 100005.20833333318,
      "d": 895.8333333333285,
      "v": 55
    },
    {
      "midi": 52,
      "hit": false,
      "t": 100249.99999999984,
      "d": 656.25,
      "v": 54
    },
    {
      "midi": 56,
      "hit": false,
      "t": 100416.66666666651,
      "d": 286.4583333333285,
      "v": 59
    },
    {
      "midi": 59,
      "hit": false,
      "t": 100624.99999999984,
      "d": 88.54166666667152,
      "v": 64
    },
    {
      "midi": 73,
      "hit": false,
      "t": 100874.99999999984,
      "d": 255.20833333332848,
      "v": 71
    },
    {
      "midi": 64,
      "hit": false,
      "t": 101145.83333333317,
      "d": 62.5,
      "v": 56
    },
    {
      "midi": 68,
      "hit": false,
      "t": 101479.1666666665,
      "d": 1875,
      "v": 64
    },
    {
      "midi": 37,
      "hit": false,
      "t": 101520.83333333317,
      "d": 291.66666666665697,
      "v": 43
    },
    {
      "midi": 65,
      "hit": false,
      "t": 101645.83333333317,
      "d": 229.16666666665697,
      "v": 14
    },
    {
      "midi": 44,
      "hit": false,
      "t": 101776.0416666665,
      "d": 197.91666666667152,
      "v": 59
    },
    {
      "midi": 49,
      "hit": false,
      "t": 101963.5416666665,
      "d": 234.375,
      "v": 59
    },
    {
      "midi": 53,
      "hit": false,
      "t": 102161.45833333317,
      "d": 78.125,
      "v": 55
    },
    {
      "midi": 56,
      "hit": false,
      "t": 102281.24999999984,
      "d": 171.875,
      "v": 47
    },
    {
      "midi": 61,
      "hit": false,
      "t": 102468.74999999984,
      "d": 177.08333333332848,
      "v": 48
    },
    {
      "midi": 41,
      "hit": false,
      "t": 102609.37499999984,
      "d": 286.4583333333285,
      "v": 72
    },
    {
      "midi": 48,
      "hit": false,
      "t": 102807.2916666665,
      "d": 338.5416666666715,
      "v": 64
    },
    {
      "midi": 53,
      "hit": false,
      "t": 102979.1666666665,
      "d": 197.91666666667152,
      "v": 64
    },
    {
      "midi": 56,
      "hit": false,
      "t": 103135.4166666665,
      "d": 145.83333333334303,
      "v": 80
    },
    {
      "midi": 60,
      "hit": false,
      "t": 103317.70833333317,
      "d": 161.45833333332848,
      "v": 72
    },
    {
      "midi": 65,
      "hit": false,
      "t": 103489.58333333317,
      "d": 57.29166666667152,
      "v": 61
    },
    {
      "midi": 44,
      "hit": false,
      "t": 103583.33333333317,
      "d": 890.6249999999854,
      "v": 55
    },
    {
      "midi": 71,
      "hit": false,
      "t": 103739.58333333317,
      "d": 864.5833333333139,
      "v": 80
    },
    {
      "midi": 68,
      "hit": false,
      "t": 103755.20833333317,
      "d": 359.37499999998545,
      "v": 72
    },
    {
      "midi": 52,
      "hit": false,
      "t": 103963.5416666665,
      "d": 458.3333333333285,
      "v": 64
    },
    {
      "midi": 56,
      "hit": false,
      "t": 104135.41666666648,
      "d": 229.16666666667152,
      "v": 71
    },
    {
      "midi": 59,
      "hit": false,
      "t": 104317.70833333315,
      "d": 270.8333333333285,
      "v": 72
    },
    {
      "midi": 68,
      "hit": false,
      "t": 104505.20833333315,
      "d": 276.04166666665697,
      "v": 80
    },
    {
      "midi": 64,
      "hit": false,
      "t": 104677.08333333315,
      "d": 83.33333333332848,
      "v": 71
    },
    {
      "midi": 73,
      "hit": false,
      "t": 104994.79166666648,
      "d": 739.583333333343,
      "v": 80
    },
    {
      "midi": 37,
      "hit": false,
      "t": 105026.04166666648,
      "d": 197.91666666667152,
      "v": 64
    },
    {
      "midi": 44,
      "hit": false,
      "t": 105213.54166666648,
      "d": 197.91666666667152,
      "v": 59
    },
    {
      "midi": 65,
      "hit": false,
      "t": 105276.04166666648,
      "d": 36.45833333332848,
      "v": 15
    },
    {
      "midi": 49,
      "hit": false,
      "t": 105401.04166666648,
      "d": 151.04166666667152,
      "v": 55
    },
    {
      "midi": 53,
      "hit": false,
      "t": 105562.49999999983,
      "d": 62.5,
      "v": 61
    },
    {
      "midi": 75,
      "hit": false,
      "t": 105708.33333333315,
      "d": 286.45833333334303,
      "v": 80
    },
    {
      "midi": 68,
      "hit": false,
      "t": 105734.37499999983,
      "d": 62.5,
      "v": 58
    },
    {
      "midi": 56,
      "hit": false,
      "t": 105734.37499999983,
      "d": 187.5,
      "v": 80
    },
    {
      "midi": 61,
      "hit": false,
      "t": 105916.6666666665,
      "d": 109.375,
      "v": 64
    },
    {
      "midi": 65,
      "hit": false,
      "t": 106072.9166666665,
      "d": 104.16666666665697,
      "v": 51
    },
    {
      "midi": 77,
      "hit": false,
      "t": 106072.9166666665,
      "d": 911.4583333333285,
      "v": 79
    },
    {
      "midi": 73,
      "hit": false,
      "t": 106109.37499999983,
      "d": 333.3333333333285,
      "v": 54
    },
    {
      "midi": 65,
      "hit": false,
      "t": 106432.29166666648,
      "d": 20.833333333343035,
      "v": 15
    },
    {
      "midi": 61,
      "hit": false,
      "t": 106546.87499999983,
      "d": 114.58333333332848,
      "v": 43
    },
    {
      "midi": 56,
      "hit": false,
      "t": 106723.95833333315,
      "d": 203.125,
      "v": 51
    },
    {
      "midi": 61,
      "hit": false,
      "t": 106864.58333333315,
      "d": 62.5,
      "v": 37
    },
    {
      "midi": 53,
      "hit": false,
      "t": 106958.33333333315,
      "d": 234.375,
      "v": 55
    },
    {
      "midi": 73,
      "hit": false,
      "t": 107083.33333333315,
      "d": 458.33333333334303,
      "v": 71
    },
    {
      "midi": 65,
      "hit": false,
      "t": 107104.16666666648,
      "d": 255.20833333334303,
      "v": 59
    },
    {
      "midi": 56,
      "hit": false,
      "t": 107161.45833333315,
      "d": 104.16666666667152,
      "v": 54
    },
    {
      "midi": 53,
      "hit": false,
      "t": 107302.08333333315,
      "d": 125.00000000001455,
      "v": 72
    },
    {
      "midi": 75,
      "hit": false,
      "t": 107401.0416666665,
      "d": 156.25,
      "v": 47
    },
    {
      "midi": 49,
      "hit": false,
      "t": 107458.33333333317,
      "d": 161.45833333332848,
      "v": 59
    },
    {
      "midi": 44,
      "hit": false,
      "t": 107619.7916666665,
      "d": 145.83333333332848,
      "v": 61
    },
    {
      "midi": 77,
      "hit": false,
      "t": 107776.0416666665,
      "d": 562.4999999999854,
      "v": 88
    },
    {
      "midi": 49,
      "hit": false,
      "t": 107791.6666666665,
      "d": 187.5,
      "v": 57
    },
    {
      "midi": 73,
      "hit": false,
      "t": 107812.49999999983,
      "d": 505.2083333333285,
      "v": 59
    },
    {
      "midi": 44,
      "hit": false,
      "t": 107984.37499999983,
      "d": 239.58333333332848,
      "v": 57
    },
    {
      "midi": 79,
      "hit": false,
      "t": 108302.08333333315,
      "d": 489.58333333331393,
      "v": 70
    },
    {
      "midi": 75,
      "hit": false,
      "t": 108317.70833333315,
      "d": 302.0833333333285,
      "v": 63
    },
    {
      "midi": 39,
      "hit": false,
      "t": 108322.91666666648,
      "d": 250,
      "v": 55
    },
    {
      "midi": 46,
      "hit": false,
      "t": 108562.49999999981,
      "d": 223.95833333332848,
      "v": 70
    },
    {
      "midi": 77,
      "hit": false,
      "t": 108760.41666666648,
      "d": 395.83333333331393,
      "v": 76
    },
    {
      "midi": 73,
      "hit": false,
      "t": 108765.62499999981,
      "d": 130.20833333332848,
      "v": 59
    },
    {
      "midi": 51,
      "hit": false,
      "t": 108770.83333333314,
      "d": 151.04166666667152,
      "v": 59
    },
    {
      "midi": 55,
      "hit": false,
      "t": 108958.33333333314,
      "d": 62.5,
      "v": 47
    },
    {
      "midi": 73,
      "hit": false,
      "t": 109145.83333333314,
      "d": 62.49999999998545,
      "v": 58
    },
    {
      "midi": 58,
      "hit": false,
      "t": 109145.83333333314,
      "d": 255.20833333331393,
      "v": 64
    },
    {
      "midi": 70,
      "hit": false,
      "t": 109151.04166666647,
      "d": 93.74999999998545,
      "v": 53
    },
    {
      "midi": 63,
      "hit": false,
      "t": 109322.91666666645,
      "d": 218.75,
      "v": 71
    },
    {
      "midi": 67,
      "hit": false,
      "t": 109604.16666666645,
      "d": 270.8333333333285,
      "v": 71
    },
    {
      "midi": 73,
      "hit": false,
      "t": 109687.49999999978,
      "d": 291.66666666665697,
      "v": 15
    },
    {
      "midi": 63,
      "hit": false,
      "t": 109880.20833333311,
      "d": 197.91666666665697,
      "v": 61
    },
    {
      "midi": 65,
      "hit": false,
      "t": 110072.91666666644,
      "d": 401.04166666665697,
      "v": 58
    },
    {
      "midi": 58,
      "hit": false,
      "t": 110098.9583333331,
      "d": 88.54166666667152,
      "v": 64
    },
    {
      "midi": 55,
      "hit": false,
      "t": 110364.5833333331,
      "d": 93.75,
      "v": 15
    },
    {
      "midi": 61,
      "hit": false,
      "t": 110453.12499999977,
      "d": 114.58333333332848,
      "v": 80
    },
    {
      "midi": 51,
      "hit": false,
      "t": 110494.79166666642,
      "d": 187.5,
      "v": 64
    },
    {
      "midi": 46,
      "hit": false,
      "t": 110703.12499999975,
      "d": 109.375,
      "v": 64
    },
    {
      "midi": 46,
      "hit": false,
      "t": 110901.04166666642,
      "d": 26.041666666671517,
      "v": 15
    },
    {
      "midi": 61,
      "hit": false,
      "t": 110947.91666666642,
      "d": 791.666666666657,
      "v": 72
    },
    {
      "midi": 39,
      "hit": false,
      "t": 110989.5833333331,
      "d": 234.37499999998545,
      "v": 54
    },
    {
      "midi": 46,
      "hit": false,
      "t": 111218.74999999975,
      "d": 223.95833333332848,
      "v": 59
    },
    {
      "midi": 51,
      "hit": false,
      "t": 111421.87499999975,
      "d": 213.54166666665697,
      "v": 55
    },
    {
      "midi": 58,
      "hit": false,
      "t": 111640.62499999974,
      "d": 328.12500000001455,
      "v": 61
    },
    {
      "midi": 55,
      "hit": false,
      "t": 111697.91666666641,
      "d": 203.12500000001455,
      "v": 34
    },
    {
      "midi": 51,
      "hit": false,
      "t": 111890.62499999975,
      "d": 218.75,
      "v": 47
    },
    {
      "midi": 46,
      "hit": false,
      "t": 112130.20833333308,
      "d": 109.375,
      "v": 48
    },
    {
      "midi": 70,
      "hit": false,
      "t": 112588.54166666641,
      "d": 1729.1666666666279,
      "v": 72
    },
    {
      "midi": 44,
      "hit": false,
      "t": 112645.83333333308,
      "d": 343.74999999998545,
      "v": 47
    },
    {
      "midi": 51,
      "hit": false,
      "t": 112984.37499999974,
      "d": 192.70833333332848,
      "v": 51
    },
    {
      "midi": 54,
      "hit": false,
      "t": 113197.9166666664,
      "d": 197.91666666667152,
      "v": 42
    },
    {
      "midi": 58,
      "hit": false,
      "t": 113354.1666666664,
      "d": 93.75,
      "v": 59
    },
    {
      "midi": 60,
      "hit": false,
      "t": 113531.24999999972,
      "d": 151.04166666667152,
      "v": 64
    },
    {
      "midi": 66,
      "hit": false,
      "t": 113682.2916666664,
      "d": 286.4583333333285,
      "v": 61
    },
    {
      "midi": 42,
      "hit": false,
      "t": 113833.33333333307,
      "d": 265.62499999998545,
      "v": 80
    },
    {
      "midi": 49,
      "hit": false,
      "t": 114026.04166666638,
      "d": 156.25,
      "v": 64
    },
    {
      "midi": 54,
      "hit": false,
      "t": 114182.29166666638,
      "d": 83.33333333332848,
      "v": 68
    },
    {
      "midi": 58,
      "hit": false,
      "t": 114333.33333333304,
      "d": 151.04166666667152,
      "v": 80
    },
    {
      "midi": 61,
      "hit": false,
      "t": 114510.41666666638,
      "d": 161.45833333332848,
      "v": 80
    },
    {
      "midi": 66,
      "hit": false,
      "t": 114656.24999999971,
      "d": 229.16666666665697,
      "v": 64
    },
    {
      "midi": 72,
      "hit": false,
      "t": 114880.20833333304,
      "d": 968.7499999999854,
      "v": 80
    },
    {
      "midi": 41,
      "hit": false,
      "t": 114927.08333333304,
      "d": 260.4166666666715,
      "v": 55
    },
    {
      "midi": 48,
      "hit": false,
      "t": 115124.99999999971,
      "d": 197.91666666667152,
      "v": 64
    },
    {
      "midi": 53,
      "hit": false,
      "t": 115328.12499999971,
      "d": 104.16666666667152,
      "v": 76
    },
    {
      "midi": 56,
      "hit": false,
      "t": 115515.62499999971,
      "d": 281.24999999998545,
      "v": 72
    },
    {
      "midi": 77,
      "hit": false,
      "t": 115770.83333333304,
      "d": 140.62499999998545,
      "v": 71
    },
    {
      "midi": 68,
      "hit": false,
      "t": 115791.66666666637,
      "d": 244.79166666665697,
      "v": 54
    },
    {
      "midi": 60,
      "hit": false,
      "t": 115817.70833333302,
      "d": 151.04166666667152,
      "v": 49
    },
    {
      "midi": 65,
      "hit": false,
      "t": 116119.79166666635,
      "d": 390.625,
      "v": 20
    },
    {
      "midi": 70,
      "hit": false,
      "t": 116458.33333333302,
      "d": 1760.4166666666279,
      "v": 59
    },
    {
      "midi": 44,
      "hit": false,
      "t": 116515.62499999968,
      "d": 328.125,
      "v": 45
    },
    {
      "midi": 51,
      "hit": false,
      "t": 116838.54166666635,
      "d": 177.08333333332848,
      "v": 59
    },
    {
      "midi": 54,
      "hit": false,
      "t": 117020.83333333301,
      "d": 270.8333333333285,
      "v": 45
    },
    {
      "midi": 58,
      "hit": false,
      "t": 117182.29166666634,
      "d": 93.75,
      "v": 71
    },
    {
      "midi": 60,
      "hit": false,
      "t": 117374.99999999967,
      "d": 177.08333333332848,
      "v": 72
    },
    {
      "midi": 66,
      "hit": false,
      "t": 117546.87499999967,
      "d": 182.29166666667152,
      "v": 59
    },
    {
      "midi": 42,
      "hit": false,
      "t": 117671.87499999967,
      "d": 244.79166666665697,
      "v": 72
    },
    {
      "midi": 49,
      "hit": false,
      "t": 117843.74999999967,
      "d": 145.83333333331393,
      "v": 64
    },
    {
      "midi": 54,
      "hit": false,
      "t": 117984.37499999965,
      "d": 93.75,
      "v": 72
    },
    {
      "midi": 58,
      "hit": false,
      "t": 118135.41666666632,
      "d": 151.04166666665697,
      "v": 80
    },
    {
      "midi": 61,
      "hit": false,
      "t": 118328.12499999965,
      "d": 177.08333333332848,
      "v": 80
    },
    {
      "midi": 66,
      "hit": false,
      "t": 118473.95833333298,
      "d": 182.29166666667152,
      "v": 72
    },
    {
      "midi": 72,
      "hit": false,
      "t": 118656.24999999965,
      "d": 864.583333333343,
      "v": 88
    },
    {
      "midi": 41,
      "hit": false,
      "t": 118682.29166666632,
      "d": 265.62500000001455,
      "v": 64
    },
    {
      "midi": 48,
      "hit": false,
      "t": 118880.208333333,
      "d": 182.29166666667152,
      "v": 71
    },
    {
      "midi": 53,
      "hit": false,
      "t": 119067.708333333,
      "d": 93.75,
      "v": 77
    },
    {
      "midi": 56,
      "hit": false,
      "t": 119234.37499999967,
      "d": 286.4583333333285,
      "v": 80
    },
    {
      "midi": 77,
      "hit": false,
      "t": 119453.12499999967,
      "d": 182.29166666665697,
      "v": 80
    },
    {
      "midi": 68,
      "hit": false,
      "t": 119473.958333333,
      "d": 197.91666666665697,
      "v": 62
    },
    {
      "midi": 60,
      "hit": false,
      "t": 119479.16666666632,
      "d": 156.25,
      "v": 68
    },
    {
      "midi": 65,
      "hit": false,
      "t": 119729.16666666632,
      "d": 276.0416666666715,
      "v": 54
    },
    {
      "midi": 78,
      "hit": false,
      "t": 120083.333333333,
      "d": 1557.291666666657,
      "v": 72
    },
    {
      "midi": 39,
      "hit": false,
      "t": 120145.833333333,
      "d": 458.33333333331393,
      "v": 55
    },
    {
      "midi": 46,
      "hit": false,
      "t": 120520.83333333298,
      "d": 166.66666666665697,
      "v": 29
    },
    {
      "midi": 51,
      "hit": false,
      "t": 120703.12499999964,
      "d": 72.91666666667152,
      "v": 56
    },
    {
      "midi": 58,
      "hit": false,
      "t": 121088.54166666631,
      "d": 62.5,
      "v": 51
    },
    {
      "midi": 63,
      "hit": false,
      "t": 121270.83333333298,
      "d": 78.125,
      "v": 55
    },
    {
      "midi": 66,
      "hit": false,
      "t": 121437.49999999965,
      "d": 203.125,
      "v": 64
    },
    {
      "midi": 70,
      "hit": false,
      "t": 121661.45833333298,
      "d": 135.41666666667152,
      "v": 52
    },
    {
      "midi": 77,
      "hit": false,
      "t": 121807.29166666632,
      "d": 432.29166666665697,
      "v": 91
    },
    {
      "midi": 65,
      "hit": false,
      "t": 121822.91666666632,
      "d": 447.91666666665697,
      "v": 71
    },
    {
      "midi": 66,
      "hit": false,
      "t": 121984.37499999965,
      "d": 145.83333333332848,
      "v": 64
    },
    {
      "midi": 70,
      "hit": false,
      "t": 122166.66666666631,
      "d": 130.20833333334303,
      "v": 51
    },
    {
      "midi": 74,
      "hit": false,
      "t": 122307.29166666632,
      "d": 307.2916666666715,
      "v": 80
    },
    {
      "midi": 62,
      "hit": false,
      "t": 122322.91666666632,
      "d": 432.2916666666715,
      "v": 62
    },
    {
      "midi": 66,
      "hit": false,
      "t": 122489.583333333,
      "d": 125,
      "v": 64
    },
    {
      "midi": 70,
      "hit": false,
      "t": 122619.79166666632,
      "d": 135.41666666667152,
      "v": 58
    },
    {
      "midi": 63,
      "hit": false,
      "t": 122729.16666666632,
      "d": 88.54166666667152,
      "v": 80
    },
    {
      "midi": 75,
      "hit": false,
      "t": 122760.41666666632,
      "d": 276.0416666666715,
      "v": 71
    },
    {
      "midi": 66,
      "hit": false,
      "t": 122880.208333333,
      "d": 119.79166666667152,
      "v": 72
    },
    {
      "midi": 70,
      "hit": false,
      "t": 123041.66666666632,
      "d": 36.45833333332848,
      "v": 39
    },
    {
      "midi": 62,
      "hit": false,
      "t": 123119.79166666632,
      "d": 843.7500000000291,
      "v": 59
    },
    {
      "midi": 80,
      "hit": false,
      "t": 123302.083333333,
      "d": 114.58333333334303,
      "v": 69
    },
    {
      "midi": 82,
      "hit": false,
      "t": 123312.49999999967,
      "d": 708.333333333343,
      "v": 68
    },
    {
      "midi": 66,
      "hit": false,
      "t": 123463.54166666634,
      "d": 192.70833333334303,
      "v": 72
    },
    {
      "midi": 70,
      "hit": false,
      "t": 123624.99999999968,
      "d": 88.54166666667152,
      "v": 72
    },
    {
      "midi": 70,
      "hit": false,
      "t": 123802.08333333302,
      "d": 177.08333333332848,
      "v": 71
    },
    {
      "midi": 78,
      "hit": false,
      "t": 123999.99999999968,
      "d": 187.49999999998545,
      "v": 72
    },
    {
      "midi": 82,
      "hit": false,
      "t": 124135.41666666634,
      "d": 687.5,
      "v": 71
    },
    {
      "midi": 63,
      "hit": false,
      "t": 124307.29166666634,
      "d": 531.25,
      "v": 72
    },
    {
      "midi": 66,
      "hit": false,
      "t": 124494.79166666634,
      "d": 276.0416666666715,
      "v": 64
    },
    {
      "midi": 70,
      "hit": false,
      "t": 124661.45833333301,
      "d": 98.95833333332848,
      "v": 80
    },
    {
      "midi": 70,
      "hit": false,
      "t": 124864.58333333301,
      "d": 218.75,
      "v": 59
    },
    {
      "midi": 78,
      "hit": false,
      "t": 125046.87499999968,
      "d": 187.5,
      "v": 47
    },
    {
      "midi": 82,
      "hit": false,
      "t": 125223.95833333301,
      "d": 291.66666666668607,
      "v": 71
    },
    {
      "midi": 80,
      "hit": false,
      "t": 125479.16666666635,
      "d": 760.4166666666861,
      "v": 64
    },
    {
      "midi": 60,
      "hit": false,
      "t": 125505.20833333302,
      "d": 843.7500000000291,
      "v": 50
    },
    {
      "midi": 56,
      "hit": false,
      "t": 125531.2499999997,
      "d": 515.6250000000146,
      "v": 38
    },
    {
      "midi": 64,
      "hit": false,
      "t": 125776.04166666637,
      "d": 546.8750000000146,
      "v": 55
    },
    {
      "midi": 68,
      "hit": false,
      "t": 125973.95833333304,
      "d": 229.16666666667152,
      "v": 55
    },
    {
      "midi": 72,
      "hit": false,
      "t": 126187.49999999971,
      "d": 270.83333333334303,
      "v": 64
    },
    {
      "midi": 56,
      "hit": false,
      "t": 126296.87499999971,
      "d": 130.20833333334303,
      "v": 23
    },
    {
      "midi": 76,
      "hit": false,
      "t": 126437.49999999972,
      "d": 270.8333333333285,
      "v": 68
    },
    {
      "midi": 80,
      "hit": false,
      "t": 126708.33333333305,
      "d": 78.125,
      "v": 61
    },
    {
      "midi": 80,
      "hit": false,
      "t": 127187.49999999972,
      "d": 1973.9583333333285,
      "v": 72
    },
    {
      "midi": 77,
      "hit": false,
      "t": 127213.5416666664,
      "d": 484.375,
      "v": 57
    },
    {
      "midi": 49,
      "hit": false,
      "t": 127223.95833333307,
      "d": 401.04166666665697,
      "v": 56
    },
    {
      "midi": 56,
      "hit": false,
      "t": 127588.5416666664,
      "d": 239.58333333332848,
      "v": 59
    },
    {
      "midi": 61,
      "hit": false,
      "t": 127828.12499999972,
      "d": 276.04166666665697,
      "v": 68
    },
    {
      "midi": 65,
      "hit": false,
      "t": 128020.83333333305,
      "d": 83.33333333332848,
      "v": 59
    },
    {
      "midi": 68,
      "hit": false,
      "t": 128171.87499999971,
      "d": 187.5,
      "v": 64
    },
    {
      "midi": 73,
      "hit": false,
      "t": 128380.20833333304,
      "d": 203.125,
      "v": 56
    },
    {
      "midi": 56,
      "hit": false,
      "t": 128505.20833333304,
      "d": 354.1666666666715,
      "v": 80
    },
    {
      "midi": 53,
      "hit": false,
      "t": 128546.87499999971,
      "d": 187.5,
      "v": 47
    },
    {
      "midi": 60,
      "hit": false,
      "t": 128708.33333333304,
      "d": 291.6666666666715,
      "v": 64
    },
    {
      "midi": 65,
      "hit": false,
      "t": 128864.58333333304,
      "d": 151.04166666667152,
      "v": 64
    },
    {
      "midi": 68,
      "hit": false,
      "t": 128999.99999999971,
      "d": 151.04166666667152,
      "v": 88
    },
    {
      "midi": 72,
      "hit": false,
      "t": 129151.04166666638,
      "d": 166.66666666667152,
      "v": 77
    },
    {
      "midi": 77,
      "hit": false,
      "t": 129312.49999999972,
      "d": 57.291666666656965,
      "v": 64
    },
    {
      "midi": 59,
      "hit": false,
      "t": 129411.45833333305,
      "d": 1046.875,
      "v": 57
    },
    {
      "midi": 56,
      "hit": false,
      "t": 129427.08333333305,
      "d": 1078.125,
      "v": 39
    },
    {
      "midi": 83,
      "hit": false,
      "t": 129578.12499999972,
      "d": 489.5833333333285,
      "v": 92
    },
    {
      "midi": 80,
      "hit": false,
      "t": 129588.5416666664,
      "d": 723.9583333333285,
      "v": 80
    },
    {
      "midi": 64,
      "hit": false,
      "t": 129796.87499999972,
      "d": 666.666666666657,
      "v": 64
    },
    {
      "midi": 68,
      "hit": false,
      "t": 129968.74999999972,
      "d": 265.625,
      "v": 71
    },
    {
      "midi": 85,
      "hit": false,
      "t": 130296.87499999972,
      "d": 255.20833333332848,
      "v": 90
    },
    {
      "midi": 76,
      "hit": false,
      "t": 130494.79166666638,
      "d": 78.125,
      "v": 32
    },
    {
      "midi": 80,
      "hit": false,
      "t": 130854.16666666638,
      "d": 1770.8333333333285,
      "v": 80
    },
    {
      "midi": 77,
      "hit": false,
      "t": 130874.99999999971,
      "d": 390.625,
      "v": 59
    },
    {
      "midi": 49,
      "hit": false,
      "t": 130895.83333333304,
      "d": 286.4583333333285,
      "v": 59
    },
    {
      "midi": 56,
      "hit": false,
      "t": 131140.6249999997,
      "d": 192.70833333334303,
      "v": 72
    },
    {
      "midi": 61,
      "hit": false,
      "t": 131333.33333333305,
      "d": 229.16666666665697,
      "v": 72
    },
    {
      "midi": 65,
      "hit": false,
      "t": 131499.9999999997,
      "d": 125,
      "v": 72
    },
    {
      "midi": 68,
      "hit": false,
      "t": 131656.2499999997,
      "d": 192.70833333331393,
      "v": 64
    },
    {
      "midi": 73,
      "hit": false,
      "t": 131822.91666666637,
      "d": 229.16666666665697,
      "v": 64
    },
    {
      "midi": 56,
      "hit": false,
      "t": 131973.95833333302,
      "d": 484.3750000000291,
      "v": 80
    },
    {
      "midi": 53,
      "hit": false,
      "t": 132015.62499999968,
      "d": 208.33333333337214,
      "v": 42
    },
    {
      "midi": 60,
      "hit": false,
      "t": 132156.2499999997,
      "d": 312.5,
      "v": 72
    },
    {
      "midi": 65,
      "hit": false,
      "t": 132286.45833333305,
      "d": 218.75,
      "v": 64
    },
    {
      "midi": 68,
      "hit": false,
      "t": 132447.9166666664,
      "d": 151.04166666665697,
      "v": 80
    },
    {
      "midi": 72,
      "hit": false,
      "t": 132624.9999999997,
      "d": 187.5,
      "v": 72
    },
    {
      "midi": 77,
      "hit": false,
      "t": 132796.8749999997,
      "d": 93.75,
      "v": 72
    },
    {
      "midi": 59,
      "hit": false,
      "t": 132890.6249999997,
      "d": 927.083333333343,
      "v": 63
    },
    {
      "midi": 56,
      "hit": false,
      "t": 132906.2499999997,
      "d": 890.625,
      "v": 59
    },
    {
      "midi": 83,
      "hit": false,
      "t": 133083.33333333305,
      "d": 869.791666666657,
      "v": 90
    },
    {
      "midi": 80,
      "hit": false,
      "t": 133093.7499999997,
      "d": 385.41666666665697,
      "v": 78
    },
    {
      "midi": 64,
      "hit": false,
      "t": 133312.4999999997,
      "d": 531.25,
      "v": 72
    },
    {
      "midi": 68,
      "hit": false,
      "t": 133494.79166666637,
      "d": 401.04166666668607,
      "v": 92
    },
    {
      "midi": 71,
      "hit": false,
      "t": 133697.91666666637,
      "d": 239.58333333334303,
      "v": 80
    },
    {
      "midi": 80,
      "hit": false,
      "t": 133880.20833333305,
      "d": 302.08333333331393,
      "v": 92
    },
    {
      "midi": 76,
      "hit": false,
      "t": 134104.16666666637,
      "d": 93.75,
      "v": 80
    },
    {
      "midi": 85,
      "hit": false,
      "t": 134369.79166666637,
      "d": 843.75,
      "v": 91
    },
    {
      "midi": 61,
      "hit": false,
      "t": 134395.83333333302,
      "d": 255.20833333334303,
      "v": 64
    },
    {
      "midi": 59,
      "hit": false,
      "t": 134411.45833333302,
      "d": 229.16666666668607,
      "v": 64
    },
    {
      "midi": 64,
      "hit": false,
      "t": 134416.66666666637,
      "d": 546.875,
      "v": 52
    },
    {
      "midi": 68,
      "hit": false,
      "t": 134635.41666666637,
      "d": 390.625,
      "v": 80
    },
    {
      "midi": 71,
      "hit": false,
      "t": 134843.7499999997,
      "d": 151.04166666665697,
      "v": 80
    },
    {
      "midi": 73,
      "hit": false,
      "t": 134999.9999999997,
      "d": 125,
      "v": 88
    },
    {
      "midi": 80,
      "hit": false,
      "t": 135156.2499999997,
      "d": 166.66666666665697,
      "v": 72
    },
    {
      "midi": 76,
      "hit": false,
      "t": 135312.4999999997,
      "d": 229.16666666665697,
      "v": 80
    },
    {
      "midi": 61,
      "hit": false,
      "t": 135473.95833333302,
      "d": 182.29166666668607,
      "v": 72
    },
    {
      "midi": 88,
      "hit": false,
      "t": 135473.95833333302,
      "d": 572.916666666657,
      "v": 104
    },
    {
      "midi": 64,
      "hit": false,
      "t": 135479.16666666637,
      "d": 213.54166666668607,
      "v": 63
    },
    {
      "midi": 68,
      "hit": false,
      "t": 135619.79166666637,
      "d": 130.20833333334303,
      "v": 64
    },
    {
      "midi": 71,
      "hit": false,
      "t": 135739.58333333305,
      "d": 161.45833333331393,
      "v": 72
    },
    {
      "midi": 73,
      "hit": false,
      "t": 135869.79166666637,
      "d": 109.375,
      "v": 80
    },
    {
      "midi": 74,
      "hit": false,
      "t": 135947.91666666637,
      "d": 57.291666666656965,
      "v": 68
    },
    {
      "midi": 76,
      "hit": false,
      "t": 135947.91666666637,
      "d": 98.95833333331393,
      "v": 68
    },
    {
      "midi": 85,
      "hit": false,
      "t": 136057.29166666634,
      "d": 151.04166666665697,
      "v": 92
    },
    {
      "midi": 80,
      "hit": false,
      "t": 136213.54166666634,
      "d": 140.625,
      "v": 88
    },
    {
      "midi": 92,
      "hit": false,
      "t": 136385.41666666634,
      "d": 541.6666666666279,
      "v": 110
    },
    {
      "midi": 64,
      "hit": false,
      "t": 136395.833333333,
      "d": 98.95833333331393,
      "v": 68
    },
    {
      "midi": 68,
      "hit": false,
      "t": 136406.24999999965,
      "d": 135.41666666665697,
      "v": 78
    },
    {
      "midi": 71,
      "hit": false,
      "t": 136463.5416666663,
      "d": 125,
      "v": 47
    },
    {
      "midi": 73,
      "hit": false,
      "t": 136588.5416666663,
      "d": 57.291666666656965,
      "v": 68
    },
    {
      "midi": 75,
      "hit": false,
      "t": 136703.12499999962,
      "d": 114.58333333334303,
      "v": 71
    },
    {
      "midi": 76,
      "hit": false,
      "t": 136781.24999999962,
      "d": 88.54166666668607,
      "v": 64
    },
    {
      "midi": 80,
      "hit": false,
      "t": 136864.58333333296,
      "d": 67.70833333334303,
      "v": 92
    },
    {
      "midi": 88,
      "hit": false,
      "t": 137005.20833333296,
      "d": 307.29166666665697,
      "v": 92
    },
    {
      "midi": 83,
      "hit": false,
      "t": 137140.62499999962,
      "d": 187.5,
      "v": 72
    },
    {
      "midi": 92,
      "hit": false,
      "t": 137369.79166666628,
      "d": 286.45833333331393,
      "v": 92
    },
    {
      "midi": 68,
      "hit": false,
      "t": 137395.83333333294,
      "d": 166.66666666665697,
      "v": 71
    },
    {
      "midi": 70,
      "hit": false,
      "t": 137536.45833333294,
      "d": 36.45833333331393,
      "v": 80
    },
    {
      "midi": 69,
      "hit": false,
      "t": 137598.95833333294,
      "d": 276.04166666665697,
      "v": 64
    },
    {
      "midi": 73,
      "hit": false,
      "t": 137713.54166666625,
      "d": 125,
      "v": 80
    },
    {
      "midi": 80,
      "hit": false,
      "t": 137828.1249999996,
      "d": 135.41666666668607,
      "v": 91
    },
    {
      "midi": 85,
      "hit": false,
      "t": 137958.33333333294,
      "d": 187.5000000000291,
      "v": 80
    },
    {
      "midi": 81,
      "hit": false,
      "t": 138093.74999999962,
      "d": 385.41666666665697,
      "v": 92
    },
    {
      "midi": 90,
      "hit": false,
      "t": 138234.37499999962,
      "d": 1421.8750000000582,
      "v": 92
    },
    {
      "midi": 66,
      "hit": false,
      "t": 138244.79166666628,
      "d": 447.91666666668607,
      "v": 80
    },
    {
      "midi": 69,
      "hit": false,
      "t": 138390.62499999962,
      "d": 270.83333333334303,
      "v": 55
    },
    {
      "midi": 73,
      "hit": false,
      "t": 138499.99999999962,
      "d": 135.41666666665697,
      "v": 72
    },
    {
      "midi": 80,
      "hit": false,
      "t": 138656.24999999962,
      "d": 145.83333333334303,
      "v": 80
    },
    {
      "midi": 79,
      "hit": false,
      "t": 138692.70833333296,
      "d": 52.083333333343035,
      "v": 52
    },
    {
      "midi": 85,
      "hit": false,
      "t": 138786.45833333296,
      "d": 166.66666666668607,
      "v": 72
    },
    {
      "midi": 81,
      "hit": false,
      "t": 138916.6666666663,
      "d": 364.58333333334303,
      "v": 71
    },
    {
      "midi": 65,
      "hit": false,
      "t": 139067.708333333,
      "d": 468.75,
      "v": 92
    },
    {
      "midi": 66,
      "hit": false,
      "t": 139088.54166666634,
      "d": 515.625,
      "v": 91
    },
    {
      "midi": 69,
      "hit": false,
      "t": 139161.458333333,
      "d": 411.45833333334303,
      "v": 58
    },
    {
      "midi": 73,
      "hit": false,
      "t": 139270.833333333,
      "d": 281.25,
      "v": 80
    },
    {
      "midi": 78,
      "hit": false,
      "t": 139468.74999999965,
      "d": 192.70833333337214,
      "v": 92
    },
    {
      "midi": 85,
      "hit": false,
      "t": 139619.79166666634,
      "d": 203.1250000000291,
      "v": 80
    },
    {
      "midi": 81,
      "hit": false,
      "t": 139807.29166666637,
      "d": 140.625,
      "v": 63
    },
    {
      "midi": 78,
      "hit": false,
      "t": 139817.70833333302,
      "d": 208.33333333334303,
      "v": 62
    },
    {
      "midi": 90,
      "hit": false,
      "t": 140036.45833333302,
      "d": 1421.8749999999418,
      "v": 92
    },
    {
      "midi": 64,
      "hit": false,
      "t": 140062.49999999968,
      "d": 624.9999999999709,
      "v": 71
    },
    {
      "midi": 66,
      "hit": false,
      "t": 140239.583333333,
      "d": 479.16666666665697,
      "v": 80
    },
    {
      "midi": 69,
      "hit": false,
      "t": 140390.62499999965,
      "d": 203.125,
      "v": 43
    },
    {
      "midi": 73,
      "hit": false,
      "t": 140463.5416666663,
      "d": 182.29166666668607,
      "v": 80
    },
    {
      "midi": 78,
      "hit": false,
      "t": 140609.37499999965,
      "d": 125,
      "v": 91
    },
    {
      "midi": 85,
      "hit": false,
      "t": 140749.99999999965,
      "d": 234.375,
      "v": 71
    },
    {
      "midi": 81,
      "hit": false,
      "t": 140838.5416666663,
      "d": 140.625,
      "v": 71
    },
    {
      "midi": 63,
      "hit": false,
      "t": 140958.33333333296,
      "d": 489.58333333334303,
      "v": 91
    },
    {
      "midi": 66,
      "hit": false,
      "t": 140984.37499999965,
      "d": 489.58333333334303,
      "v": 64
    },
    {
      "midi": 69,
      "hit": false,
      "t": 141135.4166666663,
      "d": 296.875,
      "v": 47
    },
    {
      "midi": 73,
      "hit": false,
      "t": 141203.12499999965,
      "d": 260.41666666665697,
      "v": 80
    },
    {
      "midi": 78,
      "hit": false,
      "t": 141333.333333333,
      "d": 88.54166666665697,
      "v": 80
    },
    {
      "midi": 85,
      "hit": false,
      "t": 141468.74999999965,
      "d": 187.5000000000291,
      "v": 80
    },
    {
      "midi": 81,
      "hit": false,
      "t": 141604.16666666634,
      "d": 458.33333333331393,
      "v": 72
    },
    {
      "midi": 93,
      "hit": false,
      "t": 141812.49999999968,
      "d": 317.70833333331393,
      "v": 110
    },
    {
      "midi": 61,
      "hit": false,
      "t": 141817.70833333302,
      "d": 234.3749999999709,
      "v": 72
    },
    {
      "midi": 64,
      "hit": false,
      "t": 141859.37499999968,
      "d": 281.2499999999709,
      "v": 43
    },
    {
      "midi": 69,
      "hit": false,
      "t": 142062.49999999965,
      "d": 203.125,
      "v": 50
    },
    {
      "midi": 73,
      "hit": false,
      "t": 142239.583333333,
      "d": 88.54166666665697,
      "v": 72
    },
    {
      "midi": 76,
      "hit": false,
      "t": 142395.833333333,
      "d": 192.70833333334303,
      "v": 80
    },
    {
      "midi": 97,
      "hit": false,
      "t": 142583.333333333,
      "d": 218.75,
      "v": 92
    },
    {
      "midi": 85,
      "hit": false,
      "t": 142817.708333333,
      "d": 62.5,
      "v": 71
    },
    {
      "midi": 78,
      "hit": false,
      "t": 143124.99999999965,
      "d": 1630.208333333314,
      "v": 92
    },
    {
      "midi": 59,
      "hit": false,
      "t": 143171.87499999965,
      "d": 619.791666666657,
      "v": 59
    },
    {
      "midi": 63,
      "hit": false,
      "t": 143354.1666666663,
      "d": 177.08333333334303,
      "v": 64
    },
    {
      "midi": 66,
      "hit": false,
      "t": 143520.833333333,
      "d": 98.95833333331393,
      "v": 80
    },
    {
      "midi": 66,
      "hit": false,
      "t": 143656.24999999965,
      "d": 104.16666666665697,
      "v": 91
    },
    {
      "midi": 73,
      "hit": false,
      "t": 143807.2916666663,
      "d": 151.04166666665697,
      "v": 64
    },
    {
      "midi": 69,
      "hit": false,
      "t": 143901.0416666663,
      "d": 317.70833333334303,
      "v": 72
    },
    {
      "midi": 57,
      "hit": false,
      "t": 144088.5416666663,
      "d": 552.0833333333139,
      "v": 92
    },
    {
      "midi": 61,
      "hit": false,
      "t": 144244.7916666663,
      "d": 411.45833333331393,
      "v": 92
    },
    {
      "midi": 64,
      "hit": false,
      "t": 144411.45833333296,
      "d": 276.04166666668607,
      "v": 72
    },
    {
      "midi": 66,
      "hit": false,
      "t": 144520.83333333296,
      "d": 187.5,
      "v": 91
    },
    {
      "midi": 73,
      "hit": false,
      "t": 144661.45833333296,
      "d": 260.41666666665697,
      "v": 84
    },
    {
      "midi": 75,
      "hit": false,
      "t": 144682.2916666663,
      "d": 15.625,
      "v": 14
    },
    {
      "midi": 69,
      "hit": false,
      "t": 144802.08333333296,
      "d": 88.54166666665697,
      "v": 71
    },
    {
      "midi": 70,
      "hit": false,
      "t": 144895.83333333296,
      "d": 2.6041666666569654,
      "v": 15
    },
    {
      "midi": 81,
      "hit": false,
      "t": 145072.91666666628,
      "d": 807.2916666666861,
      "v": 110
    },
    {
      "midi": 56,
      "hit": false,
      "t": 145083.33333333294,
      "d": 312.5,
      "v": 88
    },
    {
      "midi": 61,
      "hit": false,
      "t": 145322.91666666628,
      "d": 197.91666666665697,
      "v": 80
    },
    {
      "midi": 64,
      "hit": false,
      "t": 145473.95833333294,
      "d": 437.5000000000291,
      "v": 80
    },
    {
      "midi": 69,
      "hit": false,
      "t": 145640.6249999996,
      "d": 197.91666666668607,
      "v": 80
    },
    {
      "midi": 85,
      "hit": false,
      "t": 145833.33333333294,
      "d": 270.83333333337214,
      "v": 92
    },
    {
      "midi": 76,
      "hit": false,
      "t": 145859.37499999962,
      "d": 307.29166666668607,
      "v": 91
    },
    {
      "midi": 81,
      "hit": false,
      "t": 146067.70833333296,
      "d": 171.875,
      "v": 80
    },
    {
      "midi": 88,
      "hit": false,
      "t": 146447.9166666663,
      "d": 526.0416666666279,
      "v": 110
    },
    {
      "midi": 85,
      "hit": false,
      "t": 146458.33333333296,
      "d": 619.7916666666279,
      "v": 79
    },
    {
      "midi": 54,
      "hit": false,
      "t": 146468.74999999962,
      "d": 765.6249999999418,
      "v": 79
    },
    {
      "midi": 61,
      "hit": false,
      "t": 146848.95833333294,
      "d": 359.3749999999709,
      "v": 92
    },
    {
      "midi": 87,
      "hit": false,
      "t": 147151.04166666625,
      "d": 510.41666666668607,
      "v": 110
    },
    {
      "midi": 83,
      "hit": false,
      "t": 147161.4583333329,
      "d": 463.54166666668607,
      "v": 78
    },
    {
      "midi": 64,
      "hit": false,
      "t": 147197.91666666625,
      "d": 114.58333333331393,
      "v": 80
    },
    {
      "midi": 66,
      "hit": false,
      "t": 147395.8333333329,
      "d": 161.45833333334303,
      "v": 72
    },
    {
      "midi": 85,
      "hit": false,
      "t": 147593.7499999996,
      "d": 140.625,
      "v": 88
    },
    {
      "midi": 81,
      "hit": false,
      "t": 147593.7499999996,
      "d": 296.875,
      "v": 88
    },
    {
      "midi": 69,
      "hit": false,
      "t": 147687.4999999996,
      "d": 5.208333333343035,
      "v": 15
    },
    {
      "midi": 73,
      "hit": false,
      "t": 147802.08333333294,
      "d": 218.75,
      "v": 92
    },
    {
      "midi": 80,
      "hit": false,
      "t": 147979.16666666625,
      "d": 395.83333333334303,
      "v": 88
    },
    {
      "midi": 83,
      "hit": false,
      "t": 147984.3749999996,
      "d": 348.95833333334303,
      "v": 77
    },
    {
      "midi": 76,
      "hit": false,
      "t": 148020.83333333294,
      "d": 151.04166666668607,
      "v": 71
    },
    {
      "midi": 78,
      "hit": false,
      "t": 148166.66666666628,
      "d": 52.083333333343035,
      "v": 72
    },
    {
      "midi": 76,
      "hit": false,
      "t": 148307.29166666628,
      "d": 151.04166666665697,
      "v": 54
    },
    {
      "midi": 73,
      "hit": false,
      "t": 148468.7499999996,
      "d": 62.5,
      "v": 64
    },
    {
      "midi": 81,
      "hit": false,
      "t": 148505.20833333294,
      "d": 567.708333333343,
      "v": 90
    },
    {
      "midi": 78,
      "hit": false,
      "t": 148515.6249999996,
      "d": 463.54166666668607,
      "v": 78
    },
    {
      "midi": 71,
      "hit": false,
      "t": 148661.45833333294,
      "d": 72.91666666665697,
      "v": 35
    },
    {
      "midi": 69,
      "hit": false,
      "t": 148703.1249999996,
      "d": 15.625,
      "v": 15
    },
    {
      "midi": 67,
      "hit": false,
      "t": 148833.33333333294,
      "d": 98.95833333334303,
      "v": 34
    },
    {
      "midi": 61,
      "hit": false,
      "t": 148947.91666666628,
      "d": 67.70833333334303,
      "v": 70
    },
    {
      "midi": 80,
      "hit": false,
      "t": 148953.12499999962,
      "d": 166.66666666665697,
      "v": 88
    },
    {
      "midi": 76,
      "hit": false,
      "t": 148968.74999999962,
      "d": 270.83333333334303,
      "v": 64
    },
    {
      "midi": 62,
      "hit": false,
      "t": 149124.99999999962,
      "d": 135.41666666668607,
      "v": 68
    },
    {
      "midi": 78,
      "hit": false,
      "t": 149364.58333333296,
      "d": 208.33333333334303,
      "v": 88
    },
    {
      "midi": 54,
      "hit": false,
      "t": 149369.7916666663,
      "d": 125,
      "v": 72
    },
    {
      "midi": 75,
      "hit": false,
      "t": 149369.7916666663,
      "d": 244.79166666665697,
      "v": 72
    },
    {
      "midi": 61,
      "hit": false,
      "t": 149546.87499999965,
      "d": 171.8749999999709,
      "v": 51
    },
    {
      "midi": 76,
      "hit": false,
      "t": 149692.70833333296,
      "d": 98.95833333331393,
      "v": 68
    },
    {
      "midi": 54,
      "hit": false,
      "t": 149703.12499999962,
      "d": 62.5,
      "v": 88
    },
    {
      "midi": 73,
      "hit": false,
      "t": 149703.12499999962,
      "d": 119.79166666665697,
      "v": 64
    },
    {
      "midi": 76,
      "hit": false,
      "t": 150031.24999999962,
      "d": 270.83333333334303,
      "v": 78
    },
    {
      "midi": 73,
      "hit": false,
      "t": 150036.45833333296,
      "d": 343.75,
      "v": 64
    },
    {
      "midi": 42,
      "hit": false,
      "t": 150046.87499999962,
      "d": 270.83333333334303,
      "v": 63
    },
    {
      "midi": 49,
      "hit": false,
      "t": 150218.74999999962,
      "d": 166.66666666668607,
      "v": 72
    },
    {
      "midi": 52,
      "hit": false,
      "t": 150401.0416666663,
      "d": 62.5,
      "v": 63
    },
    {
      "midi": 75,
      "hit": false,
      "t": 150406.24999999965,
      "d": 348.95833333334303,
      "v": 78
    },
    {
      "midi": 71,
      "hit": false,
      "t": 150437.49999999965,
      "d": 276.04166666668607,
      "v": 58
    },
    {
      "midi": 54,
      "hit": false,
      "t": 150526.0416666663,
      "d": 182.29166666668607,
      "v": 64
    },
    {
      "midi": 57,
      "hit": false,
      "t": 150697.9166666663,
      "d": 234.3750000000291,
      "v": 63
    },
    {
      "midi": 73,
      "hit": false,
      "t": 150703.12499999965,
      "d": 78.125,
      "v": 78
    },
    {
      "midi": 69,
      "hit": false,
      "t": 150739.583333333,
      "d": 140.625,
      "v": 72
    },
    {
      "midi": 61,
      "hit": false,
      "t": 150859.37499999965,
      "d": 145.83333333334303,
      "v": 59
    },
    {
      "midi": 71,
      "hit": false,
      "t": 151031.24999999965,
      "d": 276.04166666668607,
      "v": 78
    },
    {
      "midi": 68,
      "hit": false,
      "t": 151036.458333333,
      "d": 390.6249999999709,
      "v": 72
    },
    {
      "midi": 64,
      "hit": false,
      "t": 151046.87499999965,
      "d": 104.16666666668607,
      "v": 55
    },
    {
      "midi": 61,
      "hit": false,
      "t": 151130.208333333,
      "d": 218.75,
      "v": 71
    },
    {
      "midi": 69,
      "hit": false,
      "t": 151374.99999999965,
      "d": 364.5833333332848,
      "v": 77
    },
    {
      "midi": 54,
      "hit": false,
      "t": 151385.4166666663,
      "d": 98.95833333331393,
      "v": 64
    },
    {
      "midi": 66,
      "hit": false,
      "t": 151385.4166666663,
      "d": 333.3333333332848,
      "v": 64
    },
    {
      "midi": 52,
      "hit": false,
      "t": 151588.54166666628,
      "d": 166.66666666665697,
      "v": 58
    },
    {
      "midi": 64,
      "hit": false,
      "t": 151708.33333333294,
      "d": 83.33333333334303,
      "v": 70
    },
    {
      "midi": 68,
      "hit": false,
      "t": 151718.7499999996,
      "d": 963.5416666666861,
      "v": 72
    },
    {
      "midi": 49,
      "hit": false,
      "t": 151770.83333333294,
      "d": 151.04166666668607,
      "v": 64
    },
    {
      "midi": 57,
      "hit": false,
      "t": 152119.79166666628,
      "d": 510.41666666665697,
      "v": 59
    },
    {
      "midi": 42,
      "hit": false,
      "t": 152156.24999999962,
      "d": 265.625,
      "v": 47
    },
    {
      "midi": 49,
      "hit": false,
      "t": 152390.62499999962,
      "d": 229.16666666665697,
      "v": 51
    },
    {
      "midi": 66,
      "hit": false,
      "t": 152578.12499999962,
      "d": 427.08333333334303,
      "v": 59
    },
    {
      "midi": 63,
      "hit": false,
      "t": 152630.20833333294,
      "d": 343.7500000000291,
      "v": 57
    },
    {
      "midi": 42,
      "hit": false,
      "t": 152635.41666666628,
      "d": 192.70833333334303,
      "v": 52
    },
    {
      "midi": 49,
      "hit": false,
      "t": 152843.74999999962,
      "d": 177.08333333334303,
      "v": 30
    },
    {
      "midi": 64,
      "hit": false,
      "t": 153015.62499999962,
      "d": 67.70833333334303,
      "v": 51
    },
    {
      "midi": 61,
      "hit": false,
      "t": 153020.83333333296,
      "d": 72.91666666665697,
      "v": 50
    },
    {
      "midi": 42,
      "hit": false,
      "t": 153067.70833333296,
      "d": 182.29166666665697,
      "v": 34
    },
    {
      "midi": 49,
      "hit": false,
      "t": 153265.62499999962,
      "d": 104.16666666665697,
      "v": 42
    },
    {
      "midi": 54,
      "hit": false,
      "t": 153713.54166666628,
      "d": 437.5000000000291,
      "v": 38
    },
    {
      "midi": 61,
      "hit": false,
      "t": 153723.95833333294,
      "d": 1270.8333333333721,
      "v": 46
    },
    {
      "midi": 44,
      "hit": false,
      "t": 153744.79166666628,
      "d": 286.45833333334303,
      "v": 48
    },
    {
      "midi": 63,
      "hit": false,
      "t": 153744.79166666628,
      "d": 1734.375000000029,
      "v": 32
    },
    {
      "midi": 51,
      "hit": false,
      "t": 154026.04166666628,
      "d": 145.83333333337214,
      "v": 34
    },
    {
      "midi": 44,
      "hit": false,
      "t": 154229.1666666663,
      "d": 187.5,
      "v": 44
    },
    {
      "midi": 56,
      "hit": false,
      "t": 154442.70833333296,
      "d": 380.20833333334303,
      "v": 57
    },
    {
      "midi": 51,
      "hit": false,
      "t": 154447.9166666663,
      "d": 98.95833333334303,
      "v": 30
    },
    {
      "midi": 44,
      "hit": false,
      "t": 154588.5416666663,
      "d": 130.20833333334303,
      "v": 34
    },
    {
      "midi": 51,
      "hit": false,
      "t": 154744.7916666663,
      "d": 98.95833333334303,
      "v": 30
    },
    {
      "midi": 58,
      "hit": false,
      "t": 154822.9166666663,
      "d": 177.08333333334303,
      "v": 57
    },
    {
      "midi": 44,
      "hit": false,
      "t": 154916.6666666663,
      "d": 125,
      "v": 31
    },
    {
      "midi": 51,
      "hit": false,
      "t": 155067.70833333296,
      "d": 98.95833333334303,
      "v": 36
    },
    {
      "midi": 44,
      "hit": false,
      "t": 155203.12499999965,
      "d": 135.41666666665697,
      "v": 44
    },
    {
      "midi": 51,
      "hit": false,
      "t": 155374.99999999965,
      "d": 104.16666666665697,
      "v": 38
    },
    {
      "midi": 61,
      "hit": false,
      "t": 155463.5416666663,
      "d": 98.95833333334303,
      "v": 72
    },
    {
      "midi": 44,
      "hit": false,
      "t": 155531.24999999965,
      "d": 109.375,
      "v": 34
    },
    {
      "midi": 51,
      "hit": false,
      "t": 155729.1666666663,
      "d": 177.08333333334303,
      "v": 15
    },
    {
      "midi": 60,
      "hit": false,
      "t": 155937.49999999965,
      "d": 489.58333333334303,
      "v": 59
    },
    {
      "midi": 66,
      "hit": false,
      "t": 155963.5416666663,
      "d": 593.75,
      "v": 61
    },
    {
      "midi": 44,
      "hit": false,
      "t": 155973.95833333296,
      "d": 223.95833333334303,
      "v": 43
    },
    {
      "midi": 63,
      "hit": false,
      "t": 155979.1666666663,
      "d": 552.083333333343,
      "v": 43
    },
    {
      "midi": 51,
      "hit": false,
      "t": 156218.74999999965,
      "d": 156.25,
      "v": 39
    },
    {
      "midi": 44,
      "hit": false,
      "t": 156406.24999999965,
      "d": 140.625,
      "v": 32
    },
    {
      "midi": 51,
      "hit": false,
      "t": 156588.5416666663,
      "d": 83.33333333334303,
      "v": 18
    },
    {
      "midi": 70,
      "hit": false,
      "t": 156703.12499999965,
      "d": 62.500000000029104,
      "v": 52
    },
    {
      "midi": 63,
      "hit": false,
      "t": 156708.333333333,
      "d": 78.1250000000291,
      "v": 48
    },
    {
      "midi": 44,
      "hit": false,
      "t": 156744.79166666634,
      "d": 135.41666666668607,
      "v": 34
    },
    {
      "midi": 51,
      "hit": false,
      "t": 156979.16666666637,
      "d": 197.91666666665697,
      "v": 15
    },
    {
      "midi": 61,
      "hit": false,
      "t": 157197.91666666637,
      "d": 843.75,
      "v": 58
    },
    {
      "midi": 54,
      "hit": false,
      "t": 157203.1249999997,
      "d": 692.708333333343,
      "v": 48
    },
    {
      "midi": 63,
      "hit": false,
      "t": 157203.1249999997,
      "d": 1291.666666666686,
      "v": 48
    },
    {
      "midi": 44,
      "hit": false,
      "t": 157208.33333333305,
      "d": 229.16666666668607,
      "v": 49
    },
    {
      "midi": 51,
      "hit": false,
      "t": 157427.08333333305,
      "d": 213.54166666668607,
      "v": 51
    },
    {
      "midi": 44,
      "hit": false,
      "t": 157651.0416666664,
      "d": 182.29166666665697,
      "v": 52
    },
    {
      "midi": 56,
      "hit": false,
      "t": 157833.33333333305,
      "d": 494.79166666665697,
      "v": 69
    },
    {
      "midi": 51,
      "hit": false,
      "t": 157843.7499999997,
      "d": 130.20833333334303,
      "v": 46
    },
    {
      "midi": 44,
      "hit": false,
      "t": 157999.9999999997,
      "d": 130.20833333331393,
      "v": 47
    },
    {
      "midi": 51,
      "hit": false,
      "t": 158135.41666666637,
      "d": 109.375,
      "v": 49
    },
    {
      "midi": 58,
      "hit": false,
      "t": 158244.79166666637,
      "d": 203.125,
      "v": 72
    },
    {
      "midi": 44,
      "hit": false,
      "t": 158281.2499999997,
      "d": 171.875,
      "v": 44
    },
    {
      "midi": 51,
      "hit": false,
      "t": 158458.33333333305,
      "d": 140.625,
      "v": 46
    },
    {
      "midi": 44,
      "hit": false,
      "t": 158614.58333333305,
      "d": 166.66666666668607,
      "v": 42
    },
    {
      "midi": 51,
      "hit": false,
      "t": 158776.0416666664,
      "d": 125.0000000000291,
      "v": 43
    },
    {
      "midi": 61,
      "hit": false,
      "t": 158880.20833333308,
      "d": 109.3750000000291,
      "v": 80
    },
    {
      "midi": 44,
      "hit": false,
      "t": 158937.49999999977,
      "d": 114.58333333334303,
      "v": 43
    },
    {
      "midi": 51,
      "hit": false,
      "t": 159088.54166666645,
      "d": 192.70833333334303,
      "v": 44
    },
    {
      "midi": 44,
      "hit": false,
      "t": 159296.8749999998,
      "d": 218.7499999999709,
      "v": 56
    },
    {
      "midi": 66,
      "hit": false,
      "t": 159322.91666666645,
      "d": 510.41666666668607,
      "v": 68
    },
    {
      "midi": 63,
      "hit": false,
      "t": 159333.3333333331,
      "d": 432.29166666668607,
      "v": 59
    },
    {
      "midi": 60,
      "hit": false,
      "t": 159343.74999999977,
      "d": 354.16666666668607,
      "v": 51
    },
    {
      "midi": 51,
      "hit": false,
      "t": 159499.99999999977,
      "d": 177.08333333334303,
      "v": 47
    },
    {
      "midi": 44,
      "hit": false,
      "t": 159677.0833333331,
      "d": 166.66666666668607,
      "v": 56
    },
    {
      "midi": 51,
      "hit": false,
      "t": 159854.16666666645,
      "d": 177.08333333334303,
      "v": 40
    },
    {
      "midi": 70,
      "hit": false,
      "t": 160031.2499999998,
      "d": 630.2083333333139,
      "v": 72
    },
    {
      "midi": 66,
      "hit": false,
      "t": 160046.8749999998,
      "d": 166.66666666665697,
      "v": 52
    },
    {
      "midi": 63,
      "hit": false,
      "t": 160062.4999999998,
      "d": 125,
      "v": 44
    },
    {
      "midi": 44,
      "hit": false,
      "t": 160067.70833333314,
      "d": 182.29166666665697,
      "v": 47
    },
    {
      "midi": 51,
      "hit": false,
      "t": 160281.2499999998,
      "d": 260.41666666665697,
      "v": 47
    },
    {
      "midi": 61,
      "hit": false,
      "t": 160499.9999999998,
      "d": 171.8749999999709,
      "v": 64
    },
    {
      "midi": 44,
      "hit": false,
      "t": 160541.66666666645,
      "d": 239.58333333331393,
      "v": 49
    },
    {
      "midi": 39,
      "hit": false,
      "t": 160770.8333333331,
      "d": 281.25,
      "v": 72
    },
    {
      "midi": 77,
      "hit": false,
      "t": 160999.99999999977,
      "d": 276.04166666665697,
      "v": 68
    },
    {
      "midi": 68,
      "hit": false,
      "t": 161005.2083333331,
      "d": 166.66666666665697,
      "v": 61
    },
    {
      "midi": 44,
      "hit": false,
      "t": 161036.4583333331,
      "d": 161.45833333331393,
      "v": 59
    },
    {
      "midi": 72,
      "hit": false,
      "t": 161062.49999999977,
      "d": 208.33333333331393,
      "v": 48
    },
    {
      "midi": 44,
      "hit": false,
      "t": 161348.95833333308,
      "d": 177.08333333334303,
      "v": 64
    },
    {
      "midi": 75,
      "hit": false,
      "t": 161369.79166666642,
      "d": 46.875,
      "v": 63
    },
    {
      "midi": 66,
      "hit": false,
      "t": 161380.20833333308,
      "d": 72.91666666668607,
      "v": 62
    },
    {
      "midi": 51,
      "hit": false,
      "t": 161562.49999999977,
      "d": 125,
      "v": 34
    },
    {
      "midi": 56,
      "hit": false,
      "t": 161692.7083333331,
      "d": 93.75,
      "v": 68
    },
    {
      "midi": 61,
      "hit": false,
      "t": 161729.16666666645,
      "d": 182.29166666665697,
      "v": 60
    },
    {
      "midi": 70,
      "hit": false,
      "t": 161729.16666666645,
      "d": 234.375,
      "v": 68
    },
    {
      "midi": 66,
      "hit": false,
      "t": 161739.5833333331,
      "d": 296.875,
      "v": 51
    },
    {
      "midi": 51,
      "hit": false,
      "t": 161874.99999999977,
      "d": 171.875,
      "v": 58
    },
    {
      "midi": 56,
      "hit": false,
      "t": 162067.7083333331,
      "d": 57.291666666656965,
      "v": 64
    },
    {
      "midi": 58,
      "hit": false,
      "t": 162109.37499999977,
      "d": 67.70833333334303,
      "v": 72
    },
    {
      "midi": 63,
      "hit": false,
      "t": 162161.4583333331,
      "d": 62.5,
      "v": 43
    },
    {
      "midi": 56,
      "hit": false,
      "t": 162296.87499999977,
      "d": 166.66666666665697,
      "v": 59
    },
    {
      "midi": 61,
      "hit": false,
      "t": 162437.49999999977,
      "d": 72.91666666665697,
      "v": 64
    },
    {
      "midi": 51,
      "hit": false,
      "t": 162499.99999999977,
      "d": 130.20833333331393,
      "v": 51
    },
    {
      "midi": 56,
      "hit": false,
      "t": 162666.66666666642,
      "d": 213.54166666665697,
      "v": 58
    },
    {
      "midi": 58,
      "hit": false,
      "t": 162838.54166666642,
      "d": 171.8749999999709,
      "v": 61
    },
    {
      "midi": 68,
      "hit": false,
      "t": 162838.54166666642,
      "d": 854.166666666657,
      "v": 62
    },
    {
      "midi": 51,
      "hit": false,
      "t": 162869.79166666642,
      "d": 218.7499999999709,
      "v": 52
    },
    {
      "midi": 66,
      "hit": false,
      "t": 162885.41666666642,
      "d": 765.6249999999709,
      "v": 33
    },
    {
      "midi": 44,
      "hit": false,
      "t": 163109.37499999974,
      "d": 151.04166666665697,
      "v": 52
    },
    {
      "midi": 49,
      "hit": false,
      "t": 163286.45833333305,
      "d": 135.41666666668607,
      "v": 62
    },
    {
      "midi": 60,
      "hit": false,
      "t": 163291.6666666664,
      "d": 380.20833333334303,
      "v": 62
    },
    {
      "midi": 42,
      "hit": false,
      "t": 163479.1666666664,
      "d": 62.5,
      "v": 47
    },
    {
      "midi": 63,
      "hit": false,
      "t": 163640.62499999974,
      "d": 93.75,
      "v": 72
    },
    {
      "midi": 42,
      "hit": false,
      "t": 163817.70833333308,
      "d": 125,
      "v": 47
    },
    {
      "midi": 37,
      "hit": false,
      "t": 163979.16666666642,
      "d": 119.79166666665697,
      "v": 64
    },
    {
      "midi": 61,
      "hit": false,
      "t": 164005.20833333308,
      "d": 46.875,
      "v": 69
    },
    {
      "midi": 70,
      "hit": false,
      "t": 164010.41666666642,
      "d": 98.95833333331393,
      "v": 68
    },
    {
      "midi": 77,
      "hit": false,
      "t": 164380.20833333308,
      "d": 281.2500000000291,
      "v": 88
    },
    {
      "midi": 68,
      "hit": false,
      "t": 164390.62499999974,
      "d": 177.08333333334303,
      "v": 60
    },
    {
      "midi": 39,
      "hit": false,
      "t": 164390.62499999974,
      "d": 192.70833333337214,
      "v": 68
    },
    {
      "midi": 72,
      "hit": false,
      "t": 164416.6666666664,
      "d": 317.70833333337214,
      "v": 58
    },
    {
      "midi": 44,
      "hit": false,
      "t": 164572.91666666642,
      "d": 135.41666666668607,
      "v": 52
    },
    {
      "midi": 51,
      "hit": false,
      "t": 164718.74999999977,
      "d": 78.125,
      "v": 90
    },
    {
      "midi": 75,
      "hit": false,
      "t": 164723.9583333331,
      "d": 52.08333333331393,
      "v": 68
    },
    {
      "midi": 66,
      "hit": false,
      "t": 164749.99999999977,
      "d": 62.5,
      "v": 72
    },
    {
      "midi": 44,
      "hit": false,
      "t": 164869.79166666642,
      "d": 296.8749999999709,
      "v": 64
    },
    {
      "midi": 70,
      "hit": false,
      "t": 165109.37499999977,
      "d": 416.66666666659876,
      "v": 68
    },
    {
      "midi": 61,
      "hit": false,
      "t": 165119.79166666642,
      "d": 187.4999999999709,
      "v": 58
    },
    {
      "midi": 66,
      "hit": false,
      "t": 165130.20833333308,
      "d": 421.8749999999418,
      "v": 49
    },
    {
      "midi": 51,
      "hit": false,
      "t": 165140.62499999974,
      "d": 151.04166666665697,
      "v": 40
    },
    {
      "midi": 56,
      "hit": false,
      "t": 165296.87499999974,
      "d": 72.91666666665697,
      "v": 61
    },
    {
      "midi": 51,
      "hit": false,
      "t": 165473.95833333305,
      "d": 197.91666666662786,
      "v": 58
    },
    {
      "midi": 58,
      "hit": false,
      "t": 165499.9999999997,
      "d": 62.499999999970896,
      "v": 64
    },
    {
      "midi": 56,
      "hit": false,
      "t": 165692.70833333302,
      "d": 78.125,
      "v": 59
    },
    {
      "midi": 61,
      "hit": false,
      "t": 165890.62499999968,
      "d": 197.91666666665697,
      "v": 14
    },
    {
      "midi": 56,
      "hit": false,
      "t": 165937.49999999968,
      "d": 125,
      "v": 59
    },
    {
      "midi": 51,
      "hit": false,
      "t": 166114.583333333,
      "d": 192.70833333334303,
      "v": 54
    },
    {
      "midi": 56,
      "hit": false,
      "t": 166338.54166666634,
      "d": 203.1250000000291,
      "v": 57
    },
    {
      "midi": 58,
      "hit": false,
      "t": 166343.74999999968,
      "d": 265.6250000000291,
      "v": 51
    },
    {
      "midi": 68,
      "hit": false,
      "t": 166359.37499999968,
      "d": 1119.791666666686,
      "v": 52
    },
    {
      "midi": 66,
      "hit": false,
      "t": 166385.41666666634,
      "d": 812.5000000000291,
      "v": 39
    },
    {
      "midi": 51,
      "hit": false,
      "t": 166557.29166666637,
      "d": 213.54166666668607,
      "v": 45
    },
    {
      "midi": 60,
      "hit": false,
      "t": 166781.2499999997,
      "d": 630.2083333333139,
      "v": 55
    },
    {
      "midi": 56,
      "hit": false,
      "t": 166786.45833333305,
      "d": 166.66666666665697,
      "v": 50
    },
    {
      "midi": 51,
      "hit": false,
      "t": 166973.95833333305,
      "d": 166.66666666665697,
      "v": 51
    },
    {
      "midi": 56,
      "hit": false,
      "t": 167151.04166666637,
      "d": 250,
      "v": 52
    },
    {
      "midi": 63,
      "hit": false,
      "t": 167234.3749999997,
      "d": 250,
      "v": 54
    },
    {
      "midi": 51,
      "hit": false,
      "t": 167416.66666666637,
      "d": 88.54166666668607,
      "v": 61
    },
    {
      "midi": 75,
      "hit": false,
      "t": 167979.1666666664,
      "d": 2286.458333333285,
      "v": 80
    },
    {
      "midi": 61,
      "hit": false,
      "t": 168026.0416666664,
      "d": 1291.6666666666279,
      "v": 43
    },
    {
      "midi": 54,
      "hit": false,
      "t": 168062.49999999974,
      "d": 812.4999999999709,
      "v": 40
    },
    {
      "midi": 63,
      "hit": false,
      "t": 168406.24999999974,
      "d": 171.875,
      "v": 58
    },
    {
      "midi": 66,
      "hit": false,
      "t": 168609.37499999974,
      "d": 88.54166666665697,
      "v": 47
    },
    {
      "midi": 70,
      "hit": false,
      "t": 168802.08333333305,
      "d": 166.66666666665697,
      "v": 34
    },
    {
      "midi": 56,
      "hit": false,
      "t": 168901.04166666637,
      "d": 640.6249999999709,
      "v": 72
    },
    {
      "midi": 66,
      "hit": false,
      "t": 169026.04166666637,
      "d": 67.70833333334303,
      "v": 15
    },
    {
      "midi": 63,
      "hit": false,
      "t": 169119.79166666637,
      "d": 109.375,
      "v": 59
    },
    {
      "midi": 58,
      "hit": false,
      "t": 169276.04166666637,
      "d": 744.7916666666279,
      "v": 80
    },
    {
      "midi": 63,
      "hit": false,
      "t": 169421.87499999968,
      "d": 187.5,
      "v": 58
    },
    {
      "midi": 66,
      "hit": false,
      "t": 169609.37499999968,
      "d": 151.04166666665697,
      "v": 52
    },
    {
      "midi": 70,
      "hit": false,
      "t": 169817.708333333,
      "d": 161.45833333331393,
      "v": 54
    },
    {
      "midi": 61,
      "hit": false,
      "t": 169968.74999999965,
      "d": 119.79166666668607,
      "v": 91
    },
    {
      "midi": 66,
      "hit": false,
      "t": 169999.99999999965,
      "d": 114.58333333334303,
      "v": 42
    },
    {
      "midi": 63,
      "hit": false,
      "t": 170119.79166666634,
      "d": 52.083333333343035,
      "v": 61
    },
    {
      "midi": 78,
      "hit": false,
      "t": 170447.91666666634,
      "d": 942.7083333333139,
      "v": 80
    },
    {
      "midi": 60,
      "hit": false,
      "t": 170510.41666666634,
      "d": 921.8749999999709,
      "v": 64
    },
    {
      "midi": 63,
      "hit": false,
      "t": 170744.79166666634,
      "d": 484.375,
      "v": 72
    },
    {
      "midi": 66,
      "hit": false,
      "t": 170963.54166666634,
      "d": 322.91666666665697,
      "v": 59
    },
    {
      "midi": 70,
      "hit": false,
      "t": 171145.833333333,
      "d": 151.04166666665697,
      "v": 64
    },
    {
      "midi": 82,
      "hit": false,
      "t": 171359.37499999965,
      "d": 260.41666666665697,
      "v": 80
    },
    {
      "midi": 72,
      "hit": false,
      "t": 171546.87499999965,
      "d": 2.6041666666569654,
      "v": 15
    },
    {
      "midi": 75,
      "hit": false,
      "t": 171609.37499999965,
      "d": 78.125,
      "v": 58
    },
    {
      "midi": 75,
      "hit": false,
      "t": 171921.87499999965,
      "d": 1859.3749999999418,
      "v": 71
    },
    {
      "midi": 61,
      "hit": false,
      "t": 171942.708333333,
      "d": 901.0416666666279,
      "v": 63
    },
    {
      "midi": 73,
      "hit": false,
      "t": 171953.12499999965,
      "d": 88.54166666665697,
      "v": 61
    },
    {
      "midi": 54,
      "hit": false,
      "t": 171968.74999999965,
      "d": 692.7083333333139,
      "v": 53
    },
    {
      "midi": 63,
      "hit": false,
      "t": 172249.99999999965,
      "d": 166.66666666665697,
      "v": 71
    },
    {
      "midi": 66,
      "hit": false,
      "t": 172442.70833333296,
      "d": 135.41666666665697,
      "v": 54
    },
    {
      "midi": 70,
      "hit": false,
      "t": 172624.99999999962,
      "d": 145.83333333334303,
      "v": 54
    },
    {
      "midi": 56,
      "hit": false,
      "t": 172755.20833333296,
      "d": 427.08333333334303,
      "v": 70
    },
    {
      "midi": 66,
      "hit": false,
      "t": 172765.62499999962,
      "d": 192.70833333334303,
      "v": 53
    },
    {
      "midi": 63,
      "hit": false,
      "t": 172937.49999999962,
      "d": 119.79166666668607,
      "v": 72
    },
    {
      "midi": 58,
      "hit": false,
      "t": 173109.37499999965,
      "d": 718.7499999999709,
      "v": 80
    },
    {
      "midi": 63,
      "hit": false,
      "t": 173286.45833333296,
      "d": 151.04166666665697,
      "v": 71
    },
    {
      "midi": 73,
      "hit": false,
      "t": 173364.58333333296,
      "d": 31.25,
      "v": 15
    },
    {
      "midi": 66,
      "hit": false,
      "t": 173447.91666666628,
      "d": 171.875,
      "v": 64
    },
    {
      "midi": 70,
      "hit": false,
      "t": 173630.20833333294,
      "d": 208.33333333334303,
      "v": 68
    },
    {
      "midi": 61,
      "hit": false,
      "t": 173786.45833333294,
      "d": 98.95833333334303,
      "v": 64
    },
    {
      "midi": 66,
      "hit": false,
      "t": 173791.66666666628,
      "d": 151.04166666668607,
      "v": 58
    },
    {
      "midi": 75,
      "hit": false,
      "t": 173859.37499999962,
      "d": 166.66666666668607,
      "v": 15
    },
    {
      "midi": 63,
      "hit": false,
      "t": 173921.87499999962,
      "d": 83.33333333334303,
      "v": 80
    },
    {
      "midi": 78,
      "hit": false,
      "t": 174197.9166666663,
      "d": 739.5833333333139,
      "v": 80
    },
    {
      "midi": 60,
      "hit": false,
      "t": 174229.1666666663,
      "d": 656.25,
      "v": 64
    },
    {
      "midi": 63,
      "hit": false,
      "t": 174437.49999999965,
      "d": 312.5,
      "v": 71
    },
    {
      "midi": 66,
      "hit": false,
      "t": 174593.74999999965,
      "d": 328.1249999999709,
      "v": 58
    },
    {
      "midi": 70,
      "hit": false,
      "t": 174739.583333333,
      "d": 119.79166666665697,
      "v": 59
    },
    {
      "midi": 82,
      "hit": false,
      "t": 174911.45833333296,
      "d": 213.54166666665697,
      "v": 80
    },
    {
      "midi": 72,
      "hit": false,
      "t": 174937.49999999962,
      "d": 156.25,
      "v": 58
    },
    {
      "midi": 75,
      "hit": false,
      "t": 175088.54166666628,
      "d": 67.70833333334303,
      "v": 72
    },
    {
      "midi": 66,
      "hit": false,
      "t": 175244.79166666628,
      "d": 947.9166666666861,
      "v": 64
    },
    {
      "midi": 87,
      "hit": false,
      "t": 175489.58333333294,
      "d": 3682.2916666667443,
      "v": 80
    },
    {
      "midi": 70,
      "hit": false,
      "t": 175708.33333333294,
      "d": 229.16666666668607,
      "v": 50
    },
    {
      "midi": 73,
      "hit": false,
      "t": 175874.99999999962,
      "d": 218.75,
      "v": 64
    },
    {
      "midi": 75,
      "hit": false,
      "t": 176046.87499999962,
      "d": 140.625,
      "v": 68
    },
    {
      "midi": 85,
      "hit": false,
      "t": 176098.95833333296,
      "d": 93.75,
      "v": 15
    },
    {
      "midi": 78,
      "hit": false,
      "t": 176213.5416666663,
      "d": 166.66666666668607,
      "v": 64
    },
    {
      "midi": 82,
      "hit": false,
      "t": 176374.99999999965,
      "d": 104.16666666668607,
      "v": 64
    },
    {
      "midi": 66,
      "hit": false,
      "t": 176510.41666666634,
      "d": 625,
      "v": 59
    },
    {
      "midi": 70,
      "hit": false,
      "t": 176708.333333333,
      "d": 151.04166666668607,
      "v": 37
    },
    {
      "midi": 73,
      "hit": false,
      "t": 176807.29166666634,
      "d": 218.75,
      "v": 72
    },
    {
      "midi": 75,
      "hit": false,
      "t": 176963.54166666634,
      "d": 130.20833333334303,
      "v": 64
    },
    {
      "midi": 78,
      "hit": false,
      "t": 177119.79166666634,
      "d": 156.25,
      "v": 50
    },
    {
      "midi": 84,
      "hit": false,
      "t": 177322.91666666634,
      "d": 140.625,
      "v": 47
    },
    {
      "midi": 66,
      "hit": false,
      "t": 177463.54166666634,
      "d": 635.416666666657,
      "v": 56
    },
    {
      "midi": 70,
      "hit": false,
      "t": 177645.833333333,
      "d": 203.125,
      "v": 43
    },
    {
      "midi": 73,
      "hit": false,
      "t": 177791.66666666634,
      "d": 177.08333333331393,
      "v": 64
    },
    {
      "midi": 75,
      "hit": false,
      "t": 177968.74999999965,
      "d": 156.25,
      "v": 61
    },
    {
      "midi": 78,
      "hit": false,
      "t": 178171.87499999965,
      "d": 156.25,
      "v": 43
    },
    {
      "midi": 82,
      "hit": false,
      "t": 178343.74999999965,
      "d": 156.25,
      "v": 51
    },
    {
      "midi": 66,
      "hit": false,
      "t": 178526.0416666663,
      "d": 703.1250000000291,
      "v": 51
    },
    {
      "midi": 69,
      "hit": false,
      "t": 178765.62499999965,
      "d": 270.83333333334303,
      "v": 40
    },
    {
      "midi": 73,
      "hit": false,
      "t": 178927.083333333,
      "d": 197.91666666668607,
      "v": 54
    },
    {
      "midi": 75,
      "hit": false,
      "t": 179088.54166666634,
      "d": 192.70833333334303,
      "v": 64
    },
    {
      "midi": 78,
      "hit": false,
      "t": 179302.08333333302,
      "d": 140.625,
      "v": 54
    },
    {
      "midi": 81,
      "hit": false,
      "t": 179505.20833333302,
      "d": 177.08333333334303,
      "v": 34
    },
    {
      "midi": 85,
      "hit": false,
      "t": 179682.29166666637,
      "d": 828.1250000000291,
      "v": 59
    },
    {
      "midi": 66,
      "hit": false,
      "t": 179708.33333333302,
      "d": 760.4166666667152,
      "v": 34
    },
    {
      "midi": 69,
      "hit": false,
      "t": 179953.1249999997,
      "d": 281.25,
      "v": 26
    },
    {
      "midi": 73,
      "hit": false,
      "t": 180140.6249999997,
      "d": 229.16666666668607,
      "v": 40
    },
    {
      "midi": 75,
      "hit": false,
      "t": 180302.08333333305,
      "d": 177.08333333334303,
      "v": 54
    },
    {
      "midi": 78,
      "hit": false,
      "t": 180494.7916666664,
      "d": 192.70833333334303,
      "v": 52
    },
    {
      "midi": 83,
      "hit": false,
      "t": 180729.1666666664,
      "d": 208.33333333334303,
      "v": 46
    },
    {
      "midi": 87,
      "hit": false,
      "t": 180932.2916666664,
      "d": 1697.9166666666279,
      "v": 56
    },
    {
      "midi": 66,
      "hit": false,
      "t": 180947.9166666664,
      "d": 901.0416666666279,
      "v": 36
    },
    {
      "midi": 69,
      "hit": false,
      "t": 181192.70833333305,
      "d": 494.79166666665697,
      "v": 37
    },
    {
      "midi": 73,
      "hit": false,
      "t": 181458.33333333305,
      "d": 359.3749999999709,
      "v": 40
    },
    {
      "midi": 75,
      "hit": false,
      "t": 181697.91666666637,
      "d": 281.25,
      "v": 45
    },
    {
      "midi": 78,
      "hit": false,
      "t": 182062.4999999997,
      "d": 260.41666666665697,
      "v": 15
    },
    {
      "midi": 81,
      "hit": false,
      "t": 182473.95833333302,
      "d": 20.833333333343035,
      "v": 15
    },
    {
      "midi": 65,
      "hit": false,
      "t": 182791.66666666637,
      "d": 385.41666666668607,
      "v": 33
    },
    {
      "midi": 68,
      "hit": false,
      "t": 183078.1249999997,
      "d": 192.70833333334303,
      "v": 58
    },
    {
      "midi": 72,
      "hit": false,
      "t": 183302.08333333305,
      "d": 119.79166666665697,
      "v": 51
    },
    {
      "midi": 77,
      "hit": false,
      "t": 183520.83333333305,
      "d": 20.833333333343035,
      "v": 15
    },
    {
      "midi": 80,
      "hit": false,
      "t": 183624.99999999974,
      "d": 192.70833333331393,
      "v": 64
    },
    {
      "midi": 84,
      "hit": false,
      "t": 183807.2916666664,
      "d": 109.375,
      "v": 72
    },
    {
      "midi": 92,
      "hit": false,
      "t": 184062.49999999974,
      "d": 1265.625,
      "v": 72
    },
    {
      "midi": 89,
      "hit": false,
      "t": 184187.49999999974,
      "d": 364.58333333334303,
      "v": 16
    },
    {
      "midi": 89,
      "hit": false,
      "t": 185312.49999999974,
      "d": 1614.5833333334012,
      "v": 58
    },
    {
      "midi": 65,
      "hit": false,
      "t": 185364.58333333308,
      "d": 395.83333333334303,
      "v": 25
    },
    {
      "midi": 65,
      "hit": false,
      "t": 186505.2083333331,
      "d": 286.45833333334303,
      "v": 54
    },
    {
      "midi": 69,
      "hit": false,
      "t": 186812.4999999998,
      "d": 182.29166666665697,
      "v": 38
    },
    {
      "midi": 87,
      "hit": false,
      "t": 186984.3749999998,
      "d": 364.58333333331393,
      "v": 55
    },
    {
      "midi": 84,
      "hit": false,
      "t": 186994.79166666645,
      "d": 333.33333333334303,
      "v": 41
    },
    {
      "midi": 72,
      "hit": false,
      "t": 186999.9999999998,
      "d": 187.5,
      "v": 57
    },
    {
      "midi": 75,
      "hit": false,
      "t": 187187.4999999998,
      "d": 140.625,
      "v": 32
    },
    {
      "midi": 89,
      "hit": false,
      "t": 187338.54166666645,
      "d": 463.54166666662786,
      "v": 63
    },
    {
      "midi": 85,
      "hit": false,
      "t": 187385.41666666645,
      "d": 390.6249999999709,
      "v": 40
    },
    {
      "midi": 81,
      "hit": false,
      "t": 187541.66666666645,
      "d": 104.16666666665697,
      "v": 71
    },
    {
      "midi": 87,
      "hit": false,
      "t": 187749.99999999977,
      "d": 2770.833333333314,
      "v": 68
    },
    {
      "midi": 84,
      "hit": false,
      "t": 187765.62499999977,
      "d": 2734.374999999971,
      "v": 48
    },
    {
      "midi": 65,
      "hit": false,
      "t": 188916.66666666642,
      "d": 447.91666666665697,
      "v": 40
    },
    {
      "midi": 65,
      "hit": false,
      "t": 190067.70833333308,
      "d": 281.25,
      "v": 59
    },
    {
      "midi": 68,
      "hit": false,
      "t": 190328.12499999974,
      "d": 197.91666666668607,
      "v": 64
    },
    {
      "midi": 85,
      "hit": false,
      "t": 190489.58333333308,
      "d": 354.16666666665697,
      "v": 64
    },
    {
      "midi": 82,
      "hit": false,
      "t": 190526.04166666642,
      "d": 302.08333333331393,
      "v": 38
    },
    {
      "midi": 70,
      "hit": false,
      "t": 190536.45833333308,
      "d": 125,
      "v": 38
    },
    {
      "midi": 73,
      "hit": false,
      "t": 190656.24999999974,
      "d": 156.25,
      "v": 50
    },
    {
      "midi": 87,
      "hit": false,
      "t": 190822.9166666664,
      "d": 458.33333333334303,
      "v": 64
    },
    {
      "midi": 84,
      "hit": false,
      "t": 190838.5416666664,
      "d": 463.54166666668607,
      "v": 56
    },
    {
      "midi": 77,
      "hit": false,
      "t": 190921.87499999974,
      "d": 161.45833333331393,
      "v": 15
    },
    {
      "midi": 80,
      "hit": false,
      "t": 191057.2916666664,
      "d": 93.75,
      "v": 64
    },
    {
      "midi": 85,
      "hit": false,
      "t": 191234.37499999974,
      "d": 197.91666666668607,
      "v": 64
    },
    {
      "midi": 82,
      "hit": false,
      "t": 191260.4166666664,
      "d": 609.3750000000291,
      "v": 58
    },
    {
      "midi": 85,
      "hit": false,
      "t": 191859.37499999977,
      "d": 484.375,
      "v": 62
    },
    {
      "midi": 89,
      "hit": false,
      "t": 191869.79166666642,
      "d": 1114.583333333343,
      "v": 58
    },
    {
      "midi": 65,
      "hit": false,
      "t": 192510.41666666642,
      "d": 510.41666666668607,
      "v": 19
    },
    {
      "midi": 85,
      "hit": false,
      "t": 193083.3333333331,
      "d": 1104.166666666657,
      "v": 58
    },
    {
      "midi": 82,
      "hit": false,
      "t": 193109.37499999977,
      "d": 1052.083333333343,
      "v": 47
    },
    {
      "midi": 63,
      "hit": false,
      "t": 193677.0833333331,
      "d": 369.79166666665697,
      "v": 50
    },
    {
      "midi": 66,
      "hit": false,
      "t": 193953.12499999977,
      "d": 239.58333333334303,
      "v": 50
    },
    {
      "midi": 80,
      "hit": false,
      "t": 194208.3333333331,
      "d": 354.16666666668607,
      "v": 39
    },
    {
      "midi": 84,
      "hit": false,
      "t": 194208.3333333331,
      "d": 380.20833333337214,
      "v": 42
    },
    {
      "midi": 68,
      "hit": false,
      "t": 194223.9583333331,
      "d": 98.95833333334303,
      "v": 31
    },
    {
      "midi": 72,
      "hit": false,
      "t": 194369.79166666645,
      "d": 83.33333333334303,
      "v": 54
    },
    {
      "midi": 75,
      "hit": false,
      "t": 194541.66666666645,
      "d": 255.20833333334303,
      "v": 58
    },
    {
      "midi": 85,
      "hit": false,
      "t": 194567.70833333314,
      "d": 437.5,
      "v": 61
    },
    {
      "midi": 82,
      "hit": false,
      "t": 194604.16666666648,
      "d": 401.04166666665697,
      "v": 48
    },
    {
      "midi": 78,
      "hit": false,
      "t": 194770.83333333314,
      "d": 109.375,
      "v": 58
    },
    {
      "midi": 80,
      "hit": false,
      "t": 194999.9999999998,
      "d": 375,
      "v": 63
    },
    {
      "midi": 84,
      "hit": false,
      "t": 195015.6249999998,
      "d": 2786.458333333343,
      "v": 56
    },
    {
      "midi": 80,
      "hit": false,
      "t": 195515.6249999998,
      "d": 1208.333333333343,
      "v": 15
    },
    {
      "midi": 63,
      "hit": false,
      "t": 196057.29166666645,
      "d": 536.458333333343,
      "v": 54
    },
    {
      "midi": 61,
      "hit": false,
      "t": 197208.33333333314,
      "d": 364.58333333334303,
      "v": 64
    },
    {
      "midi": 63,
      "hit": false,
      "t": 197494.79166666648,
      "d": 296.875,
      "v": 64
    },
    {
      "midi": 82,
      "hit": false,
      "t": 197760.41666666648,
      "d": 421.8749999999709,
      "v": 69
    },
    {
      "midi": 66,
      "hit": false,
      "t": 197786.45833333314,
      "d": 182.29166666665697,
      "v": 41
    },
    {
      "midi": 78,
      "hit": false,
      "t": 197833.33333333314,
      "d": 31.25,
      "v": 15
    },
    {
      "midi": 70,
      "hit": false,
      "t": 198062.4999999998,
      "d": 15.625,
      "v": 14
    },
    {
      "midi": 80,
      "hit": false,
      "t": 198166.66666666645,
      "d": 104.16666666665697,
      "v": 59
    },
    {
      "midi": 84,
      "hit": false,
      "t": 198177.0833333331,
      "d": 401.04166666665697,
      "v": 78
    },
    {
      "midi": 73,
      "hit": false,
      "t": 198197.91666666645,
      "d": 203.125,
      "v": 36
    },
    {
      "midi": 75,
      "hit": false,
      "t": 198401.04166666645,
      "d": 57.291666666656965,
      "v": 47
    },
    {
      "midi": 82,
      "hit": false,
      "t": 198546.87499999977,
      "d": 322.91666666665697,
      "v": 70
    },
    {
      "midi": 78,
      "hit": false,
      "t": 198562.49999999977,
      "d": 744.791666666657,
      "v": 56
    },
    {
      "midi": 87,
      "hit": false,
      "t": 198916.66666666642,
      "d": 239.58333333334303,
      "v": 80
    },
    {
      "midi": 82,
      "hit": false,
      "t": 199244.79166666642,
      "d": 458.33333333331393,
      "v": 71
    },
    {
      "midi": 60,
      "hit": false,
      "t": 199354.16666666642,
      "d": 848.9583333332848,
      "v": 34
    },
    {
      "midi": 63,
      "hit": false,
      "t": 199401.04166666642,
      "d": 802.0833333332848,
      "v": 54
    },
    {
      "midi": 65,
      "hit": false,
      "t": 199557.29166666642,
      "d": 604.1666666666279,
      "v": 20
    },
    {
      "midi": 80,
      "hit": false,
      "t": 199656.24999999977,
      "d": 453.1249999999709,
      "v": 76
    },
    {
      "midi": 77,
      "hit": false,
      "t": 199671.87499999977,
      "d": 1609.374999999971,
      "v": 50
    },
    {
      "midi": 68,
      "hit": false,
      "t": 199682.29166666642,
      "d": 437.4999999999709,
      "v": 31
    },
    {
      "midi": 72,
      "hit": false,
      "t": 199692.70833333308,
      "d": 322.91666666665697,
      "v": 33
    },
    {
      "midi": 82,
      "hit": false,
      "t": 200083.33333333308,
      "d": 369.79166666662786,
      "v": 71
    },
    {
      "midi": 80,
      "hit": false,
      "t": 200432.29166666637,
      "d": 838.5416666667152,
      "v": 72
    },
    {
      "midi": 48,
      "hit": false,
      "t": 200807.29166666637,
      "d": 343.7500000000291,
      "v": 72
    },
    {
      "midi": 78,
      "hit": false,
      "t": 201265.62499999974,
      "d": 411.45833333334303,
      "v": 64
    },
    {
      "midi": 75,
      "hit": false,
      "t": 201286.45833333308,
      "d": 380.20833333334303,
      "v": 50
    },
    {
      "midi": 60,
      "hit": false,
      "t": 201328.12499999974,
      "d": 78.125,
      "v": 55
    },
    {
      "midi": 63,
      "hit": false,
      "t": 201499.99999999974,
      "d": 83.33333333334303,
      "v": 59
    },
    {
      "midi": 80,
      "hit": false,
      "t": 201661.45833333308,
      "d": 437.5000000000291,
      "v": 64
    },
    {
      "midi": 77,
      "hit": false,
      "t": 201692.70833333308,
      "d": 401.04166666668607,
      "v": 34
    },
    {
      "midi": 63,
      "hit": false,
      "t": 201760.41666666642,
      "d": 875,
      "v": 33
    },
    {
      "midi": 78,
      "hit": false,
      "t": 202098.9583333331,
      "d": 645.8333333333139,
      "v": 52
    },
    {
      "midi": 75,
      "hit": false,
      "t": 202109.37499999977,
      "d": 489.58333333331393,
      "v": 43
    },
    {
      "midi": 70,
      "hit": false,
      "t": 202124.99999999977,
      "d": 307.29166666665697,
      "v": 49
    },
    {
      "midi": 77,
      "hit": false,
      "t": 203598.95833333308,
      "d": 1536.458333333343,
      "v": 40
    },
    {
      "midi": 69,
      "hit": false,
      "t": 203656.24999999974,
      "d": 640.625,
      "v": 23
    },
    {
      "midi": 63,
      "hit": false,
      "t": 203666.6666666664,
      "d": 640.625,
      "v": 27
    },
    {
      "midi": 60,
      "hit": false,
      "t": 203703.12499999974,
      "d": 552.083333333343,
      "v": 30
    },
    {
      "midi": 53,
      "hit": false,
      "t": 203723.95833333308,
      "d": 473.95833333334303,
      "v": 39
    },
    {
      "midi": 56,
      "hit": false,
      "t": 204843.74999999974,
      "d": 286.45833333334303,
      "v": 59
    },
    {
      "midi": 58,
      "hit": false,
      "t": 205078.12499999974,
      "d": 322.9166666667152,
      "v": 64
    },
    {
      "midi": 73,
      "hit": false,
      "t": 205322.91666666642,
      "d": 343.75,
      "v": 64
    },
    {
      "midi": 77,
      "hit": false,
      "t": 205328.12499999977,
      "d": 374.9999999999709,
      "v": 64
    },
    {
      "midi": 61,
      "hit": false,
      "t": 205333.3333333331,
      "d": 187.5,
      "v": 59
    },
    {
      "midi": 65,
      "hit": false,
      "t": 205567.7083333331,
      "d": 88.54166666665697,
      "v": 50
    },
    {
      "midi": 78,
      "hit": false,
      "t": 205677.08333333308,
      "d": 380.20833333331393,
      "v": 76
    },
    {
      "midi": 75,
      "hit": false,
      "t": 205713.5416666664,
      "d": 375,
      "v": 51
    },
    {
      "midi": 68,
      "hit": false,
      "t": 205729.1666666664,
      "d": 213.54166666665697,
      "v": 57
    },
    {
      "midi": 70,
      "hit": false,
      "t": 205901.0416666664,
      "d": 119.79166666665697,
      "v": 72
    },
    {
      "midi": 73,
      "hit": false,
      "t": 206078.12499999974,
      "d": 947.916666666657,
      "v": 70
    },
    {
      "midi": 77,
      "hit": false,
      "t": 206088.5416666664,
      "d": 463.54166666665697,
      "v": 72
    },
    {
      "midi": 82,
      "hit": false,
      "t": 206505.20833333305,
      "d": 375,
      "v": 72
    },
    {
      "midi": 77,
      "hit": false,
      "t": 206864.58333333305,
      "d": 67.70833333334303,
      "v": 64
    },
    {
      "midi": 54,
      "hit": false,
      "t": 206984.37499999974,
      "d": 781.25,
      "v": 59
    },
    {
      "midi": 58,
      "hit": false,
      "t": 207109.37499999974,
      "d": 656.25,
      "v": 38
    },
    {
      "midi": 61,
      "hit": false,
      "t": 207213.5416666664,
      "d": 562.5,
      "v": 29
    },
    {
      "midi": 75,
      "hit": false,
      "t": 207255.20833333305,
      "d": 473.95833333334303,
      "v": 64
    },
    {
      "midi": 73,
      "hit": false,
      "t": 207276.0416666664,
      "d": 1208.333333333314,
      "v": 61
    },
    {
      "midi": 63,
      "hit": false,
      "t": 207281.24999999974,
      "d": 494.79166666665697,
      "v": 56
    },
    {
      "midi": 77,
      "hit": false,
      "t": 207666.6666666664,
      "d": 447.91666666665697,
      "v": 64
    },
    {
      "midi": 75,
      "hit": false,
      "t": 208020.83333333305,
      "d": 468.75,
      "v": 64
    },
    {
      "midi": 53,
      "hit": false,
      "t": 208369.79166666637,
      "d": 234.375,
      "v": 63
    },
    {
      "midi": 56,
      "hit": false,
      "t": 208578.1249999997,
      "d": 276.04166666668607,
      "v": 72
    },
    {
      "midi": 73,
      "hit": false,
      "t": 208791.66666666637,
      "d": 364.58333333337214,
      "v": 63
    },
    {
      "midi": 70,
      "hit": false,
      "t": 208812.4999999997,
      "d": 328.1250000000291,
      "v": 48
    },
    {
      "midi": 58,
      "hit": false,
      "t": 208817.70833333305,
      "d": 161.45833333334303,
      "v": 52
    },
    {
      "midi": 61,
      "hit": false,
      "t": 208984.37499999974,
      "d": 156.25,
      "v": 45
    },
    {
      "midi": 75,
      "hit": false,
      "t": 209166.6666666664,
      "d": 437.4999999999709,
      "v": 64
    },
    {
      "midi": 72,
      "hit": false,
      "t": 209166.6666666664,
      "d": 494.79166666662786,
      "v": 51
    },
    {
      "midi": 65,
      "hit": false,
      "t": 209208.33333333305,
      "d": 151.04166666665697,
      "v": 31
    },
    {
      "midi": 68,
      "hit": false,
      "t": 209374.9999999997,
      "d": 78.125,
      "v": 61
    },
    {
      "midi": 73,
      "hit": false,
      "t": 209645.83333333302,
      "d": 640.625,
      "v": 62
    },
    {
      "midi": 70,
      "hit": false,
      "t": 209661.45833333302,
      "d": 500,
      "v": 52
    },
    {
      "midi": 72,
      "hit": false,
      "t": 210968.74999999968,
      "d": 671.875,
      "v": 50
    },
    {
      "midi": 51,
      "hit": false,
      "t": 210999.99999999968,
      "d": 416.66666666665697,
      "v": 44
    },
    {
      "midi": 68,
      "hit": false,
      "t": 211005.20833333302,
      "d": 630.2083333333139,
      "v": 43
    },
    {
      "midi": 54,
      "hit": false,
      "t": 211020.83333333302,
      "d": 328.1249999999709,
      "v": 44
    },
    {
      "midi": 60,
      "hit": false,
      "t": 211078.12499999968,
      "d": 213.54166666665697,
      "v": 25
    },
    {
      "midi": 44,
      "hit": false,
      "t": 211817.70833333302,
      "d": 1218.75,
      "v": 47
    },
    {
      "midi": 37,
      "hit": false,
      "t": 212651.04166666637,
      "d": 338.54166666665697,
      "v": 44
    },
    {
      "midi": 56,
      "hit": false,
      "t": 213151.04166666637,
      "d": 161.45833333334303,
      "v": 54
    },
    {
      "midi": 53,
      "hit": false,
      "t": 213244.79166666637,
      "d": 36.458333333343035,
      "v": 15
    },
    {
      "midi": 68,
      "hit": false,
      "t": 213651.04166666637,
      "d": 1937.500000000029,
      "v": 59
    },
    {
      "midi": 65,
      "hit": false,
      "t": 214265.6249999997,
      "d": 140.625,
      "v": 14
    },
    {
      "midi": 80,
      "hit": false,
      "t": 214286.45833333305,
      "d": 1302.083333333343,
      "v": 57
    },
    {
      "midi": 59,
      "hit": false,
      "t": 214291.6666666664,
      "d": 1578.125,
      "v": 61
    },
    {
      "midi": 77,
      "hit": false,
      "t": 214333.33333333305,
      "d": 531.25,
      "v": 43
    },
    {
      "midi": 65,
      "hit": false,
      "t": 214640.6249999997,
      "d": 442.70833333334303,
      "v": 15
    },
    {
      "midi": 77,
      "hit": false,
      "t": 215593.74999999974,
      "d": 1395.8333333332848,
      "v": 52
    },
    {
      "midi": 73,
      "hit": false,
      "t": 215604.1666666664,
      "d": 1296.874999999971,
      "v": 44
    },
    {
      "midi": 49,
      "hit": false,
      "t": 216656.24999999974,
      "d": 255.20833333328483,
      "v": 49
    },
    {
      "midi": 42,
      "hit": false,
      "t": 216666.6666666664,
      "d": 223.95833333331393,
      "v": 49
    },
    {
      "midi": 75,
      "hit": false,
      "t": 217265.62499999968,
      "d": 427.08333333334303,
      "v": 57
    },
    {
      "midi": 66,
      "hit": false,
      "t": 217286.45833333302,
      "d": 1916.6666666666279,
      "v": 41
    },
    {
      "midi": 49,
      "hit": false,
      "t": 217312.49999999968,
      "d": 1921.874999999971,
      "v": 38
    },
    {
      "midi": 61,
      "hit": false,
      "t": 217322.91666666634,
      "d": 1833.333333333314,
      "v": 26
    },
    {
      "midi": 58,
      "hit": false,
      "t": 217343.74999999968,
      "d": 1411.458333333314,
      "v": 42
    },
    {
      "midi": 70,
      "hit": false,
      "t": 217401.04166666634,
      "d": 322.91666666668607,
      "v": 19
    },
    {
      "midi": 54,
      "hit": false,
      "t": 217406.24999999968,
      "d": 1822.9166666666279,
      "v": 27
    },
    {
      "midi": 77,
      "hit": false,
      "t": 217708.33333333302,
      "d": 536.4583333333139,
      "v": 45
    },
    {
      "midi": 70,
      "hit": false,
      "t": 218031.24999999968,
      "d": 598.9583333333139,
      "v": 22
    },
    {
      "midi": 75,
      "hit": false,
      "t": 218213.54166666634,
      "d": 1302.083333333314,
      "v": 51
    },
    {
      "midi": 58,
      "hit": false,
      "t": 218942.708333333,
      "d": 276.04166666665697,
      "v": 14
    },
    {
      "midi": 70,
      "hit": false,
      "t": 219020.833333333,
      "d": 286.45833333331393,
      "v": 15
    },
    {
      "midi": 44,
      "hit": false,
      "t": 219786.458333333,
      "d": 166.66666666668607,
      "v": 64
    },
    {
      "midi": 61,
      "hit": false,
      "t": 220244.79166666634,
      "d": 156.25,
      "v": 68
    },
    {
      "midi": 73,
      "hit": false,
      "t": 220249.99999999968,
      "d": 312.5,
      "v": 68
    },
    {
      "midi": 56,
      "hit": false,
      "t": 220265.62499999968,
      "d": 265.625,
      "v": 64
    },
    {
      "midi": 53,
      "hit": false,
      "t": 220307.29166666634,
      "d": 1473.958333333314,
      "v": 49
    },
    {
      "midi": 68,
      "hit": false,
      "t": 220348.958333333,
      "d": 229.16666666668607,
      "v": 18
    },
    {
      "midi": 75,
      "hit": false,
      "t": 220619.79166666634,
      "d": 109.375,
      "v": 79
    },
    {
      "midi": 63,
      "hit": false,
      "t": 220630.208333333,
      "d": 52.083333333343035,
      "v": 69
    },
    {
      "midi": 80,
      "hit": false,
      "t": 221338.54166666634,
      "d": 651.041666666657,
      "v": 72
    },
    {
      "midi": 68,
      "hit": false,
      "t": 221359.37499999968,
      "d": 760.416666666657,
      "v": 54
    },
    {
      "midi": 73,
      "hit": false,
      "t": 221385.41666666634,
      "d": 666.666666666657,
      "v": 53
    },
    {
      "midi": 61,
      "hit": false,
      "t": 221401.04166666634,
      "d": 822.916666666657,
      "v": 42
    },
    {
      "midi": 65,
      "hit": false,
      "t": 221437.49999999968,
      "d": 791.666666666657,
      "v": 35
    },
    {
      "midi": 59,
      "hit": false,
      "t": 221453.12499999968,
      "d": 1583.333333333343,
      "v": 32
    },
    {
      "midi": 75,
      "hit": false,
      "t": 222359.37499999968,
      "d": 208.33333333334303,
      "v": 26
    },
    {
      "midi": 61,
      "hit": false,
      "t": 222583.33333333302,
      "d": 390.625,
      "v": 50
    },
    {
      "midi": 77,
      "hit": false,
      "t": 222593.74999999968,
      "d": 1536.458333333343,
      "v": 58
    },
    {
      "midi": 73,
      "hit": false,
      "t": 222609.37499999968,
      "d": 651.0416666666861,
      "v": 43
    },
    {
      "midi": 65,
      "hit": false,
      "t": 222614.58333333302,
      "d": 567.708333333343,
      "v": 29
    },
    {
      "midi": 46,
      "hit": false,
      "t": 223630.20833333305,
      "d": 255.20833333331393,
      "v": 51
    },
    {
      "midi": 75,
      "hit": false,
      "t": 224244.79166666637,
      "d": 468.7499999999709,
      "v": 64
    },
    {
      "midi": 63,
      "hit": false,
      "t": 224270.83333333302,
      "d": 1421.875,
      "v": 45
    },
    {
      "midi": 65,
      "hit": false,
      "t": 224296.87499999968,
      "d": 3026.041666666657,
      "v": 24
    },
    {
      "midi": 70,
      "hit": false,
      "t": 224302.08333333302,
      "d": 3052.083333333314,
      "v": 37
    },
    {
      "midi": 58,
      "hit": false,
      "t": 224343.74999999968,
      "d": 2848.958333333314,
      "v": 26
    },
    {
      "midi": 53,
      "hit": false,
      "t": 224395.83333333302,
      "d": 2708.333333333314,
      "v": 15
    },
    {
      "midi": 77,
      "hit": false,
      "t": 224703.12499999968,
      "d": 583.333333333343,
      "v": 64
    },
    {
      "midi": 75,
      "hit": false,
      "t": 225203.12499999968,
      "d": 1463.541666666657,
      "v": 59
    },
    {
      "midi": 73,
      "hit": false,
      "t": 226630.20833333302,
      "d": 749.9999999999709,
      "v": 52
    },
    {
      "midi": 61,
      "hit": false,
      "t": 226640.62499999968,
      "d": 510.41666666665697,
      "v": 41
    },
    {
      "midi": 41,
      "hit": false,
      "t": 227895.833333333,
      "d": 3166.6666666665988,
      "v": 47
    },
    {
      "midi": 56,
      "hit": false,
      "t": 228328.12499999965,
      "d": 401.04166666668607,
      "v": 63
    },
    {
      "midi": 61,
      "hit": false,
      "t": 228333.333333333,
      "d": 411.45833333334303,
      "v": 68
    },
    {
      "midi": 63,
      "hit": false,
      "t": 228723.958333333,
      "d": 98.95833333334303,
      "v": 59
    },
    {
      "midi": 70,
      "hit": false,
      "t": 229208.333333333,
      "d": 713.541666666657,
      "v": 59
    },
    {
      "midi": 61,
      "hit": false,
      "t": 229239.583333333,
      "d": 671.875,
      "v": 47
    },
    {
      "midi": 65,
      "hit": false,
      "t": 229291.66666666634,
      "d": 546.875,
      "v": 29
    },
    {
      "midi": 56,
      "hit": false,
      "t": 230494.7916666663,
      "d": 291.66666666662786,
      "v": 47
    },
    {
      "midi": 65,
      "hit": false,
      "t": 230536.45833333296,
      "d": 421.8749999999709,
      "v": 31
    },
    {
      "midi": 61,
      "hit": false,
      "t": 230609.37499999962,
      "d": 57.291666666656965,
      "v": 14
    },
    {
      "midi": 39,
      "hit": false,
      "t": 231505.20833333294,
      "d": 1838.541666666657,
      "v": 55
    },
    {
      "midi": 66,
      "hit": false,
      "t": 231880.20833333294,
      "d": 427.08333333334303,
      "v": 77
    },
    {
      "midi": 58,
      "hit": false,
      "t": 231885.41666666628,
      "d": 390.625,
      "v": 60
    },
    {
      "midi": 61,
      "hit": false,
      "t": 231890.62499999962,
      "d": 390.625,
      "v": 60
    },
    {
      "midi": 68,
      "hit": false,
      "t": 232260.41666666628,
      "d": 93.75,
      "v": 80
    },
    {
      "midi": 73,
      "hit": false,
      "t": 232760.41666666628,
      "d": 864.5833333333139,
      "v": 71
    },
    {
      "midi": 70,
      "hit": false,
      "t": 232796.87499999962,
      "d": 692.7083333333139,
      "v": 54
    },
    {
      "midi": 51,
      "hit": false,
      "t": 232822.91666666628,
      "d": 708.3333333333139,
      "v": 39
    },
    {
      "midi": 66,
      "hit": false,
      "t": 232859.37499999962,
      "d": 630.2083333333139,
      "v": 30
    },
    {
      "midi": 70,
      "hit": false,
      "t": 234166.66666666625,
      "d": 677.083333333343,
      "v": 47
    },
    {
      "midi": 63,
      "hit": false,
      "t": 234177.0833333329,
      "d": 197.91666666668607,
      "v": 45
    },
    {
      "midi": 61,
      "hit": false,
      "t": 234208.3333333329,
      "d": 270.83333333334303,
      "v": 22
    },
    {
      "midi": 66,
      "hit": false,
      "t": 234213.54166666625,
      "d": 552.083333333343,
      "v": 15
    },
    {
      "midi": 44,
      "hit": false,
      "t": 235380.20833333294,
      "d": 812.5,
      "v": 38
    },
    {
      "midi": 70,
      "hit": false,
      "t": 235864.58333333294,
      "d": 526.041666666657,
      "v": 47
    },
    {
      "midi": 60,
      "hit": false,
      "t": 235911.45833333294,
      "d": 307.29166666665697,
      "v": 49
    },
    {
      "midi": 66,
      "hit": false,
      "t": 235932.29166666628,
      "d": 406.2499999999709,
      "v": 30
    },
    {
      "midi": 51,
      "hit": false,
      "t": 236145.83333333294,
      "d": 161.45833333331393,
      "v": 40
    },
    {
      "midi": 72,
      "hit": false,
      "t": 236453.1249999996,
      "d": 88.54166666665697,
      "v": 59
    },
    {
      "midi": 80,
      "hit": false,
      "t": 237270.8333333329,
      "d": 166.66666666668607,
      "v": 42
    },
    {
      "midi": 77,
      "hit": false,
      "t": 237291.66666666625,
      "d": 682.2916666666861,
      "v": 49
    },
    {
      "midi": 68,
      "hit": false,
      "t": 237307.29166666625,
      "d": 744.7916666666861,
      "v": 24
    },
    {
      "midi": 68,
      "hit": false,
      "t": 239312.4999999996,
      "d": 682.2916666666861,
      "v": 37
    },
    {
      "midi": 56,
      "hit": false,
      "t": 239354.16666666625,
      "d": 213.54166666665697,
      "v": 28
    },
    {
      "midi": 60,
      "hit": false,
      "t": 239385.41666666625,
      "d": 302.08333333334303,
      "v": 20
    },
    {
      "midi": 66,
      "hit": false,
      "t": 239432.29166666625,
      "d": 31.25,
      "v": 15
    },
    {
      "midi": 66,
      "hit": false,
      "t": 239635.41666666625,
      "d": 322.91666666668607,
      "v": 14
    },
    {
      "midi": 37,
      "hit": false,
      "t": 241083.33333333294,
      "d": 531.2500000000291,
      "v": 47
    },
    {
      "midi": 44,
      "hit": false,
      "t": 241578.12499999962,
      "d": 338.54166666668607,
      "v": 43
    },
    {
      "midi": 49,
      "hit": false,
      "t": 241901.0416666663,
      "d": 453.125,
      "v": 55
    },
    {
      "midi": 53,
      "hit": false,
      "t": 242182.2916666663,
      "d": 161.45833333334303,
      "v": 43
    },
    {
      "midi": 56,
      "hit": false,
      "t": 242432.2916666663,
      "d": 359.375,
      "v": 47
    },
    {
      "midi": 61,
      "hit": false,
      "t": 242723.95833333296,
      "d": 270.83333333337214,
      "v": 34
    },
    {
      "midi": 41,
      "hit": false,
      "t": 242953.12499999965,
      "d": 343.7500000000291,
      "v": 54
    },
    {
      "midi": 48,
      "hit": false,
      "t": 243234.37499999968,
      "d": 395.83333333334303,
      "v": 54
    },
    {
      "midi": 53,
      "hit": false,
      "t": 243473.95833333302,
      "d": 156.25,
      "v": 51
    },
    {
      "midi": 56,
      "hit": false,
      "t": 243630.20833333302,
      "d": 197.91666666665697,
      "v": 54
    },
    {
      "midi": 60,
      "hit": false,
      "t": 243864.58333333302,
      "d": 197.91666666665697,
      "v": 47
    },
    {
      "midi": 65,
      "hit": false,
      "t": 244083.33333333302,
      "d": 239.58333333334303,
      "v": 39
    },
    {
      "midi": 37,
      "hit": false,
      "t": 244218.74999999968,
      "d": 213.54166666668607,
      "v": 64
    },
    {
      "midi": 44,
      "hit": false,
      "t": 244406.2499999997,
      "d": 203.125,
      "v": 64
    },
    {
      "midi": 49,
      "hit": false,
      "t": 244604.16666666637,
      "d": 270.83333333334303,
      "v": 59
    },
    {
      "midi": 53,
      "hit": false,
      "t": 244781.2499999997,
      "d": 125,
      "v": 64
    },
    {
      "midi": 56,
      "hit": false,
      "t": 244947.91666666637,
      "d": 229.16666666665697,
      "v": 64
    },
    {
      "midi": 61,
      "hit": false,
      "t": 245135.41666666637,
      "d": 229.16666666665697,
      "v": 64
    },
    {
      "midi": 41,
      "hit": false,
      "t": 245296.87499999968,
      "d": 270.83333333334303,
      "v": 64
    },
    {
      "midi": 48,
      "hit": false,
      "t": 245489.58333333302,
      "d": 364.58333333331393,
      "v": 72
    },
    {
      "midi": 53,
      "hit": false,
      "t": 245677.08333333302,
      "d": 213.54166666665697,
      "v": 58
    },
    {
      "midi": 56,
      "hit": false,
      "t": 245828.12499999968,
      "d": 171.875,
      "v": 72
    },
    {
      "midi": 60,
      "hit": false,
      "t": 246046.87499999968,
      "d": 223.95833333334303,
      "v": 59
    },
    {
      "midi": 65,
      "hit": false,
      "t": 246286.45833333302,
      "d": 78.125,
      "v": 56
    },
    {
      "midi": 44,
      "hit": false,
      "t": 246364.58333333302,
      "d": 666.6666666666861,
      "v": 45
    },
    {
      "midi": 71,
      "hit": false,
      "t": 246651.04166666637,
      "d": 2317.708333333343,
      "v": 72
    },
    {
      "midi": 68,
      "hit": false,
      "t": 246687.4999999997,
      "d": 479.16666666665697,
      "v": 55
    },
    {
      "midi": 52,
      "hit": false,
      "t": 246958.33333333305,
      "d": 385.41666666662786,
      "v": 55
    },
    {
      "midi": 56,
      "hit": false,
      "t": 247151.04166666637,
      "d": 286.45833333331393,
      "v": 54
    },
    {
      "midi": 59,
      "hit": false,
      "t": 247333.33333333302,
      "d": 296.875,
      "v": 64
    },
    {
      "midi": 64,
      "hit": false,
      "t": 247562.49999999968,
      "d": 229.16666666668607,
      "v": 59
    },
    {
      "midi": 66,
      "hit": false,
      "t": 247807.29166666637,
      "d": 333.33333333334303,
      "v": 52
    },
    {
      "midi": 73,
      "hit": false,
      "t": 248161.45833333305,
      "d": 161.45833333331393,
      "v": 78
    },
    {
      "midi": 68,
      "hit": false,
      "t": 248171.8749999997,
      "d": 802.083333333343,
      "v": 61
    },
    {
      "midi": 49,
      "hit": false,
      "t": 249515.6249999997,
      "d": 375,
      "v": 55
    },
    {
      "midi": 56,
      "hit": false,
      "t": 249885.41666666637,
      "d": 223.95833333334303,
      "v": 54
    },
    {
      "midi": 61,
      "hit": false,
      "t": 250130.20833333305,
      "d": 250,
      "v": 58
    },
    {
      "midi": 68,
      "hit": false,
      "t": 250578.1249999997,
      "d": 213.54166666665697,
      "v": 43
    },
    {
      "midi": 73,
      "hit": false,
      "t": 250796.8749999997,
      "d": 218.7500000000291,
      "v": 41
    },
    {
      "midi": 80,
      "hit": false,
      "t": 250880.20833333305,
      "d": 588.5416666666861,
      "v": 15
    },
    {
      "midi": 53,
      "hit": false,
      "t": 250979.1666666664,
      "d": 270.83333333334303,
      "v": 59
    },
    {
      "midi": 60,
      "hit": false,
      "t": 251218.74999999974,
      "d": 307.29166666665697,
      "v": 54
    },
    {
      "midi": 65,
      "hit": false,
      "t": 251442.70833333308,
      "d": 104.16666666665697,
      "v": 34
    },
    {
      "midi": 68,
      "hit": false,
      "t": 251567.70833333308,
      "d": 156.25,
      "v": 58
    },
    {
      "midi": 80,
      "hit": false,
      "t": 251671.87499999974,
      "d": 697.9166666666861,
      "v": 15
    },
    {
      "midi": 72,
      "hit": false,
      "t": 251770.83333333308,
      "d": 166.66666666665697,
      "v": 51
    },
    {
      "midi": 77,
      "hit": false,
      "t": 251953.12499999974,
      "d": 187.5,
      "v": 52
    },
    {
      "midi": 49,
      "hit": false,
      "t": 252104.1666666664,
      "d": 192.70833333337214,
      "v": 63
    },
    {
      "midi": 56,
      "hit": false,
      "t": 252291.66666666642,
      "d": 156.25,
      "v": 59
    },
    {
      "midi": 61,
      "hit": false,
      "t": 252453.12499999977,
      "d": 250,
      "v": 64
    },
    {
      "midi": 65,
      "hit": false,
      "t": 252645.8333333331,
      "d": 109.375,
      "v": 54
    },
    {
      "midi": 68,
      "hit": false,
      "t": 252807.29166666645,
      "d": 218.75,
      "v": 64
    },
    {
      "midi": 80,
      "hit": false,
      "t": 252906.2499999998,
      "d": 1020.8333333332557,
      "v": 15
    },
    {
      "midi": 73,
      "hit": false,
      "t": 253015.6249999998,
      "d": 145.83333333331393,
      "v": 58
    },
    {
      "midi": 53,
      "hit": false,
      "t": 253203.12499999977,
      "d": 296.8749999999709,
      "v": 64
    },
    {
      "midi": 60,
      "hit": false,
      "t": 253411.45833333308,
      "d": 322.91666666665697,
      "v": 64
    },
    {
      "midi": 65,
      "hit": false,
      "t": 253614.58333333308,
      "d": 166.66666666665697,
      "v": 58
    },
    {
      "midi": 68,
      "hit": false,
      "t": 253791.6666666664,
      "d": 182.29166666665697,
      "v": 68
    },
    {
      "midi": 72,
      "hit": false,
      "t": 254010.4166666664,
      "d": 234.375,
      "v": 64
    },
    {
      "midi": 77,
      "hit": false,
      "t": 254265.62499999974,
      "d": 52.083333333343035,
      "v": 38
    },
    {
      "midi": 56,
      "hit": false,
      "t": 254328.12499999974,
      "d": 526.041666666657,
      "v": 56
    },
    {
      "midi": 83,
      "hit": false,
      "t": 254562.49999999974,
      "d": 2203.1249999998836,
      "v": 80
    },
    {
      "midi": 80,
      "hit": false,
      "t": 254635.4166666664,
      "d": 447.91666666665697,
      "v": 15
    },
    {
      "midi": 59,
      "hit": false,
      "t": 254807.2916666664,
      "d": 229.16666666665697,
      "v": 59
    },
    {
      "midi": 64,
      "hit": false,
      "t": 255046.8749999997,
      "d": 276.04166666665697,
      "v": 52
    },
    {
      "midi": 68,
      "hit": false,
      "t": 255265.6249999997,
      "d": 187.4999999999709,
      "v": 34
    },
    {
      "midi": 71,
      "hit": false,
      "t": 255333.33333333302,
      "d": 1135.4166666665988,
      "v": 60
    },
    {
      "midi": 76,
      "hit": false,
      "t": 255557.29166666634,
      "d": 302.08333333331393,
      "v": 71
    },
    {
      "midi": 80,
      "hit": false,
      "t": 255786.458333333,
      "d": 942.7083333332848,
      "v": 59
    },
    {
      "midi": 85,
      "hit": false,
      "t": 256104.1666666663,
      "d": 197.91666666665697,
      "v": 80
    },
    {
      "midi": 83,
      "hit": false,
      "t": 257651.04166666628,
      "d": 1130.208333333314,
      "v": 57
    },
    {
      "midi": 80,
      "hit": false,
      "t": 257661.45833333294,
      "d": 1109.375,
      "v": 52
    },
    {
      "midi": 56,
      "hit": false,
      "t": 257697.91666666628,
      "d": 385.41666666665697,
      "v": 51
    },
    {
      "midi": 59,
      "hit": false,
      "t": 258046.8749999996,
      "d": 203.125,
      "v": 43
    },
    {
      "midi": 68,
      "hit": false,
      "t": 258505.20833333294,
      "d": 72.91666666665697,
      "v": 47
    },
    {
      "midi": 71,
      "hit": false,
      "t": 258796.8749999996,
      "d": 1088.541666666657,
      "v": 26
    },
    {
      "midi": 76,
      "hit": false,
      "t": 259072.91666666625,
      "d": 583.333333333343,
      "v": 43
    },
    {
      "midi": 85,
      "hit": false,
      "t": 259619.79166666625,
      "d": 1208.333333333343,
      "v": 54
    },
    {
      "midi": 44,
      "hit": false,
      "t": 260755.2083333329,
      "d": 1718.75,
      "v": 44
    },
    {
      "midi": 88,
      "hit": false,
      "t": 260760.41666666625,
      "d": 312.5,
      "v": 41
    },
    {
      "midi": 37,
      "hit": false,
      "t": 262489.5833333329,
      "d": 812.5,
      "v": 42
    },
    {
      "midi": 92,
      "hit": false,
      "t": 262494.7916666662,
      "d": 5322.91666666657,
      "v": 54
    },
    {
      "midi": 89,
      "hit": false,
      "t": 262510.4166666662,
      "d": 5432.29166666657,
      "v": 40
    },
    {
      "midi": 44,
      "hit": false,
      "t": 263276.0416666662,
      "d": 427.08333333331393,
      "v": 40
    },
    {
      "midi": 49,
      "hit": false,
      "t": 263697.9166666662,
      "d": 338.54166666662786,
      "v": 47
    },
    {
      "midi": 53,
      "hit": false,
      "t": 264062.49999999953,
      "d": 72.91666666668607,
      "v": 44
    },
    {
      "midi": 56,
      "hit": false,
      "t": 264333.3333333329,
      "d": 281.25,
      "v": 64
    },
    {
      "midi": 61,
      "hit": false,
      "t": 264588.5416666662,
      "d": 291.66666666668607,
      "v": 58
    },
    {
      "midi": 65,
      "hit": false,
      "t": 264927.0833333329,
      "d": 380.20833333331393,
      "v": 29
    },
    {
      "midi": 68,
      "hit": false,
      "t": 265343.74999999953,
      "d": 453.125,
      "v": 43
    },
    {
      "midi": 73,
      "hit": false,
      "t": 265802.08333333285,
      "d": 458.33333333331393,
      "v": 48
    },
    {
      "midi": 77,
      "hit": false,
      "t": 266317.70833333285,
      "d": 505.20833333331393,
      "v": 40
    },
    {
      "midi": 80,
      "hit": false,
      "t": 266874.9999999995,
      "d": 838.5416666666279,
      "v": 40
    },
    {
      "midi": 85,
      "hit": false,
      "t": 267536.4583333328,
      "d": 140.625,
      "v": 50
    },
    {
      "midi": 80,
      "hit": false,
      "t": 268463.5416666661,
      "d": 411.45833333331393,
      "v": 33
    },
    {
      "midi": 61,
      "hit": false,
      "t": 268505.2083333328,
      "d": 348.95833333331393,
      "v": 34
    },
    {
      "midi": 85,
      "hit": false,
      "t": 268906.2499999994,
      "d": 390.625,
      "v": 21
    },
    {
      "midi": 68,
      "hit": false,
      "t": 268947.9166666661,
      "d": 4312.499999999942,
      "v": 15
    },
    {
      "midi": 89,
      "hit": false,
      "t": 269312.4999999994,
      "d": 692.7083333333139,
      "v": 35
    },
    {
      "midi": 92,
      "hit": false,
      "t": 270239.58333333273,
      "d": 3072.916666666628,
      "v": 40
    },
    {
      "midi": 77,
      "hit": false,
      "t": 270286.45833333273,
      "d": 2921.875,
      "v": 22
    },
    {
      "midi": 73,
      "hit": false,
      "t": 270942.70833333273,
      "d": 614.5833333333139,
      "v": 15
    }
  ]
}