{
  "jsonPath": "Unknown/Unknown/Jantje Smit/cinderella.json",
  "path": "Unknown\\Unknown\\Jantje Smit\\Cinderella.mid",
  "name": "Cinderella",
  "difficulty": "Advanced",
  "bpm": 119.00016065021688,
  "notes": [
    {
      "midi": 50,
      "hit": false,
      "t": 995.2717656250001,
      "d": 3760.4991250000007,
      "v": 103
    },
    {
      "midi": 53,
      "hit": false,
      "t": 995.2717656250001,
      "d": 3776.2554062500008,
      "v": 103
    },
    {
      "midi": 58,
      "hit": false,
      "t": 995.2717656250001,
      "d": 3776.2554062500008,
      "v": 103
    },
    {
      "midi": 70,
      "hit": false,
      "t": 2303.0431093750003,
      "d": 498.94890625000016,
      "v": 103
    },
    {
      "midi": 69,
      "hit": false,
      "t": 2786.2357343750004,
      "d": 286.2391093750002,
      "v": 103
    },
    {
      "midi": 70,
      "hit": false,
      "t": 3054.0925156250005,
      "d": 280.98701562500037,
      "v": 103
    },
    {
      "midi": 65,
      "hit": false,
      "t": 3332.4534843750007,
      "d": 1801.468156250001,
      "v": 103
    },
    {
      "midi": 58,
      "hit": false,
      "t": 5065.644421875001,
      "d": 1727.938843750001,
      "v": 103
    },
    {
      "midi": 50,
      "hit": false,
      "t": 5065.644421875001,
      "d": 3571.4237500000027,
      "v": 103
    },
    {
      "midi": 55,
      "hit": false,
      "t": 5065.644421875001,
      "d": 3623.944687500002,
      "v": 103
    },
    {
      "midi": 62,
      "hit": false,
      "t": 6410.180421875002,
      "d": 506.82704687500063,
      "v": 103
    },
    {
      "midi": 60,
      "hit": false,
      "t": 6861.860484375003,
      "d": 207.45770312500008,
      "v": 103
    },
    {
      "midi": 58,
      "hit": false,
      "t": 7029.927484375003,
      "d": 2069.3249375000014,
      "v": 103
    },
    {
      "midi": 67,
      "hit": false,
      "t": 7234.759140625003,
      "d": 1880.249562500001,
      "v": 103
    },
    {
      "midi": 48,
      "hit": false,
      "t": 9125.512890625005,
      "d": 3566.1716562500005,
      "v": 103
    },
    {
      "midi": 55,
      "hit": false,
      "t": 9146.521265625004,
      "d": 3545.163281250001,
      "v": 103
    },
    {
      "midi": 51,
      "hit": false,
      "t": 9146.521265625004,
      "d": 3571.4237500000017,
      "v": 103
    },
    {
      "midi": 58,
      "hit": false,
      "t": 9178.033828125004,
      "d": 3482.138156250001,
      "v": 103
    },
    {
      "midi": 72,
      "hit": false,
      "t": 9944.839515625004,
      "d": 320.37771875,
      "v": 103
    },
    {
      "midi": 70,
      "hit": false,
      "t": 10175.931640625004,
      "d": 609.2428750000017,
      "v": 103
    },
    {
      "midi": 72,
      "hit": false,
      "t": 10470.048890625005,
      "d": 2043.0644687500007,
      "v": 103
    },
    {
      "midi": 53,
      "hit": false,
      "t": 13064.583203125007,
      "d": 2652.307343749999,
      "v": 103
    },
    {
      "midi": 65,
      "hit": false,
      "t": 13085.591578125006,
      "d": 2615.5426874999994,
      "v": 103
    },
    {
      "midi": 60,
      "hit": false,
      "t": 13085.591578125006,
      "d": 2631.2989687499994,
      "v": 103
    },
    {
      "midi": 57,
      "hit": false,
      "t": 13085.591578125006,
      "d": 2644.429203124999,
      "v": 103
    },
    {
      "midi": 57,
      "hit": false,
      "t": 16131.805953125006,
      "d": 367.6465625000001,
      "v": 103
    },
    {
      "midi": 53,
      "hit": false,
      "t": 16131.805953125006,
      "d": 383.4028437500001,
      "v": 103
    },
    {
      "midi": 60,
      "hit": false,
      "t": 16131.805953125006,
      "d": 446.4279687500002,
      "v": 103
    },
    {
      "midi": 50,
      "hit": false,
      "t": 16636.006953125005,
      "d": 409.66331250000076,
      "v": 103
    },
    {
      "midi": 62,
      "hit": false,
      "t": 16657.015328125006,
      "d": 404.41121874999953,
      "v": 103
    },
    {
      "midi": 58,
      "hit": false,
      "t": 16657.015328125006,
      "d": 420.16749999999956,
      "v": 103
    },
    {
      "midi": 53,
      "hit": false,
      "t": 16659.641375000007,
      "d": 370.27260937499886,
      "v": 103
    },
    {
      "midi": 55,
      "hit": false,
      "t": 17134.955859375004,
      "d": 1402.309031249999,
      "v": 103
    },
    {
      "midi": 60,
      "hit": false,
      "t": 17134.955859375004,
      "d": 1418.065312499999,
      "v": 103
    },
    {
      "midi": 63,
      "hit": false,
      "t": 17134.955859375004,
      "d": 1433.821593749999,
      "v": 103
    },
    {
      "midi": 65,
      "hit": false,
      "t": 18673.819328125002,
      "d": 194.32746875000157,
      "v": 103
    },
    {
      "midi": 60,
      "hit": false,
      "t": 18673.819328125002,
      "d": 204.83165625000038,
      "v": 103
    },
    {
      "midi": 55,
      "hit": false,
      "t": 18676.445375000003,
      "d": 175.94514062500093,
      "v": 103
    },
    {
      "midi": 63,
      "hit": false,
      "t": 18988.944953125003,
      "d": 1953.778875,
      "v": 103
    },
    {
      "midi": 53,
      "hit": false,
      "t": 18988.944953125003,
      "d": 1969.53515625,
      "v": 103
    },
    {
      "midi": 60,
      "hit": false,
      "t": 18988.944953125003,
      "d": 1995.7956249999988,
      "v": 103
    },
    {
      "midi": 58,
      "hit": false,
      "t": 21163.311765625003,
      "d": 1851.3630468750016,
      "v": 103
    },
    {
      "midi": 62,
      "hit": false,
      "t": 21181.694093750004,
      "d": 1804.0942031250015,
      "v": 103
    },
    {
      "midi": 53,
      "hit": false,
      "t": 21184.320140625005,
      "d": 1801.468156250001,
      "v": 103
    },
    {
      "midi": 55,
      "hit": false,
      "t": 23190.619953125006,
      "d": 798.3182500000039,
      "v": 103
    },
    {
      "midi": 58,
      "hit": false,
      "t": 23211.628328125007,
      "d": 630.2512500000012,
      "v": 103
    },
    {
      "midi": 62,
      "hit": false,
      "t": 23211.628328125007,
      "d": 861.343375000004,
      "v": 103
    },
    {
      "midi": 57,
      "hit": false,
      "t": 24193.76985937501,
      "d": 325.6298124999994,
      "v": 103
    },
    {
      "midi": 60,
      "hit": false,
      "t": 24193.76985937501,
      "d": 451.6800624999996,
      "v": 103
    },
    {
      "midi": 53,
      "hit": false,
      "t": 24220.03032812501,
      "d": 341.3860937499994,
      "v": 103
    },
    {
      "midi": 50,
      "hit": false,
      "t": 24692.71876562501,
      "d": 467.43634374999965,
      "v": 103
    },
    {
      "midi": 62,
      "hit": false,
      "t": 24695.34481250001,
      "d": 435.9237812499996,
      "v": 103
    },
    {
      "midi": 58,
      "hit": false,
      "t": 24695.34481250001,
      "d": 454.30610937500023,
      "v": 103
    },
    {
      "midi": 53,
      "hit": false,
      "t": 24697.97085937501,
      "d": 372.8986562499995,
      "v": 103
    },
    {
      "midi": 48,
      "hit": false,
      "t": 25202.17185937501,
      "d": 950.628968750003,
      "v": 103
    },
    {
      "midi": 55,
      "hit": false,
      "t": 25223.18023437501,
      "d": 1376.0485625000001,
      "v": 103
    },
    {
      "midi": 60,
      "hit": false,
      "t": 25223.18023437501,
      "d": 1376.0485625000001,
      "v": 103
    },
    {
      "midi": 63,
      "hit": false,
      "t": 25223.18023437501,
      "d": 1391.8048437500001,
      "v": 103
    },
    {
      "midi": 55,
      "hit": false,
      "t": 26746.28742187501,
      "d": 210.0837500000016,
      "v": 103
    },
    {
      "midi": 65,
      "hit": false,
      "t": 26746.28742187501,
      "d": 238.97026562500105,
      "v": 103
    },
    {
      "midi": 60,
      "hit": false,
      "t": 26748.91346875001,
      "d": 223.21398437500102,
      "v": 103
    },
    {
      "midi": 60,
      "hit": false,
      "t": 27071.91723437501,
      "d": 1859.2411874999998,
      "v": 103
    },
    {
      "midi": 57,
      "hit": false,
      "t": 27077.16932812501,
      "d": 1838.2328124999985,
      "v": 103
    },
    {
      "midi": 63,
      "hit": false,
      "t": 27077.16932812501,
      "d": 2184.871000000003,
      "v": 103
    },
    {
      "midi": 53,
      "hit": false,
      "t": 29235.779859375012,
      "d": 1874.9974687499998,
      "v": 103
    },
    {
      "midi": 58,
      "hit": false,
      "t": 29251.536140625012,
      "d": 1874.9974687499998,
      "v": 103
    },
    {
      "midi": 50,
      "hit": false,
      "t": 29256.788234375013,
      "d": 372.8986562499995,
      "v": 103
    },
    {
      "midi": 62,
      "hit": false,
      "t": 29288.300796875013,
      "d": 1851.363046874998,
      "v": 103
    },
    {
      "midi": 62,
      "hit": false,
      "t": 33274.63995312501,
      "d": 3655.4572499999995,
      "v": 103
    },
    {
      "midi": 58,
      "hit": false,
      "t": 33274.63995312501,
      "d": 3702.726093749996,
      "v": 103
    },
    {
      "midi": 53,
      "hit": false,
      "t": 33274.63995312501,
      "d": 3744.7428437499984,
      "v": 103
    },
    {
      "midi": 55,
      "hit": false,
      "t": 37308.247953125014,
      "d": 3101.361359374998,
      "v": 103
    },
    {
      "midi": 62,
      "hit": false,
      "t": 37329.25632812501,
      "d": 3067.222750000001,
      "v": 103
    },
    {
      "midi": 58,
      "hit": false,
      "t": 37329.25632812501,
      "d": 3109.2395000000033,
      "v": 103
    },
    {
      "midi": 53,
      "hit": false,
      "t": 40677.466093750016,
      "d": 554.0958906250016,
      "v": 103
    },
    {
      "midi": 57,
      "hit": false,
      "t": 40677.466093750016,
      "d": 580.3563593750005,
      "v": 103
    },
    {
      "midi": 60,
      "hit": false,
      "t": 40677.466093750016,
      "d": 596.1126406249969,
      "v": 103
    },
    {
      "midi": 53,
      "hit": false,
      "t": 41336.60385937501,
      "d": 3377.09628125,
      "v": 103
    },
    {
      "midi": 58,
      "hit": false,
      "t": 41336.60385937501,
      "d": 3416.4869843749984,
      "v": 103
    },
    {
      "midi": 62,
      "hit": false,
      "t": 41339.22990625001,
      "d": 3390.2265156249996,
      "v": 103
    },
    {
      "midi": 58,
      "hit": false,
      "t": 45385.96814062501,
      "d": 3571.4237500000017,
      "v": 103
    },
    {
      "midi": 55,
      "hit": false,
      "t": 45385.96814062501,
      "d": 3581.927937500004,
      "v": 103
    },
    {
      "midi": 62,
      "hit": false,
      "t": 45385.96814062501,
      "d": 3581.927937500004,
      "v": 103
    },
    {
      "midi": 70,
      "hit": false,
      "t": 66551.90595312501,
      "d": 378.1507500000007,
      "v": 109
    },
    {
      "midi": 74,
      "hit": false,
      "t": 66551.90595312501,
      "d": 409.6633124999935,
      "v": 109
    },
    {
      "midi": 62,
      "hit": false,
      "t": 66551.90595312501,
      "d": 422.7935468749929,
      "v": 109
    },
    {
      "midi": 65,
      "hit": false,
      "t": 66554.532,
      "d": 375.5247031250037,
      "v": 109
    },
    {
      "midi": 63,
      "hit": false,
      "t": 67056.106953125,
      "d": 404.41121874999953,
      "v": 109
    },
    {
      "midi": 65,
      "hit": false,
      "t": 67077.115328125,
      "d": 362.3944687500043,
      "v": 109
    },
    {
      "midi": 70,
      "hit": false,
      "t": 67077.115328125,
      "d": 378.1507500000007,
      "v": 109
    },
    {
      "midi": 75,
      "hit": false,
      "t": 67077.115328125,
      "d": 378.1507500000007,
      "v": 109
    },
    {
      "midi": 65,
      "hit": false,
      "t": 67570.812140625,
      "d": 997.8978124999994,
      "v": 109
    },
    {
      "midi": 62,
      "hit": false,
      "t": 67570.812140625,
      "d": 1013.6540937499958,
      "v": 109
    },
    {
      "midi": 70,
      "hit": false,
      "t": 67570.812140625,
      "d": 1013.6540937499958,
      "v": 109
    },
    {
      "midi": 74,
      "hit": false,
      "t": 67570.812140625,
      "d": 1016.2801406249928,
      "v": 109
    },
    {
      "midi": 70,
      "hit": false,
      "t": 70585.51395312499,
      "d": 401.78517187500256,
      "v": 109
    },
    {
      "midi": 74,
      "hit": false,
      "t": 70585.51395312499,
      "d": 435.92378125000687,
      "v": 109
    },
    {
      "midi": 62,
      "hit": false,
      "t": 70585.51395312499,
      "d": 488.44471875000454,
      "v": 109
    },
    {
      "midi": 67,
      "hit": false,
      "t": 70588.13999999998,
      "d": 386.02889062500617,
      "v": 109
    },
    {
      "midi": 70,
      "hit": false,
      "t": 71100.21914062499,
      "d": 414.9154062499874,
      "v": 109
    },
    {
      "midi": 63,
      "hit": false,
      "t": 71100.21914062499,
      "d": 435.9237812499923,
      "v": 109
    },
    {
      "midi": 67,
      "hit": false,
      "t": 71102.84518749999,
      "d": 396.53307812499406,
      "v": 109
    },
    {
      "midi": 75,
      "hit": false,
      "t": 71142.23589062499,
      "d": 372.8986562499922,
      "v": 109
    },
    {
      "midi": 62,
      "hit": false,
      "t": 71614.92432812498,
      "d": 1018.9061874999898,
      "v": 109
    },
    {
      "midi": 70,
      "hit": false,
      "t": 71614.92432812498,
      "d": 1018.9061874999898,
      "v": 109
    },
    {
      "midi": 67,
      "hit": false,
      "t": 71620.17642187497,
      "d": 1008.4020000000019,
      "v": 109
    },
    {
      "midi": 74,
      "hit": false,
      "t": 71620.17642187497,
      "d": 1034.6624687500007,
      "v": 109
    },
    {
      "midi": 63,
      "hit": false,
      "t": 74619.12195312498,
      "d": 409.6633124999935,
      "v": 109
    },
    {
      "midi": 75,
      "hit": false,
      "t": 74619.12195312498,
      "d": 409.6633124999935,
      "v": 109
    },
    {
      "midi": 67,
      "hit": false,
      "t": 74621.74799999998,
      "d": 375.5247031250037,
      "v": 109
    },
    {
      "midi": 70,
      "hit": false,
      "t": 74621.74799999998,
      "d": 388.65493750000314,
      "v": 109
    },
    {
      "midi": 65,
      "hit": false,
      "t": 75133.82714062497,
      "d": 362.39446874998976,
      "v": 109
    },
    {
      "midi": 67,
      "hit": false,
      "t": 75133.82714062497,
      "d": 362.39446874998976,
      "v": 109
    },
    {
      "midi": 70,
      "hit": false,
      "t": 75133.82714062497,
      "d": 383.40284374999464,
      "v": 109
    },
    {
      "midi": 77,
      "hit": false,
      "t": 75139.07923437496,
      "d": 357.1423749999958,
      "v": 109
    },
    {
      "midi": 63,
      "hit": false,
      "t": 75638.02814062497,
      "d": 1076.679218749996,
      "v": 109
    },
    {
      "midi": 72,
      "hit": false,
      "t": 75638.02814062497,
      "d": 1076.679218749996,
      "v": 109
    },
    {
      "midi": 75,
      "hit": false,
      "t": 75638.02814062497,
      "d": 1095.0615468749893,
      "v": 109
    },
    {
      "midi": 69,
      "hit": false,
      "t": 77602.31120312496,
      "d": 1675.4179062499898,
      "v": 109
    },
    {
      "midi": 65,
      "hit": false,
      "t": 77604.93724999996,
      "d": 1654.4095312499994,
      "v": 109
    },
    {
      "midi": 72,
      "hit": false,
      "t": 77660.08423437495,
      "d": 1622.896968749992,
      "v": 109
    },
    {
      "midi": 77,
      "hit": false,
      "t": 77681.09260937496,
      "d": 1596.6364999999932,
      "v": 109
    },
    {
      "midi": 70,
      "hit": false,
      "t": 82686.33795312495,
      "d": 393.9070312499971,
      "v": 109
    },
    {
      "midi": 74,
      "hit": false,
      "t": 82686.33795312495,
      "d": 407.0372656249965,
      "v": 109
    },
    {
      "midi": 62,
      "hit": false,
      "t": 82686.33795312495,
      "d": 425.4195937499899,
      "v": 109
    },
    {
      "midi": 65,
      "hit": false,
      "t": 82688.96399999995,
      "d": 375.5247031250037,
      "v": 109
    },
    {
      "midi": 63,
      "hit": false,
      "t": 83190.53895312494,
      "d": 399.1591250000056,
      "v": 109
    },
    {
      "midi": 65,
      "hit": false,
      "t": 83211.54732812494,
      "d": 378.1507500000007,
      "v": 109
    },
    {
      "midi": 70,
      "hit": false,
      "t": 83211.54732812494,
      "d": 378.1507500000007,
      "v": 109
    },
    {
      "midi": 75,
      "hit": false,
      "t": 83214.17337499994,
      "d": 375.5247031250037,
      "v": 109
    },
    {
      "midi": 65,
      "hit": false,
      "t": 83715.74832812494,
      "d": 1223.737843750001,
      "v": 109
    },
    {
      "midi": 70,
      "hit": false,
      "t": 83715.74832812494,
      "d": 1255.2504062499938,
      "v": 109
    },
    {
      "midi": 74,
      "hit": false,
      "t": 83715.74832812494,
      "d": 1255.2504062499938,
      "v": 109
    },
    {
      "midi": 62,
      "hit": false,
      "t": 83718.37437499994,
      "d": 1247.372265625003,
      "v": 109
    },
    {
      "midi": 62,
      "hit": false,
      "t": 86704.18967187493,
      "d": 530.4614687499852,
      "v": 109
    },
    {
      "midi": 67,
      "hit": false,
      "t": 86719.94595312493,
      "d": 396.53307812499406,
      "v": 109
    },
    {
      "midi": 70,
      "hit": false,
      "t": 86751.45851562492,
      "d": 383.40284374999464,
      "v": 109
    },
    {
      "midi": 74,
      "hit": false,
      "t": 86751.45851562492,
      "d": 422.7935468749929,
      "v": 109
    },
    {
      "midi": 63,
      "hit": false,
      "t": 87245.15532812492,
      "d": 362.3944687500043,
      "v": 109
    },
    {
      "midi": 67,
      "hit": false,
      "t": 87266.16370312493,
      "d": 341.3860937499994,
      "v": 109
    },
    {
      "midi": 70,
      "hit": false,
      "t": 87266.16370312493,
      "d": 341.3860937499994,
      "v": 109
    },
    {
      "midi": 75,
      "hit": false,
      "t": 87266.16370312493,
      "d": 357.1423749999958,
      "v": 109
    },
    {
      "midi": 62,
      "hit": false,
      "t": 87691.58329687492,
      "d": 1150.2085312499985,
      "v": 109
    },
    {
      "midi": 67,
      "hit": false,
      "t": 87749.35632812492,
      "d": 1100.3136406249978,
      "v": 109
    },
    {
      "midi": 70,
      "hit": false,
      "t": 87749.35632812492,
      "d": 1105.5657343749917,
      "v": 109
    },
    {
      "midi": 74,
      "hit": false,
      "t": 87751.98237499992,
      "d": 1105.5657343749917,
      "v": 109
    },
    {
      "midi": 63,
      "hit": false,
      "t": 90769.3102343749,
      "d": 393.9070312499971,
      "v": 109
    },
    {
      "midi": 67,
      "hit": false,
      "t": 90769.3102343749,
      "d": 393.9070312499971,
      "v": 109
    },
    {
      "midi": 75,
      "hit": false,
      "t": 90769.3102343749,
      "d": 412.28935937499045,
      "v": 109
    },
    {
      "midi": 70,
      "hit": false,
      "t": 90771.9362812499,
      "d": 412.28935937499045,
      "v": 109
    },
    {
      "midi": 67,
      "hit": false,
      "t": 91278.76332812489,
      "d": 346.63818749999336,
      "v": 109
    },
    {
      "midi": 65,
      "hit": false,
      "t": 91278.76332812489,
      "d": 367.64656249999825,
      "v": 109
    },
    {
      "midi": 70,
      "hit": false,
      "t": 91278.76332812489,
      "d": 383.40284374999464,
      "v": 109
    },
    {
      "midi": 77,
      "hit": false,
      "t": 91281.38937499988,
      "d": 344.0121406249964,
      "v": 109
    },
    {
      "midi": 67,
      "hit": false,
      "t": 91782.96432812489,
      "d": 1323.5276250000024,
      "v": 109
    },
    {
      "midi": 63,
      "hit": false,
      "t": 91782.96432812489,
      "d": 1341.9099531249958,
      "v": 109
    },
    {
      "midi": 72,
      "hit": false,
      "t": 91785.59037499988,
      "d": 1336.6578593750019,
      "v": 109
    },
    {
      "midi": 75,
      "hit": false,
      "t": 91785.59037499988,
      "d": 1336.6578593750019,
      "v": 109
    },
    {
      "midi": 65,
      "hit": false,
      "t": 93657.96179687488,
      "d": 1691.1741875000153,
      "v": 109
    },
    {
      "midi": 69,
      "hit": false,
      "t": 93705.23064062488,
      "d": 1622.8969687500066,
      "v": 109
    },
    {
      "midi": 72,
      "hit": false,
      "t": 93763.00367187489,
      "d": 1586.1323125000054,
      "v": 109
    },
    {
      "midi": 77,
      "hit": false,
      "t": 93805.02042187488,
      "d": 1544.1155625000101,
      "v": 109
    },
    {
      "midi": 50,
      "hit": false,
      "t": 113957.30414062501,
      "d": 3455.877687500004,
      "v": 103
    },
    {
      "midi": 53,
      "hit": false,
      "t": 113957.30414062501,
      "d": 3455.877687500004,
      "v": 103
    },
    {
      "midi": 58,
      "hit": false,
      "t": 113957.30414062501,
      "d": 3524.154906249998,
      "v": 103
    },
    {
      "midi": 55,
      "hit": false,
      "t": 117975.15585937501,
      "d": 2662.8115312500013,
      "v": 103
    },
    {
      "midi": 58,
      "hit": false,
      "t": 117996.16423437501,
      "d": 2657.559437499993,
      "v": 103
    },
    {
      "midi": 62,
      "hit": false,
      "t": 117996.16423437501,
      "d": 2657.559437499993,
      "v": 103
    },
    {
      "midi": 53,
      "hit": false,
      "t": 121352.252140625,
      "d": 561.9740312499925,
      "v": 103
    },
    {
      "midi": 57,
      "hit": false,
      "t": 121352.252140625,
      "d": 667.0159062499879,
      "v": 103
    },
    {
      "midi": 60,
      "hit": false,
      "t": 121354.8781875,
      "d": 635.5033437499951,
      "v": 103
    },
    {
      "midi": 62,
      "hit": false,
      "t": 122014.015953125,
      "d": 3434.869312499999,
      "v": 103
    },
    {
      "midi": 58,
      "hit": false,
      "t": 122014.015953125,
      "d": 3474.2600156249973,
      "v": 103
    },
    {
      "midi": 53,
      "hit": false,
      "t": 122016.64199999999,
      "d": 3447.9995468749985,
      "v": 103
    },
    {
      "midi": 55,
      "hit": false,
      "t": 126031.86767187499,
      "d": 2121.845874999999,
      "v": 103
    },
    {
      "midi": 58,
      "hit": false,
      "t": 126058.12814062499,
      "d": 2037.812374999994,
      "v": 103
    },
    {
      "midi": 62,
      "hit": false,
      "t": 126058.12814062499,
      "d": 2542.0133750000095,
      "v": 103
    },
    {
      "midi": 55,
      "hit": false,
      "t": 128579.133140625,
      "d": 1228.9899375000095,
      "v": 103
    },
    {
      "midi": 58,
      "hit": false,
      "t": 128747.200140625,
      "d": 1144.9564375000045,
      "v": 103
    },
    {
      "midi": 62,
      "hit": false,
      "t": 128899.510859375,
      "d": 908.6122187500005,
      "v": 103
    },
    {
      "midi": 67,
      "hit": false,
      "t": 129072.82995312501,
      "d": 372.8986562499922,
      "v": 103
    },
    {
      "midi": 69,
      "hit": false,
      "t": 129429.972328125,
      "d": 346.6381875000079,
      "v": 103
    },
    {
      "midi": 70,
      "hit": false,
      "t": 129755.60214062501,
      "d": 388.65493750000314,
      "v": 103
    },
    {
      "midi": 53,
      "hit": false,
      "t": 130102.24032812502,
      "d": 1029.4103750000068,
      "v": 103
    },
    {
      "midi": 69,
      "hit": false,
      "t": 130102.24032812502,
      "d": 1260.5025000000023,
      "v": 103
    },
    {
      "midi": 65,
      "hit": false,
      "t": 130104.86637500001,
      "d": 1173.842953125015,
      "v": 103
    },
    {
      "midi": 70,
      "hit": false,
      "t": 147239.82223437488,
      "d": 404.41121874999953,
      "v": 109
    },
    {
      "midi": 74,
      "hit": false,
      "t": 147239.82223437488,
      "d": 420.1675000000105,
      "v": 109
    },
    {
      "midi": 62,
      "hit": false,
      "t": 147239.82223437488,
      "d": 430.67168749999837,
      "v": 109
    },
    {
      "midi": 65,
      "hit": false,
      "t": 147245.07432812487,
      "d": 378.1507500000007,
      "v": 109
    },
    {
      "midi": 75,
      "hit": false,
      "t": 147754.52742187487,
      "d": 383.40284374999464,
      "v": 109
    },
    {
      "midi": 70,
      "hit": false,
      "t": 147754.52742187487,
      "d": 388.6549374999886,
      "v": 109
    },
    {
      "midi": 63,
      "hit": false,
      "t": 147754.52742187487,
      "d": 404.41121874999953,
      "v": 109
    },
    {
      "midi": 65,
      "hit": false,
      "t": 147757.15346874986,
      "d": 380.7767968749977,
      "v": 109
    },
    {
      "midi": 62,
      "hit": false,
      "t": 148253.47632812487,
      "d": 1155.460625000007,
      "v": 109
    },
    {
      "midi": 65,
      "hit": false,
      "t": 148253.47632812487,
      "d": 1155.460625000007,
      "v": 109
    },
    {
      "midi": 70,
      "hit": false,
      "t": 148253.47632812487,
      "d": 1176.4690000000119,
      "v": 109
    },
    {
      "midi": 74,
      "hit": false,
      "t": 148258.72842187487,
      "d": 1186.9731875000289,
      "v": 109
    },
    {
      "midi": 62,
      "hit": false,
      "t": 151168.3883593749,
      "d": 517.3312343749858,
      "v": 109
    },
    {
      "midi": 67,
      "hit": false,
      "t": 151205.15301562488,
      "d": 420.1674999999814,
      "v": 109
    },
    {
      "midi": 70,
      "hit": false,
      "t": 151241.91767187486,
      "d": 396.5330781250086,
      "v": 109
    },
    {
      "midi": 74,
      "hit": false,
      "t": 151241.91767187486,
      "d": 430.67168749999837,
      "v": 109
    },
    {
      "midi": 63,
      "hit": false,
      "t": 151751.3707656249,
      "d": 414.91540625001653,
      "v": 109
    },
    {
      "midi": 67,
      "hit": false,
      "t": 151772.3791406249,
      "d": 351.89028125000186,
      "v": 109
    },
    {
      "midi": 70,
      "hit": false,
      "t": 151772.3791406249,
      "d": 378.1507500000007,
      "v": 109
    },
    {
      "midi": 75,
      "hit": false,
      "t": 151772.3791406249,
      "d": 393.90703125001164,
      "v": 109
    },
    {
      "midi": 62,
      "hit": false,
      "t": 152234.5633906249,
      "d": 1113.4438750000263,
      "v": 109
    },
    {
      "midi": 67,
      "hit": false,
      "t": 152276.58014062492,
      "d": 1055.6708437500056,
      "v": 109
    },
    {
      "midi": 70,
      "hit": false,
      "t": 152297.58851562493,
      "d": 1050.4187500000116,
      "v": 109
    },
    {
      "midi": 74,
      "hit": false,
      "t": 152297.58851562493,
      "d": 1050.4187500000116,
      "v": 109
    },
    {
      "midi": 67,
      "hit": false,
      "t": 155280.77776562495,
      "d": 399.1591250000056,
      "v": 109
    },
    {
      "midi": 63,
      "hit": false,
      "t": 155280.77776562495,
      "d": 456.9321562500263,
      "v": 109
    },
    {
      "midi": 70,
      "hit": false,
      "t": 155312.29032812495,
      "d": 383.40284375002375,
      "v": 109
    },
    {
      "midi": 75,
      "hit": false,
      "t": 155312.29032812495,
      "d": 441.17587500004447,
      "v": 109
    },
    {
      "midi": 65,
      "hit": false,
      "t": 155821.743421875,
      "d": 336.1339999999909,
      "v": 109
    },
    {
      "midi": 70,
      "hit": false,
      "t": 155821.743421875,
      "d": 383.40284374999464,
      "v": 109
    },
    {
      "midi": 67,
      "hit": false,
      "t": 155824.36946875,
      "d": 333.50795312499395,
      "v": 109
    },
    {
      "midi": 77,
      "hit": false,
      "t": 155824.36946875,
      "d": 349.2642343750049,
      "v": 109
    },
    {
      "midi": 63,
      "hit": false,
      "t": 156310.188140625,
      "d": 1638.653250000003,
      "v": 109
    },
    {
      "midi": 67,
      "hit": false,
      "t": 156310.188140625,
      "d": 1638.653250000003,
      "v": 109
    },
    {
      "midi": 72,
      "hit": false,
      "t": 156336.448609375,
      "d": 1628.1490625000151,
      "v": 109
    },
    {
      "midi": 75,
      "hit": false,
      "t": 156336.448609375,
      "d": 1643.905343750026,
      "v": 109
    },
    {
      "midi": 65,
      "hit": false,
      "t": 158227.20235937502,
      "d": 1691.1741875000007,
      "v": 109
    },
    {
      "midi": 69,
      "hit": false,
      "t": 158284.975390625,
      "d": 1649.15743750002,
      "v": 109
    },
    {
      "midi": 77,
      "hit": false,
      "t": 158332.24423437502,
      "d": 1601.8885937500163,
      "v": 109
    },
    {
      "midi": 72,
      "hit": false,
      "t": 158332.24423437502,
      "d": 1675.4179062500189,
      "v": 109
    },
    {
      "midi": 65,
      "hit": false,
      "t": 163379.50632812505,
      "d": 383.40284374999464,
      "v": 109
    },
    {
      "midi": 70,
      "hit": false,
      "t": 163379.50632812505,
      "d": 399.1591250000056,
      "v": 109
    },
    {
      "midi": 62,
      "hit": false,
      "t": 163379.50632812505,
      "d": 428.0456406250014,
      "v": 109
    },
    {
      "midi": 74,
      "hit": false,
      "t": 163411.01889062504,
      "d": 393.90703125001164,
      "v": 109
    },
    {
      "midi": 63,
      "hit": false,
      "t": 163878.45523437505,
      "d": 412.28935937501956,
      "v": 109
    },
    {
      "midi": 65,
      "hit": false,
      "t": 163894.21151562507,
      "d": 367.6465624999837,
      "v": 109
    },
    {
      "midi": 70,
      "hit": false,
      "t": 163899.46360937506,
      "d": 378.1507500000007,
      "v": 109
    },
    {
      "midi": 75,
      "hit": false,
      "t": 163899.46360937506,
      "d": 378.1507500000007,
      "v": 109
    },
    {
      "midi": 62,
      "hit": false,
      "t": 164374.77809375006,
      "d": 1005.7759531250049,
      "v": 109
    },
    {
      "midi": 65,
      "hit": false,
      "t": 164393.16042187507,
      "d": 987.393624999997,
      "v": 109
    },
    {
      "midi": 70,
      "hit": false,
      "t": 164393.16042187507,
      "d": 987.393624999997,
      "v": 109
    },
    {
      "midi": 74,
      "hit": false,
      "t": 164398.41251562507,
      "d": 1003.1499062500079,
      "v": 109
    },
    {
      "midi": 62,
      "hit": false,
      "t": 167318.57664062508,
      "d": 477.940531249973,
      "v": 109
    },
    {
      "midi": 67,
      "hit": false,
      "t": 167355.34129687506,
      "d": 414.9154062499874,
      "v": 109
    },
    {
      "midi": 70,
      "hit": false,
      "t": 167392.10595312505,
      "d": 404.41121874999953,
      "v": 109
    },
    {
      "midi": 74,
      "hit": false,
      "t": 167423.61851562504,
      "d": 409.6633124999935,
      "v": 109
    },
    {
      "midi": 63,
      "hit": false,
      "t": 167917.31532812503,
      "d": 325.629812500003,
      "v": 109
    },
    {
      "midi": 67,
      "hit": false,
      "t": 167922.56742187502,
      "d": 336.13400000002,
      "v": 109
    },
    {
      "midi": 70,
      "hit": false,
      "t": 167948.82789062502,
      "d": 309.8735312500212,
      "v": 109
    },
    {
      "midi": 75,
      "hit": false,
      "t": 167948.82789062502,
      "d": 330.8819062500261,
      "v": 109
    },
    {
      "midi": 62,
      "hit": false,
      "t": 168368.99539062506,
      "d": 1176.4689999999828,
      "v": 109
    },
    {
      "midi": 67,
      "hit": false,
      "t": 168426.76842187505,
      "d": 1097.6875937499863,
      "v": 109
    },
    {
      "midi": 70,
      "hit": false,
      "t": 168426.76842187505,
      "d": 1118.6959687499912,
      "v": 109
    },
    {
      "midi": 74,
      "hit": false,
      "t": 168453.02889062505,
      "d": 1071.4271249999874,
      "v": 109
    },
    {
      "midi": 63,
      "hit": false,
      "t": 171399.45348437503,
      "d": 467.4363437500142,
      "v": 109
    },
    {
      "midi": 67,
      "hit": false,
      "t": 171420.46185937503,
      "d": 414.9154062499874,
      "v": 109
    },
    {
      "midi": 70,
      "hit": false,
      "t": 171420.46185937503,
      "d": 430.67168749999837,
      "v": 109
    },
    {
      "midi": 75,
      "hit": false,
      "t": 171457.22651562502,
      "d": 425.4195937500335,
      "v": 109
    },
    {
      "midi": 65,
      "hit": false,
      "t": 171940.41914062505,
      "d": 357.1423749999958,
      "v": 109
    },
    {
      "midi": 67,
      "hit": false,
      "t": 171940.41914062505,
      "d": 357.1423749999958,
      "v": 109
    },
    {
      "midi": 70,
      "hit": false,
      "t": 171940.41914062505,
      "d": 393.90703125001164,
      "v": 109
    },
    {
      "midi": 77,
      "hit": false,
      "t": 171977.18379687503,
      "d": 336.13400000002,
      "v": 109
    },
    {
      "midi": 63,
      "hit": false,
      "t": 172423.61176562507,
      "d": 1601.8885937499872,
      "v": 109
    },
    {
      "midi": 67,
      "hit": false,
      "t": 172444.62014062508,
      "d": 1533.6113749999786,
      "v": 109
    },
    {
      "midi": 72,
      "hit": false,
      "t": 172476.13270312507,
      "d": 1533.6113749999786,
      "v": 109
    },
    {
      "midi": 75,
      "hit": false,
      "t": 172476.13270312507,
      "d": 1533.6113749999786,
      "v": 109
    },
    {
      "midi": 65,
      "hit": false,
      "t": 174440.41576562505,
      "d": 1607.1406875000102,
      "v": 109
    },
    {
      "midi": 69,
      "hit": false,
      "t": 174461.42414062505,
      "d": 1570.3760312499944,
      "v": 109
    },
    {
      "midi": 72,
      "hit": false,
      "t": 174461.42414062505,
      "d": 1586.1323125000054,
      "v": 109
    },
    {
      "midi": 77,
      "hit": false,
      "t": 174498.18879687504,
      "d": 1517.8550937499967,
      "v": 109
    },
    {
      "midi": 58,
      "hit": false,
      "t": 190401.52867187507,
      "d": 173.31909375000396,
      "v": 109
    },
    {
      "midi": 67,
      "hit": false,
      "t": 190490.8142656251,
      "d": 1365.5443749999977,
      "v": 109
    },
    {
      "midi": 63,
      "hit": false,
      "t": 190527.57892187507,
      "d": 1260.5025000000023,
      "v": 109
    },
    {
      "midi": 70,
      "hit": false,
      "t": 190585.35195312506,
      "d": 1228.9899375000095,
      "v": 109
    },
    {
      "midi": 75,
      "hit": false,
      "t": 190611.61242187506,
      "d": 1160.712718750001,
      "v": 109
    },
    {
      "midi": 58,
      "hit": false,
      "t": 192497.11407812507,
      "d": 1176.4690000000119,
      "v": 109
    },
    {
      "midi": 65,
      "hit": false,
      "t": 192549.63501562507,
      "d": 1184.3471406250028,
      "v": 109
    },
    {
      "midi": 70,
      "hit": false,
      "t": 192602.15595312507,
      "d": 1165.9648124999949,
      "v": 109
    },
    {
      "midi": 62,
      "hit": false,
      "t": 192623.16432812507,
      "d": 1194.8513281249907,
      "v": 109
    },
    {
      "midi": 74,
      "hit": false,
      "t": 192649.42479687507,
      "d": 1118.6959687499912,
      "v": 109
    }
  ]
}