{
  "jsonPath": "Ambient/New Age/David Lanz/leaves-on-the-seine.json",
  "path": "Ambient\\New Age\\David Lanz\\Leaves On The Seine.mid",
  "name": "Leaves On The Seine",
  "difficulty": "Advanced",
  "bpm": 78.74997539063268,
  "notes": [
    {
      "midi": 57,
      "hit": false,
      "t": 6302.082325,
      "d": 972.2220666666663,
      "v": 72
    },
    {
      "midi": 64,
      "hit": false,
      "t": 7274.304391666667,
      "d": 11163.192658333332,
      "v": 53
    },
    {
      "midi": 85,
      "hit": false,
      "t": 8315.970891666666,
      "d": 3593.749425,
      "v": 89
    },
    {
      "midi": 57,
      "hit": false,
      "t": 8315.970891666666,
      "d": 10347.220566666665,
      "v": 61
    },
    {
      "midi": 83,
      "hit": false,
      "t": 12291.6647,
      "d": 4583.3326,
      "v": 66
    },
    {
      "midi": 76,
      "hit": false,
      "t": 12777.775733333332,
      "d": 1388.8886666666658,
      "v": 51
    },
    {
      "midi": 49,
      "hit": false,
      "t": 18680.552566666665,
      "d": 833.3332000000009,
      "v": 71
    },
    {
      "midi": 56,
      "hit": false,
      "t": 19670.135741666665,
      "d": 1319.4442333333318,
      "v": 56
    },
    {
      "midi": 49,
      "hit": false,
      "t": 20833.329999999998,
      "d": 6284.721216666669,
      "v": 60
    },
    {
      "midi": 73,
      "hit": false,
      "t": 20868.052216666663,
      "d": 555.5554666666685,
      "v": 48
    },
    {
      "midi": 85,
      "hit": false,
      "t": 20868.052216666663,
      "d": 1493.0553166666687,
      "v": 85
    },
    {
      "midi": 83,
      "hit": false,
      "t": 24652.773833333333,
      "d": 1284.7220166666666,
      "v": 44
    },
    {
      "midi": 76,
      "hit": false,
      "t": 24999.996,
      "d": 1041.6664999999994,
      "v": 54
    },
    {
      "midi": 54,
      "hit": false,
      "t": 31180.550566666665,
      "d": 1180.5553666666674,
      "v": 67
    },
    {
      "midi": 81,
      "hit": false,
      "t": 31180.550566666665,
      "d": 2760.416225000001,
      "v": 79
    },
    {
      "midi": 61,
      "hit": false,
      "t": 32204.855958333334,
      "d": 11111.109333333334,
      "v": 70
    },
    {
      "midi": 85,
      "hit": false,
      "t": 33333.328,
      "d": 2239.5829749999975,
      "v": 64
    },
    {
      "midi": 93,
      "hit": false,
      "t": 33333.328,
      "d": 3090.2772833333293,
      "v": 87
    },
    {
      "midi": 69,
      "hit": false,
      "t": 33402.77243333333,
      "d": 7951.387616666667,
      "v": 53
    },
    {
      "midi": 83,
      "hit": false,
      "t": 36475.68860833333,
      "d": 243.05551666666724,
      "v": 62
    },
    {
      "midi": 92,
      "hit": false,
      "t": 36475.68860833333,
      "d": 329.8610583333357,
      "v": 76
    },
    {
      "midi": 83,
      "hit": false,
      "t": 37534.71621666667,
      "d": 781.2498750000013,
      "v": 68
    },
    {
      "midi": 92,
      "hit": false,
      "t": 37534.71621666667,
      "d": 1979.1663499999995,
      "v": 73
    },
    {
      "midi": 81,
      "hit": false,
      "t": 39513.88256666667,
      "d": 3611.1105333333326,
      "v": 54
    },
    {
      "midi": 90,
      "hit": false,
      "t": 39583.327,
      "d": 3489.5827750000026,
      "v": 66
    },
    {
      "midi": 88,
      "hit": false,
      "t": 42864.576475,
      "d": 347.22216666666645,
      "v": 86
    },
    {
      "midi": 88,
      "hit": false,
      "t": 43749.993,
      "d": 3090.2772833333293,
      "v": 95
    },
    {
      "midi": 50,
      "hit": false,
      "t": 43749.993,
      "d": 9965.276183333328,
      "v": 77
    },
    {
      "midi": 57,
      "hit": false,
      "t": 44739.576175,
      "d": 9670.137341666661,
      "v": 67
    },
    {
      "midi": 81,
      "hit": false,
      "t": 45920.13154166667,
      "d": 2447.916274999996,
      "v": 54
    },
    {
      "midi": 66,
      "hit": false,
      "t": 45920.13154166667,
      "d": 6059.0268083333285,
      "v": 57
    },
    {
      "midi": 90,
      "hit": false,
      "t": 45989.575975,
      "d": 1562.4997499999954,
      "v": 58
    },
    {
      "midi": 86,
      "hit": false,
      "t": 49600.68650833333,
      "d": 121.52775833332998,
      "v": 66
    },
    {
      "midi": 85,
      "hit": false,
      "t": 49774.29759166666,
      "d": 173.61108333333686,
      "v": 59
    },
    {
      "midi": 86,
      "hit": false,
      "t": 49999.992,
      "d": 2430.555166666665,
      "v": 57
    },
    {
      "midi": 57,
      "hit": false,
      "t": 56232.629891666664,
      "d": 3663.193858333325,
      "v": 55
    },
    {
      "midi": 76,
      "hit": false,
      "t": 56302.074324999994,
      "d": 1406.2497749999966,
      "v": 74
    },
    {
      "midi": 64,
      "hit": false,
      "t": 57239.574174999994,
      "d": 1024.3053916666613,
      "v": 56
    },
    {
      "midi": 73,
      "hit": false,
      "t": 58246.518458333325,
      "d": 868.0554166666625,
      "v": 65
    },
    {
      "midi": 85,
      "hit": false,
      "t": 58246.518458333325,
      "d": 937.4998499999929,
      "v": 89
    },
    {
      "midi": 76,
      "hit": false,
      "t": 58333.323999999986,
      "d": 624.9999000000025,
      "v": 54
    },
    {
      "midi": 64,
      "hit": false,
      "t": 59357.629391666655,
      "d": 781.2498750000013,
      "v": 44
    },
    {
      "midi": 71,
      "hit": false,
      "t": 60295.129241666655,
      "d": 624.9999000000025,
      "v": 67
    },
    {
      "midi": 83,
      "hit": false,
      "t": 60295.129241666655,
      "d": 781.2498750000013,
      "v": 77
    },
    {
      "midi": 64,
      "hit": false,
      "t": 61354.15684999999,
      "d": 243.05551666666724,
      "v": 35
    },
    {
      "midi": 64,
      "hit": false,
      "t": 62499.98999999999,
      "d": 3420.138341666665,
      "v": 41
    },
    {
      "midi": 69,
      "hit": false,
      "t": 62499.98999999999,
      "d": 3420.138341666665,
      "v": 46
    },
    {
      "midi": 73,
      "hit": false,
      "t": 62499.98999999999,
      "d": 10052.081725000025,
      "v": 56
    },
    {
      "midi": 88,
      "hit": false,
      "t": 62708.32329999999,
      "d": 3003.471741666668,
      "v": 74
    },
    {
      "midi": 49,
      "hit": false,
      "t": 68663.18345833333,
      "d": 8906.24857500002,
      "v": 51
    },
    {
      "midi": 76,
      "hit": false,
      "t": 68732.62789166666,
      "d": 2638.8884666666854,
      "v": 73
    },
    {
      "midi": 56,
      "hit": false,
      "t": 69722.21106666667,
      "d": 7864.582075000013,
      "v": 45
    },
    {
      "midi": 61,
      "hit": false,
      "t": 70763.87756666668,
      "d": 6944.443333333344,
      "v": 47
    },
    {
      "midi": 85,
      "hit": false,
      "t": 70833.32200000001,
      "d": 1388.8886666666658,
      "v": 63
    },
    {
      "midi": 83,
      "hit": false,
      "t": 74704.84915833335,
      "d": 277.7777333333361,
      "v": 52
    },
    {
      "midi": 85,
      "hit": false,
      "t": 74982.62689166669,
      "d": 1892.3608083333238,
      "v": 53
    },
    {
      "midi": 54,
      "hit": false,
      "t": 81267.34810833336,
      "d": 1944.444133333338,
      "v": 59
    },
    {
      "midi": 81,
      "hit": false,
      "t": 81267.34810833336,
      "d": 3055.5550666666677,
      "v": 59
    },
    {
      "midi": 61,
      "hit": false,
      "t": 82361.09793333337,
      "d": 1093.7498249999917,
      "v": 50
    },
    {
      "midi": 93,
      "hit": false,
      "t": 83298.59778333336,
      "d": 3055.5550666666677,
      "v": 85
    },
    {
      "midi": 85,
      "hit": false,
      "t": 83385.40332500002,
      "d": 1545.1386416666792,
      "v": 60
    },
    {
      "midi": 69,
      "hit": false,
      "t": 83472.2088666667,
      "d": 729.1665499999945,
      "v": 29
    },
    {
      "midi": 61,
      "hit": false,
      "t": 84270.81985000003,
      "d": 972.222066666669,
      "v": 48
    },
    {
      "midi": 69,
      "hit": false,
      "t": 85173.59748333336,
      "d": 1302.0831250000047,
      "v": 44
    },
    {
      "midi": 83,
      "hit": false,
      "t": 86371.51395833337,
      "d": 520.833249999996,
      "v": 77
    },
    {
      "midi": 92,
      "hit": false,
      "t": 86371.51395833337,
      "d": 520.833249999996,
      "v": 77
    },
    {
      "midi": 61,
      "hit": false,
      "t": 86475.68060833336,
      "d": 954.8609583333309,
      "v": 50
    },
    {
      "midi": 54,
      "hit": false,
      "t": 87517.34710833336,
      "d": 5121.526958333328,
      "v": 59
    },
    {
      "midi": 83,
      "hit": false,
      "t": 87604.15265000002,
      "d": 1041.6665000000066,
      "v": 81
    },
    {
      "midi": 92,
      "hit": false,
      "t": 87604.15265000002,
      "d": 1996.5274583333376,
      "v": 87
    },
    {
      "midi": 61,
      "hit": false,
      "t": 88645.81915000002,
      "d": 1041.666499999992,
      "v": 49
    },
    {
      "midi": 69,
      "hit": false,
      "t": 89600.68010833336,
      "d": 1111.1109333333297,
      "v": 34
    },
    {
      "midi": 90,
      "hit": false,
      "t": 89600.68010833336,
      "d": 2951.388416666654,
      "v": 84
    },
    {
      "midi": 81,
      "hit": false,
      "t": 89600.68010833336,
      "d": 3315.9716916666657,
      "v": 66
    },
    {
      "midi": 61,
      "hit": false,
      "t": 90711.79104166669,
      "d": 1111.1109333333297,
      "v": 50
    },
    {
      "midi": 69,
      "hit": false,
      "t": 91718.73532500002,
      "d": 989.583175000007,
      "v": 44
    },
    {
      "midi": 61,
      "hit": false,
      "t": 92621.51295833335,
      "d": 364.5832750000118,
      "v": 74
    },
    {
      "midi": 88,
      "hit": false,
      "t": 92708.31850000002,
      "d": 451.38881666667294,
      "v": 87
    },
    {
      "midi": 88,
      "hit": false,
      "t": 93697.90167500003,
      "d": 2152.777433333322,
      "v": 95
    },
    {
      "midi": 50,
      "hit": false,
      "t": 93697.90167500003,
      "d": 5381.943583333312,
      "v": 76
    },
    {
      "midi": 57,
      "hit": false,
      "t": 94774.2903916667,
      "d": 1076.3887166666536,
      "v": 68
    },
    {
      "midi": 66,
      "hit": false,
      "t": 95763.87356666669,
      "d": 989.5831749999925,
      "v": 66
    },
    {
      "midi": 90,
      "hit": false,
      "t": 95763.87356666669,
      "d": 1076.3887166666536,
      "v": 84
    },
    {
      "midi": 81,
      "hit": false,
      "t": 95763.87356666669,
      "d": 3315.971691666651,
      "v": 71
    },
    {
      "midi": 57,
      "hit": false,
      "t": 96805.54006666668,
      "d": 1232.638691666667,
      "v": 63
    },
    {
      "midi": 64,
      "hit": false,
      "t": 97934.01210833335,
      "d": 1232.6386916666524,
      "v": 55
    },
    {
      "midi": 86,
      "hit": false,
      "t": 98975.67860833334,
      "d": 468.7499249999819,
      "v": 78
    },
    {
      "midi": 57,
      "hit": false,
      "t": 99079.84525833334,
      "d": 954.8609583333164,
      "v": 62
    },
    {
      "midi": 85,
      "hit": false,
      "t": 99357.62299166666,
      "d": 659.7221166666568,
      "v": 60
    },
    {
      "midi": 86,
      "hit": false,
      "t": 100017.34510833332,
      "d": 4114.582675000012,
      "v": 85
    },
    {
      "midi": 50,
      "hit": false,
      "t": 100017.34510833332,
      "d": 4756.943683333346,
      "v": 78
    },
    {
      "midi": 57,
      "hit": false,
      "t": 101024.28939166667,
      "d": 1093.7498249999917,
      "v": 70
    },
    {
      "midi": 66,
      "hit": false,
      "t": 102031.233675,
      "d": 1006.9442833333305,
      "v": 64
    },
    {
      "midi": 57,
      "hit": false,
      "t": 103142.34460833333,
      "d": 1302.0831250000047,
      "v": 60
    },
    {
      "midi": 64,
      "hit": false,
      "t": 104166.65,
      "d": 381.9443833333353,
      "v": 66
    },
    {
      "midi": 78,
      "hit": false,
      "t": 106284.70521666667,
      "d": 711.8054416666564,
      "v": 82
    },
    {
      "midi": 86,
      "hit": false,
      "t": 106284.70521666667,
      "d": 1354.1664499999897,
      "v": 100
    },
    {
      "midi": 47,
      "hit": false,
      "t": 106371.51075833333,
      "d": 5034.721416666638,
      "v": 70
    },
    {
      "midi": 54,
      "hit": false,
      "t": 107274.28839166666,
      "d": 989.5831749999925,
      "v": 50
    },
    {
      "midi": 85,
      "hit": false,
      "t": 108263.87156666665,
      "d": 1440.9719916666509,
      "v": 81
    },
    {
      "midi": 76,
      "hit": false,
      "t": 108350.67710833332,
      "d": 190.97219166666036,
      "v": 82
    },
    {
      "midi": 62,
      "hit": false,
      "t": 108350.67710833332,
      "d": 763.888766666656,
      "v": 34
    },
    {
      "midi": 54,
      "hit": false,
      "t": 109305.53806666663,
      "d": 954.8609583333455,
      "v": 52
    },
    {
      "midi": 74,
      "hit": false,
      "t": 110451.37121666664,
      "d": 815.9720916666702,
      "v": 79
    },
    {
      "midi": 59,
      "hit": false,
      "t": 110451.37121666664,
      "d": 902.7776333333313,
      "v": 61
    },
    {
      "midi": 83,
      "hit": false,
      "t": 110451.37121666664,
      "d": 989.5831749999925,
      "v": 87
    },
    {
      "midi": 54,
      "hit": false,
      "t": 111354.14884999997,
      "d": 989.5831749999925,
      "v": 55
    },
    {
      "midi": 83,
      "hit": false,
      "t": 112430.53756666662,
      "d": 2881.943983333331,
      "v": 91
    },
    {
      "midi": 74,
      "hit": false,
      "t": 112430.53756666662,
      "d": 2968.749524999992,
      "v": 75
    },
    {
      "midi": 47,
      "hit": false,
      "t": 112430.53756666662,
      "d": 4218.7493249999825,
      "v": 75
    },
    {
      "midi": 54,
      "hit": false,
      "t": 113454.84295833329,
      "d": 1111.1109333333297,
      "v": 50
    },
    {
      "midi": 62,
      "hit": false,
      "t": 114565.95389166662,
      "d": 746.5276583333325,
      "v": 52
    },
    {
      "midi": 54,
      "hit": false,
      "t": 115503.45374166661,
      "d": 1319.4442333333282,
      "v": 57
    },
    {
      "midi": 59,
      "hit": false,
      "t": 116458.31469999994,
      "d": 468.74992499999644,
      "v": 75
    },
    {
      "midi": 74,
      "hit": false,
      "t": 116545.1202416666,
      "d": 277.7777333333361,
      "v": 50
    },
    {
      "midi": 83,
      "hit": false,
      "t": 116545.1202416666,
      "d": 572.9165749999956,
      "v": 92
    },
    {
      "midi": 76,
      "hit": false,
      "t": 117638.8700666666,
      "d": 399.30549166667333,
      "v": 74
    },
    {
      "midi": 85,
      "hit": false,
      "t": 117638.8700666666,
      "d": 590.2776833333337,
      "v": 86
    },
    {
      "midi": 86,
      "hit": false,
      "t": 118628.4532416666,
      "d": 1579.8608583333262,
      "v": 104
    },
    {
      "midi": 78,
      "hit": false,
      "t": 118732.6198916666,
      "d": 798.6109833333321,
      "v": 81
    },
    {
      "midi": 52,
      "hit": false,
      "t": 118732.6198916666,
      "d": 5746.526858333324,
      "v": 88
    },
    {
      "midi": 59,
      "hit": false,
      "t": 119791.64749999993,
      "d": 5017.360308333329,
      "v": 74
    },
    {
      "midi": 85,
      "hit": false,
      "t": 120937.48064999992,
      "d": 2708.332899999994,
      "v": 88
    },
    {
      "midi": 76,
      "hit": false,
      "t": 121024.28619166659,
      "d": 1145.8331500000058,
      "v": 78
    },
    {
      "midi": 64,
      "hit": false,
      "t": 121024.28619166659,
      "d": 3767.3605083333387,
      "v": 65
    },
    {
      "midi": 74,
      "hit": false,
      "t": 124045.11904166659,
      "d": 364.58327499999723,
      "v": 82
    },
    {
      "midi": 83,
      "hit": false,
      "t": 124131.92458333325,
      "d": 642.3610083333333,
      "v": 85
    },
    {
      "midi": 78,
      "hit": false,
      "t": 125190.9521916666,
      "d": 781.2498750000086,
      "v": 74
    },
    {
      "midi": 86,
      "hit": false,
      "t": 125190.9521916666,
      "d": 1024.3053916666686,
      "v": 96
    },
    {
      "midi": 53,
      "hit": false,
      "t": 125190.9521916666,
      "d": 4861.11033333333,
      "v": 72
    },
    {
      "midi": 61,
      "hit": false,
      "t": 126128.4520416666,
      "d": 5017.360308333329,
      "v": 49
    },
    {
      "midi": 85,
      "hit": false,
      "t": 127222.2018666666,
      "d": 3593.749425000002,
      "v": 73
    },
    {
      "midi": 77,
      "hit": false,
      "t": 127291.64629999993,
      "d": 989.5831749999925,
      "v": 59
    },
    {
      "midi": 65,
      "hit": false,
      "t": 127291.64629999993,
      "d": 3593.749425000002,
      "v": 59
    },
    {
      "midi": 74,
      "hit": false,
      "t": 130156.22917499993,
      "d": 416.6666000000114,
      "v": 67
    },
    {
      "midi": 83,
      "hit": false,
      "t": 130225.67360833327,
      "d": 850.6943083333463,
      "v": 82
    },
    {
      "midi": 54,
      "hit": false,
      "t": 131249.97899999993,
      "d": 2100.694108333322,
      "v": 55
    },
    {
      "midi": 81,
      "hit": false,
      "t": 131249.97899999993,
      "d": 7256.943283333327,
      "v": 79
    },
    {
      "midi": 73,
      "hit": false,
      "t": 131249.97899999993,
      "d": 7708.3321,
      "v": 64
    },
    {
      "midi": 61,
      "hit": false,
      "t": 132309.00660833326,
      "d": 1145.8331499999913,
      "v": 55
    },
    {
      "midi": 69,
      "hit": false,
      "t": 133263.8675666666,
      "d": 1059.0276083333301,
      "v": 63
    },
    {
      "midi": 61,
      "hit": false,
      "t": 134253.4507416666,
      "d": 1163.1942583333293,
      "v": 63
    },
    {
      "midi": 68,
      "hit": false,
      "t": 135416.64499999993,
      "d": 4340.277083333349,
      "v": 48
    },
    {
      "midi": 61,
      "hit": false,
      "t": 136458.31149999992,
      "d": 5989.582374999998,
      "v": 54
    },
    {
      "midi": 54,
      "hit": false,
      "t": 137795.1168416666,
      "d": 3628.4716416666633,
      "v": 50
    },
    {
      "midi": 85,
      "hit": false,
      "t": 142725.67160833324,
      "d": 624.9998999999953,
      "v": 67
    },
    {
      "midi": 85,
      "hit": false,
      "t": 143784.69921666657,
      "d": 1128.4720416666532,
      "v": 78
    },
    {
      "midi": 55,
      "hit": false,
      "t": 143784.69921666657,
      "d": 11736.10923333335,
      "v": 72
    },
    {
      "midi": 86,
      "hit": false,
      "t": 144826.36571666657,
      "d": 6753.471141666698,
      "v": 91
    },
    {
      "midi": 62,
      "hit": false,
      "t": 144913.17125833323,
      "d": 1024.305391666654,
      "v": 70
    },
    {
      "midi": 71,
      "hit": false,
      "t": 145937.47664999988,
      "d": 954.8609583333309,
      "v": 55
    },
    {
      "midi": 83,
      "hit": false,
      "t": 146006.9210833332,
      "d": 1840.2774833333388,
      "v": 78
    },
    {
      "midi": 62,
      "hit": false,
      "t": 146979.14314999987,
      "d": 1041.6665000000212,
      "v": 45
    },
    {
      "midi": 69,
      "hit": false,
      "t": 148003.44854166656,
      "d": 868.0554166666698,
      "v": 40
    },
    {
      "midi": 81,
      "hit": false,
      "t": 148003.44854166656,
      "d": 2465.277383333363,
      "v": 65
    },
    {
      "midi": 62,
      "hit": false,
      "t": 148871.50395833323,
      "d": 4340.277083333378,
      "v": 54
    },
    {
      "midi": 83,
      "hit": false,
      "t": 149999.9759999999,
      "d": 2760.4162250000227,
      "v": 69
    },
    {
      "midi": 67,
      "hit": false,
      "t": 149999.9759999999,
      "d": 3697.9160750000156,
      "v": 36
    },
    {
      "midi": 64,
      "hit": false,
      "t": 156249.97499999992,
      "d": 1579.8608583333262,
      "v": 98
    },
    {
      "midi": 45,
      "hit": false,
      "t": 156249.97499999992,
      "d": 5503.471341666707,
      "v": 83
    },
    {
      "midi": 52,
      "hit": false,
      "t": 157326.3637166666,
      "d": 1076.3887166666682,
      "v": 72
    },
    {
      "midi": 61,
      "hit": false,
      "t": 158420.1135416666,
      "d": 1024.3053916666831,
      "v": 88
    },
    {
      "midi": 73,
      "hit": false,
      "t": 158420.1135416666,
      "d": 2187.4996500000416,
      "v": 101
    },
    {
      "midi": 64,
      "hit": false,
      "t": 158420.1135416666,
      "d": 2343.749625000055,
      "v": 96
    },
    {
      "midi": 52,
      "hit": false,
      "t": 159427.05782499994,
      "d": 1024.3053916666831,
      "v": 70
    },
    {
      "midi": 59,
      "hit": false,
      "t": 160451.36321666662,
      "d": 1024.3053916666831,
      "v": 79
    },
    {
      "midi": 71,
      "hit": false,
      "t": 161388.86306666664,
      "d": 1093.7498249999771,
      "v": 101
    },
    {
      "midi": 64,
      "hit": false,
      "t": 161458.30749999997,
      "d": 347.22216666667373,
      "v": 73
    },
    {
      "midi": 52,
      "hit": false,
      "t": 161458.30749999997,
      "d": 937.4998499999929,
      "v": 86
    },
    {
      "midi": 45,
      "hit": false,
      "t": 162395.80734999996,
      "d": 5173.610283333313,
      "v": 79
    },
    {
      "midi": 64,
      "hit": false,
      "t": 162482.61289166662,
      "d": 4999.999199999991,
      "v": 101
    },
    {
      "midi": 52,
      "hit": false,
      "t": 163506.9182833333,
      "d": 1024.305391666654,
      "v": 80
    },
    {
      "midi": 61,
      "hit": false,
      "t": 164444.4181333333,
      "d": 1024.305391666654,
      "v": 89
    },
    {
      "midi": 52,
      "hit": false,
      "t": 165538.16795833327,
      "d": 1284.7220166666666,
      "v": 79
    },
    {
      "midi": 59,
      "hit": false,
      "t": 166718.72332499994,
      "d": 1232.6386916666524,
      "v": 86
    },
    {
      "midi": 52,
      "hit": false,
      "t": 167673.58428333327,
      "d": 347.2221666666446,
      "v": 82
    },
    {
      "midi": 64,
      "hit": false,
      "t": 168732.61189166657,
      "d": 954.8609583333018,
      "v": 101
    },
    {
      "midi": 49,
      "hit": false,
      "t": 168732.61189166657,
      "d": 5156.249174999975,
      "v": 75
    },
    {
      "midi": 56,
      "hit": false,
      "t": 169774.27839166654,
      "d": 1215.2775833333144,
      "v": 60
    },
    {
      "midi": 73,
      "hit": false,
      "t": 170815.94489166653,
      "d": 1302.0831250000047,
      "v": 93
    },
    {
      "midi": 68,
      "hit": false,
      "t": 170815.94489166653,
      "d": 1562.4997500000172,
      "v": 93
    },
    {
      "midi": 64,
      "hit": false,
      "t": 170902.7504333332,
      "d": 868.0554166666698,
      "v": 49
    },
    {
      "midi": 56,
      "hit": false,
      "t": 171857.61139166652,
      "d": 1215.2775833333435,
      "v": 56
    },
    {
      "midi": 62,
      "hit": false,
      "t": 172899.27789166654,
      "d": 868.0554166666698,
      "v": 65
    },
    {
      "midi": 71,
      "hit": false,
      "t": 173854.13884999987,
      "d": 1059.0276083333592,
      "v": 94
    },
    {
      "midi": 56,
      "hit": false,
      "t": 173940.94439166656,
      "d": 781.2498750000086,
      "v": 50
    },
    {
      "midi": 68,
      "hit": false,
      "t": 173940.94439166656,
      "d": 1145.8331499999913,
      "v": 79
    },
    {
      "midi": 49,
      "hit": false,
      "t": 174913.16645833323,
      "d": 1493.055316666665,
      "v": 73
    },
    {
      "midi": 64,
      "hit": false,
      "t": 174913.16645833323,
      "d": 1579.8608583333262,
      "v": 91
    },
    {
      "midi": 56,
      "hit": false,
      "t": 175972.19406666656,
      "d": 2829.8606583333167,
      "v": 53
    },
    {
      "midi": 64,
      "hit": false,
      "t": 177118.02721666655,
      "d": 1840.2774833333388,
      "v": 56
    },
    {
      "midi": 71,
      "hit": false,
      "t": 180260.3878249999,
      "d": 173.6110833333223,
      "v": 58
    },
    {
      "midi": 73,
      "hit": false,
      "t": 180520.80444999988,
      "d": 434.0277083333349,
      "v": 70
    },
    {
      "midi": 71,
      "hit": false,
      "t": 180781.2210749999,
      "d": 347.2221666666446,
      "v": 66
    },
    {
      "midi": 54,
      "hit": false,
      "t": 180954.8321583332,
      "d": 5260.415824999975,
      "v": 51
    },
    {
      "midi": 69,
      "hit": false,
      "t": 181128.44324166654,
      "d": 1059.0276083333301,
      "v": 85
    },
    {
      "midi": 61,
      "hit": false,
      "t": 182256.9152833332,
      "d": 1232.6386916666524,
      "v": 67
    },
    {
      "midi": 73,
      "hit": false,
      "t": 183298.58178333318,
      "d": 1805.5552666666626,
      "v": 84
    },
    {
      "midi": 81,
      "hit": false,
      "t": 183298.58178333318,
      "d": 2847.221766666684,
      "v": 94
    },
    {
      "midi": 69,
      "hit": false,
      "t": 183385.38732499984,
      "d": 885.4165250000078,
      "v": 66
    },
    {
      "midi": 61,
      "hit": false,
      "t": 184357.6093916665,
      "d": 798.6109833333467,
      "v": 64
    },
    {
      "midi": 69,
      "hit": false,
      "t": 185347.19256666652,
      "d": 1076.3887166666682,
      "v": 42
    },
    {
      "midi": 61,
      "hit": false,
      "t": 186493.0257166665,
      "d": 486.11103333331994,
      "v": 57
    },
    {
      "midi": 71,
      "hit": false,
      "t": 186493.0257166665,
      "d": 486.11103333331994,
      "v": 79
    },
    {
      "midi": 80,
      "hit": false,
      "t": 186493.0257166665,
      "d": 572.9165749999811,
      "v": 77
    },
    {
      "midi": 54,
      "hit": false,
      "t": 187534.6922166665,
      "d": 5208.33249999996,
      "v": 68
    },
    {
      "midi": 80,
      "hit": false,
      "t": 187621.49775833316,
      "d": 1996.527458333323,
      "v": 91
    },
    {
      "midi": 71,
      "hit": false,
      "t": 187621.49775833316,
      "d": 4861.110333333287,
      "v": 89
    },
    {
      "midi": 61,
      "hit": false,
      "t": 188576.3587166665,
      "d": 1128.4720416666532,
      "v": 59
    },
    {
      "midi": 69,
      "hit": false,
      "t": 189618.0252166665,
      "d": 937.4998499999929,
      "v": 66
    },
    {
      "midi": 78,
      "hit": false,
      "t": 189618.0252166665,
      "d": 3263.8883666666516,
      "v": 89
    },
    {
      "midi": 61,
      "hit": false,
      "t": 190642.33060833314,
      "d": 1024.305391666654,
      "v": 66
    },
    {
      "midi": 69,
      "hit": false,
      "t": 191666.6359999998,
      "d": 1093.7498250000062,
      "v": 54
    },
    {
      "midi": 61,
      "hit": false,
      "t": 192760.3858249998,
      "d": 190.97219166666036,
      "v": 60
    },
    {
      "midi": 76,
      "hit": false,
      "t": 192760.3858249998,
      "d": 364.5832749999827,
      "v": 91
    },
    {
      "midi": 76,
      "hit": false,
      "t": 193854.13564999978,
      "d": 2170.1385416666744,
      "v": 103
    },
    {
      "midi": 50,
      "hit": false,
      "t": 193854.13564999978,
      "d": 5121.526958333387,
      "v": 86
    },
    {
      "midi": 57,
      "hit": false,
      "t": 194808.9966083331,
      "d": 1041.6665000000212,
      "v": 64
    },
    {
      "midi": 66,
      "hit": false,
      "t": 195850.66310833313,
      "d": 972.222066666669,
      "v": 69
    },
    {
      "midi": 78,
      "hit": false,
      "t": 195850.66310833313,
      "d": 1076.3887166666682,
      "v": 87
    },
    {
      "midi": 69,
      "hit": false,
      "t": 195850.66310833313,
      "d": 2499.99960000001,
      "v": 78
    },
    {
      "midi": 57,
      "hit": false,
      "t": 196822.8851749998,
      "d": 1076.3887166666682,
      "v": 62
    },
    {
      "midi": 64,
      "hit": false,
      "t": 197812.4683499998,
      "d": 1076.3887166666682,
      "v": 64
    },
    {
      "midi": 74,
      "hit": false,
      "t": 198854.1348499998,
      "d": 486.11103333337815,
      "v": 79
    },
    {
      "midi": 57,
      "hit": false,
      "t": 198940.9403916665,
      "d": 868.0554166666989,
      "v": 66
    },
    {
      "midi": 73,
      "hit": false,
      "t": 199322.88477499984,
      "d": 572.9165750000102,
      "v": 61
    },
    {
      "midi": 74,
      "hit": false,
      "t": 199895.80134999985,
      "d": 4114.582674999983,
      "v": 86
    },
    {
      "midi": 50,
      "hit": false,
      "t": 199895.80134999985,
      "d": 6215.276783333335,
      "v": 79
    },
    {
      "midi": 57,
      "hit": false,
      "t": 201006.91228333316,
      "d": 4513.888166666671,
      "v": 60
    },
    {
      "midi": 66,
      "hit": false,
      "t": 202118.0232166665,
      "d": 1979.166349999985,
      "v": 52
    },
    {
      "midi": 73,
      "hit": false,
      "t": 205642.32820833317,
      "d": 312.4999499999976,
      "v": 80
    },
    {
      "midi": 81,
      "hit": false,
      "t": 205642.32820833317,
      "d": 451.38881666667294,
      "v": 89
    },
    {
      "midi": 74,
      "hit": false,
      "t": 205954.82815833317,
      "d": 190.97219166668947,
      "v": 101
    },
    {
      "midi": 81,
      "hit": false,
      "t": 206284.68921666653,
      "d": 729.1665499999945,
      "v": 78
    },
    {
      "midi": 76,
      "hit": false,
      "t": 206284.68921666653,
      "d": 781.2498750000086,
      "v": 103
    },
    {
      "midi": 45,
      "hit": false,
      "t": 206371.4947583332,
      "d": 5260.415825000062,
      "v": 82
    },
    {
      "midi": 81,
      "hit": false,
      "t": 207378.43904166654,
      "d": 590.2776833333191,
      "v": 78
    },
    {
      "midi": 74,
      "hit": false,
      "t": 207378.43904166654,
      "d": 850.6943083333317,
      "v": 86
    },
    {
      "midi": 52,
      "hit": false,
      "t": 207378.43904166654,
      "d": 989.583175000007,
      "v": 72
    },
    {
      "midi": 81,
      "hit": false,
      "t": 208368.02221666655,
      "d": 555.5554666666721,
      "v": 74
    },
    {
      "midi": 74,
      "hit": false,
      "t": 208368.02221666655,
      "d": 798.6109833333467,
      "v": 87
    },
    {
      "midi": 61,
      "hit": false,
      "t": 208368.02221666655,
      "d": 833.3332000000228,
      "v": 77
    },
    {
      "midi": 81,
      "hit": false,
      "t": 209392.32760833323,
      "d": 572.9165750000102,
      "v": 75
    },
    {
      "midi": 73,
      "hit": false,
      "t": 209392.32760833323,
      "d": 677.0832250000094,
      "v": 88
    },
    {
      "midi": 52,
      "hit": false,
      "t": 209392.32760833323,
      "d": 1006.9442833333451,
      "v": 69
    },
    {
      "midi": 81,
      "hit": false,
      "t": 210399.27189166658,
      "d": 555.5554666666721,
      "v": 77
    },
    {
      "midi": 73,
      "hit": false,
      "t": 210399.27189166658,
      "d": 642.3610083333333,
      "v": 87
    },
    {
      "midi": 59,
      "hit": false,
      "t": 210399.27189166658,
      "d": 1006.9442833333451,
      "v": 63
    },
    {
      "midi": 81,
      "hit": false,
      "t": 211440.9383916666,
      "d": 642.3610083333333,
      "v": 78
    },
    {
      "midi": 71,
      "hit": false,
      "t": 211440.9383916666,
      "d": 798.6109833333467,
      "v": 88
    },
    {
      "midi": 52,
      "hit": false,
      "t": 211440.9383916666,
      "d": 954.86095833336,
      "v": 75
    },
    {
      "midi": 73,
      "hit": false,
      "t": 212482.60489166662,
      "d": 4444.44373333329,
      "v": 91
    },
    {
      "midi": 81,
      "hit": false,
      "t": 212482.60489166662,
      "d": 4635.41592499995,
      "v": 77
    },
    {
      "midi": 45,
      "hit": false,
      "t": 212482.60489166662,
      "d": 5486.110233333311,
      "v": 79
    },
    {
      "midi": 52,
      "hit": false,
      "t": 213524.2713916666,
      "d": 1128.4720416666532,
      "v": 77
    },
    {
      "midi": 61,
      "hit": false,
      "t": 214652.74343333326,
      "d": 902.7776333333168,
      "v": 87
    },
    {
      "midi": 52,
      "hit": false,
      "t": 215659.68771666658,
      "d": 989.583175000007,
      "v": 72
    },
    {
      "midi": 59,
      "hit": false,
      "t": 216649.2708916666,
      "d": 1180.5553666666674,
      "v": 78
    },
    {
      "midi": 52,
      "hit": false,
      "t": 217673.57628333324,
      "d": 381.94438333334983,
      "v": 86
    },
    {
      "midi": 73,
      "hit": false,
      "t": 217777.74293333324,
      "d": 468.749925000011,
      "v": 83
    },
    {
      "midi": 81,
      "hit": false,
      "t": 217777.74293333324,
      "d": 555.5554666666721,
      "v": 83
    },
    {
      "midi": 74,
      "hit": false,
      "t": 218246.49285833325,
      "d": 277.7777333333215,
      "v": 85
    },
    {
      "midi": 81,
      "hit": false,
      "t": 218715.24278333323,
      "d": 659.7221166666714,
      "v": 82
    },
    {
      "midi": 76,
      "hit": false,
      "t": 218802.0483249999,
      "d": 555.5554666666721,
      "v": 98
    },
    {
      "midi": 49,
      "hit": false,
      "t": 218802.0483249999,
      "d": 5017.360308333329,
      "v": 78
    },
    {
      "midi": 81,
      "hit": false,
      "t": 219739.5481749999,
      "d": 607.6387916666572,
      "v": 83
    },
    {
      "midi": 56,
      "hit": false,
      "t": 219739.5481749999,
      "d": 1024.305391666654,
      "v": 65
    },
    {
      "midi": 74,
      "hit": false,
      "t": 219826.35371666655,
      "d": 694.4443333333184,
      "v": 79
    },
    {
      "midi": 81,
      "hit": false,
      "t": 220763.85356666654,
      "d": 555.5554666666721,
      "v": 83
    },
    {
      "midi": 64,
      "hit": false,
      "t": 220763.85356666654,
      "d": 833.3331999999937,
      "v": 69
    },
    {
      "midi": 74,
      "hit": false,
      "t": 220763.85356666654,
      "d": 833.3331999999937,
      "v": 88
    },
    {
      "midi": 81,
      "hit": false,
      "t": 221892.3256083332,
      "d": 572.9165750000102,
      "v": 76
    },
    {
      "midi": 73,
      "hit": false,
      "t": 221892.3256083332,
      "d": 798.6109833333467,
      "v": 81
    },
    {
      "midi": 56,
      "hit": false,
      "t": 221892.3256083332,
      "d": 850.6943083333608,
      "v": 61
    },
    {
      "midi": 81,
      "hit": false,
      "t": 222916.63099999988,
      "d": 572.9165750000102,
      "v": 86
    },
    {
      "midi": 62,
      "hit": false,
      "t": 222916.63099999988,
      "d": 746.5276583333325,
      "v": 61
    },
    {
      "midi": 73,
      "hit": false,
      "t": 222916.63099999988,
      "d": 746.5276583333325,
      "v": 76
    },
    {
      "midi": 56,
      "hit": false,
      "t": 223940.93639166656,
      "d": 364.5832750000118,
      "v": 50
    },
    {
      "midi": 81,
      "hit": false,
      "t": 223940.93639166656,
      "d": 624.9999000000244,
      "v": 87
    },
    {
      "midi": 71,
      "hit": false,
      "t": 223940.93639166656,
      "d": 815.9720916666847,
      "v": 80
    },
    {
      "midi": 81,
      "hit": false,
      "t": 224965.24178333324,
      "d": 4461.804841666628,
      "v": 85
    },
    {
      "midi": 49,
      "hit": false,
      "t": 224965.24178333324,
      "d": 4565.971491666627,
      "v": 59
    },
    {
      "midi": 73,
      "hit": false,
      "t": 225052.0473249999,
      "d": 4079.860458333307,
      "v": 71
    },
    {
      "midi": 56,
      "hit": false,
      "t": 226006.90828333324,
      "d": 3559.027208333311,
      "v": 45
    },
    {
      "midi": 64,
      "hit": false,
      "t": 227135.3803249999,
      "d": 2899.305091666669,
      "v": 51
    },
    {
      "midi": 71,
      "hit": false,
      "t": 230642.32420833322,
      "d": 642.3610083333333,
      "v": 76
    },
    {
      "midi": 54,
      "hit": false,
      "t": 231180.51856666655,
      "d": 5347.221366666694,
      "v": 66
    },
    {
      "midi": 69,
      "hit": false,
      "t": 231267.3241083332,
      "d": 1458.333100000018,
      "v": 79
    },
    {
      "midi": 61,
      "hit": false,
      "t": 232361.07393333322,
      "d": 1093.7498250000062,
      "v": 61
    },
    {
      "midi": 81,
      "hit": false,
      "t": 233368.01821666656,
      "d": 2552.082924999995,
      "v": 91
    },
    {
      "midi": 69,
      "hit": false,
      "t": 233454.82375833322,
      "d": 885.4165250000078,
      "v": 64
    },
    {
      "midi": 73,
      "hit": false,
      "t": 233454.82375833322,
      "d": 2031.2496749999991,
      "v": 84
    },
    {
      "midi": 61,
      "hit": false,
      "t": 234513.85136666655,
      "d": 1145.8331499999913,
      "v": 56
    },
    {
      "midi": 69,
      "hit": false,
      "t": 235486.07343333322,
      "d": 1180.5553666666965,
      "v": 55
    },
    {
      "midi": 71,
      "hit": false,
      "t": 236493.01771666657,
      "d": 364.5832750000118,
      "v": 77
    },
    {
      "midi": 80,
      "hit": false,
      "t": 236493.01771666657,
      "d": 451.38881666667294,
      "v": 82
    },
    {
      "midi": 61,
      "hit": false,
      "t": 236579.82325833326,
      "d": 642.3610083333042,
      "v": 56
    },
    {
      "midi": 80,
      "hit": false,
      "t": 237499.96199999988,
      "d": 2065.971891666675,
      "v": 92
    },
    {
      "midi": 71,
      "hit": false,
      "t": 237499.96199999988,
      "d": 5121.526958333328,
      "v": 91
    },
    {
      "midi": 54,
      "hit": false,
      "t": 237499.96199999988,
      "d": 5208.3324999999895,
      "v": 60
    },
    {
      "midi": 61,
      "hit": false,
      "t": 238489.5451749999,
      "d": 1163.1942583333293,
      "v": 65
    },
    {
      "midi": 69,
      "hit": false,
      "t": 239565.93389166656,
      "d": 902.7776333333168,
      "v": 48
    },
    {
      "midi": 78,
      "hit": false,
      "t": 239565.93389166656,
      "d": 3142.3606083333143,
      "v": 88
    },
    {
      "midi": 61,
      "hit": false,
      "t": 240555.51706666654,
      "d": 624.9998999999953,
      "v": 62
    },
    {
      "midi": 69,
      "hit": false,
      "t": 241545.10024166654,
      "d": 989.583175000007,
      "v": 52
    },
    {
      "midi": 61,
      "hit": false,
      "t": 242690.93339166653,
      "d": 190.97219166666036,
      "v": 60
    },
    {
      "midi": 76,
      "hit": false,
      "t": 242690.93339166653,
      "d": 295.1388416666596,
      "v": 95
    },
    {
      "midi": 76,
      "hit": false,
      "t": 243767.3221083332,
      "d": 2309.0274083332915,
      "v": 100
    },
    {
      "midi": 50,
      "hit": false,
      "t": 243767.3221083332,
      "d": 5434.026908333326,
      "v": 75
    },
    {
      "midi": 57,
      "hit": false,
      "t": 244774.26639166652,
      "d": 1111.1109333333152,
      "v": 59
    },
    {
      "midi": 66,
      "hit": false,
      "t": 245798.57178333317,
      "d": 1111.1109333333443,
      "v": 68
    },
    {
      "midi": 78,
      "hit": false,
      "t": 245885.37732499983,
      "d": 1059.0276083333592,
      "v": 83
    },
    {
      "midi": 69,
      "hit": false,
      "t": 245885.37732499983,
      "d": 2465.277383333363,
      "v": 75
    },
    {
      "midi": 57,
      "hit": false,
      "t": 246857.5993916665,
      "d": 1059.0276083333592,
      "v": 54
    },
    {
      "midi": 64,
      "hit": false,
      "t": 247829.8214583332,
      "d": 972.222066666669,
      "v": 68
    },
    {
      "midi": 74,
      "hit": false,
      "t": 248906.21017499987,
      "d": 503.472141666658,
      "v": 89
    },
    {
      "midi": 57,
      "hit": false,
      "t": 249010.37682499987,
      "d": 885.4165249999787,
      "v": 65
    },
    {
      "midi": 73,
      "hit": false,
      "t": 249496.4878583332,
      "d": 503.472141666658,
      "v": 64
    },
    {
      "midi": 50,
      "hit": false,
      "t": 249895.79334999985,
      "d": 5364.582474999974,
      "v": 77
    },
    {
      "midi": 74,
      "hit": false,
      "t": 249999.95999999985,
      "d": 2309.0274083333206,
      "v": 78
    },
    {
      "midi": 57,
      "hit": false,
      "t": 251111.0709333332,
      "d": 1006.944283333316,
      "v": 61
    },
    {
      "midi": 66,
      "hit": false,
      "t": 252031.20967499985,
      "d": 1006.944283333316,
      "v": 73
    },
    {
      "midi": 57,
      "hit": false,
      "t": 253142.32060833316,
      "d": 1388.8886666666658,
      "v": 66
    },
    {
      "midi": 64,
      "hit": false,
      "t": 254166.62599999981,
      "d": 381.94438333334983,
      "v": 73
    },
    {
      "midi": 78,
      "hit": false,
      "t": 256319.40343333315,
      "d": 711.8054416666564,
      "v": 76
    },
    {
      "midi": 86,
      "hit": false,
      "t": 256319.40343333315,
      "d": 1354.1664499999897,
      "v": 93
    },
    {
      "midi": 47,
      "hit": false,
      "t": 256319.40343333315,
      "d": 5121.52695833327,
      "v": 83
    },
    {
      "midi": 54,
      "hit": false,
      "t": 257308.98660833313,
      "d": 902.7776333333459,
      "v": 61
    },
    {
      "midi": 62,
      "hit": false,
      "t": 258298.56978333314,
      "d": 815.9720916666556,
      "v": 60
    },
    {
      "midi": 76,
      "hit": false,
      "t": 258298.56978333314,
      "d": 1076.388716666639,
      "v": 78
    },
    {
      "midi": 85,
      "hit": false,
      "t": 258298.56978333314,
      "d": 1249.9997999999614,
      "v": 84
    },
    {
      "midi": 54,
      "hit": false,
      "t": 259305.51406666645,
      "d": 920.1387416666548,
      "v": 59
    },
    {
      "midi": 74,
      "hit": false,
      "t": 260416.62499999977,
      "d": 920.1387416666548,
      "v": 81
    },
    {
      "midi": 83,
      "hit": false,
      "t": 260416.62499999977,
      "d": 1006.944283333316,
      "v": 88
    },
    {
      "midi": 59,
      "hit": false,
      "t": 260416.62499999977,
      "d": 1111.1109333333152,
      "v": 63
    },
    {
      "midi": 54,
      "hit": false,
      "t": 261423.56928333308,
      "d": 1006.944283333316,
      "v": 64
    },
    {
      "midi": 74,
      "hit": false,
      "t": 262447.87467499974,
      "d": 2395.832950000011,
      "v": 86
    },
    {
      "midi": 83,
      "hit": false,
      "t": 262447.87467499974,
      "d": 2482.638491666701,
      "v": 92
    },
    {
      "midi": 47,
      "hit": false,
      "t": 262447.87467499974,
      "d": 4982.63809166674,
      "v": 81
    },
    {
      "midi": 54,
      "hit": false,
      "t": 263593.70782499976,
      "d": 1059.0276083333301,
      "v": 58
    },
    {
      "midi": 62,
      "hit": false,
      "t": 264548.56878333306,
      "d": 1145.8331500000786,
      "v": 78
    },
    {
      "midi": 54,
      "hit": false,
      "t": 265659.67971666646,
      "d": 833.3331999999937,
      "v": 71
    },
    {
      "midi": 74,
      "hit": false,
      "t": 266597.1795666665,
      "d": 277.7777333333506,
      "v": 89
    },
    {
      "midi": 59,
      "hit": false,
      "t": 266597.1795666665,
      "d": 468.749925000011,
      "v": 82
    },
    {
      "midi": 83,
      "hit": false,
      "t": 266597.1795666665,
      "d": 659.7221166666714,
      "v": 96
    },
    {
      "midi": 54,
      "hit": false,
      "t": 267604.1238499998,
      "d": 399.305491666717,
      "v": 61
    },
    {
      "midi": 85,
      "hit": false,
      "t": 267604.1238499998,
      "d": 503.4721416667453,
      "v": 94
    },
    {
      "midi": 74,
      "hit": false,
      "t": 267690.9293916665,
      "d": 208.33329999999842,
      "v": 59
    },
    {
      "midi": 76,
      "hit": false,
      "t": 267690.9293916665,
      "d": 208.33329999999842,
      "v": 65
    },
    {
      "midi": 78,
      "hit": false,
      "t": 268715.2347833332,
      "d": 607.6387916667154,
      "v": 83
    },
    {
      "midi": 86,
      "hit": false,
      "t": 268715.2347833332,
      "d": 1215.2775833334308,
      "v": 103
    },
    {
      "midi": 52,
      "hit": false,
      "t": 268802.0403249999,
      "d": 5121.526958333387,
      "v": 81
    },
    {
      "midi": 59,
      "hit": false,
      "t": 269826.3457166666,
      "d": 4739.582575000066,
      "v": 66
    },
    {
      "midi": 85,
      "hit": false,
      "t": 270850.6511083333,
      "d": 2743.0551166666555,
      "v": 87
    },
    {
      "midi": 76,
      "hit": false,
      "t": 270937.45665,
      "d": 1371.5275583332987,
      "v": 76
    },
    {
      "midi": 64,
      "hit": false,
      "t": 270937.45665,
      "d": 3749.9994000000297,
      "v": 66
    },
    {
      "midi": 83,
      "hit": false,
      "t": 273975.6506083333,
      "d": 659.7221166667296,
      "v": 91
    },
    {
      "midi": 74,
      "hit": false,
      "t": 274062.45615,
      "d": 190.97219166666036,
      "v": 37
    },
    {
      "midi": 78,
      "hit": false,
      "t": 275156.20597500005,
      "d": 763.8887666666997,
      "v": 73
    },
    {
      "midi": 86,
      "hit": false,
      "t": 275225.6504083334,
      "d": 1163.1942583333584,
      "v": 96
    },
    {
      "midi": 53,
      "hit": false,
      "t": 275225.6504083334,
      "d": 4930.554766666726,
      "v": 70
    },
    {
      "midi": 61,
      "hit": false,
      "t": 276232.5946916668,
      "d": 5017.3603083333,
      "v": 51
    },
    {
      "midi": 77,
      "hit": false,
      "t": 277239.5389750001,
      "d": 1770.8330500000156,
      "v": 76
    },
    {
      "midi": 85,
      "hit": false,
      "t": 277239.5389750001,
      "d": 3315.971691666695,
      "v": 81
    },
    {
      "midi": 65,
      "hit": false,
      "t": 277326.3445166668,
      "d": 4114.582675000012,
      "v": 37
    },
    {
      "midi": 74,
      "hit": false,
      "t": 280520.7884500001,
      "d": 399.3054916666588,
      "v": 50
    },
    {
      "midi": 83,
      "hit": false,
      "t": 280520.7884500001,
      "d": 781.2498749999795,
      "v": 82
    },
    {
      "midi": 54,
      "hit": false,
      "t": 281388.8438666668,
      "d": 5329.860258333443,
      "v": 64
    },
    {
      "midi": 73,
      "hit": false,
      "t": 281388.8438666668,
      "d": 7170.137741666753,
      "v": 69
    },
    {
      "midi": 81,
      "hit": false,
      "t": 281458.28830000013,
      "d": 7916.665400000056,
      "v": 80
    },
    {
      "midi": 61,
      "hit": false,
      "t": 282465.2325833335,
      "d": 1076.3887166666682,
      "v": 61
    },
    {
      "midi": 69,
      "hit": false,
      "t": 283385.3713250002,
      "d": 1006.944283333316,
      "v": 57
    },
    {
      "midi": 61,
      "hit": false,
      "t": 284392.3156083335,
      "d": 1093.7498250000062,
      "v": 65
    },
    {
      "midi": 68,
      "hit": false,
      "t": 285555.50986666686,
      "d": 2187.4996500000125,
      "v": 56
    },
    {
      "midi": 61,
      "hit": false,
      "t": 286614.5374750002,
      "d": 4600.693708333303,
      "v": 60
    },
    {
      "midi": 54,
      "hit": false,
      "t": 287795.0928416669,
      "d": 2743.0551166666555,
      "v": 42
    },
    {
      "midi": 85,
      "hit": false,
      "t": 290694.39793333353,
      "d": 399.3054916666588,
      "v": 59
    },
    {
      "midi": 55,
      "hit": false,
      "t": 291579.8144583335,
      "d": 10659.720516666712,
      "v": 62
    },
    {
      "midi": 85,
      "hit": false,
      "t": 291666.62000000017,
      "d": 1163.1942583333584,
      "v": 63
    },
    {
      "midi": 62,
      "hit": false,
      "t": 292829.8142583335,
      "d": 1163.1942583333002,
      "v": 65
    },
    {
      "midi": 86,
      "hit": false,
      "t": 292829.8142583335,
      "d": 3993.054916666646,
      "v": 83
    },
    {
      "midi": 71,
      "hit": false,
      "t": 293871.4807583335,
      "d": 937.4998499999638,
      "v": 64
    },
    {
      "midi": 83,
      "hit": false,
      "t": 293871.4807583335,
      "d": 2013.888566666632,
      "v": 82
    },
    {
      "midi": 62,
      "hit": false,
      "t": 294808.9806083335,
      "d": 1093.7498250000062,
      "v": 63
    },
    {
      "midi": 69,
      "hit": false,
      "t": 295815.9248916668,
      "d": 1093.7498250000644,
      "v": 52
    },
    {
      "midi": 81,
      "hit": false,
      "t": 295815.9248916668,
      "d": 2482.638491666701,
      "v": 74
    },
    {
      "midi": 62,
      "hit": false,
      "t": 296892.3136083335,
      "d": 4635.415924999979,
      "v": 39
    },
    {
      "midi": 83,
      "hit": false,
      "t": 297881.8967833335,
      "d": 2569.444033333333,
      "v": 66
    },
    {
      "midi": 67,
      "hit": false,
      "t": 297881.8967833335,
      "d": 3142.3606083333143,
      "v": 41
    },
    {
      "midi": 76,
      "hit": false,
      "t": 304062.45135000016,
      "d": 1024.3053916667122,
      "v": 98
    },
    {
      "midi": 45,
      "hit": false,
      "t": 304131.8957833335,
      "d": 2187.4996500000707,
      "v": 77
    },
    {
      "midi": 64,
      "hit": false,
      "t": 304739.5345750002,
      "d": 607.6387916667154,
      "v": 60
    },
    {
      "midi": 74,
      "hit": false,
      "t": 305260.3678250002,
      "d": 1267.3609083333868,
      "v": 79
    },
    {
      "midi": 64,
      "hit": false,
      "t": 305711.75664166687,
      "d": 520.8332500000251,
      "v": 78
    },
    {
      "midi": 73,
      "hit": false,
      "t": 306232.5898916669,
      "d": 381.94438333337894,
      "v": 82
    },
    {
      "midi": 64,
      "hit": false,
      "t": 306736.0620333336,
      "d": 503.4721416666871,
      "v": 73
    },
    {
      "midi": 71,
      "hit": false,
      "t": 307239.53417500027,
      "d": 677.0832250000094,
      "v": 79
    },
    {
      "midi": 64,
      "hit": false,
      "t": 307743.00631666696,
      "d": 677.0832250000094,
      "v": 77
    },
    {
      "midi": 69,
      "hit": false,
      "t": 308333.2840000003,
      "d": 1267.3609083333868,
      "v": 85
    },
    {
      "midi": 52,
      "hit": false,
      "t": 308333.2840000003,
      "d": 1527.7775333333993,
      "v": 86
    },
    {
      "midi": 64,
      "hit": false,
      "t": 308836.75614166696,
      "d": 677.0832250000094,
      "v": 73
    },
    {
      "midi": 71,
      "hit": false,
      "t": 309427.0338250003,
      "d": 347.22216666670283,
      "v": 91
    },
    {
      "midi": 64,
      "hit": false,
      "t": 309861.0615333337,
      "d": 503.4721416666871,
      "v": 90
    },
    {
      "midi": 73,
      "hit": false,
      "t": 310364.53367500036,
      "d": 677.0832249999512,
      "v": 80
    },
    {
      "midi": 64,
      "hit": false,
      "t": 310920.089141667,
      "d": 555.555466666643,
      "v": 64
    },
    {
      "midi": 59,
      "hit": false,
      "t": 311388.83906666696,
      "d": 1302.0831250000629,
      "v": 86
    },
    {
      "midi": 74,
      "hit": false,
      "t": 311475.64460833365,
      "d": 659.7221166666714,
      "v": 88
    },
    {
      "midi": 64,
      "hit": false,
      "t": 311944.39453333366,
      "d": 659.7221166666714,
      "v": 81
    },
    {
      "midi": 76,
      "hit": false,
      "t": 312586.755541667,
      "d": 1388.888666666695,
      "v": 98
    },
    {
      "midi": 61,
      "hit": false,
      "t": 312586.755541667,
      "d": 3211.805041666841,
      "v": 81
    },
    {
      "midi": 64,
      "hit": false,
      "t": 313020.7832500003,
      "d": 607.6387916667154,
      "v": 81
    },
    {
      "midi": 74,
      "hit": false,
      "t": 313628.42204166704,
      "d": 1388.888666666695,
      "v": 81
    },
    {
      "midi": 64,
      "hit": false,
      "t": 314062.4497500004,
      "d": 520.8332500000251,
      "v": 75
    },
    {
      "midi": 73,
      "hit": false,
      "t": 314583.2830000004,
      "d": 538.1943583333632,
      "v": 71
    },
    {
      "midi": 64,
      "hit": false,
      "t": 315121.47735833377,
      "d": 624.9999000000535,
      "v": 79
    },
    {
      "midi": 71,
      "hit": false,
      "t": 315642.3106083338,
      "d": 624.9999000000535,
      "v": 94
    },
    {
      "midi": 59,
      "hit": false,
      "t": 315729.1161500005,
      "d": 1145.8331500000786,
      "v": 89
    },
    {
      "midi": 64,
      "hit": false,
      "t": 316076.3383166672,
      "d": 624.9998999999953,
      "v": 90
    },
    {
      "midi": 69,
      "hit": false,
      "t": 316701.3382166672,
      "d": 1197.9164750000928,
      "v": 91
    },
    {
      "midi": 57,
      "hit": false,
      "t": 316788.14375833387,
      "d": 2239.582975000143,
      "v": 85
    },
    {
      "midi": 64,
      "hit": false,
      "t": 317222.1714666672,
      "d": 607.6387916667154,
      "v": 85
    },
    {
      "midi": 71,
      "hit": false,
      "t": 317725.6436083339,
      "d": 434.0277083333931,
      "v": 84
    },
    {
      "midi": 64,
      "hit": false,
      "t": 318246.476858334,
      "d": 694.4443333333475,
      "v": 88
    },
    {
      "midi": 73,
      "hit": false,
      "t": 318836.7545416673,
      "d": 503.4721416667453,
      "v": 84
    },
    {
      "midi": 49,
      "hit": false,
      "t": 318836.7545416673,
      "d": 572.9165750000975,
      "v": 79
    },
    {
      "midi": 64,
      "hit": false,
      "t": 319270.7822500007,
      "d": 503.4721416667453,
      "v": 76
    },
    {
      "midi": 74,
      "hit": false,
      "t": 319687.44885000074,
      "d": 781.2498750000377,
      "v": 93
    },
    {
      "midi": 64,
      "hit": false,
      "t": 320190.92099166743,
      "d": 277.7777333333506,
      "v": 89
    },
    {
      "midi": 81,
      "hit": false,
      "t": 320833.28200000076,
      "d": 2552.0829250000534,
      "v": 99
    },
    {
      "midi": 42,
      "hit": false,
      "t": 320833.28200000076,
      "d": 4322.915975000069,
      "v": 84
    },
    {
      "midi": 69,
      "hit": false,
      "t": 321458.28190000076,
      "d": 538.1943583333632,
      "v": 66
    },
    {
      "midi": 80,
      "hit": false,
      "t": 321979.1151500008,
      "d": 1319.4442333333427,
      "v": 75
    },
    {
      "midi": 69,
      "hit": false,
      "t": 322430.50396666746,
      "d": 538.1943583333632,
      "v": 86
    },
    {
      "midi": 78,
      "hit": false,
      "t": 322951.3372166675,
      "d": 347.2221666666446,
      "v": 79
    },
    {
      "midi": 69,
      "hit": false,
      "t": 323385.3649250008,
      "d": 607.6387916666572,
      "v": 74
    },
    {
      "midi": 76,
      "hit": false,
      "t": 323993.0037166675,
      "d": 781.2498750000377,
      "v": 87
    },
    {
      "midi": 69,
      "hit": false,
      "t": 324513.8369666675,
      "d": 520.8332500000251,
      "v": 82
    },
    {
      "midi": 74,
      "hit": false,
      "t": 325034.6702166675,
      "d": 937.4998499999638,
      "v": 89
    },
    {
      "midi": 49,
      "hit": false,
      "t": 325034.6702166675,
      "d": 2638.8884666666854,
      "v": 75
    },
    {
      "midi": 69,
      "hit": false,
      "t": 325538.14235833415,
      "d": 590.2776833333774,
      "v": 66
    },
    {
      "midi": 76,
      "hit": false,
      "t": 326058.9756083342,
      "d": 763.8887666666997,
      "v": 76
    },
    {
      "midi": 69,
      "hit": false,
      "t": 326649.25329166756,
      "d": 590.2776833333191,
      "v": 88
    },
    {
      "midi": 78,
      "hit": false,
      "t": 327152.7254333342,
      "d": 746.5276583333616,
      "v": 71
    },
    {
      "midi": 69,
      "hit": false,
      "t": 327604.11425000086,
      "d": 520.8332500000251,
      "v": 84
    },
    {
      "midi": 80,
      "hit": false,
      "t": 328124.9475000009,
      "d": 520.8332500000251,
      "v": 74
    },
    {
      "midi": 69,
      "hit": false,
      "t": 328645.7807500009,
      "d": 520.8332500000251,
      "v": 77
    },
    {
      "midi": 80,
      "hit": false,
      "t": 329166.61400000093,
      "d": 1406.2497749999748,
      "v": 79
    },
    {
      "midi": 49,
      "hit": false,
      "t": 329166.61400000093,
      "d": 2326.3885166666587,
      "v": 71
    },
    {
      "midi": 68,
      "hit": false,
      "t": 329791.6139000009,
      "d": 381.94438333332073,
      "v": 79
    },
    {
      "midi": 78,
      "hit": false,
      "t": 330173.55828333425,
      "d": 1406.249775000033,
      "v": 75
    },
    {
      "midi": 68,
      "hit": false,
      "t": 330729.1137500009,
      "d": 468.749925000011,
      "v": 63
    },
    {
      "midi": 76,
      "hit": false,
      "t": 331267.30810833425,
      "d": 1111.1109333334025,
      "v": 76
    },
    {
      "midi": 56,
      "hit": false,
      "t": 331267.30810833425,
      "d": 1927.0830250001163,
      "v": 66
    },
    {
      "midi": 68,
      "hit": false,
      "t": 331683.9747083343,
      "d": 416.66659999999683,
      "v": 70
    },
    {
      "midi": 74,
      "hit": false,
      "t": 332152.7246333343,
      "d": 763.8887666666997,
      "v": 76
    },
    {
      "midi": 68,
      "hit": false,
      "t": 332638.83566666767,
      "d": 277.7777333333506,
      "v": 66
    },
    {
      "midi": 64,
      "hit": false,
      "t": 333263.8355666677,
      "d": 1927.083025,
      "v": 44
    },
    {
      "midi": 68,
      "hit": false,
      "t": 333263.8355666677,
      "d": 2204.8607583333505,
      "v": 55
    },
    {
      "midi": 73,
      "hit": false,
      "t": 333333.2800000011,
      "d": 2222.2218666666886,
      "v": 62
    },
    {
      "midi": 78,
      "hit": false,
      "t": 337499.9460000011,
      "d": 1319.444233333401,
      "v": 95
    },
    {
      "midi": 47,
      "hit": false,
      "t": 337499.9460000011,
      "d": 4010.4160250001005,
      "v": 83
    },
    {
      "midi": 66,
      "hit": false,
      "t": 337986.05703333445,
      "d": 486.11103333334904,
      "v": 64
    },
    {
      "midi": 76,
      "hit": false,
      "t": 338558.9736083345,
      "d": 1059.0276083333883,
      "v": 85
    },
    {
      "midi": 66,
      "hit": false,
      "t": 338975.6402083345,
      "d": 486.11103333334904,
      "v": 75
    },
    {
      "midi": 74,
      "hit": false,
      "t": 339548.5567833345,
      "d": 1145.8331500000204,
      "v": 89
    },
    {
      "midi": 66,
      "hit": false,
      "t": 339982.58449166786,
      "d": 434.0277083333349,
      "v": 79
    },
    {
      "midi": 73,
      "hit": false,
      "t": 340607.58439166786,
      "d": 538.1943583333632,
      "v": 79
    },
    {
      "midi": 66,
      "hit": false,
      "t": 341041.6121000012,
      "d": 538.1943583333632,
      "v": 81
    },
    {
      "midi": 71,
      "hit": false,
      "t": 341579.80645833455,
      "d": 798.6109833333758,
      "v": 86
    },
    {
      "midi": 54,
      "hit": false,
      "t": 341666.61200000125,
      "d": 2430.555166666745,
      "v": 82
    },
    {
      "midi": 66,
      "hit": false,
      "t": 342118.0008166679,
      "d": 538.1943583333632,
      "v": 84
    },
    {
      "midi": 73,
      "hit": false,
      "t": 342656.1951750013,
      "d": 815.9720916666556,
      "v": 82
    },
    {
      "midi": 66,
      "hit": false,
      "t": 343194.3895333346,
      "d": 538.1943583333632,
      "v": 86
    },
    {
      "midi": 62,
      "hit": false,
      "t": 343732.58389166795,
      "d": 277.7777333333506,
      "v": 82
    },
    {
      "midi": 74,
      "hit": false,
      "t": 343732.58389166795,
      "d": 711.8054416666855,
      "v": 89
    },
    {
      "midi": 66,
      "hit": false,
      "t": 344288.13935833465,
      "d": 555.555466666643,
      "v": 91
    },
    {
      "midi": 76,
      "hit": false,
      "t": 344826.33371666796,
      "d": 555.555466666643,
      "v": 96
    },
    {
      "midi": 66,
      "hit": false,
      "t": 345381.8891833346,
      "d": 451.38881666667294,
      "v": 85
    },
    {
      "midi": 78,
      "hit": false,
      "t": 345833.2780000013,
      "d": 2256.9440833333647,
      "v": 96
    },
    {
      "midi": 43,
      "hit": false,
      "t": 345920.08354166796,
      "d": 1475.694208333327,
      "v": 91
    },
    {
      "midi": 66,
      "hit": false,
      "t": 346354.1112500013,
      "d": 607.6387916666572,
      "v": 87
    },
    {
      "midi": 76,
      "hit": false,
      "t": 346961.75004166795,
      "d": 2430.555166666687,
      "v": 87
    },
    {
      "midi": 66,
      "hit": false,
      "t": 347395.7777500013,
      "d": 520.8332500000251,
      "v": 86
    },
    {
      "midi": 74,
      "hit": false,
      "t": 347916.6110000013,
      "d": 624.9998999999953,
      "v": 86
    },
    {
      "midi": 66,
      "hit": false,
      "t": 348454.8053583346,
      "d": 538.1943583333632,
      "v": 77
    },
    {
      "midi": 78,
      "hit": false,
      "t": 348541.6109000013,
      "d": 624.9998999999953,
      "v": 34
    },
    {
      "midi": 73,
      "hit": false,
      "t": 348992.999716668,
      "d": 624.9998999999953,
      "v": 82
    },
    {
      "midi": 66,
      "hit": false,
      "t": 349513.83296666795,
      "d": 538.1943583333632,
      "v": 88
    },
    {
      "midi": 50,
      "hit": false,
      "t": 349965.2217833346,
      "d": 2673.610683333478,
      "v": 89
    },
    {
      "midi": 71,
      "hit": false,
      "t": 350138.832866668,
      "d": 833.3331999999937,
      "v": 100
    },
    {
      "midi": 66,
      "hit": false,
      "t": 350555.499466668,
      "d": 503.4721416666871,
      "v": 77
    },
    {
      "midi": 73,
      "hit": false,
      "t": 350972.166066668,
      "d": 3020.8328500001226,
      "v": 71
    },
    {
      "midi": 66,
      "hit": false,
      "t": 351562.4437500014,
      "d": 590.2776833333774,
      "v": 87
    },
    {
      "midi": 59,
      "hit": false,
      "t": 352065.91589166806,
      "d": 503.4721416666871,
      "v": 93
    },
    {
      "midi": 74,
      "hit": false,
      "t": 352152.72143333475,
      "d": 624.9998999999953,
      "v": 84
    },
    {
      "midi": 66,
      "hit": false,
      "t": 352604.1102500014,
      "d": 381.94438333332073,
      "v": 91
    },
    {
      "midi": 76,
      "hit": false,
      "t": 353072.86017500143,
      "d": 538.1943583333632,
      "v": 94
    },
    {
      "midi": 66,
      "hit": false,
      "t": 353541.61010000145,
      "d": 312.49995000002673,
      "v": 84
    },
    {
      "midi": 76,
      "hit": false,
      "t": 354166.61000000144,
      "d": 1319.444233333401,
      "v": 99
    },
    {
      "midi": 45,
      "hit": false,
      "t": 354253.41554166813,
      "d": 1927.0830250000581,
      "v": 89
    },
    {
      "midi": 64,
      "hit": false,
      "t": 354774.24879166816,
      "d": 434.0277083333349,
      "v": 83
    },
    {
      "midi": 74,
      "hit": false,
      "t": 355225.63760833483,
      "d": 1666.6664000000455,
      "v": 88
    },
    {
      "midi": 64,
      "hit": false,
      "t": 355746.47085833485,
      "d": 607.6387916666572,
      "v": 88
    },
    {
      "midi": 73,
      "hit": false,
      "t": 356336.7485416682,
      "d": 1354.166450000077,
      "v": 84
    },
    {
      "midi": 64,
      "hit": false,
      "t": 356840.22068333486,
      "d": 503.4721416666871,
      "v": 88
    },
    {
      "midi": 71,
      "hit": false,
      "t": 357326.3317166682,
      "d": 572.9165750000393,
      "v": 91
    },
    {
      "midi": 52,
      "hit": false,
      "t": 357413.1372583349,
      "d": 1562.4997500000172,
      "v": 89
    },
    {
      "midi": 64,
      "hit": false,
      "t": 357760.3594250016,
      "d": 711.8054416666273,
      "v": 85
    },
    {
      "midi": 61,
      "hit": false,
      "t": 358263.83156666823,
      "d": 1562.4997500000754,
      "v": 89
    },
    {
      "midi": 69,
      "hit": false,
      "t": 358333.2760000016,
      "d": 885.4165250000078,
      "v": 79
    },
    {
      "midi": 64,
      "hit": false,
      "t": 358888.8314666682,
      "d": 642.3610083333915,
      "v": 75
    },
    {
      "midi": 71,
      "hit": false,
      "t": 359461.74804166827,
      "d": 486.11103333334904,
      "v": 94
    },
    {
      "midi": 64,
      "hit": false,
      "t": 360104.1090500016,
      "d": 555.5554666667012,
      "v": 81
    },
    {
      "midi": 73,
      "hit": false,
      "t": 360607.5811916683,
      "d": 1180.5553666666965,
      "v": 83
    },
    {
      "midi": 59,
      "hit": false,
      "t": 360607.5811916683,
      "d": 1562.4997500000172,
      "v": 92
    },
    {
      "midi": 64,
      "hit": false,
      "t": 361076.3311166683,
      "d": 520.8332500000251,
      "v": 89
    },
    {
      "midi": 74,
      "hit": false,
      "t": 361597.1643666683,
      "d": 451.38881666667294,
      "v": 87
    },
    {
      "midi": 64,
      "hit": false,
      "t": 362048.553183335,
      "d": 451.38881666661473,
      "v": 81
    },
    {
      "midi": 40,
      "hit": false,
      "t": 362569.38643333496,
      "d": 1284.7220166666666,
      "v": 82
    },
    {
      "midi": 74,
      "hit": false,
      "t": 362569.38643333496,
      "d": 2291.666300000041,
      "v": 96
    },
    {
      "midi": 64,
      "hit": false,
      "t": 363142.30300833494,
      "d": 503.4721416666871,
      "v": 74
    },
    {
      "midi": 73,
      "hit": false,
      "t": 363576.3307166683,
      "d": 1284.7220166667248,
      "v": 74
    },
    {
      "midi": 64,
      "hit": false,
      "t": 364079.80285833497,
      "d": 503.4721416666871,
      "v": 77
    },
    {
      "midi": 71,
      "hit": false,
      "t": 364513.8305666683,
      "d": 1215.2775833333726,
      "v": 87
    },
    {
      "midi": 47,
      "hit": false,
      "t": 364583.27500000165,
      "d": 1024.3053916667122,
      "v": 63
    },
    {
      "midi": 64,
      "hit": false,
      "t": 365086.74714166834,
      "d": 503.4721416666871,
      "v": 68
    },
    {
      "midi": 69,
      "hit": false,
      "t": 365607.58039166837,
      "d": 434.0277083333349,
      "v": 78
    },
    {
      "midi": 64,
      "hit": false,
      "t": 366041.6081000017,
      "d": 729.1665500000236,
      "v": 84
    },
    {
      "midi": 68,
      "hit": false,
      "t": 366683.96910833503,
      "d": 833.3332000000519,
      "v": 75
    },
    {
      "midi": 56,
      "hit": false,
      "t": 366683.96910833503,
      "d": 3975.6938083334244,
      "v": 61
    },
    {
      "midi": 64,
      "hit": false,
      "t": 367100.6357083351,
      "d": 520.8332500000251,
      "v": 62
    },
    {
      "midi": 69,
      "hit": false,
      "t": 367621.4689583351,
      "d": 729.1665500000236,
      "v": 44
    },
    {
      "midi": 64,
      "hit": false,
      "t": 368124.9411000018,
      "d": 3090.2772833333,
      "v": 50
    },
    {
      "midi": 71,
      "hit": false,
      "t": 368749.9410000018,
      "d": 2795.1384416666115,
      "v": 55
    },
    {
      "midi": 64,
      "hit": false,
      "t": 372916.60700000176,
      "d": 1284.7220166666666,
      "v": 107
    },
    {
      "midi": 45,
      "hit": false,
      "t": 372916.60700000176,
      "d": 4947.915875000064,
      "v": 78
    },
    {
      "midi": 52,
      "hit": false,
      "t": 373975.6346083351,
      "d": 920.1387416666839,
      "v": 70
    },
    {
      "midi": 61,
      "hit": false,
      "t": 374965.21778333513,
      "d": 920.1387416666839,
      "v": 79
    },
    {
      "midi": 64,
      "hit": false,
      "t": 375052.0233250018,
      "d": 2222.2218666666886,
      "v": 93
    },
    {
      "midi": 73,
      "hit": false,
      "t": 375052.0233250018,
      "d": 2222.2218666666886,
      "v": 100
    },
    {
      "midi": 52,
      "hit": false,
      "t": 376076.3287166685,
      "d": 1111.1109333333443,
      "v": 61
    },
    {
      "midi": 59,
      "hit": false,
      "t": 377100.6341083351,
      "d": 850.6943083333899,
      "v": 70
    },
    {
      "midi": 64,
      "hit": false,
      "t": 378124.93950000184,
      "d": 347.2221666666446,
      "v": 82
    },
    {
      "midi": 52,
      "hit": false,
      "t": 378124.93950000184,
      "d": 1024.305391666654,
      "v": 83
    },
    {
      "midi": 71,
      "hit": false,
      "t": 378124.93950000184,
      "d": 1024.305391666654,
      "v": 86
    },
    {
      "midi": 45,
      "hit": false,
      "t": 379149.2448916685,
      "d": 5381.943583333457,
      "v": 80
    },
    {
      "midi": 64,
      "hit": false,
      "t": 379236.0504333352,
      "d": 5121.526958333445,
      "v": 102
    },
    {
      "midi": 52,
      "hit": false,
      "t": 380242.99471666856,
      "d": 920.1387416666839,
      "v": 81
    },
    {
      "midi": 61,
      "hit": false,
      "t": 381249.93900000193,
      "d": 1145.8331500000204,
      "v": 98
    },
    {
      "midi": 52,
      "hit": false,
      "t": 382308.96660833526,
      "d": 1145.8331500000204,
      "v": 79
    },
    {
      "midi": 59,
      "hit": false,
      "t": 383367.9942166686,
      "d": 1145.8331500000204,
      "v": 85
    },
    {
      "midi": 52,
      "hit": false,
      "t": 384357.57739166863,
      "d": 815.9720916666556,
      "v": 84
    },
    {
      "midi": 64,
      "hit": false,
      "t": 385416.60500000196,
      "d": 1128.4720416666823,
      "v": 96
    },
    {
      "midi": 49,
      "hit": false,
      "t": 385416.60500000196,
      "d": 5034.7214166667545,
      "v": 79
    },
    {
      "midi": 56,
      "hit": false,
      "t": 386458.27150000195,
      "d": 1128.4720416667406,
      "v": 59
    },
    {
      "midi": 64,
      "hit": false,
      "t": 387499.938000002,
      "d": 954.86095833336,
      "v": 73
    },
    {
      "midi": 73,
      "hit": false,
      "t": 387499.938000002,
      "d": 1909.72191666672,
      "v": 87
    },
    {
      "midi": 68,
      "hit": false,
      "t": 387499.938000002,
      "d": 2343.749625000055,
      "v": 90
    },
    {
      "midi": 56,
      "hit": false,
      "t": 388454.79895833536,
      "d": 1128.4720416666823,
      "v": 61
    },
    {
      "midi": 62,
      "hit": false,
      "t": 389583.27100000205,
      "d": 538.1943583333632,
      "v": 62
    },
    {
      "midi": 56,
      "hit": false,
      "t": 390572.854175002,
      "d": 364.5832750000409,
      "v": 58
    },
    {
      "midi": 71,
      "hit": false,
      "t": 390572.854175002,
      "d": 451.38881666673115,
      "v": 91
    },
    {
      "midi": 68,
      "hit": false,
      "t": 390677.02082500205,
      "d": 277.7777333333506,
      "v": 79
    },
    {
      "midi": 64,
      "hit": false,
      "t": 391666.6040000021,
      "d": 1996.5274583333521,
      "v": 94
    },
    {
      "midi": 49,
      "hit": false,
      "t": 391666.6040000021,
      "d": 3420.138341666723,
      "v": 67
    },
    {
      "midi": 56,
      "hit": false,
      "t": 392586.7427416688,
      "d": 2829.860658333346,
      "v": 58
    },
    {
      "midi": 64,
      "hit": false,
      "t": 393749.93700000213,
      "d": 2100.694108333322,
      "v": 65
    },
    {
      "midi": 71,
      "hit": false,
      "t": 397204.7975583355,
      "d": 138.8888666666462,
      "v": 54
    },
    {
      "midi": 73,
      "hit": false,
      "t": 397413.13085833547,
      "d": 364.5832749999827,
      "v": 68
    },
    {
      "midi": 71,
      "hit": false,
      "t": 397638.8252666688,
      "d": 277.7777333333506,
      "v": 60
    },
    {
      "midi": 54,
      "hit": false,
      "t": 397847.1585666688,
      "d": 4201.388216666819,
      "v": 66
    },
    {
      "midi": 69,
      "hit": false,
      "t": 397916.60300000216,
      "d": 1163.1942583334167,
      "v": 81
    },
    {
      "midi": 61,
      "hit": false,
      "t": 398992.9917166689,
      "d": 1163.1942583334167,
      "v": 66
    },
    {
      "midi": 73,
      "hit": false,
      "t": 399965.2137833356,
      "d": 1249.9998000000487,
      "v": 84
    },
    {
      "midi": 81,
      "hit": false,
      "t": 399965.2137833356,
      "d": 2673.6106833333615,
      "v": 96
    },
    {
      "midi": 69,
      "hit": false,
      "t": 400052.0193250023,
      "d": 902.7776333333459,
      "v": 51
    },
    {
      "midi": 61,
      "hit": false,
      "t": 401058.96360833565,
      "d": 989.5831749999779,
      "v": 61
    },
    {
      "midi": 69,
      "hit": false,
      "t": 402048.5467833356,
      "d": 1093.7498250000062,
      "v": 64
    },
    {
      "midi": 71,
      "hit": false,
      "t": 403107.57439166895,
      "d": 486.11103333334904,
      "v": 83
    },
    {
      "midi": 80,
      "hit": false,
      "t": 403107.57439166895,
      "d": 486.11103333334904,
      "v": 83
    },
    {
      "midi": 61,
      "hit": false,
      "t": 403107.57439166895,
      "d": 677.0832250000094,
      "v": 69
    },
    {
      "midi": 54,
      "hit": false,
      "t": 404166.6020000023,
      "d": 5260.415825000149,
      "v": 73
    },
    {
      "midi": 80,
      "hit": false,
      "t": 404253.407541669,
      "d": 2013.8885666666902,
      "v": 89
    },
    {
      "midi": 71,
      "hit": false,
      "t": 404253.407541669,
      "d": 3854.166050000058,
      "v": 87
    },
    {
      "midi": 61,
      "hit": false,
      "t": 405225.6296083357,
      "d": 1145.8331500000204,
      "v": 60
    },
    {
      "midi": 78,
      "hit": false,
      "t": 406267.29610833566,
      "d": 3003.4717416667845,
      "v": 88
    },
    {
      "midi": 69,
      "hit": false,
      "t": 406354.10165000235,
      "d": 1024.305391666654,
      "v": 65
    },
    {
      "midi": 61,
      "hit": false,
      "t": 407395.76815000235,
      "d": 1128.4720416667406,
      "v": 67
    },
    {
      "midi": 69,
      "hit": false,
      "t": 408420.07354166906,
      "d": 989.5831750000361,
      "v": 66
    },
    {
      "midi": 61,
      "hit": false,
      "t": 409409.6567166691,
      "d": 364.5832749999827,
      "v": 63
    },
    {
      "midi": 76,
      "hit": false,
      "t": 409409.6567166691,
      "d": 364.5832749999827,
      "v": 85
    },
    {
      "midi": 76,
      "hit": false,
      "t": 410486.04543333576,
      "d": 2152.7774333333364,
      "v": 103
    },
    {
      "midi": 50,
      "hit": false,
      "t": 410486.04543333576,
      "d": 5208.332500000019,
      "v": 85
    },
    {
      "midi": 57,
      "hit": false,
      "t": 411475.62860833574,
      "d": 989.5831749999779,
      "v": 67
    },
    {
      "midi": 78,
      "hit": false,
      "t": 412465.2117833357,
      "d": 902.7776333334041,
      "v": 84
    },
    {
      "midi": 66,
      "hit": false,
      "t": 412552.0173250024,
      "d": 989.5831750000361,
      "v": 79
    },
    {
      "midi": 69,
      "hit": false,
      "t": 412552.0173250024,
      "d": 2899.305091666698,
      "v": 80
    },
    {
      "midi": 57,
      "hit": false,
      "t": 413558.9616083358,
      "d": 1093.7498250000062,
      "v": 67
    },
    {
      "midi": 64,
      "hit": false,
      "t": 414548.54478333576,
      "d": 989.5831750000361,
      "v": 72
    },
    {
      "midi": 74,
      "hit": false,
      "t": 415538.1279583358,
      "d": 451.38881666667294,
      "v": 73
    },
    {
      "midi": 57,
      "hit": false,
      "t": 415538.1279583358,
      "d": 902.7776333333459,
      "v": 67
    },
    {
      "midi": 73,
      "hit": false,
      "t": 415989.51677500247,
      "d": 364.5832749999827,
      "v": 62
    },
    {
      "midi": 74,
      "hit": false,
      "t": 416545.0722416692,
      "d": 3715.2771833333536,
      "v": 79
    },
    {
      "midi": 50,
      "hit": false,
      "t": 416545.0722416692,
      "d": 5520.832450000045,
      "v": 85
    },
    {
      "midi": 57,
      "hit": false,
      "t": 417708.26650000253,
      "d": 4809.02700833336,
      "v": 59
    },
    {
      "midi": 66,
      "hit": false,
      "t": 419010.34962500253,
      "d": 1545.1386416666792,
      "v": 61
    },
    {
      "midi": 73,
      "hit": false,
      "t": 422031.18247500254,
      "d": 451.38881666667294,
      "v": 76
    },
    {
      "midi": 81,
      "hit": false,
      "t": 422031.18247500254,
      "d": 538.1943583333632,
      "v": 83
    },
    {
      "midi": 74,
      "hit": false,
      "t": 422465.2101833359,
      "d": 364.5832750000409,
      "v": 86
    },
    {
      "midi": 81,
      "hit": false,
      "t": 422916.5990000026,
      "d": 659.7221166666714,
      "v": 96
    },
    {
      "midi": 76,
      "hit": false,
      "t": 423003.4045416693,
      "d": 972.2220666666399,
      "v": 89
    },
    {
      "midi": 45,
      "hit": false,
      "t": 423003.4045416693,
      "d": 5295.138041666767,
      "v": 73
    },
    {
      "midi": 81,
      "hit": false,
      "t": 423958.2655000026,
      "d": 624.9998999999953,
      "v": 88
    },
    {
      "midi": 52,
      "hit": false,
      "t": 423958.2655000026,
      "d": 850.6943083333317,
      "v": 78
    },
    {
      "midi": 74,
      "hit": false,
      "t": 423958.2655000026,
      "d": 954.86095833336,
      "v": 87
    },
    {
      "midi": 61,
      "hit": false,
      "t": 424999.93200000265,
      "d": 850.6943083333317,
      "v": 72
    },
    {
      "midi": 81,
      "hit": false,
      "t": 425086.73754166934,
      "d": 590.2776833333191,
      "v": 93
    },
    {
      "midi": 74,
      "hit": false,
      "t": 425086.73754166934,
      "d": 607.6387916666572,
      "v": 85
    },
    {
      "midi": 81,
      "hit": false,
      "t": 426024.2373916693,
      "d": 729.1665500000236,
      "v": 88
    },
    {
      "midi": 52,
      "hit": false,
      "t": 426024.2373916693,
      "d": 1128.4720416667406,
      "v": 65
    },
    {
      "midi": 73,
      "hit": false,
      "t": 426128.40404166933,
      "d": 659.7221166666714,
      "v": 87
    },
    {
      "midi": 81,
      "hit": false,
      "t": 427065.90389166935,
      "d": 642.3610083333333,
      "v": 91
    },
    {
      "midi": 73,
      "hit": false,
      "t": 427065.90389166935,
      "d": 729.1665500000236,
      "v": 81
    },
    {
      "midi": 59,
      "hit": false,
      "t": 427065.90389166935,
      "d": 1024.3053916667122,
      "v": 68
    },
    {
      "midi": 71,
      "hit": false,
      "t": 428072.8481750027,
      "d": 711.8054416666855,
      "v": 89
    },
    {
      "midi": 81,
      "hit": false,
      "t": 428072.8481750027,
      "d": 711.8054416666855,
      "v": 90
    },
    {
      "midi": 52,
      "hit": false,
      "t": 428072.8481750027,
      "d": 920.1387416666839,
      "v": 79
    },
    {
      "midi": 45,
      "hit": false,
      "t": 428975.6258083361,
      "d": 5121.526958333328,
      "v": 75
    },
    {
      "midi": 73,
      "hit": false,
      "t": 429079.7924583361,
      "d": 4201.388216666644,
      "v": 94
    },
    {
      "midi": 81,
      "hit": false,
      "t": 429079.7924583361,
      "d": 4392.360408333305,
      "v": 96
    },
    {
      "midi": 52,
      "hit": false,
      "t": 430190.90339166945,
      "d": 1024.305391666654,
      "v": 79
    },
    {
      "midi": 61,
      "hit": false,
      "t": 431215.2087833361,
      "d": 1024.305391666654,
      "v": 85
    },
    {
      "midi": 52,
      "hit": false,
      "t": 432256.8752833361,
      "d": 1232.6386916666524,
      "v": 77
    },
    {
      "midi": 59,
      "hit": false,
      "t": 433298.5417833361,
      "d": 1128.4720416666823,
      "v": 83
    },
    {
      "midi": 52,
      "hit": false,
      "t": 434392.2916083361,
      "d": 399.305491666717,
      "v": 82
    },
    {
      "midi": 73,
      "hit": false,
      "t": 434392.2916083361,
      "d": 590.2776833333774,
      "v": 84
    },
    {
      "midi": 81,
      "hit": false,
      "t": 434479.0971500028,
      "d": 590.2776833333774,
      "v": 86
    },
    {
      "midi": 74,
      "hit": false,
      "t": 434982.56929166947,
      "d": 295.1388416666887,
      "v": 81
    },
    {
      "midi": 81,
      "hit": false,
      "t": 435468.6803250028,
      "d": 642.3610083333333,
      "v": 89
    },
    {
      "midi": 76,
      "hit": false,
      "t": 435468.6803250028,
      "d": 920.1387416666257,
      "v": 87
    },
    {
      "midi": 49,
      "hit": false,
      "t": 435468.6803250028,
      "d": 5260.415825000033,
      "v": 68
    },
    {
      "midi": 81,
      "hit": false,
      "t": 436423.5412833361,
      "d": 642.3610083333333,
      "v": 87
    },
    {
      "midi": 56,
      "hit": false,
      "t": 436527.70793333615,
      "d": 954.8609583333018,
      "v": 63
    },
    {
      "midi": 74,
      "hit": false,
      "t": 436527.70793333615,
      "d": 954.8609583333018,
      "v": 84
    },
    {
      "midi": 81,
      "hit": false,
      "t": 437482.56889166945,
      "d": 659.7221166666714,
      "v": 89
    },
    {
      "midi": 74,
      "hit": false,
      "t": 437482.56889166945,
      "d": 711.8054416666855,
      "v": 87
    },
    {
      "midi": 64,
      "hit": false,
      "t": 437482.56889166945,
      "d": 868.0554166666698,
      "v": 62
    },
    {
      "midi": 73,
      "hit": false,
      "t": 438506.8742833361,
      "d": 642.3610083333333,
      "v": 81
    },
    {
      "midi": 81,
      "hit": false,
      "t": 438506.8742833361,
      "d": 642.3610083333333,
      "v": 81
    },
    {
      "midi": 56,
      "hit": false,
      "t": 438506.8742833361,
      "d": 937.499850000022,
      "v": 64
    },
    {
      "midi": 62,
      "hit": false,
      "t": 439444.3741333361,
      "d": 1024.3053916667122,
      "v": 72
    },
    {
      "midi": 81,
      "hit": false,
      "t": 439548.54078333615,
      "d": 624.9998999999953,
      "v": 86
    },
    {
      "midi": 73,
      "hit": false,
      "t": 439548.54078333615,
      "d": 815.9720916666556,
      "v": 70
    },
    {
      "midi": 56,
      "hit": false,
      "t": 440520.76285000285,
      "d": 486.11103333334904,
      "v": 58
    },
    {
      "midi": 71,
      "hit": false,
      "t": 440607.56839166954,
      "d": 763.8887666666415,
      "v": 77
    },
    {
      "midi": 81,
      "hit": false,
      "t": 440607.56839166954,
      "d": 763.8887666666415,
      "v": 89
    },
    {
      "midi": 81,
      "hit": false,
      "t": 441597.1515666695,
      "d": 4097.221566666674,
      "v": 85
    },
    {
      "midi": 73,
      "hit": false,
      "t": 441683.9571083362,
      "d": 3854.16605,
      "v": 74
    },
    {
      "midi": 49,
      "hit": false,
      "t": 441683.9571083362,
      "d": 4027.777133333322,
      "v": 70
    },
    {
      "midi": 56,
      "hit": false,
      "t": 442812.4291500029,
      "d": 3194.4439333333285,
      "v": 47
    },
    {
      "midi": 64,
      "hit": false,
      "t": 444079.7900583362,
      "d": 2517.360708333319,
      "v": 39
    },
    {
      "midi": 71,
      "hit": false,
      "t": 447499.9284000029,
      "d": 329.8610583333648,
      "v": 72
    },
    {
      "midi": 54,
      "hit": false,
      "t": 447742.98391666956,
      "d": 4913.193658333388,
      "v": 57
    },
    {
      "midi": 69,
      "hit": false,
      "t": 447916.59500000294,
      "d": 1180.5553666666383,
      "v": 78
    },
    {
      "midi": 61,
      "hit": false,
      "t": 448923.53928333626,
      "d": 1180.5553666666965,
      "v": 65
    },
    {
      "midi": 73,
      "hit": false,
      "t": 449843.67802500294,
      "d": 2100.6941083333804,
      "v": 79
    },
    {
      "midi": 81,
      "hit": false,
      "t": 449843.67802500294,
      "d": 2430.555166666687,
      "v": 87
    },
    {
      "midi": 69,
      "hit": false,
      "t": 449930.48356666963,
      "d": 833.3331999999937,
      "v": 56
    },
    {
      "midi": 61,
      "hit": false,
      "t": 451024.23339166964,
      "d": 1093.7498250000062,
      "v": 59
    },
    {
      "midi": 69,
      "hit": false,
      "t": 452117.98321666964,
      "d": 1163.1942583333002,
      "v": 65
    },
    {
      "midi": 71,
      "hit": false,
      "t": 453090.2052833363,
      "d": 486.11103333334904,
      "v": 85
    },
    {
      "midi": 80,
      "hit": false,
      "t": 453090.2052833363,
      "d": 486.11103333334904,
      "v": 78
    },
    {
      "midi": 61,
      "hit": false,
      "t": 453090.2052833363,
      "d": 590.2776833333774,
      "v": 66
    },
    {
      "midi": 54,
      "hit": false,
      "t": 454166.594000003,
      "d": 5763.887966666836,
      "v": 68
    },
    {
      "midi": 80,
      "hit": false,
      "t": 454253.3995416697,
      "d": 2048.6107833333663,
      "v": 91
    },
    {
      "midi": 71,
      "hit": false,
      "t": 454253.3995416697,
      "d": 5399.304691666795,
      "v": 94
    },
    {
      "midi": 61,
      "hit": false,
      "t": 455190.8993916697,
      "d": 1215.2775833333726,
      "v": 64
    },
    {
      "midi": 69,
      "hit": false,
      "t": 456388.81586666976,
      "d": 954.86095833336,
      "v": 73
    },
    {
      "midi": 78,
      "hit": false,
      "t": 456388.81586666976,
      "d": 3107.6383916667546,
      "v": 92
    },
    {
      "midi": 61,
      "hit": false,
      "t": 457326.3157166698,
      "d": 1041.666499999992,
      "v": 70
    },
    {
      "midi": 69,
      "hit": false,
      "t": 458385.3433250031,
      "d": 972.2220666666981,
      "v": 73
    },
    {
      "midi": 61,
      "hit": false,
      "t": 459340.20428333647,
      "d": 364.5832750000409,
      "v": 73
    },
    {
      "midi": 76,
      "hit": false,
      "t": 459444.3709333365,
      "d": 364.5832750000409,
      "v": 91
    },
    {
      "midi": 76,
      "hit": false,
      "t": 460416.5930000032,
      "d": 2239.5829750000266,
      "v": 101
    },
    {
      "midi": 50,
      "hit": false,
      "t": 460416.5930000032,
      "d": 5486.1102333334275,
      "v": 81
    },
    {
      "midi": 57,
      "hit": false,
      "t": 461440.89839166985,
      "d": 1111.1109333333443,
      "v": 66
    },
    {
      "midi": 66,
      "hit": false,
      "t": 462465.2037833365,
      "d": 1111.1109333334025,
      "v": 73
    },
    {
      "midi": 78,
      "hit": false,
      "t": 462465.2037833365,
      "d": 1111.1109333334025,
      "v": 89
    },
    {
      "midi": 69,
      "hit": false,
      "t": 462552.0093250032,
      "d": 3385.4161250001052,
      "v": 59
    },
    {
      "midi": 57,
      "hit": false,
      "t": 463593.67582500324,
      "d": 1024.3053916667122,
      "v": 66
    },
    {
      "midi": 64,
      "hit": false,
      "t": 464531.17567500327,
      "d": 1128.4720416666823,
      "v": 72
    },
    {
      "midi": 74,
      "hit": false,
      "t": 465624.9255000033,
      "d": 451.38881666673115,
      "v": 79
    },
    {
      "midi": 57,
      "hit": false,
      "t": 465624.9255000033,
      "d": 920.1387416667421,
      "v": 67
    },
    {
      "midi": 73,
      "hit": false,
      "t": 465989.5087750033,
      "d": 642.3610083333915,
      "v": 68
    },
    {
      "midi": 50,
      "hit": false,
      "t": 466545.06424167,
      "d": 4930.554766666726,
      "v": 82
    },
    {
      "midi": 74,
      "hit": false,
      "t": 466631.8697833367,
      "d": 2829.860658333346,
      "v": 87
    },
    {
      "midi": 57,
      "hit": false,
      "t": 467690.89739167003,
      "d": 1163.1942583333584,
      "v": 64
    },
    {
      "midi": 66,
      "hit": false,
      "t": 468767.2861083367,
      "d": 989.5831750000361,
      "v": 81
    },
    {
      "midi": 57,
      "hit": false,
      "t": 469861.03593333677,
      "d": 1267.3609083333286,
      "v": 63
    },
    {
      "midi": 64,
      "hit": false,
      "t": 470850.61910833674,
      "d": 277.7777333333506,
      "v": 76
    },
    {
      "midi": 78,
      "hit": false,
      "t": 472864.50767500343,
      "d": 815.9720916666556,
      "v": 84
    },
    {
      "midi": 86,
      "hit": false,
      "t": 472864.50767500343,
      "d": 1371.5275583333569,
      "v": 100
    },
    {
      "midi": 47,
      "hit": false,
      "t": 472864.50767500343,
      "d": 5295.138041666709,
      "v": 86
    },
    {
      "midi": 54,
      "hit": false,
      "t": 473940.8963916701,
      "d": 1076.3887166666682,
      "v": 62
    },
    {
      "midi": 76,
      "hit": false,
      "t": 475104.09065000346,
      "d": 1163.1942583333584,
      "v": 91
    },
    {
      "midi": 85,
      "hit": false,
      "t": 475104.09065000346,
      "d": 1354.1664500000188,
      "v": 89
    },
    {
      "midi": 62,
      "hit": false,
      "t": 475190.89619167015,
      "d": 815.9720916666556,
      "v": 73
    },
    {
      "midi": 54,
      "hit": false,
      "t": 476180.47936667013,
      "d": 902.7776333333459,
      "v": 61
    },
    {
      "midi": 59,
      "hit": false,
      "t": 477083.2570000035,
      "d": 1128.4720416666823,
      "v": 64
    },
    {
      "midi": 74,
      "hit": false,
      "t": 477083.2570000035,
      "d": 1128.4720416666823,
      "v": 89
    },
    {
      "midi": 83,
      "hit": false,
      "t": 477083.2570000035,
      "d": 1215.2775833333726,
      "v": 95
    },
    {
      "midi": 54,
      "hit": false,
      "t": 478107.56239167013,
      "d": 1024.3053916667122,
      "v": 59
    },
    {
      "midi": 74,
      "hit": false,
      "t": 479236.03443333687,
      "d": 3090.2772833333584,
      "v": 84
    },
    {
      "midi": 83,
      "hit": false,
      "t": 479236.03443333687,
      "d": 3281.2494750000187,
      "v": 94
    },
    {
      "midi": 47,
      "hit": false,
      "t": 479236.03443333687,
      "d": 5069.443633333372,
      "v": 77
    },
    {
      "midi": 54,
      "hit": false,
      "t": 480277.70093333686,
      "d": 1024.305391666654,
      "v": 61
    },
    {
      "midi": 62,
      "hit": false,
      "t": 481302.0063250035,
      "d": 937.499850000022,
      "v": 79
    },
    {
      "midi": 54,
      "hit": false,
      "t": 482343.67282500357,
      "d": 746.5276583333034,
      "v": 72
    },
    {
      "midi": 59,
      "hit": false,
      "t": 483281.17267500353,
      "d": 381.94438333337894,
      "v": 79
    },
    {
      "midi": 74,
      "hit": false,
      "t": 483367.9782166702,
      "d": 295.1388416666887,
      "v": 92
    },
    {
      "midi": 83,
      "hit": false,
      "t": 483367.9782166702,
      "d": 694.4443333333475,
      "v": 96
    },
    {
      "midi": 54,
      "hit": false,
      "t": 484357.56139167026,
      "d": 399.3054916666588,
      "v": 71
    },
    {
      "midi": 76,
      "hit": false,
      "t": 484357.56139167026,
      "d": 399.3054916666588,
      "v": 83
    },
    {
      "midi": 85,
      "hit": false,
      "t": 484357.56139167026,
      "d": 590.2776833333191,
      "v": 89
    },
    {
      "midi": 78,
      "hit": false,
      "t": 485538.1167583369,
      "d": 868.0554166666698,
      "v": 84
    },
    {
      "midi": 86,
      "hit": false,
      "t": 485538.1167583369,
      "d": 1302.0831250000047,
      "v": 104
    },
    {
      "midi": 52,
      "hit": false,
      "t": 485538.1167583369,
      "d": 5034.721416666696,
      "v": 81
    },
    {
      "midi": 59,
      "hit": false,
      "t": 486492.97771667026,
      "d": 4774.304791666742,
      "v": 70
    },
    {
      "midi": 85,
      "hit": false,
      "t": 487621.4497583369,
      "d": 2690.9717916666996,
      "v": 87
    },
    {
      "midi": 64,
      "hit": false,
      "t": 487621.4497583369,
      "d": 3559.0272083334276,
      "v": 70
    },
    {
      "midi": 76,
      "hit": false,
      "t": 487708.25530000357,
      "d": 1388.888666666695,
      "v": 62
    },
    {
      "midi": 74,
      "hit": false,
      "t": 490607.56039167027,
      "d": 243.05551666667452,
      "v": 82
    },
    {
      "midi": 83,
      "hit": false,
      "t": 490607.56039167027,
      "d": 486.11103333334904,
      "v": 93
    },
    {
      "midi": 78,
      "hit": false,
      "t": 491666.58800000366,
      "d": 763.8887666666415,
      "v": 77
    },
    {
      "midi": 86,
      "hit": false,
      "t": 491666.58800000366,
      "d": 1163.1942583333002,
      "v": 93
    },
    {
      "midi": 53,
      "hit": false,
      "t": 491666.58800000366,
      "d": 4861.110333333316,
      "v": 72
    },
    {
      "midi": 61,
      "hit": false,
      "t": 492586.7267416703,
      "d": 4930.554766666726,
      "v": 56
    },
    {
      "midi": 65,
      "hit": false,
      "t": 493680.4765666703,
      "d": 3246.527258333401,
      "v": 58
    },
    {
      "midi": 77,
      "hit": false,
      "t": 493749.92100000364,
      "d": 1093.7498250000062,
      "v": 60
    },
    {
      "midi": 85,
      "hit": false,
      "t": 493749.92100000364,
      "d": 2864.582875000022,
      "v": 73
    },
    {
      "midi": 74,
      "hit": false,
      "t": 496857.55939167034,
      "d": 416.66659999999683,
      "v": 56
    },
    {
      "midi": 83,
      "hit": false,
      "t": 496857.55939167034,
      "d": 763.8887666666997,
      "v": 87
    },
    {
      "midi": 54,
      "hit": false,
      "t": 497864.5036750037,
      "d": 5468.749125000089,
      "v": 56
    },
    {
      "midi": 81,
      "hit": false,
      "t": 497864.5036750037,
      "d": 7222.221066666709,
      "v": 81
    },
    {
      "midi": 73,
      "hit": false,
      "t": 497864.5036750037,
      "d": 7986.10983333335,
      "v": 64
    },
    {
      "midi": 61,
      "hit": false,
      "t": 498975.61460833705,
      "d": 1197.9164750000346,
      "v": 54
    },
    {
      "midi": 69,
      "hit": false,
      "t": 499930.4755666704,
      "d": 954.86095833336,
      "v": 69
    },
    {
      "midi": 61,
      "hit": false,
      "t": 500972.14206667047,
      "d": 1041.666499999992,
      "v": 63
    },
    {
      "midi": 68,
      "hit": false,
      "t": 502083.2530000038,
      "d": 2673.6106833333033,
      "v": 53
    },
    {
      "midi": 61,
      "hit": false,
      "t": 503003.3917416705,
      "d": 3784.7216166665894,
      "v": 58
    },
    {
      "midi": 54,
      "hit": false,
      "t": 504166.5860000038,
      "d": 3576.388316666649,
      "v": 61
    },
    {
      "midi": 71,
      "hit": false,
      "t": 509097.14076667046,
      "d": 815.9720916666556,
      "v": 79
    },
    {
      "midi": 71,
      "hit": false,
      "t": 510416.5850000038,
      "d": 1197.9164750000928,
      "v": 83
    },
    {
      "midi": 44,
      "hit": false,
      "t": 510416.5850000038,
      "d": 4965.2769833334605,
      "v": 59
    },
    {
      "midi": 73,
      "hit": false,
      "t": 511545.05704167055,
      "d": 399.3054916666588,
      "v": 75
    },
    {
      "midi": 73,
      "hit": false,
      "t": 512413.1124583372,
      "d": 954.86095833336,
      "v": 77
    },
    {
      "midi": 71,
      "hit": false,
      "t": 513454.77895833727,
      "d": 434.0277083333349,
      "v": 66
    },
    {
      "midi": 71,
      "hit": false,
      "t": 514583.25100000395,
      "d": 1076.3887166666682,
      "v": 46
    },
    {
      "midi": 69,
      "hit": false,
      "t": 515590.19528333726,
      "d": 121.52775833336636,
      "v": 44
    },
    {
      "midi": 49,
      "hit": false,
      "t": 516406.167375004,
      "d": 4479.165950000053,
      "v": 56
    },
    {
      "midi": 61,
      "hit": false,
      "t": 516545.0562416706,
      "d": 3854.166050000058,
      "v": 51
    },
    {
      "midi": 56,
      "hit": false,
      "t": 516597.13956667064,
      "d": 4045.1382416667184,
      "v": 37
    },
    {
      "midi": 65,
      "hit": false,
      "t": 516666.584000004,
      "d": 4392.360408333363,
      "v": 57
    },
    {
      "midi": 68,
      "hit": false,
      "t": 516892.2784083373,
      "d": 4322.915975000011,
      "v": 57
    },
    {
      "midi": 76,
      "hit": false,
      "t": 522951.3052166707,
      "d": 2222.2218666666304,
      "v": 93
    },
    {
      "midi": 45,
      "hit": false,
      "t": 522951.3052166707,
      "d": 2638.888466666627,
      "v": 81
    },
    {
      "midi": 64,
      "hit": false,
      "t": 523541.582900004,
      "d": 590.2776833333191,
      "v": 72
    },
    {
      "midi": 74,
      "hit": false,
      "t": 524149.22169167065,
      "d": 1111.1109333333443,
      "v": 82
    },
    {
      "midi": 64,
      "hit": false,
      "t": 524652.6938333373,
      "d": 520.8332500000251,
      "v": 70
    },
    {
      "midi": 73,
      "hit": false,
      "t": 525156.165975004,
      "d": 381.94438333332073,
      "v": 73
    },
    {
      "midi": 64,
      "hit": false,
      "t": 525624.915900004,
      "d": 538.1943583333632,
      "v": 84
    },
    {
      "midi": 71,
      "hit": false,
      "t": 526076.3047166707,
      "d": 763.8887666666415,
      "v": 76
    },
    {
      "midi": 64,
      "hit": false,
      "t": 526545.0546416707,
      "d": 538.1943583333632,
      "v": 73
    },
    {
      "midi": 69,
      "hit": false,
      "t": 527013.8045666707,
      "d": 1163.1942583334167,
      "v": 85
    },
    {
      "midi": 52,
      "hit": false,
      "t": 527013.8045666707,
      "d": 1232.6386916667689,
      "v": 89
    },
    {
      "midi": 64,
      "hit": false,
      "t": 527517.2767083374,
      "d": 590.2776833333774,
      "v": 72
    },
    {
      "midi": 71,
      "hit": false,
      "t": 528020.748850004,
      "d": 347.22216666676104,
      "v": 89
    },
    {
      "midi": 64,
      "hit": false,
      "t": 528541.5821000042,
      "d": 520.8332500000251,
      "v": 72
    },
    {
      "midi": 73,
      "hit": false,
      "t": 529045.0542416709,
      "d": 590.2776833333774,
      "v": 73
    },
    {
      "midi": 64,
      "hit": false,
      "t": 529600.6097083376,
      "d": 572.9165750000393,
      "v": 69
    },
    {
      "midi": 59,
      "hit": false,
      "t": 530086.7207416709,
      "d": 1249.999800000107,
      "v": 80
    },
    {
      "midi": 74,
      "hit": false,
      "t": 530173.5262833376,
      "d": 572.9165750000393,
      "v": 87
    },
    {
      "midi": 64,
      "hit": false,
      "t": 530659.637316671,
      "d": 677.0832250000676,
      "v": 81
    },
    {
      "midi": 61,
      "hit": false,
      "t": 531232.553891671,
      "d": 3350.6939083335456,
      "v": 84
    },
    {
      "midi": 76,
      "hit": false,
      "t": 531319.3594333377,
      "d": 1423.610883333371,
      "v": 98
    },
    {
      "midi": 64,
      "hit": false,
      "t": 531770.7482500044,
      "d": 624.9999000000535,
      "v": 82
    },
    {
      "midi": 74,
      "hit": false,
      "t": 532308.9426083377,
      "d": 1510.4164250000613,
      "v": 83
    },
    {
      "midi": 64,
      "hit": false,
      "t": 532829.7758583378,
      "d": 538.1943583333632,
      "v": 77
    },
    {
      "midi": 73,
      "hit": false,
      "t": 533367.9702166711,
      "d": 451.38881666667294,
      "v": 73
    },
    {
      "midi": 64,
      "hit": false,
      "t": 533819.3590333378,
      "d": 729.1665500000818,
      "v": 78
    },
    {
      "midi": 59,
      "hit": false,
      "t": 534288.1089583378,
      "d": 1284.7220166668994,
      "v": 82
    },
    {
      "midi": 71,
      "hit": false,
      "t": 534374.9145000045,
      "d": 729.1665500001982,
      "v": 88
    },
    {
      "midi": 64,
      "hit": false,
      "t": 534930.4699666713,
      "d": 642.3610083333915,
      "v": 82
    },
    {
      "midi": 69,
      "hit": false,
      "t": 535468.6643250047,
      "d": 902.7776333333459,
      "v": 86
    },
    {
      "midi": 57,
      "hit": false,
      "t": 535468.6643250047,
      "d": 1163.1942583334167,
      "v": 86
    },
    {
      "midi": 64,
      "hit": false,
      "t": 536041.5809000047,
      "d": 503.4721416666871,
      "v": 82
    },
    {
      "midi": 71,
      "hit": false,
      "t": 536458.2475000047,
      "d": 503.4721416666871,
      "v": 81
    },
    {
      "midi": 64,
      "hit": false,
      "t": 536961.7196416714,
      "d": 572.9165750000393,
      "v": 87
    },
    {
      "midi": 57,
      "hit": false,
      "t": 537447.8306750047,
      "d": 1736.1108333333395,
      "v": 103
    },
    {
      "midi": 73,
      "hit": false,
      "t": 537534.6362166714,
      "d": 607.6387916667154,
      "v": 82
    },
    {
      "midi": 64,
      "hit": false,
      "t": 537986.0250333381,
      "d": 520.8332500000251,
      "v": 90
    },
    {
      "midi": 74,
      "hit": false,
      "t": 538506.8582833381,
      "d": 746.5276583333034,
      "v": 98
    },
    {
      "midi": 49,
      "hit": false,
      "t": 538958.2471000048,
      "d": 225.69440833327826,
      "v": 97
    },
    {
      "midi": 64,
      "hit": false,
      "t": 538958.2471000048,
      "d": 451.38881666667294,
      "v": 101
    },
    {
      "midi": 81,
      "hit": false,
      "t": 539704.7747583381,
      "d": 2378.4718416666146,
      "v": 102
    },
    {
      "midi": 42,
      "hit": false,
      "t": 539704.7747583381,
      "d": 3888.888266666676,
      "v": 96
    },
    {
      "midi": 69,
      "hit": false,
      "t": 540260.3302250047,
      "d": 468.749925000011,
      "v": 78
    },
    {
      "midi": 80,
      "hit": false,
      "t": 540746.441258338,
      "d": 1267.3609083333286,
      "v": 77
    },
    {
      "midi": 69,
      "hit": false,
      "t": 541145.7467500047,
      "d": 468.749925000011,
      "v": 89
    },
    {
      "midi": 78,
      "hit": false,
      "t": 541701.3022166714,
      "d": 434.0277083333349,
      "v": 87
    },
    {
      "midi": 69,
      "hit": false,
      "t": 542135.3299250047,
      "d": 607.6387916667154,
      "v": 87
    },
    {
      "midi": 76,
      "hit": false,
      "t": 542656.1631750048,
      "d": 781.2498749999795,
      "v": 89
    },
    {
      "midi": 69,
      "hit": false,
      "t": 543194.3575333381,
      "d": 607.6387916667154,
      "v": 85
    },
    {
      "midi": 74,
      "hit": false,
      "t": 543715.1907833382,
      "d": 954.86095833336,
      "v": 92
    },
    {
      "midi": 49,
      "hit": false,
      "t": 543715.1907833382,
      "d": 2274.305191666819,
      "v": 84
    },
    {
      "midi": 69,
      "hit": false,
      "t": 544236.0240333382,
      "d": 607.6387916667154,
      "v": 74
    },
    {
      "midi": 76,
      "hit": false,
      "t": 544756.8572833382,
      "d": 694.4443333334057,
      "v": 80
    },
    {
      "midi": 69,
      "hit": false,
      "t": 545260.3294250049,
      "d": 607.6387916667154,
      "v": 84
    },
    {
      "midi": 78,
      "hit": false,
      "t": 545781.1626750049,
      "d": 694.4443333334057,
      "v": 78
    },
    {
      "midi": 57,
      "hit": false,
      "t": 545781.1626750049,
      "d": 1979.1663500000723,
      "v": 74
    },
    {
      "midi": 69,
      "hit": false,
      "t": 546284.6348166716,
      "d": 486.11103333334904,
      "v": 89
    },
    {
      "midi": 80,
      "hit": false,
      "t": 546770.745850005,
      "d": 572.9165750000393,
      "v": 73
    },
    {
      "midi": 69,
      "hit": false,
      "t": 547343.662425005,
      "d": 486.11103333334904,
      "v": 78
    },
    {
      "midi": 49,
      "hit": false,
      "t": 547829.7734583383,
      "d": 2378.4718416668475,
      "v": 77
    },
    {
      "midi": 80,
      "hit": false,
      "t": 547916.579000005,
      "d": 1927.0830250000581,
      "v": 73
    },
    {
      "midi": 68,
      "hit": false,
      "t": 548472.1344666717,
      "d": 399.3054916666588,
      "v": 70
    },
    {
      "midi": 78,
      "hit": false,
      "t": 548958.2455000051,
      "d": 1284.722016666783,
      "v": 68
    },
    {
      "midi": 68,
      "hit": false,
      "t": 549444.3565333384,
      "d": 486.11103333334904,
      "v": 70
    },
    {
      "midi": 76,
      "hit": false,
      "t": 549999.9120000051,
      "d": 1215.2775833334308,
      "v": 72
    },
    {
      "midi": 56,
      "hit": false,
      "t": 549999.9120000051,
      "d": 2083.333000000217,
      "v": 64
    },
    {
      "midi": 68,
      "hit": false,
      "t": 550399.2174916719,
      "d": 399.3054916666588,
      "v": 69
    },
    {
      "midi": 74,
      "hit": false,
      "t": 550937.4118500053,
      "d": 677.0832250000676,
      "v": 79
    },
    {
      "midi": 68,
      "hit": false,
      "t": 551406.1617750053,
      "d": 260.4166250000708,
      "v": 61
    },
    {
      "midi": 64,
      "hit": false,
      "t": 552013.800566672,
      "d": 1406.249775000033,
      "v": 59
    },
    {
      "midi": 73,
      "hit": false,
      "t": 552083.2450000054,
      "d": 1527.7775333333993,
      "v": 73
    },
    {
      "midi": 68,
      "hit": false,
      "t": 552083.2450000054,
      "d": 1597.2219666667515,
      "v": 68
    },
    {
      "midi": 78,
      "hit": false,
      "t": 556249.9110000054,
      "d": 1388.888666666695,
      "v": 96
    },
    {
      "midi": 47,
      "hit": false,
      "t": 556336.7165416721,
      "d": 2517.3607083332026,
      "v": 85
    },
    {
      "midi": 66,
      "hit": false,
      "t": 556857.5497916722,
      "d": 434.0277083333349,
      "v": 81
    },
    {
      "midi": 76,
      "hit": false,
      "t": 557378.3830416722,
      "d": 1215.277583333198,
      "v": 89
    },
    {
      "midi": 66,
      "hit": false,
      "t": 557899.2162916721,
      "d": 434.0277083333349,
      "v": 81
    },
    {
      "midi": 74,
      "hit": false,
      "t": 558333.2440000054,
      "d": 1267.3609083333286,
      "v": 91
    },
    {
      "midi": 66,
      "hit": false,
      "t": 558975.6050083387,
      "d": 364.5832749999827,
      "v": 85
    },
    {
      "midi": 73,
      "hit": false,
      "t": 559426.9938250054,
      "d": 538.1943583333632,
      "v": 78
    },
    {
      "midi": 66,
      "hit": false,
      "t": 559878.382641672,
      "d": 642.3610083333915,
      "v": 86
    },
    {
      "midi": 71,
      "hit": false,
      "t": 560416.5770000054,
      "d": 781.2498749999795,
      "v": 92
    },
    {
      "midi": 54,
      "hit": false,
      "t": 560503.3825416721,
      "d": 2256.9440833333647,
      "v": 81
    },
    {
      "midi": 66,
      "hit": false,
      "t": 560937.4102500054,
      "d": 607.638791666599,
      "v": 84
    },
    {
      "midi": 73,
      "hit": false,
      "t": 561458.2435000053,
      "d": 694.4443333334057,
      "v": 77
    },
    {
      "midi": 66,
      "hit": false,
      "t": 561979.0767500054,
      "d": 607.6387916667154,
      "v": 96
    },
    {
      "midi": 62,
      "hit": false,
      "t": 562499.9100000054,
      "d": 364.5832750000991,
      "v": 96
    },
    {
      "midi": 74,
      "hit": false,
      "t": 562499.9100000054,
      "d": 711.8054416668601,
      "v": 86
    },
    {
      "midi": 66,
      "hit": false,
      "t": 563038.1043583389,
      "d": 538.1943583333632,
      "v": 86
    },
    {
      "midi": 76,
      "hit": false,
      "t": 563576.2987166722,
      "d": 538.1943583333632,
      "v": 97
    },
    {
      "midi": 66,
      "hit": false,
      "t": 564097.1319666723,
      "d": 538.1943583333632,
      "v": 99
    },
    {
      "midi": 78,
      "hit": false,
      "t": 564548.5207833389,
      "d": 2309.0274083336117,
      "v": 92
    },
    {
      "midi": 43,
      "hit": false,
      "t": 564722.1318666723,
      "d": 1197.9164750002092,
      "v": 93
    },
    {
      "midi": 66,
      "hit": false,
      "t": 565104.0762500057,
      "d": 642.3610083333915,
      "v": 93
    },
    {
      "midi": 76,
      "hit": false,
      "t": 565659.6317166724,
      "d": 2118.0552166667767,
      "v": 91
    },
    {
      "midi": 66,
      "hit": false,
      "t": 566197.8260750058,
      "d": 468.749925000011,
      "v": 87
    },
    {
      "midi": 74,
      "hit": false,
      "t": 566666.5760000058,
      "d": 607.6387916667154,
      "v": 85
    },
    {
      "midi": 66,
      "hit": false,
      "t": 567187.4092500058,
      "d": 434.0277083333349,
      "v": 79
    },
    {
      "midi": 73,
      "hit": false,
      "t": 567708.2425000059,
      "d": 607.6387916667154,
      "v": 87
    },
    {
      "midi": 50,
      "hit": false,
      "t": 567795.0480416726,
      "d": 1562.4997500000754,
      "v": 96
    },
    {
      "midi": 66,
      "hit": false,
      "t": 568229.0757500059,
      "d": 520.8332500000251,
      "v": 87
    },
    {
      "midi": 71,
      "hit": false,
      "t": 568749.9090000059,
      "d": 954.86095833336,
      "v": 86
    },
    {
      "midi": 59,
      "hit": false,
      "t": 568836.7145416726,
      "d": 2170.138541666791,
      "v": 91
    },
    {
      "midi": 66,
      "hit": false,
      "t": 569183.9367083393,
      "d": 607.6387916667154,
      "v": 76
    },
    {
      "midi": 73,
      "hit": false,
      "t": 569704.7699583393,
      "d": 1996.5274583334103,
      "v": 77
    },
    {
      "midi": 66,
      "hit": false,
      "t": 570312.408750006,
      "d": 520.8332500000251,
      "v": 89
    },
    {
      "midi": 50,
      "hit": false,
      "t": 570833.242000006,
      "d": 468.749925000011,
      "v": 96
    },
    {
      "midi": 74,
      "hit": false,
      "t": 570833.242000006,
      "d": 711.8054416666273,
      "v": 78
    },
    {
      "midi": 66,
      "hit": false,
      "t": 571301.991925006,
      "d": 468.749925000011,
      "v": 90
    },
    {
      "midi": 76,
      "hit": false,
      "t": 571874.9085000061,
      "d": 555.5554666667012,
      "v": 98
    },
    {
      "midi": 66,
      "hit": false,
      "t": 572430.4639666728,
      "d": 399.3054916666588,
      "v": 87
    },
    {
      "midi": 45,
      "hit": false,
      "t": 572986.0194333395,
      "d": 1284.7220166665502,
      "v": 88
    },
    {
      "midi": 76,
      "hit": false,
      "t": 572986.0194333395,
      "d": 1284.7220166665502,
      "v": 103
    },
    {
      "midi": 64,
      "hit": false,
      "t": 573576.2971166727,
      "d": 434.0277083333349,
      "v": 77
    },
    {
      "midi": 74,
      "hit": false,
      "t": 574010.3248250061,
      "d": 1371.5275583332404,
      "v": 86
    },
    {
      "midi": 64,
      "hit": false,
      "t": 574513.7969666726,
      "d": 520.8332500000251,
      "v": 87
    },
    {
      "midi": 73,
      "hit": false,
      "t": 575034.6302166727,
      "d": 520.8332500000251,
      "v": 84
    },
    {
      "midi": 64,
      "hit": false,
      "t": 575468.657925006,
      "d": 607.6387916667154,
      "v": 85
    },
    {
      "midi": 71,
      "hit": false,
      "t": 576076.2967166727,
      "d": 1215.2775833334308,
      "v": 93
    },
    {
      "midi": 52,
      "hit": false,
      "t": 576076.2967166727,
      "d": 4427.082625000272,
      "v": 91
    },
    {
      "midi": 64,
      "hit": false,
      "t": 576597.1299666727,
      "d": 607.6387916667154,
      "v": 79
    },
    {
      "midi": 69,
      "hit": false,
      "t": 577187.4076500061,
      "d": 1284.7220166666666,
      "v": 86
    },
    {
      "midi": 61,
      "hit": false,
      "t": 577187.4076500061,
      "d": 1996.5274583334103,
      "v": 88
    },
    {
      "midi": 64,
      "hit": false,
      "t": 577673.5186833395,
      "d": 555.5554666667012,
      "v": 82
    },
    {
      "midi": 71,
      "hit": false,
      "t": 578159.6297166728,
      "d": 399.3054916666588,
      "v": 79
    },
    {
      "midi": 64,
      "hit": false,
      "t": 578645.7407500062,
      "d": 555.5554666667012,
      "v": 89
    },
    {
      "midi": 59,
      "hit": false,
      "t": 579114.4906750062,
      "d": 1041.6665000000503,
      "v": 83
    },
    {
      "midi": 73,
      "hit": false,
      "t": 579114.4906750062,
      "d": 1284.722016666783,
      "v": 81
    },
    {
      "midi": 64,
      "hit": false,
      "t": 579617.9628166729,
      "d": 590.2776833333774,
      "v": 82
    },
    {
      "midi": 74,
      "hit": false,
      "t": 580208.2405000062,
      "d": 503.4721416668035,
      "v": 85
    },
    {
      "midi": 64,
      "hit": false,
      "t": 580694.3515333397,
      "d": 503.4721416666871,
      "v": 72
    },
    {
      "midi": 74,
      "hit": false,
      "t": 581354.0736500064,
      "d": 1788.1941583332373,
      "v": 86
    },
    {
      "midi": 40,
      "hit": false,
      "t": 581440.8791916731,
      "d": 2326.3885166666005,
      "v": 53
    },
    {
      "midi": 64,
      "hit": false,
      "t": 581822.8235750064,
      "d": 538.1943583332468,
      "v": 92
    },
    {
      "midi": 73,
      "hit": false,
      "t": 582361.0179333397,
      "d": 1093.7498250000644,
      "v": 75
    },
    {
      "midi": 64,
      "hit": false,
      "t": 582760.3234250064,
      "d": 624.9999000000535,
      "v": 85
    },
    {
      "midi": 71,
      "hit": false,
      "t": 583229.0733500064,
      "d": 1319.4442333334591,
      "v": 74
    },
    {
      "midi": 47,
      "hit": false,
      "t": 583298.5177833397,
      "d": 1944.4441333333962,
      "v": 85
    },
    {
      "midi": 64,
      "hit": false,
      "t": 583871.4343583398,
      "d": 503.4721416666871,
      "v": 90
    },
    {
      "midi": 69,
      "hit": false,
      "t": 584374.9065000064,
      "d": 1076.3887166667264,
      "v": 77
    },
    {
      "midi": 64,
      "hit": false,
      "t": 584878.3786416731,
      "d": 503.4721416666871,
      "v": 76
    },
    {
      "midi": 41,
      "hit": false,
      "t": 585451.2952166732,
      "d": 3350.6939083335456,
      "v": 83
    },
    {
      "midi": 74,
      "hit": false,
      "t": 585451.2952166732,
      "d": 4583.332600000314,
      "v": 94
    },
    {
      "midi": 65,
      "hit": false,
      "t": 585989.4895750065,
      "d": 468.749925000011,
      "v": 79
    },
    {
      "midi": 73,
      "hit": false,
      "t": 586458.2395000065,
      "d": 2326.3885166668333,
      "v": 73
    },
    {
      "midi": 65,
      "hit": false,
      "t": 586996.4338583399,
      "d": 538.1943583333632,
      "v": 66
    },
    {
      "midi": 71,
      "hit": false,
      "t": 587534.6282166733,
      "d": 1111.1109333334025,
      "v": 83
    },
    {
      "midi": 53,
      "hit": false,
      "t": 587604.0726500066,
      "d": 2170.138541666791,
      "v": 76
    },
    {
      "midi": 65,
      "hit": false,
      "t": 588038.10035834,
      "d": 486.11103333334904,
      "v": 74
    },
    {
      "midi": 69,
      "hit": false,
      "t": 588524.2113916733,
      "d": 416.66660000011325,
      "v": 72
    },
    {
      "midi": 65,
      "hit": false,
      "t": 589010.3224250068,
      "d": 763.8887666666415,
      "v": 74
    },
    {
      "midi": 42,
      "hit": false,
      "t": 589687.4056500067,
      "d": 2725.694008333492,
      "v": 68
    },
    {
      "midi": 69,
      "hit": false,
      "t": 589756.8500833401,
      "d": 5763.887966666836,
      "v": 79
    },
    {
      "midi": 49,
      "hit": false,
      "t": 590746.4332583402,
      "d": 5833.332400000072,
      "v": 62
    },
    {
      "midi": 57,
      "hit": false,
      "t": 592083.2386000069,
      "d": 4461.804841666715,
      "v": 58
    },
    {
      "midi": 64,
      "hit": false,
      "t": 597864.487675007,
      "d": 7413.193258333369,
      "v": 63
    },
    {
      "midi": 76,
      "hit": false,
      "t": 597916.571000007,
      "d": 5277.776933333371,
      "v": 72
    },
    {
      "midi": 71,
      "hit": false,
      "t": 598732.5430916736,
      "d": 7274.304391666665,
      "v": 60
    },
    {
      "midi": 85,
      "hit": false,
      "t": 599999.904000007,
      "d": 3593.7494250000454,
      "v": 71
    },
    {
      "midi": 74,
      "hit": false,
      "t": 599999.904000007,
      "d": 6822.915574999992,
      "v": 38
    },
    {
      "midi": 83,
      "hit": false,
      "t": 603680.4589666737,
      "d": 3454.8605583332246,
      "v": 63
    },
    {
      "midi": 76,
      "hit": false,
      "t": 604166.570000007,
      "d": 3819.4438333332073,
      "v": 48
    },
    {
      "midi": 61,
      "hit": false,
      "t": 610416.5690000069,
      "d": 4374.999300000141,
      "v": 65
    },
    {
      "midi": 76,
      "hit": false,
      "t": 610416.5690000069,
      "d": 10972.220466666739,
      "v": 85
    },
    {
      "midi": 68,
      "hit": false,
      "t": 611458.2355000069,
      "d": 3124.9995000000345,
      "v": 44
    },
    {
      "midi": 85,
      "hit": false,
      "t": 612499.902000007,
      "d": 2152.7774333333364,
      "v": 73
    },
    {
      "midi": 73,
      "hit": false,
      "t": 612569.3464333403,
      "d": 1284.7220166666666,
      "v": 47
    },
    {
      "midi": 83,
      "hit": false,
      "t": 616406.151375007,
      "d": 260.41662499995437,
      "v": 54
    },
    {
      "midi": 54,
      "hit": false,
      "t": 616666.568000007,
      "d": 2309.027408333379,
      "v": 50
    },
    {
      "midi": 85,
      "hit": false,
      "t": 616666.568000007,
      "d": 6215.276783333393,
      "v": 73
    },
    {
      "midi": 61,
      "hit": false,
      "t": 617760.317825007,
      "d": 3697.9160749999573,
      "v": 57
    },
    {
      "midi": 69,
      "hit": false,
      "t": 618940.8731916737,
      "d": 1666.6663999999873,
      "v": 55
    },
    {
      "midi": 50,
      "hit": false,
      "t": 622916.567000007,
      "d": 5173.610283333226,
      "v": 72
    },
    {
      "midi": 76,
      "hit": false,
      "t": 622916.567000007,
      "d": 5173.610283333226,
      "v": 86
    },
    {
      "midi": 57,
      "hit": false,
      "t": 623923.5112833404,
      "d": 5034.721416666638,
      "v": 61
    },
    {
      "midi": 85,
      "hit": false,
      "t": 624999.900000007,
      "d": 3350.6939083333127,
      "v": 79
    },
    {
      "midi": 65,
      "hit": false,
      "t": 624999.900000007,
      "d": 3420.138341666665,
      "v": 70
    },
    {
      "midi": 83,
      "hit": false,
      "t": 628142.2606083403,
      "d": 1024.3053916668287,
      "v": 76
    },
    {
      "midi": 50,
      "hit": false,
      "t": 629045.0382416737,
      "d": 5277.776933333371,
      "v": 63
    },
    {
      "midi": 77,
      "hit": false,
      "t": 629166.5660000071,
      "d": 5347.221366666723,
      "v": 63
    },
    {
      "midi": 57,
      "hit": false,
      "t": 630138.7880666738,
      "d": 4357.638191666687,
      "v": 44
    },
    {
      "midi": 85,
      "hit": false,
      "t": 631249.8990000071,
      "d": 3472.2216666667955,
      "v": 68
    },
    {
      "midi": 65,
      "hit": false,
      "t": 631249.8990000071,
      "d": 3680.554966666852,
      "v": 47
    },
    {
      "midi": 83,
      "hit": false,
      "t": 634479.0651500071,
      "d": 434.0277083334513,
      "v": 74
    },
    {
      "midi": 83,
      "hit": false,
      "t": 635416.5650000073,
      "d": 347.2221666666446,
      "v": 53
    },
    {
      "midi": 57,
      "hit": false,
      "t": 635416.5650000073,
      "d": 7118.054416666622,
      "v": 52
    },
    {
      "midi": 64,
      "hit": false,
      "t": 636458.2315000072,
      "d": 1093.7498250000644,
      "v": 41
    },
    {
      "midi": 73,
      "hit": false,
      "t": 637499.8980000073,
      "d": 989.5831749999197,
      "v": 64
    },
    {
      "midi": 81,
      "hit": false,
      "t": 637499.8980000073,
      "d": 1319.4442333332263,
      "v": 75
    },
    {
      "midi": 64,
      "hit": false,
      "t": 638541.5645000072,
      "d": 1041.6664999999339,
      "v": 39
    },
    {
      "midi": 71,
      "hit": false,
      "t": 639531.1476750071,
      "d": 1423.610883333371,
      "v": 45
    },
    {
      "midi": 81,
      "hit": false,
      "t": 639583.2310000071,
      "d": 954.86095833336,
      "v": 59
    },
    {
      "midi": 64,
      "hit": false,
      "t": 640329.7586583404,
      "d": 590.2776833333774,
      "v": 56
    },
    {
      "midi": 81,
      "hit": false,
      "t": 641492.9529166739,
      "d": 3593.7494250000454,
      "v": 71
    },
    {
      "midi": 93,
      "hit": false,
      "t": 641666.5640000072,
      "d": 3506.943883333355,
      "v": 70
    },
    {
      "midi": 33,
      "hit": false,
      "t": 641718.6473250072,
      "d": 3506.943883333355,
      "v": 52
    }
  ]
}