{
  "jsonPath": "Electronic/Disco House/Uniting Nations/uniting-nations-funky-guitar-sample.json",
  "path": "Electronic\\Disco House\\Uniting Nations\\Uniting Nations Funky Guitar Sample.mid",
  "name": "Uniting Nations Funky Guitar Sample",
  "difficulty": "Advanced",
  "bpm": 88.00002346667293,
  "notes": [
    {
      "midi": 66,
      "hit": false,
      "t": 2727.272,
      "d": 340.9090000000001,
      "v": 100
    },
    {
      "midi": 78,
      "hit": false,
      "t": 2727.272,
      "d": 340.9090000000001,
      "v": 100
    },
    {
      "midi": 62,
      "hit": false,
      "t": 3068.181,
      "d": 340.9090000000001,
      "v": 100
    },
    {
      "midi": 74,
      "hit": false,
      "t": 3068.181,
      "d": 340.9090000000001,
      "v": 100
    },
    {
      "midi": 64,
      "hit": false,
      "t": 3409.09,
      "d": 340.9090000000001,
      "v": 100
    },
    {
      "midi": 76,
      "hit": false,
      "t": 3409.09,
      "d": 340.9090000000001,
      "v": 100
    },
    {
      "midi": 69,
      "hit": false,
      "t": 3749.9990000000003,
      "d": 1704.5449999999996,
      "v": 100
    },
    {
      "midi": 81,
      "hit": false,
      "t": 3749.9990000000003,
      "d": 1704.5449999999996,
      "v": 100
    },
    {
      "midi": 67,
      "hit": false,
      "t": 5454.544,
      "d": 340.90899999999965,
      "v": 100
    },
    {
      "midi": 79,
      "hit": false,
      "t": 5454.544,
      "d": 340.90899999999965,
      "v": 100
    },
    {
      "midi": 62,
      "hit": false,
      "t": 5795.4529999999995,
      "d": 340.90899999999965,
      "v": 100
    },
    {
      "midi": 74,
      "hit": false,
      "t": 5795.4529999999995,
      "d": 340.90899999999965,
      "v": 100
    },
    {
      "midi": 64,
      "hit": false,
      "t": 6136.361999999999,
      "d": 340.90899999999965,
      "v": 100
    },
    {
      "midi": 76,
      "hit": false,
      "t": 6136.361999999999,
      "d": 340.90899999999965,
      "v": 100
    },
    {
      "midi": 71,
      "hit": false,
      "t": 6477.270999999999,
      "d": 1704.545,
      "v": 100
    },
    {
      "midi": 83,
      "hit": false,
      "t": 6477.270999999999,
      "d": 1704.545,
      "v": 100
    },
    {
      "midi": 59,
      "hit": false,
      "t": 8181.815999999999,
      "d": 340.90899999999965,
      "v": 100
    },
    {
      "midi": 71,
      "hit": false,
      "t": 8181.815999999999,
      "d": 340.90899999999965,
      "v": 100
    },
    {
      "midi": 62,
      "hit": false,
      "t": 8522.724999999999,
      "d": 340.90899999999965,
      "v": 100
    },
    {
      "midi": 74,
      "hit": false,
      "t": 8522.724999999999,
      "d": 340.90899999999965,
      "v": 100
    },
    {
      "midi": 64,
      "hit": false,
      "t": 8863.633999999998,
      "d": 340.90899999999965,
      "v": 100
    },
    {
      "midi": 76,
      "hit": false,
      "t": 8863.633999999998,
      "d": 340.90899999999965,
      "v": 100
    },
    {
      "midi": 73,
      "hit": false,
      "t": 9204.542999999998,
      "d": 2045.4539999999997,
      "v": 100
    },
    {
      "midi": 85,
      "hit": false,
      "t": 9204.542999999998,
      "d": 2045.4539999999997,
      "v": 100
    },
    {
      "midi": 64,
      "hit": false,
      "t": 11249.996999999998,
      "d": 340.90899999999965,
      "v": 100
    },
    {
      "midi": 76,
      "hit": false,
      "t": 11249.996999999998,
      "d": 340.90899999999965,
      "v": 100
    },
    {
      "midi": 66,
      "hit": false,
      "t": 11590.905999999997,
      "d": 340.90899999999965,
      "v": 100
    },
    {
      "midi": 78,
      "hit": false,
      "t": 11590.905999999997,
      "d": 340.90899999999965,
      "v": 100
    },
    {
      "midi": 71,
      "hit": false,
      "t": 11931.814999999997,
      "d": 1704.545,
      "v": 100
    },
    {
      "midi": 83,
      "hit": false,
      "t": 11931.814999999997,
      "d": 1704.545,
      "v": 100
    },
    {
      "midi": 67,
      "hit": false,
      "t": 13636.359999999997,
      "d": 340.90899999999965,
      "v": 100
    },
    {
      "midi": 79,
      "hit": false,
      "t": 13636.359999999997,
      "d": 340.90899999999965,
      "v": 100
    },
    {
      "midi": 62,
      "hit": false,
      "t": 13977.268999999997,
      "d": 340.90899999999965,
      "v": 100
    },
    {
      "midi": 74,
      "hit": false,
      "t": 13977.268999999997,
      "d": 340.90899999999965,
      "v": 100
    },
    {
      "midi": 64,
      "hit": false,
      "t": 14318.177999999996,
      "d": 340.90899999999965,
      "v": 100
    },
    {
      "midi": 76,
      "hit": false,
      "t": 14318.177999999996,
      "d": 340.90899999999965,
      "v": 100
    },
    {
      "midi": 71,
      "hit": false,
      "t": 14659.086999999996,
      "d": 1704.545,
      "v": 100
    },
    {
      "midi": 83,
      "hit": false,
      "t": 14659.086999999996,
      "d": 1704.545,
      "v": 100
    },
    {
      "midi": 66,
      "hit": false,
      "t": 16363.631999999996,
      "d": 340.90900000000147,
      "v": 100
    },
    {
      "midi": 78,
      "hit": false,
      "t": 16363.631999999996,
      "d": 340.90900000000147,
      "v": 100
    },
    {
      "midi": 62,
      "hit": false,
      "t": 16704.540999999997,
      "d": 340.90899999999965,
      "v": 100
    },
    {
      "midi": 74,
      "hit": false,
      "t": 16704.540999999997,
      "d": 340.90899999999965,
      "v": 100
    },
    {
      "midi": 64,
      "hit": false,
      "t": 17045.449999999997,
      "d": 340.90899999999965,
      "v": 100
    },
    {
      "midi": 76,
      "hit": false,
      "t": 17045.449999999997,
      "d": 340.90899999999965,
      "v": 100
    },
    {
      "midi": 69,
      "hit": false,
      "t": 17386.358999999997,
      "d": 1704.5449999999983,
      "v": 100
    },
    {
      "midi": 81,
      "hit": false,
      "t": 17386.358999999997,
      "d": 1704.5449999999983,
      "v": 100
    },
    {
      "midi": 59,
      "hit": false,
      "t": 19090.903999999995,
      "d": 340.90899999999965,
      "v": 100
    },
    {
      "midi": 71,
      "hit": false,
      "t": 19090.903999999995,
      "d": 340.90899999999965,
      "v": 100
    },
    {
      "midi": 62,
      "hit": false,
      "t": 19431.812999999995,
      "d": 340.90899999999965,
      "v": 100
    },
    {
      "midi": 74,
      "hit": false,
      "t": 19431.812999999995,
      "d": 340.90899999999965,
      "v": 100
    },
    {
      "midi": 64,
      "hit": false,
      "t": 19772.721999999994,
      "d": 340.90899999999965,
      "v": 100
    },
    {
      "midi": 76,
      "hit": false,
      "t": 19772.721999999994,
      "d": 340.90899999999965,
      "v": 100
    },
    {
      "midi": 73,
      "hit": false,
      "t": 20113.630999999994,
      "d": 340.90899999999965,
      "v": 100
    },
    {
      "midi": 85,
      "hit": false,
      "t": 20113.630999999994,
      "d": 340.90899999999965,
      "v": 100
    },
    {
      "midi": 69,
      "hit": false,
      "t": 20454.539999999994,
      "d": 340.90899999999965,
      "v": 100
    },
    {
      "midi": 81,
      "hit": false,
      "t": 20454.539999999994,
      "d": 340.90899999999965,
      "v": 100
    },
    {
      "midi": 71,
      "hit": false,
      "t": 20795.448999999993,
      "d": 340.90899999999965,
      "v": 100
    },
    {
      "midi": 83,
      "hit": false,
      "t": 20795.448999999993,
      "d": 340.90899999999965,
      "v": 100
    },
    {
      "midi": 76,
      "hit": false,
      "t": 21136.357999999993,
      "d": 3409.09,
      "v": 100
    },
    {
      "midi": 88,
      "hit": false,
      "t": 21136.357999999993,
      "d": 3409.09,
      "v": 100
    },
    {
      "midi": 55,
      "hit": false,
      "t": 24545.448,
      "d": 340.90899999999965,
      "v": 100
    },
    {
      "midi": 57,
      "hit": false,
      "t": 24545.448,
      "d": 340.90899999999965,
      "v": 100
    },
    {
      "midi": 62,
      "hit": false,
      "t": 24545.448,
      "d": 340.90899999999965,
      "v": 100
    },
    {
      "midi": 55,
      "hit": false,
      "t": 25227.266,
      "d": 340.90899999999965,
      "v": 100
    },
    {
      "midi": 57,
      "hit": false,
      "t": 25227.266,
      "d": 340.90899999999965,
      "v": 100
    },
    {
      "midi": 62,
      "hit": false,
      "t": 25227.266,
      "d": 340.90899999999965,
      "v": 100
    },
    {
      "midi": 55,
      "hit": false,
      "t": 25909.084,
      "d": 340.90899999999965,
      "v": 100
    },
    {
      "midi": 57,
      "hit": false,
      "t": 25909.084,
      "d": 340.90899999999965,
      "v": 100
    },
    {
      "midi": 62,
      "hit": false,
      "t": 25909.084,
      "d": 340.90899999999965,
      "v": 100
    },
    {
      "midi": 55,
      "hit": false,
      "t": 26590.902,
      "d": 340.90899999999965,
      "v": 100
    },
    {
      "midi": 57,
      "hit": false,
      "t": 26590.902,
      "d": 340.90899999999965,
      "v": 100
    },
    {
      "midi": 62,
      "hit": false,
      "t": 26590.902,
      "d": 340.90899999999965,
      "v": 100
    },
    {
      "midi": 55,
      "hit": false,
      "t": 27272.719999999998,
      "d": 340.90899999999965,
      "v": 100
    },
    {
      "midi": 57,
      "hit": false,
      "t": 27272.719999999998,
      "d": 340.90899999999965,
      "v": 100
    },
    {
      "midi": 62,
      "hit": false,
      "t": 27272.719999999998,
      "d": 340.90899999999965,
      "v": 100
    },
    {
      "midi": 55,
      "hit": false,
      "t": 27954.537999999997,
      "d": 340.90899999999965,
      "v": 100
    },
    {
      "midi": 57,
      "hit": false,
      "t": 27954.537999999997,
      "d": 340.90899999999965,
      "v": 100
    },
    {
      "midi": 62,
      "hit": false,
      "t": 27954.537999999997,
      "d": 340.90899999999965,
      "v": 100
    },
    {
      "midi": 55,
      "hit": false,
      "t": 28636.355999999996,
      "d": 340.90899999999965,
      "v": 100
    },
    {
      "midi": 57,
      "hit": false,
      "t": 28636.355999999996,
      "d": 340.90899999999965,
      "v": 100
    },
    {
      "midi": 62,
      "hit": false,
      "t": 28636.355999999996,
      "d": 340.90899999999965,
      "v": 100
    },
    {
      "midi": 55,
      "hit": false,
      "t": 29318.173999999995,
      "d": 340.90899999999965,
      "v": 100
    },
    {
      "midi": 57,
      "hit": false,
      "t": 29318.173999999995,
      "d": 340.90899999999965,
      "v": 100
    },
    {
      "midi": 62,
      "hit": false,
      "t": 29318.173999999995,
      "d": 340.90899999999965,
      "v": 100
    },
    {
      "midi": 57,
      "hit": false,
      "t": 29999.991999999995,
      "d": 340.90899999999965,
      "v": 100
    },
    {
      "midi": 61,
      "hit": false,
      "t": 29999.991999999995,
      "d": 340.90899999999965,
      "v": 100
    },
    {
      "midi": 64,
      "hit": false,
      "t": 29999.991999999995,
      "d": 340.90899999999965,
      "v": 100
    },
    {
      "midi": 57,
      "hit": false,
      "t": 30681.809999999994,
      "d": 340.90899999999965,
      "v": 100
    },
    {
      "midi": 61,
      "hit": false,
      "t": 30681.809999999994,
      "d": 340.90899999999965,
      "v": 100
    },
    {
      "midi": 64,
      "hit": false,
      "t": 30681.809999999994,
      "d": 340.90899999999965,
      "v": 100
    },
    {
      "midi": 57,
      "hit": false,
      "t": 31363.627999999993,
      "d": 340.90899999999965,
      "v": 100
    },
    {
      "midi": 61,
      "hit": false,
      "t": 31363.627999999993,
      "d": 340.90899999999965,
      "v": 100
    },
    {
      "midi": 64,
      "hit": false,
      "t": 31363.627999999993,
      "d": 340.90899999999965,
      "v": 100
    },
    {
      "midi": 57,
      "hit": false,
      "t": 32045.445999999993,
      "d": 340.90899999999965,
      "v": 100
    },
    {
      "midi": 61,
      "hit": false,
      "t": 32045.445999999993,
      "d": 340.90899999999965,
      "v": 100
    },
    {
      "midi": 64,
      "hit": false,
      "t": 32045.445999999993,
      "d": 340.90899999999965,
      "v": 100
    },
    {
      "midi": 57,
      "hit": false,
      "t": 32727.263999999992,
      "d": 340.9090000000033,
      "v": 100
    },
    {
      "midi": 62,
      "hit": false,
      "t": 32727.263999999992,
      "d": 340.9090000000033,
      "v": 100
    },
    {
      "midi": 66,
      "hit": false,
      "t": 32727.263999999992,
      "d": 340.9090000000033,
      "v": 100
    },
    {
      "midi": 57,
      "hit": false,
      "t": 33409.081999999995,
      "d": 340.90899999999965,
      "v": 100
    },
    {
      "midi": 62,
      "hit": false,
      "t": 33409.081999999995,
      "d": 340.90899999999965,
      "v": 100
    },
    {
      "midi": 66,
      "hit": false,
      "t": 33409.081999999995,
      "d": 340.90899999999965,
      "v": 100
    },
    {
      "midi": 57,
      "hit": false,
      "t": 34090.899999999994,
      "d": 340.90899999999965,
      "v": 100
    },
    {
      "midi": 62,
      "hit": false,
      "t": 34090.899999999994,
      "d": 340.90899999999965,
      "v": 100
    },
    {
      "midi": 66,
      "hit": false,
      "t": 34090.899999999994,
      "d": 340.90899999999965,
      "v": 100
    },
    {
      "midi": 57,
      "hit": false,
      "t": 34772.71799999999,
      "d": 340.90899999999965,
      "v": 100
    },
    {
      "midi": 62,
      "hit": false,
      "t": 34772.71799999999,
      "d": 340.90899999999965,
      "v": 100
    },
    {
      "midi": 66,
      "hit": false,
      "t": 34772.71799999999,
      "d": 340.90899999999965,
      "v": 100
    },
    {
      "midi": 55,
      "hit": false,
      "t": 35454.53599999999,
      "d": 340.90899999999965,
      "v": 100
    },
    {
      "midi": 57,
      "hit": false,
      "t": 35454.53599999999,
      "d": 340.90899999999965,
      "v": 100
    },
    {
      "midi": 62,
      "hit": false,
      "t": 35454.53599999999,
      "d": 340.90899999999965,
      "v": 100
    },
    {
      "midi": 55,
      "hit": false,
      "t": 36136.35399999999,
      "d": 340.90899999999965,
      "v": 100
    },
    {
      "midi": 57,
      "hit": false,
      "t": 36136.35399999999,
      "d": 340.90899999999965,
      "v": 100
    },
    {
      "midi": 62,
      "hit": false,
      "t": 36136.35399999999,
      "d": 340.90899999999965,
      "v": 100
    },
    {
      "midi": 55,
      "hit": false,
      "t": 36818.17199999999,
      "d": 340.90899999999965,
      "v": 100
    },
    {
      "midi": 57,
      "hit": false,
      "t": 36818.17199999999,
      "d": 340.90899999999965,
      "v": 100
    },
    {
      "midi": 62,
      "hit": false,
      "t": 36818.17199999999,
      "d": 340.90899999999965,
      "v": 100
    },
    {
      "midi": 55,
      "hit": false,
      "t": 37499.98999999999,
      "d": 340.90899999999965,
      "v": 100
    },
    {
      "midi": 57,
      "hit": false,
      "t": 37499.98999999999,
      "d": 340.90899999999965,
      "v": 100
    },
    {
      "midi": 62,
      "hit": false,
      "t": 37499.98999999999,
      "d": 340.90899999999965,
      "v": 100
    },
    {
      "midi": 57,
      "hit": false,
      "t": 38181.80799999999,
      "d": 340.90899999999965,
      "v": 100
    },
    {
      "midi": 61,
      "hit": false,
      "t": 38181.80799999999,
      "d": 340.90899999999965,
      "v": 100
    },
    {
      "midi": 64,
      "hit": false,
      "t": 38181.80799999999,
      "d": 340.90899999999965,
      "v": 100
    },
    {
      "midi": 57,
      "hit": false,
      "t": 38863.62599999999,
      "d": 340.90899999999965,
      "v": 100
    },
    {
      "midi": 61,
      "hit": false,
      "t": 38863.62599999999,
      "d": 340.90899999999965,
      "v": 100
    },
    {
      "midi": 64,
      "hit": false,
      "t": 38863.62599999999,
      "d": 340.90899999999965,
      "v": 100
    },
    {
      "midi": 57,
      "hit": false,
      "t": 39545.44399999999,
      "d": 340.90899999999965,
      "v": 100
    },
    {
      "midi": 61,
      "hit": false,
      "t": 39545.44399999999,
      "d": 340.90899999999965,
      "v": 100
    },
    {
      "midi": 64,
      "hit": false,
      "t": 39545.44399999999,
      "d": 340.90899999999965,
      "v": 100
    },
    {
      "midi": 57,
      "hit": false,
      "t": 40227.26199999999,
      "d": 340.90899999999965,
      "v": 100
    },
    {
      "midi": 61,
      "hit": false,
      "t": 40227.26199999999,
      "d": 340.90899999999965,
      "v": 100
    },
    {
      "midi": 64,
      "hit": false,
      "t": 40227.26199999999,
      "d": 340.90899999999965,
      "v": 100
    },
    {
      "midi": 57,
      "hit": false,
      "t": 40909.07999999999,
      "d": 340.90899999999965,
      "v": 100
    },
    {
      "midi": 61,
      "hit": false,
      "t": 40909.07999999999,
      "d": 340.90899999999965,
      "v": 100
    },
    {
      "midi": 64,
      "hit": false,
      "t": 40909.07999999999,
      "d": 340.90899999999965,
      "v": 100
    },
    {
      "midi": 57,
      "hit": false,
      "t": 41590.89799999999,
      "d": 340.90899999999965,
      "v": 100
    },
    {
      "midi": 61,
      "hit": false,
      "t": 41590.89799999999,
      "d": 340.90899999999965,
      "v": 100
    },
    {
      "midi": 64,
      "hit": false,
      "t": 41590.89799999999,
      "d": 340.90899999999965,
      "v": 100
    },
    {
      "midi": 57,
      "hit": false,
      "t": 42272.715999999986,
      "d": 340.90899999999965,
      "v": 100
    },
    {
      "midi": 61,
      "hit": false,
      "t": 42272.715999999986,
      "d": 340.90899999999965,
      "v": 100
    },
    {
      "midi": 64,
      "hit": false,
      "t": 42272.715999999986,
      "d": 340.90899999999965,
      "v": 100
    },
    {
      "midi": 57,
      "hit": false,
      "t": 42954.533999999985,
      "d": 340.90899999999965,
      "v": 100
    },
    {
      "midi": 61,
      "hit": false,
      "t": 42954.533999999985,
      "d": 340.90899999999965,
      "v": 100
    },
    {
      "midi": 64,
      "hit": false,
      "t": 42954.533999999985,
      "d": 340.90899999999965,
      "v": 100
    },
    {
      "midi": 57,
      "hit": false,
      "t": 43636.351999999984,
      "d": 340.90899999999965,
      "v": 100
    },
    {
      "midi": 59,
      "hit": false,
      "t": 43636.351999999984,
      "d": 340.90899999999965,
      "v": 100
    },
    {
      "midi": 63,
      "hit": false,
      "t": 43636.351999999984,
      "d": 340.90899999999965,
      "v": 100
    },
    {
      "midi": 57,
      "hit": false,
      "t": 44318.169999999984,
      "d": 340.90899999999965,
      "v": 100
    },
    {
      "midi": 59,
      "hit": false,
      "t": 44318.169999999984,
      "d": 340.90899999999965,
      "v": 100
    },
    {
      "midi": 63,
      "hit": false,
      "t": 44318.169999999984,
      "d": 340.90899999999965,
      "v": 100
    },
    {
      "midi": 57,
      "hit": false,
      "t": 44999.98799999998,
      "d": 340.90899999999965,
      "v": 100
    },
    {
      "midi": 59,
      "hit": false,
      "t": 44999.98799999998,
      "d": 340.90899999999965,
      "v": 100
    },
    {
      "midi": 63,
      "hit": false,
      "t": 44999.98799999998,
      "d": 340.90899999999965,
      "v": 100
    },
    {
      "midi": 57,
      "hit": false,
      "t": 45681.80599999998,
      "d": 340.90899999999965,
      "v": 100
    },
    {
      "midi": 59,
      "hit": false,
      "t": 45681.80599999998,
      "d": 340.90899999999965,
      "v": 100
    },
    {
      "midi": 63,
      "hit": false,
      "t": 45681.80599999998,
      "d": 340.90899999999965,
      "v": 100
    },
    {
      "midi": 55,
      "hit": false,
      "t": 46363.62399999998,
      "d": 340.90899999999965,
      "v": 100
    },
    {
      "midi": 59,
      "hit": false,
      "t": 46363.62399999998,
      "d": 340.90899999999965,
      "v": 100
    },
    {
      "midi": 62,
      "hit": false,
      "t": 46363.62399999998,
      "d": 340.90899999999965,
      "v": 100
    },
    {
      "midi": 55,
      "hit": false,
      "t": 47045.44199999998,
      "d": 340.90899999999965,
      "v": 100
    },
    {
      "midi": 59,
      "hit": false,
      "t": 47045.44199999998,
      "d": 340.90899999999965,
      "v": 100
    },
    {
      "midi": 62,
      "hit": false,
      "t": 47045.44199999998,
      "d": 340.90899999999965,
      "v": 100
    },
    {
      "midi": 55,
      "hit": false,
      "t": 47727.25999999998,
      "d": 340.90899999999965,
      "v": 100
    },
    {
      "midi": 59,
      "hit": false,
      "t": 47727.25999999998,
      "d": 340.90899999999965,
      "v": 100
    },
    {
      "midi": 62,
      "hit": false,
      "t": 47727.25999999998,
      "d": 340.90899999999965,
      "v": 100
    },
    {
      "midi": 55,
      "hit": false,
      "t": 48409.07799999998,
      "d": 340.90899999999965,
      "v": 100
    },
    {
      "midi": 59,
      "hit": false,
      "t": 48409.07799999998,
      "d": 340.90899999999965,
      "v": 100
    },
    {
      "midi": 62,
      "hit": false,
      "t": 48409.07799999998,
      "d": 340.90899999999965,
      "v": 100
    },
    {
      "midi": 57,
      "hit": false,
      "t": 49090.89599999998,
      "d": 340.90899999999965,
      "v": 100
    },
    {
      "midi": 61,
      "hit": false,
      "t": 49090.89599999998,
      "d": 340.90899999999965,
      "v": 100
    },
    {
      "midi": 64,
      "hit": false,
      "t": 49090.89599999998,
      "d": 340.90899999999965,
      "v": 100
    },
    {
      "midi": 57,
      "hit": false,
      "t": 49772.71399999998,
      "d": 340.90899999999965,
      "v": 100
    },
    {
      "midi": 61,
      "hit": false,
      "t": 49772.71399999998,
      "d": 340.90899999999965,
      "v": 100
    },
    {
      "midi": 64,
      "hit": false,
      "t": 49772.71399999998,
      "d": 340.90899999999965,
      "v": 100
    },
    {
      "midi": 57,
      "hit": false,
      "t": 50454.53199999998,
      "d": 340.90899999999965,
      "v": 100
    },
    {
      "midi": 61,
      "hit": false,
      "t": 50454.53199999998,
      "d": 340.90899999999965,
      "v": 100
    },
    {
      "midi": 64,
      "hit": false,
      "t": 50454.53199999998,
      "d": 340.90899999999965,
      "v": 100
    },
    {
      "midi": 57,
      "hit": false,
      "t": 51136.34999999998,
      "d": 340.90899999999965,
      "v": 100
    },
    {
      "midi": 61,
      "hit": false,
      "t": 51136.34999999998,
      "d": 340.90899999999965,
      "v": 100
    },
    {
      "midi": 64,
      "hit": false,
      "t": 51136.34999999998,
      "d": 340.90899999999965,
      "v": 100
    },
    {
      "midi": 59,
      "hit": false,
      "t": 51818.167999999976,
      "d": 340.90899999999965,
      "v": 100
    },
    {
      "midi": 62,
      "hit": false,
      "t": 51818.167999999976,
      "d": 340.90899999999965,
      "v": 100
    },
    {
      "midi": 66,
      "hit": false,
      "t": 51818.167999999976,
      "d": 340.90899999999965,
      "v": 100
    },
    {
      "midi": 59,
      "hit": false,
      "t": 52499.985999999975,
      "d": 340.90899999999965,
      "v": 100
    },
    {
      "midi": 62,
      "hit": false,
      "t": 52499.985999999975,
      "d": 340.90899999999965,
      "v": 100
    },
    {
      "midi": 66,
      "hit": false,
      "t": 52499.985999999975,
      "d": 340.90899999999965,
      "v": 100
    },
    {
      "midi": 59,
      "hit": false,
      "t": 53181.803999999975,
      "d": 340.90899999999965,
      "v": 100
    },
    {
      "midi": 62,
      "hit": false,
      "t": 53181.803999999975,
      "d": 340.90899999999965,
      "v": 100
    },
    {
      "midi": 66,
      "hit": false,
      "t": 53181.803999999975,
      "d": 340.90899999999965,
      "v": 100
    },
    {
      "midi": 59,
      "hit": false,
      "t": 53863.621999999974,
      "d": 340.90899999999965,
      "v": 100
    },
    {
      "midi": 62,
      "hit": false,
      "t": 53863.621999999974,
      "d": 340.90899999999965,
      "v": 100
    },
    {
      "midi": 66,
      "hit": false,
      "t": 53863.621999999974,
      "d": 340.90899999999965,
      "v": 100
    },
    {
      "midi": 55,
      "hit": false,
      "t": 54545.43999999997,
      "d": 340.90899999999965,
      "v": 100
    },
    {
      "midi": 60,
      "hit": false,
      "t": 54545.43999999997,
      "d": 340.90899999999965,
      "v": 100
    },
    {
      "midi": 64,
      "hit": false,
      "t": 54545.43999999997,
      "d": 340.90899999999965,
      "v": 100
    },
    {
      "midi": 55,
      "hit": false,
      "t": 55227.25799999997,
      "d": 340.90899999999965,
      "v": 100
    },
    {
      "midi": 60,
      "hit": false,
      "t": 55227.25799999997,
      "d": 340.90899999999965,
      "v": 100
    },
    {
      "midi": 64,
      "hit": false,
      "t": 55227.25799999997,
      "d": 340.90899999999965,
      "v": 100
    },
    {
      "midi": 55,
      "hit": false,
      "t": 55909.07599999997,
      "d": 340.90899999999965,
      "v": 100
    },
    {
      "midi": 60,
      "hit": false,
      "t": 55909.07599999997,
      "d": 340.90899999999965,
      "v": 100
    },
    {
      "midi": 64,
      "hit": false,
      "t": 55909.07599999997,
      "d": 340.90899999999965,
      "v": 100
    },
    {
      "midi": 55,
      "hit": false,
      "t": 56590.89399999997,
      "d": 340.90899999999965,
      "v": 100
    },
    {
      "midi": 60,
      "hit": false,
      "t": 56590.89399999997,
      "d": 340.90899999999965,
      "v": 100
    },
    {
      "midi": 64,
      "hit": false,
      "t": 56590.89399999997,
      "d": 340.90899999999965,
      "v": 100
    },
    {
      "midi": 59,
      "hit": false,
      "t": 57272.71199999997,
      "d": 340.90899999999965,
      "v": 100
    },
    {
      "midi": 62,
      "hit": false,
      "t": 57272.71199999997,
      "d": 340.90899999999965,
      "v": 100
    },
    {
      "midi": 66,
      "hit": false,
      "t": 57272.71199999997,
      "d": 340.90899999999965,
      "v": 100
    },
    {
      "midi": 59,
      "hit": false,
      "t": 57954.52999999997,
      "d": 340.90899999999965,
      "v": 100
    },
    {
      "midi": 62,
      "hit": false,
      "t": 57954.52999999997,
      "d": 340.90899999999965,
      "v": 100
    },
    {
      "midi": 66,
      "hit": false,
      "t": 57954.52999999997,
      "d": 340.90899999999965,
      "v": 100
    },
    {
      "midi": 59,
      "hit": false,
      "t": 58636.34799999997,
      "d": 340.90899999999965,
      "v": 100
    },
    {
      "midi": 62,
      "hit": false,
      "t": 58636.34799999997,
      "d": 340.90899999999965,
      "v": 100
    },
    {
      "midi": 66,
      "hit": false,
      "t": 58636.34799999997,
      "d": 340.90899999999965,
      "v": 100
    },
    {
      "midi": 59,
      "hit": false,
      "t": 59318.16599999997,
      "d": 340.90899999999965,
      "v": 100
    },
    {
      "midi": 62,
      "hit": false,
      "t": 59318.16599999997,
      "d": 340.90899999999965,
      "v": 100
    },
    {
      "midi": 66,
      "hit": false,
      "t": 59318.16599999997,
      "d": 340.90899999999965,
      "v": 100
    },
    {
      "midi": 57,
      "hit": false,
      "t": 59999.98399999997,
      "d": 340.90899999999965,
      "v": 100
    },
    {
      "midi": 62,
      "hit": false,
      "t": 59999.98399999997,
      "d": 340.90899999999965,
      "v": 100
    },
    {
      "midi": 66,
      "hit": false,
      "t": 59999.98399999997,
      "d": 340.90899999999965,
      "v": 100
    },
    {
      "midi": 57,
      "hit": false,
      "t": 60681.80199999997,
      "d": 340.90899999999965,
      "v": 100
    },
    {
      "midi": 62,
      "hit": false,
      "t": 60681.80199999997,
      "d": 340.90899999999965,
      "v": 100
    },
    {
      "midi": 66,
      "hit": false,
      "t": 60681.80199999997,
      "d": 340.90899999999965,
      "v": 100
    },
    {
      "midi": 57,
      "hit": false,
      "t": 61363.619999999966,
      "d": 340.90899999999965,
      "v": 100
    },
    {
      "midi": 62,
      "hit": false,
      "t": 61363.619999999966,
      "d": 340.90899999999965,
      "v": 100
    },
    {
      "midi": 66,
      "hit": false,
      "t": 61363.619999999966,
      "d": 340.90899999999965,
      "v": 100
    },
    {
      "midi": 57,
      "hit": false,
      "t": 62045.437999999966,
      "d": 340.90899999999965,
      "v": 100
    },
    {
      "midi": 62,
      "hit": false,
      "t": 62045.437999999966,
      "d": 340.90899999999965,
      "v": 100
    },
    {
      "midi": 66,
      "hit": false,
      "t": 62045.437999999966,
      "d": 340.90899999999965,
      "v": 100
    },
    {
      "midi": 55,
      "hit": false,
      "t": 62727.255999999965,
      "d": 340.90899999999965,
      "v": 100
    },
    {
      "midi": 62,
      "hit": false,
      "t": 62727.255999999965,
      "d": 340.90899999999965,
      "v": 100
    },
    {
      "midi": 66,
      "hit": false,
      "t": 62727.255999999965,
      "d": 340.90899999999965,
      "v": 100
    },
    {
      "midi": 55,
      "hit": false,
      "t": 63409.073999999964,
      "d": 340.90899999999965,
      "v": 100
    },
    {
      "midi": 62,
      "hit": false,
      "t": 63409.073999999964,
      "d": 340.90899999999965,
      "v": 100
    },
    {
      "midi": 66,
      "hit": false,
      "t": 63409.073999999964,
      "d": 340.90899999999965,
      "v": 100
    },
    {
      "midi": 55,
      "hit": false,
      "t": 64090.89199999996,
      "d": 340.90899999999965,
      "v": 100
    },
    {
      "midi": 62,
      "hit": false,
      "t": 64090.89199999996,
      "d": 340.90899999999965,
      "v": 100
    },
    {
      "midi": 66,
      "hit": false,
      "t": 64090.89199999996,
      "d": 340.90899999999965,
      "v": 100
    },
    {
      "midi": 55,
      "hit": false,
      "t": 64772.70999999996,
      "d": 340.90899999999965,
      "v": 100
    },
    {
      "midi": 62,
      "hit": false,
      "t": 64772.70999999996,
      "d": 340.90899999999965,
      "v": 100
    },
    {
      "midi": 66,
      "hit": false,
      "t": 64772.70999999996,
      "d": 340.90899999999965,
      "v": 100
    },
    {
      "midi": 57,
      "hit": false,
      "t": 65454.52799999996,
      "d": 340.90899999999965,
      "v": 100
    },
    {
      "midi": 61,
      "hit": false,
      "t": 65454.52799999996,
      "d": 340.90899999999965,
      "v": 100
    },
    {
      "midi": 64,
      "hit": false,
      "t": 65454.52799999996,
      "d": 340.90899999999965,
      "v": 100
    },
    {
      "midi": 57,
      "hit": false,
      "t": 66136.34599999996,
      "d": 340.90899999999965,
      "v": 100
    },
    {
      "midi": 61,
      "hit": false,
      "t": 66136.34599999996,
      "d": 340.90899999999965,
      "v": 100
    },
    {
      "midi": 64,
      "hit": false,
      "t": 66136.34599999996,
      "d": 340.90899999999965,
      "v": 100
    },
    {
      "midi": 57,
      "hit": false,
      "t": 66818.16399999996,
      "d": 340.90899999999965,
      "v": 100
    },
    {
      "midi": 61,
      "hit": false,
      "t": 66818.16399999996,
      "d": 340.90899999999965,
      "v": 100
    },
    {
      "midi": 64,
      "hit": false,
      "t": 66818.16399999996,
      "d": 340.90899999999965,
      "v": 100
    },
    {
      "midi": 57,
      "hit": false,
      "t": 67499.98199999996,
      "d": 340.90899999999965,
      "v": 100
    },
    {
      "midi": 61,
      "hit": false,
      "t": 67499.98199999996,
      "d": 340.90899999999965,
      "v": 100
    },
    {
      "midi": 64,
      "hit": false,
      "t": 67499.98199999996,
      "d": 340.90899999999965,
      "v": 100
    },
    {
      "midi": 57,
      "hit": false,
      "t": 68181.79999999999,
      "d": 2727.271999999997,
      "v": 80
    },
    {
      "midi": 62,
      "hit": false,
      "t": 68181.79999999999,
      "d": 2727.271999999997,
      "v": 80
    },
    {
      "midi": 66,
      "hit": false,
      "t": 68181.79999999999,
      "d": 2727.271999999997,
      "v": 80
    },
    {
      "midi": 76,
      "hit": false,
      "t": 68863.61799999996,
      "d": 340.90899999999965,
      "v": 100
    },
    {
      "midi": 73,
      "hit": false,
      "t": 69204.52699999996,
      "d": 340.90899999999965,
      "v": 100
    },
    {
      "midi": 57,
      "hit": false,
      "t": 70909.07199999999,
      "d": 2727.271999999997,
      "v": 80
    },
    {
      "midi": 60,
      "hit": false,
      "t": 70909.07199999999,
      "d": 2727.271999999997,
      "v": 80
    },
    {
      "midi": 64,
      "hit": false,
      "t": 70909.07199999999,
      "d": 2727.271999999997,
      "v": 80
    },
    {
      "midi": 66,
      "hit": false,
      "t": 70909.07199999999,
      "d": 2727.271999999997,
      "v": 80
    },
    {
      "midi": 69,
      "hit": false,
      "t": 71249.98099999996,
      "d": 340.90899999999965,
      "v": 100
    },
    {
      "midi": 76,
      "hit": false,
      "t": 71590.88999999996,
      "d": 340.90899999999965,
      "v": 100
    },
    {
      "midi": 72,
      "hit": false,
      "t": 71931.79899999996,
      "d": 340.90899999999965,
      "v": 100
    },
    {
      "midi": 57,
      "hit": false,
      "t": 73636.34399999998,
      "d": 2727.271999999997,
      "v": 80
    },
    {
      "midi": 62,
      "hit": false,
      "t": 73636.34399999998,
      "d": 2727.271999999997,
      "v": 80
    },
    {
      "midi": 67,
      "hit": false,
      "t": 73636.34399999998,
      "d": 2727.271999999997,
      "v": 80
    },
    {
      "midi": 74,
      "hit": false,
      "t": 74318.16199999995,
      "d": 340.90899999999965,
      "v": 100
    },
    {
      "midi": 71,
      "hit": false,
      "t": 74659.07099999995,
      "d": 340.90899999999965,
      "v": 100
    },
    {
      "midi": 58,
      "hit": false,
      "t": 76363.61599999998,
      "d": 2727.271999999997,
      "v": 80
    },
    {
      "midi": 62,
      "hit": false,
      "t": 76363.61599999998,
      "d": 2727.271999999997,
      "v": 80
    },
    {
      "midi": 64,
      "hit": false,
      "t": 76363.61599999998,
      "d": 2727.271999999997,
      "v": 80
    },
    {
      "midi": 67,
      "hit": false,
      "t": 76363.61599999998,
      "d": 2727.271999999997,
      "v": 80
    },
    {
      "midi": 70,
      "hit": false,
      "t": 76704.52499999995,
      "d": 340.90899999999965,
      "v": 100
    },
    {
      "midi": 74,
      "hit": false,
      "t": 77045.43399999995,
      "d": 340.90899999999965,
      "v": 100
    },
    {
      "midi": 70,
      "hit": false,
      "t": 77386.34299999995,
      "d": 340.90899999999965,
      "v": 100
    },
    {
      "midi": 57,
      "hit": false,
      "t": 79090.88799999998,
      "d": 2727.271999999997,
      "v": 80
    },
    {
      "midi": 61,
      "hit": false,
      "t": 79090.88799999998,
      "d": 2727.271999999997,
      "v": 80
    },
    {
      "midi": 64,
      "hit": false,
      "t": 79090.88799999998,
      "d": 2727.271999999997,
      "v": 80
    },
    {
      "midi": 66,
      "hit": false,
      "t": 79090.88799999998,
      "d": 2727.271999999997,
      "v": 80
    },
    {
      "midi": 69,
      "hit": false,
      "t": 80113.61499999998,
      "d": 340.90899999999965,
      "v": 70
    },
    {
      "midi": 76,
      "hit": false,
      "t": 80454.52399999998,
      "d": 340.90899999999965,
      "v": 70
    },
    {
      "midi": 74,
      "hit": false,
      "t": 80795.43299999998,
      "d": 340.90899999999965,
      "v": 70
    },
    {
      "midi": 73,
      "hit": false,
      "t": 81136.34199999998,
      "d": 340.90899999999965,
      "v": 70
    },
    {
      "midi": 76,
      "hit": false,
      "t": 81477.25099999997,
      "d": 340.90899999999965,
      "v": 70
    },
    {
      "midi": 74,
      "hit": false,
      "t": 81818.15999999997,
      "d": 340.90899999999965,
      "v": 70
    },
    {
      "midi": 59,
      "hit": false,
      "t": 81818.15999999997,
      "d": 2727.271999999997,
      "v": 80
    },
    {
      "midi": 62,
      "hit": false,
      "t": 81818.15999999997,
      "d": 2727.271999999997,
      "v": 80
    },
    {
      "midi": 66,
      "hit": false,
      "t": 81818.15999999997,
      "d": 2727.271999999997,
      "v": 80
    },
    {
      "midi": 73,
      "hit": false,
      "t": 82159.06899999997,
      "d": 340.90899999999965,
      "v": 70
    },
    {
      "midi": 74,
      "hit": false,
      "t": 82499.97799999997,
      "d": 340.90899999999965,
      "v": 70
    },
    {
      "midi": 78,
      "hit": false,
      "t": 82840.88699999997,
      "d": 340.90899999999965,
      "v": 70
    },
    {
      "midi": 71,
      "hit": false,
      "t": 83522.70499999997,
      "d": 340.90899999999965,
      "v": 70
    },
    {
      "midi": 76,
      "hit": false,
      "t": 83863.61399999997,
      "d": 340.90899999999965,
      "v": 70
    },
    {
      "midi": 78,
      "hit": false,
      "t": 84204.52299999997,
      "d": 340.90899999999965,
      "v": 70
    },
    {
      "midi": 59,
      "hit": false,
      "t": 84545.43199999994,
      "d": 681.8179999999993,
      "v": 80
    },
    {
      "midi": 64,
      "hit": false,
      "t": 84545.43199999994,
      "d": 681.8179999999993,
      "v": 80
    },
    {
      "midi": 67,
      "hit": false,
      "t": 84545.43199999994,
      "d": 681.8179999999993,
      "v": 80
    },
    {
      "midi": 79,
      "hit": false,
      "t": 84545.43199999997,
      "d": 340.90899999999965,
      "v": 70
    },
    {
      "midi": 59,
      "hit": false,
      "t": 84545.43199999997,
      "d": 2727.271999999997,
      "v": 80
    },
    {
      "midi": 64,
      "hit": false,
      "t": 84545.43199999997,
      "d": 2727.271999999997,
      "v": 80
    },
    {
      "midi": 67,
      "hit": false,
      "t": 84545.43199999997,
      "d": 2727.271999999997,
      "v": 80
    },
    {
      "midi": 59,
      "hit": false,
      "t": 85227.24999999994,
      "d": 681.8179999999993,
      "v": 80
    },
    {
      "midi": 62,
      "hit": false,
      "t": 85227.24999999994,
      "d": 681.8179999999993,
      "v": 80
    },
    {
      "midi": 66,
      "hit": false,
      "t": 85227.24999999994,
      "d": 681.8179999999993,
      "v": 80
    },
    {
      "midi": 78,
      "hit": false,
      "t": 85227.24999999997,
      "d": 340.90899999999965,
      "v": 70
    },
    {
      "midi": 55,
      "hit": false,
      "t": 85909.06799999994,
      "d": 681.8179999999993,
      "v": 80
    },
    {
      "midi": 59,
      "hit": false,
      "t": 85909.06799999994,
      "d": 681.8179999999993,
      "v": 80
    },
    {
      "midi": 64,
      "hit": false,
      "t": 85909.06799999994,
      "d": 681.8179999999993,
      "v": 80
    },
    {
      "midi": 76,
      "hit": false,
      "t": 85909.06799999997,
      "d": 340.90899999999965,
      "v": 70
    },
    {
      "midi": 55,
      "hit": false,
      "t": 86590.88599999994,
      "d": 681.8179999999993,
      "v": 80
    },
    {
      "midi": 59,
      "hit": false,
      "t": 86590.88599999994,
      "d": 681.8179999999993,
      "v": 80
    },
    {
      "midi": 62,
      "hit": false,
      "t": 86590.88599999994,
      "d": 681.8179999999993,
      "v": 80
    },
    {
      "midi": 74,
      "hit": false,
      "t": 86590.88599999997,
      "d": 340.90899999999965,
      "v": 70
    },
    {
      "midi": 52,
      "hit": false,
      "t": 87272.70399999994,
      "d": 1363.6359999999986,
      "v": 100
    },
    {
      "midi": 61,
      "hit": false,
      "t": 87272.70399999994,
      "d": 1363.6359999999986,
      "v": 100
    },
    {
      "midi": 52,
      "hit": false,
      "t": 87272.70399999997,
      "d": 1363.6359999999986,
      "v": 80
    },
    {
      "midi": 57,
      "hit": false,
      "t": 87272.70399999997,
      "d": 1363.6359999999986,
      "v": 80
    },
    {
      "midi": 61,
      "hit": false,
      "t": 87272.70399999997,
      "d": 1363.6359999999986,
      "v": 80
    },
    {
      "midi": 69,
      "hit": false,
      "t": 87272.70399999997,
      "d": 1363.6359999999986,
      "v": 70
    },
    {
      "midi": 61,
      "hit": false,
      "t": 88636.33999999994,
      "d": 1363.6359999999986,
      "v": 100
    },
    {
      "midi": 64,
      "hit": false,
      "t": 88636.33999999994,
      "d": 1363.6359999999986,
      "v": 100
    },
    {
      "midi": 57,
      "hit": false,
      "t": 88636.33999999997,
      "d": 1363.6359999999986,
      "v": 80
    },
    {
      "midi": 61,
      "hit": false,
      "t": 88636.33999999997,
      "d": 1363.6359999999986,
      "v": 80
    },
    {
      "midi": 64,
      "hit": false,
      "t": 88636.33999999997,
      "d": 1363.6359999999986,
      "v": 80
    },
    {
      "midi": 57,
      "hit": false,
      "t": 89999.97599999997,
      "d": 2727.271999999997,
      "v": 80
    },
    {
      "midi": 62,
      "hit": false,
      "t": 89999.97599999997,
      "d": 2727.271999999997,
      "v": 80
    },
    {
      "midi": 66,
      "hit": false,
      "t": 89999.97599999997,
      "d": 2727.271999999997,
      "v": 80
    },
    {
      "midi": 76,
      "hit": false,
      "t": 90681.79399999994,
      "d": 340.90899999999965,
      "v": 100
    },
    {
      "midi": 73,
      "hit": false,
      "t": 91022.70299999994,
      "d": 340.90899999999965,
      "v": 100
    },
    {
      "midi": 57,
      "hit": false,
      "t": 92727.24799999996,
      "d": 2727.271999999997,
      "v": 80
    },
    {
      "midi": 60,
      "hit": false,
      "t": 92727.24799999996,
      "d": 2727.271999999997,
      "v": 80
    },
    {
      "midi": 64,
      "hit": false,
      "t": 92727.24799999996,
      "d": 2727.271999999997,
      "v": 80
    },
    {
      "midi": 66,
      "hit": false,
      "t": 92727.24799999996,
      "d": 2727.271999999997,
      "v": 80
    },
    {
      "midi": 69,
      "hit": false,
      "t": 93068.15699999993,
      "d": 340.90899999999965,
      "v": 100
    },
    {
      "midi": 76,
      "hit": false,
      "t": 93409.06599999993,
      "d": 340.90899999999965,
      "v": 100
    },
    {
      "midi": 72,
      "hit": false,
      "t": 93749.97499999993,
      "d": 340.90899999999965,
      "v": 100
    },
    {
      "midi": 57,
      "hit": false,
      "t": 95454.51999999996,
      "d": 2727.271999999997,
      "v": 80
    },
    {
      "midi": 62,
      "hit": false,
      "t": 95454.51999999996,
      "d": 2727.271999999997,
      "v": 80
    },
    {
      "midi": 67,
      "hit": false,
      "t": 95454.51999999996,
      "d": 2727.271999999997,
      "v": 80
    },
    {
      "midi": 74,
      "hit": false,
      "t": 96136.33799999993,
      "d": 340.90899999999965,
      "v": 100
    },
    {
      "midi": 71,
      "hit": false,
      "t": 96477.24699999993,
      "d": 340.90899999999965,
      "v": 100
    },
    {
      "midi": 58,
      "hit": false,
      "t": 98181.79199999996,
      "d": 2727.271999999997,
      "v": 80
    },
    {
      "midi": 62,
      "hit": false,
      "t": 98181.79199999996,
      "d": 2727.271999999997,
      "v": 80
    },
    {
      "midi": 64,
      "hit": false,
      "t": 98181.79199999996,
      "d": 2727.271999999997,
      "v": 80
    },
    {
      "midi": 67,
      "hit": false,
      "t": 98181.79199999996,
      "d": 2727.271999999997,
      "v": 80
    },
    {
      "midi": 70,
      "hit": false,
      "t": 98522.70099999993,
      "d": 340.90899999999965,
      "v": 100
    },
    {
      "midi": 74,
      "hit": false,
      "t": 98863.60999999993,
      "d": 340.90899999999965,
      "v": 100
    },
    {
      "midi": 70,
      "hit": false,
      "t": 99204.51899999993,
      "d": 340.90899999999965,
      "v": 100
    },
    {
      "midi": 66,
      "hit": false,
      "t": 100909.06399999993,
      "d": 340.90899999999965,
      "v": 100
    },
    {
      "midi": 57,
      "hit": false,
      "t": 100909.06399999995,
      "d": 1022.726999999999,
      "v": 80
    },
    {
      "midi": 62,
      "hit": false,
      "t": 100909.06399999995,
      "d": 1022.726999999999,
      "v": 80
    },
    {
      "midi": 66,
      "hit": false,
      "t": 100909.06399999995,
      "d": 1022.726999999999,
      "v": 80
    },
    {
      "midi": 64,
      "hit": false,
      "t": 101249.97299999993,
      "d": 340.90899999999965,
      "v": 100
    },
    {
      "midi": 66,
      "hit": false,
      "t": 101590.88199999993,
      "d": 340.90899999999965,
      "v": 100
    },
    {
      "midi": 62,
      "hit": false,
      "t": 101931.79099999992,
      "d": 681.8179999999993,
      "v": 100
    },
    {
      "midi": 54,
      "hit": false,
      "t": 101931.79099999995,
      "d": 1704.5449999999983,
      "v": 80
    },
    {
      "midi": 57,
      "hit": false,
      "t": 101931.79099999995,
      "d": 1704.5449999999983,
      "v": 80
    },
    {
      "midi": 62,
      "hit": false,
      "t": 101931.79099999995,
      "d": 1704.5449999999983,
      "v": 80
    },
    {
      "midi": 62,
      "hit": false,
      "t": 102613.60899999992,
      "d": 340.90899999999965,
      "v": 100
    },
    {
      "midi": 66,
      "hit": false,
      "t": 102954.51799999992,
      "d": 340.90899999999965,
      "v": 100
    },
    {
      "midi": 62,
      "hit": false,
      "t": 103295.42699999992,
      "d": 340.90899999999965,
      "v": 100
    },
    {
      "midi": 59,
      "hit": false,
      "t": 103636.33599999992,
      "d": 2727.271999999997,
      "v": 100
    },
    {
      "midi": 52,
      "hit": false,
      "t": 103636.33599999995,
      "d": 1022.726999999999,
      "v": 80
    },
    {
      "midi": 55,
      "hit": false,
      "t": 103636.33599999995,
      "d": 1022.726999999999,
      "v": 80
    },
    {
      "midi": 59,
      "hit": false,
      "t": 103636.33599999995,
      "d": 1022.726999999999,
      "v": 80
    },
    {
      "midi": 55,
      "hit": false,
      "t": 104659.06299999995,
      "d": 1704.5449999999983,
      "v": 80
    },
    {
      "midi": 59,
      "hit": false,
      "t": 104659.06299999995,
      "d": 1704.5449999999983,
      "v": 80
    },
    {
      "midi": 62,
      "hit": false,
      "t": 104659.06299999995,
      "d": 1704.5449999999983,
      "v": 80
    },
    {
      "midi": 61,
      "hit": false,
      "t": 106363.60799999992,
      "d": 2727.271999999997,
      "v": 100
    },
    {
      "midi": 57,
      "hit": false,
      "t": 106363.60799999995,
      "d": 1363.6359999999986,
      "v": 80
    },
    {
      "midi": 61,
      "hit": false,
      "t": 106363.60799999995,
      "d": 1363.6359999999986,
      "v": 80
    },
    {
      "midi": 64,
      "hit": false,
      "t": 106363.60799999995,
      "d": 1363.6359999999986,
      "v": 80
    },
    {
      "midi": 69,
      "hit": false,
      "t": 106369.28981666661,
      "d": 1363.6359999999986,
      "v": 50
    },
    {
      "midi": 73,
      "hit": false,
      "t": 106443.15343333328,
      "d": 1363.6359999999986,
      "v": 60
    },
    {
      "midi": 76,
      "hit": false,
      "t": 106522.69886666661,
      "d": 1278.4087500000023,
      "v": 70
    },
    {
      "midi": 81,
      "hit": false,
      "t": 107727.24399999995,
      "d": 1363.6359999999986,
      "v": 60
    },
    {
      "midi": 85,
      "hit": false,
      "t": 107806.78943333328,
      "d": 1363.6359999999986,
      "v": 50
    },
    {
      "midi": 88,
      "hit": false,
      "t": 107886.33486666661,
      "d": 1278.4087500000023,
      "v": 40
    },
    {
      "midi": 57,
      "hit": false,
      "t": 114545.42399999991,
      "d": 2727.271999999997,
      "v": 100
    },
    {
      "midi": 60,
      "hit": false,
      "t": 114545.42399999991,
      "d": 2727.271999999997,
      "v": 100
    },
    {
      "midi": 65,
      "hit": false,
      "t": 114545.42399999991,
      "d": 2727.271999999997,
      "v": 100
    },
    {
      "midi": 93,
      "hit": false,
      "t": 114545.42399999994,
      "d": 340.90899999999965,
      "v": 80
    },
    {
      "midi": 88,
      "hit": false,
      "t": 114886.33299999994,
      "d": 340.90899999999965,
      "v": 80
    },
    {
      "midi": 91,
      "hit": false,
      "t": 115227.24199999994,
      "d": 340.90899999999965,
      "v": 80
    },
    {
      "midi": 86,
      "hit": false,
      "t": 115568.15099999994,
      "d": 340.90899999999965,
      "v": 80
    },
    {
      "midi": 89,
      "hit": false,
      "t": 115909.05999999994,
      "d": 340.90899999999965,
      "v": 80
    },
    {
      "midi": 84,
      "hit": false,
      "t": 116249.96899999994,
      "d": 340.90899999999965,
      "v": 80
    },
    {
      "midi": 86,
      "hit": false,
      "t": 116590.87799999994,
      "d": 340.90899999999965,
      "v": 80
    },
    {
      "midi": 81,
      "hit": false,
      "t": 116931.78699999994,
      "d": 340.90899999999965,
      "v": 80
    },
    {
      "midi": 57,
      "hit": false,
      "t": 117272.69599999991,
      "d": 2727.271999999997,
      "v": 100
    },
    {
      "midi": 60,
      "hit": false,
      "t": 117272.69599999991,
      "d": 2727.271999999997,
      "v": 100
    },
    {
      "midi": 65,
      "hit": false,
      "t": 117272.69599999991,
      "d": 2727.271999999997,
      "v": 100
    },
    {
      "midi": 84,
      "hit": false,
      "t": 117272.69599999994,
      "d": 340.90899999999965,
      "v": 80
    },
    {
      "midi": 79,
      "hit": false,
      "t": 117613.60499999994,
      "d": 340.90899999999965,
      "v": 80
    },
    {
      "midi": 81,
      "hit": false,
      "t": 117954.51399999994,
      "d": 340.90899999999965,
      "v": 80
    },
    {
      "midi": 77,
      "hit": false,
      "t": 118295.42299999994,
      "d": 340.90899999999965,
      "v": 80
    },
    {
      "midi": 79,
      "hit": false,
      "t": 118636.33199999994,
      "d": 340.90899999999965,
      "v": 80
    },
    {
      "midi": 74,
      "hit": false,
      "t": 118977.24099999994,
      "d": 340.90899999999965,
      "v": 80
    },
    {
      "midi": 77,
      "hit": false,
      "t": 119318.14999999994,
      "d": 340.90899999999965,
      "v": 80
    },
    {
      "midi": 69,
      "hit": false,
      "t": 119659.05899999994,
      "d": 340.90899999999965,
      "v": 80
    },
    {
      "midi": 57,
      "hit": false,
      "t": 119999.9679999999,
      "d": 2727.271999999997,
      "v": 100
    },
    {
      "midi": 62,
      "hit": false,
      "t": 119999.9679999999,
      "d": 2727.271999999997,
      "v": 100
    },
    {
      "midi": 66,
      "hit": false,
      "t": 119999.9679999999,
      "d": 2727.271999999997,
      "v": 100
    },
    {
      "midi": 54,
      "hit": false,
      "t": 119999.96799999994,
      "d": 5454.544000000082,
      "v": 60
    },
    {
      "midi": 57,
      "hit": false,
      "t": 121363.60399999993,
      "d": 170.4545000000071,
      "v": 50
    },
    {
      "midi": 62,
      "hit": false,
      "t": 121534.05849999994,
      "d": 170.4545000000071,
      "v": 55
    },
    {
      "midi": 64,
      "hit": false,
      "t": 121704.51299999995,
      "d": 170.4545000000071,
      "v": 60
    },
    {
      "midi": 66,
      "hit": false,
      "t": 121874.96749999996,
      "d": 170.4545000000071,
      "v": 65
    },
    {
      "midi": 69,
      "hit": false,
      "t": 122045.42199999996,
      "d": 170.4545000000071,
      "v": 70
    },
    {
      "midi": 74,
      "hit": false,
      "t": 122215.87649999997,
      "d": 170.4545000000071,
      "v": 75
    },
    {
      "midi": 76,
      "hit": false,
      "t": 122386.33099999998,
      "d": 170.4545000000071,
      "v": 80
    },
    {
      "midi": 78,
      "hit": false,
      "t": 122556.78549999998,
      "d": 142.04541666666046,
      "v": 85
    },
    {
      "midi": 80,
      "hit": false,
      "t": 122698.83091666664,
      "d": 28.40908333333209,
      "v": 50
    },
    {
      "midi": 57,
      "hit": false,
      "t": 122727.2399999999,
      "d": 2727.271999999997,
      "v": 100
    },
    {
      "midi": 62,
      "hit": false,
      "t": 122727.2399999999,
      "d": 2727.271999999997,
      "v": 100
    },
    {
      "midi": 66,
      "hit": false,
      "t": 122727.2399999999,
      "d": 2727.271999999997,
      "v": 100
    },
    {
      "midi": 81,
      "hit": false,
      "t": 122727.23999999998,
      "d": 170.4545000000071,
      "v": 90
    },
    {
      "midi": 83,
      "hit": false,
      "t": 123068.14899999999,
      "d": 170.4545000000071,
      "v": 70
    },
    {
      "midi": 83,
      "hit": false,
      "t": 123721.55791666666,
      "d": 28.40908333333209,
      "v": 50
    },
    {
      "midi": 85,
      "hit": false,
      "t": 123749.96699999999,
      "d": 170.4545000000071,
      "v": 70
    },
    {
      "midi": 86,
      "hit": false,
      "t": 124431.785,
      "d": 170.4545000000071,
      "v": 90
    },
    {
      "midi": 83,
      "hit": false,
      "t": 124744.28491666667,
      "d": 28.40908333333209,
      "v": 65
    },
    {
      "midi": 85,
      "hit": false,
      "t": 124772.694,
      "d": 170.4545000000071,
      "v": 80
    },
    {
      "midi": 81,
      "hit": false,
      "t": 124943.14850000001,
      "d": 170.4545000000071,
      "v": 60
    },
    {
      "midi": 57,
      "hit": false,
      "t": 125454.5119999999,
      "d": 2727.271999999997,
      "v": 100
    },
    {
      "midi": 60,
      "hit": false,
      "t": 125454.5119999999,
      "d": 2727.271999999997,
      "v": 100
    },
    {
      "midi": 65,
      "hit": false,
      "t": 125454.5119999999,
      "d": 2727.271999999997,
      "v": 100
    },
    {
      "midi": 60,
      "hit": false,
      "t": 126136.33000000002,
      "d": 340.90899999999965,
      "v": 60
    },
    {
      "midi": 62,
      "hit": false,
      "t": 126477.23900000002,
      "d": 340.90899999999965,
      "v": 64
    },
    {
      "midi": 65,
      "hit": false,
      "t": 126818.14800000002,
      "d": 340.90899999999965,
      "v": 68
    },
    {
      "midi": 67,
      "hit": false,
      "t": 127159.05700000002,
      "d": 340.90899999999965,
      "v": 72
    },
    {
      "midi": 69,
      "hit": false,
      "t": 127499.96600000001,
      "d": 340.90899999999965,
      "v": 76
    },
    {
      "midi": 72,
      "hit": false,
      "t": 127840.87500000001,
      "d": 340.90899999999965,
      "v": 80
    },
    {
      "midi": 57,
      "hit": false,
      "t": 128181.7839999999,
      "d": 2727.271999999997,
      "v": 100
    },
    {
      "midi": 60,
      "hit": false,
      "t": 128181.7839999999,
      "d": 2727.271999999997,
      "v": 100
    },
    {
      "midi": 65,
      "hit": false,
      "t": 128181.7839999999,
      "d": 2727.271999999997,
      "v": 100
    },
    {
      "midi": 77,
      "hit": false,
      "t": 128181.78400000001,
      "d": 340.90899999999965,
      "v": 80
    },
    {
      "midi": 79,
      "hit": false,
      "t": 128522.69300000001,
      "d": 340.90899999999965,
      "v": 75
    },
    {
      "midi": 81,
      "hit": false,
      "t": 128863.60200000001,
      "d": 340.90899999999965,
      "v": 69
    },
    {
      "midi": 84,
      "hit": false,
      "t": 129204.51100000001,
      "d": 340.90899999999965,
      "v": 63
    },
    {
      "midi": 89,
      "hit": false,
      "t": 129545.42000000001,
      "d": 340.90899999999965,
      "v": 58
    },
    {
      "midi": 91,
      "hit": false,
      "t": 129886.32900000001,
      "d": 340.90899999999965,
      "v": 52
    },
    {
      "midi": 93,
      "hit": false,
      "t": 130227.23800000001,
      "d": 340.90899999999965,
      "v": 46
    },
    {
      "midi": 96,
      "hit": false,
      "t": 130568.14700000001,
      "d": 340.90899999999965,
      "v": 40
    },
    {
      "midi": 57,
      "hit": false,
      "t": 130909.0559999999,
      "d": 2727.271999999997,
      "v": 100
    },
    {
      "midi": 62,
      "hit": false,
      "t": 130909.0559999999,
      "d": 2727.271999999997,
      "v": 100
    },
    {
      "midi": 66,
      "hit": false,
      "t": 130909.0559999999,
      "d": 2727.271999999997,
      "v": 100
    },
    {
      "midi": 90,
      "hit": false,
      "t": 130909.05600000001,
      "d": 28.40908333333209,
      "v": 40
    },
    {
      "midi": 93,
      "hit": false,
      "t": 130965.87416666668,
      "d": 340.9090000000142,
      "v": 60
    },
    {
      "midi": 88,
      "hit": false,
      "t": 131931.78300000002,
      "d": 340.9090000000142,
      "v": 80
    },
    {
      "midi": 88,
      "hit": false,
      "t": 132272.69200000004,
      "d": 170.45449999999255,
      "v": 60
    },
    {
      "midi": 93,
      "hit": false,
      "t": 132443.14650000003,
      "d": 170.45449999999255,
      "v": 70
    },
    {
      "midi": 86,
      "hit": false,
      "t": 132613.60100000002,
      "d": 170.45449999999255,
      "v": 80
    },
    {
      "midi": 85,
      "hit": false,
      "t": 132954.51,
      "d": 170.45449999999255,
      "v": 60
    },
    {
      "midi": 88,
      "hit": false,
      "t": 133124.9645,
      "d": 170.45449999999255,
      "v": 70
    },
    {
      "midi": 81,
      "hit": false,
      "t": 133295.419,
      "d": 170.45449999999255,
      "v": 50
    },
    {
      "midi": 74,
      "hit": false,
      "t": 133579.50983333332,
      "d": 28.40908333333209,
      "v": 40
    },
    {
      "midi": 76,
      "hit": false,
      "t": 133607.91891666665,
      "d": 28.40908333333209,
      "v": 60
    },
    {
      "midi": 59,
      "hit": false,
      "t": 133636.3279999999,
      "d": 2727.271999999997,
      "v": 100
    },
    {
      "midi": 62,
      "hit": false,
      "t": 133636.3279999999,
      "d": 2727.271999999997,
      "v": 100
    },
    {
      "midi": 67,
      "hit": false,
      "t": 133636.3279999999,
      "d": 2727.271999999997,
      "v": 100
    },
    {
      "midi": 78,
      "hit": false,
      "t": 133636.32799999998,
      "d": 340.9090000000142,
      "v": 100
    },
    {
      "midi": 81,
      "hit": false,
      "t": 133977.237,
      "d": 340.9090000000142,
      "v": 80
    },
    {
      "midi": 74,
      "hit": false,
      "t": 136704.5089999999,
      "d": 340.9090000000142,
      "v": 80
    },
    {
      "midi": 76,
      "hit": false,
      "t": 137045.41799999992,
      "d": 340.9090000000142,
      "v": 90
    },
    {
      "midi": 83,
      "hit": false,
      "t": 137386.32699999993,
      "d": 1704.5450000000128,
      "v": 100
    },
    {
      "midi": 90,
      "hit": false,
      "t": 141477.23499999996,
      "d": 170.45449999999255,
      "v": 100
    },
    {
      "midi": 90,
      "hit": false,
      "t": 141818.14399999994,
      "d": 170.45449999999255,
      "v": 92
    },
    {
      "midi": 90,
      "hit": false,
      "t": 142159.05299999993,
      "d": 170.45449999999255,
      "v": 83
    },
    {
      "midi": 93,
      "hit": false,
      "t": 142329.50749999992,
      "d": 170.45449999999255,
      "v": 78
    },
    {
      "midi": 90,
      "hit": false,
      "t": 142499.9619999999,
      "d": 170.45449999999255,
      "v": 74
    },
    {
      "midi": 93,
      "hit": false,
      "t": 142670.4164999999,
      "d": 170.45449999999255,
      "v": 69
    },
    {
      "midi": 90,
      "hit": false,
      "t": 142840.8709999999,
      "d": 170.45449999999255,
      "v": 65
    },
    {
      "midi": 93,
      "hit": false,
      "t": 143011.3254999999,
      "d": 170.45449999999255,
      "v": 60
    },
    {
      "midi": 74,
      "hit": false,
      "t": 147613.5969999999,
      "d": 340.9090000000142,
      "v": 80
    },
    {
      "midi": 76,
      "hit": false,
      "t": 147954.5059999999,
      "d": 340.9090000000142,
      "v": 90
    },
    {
      "midi": 83,
      "hit": false,
      "t": 148295.41499999992,
      "d": 1704.5450000000128,
      "v": 100
    },
    {
      "midi": 90,
      "hit": false,
      "t": 152386.32299999995,
      "d": 170.45449999999255,
      "v": 100
    },
    {
      "midi": 90,
      "hit": false,
      "t": 152727.23199999993,
      "d": 170.45449999999255,
      "v": 92
    },
    {
      "midi": 90,
      "hit": false,
      "t": 153068.14099999992,
      "d": 170.45449999999255,
      "v": 83
    },
    {
      "midi": 93,
      "hit": false,
      "t": 153238.5954999999,
      "d": 170.45449999999255,
      "v": 78
    },
    {
      "midi": 90,
      "hit": false,
      "t": 153409.0499999999,
      "d": 170.45449999999255,
      "v": 74
    },
    {
      "midi": 93,
      "hit": false,
      "t": 153579.5044999999,
      "d": 170.45449999999255,
      "v": 69
    },
    {
      "midi": 90,
      "hit": false,
      "t": 153749.9589999999,
      "d": 170.45449999999255,
      "v": 65
    },
    {
      "midi": 93,
      "hit": false,
      "t": 153920.41349999988,
      "d": 170.45449999999255,
      "v": 60
    },
    {
      "midi": 96,
      "hit": false,
      "t": 158181.776,
      "d": 681.8179999999993,
      "v": 70
    },
    {
      "midi": 98,
      "hit": false,
      "t": 158863.594,
      "d": 681.8179999999993,
      "v": 60
    },
    {
      "midi": 100,
      "hit": false,
      "t": 159545.412,
      "d": 681.8179999999993,
      "v": 50
    },
    {
      "midi": 101,
      "hit": false,
      "t": 160227.23,
      "d": 681.8179999999993,
      "v": 40
    },
    {
      "midi": 55,
      "hit": false,
      "t": 160909.04799999986,
      "d": 340.9090000000142,
      "v": 100
    },
    {
      "midi": 57,
      "hit": false,
      "t": 160909.04799999986,
      "d": 340.9090000000142,
      "v": 100
    },
    {
      "midi": 62,
      "hit": false,
      "t": 160909.04799999986,
      "d": 340.9090000000142,
      "v": 100
    },
    {
      "midi": 55,
      "hit": false,
      "t": 161590.8659999999,
      "d": 340.9090000000142,
      "v": 100
    },
    {
      "midi": 57,
      "hit": false,
      "t": 161590.8659999999,
      "d": 340.9090000000142,
      "v": 100
    },
    {
      "midi": 62,
      "hit": false,
      "t": 161590.8659999999,
      "d": 340.9090000000142,
      "v": 100
    },
    {
      "midi": 55,
      "hit": false,
      "t": 162272.68399999992,
      "d": 340.9090000000142,
      "v": 100
    },
    {
      "midi": 57,
      "hit": false,
      "t": 162272.68399999992,
      "d": 340.9090000000142,
      "v": 100
    },
    {
      "midi": 62,
      "hit": false,
      "t": 162272.68399999992,
      "d": 340.9090000000142,
      "v": 100
    },
    {
      "midi": 55,
      "hit": false,
      "t": 162954.50199999995,
      "d": 340.9090000000142,
      "v": 100
    },
    {
      "midi": 57,
      "hit": false,
      "t": 162954.50199999995,
      "d": 340.9090000000142,
      "v": 100
    },
    {
      "midi": 62,
      "hit": false,
      "t": 162954.50199999995,
      "d": 340.9090000000142,
      "v": 100
    },
    {
      "midi": 55,
      "hit": false,
      "t": 163636.31999999998,
      "d": 340.9090000000142,
      "v": 100
    },
    {
      "midi": 57,
      "hit": false,
      "t": 163636.31999999998,
      "d": 340.9090000000142,
      "v": 100
    },
    {
      "midi": 62,
      "hit": false,
      "t": 163636.31999999998,
      "d": 340.9090000000142,
      "v": 100
    },
    {
      "midi": 55,
      "hit": false,
      "t": 164318.138,
      "d": 340.9090000000142,
      "v": 100
    },
    {
      "midi": 57,
      "hit": false,
      "t": 164318.138,
      "d": 340.9090000000142,
      "v": 100
    },
    {
      "midi": 62,
      "hit": false,
      "t": 164318.138,
      "d": 340.9090000000142,
      "v": 100
    },
    {
      "midi": 55,
      "hit": false,
      "t": 164999.95600000003,
      "d": 340.9090000000142,
      "v": 100
    },
    {
      "midi": 57,
      "hit": false,
      "t": 164999.95600000003,
      "d": 340.9090000000142,
      "v": 100
    },
    {
      "midi": 62,
      "hit": false,
      "t": 164999.95600000003,
      "d": 340.9090000000142,
      "v": 100
    },
    {
      "midi": 55,
      "hit": false,
      "t": 165681.77400000006,
      "d": 340.9090000000142,
      "v": 100
    },
    {
      "midi": 57,
      "hit": false,
      "t": 165681.77400000006,
      "d": 340.9090000000142,
      "v": 100
    },
    {
      "midi": 62,
      "hit": false,
      "t": 165681.77400000006,
      "d": 340.9090000000142,
      "v": 100
    },
    {
      "midi": 57,
      "hit": false,
      "t": 166363.5920000001,
      "d": 340.9090000000142,
      "v": 100
    },
    {
      "midi": 61,
      "hit": false,
      "t": 166363.5920000001,
      "d": 340.9090000000142,
      "v": 100
    },
    {
      "midi": 64,
      "hit": false,
      "t": 166363.5920000001,
      "d": 340.9090000000142,
      "v": 100
    },
    {
      "midi": 57,
      "hit": false,
      "t": 167045.41000000012,
      "d": 340.9090000000142,
      "v": 100
    },
    {
      "midi": 61,
      "hit": false,
      "t": 167045.41000000012,
      "d": 340.9090000000142,
      "v": 100
    },
    {
      "midi": 64,
      "hit": false,
      "t": 167045.41000000012,
      "d": 340.9090000000142,
      "v": 100
    },
    {
      "midi": 57,
      "hit": false,
      "t": 167727.22800000015,
      "d": 340.9090000000142,
      "v": 100
    },
    {
      "midi": 61,
      "hit": false,
      "t": 167727.22800000015,
      "d": 340.9090000000142,
      "v": 100
    },
    {
      "midi": 64,
      "hit": false,
      "t": 167727.22800000015,
      "d": 340.9090000000142,
      "v": 100
    },
    {
      "midi": 57,
      "hit": false,
      "t": 168409.04600000018,
      "d": 340.9090000000142,
      "v": 100
    },
    {
      "midi": 61,
      "hit": false,
      "t": 168409.04600000018,
      "d": 340.9090000000142,
      "v": 100
    },
    {
      "midi": 64,
      "hit": false,
      "t": 168409.04600000018,
      "d": 340.9090000000142,
      "v": 100
    },
    {
      "midi": 57,
      "hit": false,
      "t": 169090.8640000002,
      "d": 340.9090000000142,
      "v": 100
    },
    {
      "midi": 62,
      "hit": false,
      "t": 169090.8640000002,
      "d": 340.9090000000142,
      "v": 100
    },
    {
      "midi": 66,
      "hit": false,
      "t": 169090.8640000002,
      "d": 340.9090000000142,
      "v": 100
    },
    {
      "midi": 57,
      "hit": false,
      "t": 169772.68200000023,
      "d": 340.9090000000142,
      "v": 100
    },
    {
      "midi": 62,
      "hit": false,
      "t": 169772.68200000023,
      "d": 340.9090000000142,
      "v": 100
    },
    {
      "midi": 66,
      "hit": false,
      "t": 169772.68200000023,
      "d": 340.9090000000142,
      "v": 100
    },
    {
      "midi": 57,
      "hit": false,
      "t": 170454.50000000026,
      "d": 340.9090000000142,
      "v": 100
    },
    {
      "midi": 62,
      "hit": false,
      "t": 170454.50000000026,
      "d": 340.9090000000142,
      "v": 100
    },
    {
      "midi": 66,
      "hit": false,
      "t": 170454.50000000026,
      "d": 340.9090000000142,
      "v": 100
    },
    {
      "midi": 57,
      "hit": false,
      "t": 171136.3180000003,
      "d": 340.9090000000142,
      "v": 100
    },
    {
      "midi": 62,
      "hit": false,
      "t": 171136.3180000003,
      "d": 340.9090000000142,
      "v": 100
    },
    {
      "midi": 66,
      "hit": false,
      "t": 171136.3180000003,
      "d": 340.9090000000142,
      "v": 100
    },
    {
      "midi": 55,
      "hit": false,
      "t": 171818.13600000032,
      "d": 340.9090000000142,
      "v": 100
    },
    {
      "midi": 57,
      "hit": false,
      "t": 171818.13600000032,
      "d": 340.9090000000142,
      "v": 100
    },
    {
      "midi": 62,
      "hit": false,
      "t": 171818.13600000032,
      "d": 340.9090000000142,
      "v": 100
    },
    {
      "midi": 55,
      "hit": false,
      "t": 172499.95400000035,
      "d": 340.9090000000142,
      "v": 100
    },
    {
      "midi": 57,
      "hit": false,
      "t": 172499.95400000035,
      "d": 340.9090000000142,
      "v": 100
    },
    {
      "midi": 62,
      "hit": false,
      "t": 172499.95400000035,
      "d": 340.9090000000142,
      "v": 100
    },
    {
      "midi": 55,
      "hit": false,
      "t": 173181.77200000038,
      "d": 340.9090000000142,
      "v": 100
    },
    {
      "midi": 57,
      "hit": false,
      "t": 173181.77200000038,
      "d": 340.9090000000142,
      "v": 100
    },
    {
      "midi": 62,
      "hit": false,
      "t": 173181.77200000038,
      "d": 340.9090000000142,
      "v": 100
    },
    {
      "midi": 55,
      "hit": false,
      "t": 173863.5900000004,
      "d": 340.9090000000142,
      "v": 100
    },
    {
      "midi": 57,
      "hit": false,
      "t": 173863.5900000004,
      "d": 340.9090000000142,
      "v": 100
    },
    {
      "midi": 62,
      "hit": false,
      "t": 173863.5900000004,
      "d": 340.9090000000142,
      "v": 100
    },
    {
      "midi": 57,
      "hit": false,
      "t": 174545.40800000043,
      "d": 340.9090000000142,
      "v": 100
    },
    {
      "midi": 61,
      "hit": false,
      "t": 174545.40800000043,
      "d": 340.9090000000142,
      "v": 100
    },
    {
      "midi": 64,
      "hit": false,
      "t": 174545.40800000043,
      "d": 340.9090000000142,
      "v": 100
    },
    {
      "midi": 57,
      "hit": false,
      "t": 175227.22600000046,
      "d": 340.9090000000142,
      "v": 100
    },
    {
      "midi": 61,
      "hit": false,
      "t": 175227.22600000046,
      "d": 340.9090000000142,
      "v": 100
    },
    {
      "midi": 64,
      "hit": false,
      "t": 175227.22600000046,
      "d": 340.9090000000142,
      "v": 100
    },
    {
      "midi": 57,
      "hit": false,
      "t": 175909.0440000005,
      "d": 340.9090000000142,
      "v": 100
    },
    {
      "midi": 61,
      "hit": false,
      "t": 175909.0440000005,
      "d": 340.9090000000142,
      "v": 100
    },
    {
      "midi": 64,
      "hit": false,
      "t": 175909.0440000005,
      "d": 340.9090000000142,
      "v": 100
    },
    {
      "midi": 57,
      "hit": false,
      "t": 176590.86200000052,
      "d": 340.9090000000142,
      "v": 100
    },
    {
      "midi": 61,
      "hit": false,
      "t": 176590.86200000052,
      "d": 340.9090000000142,
      "v": 100
    },
    {
      "midi": 64,
      "hit": false,
      "t": 176590.86200000052,
      "d": 340.9090000000142,
      "v": 100
    },
    {
      "midi": 57,
      "hit": false,
      "t": 177272.68000000055,
      "d": 340.9090000000142,
      "v": 100
    },
    {
      "midi": 61,
      "hit": false,
      "t": 177272.68000000055,
      "d": 340.9090000000142,
      "v": 100
    },
    {
      "midi": 64,
      "hit": false,
      "t": 177272.68000000055,
      "d": 340.9090000000142,
      "v": 100
    },
    {
      "midi": 57,
      "hit": false,
      "t": 177954.49800000057,
      "d": 340.9090000000142,
      "v": 100
    },
    {
      "midi": 61,
      "hit": false,
      "t": 177954.49800000057,
      "d": 340.9090000000142,
      "v": 100
    },
    {
      "midi": 64,
      "hit": false,
      "t": 177954.49800000057,
      "d": 340.9090000000142,
      "v": 100
    },
    {
      "midi": 57,
      "hit": false,
      "t": 178636.3160000006,
      "d": 340.9090000000142,
      "v": 100
    },
    {
      "midi": 61,
      "hit": false,
      "t": 178636.3160000006,
      "d": 340.9090000000142,
      "v": 100
    },
    {
      "midi": 64,
      "hit": false,
      "t": 178636.3160000006,
      "d": 340.9090000000142,
      "v": 100
    },
    {
      "midi": 57,
      "hit": false,
      "t": 179318.13400000063,
      "d": 340.9090000000142,
      "v": 100
    },
    {
      "midi": 61,
      "hit": false,
      "t": 179318.13400000063,
      "d": 340.9090000000142,
      "v": 100
    },
    {
      "midi": 64,
      "hit": false,
      "t": 179318.13400000063,
      "d": 340.9090000000142,
      "v": 100
    },
    {
      "midi": 57,
      "hit": false,
      "t": 179999.95200000066,
      "d": 340.9090000000142,
      "v": 100
    },
    {
      "midi": 59,
      "hit": false,
      "t": 179999.95200000066,
      "d": 340.9090000000142,
      "v": 100
    },
    {
      "midi": 63,
      "hit": false,
      "t": 179999.95200000066,
      "d": 340.9090000000142,
      "v": 100
    },
    {
      "midi": 57,
      "hit": false,
      "t": 180681.7700000007,
      "d": 340.9090000000142,
      "v": 100
    },
    {
      "midi": 59,
      "hit": false,
      "t": 180681.7700000007,
      "d": 340.9090000000142,
      "v": 100
    },
    {
      "midi": 63,
      "hit": false,
      "t": 180681.7700000007,
      "d": 340.9090000000142,
      "v": 100
    },
    {
      "midi": 57,
      "hit": false,
      "t": 181363.58800000072,
      "d": 340.9090000000142,
      "v": 100
    },
    {
      "midi": 59,
      "hit": false,
      "t": 181363.58800000072,
      "d": 340.9090000000142,
      "v": 100
    },
    {
      "midi": 63,
      "hit": false,
      "t": 181363.58800000072,
      "d": 340.9090000000142,
      "v": 100
    },
    {
      "midi": 57,
      "hit": false,
      "t": 182045.40600000074,
      "d": 340.9090000000142,
      "v": 100
    },
    {
      "midi": 59,
      "hit": false,
      "t": 182045.40600000074,
      "d": 340.9090000000142,
      "v": 100
    },
    {
      "midi": 63,
      "hit": false,
      "t": 182045.40600000074,
      "d": 340.9090000000142,
      "v": 100
    },
    {
      "midi": 55,
      "hit": false,
      "t": 182727.22400000077,
      "d": 340.9090000000142,
      "v": 100
    },
    {
      "midi": 59,
      "hit": false,
      "t": 182727.22400000077,
      "d": 340.9090000000142,
      "v": 100
    },
    {
      "midi": 62,
      "hit": false,
      "t": 182727.22400000077,
      "d": 340.9090000000142,
      "v": 100
    },
    {
      "midi": 55,
      "hit": false,
      "t": 183409.0420000008,
      "d": 340.9090000000142,
      "v": 100
    },
    {
      "midi": 59,
      "hit": false,
      "t": 183409.0420000008,
      "d": 340.9090000000142,
      "v": 100
    },
    {
      "midi": 62,
      "hit": false,
      "t": 183409.0420000008,
      "d": 340.9090000000142,
      "v": 100
    },
    {
      "midi": 55,
      "hit": false,
      "t": 184090.86000000083,
      "d": 340.9090000000142,
      "v": 100
    },
    {
      "midi": 59,
      "hit": false,
      "t": 184090.86000000083,
      "d": 340.9090000000142,
      "v": 100
    },
    {
      "midi": 62,
      "hit": false,
      "t": 184090.86000000083,
      "d": 340.9090000000142,
      "v": 100
    },
    {
      "midi": 55,
      "hit": false,
      "t": 184772.67800000086,
      "d": 340.9090000000142,
      "v": 100
    },
    {
      "midi": 59,
      "hit": false,
      "t": 184772.67800000086,
      "d": 340.9090000000142,
      "v": 100
    },
    {
      "midi": 62,
      "hit": false,
      "t": 184772.67800000086,
      "d": 340.9090000000142,
      "v": 100
    },
    {
      "midi": 57,
      "hit": false,
      "t": 185454.4960000009,
      "d": 340.9090000000142,
      "v": 100
    },
    {
      "midi": 61,
      "hit": false,
      "t": 185454.4960000009,
      "d": 340.9090000000142,
      "v": 100
    },
    {
      "midi": 64,
      "hit": false,
      "t": 185454.4960000009,
      "d": 340.9090000000142,
      "v": 100
    },
    {
      "midi": 57,
      "hit": false,
      "t": 186136.31400000092,
      "d": 340.9090000000142,
      "v": 100
    },
    {
      "midi": 61,
      "hit": false,
      "t": 186136.31400000092,
      "d": 340.9090000000142,
      "v": 100
    },
    {
      "midi": 64,
      "hit": false,
      "t": 186136.31400000092,
      "d": 340.9090000000142,
      "v": 100
    },
    {
      "midi": 57,
      "hit": false,
      "t": 186818.13200000094,
      "d": 340.9090000000142,
      "v": 100
    },
    {
      "midi": 61,
      "hit": false,
      "t": 186818.13200000094,
      "d": 340.9090000000142,
      "v": 100
    },
    {
      "midi": 64,
      "hit": false,
      "t": 186818.13200000094,
      "d": 340.9090000000142,
      "v": 100
    },
    {
      "midi": 57,
      "hit": false,
      "t": 187499.95000000097,
      "d": 340.9090000000142,
      "v": 100
    },
    {
      "midi": 61,
      "hit": false,
      "t": 187499.95000000097,
      "d": 340.9090000000142,
      "v": 100
    },
    {
      "midi": 64,
      "hit": false,
      "t": 187499.95000000097,
      "d": 340.9090000000142,
      "v": 100
    },
    {
      "midi": 59,
      "hit": false,
      "t": 188181.768000001,
      "d": 340.9090000000142,
      "v": 100
    },
    {
      "midi": 62,
      "hit": false,
      "t": 188181.768000001,
      "d": 340.9090000000142,
      "v": 100
    },
    {
      "midi": 66,
      "hit": false,
      "t": 188181.768000001,
      "d": 340.9090000000142,
      "v": 100
    },
    {
      "midi": 59,
      "hit": false,
      "t": 188863.58600000103,
      "d": 340.9090000000142,
      "v": 100
    },
    {
      "midi": 62,
      "hit": false,
      "t": 188863.58600000103,
      "d": 340.9090000000142,
      "v": 100
    },
    {
      "midi": 66,
      "hit": false,
      "t": 188863.58600000103,
      "d": 340.9090000000142,
      "v": 100
    },
    {
      "midi": 59,
      "hit": false,
      "t": 189545.40400000106,
      "d": 340.9090000000142,
      "v": 100
    },
    {
      "midi": 62,
      "hit": false,
      "t": 189545.40400000106,
      "d": 340.9090000000142,
      "v": 100
    },
    {
      "midi": 66,
      "hit": false,
      "t": 189545.40400000106,
      "d": 340.9090000000142,
      "v": 100
    },
    {
      "midi": 59,
      "hit": false,
      "t": 190227.2220000011,
      "d": 340.9090000000142,
      "v": 100
    },
    {
      "midi": 62,
      "hit": false,
      "t": 190227.2220000011,
      "d": 340.9090000000142,
      "v": 100
    },
    {
      "midi": 66,
      "hit": false,
      "t": 190227.2220000011,
      "d": 340.9090000000142,
      "v": 100
    },
    {
      "midi": 55,
      "hit": false,
      "t": 190909.0400000011,
      "d": 340.9090000000142,
      "v": 100
    },
    {
      "midi": 60,
      "hit": false,
      "t": 190909.0400000011,
      "d": 340.9090000000142,
      "v": 100
    },
    {
      "midi": 64,
      "hit": false,
      "t": 190909.0400000011,
      "d": 340.9090000000142,
      "v": 100
    },
    {
      "midi": 55,
      "hit": false,
      "t": 191590.85800000114,
      "d": 340.9090000000142,
      "v": 100
    },
    {
      "midi": 60,
      "hit": false,
      "t": 191590.85800000114,
      "d": 340.9090000000142,
      "v": 100
    },
    {
      "midi": 64,
      "hit": false,
      "t": 191590.85800000114,
      "d": 340.9090000000142,
      "v": 100
    },
    {
      "midi": 55,
      "hit": false,
      "t": 192272.67600000117,
      "d": 340.9090000000142,
      "v": 100
    },
    {
      "midi": 60,
      "hit": false,
      "t": 192272.67600000117,
      "d": 340.9090000000142,
      "v": 100
    },
    {
      "midi": 64,
      "hit": false,
      "t": 192272.67600000117,
      "d": 340.9090000000142,
      "v": 100
    },
    {
      "midi": 55,
      "hit": false,
      "t": 192954.4940000012,
      "d": 340.9090000000142,
      "v": 100
    },
    {
      "midi": 60,
      "hit": false,
      "t": 192954.4940000012,
      "d": 340.9090000000142,
      "v": 100
    },
    {
      "midi": 64,
      "hit": false,
      "t": 192954.4940000012,
      "d": 340.9090000000142,
      "v": 100
    },
    {
      "midi": 59,
      "hit": false,
      "t": 193636.31200000123,
      "d": 340.9090000000142,
      "v": 100
    },
    {
      "midi": 62,
      "hit": false,
      "t": 193636.31200000123,
      "d": 340.9090000000142,
      "v": 100
    },
    {
      "midi": 66,
      "hit": false,
      "t": 193636.31200000123,
      "d": 340.9090000000142,
      "v": 100
    },
    {
      "midi": 59,
      "hit": false,
      "t": 194318.13000000126,
      "d": 340.9090000000142,
      "v": 100
    },
    {
      "midi": 62,
      "hit": false,
      "t": 194318.13000000126,
      "d": 340.9090000000142,
      "v": 100
    },
    {
      "midi": 66,
      "hit": false,
      "t": 194318.13000000126,
      "d": 340.9090000000142,
      "v": 100
    },
    {
      "midi": 59,
      "hit": false,
      "t": 194999.94800000128,
      "d": 340.9090000000142,
      "v": 100
    },
    {
      "midi": 62,
      "hit": false,
      "t": 194999.94800000128,
      "d": 340.9090000000142,
      "v": 100
    },
    {
      "midi": 66,
      "hit": false,
      "t": 194999.94800000128,
      "d": 340.9090000000142,
      "v": 100
    },
    {
      "midi": 59,
      "hit": false,
      "t": 195681.7660000013,
      "d": 340.9090000000142,
      "v": 100
    },
    {
      "midi": 62,
      "hit": false,
      "t": 195681.7660000013,
      "d": 340.9090000000142,
      "v": 100
    },
    {
      "midi": 66,
      "hit": false,
      "t": 195681.7660000013,
      "d": 340.9090000000142,
      "v": 100
    },
    {
      "midi": 57,
      "hit": false,
      "t": 196363.58400000134,
      "d": 340.9090000000142,
      "v": 100
    },
    {
      "midi": 62,
      "hit": false,
      "t": 196363.58400000134,
      "d": 340.9090000000142,
      "v": 100
    },
    {
      "midi": 66,
      "hit": false,
      "t": 196363.58400000134,
      "d": 340.9090000000142,
      "v": 100
    },
    {
      "midi": 57,
      "hit": false,
      "t": 197045.40200000137,
      "d": 340.9090000000142,
      "v": 100
    },
    {
      "midi": 62,
      "hit": false,
      "t": 197045.40200000137,
      "d": 340.9090000000142,
      "v": 100
    },
    {
      "midi": 66,
      "hit": false,
      "t": 197045.40200000137,
      "d": 340.9090000000142,
      "v": 100
    },
    {
      "midi": 57,
      "hit": false,
      "t": 197727.2200000014,
      "d": 340.9090000000142,
      "v": 100
    },
    {
      "midi": 62,
      "hit": false,
      "t": 197727.2200000014,
      "d": 340.9090000000142,
      "v": 100
    },
    {
      "midi": 66,
      "hit": false,
      "t": 197727.2200000014,
      "d": 340.9090000000142,
      "v": 100
    },
    {
      "midi": 57,
      "hit": false,
      "t": 198409.03800000143,
      "d": 340.9090000000142,
      "v": 100
    },
    {
      "midi": 62,
      "hit": false,
      "t": 198409.03800000143,
      "d": 340.9090000000142,
      "v": 100
    },
    {
      "midi": 66,
      "hit": false,
      "t": 198409.03800000143,
      "d": 340.9090000000142,
      "v": 100
    },
    {
      "midi": 55,
      "hit": false,
      "t": 199090.85600000145,
      "d": 340.9090000000142,
      "v": 100
    },
    {
      "midi": 62,
      "hit": false,
      "t": 199090.85600000145,
      "d": 340.9090000000142,
      "v": 100
    },
    {
      "midi": 66,
      "hit": false,
      "t": 199090.85600000145,
      "d": 340.9090000000142,
      "v": 100
    },
    {
      "midi": 55,
      "hit": false,
      "t": 199772.67400000148,
      "d": 340.9090000000142,
      "v": 100
    },
    {
      "midi": 62,
      "hit": false,
      "t": 199772.67400000148,
      "d": 340.9090000000142,
      "v": 100
    },
    {
      "midi": 66,
      "hit": false,
      "t": 199772.67400000148,
      "d": 340.9090000000142,
      "v": 100
    },
    {
      "midi": 55,
      "hit": false,
      "t": 200454.4920000015,
      "d": 340.9090000000142,
      "v": 100
    },
    {
      "midi": 62,
      "hit": false,
      "t": 200454.4920000015,
      "d": 340.9090000000142,
      "v": 100
    },
    {
      "midi": 66,
      "hit": false,
      "t": 200454.4920000015,
      "d": 340.9090000000142,
      "v": 100
    },
    {
      "midi": 55,
      "hit": false,
      "t": 201136.31000000154,
      "d": 340.9090000000142,
      "v": 100
    },
    {
      "midi": 62,
      "hit": false,
      "t": 201136.31000000154,
      "d": 340.9090000000142,
      "v": 100
    },
    {
      "midi": 66,
      "hit": false,
      "t": 201136.31000000154,
      "d": 340.9090000000142,
      "v": 100
    },
    {
      "midi": 57,
      "hit": false,
      "t": 201818.12800000157,
      "d": 340.9090000000142,
      "v": 100
    },
    {
      "midi": 61,
      "hit": false,
      "t": 201818.12800000157,
      "d": 340.9090000000142,
      "v": 100
    },
    {
      "midi": 64,
      "hit": false,
      "t": 201818.12800000157,
      "d": 340.9090000000142,
      "v": 100
    },
    {
      "midi": 57,
      "hit": false,
      "t": 202499.9460000016,
      "d": 340.9090000000142,
      "v": 100
    },
    {
      "midi": 61,
      "hit": false,
      "t": 202499.9460000016,
      "d": 340.9090000000142,
      "v": 100
    },
    {
      "midi": 64,
      "hit": false,
      "t": 202499.9460000016,
      "d": 340.9090000000142,
      "v": 100
    },
    {
      "midi": 57,
      "hit": false,
      "t": 203181.76400000163,
      "d": 340.9090000000142,
      "v": 100
    },
    {
      "midi": 61,
      "hit": false,
      "t": 203181.76400000163,
      "d": 340.9090000000142,
      "v": 100
    },
    {
      "midi": 64,
      "hit": false,
      "t": 203181.76400000163,
      "d": 340.9090000000142,
      "v": 100
    },
    {
      "midi": 57,
      "hit": false,
      "t": 203863.58200000165,
      "d": 340.9090000000142,
      "v": 100
    },
    {
      "midi": 61,
      "hit": false,
      "t": 203863.58200000165,
      "d": 340.9090000000142,
      "v": 100
    },
    {
      "midi": 64,
      "hit": false,
      "t": 203863.58200000165,
      "d": 340.9090000000142,
      "v": 100
    },
    {
      "midi": 57,
      "hit": false,
      "t": 204545.40000000002,
      "d": 2727.271999999997,
      "v": 80
    },
    {
      "midi": 62,
      "hit": false,
      "t": 204545.40000000002,
      "d": 2727.271999999997,
      "v": 80
    },
    {
      "midi": 66,
      "hit": false,
      "t": 204545.40000000002,
      "d": 2727.271999999997,
      "v": 80
    },
    {
      "midi": 76,
      "hit": false,
      "t": 205227.21800000168,
      "d": 340.9090000000142,
      "v": 100
    },
    {
      "midi": 73,
      "hit": false,
      "t": 205568.1270000017,
      "d": 340.9090000000142,
      "v": 100
    },
    {
      "midi": 57,
      "hit": false,
      "t": 207272.67200000002,
      "d": 2727.271999999997,
      "v": 80
    },
    {
      "midi": 60,
      "hit": false,
      "t": 207272.67200000002,
      "d": 2727.271999999997,
      "v": 80
    },
    {
      "midi": 64,
      "hit": false,
      "t": 207272.67200000002,
      "d": 2727.271999999997,
      "v": 80
    },
    {
      "midi": 66,
      "hit": false,
      "t": 207272.67200000002,
      "d": 2727.271999999997,
      "v": 80
    },
    {
      "midi": 69,
      "hit": false,
      "t": 207613.58100000172,
      "d": 340.9090000000142,
      "v": 100
    },
    {
      "midi": 76,
      "hit": false,
      "t": 207954.49000000174,
      "d": 340.9090000000142,
      "v": 100
    },
    {
      "midi": 72,
      "hit": false,
      "t": 208295.39900000175,
      "d": 340.9090000000142,
      "v": 100
    },
    {
      "midi": 57,
      "hit": false,
      "t": 209999.94400000002,
      "d": 2727.271999999997,
      "v": 80
    },
    {
      "midi": 62,
      "hit": false,
      "t": 209999.94400000002,
      "d": 2727.271999999997,
      "v": 80
    },
    {
      "midi": 67,
      "hit": false,
      "t": 209999.94400000002,
      "d": 2727.271999999997,
      "v": 80
    },
    {
      "midi": 74,
      "hit": false,
      "t": 210681.76200000176,
      "d": 340.9090000000142,
      "v": 100
    },
    {
      "midi": 71,
      "hit": false,
      "t": 211022.67100000178,
      "d": 340.9090000000142,
      "v": 100
    },
    {
      "midi": 58,
      "hit": false,
      "t": 212727.21600000001,
      "d": 2727.271999999997,
      "v": 80
    },
    {
      "midi": 62,
      "hit": false,
      "t": 212727.21600000001,
      "d": 2727.271999999997,
      "v": 80
    },
    {
      "midi": 64,
      "hit": false,
      "t": 212727.21600000001,
      "d": 2727.271999999997,
      "v": 80
    },
    {
      "midi": 67,
      "hit": false,
      "t": 212727.21600000001,
      "d": 2727.271999999997,
      "v": 80
    },
    {
      "midi": 70,
      "hit": false,
      "t": 213068.1250000018,
      "d": 340.9090000000142,
      "v": 100
    },
    {
      "midi": 74,
      "hit": false,
      "t": 213409.03400000182,
      "d": 340.9090000000142,
      "v": 100
    },
    {
      "midi": 70,
      "hit": false,
      "t": 213749.94300000183,
      "d": 340.9090000000142,
      "v": 100
    },
    {
      "midi": 57,
      "hit": false,
      "t": 215454.488,
      "d": 2727.2720000000845,
      "v": 80
    },
    {
      "midi": 61,
      "hit": false,
      "t": 215454.488,
      "d": 2727.2720000000845,
      "v": 80
    },
    {
      "midi": 64,
      "hit": false,
      "t": 215454.488,
      "d": 2727.2720000000845,
      "v": 80
    },
    {
      "midi": 66,
      "hit": false,
      "t": 215454.488,
      "d": 2727.2720000000845,
      "v": 80
    },
    {
      "midi": 69,
      "hit": false,
      "t": 216477.21500000003,
      "d": 340.9090000000142,
      "v": 70
    },
    {
      "midi": 76,
      "hit": false,
      "t": 216818.12400000004,
      "d": 340.9090000000142,
      "v": 70
    },
    {
      "midi": 74,
      "hit": false,
      "t": 217159.03300000005,
      "d": 340.9090000000142,
      "v": 70
    },
    {
      "midi": 73,
      "hit": false,
      "t": 217499.94200000007,
      "d": 340.9090000000142,
      "v": 70
    },
    {
      "midi": 76,
      "hit": false,
      "t": 217840.85100000008,
      "d": 340.9090000000142,
      "v": 70
    },
    {
      "midi": 74,
      "hit": false,
      "t": 218181.7600000001,
      "d": 340.9090000000142,
      "v": 70
    },
    {
      "midi": 59,
      "hit": false,
      "t": 218181.7600000001,
      "d": 2727.2720000001136,
      "v": 80
    },
    {
      "midi": 62,
      "hit": false,
      "t": 218181.7600000001,
      "d": 2727.2720000001136,
      "v": 80
    },
    {
      "midi": 66,
      "hit": false,
      "t": 218181.7600000001,
      "d": 2727.2720000001136,
      "v": 80
    },
    {
      "midi": 73,
      "hit": false,
      "t": 218522.6690000001,
      "d": 340.9090000000142,
      "v": 70
    },
    {
      "midi": 74,
      "hit": false,
      "t": 218863.57800000013,
      "d": 340.9090000000142,
      "v": 70
    },
    {
      "midi": 78,
      "hit": false,
      "t": 219204.48700000014,
      "d": 340.9090000000142,
      "v": 70
    },
    {
      "midi": 71,
      "hit": false,
      "t": 219886.30500000017,
      "d": 340.9090000000142,
      "v": 70
    },
    {
      "midi": 76,
      "hit": false,
      "t": 220227.21400000018,
      "d": 340.9090000000142,
      "v": 70
    },
    {
      "midi": 78,
      "hit": false,
      "t": 220568.1230000002,
      "d": 340.9090000000142,
      "v": 70
    },
    {
      "midi": 79,
      "hit": false,
      "t": 220909.0320000002,
      "d": 340.9090000000142,
      "v": 70
    },
    {
      "midi": 59,
      "hit": false,
      "t": 220909.0320000002,
      "d": 2727.2720000001136,
      "v": 80
    },
    {
      "midi": 64,
      "hit": false,
      "t": 220909.0320000002,
      "d": 2727.2720000001136,
      "v": 80
    },
    {
      "midi": 67,
      "hit": false,
      "t": 220909.0320000002,
      "d": 2727.2720000001136,
      "v": 80
    },
    {
      "midi": 59,
      "hit": false,
      "t": 220909.03200000184,
      "d": 681.8179999999993,
      "v": 80
    },
    {
      "midi": 64,
      "hit": false,
      "t": 220909.03200000184,
      "d": 681.8179999999993,
      "v": 80
    },
    {
      "midi": 67,
      "hit": false,
      "t": 220909.03200000184,
      "d": 681.8179999999993,
      "v": 80
    },
    {
      "midi": 78,
      "hit": false,
      "t": 221590.85000000024,
      "d": 340.9090000000142,
      "v": 70
    },
    {
      "midi": 59,
      "hit": false,
      "t": 221590.85000000184,
      "d": 681.8179999999993,
      "v": 80
    },
    {
      "midi": 62,
      "hit": false,
      "t": 221590.85000000184,
      "d": 681.8179999999993,
      "v": 80
    },
    {
      "midi": 66,
      "hit": false,
      "t": 221590.85000000184,
      "d": 681.8179999999993,
      "v": 80
    },
    {
      "midi": 76,
      "hit": false,
      "t": 222272.66800000027,
      "d": 340.9090000000142,
      "v": 70
    },
    {
      "midi": 55,
      "hit": false,
      "t": 222272.66800000184,
      "d": 681.8179999999993,
      "v": 80
    },
    {
      "midi": 59,
      "hit": false,
      "t": 222272.66800000184,
      "d": 681.8179999999993,
      "v": 80
    },
    {
      "midi": 64,
      "hit": false,
      "t": 222272.66800000184,
      "d": 681.8179999999993,
      "v": 80
    },
    {
      "midi": 74,
      "hit": false,
      "t": 222954.4860000003,
      "d": 340.9090000000142,
      "v": 70
    },
    {
      "midi": 55,
      "hit": false,
      "t": 222954.48600000184,
      "d": 681.8179999999993,
      "v": 80
    },
    {
      "midi": 59,
      "hit": false,
      "t": 222954.48600000184,
      "d": 681.8179999999993,
      "v": 80
    },
    {
      "midi": 62,
      "hit": false,
      "t": 222954.48600000184,
      "d": 681.8179999999993,
      "v": 80
    },
    {
      "midi": 52,
      "hit": false,
      "t": 223636.30400000032,
      "d": 1363.6359999999986,
      "v": 80
    },
    {
      "midi": 57,
      "hit": false,
      "t": 223636.30400000032,
      "d": 1363.6359999999986,
      "v": 80
    },
    {
      "midi": 61,
      "hit": false,
      "t": 223636.30400000032,
      "d": 1363.6359999999986,
      "v": 80
    },
    {
      "midi": 69,
      "hit": false,
      "t": 223636.30400000032,
      "d": 1363.6359999999986,
      "v": 70
    },
    {
      "midi": 52,
      "hit": false,
      "t": 223636.30400000184,
      "d": 1363.6359999999986,
      "v": 100
    },
    {
      "midi": 61,
      "hit": false,
      "t": 223636.30400000184,
      "d": 1363.6359999999986,
      "v": 100
    },
    {
      "midi": 57,
      "hit": false,
      "t": 224999.94000000032,
      "d": 1363.6359999999986,
      "v": 80
    },
    {
      "midi": 61,
      "hit": false,
      "t": 224999.94000000032,
      "d": 1363.6359999999986,
      "v": 80
    },
    {
      "midi": 64,
      "hit": false,
      "t": 224999.94000000032,
      "d": 1363.6359999999986,
      "v": 80
    },
    {
      "midi": 61,
      "hit": false,
      "t": 224999.94000000184,
      "d": 1363.6359999999986,
      "v": 100
    },
    {
      "midi": 64,
      "hit": false,
      "t": 224999.94000000184,
      "d": 1363.6359999999986,
      "v": 100
    },
    {
      "midi": 57,
      "hit": false,
      "t": 226363.57600000032,
      "d": 2727.271999999997,
      "v": 80
    },
    {
      "midi": 62,
      "hit": false,
      "t": 226363.57600000032,
      "d": 2727.271999999997,
      "v": 80
    },
    {
      "midi": 66,
      "hit": false,
      "t": 226363.57600000032,
      "d": 2727.271999999997,
      "v": 80
    },
    {
      "midi": 76,
      "hit": false,
      "t": 227045.39400000183,
      "d": 340.9090000000142,
      "v": 100
    },
    {
      "midi": 73,
      "hit": false,
      "t": 227386.30300000185,
      "d": 340.9090000000142,
      "v": 100
    },
    {
      "midi": 57,
      "hit": false,
      "t": 229090.84800000032,
      "d": 2727.271999999997,
      "v": 80
    },
    {
      "midi": 60,
      "hit": false,
      "t": 229090.84800000032,
      "d": 2727.271999999997,
      "v": 80
    },
    {
      "midi": 64,
      "hit": false,
      "t": 229090.84800000032,
      "d": 2727.271999999997,
      "v": 80
    },
    {
      "midi": 66,
      "hit": false,
      "t": 229090.84800000032,
      "d": 2727.271999999997,
      "v": 80
    },
    {
      "midi": 69,
      "hit": false,
      "t": 229431.75700000187,
      "d": 340.9090000000142,
      "v": 100
    },
    {
      "midi": 76,
      "hit": false,
      "t": 229772.6660000019,
      "d": 340.9090000000142,
      "v": 100
    },
    {
      "midi": 72,
      "hit": false,
      "t": 230113.5750000019,
      "d": 340.9090000000142,
      "v": 100
    },
    {
      "midi": 57,
      "hit": false,
      "t": 231818.12000000032,
      "d": 2727.271999999997,
      "v": 80
    },
    {
      "midi": 62,
      "hit": false,
      "t": 231818.12000000032,
      "d": 2727.271999999997,
      "v": 80
    },
    {
      "midi": 67,
      "hit": false,
      "t": 231818.12000000032,
      "d": 2727.271999999997,
      "v": 80
    },
    {
      "midi": 74,
      "hit": false,
      "t": 232499.93800000192,
      "d": 340.9090000000142,
      "v": 100
    },
    {
      "midi": 71,
      "hit": false,
      "t": 232840.84700000193,
      "d": 340.9090000000142,
      "v": 100
    },
    {
      "midi": 58,
      "hit": false,
      "t": 234545.3920000003,
      "d": 2727.271999999997,
      "v": 80
    },
    {
      "midi": 62,
      "hit": false,
      "t": 234545.3920000003,
      "d": 2727.271999999997,
      "v": 80
    },
    {
      "midi": 64,
      "hit": false,
      "t": 234545.3920000003,
      "d": 2727.271999999997,
      "v": 80
    },
    {
      "midi": 67,
      "hit": false,
      "t": 234545.3920000003,
      "d": 2727.271999999997,
      "v": 80
    },
    {
      "midi": 70,
      "hit": false,
      "t": 234886.30100000196,
      "d": 340.9090000000142,
      "v": 100
    },
    {
      "midi": 74,
      "hit": false,
      "t": 235227.21000000197,
      "d": 340.9090000000142,
      "v": 100
    },
    {
      "midi": 70,
      "hit": false,
      "t": 235568.11900000199,
      "d": 340.9090000000142,
      "v": 100
    },
    {
      "midi": 57,
      "hit": false,
      "t": 237272.6640000003,
      "d": 1022.7270000000135,
      "v": 80
    },
    {
      "midi": 62,
      "hit": false,
      "t": 237272.6640000003,
      "d": 1022.7270000000135,
      "v": 80
    },
    {
      "midi": 66,
      "hit": false,
      "t": 237272.6640000003,
      "d": 1022.7270000000135,
      "v": 80
    },
    {
      "midi": 66,
      "hit": false,
      "t": 237272.664000002,
      "d": 340.9090000000142,
      "v": 100
    },
    {
      "midi": 64,
      "hit": false,
      "t": 237613.573000002,
      "d": 340.9090000000142,
      "v": 100
    },
    {
      "midi": 66,
      "hit": false,
      "t": 237954.48200000203,
      "d": 340.9090000000142,
      "v": 100
    },
    {
      "midi": 54,
      "hit": false,
      "t": 238295.39100000032,
      "d": 1704.5450000000128,
      "v": 80
    },
    {
      "midi": 57,
      "hit": false,
      "t": 238295.39100000032,
      "d": 1704.5450000000128,
      "v": 80
    },
    {
      "midi": 62,
      "hit": false,
      "t": 238295.39100000032,
      "d": 1704.5450000000128,
      "v": 80
    },
    {
      "midi": 62,
      "hit": false,
      "t": 238295.39100000204,
      "d": 681.8179999999993,
      "v": 100
    },
    {
      "midi": 62,
      "hit": false,
      "t": 238977.20900000204,
      "d": 340.9090000000142,
      "v": 100
    },
    {
      "midi": 66,
      "hit": false,
      "t": 239318.11800000205,
      "d": 340.9090000000142,
      "v": 100
    },
    {
      "midi": 62,
      "hit": false,
      "t": 239659.02700000207,
      "d": 340.9090000000142,
      "v": 100
    },
    {
      "midi": 52,
      "hit": false,
      "t": 239999.93600000034,
      "d": 1022.7270000000135,
      "v": 80
    },
    {
      "midi": 55,
      "hit": false,
      "t": 239999.93600000034,
      "d": 1022.7270000000135,
      "v": 80
    },
    {
      "midi": 59,
      "hit": false,
      "t": 239999.93600000034,
      "d": 1022.7270000000135,
      "v": 80
    },
    {
      "midi": 59,
      "hit": false,
      "t": 239999.93600000208,
      "d": 2727.271999999997,
      "v": 100
    },
    {
      "midi": 55,
      "hit": false,
      "t": 241022.66300000035,
      "d": 1704.5450000000128,
      "v": 80
    },
    {
      "midi": 59,
      "hit": false,
      "t": 241022.66300000035,
      "d": 1704.5450000000128,
      "v": 80
    },
    {
      "midi": 62,
      "hit": false,
      "t": 241022.66300000035,
      "d": 1704.5450000000128,
      "v": 80
    },
    {
      "midi": 57,
      "hit": false,
      "t": 242727.20800000036,
      "d": 1363.6360000000277,
      "v": 80
    },
    {
      "midi": 61,
      "hit": false,
      "t": 242727.20800000036,
      "d": 1363.6360000000277,
      "v": 80
    },
    {
      "midi": 64,
      "hit": false,
      "t": 242727.20800000036,
      "d": 1363.6360000000277,
      "v": 80
    },
    {
      "midi": 61,
      "hit": false,
      "t": 242727.20800000208,
      "d": 2727.271999999997,
      "v": 100
    },
    {
      "midi": 69,
      "hit": false,
      "t": 242732.88981666704,
      "d": 1363.6360000000277,
      "v": 50
    },
    {
      "midi": 73,
      "hit": false,
      "t": 242806.7534333337,
      "d": 1363.6360000000277,
      "v": 60
    },
    {
      "midi": 76,
      "hit": false,
      "t": 242886.29886666706,
      "d": 1278.4087500000023,
      "v": 70
    },
    {
      "midi": 81,
      "hit": false,
      "t": 244090.8440000004,
      "d": 1363.6360000000277,
      "v": 60
    },
    {
      "midi": 85,
      "hit": false,
      "t": 244170.38943333374,
      "d": 1363.6360000000277,
      "v": 50
    },
    {
      "midi": 88,
      "hit": false,
      "t": 244249.93486666708,
      "d": 1278.4087500000023,
      "v": 40
    },
    {
      "midi": 93,
      "hit": false,
      "t": 250909.02400000044,
      "d": 340.9090000000142,
      "v": 80
    },
    {
      "midi": 57,
      "hit": false,
      "t": 250909.02400000207,
      "d": 2727.271999999997,
      "v": 100
    },
    {
      "midi": 60,
      "hit": false,
      "t": 250909.02400000207,
      "d": 2727.271999999997,
      "v": 100
    },
    {
      "midi": 65,
      "hit": false,
      "t": 250909.02400000207,
      "d": 2727.271999999997,
      "v": 100
    },
    {
      "midi": 88,
      "hit": false,
      "t": 251249.93300000046,
      "d": 340.9090000000142,
      "v": 80
    },
    {
      "midi": 91,
      "hit": false,
      "t": 251590.84200000047,
      "d": 340.9090000000142,
      "v": 80
    },
    {
      "midi": 86,
      "hit": false,
      "t": 251931.75100000048,
      "d": 340.9090000000142,
      "v": 80
    },
    {
      "midi": 89,
      "hit": false,
      "t": 252272.6600000005,
      "d": 340.9090000000142,
      "v": 80
    },
    {
      "midi": 84,
      "hit": false,
      "t": 252613.5690000005,
      "d": 340.9090000000142,
      "v": 80
    },
    {
      "midi": 86,
      "hit": false,
      "t": 252954.47800000053,
      "d": 340.9090000000142,
      "v": 80
    },
    {
      "midi": 81,
      "hit": false,
      "t": 253295.38700000054,
      "d": 340.9090000000142,
      "v": 80
    },
    {
      "midi": 84,
      "hit": false,
      "t": 253636.29600000056,
      "d": 340.9090000000142,
      "v": 80
    },
    {
      "midi": 57,
      "hit": false,
      "t": 253636.29600000207,
      "d": 2727.271999999997,
      "v": 100
    },
    {
      "midi": 60,
      "hit": false,
      "t": 253636.29600000207,
      "d": 2727.271999999997,
      "v": 100
    },
    {
      "midi": 65,
      "hit": false,
      "t": 253636.29600000207,
      "d": 2727.271999999997,
      "v": 100
    },
    {
      "midi": 79,
      "hit": false,
      "t": 253977.20500000057,
      "d": 340.9090000000142,
      "v": 80
    },
    {
      "midi": 81,
      "hit": false,
      "t": 254318.11400000058,
      "d": 340.9090000000142,
      "v": 80
    },
    {
      "midi": 77,
      "hit": false,
      "t": 254659.0230000006,
      "d": 340.9090000000142,
      "v": 80
    },
    {
      "midi": 79,
      "hit": false,
      "t": 254999.9320000006,
      "d": 340.9090000000142,
      "v": 80
    },
    {
      "midi": 74,
      "hit": false,
      "t": 255340.84100000063,
      "d": 340.9090000000142,
      "v": 80
    },
    {
      "midi": 77,
      "hit": false,
      "t": 255681.75000000064,
      "d": 340.9090000000142,
      "v": 80
    },
    {
      "midi": 69,
      "hit": false,
      "t": 256022.65900000065,
      "d": 340.9090000000142,
      "v": 80
    },
    {
      "midi": 54,
      "hit": false,
      "t": 256363.56800000067,
      "d": 5454.543999999907,
      "v": 60
    },
    {
      "midi": 57,
      "hit": false,
      "t": 256363.56800000207,
      "d": 2727.271999999997,
      "v": 100
    },
    {
      "midi": 62,
      "hit": false,
      "t": 256363.56800000207,
      "d": 2727.271999999997,
      "v": 100
    },
    {
      "midi": 66,
      "hit": false,
      "t": 256363.56800000207,
      "d": 2727.271999999997,
      "v": 100
    },
    {
      "midi": 57,
      "hit": false,
      "t": 257727.20400000067,
      "d": 170.45449999999255,
      "v": 50
    },
    {
      "midi": 62,
      "hit": false,
      "t": 257897.65850000066,
      "d": 170.45449999999255,
      "v": 55
    },
    {
      "midi": 64,
      "hit": false,
      "t": 258068.11300000065,
      "d": 170.45449999999255,
      "v": 60
    },
    {
      "midi": 66,
      "hit": false,
      "t": 258238.56750000064,
      "d": 170.45449999999255,
      "v": 65
    },
    {
      "midi": 69,
      "hit": false,
      "t": 258409.02200000064,
      "d": 170.45449999999255,
      "v": 70
    },
    {
      "midi": 74,
      "hit": false,
      "t": 258579.47650000063,
      "d": 170.45449999999255,
      "v": 75
    },
    {
      "midi": 76,
      "hit": false,
      "t": 258749.93100000062,
      "d": 170.45449999999255,
      "v": 80
    },
    {
      "midi": 78,
      "hit": false,
      "t": 258920.38550000062,
      "d": 142.04541666666046,
      "v": 85
    },
    {
      "midi": 80,
      "hit": false,
      "t": 259062.43091666728,
      "d": 28.40908333333209,
      "v": 50
    },
    {
      "midi": 81,
      "hit": false,
      "t": 259090.8400000006,
      "d": 170.45449999999255,
      "v": 90
    },
    {
      "midi": 57,
      "hit": false,
      "t": 259090.84000000206,
      "d": 2727.271999999997,
      "v": 100
    },
    {
      "midi": 62,
      "hit": false,
      "t": 259090.84000000206,
      "d": 2727.271999999997,
      "v": 100
    },
    {
      "midi": 66,
      "hit": false,
      "t": 259090.84000000206,
      "d": 2727.271999999997,
      "v": 100
    },
    {
      "midi": 83,
      "hit": false,
      "t": 259431.7490000006,
      "d": 170.45449999999255,
      "v": 70
    },
    {
      "midi": 83,
      "hit": false,
      "t": 260085.15791666726,
      "d": 28.40908333333209,
      "v": 50
    },
    {
      "midi": 85,
      "hit": false,
      "t": 260113.5670000006,
      "d": 170.45449999999255,
      "v": 70
    },
    {
      "midi": 86,
      "hit": false,
      "t": 260795.3850000006,
      "d": 170.45449999999255,
      "v": 90
    },
    {
      "midi": 83,
      "hit": false,
      "t": 261107.88491666724,
      "d": 28.40908333333209,
      "v": 65
    },
    {
      "midi": 85,
      "hit": false,
      "t": 261136.29400000058,
      "d": 170.45449999999255,
      "v": 80
    },
    {
      "midi": 81,
      "hit": false,
      "t": 261306.74850000057,
      "d": 170.45449999999255,
      "v": 60
    },
    {
      "midi": 57,
      "hit": false,
      "t": 261818.11200000206,
      "d": 2727.271999999997,
      "v": 100
    },
    {
      "midi": 60,
      "hit": false,
      "t": 261818.11200000206,
      "d": 2727.271999999997,
      "v": 100
    },
    {
      "midi": 65,
      "hit": false,
      "t": 261818.11200000206,
      "d": 2727.271999999997,
      "v": 100
    },
    {
      "midi": 60,
      "hit": false,
      "t": 262499.9300000006,
      "d": 340.9089999999851,
      "v": 60
    },
    {
      "midi": 62,
      "hit": false,
      "t": 262840.83900000056,
      "d": 340.9089999999851,
      "v": 64
    },
    {
      "midi": 65,
      "hit": false,
      "t": 263181.74800000055,
      "d": 340.9089999999851,
      "v": 68
    },
    {
      "midi": 67,
      "hit": false,
      "t": 263522.65700000053,
      "d": 340.9089999999851,
      "v": 72
    },
    {
      "midi": 69,
      "hit": false,
      "t": 263863.5660000005,
      "d": 340.9089999999851,
      "v": 76
    },
    {
      "midi": 72,
      "hit": false,
      "t": 264204.4750000005,
      "d": 340.9089999999851,
      "v": 80
    },
    {
      "midi": 77,
      "hit": false,
      "t": 264545.3840000005,
      "d": 340.9089999999851,
      "v": 80
    },
    {
      "midi": 57,
      "hit": false,
      "t": 264545.38400000206,
      "d": 2727.271999999997,
      "v": 100
    },
    {
      "midi": 60,
      "hit": false,
      "t": 264545.38400000206,
      "d": 2727.271999999997,
      "v": 100
    },
    {
      "midi": 65,
      "hit": false,
      "t": 264545.38400000206,
      "d": 2727.271999999997,
      "v": 100
    },
    {
      "midi": 79,
      "hit": false,
      "t": 264886.29300000047,
      "d": 340.9089999999851,
      "v": 75
    },
    {
      "midi": 81,
      "hit": false,
      "t": 265227.20200000046,
      "d": 340.9089999999851,
      "v": 69
    },
    {
      "midi": 84,
      "hit": false,
      "t": 265568.11100000044,
      "d": 340.9089999999851,
      "v": 63
    },
    {
      "midi": 89,
      "hit": false,
      "t": 265909.0200000004,
      "d": 340.9089999999851,
      "v": 58
    },
    {
      "midi": 91,
      "hit": false,
      "t": 266249.9290000004,
      "d": 340.9089999999851,
      "v": 52
    },
    {
      "midi": 93,
      "hit": false,
      "t": 266590.8380000004,
      "d": 340.9089999999851,
      "v": 46
    },
    {
      "midi": 96,
      "hit": false,
      "t": 266931.7470000004,
      "d": 340.9089999999851,
      "v": 40
    },
    {
      "midi": 66,
      "hit": false,
      "t": 267272.65600000037,
      "d": 340.9089999999851,
      "v": 100
    },
    {
      "midi": 78,
      "hit": false,
      "t": 267272.65600000037,
      "d": 340.9089999999851,
      "v": 100
    },
    {
      "midi": 62,
      "hit": false,
      "t": 267613.56500000035,
      "d": 340.9089999999851,
      "v": 100
    },
    {
      "midi": 74,
      "hit": false,
      "t": 267613.56500000035,
      "d": 340.9089999999851,
      "v": 100
    },
    {
      "midi": 64,
      "hit": false,
      "t": 267954.47400000034,
      "d": 340.9089999999851,
      "v": 100
    },
    {
      "midi": 76,
      "hit": false,
      "t": 267954.47400000034,
      "d": 340.9089999999851,
      "v": 100
    },
    {
      "midi": 69,
      "hit": false,
      "t": 268295.3830000003,
      "d": 1704.5449999999837,
      "v": 100
    },
    {
      "midi": 81,
      "hit": false,
      "t": 268295.3830000003,
      "d": 1704.5449999999837,
      "v": 100
    },
    {
      "midi": 67,
      "hit": false,
      "t": 269999.9280000003,
      "d": 340.9089999999851,
      "v": 100
    },
    {
      "midi": 79,
      "hit": false,
      "t": 269999.9280000003,
      "d": 340.9089999999851,
      "v": 100
    },
    {
      "midi": 62,
      "hit": false,
      "t": 270340.8370000003,
      "d": 340.9089999999851,
      "v": 100
    },
    {
      "midi": 74,
      "hit": false,
      "t": 270340.8370000003,
      "d": 340.9089999999851,
      "v": 100
    },
    {
      "midi": 64,
      "hit": false,
      "t": 270681.7460000003,
      "d": 340.9089999999851,
      "v": 100
    },
    {
      "midi": 76,
      "hit": false,
      "t": 270681.7460000003,
      "d": 340.9089999999851,
      "v": 100
    },
    {
      "midi": 71,
      "hit": false,
      "t": 271022.65500000026,
      "d": 1704.5449999999837,
      "v": 100
    },
    {
      "midi": 83,
      "hit": false,
      "t": 271022.65500000026,
      "d": 1704.5449999999837,
      "v": 100
    },
    {
      "midi": 59,
      "hit": false,
      "t": 272727.20000000024,
      "d": 340.9089999999851,
      "v": 100
    },
    {
      "midi": 71,
      "hit": false,
      "t": 272727.20000000024,
      "d": 340.9089999999851,
      "v": 100
    },
    {
      "midi": 62,
      "hit": false,
      "t": 273068.10900000023,
      "d": 340.9089999999851,
      "v": 100
    },
    {
      "midi": 74,
      "hit": false,
      "t": 273068.10900000023,
      "d": 340.9089999999851,
      "v": 100
    },
    {
      "midi": 64,
      "hit": false,
      "t": 273409.0180000002,
      "d": 340.9089999999851,
      "v": 100
    },
    {
      "midi": 76,
      "hit": false,
      "t": 273409.0180000002,
      "d": 340.9089999999851,
      "v": 100
    },
    {
      "midi": 73,
      "hit": false,
      "t": 273749.9270000002,
      "d": 2045.454000000027,
      "v": 100
    },
    {
      "midi": 85,
      "hit": false,
      "t": 273749.9270000002,
      "d": 2045.454000000027,
      "v": 100
    },
    {
      "midi": 64,
      "hit": false,
      "t": 275795.3810000002,
      "d": 340.9089999999851,
      "v": 100
    },
    {
      "midi": 76,
      "hit": false,
      "t": 275795.3810000002,
      "d": 340.9089999999851,
      "v": 100
    },
    {
      "midi": 66,
      "hit": false,
      "t": 276136.2900000002,
      "d": 340.9089999999851,
      "v": 100
    },
    {
      "midi": 78,
      "hit": false,
      "t": 276136.2900000002,
      "d": 340.9089999999851,
      "v": 100
    },
    {
      "midi": 71,
      "hit": false,
      "t": 276477.1990000002,
      "d": 1704.5449999999837,
      "v": 100
    },
    {
      "midi": 83,
      "hit": false,
      "t": 276477.1990000002,
      "d": 1704.5449999999837,
      "v": 100
    },
    {
      "midi": 67,
      "hit": false,
      "t": 278181.7440000002,
      "d": 340.9089999999851,
      "v": 100
    },
    {
      "midi": 79,
      "hit": false,
      "t": 278181.7440000002,
      "d": 340.9089999999851,
      "v": 100
    },
    {
      "midi": 62,
      "hit": false,
      "t": 278522.65300000017,
      "d": 340.9089999999851,
      "v": 100
    },
    {
      "midi": 74,
      "hit": false,
      "t": 278522.65300000017,
      "d": 340.9089999999851,
      "v": 100
    },
    {
      "midi": 64,
      "hit": false,
      "t": 278863.56200000015,
      "d": 340.9089999999851,
      "v": 100
    },
    {
      "midi": 76,
      "hit": false,
      "t": 278863.56200000015,
      "d": 340.9089999999851,
      "v": 100
    },
    {
      "midi": 71,
      "hit": false,
      "t": 279204.47100000014,
      "d": 1704.5449999999837,
      "v": 100
    },
    {
      "midi": 83,
      "hit": false,
      "t": 279204.47100000014,
      "d": 1704.5449999999837,
      "v": 100
    },
    {
      "midi": 66,
      "hit": false,
      "t": 280909.0160000001,
      "d": 340.9089999999851,
      "v": 100
    },
    {
      "midi": 78,
      "hit": false,
      "t": 280909.0160000001,
      "d": 340.9089999999851,
      "v": 100
    },
    {
      "midi": 62,
      "hit": false,
      "t": 281249.9250000001,
      "d": 340.9089999999851,
      "v": 100
    },
    {
      "midi": 74,
      "hit": false,
      "t": 281249.9250000001,
      "d": 340.9089999999851,
      "v": 100
    },
    {
      "midi": 64,
      "hit": false,
      "t": 281590.8340000001,
      "d": 340.9089999999851,
      "v": 100
    },
    {
      "midi": 76,
      "hit": false,
      "t": 281590.8340000001,
      "d": 340.9089999999851,
      "v": 100
    },
    {
      "midi": 69,
      "hit": false,
      "t": 281931.7430000001,
      "d": 1704.5449999999837,
      "v": 100
    },
    {
      "midi": 81,
      "hit": false,
      "t": 281931.7430000001,
      "d": 1704.5449999999837,
      "v": 100
    },
    {
      "midi": 59,
      "hit": false,
      "t": 283636.28800000006,
      "d": 340.9089999999851,
      "v": 100
    },
    {
      "midi": 71,
      "hit": false,
      "t": 283636.28800000006,
      "d": 340.9089999999851,
      "v": 100
    },
    {
      "midi": 62,
      "hit": false,
      "t": 283977.19700000004,
      "d": 340.9089999999851,
      "v": 100
    },
    {
      "midi": 74,
      "hit": false,
      "t": 283977.19700000004,
      "d": 340.9089999999851,
      "v": 100
    },
    {
      "midi": 64,
      "hit": false,
      "t": 284318.106,
      "d": 340.9089999999851,
      "v": 100
    },
    {
      "midi": 76,
      "hit": false,
      "t": 284318.106,
      "d": 340.9089999999851,
      "v": 100
    },
    {
      "midi": 73,
      "hit": false,
      "t": 284659.015,
      "d": 340.9089999999851,
      "v": 100
    },
    {
      "midi": 85,
      "hit": false,
      "t": 284659.015,
      "d": 340.9089999999851,
      "v": 100
    },
    {
      "midi": 69,
      "hit": false,
      "t": 284999.924,
      "d": 340.9089999999851,
      "v": 100
    },
    {
      "midi": 81,
      "hit": false,
      "t": 284999.924,
      "d": 340.9089999999851,
      "v": 100
    },
    {
      "midi": 71,
      "hit": false,
      "t": 285340.833,
      "d": 340.9089999999851,
      "v": 100
    },
    {
      "midi": 83,
      "hit": false,
      "t": 285340.833,
      "d": 340.9089999999851,
      "v": 100
    },
    {
      "midi": 76,
      "hit": false,
      "t": 285681.74199999997,
      "d": 3409.0900000000256,
      "v": 100
    },
    {
      "midi": 88,
      "hit": false,
      "t": 285681.74199999997,
      "d": 3409.0900000000256,
      "v": 100
    }
  ]
}