{
  "jsonPath": "Unknown/Unknown/Baggi Begovic/chaos-album.json",
  "path": "Unknown\\Unknown\\Baggi Begovic\\Chaos (Album).mid",
  "name": "Chaos (Album)",
  "difficulty": "Advanced",
  "bpm": 122.99996925000768,
  "notes": [
    {
      "midi": 60,
      "hit": false,
      "t": 103434.98520833334,
      "d": 48.78050000000803,
      "v": 89
    },
    {
      "midi": 62,
      "hit": false,
      "t": 103463.44050000001,
      "d": 52.845541666669305,
      "v": 93
    },
    {
      "midi": 64,
      "hit": false,
      "t": 103495.96083333335,
      "d": 48.78050000000803,
      "v": 95
    },
    {
      "midi": 65,
      "hit": false,
      "t": 103524.41612500002,
      "d": 52.845541666669305,
      "v": 96
    },
    {
      "midi": 67,
      "hit": false,
      "t": 103565.06654166669,
      "d": 52.845541666669305,
      "v": 100
    },
    {
      "midi": 69,
      "hit": false,
      "t": 103597.58687500002,
      "d": 48.78050000000803,
      "v": 98
    },
    {
      "midi": 71,
      "hit": false,
      "t": 103638.2372916667,
      "d": 60.9756250000064,
      "v": 96
    },
    {
      "midi": 72,
      "hit": false,
      "t": 103678.88770833336,
      "d": 60.9756250000064,
      "v": 97
    },
    {
      "midi": 74,
      "hit": false,
      "t": 103719.53812500004,
      "d": 48.78050000000803,
      "v": 96
    },
    {
      "midi": 76,
      "hit": false,
      "t": 103760.1885416667,
      "d": 60.9756250000064,
      "v": 96
    },
    {
      "midi": 77,
      "hit": false,
      "t": 103808.96904166671,
      "d": 32.52033333333384,
      "v": 96
    },
    {
      "midi": 67,
      "hit": false,
      "t": 103829.29425000005,
      "d": 52.845541666669305,
      "v": 88
    },
    {
      "midi": 69,
      "hit": false,
      "t": 103861.81458333338,
      "d": 81.30083333334187,
      "v": 80
    },
    {
      "midi": 71,
      "hit": false,
      "t": 103910.59508333339,
      "d": 52.845541666669305,
      "v": 47
    },
    {
      "midi": 72,
      "hit": false,
      "t": 103951.24550000006,
      "d": 52.845541666669305,
      "v": 81
    },
    {
      "midi": 74,
      "hit": false,
      "t": 103991.89591666673,
      "d": 52.845541666669305,
      "v": 87
    },
    {
      "midi": 76,
      "hit": false,
      "t": 104024.41625000007,
      "d": 48.78050000000803,
      "v": 88
    },
    {
      "midi": 77,
      "hit": false,
      "t": 104065.06666666674,
      "d": 60.9756250000064,
      "v": 89
    },
    {
      "midi": 79,
      "hit": false,
      "t": 104105.71708333341,
      "d": 48.78050000000803,
      "v": 87
    },
    {
      "midi": 81,
      "hit": false,
      "t": 104146.36750000008,
      "d": 48.78050000000803,
      "v": 86
    },
    {
      "midi": 83,
      "hit": false,
      "t": 104187.01791666675,
      "d": 48.78050000000803,
      "v": 87
    },
    {
      "midi": 84,
      "hit": false,
      "t": 104227.66833333342,
      "d": 60.9756250000064,
      "v": 93
    },
    {
      "midi": 86,
      "hit": false,
      "t": 104268.3187500001,
      "d": 69.1057083333435,
      "v": 96
    },
    {
      "midi": 71,
      "hit": false,
      "t": 104308.96916666676,
      "d": 28.455291666672565,
      "v": 81
    },
    {
      "midi": 88,
      "hit": false,
      "t": 104317.0992500001,
      "d": 40.650416666670935,
      "v": 77
    },
    {
      "midi": 72,
      "hit": false,
      "t": 104317.0992500001,
      "d": 60.9756250000064,
      "v": 95
    },
    {
      "midi": 74,
      "hit": false,
      "t": 104357.74966666677,
      "d": 73.17075000000477,
      "v": 66
    },
    {
      "midi": 76,
      "hit": false,
      "t": 104398.40008333344,
      "d": 60.9756250000064,
      "v": 76
    },
    {
      "midi": 77,
      "hit": false,
      "t": 104439.05050000011,
      "d": 52.845541666669305,
      "v": 88
    },
    {
      "midi": 79,
      "hit": false,
      "t": 104471.57083333345,
      "d": 48.78050000000803,
      "v": 92
    },
    {
      "midi": 81,
      "hit": false,
      "t": 104512.22125000012,
      "d": 40.650416666670935,
      "v": 92
    },
    {
      "midi": 83,
      "hit": false,
      "t": 104540.67654166679,
      "d": 40.650416666670935,
      "v": 96
    },
    {
      "midi": 84,
      "hit": false,
      "t": 104573.19687500013,
      "d": 48.78050000000803,
      "v": 96
    },
    {
      "midi": 86,
      "hit": false,
      "t": 104601.6521666668,
      "d": 52.845541666669305,
      "v": 100
    },
    {
      "midi": 88,
      "hit": false,
      "t": 104634.17250000013,
      "d": 48.78050000000803,
      "v": 101
    },
    {
      "midi": 89,
      "hit": false,
      "t": 104674.8229166668,
      "d": 40.650416666670935,
      "v": 100
    },
    {
      "midi": 91,
      "hit": false,
      "t": 104703.27820833348,
      "d": 52.845541666669305,
      "v": 101
    },
    {
      "midi": 93,
      "hit": false,
      "t": 104735.79854166681,
      "d": 48.78050000000803,
      "v": 103
    },
    {
      "midi": 95,
      "hit": false,
      "t": 104776.44895833348,
      "d": 48.78050000000803,
      "v": 100
    },
    {
      "midi": 96,
      "hit": false,
      "t": 104817.09937500015,
      "d": 40.650416666670935,
      "v": 101
    },
    {
      "midi": 98,
      "hit": false,
      "t": 104845.55466666682,
      "d": 32.52033333333384,
      "v": 105
    },
    {
      "midi": 88,
      "hit": false,
      "t": 104898.40020833349,
      "d": 20.325208333335468,
      "v": 81
    },
    {
      "midi": 89,
      "hit": false,
      "t": 104898.40020833349,
      "d": 48.78050000000803,
      "v": 103
    },
    {
      "midi": 91,
      "hit": false,
      "t": 104939.05062500016,
      "d": 40.650416666670935,
      "v": 94
    },
    {
      "midi": 93,
      "hit": false,
      "t": 104959.3758333335,
      "d": 40.650416666670935,
      "v": 93
    },
    {
      "midi": 95,
      "hit": false,
      "t": 104987.83112500017,
      "d": 52.845541666669305,
      "v": 98
    },
    {
      "midi": 96,
      "hit": false,
      "t": 105028.48154166684,
      "d": 40.650416666670935,
      "v": 103
    },
    {
      "midi": 98,
      "hit": false,
      "t": 105048.80675000018,
      "d": 52.845541666669305,
      "v": 106
    },
    {
      "midi": 100,
      "hit": false,
      "t": 105089.45716666685,
      "d": 40.650416666670935,
      "v": 105
    },
    {
      "midi": 101,
      "hit": false,
      "t": 105121.97750000018,
      "d": 60.9756250000064,
      "v": 103
    },
    {
      "midi": 103,
      "hit": false,
      "t": 105162.62791666685,
      "d": 48.78050000000803,
      "v": 102
    },
    {
      "midi": 105,
      "hit": false,
      "t": 105203.27833333352,
      "d": 60.9756250000064,
      "v": 105
    },
    {
      "midi": 107,
      "hit": false,
      "t": 105243.9287500002,
      "d": 69.1057083333435,
      "v": 103
    },
    {
      "midi": 108,
      "hit": false,
      "t": 105292.7092500002,
      "d": 60.9756250000064,
      "v": 100
    },
    {
      "midi": 76,
      "hit": false,
      "t": 140487.8400000002,
      "d": 243.9024999999965,
      "v": 83
    },
    {
      "midi": 81,
      "hit": false,
      "t": 140487.8400000002,
      "d": 243.9024999999965,
      "v": 83
    },
    {
      "midi": 76,
      "hit": false,
      "t": 140853.6937500002,
      "d": 121.9512500000128,
      "v": 83
    },
    {
      "midi": 81,
      "hit": false,
      "t": 140853.6937500002,
      "d": 121.9512500000128,
      "v": 83
    },
    {
      "midi": 76,
      "hit": false,
      "t": 141097.59625000024,
      "d": 121.9512500000128,
      "v": 83
    },
    {
      "midi": 81,
      "hit": false,
      "t": 141097.59625000024,
      "d": 121.9512500000128,
      "v": 83
    },
    {
      "midi": 74,
      "hit": false,
      "t": 141219.54750000025,
      "d": 121.9512500000128,
      "v": 83
    },
    {
      "midi": 79,
      "hit": false,
      "t": 141219.54750000025,
      "d": 121.9512500000128,
      "v": 83
    },
    {
      "midi": 76,
      "hit": false,
      "t": 141463.45000000027,
      "d": 121.9512500000128,
      "v": 83
    },
    {
      "midi": 81,
      "hit": false,
      "t": 141463.45000000027,
      "d": 121.9512500000128,
      "v": 83
    },
    {
      "midi": 76,
      "hit": false,
      "t": 142439.0600000003,
      "d": 243.9024999999965,
      "v": 80
    },
    {
      "midi": 81,
      "hit": false,
      "t": 142439.0600000003,
      "d": 243.9024999999965,
      "v": 80
    },
    {
      "midi": 76,
      "hit": false,
      "t": 142804.9137500003,
      "d": 121.9512500000128,
      "v": 80
    },
    {
      "midi": 81,
      "hit": false,
      "t": 142804.9137500003,
      "d": 121.9512500000128,
      "v": 80
    },
    {
      "midi": 76,
      "hit": false,
      "t": 143048.81625000032,
      "d": 121.9512500000128,
      "v": 80
    },
    {
      "midi": 81,
      "hit": false,
      "t": 143048.81625000032,
      "d": 121.9512500000128,
      "v": 80
    },
    {
      "midi": 74,
      "hit": false,
      "t": 143170.76750000034,
      "d": 121.9512500000128,
      "v": 80
    },
    {
      "midi": 79,
      "hit": false,
      "t": 143170.76750000034,
      "d": 121.9512500000128,
      "v": 80
    },
    {
      "midi": 76,
      "hit": false,
      "t": 143414.67000000036,
      "d": 121.9512500000128,
      "v": 80
    },
    {
      "midi": 81,
      "hit": false,
      "t": 143414.67000000036,
      "d": 121.9512500000128,
      "v": 80
    },
    {
      "midi": 76,
      "hit": false,
      "t": 143658.5725000004,
      "d": 121.9512500000128,
      "v": 80
    },
    {
      "midi": 81,
      "hit": false,
      "t": 143658.5725000004,
      "d": 121.9512500000128,
      "v": 80
    },
    {
      "midi": 76,
      "hit": false,
      "t": 143902.4750000004,
      "d": 121.9512500000128,
      "v": 80
    },
    {
      "midi": 81,
      "hit": false,
      "t": 143902.4750000004,
      "d": 121.9512500000128,
      "v": 80
    },
    {
      "midi": 74,
      "hit": false,
      "t": 144024.42625000043,
      "d": 121.9512500000128,
      "v": 80
    },
    {
      "midi": 79,
      "hit": false,
      "t": 144024.42625000043,
      "d": 121.9512500000128,
      "v": 80
    },
    {
      "midi": 76,
      "hit": false,
      "t": 144390.28000000044,
      "d": 243.9024999999965,
      "v": 80
    },
    {
      "midi": 81,
      "hit": false,
      "t": 144390.28000000044,
      "d": 243.9024999999965,
      "v": 80
    },
    {
      "midi": 76,
      "hit": false,
      "t": 144756.13375000044,
      "d": 121.9512500000128,
      "v": 80
    },
    {
      "midi": 81,
      "hit": false,
      "t": 144756.13375000044,
      "d": 121.9512500000128,
      "v": 80
    },
    {
      "midi": 76,
      "hit": false,
      "t": 145000.03625000047,
      "d": 121.9512500000128,
      "v": 80
    },
    {
      "midi": 81,
      "hit": false,
      "t": 145000.03625000047,
      "d": 121.9512500000128,
      "v": 80
    },
    {
      "midi": 74,
      "hit": false,
      "t": 145121.98750000048,
      "d": 121.9512500000128,
      "v": 80
    },
    {
      "midi": 79,
      "hit": false,
      "t": 145121.98750000048,
      "d": 121.9512500000128,
      "v": 80
    },
    {
      "midi": 76,
      "hit": false,
      "t": 145365.8900000005,
      "d": 121.9512500000128,
      "v": 86
    },
    {
      "midi": 81,
      "hit": false,
      "t": 145365.8900000005,
      "d": 121.9512500000128,
      "v": 86
    },
    {
      "midi": 76,
      "hit": false,
      "t": 146341.50000000052,
      "d": 243.9024999999965,
      "v": 79
    },
    {
      "midi": 81,
      "hit": false,
      "t": 146341.50000000052,
      "d": 243.9024999999965,
      "v": 79
    },
    {
      "midi": 76,
      "hit": false,
      "t": 146707.35375000053,
      "d": 121.9512500000128,
      "v": 79
    },
    {
      "midi": 81,
      "hit": false,
      "t": 146707.35375000053,
      "d": 121.9512500000128,
      "v": 79
    },
    {
      "midi": 76,
      "hit": false,
      "t": 146951.25625000056,
      "d": 121.9512500000128,
      "v": 79
    },
    {
      "midi": 81,
      "hit": false,
      "t": 146951.25625000056,
      "d": 121.9512500000128,
      "v": 79
    },
    {
      "midi": 74,
      "hit": false,
      "t": 147073.20750000057,
      "d": 121.9512500000128,
      "v": 79
    },
    {
      "midi": 79,
      "hit": false,
      "t": 147073.20750000057,
      "d": 121.9512500000128,
      "v": 79
    },
    {
      "midi": 76,
      "hit": false,
      "t": 147317.1100000006,
      "d": 121.9512500000128,
      "v": 80
    },
    {
      "midi": 81,
      "hit": false,
      "t": 147317.1100000006,
      "d": 121.9512500000128,
      "v": 80
    },
    {
      "midi": 76,
      "hit": false,
      "t": 147561.01250000062,
      "d": 121.9512500000128,
      "v": 80
    },
    {
      "midi": 81,
      "hit": false,
      "t": 147561.01250000062,
      "d": 121.9512500000128,
      "v": 80
    },
    {
      "midi": 76,
      "hit": false,
      "t": 147804.91500000065,
      "d": 121.9512500000128,
      "v": 80
    },
    {
      "midi": 81,
      "hit": false,
      "t": 147804.91500000065,
      "d": 121.9512500000128,
      "v": 80
    },
    {
      "midi": 74,
      "hit": false,
      "t": 147926.86625000066,
      "d": 121.9512500000128,
      "v": 80
    },
    {
      "midi": 79,
      "hit": false,
      "t": 147926.86625000066,
      "d": 121.9512500000128,
      "v": 80
    },
    {
      "midi": 76,
      "hit": false,
      "t": 148292.72000000067,
      "d": 243.9024999999965,
      "v": 82
    },
    {
      "midi": 81,
      "hit": false,
      "t": 148292.72000000067,
      "d": 243.9024999999965,
      "v": 82
    },
    {
      "midi": 76,
      "hit": false,
      "t": 148658.57375000068,
      "d": 121.9512500000128,
      "v": 82
    },
    {
      "midi": 81,
      "hit": false,
      "t": 148658.57375000068,
      "d": 121.9512500000128,
      "v": 82
    },
    {
      "midi": 76,
      "hit": false,
      "t": 148902.4762500007,
      "d": 121.9512500000128,
      "v": 82
    },
    {
      "midi": 81,
      "hit": false,
      "t": 148902.4762500007,
      "d": 121.9512500000128,
      "v": 82
    },
    {
      "midi": 74,
      "hit": false,
      "t": 149024.42750000072,
      "d": 121.9512500000128,
      "v": 82
    },
    {
      "midi": 79,
      "hit": false,
      "t": 149024.42750000072,
      "d": 121.9512500000128,
      "v": 82
    },
    {
      "midi": 76,
      "hit": false,
      "t": 149268.33000000074,
      "d": 121.9512500000128,
      "v": 84
    },
    {
      "midi": 81,
      "hit": false,
      "t": 149268.33000000074,
      "d": 121.9512500000128,
      "v": 84
    },
    {
      "midi": 76,
      "hit": false,
      "t": 150243.94000000076,
      "d": 243.9024999999965,
      "v": 84
    },
    {
      "midi": 81,
      "hit": false,
      "t": 150243.94000000076,
      "d": 243.9024999999965,
      "v": 84
    },
    {
      "midi": 76,
      "hit": false,
      "t": 150609.79375000077,
      "d": 121.9512500000128,
      "v": 84
    },
    {
      "midi": 81,
      "hit": false,
      "t": 150609.79375000077,
      "d": 121.9512500000128,
      "v": 84
    },
    {
      "midi": 76,
      "hit": false,
      "t": 150853.6962500008,
      "d": 121.9512500000128,
      "v": 84
    },
    {
      "midi": 81,
      "hit": false,
      "t": 150853.6962500008,
      "d": 121.9512500000128,
      "v": 84
    },
    {
      "midi": 74,
      "hit": false,
      "t": 150975.6475000008,
      "d": 121.9512500000128,
      "v": 84
    },
    {
      "midi": 79,
      "hit": false,
      "t": 150975.6475000008,
      "d": 121.9512500000128,
      "v": 84
    },
    {
      "midi": 76,
      "hit": false,
      "t": 151219.55000000083,
      "d": 121.9512500000128,
      "v": 85
    },
    {
      "midi": 81,
      "hit": false,
      "t": 151219.55000000083,
      "d": 121.9512500000128,
      "v": 85
    },
    {
      "midi": 76,
      "hit": false,
      "t": 151463.45250000086,
      "d": 121.9512500000128,
      "v": 85
    },
    {
      "midi": 81,
      "hit": false,
      "t": 151463.45250000086,
      "d": 121.9512500000128,
      "v": 85
    },
    {
      "midi": 76,
      "hit": false,
      "t": 151707.35500000088,
      "d": 121.9512500000128,
      "v": 85
    },
    {
      "midi": 81,
      "hit": false,
      "t": 151707.35500000088,
      "d": 121.9512500000128,
      "v": 85
    },
    {
      "midi": 74,
      "hit": false,
      "t": 151829.3062500009,
      "d": 121.9512500000128,
      "v": 85
    },
    {
      "midi": 79,
      "hit": false,
      "t": 151829.3062500009,
      "d": 121.9512500000128,
      "v": 85
    },
    {
      "midi": 76,
      "hit": false,
      "t": 152195.1600000009,
      "d": 243.9024999999965,
      "v": 85
    },
    {
      "midi": 81,
      "hit": false,
      "t": 152195.1600000009,
      "d": 243.9024999999965,
      "v": 85
    },
    {
      "midi": 76,
      "hit": false,
      "t": 152561.01375000092,
      "d": 121.9512500000128,
      "v": 85
    },
    {
      "midi": 81,
      "hit": false,
      "t": 152561.01375000092,
      "d": 121.9512500000128,
      "v": 85
    },
    {
      "midi": 76,
      "hit": false,
      "t": 152804.91625000094,
      "d": 121.9512500000128,
      "v": 85
    },
    {
      "midi": 81,
      "hit": false,
      "t": 152804.91625000094,
      "d": 121.9512500000128,
      "v": 85
    },
    {
      "midi": 74,
      "hit": false,
      "t": 152926.86750000095,
      "d": 121.9512500000128,
      "v": 85
    },
    {
      "midi": 79,
      "hit": false,
      "t": 152926.86750000095,
      "d": 121.9512500000128,
      "v": 85
    },
    {
      "midi": 76,
      "hit": false,
      "t": 153170.77000000098,
      "d": 121.9512500000128,
      "v": 86
    },
    {
      "midi": 81,
      "hit": false,
      "t": 153170.77000000098,
      "d": 121.9512500000128,
      "v": 86
    },
    {
      "midi": 76,
      "hit": false,
      "t": 154146.380000001,
      "d": 243.9024999999965,
      "v": 88
    },
    {
      "midi": 81,
      "hit": false,
      "t": 154146.380000001,
      "d": 243.9024999999965,
      "v": 88
    },
    {
      "midi": 76,
      "hit": false,
      "t": 154512.233750001,
      "d": 121.9512500000128,
      "v": 88
    },
    {
      "midi": 81,
      "hit": false,
      "t": 154512.233750001,
      "d": 121.9512500000128,
      "v": 88
    },
    {
      "midi": 76,
      "hit": false,
      "t": 154756.13625000103,
      "d": 121.9512500000128,
      "v": 88
    },
    {
      "midi": 81,
      "hit": false,
      "t": 154756.13625000103,
      "d": 121.9512500000128,
      "v": 88
    },
    {
      "midi": 74,
      "hit": false,
      "t": 154878.08750000104,
      "d": 121.9512500000128,
      "v": 88
    },
    {
      "midi": 79,
      "hit": false,
      "t": 154878.08750000104,
      "d": 121.9512500000128,
      "v": 88
    },
    {
      "midi": 76,
      "hit": false,
      "t": 155121.99000000107,
      "d": 121.9512500000128,
      "v": 87
    },
    {
      "midi": 81,
      "hit": false,
      "t": 155121.99000000107,
      "d": 121.9512500000128,
      "v": 87
    },
    {
      "midi": 76,
      "hit": false,
      "t": 155365.8925000011,
      "d": 121.9512500000128,
      "v": 87
    },
    {
      "midi": 81,
      "hit": false,
      "t": 155365.8925000011,
      "d": 121.9512500000128,
      "v": 87
    },
    {
      "midi": 76,
      "hit": false,
      "t": 155609.79500000112,
      "d": 121.9512500000128,
      "v": 87
    },
    {
      "midi": 81,
      "hit": false,
      "t": 155609.79500000112,
      "d": 121.9512500000128,
      "v": 87
    },
    {
      "midi": 74,
      "hit": false,
      "t": 155731.74625000113,
      "d": 121.9512500000128,
      "v": 87
    },
    {
      "midi": 79,
      "hit": false,
      "t": 155731.74625000113,
      "d": 121.9512500000128,
      "v": 87
    },
    {
      "midi": 76,
      "hit": false,
      "t": 156097.60000000114,
      "d": 243.9024999999965,
      "v": 87
    },
    {
      "midi": 81,
      "hit": false,
      "t": 156097.60000000114,
      "d": 243.9024999999965,
      "v": 87
    },
    {
      "midi": 76,
      "hit": false,
      "t": 156463.45375000115,
      "d": 121.9512500000128,
      "v": 87
    },
    {
      "midi": 81,
      "hit": false,
      "t": 156463.45375000115,
      "d": 121.9512500000128,
      "v": 87
    },
    {
      "midi": 76,
      "hit": false,
      "t": 156707.35625000118,
      "d": 121.9512500000128,
      "v": 87
    },
    {
      "midi": 81,
      "hit": false,
      "t": 156707.35625000118,
      "d": 121.9512500000128,
      "v": 87
    },
    {
      "midi": 74,
      "hit": false,
      "t": 156829.3075000012,
      "d": 121.9512500000128,
      "v": 87
    },
    {
      "midi": 79,
      "hit": false,
      "t": 156829.3075000012,
      "d": 121.9512500000128,
      "v": 87
    },
    {
      "midi": 76,
      "hit": false,
      "t": 157073.2100000012,
      "d": 121.9512500000128,
      "v": 88
    },
    {
      "midi": 81,
      "hit": false,
      "t": 157073.2100000012,
      "d": 121.9512500000128,
      "v": 88
    },
    {
      "midi": 76,
      "hit": false,
      "t": 158048.82000000123,
      "d": 243.9024999999965,
      "v": 88
    },
    {
      "midi": 81,
      "hit": false,
      "t": 158048.82000000123,
      "d": 243.9024999999965,
      "v": 88
    },
    {
      "midi": 76,
      "hit": false,
      "t": 158414.67375000124,
      "d": 121.9512500000128,
      "v": 88
    },
    {
      "midi": 81,
      "hit": false,
      "t": 158414.67375000124,
      "d": 121.9512500000128,
      "v": 88
    },
    {
      "midi": 76,
      "hit": false,
      "t": 158658.57625000126,
      "d": 121.9512500000128,
      "v": 88
    },
    {
      "midi": 81,
      "hit": false,
      "t": 158658.57625000126,
      "d": 121.9512500000128,
      "v": 88
    },
    {
      "midi": 74,
      "hit": false,
      "t": 158780.52750000128,
      "d": 121.9512500000128,
      "v": 88
    },
    {
      "midi": 79,
      "hit": false,
      "t": 158780.52750000128,
      "d": 121.9512500000128,
      "v": 88
    },
    {
      "midi": 76,
      "hit": false,
      "t": 159024.4300000013,
      "d": 121.9512500000128,
      "v": 88
    },
    {
      "midi": 81,
      "hit": false,
      "t": 159024.4300000013,
      "d": 121.9512500000128,
      "v": 88
    },
    {
      "midi": 76,
      "hit": false,
      "t": 159268.33250000133,
      "d": 121.9512500000128,
      "v": 88
    },
    {
      "midi": 81,
      "hit": false,
      "t": 159268.33250000133,
      "d": 121.9512500000128,
      "v": 88
    },
    {
      "midi": 76,
      "hit": false,
      "t": 159512.23500000135,
      "d": 121.9512500000128,
      "v": 88
    },
    {
      "midi": 81,
      "hit": false,
      "t": 159512.23500000135,
      "d": 121.9512500000128,
      "v": 88
    },
    {
      "midi": 74,
      "hit": false,
      "t": 159634.18625000137,
      "d": 121.9512500000128,
      "v": 88
    },
    {
      "midi": 79,
      "hit": false,
      "t": 159634.18625000137,
      "d": 121.9512500000128,
      "v": 88
    },
    {
      "midi": 76,
      "hit": false,
      "t": 160000.04000000138,
      "d": 243.9024999999965,
      "v": 88
    },
    {
      "midi": 81,
      "hit": false,
      "t": 160000.04000000138,
      "d": 243.9024999999965,
      "v": 88
    },
    {
      "midi": 76,
      "hit": false,
      "t": 160365.89375000139,
      "d": 121.9512500000128,
      "v": 88
    },
    {
      "midi": 81,
      "hit": false,
      "t": 160365.89375000139,
      "d": 121.9512500000128,
      "v": 88
    },
    {
      "midi": 76,
      "hit": false,
      "t": 160609.7962500014,
      "d": 121.9512500000128,
      "v": 88
    },
    {
      "midi": 81,
      "hit": false,
      "t": 160609.7962500014,
      "d": 121.9512500000128,
      "v": 88
    },
    {
      "midi": 74,
      "hit": false,
      "t": 160731.74750000142,
      "d": 121.9512500000128,
      "v": 88
    },
    {
      "midi": 79,
      "hit": false,
      "t": 160731.74750000142,
      "d": 121.9512500000128,
      "v": 88
    },
    {
      "midi": 76,
      "hit": false,
      "t": 160975.65000000145,
      "d": 121.9512500000128,
      "v": 88
    },
    {
      "midi": 81,
      "hit": false,
      "t": 160975.65000000145,
      "d": 121.9512500000128,
      "v": 88
    },
    {
      "midi": 76,
      "hit": false,
      "t": 161951.26000000146,
      "d": 243.9024999998801,
      "v": 100
    },
    {
      "midi": 81,
      "hit": false,
      "t": 161951.26000000146,
      "d": 243.9024999998801,
      "v": 100
    },
    {
      "midi": 60,
      "hit": false,
      "t": 161971.58520833479,
      "d": 48.78049999999348,
      "v": 89
    },
    {
      "midi": 62,
      "hit": false,
      "t": 162000.04050000146,
      "d": 52.8455416666402,
      "v": 93
    },
    {
      "midi": 64,
      "hit": false,
      "t": 162032.56083333478,
      "d": 48.78049999996438,
      "v": 95
    },
    {
      "midi": 65,
      "hit": false,
      "t": 162061.01612500142,
      "d": 52.8455416666402,
      "v": 96
    },
    {
      "midi": 67,
      "hit": false,
      "t": 162101.66654166806,
      "d": 52.8455416666402,
      "v": 100
    },
    {
      "midi": 69,
      "hit": false,
      "t": 162134.18687500138,
      "d": 48.78049999996438,
      "v": 98
    },
    {
      "midi": 71,
      "hit": false,
      "t": 162174.83729166802,
      "d": 60.97562499996275,
      "v": 96
    },
    {
      "midi": 72,
      "hit": false,
      "t": 162215.48770833467,
      "d": 60.97562499996275,
      "v": 97
    },
    {
      "midi": 74,
      "hit": false,
      "t": 162256.1381250013,
      "d": 48.78049999996438,
      "v": 96
    },
    {
      "midi": 76,
      "hit": false,
      "t": 162296.78854166795,
      "d": 60.97562499999185,
      "v": 96
    },
    {
      "midi": 81,
      "hit": false,
      "t": 162317.11375000127,
      "d": 121.9512499999546,
      "v": 100
    },
    {
      "midi": 77,
      "hit": false,
      "t": 162345.56904166794,
      "d": 32.520333333319286,
      "v": 96
    },
    {
      "midi": 67,
      "hit": false,
      "t": 162365.89425000126,
      "d": 52.8455416666402,
      "v": 88
    },
    {
      "midi": 69,
      "hit": false,
      "t": 162398.41458333458,
      "d": 81.30083333328366,
      "v": 80
    },
    {
      "midi": 71,
      "hit": false,
      "t": 162447.19508333455,
      "d": 52.8455416666402,
      "v": 47
    },
    {
      "midi": 72,
      "hit": false,
      "t": 162487.8455000012,
      "d": 52.845541666669305,
      "v": 81
    },
    {
      "midi": 74,
      "hit": false,
      "t": 162528.49591666786,
      "d": 52.8455416666402,
      "v": 87
    },
    {
      "midi": 76,
      "hit": false,
      "t": 162561.01625000118,
      "d": 48.78049999996438,
      "v": 88
    },
    {
      "midi": 81,
      "hit": false,
      "t": 162561.01625000118,
      "d": 121.9512499999255,
      "v": 100
    },
    {
      "midi": 77,
      "hit": false,
      "t": 162601.66666666782,
      "d": 60.97562499996275,
      "v": 89
    },
    {
      "midi": 79,
      "hit": false,
      "t": 162682.9675000011,
      "d": 8.130083333322546,
      "v": 100
    },
    {
      "midi": 81,
      "hit": false,
      "t": 162682.9675000011,
      "d": 48.78049999996438,
      "v": 86
    },
    {
      "midi": 83,
      "hit": false,
      "t": 162723.61791666775,
      "d": 48.78049999996438,
      "v": 87
    },
    {
      "midi": 84,
      "hit": false,
      "t": 162764.2683333344,
      "d": 60.97562499996275,
      "v": 93
    },
    {
      "midi": 86,
      "hit": false,
      "t": 162804.91875000103,
      "d": 69.10570833328529,
      "v": 96
    },
    {
      "midi": 71,
      "hit": false,
      "t": 162845.56916666767,
      "d": 28.45529166664346,
      "v": 81
    },
    {
      "midi": 88,
      "hit": false,
      "t": 162853.699250001,
      "d": 40.65041666664183,
      "v": 77
    },
    {
      "midi": 72,
      "hit": false,
      "t": 162853.699250001,
      "d": 60.97562499996275,
      "v": 95
    },
    {
      "midi": 74,
      "hit": false,
      "t": 162894.34966666764,
      "d": 73.17074999996112,
      "v": 66
    },
    {
      "midi": 81,
      "hit": false,
      "t": 162926.87000000096,
      "d": 121.9512499999255,
      "v": 100
    },
    {
      "midi": 76,
      "hit": false,
      "t": 162935.00008333428,
      "d": 60.97562499996275,
      "v": 76
    },
    {
      "midi": 77,
      "hit": false,
      "t": 162975.65050000092,
      "d": 52.8455416666402,
      "v": 88
    },
    {
      "midi": 79,
      "hit": false,
      "t": 163008.17083333424,
      "d": 48.78049999996438,
      "v": 92
    },
    {
      "midi": 81,
      "hit": false,
      "t": 163048.82125000088,
      "d": 40.65041666664183,
      "v": 92
    },
    {
      "midi": 83,
      "hit": false,
      "t": 163077.27654166752,
      "d": 40.65041666664183,
      "v": 96
    },
    {
      "midi": 84,
      "hit": false,
      "t": 163109.79687500084,
      "d": 48.78049999996438,
      "v": 96
    },
    {
      "midi": 86,
      "hit": false,
      "t": 163138.2521666675,
      "d": 52.8455416666402,
      "v": 100
    },
    {
      "midi": 88,
      "hit": false,
      "t": 163170.7725000008,
      "d": 48.78049999996438,
      "v": 101
    },
    {
      "midi": 89,
      "hit": false,
      "t": 163211.42291666745,
      "d": 40.65041666664183,
      "v": 100
    },
    {
      "midi": 91,
      "hit": false,
      "t": 163239.8782083341,
      "d": 52.8455416666402,
      "v": 101
    },
    {
      "midi": 93,
      "hit": false,
      "t": 163272.3985416674,
      "d": 48.78049999996438,
      "v": 103
    },
    {
      "midi": 95,
      "hit": false,
      "t": 163313.04895833405,
      "d": 48.78049999996438,
      "v": 100
    },
    {
      "midi": 96,
      "hit": false,
      "t": 163353.6993750007,
      "d": 40.65041666664183,
      "v": 101
    },
    {
      "midi": 98,
      "hit": false,
      "t": 163382.15466666734,
      "d": 32.520333333319286,
      "v": 105
    },
    {
      "midi": 88,
      "hit": false,
      "t": 163435.00020833398,
      "d": 20.325208333320916,
      "v": 81
    },
    {
      "midi": 89,
      "hit": false,
      "t": 163435.00020833398,
      "d": 48.78049999996438,
      "v": 103
    },
    {
      "midi": 91,
      "hit": false,
      "t": 163475.65062500062,
      "d": 40.65041666664183,
      "v": 94
    },
    {
      "midi": 93,
      "hit": false,
      "t": 163495.97583333394,
      "d": 40.65041666664183,
      "v": 93
    },
    {
      "midi": 95,
      "hit": false,
      "t": 163524.43112500058,
      "d": 52.845541666669305,
      "v": 98
    },
    {
      "midi": 96,
      "hit": false,
      "t": 163565.08154166726,
      "d": 40.65041666664183,
      "v": 103
    },
    {
      "midi": 98,
      "hit": false,
      "t": 163585.40675000058,
      "d": 52.8455416666402,
      "v": 106
    },
    {
      "midi": 100,
      "hit": false,
      "t": 163626.05716666722,
      "d": 40.65041666664183,
      "v": 105
    },
    {
      "midi": 101,
      "hit": false,
      "t": 163658.57750000054,
      "d": 60.97562499996275,
      "v": 103
    },
    {
      "midi": 103,
      "hit": false,
      "t": 163699.22791666718,
      "d": 48.78049999996438,
      "v": 102
    },
    {
      "midi": 105,
      "hit": false,
      "t": 163739.87833333382,
      "d": 60.97562499996275,
      "v": 105
    },
    {
      "midi": 107,
      "hit": false,
      "t": 163780.52875000046,
      "d": 69.1057083333144,
      "v": 103
    },
    {
      "midi": 108,
      "hit": false,
      "t": 163829.30925000046,
      "d": 60.97562499999185,
      "v": 100
    }
  ]
}