{
  "jsonPath": "Rock/Dance Rock/Stephen Duffy/in-this-twilight-12-version.json",
  "path": "Rock\\Dance Rock\\Stephen Duffy\\In This Twilight (12 Version).mid",
  "name": "In This Twilight (12 Version)",
  "difficulty": "Advanced",
  "bpm": 108.000108000108,
  "notes": [
    {
      "midi": 66,
      "hit": false,
      "t": 3888.885,
      "d": 769.6751562500003,
      "v": 97
    },
    {
      "midi": 50,
      "hit": false,
      "t": 3888.885,
      "d": 4317.1253125,
      "v": 97
    },
    {
      "midi": 66,
      "hit": false,
      "t": 3888.885,
      "d": 769.6751562500003,
      "v": 102
    },
    {
      "midi": 50,
      "hit": false,
      "t": 3888.885,
      "d": 4317.1253125,
      "v": 102
    },
    {
      "midi": 57,
      "hit": false,
      "t": 4444.4400000000005,
      "d": 2384.256875000001,
      "v": 97
    },
    {
      "midi": 57,
      "hit": false,
      "t": 4444.4400000000005,
      "d": 2384.256875000001,
      "v": 102
    },
    {
      "midi": 64,
      "hit": false,
      "t": 4722.217500000001,
      "d": 515.0457812499999,
      "v": 97
    },
    {
      "midi": 64,
      "hit": false,
      "t": 4722.217500000001,
      "d": 515.0457812499999,
      "v": 102
    },
    {
      "midi": 66,
      "hit": false,
      "t": 5277.772500000001,
      "d": 1678.2390625000007,
      "v": 97
    },
    {
      "midi": 66,
      "hit": false,
      "t": 5277.772500000001,
      "d": 1678.2390625000007,
      "v": 102
    },
    {
      "midi": 57,
      "hit": false,
      "t": 6944.437500000002,
      "d": 1417.8226562499985,
      "v": 97
    },
    {
      "midi": 57,
      "hit": false,
      "t": 6944.437500000002,
      "d": 1417.8226562499985,
      "v": 102
    },
    {
      "midi": 64,
      "hit": false,
      "t": 7222.215000000002,
      "d": 231.48124999999982,
      "v": 97
    },
    {
      "midi": 64,
      "hit": false,
      "t": 7222.215000000002,
      "d": 231.48124999999982,
      "v": 102
    },
    {
      "midi": 66,
      "hit": false,
      "t": 7499.992500000002,
      "d": 248.8423437499996,
      "v": 97
    },
    {
      "midi": 66,
      "hit": false,
      "t": 7499.992500000002,
      "d": 248.8423437499996,
      "v": 102
    },
    {
      "midi": 64,
      "hit": false,
      "t": 7777.770000000001,
      "d": 474.5365624999986,
      "v": 97
    },
    {
      "midi": 64,
      "hit": false,
      "t": 7777.770000000001,
      "d": 474.5365624999986,
      "v": 102
    },
    {
      "midi": 66,
      "hit": false,
      "t": 8333.325,
      "d": 584.4901562499999,
      "v": 97
    },
    {
      "midi": 50,
      "hit": false,
      "t": 8333.325,
      "d": 3425.9224999999988,
      "v": 97
    },
    {
      "midi": 66,
      "hit": false,
      "t": 8333.325,
      "d": 584.4901562499999,
      "v": 102
    },
    {
      "midi": 50,
      "hit": false,
      "t": 8333.325,
      "d": 3425.9224999999988,
      "v": 102
    },
    {
      "midi": 57,
      "hit": false,
      "t": 8888.880000000001,
      "d": 2916.663749999998,
      "v": 97
    },
    {
      "midi": 57,
      "hit": false,
      "t": 8888.880000000001,
      "d": 2916.663749999998,
      "v": 102
    },
    {
      "midi": 64,
      "hit": false,
      "t": 9166.657500000001,
      "d": 486.11062499999935,
      "v": 97
    },
    {
      "midi": 64,
      "hit": false,
      "t": 9166.657500000001,
      "d": 486.11062499999935,
      "v": 102
    },
    {
      "midi": 66,
      "hit": false,
      "t": 9722.2125,
      "d": 1655.0909374999992,
      "v": 97
    },
    {
      "midi": 66,
      "hit": false,
      "t": 9722.2125,
      "d": 1655.0909374999992,
      "v": 102
    },
    {
      "midi": 64,
      "hit": false,
      "t": 11388.877499999999,
      "d": 266.2034375000003,
      "v": 97
    },
    {
      "midi": 64,
      "hit": false,
      "t": 11388.877499999999,
      "d": 266.2034375000003,
      "v": 102
    },
    {
      "midi": 62,
      "hit": false,
      "t": 11666.654999999999,
      "d": 92.59250000000065,
      "v": 97
    },
    {
      "midi": 62,
      "hit": false,
      "t": 11666.654999999999,
      "d": 92.59250000000065,
      "v": 102
    },
    {
      "midi": 62,
      "hit": false,
      "t": 19999.98,
      "d": 1527.7762500000026,
      "v": 97
    },
    {
      "midi": 62,
      "hit": false,
      "t": 19999.98,
      "d": 1527.7762500000026,
      "v": 102
    },
    {
      "midi": 64,
      "hit": false,
      "t": 20277.7575,
      "d": 260.41640624999854,
      "v": 97
    },
    {
      "midi": 64,
      "hit": false,
      "t": 20277.7575,
      "d": 260.41640624999854,
      "v": 102
    },
    {
      "midi": 66,
      "hit": false,
      "t": 20555.535,
      "d": 954.8601562500007,
      "v": 97
    },
    {
      "midi": 66,
      "hit": false,
      "t": 20555.535,
      "d": 954.8601562500007,
      "v": 102
    },
    {
      "midi": 66,
      "hit": false,
      "t": 28333.305,
      "d": 335.6478124999994,
      "v": 97
    },
    {
      "midi": 66,
      "hit": false,
      "t": 28333.305,
      "d": 335.6478124999994,
      "v": 102
    },
    {
      "midi": 64,
      "hit": false,
      "t": 28611.0825,
      "d": 277.77750000000015,
      "v": 97
    },
    {
      "midi": 64,
      "hit": false,
      "t": 28611.0825,
      "d": 277.77750000000015,
      "v": 102
    },
    {
      "midi": 62,
      "hit": false,
      "t": 28888.86,
      "d": 1487.2670312500013,
      "v": 97
    },
    {
      "midi": 62,
      "hit": false,
      "t": 28888.86,
      "d": 1487.2670312500013,
      "v": 102
    },
    {
      "midi": 67,
      "hit": false,
      "t": 29166.6375,
      "d": 844.9065625000003,
      "v": 97
    },
    {
      "midi": 67,
      "hit": false,
      "t": 29166.6375,
      "d": 844.9065625000003,
      "v": 102
    },
    {
      "midi": 71,
      "hit": false,
      "t": 29999.97,
      "d": 503.4717187499991,
      "v": 97
    },
    {
      "midi": 71,
      "hit": false,
      "t": 29999.97,
      "d": 503.4717187499991,
      "v": 102
    },
    {
      "midi": 69,
      "hit": false,
      "t": 30555.525,
      "d": 590.2771875000035,
      "v": 97
    },
    {
      "midi": 69,
      "hit": false,
      "t": 30555.525,
      "d": 590.2771875000035,
      "v": 102
    },
    {
      "midi": 74,
      "hit": false,
      "t": 30833.3025,
      "d": 306.7126562500016,
      "v": 97
    },
    {
      "midi": 74,
      "hit": false,
      "t": 30833.3025,
      "d": 306.7126562500016,
      "v": 102
    },
    {
      "midi": 78,
      "hit": false,
      "t": 31111.08,
      "d": 248.84234375000233,
      "v": 97
    },
    {
      "midi": 78,
      "hit": false,
      "t": 31111.08,
      "d": 248.84234375000233,
      "v": 102
    },
    {
      "midi": 79,
      "hit": false,
      "t": 31388.857500000006,
      "d": 966.4342187500006,
      "v": 97
    },
    {
      "midi": 71,
      "hit": false,
      "t": 31388.857500000006,
      "d": 1018.5175000000017,
      "v": 97
    },
    {
      "midi": 79,
      "hit": false,
      "t": 31388.857500000006,
      "d": 966.4342187500006,
      "v": 102
    },
    {
      "midi": 71,
      "hit": false,
      "t": 31388.857500000006,
      "d": 1018.5175000000017,
      "v": 102
    },
    {
      "midi": 66,
      "hit": false,
      "t": 32777.74500000001,
      "d": 3096.0617187499956,
      "v": 97
    },
    {
      "midi": 50,
      "hit": false,
      "t": 32777.74500000001,
      "d": 8072.908593749984,
      "v": 97
    },
    {
      "midi": 66,
      "hit": false,
      "t": 32777.74500000001,
      "d": 3096.0617187499956,
      "v": 107
    },
    {
      "midi": 50,
      "hit": false,
      "t": 32777.74500000001,
      "d": 8072.908593749984,
      "v": 107
    },
    {
      "midi": 57,
      "hit": false,
      "t": 34166.63250000001,
      "d": 1562.4984374999985,
      "v": 97
    },
    {
      "midi": 57,
      "hit": false,
      "t": 34166.63250000001,
      "d": 1562.4984374999985,
      "v": 107
    },
    {
      "midi": 62,
      "hit": false,
      "t": 34444.41,
      "d": 1545.1373437500006,
      "v": 97
    },
    {
      "midi": 62,
      "hit": false,
      "t": 34444.41,
      "d": 1545.1373437500006,
      "v": 107
    },
    {
      "midi": 54,
      "hit": false,
      "t": 34999.965000000004,
      "d": 1556.7114062499968,
      "v": 97
    },
    {
      "midi": 54,
      "hit": false,
      "t": 34999.965000000004,
      "d": 1556.7114062499968,
      "v": 107
    },
    {
      "midi": 57,
      "hit": false,
      "t": 35833.29750000001,
      "d": 729.1659374999945,
      "v": 97
    },
    {
      "midi": 57,
      "hit": false,
      "t": 35833.29750000001,
      "d": 729.1659374999945,
      "v": 107
    },
    {
      "midi": 66,
      "hit": false,
      "t": 36111.075000000004,
      "d": 931.7120312500047,
      "v": 97
    },
    {
      "midi": 66,
      "hit": false,
      "t": 36111.075000000004,
      "d": 931.7120312500047,
      "v": 107
    },
    {
      "midi": 62,
      "hit": false,
      "t": 36388.8525,
      "d": 624.9993750000067,
      "v": 97
    },
    {
      "midi": 62,
      "hit": false,
      "t": 36388.8525,
      "d": 624.9993750000067,
      "v": 107
    },
    {
      "midi": 57,
      "hit": false,
      "t": 36666.630000000005,
      "d": 341.43484375000116,
      "v": 97
    },
    {
      "midi": 57,
      "hit": false,
      "t": 36666.630000000005,
      "d": 341.43484375000116,
      "v": 107
    },
    {
      "midi": 74,
      "hit": false,
      "t": 37222.18500000001,
      "d": 1765.0445312499942,
      "v": 97
    },
    {
      "midi": 55,
      "hit": false,
      "t": 37222.18500000001,
      "d": 3611.1074999999837,
      "v": 97
    },
    {
      "midi": 74,
      "hit": false,
      "t": 37222.18500000001,
      "d": 1765.0445312499942,
      "v": 107
    },
    {
      "midi": 55,
      "hit": false,
      "t": 37222.18500000001,
      "d": 3611.1074999999837,
      "v": 107
    },
    {
      "midi": 67,
      "hit": false,
      "t": 37777.74000000001,
      "d": 896.9898437499942,
      "v": 97
    },
    {
      "midi": 67,
      "hit": false,
      "t": 37777.74000000001,
      "d": 896.9898437499942,
      "v": 107
    },
    {
      "midi": 69,
      "hit": false,
      "t": 38055.51750000001,
      "d": 526.6198437499988,
      "v": 97
    },
    {
      "midi": 69,
      "hit": false,
      "t": 38055.51750000001,
      "d": 526.6198437499988,
      "v": 107
    },
    {
      "midi": 71,
      "hit": false,
      "t": 38611.07250000001,
      "d": 781.2492187499956,
      "v": 97
    },
    {
      "midi": 71,
      "hit": false,
      "t": 38611.07250000001,
      "d": 781.2492187499956,
      "v": 107
    },
    {
      "midi": 59,
      "hit": false,
      "t": 39444.405000000006,
      "d": 1325.2301562499924,
      "v": 97
    },
    {
      "midi": 74,
      "hit": false,
      "t": 39444.405000000006,
      "d": 1817.127812499988,
      "v": 97
    },
    {
      "midi": 59,
      "hit": false,
      "t": 39444.405000000006,
      "d": 1325.2301562499924,
      "v": 107
    },
    {
      "midi": 74,
      "hit": false,
      "t": 39444.405000000006,
      "d": 1817.127812499988,
      "v": 107
    },
    {
      "midi": 67,
      "hit": false,
      "t": 40277.7375,
      "d": 277.7774999999965,
      "v": 97
    },
    {
      "midi": 67,
      "hit": false,
      "t": 40277.7375,
      "d": 277.7774999999965,
      "v": 107
    },
    {
      "midi": 71,
      "hit": false,
      "t": 40555.515,
      "d": 306.71265624999796,
      "v": 97
    },
    {
      "midi": 71,
      "hit": false,
      "t": 40555.515,
      "d": 306.71265624999796,
      "v": 107
    },
    {
      "midi": 69,
      "hit": false,
      "t": 40833.292499999996,
      "d": 260.41640624999854,
      "v": 97
    },
    {
      "midi": 69,
      "hit": false,
      "t": 40833.292499999996,
      "d": 260.41640624999854,
      "v": 107
    },
    {
      "midi": 67,
      "hit": false,
      "t": 41111.06999999999,
      "d": 405.09218749999854,
      "v": 97
    },
    {
      "midi": 67,
      "hit": false,
      "t": 41111.06999999999,
      "d": 405.09218749999854,
      "v": 107
    },
    {
      "midi": 64,
      "hit": false,
      "t": 41666.62499999999,
      "d": 1290.5079687499965,
      "v": 97
    },
    {
      "midi": 52,
      "hit": false,
      "t": 41666.62499999999,
      "d": 1828.7018749999988,
      "v": 97
    },
    {
      "midi": 45,
      "hit": false,
      "t": 41666.62499999999,
      "d": 3796.292499999996,
      "v": 97
    },
    {
      "midi": 64,
      "hit": false,
      "t": 41666.62499999999,
      "d": 1290.5079687499965,
      "v": 107
    },
    {
      "midi": 52,
      "hit": false,
      "t": 41666.62499999999,
      "d": 1828.7018749999988,
      "v": 107
    },
    {
      "midi": 45,
      "hit": false,
      "t": 41666.62499999999,
      "d": 3796.292499999996,
      "v": 107
    },
    {
      "midi": 57,
      "hit": false,
      "t": 42222.17999999999,
      "d": 2320.5995312500017,
      "v": 97
    },
    {
      "midi": 57,
      "hit": false,
      "t": 42222.17999999999,
      "d": 2320.5995312500017,
      "v": 107
    },
    {
      "midi": 59,
      "hit": false,
      "t": 42499.95749999999,
      "d": 538.1939062500023,
      "v": 97
    },
    {
      "midi": 59,
      "hit": false,
      "t": 42499.95749999999,
      "d": 538.1939062500023,
      "v": 107
    },
    {
      "midi": 61,
      "hit": false,
      "t": 43055.51249999999,
      "d": 1649.303906250003,
      "v": 97
    },
    {
      "midi": 61,
      "hit": false,
      "t": 43055.51249999999,
      "d": 1649.303906250003,
      "v": 107
    },
    {
      "midi": 52,
      "hit": false,
      "t": 43888.844999999994,
      "d": 1730.322343749991,
      "v": 97
    },
    {
      "midi": 52,
      "hit": false,
      "t": 43888.844999999994,
      "d": 1730.322343749991,
      "v": 107
    },
    {
      "midi": 57,
      "hit": false,
      "t": 44722.17749999999,
      "d": 1319.4431249999907,
      "v": 97
    },
    {
      "midi": 57,
      "hit": false,
      "t": 44722.17749999999,
      "d": 1319.4431249999907,
      "v": 107
    },
    {
      "midi": 64,
      "hit": false,
      "t": 44999.95499999999,
      "d": 526.6198437499988,
      "v": 97
    },
    {
      "midi": 64,
      "hit": false,
      "t": 44999.95499999999,
      "d": 526.6198437499988,
      "v": 107
    },
    {
      "midi": 69,
      "hit": false,
      "t": 45555.50999999999,
      "d": 1307.8690624999945,
      "v": 97
    },
    {
      "midi": 69,
      "hit": false,
      "t": 45555.50999999999,
      "d": 1307.8690624999945,
      "v": 107
    },
    {
      "midi": 62,
      "hit": false,
      "t": 46111.06499999998,
      "d": 549.7679687499985,
      "v": 97
    },
    {
      "midi": 50,
      "hit": false,
      "t": 46111.06499999998,
      "d": 3946.7553124999977,
      "v": 97
    },
    {
      "midi": 62,
      "hit": false,
      "t": 46111.06499999998,
      "d": 549.7679687499985,
      "v": 107
    },
    {
      "midi": 50,
      "hit": false,
      "t": 46111.06499999998,
      "d": 3946.7553124999977,
      "v": 107
    },
    {
      "midi": 57,
      "hit": false,
      "t": 46666.61999999998,
      "d": 1684.0260937499988,
      "v": 97
    },
    {
      "midi": 57,
      "hit": false,
      "t": 46666.61999999998,
      "d": 1684.0260937499988,
      "v": 107
    },
    {
      "midi": 62,
      "hit": false,
      "t": 46944.397499999985,
      "d": 526.6198437499988,
      "v": 97
    },
    {
      "midi": 62,
      "hit": false,
      "t": 46944.397499999985,
      "d": 526.6198437499988,
      "v": 107
    },
    {
      "midi": 69,
      "hit": false,
      "t": 47499.952499999985,
      "d": 347.22187499999563,
      "v": 97
    },
    {
      "midi": 69,
      "hit": false,
      "t": 47499.952499999985,
      "d": 347.22187499999563,
      "v": 107
    },
    {
      "midi": 67,
      "hit": false,
      "t": 47777.72999999998,
      "d": 607.6382812500015,
      "v": 97
    },
    {
      "midi": 67,
      "hit": false,
      "t": 47777.72999999998,
      "d": 607.6382812500015,
      "v": 107
    },
    {
      "midi": 66,
      "hit": false,
      "t": 48333.28499999998,
      "d": 434.02734375,
      "v": 97
    },
    {
      "midi": 66,
      "hit": false,
      "t": 48333.28499999998,
      "d": 434.02734375,
      "v": 107
    },
    {
      "midi": 62,
      "hit": false,
      "t": 48888.83999999998,
      "d": 422.4532812499965,
      "v": 97
    },
    {
      "midi": 66,
      "hit": false,
      "t": 48888.83999999998,
      "d": 555.554999999993,
      "v": 97
    },
    {
      "midi": 62,
      "hit": false,
      "t": 48888.83999999998,
      "d": 422.4532812499965,
      "v": 107
    },
    {
      "midi": 66,
      "hit": false,
      "t": 48888.83999999998,
      "d": 555.554999999993,
      "v": 107
    },
    {
      "midi": 64,
      "hit": false,
      "t": 49444.394999999975,
      "d": 486.11062500000116,
      "v": 97
    },
    {
      "midi": 67,
      "hit": false,
      "t": 49444.394999999975,
      "d": 515.0457812500026,
      "v": 97
    },
    {
      "midi": 64,
      "hit": false,
      "t": 49444.394999999975,
      "d": 486.11062500000116,
      "v": 107
    },
    {
      "midi": 67,
      "hit": false,
      "t": 49444.394999999975,
      "d": 515.0457812500026,
      "v": 107
    },
    {
      "midi": 69,
      "hit": false,
      "t": 49999.949999999975,
      "d": 497.68468750000466,
      "v": 97
    },
    {
      "midi": 66,
      "hit": false,
      "t": 49999.949999999975,
      "d": 515.0457812500026,
      "v": 97
    },
    {
      "midi": 69,
      "hit": false,
      "t": 49999.949999999975,
      "d": 497.68468750000466,
      "v": 107
    },
    {
      "midi": 66,
      "hit": false,
      "t": 49999.949999999975,
      "d": 515.0457812500026,
      "v": 107
    },
    {
      "midi": 55,
      "hit": false,
      "t": 50555.504999999976,
      "d": 4224.532812499987,
      "v": 97
    },
    {
      "midi": 55,
      "hit": false,
      "t": 50555.504999999976,
      "d": 4224.532812499987,
      "v": 107
    },
    {
      "midi": 67,
      "hit": false,
      "t": 51666.614999999976,
      "d": 1116.897031249995,
      "v": 97
    },
    {
      "midi": 67,
      "hit": false,
      "t": 51666.614999999976,
      "d": 1116.897031249995,
      "v": 107
    },
    {
      "midi": 62,
      "hit": false,
      "t": 51944.39249999997,
      "d": 254.6293749999968,
      "v": 97
    },
    {
      "midi": 62,
      "hit": false,
      "t": 51944.39249999997,
      "d": 254.6293749999968,
      "v": 107
    },
    {
      "midi": 59,
      "hit": false,
      "t": 52222.16999999997,
      "d": 549.7679687499985,
      "v": 97
    },
    {
      "midi": 59,
      "hit": false,
      "t": 52222.16999999997,
      "d": 549.7679687499985,
      "v": 107
    },
    {
      "midi": 61,
      "hit": false,
      "t": 52777.72499999997,
      "d": 792.8232812499991,
      "v": 97
    },
    {
      "midi": 61,
      "hit": false,
      "t": 52777.72499999997,
      "d": 792.8232812499991,
      "v": 107
    },
    {
      "midi": 61,
      "hit": false,
      "t": 53611.057499999966,
      "d": 260.41640624999854,
      "v": 97
    },
    {
      "midi": 61,
      "hit": false,
      "t": 53611.057499999966,
      "d": 260.41640624999854,
      "v": 107
    },
    {
      "midi": 69,
      "hit": false,
      "t": 53888.83499999996,
      "d": 908.5639062499977,
      "v": 97
    },
    {
      "midi": 69,
      "hit": false,
      "t": 53888.83499999996,
      "d": 908.5639062499977,
      "v": 107
    },
    {
      "midi": 66,
      "hit": false,
      "t": 54999.94499999996,
      "d": 381.94406249999884,
      "v": 97
    },
    {
      "midi": 50,
      "hit": false,
      "t": 54999.94499999996,
      "d": 804.3973437499953,
      "v": 97
    },
    {
      "midi": 66,
      "hit": false,
      "t": 54999.94499999996,
      "d": 381.94406249999884,
      "v": 107
    },
    {
      "midi": 50,
      "hit": false,
      "t": 54999.94499999996,
      "d": 804.3973437499953,
      "v": 107
    },
    {
      "midi": 64,
      "hit": false,
      "t": 56111.05499999996,
      "d": 879.6287500000035,
      "v": 97
    },
    {
      "midi": 64,
      "hit": false,
      "t": 56111.05499999996,
      "d": 879.6287500000035,
      "v": 107
    },
    {
      "midi": 59,
      "hit": false,
      "t": 57222.16499999996,
      "d": 289.3515625,
      "v": 97
    },
    {
      "midi": 59,
      "hit": false,
      "t": 57222.16499999996,
      "d": 289.3515625,
      "v": 107
    },
    {
      "midi": 61,
      "hit": false,
      "t": 57499.942499999954,
      "d": 277.7775000000038,
      "v": 97
    },
    {
      "midi": 61,
      "hit": false,
      "t": 57499.942499999954,
      "d": 277.7775000000038,
      "v": 107
    },
    {
      "midi": 62,
      "hit": false,
      "t": 57777.71999999996,
      "d": 266.2034375000003,
      "v": 97
    },
    {
      "midi": 62,
      "hit": false,
      "t": 57777.71999999996,
      "d": 266.2034375000003,
      "v": 107
    },
    {
      "midi": 64,
      "hit": false,
      "t": 58055.49749999996,
      "d": 283.56453124999825,
      "v": 97
    },
    {
      "midi": 64,
      "hit": false,
      "t": 58055.49749999996,
      "d": 283.56453124999825,
      "v": 107
    },
    {
      "midi": 66,
      "hit": false,
      "t": 58333.27499999996,
      "d": 1047.4526562500032,
      "v": 97
    },
    {
      "midi": 66,
      "hit": false,
      "t": 58333.27499999996,
      "d": 1047.4526562500032,
      "v": 107
    },
    {
      "midi": 67,
      "hit": false,
      "t": 59444.38499999996,
      "d": 2228.0070312499956,
      "v": 97
    },
    {
      "midi": 55,
      "hit": false,
      "t": 59444.38499999996,
      "d": 2251.1551562499953,
      "v": 97
    },
    {
      "midi": 67,
      "hit": false,
      "t": 59444.38499999996,
      "d": 2228.0070312499956,
      "v": 107
    },
    {
      "midi": 55,
      "hit": false,
      "t": 59444.38499999996,
      "d": 2251.1551562499953,
      "v": 107
    },
    {
      "midi": 59,
      "hit": false,
      "t": 60833.272499999955,
      "d": 300.9256249999962,
      "v": 97
    },
    {
      "midi": 59,
      "hit": false,
      "t": 60833.272499999955,
      "d": 300.9256249999962,
      "v": 107
    },
    {
      "midi": 62,
      "hit": false,
      "t": 61111.04999999995,
      "d": 520.8328124999971,
      "v": 97
    },
    {
      "midi": 62,
      "hit": false,
      "t": 61111.04999999995,
      "d": 520.8328124999971,
      "v": 107
    },
    {
      "midi": 57,
      "hit": false,
      "t": 61666.60499999995,
      "d": 2216.4329687499994,
      "v": 97
    },
    {
      "midi": 57,
      "hit": false,
      "t": 61666.60499999995,
      "d": 2216.4329687499994,
      "v": 107
    },
    {
      "midi": 61,
      "hit": false,
      "t": 62499.937499999956,
      "d": 46.29624999999942,
      "v": 97
    },
    {
      "midi": 61,
      "hit": false,
      "t": 62499.937499999956,
      "d": 46.29624999999942,
      "v": 107
    },
    {
      "midi": 61,
      "hit": false,
      "t": 62777.71499999995,
      "d": 503.4717187499991,
      "v": 97
    },
    {
      "midi": 69,
      "hit": false,
      "t": 62777.71499999995,
      "d": 567.1290625000038,
      "v": 97
    },
    {
      "midi": 61,
      "hit": false,
      "t": 62777.71499999995,
      "d": 503.4717187499991,
      "v": 107
    },
    {
      "midi": 69,
      "hit": false,
      "t": 62777.71499999995,
      "d": 567.1290625000038,
      "v": 107
    },
    {
      "midi": 61,
      "hit": false,
      "t": 63333.26999999995,
      "d": 439.81437500000175,
      "v": 97
    },
    {
      "midi": 67,
      "hit": false,
      "t": 63333.26999999995,
      "d": 572.9160937499983,
      "v": 97
    },
    {
      "midi": 61,
      "hit": false,
      "t": 63333.26999999995,
      "d": 439.81437500000175,
      "v": 107
    },
    {
      "midi": 67,
      "hit": false,
      "t": 63333.26999999995,
      "d": 572.9160937499983,
      "v": 107
    },
    {
      "midi": 66,
      "hit": false,
      "t": 63888.82499999995,
      "d": 596.0642187499907,
      "v": 97
    },
    {
      "midi": 54,
      "hit": false,
      "t": 63888.82499999995,
      "d": 1365.73937499999,
      "v": 97
    },
    {
      "midi": 50,
      "hit": false,
      "t": 63888.82499999995,
      "d": 1886.5721875000017,
      "v": 97
    },
    {
      "midi": 66,
      "hit": false,
      "t": 63888.82499999995,
      "d": 596.0642187499907,
      "v": 107
    },
    {
      "midi": 54,
      "hit": false,
      "t": 63888.82499999995,
      "d": 1365.73937499999,
      "v": 107
    },
    {
      "midi": 50,
      "hit": false,
      "t": 63888.82499999995,
      "d": 1886.5721875000017,
      "v": 107
    },
    {
      "midi": 64,
      "hit": false,
      "t": 64166.60249999995,
      "d": 335.64781249999214,
      "v": 97
    },
    {
      "midi": 64,
      "hit": false,
      "t": 64166.60249999995,
      "d": 335.64781249999214,
      "v": 107
    },
    {
      "midi": 62,
      "hit": false,
      "t": 64444.37999999995,
      "d": 208.33312499999738,
      "v": 97
    },
    {
      "midi": 62,
      "hit": false,
      "t": 64444.37999999995,
      "d": 208.33312499999738,
      "v": 107
    },
    {
      "midi": 62,
      "hit": false,
      "t": 64722.15749999994,
      "d": 567.1290625000038,
      "v": 97
    },
    {
      "midi": 55,
      "hit": false,
      "t": 64722.15749999994,
      "d": 943.2860937500081,
      "v": 97
    },
    {
      "midi": 62,
      "hit": false,
      "t": 64722.15749999994,
      "d": 567.1290625000038,
      "v": 107
    },
    {
      "midi": 55,
      "hit": false,
      "t": 64722.15749999994,
      "d": 943.2860937500081,
      "v": 107
    },
    {
      "midi": 59,
      "hit": false,
      "t": 65277.71249999994,
      "d": 300.92562500001077,
      "v": 97
    },
    {
      "midi": 59,
      "hit": false,
      "t": 65277.71249999994,
      "d": 300.92562500001077,
      "v": 107
    },
    {
      "midi": 62,
      "hit": false,
      "t": 65555.48999999995,
      "d": 480.32359375001397,
      "v": 97
    },
    {
      "midi": 62,
      "hit": false,
      "t": 65555.48999999995,
      "d": 480.32359375001397,
      "v": 107
    },
    {
      "midi": 69,
      "hit": false,
      "t": 66111.04499999995,
      "d": 318.2867187499942,
      "v": 97
    },
    {
      "midi": 50,
      "hit": false,
      "t": 66111.04499999995,
      "d": 6331.0121874999895,
      "v": 97
    },
    {
      "midi": 69,
      "hit": false,
      "t": 66111.04499999995,
      "d": 318.2867187499942,
      "v": 107
    },
    {
      "midi": 50,
      "hit": false,
      "t": 66111.04499999995,
      "d": 6331.0121874999895,
      "v": 107
    },
    {
      "midi": 66,
      "hit": false,
      "t": 66388.82249999995,
      "d": 306.7126562499907,
      "v": 97
    },
    {
      "midi": 66,
      "hit": false,
      "t": 66388.82249999995,
      "d": 306.7126562499907,
      "v": 107
    },
    {
      "midi": 64,
      "hit": false,
      "t": 66666.59999999995,
      "d": 266.203437499993,
      "v": 97
    },
    {
      "midi": 64,
      "hit": false,
      "t": 66666.59999999995,
      "d": 266.203437499993,
      "v": 107
    },
    {
      "midi": 55,
      "hit": false,
      "t": 66944.37749999994,
      "d": 1134.258124999993,
      "v": 97
    },
    {
      "midi": 62,
      "hit": false,
      "t": 66944.37749999994,
      "d": 1440.9707812499983,
      "v": 97
    },
    {
      "midi": 55,
      "hit": false,
      "t": 66944.37749999994,
      "d": 1134.258124999993,
      "v": 107
    },
    {
      "midi": 62,
      "hit": false,
      "t": 66944.37749999994,
      "d": 1440.9707812499983,
      "v": 107
    },
    {
      "midi": 55,
      "hit": false,
      "t": 72777.70499999994,
      "d": 3917.82015624996,
      "v": 97
    },
    {
      "midi": 55,
      "hit": false,
      "t": 72777.70499999994,
      "d": 3917.82015624996,
      "v": 107
    },
    {
      "midi": 59,
      "hit": false,
      "t": 73333.25999999994,
      "d": 2256.942187499968,
      "v": 97
    },
    {
      "midi": 59,
      "hit": false,
      "t": 73333.25999999994,
      "d": 2256.942187499968,
      "v": 107
    },
    {
      "midi": 62,
      "hit": false,
      "t": 73888.81499999993,
      "d": 428.24031249999825,
      "v": 97
    },
    {
      "midi": 62,
      "hit": false,
      "t": 73888.81499999993,
      "d": 428.24031249999825,
      "v": 107
    },
    {
      "midi": 67,
      "hit": false,
      "t": 74444.36999999992,
      "d": 480.3235937499994,
      "v": 97
    },
    {
      "midi": 67,
      "hit": false,
      "t": 74444.36999999992,
      "d": 480.3235937499994,
      "v": 107
    },
    {
      "midi": 61,
      "hit": false,
      "t": 74999.92499999992,
      "d": 480.3235937499994,
      "v": 97
    },
    {
      "midi": 61,
      "hit": false,
      "t": 74999.92499999992,
      "d": 480.3235937499994,
      "v": 107
    },
    {
      "midi": 62,
      "hit": false,
      "t": 75555.47999999991,
      "d": 260.41640624999127,
      "v": 97
    },
    {
      "midi": 62,
      "hit": false,
      "t": 75555.47999999991,
      "d": 260.41640624999127,
      "v": 107
    },
    {
      "midi": 59,
      "hit": false,
      "t": 75833.2574999999,
      "d": 1342.5912499999977,
      "v": 97
    },
    {
      "midi": 59,
      "hit": false,
      "t": 75833.2574999999,
      "d": 1342.5912499999977,
      "v": 107
    },
    {
      "midi": 45,
      "hit": false,
      "t": 77222.1449999999,
      "d": 3784.718437500007,
      "v": 97
    },
    {
      "midi": 45,
      "hit": false,
      "t": 77222.1449999999,
      "d": 3784.718437500007,
      "v": 107
    },
    {
      "midi": 52,
      "hit": false,
      "t": 78055.4774999999,
      "d": 2795.1360937499994,
      "v": 97
    },
    {
      "midi": 52,
      "hit": false,
      "t": 78055.4774999999,
      "d": 2795.1360937499994,
      "v": 107
    },
    {
      "midi": 57,
      "hit": false,
      "t": 78611.0324999999,
      "d": 1932.8684375000012,
      "v": 97
    },
    {
      "midi": 57,
      "hit": false,
      "t": 78611.0324999999,
      "d": 1932.8684375000012,
      "v": 107
    },
    {
      "midi": 61,
      "hit": false,
      "t": 78888.8099999999,
      "d": 538.1939062500023,
      "v": 97
    },
    {
      "midi": 61,
      "hit": false,
      "t": 78888.8099999999,
      "d": 538.1939062500023,
      "v": 107
    },
    {
      "midi": 64,
      "hit": false,
      "t": 79444.3649999999,
      "d": 856.4806249999965,
      "v": 97
    },
    {
      "midi": 64,
      "hit": false,
      "t": 79444.3649999999,
      "d": 856.4806249999965,
      "v": 107
    },
    {
      "midi": 61,
      "hit": false,
      "t": 80555.4749999999,
      "d": 758.1010937500105,
      "v": 97
    },
    {
      "midi": 69,
      "hit": false,
      "t": 80555.4749999999,
      "d": 925.9250000000175,
      "v": 97
    },
    {
      "midi": 61,
      "hit": false,
      "t": 80555.4749999999,
      "d": 758.1010937500105,
      "v": 107
    },
    {
      "midi": 69,
      "hit": false,
      "t": 80555.4749999999,
      "d": 925.9250000000175,
      "v": 107
    },
    {
      "midi": 67,
      "hit": false,
      "t": 81666.58499999992,
      "d": 810.1843749999971,
      "v": 97
    },
    {
      "midi": 67,
      "hit": false,
      "t": 81666.58499999992,
      "d": 810.1843749999971,
      "v": 102
    },
    {
      "midi": 66,
      "hit": false,
      "t": 82499.91749999992,
      "d": 775.4621875000012,
      "v": 97
    },
    {
      "midi": 66,
      "hit": false,
      "t": 82499.91749999992,
      "d": 775.4621875000012,
      "v": 102
    },
    {
      "midi": 67,
      "hit": false,
      "t": 83333.24999999993,
      "d": 243.05531250000058,
      "v": 97
    },
    {
      "midi": 67,
      "hit": false,
      "t": 83333.24999999993,
      "d": 243.05531250000058,
      "v": 102
    },
    {
      "midi": 69,
      "hit": false,
      "t": 83611.02749999992,
      "d": 254.62937500000407,
      "v": 97
    },
    {
      "midi": 69,
      "hit": false,
      "t": 83611.02749999992,
      "d": 254.62937500000407,
      "v": 102
    },
    {
      "midi": 66,
      "hit": false,
      "t": 83888.80499999993,
      "d": 162.03687500000524,
      "v": 97
    },
    {
      "midi": 66,
      "hit": false,
      "t": 83888.80499999993,
      "d": 162.03687500000524,
      "v": 102
    },
    {
      "midi": 62,
      "hit": false,
      "t": 84444.35999999994,
      "d": 474.5365624999977,
      "v": 97
    },
    {
      "midi": 66,
      "hit": false,
      "t": 84444.35999999994,
      "d": 509.2587499999936,
      "v": 97
    },
    {
      "midi": 62,
      "hit": false,
      "t": 84444.35999999994,
      "d": 474.5365624999977,
      "v": 102
    },
    {
      "midi": 66,
      "hit": false,
      "t": 84444.35999999994,
      "d": 509.2587499999936,
      "v": 102
    },
    {
      "midi": 67,
      "hit": false,
      "t": 84999.91499999994,
      "d": 491.8976562500029,
      "v": 97
    },
    {
      "midi": 64,
      "hit": false,
      "t": 84999.91499999994,
      "d": 497.68468750000466,
      "v": 97
    },
    {
      "midi": 67,
      "hit": false,
      "t": 84999.91499999994,
      "d": 491.8976562500029,
      "v": 102
    },
    {
      "midi": 64,
      "hit": false,
      "t": 84999.91499999994,
      "d": 497.68468750000466,
      "v": 102
    },
    {
      "midi": 66,
      "hit": false,
      "t": 85555.46999999994,
      "d": 526.6198437499988,
      "v": 97
    },
    {
      "midi": 69,
      "hit": false,
      "t": 85555.46999999994,
      "d": 613.4253124999959,
      "v": 97
    },
    {
      "midi": 66,
      "hit": false,
      "t": 85555.46999999994,
      "d": 526.6198437499988,
      "v": 102
    },
    {
      "midi": 69,
      "hit": false,
      "t": 85555.46999999994,
      "d": 613.4253124999959,
      "v": 102
    },
    {
      "midi": 55,
      "hit": false,
      "t": 86111.02499999994,
      "d": 3339.117031249989,
      "v": 97
    },
    {
      "midi": 67,
      "hit": false,
      "t": 86111.02499999994,
      "d": 3553.2371874999953,
      "v": 97
    },
    {
      "midi": 55,
      "hit": false,
      "t": 86111.02499999994,
      "d": 3339.117031249989,
      "v": 102
    },
    {
      "midi": 67,
      "hit": false,
      "t": 86111.02499999994,
      "d": 3553.2371874999953,
      "v": 102
    },
    {
      "midi": 59,
      "hit": false,
      "t": 87222.13499999994,
      "d": 584.4901562499872,
      "v": 97
    },
    {
      "midi": 59,
      "hit": false,
      "t": 87222.13499999994,
      "d": 584.4901562499872,
      "v": 102
    },
    {
      "midi": 62,
      "hit": false,
      "t": 87777.68999999993,
      "d": 515.0457812499953,
      "v": 97
    },
    {
      "midi": 62,
      "hit": false,
      "t": 87777.68999999993,
      "d": 515.0457812499953,
      "v": 102
    },
    {
      "midi": 64,
      "hit": false,
      "t": 88333.24499999992,
      "d": 1394.6745312500134,
      "v": 97
    },
    {
      "midi": 64,
      "hit": false,
      "t": 88333.24499999992,
      "d": 1394.6745312500134,
      "v": 102
    },
    {
      "midi": 57,
      "hit": false,
      "t": 89722.13249999993,
      "d": 758.1010937499959,
      "v": 97
    },
    {
      "midi": 57,
      "hit": false,
      "t": 89722.13249999993,
      "d": 758.1010937499959,
      "v": 102
    },
    {
      "midi": 64,
      "hit": false,
      "t": 89999.90999999993,
      "d": 509.2587499999936,
      "v": 97
    },
    {
      "midi": 64,
      "hit": false,
      "t": 89999.90999999993,
      "d": 509.2587499999936,
      "v": 102
    },
    {
      "midi": 54,
      "hit": false,
      "t": 90555.46499999992,
      "d": 1012.73046875,
      "v": 97
    },
    {
      "midi": 66,
      "hit": false,
      "t": 90555.46499999992,
      "d": 1128.4710937500058,
      "v": 97
    },
    {
      "midi": 54,
      "hit": false,
      "t": 90555.46499999992,
      "d": 1012.73046875,
      "v": 102
    },
    {
      "midi": 66,
      "hit": false,
      "t": 90555.46499999992,
      "d": 1128.4710937500058,
      "v": 102
    },
    {
      "midi": 64,
      "hit": false,
      "t": 91666.57499999992,
      "d": 989.5823437500076,
      "v": 97
    },
    {
      "midi": 64,
      "hit": false,
      "t": 91666.57499999992,
      "d": 989.5823437500076,
      "v": 102
    },
    {
      "midi": 59,
      "hit": false,
      "t": 92777.68499999992,
      "d": 277.7774999999965,
      "v": 97
    },
    {
      "midi": 59,
      "hit": false,
      "t": 92777.68499999992,
      "d": 277.7774999999965,
      "v": 102
    },
    {
      "midi": 61,
      "hit": false,
      "t": 93055.46249999992,
      "d": 248.84234375000233,
      "v": 97
    },
    {
      "midi": 61,
      "hit": false,
      "t": 93055.46249999992,
      "d": 248.84234375000233,
      "v": 102
    },
    {
      "midi": 62,
      "hit": false,
      "t": 93333.23999999992,
      "d": 248.84234375000233,
      "v": 97
    },
    {
      "midi": 62,
      "hit": false,
      "t": 93333.23999999992,
      "d": 248.84234375000233,
      "v": 102
    },
    {
      "midi": 66,
      "hit": false,
      "t": 93611.01749999991,
      "d": 1377.3134374999936,
      "v": 97
    },
    {
      "midi": 66,
      "hit": false,
      "t": 93611.01749999991,
      "d": 1377.3134374999936,
      "v": 102
    },
    {
      "midi": 55,
      "hit": false,
      "t": 94999.90499999991,
      "d": 3993.0515624999825,
      "v": 97
    },
    {
      "midi": 67,
      "hit": false,
      "t": 94999.90499999991,
      "d": 4068.282968749976,
      "v": 97
    },
    {
      "midi": 55,
      "hit": false,
      "t": 94999.90499999991,
      "d": 3993.0515624999825,
      "v": 102
    },
    {
      "midi": 67,
      "hit": false,
      "t": 94999.90499999991,
      "d": 4068.282968749976,
      "v": 102
    },
    {
      "midi": 59,
      "hit": false,
      "t": 96666.5699999999,
      "d": 584.4901562499872,
      "v": 97
    },
    {
      "midi": 59,
      "hit": false,
      "t": 96666.5699999999,
      "d": 584.4901562499872,
      "v": 102
    },
    {
      "midi": 61,
      "hit": false,
      "t": 97222.1249999999,
      "d": 1435.1837499999965,
      "v": 97
    },
    {
      "midi": 61,
      "hit": false,
      "t": 97222.1249999999,
      "d": 1435.1837499999965,
      "v": 102
    },
    {
      "midi": 62,
      "hit": false,
      "t": 99444.34499999988,
      "d": 202.5460937500029,
      "v": 97
    },
    {
      "midi": 66,
      "hit": false,
      "t": 99444.34499999988,
      "d": 312.49968749999243,
      "v": 97
    },
    {
      "midi": 62,
      "hit": false,
      "t": 99444.34499999988,
      "d": 202.5460937500029,
      "v": 102
    },
    {
      "midi": 66,
      "hit": false,
      "t": 99444.34499999988,
      "d": 312.49968749999243,
      "v": 102
    },
    {
      "midi": 64,
      "hit": false,
      "t": 99722.12249999988,
      "d": 225.69421874999534,
      "v": 97
    },
    {
      "midi": 67,
      "hit": false,
      "t": 99722.12249999988,
      "d": 237.26828124999884,
      "v": 97
    },
    {
      "midi": 64,
      "hit": false,
      "t": 99722.12249999988,
      "d": 225.69421874999534,
      "v": 102
    },
    {
      "midi": 67,
      "hit": false,
      "t": 99722.12249999988,
      "d": 237.26828124999884,
      "v": 102
    },
    {
      "midi": 69,
      "hit": false,
      "t": 99999.89999999988,
      "d": 214.1201562500064,
      "v": 97
    },
    {
      "midi": 66,
      "hit": false,
      "t": 99999.89999999988,
      "d": 219.90718750000815,
      "v": 97
    },
    {
      "midi": 69,
      "hit": false,
      "t": 99999.89999999988,
      "d": 214.1201562500064,
      "v": 102
    },
    {
      "midi": 66,
      "hit": false,
      "t": 99999.89999999988,
      "d": 219.90718750000815,
      "v": 102
    },
    {
      "midi": 71,
      "hit": false,
      "t": 100277.67749999989,
      "d": 457.175468750007,
      "v": 97
    },
    {
      "midi": 67,
      "hit": false,
      "t": 100277.67749999989,
      "d": 486.11062500000116,
      "v": 97
    },
    {
      "midi": 71,
      "hit": false,
      "t": 100277.67749999989,
      "d": 457.175468750007,
      "v": 102
    },
    {
      "midi": 67,
      "hit": false,
      "t": 100277.67749999989,
      "d": 486.11062500000116,
      "v": 102
    },
    {
      "midi": 69,
      "hit": false,
      "t": 100833.2324999999,
      "d": 243.05531250000058,
      "v": 97
    },
    {
      "midi": 66,
      "hit": false,
      "t": 100833.2324999999,
      "d": 254.62937500000407,
      "v": 97
    },
    {
      "midi": 69,
      "hit": false,
      "t": 100833.2324999999,
      "d": 243.05531250000058,
      "v": 102
    },
    {
      "midi": 66,
      "hit": false,
      "t": 100833.2324999999,
      "d": 254.62937500000407,
      "v": 102
    },
    {
      "midi": 64,
      "hit": false,
      "t": 101111.00999999991,
      "d": 225.69421874999534,
      "v": 97
    },
    {
      "midi": 67,
      "hit": false,
      "t": 101111.00999999991,
      "d": 306.7126562499907,
      "v": 97
    },
    {
      "midi": 64,
      "hit": false,
      "t": 101111.00999999991,
      "d": 225.69421874999534,
      "v": 102
    },
    {
      "midi": 67,
      "hit": false,
      "t": 101111.00999999991,
      "d": 306.7126562499907,
      "v": 102
    },
    {
      "midi": 66,
      "hit": false,
      "t": 101388.7874999999,
      "d": 202.54609374998836,
      "v": 97
    },
    {
      "midi": 69,
      "hit": false,
      "t": 101388.7874999999,
      "d": 254.62937499998952,
      "v": 97
    },
    {
      "midi": 66,
      "hit": false,
      "t": 101388.7874999999,
      "d": 202.54609374998836,
      "v": 102
    },
    {
      "midi": 69,
      "hit": false,
      "t": 101388.7874999999,
      "d": 254.62937499998952,
      "v": 102
    },
    {
      "midi": 66,
      "hit": false,
      "t": 101666.5649999999,
      "d": 86.80546874999709,
      "v": 97
    },
    {
      "midi": 62,
      "hit": false,
      "t": 101666.5649999999,
      "d": 98.37953125000058,
      "v": 97
    },
    {
      "midi": 66,
      "hit": false,
      "t": 101666.5649999999,
      "d": 86.80546874999709,
      "v": 102
    },
    {
      "midi": 62,
      "hit": false,
      "t": 101666.5649999999,
      "d": 98.37953125000058,
      "v": 102
    },
    {
      "midi": 66,
      "hit": false,
      "t": 102222.11999999991,
      "d": 416.66624999999476,
      "v": 97
    },
    {
      "midi": 74,
      "hit": false,
      "t": 102222.11999999991,
      "d": 515.0457812499953,
      "v": 97
    },
    {
      "midi": 66,
      "hit": false,
      "t": 102222.11999999991,
      "d": 416.66624999999476,
      "v": 102
    },
    {
      "midi": 74,
      "hit": false,
      "t": 102222.11999999991,
      "d": 515.0457812499953,
      "v": 102
    },
    {
      "midi": 64,
      "hit": false,
      "t": 102777.6749999999,
      "d": 381.94406249999884,
      "v": 97
    },
    {
      "midi": 73,
      "hit": false,
      "t": 102777.6749999999,
      "d": 515.0457812499953,
      "v": 97
    },
    {
      "midi": 64,
      "hit": false,
      "t": 102777.6749999999,
      "d": 381.94406249999884,
      "v": 102
    },
    {
      "midi": 73,
      "hit": false,
      "t": 102777.6749999999,
      "d": 515.0457812499953,
      "v": 102
    },
    {
      "midi": 71,
      "hit": false,
      "t": 103333.2299999999,
      "d": 457.175468750007,
      "v": 97
    },
    {
      "midi": 62,
      "hit": false,
      "t": 103333.2299999999,
      "d": 497.68468750000466,
      "v": 97
    },
    {
      "midi": 71,
      "hit": false,
      "t": 103333.2299999999,
      "d": 457.175468750007,
      "v": 102
    },
    {
      "midi": 62,
      "hit": false,
      "t": 103333.2299999999,
      "d": 497.68468750000466,
      "v": 102
    },
    {
      "midi": 81,
      "hit": false,
      "t": 110555.4449999999,
      "d": 1093.7489062499953,
      "v": 97
    },
    {
      "midi": 81,
      "hit": false,
      "t": 110555.4449999999,
      "d": 1093.7489062499953,
      "v": 102
    },
    {
      "midi": 76,
      "hit": false,
      "t": 110833.2224999999,
      "d": 266.203437499993,
      "v": 97
    },
    {
      "midi": 76,
      "hit": false,
      "t": 110833.2224999999,
      "d": 266.203437499993,
      "v": 102
    },
    {
      "midi": 78,
      "hit": false,
      "t": 111110.9999999999,
      "d": 578.7031250000146,
      "v": 97
    },
    {
      "midi": 78,
      "hit": false,
      "t": 111110.9999999999,
      "d": 578.7031250000146,
      "v": 102
    },
    {
      "midi": 76,
      "hit": false,
      "t": 111666.5549999999,
      "d": 555.5550000000076,
      "v": 97
    },
    {
      "midi": 76,
      "hit": false,
      "t": 111666.5549999999,
      "d": 555.5550000000076,
      "v": 102
    },
    {
      "midi": 74,
      "hit": false,
      "t": 112222.10999999991,
      "d": 486.11062500000116,
      "v": 97
    },
    {
      "midi": 74,
      "hit": false,
      "t": 112222.10999999991,
      "d": 486.11062500000116,
      "v": 102
    },
    {
      "midi": 57,
      "hit": false,
      "t": 113333.21999999991,
      "d": 1458.331874999989,
      "v": 97
    },
    {
      "midi": 57,
      "hit": false,
      "t": 113333.21999999991,
      "d": 1458.331874999989,
      "v": 102
    },
    {
      "midi": 69,
      "hit": false,
      "t": 113888.7749999999,
      "d": 1255.7857812500006,
      "v": 97
    },
    {
      "midi": 69,
      "hit": false,
      "t": 113888.7749999999,
      "d": 1255.7857812500006,
      "v": 102
    },
    {
      "midi": 62,
      "hit": false,
      "t": 115555.4399999999,
      "d": 1533.563281249997,
      "v": 97
    },
    {
      "midi": 62,
      "hit": false,
      "t": 115555.4399999999,
      "d": 1533.563281249997,
      "v": 102
    },
    {
      "midi": 71,
      "hit": false,
      "t": 116110.9949999999,
      "d": 763.8881249999977,
      "v": 97
    },
    {
      "midi": 71,
      "hit": false,
      "t": 116110.9949999999,
      "d": 763.8881249999977,
      "v": 102
    },
    {
      "midi": 67,
      "hit": false,
      "t": 117222.1049999999,
      "d": 1070.600781250003,
      "v": 97
    },
    {
      "midi": 67,
      "hit": false,
      "t": 117222.1049999999,
      "d": 1070.600781250003,
      "v": 102
    },
    {
      "midi": 64,
      "hit": false,
      "t": 118333.2149999999,
      "d": 1024.3045312500035,
      "v": 97
    },
    {
      "midi": 64,
      "hit": false,
      "t": 118333.2149999999,
      "d": 1024.3045312500035,
      "v": 102
    },
    {
      "midi": 66,
      "hit": false,
      "t": 119999.8799999999,
      "d": 520.8328124999971,
      "v": 97
    },
    {
      "midi": 66,
      "hit": false,
      "t": 119999.8799999999,
      "d": 520.8328124999971,
      "v": 102
    },
    {
      "midi": 64,
      "hit": false,
      "t": 120555.4349999999,
      "d": 555.554999999993,
      "v": 97
    },
    {
      "midi": 64,
      "hit": false,
      "t": 120555.4349999999,
      "d": 555.554999999993,
      "v": 102
    },
    {
      "midi": 62,
      "hit": false,
      "t": 121110.98999999989,
      "d": 480.3235937499994,
      "v": 97
    },
    {
      "midi": 62,
      "hit": false,
      "t": 121110.98999999989,
      "d": 480.3235937499994,
      "v": 102
    },
    {
      "midi": 81,
      "hit": false,
      "t": 128333.20499999989,
      "d": 2123.840468749986,
      "v": 97
    },
    {
      "midi": 81,
      "hit": false,
      "t": 128333.20499999989,
      "d": 2123.840468749986,
      "v": 102
    },
    {
      "midi": 76,
      "hit": false,
      "t": 128610.98249999988,
      "d": 237.26828124999884,
      "v": 97
    },
    {
      "midi": 76,
      "hit": false,
      "t": 128610.98249999988,
      "d": 237.26828124999884,
      "v": 102
    },
    {
      "midi": 78,
      "hit": false,
      "t": 128888.75999999988,
      "d": 572.9160937499983,
      "v": 97
    },
    {
      "midi": 78,
      "hit": false,
      "t": 128888.75999999988,
      "d": 572.9160937499983,
      "v": 102
    },
    {
      "midi": 76,
      "hit": false,
      "t": 129444.31499999987,
      "d": 584.4901562500017,
      "v": 97
    },
    {
      "midi": 76,
      "hit": false,
      "t": 129444.31499999987,
      "d": 584.4901562500017,
      "v": 102
    },
    {
      "midi": 74,
      "hit": false,
      "t": 129999.86999999988,
      "d": 497.6846874999901,
      "v": 97
    },
    {
      "midi": 74,
      "hit": false,
      "t": 129999.86999999988,
      "d": 497.6846874999901,
      "v": 102
    },
    {
      "midi": 66,
      "hit": false,
      "t": 137222.08499999988,
      "d": 289.3515625,
      "v": 97
    },
    {
      "midi": 66,
      "hit": false,
      "t": 137222.08499999988,
      "d": 289.3515625,
      "v": 102
    },
    {
      "midi": 64,
      "hit": false,
      "t": 137499.86249999987,
      "d": 266.203437499993,
      "v": 97
    },
    {
      "midi": 64,
      "hit": false,
      "t": 137499.86249999987,
      "d": 266.203437499993,
      "v": 102
    },
    {
      "midi": 62,
      "hit": false,
      "t": 137777.63999999987,
      "d": 1655.0909374999756,
      "v": 97
    },
    {
      "midi": 62,
      "hit": false,
      "t": 137777.63999999987,
      "d": 1655.0909374999756,
      "v": 102
    },
    {
      "midi": 71,
      "hit": false,
      "t": 138055.41749999986,
      "d": 578.703125,
      "v": 97
    },
    {
      "midi": 71,
      "hit": false,
      "t": 138055.41749999986,
      "d": 578.703125,
      "v": 102
    },
    {
      "midi": 69,
      "hit": false,
      "t": 138610.97249999986,
      "d": 271.9904687500093,
      "v": 97
    },
    {
      "midi": 69,
      "hit": false,
      "t": 138610.97249999986,
      "d": 271.9904687500093,
      "v": 102
    },
    {
      "midi": 67,
      "hit": false,
      "t": 138888.74999999985,
      "d": 503.47171874999185,
      "v": 97
    },
    {
      "midi": 67,
      "hit": false,
      "t": 138888.74999999985,
      "d": 503.47171874999185,
      "v": 102
    },
    {
      "midi": 66,
      "hit": false,
      "t": 139444.30499999985,
      "d": 318.2867187499942,
      "v": 97
    },
    {
      "midi": 66,
      "hit": false,
      "t": 139444.30499999985,
      "d": 318.2867187499942,
      "v": 102
    },
    {
      "midi": 64,
      "hit": false,
      "t": 139722.08249999984,
      "d": 277.7774999999965,
      "v": 97
    },
    {
      "midi": 64,
      "hit": false,
      "t": 139722.08249999984,
      "d": 277.7774999999965,
      "v": 102
    },
    {
      "midi": 62,
      "hit": false,
      "t": 139999.85999999984,
      "d": 254.62937499998952,
      "v": 97
    },
    {
      "midi": 62,
      "hit": false,
      "t": 139999.85999999984,
      "d": 254.62937499998952,
      "v": 102
    },
    {
      "midi": 59,
      "hit": false,
      "t": 140277.63749999984,
      "d": 1186.3414062499942,
      "v": 97
    },
    {
      "midi": 59,
      "hit": false,
      "t": 140277.63749999984,
      "d": 1186.3414062499942,
      "v": 102
    },
    {
      "midi": 67,
      "hit": false,
      "t": 140833.19249999983,
      "d": 648.1474999999919,
      "v": 97
    },
    {
      "midi": 67,
      "hit": false,
      "t": 140833.19249999983,
      "d": 648.1474999999919,
      "v": 102
    },
    {
      "midi": 55,
      "hit": false,
      "t": 146110.96499999982,
      "d": 3917.8201562500617,
      "v": 97
    },
    {
      "midi": 55,
      "hit": false,
      "t": 146110.96499999982,
      "d": 3917.8201562500617,
      "v": 102
    },
    {
      "midi": 59,
      "hit": false,
      "t": 146666.51999999981,
      "d": 2256.94218750007,
      "v": 97
    },
    {
      "midi": 59,
      "hit": false,
      "t": 146666.51999999981,
      "d": 2256.94218750007,
      "v": 102
    },
    {
      "midi": 62,
      "hit": false,
      "t": 147222.0749999998,
      "d": 428.2403125000128,
      "v": 97
    },
    {
      "midi": 62,
      "hit": false,
      "t": 147222.0749999998,
      "d": 428.2403125000128,
      "v": 102
    },
    {
      "midi": 67,
      "hit": false,
      "t": 147777.62999999983,
      "d": 480.32359375001397,
      "v": 97
    },
    {
      "midi": 67,
      "hit": false,
      "t": 147777.62999999983,
      "d": 480.32359375001397,
      "v": 102
    },
    {
      "midi": 61,
      "hit": false,
      "t": 148333.18499999985,
      "d": 480.32359375001397,
      "v": 97
    },
    {
      "midi": 61,
      "hit": false,
      "t": 148333.18499999985,
      "d": 480.32359375001397,
      "v": 102
    },
    {
      "midi": 62,
      "hit": false,
      "t": 148888.73999999987,
      "d": 260.4164062500058,
      "v": 97
    },
    {
      "midi": 62,
      "hit": false,
      "t": 148888.73999999987,
      "d": 260.4164062500058,
      "v": 102
    },
    {
      "midi": 59,
      "hit": false,
      "t": 149166.51749999987,
      "d": 1342.5912500000268,
      "v": 97
    },
    {
      "midi": 59,
      "hit": false,
      "t": 149166.51749999987,
      "d": 1342.5912500000268,
      "v": 102
    },
    {
      "midi": 45,
      "hit": false,
      "t": 150555.4049999999,
      "d": 3784.718437499949,
      "v": 97
    },
    {
      "midi": 45,
      "hit": false,
      "t": 150555.4049999999,
      "d": 3784.718437499949,
      "v": 102
    },
    {
      "midi": 52,
      "hit": false,
      "t": 151388.7374999999,
      "d": 2795.1360937499558,
      "v": 97
    },
    {
      "midi": 52,
      "hit": false,
      "t": 151388.7374999999,
      "d": 2795.1360937499558,
      "v": 102
    },
    {
      "midi": 57,
      "hit": false,
      "t": 151944.2924999999,
      "d": 1932.868437499972,
      "v": 97
    },
    {
      "midi": 57,
      "hit": false,
      "t": 151944.2924999999,
      "d": 1932.868437499972,
      "v": 102
    },
    {
      "midi": 61,
      "hit": false,
      "t": 152222.0699999999,
      "d": 538.1939062500023,
      "v": 97
    },
    {
      "midi": 61,
      "hit": false,
      "t": 152222.0699999999,
      "d": 538.1939062500023,
      "v": 102
    },
    {
      "midi": 64,
      "hit": false,
      "t": 152777.62499999988,
      "d": 856.4806249999965,
      "v": 97
    },
    {
      "midi": 64,
      "hit": false,
      "t": 152777.62499999988,
      "d": 856.4806249999965,
      "v": 102
    },
    {
      "midi": 61,
      "hit": false,
      "t": 153888.73499999987,
      "d": 758.1010937499814,
      "v": 97
    },
    {
      "midi": 69,
      "hit": false,
      "t": 153888.73499999987,
      "d": 925.9249999999884,
      "v": 97
    },
    {
      "midi": 61,
      "hit": false,
      "t": 153888.73499999987,
      "d": 758.1010937499814,
      "v": 102
    },
    {
      "midi": 69,
      "hit": false,
      "t": 153888.73499999987,
      "d": 925.9249999999884,
      "v": 102
    },
    {
      "midi": 67,
      "hit": false,
      "t": 154999.84499999986,
      "d": 810.1843750000116,
      "v": 97
    },
    {
      "midi": 67,
      "hit": false,
      "t": 154999.84499999986,
      "d": 810.1843750000116,
      "v": 102
    },
    {
      "midi": 66,
      "hit": false,
      "t": 155833.17749999987,
      "d": 775.4621875000012,
      "v": 97
    },
    {
      "midi": 66,
      "hit": false,
      "t": 155833.17749999987,
      "d": 775.4621875000012,
      "v": 102
    },
    {
      "midi": 67,
      "hit": false,
      "t": 156666.50999999986,
      "d": 243.05531249998603,
      "v": 97
    },
    {
      "midi": 67,
      "hit": false,
      "t": 156666.50999999986,
      "d": 243.05531249998603,
      "v": 102
    },
    {
      "midi": 69,
      "hit": false,
      "t": 156944.28749999986,
      "d": 254.62937499998952,
      "v": 97
    },
    {
      "midi": 69,
      "hit": false,
      "t": 156944.28749999986,
      "d": 254.62937499998952,
      "v": 102
    },
    {
      "midi": 66,
      "hit": false,
      "t": 157222.06499999986,
      "d": 162.0368749999907,
      "v": 97
    },
    {
      "midi": 66,
      "hit": false,
      "t": 157222.06499999986,
      "d": 162.0368749999907,
      "v": 102
    },
    {
      "midi": 62,
      "hit": false,
      "t": 157777.61999999985,
      "d": 474.5365624999977,
      "v": 97
    },
    {
      "midi": 66,
      "hit": false,
      "t": 157777.61999999985,
      "d": 509.25875000000815,
      "v": 97
    },
    {
      "midi": 62,
      "hit": false,
      "t": 157777.61999999985,
      "d": 474.5365624999977,
      "v": 102
    },
    {
      "midi": 66,
      "hit": false,
      "t": 157777.61999999985,
      "d": 509.25875000000815,
      "v": 102
    },
    {
      "midi": 67,
      "hit": false,
      "t": 158333.17499999987,
      "d": 491.89765624998836,
      "v": 97
    },
    {
      "midi": 64,
      "hit": false,
      "t": 158333.17499999987,
      "d": 497.68468749997555,
      "v": 97
    },
    {
      "midi": 67,
      "hit": false,
      "t": 158333.17499999987,
      "d": 491.89765624998836,
      "v": 102
    },
    {
      "midi": 64,
      "hit": false,
      "t": 158333.17499999987,
      "d": 497.68468749997555,
      "v": 102
    },
    {
      "midi": 66,
      "hit": false,
      "t": 158888.72999999984,
      "d": 526.6198437499988,
      "v": 97
    },
    {
      "midi": 69,
      "hit": false,
      "t": 158888.72999999984,
      "d": 613.4253124999814,
      "v": 97
    },
    {
      "midi": 66,
      "hit": false,
      "t": 158888.72999999984,
      "d": 526.6198437499988,
      "v": 102
    },
    {
      "midi": 69,
      "hit": false,
      "t": 158888.72999999984,
      "d": 613.4253124999814,
      "v": 102
    },
    {
      "midi": 55,
      "hit": false,
      "t": 159444.28499999983,
      "d": 3339.1170312499744,
      "v": 97
    },
    {
      "midi": 67,
      "hit": false,
      "t": 159444.28499999983,
      "d": 3553.2371874999662,
      "v": 97
    },
    {
      "midi": 55,
      "hit": false,
      "t": 159444.28499999983,
      "d": 3339.1170312499744,
      "v": 102
    },
    {
      "midi": 67,
      "hit": false,
      "t": 159444.28499999983,
      "d": 3553.2371874999662,
      "v": 102
    },
    {
      "midi": 59,
      "hit": false,
      "t": 160555.39499999981,
      "d": 584.4901562499872,
      "v": 97
    },
    {
      "midi": 59,
      "hit": false,
      "t": 160555.39499999981,
      "d": 584.4901562499872,
      "v": 102
    },
    {
      "midi": 62,
      "hit": false,
      "t": 161110.9499999998,
      "d": 515.0457812499953,
      "v": 97
    },
    {
      "midi": 62,
      "hit": false,
      "t": 161110.9499999998,
      "d": 515.0457812499953,
      "v": 102
    },
    {
      "midi": 64,
      "hit": false,
      "t": 161666.5049999998,
      "d": 1394.6745312499697,
      "v": 97
    },
    {
      "midi": 64,
      "hit": false,
      "t": 161666.5049999998,
      "d": 1394.6745312499697,
      "v": 102
    },
    {
      "midi": 57,
      "hit": false,
      "t": 163055.39249999978,
      "d": 758.1010937500105,
      "v": 97
    },
    {
      "midi": 57,
      "hit": false,
      "t": 163055.39249999978,
      "d": 758.1010937500105,
      "v": 102
    },
    {
      "midi": 64,
      "hit": false,
      "t": 163333.16999999978,
      "d": 509.25875000000815,
      "v": 97
    },
    {
      "midi": 64,
      "hit": false,
      "t": 163333.16999999978,
      "d": 509.25875000000815,
      "v": 102
    },
    {
      "midi": 54,
      "hit": false,
      "t": 163888.7249999998,
      "d": 1012.73046875,
      "v": 97
    },
    {
      "midi": 66,
      "hit": false,
      "t": 163888.7249999998,
      "d": 1128.4710937499767,
      "v": 97
    },
    {
      "midi": 54,
      "hit": false,
      "t": 163888.7249999998,
      "d": 1012.73046875,
      "v": 102
    },
    {
      "midi": 66,
      "hit": false,
      "t": 163888.7249999998,
      "d": 1128.4710937499767,
      "v": 102
    },
    {
      "midi": 64,
      "hit": false,
      "t": 164999.8349999998,
      "d": 989.582343749993,
      "v": 97
    },
    {
      "midi": 64,
      "hit": false,
      "t": 164999.8349999998,
      "d": 989.582343749993,
      "v": 102
    },
    {
      "midi": 59,
      "hit": false,
      "t": 166110.94499999977,
      "d": 277.7774999999965,
      "v": 97
    },
    {
      "midi": 59,
      "hit": false,
      "t": 166110.94499999977,
      "d": 277.7774999999965,
      "v": 102
    },
    {
      "midi": 61,
      "hit": false,
      "t": 166388.72249999977,
      "d": 248.84234375000233,
      "v": 97
    },
    {
      "midi": 61,
      "hit": false,
      "t": 166388.72249999977,
      "d": 248.84234375000233,
      "v": 102
    },
    {
      "midi": 62,
      "hit": false,
      "t": 166666.49999999977,
      "d": 248.84234375000233,
      "v": 97
    },
    {
      "midi": 62,
      "hit": false,
      "t": 166666.49999999977,
      "d": 248.84234375000233,
      "v": 102
    },
    {
      "midi": 66,
      "hit": false,
      "t": 166944.27749999976,
      "d": 1377.3134375000081,
      "v": 97
    },
    {
      "midi": 66,
      "hit": false,
      "t": 166944.27749999976,
      "d": 1377.3134375000081,
      "v": 102
    },
    {
      "midi": 55,
      "hit": false,
      "t": 168333.16499999978,
      "d": 3993.0515625000116,
      "v": 97
    },
    {
      "midi": 67,
      "hit": false,
      "t": 168333.16499999978,
      "d": 4068.28296875002,
      "v": 97
    },
    {
      "midi": 55,
      "hit": false,
      "t": 168333.16499999978,
      "d": 3993.0515625000116,
      "v": 102
    },
    {
      "midi": 67,
      "hit": false,
      "t": 168333.16499999978,
      "d": 4068.28296875002,
      "v": 102
    },
    {
      "midi": 59,
      "hit": false,
      "t": 169999.82999999978,
      "d": 584.4901562499872,
      "v": 97
    },
    {
      "midi": 59,
      "hit": false,
      "t": 169999.82999999978,
      "d": 584.4901562499872,
      "v": 102
    },
    {
      "midi": 61,
      "hit": false,
      "t": 170555.38499999978,
      "d": 1435.1837499999965,
      "v": 97
    },
    {
      "midi": 61,
      "hit": false,
      "t": 170555.38499999978,
      "d": 1435.1837499999965,
      "v": 102
    },
    {
      "midi": 62,
      "hit": false,
      "t": 172777.6049999998,
      "d": 202.54609374998836,
      "v": 97
    },
    {
      "midi": 66,
      "hit": false,
      "t": 172777.6049999998,
      "d": 312.499687500007,
      "v": 97
    },
    {
      "midi": 62,
      "hit": false,
      "t": 172777.6049999998,
      "d": 202.54609374998836,
      "v": 102
    },
    {
      "midi": 66,
      "hit": false,
      "t": 172777.6049999998,
      "d": 312.499687500007,
      "v": 102
    },
    {
      "midi": 64,
      "hit": false,
      "t": 173055.3824999998,
      "d": 225.69421875002445,
      "v": 97
    },
    {
      "midi": 67,
      "hit": false,
      "t": 173055.3824999998,
      "d": 237.26828125002794,
      "v": 97
    },
    {
      "midi": 64,
      "hit": false,
      "t": 173055.3824999998,
      "d": 225.69421875002445,
      "v": 102
    },
    {
      "midi": 67,
      "hit": false,
      "t": 173055.3824999998,
      "d": 237.26828125002794,
      "v": 102
    },
    {
      "midi": 69,
      "hit": false,
      "t": 173333.15999999983,
      "d": 214.12015624999185,
      "v": 97
    },
    {
      "midi": 66,
      "hit": false,
      "t": 173333.15999999983,
      "d": 219.90718749997905,
      "v": 97
    },
    {
      "midi": 69,
      "hit": false,
      "t": 173333.15999999983,
      "d": 214.12015624999185,
      "v": 102
    },
    {
      "midi": 66,
      "hit": false,
      "t": 173333.15999999983,
      "d": 219.90718749997905,
      "v": 102
    },
    {
      "midi": 71,
      "hit": false,
      "t": 173610.9374999998,
      "d": 457.175468750007,
      "v": 97
    },
    {
      "midi": 67,
      "hit": false,
      "t": 173610.9374999998,
      "d": 486.11062500000116,
      "v": 97
    },
    {
      "midi": 71,
      "hit": false,
      "t": 173610.9374999998,
      "d": 457.175468750007,
      "v": 102
    },
    {
      "midi": 67,
      "hit": false,
      "t": 173610.9374999998,
      "d": 486.11062500000116,
      "v": 102
    },
    {
      "midi": 69,
      "hit": false,
      "t": 174166.4924999998,
      "d": 243.05531249998603,
      "v": 97
    },
    {
      "midi": 66,
      "hit": false,
      "t": 174166.4924999998,
      "d": 254.62937499998952,
      "v": 97
    },
    {
      "midi": 69,
      "hit": false,
      "t": 174166.4924999998,
      "d": 243.05531249998603,
      "v": 102
    },
    {
      "midi": 66,
      "hit": false,
      "t": 174166.4924999998,
      "d": 254.62937499998952,
      "v": 102
    },
    {
      "midi": 64,
      "hit": false,
      "t": 174444.2699999998,
      "d": 225.69421874999534,
      "v": 97
    },
    {
      "midi": 67,
      "hit": false,
      "t": 174444.2699999998,
      "d": 306.7126562499907,
      "v": 97
    },
    {
      "midi": 64,
      "hit": false,
      "t": 174444.2699999998,
      "d": 225.69421874999534,
      "v": 102
    },
    {
      "midi": 67,
      "hit": false,
      "t": 174444.2699999998,
      "d": 306.7126562499907,
      "v": 102
    },
    {
      "midi": 66,
      "hit": false,
      "t": 174722.04749999978,
      "d": 202.54609374998836,
      "v": 97
    },
    {
      "midi": 69,
      "hit": false,
      "t": 174722.04749999978,
      "d": 254.62937499998952,
      "v": 97
    },
    {
      "midi": 66,
      "hit": false,
      "t": 174722.04749999978,
      "d": 202.54609374998836,
      "v": 102
    },
    {
      "midi": 69,
      "hit": false,
      "t": 174722.04749999978,
      "d": 254.62937499998952,
      "v": 102
    },
    {
      "midi": 66,
      "hit": false,
      "t": 174999.82499999978,
      "d": 86.80546875001164,
      "v": 97
    },
    {
      "midi": 62,
      "hit": false,
      "t": 174999.82499999978,
      "d": 98.37953125001513,
      "v": 97
    },
    {
      "midi": 66,
      "hit": false,
      "t": 174999.82499999978,
      "d": 86.80546875001164,
      "v": 102
    },
    {
      "midi": 62,
      "hit": false,
      "t": 174999.82499999978,
      "d": 98.37953125001513,
      "v": 102
    },
    {
      "midi": 66,
      "hit": false,
      "t": 175555.3799999998,
      "d": 416.6662500000093,
      "v": 97
    },
    {
      "midi": 74,
      "hit": false,
      "t": 175555.3799999998,
      "d": 515.0457812499953,
      "v": 97
    },
    {
      "midi": 66,
      "hit": false,
      "t": 175555.3799999998,
      "d": 416.6662500000093,
      "v": 102
    },
    {
      "midi": 74,
      "hit": false,
      "t": 175555.3799999998,
      "d": 515.0457812499953,
      "v": 102
    },
    {
      "midi": 64,
      "hit": false,
      "t": 176110.9349999998,
      "d": 381.94406249999884,
      "v": 97
    },
    {
      "midi": 73,
      "hit": false,
      "t": 176110.9349999998,
      "d": 515.0457812499953,
      "v": 97
    },
    {
      "midi": 64,
      "hit": false,
      "t": 176110.9349999998,
      "d": 381.94406249999884,
      "v": 102
    },
    {
      "midi": 73,
      "hit": false,
      "t": 176110.9349999998,
      "d": 515.0457812499953,
      "v": 102
    },
    {
      "midi": 71,
      "hit": false,
      "t": 176666.4899999998,
      "d": 457.175468750007,
      "v": 97
    },
    {
      "midi": 62,
      "hit": false,
      "t": 176666.4899999998,
      "d": 497.68468750000466,
      "v": 97
    },
    {
      "midi": 71,
      "hit": false,
      "t": 176666.4899999998,
      "d": 457.175468750007,
      "v": 102
    },
    {
      "midi": 62,
      "hit": false,
      "t": 176666.4899999998,
      "d": 497.68468750000466,
      "v": 102
    },
    {
      "midi": 81,
      "hit": false,
      "t": 183888.70499999978,
      "d": 1093.7489062499953,
      "v": 97
    },
    {
      "midi": 81,
      "hit": false,
      "t": 183888.70499999978,
      "d": 1093.7489062499953,
      "v": 102
    },
    {
      "midi": 76,
      "hit": false,
      "t": 184166.48249999978,
      "d": 266.203437499993,
      "v": 97
    },
    {
      "midi": 76,
      "hit": false,
      "t": 184166.48249999978,
      "d": 266.203437499993,
      "v": 102
    },
    {
      "midi": 78,
      "hit": false,
      "t": 184444.25999999978,
      "d": 578.703125,
      "v": 97
    },
    {
      "midi": 78,
      "hit": false,
      "t": 184444.25999999978,
      "d": 578.703125,
      "v": 102
    },
    {
      "midi": 76,
      "hit": false,
      "t": 184999.81499999977,
      "d": 555.554999999993,
      "v": 97
    },
    {
      "midi": 76,
      "hit": false,
      "t": 184999.81499999977,
      "d": 555.554999999993,
      "v": 102
    },
    {
      "midi": 74,
      "hit": false,
      "t": 185555.36999999976,
      "d": 486.11062500000116,
      "v": 97
    },
    {
      "midi": 74,
      "hit": false,
      "t": 185555.36999999976,
      "d": 486.11062500000116,
      "v": 102
    },
    {
      "midi": 57,
      "hit": false,
      "t": 186666.47999999978,
      "d": 1458.3318750000035,
      "v": 97
    },
    {
      "midi": 57,
      "hit": false,
      "t": 186666.47999999978,
      "d": 1458.3318750000035,
      "v": 102
    },
    {
      "midi": 69,
      "hit": false,
      "t": 187222.03499999977,
      "d": 1255.7857812500151,
      "v": 97
    },
    {
      "midi": 69,
      "hit": false,
      "t": 187222.03499999977,
      "d": 1255.7857812500151,
      "v": 102
    },
    {
      "midi": 62,
      "hit": false,
      "t": 188888.69999999978,
      "d": 1533.5632812499825,
      "v": 97
    },
    {
      "midi": 62,
      "hit": false,
      "t": 188888.69999999978,
      "d": 1533.5632812499825,
      "v": 102
    },
    {
      "midi": 71,
      "hit": false,
      "t": 189444.25499999977,
      "d": 763.8881249999977,
      "v": 97
    },
    {
      "midi": 71,
      "hit": false,
      "t": 189444.25499999977,
      "d": 763.8881249999977,
      "v": 102
    },
    {
      "midi": 67,
      "hit": false,
      "t": 190555.36499999976,
      "d": 1070.6007812499884,
      "v": 97
    },
    {
      "midi": 67,
      "hit": false,
      "t": 190555.36499999976,
      "d": 1070.6007812499884,
      "v": 102
    },
    {
      "midi": 64,
      "hit": false,
      "t": 191666.47499999974,
      "d": 1024.3045312500035,
      "v": 97
    },
    {
      "midi": 64,
      "hit": false,
      "t": 191666.47499999974,
      "d": 1024.3045312500035,
      "v": 102
    },
    {
      "midi": 66,
      "hit": false,
      "t": 193333.13999999975,
      "d": 520.8328125000116,
      "v": 97
    },
    {
      "midi": 66,
      "hit": false,
      "t": 193333.13999999975,
      "d": 520.8328125000116,
      "v": 102
    },
    {
      "midi": 64,
      "hit": false,
      "t": 193888.69499999977,
      "d": 555.554999999993,
      "v": 97
    },
    {
      "midi": 64,
      "hit": false,
      "t": 193888.69499999977,
      "d": 555.554999999993,
      "v": 102
    },
    {
      "midi": 62,
      "hit": false,
      "t": 194444.24999999977,
      "d": 480.32359375001397,
      "v": 97
    },
    {
      "midi": 62,
      "hit": false,
      "t": 194444.24999999977,
      "d": 480.32359375001397,
      "v": 102
    },
    {
      "midi": 81,
      "hit": false,
      "t": 201666.4649999998,
      "d": 1093.7489062499953,
      "v": 97
    },
    {
      "midi": 81,
      "hit": false,
      "t": 201666.4649999998,
      "d": 1093.7489062499953,
      "v": 102
    },
    {
      "midi": 76,
      "hit": false,
      "t": 201944.2424999998,
      "d": 266.203437499993,
      "v": 97
    },
    {
      "midi": 76,
      "hit": false,
      "t": 201944.2424999998,
      "d": 266.203437499993,
      "v": 102
    },
    {
      "midi": 78,
      "hit": false,
      "t": 202222.0199999998,
      "d": 578.703125,
      "v": 97
    },
    {
      "midi": 78,
      "hit": false,
      "t": 202222.0199999998,
      "d": 578.703125,
      "v": 102
    },
    {
      "midi": 76,
      "hit": false,
      "t": 202777.57499999978,
      "d": 555.554999999993,
      "v": 97
    },
    {
      "midi": 76,
      "hit": false,
      "t": 202777.57499999978,
      "d": 555.554999999993,
      "v": 102
    },
    {
      "midi": 74,
      "hit": false,
      "t": 203333.12999999977,
      "d": 486.11062500000116,
      "v": 97
    },
    {
      "midi": 74,
      "hit": false,
      "t": 203333.12999999977,
      "d": 486.11062500000116,
      "v": 102
    },
    {
      "midi": 57,
      "hit": false,
      "t": 204444.2399999998,
      "d": 1458.3318750000035,
      "v": 97
    },
    {
      "midi": 57,
      "hit": false,
      "t": 204444.2399999998,
      "d": 1458.3318750000035,
      "v": 102
    },
    {
      "midi": 69,
      "hit": false,
      "t": 204999.79499999978,
      "d": 1255.7857812500151,
      "v": 97
    },
    {
      "midi": 69,
      "hit": false,
      "t": 204999.79499999978,
      "d": 1255.7857812500151,
      "v": 102
    },
    {
      "midi": 62,
      "hit": false,
      "t": 206666.4599999998,
      "d": 1533.5632812499825,
      "v": 97
    },
    {
      "midi": 62,
      "hit": false,
      "t": 206666.4599999998,
      "d": 1533.5632812499825,
      "v": 102
    },
    {
      "midi": 71,
      "hit": false,
      "t": 207222.01499999978,
      "d": 763.8881249999977,
      "v": 97
    },
    {
      "midi": 71,
      "hit": false,
      "t": 207222.01499999978,
      "d": 763.8881249999977,
      "v": 102
    },
    {
      "midi": 67,
      "hit": false,
      "t": 208333.12499999977,
      "d": 1070.6007812499884,
      "v": 97
    },
    {
      "midi": 67,
      "hit": false,
      "t": 208333.12499999977,
      "d": 1070.6007812499884,
      "v": 102
    },
    {
      "midi": 64,
      "hit": false,
      "t": 209444.23499999975,
      "d": 1024.3045312500035,
      "v": 97
    },
    {
      "midi": 64,
      "hit": false,
      "t": 209444.23499999975,
      "d": 1024.3045312500035,
      "v": 102
    },
    {
      "midi": 66,
      "hit": false,
      "t": 211110.89999999976,
      "d": 520.8328125000116,
      "v": 97
    },
    {
      "midi": 66,
      "hit": false,
      "t": 211110.89999999976,
      "d": 520.8328125000116,
      "v": 102
    },
    {
      "midi": 64,
      "hit": false,
      "t": 211666.45499999978,
      "d": 555.554999999993,
      "v": 97
    },
    {
      "midi": 64,
      "hit": false,
      "t": 211666.45499999978,
      "d": 555.554999999993,
      "v": 102
    },
    {
      "midi": 62,
      "hit": false,
      "t": 212222.00999999978,
      "d": 480.32359375001397,
      "v": 97
    },
    {
      "midi": 62,
      "hit": false,
      "t": 212222.00999999978,
      "d": 480.32359375001397,
      "v": 102
    },
    {
      "midi": 81,
      "hit": false,
      "t": 219444.2249999998,
      "d": 1093.7489062499953,
      "v": 97
    },
    {
      "midi": 81,
      "hit": false,
      "t": 219444.2249999998,
      "d": 1093.7489062499953,
      "v": 102
    },
    {
      "midi": 76,
      "hit": false,
      "t": 219722.0024999998,
      "d": 266.203437499993,
      "v": 97
    },
    {
      "midi": 76,
      "hit": false,
      "t": 219722.0024999998,
      "d": 266.203437499993,
      "v": 102
    },
    {
      "midi": 78,
      "hit": false,
      "t": 219999.7799999998,
      "d": 578.703125,
      "v": 97
    },
    {
      "midi": 78,
      "hit": false,
      "t": 219999.7799999998,
      "d": 578.703125,
      "v": 102
    },
    {
      "midi": 76,
      "hit": false,
      "t": 220555.3349999998,
      "d": 555.554999999993,
      "v": 97
    },
    {
      "midi": 76,
      "hit": false,
      "t": 220555.3349999998,
      "d": 555.554999999993,
      "v": 102
    },
    {
      "midi": 74,
      "hit": false,
      "t": 221110.88999999978,
      "d": 486.11062500000116,
      "v": 97
    },
    {
      "midi": 74,
      "hit": false,
      "t": 221110.88999999978,
      "d": 486.11062500000116,
      "v": 102
    },
    {
      "midi": 57,
      "hit": false,
      "t": 222221.9999999998,
      "d": 1458.3318750000035,
      "v": 97
    },
    {
      "midi": 57,
      "hit": false,
      "t": 222221.9999999998,
      "d": 1458.3318750000035,
      "v": 102
    },
    {
      "midi": 69,
      "hit": false,
      "t": 222777.5549999998,
      "d": 1255.7857812500151,
      "v": 97
    },
    {
      "midi": 69,
      "hit": false,
      "t": 222777.5549999998,
      "d": 1255.7857812500151,
      "v": 102
    },
    {
      "midi": 62,
      "hit": false,
      "t": 224444.2199999998,
      "d": 1533.5632812499825,
      "v": 97
    },
    {
      "midi": 62,
      "hit": false,
      "t": 224444.2199999998,
      "d": 1533.5632812499825,
      "v": 102
    },
    {
      "midi": 71,
      "hit": false,
      "t": 224999.7749999998,
      "d": 763.8881249999977,
      "v": 97
    },
    {
      "midi": 71,
      "hit": false,
      "t": 224999.7749999998,
      "d": 763.8881249999977,
      "v": 102
    },
    {
      "midi": 59,
      "hit": false,
      "t": 226110.88499999978,
      "d": 653.9345312500081,
      "v": 97
    },
    {
      "midi": 67,
      "hit": false,
      "t": 226110.88499999978,
      "d": 758.1010937500105,
      "v": 97
    },
    {
      "midi": 59,
      "hit": false,
      "t": 226110.88499999978,
      "d": 653.9345312500081,
      "v": 102
    },
    {
      "midi": 67,
      "hit": false,
      "t": 226110.88499999978,
      "d": 758.1010937500105,
      "v": 102
    },
    {
      "midi": 61,
      "hit": false,
      "t": 226944.2174999998,
      "d": 1024.3045312500035,
      "v": 97
    },
    {
      "midi": 69,
      "hit": false,
      "t": 226944.2174999998,
      "d": 1192.1284375000105,
      "v": 97
    },
    {
      "midi": 61,
      "hit": false,
      "t": 226944.2174999998,
      "d": 1024.3045312500035,
      "v": 102
    },
    {
      "midi": 69,
      "hit": false,
      "t": 226944.2174999998,
      "d": 1192.1284375000105,
      "v": 102
    },
    {
      "midi": 66,
      "hit": false,
      "t": 228333.1049999998,
      "d": 271.9904687500093,
      "v": 97
    },
    {
      "midi": 66,
      "hit": false,
      "t": 228333.1049999998,
      "d": 271.9904687500093,
      "v": 102
    },
    {
      "midi": 67,
      "hit": false,
      "t": 228610.8824999998,
      "d": 295.1385937499872,
      "v": 97
    },
    {
      "midi": 67,
      "hit": false,
      "t": 228610.8824999998,
      "d": 295.1385937499872,
      "v": 102
    },
    {
      "midi": 69,
      "hit": false,
      "t": 228888.6599999998,
      "d": 260.4164062499767,
      "v": 97
    },
    {
      "midi": 69,
      "hit": false,
      "t": 228888.6599999998,
      "d": 260.4164062499767,
      "v": 102
    },
    {
      "midi": 71,
      "hit": false,
      "t": 229166.43749999977,
      "d": 549.7679687500058,
      "v": 97
    },
    {
      "midi": 71,
      "hit": false,
      "t": 229166.43749999977,
      "d": 549.7679687500058,
      "v": 102
    },
    {
      "midi": 69,
      "hit": false,
      "t": 229721.99249999976,
      "d": 260.4164062500058,
      "v": 97
    },
    {
      "midi": 69,
      "hit": false,
      "t": 229721.99249999976,
      "d": 260.4164062500058,
      "v": 102
    },
    {
      "midi": 67,
      "hit": false,
      "t": 229999.76999999976,
      "d": 266.203437499993,
      "v": 97
    },
    {
      "midi": 67,
      "hit": false,
      "t": 229999.76999999976,
      "d": 266.203437499993,
      "v": 102
    },
    {
      "midi": 66,
      "hit": false,
      "t": 230277.54749999975,
      "d": 538.1939062500023,
      "v": 97
    },
    {
      "midi": 66,
      "hit": false,
      "t": 230277.54749999975,
      "d": 538.1939062500023,
      "v": 102
    },
    {
      "midi": 67,
      "hit": false,
      "t": 230833.10249999975,
      "d": 318.2867187499942,
      "v": 97
    },
    {
      "midi": 67,
      "hit": false,
      "t": 230833.10249999975,
      "d": 318.2867187499942,
      "v": 102
    },
    {
      "midi": 69,
      "hit": false,
      "t": 231110.87999999974,
      "d": 260.4164062500058,
      "v": 97
    },
    {
      "midi": 69,
      "hit": false,
      "t": 231110.87999999974,
      "d": 260.4164062500058,
      "v": 102
    },
    {
      "midi": 71,
      "hit": false,
      "t": 231388.65749999974,
      "d": 555.554999999993,
      "v": 97
    },
    {
      "midi": 71,
      "hit": false,
      "t": 231388.65749999974,
      "d": 555.554999999993,
      "v": 102
    },
    {
      "midi": 69,
      "hit": false,
      "t": 231944.21249999973,
      "d": 219.90718750000815,
      "v": 97
    },
    {
      "midi": 69,
      "hit": false,
      "t": 231944.21249999973,
      "d": 219.90718750000815,
      "v": 102
    },
    {
      "midi": 71,
      "hit": false,
      "t": 232221.98999999973,
      "d": 260.4164062500058,
      "v": 97
    },
    {
      "midi": 71,
      "hit": false,
      "t": 232221.98999999973,
      "d": 260.4164062500058,
      "v": 102
    },
    {
      "midi": 74,
      "hit": false,
      "t": 232499.76749999973,
      "d": 2499.9974999999977,
      "v": 97
    },
    {
      "midi": 74,
      "hit": false,
      "t": 232499.76749999973,
      "d": 2499.9974999999977,
      "v": 102
    }
  ]
}