{
  "jsonPath": "Folk/Ectofolk/Over The Rhine/falling-death-of-a-tree.json",
  "path": "Folk\\Ectofolk\\Over The Rhine\\Falling (Death Of A Tree).mid",
  "name": "Falling (Death Of A Tree)",
  "difficulty": "Advanced",
  "bpm": 100,
  "notes": [
    {
      "midi": 62,
      "hit": false,
      "t": 4800,
      "d": 785,
      "v": 72
    },
    {
      "midi": 66,
      "hit": false,
      "t": 4800,
      "d": 855,
      "v": 75
    },
    {
      "midi": 38,
      "hit": false,
      "t": 4805,
      "d": 220,
      "v": 77
    },
    {
      "midi": 50,
      "hit": false,
      "t": 5105,
      "d": 145,
      "v": 75
    },
    {
      "midi": 54,
      "hit": false,
      "t": 5400,
      "d": 230,
      "v": 86
    },
    {
      "midi": 57,
      "hit": false,
      "t": 5685,
      "d": 165,
      "v": 90
    },
    {
      "midi": 66,
      "hit": false,
      "t": 6270,
      "d": 160,
      "v": 90
    },
    {
      "midi": 64,
      "hit": false,
      "t": 6600,
      "d": 140,
      "v": 95
    },
    {
      "midi": 66,
      "hit": false,
      "t": 6895,
      "d": 180,
      "v": 79
    },
    {
      "midi": 64,
      "hit": false,
      "t": 7195,
      "d": 275,
      "v": 95
    },
    {
      "midi": 47,
      "hit": false,
      "t": 7235,
      "d": 1705,
      "v": 85
    },
    {
      "midi": 62,
      "hit": false,
      "t": 7495,
      "d": 915,
      "v": 95
    },
    {
      "midi": 54,
      "hit": false,
      "t": 8115,
      "d": 830,
      "v": 71
    },
    {
      "midi": 59,
      "hit": false,
      "t": 8430,
      "d": 570,
      "v": 93
    },
    {
      "midi": 57,
      "hit": false,
      "t": 9305,
      "d": 80,
      "v": 91
    },
    {
      "midi": 59,
      "hit": false,
      "t": 9635,
      "d": 275,
      "v": 86
    },
    {
      "midi": 43,
      "hit": false,
      "t": 9645,
      "d": 490,
      "v": 75
    },
    {
      "midi": 50,
      "hit": false,
      "t": 9905,
      "d": 200,
      "v": 91
    },
    {
      "midi": 55,
      "hit": false,
      "t": 10200,
      "d": 110,
      "v": 91
    },
    {
      "midi": 59,
      "hit": false,
      "t": 10485,
      "d": 660,
      "v": 96
    },
    {
      "midi": 45,
      "hit": false,
      "t": 10800,
      "d": 530,
      "v": 81
    },
    {
      "midi": 52,
      "hit": false,
      "t": 11070,
      "d": 215,
      "v": 89
    },
    {
      "midi": 59,
      "hit": false,
      "t": 11365,
      "d": 95,
      "v": 94
    },
    {
      "midi": 61,
      "hit": false,
      "t": 11655,
      "d": 100,
      "v": 89
    },
    {
      "midi": 62,
      "hit": false,
      "t": 11965,
      "d": 570,
      "v": 91
    },
    {
      "midi": 38,
      "hit": false,
      "t": 11990,
      "d": 225,
      "v": 71
    },
    {
      "midi": 45,
      "hit": false,
      "t": 12245,
      "d": 185,
      "v": 85
    },
    {
      "midi": 50,
      "hit": false,
      "t": 12555,
      "d": 195,
      "v": 85
    },
    {
      "midi": 54,
      "hit": false,
      "t": 12850,
      "d": 150,
      "v": 76
    },
    {
      "midi": 57,
      "hit": false,
      "t": 13175,
      "d": 70,
      "v": 79
    },
    {
      "midi": 38,
      "hit": false,
      "t": 14390,
      "d": 245,
      "v": 86
    },
    {
      "midi": 45,
      "hit": false,
      "t": 14700,
      "d": 145,
      "v": 67
    },
    {
      "midi": 50,
      "hit": false,
      "t": 15005,
      "d": 150,
      "v": 78
    },
    {
      "midi": 54,
      "hit": false,
      "t": 15290,
      "d": 115,
      "v": 60
    },
    {
      "midi": 57,
      "hit": false,
      "t": 15605,
      "d": 65,
      "v": 95
    },
    {
      "midi": 62,
      "hit": false,
      "t": 16230,
      "d": 155,
      "v": 82
    },
    {
      "midi": 64,
      "hit": false,
      "t": 16500,
      "d": 135,
      "v": 89
    },
    {
      "midi": 66,
      "hit": false,
      "t": 16785,
      "d": 1120,
      "v": 81
    },
    {
      "midi": 62,
      "hit": false,
      "t": 16815,
      "d": 1015,
      "v": 82
    },
    {
      "midi": 38,
      "hit": false,
      "t": 16880,
      "d": 185,
      "v": 30
    },
    {
      "midi": 45,
      "hit": false,
      "t": 17085,
      "d": 220,
      "v": 85
    },
    {
      "midi": 50,
      "hit": false,
      "t": 17385,
      "d": 165,
      "v": 87
    },
    {
      "midi": 54,
      "hit": false,
      "t": 17655,
      "d": 155,
      "v": 77
    },
    {
      "midi": 57,
      "hit": false,
      "t": 17965,
      "d": 65,
      "v": 86
    },
    {
      "midi": 66,
      "hit": false,
      "t": 18255,
      "d": 110,
      "v": 95
    },
    {
      "midi": 64,
      "hit": false,
      "t": 18555,
      "d": 95,
      "v": 101
    },
    {
      "midi": 66,
      "hit": false,
      "t": 18830,
      "d": 105,
      "v": 88
    },
    {
      "midi": 64,
      "hit": false,
      "t": 19145,
      "d": 285,
      "v": 94
    },
    {
      "midi": 47,
      "hit": false,
      "t": 19185,
      "d": 1430,
      "v": 74
    },
    {
      "midi": 62,
      "hit": false,
      "t": 19460,
      "d": 880,
      "v": 78
    },
    {
      "midi": 54,
      "hit": false,
      "t": 20105,
      "d": 515,
      "v": 58
    },
    {
      "midi": 59,
      "hit": false,
      "t": 20385,
      "d": 235,
      "v": 77
    },
    {
      "midi": 62,
      "hit": false,
      "t": 21000,
      "d": 95,
      "v": 91
    },
    {
      "midi": 64,
      "hit": false,
      "t": 21270,
      "d": 175,
      "v": 78
    },
    {
      "midi": 66,
      "hit": false,
      "t": 21550,
      "d": 845,
      "v": 80
    },
    {
      "midi": 62,
      "hit": false,
      "t": 21580,
      "d": 775,
      "v": 75
    },
    {
      "midi": 50,
      "hit": false,
      "t": 21850,
      "d": 640,
      "v": 75
    },
    {
      "midi": 54,
      "hit": false,
      "t": 22135,
      "d": 295,
      "v": 68
    },
    {
      "midi": 57,
      "hit": false,
      "t": 22470,
      "d": 540,
      "v": 81
    },
    {
      "midi": 69,
      "hit": false,
      "t": 23405,
      "d": 120,
      "v": 75
    },
    {
      "midi": 69,
      "hit": false,
      "t": 24005,
      "d": 240,
      "v": 79
    },
    {
      "midi": 61,
      "hit": false,
      "t": 24015,
      "d": 245,
      "v": 61
    },
    {
      "midi": 64,
      "hit": false,
      "t": 24025,
      "d": 230,
      "v": 89
    },
    {
      "midi": 45,
      "hit": false,
      "t": 24030,
      "d": 1340,
      "v": 82
    },
    {
      "midi": 52,
      "hit": false,
      "t": 24300,
      "d": 955,
      "v": 83
    },
    {
      "midi": 55,
      "hit": false,
      "t": 24600,
      "d": 90,
      "v": 66
    },
    {
      "midi": 61,
      "hit": false,
      "t": 24910,
      "d": 460,
      "v": 84
    },
    {
      "midi": 57,
      "hit": false,
      "t": 24925,
      "d": 360,
      "v": 86
    },
    {
      "midi": 55,
      "hit": false,
      "t": 24935,
      "d": 345,
      "v": 65
    },
    {
      "midi": 62,
      "hit": false,
      "t": 25795,
      "d": 90,
      "v": 94
    },
    {
      "midi": 64,
      "hit": false,
      "t": 26075,
      "d": 130,
      "v": 90
    },
    {
      "midi": 66,
      "hit": false,
      "t": 26365,
      "d": 1155,
      "v": 86
    },
    {
      "midi": 38,
      "hit": false,
      "t": 26400,
      "d": 220,
      "v": 79
    },
    {
      "midi": 62,
      "hit": false,
      "t": 26400,
      "d": 1090,
      "v": 81
    },
    {
      "midi": 50,
      "hit": false,
      "t": 26680,
      "d": 165,
      "v": 89
    },
    {
      "midi": 54,
      "hit": false,
      "t": 26955,
      "d": 170,
      "v": 87
    },
    {
      "midi": 57,
      "hit": false,
      "t": 27265,
      "d": 195,
      "v": 90
    },
    {
      "midi": 66,
      "hit": false,
      "t": 27855,
      "d": 120,
      "v": 85
    },
    {
      "midi": 64,
      "hit": false,
      "t": 28160,
      "d": 90,
      "v": 91
    },
    {
      "midi": 66,
      "hit": false,
      "t": 28425,
      "d": 130,
      "v": 87
    },
    {
      "midi": 64,
      "hit": false,
      "t": 28745,
      "d": 255,
      "v": 95
    },
    {
      "midi": 47,
      "hit": false,
      "t": 28775,
      "d": 1815,
      "v": 83
    },
    {
      "midi": 62,
      "hit": false,
      "t": 29060,
      "d": 910,
      "v": 87
    },
    {
      "midi": 54,
      "hit": false,
      "t": 29660,
      "d": 925,
      "v": 63
    },
    {
      "midi": 59,
      "hit": false,
      "t": 30005,
      "d": 670,
      "v": 86
    },
    {
      "midi": 57,
      "hit": false,
      "t": 30900,
      "d": 105,
      "v": 82
    },
    {
      "midi": 59,
      "hit": false,
      "t": 31210,
      "d": 245,
      "v": 89
    },
    {
      "midi": 43,
      "hit": false,
      "t": 31265,
      "d": 535,
      "v": 53
    },
    {
      "midi": 50,
      "hit": false,
      "t": 31470,
      "d": 125,
      "v": 83
    },
    {
      "midi": 55,
      "hit": false,
      "t": 31795,
      "d": 85,
      "v": 85
    },
    {
      "midi": 59,
      "hit": false,
      "t": 32075,
      "d": 640,
      "v": 97
    },
    {
      "midi": 45,
      "hit": false,
      "t": 32385,
      "d": 575,
      "v": 89
    },
    {
      "midi": 52,
      "hit": false,
      "t": 32665,
      "d": 240,
      "v": 86
    },
    {
      "midi": 59,
      "hit": false,
      "t": 32985,
      "d": 120,
      "v": 87
    },
    {
      "midi": 61,
      "hit": false,
      "t": 33270,
      "d": 135,
      "v": 84
    },
    {
      "midi": 38,
      "hit": false,
      "t": 33595,
      "d": 215,
      "v": 78
    },
    {
      "midi": 62,
      "hit": false,
      "t": 33600,
      "d": 490,
      "v": 89
    },
    {
      "midi": 45,
      "hit": false,
      "t": 33870,
      "d": 170,
      "v": 67
    },
    {
      "midi": 50,
      "hit": false,
      "t": 34190,
      "d": 125,
      "v": 72
    },
    {
      "midi": 54,
      "hit": false,
      "t": 34485,
      "d": 95,
      "v": 53
    },
    {
      "midi": 57,
      "hit": false,
      "t": 34790,
      "d": 80,
      "v": 82
    },
    {
      "midi": 74,
      "hit": false,
      "t": 35400,
      "d": 115,
      "v": 89
    },
    {
      "midi": 76,
      "hit": false,
      "t": 35680,
      "d": 130,
      "v": 86
    },
    {
      "midi": 78,
      "hit": false,
      "t": 35970,
      "d": 1165,
      "v": 88
    },
    {
      "midi": 50,
      "hit": false,
      "t": 36305,
      "d": 305,
      "v": 69
    },
    {
      "midi": 54,
      "hit": false,
      "t": 36580,
      "d": 250,
      "v": 84
    },
    {
      "midi": 57,
      "hit": false,
      "t": 36845,
      "d": 230,
      "v": 86
    },
    {
      "midi": 62,
      "hit": false,
      "t": 37170,
      "d": 160,
      "v": 91
    },
    {
      "midi": 78,
      "hit": false,
      "t": 37460,
      "d": 140,
      "v": 88
    },
    {
      "midi": 76,
      "hit": false,
      "t": 37760,
      "d": 105,
      "v": 89
    },
    {
      "midi": 78,
      "hit": false,
      "t": 38040,
      "d": 155,
      "v": 89
    },
    {
      "midi": 76,
      "hit": false,
      "t": 38365,
      "d": 220,
      "v": 72
    },
    {
      "midi": 74,
      "hit": false,
      "t": 38665,
      "d": 875,
      "v": 69
    },
    {
      "midi": 47,
      "hit": false,
      "t": 38685,
      "d": 1115,
      "v": 83
    },
    {
      "midi": 54,
      "hit": false,
      "t": 38990,
      "d": 840,
      "v": 66
    },
    {
      "midi": 71,
      "hit": false,
      "t": 39635,
      "d": 175,
      "v": 78
    },
    {
      "midi": 74,
      "hit": false,
      "t": 40205,
      "d": 130,
      "v": 82
    },
    {
      "midi": 76,
      "hit": false,
      "t": 40495,
      "d": 130,
      "v": 85
    },
    {
      "midi": 78,
      "hit": false,
      "t": 40810,
      "d": 1330,
      "v": 88
    },
    {
      "midi": 50,
      "hit": false,
      "t": 41090,
      "d": 255,
      "v": 86
    },
    {
      "midi": 54,
      "hit": false,
      "t": 41355,
      "d": 260,
      "v": 76
    },
    {
      "midi": 57,
      "hit": false,
      "t": 41645,
      "d": 255,
      "v": 78
    },
    {
      "midi": 62,
      "hit": false,
      "t": 41985,
      "d": 90,
      "v": 59
    },
    {
      "midi": 81,
      "hit": false,
      "t": 42605,
      "d": 100,
      "v": 93
    },
    {
      "midi": 81,
      "hit": false,
      "t": 43195,
      "d": 190,
      "v": 93
    },
    {
      "midi": 73,
      "hit": false,
      "t": 43210,
      "d": 185,
      "v": 60
    },
    {
      "midi": 76,
      "hit": false,
      "t": 43215,
      "d": 185,
      "v": 85
    },
    {
      "midi": 45,
      "hit": false,
      "t": 43215,
      "d": 1420,
      "v": 86
    },
    {
      "midi": 52,
      "hit": false,
      "t": 43485,
      "d": 750,
      "v": 83
    },
    {
      "midi": 55,
      "hit": false,
      "t": 43785,
      "d": 45,
      "v": 85
    },
    {
      "midi": 61,
      "hit": false,
      "t": 44095,
      "d": 360,
      "v": 76
    },
    {
      "midi": 57,
      "hit": false,
      "t": 44110,
      "d": 275,
      "v": 91
    },
    {
      "midi": 52,
      "hit": false,
      "t": 44685,
      "d": 50,
      "v": 89
    },
    {
      "midi": 74,
      "hit": false,
      "t": 44985,
      "d": 75,
      "v": 97
    },
    {
      "midi": 76,
      "hit": false,
      "t": 45270,
      "d": 65,
      "v": 96
    },
    {
      "midi": 78,
      "hit": false,
      "t": 45570,
      "d": 1200,
      "v": 92
    },
    {
      "midi": 50,
      "hit": false,
      "t": 45625,
      "d": 225,
      "v": 63
    },
    {
      "midi": 54,
      "hit": false,
      "t": 45845,
      "d": 265,
      "v": 64
    },
    {
      "midi": 57,
      "hit": false,
      "t": 46145,
      "d": 200,
      "v": 83
    },
    {
      "midi": 62,
      "hit": false,
      "t": 46465,
      "d": 175,
      "v": 78
    },
    {
      "midi": 66,
      "hit": false,
      "t": 46750,
      "d": 55,
      "v": 86
    },
    {
      "midi": 78,
      "hit": false,
      "t": 47035,
      "d": 110,
      "v": 90
    },
    {
      "midi": 76,
      "hit": false,
      "t": 47350,
      "d": 110,
      "v": 90
    },
    {
      "midi": 78,
      "hit": false,
      "t": 47650,
      "d": 100,
      "v": 64
    },
    {
      "midi": 76,
      "hit": false,
      "t": 47970,
      "d": 225,
      "v": 75
    },
    {
      "midi": 47,
      "hit": false,
      "t": 47970,
      "d": 1625,
      "v": 85
    },
    {
      "midi": 74,
      "hit": false,
      "t": 48260,
      "d": 895,
      "v": 91
    },
    {
      "midi": 54,
      "hit": false,
      "t": 48840,
      "d": 635,
      "v": 64
    },
    {
      "midi": 71,
      "hit": false,
      "t": 49195,
      "d": 605,
      "v": 86
    },
    {
      "midi": 54,
      "hit": false,
      "t": 49830,
      "d": 80,
      "v": 64
    },
    {
      "midi": 69,
      "hit": false,
      "t": 50110,
      "d": 145,
      "v": 81
    },
    {
      "midi": 71,
      "hit": false,
      "t": 50445,
      "d": 1500,
      "v": 90
    },
    {
      "midi": 43,
      "hit": false,
      "t": 50450,
      "d": 535,
      "v": 78
    },
    {
      "midi": 50,
      "hit": false,
      "t": 51075,
      "d": 530,
      "v": 40
    },
    {
      "midi": 45,
      "hit": false,
      "t": 51630,
      "d": 440,
      "v": 93
    },
    {
      "midi": 52,
      "hit": false,
      "t": 51905,
      "d": 275,
      "v": 74
    },
    {
      "midi": 71,
      "hit": false,
      "t": 52235,
      "d": 125,
      "v": 85
    },
    {
      "midi": 73,
      "hit": false,
      "t": 52510,
      "d": 115,
      "v": 81
    },
    {
      "midi": 74,
      "hit": false,
      "t": 52835,
      "d": 505,
      "v": 86
    },
    {
      "midi": 50,
      "hit": false,
      "t": 52845,
      "d": 255,
      "v": 74
    },
    {
      "midi": 54,
      "hit": false,
      "t": 53100,
      "d": 280,
      "v": 66
    },
    {
      "midi": 57,
      "hit": false,
      "t": 53410,
      "d": 170,
      "v": 81
    },
    {
      "midi": 62,
      "hit": false,
      "t": 53695,
      "d": 170,
      "v": 79
    },
    {
      "midi": 66,
      "hit": false,
      "t": 54005,
      "d": 100,
      "v": 64
    },
    {
      "midi": 38,
      "hit": false,
      "t": 93600,
      "d": 265,
      "v": 79
    },
    {
      "midi": 45,
      "hit": false,
      "t": 93875,
      "d": 230,
      "v": 82
    },
    {
      "midi": 50,
      "hit": false,
      "t": 94180,
      "d": 230,
      "v": 83
    },
    {
      "midi": 54,
      "hit": false,
      "t": 94490,
      "d": 225,
      "v": 80
    },
    {
      "midi": 57,
      "hit": false,
      "t": 94805,
      "d": 125,
      "v": 71
    },
    {
      "midi": 62,
      "hit": false,
      "t": 95415,
      "d": 160,
      "v": 59
    },
    {
      "midi": 64,
      "hit": false,
      "t": 95685,
      "d": 160,
      "v": 70
    },
    {
      "midi": 66,
      "hit": false,
      "t": 95995,
      "d": 990,
      "v": 75
    },
    {
      "midi": 62,
      "hit": false,
      "t": 96040,
      "d": 905,
      "v": 72
    },
    {
      "midi": 38,
      "hit": false,
      "t": 96075,
      "d": 165,
      "v": 37
    },
    {
      "midi": 50,
      "hit": false,
      "t": 96290,
      "d": 230,
      "v": 87
    },
    {
      "midi": 54,
      "hit": false,
      "t": 96575,
      "d": 205,
      "v": 84
    },
    {
      "midi": 57,
      "hit": false,
      "t": 96860,
      "d": 155,
      "v": 90
    },
    {
      "midi": 66,
      "hit": false,
      "t": 97435,
      "d": 135,
      "v": 96
    },
    {
      "midi": 64,
      "hit": false,
      "t": 97740,
      "d": 105,
      "v": 101
    },
    {
      "midi": 66,
      "hit": false,
      "t": 98010,
      "d": 115,
      "v": 89
    },
    {
      "midi": 64,
      "hit": false,
      "t": 98325,
      "d": 285,
      "v": 91
    },
    {
      "midi": 47,
      "hit": false,
      "t": 98355,
      "d": 1755,
      "v": 79
    },
    {
      "midi": 62,
      "hit": false,
      "t": 98640,
      "d": 885,
      "v": 75
    },
    {
      "midi": 54,
      "hit": false,
      "t": 99245,
      "d": 860,
      "v": 64
    },
    {
      "midi": 59,
      "hit": false,
      "t": 99560,
      "d": 530,
      "v": 86
    },
    {
      "midi": 57,
      "hit": false,
      "t": 100160,
      "d": 205,
      "v": 82
    },
    {
      "midi": 59,
      "hit": false,
      "t": 100750,
      "d": 300,
      "v": 74
    },
    {
      "midi": 43,
      "hit": false,
      "t": 100760,
      "d": 550,
      "v": 75
    },
    {
      "midi": 50,
      "hit": false,
      "t": 101025,
      "d": 270,
      "v": 81
    },
    {
      "midi": 55,
      "hit": false,
      "t": 101325,
      "d": 100,
      "v": 77
    },
    {
      "midi": 59,
      "hit": false,
      "t": 101595,
      "d": 705,
      "v": 101
    },
    {
      "midi": 45,
      "hit": false,
      "t": 101920,
      "d": 445,
      "v": 81
    },
    {
      "midi": 52,
      "hit": false,
      "t": 102235,
      "d": 155,
      "v": 75
    },
    {
      "midi": 59,
      "hit": false,
      "t": 102530,
      "d": 100,
      "v": 95
    },
    {
      "midi": 61,
      "hit": false,
      "t": 102795,
      "d": 95,
      "v": 89
    },
    {
      "midi": 38,
      "hit": false,
      "t": 103140,
      "d": 290,
      "v": 63
    },
    {
      "midi": 62,
      "hit": false,
      "t": 103145,
      "d": 3410,
      "v": 85
    },
    {
      "midi": 45,
      "hit": false,
      "t": 103420,
      "d": 190,
      "v": 74
    },
    {
      "midi": 50,
      "hit": false,
      "t": 103745,
      "d": 185,
      "v": 59
    },
    {
      "midi": 54,
      "hit": false,
      "t": 104005,
      "d": 155,
      "v": 66
    },
    {
      "midi": 57,
      "hit": false,
      "t": 104320,
      "d": 70,
      "v": 83
    },
    {
      "midi": 38,
      "hit": false,
      "t": 105505,
      "d": 215,
      "v": 77
    },
    {
      "midi": 45,
      "hit": false,
      "t": 105785,
      "d": 190,
      "v": 62
    },
    {
      "midi": 50,
      "hit": false,
      "t": 106130,
      "d": 170,
      "v": 52
    },
    {
      "midi": 54,
      "hit": false,
      "t": 106415,
      "d": 180,
      "v": 73
    },
    {
      "midi": 57,
      "hit": false,
      "t": 106725,
      "d": 80,
      "v": 78
    },
    {
      "midi": 62,
      "hit": false,
      "t": 107390,
      "d": 95,
      "v": 90
    },
    {
      "midi": 64,
      "hit": false,
      "t": 107655,
      "d": 75,
      "v": 101
    },
    {
      "midi": 66,
      "hit": false,
      "t": 107960,
      "d": 1175,
      "v": 101
    },
    {
      "midi": 38,
      "hit": false,
      "t": 107980,
      "d": 240,
      "v": 82
    },
    {
      "midi": 45,
      "hit": false,
      "t": 108280,
      "d": 180,
      "v": 53
    },
    {
      "midi": 50,
      "hit": false,
      "t": 108585,
      "d": 170,
      "v": 66
    },
    {
      "midi": 54,
      "hit": false,
      "t": 108850,
      "d": 200,
      "v": 49
    },
    {
      "midi": 57,
      "hit": false,
      "t": 109165,
      "d": 95,
      "v": 75
    },
    {
      "midi": 66,
      "hit": false,
      "t": 109435,
      "d": 110,
      "v": 92
    },
    {
      "midi": 64,
      "hit": false,
      "t": 109735,
      "d": 90,
      "v": 101
    },
    {
      "midi": 66,
      "hit": false,
      "t": 110015,
      "d": 115,
      "v": 81
    },
    {
      "midi": 64,
      "hit": false,
      "t": 110315,
      "d": 275,
      "v": 96
    },
    {
      "midi": 47,
      "hit": false,
      "t": 110345,
      "d": 1300,
      "v": 81
    },
    {
      "midi": 62,
      "hit": false,
      "t": 110625,
      "d": 860,
      "v": 86
    },
    {
      "midi": 54,
      "hit": false,
      "t": 111250,
      "d": 415,
      "v": 57
    },
    {
      "midi": 59,
      "hit": false,
      "t": 111525,
      "d": 145,
      "v": 81
    },
    {
      "midi": 62,
      "hit": false,
      "t": 112185,
      "d": 115,
      "v": 90
    },
    {
      "midi": 64,
      "hit": false,
      "t": 112470,
      "d": 70,
      "v": 91
    },
    {
      "midi": 66,
      "hit": false,
      "t": 112775,
      "d": 1165,
      "v": 95
    },
    {
      "midi": 38,
      "hit": false,
      "t": 112820,
      "d": 215,
      "v": 63
    },
    {
      "midi": 50,
      "hit": false,
      "t": 113110,
      "d": 205,
      "v": 72
    },
    {
      "midi": 54,
      "hit": false,
      "t": 113410,
      "d": 185,
      "v": 38
    },
    {
      "midi": 57,
      "hit": false,
      "t": 113695,
      "d": 165,
      "v": 81
    },
    {
      "midi": 69,
      "hit": false,
      "t": 114565,
      "d": 125,
      "v": 86
    },
    {
      "midi": 69,
      "hit": false,
      "t": 115190,
      "d": 210,
      "v": 83
    },
    {
      "midi": 45,
      "hit": false,
      "t": 115205,
      "d": 1295,
      "v": 79
    },
    {
      "midi": 52,
      "hit": false,
      "t": 115505,
      "d": 645,
      "v": 66
    },
    {
      "midi": 55,
      "hit": false,
      "t": 115770,
      "d": 60,
      "v": 78
    },
    {
      "midi": 61,
      "hit": false,
      "t": 116090,
      "d": 310,
      "v": 77
    },
    {
      "midi": 57,
      "hit": false,
      "t": 116095,
      "d": 250,
      "v": 85
    },
    {
      "midi": 55,
      "hit": false,
      "t": 116115,
      "d": 215,
      "v": 71
    },
    {
      "midi": 52,
      "hit": false,
      "t": 116660,
      "d": 55,
      "v": 90
    },
    {
      "midi": 62,
      "hit": false,
      "t": 116955,
      "d": 95,
      "v": 96
    },
    {
      "midi": 64,
      "hit": false,
      "t": 117235,
      "d": 80,
      "v": 102
    },
    {
      "midi": 66,
      "hit": false,
      "t": 117520,
      "d": 1080,
      "v": 89
    },
    {
      "midi": 38,
      "hit": false,
      "t": 117565,
      "d": 190,
      "v": 78
    },
    {
      "midi": 50,
      "hit": false,
      "t": 117820,
      "d": 210,
      "v": 91
    },
    {
      "midi": 54,
      "hit": false,
      "t": 118115,
      "d": 195,
      "v": 81
    },
    {
      "midi": 57,
      "hit": false,
      "t": 118435,
      "d": 90,
      "v": 81
    },
    {
      "midi": 66,
      "hit": false,
      "t": 119070,
      "d": 125,
      "v": 88
    },
    {
      "midi": 64,
      "hit": false,
      "t": 119360,
      "d": 100,
      "v": 97
    },
    {
      "midi": 66,
      "hit": false,
      "t": 119630,
      "d": 135,
      "v": 86
    },
    {
      "midi": 64,
      "hit": false,
      "t": 119950,
      "d": 275,
      "v": 95
    },
    {
      "midi": 47,
      "hit": false,
      "t": 119980,
      "d": 1530,
      "v": 75
    },
    {
      "midi": 62,
      "hit": false,
      "t": 120280,
      "d": 885,
      "v": 89
    },
    {
      "midi": 54,
      "hit": false,
      "t": 120905,
      "d": 605,
      "v": 63
    },
    {
      "midi": 59,
      "hit": false,
      "t": 121200,
      "d": 380,
      "v": 83
    },
    {
      "midi": 57,
      "hit": false,
      "t": 121780,
      "d": 120,
      "v": 89
    },
    {
      "midi": 59,
      "hit": false,
      "t": 122385,
      "d": 270,
      "v": 96
    },
    {
      "midi": 43,
      "hit": false,
      "t": 122415,
      "d": 410,
      "v": 79
    },
    {
      "midi": 50,
      "hit": false,
      "t": 122675,
      "d": 205,
      "v": 79
    },
    {
      "midi": 55,
      "hit": false,
      "t": 122980,
      "d": 115,
      "v": 78
    },
    {
      "midi": 59,
      "hit": false,
      "t": 123270,
      "d": 590,
      "v": 97
    },
    {
      "midi": 45,
      "hit": false,
      "t": 123560,
      "d": 425,
      "v": 87
    },
    {
      "midi": 52,
      "hit": false,
      "t": 123855,
      "d": 130,
      "v": 83
    },
    {
      "midi": 59,
      "hit": false,
      "t": 124175,
      "d": 125,
      "v": 87
    },
    {
      "midi": 61,
      "hit": false,
      "t": 124450,
      "d": 115,
      "v": 93
    },
    {
      "midi": 62,
      "hit": false,
      "t": 124765,
      "d": 930,
      "v": 94
    },
    {
      "midi": 38,
      "hit": false,
      "t": 124770,
      "d": 210,
      "v": 73
    },
    {
      "midi": 45,
      "hit": false,
      "t": 125055,
      "d": 185,
      "v": 65
    },
    {
      "midi": 50,
      "hit": false,
      "t": 125355,
      "d": 205,
      "v": 73
    },
    {
      "midi": 54,
      "hit": false,
      "t": 125655,
      "d": 240,
      "v": 58
    },
    {
      "midi": 57,
      "hit": false,
      "t": 126005,
      "d": 75,
      "v": 63
    },
    {
      "midi": 74,
      "hit": false,
      "t": 126610,
      "d": 145,
      "v": 85
    },
    {
      "midi": 76,
      "hit": false,
      "t": 126880,
      "d": 80,
      "v": 101
    },
    {
      "midi": 78,
      "hit": false,
      "t": 127175,
      "d": 1195,
      "v": 94
    },
    {
      "midi": 50,
      "hit": false,
      "t": 127215,
      "d": 250,
      "v": 67
    },
    {
      "midi": 54,
      "hit": false,
      "t": 127450,
      "d": 250,
      "v": 79
    },
    {
      "midi": 57,
      "hit": false,
      "t": 127735,
      "d": 185,
      "v": 85
    },
    {
      "midi": 62,
      "hit": false,
      "t": 128050,
      "d": 275,
      "v": 79
    },
    {
      "midi": 66,
      "hit": false,
      "t": 128360,
      "d": 55,
      "v": 68
    },
    {
      "midi": 78,
      "hit": false,
      "t": 128640,
      "d": 125,
      "v": 93
    },
    {
      "midi": 76,
      "hit": false,
      "t": 128935,
      "d": 115,
      "v": 89
    },
    {
      "midi": 78,
      "hit": false,
      "t": 129215,
      "d": 165,
      "v": 84
    },
    {
      "midi": 76,
      "hit": false,
      "t": 129545,
      "d": 230,
      "v": 74
    },
    {
      "midi": 47,
      "hit": false,
      "t": 129580,
      "d": 1300,
      "v": 71
    },
    {
      "midi": 74,
      "hit": false,
      "t": 129840,
      "d": 785,
      "v": 85
    },
    {
      "midi": 54,
      "hit": false,
      "t": 130440,
      "d": 470,
      "v": 64
    },
    {
      "midi": 71,
      "hit": false,
      "t": 130760,
      "d": 140,
      "v": 90
    },
    {
      "midi": 74,
      "hit": false,
      "t": 131355,
      "d": 225,
      "v": 91
    },
    {
      "midi": 76,
      "hit": false,
      "t": 131645,
      "d": 260,
      "v": 94
    },
    {
      "midi": 78,
      "hit": false,
      "t": 131945,
      "d": 1380,
      "v": 89
    },
    {
      "midi": 50,
      "hit": false,
      "t": 132210,
      "d": 310,
      "v": 87
    },
    {
      "midi": 54,
      "hit": false,
      "t": 132505,
      "d": 250,
      "v": 86
    },
    {
      "midi": 57,
      "hit": false,
      "t": 132805,
      "d": 255,
      "v": 73
    },
    {
      "midi": 62,
      "hit": false,
      "t": 133155,
      "d": 120,
      "v": 94
    },
    {
      "midi": 81,
      "hit": false,
      "t": 133735,
      "d": 130,
      "v": 96
    },
    {
      "midi": 81,
      "hit": false,
      "t": 134345,
      "d": 175,
      "v": 95
    },
    {
      "midi": 45,
      "hit": false,
      "t": 134350,
      "d": 1510,
      "v": 86
    },
    {
      "midi": 52,
      "hit": false,
      "t": 134650,
      "d": 770,
      "v": 71
    },
    {
      "midi": 61,
      "hit": false,
      "t": 135250,
      "d": 325,
      "v": 70
    },
    {
      "midi": 57,
      "hit": false,
      "t": 135280,
      "d": 235,
      "v": 81
    },
    {
      "midi": 55,
      "hit": false,
      "t": 135325,
      "d": 180,
      "v": 33
    },
    {
      "midi": 52,
      "hit": false,
      "t": 135910,
      "d": 80,
      "v": 77
    },
    {
      "midi": 74,
      "hit": false,
      "t": 136205,
      "d": 160,
      "v": 91
    },
    {
      "midi": 76,
      "hit": false,
      "t": 136490,
      "d": 105,
      "v": 97
    },
    {
      "midi": 78,
      "hit": false,
      "t": 136795,
      "d": 1195,
      "v": 93
    },
    {
      "midi": 50,
      "hit": false,
      "t": 136830,
      "d": 235,
      "v": 70
    },
    {
      "midi": 54,
      "hit": false,
      "t": 137060,
      "d": 270,
      "v": 79
    },
    {
      "midi": 57,
      "hit": false,
      "t": 137375,
      "d": 205,
      "v": 81
    },
    {
      "midi": 62,
      "hit": false,
      "t": 137665,
      "d": 200,
      "v": 77
    },
    {
      "midi": 66,
      "hit": false,
      "t": 137970,
      "d": 90,
      "v": 88
    },
    {
      "midi": 78,
      "hit": false,
      "t": 138235,
      "d": 115,
      "v": 93
    },
    {
      "midi": 76,
      "hit": false,
      "t": 138525,
      "d": 110,
      "v": 91
    },
    {
      "midi": 78,
      "hit": false,
      "t": 138800,
      "d": 205,
      "v": 88
    },
    {
      "midi": 76,
      "hit": false,
      "t": 139115,
      "d": 255,
      "v": 93
    },
    {
      "midi": 47,
      "hit": false,
      "t": 139145,
      "d": 1535,
      "v": 81
    },
    {
      "midi": 74,
      "hit": false,
      "t": 139420,
      "d": 910,
      "v": 89
    },
    {
      "midi": 54,
      "hit": false,
      "t": 140040,
      "d": 655,
      "v": 53
    },
    {
      "midi": 71,
      "hit": false,
      "t": 140360,
      "d": 375,
      "v": 90
    },
    {
      "midi": 69,
      "hit": false,
      "t": 140980,
      "d": 235,
      "v": 79
    },
    {
      "midi": 71,
      "hit": false,
      "t": 141595,
      "d": 310,
      "v": 93
    },
    {
      "midi": 67,
      "hit": false,
      "t": 141610,
      "d": 265,
      "v": 81
    },
    {
      "midi": 43,
      "hit": false,
      "t": 141625,
      "d": 480,
      "v": 70
    },
    {
      "midi": 50,
      "hit": false,
      "t": 141910,
      "d": 300,
      "v": 67
    },
    {
      "midi": 67,
      "hit": false,
      "t": 142175,
      "d": 70,
      "v": 87
    },
    {
      "midi": 71,
      "hit": false,
      "t": 142475,
      "d": 580,
      "v": 99
    },
    {
      "midi": 45,
      "hit": false,
      "t": 142775,
      "d": 435,
      "v": 78
    },
    {
      "midi": 52,
      "hit": false,
      "t": 143045,
      "d": 105,
      "v": 89
    },
    {
      "midi": 71,
      "hit": false,
      "t": 143360,
      "d": 135,
      "v": 78
    },
    {
      "midi": 73,
      "hit": false,
      "t": 143645,
      "d": 125,
      "v": 81
    },
    {
      "midi": 38,
      "hit": false,
      "t": 143920,
      "d": 290,
      "v": 78
    },
    {
      "midi": 74,
      "hit": false,
      "t": 143950,
      "d": 810,
      "v": 85
    },
    {
      "midi": 45,
      "hit": false,
      "t": 144235,
      "d": 235,
      "v": 86
    },
    {
      "midi": 50,
      "hit": false,
      "t": 144580,
      "d": 240,
      "v": 75
    },
    {
      "midi": 54,
      "hit": false,
      "t": 144840,
      "d": 180,
      "v": 75
    },
    {
      "midi": 57,
      "hit": false,
      "t": 145155,
      "d": 80,
      "v": 87
    },
    {
      "midi": 38,
      "hit": false,
      "t": 146360,
      "d": 270,
      "v": 86
    },
    {
      "midi": 45,
      "hit": false,
      "t": 146655,
      "d": 235,
      "v": 71
    },
    {
      "midi": 50,
      "hit": false,
      "t": 146965,
      "d": 275,
      "v": 66
    },
    {
      "midi": 54,
      "hit": false,
      "t": 147245,
      "d": 210,
      "v": 81
    },
    {
      "midi": 57,
      "hit": false,
      "t": 147545,
      "d": 80,
      "v": 93
    },
    {
      "midi": 62,
      "hit": false,
      "t": 148125,
      "d": 135,
      "v": 97
    },
    {
      "midi": 64,
      "hit": false,
      "t": 148425,
      "d": 145,
      "v": 94
    },
    {
      "midi": 66,
      "hit": false,
      "t": 148725,
      "d": 1220,
      "v": 88
    },
    {
      "midi": 62,
      "hit": false,
      "t": 148760,
      "d": 1145,
      "v": 81
    },
    {
      "midi": 38,
      "hit": false,
      "t": 148765,
      "d": 210,
      "v": 75
    },
    {
      "midi": 45,
      "hit": false,
      "t": 149020,
      "d": 230,
      "v": 78
    },
    {
      "midi": 50,
      "hit": false,
      "t": 149330,
      "d": 250,
      "v": 86
    },
    {
      "midi": 54,
      "hit": false,
      "t": 149610,
      "d": 235,
      "v": 81
    },
    {
      "midi": 57,
      "hit": false,
      "t": 149930,
      "d": 75,
      "v": 90
    },
    {
      "midi": 66,
      "hit": false,
      "t": 150225,
      "d": 110,
      "v": 94
    },
    {
      "midi": 64,
      "hit": false,
      "t": 150520,
      "d": 105,
      "v": 97
    },
    {
      "midi": 66,
      "hit": false,
      "t": 150800,
      "d": 145,
      "v": 85
    },
    {
      "midi": 64,
      "hit": false,
      "t": 151125,
      "d": 260,
      "v": 89
    },
    {
      "midi": 47,
      "hit": false,
      "t": 151150,
      "d": 1435,
      "v": 90
    },
    {
      "midi": 62,
      "hit": false,
      "t": 151440,
      "d": 910,
      "v": 94
    },
    {
      "midi": 54,
      "hit": false,
      "t": 152055,
      "d": 530,
      "v": 70
    },
    {
      "midi": 59,
      "hit": false,
      "t": 152395,
      "d": 330,
      "v": 86
    },
    {
      "midi": 57,
      "hit": false,
      "t": 152985,
      "d": 170,
      "v": 73
    },
    {
      "midi": 59,
      "hit": false,
      "t": 153590,
      "d": 235,
      "v": 89
    },
    {
      "midi": 43,
      "hit": false,
      "t": 153595,
      "d": 440,
      "v": 83
    },
    {
      "midi": 50,
      "hit": false,
      "t": 153865,
      "d": 225,
      "v": 77
    },
    {
      "midi": 55,
      "hit": false,
      "t": 154180,
      "d": 120,
      "v": 89
    },
    {
      "midi": 59,
      "hit": false,
      "t": 154465,
      "d": 645,
      "v": 102
    },
    {
      "midi": 45,
      "hit": false,
      "t": 154775,
      "d": 555,
      "v": 78
    },
    {
      "midi": 52,
      "hit": false,
      "t": 155055,
      "d": 230,
      "v": 93
    },
    {
      "midi": 59,
      "hit": false,
      "t": 155370,
      "d": 110,
      "v": 96
    },
    {
      "midi": 61,
      "hit": false,
      "t": 155650,
      "d": 130,
      "v": 88
    },
    {
      "midi": 62,
      "hit": false,
      "t": 155975,
      "d": 550,
      "v": 95
    },
    {
      "midi": 38,
      "hit": false,
      "t": 155990,
      "d": 240,
      "v": 83
    },
    {
      "midi": 45,
      "hit": false,
      "t": 156245,
      "d": 200,
      "v": 89
    },
    {
      "midi": 50,
      "hit": false,
      "t": 156560,
      "d": 235,
      "v": 85
    },
    {
      "midi": 54,
      "hit": false,
      "t": 156855,
      "d": 180,
      "v": 90
    },
    {
      "midi": 57,
      "hit": false,
      "t": 157170,
      "d": 85,
      "v": 95
    },
    {
      "midi": 62,
      "hit": false,
      "t": 157490,
      "d": 100,
      "v": 85
    },
    {
      "midi": 66,
      "hit": false,
      "t": 157815,
      "d": 135,
      "v": 70
    },
    {
      "midi": 69,
      "hit": false,
      "t": 158115,
      "d": 120,
      "v": 91
    },
    {
      "midi": 74,
      "hit": false,
      "t": 158515,
      "d": 110,
      "v": 79
    }
  ]
}