{
  "jsonPath": "Rock/Belgian Rock/Mamas Jasje/reis-door-niemandsland.json",
  "path": "Rock\\Belgian Rock\\Mamas Jasje\\Reis Door Niemandsland.mid",
  "name": "Reis Door Niemandsland",
  "difficulty": "Advanced",
  "bpm": 134.00065660321735,
  "notes": [
    {
      "midi": 64,
      "hit": false,
      "t": 1793.368078125,
      "d": 2929.0901249999993,
      "v": 126
    },
    {
      "midi": 45,
      "hit": false,
      "t": 1793.368078125,
      "d": 3388.5095156249995,
      "v": 125
    },
    {
      "midi": 59,
      "hit": false,
      "t": 1795.70015625,
      "d": 228.54365625000014,
      "v": 103
    },
    {
      "midi": 60,
      "hit": false,
      "t": 2017.247578125,
      "d": 2726.1993281249993,
      "v": 127
    },
    {
      "midi": 57,
      "hit": false,
      "t": 2241.127078125,
      "d": 2488.3273593749996,
      "v": 115
    },
    {
      "midi": 52,
      "hit": false,
      "t": 4703.801578125,
      "d": 645.9856406250001,
      "v": 119
    },
    {
      "midi": 59,
      "hit": false,
      "t": 4927.681078125,
      "d": 235.53989062500023,
      "v": 105
    },
    {
      "midi": 64,
      "hit": false,
      "t": 4927.681078125,
      "d": 475.74393750000036,
      "v": 127
    },
    {
      "midi": 60,
      "hit": false,
      "t": 5151.560578125,
      "d": 230.87573437500032,
      "v": 126
    },
    {
      "midi": 62,
      "hit": false,
      "t": 5375.440078125,
      "d": 2525.6406093749993,
      "v": 118
    },
    {
      "midi": 43,
      "hit": false,
      "t": 5375.440078125,
      "d": 3358.1924999999983,
      "v": 120
    },
    {
      "midi": 59,
      "hit": false,
      "t": 5377.77215625,
      "d": 2478.9990468749993,
      "v": 101
    },
    {
      "midi": 55,
      "hit": false,
      "t": 5823.199078125,
      "d": 1921.6323750000001,
      "v": 109
    },
    {
      "midi": 55,
      "hit": false,
      "t": 7838.114578125,
      "d": 1051.7672343749982,
      "v": 115
    },
    {
      "midi": 64,
      "hit": false,
      "t": 8061.994078124999,
      "d": 440.7627656250006,
      "v": 116
    },
    {
      "midi": 69,
      "hit": false,
      "t": 8061.994078124999,
      "d": 3465.4680937499998,
      "v": 119
    },
    {
      "midi": 62,
      "hit": false,
      "t": 8509.753078124999,
      "d": 317.162624999999,
      "v": 107
    },
    {
      "midi": 67,
      "hit": false,
      "t": 8509.753078124999,
      "d": 431.434453124999,
      "v": 111
    },
    {
      "midi": 65,
      "hit": false,
      "t": 8959.844156249997,
      "d": 2714.5389375000013,
      "v": 118
    },
    {
      "midi": 60,
      "hit": false,
      "t": 8959.844156249997,
      "d": 3057.3544218749994,
      "v": 115
    },
    {
      "midi": 53,
      "hit": false,
      "t": 8959.844156249997,
      "d": 3535.430437500001,
      "v": 113
    },
    {
      "midi": 69,
      "hit": false,
      "t": 11867.945578124998,
      "d": 167.9096249999984,
      "v": 127
    },
    {
      "midi": 67,
      "hit": false,
      "t": 11979.885328124998,
      "d": 114.27182812499996,
      "v": 126
    },
    {
      "midi": 65,
      "hit": false,
      "t": 12091.825078124997,
      "d": 235.53989062500114,
      "v": 123
    },
    {
      "midi": 60,
      "hit": false,
      "t": 12315.704578124998,
      "d": 167.90962500000023,
      "v": 115
    },
    {
      "midi": 52,
      "hit": false,
      "t": 12539.584078124999,
      "d": 1152.0465937499994,
      "v": 127
    },
    {
      "midi": 64,
      "hit": false,
      "t": 12541.91615625,
      "d": 1434.2280468749996,
      "v": 123
    },
    {
      "midi": 68,
      "hit": false,
      "t": 12541.91615625,
      "d": 1445.8884374999998,
      "v": 125
    },
    {
      "midi": 59,
      "hit": false,
      "t": 12987.343078124999,
      "d": 944.4916406249995,
      "v": 75
    },
    {
      "midi": 52,
      "hit": false,
      "t": 13882.861078124999,
      "d": 263.52482812500057,
      "v": 110
    },
    {
      "midi": 54,
      "hit": false,
      "t": 14106.740578125,
      "d": 235.53989062499932,
      "v": 124
    },
    {
      "midi": 76,
      "hit": false,
      "t": 14330.620078124999,
      "d": 1259.3221875,
      "v": 120
    },
    {
      "midi": 71,
      "hit": false,
      "t": 14330.620078124999,
      "d": 1392.2506406249995,
      "v": 126
    },
    {
      "midi": 56,
      "hit": false,
      "t": 14332.95215625,
      "d": 1005.1256718749992,
      "v": 127
    },
    {
      "midi": 64,
      "hit": false,
      "t": 14778.379078124999,
      "d": 739.268765625,
      "v": 109
    },
    {
      "midi": 56,
      "hit": false,
      "t": 15450.017578124998,
      "d": 627.3290156250005,
      "v": 111
    },
    {
      "midi": 64,
      "hit": false,
      "t": 15673.897078125,
      "d": 440.7627656249988,
      "v": 117
    },
    {
      "midi": 76,
      "hit": false,
      "t": 15897.776578124998,
      "d": 188.89832812500026,
      "v": 116
    },
    {
      "midi": 57,
      "hit": false,
      "t": 16121.656078124997,
      "d": 2392.712156249996,
      "v": 115
    },
    {
      "midi": 72,
      "hit": false,
      "t": 16121.656078124997,
      "d": 2593.2708749999983,
      "v": 127
    },
    {
      "midi": 64,
      "hit": false,
      "t": 16345.535578124996,
      "d": 2045.2325156249972,
      "v": 108
    },
    {
      "midi": 69,
      "hit": false,
      "t": 16569.415078124995,
      "d": 2080.2136874999997,
      "v": 113
    },
    {
      "midi": 45,
      "hit": false,
      "t": 17912.692078124994,
      "d": 1821.3530156250054,
      "v": 104
    },
    {
      "midi": 57,
      "hit": false,
      "t": 18584.330578124995,
      "d": 708.9517500000002,
      "v": 105
    },
    {
      "midi": 71,
      "hit": false,
      "t": 18808.210078124997,
      "d": 242.53612499999872,
      "v": 127
    },
    {
      "midi": 76,
      "hit": false,
      "t": 18808.210078124997,
      "d": 839.5481249999975,
      "v": 127
    },
    {
      "midi": 72,
      "hit": false,
      "t": 19032.089578124996,
      "d": 645.9856406250001,
      "v": 127
    },
    {
      "midi": 69,
      "hit": false,
      "t": 19255.969078124996,
      "d": 300.838078124998,
      "v": 117
    },
    {
      "midi": 57,
      "hit": false,
      "t": 19479.848578124995,
      "d": 104.94351562500015,
      "v": 103
    },
    {
      "midi": 67,
      "hit": false,
      "t": 19706.060156249998,
      "d": 1630.122609375001,
      "v": 125
    },
    {
      "midi": 71,
      "hit": false,
      "t": 19706.060156249998,
      "d": 1641.7829999999994,
      "v": 114
    },
    {
      "midi": 74,
      "hit": false,
      "t": 19706.060156249998,
      "d": 1683.7604062499995,
      "v": 114
    },
    {
      "midi": 55,
      "hit": false,
      "t": 19706.060156249998,
      "d": 3449.1435468749987,
      "v": 118
    },
    {
      "midi": 43,
      "hit": false,
      "t": 19927.607578125,
      "d": 3309.2188593749925,
      "v": 105
    },
    {
      "midi": 81,
      "hit": false,
      "t": 21718.643578124997,
      "d": 403.44951562500137,
      "v": 105
    },
    {
      "midi": 76,
      "hit": false,
      "t": 21718.643578124997,
      "d": 422.106140625001,
      "v": 105
    },
    {
      "midi": 79,
      "hit": false,
      "t": 22166.402578125,
      "d": 207.55495312499988,
      "v": 95
    },
    {
      "midi": 74,
      "hit": false,
      "t": 22166.402578125,
      "d": 249.53235937499994,
      "v": 104
    },
    {
      "midi": 69,
      "hit": false,
      "t": 22614.161578124997,
      "d": 212.2191093750007,
      "v": 116
    },
    {
      "midi": 74,
      "hit": false,
      "t": 22614.161578124997,
      "d": 608.6723906249972,
      "v": 111
    },
    {
      "midi": 71,
      "hit": false,
      "t": 22838.041078124996,
      "d": 335.81925000000047,
      "v": 101
    },
    {
      "midi": 67,
      "hit": false,
      "t": 23061.920578124995,
      "d": 149.2530000000006,
      "v": 103
    },
    {
      "midi": 71,
      "hit": false,
      "t": 23288.132156249994,
      "d": 167.90962500000023,
      "v": 118
    },
    {
      "midi": 53,
      "hit": false,
      "t": 23288.132156249994,
      "d": 2357.730984375001,
      "v": 116
    },
    {
      "midi": 72,
      "hit": false,
      "t": 23397.739828124995,
      "d": 2623.587890625,
      "v": 81
    },
    {
      "midi": 65,
      "hit": false,
      "t": 23733.559078124996,
      "d": 2285.436562499999,
      "v": 115
    },
    {
      "midi": 69,
      "hit": false,
      "t": 23957.438578124995,
      "d": 2077.8816093749992,
      "v": 113
    },
    {
      "midi": 53,
      "hit": false,
      "t": 25748.474578124995,
      "d": 851.2085156249996,
      "v": 116
    },
    {
      "midi": 60,
      "hit": false,
      "t": 25972.354078124994,
      "d": 599.3440781249992,
      "v": 116
    },
    {
      "midi": 67,
      "hit": false,
      "t": 26196.233578124993,
      "d": 207.55495312499988,
      "v": 125
    },
    {
      "midi": 72,
      "hit": false,
      "t": 26196.233578124993,
      "d": 601.6761562500033,
      "v": 125
    },
    {
      "midi": 69,
      "hit": false,
      "t": 26420.113078124992,
      "d": 380.12873437500457,
      "v": 120
    },
    {
      "midi": 65,
      "hit": false,
      "t": 26643.992578124995,
      "d": 153.91715625000143,
      "v": 110
    },
    {
      "midi": 52,
      "hit": false,
      "t": 26867.872078124998,
      "d": 1175.3673750000053,
      "v": 114
    },
    {
      "midi": 71,
      "hit": false,
      "t": 26867.872078124998,
      "d": 1569.488578125005,
      "v": 116
    },
    {
      "midi": 68,
      "hit": false,
      "t": 26870.204156249998,
      "d": 1147.382437500004,
      "v": 121
    },
    {
      "midi": 64,
      "hit": false,
      "t": 26870.204156249998,
      "d": 2087.209921875008,
      "v": 123
    },
    {
      "midi": 59,
      "hit": false,
      "t": 27315.631078125,
      "d": 527.0496562500011,
      "v": 84
    },
    {
      "midi": 52,
      "hit": false,
      "t": 28211.149078125003,
      "d": 235.53989062500114,
      "v": 103
    },
    {
      "midi": 54,
      "hit": false,
      "t": 28435.028578125002,
      "d": 230.87573437500396,
      "v": 117
    },
    {
      "midi": 56,
      "hit": false,
      "t": 28661.240156250005,
      "d": 998.1294374999998,
      "v": 124
    },
    {
      "midi": 71,
      "hit": false,
      "t": 28661.240156250005,
      "d": 1415.571421875,
      "v": 121
    },
    {
      "midi": 76,
      "hit": false,
      "t": 28661.240156250005,
      "d": 1798.032234375005,
      "v": 118
    },
    {
      "midi": 64,
      "hit": false,
      "t": 29106.667078125007,
      "d": 720.6121406249986,
      "v": 112
    },
    {
      "midi": 56,
      "hit": false,
      "t": 29778.305578125004,
      "d": 655.3139531250054,
      "v": 109
    },
    {
      "midi": 64,
      "hit": false,
      "t": 30002.185078125007,
      "d": 356.8079531250005,
      "v": 120
    },
    {
      "midi": 71,
      "hit": false,
      "t": 30226.064578125006,
      "d": 179.57001562500227,
      "v": 106
    },
    {
      "midi": 72,
      "hit": false,
      "t": 30449.94407812501,
      "d": 496.7326406250031,
      "v": 116
    },
    {
      "midi": 57,
      "hit": false,
      "t": 30449.94407812501,
      "d": 2269.112015625007,
      "v": 109
    },
    {
      "midi": 64,
      "hit": false,
      "t": 30673.82357812501,
      "d": 2243.4591562500063,
      "v": 105
    },
    {
      "midi": 69,
      "hit": false,
      "t": 30897.70307812501,
      "d": 1777.043531250005,
      "v": 106
    },
    {
      "midi": 72,
      "hit": false,
      "t": 31121.582578125013,
      "d": 1550.8319531250017,
      "v": 109
    },
    {
      "midi": 45,
      "hit": false,
      "t": 31121.582578125013,
      "d": 2894.108953125022,
      "v": 98
    },
    {
      "midi": 57,
      "hit": false,
      "t": 32912.61857812502,
      "d": 774.2499375000116,
      "v": 118
    },
    {
      "midi": 59,
      "hit": false,
      "t": 33136.49807812502,
      "d": 242.536125000006,
      "v": 93
    },
    {
      "midi": 64,
      "hit": false,
      "t": 33136.49807812502,
      "d": 886.1896875000166,
      "v": 125
    },
    {
      "midi": 60,
      "hit": false,
      "t": 33360.37757812502,
      "d": 641.3214843750102,
      "v": 125
    },
    {
      "midi": 57,
      "hit": false,
      "t": 33808.13657812503,
      "d": 137.5926093750022,
      "v": 106
    },
    {
      "midi": 62,
      "hit": false,
      "t": 34032.01607812504,
      "d": 1606.801828124997,
      "v": 123
    },
    {
      "midi": 59,
      "hit": false,
      "t": 34034.34815625004,
      "d": 1536.8394843749993,
      "v": 94
    },
    {
      "midi": 55,
      "hit": false,
      "t": 34034.34815625004,
      "d": 2497.6556718749925,
      "v": 127
    },
    {
      "midi": 43,
      "hit": false,
      "t": 34367.83532812504,
      "d": 1888.9832812499953,
      "v": 110
    },
    {
      "midi": 69,
      "hit": false,
      "t": 36046.93157812503,
      "d": 118.93598437499895,
      "v": 125
    },
    {
      "midi": 74,
      "hit": false,
      "t": 36046.93157812503,
      "d": 907.1783906250057,
      "v": 120
    },
    {
      "midi": 71,
      "hit": false,
      "t": 36158.87132812503,
      "d": 132.9284531250014,
      "v": 118
    },
    {
      "midi": 69,
      "hit": false,
      "t": 36270.811078125036,
      "d": 228.54365624999627,
      "v": 125
    },
    {
      "midi": 67,
      "hit": false,
      "t": 36494.69057812503,
      "d": 485.0722500000047,
      "v": 118
    },
    {
      "midi": 59,
      "hit": false,
      "t": 36718.570078125034,
      "d": 713.6159062500083,
      "v": 99
    },
    {
      "midi": 62,
      "hit": false,
      "t": 36942.44957812504,
      "d": 466.41562500000873,
      "v": 127
    },
    {
      "midi": 67,
      "hit": false,
      "t": 37166.32907812504,
      "d": 431.4344531250026,
      "v": 127
    },
    {
      "midi": 71,
      "hit": false,
      "t": 37390.20857812504,
      "d": 228.54365625000355,
      "v": 113
    },
    {
      "midi": 53,
      "hit": false,
      "t": 37614.088078125045,
      "d": 813.895265625004,
      "v": 121
    },
    {
      "midi": 65,
      "hit": false,
      "t": 37616.420156250046,
      "d": 2520.976453125004,
      "v": 127
    },
    {
      "midi": 69,
      "hit": false,
      "t": 37616.420156250046,
      "d": 2553.6255468750023,
      "v": 117
    },
    {
      "midi": 60,
      "hit": false,
      "t": 37837.96757812505,
      "d": 2213.142140625001,
      "v": 102
    },
    {
      "midi": 53,
      "hit": false,
      "t": 40076.762578125046,
      "d": 972.4765781250098,
      "v": 101
    },
    {
      "midi": 41,
      "hit": false,
      "t": 40300.64207812505,
      "d": 881.5255312500085,
      "v": 112
    },
    {
      "midi": 67,
      "hit": false,
      "t": 40524.52157812505,
      "d": 226.21157812500314,
      "v": 127
    },
    {
      "midi": 72,
      "hit": false,
      "t": 40524.52157812505,
      "d": 590.0157656250012,
      "v": 126
    },
    {
      "midi": 69,
      "hit": false,
      "t": 40748.401078125054,
      "d": 380.12873437500093,
      "v": 123
    },
    {
      "midi": 65,
      "hit": false,
      "t": 40972.28057812506,
      "d": 118.93598437499895,
      "v": 103
    },
    {
      "midi": 52,
      "hit": false,
      "t": 41196.16007812506,
      "d": 1231.3372499999969,
      "v": 127
    },
    {
      "midi": 68,
      "hit": false,
      "t": 41198.49215625006,
      "d": 1166.0390625,
      "v": 127
    },
    {
      "midi": 71,
      "hit": false,
      "t": 41198.49215625006,
      "d": 1247.6617968749997,
      "v": 116
    },
    {
      "midi": 64,
      "hit": false,
      "t": 41198.49215625006,
      "d": 2534.9689218750063,
      "v": 127
    },
    {
      "midi": 52,
      "hit": false,
      "t": 42539.43707812506,
      "d": 223.87950000000274,
      "v": 109
    },
    {
      "midi": 71,
      "hit": false,
      "t": 42539.43707812506,
      "d": 244.86820312499913,
      "v": 116
    },
    {
      "midi": 72,
      "hit": false,
      "t": 42763.316578125065,
      "d": 123.60014062499977,
      "v": 115
    },
    {
      "midi": 54,
      "hit": false,
      "t": 42763.316578125065,
      "d": 223.87950000000274,
      "v": 116
    },
    {
      "midi": 56,
      "hit": false,
      "t": 42987.19607812507,
      "d": 970.1444999999949,
      "v": 127
    },
    {
      "midi": 76,
      "hit": false,
      "t": 42989.52815625007,
      "d": 1198.6881562499912,
      "v": 127
    },
    {
      "midi": 71,
      "hit": false,
      "t": 42989.52815625007,
      "d": 1254.6580312499937,
      "v": 127
    },
    {
      "midi": 64,
      "hit": false,
      "t": 43882.714078125064,
      "d": 708.9517500000002,
      "v": 120
    },
    {
      "midi": 56,
      "hit": false,
      "t": 44106.59357812506,
      "d": 627.3290156250005,
      "v": 127
    },
    {
      "midi": 71,
      "hit": false,
      "t": 44330.47307812506,
      "d": 251.86443750000035,
      "v": 127
    },
    {
      "midi": 76,
      "hit": false,
      "t": 44330.47307812506,
      "d": 328.82301562499924,
      "v": 127
    },
    {
      "midi": 69,
      "hit": false,
      "t": 44782.89623437506,
      "d": 137.5926093750022,
      "v": 127
    },
    {
      "midi": 72,
      "hit": false,
      "t": 44782.89623437506,
      "d": 137.5926093750022,
      "v": 127
    },
    {
      "midi": 64,
      "hit": false,
      "t": 44782.89623437506,
      "d": 139.92468750000262,
      "v": 127
    },
    {
      "midi": 57,
      "hit": false,
      "t": 44785.22831250006,
      "d": 137.5926093750022,
      "v": 127
    },
    {
      "midi": 72,
      "hit": false,
      "t": 45006.77573437506,
      "d": 79.2906562499993,
      "v": 127
    },
    {
      "midi": 64,
      "hit": false,
      "t": 45006.77573437506,
      "d": 81.62273437499971,
      "v": 125
    },
    {
      "midi": 69,
      "hit": false,
      "t": 45006.77573437506,
      "d": 81.62273437499971,
      "v": 127
    },
    {
      "midi": 57,
      "hit": false,
      "t": 45006.77573437506,
      "d": 114.27182812499814,
      "v": 127
    },
    {
      "midi": 64,
      "hit": false,
      "t": 45230.65523437506,
      "d": 97.94728125000256,
      "v": 127
    },
    {
      "midi": 69,
      "hit": false,
      "t": 45230.65523437506,
      "d": 97.94728125000256,
      "v": 127
    },
    {
      "midi": 57,
      "hit": false,
      "t": 45230.65523437506,
      "d": 100.27935937500297,
      "v": 127
    },
    {
      "midi": 72,
      "hit": false,
      "t": 45230.65523437506,
      "d": 107.27559375000419,
      "v": 127
    },
    {
      "midi": 64,
      "hit": false,
      "t": 45454.53473437506,
      "d": 97.94728125000256,
      "v": 120
    },
    {
      "midi": 69,
      "hit": false,
      "t": 45454.53473437506,
      "d": 97.94728125000256,
      "v": 127
    },
    {
      "midi": 72,
      "hit": false,
      "t": 45454.53473437506,
      "d": 97.94728125000256,
      "v": 127
    },
    {
      "midi": 57,
      "hit": false,
      "t": 45454.53473437506,
      "d": 100.27935937500297,
      "v": 127
    },
    {
      "midi": 69,
      "hit": false,
      "t": 45678.414234375065,
      "d": 1424.8997343750016,
      "v": 127
    },
    {
      "midi": 64,
      "hit": false,
      "t": 45678.414234375065,
      "d": 1462.2129843750008,
      "v": 127
    },
    {
      "midi": 57,
      "hit": false,
      "t": 45678.414234375065,
      "d": 2451.014109374999,
      "v": 127
    },
    {
      "midi": 72,
      "hit": false,
      "t": 45680.746312500065,
      "d": 1394.5827187500036,
      "v": 127
    },
    {
      "midi": 60,
      "hit": false,
      "t": 47688.66557812507,
      "d": 485.07224999999744,
      "v": 127
    },
    {
      "midi": 64,
      "hit": false,
      "t": 47688.66557812507,
      "d": 485.07224999999744,
      "v": 127
    },
    {
      "midi": 69,
      "hit": false,
      "t": 47690.99765625007,
      "d": 513.057187499995,
      "v": 127
    },
    {
      "midi": 55,
      "hit": false,
      "t": 48364.96823437506,
      "d": 163.24546874999942,
      "v": 127
    },
    {
      "midi": 67,
      "hit": false,
      "t": 48364.96823437506,
      "d": 163.24546874999942,
      "v": 127
    },
    {
      "midi": 62,
      "hit": false,
      "t": 48367.30031250006,
      "d": 160.913390624999,
      "v": 127
    },
    {
      "midi": 59,
      "hit": false,
      "t": 48367.30031250006,
      "d": 163.24546874999942,
      "v": 101
    },
    {
      "midi": 59,
      "hit": false,
      "t": 48588.847734375064,
      "d": 69.96234374999767,
      "v": 92
    },
    {
      "midi": 55,
      "hit": false,
      "t": 48588.847734375064,
      "d": 111.93974999999773,
      "v": 126
    },
    {
      "midi": 62,
      "hit": false,
      "t": 48588.847734375064,
      "d": 116.60390624999854,
      "v": 125
    },
    {
      "midi": 67,
      "hit": false,
      "t": 48588.847734375064,
      "d": 137.59260937499494,
      "v": 119
    },
    {
      "midi": 62,
      "hit": false,
      "t": 48812.72723437506,
      "d": 109.60767187499732,
      "v": 123
    },
    {
      "midi": 55,
      "hit": false,
      "t": 48812.72723437506,
      "d": 116.60390624999854,
      "v": 127
    },
    {
      "midi": 67,
      "hit": false,
      "t": 48812.72723437506,
      "d": 116.60390624999854,
      "v": 126
    },
    {
      "midi": 59,
      "hit": false,
      "t": 48815.05931250006,
      "d": 62.96610937499645,
      "v": 88
    },
    {
      "midi": 62,
      "hit": false,
      "t": 49036.606734375055,
      "d": 88.61896875000093,
      "v": 118
    },
    {
      "midi": 67,
      "hit": false,
      "t": 49036.606734375055,
      "d": 116.60390624999854,
      "v": 120
    },
    {
      "midi": 55,
      "hit": false,
      "t": 49036.606734375055,
      "d": 118.93598437499895,
      "v": 127
    },
    {
      "midi": 59,
      "hit": false,
      "t": 49038.938812500055,
      "d": 41.97740625000006,
      "v": 86
    },
    {
      "midi": 55,
      "hit": false,
      "t": 49260.48623437505,
      "d": 825.5556562499987,
      "v": 127
    },
    {
      "midi": 62,
      "hit": false,
      "t": 49260.48623437505,
      "d": 1851.670031249996,
      "v": 127
    },
    {
      "midi": 67,
      "hit": false,
      "t": 49260.48623437505,
      "d": 1854.0021093749965,
      "v": 127
    },
    {
      "midi": 59,
      "hit": false,
      "t": 49262.81831250005,
      "d": 1807.3605468749956,
      "v": 89
    },
    {
      "midi": 59,
      "hit": false,
      "t": 51270.737578125045,
      "d": 496.7326406249995,
      "v": 92
    },
    {
      "midi": 62,
      "hit": false,
      "t": 51270.737578125045,
      "d": 524.7175781249971,
      "v": 127
    },
    {
      "midi": 67,
      "hit": false,
      "t": 51270.737578125045,
      "d": 559.6987499999959,
      "v": 127
    },
    {
      "midi": 53,
      "hit": false,
      "t": 51947.04023437504,
      "d": 97.94728125000256,
      "v": 127
    },
    {
      "midi": 60,
      "hit": false,
      "t": 51949.37231250004,
      "d": 114.27182812500541,
      "v": 127
    },
    {
      "midi": 57,
      "hit": false,
      "t": 51949.37231250004,
      "d": 132.92845312500867,
      "v": 126
    },
    {
      "midi": 65,
      "hit": false,
      "t": 51949.37231250004,
      "d": 132.92845312500867,
      "v": 126
    },
    {
      "midi": 57,
      "hit": false,
      "t": 52170.91973437505,
      "d": 95.61520312500215,
      "v": 115
    },
    {
      "midi": 60,
      "hit": false,
      "t": 52170.91973437505,
      "d": 97.94728125000256,
      "v": 117
    },
    {
      "midi": 65,
      "hit": false,
      "t": 52170.91973437505,
      "d": 97.94728125000256,
      "v": 120
    },
    {
      "midi": 53,
      "hit": false,
      "t": 52170.91973437505,
      "d": 102.61143750000338,
      "v": 126
    },
    {
      "midi": 65,
      "hit": false,
      "t": 52394.79923437505,
      "d": 90.95104687500134,
      "v": 127
    },
    {
      "midi": 57,
      "hit": false,
      "t": 52394.79923437505,
      "d": 95.61520312500215,
      "v": 123
    },
    {
      "midi": 60,
      "hit": false,
      "t": 52394.79923437505,
      "d": 95.61520312500215,
      "v": 127
    },
    {
      "midi": 53,
      "hit": false,
      "t": 52394.79923437505,
      "d": 100.27935937500297,
      "v": 127
    },
    {
      "midi": 57,
      "hit": false,
      "t": 52618.678734375055,
      "d": 93.28312500000175,
      "v": 125
    },
    {
      "midi": 60,
      "hit": false,
      "t": 52618.678734375055,
      "d": 93.28312500000175,
      "v": 127
    },
    {
      "midi": 65,
      "hit": false,
      "t": 52618.678734375055,
      "d": 97.94728125000256,
      "v": 127
    },
    {
      "midi": 53,
      "hit": false,
      "t": 52621.010812500055,
      "d": 48.97364062500128,
      "v": 127
    },
    {
      "midi": 65,
      "hit": false,
      "t": 52842.55823437506,
      "d": 1816.6888593749973,
      "v": 127
    },
    {
      "midi": 60,
      "hit": false,
      "t": 52842.55823437506,
      "d": 1835.3454843750005,
      "v": 127
    },
    {
      "midi": 57,
      "hit": false,
      "t": 52842.55823437506,
      "d": 1851.6700312500034,
      "v": 127
    },
    {
      "midi": 53,
      "hit": false,
      "t": 52842.55823437506,
      "d": 2506.9839843750087,
      "v": 127
    },
    {
      "midi": 60,
      "hit": false,
      "t": 54852.80957812506,
      "d": 494.40056250000634,
      "v": 127
    },
    {
      "midi": 65,
      "hit": false,
      "t": 54852.80957812506,
      "d": 541.0421250000072,
      "v": 121
    },
    {
      "midi": 57,
      "hit": false,
      "t": 54855.14165625006,
      "d": 475.7439375000031,
      "v": 127
    },
    {
      "midi": 56,
      "hit": false,
      "t": 55529.11223437507,
      "d": 1040.1068437499998,
      "v": 127
    },
    {
      "midi": 52,
      "hit": false,
      "t": 55529.11223437507,
      "d": 1415.571421875,
      "v": 127
    },
    {
      "midi": 59,
      "hit": false,
      "t": 55531.44431250007,
      "d": 1431.8959687500028,
      "v": 104
    },
    {
      "midi": 64,
      "hit": false,
      "t": 55531.44431250007,
      "d": 1569.488578125005,
      "v": 116
    },
    {
      "midi": 52,
      "hit": false,
      "t": 57093.93665625007,
      "d": 1793.3680781250077,
      "v": 104
    },
    {
      "midi": 59,
      "hit": false,
      "t": 57320.148234375076,
      "d": 930.4991718750025,
      "v": 98
    },
    {
      "midi": 66,
      "hit": false,
      "t": 57765.57515625007,
      "d": 277.51729687500483,
      "v": 127
    },
    {
      "midi": 71,
      "hit": false,
      "t": 57767.907234375074,
      "d": 1082.0842500000072,
      "v": 127
    },
    {
      "midi": 68,
      "hit": false,
      "t": 57989.45465625008,
      "d": 867.533062500006,
      "v": 127
    },
    {
      "midi": 64,
      "hit": false,
      "t": 58213.33415625008,
      "d": 529.3817343750052,
      "v": 127
    },
    {
      "midi": 59,
      "hit": false,
      "t": 58437.21365625008,
      "d": 475.7439374999958,
      "v": 115
    },
    {
      "midi": 64,
      "hit": false,
      "t": 58884.97265625008,
      "d": 130.596375000001,
      "v": 120
    },
    {
      "midi": 72,
      "hit": false,
      "t": 59111.18423437508,
      "d": 788.2424062499995,
      "v": 127
    },
    {
      "midi": 69,
      "hit": false,
      "t": 59111.18423437508,
      "d": 806.8990312500027,
      "v": 127
    },
    {
      "midi": 64,
      "hit": false,
      "t": 59111.18423437508,
      "d": 818.5594218750048,
      "v": 127
    },
    {
      "midi": 57,
      "hit": false,
      "t": 59111.18423437508,
      "d": 1422.5676562500012,
      "v": 127
    },
    {
      "midi": 72,
      "hit": false,
      "t": 60004.37015625009,
      "d": 776.5820156249974,
      "v": 120
    },
    {
      "midi": 64,
      "hit": false,
      "t": 60006.70223437509,
      "d": 636.6573281249948,
      "v": 117
    },
    {
      "midi": 69,
      "hit": false,
      "t": 60006.70223437509,
      "d": 727.6083749999962,
      "v": 120
    },
    {
      "midi": 57,
      "hit": false,
      "t": 60676.00865625008,
      "d": 1788.7039218749997,
      "v": 116
    },
    {
      "midi": 64,
      "hit": false,
      "t": 60899.88815625008,
      "d": 1009.7898281250091,
      "v": 127
    },
    {
      "midi": 71,
      "hit": false,
      "t": 61121.435578125085,
      "d": 244.8682031250064,
      "v": 127
    },
    {
      "midi": 76,
      "hit": false,
      "t": 61121.435578125085,
      "d": 1310.6279062499962,
      "v": 127
    },
    {
      "midi": 72,
      "hit": false,
      "t": 61347.64715625009,
      "d": 1105.4050312499894,
      "v": 127
    },
    {
      "midi": 69,
      "hit": false,
      "t": 61571.52665625009,
      "d": 557.3666718749955,
      "v": 120
    },
    {
      "midi": 64,
      "hit": false,
      "t": 62019.28565625009,
      "d": 447.7589999999909,
      "v": 119
    },
    {
      "midi": 69,
      "hit": false,
      "t": 62243.165156250085,
      "d": 319.4947031249976,
      "v": 127
    },
    {
      "midi": 72,
      "hit": false,
      "t": 62467.04465625008,
      "d": 184.23417187500309,
      "v": 112
    },
    {
      "midi": 67,
      "hit": false,
      "t": 62693.25623437508,
      "d": 743.932921874999,
      "v": 127
    },
    {
      "midi": 71,
      "hit": false,
      "t": 62693.25623437508,
      "d": 1375.926093749993,
      "v": 126
    },
    {
      "midi": 74,
      "hit": false,
      "t": 62693.25623437508,
      "d": 1422.567656249994,
      "v": 123
    },
    {
      "midi": 55,
      "hit": false,
      "t": 62693.25623437508,
      "d": 3365.188734374962,
      "v": 119
    },
    {
      "midi": 62,
      "hit": false,
      "t": 63138.68315625008,
      "d": 2597.9350312499664,
      "v": 105
    },
    {
      "midi": 67,
      "hit": false,
      "t": 63586.44215625008,
      "d": 1557.8281874999884,
      "v": 123
    },
    {
      "midi": 81,
      "hit": false,
      "t": 64703.50757812508,
      "d": 114.27182812499814,
      "v": 127
    },
    {
      "midi": 86,
      "hit": false,
      "t": 64703.50757812508,
      "d": 506.06095312498655,
      "v": 126
    },
    {
      "midi": 83,
      "hit": false,
      "t": 64815.447328125076,
      "d": 139.92468749999534,
      "v": 109
    },
    {
      "midi": 81,
      "hit": false,
      "t": 64929.719156250074,
      "d": 258.8606718749943,
      "v": 127
    },
    {
      "midi": 79,
      "hit": false,
      "t": 65151.26657812507,
      "d": 76.9585781249989,
      "v": 125
    },
    {
      "midi": 67,
      "hit": false,
      "t": 65377.478156250065,
      "d": 352.14379687498877,
      "v": 127
    },
    {
      "midi": 74,
      "hit": false,
      "t": 65599.02557812506,
      "d": 694.9592812499759,
      "v": 126
    },
    {
      "midi": 69,
      "hit": false,
      "t": 65601.35765625005,
      "d": 74.62649999999849,
      "v": 127
    },
    {
      "midi": 71,
      "hit": false,
      "t": 65710.96532812505,
      "d": 132.9284531250014,
      "v": 123
    },
    {
      "midi": 69,
      "hit": false,
      "t": 65825.23715625005,
      "d": 118.93598437499895,
      "v": 127
    },
    {
      "midi": 67,
      "hit": false,
      "t": 65934.84482812505,
      "d": 298.50599999999395,
      "v": 127
    },
    {
      "midi": 62,
      "hit": false,
      "t": 66049.11665625004,
      "d": 193.56248437499744,
      "v": 118
    },
    {
      "midi": 69,
      "hit": false,
      "t": 66272.99615625004,
      "d": 725.276296875003,
      "v": 125
    },
    {
      "midi": 53,
      "hit": false,
      "t": 66275.32823437503,
      "d": 1860.998343750005,
      "v": 127
    },
    {
      "midi": 72,
      "hit": false,
      "t": 66275.32823437503,
      "d": 2040.568359375,
      "v": 121
    },
    {
      "midi": 65,
      "hit": false,
      "t": 66494.54357812504,
      "d": 328.82301562499197,
      "v": 127
    },
    {
      "midi": 60,
      "hit": false,
      "t": 66718.42307812504,
      "d": 1473.8733749999956,
      "v": 127
    },
    {
      "midi": 65,
      "hit": false,
      "t": 66944.63465625004,
      "d": 1427.2318124999874,
      "v": 127
    },
    {
      "midi": 69,
      "hit": false,
      "t": 67168.51415625004,
      "d": 1142.718281249996,
      "v": 127
    },
    {
      "midi": 53,
      "hit": false,
      "t": 68285.57957812503,
      "d": 1093.7446406249946,
      "v": 127
    },
    {
      "midi": 67,
      "hit": false,
      "t": 68509.45907812503,
      "d": 167.90962500000023,
      "v": 127
    },
    {
      "midi": 72,
      "hit": false,
      "t": 68511.79115625002,
      "d": 165.5775468750071,
      "v": 127
    },
    {
      "midi": 69,
      "hit": false,
      "t": 68733.33857812503,
      "d": 366.1362656249985,
      "v": 127
    },
    {
      "midi": 72,
      "hit": false,
      "t": 68735.67065625002,
      "d": 345.1475625000021,
      "v": 127
    },
    {
      "midi": 69,
      "hit": false,
      "t": 69183.42965625002,
      "d": 207.55495312499988,
      "v": 127
    },
    {
      "midi": 72,
      "hit": false,
      "t": 69183.42965625002,
      "d": 401.1174374999973,
      "v": 127
    },
    {
      "midi": 67,
      "hit": false,
      "t": 69407.30915625002,
      "d": 195.89456250000512,
      "v": 127
    },
    {
      "midi": 65,
      "hit": false,
      "t": 69631.18865625003,
      "d": 79.2906562499993,
      "v": 119
    },
    {
      "midi": 75,
      "hit": false,
      "t": 69740.79632812503,
      "d": 39.64532812499965,
      "v": 99
    },
    {
      "midi": 52,
      "hit": false,
      "t": 69855.06815625002,
      "d": 3076.0110468749917,
      "v": 121
    },
    {
      "midi": 71,
      "hit": false,
      "t": 69857.40023437502,
      "d": 1592.8093593749945,
      "v": 126
    },
    {
      "midi": 76,
      "hit": false,
      "t": 69857.40023437502,
      "d": 1798.0322343750013,
      "v": 127
    },
    {
      "midi": 68,
      "hit": false,
      "t": 70750.58615625002,
      "d": 412.7778281249921,
      "v": 111
    },
    {
      "midi": 64,
      "hit": false,
      "t": 70752.91823437501,
      "d": 499.0647187499999,
      "v": 117
    },
    {
      "midi": 68,
      "hit": false,
      "t": 71198.34515625001,
      "d": 284.51353125000605,
      "v": 108
    },
    {
      "midi": 64,
      "hit": false,
      "t": 71422.22465625001,
      "d": 284.51353125000605,
      "v": 127
    },
    {
      "midi": 68,
      "hit": false,
      "t": 71648.43623437503,
      "d": 797.5707187499938,
      "v": 127
    },
    {
      "midi": 64,
      "hit": false,
      "t": 71867.65157812502,
      "d": 932.8312500000029,
      "v": 127
    },
    {
      "midi": 76,
      "hit": false,
      "t": 72093.86315625002,
      "d": 1037.7747656249849,
      "v": 127
    },
    {
      "midi": 68,
      "hit": false,
      "t": 72765.50165625002,
      "d": 279.8493749999907,
      "v": 127
    },
    {
      "midi": 64,
      "hit": false,
      "t": 72991.71323437501,
      "d": 454.7552343749703,
      "v": 127
    },
    {
      "midi": 69,
      "hit": false,
      "t": 73210.92857812501,
      "d": 179.570015624995,
      "v": 121
    },
    {
      "midi": 57,
      "hit": false,
      "t": 73437.14015625,
      "d": 2285.4365624999627,
      "v": 116
    },
    {
      "midi": 76,
      "hit": false,
      "t": 73439.47223437499,
      "d": 690.2951249999896,
      "v": 127
    },
    {
      "midi": 72,
      "hit": false,
      "t": 73439.47223437499,
      "d": 834.8839687499858,
      "v": 127
    },
    {
      "midi": 69,
      "hit": false,
      "t": 73658.68757812498,
      "d": 345.1475625000021,
      "v": 118
    },
    {
      "midi": 64,
      "hit": false,
      "t": 73882.56707812498,
      "d": 1837.6775624999864,
      "v": 120
    },
    {
      "midi": 69,
      "hit": false,
      "t": 74108.77865624998,
      "d": 167.90962499998568,
      "v": 110
    },
    {
      "midi": 76,
      "hit": false,
      "t": 74332.65815624996,
      "d": 1900.64367187499,
      "v": 123
    },
    {
      "midi": 71,
      "hit": false,
      "t": 74334.99023437496,
      "d": 256.52859375000116,
      "v": 127
    },
    {
      "midi": 72,
      "hit": false,
      "t": 74554.20557812495,
      "d": 1679.0962500000023,
      "v": 127
    },
    {
      "midi": 69,
      "hit": false,
      "t": 74778.08507812496,
      "d": 1389.9185624999955,
      "v": 127
    },
    {
      "midi": 57,
      "hit": false,
      "t": 75897.48257812495,
      "d": 708.9517499999783,
      "v": 119
    },
    {
      "midi": 64,
      "hit": false,
      "t": 76123.69415624996,
      "d": 452.4231562499772,
      "v": 119
    },
    {
      "midi": 69,
      "hit": false,
      "t": 76345.24157812496,
      "d": 158.58131249998405,
      "v": 127
    },
    {
      "midi": 72,
      "hit": false,
      "t": 76347.57365624995,
      "d": 20.98870312499639,
      "v": 96
    },
    {
      "midi": 71,
      "hit": false,
      "t": 76569.12107812494,
      "d": 130.5963749999937,
      "v": 127
    },
    {
      "midi": 76,
      "hit": false,
      "t": 76571.45315624993,
      "d": 380.12873437500093,
      "v": 127
    },
    {
      "midi": 72,
      "hit": false,
      "t": 76681.06082812493,
      "d": 142.25676562500303,
      "v": 127
    },
    {
      "midi": 71,
      "hit": false,
      "t": 76795.33265624993,
      "d": 172.57378125000105,
      "v": 127
    },
    {
      "midi": 55,
      "hit": false,
      "t": 77021.54423437493,
      "d": 1996.2588749999995,
      "v": 121
    },
    {
      "midi": 74,
      "hit": false,
      "t": 77021.54423437493,
      "d": 2544.2972343750007,
      "v": 127
    },
    {
      "midi": 71,
      "hit": false,
      "t": 77240.75957812493,
      "d": 2294.764875000008,
      "v": 127
    },
    {
      "midi": 67,
      "hit": false,
      "t": 77466.97115624993,
      "d": 2145.5118749999965,
      "v": 127
    },
    {
      "midi": 62,
      "hit": false,
      "t": 77690.85065624992,
      "d": 1700.0849531250133,
      "v": 127
    },
    {
      "midi": 71,
      "hit": false,
      "t": 79705.76615624993,
      "d": 149.25299999999697,
      "v": 127
    },
    {
      "midi": 69,
      "hit": false,
      "t": 79815.37382812492,
      "d": 137.5926093750022,
      "v": 127
    },
    {
      "midi": 67,
      "hit": false,
      "t": 79927.31357812493,
      "d": 331.15509374999965,
      "v": 127
    },
    {
      "midi": 62,
      "hit": false,
      "t": 80151.19307812492,
      "d": 384.79289062500175,
      "v": 127
    },
    {
      "midi": 67,
      "hit": false,
      "t": 80377.40465624993,
      "d": 184.2341718749958,
      "v": 127
    },
    {
      "midi": 69,
      "hit": false,
      "t": 80601.28415624992,
      "d": 1977.6022499999963,
      "v": 127
    },
    {
      "midi": 65,
      "hit": false,
      "t": 80822.83157812493,
      "d": 1849.3379531249957,
      "v": 127
    },
    {
      "midi": 60,
      "hit": false,
      "t": 81049.04315624993,
      "d": 1345.609078124995,
      "v": 127
    },
    {
      "midi": 72,
      "hit": false,
      "t": 81272.92265624992,
      "d": 1294.3033593750006,
      "v": 126
    },
    {
      "midi": 53,
      "hit": false,
      "t": 82613.86757812492,
      "d": 1149.7145156250044,
      "v": 114
    },
    {
      "midi": 67,
      "hit": false,
      "t": 82840.07915624992,
      "d": 177.23793750000186,
      "v": 127
    },
    {
      "midi": 72,
      "hit": false,
      "t": 82840.07915624992,
      "d": 1054.099312499995,
      "v": 127
    },
    {
      "midi": 69,
      "hit": false,
      "t": 83061.62657812492,
      "d": 727.6083749999962,
      "v": 127
    },
    {
      "midi": 60,
      "hit": false,
      "t": 83290.17023437492,
      "d": 424.4382187500014,
      "v": 127
    },
    {
      "midi": 65,
      "hit": false,
      "t": 83511.71765624992,
      "d": 342.8154843749944,
      "v": 127
    },
    {
      "midi": 64,
      "hit": false,
      "t": 83959.47665624991,
      "d": 118.93598437499895,
      "v": 116
    },
    {
      "midi": 71,
      "hit": false,
      "t": 84183.35615624991,
      "d": 1744.3944374999846,
      "v": 121
    },
    {
      "midi": 68,
      "hit": false,
      "t": 84185.6882343749,
      "d": 967.8124218750017,
      "v": 127
    },
    {
      "midi": 64,
      "hit": false,
      "t": 84185.6882343749,
      "d": 1294.3033593750006,
      "v": 127
    },
    {
      "midi": 52,
      "hit": false,
      "t": 84185.6882343749,
      "d": 3302.222624999966,
      "v": 121
    },
    {
      "midi": 64,
      "hit": false,
      "t": 85526.6331562499,
      "d": 104.94351562499651,
      "v": 78
    },
    {
      "midi": 64,
      "hit": false,
      "t": 85750.51265624989,
      "d": 289.1776874999923,
      "v": 116
    },
    {
      "midi": 59,
      "hit": false,
      "t": 85974.39215624989,
      "d": 503.72887499998615,
      "v": 99
    },
    {
      "midi": 71,
      "hit": false,
      "t": 86198.27165624988,
      "d": 282.1814531249838,
      "v": 125
    },
    {
      "midi": 76,
      "hit": false,
      "t": 86198.27165624988,
      "d": 314.8305468749895,
      "v": 105
    },
    {
      "midi": 77,
      "hit": false,
      "t": 86200.60373437488,
      "d": 41.97740624999278,
      "v": 115
    },
    {
      "midi": 73,
      "hit": false,
      "t": 86646.03065624987,
      "d": 4.664156250000815,
      "v": 114
    },
    {
      "midi": 71,
      "hit": false,
      "t": 86646.03065624987,
      "d": 137.5926093750022,
      "v": 127
    },
    {
      "midi": 76,
      "hit": false,
      "t": 86646.03065624987,
      "d": 153.9171562499978,
      "v": 127
    },
    {
      "midi": 76,
      "hit": false,
      "t": 86869.91015624987,
      "d": 251.86443750000035,
      "v": 127
    },
    {
      "midi": 71,
      "hit": false,
      "t": 86869.91015624987,
      "d": 265.8569062500028,
      "v": 127
    },
    {
      "midi": 59,
      "hit": false,
      "t": 87093.78965624986,
      "d": 268.1889843750105,
      "v": 103
    },
    {
      "midi": 76,
      "hit": false,
      "t": 87317.66915624987,
      "d": 363.8041874999908,
      "v": 127
    },
    {
      "midi": 71,
      "hit": false,
      "t": 87317.66915624987,
      "d": 382.46081249999406,
      "v": 127
    },
    {
      "midi": 59,
      "hit": false,
      "t": 87541.54865624987,
      "d": 79.2906562499993,
      "v": 96
    },
    {
      "midi": 69,
      "hit": false,
      "t": 87767.76023437487,
      "d": 303.17015624999476,
      "v": 127
    },
    {
      "midi": 76,
      "hit": false,
      "t": 87767.76023437487,
      "d": 305.5022343749879,
      "v": 127
    },
    {
      "midi": 72,
      "hit": false,
      "t": 87767.76023437487,
      "d": 354.4758749999892,
      "v": 127
    },
    {
      "midi": 57,
      "hit": false,
      "t": 87767.76023437487,
      "d": 1548.4998749999795,
      "v": 125
    },
    {
      "midi": 76,
      "hit": false,
      "t": 88213.18715624986,
      "d": 221.54742187500233,
      "v": 117
    },
    {
      "midi": 72,
      "hit": false,
      "t": 88213.18715624986,
      "d": 249.53235937500722,
      "v": 125
    },
    {
      "midi": 69,
      "hit": false,
      "t": 88215.51923437485,
      "d": 200.55871875000594,
      "v": 125
    },
    {
      "midi": 64,
      "hit": false,
      "t": 88660.94615624986,
      "d": 515.3892656249955,
      "v": 127
    },
    {
      "midi": 69,
      "hit": false,
      "t": 88663.27823437485,
      "d": 293.84184374999313,
      "v": 127
    },
    {
      "midi": 76,
      "hit": false,
      "t": 88663.27823437485,
      "d": 1427.231812500002,
      "v": 127
    },
    {
      "midi": 72,
      "hit": false,
      "t": 88663.27823437485,
      "d": 1459.8809062500077,
      "v": 127
    },
    {
      "midi": 69,
      "hit": false,
      "t": 89108.70515624985,
      "d": 923.5029375000013,
      "v": 108
    },
    {
      "midi": 64,
      "hit": false,
      "t": 89332.58465624985,
      "d": 482.7401718750043,
      "v": 116
    },
    {
      "midi": 57,
      "hit": false,
      "t": 89780.34365624985,
      "d": 1340.9449218750087,
      "v": 123
    },
    {
      "midi": 64,
      "hit": false,
      "t": 90004.22315624985,
      "d": 883.8576093750162,
      "v": 127
    },
    {
      "midi": 69,
      "hit": false,
      "t": 90225.77057812487,
      "d": 156.24923437500547,
      "v": 127
    },
    {
      "midi": 71,
      "hit": false,
      "t": 90451.98215624987,
      "d": 230.8757343749894,
      "v": 127
    },
    {
      "midi": 76,
      "hit": false,
      "t": 90454.31423437486,
      "d": 743.9329218749917,
      "v": 127
    },
    {
      "midi": 72,
      "hit": false,
      "t": 90675.86165624986,
      "d": 569.0270624999976,
      "v": 127
    },
    {
      "midi": 69,
      "hit": false,
      "t": 90899.74115624986,
      "d": 277.51729687499756,
      "v": 120
    },
    {
      "midi": 64,
      "hit": false,
      "t": 91125.95273437486,
      "d": 100.27935937499569,
      "v": 121
    },
    {
      "midi": 67,
      "hit": false,
      "t": 91349.83223437486,
      "d": 487.40432812499057,
      "v": 127
    },
    {
      "midi": 74,
      "hit": false,
      "t": 91349.83223437486,
      "d": 1459.8809062499931,
      "v": 127
    },
    {
      "midi": 71,
      "hit": false,
      "t": 91349.83223437486,
      "d": 1585.813124999986,
      "v": 127
    },
    {
      "midi": 55,
      "hit": false,
      "t": 91352.16431249985,
      "d": 4358.654015624998,
      "v": 127
    },
    {
      "midi": 62,
      "hit": false,
      "t": 91795.25915624986,
      "d": 918.8387812500005,
      "v": 113
    },
    {
      "midi": 67,
      "hit": false,
      "t": 92245.35023437486,
      "d": 666.9743437500001,
      "v": 127
    },
    {
      "midi": 62,
      "hit": false,
      "t": 92914.65665624985,
      "d": 846.5443593749806,
      "v": 120
    },
    {
      "midi": 72,
      "hit": false,
      "t": 93138.53615624984,
      "d": 270.52106249998906,
      "v": 127
    },
    {
      "midi": 71,
      "hit": false,
      "t": 93362.41565624984,
      "d": 1061.0955468750035,
      "v": 127
    },
    {
      "midi": 67,
      "hit": false,
      "t": 93588.62723437483,
      "d": 611.0044687500049,
      "v": 127
    },
    {
      "midi": 62,
      "hit": false,
      "t": 93810.17465624983,
      "d": 1322.28829687502,
      "v": 126
    },
    {
      "midi": 67,
      "hit": false,
      "t": 94257.93365624984,
      "d": 520.0534218750108,
      "v": 127
    },
    {
      "midi": 69,
      "hit": false,
      "t": 94705.69265624984,
      "d": 195.89456250000512,
      "v": 127
    },
    {
      "midi": 65,
      "hit": false,
      "t": 95151.11957812485,
      "d": 1567.1564999999973,
      "v": 127
    },
    {
      "midi": 69,
      "hit": false,
      "t": 95374.99907812485,
      "d": 1625.4584531250002,
      "v": 127
    },
    {
      "midi": 65,
      "hit": false,
      "t": 96944.48765624985,
      "d": 466.41562500000873,
      "v": 127
    },
    {
      "midi": 72,
      "hit": false,
      "t": 97168.36715624985,
      "d": 165.5775468750071,
      "v": 127
    },
    {
      "midi": 67,
      "hit": false,
      "t": 97168.36715624985,
      "d": 184.23417187501036,
      "v": 127
    },
    {
      "midi": 72,
      "hit": false,
      "t": 97392.24665624986,
      "d": 333.48717187500733,
      "v": 127
    },
    {
      "midi": 69,
      "hit": false,
      "t": 97392.24665624986,
      "d": 366.13626562501304,
      "v": 127
    },
    {
      "midi": 72,
      "hit": false,
      "t": 97840.00565624988,
      "d": 177.23793750000186,
      "v": 127
    },
    {
      "midi": 69,
      "hit": false,
      "t": 97840.00565624988,
      "d": 184.2341718749958,
      "v": 127
    },
    {
      "midi": 72,
      "hit": false,
      "t": 98061.55307812488,
      "d": 347.4796406249952,
      "v": 127
    },
    {
      "midi": 67,
      "hit": false,
      "t": 98063.88515624987,
      "d": 214.55118749999383,
      "v": 127
    },
    {
      "midi": 65,
      "hit": false,
      "t": 98287.76465624987,
      "d": 116.60390625000582,
      "v": 117
    },
    {
      "midi": 68,
      "hit": false,
      "t": 98513.97623437487,
      "d": 998.1294374999998,
      "v": 127
    },
    {
      "midi": 71,
      "hit": false,
      "t": 98513.97623437487,
      "d": 1030.7785312500055,
      "v": 127
    },
    {
      "midi": 64,
      "hit": false,
      "t": 98513.97623437487,
      "d": 2966.40337499998,
      "v": 127
    },
    {
      "midi": 76,
      "hit": false,
      "t": 100078.80065624988,
      "d": 62.96610937498917,
      "v": 102
    },
    {
      "midi": 88,
      "hit": false,
      "t": 100081.13273437487,
      "d": 41.97740624999278,
      "v": 96
    },
    {
      "midi": 76,
      "hit": false,
      "t": 100305.01223437487,
      "d": 88.61896875000093,
      "v": 121
    },
    {
      "midi": 83,
      "hit": false,
      "t": 100305.01223437487,
      "d": 88.61896875000093,
      "v": 101
    },
    {
      "midi": 88,
      "hit": false,
      "t": 100305.01223437487,
      "d": 109.60767187499732,
      "v": 125
    },
    {
      "midi": 76,
      "hit": false,
      "t": 100526.55965624987,
      "d": 118.93598437499895,
      "v": 127
    },
    {
      "midi": 88,
      "hit": false,
      "t": 100526.55965624987,
      "d": 137.5926093750022,
      "v": 127
    },
    {
      "midi": 83,
      "hit": false,
      "t": 100528.89173437486,
      "d": 116.60390625000582,
      "v": 112
    },
    {
      "midi": 76,
      "hit": false,
      "t": 100750.43915624986,
      "d": 121.26806250000664,
      "v": 127
    },
    {
      "midi": 83,
      "hit": false,
      "t": 100750.43915624986,
      "d": 123.60014062499977,
      "v": 112
    },
    {
      "midi": 88,
      "hit": false,
      "t": 100750.43915624986,
      "d": 128.26429687500058,
      "v": 127
    },
    {
      "midi": 76,
      "hit": false,
      "t": 100974.31865624986,
      "d": 123.60014062499977,
      "v": 127
    },
    {
      "midi": 83,
      "hit": false,
      "t": 100974.31865624986,
      "d": 123.60014062499977,
      "v": 114
    },
    {
      "midi": 88,
      "hit": false,
      "t": 100974.31865624986,
      "d": 123.60014062499977,
      "v": 127
    },
    {
      "midi": 76,
      "hit": false,
      "t": 101198.19815624985,
      "d": 121.26806250000664,
      "v": 127
    },
    {
      "midi": 83,
      "hit": false,
      "t": 101198.19815624985,
      "d": 128.26429687500058,
      "v": 118
    },
    {
      "midi": 88,
      "hit": false,
      "t": 101198.19815624985,
      "d": 128.26429687500058,
      "v": 127
    },
    {
      "midi": 83,
      "hit": false,
      "t": 101422.07765624985,
      "d": 109.60767187499732,
      "v": 110
    },
    {
      "midi": 88,
      "hit": false,
      "t": 101422.07765624985,
      "d": 130.5963749999937,
      "v": 126
    },
    {
      "midi": 76,
      "hit": false,
      "t": 101422.07765624985,
      "d": 132.92845312498685,
      "v": 127
    },
    {
      "midi": 83,
      "hit": false,
      "t": 101645.95715624983,
      "d": 102.61143750000338,
      "v": 115
    },
    {
      "midi": 76,
      "hit": false,
      "t": 101645.95715624983,
      "d": 109.60767187499732,
      "v": 127
    },
    {
      "midi": 88,
      "hit": false,
      "t": 101645.95715624983,
      "d": 128.26429687500058,
      "v": 126
    },
    {
      "midi": 88,
      "hit": false,
      "t": 101869.83665624983,
      "d": 177.23793750000186,
      "v": 127
    },
    {
      "midi": 83,
      "hit": false,
      "t": 101869.83665624983,
      "d": 179.570015624995,
      "v": 112
    },
    {
      "midi": 76,
      "hit": false,
      "t": 101869.83665624983,
      "d": 235.53989062499022,
      "v": 127
    },
    {
      "midi": 64,
      "hit": false,
      "t": 102096.04823437482,
      "d": 2313.421499999982,
      "v": 127
    },
    {
      "midi": 57,
      "hit": false,
      "t": 102096.04823437482,
      "d": 3290.562234375,
      "v": 121
    },
    {
      "midi": 81,
      "hit": false,
      "t": 102539.14307812482,
      "d": 578.3553749999992,
      "v": 127
    },
    {
      "midi": 72,
      "hit": false,
      "t": 102541.47515624981,
      "d": 557.3666718750028,
      "v": 127
    },
    {
      "midi": 76,
      "hit": false,
      "t": 102541.47515624981,
      "d": 576.023296875006,
      "v": 127
    },
    {
      "midi": 72,
      "hit": false,
      "t": 103210.78157812482,
      "d": 466.4156249999942,
      "v": 127
    },
    {
      "midi": 76,
      "hit": false,
      "t": 103210.78157812482,
      "d": 489.7364062499837,
      "v": 127
    },
    {
      "midi": 81,
      "hit": false,
      "t": 103213.11365624981,
      "d": 466.4156249999942,
      "v": 127
    },
    {
      "midi": 69,
      "hit": false,
      "t": 103660.87265624982,
      "d": 604.0082343749818,
      "v": 127
    },
    {
      "midi": 76,
      "hit": false,
      "t": 103887.08423437481,
      "d": 741.6008437499986,
      "v": 127
    },
    {
      "midi": 81,
      "hit": false,
      "t": 103887.08423437481,
      "d": 741.6008437499986,
      "v": 127
    },
    {
      "midi": 72,
      "hit": false,
      "t": 103887.08423437481,
      "d": 778.9140937500051,
      "v": 127
    },
    {
      "midi": 64,
      "hit": false,
      "t": 104556.3906562498,
      "d": 785.9103281250136,
      "v": 127
    },
    {
      "midi": 71,
      "hit": false,
      "t": 105004.1496562498,
      "d": 191.2304062500043,
      "v": 127
    },
    {
      "midi": 76,
      "hit": false,
      "t": 105006.4817343748,
      "d": 585.3516093750077,
      "v": 127
    },
    {
      "midi": 72,
      "hit": false,
      "t": 105113.7573281248,
      "d": 130.59637500000827,
      "v": 127
    },
    {
      "midi": 71,
      "hit": false,
      "t": 105228.02915624982,
      "d": 240.20404687499104,
      "v": 127
    },
    {
      "midi": 69,
      "hit": false,
      "t": 105451.90865624981,
      "d": 149.25299999999697,
      "v": 127
    },
    {
      "midi": 71,
      "hit": false,
      "t": 105678.12023437482,
      "d": 611.0044687499903,
      "v": 127
    },
    {
      "midi": 74,
      "hit": false,
      "t": 105678.12023437482,
      "d": 669.3064218749787,
      "v": 127
    },
    {
      "midi": 55,
      "hit": false,
      "t": 105678.12023437482,
      "d": 1518.1828593749815,
      "v": 125
    },
    {
      "midi": 67,
      "hit": false,
      "t": 105899.66765624982,
      "d": 314.8305468749895,
      "v": 127
    },
    {
      "midi": 62,
      "hit": false,
      "t": 106123.54715624981,
      "d": 1312.9599843749893,
      "v": 121
    },
    {
      "midi": 67,
      "hit": false,
      "t": 106345.0945781248,
      "d": 578.3553749999992,
      "v": 127
    },
    {
      "midi": 72,
      "hit": false,
      "t": 107466.8241562498,
      "d": 783.5782500000059,
      "v": 127
    },
    {
      "midi": 71,
      "hit": false,
      "t": 107578.7639062498,
      "d": 699.6234375000058,
      "v": 127
    },
    {
      "midi": 67,
      "hit": false,
      "t": 107688.3715781248,
      "d": 552.702515625002,
      "v": 127
    },
    {
      "midi": 62,
      "hit": false,
      "t": 107914.5831562498,
      "d": 930.4991718750098,
      "v": 127
    },
    {
      "midi": 69,
      "hit": false,
      "t": 108364.6742343748,
      "d": 118.93598437499895,
      "v": 127
    },
    {
      "midi": 74,
      "hit": false,
      "t": 108364.6742343748,
      "d": 2035.9042031249992,
      "v": 127
    },
    {
      "midi": 71,
      "hit": false,
      "t": 108471.94982812481,
      "d": 132.9284531250014,
      "v": 127
    },
    {
      "midi": 69,
      "hit": false,
      "t": 108586.2216562498,
      "d": 258.86067187500885,
      "v": 127
    },
    {
      "midi": 67,
      "hit": false,
      "t": 108810.10115624982,
      "d": 303.17015624999476,
      "v": 127
    },
    {
      "midi": 62,
      "hit": false,
      "t": 109033.98065624981,
      "d": 247.20028124999953,
      "v": 127
    },
    {
      "midi": 69,
      "hit": false,
      "t": 109260.19223437482,
      "d": 1140.3862031249882,
      "v": 127
    },
    {
      "midi": 65,
      "hit": false,
      "t": 109260.19223437482,
      "d": 1266.3184218749811,
      "v": 127
    },
    {
      "midi": 60,
      "hit": false,
      "t": 109260.19223437482,
      "d": 1294.303359374986,
      "v": 127
    },
    {
      "midi": 53,
      "hit": false,
      "t": 109929.49865624981,
      "d": 2077.881609374992,
      "v": 116
    },
    {
      "midi": 67,
      "hit": false,
      "t": 110601.1371562498,
      "d": 244.8682031250064,
      "v": 127
    },
    {
      "midi": 72,
      "hit": false,
      "t": 110601.1371562498,
      "d": 1441.2242812500044,
      "v": 127
    },
    {
      "midi": 69,
      "hit": false,
      "t": 110827.3487343748,
      "d": 1222.0089374999952,
      "v": 127
    },
    {
      "midi": 65,
      "hit": false,
      "t": 111048.8961562498,
      "d": 972.4765781250026,
      "v": 127
    },
    {
      "midi": 60,
      "hit": false,
      "t": 111272.7756562498,
      "d": 753.2612343750079,
      "v": 127
    },
    {
      "midi": 65,
      "hit": false,
      "t": 112168.29365624979,
      "d": 354.4758749999892,
      "v": 127
    },
    {
      "midi": 69,
      "hit": false,
      "t": 112168.29365624979,
      "d": 520.0534218749817,
      "v": 127
    },
    {
      "midi": 60,
      "hit": false,
      "t": 112170.62573437479,
      "d": 349.8117187500029,
      "v": 127
    },
    {
      "midi": 53,
      "hit": false,
      "t": 112170.62573437479,
      "d": 368.4683437499916,
      "v": 127
    },
    {
      "midi": 72,
      "hit": false,
      "t": 112170.62573437479,
      "d": 536.3779687499919,
      "v": 127
    },
    {
      "midi": 65,
      "hit": false,
      "t": 112618.38473437478,
      "d": 102.61143750000338,
      "v": 109
    },
    {
      "midi": 64,
      "hit": false,
      "t": 112842.26423437479,
      "d": 543.3742031250003,
      "v": 127
    },
    {
      "midi": 68,
      "hit": false,
      "t": 112842.26423437479,
      "d": 559.6987499999959,
      "v": 127
    },
    {
      "midi": 71,
      "hit": false,
      "t": 112842.26423437479,
      "d": 578.3553749999992,
      "v": 126
    },
    {
      "midi": 59,
      "hit": false,
      "t": 112844.59631249978,
      "d": 541.0421250000072,
      "v": 106
    },
    {
      "midi": 52,
      "hit": false,
      "t": 112844.59631249978,
      "d": 3003.716624999972,
      "v": 127
    },
    {
      "midi": 71,
      "hit": false,
      "t": 113509.23857812479,
      "d": 67.63026562498999,
      "v": 125
    },
    {
      "midi": 59,
      "hit": false,
      "t": 113509.23857812479,
      "d": 615.6686249999912,
      "v": 91
    },
    {
      "midi": 76,
      "hit": false,
      "t": 113511.57065624978,
      "d": 41.97740624999278,
      "v": 115
    },
    {
      "midi": 71,
      "hit": false,
      "t": 113737.78223437478,
      "d": 331.15509374999965,
      "v": 127
    },
    {
      "midi": 76,
      "hit": false,
      "t": 113737.78223437478,
      "d": 331.15509374999965,
      "v": 127
    },
    {
      "midi": 64,
      "hit": false,
      "t": 113737.78223437478,
      "d": 424.4382187500014,
      "v": 127
    },
    {
      "midi": 76,
      "hit": false,
      "t": 114183.20915624978,
      "d": 65.29818749999686,
      "v": 105
    },
    {
      "midi": 71,
      "hit": false,
      "t": 114185.54123437477,
      "d": 65.29818749999686,
      "v": 104
    },
    {
      "midi": 71,
      "hit": false,
      "t": 114407.08865624978,
      "d": 65.29818749999686,
      "v": 120
    },
    {
      "midi": 76,
      "hit": false,
      "t": 114409.42073437477,
      "d": 62.966109375003725,
      "v": 117
    },
    {
      "midi": 71,
      "hit": false,
      "t": 114633.30023437478,
      "d": 165.5775468750071,
      "v": 127
    },
    {
      "midi": 76,
      "hit": false,
      "t": 114633.30023437478,
      "d": 174.90585937500873,
      "v": 127
    },
    {
      "midi": 64,
      "hit": false,
      "t": 114633.30023437478,
      "d": 545.7062812499935,
      "v": 120
    },
    {
      "midi": 76,
      "hit": false,
      "t": 114854.84765624978,
      "d": 90.95104687499406,
      "v": 120
    },
    {
      "midi": 71,
      "hit": false,
      "t": 114854.84765624978,
      "d": 95.61520312499488,
      "v": 125
    },
    {
      "midi": 71,
      "hit": false,
      "t": 115078.72715624978,
      "d": 67.63026562498999,
      "v": 119
    },
    {
      "midi": 76,
      "hit": false,
      "t": 115081.05923437477,
      "d": 41.97740624999278,
      "v": 113
    },
    {
      "midi": 71,
      "hit": false,
      "t": 115302.60665624977,
      "d": 90.95104687499406,
      "v": 127
    },
    {
      "midi": 76,
      "hit": false,
      "t": 115304.93873437477,
      "d": 62.966109375003725,
      "v": 125
    },
    {
      "midi": 59,
      "hit": false,
      "t": 115526.48615624977,
      "d": 377.7966562499787,
      "v": 70
    },
    {
      "midi": 72,
      "hit": false,
      "t": 115528.81823437476,
      "d": 6.996234374993946,
      "v": 100
    },
    {
      "midi": 64,
      "hit": false,
      "t": 115528.81823437476,
      "d": 694.9592812499905,
      "v": 125
    },
    {
      "midi": 71,
      "hit": false,
      "t": 115528.81823437476,
      "d": 995.7973593749921,
      "v": 127
    },
    {
      "midi": 76,
      "hit": false,
      "t": 115528.81823437476,
      "d": 1319.9562187499978,
      "v": 127
    },
    {
      "midi": 69,
      "hit": false,
      "t": 115974.24515624974,
      "d": 650.6497968750045,
      "v": 117
    },
    {
      "midi": 57,
      "hit": false,
      "t": 116424.33623437476,
      "d": 3458.4718593750003,
      "v": 112
    },
    {
      "midi": 64,
      "hit": false,
      "t": 116643.55157812475,
      "d": 2530.304765625013,
      "v": 117
    },
    {
      "midi": 69,
      "hit": false,
      "t": 116867.43107812476,
      "d": 149.25299999999697,
      "v": 119
    },
    {
      "midi": 71,
      "hit": false,
      "t": 117093.64265624977,
      "d": 118.93598437499895,
      "v": 127
    },
    {
      "midi": 76,
      "hit": false,
      "t": 117093.64265624977,
      "d": 118.93598437499895,
      "v": 127
    },
    {
      "midi": 72,
      "hit": false,
      "t": 117317.52215624976,
      "d": 410.4457499999844,
      "v": 127
    },
    {
      "midi": 76,
      "hit": false,
      "t": 117319.85423437475,
      "d": 338.1513281249936,
      "v": 127
    },
    {
      "midi": 76,
      "hit": false,
      "t": 117765.28115624975,
      "d": 212.2191093750007,
      "v": 127
    },
    {
      "midi": 71,
      "hit": false,
      "t": 117765.28115624975,
      "d": 228.54365624999627,
      "v": 126
    },
    {
      "midi": 69,
      "hit": false,
      "t": 117989.16065624975,
      "d": 170.24170312500792,
      "v": 120
    },
    {
      "midi": 76,
      "hit": false,
      "t": 118213.04015624976,
      "d": 3467.8001718749874,
      "v": 115
    },
    {
      "midi": 71,
      "hit": false,
      "t": 118215.37223437475,
      "d": 205.22287500000675,
      "v": 120
    },
    {
      "midi": 72,
      "hit": false,
      "t": 118434.58757812476,
      "d": 1047.103078125001,
      "v": 118
    },
    {
      "midi": 69,
      "hit": false,
      "t": 118884.67865624976,
      "d": 566.6949843750044,
      "v": 109
    },
    {
      "midi": 64,
      "hit": false,
      "t": 119332.43765624976,
      "d": 529.3817343749979,
      "v": 121
    },
    {
      "midi": 55,
      "hit": false,
      "t": 120006.40823437476,
      "d": 3365.1887343749695,
      "v": 127
    },
    {
      "midi": 67,
      "hit": false,
      "t": 120008.74031249975,
      "d": 536.3779687499919,
      "v": 127
    },
    {
      "midi": 71,
      "hit": false,
      "t": 120008.74031249975,
      "d": 1606.801828124997,
      "v": 126
    },
    {
      "midi": 62,
      "hit": false,
      "t": 120449.50307812475,
      "d": 2649.2407499999827,
      "v": 105
    },
    {
      "midi": 67,
      "hit": false,
      "t": 120899.59415624975,
      "d": 2164.168499999985,
      "v": 118
    },
    {
      "midi": 81,
      "hit": false,
      "t": 122690.63015624974,
      "d": 944.4916406249831,
      "v": 127
    },
    {
      "midi": 79,
      "hit": false,
      "t": 122914.50965624973,
      "d": 706.6196718749852,
      "v": 127
    },
    {
      "midi": 74,
      "hit": false,
      "t": 123138.38915624973,
      "d": 352.14379687499604,
      "v": 127
    },
    {
      "midi": 62,
      "hit": false,
      "t": 123362.26865624973,
      "d": 233.2078124999971,
      "v": 123
    },
    {
      "midi": 60,
      "hit": false,
      "t": 123588.48023437473,
      "d": 3166.9620937499712,
      "v": 116
    },
    {
      "midi": 77,
      "hit": false,
      "t": 123590.81231249972,
      "d": 487.40432812499057,
      "v": 127
    },
    {
      "midi": 72,
      "hit": false,
      "t": 123807.69557812472,
      "d": 335.8192499999859,
      "v": 125
    },
    {
      "midi": 65,
      "hit": false,
      "t": 124031.57507812472,
      "d": 1056.4313906249881,
      "v": 125
    },
    {
      "midi": 67,
      "hit": false,
      "t": 124255.45457812471,
      "d": 433.7665312499885,
      "v": 127
    },
    {
      "midi": 72,
      "hit": false,
      "t": 124257.78665624971,
      "d": 2714.538937499994,
      "v": 127
    },
    {
      "midi": 69,
      "hit": false,
      "t": 124703.2135781247,
      "d": 813.895265625004,
      "v": 125
    },
    {
      "midi": 67,
      "hit": false,
      "t": 125153.3046562497,
      "d": 375.4645781250001,
      "v": 127
    },
    {
      "midi": 65,
      "hit": false,
      "t": 125379.5162343747,
      "d": 531.713812499991,
      "v": 126
    },
    {
      "midi": 69,
      "hit": false,
      "t": 125598.7315781247,
      "d": 1382.9223281250015,
      "v": 127
    },
    {
      "midi": 67,
      "hit": false,
      "t": 125824.9431562497,
      "d": 240.20404687499104,
      "v": 127
    },
    {
      "midi": 65,
      "hit": false,
      "t": 126046.49057812469,
      "d": 886.1896875000093,
      "v": 127
    },
    {
      "midi": 64,
      "hit": false,
      "t": 127170.5522343747,
      "d": 566.6949843749899,
      "v": 127
    },
    {
      "midi": 68,
      "hit": false,
      "t": 127170.5522343747,
      "d": 629.6610937499936,
      "v": 127
    },
    {
      "midi": 52,
      "hit": false,
      "t": 127170.5522343747,
      "d": 3365.1887343749986,
      "v": 114
    },
    {
      "midi": 71,
      "hit": false,
      "t": 127172.8843124997,
      "d": 701.955515624999,
      "v": 127
    },
    {
      "midi": 59,
      "hit": false,
      "t": 127613.64707812469,
      "d": 914.1746249999997,
      "v": 91
    },
    {
      "midi": 64,
      "hit": false,
      "t": 128063.73815624969,
      "d": 550.3704374999943,
      "v": 125
    },
    {
      "midi": 68,
      "hit": false,
      "t": 128509.16507812469,
      "d": 279.84937500000524,
      "v": 117
    },
    {
      "midi": 59,
      "hit": false,
      "t": 128735.37665624969,
      "d": 652.9818750000122,
      "v": 100
    },
    {
      "midi": 71,
      "hit": false,
      "t": 128961.58823437469,
      "d": 25.652859374997206,
      "v": 94
    },
    {
      "midi": 76,
      "hit": false,
      "t": 128961.58823437469,
      "d": 25.652859374997206,
      "v": 92
    },
    {
      "midi": 71,
      "hit": false,
      "t": 129183.1356562497,
      "d": 314.8305468750041,
      "v": 127
    },
    {
      "midi": 76,
      "hit": false,
      "t": 129183.1356562497,
      "d": 326.49093749999884,
      "v": 127
    },
    {
      "midi": 59,
      "hit": false,
      "t": 129628.56257812469,
      "d": 289.1776874999923,
      "v": 110
    },
    {
      "midi": 71,
      "hit": false,
      "t": 129854.7741562497,
      "d": 258.8606718749943,
      "v": 127
    },
    {
      "midi": 76,
      "hit": false,
      "t": 129857.10623437469,
      "d": 256.52859375000116,
      "v": 127
    },
    {
      "midi": 59,
      "hit": false,
      "t": 130078.65365624969,
      "d": 242.53612499999872,
      "v": 112
    },
    {
      "midi": 71,
      "hit": false,
      "t": 130302.53315624969,
      "d": 412.77782812500664,
      "v": 127
    },
    {
      "midi": 76,
      "hit": false,
      "t": 130302.53315624969,
      "d": 2758.8484218750236,
      "v": 127
    },
    {
      "midi": 59,
      "hit": false,
      "t": 130526.4126562497,
      "d": 286.8456093749992,
      "v": 105
    },
    {
      "midi": 69,
      "hit": false,
      "t": 130752.6242343747,
      "d": 769.5857812500035,
      "v": 127
    },
    {
      "midi": 57,
      "hit": false,
      "t": 130752.6242343747,
      "d": 1534.5074062500207,
      "v": 121
    },
    {
      "midi": 72,
      "hit": false,
      "t": 130752.6242343747,
      "d": 2311.089421875018,
      "v": 127
    },
    {
      "midi": 64,
      "hit": false,
      "t": 131421.9306562497,
      "d": 1315.292062500026,
      "v": 127
    },
    {
      "midi": 69,
      "hit": false,
      "t": 131648.1422343747,
      "d": 1396.914796875004,
      "v": 127
    },
    {
      "midi": 57,
      "hit": false,
      "t": 132762.87557812472,
      "d": 1429.5638906250242,
      "v": 127
    },
    {
      "midi": 64,
      "hit": false,
      "t": 132989.0871562497,
      "d": 652.9818749999977,
      "v": 127
    },
    {
      "midi": 71,
      "hit": false,
      "t": 133210.6345781247,
      "d": 111.93974999999045,
      "v": 127
    },
    {
      "midi": 76,
      "hit": false,
      "t": 133210.6345781247,
      "d": 2063.889140625077,
      "v": 127
    },
    {
      "midi": 72,
      "hit": false,
      "t": 133322.5743281247,
      "d": 121.26806249999208,
      "v": 127
    },
    {
      "midi": 71,
      "hit": false,
      "t": 133436.8461562497,
      "d": 233.20781250001164,
      "v": 127
    },
    {
      "midi": 69,
      "hit": false,
      "t": 133660.7256562497,
      "d": 375.46457812501467,
      "v": 127
    },
    {
      "midi": 64,
      "hit": false,
      "t": 133882.2730781247,
      "d": 298.50600000002305,
      "v": 127
    },
    {
      "midi": 71,
      "hit": false,
      "t": 134110.81673437473,
      "d": 69.96234374999767,
      "v": 123
    },
    {
      "midi": 71,
      "hit": false,
      "t": 134337.02831249975,
      "d": 666.9743437500147,
      "v": 127
    },
    {
      "midi": 55,
      "hit": false,
      "t": 134553.91157812474,
      "d": 2381.051765625016,
      "v": 118
    },
    {
      "midi": 67,
      "hit": false,
      "t": 134777.79107812475,
      "d": 1611.4659843750123,
      "v": 127
    },
    {
      "midi": 62,
      "hit": false,
      "t": 135001.67057812476,
      "d": 746.265000000014,
      "v": 116
    },
    {
      "midi": 74,
      "hit": false,
      "t": 135227.88215624978,
      "d": 1112.401265624998,
      "v": 120
    },
    {
      "midi": 71,
      "hit": false,
      "t": 135227.88215624978,
      "d": 1126.3937343749858,
      "v": 127
    },
    {
      "midi": 62,
      "hit": false,
      "t": 136344.94757812476,
      "d": 419.77406249998603,
      "v": 127
    },
    {
      "midi": 69,
      "hit": false,
      "t": 136571.15915624975,
      "d": 109.60767187501187,
      "v": 127
    },
    {
      "midi": 74,
      "hit": false,
      "t": 136571.15915624975,
      "d": 1298.9675156249723,
      "v": 127
    },
    {
      "midi": 71,
      "hit": false,
      "t": 136680.76682812476,
      "d": 130.5963749999937,
      "v": 127
    },
    {
      "midi": 69,
      "hit": false,
      "t": 136792.70657812475,
      "d": 235.53989062499022,
      "v": 127
    },
    {
      "midi": 67,
      "hit": false,
      "t": 137018.91815624974,
      "d": 247.20028124999953,
      "v": 127
    },
    {
      "midi": 71,
      "hit": false,
      "t": 137242.79765624975,
      "d": 121.26806249999208,
      "v": 127
    },
    {
      "midi": 69,
      "hit": false,
      "t": 137352.40532812473,
      "d": 139.92468749999534,
      "v": 127
    },
    {
      "midi": 67,
      "hit": false,
      "t": 137466.67715624973,
      "d": 307.8343124999956,
      "v": 127
    },
    {
      "midi": 62,
      "hit": false,
      "t": 137688.22457812473,
      "d": 265.8569062500028,
      "v": 127
    },
    {
      "midi": 60,
      "hit": false,
      "t": 137916.76823437473,
      "d": 715.9479843750014,
      "v": 127
    },
    {
      "midi": 65,
      "hit": false,
      "t": 137916.76823437473,
      "d": 1012.1219062500168,
      "v": 127
    },
    {
      "midi": 69,
      "hit": false,
      "t": 137916.76823437473,
      "d": 1296.6354374999937,
      "v": 127
    },
    {
      "midi": 53,
      "hit": false,
      "t": 138586.07465624972,
      "d": 2409.036703125079,
      "v": 116
    },
    {
      "midi": 60,
      "hit": false,
      "t": 138809.95415624973,
      "d": 2108.1986250000773,
      "v": 127
    },
    {
      "midi": 65,
      "hit": false,
      "t": 139031.50157812473,
      "d": 265.8569062500028,
      "v": 127
    },
    {
      "midi": 72,
      "hit": false,
      "t": 139255.38107812472,
      "d": 142.25676562503213,
      "v": 127
    },
    {
      "midi": 67,
      "hit": false,
      "t": 139257.71315624972,
      "d": 142.25676562503213,
      "v": 127
    },
    {
      "midi": 69,
      "hit": false,
      "t": 139481.59265624976,
      "d": 310.16639062500326,
      "v": 127
    },
    {
      "midi": 72,
      "hit": false,
      "t": 139481.59265624976,
      "d": 310.16639062500326,
      "v": 127
    },
    {
      "midi": 69,
      "hit": false,
      "t": 139927.01957812477,
      "d": 205.22287500000675,
      "v": 127
    },
    {
      "midi": 72,
      "hit": false,
      "t": 139927.01957812477,
      "d": 205.22287500000675,
      "v": 127
    },
    {
      "midi": 69,
      "hit": false,
      "t": 140153.2311562498,
      "d": 27.98493750000489,
      "v": 103
    },
    {
      "midi": 67,
      "hit": false,
      "t": 140153.2311562498,
      "d": 193.56248437499744,
      "v": 127
    },
    {
      "midi": 72,
      "hit": false,
      "t": 140153.2311562498,
      "d": 193.56248437499744,
      "v": 125
    },
    {
      "midi": 72,
      "hit": false,
      "t": 140374.7785781248,
      "d": 680.9668125000026,
      "v": 127
    },
    {
      "midi": 65,
      "hit": false,
      "t": 140377.1106562498,
      "d": 736.9366874999832,
      "v": 127
    },
    {
      "midi": 64,
      "hit": false,
      "t": 141498.84023437477,
      "d": 564.3629062499967,
      "v": 127
    },
    {
      "midi": 68,
      "hit": false,
      "t": 141498.84023437477,
      "d": 741.6008437499986,
      "v": 127
    },
    {
      "midi": 71,
      "hit": false,
      "t": 141498.84023437477,
      "d": 741.6008437499986,
      "v": 127
    },
    {
      "midi": 52,
      "hit": false,
      "t": 141498.84023437477,
      "d": 1387.5864843750023,
      "v": 127
    },
    {
      "midi": 40,
      "hit": false,
      "t": 142168.14665624977,
      "d": 118.9359843750135,
      "v": 116
    },
    {
      "midi": 64,
      "hit": false,
      "t": 142168.14665624977,
      "d": 135.26053125000908,
      "v": 114
    },
    {
      "midi": 64,
      "hit": false,
      "t": 142392.02615624978,
      "d": 585.3516093750077,
      "v": 119
    },
    {
      "midi": 40,
      "hit": false,
      "t": 142394.35823437478,
      "d": 713.6159062499937,
      "v": 126
    },
    {
      "midi": 71,
      "hit": false,
      "t": 142949.39282812478,
      "d": 44.309484375000466,
      "v": 90
    },
    {
      "midi": 64,
      "hit": false,
      "t": 143063.66465624978,
      "d": 151.58507812500466,
      "v": 121
    },
    {
      "midi": 71,
      "hit": false,
      "t": 143063.66465624978,
      "d": 151.58507812500466,
      "v": 127
    },
    {
      "midi": 52,
      "hit": false,
      "t": 143063.66465624978,
      "d": 513.0571875000314,
      "v": 127
    },
    {
      "midi": 76,
      "hit": false,
      "t": 143065.99673437478,
      "d": 151.58507812500466,
      "v": 127
    },
    {
      "midi": 76,
      "hit": false,
      "t": 143287.5441562498,
      "d": 538.7100468750286,
      "v": 127
    },
    {
      "midi": 64,
      "hit": false,
      "t": 143289.8762343748,
      "d": 284.51353125000605,
      "v": 127
    },
    {
      "midi": 40,
      "hit": false,
      "t": 143289.8762343748,
      "d": 473.41185937501723,
      "v": 127
    },
    {
      "midi": 71,
      "hit": false,
      "t": 143289.8762343748,
      "d": 555.0345937500242,
      "v": 127
    },
    {
      "midi": 64,
      "hit": false,
      "t": 143735.3031562498,
      "d": 128.26429687501513,
      "v": 120
    },
    {
      "midi": 52,
      "hit": false,
      "t": 143735.3031562498,
      "d": 1035.4426875000063,
      "v": 127
    },
    {
      "midi": 40,
      "hit": false,
      "t": 143959.18265624982,
      "d": 132.9284531250014,
      "v": 127
    },
    {
      "midi": 71,
      "hit": false,
      "t": 143959.18265624982,
      "d": 132.9284531250014,
      "v": 127
    },
    {
      "midi": 76,
      "hit": false,
      "t": 143959.18265624982,
      "d": 137.59260937498766,
      "v": 127
    },
    {
      "midi": 64,
      "hit": false,
      "t": 143961.51473437482,
      "d": 125.93221875000745,
      "v": 126
    },
    {
      "midi": 64,
      "hit": false,
      "t": 144183.0621562498,
      "d": 578.3553750000137,
      "v": 127
    },
    {
      "midi": 40,
      "hit": false,
      "t": 144183.0621562498,
      "d": 799.9027968750161,
      "v": 127
    },
    {
      "midi": 65,
      "hit": false,
      "t": 144185.3942343748,
      "d": 247.20028124999953,
      "v": 127
    },
    {
      "midi": 71,
      "hit": false,
      "t": 144185.3942343748,
      "d": 690.2951250000042,
      "v": 127
    },
    {
      "midi": 76,
      "hit": false,
      "t": 144185.3942343748,
      "d": 762.5895468750095,
      "v": 127
    },
    {
      "midi": 52,
      "hit": false,
      "t": 144854.7006562498,
      "d": 100.27935937501024,
      "v": 108
    },
    {
      "midi": 64,
      "hit": false,
      "t": 144854.7006562498,
      "d": 118.9359843750135,
      "v": 109
    },
    {
      "midi": 45,
      "hit": false,
      "t": 145080.91223437482,
      "d": 3038.6977968749998,
      "v": 127
    },
    {
      "midi": 64,
      "hit": false,
      "t": 145083.24431249982,
      "d": 361.4721093749977,
      "v": 127
    },
    {
      "midi": 69,
      "hit": false,
      "t": 145083.24431249982,
      "d": 389.45704687500256,
      "v": 127
    },
    {
      "midi": 72,
      "hit": false,
      "t": 145083.24431249982,
      "d": 405.78159374999814,
      "v": 127
    },
    {
      "midi": 43,
      "hit": false,
      "t": 145412.06732812483,
      "d": 132.9284531250014,
      "v": 95
    },
    {
      "midi": 72,
      "hit": false,
      "t": 145528.67123437484,
      "d": 128.26429687498603,
      "v": 119
    },
    {
      "midi": 69,
      "hit": false,
      "t": 145528.67123437484,
      "d": 130.5963749999937,
      "v": 126
    },
    {
      "midi": 64,
      "hit": false,
      "t": 145528.67123437484,
      "d": 170.24170312500792,
      "v": 127
    },
    {
      "midi": 64,
      "hit": false,
      "t": 145752.55073437485,
      "d": 111.93974999999045,
      "v": 116
    },
    {
      "midi": 72,
      "hit": false,
      "t": 145752.55073437485,
      "d": 128.26429687498603,
      "v": 127
    },
    {
      "midi": 69,
      "hit": false,
      "t": 145752.55073437485,
      "d": 135.26053124997998,
      "v": 127
    },
    {
      "midi": 57,
      "hit": false,
      "t": 145976.43023437483,
      "d": 1196.3560781250126,
      "v": 127
    },
    {
      "midi": 69,
      "hit": false,
      "t": 145976.43023437483,
      "d": 1245.3297187499993,
      "v": 127
    },
    {
      "midi": 64,
      "hit": false,
      "t": 145976.43023437483,
      "d": 1375.926093749993,
      "v": 127
    },
    {
      "midi": 72,
      "hit": false,
      "t": 145978.76231249984,
      "d": 1242.9976406249916,
      "v": 127
    },
    {
      "midi": 57,
      "hit": false,
      "t": 147538.92257812482,
      "d": 298.50599999999395,
      "v": 123
    },
    {
      "midi": 59,
      "hit": false,
      "t": 147765.1341562498,
      "d": 242.53612500001327,
      "v": 114
    },
    {
      "midi": 64,
      "hit": false,
      "t": 147765.1341562498,
      "d": 830.2198124999995,
      "v": 127
    },
    {
      "midi": 60,
      "hit": false,
      "t": 147986.68157812482,
      "d": 627.3290156250005,
      "v": 126
    },
    {
      "midi": 55,
      "hit": false,
      "t": 148662.9842343748,
      "d": 146.9209218750184,
      "v": 127
    },
    {
      "midi": 43,
      "hit": false,
      "t": 148662.9842343748,
      "d": 167.90962500000023,
      "v": 127
    },
    {
      "midi": 59,
      "hit": false,
      "t": 148665.3163124998,
      "d": 160.9133906250063,
      "v": 112
    },
    {
      "midi": 62,
      "hit": false,
      "t": 148665.3163124998,
      "d": 160.9133906250063,
      "v": 127
    },
    {
      "midi": 43,
      "hit": false,
      "t": 148884.5316562498,
      "d": 137.59260937501676,
      "v": 126
    },
    {
      "midi": 55,
      "hit": false,
      "t": 148886.8637343748,
      "d": 116.60390625000582,
      "v": 127
    },
    {
      "midi": 59,
      "hit": false,
      "t": 148886.8637343748,
      "d": 116.60390625000582,
      "v": 104
    },
    {
      "midi": 62,
      "hit": false,
      "t": 148886.8637343748,
      "d": 135.26053125000908,
      "v": 127
    },
    {
      "midi": 55,
      "hit": false,
      "t": 149110.74323437482,
      "d": 130.5963749999937,
      "v": 127
    },
    {
      "midi": 62,
      "hit": false,
      "t": 149110.74323437482,
      "d": 130.5963749999937,
      "v": 127
    },
    {
      "midi": 59,
      "hit": false,
      "t": 149110.74323437482,
      "d": 132.9284531250014,
      "v": 109
    },
    {
      "midi": 43,
      "hit": false,
      "t": 149110.74323437482,
      "d": 149.25299999999697,
      "v": 127
    },
    {
      "midi": 55,
      "hit": false,
      "t": 149332.29065624982,
      "d": 114.27182812499814,
      "v": 126
    },
    {
      "midi": 62,
      "hit": false,
      "t": 149332.29065624982,
      "d": 116.60390625000582,
      "v": 125
    },
    {
      "midi": 59,
      "hit": false,
      "t": 149334.62273437483,
      "d": 111.93974999999045,
      "v": 97
    },
    {
      "midi": 43,
      "hit": false,
      "t": 149334.62273437483,
      "d": 128.26429687498603,
      "v": 127
    },
    {
      "midi": 55,
      "hit": false,
      "t": 149558.5022343748,
      "d": 611.0044687500049,
      "v": 127
    },
    {
      "midi": 43,
      "hit": false,
      "t": 149558.5022343748,
      "d": 2854.463625000004,
      "v": 125
    },
    {
      "midi": 59,
      "hit": false,
      "t": 149560.83431249982,
      "d": 648.3177187500114,
      "v": 109
    },
    {
      "midi": 62,
      "hit": false,
      "t": 149560.83431249982,
      "d": 673.9705781250086,
      "v": 127
    },
    {
      "midi": 62,
      "hit": false,
      "t": 151120.99457812484,
      "d": 268.1889843749814,
      "v": 127
    },
    {
      "midi": 72,
      "hit": false,
      "t": 151347.20615624983,
      "d": 251.8644374999858,
      "v": 127
    },
    {
      "midi": 71,
      "hit": false,
      "t": 151456.8138281248,
      "d": 531.7138125000056,
      "v": 126
    },
    {
      "midi": 67,
      "hit": false,
      "t": 151568.7535781248,
      "d": 422.1061406250228,
      "v": 127
    },
    {
      "midi": 62,
      "hit": false,
      "t": 151794.96515624982,
      "d": 333.4871718749928,
      "v": 127
    },
    {
      "midi": 55,
      "hit": false,
      "t": 152016.51257812482,
      "d": 244.86820312499185,
      "v": 127
    },
    {
      "midi": 60,
      "hit": false,
      "t": 152245.05623437482,
      "d": 387.1249687499949,
      "v": 127
    },
    {
      "midi": 65,
      "hit": false,
      "t": 152245.05623437482,
      "d": 401.11743749998277,
      "v": 127
    },
    {
      "midi": 69,
      "hit": false,
      "t": 152245.05623437482,
      "d": 408.1136718749767,
      "v": 120
    },
    {
      "midi": 53,
      "hit": false,
      "t": 152247.38831249982,
      "d": 398.7853593749751,
      "v": 127
    },
    {
      "midi": 53,
      "hit": false,
      "t": 152690.4831562498,
      "d": 109.60767187501187,
      "v": 120
    },
    {
      "midi": 65,
      "hit": false,
      "t": 152692.8152343748,
      "d": 107.27559375000419,
      "v": 127
    },
    {
      "midi": 69,
      "hit": false,
      "t": 152692.8152343748,
      "d": 107.27559375000419,
      "v": 127
    },
    {
      "midi": 60,
      "hit": false,
      "t": 152692.8152343748,
      "d": 111.93974999999045,
      "v": 127
    },
    {
      "midi": 53,
      "hit": false,
      "t": 152914.3626562498,
      "d": 100.27935937501024,
      "v": 127
    },
    {
      "midi": 60,
      "hit": false,
      "t": 152916.69473437482,
      "d": 97.94728125000256,
      "v": 125
    },
    {
      "midi": 65,
      "hit": false,
      "t": 152916.69473437482,
      "d": 97.94728125000256,
      "v": 127
    },
    {
      "midi": 69,
      "hit": false,
      "t": 152916.69473437482,
      "d": 100.27935937501024,
      "v": 126
    },
    {
      "midi": 65,
      "hit": false,
      "t": 153140.57423437483,
      "d": 1357.2694687500189,
      "v": 127
    },
    {
      "midi": 53,
      "hit": false,
      "t": 153140.57423437483,
      "d": 1394.5827187500254,
      "v": 127
    },
    {
      "midi": 60,
      "hit": false,
      "t": 153140.57423437483,
      "d": 1394.5827187500254,
      "v": 127
    },
    {
      "midi": 69,
      "hit": false,
      "t": 153142.90631249984,
      "d": 1366.5977812500205,
      "v": 127
    },
    {
      "midi": 53,
      "hit": false,
      "t": 155150.82557812484,
      "d": 191.23040625001886,
      "v": 127
    },
    {
      "midi": 58,
      "hit": false,
      "t": 155153.15765624985,
      "d": 202.89079687499907,
      "v": 127
    },
    {
      "midi": 62,
      "hit": false,
      "t": 155153.15765624985,
      "d": 205.22287500000675,
      "v": 127
    },
    {
      "midi": 57,
      "hit": false,
      "t": 155374.70507812485,
      "d": 249.53235937500722,
      "v": 127
    },
    {
      "midi": 62,
      "hit": false,
      "t": 155377.03715624986,
      "d": 2.3320781250076834,
      "v": 107
    },
    {
      "midi": 53,
      "hit": false,
      "t": 155377.03715624986,
      "d": 156.24923437502002,
      "v": 127
    },
    {
      "midi": 60,
      "hit": false,
      "t": 155377.03715624986,
      "d": 412.7778281250212,
      "v": 127
    },
    {
      "midi": 53,
      "hit": false,
      "t": 155600.91665624987,
      "d": 132.9284531250014,
      "v": 111
    },
    {
      "midi": 52,
      "hit": false,
      "t": 155827.1282343749,
      "d": 3393.1736718750035,
      "v": 127
    },
    {
      "midi": 59,
      "hit": false,
      "t": 155829.4603124999,
      "d": 1261.6542656249949,
      "v": 92
    },
    {
      "midi": 56,
      "hit": false,
      "t": 156272.5551562499,
      "d": 16.324546874995576,
      "v": 99
    },
    {
      "midi": 64,
      "hit": false,
      "t": 157391.9526562499,
      "d": 156.24923437502002,
      "v": 119
    },
    {
      "midi": 59,
      "hit": false,
      "t": 157394.2847343749,
      "d": 781.2461718750128,
      "v": 98
    },
    {
      "midi": 71,
      "hit": false,
      "t": 157839.7116562499,
      "d": 149.25299999999697,
      "v": 127
    },
    {
      "midi": 76,
      "hit": false,
      "t": 157839.7116562499,
      "d": 149.25299999999697,
      "v": 127
    },
    {
      "midi": 76,
      "hit": false,
      "t": 158063.59115624992,
      "d": 251.8644374999858,
      "v": 127
    },
    {
      "midi": 71,
      "hit": false,
      "t": 158063.59115624992,
      "d": 277.517296874983,
      "v": 127
    },
    {
      "midi": 59,
      "hit": false,
      "t": 158287.4706562499,
      "d": 473.4118593749881,
      "v": 116
    },
    {
      "midi": 71,
      "hit": false,
      "t": 158511.35015624992,
      "d": 156.24923437499092,
      "v": 127
    },
    {
      "midi": 76,
      "hit": false,
      "t": 158511.35015624992,
      "d": 156.24923437499092,
      "v": 127
    },
    {
      "midi": 76,
      "hit": false,
      "t": 158735.2296562499,
      "d": 597.0119999999879,
      "v": 127
    },
    {
      "midi": 71,
      "hit": false,
      "t": 158737.5617343749,
      "d": 611.0044687499758,
      "v": 127
    },
    {
      "midi": 59,
      "hit": false,
      "t": 159182.9886562499,
      "d": 202.89079687499907,
      "v": 110
    },
    {
      "midi": 72,
      "hit": false,
      "t": 159409.20023437488,
      "d": 576.023296875006,
      "v": 127
    },
    {
      "midi": 76,
      "hit": false,
      "t": 159409.20023437488,
      "d": 576.023296875006,
      "v": 127
    },
    {
      "midi": 57,
      "hit": false,
      "t": 159409.20023437488,
      "d": 2217.806296875031,
      "v": 127
    },
    {
      "midi": 69,
      "hit": false,
      "t": 159411.53231249988,
      "d": 317.1626249999972,
      "v": 127
    },
    {
      "midi": 69,
      "hit": false,
      "t": 159854.6271562499,
      "d": 296.17392187498626,
      "v": 123
    },
    {
      "midi": 72,
      "hit": false,
      "t": 160078.50665624987,
      "d": 44.309484375000466,
      "v": 82
    },
    {
      "midi": 64,
      "hit": false,
      "t": 160302.38615624988,
      "d": 473.41185937501723,
      "v": 127
    },
    {
      "midi": 72,
      "hit": false,
      "t": 160302.38615624988,
      "d": 767.2537031250249,
      "v": 127
    },
    {
      "midi": 76,
      "hit": false,
      "t": 160304.7182343749,
      "d": 764.9216250000172,
      "v": 127
    },
    {
      "midi": 69,
      "hit": false,
      "t": 160747.8130781249,
      "d": 303.1701562500093,
      "v": 109
    },
    {
      "midi": 64,
      "hit": false,
      "t": 160974.0246562499,
      "d": 715.9479843750014,
      "v": 127
    },
    {
      "midi": 81,
      "hit": false,
      "t": 161421.7836562499,
      "d": 1333.9486875000002,
      "v": 127
    },
    {
      "midi": 76,
      "hit": false,
      "t": 161645.6631562499,
      "d": 802.2348749999946,
      "v": 127
    },
    {
      "midi": 72,
      "hit": false,
      "t": 161869.54265624992,
      "d": 317.1626249999972,
      "v": 127
    },
    {
      "midi": 69,
      "hit": false,
      "t": 162093.42215624993,
      "d": 594.6799218749802,
      "v": 127
    },
    {
      "midi": 72,
      "hit": false,
      "t": 162317.3016562499,
      "d": 307.8343124999956,
      "v": 127
    },
    {
      "midi": 76,
      "hit": false,
      "t": 162538.8490781249,
      "d": 198.2266406249837,
      "v": 112
    },
    {
      "midi": 72,
      "hit": false,
      "t": 162765.0606562499,
      "d": 121.26806249999208,
      "v": 125
    },
    {
      "midi": 62,
      "hit": false,
      "t": 162765.0606562499,
      "d": 2243.45915624997,
      "v": 120
    },
    {
      "midi": 71,
      "hit": false,
      "t": 162991.2722343749,
      "d": 1203.3523125000065,
      "v": 127
    },
    {
      "midi": 74,
      "hit": false,
      "t": 162991.2722343749,
      "d": 1245.3297187499993,
      "v": 127
    },
    {
      "midi": 79,
      "hit": false,
      "t": 162991.2722343749,
      "d": 1263.9863437500026,
      "v": 127
    },
    {
      "midi": 67,
      "hit": false,
      "t": 162991.2722343749,
      "d": 1860.9983437499905,
      "v": 127
    },
    {
      "midi": 71,
      "hit": false,
      "t": 164556.0966562499,
      "d": 53.637796875002095,
      "v": 121
    },
    {
      "midi": 74,
      "hit": false,
      "t": 164556.0966562499,
      "d": 53.637796875002095,
      "v": 123
    },
    {
      "midi": 79,
      "hit": false,
      "t": 164556.0966562499,
      "d": 53.637796875002095,
      "v": 121
    },
    {
      "midi": 71,
      "hit": false,
      "t": 164782.30823437488,
      "d": 153.91715624998324,
      "v": 127
    },
    {
      "midi": 74,
      "hit": false,
      "t": 164782.30823437488,
      "d": 153.91715624998324,
      "v": 127
    },
    {
      "midi": 79,
      "hit": false,
      "t": 164782.30823437488,
      "d": 172.5737812499865,
      "v": 127
    },
    {
      "midi": 67,
      "hit": false,
      "t": 165001.52357812488,
      "d": 62.966109375003725,
      "v": 127
    },
    {
      "midi": 71,
      "hit": false,
      "t": 165003.85565624989,
      "d": 72.29442187500536,
      "v": 109
    },
    {
      "midi": 74,
      "hit": false,
      "t": 165003.85565624989,
      "d": 74.62650000001304,
      "v": 114
    },
    {
      "midi": 71,
      "hit": false,
      "t": 165227.7351562499,
      "d": 137.59260937498766,
      "v": 127
    },
    {
      "midi": 67,
      "hit": false,
      "t": 165227.7351562499,
      "d": 170.2417031249788,
      "v": 127
    },
    {
      "midi": 74,
      "hit": false,
      "t": 165227.7351562499,
      "d": 170.2417031249788,
      "v": 127
    },
    {
      "midi": 62,
      "hit": false,
      "t": 165451.61465624988,
      "d": 76.95857812499162,
      "v": 125
    },
    {
      "midi": 71,
      "hit": false,
      "t": 165451.61465624988,
      "d": 76.95857812499162,
      "v": 127
    },
    {
      "midi": 67,
      "hit": false,
      "t": 165451.61465624988,
      "d": 100.27935937498114,
      "v": 127
    },
    {
      "midi": 67,
      "hit": false,
      "t": 165675.49415624986,
      "d": 564.3629062499967,
      "v": 127
    },
    {
      "midi": 71,
      "hit": false,
      "t": 165677.82623437486,
      "d": 415.10990624999977,
      "v": 127
    },
    {
      "midi": 62,
      "hit": false,
      "t": 165677.82623437486,
      "d": 585.3516093749786,
      "v": 127
    },
    {
      "midi": 62,
      "hit": false,
      "t": 166347.13265624983,
      "d": 2.3320781250076834,
      "v": 101
    },
    {
      "midi": 69,
      "hit": false,
      "t": 166347.13265624983,
      "d": 137.59260937501676,
      "v": 127
    },
    {
      "midi": 74,
      "hit": false,
      "t": 166349.46473437484,
      "d": 293.8418437500077,
      "v": 127
    },
    {
      "midi": 71,
      "hit": false,
      "t": 166456.74032812484,
      "d": 123.60014062499977,
      "v": 127
    },
    {
      "midi": 72,
      "hit": false,
      "t": 166573.34423437485,
      "d": 1152.046593749983,
      "v": 127
    },
    {
      "midi": 69,
      "hit": false,
      "t": 166573.34423437485,
      "d": 1163.7069843749923,
      "v": 127
    },
    {
      "midi": 65,
      "hit": false,
      "t": 166792.55957812484,
      "d": 846.5443593749951,
      "v": 127
    },
    {
      "midi": 65,
      "hit": false,
      "t": 167688.07757812482,
      "d": 503.7288750000007,
      "v": 127
    },
    {
      "midi": 72,
      "hit": false,
      "t": 167911.95707812483,
      "d": 177.23793750000186,
      "v": 127
    },
    {
      "midi": 67,
      "hit": false,
      "t": 167914.28915624984,
      "d": 149.25299999999697,
      "v": 127
    },
    {
      "midi": 69,
      "hit": false,
      "t": 168138.16865624982,
      "d": 401.1174375000119,
      "v": 127
    },
    {
      "midi": 72,
      "hit": false,
      "t": 168140.50073437483,
      "d": 354.4758750000037,
      "v": 127
    },
    {
      "midi": 67,
      "hit": false,
      "t": 168583.59557812483,
      "d": 394.1212031250179,
      "v": 127
    },
    {
      "midi": 72,
      "hit": false,
      "t": 168585.92765624984,
      "d": 363.80418750000536,
      "v": 127
    },
    {
      "midi": 65,
      "hit": false,
      "t": 168809.80715624985,
      "d": 1126.3937343749858,
      "v": 127
    },
    {
      "midi": 71,
      "hit": false,
      "t": 170155.41623437483,
      "d": 601.6761562500033,
      "v": 127
    },
    {
      "midi": 76,
      "hit": false,
      "t": 170155.41623437483,
      "d": 650.64979687499,
      "v": 127
    },
    {
      "midi": 64,
      "hit": false,
      "t": 170155.41623437483,
      "d": 3451.475624999992,
      "v": 127
    },
    {
      "midi": 71,
      "hit": false,
      "t": 170824.72265624983,
      "d": 690.2951250000333,
      "v": 116
    },
    {
      "midi": 76,
      "hit": false,
      "t": 171048.60215624984,
      "d": 587.6836875000154,
      "v": 108
    },
    {
      "midi": 83,
      "hit": false,
      "t": 171272.48165624985,
      "d": 527.0496562499902,
      "v": 112
    },
    {
      "midi": 88,
      "hit": false,
      "t": 171272.48165624985,
      "d": 541.0421249999781,
      "v": 127
    },
    {
      "midi": 71,
      "hit": false,
      "t": 171720.24065624984,
      "d": 664.642265625007,
      "v": 127
    },
    {
      "midi": 83,
      "hit": false,
      "t": 171946.45223437482,
      "d": 153.91715625001234,
      "v": 114
    },
    {
      "midi": 88,
      "hit": false,
      "t": 171946.45223437482,
      "d": 153.91715625001234,
      "v": 127
    },
    {
      "midi": 76,
      "hit": false,
      "t": 171946.45223437482,
      "d": 480.4080937500112,
      "v": 127
    },
    {
      "midi": 88,
      "hit": false,
      "t": 172167.99965624983,
      "d": 90.95104687500861,
      "v": 127
    },
    {
      "midi": 83,
      "hit": false,
      "t": 172170.33173437483,
      "d": 88.61896875000093,
      "v": 104
    },
    {
      "midi": 88,
      "hit": false,
      "t": 172391.87915624984,
      "d": 268.1889843750105,
      "v": 127
    },
    {
      "midi": 83,
      "hit": false,
      "t": 172394.21123437484,
      "d": 282.18145312499837,
      "v": 127
    },
    {
      "midi": 71,
      "hit": false,
      "t": 172615.75865624985,
      "d": 279.8493749999907,
      "v": 127
    },
    {
      "midi": 88,
      "hit": false,
      "t": 172841.97023437484,
      "d": 312.49846875001094,
      "v": 127
    },
    {
      "midi": 83,
      "hit": false,
      "t": 172841.97023437484,
      "d": 324.15885937502026,
      "v": 116
    },
    {
      "midi": 71,
      "hit": false,
      "t": 173063.51765624984,
      "d": 230.87573437500396,
      "v": 127
    },
    {
      "midi": 88,
      "hit": false,
      "t": 173287.39715624985,
      "d": 128.26429687498603,
      "v": 127
    },
    {
      "midi": 83,
      "hit": false,
      "t": 173287.39715624985,
      "d": 146.9209218749893,
      "v": 117
    },
    {
      "midi": 71,
      "hit": false,
      "t": 173511.27665624983,
      "d": 188.89832812498207,
      "v": 127
    },
    {
      "midi": 69,
      "hit": false,
      "t": 173737.48823437482,
      "d": 671.63850000003,
      "v": 127
    },
    {
      "midi": 81,
      "hit": false,
      "t": 173737.48823437482,
      "d": 3083.0072812500002,
      "v": 120
    },
    {
      "midi": 76,
      "hit": false,
      "t": 173961.36773437483,
      "d": 331.1550937500142,
      "v": 127
    },
    {
      "midi": 72,
      "hit": false,
      "t": 174182.91515624983,
      "d": 277.5172968750121,
      "v": 127
    },
    {
      "midi": 76,
      "hit": false,
      "t": 174406.79465624984,
      "d": 2413.700859374978,
      "v": 127
    },
    {
      "midi": 72,
      "hit": false,
      "t": 174633.00623437483,
      "d": 881.525531249994,
      "v": 127
    },
    {
      "midi": 55,
      "hit": false,
      "t": 177093.34865624981,
      "d": 2110.5307031249977,
      "v": 117
    },
    {
      "midi": 74,
      "hit": false,
      "t": 177319.5602343748,
      "d": 1842.3417187500163,
      "v": 127
    },
    {
      "midi": 79,
      "hit": false,
      "t": 177319.5602343748,
      "d": 1842.3417187500163,
      "v": 127
    },
    {
      "midi": 67,
      "hit": false,
      "t": 177321.8923124998,
      "d": 1546.167796875001,
      "v": 127
    },
    {
      "midi": 65,
      "hit": false,
      "t": 180901.63223437482,
      "d": 2262.1157812500023,
      "v": 127
    },
    {
      "midi": 72,
      "hit": false,
      "t": 180901.63223437482,
      "d": 2280.7724062500056,
      "v": 127
    },
    {
      "midi": 77,
      "hit": false,
      "t": 180901.63223437482,
      "d": 2280.7724062500056,
      "v": 127
    },
    {
      "midi": 76,
      "hit": false,
      "t": 184705.25165624983,
      "d": 158.5813124999986,
      "v": 127
    },
    {
      "midi": 88,
      "hit": false,
      "t": 184705.25165624983,
      "d": 205.22287500000675,
      "v": 127
    },
    {
      "midi": 83,
      "hit": false,
      "t": 184707.58373437484,
      "d": 156.24923437499092,
      "v": 114
    },
    {
      "midi": 76,
      "hit": false,
      "t": 185153.01065624985,
      "d": 53.637796875002095,
      "v": 88
    },
    {
      "midi": 76,
      "hit": false,
      "t": 185379.22223437484,
      "d": 268.1889843750105,
      "v": 127
    },
    {
      "midi": 88,
      "hit": false,
      "t": 185379.22223437484,
      "d": 296.17392187501537,
      "v": 127
    },
    {
      "midi": 83,
      "hit": false,
      "t": 185379.22223437484,
      "d": 298.50600000002305,
      "v": 112
    },
    {
      "midi": 76,
      "hit": false,
      "t": 185826.98123437486,
      "d": 60.63403124999604,
      "v": 107
    },
    {
      "midi": 88,
      "hit": false,
      "t": 185826.98123437486,
      "d": 60.63403124999604,
      "v": 108
    },
    {
      "midi": 88,
      "hit": false,
      "t": 186048.52865624987,
      "d": 279.8493750000198,
      "v": 127
    },
    {
      "midi": 76,
      "hit": false,
      "t": 186048.52865624987,
      "d": 300.83807812503073,
      "v": 127
    },
    {
      "midi": 83,
      "hit": false,
      "t": 186050.86073437487,
      "d": 312.49846875001094,
      "v": 120
    },
    {
      "midi": 64,
      "hit": false,
      "t": 186274.74023437488,
      "d": 284.51353125000605,
      "v": 127
    },
    {
      "midi": 76,
      "hit": false,
      "t": 186498.6197343749,
      "d": 286.84560937501374,
      "v": 127
    },
    {
      "midi": 88,
      "hit": false,
      "t": 186498.6197343749,
      "d": 321.8267812500126,
      "v": 127
    },
    {
      "midi": 83,
      "hit": false,
      "t": 186498.6197343749,
      "d": 340.48340625001583,
      "v": 116
    },
    {
      "midi": 64,
      "hit": false,
      "t": 186722.4992343749,
      "d": 303.1701562500093,
      "v": 127
    },
    {
      "midi": 76,
      "hit": false,
      "t": 186946.3787343749,
      "d": 125.93221875000745,
      "v": 127
    },
    {
      "midi": 83,
      "hit": false,
      "t": 186946.3787343749,
      "d": 125.93221875000745,
      "v": 116
    },
    {
      "midi": 88,
      "hit": false,
      "t": 186946.3787343749,
      "d": 146.9209218750184,
      "v": 127
    },
    {
      "midi": 76,
      "hit": false,
      "t": 187170.25823437492,
      "d": 258.86067187500885,
      "v": 127
    },
    {
      "midi": 88,
      "hit": false,
      "t": 187170.25823437492,
      "d": 279.8493750000198,
      "v": 127
    },
    {
      "midi": 83,
      "hit": false,
      "t": 187170.25823437492,
      "d": 312.49846875001094,
      "v": 120
    },
    {
      "midi": 64,
      "hit": false,
      "t": 187394.13773437493,
      "d": 247.20028124999953,
      "v": 127
    },
    {
      "midi": 88,
      "hit": false,
      "t": 187615.68515624994,
      "d": 160.91339062497718,
      "v": 127
    },
    {
      "midi": 76,
      "hit": false,
      "t": 187615.68515624994,
      "d": 184.2341718749667,
      "v": 127
    },
    {
      "midi": 83,
      "hit": false,
      "t": 187618.01723437494,
      "d": 135.26053124997998,
      "v": 117
    },
    {
      "midi": 64,
      "hit": false,
      "t": 187839.56465624992,
      "d": 2126.8552499999932,
      "v": 127
    },
    {
      "midi": 69,
      "hit": false,
      "t": 188065.7762343749,
      "d": 284.51353125000605,
      "v": 127
    },
    {
      "midi": 76,
      "hit": false,
      "t": 188065.7762343749,
      "d": 284.51353125000605,
      "v": 127
    },
    {
      "midi": 72,
      "hit": false,
      "t": 188068.1083124999,
      "d": 305.5022343749879,
      "v": 127
    },
    {
      "midi": 69,
      "hit": false,
      "t": 188511.2031562499,
      "d": 314.8305468750186,
      "v": 127
    },
    {
      "midi": 72,
      "hit": false,
      "t": 188511.2031562499,
      "d": 333.4871718750219,
      "v": 127
    },
    {
      "midi": 74,
      "hit": false,
      "t": 188513.5352343749,
      "d": 25.652859374997206,
      "v": 109
    },
    {
      "midi": 76,
      "hit": false,
      "t": 188513.5352343749,
      "d": 312.49846875001094,
      "v": 127
    },
    {
      "midi": 69,
      "hit": false,
      "t": 188958.9621562499,
      "d": 1191.6919218749972,
      "v": 127
    },
    {
      "midi": 74,
      "hit": false,
      "t": 188961.29423437492,
      "d": 4.664156249986263,
      "v": 111
    },
    {
      "midi": 72,
      "hit": false,
      "t": 188961.29423437492,
      "d": 1326.9524531249772,
      "v": 127
    },
    {
      "midi": 76,
      "hit": false,
      "t": 188961.29423437492,
      "d": 1394.5827187499672,
      "v": 127
    },
    {
      "midi": 64,
      "hit": false,
      "t": 190078.3596562499,
      "d": 1140.3862031249737,
      "v": 127
    },
    {
      "midi": 69,
      "hit": false,
      "t": 190304.5712343749,
      "d": 153.91715625001234,
      "v": 127
    },
    {
      "midi": 71,
      "hit": false,
      "t": 190411.8468281249,
      "d": 149.25299999999697,
      "v": 127
    },
    {
      "midi": 72,
      "hit": false,
      "t": 190526.1186562499,
      "d": 221.54742187500233,
      "v": 127
    },
    {
      "midi": 76,
      "hit": false,
      "t": 190752.33023437488,
      "d": 778.9140937500051,
      "v": 127
    },
    {
      "midi": 72,
      "hit": false,
      "t": 190973.87765624988,
      "d": 608.6723906250263,
      "v": 127
    },
    {
      "midi": 69,
      "hit": false,
      "t": 191200.08923437487,
      "d": 275.1852187500044,
      "v": 127
    },
    {
      "midi": 64,
      "hit": false,
      "t": 191421.63665624987,
      "d": 121.26806250002119,
      "v": 127
    },
    {
      "midi": 62,
      "hit": false,
      "t": 191645.5161562499,
      "d": 1417.903500000073,
      "v": 127
    },
    {
      "midi": 67,
      "hit": false,
      "t": 191647.84823437492,
      "d": 331.1550937500142,
      "v": 127
    },
    {
      "midi": 71,
      "hit": false,
      "t": 191647.84823437492,
      "d": 361.4721093750268,
      "v": 127
    },
    {
      "midi": 74,
      "hit": false,
      "t": 191647.84823437492,
      "d": 380.12873437503004,
      "v": 127
    },
    {
      "midi": 67,
      "hit": false,
      "t": 192093.27515624996,
      "d": 550.3704375000088,
      "v": 127
    },
    {
      "midi": 71,
      "hit": false,
      "t": 192095.60723437497,
      "d": 450.0910781249986,
      "v": 127
    },
    {
      "midi": 74,
      "hit": false,
      "t": 192095.60723437497,
      "d": 450.0910781249986,
      "v": 127
    },
    {
      "midi": 67,
      "hit": false,
      "t": 192764.91365624996,
      "d": 242.53612500001327,
      "v": 127
    },
    {
      "midi": 69,
      "hit": false,
      "t": 192767.24573437497,
      "d": 240.2040468750056,
      "v": 127
    },
    {
      "midi": 74,
      "hit": false,
      "t": 192767.24573437497,
      "d": 261.19275000001653,
      "v": 127
    },
    {
      "midi": 67,
      "hit": false,
      "t": 193212.67265624998,
      "d": 18.65662500000326,
      "v": 100
    },
    {
      "midi": 74,
      "hit": false,
      "t": 193438.884234375,
      "d": 454.75523437498487,
      "v": 127
    },
    {
      "midi": 67,
      "hit": false,
      "t": 193438.884234375,
      "d": 457.08731249999255,
      "v": 127
    },
    {
      "midi": 71,
      "hit": false,
      "t": 193438.884234375,
      "d": 461.7514687499788,
      "v": 127
    },
    {
      "midi": 62,
      "hit": false,
      "t": 193886.643234375,
      "d": 715.9479843750014,
      "v": 127
    },
    {
      "midi": 67,
      "hit": false,
      "t": 194108.19065625,
      "d": 326.49093749999884,
      "v": 127
    },
    {
      "midi": 69,
      "hit": false,
      "t": 194108.19065625,
      "d": 347.4796406250098,
      "v": 127
    },
    {
      "midi": 74,
      "hit": false,
      "t": 194108.19065625,
      "d": 363.80418750000536,
      "v": 127
    },
    {
      "midi": 67,
      "hit": false,
      "t": 194555.94965624998,
      "d": 401.1174375000119,
      "v": 127
    },
    {
      "midi": 71,
      "hit": false,
      "t": 194558.281734375,
      "d": 380.12873437500093,
      "v": 127
    },
    {
      "midi": 74,
      "hit": false,
      "t": 194558.281734375,
      "d": 492.0684843750205,
      "v": 127
    },
    {
      "midi": 69,
      "hit": false,
      "t": 195003.70865625,
      "d": 72.29442187500536,
      "v": 103
    },
    {
      "midi": 65,
      "hit": false,
      "t": 195229.92023437502,
      "d": 1077.420093749999,
      "v": 127
    },
    {
      "midi": 69,
      "hit": false,
      "t": 195229.92023437502,
      "d": 1194.024000000005,
      "v": 127
    },
    {
      "midi": 72,
      "hit": false,
      "t": 195229.92023437502,
      "d": 1238.3334843750054,
      "v": 127
    },
    {
      "midi": 65,
      "hit": false,
      "t": 197242.50365625002,
      "d": 333.4871718750219,
      "v": 127
    },
    {
      "midi": 72,
      "hit": false,
      "t": 197242.50365625002,
      "d": 468.74770312500186,
      "v": 127
    },
    {
      "midi": 69,
      "hit": false,
      "t": 197244.83573437502,
      "d": 443.09484375000466,
      "v": 127
    },
    {
      "midi": 65,
      "hit": false,
      "t": 197687.93057812503,
      "d": 331.1550937499851,
      "v": 127
    },
    {
      "midi": 70,
      "hit": false,
      "t": 197916.47423437503,
      "d": 361.4721093749977,
      "v": 127
    },
    {
      "midi": 74,
      "hit": false,
      "t": 197916.47423437503,
      "d": 408.1136718750058,
      "v": 127
    },
    {
      "midi": 65,
      "hit": false,
      "t": 198138.02165625003,
      "d": 291.509765625,
      "v": 127
    },
    {
      "midi": 69,
      "hit": false,
      "t": 198361.90115625004,
      "d": 240.20404687497648,
      "v": 127
    },
    {
      "midi": 72,
      "hit": false,
      "t": 198361.90115625004,
      "d": 314.8305468749895,
      "v": 127
    },
    {
      "midi": 65,
      "hit": false,
      "t": 198585.78065625002,
      "d": 130.59637500002282,
      "v": 121
    },
    {
      "midi": 64,
      "hit": false,
      "t": 198811.99223437504,
      "d": 573.6912187499984,
      "v": 127
    },
    {
      "midi": 68,
      "hit": false,
      "t": 198811.99223437504,
      "d": 592.3478437500016,
      "v": 127
    },
    {
      "midi": 71,
      "hit": false,
      "t": 198811.99223437504,
      "d": 678.634734375024,
      "v": 127
    },
    {
      "midi": 64,
      "hit": false,
      "t": 199478.96657812505,
      "d": 487.4043281250051,
      "v": 127
    },
    {
      "midi": 71,
      "hit": false,
      "t": 199707.51023437505,
      "d": 424.4382187500014,
      "v": 127
    },
    {
      "midi": 76,
      "hit": false,
      "t": 199707.51023437505,
      "d": 461.7514687500079,
      "v": 127
    },
    {
      "midi": 64,
      "hit": false,
      "t": 200152.93715625006,
      "d": 1688.4245625000622,
      "v": 127
    },
    {
      "midi": 76,
      "hit": false,
      "t": 200603.02823437506,
      "d": 51.30571874999441,
      "v": 109
    },
    {
      "midi": 88,
      "hit": false,
      "t": 200603.02823437506,
      "d": 69.96234374999767,
      "v": 118
    },
    {
      "midi": 76,
      "hit": false,
      "t": 200824.57565625006,
      "d": 142.25676562500303,
      "v": 127
    },
    {
      "midi": 88,
      "hit": false,
      "t": 200824.57565625006,
      "d": 156.24923437499092,
      "v": 127
    },
    {
      "midi": 83,
      "hit": false,
      "t": 200826.90773437507,
      "d": 135.26053125000908,
      "v": 117
    },
    {
      "midi": 76,
      "hit": false,
      "t": 201048.45515625004,
      "d": 76.95857812502072,
      "v": 117
    },
    {
      "midi": 88,
      "hit": false,
      "t": 201048.45515625004,
      "d": 76.95857812502072,
      "v": 118
    },
    {
      "midi": 83,
      "hit": false,
      "t": 201050.78723437505,
      "d": 74.62650000001304,
      "v": 99
    },
    {
      "midi": 76,
      "hit": false,
      "t": 201272.33465625005,
      "d": 79.2906562499993,
      "v": 127
    },
    {
      "midi": 83,
      "hit": false,
      "t": 201272.33465625005,
      "d": 79.2906562499993,
      "v": 112
    },
    {
      "midi": 88,
      "hit": false,
      "t": 201272.33465625005,
      "d": 100.27935937501024,
      "v": 127
    },
    {
      "midi": 76,
      "hit": false,
      "t": 201496.21415625006,
      "d": 121.26806250002119,
      "v": 127
    },
    {
      "midi": 88,
      "hit": false,
      "t": 201496.21415625006,
      "d": 121.26806250002119,
      "v": 127
    },
    {
      "midi": 83,
      "hit": false,
      "t": 201498.54623437507,
      "d": 121.26806250002119,
      "v": 116
    },
    {
      "midi": 83,
      "hit": false,
      "t": 201720.0936562501,
      "d": 118.9359843750135,
      "v": 107
    },
    {
      "midi": 76,
      "hit": false,
      "t": 201720.0936562501,
      "d": 121.26806250002119,
      "v": 127
    },
    {
      "midi": 88,
      "hit": false,
      "t": 201720.0936562501,
      "d": 128.26429687501513,
      "v": 125
    },
    {
      "midi": 83,
      "hit": false,
      "t": 201943.9731562501,
      "d": 221.54742187500233,
      "v": 117
    },
    {
      "midi": 88,
      "hit": false,
      "t": 201943.9731562501,
      "d": 226.2115781250177,
      "v": 127
    },
    {
      "midi": 76,
      "hit": false,
      "t": 201943.9731562501,
      "d": 284.51353125000605,
      "v": 127
    },
    {
      "midi": 64,
      "hit": false,
      "t": 202167.85265625012,
      "d": 3568.079531250056,
      "v": 119
    },
    {
      "midi": 76,
      "hit": false,
      "t": 202394.0642343751,
      "d": 200.55871874999139,
      "v": 127
    },
    {
      "midi": 81,
      "hit": false,
      "t": 202394.0642343751,
      "d": 361.4721093749977,
      "v": 127
    },
    {
      "midi": 69,
      "hit": false,
      "t": 202394.0642343751,
      "d": 543.3742031249858,
      "v": 127
    },
    {
      "midi": 72,
      "hit": false,
      "t": 202613.2795781251,
      "d": 135.26053125000908,
      "v": 127
    },
    {
      "midi": 76,
      "hit": false,
      "t": 202839.4911562501,
      "d": 284.51353125000605,
      "v": 127
    },
    {
      "midi": 81,
      "hit": false,
      "t": 202839.4911562501,
      "d": 284.51353125000605,
      "v": 127
    },
    {
      "midi": 72,
      "hit": false,
      "t": 202841.8232343751,
      "d": 263.5248281249951,
      "v": 127
    },
    {
      "midi": 69,
      "hit": false,
      "t": 203063.3706562501,
      "d": 417.44198437500745,
      "v": 127
    },
    {
      "midi": 81,
      "hit": false,
      "t": 203287.2501562501,
      "d": 557.3666718750028,
      "v": 127
    },
    {
      "midi": 72,
      "hit": false,
      "t": 203289.58223437512,
      "d": 517.7213437499886,
      "v": 127
    },
    {
      "midi": 76,
      "hit": false,
      "t": 203289.58223437512,
      "d": 536.3779687499919,
      "v": 127
    },
    {
      "midi": 69,
      "hit": false,
      "t": 203735.0091562501,
      "d": 711.2838281250733,
      "v": 123
    },
    {
      "midi": 72,
      "hit": false,
      "t": 203958.8886562501,
      "d": 333.4871718750219,
      "v": 127
    },
    {
      "midi": 76,
      "hit": false,
      "t": 203958.8886562501,
      "d": 363.80418750003446,
      "v": 127
    },
    {
      "midi": 81,
      "hit": false,
      "t": 203961.22073437512,
      "d": 342.8154843750235,
      "v": 127
    },
    {
      "midi": 76,
      "hit": false,
      "t": 204404.31557812516,
      "d": 534.0458906250133,
      "v": 127
    },
    {
      "midi": 81,
      "hit": false,
      "t": 204406.64765625016,
      "d": 240.2040468750056,
      "v": 127
    },
    {
      "midi": 72,
      "hit": false,
      "t": 204406.64765625016,
      "d": 482.74017187501886,
      "v": 127
    },
    {
      "midi": 69,
      "hit": false,
      "t": 204854.40665625018,
      "d": 258.86067187497974,
      "v": 127
    },
    {
      "midi": 76,
      "hit": false,
      "t": 205078.28615625016,
      "d": 296.17392187501537,
      "v": 127
    },
    {
      "midi": 78,
      "hit": false,
      "t": 205080.61823437517,
      "d": 4.664156249986263,
      "v": 110
    },
    {
      "midi": 81,
      "hit": false,
      "t": 205080.61823437517,
      "d": 258.86067187500885,
      "v": 127
    },
    {
      "midi": 72,
      "hit": false,
      "t": 205080.61823437517,
      "d": 277.5172968750121,
      "v": 127
    },
    {
      "midi": 69,
      "hit": false,
      "t": 205302.16565625017,
      "d": 398.7853593750042,
      "v": 127
    },
    {
      "midi": 76,
      "hit": false,
      "t": 205526.04515625018,
      "d": 202.89079687499907,
      "v": 127
    },
    {
      "midi": 72,
      "hit": false,
      "t": 205526.04515625018,
      "d": 228.54365624999627,
      "v": 127
    },
    {
      "midi": 83,
      "hit": false,
      "t": 205528.3772343752,
      "d": 184.2341718749958,
      "v": 119
    },
    {
      "midi": 67,
      "hit": false,
      "t": 205976.13623437518,
      "d": 284.51353125000605,
      "v": 127
    },
    {
      "midi": 71,
      "hit": false,
      "t": 205976.13623437518,
      "d": 300.83807812500163,
      "v": 127
    },
    {
      "midi": 74,
      "hit": false,
      "t": 205976.13623437518,
      "d": 321.8267812500126,
      "v": 127
    },
    {
      "midi": 79,
      "hit": false,
      "t": 205976.13623437518,
      "d": 321.8267812500126,
      "v": 127
    },
    {
      "midi": 71,
      "hit": false,
      "t": 206421.5631562502,
      "d": 300.83807812500163,
      "v": 127
    },
    {
      "midi": 79,
      "hit": false,
      "t": 206421.5631562502,
      "d": 317.1626249999972,
      "v": 127
    },
    {
      "midi": 74,
      "hit": false,
      "t": 206421.5631562502,
      "d": 319.4947031250049,
      "v": 127
    },
    {
      "midi": 62,
      "hit": false,
      "t": 206423.8952343752,
      "d": 3020.0411718750256,
      "v": 127
    },
    {
      "midi": 74,
      "hit": false,
      "t": 206869.3221562502,
      "d": 1005.1256718750228,
      "v": 127
    },
    {
      "midi": 71,
      "hit": false,
      "t": 206871.6542343752,
      "d": 305.5022343749879,
      "v": 127
    },
    {
      "midi": 67,
      "hit": false,
      "t": 206871.6542343752,
      "d": 454.75523437498487,
      "v": 127
    },
    {
      "midi": 79,
      "hit": false,
      "t": 206871.6542343752,
      "d": 1061.0955468750035,
      "v": 127
    },
    {
      "midi": 71,
      "hit": false,
      "t": 207317.08115625018,
      "d": 410.4457500000135,
      "v": 115
    },
    {
      "midi": 67,
      "hit": false,
      "t": 207540.9606562502,
      "d": 289.1776875000214,
      "v": 127
    },
    {
      "midi": 71,
      "hit": false,
      "t": 207767.1722343752,
      "d": 88.61896875000093,
      "v": 104
    },
    {
      "midi": 67,
      "hit": false,
      "t": 207986.3875781252,
      "d": 254.19651562499348,
      "v": 127
    },
    {
      "midi": 71,
      "hit": false,
      "t": 207988.7196562502,
      "d": 284.51353124997695,
      "v": 127
    },
    {
      "midi": 74,
      "hit": false,
      "t": 207988.7196562502,
      "d": 305.5022343749879,
      "v": 127
    },
    {
      "midi": 79,
      "hit": false,
      "t": 207988.7196562502,
      "d": 319.4947031249758,
      "v": 127
    },
    {
      "midi": 79,
      "hit": false,
      "t": 208434.1465781252,
      "d": 130.5963749999937,
      "v": 127
    },
    {
      "midi": 71,
      "hit": false,
      "t": 208436.4786562502,
      "d": 102.61143749998882,
      "v": 127
    },
    {
      "midi": 74,
      "hit": false,
      "t": 208436.4786562502,
      "d": 128.26429687498603,
      "v": 127
    },
    {
      "midi": 67,
      "hit": false,
      "t": 208436.4786562502,
      "d": 492.0684843750205,
      "v": 127
    },
    {
      "midi": 72,
      "hit": false,
      "t": 208662.6902343752,
      "d": 116.60390625000582,
      "v": 127
    },
    {
      "midi": 76,
      "hit": false,
      "t": 208662.6902343752,
      "d": 118.9359843750135,
      "v": 127
    },
    {
      "midi": 79,
      "hit": false,
      "t": 208662.6902343752,
      "d": 139.92468750002445,
      "v": 127
    },
    {
      "midi": 72,
      "hit": false,
      "t": 208884.23765625022,
      "d": 109.60767187501187,
      "v": 127
    },
    {
      "midi": 79,
      "hit": false,
      "t": 208884.23765625022,
      "d": 146.9209218750184,
      "v": 127
    },
    {
      "midi": 76,
      "hit": false,
      "t": 208884.23765625022,
      "d": 149.25300000002608,
      "v": 127
    },
    {
      "midi": 71,
      "hit": false,
      "t": 209108.11715625026,
      "d": 202.89079687499907,
      "v": 127
    },
    {
      "midi": 79,
      "hit": false,
      "t": 209108.11715625026,
      "d": 202.89079687499907,
      "v": 127
    },
    {
      "midi": 74,
      "hit": false,
      "t": 209110.44923437526,
      "d": 181.90209374998813,
      "v": 127
    },
    {
      "midi": 67,
      "hit": false,
      "t": 209110.44923437526,
      "d": 249.5323593749781,
      "v": 127
    },
    {
      "midi": 69,
      "hit": false,
      "t": 209558.20823437523,
      "d": 333.4871718749928,
      "v": 127
    },
    {
      "midi": 65,
      "hit": false,
      "t": 209558.20823437523,
      "d": 485.07224999999744,
      "v": 127
    },
    {
      "midi": 72,
      "hit": false,
      "t": 209558.20823437523,
      "d": 1256.9901093750086,
      "v": 127
    },
    {
      "midi": 77,
      "hit": false,
      "t": 209558.20823437523,
      "d": 1343.2770000000019,
      "v": 127
    },
    {
      "midi": 69,
      "hit": false,
      "t": 210003.6351562502,
      "d": 342.8154843750235,
      "v": 116
    },
    {
      "midi": 65,
      "hit": false,
      "t": 210227.51465625022,
      "d": 319.4947031250049,
      "v": 127
    },
    {
      "midi": 69,
      "hit": false,
      "t": 210451.39415625023,
      "d": 333.4871718749928,
      "v": 116
    },
    {
      "midi": 65,
      "hit": false,
      "t": 210672.94157812523,
      "d": 300.83807812500163,
      "v": 127
    },
    {
      "midi": 72,
      "hit": false,
      "t": 210899.15315625022,
      "d": 79.2906562499993,
      "v": 101
    },
    {
      "midi": 69,
      "hit": false,
      "t": 210899.15315625022,
      "d": 121.26806249999208,
      "v": 117
    },
    {
      "midi": 65,
      "hit": false,
      "t": 211123.0326562502,
      "d": 233.20781250001164,
      "v": 127
    },
    {
      "midi": 76,
      "hit": false,
      "t": 211125.3647343752,
      "d": 69.96234374999767,
      "v": 125
    },
    {
      "midi": 77,
      "hit": false,
      "t": 211125.3647343752,
      "d": 209.88703124999302,
      "v": 127
    },
    {
      "midi": 69,
      "hit": false,
      "t": 211125.3647343752,
      "d": 228.54365624999627,
      "v": 127
    },
    {
      "midi": 72,
      "hit": false,
      "t": 211125.3647343752,
      "d": 233.20781250001164,
      "v": 127
    },
    {
      "midi": 65,
      "hit": false,
      "t": 211570.79165625022,
      "d": 277.5172968750121,
      "v": 127
    },
    {
      "midi": 69,
      "hit": false,
      "t": 211570.79165625022,
      "d": 464.0835468750156,
      "v": 127
    },
    {
      "midi": 72,
      "hit": false,
      "t": 211570.79165625022,
      "d": 489.7364062500128,
      "v": 127
    },
    {
      "midi": 77,
      "hit": false,
      "t": 211573.12373437523,
      "d": 1098.40879687501,
      "v": 127
    },
    {
      "midi": 65,
      "hit": false,
      "t": 212018.55065625024,
      "d": 251.8644374999858,
      "v": 127
    },
    {
      "midi": 70,
      "hit": false,
      "t": 212244.76223437523,
      "d": 265.8569062500028,
      "v": 127
    },
    {
      "midi": 74,
      "hit": false,
      "t": 212244.76223437523,
      "d": 398.7853593750042,
      "v": 127
    },
    {
      "midi": 65,
      "hit": false,
      "t": 212466.30965625023,
      "d": 261.19275000001653,
      "v": 127
    },
    {
      "midi": 72,
      "hit": false,
      "t": 212690.18915625024,
      "d": 202.89079687499907,
      "v": 127
    },
    {
      "midi": 77,
      "hit": false,
      "t": 212690.18915625024,
      "d": 212.2191093750007,
      "v": 100
    },
    {
      "midi": 69,
      "hit": false,
      "t": 212690.18915625024,
      "d": 251.8644375000149,
      "v": 127
    },
    {
      "midi": 74,
      "hit": false,
      "t": 212692.52123437525,
      "d": 2.3320781250076834,
      "v": 103
    },
    {
      "midi": 65,
      "hit": false,
      "t": 212914.06865625025,
      "d": 153.91715625001234,
      "v": 127
    },
    {
      "midi": 64,
      "hit": false,
      "t": 213140.28023437527,
      "d": 349.81171874998836,
      "v": 127
    },
    {
      "midi": 71,
      "hit": false,
      "t": 213140.28023437527,
      "d": 520.0534218749963,
      "v": 127
    },
    {
      "midi": 76,
      "hit": false,
      "t": 213140.28023437527,
      "d": 555.0345937499951,
      "v": 127
    },
    {
      "midi": 64,
      "hit": false,
      "t": 213585.70715625025,
      "d": 111.93975000001956,
      "v": 111
    },
    {
      "midi": 71,
      "hit": false,
      "t": 213809.58665625026,
      "d": 83.95481249998556,
      "v": 127
    },
    {
      "midi": 64,
      "hit": false,
      "t": 213809.58665625026,
      "d": 90.95104687497951,
      "v": 125
    },
    {
      "midi": 76,
      "hit": false,
      "t": 213809.58665625026,
      "d": 109.60767187498277,
      "v": 123
    },
    {
      "midi": 64,
      "hit": false,
      "t": 214035.79823437525,
      "d": 275.1852187500044,
      "v": 127
    },
    {
      "midi": 71,
      "hit": false,
      "t": 214035.79823437525,
      "d": 522.385500000004,
      "v": 127
    },
    {
      "midi": 76,
      "hit": false,
      "t": 214035.79823437525,
      "d": 522.385500000004,
      "v": 127
    },
    {
      "midi": 52,
      "hit": false,
      "t": 214035.79823437525,
      "d": 1147.3824374999967,
      "v": 127
    },
    {
      "midi": 64,
      "hit": false,
      "t": 214481.22515625026,
      "d": 93.2831249999872,
      "v": 119
    },
    {
      "midi": 40,
      "hit": false,
      "t": 214705.10465625025,
      "d": 116.60390625000582,
      "v": 114
    },
    {
      "midi": 71,
      "hit": false,
      "t": 214707.43673437525,
      "d": 74.62650000001304,
      "v": 117
    },
    {
      "midi": 64,
      "hit": false,
      "t": 214707.43673437525,
      "d": 79.2906562499993,
      "v": 109
    },
    {
      "midi": 76,
      "hit": false,
      "t": 214707.43673437525,
      "d": 79.2906562499993,
      "v": 112
    },
    {
      "midi": 64,
      "hit": false,
      "t": 214931.31623437526,
      "d": 268.1889843749814,
      "v": 127
    },
    {
      "midi": 71,
      "hit": false,
      "t": 214931.31623437526,
      "d": 300.8380781249725,
      "v": 127
    },
    {
      "midi": 76,
      "hit": false,
      "t": 214931.31623437526,
      "d": 321.82678124998347,
      "v": 127
    },
    {
      "midi": 40,
      "hit": false,
      "t": 214931.31623437526,
      "d": 510.72510937499464,
      "v": 127
    },
    {
      "midi": 71,
      "hit": false,
      "t": 215376.74315625025,
      "d": 83.95481249998556,
      "v": 126
    },
    {
      "midi": 76,
      "hit": false,
      "t": 215376.74315625025,
      "d": 109.60767187498277,
      "v": 123
    },
    {
      "midi": 52,
      "hit": false,
      "t": 215376.74315625025,
      "d": 697.291359374969,
      "v": 127
    },
    {
      "midi": 64,
      "hit": false,
      "t": 215379.07523437525,
      "d": 76.95857812499162,
      "v": 121
    },
    {
      "midi": 40,
      "hit": false,
      "t": 215598.29057812522,
      "d": 130.5963749999937,
      "v": 127
    },
    {
      "midi": 64,
      "hit": false,
      "t": 215600.62265625023,
      "d": 102.61143749998882,
      "v": 127
    },
    {
      "midi": 71,
      "hit": false,
      "t": 215600.62265625023,
      "d": 128.26429687498603,
      "v": 127
    },
    {
      "midi": 76,
      "hit": false,
      "t": 215600.62265625023,
      "d": 128.26429687498603,
      "v": 127
    },
    {
      "midi": 76,
      "hit": false,
      "t": 215824.5021562502,
      "d": 326.49093749999884,
      "v": 127
    },
    {
      "midi": 71,
      "hit": false,
      "t": 215826.83423437522,
      "d": 345.1475625000021,
      "v": 127
    },
    {
      "midi": 64,
      "hit": false,
      "t": 215826.83423437522,
      "d": 401.1174375000119,
      "v": 127
    },
    {
      "midi": 40,
      "hit": false,
      "t": 215826.83423437522,
      "d": 818.5594218750193,
      "v": 127
    },
    {
      "midi": 52,
      "hit": false,
      "t": 216272.26115625023,
      "d": 174.90585937499418,
      "v": 127
    },
    {
      "midi": 60,
      "hit": false,
      "t": 216722.35223437523,
      "d": 116.60390625000582,
      "v": 127
    },
    {
      "midi": 45,
      "hit": false,
      "t": 216722.35223437523,
      "d": 135.26053125000908,
      "v": 127
    },
    {
      "midi": 64,
      "hit": false,
      "t": 216722.35223437523,
      "d": 135.26053125000908,
      "v": 127
    },
    {
      "midi": 69,
      "hit": false,
      "t": 216722.35223437523,
      "d": 137.59260937501676,
      "v": 127
    },
    {
      "midi": 45,
      "hit": false,
      "t": 216943.89965625023,
      "d": 104.94351562499651,
      "v": 127
    },
    {
      "midi": 60,
      "hit": false,
      "t": 216943.89965625023,
      "d": 121.26806249999208,
      "v": 127
    },
    {
      "midi": 64,
      "hit": false,
      "t": 216943.89965625023,
      "d": 121.26806249999208,
      "v": 127
    },
    {
      "midi": 69,
      "hit": false,
      "t": 216946.23173437524,
      "d": 121.26806249999208,
      "v": 127
    },
    {
      "midi": 45,
      "hit": false,
      "t": 217167.77915625024,
      "d": 128.26429687501513,
      "v": 127
    },
    {
      "midi": 60,
      "hit": false,
      "t": 217170.11123437525,
      "d": 100.27935937501024,
      "v": 127
    },
    {
      "midi": 64,
      "hit": false,
      "t": 217170.11123437525,
      "d": 100.27935937501024,
      "v": 127
    },
    {
      "midi": 69,
      "hit": false,
      "t": 217170.11123437525,
      "d": 102.61143750001793,
      "v": 127
    },
    {
      "midi": 60,
      "hit": false,
      "t": 217393.99073437526,
      "d": 93.2831249999872,
      "v": 127
    },
    {
      "midi": 64,
      "hit": false,
      "t": 217393.99073437526,
      "d": 100.27935937498114,
      "v": 127
    },
    {
      "midi": 45,
      "hit": false,
      "t": 217393.99073437526,
      "d": 118.9359843749844,
      "v": 127
    },
    {
      "midi": 69,
      "hit": false,
      "t": 217393.99073437526,
      "d": 121.26806249999208,
      "v": 127
    },
    {
      "midi": 60,
      "hit": false,
      "t": 217617.87023437524,
      "d": 1063.4276250000112,
      "v": 127
    },
    {
      "midi": 64,
      "hit": false,
      "t": 217617.87023437524,
      "d": 1581.1489687499998,
      "v": 127
    },
    {
      "midi": 69,
      "hit": false,
      "t": 217617.87023437524,
      "d": 1581.1489687499998,
      "v": 127
    },
    {
      "midi": 45,
      "hit": false,
      "t": 217617.87023437524,
      "d": 2495.323593749985,
      "v": 127
    },
    {
      "midi": 60,
      "hit": false,
      "t": 218734.93565625025,
      "d": 492.0684843749914,
      "v": 127
    },
    {
      "midi": 57,
      "hit": false,
      "t": 219182.69465625024,
      "d": 762.5895468749804,
      "v": 127
    },
    {
      "midi": 59,
      "hit": false,
      "t": 219408.90623437523,
      "d": 181.90209374998813,
      "v": 99
    },
    {
      "midi": 64,
      "hit": false,
      "t": 219408.90623437523,
      "d": 783.5782499999914,
      "v": 127
    },
    {
      "midi": 60,
      "hit": false,
      "t": 219630.45365625023,
      "d": 587.6836874999863,
      "v": 127
    },
    {
      "midi": 57,
      "hit": false,
      "t": 220080.54473437523,
      "d": 144.5888437499816,
      "v": 127
    },
    {
      "midi": 62,
      "hit": false,
      "t": 220304.4242343752,
      "d": 729.9404531249893,
      "v": 127
    },
    {
      "midi": 59,
      "hit": false,
      "t": 220304.4242343752,
      "d": 2364.727218749991,
      "v": 115
    },
    {
      "midi": 55,
      "hit": false,
      "t": 220304.4242343752,
      "d": 2523.3085312499898,
      "v": 127
    },
    {
      "midi": 62,
      "hit": false,
      "t": 221869.2486562502,
      "d": 949.155796875013,
      "v": 127
    },
    {
      "midi": 67,
      "hit": false,
      "t": 221978.8563281252,
      "d": 398.7853593750042,
      "v": 127
    },
    {
      "midi": 72,
      "hit": false,
      "t": 222095.4602343752,
      "d": 1438.8922031249676,
      "v": 127
    },
    {
      "midi": 71,
      "hit": false,
      "t": 222317.0076562502,
      "d": 354.4758750000037,
      "v": 127
    },
    {
      "midi": 69,
      "hit": false,
      "t": 222540.88715625022,
      "d": 242.53612499998417,
      "v": 127
    },
    {
      "midi": 67,
      "hit": false,
      "t": 222764.7666562502,
      "d": 764.9216249999881,
      "v": 127
    },
    {
      "midi": 62,
      "hit": false,
      "t": 222990.97823437522,
      "d": 361.4721093749977,
      "v": 127
    },
    {
      "midi": 59,
      "hit": false,
      "t": 223212.52565625022,
      "d": 494.40056249996996,
      "v": 116
    },
    {
      "midi": 62,
      "hit": false,
      "t": 223436.4051562502,
      "d": 172.5737812499865,
      "v": 127
    },
    {
      "midi": 57,
      "hit": false,
      "t": 223662.6167343752,
      "d": 97.94728125000256,
      "v": 127
    },
    {
      "midi": 69,
      "hit": false,
      "t": 223884.1641562502,
      "d": 1585.8131250000151,
      "v": 127
    },
    {
      "midi": 60,
      "hit": false,
      "t": 223886.4962343752,
      "d": 1518.182859374996,
      "v": 127
    },
    {
      "midi": 65,
      "hit": false,
      "t": 223886.4962343752,
      "d": 1553.1640312499949,
      "v": 127
    },
    {
      "midi": 53,
      "hit": false,
      "t": 224555.8026562502,
      "d": 1774.7114531249972,
      "v": 127
    },
    {
      "midi": 41,
      "hit": false,
      "t": 224779.6821562502,
      "d": 2499.9877500000002,
      "v": 127
    },
    {
      "midi": 67,
      "hit": false,
      "t": 225899.0796562502,
      "d": 118.9359843750135,
      "v": 127
    },
    {
      "midi": 72,
      "hit": false,
      "t": 225899.0796562502,
      "d": 979.4728124999965,
      "v": 127
    },
    {
      "midi": 69,
      "hit": false,
      "t": 226008.6873281252,
      "d": 139.92468749999534,
      "v": 127
    },
    {
      "midi": 67,
      "hit": false,
      "t": 226125.2912343752,
      "d": 223.8794999999809,
      "v": 127
    },
    {
      "midi": 65,
      "hit": false,
      "t": 226346.83865625018,
      "d": 527.0496562500193,
      "v": 127
    },
    {
      "midi": 53,
      "hit": false,
      "t": 226794.5976562502,
      "d": 576.023296875006,
      "v": 127
    },
    {
      "midi": 72,
      "hit": false,
      "t": 227018.47715625018,
      "d": 375.46457812501467,
      "v": 127
    },
    {
      "midi": 69,
      "hit": false,
      "t": 227018.47715625018,
      "d": 396.4532812500256,
      "v": 127
    },
    {
      "midi": 71,
      "hit": false,
      "t": 227020.8092343752,
      "d": 25.652859374997206,
      "v": 111
    },
    {
      "midi": 65,
      "hit": false,
      "t": 227242.3566562502,
      "d": 116.60390625000582,
      "v": 127
    },
    {
      "midi": 52,
      "hit": false,
      "t": 227468.5682343752,
      "d": 107.27559375000419,
      "v": 127
    },
    {
      "midi": 68,
      "hit": false,
      "t": 227468.5682343752,
      "d": 135.26053125000908,
      "v": 127
    },
    {
      "midi": 64,
      "hit": false,
      "t": 227468.5682343752,
      "d": 137.59260937501676,
      "v": 127
    },
    {
      "midi": 71,
      "hit": false,
      "t": 227468.5682343752,
      "d": 137.59260937501676,
      "v": 119
    },
    {
      "midi": 52,
      "hit": false,
      "t": 227690.11565625021,
      "d": 326.49093749999884,
      "v": 127
    },
    {
      "midi": 64,
      "hit": false,
      "t": 227690.11565625021,
      "d": 326.49093749999884,
      "v": 127
    },
    {
      "midi": 71,
      "hit": false,
      "t": 227690.11565625021,
      "d": 345.1475625000021,
      "v": 123
    },
    {
      "midi": 68,
      "hit": false,
      "t": 227692.44773437522,
      "d": 326.49093749999884,
      "v": 127
    },
    {
      "midi": 52,
      "hit": false,
      "t": 228135.54257812523,
      "d": 111.93975000001956,
      "v": 127
    },
    {
      "midi": 64,
      "hit": false,
      "t": 228137.87465625023,
      "d": 109.60767187501187,
      "v": 127
    },
    {
      "midi": 68,
      "hit": false,
      "t": 228137.87465625023,
      "d": 109.60767187501187,
      "v": 127
    },
    {
      "midi": 71,
      "hit": false,
      "t": 228137.87465625023,
      "d": 111.93975000001956,
      "v": 127
    },
    {
      "midi": 52,
      "hit": false,
      "t": 228361.75415625024,
      "d": 352.14379687496694,
      "v": 127
    },
    {
      "midi": 68,
      "hit": false,
      "t": 228364.08623437525,
      "d": 137.59260937498766,
      "v": 127
    },
    {
      "midi": 71,
      "hit": false,
      "t": 228364.08623437525,
      "d": 144.5888437499816,
      "v": 127
    },
    {
      "midi": 64,
      "hit": false,
      "t": 228364.08623437525,
      "d": 345.147562499973,
      "v": 127
    },
    {
      "midi": 71,
      "hit": false,
      "t": 228809.5131562502,
      "d": 46.64156250000815,
      "v": 117
    },
    {
      "midi": 52,
      "hit": false,
      "t": 228809.5131562502,
      "d": 83.95481250001467,
      "v": 101
    },
    {
      "midi": 64,
      "hit": false,
      "t": 228809.5131562502,
      "d": 83.95481250001467,
      "v": 120
    },
    {
      "midi": 76,
      "hit": false,
      "t": 228809.5131562502,
      "d": 86.28689062502235,
      "v": 125
    },
    {
      "midi": 40,
      "hit": false,
      "t": 228811.8452343752,
      "d": 51.30571874999441,
      "v": 115
    },
    {
      "midi": 64,
      "hit": false,
      "t": 229033.39265625022,
      "d": 319.4947031250049,
      "v": 127
    },
    {
      "midi": 52,
      "hit": false,
      "t": 229035.72473437522,
      "d": 284.51353125000605,
      "v": 127
    },
    {
      "midi": 71,
      "hit": false,
      "t": 229035.72473437522,
      "d": 321.82678124998347,
      "v": 127
    },
    {
      "midi": 76,
      "hit": false,
      "t": 229035.72473437522,
      "d": 321.82678124998347,
      "v": 127
    },
    {
      "midi": 40,
      "hit": false,
      "t": 229035.72473437522,
      "d": 335.81924999997136,
      "v": 127
    },
    {
      "midi": 64,
      "hit": false,
      "t": 229481.1516562502,
      "d": 321.82678124998347,
      "v": 127
    },
    {
      "midi": 52,
      "hit": false,
      "t": 229483.48373437522,
      "d": 249.53235937500722,
      "v": 127
    },
    {
      "midi": 40,
      "hit": false,
      "t": 229483.48373437522,
      "d": 284.51353125000605,
      "v": 127
    },
    {
      "midi": 76,
      "hit": false,
      "t": 229483.48373437522,
      "d": 298.50599999999395,
      "v": 127
    },
    {
      "midi": 71,
      "hit": false,
      "t": 229483.48373437522,
      "d": 314.8305468749895,
      "v": 127
    },
    {
      "midi": 52,
      "hit": false,
      "t": 229928.9106562502,
      "d": 270.52106249998906,
      "v": 127
    },
    {
      "midi": 46,
      "hit": false,
      "t": 229931.2427343752,
      "d": 4.664156249986263,
      "v": 104
    },
    {
      "midi": 64,
      "hit": false,
      "t": 229931.2427343752,
      "d": 265.8569062499737,
      "v": 127
    },
    {
      "midi": 76,
      "hit": false,
      "t": 229931.2427343752,
      "d": 265.8569062499737,
      "v": 127
    },
    {
      "midi": 40,
      "hit": false,
      "t": 229931.2427343752,
      "d": 282.18145312496927,
      "v": 127
    },
    {
      "midi": 71,
      "hit": false,
      "t": 229931.2427343752,
      "d": 282.18145312496927,
      "v": 127
    },
    {
      "midi": 71,
      "hit": false,
      "t": 230376.6696562502,
      "d": 233.20781250001164,
      "v": 127
    },
    {
      "midi": 40,
      "hit": false,
      "t": 230376.6696562502,
      "d": 333.4871718750219,
      "v": 127
    },
    {
      "midi": 76,
      "hit": false,
      "t": 230379.0017343752,
      "d": 237.8719687499979,
      "v": 127
    },
    {
      "midi": 52,
      "hit": false,
      "t": 230379.0017343752,
      "d": 300.83807812500163,
      "v": 127
    },
    {
      "midi": 64,
      "hit": false,
      "t": 230379.0017343752,
      "d": 300.83807812500163,
      "v": 127
    },
    {
      "midi": 45,
      "hit": false,
      "t": 231050.6402343752,
      "d": 109.60767187501187,
      "v": 127
    },
    {
      "midi": 60,
      "hit": false,
      "t": 231050.6402343752,
      "d": 128.26429687501513,
      "v": 127
    },
    {
      "midi": 64,
      "hit": false,
      "t": 231050.6402343752,
      "d": 128.26429687501513,
      "v": 127
    },
    {
      "midi": 69,
      "hit": false,
      "t": 231050.6402343752,
      "d": 130.59637500002282,
      "v": 127
    },
    {
      "midi": 45,
      "hit": false,
      "t": 231274.5197343752,
      "d": 109.60767187501187,
      "v": 127
    },
    {
      "midi": 64,
      "hit": false,
      "t": 231274.5197343752,
      "d": 114.27182812502724,
      "v": 127
    },
    {
      "midi": 60,
      "hit": false,
      "t": 231276.85181250022,
      "d": 109.60767187501187,
      "v": 127
    },
    {
      "midi": 69,
      "hit": false,
      "t": 231276.85181250022,
      "d": 111.93975000001956,
      "v": 127
    },
    {
      "midi": 45,
      "hit": false,
      "t": 231498.39923437525,
      "d": 100.27935937501024,
      "v": 127
    },
    {
      "midi": 60,
      "hit": false,
      "t": 231498.39923437525,
      "d": 116.60390625000582,
      "v": 127
    },
    {
      "midi": 64,
      "hit": false,
      "t": 231498.39923437525,
      "d": 125.93221875000745,
      "v": 127
    },
    {
      "midi": 69,
      "hit": false,
      "t": 231500.73131250025,
      "d": 116.60390625000582,
      "v": 127
    },
    {
      "midi": 60,
      "hit": false,
      "t": 231722.27873437526,
      "d": 114.27182812499814,
      "v": 127
    },
    {
      "midi": 64,
      "hit": false,
      "t": 231722.27873437526,
      "d": 114.27182812499814,
      "v": 127
    },
    {
      "midi": 69,
      "hit": false,
      "t": 231722.27873437526,
      "d": 114.27182812499814,
      "v": 127
    },
    {
      "midi": 45,
      "hit": false,
      "t": 231722.27873437526,
      "d": 116.60390625000582,
      "v": 127
    },
    {
      "midi": 64,
      "hit": false,
      "t": 231946.15823437527,
      "d": 573.6912187500275,
      "v": 127
    },
    {
      "midi": 69,
      "hit": false,
      "t": 231946.15823437527,
      "d": 573.6912187500275,
      "v": 127
    },
    {
      "midi": 45,
      "hit": false,
      "t": 231946.15823437527,
      "d": 1275.646734375041,
      "v": 127
    },
    {
      "midi": 60,
      "hit": false,
      "t": 231948.49031250027,
      "d": 534.0458906250133,
      "v": 127
    }
  ]
}