{
  "jsonPath": "Soul/Classic Soul/William Bell/ill-show-you-lp-version.json",
  "path": "Soul\\Classic Soul\\William Bell\\Ill Show You (LP Version).mid",
  "name": "Ill Show You (LP Version)",
  "difficulty": "Advanced",
  "bpm": 58.00004253336452,
  "notes": [
    {
      "midi": 62,
      "hit": false,
      "t": 4800,
      "d": 620,
      "v": 101
    },
    {
      "midi": 58,
      "hit": false,
      "t": 4800,
      "d": 660,
      "v": 89
    },
    {
      "midi": 46,
      "hit": false,
      "t": 4800,
      "d": 4490,
      "v": 75
    },
    {
      "midi": 53,
      "hit": false,
      "t": 5400,
      "d": 640,
      "v": 86
    },
    {
      "midi": 62,
      "hit": false,
      "t": 6000,
      "d": 610,
      "v": 92
    },
    {
      "midi": 58,
      "hit": false,
      "t": 6000,
      "d": 630,
      "v": 84
    },
    {
      "midi": 53,
      "hit": false,
      "t": 6600,
      "d": 1390,
      "v": 87
    },
    {
      "midi": 62,
      "hit": false,
      "t": 7200,
      "d": 550,
      "v": 105
    },
    {
      "midi": 58,
      "hit": false,
      "t": 7200,
      "d": 780,
      "v": 81
    },
    {
      "midi": 60,
      "hit": false,
      "t": 7800,
      "d": 210,
      "v": 99
    },
    {
      "midi": 60,
      "hit": false,
      "t": 8400,
      "d": 520,
      "v": 84
    },
    {
      "midi": 53,
      "hit": false,
      "t": 8400,
      "d": 660,
      "v": 83
    },
    {
      "midi": 58,
      "hit": false,
      "t": 9000,
      "d": 140,
      "v": 89
    },
    {
      "midi": 55,
      "hit": false,
      "t": 9600,
      "d": 580,
      "v": 99
    },
    {
      "midi": 58,
      "hit": false,
      "t": 9600,
      "d": 630,
      "v": 97
    },
    {
      "midi": 39,
      "hit": false,
      "t": 9600,
      "d": 2310,
      "v": 95
    },
    {
      "midi": 51,
      "hit": false,
      "t": 10200,
      "d": 660,
      "v": 90
    },
    {
      "midi": 55,
      "hit": false,
      "t": 10800,
      "d": 570,
      "v": 93
    },
    {
      "midi": 58,
      "hit": false,
      "t": 10800,
      "d": 680,
      "v": 101
    },
    {
      "midi": 51,
      "hit": false,
      "t": 11400,
      "d": 120,
      "v": 85
    },
    {
      "midi": 53,
      "hit": false,
      "t": 12000,
      "d": 460,
      "v": 85
    },
    {
      "midi": 57,
      "hit": false,
      "t": 12000,
      "d": 470,
      "v": 103
    },
    {
      "midi": 60,
      "hit": false,
      "t": 12000,
      "d": 470,
      "v": 99
    },
    {
      "midi": 41,
      "hit": false,
      "t": 12000,
      "d": 2020,
      "v": 101
    },
    {
      "midi": 53,
      "hit": false,
      "t": 12600,
      "d": 270,
      "v": 94
    },
    {
      "midi": 57,
      "hit": false,
      "t": 12900,
      "d": 230,
      "v": 112
    },
    {
      "midi": 60,
      "hit": false,
      "t": 13200,
      "d": 370,
      "v": 108
    },
    {
      "midi": 57,
      "hit": false,
      "t": 13500,
      "d": 260,
      "v": 98
    },
    {
      "midi": 53,
      "hit": false,
      "t": 13800,
      "d": 400,
      "v": 102
    },
    {
      "midi": 58,
      "hit": false,
      "t": 14400,
      "d": 550,
      "v": 101
    },
    {
      "midi": 62,
      "hit": false,
      "t": 14400,
      "d": 570,
      "v": 114
    },
    {
      "midi": 46,
      "hit": false,
      "t": 14400,
      "d": 4600,
      "v": 95
    },
    {
      "midi": 53,
      "hit": false,
      "t": 15000,
      "d": 630,
      "v": 79
    },
    {
      "midi": 58,
      "hit": false,
      "t": 15600,
      "d": 600,
      "v": 91
    },
    {
      "midi": 62,
      "hit": false,
      "t": 15600,
      "d": 610,
      "v": 106
    },
    {
      "midi": 53,
      "hit": false,
      "t": 16200,
      "d": 1400,
      "v": 92
    },
    {
      "midi": 62,
      "hit": false,
      "t": 16800,
      "d": 600,
      "v": 112
    },
    {
      "midi": 58,
      "hit": false,
      "t": 16800,
      "d": 810,
      "v": 96
    },
    {
      "midi": 60,
      "hit": false,
      "t": 17400,
      "d": 200,
      "v": 98
    },
    {
      "midi": 60,
      "hit": false,
      "t": 18000,
      "d": 580,
      "v": 106
    },
    {
      "midi": 53,
      "hit": false,
      "t": 18000,
      "d": 720,
      "v": 99
    },
    {
      "midi": 58,
      "hit": false,
      "t": 18600,
      "d": 170,
      "v": 103
    },
    {
      "midi": 55,
      "hit": false,
      "t": 19200,
      "d": 630,
      "v": 108
    },
    {
      "midi": 58,
      "hit": false,
      "t": 19200,
      "d": 660,
      "v": 103
    },
    {
      "midi": 39,
      "hit": false,
      "t": 19200,
      "d": 2270,
      "v": 100
    },
    {
      "midi": 51,
      "hit": false,
      "t": 19800,
      "d": 580,
      "v": 91
    },
    {
      "midi": 55,
      "hit": false,
      "t": 20400,
      "d": 560,
      "v": 103
    },
    {
      "midi": 58,
      "hit": false,
      "t": 20400,
      "d": 660,
      "v": 103
    },
    {
      "midi": 51,
      "hit": false,
      "t": 21000,
      "d": 110,
      "v": 77
    },
    {
      "midi": 53,
      "hit": false,
      "t": 21600,
      "d": 430,
      "v": 75
    },
    {
      "midi": 60,
      "hit": false,
      "t": 21600,
      "d": 480,
      "v": 103
    },
    {
      "midi": 57,
      "hit": false,
      "t": 21600,
      "d": 490,
      "v": 106
    },
    {
      "midi": 41,
      "hit": false,
      "t": 21600,
      "d": 1930,
      "v": 101
    },
    {
      "midi": 53,
      "hit": false,
      "t": 22200,
      "d": 290,
      "v": 81
    },
    {
      "midi": 57,
      "hit": false,
      "t": 22500,
      "d": 280,
      "v": 101
    },
    {
      "midi": 60,
      "hit": false,
      "t": 22800,
      "d": 320,
      "v": 103
    },
    {
      "midi": 57,
      "hit": false,
      "t": 23100,
      "d": 280,
      "v": 93
    },
    {
      "midi": 53,
      "hit": false,
      "t": 23400,
      "d": 140,
      "v": 97
    },
    {
      "midi": 58,
      "hit": false,
      "t": 24000,
      "d": 550,
      "v": 103
    },
    {
      "midi": 62,
      "hit": false,
      "t": 24000,
      "d": 590,
      "v": 105
    },
    {
      "midi": 46,
      "hit": false,
      "t": 24000,
      "d": 2090,
      "v": 98
    },
    {
      "midi": 53,
      "hit": false,
      "t": 24600,
      "d": 640,
      "v": 80
    },
    {
      "midi": 58,
      "hit": false,
      "t": 25200,
      "d": 610,
      "v": 74
    },
    {
      "midi": 62,
      "hit": false,
      "t": 25200,
      "d": 610,
      "v": 102
    },
    {
      "midi": 53,
      "hit": false,
      "t": 25800,
      "d": 190,
      "v": 84
    },
    {
      "midi": 58,
      "hit": false,
      "t": 26400,
      "d": 590,
      "v": 89
    },
    {
      "midi": 62,
      "hit": false,
      "t": 26400,
      "d": 590,
      "v": 103
    },
    {
      "midi": 43,
      "hit": false,
      "t": 26400,
      "d": 2350,
      "v": 112
    },
    {
      "midi": 55,
      "hit": false,
      "t": 27000,
      "d": 640,
      "v": 89
    },
    {
      "midi": 58,
      "hit": false,
      "t": 27600,
      "d": 610,
      "v": 83
    },
    {
      "midi": 62,
      "hit": false,
      "t": 27600,
      "d": 630,
      "v": 101
    },
    {
      "midi": 55,
      "hit": false,
      "t": 28200,
      "d": 220,
      "v": 103
    },
    {
      "midi": 58,
      "hit": false,
      "t": 28800,
      "d": 580,
      "v": 95
    },
    {
      "midi": 63,
      "hit": false,
      "t": 28800,
      "d": 590,
      "v": 96
    },
    {
      "midi": 39,
      "hit": false,
      "t": 28800,
      "d": 1900,
      "v": 91
    },
    {
      "midi": 55,
      "hit": false,
      "t": 29400,
      "d": 570,
      "v": 99
    },
    {
      "midi": 63,
      "hit": false,
      "t": 30000,
      "d": 550,
      "v": 98
    },
    {
      "midi": 58,
      "hit": false,
      "t": 30000,
      "d": 590,
      "v": 101
    },
    {
      "midi": 55,
      "hit": false,
      "t": 30600,
      "d": 160,
      "v": 95
    },
    {
      "midi": 58,
      "hit": false,
      "t": 31200,
      "d": 590,
      "v": 95
    },
    {
      "midi": 62,
      "hit": false,
      "t": 31200,
      "d": 590,
      "v": 103
    },
    {
      "midi": 46,
      "hit": false,
      "t": 31200,
      "d": 1870,
      "v": 88
    },
    {
      "midi": 53,
      "hit": false,
      "t": 31800,
      "d": 580,
      "v": 82
    },
    {
      "midi": 62,
      "hit": false,
      "t": 32400,
      "d": 550,
      "v": 105
    },
    {
      "midi": 58,
      "hit": false,
      "t": 32400,
      "d": 600,
      "v": 101
    },
    {
      "midi": 53,
      "hit": false,
      "t": 33000,
      "d": 190,
      "v": 91
    },
    {
      "midi": 62,
      "hit": false,
      "t": 33600,
      "d": 580,
      "v": 103
    },
    {
      "midi": 58,
      "hit": false,
      "t": 33600,
      "d": 620,
      "v": 98
    },
    {
      "midi": 46,
      "hit": false,
      "t": 33600,
      "d": 1970,
      "v": 86
    },
    {
      "midi": 53,
      "hit": false,
      "t": 34200,
      "d": 590,
      "v": 96
    },
    {
      "midi": 62,
      "hit": false,
      "t": 34800,
      "d": 610,
      "v": 102
    },
    {
      "midi": 58,
      "hit": false,
      "t": 34800,
      "d": 620,
      "v": 96
    },
    {
      "midi": 53,
      "hit": false,
      "t": 35400,
      "d": 170,
      "v": 85
    },
    {
      "midi": 58,
      "hit": false,
      "t": 36000,
      "d": 600,
      "v": 92
    },
    {
      "midi": 62,
      "hit": false,
      "t": 36000,
      "d": 610,
      "v": 93
    },
    {
      "midi": 43,
      "hit": false,
      "t": 36000,
      "d": 2200,
      "v": 110
    },
    {
      "midi": 55,
      "hit": false,
      "t": 36600,
      "d": 570,
      "v": 88
    },
    {
      "midi": 62,
      "hit": false,
      "t": 37200,
      "d": 600,
      "v": 99
    },
    {
      "midi": 58,
      "hit": false,
      "t": 37200,
      "d": 640,
      "v": 95
    },
    {
      "midi": 55,
      "hit": false,
      "t": 37800,
      "d": 210,
      "v": 88
    },
    {
      "midi": 62,
      "hit": false,
      "t": 38400,
      "d": 600,
      "v": 101
    },
    {
      "midi": 57,
      "hit": false,
      "t": 38400,
      "d": 610,
      "v": 118
    },
    {
      "midi": 38,
      "hit": false,
      "t": 38400,
      "d": 2290,
      "v": 91
    },
    {
      "midi": 53,
      "hit": false,
      "t": 39000,
      "d": 540,
      "v": 73
    },
    {
      "midi": 57,
      "hit": false,
      "t": 39600,
      "d": 620,
      "v": 102
    },
    {
      "midi": 62,
      "hit": false,
      "t": 39600,
      "d": 640,
      "v": 99
    },
    {
      "midi": 53,
      "hit": false,
      "t": 40200,
      "d": 240,
      "v": 97
    },
    {
      "midi": 63,
      "hit": false,
      "t": 40800,
      "d": 580,
      "v": 100
    },
    {
      "midi": 58,
      "hit": false,
      "t": 40800,
      "d": 610,
      "v": 95
    },
    {
      "midi": 39,
      "hit": false,
      "t": 40800,
      "d": 1130,
      "v": 104
    },
    {
      "midi": 55,
      "hit": false,
      "t": 41400,
      "d": 200,
      "v": 106
    },
    {
      "midi": 65,
      "hit": false,
      "t": 42000,
      "d": 550,
      "v": 96
    },
    {
      "midi": 60,
      "hit": false,
      "t": 42000,
      "d": 580,
      "v": 105
    },
    {
      "midi": 41,
      "hit": false,
      "t": 42000,
      "d": 1110,
      "v": 99
    },
    {
      "midi": 57,
      "hit": false,
      "t": 42600,
      "d": 180,
      "v": 97
    },
    {
      "midi": 62,
      "hit": false,
      "t": 43200,
      "d": 580,
      "v": 99
    },
    {
      "midi": 58,
      "hit": false,
      "t": 43200,
      "d": 600,
      "v": 98
    },
    {
      "midi": 46,
      "hit": false,
      "t": 43200,
      "d": 2170,
      "v": 76
    },
    {
      "midi": 53,
      "hit": false,
      "t": 43800,
      "d": 610,
      "v": 87
    },
    {
      "midi": 62,
      "hit": false,
      "t": 44400,
      "d": 580,
      "v": 102
    },
    {
      "midi": 58,
      "hit": false,
      "t": 44400,
      "d": 600,
      "v": 96
    },
    {
      "midi": 53,
      "hit": false,
      "t": 45000,
      "d": 160,
      "v": 88
    },
    {
      "midi": 62,
      "hit": false,
      "t": 45600,
      "d": 610,
      "v": 95
    },
    {
      "midi": 58,
      "hit": false,
      "t": 45600,
      "d": 640,
      "v": 86
    },
    {
      "midi": 43,
      "hit": false,
      "t": 45600,
      "d": 2200,
      "v": 99
    },
    {
      "midi": 55,
      "hit": false,
      "t": 46200,
      "d": 580,
      "v": 97
    },
    {
      "midi": 62,
      "hit": false,
      "t": 46800,
      "d": 580,
      "v": 99
    },
    {
      "midi": 58,
      "hit": false,
      "t": 46800,
      "d": 590,
      "v": 91
    },
    {
      "midi": 55,
      "hit": false,
      "t": 47400,
      "d": 260,
      "v": 102
    },
    {
      "midi": 58,
      "hit": false,
      "t": 48000,
      "d": 590,
      "v": 95
    },
    {
      "midi": 63,
      "hit": false,
      "t": 48000,
      "d": 640,
      "v": 97
    },
    {
      "midi": 39,
      "hit": false,
      "t": 48000,
      "d": 1950,
      "v": 101
    },
    {
      "midi": 55,
      "hit": false,
      "t": 48600,
      "d": 630,
      "v": 92
    },
    {
      "midi": 63,
      "hit": false,
      "t": 49200,
      "d": 570,
      "v": 98
    },
    {
      "midi": 58,
      "hit": false,
      "t": 49200,
      "d": 580,
      "v": 97
    },
    {
      "midi": 55,
      "hit": false,
      "t": 49800,
      "d": 180,
      "v": 98
    },
    {
      "midi": 58,
      "hit": false,
      "t": 50400,
      "d": 570,
      "v": 91
    },
    {
      "midi": 62,
      "hit": false,
      "t": 50400,
      "d": 570,
      "v": 96
    },
    {
      "midi": 46,
      "hit": false,
      "t": 50400,
      "d": 1950,
      "v": 86
    },
    {
      "midi": 53,
      "hit": false,
      "t": 51000,
      "d": 590,
      "v": 87
    },
    {
      "midi": 58,
      "hit": false,
      "t": 51600,
      "d": 580,
      "v": 104
    },
    {
      "midi": 62,
      "hit": false,
      "t": 51600,
      "d": 590,
      "v": 95
    },
    {
      "midi": 53,
      "hit": false,
      "t": 52200,
      "d": 140,
      "v": 91
    },
    {
      "midi": 62,
      "hit": false,
      "t": 52800,
      "d": 580,
      "v": 108
    },
    {
      "midi": 58,
      "hit": false,
      "t": 52800,
      "d": 600,
      "v": 101
    },
    {
      "midi": 46,
      "hit": false,
      "t": 52800,
      "d": 2040,
      "v": 91
    },
    {
      "midi": 53,
      "hit": false,
      "t": 53400,
      "d": 540,
      "v": 88
    },
    {
      "midi": 62,
      "hit": false,
      "t": 54000,
      "d": 540,
      "v": 97
    },
    {
      "midi": 58,
      "hit": false,
      "t": 54000,
      "d": 620,
      "v": 92
    },
    {
      "midi": 53,
      "hit": false,
      "t": 54600,
      "d": 180,
      "v": 98
    },
    {
      "midi": 62,
      "hit": false,
      "t": 55200,
      "d": 560,
      "v": 97
    },
    {
      "midi": 58,
      "hit": false,
      "t": 55200,
      "d": 590,
      "v": 91
    },
    {
      "midi": 43,
      "hit": false,
      "t": 55200,
      "d": 2300,
      "v": 114
    },
    {
      "midi": 55,
      "hit": false,
      "t": 55800,
      "d": 680,
      "v": 88
    },
    {
      "midi": 58,
      "hit": false,
      "t": 56400,
      "d": 640,
      "v": 98
    },
    {
      "midi": 62,
      "hit": false,
      "t": 56400,
      "d": 650,
      "v": 97
    },
    {
      "midi": 55,
      "hit": false,
      "t": 57000,
      "d": 160,
      "v": 88
    },
    {
      "midi": 57,
      "hit": false,
      "t": 57600,
      "d": 570,
      "v": 108
    },
    {
      "midi": 62,
      "hit": false,
      "t": 57600,
      "d": 580,
      "v": 96
    },
    {
      "midi": 38,
      "hit": false,
      "t": 57600,
      "d": 1840,
      "v": 91
    },
    {
      "midi": 53,
      "hit": false,
      "t": 58200,
      "d": 600,
      "v": 89
    },
    {
      "midi": 62,
      "hit": false,
      "t": 58800,
      "d": 590,
      "v": 101
    },
    {
      "midi": 57,
      "hit": false,
      "t": 58800,
      "d": 620,
      "v": 102
    },
    {
      "midi": 53,
      "hit": false,
      "t": 59400,
      "d": 140,
      "v": 101
    },
    {
      "midi": 58,
      "hit": false,
      "t": 60000,
      "d": 550,
      "v": 100
    },
    {
      "midi": 63,
      "hit": false,
      "t": 60000,
      "d": 590,
      "v": 100
    },
    {
      "midi": 39,
      "hit": false,
      "t": 60000,
      "d": 2170,
      "v": 93
    },
    {
      "midi": 55,
      "hit": false,
      "t": 60600,
      "d": 630,
      "v": 93
    },
    {
      "midi": 58,
      "hit": false,
      "t": 61200,
      "d": 600,
      "v": 98
    },
    {
      "midi": 63,
      "hit": false,
      "t": 61200,
      "d": 650,
      "v": 103
    },
    {
      "midi": 55,
      "hit": false,
      "t": 61800,
      "d": 190,
      "v": 99
    },
    {
      "midi": 27,
      "hit": false,
      "t": 62100,
      "d": 130,
      "v": 87
    },
    {
      "midi": 58,
      "hit": false,
      "t": 62400,
      "d": 550,
      "v": 106
    },
    {
      "midi": 63,
      "hit": false,
      "t": 62400,
      "d": 560,
      "v": 104
    },
    {
      "midi": 39,
      "hit": false,
      "t": 62400,
      "d": 2070,
      "v": 92
    },
    {
      "midi": 27,
      "hit": false,
      "t": 62400,
      "d": 2210,
      "v": 107
    },
    {
      "midi": 55,
      "hit": false,
      "t": 62430,
      "d": 1060,
      "v": 80
    },
    {
      "midi": 58,
      "hit": false,
      "t": 62430,
      "d": 1060,
      "v": 74
    },
    {
      "midi": 63,
      "hit": false,
      "t": 62430,
      "d": 1070,
      "v": 78
    },
    {
      "midi": 39,
      "hit": false,
      "t": 62430,
      "d": 1570,
      "v": 71
    },
    {
      "midi": 55,
      "hit": false,
      "t": 63000,
      "d": 530,
      "v": 90
    },
    {
      "midi": 63,
      "hit": false,
      "t": 63600,
      "d": 610,
      "v": 101
    },
    {
      "midi": 58,
      "hit": false,
      "t": 63600,
      "d": 640,
      "v": 100
    },
    {
      "midi": 55,
      "hit": false,
      "t": 63630,
      "d": 640,
      "v": 62
    },
    {
      "midi": 58,
      "hit": false,
      "t": 63630,
      "d": 670,
      "v": 66
    },
    {
      "midi": 63,
      "hit": false,
      "t": 63630,
      "d": 690,
      "v": 66
    },
    {
      "midi": 55,
      "hit": false,
      "t": 64200,
      "d": 190,
      "v": 93
    },
    {
      "midi": 39,
      "hit": false,
      "t": 64230,
      "d": 450,
      "v": 63
    },
    {
      "midi": 58,
      "hit": false,
      "t": 64530,
      "d": 110,
      "v": 67
    },
    {
      "midi": 63,
      "hit": false,
      "t": 64530,
      "d": 110,
      "v": 64
    },
    {
      "midi": 55,
      "hit": false,
      "t": 64530,
      "d": 130,
      "v": 74
    },
    {
      "midi": 63,
      "hit": false,
      "t": 64800,
      "d": 530,
      "v": 96
    },
    {
      "midi": 60,
      "hit": false,
      "t": 64800,
      "d": 570,
      "v": 114
    },
    {
      "midi": 36,
      "hit": false,
      "t": 64800,
      "d": 1830,
      "v": 108
    },
    {
      "midi": 63,
      "hit": false,
      "t": 64830,
      "d": 1010,
      "v": 71
    },
    {
      "midi": 60,
      "hit": false,
      "t": 64830,
      "d": 1040,
      "v": 76
    },
    {
      "midi": 55,
      "hit": false,
      "t": 64830,
      "d": 1050,
      "v": 76
    },
    {
      "midi": 48,
      "hit": false,
      "t": 64830,
      "d": 1730,
      "v": 57
    },
    {
      "midi": 55,
      "hit": false,
      "t": 65400,
      "d": 640,
      "v": 92
    },
    {
      "midi": 63,
      "hit": false,
      "t": 66000,
      "d": 550,
      "v": 98
    },
    {
      "midi": 60,
      "hit": false,
      "t": 66000,
      "d": 600,
      "v": 108
    },
    {
      "midi": 55,
      "hit": false,
      "t": 66030,
      "d": 700,
      "v": 78
    },
    {
      "midi": 63,
      "hit": false,
      "t": 66030,
      "d": 700,
      "v": 69
    },
    {
      "midi": 60,
      "hit": false,
      "t": 66030,
      "d": 720,
      "v": 83
    },
    {
      "midi": 55,
      "hit": false,
      "t": 66600,
      "d": 150,
      "v": 91
    },
    {
      "midi": 36,
      "hit": false,
      "t": 66630,
      "d": 490,
      "v": 80
    },
    {
      "midi": 63,
      "hit": false,
      "t": 66930,
      "d": 50,
      "v": 51
    },
    {
      "midi": 60,
      "hit": false,
      "t": 66930,
      "d": 100,
      "v": 56
    },
    {
      "midi": 55,
      "hit": false,
      "t": 66930,
      "d": 110,
      "v": 66
    },
    {
      "midi": 53,
      "hit": false,
      "t": 67200,
      "d": 410,
      "v": 84
    },
    {
      "midi": 58,
      "hit": false,
      "t": 67200,
      "d": 560,
      "v": 101
    },
    {
      "midi": 62,
      "hit": false,
      "t": 67200,
      "d": 570,
      "v": 103
    },
    {
      "midi": 46,
      "hit": false,
      "t": 67200,
      "d": 3130,
      "v": 67
    },
    {
      "midi": 34,
      "hit": false,
      "t": 67200,
      "d": 4170,
      "v": 90
    },
    {
      "midi": 62,
      "hit": false,
      "t": 67230,
      "d": 1060,
      "v": 78
    },
    {
      "midi": 53,
      "hit": false,
      "t": 67230,
      "d": 1080,
      "v": 72
    },
    {
      "midi": 58,
      "hit": false,
      "t": 67230,
      "d": 1080,
      "v": 78
    },
    {
      "midi": 46,
      "hit": false,
      "t": 67230,
      "d": 1520,
      "v": 60
    },
    {
      "midi": 53,
      "hit": false,
      "t": 67800,
      "d": 510,
      "v": 84
    },
    {
      "midi": 62,
      "hit": false,
      "t": 68400,
      "d": 440,
      "v": 123
    },
    {
      "midi": 58,
      "hit": false,
      "t": 68400,
      "d": 470,
      "v": 101
    },
    {
      "midi": 53,
      "hit": false,
      "t": 68430,
      "d": 660,
      "v": 66
    },
    {
      "midi": 62,
      "hit": false,
      "t": 68430,
      "d": 680,
      "v": 70
    },
    {
      "midi": 58,
      "hit": false,
      "t": 68430,
      "d": 720,
      "v": 74
    },
    {
      "midi": 58,
      "hit": false,
      "t": 69000,
      "d": 140,
      "v": 91
    },
    {
      "midi": 53,
      "hit": false,
      "t": 69000,
      "d": 240,
      "v": 87
    },
    {
      "midi": 46,
      "hit": false,
      "t": 69030,
      "d": 360,
      "v": 60
    },
    {
      "midi": 53,
      "hit": false,
      "t": 69330,
      "d": 120,
      "v": 48
    },
    {
      "midi": 62,
      "hit": false,
      "t": 69330,
      "d": 130,
      "v": 58
    },
    {
      "midi": 58,
      "hit": false,
      "t": 69330,
      "d": 150,
      "v": 57
    },
    {
      "midi": 62,
      "hit": false,
      "t": 69600,
      "d": 530,
      "v": 102
    },
    {
      "midi": 58,
      "hit": false,
      "t": 69600,
      "d": 660,
      "v": 82
    },
    {
      "midi": 53,
      "hit": false,
      "t": 69600,
      "d": 740,
      "v": 93
    },
    {
      "midi": 62,
      "hit": false,
      "t": 69630,
      "d": 1060,
      "v": 83
    },
    {
      "midi": 53,
      "hit": false,
      "t": 69630,
      "d": 1070,
      "v": 74
    },
    {
      "midi": 58,
      "hit": false,
      "t": 69630,
      "d": 1070,
      "v": 74
    },
    {
      "midi": 46,
      "hit": false,
      "t": 69630,
      "d": 1580,
      "v": 71
    },
    {
      "midi": 60,
      "hit": false,
      "t": 70200,
      "d": 120,
      "v": 108
    },
    {
      "midi": 46,
      "hit": false,
      "t": 70800,
      "d": 400,
      "v": 95
    },
    {
      "midi": 60,
      "hit": false,
      "t": 70800,
      "d": 560,
      "v": 105
    },
    {
      "midi": 53,
      "hit": false,
      "t": 70800,
      "d": 660,
      "v": 93
    },
    {
      "midi": 53,
      "hit": false,
      "t": 70830,
      "d": 660,
      "v": 70
    },
    {
      "midi": 58,
      "hit": false,
      "t": 70830,
      "d": 690,
      "v": 71
    },
    {
      "midi": 62,
      "hit": false,
      "t": 70830,
      "d": 710,
      "v": 70
    },
    {
      "midi": 58,
      "hit": false,
      "t": 71400,
      "d": 140,
      "v": 95
    },
    {
      "midi": 46,
      "hit": false,
      "t": 71430,
      "d": 360,
      "v": 69
    },
    {
      "midi": 53,
      "hit": false,
      "t": 71730,
      "d": 70,
      "v": 51
    },
    {
      "midi": 58,
      "hit": false,
      "t": 71730,
      "d": 90,
      "v": 63
    },
    {
      "midi": 62,
      "hit": false,
      "t": 71730,
      "d": 150,
      "v": 59
    },
    {
      "midi": 58,
      "hit": false,
      "t": 72000,
      "d": 540,
      "v": 97
    },
    {
      "midi": 63,
      "hit": false,
      "t": 72000,
      "d": 570,
      "v": 104
    },
    {
      "midi": 39,
      "hit": false,
      "t": 72000,
      "d": 1820,
      "v": 84
    },
    {
      "midi": 27,
      "hit": false,
      "t": 72000,
      "d": 1840,
      "v": 95
    },
    {
      "midi": 55,
      "hit": false,
      "t": 72030,
      "d": 1060,
      "v": 78
    },
    {
      "midi": 58,
      "hit": false,
      "t": 72030,
      "d": 1060,
      "v": 71
    },
    {
      "midi": 63,
      "hit": false,
      "t": 72030,
      "d": 1070,
      "v": 78
    },
    {
      "midi": 39,
      "hit": false,
      "t": 72030,
      "d": 1550,
      "v": 69
    },
    {
      "midi": 55,
      "hit": false,
      "t": 72600,
      "d": 650,
      "v": 91
    },
    {
      "midi": 63,
      "hit": false,
      "t": 73200,
      "d": 570,
      "v": 100
    },
    {
      "midi": 58,
      "hit": false,
      "t": 73200,
      "d": 580,
      "v": 97
    },
    {
      "midi": 55,
      "hit": false,
      "t": 73230,
      "d": 640,
      "v": 74
    },
    {
      "midi": 58,
      "hit": false,
      "t": 73230,
      "d": 690,
      "v": 71
    },
    {
      "midi": 63,
      "hit": false,
      "t": 73230,
      "d": 720,
      "v": 67
    },
    {
      "midi": 55,
      "hit": false,
      "t": 73800,
      "d": 190,
      "v": 112
    },
    {
      "midi": 39,
      "hit": false,
      "t": 73830,
      "d": 410,
      "v": 74
    },
    {
      "midi": 58,
      "hit": false,
      "t": 74130,
      "d": 100,
      "v": 64
    },
    {
      "midi": 55,
      "hit": false,
      "t": 74130,
      "d": 120,
      "v": 74
    },
    {
      "midi": 63,
      "hit": false,
      "t": 74130,
      "d": 140,
      "v": 66
    },
    {
      "midi": 60,
      "hit": false,
      "t": 74400,
      "d": 580,
      "v": 110
    },
    {
      "midi": 63,
      "hit": false,
      "t": 74400,
      "d": 580,
      "v": 104
    },
    {
      "midi": 24,
      "hit": false,
      "t": 74400,
      "d": 1580,
      "v": 88
    },
    {
      "midi": 36,
      "hit": false,
      "t": 74400,
      "d": 1690,
      "v": 88
    },
    {
      "midi": 55,
      "hit": false,
      "t": 74430,
      "d": 990,
      "v": 78
    },
    {
      "midi": 60,
      "hit": false,
      "t": 74430,
      "d": 1000,
      "v": 80
    },
    {
      "midi": 63,
      "hit": false,
      "t": 74430,
      "d": 1060,
      "v": 71
    },
    {
      "midi": 36,
      "hit": false,
      "t": 74430,
      "d": 1540,
      "v": 78
    },
    {
      "midi": 55,
      "hit": false,
      "t": 75000,
      "d": 640,
      "v": 92
    },
    {
      "midi": 63,
      "hit": false,
      "t": 75600,
      "d": 570,
      "v": 91
    },
    {
      "midi": 60,
      "hit": false,
      "t": 75600,
      "d": 610,
      "v": 108
    },
    {
      "midi": 55,
      "hit": false,
      "t": 75630,
      "d": 710,
      "v": 76
    },
    {
      "midi": 60,
      "hit": false,
      "t": 75630,
      "d": 720,
      "v": 76
    },
    {
      "midi": 63,
      "hit": false,
      "t": 75630,
      "d": 740,
      "v": 41
    },
    {
      "midi": 55,
      "hit": false,
      "t": 76200,
      "d": 130,
      "v": 99
    },
    {
      "midi": 36,
      "hit": false,
      "t": 76230,
      "d": 530,
      "v": 78
    },
    {
      "midi": 36,
      "hit": false,
      "t": 76500,
      "d": 160,
      "v": 98
    },
    {
      "midi": 63,
      "hit": false,
      "t": 76530,
      "d": 60,
      "v": 51
    },
    {
      "midi": 60,
      "hit": false,
      "t": 76530,
      "d": 90,
      "v": 54
    },
    {
      "midi": 55,
      "hit": false,
      "t": 76530,
      "d": 110,
      "v": 63
    },
    {
      "midi": 58,
      "hit": false,
      "t": 76800,
      "d": 540,
      "v": 93
    },
    {
      "midi": 62,
      "hit": false,
      "t": 76800,
      "d": 540,
      "v": 105
    },
    {
      "midi": 41,
      "hit": false,
      "t": 76800,
      "d": 1490,
      "v": 90
    },
    {
      "midi": 29,
      "hit": false,
      "t": 76800,
      "d": 2990,
      "v": 68
    },
    {
      "midi": 41,
      "hit": false,
      "t": 76830,
      "d": 770,
      "v": 86
    },
    {
      "midi": 58,
      "hit": false,
      "t": 76830,
      "d": 930,
      "v": 93
    },
    {
      "midi": 53,
      "hit": false,
      "t": 76830,
      "d": 960,
      "v": 74
    },
    {
      "midi": 62,
      "hit": false,
      "t": 76830,
      "d": 970,
      "v": 68
    },
    {
      "midi": 53,
      "hit": false,
      "t": 77400,
      "d": 520,
      "v": 93
    },
    {
      "midi": 41,
      "hit": false,
      "t": 77730,
      "d": 1350,
      "v": 68
    },
    {
      "midi": 57,
      "hit": false,
      "t": 78000,
      "d": 560,
      "v": 99
    },
    {
      "midi": 60,
      "hit": false,
      "t": 78000,
      "d": 570,
      "v": 105
    },
    {
      "midi": 53,
      "hit": false,
      "t": 78030,
      "d": 1030,
      "v": 70
    },
    {
      "midi": 57,
      "hit": false,
      "t": 78030,
      "d": 1030,
      "v": 83
    },
    {
      "midi": 60,
      "hit": false,
      "t": 78030,
      "d": 1040,
      "v": 78
    },
    {
      "midi": 53,
      "hit": false,
      "t": 78600,
      "d": 180,
      "v": 96
    },
    {
      "midi": 41,
      "hit": false,
      "t": 78600,
      "d": 230,
      "v": 80
    },
    {
      "midi": 57,
      "hit": false,
      "t": 79200,
      "d": 580,
      "v": 112
    },
    {
      "midi": 60,
      "hit": false,
      "t": 79200,
      "d": 630,
      "v": 112
    },
    {
      "midi": 41,
      "hit": false,
      "t": 79200,
      "d": 760,
      "v": 83
    },
    {
      "midi": 57,
      "hit": false,
      "t": 79230,
      "d": 970,
      "v": 83
    },
    {
      "midi": 53,
      "hit": false,
      "t": 79230,
      "d": 1010,
      "v": 70
    },
    {
      "midi": 60,
      "hit": false,
      "t": 79230,
      "d": 1040,
      "v": 80
    },
    {
      "midi": 41,
      "hit": false,
      "t": 79230,
      "d": 1190,
      "v": 63
    },
    {
      "midi": 53,
      "hit": false,
      "t": 79800,
      "d": 150,
      "v": 96
    },
    {
      "midi": 62,
      "hit": false,
      "t": 80400,
      "d": 560,
      "v": 114
    },
    {
      "midi": 59,
      "hit": false,
      "t": 80400,
      "d": 590,
      "v": 110
    },
    {
      "midi": 31,
      "hit": false,
      "t": 80400,
      "d": 750,
      "v": 98
    },
    {
      "midi": 43,
      "hit": false,
      "t": 80400,
      "d": 800,
      "v": 93
    },
    {
      "midi": 43,
      "hit": false,
      "t": 80430,
      "d": 730,
      "v": 66
    },
    {
      "midi": 55,
      "hit": false,
      "t": 80430,
      "d": 760,
      "v": 76
    },
    {
      "midi": 59,
      "hit": false,
      "t": 80430,
      "d": 760,
      "v": 78
    },
    {
      "midi": 62,
      "hit": false,
      "t": 80430,
      "d": 770,
      "v": 66
    },
    {
      "midi": 55,
      "hit": false,
      "t": 81000,
      "d": 170,
      "v": 103
    },
    {
      "midi": 55,
      "hit": false,
      "t": 81330,
      "d": 90,
      "v": 66
    },
    {
      "midi": 62,
      "hit": false,
      "t": 81330,
      "d": 110,
      "v": 61
    },
    {
      "midi": 59,
      "hit": false,
      "t": 81330,
      "d": 130,
      "v": 66
    },
    {
      "midi": 43,
      "hit": false,
      "t": 81330,
      "d": 210,
      "v": 63
    },
    {
      "midi": 64,
      "hit": false,
      "t": 81600,
      "d": 480,
      "v": 108
    },
    {
      "midi": 57,
      "hit": false,
      "t": 81600,
      "d": 550,
      "v": 114
    },
    {
      "midi": 61,
      "hit": false,
      "t": 81600,
      "d": 660,
      "v": 89
    },
    {
      "midi": 45,
      "hit": false,
      "t": 81600,
      "d": 1660,
      "v": 89
    },
    {
      "midi": 33,
      "hit": false,
      "t": 81600,
      "d": 1810,
      "v": 105
    },
    {
      "midi": 57,
      "hit": false,
      "t": 81630,
      "d": 1070,
      "v": 80
    },
    {
      "midi": 61,
      "hit": false,
      "t": 81630,
      "d": 1070,
      "v": 74
    },
    {
      "midi": 64,
      "hit": false,
      "t": 81630,
      "d": 1070,
      "v": 78
    },
    {
      "midi": 45,
      "hit": false,
      "t": 81630,
      "d": 1570,
      "v": 83
    },
    {
      "midi": 52,
      "hit": false,
      "t": 82200,
      "d": 440,
      "v": 88
    },
    {
      "midi": 57,
      "hit": false,
      "t": 82800,
      "d": 540,
      "v": 116
    },
    {
      "midi": 61,
      "hit": false,
      "t": 82800,
      "d": 560,
      "v": 114
    },
    {
      "midi": 57,
      "hit": false,
      "t": 82830,
      "d": 660,
      "v": 86
    },
    {
      "midi": 61,
      "hit": false,
      "t": 82830,
      "d": 660,
      "v": 78
    },
    {
      "midi": 64,
      "hit": false,
      "t": 82830,
      "d": 670,
      "v": 72
    },
    {
      "midi": 52,
      "hit": false,
      "t": 83400,
      "d": 130,
      "v": 85
    },
    {
      "midi": 45,
      "hit": false,
      "t": 83430,
      "d": 450,
      "v": 74
    },
    {
      "midi": 64,
      "hit": false,
      "t": 83730,
      "d": 80,
      "v": 41
    },
    {
      "midi": 57,
      "hit": false,
      "t": 83730,
      "d": 120,
      "v": 65
    },
    {
      "midi": 61,
      "hit": false,
      "t": 83730,
      "d": 120,
      "v": 67
    },
    {
      "midi": 61,
      "hit": false,
      "t": 84000,
      "d": 580,
      "v": 101
    },
    {
      "midi": 57,
      "hit": false,
      "t": 84000,
      "d": 590,
      "v": 116
    },
    {
      "midi": 42,
      "hit": false,
      "t": 84000,
      "d": 1580,
      "v": 75
    },
    {
      "midi": 30,
      "hit": false,
      "t": 84000,
      "d": 1730,
      "v": 100
    },
    {
      "midi": 54,
      "hit": false,
      "t": 84030,
      "d": 900,
      "v": 69
    },
    {
      "midi": 61,
      "hit": false,
      "t": 84030,
      "d": 930,
      "v": 71
    },
    {
      "midi": 57,
      "hit": false,
      "t": 84030,
      "d": 950,
      "v": 78
    },
    {
      "midi": 42,
      "hit": false,
      "t": 84030,
      "d": 1450,
      "v": 66
    },
    {
      "midi": 54,
      "hit": false,
      "t": 84600,
      "d": 280,
      "v": 96
    },
    {
      "midi": 57,
      "hit": false,
      "t": 85200,
      "d": 550,
      "v": 110
    },
    {
      "midi": 61,
      "hit": false,
      "t": 85200,
      "d": 570,
      "v": 101
    },
    {
      "midi": 61,
      "hit": false,
      "t": 85230,
      "d": 660,
      "v": 78
    },
    {
      "midi": 54,
      "hit": false,
      "t": 85230,
      "d": 670,
      "v": 63
    },
    {
      "midi": 57,
      "hit": false,
      "t": 85230,
      "d": 680,
      "v": 86
    },
    {
      "midi": 54,
      "hit": false,
      "t": 85800,
      "d": 100,
      "v": 101
    },
    {
      "midi": 42,
      "hit": false,
      "t": 85830,
      "d": 460,
      "v": 85
    },
    {
      "midi": 61,
      "hit": false,
      "t": 86130,
      "d": 60,
      "v": 60
    },
    {
      "midi": 54,
      "hit": false,
      "t": 86130,
      "d": 100,
      "v": 50
    },
    {
      "midi": 57,
      "hit": false,
      "t": 86130,
      "d": 100,
      "v": 62
    },
    {
      "midi": 54,
      "hit": false,
      "t": 86400,
      "d": 580,
      "v": 93
    },
    {
      "midi": 57,
      "hit": false,
      "t": 86400,
      "d": 600,
      "v": 108
    },
    {
      "midi": 38,
      "hit": false,
      "t": 86400,
      "d": 1450,
      "v": 84
    },
    {
      "midi": 26,
      "hit": false,
      "t": 86400,
      "d": 1470,
      "v": 90
    },
    {
      "midi": 62,
      "hit": false,
      "t": 86430,
      "d": 980,
      "v": 72
    },
    {
      "midi": 54,
      "hit": false,
      "t": 86430,
      "d": 1040,
      "v": 58
    },
    {
      "midi": 57,
      "hit": false,
      "t": 86430,
      "d": 1070,
      "v": 74
    },
    {
      "midi": 38,
      "hit": false,
      "t": 86430,
      "d": 1530,
      "v": 80
    },
    {
      "midi": 50,
      "hit": false,
      "t": 87000,
      "d": 470,
      "v": 84
    },
    {
      "midi": 57,
      "hit": false,
      "t": 87600,
      "d": 590,
      "v": 114
    },
    {
      "midi": 54,
      "hit": false,
      "t": 87600,
      "d": 620,
      "v": 98
    },
    {
      "midi": 62,
      "hit": false,
      "t": 87630,
      "d": 610,
      "v": 70
    },
    {
      "midi": 54,
      "hit": false,
      "t": 87630,
      "d": 660,
      "v": 66
    },
    {
      "midi": 57,
      "hit": false,
      "t": 87630,
      "d": 690,
      "v": 80
    },
    {
      "midi": 50,
      "hit": false,
      "t": 88200,
      "d": 70,
      "v": 99
    },
    {
      "midi": 38,
      "hit": false,
      "t": 88230,
      "d": 470,
      "v": 56
    },
    {
      "midi": 54,
      "hit": false,
      "t": 88530,
      "d": 110,
      "v": 55
    },
    {
      "midi": 62,
      "hit": false,
      "t": 88530,
      "d": 120,
      "v": 54
    },
    {
      "midi": 52,
      "hit": false,
      "t": 88800,
      "d": 150,
      "v": 74
    },
    {
      "midi": 57,
      "hit": false,
      "t": 88800,
      "d": 180,
      "v": 105
    },
    {
      "midi": 61,
      "hit": false,
      "t": 88800,
      "d": 210,
      "v": 97
    },
    {
      "midi": 33,
      "hit": false,
      "t": 88800,
      "d": 1910,
      "v": 96
    },
    {
      "midi": 45,
      "hit": false,
      "t": 88800,
      "d": 1920,
      "v": 83
    },
    {
      "midi": 61,
      "hit": false,
      "t": 88830,
      "d": 1050,
      "v": 74
    },
    {
      "midi": 57,
      "hit": false,
      "t": 88830,
      "d": 1100,
      "v": 86
    },
    {
      "midi": 52,
      "hit": false,
      "t": 88830,
      "d": 1120,
      "v": 70
    },
    {
      "midi": 45,
      "hit": false,
      "t": 88830,
      "d": 1610,
      "v": 76
    },
    {
      "midi": 52,
      "hit": false,
      "t": 89100,
      "d": 260,
      "v": 91
    },
    {
      "midi": 57,
      "hit": false,
      "t": 89400,
      "d": 260,
      "v": 95
    },
    {
      "midi": 59,
      "hit": false,
      "t": 89700,
      "d": 140,
      "v": 95
    },
    {
      "midi": 52,
      "hit": false,
      "t": 90000,
      "d": 200,
      "v": 103
    },
    {
      "midi": 61,
      "hit": false,
      "t": 90000,
      "d": 200,
      "v": 101
    },
    {
      "midi": 52,
      "hit": false,
      "t": 90030,
      "d": 680,
      "v": 72
    },
    {
      "midi": 61,
      "hit": false,
      "t": 90030,
      "d": 680,
      "v": 71
    },
    {
      "midi": 57,
      "hit": false,
      "t": 90030,
      "d": 720,
      "v": 86
    },
    {
      "midi": 59,
      "hit": false,
      "t": 90300,
      "d": 300,
      "v": 110
    },
    {
      "midi": 57,
      "hit": false,
      "t": 90600,
      "d": 210,
      "v": 102
    },
    {
      "midi": 45,
      "hit": false,
      "t": 90630,
      "d": 360,
      "v": 76
    },
    {
      "midi": 52,
      "hit": false,
      "t": 90900,
      "d": 380,
      "v": 82
    },
    {
      "midi": 61,
      "hit": false,
      "t": 90930,
      "d": 80,
      "v": 63
    },
    {
      "midi": 52,
      "hit": false,
      "t": 90930,
      "d": 130,
      "v": 59
    },
    {
      "midi": 57,
      "hit": false,
      "t": 90930,
      "d": 130,
      "v": 70
    },
    {
      "midi": 57,
      "hit": false,
      "t": 91200,
      "d": 570,
      "v": 120
    },
    {
      "midi": 61,
      "hit": false,
      "t": 91200,
      "d": 580,
      "v": 101
    },
    {
      "midi": 33,
      "hit": false,
      "t": 91200,
      "d": 1850,
      "v": 88
    },
    {
      "midi": 45,
      "hit": false,
      "t": 91210,
      "d": 1500,
      "v": 88
    },
    {
      "midi": 52,
      "hit": false,
      "t": 91230,
      "d": 1060,
      "v": 66
    },
    {
      "midi": 61,
      "hit": false,
      "t": 91230,
      "d": 1060,
      "v": 74
    },
    {
      "midi": 57,
      "hit": false,
      "t": 91230,
      "d": 1080,
      "v": 78
    },
    {
      "midi": 45,
      "hit": false,
      "t": 91230,
      "d": 1580,
      "v": 70
    },
    {
      "midi": 52,
      "hit": false,
      "t": 91800,
      "d": 610,
      "v": 90
    },
    {
      "midi": 57,
      "hit": false,
      "t": 92400,
      "d": 550,
      "v": 103
    },
    {
      "midi": 61,
      "hit": false,
      "t": 92400,
      "d": 560,
      "v": 103
    },
    {
      "midi": 57,
      "hit": false,
      "t": 92430,
      "d": 690,
      "v": 80
    },
    {
      "midi": 61,
      "hit": false,
      "t": 92430,
      "d": 690,
      "v": 78
    },
    {
      "midi": 52,
      "hit": false,
      "t": 92430,
      "d": 710,
      "v": 78
    },
    {
      "midi": 45,
      "hit": false,
      "t": 93000,
      "d": 120,
      "v": 83
    },
    {
      "midi": 52,
      "hit": false,
      "t": 93000,
      "d": 170,
      "v": 102
    },
    {
      "midi": 45,
      "hit": false,
      "t": 93030,
      "d": 440,
      "v": 86
    },
    {
      "midi": 52,
      "hit": false,
      "t": 93330,
      "d": 120,
      "v": 54
    },
    {
      "midi": 57,
      "hit": false,
      "t": 93330,
      "d": 140,
      "v": 78
    },
    {
      "midi": 61,
      "hit": false,
      "t": 93330,
      "d": 160,
      "v": 64
    },
    {
      "midi": 61,
      "hit": false,
      "t": 93600,
      "d": 570,
      "v": 106
    },
    {
      "midi": 57,
      "hit": false,
      "t": 93600,
      "d": 600,
      "v": 116
    },
    {
      "midi": 42,
      "hit": false,
      "t": 93600,
      "d": 1450,
      "v": 86
    },
    {
      "midi": 30,
      "hit": false,
      "t": 93600,
      "d": 1620,
      "v": 84
    },
    {
      "midi": 54,
      "hit": false,
      "t": 93630,
      "d": 1010,
      "v": 61
    },
    {
      "midi": 61,
      "hit": false,
      "t": 93630,
      "d": 1010,
      "v": 66
    },
    {
      "midi": 57,
      "hit": false,
      "t": 93630,
      "d": 1050,
      "v": 74
    },
    {
      "midi": 42,
      "hit": false,
      "t": 93630,
      "d": 1550,
      "v": 71
    },
    {
      "midi": 54,
      "hit": false,
      "t": 94200,
      "d": 610,
      "v": 74
    },
    {
      "midi": 57,
      "hit": false,
      "t": 94800,
      "d": 600,
      "v": 112
    },
    {
      "midi": 61,
      "hit": false,
      "t": 94800,
      "d": 640,
      "v": 103
    },
    {
      "midi": 61,
      "hit": false,
      "t": 94830,
      "d": 630,
      "v": 71
    },
    {
      "midi": 54,
      "hit": false,
      "t": 94830,
      "d": 650,
      "v": 67
    },
    {
      "midi": 57,
      "hit": false,
      "t": 94830,
      "d": 720,
      "v": 80
    },
    {
      "midi": 54,
      "hit": false,
      "t": 95400,
      "d": 120,
      "v": 98
    },
    {
      "midi": 42,
      "hit": false,
      "t": 95430,
      "d": 430,
      "v": 85
    },
    {
      "midi": 30,
      "hit": false,
      "t": 95700,
      "d": 90,
      "v": 97
    },
    {
      "midi": 54,
      "hit": false,
      "t": 95730,
      "d": 100,
      "v": 57
    },
    {
      "midi": 57,
      "hit": false,
      "t": 95730,
      "d": 100,
      "v": 66
    },
    {
      "midi": 61,
      "hit": false,
      "t": 95730,
      "d": 120,
      "v": 64
    },
    {
      "midi": 56,
      "hit": false,
      "t": 96000,
      "d": 440,
      "v": 97
    },
    {
      "midi": 52,
      "hit": false,
      "t": 96000,
      "d": 590,
      "v": 106
    },
    {
      "midi": 61,
      "hit": false,
      "t": 96000,
      "d": 590,
      "v": 85
    },
    {
      "midi": 25,
      "hit": false,
      "t": 96000,
      "d": 1930,
      "v": 104
    },
    {
      "midi": 37,
      "hit": false,
      "t": 96000,
      "d": 1930,
      "v": 98
    },
    {
      "midi": 56,
      "hit": false,
      "t": 96030,
      "d": 1080,
      "v": 71
    },
    {
      "midi": 52,
      "hit": false,
      "t": 96030,
      "d": 1090,
      "v": 76
    },
    {
      "midi": 61,
      "hit": false,
      "t": 96030,
      "d": 1090,
      "v": 78
    },
    {
      "midi": 37,
      "hit": false,
      "t": 96030,
      "d": 1550,
      "v": 67
    },
    {
      "midi": 49,
      "hit": false,
      "t": 96600,
      "d": 360,
      "v": 72
    },
    {
      "midi": 56,
      "hit": false,
      "t": 97200,
      "d": 360,
      "v": 100
    },
    {
      "midi": 52,
      "hit": false,
      "t": 97200,
      "d": 530,
      "v": 102
    },
    {
      "midi": 61,
      "hit": false,
      "t": 97200,
      "d": 540,
      "v": 91
    },
    {
      "midi": 56,
      "hit": false,
      "t": 97230,
      "d": 610,
      "v": 74
    },
    {
      "midi": 61,
      "hit": false,
      "t": 97230,
      "d": 620,
      "v": 71
    },
    {
      "midi": 52,
      "hit": false,
      "t": 97230,
      "d": 630,
      "v": 65
    },
    {
      "midi": 49,
      "hit": false,
      "t": 97800,
      "d": 140,
      "v": 100
    },
    {
      "midi": 37,
      "hit": false,
      "t": 97830,
      "d": 350,
      "v": 67
    },
    {
      "midi": 52,
      "hit": false,
      "t": 98130,
      "d": 50,
      "v": 48
    },
    {
      "midi": 56,
      "hit": false,
      "t": 98130,
      "d": 60,
      "v": 58
    },
    {
      "midi": 61,
      "hit": false,
      "t": 98130,
      "d": 100,
      "v": 63
    },
    {
      "midi": 50,
      "hit": false,
      "t": 98400,
      "d": 370,
      "v": 82
    },
    {
      "midi": 54,
      "hit": false,
      "t": 98400,
      "d": 430,
      "v": 96
    },
    {
      "midi": 57,
      "hit": false,
      "t": 98400,
      "d": 470,
      "v": 95
    },
    {
      "midi": 26,
      "hit": false,
      "t": 98400,
      "d": 680,
      "v": 82
    },
    {
      "midi": 38,
      "hit": false,
      "t": 98400,
      "d": 740,
      "v": 83
    },
    {
      "midi": 38,
      "hit": false,
      "t": 98430,
      "d": 460,
      "v": 74
    },
    {
      "midi": 62,
      "hit": false,
      "t": 98430,
      "d": 640,
      "v": 78
    },
    {
      "midi": 54,
      "hit": false,
      "t": 98430,
      "d": 660,
      "v": 66
    },
    {
      "midi": 57,
      "hit": false,
      "t": 98430,
      "d": 660,
      "v": 72
    },
    {
      "midi": 50,
      "hit": false,
      "t": 99000,
      "d": 240,
      "v": 81
    },
    {
      "midi": 38,
      "hit": false,
      "t": 99030,
      "d": 500,
      "v": 63
    },
    {
      "midi": 54,
      "hit": false,
      "t": 99300,
      "d": 140,
      "v": 97
    },
    {
      "midi": 57,
      "hit": false,
      "t": 99330,
      "d": 50,
      "v": 70
    },
    {
      "midi": 62,
      "hit": false,
      "t": 99330,
      "d": 100,
      "v": 63
    },
    {
      "midi": 54,
      "hit": false,
      "t": 99330,
      "d": 130,
      "v": 63
    },
    {
      "midi": 52,
      "hit": false,
      "t": 99600,
      "d": 340,
      "v": 96
    },
    {
      "midi": 56,
      "hit": false,
      "t": 99600,
      "d": 360,
      "v": 104
    },
    {
      "midi": 59,
      "hit": false,
      "t": 99600,
      "d": 440,
      "v": 112
    },
    {
      "midi": 28,
      "hit": false,
      "t": 99600,
      "d": 560,
      "v": 96
    },
    {
      "midi": 40,
      "hit": false,
      "t": 99600,
      "d": 610,
      "v": 84
    },
    {
      "midi": 40,
      "hit": false,
      "t": 99630,
      "d": 470,
      "v": 78
    },
    {
      "midi": 64,
      "hit": false,
      "t": 99630,
      "d": 630,
      "v": 92
    },
    {
      "midi": 56,
      "hit": false,
      "t": 99630,
      "d": 660,
      "v": 71
    },
    {
      "midi": 59,
      "hit": false,
      "t": 99630,
      "d": 670,
      "v": 72
    },
    {
      "midi": 52,
      "hit": false,
      "t": 100200,
      "d": 220,
      "v": 81
    },
    {
      "midi": 40,
      "hit": false,
      "t": 100230,
      "d": 510,
      "v": 78
    },
    {
      "midi": 56,
      "hit": false,
      "t": 100500,
      "d": 110,
      "v": 91
    },
    {
      "midi": 59,
      "hit": false,
      "t": 100530,
      "d": 110,
      "v": 65
    },
    {
      "midi": 64,
      "hit": false,
      "t": 100530,
      "d": 120,
      "v": 74
    },
    {
      "midi": 56,
      "hit": false,
      "t": 100530,
      "d": 140,
      "v": 58
    },
    {
      "midi": 57,
      "hit": false,
      "t": 100800,
      "d": 520,
      "v": 120
    },
    {
      "midi": 61,
      "hit": false,
      "t": 100800,
      "d": 570,
      "v": 109
    },
    {
      "midi": 33,
      "hit": false,
      "t": 100800,
      "d": 1740,
      "v": 98
    },
    {
      "midi": 45,
      "hit": false,
      "t": 100800,
      "d": 1870,
      "v": 93
    },
    {
      "midi": 56,
      "hit": false,
      "t": 100830,
      "d": 30,
      "v": 67
    },
    {
      "midi": 61,
      "hit": false,
      "t": 100830,
      "d": 1050,
      "v": 69
    },
    {
      "midi": 52,
      "hit": false,
      "t": 100830,
      "d": 1090,
      "v": 63
    },
    {
      "midi": 57,
      "hit": false,
      "t": 100830,
      "d": 1090,
      "v": 86
    },
    {
      "midi": 45,
      "hit": false,
      "t": 100830,
      "d": 1580,
      "v": 74
    },
    {
      "midi": 52,
      "hit": false,
      "t": 101400,
      "d": 640,
      "v": 98
    },
    {
      "midi": 61,
      "hit": false,
      "t": 102000,
      "d": 560,
      "v": 100
    },
    {
      "midi": 57,
      "hit": false,
      "t": 102000,
      "d": 600,
      "v": 116
    },
    {
      "midi": 52,
      "hit": false,
      "t": 102030,
      "d": 650,
      "v": 68
    },
    {
      "midi": 57,
      "hit": false,
      "t": 102030,
      "d": 670,
      "v": 83
    },
    {
      "midi": 61,
      "hit": false,
      "t": 102030,
      "d": 670,
      "v": 71
    },
    {
      "midi": 52,
      "hit": false,
      "t": 102600,
      "d": 180,
      "v": 92
    },
    {
      "midi": 45,
      "hit": false,
      "t": 102630,
      "d": 410,
      "v": 72
    },
    {
      "midi": 33,
      "hit": false,
      "t": 102900,
      "d": 100,
      "v": 60
    },
    {
      "midi": 52,
      "hit": false,
      "t": 102930,
      "d": 80,
      "v": 44
    },
    {
      "midi": 57,
      "hit": false,
      "t": 102930,
      "d": 120,
      "v": 59
    },
    {
      "midi": 61,
      "hit": false,
      "t": 102930,
      "d": 140,
      "v": 56
    },
    {
      "midi": 61,
      "hit": false,
      "t": 103200,
      "d": 530,
      "v": 100
    },
    {
      "midi": 57,
      "hit": false,
      "t": 103200,
      "d": 580,
      "v": 120
    },
    {
      "midi": 30,
      "hit": false,
      "t": 103200,
      "d": 1770,
      "v": 109
    },
    {
      "midi": 42,
      "hit": false,
      "t": 103200,
      "d": 2070,
      "v": 95
    },
    {
      "midi": 54,
      "hit": false,
      "t": 103230,
      "d": 1010,
      "v": 66
    },
    {
      "midi": 61,
      "hit": false,
      "t": 103230,
      "d": 1010,
      "v": 71
    },
    {
      "midi": 57,
      "hit": false,
      "t": 103230,
      "d": 1030,
      "v": 80
    },
    {
      "midi": 42,
      "hit": false,
      "t": 103230,
      "d": 1510,
      "v": 69
    },
    {
      "midi": 54,
      "hit": false,
      "t": 103800,
      "d": 520,
      "v": 93
    },
    {
      "midi": 61,
      "hit": false,
      "t": 104400,
      "d": 470,
      "v": 111
    },
    {
      "midi": 57,
      "hit": false,
      "t": 104400,
      "d": 540,
      "v": 120
    },
    {
      "midi": 61,
      "hit": false,
      "t": 104430,
      "d": 660,
      "v": 66
    },
    {
      "midi": 54,
      "hit": false,
      "t": 104430,
      "d": 670,
      "v": 61
    },
    {
      "midi": 57,
      "hit": false,
      "t": 104430,
      "d": 710,
      "v": 76
    },
    {
      "midi": 54,
      "hit": false,
      "t": 105000,
      "d": 110,
      "v": 103
    },
    {
      "midi": 42,
      "hit": false,
      "t": 105030,
      "d": 440,
      "v": 71
    },
    {
      "midi": 30,
      "hit": false,
      "t": 105300,
      "d": 90,
      "v": 90
    },
    {
      "midi": 61,
      "hit": false,
      "t": 105330,
      "d": 100,
      "v": 61
    },
    {
      "midi": 57,
      "hit": false,
      "t": 105330,
      "d": 130,
      "v": 70
    },
    {
      "midi": 54,
      "hit": false,
      "t": 105330,
      "d": 140,
      "v": 58
    },
    {
      "midi": 54,
      "hit": false,
      "t": 105600,
      "d": 530,
      "v": 100
    },
    {
      "midi": 57,
      "hit": false,
      "t": 105600,
      "d": 570,
      "v": 110
    },
    {
      "midi": 26,
      "hit": false,
      "t": 105600,
      "d": 1230,
      "v": 114
    },
    {
      "midi": 38,
      "hit": false,
      "t": 105600,
      "d": 1320,
      "v": 91
    },
    {
      "midi": 62,
      "hit": false,
      "t": 105630,
      "d": 1080,
      "v": 80
    },
    {
      "midi": 54,
      "hit": false,
      "t": 105630,
      "d": 1100,
      "v": 64
    },
    {
      "midi": 57,
      "hit": false,
      "t": 105630,
      "d": 1130,
      "v": 89
    },
    {
      "midi": 50,
      "hit": false,
      "t": 106200,
      "d": 540,
      "v": 78
    },
    {
      "midi": 57,
      "hit": false,
      "t": 106800,
      "d": 560,
      "v": 110
    },
    {
      "midi": 54,
      "hit": false,
      "t": 106800,
      "d": 580,
      "v": 96
    },
    {
      "midi": 54,
      "hit": false,
      "t": 106830,
      "d": 790,
      "v": 69
    },
    {
      "midi": 62,
      "hit": false,
      "t": 106830,
      "d": 790,
      "v": 83
    },
    {
      "midi": 57,
      "hit": false,
      "t": 106830,
      "d": 810,
      "v": 92
    },
    {
      "midi": 50,
      "hit": false,
      "t": 107400,
      "d": 90,
      "v": 95
    },
    {
      "midi": 45,
      "hit": false,
      "t": 107430,
      "d": 260,
      "v": 65
    },
    {
      "midi": 38,
      "hit": false,
      "t": 107700,
      "d": 80,
      "v": 114
    },
    {
      "midi": 52,
      "hit": false,
      "t": 108000,
      "d": 440,
      "v": 92
    },
    {
      "midi": 57,
      "hit": false,
      "t": 108000,
      "d": 470,
      "v": 120
    },
    {
      "midi": 61,
      "hit": false,
      "t": 108000,
      "d": 500,
      "v": 107
    },
    {
      "midi": 45,
      "hit": false,
      "t": 108000,
      "d": 1990,
      "v": 80
    },
    {
      "midi": 33,
      "hit": false,
      "t": 108000,
      "d": 2020,
      "v": 103
    },
    {
      "midi": 61,
      "hit": false,
      "t": 108030,
      "d": 1140,
      "v": 67
    },
    {
      "midi": 52,
      "hit": false,
      "t": 108030,
      "d": 1160,
      "v": 72
    },
    {
      "midi": 57,
      "hit": false,
      "t": 108030,
      "d": 1170,
      "v": 86
    },
    {
      "midi": 52,
      "hit": false,
      "t": 108600,
      "d": 270,
      "v": 101
    },
    {
      "midi": 57,
      "hit": false,
      "t": 108900,
      "d": 110,
      "v": 72
    },
    {
      "midi": 61,
      "hit": false,
      "t": 109200,
      "d": 220,
      "v": 109
    },
    {
      "midi": 52,
      "hit": false,
      "t": 109200,
      "d": 360,
      "v": 95
    },
    {
      "midi": 61,
      "hit": false,
      "t": 109230,
      "d": 670,
      "v": 74
    },
    {
      "midi": 52,
      "hit": false,
      "t": 109230,
      "d": 680,
      "v": 74
    },
    {
      "midi": 57,
      "hit": false,
      "t": 109230,
      "d": 700,
      "v": 89
    },
    {
      "midi": 59,
      "hit": false,
      "t": 109500,
      "d": 320,
      "v": 98
    },
    {
      "midi": 57,
      "hit": false,
      "t": 109800,
      "d": 220,
      "v": 123
    },
    {
      "midi": 45,
      "hit": false,
      "t": 109830,
      "d": 390,
      "v": 70
    },
    {
      "midi": 52,
      "hit": false,
      "t": 110100,
      "d": 180,
      "v": 85
    },
    {
      "midi": 52,
      "hit": false,
      "t": 110120,
      "d": 150,
      "v": 48
    },
    {
      "midi": 57,
      "hit": false,
      "t": 110130,
      "d": 150,
      "v": 55
    },
    {
      "midi": 61,
      "hit": false,
      "t": 110130,
      "d": 150,
      "v": 56
    },
    {
      "midi": 57,
      "hit": false,
      "t": 110400,
      "d": 560,
      "v": 123
    },
    {
      "midi": 61,
      "hit": false,
      "t": 110400,
      "d": 580,
      "v": 107
    },
    {
      "midi": 45,
      "hit": false,
      "t": 110400,
      "d": 1610,
      "v": 78
    },
    {
      "midi": 33,
      "hit": false,
      "t": 110400,
      "d": 2130,
      "v": 99
    },
    {
      "midi": 57,
      "hit": false,
      "t": 110430,
      "d": 900,
      "v": 74
    },
    {
      "midi": 52,
      "hit": false,
      "t": 110430,
      "d": 910,
      "v": 61
    },
    {
      "midi": 61,
      "hit": false,
      "t": 110430,
      "d": 910,
      "v": 67
    },
    {
      "midi": 45,
      "hit": false,
      "t": 110430,
      "d": 1530,
      "v": 68
    },
    {
      "midi": 52,
      "hit": false,
      "t": 111000,
      "d": 610,
      "v": 81
    },
    {
      "midi": 57,
      "hit": false,
      "t": 111600,
      "d": 570,
      "v": 112
    },
    {
      "midi": 61,
      "hit": false,
      "t": 111600,
      "d": 610,
      "v": 97
    },
    {
      "midi": 52,
      "hit": false,
      "t": 111630,
      "d": 610,
      "v": 78
    },
    {
      "midi": 57,
      "hit": false,
      "t": 111630,
      "d": 620,
      "v": 80
    },
    {
      "midi": 61,
      "hit": false,
      "t": 111630,
      "d": 630,
      "v": 74
    },
    {
      "midi": 52,
      "hit": false,
      "t": 112200,
      "d": 170,
      "v": 95
    },
    {
      "midi": 45,
      "hit": false,
      "t": 112230,
      "d": 400,
      "v": 72
    },
    {
      "midi": 45,
      "hit": false,
      "t": 112500,
      "d": 60,
      "v": 83
    },
    {
      "midi": 52,
      "hit": false,
      "t": 112530,
      "d": 70,
      "v": 37
    },
    {
      "midi": 57,
      "hit": false,
      "t": 112530,
      "d": 130,
      "v": 70
    },
    {
      "midi": 61,
      "hit": false,
      "t": 112530,
      "d": 130,
      "v": 52
    },
    {
      "midi": 61,
      "hit": false,
      "t": 112800,
      "d": 540,
      "v": 101
    },
    {
      "midi": 57,
      "hit": false,
      "t": 112800,
      "d": 630,
      "v": 102
    },
    {
      "midi": 42,
      "hit": false,
      "t": 112800,
      "d": 1760,
      "v": 71
    },
    {
      "midi": 30,
      "hit": false,
      "t": 112800,
      "d": 1990,
      "v": 107
    },
    {
      "midi": 61,
      "hit": false,
      "t": 112830,
      "d": 930,
      "v": 78
    },
    {
      "midi": 54,
      "hit": false,
      "t": 112830,
      "d": 980,
      "v": 67
    },
    {
      "midi": 57,
      "hit": false,
      "t": 112830,
      "d": 1030,
      "v": 89
    },
    {
      "midi": 42,
      "hit": false,
      "t": 112830,
      "d": 1570,
      "v": 71
    },
    {
      "midi": 54,
      "hit": false,
      "t": 113400,
      "d": 520,
      "v": 90
    },
    {
      "midi": 61,
      "hit": false,
      "t": 114000,
      "d": 580,
      "v": 101
    },
    {
      "midi": 57,
      "hit": false,
      "t": 114000,
      "d": 600,
      "v": 116
    },
    {
      "midi": 61,
      "hit": false,
      "t": 114030,
      "d": 620,
      "v": 71
    },
    {
      "midi": 54,
      "hit": false,
      "t": 114030,
      "d": 650,
      "v": 67
    },
    {
      "midi": 57,
      "hit": false,
      "t": 114030,
      "d": 710,
      "v": 80
    },
    {
      "midi": 54,
      "hit": false,
      "t": 114600,
      "d": 110,
      "v": 98
    },
    {
      "midi": 42,
      "hit": false,
      "t": 114630,
      "d": 460,
      "v": 85
    },
    {
      "midi": 42,
      "hit": false,
      "t": 114900,
      "d": 80,
      "v": 93
    },
    {
      "midi": 57,
      "hit": false,
      "t": 114930,
      "d": 100,
      "v": 65
    },
    {
      "midi": 61,
      "hit": false,
      "t": 114930,
      "d": 100,
      "v": 61
    },
    {
      "midi": 54,
      "hit": false,
      "t": 114930,
      "d": 120,
      "v": 55
    },
    {
      "midi": 56,
      "hit": false,
      "t": 115200,
      "d": 550,
      "v": 98
    },
    {
      "midi": 52,
      "hit": false,
      "t": 115200,
      "d": 570,
      "v": 106
    },
    {
      "midi": 61,
      "hit": false,
      "t": 115200,
      "d": 620,
      "v": 89
    },
    {
      "midi": 37,
      "hit": false,
      "t": 115200,
      "d": 1830,
      "v": 103
    },
    {
      "midi": 25,
      "hit": false,
      "t": 115200,
      "d": 2170,
      "v": 111
    },
    {
      "midi": 61,
      "hit": false,
      "t": 115230,
      "d": 1000,
      "v": 78
    },
    {
      "midi": 56,
      "hit": false,
      "t": 115230,
      "d": 1030,
      "v": 74
    },
    {
      "midi": 52,
      "hit": false,
      "t": 115230,
      "d": 1040,
      "v": 78
    },
    {
      "midi": 37,
      "hit": false,
      "t": 115230,
      "d": 1480,
      "v": 71
    },
    {
      "midi": 49,
      "hit": false,
      "t": 115800,
      "d": 540,
      "v": 62
    },
    {
      "midi": 61,
      "hit": false,
      "t": 116400,
      "d": 510,
      "v": 97
    },
    {
      "midi": 52,
      "hit": false,
      "t": 116400,
      "d": 580,
      "v": 99
    },
    {
      "midi": 56,
      "hit": false,
      "t": 116400,
      "d": 600,
      "v": 95
    },
    {
      "midi": 61,
      "hit": false,
      "t": 116430,
      "d": 610,
      "v": 71
    },
    {
      "midi": 56,
      "hit": false,
      "t": 116430,
      "d": 630,
      "v": 74
    },
    {
      "midi": 52,
      "hit": false,
      "t": 116430,
      "d": 640,
      "v": 57
    },
    {
      "midi": 49,
      "hit": false,
      "t": 117000,
      "d": 130,
      "v": 97
    },
    {
      "midi": 37,
      "hit": false,
      "t": 117030,
      "d": 460,
      "v": 71
    },
    {
      "midi": 37,
      "hit": false,
      "t": 117300,
      "d": 160,
      "v": 83
    },
    {
      "midi": 56,
      "hit": false,
      "t": 117330,
      "d": 40,
      "v": 50
    },
    {
      "midi": 52,
      "hit": false,
      "t": 117330,
      "d": 50,
      "v": 41
    },
    {
      "midi": 61,
      "hit": false,
      "t": 117330,
      "d": 60,
      "v": 52
    },
    {
      "midi": 54,
      "hit": false,
      "t": 117600,
      "d": 540,
      "v": 92
    },
    {
      "midi": 57,
      "hit": false,
      "t": 117600,
      "d": 590,
      "v": 97
    },
    {
      "midi": 38,
      "hit": false,
      "t": 117600,
      "d": 1920,
      "v": 94
    },
    {
      "midi": 26,
      "hit": false,
      "t": 117600,
      "d": 1940,
      "v": 108
    },
    {
      "midi": 62,
      "hit": false,
      "t": 117630,
      "d": 920,
      "v": 78
    },
    {
      "midi": 54,
      "hit": false,
      "t": 117630,
      "d": 980,
      "v": 66
    },
    {
      "midi": 57,
      "hit": false,
      "t": 117630,
      "d": 1000,
      "v": 80
    },
    {
      "midi": 38,
      "hit": false,
      "t": 117630,
      "d": 1640,
      "v": 68
    },
    {
      "midi": 50,
      "hit": false,
      "t": 118200,
      "d": 640,
      "v": 91
    },
    {
      "midi": 54,
      "hit": false,
      "t": 118800,
      "d": 640,
      "v": 97
    },
    {
      "midi": 57,
      "hit": false,
      "t": 118800,
      "d": 660,
      "v": 108
    },
    {
      "midi": 54,
      "hit": false,
      "t": 118830,
      "d": 680,
      "v": 63
    },
    {
      "midi": 62,
      "hit": false,
      "t": 118830,
      "d": 680,
      "v": 66
    },
    {
      "midi": 57,
      "hit": false,
      "t": 118830,
      "d": 720,
      "v": 80
    },
    {
      "midi": 50,
      "hit": false,
      "t": 119400,
      "d": 150,
      "v": 94
    },
    {
      "midi": 38,
      "hit": false,
      "t": 119430,
      "d": 390,
      "v": 56
    },
    {
      "midi": 38,
      "hit": false,
      "t": 119700,
      "d": 120,
      "v": 96
    },
    {
      "midi": 62,
      "hit": false,
      "t": 119730,
      "d": 80,
      "v": 65
    },
    {
      "midi": 54,
      "hit": false,
      "t": 119730,
      "d": 100,
      "v": 55
    },
    {
      "midi": 57,
      "hit": false,
      "t": 119730,
      "d": 100,
      "v": 78
    },
    {
      "midi": 54,
      "hit": false,
      "t": 120000,
      "d": 550,
      "v": 103
    },
    {
      "midi": 57,
      "hit": false,
      "t": 120000,
      "d": 560,
      "v": 112
    },
    {
      "midi": 38,
      "hit": false,
      "t": 120000,
      "d": 1760,
      "v": 102
    },
    {
      "midi": 26,
      "hit": false,
      "t": 120000,
      "d": 2080,
      "v": 110
    },
    {
      "midi": 62,
      "hit": false,
      "t": 120030,
      "d": 1010,
      "v": 74
    },
    {
      "midi": 54,
      "hit": false,
      "t": 120030,
      "d": 1050,
      "v": 60
    },
    {
      "midi": 57,
      "hit": false,
      "t": 120030,
      "d": 1090,
      "v": 83
    },
    {
      "midi": 38,
      "hit": false,
      "t": 120030,
      "d": 1580,
      "v": 65
    },
    {
      "midi": 50,
      "hit": false,
      "t": 120600,
      "d": 640,
      "v": 84
    },
    {
      "midi": 54,
      "hit": false,
      "t": 121200,
      "d": 610,
      "v": 100
    },
    {
      "midi": 57,
      "hit": false,
      "t": 121200,
      "d": 630,
      "v": 116
    },
    {
      "midi": 54,
      "hit": false,
      "t": 121230,
      "d": 640,
      "v": 69
    },
    {
      "midi": 62,
      "hit": false,
      "t": 121230,
      "d": 640,
      "v": 66
    },
    {
      "midi": 57,
      "hit": false,
      "t": 121230,
      "d": 670,
      "v": 83
    },
    {
      "midi": 50,
      "hit": false,
      "t": 121800,
      "d": 210,
      "v": 96
    },
    {
      "midi": 38,
      "hit": false,
      "t": 121830,
      "d": 410,
      "v": 68
    },
    {
      "midi": 38,
      "hit": false,
      "t": 122100,
      "d": 150,
      "v": 92
    },
    {
      "midi": 54,
      "hit": false,
      "t": 122130,
      "d": 120,
      "v": 51
    },
    {
      "midi": 62,
      "hit": false,
      "t": 122130,
      "d": 120,
      "v": 51
    },
    {
      "midi": 57,
      "hit": false,
      "t": 122130,
      "d": 170,
      "v": 66
    },
    {
      "midi": 54,
      "hit": false,
      "t": 122400,
      "d": 530,
      "v": 103
    },
    {
      "midi": 59,
      "hit": false,
      "t": 122400,
      "d": 550,
      "v": 108
    },
    {
      "midi": 35,
      "hit": false,
      "t": 122400,
      "d": 1800,
      "v": 116
    },
    {
      "midi": 62,
      "hit": false,
      "t": 122430,
      "d": 980,
      "v": 68
    },
    {
      "midi": 54,
      "hit": false,
      "t": 122430,
      "d": 1070,
      "v": 61
    },
    {
      "midi": 59,
      "hit": false,
      "t": 122430,
      "d": 1080,
      "v": 86
    },
    {
      "midi": 35,
      "hit": false,
      "t": 122430,
      "d": 1610,
      "v": 78
    },
    {
      "midi": 50,
      "hit": false,
      "t": 123000,
      "d": 600,
      "v": 86
    },
    {
      "midi": 59,
      "hit": false,
      "t": 123600,
      "d": 460,
      "v": 110
    },
    {
      "midi": 54,
      "hit": false,
      "t": 123600,
      "d": 580,
      "v": 107
    },
    {
      "midi": 54,
      "hit": false,
      "t": 123630,
      "d": 690,
      "v": 61
    },
    {
      "midi": 62,
      "hit": false,
      "t": 123630,
      "d": 700,
      "v": 66
    },
    {
      "midi": 59,
      "hit": false,
      "t": 123630,
      "d": 710,
      "v": 80
    },
    {
      "midi": 50,
      "hit": false,
      "t": 124200,
      "d": 90,
      "v": 91
    },
    {
      "midi": 35,
      "hit": false,
      "t": 124230,
      "d": 530,
      "v": 66
    },
    {
      "midi": 35,
      "hit": false,
      "t": 124500,
      "d": 30,
      "v": 93
    },
    {
      "midi": 54,
      "hit": false,
      "t": 124530,
      "d": 110,
      "v": 47
    },
    {
      "midi": 59,
      "hit": false,
      "t": 124530,
      "d": 110,
      "v": 70
    },
    {
      "midi": 62,
      "hit": false,
      "t": 124530,
      "d": 130,
      "v": 55
    },
    {
      "midi": 52,
      "hit": false,
      "t": 124800,
      "d": 460,
      "v": 97
    },
    {
      "midi": 57,
      "hit": false,
      "t": 124800,
      "d": 510,
      "v": 118
    },
    {
      "midi": 61,
      "hit": false,
      "t": 124800,
      "d": 580,
      "v": 104
    },
    {
      "midi": 45,
      "hit": false,
      "t": 124800,
      "d": 1990,
      "v": 68
    },
    {
      "midi": 33,
      "hit": false,
      "t": 124800,
      "d": 2020,
      "v": 103
    },
    {
      "midi": 61,
      "hit": false,
      "t": 124830,
      "d": 1030,
      "v": 74
    },
    {
      "midi": 57,
      "hit": false,
      "t": 124830,
      "d": 1080,
      "v": 86
    },
    {
      "midi": 52,
      "hit": false,
      "t": 124830,
      "d": 1110,
      "v": 70
    },
    {
      "midi": 45,
      "hit": false,
      "t": 124830,
      "d": 1590,
      "v": 74
    },
    {
      "midi": 52,
      "hit": false,
      "t": 125400,
      "d": 490,
      "v": 94
    },
    {
      "midi": 57,
      "hit": false,
      "t": 126000,
      "d": 460,
      "v": 114
    },
    {
      "midi": 61,
      "hit": false,
      "t": 126000,
      "d": 550,
      "v": 106
    },
    {
      "midi": 61,
      "hit": false,
      "t": 126030,
      "d": 640,
      "v": 71
    },
    {
      "midi": 52,
      "hit": false,
      "t": 126030,
      "d": 670,
      "v": 74
    },
    {
      "midi": 57,
      "hit": false,
      "t": 126030,
      "d": 680,
      "v": 89
    },
    {
      "midi": 52,
      "hit": false,
      "t": 126600,
      "d": 140,
      "v": 77
    },
    {
      "midi": 45,
      "hit": false,
      "t": 126630,
      "d": 340,
      "v": 68
    },
    {
      "midi": 59,
      "hit": false,
      "t": 126900,
      "d": 110,
      "v": 89
    },
    {
      "midi": 61,
      "hit": false,
      "t": 126930,
      "d": 80,
      "v": 58
    },
    {
      "midi": 57,
      "hit": false,
      "t": 126930,
      "d": 130,
      "v": 68
    },
    {
      "midi": 52,
      "hit": false,
      "t": 126930,
      "d": 140,
      "v": 56
    },
    {
      "midi": 61,
      "hit": false,
      "t": 127200,
      "d": 680,
      "v": 109
    },
    {
      "midi": 45,
      "hit": false,
      "t": 127200,
      "d": 690,
      "v": 89
    },
    {
      "midi": 52,
      "hit": false,
      "t": 127200,
      "d": 770,
      "v": 97
    },
    {
      "midi": 33,
      "hit": false,
      "t": 127200,
      "d": 1770,
      "v": 97
    },
    {
      "midi": 61,
      "hit": false,
      "t": 127230,
      "d": 1070,
      "v": 66
    },
    {
      "midi": 57,
      "hit": false,
      "t": 127230,
      "d": 1080,
      "v": 78
    },
    {
      "midi": 52,
      "hit": false,
      "t": 127230,
      "d": 1090,
      "v": 62
    },
    {
      "midi": 45,
      "hit": false,
      "t": 127230,
      "d": 1510,
      "v": 72
    },
    {
      "midi": 59,
      "hit": false,
      "t": 127800,
      "d": 180,
      "v": 102
    },
    {
      "midi": 45,
      "hit": false,
      "t": 128100,
      "d": 1170,
      "v": 84
    },
    {
      "midi": 59,
      "hit": false,
      "t": 128400,
      "d": 590,
      "v": 116
    },
    {
      "midi": 52,
      "hit": false,
      "t": 128400,
      "d": 700,
      "v": 91
    },
    {
      "midi": 61,
      "hit": false,
      "t": 128430,
      "d": 650,
      "v": 74
    },
    {
      "midi": 52,
      "hit": false,
      "t": 128430,
      "d": 680,
      "v": 68
    },
    {
      "midi": 57,
      "hit": false,
      "t": 128430,
      "d": 680,
      "v": 83
    },
    {
      "midi": 57,
      "hit": false,
      "t": 129000,
      "d": 100,
      "v": 123
    },
    {
      "midi": 45,
      "hit": false,
      "t": 129030,
      "d": 400,
      "v": 70
    },
    {
      "midi": 33,
      "hit": false,
      "t": 129300,
      "d": 120,
      "v": 123
    },
    {
      "midi": 52,
      "hit": false,
      "t": 129330,
      "d": 110,
      "v": 44
    },
    {
      "midi": 57,
      "hit": false,
      "t": 129330,
      "d": 130,
      "v": 58
    },
    {
      "midi": 61,
      "hit": false,
      "t": 129330,
      "d": 150,
      "v": 55
    },
    {
      "midi": 54,
      "hit": false,
      "t": 129600,
      "d": 550,
      "v": 106
    },
    {
      "midi": 57,
      "hit": false,
      "t": 129600,
      "d": 560,
      "v": 110
    },
    {
      "midi": 38,
      "hit": false,
      "t": 129600,
      "d": 1840,
      "v": 106
    },
    {
      "midi": 26,
      "hit": false,
      "t": 129600,
      "d": 1940,
      "v": 89
    },
    {
      "midi": 54,
      "hit": false,
      "t": 129630,
      "d": 1120,
      "v": 66
    },
    {
      "midi": 57,
      "hit": false,
      "t": 129630,
      "d": 1130,
      "v": 83
    },
    {
      "midi": 62,
      "hit": false,
      "t": 129630,
      "d": 1130,
      "v": 80
    },
    {
      "midi": 38,
      "hit": false,
      "t": 129630,
      "d": 1600,
      "v": 80
    },
    {
      "midi": 50,
      "hit": false,
      "t": 130200,
      "d": 680,
      "v": 88
    },
    {
      "midi": 54,
      "hit": false,
      "t": 130800,
      "d": 580,
      "v": 95
    },
    {
      "midi": 57,
      "hit": false,
      "t": 130800,
      "d": 620,
      "v": 110
    },
    {
      "midi": 62,
      "hit": false,
      "t": 130830,
      "d": 640,
      "v": 80
    },
    {
      "midi": 54,
      "hit": false,
      "t": 130830,
      "d": 660,
      "v": 67
    },
    {
      "midi": 57,
      "hit": false,
      "t": 130830,
      "d": 680,
      "v": 92
    },
    {
      "midi": 50,
      "hit": false,
      "t": 131400,
      "d": 250,
      "v": 92
    },
    {
      "midi": 38,
      "hit": false,
      "t": 131430,
      "d": 380,
      "v": 70
    },
    {
      "midi": 38,
      "hit": false,
      "t": 131700,
      "d": 90,
      "v": 80
    },
    {
      "midi": 54,
      "hit": false,
      "t": 131730,
      "d": 90,
      "v": 51
    },
    {
      "midi": 62,
      "hit": false,
      "t": 131730,
      "d": 100,
      "v": 51
    },
    {
      "midi": 57,
      "hit": false,
      "t": 131730,
      "d": 130,
      "v": 62
    },
    {
      "midi": 54,
      "hit": false,
      "t": 132000,
      "d": 520,
      "v": 101
    },
    {
      "midi": 59,
      "hit": false,
      "t": 132000,
      "d": 540,
      "v": 106
    },
    {
      "midi": 23,
      "hit": false,
      "t": 132000,
      "d": 1420,
      "v": 103
    },
    {
      "midi": 35,
      "hit": false,
      "t": 132000,
      "d": 1470,
      "v": 99
    },
    {
      "midi": 62,
      "hit": false,
      "t": 132030,
      "d": 960,
      "v": 78
    },
    {
      "midi": 59,
      "hit": false,
      "t": 132030,
      "d": 1020,
      "v": 83
    },
    {
      "midi": 54,
      "hit": false,
      "t": 132030,
      "d": 1050,
      "v": 67
    },
    {
      "midi": 35,
      "hit": false,
      "t": 132030,
      "d": 1530,
      "v": 74
    },
    {
      "midi": 50,
      "hit": false,
      "t": 132600,
      "d": 540,
      "v": 90
    },
    {
      "midi": 59,
      "hit": false,
      "t": 133200,
      "d": 600,
      "v": 112
    },
    {
      "midi": 54,
      "hit": false,
      "t": 133200,
      "d": 660,
      "v": 98
    },
    {
      "midi": 54,
      "hit": false,
      "t": 133230,
      "d": 650,
      "v": 64
    },
    {
      "midi": 59,
      "hit": false,
      "t": 133230,
      "d": 650,
      "v": 80
    },
    {
      "midi": 62,
      "hit": false,
      "t": 133230,
      "d": 670,
      "v": 72
    },
    {
      "midi": 50,
      "hit": false,
      "t": 133800,
      "d": 90,
      "v": 102
    },
    {
      "midi": 35,
      "hit": false,
      "t": 133830,
      "d": 500,
      "v": 74
    },
    {
      "midi": 40,
      "hit": false,
      "t": 134100,
      "d": 1760,
      "v": 102
    },
    {
      "midi": 59,
      "hit": false,
      "t": 134130,
      "d": 50,
      "v": 57
    },
    {
      "midi": 54,
      "hit": false,
      "t": 134130,
      "d": 60,
      "v": 47
    },
    {
      "midi": 62,
      "hit": false,
      "t": 134130,
      "d": 110,
      "v": 58
    },
    {
      "midi": 52,
      "hit": false,
      "t": 134400,
      "d": 460,
      "v": 95
    },
    {
      "midi": 57,
      "hit": false,
      "t": 134400,
      "d": 610,
      "v": 118
    },
    {
      "midi": 61,
      "hit": false,
      "t": 134400,
      "d": 710,
      "v": 101
    },
    {
      "midi": 28,
      "hit": false,
      "t": 134400,
      "d": 2040,
      "v": 105
    },
    {
      "midi": 62,
      "hit": false,
      "t": 134430,
      "d": 120,
      "v": 72
    },
    {
      "midi": 57,
      "hit": false,
      "t": 134430,
      "d": 1000,
      "v": 76
    },
    {
      "midi": 61,
      "hit": false,
      "t": 134430,
      "d": 1060,
      "v": 50
    },
    {
      "midi": 52,
      "hit": false,
      "t": 134430,
      "d": 1120,
      "v": 68
    },
    {
      "midi": 40,
      "hit": false,
      "t": 134430,
      "d": 1570,
      "v": 72
    },
    {
      "midi": 52,
      "hit": false,
      "t": 135000,
      "d": 260,
      "v": 80
    },
    {
      "midi": 52,
      "hit": false,
      "t": 135600,
      "d": 760,
      "v": 85
    },
    {
      "midi": 56,
      "hit": false,
      "t": 135600,
      "d": 760,
      "v": 106
    },
    {
      "midi": 59,
      "hit": false,
      "t": 135600,
      "d": 770,
      "v": 103
    },
    {
      "midi": 52,
      "hit": false,
      "t": 135630,
      "d": 690,
      "v": 76
    },
    {
      "midi": 56,
      "hit": false,
      "t": 135630,
      "d": 690,
      "v": 74
    },
    {
      "midi": 59,
      "hit": false,
      "t": 135630,
      "d": 720,
      "v": 78
    },
    {
      "midi": 40,
      "hit": false,
      "t": 136200,
      "d": 280,
      "v": 101
    },
    {
      "midi": 40,
      "hit": false,
      "t": 136230,
      "d": 370,
      "v": 59
    },
    {
      "midi": 56,
      "hit": false,
      "t": 136530,
      "d": 100,
      "v": 69
    },
    {
      "midi": 52,
      "hit": false,
      "t": 136530,
      "d": 130,
      "v": 61
    },
    {
      "midi": 59,
      "hit": false,
      "t": 136530,
      "d": 130,
      "v": 74
    },
    {
      "midi": 52,
      "hit": false,
      "t": 136800,
      "d": 220,
      "v": 93
    },
    {
      "midi": 56,
      "hit": false,
      "t": 136800,
      "d": 220,
      "v": 104
    },
    {
      "midi": 59,
      "hit": false,
      "t": 136800,
      "d": 390,
      "v": 110
    },
    {
      "midi": 28,
      "hit": false,
      "t": 136800,
      "d": 1660,
      "v": 79
    },
    {
      "midi": 40,
      "hit": false,
      "t": 136800,
      "d": 1690,
      "v": 76
    },
    {
      "midi": 56,
      "hit": false,
      "t": 136830,
      "d": 1050,
      "v": 71
    },
    {
      "midi": 52,
      "hit": false,
      "t": 136830,
      "d": 1090,
      "v": 68
    },
    {
      "midi": 59,
      "hit": false,
      "t": 136830,
      "d": 1110,
      "v": 78
    },
    {
      "midi": 40,
      "hit": false,
      "t": 136830,
      "d": 1590,
      "v": 72
    },
    {
      "midi": 52,
      "hit": false,
      "t": 137400,
      "d": 250,
      "v": 83
    },
    {
      "midi": 56,
      "hit": false,
      "t": 137700,
      "d": 230,
      "v": 97
    },
    {
      "midi": 64,
      "hit": false,
      "t": 138000,
      "d": 290,
      "v": 127
    },
    {
      "midi": 56,
      "hit": false,
      "t": 138030,
      "d": 670,
      "v": 71
    },
    {
      "midi": 52,
      "hit": false,
      "t": 138030,
      "d": 700,
      "v": 62
    },
    {
      "midi": 59,
      "hit": false,
      "t": 138030,
      "d": 720,
      "v": 83
    },
    {
      "midi": 59,
      "hit": false,
      "t": 138300,
      "d": 300,
      "v": 98
    },
    {
      "midi": 56,
      "hit": false,
      "t": 138600,
      "d": 210,
      "v": 92
    },
    {
      "midi": 40,
      "hit": false,
      "t": 138630,
      "d": 430,
      "v": 72
    },
    {
      "midi": 52,
      "hit": false,
      "t": 138900,
      "d": 90,
      "v": 69
    },
    {
      "midi": 56,
      "hit": false,
      "t": 138930,
      "d": 100,
      "v": 64
    },
    {
      "midi": 52,
      "hit": false,
      "t": 138930,
      "d": 110,
      "v": 65
    },
    {
      "midi": 59,
      "hit": false,
      "t": 138930,
      "d": 140,
      "v": 62
    },
    {
      "midi": 57,
      "hit": false,
      "t": 139200,
      "d": 550,
      "v": 123
    },
    {
      "midi": 61,
      "hit": false,
      "t": 139200,
      "d": 560,
      "v": 106
    },
    {
      "midi": 33,
      "hit": false,
      "t": 139200,
      "d": 1850,
      "v": 108
    },
    {
      "midi": 45,
      "hit": false,
      "t": 139200,
      "d": 2000,
      "v": 96
    },
    {
      "midi": 57,
      "hit": false,
      "t": 139230,
      "d": 1120,
      "v": 86
    },
    {
      "midi": 52,
      "hit": false,
      "t": 139230,
      "d": 1170,
      "v": 83
    },
    {
      "midi": 61,
      "hit": false,
      "t": 139230,
      "d": 1180,
      "v": 78
    },
    {
      "midi": 45,
      "hit": false,
      "t": 139230,
      "d": 1640,
      "v": 80
    },
    {
      "midi": 52,
      "hit": false,
      "t": 139800,
      "d": 580,
      "v": 93
    },
    {
      "midi": 57,
      "hit": false,
      "t": 140400,
      "d": 600,
      "v": 108
    },
    {
      "midi": 61,
      "hit": false,
      "t": 140400,
      "d": 610,
      "v": 104
    },
    {
      "midi": 57,
      "hit": false,
      "t": 140430,
      "d": 680,
      "v": 83
    },
    {
      "midi": 52,
      "hit": false,
      "t": 140430,
      "d": 710,
      "v": 74
    },
    {
      "midi": 61,
      "hit": false,
      "t": 140430,
      "d": 710,
      "v": 66
    },
    {
      "midi": 52,
      "hit": false,
      "t": 141000,
      "d": 170,
      "v": 88
    },
    {
      "midi": 45,
      "hit": false,
      "t": 141030,
      "d": 460,
      "v": 65
    },
    {
      "midi": 33,
      "hit": false,
      "t": 141300,
      "d": 100,
      "v": 116
    },
    {
      "midi": 52,
      "hit": false,
      "t": 141330,
      "d": 110,
      "v": 55
    },
    {
      "midi": 57,
      "hit": false,
      "t": 141330,
      "d": 110,
      "v": 74
    },
    {
      "midi": 61,
      "hit": false,
      "t": 141330,
      "d": 150,
      "v": 64
    },
    {
      "midi": 61,
      "hit": false,
      "t": 141600,
      "d": 520,
      "v": 106
    },
    {
      "midi": 57,
      "hit": false,
      "t": 141600,
      "d": 570,
      "v": 118
    },
    {
      "midi": 30,
      "hit": false,
      "t": 141600,
      "d": 1810,
      "v": 118
    },
    {
      "midi": 42,
      "hit": false,
      "t": 141600,
      "d": 2100,
      "v": 97
    },
    {
      "midi": 61,
      "hit": false,
      "t": 141630,
      "d": 960,
      "v": 71
    },
    {
      "midi": 54,
      "hit": false,
      "t": 141630,
      "d": 990,
      "v": 67
    },
    {
      "midi": 57,
      "hit": false,
      "t": 141630,
      "d": 1010,
      "v": 76
    },
    {
      "midi": 42,
      "hit": false,
      "t": 141630,
      "d": 1560,
      "v": 64
    },
    {
      "midi": 54,
      "hit": false,
      "t": 142200,
      "d": 540,
      "v": 101
    },
    {
      "midi": 61,
      "hit": false,
      "t": 142800,
      "d": 560,
      "v": 111
    },
    {
      "midi": 57,
      "hit": false,
      "t": 142800,
      "d": 630,
      "v": 123
    },
    {
      "midi": 61,
      "hit": false,
      "t": 142830,
      "d": 660,
      "v": 71
    },
    {
      "midi": 54,
      "hit": false,
      "t": 142830,
      "d": 670,
      "v": 67
    },
    {
      "midi": 57,
      "hit": false,
      "t": 142830,
      "d": 680,
      "v": 86
    },
    {
      "midi": 54,
      "hit": false,
      "t": 143400,
      "d": 120,
      "v": 106
    },
    {
      "midi": 42,
      "hit": false,
      "t": 143430,
      "d": 430,
      "v": 71
    },
    {
      "midi": 30,
      "hit": false,
      "t": 143700,
      "d": 130,
      "v": 109
    },
    {
      "midi": 54,
      "hit": false,
      "t": 143730,
      "d": 100,
      "v": 41
    },
    {
      "midi": 57,
      "hit": false,
      "t": 143730,
      "d": 120,
      "v": 62
    },
    {
      "midi": 61,
      "hit": false,
      "t": 143730,
      "d": 120,
      "v": 63
    },
    {
      "midi": 54,
      "hit": false,
      "t": 144000,
      "d": 580,
      "v": 101
    },
    {
      "midi": 57,
      "hit": false,
      "t": 144000,
      "d": 600,
      "v": 106
    },
    {
      "midi": 38,
      "hit": false,
      "t": 144000,
      "d": 1820,
      "v": 123
    },
    {
      "midi": 26,
      "hit": false,
      "t": 144000,
      "d": 1880,
      "v": 123
    },
    {
      "midi": 62,
      "hit": false,
      "t": 144030,
      "d": 1090,
      "v": 80
    },
    {
      "midi": 57,
      "hit": false,
      "t": 144030,
      "d": 1130,
      "v": 83
    },
    {
      "midi": 54,
      "hit": false,
      "t": 144030,
      "d": 1140,
      "v": 66
    },
    {
      "midi": 38,
      "hit": false,
      "t": 144030,
      "d": 1600,
      "v": 80
    },
    {
      "midi": 50,
      "hit": false,
      "t": 144600,
      "d": 560,
      "v": 97
    },
    {
      "midi": 57,
      "hit": false,
      "t": 145200,
      "d": 610,
      "v": 116
    },
    {
      "midi": 54,
      "hit": false,
      "t": 145200,
      "d": 650,
      "v": 103
    },
    {
      "midi": 54,
      "hit": false,
      "t": 145230,
      "d": 640,
      "v": 64
    },
    {
      "midi": 62,
      "hit": false,
      "t": 145230,
      "d": 650,
      "v": 72
    },
    {
      "midi": 57,
      "hit": false,
      "t": 145230,
      "d": 670,
      "v": 86
    },
    {
      "midi": 50,
      "hit": false,
      "t": 145800,
      "d": 100,
      "v": 92
    },
    {
      "midi": 38,
      "hit": false,
      "t": 145830,
      "d": 440,
      "v": 70
    },
    {
      "midi": 38,
      "hit": false,
      "t": 146100,
      "d": 80,
      "v": 91
    },
    {
      "midi": 62,
      "hit": false,
      "t": 146130,
      "d": 110,
      "v": 59
    },
    {
      "midi": 54,
      "hit": false,
      "t": 146130,
      "d": 140,
      "v": 51
    },
    {
      "midi": 57,
      "hit": false,
      "t": 146130,
      "d": 140,
      "v": 63
    },
    {
      "midi": 57,
      "hit": false,
      "t": 146400,
      "d": 540,
      "v": 126
    },
    {
      "midi": 61,
      "hit": false,
      "t": 146400,
      "d": 580,
      "v": 111
    },
    {
      "midi": 45,
      "hit": false,
      "t": 146400,
      "d": 1920,
      "v": 116
    },
    {
      "midi": 33,
      "hit": false,
      "t": 146400,
      "d": 1930,
      "v": 126
    },
    {
      "midi": 61,
      "hit": false,
      "t": 146430,
      "d": 1000,
      "v": 74
    },
    {
      "midi": 52,
      "hit": false,
      "t": 146430,
      "d": 1040,
      "v": 68
    },
    {
      "midi": 57,
      "hit": false,
      "t": 146430,
      "d": 1040,
      "v": 86
    },
    {
      "midi": 45,
      "hit": false,
      "t": 146430,
      "d": 1630,
      "v": 78
    },
    {
      "midi": 52,
      "hit": false,
      "t": 147000,
      "d": 550,
      "v": 99
    },
    {
      "midi": 57,
      "hit": false,
      "t": 147600,
      "d": 570,
      "v": 123
    },
    {
      "midi": 61,
      "hit": false,
      "t": 147600,
      "d": 600,
      "v": 106
    },
    {
      "midi": 52,
      "hit": false,
      "t": 147630,
      "d": 680,
      "v": 62
    },
    {
      "midi": 61,
      "hit": false,
      "t": 147630,
      "d": 690,
      "v": 69
    },
    {
      "midi": 57,
      "hit": false,
      "t": 147630,
      "d": 710,
      "v": 74
    },
    {
      "midi": 52,
      "hit": false,
      "t": 148200,
      "d": 160,
      "v": 97
    },
    {
      "midi": 45,
      "hit": false,
      "t": 148230,
      "d": 380,
      "v": 76
    },
    {
      "midi": 40,
      "hit": false,
      "t": 148500,
      "d": 180,
      "v": 108
    },
    {
      "midi": 52,
      "hit": false,
      "t": 148530,
      "d": 120,
      "v": 56
    },
    {
      "midi": 61,
      "hit": false,
      "t": 148530,
      "d": 120,
      "v": 63
    },
    {
      "midi": 57,
      "hit": false,
      "t": 148530,
      "d": 140,
      "v": 76
    },
    {
      "midi": 57,
      "hit": false,
      "t": 148800,
      "d": 590,
      "v": 120
    },
    {
      "midi": 61,
      "hit": false,
      "t": 148800,
      "d": 620,
      "v": 109
    },
    {
      "midi": 45,
      "hit": false,
      "t": 148800,
      "d": 1730,
      "v": 92
    },
    {
      "midi": 33,
      "hit": false,
      "t": 148800,
      "d": 1910,
      "v": 105
    },
    {
      "midi": 61,
      "hit": false,
      "t": 148830,
      "d": 1100,
      "v": 71
    },
    {
      "midi": 52,
      "hit": false,
      "t": 148830,
      "d": 1120,
      "v": 74
    },
    {
      "midi": 57,
      "hit": false,
      "t": 148830,
      "d": 1150,
      "v": 83
    },
    {
      "midi": 45,
      "hit": false,
      "t": 148830,
      "d": 1550,
      "v": 76
    },
    {
      "midi": 52,
      "hit": false,
      "t": 149400,
      "d": 640,
      "v": 97
    },
    {
      "midi": 61,
      "hit": false,
      "t": 150000,
      "d": 560,
      "v": 103
    },
    {
      "midi": 57,
      "hit": false,
      "t": 150000,
      "d": 590,
      "v": 116
    },
    {
      "midi": 61,
      "hit": false,
      "t": 150030,
      "d": 660,
      "v": 78
    },
    {
      "midi": 52,
      "hit": false,
      "t": 150030,
      "d": 670,
      "v": 65
    },
    {
      "midi": 57,
      "hit": false,
      "t": 150030,
      "d": 670,
      "v": 78
    },
    {
      "midi": 52,
      "hit": false,
      "t": 150600,
      "d": 180,
      "v": 95
    },
    {
      "midi": 45,
      "hit": false,
      "t": 150630,
      "d": 430,
      "v": 92
    },
    {
      "midi": 45,
      "hit": false,
      "t": 150900,
      "d": 60,
      "v": 76
    },
    {
      "midi": 52,
      "hit": false,
      "t": 150930,
      "d": 100,
      "v": 49
    },
    {
      "midi": 57,
      "hit": false,
      "t": 150930,
      "d": 110,
      "v": 72
    },
    {
      "midi": 61,
      "hit": false,
      "t": 150930,
      "d": 140,
      "v": 52
    },
    {
      "midi": 61,
      "hit": false,
      "t": 151200,
      "d": 570,
      "v": 101
    },
    {
      "midi": 57,
      "hit": false,
      "t": 151200,
      "d": 600,
      "v": 114
    },
    {
      "midi": 42,
      "hit": false,
      "t": 151200,
      "d": 1770,
      "v": 103
    },
    {
      "midi": 30,
      "hit": false,
      "t": 151200,
      "d": 2190,
      "v": 114
    },
    {
      "midi": 61,
      "hit": false,
      "t": 151230,
      "d": 950,
      "v": 69
    },
    {
      "midi": 54,
      "hit": false,
      "t": 151230,
      "d": 970,
      "v": 67
    },
    {
      "midi": 57,
      "hit": false,
      "t": 151230,
      "d": 1010,
      "v": 83
    },
    {
      "midi": 42,
      "hit": false,
      "t": 151230,
      "d": 1510,
      "v": 74
    },
    {
      "midi": 54,
      "hit": false,
      "t": 151800,
      "d": 530,
      "v": 90
    },
    {
      "midi": 57,
      "hit": false,
      "t": 152400,
      "d": 600,
      "v": 116
    },
    {
      "midi": 61,
      "hit": false,
      "t": 152400,
      "d": 640,
      "v": 104
    },
    {
      "midi": 61,
      "hit": false,
      "t": 152430,
      "d": 650,
      "v": 69
    },
    {
      "midi": 54,
      "hit": false,
      "t": 152430,
      "d": 690,
      "v": 69
    },
    {
      "midi": 57,
      "hit": false,
      "t": 152430,
      "d": 740,
      "v": 80
    },
    {
      "midi": 54,
      "hit": false,
      "t": 153000,
      "d": 110,
      "v": 95
    },
    {
      "midi": 42,
      "hit": false,
      "t": 153030,
      "d": 460,
      "v": 101
    },
    {
      "midi": 42,
      "hit": false,
      "t": 153300,
      "d": 80,
      "v": 88
    },
    {
      "midi": 57,
      "hit": false,
      "t": 153330,
      "d": 80,
      "v": 62
    },
    {
      "midi": 54,
      "hit": false,
      "t": 153330,
      "d": 100,
      "v": 55
    },
    {
      "midi": 61,
      "hit": false,
      "t": 153330,
      "d": 110,
      "v": 64
    },
    {
      "midi": 56,
      "hit": false,
      "t": 153600,
      "d": 560,
      "v": 101
    },
    {
      "midi": 52,
      "hit": false,
      "t": 153600,
      "d": 580,
      "v": 103
    },
    {
      "midi": 61,
      "hit": false,
      "t": 153600,
      "d": 590,
      "v": 95
    },
    {
      "midi": 37,
      "hit": false,
      "t": 153600,
      "d": 1850,
      "v": 98
    },
    {
      "midi": 25,
      "hit": false,
      "t": 153600,
      "d": 2200,
      "v": 118
    },
    {
      "midi": 56,
      "hit": false,
      "t": 153630,
      "d": 1060,
      "v": 78
    },
    {
      "midi": 61,
      "hit": false,
      "t": 153630,
      "d": 1060,
      "v": 74
    },
    {
      "midi": 52,
      "hit": false,
      "t": 153630,
      "d": 1080,
      "v": 76
    },
    {
      "midi": 37,
      "hit": false,
      "t": 153630,
      "d": 1460,
      "v": 71
    },
    {
      "midi": 49,
      "hit": false,
      "t": 154200,
      "d": 480,
      "v": 96
    },
    {
      "midi": 56,
      "hit": false,
      "t": 154800,
      "d": 520,
      "v": 103
    },
    {
      "midi": 61,
      "hit": false,
      "t": 154800,
      "d": 520,
      "v": 91
    },
    {
      "midi": 52,
      "hit": false,
      "t": 154800,
      "d": 630,
      "v": 102
    },
    {
      "midi": 56,
      "hit": false,
      "t": 154830,
      "d": 590,
      "v": 93
    },
    {
      "midi": 61,
      "hit": false,
      "t": 154830,
      "d": 610,
      "v": 69
    },
    {
      "midi": 52,
      "hit": false,
      "t": 154830,
      "d": 630,
      "v": 66
    },
    {
      "midi": 49,
      "hit": false,
      "t": 155400,
      "d": 120,
      "v": 93
    },
    {
      "midi": 37,
      "hit": false,
      "t": 155430,
      "d": 350,
      "v": 67
    },
    {
      "midi": 52,
      "hit": false,
      "t": 155730,
      "d": 70,
      "v": 42
    },
    {
      "midi": 61,
      "hit": false,
      "t": 155730,
      "d": 80,
      "v": 58
    },
    {
      "midi": 56,
      "hit": false,
      "t": 155730,
      "d": 130,
      "v": 58
    },
    {
      "midi": 57,
      "hit": false,
      "t": 156000,
      "d": 250,
      "v": 108
    },
    {
      "midi": 54,
      "hit": false,
      "t": 156000,
      "d": 260,
      "v": 100
    },
    {
      "midi": 26,
      "hit": false,
      "t": 156000,
      "d": 710,
      "v": 103
    },
    {
      "midi": 38,
      "hit": false,
      "t": 156000,
      "d": 820,
      "v": 99
    },
    {
      "midi": 38,
      "hit": false,
      "t": 156030,
      "d": 460,
      "v": 65
    },
    {
      "midi": 62,
      "hit": false,
      "t": 156030,
      "d": 580,
      "v": 68
    },
    {
      "midi": 54,
      "hit": false,
      "t": 156030,
      "d": 590,
      "v": 66
    },
    {
      "midi": 57,
      "hit": false,
      "t": 156030,
      "d": 600,
      "v": 83
    },
    {
      "midi": 50,
      "hit": false,
      "t": 156300,
      "d": 290,
      "v": 85
    },
    {
      "midi": 54,
      "hit": false,
      "t": 156600,
      "d": 330,
      "v": 98
    },
    {
      "midi": 38,
      "hit": false,
      "t": 156630,
      "d": 490,
      "v": 68
    },
    {
      "midi": 57,
      "hit": false,
      "t": 156900,
      "d": 150,
      "v": 101
    },
    {
      "midi": 57,
      "hit": false,
      "t": 156930,
      "d": 30,
      "v": 48
    },
    {
      "midi": 54,
      "hit": false,
      "t": 156930,
      "d": 120,
      "v": 57
    },
    {
      "midi": 62,
      "hit": false,
      "t": 156930,
      "d": 130,
      "v": 65
    },
    {
      "midi": 56,
      "hit": false,
      "t": 157200,
      "d": 170,
      "v": 100
    },
    {
      "midi": 52,
      "hit": false,
      "t": 157200,
      "d": 190,
      "v": 88
    },
    {
      "midi": 59,
      "hit": false,
      "t": 157200,
      "d": 250,
      "v": 110
    },
    {
      "midi": 28,
      "hit": false,
      "t": 157200,
      "d": 500,
      "v": 92
    },
    {
      "midi": 40,
      "hit": false,
      "t": 157200,
      "d": 540,
      "v": 91
    },
    {
      "midi": 40,
      "hit": false,
      "t": 157230,
      "d": 500,
      "v": 74
    },
    {
      "midi": 56,
      "hit": false,
      "t": 157230,
      "d": 690,
      "v": 56
    },
    {
      "midi": 64,
      "hit": false,
      "t": 157230,
      "d": 710,
      "v": 89
    },
    {
      "midi": 59,
      "hit": false,
      "t": 157230,
      "d": 740,
      "v": 78
    },
    {
      "midi": 52,
      "hit": false,
      "t": 157500,
      "d": 290,
      "v": 96
    },
    {
      "midi": 56,
      "hit": false,
      "t": 157800,
      "d": 280,
      "v": 96
    },
    {
      "midi": 40,
      "hit": false,
      "t": 157830,
      "d": 500,
      "v": 76
    },
    {
      "midi": 59,
      "hit": false,
      "t": 158100,
      "d": 120,
      "v": 91
    },
    {
      "midi": 59,
      "hit": false,
      "t": 158130,
      "d": 90,
      "v": 62
    },
    {
      "midi": 56,
      "hit": false,
      "t": 158130,
      "d": 130,
      "v": 64
    },
    {
      "midi": 64,
      "hit": false,
      "t": 158130,
      "d": 130,
      "v": 72
    },
    {
      "midi": 57,
      "hit": false,
      "t": 158400,
      "d": 580,
      "v": 120
    },
    {
      "midi": 61,
      "hit": false,
      "t": 158400,
      "d": 630,
      "v": 104
    },
    {
      "midi": 33,
      "hit": false,
      "t": 158400,
      "d": 1820,
      "v": 91
    },
    {
      "midi": 45,
      "hit": false,
      "t": 158400,
      "d": 2120,
      "v": 86
    },
    {
      "midi": 57,
      "hit": false,
      "t": 158430,
      "d": 1100,
      "v": 92
    },
    {
      "midi": 52,
      "hit": false,
      "t": 158430,
      "d": 1110,
      "v": 83
    },
    {
      "midi": 61,
      "hit": false,
      "t": 158430,
      "d": 1120,
      "v": 71
    },
    {
      "midi": 45,
      "hit": false,
      "t": 158430,
      "d": 1560,
      "v": 74
    },
    {
      "midi": 52,
      "hit": false,
      "t": 159000,
      "d": 650,
      "v": 77
    },
    {
      "midi": 57,
      "hit": false,
      "t": 159600,
      "d": 600,
      "v": 116
    },
    {
      "midi": 61,
      "hit": false,
      "t": 159600,
      "d": 620,
      "v": 104
    },
    {
      "midi": 52,
      "hit": false,
      "t": 159630,
      "d": 660,
      "v": 78
    },
    {
      "midi": 57,
      "hit": false,
      "t": 159630,
      "d": 670,
      "v": 86
    },
    {
      "midi": 61,
      "hit": false,
      "t": 159630,
      "d": 670,
      "v": 71
    },
    {
      "midi": 52,
      "hit": false,
      "t": 160200,
      "d": 200,
      "v": 96
    },
    {
      "midi": 45,
      "hit": false,
      "t": 160230,
      "d": 400,
      "v": 72
    },
    {
      "midi": 33,
      "hit": false,
      "t": 160500,
      "d": 100,
      "v": 114
    },
    {
      "midi": 52,
      "hit": false,
      "t": 160530,
      "d": 60,
      "v": 44
    },
    {
      "midi": 57,
      "hit": false,
      "t": 160530,
      "d": 130,
      "v": 61
    },
    {
      "midi": 61,
      "hit": false,
      "t": 160530,
      "d": 170,
      "v": 58
    },
    {
      "midi": 61,
      "hit": false,
      "t": 160800,
      "d": 600,
      "v": 104
    },
    {
      "midi": 57,
      "hit": false,
      "t": 160800,
      "d": 630,
      "v": 116
    },
    {
      "midi": 30,
      "hit": false,
      "t": 160800,
      "d": 1770,
      "v": 106
    },
    {
      "midi": 42,
      "hit": false,
      "t": 160800,
      "d": 1850,
      "v": 104
    },
    {
      "midi": 61,
      "hit": false,
      "t": 160830,
      "d": 870,
      "v": 71
    },
    {
      "midi": 54,
      "hit": false,
      "t": 160830,
      "d": 910,
      "v": 69
    },
    {
      "midi": 57,
      "hit": false,
      "t": 160830,
      "d": 970,
      "v": 86
    },
    {
      "midi": 42,
      "hit": false,
      "t": 160830,
      "d": 1560,
      "v": 74
    },
    {
      "midi": 54,
      "hit": false,
      "t": 161400,
      "d": 430,
      "v": 92
    },
    {
      "midi": 61,
      "hit": false,
      "t": 162000,
      "d": 560,
      "v": 104
    },
    {
      "midi": 57,
      "hit": false,
      "t": 162000,
      "d": 610,
      "v": 110
    },
    {
      "midi": 54,
      "hit": false,
      "t": 162030,
      "d": 630,
      "v": 69
    },
    {
      "midi": 61,
      "hit": false,
      "t": 162030,
      "d": 640,
      "v": 71
    },
    {
      "midi": 57,
      "hit": false,
      "t": 162030,
      "d": 680,
      "v": 86
    },
    {
      "midi": 54,
      "hit": false,
      "t": 162600,
      "d": 120,
      "v": 93
    },
    {
      "midi": 42,
      "hit": false,
      "t": 162630,
      "d": 400,
      "v": 71
    },
    {
      "midi": 30,
      "hit": false,
      "t": 162900,
      "d": 120,
      "v": 84
    },
    {
      "midi": 61,
      "hit": false,
      "t": 162930,
      "d": 90,
      "v": 64
    },
    {
      "midi": 57,
      "hit": false,
      "t": 162930,
      "d": 110,
      "v": 74
    },
    {
      "midi": 54,
      "hit": false,
      "t": 162930,
      "d": 120,
      "v": 60
    },
    {
      "midi": 54,
      "hit": false,
      "t": 163200,
      "d": 530,
      "v": 100
    },
    {
      "midi": 57,
      "hit": false,
      "t": 163200,
      "d": 570,
      "v": 105
    },
    {
      "midi": 38,
      "hit": false,
      "t": 163200,
      "d": 1730,
      "v": 88
    },
    {
      "midi": 26,
      "hit": false,
      "t": 163200,
      "d": 1950,
      "v": 102
    },
    {
      "midi": 62,
      "hit": false,
      "t": 163230,
      "d": 970,
      "v": 80
    },
    {
      "midi": 54,
      "hit": false,
      "t": 163230,
      "d": 1050,
      "v": 67
    },
    {
      "midi": 57,
      "hit": false,
      "t": 163230,
      "d": 1070,
      "v": 83
    },
    {
      "midi": 38,
      "hit": false,
      "t": 163230,
      "d": 1500,
      "v": 80
    },
    {
      "midi": 50,
      "hit": false,
      "t": 163800,
      "d": 580,
      "v": 91
    },
    {
      "midi": 54,
      "hit": false,
      "t": 164400,
      "d": 390,
      "v": 98
    },
    {
      "midi": 57,
      "hit": false,
      "t": 164400,
      "d": 400,
      "v": 106
    },
    {
      "midi": 54,
      "hit": false,
      "t": 164430,
      "d": 640,
      "v": 64
    },
    {
      "midi": 62,
      "hit": false,
      "t": 164430,
      "d": 650,
      "v": 72
    },
    {
      "midi": 57,
      "hit": false,
      "t": 164430,
      "d": 680,
      "v": 92
    },
    {
      "midi": 38,
      "hit": false,
      "t": 165000,
      "d": 160,
      "v": 93
    },
    {
      "midi": 38,
      "hit": false,
      "t": 165030,
      "d": 440,
      "v": 62
    },
    {
      "midi": 57,
      "hit": false,
      "t": 165330,
      "d": 90,
      "v": 57
    },
    {
      "midi": 54,
      "hit": false,
      "t": 165330,
      "d": 100,
      "v": 47
    },
    {
      "midi": 62,
      "hit": false,
      "t": 165330,
      "d": 100,
      "v": 57
    },
    {
      "midi": 52,
      "hit": false,
      "t": 165600,
      "d": 420,
      "v": 88
    },
    {
      "midi": 57,
      "hit": false,
      "t": 165600,
      "d": 420,
      "v": 120
    },
    {
      "midi": 61,
      "hit": false,
      "t": 165600,
      "d": 470,
      "v": 107
    },
    {
      "midi": 45,
      "hit": false,
      "t": 165600,
      "d": 1680,
      "v": 77
    },
    {
      "midi": 33,
      "hit": false,
      "t": 165600,
      "d": 2160,
      "v": 114
    },
    {
      "midi": 61,
      "hit": false,
      "t": 165630,
      "d": 1070,
      "v": 74
    },
    {
      "midi": 52,
      "hit": false,
      "t": 165630,
      "d": 1140,
      "v": 74
    },
    {
      "midi": 57,
      "hit": false,
      "t": 165630,
      "d": 1170,
      "v": 89
    },
    {
      "midi": 45,
      "hit": false,
      "t": 165630,
      "d": 1570,
      "v": 78
    },
    {
      "midi": 52,
      "hit": false,
      "t": 166200,
      "d": 250,
      "v": 101
    },
    {
      "midi": 57,
      "hit": false,
      "t": 166800,
      "d": 490,
      "v": 116
    },
    {
      "midi": 61,
      "hit": false,
      "t": 166800,
      "d": 590,
      "v": 103
    },
    {
      "midi": 61,
      "hit": false,
      "t": 166830,
      "d": 640,
      "v": 74
    },
    {
      "midi": 57,
      "hit": false,
      "t": 166830,
      "d": 660,
      "v": 78
    },
    {
      "midi": 52,
      "hit": false,
      "t": 166830,
      "d": 680,
      "v": 68
    },
    {
      "midi": 52,
      "hit": false,
      "t": 167400,
      "d": 130,
      "v": 99
    },
    {
      "midi": 45,
      "hit": false,
      "t": 167430,
      "d": 370,
      "v": 80
    },
    {
      "midi": 45,
      "hit": false,
      "t": 167700,
      "d": 100,
      "v": 90
    },
    {
      "midi": 52,
      "hit": false,
      "t": 167730,
      "d": 120,
      "v": 52
    },
    {
      "midi": 57,
      "hit": false,
      "t": 167730,
      "d": 130,
      "v": 68
    },
    {
      "midi": 61,
      "hit": false,
      "t": 167730,
      "d": 140,
      "v": 57
    },
    {
      "midi": 62,
      "hit": false,
      "t": 168000,
      "d": 640,
      "v": 105
    },
    {
      "midi": 57,
      "hit": false,
      "t": 168000,
      "d": 660,
      "v": 114
    },
    {
      "midi": 54,
      "hit": false,
      "t": 168000,
      "d": 680,
      "v": 90
    },
    {
      "midi": 38,
      "hit": false,
      "t": 168000,
      "d": 1040,
      "v": 110
    },
    {
      "midi": 57,
      "hit": false,
      "t": 168030,
      "d": 990,
      "v": 92
    },
    {
      "midi": 62,
      "hit": false,
      "t": 168030,
      "d": 990,
      "v": 86
    },
    {
      "midi": 54,
      "hit": false,
      "t": 168030,
      "d": 1030,
      "v": 67
    },
    {
      "midi": 38,
      "hit": false,
      "t": 168030,
      "d": 1120,
      "v": 70
    },
    {
      "midi": 52,
      "hit": false,
      "t": 169200,
      "d": 620,
      "v": 88
    },
    {
      "midi": 61,
      "hit": false,
      "t": 169200,
      "d": 680,
      "v": 98
    },
    {
      "midi": 57,
      "hit": false,
      "t": 169200,
      "d": 700,
      "v": 112
    },
    {
      "midi": 37,
      "hit": false,
      "t": 169200,
      "d": 900,
      "v": 111
    },
    {
      "midi": 52,
      "hit": false,
      "t": 169230,
      "d": 810,
      "v": 74
    },
    {
      "midi": 61,
      "hit": false,
      "t": 169230,
      "d": 900,
      "v": 74
    },
    {
      "midi": 57,
      "hit": false,
      "t": 169230,
      "d": 970,
      "v": 92
    },
    {
      "midi": 37,
      "hit": false,
      "t": 169230,
      "d": 1080,
      "v": 63
    },
    {
      "midi": 62,
      "hit": false,
      "t": 170400,
      "d": 670,
      "v": 103
    },
    {
      "midi": 54,
      "hit": false,
      "t": 170400,
      "d": 700,
      "v": 90
    },
    {
      "midi": 59,
      "hit": false,
      "t": 170400,
      "d": 700,
      "v": 114
    },
    {
      "midi": 35,
      "hit": false,
      "t": 170400,
      "d": 1030,
      "v": 110
    },
    {
      "midi": 62,
      "hit": false,
      "t": 170430,
      "d": 900,
      "v": 68
    },
    {
      "midi": 59,
      "hit": false,
      "t": 170430,
      "d": 960,
      "v": 86
    },
    {
      "midi": 54,
      "hit": false,
      "t": 170430,
      "d": 970,
      "v": 64
    },
    {
      "midi": 35,
      "hit": false,
      "t": 170430,
      "d": 1090,
      "v": 72
    },
    {
      "midi": 52,
      "hit": false,
      "t": 171600,
      "d": 700,
      "v": 88
    },
    {
      "midi": 61,
      "hit": false,
      "t": 171600,
      "d": 710,
      "v": 95
    },
    {
      "midi": 33,
      "hit": false,
      "t": 171600,
      "d": 720,
      "v": 105
    },
    {
      "midi": 57,
      "hit": false,
      "t": 171600,
      "d": 720,
      "v": 116
    },
    {
      "midi": 57,
      "hit": false,
      "t": 171630,
      "d": 950,
      "v": 83
    },
    {
      "midi": 61,
      "hit": false,
      "t": 171630,
      "d": 980,
      "v": 69
    },
    {
      "midi": 52,
      "hit": false,
      "t": 171630,
      "d": 1090,
      "v": 63
    },
    {
      "midi": 33,
      "hit": false,
      "t": 171630,
      "d": 1160,
      "v": 72
    },
    {
      "midi": 52,
      "hit": false,
      "t": 172800,
      "d": 440,
      "v": 82
    },
    {
      "midi": 56,
      "hit": false,
      "t": 172800,
      "d": 550,
      "v": 100
    },
    {
      "midi": 59,
      "hit": false,
      "t": 172800,
      "d": 560,
      "v": 102
    },
    {
      "midi": 40,
      "hit": false,
      "t": 172800,
      "d": 1300,
      "v": 84
    },
    {
      "midi": 28,
      "hit": false,
      "t": 172800,
      "d": 1970,
      "v": 110
    },
    {
      "midi": 56,
      "hit": false,
      "t": 172830,
      "d": 990,
      "v": 71
    },
    {
      "midi": 52,
      "hit": false,
      "t": 172830,
      "d": 1020,
      "v": 65
    },
    {
      "midi": 59,
      "hit": false,
      "t": 172830,
      "d": 1060,
      "v": 74
    },
    {
      "midi": 40,
      "hit": false,
      "t": 172830,
      "d": 1560,
      "v": 78
    },
    {
      "midi": 52,
      "hit": false,
      "t": 173400,
      "d": 350,
      "v": 78
    },
    {
      "midi": 56,
      "hit": false,
      "t": 174000,
      "d": 480,
      "v": 100
    },
    {
      "midi": 59,
      "hit": false,
      "t": 174000,
      "d": 580,
      "v": 112
    },
    {
      "midi": 52,
      "hit": false,
      "t": 174030,
      "d": 650,
      "v": 63
    },
    {
      "midi": 56,
      "hit": false,
      "t": 174030,
      "d": 660,
      "v": 71
    },
    {
      "midi": 59,
      "hit": false,
      "t": 174030,
      "d": 710,
      "v": 70
    },
    {
      "midi": 40,
      "hit": false,
      "t": 174600,
      "d": 190,
      "v": 66
    },
    {
      "midi": 52,
      "hit": false,
      "t": 174600,
      "d": 190,
      "v": 90
    },
    {
      "midi": 40,
      "hit": false,
      "t": 174630,
      "d": 370,
      "v": 63
    },
    {
      "midi": 52,
      "hit": false,
      "t": 174930,
      "d": 120,
      "v": 46
    },
    {
      "midi": 56,
      "hit": false,
      "t": 174930,
      "d": 120,
      "v": 52
    },
    {
      "midi": 59,
      "hit": false,
      "t": 174930,
      "d": 140,
      "v": 56
    },
    {
      "midi": 56,
      "hit": false,
      "t": 175200,
      "d": 440,
      "v": 100
    },
    {
      "midi": 59,
      "hit": false,
      "t": 175200,
      "d": 590,
      "v": 103
    },
    {
      "midi": 40,
      "hit": false,
      "t": 175200,
      "d": 1780,
      "v": 80
    },
    {
      "midi": 28,
      "hit": false,
      "t": 175200,
      "d": 1880,
      "v": 89
    },
    {
      "midi": 56,
      "hit": false,
      "t": 175230,
      "d": 1020,
      "v": 69
    },
    {
      "midi": 52,
      "hit": false,
      "t": 175230,
      "d": 1030,
      "v": 62
    },
    {
      "midi": 59,
      "hit": false,
      "t": 175230,
      "d": 1070,
      "v": 72
    },
    {
      "midi": 40,
      "hit": false,
      "t": 175230,
      "d": 1450,
      "v": 66
    },
    {
      "midi": 52,
      "hit": false,
      "t": 175800,
      "d": 350,
      "v": 97
    },
    {
      "midi": 56,
      "hit": false,
      "t": 176100,
      "d": 250,
      "v": 96
    },
    {
      "midi": 64,
      "hit": false,
      "t": 176400,
      "d": 290,
      "v": 98
    },
    {
      "midi": 56,
      "hit": false,
      "t": 176430,
      "d": 630,
      "v": 66
    },
    {
      "midi": 52,
      "hit": false,
      "t": 176430,
      "d": 680,
      "v": 72
    },
    {
      "midi": 59,
      "hit": false,
      "t": 176430,
      "d": 690,
      "v": 35
    },
    {
      "midi": 59,
      "hit": false,
      "t": 176700,
      "d": 280,
      "v": 105
    },
    {
      "midi": 56,
      "hit": false,
      "t": 177000,
      "d": 230,
      "v": 78
    },
    {
      "midi": 40,
      "hit": false,
      "t": 177030,
      "d": 460,
      "v": 72
    },
    {
      "midi": 52,
      "hit": false,
      "t": 177300,
      "d": 120,
      "v": 94
    },
    {
      "midi": 52,
      "hit": false,
      "t": 177330,
      "d": 90,
      "v": 58
    },
    {
      "midi": 59,
      "hit": false,
      "t": 177330,
      "d": 110,
      "v": 49
    },
    {
      "midi": 56,
      "hit": false,
      "t": 177330,
      "d": 120,
      "v": 57
    },
    {
      "midi": 54,
      "hit": false,
      "t": 177600,
      "d": 560,
      "v": 103
    },
    {
      "midi": 57,
      "hit": false,
      "t": 177600,
      "d": 660,
      "v": 118
    },
    {
      "midi": 26,
      "hit": false,
      "t": 177600,
      "d": 3730,
      "v": 106
    },
    {
      "midi": 38,
      "hit": false,
      "t": 177600,
      "d": 3760,
      "v": 81
    },
    {
      "midi": 62,
      "hit": false,
      "t": 177630,
      "d": 2250,
      "v": 86
    },
    {
      "midi": 54,
      "hit": false,
      "t": 177630,
      "d": 2260,
      "v": 69
    },
    {
      "midi": 57,
      "hit": false,
      "t": 177630,
      "d": 2310,
      "v": 89
    },
    {
      "midi": 38,
      "hit": false,
      "t": 177630,
      "d": 2330,
      "v": 76
    },
    {
      "midi": 50,
      "hit": false,
      "t": 178200,
      "d": 220,
      "v": 79
    },
    {
      "midi": 54,
      "hit": false,
      "t": 178800,
      "d": 610,
      "v": 97
    },
    {
      "midi": 57,
      "hit": false,
      "t": 178800,
      "d": 660,
      "v": 116
    },
    {
      "midi": 54,
      "hit": false,
      "t": 180000,
      "d": 550,
      "v": 92
    },
    {
      "midi": 57,
      "hit": false,
      "t": 180000,
      "d": 670,
      "v": 106
    },
    {
      "midi": 62,
      "hit": false,
      "t": 180030,
      "d": 880,
      "v": 62
    },
    {
      "midi": 54,
      "hit": false,
      "t": 180030,
      "d": 930,
      "v": 61
    },
    {
      "midi": 57,
      "hit": false,
      "t": 180030,
      "d": 990,
      "v": 68
    },
    {
      "midi": 38,
      "hit": false,
      "t": 180030,
      "d": 2300,
      "v": 66
    },
    {
      "midi": 50,
      "hit": false,
      "t": 180600,
      "d": 160,
      "v": 70
    },
    {
      "midi": 57,
      "hit": false,
      "t": 181200,
      "d": 600,
      "v": 99
    },
    {
      "midi": 54,
      "hit": false,
      "t": 181200,
      "d": 640,
      "v": 92
    },
    {
      "midi": 62,
      "hit": false,
      "t": 181230,
      "d": 920,
      "v": 63
    },
    {
      "midi": 57,
      "hit": false,
      "t": 181230,
      "d": 950,
      "v": 83
    },
    {
      "midi": 54,
      "hit": false,
      "t": 181230,
      "d": 990,
      "v": 69
    },
    {
      "midi": 50,
      "hit": false,
      "t": 181800,
      "d": 80,
      "v": 89
    },
    {
      "midi": 52,
      "hit": false,
      "t": 182400,
      "d": 420,
      "v": 82
    },
    {
      "midi": 57,
      "hit": false,
      "t": 182400,
      "d": 510,
      "v": 108
    },
    {
      "midi": 61,
      "hit": false,
      "t": 182400,
      "d": 530,
      "v": 103
    },
    {
      "midi": 45,
      "hit": false,
      "t": 182400,
      "d": 1820,
      "v": 91
    },
    {
      "midi": 33,
      "hit": false,
      "t": 182400,
      "d": 3290,
      "v": 101
    },
    {
      "midi": 52,
      "hit": false,
      "t": 182430,
      "d": 1040,
      "v": 68
    },
    {
      "midi": 61,
      "hit": false,
      "t": 182430,
      "d": 1040,
      "v": 74
    },
    {
      "midi": 57,
      "hit": false,
      "t": 182430,
      "d": 1070,
      "v": 83
    },
    {
      "midi": 45,
      "hit": false,
      "t": 182430,
      "d": 1520,
      "v": 63
    },
    {
      "midi": 52,
      "hit": false,
      "t": 183000,
      "d": 510,
      "v": 90
    },
    {
      "midi": 57,
      "hit": false,
      "t": 183600,
      "d": 510,
      "v": 112
    },
    {
      "midi": 61,
      "hit": false,
      "t": 183600,
      "d": 550,
      "v": 104
    },
    {
      "midi": 61,
      "hit": false,
      "t": 183630,
      "d": 670,
      "v": 71
    },
    {
      "midi": 52,
      "hit": false,
      "t": 183630,
      "d": 680,
      "v": 63
    },
    {
      "midi": 57,
      "hit": false,
      "t": 183630,
      "d": 700,
      "v": 80
    },
    {
      "midi": 52,
      "hit": false,
      "t": 184200,
      "d": 170,
      "v": 84
    },
    {
      "midi": 45,
      "hit": false,
      "t": 184230,
      "d": 340,
      "v": 76
    },
    {
      "midi": 45,
      "hit": false,
      "t": 184500,
      "d": 150,
      "v": 83
    },
    {
      "midi": 61,
      "hit": false,
      "t": 184530,
      "d": 100,
      "v": 69
    },
    {
      "midi": 52,
      "hit": false,
      "t": 184530,
      "d": 130,
      "v": 61
    },
    {
      "midi": 57,
      "hit": false,
      "t": 184530,
      "d": 130,
      "v": 72
    },
    {
      "midi": 57,
      "hit": false,
      "t": 184800,
      "d": 450,
      "v": 112
    },
    {
      "midi": 61,
      "hit": false,
      "t": 184800,
      "d": 500,
      "v": 104
    },
    {
      "midi": 45,
      "hit": false,
      "t": 184800,
      "d": 1500,
      "v": 97
    },
    {
      "midi": 61,
      "hit": false,
      "t": 184830,
      "d": 730,
      "v": 71
    },
    {
      "midi": 52,
      "hit": false,
      "t": 184830,
      "d": 760,
      "v": 63
    },
    {
      "midi": 57,
      "hit": false,
      "t": 184830,
      "d": 800,
      "v": 78
    },
    {
      "midi": 45,
      "hit": false,
      "t": 184830,
      "d": 1030,
      "v": 68
    },
    {
      "midi": 52,
      "hit": false,
      "t": 185400,
      "d": 180,
      "v": 88
    },
    {
      "midi": 57,
      "hit": false,
      "t": 185700,
      "d": 390,
      "v": 110
    },
    {
      "midi": 62,
      "hit": false,
      "t": 185700,
      "d": 390,
      "v": 110
    },
    {
      "midi": 52,
      "hit": false,
      "t": 185730,
      "d": 1160,
      "v": 61
    },
    {
      "midi": 57,
      "hit": false,
      "t": 185730,
      "d": 1220,
      "v": 58
    },
    {
      "midi": 61,
      "hit": false,
      "t": 185730,
      "d": 1250,
      "v": 69
    },
    {
      "midi": 33,
      "hit": false,
      "t": 186000,
      "d": 490,
      "v": 93
    },
    {
      "midi": 45,
      "hit": false,
      "t": 186030,
      "d": 1120,
      "v": 72
    },
    {
      "midi": 52,
      "hit": false,
      "t": 186300,
      "d": 260,
      "v": 96
    },
    {
      "midi": 61,
      "hit": false,
      "t": 186600,
      "d": 240,
      "v": 111
    },
    {
      "midi": 52,
      "hit": false,
      "t": 186900,
      "d": 60,
      "v": 81
    },
    {
      "midi": 54,
      "hit": false,
      "t": 187200,
      "d": 70,
      "v": 88
    },
    {
      "midi": 53,
      "hit": false,
      "t": 187200,
      "d": 600,
      "v": 101
    },
    {
      "midi": 61,
      "hit": false,
      "t": 187200,
      "d": 600,
      "v": 92
    },
    {
      "midi": 56,
      "hit": false,
      "t": 187200,
      "d": 630,
      "v": 106
    },
    {
      "midi": 37,
      "hit": false,
      "t": 187200,
      "d": 1350,
      "v": 72
    },
    {
      "midi": 25,
      "hit": false,
      "t": 187200,
      "d": 1930,
      "v": 88
    },
    {
      "midi": 53,
      "hit": false,
      "t": 187230,
      "d": 1070,
      "v": 66
    },
    {
      "midi": 56,
      "hit": false,
      "t": 187230,
      "d": 1080,
      "v": 74
    },
    {
      "midi": 61,
      "hit": false,
      "t": 187230,
      "d": 1090,
      "v": 71
    },
    {
      "midi": 37,
      "hit": false,
      "t": 187230,
      "d": 1580,
      "v": 69
    },
    {
      "midi": 49,
      "hit": false,
      "t": 187800,
      "d": 440,
      "v": 85
    },
    {
      "midi": 53,
      "hit": false,
      "t": 188400,
      "d": 540,
      "v": 108
    },
    {
      "midi": 56,
      "hit": false,
      "t": 188400,
      "d": 590,
      "v": 106
    },
    {
      "midi": 61,
      "hit": false,
      "t": 188400,
      "d": 590,
      "v": 98
    },
    {
      "midi": 53,
      "hit": false,
      "t": 188430,
      "d": 640,
      "v": 74
    },
    {
      "midi": 56,
      "hit": false,
      "t": 188430,
      "d": 690,
      "v": 74
    },
    {
      "midi": 61,
      "hit": false,
      "t": 188430,
      "d": 700,
      "v": 78
    },
    {
      "midi": 49,
      "hit": false,
      "t": 189000,
      "d": 140,
      "v": 87
    },
    {
      "midi": 37,
      "hit": false,
      "t": 189000,
      "d": 180,
      "v": 87
    },
    {
      "midi": 37,
      "hit": false,
      "t": 189030,
      "d": 410,
      "v": 67
    },
    {
      "midi": 56,
      "hit": false,
      "t": 189330,
      "d": 100,
      "v": 55
    },
    {
      "midi": 53,
      "hit": false,
      "t": 189330,
      "d": 120,
      "v": 51
    },
    {
      "midi": 61,
      "hit": false,
      "t": 189330,
      "d": 120,
      "v": 63
    },
    {
      "midi": 53,
      "hit": false,
      "t": 189600,
      "d": 560,
      "v": 102
    },
    {
      "midi": 61,
      "hit": false,
      "t": 189600,
      "d": 590,
      "v": 84
    },
    {
      "midi": 56,
      "hit": false,
      "t": 189600,
      "d": 620,
      "v": 103
    },
    {
      "midi": 37,
      "hit": false,
      "t": 189600,
      "d": 1550,
      "v": 88
    },
    {
      "midi": 25,
      "hit": false,
      "t": 189600,
      "d": 1910,
      "v": 109
    },
    {
      "midi": 53,
      "hit": false,
      "t": 189630,
      "d": 1020,
      "v": 63
    },
    {
      "midi": 56,
      "hit": false,
      "t": 189630,
      "d": 1050,
      "v": 71
    },
    {
      "midi": 61,
      "hit": false,
      "t": 189630,
      "d": 1070,
      "v": 71
    },
    {
      "midi": 37,
      "hit": false,
      "t": 189630,
      "d": 1590,
      "v": 71
    },
    {
      "midi": 49,
      "hit": false,
      "t": 190200,
      "d": 350,
      "v": 97
    },
    {
      "midi": 61,
      "hit": false,
      "t": 190800,
      "d": 510,
      "v": 97
    },
    {
      "midi": 53,
      "hit": false,
      "t": 190800,
      "d": 540,
      "v": 108
    },
    {
      "midi": 56,
      "hit": false,
      "t": 190800,
      "d": 600,
      "v": 107
    },
    {
      "midi": 56,
      "hit": false,
      "t": 190830,
      "d": 670,
      "v": 67
    },
    {
      "midi": 61,
      "hit": false,
      "t": 190830,
      "d": 670,
      "v": 71
    },
    {
      "midi": 53,
      "hit": false,
      "t": 190830,
      "d": 700,
      "v": 72
    },
    {
      "midi": 37,
      "hit": false,
      "t": 191400,
      "d": 130,
      "v": 100
    },
    {
      "midi": 49,
      "hit": false,
      "t": 191400,
      "d": 140,
      "v": 101
    },
    {
      "midi": 37,
      "hit": false,
      "t": 191430,
      "d": 460,
      "v": 101
    },
    {
      "midi": 53,
      "hit": false,
      "t": 191730,
      "d": 110,
      "v": 58
    },
    {
      "midi": 61,
      "hit": false,
      "t": 191730,
      "d": 110,
      "v": 61
    },
    {
      "midi": 56,
      "hit": false,
      "t": 191730,
      "d": 120,
      "v": 60
    },
    {
      "midi": 57,
      "hit": false,
      "t": 192000,
      "d": 610,
      "v": 114
    },
    {
      "midi": 54,
      "hit": false,
      "t": 192000,
      "d": 620,
      "v": 103
    },
    {
      "midi": 61,
      "hit": false,
      "t": 192000,
      "d": 660,
      "v": 96
    },
    {
      "midi": 42,
      "hit": false,
      "t": 192000,
      "d": 1680,
      "v": 81
    },
    {
      "midi": 30,
      "hit": false,
      "t": 192000,
      "d": 4570,
      "v": 103
    },
    {
      "midi": 61,
      "hit": false,
      "t": 192030,
      "d": 970,
      "v": 67
    },
    {
      "midi": 54,
      "hit": false,
      "t": 192030,
      "d": 1000,
      "v": 66
    },
    {
      "midi": 57,
      "hit": false,
      "t": 192030,
      "d": 1070,
      "v": 83
    },
    {
      "midi": 42,
      "hit": false,
      "t": 192030,
      "d": 1510,
      "v": 71
    },
    {
      "midi": 49,
      "hit": false,
      "t": 192600,
      "d": 580,
      "v": 83
    },
    {
      "midi": 57,
      "hit": false,
      "t": 193200,
      "d": 480,
      "v": 112
    },
    {
      "midi": 54,
      "hit": false,
      "t": 193200,
      "d": 680,
      "v": 98
    },
    {
      "midi": 61,
      "hit": false,
      "t": 193200,
      "d": 710,
      "v": 109
    },
    {
      "midi": 61,
      "hit": false,
      "t": 193230,
      "d": 640,
      "v": 71
    },
    {
      "midi": 54,
      "hit": false,
      "t": 193230,
      "d": 670,
      "v": 71
    },
    {
      "midi": 57,
      "hit": false,
      "t": 193230,
      "d": 710,
      "v": 86
    },
    {
      "midi": 49,
      "hit": false,
      "t": 193800,
      "d": 80,
      "v": 98
    },
    {
      "midi": 42,
      "hit": false,
      "t": 193830,
      "d": 380,
      "v": 85
    },
    {
      "midi": 61,
      "hit": false,
      "t": 194130,
      "d": 40,
      "v": 58
    },
    {
      "midi": 54,
      "hit": false,
      "t": 194130,
      "d": 90,
      "v": 56
    },
    {
      "midi": 57,
      "hit": false,
      "t": 194130,
      "d": 120,
      "v": 74
    },
    {
      "midi": 68,
      "hit": false,
      "t": 194400,
      "d": 70,
      "v": 82
    },
    {
      "midi": 56,
      "hit": false,
      "t": 194400,
      "d": 80,
      "v": 104
    },
    {
      "midi": 42,
      "hit": false,
      "t": 194400,
      "d": 1830,
      "v": 100
    },
    {
      "midi": 61,
      "hit": false,
      "t": 194430,
      "d": 960,
      "v": 69
    },
    {
      "midi": 54,
      "hit": false,
      "t": 194430,
      "d": 1080,
      "v": 66
    },
    {
      "midi": 57,
      "hit": false,
      "t": 194430,
      "d": 1110,
      "v": 83
    },
    {
      "midi": 42,
      "hit": false,
      "t": 194430,
      "d": 1520,
      "v": 69
    },
    {
      "midi": 54,
      "hit": false,
      "t": 195000,
      "d": 30,
      "v": 91
    },
    {
      "midi": 49,
      "hit": false,
      "t": 195000,
      "d": 60,
      "v": 100
    },
    {
      "midi": 57,
      "hit": false,
      "t": 195000,
      "d": 60,
      "v": 116
    },
    {
      "midi": 69,
      "hit": false,
      "t": 195600,
      "d": 50,
      "v": 116
    },
    {
      "midi": 57,
      "hit": false,
      "t": 195600,
      "d": 70,
      "v": 102
    },
    {
      "midi": 61,
      "hit": false,
      "t": 195630,
      "d": 640,
      "v": 71
    },
    {
      "midi": 54,
      "hit": false,
      "t": 195630,
      "d": 680,
      "v": 69
    },
    {
      "midi": 57,
      "hit": false,
      "t": 195630,
      "d": 730,
      "v": 89
    },
    {
      "midi": 54,
      "hit": false,
      "t": 196200,
      "d": 40,
      "v": 91
    },
    {
      "midi": 57,
      "hit": false,
      "t": 196200,
      "d": 60,
      "v": 116
    },
    {
      "midi": 49,
      "hit": false,
      "t": 196200,
      "d": 90,
      "v": 101
    },
    {
      "midi": 42,
      "hit": false,
      "t": 196230,
      "d": 450,
      "v": 71
    },
    {
      "midi": 61,
      "hit": false,
      "t": 196530,
      "d": 100,
      "v": 56
    },
    {
      "midi": 54,
      "hit": false,
      "t": 196530,
      "d": 130,
      "v": 50
    },
    {
      "midi": 57,
      "hit": false,
      "t": 196530,
      "d": 130,
      "v": 66
    },
    {
      "midi": 37,
      "hit": false,
      "t": 196800,
      "d": 1840,
      "v": 127
    },
    {
      "midi": 53,
      "hit": false,
      "t": 196830,
      "d": 990,
      "v": 74
    },
    {
      "midi": 56,
      "hit": false,
      "t": 196830,
      "d": 1010,
      "v": 74
    },
    {
      "midi": 61,
      "hit": false,
      "t": 196830,
      "d": 1010,
      "v": 78
    },
    {
      "midi": 37,
      "hit": false,
      "t": 196830,
      "d": 1530,
      "v": 71
    },
    {
      "midi": 49,
      "hit": false,
      "t": 197400,
      "d": 660,
      "v": 93
    },
    {
      "midi": 53,
      "hit": false,
      "t": 198000,
      "d": 530,
      "v": 108
    },
    {
      "midi": 61,
      "hit": false,
      "t": 198000,
      "d": 560,
      "v": 101
    },
    {
      "midi": 56,
      "hit": false,
      "t": 198000,
      "d": 580,
      "v": 104
    },
    {
      "midi": 53,
      "hit": false,
      "t": 198030,
      "d": 670,
      "v": 68
    },
    {
      "midi": 61,
      "hit": false,
      "t": 198030,
      "d": 700,
      "v": 69
    },
    {
      "midi": 56,
      "hit": false,
      "t": 198030,
      "d": 730,
      "v": 71
    },
    {
      "midi": 49,
      "hit": false,
      "t": 198600,
      "d": 160,
      "v": 93
    },
    {
      "midi": 25,
      "hit": false,
      "t": 198600,
      "d": 170,
      "v": 97
    },
    {
      "midi": 37,
      "hit": false,
      "t": 198630,
      "d": 360,
      "v": 66
    },
    {
      "midi": 61,
      "hit": false,
      "t": 198930,
      "d": 120,
      "v": 67
    },
    {
      "midi": 56,
      "hit": false,
      "t": 198930,
      "d": 130,
      "v": 69
    },
    {
      "midi": 53,
      "hit": false,
      "t": 198930,
      "d": 150,
      "v": 59
    },
    {
      "midi": 53,
      "hit": false,
      "t": 199200,
      "d": 530,
      "v": 105
    },
    {
      "midi": 61,
      "hit": false,
      "t": 199200,
      "d": 560,
      "v": 97
    },
    {
      "midi": 56,
      "hit": false,
      "t": 199200,
      "d": 600,
      "v": 103
    },
    {
      "midi": 37,
      "hit": false,
      "t": 199200,
      "d": 1430,
      "v": 86
    },
    {
      "midi": 25,
      "hit": false,
      "t": 199200,
      "d": 1900,
      "v": 98
    },
    {
      "midi": 56,
      "hit": false,
      "t": 199230,
      "d": 1010,
      "v": 74
    },
    {
      "midi": 53,
      "hit": false,
      "t": 199230,
      "d": 1020,
      "v": 68
    },
    {
      "midi": 61,
      "hit": false,
      "t": 199230,
      "d": 1020,
      "v": 78
    },
    {
      "midi": 37,
      "hit": false,
      "t": 199230,
      "d": 1580,
      "v": 78
    },
    {
      "midi": 49,
      "hit": false,
      "t": 199800,
      "d": 470,
      "v": 97
    },
    {
      "midi": 53,
      "hit": false,
      "t": 200400,
      "d": 550,
      "v": 114
    },
    {
      "midi": 56,
      "hit": false,
      "t": 200400,
      "d": 600,
      "v": 106
    },
    {
      "midi": 61,
      "hit": false,
      "t": 200400,
      "d": 610,
      "v": 93
    },
    {
      "midi": 53,
      "hit": false,
      "t": 200430,
      "d": 680,
      "v": 62
    },
    {
      "midi": 56,
      "hit": false,
      "t": 200430,
      "d": 680,
      "v": 69
    },
    {
      "midi": 61,
      "hit": false,
      "t": 200430,
      "d": 690,
      "v": 67
    },
    {
      "midi": 49,
      "hit": false,
      "t": 201000,
      "d": 120,
      "v": 97
    },
    {
      "midi": 37,
      "hit": false,
      "t": 201000,
      "d": 150,
      "v": 90
    },
    {
      "midi": 37,
      "hit": false,
      "t": 201030,
      "d": 520,
      "v": 71
    },
    {
      "midi": 53,
      "hit": false,
      "t": 201330,
      "d": 100,
      "v": 58
    },
    {
      "midi": 61,
      "hit": false,
      "t": 201330,
      "d": 110,
      "v": 58
    },
    {
      "midi": 56,
      "hit": false,
      "t": 201330,
      "d": 130,
      "v": 67
    },
    {
      "midi": 54,
      "hit": false,
      "t": 201600,
      "d": 610,
      "v": 103
    },
    {
      "midi": 57,
      "hit": false,
      "t": 201600,
      "d": 630,
      "v": 114
    },
    {
      "midi": 42,
      "hit": false,
      "t": 201600,
      "d": 1430,
      "v": 50
    },
    {
      "midi": 30,
      "hit": false,
      "t": 201600,
      "d": 4650,
      "v": 97
    },
    {
      "midi": 61,
      "hit": false,
      "t": 201630,
      "d": 1040,
      "v": 69
    },
    {
      "midi": 57,
      "hit": false,
      "t": 201630,
      "d": 1060,
      "v": 78
    },
    {
      "midi": 54,
      "hit": false,
      "t": 201630,
      "d": 1090,
      "v": 61
    },
    {
      "midi": 42,
      "hit": false,
      "t": 201630,
      "d": 1510,
      "v": 69
    },
    {
      "midi": 49,
      "hit": false,
      "t": 202200,
      "d": 590,
      "v": 95
    },
    {
      "midi": 57,
      "hit": false,
      "t": 202800,
      "d": 490,
      "v": 118
    },
    {
      "midi": 54,
      "hit": false,
      "t": 202800,
      "d": 640,
      "v": 107
    },
    {
      "midi": 54,
      "hit": false,
      "t": 202830,
      "d": 600,
      "v": 63
    },
    {
      "midi": 61,
      "hit": false,
      "t": 202830,
      "d": 610,
      "v": 71
    },
    {
      "midi": 57,
      "hit": false,
      "t": 202830,
      "d": 640,
      "v": 89
    },
    {
      "midi": 49,
      "hit": false,
      "t": 203400,
      "d": 90,
      "v": 100
    },
    {
      "midi": 42,
      "hit": false,
      "t": 203400,
      "d": 130,
      "v": 103
    },
    {
      "midi": 42,
      "hit": false,
      "t": 203430,
      "d": 360,
      "v": 57
    },
    {
      "midi": 61,
      "hit": false,
      "t": 203730,
      "d": 100,
      "v": 69
    },
    {
      "midi": 54,
      "hit": false,
      "t": 203730,
      "d": 120,
      "v": 64
    },
    {
      "midi": 57,
      "hit": false,
      "t": 203730,
      "d": 120,
      "v": 78
    },
    {
      "midi": 68,
      "hit": false,
      "t": 204000,
      "d": 80,
      "v": 97
    },
    {
      "midi": 56,
      "hit": false,
      "t": 204000,
      "d": 90,
      "v": 97
    },
    {
      "midi": 42,
      "hit": false,
      "t": 204000,
      "d": 2060,
      "v": 91
    },
    {
      "midi": 61,
      "hit": false,
      "t": 204030,
      "d": 1050,
      "v": 69
    },
    {
      "midi": 54,
      "hit": false,
      "t": 204030,
      "d": 1090,
      "v": 61
    },
    {
      "midi": 57,
      "hit": false,
      "t": 204030,
      "d": 1090,
      "v": 80
    },
    {
      "midi": 42,
      "hit": false,
      "t": 204030,
      "d": 1550,
      "v": 67
    },
    {
      "midi": 57,
      "hit": false,
      "t": 204600,
      "d": 40,
      "v": 106
    },
    {
      "midi": 54,
      "hit": false,
      "t": 204600,
      "d": 60,
      "v": 101
    },
    {
      "midi": 49,
      "hit": false,
      "t": 204600,
      "d": 70,
      "v": 82
    },
    {
      "midi": 69,
      "hit": false,
      "t": 205200,
      "d": 30,
      "v": 77
    },
    {
      "midi": 57,
      "hit": false,
      "t": 205200,
      "d": 40,
      "v": 101
    },
    {
      "midi": 61,
      "hit": false,
      "t": 205230,
      "d": 670,
      "v": 74
    },
    {
      "midi": 54,
      "hit": false,
      "t": 205230,
      "d": 680,
      "v": 66
    },
    {
      "midi": 57,
      "hit": false,
      "t": 205230,
      "d": 690,
      "v": 89
    },
    {
      "midi": 49,
      "hit": false,
      "t": 205800,
      "d": 60,
      "v": 88
    },
    {
      "midi": 42,
      "hit": false,
      "t": 205830,
      "d": 420,
      "v": 69
    },
    {
      "midi": 61,
      "hit": false,
      "t": 206130,
      "d": 50,
      "v": 50
    },
    {
      "midi": 54,
      "hit": false,
      "t": 206130,
      "d": 90,
      "v": 37
    },
    {
      "midi": 57,
      "hit": false,
      "t": 206130,
      "d": 110,
      "v": 62
    },
    {
      "midi": 50,
      "hit": false,
      "t": 206400,
      "d": 330,
      "v": 94
    },
    {
      "midi": 54,
      "hit": false,
      "t": 206400,
      "d": 460,
      "v": 107
    },
    {
      "midi": 59,
      "hit": false,
      "t": 206400,
      "d": 490,
      "v": 108
    },
    {
      "midi": 35,
      "hit": false,
      "t": 206400,
      "d": 1290,
      "v": 120
    },
    {
      "midi": 62,
      "hit": false,
      "t": 206430,
      "d": 1000,
      "v": 65
    },
    {
      "midi": 59,
      "hit": false,
      "t": 206430,
      "d": 1050,
      "v": 80
    },
    {
      "midi": 54,
      "hit": false,
      "t": 206430,
      "d": 1070,
      "v": 57
    },
    {
      "midi": 35,
      "hit": false,
      "t": 206430,
      "d": 1490,
      "v": 76
    },
    {
      "midi": 50,
      "hit": false,
      "t": 207000,
      "d": 590,
      "v": 102
    },
    {
      "midi": 54,
      "hit": false,
      "t": 207600,
      "d": 530,
      "v": 104
    },
    {
      "midi": 59,
      "hit": false,
      "t": 207600,
      "d": 570,
      "v": 114
    },
    {
      "midi": 62,
      "hit": false,
      "t": 207630,
      "d": 630,
      "v": 66
    },
    {
      "midi": 54,
      "hit": false,
      "t": 207630,
      "d": 650,
      "v": 63
    },
    {
      "midi": 59,
      "hit": false,
      "t": 207630,
      "d": 650,
      "v": 76
    },
    {
      "midi": 35,
      "hit": false,
      "t": 208200,
      "d": 140,
      "v": 112
    },
    {
      "midi": 50,
      "hit": false,
      "t": 208200,
      "d": 170,
      "v": 96
    },
    {
      "midi": 35,
      "hit": false,
      "t": 208230,
      "d": 360,
      "v": 66
    },
    {
      "midi": 62,
      "hit": false,
      "t": 208530,
      "d": 70,
      "v": 55
    },
    {
      "midi": 54,
      "hit": false,
      "t": 208530,
      "d": 110,
      "v": 39
    },
    {
      "midi": 59,
      "hit": false,
      "t": 208530,
      "d": 130,
      "v": 55
    },
    {
      "midi": 54,
      "hit": false,
      "t": 208800,
      "d": 530,
      "v": 103
    },
    {
      "midi": 59,
      "hit": false,
      "t": 208800,
      "d": 570,
      "v": 106
    },
    {
      "midi": 35,
      "hit": false,
      "t": 208800,
      "d": 1320,
      "v": 106
    },
    {
      "midi": 62,
      "hit": false,
      "t": 208830,
      "d": 950,
      "v": 76
    },
    {
      "midi": 54,
      "hit": false,
      "t": 208830,
      "d": 1000,
      "v": 66
    },
    {
      "midi": 59,
      "hit": false,
      "t": 208830,
      "d": 1010,
      "v": 78
    },
    {
      "midi": 35,
      "hit": false,
      "t": 208830,
      "d": 1620,
      "v": 80
    },
    {
      "midi": 50,
      "hit": false,
      "t": 209400,
      "d": 440,
      "v": 92
    },
    {
      "midi": 54,
      "hit": false,
      "t": 210000,
      "d": 630,
      "v": 103
    },
    {
      "midi": 59,
      "hit": false,
      "t": 210000,
      "d": 640,
      "v": 102
    },
    {
      "midi": 54,
      "hit": false,
      "t": 210030,
      "d": 660,
      "v": 64
    },
    {
      "midi": 59,
      "hit": false,
      "t": 210030,
      "d": 660,
      "v": 76
    },
    {
      "midi": 62,
      "hit": false,
      "t": 210030,
      "d": 670,
      "v": 70
    },
    {
      "midi": 50,
      "hit": false,
      "t": 210600,
      "d": 90,
      "v": 91
    },
    {
      "midi": 35,
      "hit": false,
      "t": 210630,
      "d": 490,
      "v": 51
    },
    {
      "midi": 59,
      "hit": false,
      "t": 210930,
      "d": 60,
      "v": 68
    },
    {
      "midi": 62,
      "hit": false,
      "t": 210930,
      "d": 130,
      "v": 66
    },
    {
      "midi": 54,
      "hit": false,
      "t": 210930,
      "d": 140,
      "v": 58
    },
    {
      "midi": 57,
      "hit": false,
      "t": 211200,
      "d": 580,
      "v": 116
    },
    {
      "midi": 61,
      "hit": false,
      "t": 211200,
      "d": 600,
      "v": 97
    },
    {
      "midi": 33,
      "hit": false,
      "t": 211200,
      "d": 1450,
      "v": 91
    },
    {
      "midi": 45,
      "hit": false,
      "t": 211200,
      "d": 2000,
      "v": 93
    },
    {
      "midi": 61,
      "hit": false,
      "t": 211230,
      "d": 1030,
      "v": 74
    },
    {
      "midi": 57,
      "hit": false,
      "t": 211230,
      "d": 1060,
      "v": 83
    },
    {
      "midi": 52,
      "hit": false,
      "t": 211230,
      "d": 1070,
      "v": 72
    },
    {
      "midi": 45,
      "hit": false,
      "t": 211230,
      "d": 1500,
      "v": 80
    },
    {
      "midi": 52,
      "hit": false,
      "t": 211800,
      "d": 630,
      "v": 88
    },
    {
      "midi": 57,
      "hit": false,
      "t": 212400,
      "d": 520,
      "v": 112
    },
    {
      "midi": 61,
      "hit": false,
      "t": 212400,
      "d": 630,
      "v": 101
    },
    {
      "midi": 61,
      "hit": false,
      "t": 212430,
      "d": 670,
      "v": 69
    },
    {
      "midi": 57,
      "hit": false,
      "t": 212430,
      "d": 680,
      "v": 80
    },
    {
      "midi": 52,
      "hit": false,
      "t": 212430,
      "d": 690,
      "v": 68
    },
    {
      "midi": 52,
      "hit": false,
      "t": 213000,
      "d": 130,
      "v": 90
    },
    {
      "midi": 33,
      "hit": false,
      "t": 213000,
      "d": 360,
      "v": 86
    },
    {
      "midi": 45,
      "hit": false,
      "t": 213030,
      "d": 400,
      "v": 78
    },
    {
      "midi": 61,
      "hit": false,
      "t": 213330,
      "d": 70,
      "v": 57
    },
    {
      "midi": 52,
      "hit": false,
      "t": 213330,
      "d": 120,
      "v": 57
    },
    {
      "midi": 57,
      "hit": false,
      "t": 213330,
      "d": 130,
      "v": 70
    },
    {
      "midi": 62,
      "hit": false,
      "t": 213600,
      "d": 660,
      "v": 102
    },
    {
      "midi": 54,
      "hit": false,
      "t": 213600,
      "d": 680,
      "v": 89
    },
    {
      "midi": 57,
      "hit": false,
      "t": 213600,
      "d": 680,
      "v": 112
    },
    {
      "midi": 38,
      "hit": false,
      "t": 213600,
      "d": 1120,
      "v": 101
    },
    {
      "midi": 38,
      "hit": false,
      "t": 213630,
      "d": 490,
      "v": 70
    },
    {
      "midi": 62,
      "hit": false,
      "t": 213630,
      "d": 670,
      "v": 74
    },
    {
      "midi": 54,
      "hit": false,
      "t": 213630,
      "d": 680,
      "v": 63
    },
    {
      "midi": 57,
      "hit": false,
      "t": 213630,
      "d": 720,
      "v": 78
    },
    {
      "midi": 38,
      "hit": false,
      "t": 214230,
      "d": 290,
      "v": 72
    },
    {
      "midi": 62,
      "hit": false,
      "t": 214530,
      "d": 110,
      "v": 72
    },
    {
      "midi": 54,
      "hit": false,
      "t": 214530,
      "d": 140,
      "v": 61
    },
    {
      "midi": 57,
      "hit": false,
      "t": 214530,
      "d": 140,
      "v": 76
    },
    {
      "midi": 57,
      "hit": false,
      "t": 214800,
      "d": 710,
      "v": 116
    },
    {
      "midi": 52,
      "hit": false,
      "t": 214800,
      "d": 720,
      "v": 98
    },
    {
      "midi": 61,
      "hit": false,
      "t": 214800,
      "d": 720,
      "v": 97
    },
    {
      "midi": 33,
      "hit": false,
      "t": 214800,
      "d": 970,
      "v": 116
    },
    {
      "midi": 33,
      "hit": false,
      "t": 214830,
      "d": 750,
      "v": 83
    },
    {
      "midi": 57,
      "hit": false,
      "t": 215430,
      "d": 370,
      "v": 78
    },
    {
      "midi": 61,
      "hit": false,
      "t": 215430,
      "d": 380,
      "v": 66
    },
    {
      "midi": 52,
      "hit": false,
      "t": 215430,
      "d": 410,
      "v": 63
    },
    {
      "midi": 33,
      "hit": false,
      "t": 215730,
      "d": 210,
      "v": 74
    },
    {
      "midi": 52,
      "hit": false,
      "t": 216000,
      "d": 790,
      "v": 89
    },
    {
      "midi": 56,
      "hit": false,
      "t": 216000,
      "d": 800,
      "v": 101
    },
    {
      "midi": 59,
      "hit": false,
      "t": 216000,
      "d": 840,
      "v": 89
    },
    {
      "midi": 40,
      "hit": false,
      "t": 216000,
      "d": 1370,
      "v": 95
    },
    {
      "midi": 56,
      "hit": false,
      "t": 216030,
      "d": 1050,
      "v": 69
    },
    {
      "midi": 52,
      "hit": false,
      "t": 216030,
      "d": 1060,
      "v": 59
    },
    {
      "midi": 59,
      "hit": false,
      "t": 216030,
      "d": 1060,
      "v": 76
    },
    {
      "midi": 40,
      "hit": false,
      "t": 216030,
      "d": 1550,
      "v": 74
    },
    {
      "midi": 59,
      "hit": false,
      "t": 217200,
      "d": 440,
      "v": 105
    },
    {
      "midi": 52,
      "hit": false,
      "t": 217200,
      "d": 470,
      "v": 85
    },
    {
      "midi": 56,
      "hit": false,
      "t": 217200,
      "d": 490,
      "v": 97
    },
    {
      "midi": 59,
      "hit": false,
      "t": 217230,
      "d": 530,
      "v": 70
    },
    {
      "midi": 56,
      "hit": false,
      "t": 217230,
      "d": 590,
      "v": 71
    },
    {
      "midi": 52,
      "hit": false,
      "t": 217230,
      "d": 600,
      "v": 57
    },
    {
      "midi": 40,
      "hit": false,
      "t": 217800,
      "d": 320,
      "v": 98
    },
    {
      "midi": 40,
      "hit": false,
      "t": 217830,
      "d": 420,
      "v": 74
    },
    {
      "midi": 56,
      "hit": false,
      "t": 218130,
      "d": 90,
      "v": 64
    },
    {
      "midi": 52,
      "hit": false,
      "t": 218130,
      "d": 100,
      "v": 56
    },
    {
      "midi": 59,
      "hit": false,
      "t": 218130,
      "d": 100,
      "v": 66
    },
    {
      "midi": 53,
      "hit": false,
      "t": 218400,
      "d": 640,
      "v": 87
    },
    {
      "midi": 56,
      "hit": false,
      "t": 218400,
      "d": 680,
      "v": 103
    },
    {
      "midi": 61,
      "hit": false,
      "t": 218400,
      "d": 730,
      "v": 105
    },
    {
      "midi": 37,
      "hit": false,
      "t": 218400,
      "d": 1060,
      "v": 114
    },
    {
      "midi": 53,
      "hit": false,
      "t": 218430,
      "d": 910,
      "v": 61
    },
    {
      "midi": 56,
      "hit": false,
      "t": 218430,
      "d": 910,
      "v": 71
    },
    {
      "midi": 61,
      "hit": false,
      "t": 218430,
      "d": 980,
      "v": 78
    },
    {
      "midi": 37,
      "hit": false,
      "t": 218430,
      "d": 1180,
      "v": 78
    },
    {
      "midi": 35,
      "hit": false,
      "t": 219600,
      "d": 570,
      "v": 118
    },
    {
      "midi": 50,
      "hit": false,
      "t": 219600,
      "d": 620,
      "v": 98
    },
    {
      "midi": 54,
      "hit": false,
      "t": 219600,
      "d": 620,
      "v": 116
    },
    {
      "midi": 59,
      "hit": false,
      "t": 219600,
      "d": 630,
      "v": 98
    },
    {
      "midi": 54,
      "hit": false,
      "t": 219630,
      "d": 970,
      "v": 86
    },
    {
      "midi": 50,
      "hit": false,
      "t": 219630,
      "d": 980,
      "v": 66
    },
    {
      "midi": 59,
      "hit": false,
      "t": 219630,
      "d": 1000,
      "v": 69
    },
    {
      "midi": 35,
      "hit": false,
      "t": 219630,
      "d": 1120,
      "v": 86
    },
    {
      "midi": 42,
      "hit": false,
      "t": 220800,
      "d": 440,
      "v": 92
    },
    {
      "midi": 49,
      "hit": false,
      "t": 220800,
      "d": 670,
      "v": 97
    },
    {
      "midi": 54,
      "hit": false,
      "t": 220800,
      "d": 720,
      "v": 106
    },
    {
      "midi": 57,
      "hit": false,
      "t": 220800,
      "d": 730,
      "v": 105
    },
    {
      "midi": 30,
      "hit": false,
      "t": 220800,
      "d": 1810,
      "v": 116
    },
    {
      "midi": 54,
      "hit": false,
      "t": 220830,
      "d": 990,
      "v": 71
    },
    {
      "midi": 49,
      "hit": false,
      "t": 220830,
      "d": 1020,
      "v": 63
    },
    {
      "midi": 57,
      "hit": false,
      "t": 220830,
      "d": 1060,
      "v": 74
    },
    {
      "midi": 42,
      "hit": false,
      "t": 220830,
      "d": 1500,
      "v": 83
    },
    {
      "midi": 42,
      "hit": false,
      "t": 221400,
      "d": 160,
      "v": 92
    },
    {
      "midi": 42,
      "hit": false,
      "t": 222000,
      "d": 180,
      "v": 84
    },
    {
      "midi": 49,
      "hit": false,
      "t": 222000,
      "d": 500,
      "v": 94
    },
    {
      "midi": 54,
      "hit": false,
      "t": 222000,
      "d": 550,
      "v": 98
    },
    {
      "midi": 57,
      "hit": false,
      "t": 222000,
      "d": 570,
      "v": 102
    },
    {
      "midi": 49,
      "hit": false,
      "t": 222030,
      "d": 670,
      "v": 66
    },
    {
      "midi": 54,
      "hit": false,
      "t": 222030,
      "d": 670,
      "v": 71
    },
    {
      "midi": 57,
      "hit": false,
      "t": 222030,
      "d": 690,
      "v": 80
    },
    {
      "midi": 42,
      "hit": false,
      "t": 222600,
      "d": 130,
      "v": 96
    },
    {
      "midi": 42,
      "hit": false,
      "t": 222630,
      "d": 370,
      "v": 80
    },
    {
      "midi": 54,
      "hit": false,
      "t": 222930,
      "d": 120,
      "v": 61
    },
    {
      "midi": 49,
      "hit": false,
      "t": 222930,
      "d": 140,
      "v": 51
    },
    {
      "midi": 57,
      "hit": false,
      "t": 222930,
      "d": 160,
      "v": 51
    },
    {
      "midi": 40,
      "hit": false,
      "t": 223200,
      "d": 310,
      "v": 89
    },
    {
      "midi": 56,
      "hit": false,
      "t": 223200,
      "d": 650,
      "v": 127
    },
    {
      "midi": 52,
      "hit": false,
      "t": 223200,
      "d": 660,
      "v": 110
    },
    {
      "midi": 59,
      "hit": false,
      "t": 223200,
      "d": 660,
      "v": 126
    },
    {
      "midi": 28,
      "hit": false,
      "t": 223200,
      "d": 1200,
      "v": 87
    },
    {
      "midi": 52,
      "hit": false,
      "t": 223230,
      "d": 920,
      "v": 74
    },
    {
      "midi": 56,
      "hit": false,
      "t": 223230,
      "d": 930,
      "v": 93
    },
    {
      "midi": 59,
      "hit": false,
      "t": 223230,
      "d": 960,
      "v": 78
    },
    {
      "midi": 40,
      "hit": false,
      "t": 223230,
      "d": 1130,
      "v": 86
    },
    {
      "midi": 40,
      "hit": false,
      "t": 223800,
      "d": 160,
      "v": 87
    },
    {
      "midi": 53,
      "hit": false,
      "t": 224400,
      "d": 240,
      "v": 96
    },
    {
      "midi": 65,
      "hit": false,
      "t": 224400,
      "d": 300,
      "v": 108
    },
    {
      "midi": 41,
      "hit": false,
      "t": 224400,
      "d": 660,
      "v": 112
    },
    {
      "midi": 29,
      "hit": false,
      "t": 224400,
      "d": 1200,
      "v": 87
    },
    {
      "midi": 41,
      "hit": false,
      "t": 224430,
      "d": 480,
      "v": 83
    },
    {
      "midi": 53,
      "hit": false,
      "t": 224430,
      "d": 740,
      "v": 72
    },
    {
      "midi": 60,
      "hit": false,
      "t": 224430,
      "d": 750,
      "v": 80
    },
    {
      "midi": 57,
      "hit": false,
      "t": 224430,
      "d": 790,
      "v": 80
    },
    {
      "midi": 60,
      "hit": false,
      "t": 224700,
      "d": 360,
      "v": 95
    },
    {
      "midi": 57,
      "hit": false,
      "t": 225000,
      "d": 210,
      "v": 110
    },
    {
      "midi": 41,
      "hit": false,
      "t": 225030,
      "d": 420,
      "v": 83
    },
    {
      "midi": 53,
      "hit": false,
      "t": 225300,
      "d": 140,
      "v": 96
    },
    {
      "midi": 57,
      "hit": false,
      "t": 225330,
      "d": 90,
      "v": 72
    },
    {
      "midi": 53,
      "hit": false,
      "t": 225330,
      "d": 130,
      "v": 66
    },
    {
      "midi": 60,
      "hit": false,
      "t": 225330,
      "d": 140,
      "v": 72
    },
    {
      "midi": 62,
      "hit": false,
      "t": 225600,
      "d": 540,
      "v": 126
    },
    {
      "midi": 58,
      "hit": false,
      "t": 225600,
      "d": 550,
      "v": 114
    },
    {
      "midi": 46,
      "hit": false,
      "t": 225600,
      "d": 1680,
      "v": 107
    },
    {
      "midi": 34,
      "hit": false,
      "t": 225600,
      "d": 1760,
      "v": 111
    },
    {
      "midi": 58,
      "hit": false,
      "t": 225630,
      "d": 1030,
      "v": 93
    },
    {
      "midi": 62,
      "hit": false,
      "t": 225630,
      "d": 1040,
      "v": 80
    },
    {
      "midi": 53,
      "hit": false,
      "t": 225630,
      "d": 1060,
      "v": 83
    },
    {
      "midi": 46,
      "hit": false,
      "t": 225630,
      "d": 1600,
      "v": 85
    },
    {
      "midi": 53,
      "hit": false,
      "t": 226200,
      "d": 210,
      "v": 99
    },
    {
      "midi": 62,
      "hit": false,
      "t": 226800,
      "d": 540,
      "v": 118
    },
    {
      "midi": 58,
      "hit": false,
      "t": 226800,
      "d": 580,
      "v": 114
    },
    {
      "midi": 53,
      "hit": false,
      "t": 226830,
      "d": 610,
      "v": 65
    },
    {
      "midi": 58,
      "hit": false,
      "t": 226830,
      "d": 650,
      "v": 74
    },
    {
      "midi": 62,
      "hit": false,
      "t": 226830,
      "d": 650,
      "v": 62
    },
    {
      "midi": 53,
      "hit": false,
      "t": 227400,
      "d": 180,
      "v": 110
    },
    {
      "midi": 46,
      "hit": false,
      "t": 227430,
      "d": 380,
      "v": 64
    },
    {
      "midi": 46,
      "hit": false,
      "t": 227700,
      "d": 90,
      "v": 91
    },
    {
      "midi": 34,
      "hit": false,
      "t": 227700,
      "d": 110,
      "v": 98
    },
    {
      "midi": 53,
      "hit": false,
      "t": 227730,
      "d": 80,
      "v": 45
    },
    {
      "midi": 58,
      "hit": false,
      "t": 227730,
      "d": 100,
      "v": 61
    },
    {
      "midi": 62,
      "hit": false,
      "t": 227730,
      "d": 120,
      "v": 62
    },
    {
      "midi": 58,
      "hit": false,
      "t": 228000,
      "d": 580,
      "v": 100
    },
    {
      "midi": 62,
      "hit": false,
      "t": 228000,
      "d": 580,
      "v": 112
    },
    {
      "midi": 31,
      "hit": false,
      "t": 228000,
      "d": 1610,
      "v": 110
    },
    {
      "midi": 43,
      "hit": false,
      "t": 228000,
      "d": 2030,
      "v": 83
    },
    {
      "midi": 58,
      "hit": false,
      "t": 228030,
      "d": 1020,
      "v": 69
    },
    {
      "midi": 62,
      "hit": false,
      "t": 228030,
      "d": 1020,
      "v": 78
    },
    {
      "midi": 55,
      "hit": false,
      "t": 228030,
      "d": 1030,
      "v": 78
    },
    {
      "midi": 43,
      "hit": false,
      "t": 228030,
      "d": 1550,
      "v": 83
    },
    {
      "midi": 55,
      "hit": false,
      "t": 228600,
      "d": 620,
      "v": 101
    },
    {
      "midi": 62,
      "hit": false,
      "t": 229200,
      "d": 580,
      "v": 116
    },
    {
      "midi": 58,
      "hit": false,
      "t": 229200,
      "d": 610,
      "v": 107
    },
    {
      "midi": 55,
      "hit": false,
      "t": 229230,
      "d": 650,
      "v": 78
    },
    {
      "midi": 62,
      "hit": false,
      "t": 229230,
      "d": 690,
      "v": 76
    },
    {
      "midi": 58,
      "hit": false,
      "t": 229230,
      "d": 710,
      "v": 69
    },
    {
      "midi": 55,
      "hit": false,
      "t": 229800,
      "d": 210,
      "v": 110
    },
    {
      "midi": 43,
      "hit": false,
      "t": 229830,
      "d": 460,
      "v": 78
    },
    {
      "midi": 31,
      "hit": false,
      "t": 230100,
      "d": 110,
      "v": 102
    },
    {
      "midi": 58,
      "hit": false,
      "t": 230130,
      "d": 90,
      "v": 61
    },
    {
      "midi": 55,
      "hit": false,
      "t": 230130,
      "d": 100,
      "v": 66
    },
    {
      "midi": 62,
      "hit": false,
      "t": 230130,
      "d": 110,
      "v": 66
    },
    {
      "midi": 58,
      "hit": false,
      "t": 230400,
      "d": 560,
      "v": 97
    },
    {
      "midi": 63,
      "hit": false,
      "t": 230400,
      "d": 600,
      "v": 101
    },
    {
      "midi": 39,
      "hit": false,
      "t": 230400,
      "d": 1740,
      "v": 91
    },
    {
      "midi": 27,
      "hit": false,
      "t": 230400,
      "d": 1790,
      "v": 118
    },
    {
      "midi": 55,
      "hit": false,
      "t": 230430,
      "d": 1060,
      "v": 86
    },
    {
      "midi": 63,
      "hit": false,
      "t": 230430,
      "d": 1060,
      "v": 93
    },
    {
      "midi": 58,
      "hit": false,
      "t": 230430,
      "d": 1070,
      "v": 85
    },
    {
      "midi": 39,
      "hit": false,
      "t": 230430,
      "d": 1590,
      "v": 78
    },
    {
      "midi": 55,
      "hit": false,
      "t": 231000,
      "d": 640,
      "v": 97
    },
    {
      "midi": 63,
      "hit": false,
      "t": 231600,
      "d": 610,
      "v": 114
    },
    {
      "midi": 58,
      "hit": false,
      "t": 231600,
      "d": 640,
      "v": 111
    },
    {
      "midi": 55,
      "hit": false,
      "t": 231630,
      "d": 590,
      "v": 78
    },
    {
      "midi": 63,
      "hit": false,
      "t": 231630,
      "d": 630,
      "v": 74
    },
    {
      "midi": 58,
      "hit": false,
      "t": 231630,
      "d": 640,
      "v": 78
    },
    {
      "midi": 55,
      "hit": false,
      "t": 232200,
      "d": 90,
      "v": 105
    },
    {
      "midi": 39,
      "hit": false,
      "t": 232230,
      "d": 400,
      "v": 69
    },
    {
      "midi": 58,
      "hit": false,
      "t": 232530,
      "d": 110,
      "v": 60
    },
    {
      "midi": 63,
      "hit": false,
      "t": 232530,
      "d": 110,
      "v": 56
    },
    {
      "midi": 55,
      "hit": false,
      "t": 232530,
      "d": 120,
      "v": 57
    },
    {
      "midi": 53,
      "hit": false,
      "t": 232800,
      "d": 140,
      "v": 94
    },
    {
      "midi": 58,
      "hit": false,
      "t": 232800,
      "d": 190,
      "v": 107
    },
    {
      "midi": 62,
      "hit": false,
      "t": 232800,
      "d": 250,
      "v": 110
    },
    {
      "midi": 46,
      "hit": false,
      "t": 232800,
      "d": 1960,
      "v": 96
    },
    {
      "midi": 34,
      "hit": false,
      "t": 232800,
      "d": 1990,
      "v": 107
    },
    {
      "midi": 53,
      "hit": false,
      "t": 232830,
      "d": 1070,
      "v": 72
    },
    {
      "midi": 58,
      "hit": false,
      "t": 232830,
      "d": 1080,
      "v": 69
    },
    {
      "midi": 62,
      "hit": false,
      "t": 232830,
      "d": 1080,
      "v": 78
    },
    {
      "midi": 46,
      "hit": false,
      "t": 232830,
      "d": 1560,
      "v": 74
    },
    {
      "midi": 53,
      "hit": false,
      "t": 233100,
      "d": 360,
      "v": 89
    },
    {
      "midi": 58,
      "hit": false,
      "t": 233400,
      "d": 280,
      "v": 97
    },
    {
      "midi": 60,
      "hit": false,
      "t": 233700,
      "d": 170,
      "v": 97
    },
    {
      "midi": 62,
      "hit": false,
      "t": 234000,
      "d": 230,
      "v": 108
    },
    {
      "midi": 53,
      "hit": false,
      "t": 234000,
      "d": 250,
      "v": 97
    },
    {
      "midi": 53,
      "hit": false,
      "t": 234030,
      "d": 650,
      "v": 72
    },
    {
      "midi": 62,
      "hit": false,
      "t": 234030,
      "d": 690,
      "v": 76
    },
    {
      "midi": 58,
      "hit": false,
      "t": 234030,
      "d": 700,
      "v": 74
    },
    {
      "midi": 60,
      "hit": false,
      "t": 234300,
      "d": 340,
      "v": 114
    },
    {
      "midi": 58,
      "hit": false,
      "t": 234600,
      "d": 260,
      "v": 98
    },
    {
      "midi": 46,
      "hit": false,
      "t": 234630,
      "d": 360,
      "v": 67
    },
    {
      "midi": 53,
      "hit": false,
      "t": 234900,
      "d": 220,
      "v": 85
    },
    {
      "midi": 53,
      "hit": false,
      "t": 234930,
      "d": 120,
      "v": 57
    },
    {
      "midi": 58,
      "hit": false,
      "t": 234930,
      "d": 120,
      "v": 63
    },
    {
      "midi": 62,
      "hit": false,
      "t": 234930,
      "d": 120,
      "v": 63
    },
    {
      "midi": 62,
      "hit": false,
      "t": 235200,
      "d": 590,
      "v": 118
    },
    {
      "midi": 58,
      "hit": false,
      "t": 235200,
      "d": 600,
      "v": 107
    },
    {
      "midi": 34,
      "hit": false,
      "t": 235200,
      "d": 1790,
      "v": 109
    },
    {
      "midi": 46,
      "hit": false,
      "t": 235200,
      "d": 2130,
      "v": 98
    },
    {
      "midi": 53,
      "hit": false,
      "t": 235230,
      "d": 1120,
      "v": 70
    },
    {
      "midi": 58,
      "hit": false,
      "t": 235230,
      "d": 1120,
      "v": 67
    },
    {
      "midi": 62,
      "hit": false,
      "t": 235230,
      "d": 1120,
      "v": 74
    },
    {
      "midi": 46,
      "hit": false,
      "t": 235230,
      "d": 1550,
      "v": 74
    },
    {
      "midi": 53,
      "hit": false,
      "t": 235800,
      "d": 490,
      "v": 96
    },
    {
      "midi": 62,
      "hit": false,
      "t": 236400,
      "d": 560,
      "v": 112
    },
    {
      "midi": 58,
      "hit": false,
      "t": 236400,
      "d": 650,
      "v": 103
    },
    {
      "midi": 53,
      "hit": false,
      "t": 236430,
      "d": 650,
      "v": 65
    },
    {
      "midi": 58,
      "hit": false,
      "t": 236430,
      "d": 660,
      "v": 93
    },
    {
      "midi": 62,
      "hit": false,
      "t": 236430,
      "d": 680,
      "v": 65
    },
    {
      "midi": 53,
      "hit": false,
      "t": 237000,
      "d": 180,
      "v": 97
    },
    {
      "midi": 46,
      "hit": false,
      "t": 237030,
      "d": 410,
      "v": 71
    },
    {
      "midi": 34,
      "hit": false,
      "t": 237300,
      "d": 110,
      "v": 107
    },
    {
      "midi": 53,
      "hit": false,
      "t": 237330,
      "d": 130,
      "v": 40
    },
    {
      "midi": 58,
      "hit": false,
      "t": 237330,
      "d": 140,
      "v": 57
    },
    {
      "midi": 62,
      "hit": false,
      "t": 237330,
      "d": 150,
      "v": 55
    },
    {
      "midi": 62,
      "hit": false,
      "t": 237600,
      "d": 570,
      "v": 108
    },
    {
      "midi": 58,
      "hit": false,
      "t": 237600,
      "d": 580,
      "v": 103
    },
    {
      "midi": 31,
      "hit": false,
      "t": 237600,
      "d": 1760,
      "v": 106
    },
    {
      "midi": 43,
      "hit": false,
      "t": 237600,
      "d": 1860,
      "v": 90
    },
    {
      "midi": 55,
      "hit": false,
      "t": 237630,
      "d": 1060,
      "v": 83
    },
    {
      "midi": 62,
      "hit": false,
      "t": 237630,
      "d": 1060,
      "v": 70
    },
    {
      "midi": 58,
      "hit": false,
      "t": 237630,
      "d": 1070,
      "v": 69
    },
    {
      "midi": 43,
      "hit": false,
      "t": 237630,
      "d": 1570,
      "v": 83
    },
    {
      "midi": 55,
      "hit": false,
      "t": 238200,
      "d": 650,
      "v": 102
    },
    {
      "midi": 58,
      "hit": false,
      "t": 238800,
      "d": 640,
      "v": 103
    },
    {
      "midi": 62,
      "hit": false,
      "t": 238800,
      "d": 640,
      "v": 108
    },
    {
      "midi": 55,
      "hit": false,
      "t": 238830,
      "d": 690,
      "v": 78
    },
    {
      "midi": 62,
      "hit": false,
      "t": 238830,
      "d": 690,
      "v": 65
    },
    {
      "midi": 58,
      "hit": false,
      "t": 238830,
      "d": 700,
      "v": 74
    },
    {
      "midi": 55,
      "hit": false,
      "t": 239400,
      "d": 160,
      "v": 99
    },
    {
      "midi": 43,
      "hit": false,
      "t": 239430,
      "d": 400,
      "v": 74
    },
    {
      "midi": 31,
      "hit": false,
      "t": 239700,
      "d": 110,
      "v": 102
    },
    {
      "midi": 55,
      "hit": false,
      "t": 239730,
      "d": 100,
      "v": 61
    },
    {
      "midi": 58,
      "hit": false,
      "t": 239730,
      "d": 100,
      "v": 57
    },
    {
      "midi": 62,
      "hit": false,
      "t": 239730,
      "d": 100,
      "v": 58
    },
    {
      "midi": 62,
      "hit": false,
      "t": 240000,
      "d": 570,
      "v": 108
    },
    {
      "midi": 57,
      "hit": false,
      "t": 240000,
      "d": 580,
      "v": 120
    },
    {
      "midi": 38,
      "hit": false,
      "t": 240000,
      "d": 1780,
      "v": 94
    },
    {
      "midi": 26,
      "hit": false,
      "t": 240000,
      "d": 2110,
      "v": 116
    },
    {
      "midi": 53,
      "hit": false,
      "t": 240030,
      "d": 1040,
      "v": 66
    },
    {
      "midi": 57,
      "hit": false,
      "t": 240030,
      "d": 1040,
      "v": 83
    },
    {
      "midi": 62,
      "hit": false,
      "t": 240030,
      "d": 1060,
      "v": 72
    },
    {
      "midi": 38,
      "hit": false,
      "t": 240030,
      "d": 1450,
      "v": 76
    },
    {
      "midi": 53,
      "hit": false,
      "t": 240600,
      "d": 610,
      "v": 84
    },
    {
      "midi": 62,
      "hit": false,
      "t": 241200,
      "d": 550,
      "v": 108
    },
    {
      "midi": 57,
      "hit": false,
      "t": 241200,
      "d": 610,
      "v": 116
    },
    {
      "midi": 53,
      "hit": false,
      "t": 241230,
      "d": 660,
      "v": 74
    },
    {
      "midi": 57,
      "hit": false,
      "t": 241230,
      "d": 660,
      "v": 86
    },
    {
      "midi": 62,
      "hit": false,
      "t": 241230,
      "d": 660,
      "v": 74
    },
    {
      "midi": 53,
      "hit": false,
      "t": 241800,
      "d": 110,
      "v": 105
    },
    {
      "midi": 38,
      "hit": false,
      "t": 241830,
      "d": 450,
      "v": 72
    },
    {
      "midi": 38,
      "hit": false,
      "t": 242100,
      "d": 110,
      "v": 98
    },
    {
      "midi": 57,
      "hit": false,
      "t": 242130,
      "d": 70,
      "v": 57
    },
    {
      "midi": 53,
      "hit": false,
      "t": 242130,
      "d": 90,
      "v": 61
    },
    {
      "midi": 62,
      "hit": false,
      "t": 242130,
      "d": 120,
      "v": 61
    },
    {
      "midi": 55,
      "hit": false,
      "t": 242400,
      "d": 150,
      "v": 101
    },
    {
      "midi": 63,
      "hit": false,
      "t": 242400,
      "d": 230,
      "v": 103
    },
    {
      "midi": 58,
      "hit": false,
      "t": 242400,
      "d": 240,
      "v": 104
    },
    {
      "midi": 27,
      "hit": false,
      "t": 242400,
      "d": 720,
      "v": 104
    },
    {
      "midi": 39,
      "hit": false,
      "t": 242400,
      "d": 740,
      "v": 109
    },
    {
      "midi": 39,
      "hit": false,
      "t": 242430,
      "d": 440,
      "v": 64
    },
    {
      "midi": 55,
      "hit": false,
      "t": 242430,
      "d": 650,
      "v": 76
    },
    {
      "midi": 58,
      "hit": false,
      "t": 242430,
      "d": 670,
      "v": 93
    },
    {
      "midi": 63,
      "hit": false,
      "t": 242430,
      "d": 670,
      "v": 93
    },
    {
      "midi": 55,
      "hit": false,
      "t": 242700,
      "d": 360,
      "v": 99
    },
    {
      "midi": 58,
      "hit": false,
      "t": 243000,
      "d": 290,
      "v": 92
    },
    {
      "midi": 39,
      "hit": false,
      "t": 243030,
      "d": 480,
      "v": 78
    },
    {
      "midi": 63,
      "hit": false,
      "t": 243300,
      "d": 150,
      "v": 97
    },
    {
      "midi": 58,
      "hit": false,
      "t": 243330,
      "d": 80,
      "v": 51
    },
    {
      "midi": 55,
      "hit": false,
      "t": 243330,
      "d": 100,
      "v": 72
    },
    {
      "midi": 63,
      "hit": false,
      "t": 243330,
      "d": 160,
      "v": 63
    },
    {
      "midi": 57,
      "hit": false,
      "t": 243600,
      "d": 170,
      "v": 92
    },
    {
      "midi": 60,
      "hit": false,
      "t": 243600,
      "d": 190,
      "v": 101
    },
    {
      "midi": 65,
      "hit": false,
      "t": 243600,
      "d": 260,
      "v": 105
    },
    {
      "midi": 29,
      "hit": false,
      "t": 243600,
      "d": 640,
      "v": 108
    },
    {
      "midi": 41,
      "hit": false,
      "t": 243600,
      "d": 720,
      "v": 84
    },
    {
      "midi": 41,
      "hit": false,
      "t": 243630,
      "d": 450,
      "v": 80
    },
    {
      "midi": 57,
      "hit": false,
      "t": 243630,
      "d": 640,
      "v": 70
    },
    {
      "midi": 60,
      "hit": false,
      "t": 243630,
      "d": 670,
      "v": 76
    },
    {
      "midi": 65,
      "hit": false,
      "t": 243630,
      "d": 670,
      "v": 68
    },
    {
      "midi": 57,
      "hit": false,
      "t": 243900,
      "d": 350,
      "v": 106
    },
    {
      "midi": 60,
      "hit": false,
      "t": 244200,
      "d": 320,
      "v": 123
    },
    {
      "midi": 41,
      "hit": false,
      "t": 244230,
      "d": 500,
      "v": 72
    },
    {
      "midi": 65,
      "hit": false,
      "t": 244530,
      "d": 60,
      "v": 33
    },
    {
      "midi": 60,
      "hit": false,
      "t": 244530,
      "d": 90,
      "v": 33
    },
    {
      "midi": 57,
      "hit": false,
      "t": 244530,
      "d": 120,
      "v": 58
    },
    {
      "midi": 62,
      "hit": false,
      "t": 244800,
      "d": 600,
      "v": 91
    },
    {
      "midi": 58,
      "hit": false,
      "t": 244800,
      "d": 650,
      "v": 106
    },
    {
      "midi": 34,
      "hit": false,
      "t": 244800,
      "d": 1840,
      "v": 109
    },
    {
      "midi": 46,
      "hit": false,
      "t": 244800,
      "d": 1990,
      "v": 101
    },
    {
      "midi": 58,
      "hit": false,
      "t": 244830,
      "d": 1030,
      "v": 74
    },
    {
      "midi": 62,
      "hit": false,
      "t": 244830,
      "d": 1030,
      "v": 68
    },
    {
      "midi": 53,
      "hit": false,
      "t": 244830,
      "d": 1040,
      "v": 70
    },
    {
      "midi": 46,
      "hit": false,
      "t": 244830,
      "d": 1600,
      "v": 71
    },
    {
      "midi": 53,
      "hit": false,
      "t": 245400,
      "d": 550,
      "v": 97
    },
    {
      "midi": 62,
      "hit": false,
      "t": 246000,
      "d": 570,
      "v": 108
    },
    {
      "midi": 58,
      "hit": false,
      "t": 246000,
      "d": 620,
      "v": 100
    },
    {
      "midi": 53,
      "hit": false,
      "t": 246030,
      "d": 680,
      "v": 72
    },
    {
      "midi": 62,
      "hit": false,
      "t": 246030,
      "d": 750,
      "v": 74
    },
    {
      "midi": 58,
      "hit": false,
      "t": 246030,
      "d": 760,
      "v": 74
    },
    {
      "midi": 53,
      "hit": false,
      "t": 246600,
      "d": 150,
      "v": 95
    },
    {
      "midi": 46,
      "hit": false,
      "t": 246630,
      "d": 370,
      "v": 71
    },
    {
      "midi": 34,
      "hit": false,
      "t": 246900,
      "d": 140,
      "v": 103
    },
    {
      "midi": 53,
      "hit": false,
      "t": 246930,
      "d": 90,
      "v": 58
    },
    {
      "midi": 62,
      "hit": false,
      "t": 246930,
      "d": 130,
      "v": 57
    },
    {
      "midi": 58,
      "hit": false,
      "t": 246930,
      "d": 150,
      "v": 57
    },
    {
      "midi": 58,
      "hit": false,
      "t": 247200,
      "d": 620,
      "v": 93
    },
    {
      "midi": 62,
      "hit": false,
      "t": 247200,
      "d": 620,
      "v": 106
    },
    {
      "midi": 31,
      "hit": false,
      "t": 247200,
      "d": 1820,
      "v": 114
    },
    {
      "midi": 43,
      "hit": false,
      "t": 247200,
      "d": 2080,
      "v": 79
    },
    {
      "midi": 55,
      "hit": false,
      "t": 247230,
      "d": 1010,
      "v": 86
    },
    {
      "midi": 62,
      "hit": false,
      "t": 247230,
      "d": 1010,
      "v": 76
    },
    {
      "midi": 58,
      "hit": false,
      "t": 247230,
      "d": 1040,
      "v": 69
    },
    {
      "midi": 43,
      "hit": false,
      "t": 247230,
      "d": 1610,
      "v": 86
    },
    {
      "midi": 55,
      "hit": false,
      "t": 247800,
      "d": 640,
      "v": 91
    },
    {
      "midi": 62,
      "hit": false,
      "t": 248400,
      "d": 600,
      "v": 116
    },
    {
      "midi": 58,
      "hit": false,
      "t": 248400,
      "d": 650,
      "v": 104
    },
    {
      "midi": 55,
      "hit": false,
      "t": 248430,
      "d": 690,
      "v": 65
    },
    {
      "midi": 58,
      "hit": false,
      "t": 248430,
      "d": 730,
      "v": 61
    },
    {
      "midi": 62,
      "hit": false,
      "t": 248430,
      "d": 730,
      "v": 66
    },
    {
      "midi": 55,
      "hit": false,
      "t": 249000,
      "d": 130,
      "v": 96
    },
    {
      "midi": 43,
      "hit": false,
      "t": 249030,
      "d": 420,
      "v": 83
    },
    {
      "midi": 31,
      "hit": false,
      "t": 249300,
      "d": 90,
      "v": 71
    },
    {
      "midi": 55,
      "hit": false,
      "t": 249330,
      "d": 120,
      "v": 59
    },
    {
      "midi": 58,
      "hit": false,
      "t": 249330,
      "d": 120,
      "v": 58
    },
    {
      "midi": 62,
      "hit": false,
      "t": 249330,
      "d": 130,
      "v": 57
    },
    {
      "midi": 58,
      "hit": false,
      "t": 249600,
      "d": 610,
      "v": 96
    },
    {
      "midi": 63,
      "hit": false,
      "t": 249600,
      "d": 620,
      "v": 101
    },
    {
      "midi": 39,
      "hit": false,
      "t": 249600,
      "d": 1550,
      "v": 101
    },
    {
      "midi": 27,
      "hit": false,
      "t": 249600,
      "d": 1900,
      "v": 107
    },
    {
      "midi": 55,
      "hit": false,
      "t": 249630,
      "d": 1040,
      "v": 78
    },
    {
      "midi": 63,
      "hit": false,
      "t": 249630,
      "d": 1060,
      "v": 85
    },
    {
      "midi": 58,
      "hit": false,
      "t": 249630,
      "d": 1070,
      "v": 74
    },
    {
      "midi": 39,
      "hit": false,
      "t": 249630,
      "d": 1540,
      "v": 67
    },
    {
      "midi": 55,
      "hit": false,
      "t": 250200,
      "d": 580,
      "v": 103
    },
    {
      "midi": 63,
      "hit": false,
      "t": 250800,
      "d": 550,
      "v": 111
    },
    {
      "midi": 58,
      "hit": false,
      "t": 250800,
      "d": 570,
      "v": 111
    },
    {
      "midi": 55,
      "hit": false,
      "t": 250830,
      "d": 590,
      "v": 68
    },
    {
      "midi": 63,
      "hit": false,
      "t": 250830,
      "d": 630,
      "v": 63
    },
    {
      "midi": 58,
      "hit": false,
      "t": 250830,
      "d": 650,
      "v": 57
    },
    {
      "midi": 39,
      "hit": false,
      "t": 251400,
      "d": 90,
      "v": 98
    },
    {
      "midi": 55,
      "hit": false,
      "t": 251400,
      "d": 100,
      "v": 110
    },
    {
      "midi": 39,
      "hit": false,
      "t": 251430,
      "d": 400,
      "v": 69
    },
    {
      "midi": 63,
      "hit": false,
      "t": 251730,
      "d": 110,
      "v": 53
    },
    {
      "midi": 55,
      "hit": false,
      "t": 251730,
      "d": 120,
      "v": 61
    },
    {
      "midi": 58,
      "hit": false,
      "t": 251730,
      "d": 120,
      "v": 63
    },
    {
      "midi": 53,
      "hit": false,
      "t": 252000,
      "d": 400,
      "v": 96
    },
    {
      "midi": 62,
      "hit": false,
      "t": 252000,
      "d": 530,
      "v": 108
    },
    {
      "midi": 58,
      "hit": false,
      "t": 252000,
      "d": 560,
      "v": 101
    },
    {
      "midi": 34,
      "hit": false,
      "t": 252000,
      "d": 1350,
      "v": 100
    },
    {
      "midi": 46,
      "hit": false,
      "t": 252000,
      "d": 1350,
      "v": 81
    },
    {
      "midi": 53,
      "hit": false,
      "t": 252030,
      "d": 1050,
      "v": 61
    },
    {
      "midi": 58,
      "hit": false,
      "t": 252030,
      "d": 1050,
      "v": 63
    },
    {
      "midi": 62,
      "hit": false,
      "t": 252030,
      "d": 1050,
      "v": 76
    },
    {
      "midi": 46,
      "hit": false,
      "t": 252030,
      "d": 1510,
      "v": 57
    },
    {
      "midi": 53,
      "hit": false,
      "t": 252600,
      "d": 530,
      "v": 95
    },
    {
      "midi": 62,
      "hit": false,
      "t": 253200,
      "d": 590,
      "v": 116
    },
    {
      "midi": 58,
      "hit": false,
      "t": 253200,
      "d": 640,
      "v": 107
    },
    {
      "midi": 58,
      "hit": false,
      "t": 253230,
      "d": 620,
      "v": 74
    },
    {
      "midi": 53,
      "hit": false,
      "t": 253230,
      "d": 630,
      "v": 65
    },
    {
      "midi": 62,
      "hit": false,
      "t": 253230,
      "d": 670,
      "v": 70
    },
    {
      "midi": 53,
      "hit": false,
      "t": 253800,
      "d": 110,
      "v": 102
    },
    {
      "midi": 34,
      "hit": false,
      "t": 253800,
      "d": 120,
      "v": 88
    },
    {
      "midi": 46,
      "hit": false,
      "t": 253830,
      "d": 410,
      "v": 64
    },
    {
      "midi": 53,
      "hit": false,
      "t": 254130,
      "d": 130,
      "v": 48
    },
    {
      "midi": 62,
      "hit": false,
      "t": 254130,
      "d": 150,
      "v": 44
    },
    {
      "midi": 58,
      "hit": false,
      "t": 254130,
      "d": 170,
      "v": 52
    },
    {
      "midi": 39,
      "hit": false,
      "t": 254400,
      "d": 700,
      "v": 83
    },
    {
      "midi": 63,
      "hit": false,
      "t": 254400,
      "d": 710,
      "v": 107
    },
    {
      "midi": 27,
      "hit": false,
      "t": 254400,
      "d": 740,
      "v": 95
    },
    {
      "midi": 55,
      "hit": false,
      "t": 254400,
      "d": 760,
      "v": 102
    },
    {
      "midi": 58,
      "hit": false,
      "t": 254400,
      "d": 790,
      "v": 104
    },
    {
      "midi": 63,
      "hit": false,
      "t": 254430,
      "d": 900,
      "v": 93
    },
    {
      "midi": 55,
      "hit": false,
      "t": 254430,
      "d": 990,
      "v": 80
    },
    {
      "midi": 58,
      "hit": false,
      "t": 254430,
      "d": 1060,
      "v": 74
    },
    {
      "midi": 39,
      "hit": false,
      "t": 254430,
      "d": 1090,
      "v": 71
    },
    {
      "midi": 38,
      "hit": false,
      "t": 255600,
      "d": 620,
      "v": 90
    },
    {
      "midi": 53,
      "hit": false,
      "t": 255600,
      "d": 640,
      "v": 97
    },
    {
      "midi": 58,
      "hit": false,
      "t": 255600,
      "d": 660,
      "v": 106
    },
    {
      "midi": 26,
      "hit": false,
      "t": 255600,
      "d": 670,
      "v": 92
    },
    {
      "midi": 62,
      "hit": false,
      "t": 255600,
      "d": 680,
      "v": 110
    },
    {
      "midi": 53,
      "hit": false,
      "t": 255630,
      "d": 780,
      "v": 52
    },
    {
      "midi": 58,
      "hit": false,
      "t": 255630,
      "d": 820,
      "v": 71
    },
    {
      "midi": 62,
      "hit": false,
      "t": 255630,
      "d": 830,
      "v": 72
    },
    {
      "midi": 38,
      "hit": false,
      "t": 255630,
      "d": 1110,
      "v": 72
    },
    {
      "midi": 36,
      "hit": false,
      "t": 256800,
      "d": 610,
      "v": 85
    },
    {
      "midi": 24,
      "hit": false,
      "t": 256800,
      "d": 650,
      "v": 89
    },
    {
      "midi": 63,
      "hit": false,
      "t": 256800,
      "d": 670,
      "v": 98
    },
    {
      "midi": 60,
      "hit": false,
      "t": 256800,
      "d": 700,
      "v": 112
    },
    {
      "midi": 55,
      "hit": false,
      "t": 256800,
      "d": 720,
      "v": 90
    },
    {
      "midi": 63,
      "hit": false,
      "t": 256830,
      "d": 800,
      "v": 67
    },
    {
      "midi": 60,
      "hit": false,
      "t": 256830,
      "d": 860,
      "v": 74
    },
    {
      "midi": 55,
      "hit": false,
      "t": 256830,
      "d": 890,
      "v": 72
    },
    {
      "midi": 36,
      "hit": false,
      "t": 256830,
      "d": 1000,
      "v": 58
    },
    {
      "midi": 34,
      "hit": false,
      "t": 258000,
      "d": 630,
      "v": 81
    },
    {
      "midi": 22,
      "hit": false,
      "t": 258000,
      "d": 640,
      "v": 95
    },
    {
      "midi": 53,
      "hit": false,
      "t": 258000,
      "d": 700,
      "v": 92
    },
    {
      "midi": 58,
      "hit": false,
      "t": 258000,
      "d": 700,
      "v": 106
    },
    {
      "midi": 62,
      "hit": false,
      "t": 258000,
      "d": 710,
      "v": 103
    },
    {
      "midi": 58,
      "hit": false,
      "t": 258030,
      "d": 940,
      "v": 71
    },
    {
      "midi": 53,
      "hit": false,
      "t": 258030,
      "d": 960,
      "v": 63
    },
    {
      "midi": 62,
      "hit": false,
      "t": 258030,
      "d": 1010,
      "v": 66
    },
    {
      "midi": 34,
      "hit": false,
      "t": 258030,
      "d": 1100,
      "v": 61
    },
    {
      "midi": 53,
      "hit": false,
      "t": 259200,
      "d": 430,
      "v": 80
    },
    {
      "midi": 57,
      "hit": false,
      "t": 259200,
      "d": 500,
      "v": 103
    },
    {
      "midi": 60,
      "hit": false,
      "t": 259200,
      "d": 520,
      "v": 103
    },
    {
      "midi": 41,
      "hit": false,
      "t": 259200,
      "d": 1200,
      "v": 85
    },
    {
      "midi": 29,
      "hit": false,
      "t": 259200,
      "d": 4090,
      "v": 77
    },
    {
      "midi": 53,
      "hit": false,
      "t": 259230,
      "d": 1030,
      "v": 57
    },
    {
      "midi": 57,
      "hit": false,
      "t": 259230,
      "d": 1030,
      "v": 80
    },
    {
      "midi": 60,
      "hit": false,
      "t": 259230,
      "d": 1050,
      "v": 72
    },
    {
      "midi": 41,
      "hit": false,
      "t": 259230,
      "d": 1580,
      "v": 76
    },
    {
      "midi": 53,
      "hit": false,
      "t": 259800,
      "d": 590,
      "v": 81
    },
    {
      "midi": 57,
      "hit": false,
      "t": 260400,
      "d": 520,
      "v": 102
    },
    {
      "midi": 60,
      "hit": false,
      "t": 260400,
      "d": 590,
      "v": 112
    },
    {
      "midi": 53,
      "hit": false,
      "t": 260430,
      "d": 620,
      "v": 62
    },
    {
      "midi": 60,
      "hit": false,
      "t": 260430,
      "d": 650,
      "v": 74
    },
    {
      "midi": 57,
      "hit": false,
      "t": 260430,
      "d": 660,
      "v": 78
    },
    {
      "midi": 41,
      "hit": false,
      "t": 261000,
      "d": 140,
      "v": 76
    },
    {
      "midi": 53,
      "hit": false,
      "t": 261000,
      "d": 160,
      "v": 80
    },
    {
      "midi": 41,
      "hit": false,
      "t": 261030,
      "d": 380,
      "v": 78
    },
    {
      "midi": 60,
      "hit": false,
      "t": 261330,
      "d": 110,
      "v": 74
    },
    {
      "midi": 53,
      "hit": false,
      "t": 261330,
      "d": 120,
      "v": 58
    },
    {
      "midi": 57,
      "hit": false,
      "t": 261330,
      "d": 120,
      "v": 74
    },
    {
      "midi": 57,
      "hit": false,
      "t": 261600,
      "d": 570,
      "v": 110
    },
    {
      "midi": 60,
      "hit": false,
      "t": 261600,
      "d": 590,
      "v": 110
    },
    {
      "midi": 41,
      "hit": false,
      "t": 261600,
      "d": 1710,
      "v": 95
    },
    {
      "midi": 53,
      "hit": false,
      "t": 261630,
      "d": 1060,
      "v": 65
    },
    {
      "midi": 60,
      "hit": false,
      "t": 261630,
      "d": 1060,
      "v": 74
    },
    {
      "midi": 57,
      "hit": false,
      "t": 261630,
      "d": 1080,
      "v": 74
    },
    {
      "midi": 41,
      "hit": false,
      "t": 261630,
      "d": 1570,
      "v": 68
    },
    {
      "midi": 53,
      "hit": false,
      "t": 262180,
      "d": 190,
      "v": 92
    },
    {
      "midi": 57,
      "hit": false,
      "t": 262800,
      "d": 560,
      "v": 118
    },
    {
      "midi": 60,
      "hit": false,
      "t": 262800,
      "d": 590,
      "v": 118
    },
    {
      "midi": 53,
      "hit": false,
      "t": 262830,
      "d": 660,
      "v": 65
    },
    {
      "midi": 57,
      "hit": false,
      "t": 262830,
      "d": 670,
      "v": 74
    },
    {
      "midi": 60,
      "hit": false,
      "t": 262830,
      "d": 670,
      "v": 68
    },
    {
      "midi": 41,
      "hit": false,
      "t": 263430,
      "d": 410,
      "v": 68
    },
    {
      "midi": 53,
      "hit": false,
      "t": 263730,
      "d": 80,
      "v": 44
    },
    {
      "midi": 57,
      "hit": false,
      "t": 263730,
      "d": 80,
      "v": 41
    },
    {
      "midi": 60,
      "hit": false,
      "t": 263730,
      "d": 120,
      "v": 57
    },
    {
      "midi": 63,
      "hit": false,
      "t": 264000,
      "d": 3610,
      "v": 107
    },
    {
      "midi": 27,
      "hit": false,
      "t": 264000,
      "d": 3620,
      "v": 111
    },
    {
      "midi": 39,
      "hit": false,
      "t": 264000,
      "d": 3620,
      "v": 103
    },
    {
      "midi": 55,
      "hit": false,
      "t": 264000,
      "d": 3620,
      "v": 116
    },
    {
      "midi": 58,
      "hit": false,
      "t": 264000,
      "d": 3620,
      "v": 106
    },
    {
      "midi": 63,
      "hit": false,
      "t": 264030,
      "d": 3600,
      "v": 78
    },
    {
      "midi": 55,
      "hit": false,
      "t": 264030,
      "d": 3610,
      "v": 80
    },
    {
      "midi": 39,
      "hit": false,
      "t": 264030,
      "d": 3620,
      "v": 69
    },
    {
      "midi": 58,
      "hit": false,
      "t": 264030,
      "d": 3630,
      "v": 85
    },
    {
      "midi": 53,
      "hit": false,
      "t": 268800,
      "d": 400,
      "v": 77
    },
    {
      "midi": 58,
      "hit": false,
      "t": 268800,
      "d": 550,
      "v": 76
    },
    {
      "midi": 62,
      "hit": false,
      "t": 268800,
      "d": 580,
      "v": 105
    },
    {
      "midi": 46,
      "hit": false,
      "t": 268800,
      "d": 1890,
      "v": 76
    },
    {
      "midi": 34,
      "hit": false,
      "t": 268800,
      "d": 3920,
      "v": 96
    },
    {
      "midi": 62,
      "hit": false,
      "t": 268830,
      "d": 970,
      "v": 62
    },
    {
      "midi": 58,
      "hit": false,
      "t": 268830,
      "d": 1000,
      "v": 61
    },
    {
      "midi": 53,
      "hit": false,
      "t": 268830,
      "d": 1030,
      "v": 59
    },
    {
      "midi": 46,
      "hit": false,
      "t": 268830,
      "d": 1470,
      "v": 64
    },
    {
      "midi": 53,
      "hit": false,
      "t": 269400,
      "d": 660,
      "v": 82
    },
    {
      "midi": 58,
      "hit": false,
      "t": 270000,
      "d": 590,
      "v": 97
    },
    {
      "midi": 62,
      "hit": false,
      "t": 270000,
      "d": 590,
      "v": 106
    },
    {
      "midi": 62,
      "hit": false,
      "t": 270030,
      "d": 680,
      "v": 66
    },
    {
      "midi": 53,
      "hit": false,
      "t": 270030,
      "d": 690,
      "v": 41
    },
    {
      "midi": 58,
      "hit": false,
      "t": 270030,
      "d": 710,
      "v": 64
    },
    {
      "midi": 53,
      "hit": false,
      "t": 270600,
      "d": 200,
      "v": 95
    },
    {
      "midi": 46,
      "hit": false,
      "t": 270630,
      "d": 410,
      "v": 67
    },
    {
      "midi": 62,
      "hit": false,
      "t": 271200,
      "d": 560,
      "v": 106
    },
    {
      "midi": 58,
      "hit": false,
      "t": 271200,
      "d": 690,
      "v": 97
    },
    {
      "midi": 53,
      "hit": false,
      "t": 271200,
      "d": 760,
      "v": 95
    },
    {
      "midi": 46,
      "hit": false,
      "t": 271200,
      "d": 1770,
      "v": 96
    },
    {
      "midi": 62,
      "hit": false,
      "t": 271230,
      "d": 570,
      "v": 68
    },
    {
      "midi": 58,
      "hit": false,
      "t": 271230,
      "d": 890,
      "v": 63
    },
    {
      "midi": 53,
      "hit": false,
      "t": 271230,
      "d": 1030,
      "v": 61
    },
    {
      "midi": 46,
      "hit": false,
      "t": 271230,
      "d": 2300,
      "v": 55
    },
    {
      "midi": 60,
      "hit": false,
      "t": 271800,
      "d": 110,
      "v": 112
    },
    {
      "midi": 60,
      "hit": false,
      "t": 271830,
      "d": 410,
      "v": 59
    },
    {
      "midi": 60,
      "hit": false,
      "t": 272400,
      "d": 590,
      "v": 116
    },
    {
      "midi": 53,
      "hit": false,
      "t": 272400,
      "d": 670,
      "v": 101
    },
    {
      "midi": 60,
      "hit": false,
      "t": 272430,
      "d": 610,
      "v": 66
    },
    {
      "midi": 53,
      "hit": false,
      "t": 272430,
      "d": 930,
      "v": 63
    },
    {
      "midi": 58,
      "hit": false,
      "t": 273000,
      "d": 140,
      "v": 100
    },
    {
      "midi": 58,
      "hit": false,
      "t": 273030,
      "d": 410,
      "v": 66
    },
    {
      "midi": 55,
      "hit": false,
      "t": 273600,
      "d": 620,
      "v": 108
    },
    {
      "midi": 58,
      "hit": false,
      "t": 273600,
      "d": 670,
      "v": 103
    },
    {
      "midi": 39,
      "hit": false,
      "t": 273600,
      "d": 1800,
      "v": 81
    },
    {
      "midi": 27,
      "hit": false,
      "t": 273600,
      "d": 1820,
      "v": 91
    },
    {
      "midi": 58,
      "hit": false,
      "t": 273630,
      "d": 1000,
      "v": 67
    },
    {
      "midi": 55,
      "hit": false,
      "t": 273630,
      "d": 1010,
      "v": 78
    },
    {
      "midi": 51,
      "hit": false,
      "t": 273630,
      "d": 1020,
      "v": 43
    },
    {
      "midi": 39,
      "hit": false,
      "t": 273630,
      "d": 1520,
      "v": 60
    },
    {
      "midi": 51,
      "hit": false,
      "t": 274200,
      "d": 580,
      "v": 101
    },
    {
      "midi": 55,
      "hit": false,
      "t": 274800,
      "d": 560,
      "v": 110
    },
    {
      "midi": 58,
      "hit": false,
      "t": 274800,
      "d": 600,
      "v": 103
    },
    {
      "midi": 51,
      "hit": false,
      "t": 274830,
      "d": 550,
      "v": 55
    },
    {
      "midi": 55,
      "hit": false,
      "t": 274830,
      "d": 550,
      "v": 86
    },
    {
      "midi": 58,
      "hit": false,
      "t": 274830,
      "d": 560,
      "v": 64
    },
    {
      "midi": 51,
      "hit": false,
      "t": 275400,
      "d": 130,
      "v": 90
    },
    {
      "midi": 39,
      "hit": false,
      "t": 275430,
      "d": 510,
      "v": 67
    },
    {
      "midi": 58,
      "hit": false,
      "t": 275730,
      "d": 30,
      "v": 46
    },
    {
      "midi": 51,
      "hit": false,
      "t": 275730,
      "d": 110,
      "v": 56
    },
    {
      "midi": 53,
      "hit": false,
      "t": 276000,
      "d": 490,
      "v": 82
    },
    {
      "midi": 57,
      "hit": false,
      "t": 276000,
      "d": 530,
      "v": 106
    },
    {
      "midi": 60,
      "hit": false,
      "t": 276000,
      "d": 540,
      "v": 103
    },
    {
      "midi": 29,
      "hit": false,
      "t": 276000,
      "d": 1660,
      "v": 108
    },
    {
      "midi": 41,
      "hit": false,
      "t": 276000,
      "d": 1780,
      "v": 72
    },
    {
      "midi": 53,
      "hit": false,
      "t": 276030,
      "d": 500,
      "v": 59
    },
    {
      "midi": 57,
      "hit": false,
      "t": 276030,
      "d": 540,
      "v": 74
    },
    {
      "midi": 60,
      "hit": false,
      "t": 276030,
      "d": 560,
      "v": 63
    },
    {
      "midi": 41,
      "hit": false,
      "t": 276030,
      "d": 2270,
      "v": 78
    },
    {
      "midi": 53,
      "hit": false,
      "t": 276600,
      "d": 280,
      "v": 95
    },
    {
      "midi": 53,
      "hit": false,
      "t": 276630,
      "d": 300,
      "v": 59
    },
    {
      "midi": 57,
      "hit": false,
      "t": 276900,
      "d": 200,
      "v": 114
    },
    {
      "midi": 57,
      "hit": false,
      "t": 276930,
      "d": 250,
      "v": 66
    },
    {
      "midi": 60,
      "hit": false,
      "t": 277200,
      "d": 280,
      "v": 123
    },
    {
      "midi": 60,
      "hit": false,
      "t": 277230,
      "d": 340,
      "v": 78
    },
    {
      "midi": 57,
      "hit": false,
      "t": 277500,
      "d": 330,
      "v": 80
    },
    {
      "midi": 57,
      "hit": false,
      "t": 277530,
      "d": 270,
      "v": 76
    },
    {
      "midi": 53,
      "hit": false,
      "t": 277800,
      "d": 170,
      "v": 97
    },
    {
      "midi": 53,
      "hit": false,
      "t": 277830,
      "d": 1760,
      "v": 74
    },
    {
      "midi": 62,
      "hit": false,
      "t": 278400,
      "d": 560,
      "v": 108
    },
    {
      "midi": 58,
      "hit": false,
      "t": 278400,
      "d": 570,
      "v": 103
    },
    {
      "midi": 46,
      "hit": false,
      "t": 278400,
      "d": 1860,
      "v": 83
    },
    {
      "midi": 34,
      "hit": false,
      "t": 278400,
      "d": 4140,
      "v": 92
    },
    {
      "midi": 62,
      "hit": false,
      "t": 278430,
      "d": 1130,
      "v": 78
    },
    {
      "midi": 58,
      "hit": false,
      "t": 278430,
      "d": 1160,
      "v": 74
    },
    {
      "midi": 46,
      "hit": false,
      "t": 278430,
      "d": 1560,
      "v": 71
    },
    {
      "midi": 53,
      "hit": false,
      "t": 279000,
      "d": 610,
      "v": 90
    },
    {
      "midi": 58,
      "hit": false,
      "t": 279600,
      "d": 570,
      "v": 101
    },
    {
      "midi": 62,
      "hit": false,
      "t": 279600,
      "d": 570,
      "v": 114
    },
    {
      "midi": 53,
      "hit": false,
      "t": 279630,
      "d": 650,
      "v": 72
    },
    {
      "midi": 62,
      "hit": false,
      "t": 279630,
      "d": 690,
      "v": 72
    },
    {
      "midi": 58,
      "hit": false,
      "t": 279630,
      "d": 730,
      "v": 71
    },
    {
      "midi": 53,
      "hit": false,
      "t": 280200,
      "d": 160,
      "v": 96
    },
    {
      "midi": 46,
      "hit": false,
      "t": 280230,
      "d": 400,
      "v": 74
    },
    {
      "midi": 60,
      "hit": false,
      "t": 280530,
      "d": 210,
      "v": 72
    },
    {
      "midi": 62,
      "hit": false,
      "t": 280800,
      "d": 540,
      "v": 110
    },
    {
      "midi": 58,
      "hit": false,
      "t": 280800,
      "d": 660,
      "v": 100
    },
    {
      "midi": 53,
      "hit": false,
      "t": 280800,
      "d": 720,
      "v": 96
    },
    {
      "midi": 46,
      "hit": false,
      "t": 280800,
      "d": 1560,
      "v": 88
    },
    {
      "midi": 62,
      "hit": false,
      "t": 280830,
      "d": 590,
      "v": 72
    },
    {
      "midi": 58,
      "hit": false,
      "t": 280830,
      "d": 1000,
      "v": 63
    },
    {
      "midi": 53,
      "hit": false,
      "t": 280830,
      "d": 1050,
      "v": 70
    },
    {
      "midi": 46,
      "hit": false,
      "t": 280830,
      "d": 2360,
      "v": 69
    },
    {
      "midi": 60,
      "hit": false,
      "t": 281400,
      "d": 110,
      "v": 106
    },
    {
      "midi": 60,
      "hit": false,
      "t": 281430,
      "d": 420,
      "v": 65
    },
    {
      "midi": 60,
      "hit": false,
      "t": 282000,
      "d": 610,
      "v": 106
    },
    {
      "midi": 53,
      "hit": false,
      "t": 282000,
      "d": 740,
      "v": 99
    },
    {
      "midi": 60,
      "hit": false,
      "t": 282030,
      "d": 600,
      "v": 74
    },
    {
      "midi": 53,
      "hit": false,
      "t": 282030,
      "d": 880,
      "v": 72
    },
    {
      "midi": 58,
      "hit": false,
      "t": 282600,
      "d": 120,
      "v": 77
    },
    {
      "midi": 58,
      "hit": false,
      "t": 282630,
      "d": 390,
      "v": 67
    },
    {
      "midi": 55,
      "hit": false,
      "t": 283200,
      "d": 570,
      "v": 101
    },
    {
      "midi": 58,
      "hit": false,
      "t": 283200,
      "d": 620,
      "v": 103
    },
    {
      "midi": 27,
      "hit": false,
      "t": 283200,
      "d": 1810,
      "v": 93
    },
    {
      "midi": 39,
      "hit": false,
      "t": 283200,
      "d": 1900,
      "v": 88
    },
    {
      "midi": 55,
      "hit": false,
      "t": 283230,
      "d": 870,
      "v": 86
    },
    {
      "midi": 58,
      "hit": false,
      "t": 283230,
      "d": 920,
      "v": 71
    },
    {
      "midi": 51,
      "hit": false,
      "t": 283230,
      "d": 940,
      "v": 50
    },
    {
      "midi": 39,
      "hit": false,
      "t": 283230,
      "d": 1420,
      "v": 61
    },
    {
      "midi": 51,
      "hit": false,
      "t": 283800,
      "d": 430,
      "v": 93
    },
    {
      "midi": 55,
      "hit": false,
      "t": 284400,
      "d": 580,
      "v": 105
    },
    {
      "midi": 58,
      "hit": false,
      "t": 284400,
      "d": 660,
      "v": 104
    },
    {
      "midi": 55,
      "hit": false,
      "t": 284430,
      "d": 670,
      "v": 83
    },
    {
      "midi": 51,
      "hit": false,
      "t": 284430,
      "d": 730,
      "v": 60
    },
    {
      "midi": 58,
      "hit": false,
      "t": 284430,
      "d": 780,
      "v": 66
    },
    {
      "midi": 51,
      "hit": false,
      "t": 285000,
      "d": 110,
      "v": 97
    },
    {
      "midi": 39,
      "hit": false,
      "t": 285030,
      "d": 570,
      "v": 71
    },
    {
      "midi": 53,
      "hit": false,
      "t": 285600,
      "d": 400,
      "v": 77
    },
    {
      "midi": 57,
      "hit": false,
      "t": 285600,
      "d": 430,
      "v": 102
    },
    {
      "midi": 60,
      "hit": false,
      "t": 285600,
      "d": 460,
      "v": 108
    },
    {
      "midi": 29,
      "hit": false,
      "t": 285600,
      "d": 1770,
      "v": 98
    },
    {
      "midi": 41,
      "hit": false,
      "t": 285600,
      "d": 1860,
      "v": 77
    },
    {
      "midi": 60,
      "hit": false,
      "t": 285630,
      "d": 1000,
      "v": 66
    },
    {
      "midi": 53,
      "hit": false,
      "t": 285630,
      "d": 1010,
      "v": 59
    },
    {
      "midi": 57,
      "hit": false,
      "t": 285630,
      "d": 1040,
      "v": 68
    },
    {
      "midi": 41,
      "hit": false,
      "t": 285630,
      "d": 2300,
      "v": 80
    },
    {
      "midi": 53,
      "hit": false,
      "t": 286200,
      "d": 270,
      "v": 91
    },
    {
      "midi": 57,
      "hit": false,
      "t": 286500,
      "d": 180,
      "v": 105
    },
    {
      "midi": 60,
      "hit": false,
      "t": 286800,
      "d": 250,
      "v": 118
    },
    {
      "midi": 57,
      "hit": false,
      "t": 286830,
      "d": 990,
      "v": 66
    },
    {
      "midi": 53,
      "hit": false,
      "t": 286830,
      "d": 1000,
      "v": 47
    },
    {
      "midi": 60,
      "hit": false,
      "t": 286830,
      "d": 1000,
      "v": 70
    },
    {
      "midi": 57,
      "hit": false,
      "t": 287100,
      "d": 250,
      "v": 103
    },
    {
      "midi": 53,
      "hit": false,
      "t": 287400,
      "d": 120,
      "v": 97
    },
    {
      "midi": 48,
      "hit": false,
      "t": 287700,
      "d": 110,
      "v": 99
    },
    {
      "midi": 53,
      "hit": false,
      "t": 288000,
      "d": 4960,
      "v": 98
    },
    {
      "midi": 50,
      "hit": false,
      "t": 288000,
      "d": 4980,
      "v": 93
    },
    {
      "midi": 58,
      "hit": false,
      "t": 288000,
      "d": 4990,
      "v": 96
    },
    {
      "midi": 46,
      "hit": false,
      "t": 288000,
      "d": 5020,
      "v": 97
    },
    {
      "midi": 34,
      "hit": false,
      "t": 288000,
      "d": 5040,
      "v": 109
    },
    {
      "midi": 53,
      "hit": false,
      "t": 288030,
      "d": 4370,
      "v": 57
    },
    {
      "midi": 58,
      "hit": false,
      "t": 288030,
      "d": 4420,
      "v": 60
    },
    {
      "midi": 46,
      "hit": false,
      "t": 288030,
      "d": 4450,
      "v": 45
    },
    {
      "midi": 34,
      "hit": false,
      "t": 288030,
      "d": 4460,
      "v": 66
    },
    {
      "midi": 62,
      "hit": false,
      "t": 288030,
      "d": 4460,
      "v": 59
    }
  ]
}