{
  "jsonPath": "Animes/Blue Seed MIDI Collection/touch-and-go.json",
  "path": "Animes\\Blue Seed MIDI Collection\\Touch and go.mid",
  "name": "Touch and go",
  "difficulty": "Advanced",
  "bpm": 100,
  "notes": [
    {
      "midi": 37,
      "hit": false,
      "t": 0,
      "d": 600,
      "v": 84
    },
    {
      "midi": 37,
      "hit": false,
      "t": 1200,
      "d": 600,
      "v": 84
    },
    {
      "midi": 37,
      "hit": false,
      "t": 2400,
      "d": 600,
      "v": 64
    },
    {
      "midi": 37,
      "hit": false,
      "t": 3000,
      "d": 600,
      "v": 84
    },
    {
      "midi": 37,
      "hit": false,
      "t": 3600,
      "d": 600,
      "v": 64
    },
    {
      "midi": 37,
      "hit": false,
      "t": 4200,
      "d": 600,
      "v": 84
    },
    {
      "midi": 49,
      "hit": false,
      "t": 4800,
      "d": 125,
      "v": 90
    },
    {
      "midi": 42,
      "hit": false,
      "t": 4800,
      "d": 125,
      "v": 90
    },
    {
      "midi": 35,
      "hit": false,
      "t": 4800,
      "d": 125,
      "v": 100
    },
    {
      "midi": 67,
      "hit": false,
      "t": 4800,
      "d": 740,
      "v": 55
    },
    {
      "midi": 64,
      "hit": false,
      "t": 4800,
      "d": 770,
      "v": 58
    },
    {
      "midi": 60,
      "hit": false,
      "t": 4800,
      "d": 805,
      "v": 53
    },
    {
      "midi": 36,
      "hit": false,
      "t": 4825,
      "d": 2080,
      "v": 33
    },
    {
      "midi": 36,
      "hit": false,
      "t": 4830,
      "d": 660,
      "v": 63
    },
    {
      "midi": 42,
      "hit": false,
      "t": 5100,
      "d": 125,
      "v": 70
    },
    {
      "midi": 37,
      "hit": false,
      "t": 5400,
      "d": 125,
      "v": 100
    },
    {
      "midi": 42,
      "hit": false,
      "t": 5400,
      "d": 125,
      "v": 80
    },
    {
      "midi": 42,
      "hit": false,
      "t": 5700,
      "d": 125,
      "v": 70
    },
    {
      "midi": 35,
      "hit": false,
      "t": 5700,
      "d": 125,
      "v": 80
    },
    {
      "midi": 36,
      "hit": false,
      "t": 5715,
      "d": 80,
      "v": 64
    },
    {
      "midi": 67,
      "hit": false,
      "t": 5820,
      "d": 470,
      "v": 58
    },
    {
      "midi": 64,
      "hit": false,
      "t": 5850,
      "d": 445,
      "v": 61
    },
    {
      "midi": 60,
      "hit": false,
      "t": 5905,
      "d": 315,
      "v": 85
    },
    {
      "midi": 42,
      "hit": false,
      "t": 6000,
      "d": 125,
      "v": 90
    },
    {
      "midi": 35,
      "hit": false,
      "t": 6000,
      "d": 125,
      "v": 100
    },
    {
      "midi": 36,
      "hit": false,
      "t": 6020,
      "d": 800,
      "v": 78
    },
    {
      "midi": 60,
      "hit": false,
      "t": 6295,
      "d": 310,
      "v": 91
    },
    {
      "midi": 42,
      "hit": false,
      "t": 6300,
      "d": 125,
      "v": 70
    },
    {
      "midi": 81,
      "hit": false,
      "t": 6300,
      "d": 300,
      "v": 98
    },
    {
      "midi": 57,
      "hit": false,
      "t": 6300,
      "d": 300,
      "v": 98
    },
    {
      "midi": 37,
      "hit": false,
      "t": 6600,
      "d": 125,
      "v": 100
    },
    {
      "midi": 42,
      "hit": false,
      "t": 6600,
      "d": 125,
      "v": 80
    },
    {
      "midi": 84,
      "hit": false,
      "t": 6600,
      "d": 300,
      "v": 98
    },
    {
      "midi": 60,
      "hit": false,
      "t": 6600,
      "d": 300,
      "v": 98
    },
    {
      "midi": 64,
      "hit": false,
      "t": 6605,
      "d": 320,
      "v": 70
    },
    {
      "midi": 42,
      "hit": false,
      "t": 6900,
      "d": 125,
      "v": 70
    },
    {
      "midi": 35,
      "hit": false,
      "t": 6900,
      "d": 125,
      "v": 80
    },
    {
      "midi": 81,
      "hit": false,
      "t": 6900,
      "d": 300,
      "v": 98
    },
    {
      "midi": 57,
      "hit": false,
      "t": 6900,
      "d": 300,
      "v": 98
    },
    {
      "midi": 67,
      "hit": false,
      "t": 6915,
      "d": 130,
      "v": 68
    },
    {
      "midi": 36,
      "hit": false,
      "t": 6930,
      "d": 90,
      "v": 87
    },
    {
      "midi": 34,
      "hit": false,
      "t": 7200,
      "d": 705,
      "v": 82
    },
    {
      "midi": 42,
      "hit": false,
      "t": 7200,
      "d": 125,
      "v": 90
    },
    {
      "midi": 35,
      "hit": false,
      "t": 7200,
      "d": 125,
      "v": 100
    },
    {
      "midi": 58,
      "hit": false,
      "t": 7200,
      "d": 1200,
      "v": 80
    },
    {
      "midi": 62,
      "hit": false,
      "t": 7200,
      "d": 1200,
      "v": 80
    },
    {
      "midi": 65,
      "hit": false,
      "t": 7200,
      "d": 1200,
      "v": 80
    },
    {
      "midi": 86,
      "hit": false,
      "t": 7200,
      "d": 450,
      "v": 98
    },
    {
      "midi": 62,
      "hit": false,
      "t": 7200,
      "d": 450,
      "v": 98
    },
    {
      "midi": 42,
      "hit": false,
      "t": 7500,
      "d": 125,
      "v": 70
    },
    {
      "midi": 86,
      "hit": false,
      "t": 7650,
      "d": 150,
      "v": 98
    },
    {
      "midi": 62,
      "hit": false,
      "t": 7650,
      "d": 150,
      "v": 98
    },
    {
      "midi": 37,
      "hit": false,
      "t": 7800,
      "d": 125,
      "v": 100
    },
    {
      "midi": 42,
      "hit": false,
      "t": 7800,
      "d": 125,
      "v": 80
    },
    {
      "midi": 86,
      "hit": false,
      "t": 7800,
      "d": 300,
      "v": 98
    },
    {
      "midi": 62,
      "hit": false,
      "t": 7800,
      "d": 300,
      "v": 98
    },
    {
      "midi": 34,
      "hit": false,
      "t": 8090,
      "d": 170,
      "v": 85
    },
    {
      "midi": 42,
      "hit": false,
      "t": 8100,
      "d": 125,
      "v": 70
    },
    {
      "midi": 35,
      "hit": false,
      "t": 8100,
      "d": 125,
      "v": 80
    },
    {
      "midi": 86,
      "hit": false,
      "t": 8100,
      "d": 300,
      "v": 98
    },
    {
      "midi": 62,
      "hit": false,
      "t": 8100,
      "d": 300,
      "v": 98
    },
    {
      "midi": 42,
      "hit": false,
      "t": 8400,
      "d": 125,
      "v": 90
    },
    {
      "midi": 35,
      "hit": false,
      "t": 8400,
      "d": 125,
      "v": 100
    },
    {
      "midi": 69,
      "hit": false,
      "t": 8400,
      "d": 390,
      "v": 68
    },
    {
      "midi": 61,
      "hit": false,
      "t": 8400,
      "d": 390,
      "v": 68
    },
    {
      "midi": 64,
      "hit": false,
      "t": 8400,
      "d": 390,
      "v": 68
    },
    {
      "midi": 67,
      "hit": false,
      "t": 8400,
      "d": 390,
      "v": 68
    },
    {
      "midi": 86,
      "hit": false,
      "t": 8400,
      "d": 150,
      "v": 98
    },
    {
      "midi": 62,
      "hit": false,
      "t": 8400,
      "d": 150,
      "v": 98
    },
    {
      "midi": 33,
      "hit": false,
      "t": 8405,
      "d": 730,
      "v": 72
    },
    {
      "midi": 86,
      "hit": false,
      "t": 8550,
      "d": 450,
      "v": 98
    },
    {
      "midi": 62,
      "hit": false,
      "t": 8550,
      "d": 450,
      "v": 98
    },
    {
      "midi": 42,
      "hit": false,
      "t": 8700,
      "d": 125,
      "v": 70
    },
    {
      "midi": 45,
      "hit": false,
      "t": 8700,
      "d": 585,
      "v": 78
    },
    {
      "midi": 37,
      "hit": false,
      "t": 9000,
      "d": 125,
      "v": 100
    },
    {
      "midi": 42,
      "hit": false,
      "t": 9000,
      "d": 125,
      "v": 80
    },
    {
      "midi": 69,
      "hit": false,
      "t": 9000,
      "d": 335,
      "v": 80
    },
    {
      "midi": 61,
      "hit": false,
      "t": 9000,
      "d": 335,
      "v": 80
    },
    {
      "midi": 64,
      "hit": false,
      "t": 9000,
      "d": 335,
      "v": 80
    },
    {
      "midi": 67,
      "hit": false,
      "t": 9000,
      "d": 335,
      "v": 80
    },
    {
      "midi": 84,
      "hit": false,
      "t": 9000,
      "d": 300,
      "v": 98
    },
    {
      "midi": 60,
      "hit": false,
      "t": 9000,
      "d": 300,
      "v": 98
    },
    {
      "midi": 42,
      "hit": false,
      "t": 9300,
      "d": 125,
      "v": 70
    },
    {
      "midi": 35,
      "hit": false,
      "t": 9300,
      "d": 125,
      "v": 80
    },
    {
      "midi": 86,
      "hit": false,
      "t": 9300,
      "d": 1500,
      "v": 98
    },
    {
      "midi": 62,
      "hit": false,
      "t": 9300,
      "d": 1500,
      "v": 98
    },
    {
      "midi": 33,
      "hit": false,
      "t": 9320,
      "d": 160,
      "v": 74
    },
    {
      "midi": 38,
      "hit": false,
      "t": 9600,
      "d": 865,
      "v": 72
    },
    {
      "midi": 42,
      "hit": false,
      "t": 9600,
      "d": 125,
      "v": 90
    },
    {
      "midi": 35,
      "hit": false,
      "t": 9600,
      "d": 125,
      "v": 100
    },
    {
      "midi": 57,
      "hit": false,
      "t": 9620,
      "d": 1365,
      "v": 74
    },
    {
      "midi": 62,
      "hit": false,
      "t": 9620,
      "d": 1365,
      "v": 74
    },
    {
      "midi": 65,
      "hit": false,
      "t": 9620,
      "d": 1365,
      "v": 74
    },
    {
      "midi": 42,
      "hit": false,
      "t": 9900,
      "d": 125,
      "v": 70
    },
    {
      "midi": 37,
      "hit": false,
      "t": 10200,
      "d": 125,
      "v": 100
    },
    {
      "midi": 42,
      "hit": false,
      "t": 10200,
      "d": 125,
      "v": 80
    },
    {
      "midi": 38,
      "hit": false,
      "t": 10500,
      "d": 75,
      "v": 82
    },
    {
      "midi": 42,
      "hit": false,
      "t": 10500,
      "d": 125,
      "v": 70
    },
    {
      "midi": 35,
      "hit": false,
      "t": 10500,
      "d": 125,
      "v": 80
    },
    {
      "midi": 38,
      "hit": false,
      "t": 10800,
      "d": 95,
      "v": 85
    },
    {
      "midi": 42,
      "hit": false,
      "t": 10800,
      "d": 125,
      "v": 90
    },
    {
      "midi": 35,
      "hit": false,
      "t": 10800,
      "d": 125,
      "v": 100
    },
    {
      "midi": 38,
      "hit": false,
      "t": 11100,
      "d": 390,
      "v": 82
    },
    {
      "midi": 42,
      "hit": false,
      "t": 11100,
      "d": 125,
      "v": 70
    },
    {
      "midi": 81,
      "hit": false,
      "t": 11100,
      "d": 300,
      "v": 98
    },
    {
      "midi": 57,
      "hit": false,
      "t": 11100,
      "d": 300,
      "v": 98
    },
    {
      "midi": 50,
      "hit": false,
      "t": 11115,
      "d": 340,
      "v": 78
    },
    {
      "midi": 37,
      "hit": false,
      "t": 11400,
      "d": 125,
      "v": 100
    },
    {
      "midi": 42,
      "hit": false,
      "t": 11400,
      "d": 125,
      "v": 80
    },
    {
      "midi": 84,
      "hit": false,
      "t": 11400,
      "d": 300,
      "v": 98
    },
    {
      "midi": 60,
      "hit": false,
      "t": 11400,
      "d": 300,
      "v": 98
    },
    {
      "midi": 57,
      "hit": false,
      "t": 11410,
      "d": 420,
      "v": 74
    },
    {
      "midi": 62,
      "hit": false,
      "t": 11410,
      "d": 420,
      "v": 74
    },
    {
      "midi": 65,
      "hit": false,
      "t": 11410,
      "d": 420,
      "v": 74
    },
    {
      "midi": 38,
      "hit": false,
      "t": 11700,
      "d": 130,
      "v": 87
    },
    {
      "midi": 42,
      "hit": false,
      "t": 11700,
      "d": 125,
      "v": 70
    },
    {
      "midi": 35,
      "hit": false,
      "t": 11700,
      "d": 125,
      "v": 80
    },
    {
      "midi": 81,
      "hit": false,
      "t": 11700,
      "d": 300,
      "v": 98
    },
    {
      "midi": 57,
      "hit": false,
      "t": 11700,
      "d": 300,
      "v": 98
    },
    {
      "midi": 34,
      "hit": false,
      "t": 12000,
      "d": 705,
      "v": 82
    },
    {
      "midi": 42,
      "hit": false,
      "t": 12000,
      "d": 125,
      "v": 90
    },
    {
      "midi": 35,
      "hit": false,
      "t": 12000,
      "d": 125,
      "v": 100
    },
    {
      "midi": 58,
      "hit": false,
      "t": 12000,
      "d": 390,
      "v": 68
    },
    {
      "midi": 62,
      "hit": false,
      "t": 12000,
      "d": 390,
      "v": 68
    },
    {
      "midi": 65,
      "hit": false,
      "t": 12000,
      "d": 390,
      "v": 68
    },
    {
      "midi": 86,
      "hit": false,
      "t": 12000,
      "d": 450,
      "v": 98
    },
    {
      "midi": 62,
      "hit": false,
      "t": 12000,
      "d": 450,
      "v": 98
    },
    {
      "midi": 42,
      "hit": false,
      "t": 12300,
      "d": 125,
      "v": 70
    },
    {
      "midi": 46,
      "hit": false,
      "t": 12300,
      "d": 585,
      "v": 78
    },
    {
      "midi": 86,
      "hit": false,
      "t": 12450,
      "d": 450,
      "v": 98
    },
    {
      "midi": 62,
      "hit": false,
      "t": 12450,
      "d": 450,
      "v": 98
    },
    {
      "midi": 37,
      "hit": false,
      "t": 12600,
      "d": 125,
      "v": 100
    },
    {
      "midi": 42,
      "hit": false,
      "t": 12600,
      "d": 125,
      "v": 80
    },
    {
      "midi": 58,
      "hit": false,
      "t": 12600,
      "d": 335,
      "v": 80
    },
    {
      "midi": 62,
      "hit": false,
      "t": 12600,
      "d": 335,
      "v": 80
    },
    {
      "midi": 65,
      "hit": false,
      "t": 12600,
      "d": 335,
      "v": 80
    },
    {
      "midi": 34,
      "hit": false,
      "t": 12890,
      "d": 170,
      "v": 85
    },
    {
      "midi": 42,
      "hit": false,
      "t": 12900,
      "d": 125,
      "v": 70
    },
    {
      "midi": 35,
      "hit": false,
      "t": 12900,
      "d": 125,
      "v": 80
    },
    {
      "midi": 86,
      "hit": false,
      "t": 12900,
      "d": 450,
      "v": 98
    },
    {
      "midi": 62,
      "hit": false,
      "t": 12900,
      "d": 450,
      "v": 98
    },
    {
      "midi": 33,
      "hit": false,
      "t": 13200,
      "d": 705,
      "v": 82
    },
    {
      "midi": 42,
      "hit": false,
      "t": 13200,
      "d": 125,
      "v": 90
    },
    {
      "midi": 35,
      "hit": false,
      "t": 13200,
      "d": 125,
      "v": 100
    },
    {
      "midi": 69,
      "hit": false,
      "t": 13210,
      "d": 1005,
      "v": 72
    },
    {
      "midi": 64,
      "hit": false,
      "t": 13210,
      "d": 1005,
      "v": 72
    },
    {
      "midi": 67,
      "hit": false,
      "t": 13210,
      "d": 1005,
      "v": 72
    },
    {
      "midi": 86,
      "hit": false,
      "t": 13350,
      "d": 450,
      "v": 98
    },
    {
      "midi": 62,
      "hit": false,
      "t": 13350,
      "d": 450,
      "v": 98
    },
    {
      "midi": 42,
      "hit": false,
      "t": 13500,
      "d": 125,
      "v": 70
    },
    {
      "midi": 37,
      "hit": false,
      "t": 13800,
      "d": 125,
      "v": 100
    },
    {
      "midi": 42,
      "hit": false,
      "t": 13800,
      "d": 125,
      "v": 80
    },
    {
      "midi": 89,
      "hit": false,
      "t": 13800,
      "d": 300,
      "v": 98
    },
    {
      "midi": 65,
      "hit": false,
      "t": 13800,
      "d": 300,
      "v": 98
    },
    {
      "midi": 33,
      "hit": false,
      "t": 14090,
      "d": 170,
      "v": 85
    },
    {
      "midi": 42,
      "hit": false,
      "t": 14100,
      "d": 125,
      "v": 70
    },
    {
      "midi": 35,
      "hit": false,
      "t": 14100,
      "d": 125,
      "v": 80
    },
    {
      "midi": 86,
      "hit": false,
      "t": 14100,
      "d": 300,
      "v": 98
    },
    {
      "midi": 62,
      "hit": false,
      "t": 14100,
      "d": 300,
      "v": 98
    },
    {
      "midi": 61,
      "hit": false,
      "t": 14115,
      "d": 100,
      "v": 66
    },
    {
      "midi": 46,
      "hit": false,
      "t": 14250,
      "d": 125,
      "v": 80
    },
    {
      "midi": 64,
      "hit": false,
      "t": 14270,
      "d": 130,
      "v": 70
    },
    {
      "midi": 38,
      "hit": false,
      "t": 14400,
      "d": 705,
      "v": 82
    },
    {
      "midi": 42,
      "hit": false,
      "t": 14400,
      "d": 125,
      "v": 90
    },
    {
      "midi": 35,
      "hit": false,
      "t": 14400,
      "d": 125,
      "v": 100
    },
    {
      "midi": 57,
      "hit": false,
      "t": 14400,
      "d": 1200,
      "v": 80
    },
    {
      "midi": 62,
      "hit": false,
      "t": 14400,
      "d": 1200,
      "v": 80
    },
    {
      "midi": 65,
      "hit": false,
      "t": 14400,
      "d": 1200,
      "v": 80
    },
    {
      "midi": 86,
      "hit": false,
      "t": 14400,
      "d": 1800,
      "v": 98
    },
    {
      "midi": 62,
      "hit": false,
      "t": 14400,
      "d": 1800,
      "v": 98
    },
    {
      "midi": 42,
      "hit": false,
      "t": 14700,
      "d": 125,
      "v": 70
    },
    {
      "midi": 37,
      "hit": false,
      "t": 15000,
      "d": 125,
      "v": 100
    },
    {
      "midi": 42,
      "hit": false,
      "t": 15000,
      "d": 125,
      "v": 80
    },
    {
      "midi": 38,
      "hit": false,
      "t": 15290,
      "d": 170,
      "v": 85
    },
    {
      "midi": 42,
      "hit": false,
      "t": 15300,
      "d": 125,
      "v": 70
    },
    {
      "midi": 35,
      "hit": false,
      "t": 15300,
      "d": 125,
      "v": 80
    },
    {
      "midi": 43,
      "hit": false,
      "t": 15600,
      "d": 705,
      "v": 82
    },
    {
      "midi": 42,
      "hit": false,
      "t": 15600,
      "d": 125,
      "v": 90
    },
    {
      "midi": 35,
      "hit": false,
      "t": 15600,
      "d": 125,
      "v": 100
    },
    {
      "midi": 67,
      "hit": false,
      "t": 15600,
      "d": 390,
      "v": 68
    },
    {
      "midi": 59,
      "hit": false,
      "t": 15600,
      "d": 390,
      "v": 68
    },
    {
      "midi": 62,
      "hit": false,
      "t": 15600,
      "d": 390,
      "v": 68
    },
    {
      "midi": 65,
      "hit": false,
      "t": 15600,
      "d": 390,
      "v": 68
    },
    {
      "midi": 42,
      "hit": false,
      "t": 15900,
      "d": 125,
      "v": 70
    },
    {
      "midi": 43,
      "hit": false,
      "t": 15900,
      "d": 585,
      "v": 78
    },
    {
      "midi": 37,
      "hit": false,
      "t": 16200,
      "d": 125,
      "v": 100
    },
    {
      "midi": 42,
      "hit": false,
      "t": 16200,
      "d": 125,
      "v": 80
    },
    {
      "midi": 67,
      "hit": false,
      "t": 16200,
      "d": 335,
      "v": 80
    },
    {
      "midi": 59,
      "hit": false,
      "t": 16200,
      "d": 335,
      "v": 80
    },
    {
      "midi": 62,
      "hit": false,
      "t": 16200,
      "d": 335,
      "v": 80
    },
    {
      "midi": 65,
      "hit": false,
      "t": 16200,
      "d": 335,
      "v": 80
    },
    {
      "midi": 74,
      "hit": false,
      "t": 16200,
      "d": 300,
      "v": 98
    },
    {
      "midi": 50,
      "hit": false,
      "t": 16200,
      "d": 300,
      "v": 98
    },
    {
      "midi": 43,
      "hit": false,
      "t": 16490,
      "d": 170,
      "v": 85
    },
    {
      "midi": 42,
      "hit": false,
      "t": 16500,
      "d": 125,
      "v": 70
    },
    {
      "midi": 35,
      "hit": false,
      "t": 16500,
      "d": 125,
      "v": 80
    },
    {
      "midi": 76,
      "hit": false,
      "t": 16500,
      "d": 300,
      "v": 98
    },
    {
      "midi": 52,
      "hit": false,
      "t": 16500,
      "d": 300,
      "v": 98
    },
    {
      "midi": 42,
      "hit": false,
      "t": 16800,
      "d": 125,
      "v": 90
    },
    {
      "midi": 35,
      "hit": false,
      "t": 16800,
      "d": 125,
      "v": 100
    },
    {
      "midi": 77,
      "hit": false,
      "t": 16800,
      "d": 300,
      "v": 98
    },
    {
      "midi": 53,
      "hit": false,
      "t": 16800,
      "d": 300,
      "v": 98
    },
    {
      "midi": 57,
      "hit": false,
      "t": 16820,
      "d": 1365,
      "v": 74
    },
    {
      "midi": 62,
      "hit": false,
      "t": 16820,
      "d": 1365,
      "v": 74
    },
    {
      "midi": 65,
      "hit": false,
      "t": 16820,
      "d": 1365,
      "v": 74
    },
    {
      "midi": 38,
      "hit": false,
      "t": 16830,
      "d": 660,
      "v": 63
    },
    {
      "midi": 42,
      "hit": false,
      "t": 17100,
      "d": 125,
      "v": 70
    },
    {
      "midi": 76,
      "hit": false,
      "t": 17100,
      "d": 150,
      "v": 98
    },
    {
      "midi": 52,
      "hit": false,
      "t": 17100,
      "d": 150,
      "v": 98
    },
    {
      "midi": 77,
      "hit": false,
      "t": 17250,
      "d": 450,
      "v": 98
    },
    {
      "midi": 53,
      "hit": false,
      "t": 17250,
      "d": 450,
      "v": 98
    },
    {
      "midi": 37,
      "hit": false,
      "t": 17400,
      "d": 125,
      "v": 100
    },
    {
      "midi": 42,
      "hit": false,
      "t": 17400,
      "d": 125,
      "v": 80
    },
    {
      "midi": 42,
      "hit": false,
      "t": 17700,
      "d": 125,
      "v": 70
    },
    {
      "midi": 35,
      "hit": false,
      "t": 17700,
      "d": 125,
      "v": 80
    },
    {
      "midi": 76,
      "hit": false,
      "t": 17700,
      "d": 150,
      "v": 98
    },
    {
      "midi": 52,
      "hit": false,
      "t": 17700,
      "d": 150,
      "v": 98
    },
    {
      "midi": 38,
      "hit": false,
      "t": 17715,
      "d": 80,
      "v": 64
    },
    {
      "midi": 79,
      "hit": false,
      "t": 17850,
      "d": 450,
      "v": 98
    },
    {
      "midi": 55,
      "hit": false,
      "t": 17850,
      "d": 450,
      "v": 98
    },
    {
      "midi": 42,
      "hit": false,
      "t": 18000,
      "d": 125,
      "v": 90
    },
    {
      "midi": 35,
      "hit": false,
      "t": 18000,
      "d": 125,
      "v": 100
    },
    {
      "midi": 38,
      "hit": false,
      "t": 18020,
      "d": 800,
      "v": 78
    },
    {
      "midi": 42,
      "hit": false,
      "t": 18300,
      "d": 125,
      "v": 70
    },
    {
      "midi": 77,
      "hit": false,
      "t": 18300,
      "d": 300,
      "v": 98
    },
    {
      "midi": 53,
      "hit": false,
      "t": 18300,
      "d": 300,
      "v": 98
    },
    {
      "midi": 50,
      "hit": false,
      "t": 18315,
      "d": 340,
      "v": 78
    },
    {
      "midi": 37,
      "hit": false,
      "t": 18600,
      "d": 125,
      "v": 100
    },
    {
      "midi": 42,
      "hit": false,
      "t": 18600,
      "d": 125,
      "v": 80
    },
    {
      "midi": 76,
      "hit": false,
      "t": 18600,
      "d": 300,
      "v": 98
    },
    {
      "midi": 52,
      "hit": false,
      "t": 18600,
      "d": 300,
      "v": 98
    },
    {
      "midi": 57,
      "hit": false,
      "t": 18610,
      "d": 420,
      "v": 74
    },
    {
      "midi": 62,
      "hit": false,
      "t": 18610,
      "d": 420,
      "v": 74
    },
    {
      "midi": 65,
      "hit": false,
      "t": 18610,
      "d": 420,
      "v": 74
    },
    {
      "midi": 42,
      "hit": false,
      "t": 18900,
      "d": 125,
      "v": 70
    },
    {
      "midi": 35,
      "hit": false,
      "t": 18900,
      "d": 125,
      "v": 80
    },
    {
      "midi": 74,
      "hit": false,
      "t": 18900,
      "d": 300,
      "v": 98
    },
    {
      "midi": 50,
      "hit": false,
      "t": 18900,
      "d": 300,
      "v": 98
    },
    {
      "midi": 38,
      "hit": false,
      "t": 18930,
      "d": 90,
      "v": 87
    },
    {
      "midi": 43,
      "hit": false,
      "t": 19200,
      "d": 865,
      "v": 72
    },
    {
      "midi": 42,
      "hit": false,
      "t": 19200,
      "d": 125,
      "v": 90
    },
    {
      "midi": 35,
      "hit": false,
      "t": 19200,
      "d": 125,
      "v": 100
    },
    {
      "midi": 67,
      "hit": false,
      "t": 19200,
      "d": 1970,
      "v": 72
    },
    {
      "midi": 59,
      "hit": false,
      "t": 19200,
      "d": 1970,
      "v": 72
    },
    {
      "midi": 62,
      "hit": false,
      "t": 19200,
      "d": 1970,
      "v": 72
    },
    {
      "midi": 65,
      "hit": false,
      "t": 19200,
      "d": 1970,
      "v": 72
    },
    {
      "midi": 77,
      "hit": false,
      "t": 19200,
      "d": 450,
      "v": 98
    },
    {
      "midi": 53,
      "hit": false,
      "t": 19200,
      "d": 450,
      "v": 98
    },
    {
      "midi": 42,
      "hit": false,
      "t": 19500,
      "d": 125,
      "v": 70
    },
    {
      "midi": 70,
      "hit": false,
      "t": 19650,
      "d": 750,
      "v": 98
    },
    {
      "midi": 46,
      "hit": false,
      "t": 19650,
      "d": 750,
      "v": 98
    },
    {
      "midi": 37,
      "hit": false,
      "t": 19800,
      "d": 125,
      "v": 100
    },
    {
      "midi": 42,
      "hit": false,
      "t": 19800,
      "d": 125,
      "v": 80
    },
    {
      "midi": 43,
      "hit": false,
      "t": 20100,
      "d": 75,
      "v": 82
    },
    {
      "midi": 42,
      "hit": false,
      "t": 20100,
      "d": 125,
      "v": 70
    },
    {
      "midi": 35,
      "hit": false,
      "t": 20100,
      "d": 125,
      "v": 80
    },
    {
      "midi": 43,
      "hit": false,
      "t": 20400,
      "d": 95,
      "v": 85
    },
    {
      "midi": 42,
      "hit": false,
      "t": 20400,
      "d": 125,
      "v": 90
    },
    {
      "midi": 35,
      "hit": false,
      "t": 20400,
      "d": 125,
      "v": 100
    },
    {
      "midi": 43,
      "hit": false,
      "t": 20700,
      "d": 390,
      "v": 82
    },
    {
      "midi": 42,
      "hit": false,
      "t": 20700,
      "d": 125,
      "v": 70
    },
    {
      "midi": 37,
      "hit": false,
      "t": 21000,
      "d": 125,
      "v": 100
    },
    {
      "midi": 42,
      "hit": false,
      "t": 21000,
      "d": 125,
      "v": 80
    },
    {
      "midi": 72,
      "hit": false,
      "t": 21000,
      "d": 300,
      "v": 98
    },
    {
      "midi": 48,
      "hit": false,
      "t": 21000,
      "d": 300,
      "v": 98
    },
    {
      "midi": 55,
      "hit": false,
      "t": 21020,
      "d": 190,
      "v": 61
    },
    {
      "midi": 59,
      "hit": false,
      "t": 21175,
      "d": 210,
      "v": 74
    },
    {
      "midi": 43,
      "hit": false,
      "t": 21300,
      "d": 130,
      "v": 87
    },
    {
      "midi": 42,
      "hit": false,
      "t": 21300,
      "d": 125,
      "v": 70
    },
    {
      "midi": 35,
      "hit": false,
      "t": 21300,
      "d": 125,
      "v": 80
    },
    {
      "midi": 74,
      "hit": false,
      "t": 21300,
      "d": 300,
      "v": 98
    },
    {
      "midi": 50,
      "hit": false,
      "t": 21300,
      "d": 300,
      "v": 98
    },
    {
      "midi": 62,
      "hit": false,
      "t": 21325,
      "d": 195,
      "v": 68
    },
    {
      "midi": 67,
      "hit": false,
      "t": 21480,
      "d": 110,
      "v": 68
    },
    {
      "midi": 42,
      "hit": false,
      "t": 21600,
      "d": 125,
      "v": 90
    },
    {
      "midi": 35,
      "hit": false,
      "t": 21600,
      "d": 125,
      "v": 100
    },
    {
      "midi": 76,
      "hit": false,
      "t": 21600,
      "d": 300,
      "v": 98
    },
    {
      "midi": 52,
      "hit": false,
      "t": 21600,
      "d": 300,
      "v": 98
    },
    {
      "midi": 67,
      "hit": false,
      "t": 21620,
      "d": 1365,
      "v": 74
    },
    {
      "midi": 58,
      "hit": false,
      "t": 21620,
      "d": 1365,
      "v": 74
    },
    {
      "midi": 60,
      "hit": false,
      "t": 21620,
      "d": 1365,
      "v": 74
    },
    {
      "midi": 64,
      "hit": false,
      "t": 21620,
      "d": 1365,
      "v": 74
    },
    {
      "midi": 36,
      "hit": false,
      "t": 21630,
      "d": 660,
      "v": 63
    },
    {
      "midi": 42,
      "hit": false,
      "t": 21900,
      "d": 125,
      "v": 70
    },
    {
      "midi": 74,
      "hit": false,
      "t": 21900,
      "d": 150,
      "v": 98
    },
    {
      "midi": 50,
      "hit": false,
      "t": 21900,
      "d": 150,
      "v": 98
    },
    {
      "midi": 76,
      "hit": false,
      "t": 22050,
      "d": 450,
      "v": 98
    },
    {
      "midi": 52,
      "hit": false,
      "t": 22050,
      "d": 450,
      "v": 98
    },
    {
      "midi": 37,
      "hit": false,
      "t": 22200,
      "d": 125,
      "v": 100
    },
    {
      "midi": 42,
      "hit": false,
      "t": 22200,
      "d": 125,
      "v": 80
    },
    {
      "midi": 42,
      "hit": false,
      "t": 22500,
      "d": 125,
      "v": 70
    },
    {
      "midi": 35,
      "hit": false,
      "t": 22500,
      "d": 125,
      "v": 80
    },
    {
      "midi": 74,
      "hit": false,
      "t": 22500,
      "d": 150,
      "v": 98
    },
    {
      "midi": 50,
      "hit": false,
      "t": 22500,
      "d": 150,
      "v": 98
    },
    {
      "midi": 36,
      "hit": false,
      "t": 22515,
      "d": 80,
      "v": 64
    },
    {
      "midi": 77,
      "hit": false,
      "t": 22650,
      "d": 450,
      "v": 98
    },
    {
      "midi": 53,
      "hit": false,
      "t": 22650,
      "d": 450,
      "v": 98
    },
    {
      "midi": 42,
      "hit": false,
      "t": 22800,
      "d": 125,
      "v": 90
    },
    {
      "midi": 35,
      "hit": false,
      "t": 22800,
      "d": 125,
      "v": 100
    },
    {
      "midi": 36,
      "hit": false,
      "t": 22820,
      "d": 800,
      "v": 78
    },
    {
      "midi": 42,
      "hit": false,
      "t": 23100,
      "d": 125,
      "v": 70
    },
    {
      "midi": 35,
      "hit": false,
      "t": 23100,
      "d": 125,
      "v": 80
    },
    {
      "midi": 76,
      "hit": false,
      "t": 23100,
      "d": 300,
      "v": 98
    },
    {
      "midi": 52,
      "hit": false,
      "t": 23100,
      "d": 300,
      "v": 98
    },
    {
      "midi": 48,
      "hit": false,
      "t": 23115,
      "d": 340,
      "v": 78
    },
    {
      "midi": 37,
      "hit": false,
      "t": 23400,
      "d": 125,
      "v": 100
    },
    {
      "midi": 42,
      "hit": false,
      "t": 23400,
      "d": 125,
      "v": 80
    },
    {
      "midi": 74,
      "hit": false,
      "t": 23400,
      "d": 300,
      "v": 98
    },
    {
      "midi": 50,
      "hit": false,
      "t": 23400,
      "d": 300,
      "v": 98
    },
    {
      "midi": 67,
      "hit": false,
      "t": 23410,
      "d": 420,
      "v": 74
    },
    {
      "midi": 58,
      "hit": false,
      "t": 23410,
      "d": 420,
      "v": 74
    },
    {
      "midi": 60,
      "hit": false,
      "t": 23410,
      "d": 420,
      "v": 74
    },
    {
      "midi": 64,
      "hit": false,
      "t": 23410,
      "d": 420,
      "v": 74
    },
    {
      "midi": 42,
      "hit": false,
      "t": 23700,
      "d": 125,
      "v": 70
    },
    {
      "midi": 35,
      "hit": false,
      "t": 23700,
      "d": 125,
      "v": 80
    },
    {
      "midi": 76,
      "hit": false,
      "t": 23700,
      "d": 150,
      "v": 98
    },
    {
      "midi": 52,
      "hit": false,
      "t": 23700,
      "d": 150,
      "v": 98
    },
    {
      "midi": 36,
      "hit": false,
      "t": 23730,
      "d": 90,
      "v": 87
    },
    {
      "midi": 42,
      "hit": false,
      "t": 23850,
      "d": 125,
      "v": 60
    },
    {
      "midi": 72,
      "hit": false,
      "t": 23850,
      "d": 750,
      "v": 98
    },
    {
      "midi": 48,
      "hit": false,
      "t": 23850,
      "d": 750,
      "v": 98
    },
    {
      "midi": 42,
      "hit": false,
      "t": 24000,
      "d": 125,
      "v": 90
    },
    {
      "midi": 35,
      "hit": false,
      "t": 24000,
      "d": 125,
      "v": 100
    },
    {
      "midi": 41,
      "hit": false,
      "t": 24030,
      "d": 660,
      "v": 63
    },
    {
      "midi": 57,
      "hit": false,
      "t": 24040,
      "d": 2160,
      "v": 78
    },
    {
      "midi": 60,
      "hit": false,
      "t": 24040,
      "d": 2160,
      "v": 78
    },
    {
      "midi": 65,
      "hit": false,
      "t": 24040,
      "d": 2160,
      "v": 78
    },
    {
      "midi": 42,
      "hit": false,
      "t": 24300,
      "d": 125,
      "v": 70
    },
    {
      "midi": 37,
      "hit": false,
      "t": 24600,
      "d": 125,
      "v": 100
    },
    {
      "midi": 42,
      "hit": false,
      "t": 24600,
      "d": 125,
      "v": 80
    },
    {
      "midi": 42,
      "hit": false,
      "t": 24900,
      "d": 125,
      "v": 70
    },
    {
      "midi": 35,
      "hit": false,
      "t": 24900,
      "d": 125,
      "v": 80
    },
    {
      "midi": 41,
      "hit": false,
      "t": 24915,
      "d": 80,
      "v": 64
    },
    {
      "midi": 42,
      "hit": false,
      "t": 25200,
      "d": 125,
      "v": 90
    },
    {
      "midi": 35,
      "hit": false,
      "t": 25200,
      "d": 125,
      "v": 100
    },
    {
      "midi": 41,
      "hit": false,
      "t": 25220,
      "d": 800,
      "v": 78
    },
    {
      "midi": 42,
      "hit": false,
      "t": 25500,
      "d": 125,
      "v": 70
    },
    {
      "midi": 37,
      "hit": false,
      "t": 25800,
      "d": 125,
      "v": 100
    },
    {
      "midi": 42,
      "hit": false,
      "t": 25800,
      "d": 125,
      "v": 80
    },
    {
      "midi": 74,
      "hit": false,
      "t": 25800,
      "d": 300,
      "v": 98
    },
    {
      "midi": 50,
      "hit": false,
      "t": 25800,
      "d": 300,
      "v": 98
    },
    {
      "midi": 42,
      "hit": false,
      "t": 26100,
      "d": 125,
      "v": 70
    },
    {
      "midi": 35,
      "hit": false,
      "t": 26100,
      "d": 125,
      "v": 80
    },
    {
      "midi": 76,
      "hit": false,
      "t": 26100,
      "d": 300,
      "v": 98
    },
    {
      "midi": 52,
      "hit": false,
      "t": 26100,
      "d": 300,
      "v": 98
    },
    {
      "midi": 41,
      "hit": false,
      "t": 26130,
      "d": 90,
      "v": 87
    },
    {
      "midi": 42,
      "hit": false,
      "t": 26400,
      "d": 125,
      "v": 90
    },
    {
      "midi": 35,
      "hit": false,
      "t": 26400,
      "d": 125,
      "v": 100
    },
    {
      "midi": 77,
      "hit": false,
      "t": 26400,
      "d": 300,
      "v": 98
    },
    {
      "midi": 53,
      "hit": false,
      "t": 26400,
      "d": 300,
      "v": 98
    },
    {
      "midi": 57,
      "hit": false,
      "t": 26420,
      "d": 1365,
      "v": 74
    },
    {
      "midi": 62,
      "hit": false,
      "t": 26420,
      "d": 1365,
      "v": 74
    },
    {
      "midi": 65,
      "hit": false,
      "t": 26420,
      "d": 1365,
      "v": 74
    },
    {
      "midi": 38,
      "hit": false,
      "t": 26430,
      "d": 660,
      "v": 63
    },
    {
      "midi": 42,
      "hit": false,
      "t": 26700,
      "d": 125,
      "v": 70
    },
    {
      "midi": 76,
      "hit": false,
      "t": 26700,
      "d": 150,
      "v": 98
    },
    {
      "midi": 52,
      "hit": false,
      "t": 26700,
      "d": 150,
      "v": 98
    },
    {
      "midi": 77,
      "hit": false,
      "t": 26850,
      "d": 450,
      "v": 98
    },
    {
      "midi": 53,
      "hit": false,
      "t": 26850,
      "d": 450,
      "v": 98
    },
    {
      "midi": 37,
      "hit": false,
      "t": 27000,
      "d": 125,
      "v": 100
    },
    {
      "midi": 42,
      "hit": false,
      "t": 27000,
      "d": 125,
      "v": 80
    },
    {
      "midi": 42,
      "hit": false,
      "t": 27300,
      "d": 125,
      "v": 70
    },
    {
      "midi": 35,
      "hit": false,
      "t": 27300,
      "d": 125,
      "v": 80
    },
    {
      "midi": 76,
      "hit": false,
      "t": 27300,
      "d": 150,
      "v": 98
    },
    {
      "midi": 52,
      "hit": false,
      "t": 27300,
      "d": 150,
      "v": 98
    },
    {
      "midi": 38,
      "hit": false,
      "t": 27315,
      "d": 80,
      "v": 64
    },
    {
      "midi": 42,
      "hit": false,
      "t": 27450,
      "d": 125,
      "v": 60
    },
    {
      "midi": 79,
      "hit": false,
      "t": 27450,
      "d": 450,
      "v": 98
    },
    {
      "midi": 55,
      "hit": false,
      "t": 27450,
      "d": 450,
      "v": 98
    },
    {
      "midi": 42,
      "hit": false,
      "t": 27600,
      "d": 125,
      "v": 90
    },
    {
      "midi": 35,
      "hit": false,
      "t": 27600,
      "d": 125,
      "v": 100
    },
    {
      "midi": 38,
      "hit": false,
      "t": 27620,
      "d": 800,
      "v": 78
    },
    {
      "midi": 42,
      "hit": false,
      "t": 27900,
      "d": 125,
      "v": 70
    },
    {
      "midi": 77,
      "hit": false,
      "t": 27900,
      "d": 300,
      "v": 98
    },
    {
      "midi": 53,
      "hit": false,
      "t": 27900,
      "d": 300,
      "v": 98
    },
    {
      "midi": 50,
      "hit": false,
      "t": 27915,
      "d": 340,
      "v": 78
    },
    {
      "midi": 37,
      "hit": false,
      "t": 28200,
      "d": 125,
      "v": 100
    },
    {
      "midi": 42,
      "hit": false,
      "t": 28200,
      "d": 125,
      "v": 80
    },
    {
      "midi": 76,
      "hit": false,
      "t": 28200,
      "d": 300,
      "v": 98
    },
    {
      "midi": 52,
      "hit": false,
      "t": 28200,
      "d": 300,
      "v": 98
    },
    {
      "midi": 57,
      "hit": false,
      "t": 28210,
      "d": 420,
      "v": 74
    },
    {
      "midi": 62,
      "hit": false,
      "t": 28210,
      "d": 420,
      "v": 74
    },
    {
      "midi": 65,
      "hit": false,
      "t": 28210,
      "d": 420,
      "v": 74
    },
    {
      "midi": 42,
      "hit": false,
      "t": 28500,
      "d": 125,
      "v": 70
    },
    {
      "midi": 35,
      "hit": false,
      "t": 28500,
      "d": 125,
      "v": 80
    },
    {
      "midi": 77,
      "hit": false,
      "t": 28500,
      "d": 300,
      "v": 98
    },
    {
      "midi": 53,
      "hit": false,
      "t": 28500,
      "d": 300,
      "v": 98
    },
    {
      "midi": 38,
      "hit": false,
      "t": 28530,
      "d": 90,
      "v": 87
    },
    {
      "midi": 42,
      "hit": false,
      "t": 28800,
      "d": 125,
      "v": 90
    },
    {
      "midi": 35,
      "hit": false,
      "t": 28800,
      "d": 125,
      "v": 100
    },
    {
      "midi": 48,
      "hit": false,
      "t": 28800,
      "d": 980,
      "v": 54
    },
    {
      "midi": 64,
      "hit": false,
      "t": 28800,
      "d": 1200,
      "v": 57
    },
    {
      "midi": 67,
      "hit": false,
      "t": 28800,
      "d": 1225,
      "v": 56
    },
    {
      "midi": 58,
      "hit": false,
      "t": 28800,
      "d": 1245,
      "v": 48
    },
    {
      "midi": 60,
      "hit": false,
      "t": 28800,
      "d": 1245,
      "v": 61
    },
    {
      "midi": 81,
      "hit": false,
      "t": 28800,
      "d": 450,
      "v": 98
    },
    {
      "midi": 57,
      "hit": false,
      "t": 28800,
      "d": 450,
      "v": 98
    },
    {
      "midi": 36,
      "hit": false,
      "t": 28830,
      "d": 660,
      "v": 63
    },
    {
      "midi": 42,
      "hit": false,
      "t": 29100,
      "d": 125,
      "v": 70
    },
    {
      "midi": 74,
      "hit": false,
      "t": 29250,
      "d": 450,
      "v": 98
    },
    {
      "midi": 50,
      "hit": false,
      "t": 29250,
      "d": 450,
      "v": 98
    },
    {
      "midi": 37,
      "hit": false,
      "t": 29400,
      "d": 125,
      "v": 100
    },
    {
      "midi": 42,
      "hit": false,
      "t": 29400,
      "d": 125,
      "v": 80
    },
    {
      "midi": 42,
      "hit": false,
      "t": 29700,
      "d": 125,
      "v": 70
    },
    {
      "midi": 35,
      "hit": false,
      "t": 29700,
      "d": 125,
      "v": 80
    },
    {
      "midi": 36,
      "hit": false,
      "t": 29700,
      "d": 1280,
      "v": 49
    },
    {
      "midi": 77,
      "hit": false,
      "t": 29700,
      "d": 300,
      "v": 98
    },
    {
      "midi": 53,
      "hit": false,
      "t": 29700,
      "d": 300,
      "v": 98
    },
    {
      "midi": 36,
      "hit": false,
      "t": 29715,
      "d": 80,
      "v": 64
    },
    {
      "midi": 42,
      "hit": false,
      "t": 30000,
      "d": 125,
      "v": 90
    },
    {
      "midi": 35,
      "hit": false,
      "t": 30000,
      "d": 125,
      "v": 100
    },
    {
      "midi": 48,
      "hit": false,
      "t": 30000,
      "d": 1145,
      "v": 52
    },
    {
      "midi": 36,
      "hit": false,
      "t": 30020,
      "d": 800,
      "v": 78
    },
    {
      "midi": 42,
      "hit": false,
      "t": 30300,
      "d": 125,
      "v": 70
    },
    {
      "midi": 58,
      "hit": false,
      "t": 30300,
      "d": 815,
      "v": 76
    },
    {
      "midi": 37,
      "hit": false,
      "t": 30600,
      "d": 125,
      "v": 100
    },
    {
      "midi": 42,
      "hit": false,
      "t": 30600,
      "d": 125,
      "v": 80
    },
    {
      "midi": 60,
      "hit": false,
      "t": 30600,
      "d": 515,
      "v": 91
    },
    {
      "midi": 42,
      "hit": false,
      "t": 30900,
      "d": 125,
      "v": 70
    },
    {
      "midi": 35,
      "hit": false,
      "t": 30900,
      "d": 125,
      "v": 80
    },
    {
      "midi": 64,
      "hit": false,
      "t": 30900,
      "d": 190,
      "v": 87
    },
    {
      "midi": 79,
      "hit": false,
      "t": 30900,
      "d": 300,
      "v": 98
    },
    {
      "midi": 55,
      "hit": false,
      "t": 30900,
      "d": 300,
      "v": 98
    },
    {
      "midi": 36,
      "hit": false,
      "t": 30930,
      "d": 90,
      "v": 87
    },
    {
      "midi": 42,
      "hit": false,
      "t": 31200,
      "d": 125,
      "v": 90
    },
    {
      "midi": 35,
      "hit": false,
      "t": 31200,
      "d": 125,
      "v": 100
    },
    {
      "midi": 72,
      "hit": false,
      "t": 31200,
      "d": 740,
      "v": 55
    },
    {
      "midi": 69,
      "hit": false,
      "t": 31200,
      "d": 770,
      "v": 58
    },
    {
      "midi": 65,
      "hit": false,
      "t": 31200,
      "d": 805,
      "v": 53
    },
    {
      "midi": 81,
      "hit": false,
      "t": 31200,
      "d": 450,
      "v": 98
    },
    {
      "midi": 57,
      "hit": false,
      "t": 31200,
      "d": 450,
      "v": 98
    },
    {
      "midi": 41,
      "hit": false,
      "t": 31225,
      "d": 2080,
      "v": 33
    },
    {
      "midi": 41,
      "hit": false,
      "t": 31230,
      "d": 660,
      "v": 63
    },
    {
      "midi": 42,
      "hit": false,
      "t": 31500,
      "d": 125,
      "v": 70
    },
    {
      "midi": 79,
      "hit": false,
      "t": 31650,
      "d": 450,
      "v": 98
    },
    {
      "midi": 55,
      "hit": false,
      "t": 31650,
      "d": 450,
      "v": 98
    },
    {
      "midi": 37,
      "hit": false,
      "t": 31800,
      "d": 125,
      "v": 100
    },
    {
      "midi": 42,
      "hit": false,
      "t": 31800,
      "d": 125,
      "v": 80
    },
    {
      "midi": 42,
      "hit": false,
      "t": 32100,
      "d": 125,
      "v": 70
    },
    {
      "midi": 35,
      "hit": false,
      "t": 32100,
      "d": 125,
      "v": 80
    },
    {
      "midi": 77,
      "hit": false,
      "t": 32100,
      "d": 300,
      "v": 98
    },
    {
      "midi": 53,
      "hit": false,
      "t": 32100,
      "d": 300,
      "v": 98
    },
    {
      "midi": 41,
      "hit": false,
      "t": 32115,
      "d": 80,
      "v": 64
    },
    {
      "midi": 72,
      "hit": false,
      "t": 32220,
      "d": 470,
      "v": 58
    },
    {
      "midi": 69,
      "hit": false,
      "t": 32250,
      "d": 445,
      "v": 61
    },
    {
      "midi": 65,
      "hit": false,
      "t": 32305,
      "d": 315,
      "v": 85
    },
    {
      "midi": 42,
      "hit": false,
      "t": 32400,
      "d": 125,
      "v": 90
    },
    {
      "midi": 35,
      "hit": false,
      "t": 32400,
      "d": 125,
      "v": 100
    },
    {
      "midi": 79,
      "hit": false,
      "t": 32400,
      "d": 600,
      "v": 98
    },
    {
      "midi": 55,
      "hit": false,
      "t": 32400,
      "d": 600,
      "v": 98
    },
    {
      "midi": 41,
      "hit": false,
      "t": 32420,
      "d": 800,
      "v": 78
    },
    {
      "midi": 65,
      "hit": false,
      "t": 32695,
      "d": 310,
      "v": 91
    },
    {
      "midi": 42,
      "hit": false,
      "t": 32700,
      "d": 125,
      "v": 70
    },
    {
      "midi": 35,
      "hit": false,
      "t": 32700,
      "d": 125,
      "v": 80
    },
    {
      "midi": 37,
      "hit": false,
      "t": 33000,
      "d": 125,
      "v": 100
    },
    {
      "midi": 42,
      "hit": false,
      "t": 33000,
      "d": 125,
      "v": 80
    },
    {
      "midi": 77,
      "hit": false,
      "t": 33000,
      "d": 300,
      "v": 98
    },
    {
      "midi": 53,
      "hit": false,
      "t": 33000,
      "d": 300,
      "v": 98
    },
    {
      "midi": 69,
      "hit": false,
      "t": 33005,
      "d": 320,
      "v": 70
    },
    {
      "midi": 42,
      "hit": false,
      "t": 33300,
      "d": 125,
      "v": 70
    },
    {
      "midi": 35,
      "hit": false,
      "t": 33300,
      "d": 125,
      "v": 80
    },
    {
      "midi": 76,
      "hit": false,
      "t": 33300,
      "d": 150,
      "v": 98
    },
    {
      "midi": 52,
      "hit": false,
      "t": 33300,
      "d": 150,
      "v": 98
    },
    {
      "midi": 72,
      "hit": false,
      "t": 33315,
      "d": 130,
      "v": 68
    },
    {
      "midi": 41,
      "hit": false,
      "t": 33330,
      "d": 90,
      "v": 87
    },
    {
      "midi": 42,
      "hit": false,
      "t": 33450,
      "d": 125,
      "v": 60
    },
    {
      "midi": 74,
      "hit": false,
      "t": 33450,
      "d": 750,
      "v": 98
    },
    {
      "midi": 50,
      "hit": false,
      "t": 33450,
      "d": 750,
      "v": 98
    },
    {
      "midi": 38,
      "hit": false,
      "t": 33600,
      "d": 705,
      "v": 82
    },
    {
      "midi": 42,
      "hit": false,
      "t": 33600,
      "d": 125,
      "v": 90
    },
    {
      "midi": 35,
      "hit": false,
      "t": 33600,
      "d": 125,
      "v": 100
    },
    {
      "midi": 57,
      "hit": false,
      "t": 33600,
      "d": 390,
      "v": 68
    },
    {
      "midi": 62,
      "hit": false,
      "t": 33600,
      "d": 390,
      "v": 68
    },
    {
      "midi": 65,
      "hit": false,
      "t": 33600,
      "d": 390,
      "v": 68
    },
    {
      "midi": 42,
      "hit": false,
      "t": 33900,
      "d": 125,
      "v": 70
    },
    {
      "midi": 50,
      "hit": false,
      "t": 33900,
      "d": 585,
      "v": 78
    },
    {
      "midi": 37,
      "hit": false,
      "t": 34200,
      "d": 125,
      "v": 100
    },
    {
      "midi": 42,
      "hit": false,
      "t": 34200,
      "d": 125,
      "v": 80
    },
    {
      "midi": 57,
      "hit": false,
      "t": 34200,
      "d": 335,
      "v": 80
    },
    {
      "midi": 62,
      "hit": false,
      "t": 34200,
      "d": 335,
      "v": 80
    },
    {
      "midi": 65,
      "hit": false,
      "t": 34200,
      "d": 335,
      "v": 80
    },
    {
      "midi": 38,
      "hit": false,
      "t": 34490,
      "d": 170,
      "v": 85
    },
    {
      "midi": 42,
      "hit": false,
      "t": 34500,
      "d": 125,
      "v": 70
    },
    {
      "midi": 35,
      "hit": false,
      "t": 34500,
      "d": 125,
      "v": 80
    },
    {
      "midi": 38,
      "hit": false,
      "t": 34800,
      "d": 600,
      "v": 82
    },
    {
      "midi": 42,
      "hit": false,
      "t": 34800,
      "d": 125,
      "v": 90
    },
    {
      "midi": 35,
      "hit": false,
      "t": 34800,
      "d": 125,
      "v": 100
    },
    {
      "midi": 77,
      "hit": false,
      "t": 34800,
      "d": 600,
      "v": 98
    },
    {
      "midi": 53,
      "hit": false,
      "t": 34800,
      "d": 600,
      "v": 98
    },
    {
      "midi": 57,
      "hit": false,
      "t": 34820,
      "d": 580,
      "v": 80
    },
    {
      "midi": 62,
      "hit": false,
      "t": 34820,
      "d": 580,
      "v": 80
    },
    {
      "midi": 65,
      "hit": false,
      "t": 34820,
      "d": 580,
      "v": 80
    },
    {
      "midi": 42,
      "hit": false,
      "t": 35100,
      "d": 125,
      "v": 70
    },
    {
      "midi": 40,
      "hit": false,
      "t": 35400,
      "d": 600,
      "v": 82
    },
    {
      "midi": 37,
      "hit": false,
      "t": 35400,
      "d": 125,
      "v": 100
    },
    {
      "midi": 42,
      "hit": false,
      "t": 35400,
      "d": 125,
      "v": 80
    },
    {
      "midi": 79,
      "hit": false,
      "t": 35400,
      "d": 600,
      "v": 98
    },
    {
      "midi": 55,
      "hit": false,
      "t": 35400,
      "d": 600,
      "v": 98
    },
    {
      "midi": 67,
      "hit": false,
      "t": 35420,
      "d": 580,
      "v": 80
    },
    {
      "midi": 58,
      "hit": false,
      "t": 35420,
      "d": 580,
      "v": 80
    },
    {
      "midi": 60,
      "hit": false,
      "t": 35420,
      "d": 580,
      "v": 80
    },
    {
      "midi": 64,
      "hit": false,
      "t": 35420,
      "d": 580,
      "v": 80
    },
    {
      "midi": 42,
      "hit": false,
      "t": 35700,
      "d": 125,
      "v": 70
    },
    {
      "midi": 35,
      "hit": false,
      "t": 35700,
      "d": 125,
      "v": 80
    },
    {
      "midi": 42,
      "hit": false,
      "t": 36000,
      "d": 125,
      "v": 90
    },
    {
      "midi": 35,
      "hit": false,
      "t": 36000,
      "d": 125,
      "v": 100
    },
    {
      "midi": 72,
      "hit": false,
      "t": 36000,
      "d": 740,
      "v": 55
    },
    {
      "midi": 69,
      "hit": false,
      "t": 36000,
      "d": 770,
      "v": 58
    },
    {
      "midi": 65,
      "hit": false,
      "t": 36000,
      "d": 805,
      "v": 53
    },
    {
      "midi": 82,
      "hit": false,
      "t": 36000,
      "d": 300,
      "v": 98
    },
    {
      "midi": 58,
      "hit": false,
      "t": 36000,
      "d": 300,
      "v": 98
    },
    {
      "midi": 41,
      "hit": false,
      "t": 36025,
      "d": 2080,
      "v": 33
    },
    {
      "midi": 41,
      "hit": false,
      "t": 36030,
      "d": 660,
      "v": 63
    },
    {
      "midi": 42,
      "hit": false,
      "t": 36300,
      "d": 125,
      "v": 70
    },
    {
      "midi": 81,
      "hit": false,
      "t": 36300,
      "d": 150,
      "v": 98
    },
    {
      "midi": 57,
      "hit": false,
      "t": 36300,
      "d": 150,
      "v": 98
    },
    {
      "midi": 81,
      "hit": false,
      "t": 36450,
      "d": 300,
      "v": 98
    },
    {
      "midi": 57,
      "hit": false,
      "t": 36450,
      "d": 300,
      "v": 98
    },
    {
      "midi": 37,
      "hit": false,
      "t": 36600,
      "d": 125,
      "v": 100
    },
    {
      "midi": 42,
      "hit": false,
      "t": 36600,
      "d": 125,
      "v": 80
    },
    {
      "midi": 79,
      "hit": false,
      "t": 36750,
      "d": 150,
      "v": 98
    },
    {
      "midi": 55,
      "hit": false,
      "t": 36750,
      "d": 150,
      "v": 98
    },
    {
      "midi": 42,
      "hit": false,
      "t": 36900,
      "d": 125,
      "v": 70
    },
    {
      "midi": 35,
      "hit": false,
      "t": 36900,
      "d": 125,
      "v": 80
    },
    {
      "midi": 81,
      "hit": false,
      "t": 36900,
      "d": 300,
      "v": 98
    },
    {
      "midi": 57,
      "hit": false,
      "t": 36900,
      "d": 300,
      "v": 98
    },
    {
      "midi": 41,
      "hit": false,
      "t": 36915,
      "d": 80,
      "v": 64
    },
    {
      "midi": 72,
      "hit": false,
      "t": 37020,
      "d": 470,
      "v": 58
    },
    {
      "midi": 69,
      "hit": false,
      "t": 37050,
      "d": 445,
      "v": 61
    },
    {
      "midi": 65,
      "hit": false,
      "t": 37105,
      "d": 315,
      "v": 85
    },
    {
      "midi": 42,
      "hit": false,
      "t": 37200,
      "d": 125,
      "v": 90
    },
    {
      "midi": 35,
      "hit": false,
      "t": 37200,
      "d": 125,
      "v": 100
    },
    {
      "midi": 41,
      "hit": false,
      "t": 37220,
      "d": 800,
      "v": 78
    },
    {
      "midi": 65,
      "hit": false,
      "t": 37495,
      "d": 310,
      "v": 91
    },
    {
      "midi": 42,
      "hit": false,
      "t": 37500,
      "d": 125,
      "v": 70
    },
    {
      "midi": 81,
      "hit": false,
      "t": 37500,
      "d": 300,
      "v": 98
    },
    {
      "midi": 57,
      "hit": false,
      "t": 37500,
      "d": 300,
      "v": 98
    },
    {
      "midi": 37,
      "hit": false,
      "t": 37800,
      "d": 125,
      "v": 100
    },
    {
      "midi": 42,
      "hit": false,
      "t": 37800,
      "d": 125,
      "v": 80
    },
    {
      "midi": 79,
      "hit": false,
      "t": 37800,
      "d": 300,
      "v": 98
    },
    {
      "midi": 55,
      "hit": false,
      "t": 37800,
      "d": 300,
      "v": 98
    },
    {
      "midi": 69,
      "hit": false,
      "t": 37805,
      "d": 320,
      "v": 70
    },
    {
      "midi": 42,
      "hit": false,
      "t": 38100,
      "d": 125,
      "v": 70
    },
    {
      "midi": 35,
      "hit": false,
      "t": 38100,
      "d": 125,
      "v": 80
    },
    {
      "midi": 77,
      "hit": false,
      "t": 38100,
      "d": 300,
      "v": 98
    },
    {
      "midi": 53,
      "hit": false,
      "t": 38100,
      "d": 300,
      "v": 98
    },
    {
      "midi": 72,
      "hit": false,
      "t": 38115,
      "d": 130,
      "v": 68
    },
    {
      "midi": 41,
      "hit": false,
      "t": 38130,
      "d": 90,
      "v": 87
    },
    {
      "midi": 42,
      "hit": false,
      "t": 38400,
      "d": 125,
      "v": 90
    },
    {
      "midi": 35,
      "hit": false,
      "t": 38400,
      "d": 125,
      "v": 100
    },
    {
      "midi": 55,
      "hit": false,
      "t": 38400,
      "d": 1970,
      "v": 72
    },
    {
      "midi": 64,
      "hit": false,
      "t": 38400,
      "d": 1970,
      "v": 72
    },
    {
      "midi": 79,
      "hit": false,
      "t": 38400,
      "d": 450,
      "v": 98
    },
    {
      "midi": 55,
      "hit": false,
      "t": 38400,
      "d": 450,
      "v": 98
    },
    {
      "midi": 40,
      "hit": false,
      "t": 38430,
      "d": 660,
      "v": 63
    },
    {
      "midi": 42,
      "hit": false,
      "t": 38700,
      "d": 125,
      "v": 70
    },
    {
      "midi": 84,
      "hit": false,
      "t": 38850,
      "d": 450,
      "v": 98
    },
    {
      "midi": 60,
      "hit": false,
      "t": 38850,
      "d": 450,
      "v": 98
    },
    {
      "midi": 37,
      "hit": false,
      "t": 39000,
      "d": 125,
      "v": 100
    },
    {
      "midi": 42,
      "hit": false,
      "t": 39000,
      "d": 125,
      "v": 80
    },
    {
      "midi": 42,
      "hit": false,
      "t": 39300,
      "d": 125,
      "v": 70
    },
    {
      "midi": 35,
      "hit": false,
      "t": 39300,
      "d": 125,
      "v": 80
    },
    {
      "midi": 81,
      "hit": false,
      "t": 39300,
      "d": 300,
      "v": 98
    },
    {
      "midi": 57,
      "hit": false,
      "t": 39300,
      "d": 300,
      "v": 98
    },
    {
      "midi": 40,
      "hit": false,
      "t": 39315,
      "d": 80,
      "v": 64
    },
    {
      "midi": 42,
      "hit": false,
      "t": 39600,
      "d": 125,
      "v": 90
    },
    {
      "midi": 35,
      "hit": false,
      "t": 39600,
      "d": 125,
      "v": 100
    },
    {
      "midi": 40,
      "hit": false,
      "t": 39620,
      "d": 800,
      "v": 78
    },
    {
      "midi": 42,
      "hit": false,
      "t": 39900,
      "d": 125,
      "v": 70
    },
    {
      "midi": 37,
      "hit": false,
      "t": 40200,
      "d": 125,
      "v": 100
    },
    {
      "midi": 42,
      "hit": false,
      "t": 40200,
      "d": 125,
      "v": 80
    },
    {
      "midi": 81,
      "hit": false,
      "t": 40200,
      "d": 300,
      "v": 98
    },
    {
      "midi": 57,
      "hit": false,
      "t": 40200,
      "d": 300,
      "v": 98
    },
    {
      "midi": 60,
      "hit": false,
      "t": 40220,
      "d": 150,
      "v": 61
    },
    {
      "midi": 64,
      "hit": false,
      "t": 40375,
      "d": 210,
      "v": 74
    },
    {
      "midi": 42,
      "hit": false,
      "t": 40500,
      "d": 125,
      "v": 70
    },
    {
      "midi": 35,
      "hit": false,
      "t": 40500,
      "d": 125,
      "v": 80
    },
    {
      "midi": 79,
      "hit": false,
      "t": 40500,
      "d": 300,
      "v": 98
    },
    {
      "midi": 55,
      "hit": false,
      "t": 40500,
      "d": 300,
      "v": 98
    },
    {
      "midi": 67,
      "hit": false,
      "t": 40525,
      "d": 195,
      "v": 68
    },
    {
      "midi": 40,
      "hit": false,
      "t": 40530,
      "d": 90,
      "v": 87
    },
    {
      "midi": 72,
      "hit": false,
      "t": 40680,
      "d": 110,
      "v": 68
    },
    {
      "midi": 38,
      "hit": false,
      "t": 40800,
      "d": 705,
      "v": 82
    },
    {
      "midi": 42,
      "hit": false,
      "t": 40800,
      "d": 125,
      "v": 90
    },
    {
      "midi": 35,
      "hit": false,
      "t": 40800,
      "d": 125,
      "v": 100
    },
    {
      "midi": 58,
      "hit": false,
      "t": 40800,
      "d": 1200,
      "v": 80
    },
    {
      "midi": 62,
      "hit": false,
      "t": 40800,
      "d": 1200,
      "v": 80
    },
    {
      "midi": 65,
      "hit": false,
      "t": 40800,
      "d": 1200,
      "v": 80
    },
    {
      "midi": 77,
      "hit": false,
      "t": 40800,
      "d": 300,
      "v": 98
    },
    {
      "midi": 53,
      "hit": false,
      "t": 40800,
      "d": 300,
      "v": 98
    },
    {
      "midi": 42,
      "hit": false,
      "t": 41100,
      "d": 125,
      "v": 70
    },
    {
      "midi": 35,
      "hit": false,
      "t": 41100,
      "d": 125,
      "v": 90
    },
    {
      "midi": 76,
      "hit": false,
      "t": 41100,
      "d": 150,
      "v": 98
    },
    {
      "midi": 52,
      "hit": false,
      "t": 41100,
      "d": 150,
      "v": 98
    },
    {
      "midi": 77,
      "hit": false,
      "t": 41250,
      "d": 450,
      "v": 98
    },
    {
      "midi": 53,
      "hit": false,
      "t": 41250,
      "d": 450,
      "v": 98
    },
    {
      "midi": 37,
      "hit": false,
      "t": 41400,
      "d": 125,
      "v": 100
    },
    {
      "midi": 42,
      "hit": false,
      "t": 41400,
      "d": 125,
      "v": 80
    },
    {
      "midi": 38,
      "hit": false,
      "t": 41690,
      "d": 170,
      "v": 85
    },
    {
      "midi": 42,
      "hit": false,
      "t": 41700,
      "d": 125,
      "v": 70
    },
    {
      "midi": 35,
      "hit": false,
      "t": 41700,
      "d": 125,
      "v": 80
    },
    {
      "midi": 86,
      "hit": false,
      "t": 41700,
      "d": 300,
      "v": 98
    },
    {
      "midi": 62,
      "hit": false,
      "t": 41700,
      "d": 300,
      "v": 98
    },
    {
      "midi": 46,
      "hit": false,
      "t": 41850,
      "d": 125,
      "v": 54
    },
    {
      "midi": 36,
      "hit": false,
      "t": 42000,
      "d": 600,
      "v": 82
    },
    {
      "midi": 42,
      "hit": false,
      "t": 42000,
      "d": 125,
      "v": 90
    },
    {
      "midi": 35,
      "hit": false,
      "t": 42000,
      "d": 125,
      "v": 100
    },
    {
      "midi": 84,
      "hit": false,
      "t": 42000,
      "d": 600,
      "v": 98
    },
    {
      "midi": 60,
      "hit": false,
      "t": 42000,
      "d": 600,
      "v": 98
    },
    {
      "midi": 55,
      "hit": false,
      "t": 42020,
      "d": 580,
      "v": 80
    },
    {
      "midi": 60,
      "hit": false,
      "t": 42020,
      "d": 580,
      "v": 80
    },
    {
      "midi": 65,
      "hit": false,
      "t": 42020,
      "d": 580,
      "v": 80
    },
    {
      "midi": 42,
      "hit": false,
      "t": 42300,
      "d": 125,
      "v": 70
    },
    {
      "midi": 35,
      "hit": false,
      "t": 42300,
      "d": 125,
      "v": 80
    },
    {
      "midi": 40,
      "hit": false,
      "t": 42600,
      "d": 600,
      "v": 82
    },
    {
      "midi": 37,
      "hit": false,
      "t": 42600,
      "d": 125,
      "v": 100
    },
    {
      "midi": 42,
      "hit": false,
      "t": 42600,
      "d": 125,
      "v": 80
    },
    {
      "midi": 77,
      "hit": false,
      "t": 42600,
      "d": 300,
      "v": 98
    },
    {
      "midi": 53,
      "hit": false,
      "t": 42600,
      "d": 300,
      "v": 98
    },
    {
      "midi": 55,
      "hit": false,
      "t": 42620,
      "d": 580,
      "v": 80
    },
    {
      "midi": 60,
      "hit": false,
      "t": 42620,
      "d": 580,
      "v": 80
    },
    {
      "midi": 64,
      "hit": false,
      "t": 42620,
      "d": 580,
      "v": 80
    },
    {
      "midi": 42,
      "hit": false,
      "t": 42900,
      "d": 125,
      "v": 70
    },
    {
      "midi": 35,
      "hit": false,
      "t": 42900,
      "d": 125,
      "v": 80
    },
    {
      "midi": 79,
      "hit": false,
      "t": 42900,
      "d": 150,
      "v": 98
    },
    {
      "midi": 55,
      "hit": false,
      "t": 42900,
      "d": 150,
      "v": 98
    },
    {
      "midi": 46,
      "hit": false,
      "t": 43050,
      "d": 125,
      "v": 80
    },
    {
      "midi": 81,
      "hit": false,
      "t": 43050,
      "d": 150,
      "v": 98
    },
    {
      "midi": 57,
      "hit": false,
      "t": 43050,
      "d": 150,
      "v": 98
    },
    {
      "midi": 42,
      "hit": false,
      "t": 43200,
      "d": 125,
      "v": 90
    },
    {
      "midi": 35,
      "hit": false,
      "t": 43200,
      "d": 125,
      "v": 100
    },
    {
      "midi": 72,
      "hit": false,
      "t": 43200,
      "d": 740,
      "v": 55
    },
    {
      "midi": 69,
      "hit": false,
      "t": 43200,
      "d": 770,
      "v": 58
    },
    {
      "midi": 65,
      "hit": false,
      "t": 43200,
      "d": 805,
      "v": 53
    },
    {
      "midi": 81,
      "hit": false,
      "t": 43200,
      "d": 1200,
      "v": 98
    },
    {
      "midi": 57,
      "hit": false,
      "t": 43200,
      "d": 1200,
      "v": 98
    },
    {
      "midi": 41,
      "hit": false,
      "t": 43225,
      "d": 2080,
      "v": 33
    },
    {
      "midi": 41,
      "hit": false,
      "t": 43230,
      "d": 660,
      "v": 63
    },
    {
      "midi": 42,
      "hit": false,
      "t": 43500,
      "d": 125,
      "v": 70
    },
    {
      "midi": 37,
      "hit": false,
      "t": 43800,
      "d": 125,
      "v": 100
    },
    {
      "midi": 42,
      "hit": false,
      "t": 43800,
      "d": 125,
      "v": 80
    },
    {
      "midi": 42,
      "hit": false,
      "t": 44100,
      "d": 125,
      "v": 70
    },
    {
      "midi": 35,
      "hit": false,
      "t": 44100,
      "d": 125,
      "v": 80
    },
    {
      "midi": 41,
      "hit": false,
      "t": 44115,
      "d": 80,
      "v": 64
    },
    {
      "midi": 72,
      "hit": false,
      "t": 44220,
      "d": 470,
      "v": 58
    },
    {
      "midi": 69,
      "hit": false,
      "t": 44250,
      "d": 445,
      "v": 61
    },
    {
      "midi": 65,
      "hit": false,
      "t": 44305,
      "d": 315,
      "v": 85
    },
    {
      "midi": 42,
      "hit": false,
      "t": 44400,
      "d": 125,
      "v": 90
    },
    {
      "midi": 35,
      "hit": false,
      "t": 44400,
      "d": 125,
      "v": 100
    },
    {
      "midi": 41,
      "hit": false,
      "t": 44420,
      "d": 800,
      "v": 78
    },
    {
      "midi": 65,
      "hit": false,
      "t": 44695,
      "d": 310,
      "v": 91
    },
    {
      "midi": 42,
      "hit": false,
      "t": 44700,
      "d": 125,
      "v": 70
    },
    {
      "midi": 37,
      "hit": false,
      "t": 45000,
      "d": 125,
      "v": 100
    },
    {
      "midi": 42,
      "hit": false,
      "t": 45000,
      "d": 125,
      "v": 80
    },
    {
      "midi": 81,
      "hit": false,
      "t": 45000,
      "d": 300,
      "v": 98
    },
    {
      "midi": 57,
      "hit": false,
      "t": 45000,
      "d": 300,
      "v": 98
    },
    {
      "midi": 69,
      "hit": false,
      "t": 45005,
      "d": 320,
      "v": 70
    },
    {
      "midi": 42,
      "hit": false,
      "t": 45300,
      "d": 125,
      "v": 70
    },
    {
      "midi": 35,
      "hit": false,
      "t": 45300,
      "d": 125,
      "v": 80
    },
    {
      "midi": 82,
      "hit": false,
      "t": 45300,
      "d": 300,
      "v": 98
    },
    {
      "midi": 58,
      "hit": false,
      "t": 45300,
      "d": 300,
      "v": 98
    },
    {
      "midi": 72,
      "hit": false,
      "t": 45315,
      "d": 130,
      "v": 68
    },
    {
      "midi": 41,
      "hit": false,
      "t": 45330,
      "d": 90,
      "v": 87
    },
    {
      "midi": 42,
      "hit": false,
      "t": 45600,
      "d": 125,
      "v": 90
    },
    {
      "midi": 35,
      "hit": false,
      "t": 45600,
      "d": 125,
      "v": 100
    },
    {
      "midi": 84,
      "hit": false,
      "t": 45600,
      "d": 450,
      "v": 98
    },
    {
      "midi": 60,
      "hit": false,
      "t": 45600,
      "d": 450,
      "v": 98
    },
    {
      "midi": 72,
      "hit": false,
      "t": 45620,
      "d": 1365,
      "v": 74
    },
    {
      "midi": 58,
      "hit": false,
      "t": 45620,
      "d": 1365,
      "v": 74
    },
    {
      "midi": 62,
      "hit": false,
      "t": 45620,
      "d": 1365,
      "v": 74
    },
    {
      "midi": 65,
      "hit": false,
      "t": 45620,
      "d": 1365,
      "v": 74
    },
    {
      "midi": 34,
      "hit": false,
      "t": 45630,
      "d": 660,
      "v": 63
    },
    {
      "midi": 42,
      "hit": false,
      "t": 45900,
      "d": 125,
      "v": 70
    },
    {
      "midi": 84,
      "hit": false,
      "t": 46050,
      "d": 450,
      "v": 98
    },
    {
      "midi": 60,
      "hit": false,
      "t": 46050,
      "d": 450,
      "v": 98
    },
    {
      "midi": 37,
      "hit": false,
      "t": 46200,
      "d": 125,
      "v": 100
    },
    {
      "midi": 42,
      "hit": false,
      "t": 46200,
      "d": 125,
      "v": 80
    },
    {
      "midi": 42,
      "hit": false,
      "t": 46500,
      "d": 125,
      "v": 70
    },
    {
      "midi": 35,
      "hit": false,
      "t": 46500,
      "d": 125,
      "v": 80
    },
    {
      "midi": 77,
      "hit": false,
      "t": 46500,
      "d": 300,
      "v": 98
    },
    {
      "midi": 53,
      "hit": false,
      "t": 46500,
      "d": 300,
      "v": 98
    },
    {
      "midi": 34,
      "hit": false,
      "t": 46515,
      "d": 80,
      "v": 64
    },
    {
      "midi": 42,
      "hit": false,
      "t": 46800,
      "d": 125,
      "v": 90
    },
    {
      "midi": 35,
      "hit": false,
      "t": 46800,
      "d": 125,
      "v": 100
    },
    {
      "midi": 77,
      "hit": false,
      "t": 46800,
      "d": 600,
      "v": 98
    },
    {
      "midi": 53,
      "hit": false,
      "t": 46800,
      "d": 600,
      "v": 98
    },
    {
      "midi": 34,
      "hit": false,
      "t": 46820,
      "d": 800,
      "v": 78
    },
    {
      "midi": 42,
      "hit": false,
      "t": 47100,
      "d": 125,
      "v": 70
    },
    {
      "midi": 46,
      "hit": false,
      "t": 47115,
      "d": 340,
      "v": 78
    },
    {
      "midi": 37,
      "hit": false,
      "t": 47400,
      "d": 125,
      "v": 100
    },
    {
      "midi": 42,
      "hit": false,
      "t": 47400,
      "d": 125,
      "v": 80
    },
    {
      "midi": 72,
      "hit": false,
      "t": 47410,
      "d": 420,
      "v": 74
    },
    {
      "midi": 58,
      "hit": false,
      "t": 47410,
      "d": 420,
      "v": 74
    },
    {
      "midi": 62,
      "hit": false,
      "t": 47410,
      "d": 420,
      "v": 74
    },
    {
      "midi": 65,
      "hit": false,
      "t": 47410,
      "d": 420,
      "v": 74
    },
    {
      "midi": 42,
      "hit": false,
      "t": 47700,
      "d": 125,
      "v": 70
    },
    {
      "midi": 35,
      "hit": false,
      "t": 47700,
      "d": 125,
      "v": 80
    },
    {
      "midi": 77,
      "hit": false,
      "t": 47700,
      "d": 150,
      "v": 98
    },
    {
      "midi": 53,
      "hit": false,
      "t": 47700,
      "d": 150,
      "v": 98
    },
    {
      "midi": 34,
      "hit": false,
      "t": 47730,
      "d": 90,
      "v": 87
    },
    {
      "midi": 77,
      "hit": false,
      "t": 47850,
      "d": 150,
      "v": 98
    },
    {
      "midi": 53,
      "hit": false,
      "t": 47850,
      "d": 150,
      "v": 98
    },
    {
      "midi": 33,
      "hit": false,
      "t": 48000,
      "d": 705,
      "v": 82
    },
    {
      "midi": 42,
      "hit": false,
      "t": 48000,
      "d": 125,
      "v": 90
    },
    {
      "midi": 35,
      "hit": false,
      "t": 48000,
      "d": 125,
      "v": 100
    },
    {
      "midi": 84,
      "hit": false,
      "t": 48000,
      "d": 450,
      "v": 98
    },
    {
      "midi": 60,
      "hit": false,
      "t": 48000,
      "d": 450,
      "v": 98
    },
    {
      "midi": 57,
      "hit": false,
      "t": 48010,
      "d": 1005,
      "v": 72
    },
    {
      "midi": 64,
      "hit": false,
      "t": 48010,
      "d": 1005,
      "v": 72
    },
    {
      "midi": 42,
      "hit": false,
      "t": 48300,
      "d": 125,
      "v": 70
    },
    {
      "midi": 86,
      "hit": false,
      "t": 48450,
      "d": 450,
      "v": 98
    },
    {
      "midi": 62,
      "hit": false,
      "t": 48450,
      "d": 450,
      "v": 98
    },
    {
      "midi": 37,
      "hit": false,
      "t": 48600,
      "d": 125,
      "v": 100
    },
    {
      "midi": 42,
      "hit": false,
      "t": 48600,
      "d": 125,
      "v": 80
    },
    {
      "midi": 33,
      "hit": false,
      "t": 48890,
      "d": 170,
      "v": 85
    },
    {
      "midi": 42,
      "hit": false,
      "t": 48900,
      "d": 125,
      "v": 70
    },
    {
      "midi": 35,
      "hit": false,
      "t": 48900,
      "d": 125,
      "v": 80
    },
    {
      "midi": 84,
      "hit": false,
      "t": 48900,
      "d": 300,
      "v": 98
    },
    {
      "midi": 60,
      "hit": false,
      "t": 48900,
      "d": 300,
      "v": 98
    },
    {
      "midi": 60,
      "hit": false,
      "t": 48915,
      "d": 100,
      "v": 66
    },
    {
      "midi": 64,
      "hit": false,
      "t": 49070,
      "d": 130,
      "v": 70
    },
    {
      "midi": 42,
      "hit": false,
      "t": 49200,
      "d": 125,
      "v": 90
    },
    {
      "midi": 35,
      "hit": false,
      "t": 49200,
      "d": 125,
      "v": 100
    },
    {
      "midi": 57,
      "hit": false,
      "t": 49200,
      "d": 1025,
      "v": 76
    },
    {
      "midi": 77,
      "hit": false,
      "t": 49200,
      "d": 450,
      "v": 98
    },
    {
      "midi": 53,
      "hit": false,
      "t": 49200,
      "d": 450,
      "v": 98
    },
    {
      "midi": 38,
      "hit": false,
      "t": 49205,
      "d": 730,
      "v": 72
    },
    {
      "midi": 42,
      "hit": false,
      "t": 49500,
      "d": 125,
      "v": 70
    },
    {
      "midi": 62,
      "hit": false,
      "t": 49500,
      "d": 605,
      "v": 68
    },
    {
      "midi": 74,
      "hit": false,
      "t": 49650,
      "d": 150,
      "v": 98
    },
    {
      "midi": 50,
      "hit": false,
      "t": 49650,
      "d": 150,
      "v": 98
    },
    {
      "midi": 37,
      "hit": false,
      "t": 49800,
      "d": 125,
      "v": 100
    },
    {
      "midi": 42,
      "hit": false,
      "t": 49800,
      "d": 125,
      "v": 80
    },
    {
      "midi": 65,
      "hit": false,
      "t": 49800,
      "d": 405,
      "v": 85
    },
    {
      "midi": 77,
      "hit": false,
      "t": 49800,
      "d": 300,
      "v": 98
    },
    {
      "midi": 53,
      "hit": false,
      "t": 49800,
      "d": 300,
      "v": 98
    },
    {
      "midi": 42,
      "hit": false,
      "t": 50100,
      "d": 125,
      "v": 70
    },
    {
      "midi": 35,
      "hit": false,
      "t": 50100,
      "d": 125,
      "v": 80
    },
    {
      "midi": 69,
      "hit": false,
      "t": 50100,
      "d": 170,
      "v": 87
    },
    {
      "midi": 79,
      "hit": false,
      "t": 50100,
      "d": 150,
      "v": 98
    },
    {
      "midi": 55,
      "hit": false,
      "t": 50100,
      "d": 150,
      "v": 98
    },
    {
      "midi": 38,
      "hit": false,
      "t": 50120,
      "d": 160,
      "v": 74
    },
    {
      "midi": 76,
      "hit": false,
      "t": 50250,
      "d": 150,
      "v": 98
    },
    {
      "midi": 74,
      "hit": false,
      "t": 50250,
      "d": 2550,
      "v": 98
    },
    {
      "midi": 81,
      "hit": false,
      "t": 50250,
      "d": 2550,
      "v": 98
    },
    {
      "midi": 52,
      "hit": false,
      "t": 50250,
      "d": 150,
      "v": 98
    },
    {
      "midi": 50,
      "hit": false,
      "t": 50250,
      "d": 2550,
      "v": 98
    },
    {
      "midi": 57,
      "hit": false,
      "t": 50250,
      "d": 2550,
      "v": 98
    },
    {
      "midi": 42,
      "hit": false,
      "t": 50400,
      "d": 125,
      "v": 90
    },
    {
      "midi": 35,
      "hit": false,
      "t": 50400,
      "d": 125,
      "v": 100
    },
    {
      "midi": 76,
      "hit": false,
      "t": 50400,
      "d": 2400,
      "v": 98
    },
    {
      "midi": 52,
      "hit": false,
      "t": 50400,
      "d": 2400,
      "v": 98
    },
    {
      "midi": 67,
      "hit": false,
      "t": 50415,
      "d": 895,
      "v": 82
    },
    {
      "midi": 59,
      "hit": false,
      "t": 50415,
      "d": 895,
      "v": 82
    },
    {
      "midi": 62,
      "hit": false,
      "t": 50415,
      "d": 895,
      "v": 82
    },
    {
      "midi": 64,
      "hit": false,
      "t": 50415,
      "d": 895,
      "v": 82
    },
    {
      "midi": 40,
      "hit": false,
      "t": 50430,
      "d": 660,
      "v": 63
    },
    {
      "midi": 42,
      "hit": false,
      "t": 50700,
      "d": 125,
      "v": 70
    },
    {
      "midi": 37,
      "hit": false,
      "t": 51000,
      "d": 125,
      "v": 100
    },
    {
      "midi": 42,
      "hit": false,
      "t": 51000,
      "d": 125,
      "v": 80
    },
    {
      "midi": 52,
      "hit": false,
      "t": 51290,
      "d": 1460,
      "v": 63
    },
    {
      "midi": 42,
      "hit": false,
      "t": 51300,
      "d": 125,
      "v": 70
    },
    {
      "midi": 35,
      "hit": false,
      "t": 51300,
      "d": 125,
      "v": 80
    },
    {
      "midi": 40,
      "hit": false,
      "t": 51315,
      "d": 80,
      "v": 64
    },
    {
      "midi": 42,
      "hit": false,
      "t": 51600,
      "d": 125,
      "v": 90
    },
    {
      "midi": 35,
      "hit": false,
      "t": 51600,
      "d": 125,
      "v": 100
    },
    {
      "midi": 64,
      "hit": false,
      "t": 51610,
      "d": 1150,
      "v": 66
    },
    {
      "midi": 40,
      "hit": false,
      "t": 51620,
      "d": 800,
      "v": 78
    },
    {
      "midi": 42,
      "hit": false,
      "t": 51900,
      "d": 125,
      "v": 70
    },
    {
      "midi": 38,
      "hit": false,
      "t": 51900,
      "d": 125,
      "v": 100
    },
    {
      "midi": 67,
      "hit": false,
      "t": 51900,
      "d": 840,
      "v": 68
    },
    {
      "midi": 42,
      "hit": false,
      "t": 52200,
      "d": 125,
      "v": 80
    },
    {
      "midi": 38,
      "hit": false,
      "t": 52200,
      "d": 125,
      "v": 80
    },
    {
      "midi": 71,
      "hit": false,
      "t": 52220,
      "d": 510,
      "v": 82
    },
    {
      "midi": 38,
      "hit": false,
      "t": 52350,
      "d": 125,
      "v": 115
    },
    {
      "midi": 74,
      "hit": false,
      "t": 52490,
      "d": 240,
      "v": 59
    },
    {
      "midi": 46,
      "hit": false,
      "t": 52500,
      "d": 125,
      "v": 90
    },
    {
      "midi": 35,
      "hit": false,
      "t": 52500,
      "d": 125,
      "v": 80
    },
    {
      "midi": 40,
      "hit": false,
      "t": 52530,
      "d": 90,
      "v": 87
    },
    {
      "midi": 33,
      "hit": false,
      "t": 52800,
      "d": 705,
      "v": 82
    },
    {
      "midi": 49,
      "hit": false,
      "t": 52800,
      "d": 125,
      "v": 90
    },
    {
      "midi": 42,
      "hit": false,
      "t": 52800,
      "d": 125,
      "v": 90
    },
    {
      "midi": 35,
      "hit": false,
      "t": 52800,
      "d": 125,
      "v": 100
    },
    {
      "midi": 69,
      "hit": false,
      "t": 52800,
      "d": 390,
      "v": 68
    },
    {
      "midi": 61,
      "hit": false,
      "t": 52800,
      "d": 390,
      "v": 68
    },
    {
      "midi": 64,
      "hit": false,
      "t": 52800,
      "d": 390,
      "v": 68
    },
    {
      "midi": 67,
      "hit": false,
      "t": 52800,
      "d": 390,
      "v": 68
    },
    {
      "midi": 81,
      "hit": false,
      "t": 52800,
      "d": 600,
      "v": 98
    },
    {
      "midi": 76,
      "hit": false,
      "t": 52800,
      "d": 600,
      "v": 98
    },
    {
      "midi": 73,
      "hit": false,
      "t": 52800,
      "d": 600,
      "v": 98
    },
    {
      "midi": 57,
      "hit": false,
      "t": 52800,
      "d": 600,
      "v": 98
    },
    {
      "midi": 52,
      "hit": false,
      "t": 52800,
      "d": 600,
      "v": 98
    },
    {
      "midi": 49,
      "hit": false,
      "t": 52800,
      "d": 600,
      "v": 98
    },
    {
      "midi": 42,
      "hit": false,
      "t": 53100,
      "d": 125,
      "v": 70
    },
    {
      "midi": 45,
      "hit": false,
      "t": 53100,
      "d": 585,
      "v": 78
    },
    {
      "midi": 37,
      "hit": false,
      "t": 53400,
      "d": 125,
      "v": 100
    },
    {
      "midi": 42,
      "hit": false,
      "t": 53400,
      "d": 125,
      "v": 80
    },
    {
      "midi": 69,
      "hit": false,
      "t": 53400,
      "d": 335,
      "v": 80
    },
    {
      "midi": 61,
      "hit": false,
      "t": 53400,
      "d": 335,
      "v": 80
    },
    {
      "midi": 64,
      "hit": false,
      "t": 53400,
      "d": 335,
      "v": 80
    },
    {
      "midi": 67,
      "hit": false,
      "t": 53400,
      "d": 335,
      "v": 80
    },
    {
      "midi": 81,
      "hit": false,
      "t": 53400,
      "d": 600,
      "v": 98
    },
    {
      "midi": 76,
      "hit": false,
      "t": 53400,
      "d": 600,
      "v": 98
    },
    {
      "midi": 73,
      "hit": false,
      "t": 53400,
      "d": 600,
      "v": 98
    },
    {
      "midi": 57,
      "hit": false,
      "t": 53400,
      "d": 600,
      "v": 98
    },
    {
      "midi": 52,
      "hit": false,
      "t": 53400,
      "d": 600,
      "v": 98
    },
    {
      "midi": 49,
      "hit": false,
      "t": 53400,
      "d": 600,
      "v": 98
    },
    {
      "midi": 33,
      "hit": false,
      "t": 53690,
      "d": 170,
      "v": 85
    },
    {
      "midi": 42,
      "hit": false,
      "t": 53700,
      "d": 125,
      "v": 70
    },
    {
      "midi": 35,
      "hit": false,
      "t": 53700,
      "d": 125,
      "v": 80
    },
    {
      "midi": 38,
      "hit": false,
      "t": 54000,
      "d": 600,
      "v": 82
    },
    {
      "midi": 42,
      "hit": false,
      "t": 54000,
      "d": 125,
      "v": 90
    },
    {
      "midi": 35,
      "hit": false,
      "t": 54000,
      "d": 125,
      "v": 100
    },
    {
      "midi": 74,
      "hit": false,
      "t": 54000,
      "d": 450,
      "v": 98
    },
    {
      "midi": 50,
      "hit": false,
      "t": 54000,
      "d": 450,
      "v": 98
    },
    {
      "midi": 54,
      "hit": false,
      "t": 54020,
      "d": 580,
      "v": 80
    },
    {
      "midi": 57,
      "hit": false,
      "t": 54020,
      "d": 580,
      "v": 80
    },
    {
      "midi": 62,
      "hit": false,
      "t": 54020,
      "d": 580,
      "v": 80
    },
    {
      "midi": 42,
      "hit": false,
      "t": 54300,
      "d": 125,
      "v": 70
    },
    {
      "midi": 77,
      "hit": false,
      "t": 54450,
      "d": 450,
      "v": 98
    },
    {
      "midi": 53,
      "hit": false,
      "t": 54450,
      "d": 450,
      "v": 98
    },
    {
      "midi": 38,
      "hit": false,
      "t": 54600,
      "d": 600,
      "v": 82
    },
    {
      "midi": 37,
      "hit": false,
      "t": 54600,
      "d": 125,
      "v": 100
    },
    {
      "midi": 42,
      "hit": false,
      "t": 54600,
      "d": 125,
      "v": 80
    },
    {
      "midi": 57,
      "hit": false,
      "t": 54620,
      "d": 580,
      "v": 80
    },
    {
      "midi": 62,
      "hit": false,
      "t": 54620,
      "d": 580,
      "v": 80
    },
    {
      "midi": 65,
      "hit": false,
      "t": 54620,
      "d": 580,
      "v": 80
    },
    {
      "midi": 42,
      "hit": false,
      "t": 54900,
      "d": 125,
      "v": 70
    },
    {
      "midi": 35,
      "hit": false,
      "t": 54900,
      "d": 125,
      "v": 80
    },
    {
      "midi": 81,
      "hit": false,
      "t": 54900,
      "d": 300,
      "v": 98
    },
    {
      "midi": 57,
      "hit": false,
      "t": 54900,
      "d": 300,
      "v": 98
    },
    {
      "midi": 42,
      "hit": false,
      "t": 55200,
      "d": 125,
      "v": 90
    },
    {
      "midi": 35,
      "hit": false,
      "t": 55200,
      "d": 125,
      "v": 100
    },
    {
      "midi": 67,
      "hit": false,
      "t": 55200,
      "d": 1200,
      "v": 80
    },
    {
      "midi": 58,
      "hit": false,
      "t": 55200,
      "d": 1200,
      "v": 80
    },
    {
      "midi": 62,
      "hit": false,
      "t": 55200,
      "d": 1200,
      "v": 80
    },
    {
      "midi": 65,
      "hit": false,
      "t": 55200,
      "d": 1200,
      "v": 80
    },
    {
      "midi": 86,
      "hit": false,
      "t": 55200,
      "d": 450,
      "v": 98
    },
    {
      "midi": 82,
      "hit": false,
      "t": 55200,
      "d": 450,
      "v": 98
    },
    {
      "midi": 62,
      "hit": false,
      "t": 55200,
      "d": 450,
      "v": 98
    },
    {
      "midi": 58,
      "hit": false,
      "t": 55200,
      "d": 450,
      "v": 98
    },
    {
      "midi": 43,
      "hit": false,
      "t": 55205,
      "d": 730,
      "v": 72
    },
    {
      "midi": 42,
      "hit": false,
      "t": 55500,
      "d": 125,
      "v": 70
    },
    {
      "midi": 86,
      "hit": false,
      "t": 55650,
      "d": 150,
      "v": 98
    },
    {
      "midi": 82,
      "hit": false,
      "t": 55650,
      "d": 150,
      "v": 98
    },
    {
      "midi": 62,
      "hit": false,
      "t": 55650,
      "d": 150,
      "v": 98
    },
    {
      "midi": 58,
      "hit": false,
      "t": 55650,
      "d": 150,
      "v": 98
    },
    {
      "midi": 37,
      "hit": false,
      "t": 55800,
      "d": 125,
      "v": 100
    },
    {
      "midi": 42,
      "hit": false,
      "t": 55800,
      "d": 125,
      "v": 80
    },
    {
      "midi": 86,
      "hit": false,
      "t": 55800,
      "d": 300,
      "v": 98
    },
    {
      "midi": 82,
      "hit": false,
      "t": 55800,
      "d": 300,
      "v": 98
    },
    {
      "midi": 62,
      "hit": false,
      "t": 55800,
      "d": 300,
      "v": 98
    },
    {
      "midi": 58,
      "hit": false,
      "t": 55800,
      "d": 300,
      "v": 98
    },
    {
      "midi": 42,
      "hit": false,
      "t": 56100,
      "d": 125,
      "v": 70
    },
    {
      "midi": 35,
      "hit": false,
      "t": 56100,
      "d": 125,
      "v": 80
    },
    {
      "midi": 86,
      "hit": false,
      "t": 56100,
      "d": 300,
      "v": 98
    },
    {
      "midi": 82,
      "hit": false,
      "t": 56100,
      "d": 300,
      "v": 98
    },
    {
      "midi": 62,
      "hit": false,
      "t": 56100,
      "d": 300,
      "v": 98
    },
    {
      "midi": 58,
      "hit": false,
      "t": 56100,
      "d": 300,
      "v": 98
    },
    {
      "midi": 43,
      "hit": false,
      "t": 56120,
      "d": 160,
      "v": 74
    },
    {
      "midi": 36,
      "hit": false,
      "t": 56400,
      "d": 705,
      "v": 82
    },
    {
      "midi": 42,
      "hit": false,
      "t": 56400,
      "d": 125,
      "v": 90
    },
    {
      "midi": 35,
      "hit": false,
      "t": 56400,
      "d": 125,
      "v": 100
    },
    {
      "midi": 58,
      "hit": false,
      "t": 56400,
      "d": 1025,
      "v": 76
    },
    {
      "midi": 84,
      "hit": false,
      "t": 56400,
      "d": 600,
      "v": 98
    },
    {
      "midi": 60,
      "hit": false,
      "t": 56400,
      "d": 600,
      "v": 98
    },
    {
      "midi": 42,
      "hit": false,
      "t": 56700,
      "d": 125,
      "v": 70
    },
    {
      "midi": 60,
      "hit": false,
      "t": 56700,
      "d": 605,
      "v": 68
    },
    {
      "midi": 37,
      "hit": false,
      "t": 57000,
      "d": 125,
      "v": 100
    },
    {
      "midi": 42,
      "hit": false,
      "t": 57000,
      "d": 125,
      "v": 80
    },
    {
      "midi": 64,
      "hit": false,
      "t": 57000,
      "d": 405,
      "v": 85
    },
    {
      "midi": 81,
      "hit": false,
      "t": 57000,
      "d": 300,
      "v": 98
    },
    {
      "midi": 57,
      "hit": false,
      "t": 57000,
      "d": 300,
      "v": 98
    },
    {
      "midi": 36,
      "hit": false,
      "t": 57290,
      "d": 170,
      "v": 85
    },
    {
      "midi": 42,
      "hit": false,
      "t": 57300,
      "d": 125,
      "v": 70
    },
    {
      "midi": 35,
      "hit": false,
      "t": 57300,
      "d": 125,
      "v": 80
    },
    {
      "midi": 67,
      "hit": false,
      "t": 57300,
      "d": 125,
      "v": 87
    },
    {
      "midi": 79,
      "hit": false,
      "t": 57300,
      "d": 150,
      "v": 98
    },
    {
      "midi": 55,
      "hit": false,
      "t": 57300,
      "d": 150,
      "v": 98
    },
    {
      "midi": 81,
      "hit": false,
      "t": 57450,
      "d": 1950,
      "v": 98
    },
    {
      "midi": 72,
      "hit": false,
      "t": 57450,
      "d": 1950,
      "v": 98
    },
    {
      "midi": 57,
      "hit": false,
      "t": 57450,
      "d": 1950,
      "v": 98
    },
    {
      "midi": 48,
      "hit": false,
      "t": 57450,
      "d": 1950,
      "v": 98
    },
    {
      "midi": 42,
      "hit": false,
      "t": 57600,
      "d": 125,
      "v": 90
    },
    {
      "midi": 35,
      "hit": false,
      "t": 57600,
      "d": 125,
      "v": 100
    },
    {
      "midi": 45,
      "hit": false,
      "t": 57600,
      "d": 980,
      "v": 54
    },
    {
      "midi": 60,
      "hit": false,
      "t": 57600,
      "d": 1200,
      "v": 57
    },
    {
      "midi": 64,
      "hit": false,
      "t": 57600,
      "d": 1225,
      "v": 56
    },
    {
      "midi": 55,
      "hit": false,
      "t": 57600,
      "d": 1245,
      "v": 48
    },
    {
      "midi": 57,
      "hit": false,
      "t": 57600,
      "d": 1245,
      "v": 61
    },
    {
      "midi": 33,
      "hit": false,
      "t": 57630,
      "d": 660,
      "v": 63
    },
    {
      "midi": 42,
      "hit": false,
      "t": 57900,
      "d": 125,
      "v": 70
    },
    {
      "midi": 37,
      "hit": false,
      "t": 58200,
      "d": 125,
      "v": 100
    },
    {
      "midi": 42,
      "hit": false,
      "t": 58200,
      "d": 125,
      "v": 80
    },
    {
      "midi": 42,
      "hit": false,
      "t": 58500,
      "d": 125,
      "v": 70
    },
    {
      "midi": 35,
      "hit": false,
      "t": 58500,
      "d": 125,
      "v": 80
    },
    {
      "midi": 33,
      "hit": false,
      "t": 58515,
      "d": 80,
      "v": 64
    },
    {
      "midi": 42,
      "hit": false,
      "t": 58800,
      "d": 125,
      "v": 90
    },
    {
      "midi": 35,
      "hit": false,
      "t": 58800,
      "d": 125,
      "v": 100
    },
    {
      "midi": 45,
      "hit": false,
      "t": 58800,
      "d": 980,
      "v": 52
    },
    {
      "midi": 33,
      "hit": false,
      "t": 58820,
      "d": 800,
      "v": 78
    },
    {
      "midi": 42,
      "hit": false,
      "t": 59100,
      "d": 125,
      "v": 70
    },
    {
      "midi": 55,
      "hit": false,
      "t": 59100,
      "d": 815,
      "v": 76
    },
    {
      "midi": 37,
      "hit": false,
      "t": 59400,
      "d": 125,
      "v": 100
    },
    {
      "midi": 42,
      "hit": false,
      "t": 59400,
      "d": 125,
      "v": 80
    },
    {
      "midi": 57,
      "hit": false,
      "t": 59400,
      "d": 515,
      "v": 91
    },
    {
      "midi": 79,
      "hit": false,
      "t": 59400,
      "d": 300,
      "v": 98
    },
    {
      "midi": 55,
      "hit": false,
      "t": 59400,
      "d": 300,
      "v": 98
    },
    {
      "midi": 42,
      "hit": false,
      "t": 59700,
      "d": 125,
      "v": 70
    },
    {
      "midi": 35,
      "hit": false,
      "t": 59700,
      "d": 125,
      "v": 80
    },
    {
      "midi": 60,
      "hit": false,
      "t": 59700,
      "d": 190,
      "v": 87
    },
    {
      "midi": 81,
      "hit": false,
      "t": 59700,
      "d": 300,
      "v": 98
    },
    {
      "midi": 57,
      "hit": false,
      "t": 59700,
      "d": 300,
      "v": 98
    },
    {
      "midi": 33,
      "hit": false,
      "t": 59730,
      "d": 90,
      "v": 87
    },
    {
      "midi": 43,
      "hit": false,
      "t": 60000,
      "d": 705,
      "v": 82
    },
    {
      "midi": 42,
      "hit": false,
      "t": 60000,
      "d": 125,
      "v": 90
    },
    {
      "midi": 35,
      "hit": false,
      "t": 60000,
      "d": 125,
      "v": 100
    },
    {
      "midi": 70,
      "hit": false,
      "t": 60000,
      "d": 1025,
      "v": 76
    },
    {
      "midi": 65,
      "hit": false,
      "t": 60000,
      "d": 1025,
      "v": 76
    },
    {
      "midi": 67,
      "hit": false,
      "t": 60000,
      "d": 1025,
      "v": 76
    },
    {
      "midi": 82,
      "hit": false,
      "t": 60000,
      "d": 450,
      "v": 98
    },
    {
      "midi": 58,
      "hit": false,
      "t": 60000,
      "d": 450,
      "v": 98
    },
    {
      "midi": 42,
      "hit": false,
      "t": 60300,
      "d": 125,
      "v": 70
    },
    {
      "midi": 55,
      "hit": false,
      "t": 60300,
      "d": 605,
      "v": 68
    },
    {
      "midi": 84,
      "hit": false,
      "t": 60450,
      "d": 450,
      "v": 98
    },
    {
      "midi": 60,
      "hit": false,
      "t": 60450,
      "d": 450,
      "v": 98
    },
    {
      "midi": 37,
      "hit": false,
      "t": 60600,
      "d": 125,
      "v": 100
    },
    {
      "midi": 42,
      "hit": false,
      "t": 60600,
      "d": 125,
      "v": 80
    },
    {
      "midi": 58,
      "hit": false,
      "t": 60600,
      "d": 405,
      "v": 85
    },
    {
      "midi": 43,
      "hit": false,
      "t": 60890,
      "d": 170,
      "v": 85
    },
    {
      "midi": 42,
      "hit": false,
      "t": 60900,
      "d": 125,
      "v": 70
    },
    {
      "midi": 35,
      "hit": false,
      "t": 60900,
      "d": 125,
      "v": 80
    },
    {
      "midi": 62,
      "hit": false,
      "t": 60900,
      "d": 125,
      "v": 87
    },
    {
      "midi": 82,
      "hit": false,
      "t": 60900,
      "d": 300,
      "v": 98
    },
    {
      "midi": 58,
      "hit": false,
      "t": 60900,
      "d": 300,
      "v": 98
    },
    {
      "midi": 42,
      "hit": false,
      "t": 61200,
      "d": 125,
      "v": 90
    },
    {
      "midi": 35,
      "hit": false,
      "t": 61200,
      "d": 125,
      "v": 100
    },
    {
      "midi": 69,
      "hit": false,
      "t": 61200,
      "d": 1200,
      "v": 80
    },
    {
      "midi": 61,
      "hit": false,
      "t": 61200,
      "d": 1200,
      "v": 80
    },
    {
      "midi": 64,
      "hit": false,
      "t": 61200,
      "d": 1200,
      "v": 80
    },
    {
      "midi": 67,
      "hit": false,
      "t": 61200,
      "d": 1200,
      "v": 80
    },
    {
      "midi": 81,
      "hit": false,
      "t": 61200,
      "d": 600,
      "v": 98
    },
    {
      "midi": 73,
      "hit": false,
      "t": 61200,
      "d": 600,
      "v": 98
    },
    {
      "midi": 57,
      "hit": false,
      "t": 61200,
      "d": 600,
      "v": 98
    },
    {
      "midi": 49,
      "hit": false,
      "t": 61200,
      "d": 600,
      "v": 98
    },
    {
      "midi": 33,
      "hit": false,
      "t": 61205,
      "d": 730,
      "v": 72
    },
    {
      "midi": 42,
      "hit": false,
      "t": 61500,
      "d": 125,
      "v": 70
    },
    {
      "midi": 37,
      "hit": false,
      "t": 61800,
      "d": 125,
      "v": 100
    },
    {
      "midi": 42,
      "hit": false,
      "t": 61800,
      "d": 125,
      "v": 80
    },
    {
      "midi": 79,
      "hit": false,
      "t": 61800,
      "d": 300,
      "v": 98
    },
    {
      "midi": 55,
      "hit": false,
      "t": 61800,
      "d": 300,
      "v": 98
    },
    {
      "midi": 42,
      "hit": false,
      "t": 62100,
      "d": 125,
      "v": 70
    },
    {
      "midi": 35,
      "hit": false,
      "t": 62100,
      "d": 125,
      "v": 80
    },
    {
      "midi": 77,
      "hit": false,
      "t": 62100,
      "d": 300,
      "v": 98
    },
    {
      "midi": 53,
      "hit": false,
      "t": 62100,
      "d": 300,
      "v": 98
    },
    {
      "midi": 33,
      "hit": false,
      "t": 62120,
      "d": 160,
      "v": 74
    },
    {
      "midi": 38,
      "hit": false,
      "t": 62400,
      "d": 855,
      "v": 80
    },
    {
      "midi": 42,
      "hit": false,
      "t": 62400,
      "d": 125,
      "v": 90
    },
    {
      "midi": 35,
      "hit": false,
      "t": 62400,
      "d": 125,
      "v": 100
    },
    {
      "midi": 57,
      "hit": false,
      "t": 62400,
      "d": 1970,
      "v": 72
    },
    {
      "midi": 65,
      "hit": false,
      "t": 62400,
      "d": 1970,
      "v": 72
    },
    {
      "midi": 79,
      "hit": false,
      "t": 62400,
      "d": 300,
      "v": 98
    },
    {
      "midi": 55,
      "hit": false,
      "t": 62400,
      "d": 300,
      "v": 98
    },
    {
      "midi": 42,
      "hit": false,
      "t": 62700,
      "d": 125,
      "v": 70
    },
    {
      "midi": 81,
      "hit": false,
      "t": 62700,
      "d": 150,
      "v": 98
    },
    {
      "midi": 57,
      "hit": false,
      "t": 62700,
      "d": 150,
      "v": 98
    },
    {
      "midi": 81,
      "hit": false,
      "t": 62850,
      "d": 750,
      "v": 98
    },
    {
      "midi": 57,
      "hit": false,
      "t": 62850,
      "d": 750,
      "v": 98
    },
    {
      "midi": 37,
      "hit": false,
      "t": 63000,
      "d": 125,
      "v": 100
    },
    {
      "midi": 42,
      "hit": false,
      "t": 63000,
      "d": 125,
      "v": 80
    },
    {
      "midi": 42,
      "hit": false,
      "t": 63300,
      "d": 125,
      "v": 70
    },
    {
      "midi": 35,
      "hit": false,
      "t": 63300,
      "d": 125,
      "v": 80
    },
    {
      "midi": 33,
      "hit": false,
      "t": 63305,
      "d": 300,
      "v": 58
    },
    {
      "midi": 42,
      "hit": false,
      "t": 63600,
      "d": 125,
      "v": 90
    },
    {
      "midi": 35,
      "hit": false,
      "t": 63600,
      "d": 125,
      "v": 100
    },
    {
      "midi": 38,
      "hit": false,
      "t": 63605,
      "d": 100,
      "v": 68
    },
    {
      "midi": 42,
      "hit": false,
      "t": 63900,
      "d": 125,
      "v": 70
    },
    {
      "midi": 38,
      "hit": false,
      "t": 63910,
      "d": 340,
      "v": 74
    },
    {
      "midi": 37,
      "hit": false,
      "t": 64200,
      "d": 125,
      "v": 100
    },
    {
      "midi": 42,
      "hit": false,
      "t": 64200,
      "d": 125,
      "v": 80
    },
    {
      "midi": 62,
      "hit": false,
      "t": 64220,
      "d": 150,
      "v": 61
    },
    {
      "midi": 65,
      "hit": false,
      "t": 64375,
      "d": 210,
      "v": 74
    },
    {
      "midi": 38,
      "hit": false,
      "t": 64495,
      "d": 140,
      "v": 76
    },
    {
      "midi": 42,
      "hit": false,
      "t": 64500,
      "d": 125,
      "v": 70
    },
    {
      "midi": 35,
      "hit": false,
      "t": 64500,
      "d": 125,
      "v": 80
    },
    {
      "midi": 69,
      "hit": false,
      "t": 64525,
      "d": 195,
      "v": 68
    },
    {
      "midi": 74,
      "hit": false,
      "t": 64680,
      "d": 110,
      "v": 68
    },
    {
      "midi": 42,
      "hit": false,
      "t": 64800,
      "d": 125,
      "v": 90
    },
    {
      "midi": 35,
      "hit": false,
      "t": 64800,
      "d": 125,
      "v": 100
    },
    {
      "midi": 79,
      "hit": false,
      "t": 64800,
      "d": 300,
      "v": 98
    },
    {
      "midi": 55,
      "hit": false,
      "t": 64800,
      "d": 300,
      "v": 98
    },
    {
      "midi": 58,
      "hit": false,
      "t": 64815,
      "d": 1730,
      "v": 87
    },
    {
      "midi": 62,
      "hit": false,
      "t": 64815,
      "d": 1730,
      "v": 87
    },
    {
      "midi": 34,
      "hit": false,
      "t": 64830,
      "d": 660,
      "v": 63
    },
    {
      "midi": 42,
      "hit": false,
      "t": 65100,
      "d": 125,
      "v": 70
    },
    {
      "midi": 81,
      "hit": false,
      "t": 65100,
      "d": 300,
      "v": 98
    },
    {
      "midi": 57,
      "hit": false,
      "t": 65100,
      "d": 300,
      "v": 98
    },
    {
      "midi": 37,
      "hit": false,
      "t": 65400,
      "d": 125,
      "v": 100
    },
    {
      "midi": 42,
      "hit": false,
      "t": 65400,
      "d": 125,
      "v": 80
    },
    {
      "midi": 74,
      "hit": false,
      "t": 65400,
      "d": 300,
      "v": 98
    },
    {
      "midi": 50,
      "hit": false,
      "t": 65400,
      "d": 300,
      "v": 98
    },
    {
      "midi": 42,
      "hit": false,
      "t": 65700,
      "d": 125,
      "v": 70
    },
    {
      "midi": 35,
      "hit": false,
      "t": 65700,
      "d": 125,
      "v": 80
    },
    {
      "midi": 77,
      "hit": false,
      "t": 65700,
      "d": 150,
      "v": 98
    },
    {
      "midi": 53,
      "hit": false,
      "t": 65700,
      "d": 150,
      "v": 98
    },
    {
      "midi": 34,
      "hit": false,
      "t": 65715,
      "d": 80,
      "v": 64
    },
    {
      "midi": 79,
      "hit": false,
      "t": 65850,
      "d": 150,
      "v": 98
    },
    {
      "midi": 55,
      "hit": false,
      "t": 65850,
      "d": 150,
      "v": 98
    },
    {
      "midi": 42,
      "hit": false,
      "t": 66000,
      "d": 125,
      "v": 90
    },
    {
      "midi": 35,
      "hit": false,
      "t": 66000,
      "d": 125,
      "v": 100
    },
    {
      "midi": 79,
      "hit": false,
      "t": 66000,
      "d": 600,
      "v": 98
    },
    {
      "midi": 55,
      "hit": false,
      "t": 66000,
      "d": 600,
      "v": 98
    },
    {
      "midi": 34,
      "hit": false,
      "t": 66020,
      "d": 800,
      "v": 78
    },
    {
      "midi": 42,
      "hit": false,
      "t": 66300,
      "d": 125,
      "v": 70
    },
    {
      "midi": 65,
      "hit": false,
      "t": 66315,
      "d": 230,
      "v": 68
    },
    {
      "midi": 37,
      "hit": false,
      "t": 66600,
      "d": 125,
      "v": 100
    },
    {
      "midi": 42,
      "hit": false,
      "t": 66600,
      "d": 125,
      "v": 80
    },
    {
      "midi": 62,
      "hit": false,
      "t": 66615,
      "d": 350,
      "v": 64
    },
    {
      "midi": 42,
      "hit": false,
      "t": 66900,
      "d": 125,
      "v": 70
    },
    {
      "midi": 35,
      "hit": false,
      "t": 66900,
      "d": 125,
      "v": 80
    },
    {
      "midi": 58,
      "hit": false,
      "t": 66925,
      "d": 260,
      "v": 91
    },
    {
      "midi": 34,
      "hit": false,
      "t": 66930,
      "d": 90,
      "v": 87
    },
    {
      "midi": 42,
      "hit": false,
      "t": 67200,
      "d": 125,
      "v": 90
    },
    {
      "midi": 35,
      "hit": false,
      "t": 67200,
      "d": 125,
      "v": 100
    },
    {
      "midi": 79,
      "hit": false,
      "t": 67200,
      "d": 300,
      "v": 98
    },
    {
      "midi": 55,
      "hit": false,
      "t": 67200,
      "d": 300,
      "v": 98
    },
    {
      "midi": 57,
      "hit": false,
      "t": 67215,
      "d": 895,
      "v": 82
    },
    {
      "midi": 60,
      "hit": false,
      "t": 67215,
      "d": 895,
      "v": 82
    },
    {
      "midi": 65,
      "hit": false,
      "t": 67215,
      "d": 895,
      "v": 82
    },
    {
      "midi": 33,
      "hit": false,
      "t": 67230,
      "d": 660,
      "v": 63
    },
    {
      "midi": 42,
      "hit": false,
      "t": 67500,
      "d": 125,
      "v": 70
    },
    {
      "midi": 81,
      "hit": false,
      "t": 67500,
      "d": 300,
      "v": 98
    },
    {
      "midi": 57,
      "hit": false,
      "t": 67500,
      "d": 300,
      "v": 98
    },
    {
      "midi": 37,
      "hit": false,
      "t": 67800,
      "d": 125,
      "v": 100
    },
    {
      "midi": 42,
      "hit": false,
      "t": 67800,
      "d": 125,
      "v": 80
    },
    {
      "midi": 72,
      "hit": false,
      "t": 67800,
      "d": 300,
      "v": 98
    },
    {
      "midi": 48,
      "hit": false,
      "t": 67800,
      "d": 300,
      "v": 98
    },
    {
      "midi": 45,
      "hit": false,
      "t": 68090,
      "d": 1460,
      "v": 63
    },
    {
      "midi": 42,
      "hit": false,
      "t": 68100,
      "d": 125,
      "v": 70
    },
    {
      "midi": 35,
      "hit": false,
      "t": 68100,
      "d": 125,
      "v": 80
    },
    {
      "midi": 77,
      "hit": false,
      "t": 68100,
      "d": 150,
      "v": 98
    },
    {
      "midi": 53,
      "hit": false,
      "t": 68100,
      "d": 150,
      "v": 98
    },
    {
      "midi": 33,
      "hit": false,
      "t": 68115,
      "d": 80,
      "v": 64
    },
    {
      "midi": 79,
      "hit": false,
      "t": 68250,
      "d": 450,
      "v": 98
    },
    {
      "midi": 55,
      "hit": false,
      "t": 68250,
      "d": 450,
      "v": 98
    },
    {
      "midi": 42,
      "hit": false,
      "t": 68400,
      "d": 125,
      "v": 90
    },
    {
      "midi": 35,
      "hit": false,
      "t": 68400,
      "d": 125,
      "v": 100
    },
    {
      "midi": 65,
      "hit": false,
      "t": 68410,
      "d": 1150,
      "v": 66
    },
    {
      "midi": 33,
      "hit": false,
      "t": 68420,
      "d": 800,
      "v": 78
    },
    {
      "midi": 42,
      "hit": false,
      "t": 68700,
      "d": 125,
      "v": 70
    },
    {
      "midi": 69,
      "hit": false,
      "t": 68700,
      "d": 840,
      "v": 68
    },
    {
      "midi": 81,
      "hit": false,
      "t": 68700,
      "d": 300,
      "v": 98
    },
    {
      "midi": 57,
      "hit": false,
      "t": 68700,
      "d": 300,
      "v": 98
    },
    {
      "midi": 37,
      "hit": false,
      "t": 69000,
      "d": 125,
      "v": 100
    },
    {
      "midi": 42,
      "hit": false,
      "t": 69000,
      "d": 125,
      "v": 80
    },
    {
      "midi": 79,
      "hit": false,
      "t": 69000,
      "d": 300,
      "v": 98
    },
    {
      "midi": 55,
      "hit": false,
      "t": 69000,
      "d": 300,
      "v": 98
    },
    {
      "midi": 72,
      "hit": false,
      "t": 69020,
      "d": 510,
      "v": 82
    },
    {
      "midi": 77,
      "hit": false,
      "t": 69290,
      "d": 240,
      "v": 59
    },
    {
      "midi": 42,
      "hit": false,
      "t": 69300,
      "d": 125,
      "v": 70
    },
    {
      "midi": 35,
      "hit": false,
      "t": 69300,
      "d": 125,
      "v": 80
    },
    {
      "midi": 77,
      "hit": false,
      "t": 69300,
      "d": 300,
      "v": 98
    },
    {
      "midi": 53,
      "hit": false,
      "t": 69300,
      "d": 300,
      "v": 98
    },
    {
      "midi": 33,
      "hit": false,
      "t": 69330,
      "d": 90,
      "v": 87
    },
    {
      "midi": 43,
      "hit": false,
      "t": 69600,
      "d": 865,
      "v": 72
    },
    {
      "midi": 42,
      "hit": false,
      "t": 69600,
      "d": 125,
      "v": 90
    },
    {
      "midi": 35,
      "hit": false,
      "t": 69600,
      "d": 125,
      "v": 100
    },
    {
      "midi": 79,
      "hit": false,
      "t": 69600,
      "d": 450,
      "v": 98
    },
    {
      "midi": 70,
      "hit": false,
      "t": 69600,
      "d": 450,
      "v": 98
    },
    {
      "midi": 55,
      "hit": false,
      "t": 69600,
      "d": 450,
      "v": 98
    },
    {
      "midi": 46,
      "hit": false,
      "t": 69600,
      "d": 450,
      "v": 98
    },
    {
      "midi": 67,
      "hit": false,
      "t": 69615,
      "d": 1730,
      "v": 87
    },
    {
      "midi": 58,
      "hit": false,
      "t": 69615,
      "d": 1730,
      "v": 87
    },
    {
      "midi": 65,
      "hit": false,
      "t": 69615,
      "d": 1730,
      "v": 87
    },
    {
      "midi": 42,
      "hit": false,
      "t": 69900,
      "d": 125,
      "v": 70
    },
    {
      "midi": 77,
      "hit": false,
      "t": 70050,
      "d": 450,
      "v": 98
    },
    {
      "midi": 70,
      "hit": false,
      "t": 70050,
      "d": 450,
      "v": 98
    },
    {
      "midi": 53,
      "hit": false,
      "t": 70050,
      "d": 450,
      "v": 98
    },
    {
      "midi": 46,
      "hit": false,
      "t": 70050,
      "d": 450,
      "v": 98
    },
    {
      "midi": 37,
      "hit": false,
      "t": 70200,
      "d": 125,
      "v": 100
    },
    {
      "midi": 42,
      "hit": false,
      "t": 70200,
      "d": 125,
      "v": 80
    },
    {
      "midi": 43,
      "hit": false,
      "t": 70500,
      "d": 75,
      "v": 82
    },
    {
      "midi": 42,
      "hit": false,
      "t": 70500,
      "d": 125,
      "v": 70
    },
    {
      "midi": 35,
      "hit": false,
      "t": 70500,
      "d": 125,
      "v": 80
    },
    {
      "midi": 76,
      "hit": false,
      "t": 70500,
      "d": 300,
      "v": 98
    },
    {
      "midi": 52,
      "hit": false,
      "t": 70500,
      "d": 300,
      "v": 98
    },
    {
      "midi": 46,
      "hit": false,
      "t": 70650,
      "d": 125,
      "v": 54
    },
    {
      "midi": 43,
      "hit": false,
      "t": 70800,
      "d": 95,
      "v": 85
    },
    {
      "midi": 42,
      "hit": false,
      "t": 70800,
      "d": 125,
      "v": 90
    },
    {
      "midi": 35,
      "hit": false,
      "t": 70800,
      "d": 125,
      "v": 100
    },
    {
      "midi": 77,
      "hit": false,
      "t": 70800,
      "d": 600,
      "v": 98
    },
    {
      "midi": 53,
      "hit": false,
      "t": 70800,
      "d": 600,
      "v": 98
    },
    {
      "midi": 43,
      "hit": false,
      "t": 71100,
      "d": 390,
      "v": 82
    },
    {
      "midi": 42,
      "hit": false,
      "t": 71100,
      "d": 125,
      "v": 70
    },
    {
      "midi": 62,
      "hit": false,
      "t": 71115,
      "d": 230,
      "v": 68
    },
    {
      "midi": 37,
      "hit": false,
      "t": 71400,
      "d": 125,
      "v": 100
    },
    {
      "midi": 42,
      "hit": false,
      "t": 71400,
      "d": 125,
      "v": 80
    },
    {
      "midi": 74,
      "hit": false,
      "t": 71400,
      "d": 300,
      "v": 98
    },
    {
      "midi": 50,
      "hit": false,
      "t": 71400,
      "d": 300,
      "v": 98
    },
    {
      "midi": 58,
      "hit": false,
      "t": 71415,
      "d": 350,
      "v": 64
    },
    {
      "midi": 43,
      "hit": false,
      "t": 71700,
      "d": 130,
      "v": 87
    },
    {
      "midi": 42,
      "hit": false,
      "t": 71700,
      "d": 125,
      "v": 70
    },
    {
      "midi": 35,
      "hit": false,
      "t": 71700,
      "d": 125,
      "v": 80
    },
    {
      "midi": 79,
      "hit": false,
      "t": 71700,
      "d": 300,
      "v": 98
    },
    {
      "midi": 55,
      "hit": false,
      "t": 71700,
      "d": 300,
      "v": 98
    },
    {
      "midi": 55,
      "hit": false,
      "t": 71725,
      "d": 260,
      "v": 91
    },
    {
      "midi": 46,
      "hit": false,
      "t": 71850,
      "d": 125,
      "v": 80
    },
    {
      "midi": 42,
      "hit": false,
      "t": 72000,
      "d": 125,
      "v": 90
    },
    {
      "midi": 35,
      "hit": false,
      "t": 72000,
      "d": 125,
      "v": 100
    },
    {
      "midi": 81,
      "hit": false,
      "t": 72000,
      "d": 1200,
      "v": 98
    },
    {
      "midi": 76,
      "hit": false,
      "t": 72000,
      "d": 1200,
      "v": 98
    },
    {
      "midi": 73,
      "hit": false,
      "t": 72000,
      "d": 1200,
      "v": 98
    },
    {
      "midi": 57,
      "hit": false,
      "t": 72000,
      "d": 1200,
      "v": 98
    },
    {
      "midi": 52,
      "hit": false,
      "t": 72000,
      "d": 1200,
      "v": 98
    },
    {
      "midi": 49,
      "hit": false,
      "t": 72000,
      "d": 1200,
      "v": 98
    },
    {
      "midi": 33,
      "hit": false,
      "t": 72005,
      "d": 730,
      "v": 72
    },
    {
      "midi": 57,
      "hit": false,
      "t": 72010,
      "d": 1005,
      "v": 72
    },
    {
      "midi": 64,
      "hit": false,
      "t": 72010,
      "d": 1005,
      "v": 72
    },
    {
      "midi": 42,
      "hit": false,
      "t": 72300,
      "d": 125,
      "v": 70
    },
    {
      "midi": 37,
      "hit": false,
      "t": 72600,
      "d": 125,
      "v": 100
    },
    {
      "midi": 42,
      "hit": false,
      "t": 72600,
      "d": 125,
      "v": 80
    },
    {
      "midi": 42,
      "hit": false,
      "t": 72900,
      "d": 125,
      "v": 70
    },
    {
      "midi": 35,
      "hit": false,
      "t": 72900,
      "d": 125,
      "v": 80
    },
    {
      "midi": 61,
      "hit": false,
      "t": 72915,
      "d": 100,
      "v": 66
    },
    {
      "midi": 33,
      "hit": false,
      "t": 72920,
      "d": 160,
      "v": 74
    },
    {
      "midi": 64,
      "hit": false,
      "t": 73070,
      "d": 130,
      "v": 70
    },
    {
      "midi": 38,
      "hit": false,
      "t": 73200,
      "d": 600,
      "v": 82
    },
    {
      "midi": 42,
      "hit": false,
      "t": 73200,
      "d": 125,
      "v": 90
    },
    {
      "midi": 35,
      "hit": false,
      "t": 73200,
      "d": 125,
      "v": 100
    },
    {
      "midi": 74,
      "hit": false,
      "t": 73200,
      "d": 450,
      "v": 98
    },
    {
      "midi": 50,
      "hit": false,
      "t": 73200,
      "d": 450,
      "v": 98
    },
    {
      "midi": 57,
      "hit": false,
      "t": 73220,
      "d": 580,
      "v": 80
    },
    {
      "midi": 62,
      "hit": false,
      "t": 73220,
      "d": 580,
      "v": 80
    },
    {
      "midi": 66,
      "hit": false,
      "t": 73220,
      "d": 580,
      "v": 80
    },
    {
      "midi": 42,
      "hit": false,
      "t": 73500,
      "d": 125,
      "v": 70
    },
    {
      "midi": 77,
      "hit": false,
      "t": 73650,
      "d": 450,
      "v": 98
    },
    {
      "midi": 53,
      "hit": false,
      "t": 73650,
      "d": 450,
      "v": 98
    },
    {
      "midi": 38,
      "hit": false,
      "t": 73800,
      "d": 600,
      "v": 82
    },
    {
      "midi": 37,
      "hit": false,
      "t": 73800,
      "d": 125,
      "v": 100
    },
    {
      "midi": 42,
      "hit": false,
      "t": 73800,
      "d": 125,
      "v": 80
    },
    {
      "midi": 57,
      "hit": false,
      "t": 73820,
      "d": 580,
      "v": 80
    },
    {
      "midi": 62,
      "hit": false,
      "t": 73820,
      "d": 580,
      "v": 80
    },
    {
      "midi": 65,
      "hit": false,
      "t": 73820,
      "d": 580,
      "v": 80
    },
    {
      "midi": 42,
      "hit": false,
      "t": 74100,
      "d": 125,
      "v": 70
    },
    {
      "midi": 35,
      "hit": false,
      "t": 74100,
      "d": 125,
      "v": 80
    },
    {
      "midi": 81,
      "hit": false,
      "t": 74100,
      "d": 300,
      "v": 98
    },
    {
      "midi": 57,
      "hit": false,
      "t": 74100,
      "d": 300,
      "v": 98
    },
    {
      "midi": 43,
      "hit": false,
      "t": 74400,
      "d": 705,
      "v": 82
    },
    {
      "midi": 42,
      "hit": false,
      "t": 74400,
      "d": 125,
      "v": 90
    },
    {
      "midi": 35,
      "hit": false,
      "t": 74400,
      "d": 125,
      "v": 100
    },
    {
      "midi": 74,
      "hit": false,
      "t": 74400,
      "d": 1025,
      "v": 76
    },
    {
      "midi": 65,
      "hit": false,
      "t": 74400,
      "d": 1025,
      "v": 76
    },
    {
      "midi": 67,
      "hit": false,
      "t": 74400,
      "d": 1025,
      "v": 76
    },
    {
      "midi": 70,
      "hit": false,
      "t": 74400,
      "d": 1025,
      "v": 76
    },
    {
      "midi": 86,
      "hit": false,
      "t": 74400,
      "d": 450,
      "v": 98
    },
    {
      "midi": 82,
      "hit": false,
      "t": 74400,
      "d": 450,
      "v": 98
    },
    {
      "midi": 62,
      "hit": false,
      "t": 74400,
      "d": 450,
      "v": 98
    },
    {
      "midi": 58,
      "hit": false,
      "t": 74400,
      "d": 450,
      "v": 98
    },
    {
      "midi": 42,
      "hit": false,
      "t": 74700,
      "d": 125,
      "v": 70
    },
    {
      "midi": 55,
      "hit": false,
      "t": 74700,
      "d": 605,
      "v": 68
    },
    {
      "midi": 86,
      "hit": false,
      "t": 74850,
      "d": 450,
      "v": 98
    },
    {
      "midi": 82,
      "hit": false,
      "t": 74850,
      "d": 450,
      "v": 98
    },
    {
      "midi": 62,
      "hit": false,
      "t": 74850,
      "d": 450,
      "v": 98
    },
    {
      "midi": 58,
      "hit": false,
      "t": 74850,
      "d": 450,
      "v": 98
    },
    {
      "midi": 37,
      "hit": false,
      "t": 75000,
      "d": 125,
      "v": 100
    },
    {
      "midi": 42,
      "hit": false,
      "t": 75000,
      "d": 125,
      "v": 80
    },
    {
      "midi": 58,
      "hit": false,
      "t": 75000,
      "d": 405,
      "v": 85
    },
    {
      "midi": 43,
      "hit": false,
      "t": 75290,
      "d": 170,
      "v": 85
    },
    {
      "midi": 42,
      "hit": false,
      "t": 75300,
      "d": 125,
      "v": 70
    },
    {
      "midi": 35,
      "hit": false,
      "t": 75300,
      "d": 125,
      "v": 80
    },
    {
      "midi": 62,
      "hit": false,
      "t": 75300,
      "d": 170,
      "v": 87
    },
    {
      "midi": 86,
      "hit": false,
      "t": 75300,
      "d": 300,
      "v": 98
    },
    {
      "midi": 82,
      "hit": false,
      "t": 75300,
      "d": 300,
      "v": 98
    },
    {
      "midi": 62,
      "hit": false,
      "t": 75300,
      "d": 300,
      "v": 98
    },
    {
      "midi": 58,
      "hit": false,
      "t": 75300,
      "d": 300,
      "v": 98
    },
    {
      "midi": 36,
      "hit": false,
      "t": 75600,
      "d": 705,
      "v": 82
    },
    {
      "midi": 42,
      "hit": false,
      "t": 75600,
      "d": 125,
      "v": 90
    },
    {
      "midi": 35,
      "hit": false,
      "t": 75600,
      "d": 125,
      "v": 100
    },
    {
      "midi": 67,
      "hit": false,
      "t": 75600,
      "d": 1200,
      "v": 80
    },
    {
      "midi": 58,
      "hit": false,
      "t": 75600,
      "d": 1200,
      "v": 80
    },
    {
      "midi": 60,
      "hit": false,
      "t": 75600,
      "d": 1200,
      "v": 80
    },
    {
      "midi": 64,
      "hit": false,
      "t": 75600,
      "d": 1200,
      "v": 80
    },
    {
      "midi": 84,
      "hit": false,
      "t": 75600,
      "d": 600,
      "v": 98
    },
    {
      "midi": 60,
      "hit": false,
      "t": 75600,
      "d": 600,
      "v": 98
    },
    {
      "midi": 42,
      "hit": false,
      "t": 75900,
      "d": 125,
      "v": 70
    },
    {
      "midi": 37,
      "hit": false,
      "t": 76200,
      "d": 125,
      "v": 100
    },
    {
      "midi": 42,
      "hit": false,
      "t": 76200,
      "d": 125,
      "v": 80
    },
    {
      "midi": 81,
      "hit": false,
      "t": 76200,
      "d": 300,
      "v": 98
    },
    {
      "midi": 57,
      "hit": false,
      "t": 76200,
      "d": 300,
      "v": 98
    },
    {
      "midi": 36,
      "hit": false,
      "t": 76490,
      "d": 170,
      "v": 85
    },
    {
      "midi": 42,
      "hit": false,
      "t": 76500,
      "d": 125,
      "v": 70
    },
    {
      "midi": 35,
      "hit": false,
      "t": 76500,
      "d": 125,
      "v": 80
    },
    {
      "midi": 79,
      "hit": false,
      "t": 76500,
      "d": 150,
      "v": 98
    },
    {
      "midi": 55,
      "hit": false,
      "t": 76500,
      "d": 150,
      "v": 98
    },
    {
      "midi": 46,
      "hit": false,
      "t": 76650,
      "d": 125,
      "v": 80
    },
    {
      "midi": 81,
      "hit": false,
      "t": 76650,
      "d": 150,
      "v": 98
    },
    {
      "midi": 57,
      "hit": false,
      "t": 76650,
      "d": 150,
      "v": 98
    },
    {
      "midi": 42,
      "hit": false,
      "t": 76800,
      "d": 125,
      "v": 90
    },
    {
      "midi": 35,
      "hit": false,
      "t": 76800,
      "d": 125,
      "v": 100
    },
    {
      "midi": 81,
      "hit": false,
      "t": 76800,
      "d": 1800,
      "v": 98
    },
    {
      "midi": 57,
      "hit": false,
      "t": 76800,
      "d": 1800,
      "v": 98
    },
    {
      "midi": 69,
      "hit": false,
      "t": 76815,
      "d": 1730,
      "v": 87
    },
    {
      "midi": 60,
      "hit": false,
      "t": 76815,
      "d": 1730,
      "v": 87
    },
    {
      "midi": 67,
      "hit": false,
      "t": 76815,
      "d": 1730,
      "v": 87
    },
    {
      "midi": 33,
      "hit": false,
      "t": 76830,
      "d": 660,
      "v": 63
    },
    {
      "midi": 42,
      "hit": false,
      "t": 77100,
      "d": 125,
      "v": 70
    },
    {
      "midi": 37,
      "hit": false,
      "t": 77400,
      "d": 125,
      "v": 100
    },
    {
      "midi": 42,
      "hit": false,
      "t": 77400,
      "d": 125,
      "v": 80
    },
    {
      "midi": 42,
      "hit": false,
      "t": 77700,
      "d": 125,
      "v": 70
    },
    {
      "midi": 35,
      "hit": false,
      "t": 77700,
      "d": 125,
      "v": 80
    },
    {
      "midi": 33,
      "hit": false,
      "t": 77715,
      "d": 80,
      "v": 64
    },
    {
      "midi": 42,
      "hit": false,
      "t": 78000,
      "d": 125,
      "v": 90
    },
    {
      "midi": 35,
      "hit": false,
      "t": 78000,
      "d": 125,
      "v": 100
    },
    {
      "midi": 33,
      "hit": false,
      "t": 78020,
      "d": 800,
      "v": 78
    },
    {
      "midi": 42,
      "hit": false,
      "t": 78300,
      "d": 125,
      "v": 70
    },
    {
      "midi": 64,
      "hit": false,
      "t": 78315,
      "d": 230,
      "v": 68
    },
    {
      "midi": 37,
      "hit": false,
      "t": 78600,
      "d": 125,
      "v": 100
    },
    {
      "midi": 42,
      "hit": false,
      "t": 78600,
      "d": 125,
      "v": 80
    },
    {
      "midi": 79,
      "hit": false,
      "t": 78600,
      "d": 300,
      "v": 98
    },
    {
      "midi": 55,
      "hit": false,
      "t": 78600,
      "d": 300,
      "v": 98
    },
    {
      "midi": 60,
      "hit": false,
      "t": 78615,
      "d": 350,
      "v": 64
    },
    {
      "midi": 42,
      "hit": false,
      "t": 78900,
      "d": 125,
      "v": 70
    },
    {
      "midi": 35,
      "hit": false,
      "t": 78900,
      "d": 125,
      "v": 80
    },
    {
      "midi": 81,
      "hit": false,
      "t": 78900,
      "d": 300,
      "v": 98
    },
    {
      "midi": 57,
      "hit": false,
      "t": 78900,
      "d": 300,
      "v": 98
    },
    {
      "midi": 57,
      "hit": false,
      "t": 78925,
      "d": 260,
      "v": 91
    },
    {
      "midi": 33,
      "hit": false,
      "t": 78930,
      "d": 90,
      "v": 87
    },
    {
      "midi": 43,
      "hit": false,
      "t": 79200,
      "d": 705,
      "v": 82
    },
    {
      "midi": 42,
      "hit": false,
      "t": 79200,
      "d": 125,
      "v": 90
    },
    {
      "midi": 35,
      "hit": false,
      "t": 79200,
      "d": 125,
      "v": 100
    },
    {
      "midi": 67,
      "hit": false,
      "t": 79200,
      "d": 390,
      "v": 68
    },
    {
      "midi": 58,
      "hit": false,
      "t": 79200,
      "d": 390,
      "v": 68
    },
    {
      "midi": 62,
      "hit": false,
      "t": 79200,
      "d": 390,
      "v": 68
    },
    {
      "midi": 65,
      "hit": false,
      "t": 79200,
      "d": 390,
      "v": 68
    },
    {
      "midi": 82,
      "hit": false,
      "t": 79200,
      "d": 450,
      "v": 98
    },
    {
      "midi": 58,
      "hit": false,
      "t": 79200,
      "d": 450,
      "v": 98
    },
    {
      "midi": 42,
      "hit": false,
      "t": 79500,
      "d": 125,
      "v": 70
    },
    {
      "midi": 43,
      "hit": false,
      "t": 79500,
      "d": 585,
      "v": 78
    },
    {
      "midi": 84,
      "hit": false,
      "t": 79650,
      "d": 450,
      "v": 98
    },
    {
      "midi": 60,
      "hit": false,
      "t": 79650,
      "d": 450,
      "v": 98
    },
    {
      "midi": 37,
      "hit": false,
      "t": 79800,
      "d": 125,
      "v": 100
    },
    {
      "midi": 42,
      "hit": false,
      "t": 79800,
      "d": 125,
      "v": 80
    },
    {
      "midi": 67,
      "hit": false,
      "t": 79800,
      "d": 335,
      "v": 80
    },
    {
      "midi": 58,
      "hit": false,
      "t": 79800,
      "d": 335,
      "v": 80
    },
    {
      "midi": 62,
      "hit": false,
      "t": 79800,
      "d": 335,
      "v": 80
    },
    {
      "midi": 65,
      "hit": false,
      "t": 79800,
      "d": 335,
      "v": 80
    },
    {
      "midi": 43,
      "hit": false,
      "t": 80090,
      "d": 170,
      "v": 85
    },
    {
      "midi": 42,
      "hit": false,
      "t": 80100,
      "d": 125,
      "v": 70
    },
    {
      "midi": 35,
      "hit": false,
      "t": 80100,
      "d": 125,
      "v": 80
    },
    {
      "midi": 82,
      "hit": false,
      "t": 80100,
      "d": 300,
      "v": 98
    },
    {
      "midi": 58,
      "hit": false,
      "t": 80100,
      "d": 300,
      "v": 98
    },
    {
      "midi": 33,
      "hit": false,
      "t": 80400,
      "d": 705,
      "v": 82
    },
    {
      "midi": 42,
      "hit": false,
      "t": 80400,
      "d": 125,
      "v": 90
    },
    {
      "midi": 35,
      "hit": false,
      "t": 80400,
      "d": 125,
      "v": 100
    },
    {
      "midi": 69,
      "hit": false,
      "t": 80400,
      "d": 390,
      "v": 68
    },
    {
      "midi": 61,
      "hit": false,
      "t": 80400,
      "d": 390,
      "v": 68
    },
    {
      "midi": 64,
      "hit": false,
      "t": 80400,
      "d": 390,
      "v": 68
    },
    {
      "midi": 67,
      "hit": false,
      "t": 80400,
      "d": 390,
      "v": 68
    },
    {
      "midi": 81,
      "hit": false,
      "t": 80400,
      "d": 450,
      "v": 98
    },
    {
      "midi": 73,
      "hit": false,
      "t": 80400,
      "d": 450,
      "v": 98
    },
    {
      "midi": 57,
      "hit": false,
      "t": 80400,
      "d": 450,
      "v": 98
    },
    {
      "midi": 49,
      "hit": false,
      "t": 80400,
      "d": 450,
      "v": 98
    },
    {
      "midi": 42,
      "hit": false,
      "t": 80700,
      "d": 125,
      "v": 70
    },
    {
      "midi": 45,
      "hit": false,
      "t": 80700,
      "d": 585,
      "v": 78
    },
    {
      "midi": 79,
      "hit": false,
      "t": 80850,
      "d": 450,
      "v": 98
    },
    {
      "midi": 55,
      "hit": false,
      "t": 80850,
      "d": 450,
      "v": 98
    },
    {
      "midi": 37,
      "hit": false,
      "t": 81000,
      "d": 125,
      "v": 100
    },
    {
      "midi": 42,
      "hit": false,
      "t": 81000,
      "d": 125,
      "v": 80
    },
    {
      "midi": 69,
      "hit": false,
      "t": 81000,
      "d": 335,
      "v": 80
    },
    {
      "midi": 61,
      "hit": false,
      "t": 81000,
      "d": 335,
      "v": 80
    },
    {
      "midi": 64,
      "hit": false,
      "t": 81000,
      "d": 335,
      "v": 80
    },
    {
      "midi": 67,
      "hit": false,
      "t": 81000,
      "d": 335,
      "v": 80
    },
    {
      "midi": 33,
      "hit": false,
      "t": 81290,
      "d": 170,
      "v": 85
    },
    {
      "midi": 42,
      "hit": false,
      "t": 81300,
      "d": 125,
      "v": 70
    },
    {
      "midi": 35,
      "hit": false,
      "t": 81300,
      "d": 125,
      "v": 80
    },
    {
      "midi": 84,
      "hit": false,
      "t": 81300,
      "d": 300,
      "v": 98
    },
    {
      "midi": 60,
      "hit": false,
      "t": 81300,
      "d": 300,
      "v": 98
    },
    {
      "midi": 38,
      "hit": false,
      "t": 81600,
      "d": 705,
      "v": 82
    },
    {
      "midi": 42,
      "hit": false,
      "t": 81600,
      "d": 125,
      "v": 90
    },
    {
      "midi": 35,
      "hit": false,
      "t": 81600,
      "d": 125,
      "v": 100
    },
    {
      "midi": 57,
      "hit": false,
      "t": 81600,
      "d": 1200,
      "v": 80
    },
    {
      "midi": 62,
      "hit": false,
      "t": 81600,
      "d": 1200,
      "v": 80
    },
    {
      "midi": 65,
      "hit": false,
      "t": 81600,
      "d": 1200,
      "v": 80
    },
    {
      "midi": 81,
      "hit": false,
      "t": 81600,
      "d": 600,
      "v": 98
    },
    {
      "midi": 57,
      "hit": false,
      "t": 81600,
      "d": 600,
      "v": 98
    },
    {
      "midi": 42,
      "hit": false,
      "t": 81900,
      "d": 125,
      "v": 70
    },
    {
      "midi": 37,
      "hit": false,
      "t": 82200,
      "d": 125,
      "v": 100
    },
    {
      "midi": 42,
      "hit": false,
      "t": 82200,
      "d": 125,
      "v": 80
    },
    {
      "midi": 38,
      "hit": false,
      "t": 82490,
      "d": 170,
      "v": 85
    },
    {
      "midi": 42,
      "hit": false,
      "t": 82500,
      "d": 125,
      "v": 70
    },
    {
      "midi": 35,
      "hit": false,
      "t": 82500,
      "d": 125,
      "v": 80
    },
    {
      "midi": 42,
      "hit": false,
      "t": 82800,
      "d": 125,
      "v": 90
    },
    {
      "midi": 35,
      "hit": false,
      "t": 82800,
      "d": 125,
      "v": 100
    },
    {
      "midi": 55,
      "hit": false,
      "t": 82800,
      "d": 1200,
      "v": 80
    },
    {
      "midi": 59,
      "hit": false,
      "t": 82800,
      "d": 1200,
      "v": 80
    },
    {
      "midi": 62,
      "hit": false,
      "t": 82800,
      "d": 1200,
      "v": 80
    },
    {
      "midi": 43,
      "hit": false,
      "t": 82805,
      "d": 730,
      "v": 72
    },
    {
      "midi": 42,
      "hit": false,
      "t": 83100,
      "d": 125,
      "v": 70
    },
    {
      "midi": 37,
      "hit": false,
      "t": 83400,
      "d": 125,
      "v": 100
    },
    {
      "midi": 42,
      "hit": false,
      "t": 83400,
      "d": 125,
      "v": 80
    },
    {
      "midi": 42,
      "hit": false,
      "t": 83700,
      "d": 125,
      "v": 70
    },
    {
      "midi": 35,
      "hit": false,
      "t": 83700,
      "d": 125,
      "v": 80
    },
    {
      "midi": 43,
      "hit": false,
      "t": 83720,
      "d": 160,
      "v": 74
    },
    {
      "midi": 43,
      "hit": false,
      "t": 84000,
      "d": 705,
      "v": 82
    },
    {
      "midi": 42,
      "hit": false,
      "t": 84000,
      "d": 125,
      "v": 90
    },
    {
      "midi": 35,
      "hit": false,
      "t": 84000,
      "d": 125,
      "v": 100
    },
    {
      "midi": 67,
      "hit": false,
      "t": 84000,
      "d": 1025,
      "v": 76
    },
    {
      "midi": 65,
      "hit": false,
      "t": 84000,
      "d": 1025,
      "v": 76
    },
    {
      "midi": 81,
      "hit": false,
      "t": 84000,
      "d": 450,
      "v": 98
    },
    {
      "midi": 70,
      "hit": false,
      "t": 84000,
      "d": 450,
      "v": 98
    },
    {
      "midi": 57,
      "hit": false,
      "t": 84000,
      "d": 450,
      "v": 98
    },
    {
      "midi": 46,
      "hit": false,
      "t": 84000,
      "d": 450,
      "v": 98
    },
    {
      "midi": 42,
      "hit": false,
      "t": 84300,
      "d": 125,
      "v": 70
    },
    {
      "midi": 55,
      "hit": false,
      "t": 84300,
      "d": 605,
      "v": 68
    },
    {
      "midi": 79,
      "hit": false,
      "t": 84450,
      "d": 450,
      "v": 98
    },
    {
      "midi": 55,
      "hit": false,
      "t": 84450,
      "d": 450,
      "v": 98
    },
    {
      "midi": 37,
      "hit": false,
      "t": 84600,
      "d": 125,
      "v": 100
    },
    {
      "midi": 42,
      "hit": false,
      "t": 84600,
      "d": 125,
      "v": 80
    },
    {
      "midi": 58,
      "hit": false,
      "t": 84600,
      "d": 405,
      "v": 85
    },
    {
      "midi": 43,
      "hit": false,
      "t": 84890,
      "d": 170,
      "v": 85
    },
    {
      "midi": 42,
      "hit": false,
      "t": 84900,
      "d": 125,
      "v": 70
    },
    {
      "midi": 35,
      "hit": false,
      "t": 84900,
      "d": 125,
      "v": 80
    },
    {
      "midi": 62,
      "hit": false,
      "t": 84900,
      "d": 125,
      "v": 87
    },
    {
      "midi": 77,
      "hit": false,
      "t": 84900,
      "d": 300,
      "v": 98
    },
    {
      "midi": 53,
      "hit": false,
      "t": 84900,
      "d": 300,
      "v": 98
    },
    {
      "midi": 33,
      "hit": false,
      "t": 85200,
      "d": 705,
      "v": 82
    },
    {
      "midi": 42,
      "hit": false,
      "t": 85200,
      "d": 125,
      "v": 90
    },
    {
      "midi": 35,
      "hit": false,
      "t": 85200,
      "d": 125,
      "v": 100
    },
    {
      "midi": 69,
      "hit": false,
      "t": 85200,
      "d": 1025,
      "v": 76
    },
    {
      "midi": 67,
      "hit": false,
      "t": 85200,
      "d": 1025,
      "v": 76
    },
    {
      "midi": 79,
      "hit": false,
      "t": 85200,
      "d": 450,
      "v": 98
    },
    {
      "midi": 72,
      "hit": false,
      "t": 85200,
      "d": 450,
      "v": 98
    },
    {
      "midi": 55,
      "hit": false,
      "t": 85200,
      "d": 450,
      "v": 98
    },
    {
      "midi": 48,
      "hit": false,
      "t": 85200,
      "d": 450,
      "v": 98
    },
    {
      "midi": 42,
      "hit": false,
      "t": 85500,
      "d": 125,
      "v": 70
    },
    {
      "midi": 57,
      "hit": false,
      "t": 85500,
      "d": 605,
      "v": 68
    },
    {
      "midi": 77,
      "hit": false,
      "t": 85650,
      "d": 450,
      "v": 98
    },
    {
      "midi": 53,
      "hit": false,
      "t": 85650,
      "d": 450,
      "v": 98
    },
    {
      "midi": 37,
      "hit": false,
      "t": 85800,
      "d": 125,
      "v": 100
    },
    {
      "midi": 42,
      "hit": false,
      "t": 85800,
      "d": 125,
      "v": 80
    },
    {
      "midi": 60,
      "hit": false,
      "t": 85800,
      "d": 405,
      "v": 85
    },
    {
      "midi": 33,
      "hit": false,
      "t": 86090,
      "d": 170,
      "v": 85
    },
    {
      "midi": 42,
      "hit": false,
      "t": 86100,
      "d": 125,
      "v": 70
    },
    {
      "midi": 35,
      "hit": false,
      "t": 86100,
      "d": 125,
      "v": 80
    },
    {
      "midi": 64,
      "hit": false,
      "t": 86100,
      "d": 125,
      "v": 87
    },
    {
      "midi": 76,
      "hit": false,
      "t": 86100,
      "d": 300,
      "v": 98
    },
    {
      "midi": 52,
      "hit": false,
      "t": 86100,
      "d": 300,
      "v": 98
    },
    {
      "midi": 42,
      "hit": false,
      "t": 86400,
      "d": 125,
      "v": 90
    },
    {
      "midi": 35,
      "hit": false,
      "t": 86400,
      "d": 125,
      "v": 100
    },
    {
      "midi": 74,
      "hit": false,
      "t": 86400,
      "d": 600,
      "v": 98
    },
    {
      "midi": 70,
      "hit": false,
      "t": 86400,
      "d": 600,
      "v": 98
    },
    {
      "midi": 50,
      "hit": false,
      "t": 86400,
      "d": 600,
      "v": 98
    },
    {
      "midi": 46,
      "hit": false,
      "t": 86400,
      "d": 600,
      "v": 98
    },
    {
      "midi": 70,
      "hit": false,
      "t": 86415,
      "d": 895,
      "v": 82
    },
    {
      "midi": 61,
      "hit": false,
      "t": 86415,
      "d": 895,
      "v": 82
    },
    {
      "midi": 65,
      "hit": false,
      "t": 86415,
      "d": 895,
      "v": 82
    },
    {
      "midi": 68,
      "hit": false,
      "t": 86415,
      "d": 895,
      "v": 82
    },
    {
      "midi": 34,
      "hit": false,
      "t": 86430,
      "d": 660,
      "v": 63
    },
    {
      "midi": 42,
      "hit": false,
      "t": 86700,
      "d": 125,
      "v": 70
    },
    {
      "midi": 37,
      "hit": false,
      "t": 87000,
      "d": 125,
      "v": 100
    },
    {
      "midi": 42,
      "hit": false,
      "t": 87000,
      "d": 125,
      "v": 80
    },
    {
      "midi": 46,
      "hit": false,
      "t": 87290,
      "d": 1460,
      "v": 63
    },
    {
      "midi": 42,
      "hit": false,
      "t": 87300,
      "d": 125,
      "v": 70
    },
    {
      "midi": 35,
      "hit": false,
      "t": 87300,
      "d": 125,
      "v": 80
    },
    {
      "midi": 34,
      "hit": false,
      "t": 87315,
      "d": 80,
      "v": 64
    },
    {
      "midi": 42,
      "hit": false,
      "t": 87600,
      "d": 125,
      "v": 90
    },
    {
      "midi": 35,
      "hit": false,
      "t": 87600,
      "d": 125,
      "v": 100
    },
    {
      "midi": 58,
      "hit": false,
      "t": 87610,
      "d": 1150,
      "v": 66
    },
    {
      "midi": 34,
      "hit": false,
      "t": 87620,
      "d": 800,
      "v": 78
    },
    {
      "midi": 42,
      "hit": false,
      "t": 87900,
      "d": 125,
      "v": 70
    },
    {
      "midi": 61,
      "hit": false,
      "t": 87900,
      "d": 840,
      "v": 68
    },
    {
      "midi": 37,
      "hit": false,
      "t": 88200,
      "d": 125,
      "v": 100
    },
    {
      "midi": 42,
      "hit": false,
      "t": 88200,
      "d": 125,
      "v": 80
    },
    {
      "midi": 65,
      "hit": false,
      "t": 88220,
      "d": 510,
      "v": 82
    },
    {
      "midi": 68,
      "hit": false,
      "t": 88490,
      "d": 240,
      "v": 59
    },
    {
      "midi": 42,
      "hit": false,
      "t": 88500,
      "d": 125,
      "v": 70
    },
    {
      "midi": 35,
      "hit": false,
      "t": 88500,
      "d": 125,
      "v": 80
    },
    {
      "midi": 79,
      "hit": false,
      "t": 88500,
      "d": 300,
      "v": 98
    },
    {
      "midi": 55,
      "hit": false,
      "t": 88500,
      "d": 300,
      "v": 98
    },
    {
      "midi": 34,
      "hit": false,
      "t": 88530,
      "d": 90,
      "v": 87
    },
    {
      "midi": 43,
      "hit": false,
      "t": 88800,
      "d": 705,
      "v": 82
    },
    {
      "midi": 42,
      "hit": false,
      "t": 88800,
      "d": 125,
      "v": 90
    },
    {
      "midi": 35,
      "hit": false,
      "t": 88800,
      "d": 125,
      "v": 100
    },
    {
      "midi": 67,
      "hit": false,
      "t": 88800,
      "d": 1025,
      "v": 76
    },
    {
      "midi": 65,
      "hit": false,
      "t": 88800,
      "d": 1025,
      "v": 76
    },
    {
      "midi": 81,
      "hit": false,
      "t": 88800,
      "d": 450,
      "v": 98
    },
    {
      "midi": 70,
      "hit": false,
      "t": 88800,
      "d": 450,
      "v": 98
    },
    {
      "midi": 57,
      "hit": false,
      "t": 88800,
      "d": 450,
      "v": 98
    },
    {
      "midi": 46,
      "hit": false,
      "t": 88800,
      "d": 450,
      "v": 98
    },
    {
      "midi": 42,
      "hit": false,
      "t": 89100,
      "d": 125,
      "v": 70
    },
    {
      "midi": 55,
      "hit": false,
      "t": 89100,
      "d": 605,
      "v": 68
    },
    {
      "midi": 79,
      "hit": false,
      "t": 89250,
      "d": 450,
      "v": 98
    },
    {
      "midi": 55,
      "hit": false,
      "t": 89250,
      "d": 450,
      "v": 98
    },
    {
      "midi": 37,
      "hit": false,
      "t": 89400,
      "d": 125,
      "v": 100
    },
    {
      "midi": 42,
      "hit": false,
      "t": 89400,
      "d": 125,
      "v": 80
    },
    {
      "midi": 58,
      "hit": false,
      "t": 89400,
      "d": 405,
      "v": 85
    },
    {
      "midi": 43,
      "hit": false,
      "t": 89690,
      "d": 170,
      "v": 85
    },
    {
      "midi": 42,
      "hit": false,
      "t": 89700,
      "d": 125,
      "v": 70
    },
    {
      "midi": 35,
      "hit": false,
      "t": 89700,
      "d": 125,
      "v": 80
    },
    {
      "midi": 62,
      "hit": false,
      "t": 89700,
      "d": 125,
      "v": 87
    },
    {
      "midi": 77,
      "hit": false,
      "t": 89700,
      "d": 300,
      "v": 98
    },
    {
      "midi": 53,
      "hit": false,
      "t": 89700,
      "d": 300,
      "v": 98
    },
    {
      "midi": 42,
      "hit": false,
      "t": 90000,
      "d": 125,
      "v": 90
    },
    {
      "midi": 35,
      "hit": false,
      "t": 90000,
      "d": 125,
      "v": 100
    },
    {
      "midi": 69,
      "hit": false,
      "t": 90000,
      "d": 390,
      "v": 68
    },
    {
      "midi": 60,
      "hit": false,
      "t": 90000,
      "d": 390,
      "v": 68
    },
    {
      "midi": 64,
      "hit": false,
      "t": 90000,
      "d": 390,
      "v": 68
    },
    {
      "midi": 67,
      "hit": false,
      "t": 90000,
      "d": 390,
      "v": 68
    },
    {
      "midi": 79,
      "hit": false,
      "t": 90000,
      "d": 450,
      "v": 98
    },
    {
      "midi": 72,
      "hit": false,
      "t": 90000,
      "d": 450,
      "v": 98
    },
    {
      "midi": 55,
      "hit": false,
      "t": 90000,
      "d": 450,
      "v": 98
    },
    {
      "midi": 48,
      "hit": false,
      "t": 90000,
      "d": 450,
      "v": 98
    },
    {
      "midi": 33,
      "hit": false,
      "t": 90005,
      "d": 730,
      "v": 72
    },
    {
      "midi": 42,
      "hit": false,
      "t": 90300,
      "d": 125,
      "v": 70
    },
    {
      "midi": 35,
      "hit": false,
      "t": 90300,
      "d": 125,
      "v": 80
    },
    {
      "midi": 45,
      "hit": false,
      "t": 90300,
      "d": 585,
      "v": 78
    },
    {
      "midi": 81,
      "hit": false,
      "t": 90450,
      "d": 450,
      "v": 98
    },
    {
      "midi": 57,
      "hit": false,
      "t": 90450,
      "d": 450,
      "v": 98
    },
    {
      "midi": 37,
      "hit": false,
      "t": 90600,
      "d": 125,
      "v": 100
    },
    {
      "midi": 42,
      "hit": false,
      "t": 90600,
      "d": 125,
      "v": 80
    },
    {
      "midi": 69,
      "hit": false,
      "t": 90600,
      "d": 335,
      "v": 80
    },
    {
      "midi": 60,
      "hit": false,
      "t": 90600,
      "d": 335,
      "v": 80
    },
    {
      "midi": 64,
      "hit": false,
      "t": 90600,
      "d": 335,
      "v": 80
    },
    {
      "midi": 67,
      "hit": false,
      "t": 90600,
      "d": 335,
      "v": 80
    },
    {
      "midi": 42,
      "hit": false,
      "t": 90900,
      "d": 125,
      "v": 70
    },
    {
      "midi": 35,
      "hit": false,
      "t": 90900,
      "d": 125,
      "v": 80
    },
    {
      "midi": 79,
      "hit": false,
      "t": 90900,
      "d": 300,
      "v": 98
    },
    {
      "midi": 55,
      "hit": false,
      "t": 90900,
      "d": 300,
      "v": 98
    },
    {
      "midi": 33,
      "hit": false,
      "t": 90920,
      "d": 160,
      "v": 74
    },
    {
      "midi": 46,
      "hit": false,
      "t": 91050,
      "d": 125,
      "v": 80
    },
    {
      "midi": 34,
      "hit": false,
      "t": 91200,
      "d": 705,
      "v": 82
    },
    {
      "midi": 42,
      "hit": false,
      "t": 91200,
      "d": 125,
      "v": 90
    },
    {
      "midi": 35,
      "hit": false,
      "t": 91200,
      "d": 125,
      "v": 100
    },
    {
      "midi": 70,
      "hit": false,
      "t": 91200,
      "d": 390,
      "v": 68
    },
    {
      "midi": 61,
      "hit": false,
      "t": 91200,
      "d": 390,
      "v": 68
    },
    {
      "midi": 65,
      "hit": false,
      "t": 91200,
      "d": 390,
      "v": 68
    },
    {
      "midi": 68,
      "hit": false,
      "t": 91200,
      "d": 390,
      "v": 68
    },
    {
      "midi": 77,
      "hit": false,
      "t": 91200,
      "d": 600,
      "v": 98
    },
    {
      "midi": 74,
      "hit": false,
      "t": 91200,
      "d": 600,
      "v": 98
    },
    {
      "midi": 53,
      "hit": false,
      "t": 91200,
      "d": 600,
      "v": 98
    },
    {
      "midi": 50,
      "hit": false,
      "t": 91200,
      "d": 600,
      "v": 98
    },
    {
      "midi": 42,
      "hit": false,
      "t": 91500,
      "d": 125,
      "v": 70
    },
    {
      "midi": 46,
      "hit": false,
      "t": 91500,
      "d": 585,
      "v": 78
    },
    {
      "midi": 37,
      "hit": false,
      "t": 91800,
      "d": 125,
      "v": 100
    },
    {
      "midi": 42,
      "hit": false,
      "t": 91800,
      "d": 125,
      "v": 80
    },
    {
      "midi": 70,
      "hit": false,
      "t": 91800,
      "d": 335,
      "v": 80
    },
    {
      "midi": 61,
      "hit": false,
      "t": 91800,
      "d": 335,
      "v": 80
    },
    {
      "midi": 65,
      "hit": false,
      "t": 91800,
      "d": 335,
      "v": 80
    },
    {
      "midi": 68,
      "hit": false,
      "t": 91800,
      "d": 335,
      "v": 80
    },
    {
      "midi": 34,
      "hit": false,
      "t": 92090,
      "d": 170,
      "v": 85
    },
    {
      "midi": 42,
      "hit": false,
      "t": 92100,
      "d": 125,
      "v": 70
    },
    {
      "midi": 35,
      "hit": false,
      "t": 92100,
      "d": 125,
      "v": 80
    },
    {
      "midi": 42,
      "hit": false,
      "t": 92400,
      "d": 125,
      "v": 90
    },
    {
      "midi": 35,
      "hit": false,
      "t": 92400,
      "d": 125,
      "v": 100
    },
    {
      "midi": 69,
      "hit": false,
      "t": 92400,
      "d": 1025,
      "v": 76
    },
    {
      "midi": 67,
      "hit": false,
      "t": 92400,
      "d": 1025,
      "v": 76
    },
    {
      "midi": 76,
      "hit": false,
      "t": 92400,
      "d": 450,
      "v": 98
    },
    {
      "midi": 72,
      "hit": false,
      "t": 92400,
      "d": 450,
      "v": 98
    },
    {
      "midi": 52,
      "hit": false,
      "t": 92400,
      "d": 450,
      "v": 98
    },
    {
      "midi": 48,
      "hit": false,
      "t": 92400,
      "d": 450,
      "v": 98
    },
    {
      "midi": 33,
      "hit": false,
      "t": 92405,
      "d": 730,
      "v": 72
    },
    {
      "midi": 42,
      "hit": false,
      "t": 92700,
      "d": 125,
      "v": 70
    },
    {
      "midi": 57,
      "hit": false,
      "t": 92700,
      "d": 605,
      "v": 68
    },
    {
      "midi": 77,
      "hit": false,
      "t": 92850,
      "d": 450,
      "v": 98
    },
    {
      "midi": 53,
      "hit": false,
      "t": 92850,
      "d": 450,
      "v": 98
    },
    {
      "midi": 37,
      "hit": false,
      "t": 93000,
      "d": 125,
      "v": 100
    },
    {
      "midi": 42,
      "hit": false,
      "t": 93000,
      "d": 125,
      "v": 80
    },
    {
      "midi": 60,
      "hit": false,
      "t": 93000,
      "d": 405,
      "v": 85
    },
    {
      "midi": 42,
      "hit": false,
      "t": 93300,
      "d": 125,
      "v": 70
    },
    {
      "midi": 35,
      "hit": false,
      "t": 93300,
      "d": 125,
      "v": 80
    },
    {
      "midi": 64,
      "hit": false,
      "t": 93300,
      "d": 125,
      "v": 87
    },
    {
      "midi": 76,
      "hit": false,
      "t": 93300,
      "d": 300,
      "v": 98
    },
    {
      "midi": 52,
      "hit": false,
      "t": 93300,
      "d": 300,
      "v": 98
    },
    {
      "midi": 33,
      "hit": false,
      "t": 93320,
      "d": 160,
      "v": 74
    },
    {
      "midi": 43,
      "hit": false,
      "t": 93600,
      "d": 705,
      "v": 82
    },
    {
      "midi": 42,
      "hit": false,
      "t": 93600,
      "d": 125,
      "v": 90
    },
    {
      "midi": 35,
      "hit": false,
      "t": 93600,
      "d": 125,
      "v": 100
    },
    {
      "midi": 74,
      "hit": false,
      "t": 93600,
      "d": 600,
      "v": 98
    },
    {
      "midi": 70,
      "hit": false,
      "t": 93600,
      "d": 600,
      "v": 98
    },
    {
      "midi": 50,
      "hit": false,
      "t": 93600,
      "d": 600,
      "v": 98
    },
    {
      "midi": 46,
      "hit": false,
      "t": 93600,
      "d": 600,
      "v": 98
    },
    {
      "midi": 42,
      "hit": false,
      "t": 93900,
      "d": 125,
      "v": 70
    },
    {
      "midi": 58,
      "hit": false,
      "t": 93900,
      "d": 605,
      "v": 68
    },
    {
      "midi": 37,
      "hit": false,
      "t": 94200,
      "d": 125,
      "v": 100
    },
    {
      "midi": 42,
      "hit": false,
      "t": 94200,
      "d": 125,
      "v": 80
    },
    {
      "midi": 62,
      "hit": false,
      "t": 94200,
      "d": 405,
      "v": 85
    },
    {
      "midi": 43,
      "hit": false,
      "t": 94490,
      "d": 170,
      "v": 85
    },
    {
      "midi": 42,
      "hit": false,
      "t": 94500,
      "d": 125,
      "v": 70
    },
    {
      "midi": 35,
      "hit": false,
      "t": 94500,
      "d": 125,
      "v": 80
    },
    {
      "midi": 65,
      "hit": false,
      "t": 94500,
      "d": 125,
      "v": 87
    },
    {
      "midi": 42,
      "hit": false,
      "t": 94800,
      "d": 125,
      "v": 90
    },
    {
      "midi": 35,
      "hit": false,
      "t": 94800,
      "d": 125,
      "v": 100
    },
    {
      "midi": 69,
      "hit": false,
      "t": 94800,
      "d": 1200,
      "v": 80
    },
    {
      "midi": 61,
      "hit": false,
      "t": 94800,
      "d": 1200,
      "v": 80
    },
    {
      "midi": 64,
      "hit": false,
      "t": 94800,
      "d": 1200,
      "v": 80
    },
    {
      "midi": 67,
      "hit": false,
      "t": 94800,
      "d": 1200,
      "v": 80
    },
    {
      "midi": 73,
      "hit": false,
      "t": 94800,
      "d": 1200,
      "v": 98
    },
    {
      "midi": 69,
      "hit": false,
      "t": 94800,
      "d": 1200,
      "v": 98
    },
    {
      "midi": 49,
      "hit": false,
      "t": 94800,
      "d": 1200,
      "v": 98
    },
    {
      "midi": 45,
      "hit": false,
      "t": 94800,
      "d": 1200,
      "v": 98
    },
    {
      "midi": 33,
      "hit": false,
      "t": 94805,
      "d": 730,
      "v": 72
    },
    {
      "midi": 42,
      "hit": false,
      "t": 95100,
      "d": 125,
      "v": 70
    },
    {
      "midi": 37,
      "hit": false,
      "t": 95400,
      "d": 125,
      "v": 100
    },
    {
      "midi": 42,
      "hit": false,
      "t": 95400,
      "d": 125,
      "v": 80
    },
    {
      "midi": 42,
      "hit": false,
      "t": 95700,
      "d": 125,
      "v": 70
    },
    {
      "midi": 35,
      "hit": false,
      "t": 95700,
      "d": 125,
      "v": 80
    },
    {
      "midi": 33,
      "hit": false,
      "t": 95720,
      "d": 160,
      "v": 74
    },
    {
      "midi": 42,
      "hit": false,
      "t": 96000,
      "d": 125,
      "v": 90
    },
    {
      "midi": 35,
      "hit": false,
      "t": 96000,
      "d": 125,
      "v": 100
    },
    {
      "midi": 69,
      "hit": false,
      "t": 96000,
      "d": 740,
      "v": 55
    },
    {
      "midi": 65,
      "hit": false,
      "t": 96000,
      "d": 770,
      "v": 58
    },
    {
      "midi": 62,
      "hit": false,
      "t": 96000,
      "d": 805,
      "v": 53
    },
    {
      "midi": 74,
      "hit": false,
      "t": 96000,
      "d": 1800,
      "v": 98
    },
    {
      "midi": 69,
      "hit": false,
      "t": 96000,
      "d": 1800,
      "v": 98
    },
    {
      "midi": 50,
      "hit": false,
      "t": 96000,
      "d": 1800,
      "v": 98
    },
    {
      "midi": 45,
      "hit": false,
      "t": 96000,
      "d": 1800,
      "v": 98
    },
    {
      "midi": 38,
      "hit": false,
      "t": 96025,
      "d": 2080,
      "v": 33
    },
    {
      "midi": 38,
      "hit": false,
      "t": 96030,
      "d": 660,
      "v": 63
    },
    {
      "midi": 42,
      "hit": false,
      "t": 96300,
      "d": 125,
      "v": 70
    },
    {
      "midi": 37,
      "hit": false,
      "t": 96600,
      "d": 125,
      "v": 100
    },
    {
      "midi": 42,
      "hit": false,
      "t": 96600,
      "d": 125,
      "v": 80
    },
    {
      "midi": 42,
      "hit": false,
      "t": 96900,
      "d": 125,
      "v": 70
    },
    {
      "midi": 35,
      "hit": false,
      "t": 96900,
      "d": 125,
      "v": 80
    },
    {
      "midi": 38,
      "hit": false,
      "t": 96915,
      "d": 80,
      "v": 64
    },
    {
      "midi": 69,
      "hit": false,
      "t": 97020,
      "d": 470,
      "v": 58
    },
    {
      "midi": 65,
      "hit": false,
      "t": 97050,
      "d": 445,
      "v": 61
    },
    {
      "midi": 62,
      "hit": false,
      "t": 97105,
      "d": 315,
      "v": 85
    },
    {
      "midi": 42,
      "hit": false,
      "t": 97200,
      "d": 125,
      "v": 90
    },
    {
      "midi": 35,
      "hit": false,
      "t": 97200,
      "d": 125,
      "v": 100
    },
    {
      "midi": 38,
      "hit": false,
      "t": 97220,
      "d": 800,
      "v": 78
    },
    {
      "midi": 62,
      "hit": false,
      "t": 97495,
      "d": 310,
      "v": 91
    },
    {
      "midi": 42,
      "hit": false,
      "t": 97500,
      "d": 125,
      "v": 70
    },
    {
      "midi": 37,
      "hit": false,
      "t": 97800,
      "d": 125,
      "v": 100
    },
    {
      "midi": 42,
      "hit": false,
      "t": 97800,
      "d": 125,
      "v": 80
    },
    {
      "midi": 74,
      "hit": false,
      "t": 97800,
      "d": 300,
      "v": 98
    },
    {
      "midi": 50,
      "hit": false,
      "t": 97800,
      "d": 300,
      "v": 98
    },
    {
      "midi": 65,
      "hit": false,
      "t": 97805,
      "d": 320,
      "v": 70
    },
    {
      "midi": 42,
      "hit": false,
      "t": 98100,
      "d": 125,
      "v": 70
    },
    {
      "midi": 35,
      "hit": false,
      "t": 98100,
      "d": 125,
      "v": 80
    },
    {
      "midi": 76,
      "hit": false,
      "t": 98100,
      "d": 300,
      "v": 98
    },
    {
      "midi": 52,
      "hit": false,
      "t": 98100,
      "d": 300,
      "v": 98
    },
    {
      "midi": 69,
      "hit": false,
      "t": 98115,
      "d": 130,
      "v": 68
    },
    {
      "midi": 38,
      "hit": false,
      "t": 98130,
      "d": 90,
      "v": 87
    },
    {
      "midi": 38,
      "hit": false,
      "t": 98400,
      "d": 855,
      "v": 80
    },
    {
      "midi": 42,
      "hit": false,
      "t": 98400,
      "d": 125,
      "v": 90
    },
    {
      "midi": 35,
      "hit": false,
      "t": 98400,
      "d": 125,
      "v": 100
    },
    {
      "midi": 77,
      "hit": false,
      "t": 98400,
      "d": 300,
      "v": 98
    },
    {
      "midi": 53,
      "hit": false,
      "t": 98400,
      "d": 300,
      "v": 98
    },
    {
      "midi": 57,
      "hit": false,
      "t": 98440,
      "d": 2160,
      "v": 78
    },
    {
      "midi": 62,
      "hit": false,
      "t": 98440,
      "d": 2160,
      "v": 78
    },
    {
      "midi": 65,
      "hit": false,
      "t": 98440,
      "d": 2160,
      "v": 78
    },
    {
      "midi": 42,
      "hit": false,
      "t": 98700,
      "d": 125,
      "v": 70
    },
    {
      "midi": 76,
      "hit": false,
      "t": 98700,
      "d": 150,
      "v": 98
    },
    {
      "midi": 52,
      "hit": false,
      "t": 98700,
      "d": 150,
      "v": 98
    },
    {
      "midi": 77,
      "hit": false,
      "t": 98850,
      "d": 450,
      "v": 98
    },
    {
      "midi": 53,
      "hit": false,
      "t": 98850,
      "d": 450,
      "v": 98
    },
    {
      "midi": 37,
      "hit": false,
      "t": 99000,
      "d": 125,
      "v": 100
    },
    {
      "midi": 42,
      "hit": false,
      "t": 99000,
      "d": 125,
      "v": 80
    },
    {
      "midi": 42,
      "hit": false,
      "t": 99300,
      "d": 125,
      "v": 70
    },
    {
      "midi": 35,
      "hit": false,
      "t": 99300,
      "d": 125,
      "v": 80
    },
    {
      "midi": 76,
      "hit": false,
      "t": 99300,
      "d": 150,
      "v": 98
    },
    {
      "midi": 52,
      "hit": false,
      "t": 99300,
      "d": 150,
      "v": 98
    },
    {
      "midi": 33,
      "hit": false,
      "t": 99305,
      "d": 300,
      "v": 58
    },
    {
      "midi": 46,
      "hit": false,
      "t": 99450,
      "d": 125,
      "v": 54
    },
    {
      "midi": 79,
      "hit": false,
      "t": 99450,
      "d": 450,
      "v": 98
    },
    {
      "midi": 55,
      "hit": false,
      "t": 99450,
      "d": 450,
      "v": 98
    },
    {
      "midi": 42,
      "hit": false,
      "t": 99600,
      "d": 125,
      "v": 90
    },
    {
      "midi": 35,
      "hit": false,
      "t": 99600,
      "d": 125,
      "v": 100
    },
    {
      "midi": 38,
      "hit": false,
      "t": 99605,
      "d": 100,
      "v": 68
    },
    {
      "midi": 42,
      "hit": false,
      "t": 99900,
      "d": 125,
      "v": 70
    },
    {
      "midi": 77,
      "hit": false,
      "t": 99900,
      "d": 300,
      "v": 98
    },
    {
      "midi": 53,
      "hit": false,
      "t": 99900,
      "d": 300,
      "v": 98
    },
    {
      "midi": 38,
      "hit": false,
      "t": 99910,
      "d": 340,
      "v": 74
    },
    {
      "midi": 37,
      "hit": false,
      "t": 100200,
      "d": 125,
      "v": 100
    },
    {
      "midi": 42,
      "hit": false,
      "t": 100200,
      "d": 125,
      "v": 80
    },
    {
      "midi": 76,
      "hit": false,
      "t": 100200,
      "d": 300,
      "v": 98
    },
    {
      "midi": 52,
      "hit": false,
      "t": 100200,
      "d": 300,
      "v": 98
    },
    {
      "midi": 38,
      "hit": false,
      "t": 100495,
      "d": 140,
      "v": 76
    },
    {
      "midi": 42,
      "hit": false,
      "t": 100500,
      "d": 125,
      "v": 70
    },
    {
      "midi": 35,
      "hit": false,
      "t": 100500,
      "d": 125,
      "v": 80
    },
    {
      "midi": 74,
      "hit": false,
      "t": 100500,
      "d": 300,
      "v": 98
    },
    {
      "midi": 50,
      "hit": false,
      "t": 100500,
      "d": 300,
      "v": 98
    },
    {
      "midi": 46,
      "hit": false,
      "t": 100650,
      "d": 125,
      "v": 80
    },
    {
      "midi": 43,
      "hit": false,
      "t": 100800,
      "d": 865,
      "v": 72
    },
    {
      "midi": 42,
      "hit": false,
      "t": 100800,
      "d": 125,
      "v": 90
    },
    {
      "midi": 35,
      "hit": false,
      "t": 100800,
      "d": 125,
      "v": 100
    },
    {
      "midi": 77,
      "hit": false,
      "t": 100800,
      "d": 450,
      "v": 98
    },
    {
      "midi": 53,
      "hit": false,
      "t": 100800,
      "d": 450,
      "v": 98
    },
    {
      "midi": 67,
      "hit": false,
      "t": 100840,
      "d": 2160,
      "v": 78
    },
    {
      "midi": 59,
      "hit": false,
      "t": 100840,
      "d": 2160,
      "v": 78
    },
    {
      "midi": 62,
      "hit": false,
      "t": 100840,
      "d": 2160,
      "v": 78
    },
    {
      "midi": 65,
      "hit": false,
      "t": 100840,
      "d": 2160,
      "v": 78
    },
    {
      "midi": 42,
      "hit": false,
      "t": 101100,
      "d": 125,
      "v": 70
    },
    {
      "midi": 70,
      "hit": false,
      "t": 101250,
      "d": 750,
      "v": 98
    },
    {
      "midi": 46,
      "hit": false,
      "t": 101250,
      "d": 750,
      "v": 98
    },
    {
      "midi": 37,
      "hit": false,
      "t": 101400,
      "d": 125,
      "v": 100
    },
    {
      "midi": 42,
      "hit": false,
      "t": 101400,
      "d": 125,
      "v": 80
    },
    {
      "midi": 43,
      "hit": false,
      "t": 101700,
      "d": 75,
      "v": 82
    },
    {
      "midi": 42,
      "hit": false,
      "t": 101700,
      "d": 125,
      "v": 70
    },
    {
      "midi": 35,
      "hit": false,
      "t": 101700,
      "d": 125,
      "v": 80
    },
    {
      "midi": 43,
      "hit": false,
      "t": 102000,
      "d": 95,
      "v": 85
    },
    {
      "midi": 42,
      "hit": false,
      "t": 102000,
      "d": 125,
      "v": 90
    },
    {
      "midi": 35,
      "hit": false,
      "t": 102000,
      "d": 125,
      "v": 100
    },
    {
      "midi": 43,
      "hit": false,
      "t": 102300,
      "d": 390,
      "v": 82
    },
    {
      "midi": 42,
      "hit": false,
      "t": 102300,
      "d": 125,
      "v": 70
    },
    {
      "midi": 37,
      "hit": false,
      "t": 102600,
      "d": 125,
      "v": 100
    },
    {
      "midi": 42,
      "hit": false,
      "t": 102600,
      "d": 125,
      "v": 80
    },
    {
      "midi": 72,
      "hit": false,
      "t": 102600,
      "d": 300,
      "v": 98
    },
    {
      "midi": 48,
      "hit": false,
      "t": 102600,
      "d": 300,
      "v": 98
    },
    {
      "midi": 43,
      "hit": false,
      "t": 102900,
      "d": 130,
      "v": 87
    },
    {
      "midi": 42,
      "hit": false,
      "t": 102900,
      "d": 125,
      "v": 70
    },
    {
      "midi": 35,
      "hit": false,
      "t": 102900,
      "d": 125,
      "v": 80
    },
    {
      "midi": 74,
      "hit": false,
      "t": 102900,
      "d": 300,
      "v": 98
    },
    {
      "midi": 50,
      "hit": false,
      "t": 102900,
      "d": 300,
      "v": 98
    },
    {
      "midi": 42,
      "hit": false,
      "t": 103200,
      "d": 125,
      "v": 90
    },
    {
      "midi": 35,
      "hit": false,
      "t": 103200,
      "d": 125,
      "v": 100
    },
    {
      "midi": 76,
      "hit": false,
      "t": 103200,
      "d": 300,
      "v": 98
    },
    {
      "midi": 52,
      "hit": false,
      "t": 103200,
      "d": 300,
      "v": 98
    },
    {
      "midi": 67,
      "hit": false,
      "t": 103220,
      "d": 1365,
      "v": 74
    },
    {
      "midi": 58,
      "hit": false,
      "t": 103220,
      "d": 1365,
      "v": 74
    },
    {
      "midi": 60,
      "hit": false,
      "t": 103220,
      "d": 1365,
      "v": 74
    },
    {
      "midi": 64,
      "hit": false,
      "t": 103220,
      "d": 1365,
      "v": 74
    },
    {
      "midi": 36,
      "hit": false,
      "t": 103230,
      "d": 660,
      "v": 63
    },
    {
      "midi": 42,
      "hit": false,
      "t": 103500,
      "d": 125,
      "v": 70
    },
    {
      "midi": 74,
      "hit": false,
      "t": 103500,
      "d": 150,
      "v": 98
    },
    {
      "midi": 50,
      "hit": false,
      "t": 103500,
      "d": 150,
      "v": 98
    },
    {
      "midi": 76,
      "hit": false,
      "t": 103650,
      "d": 450,
      "v": 98
    },
    {
      "midi": 52,
      "hit": false,
      "t": 103650,
      "d": 450,
      "v": 98
    },
    {
      "midi": 37,
      "hit": false,
      "t": 103800,
      "d": 125,
      "v": 100
    },
    {
      "midi": 42,
      "hit": false,
      "t": 103800,
      "d": 125,
      "v": 80
    },
    {
      "midi": 42,
      "hit": false,
      "t": 104100,
      "d": 125,
      "v": 70
    },
    {
      "midi": 35,
      "hit": false,
      "t": 104100,
      "d": 125,
      "v": 80
    },
    {
      "midi": 74,
      "hit": false,
      "t": 104100,
      "d": 150,
      "v": 98
    },
    {
      "midi": 50,
      "hit": false,
      "t": 104100,
      "d": 150,
      "v": 98
    },
    {
      "midi": 36,
      "hit": false,
      "t": 104115,
      "d": 80,
      "v": 64
    },
    {
      "midi": 77,
      "hit": false,
      "t": 104250,
      "d": 450,
      "v": 98
    },
    {
      "midi": 53,
      "hit": false,
      "t": 104250,
      "d": 450,
      "v": 98
    },
    {
      "midi": 42,
      "hit": false,
      "t": 104400,
      "d": 125,
      "v": 90
    },
    {
      "midi": 35,
      "hit": false,
      "t": 104400,
      "d": 125,
      "v": 100
    },
    {
      "midi": 36,
      "hit": false,
      "t": 104420,
      "d": 800,
      "v": 78
    },
    {
      "midi": 42,
      "hit": false,
      "t": 104700,
      "d": 125,
      "v": 70
    },
    {
      "midi": 35,
      "hit": false,
      "t": 104700,
      "d": 125,
      "v": 80
    },
    {
      "midi": 76,
      "hit": false,
      "t": 104700,
      "d": 300,
      "v": 98
    },
    {
      "midi": 52,
      "hit": false,
      "t": 104700,
      "d": 300,
      "v": 98
    },
    {
      "midi": 48,
      "hit": false,
      "t": 104715,
      "d": 340,
      "v": 78
    },
    {
      "midi": 37,
      "hit": false,
      "t": 105000,
      "d": 125,
      "v": 100
    },
    {
      "midi": 42,
      "hit": false,
      "t": 105000,
      "d": 125,
      "v": 80
    },
    {
      "midi": 74,
      "hit": false,
      "t": 105000,
      "d": 300,
      "v": 98
    },
    {
      "midi": 50,
      "hit": false,
      "t": 105000,
      "d": 300,
      "v": 98
    },
    {
      "midi": 67,
      "hit": false,
      "t": 105010,
      "d": 420,
      "v": 74
    },
    {
      "midi": 58,
      "hit": false,
      "t": 105010,
      "d": 420,
      "v": 74
    },
    {
      "midi": 60,
      "hit": false,
      "t": 105010,
      "d": 420,
      "v": 74
    },
    {
      "midi": 64,
      "hit": false,
      "t": 105010,
      "d": 420,
      "v": 74
    },
    {
      "midi": 42,
      "hit": false,
      "t": 105300,
      "d": 125,
      "v": 70
    },
    {
      "midi": 35,
      "hit": false,
      "t": 105300,
      "d": 125,
      "v": 80
    },
    {
      "midi": 76,
      "hit": false,
      "t": 105300,
      "d": 150,
      "v": 98
    },
    {
      "midi": 52,
      "hit": false,
      "t": 105300,
      "d": 150,
      "v": 98
    },
    {
      "midi": 36,
      "hit": false,
      "t": 105330,
      "d": 90,
      "v": 87
    },
    {
      "midi": 42,
      "hit": false,
      "t": 105450,
      "d": 125,
      "v": 60
    },
    {
      "midi": 72,
      "hit": false,
      "t": 105450,
      "d": 750,
      "v": 98
    },
    {
      "midi": 48,
      "hit": false,
      "t": 105450,
      "d": 750,
      "v": 98
    },
    {
      "midi": 41,
      "hit": false,
      "t": 105600,
      "d": 865,
      "v": 72
    },
    {
      "midi": 42,
      "hit": false,
      "t": 105600,
      "d": 125,
      "v": 90
    },
    {
      "midi": 35,
      "hit": false,
      "t": 105600,
      "d": 125,
      "v": 100
    },
    {
      "midi": 57,
      "hit": false,
      "t": 105620,
      "d": 1365,
      "v": 74
    },
    {
      "midi": 60,
      "hit": false,
      "t": 105620,
      "d": 1365,
      "v": 74
    },
    {
      "midi": 65,
      "hit": false,
      "t": 105620,
      "d": 1365,
      "v": 74
    },
    {
      "midi": 42,
      "hit": false,
      "t": 105900,
      "d": 125,
      "v": 70
    },
    {
      "midi": 37,
      "hit": false,
      "t": 106200,
      "d": 125,
      "v": 100
    },
    {
      "midi": 42,
      "hit": false,
      "t": 106200,
      "d": 125,
      "v": 80
    },
    {
      "midi": 41,
      "hit": false,
      "t": 106500,
      "d": 75,
      "v": 82
    },
    {
      "midi": 42,
      "hit": false,
      "t": 106500,
      "d": 125,
      "v": 70
    },
    {
      "midi": 35,
      "hit": false,
      "t": 106500,
      "d": 125,
      "v": 80
    },
    {
      "midi": 41,
      "hit": false,
      "t": 106800,
      "d": 95,
      "v": 85
    },
    {
      "midi": 42,
      "hit": false,
      "t": 106800,
      "d": 125,
      "v": 90
    },
    {
      "midi": 35,
      "hit": false,
      "t": 106800,
      "d": 125,
      "v": 100
    },
    {
      "midi": 41,
      "hit": false,
      "t": 107100,
      "d": 390,
      "v": 82
    },
    {
      "midi": 42,
      "hit": false,
      "t": 107100,
      "d": 125,
      "v": 70
    },
    {
      "midi": 53,
      "hit": false,
      "t": 107115,
      "d": 340,
      "v": 78
    },
    {
      "midi": 37,
      "hit": false,
      "t": 107400,
      "d": 125,
      "v": 100
    },
    {
      "midi": 42,
      "hit": false,
      "t": 107400,
      "d": 125,
      "v": 80
    },
    {
      "midi": 74,
      "hit": false,
      "t": 107400,
      "d": 300,
      "v": 98
    },
    {
      "midi": 50,
      "hit": false,
      "t": 107400,
      "d": 300,
      "v": 98
    },
    {
      "midi": 57,
      "hit": false,
      "t": 107410,
      "d": 420,
      "v": 74
    },
    {
      "midi": 60,
      "hit": false,
      "t": 107410,
      "d": 420,
      "v": 74
    },
    {
      "midi": 65,
      "hit": false,
      "t": 107410,
      "d": 420,
      "v": 74
    },
    {
      "midi": 41,
      "hit": false,
      "t": 107700,
      "d": 130,
      "v": 87
    },
    {
      "midi": 42,
      "hit": false,
      "t": 107700,
      "d": 125,
      "v": 70
    },
    {
      "midi": 35,
      "hit": false,
      "t": 107700,
      "d": 125,
      "v": 80
    },
    {
      "midi": 76,
      "hit": false,
      "t": 107700,
      "d": 300,
      "v": 98
    },
    {
      "midi": 52,
      "hit": false,
      "t": 107700,
      "d": 300,
      "v": 98
    },
    {
      "midi": 42,
      "hit": false,
      "t": 108000,
      "d": 125,
      "v": 90
    },
    {
      "midi": 35,
      "hit": false,
      "t": 108000,
      "d": 125,
      "v": 100
    },
    {
      "midi": 77,
      "hit": false,
      "t": 108000,
      "d": 300,
      "v": 98
    },
    {
      "midi": 53,
      "hit": false,
      "t": 108000,
      "d": 300,
      "v": 98
    },
    {
      "midi": 38,
      "hit": false,
      "t": 108030,
      "d": 660,
      "v": 63
    },
    {
      "midi": 57,
      "hit": false,
      "t": 108040,
      "d": 2160,
      "v": 78
    },
    {
      "midi": 62,
      "hit": false,
      "t": 108040,
      "d": 2160,
      "v": 78
    },
    {
      "midi": 65,
      "hit": false,
      "t": 108040,
      "d": 2160,
      "v": 78
    },
    {
      "midi": 42,
      "hit": false,
      "t": 108300,
      "d": 125,
      "v": 70
    },
    {
      "midi": 76,
      "hit": false,
      "t": 108300,
      "d": 150,
      "v": 98
    },
    {
      "midi": 52,
      "hit": false,
      "t": 108300,
      "d": 150,
      "v": 98
    },
    {
      "midi": 77,
      "hit": false,
      "t": 108450,
      "d": 450,
      "v": 98
    },
    {
      "midi": 53,
      "hit": false,
      "t": 108450,
      "d": 450,
      "v": 98
    },
    {
      "midi": 37,
      "hit": false,
      "t": 108600,
      "d": 125,
      "v": 100
    },
    {
      "midi": 42,
      "hit": false,
      "t": 108600,
      "d": 125,
      "v": 80
    },
    {
      "midi": 42,
      "hit": false,
      "t": 108900,
      "d": 125,
      "v": 70
    },
    {
      "midi": 35,
      "hit": false,
      "t": 108900,
      "d": 125,
      "v": 80
    },
    {
      "midi": 76,
      "hit": false,
      "t": 108900,
      "d": 150,
      "v": 98
    },
    {
      "midi": 52,
      "hit": false,
      "t": 108900,
      "d": 150,
      "v": 98
    },
    {
      "midi": 38,
      "hit": false,
      "t": 108915,
      "d": 80,
      "v": 64
    },
    {
      "midi": 79,
      "hit": false,
      "t": 109050,
      "d": 450,
      "v": 98
    },
    {
      "midi": 55,
      "hit": false,
      "t": 109050,
      "d": 450,
      "v": 98
    },
    {
      "midi": 42,
      "hit": false,
      "t": 109200,
      "d": 125,
      "v": 90
    },
    {
      "midi": 35,
      "hit": false,
      "t": 109200,
      "d": 125,
      "v": 100
    },
    {
      "midi": 38,
      "hit": false,
      "t": 109220,
      "d": 800,
      "v": 78
    },
    {
      "midi": 42,
      "hit": false,
      "t": 109500,
      "d": 125,
      "v": 70
    },
    {
      "midi": 77,
      "hit": false,
      "t": 109500,
      "d": 300,
      "v": 98
    },
    {
      "midi": 53,
      "hit": false,
      "t": 109500,
      "d": 300,
      "v": 98
    },
    {
      "midi": 37,
      "hit": false,
      "t": 109800,
      "d": 125,
      "v": 100
    },
    {
      "midi": 42,
      "hit": false,
      "t": 109800,
      "d": 125,
      "v": 80
    },
    {
      "midi": 76,
      "hit": false,
      "t": 109800,
      "d": 300,
      "v": 98
    },
    {
      "midi": 52,
      "hit": false,
      "t": 109800,
      "d": 300,
      "v": 98
    },
    {
      "midi": 42,
      "hit": false,
      "t": 110100,
      "d": 125,
      "v": 70
    },
    {
      "midi": 35,
      "hit": false,
      "t": 110100,
      "d": 125,
      "v": 80
    },
    {
      "midi": 77,
      "hit": false,
      "t": 110100,
      "d": 300,
      "v": 98
    },
    {
      "midi": 53,
      "hit": false,
      "t": 110100,
      "d": 300,
      "v": 98
    },
    {
      "midi": 38,
      "hit": false,
      "t": 110130,
      "d": 90,
      "v": 87
    },
    {
      "midi": 42,
      "hit": false,
      "t": 110400,
      "d": 125,
      "v": 90
    },
    {
      "midi": 35,
      "hit": false,
      "t": 110400,
      "d": 125,
      "v": 100
    },
    {
      "midi": 81,
      "hit": false,
      "t": 110400,
      "d": 450,
      "v": 98
    },
    {
      "midi": 57,
      "hit": false,
      "t": 110400,
      "d": 450,
      "v": 98
    },
    {
      "midi": 36,
      "hit": false,
      "t": 110430,
      "d": 660,
      "v": 63
    },
    {
      "midi": 67,
      "hit": false,
      "t": 110440,
      "d": 2160,
      "v": 78
    },
    {
      "midi": 58,
      "hit": false,
      "t": 110440,
      "d": 2160,
      "v": 78
    },
    {
      "midi": 60,
      "hit": false,
      "t": 110440,
      "d": 2160,
      "v": 78
    },
    {
      "midi": 64,
      "hit": false,
      "t": 110440,
      "d": 2160,
      "v": 78
    },
    {
      "midi": 42,
      "hit": false,
      "t": 110700,
      "d": 125,
      "v": 70
    },
    {
      "midi": 74,
      "hit": false,
      "t": 110850,
      "d": 450,
      "v": 98
    },
    {
      "midi": 50,
      "hit": false,
      "t": 110850,
      "d": 450,
      "v": 98
    },
    {
      "midi": 37,
      "hit": false,
      "t": 111000,
      "d": 125,
      "v": 100
    },
    {
      "midi": 42,
      "hit": false,
      "t": 111000,
      "d": 125,
      "v": 80
    },
    {
      "midi": 42,
      "hit": false,
      "t": 111300,
      "d": 125,
      "v": 70
    },
    {
      "midi": 35,
      "hit": false,
      "t": 111300,
      "d": 125,
      "v": 80
    },
    {
      "midi": 77,
      "hit": false,
      "t": 111300,
      "d": 300,
      "v": 98
    },
    {
      "midi": 53,
      "hit": false,
      "t": 111300,
      "d": 300,
      "v": 98
    },
    {
      "midi": 36,
      "hit": false,
      "t": 111315,
      "d": 80,
      "v": 64
    },
    {
      "midi": 42,
      "hit": false,
      "t": 111600,
      "d": 125,
      "v": 90
    },
    {
      "midi": 35,
      "hit": false,
      "t": 111600,
      "d": 125,
      "v": 100
    },
    {
      "midi": 36,
      "hit": false,
      "t": 111620,
      "d": 800,
      "v": 78
    },
    {
      "midi": 42,
      "hit": false,
      "t": 111900,
      "d": 125,
      "v": 70
    },
    {
      "midi": 37,
      "hit": false,
      "t": 112200,
      "d": 125,
      "v": 100
    },
    {
      "midi": 42,
      "hit": false,
      "t": 112200,
      "d": 125,
      "v": 80
    },
    {
      "midi": 42,
      "hit": false,
      "t": 112500,
      "d": 125,
      "v": 70
    },
    {
      "midi": 35,
      "hit": false,
      "t": 112500,
      "d": 125,
      "v": 80
    },
    {
      "midi": 79,
      "hit": false,
      "t": 112500,
      "d": 300,
      "v": 98
    },
    {
      "midi": 55,
      "hit": false,
      "t": 112500,
      "d": 300,
      "v": 98
    },
    {
      "midi": 36,
      "hit": false,
      "t": 112530,
      "d": 90,
      "v": 87
    },
    {
      "midi": 42,
      "hit": false,
      "t": 112800,
      "d": 125,
      "v": 90
    },
    {
      "midi": 35,
      "hit": false,
      "t": 112800,
      "d": 125,
      "v": 100
    },
    {
      "midi": 81,
      "hit": false,
      "t": 112800,
      "d": 450,
      "v": 98
    },
    {
      "midi": 57,
      "hit": false,
      "t": 112800,
      "d": 450,
      "v": 98
    },
    {
      "midi": 57,
      "hit": false,
      "t": 112815,
      "d": 895,
      "v": 82
    },
    {
      "midi": 60,
      "hit": false,
      "t": 112815,
      "d": 895,
      "v": 82
    },
    {
      "midi": 65,
      "hit": false,
      "t": 112815,
      "d": 895,
      "v": 82
    },
    {
      "midi": 41,
      "hit": false,
      "t": 112830,
      "d": 660,
      "v": 63
    },
    {
      "midi": 42,
      "hit": false,
      "t": 113100,
      "d": 125,
      "v": 70
    },
    {
      "midi": 79,
      "hit": false,
      "t": 113250,
      "d": 450,
      "v": 98
    },
    {
      "midi": 55,
      "hit": false,
      "t": 113250,
      "d": 450,
      "v": 98
    },
    {
      "midi": 37,
      "hit": false,
      "t": 113400,
      "d": 125,
      "v": 100
    },
    {
      "midi": 42,
      "hit": false,
      "t": 113400,
      "d": 125,
      "v": 80
    },
    {
      "midi": 53,
      "hit": false,
      "t": 113690,
      "d": 1460,
      "v": 63
    },
    {
      "midi": 42,
      "hit": false,
      "t": 113700,
      "d": 125,
      "v": 70
    },
    {
      "midi": 35,
      "hit": false,
      "t": 113700,
      "d": 125,
      "v": 80
    },
    {
      "midi": 77,
      "hit": false,
      "t": 113700,
      "d": 300,
      "v": 98
    },
    {
      "midi": 53,
      "hit": false,
      "t": 113700,
      "d": 300,
      "v": 98
    },
    {
      "midi": 41,
      "hit": false,
      "t": 113715,
      "d": 80,
      "v": 64
    },
    {
      "midi": 42,
      "hit": false,
      "t": 114000,
      "d": 125,
      "v": 90
    },
    {
      "midi": 35,
      "hit": false,
      "t": 114000,
      "d": 125,
      "v": 100
    },
    {
      "midi": 79,
      "hit": false,
      "t": 114000,
      "d": 600,
      "v": 98
    },
    {
      "midi": 55,
      "hit": false,
      "t": 114000,
      "d": 600,
      "v": 98
    },
    {
      "midi": 65,
      "hit": false,
      "t": 114010,
      "d": 1150,
      "v": 66
    },
    {
      "midi": 41,
      "hit": false,
      "t": 114020,
      "d": 800,
      "v": 78
    },
    {
      "midi": 42,
      "hit": false,
      "t": 114300,
      "d": 125,
      "v": 70
    },
    {
      "midi": 35,
      "hit": false,
      "t": 114300,
      "d": 125,
      "v": 80
    },
    {
      "midi": 69,
      "hit": false,
      "t": 114300,
      "d": 840,
      "v": 68
    },
    {
      "midi": 37,
      "hit": false,
      "t": 114600,
      "d": 125,
      "v": 100
    },
    {
      "midi": 42,
      "hit": false,
      "t": 114600,
      "d": 125,
      "v": 80
    },
    {
      "midi": 77,
      "hit": false,
      "t": 114600,
      "d": 300,
      "v": 98
    },
    {
      "midi": 53,
      "hit": false,
      "t": 114600,
      "d": 300,
      "v": 98
    },
    {
      "midi": 72,
      "hit": false,
      "t": 114620,
      "d": 510,
      "v": 82
    },
    {
      "midi": 77,
      "hit": false,
      "t": 114890,
      "d": 240,
      "v": 59
    },
    {
      "midi": 42,
      "hit": false,
      "t": 114900,
      "d": 125,
      "v": 70
    },
    {
      "midi": 35,
      "hit": false,
      "t": 114900,
      "d": 125,
      "v": 80
    },
    {
      "midi": 76,
      "hit": false,
      "t": 114900,
      "d": 150,
      "v": 98
    },
    {
      "midi": 52,
      "hit": false,
      "t": 114900,
      "d": 150,
      "v": 98
    },
    {
      "midi": 41,
      "hit": false,
      "t": 114930,
      "d": 90,
      "v": 87
    },
    {
      "midi": 46,
      "hit": false,
      "t": 115050,
      "d": 125,
      "v": 80
    },
    {
      "midi": 74,
      "hit": false,
      "t": 115050,
      "d": 750,
      "v": 98
    },
    {
      "midi": 50,
      "hit": false,
      "t": 115050,
      "d": 750,
      "v": 98
    },
    {
      "midi": 42,
      "hit": false,
      "t": 115200,
      "d": 125,
      "v": 90
    },
    {
      "midi": 35,
      "hit": false,
      "t": 115200,
      "d": 125,
      "v": 100
    },
    {
      "midi": 57,
      "hit": false,
      "t": 115200,
      "d": 1200,
      "v": 80
    },
    {
      "midi": 62,
      "hit": false,
      "t": 115200,
      "d": 1200,
      "v": 80
    },
    {
      "midi": 65,
      "hit": false,
      "t": 115200,
      "d": 1200,
      "v": 80
    },
    {
      "midi": 38,
      "hit": false,
      "t": 115205,
      "d": 730,
      "v": 72
    },
    {
      "midi": 42,
      "hit": false,
      "t": 115500,
      "d": 125,
      "v": 70
    },
    {
      "midi": 37,
      "hit": false,
      "t": 115800,
      "d": 125,
      "v": 100
    },
    {
      "midi": 42,
      "hit": false,
      "t": 115800,
      "d": 125,
      "v": 80
    },
    {
      "midi": 42,
      "hit": false,
      "t": 116100,
      "d": 125,
      "v": 70
    },
    {
      "midi": 35,
      "hit": false,
      "t": 116100,
      "d": 125,
      "v": 80
    },
    {
      "midi": 38,
      "hit": false,
      "t": 116120,
      "d": 160,
      "v": 74
    },
    {
      "midi": 38,
      "hit": false,
      "t": 116400,
      "d": 600,
      "v": 82
    },
    {
      "midi": 42,
      "hit": false,
      "t": 116400,
      "d": 125,
      "v": 90
    },
    {
      "midi": 35,
      "hit": false,
      "t": 116400,
      "d": 125,
      "v": 100
    },
    {
      "midi": 77,
      "hit": false,
      "t": 116400,
      "d": 600,
      "v": 98
    },
    {
      "midi": 53,
      "hit": false,
      "t": 116400,
      "d": 600,
      "v": 98
    },
    {
      "midi": 57,
      "hit": false,
      "t": 116420,
      "d": 580,
      "v": 80
    },
    {
      "midi": 62,
      "hit": false,
      "t": 116420,
      "d": 580,
      "v": 80
    },
    {
      "midi": 65,
      "hit": false,
      "t": 116420,
      "d": 580,
      "v": 80
    },
    {
      "midi": 42,
      "hit": false,
      "t": 116700,
      "d": 125,
      "v": 70
    },
    {
      "midi": 40,
      "hit": false,
      "t": 117000,
      "d": 600,
      "v": 82
    },
    {
      "midi": 37,
      "hit": false,
      "t": 117000,
      "d": 125,
      "v": 100
    },
    {
      "midi": 42,
      "hit": false,
      "t": 117000,
      "d": 125,
      "v": 80
    },
    {
      "midi": 79,
      "hit": false,
      "t": 117000,
      "d": 600,
      "v": 98
    },
    {
      "midi": 55,
      "hit": false,
      "t": 117000,
      "d": 600,
      "v": 98
    },
    {
      "midi": 67,
      "hit": false,
      "t": 117020,
      "d": 580,
      "v": 80
    },
    {
      "midi": 58,
      "hit": false,
      "t": 117020,
      "d": 580,
      "v": 80
    },
    {
      "midi": 60,
      "hit": false,
      "t": 117020,
      "d": 580,
      "v": 80
    },
    {
      "midi": 64,
      "hit": false,
      "t": 117020,
      "d": 580,
      "v": 80
    },
    {
      "midi": 42,
      "hit": false,
      "t": 117300,
      "d": 125,
      "v": 70
    },
    {
      "midi": 35,
      "hit": false,
      "t": 117300,
      "d": 125,
      "v": 80
    },
    {
      "midi": 41,
      "hit": false,
      "t": 117600,
      "d": 865,
      "v": 72
    },
    {
      "midi": 42,
      "hit": false,
      "t": 117600,
      "d": 125,
      "v": 90
    },
    {
      "midi": 35,
      "hit": false,
      "t": 117600,
      "d": 125,
      "v": 100
    },
    {
      "midi": 57,
      "hit": false,
      "t": 117600,
      "d": 1970,
      "v": 72
    },
    {
      "midi": 60,
      "hit": false,
      "t": 117600,
      "d": 1970,
      "v": 72
    },
    {
      "midi": 82,
      "hit": false,
      "t": 117600,
      "d": 300,
      "v": 98
    },
    {
      "midi": 58,
      "hit": false,
      "t": 117600,
      "d": 300,
      "v": 98
    },
    {
      "midi": 42,
      "hit": false,
      "t": 117900,
      "d": 125,
      "v": 70
    },
    {
      "midi": 81,
      "hit": false,
      "t": 117900,
      "d": 150,
      "v": 98
    },
    {
      "midi": 57,
      "hit": false,
      "t": 117900,
      "d": 150,
      "v": 98
    },
    {
      "midi": 81,
      "hit": false,
      "t": 118050,
      "d": 300,
      "v": 98
    },
    {
      "midi": 57,
      "hit": false,
      "t": 118050,
      "d": 300,
      "v": 98
    },
    {
      "midi": 37,
      "hit": false,
      "t": 118200,
      "d": 125,
      "v": 100
    },
    {
      "midi": 42,
      "hit": false,
      "t": 118200,
      "d": 125,
      "v": 80
    },
    {
      "midi": 79,
      "hit": false,
      "t": 118350,
      "d": 150,
      "v": 98
    },
    {
      "midi": 55,
      "hit": false,
      "t": 118350,
      "d": 150,
      "v": 98
    },
    {
      "midi": 41,
      "hit": false,
      "t": 118500,
      "d": 75,
      "v": 82
    },
    {
      "midi": 42,
      "hit": false,
      "t": 118500,
      "d": 125,
      "v": 70
    },
    {
      "midi": 35,
      "hit": false,
      "t": 118500,
      "d": 125,
      "v": 80
    },
    {
      "midi": 81,
      "hit": false,
      "t": 118500,
      "d": 300,
      "v": 98
    },
    {
      "midi": 57,
      "hit": false,
      "t": 118500,
      "d": 300,
      "v": 98
    },
    {
      "midi": 41,
      "hit": false,
      "t": 118800,
      "d": 95,
      "v": 85
    },
    {
      "midi": 42,
      "hit": false,
      "t": 118800,
      "d": 125,
      "v": 90
    },
    {
      "midi": 35,
      "hit": false,
      "t": 118800,
      "d": 125,
      "v": 100
    },
    {
      "midi": 41,
      "hit": false,
      "t": 119100,
      "d": 390,
      "v": 82
    },
    {
      "midi": 42,
      "hit": false,
      "t": 119100,
      "d": 125,
      "v": 70
    },
    {
      "midi": 35,
      "hit": false,
      "t": 119100,
      "d": 125,
      "v": 80
    },
    {
      "midi": 81,
      "hit": false,
      "t": 119100,
      "d": 300,
      "v": 98
    },
    {
      "midi": 57,
      "hit": false,
      "t": 119100,
      "d": 300,
      "v": 98
    },
    {
      "midi": 37,
      "hit": false,
      "t": 119400,
      "d": 125,
      "v": 100
    },
    {
      "midi": 42,
      "hit": false,
      "t": 119400,
      "d": 125,
      "v": 80
    },
    {
      "midi": 79,
      "hit": false,
      "t": 119400,
      "d": 300,
      "v": 98
    },
    {
      "midi": 55,
      "hit": false,
      "t": 119400,
      "d": 300,
      "v": 98
    },
    {
      "midi": 65,
      "hit": false,
      "t": 119420,
      "d": 150,
      "v": 61
    },
    {
      "midi": 69,
      "hit": false,
      "t": 119575,
      "d": 210,
      "v": 74
    },
    {
      "midi": 41,
      "hit": false,
      "t": 119700,
      "d": 130,
      "v": 87
    },
    {
      "midi": 42,
      "hit": false,
      "t": 119700,
      "d": 125,
      "v": 70
    },
    {
      "midi": 35,
      "hit": false,
      "t": 119700,
      "d": 125,
      "v": 80
    },
    {
      "midi": 77,
      "hit": false,
      "t": 119700,
      "d": 300,
      "v": 98
    },
    {
      "midi": 53,
      "hit": false,
      "t": 119700,
      "d": 300,
      "v": 98
    },
    {
      "midi": 72,
      "hit": false,
      "t": 119725,
      "d": 195,
      "v": 68
    },
    {
      "midi": 42,
      "hit": false,
      "t": 119850,
      "d": 125,
      "v": 60
    },
    {
      "midi": 77,
      "hit": false,
      "t": 119880,
      "d": 110,
      "v": 68
    },
    {
      "midi": 40,
      "hit": false,
      "t": 120000,
      "d": 865,
      "v": 72
    },
    {
      "midi": 42,
      "hit": false,
      "t": 120000,
      "d": 125,
      "v": 90
    },
    {
      "midi": 35,
      "hit": false,
      "t": 120000,
      "d": 125,
      "v": 100
    },
    {
      "midi": 79,
      "hit": false,
      "t": 120000,
      "d": 450,
      "v": 98
    },
    {
      "midi": 55,
      "hit": false,
      "t": 120000,
      "d": 450,
      "v": 98
    },
    {
      "midi": 55,
      "hit": false,
      "t": 120040,
      "d": 2160,
      "v": 78
    },
    {
      "midi": 60,
      "hit": false,
      "t": 120040,
      "d": 2160,
      "v": 78
    },
    {
      "midi": 64,
      "hit": false,
      "t": 120040,
      "d": 2160,
      "v": 78
    },
    {
      "midi": 42,
      "hit": false,
      "t": 120300,
      "d": 125,
      "v": 70
    },
    {
      "midi": 84,
      "hit": false,
      "t": 120450,
      "d": 450,
      "v": 98
    },
    {
      "midi": 60,
      "hit": false,
      "t": 120450,
      "d": 450,
      "v": 98
    },
    {
      "midi": 37,
      "hit": false,
      "t": 120600,
      "d": 125,
      "v": 100
    },
    {
      "midi": 42,
      "hit": false,
      "t": 120600,
      "d": 125,
      "v": 80
    },
    {
      "midi": 40,
      "hit": false,
      "t": 120900,
      "d": 75,
      "v": 82
    },
    {
      "midi": 42,
      "hit": false,
      "t": 120900,
      "d": 125,
      "v": 70
    },
    {
      "midi": 35,
      "hit": false,
      "t": 120900,
      "d": 125,
      "v": 80
    },
    {
      "midi": 81,
      "hit": false,
      "t": 120900,
      "d": 300,
      "v": 98
    },
    {
      "midi": 57,
      "hit": false,
      "t": 120900,
      "d": 300,
      "v": 98
    },
    {
      "midi": 40,
      "hit": false,
      "t": 121200,
      "d": 95,
      "v": 85
    },
    {
      "midi": 42,
      "hit": false,
      "t": 121200,
      "d": 125,
      "v": 90
    },
    {
      "midi": 35,
      "hit": false,
      "t": 121200,
      "d": 125,
      "v": 100
    },
    {
      "midi": 40,
      "hit": false,
      "t": 121500,
      "d": 390,
      "v": 82
    },
    {
      "midi": 42,
      "hit": false,
      "t": 121500,
      "d": 125,
      "v": 70
    },
    {
      "midi": 37,
      "hit": false,
      "t": 121800,
      "d": 125,
      "v": 100
    },
    {
      "midi": 42,
      "hit": false,
      "t": 121800,
      "d": 125,
      "v": 80
    },
    {
      "midi": 81,
      "hit": false,
      "t": 121800,
      "d": 300,
      "v": 98
    },
    {
      "midi": 57,
      "hit": false,
      "t": 121800,
      "d": 300,
      "v": 98
    },
    {
      "midi": 40,
      "hit": false,
      "t": 122100,
      "d": 130,
      "v": 87
    },
    {
      "midi": 42,
      "hit": false,
      "t": 122100,
      "d": 125,
      "v": 70
    },
    {
      "midi": 35,
      "hit": false,
      "t": 122100,
      "d": 125,
      "v": 80
    },
    {
      "midi": 79,
      "hit": false,
      "t": 122100,
      "d": 300,
      "v": 98
    },
    {
      "midi": 55,
      "hit": false,
      "t": 122100,
      "d": 300,
      "v": 98
    },
    {
      "midi": 42,
      "hit": false,
      "t": 122400,
      "d": 125,
      "v": 90
    },
    {
      "midi": 35,
      "hit": false,
      "t": 122400,
      "d": 125,
      "v": 100
    },
    {
      "midi": 77,
      "hit": false,
      "t": 122400,
      "d": 300,
      "v": 98
    },
    {
      "midi": 53,
      "hit": false,
      "t": 122400,
      "d": 300,
      "v": 98
    },
    {
      "midi": 38,
      "hit": false,
      "t": 122405,
      "d": 730,
      "v": 72
    },
    {
      "midi": 58,
      "hit": false,
      "t": 122410,
      "d": 1005,
      "v": 72
    },
    {
      "midi": 65,
      "hit": false,
      "t": 122410,
      "d": 1005,
      "v": 72
    },
    {
      "midi": 42,
      "hit": false,
      "t": 122700,
      "d": 125,
      "v": 70
    },
    {
      "midi": 76,
      "hit": false,
      "t": 122700,
      "d": 150,
      "v": 98
    },
    {
      "midi": 52,
      "hit": false,
      "t": 122700,
      "d": 150,
      "v": 98
    },
    {
      "midi": 77,
      "hit": false,
      "t": 122850,
      "d": 450,
      "v": 98
    },
    {
      "midi": 53,
      "hit": false,
      "t": 122850,
      "d": 450,
      "v": 98
    },
    {
      "midi": 37,
      "hit": false,
      "t": 123000,
      "d": 125,
      "v": 100
    },
    {
      "midi": 42,
      "hit": false,
      "t": 123000,
      "d": 125,
      "v": 80
    },
    {
      "midi": 42,
      "hit": false,
      "t": 123300,
      "d": 125,
      "v": 70
    },
    {
      "midi": 35,
      "hit": false,
      "t": 123300,
      "d": 125,
      "v": 80
    },
    {
      "midi": 86,
      "hit": false,
      "t": 123300,
      "d": 300,
      "v": 98
    },
    {
      "midi": 62,
      "hit": false,
      "t": 123300,
      "d": 300,
      "v": 98
    },
    {
      "midi": 62,
      "hit": false,
      "t": 123315,
      "d": 100,
      "v": 66
    },
    {
      "midi": 38,
      "hit": false,
      "t": 123320,
      "d": 160,
      "v": 74
    },
    {
      "midi": 65,
      "hit": false,
      "t": 123470,
      "d": 130,
      "v": 70
    },
    {
      "midi": 36,
      "hit": false,
      "t": 123600,
      "d": 600,
      "v": 82
    },
    {
      "midi": 42,
      "hit": false,
      "t": 123600,
      "d": 125,
      "v": 90
    },
    {
      "midi": 35,
      "hit": false,
      "t": 123600,
      "d": 125,
      "v": 100
    },
    {
      "midi": 84,
      "hit": false,
      "t": 123600,
      "d": 600,
      "v": 98
    },
    {
      "midi": 60,
      "hit": false,
      "t": 123600,
      "d": 600,
      "v": 98
    },
    {
      "midi": 55,
      "hit": false,
      "t": 123620,
      "d": 580,
      "v": 80
    },
    {
      "midi": 60,
      "hit": false,
      "t": 123620,
      "d": 580,
      "v": 80
    },
    {
      "midi": 65,
      "hit": false,
      "t": 123620,
      "d": 580,
      "v": 80
    },
    {
      "midi": 42,
      "hit": false,
      "t": 123900,
      "d": 125,
      "v": 70
    },
    {
      "midi": 35,
      "hit": false,
      "t": 123900,
      "d": 125,
      "v": 80
    },
    {
      "midi": 40,
      "hit": false,
      "t": 124200,
      "d": 600,
      "v": 82
    },
    {
      "midi": 37,
      "hit": false,
      "t": 124200,
      "d": 125,
      "v": 100
    },
    {
      "midi": 42,
      "hit": false,
      "t": 124200,
      "d": 125,
      "v": 80
    },
    {
      "midi": 77,
      "hit": false,
      "t": 124200,
      "d": 300,
      "v": 98
    },
    {
      "midi": 53,
      "hit": false,
      "t": 124200,
      "d": 300,
      "v": 98
    },
    {
      "midi": 55,
      "hit": false,
      "t": 124220,
      "d": 580,
      "v": 80
    },
    {
      "midi": 60,
      "hit": false,
      "t": 124220,
      "d": 580,
      "v": 80
    },
    {
      "midi": 64,
      "hit": false,
      "t": 124220,
      "d": 580,
      "v": 80
    },
    {
      "midi": 42,
      "hit": false,
      "t": 124500,
      "d": 125,
      "v": 70
    },
    {
      "midi": 35,
      "hit": false,
      "t": 124500,
      "d": 125,
      "v": 80
    },
    {
      "midi": 79,
      "hit": false,
      "t": 124500,
      "d": 150,
      "v": 98
    },
    {
      "midi": 55,
      "hit": false,
      "t": 124500,
      "d": 150,
      "v": 98
    },
    {
      "midi": 42,
      "hit": false,
      "t": 124650,
      "d": 125,
      "v": 60
    },
    {
      "midi": 81,
      "hit": false,
      "t": 124650,
      "d": 150,
      "v": 98
    },
    {
      "midi": 57,
      "hit": false,
      "t": 124650,
      "d": 150,
      "v": 98
    },
    {
      "midi": 41,
      "hit": false,
      "t": 124800,
      "d": 855,
      "v": 80
    },
    {
      "midi": 42,
      "hit": false,
      "t": 124800,
      "d": 125,
      "v": 90
    },
    {
      "midi": 35,
      "hit": false,
      "t": 124800,
      "d": 125,
      "v": 100
    },
    {
      "midi": 81,
      "hit": false,
      "t": 124800,
      "d": 1200,
      "v": 98
    },
    {
      "midi": 57,
      "hit": false,
      "t": 124800,
      "d": 1200,
      "v": 98
    },
    {
      "midi": 57,
      "hit": false,
      "t": 124820,
      "d": 1365,
      "v": 74
    },
    {
      "midi": 60,
      "hit": false,
      "t": 124820,
      "d": 1365,
      "v": 74
    },
    {
      "midi": 65,
      "hit": false,
      "t": 124820,
      "d": 1365,
      "v": 74
    },
    {
      "midi": 42,
      "hit": false,
      "t": 125100,
      "d": 125,
      "v": 70
    },
    {
      "midi": 37,
      "hit": false,
      "t": 125400,
      "d": 125,
      "v": 100
    },
    {
      "midi": 42,
      "hit": false,
      "t": 125400,
      "d": 125,
      "v": 80
    },
    {
      "midi": 42,
      "hit": false,
      "t": 125700,
      "d": 125,
      "v": 70
    },
    {
      "midi": 35,
      "hit": false,
      "t": 125700,
      "d": 125,
      "v": 80
    },
    {
      "midi": 36,
      "hit": false,
      "t": 125705,
      "d": 300,
      "v": 58
    },
    {
      "midi": 42,
      "hit": false,
      "t": 126000,
      "d": 125,
      "v": 90
    },
    {
      "midi": 35,
      "hit": false,
      "t": 126000,
      "d": 125,
      "v": 100
    },
    {
      "midi": 41,
      "hit": false,
      "t": 126005,
      "d": 100,
      "v": 68
    },
    {
      "midi": 42,
      "hit": false,
      "t": 126300,
      "d": 125,
      "v": 70
    },
    {
      "midi": 41,
      "hit": false,
      "t": 126310,
      "d": 340,
      "v": 74
    },
    {
      "midi": 53,
      "hit": false,
      "t": 126315,
      "d": 340,
      "v": 78
    },
    {
      "midi": 37,
      "hit": false,
      "t": 126600,
      "d": 125,
      "v": 100
    },
    {
      "midi": 42,
      "hit": false,
      "t": 126600,
      "d": 125,
      "v": 80
    },
    {
      "midi": 81,
      "hit": false,
      "t": 126600,
      "d": 300,
      "v": 98
    },
    {
      "midi": 57,
      "hit": false,
      "t": 126600,
      "d": 300,
      "v": 98
    },
    {
      "midi": 57,
      "hit": false,
      "t": 126610,
      "d": 420,
      "v": 74
    },
    {
      "midi": 60,
      "hit": false,
      "t": 126610,
      "d": 420,
      "v": 74
    },
    {
      "midi": 65,
      "hit": false,
      "t": 126610,
      "d": 420,
      "v": 74
    },
    {
      "midi": 41,
      "hit": false,
      "t": 126895,
      "d": 140,
      "v": 76
    },
    {
      "midi": 42,
      "hit": false,
      "t": 126900,
      "d": 125,
      "v": 70
    },
    {
      "midi": 35,
      "hit": false,
      "t": 126900,
      "d": 125,
      "v": 80
    },
    {
      "midi": 82,
      "hit": false,
      "t": 126900,
      "d": 300,
      "v": 98
    },
    {
      "midi": 58,
      "hit": false,
      "t": 126900,
      "d": 300,
      "v": 98
    },
    {
      "midi": 42,
      "hit": false,
      "t": 127200,
      "d": 125,
      "v": 90
    },
    {
      "midi": 35,
      "hit": false,
      "t": 127200,
      "d": 125,
      "v": 100
    },
    {
      "midi": 65,
      "hit": false,
      "t": 127200,
      "d": 740,
      "v": 55
    },
    {
      "midi": 62,
      "hit": false,
      "t": 127200,
      "d": 770,
      "v": 58
    },
    {
      "midi": 60,
      "hit": false,
      "t": 127200,
      "d": 805,
      "v": 53
    },
    {
      "midi": 84,
      "hit": false,
      "t": 127200,
      "d": 450,
      "v": 98
    },
    {
      "midi": 60,
      "hit": false,
      "t": 127200,
      "d": 450,
      "v": 98
    },
    {
      "midi": 34,
      "hit": false,
      "t": 127225,
      "d": 2080,
      "v": 33
    },
    {
      "midi": 34,
      "hit": false,
      "t": 127230,
      "d": 660,
      "v": 63
    },
    {
      "midi": 42,
      "hit": false,
      "t": 127500,
      "d": 125,
      "v": 70
    },
    {
      "midi": 84,
      "hit": false,
      "t": 127650,
      "d": 450,
      "v": 98
    },
    {
      "midi": 60,
      "hit": false,
      "t": 127650,
      "d": 450,
      "v": 98
    },
    {
      "midi": 37,
      "hit": false,
      "t": 127800,
      "d": 125,
      "v": 100
    },
    {
      "midi": 42,
      "hit": false,
      "t": 127800,
      "d": 125,
      "v": 80
    },
    {
      "midi": 42,
      "hit": false,
      "t": 128100,
      "d": 125,
      "v": 70
    },
    {
      "midi": 35,
      "hit": false,
      "t": 128100,
      "d": 125,
      "v": 80
    },
    {
      "midi": 77,
      "hit": false,
      "t": 128100,
      "d": 300,
      "v": 98
    },
    {
      "midi": 53,
      "hit": false,
      "t": 128100,
      "d": 300,
      "v": 98
    },
    {
      "midi": 34,
      "hit": false,
      "t": 128115,
      "d": 80,
      "v": 64
    },
    {
      "midi": 65,
      "hit": false,
      "t": 128220,
      "d": 470,
      "v": 58
    },
    {
      "midi": 62,
      "hit": false,
      "t": 128250,
      "d": 445,
      "v": 61
    },
    {
      "midi": 60,
      "hit": false,
      "t": 128305,
      "d": 315,
      "v": 85
    },
    {
      "midi": 42,
      "hit": false,
      "t": 128400,
      "d": 125,
      "v": 90
    },
    {
      "midi": 35,
      "hit": false,
      "t": 128400,
      "d": 125,
      "v": 100
    },
    {
      "midi": 77,
      "hit": false,
      "t": 128400,
      "d": 600,
      "v": 98
    },
    {
      "midi": 53,
      "hit": false,
      "t": 128400,
      "d": 600,
      "v": 98
    },
    {
      "midi": 34,
      "hit": false,
      "t": 128420,
      "d": 800,
      "v": 78
    },
    {
      "midi": 60,
      "hit": false,
      "t": 128695,
      "d": 310,
      "v": 91
    },
    {
      "midi": 42,
      "hit": false,
      "t": 128700,
      "d": 125,
      "v": 70
    },
    {
      "midi": 37,
      "hit": false,
      "t": 129000,
      "d": 125,
      "v": 100
    },
    {
      "midi": 42,
      "hit": false,
      "t": 129000,
      "d": 125,
      "v": 80
    },
    {
      "midi": 62,
      "hit": false,
      "t": 129005,
      "d": 320,
      "v": 70
    },
    {
      "midi": 42,
      "hit": false,
      "t": 129300,
      "d": 125,
      "v": 70
    },
    {
      "midi": 35,
      "hit": false,
      "t": 129300,
      "d": 125,
      "v": 80
    },
    {
      "midi": 77,
      "hit": false,
      "t": 129300,
      "d": 150,
      "v": 98
    },
    {
      "midi": 53,
      "hit": false,
      "t": 129300,
      "d": 150,
      "v": 98
    },
    {
      "midi": 65,
      "hit": false,
      "t": 129315,
      "d": 130,
      "v": 68
    },
    {
      "midi": 34,
      "hit": false,
      "t": 129330,
      "d": 90,
      "v": 87
    },
    {
      "midi": 77,
      "hit": false,
      "t": 129450,
      "d": 150,
      "v": 98
    },
    {
      "midi": 53,
      "hit": false,
      "t": 129450,
      "d": 150,
      "v": 98
    },
    {
      "midi": 33,
      "hit": false,
      "t": 129600,
      "d": 705,
      "v": 82
    },
    {
      "midi": 42,
      "hit": false,
      "t": 129600,
      "d": 125,
      "v": 90
    },
    {
      "midi": 35,
      "hit": false,
      "t": 129600,
      "d": 125,
      "v": 100
    },
    {
      "midi": 84,
      "hit": false,
      "t": 129600,
      "d": 450,
      "v": 98
    },
    {
      "midi": 60,
      "hit": false,
      "t": 129600,
      "d": 450,
      "v": 98
    },
    {
      "midi": 57,
      "hit": false,
      "t": 129610,
      "d": 1005,
      "v": 72
    },
    {
      "midi": 64,
      "hit": false,
      "t": 129610,
      "d": 1005,
      "v": 72
    },
    {
      "midi": 42,
      "hit": false,
      "t": 129900,
      "d": 125,
      "v": 70
    },
    {
      "midi": 86,
      "hit": false,
      "t": 130050,
      "d": 450,
      "v": 98
    },
    {
      "midi": 62,
      "hit": false,
      "t": 130050,
      "d": 450,
      "v": 98
    },
    {
      "midi": 37,
      "hit": false,
      "t": 130200,
      "d": 125,
      "v": 100
    },
    {
      "midi": 42,
      "hit": false,
      "t": 130200,
      "d": 125,
      "v": 80
    },
    {
      "midi": 33,
      "hit": false,
      "t": 130490,
      "d": 170,
      "v": 85
    },
    {
      "midi": 42,
      "hit": false,
      "t": 130500,
      "d": 125,
      "v": 70
    },
    {
      "midi": 35,
      "hit": false,
      "t": 130500,
      "d": 125,
      "v": 80
    },
    {
      "midi": 84,
      "hit": false,
      "t": 130500,
      "d": 300,
      "v": 98
    },
    {
      "midi": 60,
      "hit": false,
      "t": 130500,
      "d": 300,
      "v": 98
    },
    {
      "midi": 60,
      "hit": false,
      "t": 130515,
      "d": 100,
      "v": 66
    },
    {
      "midi": 64,
      "hit": false,
      "t": 130670,
      "d": 130,
      "v": 70
    },
    {
      "midi": 38,
      "hit": false,
      "t": 130800,
      "d": 705,
      "v": 82
    },
    {
      "midi": 42,
      "hit": false,
      "t": 130800,
      "d": 125,
      "v": 90
    },
    {
      "midi": 35,
      "hit": false,
      "t": 130800,
      "d": 125,
      "v": 100
    },
    {
      "midi": 57,
      "hit": false,
      "t": 130800,
      "d": 1025,
      "v": 76
    },
    {
      "midi": 77,
      "hit": false,
      "t": 130800,
      "d": 450,
      "v": 98
    },
    {
      "midi": 53,
      "hit": false,
      "t": 130800,
      "d": 450,
      "v": 98
    },
    {
      "midi": 42,
      "hit": false,
      "t": 131100,
      "d": 125,
      "v": 70
    },
    {
      "midi": 62,
      "hit": false,
      "t": 131100,
      "d": 605,
      "v": 68
    },
    {
      "midi": 74,
      "hit": false,
      "t": 131250,
      "d": 150,
      "v": 98
    },
    {
      "midi": 50,
      "hit": false,
      "t": 131250,
      "d": 150,
      "v": 98
    },
    {
      "midi": 37,
      "hit": false,
      "t": 131400,
      "d": 125,
      "v": 100
    },
    {
      "midi": 42,
      "hit": false,
      "t": 131400,
      "d": 125,
      "v": 80
    },
    {
      "midi": 65,
      "hit": false,
      "t": 131400,
      "d": 405,
      "v": 85
    },
    {
      "midi": 77,
      "hit": false,
      "t": 131400,
      "d": 300,
      "v": 98
    },
    {
      "midi": 53,
      "hit": false,
      "t": 131400,
      "d": 300,
      "v": 98
    },
    {
      "midi": 38,
      "hit": false,
      "t": 131690,
      "d": 170,
      "v": 85
    },
    {
      "midi": 42,
      "hit": false,
      "t": 131700,
      "d": 125,
      "v": 70
    },
    {
      "midi": 35,
      "hit": false,
      "t": 131700,
      "d": 125,
      "v": 80
    },
    {
      "midi": 69,
      "hit": false,
      "t": 131700,
      "d": 170,
      "v": 87
    },
    {
      "midi": 79,
      "hit": false,
      "t": 131700,
      "d": 150,
      "v": 98
    },
    {
      "midi": 55,
      "hit": false,
      "t": 131700,
      "d": 150,
      "v": 98
    },
    {
      "midi": 76,
      "hit": false,
      "t": 131850,
      "d": 150,
      "v": 98
    },
    {
      "midi": 74,
      "hit": false,
      "t": 131850,
      "d": 2550,
      "v": 98
    },
    {
      "midi": 81,
      "hit": false,
      "t": 131850,
      "d": 2550,
      "v": 98
    },
    {
      "midi": 52,
      "hit": false,
      "t": 131850,
      "d": 150,
      "v": 98
    },
    {
      "midi": 50,
      "hit": false,
      "t": 131850,
      "d": 2550,
      "v": 98
    },
    {
      "midi": 57,
      "hit": false,
      "t": 131850,
      "d": 2550,
      "v": 98
    },
    {
      "midi": 40,
      "hit": false,
      "t": 132000,
      "d": 855,
      "v": 80
    },
    {
      "midi": 42,
      "hit": false,
      "t": 132000,
      "d": 125,
      "v": 90
    },
    {
      "midi": 35,
      "hit": false,
      "t": 132000,
      "d": 125,
      "v": 100
    },
    {
      "midi": 52,
      "hit": false,
      "t": 132000,
      "d": 980,
      "v": 54
    },
    {
      "midi": 67,
      "hit": false,
      "t": 132000,
      "d": 1200,
      "v": 57
    },
    {
      "midi": 71,
      "hit": false,
      "t": 132000,
      "d": 1225,
      "v": 56
    },
    {
      "midi": 62,
      "hit": false,
      "t": 132000,
      "d": 1245,
      "v": 48
    },
    {
      "midi": 64,
      "hit": false,
      "t": 132000,
      "d": 1245,
      "v": 61
    },
    {
      "midi": 76,
      "hit": false,
      "t": 132000,
      "d": 2400,
      "v": 98
    },
    {
      "midi": 52,
      "hit": false,
      "t": 132000,
      "d": 2400,
      "v": 98
    },
    {
      "midi": 42,
      "hit": false,
      "t": 132300,
      "d": 125,
      "v": 70
    },
    {
      "midi": 37,
      "hit": false,
      "t": 132600,
      "d": 125,
      "v": 100
    },
    {
      "midi": 42,
      "hit": false,
      "t": 132600,
      "d": 125,
      "v": 80
    },
    {
      "midi": 42,
      "hit": false,
      "t": 132900,
      "d": 125,
      "v": 70
    },
    {
      "midi": 35,
      "hit": false,
      "t": 132900,
      "d": 125,
      "v": 80
    },
    {
      "midi": 40,
      "hit": false,
      "t": 132900,
      "d": 1280,
      "v": 49
    },
    {
      "midi": 35,
      "hit": false,
      "t": 132905,
      "d": 300,
      "v": 58
    },
    {
      "midi": 42,
      "hit": false,
      "t": 133200,
      "d": 125,
      "v": 90
    },
    {
      "midi": 35,
      "hit": false,
      "t": 133200,
      "d": 125,
      "v": 100
    },
    {
      "midi": 52,
      "hit": false,
      "t": 133200,
      "d": 1145,
      "v": 52
    },
    {
      "midi": 40,
      "hit": false,
      "t": 133205,
      "d": 100,
      "v": 68
    },
    {
      "midi": 42,
      "hit": false,
      "t": 133500,
      "d": 125,
      "v": 70
    },
    {
      "midi": 35,
      "hit": false,
      "t": 133500,
      "d": 125,
      "v": 80
    },
    {
      "midi": 62,
      "hit": false,
      "t": 133500,
      "d": 815,
      "v": 76
    },
    {
      "midi": 40,
      "hit": false,
      "t": 133510,
      "d": 340,
      "v": 74
    },
    {
      "midi": 37,
      "hit": false,
      "t": 133800,
      "d": 125,
      "v": 100
    },
    {
      "midi": 42,
      "hit": false,
      "t": 133800,
      "d": 125,
      "v": 80
    },
    {
      "midi": 64,
      "hit": false,
      "t": 133800,
      "d": 515,
      "v": 91
    },
    {
      "midi": 40,
      "hit": false,
      "t": 134095,
      "d": 140,
      "v": 76
    },
    {
      "midi": 42,
      "hit": false,
      "t": 134100,
      "d": 125,
      "v": 70
    },
    {
      "midi": 35,
      "hit": false,
      "t": 134100,
      "d": 125,
      "v": 80
    },
    {
      "midi": 67,
      "hit": false,
      "t": 134100,
      "d": 190,
      "v": 87
    },
    {
      "midi": 42,
      "hit": false,
      "t": 134400,
      "d": 125,
      "v": 90
    },
    {
      "midi": 35,
      "hit": false,
      "t": 134400,
      "d": 125,
      "v": 100
    },
    {
      "midi": 69,
      "hit": false,
      "t": 134400,
      "d": 1200,
      "v": 80
    },
    {
      "midi": 61,
      "hit": false,
      "t": 134400,
      "d": 1200,
      "v": 80
    },
    {
      "midi": 64,
      "hit": false,
      "t": 134400,
      "d": 1200,
      "v": 80
    },
    {
      "midi": 67,
      "hit": false,
      "t": 134400,
      "d": 1200,
      "v": 80
    },
    {
      "midi": 81,
      "hit": false,
      "t": 134400,
      "d": 600,
      "v": 98
    },
    {
      "midi": 76,
      "hit": false,
      "t": 134400,
      "d": 600,
      "v": 98
    },
    {
      "midi": 73,
      "hit": false,
      "t": 134400,
      "d": 600,
      "v": 98
    },
    {
      "midi": 57,
      "hit": false,
      "t": 134400,
      "d": 600,
      "v": 98
    },
    {
      "midi": 52,
      "hit": false,
      "t": 134400,
      "d": 600,
      "v": 98
    },
    {
      "midi": 49,
      "hit": false,
      "t": 134400,
      "d": 600,
      "v": 98
    },
    {
      "midi": 33,
      "hit": false,
      "t": 134405,
      "d": 730,
      "v": 72
    },
    {
      "midi": 42,
      "hit": false,
      "t": 134700,
      "d": 125,
      "v": 70
    },
    {
      "midi": 37,
      "hit": false,
      "t": 135000,
      "d": 125,
      "v": 100
    },
    {
      "midi": 42,
      "hit": false,
      "t": 135000,
      "d": 125,
      "v": 80
    },
    {
      "midi": 81,
      "hit": false,
      "t": 135000,
      "d": 600,
      "v": 98
    },
    {
      "midi": 76,
      "hit": false,
      "t": 135000,
      "d": 600,
      "v": 98
    },
    {
      "midi": 73,
      "hit": false,
      "t": 135000,
      "d": 600,
      "v": 98
    },
    {
      "midi": 57,
      "hit": false,
      "t": 135000,
      "d": 600,
      "v": 98
    },
    {
      "midi": 52,
      "hit": false,
      "t": 135000,
      "d": 600,
      "v": 98
    },
    {
      "midi": 49,
      "hit": false,
      "t": 135000,
      "d": 600,
      "v": 98
    },
    {
      "midi": 42,
      "hit": false,
      "t": 135300,
      "d": 125,
      "v": 70
    },
    {
      "midi": 35,
      "hit": false,
      "t": 135300,
      "d": 125,
      "v": 80
    },
    {
      "midi": 33,
      "hit": false,
      "t": 135320,
      "d": 160,
      "v": 74
    },
    {
      "midi": 38,
      "hit": false,
      "t": 135600,
      "d": 600,
      "v": 82
    },
    {
      "midi": 42,
      "hit": false,
      "t": 135600,
      "d": 125,
      "v": 90
    },
    {
      "midi": 35,
      "hit": false,
      "t": 135600,
      "d": 125,
      "v": 100
    },
    {
      "midi": 74,
      "hit": false,
      "t": 135600,
      "d": 450,
      "v": 98
    },
    {
      "midi": 50,
      "hit": false,
      "t": 135600,
      "d": 450,
      "v": 98
    },
    {
      "midi": 57,
      "hit": false,
      "t": 135620,
      "d": 580,
      "v": 80
    },
    {
      "midi": 62,
      "hit": false,
      "t": 135620,
      "d": 580,
      "v": 80
    },
    {
      "midi": 66,
      "hit": false,
      "t": 135620,
      "d": 580,
      "v": 80
    },
    {
      "midi": 42,
      "hit": false,
      "t": 135900,
      "d": 125,
      "v": 70
    },
    {
      "midi": 77,
      "hit": false,
      "t": 136050,
      "d": 450,
      "v": 98
    },
    {
      "midi": 53,
      "hit": false,
      "t": 136050,
      "d": 450,
      "v": 98
    },
    {
      "midi": 38,
      "hit": false,
      "t": 136200,
      "d": 600,
      "v": 82
    },
    {
      "midi": 37,
      "hit": false,
      "t": 136200,
      "d": 125,
      "v": 100
    },
    {
      "midi": 42,
      "hit": false,
      "t": 136200,
      "d": 125,
      "v": 80
    },
    {
      "midi": 57,
      "hit": false,
      "t": 136220,
      "d": 580,
      "v": 80
    },
    {
      "midi": 62,
      "hit": false,
      "t": 136220,
      "d": 580,
      "v": 80
    },
    {
      "midi": 65,
      "hit": false,
      "t": 136220,
      "d": 580,
      "v": 80
    },
    {
      "midi": 42,
      "hit": false,
      "t": 136500,
      "d": 125,
      "v": 70
    },
    {
      "midi": 35,
      "hit": false,
      "t": 136500,
      "d": 125,
      "v": 80
    },
    {
      "midi": 81,
      "hit": false,
      "t": 136500,
      "d": 300,
      "v": 98
    },
    {
      "midi": 57,
      "hit": false,
      "t": 136500,
      "d": 300,
      "v": 98
    },
    {
      "midi": 42,
      "hit": false,
      "t": 136800,
      "d": 125,
      "v": 90
    },
    {
      "midi": 35,
      "hit": false,
      "t": 136800,
      "d": 125,
      "v": 100
    },
    {
      "midi": 67,
      "hit": false,
      "t": 136800,
      "d": 1200,
      "v": 80
    },
    {
      "midi": 58,
      "hit": false,
      "t": 136800,
      "d": 1200,
      "v": 80
    },
    {
      "midi": 62,
      "hit": false,
      "t": 136800,
      "d": 1200,
      "v": 80
    },
    {
      "midi": 65,
      "hit": false,
      "t": 136800,
      "d": 1200,
      "v": 80
    },
    {
      "midi": 86,
      "hit": false,
      "t": 136800,
      "d": 450,
      "v": 98
    },
    {
      "midi": 82,
      "hit": false,
      "t": 136800,
      "d": 450,
      "v": 98
    },
    {
      "midi": 62,
      "hit": false,
      "t": 136800,
      "d": 450,
      "v": 98
    },
    {
      "midi": 58,
      "hit": false,
      "t": 136800,
      "d": 450,
      "v": 98
    },
    {
      "midi": 43,
      "hit": false,
      "t": 136805,
      "d": 730,
      "v": 72
    },
    {
      "midi": 42,
      "hit": false,
      "t": 137100,
      "d": 125,
      "v": 70
    },
    {
      "midi": 86,
      "hit": false,
      "t": 137250,
      "d": 150,
      "v": 98
    },
    {
      "midi": 82,
      "hit": false,
      "t": 137250,
      "d": 150,
      "v": 98
    },
    {
      "midi": 62,
      "hit": false,
      "t": 137250,
      "d": 150,
      "v": 98
    },
    {
      "midi": 58,
      "hit": false,
      "t": 137250,
      "d": 150,
      "v": 98
    },
    {
      "midi": 37,
      "hit": false,
      "t": 137400,
      "d": 125,
      "v": 100
    },
    {
      "midi": 42,
      "hit": false,
      "t": 137400,
      "d": 125,
      "v": 80
    },
    {
      "midi": 86,
      "hit": false,
      "t": 137400,
      "d": 300,
      "v": 98
    },
    {
      "midi": 82,
      "hit": false,
      "t": 137400,
      "d": 300,
      "v": 98
    },
    {
      "midi": 62,
      "hit": false,
      "t": 137400,
      "d": 300,
      "v": 98
    },
    {
      "midi": 58,
      "hit": false,
      "t": 137400,
      "d": 300,
      "v": 98
    },
    {
      "midi": 42,
      "hit": false,
      "t": 137700,
      "d": 125,
      "v": 70
    },
    {
      "midi": 35,
      "hit": false,
      "t": 137700,
      "d": 125,
      "v": 80
    },
    {
      "midi": 86,
      "hit": false,
      "t": 137700,
      "d": 300,
      "v": 98
    },
    {
      "midi": 82,
      "hit": false,
      "t": 137700,
      "d": 300,
      "v": 98
    },
    {
      "midi": 62,
      "hit": false,
      "t": 137700,
      "d": 300,
      "v": 98
    },
    {
      "midi": 58,
      "hit": false,
      "t": 137700,
      "d": 300,
      "v": 98
    },
    {
      "midi": 43,
      "hit": false,
      "t": 137720,
      "d": 160,
      "v": 74
    },
    {
      "midi": 36,
      "hit": false,
      "t": 138000,
      "d": 705,
      "v": 82
    },
    {
      "midi": 42,
      "hit": false,
      "t": 138000,
      "d": 125,
      "v": 90
    },
    {
      "midi": 35,
      "hit": false,
      "t": 138000,
      "d": 125,
      "v": 100
    },
    {
      "midi": 58,
      "hit": false,
      "t": 138000,
      "d": 1025,
      "v": 76
    },
    {
      "midi": 84,
      "hit": false,
      "t": 138000,
      "d": 600,
      "v": 98
    },
    {
      "midi": 60,
      "hit": false,
      "t": 138000,
      "d": 600,
      "v": 98
    },
    {
      "midi": 42,
      "hit": false,
      "t": 138300,
      "d": 125,
      "v": 70
    },
    {
      "midi": 60,
      "hit": false,
      "t": 138300,
      "d": 605,
      "v": 68
    },
    {
      "midi": 37,
      "hit": false,
      "t": 138600,
      "d": 125,
      "v": 100
    },
    {
      "midi": 42,
      "hit": false,
      "t": 138600,
      "d": 125,
      "v": 80
    },
    {
      "midi": 64,
      "hit": false,
      "t": 138600,
      "d": 405,
      "v": 85
    },
    {
      "midi": 81,
      "hit": false,
      "t": 138600,
      "d": 300,
      "v": 98
    },
    {
      "midi": 57,
      "hit": false,
      "t": 138600,
      "d": 300,
      "v": 98
    },
    {
      "midi": 36,
      "hit": false,
      "t": 138890,
      "d": 170,
      "v": 85
    },
    {
      "midi": 42,
      "hit": false,
      "t": 138900,
      "d": 125,
      "v": 70
    },
    {
      "midi": 35,
      "hit": false,
      "t": 138900,
      "d": 125,
      "v": 80
    },
    {
      "midi": 67,
      "hit": false,
      "t": 138900,
      "d": 125,
      "v": 87
    },
    {
      "midi": 79,
      "hit": false,
      "t": 138900,
      "d": 150,
      "v": 98
    },
    {
      "midi": 55,
      "hit": false,
      "t": 138900,
      "d": 150,
      "v": 98
    },
    {
      "midi": 81,
      "hit": false,
      "t": 139050,
      "d": 1950,
      "v": 98
    },
    {
      "midi": 72,
      "hit": false,
      "t": 139050,
      "d": 1950,
      "v": 98
    },
    {
      "midi": 57,
      "hit": false,
      "t": 139050,
      "d": 1950,
      "v": 98
    },
    {
      "midi": 48,
      "hit": false,
      "t": 139050,
      "d": 1950,
      "v": 98
    },
    {
      "midi": 42,
      "hit": false,
      "t": 139200,
      "d": 125,
      "v": 90
    },
    {
      "midi": 35,
      "hit": false,
      "t": 139200,
      "d": 125,
      "v": 100
    },
    {
      "midi": 64,
      "hit": false,
      "t": 139200,
      "d": 740,
      "v": 55
    },
    {
      "midi": 60,
      "hit": false,
      "t": 139200,
      "d": 770,
      "v": 58
    },
    {
      "midi": 55,
      "hit": false,
      "t": 139200,
      "d": 805,
      "v": 42
    },
    {
      "midi": 57,
      "hit": false,
      "t": 139200,
      "d": 815,
      "v": 53
    },
    {
      "midi": 45,
      "hit": false,
      "t": 139225,
      "d": 2080,
      "v": 33
    },
    {
      "midi": 33,
      "hit": false,
      "t": 139230,
      "d": 660,
      "v": 63
    },
    {
      "midi": 42,
      "hit": false,
      "t": 139500,
      "d": 125,
      "v": 70
    },
    {
      "midi": 37,
      "hit": false,
      "t": 139800,
      "d": 125,
      "v": 100
    },
    {
      "midi": 42,
      "hit": false,
      "t": 139800,
      "d": 125,
      "v": 80
    },
    {
      "midi": 42,
      "hit": false,
      "t": 140100,
      "d": 125,
      "v": 70
    },
    {
      "midi": 35,
      "hit": false,
      "t": 140100,
      "d": 125,
      "v": 80
    },
    {
      "midi": 33,
      "hit": false,
      "t": 140115,
      "d": 80,
      "v": 64
    },
    {
      "midi": 64,
      "hit": false,
      "t": 140220,
      "d": 470,
      "v": 58
    },
    {
      "midi": 60,
      "hit": false,
      "t": 140250,
      "d": 445,
      "v": 61
    },
    {
      "midi": 57,
      "hit": false,
      "t": 140305,
      "d": 315,
      "v": 85
    },
    {
      "midi": 55,
      "hit": false,
      "t": 140385,
      "d": 620,
      "v": 85
    },
    {
      "midi": 42,
      "hit": false,
      "t": 140400,
      "d": 125,
      "v": 90
    },
    {
      "midi": 35,
      "hit": false,
      "t": 140400,
      "d": 125,
      "v": 100
    },
    {
      "midi": 33,
      "hit": false,
      "t": 140420,
      "d": 800,
      "v": 78
    },
    {
      "midi": 57,
      "hit": false,
      "t": 140695,
      "d": 610,
      "v": 91
    },
    {
      "midi": 42,
      "hit": false,
      "t": 140700,
      "d": 125,
      "v": 70
    },
    {
      "midi": 37,
      "hit": false,
      "t": 141000,
      "d": 125,
      "v": 100
    },
    {
      "midi": 42,
      "hit": false,
      "t": 141000,
      "d": 125,
      "v": 80
    },
    {
      "midi": 79,
      "hit": false,
      "t": 141000,
      "d": 300,
      "v": 98
    },
    {
      "midi": 55,
      "hit": false,
      "t": 141000,
      "d": 300,
      "v": 98
    },
    {
      "midi": 60,
      "hit": false,
      "t": 141005,
      "d": 320,
      "v": 70
    },
    {
      "midi": 42,
      "hit": false,
      "t": 141300,
      "d": 125,
      "v": 70
    },
    {
      "midi": 35,
      "hit": false,
      "t": 141300,
      "d": 125,
      "v": 80
    },
    {
      "midi": 81,
      "hit": false,
      "t": 141300,
      "d": 300,
      "v": 98
    },
    {
      "midi": 57,
      "hit": false,
      "t": 141300,
      "d": 300,
      "v": 98
    },
    {
      "midi": 64,
      "hit": false,
      "t": 141315,
      "d": 130,
      "v": 68
    },
    {
      "midi": 33,
      "hit": false,
      "t": 141330,
      "d": 90,
      "v": 87
    },
    {
      "midi": 43,
      "hit": false,
      "t": 141600,
      "d": 705,
      "v": 82
    },
    {
      "midi": 42,
      "hit": false,
      "t": 141600,
      "d": 125,
      "v": 90
    },
    {
      "midi": 35,
      "hit": false,
      "t": 141600,
      "d": 125,
      "v": 100
    },
    {
      "midi": 67,
      "hit": false,
      "t": 141600,
      "d": 390,
      "v": 68
    },
    {
      "midi": 58,
      "hit": false,
      "t": 141600,
      "d": 390,
      "v": 68
    },
    {
      "midi": 62,
      "hit": false,
      "t": 141600,
      "d": 390,
      "v": 68
    },
    {
      "midi": 65,
      "hit": false,
      "t": 141600,
      "d": 390,
      "v": 68
    },
    {
      "midi": 82,
      "hit": false,
      "t": 141600,
      "d": 450,
      "v": 98
    },
    {
      "midi": 58,
      "hit": false,
      "t": 141600,
      "d": 450,
      "v": 98
    },
    {
      "midi": 42,
      "hit": false,
      "t": 141900,
      "d": 125,
      "v": 70
    },
    {
      "midi": 43,
      "hit": false,
      "t": 141900,
      "d": 585,
      "v": 78
    },
    {
      "midi": 84,
      "hit": false,
      "t": 142050,
      "d": 450,
      "v": 98
    },
    {
      "midi": 60,
      "hit": false,
      "t": 142050,
      "d": 450,
      "v": 98
    },
    {
      "midi": 37,
      "hit": false,
      "t": 142200,
      "d": 125,
      "v": 100
    },
    {
      "midi": 42,
      "hit": false,
      "t": 142200,
      "d": 125,
      "v": 80
    },
    {
      "midi": 67,
      "hit": false,
      "t": 142200,
      "d": 335,
      "v": 80
    },
    {
      "midi": 58,
      "hit": false,
      "t": 142200,
      "d": 335,
      "v": 80
    },
    {
      "midi": 62,
      "hit": false,
      "t": 142200,
      "d": 335,
      "v": 80
    },
    {
      "midi": 65,
      "hit": false,
      "t": 142200,
      "d": 335,
      "v": 80
    },
    {
      "midi": 43,
      "hit": false,
      "t": 142490,
      "d": 170,
      "v": 85
    },
    {
      "midi": 42,
      "hit": false,
      "t": 142500,
      "d": 125,
      "v": 70
    },
    {
      "midi": 35,
      "hit": false,
      "t": 142500,
      "d": 125,
      "v": 80
    },
    {
      "midi": 82,
      "hit": false,
      "t": 142500,
      "d": 300,
      "v": 98
    },
    {
      "midi": 58,
      "hit": false,
      "t": 142500,
      "d": 300,
      "v": 98
    },
    {
      "midi": 33,
      "hit": false,
      "t": 142800,
      "d": 705,
      "v": 82
    },
    {
      "midi": 42,
      "hit": false,
      "t": 142800,
      "d": 125,
      "v": 90
    },
    {
      "midi": 35,
      "hit": false,
      "t": 142800,
      "d": 125,
      "v": 100
    },
    {
      "midi": 81,
      "hit": false,
      "t": 142800,
      "d": 600,
      "v": 98
    },
    {
      "midi": 73,
      "hit": false,
      "t": 142800,
      "d": 600,
      "v": 98
    },
    {
      "midi": 57,
      "hit": false,
      "t": 142800,
      "d": 600,
      "v": 98
    },
    {
      "midi": 49,
      "hit": false,
      "t": 142800,
      "d": 600,
      "v": 98
    },
    {
      "midi": 69,
      "hit": false,
      "t": 142810,
      "d": 1005,
      "v": 72
    },
    {
      "midi": 64,
      "hit": false,
      "t": 142810,
      "d": 1005,
      "v": 72
    },
    {
      "midi": 67,
      "hit": false,
      "t": 142810,
      "d": 1005,
      "v": 72
    },
    {
      "midi": 42,
      "hit": false,
      "t": 143100,
      "d": 125,
      "v": 70
    },
    {
      "midi": 35,
      "hit": false,
      "t": 143100,
      "d": 125,
      "v": 80
    },
    {
      "midi": 37,
      "hit": false,
      "t": 143400,
      "d": 125,
      "v": 100
    },
    {
      "midi": 42,
      "hit": false,
      "t": 143400,
      "d": 125,
      "v": 80
    },
    {
      "midi": 79,
      "hit": false,
      "t": 143400,
      "d": 300,
      "v": 98
    },
    {
      "midi": 55,
      "hit": false,
      "t": 143400,
      "d": 300,
      "v": 98
    },
    {
      "midi": 33,
      "hit": false,
      "t": 143690,
      "d": 170,
      "v": 85
    },
    {
      "midi": 42,
      "hit": false,
      "t": 143700,
      "d": 125,
      "v": 70
    },
    {
      "midi": 35,
      "hit": false,
      "t": 143700,
      "d": 125,
      "v": 80
    },
    {
      "midi": 77,
      "hit": false,
      "t": 143700,
      "d": 300,
      "v": 98
    },
    {
      "midi": 53,
      "hit": false,
      "t": 143700,
      "d": 300,
      "v": 98
    },
    {
      "midi": 61,
      "hit": false,
      "t": 143715,
      "d": 100,
      "v": 66
    },
    {
      "midi": 42,
      "hit": false,
      "t": 143850,
      "d": 125,
      "v": 60
    },
    {
      "midi": 64,
      "hit": false,
      "t": 143870,
      "d": 130,
      "v": 70
    },
    {
      "midi": 38,
      "hit": false,
      "t": 144000,
      "d": 865,
      "v": 72
    },
    {
      "midi": 42,
      "hit": false,
      "t": 144000,
      "d": 125,
      "v": 90
    },
    {
      "midi": 35,
      "hit": false,
      "t": 144000,
      "d": 125,
      "v": 100
    },
    {
      "midi": 57,
      "hit": false,
      "t": 144000,
      "d": 1970,
      "v": 72
    },
    {
      "midi": 65,
      "hit": false,
      "t": 144000,
      "d": 1970,
      "v": 72
    },
    {
      "midi": 79,
      "hit": false,
      "t": 144000,
      "d": 300,
      "v": 98
    },
    {
      "midi": 55,
      "hit": false,
      "t": 144000,
      "d": 300,
      "v": 98
    },
    {
      "midi": 42,
      "hit": false,
      "t": 144300,
      "d": 125,
      "v": 70
    },
    {
      "midi": 81,
      "hit": false,
      "t": 144300,
      "d": 150,
      "v": 98
    },
    {
      "midi": 57,
      "hit": false,
      "t": 144300,
      "d": 150,
      "v": 98
    },
    {
      "midi": 81,
      "hit": false,
      "t": 144450,
      "d": 750,
      "v": 98
    },
    {
      "midi": 57,
      "hit": false,
      "t": 144450,
      "d": 750,
      "v": 98
    },
    {
      "midi": 37,
      "hit": false,
      "t": 144600,
      "d": 125,
      "v": 100
    },
    {
      "midi": 42,
      "hit": false,
      "t": 144600,
      "d": 125,
      "v": 80
    },
    {
      "midi": 38,
      "hit": false,
      "t": 144900,
      "d": 75,
      "v": 82
    },
    {
      "midi": 42,
      "hit": false,
      "t": 144900,
      "d": 125,
      "v": 70
    },
    {
      "midi": 35,
      "hit": false,
      "t": 144900,
      "d": 125,
      "v": 80
    },
    {
      "midi": 38,
      "hit": false,
      "t": 145200,
      "d": 95,
      "v": 85
    },
    {
      "midi": 42,
      "hit": false,
      "t": 145200,
      "d": 125,
      "v": 90
    },
    {
      "midi": 35,
      "hit": false,
      "t": 145200,
      "d": 125,
      "v": 100
    },
    {
      "midi": 38,
      "hit": false,
      "t": 145500,
      "d": 390,
      "v": 82
    },
    {
      "midi": 42,
      "hit": false,
      "t": 145500,
      "d": 125,
      "v": 70
    },
    {
      "midi": 37,
      "hit": false,
      "t": 145800,
      "d": 125,
      "v": 100
    },
    {
      "midi": 42,
      "hit": false,
      "t": 145800,
      "d": 125,
      "v": 80
    },
    {
      "midi": 62,
      "hit": false,
      "t": 145820,
      "d": 150,
      "v": 61
    },
    {
      "midi": 65,
      "hit": false,
      "t": 145975,
      "d": 210,
      "v": 74
    },
    {
      "midi": 38,
      "hit": false,
      "t": 146100,
      "d": 130,
      "v": 87
    },
    {
      "midi": 42,
      "hit": false,
      "t": 146100,
      "d": 125,
      "v": 70
    },
    {
      "midi": 35,
      "hit": false,
      "t": 146100,
      "d": 125,
      "v": 80
    },
    {
      "midi": 69,
      "hit": false,
      "t": 146125,
      "d": 195,
      "v": 68
    },
    {
      "midi": 74,
      "hit": false,
      "t": 146280,
      "d": 110,
      "v": 68
    },
    {
      "midi": 42,
      "hit": false,
      "t": 146400,
      "d": 125,
      "v": 90
    },
    {
      "midi": 35,
      "hit": false,
      "t": 146400,
      "d": 125,
      "v": 100
    },
    {
      "midi": 46,
      "hit": false,
      "t": 146400,
      "d": 980,
      "v": 54
    },
    {
      "midi": 62,
      "hit": false,
      "t": 146400,
      "d": 1200,
      "v": 57
    },
    {
      "midi": 65,
      "hit": false,
      "t": 146400,
      "d": 1225,
      "v": 56
    },
    {
      "midi": 58,
      "hit": false,
      "t": 146400,
      "d": 1245,
      "v": 61
    },
    {
      "midi": 79,
      "hit": false,
      "t": 146400,
      "d": 300,
      "v": 98
    },
    {
      "midi": 55,
      "hit": false,
      "t": 146400,
      "d": 300,
      "v": 98
    },
    {
      "midi": 34,
      "hit": false,
      "t": 146430,
      "d": 660,
      "v": 63
    },
    {
      "midi": 42,
      "hit": false,
      "t": 146700,
      "d": 125,
      "v": 70
    },
    {
      "midi": 81,
      "hit": false,
      "t": 146700,
      "d": 300,
      "v": 98
    },
    {
      "midi": 57,
      "hit": false,
      "t": 146700,
      "d": 300,
      "v": 98
    },
    {
      "midi": 37,
      "hit": false,
      "t": 147000,
      "d": 125,
      "v": 100
    },
    {
      "midi": 42,
      "hit": false,
      "t": 147000,
      "d": 125,
      "v": 80
    },
    {
      "midi": 74,
      "hit": false,
      "t": 147000,
      "d": 300,
      "v": 98
    },
    {
      "midi": 50,
      "hit": false,
      "t": 147000,
      "d": 300,
      "v": 98
    },
    {
      "midi": 42,
      "hit": false,
      "t": 147300,
      "d": 125,
      "v": 70
    },
    {
      "midi": 35,
      "hit": false,
      "t": 147300,
      "d": 125,
      "v": 80
    },
    {
      "midi": 34,
      "hit": false,
      "t": 147300,
      "d": 1280,
      "v": 49
    },
    {
      "midi": 77,
      "hit": false,
      "t": 147300,
      "d": 150,
      "v": 98
    },
    {
      "midi": 53,
      "hit": false,
      "t": 147300,
      "d": 150,
      "v": 98
    },
    {
      "midi": 34,
      "hit": false,
      "t": 147315,
      "d": 80,
      "v": 64
    },
    {
      "midi": 79,
      "hit": false,
      "t": 147450,
      "d": 150,
      "v": 98
    },
    {
      "midi": 55,
      "hit": false,
      "t": 147450,
      "d": 150,
      "v": 98
    },
    {
      "midi": 42,
      "hit": false,
      "t": 147600,
      "d": 125,
      "v": 90
    },
    {
      "midi": 35,
      "hit": false,
      "t": 147600,
      "d": 125,
      "v": 100
    },
    {
      "midi": 46,
      "hit": false,
      "t": 147600,
      "d": 1145,
      "v": 52
    },
    {
      "midi": 79,
      "hit": false,
      "t": 147600,
      "d": 600,
      "v": 98
    },
    {
      "midi": 55,
      "hit": false,
      "t": 147600,
      "d": 600,
      "v": 98
    },
    {
      "midi": 34,
      "hit": false,
      "t": 147620,
      "d": 800,
      "v": 78
    },
    {
      "midi": 42,
      "hit": false,
      "t": 147900,
      "d": 125,
      "v": 70
    },
    {
      "midi": 58,
      "hit": false,
      "t": 147900,
      "d": 815,
      "v": 76
    },
    {
      "midi": 37,
      "hit": false,
      "t": 148200,
      "d": 125,
      "v": 100
    },
    {
      "midi": 42,
      "hit": false,
      "t": 148200,
      "d": 125,
      "v": 80
    },
    {
      "midi": 42,
      "hit": false,
      "t": 148500,
      "d": 125,
      "v": 70
    },
    {
      "midi": 35,
      "hit": false,
      "t": 148500,
      "d": 125,
      "v": 80
    },
    {
      "midi": 62,
      "hit": false,
      "t": 148500,
      "d": 190,
      "v": 87
    },
    {
      "midi": 34,
      "hit": false,
      "t": 148530,
      "d": 90,
      "v": 87
    },
    {
      "midi": 33,
      "hit": false,
      "t": 148800,
      "d": 865,
      "v": 72
    },
    {
      "midi": 42,
      "hit": false,
      "t": 148800,
      "d": 125,
      "v": 90
    },
    {
      "midi": 35,
      "hit": false,
      "t": 148800,
      "d": 125,
      "v": 100
    },
    {
      "midi": 79,
      "hit": false,
      "t": 148800,
      "d": 300,
      "v": 98
    },
    {
      "midi": 55,
      "hit": false,
      "t": 148800,
      "d": 300,
      "v": 98
    },
    {
      "midi": 57,
      "hit": false,
      "t": 148840,
      "d": 2160,
      "v": 78
    },
    {
      "midi": 60,
      "hit": false,
      "t": 148840,
      "d": 2160,
      "v": 78
    },
    {
      "midi": 65,
      "hit": false,
      "t": 148840,
      "d": 2160,
      "v": 78
    },
    {
      "midi": 42,
      "hit": false,
      "t": 149100,
      "d": 125,
      "v": 70
    },
    {
      "midi": 81,
      "hit": false,
      "t": 149100,
      "d": 300,
      "v": 98
    },
    {
      "midi": 57,
      "hit": false,
      "t": 149100,
      "d": 300,
      "v": 98
    },
    {
      "midi": 37,
      "hit": false,
      "t": 149400,
      "d": 125,
      "v": 100
    },
    {
      "midi": 42,
      "hit": false,
      "t": 149400,
      "d": 125,
      "v": 80
    },
    {
      "midi": 72,
      "hit": false,
      "t": 149400,
      "d": 300,
      "v": 98
    },
    {
      "midi": 48,
      "hit": false,
      "t": 149400,
      "d": 300,
      "v": 98
    },
    {
      "midi": 33,
      "hit": false,
      "t": 149700,
      "d": 75,
      "v": 82
    },
    {
      "midi": 42,
      "hit": false,
      "t": 149700,
      "d": 125,
      "v": 70
    },
    {
      "midi": 35,
      "hit": false,
      "t": 149700,
      "d": 125,
      "v": 80
    },
    {
      "midi": 77,
      "hit": false,
      "t": 149700,
      "d": 150,
      "v": 98
    },
    {
      "midi": 53,
      "hit": false,
      "t": 149700,
      "d": 150,
      "v": 98
    },
    {
      "midi": 79,
      "hit": false,
      "t": 149850,
      "d": 450,
      "v": 98
    },
    {
      "midi": 55,
      "hit": false,
      "t": 149850,
      "d": 450,
      "v": 98
    },
    {
      "midi": 33,
      "hit": false,
      "t": 150000,
      "d": 95,
      "v": 85
    },
    {
      "midi": 42,
      "hit": false,
      "t": 150000,
      "d": 125,
      "v": 90
    },
    {
      "midi": 35,
      "hit": false,
      "t": 150000,
      "d": 125,
      "v": 100
    },
    {
      "midi": 33,
      "hit": false,
      "t": 150300,
      "d": 390,
      "v": 82
    },
    {
      "midi": 42,
      "hit": false,
      "t": 150300,
      "d": 125,
      "v": 70
    },
    {
      "midi": 81,
      "hit": false,
      "t": 150300,
      "d": 300,
      "v": 98
    },
    {
      "midi": 57,
      "hit": false,
      "t": 150300,
      "d": 300,
      "v": 98
    },
    {
      "midi": 37,
      "hit": false,
      "t": 150600,
      "d": 125,
      "v": 100
    },
    {
      "midi": 42,
      "hit": false,
      "t": 150600,
      "d": 125,
      "v": 80
    },
    {
      "midi": 79,
      "hit": false,
      "t": 150600,
      "d": 300,
      "v": 98
    },
    {
      "midi": 55,
      "hit": false,
      "t": 150600,
      "d": 300,
      "v": 98
    },
    {
      "midi": 33,
      "hit": false,
      "t": 150900,
      "d": 130,
      "v": 87
    },
    {
      "midi": 42,
      "hit": false,
      "t": 150900,
      "d": 125,
      "v": 70
    },
    {
      "midi": 35,
      "hit": false,
      "t": 150900,
      "d": 125,
      "v": 80
    },
    {
      "midi": 77,
      "hit": false,
      "t": 150900,
      "d": 300,
      "v": 98
    },
    {
      "midi": 53,
      "hit": false,
      "t": 150900,
      "d": 300,
      "v": 98
    },
    {
      "midi": 43,
      "hit": false,
      "t": 151200,
      "d": 865,
      "v": 72
    },
    {
      "midi": 42,
      "hit": false,
      "t": 151200,
      "d": 125,
      "v": 90
    },
    {
      "midi": 35,
      "hit": false,
      "t": 151200,
      "d": 125,
      "v": 100
    },
    {
      "midi": 74,
      "hit": false,
      "t": 151200,
      "d": 740,
      "v": 55
    },
    {
      "midi": 70,
      "hit": false,
      "t": 151200,
      "d": 770,
      "v": 58
    },
    {
      "midi": 65,
      "hit": false,
      "t": 151200,
      "d": 805,
      "v": 42
    },
    {
      "midi": 67,
      "hit": false,
      "t": 151200,
      "d": 815,
      "v": 53
    },
    {
      "midi": 79,
      "hit": false,
      "t": 151200,
      "d": 450,
      "v": 98
    },
    {
      "midi": 70,
      "hit": false,
      "t": 151200,
      "d": 450,
      "v": 98
    },
    {
      "midi": 55,
      "hit": false,
      "t": 151200,
      "d": 450,
      "v": 98
    },
    {
      "midi": 46,
      "hit": false,
      "t": 151200,
      "d": 450,
      "v": 98
    },
    {
      "midi": 43,
      "hit": false,
      "t": 151225,
      "d": 2080,
      "v": 33
    },
    {
      "midi": 42,
      "hit": false,
      "t": 151500,
      "d": 125,
      "v": 70
    },
    {
      "midi": 77,
      "hit": false,
      "t": 151650,
      "d": 450,
      "v": 98
    },
    {
      "midi": 70,
      "hit": false,
      "t": 151650,
      "d": 450,
      "v": 98
    },
    {
      "midi": 53,
      "hit": false,
      "t": 151650,
      "d": 450,
      "v": 98
    },
    {
      "midi": 46,
      "hit": false,
      "t": 151650,
      "d": 450,
      "v": 98
    },
    {
      "midi": 37,
      "hit": false,
      "t": 151800,
      "d": 125,
      "v": 100
    },
    {
      "midi": 42,
      "hit": false,
      "t": 151800,
      "d": 125,
      "v": 80
    },
    {
      "midi": 43,
      "hit": false,
      "t": 152100,
      "d": 75,
      "v": 82
    },
    {
      "midi": 42,
      "hit": false,
      "t": 152100,
      "d": 125,
      "v": 70
    },
    {
      "midi": 35,
      "hit": false,
      "t": 152100,
      "d": 125,
      "v": 80
    },
    {
      "midi": 76,
      "hit": false,
      "t": 152100,
      "d": 300,
      "v": 98
    },
    {
      "midi": 52,
      "hit": false,
      "t": 152100,
      "d": 300,
      "v": 98
    },
    {
      "midi": 74,
      "hit": false,
      "t": 152220,
      "d": 470,
      "v": 58
    },
    {
      "midi": 70,
      "hit": false,
      "t": 152250,
      "d": 445,
      "v": 61
    },
    {
      "midi": 67,
      "hit": false,
      "t": 152305,
      "d": 315,
      "v": 85
    },
    {
      "midi": 65,
      "hit": false,
      "t": 152385,
      "d": 620,
      "v": 85
    },
    {
      "midi": 43,
      "hit": false,
      "t": 152400,
      "d": 95,
      "v": 85
    },
    {
      "midi": 42,
      "hit": false,
      "t": 152400,
      "d": 125,
      "v": 90
    },
    {
      "midi": 35,
      "hit": false,
      "t": 152400,
      "d": 125,
      "v": 100
    },
    {
      "midi": 77,
      "hit": false,
      "t": 152400,
      "d": 600,
      "v": 98
    },
    {
      "midi": 53,
      "hit": false,
      "t": 152400,
      "d": 600,
      "v": 98
    },
    {
      "midi": 67,
      "hit": false,
      "t": 152695,
      "d": 610,
      "v": 91
    },
    {
      "midi": 43,
      "hit": false,
      "t": 152700,
      "d": 390,
      "v": 82
    },
    {
      "midi": 42,
      "hit": false,
      "t": 152700,
      "d": 125,
      "v": 70
    },
    {
      "midi": 35,
      "hit": false,
      "t": 152700,
      "d": 125,
      "v": 80
    },
    {
      "midi": 37,
      "hit": false,
      "t": 153000,
      "d": 125,
      "v": 100
    },
    {
      "midi": 42,
      "hit": false,
      "t": 153000,
      "d": 125,
      "v": 80
    },
    {
      "midi": 74,
      "hit": false,
      "t": 153000,
      "d": 300,
      "v": 98
    },
    {
      "midi": 50,
      "hit": false,
      "t": 153000,
      "d": 300,
      "v": 98
    },
    {
      "midi": 70,
      "hit": false,
      "t": 153005,
      "d": 320,
      "v": 70
    },
    {
      "midi": 43,
      "hit": false,
      "t": 153300,
      "d": 130,
      "v": 87
    },
    {
      "midi": 42,
      "hit": false,
      "t": 153300,
      "d": 125,
      "v": 70
    },
    {
      "midi": 35,
      "hit": false,
      "t": 153300,
      "d": 125,
      "v": 80
    },
    {
      "midi": 79,
      "hit": false,
      "t": 153300,
      "d": 300,
      "v": 98
    },
    {
      "midi": 55,
      "hit": false,
      "t": 153300,
      "d": 300,
      "v": 98
    },
    {
      "midi": 74,
      "hit": false,
      "t": 153315,
      "d": 130,
      "v": 68
    },
    {
      "midi": 42,
      "hit": false,
      "t": 153450,
      "d": 125,
      "v": 60
    },
    {
      "midi": 33,
      "hit": false,
      "t": 153600,
      "d": 705,
      "v": 82
    },
    {
      "midi": 42,
      "hit": false,
      "t": 153600,
      "d": 125,
      "v": 90
    },
    {
      "midi": 35,
      "hit": false,
      "t": 153600,
      "d": 125,
      "v": 100
    },
    {
      "midi": 81,
      "hit": false,
      "t": 153600,
      "d": 1200,
      "v": 98
    },
    {
      "midi": 76,
      "hit": false,
      "t": 153600,
      "d": 1200,
      "v": 98
    },
    {
      "midi": 73,
      "hit": false,
      "t": 153600,
      "d": 1200,
      "v": 98
    },
    {
      "midi": 57,
      "hit": false,
      "t": 153600,
      "d": 1200,
      "v": 98
    },
    {
      "midi": 52,
      "hit": false,
      "t": 153600,
      "d": 1200,
      "v": 98
    },
    {
      "midi": 49,
      "hit": false,
      "t": 153600,
      "d": 1200,
      "v": 98
    },
    {
      "midi": 57,
      "hit": false,
      "t": 153610,
      "d": 1005,
      "v": 72
    },
    {
      "midi": 64,
      "hit": false,
      "t": 153610,
      "d": 1005,
      "v": 72
    },
    {
      "midi": 42,
      "hit": false,
      "t": 153900,
      "d": 125,
      "v": 70
    },
    {
      "midi": 37,
      "hit": false,
      "t": 154200,
      "d": 125,
      "v": 100
    },
    {
      "midi": 42,
      "hit": false,
      "t": 154200,
      "d": 125,
      "v": 80
    },
    {
      "midi": 33,
      "hit": false,
      "t": 154490,
      "d": 170,
      "v": 85
    },
    {
      "midi": 42,
      "hit": false,
      "t": 154500,
      "d": 125,
      "v": 70
    },
    {
      "midi": 35,
      "hit": false,
      "t": 154500,
      "d": 125,
      "v": 80
    },
    {
      "midi": 61,
      "hit": false,
      "t": 154515,
      "d": 100,
      "v": 66
    },
    {
      "midi": 64,
      "hit": false,
      "t": 154670,
      "d": 130,
      "v": 70
    },
    {
      "midi": 38,
      "hit": false,
      "t": 154800,
      "d": 600,
      "v": 82
    },
    {
      "midi": 42,
      "hit": false,
      "t": 154800,
      "d": 125,
      "v": 90
    },
    {
      "midi": 35,
      "hit": false,
      "t": 154800,
      "d": 125,
      "v": 100
    },
    {
      "midi": 74,
      "hit": false,
      "t": 154800,
      "d": 450,
      "v": 98
    },
    {
      "midi": 50,
      "hit": false,
      "t": 154800,
      "d": 450,
      "v": 98
    },
    {
      "midi": 54,
      "hit": false,
      "t": 154820,
      "d": 580,
      "v": 80
    },
    {
      "midi": 57,
      "hit": false,
      "t": 154820,
      "d": 580,
      "v": 80
    },
    {
      "midi": 62,
      "hit": false,
      "t": 154820,
      "d": 580,
      "v": 80
    },
    {
      "midi": 42,
      "hit": false,
      "t": 155100,
      "d": 125,
      "v": 70
    },
    {
      "midi": 77,
      "hit": false,
      "t": 155250,
      "d": 450,
      "v": 98
    },
    {
      "midi": 53,
      "hit": false,
      "t": 155250,
      "d": 450,
      "v": 98
    },
    {
      "midi": 38,
      "hit": false,
      "t": 155400,
      "d": 600,
      "v": 82
    },
    {
      "midi": 37,
      "hit": false,
      "t": 155400,
      "d": 125,
      "v": 100
    },
    {
      "midi": 42,
      "hit": false,
      "t": 155400,
      "d": 125,
      "v": 80
    },
    {
      "midi": 57,
      "hit": false,
      "t": 155420,
      "d": 580,
      "v": 80
    },
    {
      "midi": 62,
      "hit": false,
      "t": 155420,
      "d": 580,
      "v": 80
    },
    {
      "midi": 65,
      "hit": false,
      "t": 155420,
      "d": 580,
      "v": 80
    },
    {
      "midi": 42,
      "hit": false,
      "t": 155700,
      "d": 125,
      "v": 70
    },
    {
      "midi": 35,
      "hit": false,
      "t": 155700,
      "d": 125,
      "v": 80
    },
    {
      "midi": 81,
      "hit": false,
      "t": 155700,
      "d": 300,
      "v": 98
    },
    {
      "midi": 57,
      "hit": false,
      "t": 155700,
      "d": 300,
      "v": 98
    },
    {
      "midi": 42,
      "hit": false,
      "t": 156000,
      "d": 125,
      "v": 90
    },
    {
      "midi": 35,
      "hit": false,
      "t": 156000,
      "d": 125,
      "v": 100
    },
    {
      "midi": 67,
      "hit": false,
      "t": 156000,
      "d": 390,
      "v": 68
    },
    {
      "midi": 58,
      "hit": false,
      "t": 156000,
      "d": 390,
      "v": 68
    },
    {
      "midi": 62,
      "hit": false,
      "t": 156000,
      "d": 390,
      "v": 68
    },
    {
      "midi": 65,
      "hit": false,
      "t": 156000,
      "d": 390,
      "v": 68
    },
    {
      "midi": 86,
      "hit": false,
      "t": 156000,
      "d": 450,
      "v": 98
    },
    {
      "midi": 82,
      "hit": false,
      "t": 156000,
      "d": 450,
      "v": 98
    },
    {
      "midi": 62,
      "hit": false,
      "t": 156000,
      "d": 450,
      "v": 98
    },
    {
      "midi": 58,
      "hit": false,
      "t": 156000,
      "d": 450,
      "v": 98
    },
    {
      "midi": 43,
      "hit": false,
      "t": 156005,
      "d": 730,
      "v": 72
    },
    {
      "midi": 42,
      "hit": false,
      "t": 156150,
      "d": 125,
      "v": 60
    },
    {
      "midi": 42,
      "hit": false,
      "t": 156300,
      "d": 125,
      "v": 70
    },
    {
      "midi": 43,
      "hit": false,
      "t": 156300,
      "d": 585,
      "v": 78
    },
    {
      "midi": 86,
      "hit": false,
      "t": 156450,
      "d": 450,
      "v": 98
    },
    {
      "midi": 82,
      "hit": false,
      "t": 156450,
      "d": 450,
      "v": 98
    },
    {
      "midi": 62,
      "hit": false,
      "t": 156450,
      "d": 450,
      "v": 98
    },
    {
      "midi": 58,
      "hit": false,
      "t": 156450,
      "d": 450,
      "v": 98
    },
    {
      "midi": 37,
      "hit": false,
      "t": 156600,
      "d": 125,
      "v": 100
    },
    {
      "midi": 42,
      "hit": false,
      "t": 156600,
      "d": 125,
      "v": 80
    },
    {
      "midi": 67,
      "hit": false,
      "t": 156600,
      "d": 335,
      "v": 80
    },
    {
      "midi": 58,
      "hit": false,
      "t": 156600,
      "d": 335,
      "v": 80
    },
    {
      "midi": 62,
      "hit": false,
      "t": 156600,
      "d": 335,
      "v": 80
    },
    {
      "midi": 65,
      "hit": false,
      "t": 156600,
      "d": 335,
      "v": 80
    },
    {
      "midi": 42,
      "hit": false,
      "t": 156900,
      "d": 125,
      "v": 70
    },
    {
      "midi": 35,
      "hit": false,
      "t": 156900,
      "d": 125,
      "v": 80
    },
    {
      "midi": 86,
      "hit": false,
      "t": 156900,
      "d": 300,
      "v": 98
    },
    {
      "midi": 82,
      "hit": false,
      "t": 156900,
      "d": 300,
      "v": 98
    },
    {
      "midi": 62,
      "hit": false,
      "t": 156900,
      "d": 300,
      "v": 98
    },
    {
      "midi": 58,
      "hit": false,
      "t": 156900,
      "d": 300,
      "v": 98
    },
    {
      "midi": 43,
      "hit": false,
      "t": 156920,
      "d": 160,
      "v": 74
    },
    {
      "midi": 42,
      "hit": false,
      "t": 157050,
      "d": 125,
      "v": 60
    },
    {
      "midi": 36,
      "hit": false,
      "t": 157200,
      "d": 705,
      "v": 82
    },
    {
      "midi": 42,
      "hit": false,
      "t": 157200,
      "d": 125,
      "v": 90
    },
    {
      "midi": 35,
      "hit": false,
      "t": 157200,
      "d": 125,
      "v": 100
    },
    {
      "midi": 58,
      "hit": false,
      "t": 157200,
      "d": 1025,
      "v": 76
    },
    {
      "midi": 84,
      "hit": false,
      "t": 157200,
      "d": 600,
      "v": 98
    },
    {
      "midi": 60,
      "hit": false,
      "t": 157200,
      "d": 600,
      "v": 98
    },
    {
      "midi": 42,
      "hit": false,
      "t": 157500,
      "d": 125,
      "v": 70
    },
    {
      "midi": 60,
      "hit": false,
      "t": 157500,
      "d": 605,
      "v": 68
    },
    {
      "midi": 37,
      "hit": false,
      "t": 157800,
      "d": 125,
      "v": 100
    },
    {
      "midi": 42,
      "hit": false,
      "t": 157800,
      "d": 125,
      "v": 80
    },
    {
      "midi": 64,
      "hit": false,
      "t": 157800,
      "d": 405,
      "v": 85
    },
    {
      "midi": 81,
      "hit": false,
      "t": 157800,
      "d": 300,
      "v": 98
    },
    {
      "midi": 57,
      "hit": false,
      "t": 157800,
      "d": 300,
      "v": 98
    },
    {
      "midi": 36,
      "hit": false,
      "t": 158090,
      "d": 170,
      "v": 85
    },
    {
      "midi": 42,
      "hit": false,
      "t": 158100,
      "d": 125,
      "v": 70
    },
    {
      "midi": 35,
      "hit": false,
      "t": 158100,
      "d": 125,
      "v": 80
    },
    {
      "midi": 67,
      "hit": false,
      "t": 158100,
      "d": 125,
      "v": 87
    },
    {
      "midi": 79,
      "hit": false,
      "t": 158100,
      "d": 150,
      "v": 98
    },
    {
      "midi": 55,
      "hit": false,
      "t": 158100,
      "d": 150,
      "v": 98
    },
    {
      "midi": 81,
      "hit": false,
      "t": 158250,
      "d": 150,
      "v": 98
    },
    {
      "midi": 57,
      "hit": false,
      "t": 158250,
      "d": 150,
      "v": 98
    },
    {
      "midi": 33,
      "hit": false,
      "t": 158400,
      "d": 855,
      "v": 80
    },
    {
      "midi": 42,
      "hit": false,
      "t": 158400,
      "d": 125,
      "v": 90
    },
    {
      "midi": 35,
      "hit": false,
      "t": 158400,
      "d": 125,
      "v": 100
    },
    {
      "midi": 81,
      "hit": false,
      "t": 158400,
      "d": 1800,
      "v": 98
    },
    {
      "midi": 57,
      "hit": false,
      "t": 158400,
      "d": 1800,
      "v": 98
    },
    {
      "midi": 69,
      "hit": false,
      "t": 158420,
      "d": 1365,
      "v": 74
    },
    {
      "midi": 60,
      "hit": false,
      "t": 158420,
      "d": 1365,
      "v": 74
    },
    {
      "midi": 64,
      "hit": false,
      "t": 158420,
      "d": 1365,
      "v": 74
    },
    {
      "midi": 67,
      "hit": false,
      "t": 158420,
      "d": 1365,
      "v": 74
    },
    {
      "midi": 42,
      "hit": false,
      "t": 158700,
      "d": 125,
      "v": 70
    },
    {
      "midi": 37,
      "hit": false,
      "t": 159000,
      "d": 125,
      "v": 100
    },
    {
      "midi": 42,
      "hit": false,
      "t": 159000,
      "d": 125,
      "v": 80
    },
    {
      "midi": 42,
      "hit": false,
      "t": 159300,
      "d": 125,
      "v": 70
    },
    {
      "midi": 35,
      "hit": false,
      "t": 159300,
      "d": 125,
      "v": 80
    },
    {
      "midi": 28,
      "hit": false,
      "t": 159305,
      "d": 300,
      "v": 58
    },
    {
      "midi": 42,
      "hit": false,
      "t": 159600,
      "d": 125,
      "v": 90
    },
    {
      "midi": 35,
      "hit": false,
      "t": 159600,
      "d": 125,
      "v": 100
    },
    {
      "midi": 33,
      "hit": false,
      "t": 159605,
      "d": 100,
      "v": 68
    },
    {
      "midi": 42,
      "hit": false,
      "t": 159900,
      "d": 125,
      "v": 70
    },
    {
      "midi": 33,
      "hit": false,
      "t": 159910,
      "d": 340,
      "v": 74
    },
    {
      "midi": 45,
      "hit": false,
      "t": 159915,
      "d": 340,
      "v": 78
    },
    {
      "midi": 37,
      "hit": false,
      "t": 160200,
      "d": 125,
      "v": 100
    },
    {
      "midi": 42,
      "hit": false,
      "t": 160200,
      "d": 125,
      "v": 80
    },
    {
      "midi": 79,
      "hit": false,
      "t": 160200,
      "d": 300,
      "v": 98
    },
    {
      "midi": 55,
      "hit": false,
      "t": 160200,
      "d": 300,
      "v": 98
    },
    {
      "midi": 69,
      "hit": false,
      "t": 160210,
      "d": 420,
      "v": 74
    },
    {
      "midi": 60,
      "hit": false,
      "t": 160210,
      "d": 420,
      "v": 74
    },
    {
      "midi": 64,
      "hit": false,
      "t": 160210,
      "d": 420,
      "v": 74
    },
    {
      "midi": 67,
      "hit": false,
      "t": 160210,
      "d": 420,
      "v": 74
    },
    {
      "midi": 33,
      "hit": false,
      "t": 160495,
      "d": 140,
      "v": 76
    },
    {
      "midi": 42,
      "hit": false,
      "t": 160500,
      "d": 125,
      "v": 70
    },
    {
      "midi": 35,
      "hit": false,
      "t": 160500,
      "d": 125,
      "v": 80
    },
    {
      "midi": 81,
      "hit": false,
      "t": 160500,
      "d": 300,
      "v": 98
    },
    {
      "midi": 57,
      "hit": false,
      "t": 160500,
      "d": 300,
      "v": 98
    },
    {
      "midi": 43,
      "hit": false,
      "t": 160800,
      "d": 705,
      "v": 82
    },
    {
      "midi": 42,
      "hit": false,
      "t": 160800,
      "d": 125,
      "v": 90
    },
    {
      "midi": 35,
      "hit": false,
      "t": 160800,
      "d": 125,
      "v": 100
    },
    {
      "midi": 82,
      "hit": false,
      "t": 160800,
      "d": 450,
      "v": 98
    },
    {
      "midi": 58,
      "hit": false,
      "t": 160800,
      "d": 450,
      "v": 98
    },
    {
      "midi": 67,
      "hit": false,
      "t": 160810,
      "d": 1005,
      "v": 72
    },
    {
      "midi": 62,
      "hit": false,
      "t": 160810,
      "d": 1005,
      "v": 72
    },
    {
      "midi": 65,
      "hit": false,
      "t": 160810,
      "d": 1005,
      "v": 72
    },
    {
      "midi": 42,
      "hit": false,
      "t": 161100,
      "d": 125,
      "v": 70
    },
    {
      "midi": 84,
      "hit": false,
      "t": 161250,
      "d": 450,
      "v": 98
    },
    {
      "midi": 60,
      "hit": false,
      "t": 161250,
      "d": 450,
      "v": 98
    },
    {
      "midi": 37,
      "hit": false,
      "t": 161400,
      "d": 125,
      "v": 100
    },
    {
      "midi": 42,
      "hit": false,
      "t": 161400,
      "d": 125,
      "v": 80
    },
    {
      "midi": 43,
      "hit": false,
      "t": 161690,
      "d": 170,
      "v": 85
    },
    {
      "midi": 42,
      "hit": false,
      "t": 161700,
      "d": 125,
      "v": 70
    },
    {
      "midi": 35,
      "hit": false,
      "t": 161700,
      "d": 125,
      "v": 80
    },
    {
      "midi": 82,
      "hit": false,
      "t": 161700,
      "d": 300,
      "v": 98
    },
    {
      "midi": 58,
      "hit": false,
      "t": 161700,
      "d": 300,
      "v": 98
    },
    {
      "midi": 58,
      "hit": false,
      "t": 161715,
      "d": 100,
      "v": 66
    },
    {
      "midi": 62,
      "hit": false,
      "t": 161870,
      "d": 130,
      "v": 70
    },
    {
      "midi": 42,
      "hit": false,
      "t": 162000,
      "d": 125,
      "v": 90
    },
    {
      "midi": 35,
      "hit": false,
      "t": 162000,
      "d": 125,
      "v": 100
    },
    {
      "midi": 69,
      "hit": false,
      "t": 162000,
      "d": 1025,
      "v": 76
    },
    {
      "midi": 67,
      "hit": false,
      "t": 162000,
      "d": 1025,
      "v": 76
    },
    {
      "midi": 81,
      "hit": false,
      "t": 162000,
      "d": 450,
      "v": 98
    },
    {
      "midi": 73,
      "hit": false,
      "t": 162000,
      "d": 450,
      "v": 98
    },
    {
      "midi": 57,
      "hit": false,
      "t": 162000,
      "d": 450,
      "v": 98
    },
    {
      "midi": 49,
      "hit": false,
      "t": 162000,
      "d": 450,
      "v": 98
    },
    {
      "midi": 33,
      "hit": false,
      "t": 162005,
      "d": 730,
      "v": 72
    },
    {
      "midi": 42,
      "hit": false,
      "t": 162300,
      "d": 125,
      "v": 70
    },
    {
      "midi": 35,
      "hit": false,
      "t": 162300,
      "d": 125,
      "v": 80
    },
    {
      "midi": 57,
      "hit": false,
      "t": 162300,
      "d": 605,
      "v": 68
    },
    {
      "midi": 79,
      "hit": false,
      "t": 162450,
      "d": 450,
      "v": 98
    },
    {
      "midi": 55,
      "hit": false,
      "t": 162450,
      "d": 450,
      "v": 98
    },
    {
      "midi": 37,
      "hit": false,
      "t": 162600,
      "d": 125,
      "v": 100
    },
    {
      "midi": 42,
      "hit": false,
      "t": 162600,
      "d": 125,
      "v": 80
    },
    {
      "midi": 61,
      "hit": false,
      "t": 162600,
      "d": 405,
      "v": 85
    },
    {
      "midi": 42,
      "hit": false,
      "t": 162900,
      "d": 125,
      "v": 70
    },
    {
      "midi": 35,
      "hit": false,
      "t": 162900,
      "d": 125,
      "v": 80
    },
    {
      "midi": 64,
      "hit": false,
      "t": 162900,
      "d": 125,
      "v": 87
    },
    {
      "midi": 84,
      "hit": false,
      "t": 162900,
      "d": 300,
      "v": 98
    },
    {
      "midi": 60,
      "hit": false,
      "t": 162900,
      "d": 300,
      "v": 98
    },
    {
      "midi": 33,
      "hit": false,
      "t": 162920,
      "d": 160,
      "v": 74
    },
    {
      "midi": 38,
      "hit": false,
      "t": 163200,
      "d": 705,
      "v": 82
    },
    {
      "midi": 42,
      "hit": false,
      "t": 163200,
      "d": 125,
      "v": 90
    },
    {
      "midi": 35,
      "hit": false,
      "t": 163200,
      "d": 125,
      "v": 100
    },
    {
      "midi": 57,
      "hit": false,
      "t": 163200,
      "d": 1025,
      "v": 76
    },
    {
      "midi": 81,
      "hit": false,
      "t": 163200,
      "d": 600,
      "v": 98
    },
    {
      "midi": 57,
      "hit": false,
      "t": 163200,
      "d": 600,
      "v": 98
    },
    {
      "midi": 42,
      "hit": false,
      "t": 163500,
      "d": 125,
      "v": 70
    },
    {
      "midi": 62,
      "hit": false,
      "t": 163500,
      "d": 605,
      "v": 68
    },
    {
      "midi": 37,
      "hit": false,
      "t": 163800,
      "d": 125,
      "v": 100
    },
    {
      "midi": 42,
      "hit": false,
      "t": 163800,
      "d": 125,
      "v": 80
    },
    {
      "midi": 65,
      "hit": false,
      "t": 163800,
      "d": 405,
      "v": 85
    },
    {
      "midi": 38,
      "hit": false,
      "t": 164090,
      "d": 170,
      "v": 85
    },
    {
      "midi": 42,
      "hit": false,
      "t": 164100,
      "d": 125,
      "v": 70
    },
    {
      "midi": 35,
      "hit": false,
      "t": 164100,
      "d": 125,
      "v": 80
    },
    {
      "midi": 69,
      "hit": false,
      "t": 164100,
      "d": 170,
      "v": 87
    },
    {
      "midi": 42,
      "hit": false,
      "t": 164400,
      "d": 125,
      "v": 90
    },
    {
      "midi": 35,
      "hit": false,
      "t": 164400,
      "d": 125,
      "v": 100
    },
    {
      "midi": 43,
      "hit": false,
      "t": 164405,
      "d": 730,
      "v": 72
    },
    {
      "midi": 55,
      "hit": false,
      "t": 164410,
      "d": 1005,
      "v": 72
    },
    {
      "midi": 62,
      "hit": false,
      "t": 164410,
      "d": 1005,
      "v": 72
    },
    {
      "midi": 42,
      "hit": false,
      "t": 164700,
      "d": 125,
      "v": 70
    },
    {
      "midi": 37,
      "hit": false,
      "t": 165000,
      "d": 125,
      "v": 100
    },
    {
      "midi": 42,
      "hit": false,
      "t": 165000,
      "d": 125,
      "v": 80
    },
    {
      "midi": 42,
      "hit": false,
      "t": 165300,
      "d": 125,
      "v": 70
    },
    {
      "midi": 35,
      "hit": false,
      "t": 165300,
      "d": 125,
      "v": 80
    },
    {
      "midi": 59,
      "hit": false,
      "t": 165315,
      "d": 100,
      "v": 66
    },
    {
      "midi": 43,
      "hit": false,
      "t": 165320,
      "d": 160,
      "v": 74
    },
    {
      "midi": 62,
      "hit": false,
      "t": 165470,
      "d": 130,
      "v": 70
    },
    {
      "midi": 43,
      "hit": false,
      "t": 165600,
      "d": 705,
      "v": 82
    },
    {
      "midi": 42,
      "hit": false,
      "t": 165600,
      "d": 125,
      "v": 90
    },
    {
      "midi": 35,
      "hit": false,
      "t": 165600,
      "d": 125,
      "v": 100
    },
    {
      "midi": 67,
      "hit": false,
      "t": 165600,
      "d": 390,
      "v": 68
    },
    {
      "midi": 58,
      "hit": false,
      "t": 165600,
      "d": 390,
      "v": 68
    },
    {
      "midi": 62,
      "hit": false,
      "t": 165600,
      "d": 390,
      "v": 68
    },
    {
      "midi": 65,
      "hit": false,
      "t": 165600,
      "d": 390,
      "v": 68
    },
    {
      "midi": 81,
      "hit": false,
      "t": 165600,
      "d": 450,
      "v": 98
    },
    {
      "midi": 70,
      "hit": false,
      "t": 165600,
      "d": 450,
      "v": 98
    },
    {
      "midi": 57,
      "hit": false,
      "t": 165600,
      "d": 450,
      "v": 98
    },
    {
      "midi": 46,
      "hit": false,
      "t": 165600,
      "d": 450,
      "v": 98
    },
    {
      "midi": 42,
      "hit": false,
      "t": 165900,
      "d": 125,
      "v": 70
    },
    {
      "midi": 43,
      "hit": false,
      "t": 165900,
      "d": 585,
      "v": 78
    },
    {
      "midi": 79,
      "hit": false,
      "t": 166050,
      "d": 450,
      "v": 98
    },
    {
      "midi": 55,
      "hit": false,
      "t": 166050,
      "d": 450,
      "v": 98
    },
    {
      "midi": 37,
      "hit": false,
      "t": 166200,
      "d": 125,
      "v": 100
    },
    {
      "midi": 42,
      "hit": false,
      "t": 166200,
      "d": 125,
      "v": 80
    },
    {
      "midi": 67,
      "hit": false,
      "t": 166200,
      "d": 335,
      "v": 80
    },
    {
      "midi": 58,
      "hit": false,
      "t": 166200,
      "d": 335,
      "v": 80
    },
    {
      "midi": 62,
      "hit": false,
      "t": 166200,
      "d": 335,
      "v": 80
    },
    {
      "midi": 65,
      "hit": false,
      "t": 166200,
      "d": 335,
      "v": 80
    },
    {
      "midi": 43,
      "hit": false,
      "t": 166490,
      "d": 170,
      "v": 85
    },
    {
      "midi": 42,
      "hit": false,
      "t": 166500,
      "d": 125,
      "v": 70
    },
    {
      "midi": 35,
      "hit": false,
      "t": 166500,
      "d": 125,
      "v": 80
    },
    {
      "midi": 77,
      "hit": false,
      "t": 166500,
      "d": 300,
      "v": 98
    },
    {
      "midi": 53,
      "hit": false,
      "t": 166500,
      "d": 300,
      "v": 98
    },
    {
      "midi": 42,
      "hit": false,
      "t": 166800,
      "d": 125,
      "v": 90
    },
    {
      "midi": 35,
      "hit": false,
      "t": 166800,
      "d": 125,
      "v": 100
    },
    {
      "midi": 69,
      "hit": false,
      "t": 166800,
      "d": 1025,
      "v": 76
    },
    {
      "midi": 67,
      "hit": false,
      "t": 166800,
      "d": 1025,
      "v": 76
    },
    {
      "midi": 79,
      "hit": false,
      "t": 166800,
      "d": 450,
      "v": 98
    },
    {
      "midi": 72,
      "hit": false,
      "t": 166800,
      "d": 450,
      "v": 98
    },
    {
      "midi": 55,
      "hit": false,
      "t": 166800,
      "d": 450,
      "v": 98
    },
    {
      "midi": 48,
      "hit": false,
      "t": 166800,
      "d": 450,
      "v": 98
    },
    {
      "midi": 33,
      "hit": false,
      "t": 166805,
      "d": 730,
      "v": 72
    },
    {
      "midi": 42,
      "hit": false,
      "t": 167100,
      "d": 125,
      "v": 70
    },
    {
      "midi": 57,
      "hit": false,
      "t": 167100,
      "d": 605,
      "v": 68
    },
    {
      "midi": 77,
      "hit": false,
      "t": 167250,
      "d": 450,
      "v": 98
    },
    {
      "midi": 53,
      "hit": false,
      "t": 167250,
      "d": 450,
      "v": 98
    },
    {
      "midi": 37,
      "hit": false,
      "t": 167400,
      "d": 125,
      "v": 100
    },
    {
      "midi": 42,
      "hit": false,
      "t": 167400,
      "d": 125,
      "v": 80
    },
    {
      "midi": 60,
      "hit": false,
      "t": 167400,
      "d": 405,
      "v": 85
    },
    {
      "midi": 42,
      "hit": false,
      "t": 167700,
      "d": 125,
      "v": 70
    },
    {
      "midi": 35,
      "hit": false,
      "t": 167700,
      "d": 125,
      "v": 80
    },
    {
      "midi": 64,
      "hit": false,
      "t": 167700,
      "d": 125,
      "v": 87
    },
    {
      "midi": 76,
      "hit": false,
      "t": 167700,
      "d": 300,
      "v": 98
    },
    {
      "midi": 52,
      "hit": false,
      "t": 167700,
      "d": 300,
      "v": 98
    },
    {
      "midi": 33,
      "hit": false,
      "t": 167720,
      "d": 160,
      "v": 74
    },
    {
      "midi": 42,
      "hit": false,
      "t": 168000,
      "d": 125,
      "v": 90
    },
    {
      "midi": 35,
      "hit": false,
      "t": 168000,
      "d": 125,
      "v": 100
    },
    {
      "midi": 74,
      "hit": false,
      "t": 168000,
      "d": 600,
      "v": 98
    },
    {
      "midi": 70,
      "hit": false,
      "t": 168000,
      "d": 600,
      "v": 98
    },
    {
      "midi": 50,
      "hit": false,
      "t": 168000,
      "d": 600,
      "v": 98
    },
    {
      "midi": 46,
      "hit": false,
      "t": 168000,
      "d": 600,
      "v": 98
    },
    {
      "midi": 70,
      "hit": false,
      "t": 168020,
      "d": 1365,
      "v": 74
    },
    {
      "midi": 61,
      "hit": false,
      "t": 168020,
      "d": 1365,
      "v": 74
    },
    {
      "midi": 65,
      "hit": false,
      "t": 168020,
      "d": 1365,
      "v": 74
    },
    {
      "midi": 68,
      "hit": false,
      "t": 168020,
      "d": 1365,
      "v": 74
    },
    {
      "midi": 34,
      "hit": false,
      "t": 168030,
      "d": 660,
      "v": 63
    },
    {
      "midi": 42,
      "hit": false,
      "t": 168300,
      "d": 125,
      "v": 70
    },
    {
      "midi": 37,
      "hit": false,
      "t": 168600,
      "d": 125,
      "v": 100
    },
    {
      "midi": 42,
      "hit": false,
      "t": 168600,
      "d": 125,
      "v": 80
    },
    {
      "midi": 42,
      "hit": false,
      "t": 168900,
      "d": 125,
      "v": 70
    },
    {
      "midi": 35,
      "hit": false,
      "t": 168900,
      "d": 125,
      "v": 80
    },
    {
      "midi": 34,
      "hit": false,
      "t": 168915,
      "d": 80,
      "v": 64
    },
    {
      "midi": 42,
      "hit": false,
      "t": 169200,
      "d": 125,
      "v": 90
    },
    {
      "midi": 35,
      "hit": false,
      "t": 169200,
      "d": 125,
      "v": 100
    },
    {
      "midi": 34,
      "hit": false,
      "t": 169220,
      "d": 800,
      "v": 78
    },
    {
      "midi": 42,
      "hit": false,
      "t": 169500,
      "d": 125,
      "v": 70
    },
    {
      "midi": 46,
      "hit": false,
      "t": 169515,
      "d": 340,
      "v": 78
    },
    {
      "midi": 37,
      "hit": false,
      "t": 169800,
      "d": 125,
      "v": 100
    },
    {
      "midi": 42,
      "hit": false,
      "t": 169800,
      "d": 125,
      "v": 80
    },
    {
      "midi": 70,
      "hit": false,
      "t": 169810,
      "d": 420,
      "v": 74
    },
    {
      "midi": 61,
      "hit": false,
      "t": 169810,
      "d": 420,
      "v": 74
    },
    {
      "midi": 65,
      "hit": false,
      "t": 169810,
      "d": 420,
      "v": 74
    },
    {
      "midi": 68,
      "hit": false,
      "t": 169810,
      "d": 420,
      "v": 74
    },
    {
      "midi": 42,
      "hit": false,
      "t": 170100,
      "d": 125,
      "v": 70
    },
    {
      "midi": 35,
      "hit": false,
      "t": 170100,
      "d": 125,
      "v": 80
    },
    {
      "midi": 79,
      "hit": false,
      "t": 170100,
      "d": 300,
      "v": 98
    },
    {
      "midi": 55,
      "hit": false,
      "t": 170100,
      "d": 300,
      "v": 98
    },
    {
      "midi": 34,
      "hit": false,
      "t": 170130,
      "d": 90,
      "v": 87
    },
    {
      "midi": 43,
      "hit": false,
      "t": 170400,
      "d": 705,
      "v": 82
    },
    {
      "midi": 42,
      "hit": false,
      "t": 170400,
      "d": 125,
      "v": 90
    },
    {
      "midi": 35,
      "hit": false,
      "t": 170400,
      "d": 125,
      "v": 100
    },
    {
      "midi": 67,
      "hit": false,
      "t": 170400,
      "d": 1025,
      "v": 76
    },
    {
      "midi": 65,
      "hit": false,
      "t": 170400,
      "d": 1025,
      "v": 76
    },
    {
      "midi": 81,
      "hit": false,
      "t": 170400,
      "d": 450,
      "v": 98
    },
    {
      "midi": 70,
      "hit": false,
      "t": 170400,
      "d": 450,
      "v": 98
    },
    {
      "midi": 57,
      "hit": false,
      "t": 170400,
      "d": 450,
      "v": 98
    },
    {
      "midi": 46,
      "hit": false,
      "t": 170400,
      "d": 450,
      "v": 98
    },
    {
      "midi": 42,
      "hit": false,
      "t": 170700,
      "d": 125,
      "v": 70
    },
    {
      "midi": 55,
      "hit": false,
      "t": 170700,
      "d": 605,
      "v": 68
    },
    {
      "midi": 79,
      "hit": false,
      "t": 170850,
      "d": 450,
      "v": 98
    },
    {
      "midi": 55,
      "hit": false,
      "t": 170850,
      "d": 450,
      "v": 98
    },
    {
      "midi": 37,
      "hit": false,
      "t": 171000,
      "d": 125,
      "v": 100
    },
    {
      "midi": 42,
      "hit": false,
      "t": 171000,
      "d": 125,
      "v": 80
    },
    {
      "midi": 58,
      "hit": false,
      "t": 171000,
      "d": 405,
      "v": 85
    },
    {
      "midi": 43,
      "hit": false,
      "t": 171290,
      "d": 170,
      "v": 85
    },
    {
      "midi": 42,
      "hit": false,
      "t": 171300,
      "d": 125,
      "v": 70
    },
    {
      "midi": 35,
      "hit": false,
      "t": 171300,
      "d": 125,
      "v": 80
    },
    {
      "midi": 62,
      "hit": false,
      "t": 171300,
      "d": 125,
      "v": 87
    },
    {
      "midi": 77,
      "hit": false,
      "t": 171300,
      "d": 300,
      "v": 98
    },
    {
      "midi": 53,
      "hit": false,
      "t": 171300,
      "d": 300,
      "v": 98
    },
    {
      "midi": 33,
      "hit": false,
      "t": 171600,
      "d": 705,
      "v": 82
    },
    {
      "midi": 42,
      "hit": false,
      "t": 171600,
      "d": 125,
      "v": 90
    },
    {
      "midi": 35,
      "hit": false,
      "t": 171600,
      "d": 125,
      "v": 100
    },
    {
      "midi": 69,
      "hit": false,
      "t": 171600,
      "d": 1025,
      "v": 76
    },
    {
      "midi": 67,
      "hit": false,
      "t": 171600,
      "d": 1025,
      "v": 76
    },
    {
      "midi": 79,
      "hit": false,
      "t": 171600,
      "d": 450,
      "v": 98
    },
    {
      "midi": 72,
      "hit": false,
      "t": 171600,
      "d": 450,
      "v": 98
    },
    {
      "midi": 55,
      "hit": false,
      "t": 171600,
      "d": 450,
      "v": 98
    },
    {
      "midi": 48,
      "hit": false,
      "t": 171600,
      "d": 450,
      "v": 98
    },
    {
      "midi": 42,
      "hit": false,
      "t": 171900,
      "d": 125,
      "v": 70
    },
    {
      "midi": 57,
      "hit": false,
      "t": 171900,
      "d": 605,
      "v": 68
    },
    {
      "midi": 81,
      "hit": false,
      "t": 172050,
      "d": 450,
      "v": 98
    },
    {
      "midi": 57,
      "hit": false,
      "t": 172050,
      "d": 450,
      "v": 98
    },
    {
      "midi": 37,
      "hit": false,
      "t": 172200,
      "d": 125,
      "v": 100
    },
    {
      "midi": 42,
      "hit": false,
      "t": 172200,
      "d": 125,
      "v": 80
    },
    {
      "midi": 60,
      "hit": false,
      "t": 172200,
      "d": 405,
      "v": 85
    },
    {
      "midi": 33,
      "hit": false,
      "t": 172490,
      "d": 170,
      "v": 85
    },
    {
      "midi": 42,
      "hit": false,
      "t": 172500,
      "d": 125,
      "v": 70
    },
    {
      "midi": 35,
      "hit": false,
      "t": 172500,
      "d": 125,
      "v": 80
    },
    {
      "midi": 64,
      "hit": false,
      "t": 172500,
      "d": 125,
      "v": 87
    },
    {
      "midi": 79,
      "hit": false,
      "t": 172500,
      "d": 300,
      "v": 98
    },
    {
      "midi": 55,
      "hit": false,
      "t": 172500,
      "d": 300,
      "v": 98
    },
    {
      "midi": 42,
      "hit": false,
      "t": 172800,
      "d": 125,
      "v": 90
    },
    {
      "midi": 35,
      "hit": false,
      "t": 172800,
      "d": 125,
      "v": 100
    },
    {
      "midi": 70,
      "hit": false,
      "t": 172800,
      "d": 1025,
      "v": 76
    },
    {
      "midi": 68,
      "hit": false,
      "t": 172800,
      "d": 1025,
      "v": 76
    },
    {
      "midi": 77,
      "hit": false,
      "t": 172800,
      "d": 600,
      "v": 98
    },
    {
      "midi": 74,
      "hit": false,
      "t": 172800,
      "d": 600,
      "v": 98
    },
    {
      "midi": 53,
      "hit": false,
      "t": 172800,
      "d": 600,
      "v": 98
    },
    {
      "midi": 50,
      "hit": false,
      "t": 172800,
      "d": 600,
      "v": 98
    },
    {
      "midi": 34,
      "hit": false,
      "t": 172805,
      "d": 730,
      "v": 72
    },
    {
      "midi": 42,
      "hit": false,
      "t": 173100,
      "d": 125,
      "v": 70
    },
    {
      "midi": 58,
      "hit": false,
      "t": 173100,
      "d": 605,
      "v": 68
    },
    {
      "midi": 37,
      "hit": false,
      "t": 173400,
      "d": 125,
      "v": 100
    },
    {
      "midi": 42,
      "hit": false,
      "t": 173400,
      "d": 125,
      "v": 80
    },
    {
      "midi": 61,
      "hit": false,
      "t": 173400,
      "d": 405,
      "v": 85
    },
    {
      "midi": 42,
      "hit": false,
      "t": 173700,
      "d": 125,
      "v": 70
    },
    {
      "midi": 35,
      "hit": false,
      "t": 173700,
      "d": 125,
      "v": 80
    },
    {
      "midi": 65,
      "hit": false,
      "t": 173700,
      "d": 125,
      "v": 87
    },
    {
      "midi": 34,
      "hit": false,
      "t": 173720,
      "d": 160,
      "v": 74
    },
    {
      "midi": 42,
      "hit": false,
      "t": 174000,
      "d": 125,
      "v": 90
    },
    {
      "midi": 35,
      "hit": false,
      "t": 174000,
      "d": 125,
      "v": 100
    },
    {
      "midi": 69,
      "hit": false,
      "t": 174000,
      "d": 390,
      "v": 68
    },
    {
      "midi": 60,
      "hit": false,
      "t": 174000,
      "d": 390,
      "v": 68
    },
    {
      "midi": 64,
      "hit": false,
      "t": 174000,
      "d": 390,
      "v": 68
    },
    {
      "midi": 67,
      "hit": false,
      "t": 174000,
      "d": 390,
      "v": 68
    },
    {
      "midi": 76,
      "hit": false,
      "t": 174000,
      "d": 450,
      "v": 98
    },
    {
      "midi": 72,
      "hit": false,
      "t": 174000,
      "d": 450,
      "v": 98
    },
    {
      "midi": 52,
      "hit": false,
      "t": 174000,
      "d": 450,
      "v": 98
    },
    {
      "midi": 48,
      "hit": false,
      "t": 174000,
      "d": 450,
      "v": 98
    },
    {
      "midi": 33,
      "hit": false,
      "t": 174005,
      "d": 730,
      "v": 72
    },
    {
      "midi": 42,
      "hit": false,
      "t": 174300,
      "d": 125,
      "v": 70
    },
    {
      "midi": 45,
      "hit": false,
      "t": 174300,
      "d": 585,
      "v": 78
    },
    {
      "midi": 77,
      "hit": false,
      "t": 174450,
      "d": 450,
      "v": 98
    },
    {
      "midi": 53,
      "hit": false,
      "t": 174450,
      "d": 450,
      "v": 98
    },
    {
      "midi": 37,
      "hit": false,
      "t": 174600,
      "d": 125,
      "v": 100
    },
    {
      "midi": 42,
      "hit": false,
      "t": 174600,
      "d": 125,
      "v": 80
    },
    {
      "midi": 69,
      "hit": false,
      "t": 174600,
      "d": 335,
      "v": 80
    },
    {
      "midi": 60,
      "hit": false,
      "t": 174600,
      "d": 335,
      "v": 80
    },
    {
      "midi": 64,
      "hit": false,
      "t": 174600,
      "d": 335,
      "v": 80
    },
    {
      "midi": 67,
      "hit": false,
      "t": 174600,
      "d": 335,
      "v": 80
    },
    {
      "midi": 42,
      "hit": false,
      "t": 174900,
      "d": 125,
      "v": 70
    },
    {
      "midi": 35,
      "hit": false,
      "t": 174900,
      "d": 125,
      "v": 80
    },
    {
      "midi": 76,
      "hit": false,
      "t": 174900,
      "d": 300,
      "v": 98
    },
    {
      "midi": 52,
      "hit": false,
      "t": 174900,
      "d": 300,
      "v": 98
    },
    {
      "midi": 33,
      "hit": false,
      "t": 174920,
      "d": 160,
      "v": 74
    },
    {
      "midi": 42,
      "hit": false,
      "t": 175200,
      "d": 125,
      "v": 90
    },
    {
      "midi": 35,
      "hit": false,
      "t": 175200,
      "d": 125,
      "v": 100
    },
    {
      "midi": 74,
      "hit": false,
      "t": 175200,
      "d": 600,
      "v": 98
    },
    {
      "midi": 50,
      "hit": false,
      "t": 175200,
      "d": 600,
      "v": 98
    },
    {
      "midi": 38,
      "hit": false,
      "t": 175205,
      "d": 730,
      "v": 72
    },
    {
      "midi": 57,
      "hit": false,
      "t": 175210,
      "d": 1005,
      "v": 72
    },
    {
      "midi": 62,
      "hit": false,
      "t": 175210,
      "d": 1005,
      "v": 72
    },
    {
      "midi": 42,
      "hit": false,
      "t": 175500,
      "d": 125,
      "v": 70
    },
    {
      "midi": 37,
      "hit": false,
      "t": 175800,
      "d": 125,
      "v": 100
    },
    {
      "midi": 42,
      "hit": false,
      "t": 175800,
      "d": 125,
      "v": 80
    },
    {
      "midi": 42,
      "hit": false,
      "t": 176100,
      "d": 125,
      "v": 70
    },
    {
      "midi": 35,
      "hit": false,
      "t": 176100,
      "d": 125,
      "v": 80
    },
    {
      "midi": 65,
      "hit": false,
      "t": 176115,
      "d": 100,
      "v": 66
    },
    {
      "midi": 38,
      "hit": false,
      "t": 176120,
      "d": 160,
      "v": 74
    },
    {
      "midi": 69,
      "hit": false,
      "t": 176270,
      "d": 130,
      "v": 70
    },
    {
      "midi": 38,
      "hit": false,
      "t": 176400,
      "d": 600,
      "v": 82
    },
    {
      "midi": 42,
      "hit": false,
      "t": 176400,
      "d": 125,
      "v": 90
    },
    {
      "midi": 35,
      "hit": false,
      "t": 176400,
      "d": 125,
      "v": 100
    },
    {
      "midi": 57,
      "hit": false,
      "t": 176420,
      "d": 580,
      "v": 80
    },
    {
      "midi": 62,
      "hit": false,
      "t": 176420,
      "d": 580,
      "v": 80
    },
    {
      "midi": 65,
      "hit": false,
      "t": 176420,
      "d": 580,
      "v": 80
    },
    {
      "midi": 42,
      "hit": false,
      "t": 176700,
      "d": 125,
      "v": 70
    },
    {
      "midi": 35,
      "hit": false,
      "t": 176700,
      "d": 125,
      "v": 80
    },
    {
      "midi": 40,
      "hit": false,
      "t": 177000,
      "d": 600,
      "v": 82
    },
    {
      "midi": 37,
      "hit": false,
      "t": 177000,
      "d": 125,
      "v": 100
    },
    {
      "midi": 42,
      "hit": false,
      "t": 177000,
      "d": 125,
      "v": 80
    },
    {
      "midi": 79,
      "hit": false,
      "t": 177000,
      "d": 600,
      "v": 98
    },
    {
      "midi": 76,
      "hit": false,
      "t": 177000,
      "d": 600,
      "v": 98
    },
    {
      "midi": 74,
      "hit": false,
      "t": 177000,
      "d": 600,
      "v": 98
    },
    {
      "midi": 71,
      "hit": false,
      "t": 177000,
      "d": 600,
      "v": 98
    },
    {
      "midi": 55,
      "hit": false,
      "t": 177000,
      "d": 600,
      "v": 98
    },
    {
      "midi": 52,
      "hit": false,
      "t": 177000,
      "d": 600,
      "v": 98
    },
    {
      "midi": 50,
      "hit": false,
      "t": 177000,
      "d": 600,
      "v": 98
    },
    {
      "midi": 47,
      "hit": false,
      "t": 177000,
      "d": 600,
      "v": 98
    },
    {
      "midi": 67,
      "hit": false,
      "t": 177020,
      "d": 580,
      "v": 80
    },
    {
      "midi": 59,
      "hit": false,
      "t": 177020,
      "d": 580,
      "v": 80
    },
    {
      "midi": 62,
      "hit": false,
      "t": 177020,
      "d": 580,
      "v": 80
    },
    {
      "midi": 64,
      "hit": false,
      "t": 177020,
      "d": 580,
      "v": 80
    },
    {
      "midi": 42,
      "hit": false,
      "t": 177300,
      "d": 125,
      "v": 70
    },
    {
      "midi": 35,
      "hit": false,
      "t": 177300,
      "d": 125,
      "v": 80
    },
    {
      "midi": 42,
      "hit": false,
      "t": 177450,
      "d": 125,
      "v": 60
    },
    {
      "midi": 42,
      "hit": false,
      "t": 177600,
      "d": 125,
      "v": 90
    },
    {
      "midi": 35,
      "hit": false,
      "t": 177600,
      "d": 125,
      "v": 100
    },
    {
      "midi": 69,
      "hit": false,
      "t": 177600,
      "d": 1200,
      "v": 80
    },
    {
      "midi": 61,
      "hit": false,
      "t": 177600,
      "d": 1200,
      "v": 80
    },
    {
      "midi": 64,
      "hit": false,
      "t": 177600,
      "d": 1200,
      "v": 80
    },
    {
      "midi": 67,
      "hit": false,
      "t": 177600,
      "d": 1200,
      "v": 80
    },
    {
      "midi": 81,
      "hit": false,
      "t": 177600,
      "d": 600,
      "v": 98
    },
    {
      "midi": 76,
      "hit": false,
      "t": 177600,
      "d": 600,
      "v": 98
    },
    {
      "midi": 73,
      "hit": false,
      "t": 177600,
      "d": 600,
      "v": 98
    },
    {
      "midi": 57,
      "hit": false,
      "t": 177600,
      "d": 600,
      "v": 98
    },
    {
      "midi": 52,
      "hit": false,
      "t": 177600,
      "d": 600,
      "v": 98
    },
    {
      "midi": 49,
      "hit": false,
      "t": 177600,
      "d": 600,
      "v": 98
    },
    {
      "midi": 33,
      "hit": false,
      "t": 177605,
      "d": 730,
      "v": 72
    },
    {
      "midi": 42,
      "hit": false,
      "t": 177900,
      "d": 125,
      "v": 70
    },
    {
      "midi": 37,
      "hit": false,
      "t": 178200,
      "d": 125,
      "v": 100
    },
    {
      "midi": 42,
      "hit": false,
      "t": 178200,
      "d": 125,
      "v": 80
    },
    {
      "midi": 81,
      "hit": false,
      "t": 178200,
      "d": 600,
      "v": 98
    },
    {
      "midi": 76,
      "hit": false,
      "t": 178200,
      "d": 600,
      "v": 98
    },
    {
      "midi": 73,
      "hit": false,
      "t": 178200,
      "d": 600,
      "v": 98
    },
    {
      "midi": 57,
      "hit": false,
      "t": 178200,
      "d": 600,
      "v": 98
    },
    {
      "midi": 52,
      "hit": false,
      "t": 178200,
      "d": 600,
      "v": 98
    },
    {
      "midi": 49,
      "hit": false,
      "t": 178200,
      "d": 600,
      "v": 98
    },
    {
      "midi": 42,
      "hit": false,
      "t": 178500,
      "d": 125,
      "v": 70
    },
    {
      "midi": 35,
      "hit": false,
      "t": 178500,
      "d": 125,
      "v": 80
    },
    {
      "midi": 33,
      "hit": false,
      "t": 178520,
      "d": 160,
      "v": 74
    },
    {
      "midi": 38,
      "hit": false,
      "t": 178800,
      "d": 600,
      "v": 82
    },
    {
      "midi": 42,
      "hit": false,
      "t": 178800,
      "d": 125,
      "v": 90
    },
    {
      "midi": 35,
      "hit": false,
      "t": 178800,
      "d": 125,
      "v": 100
    },
    {
      "midi": 74,
      "hit": false,
      "t": 178800,
      "d": 450,
      "v": 98
    },
    {
      "midi": 50,
      "hit": false,
      "t": 178800,
      "d": 450,
      "v": 98
    },
    {
      "midi": 57,
      "hit": false,
      "t": 178820,
      "d": 580,
      "v": 80
    },
    {
      "midi": 62,
      "hit": false,
      "t": 178820,
      "d": 580,
      "v": 80
    },
    {
      "midi": 66,
      "hit": false,
      "t": 178820,
      "d": 580,
      "v": 80
    },
    {
      "midi": 42,
      "hit": false,
      "t": 179100,
      "d": 125,
      "v": 70
    },
    {
      "midi": 77,
      "hit": false,
      "t": 179250,
      "d": 450,
      "v": 98
    },
    {
      "midi": 53,
      "hit": false,
      "t": 179250,
      "d": 450,
      "v": 98
    },
    {
      "midi": 38,
      "hit": false,
      "t": 179400,
      "d": 600,
      "v": 82
    },
    {
      "midi": 37,
      "hit": false,
      "t": 179400,
      "d": 125,
      "v": 100
    },
    {
      "midi": 42,
      "hit": false,
      "t": 179400,
      "d": 125,
      "v": 80
    },
    {
      "midi": 57,
      "hit": false,
      "t": 179420,
      "d": 580,
      "v": 80
    },
    {
      "midi": 62,
      "hit": false,
      "t": 179420,
      "d": 580,
      "v": 80
    },
    {
      "midi": 65,
      "hit": false,
      "t": 179420,
      "d": 580,
      "v": 80
    },
    {
      "midi": 42,
      "hit": false,
      "t": 179700,
      "d": 125,
      "v": 70
    },
    {
      "midi": 35,
      "hit": false,
      "t": 179700,
      "d": 125,
      "v": 80
    },
    {
      "midi": 81,
      "hit": false,
      "t": 179700,
      "d": 300,
      "v": 98
    },
    {
      "midi": 57,
      "hit": false,
      "t": 179700,
      "d": 300,
      "v": 98
    },
    {
      "midi": 43,
      "hit": false,
      "t": 180000,
      "d": 705,
      "v": 82
    },
    {
      "midi": 42,
      "hit": false,
      "t": 180000,
      "d": 125,
      "v": 90
    },
    {
      "midi": 35,
      "hit": false,
      "t": 180000,
      "d": 125,
      "v": 100
    },
    {
      "midi": 86,
      "hit": false,
      "t": 180000,
      "d": 450,
      "v": 98
    },
    {
      "midi": 82,
      "hit": false,
      "t": 180000,
      "d": 450,
      "v": 98
    },
    {
      "midi": 62,
      "hit": false,
      "t": 180000,
      "d": 450,
      "v": 98
    },
    {
      "midi": 58,
      "hit": false,
      "t": 180000,
      "d": 450,
      "v": 98
    },
    {
      "midi": 67,
      "hit": false,
      "t": 180010,
      "d": 1005,
      "v": 72
    },
    {
      "midi": 62,
      "hit": false,
      "t": 180010,
      "d": 1005,
      "v": 72
    },
    {
      "midi": 65,
      "hit": false,
      "t": 180010,
      "d": 1005,
      "v": 72
    },
    {
      "midi": 42,
      "hit": false,
      "t": 180300,
      "d": 125,
      "v": 70
    },
    {
      "midi": 86,
      "hit": false,
      "t": 180450,
      "d": 150,
      "v": 98
    },
    {
      "midi": 82,
      "hit": false,
      "t": 180450,
      "d": 150,
      "v": 98
    },
    {
      "midi": 62,
      "hit": false,
      "t": 180450,
      "d": 150,
      "v": 98
    },
    {
      "midi": 58,
      "hit": false,
      "t": 180450,
      "d": 150,
      "v": 98
    },
    {
      "midi": 37,
      "hit": false,
      "t": 180600,
      "d": 125,
      "v": 100
    },
    {
      "midi": 42,
      "hit": false,
      "t": 180600,
      "d": 125,
      "v": 80
    },
    {
      "midi": 86,
      "hit": false,
      "t": 180600,
      "d": 300,
      "v": 98
    },
    {
      "midi": 82,
      "hit": false,
      "t": 180600,
      "d": 300,
      "v": 98
    },
    {
      "midi": 62,
      "hit": false,
      "t": 180600,
      "d": 300,
      "v": 98
    },
    {
      "midi": 58,
      "hit": false,
      "t": 180600,
      "d": 300,
      "v": 98
    },
    {
      "midi": 43,
      "hit": false,
      "t": 180890,
      "d": 170,
      "v": 85
    },
    {
      "midi": 42,
      "hit": false,
      "t": 180900,
      "d": 125,
      "v": 70
    },
    {
      "midi": 35,
      "hit": false,
      "t": 180900,
      "d": 125,
      "v": 80
    },
    {
      "midi": 86,
      "hit": false,
      "t": 180900,
      "d": 300,
      "v": 98
    },
    {
      "midi": 82,
      "hit": false,
      "t": 180900,
      "d": 300,
      "v": 98
    },
    {
      "midi": 62,
      "hit": false,
      "t": 180900,
      "d": 300,
      "v": 98
    },
    {
      "midi": 58,
      "hit": false,
      "t": 180900,
      "d": 300,
      "v": 98
    },
    {
      "midi": 58,
      "hit": false,
      "t": 180915,
      "d": 100,
      "v": 66
    },
    {
      "midi": 62,
      "hit": false,
      "t": 181070,
      "d": 130,
      "v": 70
    },
    {
      "midi": 36,
      "hit": false,
      "t": 181200,
      "d": 705,
      "v": 82
    },
    {
      "midi": 42,
      "hit": false,
      "t": 181200,
      "d": 125,
      "v": 90
    },
    {
      "midi": 35,
      "hit": false,
      "t": 181200,
      "d": 125,
      "v": 100
    },
    {
      "midi": 67,
      "hit": false,
      "t": 181200,
      "d": 390,
      "v": 68
    },
    {
      "midi": 58,
      "hit": false,
      "t": 181200,
      "d": 390,
      "v": 68
    },
    {
      "midi": 60,
      "hit": false,
      "t": 181200,
      "d": 390,
      "v": 68
    },
    {
      "midi": 64,
      "hit": false,
      "t": 181200,
      "d": 390,
      "v": 68
    },
    {
      "midi": 84,
      "hit": false,
      "t": 181200,
      "d": 600,
      "v": 98
    },
    {
      "midi": 60,
      "hit": false,
      "t": 181200,
      "d": 600,
      "v": 98
    },
    {
      "midi": 42,
      "hit": false,
      "t": 181500,
      "d": 125,
      "v": 70
    },
    {
      "midi": 48,
      "hit": false,
      "t": 181500,
      "d": 585,
      "v": 78
    },
    {
      "midi": 37,
      "hit": false,
      "t": 181800,
      "d": 125,
      "v": 100
    },
    {
      "midi": 42,
      "hit": false,
      "t": 181800,
      "d": 125,
      "v": 80
    },
    {
      "midi": 67,
      "hit": false,
      "t": 181800,
      "d": 335,
      "v": 80
    },
    {
      "midi": 58,
      "hit": false,
      "t": 181800,
      "d": 335,
      "v": 80
    },
    {
      "midi": 60,
      "hit": false,
      "t": 181800,
      "d": 335,
      "v": 80
    },
    {
      "midi": 64,
      "hit": false,
      "t": 181800,
      "d": 335,
      "v": 80
    },
    {
      "midi": 81,
      "hit": false,
      "t": 181800,
      "d": 300,
      "v": 98
    },
    {
      "midi": 57,
      "hit": false,
      "t": 181800,
      "d": 300,
      "v": 98
    },
    {
      "midi": 36,
      "hit": false,
      "t": 182090,
      "d": 170,
      "v": 85
    },
    {
      "midi": 42,
      "hit": false,
      "t": 182100,
      "d": 125,
      "v": 70
    },
    {
      "midi": 35,
      "hit": false,
      "t": 182100,
      "d": 125,
      "v": 80
    },
    {
      "midi": 79,
      "hit": false,
      "t": 182100,
      "d": 150,
      "v": 98
    },
    {
      "midi": 55,
      "hit": false,
      "t": 182100,
      "d": 150,
      "v": 98
    },
    {
      "midi": 81,
      "hit": false,
      "t": 182250,
      "d": 1950,
      "v": 98
    },
    {
      "midi": 72,
      "hit": false,
      "t": 182250,
      "d": 1950,
      "v": 98
    },
    {
      "midi": 57,
      "hit": false,
      "t": 182250,
      "d": 1950,
      "v": 98
    },
    {
      "midi": 48,
      "hit": false,
      "t": 182250,
      "d": 1950,
      "v": 98
    },
    {
      "midi": 42,
      "hit": false,
      "t": 182400,
      "d": 125,
      "v": 90
    },
    {
      "midi": 35,
      "hit": false,
      "t": 182400,
      "d": 125,
      "v": 100
    },
    {
      "midi": 69,
      "hit": false,
      "t": 182420,
      "d": 1365,
      "v": 74
    },
    {
      "midi": 60,
      "hit": false,
      "t": 182420,
      "d": 1365,
      "v": 74
    },
    {
      "midi": 64,
      "hit": false,
      "t": 182420,
      "d": 1365,
      "v": 74
    },
    {
      "midi": 67,
      "hit": false,
      "t": 182420,
      "d": 1365,
      "v": 74
    },
    {
      "midi": 33,
      "hit": false,
      "t": 182430,
      "d": 660,
      "v": 63
    },
    {
      "midi": 42,
      "hit": false,
      "t": 182700,
      "d": 125,
      "v": 70
    },
    {
      "midi": 37,
      "hit": false,
      "t": 183000,
      "d": 125,
      "v": 100
    },
    {
      "midi": 42,
      "hit": false,
      "t": 183000,
      "d": 125,
      "v": 80
    },
    {
      "midi": 42,
      "hit": false,
      "t": 183300,
      "d": 125,
      "v": 70
    },
    {
      "midi": 35,
      "hit": false,
      "t": 183300,
      "d": 125,
      "v": 80
    },
    {
      "midi": 33,
      "hit": false,
      "t": 183315,
      "d": 80,
      "v": 64
    },
    {
      "midi": 42,
      "hit": false,
      "t": 183600,
      "d": 125,
      "v": 90
    },
    {
      "midi": 35,
      "hit": false,
      "t": 183600,
      "d": 125,
      "v": 100
    },
    {
      "midi": 33,
      "hit": false,
      "t": 183620,
      "d": 800,
      "v": 78
    },
    {
      "midi": 42,
      "hit": false,
      "t": 183900,
      "d": 125,
      "v": 70
    },
    {
      "midi": 45,
      "hit": false,
      "t": 183915,
      "d": 340,
      "v": 78
    },
    {
      "midi": 37,
      "hit": false,
      "t": 184200,
      "d": 125,
      "v": 100
    },
    {
      "midi": 42,
      "hit": false,
      "t": 184200,
      "d": 125,
      "v": 80
    },
    {
      "midi": 79,
      "hit": false,
      "t": 184200,
      "d": 300,
      "v": 98
    },
    {
      "midi": 55,
      "hit": false,
      "t": 184200,
      "d": 300,
      "v": 98
    },
    {
      "midi": 69,
      "hit": false,
      "t": 184210,
      "d": 420,
      "v": 74
    },
    {
      "midi": 60,
      "hit": false,
      "t": 184210,
      "d": 420,
      "v": 74
    },
    {
      "midi": 64,
      "hit": false,
      "t": 184210,
      "d": 420,
      "v": 74
    },
    {
      "midi": 67,
      "hit": false,
      "t": 184210,
      "d": 420,
      "v": 74
    },
    {
      "midi": 42,
      "hit": false,
      "t": 184500,
      "d": 125,
      "v": 70
    },
    {
      "midi": 35,
      "hit": false,
      "t": 184500,
      "d": 125,
      "v": 80
    },
    {
      "midi": 81,
      "hit": false,
      "t": 184500,
      "d": 300,
      "v": 98
    },
    {
      "midi": 57,
      "hit": false,
      "t": 184500,
      "d": 300,
      "v": 98
    },
    {
      "midi": 33,
      "hit": false,
      "t": 184530,
      "d": 90,
      "v": 87
    },
    {
      "midi": 43,
      "hit": false,
      "t": 184800,
      "d": 705,
      "v": 82
    },
    {
      "midi": 42,
      "hit": false,
      "t": 184800,
      "d": 125,
      "v": 90
    },
    {
      "midi": 35,
      "hit": false,
      "t": 184800,
      "d": 125,
      "v": 100
    },
    {
      "midi": 82,
      "hit": false,
      "t": 184800,
      "d": 450,
      "v": 98
    },
    {
      "midi": 58,
      "hit": false,
      "t": 184800,
      "d": 450,
      "v": 98
    },
    {
      "midi": 67,
      "hit": false,
      "t": 184810,
      "d": 1005,
      "v": 72
    },
    {
      "midi": 62,
      "hit": false,
      "t": 184810,
      "d": 1005,
      "v": 72
    },
    {
      "midi": 65,
      "hit": false,
      "t": 184810,
      "d": 1005,
      "v": 72
    },
    {
      "midi": 42,
      "hit": false,
      "t": 185100,
      "d": 125,
      "v": 70
    },
    {
      "midi": 84,
      "hit": false,
      "t": 185250,
      "d": 450,
      "v": 98
    },
    {
      "midi": 60,
      "hit": false,
      "t": 185250,
      "d": 450,
      "v": 98
    },
    {
      "midi": 37,
      "hit": false,
      "t": 185400,
      "d": 125,
      "v": 100
    },
    {
      "midi": 42,
      "hit": false,
      "t": 185400,
      "d": 125,
      "v": 80
    },
    {
      "midi": 43,
      "hit": false,
      "t": 185690,
      "d": 170,
      "v": 85
    },
    {
      "midi": 42,
      "hit": false,
      "t": 185700,
      "d": 125,
      "v": 70
    },
    {
      "midi": 35,
      "hit": false,
      "t": 185700,
      "d": 125,
      "v": 80
    },
    {
      "midi": 82,
      "hit": false,
      "t": 185700,
      "d": 300,
      "v": 98
    },
    {
      "midi": 58,
      "hit": false,
      "t": 185700,
      "d": 300,
      "v": 98
    },
    {
      "midi": 58,
      "hit": false,
      "t": 185715,
      "d": 100,
      "v": 66
    },
    {
      "midi": 62,
      "hit": false,
      "t": 185870,
      "d": 130,
      "v": 70
    },
    {
      "midi": 33,
      "hit": false,
      "t": 186000,
      "d": 705,
      "v": 82
    },
    {
      "midi": 42,
      "hit": false,
      "t": 186000,
      "d": 125,
      "v": 90
    },
    {
      "midi": 35,
      "hit": false,
      "t": 186000,
      "d": 125,
      "v": 100
    },
    {
      "midi": 69,
      "hit": false,
      "t": 186000,
      "d": 1200,
      "v": 80
    },
    {
      "midi": 61,
      "hit": false,
      "t": 186000,
      "d": 1200,
      "v": 80
    },
    {
      "midi": 64,
      "hit": false,
      "t": 186000,
      "d": 1200,
      "v": 80
    },
    {
      "midi": 67,
      "hit": false,
      "t": 186000,
      "d": 1200,
      "v": 80
    },
    {
      "midi": 81,
      "hit": false,
      "t": 186000,
      "d": 600,
      "v": 98
    },
    {
      "midi": 73,
      "hit": false,
      "t": 186000,
      "d": 600,
      "v": 98
    },
    {
      "midi": 57,
      "hit": false,
      "t": 186000,
      "d": 600,
      "v": 98
    },
    {
      "midi": 49,
      "hit": false,
      "t": 186000,
      "d": 600,
      "v": 98
    },
    {
      "midi": 42,
      "hit": false,
      "t": 186300,
      "d": 125,
      "v": 70
    },
    {
      "midi": 37,
      "hit": false,
      "t": 186600,
      "d": 125,
      "v": 100
    },
    {
      "midi": 42,
      "hit": false,
      "t": 186600,
      "d": 125,
      "v": 80
    },
    {
      "midi": 79,
      "hit": false,
      "t": 186600,
      "d": 300,
      "v": 98
    },
    {
      "midi": 55,
      "hit": false,
      "t": 186600,
      "d": 300,
      "v": 98
    },
    {
      "midi": 33,
      "hit": false,
      "t": 186890,
      "d": 170,
      "v": 85
    },
    {
      "midi": 42,
      "hit": false,
      "t": 186900,
      "d": 125,
      "v": 70
    },
    {
      "midi": 35,
      "hit": false,
      "t": 186900,
      "d": 125,
      "v": 80
    },
    {
      "midi": 77,
      "hit": false,
      "t": 186900,
      "d": 300,
      "v": 98
    },
    {
      "midi": 53,
      "hit": false,
      "t": 186900,
      "d": 300,
      "v": 98
    },
    {
      "midi": 42,
      "hit": false,
      "t": 187200,
      "d": 125,
      "v": 90
    },
    {
      "midi": 35,
      "hit": false,
      "t": 187200,
      "d": 125,
      "v": 100
    },
    {
      "midi": 50,
      "hit": false,
      "t": 187200,
      "d": 980,
      "v": 54
    },
    {
      "midi": 65,
      "hit": false,
      "t": 187200,
      "d": 1200,
      "v": 57
    },
    {
      "midi": 69,
      "hit": false,
      "t": 187200,
      "d": 1225,
      "v": 56
    },
    {
      "midi": 62,
      "hit": false,
      "t": 187200,
      "d": 1245,
      "v": 61
    },
    {
      "midi": 79,
      "hit": false,
      "t": 187200,
      "d": 300,
      "v": 98
    },
    {
      "midi": 55,
      "hit": false,
      "t": 187200,
      "d": 300,
      "v": 98
    },
    {
      "midi": 38,
      "hit": false,
      "t": 187230,
      "d": 660,
      "v": 63
    },
    {
      "midi": 42,
      "hit": false,
      "t": 187500,
      "d": 125,
      "v": 70
    },
    {
      "midi": 81,
      "hit": false,
      "t": 187500,
      "d": 150,
      "v": 98
    },
    {
      "midi": 57,
      "hit": false,
      "t": 187500,
      "d": 150,
      "v": 98
    },
    {
      "midi": 81,
      "hit": false,
      "t": 187650,
      "d": 750,
      "v": 98
    },
    {
      "midi": 57,
      "hit": false,
      "t": 187650,
      "d": 750,
      "v": 98
    },
    {
      "midi": 37,
      "hit": false,
      "t": 187800,
      "d": 125,
      "v": 100
    },
    {
      "midi": 42,
      "hit": false,
      "t": 187800,
      "d": 125,
      "v": 80
    },
    {
      "midi": 42,
      "hit": false,
      "t": 188100,
      "d": 125,
      "v": 70
    },
    {
      "midi": 35,
      "hit": false,
      "t": 188100,
      "d": 125,
      "v": 80
    },
    {
      "midi": 38,
      "hit": false,
      "t": 188100,
      "d": 1280,
      "v": 49
    },
    {
      "midi": 38,
      "hit": false,
      "t": 188115,
      "d": 80,
      "v": 64
    },
    {
      "midi": 42,
      "hit": false,
      "t": 188400,
      "d": 125,
      "v": 90
    },
    {
      "midi": 35,
      "hit": false,
      "t": 188400,
      "d": 125,
      "v": 100
    },
    {
      "midi": 50,
      "hit": false,
      "t": 188400,
      "d": 1145,
      "v": 52
    },
    {
      "midi": 38,
      "hit": false,
      "t": 188420,
      "d": 800,
      "v": 78
    },
    {
      "midi": 42,
      "hit": false,
      "t": 188700,
      "d": 125,
      "v": 70
    },
    {
      "midi": 62,
      "hit": false,
      "t": 188700,
      "d": 815,
      "v": 76
    },
    {
      "midi": 37,
      "hit": false,
      "t": 189000,
      "d": 125,
      "v": 100
    },
    {
      "midi": 42,
      "hit": false,
      "t": 189000,
      "d": 125,
      "v": 80
    },
    {
      "midi": 42,
      "hit": false,
      "t": 189300,
      "d": 125,
      "v": 70
    },
    {
      "midi": 35,
      "hit": false,
      "t": 189300,
      "d": 125,
      "v": 80
    },
    {
      "midi": 65,
      "hit": false,
      "t": 189300,
      "d": 190,
      "v": 87
    },
    {
      "midi": 38,
      "hit": false,
      "t": 189330,
      "d": 90,
      "v": 87
    },
    {
      "midi": 34,
      "hit": false,
      "t": 189600,
      "d": 865,
      "v": 72
    },
    {
      "midi": 42,
      "hit": false,
      "t": 189600,
      "d": 125,
      "v": 90
    },
    {
      "midi": 35,
      "hit": false,
      "t": 189600,
      "d": 125,
      "v": 100
    },
    {
      "midi": 79,
      "hit": false,
      "t": 189600,
      "d": 300,
      "v": 98
    },
    {
      "midi": 55,
      "hit": false,
      "t": 189600,
      "d": 300,
      "v": 98
    },
    {
      "midi": 58,
      "hit": false,
      "t": 189615,
      "d": 1730,
      "v": 87
    },
    {
      "midi": 62,
      "hit": false,
      "t": 189615,
      "d": 1730,
      "v": 87
    },
    {
      "midi": 42,
      "hit": false,
      "t": 189900,
      "d": 125,
      "v": 70
    },
    {
      "midi": 81,
      "hit": false,
      "t": 189900,
      "d": 300,
      "v": 98
    },
    {
      "midi": 57,
      "hit": false,
      "t": 189900,
      "d": 300,
      "v": 98
    },
    {
      "midi": 37,
      "hit": false,
      "t": 190200,
      "d": 125,
      "v": 100
    },
    {
      "midi": 42,
      "hit": false,
      "t": 190200,
      "d": 125,
      "v": 80
    },
    {
      "midi": 74,
      "hit": false,
      "t": 190200,
      "d": 300,
      "v": 98
    },
    {
      "midi": 50,
      "hit": false,
      "t": 190200,
      "d": 300,
      "v": 98
    },
    {
      "midi": 34,
      "hit": false,
      "t": 190500,
      "d": 75,
      "v": 82
    },
    {
      "midi": 42,
      "hit": false,
      "t": 190500,
      "d": 125,
      "v": 70
    },
    {
      "midi": 35,
      "hit": false,
      "t": 190500,
      "d": 125,
      "v": 80
    },
    {
      "midi": 77,
      "hit": false,
      "t": 190500,
      "d": 150,
      "v": 98
    },
    {
      "midi": 53,
      "hit": false,
      "t": 190500,
      "d": 150,
      "v": 98
    },
    {
      "midi": 79,
      "hit": false,
      "t": 190650,
      "d": 150,
      "v": 98
    },
    {
      "midi": 55,
      "hit": false,
      "t": 190650,
      "d": 150,
      "v": 98
    },
    {
      "midi": 34,
      "hit": false,
      "t": 190800,
      "d": 95,
      "v": 85
    },
    {
      "midi": 42,
      "hit": false,
      "t": 190800,
      "d": 125,
      "v": 90
    },
    {
      "midi": 35,
      "hit": false,
      "t": 190800,
      "d": 125,
      "v": 100
    },
    {
      "midi": 79,
      "hit": false,
      "t": 190800,
      "d": 600,
      "v": 98
    },
    {
      "midi": 55,
      "hit": false,
      "t": 190800,
      "d": 600,
      "v": 98
    },
    {
      "midi": 34,
      "hit": false,
      "t": 191100,
      "d": 390,
      "v": 82
    },
    {
      "midi": 42,
      "hit": false,
      "t": 191100,
      "d": 125,
      "v": 70
    },
    {
      "midi": 35,
      "hit": false,
      "t": 191100,
      "d": 125,
      "v": 80
    },
    {
      "midi": 65,
      "hit": false,
      "t": 191115,
      "d": 230,
      "v": 68
    },
    {
      "midi": 37,
      "hit": false,
      "t": 191400,
      "d": 125,
      "v": 100
    },
    {
      "midi": 42,
      "hit": false,
      "t": 191400,
      "d": 125,
      "v": 80
    },
    {
      "midi": 62,
      "hit": false,
      "t": 191415,
      "d": 350,
      "v": 64
    },
    {
      "midi": 34,
      "hit": false,
      "t": 191700,
      "d": 130,
      "v": 87
    },
    {
      "midi": 42,
      "hit": false,
      "t": 191700,
      "d": 125,
      "v": 70
    },
    {
      "midi": 35,
      "hit": false,
      "t": 191700,
      "d": 125,
      "v": 80
    },
    {
      "midi": 58,
      "hit": false,
      "t": 191725,
      "d": 260,
      "v": 91
    },
    {
      "midi": 42,
      "hit": false,
      "t": 191850,
      "d": 125,
      "v": 60
    },
    {
      "midi": 42,
      "hit": false,
      "t": 192000,
      "d": 125,
      "v": 90
    },
    {
      "midi": 35,
      "hit": false,
      "t": 192000,
      "d": 125,
      "v": 100
    },
    {
      "midi": 45,
      "hit": false,
      "t": 192000,
      "d": 980,
      "v": 54
    },
    {
      "midi": 69,
      "hit": false,
      "t": 192000,
      "d": 1200,
      "v": 57
    },
    {
      "midi": 72,
      "hit": false,
      "t": 192000,
      "d": 1225,
      "v": 56
    },
    {
      "midi": 65,
      "hit": false,
      "t": 192000,
      "d": 1245,
      "v": 61
    },
    {
      "midi": 79,
      "hit": false,
      "t": 192000,
      "d": 300,
      "v": 98
    },
    {
      "midi": 55,
      "hit": false,
      "t": 192000,
      "d": 300,
      "v": 98
    },
    {
      "midi": 33,
      "hit": false,
      "t": 192030,
      "d": 660,
      "v": 63
    },
    {
      "midi": 42,
      "hit": false,
      "t": 192300,
      "d": 125,
      "v": 70
    },
    {
      "midi": 81,
      "hit": false,
      "t": 192300,
      "d": 300,
      "v": 98
    },
    {
      "midi": 57,
      "hit": false,
      "t": 192300,
      "d": 300,
      "v": 98
    },
    {
      "midi": 37,
      "hit": false,
      "t": 192600,
      "d": 125,
      "v": 100
    },
    {
      "midi": 42,
      "hit": false,
      "t": 192600,
      "d": 125,
      "v": 80
    },
    {
      "midi": 72,
      "hit": false,
      "t": 192600,
      "d": 300,
      "v": 98
    },
    {
      "midi": 48,
      "hit": false,
      "t": 192600,
      "d": 300,
      "v": 98
    },
    {
      "midi": 42,
      "hit": false,
      "t": 192900,
      "d": 125,
      "v": 70
    },
    {
      "midi": 35,
      "hit": false,
      "t": 192900,
      "d": 125,
      "v": 80
    },
    {
      "midi": 77,
      "hit": false,
      "t": 192900,
      "d": 150,
      "v": 98
    },
    {
      "midi": 53,
      "hit": false,
      "t": 192900,
      "d": 150,
      "v": 98
    },
    {
      "midi": 33,
      "hit": false,
      "t": 192915,
      "d": 80,
      "v": 64
    },
    {
      "midi": 79,
      "hit": false,
      "t": 193050,
      "d": 450,
      "v": 98
    },
    {
      "midi": 55,
      "hit": false,
      "t": 193050,
      "d": 450,
      "v": 98
    },
    {
      "midi": 42,
      "hit": false,
      "t": 193200,
      "d": 125,
      "v": 90
    },
    {
      "midi": 35,
      "hit": false,
      "t": 193200,
      "d": 125,
      "v": 100
    },
    {
      "midi": 45,
      "hit": false,
      "t": 193200,
      "d": 980,
      "v": 52
    },
    {
      "midi": 33,
      "hit": false,
      "t": 193220,
      "d": 800,
      "v": 78
    },
    {
      "midi": 42,
      "hit": false,
      "t": 193500,
      "d": 125,
      "v": 70
    },
    {
      "midi": 65,
      "hit": false,
      "t": 193500,
      "d": 815,
      "v": 76
    },
    {
      "midi": 81,
      "hit": false,
      "t": 193500,
      "d": 300,
      "v": 98
    },
    {
      "midi": 57,
      "hit": false,
      "t": 193500,
      "d": 300,
      "v": 98
    },
    {
      "midi": 37,
      "hit": false,
      "t": 193800,
      "d": 125,
      "v": 100
    },
    {
      "midi": 42,
      "hit": false,
      "t": 193800,
      "d": 125,
      "v": 80
    },
    {
      "midi": 79,
      "hit": false,
      "t": 193800,
      "d": 300,
      "v": 98
    },
    {
      "midi": 55,
      "hit": false,
      "t": 193800,
      "d": 300,
      "v": 98
    },
    {
      "midi": 42,
      "hit": false,
      "t": 194100,
      "d": 125,
      "v": 70
    },
    {
      "midi": 35,
      "hit": false,
      "t": 194100,
      "d": 125,
      "v": 80
    },
    {
      "midi": 69,
      "hit": false,
      "t": 194100,
      "d": 190,
      "v": 87
    },
    {
      "midi": 77,
      "hit": false,
      "t": 194100,
      "d": 300,
      "v": 98
    },
    {
      "midi": 53,
      "hit": false,
      "t": 194100,
      "d": 300,
      "v": 98
    },
    {
      "midi": 33,
      "hit": false,
      "t": 194130,
      "d": 90,
      "v": 87
    },
    {
      "midi": 43,
      "hit": false,
      "t": 194400,
      "d": 865,
      "v": 72
    },
    {
      "midi": 42,
      "hit": false,
      "t": 194400,
      "d": 125,
      "v": 90
    },
    {
      "midi": 35,
      "hit": false,
      "t": 194400,
      "d": 125,
      "v": 100
    },
    {
      "midi": 67,
      "hit": false,
      "t": 194400,
      "d": 1970,
      "v": 72
    },
    {
      "midi": 58,
      "hit": false,
      "t": 194400,
      "d": 1970,
      "v": 72
    },
    {
      "midi": 62,
      "hit": false,
      "t": 194400,
      "d": 1970,
      "v": 72
    },
    {
      "midi": 65,
      "hit": false,
      "t": 194400,
      "d": 1970,
      "v": 72
    },
    {
      "midi": 79,
      "hit": false,
      "t": 194400,
      "d": 450,
      "v": 98
    },
    {
      "midi": 70,
      "hit": false,
      "t": 194400,
      "d": 450,
      "v": 98
    },
    {
      "midi": 55,
      "hit": false,
      "t": 194400,
      "d": 450,
      "v": 98
    },
    {
      "midi": 46,
      "hit": false,
      "t": 194400,
      "d": 450,
      "v": 98
    },
    {
      "midi": 42,
      "hit": false,
      "t": 194700,
      "d": 125,
      "v": 70
    },
    {
      "midi": 77,
      "hit": false,
      "t": 194850,
      "d": 450,
      "v": 98
    },
    {
      "midi": 70,
      "hit": false,
      "t": 194850,
      "d": 450,
      "v": 98
    },
    {
      "midi": 53,
      "hit": false,
      "t": 194850,
      "d": 450,
      "v": 98
    },
    {
      "midi": 46,
      "hit": false,
      "t": 194850,
      "d": 450,
      "v": 98
    },
    {
      "midi": 37,
      "hit": false,
      "t": 195000,
      "d": 125,
      "v": 100
    },
    {
      "midi": 42,
      "hit": false,
      "t": 195000,
      "d": 125,
      "v": 80
    },
    {
      "midi": 43,
      "hit": false,
      "t": 195300,
      "d": 75,
      "v": 82
    },
    {
      "midi": 42,
      "hit": false,
      "t": 195300,
      "d": 125,
      "v": 70
    },
    {
      "midi": 35,
      "hit": false,
      "t": 195300,
      "d": 125,
      "v": 80
    },
    {
      "midi": 76,
      "hit": false,
      "t": 195300,
      "d": 300,
      "v": 98
    },
    {
      "midi": 52,
      "hit": false,
      "t": 195300,
      "d": 300,
      "v": 98
    },
    {
      "midi": 46,
      "hit": false,
      "t": 195450,
      "d": 125,
      "v": 54
    },
    {
      "midi": 43,
      "hit": false,
      "t": 195600,
      "d": 95,
      "v": 85
    },
    {
      "midi": 42,
      "hit": false,
      "t": 195600,
      "d": 125,
      "v": 90
    },
    {
      "midi": 35,
      "hit": false,
      "t": 195600,
      "d": 125,
      "v": 100
    },
    {
      "midi": 77,
      "hit": false,
      "t": 195600,
      "d": 600,
      "v": 98
    },
    {
      "midi": 53,
      "hit": false,
      "t": 195600,
      "d": 600,
      "v": 98
    },
    {
      "midi": 43,
      "hit": false,
      "t": 195900,
      "d": 390,
      "v": 82
    },
    {
      "midi": 42,
      "hit": false,
      "t": 195900,
      "d": 125,
      "v": 70
    },
    {
      "midi": 37,
      "hit": false,
      "t": 196200,
      "d": 125,
      "v": 100
    },
    {
      "midi": 42,
      "hit": false,
      "t": 196200,
      "d": 125,
      "v": 80
    },
    {
      "midi": 74,
      "hit": false,
      "t": 196200,
      "d": 300,
      "v": 98
    },
    {
      "midi": 50,
      "hit": false,
      "t": 196200,
      "d": 300,
      "v": 98
    },
    {
      "midi": 55,
      "hit": false,
      "t": 196220,
      "d": 190,
      "v": 61
    },
    {
      "midi": 58,
      "hit": false,
      "t": 196375,
      "d": 210,
      "v": 74
    },
    {
      "midi": 43,
      "hit": false,
      "t": 196500,
      "d": 130,
      "v": 87
    },
    {
      "midi": 42,
      "hit": false,
      "t": 196500,
      "d": 125,
      "v": 70
    },
    {
      "midi": 35,
      "hit": false,
      "t": 196500,
      "d": 125,
      "v": 80
    },
    {
      "midi": 79,
      "hit": false,
      "t": 196500,
      "d": 300,
      "v": 98
    },
    {
      "midi": 55,
      "hit": false,
      "t": 196500,
      "d": 300,
      "v": 98
    },
    {
      "midi": 62,
      "hit": false,
      "t": 196525,
      "d": 195,
      "v": 68
    },
    {
      "midi": 46,
      "hit": false,
      "t": 196650,
      "d": 125,
      "v": 80
    },
    {
      "midi": 67,
      "hit": false,
      "t": 196680,
      "d": 110,
      "v": 68
    },
    {
      "midi": 33,
      "hit": false,
      "t": 196800,
      "d": 705,
      "v": 82
    },
    {
      "midi": 42,
      "hit": false,
      "t": 196800,
      "d": 125,
      "v": 90
    },
    {
      "midi": 35,
      "hit": false,
      "t": 196800,
      "d": 125,
      "v": 100
    },
    {
      "midi": 81,
      "hit": false,
      "t": 196800,
      "d": 1200,
      "v": 98
    },
    {
      "midi": 76,
      "hit": false,
      "t": 196800,
      "d": 1200,
      "v": 98
    },
    {
      "midi": 73,
      "hit": false,
      "t": 196800,
      "d": 1200,
      "v": 98
    },
    {
      "midi": 57,
      "hit": false,
      "t": 196800,
      "d": 1200,
      "v": 98
    },
    {
      "midi": 52,
      "hit": false,
      "t": 196800,
      "d": 1200,
      "v": 98
    },
    {
      "midi": 49,
      "hit": false,
      "t": 196800,
      "d": 1200,
      "v": 98
    },
    {
      "midi": 42,
      "hit": false,
      "t": 197100,
      "d": 125,
      "v": 70
    },
    {
      "midi": 57,
      "hit": false,
      "t": 197100,
      "d": 605,
      "v": 68
    },
    {
      "midi": 37,
      "hit": false,
      "t": 197400,
      "d": 125,
      "v": 100
    },
    {
      "midi": 42,
      "hit": false,
      "t": 197400,
      "d": 125,
      "v": 80
    },
    {
      "midi": 61,
      "hit": false,
      "t": 197400,
      "d": 405,
      "v": 85
    },
    {
      "midi": 33,
      "hit": false,
      "t": 197690,
      "d": 170,
      "v": 85
    },
    {
      "midi": 42,
      "hit": false,
      "t": 197700,
      "d": 125,
      "v": 70
    },
    {
      "midi": 35,
      "hit": false,
      "t": 197700,
      "d": 125,
      "v": 80
    },
    {
      "midi": 64,
      "hit": false,
      "t": 197700,
      "d": 125,
      "v": 87
    },
    {
      "midi": 38,
      "hit": false,
      "t": 198000,
      "d": 600,
      "v": 82
    },
    {
      "midi": 42,
      "hit": false,
      "t": 198000,
      "d": 125,
      "v": 90
    },
    {
      "midi": 35,
      "hit": false,
      "t": 198000,
      "d": 125,
      "v": 100
    },
    {
      "midi": 74,
      "hit": false,
      "t": 198000,
      "d": 450,
      "v": 98
    },
    {
      "midi": 50,
      "hit": false,
      "t": 198000,
      "d": 450,
      "v": 98
    },
    {
      "midi": 57,
      "hit": false,
      "t": 198020,
      "d": 580,
      "v": 80
    },
    {
      "midi": 62,
      "hit": false,
      "t": 198020,
      "d": 580,
      "v": 80
    },
    {
      "midi": 66,
      "hit": false,
      "t": 198020,
      "d": 580,
      "v": 80
    },
    {
      "midi": 42,
      "hit": false,
      "t": 198300,
      "d": 125,
      "v": 70
    },
    {
      "midi": 77,
      "hit": false,
      "t": 198450,
      "d": 450,
      "v": 98
    },
    {
      "midi": 53,
      "hit": false,
      "t": 198450,
      "d": 450,
      "v": 98
    },
    {
      "midi": 38,
      "hit": false,
      "t": 198600,
      "d": 600,
      "v": 82
    },
    {
      "midi": 37,
      "hit": false,
      "t": 198600,
      "d": 125,
      "v": 100
    },
    {
      "midi": 42,
      "hit": false,
      "t": 198600,
      "d": 125,
      "v": 80
    },
    {
      "midi": 57,
      "hit": false,
      "t": 198620,
      "d": 580,
      "v": 80
    },
    {
      "midi": 62,
      "hit": false,
      "t": 198620,
      "d": 580,
      "v": 80
    },
    {
      "midi": 65,
      "hit": false,
      "t": 198620,
      "d": 580,
      "v": 80
    },
    {
      "midi": 42,
      "hit": false,
      "t": 198900,
      "d": 125,
      "v": 70
    },
    {
      "midi": 35,
      "hit": false,
      "t": 198900,
      "d": 125,
      "v": 80
    },
    {
      "midi": 81,
      "hit": false,
      "t": 198900,
      "d": 300,
      "v": 98
    },
    {
      "midi": 57,
      "hit": false,
      "t": 198900,
      "d": 300,
      "v": 98
    },
    {
      "midi": 43,
      "hit": false,
      "t": 199200,
      "d": 705,
      "v": 82
    },
    {
      "midi": 42,
      "hit": false,
      "t": 199200,
      "d": 125,
      "v": 90
    },
    {
      "midi": 35,
      "hit": false,
      "t": 199200,
      "d": 125,
      "v": 100
    },
    {
      "midi": 86,
      "hit": false,
      "t": 199200,
      "d": 450,
      "v": 98
    },
    {
      "midi": 82,
      "hit": false,
      "t": 199200,
      "d": 450,
      "v": 98
    },
    {
      "midi": 62,
      "hit": false,
      "t": 199200,
      "d": 450,
      "v": 98
    },
    {
      "midi": 58,
      "hit": false,
      "t": 199200,
      "d": 450,
      "v": 98
    },
    {
      "midi": 67,
      "hit": false,
      "t": 199210,
      "d": 1005,
      "v": 72
    },
    {
      "midi": 62,
      "hit": false,
      "t": 199210,
      "d": 1005,
      "v": 72
    },
    {
      "midi": 65,
      "hit": false,
      "t": 199210,
      "d": 1005,
      "v": 72
    },
    {
      "midi": 42,
      "hit": false,
      "t": 199500,
      "d": 125,
      "v": 70
    },
    {
      "midi": 86,
      "hit": false,
      "t": 199650,
      "d": 450,
      "v": 98
    },
    {
      "midi": 82,
      "hit": false,
      "t": 199650,
      "d": 450,
      "v": 98
    },
    {
      "midi": 62,
      "hit": false,
      "t": 199650,
      "d": 450,
      "v": 98
    },
    {
      "midi": 58,
      "hit": false,
      "t": 199650,
      "d": 450,
      "v": 98
    },
    {
      "midi": 37,
      "hit": false,
      "t": 199800,
      "d": 125,
      "v": 100
    },
    {
      "midi": 42,
      "hit": false,
      "t": 199800,
      "d": 125,
      "v": 80
    },
    {
      "midi": 43,
      "hit": false,
      "t": 200090,
      "d": 170,
      "v": 85
    },
    {
      "midi": 42,
      "hit": false,
      "t": 200100,
      "d": 125,
      "v": 70
    },
    {
      "midi": 35,
      "hit": false,
      "t": 200100,
      "d": 125,
      "v": 80
    },
    {
      "midi": 86,
      "hit": false,
      "t": 200100,
      "d": 300,
      "v": 98
    },
    {
      "midi": 82,
      "hit": false,
      "t": 200100,
      "d": 300,
      "v": 98
    },
    {
      "midi": 62,
      "hit": false,
      "t": 200100,
      "d": 300,
      "v": 98
    },
    {
      "midi": 58,
      "hit": false,
      "t": 200100,
      "d": 300,
      "v": 98
    },
    {
      "midi": 58,
      "hit": false,
      "t": 200115,
      "d": 100,
      "v": 66
    },
    {
      "midi": 62,
      "hit": false,
      "t": 200270,
      "d": 130,
      "v": 70
    },
    {
      "midi": 42,
      "hit": false,
      "t": 200400,
      "d": 125,
      "v": 90
    },
    {
      "midi": 35,
      "hit": false,
      "t": 200400,
      "d": 125,
      "v": 100
    },
    {
      "midi": 67,
      "hit": false,
      "t": 200400,
      "d": 390,
      "v": 68
    },
    {
      "midi": 58,
      "hit": false,
      "t": 200400,
      "d": 390,
      "v": 68
    },
    {
      "midi": 60,
      "hit": false,
      "t": 200400,
      "d": 390,
      "v": 68
    },
    {
      "midi": 64,
      "hit": false,
      "t": 200400,
      "d": 390,
      "v": 68
    },
    {
      "midi": 84,
      "hit": false,
      "t": 200400,
      "d": 600,
      "v": 98
    },
    {
      "midi": 60,
      "hit": false,
      "t": 200400,
      "d": 600,
      "v": 98
    },
    {
      "midi": 36,
      "hit": false,
      "t": 200405,
      "d": 730,
      "v": 72
    },
    {
      "midi": 42,
      "hit": false,
      "t": 200700,
      "d": 125,
      "v": 70
    },
    {
      "midi": 48,
      "hit": false,
      "t": 200700,
      "d": 585,
      "v": 78
    },
    {
      "midi": 37,
      "hit": false,
      "t": 201000,
      "d": 125,
      "v": 100
    },
    {
      "midi": 42,
      "hit": false,
      "t": 201000,
      "d": 125,
      "v": 80
    },
    {
      "midi": 67,
      "hit": false,
      "t": 201000,
      "d": 335,
      "v": 80
    },
    {
      "midi": 58,
      "hit": false,
      "t": 201000,
      "d": 335,
      "v": 80
    },
    {
      "midi": 60,
      "hit": false,
      "t": 201000,
      "d": 335,
      "v": 80
    },
    {
      "midi": 64,
      "hit": false,
      "t": 201000,
      "d": 335,
      "v": 80
    },
    {
      "midi": 81,
      "hit": false,
      "t": 201000,
      "d": 300,
      "v": 98
    },
    {
      "midi": 57,
      "hit": false,
      "t": 201000,
      "d": 300,
      "v": 98
    },
    {
      "midi": 42,
      "hit": false,
      "t": 201300,
      "d": 125,
      "v": 70
    },
    {
      "midi": 35,
      "hit": false,
      "t": 201300,
      "d": 125,
      "v": 80
    },
    {
      "midi": 79,
      "hit": false,
      "t": 201300,
      "d": 150,
      "v": 98
    },
    {
      "midi": 55,
      "hit": false,
      "t": 201300,
      "d": 150,
      "v": 98
    },
    {
      "midi": 36,
      "hit": false,
      "t": 201320,
      "d": 160,
      "v": 74
    },
    {
      "midi": 81,
      "hit": false,
      "t": 201450,
      "d": 150,
      "v": 98
    },
    {
      "midi": 57,
      "hit": false,
      "t": 201450,
      "d": 150,
      "v": 98
    },
    {
      "midi": 33,
      "hit": false,
      "t": 201600,
      "d": 855,
      "v": 80
    },
    {
      "midi": 42,
      "hit": false,
      "t": 201600,
      "d": 125,
      "v": 90
    },
    {
      "midi": 35,
      "hit": false,
      "t": 201600,
      "d": 125,
      "v": 100
    },
    {
      "midi": 81,
      "hit": false,
      "t": 201600,
      "d": 1800,
      "v": 98
    },
    {
      "midi": 57,
      "hit": false,
      "t": 201600,
      "d": 1800,
      "v": 98
    },
    {
      "midi": 69,
      "hit": false,
      "t": 201620,
      "d": 1365,
      "v": 74
    },
    {
      "midi": 60,
      "hit": false,
      "t": 201620,
      "d": 1365,
      "v": 74
    },
    {
      "midi": 64,
      "hit": false,
      "t": 201620,
      "d": 1365,
      "v": 74
    },
    {
      "midi": 67,
      "hit": false,
      "t": 201620,
      "d": 1365,
      "v": 74
    },
    {
      "midi": 42,
      "hit": false,
      "t": 201900,
      "d": 125,
      "v": 70
    },
    {
      "midi": 37,
      "hit": false,
      "t": 202200,
      "d": 125,
      "v": 100
    },
    {
      "midi": 42,
      "hit": false,
      "t": 202200,
      "d": 125,
      "v": 80
    },
    {
      "midi": 42,
      "hit": false,
      "t": 202500,
      "d": 125,
      "v": 70
    },
    {
      "midi": 35,
      "hit": false,
      "t": 202500,
      "d": 125,
      "v": 80
    },
    {
      "midi": 28,
      "hit": false,
      "t": 202505,
      "d": 300,
      "v": 58
    },
    {
      "midi": 42,
      "hit": false,
      "t": 202800,
      "d": 125,
      "v": 90
    },
    {
      "midi": 35,
      "hit": false,
      "t": 202800,
      "d": 125,
      "v": 100
    },
    {
      "midi": 33,
      "hit": false,
      "t": 202805,
      "d": 100,
      "v": 68
    },
    {
      "midi": 42,
      "hit": false,
      "t": 203100,
      "d": 125,
      "v": 70
    },
    {
      "midi": 33,
      "hit": false,
      "t": 203110,
      "d": 340,
      "v": 74
    },
    {
      "midi": 45,
      "hit": false,
      "t": 203115,
      "d": 340,
      "v": 78
    },
    {
      "midi": 37,
      "hit": false,
      "t": 203400,
      "d": 125,
      "v": 100
    },
    {
      "midi": 42,
      "hit": false,
      "t": 203400,
      "d": 125,
      "v": 80
    },
    {
      "midi": 79,
      "hit": false,
      "t": 203400,
      "d": 300,
      "v": 98
    },
    {
      "midi": 55,
      "hit": false,
      "t": 203400,
      "d": 300,
      "v": 98
    },
    {
      "midi": 69,
      "hit": false,
      "t": 203410,
      "d": 420,
      "v": 74
    },
    {
      "midi": 60,
      "hit": false,
      "t": 203410,
      "d": 420,
      "v": 74
    },
    {
      "midi": 64,
      "hit": false,
      "t": 203410,
      "d": 420,
      "v": 74
    },
    {
      "midi": 67,
      "hit": false,
      "t": 203410,
      "d": 420,
      "v": 74
    },
    {
      "midi": 33,
      "hit": false,
      "t": 203695,
      "d": 140,
      "v": 76
    },
    {
      "midi": 42,
      "hit": false,
      "t": 203700,
      "d": 125,
      "v": 70
    },
    {
      "midi": 35,
      "hit": false,
      "t": 203700,
      "d": 125,
      "v": 80
    },
    {
      "midi": 81,
      "hit": false,
      "t": 203700,
      "d": 300,
      "v": 98
    },
    {
      "midi": 57,
      "hit": false,
      "t": 203700,
      "d": 300,
      "v": 98
    },
    {
      "midi": 43,
      "hit": false,
      "t": 204000,
      "d": 705,
      "v": 82
    },
    {
      "midi": 42,
      "hit": false,
      "t": 204000,
      "d": 125,
      "v": 90
    },
    {
      "midi": 35,
      "hit": false,
      "t": 204000,
      "d": 125,
      "v": 100
    },
    {
      "midi": 74,
      "hit": false,
      "t": 204000,
      "d": 1025,
      "v": 76
    },
    {
      "midi": 65,
      "hit": false,
      "t": 204000,
      "d": 1025,
      "v": 76
    },
    {
      "midi": 67,
      "hit": false,
      "t": 204000,
      "d": 1025,
      "v": 76
    },
    {
      "midi": 70,
      "hit": false,
      "t": 204000,
      "d": 1025,
      "v": 76
    },
    {
      "midi": 82,
      "hit": false,
      "t": 204000,
      "d": 450,
      "v": 98
    },
    {
      "midi": 58,
      "hit": false,
      "t": 204000,
      "d": 450,
      "v": 98
    },
    {
      "midi": 42,
      "hit": false,
      "t": 204300,
      "d": 125,
      "v": 70
    },
    {
      "midi": 55,
      "hit": false,
      "t": 204300,
      "d": 605,
      "v": 68
    },
    {
      "midi": 84,
      "hit": false,
      "t": 204450,
      "d": 450,
      "v": 98
    },
    {
      "midi": 60,
      "hit": false,
      "t": 204450,
      "d": 450,
      "v": 98
    },
    {
      "midi": 37,
      "hit": false,
      "t": 204600,
      "d": 125,
      "v": 100
    },
    {
      "midi": 42,
      "hit": false,
      "t": 204600,
      "d": 125,
      "v": 80
    },
    {
      "midi": 58,
      "hit": false,
      "t": 204600,
      "d": 405,
      "v": 85
    },
    {
      "midi": 43,
      "hit": false,
      "t": 204890,
      "d": 170,
      "v": 85
    },
    {
      "midi": 42,
      "hit": false,
      "t": 204900,
      "d": 125,
      "v": 70
    },
    {
      "midi": 35,
      "hit": false,
      "t": 204900,
      "d": 125,
      "v": 80
    },
    {
      "midi": 62,
      "hit": false,
      "t": 204900,
      "d": 170,
      "v": 87
    },
    {
      "midi": 82,
      "hit": false,
      "t": 204900,
      "d": 300,
      "v": 98
    },
    {
      "midi": 58,
      "hit": false,
      "t": 204900,
      "d": 300,
      "v": 98
    },
    {
      "midi": 33,
      "hit": false,
      "t": 205200,
      "d": 705,
      "v": 82
    },
    {
      "midi": 42,
      "hit": false,
      "t": 205200,
      "d": 125,
      "v": 90
    },
    {
      "midi": 35,
      "hit": false,
      "t": 205200,
      "d": 125,
      "v": 100
    },
    {
      "midi": 81,
      "hit": false,
      "t": 205200,
      "d": 450,
      "v": 98
    },
    {
      "midi": 73,
      "hit": false,
      "t": 205200,
      "d": 450,
      "v": 98
    },
    {
      "midi": 57,
      "hit": false,
      "t": 205200,
      "d": 450,
      "v": 98
    },
    {
      "midi": 49,
      "hit": false,
      "t": 205200,
      "d": 450,
      "v": 98
    },
    {
      "midi": 69,
      "hit": false,
      "t": 205210,
      "d": 1005,
      "v": 72
    },
    {
      "midi": 64,
      "hit": false,
      "t": 205210,
      "d": 1005,
      "v": 72
    },
    {
      "midi": 67,
      "hit": false,
      "t": 205210,
      "d": 1005,
      "v": 72
    },
    {
      "midi": 42,
      "hit": false,
      "t": 205500,
      "d": 125,
      "v": 70
    },
    {
      "midi": 35,
      "hit": false,
      "t": 205500,
      "d": 125,
      "v": 80
    },
    {
      "midi": 79,
      "hit": false,
      "t": 205650,
      "d": 450,
      "v": 98
    },
    {
      "midi": 55,
      "hit": false,
      "t": 205650,
      "d": 450,
      "v": 98
    },
    {
      "midi": 37,
      "hit": false,
      "t": 205800,
      "d": 125,
      "v": 100
    },
    {
      "midi": 42,
      "hit": false,
      "t": 205800,
      "d": 125,
      "v": 80
    },
    {
      "midi": 33,
      "hit": false,
      "t": 206090,
      "d": 170,
      "v": 85
    },
    {
      "midi": 42,
      "hit": false,
      "t": 206100,
      "d": 125,
      "v": 70
    },
    {
      "midi": 35,
      "hit": false,
      "t": 206100,
      "d": 125,
      "v": 80
    },
    {
      "midi": 84,
      "hit": false,
      "t": 206100,
      "d": 300,
      "v": 98
    },
    {
      "midi": 60,
      "hit": false,
      "t": 206100,
      "d": 300,
      "v": 98
    },
    {
      "midi": 61,
      "hit": false,
      "t": 206115,
      "d": 100,
      "v": 66
    },
    {
      "midi": 64,
      "hit": false,
      "t": 206270,
      "d": 130,
      "v": 70
    },
    {
      "midi": 38,
      "hit": false,
      "t": 206400,
      "d": 705,
      "v": 82
    },
    {
      "midi": 42,
      "hit": false,
      "t": 206400,
      "d": 125,
      "v": 90
    },
    {
      "midi": 35,
      "hit": false,
      "t": 206400,
      "d": 125,
      "v": 100
    },
    {
      "midi": 81,
      "hit": false,
      "t": 206400,
      "d": 600,
      "v": 98
    },
    {
      "midi": 57,
      "hit": false,
      "t": 206400,
      "d": 600,
      "v": 98
    },
    {
      "midi": 57,
      "hit": false,
      "t": 206410,
      "d": 1005,
      "v": 72
    },
    {
      "midi": 62,
      "hit": false,
      "t": 206410,
      "d": 1005,
      "v": 72
    },
    {
      "midi": 42,
      "hit": false,
      "t": 206700,
      "d": 125,
      "v": 70
    },
    {
      "midi": 37,
      "hit": false,
      "t": 207000,
      "d": 125,
      "v": 100
    },
    {
      "midi": 42,
      "hit": false,
      "t": 207000,
      "d": 125,
      "v": 80
    },
    {
      "midi": 38,
      "hit": false,
      "t": 207290,
      "d": 170,
      "v": 85
    },
    {
      "midi": 42,
      "hit": false,
      "t": 207300,
      "d": 125,
      "v": 70
    },
    {
      "midi": 35,
      "hit": false,
      "t": 207300,
      "d": 125,
      "v": 80
    },
    {
      "midi": 65,
      "hit": false,
      "t": 207315,
      "d": 100,
      "v": 66
    },
    {
      "midi": 69,
      "hit": false,
      "t": 207470,
      "d": 130,
      "v": 70
    },
    {
      "midi": 42,
      "hit": false,
      "t": 207600,
      "d": 125,
      "v": 90
    },
    {
      "midi": 35,
      "hit": false,
      "t": 207600,
      "d": 125,
      "v": 100
    },
    {
      "midi": 55,
      "hit": false,
      "t": 207600,
      "d": 1200,
      "v": 80
    },
    {
      "midi": 59,
      "hit": false,
      "t": 207600,
      "d": 1200,
      "v": 80
    },
    {
      "midi": 62,
      "hit": false,
      "t": 207600,
      "d": 1200,
      "v": 80
    },
    {
      "midi": 43,
      "hit": false,
      "t": 207605,
      "d": 730,
      "v": 72
    },
    {
      "midi": 42,
      "hit": false,
      "t": 207900,
      "d": 125,
      "v": 70
    },
    {
      "midi": 37,
      "hit": false,
      "t": 208200,
      "d": 125,
      "v": 100
    },
    {
      "midi": 42,
      "hit": false,
      "t": 208200,
      "d": 125,
      "v": 80
    },
    {
      "midi": 42,
      "hit": false,
      "t": 208500,
      "d": 125,
      "v": 70
    },
    {
      "midi": 35,
      "hit": false,
      "t": 208500,
      "d": 125,
      "v": 80
    },
    {
      "midi": 43,
      "hit": false,
      "t": 208520,
      "d": 160,
      "v": 74
    },
    {
      "midi": 43,
      "hit": false,
      "t": 208800,
      "d": 705,
      "v": 82
    },
    {
      "midi": 42,
      "hit": false,
      "t": 208800,
      "d": 125,
      "v": 90
    },
    {
      "midi": 35,
      "hit": false,
      "t": 208800,
      "d": 125,
      "v": 100
    },
    {
      "midi": 81,
      "hit": false,
      "t": 208800,
      "d": 450,
      "v": 98
    },
    {
      "midi": 70,
      "hit": false,
      "t": 208800,
      "d": 450,
      "v": 98
    },
    {
      "midi": 57,
      "hit": false,
      "t": 208800,
      "d": 450,
      "v": 98
    },
    {
      "midi": 46,
      "hit": false,
      "t": 208800,
      "d": 450,
      "v": 98
    },
    {
      "midi": 67,
      "hit": false,
      "t": 208810,
      "d": 1005,
      "v": 72
    },
    {
      "midi": 62,
      "hit": false,
      "t": 208810,
      "d": 1005,
      "v": 72
    },
    {
      "midi": 65,
      "hit": false,
      "t": 208810,
      "d": 1005,
      "v": 72
    },
    {
      "midi": 42,
      "hit": false,
      "t": 209100,
      "d": 125,
      "v": 70
    },
    {
      "midi": 79,
      "hit": false,
      "t": 209250,
      "d": 450,
      "v": 98
    },
    {
      "midi": 55,
      "hit": false,
      "t": 209250,
      "d": 450,
      "v": 98
    },
    {
      "midi": 37,
      "hit": false,
      "t": 209400,
      "d": 125,
      "v": 100
    },
    {
      "midi": 42,
      "hit": false,
      "t": 209400,
      "d": 125,
      "v": 80
    },
    {
      "midi": 43,
      "hit": false,
      "t": 209690,
      "d": 170,
      "v": 85
    },
    {
      "midi": 42,
      "hit": false,
      "t": 209700,
      "d": 125,
      "v": 70
    },
    {
      "midi": 35,
      "hit": false,
      "t": 209700,
      "d": 125,
      "v": 80
    },
    {
      "midi": 77,
      "hit": false,
      "t": 209700,
      "d": 300,
      "v": 98
    },
    {
      "midi": 53,
      "hit": false,
      "t": 209700,
      "d": 300,
      "v": 98
    },
    {
      "midi": 58,
      "hit": false,
      "t": 209715,
      "d": 100,
      "v": 66
    },
    {
      "midi": 62,
      "hit": false,
      "t": 209870,
      "d": 130,
      "v": 70
    },
    {
      "midi": 33,
      "hit": false,
      "t": 210000,
      "d": 705,
      "v": 82
    },
    {
      "midi": 42,
      "hit": false,
      "t": 210000,
      "d": 125,
      "v": 90
    },
    {
      "midi": 35,
      "hit": false,
      "t": 210000,
      "d": 125,
      "v": 100
    },
    {
      "midi": 79,
      "hit": false,
      "t": 210000,
      "d": 450,
      "v": 98
    },
    {
      "midi": 72,
      "hit": false,
      "t": 210000,
      "d": 450,
      "v": 98
    },
    {
      "midi": 55,
      "hit": false,
      "t": 210000,
      "d": 450,
      "v": 98
    },
    {
      "midi": 48,
      "hit": false,
      "t": 210000,
      "d": 450,
      "v": 98
    },
    {
      "midi": 69,
      "hit": false,
      "t": 210010,
      "d": 1005,
      "v": 72
    },
    {
      "midi": 64,
      "hit": false,
      "t": 210010,
      "d": 1005,
      "v": 72
    },
    {
      "midi": 67,
      "hit": false,
      "t": 210010,
      "d": 1005,
      "v": 72
    },
    {
      "midi": 42,
      "hit": false,
      "t": 210300,
      "d": 125,
      "v": 70
    },
    {
      "midi": 77,
      "hit": false,
      "t": 210450,
      "d": 450,
      "v": 98
    },
    {
      "midi": 53,
      "hit": false,
      "t": 210450,
      "d": 450,
      "v": 98
    },
    {
      "midi": 37,
      "hit": false,
      "t": 210600,
      "d": 125,
      "v": 100
    },
    {
      "midi": 42,
      "hit": false,
      "t": 210600,
      "d": 125,
      "v": 80
    },
    {
      "midi": 33,
      "hit": false,
      "t": 210890,
      "d": 170,
      "v": 85
    },
    {
      "midi": 42,
      "hit": false,
      "t": 210900,
      "d": 125,
      "v": 70
    },
    {
      "midi": 35,
      "hit": false,
      "t": 210900,
      "d": 125,
      "v": 80
    },
    {
      "midi": 76,
      "hit": false,
      "t": 210900,
      "d": 300,
      "v": 98
    },
    {
      "midi": 52,
      "hit": false,
      "t": 210900,
      "d": 300,
      "v": 98
    },
    {
      "midi": 60,
      "hit": false,
      "t": 210915,
      "d": 100,
      "v": 66
    },
    {
      "midi": 64,
      "hit": false,
      "t": 211070,
      "d": 130,
      "v": 70
    },
    {
      "midi": 42,
      "hit": false,
      "t": 211200,
      "d": 125,
      "v": 90
    },
    {
      "midi": 35,
      "hit": false,
      "t": 211200,
      "d": 125,
      "v": 100
    },
    {
      "midi": 74,
      "hit": false,
      "t": 211200,
      "d": 600,
      "v": 98
    },
    {
      "midi": 70,
      "hit": false,
      "t": 211200,
      "d": 600,
      "v": 98
    },
    {
      "midi": 50,
      "hit": false,
      "t": 211200,
      "d": 600,
      "v": 98
    },
    {
      "midi": 46,
      "hit": false,
      "t": 211200,
      "d": 600,
      "v": 98
    },
    {
      "midi": 70,
      "hit": false,
      "t": 211220,
      "d": 1365,
      "v": 74
    },
    {
      "midi": 61,
      "hit": false,
      "t": 211220,
      "d": 1365,
      "v": 74
    },
    {
      "midi": 65,
      "hit": false,
      "t": 211220,
      "d": 1365,
      "v": 74
    },
    {
      "midi": 68,
      "hit": false,
      "t": 211220,
      "d": 1365,
      "v": 74
    },
    {
      "midi": 34,
      "hit": false,
      "t": 211230,
      "d": 660,
      "v": 63
    },
    {
      "midi": 42,
      "hit": false,
      "t": 211500,
      "d": 125,
      "v": 70
    },
    {
      "midi": 37,
      "hit": false,
      "t": 211800,
      "d": 125,
      "v": 100
    },
    {
      "midi": 42,
      "hit": false,
      "t": 211800,
      "d": 125,
      "v": 80
    },
    {
      "midi": 42,
      "hit": false,
      "t": 212100,
      "d": 125,
      "v": 70
    },
    {
      "midi": 35,
      "hit": false,
      "t": 212100,
      "d": 125,
      "v": 80
    },
    {
      "midi": 34,
      "hit": false,
      "t": 212115,
      "d": 80,
      "v": 64
    },
    {
      "midi": 42,
      "hit": false,
      "t": 212400,
      "d": 125,
      "v": 90
    },
    {
      "midi": 35,
      "hit": false,
      "t": 212400,
      "d": 125,
      "v": 100
    },
    {
      "midi": 34,
      "hit": false,
      "t": 212420,
      "d": 800,
      "v": 78
    },
    {
      "midi": 42,
      "hit": false,
      "t": 212700,
      "d": 125,
      "v": 70
    },
    {
      "midi": 46,
      "hit": false,
      "t": 212715,
      "d": 340,
      "v": 78
    },
    {
      "midi": 37,
      "hit": false,
      "t": 213000,
      "d": 125,
      "v": 100
    },
    {
      "midi": 42,
      "hit": false,
      "t": 213000,
      "d": 125,
      "v": 80
    },
    {
      "midi": 70,
      "hit": false,
      "t": 213010,
      "d": 420,
      "v": 74
    },
    {
      "midi": 61,
      "hit": false,
      "t": 213010,
      "d": 420,
      "v": 74
    },
    {
      "midi": 65,
      "hit": false,
      "t": 213010,
      "d": 420,
      "v": 74
    },
    {
      "midi": 68,
      "hit": false,
      "t": 213010,
      "d": 420,
      "v": 74
    },
    {
      "midi": 42,
      "hit": false,
      "t": 213300,
      "d": 125,
      "v": 70
    },
    {
      "midi": 35,
      "hit": false,
      "t": 213300,
      "d": 125,
      "v": 80
    },
    {
      "midi": 79,
      "hit": false,
      "t": 213300,
      "d": 300,
      "v": 98
    },
    {
      "midi": 55,
      "hit": false,
      "t": 213300,
      "d": 300,
      "v": 98
    },
    {
      "midi": 34,
      "hit": false,
      "t": 213330,
      "d": 90,
      "v": 87
    },
    {
      "midi": 42,
      "hit": false,
      "t": 213600,
      "d": 125,
      "v": 90
    },
    {
      "midi": 35,
      "hit": false,
      "t": 213600,
      "d": 125,
      "v": 100
    },
    {
      "midi": 67,
      "hit": false,
      "t": 213600,
      "d": 1200,
      "v": 80
    },
    {
      "midi": 58,
      "hit": false,
      "t": 213600,
      "d": 1200,
      "v": 80
    },
    {
      "midi": 62,
      "hit": false,
      "t": 213600,
      "d": 1200,
      "v": 80
    },
    {
      "midi": 65,
      "hit": false,
      "t": 213600,
      "d": 1200,
      "v": 80
    },
    {
      "midi": 81,
      "hit": false,
      "t": 213600,
      "d": 450,
      "v": 98
    },
    {
      "midi": 70,
      "hit": false,
      "t": 213600,
      "d": 450,
      "v": 98
    },
    {
      "midi": 57,
      "hit": false,
      "t": 213600,
      "d": 450,
      "v": 98
    },
    {
      "midi": 46,
      "hit": false,
      "t": 213600,
      "d": 450,
      "v": 98
    },
    {
      "midi": 43,
      "hit": false,
      "t": 213605,
      "d": 730,
      "v": 72
    },
    {
      "midi": 42,
      "hit": false,
      "t": 213900,
      "d": 125,
      "v": 70
    },
    {
      "midi": 79,
      "hit": false,
      "t": 214050,
      "d": 450,
      "v": 98
    },
    {
      "midi": 55,
      "hit": false,
      "t": 214050,
      "d": 450,
      "v": 98
    },
    {
      "midi": 37,
      "hit": false,
      "t": 214200,
      "d": 125,
      "v": 100
    },
    {
      "midi": 42,
      "hit": false,
      "t": 214200,
      "d": 125,
      "v": 80
    },
    {
      "midi": 42,
      "hit": false,
      "t": 214500,
      "d": 125,
      "v": 70
    },
    {
      "midi": 35,
      "hit": false,
      "t": 214500,
      "d": 125,
      "v": 80
    },
    {
      "midi": 77,
      "hit": false,
      "t": 214500,
      "d": 300,
      "v": 98
    },
    {
      "midi": 53,
      "hit": false,
      "t": 214500,
      "d": 300,
      "v": 98
    },
    {
      "midi": 43,
      "hit": false,
      "t": 214520,
      "d": 160,
      "v": 74
    },
    {
      "midi": 33,
      "hit": false,
      "t": 214800,
      "d": 705,
      "v": 82
    },
    {
      "midi": 42,
      "hit": false,
      "t": 214800,
      "d": 125,
      "v": 90
    },
    {
      "midi": 35,
      "hit": false,
      "t": 214800,
      "d": 125,
      "v": 100
    },
    {
      "midi": 79,
      "hit": false,
      "t": 214800,
      "d": 450,
      "v": 98
    },
    {
      "midi": 72,
      "hit": false,
      "t": 214800,
      "d": 450,
      "v": 98
    },
    {
      "midi": 55,
      "hit": false,
      "t": 214800,
      "d": 450,
      "v": 98
    },
    {
      "midi": 48,
      "hit": false,
      "t": 214800,
      "d": 450,
      "v": 98
    },
    {
      "midi": 69,
      "hit": false,
      "t": 214810,
      "d": 1005,
      "v": 72
    },
    {
      "midi": 64,
      "hit": false,
      "t": 214810,
      "d": 1005,
      "v": 72
    },
    {
      "midi": 67,
      "hit": false,
      "t": 214810,
      "d": 1005,
      "v": 72
    },
    {
      "midi": 42,
      "hit": false,
      "t": 215100,
      "d": 125,
      "v": 70
    },
    {
      "midi": 81,
      "hit": false,
      "t": 215250,
      "d": 450,
      "v": 98
    },
    {
      "midi": 57,
      "hit": false,
      "t": 215250,
      "d": 450,
      "v": 98
    },
    {
      "midi": 37,
      "hit": false,
      "t": 215400,
      "d": 125,
      "v": 100
    },
    {
      "midi": 42,
      "hit": false,
      "t": 215400,
      "d": 125,
      "v": 80
    },
    {
      "midi": 33,
      "hit": false,
      "t": 215690,
      "d": 170,
      "v": 85
    },
    {
      "midi": 42,
      "hit": false,
      "t": 215700,
      "d": 125,
      "v": 70
    },
    {
      "midi": 35,
      "hit": false,
      "t": 215700,
      "d": 125,
      "v": 80
    },
    {
      "midi": 79,
      "hit": false,
      "t": 215700,
      "d": 300,
      "v": 98
    },
    {
      "midi": 55,
      "hit": false,
      "t": 215700,
      "d": 300,
      "v": 98
    },
    {
      "midi": 60,
      "hit": false,
      "t": 215715,
      "d": 100,
      "v": 66
    },
    {
      "midi": 64,
      "hit": false,
      "t": 215870,
      "d": 130,
      "v": 70
    },
    {
      "midi": 42,
      "hit": false,
      "t": 216000,
      "d": 125,
      "v": 90
    },
    {
      "midi": 35,
      "hit": false,
      "t": 216000,
      "d": 125,
      "v": 100
    },
    {
      "midi": 70,
      "hit": false,
      "t": 216000,
      "d": 1200,
      "v": 80
    },
    {
      "midi": 61,
      "hit": false,
      "t": 216000,
      "d": 1200,
      "v": 80
    },
    {
      "midi": 65,
      "hit": false,
      "t": 216000,
      "d": 1200,
      "v": 80
    },
    {
      "midi": 68,
      "hit": false,
      "t": 216000,
      "d": 1200,
      "v": 80
    },
    {
      "midi": 77,
      "hit": false,
      "t": 216000,
      "d": 600,
      "v": 98
    },
    {
      "midi": 74,
      "hit": false,
      "t": 216000,
      "d": 600,
      "v": 98
    },
    {
      "midi": 53,
      "hit": false,
      "t": 216000,
      "d": 600,
      "v": 98
    },
    {
      "midi": 50,
      "hit": false,
      "t": 216000,
      "d": 600,
      "v": 98
    },
    {
      "midi": 34,
      "hit": false,
      "t": 216005,
      "d": 730,
      "v": 72
    },
    {
      "midi": 42,
      "hit": false,
      "t": 216300,
      "d": 125,
      "v": 70
    },
    {
      "midi": 37,
      "hit": false,
      "t": 216600,
      "d": 125,
      "v": 100
    },
    {
      "midi": 42,
      "hit": false,
      "t": 216600,
      "d": 125,
      "v": 80
    },
    {
      "midi": 42,
      "hit": false,
      "t": 216900,
      "d": 125,
      "v": 70
    },
    {
      "midi": 35,
      "hit": false,
      "t": 216900,
      "d": 125,
      "v": 80
    },
    {
      "midi": 34,
      "hit": false,
      "t": 216920,
      "d": 160,
      "v": 74
    },
    {
      "midi": 33,
      "hit": false,
      "t": 217200,
      "d": 705,
      "v": 82
    },
    {
      "midi": 42,
      "hit": false,
      "t": 217200,
      "d": 125,
      "v": 90
    },
    {
      "midi": 35,
      "hit": false,
      "t": 217200,
      "d": 125,
      "v": 100
    },
    {
      "midi": 76,
      "hit": false,
      "t": 217200,
      "d": 450,
      "v": 98
    },
    {
      "midi": 72,
      "hit": false,
      "t": 217200,
      "d": 450,
      "v": 98
    },
    {
      "midi": 52,
      "hit": false,
      "t": 217200,
      "d": 450,
      "v": 98
    },
    {
      "midi": 48,
      "hit": false,
      "t": 217200,
      "d": 450,
      "v": 98
    },
    {
      "midi": 69,
      "hit": false,
      "t": 217210,
      "d": 1005,
      "v": 72
    },
    {
      "midi": 64,
      "hit": false,
      "t": 217210,
      "d": 1005,
      "v": 72
    },
    {
      "midi": 67,
      "hit": false,
      "t": 217210,
      "d": 1005,
      "v": 72
    },
    {
      "midi": 42,
      "hit": false,
      "t": 217500,
      "d": 125,
      "v": 70
    },
    {
      "midi": 77,
      "hit": false,
      "t": 217650,
      "d": 450,
      "v": 98
    },
    {
      "midi": 53,
      "hit": false,
      "t": 217650,
      "d": 450,
      "v": 98
    },
    {
      "midi": 37,
      "hit": false,
      "t": 217800,
      "d": 125,
      "v": 100
    },
    {
      "midi": 42,
      "hit": false,
      "t": 217800,
      "d": 125,
      "v": 80
    },
    {
      "midi": 33,
      "hit": false,
      "t": 218090,
      "d": 170,
      "v": 85
    },
    {
      "midi": 42,
      "hit": false,
      "t": 218100,
      "d": 125,
      "v": 70
    },
    {
      "midi": 35,
      "hit": false,
      "t": 218100,
      "d": 125,
      "v": 80
    },
    {
      "midi": 76,
      "hit": false,
      "t": 218100,
      "d": 300,
      "v": 98
    },
    {
      "midi": 52,
      "hit": false,
      "t": 218100,
      "d": 300,
      "v": 98
    },
    {
      "midi": 60,
      "hit": false,
      "t": 218115,
      "d": 100,
      "v": 66
    },
    {
      "midi": 64,
      "hit": false,
      "t": 218270,
      "d": 130,
      "v": 70
    },
    {
      "midi": 42,
      "hit": false,
      "t": 218400,
      "d": 125,
      "v": 90
    },
    {
      "midi": 35,
      "hit": false,
      "t": 218400,
      "d": 125,
      "v": 100
    },
    {
      "midi": 76,
      "hit": false,
      "t": 218400,
      "d": 600,
      "v": 98
    },
    {
      "midi": 52,
      "hit": false,
      "t": 218400,
      "d": 600,
      "v": 98
    },
    {
      "midi": 57,
      "hit": false,
      "t": 218415,
      "d": 1730,
      "v": 87
    },
    {
      "midi": 62,
      "hit": false,
      "t": 218415,
      "d": 1730,
      "v": 87
    },
    {
      "midi": 65,
      "hit": false,
      "t": 218415,
      "d": 1730,
      "v": 87
    },
    {
      "midi": 38,
      "hit": false,
      "t": 218430,
      "d": 660,
      "v": 63
    },
    {
      "midi": 42,
      "hit": false,
      "t": 218700,
      "d": 125,
      "v": 70
    },
    {
      "midi": 37,
      "hit": false,
      "t": 219000,
      "d": 125,
      "v": 100
    },
    {
      "midi": 42,
      "hit": false,
      "t": 219000,
      "d": 125,
      "v": 80
    },
    {
      "midi": 74,
      "hit": false,
      "t": 219000,
      "d": 1800,
      "v": 98
    },
    {
      "midi": 50,
      "hit": false,
      "t": 219000,
      "d": 1800,
      "v": 98
    },
    {
      "midi": 42,
      "hit": false,
      "t": 219300,
      "d": 125,
      "v": 70
    },
    {
      "midi": 35,
      "hit": false,
      "t": 219300,
      "d": 125,
      "v": 80
    },
    {
      "midi": 38,
      "hit": false,
      "t": 219315,
      "d": 80,
      "v": 64
    },
    {
      "midi": 42,
      "hit": false,
      "t": 219600,
      "d": 125,
      "v": 90
    },
    {
      "midi": 35,
      "hit": false,
      "t": 219600,
      "d": 125,
      "v": 100
    },
    {
      "midi": 38,
      "hit": false,
      "t": 219620,
      "d": 800,
      "v": 78
    },
    {
      "midi": 42,
      "hit": false,
      "t": 219900,
      "d": 125,
      "v": 70
    },
    {
      "midi": 69,
      "hit": false,
      "t": 219915,
      "d": 360,
      "v": 68
    },
    {
      "midi": 37,
      "hit": false,
      "t": 220200,
      "d": 125,
      "v": 100
    },
    {
      "midi": 42,
      "hit": false,
      "t": 220200,
      "d": 125,
      "v": 80
    },
    {
      "midi": 65,
      "hit": false,
      "t": 220215,
      "d": 350,
      "v": 64
    },
    {
      "midi": 42,
      "hit": false,
      "t": 220500,
      "d": 125,
      "v": 70
    },
    {
      "midi": 35,
      "hit": false,
      "t": 220500,
      "d": 125,
      "v": 80
    },
    {
      "midi": 62,
      "hit": false,
      "t": 220525,
      "d": 260,
      "v": 91
    },
    {
      "midi": 38,
      "hit": false,
      "t": 220530,
      "d": 90,
      "v": 87
    },
    {
      "midi": 36,
      "hit": false,
      "t": 220800,
      "d": 865,
      "v": 72
    },
    {
      "midi": 42,
      "hit": false,
      "t": 220800,
      "d": 125,
      "v": 90
    },
    {
      "midi": 35,
      "hit": false,
      "t": 220800,
      "d": 125,
      "v": 100
    },
    {
      "midi": 81,
      "hit": false,
      "t": 220800,
      "d": 2400,
      "v": 98
    },
    {
      "midi": 77,
      "hit": false,
      "t": 220800,
      "d": 2400,
      "v": 98
    },
    {
      "midi": 72,
      "hit": false,
      "t": 220800,
      "d": 2400,
      "v": 98
    },
    {
      "midi": 57,
      "hit": false,
      "t": 220800,
      "d": 2400,
      "v": 98
    },
    {
      "midi": 53,
      "hit": false,
      "t": 220800,
      "d": 2400,
      "v": 98
    },
    {
      "midi": 48,
      "hit": false,
      "t": 220800,
      "d": 2400,
      "v": 98
    },
    {
      "midi": 57,
      "hit": false,
      "t": 220815,
      "d": 1730,
      "v": 87
    },
    {
      "midi": 60,
      "hit": false,
      "t": 220815,
      "d": 1730,
      "v": 87
    },
    {
      "midi": 65,
      "hit": false,
      "t": 220815,
      "d": 1730,
      "v": 87
    },
    {
      "midi": 42,
      "hit": false,
      "t": 221100,
      "d": 125,
      "v": 70
    },
    {
      "midi": 37,
      "hit": false,
      "t": 221400,
      "d": 125,
      "v": 100
    },
    {
      "midi": 42,
      "hit": false,
      "t": 221400,
      "d": 125,
      "v": 80
    },
    {
      "midi": 36,
      "hit": false,
      "t": 221700,
      "d": 75,
      "v": 82
    },
    {
      "midi": 42,
      "hit": false,
      "t": 221700,
      "d": 125,
      "v": 70
    },
    {
      "midi": 35,
      "hit": false,
      "t": 221700,
      "d": 125,
      "v": 80
    },
    {
      "midi": 36,
      "hit": false,
      "t": 222000,
      "d": 95,
      "v": 85
    },
    {
      "midi": 42,
      "hit": false,
      "t": 222000,
      "d": 125,
      "v": 90
    },
    {
      "midi": 35,
      "hit": false,
      "t": 222000,
      "d": 125,
      "v": 100
    },
    {
      "midi": 36,
      "hit": false,
      "t": 222300,
      "d": 390,
      "v": 82
    },
    {
      "midi": 42,
      "hit": false,
      "t": 222300,
      "d": 125,
      "v": 70
    },
    {
      "midi": 72,
      "hit": false,
      "t": 222315,
      "d": 360,
      "v": 68
    },
    {
      "midi": 37,
      "hit": false,
      "t": 222600,
      "d": 125,
      "v": 100
    },
    {
      "midi": 42,
      "hit": false,
      "t": 222600,
      "d": 125,
      "v": 80
    },
    {
      "midi": 69,
      "hit": false,
      "t": 222615,
      "d": 350,
      "v": 64
    },
    {
      "midi": 36,
      "hit": false,
      "t": 222900,
      "d": 130,
      "v": 87
    },
    {
      "midi": 42,
      "hit": false,
      "t": 222900,
      "d": 125,
      "v": 70
    },
    {
      "midi": 35,
      "hit": false,
      "t": 222900,
      "d": 125,
      "v": 80
    },
    {
      "midi": 65,
      "hit": false,
      "t": 222925,
      "d": 260,
      "v": 91
    },
    {
      "midi": 34,
      "hit": false,
      "t": 223200,
      "d": 855,
      "v": 80
    },
    {
      "midi": 42,
      "hit": false,
      "t": 223200,
      "d": 125,
      "v": 90
    },
    {
      "midi": 35,
      "hit": false,
      "t": 223200,
      "d": 125,
      "v": 100
    },
    {
      "midi": 46,
      "hit": false,
      "t": 223200,
      "d": 980,
      "v": 54
    },
    {
      "midi": 67,
      "hit": false,
      "t": 223200,
      "d": 1200,
      "v": 57
    },
    {
      "midi": 70,
      "hit": false,
      "t": 223200,
      "d": 1225,
      "v": 56
    },
    {
      "midi": 63,
      "hit": false,
      "t": 223200,
      "d": 1245,
      "v": 61
    },
    {
      "midi": 79,
      "hit": false,
      "t": 223200,
      "d": 2400,
      "v": 98
    },
    {
      "midi": 75,
      "hit": false,
      "t": 223200,
      "d": 2400,
      "v": 98
    },
    {
      "midi": 55,
      "hit": false,
      "t": 223200,
      "d": 2400,
      "v": 98
    },
    {
      "midi": 51,
      "hit": false,
      "t": 223200,
      "d": 2400,
      "v": 98
    },
    {
      "midi": 42,
      "hit": false,
      "t": 223500,
      "d": 125,
      "v": 70
    },
    {
      "midi": 37,
      "hit": false,
      "t": 223800,
      "d": 125,
      "v": 100
    },
    {
      "midi": 42,
      "hit": false,
      "t": 223800,
      "d": 125,
      "v": 80
    },
    {
      "midi": 42,
      "hit": false,
      "t": 224100,
      "d": 125,
      "v": 70
    },
    {
      "midi": 35,
      "hit": false,
      "t": 224100,
      "d": 125,
      "v": 80
    },
    {
      "midi": 34,
      "hit": false,
      "t": 224100,
      "d": 1280,
      "v": 49
    },
    {
      "midi": 34,
      "hit": false,
      "t": 224105,
      "d": 300,
      "v": 58
    },
    {
      "midi": 42,
      "hit": false,
      "t": 224400,
      "d": 125,
      "v": 90
    },
    {
      "midi": 35,
      "hit": false,
      "t": 224400,
      "d": 125,
      "v": 100
    },
    {
      "midi": 46,
      "hit": false,
      "t": 224400,
      "d": 1145,
      "v": 52
    },
    {
      "midi": 34,
      "hit": false,
      "t": 224405,
      "d": 100,
      "v": 68
    },
    {
      "midi": 42,
      "hit": false,
      "t": 224700,
      "d": 125,
      "v": 70
    },
    {
      "midi": 38,
      "hit": false,
      "t": 224700,
      "d": 125,
      "v": 100
    },
    {
      "midi": 63,
      "hit": false,
      "t": 224700,
      "d": 815,
      "v": 76
    },
    {
      "midi": 34,
      "hit": false,
      "t": 224710,
      "d": 340,
      "v": 74
    },
    {
      "midi": 38,
      "hit": false,
      "t": 224850,
      "d": 125,
      "v": 80
    },
    {
      "midi": 42,
      "hit": false,
      "t": 225000,
      "d": 125,
      "v": 80
    },
    {
      "midi": 38,
      "hit": false,
      "t": 225000,
      "d": 125,
      "v": 115
    },
    {
      "midi": 34,
      "hit": false,
      "t": 225295,
      "d": 140,
      "v": 76
    },
    {
      "midi": 46,
      "hit": false,
      "t": 225300,
      "d": 125,
      "v": 90
    },
    {
      "midi": 35,
      "hit": false,
      "t": 225300,
      "d": 125,
      "v": 80
    },
    {
      "midi": 67,
      "hit": false,
      "t": 225300,
      "d": 190,
      "v": 87
    },
    {
      "midi": 49,
      "hit": false,
      "t": 225600,
      "d": 125,
      "v": 90
    },
    {
      "midi": 42,
      "hit": false,
      "t": 225600,
      "d": 125,
      "v": 90
    },
    {
      "midi": 35,
      "hit": false,
      "t": 225600,
      "d": 125,
      "v": 100
    },
    {
      "midi": 58,
      "hit": false,
      "t": 225600,
      "d": 3185,
      "v": 82
    },
    {
      "midi": 55,
      "hit": false,
      "t": 225600,
      "d": 3185,
      "v": 82
    },
    {
      "midi": 63,
      "hit": false,
      "t": 225600,
      "d": 3185,
      "v": 82
    },
    {
      "midi": 39,
      "hit": false,
      "t": 225625,
      "d": 675,
      "v": 76
    },
    {
      "midi": 79,
      "hit": false,
      "t": 225750,
      "d": 3220,
      "v": 15
    },
    {
      "midi": 87,
      "hit": false,
      "t": 225750,
      "d": 3225,
      "v": 52
    },
    {
      "midi": 42,
      "hit": false,
      "t": 225900,
      "d": 125,
      "v": 70
    },
    {
      "midi": 42,
      "hit": false,
      "t": 226200,
      "d": 125,
      "v": 80
    },
    {
      "midi": 38,
      "hit": false,
      "t": 226200,
      "d": 125,
      "v": 100
    },
    {
      "midi": 42,
      "hit": false,
      "t": 226500,
      "d": 125,
      "v": 70
    },
    {
      "midi": 35,
      "hit": false,
      "t": 226500,
      "d": 125,
      "v": 80
    },
    {
      "midi": 39,
      "hit": false,
      "t": 226530,
      "d": 70,
      "v": 68
    },
    {
      "midi": 42,
      "hit": false,
      "t": 226800,
      "d": 125,
      "v": 90
    },
    {
      "midi": 35,
      "hit": false,
      "t": 226800,
      "d": 125,
      "v": 100
    },
    {
      "midi": 39,
      "hit": false,
      "t": 226835,
      "d": 795,
      "v": 63
    },
    {
      "midi": 42,
      "hit": false,
      "t": 227100,
      "d": 125,
      "v": 70
    },
    {
      "midi": 42,
      "hit": false,
      "t": 227400,
      "d": 125,
      "v": 80
    },
    {
      "midi": 38,
      "hit": false,
      "t": 227400,
      "d": 125,
      "v": 100
    },
    {
      "midi": 34,
      "hit": false,
      "t": 227690,
      "d": 155,
      "v": 63
    },
    {
      "midi": 42,
      "hit": false,
      "t": 227700,
      "d": 125,
      "v": 70
    },
    {
      "midi": 36,
      "hit": false,
      "t": 227855,
      "d": 195,
      "v": 80
    },
    {
      "midi": 42,
      "hit": false,
      "t": 228000,
      "d": 125,
      "v": 90
    },
    {
      "midi": 35,
      "hit": false,
      "t": 228000,
      "d": 125,
      "v": 90
    },
    {
      "midi": 39,
      "hit": false,
      "t": 228040,
      "d": 680,
      "v": 82
    },
    {
      "midi": 42,
      "hit": false,
      "t": 228300,
      "d": 125,
      "v": 70
    },
    {
      "midi": 38,
      "hit": false,
      "t": 228600,
      "d": 125,
      "v": 100
    },
    {
      "midi": 35,
      "hit": false,
      "t": 228900,
      "d": 125,
      "v": 90
    },
    {
      "midi": 51,
      "hit": false,
      "t": 228900,
      "d": 320,
      "v": 59
    },
    {
      "midi": 39,
      "hit": false,
      "t": 228910,
      "d": 170,
      "v": 89
    },
    {
      "midi": 49,
      "hit": false,
      "t": 229200,
      "d": 125,
      "v": 90
    },
    {
      "midi": 38,
      "hit": false,
      "t": 229200,
      "d": 125,
      "v": 115
    },
    {
      "midi": 58,
      "hit": false,
      "t": 229200,
      "d": 595,
      "v": 68
    },
    {
      "midi": 55,
      "hit": false,
      "t": 229200,
      "d": 595,
      "v": 68
    },
    {
      "midi": 63,
      "hit": false,
      "t": 229200,
      "d": 595,
      "v": 68
    },
    {
      "midi": 79,
      "hit": false,
      "t": 229200,
      "d": 630,
      "v": 33
    },
    {
      "midi": 87,
      "hit": false,
      "t": 229200,
      "d": 630,
      "v": 42
    },
    {
      "midi": 39,
      "hit": false,
      "t": 229235,
      "d": 1125,
      "v": 87
    }
  ]
}