{
  "jsonPath": "Rock/Glam Rock/Suzi Quatro/if-you-cant-give-me-love.json",
  "path": "Rock\\Glam Rock\\Suzi Quatro\\If You Cant Give Me Love.mid",
  "name": "If You Cant Give Me Love",
  "difficulty": "Advanced",
  "bpm": 130.00210170064415,
  "notes": [
    {
      "midi": 57,
      "hit": false,
      "t": 35076.356,
      "d": 3690.3249541666664,
      "v": 1
    },
    {
      "midi": 61,
      "hit": false,
      "t": 35076.356,
      "d": 3690.3249541666664,
      "v": 1
    },
    {
      "midi": 64,
      "hit": false,
      "t": 35076.356,
      "d": 3690.3249541666664,
      "v": 1
    },
    {
      "midi": 54,
      "hit": false,
      "t": 38768.604,
      "d": 2998.0284541666697,
      "v": 1
    },
    {
      "midi": 59,
      "hit": false,
      "t": 38768.604,
      "d": 2998.0284541666697,
      "v": 1
    },
    {
      "midi": 62,
      "hit": false,
      "t": 38768.604,
      "d": 2998.0284541666697,
      "v": 1
    },
    {
      "midi": 54,
      "hit": false,
      "t": 42460.852,
      "d": 3685.5173395833335,
      "v": 1
    },
    {
      "midi": 62,
      "hit": false,
      "t": 42460.852,
      "d": 3685.5173395833335,
      "v": 1
    },
    {
      "midi": 57,
      "hit": false,
      "t": 42460.852,
      "d": 5531.64133958333,
      "v": 1
    },
    {
      "midi": 61,
      "hit": false,
      "t": 46153.1,
      "d": 1839.39333958333,
      "v": 1
    },
    {
      "midi": 64,
      "hit": false,
      "t": 46153.1,
      "d": 2998.0284541666624,
      "v": 1
    },
    {
      "midi": 56,
      "hit": false,
      "t": 47999.223999999995,
      "d": 1151.9044541666663,
      "v": 1
    },
    {
      "midi": 59,
      "hit": false,
      "t": 47999.223999999995,
      "d": 1151.9044541666663,
      "v": 1
    },
    {
      "midi": 62,
      "hit": false,
      "t": 49845.34799999999,
      "d": 921.1389541666649,
      "v": 1
    },
    {
      "midi": 66,
      "hit": false,
      "t": 49845.34799999999,
      "d": 921.1389541666649,
      "v": 1
    },
    {
      "midi": 59,
      "hit": false,
      "t": 50768.40999999999,
      "d": 921.1389541666649,
      "v": 1
    },
    {
      "midi": 64,
      "hit": false,
      "t": 50768.40999999999,
      "d": 921.1389541666649,
      "v": 1
    },
    {
      "midi": 68,
      "hit": false,
      "t": 50768.40999999999,
      "d": 921.1389541666649,
      "v": 1
    },
    {
      "midi": 62,
      "hit": false,
      "t": 51691.47199999999,
      "d": 921.1389541666649,
      "v": 1
    },
    {
      "midi": 66,
      "hit": false,
      "t": 51691.47199999999,
      "d": 921.1389541666649,
      "v": 1
    },
    {
      "midi": 59,
      "hit": false,
      "t": 52614.533999999985,
      "d": 921.1389541666649,
      "v": 1
    },
    {
      "midi": 64,
      "hit": false,
      "t": 52614.533999999985,
      "d": 921.1389541666649,
      "v": 1
    },
    {
      "midi": 68,
      "hit": false,
      "t": 52614.533999999985,
      "d": 921.1389541666649,
      "v": 1
    },
    {
      "midi": 62,
      "hit": false,
      "t": 53537.59599999998,
      "d": 921.1389541666649,
      "v": 1
    },
    {
      "midi": 66,
      "hit": false,
      "t": 53537.59599999998,
      "d": 921.1389541666649,
      "v": 1
    },
    {
      "midi": 59,
      "hit": false,
      "t": 54460.65799999998,
      "d": 921.1389541666649,
      "v": 1
    },
    {
      "midi": 64,
      "hit": false,
      "t": 54460.65799999998,
      "d": 921.1389541666649,
      "v": 1
    },
    {
      "midi": 68,
      "hit": false,
      "t": 54460.65799999998,
      "d": 921.1389541666649,
      "v": 1
    },
    {
      "midi": 61,
      "hit": false,
      "t": 55383.71999999998,
      "d": 921.1389541666649,
      "v": 1
    },
    {
      "midi": 69,
      "hit": false,
      "t": 55383.71999999998,
      "d": 921.1389541666649,
      "v": 1
    },
    {
      "midi": 57,
      "hit": false,
      "t": 56306.78199999998,
      "d": 921.1389541666649,
      "v": 1
    },
    {
      "midi": 66,
      "hit": false,
      "t": 56306.78199999998,
      "d": 921.1389541666649,
      "v": 1
    },
    {
      "midi": 62,
      "hit": false,
      "t": 57229.843999999975,
      "d": 921.1389541666649,
      "v": 1
    },
    {
      "midi": 66,
      "hit": false,
      "t": 57229.843999999975,
      "d": 921.1389541666649,
      "v": 1
    },
    {
      "midi": 59,
      "hit": false,
      "t": 58152.90599999997,
      "d": 921.1389541666649,
      "v": 1
    },
    {
      "midi": 68,
      "hit": false,
      "t": 58152.90599999997,
      "d": 921.1389541666649,
      "v": 1
    },
    {
      "midi": 62,
      "hit": false,
      "t": 59075.96799999997,
      "d": 921.1389541666649,
      "v": 1
    },
    {
      "midi": 66,
      "hit": false,
      "t": 59075.96799999997,
      "d": 921.1389541666649,
      "v": 1
    },
    {
      "midi": 59,
      "hit": false,
      "t": 59999.02999999997,
      "d": 921.1389541666649,
      "v": 1
    },
    {
      "midi": 64,
      "hit": false,
      "t": 59999.02999999997,
      "d": 921.1389541666649,
      "v": 1
    },
    {
      "midi": 68,
      "hit": false,
      "t": 59999.02999999997,
      "d": 921.1389541666649,
      "v": 1
    },
    {
      "midi": 62,
      "hit": false,
      "t": 60922.09199999997,
      "d": 921.1389541666649,
      "v": 1
    },
    {
      "midi": 66,
      "hit": false,
      "t": 60922.09199999997,
      "d": 921.1389541666649,
      "v": 1
    },
    {
      "midi": 59,
      "hit": false,
      "t": 61845.153999999966,
      "d": 921.1389541666649,
      "v": 1
    },
    {
      "midi": 64,
      "hit": false,
      "t": 61845.153999999966,
      "d": 921.1389541666649,
      "v": 1
    },
    {
      "midi": 68,
      "hit": false,
      "t": 61845.153999999966,
      "d": 921.1389541666649,
      "v": 1
    },
    {
      "midi": 57,
      "hit": false,
      "t": 62768.215999999964,
      "d": 1767.2791208333365,
      "v": 1
    },
    {
      "midi": 61,
      "hit": false,
      "t": 62768.215999999964,
      "d": 1767.2791208333365,
      "v": 1
    },
    {
      "midi": 64,
      "hit": false,
      "t": 62768.215999999964,
      "d": 1767.2791208333365,
      "v": 1
    },
    {
      "midi": 57,
      "hit": false,
      "t": 64614.340000000004,
      "d": 1716.3184062500004,
      "v": 103
    },
    {
      "midi": 61,
      "hit": false,
      "t": 64831.64417916667,
      "d": 936.5233208333375,
      "v": 89
    },
    {
      "midi": 64,
      "hit": false,
      "t": 65067.21729375001,
      "d": 292.3029666666698,
      "v": 83
    },
    {
      "midi": 69,
      "hit": false,
      "t": 65297.02127083334,
      "d": 1103.8283083333226,
      "v": 94
    },
    {
      "midi": 69,
      "hit": false,
      "t": 65537.40199999997,
      "d": 947.1000729166699,
      "v": 1
    },
    {
      "midi": 52,
      "hit": false,
      "t": 65537.40199999997,
      "d": 961.5229166666686,
      "v": 1
    },
    {
      "midi": 61,
      "hit": false,
      "t": 65537.40199999997,
      "d": 964.4074854166684,
      "v": 1
    },
    {
      "midi": 64,
      "hit": false,
      "t": 65758.55227083334,
      "d": 276.91859999998996,
      "v": 98
    },
    {
      "midi": 61,
      "hit": false,
      "t": 65998.933,
      "d": 384.6091666666616,
      "v": 89
    },
    {
      "midi": 54,
      "hit": false,
      "t": 66455.65638541666,
      "d": 1769.2021666666697,
      "v": 97
    },
    {
      "midi": 54,
      "hit": false,
      "t": 66460.46399999998,
      "d": 459.6079541666695,
      "v": 1
    },
    {
      "midi": 57,
      "hit": false,
      "t": 66460.46399999998,
      "d": 459.6079541666695,
      "v": 1
    },
    {
      "midi": 66,
      "hit": false,
      "t": 66460.46399999998,
      "d": 459.6079541666695,
      "v": 1
    },
    {
      "midi": 61,
      "hit": false,
      "t": 66701.80625208333,
      "d": 926.9080916666717,
      "v": 96
    },
    {
      "midi": 66,
      "hit": false,
      "t": 66926.80261458333,
      "d": 267.3033708333387,
      "v": 85
    },
    {
      "midi": 69,
      "hit": false,
      "t": 67196.99055416667,
      "d": 1098.0591708333232,
      "v": 103
    },
    {
      "midi": 66,
      "hit": false,
      "t": 67614.2915,
      "d": 618.2592354166554,
      "v": 99
    },
    {
      "midi": 61,
      "hit": false,
      "t": 67841.21090833333,
      "d": 424.99312916665804,
      "v": 90
    },
    {
      "midi": 57,
      "hit": false,
      "t": 68296.97277083332,
      "d": 1716.3184062500077,
      "v": 101
    },
    {
      "midi": 61,
      "hit": false,
      "t": 68490.23887708332,
      "d": 1003.8299250000127,
      "v": 89
    },
    {
      "midi": 64,
      "hit": false,
      "t": 68754.65767916666,
      "d": 280.76469166667084,
      "v": 89
    },
    {
      "midi": 69,
      "hit": false,
      "t": 69003.69211458333,
      "d": 1094.2130791666568,
      "v": 96
    },
    {
      "midi": 69,
      "hit": false,
      "t": 69229.64999999998,
      "d": 947.1000729166699,
      "v": 1
    },
    {
      "midi": 52,
      "hit": false,
      "t": 69229.64999999998,
      "d": 961.5229166666686,
      "v": 1
    },
    {
      "midi": 61,
      "hit": false,
      "t": 69229.64999999998,
      "d": 964.4074854166684,
      "v": 1
    },
    {
      "midi": 64,
      "hit": false,
      "t": 69451.76179375,
      "d": 643.2588312499865,
      "v": 89
    },
    {
      "midi": 61,
      "hit": false,
      "t": 69691.181,
      "d": 406.724193749993,
      "v": 91
    },
    {
      "midi": 54,
      "hit": false,
      "t": 70100.78976249999,
      "d": 1780.740441666654,
      "v": 96
    },
    {
      "midi": 54,
      "hit": false,
      "t": 70152.71199999998,
      "d": 459.6079541666695,
      "v": 1
    },
    {
      "midi": 57,
      "hit": false,
      "t": 70152.71199999998,
      "d": 459.6079541666695,
      "v": 1
    },
    {
      "midi": 66,
      "hit": false,
      "t": 70152.71199999998,
      "d": 459.6079541666695,
      "v": 1
    },
    {
      "midi": 61,
      "hit": false,
      "t": 70336.36287708332,
      "d": 999.0223104166653,
      "v": 91
    },
    {
      "midi": 66,
      "hit": false,
      "t": 70604.62777083332,
      "d": 257.68814166665834,
      "v": 82
    },
    {
      "midi": 69,
      "hit": false,
      "t": 70840.20088541665,
      "d": 1062.4828229166596,
      "v": 99
    },
    {
      "midi": 66,
      "hit": false,
      "t": 71302.69340833332,
      "d": 271.1494624999905,
      "v": 95
    },
    {
      "midi": 61,
      "hit": false,
      "t": 71542.11261458331,
      "d": 283.6492604166706,
      "v": 95
    },
    {
      "midi": 57,
      "hit": false,
      "t": 72004.60513749998,
      "d": 1732.6642958333105,
      "v": 106
    },
    {
      "midi": 62,
      "hit": false,
      "t": 72235.37063749997,
      "d": 662.4892895833182,
      "v": 91
    },
    {
      "midi": 66,
      "hit": false,
      "t": 72460.36699999997,
      "d": 262.49575624999125,
      "v": 101
    },
    {
      "midi": 69,
      "hit": false,
      "t": 72692.09402291663,
      "d": 845.1786437499977,
      "v": 108
    },
    {
      "midi": 54,
      "hit": false,
      "t": 72918.05190833332,
      "d": 958.6383479166543,
      "v": 1
    },
    {
      "midi": 62,
      "hit": false,
      "t": 72931.51322916665,
      "d": 887.4856520833273,
      "v": 1
    },
    {
      "midi": 69,
      "hit": false,
      "t": 72931.51322916665,
      "d": 937.4848437499895,
      "v": 1
    },
    {
      "midi": 66,
      "hit": false,
      "t": 73152.66349999997,
      "d": 278.8416458333231,
      "v": 94
    },
    {
      "midi": 62,
      "hit": false,
      "t": 73389.19813749996,
      "d": 422.1085604166583,
      "v": 107
    },
    {
      "midi": 56,
      "hit": false,
      "t": 73844.95999999998,
      "d": 459.6079541666695,
      "v": 1
    },
    {
      "midi": 59,
      "hit": false,
      "t": 73844.95999999998,
      "d": 459.6079541666695,
      "v": 1
    },
    {
      "midi": 64,
      "hit": false,
      "t": 73844.95999999998,
      "d": 459.6079541666695,
      "v": 1
    },
    {
      "midi": 71,
      "hit": false,
      "t": 73844.95999999998,
      "d": 459.6079541666695,
      "v": 1
    },
    {
      "midi": 52,
      "hit": false,
      "t": 73849.76761458328,
      "d": 1754.779322916671,
      "v": 101
    },
    {
      "midi": 59,
      "hit": false,
      "t": 74128.60926041662,
      "d": 954.7922562500025,
      "v": 100
    },
    {
      "midi": 64,
      "hit": false,
      "t": 74307.45252291662,
      "d": 273.07250833332364,
      "v": 107
    },
    {
      "midi": 68,
      "hit": false,
      "t": 74546.87172916661,
      "d": 1115.3665833333362,
      "v": 102
    },
    {
      "midi": 64,
      "hit": false,
      "t": 74994.94140833328,
      "d": 641.3357854166679,
      "v": 113
    },
    {
      "midi": 59,
      "hit": false,
      "t": 75219.93777083329,
      "d": 389.41678124999453,
      "v": 110
    },
    {
      "midi": 57,
      "hit": false,
      "t": 75691.08399999994,
      "d": 1728.8182041666441,
      "v": 106
    },
    {
      "midi": 62,
      "hit": false,
      "t": 75918.00340833327,
      "d": 662.4892895833182,
      "v": 97
    },
    {
      "midi": 66,
      "hit": false,
      "t": 76142.99977083327,
      "d": 262.49575624999125,
      "v": 96
    },
    {
      "midi": 69,
      "hit": false,
      "t": 76378.5728854166,
      "d": 844.2171208333311,
      "v": 106
    },
    {
      "midi": 62,
      "hit": false,
      "t": 76614.14599999998,
      "d": 887.4856520833273,
      "v": 1
    },
    {
      "midi": 69,
      "hit": false,
      "t": 76614.14599999998,
      "d": 937.4848437499895,
      "v": 1
    },
    {
      "midi": 54,
      "hit": false,
      "t": 76614.14599999998,
      "d": 958.6383479166543,
      "v": 1
    },
    {
      "midi": 66,
      "hit": false,
      "t": 76835.29627083326,
      "d": 278.8416458333231,
      "v": 101
    },
    {
      "midi": 62,
      "hit": false,
      "t": 77071.83090833326,
      "d": 422.1085604166583,
      "v": 105
    },
    {
      "midi": 52,
      "hit": false,
      "t": 77532.40038541658,
      "d": 1754.779322916671,
      "v": 100
    },
    {
      "midi": 56,
      "hit": false,
      "t": 77537.20799999997,
      "d": 459.6079541666695,
      "v": 1
    },
    {
      "midi": 59,
      "hit": false,
      "t": 77537.20799999997,
      "d": 459.6079541666695,
      "v": 1
    },
    {
      "midi": 64,
      "hit": false,
      "t": 77537.20799999997,
      "d": 459.6079541666695,
      "v": 1
    },
    {
      "midi": 71,
      "hit": false,
      "t": 77537.20799999997,
      "d": 459.6079541666695,
      "v": 1
    },
    {
      "midi": 59,
      "hit": false,
      "t": 77811.24203124992,
      "d": 954.7922562500025,
      "v": 104
    },
    {
      "midi": 64,
      "hit": false,
      "t": 77990.08529374991,
      "d": 273.07250833332364,
      "v": 109
    },
    {
      "midi": 68,
      "hit": false,
      "t": 78229.50449999991,
      "d": 1115.3665833333362,
      "v": 100
    },
    {
      "midi": 64,
      "hit": false,
      "t": 78677.57417916658,
      "d": 641.3357854166679,
      "v": 106
    },
    {
      "midi": 59,
      "hit": false,
      "t": 78873.72485416659,
      "d": 389.41678124999453,
      "v": 113
    },
    {
      "midi": 57,
      "hit": false,
      "t": 79383.33199999991,
      "d": 1716.318406249964,
      "v": 98
    },
    {
      "midi": 61,
      "hit": false,
      "t": 79383.33199999997,
      "d": 1820.1628812499985,
      "v": 1
    },
    {
      "midi": 64,
      "hit": false,
      "t": 79383.33199999997,
      "d": 1831.7011562499974,
      "v": 1
    },
    {
      "midi": 69,
      "hit": false,
      "t": 79383.33199999997,
      "d": 1846.1239999999962,
      "v": 1
    },
    {
      "midi": 61,
      "hit": false,
      "t": 79600.63617916657,
      "d": 936.5233208333084,
      "v": 89
    },
    {
      "midi": 64,
      "hit": false,
      "t": 79836.2092937499,
      "d": 292.30296666665527,
      "v": 84
    },
    {
      "midi": 69,
      "hit": false,
      "t": 80066.01327083322,
      "d": 1103.828308333308,
      "v": 96
    },
    {
      "midi": 64,
      "hit": false,
      "t": 80527.54427083321,
      "d": 276.91859999998996,
      "v": 95
    },
    {
      "midi": 61,
      "hit": false,
      "t": 80767.92499999987,
      "d": 384.6091666666616,
      "v": 89
    },
    {
      "midi": 54,
      "hit": false,
      "t": 81224.64838541653,
      "d": 1769.2021666666697,
      "v": 102
    },
    {
      "midi": 57,
      "hit": false,
      "t": 81229.45599999996,
      "d": 1844.200954166663,
      "v": 1
    },
    {
      "midi": 61,
      "hit": false,
      "t": 81229.45599999996,
      "d": 1844.200954166663,
      "v": 1
    },
    {
      "midi": 66,
      "hit": false,
      "t": 81229.45599999996,
      "d": 1844.200954166663,
      "v": 1
    },
    {
      "midi": 61,
      "hit": false,
      "t": 81470.7982520832,
      "d": 926.9080916666717,
      "v": 89
    },
    {
      "midi": 66,
      "hit": false,
      "t": 81695.7946145832,
      "d": 267.3033708333387,
      "v": 85
    },
    {
      "midi": 69,
      "hit": false,
      "t": 81965.98255416653,
      "d": 1098.0591708333232,
      "v": 97
    },
    {
      "midi": 66,
      "hit": false,
      "t": 82383.28349999987,
      "d": 618.2592354166554,
      "v": 93
    },
    {
      "midi": 61,
      "hit": false,
      "t": 82610.2029083332,
      "d": 424.99312916665804,
      "v": 95
    },
    {
      "midi": 57,
      "hit": false,
      "t": 83065.96477083319,
      "d": 1716.3184062500077,
      "v": 97
    },
    {
      "midi": 61,
      "hit": false,
      "t": 83259.23087708319,
      "d": 1003.8299250000127,
      "v": 91
    },
    {
      "midi": 64,
      "hit": false,
      "t": 83523.64967916653,
      "d": 280.76469166667084,
      "v": 89
    },
    {
      "midi": 69,
      "hit": false,
      "t": 83772.6841145832,
      "d": 1094.2130791666568,
      "v": 94
    },
    {
      "midi": 64,
      "hit": false,
      "t": 84220.75379374987,
      "d": 643.2588312499865,
      "v": 89
    },
    {
      "midi": 61,
      "hit": false,
      "t": 84460.17299999986,
      "d": 406.724193749993,
      "v": 91
    },
    {
      "midi": 54,
      "hit": false,
      "t": 84869.78176249986,
      "d": 1780.740441666654,
      "v": 95
    },
    {
      "midi": 61,
      "hit": false,
      "t": 85105.35487708318,
      "d": 999.0223104166653,
      "v": 95
    },
    {
      "midi": 66,
      "hit": false,
      "t": 85373.61977083319,
      "d": 257.68814166665834,
      "v": 87
    },
    {
      "midi": 69,
      "hit": false,
      "t": 85609.19288541652,
      "d": 1062.4828229166596,
      "v": 101
    },
    {
      "midi": 66,
      "hit": false,
      "t": 86071.68540833319,
      "d": 271.1494624999905,
      "v": 94
    },
    {
      "midi": 61,
      "hit": false,
      "t": 86311.10461458318,
      "d": 283.6492604166706,
      "v": 93
    },
    {
      "midi": 57,
      "hit": false,
      "t": 86767.82799999985,
      "d": 1716.318406249964,
      "v": 99
    },
    {
      "midi": 61,
      "hit": false,
      "t": 86985.13217916651,
      "d": 936.5233208333084,
      "v": 88
    },
    {
      "midi": 64,
      "hit": false,
      "t": 87220.70529374984,
      "d": 292.30296666665527,
      "v": 92
    },
    {
      "midi": 69,
      "hit": false,
      "t": 87450.50927083316,
      "d": 1103.828308333308,
      "v": 98
    },
    {
      "midi": 64,
      "hit": false,
      "t": 87912.04027083315,
      "d": 276.91859999998996,
      "v": 97
    },
    {
      "midi": 61,
      "hit": false,
      "t": 88152.42099999981,
      "d": 384.6091666666616,
      "v": 96
    },
    {
      "midi": 54,
      "hit": false,
      "t": 88609.14438541647,
      "d": 1769.2021666666697,
      "v": 97
    },
    {
      "midi": 61,
      "hit": false,
      "t": 88855.29425208314,
      "d": 926.9080916666717,
      "v": 94
    },
    {
      "midi": 66,
      "hit": false,
      "t": 89080.29061458314,
      "d": 267.3033708333387,
      "v": 94
    },
    {
      "midi": 69,
      "hit": false,
      "t": 89350.47855416648,
      "d": 1098.0591708333232,
      "v": 100
    },
    {
      "midi": 66,
      "hit": false,
      "t": 89767.77949999982,
      "d": 618.2592354166554,
      "v": 100
    },
    {
      "midi": 61,
      "hit": false,
      "t": 89994.69890833314,
      "d": 424.99312916665804,
      "v": 92
    },
    {
      "midi": 57,
      "hit": false,
      "t": 90450.46077083313,
      "d": 1716.3184062500077,
      "v": 99
    },
    {
      "midi": 61,
      "hit": false,
      "t": 90643.72687708313,
      "d": 1003.8299250000127,
      "v": 93
    },
    {
      "midi": 64,
      "hit": false,
      "t": 90908.14567916647,
      "d": 280.76469166667084,
      "v": 91
    },
    {
      "midi": 69,
      "hit": false,
      "t": 91157.18011458314,
      "d": 1094.2130791666568,
      "v": 98
    },
    {
      "midi": 64,
      "hit": false,
      "t": 91605.24979374981,
      "d": 643.2588312499865,
      "v": 98
    },
    {
      "midi": 61,
      "hit": false,
      "t": 91844.6689999998,
      "d": 406.724193749993,
      "v": 95
    },
    {
      "midi": 66,
      "hit": false,
      "t": 92301.39238541646,
      "d": 134.61320833333593,
      "v": 94
    },
    {
      "midi": 57,
      "hit": false,
      "t": 92302.35390833313,
      "d": 136.5362541666691,
      "v": 102
    },
    {
      "midi": 62,
      "hit": false,
      "t": 92302.35390833313,
      "d": 146.1514833333349,
      "v": 96
    },
    {
      "midi": 66,
      "hit": false,
      "t": 92536.9654999998,
      "d": 127.88254791666986,
      "v": 100
    },
    {
      "midi": 62,
      "hit": false,
      "t": 92536.9654999998,
      "d": 132.69016250000277,
      "v": 99
    },
    {
      "midi": 57,
      "hit": false,
      "t": 92536.9654999998,
      "d": 147.1130062500015,
      "v": 102
    },
    {
      "midi": 56,
      "hit": false,
      "t": 92993.68888541647,
      "d": 1007.6760166666645,
      "v": 98
    },
    {
      "midi": 59,
      "hit": false,
      "t": 92993.68888541647,
      "d": 1026.9064749999961,
      "v": 111
    },
    {
      "midi": 64,
      "hit": false,
      "t": 92994.65040833314,
      "d": 987.4840354166663,
      "v": 109
    },
    {
      "midi": 57,
      "hit": false,
      "t": 94152.32399999996,
      "d": 3690.3249541666737,
      "v": 1
    },
    {
      "midi": 61,
      "hit": false,
      "t": 94152.32399999996,
      "d": 3690.3249541666737,
      "v": 1
    },
    {
      "midi": 64,
      "hit": false,
      "t": 94152.32399999996,
      "d": 3690.3249541666737,
      "v": 1
    },
    {
      "midi": 59,
      "hit": false,
      "t": 97844.57199999997,
      "d": 2767.2629541666684,
      "v": 1
    },
    {
      "midi": 62,
      "hit": false,
      "t": 97844.57199999997,
      "d": 2767.2629541666684,
      "v": 1
    },
    {
      "midi": 66,
      "hit": false,
      "t": 97844.57199999997,
      "d": 2767.2629541666684,
      "v": 1
    },
    {
      "midi": 62,
      "hit": false,
      "t": 101536.81999999998,
      "d": 3690.3249541666737,
      "v": 1
    },
    {
      "midi": 66,
      "hit": false,
      "t": 101536.81999999998,
      "d": 3690.3249541666737,
      "v": 1
    },
    {
      "midi": 57,
      "hit": false,
      "t": 101536.81999999998,
      "d": 6690.276454166669,
      "v": 1
    },
    {
      "midi": 69,
      "hit": false,
      "t": 101536.81999999998,
      "d": 6690.276454166669,
      "v": 1
    },
    {
      "midi": 61,
      "hit": false,
      "t": 105229.06799999998,
      "d": 2998.0284541666624,
      "v": 1
    },
    {
      "midi": 64,
      "hit": false,
      "t": 105229.06799999998,
      "d": 2998.0284541666624,
      "v": 1
    },
    {
      "midi": 57,
      "hit": false,
      "t": 108921.31599999998,
      "d": 3690.3249541666737,
      "v": 1
    },
    {
      "midi": 61,
      "hit": false,
      "t": 108921.31599999998,
      "d": 3690.3249541666737,
      "v": 1
    },
    {
      "midi": 64,
      "hit": false,
      "t": 108921.31599999998,
      "d": 3690.3249541666737,
      "v": 1
    },
    {
      "midi": 54,
      "hit": false,
      "t": 112613.56399999998,
      "d": 2998.0284541666624,
      "v": 1
    },
    {
      "midi": 59,
      "hit": false,
      "t": 112613.56399999998,
      "d": 2998.0284541666624,
      "v": 1
    },
    {
      "midi": 62,
      "hit": false,
      "t": 112613.56399999998,
      "d": 2998.0284541666624,
      "v": 1
    },
    {
      "midi": 54,
      "hit": false,
      "t": 116305.81199999998,
      "d": 3685.517339583341,
      "v": 1
    },
    {
      "midi": 62,
      "hit": false,
      "t": 116305.81199999998,
      "d": 3685.517339583341,
      "v": 1
    },
    {
      "midi": 57,
      "hit": false,
      "t": 116305.81199999998,
      "d": 5531.641339583337,
      "v": 1
    },
    {
      "midi": 61,
      "hit": false,
      "t": 119998.05999999998,
      "d": 1839.39333958333,
      "v": 1
    },
    {
      "midi": 64,
      "hit": false,
      "t": 119998.05999999998,
      "d": 3233.6015687499894,
      "v": 1
    },
    {
      "midi": 56,
      "hit": false,
      "t": 121844.18399999998,
      "d": 1382.6699541666603,
      "v": 1
    },
    {
      "midi": 59,
      "hit": false,
      "t": 121844.18399999998,
      "d": 1382.6699541666603,
      "v": 1
    },
    {
      "midi": 62,
      "hit": false,
      "t": 123690.30799999998,
      "d": 921.1389541666722,
      "v": 1
    },
    {
      "midi": 66,
      "hit": false,
      "t": 123690.30799999998,
      "d": 921.1389541666722,
      "v": 1
    },
    {
      "midi": 59,
      "hit": false,
      "t": 124613.36999999998,
      "d": 921.1389541666722,
      "v": 1
    },
    {
      "midi": 64,
      "hit": false,
      "t": 124613.36999999998,
      "d": 921.1389541666722,
      "v": 1
    },
    {
      "midi": 68,
      "hit": false,
      "t": 124613.36999999998,
      "d": 921.1389541666722,
      "v": 1
    },
    {
      "midi": 62,
      "hit": false,
      "t": 125536.43199999999,
      "d": 921.1389541666722,
      "v": 1
    },
    {
      "midi": 66,
      "hit": false,
      "t": 125536.43199999999,
      "d": 921.1389541666722,
      "v": 1
    },
    {
      "midi": 59,
      "hit": false,
      "t": 126459.49399999999,
      "d": 921.1389541666722,
      "v": 1
    },
    {
      "midi": 64,
      "hit": false,
      "t": 126459.49399999999,
      "d": 921.1389541666722,
      "v": 1
    },
    {
      "midi": 68,
      "hit": false,
      "t": 126459.49399999999,
      "d": 921.1389541666722,
      "v": 1
    },
    {
      "midi": 62,
      "hit": false,
      "t": 127382.556,
      "d": 921.1389541666722,
      "v": 1
    },
    {
      "midi": 66,
      "hit": false,
      "t": 127382.556,
      "d": 921.1389541666722,
      "v": 1
    },
    {
      "midi": 59,
      "hit": false,
      "t": 128305.618,
      "d": 921.1389541666722,
      "v": 1
    },
    {
      "midi": 64,
      "hit": false,
      "t": 128305.618,
      "d": 921.1389541666722,
      "v": 1
    },
    {
      "midi": 68,
      "hit": false,
      "t": 128305.618,
      "d": 921.1389541666722,
      "v": 1
    },
    {
      "midi": 61,
      "hit": false,
      "t": 129228.68000000001,
      "d": 921.1389541666722,
      "v": 1
    },
    {
      "midi": 69,
      "hit": false,
      "t": 129228.68000000001,
      "d": 921.1389541666722,
      "v": 1
    },
    {
      "midi": 57,
      "hit": false,
      "t": 130151.74200000001,
      "d": 921.1389541666576,
      "v": 1
    },
    {
      "midi": 66,
      "hit": false,
      "t": 130151.74200000001,
      "d": 921.1389541666576,
      "v": 1
    },
    {
      "midi": 62,
      "hit": false,
      "t": 131074.804,
      "d": 921.1389541666722,
      "v": 1
    },
    {
      "midi": 66,
      "hit": false,
      "t": 131074.804,
      "d": 921.1389541666722,
      "v": 1
    },
    {
      "midi": 59,
      "hit": false,
      "t": 131997.866,
      "d": 921.1389541666722,
      "v": 1
    },
    {
      "midi": 68,
      "hit": false,
      "t": 131997.866,
      "d": 921.1389541666722,
      "v": 1
    },
    {
      "midi": 62,
      "hit": false,
      "t": 132920.928,
      "d": 921.1389541666722,
      "v": 1
    },
    {
      "midi": 66,
      "hit": false,
      "t": 132920.928,
      "d": 921.1389541666722,
      "v": 1
    },
    {
      "midi": 59,
      "hit": false,
      "t": 133843.99000000002,
      "d": 921.1389541666722,
      "v": 1
    },
    {
      "midi": 64,
      "hit": false,
      "t": 133843.99000000002,
      "d": 921.1389541666722,
      "v": 1
    },
    {
      "midi": 68,
      "hit": false,
      "t": 133843.99000000002,
      "d": 921.1389541666722,
      "v": 1
    },
    {
      "midi": 62,
      "hit": false,
      "t": 134767.05200000003,
      "d": 921.1389541666722,
      "v": 1
    },
    {
      "midi": 66,
      "hit": false,
      "t": 134767.05200000003,
      "d": 921.1389541666722,
      "v": 1
    },
    {
      "midi": 59,
      "hit": false,
      "t": 135690.11400000003,
      "d": 921.1389541666722,
      "v": 1
    },
    {
      "midi": 64,
      "hit": false,
      "t": 135690.11400000003,
      "d": 921.1389541666722,
      "v": 1
    },
    {
      "midi": 68,
      "hit": false,
      "t": 135690.11400000003,
      "d": 921.1389541666722,
      "v": 1
    },
    {
      "midi": 57,
      "hit": false,
      "t": 136613.17600000004,
      "d": 1074.9826208333252,
      "v": 1
    },
    {
      "midi": 61,
      "hit": false,
      "t": 136613.17600000004,
      "d": 1074.9826208333252,
      "v": 1
    },
    {
      "midi": 64,
      "hit": false,
      "t": 136613.17600000004,
      "d": 1074.9826208333252,
      "v": 1
    },
    {
      "midi": 57,
      "hit": false,
      "t": 138459.2999999998,
      "d": 1716.3184062500077,
      "v": 100
    },
    {
      "midi": 61,
      "hit": false,
      "t": 138676.6041791665,
      "d": 936.5233208333375,
      "v": 84
    },
    {
      "midi": 64,
      "hit": false,
      "t": 138912.17729374982,
      "d": 292.3029666666698,
      "v": 83
    },
    {
      "midi": 69,
      "hit": false,
      "t": 139141.98127083314,
      "d": 1103.8283083333517,
      "v": 93
    },
    {
      "midi": 69,
      "hit": false,
      "t": 139382.36200000002,
      "d": 947.1000729166844,
      "v": 1
    },
    {
      "midi": 52,
      "hit": false,
      "t": 139382.36200000002,
      "d": 961.5229166666977,
      "v": 1
    },
    {
      "midi": 61,
      "hit": false,
      "t": 139382.36200000002,
      "d": 964.407485416712,
      "v": 1
    },
    {
      "midi": 64,
      "hit": false,
      "t": 139603.51227083316,
      "d": 276.9186000000045,
      "v": 93
    },
    {
      "midi": 61,
      "hit": false,
      "t": 139843.89299999984,
      "d": 384.6091666666616,
      "v": 94
    },
    {
      "midi": 54,
      "hit": false,
      "t": 140300.6163854165,
      "d": 1769.2021666667133,
      "v": 95
    },
    {
      "midi": 54,
      "hit": false,
      "t": 140305.42400000003,
      "d": 459.60795416671317,
      "v": 1
    },
    {
      "midi": 57,
      "hit": false,
      "t": 140305.42400000003,
      "d": 459.60795416671317,
      "v": 1
    },
    {
      "midi": 66,
      "hit": false,
      "t": 140305.42400000003,
      "d": 459.60795416671317,
      "v": 1
    },
    {
      "midi": 61,
      "hit": false,
      "t": 140546.76625208318,
      "d": 926.9080916667008,
      "v": 93
    },
    {
      "midi": 66,
      "hit": false,
      "t": 140771.7626145832,
      "d": 267.3033708333387,
      "v": 92
    },
    {
      "midi": 69,
      "hit": false,
      "t": 141041.95055416654,
      "d": 1098.0591708333523,
      "v": 104
    },
    {
      "midi": 66,
      "hit": false,
      "t": 141459.25149999987,
      "d": 618.2592354166845,
      "v": 94
    },
    {
      "midi": 61,
      "hit": false,
      "t": 141686.1709083332,
      "d": 424.99312916668714,
      "v": 91
    },
    {
      "midi": 57,
      "hit": false,
      "t": 142141.93277083323,
      "d": 1716.3184062499786,
      "v": 100
    },
    {
      "midi": 61,
      "hit": false,
      "t": 142335.19887708322,
      "d": 1003.8299249999982,
      "v": 92
    },
    {
      "midi": 64,
      "hit": false,
      "t": 142599.61767916655,
      "d": 280.76469166667084,
      "v": 87
    },
    {
      "midi": 69,
      "hit": false,
      "t": 142848.6521145832,
      "d": 1094.213079166686,
      "v": 95
    },
    {
      "midi": 69,
      "hit": false,
      "t": 143074.61000000007,
      "d": 947.1000729166844,
      "v": 1
    },
    {
      "midi": 52,
      "hit": false,
      "t": 143074.61000000007,
      "d": 961.5229166666977,
      "v": 1
    },
    {
      "midi": 61,
      "hit": false,
      "t": 143074.61000000007,
      "d": 964.407485416712,
      "v": 1
    },
    {
      "midi": 64,
      "hit": false,
      "t": 143296.7217937499,
      "d": 643.2588312499865,
      "v": 92
    },
    {
      "midi": 61,
      "hit": false,
      "t": 143536.1409999999,
      "d": 406.72419375000754,
      "v": 91
    },
    {
      "midi": 54,
      "hit": false,
      "t": 143945.7497624999,
      "d": 1780.740441666654,
      "v": 95
    },
    {
      "midi": 54,
      "hit": false,
      "t": 143997.67200000008,
      "d": 459.60795416671317,
      "v": 1
    },
    {
      "midi": 57,
      "hit": false,
      "t": 143997.67200000008,
      "d": 459.60795416671317,
      "v": 1
    },
    {
      "midi": 66,
      "hit": false,
      "t": 143997.67200000008,
      "d": 459.60795416671317,
      "v": 1
    },
    {
      "midi": 61,
      "hit": false,
      "t": 144181.32287708324,
      "d": 999.0223104166507,
      "v": 93
    },
    {
      "midi": 66,
      "hit": false,
      "t": 144449.58777083323,
      "d": 257.6881416666729,
      "v": 84
    },
    {
      "midi": 69,
      "hit": false,
      "t": 144685.16088541655,
      "d": 1062.4828229166742,
      "v": 98
    },
    {
      "midi": 66,
      "hit": false,
      "t": 145147.65340833322,
      "d": 271.14946250000503,
      "v": 91
    },
    {
      "midi": 61,
      "hit": false,
      "t": 145387.07261458322,
      "d": 283.64926041668514,
      "v": 91
    },
    {
      "midi": 57,
      "hit": false,
      "t": 145849.56513749989,
      "d": 1732.6642958333541,
      "v": 102
    },
    {
      "midi": 62,
      "hit": false,
      "t": 146080.3306374999,
      "d": 662.4892895833473,
      "v": 90
    },
    {
      "midi": 66,
      "hit": false,
      "t": 146305.3269999999,
      "d": 262.49575624999125,
      "v": 98
    },
    {
      "midi": 69,
      "hit": false,
      "t": 146537.05402291656,
      "d": 845.1786437499977,
      "v": 101
    },
    {
      "midi": 54,
      "hit": false,
      "t": 146763.01190833346,
      "d": 958.6383479166834,
      "v": 1
    },
    {
      "midi": 62,
      "hit": false,
      "t": 146776.4732291668,
      "d": 887.4856520833273,
      "v": 1
    },
    {
      "midi": 69,
      "hit": false,
      "t": 146776.4732291668,
      "d": 937.4848437500186,
      "v": 1
    },
    {
      "midi": 66,
      "hit": false,
      "t": 146997.6234999999,
      "d": 278.8416458333377,
      "v": 99
    },
    {
      "midi": 62,
      "hit": false,
      "t": 147234.1581374999,
      "d": 422.10856041667284,
      "v": 107
    },
    {
      "midi": 56,
      "hit": false,
      "t": 147689.92000000013,
      "d": 459.60795416668407,
      "v": 1
    },
    {
      "midi": 59,
      "hit": false,
      "t": 147689.92000000013,
      "d": 459.60795416668407,
      "v": 1
    },
    {
      "midi": 64,
      "hit": false,
      "t": 147689.92000000013,
      "d": 459.60795416668407,
      "v": 1
    },
    {
      "midi": 71,
      "hit": false,
      "t": 147689.92000000013,
      "d": 459.60795416668407,
      "v": 1
    },
    {
      "midi": 52,
      "hit": false,
      "t": 147694.72761458324,
      "d": 1754.779322916671,
      "v": 101
    },
    {
      "midi": 59,
      "hit": false,
      "t": 147973.56926041658,
      "d": 954.7922562500171,
      "v": 104
    },
    {
      "midi": 64,
      "hit": false,
      "t": 148152.4125229166,
      "d": 273.0725083333382,
      "v": 107
    },
    {
      "midi": 68,
      "hit": false,
      "t": 148391.8317291666,
      "d": 1115.3665833333507,
      "v": 101
    },
    {
      "midi": 64,
      "hit": false,
      "t": 148839.90140833327,
      "d": 641.3357854166534,
      "v": 110
    },
    {
      "midi": 59,
      "hit": false,
      "t": 149064.89777083325,
      "d": 389.4167812500091,
      "v": 109
    },
    {
      "midi": 57,
      "hit": false,
      "t": 149536.04399999994,
      "d": 1728.8182041666878,
      "v": 107
    },
    {
      "midi": 62,
      "hit": false,
      "t": 149762.96340833328,
      "d": 662.4892895833473,
      "v": 95
    },
    {
      "midi": 66,
      "hit": false,
      "t": 149987.9597708333,
      "d": 262.49575624999125,
      "v": 98
    },
    {
      "midi": 69,
      "hit": false,
      "t": 150223.53288541661,
      "d": 844.2171208333457,
      "v": 104
    },
    {
      "midi": 62,
      "hit": false,
      "t": 150459.10600000015,
      "d": 887.4856520833273,
      "v": 1
    },
    {
      "midi": 69,
      "hit": false,
      "t": 150459.10600000015,
      "d": 937.4848437500186,
      "v": 1
    },
    {
      "midi": 54,
      "hit": false,
      "t": 150459.10600000015,
      "d": 958.6383479166834,
      "v": 1
    },
    {
      "midi": 66,
      "hit": false,
      "t": 150680.25627083328,
      "d": 278.8416458333377,
      "v": 100
    },
    {
      "midi": 62,
      "hit": false,
      "t": 150916.7909083333,
      "d": 422.10856041667284,
      "v": 105
    },
    {
      "midi": 52,
      "hit": false,
      "t": 151377.36038541663,
      "d": 1754.7793229167,
      "v": 99
    },
    {
      "midi": 56,
      "hit": false,
      "t": 151382.16800000015,
      "d": 459.60795416668407,
      "v": 1
    },
    {
      "midi": 59,
      "hit": false,
      "t": 151382.16800000015,
      "d": 459.60795416668407,
      "v": 1
    },
    {
      "midi": 64,
      "hit": false,
      "t": 151382.16800000015,
      "d": 459.60795416668407,
      "v": 1
    },
    {
      "midi": 71,
      "hit": false,
      "t": 151382.16800000015,
      "d": 459.60795416668407,
      "v": 1
    },
    {
      "midi": 59,
      "hit": false,
      "t": 151656.20203124997,
      "d": 954.7922562500171,
      "v": 100
    },
    {
      "midi": 64,
      "hit": false,
      "t": 151835.04529374998,
      "d": 273.0725083333382,
      "v": 113
    },
    {
      "midi": 68,
      "hit": false,
      "t": 152074.46449999997,
      "d": 1115.3665833333798,
      "v": 100
    },
    {
      "midi": 64,
      "hit": false,
      "t": 152522.53417916666,
      "d": 641.3357854166825,
      "v": 108
    },
    {
      "midi": 59,
      "hit": false,
      "t": 152718.68485416664,
      "d": 389.4167812500091,
      "v": 108
    },
    {
      "midi": 57,
      "hit": false,
      "t": 153228.29200000002,
      "d": 1716.3184062500077,
      "v": 102
    },
    {
      "midi": 61,
      "hit": false,
      "t": 153228.29200000016,
      "d": 1820.1628812499985,
      "v": 1
    },
    {
      "midi": 64,
      "hit": false,
      "t": 153228.29200000016,
      "d": 1831.7011562499974,
      "v": 1
    },
    {
      "midi": 69,
      "hit": false,
      "t": 153228.29200000016,
      "d": 1846.1240000000107,
      "v": 1
    },
    {
      "midi": 61,
      "hit": false,
      "t": 153445.5961791667,
      "d": 936.5233208333375,
      "v": 83
    },
    {
      "midi": 64,
      "hit": false,
      "t": 153681.16929375002,
      "d": 292.3029666666698,
      "v": 86
    },
    {
      "midi": 69,
      "hit": false,
      "t": 153910.97327083335,
      "d": 1103.8283083333517,
      "v": 96
    },
    {
      "midi": 64,
      "hit": false,
      "t": 154372.50427083336,
      "d": 276.9186000000045,
      "v": 94
    },
    {
      "midi": 61,
      "hit": false,
      "t": 154612.88500000004,
      "d": 384.6091666666616,
      "v": 95
    },
    {
      "midi": 54,
      "hit": false,
      "t": 155069.6083854167,
      "d": 1769.2021666667133,
      "v": 101
    },
    {
      "midi": 57,
      "hit": false,
      "t": 155074.41600000017,
      "d": 1844.2009541666775,
      "v": 1
    },
    {
      "midi": 61,
      "hit": false,
      "t": 155074.41600000017,
      "d": 1844.2009541666775,
      "v": 1
    },
    {
      "midi": 66,
      "hit": false,
      "t": 155074.41600000017,
      "d": 1844.2009541666775,
      "v": 1
    },
    {
      "midi": 61,
      "hit": false,
      "t": 155315.75825208338,
      "d": 926.9080916667008,
      "v": 93
    },
    {
      "midi": 66,
      "hit": false,
      "t": 155540.7546145834,
      "d": 267.3033708333387,
      "v": 88
    },
    {
      "midi": 69,
      "hit": false,
      "t": 155810.94255416674,
      "d": 1098.0591708333523,
      "v": 101
    },
    {
      "midi": 66,
      "hit": false,
      "t": 156228.24350000007,
      "d": 618.2592354166845,
      "v": 100
    },
    {
      "midi": 61,
      "hit": false,
      "t": 156455.1629083334,
      "d": 424.99312916668714,
      "v": 89
    },
    {
      "midi": 57,
      "hit": false,
      "t": 156910.92477083343,
      "d": 1716.3184062499786,
      "v": 98
    },
    {
      "midi": 61,
      "hit": false,
      "t": 157104.19087708343,
      "d": 1003.8299249999982,
      "v": 94
    },
    {
      "midi": 64,
      "hit": false,
      "t": 157368.60967916675,
      "d": 280.76469166667084,
      "v": 91
    },
    {
      "midi": 69,
      "hit": false,
      "t": 157617.6441145834,
      "d": 1094.213079166686,
      "v": 100
    },
    {
      "midi": 64,
      "hit": false,
      "t": 158065.7137937501,
      "d": 643.2588312499865,
      "v": 95
    },
    {
      "midi": 61,
      "hit": false,
      "t": 158305.1330000001,
      "d": 406.72419375000754,
      "v": 90
    },
    {
      "midi": 54,
      "hit": false,
      "t": 158714.7417625001,
      "d": 1780.740441666654,
      "v": 101
    },
    {
      "midi": 61,
      "hit": false,
      "t": 158950.31487708344,
      "d": 999.0223104166507,
      "v": 98
    },
    {
      "midi": 66,
      "hit": false,
      "t": 159218.57977083343,
      "d": 257.6881416666729,
      "v": 82
    },
    {
      "midi": 69,
      "hit": false,
      "t": 159454.15288541676,
      "d": 1062.4828229166742,
      "v": 104
    },
    {
      "midi": 66,
      "hit": false,
      "t": 159916.64540833342,
      "d": 271.14946250000503,
      "v": 97
    },
    {
      "midi": 61,
      "hit": false,
      "t": 160156.06461458342,
      "d": 283.64926041668514,
      "v": 96
    },
    {
      "midi": 57,
      "hit": false,
      "t": 160618.5571375001,
      "d": 1732.6642958333541,
      "v": 107
    },
    {
      "midi": 62,
      "hit": false,
      "t": 160849.3226375001,
      "d": 662.4892895833473,
      "v": 96
    },
    {
      "midi": 66,
      "hit": false,
      "t": 161074.3190000001,
      "d": 262.49575624999125,
      "v": 100
    },
    {
      "midi": 69,
      "hit": false,
      "t": 161306.04602291677,
      "d": 845.1786437499977,
      "v": 100
    },
    {
      "midi": 66,
      "hit": false,
      "t": 161766.6155000001,
      "d": 278.8416458333377,
      "v": 94
    },
    {
      "midi": 62,
      "hit": false,
      "t": 162003.1501375001,
      "d": 422.10856041667284,
      "v": 105
    },
    {
      "midi": 52,
      "hit": false,
      "t": 162463.71961458345,
      "d": 1754.779322916671,
      "v": 96
    },
    {
      "midi": 59,
      "hit": false,
      "t": 162742.56126041678,
      "d": 954.7922562500171,
      "v": 106
    },
    {
      "midi": 64,
      "hit": false,
      "t": 162921.4045229168,
      "d": 273.0725083333382,
      "v": 112
    },
    {
      "midi": 68,
      "hit": false,
      "t": 163160.8237291668,
      "d": 1115.3665833333507,
      "v": 101
    },
    {
      "midi": 64,
      "hit": false,
      "t": 163608.89340833348,
      "d": 641.3357854166534,
      "v": 111
    },
    {
      "midi": 59,
      "hit": false,
      "t": 163833.88977083346,
      "d": 389.4167812500091,
      "v": 108
    },
    {
      "midi": 57,
      "hit": false,
      "t": 164305.03600000014,
      "d": 1728.8182041666878,
      "v": 102
    },
    {
      "midi": 62,
      "hit": false,
      "t": 164531.95540833348,
      "d": 662.4892895833473,
      "v": 97
    },
    {
      "midi": 66,
      "hit": false,
      "t": 164756.9517708335,
      "d": 262.49575624999125,
      "v": 95
    },
    {
      "midi": 69,
      "hit": false,
      "t": 164992.52488541682,
      "d": 844.2171208333457,
      "v": 100
    },
    {
      "midi": 66,
      "hit": false,
      "t": 165449.2482708335,
      "d": 278.8416458333377,
      "v": 99
    },
    {
      "midi": 62,
      "hit": false,
      "t": 165685.7829083335,
      "d": 422.10856041667284,
      "v": 102
    },
    {
      "midi": 52,
      "hit": false,
      "t": 166146.35238541683,
      "d": 1754.7793229167,
      "v": 96
    },
    {
      "midi": 59,
      "hit": false,
      "t": 166425.19403125017,
      "d": 954.7922562500171,
      "v": 102
    },
    {
      "midi": 64,
      "hit": false,
      "t": 166604.03729375018,
      "d": 273.0725083333382,
      "v": 113
    },
    {
      "midi": 68,
      "hit": false,
      "t": 166843.45650000017,
      "d": 1115.3665833333798,
      "v": 102
    },
    {
      "midi": 64,
      "hit": false,
      "t": 167291.52617916686,
      "d": 641.3357854166825,
      "v": 110
    },
    {
      "midi": 59,
      "hit": false,
      "t": 167487.67685416684,
      "d": 389.4167812500091,
      "v": 109
    },
    {
      "midi": 61,
      "hit": false,
      "t": 167535.75300000017,
      "d": 459.60795416665496,
      "v": 1
    },
    {
      "midi": 64,
      "hit": false,
      "t": 167535.75300000017,
      "d": 459.60795416665496,
      "v": 1
    },
    {
      "midi": 59,
      "hit": false,
      "t": 167997.28400000016,
      "d": 690.3734541666636,
      "v": 1
    },
    {
      "midi": 62,
      "hit": false,
      "t": 167997.28400000016,
      "d": 690.3734541666636,
      "v": 1
    },
    {
      "midi": 66,
      "hit": false,
      "t": 167997.28400000016,
      "d": 690.3734541666636,
      "v": 1
    },
    {
      "midi": 61,
      "hit": false,
      "t": 168689.58050000016,
      "d": 459.60795416665496,
      "v": 1
    },
    {
      "midi": 64,
      "hit": false,
      "t": 168689.58050000016,
      "d": 459.60795416665496,
      "v": 1
    },
    {
      "midi": 68,
      "hit": false,
      "t": 168689.58050000016,
      "d": 459.60795416665496,
      "v": 1
    },
    {
      "midi": 59,
      "hit": false,
      "t": 169151.11150000014,
      "d": 1382.6699541666603,
      "v": 1
    },
    {
      "midi": 62,
      "hit": false,
      "t": 169151.11150000014,
      "d": 1382.6699541666603,
      "v": 1
    },
    {
      "midi": 66,
      "hit": false,
      "t": 169151.11150000014,
      "d": 1382.6699541666603,
      "v": 1
    },
    {
      "midi": 61,
      "hit": false,
      "t": 170535.70450000014,
      "d": 459.60795416665496,
      "v": 1
    },
    {
      "midi": 64,
      "hit": false,
      "t": 170535.70450000014,
      "d": 459.60795416665496,
      "v": 1
    },
    {
      "midi": 68,
      "hit": false,
      "t": 170535.70450000014,
      "d": 459.60795416665496,
      "v": 1
    },
    {
      "midi": 59,
      "hit": false,
      "t": 170997.23550000013,
      "d": 1382.6699541666603,
      "v": 1
    },
    {
      "midi": 62,
      "hit": false,
      "t": 170997.23550000013,
      "d": 1382.6699541666603,
      "v": 1
    },
    {
      "midi": 66,
      "hit": false,
      "t": 170997.23550000013,
      "d": 1382.6699541666603,
      "v": 1
    },
    {
      "midi": 61,
      "hit": false,
      "t": 172381.82850000012,
      "d": 459.60795416665496,
      "v": 1
    },
    {
      "midi": 64,
      "hit": false,
      "t": 172381.82850000012,
      "d": 459.60795416665496,
      "v": 1
    },
    {
      "midi": 68,
      "hit": false,
      "t": 172381.82850000012,
      "d": 459.60795416665496,
      "v": 1
    },
    {
      "midi": 59,
      "hit": false,
      "t": 172843.3595000001,
      "d": 228.84245416667545,
      "v": 1
    },
    {
      "midi": 62,
      "hit": false,
      "t": 172843.3595000001,
      "d": 228.84245416667545,
      "v": 1
    },
    {
      "midi": 66,
      "hit": false,
      "t": 172843.3595000001,
      "d": 228.84245416667545,
      "v": 1
    },
    {
      "midi": 57,
      "hit": false,
      "t": 173074.12500000012,
      "d": 1305.7481208333338,
      "v": 1
    },
    {
      "midi": 61,
      "hit": false,
      "t": 173074.12500000012,
      "d": 1305.7481208333338,
      "v": 1
    },
    {
      "midi": 61,
      "hit": false,
      "t": 174689.48350000012,
      "d": 459.60795416665496,
      "v": 1
    },
    {
      "midi": 64,
      "hit": false,
      "t": 174689.48350000012,
      "d": 459.60795416665496,
      "v": 1
    },
    {
      "midi": 59,
      "hit": false,
      "t": 175151.0145000001,
      "d": 921.1389541666722,
      "v": 1
    },
    {
      "midi": 62,
      "hit": false,
      "t": 175151.0145000001,
      "d": 921.1389541666722,
      "v": 1
    },
    {
      "midi": 66,
      "hit": false,
      "t": 175151.0145000001,
      "d": 921.1389541666722,
      "v": 1
    },
    {
      "midi": 61,
      "hit": false,
      "t": 176074.0765000001,
      "d": 459.60795416665496,
      "v": 1
    },
    {
      "midi": 64,
      "hit": false,
      "t": 176074.0765000001,
      "d": 459.60795416665496,
      "v": 1
    },
    {
      "midi": 68,
      "hit": false,
      "t": 176074.0765000001,
      "d": 459.60795416665496,
      "v": 1
    },
    {
      "midi": 59,
      "hit": false,
      "t": 176535.6075000001,
      "d": 228.84245416667545,
      "v": 1
    },
    {
      "midi": 62,
      "hit": false,
      "t": 176535.6075000001,
      "d": 228.84245416667545,
      "v": 1
    },
    {
      "midi": 66,
      "hit": false,
      "t": 176535.6075000001,
      "d": 228.84245416667545,
      "v": 1
    },
    {
      "midi": 59,
      "hit": false,
      "t": 176766.3730000001,
      "d": 228.84245416667545,
      "v": 1
    },
    {
      "midi": 61,
      "hit": false,
      "t": 176766.3730000001,
      "d": 228.84245416667545,
      "v": 1
    },
    {
      "midi": 66,
      "hit": false,
      "t": 176766.3730000001,
      "d": 228.84245416667545,
      "v": 1
    },
    {
      "midi": 59,
      "hit": false,
      "t": 176997.13850000012,
      "d": 921.1389541666722,
      "v": 1
    },
    {
      "midi": 62,
      "hit": false,
      "t": 176997.13850000012,
      "d": 921.1389541666722,
      "v": 1
    },
    {
      "midi": 66,
      "hit": false,
      "t": 176997.13850000012,
      "d": 921.1389541666722,
      "v": 1
    },
    {
      "midi": 61,
      "hit": false,
      "t": 177920.20050000012,
      "d": 459.60795416665496,
      "v": 1
    },
    {
      "midi": 64,
      "hit": false,
      "t": 177920.20050000012,
      "d": 459.60795416665496,
      "v": 1
    },
    {
      "midi": 68,
      "hit": false,
      "t": 177920.20050000012,
      "d": 459.60795416665496,
      "v": 1
    },
    {
      "midi": 59,
      "hit": false,
      "t": 178381.7315000001,
      "d": 1382.6699541666603,
      "v": 1
    },
    {
      "midi": 62,
      "hit": false,
      "t": 178381.7315000001,
      "d": 1382.6699541666603,
      "v": 1
    },
    {
      "midi": 66,
      "hit": false,
      "t": 178381.7315000001,
      "d": 1382.6699541666603,
      "v": 1
    },
    {
      "midi": 61,
      "hit": false,
      "t": 179766.3245000001,
      "d": 459.60795416665496,
      "v": 1
    },
    {
      "midi": 64,
      "hit": false,
      "t": 179766.3245000001,
      "d": 459.60795416665496,
      "v": 1
    },
    {
      "midi": 68,
      "hit": false,
      "t": 179766.3245000001,
      "d": 459.60795416665496,
      "v": 1
    },
    {
      "midi": 59,
      "hit": false,
      "t": 180227.8555000001,
      "d": 228.84245416667545,
      "v": 1
    },
    {
      "midi": 62,
      "hit": false,
      "t": 180227.8555000001,
      "d": 228.84245416667545,
      "v": 1
    },
    {
      "midi": 66,
      "hit": false,
      "t": 180227.8555000001,
      "d": 228.84245416667545,
      "v": 1
    },
    {
      "midi": 57,
      "hit": false,
      "t": 180458.6210000001,
      "d": 1844.2009541666775,
      "v": 1
    },
    {
      "midi": 61,
      "hit": false,
      "t": 180458.6210000001,
      "d": 1844.2009541666775,
      "v": 1
    },
    {
      "midi": 64,
      "hit": false,
      "t": 180458.6210000001,
      "d": 1844.2009541666775,
      "v": 1
    },
    {
      "midi": 61,
      "hit": false,
      "t": 182304.7450000001,
      "d": 459.60795416665496,
      "v": 1
    },
    {
      "midi": 64,
      "hit": false,
      "t": 182304.7450000001,
      "d": 459.60795416665496,
      "v": 1
    },
    {
      "midi": 59,
      "hit": false,
      "t": 182766.2760000001,
      "d": 690.3734541666636,
      "v": 1
    },
    {
      "midi": 62,
      "hit": false,
      "t": 182766.2760000001,
      "d": 690.3734541666636,
      "v": 1
    },
    {
      "midi": 66,
      "hit": false,
      "t": 182766.2760000001,
      "d": 690.3734541666636,
      "v": 1
    },
    {
      "midi": 61,
      "hit": false,
      "t": 183458.5725000001,
      "d": 459.60795416665496,
      "v": 1
    },
    {
      "midi": 64,
      "hit": false,
      "t": 183458.5725000001,
      "d": 459.60795416665496,
      "v": 1
    },
    {
      "midi": 68,
      "hit": false,
      "t": 183458.5725000001,
      "d": 459.60795416665496,
      "v": 1
    },
    {
      "midi": 59,
      "hit": false,
      "t": 183920.10350000008,
      "d": 1382.6699541666603,
      "v": 1
    },
    {
      "midi": 62,
      "hit": false,
      "t": 183920.10350000008,
      "d": 1382.6699541666603,
      "v": 1
    },
    {
      "midi": 66,
      "hit": false,
      "t": 183920.10350000008,
      "d": 1382.6699541666603,
      "v": 1
    },
    {
      "midi": 61,
      "hit": false,
      "t": 185304.69650000008,
      "d": 459.60795416665496,
      "v": 1
    },
    {
      "midi": 64,
      "hit": false,
      "t": 185304.69650000008,
      "d": 459.60795416665496,
      "v": 1
    },
    {
      "midi": 68,
      "hit": false,
      "t": 185304.69650000008,
      "d": 459.60795416665496,
      "v": 1
    },
    {
      "midi": 59,
      "hit": false,
      "t": 185766.22750000007,
      "d": 1382.6699541666603,
      "v": 1
    },
    {
      "midi": 62,
      "hit": false,
      "t": 185766.22750000007,
      "d": 1382.6699541666603,
      "v": 1
    },
    {
      "midi": 66,
      "hit": false,
      "t": 185766.22750000007,
      "d": 1382.6699541666603,
      "v": 1
    },
    {
      "midi": 61,
      "hit": false,
      "t": 187150.82050000006,
      "d": 459.60795416665496,
      "v": 1
    },
    {
      "midi": 64,
      "hit": false,
      "t": 187150.82050000006,
      "d": 459.60795416665496,
      "v": 1
    },
    {
      "midi": 68,
      "hit": false,
      "t": 187150.82050000006,
      "d": 459.60795416665496,
      "v": 1
    },
    {
      "midi": 59,
      "hit": false,
      "t": 187612.35150000005,
      "d": 228.84245416667545,
      "v": 1
    },
    {
      "midi": 62,
      "hit": false,
      "t": 187612.35150000005,
      "d": 228.84245416667545,
      "v": 1
    },
    {
      "midi": 66,
      "hit": false,
      "t": 187612.35150000005,
      "d": 228.84245416667545,
      "v": 1
    },
    {
      "midi": 57,
      "hit": false,
      "t": 187843.11700000006,
      "d": 1613.435454166669,
      "v": 1
    },
    {
      "midi": 61,
      "hit": false,
      "t": 187843.11700000006,
      "d": 1613.435454166669,
      "v": 1
    },
    {
      "midi": 61,
      "hit": false,
      "t": 189458.47550000006,
      "d": 459.60795416665496,
      "v": 1
    },
    {
      "midi": 64,
      "hit": false,
      "t": 189458.47550000006,
      "d": 459.60795416665496,
      "v": 1
    },
    {
      "midi": 59,
      "hit": false,
      "t": 189920.00650000005,
      "d": 921.1389541666722,
      "v": 1
    },
    {
      "midi": 62,
      "hit": false,
      "t": 189920.00650000005,
      "d": 921.1389541666722,
      "v": 1
    },
    {
      "midi": 66,
      "hit": false,
      "t": 189920.00650000005,
      "d": 921.1389541666722,
      "v": 1
    },
    {
      "midi": 61,
      "hit": false,
      "t": 190843.06850000005,
      "d": 459.60795416665496,
      "v": 1
    },
    {
      "midi": 64,
      "hit": false,
      "t": 190843.06850000005,
      "d": 459.60795416665496,
      "v": 1
    },
    {
      "midi": 68,
      "hit": false,
      "t": 190843.06850000005,
      "d": 459.60795416665496,
      "v": 1
    },
    {
      "midi": 59,
      "hit": false,
      "t": 191304.59950000004,
      "d": 228.84245416667545,
      "v": 1
    },
    {
      "midi": 62,
      "hit": false,
      "t": 191304.59950000004,
      "d": 228.84245416667545,
      "v": 1
    },
    {
      "midi": 66,
      "hit": false,
      "t": 191304.59950000004,
      "d": 228.84245416667545,
      "v": 1
    },
    {
      "midi": 59,
      "hit": false,
      "t": 191535.36500000005,
      "d": 228.84245416667545,
      "v": 1
    },
    {
      "midi": 61,
      "hit": false,
      "t": 191535.36500000005,
      "d": 228.84245416667545,
      "v": 1
    },
    {
      "midi": 66,
      "hit": false,
      "t": 191535.36500000005,
      "d": 228.84245416667545,
      "v": 1
    },
    {
      "midi": 59,
      "hit": false,
      "t": 191766.13050000006,
      "d": 921.1389541666722,
      "v": 1
    },
    {
      "midi": 62,
      "hit": false,
      "t": 191766.13050000006,
      "d": 921.1389541666722,
      "v": 1
    },
    {
      "midi": 66,
      "hit": false,
      "t": 191766.13050000006,
      "d": 921.1389541666722,
      "v": 1
    },
    {
      "midi": 61,
      "hit": false,
      "t": 192689.19250000006,
      "d": 459.60795416665496,
      "v": 1
    },
    {
      "midi": 64,
      "hit": false,
      "t": 192689.19250000006,
      "d": 459.60795416665496,
      "v": 1
    },
    {
      "midi": 68,
      "hit": false,
      "t": 192689.19250000006,
      "d": 459.60795416665496,
      "v": 1
    },
    {
      "midi": 59,
      "hit": false,
      "t": 193150.72350000005,
      "d": 1382.6699541666603,
      "v": 1
    },
    {
      "midi": 62,
      "hit": false,
      "t": 193150.72350000005,
      "d": 1382.6699541666603,
      "v": 1
    },
    {
      "midi": 66,
      "hit": false,
      "t": 193150.72350000005,
      "d": 1382.6699541666603,
      "v": 1
    },
    {
      "midi": 61,
      "hit": false,
      "t": 194535.31650000004,
      "d": 459.60795416665496,
      "v": 1
    },
    {
      "midi": 64,
      "hit": false,
      "t": 194535.31650000004,
      "d": 459.60795416665496,
      "v": 1
    },
    {
      "midi": 68,
      "hit": false,
      "t": 194535.31650000004,
      "d": 459.60795416665496,
      "v": 1
    },
    {
      "midi": 59,
      "hit": false,
      "t": 194996.84750000003,
      "d": 228.84245416667545,
      "v": 1
    },
    {
      "midi": 62,
      "hit": false,
      "t": 194996.84750000003,
      "d": 228.84245416667545,
      "v": 1
    },
    {
      "midi": 66,
      "hit": false,
      "t": 194996.84750000003,
      "d": 228.84245416667545,
      "v": 1
    },
    {
      "midi": 57,
      "hit": false,
      "t": 195227.61300000004,
      "d": 921.1389541666722,
      "v": 1
    },
    {
      "midi": 61,
      "hit": false,
      "t": 195227.61300000004,
      "d": 921.1389541666722,
      "v": 1
    },
    {
      "midi": 64,
      "hit": false,
      "t": 195227.61300000004,
      "d": 921.1389541666722,
      "v": 1
    },
    {
      "midi": 73,
      "hit": false,
      "t": 197549.69084375023,
      "d": 603.8363916666713,
      "v": 103
    },
    {
      "midi": 76,
      "hit": false,
      "t": 197550.6523666669,
      "d": 607.6824833333376,
      "v": 106
    },
    {
      "midi": 69,
      "hit": false,
      "t": 197554.49845833358,
      "d": 603.8363916666713,
      "v": 111
    },
    {
      "midi": 73,
      "hit": false,
      "t": 198247.75648125025,
      "d": 340.3791124999989,
      "v": 106
    },
    {
      "midi": 69,
      "hit": false,
      "t": 198251.60257291692,
      "d": 432.6853124999907,
      "v": 104
    },
    {
      "midi": 76,
      "hit": false,
      "t": 198251.60257291692,
      "d": 951.9076875000028,
      "v": 110
    },
    {
      "midi": 69,
      "hit": false,
      "t": 198458.33000000005,
      "d": 947.1000729166844,
      "v": 1
    },
    {
      "midi": 52,
      "hit": false,
      "t": 198458.33000000005,
      "d": 961.5229166666977,
      "v": 1
    },
    {
      "midi": 61,
      "hit": false,
      "t": 198458.33000000005,
      "d": 964.407485416712,
      "v": 1
    },
    {
      "midi": 73,
      "hit": false,
      "t": 198698.71072916692,
      "d": 562.4909062500228,
      "v": 99
    },
    {
      "midi": 69,
      "hit": false,
      "t": 198925.63013750027,
      "d": 319.2256083333341,
      "v": 104
    },
    {
      "midi": 54,
      "hit": false,
      "t": 199381.39200000005,
      "d": 459.60795416671317,
      "v": 1
    },
    {
      "midi": 57,
      "hit": false,
      "t": 199381.39200000005,
      "d": 459.60795416671317,
      "v": 1
    },
    {
      "midi": 66,
      "hit": false,
      "t": 199381.39200000005,
      "d": 459.60795416671317,
      "v": 1
    },
    {
      "midi": 73,
      "hit": false,
      "t": 199387.16113750028,
      "d": 532.6836958333442,
      "v": 103
    },
    {
      "midi": 78,
      "hit": false,
      "t": 199391.96875208363,
      "d": 508.64562291666516,
      "v": 107
    },
    {
      "midi": 69,
      "hit": false,
      "t": 199391.96875208363,
      "d": 530.7606500000111,
      "v": 103
    },
    {
      "midi": 73,
      "hit": false,
      "t": 200064.07327083364,
      "d": 358.6480479166785,
      "v": 107
    },
    {
      "midi": 69,
      "hit": false,
      "t": 200065.03479375032,
      "d": 420.1855145833397,
      "v": 102
    },
    {
      "midi": 78,
      "hit": false,
      "t": 200065.03479375032,
      "d": 997.0992645833758,
      "v": 105
    },
    {
      "midi": 73,
      "hit": false,
      "t": 200545.79625208367,
      "d": 525.9530354166927,
      "v": 107
    },
    {
      "midi": 69,
      "hit": false,
      "t": 200790.023072917,
      "d": 267.3033708333387,
      "v": 105
    },
    {
      "midi": 73,
      "hit": false,
      "t": 201241.93884375037,
      "d": 548.0680625000095,
      "v": 105
    },
    {
      "midi": 69,
      "hit": false,
      "t": 201242.90036666705,
      "d": 549.9911083333427,
      "v": 105
    },
    {
      "midi": 76,
      "hit": false,
      "t": 201242.90036666705,
      "d": 549.9911083333427,
      "v": 109
    },
    {
      "midi": 73,
      "hit": false,
      "t": 201929.42772916704,
      "d": 312.4949479166826,
      "v": 103
    },
    {
      "midi": 76,
      "hit": false,
      "t": 201929.42772916704,
      "d": 704.796297916706,
      "v": 111
    },
    {
      "midi": 69,
      "hit": false,
      "t": 201930.38925208373,
      "d": 354.80195625001215,
      "v": 104
    },
    {
      "midi": 69,
      "hit": false,
      "t": 202150.5780000001,
      "d": 947.1000729166844,
      "v": 1
    },
    {
      "midi": 52,
      "hit": false,
      "t": 202150.5780000001,
      "d": 961.5229166666977,
      "v": 1
    },
    {
      "midi": 61,
      "hit": false,
      "t": 202150.5780000001,
      "d": 964.407485416712,
      "v": 1
    },
    {
      "midi": 73,
      "hit": false,
      "t": 202372.6897937504,
      "d": 460.5694770833361,
      "v": 99
    },
    {
      "midi": 69,
      "hit": false,
      "t": 202613.07052291709,
      "d": 324.03322291665245,
      "v": 98
    },
    {
      "midi": 54,
      "hit": false,
      "t": 203073.6400000001,
      "d": 459.60795416671317,
      "v": 1
    },
    {
      "midi": 57,
      "hit": false,
      "t": 203073.6400000001,
      "d": 459.60795416671317,
      "v": 1
    },
    {
      "midi": 66,
      "hit": false,
      "t": 203073.6400000001,
      "d": 459.60795416671317,
      "v": 1
    },
    {
      "midi": 73,
      "hit": false,
      "t": 203088.0628437504,
      "d": 509.6071458333463,
      "v": 110
    },
    {
      "midi": 78,
      "hit": false,
      "t": 203089.0243666671,
      "d": 499.03039374999935,
      "v": 104
    },
    {
      "midi": 69,
      "hit": false,
      "t": 203092.87045833375,
      "d": 504.79953124999884,
      "v": 104
    },
    {
      "midi": 78,
      "hit": false,
      "t": 203757.2827937504,
      "d": 737.4880770833697,
      "v": 105
    },
    {
      "midi": 73,
      "hit": false,
      "t": 203761.12888541707,
      "d": 353.8404333333601,
      "v": 103
    },
    {
      "midi": 69,
      "hit": false,
      "t": 203762.09040833375,
      "d": 374.0324145833438,
      "v": 103
    },
    {
      "midi": 73,
      "hit": false,
      "t": 204227.46750000044,
      "d": 254.8035729166586,
      "v": 102
    },
    {
      "midi": 69,
      "hit": false,
      "t": 204453.4253854171,
      "d": 132.69016250001732,
      "v": 105
    },
    {
      "midi": 74,
      "hit": false,
      "t": 204930.34075208378,
      "d": 585.5674562499917,
      "v": 111
    },
    {
      "midi": 78,
      "hit": false,
      "t": 204930.34075208378,
      "d": 590.3750708333391,
      "v": 101
    },
    {
      "midi": 69,
      "hit": false,
      "t": 204934.18684375045,
      "d": 599.0287770833529,
      "v": 102
    },
    {
      "midi": 74,
      "hit": false,
      "t": 205626.48334375047,
      "d": 293.26448958335095,
      "v": 108
    },
    {
      "midi": 69,
      "hit": false,
      "t": 205626.48334375047,
      "d": 349.03281875001267,
      "v": 104
    },
    {
      "midi": 78,
      "hit": false,
      "t": 205627.44486666715,
      "d": 929.792660416686,
      "v": 106
    },
    {
      "midi": 54,
      "hit": false,
      "t": 205838.97990833348,
      "d": 958.6383479166834,
      "v": 1
    },
    {
      "midi": 62,
      "hit": false,
      "t": 205852.4412291668,
      "d": 887.4856520833273,
      "v": 1
    },
    {
      "midi": 69,
      "hit": false,
      "t": 205852.4412291668,
      "d": 937.4848437500186,
      "v": 1
    },
    {
      "midi": 74,
      "hit": false,
      "t": 206073.59150000048,
      "d": 440.37749583335244,
      "v": 101
    },
    {
      "midi": 69,
      "hit": false,
      "t": 206319.74136666715,
      "d": 203.84285833334434,
      "v": 106
    },
    {
      "midi": 56,
      "hit": false,
      "t": 206765.88800000015,
      "d": 459.60795416668407,
      "v": 1
    },
    {
      "midi": 59,
      "hit": false,
      "t": 206765.88800000015,
      "d": 459.60795416668407,
      "v": 1
    },
    {
      "midi": 64,
      "hit": false,
      "t": 206765.88800000015,
      "d": 459.60795416668407,
      "v": 1
    },
    {
      "midi": 71,
      "hit": false,
      "t": 206765.88800000015,
      "d": 459.60795416668407,
      "v": 1
    },
    {
      "midi": 71,
      "hit": false,
      "t": 206786.0799812505,
      "d": 511.53019166667946,
      "v": 98
    },
    {
      "midi": 76,
      "hit": false,
      "t": 206789.92607291718,
      "d": 514.4147604166938,
      "v": 101
    },
    {
      "midi": 80,
      "hit": false,
      "t": 206789.92607291718,
      "d": 519.2223750000412,
      "v": 105
    },
    {
      "midi": 76,
      "hit": false,
      "t": 207467.79972916722,
      "d": 344.2252041666943,
      "v": 107
    },
    {
      "midi": 71,
      "hit": false,
      "t": 207468.7612520839,
      "d": 321.14865416666726,
      "v": 108
    },
    {
      "midi": 80,
      "hit": false,
      "t": 207468.7612520839,
      "d": 761.5261500000197,
      "v": 101
    },
    {
      "midi": 76,
      "hit": false,
      "t": 207930.29225208392,
      "d": 306.7258104166831,
      "v": 105
    },
    {
      "midi": 71,
      "hit": false,
      "t": 208169.7114583339,
      "d": 199.996766666678,
      "v": 111
    },
    {
      "midi": 74,
      "hit": false,
      "t": 208622.58875208392,
      "d": 585.5674562499917,
      "v": 109
    },
    {
      "midi": 78,
      "hit": false,
      "t": 208622.58875208392,
      "d": 590.3750708333391,
      "v": 101
    },
    {
      "midi": 69,
      "hit": false,
      "t": 208626.43484375058,
      "d": 599.0287770833529,
      "v": 107
    },
    {
      "midi": 74,
      "hit": false,
      "t": 209318.7313437506,
      "d": 293.26448958335095,
      "v": 107
    },
    {
      "midi": 69,
      "hit": false,
      "t": 209318.7313437506,
      "d": 349.03281875001267,
      "v": 102
    },
    {
      "midi": 78,
      "hit": false,
      "t": 209319.6928666673,
      "d": 929.792660416686,
      "v": 101
    },
    {
      "midi": 62,
      "hit": false,
      "t": 209535.07400000017,
      "d": 887.4856520833273,
      "v": 1
    },
    {
      "midi": 69,
      "hit": false,
      "t": 209535.07400000017,
      "d": 937.4848437500186,
      "v": 1
    },
    {
      "midi": 54,
      "hit": false,
      "t": 209535.07400000017,
      "d": 958.6383479166834,
      "v": 1
    },
    {
      "midi": 74,
      "hit": false,
      "t": 209765.8395000006,
      "d": 440.37749583335244,
      "v": 101
    },
    {
      "midi": 69,
      "hit": false,
      "t": 210011.9893666673,
      "d": 203.84285833334434,
      "v": 101
    },
    {
      "midi": 56,
      "hit": false,
      "t": 210458.13600000017,
      "d": 459.60795416668407,
      "v": 1
    },
    {
      "midi": 59,
      "hit": false,
      "t": 210458.13600000017,
      "d": 459.60795416668407,
      "v": 1
    },
    {
      "midi": 64,
      "hit": false,
      "t": 210458.13600000017,
      "d": 459.60795416668407,
      "v": 1
    },
    {
      "midi": 71,
      "hit": false,
      "t": 210458.13600000017,
      "d": 459.60795416668407,
      "v": 1
    },
    {
      "midi": 71,
      "hit": false,
      "t": 210478.32798125065,
      "d": 511.53019166667946,
      "v": 105
    },
    {
      "midi": 76,
      "hit": false,
      "t": 210482.17407291732,
      "d": 514.4147604166938,
      "v": 100
    },
    {
      "midi": 80,
      "hit": false,
      "t": 210482.17407291732,
      "d": 519.2223750000412,
      "v": 99
    },
    {
      "midi": 80,
      "hit": false,
      "t": 211170.6244812507,
      "d": 316.3410395833489,
      "v": 91
    },
    {
      "midi": 71,
      "hit": false,
      "t": 211174.47057291737,
      "d": 298.0721041666693,
      "v": 109
    },
    {
      "midi": 76,
      "hit": false,
      "t": 211175.43209583405,
      "d": 299.99515000000247,
      "v": 106
    },
    {
      "midi": 76,
      "hit": false,
      "t": 211611.9635000007,
      "d": 298.0721041666693,
      "v": 116
    },
    {
      "midi": 80,
      "hit": false,
      "t": 211612.9250229174,
      "d": 309.6103791666683,
      "v": 95
    },
    {
      "midi": 71,
      "hit": false,
      "t": 211616.77111458406,
      "d": 296.14905833333614,
      "v": 105
    },
    {
      "midi": 73,
      "hit": false,
      "t": 212318.68284375072,
      "d": 603.8363916666713,
      "v": 105
    },
    {
      "midi": 76,
      "hit": false,
      "t": 212319.6443666674,
      "d": 607.6824833333376,
      "v": 112
    },
    {
      "midi": 69,
      "hit": false,
      "t": 212323.49045833407,
      "d": 603.8363916666713,
      "v": 108
    },
    {
      "midi": 73,
      "hit": false,
      "t": 213016.74848125075,
      "d": 340.3791124999989,
      "v": 103
    },
    {
      "midi": 69,
      "hit": false,
      "t": 213020.5945729174,
      "d": 432.6853124999907,
      "v": 103
    },
    {
      "midi": 76,
      "hit": false,
      "t": 213020.5945729174,
      "d": 951.9076875000028,
      "v": 108
    },
    {
      "midi": 69,
      "hit": false,
      "t": 213227.3220000002,
      "d": 947.1000729166844,
      "v": 1
    },
    {
      "midi": 52,
      "hit": false,
      "t": 213227.3220000002,
      "d": 961.5229166666977,
      "v": 1
    },
    {
      "midi": 61,
      "hit": false,
      "t": 213227.3220000002,
      "d": 964.407485416712,
      "v": 1
    },
    {
      "midi": 73,
      "hit": false,
      "t": 213467.70272916742,
      "d": 562.4909062500228,
      "v": 100
    },
    {
      "midi": 69,
      "hit": false,
      "t": 213694.62213750076,
      "d": 319.2256083333341,
      "v": 102
    },
    {
      "midi": 54,
      "hit": false,
      "t": 214150.3840000002,
      "d": 459.60795416671317,
      "v": 1
    },
    {
      "midi": 57,
      "hit": false,
      "t": 214150.3840000002,
      "d": 459.60795416671317,
      "v": 1
    },
    {
      "midi": 66,
      "hit": false,
      "t": 214150.3840000002,
      "d": 459.60795416671317,
      "v": 1
    },
    {
      "midi": 73,
      "hit": false,
      "t": 214156.15313750078,
      "d": 532.6836958333442,
      "v": 103
    },
    {
      "midi": 78,
      "hit": false,
      "t": 214160.96075208412,
      "d": 508.64562291666516,
      "v": 104
    },
    {
      "midi": 69,
      "hit": false,
      "t": 214160.96075208412,
      "d": 530.7606500000111,
      "v": 107
    },
    {
      "midi": 73,
      "hit": false,
      "t": 214833.06527083414,
      "d": 358.6480479166785,
      "v": 107
    },
    {
      "midi": 69,
      "hit": false,
      "t": 214834.02679375082,
      "d": 420.1855145833397,
      "v": 109
    },
    {
      "midi": 78,
      "hit": false,
      "t": 214834.02679375082,
      "d": 997.0992645833758,
      "v": 100
    },
    {
      "midi": 73,
      "hit": false,
      "t": 215314.78825208417,
      "d": 525.9530354166927,
      "v": 104
    },
    {
      "midi": 69,
      "hit": false,
      "t": 215559.0150729175,
      "d": 267.3033708333387,
      "v": 101
    },
    {
      "midi": 73,
      "hit": false,
      "t": 216010.93084375086,
      "d": 548.0680625000095,
      "v": 102
    },
    {
      "midi": 69,
      "hit": false,
      "t": 216011.89236666754,
      "d": 549.9911083333427,
      "v": 106
    },
    {
      "midi": 76,
      "hit": false,
      "t": 216011.89236666754,
      "d": 549.9911083333427,
      "v": 106
    },
    {
      "midi": 73,
      "hit": false,
      "t": 216698.41972916754,
      "d": 312.4949479166826,
      "v": 107
    },
    {
      "midi": 76,
      "hit": false,
      "t": 216698.41972916754,
      "d": 704.796297916706,
      "v": 106
    },
    {
      "midi": 69,
      "hit": false,
      "t": 216699.38125208422,
      "d": 354.80195625001215,
      "v": 105
    },
    {
      "midi": 69,
      "hit": false,
      "t": 216919.57000000024,
      "d": 947.1000729166844,
      "v": 1
    },
    {
      "midi": 52,
      "hit": false,
      "t": 216919.57000000024,
      "d": 961.5229166666977,
      "v": 1
    },
    {
      "midi": 61,
      "hit": false,
      "t": 216919.57000000024,
      "d": 964.407485416712,
      "v": 1
    },
    {
      "midi": 73,
      "hit": false,
      "t": 217141.6817937509,
      "d": 460.5694770833361,
      "v": 97
    },
    {
      "midi": 69,
      "hit": false,
      "t": 217382.06252291758,
      "d": 324.03322291665245,
      "v": 104
    },
    {
      "midi": 54,
      "hit": false,
      "t": 217842.63200000025,
      "d": 459.60795416671317,
      "v": 1
    },
    {
      "midi": 57,
      "hit": false,
      "t": 217842.63200000025,
      "d": 459.60795416671317,
      "v": 1
    },
    {
      "midi": 66,
      "hit": false,
      "t": 217842.63200000025,
      "d": 459.60795416671317,
      "v": 1
    },
    {
      "midi": 73,
      "hit": false,
      "t": 217857.0548437509,
      "d": 509.6071458333463,
      "v": 103
    },
    {
      "midi": 78,
      "hit": false,
      "t": 217858.01636666758,
      "d": 499.03039374999935,
      "v": 107
    },
    {
      "midi": 69,
      "hit": false,
      "t": 217861.86245833425,
      "d": 504.79953124999884,
      "v": 105
    },
    {
      "midi": 78,
      "hit": false,
      "t": 218526.2747937509,
      "d": 737.4880770833697,
      "v": 104
    },
    {
      "midi": 73,
      "hit": false,
      "t": 218530.12088541756,
      "d": 353.8404333333601,
      "v": 106
    },
    {
      "midi": 69,
      "hit": false,
      "t": 218531.08240833424,
      "d": 374.0324145833438,
      "v": 104
    },
    {
      "midi": 73,
      "hit": false,
      "t": 218996.45950000093,
      "d": 254.8035729166586,
      "v": 105
    },
    {
      "midi": 69,
      "hit": false,
      "t": 219222.4173854176,
      "d": 132.69016250001732,
      "v": 102
    },
    {
      "midi": 74,
      "hit": false,
      "t": 219699.33275208427,
      "d": 585.5674562499917,
      "v": 107
    },
    {
      "midi": 78,
      "hit": false,
      "t": 219699.33275208427,
      "d": 590.3750708333391,
      "v": 105
    },
    {
      "midi": 69,
      "hit": false,
      "t": 219703.17884375094,
      "d": 599.0287770833529,
      "v": 106
    },
    {
      "midi": 74,
      "hit": false,
      "t": 220395.47534375096,
      "d": 293.26448958335095,
      "v": 105
    },
    {
      "midi": 69,
      "hit": false,
      "t": 220395.47534375096,
      "d": 349.03281875001267,
      "v": 99
    },
    {
      "midi": 78,
      "hit": false,
      "t": 220396.43686666765,
      "d": 929.792660416686,
      "v": 103
    },
    {
      "midi": 54,
      "hit": false,
      "t": 220607.97190833362,
      "d": 958.6383479166834,
      "v": 1
    },
    {
      "midi": 62,
      "hit": false,
      "t": 220621.43322916696,
      "d": 887.4856520833273,
      "v": 1
    },
    {
      "midi": 69,
      "hit": false,
      "t": 220621.43322916696,
      "d": 937.4848437500186,
      "v": 1
    },
    {
      "midi": 74,
      "hit": false,
      "t": 220842.58350000097,
      "d": 440.37749583335244,
      "v": 100
    },
    {
      "midi": 69,
      "hit": false,
      "t": 221088.73336666764,
      "d": 203.84285833334434,
      "v": 106
    },
    {
      "midi": 56,
      "hit": false,
      "t": 221534.8800000003,
      "d": 459.60795416668407,
      "v": 1
    },
    {
      "midi": 59,
      "hit": false,
      "t": 221534.8800000003,
      "d": 459.60795416668407,
      "v": 1
    },
    {
      "midi": 64,
      "hit": false,
      "t": 221534.8800000003,
      "d": 459.60795416668407,
      "v": 1
    },
    {
      "midi": 71,
      "hit": false,
      "t": 221534.8800000003,
      "d": 459.60795416668407,
      "v": 1
    },
    {
      "midi": 71,
      "hit": false,
      "t": 221555.071981251,
      "d": 511.53019166667946,
      "v": 98
    },
    {
      "midi": 76,
      "hit": false,
      "t": 221558.91807291767,
      "d": 514.4147604166938,
      "v": 104
    },
    {
      "midi": 80,
      "hit": false,
      "t": 221558.91807291767,
      "d": 519.2223750000412,
      "v": 98
    },
    {
      "midi": 76,
      "hit": false,
      "t": 222236.79172916771,
      "d": 344.2252041666943,
      "v": 106
    },
    {
      "midi": 71,
      "hit": false,
      "t": 222237.7532520844,
      "d": 321.14865416666726,
      "v": 103
    },
    {
      "midi": 80,
      "hit": false,
      "t": 222237.7532520844,
      "d": 761.5261500000197,
      "v": 103
    },
    {
      "midi": 76,
      "hit": false,
      "t": 222699.2842520844,
      "d": 306.7258104166831,
      "v": 105
    },
    {
      "midi": 71,
      "hit": false,
      "t": 222938.7034583344,
      "d": 199.996766666678,
      "v": 110
    },
    {
      "midi": 74,
      "hit": false,
      "t": 223391.5807520844,
      "d": 585.5674562499917,
      "v": 111
    },
    {
      "midi": 78,
      "hit": false,
      "t": 223391.5807520844,
      "d": 590.3750708333391,
      "v": 102
    },
    {
      "midi": 69,
      "hit": false,
      "t": 223395.42684375108,
      "d": 599.0287770833529,
      "v": 107
    },
    {
      "midi": 74,
      "hit": false,
      "t": 224087.7233437511,
      "d": 293.26448958335095,
      "v": 110
    },
    {
      "midi": 69,
      "hit": false,
      "t": 224087.7233437511,
      "d": 349.03281875001267,
      "v": 97
    },
    {
      "midi": 78,
      "hit": false,
      "t": 224088.68486666778,
      "d": 929.792660416686,
      "v": 102
    },
    {
      "midi": 62,
      "hit": false,
      "t": 224304.0660000003,
      "d": 887.4856520833273,
      "v": 1
    },
    {
      "midi": 69,
      "hit": false,
      "t": 224304.0660000003,
      "d": 937.4848437500186,
      "v": 1
    },
    {
      "midi": 54,
      "hit": false,
      "t": 224304.0660000003,
      "d": 958.6383479166834,
      "v": 1
    },
    {
      "midi": 74,
      "hit": false,
      "t": 224534.8315000011,
      "d": 440.37749583335244,
      "v": 98
    },
    {
      "midi": 69,
      "hit": false,
      "t": 224780.98136666778,
      "d": 203.84285833334434,
      "v": 104
    },
    {
      "midi": 56,
      "hit": false,
      "t": 225227.12800000032,
      "d": 459.60795416668407,
      "v": 1
    },
    {
      "midi": 59,
      "hit": false,
      "t": 225227.12800000032,
      "d": 459.60795416668407,
      "v": 1
    },
    {
      "midi": 64,
      "hit": false,
      "t": 225227.12800000032,
      "d": 459.60795416668407,
      "v": 1
    },
    {
      "midi": 71,
      "hit": false,
      "t": 225227.12800000032,
      "d": 459.60795416668407,
      "v": 1
    },
    {
      "midi": 71,
      "hit": false,
      "t": 225247.31998125114,
      "d": 511.53019166667946,
      "v": 100
    },
    {
      "midi": 76,
      "hit": false,
      "t": 225251.1660729178,
      "d": 514.4147604166938,
      "v": 105
    },
    {
      "midi": 80,
      "hit": false,
      "t": 225251.1660729178,
      "d": 519.2223750000412,
      "v": 106
    },
    {
      "midi": 80,
      "hit": false,
      "t": 225939.6164812512,
      "d": 316.3410395833489,
      "v": 90
    },
    {
      "midi": 71,
      "hit": false,
      "t": 225943.46257291787,
      "d": 298.0721041666693,
      "v": 108
    },
    {
      "midi": 76,
      "hit": false,
      "t": 225944.42409583455,
      "d": 299.99515000000247,
      "v": 109
    },
    {
      "midi": 76,
      "hit": false,
      "t": 226380.9555000012,
      "d": 298.0721041666693,
      "v": 117
    },
    {
      "midi": 80,
      "hit": false,
      "t": 226381.91702291789,
      "d": 309.6103791666683,
      "v": 89
    },
    {
      "midi": 71,
      "hit": false,
      "t": 226385.76311458455,
      "d": 296.14905833333614,
      "v": 109
    },
    {
      "midi": 73,
      "hit": false,
      "t": 227087.6748437512,
      "d": 603.8363916666713,
      "v": 104
    },
    {
      "midi": 76,
      "hit": false,
      "t": 227088.6363666679,
      "d": 607.6824833333376,
      "v": 111
    },
    {
      "midi": 69,
      "hit": false,
      "t": 227092.48245833456,
      "d": 603.8363916666713,
      "v": 104
    },
    {
      "midi": 73,
      "hit": false,
      "t": 227785.74048125124,
      "d": 340.3791124999989,
      "v": 101
    },
    {
      "midi": 69,
      "hit": false,
      "t": 227789.5865729179,
      "d": 432.6853124999907,
      "v": 102
    },
    {
      "midi": 76,
      "hit": false,
      "t": 227789.5865729179,
      "d": 951.9076875000028,
      "v": 109
    },
    {
      "midi": 69,
      "hit": false,
      "t": 227996.31400000033,
      "d": 947.1000729166844,
      "v": 1
    },
    {
      "midi": 52,
      "hit": false,
      "t": 227996.31400000033,
      "d": 961.5229166666977,
      "v": 1
    },
    {
      "midi": 61,
      "hit": false,
      "t": 227996.31400000033,
      "d": 964.407485416712,
      "v": 1
    },
    {
      "midi": 73,
      "hit": false,
      "t": 228236.6947291679,
      "d": 562.4909062500228,
      "v": 98
    },
    {
      "midi": 69,
      "hit": false,
      "t": 228463.61413750125,
      "d": 319.2256083333341,
      "v": 98
    },
    {
      "midi": 54,
      "hit": false,
      "t": 228919.37600000034,
      "d": 459.60795416671317,
      "v": 1
    },
    {
      "midi": 57,
      "hit": false,
      "t": 228919.37600000034,
      "d": 459.60795416671317,
      "v": 1
    },
    {
      "midi": 66,
      "hit": false,
      "t": 228919.37600000034,
      "d": 459.60795416671317,
      "v": 1
    },
    {
      "midi": 73,
      "hit": false,
      "t": 228925.14513750127,
      "d": 532.6836958333442,
      "v": 101
    },
    {
      "midi": 78,
      "hit": false,
      "t": 228929.95275208462,
      "d": 508.64562291666516,
      "v": 105
    },
    {
      "midi": 69,
      "hit": false,
      "t": 228929.95275208462,
      "d": 530.7606500000111,
      "v": 101
    },
    {
      "midi": 73,
      "hit": false,
      "t": 229602.05727083463,
      "d": 358.6480479166785,
      "v": 108
    },
    {
      "midi": 69,
      "hit": false,
      "t": 229603.0187937513,
      "d": 420.1855145833397,
      "v": 107
    },
    {
      "midi": 78,
      "hit": false,
      "t": 229603.0187937513,
      "d": 997.0992645833758,
      "v": 106
    },
    {
      "midi": 73,
      "hit": false,
      "t": 230083.78025208466,
      "d": 525.9530354166927,
      "v": 102
    },
    {
      "midi": 69,
      "hit": false,
      "t": 230328.007072918,
      "d": 267.3033708333387,
      "v": 104
    },
    {
      "midi": 73,
      "hit": false,
      "t": 230779.92284375135,
      "d": 548.0680625000095,
      "v": 107
    },
    {
      "midi": 69,
      "hit": false,
      "t": 230780.88436666803,
      "d": 549.9911083333427,
      "v": 103
    },
    {
      "midi": 76,
      "hit": false,
      "t": 230780.88436666803,
      "d": 549.9911083333427,
      "v": 105
    },
    {
      "midi": 73,
      "hit": false,
      "t": 231467.41172916803,
      "d": 312.4949479166826,
      "v": 105
    },
    {
      "midi": 76,
      "hit": false,
      "t": 231467.41172916803,
      "d": 704.796297916706,
      "v": 112
    },
    {
      "midi": 69,
      "hit": false,
      "t": 231468.3732520847,
      "d": 354.80195625001215,
      "v": 106
    },
    {
      "midi": 69,
      "hit": false,
      "t": 231688.56200000038,
      "d": 947.1000729166844,
      "v": 1
    },
    {
      "midi": 52,
      "hit": false,
      "t": 231688.56200000038,
      "d": 961.5229166666977,
      "v": 1
    },
    {
      "midi": 61,
      "hit": false,
      "t": 231688.56200000038,
      "d": 964.407485416712,
      "v": 1
    },
    {
      "midi": 73,
      "hit": false,
      "t": 231910.6737937514,
      "d": 460.5694770833361,
      "v": 99
    },
    {
      "midi": 69,
      "hit": false,
      "t": 232151.05452291807,
      "d": 324.03322291665245,
      "v": 98
    },
    {
      "midi": 54,
      "hit": false,
      "t": 232611.6240000004,
      "d": 459.60795416671317,
      "v": 1
    },
    {
      "midi": 57,
      "hit": false,
      "t": 232611.6240000004,
      "d": 459.60795416671317,
      "v": 1
    },
    {
      "midi": 66,
      "hit": false,
      "t": 232611.6240000004,
      "d": 459.60795416671317,
      "v": 1
    },
    {
      "midi": 73,
      "hit": false,
      "t": 232626.0468437514,
      "d": 509.6071458333463,
      "v": 104
    },
    {
      "midi": 78,
      "hit": false,
      "t": 232627.00836666807,
      "d": 499.03039374999935,
      "v": 100
    },
    {
      "midi": 69,
      "hit": false,
      "t": 232630.85445833474,
      "d": 504.79953124999884,
      "v": 108
    },
    {
      "midi": 78,
      "hit": false,
      "t": 233295.2667937514,
      "d": 737.4880770833697,
      "v": 103
    },
    {
      "midi": 73,
      "hit": false,
      "t": 233299.11288541806,
      "d": 353.8404333333601,
      "v": 106
    },
    {
      "midi": 69,
      "hit": false,
      "t": 233300.07440833474,
      "d": 374.0324145833438,
      "v": 106
    },
    {
      "midi": 73,
      "hit": false,
      "t": 233765.45150000142,
      "d": 254.8035729166586,
      "v": 100
    },
    {
      "midi": 69,
      "hit": false,
      "t": 233991.40938541808,
      "d": 132.69016250001732,
      "v": 101
    },
    {
      "midi": 74,
      "hit": false,
      "t": 234468.32475208477,
      "d": 585.5674562499917,
      "v": 112
    },
    {
      "midi": 78,
      "hit": false,
      "t": 234468.32475208477,
      "d": 590.3750708333391,
      "v": 104
    },
    {
      "midi": 69,
      "hit": false,
      "t": 234472.17084375143,
      "d": 599.0287770833529,
      "v": 107
    },
    {
      "midi": 74,
      "hit": false,
      "t": 235164.46734375146,
      "d": 293.26448958335095,
      "v": 111
    },
    {
      "midi": 69,
      "hit": false,
      "t": 235164.46734375146,
      "d": 349.03281875001267,
      "v": 103
    },
    {
      "midi": 78,
      "hit": false,
      "t": 235165.42886666814,
      "d": 929.792660416686,
      "v": 102
    },
    {
      "midi": 54,
      "hit": false,
      "t": 235376.96390833377,
      "d": 958.6383479166834,
      "v": 1
    },
    {
      "midi": 62,
      "hit": false,
      "t": 235390.4252291671,
      "d": 887.4856520833273,
      "v": 1
    },
    {
      "midi": 69,
      "hit": false,
      "t": 235390.4252291671,
      "d": 937.4848437500186,
      "v": 1
    },
    {
      "midi": 74,
      "hit": false,
      "t": 235611.57550000146,
      "d": 440.37749583335244,
      "v": 99
    },
    {
      "midi": 69,
      "hit": false,
      "t": 235857.72536666814,
      "d": 203.84285833334434,
      "v": 102
    },
    {
      "midi": 56,
      "hit": false,
      "t": 236303.87200000044,
      "d": 459.60795416668407,
      "v": 1
    },
    {
      "midi": 59,
      "hit": false,
      "t": 236303.87200000044,
      "d": 459.60795416668407,
      "v": 1
    },
    {
      "midi": 64,
      "hit": false,
      "t": 236303.87200000044,
      "d": 459.60795416668407,
      "v": 1
    },
    {
      "midi": 71,
      "hit": false,
      "t": 236303.87200000044,
      "d": 459.60795416668407,
      "v": 1
    },
    {
      "midi": 71,
      "hit": false,
      "t": 236324.0639812515,
      "d": 511.53019166667946,
      "v": 103
    },
    {
      "midi": 76,
      "hit": false,
      "t": 236327.91007291817,
      "d": 514.4147604166938,
      "v": 102
    },
    {
      "midi": 80,
      "hit": false,
      "t": 236327.91007291817,
      "d": 519.2223750000412,
      "v": 105
    },
    {
      "midi": 76,
      "hit": false,
      "t": 237005.7837291682,
      "d": 344.2252041666943,
      "v": 109
    },
    {
      "midi": 71,
      "hit": false,
      "t": 237006.7452520849,
      "d": 321.14865416666726,
      "v": 108
    },
    {
      "midi": 80,
      "hit": false,
      "t": 237006.7452520849,
      "d": 761.5261500000197,
      "v": 104
    },
    {
      "midi": 76,
      "hit": false,
      "t": 237468.2762520849,
      "d": 306.7258104166831,
      "v": 105
    },
    {
      "midi": 71,
      "hit": false,
      "t": 237707.6954583349,
      "d": 199.996766666678,
      "v": 110
    },
    {
      "midi": 74,
      "hit": false,
      "t": 238160.5727520849,
      "d": 585.5674562499917,
      "v": 108
    },
    {
      "midi": 78,
      "hit": false,
      "t": 238160.5727520849,
      "d": 590.3750708333391,
      "v": 100
    },
    {
      "midi": 69,
      "hit": false,
      "t": 238164.41884375157,
      "d": 599.0287770833529,
      "v": 104
    },
    {
      "midi": 74,
      "hit": false,
      "t": 238856.7153437516,
      "d": 293.26448958335095,
      "v": 109
    },
    {
      "midi": 69,
      "hit": false,
      "t": 238856.7153437516,
      "d": 349.03281875001267,
      "v": 104
    },
    {
      "midi": 78,
      "hit": false,
      "t": 238857.67686666828,
      "d": 929.792660416686,
      "v": 104
    },
    {
      "midi": 62,
      "hit": false,
      "t": 239073.05800000046,
      "d": 887.4856520833273,
      "v": 1
    },
    {
      "midi": 69,
      "hit": false,
      "t": 239073.05800000046,
      "d": 937.4848437500186,
      "v": 1
    },
    {
      "midi": 54,
      "hit": false,
      "t": 239073.05800000046,
      "d": 958.6383479166834,
      "v": 1
    },
    {
      "midi": 74,
      "hit": false,
      "t": 239303.8235000016,
      "d": 440.37749583335244,
      "v": 105
    },
    {
      "midi": 69,
      "hit": false,
      "t": 239549.97336666827,
      "d": 203.84285833334434,
      "v": 99
    },
    {
      "midi": 56,
      "hit": false,
      "t": 239996.12000000046,
      "d": 459.60795416668407,
      "v": 1
    },
    {
      "midi": 59,
      "hit": false,
      "t": 239996.12000000046,
      "d": 459.60795416668407,
      "v": 1
    },
    {
      "midi": 64,
      "hit": false,
      "t": 239996.12000000046,
      "d": 459.60795416668407,
      "v": 1
    },
    {
      "midi": 71,
      "hit": false,
      "t": 239996.12000000046,
      "d": 459.60795416668407,
      "v": 1
    },
    {
      "midi": 71,
      "hit": false,
      "t": 240016.31198125164,
      "d": 511.53019166667946,
      "v": 103
    },
    {
      "midi": 76,
      "hit": false,
      "t": 240020.1580729183,
      "d": 514.4147604166938,
      "v": 104
    },
    {
      "midi": 80,
      "hit": false,
      "t": 240020.1580729183,
      "d": 519.2223750000412,
      "v": 101
    },
    {
      "midi": 80,
      "hit": false,
      "t": 240708.6084812517,
      "d": 316.3410395833489,
      "v": 86
    },
    {
      "midi": 71,
      "hit": false,
      "t": 240712.45457291836,
      "d": 298.0721041666693,
      "v": 111
    },
    {
      "midi": 76,
      "hit": false,
      "t": 240713.41609583504,
      "d": 299.99515000000247,
      "v": 107
    },
    {
      "midi": 76,
      "hit": false,
      "t": 241149.9475000017,
      "d": 298.0721041666693,
      "v": 116
    },
    {
      "midi": 80,
      "hit": false,
      "t": 241150.90902291838,
      "d": 309.6103791666683,
      "v": 95
    },
    {
      "midi": 71,
      "hit": false,
      "t": 241154.75511458504,
      "d": 296.14905833333614,
      "v": 107
    },
    {
      "midi": 73,
      "hit": false,
      "t": 241856.6668437517,
      "d": 1151.9044541666808,
      "v": 106
    },
    {
      "midi": 76,
      "hit": false,
      "t": 241857.6283666684,
      "d": 1150.9429312499997,
      "v": 106
    },
    {
      "midi": 69,
      "hit": false,
      "t": 241861.47445833505,
      "d": 1147.0968395833333,
      "v": 110
    }
  ]
}