{
  "jsonPath": "Soundtracks/Video Game Music/Cuphead/cuphead-ruggedridge.json",
  "path": "Soundtracks\\Video Game Music\\Cuphead\\Cuphead_RuggedRidge.mid",
  "name": "Cuphead_RuggedRidge",
  "difficulty": "Advanced",
  "bpm": 120,
  "notes": [
    {
      "midi": 40,
      "hit": false,
      "t": 0,
      "d": 203.12527083333333,
      "v": 80
    },
    {
      "midi": 52,
      "hit": false,
      "t": 0,
      "d": 203.12527083333333,
      "v": 80
    },
    {
      "midi": 39,
      "hit": false,
      "t": 214.286,
      "d": 203.12527083333333,
      "v": 80
    },
    {
      "midi": 51,
      "hit": false,
      "t": 214.286,
      "d": 203.12527083333333,
      "v": 80
    },
    {
      "midi": 76,
      "hit": false,
      "t": 333.3333333333333,
      "d": 157.29166666666669,
      "v": 80
    },
    {
      "midi": 88,
      "hit": false,
      "t": 333.3333333333333,
      "d": 157.29166666666669,
      "v": 80
    },
    {
      "midi": 38,
      "hit": false,
      "t": 428.572,
      "d": 203.12527083333327,
      "v": 80
    },
    {
      "midi": 50,
      "hit": false,
      "t": 428.572,
      "d": 203.12527083333327,
      "v": 80
    },
    {
      "midi": 77,
      "hit": false,
      "t": 500,
      "d": 323.71825624999997,
      "v": 80
    },
    {
      "midi": 89,
      "hit": false,
      "t": 500,
      "d": 323.71825624999997,
      "v": 80
    },
    {
      "midi": 37,
      "hit": false,
      "t": 642.858,
      "d": 203.1252708333334,
      "v": 80
    },
    {
      "midi": 49,
      "hit": false,
      "t": 642.858,
      "d": 203.1252708333334,
      "v": 80
    },
    {
      "midi": 78,
      "hit": false,
      "t": 841.8806666666667,
      "d": 161.3249395833334,
      "v": 80
    },
    {
      "midi": 90,
      "hit": false,
      "t": 841.8806666666667,
      "d": 161.3249395833334,
      "v": 80
    },
    {
      "midi": 36,
      "hit": false,
      "t": 857.144,
      "d": 203.1252708333334,
      "v": 80
    },
    {
      "midi": 48,
      "hit": false,
      "t": 857.144,
      "d": 203.1252708333334,
      "v": 80
    },
    {
      "midi": 79,
      "hit": false,
      "t": 1012.821,
      "d": 332.2369749999999,
      "v": 80
    },
    {
      "midi": 91,
      "hit": false,
      "t": 1012.821,
      "d": 332.2369749999999,
      "v": 80
    },
    {
      "midi": 35,
      "hit": false,
      "t": 1071.43,
      "d": 203.1252708333334,
      "v": 80
    },
    {
      "midi": 47,
      "hit": false,
      "t": 1071.43,
      "d": 203.1252708333334,
      "v": 80
    },
    {
      "midi": 34,
      "hit": false,
      "t": 1285.7160000000001,
      "d": 203.1252708333334,
      "v": 80
    },
    {
      "midi": 46,
      "hit": false,
      "t": 1285.7160000000001,
      "d": 203.1252708333334,
      "v": 80
    },
    {
      "midi": 72,
      "hit": false,
      "t": 1363.6983333333333,
      "d": 165.57024166666656,
      "v": 80
    },
    {
      "midi": 84,
      "hit": false,
      "t": 1363.6983333333333,
      "d": 165.57024166666656,
      "v": 80
    },
    {
      "midi": 32,
      "hit": false,
      "t": 1500.0020000000002,
      "d": 203.1252708333334,
      "v": 80
    },
    {
      "midi": 44,
      "hit": false,
      "t": 1500.0020000000002,
      "d": 203.1252708333334,
      "v": 80
    },
    {
      "midi": 73,
      "hit": false,
      "t": 1539.1369999999997,
      "d": 341.21650625000007,
      "v": 80
    },
    {
      "midi": 85,
      "hit": false,
      "t": 1539.1369999999997,
      "d": 341.21650625000007,
      "v": 80
    },
    {
      "midi": 45,
      "hit": false,
      "t": 1714.2880000000002,
      "d": 203.1252708333334,
      "v": 80
    },
    {
      "midi": 74,
      "hit": false,
      "t": 1899.4976666666664,
      "d": 170.04518958333324,
      "v": 80
    },
    {
      "midi": 86,
      "hit": false,
      "t": 1899.4976666666664,
      "d": 170.04518958333324,
      "v": 80
    },
    {
      "midi": 52,
      "hit": false,
      "t": 1928.5740000000003,
      "d": 203.1252708333334,
      "v": 80
    },
    {
      "midi": 57,
      "hit": false,
      "t": 1928.5740000000003,
      "d": 203.1252708333334,
      "v": 80
    },
    {
      "midi": 60,
      "hit": false,
      "t": 1928.5740000000003,
      "d": 203.1252708333334,
      "v": 80
    },
    {
      "midi": 75,
      "hit": false,
      "t": 2079.678,
      "d": 350.69472499999983,
      "v": 80
    },
    {
      "midi": 87,
      "hit": false,
      "t": 2079.678,
      "d": 350.69472499999983,
      "v": 80
    },
    {
      "midi": 40,
      "hit": false,
      "t": 2142.86,
      "d": 203.12527083333316,
      "v": 80
    },
    {
      "midi": 52,
      "hit": false,
      "t": 2357.1459999999997,
      "d": 203.12527083333316,
      "v": 80
    },
    {
      "midi": 57,
      "hit": false,
      "t": 2357.1459999999997,
      "d": 203.12527083333316,
      "v": 80
    },
    {
      "midi": 60,
      "hit": false,
      "t": 2357.1459999999997,
      "d": 203.12527083333316,
      "v": 80
    },
    {
      "midi": 69,
      "hit": false,
      "t": 2450.0486666666666,
      "d": 174.7686583333334,
      "v": 80
    },
    {
      "midi": 81,
      "hit": false,
      "t": 2450.0486666666666,
      "d": 174.7686583333334,
      "v": 80
    },
    {
      "midi": 45,
      "hit": false,
      "t": 2571.4319999999993,
      "d": 203.12527083333316,
      "v": 80
    },
    {
      "midi": 70,
      "hit": false,
      "t": 2635.234,
      "d": 378.74936875000003,
      "v": 80
    },
    {
      "midi": 82,
      "hit": false,
      "t": 2635.234,
      "d": 378.74936875000003,
      "v": 80
    },
    {
      "midi": 52,
      "hit": false,
      "t": 2785.717999999999,
      "d": 203.12527083333316,
      "v": 80
    },
    {
      "midi": 57,
      "hit": false,
      "t": 2785.717999999999,
      "d": 203.12527083333316,
      "v": 80
    },
    {
      "midi": 60,
      "hit": false,
      "t": 2785.717999999999,
      "d": 203.12527083333316,
      "v": 80
    },
    {
      "midi": 40,
      "hit": false,
      "t": 3000.0039999999985,
      "d": 203.12527083333316,
      "v": 80
    },
    {
      "midi": 71,
      "hit": false,
      "t": 3035.233333333333,
      "d": 188.74968541666658,
      "v": 80
    },
    {
      "midi": 83,
      "hit": false,
      "t": 3035.233333333333,
      "d": 188.74968541666658,
      "v": 80
    },
    {
      "midi": 52,
      "hit": false,
      "t": 3214.289999999998,
      "d": 203.12527083333316,
      "v": 80
    },
    {
      "midi": 57,
      "hit": false,
      "t": 3214.289999999998,
      "d": 203.12527083333316,
      "v": 80
    },
    {
      "midi": 60,
      "hit": false,
      "t": 3214.289999999998,
      "d": 203.12527083333316,
      "v": 80
    },
    {
      "midi": 72,
      "hit": false,
      "t": 3235.2329999999997,
      "d": 420.83354375,
      "v": 80
    },
    {
      "midi": 84,
      "hit": false,
      "t": 3235.2329999999997,
      "d": 420.83354375,
      "v": 80
    },
    {
      "midi": 39,
      "hit": false,
      "t": 3428.5759999999977,
      "d": 203.12527083333316,
      "v": 80
    },
    {
      "midi": 51,
      "hit": false,
      "t": 3642.8619999999974,
      "d": 203.12527083333316,
      "v": 80
    },
    {
      "midi": 54,
      "hit": false,
      "t": 3642.8619999999974,
      "d": 203.12527083333316,
      "v": 80
    },
    {
      "midi": 57,
      "hit": false,
      "t": 3642.8619999999974,
      "d": 203.12527083333316,
      "v": 80
    },
    {
      "midi": 59,
      "hit": false,
      "t": 3642.8619999999974,
      "d": 203.12527083333316,
      "v": 80
    },
    {
      "midi": 66,
      "hit": false,
      "t": 3679.6776666666665,
      "d": 209.7223270833333,
      "v": 80
    },
    {
      "midi": 78,
      "hit": false,
      "t": 3679.6776666666665,
      "d": 209.7223270833333,
      "v": 80
    },
    {
      "midi": 42,
      "hit": false,
      "t": 3857.147999999997,
      "d": 203.12527083333316,
      "v": 80
    },
    {
      "midi": 67,
      "hit": false,
      "t": 3901.8999999999996,
      "d": 420.83354375,
      "v": 80
    },
    {
      "midi": 79,
      "hit": false,
      "t": 3901.8999999999996,
      "d": 420.83354375,
      "v": 80
    },
    {
      "midi": 51,
      "hit": false,
      "t": 4071.4339999999966,
      "d": 203.12527083333316,
      "v": 80
    },
    {
      "midi": 54,
      "hit": false,
      "t": 4071.4339999999966,
      "d": 203.12527083333316,
      "v": 80
    },
    {
      "midi": 57,
      "hit": false,
      "t": 4071.4339999999966,
      "d": 203.12527083333316,
      "v": 80
    },
    {
      "midi": 59,
      "hit": false,
      "t": 4071.4339999999966,
      "d": 203.12527083333316,
      "v": 80
    },
    {
      "midi": 39,
      "hit": false,
      "t": 4285.719999999997,
      "d": 203.12527083333316,
      "v": 80
    },
    {
      "midi": 68,
      "hit": false,
      "t": 4346.344666666666,
      "d": 209.72232708333377,
      "v": 80
    },
    {
      "midi": 80,
      "hit": false,
      "t": 4346.344666666666,
      "d": 209.72232708333377,
      "v": 80
    },
    {
      "midi": 51,
      "hit": false,
      "t": 4500.005999999997,
      "d": 203.12527083333316,
      "v": 80
    },
    {
      "midi": 54,
      "hit": false,
      "t": 4500.005999999997,
      "d": 203.12527083333316,
      "v": 80
    },
    {
      "midi": 57,
      "hit": false,
      "t": 4500.005999999997,
      "d": 203.12527083333316,
      "v": 80
    },
    {
      "midi": 59,
      "hit": false,
      "t": 4500.005999999997,
      "d": 203.12527083333316,
      "v": 80
    },
    {
      "midi": 39,
      "hit": false,
      "t": 4714.291999999997,
      "d": 203.12527083333316,
      "v": 80
    },
    {
      "midi": 69,
      "hit": false,
      "t": 4782.853,
      "d": 53.125070833333666,
      "v": 96
    },
    {
      "midi": 76,
      "hit": false,
      "t": 4782.853,
      "d": 53.125070833333666,
      "v": 96
    },
    {
      "midi": 81,
      "hit": false,
      "t": 4782.853,
      "d": 53.125070833333666,
      "v": 96
    },
    {
      "midi": 44,
      "hit": false,
      "t": 4928.577999999997,
      "d": 203.12527083333316,
      "v": 80
    },
    {
      "midi": 51,
      "hit": false,
      "t": 4928.577999999997,
      "d": 203.12527083333316,
      "v": 80
    },
    {
      "midi": 54,
      "hit": false,
      "t": 4928.577999999997,
      "d": 203.12527083333316,
      "v": 80
    },
    {
      "midi": 57,
      "hit": false,
      "t": 4928.577999999997,
      "d": 203.12527083333316,
      "v": 80
    },
    {
      "midi": 59,
      "hit": false,
      "t": 4928.577999999997,
      "d": 203.12527083333316,
      "v": 80
    },
    {
      "midi": 69,
      "hit": false,
      "t": 5104.282,
      "d": 53.125070833333666,
      "v": 96
    },
    {
      "midi": 76,
      "hit": false,
      "t": 5104.282,
      "d": 53.125070833333666,
      "v": 96
    },
    {
      "midi": 81,
      "hit": false,
      "t": 5104.282,
      "d": 53.125070833333666,
      "v": 96
    },
    {
      "midi": 45,
      "hit": false,
      "t": 5142.863999999997,
      "d": 203.12527083333316,
      "v": 80
    },
    {
      "midi": 52,
      "hit": false,
      "t": 5357.149999999997,
      "d": 203.12527083333316,
      "v": 80
    },
    {
      "midi": 57,
      "hit": false,
      "t": 5357.149999999997,
      "d": 203.12527083333316,
      "v": 80
    },
    {
      "midi": 60,
      "hit": false,
      "t": 5357.149999999997,
      "d": 203.12527083333316,
      "v": 80
    },
    {
      "midi": 69,
      "hit": false,
      "t": 5425.711,
      "d": 813.8403708333335,
      "v": 96
    },
    {
      "midi": 76,
      "hit": false,
      "t": 5425.711,
      "d": 813.8403708333335,
      "v": 96
    },
    {
      "midi": 81,
      "hit": false,
      "t": 5425.711,
      "d": 813.8403708333335,
      "v": 96
    },
    {
      "midi": 40,
      "hit": false,
      "t": 5571.435999999997,
      "d": 203.12527083333316,
      "v": 80
    },
    {
      "midi": 52,
      "hit": false,
      "t": 5785.721999999997,
      "d": 203.12527083333316,
      "v": 80
    },
    {
      "midi": 57,
      "hit": false,
      "t": 5785.721999999997,
      "d": 203.12527083333316,
      "v": 80
    },
    {
      "midi": 60,
      "hit": false,
      "t": 5785.721999999997,
      "d": 203.12527083333316,
      "v": 80
    },
    {
      "midi": 45,
      "hit": false,
      "t": 6000.007999999997,
      "d": 203.12527083333316,
      "v": 80
    },
    {
      "midi": 52,
      "hit": false,
      "t": 6214.293999999997,
      "d": 203.12527083333316,
      "v": 80
    },
    {
      "midi": 57,
      "hit": false,
      "t": 6214.293999999997,
      "d": 203.12527083333316,
      "v": 80
    },
    {
      "midi": 60,
      "hit": false,
      "t": 6214.293999999997,
      "d": 203.12527083333316,
      "v": 80
    },
    {
      "midi": 40,
      "hit": false,
      "t": 6428.579999999997,
      "d": 203.12527083333316,
      "v": 80
    },
    {
      "midi": 69,
      "hit": false,
      "t": 6497.1410000000005,
      "d": 53.125070833333666,
      "v": 96
    },
    {
      "midi": 75,
      "hit": false,
      "t": 6497.1410000000005,
      "d": 53.125070833333666,
      "v": 96
    },
    {
      "midi": 81,
      "hit": false,
      "t": 6497.1410000000005,
      "d": 53.125070833333666,
      "v": 96
    },
    {
      "midi": 52,
      "hit": false,
      "t": 6642.865999999997,
      "d": 203.12527083333316,
      "v": 80
    },
    {
      "midi": 57,
      "hit": false,
      "t": 6642.865999999997,
      "d": 203.12527083333316,
      "v": 80
    },
    {
      "midi": 60,
      "hit": false,
      "t": 6642.865999999997,
      "d": 203.12527083333316,
      "v": 80
    },
    {
      "midi": 69,
      "hit": false,
      "t": 6818.570000000001,
      "d": 53.125070833333666,
      "v": 96
    },
    {
      "midi": 75,
      "hit": false,
      "t": 6818.570000000001,
      "d": 53.125070833333666,
      "v": 96
    },
    {
      "midi": 81,
      "hit": false,
      "t": 6818.570000000001,
      "d": 53.125070833333666,
      "v": 96
    },
    {
      "midi": 39,
      "hit": false,
      "t": 6857.151999999997,
      "d": 203.12527083333316,
      "v": 80
    },
    {
      "midi": 51,
      "hit": false,
      "t": 7071.437999999997,
      "d": 203.12527083333316,
      "v": 80
    },
    {
      "midi": 54,
      "hit": false,
      "t": 7071.437999999997,
      "d": 203.12527083333316,
      "v": 80
    },
    {
      "midi": 57,
      "hit": false,
      "t": 7071.437999999997,
      "d": 203.12527083333316,
      "v": 80
    },
    {
      "midi": 59,
      "hit": false,
      "t": 7071.437999999997,
      "d": 203.12527083333316,
      "v": 80
    },
    {
      "midi": 69,
      "hit": false,
      "t": 7139.999000000001,
      "d": 813.8403708333335,
      "v": 96
    },
    {
      "midi": 75,
      "hit": false,
      "t": 7139.999000000001,
      "d": 813.8403708333335,
      "v": 96
    },
    {
      "midi": 81,
      "hit": false,
      "t": 7139.999000000001,
      "d": 813.8403708333335,
      "v": 96
    },
    {
      "midi": 42,
      "hit": false,
      "t": 7285.723999999997,
      "d": 203.12527083333316,
      "v": 80
    },
    {
      "midi": 51,
      "hit": false,
      "t": 7500.0099999999975,
      "d": 203.12527083333316,
      "v": 80
    },
    {
      "midi": 54,
      "hit": false,
      "t": 7500.0099999999975,
      "d": 203.12527083333316,
      "v": 80
    },
    {
      "midi": 57,
      "hit": false,
      "t": 7500.0099999999975,
      "d": 203.12527083333316,
      "v": 80
    },
    {
      "midi": 59,
      "hit": false,
      "t": 7500.0099999999975,
      "d": 203.12527083333316,
      "v": 80
    },
    {
      "midi": 39,
      "hit": false,
      "t": 7714.295999999998,
      "d": 203.12527083333316,
      "v": 80
    },
    {
      "midi": 51,
      "hit": false,
      "t": 7928.581999999998,
      "d": 203.12527083333316,
      "v": 80
    },
    {
      "midi": 54,
      "hit": false,
      "t": 7928.581999999998,
      "d": 203.12527083333316,
      "v": 80
    },
    {
      "midi": 57,
      "hit": false,
      "t": 7928.581999999998,
      "d": 203.12527083333316,
      "v": 80
    },
    {
      "midi": 59,
      "hit": false,
      "t": 7928.581999999998,
      "d": 203.12527083333316,
      "v": 80
    },
    {
      "midi": 39,
      "hit": false,
      "t": 8142.867999999998,
      "d": 203.12527083333316,
      "v": 80
    },
    {
      "midi": 69,
      "hit": false,
      "t": 8211.429,
      "d": 53.125070833333666,
      "v": 96
    },
    {
      "midi": 76,
      "hit": false,
      "t": 8211.429,
      "d": 53.125070833333666,
      "v": 96
    },
    {
      "midi": 81,
      "hit": false,
      "t": 8211.429,
      "d": 53.125070833333666,
      "v": 96
    },
    {
      "midi": 44,
      "hit": false,
      "t": 8357.153999999997,
      "d": 203.12527083333407,
      "v": 80
    },
    {
      "midi": 51,
      "hit": false,
      "t": 8357.153999999997,
      "d": 203.12527083333407,
      "v": 80
    },
    {
      "midi": 54,
      "hit": false,
      "t": 8357.153999999997,
      "d": 203.12527083333407,
      "v": 80
    },
    {
      "midi": 57,
      "hit": false,
      "t": 8357.153999999997,
      "d": 203.12527083333407,
      "v": 80
    },
    {
      "midi": 59,
      "hit": false,
      "t": 8357.153999999997,
      "d": 203.12527083333407,
      "v": 80
    },
    {
      "midi": 69,
      "hit": false,
      "t": 8532.858,
      "d": 53.125070833333666,
      "v": 96
    },
    {
      "midi": 76,
      "hit": false,
      "t": 8532.858,
      "d": 53.125070833333666,
      "v": 96
    },
    {
      "midi": 81,
      "hit": false,
      "t": 8532.858,
      "d": 53.125070833333666,
      "v": 96
    },
    {
      "midi": 45,
      "hit": false,
      "t": 8571.439999999997,
      "d": 203.12527083333407,
      "v": 80
    },
    {
      "midi": 52,
      "hit": false,
      "t": 8785.725999999997,
      "d": 203.12527083333407,
      "v": 80
    },
    {
      "midi": 57,
      "hit": false,
      "t": 8785.725999999997,
      "d": 203.12527083333407,
      "v": 80
    },
    {
      "midi": 60,
      "hit": false,
      "t": 8785.725999999997,
      "d": 203.12527083333407,
      "v": 80
    },
    {
      "midi": 69,
      "hit": false,
      "t": 8854.287,
      "d": 813.8403708333335,
      "v": 96
    },
    {
      "midi": 76,
      "hit": false,
      "t": 8854.287,
      "d": 813.8403708333335,
      "v": 96
    },
    {
      "midi": 81,
      "hit": false,
      "t": 8854.287,
      "d": 813.8403708333335,
      "v": 96
    },
    {
      "midi": 40,
      "hit": false,
      "t": 9000.011999999997,
      "d": 203.12527083333407,
      "v": 80
    },
    {
      "midi": 52,
      "hit": false,
      "t": 9214.297999999997,
      "d": 203.12527083333407,
      "v": 80
    },
    {
      "midi": 57,
      "hit": false,
      "t": 9214.297999999997,
      "d": 203.12527083333407,
      "v": 80
    },
    {
      "midi": 60,
      "hit": false,
      "t": 9214.297999999997,
      "d": 203.12527083333407,
      "v": 80
    },
    {
      "midi": 45,
      "hit": false,
      "t": 9428.583999999997,
      "d": 203.12527083333407,
      "v": 80
    },
    {
      "midi": 52,
      "hit": false,
      "t": 9642.869999999997,
      "d": 203.12527083333407,
      "v": 80
    },
    {
      "midi": 57,
      "hit": false,
      "t": 9642.869999999997,
      "d": 203.12527083333407,
      "v": 80
    },
    {
      "midi": 60,
      "hit": false,
      "t": 9642.869999999997,
      "d": 203.12527083333407,
      "v": 80
    },
    {
      "midi": 40,
      "hit": false,
      "t": 9857.155999999997,
      "d": 203.12527083333407,
      "v": 80
    },
    {
      "midi": 69,
      "hit": false,
      "t": 9925.717,
      "d": 53.125070833333666,
      "v": 96
    },
    {
      "midi": 75,
      "hit": false,
      "t": 9925.717,
      "d": 53.125070833333666,
      "v": 96
    },
    {
      "midi": 81,
      "hit": false,
      "t": 9925.717,
      "d": 53.125070833333666,
      "v": 96
    },
    {
      "midi": 52,
      "hit": false,
      "t": 10071.441999999997,
      "d": 203.12527083333407,
      "v": 80
    },
    {
      "midi": 57,
      "hit": false,
      "t": 10071.441999999997,
      "d": 203.12527083333407,
      "v": 80
    },
    {
      "midi": 60,
      "hit": false,
      "t": 10071.441999999997,
      "d": 203.12527083333407,
      "v": 80
    },
    {
      "midi": 69,
      "hit": false,
      "t": 10247.146,
      "d": 53.125070833333666,
      "v": 96
    },
    {
      "midi": 75,
      "hit": false,
      "t": 10247.146,
      "d": 53.125070833333666,
      "v": 96
    },
    {
      "midi": 81,
      "hit": false,
      "t": 10247.146,
      "d": 53.125070833333666,
      "v": 96
    },
    {
      "midi": 47,
      "hit": false,
      "t": 10285.727999999997,
      "d": 203.12527083333407,
      "v": 80
    },
    {
      "midi": 52,
      "hit": false,
      "t": 10500.013999999997,
      "d": 203.12527083333407,
      "v": 80
    },
    {
      "midi": 56,
      "hit": false,
      "t": 10500.013999999997,
      "d": 203.12527083333407,
      "v": 80
    },
    {
      "midi": 59,
      "hit": false,
      "t": 10500.013999999997,
      "d": 203.12527083333407,
      "v": 80
    },
    {
      "midi": 62,
      "hit": false,
      "t": 10500.013999999997,
      "d": 203.12527083333407,
      "v": 80
    },
    {
      "midi": 69,
      "hit": false,
      "t": 10568.575,
      "d": 813.8403708333335,
      "v": 96
    },
    {
      "midi": 75,
      "hit": false,
      "t": 10568.575,
      "d": 813.8403708333335,
      "v": 96
    },
    {
      "midi": 81,
      "hit": false,
      "t": 10568.575,
      "d": 813.8403708333335,
      "v": 96
    },
    {
      "midi": 40,
      "hit": false,
      "t": 10714.299999999997,
      "d": 203.12527083333407,
      "v": 80
    },
    {
      "midi": 52,
      "hit": false,
      "t": 10928.585999999998,
      "d": 203.12527083333407,
      "v": 80
    },
    {
      "midi": 56,
      "hit": false,
      "t": 10928.585999999998,
      "d": 203.12527083333407,
      "v": 80
    },
    {
      "midi": 59,
      "hit": false,
      "t": 10928.585999999998,
      "d": 203.12527083333407,
      "v": 80
    },
    {
      "midi": 62,
      "hit": false,
      "t": 10928.585999999998,
      "d": 203.12527083333407,
      "v": 80
    },
    {
      "midi": 47,
      "hit": false,
      "t": 11142.871999999998,
      "d": 203.12527083333407,
      "v": 80
    },
    {
      "midi": 52,
      "hit": false,
      "t": 11357.157999999998,
      "d": 203.12527083333407,
      "v": 80
    },
    {
      "midi": 56,
      "hit": false,
      "t": 11357.157999999998,
      "d": 203.12527083333407,
      "v": 80
    },
    {
      "midi": 59,
      "hit": false,
      "t": 11357.157999999998,
      "d": 203.12527083333407,
      "v": 80
    },
    {
      "midi": 62,
      "hit": false,
      "t": 11357.157999999998,
      "d": 203.12527083333407,
      "v": 80
    },
    {
      "midi": 47,
      "hit": false,
      "t": 11571.443999999998,
      "d": 203.12527083333407,
      "v": 80
    },
    {
      "midi": 76,
      "hit": false,
      "t": 11640.005000000001,
      "d": 428.12557083333377,
      "v": 115
    },
    {
      "midi": 88,
      "hit": false,
      "t": 11640.005000000001,
      "d": 428.12557083333377,
      "v": 115
    },
    {
      "midi": 44,
      "hit": false,
      "t": 11785.729999999998,
      "d": 203.12527083333407,
      "v": 80
    },
    {
      "midi": 52,
      "hit": false,
      "t": 11785.729999999998,
      "d": 203.12527083333407,
      "v": 80
    },
    {
      "midi": 56,
      "hit": false,
      "t": 11785.729999999998,
      "d": 203.12527083333407,
      "v": 80
    },
    {
      "midi": 59,
      "hit": false,
      "t": 11785.729999999998,
      "d": 203.12527083333407,
      "v": 80
    },
    {
      "midi": 62,
      "hit": false,
      "t": 11785.729999999998,
      "d": 203.12527083333407,
      "v": 80
    },
    {
      "midi": 45,
      "hit": false,
      "t": 12000.015999999998,
      "d": 203.12527083333407,
      "v": 80
    },
    {
      "midi": 75,
      "hit": false,
      "t": 12068.577000000001,
      "d": 106.69657083333368,
      "v": 96
    },
    {
      "midi": 87,
      "hit": false,
      "t": 12068.577000000001,
      "d": 106.69657083333368,
      "v": 96
    },
    {
      "midi": 52,
      "hit": false,
      "t": 12214.301999999998,
      "d": 203.12527083333407,
      "v": 80
    },
    {
      "midi": 57,
      "hit": false,
      "t": 12214.301999999998,
      "d": 203.12527083333407,
      "v": 80
    },
    {
      "midi": 60,
      "hit": false,
      "t": 12214.301999999998,
      "d": 203.12527083333407,
      "v": 80
    },
    {
      "midi": 71,
      "hit": false,
      "t": 12282.863000000001,
      "d": 101.33942083333386,
      "v": 96
    },
    {
      "midi": 83,
      "hit": false,
      "t": 12282.863000000001,
      "d": 101.33942083333386,
      "v": 96
    },
    {
      "midi": 72,
      "hit": false,
      "t": 12390.006000000001,
      "d": 106.69657083333368,
      "v": 96
    },
    {
      "midi": 84,
      "hit": false,
      "t": 12390.006000000001,
      "d": 106.69657083333368,
      "v": 96
    },
    {
      "midi": 40,
      "hit": false,
      "t": 12428.587999999998,
      "d": 203.12527083333407,
      "v": 80
    },
    {
      "midi": 69,
      "hit": false,
      "t": 12604.292000000001,
      "d": 508.4828208333329,
      "v": 96
    },
    {
      "midi": 76,
      "hit": false,
      "t": 12604.292000000001,
      "d": 508.4828208333329,
      "v": 96
    },
    {
      "midi": 81,
      "hit": false,
      "t": 12604.292000000001,
      "d": 508.4828208333329,
      "v": 96
    },
    {
      "midi": 52,
      "hit": false,
      "t": 12642.873999999998,
      "d": 203.12527083333407,
      "v": 80
    },
    {
      "midi": 57,
      "hit": false,
      "t": 12642.873999999998,
      "d": 203.12527083333407,
      "v": 80
    },
    {
      "midi": 60,
      "hit": false,
      "t": 12642.873999999998,
      "d": 203.12527083333407,
      "v": 80
    },
    {
      "midi": 45,
      "hit": false,
      "t": 12857.159999999998,
      "d": 203.12527083333407,
      "v": 80
    },
    {
      "midi": 52,
      "hit": false,
      "t": 13071.445999999998,
      "d": 203.12527083333407,
      "v": 80
    },
    {
      "midi": 57,
      "hit": false,
      "t": 13071.445999999998,
      "d": 203.12527083333407,
      "v": 80
    },
    {
      "midi": 60,
      "hit": false,
      "t": 13071.445999999998,
      "d": 203.12527083333407,
      "v": 80
    },
    {
      "midi": 71,
      "hit": false,
      "t": 13140.007000000001,
      "d": 101.33942083333386,
      "v": 96
    },
    {
      "midi": 76,
      "hit": false,
      "t": 13140.007000000001,
      "d": 101.33942083333386,
      "v": 96
    },
    {
      "midi": 83,
      "hit": false,
      "t": 13140.007000000001,
      "d": 101.33942083333386,
      "v": 96
    },
    {
      "midi": 71,
      "hit": false,
      "t": 13247.150000000001,
      "d": 101.33942083333386,
      "v": 96
    },
    {
      "midi": 76,
      "hit": false,
      "t": 13247.150000000001,
      "d": 101.33942083333386,
      "v": 96
    },
    {
      "midi": 83,
      "hit": false,
      "t": 13247.150000000001,
      "d": 101.33942083333386,
      "v": 96
    },
    {
      "midi": 40,
      "hit": false,
      "t": 13285.731999999998,
      "d": 203.12527083333407,
      "v": 80
    },
    {
      "midi": 71,
      "hit": false,
      "t": 13354.293000000001,
      "d": 304.91112083333246,
      "v": 96
    },
    {
      "midi": 76,
      "hit": false,
      "t": 13354.293000000001,
      "d": 304.91112083333246,
      "v": 96
    },
    {
      "midi": 83,
      "hit": false,
      "t": 13354.293000000001,
      "d": 304.91112083333246,
      "v": 96
    },
    {
      "midi": 52,
      "hit": false,
      "t": 13500.017999999998,
      "d": 203.12527083333407,
      "v": 80
    },
    {
      "midi": 57,
      "hit": false,
      "t": 13500.017999999998,
      "d": 203.12527083333407,
      "v": 80
    },
    {
      "midi": 60,
      "hit": false,
      "t": 13500.017999999998,
      "d": 203.12527083333407,
      "v": 80
    },
    {
      "midi": 66,
      "hit": false,
      "t": 13675.722,
      "d": 106.69657083333368,
      "v": 96
    },
    {
      "midi": 78,
      "hit": false,
      "t": 13675.722,
      "d": 106.69657083333368,
      "v": 96
    },
    {
      "midi": 47,
      "hit": false,
      "t": 13714.303999999998,
      "d": 203.12527083333407,
      "v": 80
    },
    {
      "midi": 65,
      "hit": false,
      "t": 13890.008,
      "d": 101.33942083333386,
      "v": 96
    },
    {
      "midi": 77,
      "hit": false,
      "t": 13890.008,
      "d": 101.33942083333386,
      "v": 96
    },
    {
      "midi": 52,
      "hit": false,
      "t": 13928.589999999998,
      "d": 203.12527083333407,
      "v": 80
    },
    {
      "midi": 56,
      "hit": false,
      "t": 13928.589999999998,
      "d": 203.12527083333407,
      "v": 80
    },
    {
      "midi": 59,
      "hit": false,
      "t": 13928.589999999998,
      "d": 203.12527083333407,
      "v": 80
    },
    {
      "midi": 62,
      "hit": false,
      "t": 13928.589999999998,
      "d": 203.12527083333407,
      "v": 80
    },
    {
      "midi": 64,
      "hit": false,
      "t": 13997.151,
      "d": 406.69697083333267,
      "v": 96
    },
    {
      "midi": 76,
      "hit": false,
      "t": 13997.151,
      "d": 406.69697083333267,
      "v": 96
    },
    {
      "midi": 83,
      "hit": false,
      "t": 13997.151,
      "d": 406.69697083333267,
      "v": 96
    },
    {
      "midi": 40,
      "hit": false,
      "t": 14142.875999999998,
      "d": 203.12527083333407,
      "v": 80
    },
    {
      "midi": 52,
      "hit": false,
      "t": 14357.161999999998,
      "d": 203.12527083333407,
      "v": 80
    },
    {
      "midi": 56,
      "hit": false,
      "t": 14357.161999999998,
      "d": 203.12527083333407,
      "v": 80
    },
    {
      "midi": 59,
      "hit": false,
      "t": 14357.161999999998,
      "d": 203.12527083333407,
      "v": 80
    },
    {
      "midi": 62,
      "hit": false,
      "t": 14357.161999999998,
      "d": 203.12527083333407,
      "v": 80
    },
    {
      "midi": 65,
      "hit": false,
      "t": 14425.723,
      "d": 203.12527083333407,
      "v": 96
    },
    {
      "midi": 77,
      "hit": false,
      "t": 14425.723,
      "d": 203.12527083333407,
      "v": 96
    },
    {
      "midi": 47,
      "hit": false,
      "t": 14571.447999999999,
      "d": 203.12527083333407,
      "v": 80
    },
    {
      "midi": 68,
      "hit": false,
      "t": 14640.009,
      "d": 203.12527083333407,
      "v": 96
    },
    {
      "midi": 80,
      "hit": false,
      "t": 14640.009,
      "d": 203.12527083333407,
      "v": 96
    },
    {
      "midi": 52,
      "hit": false,
      "t": 14785.733999999999,
      "d": 203.12527083333407,
      "v": 80
    },
    {
      "midi": 56,
      "hit": false,
      "t": 14785.733999999999,
      "d": 203.12527083333407,
      "v": 80
    },
    {
      "midi": 59,
      "hit": false,
      "t": 14785.733999999999,
      "d": 203.12527083333407,
      "v": 80
    },
    {
      "midi": 62,
      "hit": false,
      "t": 14785.733999999999,
      "d": 203.12527083333407,
      "v": 80
    },
    {
      "midi": 47,
      "hit": false,
      "t": 15000.019999999999,
      "d": 203.12527083333407,
      "v": 80
    },
    {
      "midi": 76,
      "hit": false,
      "t": 15068.581,
      "d": 428.12557083333377,
      "v": 115
    },
    {
      "midi": 88,
      "hit": false,
      "t": 15068.581,
      "d": 428.12557083333377,
      "v": 115
    },
    {
      "midi": 44,
      "hit": false,
      "t": 15214.305999999999,
      "d": 203.12527083333407,
      "v": 80
    },
    {
      "midi": 52,
      "hit": false,
      "t": 15214.305999999999,
      "d": 203.12527083333407,
      "v": 80
    },
    {
      "midi": 56,
      "hit": false,
      "t": 15214.305999999999,
      "d": 203.12527083333407,
      "v": 80
    },
    {
      "midi": 59,
      "hit": false,
      "t": 15214.305999999999,
      "d": 203.12527083333407,
      "v": 80
    },
    {
      "midi": 62,
      "hit": false,
      "t": 15214.305999999999,
      "d": 203.12527083333407,
      "v": 80
    },
    {
      "midi": 45,
      "hit": false,
      "t": 15428.591999999999,
      "d": 203.12527083333407,
      "v": 80
    },
    {
      "midi": 75,
      "hit": false,
      "t": 15497.153,
      "d": 106.69657083333368,
      "v": 96
    },
    {
      "midi": 87,
      "hit": false,
      "t": 15497.153,
      "d": 106.69657083333368,
      "v": 96
    },
    {
      "midi": 52,
      "hit": false,
      "t": 15642.877999999999,
      "d": 203.12527083333407,
      "v": 80
    },
    {
      "midi": 57,
      "hit": false,
      "t": 15642.877999999999,
      "d": 203.12527083333407,
      "v": 80
    },
    {
      "midi": 60,
      "hit": false,
      "t": 15642.877999999999,
      "d": 203.12527083333407,
      "v": 80
    },
    {
      "midi": 71,
      "hit": false,
      "t": 15711.439,
      "d": 101.33942083333386,
      "v": 96
    },
    {
      "midi": 83,
      "hit": false,
      "t": 15711.439,
      "d": 101.33942083333386,
      "v": 96
    },
    {
      "midi": 72,
      "hit": false,
      "t": 15818.582,
      "d": 106.69657083333368,
      "v": 96
    },
    {
      "midi": 84,
      "hit": false,
      "t": 15818.582,
      "d": 106.69657083333368,
      "v": 96
    },
    {
      "midi": 40,
      "hit": false,
      "t": 15857.163999999999,
      "d": 203.12527083333407,
      "v": 80
    },
    {
      "midi": 69,
      "hit": false,
      "t": 16032.868,
      "d": 508.4828208333329,
      "v": 96
    },
    {
      "midi": 76,
      "hit": false,
      "t": 16032.868,
      "d": 508.4828208333329,
      "v": 96
    },
    {
      "midi": 81,
      "hit": false,
      "t": 16032.868,
      "d": 508.4828208333329,
      "v": 96
    },
    {
      "midi": 52,
      "hit": false,
      "t": 16071.449999999999,
      "d": 203.12527083333407,
      "v": 80
    },
    {
      "midi": 57,
      "hit": false,
      "t": 16071.449999999999,
      "d": 203.12527083333407,
      "v": 80
    },
    {
      "midi": 60,
      "hit": false,
      "t": 16071.449999999999,
      "d": 203.12527083333407,
      "v": 80
    },
    {
      "midi": 45,
      "hit": false,
      "t": 16285.735999999999,
      "d": 203.12527083333225,
      "v": 80
    },
    {
      "midi": 52,
      "hit": false,
      "t": 16500.021999999997,
      "d": 203.12527083333407,
      "v": 80
    },
    {
      "midi": 57,
      "hit": false,
      "t": 16500.021999999997,
      "d": 203.12527083333407,
      "v": 80
    },
    {
      "midi": 60,
      "hit": false,
      "t": 16500.021999999997,
      "d": 203.12527083333407,
      "v": 80
    },
    {
      "midi": 71,
      "hit": false,
      "t": 16568.583,
      "d": 101.33942083333386,
      "v": 96
    },
    {
      "midi": 76,
      "hit": false,
      "t": 16568.583,
      "d": 101.33942083333386,
      "v": 96
    },
    {
      "midi": 83,
      "hit": false,
      "t": 16568.583,
      "d": 101.33942083333386,
      "v": 96
    },
    {
      "midi": 70,
      "hit": false,
      "t": 16675.726,
      "d": 203.12527083333407,
      "v": 96
    },
    {
      "midi": 82,
      "hit": false,
      "t": 16675.726,
      "d": 203.12527083333407,
      "v": 96
    },
    {
      "midi": 40,
      "hit": false,
      "t": 16714.307999999997,
      "d": 203.12527083333407,
      "v": 80
    },
    {
      "midi": 71,
      "hit": false,
      "t": 16890.012,
      "d": 304.9111208333343,
      "v": 96
    },
    {
      "midi": 76,
      "hit": false,
      "t": 16890.012,
      "d": 304.9111208333343,
      "v": 96
    },
    {
      "midi": 83,
      "hit": false,
      "t": 16890.012,
      "d": 304.9111208333343,
      "v": 96
    },
    {
      "midi": 52,
      "hit": false,
      "t": 16928.593999999997,
      "d": 203.12527083333407,
      "v": 80
    },
    {
      "midi": 57,
      "hit": false,
      "t": 16928.593999999997,
      "d": 203.12527083333407,
      "v": 80
    },
    {
      "midi": 60,
      "hit": false,
      "t": 16928.593999999997,
      "d": 203.12527083333407,
      "v": 80
    },
    {
      "midi": 40,
      "hit": false,
      "t": 17142.879999999997,
      "d": 203.12527083333407,
      "v": 80
    },
    {
      "midi": 65,
      "hit": false,
      "t": 17354.298333333332,
      "d": 67.41080416666591,
      "v": 96
    },
    {
      "midi": 77,
      "hit": false,
      "t": 17354.298333333332,
      "d": 67.41080416666591,
      "v": 96
    },
    {
      "midi": 52,
      "hit": false,
      "t": 17357.165999999997,
      "d": 203.12527083333407,
      "v": 80
    },
    {
      "midi": 56,
      "hit": false,
      "t": 17357.165999999997,
      "d": 203.12527083333407,
      "v": 80
    },
    {
      "midi": 59,
      "hit": false,
      "t": 17357.165999999997,
      "d": 203.12527083333407,
      "v": 80
    },
    {
      "midi": 62,
      "hit": false,
      "t": 17357.165999999997,
      "d": 203.12527083333407,
      "v": 80
    },
    {
      "midi": 64,
      "hit": false,
      "t": 17425.727,
      "d": 101.33942083333386,
      "v": 96
    },
    {
      "midi": 76,
      "hit": false,
      "t": 17425.727,
      "d": 101.33942083333386,
      "v": 96
    },
    {
      "midi": 74,
      "hit": false,
      "t": 17532.87,
      "d": 106.69657083333368,
      "v": 115
    },
    {
      "midi": 80,
      "hit": false,
      "t": 17532.87,
      "d": 106.69657083333368,
      "v": 115
    },
    {
      "midi": 86,
      "hit": false,
      "t": 17532.87,
      "d": 106.69657083333368,
      "v": 115
    },
    {
      "midi": 47,
      "hit": false,
      "t": 17571.451999999997,
      "d": 203.12527083333407,
      "v": 80
    },
    {
      "midi": 72,
      "hit": false,
      "t": 17747.156,
      "d": 106.69657083333368,
      "v": 115
    },
    {
      "midi": 80,
      "hit": false,
      "t": 17747.156,
      "d": 106.69657083333368,
      "v": 115
    },
    {
      "midi": 84,
      "hit": false,
      "t": 17747.156,
      "d": 106.69657083333368,
      "v": 115
    },
    {
      "midi": 52,
      "hit": false,
      "t": 17785.737999999998,
      "d": 203.12527083333407,
      "v": 80
    },
    {
      "midi": 56,
      "hit": false,
      "t": 17785.737999999998,
      "d": 203.12527083333407,
      "v": 80
    },
    {
      "midi": 59,
      "hit": false,
      "t": 17785.737999999998,
      "d": 203.12527083333407,
      "v": 80
    },
    {
      "midi": 62,
      "hit": false,
      "t": 17785.737999999998,
      "d": 203.12527083333407,
      "v": 80
    },
    {
      "midi": 71,
      "hit": false,
      "t": 17961.442,
      "d": 315.6254208333339,
      "v": 115
    },
    {
      "midi": 77,
      "hit": false,
      "t": 17961.442,
      "d": 315.6254208333339,
      "v": 115
    },
    {
      "midi": 83,
      "hit": false,
      "t": 17961.442,
      "d": 315.6254208333339,
      "v": 115
    },
    {
      "midi": 40,
      "hit": false,
      "t": 18000.023999999998,
      "d": 203.12527083333407,
      "v": 80
    },
    {
      "midi": 52,
      "hit": false,
      "t": 18214.309999999998,
      "d": 203.12527083333407,
      "v": 80
    },
    {
      "midi": 56,
      "hit": false,
      "t": 18214.309999999998,
      "d": 203.12527083333407,
      "v": 80
    },
    {
      "midi": 59,
      "hit": false,
      "t": 18214.309999999998,
      "d": 203.12527083333407,
      "v": 80
    },
    {
      "midi": 62,
      "hit": false,
      "t": 18214.309999999998,
      "d": 203.12527083333407,
      "v": 80
    },
    {
      "midi": 47,
      "hit": false,
      "t": 18428.595999999998,
      "d": 203.12527083333407,
      "v": 80
    },
    {
      "midi": 76,
      "hit": false,
      "t": 18497.157,
      "d": 428.12557083333377,
      "v": 115
    },
    {
      "midi": 88,
      "hit": false,
      "t": 18497.157,
      "d": 428.12557083333377,
      "v": 115
    },
    {
      "midi": 44,
      "hit": false,
      "t": 18642.881999999998,
      "d": 203.12527083333407,
      "v": 80
    },
    {
      "midi": 52,
      "hit": false,
      "t": 18642.881999999998,
      "d": 203.12527083333407,
      "v": 80
    },
    {
      "midi": 56,
      "hit": false,
      "t": 18642.881999999998,
      "d": 203.12527083333407,
      "v": 80
    },
    {
      "midi": 59,
      "hit": false,
      "t": 18642.881999999998,
      "d": 203.12527083333407,
      "v": 80
    },
    {
      "midi": 62,
      "hit": false,
      "t": 18642.881999999998,
      "d": 203.12527083333407,
      "v": 80
    },
    {
      "midi": 45,
      "hit": false,
      "t": 18857.167999999998,
      "d": 203.12527083333407,
      "v": 80
    },
    {
      "midi": 75,
      "hit": false,
      "t": 18925.729,
      "d": 106.69657083333368,
      "v": 96
    },
    {
      "midi": 87,
      "hit": false,
      "t": 18925.729,
      "d": 106.69657083333368,
      "v": 96
    },
    {
      "midi": 52,
      "hit": false,
      "t": 19071.453999999998,
      "d": 203.12527083333407,
      "v": 80
    },
    {
      "midi": 57,
      "hit": false,
      "t": 19071.453999999998,
      "d": 203.12527083333407,
      "v": 80
    },
    {
      "midi": 60,
      "hit": false,
      "t": 19071.453999999998,
      "d": 203.12527083333407,
      "v": 80
    },
    {
      "midi": 71,
      "hit": false,
      "t": 19140.015,
      "d": 101.33942083333386,
      "v": 96
    },
    {
      "midi": 83,
      "hit": false,
      "t": 19140.015,
      "d": 101.33942083333386,
      "v": 96
    },
    {
      "midi": 72,
      "hit": false,
      "t": 19247.158,
      "d": 106.69657083333368,
      "v": 96
    },
    {
      "midi": 84,
      "hit": false,
      "t": 19247.158,
      "d": 106.69657083333368,
      "v": 96
    },
    {
      "midi": 40,
      "hit": false,
      "t": 19285.739999999998,
      "d": 203.12527083333407,
      "v": 80
    },
    {
      "midi": 69,
      "hit": false,
      "t": 19461.444,
      "d": 508.4828208333347,
      "v": 96
    },
    {
      "midi": 76,
      "hit": false,
      "t": 19461.444,
      "d": 508.4828208333347,
      "v": 96
    },
    {
      "midi": 81,
      "hit": false,
      "t": 19461.444,
      "d": 508.4828208333347,
      "v": 96
    },
    {
      "midi": 52,
      "hit": false,
      "t": 19500.025999999998,
      "d": 203.12527083333407,
      "v": 80
    },
    {
      "midi": 57,
      "hit": false,
      "t": 19500.025999999998,
      "d": 203.12527083333407,
      "v": 80
    },
    {
      "midi": 60,
      "hit": false,
      "t": 19500.025999999998,
      "d": 203.12527083333407,
      "v": 80
    },
    {
      "midi": 45,
      "hit": false,
      "t": 19714.311999999998,
      "d": 203.12527083333407,
      "v": 80
    },
    {
      "midi": 52,
      "hit": false,
      "t": 19928.597999999998,
      "d": 203.12527083333407,
      "v": 80
    },
    {
      "midi": 57,
      "hit": false,
      "t": 19928.597999999998,
      "d": 203.12527083333407,
      "v": 80
    },
    {
      "midi": 60,
      "hit": false,
      "t": 19928.597999999998,
      "d": 203.12527083333407,
      "v": 80
    },
    {
      "midi": 71,
      "hit": false,
      "t": 19997.159,
      "d": 101.33942083333386,
      "v": 96
    },
    {
      "midi": 76,
      "hit": false,
      "t": 19997.159,
      "d": 101.33942083333386,
      "v": 96
    },
    {
      "midi": 83,
      "hit": false,
      "t": 19997.159,
      "d": 101.33942083333386,
      "v": 96
    },
    {
      "midi": 71,
      "hit": false,
      "t": 20104.302,
      "d": 106.69657083333368,
      "v": 96
    },
    {
      "midi": 76,
      "hit": false,
      "t": 20104.302,
      "d": 106.69657083333368,
      "v": 96
    },
    {
      "midi": 83,
      "hit": false,
      "t": 20104.302,
      "d": 106.69657083333368,
      "v": 96
    },
    {
      "midi": 40,
      "hit": false,
      "t": 20142.884,
      "d": 203.12527083333407,
      "v": 80
    },
    {
      "midi": 41,
      "hit": false,
      "t": 20357.17,
      "d": 203.12527083333407,
      "v": 80
    },
    {
      "midi": 52,
      "hit": false,
      "t": 20357.17,
      "d": 203.12527083333407,
      "v": 80
    },
    {
      "midi": 57,
      "hit": false,
      "t": 20357.17,
      "d": 203.12527083333407,
      "v": 80
    },
    {
      "midi": 60,
      "hit": false,
      "t": 20357.17,
      "d": 203.12527083333407,
      "v": 80
    },
    {
      "midi": 71,
      "hit": false,
      "t": 20425.731,
      "d": 203.12527083333407,
      "v": 96
    },
    {
      "midi": 76,
      "hit": false,
      "t": 20425.731,
      "d": 203.12527083333407,
      "v": 96
    },
    {
      "midi": 83,
      "hit": false,
      "t": 20425.731,
      "d": 203.12527083333407,
      "v": 96
    },
    {
      "midi": 40,
      "hit": false,
      "t": 20571.456,
      "d": 106.69657083333368,
      "v": 96
    },
    {
      "midi": 52,
      "hit": false,
      "t": 20571.456,
      "d": 106.69657083333368,
      "v": 96
    },
    {
      "midi": 56,
      "hit": false,
      "t": 20571.456,
      "d": 106.69657083333368,
      "v": 96
    },
    {
      "midi": 59,
      "hit": false,
      "t": 20571.456,
      "d": 106.69657083333368,
      "v": 96
    },
    {
      "midi": 62,
      "hit": false,
      "t": 20571.456,
      "d": 106.69657083333368,
      "v": 96
    },
    {
      "midi": 65,
      "hit": false,
      "t": 20747.16,
      "d": 101.33942083333386,
      "v": 96
    },
    {
      "midi": 77,
      "hit": false,
      "t": 20747.16,
      "d": 101.33942083333386,
      "v": 96
    },
    {
      "midi": 40,
      "hit": false,
      "t": 20785.742,
      "d": 642.4115708333338,
      "v": 96
    },
    {
      "midi": 52,
      "hit": false,
      "t": 20785.742,
      "d": 642.4115708333338,
      "v": 96
    },
    {
      "midi": 56,
      "hit": false,
      "t": 20785.742,
      "d": 642.4115708333338,
      "v": 96
    },
    {
      "midi": 59,
      "hit": false,
      "t": 20785.742,
      "d": 642.4115708333338,
      "v": 96
    },
    {
      "midi": 62,
      "hit": false,
      "t": 20785.742,
      "d": 642.4115708333338,
      "v": 96
    },
    {
      "midi": 64,
      "hit": false,
      "t": 20854.303,
      "d": 406.6969708333345,
      "v": 96
    },
    {
      "midi": 76,
      "hit": false,
      "t": 20854.303,
      "d": 406.6969708333345,
      "v": 96
    },
    {
      "midi": 83,
      "hit": false,
      "t": 20854.303,
      "d": 406.6969708333345,
      "v": 96
    },
    {
      "midi": 65,
      "hit": false,
      "t": 21282.875,
      "d": 106.69657083333368,
      "v": 96
    },
    {
      "midi": 71,
      "hit": false,
      "t": 21282.875,
      "d": 106.69657083333368,
      "v": 96
    },
    {
      "midi": 77,
      "hit": false,
      "t": 21282.875,
      "d": 106.69657083333368,
      "v": 96
    },
    {
      "midi": 68,
      "hit": false,
      "t": 21497.161,
      "d": 106.69657083333368,
      "v": 96
    },
    {
      "midi": 80,
      "hit": false,
      "t": 21497.161,
      "d": 106.69657083333368,
      "v": 96
    },
    {
      "midi": 52,
      "hit": false,
      "t": 21535.743,
      "d": 101.33942083333386,
      "v": 80
    },
    {
      "midi": 51,
      "hit": false,
      "t": 21642.886,
      "d": 101.33942083333386,
      "v": 80
    },
    {
      "midi": 69,
      "hit": false,
      "t": 21711.447,
      "d": 101.33942083333386,
      "v": 96
    },
    {
      "midi": 81,
      "hit": false,
      "t": 21711.447,
      "d": 101.33942083333386,
      "v": 96
    },
    {
      "midi": 50,
      "hit": false,
      "t": 21750.029,
      "d": 101.33942083333386,
      "v": 80
    },
    {
      "midi": 66,
      "hit": false,
      "t": 21818.59,
      "d": 101.33942083333386,
      "v": 96
    },
    {
      "midi": 78,
      "hit": false,
      "t": 21818.59,
      "d": 101.33942083333386,
      "v": 96
    },
    {
      "midi": 49,
      "hit": false,
      "t": 21857.172,
      "d": 101.33942083333386,
      "v": 80
    },
    {
      "midi": 67,
      "hit": false,
      "t": 21925.733,
      "d": 101.33942083333386,
      "v": 96
    },
    {
      "midi": 79,
      "hit": false,
      "t": 21925.733,
      "d": 101.33942083333386,
      "v": 96
    },
    {
      "midi": 48,
      "hit": false,
      "t": 21964.315,
      "d": 101.33942083333386,
      "v": 80
    },
    {
      "midi": 69,
      "hit": false,
      "t": 22032.876,
      "d": 106.69657083333368,
      "v": 96
    },
    {
      "midi": 81,
      "hit": false,
      "t": 22032.876,
      "d": 106.69657083333368,
      "v": 96
    },
    {
      "midi": 47,
      "hit": false,
      "t": 22071.458,
      "d": 101.33942083333386,
      "v": 80
    },
    {
      "midi": 46,
      "hit": false,
      "t": 22178.601,
      "d": 101.33942083333386,
      "v": 80
    },
    {
      "midi": 66,
      "hit": false,
      "t": 22247.162,
      "d": 106.69657083333368,
      "v": 96
    },
    {
      "midi": 78,
      "hit": false,
      "t": 22247.162,
      "d": 106.69657083333368,
      "v": 96
    },
    {
      "midi": 45,
      "hit": false,
      "t": 22285.744,
      "d": 203.12527083333407,
      "v": 80
    },
    {
      "midi": 67,
      "hit": false,
      "t": 22461.448,
      "d": 101.33942083333386,
      "v": 96
    },
    {
      "midi": 79,
      "hit": false,
      "t": 22461.448,
      "d": 101.33942083333386,
      "v": 96
    },
    {
      "midi": 52,
      "hit": false,
      "t": 22500.03,
      "d": 203.12527083333407,
      "v": 80
    },
    {
      "midi": 57,
      "hit": false,
      "t": 22500.03,
      "d": 203.12527083333407,
      "v": 80
    },
    {
      "midi": 60,
      "hit": false,
      "t": 22500.03,
      "d": 203.12527083333407,
      "v": 80
    },
    {
      "midi": 69,
      "hit": false,
      "t": 22568.591,
      "d": 101.33942083333386,
      "v": 96
    },
    {
      "midi": 81,
      "hit": false,
      "t": 22568.591,
      "d": 101.33942083333386,
      "v": 96
    },
    {
      "midi": 66,
      "hit": false,
      "t": 22675.734,
      "d": 101.33942083333386,
      "v": 96
    },
    {
      "midi": 78,
      "hit": false,
      "t": 22675.734,
      "d": 101.33942083333386,
      "v": 96
    },
    {
      "midi": 40,
      "hit": false,
      "t": 22714.316,
      "d": 203.12527083333407,
      "v": 80
    },
    {
      "midi": 67,
      "hit": false,
      "t": 22782.877,
      "d": 101.33942083333386,
      "v": 96
    },
    {
      "midi": 79,
      "hit": false,
      "t": 22782.877,
      "d": 101.33942083333386,
      "v": 96
    },
    {
      "midi": 69,
      "hit": false,
      "t": 22890.02,
      "d": 106.69657083333368,
      "v": 96
    },
    {
      "midi": 81,
      "hit": false,
      "t": 22890.02,
      "d": 106.69657083333368,
      "v": 96
    },
    {
      "midi": 52,
      "hit": false,
      "t": 22928.602,
      "d": 203.12527083333407,
      "v": 80
    },
    {
      "midi": 57,
      "hit": false,
      "t": 22928.602,
      "d": 203.12527083333407,
      "v": 80
    },
    {
      "midi": 60,
      "hit": false,
      "t": 22928.602,
      "d": 203.12527083333407,
      "v": 80
    },
    {
      "midi": 69,
      "hit": false,
      "t": 23104.306,
      "d": 101.33942083333386,
      "v": 96
    },
    {
      "midi": 81,
      "hit": false,
      "t": 23104.306,
      "d": 101.33942083333386,
      "v": 96
    },
    {
      "midi": 45,
      "hit": false,
      "t": 23142.888,
      "d": 203.12527083333407,
      "v": 80
    },
    {
      "midi": 67,
      "hit": false,
      "t": 23211.449,
      "d": 101.33942083333386,
      "v": 96
    },
    {
      "midi": 79,
      "hit": false,
      "t": 23211.449,
      "d": 101.33942083333386,
      "v": 96
    },
    {
      "midi": 66,
      "hit": false,
      "t": 23318.592,
      "d": 101.33942083333386,
      "v": 96
    },
    {
      "midi": 78,
      "hit": false,
      "t": 23318.592,
      "d": 101.33942083333386,
      "v": 96
    },
    {
      "midi": 52,
      "hit": false,
      "t": 23357.174,
      "d": 203.12527083333407,
      "v": 80
    },
    {
      "midi": 57,
      "hit": false,
      "t": 23357.174,
      "d": 203.12527083333407,
      "v": 80
    },
    {
      "midi": 60,
      "hit": false,
      "t": 23357.174,
      "d": 203.12527083333407,
      "v": 80
    },
    {
      "midi": 64,
      "hit": false,
      "t": 23425.735,
      "d": 106.69657083333368,
      "v": 115
    },
    {
      "midi": 68,
      "hit": false,
      "t": 23425.735,
      "d": 106.69657083333368,
      "v": 115
    },
    {
      "midi": 71,
      "hit": false,
      "t": 23425.735,
      "d": 106.69657083333368,
      "v": 115
    },
    {
      "midi": 76,
      "hit": false,
      "t": 23425.735,
      "d": 106.69657083333368,
      "v": 115
    },
    {
      "midi": 40,
      "hit": false,
      "t": 23571.46,
      "d": 203.12527083333407,
      "v": 80
    },
    {
      "midi": 64,
      "hit": false,
      "t": 23640.021,
      "d": 642.4115708333338,
      "v": 115
    },
    {
      "midi": 68,
      "hit": false,
      "t": 23640.021,
      "d": 642.4115708333338,
      "v": 115
    },
    {
      "midi": 71,
      "hit": false,
      "t": 23640.021,
      "d": 642.4115708333338,
      "v": 115
    },
    {
      "midi": 76,
      "hit": false,
      "t": 23640.021,
      "d": 642.4115708333338,
      "v": 115
    },
    {
      "midi": 52,
      "hit": false,
      "t": 23785.746,
      "d": 203.12527083333407,
      "v": 80
    },
    {
      "midi": 57,
      "hit": false,
      "t": 23785.746,
      "d": 203.12527083333407,
      "v": 80
    },
    {
      "midi": 60,
      "hit": false,
      "t": 23785.746,
      "d": 203.12527083333407,
      "v": 80
    },
    {
      "midi": 47,
      "hit": false,
      "t": 24000.032,
      "d": 203.12527083333407,
      "v": 80
    },
    {
      "midi": 52,
      "hit": false,
      "t": 24214.318,
      "d": 203.12527083333407,
      "v": 80
    },
    {
      "midi": 56,
      "hit": false,
      "t": 24214.318,
      "d": 203.12527083333407,
      "v": 80
    },
    {
      "midi": 59,
      "hit": false,
      "t": 24214.318,
      "d": 203.12527083333407,
      "v": 80
    },
    {
      "midi": 62,
      "hit": false,
      "t": 24214.318,
      "d": 203.12527083333407,
      "v": 80
    },
    {
      "midi": 81,
      "hit": false,
      "t": 24390.022,
      "d": 101.33942083333386,
      "v": 96
    },
    {
      "midi": 40,
      "hit": false,
      "t": 24428.604,
      "d": 203.12527083333407,
      "v": 80
    },
    {
      "midi": 75,
      "hit": false,
      "t": 24497.165,
      "d": 101.33942083333386,
      "v": 96
    },
    {
      "midi": 76,
      "hit": false,
      "t": 24604.308,
      "d": 101.33942083333386,
      "v": 96
    },
    {
      "midi": 52,
      "hit": false,
      "t": 24642.89,
      "d": 203.12527083333407,
      "v": 80
    },
    {
      "midi": 56,
      "hit": false,
      "t": 24642.89,
      "d": 203.12527083333407,
      "v": 80
    },
    {
      "midi": 59,
      "hit": false,
      "t": 24642.89,
      "d": 203.12527083333407,
      "v": 80
    },
    {
      "midi": 62,
      "hit": false,
      "t": 24642.89,
      "d": 203.12527083333407,
      "v": 80
    },
    {
      "midi": 77,
      "hit": false,
      "t": 24711.451,
      "d": 101.33942083333386,
      "v": 96
    },
    {
      "midi": 78,
      "hit": false,
      "t": 24818.594,
      "d": 101.33942083333386,
      "v": 96
    },
    {
      "midi": 47,
      "hit": false,
      "t": 24857.176,
      "d": 203.12527083333407,
      "v": 80
    },
    {
      "midi": 79,
      "hit": false,
      "t": 24925.737,
      "d": 101.33942083333386,
      "v": 96
    },
    {
      "midi": 80,
      "hit": false,
      "t": 25032.88,
      "d": 101.33942083333386,
      "v": 96
    },
    {
      "midi": 52,
      "hit": false,
      "t": 25071.462,
      "d": 203.12527083333407,
      "v": 80
    },
    {
      "midi": 56,
      "hit": false,
      "t": 25071.462,
      "d": 203.12527083333407,
      "v": 80
    },
    {
      "midi": 59,
      "hit": false,
      "t": 25071.462,
      "d": 203.12527083333407,
      "v": 80
    },
    {
      "midi": 62,
      "hit": false,
      "t": 25071.462,
      "d": 203.12527083333407,
      "v": 80
    },
    {
      "midi": 81,
      "hit": false,
      "t": 25140.023,
      "d": 106.69657083333368,
      "v": 96
    },
    {
      "midi": 47,
      "hit": false,
      "t": 25285.748,
      "d": 203.12527083333407,
      "v": 80
    },
    {
      "midi": 76,
      "hit": false,
      "t": 25354.309,
      "d": 428.12557083333377,
      "v": 115
    },
    {
      "midi": 81,
      "hit": false,
      "t": 25354.309,
      "d": 428.12557083333377,
      "v": 115
    },
    {
      "midi": 88,
      "hit": false,
      "t": 25354.309,
      "d": 428.12557083333377,
      "v": 115
    },
    {
      "midi": 44,
      "hit": false,
      "t": 25500.034,
      "d": 203.12527083333407,
      "v": 80
    },
    {
      "midi": 52,
      "hit": false,
      "t": 25500.034,
      "d": 203.12527083333407,
      "v": 80
    },
    {
      "midi": 56,
      "hit": false,
      "t": 25500.034,
      "d": 203.12527083333407,
      "v": 80
    },
    {
      "midi": 59,
      "hit": false,
      "t": 25500.034,
      "d": 203.12527083333407,
      "v": 80
    },
    {
      "midi": 62,
      "hit": false,
      "t": 25500.034,
      "d": 203.12527083333407,
      "v": 80
    },
    {
      "midi": 45,
      "hit": false,
      "t": 25714.32,
      "d": 203.12527083333407,
      "v": 80
    },
    {
      "midi": 75,
      "hit": false,
      "t": 25782.881,
      "d": 106.69657083333368,
      "v": 96
    },
    {
      "midi": 87,
      "hit": false,
      "t": 25782.881,
      "d": 106.69657083333368,
      "v": 96
    },
    {
      "midi": 52,
      "hit": false,
      "t": 25928.606,
      "d": 203.12527083333407,
      "v": 80
    },
    {
      "midi": 57,
      "hit": false,
      "t": 25928.606,
      "d": 203.12527083333407,
      "v": 80
    },
    {
      "midi": 60,
      "hit": false,
      "t": 25928.606,
      "d": 203.12527083333407,
      "v": 80
    },
    {
      "midi": 71,
      "hit": false,
      "t": 25997.167,
      "d": 101.33942083333386,
      "v": 96
    },
    {
      "midi": 83,
      "hit": false,
      "t": 25997.167,
      "d": 101.33942083333386,
      "v": 96
    },
    {
      "midi": 72,
      "hit": false,
      "t": 26104.31,
      "d": 106.69657083333368,
      "v": 96
    },
    {
      "midi": 84,
      "hit": false,
      "t": 26104.31,
      "d": 106.69657083333368,
      "v": 96
    },
    {
      "midi": 40,
      "hit": false,
      "t": 26142.892,
      "d": 203.12527083333407,
      "v": 80
    },
    {
      "midi": 69,
      "hit": false,
      "t": 26318.596,
      "d": 508.4828208333347,
      "v": 96
    },
    {
      "midi": 76,
      "hit": false,
      "t": 26318.596,
      "d": 508.4828208333347,
      "v": 96
    },
    {
      "midi": 81,
      "hit": false,
      "t": 26318.596,
      "d": 508.4828208333347,
      "v": 96
    },
    {
      "midi": 52,
      "hit": false,
      "t": 26357.178,
      "d": 203.12527083333407,
      "v": 80
    },
    {
      "midi": 57,
      "hit": false,
      "t": 26357.178,
      "d": 203.12527083333407,
      "v": 80
    },
    {
      "midi": 60,
      "hit": false,
      "t": 26357.178,
      "d": 203.12527083333407,
      "v": 80
    },
    {
      "midi": 45,
      "hit": false,
      "t": 26571.464,
      "d": 203.12527083333407,
      "v": 80
    },
    {
      "midi": 52,
      "hit": false,
      "t": 26785.75,
      "d": 203.12527083333407,
      "v": 80
    },
    {
      "midi": 57,
      "hit": false,
      "t": 26785.75,
      "d": 203.12527083333407,
      "v": 80
    },
    {
      "midi": 60,
      "hit": false,
      "t": 26785.75,
      "d": 203.12527083333407,
      "v": 80
    },
    {
      "midi": 71,
      "hit": false,
      "t": 26854.311,
      "d": 101.33942083333386,
      "v": 96
    },
    {
      "midi": 76,
      "hit": false,
      "t": 26854.311,
      "d": 101.33942083333386,
      "v": 96
    },
    {
      "midi": 83,
      "hit": false,
      "t": 26854.311,
      "d": 101.33942083333386,
      "v": 96
    },
    {
      "midi": 71,
      "hit": false,
      "t": 26961.454,
      "d": 406.6969708333345,
      "v": 96
    },
    {
      "midi": 76,
      "hit": false,
      "t": 26961.454,
      "d": 406.6969708333345,
      "v": 96
    },
    {
      "midi": 83,
      "hit": false,
      "t": 26961.454,
      "d": 406.6969708333345,
      "v": 96
    },
    {
      "midi": 40,
      "hit": false,
      "t": 27000.036,
      "d": 203.12527083333407,
      "v": 80
    },
    {
      "midi": 52,
      "hit": false,
      "t": 27214.322,
      "d": 203.12527083333407,
      "v": 80
    },
    {
      "midi": 57,
      "hit": false,
      "t": 27214.322,
      "d": 203.12527083333407,
      "v": 80
    },
    {
      "midi": 60,
      "hit": false,
      "t": 27214.322,
      "d": 203.12527083333407,
      "v": 80
    },
    {
      "midi": 66,
      "hit": false,
      "t": 27390.026,
      "d": 106.69657083333368,
      "v": 96
    },
    {
      "midi": 78,
      "hit": false,
      "t": 27390.026,
      "d": 106.69657083333368,
      "v": 96
    },
    {
      "midi": 47,
      "hit": false,
      "t": 27428.608,
      "d": 203.12527083333407,
      "v": 80
    },
    {
      "midi": 65,
      "hit": false,
      "t": 27604.312,
      "d": 101.33942083333386,
      "v": 96
    },
    {
      "midi": 77,
      "hit": false,
      "t": 27604.312,
      "d": 101.33942083333386,
      "v": 96
    },
    {
      "midi": 52,
      "hit": false,
      "t": 27642.894,
      "d": 203.12527083333407,
      "v": 80
    },
    {
      "midi": 56,
      "hit": false,
      "t": 27642.894,
      "d": 203.12527083333407,
      "v": 80
    },
    {
      "midi": 59,
      "hit": false,
      "t": 27642.894,
      "d": 203.12527083333407,
      "v": 80
    },
    {
      "midi": 62,
      "hit": false,
      "t": 27642.894,
      "d": 203.12527083333407,
      "v": 80
    },
    {
      "midi": 64,
      "hit": false,
      "t": 27711.455,
      "d": 406.6969708333345,
      "v": 96
    },
    {
      "midi": 71,
      "hit": false,
      "t": 27711.455,
      "d": 406.6969708333345,
      "v": 96
    },
    {
      "midi": 76,
      "hit": false,
      "t": 27711.455,
      "d": 406.6969708333345,
      "v": 96
    },
    {
      "midi": 40,
      "hit": false,
      "t": 27857.18,
      "d": 203.12527083333407,
      "v": 80
    },
    {
      "midi": 52,
      "hit": false,
      "t": 28071.466,
      "d": 203.12527083333407,
      "v": 80
    },
    {
      "midi": 56,
      "hit": false,
      "t": 28071.466,
      "d": 203.12527083333407,
      "v": 80
    },
    {
      "midi": 59,
      "hit": false,
      "t": 28071.466,
      "d": 203.12527083333407,
      "v": 80
    },
    {
      "midi": 62,
      "hit": false,
      "t": 28071.466,
      "d": 203.12527083333407,
      "v": 80
    },
    {
      "midi": 65,
      "hit": false,
      "t": 28140.027000000002,
      "d": 203.12527083333407,
      "v": 96
    },
    {
      "midi": 77,
      "hit": false,
      "t": 28140.027000000002,
      "d": 203.12527083333407,
      "v": 96
    },
    {
      "midi": 47,
      "hit": false,
      "t": 28285.752,
      "d": 203.12527083333407,
      "v": 80
    },
    {
      "midi": 68,
      "hit": false,
      "t": 28354.313000000002,
      "d": 203.12527083333407,
      "v": 96
    },
    {
      "midi": 80,
      "hit": false,
      "t": 28354.313000000002,
      "d": 203.12527083333407,
      "v": 96
    },
    {
      "midi": 52,
      "hit": false,
      "t": 28500.038,
      "d": 203.12527083333407,
      "v": 80
    },
    {
      "midi": 56,
      "hit": false,
      "t": 28500.038,
      "d": 203.12527083333407,
      "v": 80
    },
    {
      "midi": 59,
      "hit": false,
      "t": 28500.038,
      "d": 203.12527083333407,
      "v": 80
    },
    {
      "midi": 62,
      "hit": false,
      "t": 28500.038,
      "d": 203.12527083333407,
      "v": 80
    },
    {
      "midi": 47,
      "hit": false,
      "t": 28714.324,
      "d": 203.12527083333407,
      "v": 80
    },
    {
      "midi": 76,
      "hit": false,
      "t": 28782.885000000002,
      "d": 428.12557083333377,
      "v": 115
    },
    {
      "midi": 81,
      "hit": false,
      "t": 28782.885000000002,
      "d": 428.12557083333377,
      "v": 115
    },
    {
      "midi": 88,
      "hit": false,
      "t": 28782.885000000002,
      "d": 428.12557083333377,
      "v": 115
    },
    {
      "midi": 44,
      "hit": false,
      "t": 28928.61,
      "d": 203.12527083333407,
      "v": 80
    },
    {
      "midi": 52,
      "hit": false,
      "t": 28928.61,
      "d": 203.12527083333407,
      "v": 80
    },
    {
      "midi": 56,
      "hit": false,
      "t": 28928.61,
      "d": 203.12527083333407,
      "v": 80
    },
    {
      "midi": 59,
      "hit": false,
      "t": 28928.61,
      "d": 203.12527083333407,
      "v": 80
    },
    {
      "midi": 62,
      "hit": false,
      "t": 28928.61,
      "d": 203.12527083333407,
      "v": 80
    },
    {
      "midi": 45,
      "hit": false,
      "t": 29142.896,
      "d": 203.12527083333407,
      "v": 80
    },
    {
      "midi": 75,
      "hit": false,
      "t": 29211.457000000002,
      "d": 106.69657083333368,
      "v": 96
    },
    {
      "midi": 87,
      "hit": false,
      "t": 29211.457000000002,
      "d": 106.69657083333368,
      "v": 96
    },
    {
      "midi": 52,
      "hit": false,
      "t": 29357.182,
      "d": 203.12527083333407,
      "v": 80
    },
    {
      "midi": 57,
      "hit": false,
      "t": 29357.182,
      "d": 203.12527083333407,
      "v": 80
    },
    {
      "midi": 60,
      "hit": false,
      "t": 29357.182,
      "d": 203.12527083333407,
      "v": 80
    },
    {
      "midi": 71,
      "hit": false,
      "t": 29425.743000000002,
      "d": 101.33942083333386,
      "v": 96
    },
    {
      "midi": 83,
      "hit": false,
      "t": 29425.743000000002,
      "d": 101.33942083333386,
      "v": 96
    },
    {
      "midi": 72,
      "hit": false,
      "t": 29532.886000000002,
      "d": 106.69657083333368,
      "v": 96
    },
    {
      "midi": 84,
      "hit": false,
      "t": 29532.886000000002,
      "d": 106.69657083333368,
      "v": 96
    },
    {
      "midi": 40,
      "hit": false,
      "t": 29571.468,
      "d": 203.12527083333407,
      "v": 80
    },
    {
      "midi": 69,
      "hit": false,
      "t": 29747.172000000002,
      "d": 508.4828208333347,
      "v": 96
    },
    {
      "midi": 76,
      "hit": false,
      "t": 29747.172000000002,
      "d": 508.4828208333347,
      "v": 96
    },
    {
      "midi": 81,
      "hit": false,
      "t": 29747.172000000002,
      "d": 508.4828208333347,
      "v": 96
    },
    {
      "midi": 52,
      "hit": false,
      "t": 29785.754,
      "d": 203.12527083333407,
      "v": 80
    },
    {
      "midi": 57,
      "hit": false,
      "t": 29785.754,
      "d": 203.12527083333407,
      "v": 80
    },
    {
      "midi": 60,
      "hit": false,
      "t": 29785.754,
      "d": 203.12527083333407,
      "v": 80
    },
    {
      "midi": 45,
      "hit": false,
      "t": 30000.04,
      "d": 203.12527083333407,
      "v": 80
    },
    {
      "midi": 52,
      "hit": false,
      "t": 30214.326,
      "d": 203.12527083333407,
      "v": 80
    },
    {
      "midi": 57,
      "hit": false,
      "t": 30214.326,
      "d": 203.12527083333407,
      "v": 80
    },
    {
      "midi": 60,
      "hit": false,
      "t": 30214.326,
      "d": 203.12527083333407,
      "v": 80
    },
    {
      "midi": 71,
      "hit": false,
      "t": 30282.887000000002,
      "d": 101.33942083333386,
      "v": 96
    },
    {
      "midi": 76,
      "hit": false,
      "t": 30282.887000000002,
      "d": 101.33942083333386,
      "v": 96
    },
    {
      "midi": 83,
      "hit": false,
      "t": 30282.887000000002,
      "d": 101.33942083333386,
      "v": 96
    },
    {
      "midi": 70,
      "hit": false,
      "t": 30390.030000000002,
      "d": 203.12527083333407,
      "v": 96
    },
    {
      "midi": 82,
      "hit": false,
      "t": 30390.030000000002,
      "d": 203.12527083333407,
      "v": 96
    },
    {
      "midi": 40,
      "hit": false,
      "t": 30428.612,
      "d": 203.12527083333407,
      "v": 80
    },
    {
      "midi": 71,
      "hit": false,
      "t": 30604.316000000003,
      "d": 304.9111208333343,
      "v": 96
    },
    {
      "midi": 76,
      "hit": false,
      "t": 30604.316000000003,
      "d": 304.9111208333343,
      "v": 96
    },
    {
      "midi": 83,
      "hit": false,
      "t": 30604.316000000003,
      "d": 304.9111208333343,
      "v": 96
    },
    {
      "midi": 52,
      "hit": false,
      "t": 30642.898,
      "d": 203.12527083333407,
      "v": 80
    },
    {
      "midi": 57,
      "hit": false,
      "t": 30642.898,
      "d": 203.12527083333407,
      "v": 80
    },
    {
      "midi": 60,
      "hit": false,
      "t": 30642.898,
      "d": 203.12527083333407,
      "v": 80
    },
    {
      "midi": 40,
      "hit": false,
      "t": 30857.184,
      "d": 203.12527083333407,
      "v": 80
    },
    {
      "midi": 65,
      "hit": false,
      "t": 31068.602333333336,
      "d": 67.41080416666591,
      "v": 96
    },
    {
      "midi": 77,
      "hit": false,
      "t": 31068.602333333336,
      "d": 67.41080416666591,
      "v": 96
    },
    {
      "midi": 52,
      "hit": false,
      "t": 31071.47,
      "d": 203.12527083333407,
      "v": 80
    },
    {
      "midi": 56,
      "hit": false,
      "t": 31071.47,
      "d": 203.12527083333407,
      "v": 80
    },
    {
      "midi": 59,
      "hit": false,
      "t": 31071.47,
      "d": 203.12527083333407,
      "v": 80
    },
    {
      "midi": 62,
      "hit": false,
      "t": 31071.47,
      "d": 203.12527083333407,
      "v": 80
    },
    {
      "midi": 64,
      "hit": false,
      "t": 31140.031000000003,
      "d": 101.33942083333386,
      "v": 96
    },
    {
      "midi": 76,
      "hit": false,
      "t": 31140.031000000003,
      "d": 101.33942083333386,
      "v": 96
    },
    {
      "midi": 74,
      "hit": false,
      "t": 31247.174000000003,
      "d": 106.69657083333368,
      "v": 115
    },
    {
      "midi": 80,
      "hit": false,
      "t": 31247.174000000003,
      "d": 106.69657083333368,
      "v": 115
    },
    {
      "midi": 86,
      "hit": false,
      "t": 31247.174000000003,
      "d": 106.69657083333368,
      "v": 115
    },
    {
      "midi": 47,
      "hit": false,
      "t": 31285.756,
      "d": 203.12527083333407,
      "v": 80
    },
    {
      "midi": 72,
      "hit": false,
      "t": 31461.460000000003,
      "d": 106.69657083333368,
      "v": 115
    },
    {
      "midi": 80,
      "hit": false,
      "t": 31461.460000000003,
      "d": 106.69657083333368,
      "v": 115
    },
    {
      "midi": 84,
      "hit": false,
      "t": 31461.460000000003,
      "d": 106.69657083333368,
      "v": 115
    },
    {
      "midi": 52,
      "hit": false,
      "t": 31500.042,
      "d": 203.12527083333407,
      "v": 80
    },
    {
      "midi": 56,
      "hit": false,
      "t": 31500.042,
      "d": 203.12527083333407,
      "v": 80
    },
    {
      "midi": 59,
      "hit": false,
      "t": 31500.042,
      "d": 203.12527083333407,
      "v": 80
    },
    {
      "midi": 62,
      "hit": false,
      "t": 31500.042,
      "d": 203.12527083333407,
      "v": 80
    },
    {
      "midi": 71,
      "hit": false,
      "t": 31675.746000000003,
      "d": 315.6254208333339,
      "v": 115
    },
    {
      "midi": 77,
      "hit": false,
      "t": 31675.746000000003,
      "d": 315.6254208333339,
      "v": 115
    },
    {
      "midi": 83,
      "hit": false,
      "t": 31675.746000000003,
      "d": 315.6254208333339,
      "v": 115
    },
    {
      "midi": 40,
      "hit": false,
      "t": 31714.328,
      "d": 203.12527083333407,
      "v": 80
    },
    {
      "midi": 52,
      "hit": false,
      "t": 31928.614,
      "d": 203.12527083333407,
      "v": 80
    },
    {
      "midi": 56,
      "hit": false,
      "t": 31928.614,
      "d": 203.12527083333407,
      "v": 80
    },
    {
      "midi": 59,
      "hit": false,
      "t": 31928.614,
      "d": 203.12527083333407,
      "v": 80
    },
    {
      "midi": 62,
      "hit": false,
      "t": 31928.614,
      "d": 203.12527083333407,
      "v": 80
    },
    {
      "midi": 47,
      "hit": false,
      "t": 32142.9,
      "d": 203.12527083333407,
      "v": 80
    },
    {
      "midi": 76,
      "hit": false,
      "t": 32211.461000000003,
      "d": 428.12557083333377,
      "v": 115
    },
    {
      "midi": 81,
      "hit": false,
      "t": 32211.461000000003,
      "d": 428.12557083333377,
      "v": 115
    },
    {
      "midi": 88,
      "hit": false,
      "t": 32211.461000000003,
      "d": 428.12557083333377,
      "v": 115
    },
    {
      "midi": 44,
      "hit": false,
      "t": 32357.186,
      "d": 203.12527083333407,
      "v": 80
    },
    {
      "midi": 52,
      "hit": false,
      "t": 32357.186,
      "d": 203.12527083333407,
      "v": 80
    },
    {
      "midi": 56,
      "hit": false,
      "t": 32357.186,
      "d": 203.12527083333407,
      "v": 80
    },
    {
      "midi": 59,
      "hit": false,
      "t": 32357.186,
      "d": 203.12527083333407,
      "v": 80
    },
    {
      "midi": 62,
      "hit": false,
      "t": 32357.186,
      "d": 203.12527083333407,
      "v": 80
    },
    {
      "midi": 45,
      "hit": false,
      "t": 32571.472,
      "d": 203.12527083333407,
      "v": 80
    },
    {
      "midi": 75,
      "hit": false,
      "t": 32640.033000000003,
      "d": 106.69657083333368,
      "v": 96
    },
    {
      "midi": 87,
      "hit": false,
      "t": 32640.033000000003,
      "d": 106.69657083333368,
      "v": 96
    },
    {
      "midi": 52,
      "hit": false,
      "t": 32785.758,
      "d": 203.12527083333407,
      "v": 80
    },
    {
      "midi": 57,
      "hit": false,
      "t": 32785.758,
      "d": 203.12527083333407,
      "v": 80
    },
    {
      "midi": 60,
      "hit": false,
      "t": 32785.758,
      "d": 203.12527083333407,
      "v": 80
    },
    {
      "midi": 71,
      "hit": false,
      "t": 32854.319,
      "d": 101.33942083333386,
      "v": 96
    },
    {
      "midi": 83,
      "hit": false,
      "t": 32854.319,
      "d": 101.33942083333386,
      "v": 96
    },
    {
      "midi": 72,
      "hit": false,
      "t": 32961.46200000001,
      "d": 106.69657083333004,
      "v": 96
    },
    {
      "midi": 84,
      "hit": false,
      "t": 32961.46200000001,
      "d": 106.69657083333004,
      "v": 96
    },
    {
      "midi": 40,
      "hit": false,
      "t": 33000.044,
      "d": 203.12527083333407,
      "v": 80
    },
    {
      "midi": 69,
      "hit": false,
      "t": 33175.74800000001,
      "d": 508.4828208333347,
      "v": 96
    },
    {
      "midi": 76,
      "hit": false,
      "t": 33175.74800000001,
      "d": 508.4828208333347,
      "v": 96
    },
    {
      "midi": 81,
      "hit": false,
      "t": 33175.74800000001,
      "d": 508.4828208333347,
      "v": 96
    },
    {
      "midi": 52,
      "hit": false,
      "t": 33214.33,
      "d": 203.12527083333407,
      "v": 80
    },
    {
      "midi": 57,
      "hit": false,
      "t": 33214.33,
      "d": 203.12527083333407,
      "v": 80
    },
    {
      "midi": 60,
      "hit": false,
      "t": 33214.33,
      "d": 203.12527083333407,
      "v": 80
    },
    {
      "midi": 45,
      "hit": false,
      "t": 33428.616,
      "d": 203.12527083333407,
      "v": 80
    },
    {
      "midi": 52,
      "hit": false,
      "t": 33642.902,
      "d": 203.12527083333407,
      "v": 80
    },
    {
      "midi": 57,
      "hit": false,
      "t": 33642.902,
      "d": 203.12527083333407,
      "v": 80
    },
    {
      "midi": 60,
      "hit": false,
      "t": 33642.902,
      "d": 203.12527083333407,
      "v": 80
    },
    {
      "midi": 71,
      "hit": false,
      "t": 33711.46300000001,
      "d": 101.33942083333386,
      "v": 96
    },
    {
      "midi": 76,
      "hit": false,
      "t": 33711.46300000001,
      "d": 101.33942083333386,
      "v": 96
    },
    {
      "midi": 83,
      "hit": false,
      "t": 33711.46300000001,
      "d": 101.33942083333386,
      "v": 96
    },
    {
      "midi": 71,
      "hit": false,
      "t": 33818.606000000014,
      "d": 101.33942083333386,
      "v": 96
    },
    {
      "midi": 76,
      "hit": false,
      "t": 33818.606000000014,
      "d": 101.33942083333386,
      "v": 96
    },
    {
      "midi": 83,
      "hit": false,
      "t": 33818.606000000014,
      "d": 101.33942083333386,
      "v": 96
    },
    {
      "midi": 40,
      "hit": false,
      "t": 33857.188,
      "d": 203.12527083333407,
      "v": 80
    },
    {
      "midi": 71,
      "hit": false,
      "t": 33925.74900000002,
      "d": 106.69657083333004,
      "v": 96
    },
    {
      "midi": 76,
      "hit": false,
      "t": 33925.74900000002,
      "d": 106.69657083333004,
      "v": 96
    },
    {
      "midi": 83,
      "hit": false,
      "t": 33925.74900000002,
      "d": 106.69657083333004,
      "v": 96
    },
    {
      "midi": 47,
      "hit": false,
      "t": 34071.474,
      "d": 203.12527083333407,
      "v": 80
    },
    {
      "midi": 52,
      "hit": false,
      "t": 34071.474,
      "d": 203.12527083333407,
      "v": 80
    },
    {
      "midi": 57,
      "hit": false,
      "t": 34071.474,
      "d": 203.12527083333407,
      "v": 80
    },
    {
      "midi": 60,
      "hit": false,
      "t": 34071.474,
      "d": 203.12527083333407,
      "v": 80
    },
    {
      "midi": 71,
      "hit": false,
      "t": 34140.03500000002,
      "d": 203.12527083333407,
      "v": 96
    },
    {
      "midi": 76,
      "hit": false,
      "t": 34140.03500000002,
      "d": 203.12527083333407,
      "v": 96
    },
    {
      "midi": 83,
      "hit": false,
      "t": 34140.03500000002,
      "d": 203.12527083333407,
      "v": 96
    },
    {
      "midi": 48,
      "hit": false,
      "t": 34285.76,
      "d": 203.12527083333407,
      "v": 80
    },
    {
      "midi": 65,
      "hit": false,
      "t": 34461.46400000002,
      "d": 101.33942083333386,
      "v": 96
    },
    {
      "midi": 77,
      "hit": false,
      "t": 34461.46400000002,
      "d": 101.33942083333386,
      "v": 96
    },
    {
      "midi": 52,
      "hit": false,
      "t": 34500.046,
      "d": 203.12527083333407,
      "v": 80
    },
    {
      "midi": 58,
      "hit": false,
      "t": 34500.046,
      "d": 203.12527083333407,
      "v": 80
    },
    {
      "midi": 60,
      "hit": false,
      "t": 34500.046,
      "d": 203.12527083333407,
      "v": 80
    },
    {
      "midi": 64,
      "hit": false,
      "t": 34568.607000000025,
      "d": 406.6969708333345,
      "v": 96
    },
    {
      "midi": 76,
      "hit": false,
      "t": 34568.607000000025,
      "d": 406.6969708333345,
      "v": 96
    },
    {
      "midi": 83,
      "hit": false,
      "t": 34568.607000000025,
      "d": 406.6969708333345,
      "v": 96
    },
    {
      "midi": 43,
      "hit": false,
      "t": 34714.332,
      "d": 203.12527083333407,
      "v": 80
    },
    {
      "midi": 52,
      "hit": false,
      "t": 34928.618,
      "d": 203.12527083333407,
      "v": 80
    },
    {
      "midi": 58,
      "hit": false,
      "t": 34928.618,
      "d": 203.12527083333407,
      "v": 80
    },
    {
      "midi": 60,
      "hit": false,
      "t": 34928.618,
      "d": 203.12527083333407,
      "v": 80
    },
    {
      "midi": 65,
      "hit": false,
      "t": 34997.179000000026,
      "d": 106.69657083333004,
      "v": 96
    },
    {
      "midi": 71,
      "hit": false,
      "t": 34997.179000000026,
      "d": 106.69657083333004,
      "v": 96
    },
    {
      "midi": 77,
      "hit": false,
      "t": 34997.179000000026,
      "d": 106.69657083333004,
      "v": 96
    },
    {
      "midi": 48,
      "hit": false,
      "t": 35142.904,
      "d": 203.12527083333407,
      "v": 80
    },
    {
      "midi": 68,
      "hit": false,
      "t": 35211.465000000026,
      "d": 106.69657083333004,
      "v": 96
    },
    {
      "midi": 80,
      "hit": false,
      "t": 35211.465000000026,
      "d": 106.69657083333004,
      "v": 96
    },
    {
      "midi": 52,
      "hit": false,
      "t": 35357.19,
      "d": 203.12527083333407,
      "v": 80
    },
    {
      "midi": 58,
      "hit": false,
      "t": 35357.19,
      "d": 203.12527083333407,
      "v": 80
    },
    {
      "midi": 60,
      "hit": false,
      "t": 35357.19,
      "d": 203.12527083333407,
      "v": 80
    },
    {
      "midi": 69,
      "hit": false,
      "t": 35425.751000000026,
      "d": 101.33942083333386,
      "v": 96
    },
    {
      "midi": 81,
      "hit": false,
      "t": 35425.751000000026,
      "d": 101.33942083333386,
      "v": 96
    },
    {
      "midi": 66,
      "hit": false,
      "t": 35532.89400000003,
      "d": 101.33942083333386,
      "v": 96
    },
    {
      "midi": 78,
      "hit": false,
      "t": 35532.89400000003,
      "d": 101.33942083333386,
      "v": 96
    },
    {
      "midi": 48,
      "hit": false,
      "t": 35571.476,
      "d": 203.12527083333407,
      "v": 80
    },
    {
      "midi": 67,
      "hit": false,
      "t": 35640.03700000003,
      "d": 101.33942083333386,
      "v": 96
    },
    {
      "midi": 79,
      "hit": false,
      "t": 35640.03700000003,
      "d": 101.33942083333386,
      "v": 96
    },
    {
      "midi": 69,
      "hit": false,
      "t": 35747.18000000004,
      "d": 106.69657083333004,
      "v": 96
    },
    {
      "midi": 81,
      "hit": false,
      "t": 35747.18000000004,
      "d": 106.69657083333004,
      "v": 96
    },
    {
      "midi": 43,
      "hit": false,
      "t": 35785.762,
      "d": 203.12527083333407,
      "v": 80
    },
    {
      "midi": 52,
      "hit": false,
      "t": 35785.762,
      "d": 203.12527083333407,
      "v": 80
    },
    {
      "midi": 58,
      "hit": false,
      "t": 35785.762,
      "d": 203.12527083333407,
      "v": 80
    },
    {
      "midi": 60,
      "hit": false,
      "t": 35785.762,
      "d": 203.12527083333407,
      "v": 80
    },
    {
      "midi": 69,
      "hit": false,
      "t": 35961.46600000004,
      "d": 101.33942083333386,
      "v": 96
    },
    {
      "midi": 81,
      "hit": false,
      "t": 35961.46600000004,
      "d": 101.33942083333386,
      "v": 96
    },
    {
      "midi": 41,
      "hit": false,
      "t": 36000.048,
      "d": 203.12527083333407,
      "v": 80
    },
    {
      "midi": 66,
      "hit": false,
      "t": 36068.60900000004,
      "d": 101.33942083333386,
      "v": 96
    },
    {
      "midi": 78,
      "hit": false,
      "t": 36068.60900000004,
      "d": 101.33942083333386,
      "v": 96
    },
    {
      "midi": 67,
      "hit": false,
      "t": 36175.752000000044,
      "d": 101.33942083333386,
      "v": 96
    },
    {
      "midi": 79,
      "hit": false,
      "t": 36175.752000000044,
      "d": 101.33942083333386,
      "v": 96
    },
    {
      "midi": 53,
      "hit": false,
      "t": 36214.334,
      "d": 203.12527083333407,
      "v": 80
    },
    {
      "midi": 56,
      "hit": false,
      "t": 36214.334,
      "d": 203.12527083333407,
      "v": 80
    },
    {
      "midi": 60,
      "hit": false,
      "t": 36214.334,
      "d": 203.12527083333407,
      "v": 80
    },
    {
      "midi": 69,
      "hit": false,
      "t": 36282.89500000005,
      "d": 101.33942083333386,
      "v": 96
    },
    {
      "midi": 81,
      "hit": false,
      "t": 36282.89500000005,
      "d": 101.33942083333386,
      "v": 96
    },
    {
      "midi": 66,
      "hit": false,
      "t": 36390.03800000005,
      "d": 101.33942083333386,
      "v": 96
    },
    {
      "midi": 78,
      "hit": false,
      "t": 36390.03800000005,
      "d": 101.33942083333386,
      "v": 96
    },
    {
      "midi": 36,
      "hit": false,
      "t": 36428.62,
      "d": 203.12527083333407,
      "v": 80
    },
    {
      "midi": 67,
      "hit": false,
      "t": 36497.181000000055,
      "d": 101.33942083333386,
      "v": 96
    },
    {
      "midi": 79,
      "hit": false,
      "t": 36497.181000000055,
      "d": 101.33942083333386,
      "v": 96
    },
    {
      "midi": 69,
      "hit": false,
      "t": 36604.32400000006,
      "d": 106.69657083333004,
      "v": 96
    },
    {
      "midi": 81,
      "hit": false,
      "t": 36604.32400000006,
      "d": 106.69657083333004,
      "v": 96
    },
    {
      "midi": 53,
      "hit": false,
      "t": 36642.906,
      "d": 203.12527083333407,
      "v": 80
    },
    {
      "midi": 56,
      "hit": false,
      "t": 36642.906,
      "d": 203.12527083333407,
      "v": 80
    },
    {
      "midi": 60,
      "hit": false,
      "t": 36642.906,
      "d": 203.12527083333407,
      "v": 80
    },
    {
      "midi": 69,
      "hit": false,
      "t": 36818.61000000006,
      "d": 101.33942083333386,
      "v": 96
    },
    {
      "midi": 81,
      "hit": false,
      "t": 36818.61000000006,
      "d": 101.33942083333386,
      "v": 96
    },
    {
      "midi": 41,
      "hit": false,
      "t": 36857.192,
      "d": 203.12527083333407,
      "v": 80
    },
    {
      "midi": 70,
      "hit": false,
      "t": 36925.75300000006,
      "d": 101.33942083333386,
      "v": 96
    },
    {
      "midi": 82,
      "hit": false,
      "t": 36925.75300000006,
      "d": 101.33942083333386,
      "v": 96
    },
    {
      "midi": 71,
      "hit": false,
      "t": 37032.896000000066,
      "d": 101.33942083333386,
      "v": 96
    },
    {
      "midi": 83,
      "hit": false,
      "t": 37032.896000000066,
      "d": 101.33942083333386,
      "v": 96
    },
    {
      "midi": 53,
      "hit": false,
      "t": 37071.478,
      "d": 203.12527083333407,
      "v": 80
    },
    {
      "midi": 56,
      "hit": false,
      "t": 37071.478,
      "d": 203.12527083333407,
      "v": 80
    },
    {
      "midi": 60,
      "hit": false,
      "t": 37071.478,
      "d": 203.12527083333407,
      "v": 80
    },
    {
      "midi": 72,
      "hit": false,
      "t": 37140.03900000007,
      "d": 101.33942083333386,
      "v": 96
    },
    {
      "midi": 84,
      "hit": false,
      "t": 37140.03900000007,
      "d": 101.33942083333386,
      "v": 96
    },
    {
      "midi": 70,
      "hit": false,
      "t": 37247.18200000007,
      "d": 101.33942083333386,
      "v": 96
    },
    {
      "midi": 82,
      "hit": false,
      "t": 37247.18200000007,
      "d": 101.33942083333386,
      "v": 96
    },
    {
      "midi": 36,
      "hit": false,
      "t": 37285.764,
      "d": 203.12527083333407,
      "v": 80
    },
    {
      "midi": 71,
      "hit": false,
      "t": 37354.32500000008,
      "d": 101.33942083333386,
      "v": 96
    },
    {
      "midi": 83,
      "hit": false,
      "t": 37354.32500000008,
      "d": 101.33942083333386,
      "v": 96
    },
    {
      "midi": 72,
      "hit": false,
      "t": 37461.46800000008,
      "d": 106.69657083333004,
      "v": 96
    },
    {
      "midi": 84,
      "hit": false,
      "t": 37461.46800000008,
      "d": 106.69657083333004,
      "v": 96
    },
    {
      "midi": 41,
      "hit": false,
      "t": 37500.05,
      "d": 203.12527083333407,
      "v": 80
    },
    {
      "midi": 53,
      "hit": false,
      "t": 37500.05,
      "d": 203.12527083333407,
      "v": 80
    },
    {
      "midi": 56,
      "hit": false,
      "t": 37500.05,
      "d": 203.12527083333407,
      "v": 80
    },
    {
      "midi": 60,
      "hit": false,
      "t": 37500.05,
      "d": 203.12527083333407,
      "v": 80
    },
    {
      "midi": 69,
      "hit": false,
      "t": 37675.75400000008,
      "d": 101.33942083333386,
      "v": 96
    },
    {
      "midi": 81,
      "hit": false,
      "t": 37675.75400000008,
      "d": 101.33942083333386,
      "v": 96
    },
    {
      "midi": 43,
      "hit": false,
      "t": 37714.336,
      "d": 203.12527083333407,
      "v": 80
    },
    {
      "midi": 70,
      "hit": false,
      "t": 37782.897000000085,
      "d": 101.33942083333386,
      "v": 96
    },
    {
      "midi": 82,
      "hit": false,
      "t": 37782.897000000085,
      "d": 101.33942083333386,
      "v": 96
    },
    {
      "midi": 71,
      "hit": false,
      "t": 37890.04000000009,
      "d": 101.33942083333386,
      "v": 96
    },
    {
      "midi": 83,
      "hit": false,
      "t": 37890.04000000009,
      "d": 101.33942083333386,
      "v": 96
    },
    {
      "midi": 52,
      "hit": false,
      "t": 37928.622,
      "d": 203.12527083333407,
      "v": 80
    },
    {
      "midi": 55,
      "hit": false,
      "t": 37928.622,
      "d": 203.12527083333407,
      "v": 80
    },
    {
      "midi": 58,
      "hit": false,
      "t": 37928.622,
      "d": 203.12527083333407,
      "v": 80
    },
    {
      "midi": 61,
      "hit": false,
      "t": 37928.622,
      "d": 203.12527083333407,
      "v": 80
    },
    {
      "midi": 72,
      "hit": false,
      "t": 37997.18300000009,
      "d": 101.33942083333386,
      "v": 96
    },
    {
      "midi": 84,
      "hit": false,
      "t": 37997.18300000009,
      "d": 101.33942083333386,
      "v": 96
    },
    {
      "midi": 70,
      "hit": false,
      "t": 38104.326000000096,
      "d": 101.33942083333386,
      "v": 96
    },
    {
      "midi": 82,
      "hit": false,
      "t": 38104.326000000096,
      "d": 101.33942083333386,
      "v": 96
    },
    {
      "midi": 36,
      "hit": false,
      "t": 38142.908,
      "d": 203.12527083333407,
      "v": 80
    },
    {
      "midi": 71,
      "hit": false,
      "t": 38211.4690000001,
      "d": 101.33942083333386,
      "v": 96
    },
    {
      "midi": 83,
      "hit": false,
      "t": 38211.4690000001,
      "d": 101.33942083333386,
      "v": 96
    },
    {
      "midi": 72,
      "hit": false,
      "t": 38318.6120000001,
      "d": 106.69657083333004,
      "v": 96
    },
    {
      "midi": 84,
      "hit": false,
      "t": 38318.6120000001,
      "d": 106.69657083333004,
      "v": 96
    },
    {
      "midi": 52,
      "hit": false,
      "t": 38357.194,
      "d": 203.12527083333407,
      "v": 80
    },
    {
      "midi": 55,
      "hit": false,
      "t": 38357.194,
      "d": 203.12527083333407,
      "v": 80
    },
    {
      "midi": 58,
      "hit": false,
      "t": 38357.194,
      "d": 203.12527083333407,
      "v": 80
    },
    {
      "midi": 61,
      "hit": false,
      "t": 38357.194,
      "d": 203.12527083333407,
      "v": 80
    },
    {
      "midi": 86,
      "hit": false,
      "t": 38532.8980000001,
      "d": 101.33942083333386,
      "v": 96
    },
    {
      "midi": 43,
      "hit": false,
      "t": 38571.48,
      "d": 203.12527083333407,
      "v": 80
    },
    {
      "midi": 87,
      "hit": false,
      "t": 38640.04100000011,
      "d": 101.33942083333386,
      "v": 96
    },
    {
      "midi": 88,
      "hit": false,
      "t": 38747.18400000011,
      "d": 101.33942083333386,
      "v": 96
    },
    {
      "midi": 52,
      "hit": false,
      "t": 38785.766,
      "d": 203.12527083333407,
      "v": 80
    },
    {
      "midi": 55,
      "hit": false,
      "t": 38785.766,
      "d": 203.12527083333407,
      "v": 80
    },
    {
      "midi": 58,
      "hit": false,
      "t": 38785.766,
      "d": 203.12527083333407,
      "v": 80
    },
    {
      "midi": 61,
      "hit": false,
      "t": 38785.766,
      "d": 203.12527083333407,
      "v": 80
    },
    {
      "midi": 77,
      "hit": false,
      "t": 38854.327000000114,
      "d": 203.12527083333407,
      "v": 96
    },
    {
      "midi": 88,
      "hit": false,
      "t": 38854.327000000114,
      "d": 203.12527083333407,
      "v": 96
    },
    {
      "midi": 89,
      "hit": false,
      "t": 38854.327000000114,
      "d": 203.12527083333407,
      "v": 96
    },
    {
      "midi": 48,
      "hit": false,
      "t": 39000.052,
      "d": 203.12527083333407,
      "v": 80
    },
    {
      "midi": 83,
      "hit": false,
      "t": 39068.613000000114,
      "d": 106.69657083333004,
      "v": 96
    },
    {
      "midi": 84,
      "hit": false,
      "t": 39068.613000000114,
      "d": 106.69657083333004,
      "v": 96
    },
    {
      "midi": 43,
      "hit": false,
      "t": 39214.338,
      "d": 203.12527083333407,
      "v": 80
    },
    {
      "midi": 52,
      "hit": false,
      "t": 39214.338,
      "d": 203.12527083333407,
      "v": 80
    },
    {
      "midi": 55,
      "hit": false,
      "t": 39214.338,
      "d": 203.12527083333407,
      "v": 80
    },
    {
      "midi": 58,
      "hit": false,
      "t": 39214.338,
      "d": 203.12527083333407,
      "v": 80
    },
    {
      "midi": 61,
      "hit": false,
      "t": 39214.338,
      "d": 203.12527083333407,
      "v": 80
    },
    {
      "midi": 79,
      "hit": false,
      "t": 39282.899000000114,
      "d": 106.69657083333004,
      "v": 96
    },
    {
      "midi": 80,
      "hit": false,
      "t": 39282.899000000114,
      "d": 106.69657083333004,
      "v": 96
    },
    {
      "midi": 41,
      "hit": false,
      "t": 39428.624,
      "d": 203.12527083333407,
      "v": 80
    },
    {
      "midi": 76,
      "hit": false,
      "t": 39497.185000000114,
      "d": 106.69657083333004,
      "v": 96
    },
    {
      "midi": 77,
      "hit": false,
      "t": 39497.185000000114,
      "d": 106.69657083333004,
      "v": 96
    },
    {
      "midi": 53,
      "hit": false,
      "t": 39642.91,
      "d": 203.12527083333407,
      "v": 80
    },
    {
      "midi": 56,
      "hit": false,
      "t": 39642.91,
      "d": 203.12527083333407,
      "v": 80
    },
    {
      "midi": 60,
      "hit": false,
      "t": 39642.91,
      "d": 203.12527083333407,
      "v": 80
    },
    {
      "midi": 79,
      "hit": false,
      "t": 39711.471000000114,
      "d": 101.33942083333386,
      "v": 96
    },
    {
      "midi": 80,
      "hit": false,
      "t": 39711.471000000114,
      "d": 101.33942083333386,
      "v": 96
    },
    {
      "midi": 82,
      "hit": false,
      "t": 39818.61400000012,
      "d": 106.69657083333004,
      "v": 96
    },
    {
      "midi": 36,
      "hit": false,
      "t": 39857.196,
      "d": 203.12527083333407,
      "v": 80
    },
    {
      "midi": 79,
      "hit": false,
      "t": 40032.90000000012,
      "d": 508.4828208333347,
      "v": 96
    },
    {
      "midi": 80,
      "hit": false,
      "t": 40032.90000000012,
      "d": 508.4828208333347,
      "v": 96
    },
    {
      "midi": 53,
      "hit": false,
      "t": 40071.482,
      "d": 203.12527083333407,
      "v": 80
    },
    {
      "midi": 56,
      "hit": false,
      "t": 40071.482,
      "d": 203.12527083333407,
      "v": 80
    },
    {
      "midi": 60,
      "hit": false,
      "t": 40071.482,
      "d": 203.12527083333407,
      "v": 80
    },
    {
      "midi": 41,
      "hit": false,
      "t": 40285.768000000004,
      "d": 203.12527083333407,
      "v": 80
    },
    {
      "midi": 53,
      "hit": false,
      "t": 40500.054000000004,
      "d": 203.12527083333407,
      "v": 80
    },
    {
      "midi": 56,
      "hit": false,
      "t": 40500.054000000004,
      "d": 203.12527083333407,
      "v": 80
    },
    {
      "midi": 60,
      "hit": false,
      "t": 40500.054000000004,
      "d": 203.12527083333407,
      "v": 80
    },
    {
      "midi": 79,
      "hit": false,
      "t": 40568.61500000012,
      "d": 101.33942083333386,
      "v": 96
    },
    {
      "midi": 82,
      "hit": false,
      "t": 40568.61500000012,
      "d": 101.33942083333386,
      "v": 96
    },
    {
      "midi": 76,
      "hit": false,
      "t": 40675.758000000125,
      "d": 106.69657083333004,
      "v": 96
    },
    {
      "midi": 79,
      "hit": false,
      "t": 40675.758000000125,
      "d": 106.69657083333004,
      "v": 96
    },
    {
      "midi": 36,
      "hit": false,
      "t": 40714.340000000004,
      "d": 203.12527083333407,
      "v": 80
    },
    {
      "midi": 79,
      "hit": false,
      "t": 40890.044000000125,
      "d": 508.4828208333347,
      "v": 96
    },
    {
      "midi": 82,
      "hit": false,
      "t": 40890.044000000125,
      "d": 508.4828208333347,
      "v": 96
    },
    {
      "midi": 41,
      "hit": false,
      "t": 40928.626000000004,
      "d": 203.12527083333407,
      "v": 80
    },
    {
      "midi": 53,
      "hit": false,
      "t": 40928.626000000004,
      "d": 203.12527083333407,
      "v": 80
    },
    {
      "midi": 56,
      "hit": false,
      "t": 40928.626000000004,
      "d": 203.12527083333407,
      "v": 80
    },
    {
      "midi": 60,
      "hit": false,
      "t": 40928.626000000004,
      "d": 203.12527083333407,
      "v": 80
    },
    {
      "midi": 43,
      "hit": false,
      "t": 41142.912000000004,
      "d": 203.12527083333407,
      "v": 80
    },
    {
      "midi": 52,
      "hit": false,
      "t": 41357.198000000004,
      "d": 203.12527083333407,
      "v": 80
    },
    {
      "midi": 55,
      "hit": false,
      "t": 41357.198000000004,
      "d": 203.12527083333407,
      "v": 80
    },
    {
      "midi": 58,
      "hit": false,
      "t": 41357.198000000004,
      "d": 203.12527083333407,
      "v": 80
    },
    {
      "midi": 61,
      "hit": false,
      "t": 41357.198000000004,
      "d": 203.12527083333407,
      "v": 80
    },
    {
      "midi": 82,
      "hit": false,
      "t": 41425.75900000013,
      "d": 101.33942083333386,
      "v": 96
    },
    {
      "midi": 91,
      "hit": false,
      "t": 41425.75900000013,
      "d": 101.33942083333386,
      "v": 96
    },
    {
      "midi": 94,
      "hit": false,
      "t": 41425.75900000013,
      "d": 101.33942083333386,
      "v": 96
    },
    {
      "midi": 79,
      "hit": false,
      "t": 41532.90200000013,
      "d": 106.69657083333004,
      "v": 96
    },
    {
      "midi": 88,
      "hit": false,
      "t": 41532.90200000013,
      "d": 106.69657083333004,
      "v": 96
    },
    {
      "midi": 91,
      "hit": false,
      "t": 41532.90200000013,
      "d": 106.69657083333004,
      "v": 96
    },
    {
      "midi": 36,
      "hit": false,
      "t": 41571.484000000004,
      "d": 203.12527083333407,
      "v": 80
    },
    {
      "midi": 82,
      "hit": false,
      "t": 41747.18800000013,
      "d": 203.12527083333407,
      "v": 96
    },
    {
      "midi": 91,
      "hit": false,
      "t": 41747.18800000013,
      "d": 203.12527083333407,
      "v": 96
    },
    {
      "midi": 94,
      "hit": false,
      "t": 41747.18800000013,
      "d": 203.12527083333407,
      "v": 96
    },
    {
      "midi": 52,
      "hit": false,
      "t": 41785.770000000004,
      "d": 203.12527083333407,
      "v": 80
    },
    {
      "midi": 55,
      "hit": false,
      "t": 41785.770000000004,
      "d": 203.12527083333407,
      "v": 80
    },
    {
      "midi": 58,
      "hit": false,
      "t": 41785.770000000004,
      "d": 203.12527083333407,
      "v": 80
    },
    {
      "midi": 61,
      "hit": false,
      "t": 41785.770000000004,
      "d": 203.12527083333407,
      "v": 80
    },
    {
      "midi": 85,
      "hit": false,
      "t": 41961.47400000013,
      "d": 304.9111208333343,
      "v": 96
    },
    {
      "midi": 88,
      "hit": false,
      "t": 41961.47400000013,
      "d": 304.9111208333343,
      "v": 96
    },
    {
      "midi": 94,
      "hit": false,
      "t": 41961.47400000013,
      "d": 304.9111208333343,
      "v": 96
    },
    {
      "midi": 96,
      "hit": false,
      "t": 41961.47400000013,
      "d": 304.9111208333343,
      "v": 96
    },
    {
      "midi": 97,
      "hit": false,
      "t": 41961.47400000013,
      "d": 304.9111208333343,
      "v": 96
    },
    {
      "midi": 43,
      "hit": false,
      "t": 42000.056000000004,
      "d": 203.12527083333407,
      "v": 80
    },
    {
      "midi": 52,
      "hit": false,
      "t": 42214.342000000004,
      "d": 203.12527083333407,
      "v": 80
    },
    {
      "midi": 55,
      "hit": false,
      "t": 42214.342000000004,
      "d": 203.12527083333407,
      "v": 80
    },
    {
      "midi": 58,
      "hit": false,
      "t": 42214.342000000004,
      "d": 203.12527083333407,
      "v": 80
    },
    {
      "midi": 61,
      "hit": false,
      "t": 42214.342000000004,
      "d": 203.12527083333407,
      "v": 80
    },
    {
      "midi": 88,
      "hit": false,
      "t": 42282.90300000014,
      "d": 203.12527083333407,
      "v": 96
    },
    {
      "midi": 89,
      "hit": false,
      "t": 42282.90300000014,
      "d": 203.12527083333407,
      "v": 96
    },
    {
      "midi": 48,
      "hit": false,
      "t": 42428.628000000004,
      "d": 101.33942083333386,
      "v": 80
    },
    {
      "midi": 83,
      "hit": false,
      "t": 42497.18900000014,
      "d": 106.69657083333004,
      "v": 96
    },
    {
      "midi": 84,
      "hit": false,
      "t": 42497.18900000014,
      "d": 106.69657083333004,
      "v": 96
    },
    {
      "midi": 46,
      "hit": false,
      "t": 42535.77100000001,
      "d": 101.33942083333386,
      "v": 80
    },
    {
      "midi": 58,
      "hit": false,
      "t": 42535.77100000001,
      "d": 101.33942083333386,
      "v": 80
    },
    {
      "midi": 44,
      "hit": false,
      "t": 42642.91400000001,
      "d": 101.33942083333386,
      "v": 80
    },
    {
      "midi": 56,
      "hit": false,
      "t": 42642.91400000001,
      "d": 101.33942083333386,
      "v": 80
    },
    {
      "midi": 79,
      "hit": false,
      "t": 42711.47500000014,
      "d": 106.69657083333004,
      "v": 96
    },
    {
      "midi": 80,
      "hit": false,
      "t": 42711.47500000014,
      "d": 106.69657083333004,
      "v": 96
    },
    {
      "midi": 43,
      "hit": false,
      "t": 42750.057000000015,
      "d": 101.33942083333386,
      "v": 80
    },
    {
      "midi": 55,
      "hit": false,
      "t": 42750.057000000015,
      "d": 101.33942083333386,
      "v": 80
    },
    {
      "midi": 41,
      "hit": false,
      "t": 42857.20000000002,
      "d": 203.12527083333407,
      "v": 80
    },
    {
      "midi": 53,
      "hit": false,
      "t": 42857.20000000002,
      "d": 203.12527083333407,
      "v": 80
    },
    {
      "midi": 76,
      "hit": false,
      "t": 42925.76100000014,
      "d": 106.69657083333004,
      "v": 96
    },
    {
      "midi": 77,
      "hit": false,
      "t": 42925.76100000014,
      "d": 106.69657083333004,
      "v": 96
    },
    {
      "midi": 53,
      "hit": false,
      "t": 43071.48600000002,
      "d": 203.12527083333407,
      "v": 80
    },
    {
      "midi": 56,
      "hit": false,
      "t": 43071.48600000002,
      "d": 203.12527083333407,
      "v": 80
    },
    {
      "midi": 60,
      "hit": false,
      "t": 43071.48600000002,
      "d": 203.12527083333407,
      "v": 80
    },
    {
      "midi": 79,
      "hit": false,
      "t": 43140.04700000014,
      "d": 101.33942083333386,
      "v": 96
    },
    {
      "midi": 80,
      "hit": false,
      "t": 43140.04700000014,
      "d": 101.33942083333386,
      "v": 96
    },
    {
      "midi": 82,
      "hit": false,
      "t": 43247.19000000014,
      "d": 106.69657083333004,
      "v": 96
    },
    {
      "midi": 36,
      "hit": false,
      "t": 43285.77200000002,
      "d": 203.12527083333407,
      "v": 80
    },
    {
      "midi": 79,
      "hit": false,
      "t": 43461.47600000014,
      "d": 508.4828208333347,
      "v": 96
    },
    {
      "midi": 80,
      "hit": false,
      "t": 43461.47600000014,
      "d": 508.4828208333347,
      "v": 96
    },
    {
      "midi": 41,
      "hit": false,
      "t": 43500.05800000002,
      "d": 203.12527083333407,
      "v": 80
    },
    {
      "midi": 53,
      "hit": false,
      "t": 43500.05800000002,
      "d": 203.12527083333407,
      "v": 80
    },
    {
      "midi": 56,
      "hit": false,
      "t": 43500.05800000002,
      "d": 203.12527083333407,
      "v": 80
    },
    {
      "midi": 60,
      "hit": false,
      "t": 43500.05800000002,
      "d": 203.12527083333407,
      "v": 80
    },
    {
      "midi": 43,
      "hit": false,
      "t": 43714.34400000002,
      "d": 203.12527083333407,
      "v": 80
    },
    {
      "midi": 55,
      "hit": false,
      "t": 43928.63000000002,
      "d": 203.12527083333407,
      "v": 80
    },
    {
      "midi": 58,
      "hit": false,
      "t": 43928.63000000002,
      "d": 203.12527083333407,
      "v": 80
    },
    {
      "midi": 61,
      "hit": false,
      "t": 43928.63000000002,
      "d": 203.12527083333407,
      "v": 80
    },
    {
      "midi": 79,
      "hit": false,
      "t": 43997.191000000144,
      "d": 101.33942083333386,
      "v": 96
    },
    {
      "midi": 82,
      "hit": false,
      "t": 43997.191000000144,
      "d": 101.33942083333386,
      "v": 96
    },
    {
      "midi": 76,
      "hit": false,
      "t": 44104.33400000015,
      "d": 106.69657083333004,
      "v": 96
    },
    {
      "midi": 79,
      "hit": false,
      "t": 44104.33400000015,
      "d": 106.69657083333004,
      "v": 96
    },
    {
      "midi": 43,
      "hit": false,
      "t": 44142.91600000002,
      "d": 203.12527083333407,
      "v": 80
    },
    {
      "midi": 79,
      "hit": false,
      "t": 44318.62000000015,
      "d": 508.4828208333347,
      "v": 96
    },
    {
      "midi": 82,
      "hit": false,
      "t": 44318.62000000015,
      "d": 508.4828208333347,
      "v": 96
    },
    {
      "midi": 36,
      "hit": false,
      "t": 44357.20200000002,
      "d": 203.12527083333407,
      "v": 80
    },
    {
      "midi": 55,
      "hit": false,
      "t": 44357.20200000002,
      "d": 203.12527083333407,
      "v": 80
    },
    {
      "midi": 58,
      "hit": false,
      "t": 44357.20200000002,
      "d": 203.12527083333407,
      "v": 80
    },
    {
      "midi": 61,
      "hit": false,
      "t": 44357.20200000002,
      "d": 203.12527083333407,
      "v": 80
    },
    {
      "midi": 44,
      "hit": false,
      "t": 44571.48800000002,
      "d": 203.12527083333407,
      "v": 80
    },
    {
      "midi": 56,
      "hit": false,
      "t": 44785.77400000002,
      "d": 203.12527083333407,
      "v": 80
    },
    {
      "midi": 60,
      "hit": false,
      "t": 44785.77400000002,
      "d": 203.12527083333407,
      "v": 80
    },
    {
      "midi": 63,
      "hit": false,
      "t": 44785.77400000002,
      "d": 203.12527083333407,
      "v": 80
    },
    {
      "midi": 82,
      "hit": false,
      "t": 44854.33500000015,
      "d": 101.33942083333386,
      "v": 96
    },
    {
      "midi": 91,
      "hit": false,
      "t": 44854.33500000015,
      "d": 101.33942083333386,
      "v": 96
    },
    {
      "midi": 94,
      "hit": false,
      "t": 44854.33500000015,
      "d": 101.33942083333386,
      "v": 96
    },
    {
      "midi": 79,
      "hit": false,
      "t": 44961.478000000156,
      "d": 106.69657083333004,
      "v": 96
    },
    {
      "midi": 88,
      "hit": false,
      "t": 44961.478000000156,
      "d": 106.69657083333004,
      "v": 96
    },
    {
      "midi": 91,
      "hit": false,
      "t": 44961.478000000156,
      "d": 106.69657083333004,
      "v": 96
    },
    {
      "midi": 44,
      "hit": false,
      "t": 45000.06000000002,
      "d": 203.12527083333407,
      "v": 80
    },
    {
      "midi": 84,
      "hit": false,
      "t": 45175.764000000156,
      "d": 106.69657083333004,
      "v": 96
    },
    {
      "midi": 94,
      "hit": false,
      "t": 45175.764000000156,
      "d": 106.69657083333004,
      "v": 96
    },
    {
      "midi": 96,
      "hit": false,
      "t": 45175.764000000156,
      "d": 106.69657083333004,
      "v": 96
    },
    {
      "midi": 48,
      "hit": false,
      "t": 45214.34600000002,
      "d": 203.12527083333407,
      "v": 80
    },
    {
      "midi": 56,
      "hit": false,
      "t": 45214.34600000002,
      "d": 203.12527083333407,
      "v": 80
    },
    {
      "midi": 60,
      "hit": false,
      "t": 45214.34600000002,
      "d": 203.12527083333407,
      "v": 80
    },
    {
      "midi": 63,
      "hit": false,
      "t": 45214.34600000002,
      "d": 203.12527083333407,
      "v": 80
    },
    {
      "midi": 70,
      "hit": false,
      "t": 45390.050000000156,
      "d": 101.33942083333386,
      "v": 96
    },
    {
      "midi": 82,
      "hit": false,
      "t": 45390.050000000156,
      "d": 101.33942083333386,
      "v": 96
    },
    {
      "midi": 46,
      "hit": false,
      "t": 45428.63200000002,
      "d": 203.12527083333407,
      "v": 80
    },
    {
      "midi": 68,
      "hit": false,
      "t": 45497.19300000016,
      "d": 101.33942083333386,
      "v": 96
    },
    {
      "midi": 80,
      "hit": false,
      "t": 45497.19300000016,
      "d": 101.33942083333386,
      "v": 96
    },
    {
      "midi": 67,
      "hit": false,
      "t": 45604.33600000016,
      "d": 101.33942083333386,
      "v": 96
    },
    {
      "midi": 79,
      "hit": false,
      "t": 45604.33600000016,
      "d": 101.33942083333386,
      "v": 96
    },
    {
      "midi": 58,
      "hit": false,
      "t": 45642.91800000002,
      "d": 203.12527083333407,
      "v": 80
    },
    {
      "midi": 60,
      "hit": false,
      "t": 45642.91800000002,
      "d": 203.12527083333407,
      "v": 80
    },
    {
      "midi": 61,
      "hit": false,
      "t": 45642.91800000002,
      "d": 203.12527083333407,
      "v": 80
    },
    {
      "midi": 64,
      "hit": false,
      "t": 45642.91800000002,
      "d": 203.12527083333407,
      "v": 80
    },
    {
      "midi": 68,
      "hit": false,
      "t": 45711.47900000017,
      "d": 101.33942083333386,
      "v": 96
    },
    {
      "midi": 80,
      "hit": false,
      "t": 45711.47900000017,
      "d": 101.33942083333386,
      "v": 96
    },
    {
      "midi": 65,
      "hit": false,
      "t": 45818.62200000017,
      "d": 106.69657083333004,
      "v": 96
    },
    {
      "midi": 77,
      "hit": false,
      "t": 45818.62200000017,
      "d": 106.69657083333004,
      "v": 96
    },
    {
      "midi": 40,
      "hit": false,
      "t": 45857.20400000002,
      "d": 203.12527083333407,
      "v": 80
    },
    {
      "midi": 68,
      "hit": false,
      "t": 46032.90800000017,
      "d": 513.8399708333309,
      "v": 115
    },
    {
      "midi": 80,
      "hit": false,
      "t": 46032.90800000017,
      "d": 513.8399708333309,
      "v": 115
    },
    {
      "midi": 46,
      "hit": false,
      "t": 46071.49000000002,
      "d": 203.12527083333407,
      "v": 80
    },
    {
      "midi": 58,
      "hit": false,
      "t": 46071.49000000002,
      "d": 203.12527083333407,
      "v": 80
    },
    {
      "midi": 60,
      "hit": false,
      "t": 46071.49000000002,
      "d": 203.12527083333407,
      "v": 80
    },
    {
      "midi": 61,
      "hit": false,
      "t": 46071.49000000002,
      "d": 203.12527083333407,
      "v": 80
    },
    {
      "midi": 64,
      "hit": false,
      "t": 46071.49000000002,
      "d": 203.12527083333407,
      "v": 80
    },
    {
      "midi": 48,
      "hit": false,
      "t": 46285.77600000002,
      "d": 101.33942083333386,
      "v": 80
    },
    {
      "midi": 60,
      "hit": false,
      "t": 46285.77600000002,
      "d": 101.33942083333386,
      "v": 80
    },
    {
      "midi": 48,
      "hit": false,
      "t": 46392.91900000002,
      "d": 101.33942083333386,
      "v": 80
    },
    {
      "midi": 60,
      "hit": false,
      "t": 46392.91900000002,
      "d": 101.33942083333386,
      "v": 80
    },
    {
      "midi": 48,
      "hit": false,
      "t": 46500.06200000003,
      "d": 106.69657083333004,
      "v": 80
    },
    {
      "midi": 60,
      "hit": false,
      "t": 46500.06200000003,
      "d": 106.69657083333004,
      "v": 80
    },
    {
      "midi": 70,
      "hit": false,
      "t": 46568.62300000017,
      "d": 101.33942083333386,
      "v": 96
    },
    {
      "midi": 82,
      "hit": false,
      "t": 46568.62300000017,
      "d": 101.33942083333386,
      "v": 96
    },
    {
      "midi": 67,
      "hit": false,
      "t": 46675.76600000017,
      "d": 106.69657083333004,
      "v": 96
    },
    {
      "midi": 79,
      "hit": false,
      "t": 46675.76600000017,
      "d": 106.69657083333004,
      "v": 96
    },
    {
      "midi": 24,
      "hit": false,
      "t": 46714.34800000003,
      "d": 428.12557083333377,
      "v": 96
    },
    {
      "midi": 36,
      "hit": false,
      "t": 46714.34800000003,
      "d": 428.12557083333377,
      "v": 96
    },
    {
      "midi": 70,
      "hit": false,
      "t": 46890.05200000017,
      "d": 513.8399708333309,
      "v": 115
    },
    {
      "midi": 82,
      "hit": false,
      "t": 46890.05200000017,
      "d": 513.8399708333309,
      "v": 115
    },
    {
      "midi": 46,
      "hit": false,
      "t": 47142.92000000003,
      "d": 101.33942083333386,
      "v": 80
    },
    {
      "midi": 58,
      "hit": false,
      "t": 47142.92000000003,
      "d": 101.33942083333386,
      "v": 80
    },
    {
      "midi": 46,
      "hit": false,
      "t": 47250.06300000003,
      "d": 101.33942083333386,
      "v": 80
    },
    {
      "midi": 58,
      "hit": false,
      "t": 47250.06300000003,
      "d": 101.33942083333386,
      "v": 80
    },
    {
      "midi": 46,
      "hit": false,
      "t": 47357.206000000035,
      "d": 106.69657083333004,
      "v": 80
    },
    {
      "midi": 58,
      "hit": false,
      "t": 47357.206000000035,
      "d": 106.69657083333004,
      "v": 80
    },
    {
      "midi": 72,
      "hit": false,
      "t": 47425.76700000017,
      "d": 101.33942083333386,
      "v": 96
    },
    {
      "midi": 84,
      "hit": false,
      "t": 47425.76700000017,
      "d": 101.33942083333386,
      "v": 96
    },
    {
      "midi": 68,
      "hit": false,
      "t": 47532.91000000017,
      "d": 106.69657083333004,
      "v": 96
    },
    {
      "midi": 80,
      "hit": false,
      "t": 47532.91000000017,
      "d": 106.69657083333004,
      "v": 96
    },
    {
      "midi": 24,
      "hit": false,
      "t": 47571.492000000035,
      "d": 428.12557083333377,
      "v": 96
    },
    {
      "midi": 36,
      "hit": false,
      "t": 47571.492000000035,
      "d": 428.12557083333377,
      "v": 96
    },
    {
      "midi": 72,
      "hit": false,
      "t": 47747.19600000017,
      "d": 513.8399708333309,
      "v": 115
    },
    {
      "midi": 84,
      "hit": false,
      "t": 47747.19600000017,
      "d": 513.8399708333309,
      "v": 115
    },
    {
      "midi": 49,
      "hit": false,
      "t": 48000.064000000035,
      "d": 101.33942083333386,
      "v": 80
    },
    {
      "midi": 61,
      "hit": false,
      "t": 48000.064000000035,
      "d": 101.33942083333386,
      "v": 80
    },
    {
      "midi": 49,
      "hit": false,
      "t": 48107.20700000004,
      "d": 101.33942083333386,
      "v": 80
    },
    {
      "midi": 61,
      "hit": false,
      "t": 48107.20700000004,
      "d": 101.33942083333386,
      "v": 80
    },
    {
      "midi": 49,
      "hit": false,
      "t": 48214.35000000004,
      "d": 106.69657083333004,
      "v": 80
    },
    {
      "midi": 61,
      "hit": false,
      "t": 48214.35000000004,
      "d": 106.69657083333004,
      "v": 80
    },
    {
      "midi": 73,
      "hit": false,
      "t": 48282.91100000017,
      "d": 101.33942083333386,
      "v": 96
    },
    {
      "midi": 85,
      "hit": false,
      "t": 48282.91100000017,
      "d": 101.33942083333386,
      "v": 96
    },
    {
      "midi": 70,
      "hit": false,
      "t": 48390.05400000017,
      "d": 106.69657083333004,
      "v": 96
    },
    {
      "midi": 82,
      "hit": false,
      "t": 48390.05400000017,
      "d": 106.69657083333004,
      "v": 96
    },
    {
      "midi": 41,
      "hit": false,
      "t": 48428.63600000004,
      "d": 304.9111208333343,
      "v": 80
    },
    {
      "midi": 53,
      "hit": false,
      "t": 48428.63600000004,
      "d": 304.9111208333343,
      "v": 80
    },
    {
      "midi": 65,
      "hit": false,
      "t": 48428.63600000004,
      "d": 304.9111208333343,
      "v": 80
    },
    {
      "midi": 73,
      "hit": false,
      "t": 48604.34000000017,
      "d": 513.8399708333309,
      "v": 115
    },
    {
      "midi": 85,
      "hit": false,
      "t": 48604.34000000017,
      "d": 513.8399708333309,
      "v": 115
    },
    {
      "midi": 40,
      "hit": false,
      "t": 48750.065000000046,
      "d": 101.33942083333386,
      "v": 80
    },
    {
      "midi": 52,
      "hit": false,
      "t": 48750.065000000046,
      "d": 101.33942083333386,
      "v": 80
    },
    {
      "midi": 64,
      "hit": false,
      "t": 48750.065000000046,
      "d": 101.33942083333386,
      "v": 80
    },
    {
      "midi": 60,
      "hit": false,
      "t": 48964.351000000046,
      "d": 101.33942083333386,
      "v": 80
    },
    {
      "midi": 59,
      "hit": false,
      "t": 49071.49400000005,
      "d": 101.33942083333386,
      "v": 80
    },
    {
      "midi": 72,
      "hit": false,
      "t": 49140.05500000017,
      "d": 101.33942083333386,
      "v": 96
    },
    {
      "midi": 84,
      "hit": false,
      "t": 49140.05500000017,
      "d": 101.33942083333386,
      "v": 96
    },
    {
      "midi": 58,
      "hit": false,
      "t": 49178.63700000005,
      "d": 101.33942083333386,
      "v": 80
    },
    {
      "midi": 72,
      "hit": false,
      "t": 49247.19800000017,
      "d": 101.33942083333386,
      "v": 96
    },
    {
      "midi": 84,
      "hit": false,
      "t": 49247.19800000017,
      "d": 101.33942083333386,
      "v": 96
    },
    {
      "midi": 57,
      "hit": false,
      "t": 49285.78000000006,
      "d": 101.33942083333386,
      "v": 80
    },
    {
      "midi": 72,
      "hit": false,
      "t": 49354.341000000175,
      "d": 106.69657083333004,
      "v": 96
    },
    {
      "midi": 84,
      "hit": false,
      "t": 49354.341000000175,
      "d": 106.69657083333004,
      "v": 96
    },
    {
      "midi": 56,
      "hit": false,
      "t": 49392.92300000006,
      "d": 101.33942083333386,
      "v": 80
    },
    {
      "midi": 55,
      "hit": false,
      "t": 49500.066000000064,
      "d": 101.33942083333386,
      "v": 80
    },
    {
      "midi": 54,
      "hit": false,
      "t": 49607.20900000007,
      "d": 101.33942083333386,
      "v": 80
    },
    {
      "midi": 41,
      "hit": false,
      "t": 49714.35200000007,
      "d": 203.12527083333407,
      "v": 80
    },
    {
      "midi": 53,
      "hit": false,
      "t": 49928.63800000007,
      "d": 203.12527083333407,
      "v": 80
    },
    {
      "midi": 56,
      "hit": false,
      "t": 49928.63800000007,
      "d": 203.12527083333407,
      "v": 80
    },
    {
      "midi": 60,
      "hit": false,
      "t": 49928.63800000007,
      "d": 203.12527083333407,
      "v": 80
    },
    {
      "midi": 70,
      "hit": false,
      "t": 49997.199000000175,
      "d": 101.33942083333386,
      "v": 96
    },
    {
      "midi": 82,
      "hit": false,
      "t": 49997.199000000175,
      "d": 101.33942083333386,
      "v": 96
    },
    {
      "midi": 70,
      "hit": false,
      "t": 50104.34200000018,
      "d": 101.33942083333386,
      "v": 96
    },
    {
      "midi": 82,
      "hit": false,
      "t": 50104.34200000018,
      "d": 101.33942083333386,
      "v": 96
    },
    {
      "midi": 36,
      "hit": false,
      "t": 50142.92400000007,
      "d": 203.12527083333407,
      "v": 80
    },
    {
      "midi": 70,
      "hit": false,
      "t": 50211.48500000018,
      "d": 106.69657083333004,
      "v": 96
    },
    {
      "midi": 82,
      "hit": false,
      "t": 50211.48500000018,
      "d": 106.69657083333004,
      "v": 96
    },
    {
      "midi": 53,
      "hit": false,
      "t": 50357.21000000007,
      "d": 203.12527083333407,
      "v": 80
    },
    {
      "midi": 56,
      "hit": false,
      "t": 50357.21000000007,
      "d": 203.12527083333407,
      "v": 80
    },
    {
      "midi": 60,
      "hit": false,
      "t": 50357.21000000007,
      "d": 203.12527083333407,
      "v": 80
    },
    {
      "midi": 41,
      "hit": false,
      "t": 50571.49600000007,
      "d": 203.12527083333407,
      "v": 80
    },
    {
      "midi": 53,
      "hit": false,
      "t": 50785.78200000007,
      "d": 203.12527083333407,
      "v": 80
    },
    {
      "midi": 56,
      "hit": false,
      "t": 50785.78200000007,
      "d": 203.12527083333407,
      "v": 80
    },
    {
      "midi": 60,
      "hit": false,
      "t": 50785.78200000007,
      "d": 203.12527083333407,
      "v": 80
    },
    {
      "midi": 73,
      "hit": false,
      "t": 50854.34300000018,
      "d": 101.33942083333386,
      "v": 96
    },
    {
      "midi": 85,
      "hit": false,
      "t": 50854.34300000018,
      "d": 101.33942083333386,
      "v": 96
    },
    {
      "midi": 73,
      "hit": false,
      "t": 50961.486000000186,
      "d": 101.33942083333386,
      "v": 96
    },
    {
      "midi": 85,
      "hit": false,
      "t": 50961.486000000186,
      "d": 101.33942083333386,
      "v": 96
    },
    {
      "midi": 36,
      "hit": false,
      "t": 51000.06800000007,
      "d": 203.12527083333407,
      "v": 80
    },
    {
      "midi": 73,
      "hit": false,
      "t": 51068.62900000019,
      "d": 106.69657083333004,
      "v": 96
    },
    {
      "midi": 85,
      "hit": false,
      "t": 51068.62900000019,
      "d": 106.69657083333004,
      "v": 96
    },
    {
      "midi": 41,
      "hit": false,
      "t": 51214.35400000007,
      "d": 203.12527083333407,
      "v": 80
    },
    {
      "midi": 53,
      "hit": false,
      "t": 51214.35400000007,
      "d": 203.12527083333407,
      "v": 80
    },
    {
      "midi": 56,
      "hit": false,
      "t": 51214.35400000007,
      "d": 203.12527083333407,
      "v": 80
    },
    {
      "midi": 60,
      "hit": false,
      "t": 51214.35400000007,
      "d": 203.12527083333407,
      "v": 80
    },
    {
      "midi": 77,
      "hit": false,
      "t": 51282.91500000019,
      "d": 304.9111208333343,
      "v": 96
    },
    {
      "midi": 89,
      "hit": false,
      "t": 51282.91500000019,
      "d": 304.9111208333343,
      "v": 96
    },
    {
      "midi": 43,
      "hit": false,
      "t": 51428.64000000007,
      "d": 203.12527083333407,
      "v": 80
    },
    {
      "midi": 76,
      "hit": false,
      "t": 51604.344000000194,
      "d": 101.33942083333386,
      "v": 96
    },
    {
      "midi": 88,
      "hit": false,
      "t": 51604.344000000194,
      "d": 101.33942083333386,
      "v": 96
    },
    {
      "midi": 52,
      "hit": false,
      "t": 51642.92600000007,
      "d": 203.12527083333407,
      "v": 80
    },
    {
      "midi": 55,
      "hit": false,
      "t": 51642.92600000007,
      "d": 203.12527083333407,
      "v": 80
    },
    {
      "midi": 58,
      "hit": false,
      "t": 51642.92600000007,
      "d": 203.12527083333407,
      "v": 80
    },
    {
      "midi": 61,
      "hit": false,
      "t": 51642.92600000007,
      "d": 203.12527083333407,
      "v": 80
    },
    {
      "midi": 76,
      "hit": false,
      "t": 51818.630000000194,
      "d": 101.33942083333386,
      "v": 96
    },
    {
      "midi": 88,
      "hit": false,
      "t": 51818.630000000194,
      "d": 101.33942083333386,
      "v": 96
    },
    {
      "midi": 36,
      "hit": false,
      "t": 51857.21200000007,
      "d": 203.12527083333407,
      "v": 80
    },
    {
      "midi": 71,
      "hit": false,
      "t": 51925.7730000002,
      "d": 101.33942083333386,
      "v": 96
    },
    {
      "midi": 83,
      "hit": false,
      "t": 51925.7730000002,
      "d": 101.33942083333386,
      "v": 96
    },
    {
      "midi": 72,
      "hit": false,
      "t": 52032.9160000002,
      "d": 101.33942083333386,
      "v": 96
    },
    {
      "midi": 84,
      "hit": false,
      "t": 52032.9160000002,
      "d": 101.33942083333386,
      "v": 96
    },
    {
      "midi": 52,
      "hit": false,
      "t": 52071.49800000007,
      "d": 203.12527083333407,
      "v": 80
    },
    {
      "midi": 55,
      "hit": false,
      "t": 52071.49800000007,
      "d": 203.12527083333407,
      "v": 80
    },
    {
      "midi": 58,
      "hit": false,
      "t": 52071.49800000007,
      "d": 203.12527083333407,
      "v": 80
    },
    {
      "midi": 61,
      "hit": false,
      "t": 52071.49800000007,
      "d": 203.12527083333407,
      "v": 80
    },
    {
      "midi": 73,
      "hit": false,
      "t": 52140.059000000205,
      "d": 101.33942083333386,
      "v": 96
    },
    {
      "midi": 85,
      "hit": false,
      "t": 52140.059000000205,
      "d": 101.33942083333386,
      "v": 96
    },
    {
      "midi": 74,
      "hit": false,
      "t": 52247.20200000021,
      "d": 101.33942083333386,
      "v": 96
    },
    {
      "midi": 86,
      "hit": false,
      "t": 52247.20200000021,
      "d": 101.33942083333386,
      "v": 96
    },
    {
      "midi": 43,
      "hit": false,
      "t": 52285.78400000007,
      "d": 203.12527083333407,
      "v": 80
    },
    {
      "midi": 75,
      "hit": false,
      "t": 52354.34500000021,
      "d": 101.33942083333386,
      "v": 96
    },
    {
      "midi": 87,
      "hit": false,
      "t": 52354.34500000021,
      "d": 101.33942083333386,
      "v": 96
    },
    {
      "midi": 76,
      "hit": false,
      "t": 52461.488000000216,
      "d": 101.33942083333386,
      "v": 96
    },
    {
      "midi": 88,
      "hit": false,
      "t": 52461.488000000216,
      "d": 101.33942083333386,
      "v": 96
    },
    {
      "midi": 52,
      "hit": false,
      "t": 52500.07000000007,
      "d": 203.12527083333407,
      "v": 80
    },
    {
      "midi": 55,
      "hit": false,
      "t": 52500.07000000007,
      "d": 203.12527083333407,
      "v": 80
    },
    {
      "midi": 58,
      "hit": false,
      "t": 52500.07000000007,
      "d": 203.12527083333407,
      "v": 80
    },
    {
      "midi": 61,
      "hit": false,
      "t": 52500.07000000007,
      "d": 203.12527083333407,
      "v": 80
    },
    {
      "midi": 77,
      "hit": false,
      "t": 52568.63100000022,
      "d": 203.12527083333407,
      "v": 96
    },
    {
      "midi": 88,
      "hit": false,
      "t": 52568.63100000022,
      "d": 203.12527083333407,
      "v": 96
    },
    {
      "midi": 89,
      "hit": false,
      "t": 52568.63100000022,
      "d": 203.12527083333407,
      "v": 96
    },
    {
      "midi": 48,
      "hit": false,
      "t": 52714.35600000007,
      "d": 203.12527083333407,
      "v": 80
    },
    {
      "midi": 83,
      "hit": false,
      "t": 52782.91700000022,
      "d": 106.69657083333004,
      "v": 96
    },
    {
      "midi": 84,
      "hit": false,
      "t": 52782.91700000022,
      "d": 106.69657083333004,
      "v": 96
    },
    {
      "midi": 43,
      "hit": false,
      "t": 52928.64200000007,
      "d": 203.12527083333407,
      "v": 80
    },
    {
      "midi": 52,
      "hit": false,
      "t": 52928.64200000007,
      "d": 203.12527083333407,
      "v": 80
    },
    {
      "midi": 55,
      "hit": false,
      "t": 52928.64200000007,
      "d": 203.12527083333407,
      "v": 80
    },
    {
      "midi": 58,
      "hit": false,
      "t": 52928.64200000007,
      "d": 203.12527083333407,
      "v": 80
    },
    {
      "midi": 61,
      "hit": false,
      "t": 52928.64200000007,
      "d": 203.12527083333407,
      "v": 80
    },
    {
      "midi": 79,
      "hit": false,
      "t": 52997.20300000022,
      "d": 106.69657083333004,
      "v": 96
    },
    {
      "midi": 80,
      "hit": false,
      "t": 52997.20300000022,
      "d": 106.69657083333004,
      "v": 96
    },
    {
      "midi": 41,
      "hit": false,
      "t": 53142.92800000007,
      "d": 203.12527083333407,
      "v": 80
    },
    {
      "midi": 76,
      "hit": false,
      "t": 53211.48900000022,
      "d": 106.69657083333004,
      "v": 96
    },
    {
      "midi": 77,
      "hit": false,
      "t": 53211.48900000022,
      "d": 106.69657083333004,
      "v": 96
    },
    {
      "midi": 53,
      "hit": false,
      "t": 53357.21400000007,
      "d": 203.12527083333407,
      "v": 80
    },
    {
      "midi": 56,
      "hit": false,
      "t": 53357.21400000007,
      "d": 203.12527083333407,
      "v": 80
    },
    {
      "midi": 60,
      "hit": false,
      "t": 53357.21400000007,
      "d": 203.12527083333407,
      "v": 80
    },
    {
      "midi": 79,
      "hit": false,
      "t": 53425.77500000022,
      "d": 101.33942083333386,
      "v": 96
    },
    {
      "midi": 80,
      "hit": false,
      "t": 53425.77500000022,
      "d": 101.33942083333386,
      "v": 96
    },
    {
      "midi": 82,
      "hit": false,
      "t": 53532.91800000022,
      "d": 106.69657083333004,
      "v": 96
    },
    {
      "midi": 36,
      "hit": false,
      "t": 53571.50000000007,
      "d": 203.12527083333407,
      "v": 80
    },
    {
      "midi": 79,
      "hit": false,
      "t": 53747.20400000022,
      "d": 508.4828208333347,
      "v": 96
    },
    {
      "midi": 80,
      "hit": false,
      "t": 53747.20400000022,
      "d": 508.4828208333347,
      "v": 96
    },
    {
      "midi": 53,
      "hit": false,
      "t": 53785.78600000007,
      "d": 203.12527083333407,
      "v": 80
    },
    {
      "midi": 56,
      "hit": false,
      "t": 53785.78600000007,
      "d": 203.12527083333407,
      "v": 80
    },
    {
      "midi": 60,
      "hit": false,
      "t": 53785.78600000007,
      "d": 203.12527083333407,
      "v": 80
    },
    {
      "midi": 41,
      "hit": false,
      "t": 54000.07200000007,
      "d": 203.12527083333407,
      "v": 80
    },
    {
      "midi": 53,
      "hit": false,
      "t": 54214.35800000007,
      "d": 203.12527083333407,
      "v": 80
    },
    {
      "midi": 56,
      "hit": false,
      "t": 54214.35800000007,
      "d": 203.12527083333407,
      "v": 80
    },
    {
      "midi": 60,
      "hit": false,
      "t": 54214.35800000007,
      "d": 203.12527083333407,
      "v": 80
    },
    {
      "midi": 79,
      "hit": false,
      "t": 54282.91900000023,
      "d": 101.33942083333386,
      "v": 96
    },
    {
      "midi": 82,
      "hit": false,
      "t": 54282.91900000023,
      "d": 101.33942083333386,
      "v": 96
    },
    {
      "midi": 76,
      "hit": false,
      "t": 54390.06200000023,
      "d": 106.69657083333004,
      "v": 96
    },
    {
      "midi": 79,
      "hit": false,
      "t": 54390.06200000023,
      "d": 106.69657083333004,
      "v": 96
    },
    {
      "midi": 36,
      "hit": false,
      "t": 54428.64400000007,
      "d": 203.12527083333407,
      "v": 80
    },
    {
      "midi": 79,
      "hit": false,
      "t": 54604.34800000023,
      "d": 508.4828208333347,
      "v": 96
    },
    {
      "midi": 82,
      "hit": false,
      "t": 54604.34800000023,
      "d": 508.4828208333347,
      "v": 96
    },
    {
      "midi": 41,
      "hit": false,
      "t": 54642.93000000007,
      "d": 203.12527083333407,
      "v": 80
    },
    {
      "midi": 53,
      "hit": false,
      "t": 54642.93000000007,
      "d": 203.12527083333407,
      "v": 80
    },
    {
      "midi": 56,
      "hit": false,
      "t": 54642.93000000007,
      "d": 203.12527083333407,
      "v": 80
    },
    {
      "midi": 60,
      "hit": false,
      "t": 54642.93000000007,
      "d": 203.12527083333407,
      "v": 80
    },
    {
      "midi": 43,
      "hit": false,
      "t": 54857.21600000007,
      "d": 203.12527083333407,
      "v": 80
    },
    {
      "midi": 52,
      "hit": false,
      "t": 55071.50200000007,
      "d": 203.12527083333407,
      "v": 80
    },
    {
      "midi": 55,
      "hit": false,
      "t": 55071.50200000007,
      "d": 203.12527083333407,
      "v": 80
    },
    {
      "midi": 58,
      "hit": false,
      "t": 55071.50200000007,
      "d": 203.12527083333407,
      "v": 80
    },
    {
      "midi": 61,
      "hit": false,
      "t": 55071.50200000007,
      "d": 203.12527083333407,
      "v": 80
    },
    {
      "midi": 82,
      "hit": false,
      "t": 55140.063000000235,
      "d": 101.33942083333386,
      "v": 96
    },
    {
      "midi": 91,
      "hit": false,
      "t": 55140.063000000235,
      "d": 101.33942083333386,
      "v": 96
    },
    {
      "midi": 94,
      "hit": false,
      "t": 55140.063000000235,
      "d": 101.33942083333386,
      "v": 96
    },
    {
      "midi": 79,
      "hit": false,
      "t": 55247.20600000024,
      "d": 106.69657083333004,
      "v": 96
    },
    {
      "midi": 88,
      "hit": false,
      "t": 55247.20600000024,
      "d": 106.69657083333004,
      "v": 96
    },
    {
      "midi": 91,
      "hit": false,
      "t": 55247.20600000024,
      "d": 106.69657083333004,
      "v": 96
    },
    {
      "midi": 36,
      "hit": false,
      "t": 55285.78800000007,
      "d": 203.12527083333407,
      "v": 80
    },
    {
      "midi": 82,
      "hit": false,
      "t": 55461.49200000024,
      "d": 203.12527083333407,
      "v": 96
    },
    {
      "midi": 91,
      "hit": false,
      "t": 55461.49200000024,
      "d": 203.12527083333407,
      "v": 96
    },
    {
      "midi": 94,
      "hit": false,
      "t": 55461.49200000024,
      "d": 203.12527083333407,
      "v": 96
    },
    {
      "midi": 52,
      "hit": false,
      "t": 55500.07400000007,
      "d": 203.12527083333407,
      "v": 80
    },
    {
      "midi": 55,
      "hit": false,
      "t": 55500.07400000007,
      "d": 203.12527083333407,
      "v": 80
    },
    {
      "midi": 58,
      "hit": false,
      "t": 55500.07400000007,
      "d": 203.12527083333407,
      "v": 80
    },
    {
      "midi": 61,
      "hit": false,
      "t": 55500.07400000007,
      "d": 203.12527083333407,
      "v": 80
    },
    {
      "midi": 85,
      "hit": false,
      "t": 55675.77800000024,
      "d": 304.9111208333343,
      "v": 96
    },
    {
      "midi": 88,
      "hit": false,
      "t": 55675.77800000024,
      "d": 304.9111208333343,
      "v": 96
    },
    {
      "midi": 94,
      "hit": false,
      "t": 55675.77800000024,
      "d": 304.9111208333343,
      "v": 96
    },
    {
      "midi": 96,
      "hit": false,
      "t": 55675.77800000024,
      "d": 304.9111208333343,
      "v": 96
    },
    {
      "midi": 97,
      "hit": false,
      "t": 55675.77800000024,
      "d": 304.9111208333343,
      "v": 96
    },
    {
      "midi": 43,
      "hit": false,
      "t": 55714.36000000007,
      "d": 203.12527083333407,
      "v": 80
    },
    {
      "midi": 52,
      "hit": false,
      "t": 55928.64600000007,
      "d": 203.12527083333407,
      "v": 80
    },
    {
      "midi": 55,
      "hit": false,
      "t": 55928.64600000007,
      "d": 203.12527083333407,
      "v": 80
    },
    {
      "midi": 58,
      "hit": false,
      "t": 55928.64600000007,
      "d": 203.12527083333407,
      "v": 80
    },
    {
      "midi": 61,
      "hit": false,
      "t": 55928.64600000007,
      "d": 203.12527083333407,
      "v": 80
    },
    {
      "midi": 88,
      "hit": false,
      "t": 55997.20700000024,
      "d": 203.12527083333407,
      "v": 96
    },
    {
      "midi": 89,
      "hit": false,
      "t": 55997.20700000024,
      "d": 203.12527083333407,
      "v": 96
    },
    {
      "midi": 48,
      "hit": false,
      "t": 56142.93200000007,
      "d": 101.33942083333386,
      "v": 80
    },
    {
      "midi": 83,
      "hit": false,
      "t": 56211.49300000024,
      "d": 106.69657083333004,
      "v": 96
    },
    {
      "midi": 84,
      "hit": false,
      "t": 56211.49300000024,
      "d": 106.69657083333004,
      "v": 96
    },
    {
      "midi": 46,
      "hit": false,
      "t": 56250.07500000008,
      "d": 101.33942083333386,
      "v": 80
    },
    {
      "midi": 58,
      "hit": false,
      "t": 56250.07500000008,
      "d": 101.33942083333386,
      "v": 80
    },
    {
      "midi": 44,
      "hit": false,
      "t": 56357.21800000008,
      "d": 101.33942083333386,
      "v": 80
    },
    {
      "midi": 56,
      "hit": false,
      "t": 56357.21800000008,
      "d": 101.33942083333386,
      "v": 80
    },
    {
      "midi": 79,
      "hit": false,
      "t": 56425.77900000024,
      "d": 106.69657083333004,
      "v": 96
    },
    {
      "midi": 80,
      "hit": false,
      "t": 56425.77900000024,
      "d": 106.69657083333004,
      "v": 96
    },
    {
      "midi": 43,
      "hit": false,
      "t": 56464.361000000084,
      "d": 101.33942083333386,
      "v": 80
    },
    {
      "midi": 55,
      "hit": false,
      "t": 56464.361000000084,
      "d": 101.33942083333386,
      "v": 80
    },
    {
      "midi": 41,
      "hit": false,
      "t": 56571.50400000009,
      "d": 203.12527083333407,
      "v": 80
    },
    {
      "midi": 53,
      "hit": false,
      "t": 56571.50400000009,
      "d": 203.12527083333407,
      "v": 80
    },
    {
      "midi": 76,
      "hit": false,
      "t": 56640.06500000024,
      "d": 106.69657083333004,
      "v": 96
    },
    {
      "midi": 77,
      "hit": false,
      "t": 56640.06500000024,
      "d": 106.69657083333004,
      "v": 96
    },
    {
      "midi": 53,
      "hit": false,
      "t": 56785.79000000009,
      "d": 203.12527083333407,
      "v": 80
    },
    {
      "midi": 56,
      "hit": false,
      "t": 56785.79000000009,
      "d": 203.12527083333407,
      "v": 80
    },
    {
      "midi": 60,
      "hit": false,
      "t": 56785.79000000009,
      "d": 203.12527083333407,
      "v": 80
    },
    {
      "midi": 79,
      "hit": false,
      "t": 56854.35100000024,
      "d": 101.33942083333386,
      "v": 96
    },
    {
      "midi": 80,
      "hit": false,
      "t": 56854.35100000024,
      "d": 101.33942083333386,
      "v": 96
    },
    {
      "midi": 82,
      "hit": false,
      "t": 56961.494000000246,
      "d": 106.69657083333004,
      "v": 96
    },
    {
      "midi": 36,
      "hit": false,
      "t": 57000.07600000009,
      "d": 203.12527083333407,
      "v": 80
    },
    {
      "midi": 79,
      "hit": false,
      "t": 57175.780000000246,
      "d": 508.4828208333347,
      "v": 96
    },
    {
      "midi": 80,
      "hit": false,
      "t": 57175.780000000246,
      "d": 508.4828208333347,
      "v": 96
    },
    {
      "midi": 41,
      "hit": false,
      "t": 57214.36200000009,
      "d": 203.12527083333407,
      "v": 80
    },
    {
      "midi": 53,
      "hit": false,
      "t": 57214.36200000009,
      "d": 203.12527083333407,
      "v": 80
    },
    {
      "midi": 56,
      "hit": false,
      "t": 57214.36200000009,
      "d": 203.12527083333407,
      "v": 80
    },
    {
      "midi": 60,
      "hit": false,
      "t": 57214.36200000009,
      "d": 203.12527083333407,
      "v": 80
    },
    {
      "midi": 43,
      "hit": false,
      "t": 57428.64800000009,
      "d": 203.12527083333407,
      "v": 80
    },
    {
      "midi": 55,
      "hit": false,
      "t": 57642.93400000009,
      "d": 203.12527083333407,
      "v": 80
    },
    {
      "midi": 58,
      "hit": false,
      "t": 57642.93400000009,
      "d": 203.12527083333407,
      "v": 80
    },
    {
      "midi": 61,
      "hit": false,
      "t": 57642.93400000009,
      "d": 203.12527083333407,
      "v": 80
    },
    {
      "midi": 79,
      "hit": false,
      "t": 57711.49500000025,
      "d": 101.33942083333386,
      "v": 96
    },
    {
      "midi": 82,
      "hit": false,
      "t": 57711.49500000025,
      "d": 101.33942083333386,
      "v": 96
    },
    {
      "midi": 76,
      "hit": false,
      "t": 57818.638000000254,
      "d": 106.69657083333004,
      "v": 96
    },
    {
      "midi": 79,
      "hit": false,
      "t": 57818.638000000254,
      "d": 106.69657083333004,
      "v": 96
    },
    {
      "midi": 43,
      "hit": false,
      "t": 57857.22000000009,
      "d": 203.12527083333407,
      "v": 80
    },
    {
      "midi": 79,
      "hit": false,
      "t": 58032.924000000254,
      "d": 508.4828208333347,
      "v": 96
    },
    {
      "midi": 82,
      "hit": false,
      "t": 58032.924000000254,
      "d": 508.4828208333347,
      "v": 96
    },
    {
      "midi": 36,
      "hit": false,
      "t": 58071.50600000009,
      "d": 203.12527083333407,
      "v": 80
    },
    {
      "midi": 55,
      "hit": false,
      "t": 58071.50600000009,
      "d": 203.12527083333407,
      "v": 80
    },
    {
      "midi": 58,
      "hit": false,
      "t": 58071.50600000009,
      "d": 203.12527083333407,
      "v": 80
    },
    {
      "midi": 61,
      "hit": false,
      "t": 58071.50600000009,
      "d": 203.12527083333407,
      "v": 80
    },
    {
      "midi": 44,
      "hit": false,
      "t": 58285.79200000009,
      "d": 203.12527083333407,
      "v": 80
    },
    {
      "midi": 56,
      "hit": false,
      "t": 58500.07800000009,
      "d": 203.12527083333407,
      "v": 80
    },
    {
      "midi": 60,
      "hit": false,
      "t": 58500.07800000009,
      "d": 203.12527083333407,
      "v": 80
    },
    {
      "midi": 63,
      "hit": false,
      "t": 58500.07800000009,
      "d": 203.12527083333407,
      "v": 80
    },
    {
      "midi": 82,
      "hit": false,
      "t": 58568.63900000026,
      "d": 101.33942083333386,
      "v": 96
    },
    {
      "midi": 91,
      "hit": false,
      "t": 58568.63900000026,
      "d": 101.33942083333386,
      "v": 96
    },
    {
      "midi": 94,
      "hit": false,
      "t": 58568.63900000026,
      "d": 101.33942083333386,
      "v": 96
    },
    {
      "midi": 79,
      "hit": false,
      "t": 58675.78200000026,
      "d": 106.69657083333004,
      "v": 96
    },
    {
      "midi": 88,
      "hit": false,
      "t": 58675.78200000026,
      "d": 106.69657083333004,
      "v": 96
    },
    {
      "midi": 91,
      "hit": false,
      "t": 58675.78200000026,
      "d": 106.69657083333004,
      "v": 96
    },
    {
      "midi": 44,
      "hit": false,
      "t": 58714.36400000009,
      "d": 203.12527083333407,
      "v": 80
    },
    {
      "midi": 84,
      "hit": false,
      "t": 58890.06800000026,
      "d": 106.69657083333004,
      "v": 96
    },
    {
      "midi": 94,
      "hit": false,
      "t": 58890.06800000026,
      "d": 106.69657083333004,
      "v": 96
    },
    {
      "midi": 96,
      "hit": false,
      "t": 58890.06800000026,
      "d": 106.69657083333004,
      "v": 96
    },
    {
      "midi": 48,
      "hit": false,
      "t": 58928.65000000009,
      "d": 203.12527083333407,
      "v": 80
    },
    {
      "midi": 56,
      "hit": false,
      "t": 58928.65000000009,
      "d": 203.12527083333407,
      "v": 80
    },
    {
      "midi": 60,
      "hit": false,
      "t": 58928.65000000009,
      "d": 203.12527083333407,
      "v": 80
    },
    {
      "midi": 63,
      "hit": false,
      "t": 58928.65000000009,
      "d": 203.12527083333407,
      "v": 80
    },
    {
      "midi": 70,
      "hit": false,
      "t": 59104.35400000026,
      "d": 101.33942083333386,
      "v": 96
    },
    {
      "midi": 82,
      "hit": false,
      "t": 59104.35400000026,
      "d": 101.33942083333386,
      "v": 96
    },
    {
      "midi": 46,
      "hit": false,
      "t": 59142.93600000009,
      "d": 203.12527083333407,
      "v": 80
    },
    {
      "midi": 68,
      "hit": false,
      "t": 59211.497000000265,
      "d": 101.33942083333386,
      "v": 96
    },
    {
      "midi": 80,
      "hit": false,
      "t": 59211.497000000265,
      "d": 101.33942083333386,
      "v": 96
    },
    {
      "midi": 67,
      "hit": false,
      "t": 59318.64000000027,
      "d": 101.33942083333386,
      "v": 96
    },
    {
      "midi": 79,
      "hit": false,
      "t": 59318.64000000027,
      "d": 101.33942083333386,
      "v": 96
    },
    {
      "midi": 58,
      "hit": false,
      "t": 59357.22200000009,
      "d": 203.12527083333407,
      "v": 80
    },
    {
      "midi": 60,
      "hit": false,
      "t": 59357.22200000009,
      "d": 203.12527083333407,
      "v": 80
    },
    {
      "midi": 61,
      "hit": false,
      "t": 59357.22200000009,
      "d": 203.12527083333407,
      "v": 80
    },
    {
      "midi": 64,
      "hit": false,
      "t": 59357.22200000009,
      "d": 203.12527083333407,
      "v": 80
    },
    {
      "midi": 68,
      "hit": false,
      "t": 59425.78300000027,
      "d": 101.33942083333386,
      "v": 96
    },
    {
      "midi": 80,
      "hit": false,
      "t": 59425.78300000027,
      "d": 101.33942083333386,
      "v": 96
    },
    {
      "midi": 65,
      "hit": false,
      "t": 59532.926000000276,
      "d": 106.69657083333004,
      "v": 96
    },
    {
      "midi": 77,
      "hit": false,
      "t": 59532.926000000276,
      "d": 106.69657083333004,
      "v": 96
    },
    {
      "midi": 40,
      "hit": false,
      "t": 59571.50800000009,
      "d": 203.12527083333407,
      "v": 80
    },
    {
      "midi": 68,
      "hit": false,
      "t": 59747.212000000276,
      "d": 513.8399708333309,
      "v": 115
    },
    {
      "midi": 80,
      "hit": false,
      "t": 59747.212000000276,
      "d": 513.8399708333309,
      "v": 115
    },
    {
      "midi": 46,
      "hit": false,
      "t": 59785.79400000009,
      "d": 203.12527083333407,
      "v": 80
    },
    {
      "midi": 58,
      "hit": false,
      "t": 59785.79400000009,
      "d": 203.12527083333407,
      "v": 80
    },
    {
      "midi": 60,
      "hit": false,
      "t": 59785.79400000009,
      "d": 203.12527083333407,
      "v": 80
    },
    {
      "midi": 61,
      "hit": false,
      "t": 59785.79400000009,
      "d": 203.12527083333407,
      "v": 80
    },
    {
      "midi": 64,
      "hit": false,
      "t": 59785.79400000009,
      "d": 203.12527083333407,
      "v": 80
    },
    {
      "midi": 48,
      "hit": false,
      "t": 60000.08000000009,
      "d": 101.33942083333386,
      "v": 80
    },
    {
      "midi": 60,
      "hit": false,
      "t": 60000.08000000009,
      "d": 101.33942083333386,
      "v": 80
    },
    {
      "midi": 48,
      "hit": false,
      "t": 60107.22300000009,
      "d": 101.33942083333386,
      "v": 80
    },
    {
      "midi": 60,
      "hit": false,
      "t": 60107.22300000009,
      "d": 101.33942083333386,
      "v": 80
    },
    {
      "midi": 48,
      "hit": false,
      "t": 60214.3660000001,
      "d": 106.69657083333004,
      "v": 80
    },
    {
      "midi": 60,
      "hit": false,
      "t": 60214.3660000001,
      "d": 106.69657083333004,
      "v": 80
    },
    {
      "midi": 70,
      "hit": false,
      "t": 60282.92700000027,
      "d": 101.33942083333386,
      "v": 96
    },
    {
      "midi": 82,
      "hit": false,
      "t": 60282.92700000027,
      "d": 101.33942083333386,
      "v": 96
    },
    {
      "midi": 67,
      "hit": false,
      "t": 60390.070000000276,
      "d": 106.69657083333004,
      "v": 96
    },
    {
      "midi": 79,
      "hit": false,
      "t": 60390.070000000276,
      "d": 106.69657083333004,
      "v": 96
    },
    {
      "midi": 24,
      "hit": false,
      "t": 60428.6520000001,
      "d": 428.12557083333377,
      "v": 96
    },
    {
      "midi": 36,
      "hit": false,
      "t": 60428.6520000001,
      "d": 428.12557083333377,
      "v": 96
    },
    {
      "midi": 70,
      "hit": false,
      "t": 60604.356000000276,
      "d": 513.8399708333309,
      "v": 115
    },
    {
      "midi": 82,
      "hit": false,
      "t": 60604.356000000276,
      "d": 513.8399708333309,
      "v": 115
    },
    {
      "midi": 46,
      "hit": false,
      "t": 60857.2240000001,
      "d": 101.33942083333386,
      "v": 80
    },
    {
      "midi": 58,
      "hit": false,
      "t": 60857.2240000001,
      "d": 101.33942083333386,
      "v": 80
    },
    {
      "midi": 46,
      "hit": false,
      "t": 60964.3670000001,
      "d": 101.33942083333386,
      "v": 80
    },
    {
      "midi": 58,
      "hit": false,
      "t": 60964.3670000001,
      "d": 101.33942083333386,
      "v": 80
    },
    {
      "midi": 46,
      "hit": false,
      "t": 61071.510000000104,
      "d": 106.69657083333004,
      "v": 80
    },
    {
      "midi": 58,
      "hit": false,
      "t": 61071.510000000104,
      "d": 106.69657083333004,
      "v": 80
    },
    {
      "midi": 72,
      "hit": false,
      "t": 61140.07100000027,
      "d": 101.33942083333386,
      "v": 96
    },
    {
      "midi": 84,
      "hit": false,
      "t": 61140.07100000027,
      "d": 101.33942083333386,
      "v": 96
    },
    {
      "midi": 68,
      "hit": false,
      "t": 61247.21400000028,
      "d": 106.69657083333004,
      "v": 96
    },
    {
      "midi": 80,
      "hit": false,
      "t": 61247.21400000028,
      "d": 106.69657083333004,
      "v": 96
    },
    {
      "midi": 24,
      "hit": false,
      "t": 61285.796000000104,
      "d": 428.12557083333377,
      "v": 96
    },
    {
      "midi": 36,
      "hit": false,
      "t": 61285.796000000104,
      "d": 428.12557083333377,
      "v": 96
    },
    {
      "midi": 72,
      "hit": false,
      "t": 61461.50000000028,
      "d": 513.8399708333309,
      "v": 115
    },
    {
      "midi": 84,
      "hit": false,
      "t": 61461.50000000028,
      "d": 513.8399708333309,
      "v": 115
    },
    {
      "midi": 44,
      "hit": false,
      "t": 61714.368000000104,
      "d": 101.33942083333386,
      "v": 80
    },
    {
      "midi": 56,
      "hit": false,
      "t": 61714.368000000104,
      "d": 101.33942083333386,
      "v": 80
    },
    {
      "midi": 44,
      "hit": false,
      "t": 61821.51100000011,
      "d": 101.33942083333386,
      "v": 80
    },
    {
      "midi": 56,
      "hit": false,
      "t": 61821.51100000011,
      "d": 101.33942083333386,
      "v": 80
    },
    {
      "midi": 44,
      "hit": false,
      "t": 61928.65400000011,
      "d": 106.69657083333004,
      "v": 80
    },
    {
      "midi": 56,
      "hit": false,
      "t": 61928.65400000011,
      "d": 106.69657083333004,
      "v": 80
    },
    {
      "midi": 73,
      "hit": false,
      "t": 61997.21500000027,
      "d": 101.33942083333386,
      "v": 96
    },
    {
      "midi": 85,
      "hit": false,
      "t": 61997.21500000027,
      "d": 101.33942083333386,
      "v": 96
    },
    {
      "midi": 70,
      "hit": false,
      "t": 62104.35800000028,
      "d": 106.69657083333004,
      "v": 96
    },
    {
      "midi": 82,
      "hit": false,
      "t": 62104.35800000028,
      "d": 106.69657083333004,
      "v": 96
    },
    {
      "midi": 41,
      "hit": false,
      "t": 62142.94000000011,
      "d": 213.8395708333337,
      "v": 96
    },
    {
      "midi": 53,
      "hit": false,
      "t": 62142.94000000011,
      "d": 213.8395708333337,
      "v": 96
    },
    {
      "midi": 73,
      "hit": false,
      "t": 62318.64400000028,
      "d": 513.8399708333309,
      "v": 115
    },
    {
      "midi": 85,
      "hit": false,
      "t": 62318.64400000028,
      "d": 513.8399708333309,
      "v": 115
    },
    {
      "midi": 41,
      "hit": false,
      "t": 62357.22600000011,
      "d": 315.6254208333339,
      "v": 96
    },
    {
      "midi": 53,
      "hit": false,
      "t": 62357.22600000011,
      "d": 315.6254208333339,
      "v": 96
    },
    {
      "midi": 52,
      "hit": false,
      "t": 62678.655000000115,
      "d": 101.33942083333386,
      "v": 80
    },
    {
      "midi": 51,
      "hit": false,
      "t": 62785.79800000012,
      "d": 101.33942083333386,
      "v": 80
    },
    {
      "midi": 72,
      "hit": false,
      "t": 62854.35900000027,
      "d": 101.33942083333386,
      "v": 96
    },
    {
      "midi": 84,
      "hit": false,
      "t": 62854.35900000027,
      "d": 101.33942083333386,
      "v": 96
    },
    {
      "midi": 50,
      "hit": false,
      "t": 62892.94100000012,
      "d": 101.33942083333386,
      "v": 80
    },
    {
      "midi": 72,
      "hit": false,
      "t": 62961.50200000028,
      "d": 101.33942083333386,
      "v": 96
    },
    {
      "midi": 84,
      "hit": false,
      "t": 62961.50200000028,
      "d": 101.33942083333386,
      "v": 96
    },
    {
      "midi": 49,
      "hit": false,
      "t": 63000.084000000126,
      "d": 101.33942083333386,
      "v": 80
    },
    {
      "midi": 72,
      "hit": false,
      "t": 63068.64500000028,
      "d": 106.69657083333004,
      "v": 96
    },
    {
      "midi": 84,
      "hit": false,
      "t": 63068.64500000028,
      "d": 106.69657083333004,
      "v": 96
    },
    {
      "midi": 48,
      "hit": false,
      "t": 63107.22700000013,
      "d": 101.33942083333386,
      "v": 80
    },
    {
      "midi": 47,
      "hit": false,
      "t": 63214.37000000013,
      "d": 101.33942083333386,
      "v": 80
    },
    {
      "midi": 46,
      "hit": false,
      "t": 63321.51300000014,
      "d": 101.33942083333386,
      "v": 80
    },
    {
      "midi": 45,
      "hit": false,
      "t": 63428.65600000014,
      "d": 203.12527083333407,
      "v": 80
    },
    {
      "midi": 52,
      "hit": false,
      "t": 63642.94200000014,
      "d": 203.12527083333407,
      "v": 80
    },
    {
      "midi": 57,
      "hit": false,
      "t": 63642.94200000014,
      "d": 203.12527083333407,
      "v": 80
    },
    {
      "midi": 60,
      "hit": false,
      "t": 63642.94200000014,
      "d": 203.12527083333407,
      "v": 80
    },
    {
      "midi": 70,
      "hit": false,
      "t": 63711.50300000028,
      "d": 101.33942083333386,
      "v": 96
    },
    {
      "midi": 82,
      "hit": false,
      "t": 63711.50300000028,
      "d": 101.33942083333386,
      "v": 96
    },
    {
      "midi": 70,
      "hit": false,
      "t": 63818.646000000284,
      "d": 101.33942083333386,
      "v": 96
    },
    {
      "midi": 82,
      "hit": false,
      "t": 63818.646000000284,
      "d": 101.33942083333386,
      "v": 96
    },
    {
      "midi": 40,
      "hit": false,
      "t": 63857.22800000014,
      "d": 203.12527083333407,
      "v": 80
    },
    {
      "midi": 70,
      "hit": false,
      "t": 63925.78900000029,
      "d": 106.69657083333004,
      "v": 96
    },
    {
      "midi": 82,
      "hit": false,
      "t": 63925.78900000029,
      "d": 106.69657083333004,
      "v": 96
    },
    {
      "midi": 52,
      "hit": false,
      "t": 64071.51400000014,
      "d": 203.12527083333407,
      "v": 80
    },
    {
      "midi": 57,
      "hit": false,
      "t": 64071.51400000014,
      "d": 203.12527083333407,
      "v": 80
    },
    {
      "midi": 60,
      "hit": false,
      "t": 64071.51400000014,
      "d": 203.12527083333407,
      "v": 80
    },
    {
      "midi": 45,
      "hit": false,
      "t": 64285.80000000014,
      "d": 203.12527083333407,
      "v": 80
    },
    {
      "midi": 52,
      "hit": false,
      "t": 64500.08600000014,
      "d": 203.12527083333407,
      "v": 80
    },
    {
      "midi": 57,
      "hit": false,
      "t": 64500.08600000014,
      "d": 203.12527083333407,
      "v": 80
    },
    {
      "midi": 60,
      "hit": false,
      "t": 64500.08600000014,
      "d": 203.12527083333407,
      "v": 80
    },
    {
      "midi": 68,
      "hit": false,
      "t": 64568.64700000029,
      "d": 101.33942083333386,
      "v": 96
    },
    {
      "midi": 80,
      "hit": false,
      "t": 64568.64700000029,
      "d": 101.33942083333386,
      "v": 96
    },
    {
      "midi": 68,
      "hit": false,
      "t": 64675.79000000029,
      "d": 101.33942083333386,
      "v": 96
    },
    {
      "midi": 80,
      "hit": false,
      "t": 64675.79000000029,
      "d": 101.33942083333386,
      "v": 96
    },
    {
      "midi": 40,
      "hit": false,
      "t": 64714.37200000014,
      "d": 203.12527083333407,
      "v": 80
    },
    {
      "midi": 68,
      "hit": false,
      "t": 64782.933000000296,
      "d": 106.69657083333004,
      "v": 96
    },
    {
      "midi": 80,
      "hit": false,
      "t": 64782.933000000296,
      "d": 106.69657083333004,
      "v": 96
    },
    {
      "midi": 52,
      "hit": false,
      "t": 64928.65800000014,
      "d": 203.12527083333407,
      "v": 80
    },
    {
      "midi": 57,
      "hit": false,
      "t": 64928.65800000014,
      "d": 203.12527083333407,
      "v": 80
    },
    {
      "midi": 60,
      "hit": false,
      "t": 64928.65800000014,
      "d": 203.12527083333407,
      "v": 80
    },
    {
      "midi": 65,
      "hit": false,
      "t": 64997.219000000296,
      "d": 213.8395708333337,
      "v": 115
    },
    {
      "midi": 68,
      "hit": false,
      "t": 64997.219000000296,
      "d": 213.8395708333337,
      "v": 115
    },
    {
      "midi": 71,
      "hit": false,
      "t": 64997.219000000296,
      "d": 213.8395708333337,
      "v": 115
    },
    {
      "midi": 74,
      "hit": false,
      "t": 64997.219000000296,
      "d": 213.8395708333337,
      "v": 115
    },
    {
      "midi": 77,
      "hit": false,
      "t": 64997.219000000296,
      "d": 213.8395708333337,
      "v": 115
    },
    {
      "midi": 47,
      "hit": false,
      "t": 65142.94400000014,
      "d": 203.12527083333407,
      "v": 80
    },
    {
      "midi": 65,
      "hit": false,
      "t": 65211.505000000296,
      "d": 315.6254208333339,
      "v": 115
    },
    {
      "midi": 68,
      "hit": false,
      "t": 65211.505000000296,
      "d": 315.6254208333339,
      "v": 115
    },
    {
      "midi": 71,
      "hit": false,
      "t": 65211.505000000296,
      "d": 315.6254208333339,
      "v": 115
    },
    {
      "midi": 74,
      "hit": false,
      "t": 65211.505000000296,
      "d": 315.6254208333339,
      "v": 115
    },
    {
      "midi": 77,
      "hit": false,
      "t": 65211.505000000296,
      "d": 315.6254208333339,
      "v": 115
    },
    {
      "midi": 52,
      "hit": false,
      "t": 65357.23000000014,
      "d": 203.12527083333407,
      "v": 80
    },
    {
      "midi": 56,
      "hit": false,
      "t": 65357.23000000014,
      "d": 203.12527083333407,
      "v": 80
    },
    {
      "midi": 59,
      "hit": false,
      "t": 65357.23000000014,
      "d": 203.12527083333407,
      "v": 80
    },
    {
      "midi": 62,
      "hit": false,
      "t": 65357.23000000014,
      "d": 203.12527083333407,
      "v": 80
    },
    {
      "midi": 81,
      "hit": false,
      "t": 65532.9340000003,
      "d": 101.33942083333386,
      "v": 96
    },
    {
      "midi": 40,
      "hit": false,
      "t": 65571.51600000015,
      "d": 203.12527083333407,
      "v": 80
    },
    {
      "midi": 75,
      "hit": false,
      "t": 65640.0770000003,
      "d": 101.33942083333386,
      "v": 96
    },
    {
      "midi": 76,
      "hit": false,
      "t": 65747.22000000029,
      "d": 101.33942083333386,
      "v": 96
    },
    {
      "midi": 52,
      "hit": false,
      "t": 65785.80200000016,
      "d": 203.12527083333407,
      "v": 80
    },
    {
      "midi": 56,
      "hit": false,
      "t": 65785.80200000016,
      "d": 203.12527083333407,
      "v": 80
    },
    {
      "midi": 59,
      "hit": false,
      "t": 65785.80200000016,
      "d": 203.12527083333407,
      "v": 80
    },
    {
      "midi": 62,
      "hit": false,
      "t": 65785.80200000016,
      "d": 203.12527083333407,
      "v": 80
    },
    {
      "midi": 77,
      "hit": false,
      "t": 65854.36300000029,
      "d": 101.33942083333386,
      "v": 96
    },
    {
      "midi": 78,
      "hit": false,
      "t": 65961.50600000028,
      "d": 101.33942083333386,
      "v": 96
    },
    {
      "midi": 47,
      "hit": false,
      "t": 66000.08800000016,
      "d": 203.12527083333407,
      "v": 80
    },
    {
      "midi": 79,
      "hit": false,
      "t": 66068.64900000028,
      "d": 101.33942083333386,
      "v": 96
    },
    {
      "midi": 80,
      "hit": false,
      "t": 66175.79200000028,
      "d": 101.33942083333386,
      "v": 96
    },
    {
      "midi": 52,
      "hit": false,
      "t": 66214.37400000017,
      "d": 203.12527083333407,
      "v": 80
    },
    {
      "midi": 56,
      "hit": false,
      "t": 66214.37400000017,
      "d": 203.12527083333407,
      "v": 80
    },
    {
      "midi": 59,
      "hit": false,
      "t": 66214.37400000017,
      "d": 203.12527083333407,
      "v": 80
    },
    {
      "midi": 62,
      "hit": false,
      "t": 66214.37400000017,
      "d": 203.12527083333407,
      "v": 80
    },
    {
      "midi": 81,
      "hit": false,
      "t": 66282.93500000027,
      "d": 203.12527083333407,
      "v": 96
    },
    {
      "midi": 47,
      "hit": false,
      "t": 66428.66000000018,
      "d": 203.12527083333407,
      "v": 80
    },
    {
      "midi": 76,
      "hit": false,
      "t": 66497.22100000028,
      "d": 428.12557083333377,
      "v": 115
    },
    {
      "midi": 81,
      "hit": false,
      "t": 66497.22100000028,
      "d": 428.12557083333377,
      "v": 115
    },
    {
      "midi": 88,
      "hit": false,
      "t": 66497.22100000028,
      "d": 428.12557083333377,
      "v": 115
    },
    {
      "midi": 44,
      "hit": false,
      "t": 66642.94600000019,
      "d": 203.12527083333407,
      "v": 80
    },
    {
      "midi": 52,
      "hit": false,
      "t": 66642.94600000019,
      "d": 203.12527083333407,
      "v": 80
    },
    {
      "midi": 56,
      "hit": false,
      "t": 66642.94600000019,
      "d": 203.12527083333407,
      "v": 80
    },
    {
      "midi": 59,
      "hit": false,
      "t": 66642.94600000019,
      "d": 203.12527083333407,
      "v": 80
    },
    {
      "midi": 62,
      "hit": false,
      "t": 66642.94600000019,
      "d": 203.12527083333407,
      "v": 80
    },
    {
      "midi": 45,
      "hit": false,
      "t": 66857.2320000002,
      "d": 203.12527083333407,
      "v": 80
    },
    {
      "midi": 75,
      "hit": false,
      "t": 66925.79300000028,
      "d": 106.69657083333004,
      "v": 96
    },
    {
      "midi": 81,
      "hit": false,
      "t": 66925.79300000028,
      "d": 106.69657083333004,
      "v": 96
    },
    {
      "midi": 87,
      "hit": false,
      "t": 66925.79300000028,
      "d": 106.69657083333004,
      "v": 96
    },
    {
      "midi": 52,
      "hit": false,
      "t": 67071.5180000002,
      "d": 203.12527083333407,
      "v": 80
    },
    {
      "midi": 57,
      "hit": false,
      "t": 67071.5180000002,
      "d": 203.12527083333407,
      "v": 80
    },
    {
      "midi": 60,
      "hit": false,
      "t": 67071.5180000002,
      "d": 203.12527083333407,
      "v": 80
    },
    {
      "midi": 71,
      "hit": false,
      "t": 67140.07900000027,
      "d": 101.33942083333386,
      "v": 96
    },
    {
      "midi": 83,
      "hit": false,
      "t": 67140.07900000027,
      "d": 101.33942083333386,
      "v": 96
    },
    {
      "midi": 72,
      "hit": false,
      "t": 67247.22200000027,
      "d": 106.69657083333004,
      "v": 96
    },
    {
      "midi": 84,
      "hit": false,
      "t": 67247.22200000027,
      "d": 106.69657083333004,
      "v": 96
    },
    {
      "midi": 40,
      "hit": false,
      "t": 67285.80400000021,
      "d": 203.12527083333407,
      "v": 80
    },
    {
      "midi": 69,
      "hit": false,
      "t": 67461.50800000026,
      "d": 508.4828208333347,
      "v": 96
    },
    {
      "midi": 76,
      "hit": false,
      "t": 67461.50800000026,
      "d": 508.4828208333347,
      "v": 96
    },
    {
      "midi": 81,
      "hit": false,
      "t": 67461.50800000026,
      "d": 508.4828208333347,
      "v": 96
    },
    {
      "midi": 52,
      "hit": false,
      "t": 67500.09000000021,
      "d": 203.12527083333407,
      "v": 80
    },
    {
      "midi": 57,
      "hit": false,
      "t": 67500.09000000021,
      "d": 203.12527083333407,
      "v": 80
    },
    {
      "midi": 60,
      "hit": false,
      "t": 67500.09000000021,
      "d": 203.12527083333407,
      "v": 80
    },
    {
      "midi": 45,
      "hit": false,
      "t": 67714.37600000022,
      "d": 203.12527083333407,
      "v": 80
    },
    {
      "midi": 52,
      "hit": false,
      "t": 67928.66200000023,
      "d": 203.12527083333407,
      "v": 80
    },
    {
      "midi": 57,
      "hit": false,
      "t": 67928.66200000023,
      "d": 203.12527083333407,
      "v": 80
    },
    {
      "midi": 60,
      "hit": false,
      "t": 67928.66200000023,
      "d": 203.12527083333407,
      "v": 80
    },
    {
      "midi": 71,
      "hit": false,
      "t": 67997.22300000026,
      "d": 101.33942083333386,
      "v": 96
    },
    {
      "midi": 76,
      "hit": false,
      "t": 67997.22300000026,
      "d": 101.33942083333386,
      "v": 96
    },
    {
      "midi": 83,
      "hit": false,
      "t": 67997.22300000026,
      "d": 101.33942083333386,
      "v": 96
    },
    {
      "midi": 71,
      "hit": false,
      "t": 68104.36600000026,
      "d": 106.69657083333004,
      "v": 96
    },
    {
      "midi": 76,
      "hit": false,
      "t": 68104.36600000026,
      "d": 106.69657083333004,
      "v": 96
    },
    {
      "midi": 83,
      "hit": false,
      "t": 68104.36600000026,
      "d": 106.69657083333004,
      "v": 96
    },
    {
      "midi": 40,
      "hit": false,
      "t": 68142.94800000024,
      "d": 203.12527083333407,
      "v": 80
    },
    {
      "midi": 52,
      "hit": false,
      "t": 68357.23400000024,
      "d": 203.12527083333407,
      "v": 80
    },
    {
      "midi": 57,
      "hit": false,
      "t": 68357.23400000024,
      "d": 203.12527083333407,
      "v": 80
    },
    {
      "midi": 60,
      "hit": false,
      "t": 68357.23400000024,
      "d": 203.12527083333407,
      "v": 80
    },
    {
      "midi": 71,
      "hit": false,
      "t": 68425.79500000026,
      "d": 101.33942083333386,
      "v": 96
    },
    {
      "midi": 76,
      "hit": false,
      "t": 68425.79500000026,
      "d": 101.33942083333386,
      "v": 96
    },
    {
      "midi": 83,
      "hit": false,
      "t": 68425.79500000026,
      "d": 101.33942083333386,
      "v": 96
    },
    {
      "midi": 72,
      "hit": false,
      "t": 68532.93800000026,
      "d": 106.69657083333004,
      "v": 96
    },
    {
      "midi": 78,
      "hit": false,
      "t": 68532.93800000026,
      "d": 106.69657083333004,
      "v": 96
    },
    {
      "midi": 84,
      "hit": false,
      "t": 68532.93800000026,
      "d": 106.69657083333004,
      "v": 96
    },
    {
      "midi": 47,
      "hit": false,
      "t": 68571.52000000025,
      "d": 203.12527083333407,
      "v": 80
    },
    {
      "midi": 71,
      "hit": false,
      "t": 68747.22400000025,
      "d": 508.4828208333347,
      "v": 96
    },
    {
      "midi": 76,
      "hit": false,
      "t": 68747.22400000025,
      "d": 508.4828208333347,
      "v": 96
    },
    {
      "midi": 83,
      "hit": false,
      "t": 68747.22400000025,
      "d": 508.4828208333347,
      "v": 96
    },
    {
      "midi": 52,
      "hit": false,
      "t": 68785.80600000026,
      "d": 203.12527083333407,
      "v": 80
    },
    {
      "midi": 56,
      "hit": false,
      "t": 68785.80600000026,
      "d": 203.12527083333407,
      "v": 80
    },
    {
      "midi": 59,
      "hit": false,
      "t": 68785.80600000026,
      "d": 203.12527083333407,
      "v": 80
    },
    {
      "midi": 62,
      "hit": false,
      "t": 68785.80600000026,
      "d": 203.12527083333407,
      "v": 80
    },
    {
      "midi": 40,
      "hit": false,
      "t": 69000.09200000027,
      "d": 203.12527083333407,
      "v": 80
    },
    {
      "midi": 52,
      "hit": false,
      "t": 69214.37800000027,
      "d": 203.12527083333407,
      "v": 80
    },
    {
      "midi": 56,
      "hit": false,
      "t": 69214.37800000027,
      "d": 203.12527083333407,
      "v": 80
    },
    {
      "midi": 59,
      "hit": false,
      "t": 69214.37800000027,
      "d": 203.12527083333407,
      "v": 80
    },
    {
      "midi": 62,
      "hit": false,
      "t": 69214.37800000027,
      "d": 203.12527083333407,
      "v": 80
    },
    {
      "midi": 65,
      "hit": false,
      "t": 69282.93900000025,
      "d": 203.12527083333407,
      "v": 96
    },
    {
      "midi": 77,
      "hit": false,
      "t": 69282.93900000025,
      "d": 203.12527083333407,
      "v": 96
    },
    {
      "midi": 47,
      "hit": false,
      "t": 69428.66400000028,
      "d": 203.12527083333407,
      "v": 80
    },
    {
      "midi": 68,
      "hit": false,
      "t": 69497.22500000025,
      "d": 203.12527083333407,
      "v": 96
    },
    {
      "midi": 80,
      "hit": false,
      "t": 69497.22500000025,
      "d": 203.12527083333407,
      "v": 96
    },
    {
      "midi": 52,
      "hit": false,
      "t": 69642.95000000029,
      "d": 203.12527083333407,
      "v": 80
    },
    {
      "midi": 56,
      "hit": false,
      "t": 69642.95000000029,
      "d": 203.12527083333407,
      "v": 80
    },
    {
      "midi": 59,
      "hit": false,
      "t": 69642.95000000029,
      "d": 203.12527083333407,
      "v": 80
    },
    {
      "midi": 62,
      "hit": false,
      "t": 69642.95000000029,
      "d": 203.12527083333407,
      "v": 80
    },
    {
      "midi": 47,
      "hit": false,
      "t": 69857.2360000003,
      "d": 203.12527083333407,
      "v": 80
    },
    {
      "midi": 76,
      "hit": false,
      "t": 69925.79700000025,
      "d": 428.12557083333377,
      "v": 115
    },
    {
      "midi": 81,
      "hit": false,
      "t": 69925.79700000025,
      "d": 428.12557083333377,
      "v": 115
    },
    {
      "midi": 88,
      "hit": false,
      "t": 69925.79700000025,
      "d": 428.12557083333377,
      "v": 115
    },
    {
      "midi": 44,
      "hit": false,
      "t": 70071.5220000003,
      "d": 203.12527083333407,
      "v": 80
    },
    {
      "midi": 52,
      "hit": false,
      "t": 70071.5220000003,
      "d": 203.12527083333407,
      "v": 80
    },
    {
      "midi": 56,
      "hit": false,
      "t": 70071.5220000003,
      "d": 203.12527083333407,
      "v": 80
    },
    {
      "midi": 59,
      "hit": false,
      "t": 70071.5220000003,
      "d": 203.12527083333407,
      "v": 80
    },
    {
      "midi": 62,
      "hit": false,
      "t": 70071.5220000003,
      "d": 203.12527083333407,
      "v": 80
    },
    {
      "midi": 45,
      "hit": false,
      "t": 70285.80800000031,
      "d": 203.12527083333407,
      "v": 80
    },
    {
      "midi": 75,
      "hit": false,
      "t": 70354.36900000025,
      "d": 106.69657083333004,
      "v": 96
    },
    {
      "midi": 81,
      "hit": false,
      "t": 70354.36900000025,
      "d": 106.69657083333004,
      "v": 96
    },
    {
      "midi": 87,
      "hit": false,
      "t": 70354.36900000025,
      "d": 106.69657083333004,
      "v": 96
    },
    {
      "midi": 52,
      "hit": false,
      "t": 70500.09400000032,
      "d": 203.12527083333407,
      "v": 80
    },
    {
      "midi": 57,
      "hit": false,
      "t": 70500.09400000032,
      "d": 203.12527083333407,
      "v": 80
    },
    {
      "midi": 60,
      "hit": false,
      "t": 70500.09400000032,
      "d": 203.12527083333407,
      "v": 80
    },
    {
      "midi": 71,
      "hit": false,
      "t": 70568.65500000025,
      "d": 101.33942083333386,
      "v": 96
    },
    {
      "midi": 83,
      "hit": false,
      "t": 70568.65500000025,
      "d": 101.33942083333386,
      "v": 96
    },
    {
      "midi": 72,
      "hit": false,
      "t": 70675.79800000024,
      "d": 106.69657083333004,
      "v": 96
    },
    {
      "midi": 84,
      "hit": false,
      "t": 70675.79800000024,
      "d": 106.69657083333004,
      "v": 96
    },
    {
      "midi": 40,
      "hit": false,
      "t": 70714.38000000032,
      "d": 203.12527083333407,
      "v": 80
    },
    {
      "midi": 69,
      "hit": false,
      "t": 70890.08400000024,
      "d": 508.4828208333347,
      "v": 96
    },
    {
      "midi": 76,
      "hit": false,
      "t": 70890.08400000024,
      "d": 508.4828208333347,
      "v": 96
    },
    {
      "midi": 81,
      "hit": false,
      "t": 70890.08400000024,
      "d": 508.4828208333347,
      "v": 96
    },
    {
      "midi": 52,
      "hit": false,
      "t": 70928.66600000033,
      "d": 203.12527083333407,
      "v": 80
    },
    {
      "midi": 57,
      "hit": false,
      "t": 70928.66600000033,
      "d": 203.12527083333407,
      "v": 80
    },
    {
      "midi": 60,
      "hit": false,
      "t": 70928.66600000033,
      "d": 203.12527083333407,
      "v": 80
    },
    {
      "midi": 45,
      "hit": false,
      "t": 71142.95200000034,
      "d": 203.12527083333407,
      "v": 80
    },
    {
      "midi": 52,
      "hit": false,
      "t": 71357.23800000035,
      "d": 203.12527083333407,
      "v": 80
    },
    {
      "midi": 57,
      "hit": false,
      "t": 71357.23800000035,
      "d": 203.12527083333407,
      "v": 80
    },
    {
      "midi": 60,
      "hit": false,
      "t": 71357.23800000035,
      "d": 203.12527083333407,
      "v": 80
    },
    {
      "midi": 40,
      "hit": false,
      "t": 71571.52400000035,
      "d": 203.12527083333407,
      "v": 80
    },
    {
      "midi": 71,
      "hit": false,
      "t": 71640.08500000024,
      "d": 106.69657083333004,
      "v": 96
    },
    {
      "midi": 76,
      "hit": false,
      "t": 71640.08500000024,
      "d": 106.69657083333004,
      "v": 96
    },
    {
      "midi": 83,
      "hit": false,
      "t": 71640.08500000024,
      "d": 106.69657083333004,
      "v": 96
    },
    {
      "midi": 52,
      "hit": false,
      "t": 71785.81000000036,
      "d": 203.12527083333407,
      "v": 80
    },
    {
      "midi": 57,
      "hit": false,
      "t": 71785.81000000036,
      "d": 203.12527083333407,
      "v": 80
    },
    {
      "midi": 60,
      "hit": false,
      "t": 71785.81000000036,
      "d": 203.12527083333407,
      "v": 80
    },
    {
      "midi": 70,
      "hit": false,
      "t": 71854.37100000023,
      "d": 106.69657083333004,
      "v": 96
    },
    {
      "midi": 74,
      "hit": false,
      "t": 71854.37100000023,
      "d": 106.69657083333004,
      "v": 96
    },
    {
      "midi": 82,
      "hit": false,
      "t": 71854.37100000023,
      "d": 106.69657083333004,
      "v": 96
    },
    {
      "midi": 40,
      "hit": false,
      "t": 72000.09600000037,
      "d": 203.12527083333407,
      "v": 80
    },
    {
      "midi": 71,
      "hit": false,
      "t": 72068.65700000022,
      "d": 70.98223749999306,
      "v": 96
    },
    {
      "midi": 76,
      "hit": false,
      "t": 72068.65700000022,
      "d": 70.98223749999306,
      "v": 96
    },
    {
      "midi": 83,
      "hit": false,
      "t": 72068.65700000022,
      "d": 70.98223749999306,
      "v": 96
    },
    {
      "midi": 65,
      "hit": false,
      "t": 72211.51433333356,
      "d": 67.41080416666227,
      "v": 96
    },
    {
      "midi": 80,
      "hit": false,
      "t": 72211.51433333356,
      "d": 67.41080416666227,
      "v": 96
    },
    {
      "midi": 52,
      "hit": false,
      "t": 72214.38200000038,
      "d": 203.12527083333407,
      "v": 80
    },
    {
      "midi": 56,
      "hit": false,
      "t": 72214.38200000038,
      "d": 203.12527083333407,
      "v": 80
    },
    {
      "midi": 59,
      "hit": false,
      "t": 72214.38200000038,
      "d": 203.12527083333407,
      "v": 80
    },
    {
      "midi": 62,
      "hit": false,
      "t": 72214.38200000038,
      "d": 203.12527083333407,
      "v": 80
    },
    {
      "midi": 64,
      "hit": false,
      "t": 72282.94300000022,
      "d": 101.33942083333386,
      "v": 96
    },
    {
      "midi": 79,
      "hit": false,
      "t": 72282.94300000022,
      "d": 101.33942083333386,
      "v": 96
    },
    {
      "midi": 74,
      "hit": false,
      "t": 72390.08600000021,
      "d": 106.69657083333004,
      "v": 115
    },
    {
      "midi": 80,
      "hit": false,
      "t": 72390.08600000021,
      "d": 106.69657083333004,
      "v": 115
    },
    {
      "midi": 83,
      "hit": false,
      "t": 72390.08600000021,
      "d": 106.69657083333004,
      "v": 115
    },
    {
      "midi": 47,
      "hit": false,
      "t": 72428.66800000038,
      "d": 203.12527083333407,
      "v": 80
    },
    {
      "midi": 72,
      "hit": false,
      "t": 72604.3720000002,
      "d": 106.69657083333004,
      "v": 115
    },
    {
      "midi": 79,
      "hit": false,
      "t": 72604.3720000002,
      "d": 106.69657083333004,
      "v": 115
    },
    {
      "midi": 52,
      "hit": false,
      "t": 72642.95400000039,
      "d": 203.12527083333407,
      "v": 80
    },
    {
      "midi": 56,
      "hit": false,
      "t": 72642.95400000039,
      "d": 203.12527083333407,
      "v": 80
    },
    {
      "midi": 59,
      "hit": false,
      "t": 72642.95400000039,
      "d": 203.12527083333407,
      "v": 80
    },
    {
      "midi": 62,
      "hit": false,
      "t": 72642.95400000039,
      "d": 203.12527083333407,
      "v": 80
    },
    {
      "midi": 71,
      "hit": false,
      "t": 72818.6580000002,
      "d": 315.62542083332664,
      "v": 115
    },
    {
      "midi": 88,
      "hit": false,
      "t": 72818.6580000002,
      "d": 315.62542083332664,
      "v": 115
    },
    {
      "midi": 89,
      "hit": false,
      "t": 72818.6580000002,
      "d": 315.62542083332664,
      "v": 115
    },
    {
      "midi": 92,
      "hit": false,
      "t": 72818.6580000002,
      "d": 315.62542083332664,
      "v": 115
    },
    {
      "midi": 40,
      "hit": false,
      "t": 72857.2400000004,
      "d": 203.12527083333407,
      "v": 80
    },
    {
      "midi": 52,
      "hit": false,
      "t": 73071.5260000004,
      "d": 203.12527083333407,
      "v": 80
    },
    {
      "midi": 56,
      "hit": false,
      "t": 73071.5260000004,
      "d": 203.12527083333407,
      "v": 80
    },
    {
      "midi": 59,
      "hit": false,
      "t": 73071.5260000004,
      "d": 203.12527083333407,
      "v": 80
    },
    {
      "midi": 62,
      "hit": false,
      "t": 73071.5260000004,
      "d": 203.12527083333407,
      "v": 80
    },
    {
      "midi": 84,
      "hit": false,
      "t": 73140.08700000019,
      "d": 203.12527083333407,
      "v": 96
    },
    {
      "midi": 88,
      "hit": false,
      "t": 73140.08700000019,
      "d": 203.12527083333407,
      "v": 96
    },
    {
      "midi": 93,
      "hit": false,
      "t": 73140.08700000019,
      "d": 203.12527083333407,
      "v": 96
    },
    {
      "midi": 47,
      "hit": false,
      "t": 73285.81200000041,
      "d": 203.12527083333407,
      "v": 80
    },
    {
      "midi": 76,
      "hit": false,
      "t": 73354.3730000002,
      "d": 428.12557083333377,
      "v": 115
    },
    {
      "midi": 88,
      "hit": false,
      "t": 73354.3730000002,
      "d": 428.12557083333377,
      "v": 115
    },
    {
      "midi": 44,
      "hit": false,
      "t": 73500.09800000042,
      "d": 203.12527083333407,
      "v": 80
    },
    {
      "midi": 52,
      "hit": false,
      "t": 73500.09800000042,
      "d": 203.12527083333407,
      "v": 80
    },
    {
      "midi": 56,
      "hit": false,
      "t": 73500.09800000042,
      "d": 203.12527083333407,
      "v": 80
    },
    {
      "midi": 59,
      "hit": false,
      "t": 73500.09800000042,
      "d": 203.12527083333407,
      "v": 80
    },
    {
      "midi": 62,
      "hit": false,
      "t": 73500.09800000042,
      "d": 203.12527083333407,
      "v": 80
    },
    {
      "midi": 45,
      "hit": false,
      "t": 73714.38400000043,
      "d": 203.12527083333407,
      "v": 80
    },
    {
      "midi": 75,
      "hit": false,
      "t": 73782.9450000002,
      "d": 106.69657083333004,
      "v": 96
    },
    {
      "midi": 87,
      "hit": false,
      "t": 73782.9450000002,
      "d": 106.69657083333004,
      "v": 96
    },
    {
      "midi": 52,
      "hit": false,
      "t": 73928.67000000043,
      "d": 203.12527083333407,
      "v": 80
    },
    {
      "midi": 57,
      "hit": false,
      "t": 73928.67000000043,
      "d": 203.12527083333407,
      "v": 80
    },
    {
      "midi": 60,
      "hit": false,
      "t": 73928.67000000043,
      "d": 203.12527083333407,
      "v": 80
    },
    {
      "midi": 71,
      "hit": false,
      "t": 73997.23100000019,
      "d": 101.33942083333386,
      "v": 96
    },
    {
      "midi": 83,
      "hit": false,
      "t": 73997.23100000019,
      "d": 101.33942083333386,
      "v": 96
    },
    {
      "midi": 72,
      "hit": false,
      "t": 74104.37400000019,
      "d": 106.69657083333004,
      "v": 96
    },
    {
      "midi": 84,
      "hit": false,
      "t": 74104.37400000019,
      "d": 106.69657083333004,
      "v": 96
    },
    {
      "midi": 40,
      "hit": false,
      "t": 74142.95600000044,
      "d": 203.12527083333407,
      "v": 80
    },
    {
      "midi": 69,
      "hit": false,
      "t": 74318.66000000018,
      "d": 508.4828208333347,
      "v": 96
    },
    {
      "midi": 76,
      "hit": false,
      "t": 74318.66000000018,
      "d": 508.4828208333347,
      "v": 96
    },
    {
      "midi": 81,
      "hit": false,
      "t": 74318.66000000018,
      "d": 508.4828208333347,
      "v": 96
    },
    {
      "midi": 52,
      "hit": false,
      "t": 74357.24200000045,
      "d": 203.12527083333407,
      "v": 80
    },
    {
      "midi": 57,
      "hit": false,
      "t": 74357.24200000045,
      "d": 203.12527083333407,
      "v": 80
    },
    {
      "midi": 60,
      "hit": false,
      "t": 74357.24200000045,
      "d": 203.12527083333407,
      "v": 80
    },
    {
      "midi": 45,
      "hit": false,
      "t": 74571.52800000046,
      "d": 203.12527083333407,
      "v": 80
    },
    {
      "midi": 52,
      "hit": false,
      "t": 74785.81400000046,
      "d": 203.12527083333407,
      "v": 80
    },
    {
      "midi": 57,
      "hit": false,
      "t": 74785.81400000046,
      "d": 203.12527083333407,
      "v": 80
    },
    {
      "midi": 60,
      "hit": false,
      "t": 74785.81400000046,
      "d": 203.12527083333407,
      "v": 80
    },
    {
      "midi": 71,
      "hit": false,
      "t": 74854.37500000017,
      "d": 101.33942083333386,
      "v": 96
    },
    {
      "midi": 76,
      "hit": false,
      "t": 74854.37500000017,
      "d": 101.33942083333386,
      "v": 96
    },
    {
      "midi": 83,
      "hit": false,
      "t": 74854.37500000017,
      "d": 101.33942083333386,
      "v": 96
    },
    {
      "midi": 70,
      "hit": false,
      "t": 74961.51800000017,
      "d": 106.69657083333004,
      "v": 96
    },
    {
      "midi": 76,
      "hit": false,
      "t": 74961.51800000017,
      "d": 106.69657083333004,
      "v": 96
    },
    {
      "midi": 82,
      "hit": false,
      "t": 74961.51800000017,
      "d": 106.69657083333004,
      "v": 96
    },
    {
      "midi": 40,
      "hit": false,
      "t": 75000.10000000047,
      "d": 203.12527083333407,
      "v": 80
    },
    {
      "midi": 71,
      "hit": false,
      "t": 75175.80400000016,
      "d": 106.69657083333004,
      "v": 96
    },
    {
      "midi": 76,
      "hit": false,
      "t": 75175.80400000016,
      "d": 106.69657083333004,
      "v": 96
    },
    {
      "midi": 83,
      "hit": false,
      "t": 75175.80400000016,
      "d": 106.69657083333004,
      "v": 96
    },
    {
      "midi": 41,
      "hit": false,
      "t": 75214.38600000048,
      "d": 203.12527083333407,
      "v": 80
    },
    {
      "midi": 52,
      "hit": false,
      "t": 75214.38600000048,
      "d": 203.12527083333407,
      "v": 80
    },
    {
      "midi": 57,
      "hit": false,
      "t": 75214.38600000048,
      "d": 203.12527083333407,
      "v": 80
    },
    {
      "midi": 60,
      "hit": false,
      "t": 75214.38600000048,
      "d": 203.12527083333407,
      "v": 80
    },
    {
      "midi": 68,
      "hit": false,
      "t": 75390.09000000016,
      "d": 106.69657083333004,
      "v": 96
    },
    {
      "midi": 76,
      "hit": false,
      "t": 75390.09000000016,
      "d": 106.69657083333004,
      "v": 96
    },
    {
      "midi": 80,
      "hit": false,
      "t": 75390.09000000016,
      "d": 106.69657083333004,
      "v": 96
    },
    {
      "midi": 40,
      "hit": false,
      "t": 75428.67200000049,
      "d": 106.69657083333004,
      "v": 96
    },
    {
      "midi": 52,
      "hit": false,
      "t": 75428.67200000049,
      "d": 106.69657083333004,
      "v": 96
    },
    {
      "midi": 56,
      "hit": false,
      "t": 75428.67200000049,
      "d": 106.69657083333004,
      "v": 96
    },
    {
      "midi": 59,
      "hit": false,
      "t": 75428.67200000049,
      "d": 106.69657083333004,
      "v": 96
    },
    {
      "midi": 62,
      "hit": false,
      "t": 75428.67200000049,
      "d": 106.69657083333004,
      "v": 96
    },
    {
      "midi": 65,
      "hit": false,
      "t": 75604.37600000015,
      "d": 101.33942083333386,
      "v": 96
    },
    {
      "midi": 77,
      "hit": false,
      "t": 75604.37600000015,
      "d": 101.33942083333386,
      "v": 96
    },
    {
      "midi": 40,
      "hit": false,
      "t": 75642.95800000048,
      "d": 642.4115708333266,
      "v": 96
    },
    {
      "midi": 52,
      "hit": false,
      "t": 75642.95800000048,
      "d": 642.4115708333266,
      "v": 96
    },
    {
      "midi": 56,
      "hit": false,
      "t": 75642.95800000048,
      "d": 642.4115708333266,
      "v": 96
    },
    {
      "midi": 59,
      "hit": false,
      "t": 75642.95800000048,
      "d": 642.4115708333266,
      "v": 96
    },
    {
      "midi": 62,
      "hit": false,
      "t": 75642.95800000048,
      "d": 642.4115708333266,
      "v": 96
    },
    {
      "midi": 64,
      "hit": false,
      "t": 75711.51900000015,
      "d": 406.6969708333345,
      "v": 96
    },
    {
      "midi": 76,
      "hit": false,
      "t": 75711.51900000015,
      "d": 406.6969708333345,
      "v": 96
    },
    {
      "midi": 65,
      "hit": false,
      "t": 76140.09100000015,
      "d": 106.69657083333004,
      "v": 96
    },
    {
      "midi": 77,
      "hit": false,
      "t": 76140.09100000015,
      "d": 106.69657083333004,
      "v": 96
    },
    {
      "midi": 68,
      "hit": false,
      "t": 76354.37700000014,
      "d": 106.69657083333004,
      "v": 96
    },
    {
      "midi": 80,
      "hit": false,
      "t": 76354.37700000014,
      "d": 106.69657083333004,
      "v": 96
    },
    {
      "midi": 57,
      "hit": false,
      "t": 76392.95900000047,
      "d": 101.33942083333386,
      "v": 80
    },
    {
      "midi": 56,
      "hit": false,
      "t": 76500.10200000046,
      "d": 101.33942083333386,
      "v": 80
    },
    {
      "midi": 69,
      "hit": false,
      "t": 76568.66300000013,
      "d": 101.33942083333386,
      "v": 96
    },
    {
      "midi": 81,
      "hit": false,
      "t": 76568.66300000013,
      "d": 101.33942083333386,
      "v": 96
    },
    {
      "midi": 55,
      "hit": false,
      "t": 76607.24500000046,
      "d": 101.33942083333386,
      "v": 80
    },
    {
      "midi": 66,
      "hit": false,
      "t": 76675.80600000013,
      "d": 101.33942083333386,
      "v": 96
    },
    {
      "midi": 78,
      "hit": false,
      "t": 76675.80600000013,
      "d": 101.33942083333386,
      "v": 96
    },
    {
      "midi": 54,
      "hit": false,
      "t": 76714.38800000046,
      "d": 101.33942083333386,
      "v": 80
    },
    {
      "midi": 67,
      "hit": false,
      "t": 76782.94900000012,
      "d": 101.33942083333386,
      "v": 96
    },
    {
      "midi": 79,
      "hit": false,
      "t": 76782.94900000012,
      "d": 101.33942083333386,
      "v": 96
    },
    {
      "midi": 53,
      "hit": false,
      "t": 76821.53100000045,
      "d": 101.33942083333386,
      "v": 80
    },
    {
      "midi": 69,
      "hit": false,
      "t": 76890.09200000012,
      "d": 106.69657083333004,
      "v": 96
    },
    {
      "midi": 81,
      "hit": false,
      "t": 76890.09200000012,
      "d": 106.69657083333004,
      "v": 96
    },
    {
      "midi": 52,
      "hit": false,
      "t": 76928.67400000045,
      "d": 101.33942083333386,
      "v": 80
    },
    {
      "midi": 51,
      "hit": false,
      "t": 77035.81700000045,
      "d": 101.33942083333386,
      "v": 80
    },
    {
      "midi": 66,
      "hit": false,
      "t": 77104.37800000011,
      "d": 106.69657083333004,
      "v": 96
    },
    {
      "midi": 78,
      "hit": false,
      "t": 77104.37800000011,
      "d": 106.69657083333004,
      "v": 96
    },
    {
      "midi": 50,
      "hit": false,
      "t": 77142.96000000044,
      "d": 203.12527083333407,
      "v": 80
    },
    {
      "midi": 67,
      "hit": false,
      "t": 77318.6640000001,
      "d": 101.33942083333386,
      "v": 96
    },
    {
      "midi": 79,
      "hit": false,
      "t": 77318.6640000001,
      "d": 101.33942083333386,
      "v": 96
    },
    {
      "midi": 57,
      "hit": false,
      "t": 77357.24600000045,
      "d": 203.12527083333407,
      "v": 80
    },
    {
      "midi": 62,
      "hit": false,
      "t": 77357.24600000045,
      "d": 203.12527083333407,
      "v": 80
    },
    {
      "midi": 65,
      "hit": false,
      "t": 77357.24600000045,
      "d": 203.12527083333407,
      "v": 80
    },
    {
      "midi": 69,
      "hit": false,
      "t": 77425.8070000001,
      "d": 101.33942083333386,
      "v": 96
    },
    {
      "midi": 81,
      "hit": false,
      "t": 77425.8070000001,
      "d": 101.33942083333386,
      "v": 96
    },
    {
      "midi": 66,
      "hit": false,
      "t": 77532.9500000001,
      "d": 101.33942083333386,
      "v": 96
    },
    {
      "midi": 78,
      "hit": false,
      "t": 77532.9500000001,
      "d": 101.33942083333386,
      "v": 96
    },
    {
      "midi": 45,
      "hit": false,
      "t": 77571.53200000046,
      "d": 203.12527083333407,
      "v": 80
    },
    {
      "midi": 67,
      "hit": false,
      "t": 77640.0930000001,
      "d": 101.33942083333386,
      "v": 96
    },
    {
      "midi": 79,
      "hit": false,
      "t": 77640.0930000001,
      "d": 101.33942083333386,
      "v": 96
    },
    {
      "midi": 69,
      "hit": false,
      "t": 77747.23600000009,
      "d": 106.69657083333004,
      "v": 96
    },
    {
      "midi": 81,
      "hit": false,
      "t": 77747.23600000009,
      "d": 106.69657083333004,
      "v": 96
    },
    {
      "midi": 57,
      "hit": false,
      "t": 77785.81800000046,
      "d": 203.12527083333407,
      "v": 80
    },
    {
      "midi": 62,
      "hit": false,
      "t": 77785.81800000046,
      "d": 203.12527083333407,
      "v": 80
    },
    {
      "midi": 65,
      "hit": false,
      "t": 77785.81800000046,
      "d": 203.12527083333407,
      "v": 80
    },
    {
      "midi": 69,
      "hit": false,
      "t": 77961.52200000008,
      "d": 101.33942083333386,
      "v": 96
    },
    {
      "midi": 81,
      "hit": false,
      "t": 77961.52200000008,
      "d": 101.33942083333386,
      "v": 96
    },
    {
      "midi": 50,
      "hit": false,
      "t": 78000.10400000047,
      "d": 203.12527083333407,
      "v": 80
    },
    {
      "midi": 67,
      "hit": false,
      "t": 78068.66500000008,
      "d": 101.33942083333386,
      "v": 96
    },
    {
      "midi": 79,
      "hit": false,
      "t": 78068.66500000008,
      "d": 101.33942083333386,
      "v": 96
    },
    {
      "midi": 66,
      "hit": false,
      "t": 78175.80800000008,
      "d": 101.33942083333386,
      "v": 96
    },
    {
      "midi": 78,
      "hit": false,
      "t": 78175.80800000008,
      "d": 101.33942083333386,
      "v": 96
    },
    {
      "midi": 57,
      "hit": false,
      "t": 78214.39000000048,
      "d": 203.12527083333407,
      "v": 80
    },
    {
      "midi": 62,
      "hit": false,
      "t": 78214.39000000048,
      "d": 203.12527083333407,
      "v": 80
    },
    {
      "midi": 65,
      "hit": false,
      "t": 78214.39000000048,
      "d": 203.12527083333407,
      "v": 80
    },
    {
      "midi": 64,
      "hit": false,
      "t": 78282.95100000007,
      "d": 106.69657083333004,
      "v": 115
    },
    {
      "midi": 68,
      "hit": false,
      "t": 78282.95100000007,
      "d": 106.69657083333004,
      "v": 115
    },
    {
      "midi": 71,
      "hit": false,
      "t": 78282.95100000007,
      "d": 106.69657083333004,
      "v": 115
    },
    {
      "midi": 76,
      "hit": false,
      "t": 78282.95100000007,
      "d": 106.69657083333004,
      "v": 115
    },
    {
      "midi": 45,
      "hit": false,
      "t": 78428.67600000049,
      "d": 203.12527083333407,
      "v": 80
    },
    {
      "midi": 64,
      "hit": false,
      "t": 78497.23700000007,
      "d": 213.83957083332643,
      "v": 115
    },
    {
      "midi": 68,
      "hit": false,
      "t": 78497.23700000007,
      "d": 213.83957083332643,
      "v": 115
    },
    {
      "midi": 71,
      "hit": false,
      "t": 78497.23700000007,
      "d": 213.83957083332643,
      "v": 115
    },
    {
      "midi": 76,
      "hit": false,
      "t": 78497.23700000007,
      "d": 213.83957083332643,
      "v": 115
    },
    {
      "midi": 57,
      "hit": false,
      "t": 78642.9620000005,
      "d": 203.12527083333407,
      "v": 80
    },
    {
      "midi": 62,
      "hit": false,
      "t": 78642.9620000005,
      "d": 203.12527083333407,
      "v": 80
    },
    {
      "midi": 65,
      "hit": false,
      "t": 78642.9620000005,
      "d": 203.12527083333407,
      "v": 80
    },
    {
      "midi": 76,
      "hit": false,
      "t": 78711.52300000006,
      "d": 13.392875000005006,
      "v": 96
    },
    {
      "midi": 77,
      "hit": false,
      "t": 78726.25516250006,
      "d": 13.392875000005006,
      "v": 96
    },
    {
      "midi": 79,
      "hit": false,
      "t": 78741.43375416673,
      "d": 13.392875000005006,
      "v": 96
    },
    {
      "midi": 81,
      "hit": false,
      "t": 78756.6123458334,
      "d": 13.392875000005006,
      "v": 96
    },
    {
      "midi": 83,
      "hit": false,
      "t": 78771.79093750007,
      "d": 13.392875000005006,
      "v": 96
    },
    {
      "midi": 84,
      "hit": false,
      "t": 78786.96952916674,
      "d": 13.392875000005006,
      "v": 96
    },
    {
      "midi": 86,
      "hit": false,
      "t": 78802.59455000008,
      "d": 13.392875000005006,
      "v": 96
    },
    {
      "midi": 88,
      "hit": false,
      "t": 78817.32671250009,
      "d": 13.392875000005006,
      "v": 96
    },
    {
      "midi": 89,
      "hit": false,
      "t": 78832.50530416676,
      "d": 13.392875000005006,
      "v": 96
    },
    {
      "midi": 91,
      "hit": false,
      "t": 78847.68389583343,
      "d": 13.392875000005006,
      "v": 96
    },
    {
      "midi": 40,
      "hit": false,
      "t": 78857.2480000005,
      "d": 203.12527083333407,
      "v": 80
    },
    {
      "midi": 93,
      "hit": false,
      "t": 78862.8624875001,
      "d": 13.392875000005006,
      "v": 96
    },
    {
      "midi": 95,
      "hit": false,
      "t": 78878.04107916677,
      "d": 13.392875000005006,
      "v": 96
    },
    {
      "midi": 96,
      "hit": false,
      "t": 78893.6661000001,
      "d": 13.392875000005006,
      "v": 96
    },
    {
      "midi": 98,
      "hit": false,
      "t": 78908.39826250011,
      "d": 15.625020833336748,
      "v": 96
    },
    {
      "midi": 100,
      "hit": false,
      "t": 78925.80900000011,
      "d": 203.12527083333407,
      "v": 96
    },
    {
      "midi": 57,
      "hit": false,
      "t": 79071.53400000051,
      "d": 203.12527083333407,
      "v": 80
    },
    {
      "midi": 61,
      "hit": false,
      "t": 79071.53400000051,
      "d": 203.12527083333407,
      "v": 80
    },
    {
      "midi": 64,
      "hit": false,
      "t": 79071.53400000051,
      "d": 203.12527083333407,
      "v": 80
    },
    {
      "midi": 67,
      "hit": false,
      "t": 79071.53400000051,
      "d": 203.12527083333407,
      "v": 80
    },
    {
      "midi": 74,
      "hit": false,
      "t": 79247.23800000011,
      "d": 101.33942083333386,
      "v": 96
    },
    {
      "midi": 86,
      "hit": false,
      "t": 79247.23800000011,
      "d": 101.33942083333386,
      "v": 96
    },
    {
      "midi": 45,
      "hit": false,
      "t": 79285.82000000052,
      "d": 203.12527083333407,
      "v": 80
    },
    {
      "midi": 68,
      "hit": false,
      "t": 79354.38100000011,
      "d": 101.33942083333386,
      "v": 96
    },
    {
      "midi": 80,
      "hit": false,
      "t": 79354.38100000011,
      "d": 101.33942083333386,
      "v": 96
    },
    {
      "midi": 69,
      "hit": false,
      "t": 79461.5240000001,
      "d": 101.33942083333386,
      "v": 96
    },
    {
      "midi": 81,
      "hit": false,
      "t": 79461.5240000001,
      "d": 101.33942083333386,
      "v": 96
    },
    {
      "midi": 57,
      "hit": false,
      "t": 79500.10600000052,
      "d": 203.12527083333407,
      "v": 80
    },
    {
      "midi": 61,
      "hit": false,
      "t": 79500.10600000052,
      "d": 203.12527083333407,
      "v": 80
    },
    {
      "midi": 64,
      "hit": false,
      "t": 79500.10600000052,
      "d": 203.12527083333407,
      "v": 80
    },
    {
      "midi": 67,
      "hit": false,
      "t": 79500.10600000052,
      "d": 203.12527083333407,
      "v": 80
    },
    {
      "midi": 70,
      "hit": false,
      "t": 79568.6670000001,
      "d": 101.33942083333386,
      "v": 96
    },
    {
      "midi": 82,
      "hit": false,
      "t": 79568.6670000001,
      "d": 101.33942083333386,
      "v": 96
    },
    {
      "midi": 71,
      "hit": false,
      "t": 79675.8100000001,
      "d": 101.33942083333386,
      "v": 96
    },
    {
      "midi": 83,
      "hit": false,
      "t": 79675.8100000001,
      "d": 101.33942083333386,
      "v": 96
    },
    {
      "midi": 40,
      "hit": false,
      "t": 79714.39200000053,
      "d": 203.12527083333407,
      "v": 80
    },
    {
      "midi": 72,
      "hit": false,
      "t": 79782.9530000001,
      "d": 101.33942083333386,
      "v": 96
    },
    {
      "midi": 84,
      "hit": false,
      "t": 79782.9530000001,
      "d": 101.33942083333386,
      "v": 96
    },
    {
      "midi": 73,
      "hit": false,
      "t": 79890.09600000009,
      "d": 101.33942083333386,
      "v": 96
    },
    {
      "midi": 85,
      "hit": false,
      "t": 79890.09600000009,
      "d": 101.33942083333386,
      "v": 96
    },
    {
      "midi": 57,
      "hit": false,
      "t": 79928.67800000054,
      "d": 203.12527083333407,
      "v": 80
    },
    {
      "midi": 61,
      "hit": false,
      "t": 79928.67800000054,
      "d": 203.12527083333407,
      "v": 80
    },
    {
      "midi": 64,
      "hit": false,
      "t": 79928.67800000054,
      "d": 203.12527083333407,
      "v": 80
    },
    {
      "midi": 67,
      "hit": false,
      "t": 79928.67800000054,
      "d": 203.12527083333407,
      "v": 80
    },
    {
      "midi": 74,
      "hit": false,
      "t": 79997.23900000009,
      "d": 106.69657083333004,
      "v": 96
    },
    {
      "midi": 86,
      "hit": false,
      "t": 79997.23900000009,
      "d": 106.69657083333004,
      "v": 96
    },
    {
      "midi": 45,
      "hit": false,
      "t": 80142.96400000055,
      "d": 203.12527083333407,
      "v": 80
    },
    {
      "midi": 85,
      "hit": false,
      "t": 80211.52500000008,
      "d": 101.33942083333386,
      "v": 96
    },
    {
      "midi": 97,
      "hit": false,
      "t": 80211.52500000008,
      "d": 101.33942083333386,
      "v": 96
    },
    {
      "midi": 86,
      "hit": false,
      "t": 80318.66800000008,
      "d": 106.69657083333004,
      "v": 96
    },
    {
      "midi": 98,
      "hit": false,
      "t": 80318.66800000008,
      "d": 106.69657083333004,
      "v": 96
    },
    {
      "midi": 49,
      "hit": false,
      "t": 80357.25000000055,
      "d": 203.12527083333407,
      "v": 80
    },
    {
      "midi": 57,
      "hit": false,
      "t": 80357.25000000055,
      "d": 203.12527083333407,
      "v": 80
    },
    {
      "midi": 61,
      "hit": false,
      "t": 80357.25000000055,
      "d": 203.12527083333407,
      "v": 80
    },
    {
      "midi": 64,
      "hit": false,
      "t": 80357.25000000055,
      "d": 203.12527083333407,
      "v": 80
    },
    {
      "midi": 67,
      "hit": false,
      "t": 80357.25000000055,
      "d": 203.12527083333407,
      "v": 80
    },
    {
      "midi": 80,
      "hit": false,
      "t": 80532.95400000007,
      "d": 101.33942083333386,
      "v": 96
    },
    {
      "midi": 92,
      "hit": false,
      "t": 80532.95400000007,
      "d": 101.33942083333386,
      "v": 96
    },
    {
      "midi": 50,
      "hit": false,
      "t": 80571.53600000056,
      "d": 203.12527083333407,
      "v": 80
    },
    {
      "midi": 81,
      "hit": false,
      "t": 80640.09700000007,
      "d": 106.69657083333004,
      "v": 96
    },
    {
      "midi": 93,
      "hit": false,
      "t": 80640.09700000007,
      "d": 106.69657083333004,
      "v": 96
    },
    {
      "midi": 57,
      "hit": false,
      "t": 80785.82200000057,
      "d": 203.12527083333407,
      "v": 80
    },
    {
      "midi": 62,
      "hit": false,
      "t": 80785.82200000057,
      "d": 203.12527083333407,
      "v": 80
    },
    {
      "midi": 65,
      "hit": false,
      "t": 80785.82200000057,
      "d": 203.12527083333407,
      "v": 80
    },
    {
      "midi": 76,
      "hit": false,
      "t": 80854.38300000006,
      "d": 101.33942083333386,
      "v": 96
    },
    {
      "midi": 88,
      "hit": false,
      "t": 80854.38300000006,
      "d": 101.33942083333386,
      "v": 96
    },
    {
      "midi": 77,
      "hit": false,
      "t": 80961.52600000006,
      "d": 106.69657083333004,
      "v": 96
    },
    {
      "midi": 89,
      "hit": false,
      "t": 80961.52600000006,
      "d": 106.69657083333004,
      "v": 96
    },
    {
      "midi": 45,
      "hit": false,
      "t": 81000.10800000057,
      "d": 203.12527083333407,
      "v": 80
    },
    {
      "midi": 73,
      "hit": false,
      "t": 81175.81200000005,
      "d": 101.33942083333386,
      "v": 96
    },
    {
      "midi": 85,
      "hit": false,
      "t": 81175.81200000005,
      "d": 101.33942083333386,
      "v": 96
    },
    {
      "midi": 57,
      "hit": false,
      "t": 81214.39400000058,
      "d": 203.12527083333407,
      "v": 80
    },
    {
      "midi": 62,
      "hit": false,
      "t": 81214.39400000058,
      "d": 203.12527083333407,
      "v": 80
    },
    {
      "midi": 65,
      "hit": false,
      "t": 81214.39400000058,
      "d": 203.12527083333407,
      "v": 80
    },
    {
      "midi": 74,
      "hit": false,
      "t": 81282.95500000005,
      "d": 106.69657083333004,
      "v": 96
    },
    {
      "midi": 86,
      "hit": false,
      "t": 81282.95500000005,
      "d": 106.69657083333004,
      "v": 96
    },
    {
      "midi": 50,
      "hit": false,
      "t": 81428.68000000059,
      "d": 203.12527083333407,
      "v": 80
    },
    {
      "midi": 72,
      "hit": false,
      "t": 81497.24100000004,
      "d": 106.69657083333004,
      "v": 96
    },
    {
      "midi": 84,
      "hit": false,
      "t": 81497.24100000004,
      "d": 106.69657083333004,
      "v": 96
    },
    {
      "midi": 57,
      "hit": false,
      "t": 81642.9660000006,
      "d": 203.12527083333407,
      "v": 80
    },
    {
      "midi": 62,
      "hit": false,
      "t": 81642.9660000006,
      "d": 203.12527083333407,
      "v": 80
    },
    {
      "midi": 65,
      "hit": false,
      "t": 81642.9660000006,
      "d": 203.12527083333407,
      "v": 80
    },
    {
      "midi": 70,
      "hit": false,
      "t": 81711.52700000003,
      "d": 101.33942083333386,
      "v": 96
    },
    {
      "midi": 82,
      "hit": false,
      "t": 81711.52700000003,
      "d": 101.33942083333386,
      "v": 96
    },
    {
      "midi": 73,
      "hit": false,
      "t": 81818.67000000003,
      "d": 101.33942083333386,
      "v": 96
    },
    {
      "midi": 85,
      "hit": false,
      "t": 81818.67000000003,
      "d": 101.33942083333386,
      "v": 96
    },
    {
      "midi": 45,
      "hit": false,
      "t": 81857.2520000006,
      "d": 203.12527083333407,
      "v": 80
    },
    {
      "midi": 74,
      "hit": false,
      "t": 81925.81300000002,
      "d": 101.33942083333386,
      "v": 96
    },
    {
      "midi": 86,
      "hit": false,
      "t": 81925.81300000002,
      "d": 101.33942083333386,
      "v": 96
    },
    {
      "midi": 76,
      "hit": false,
      "t": 82032.95600000002,
      "d": 315.62542083332664,
      "v": 96
    },
    {
      "midi": 88,
      "hit": false,
      "t": 82032.95600000002,
      "d": 315.62542083332664,
      "v": 96
    },
    {
      "midi": 57,
      "hit": false,
      "t": 82071.53800000061,
      "d": 203.12527083333407,
      "v": 80
    },
    {
      "midi": 62,
      "hit": false,
      "t": 82071.53800000061,
      "d": 203.12527083333407,
      "v": 80
    },
    {
      "midi": 65,
      "hit": false,
      "t": 82071.53800000061,
      "d": 203.12527083333407,
      "v": 80
    },
    {
      "midi": 40,
      "hit": false,
      "t": 82285.82400000062,
      "d": 203.12527083333407,
      "v": 80
    },
    {
      "midi": 57,
      "hit": false,
      "t": 82500.11000000063,
      "d": 203.12527083333407,
      "v": 80
    },
    {
      "midi": 61,
      "hit": false,
      "t": 82500.11000000063,
      "d": 203.12527083333407,
      "v": 80
    },
    {
      "midi": 64,
      "hit": false,
      "t": 82500.11000000063,
      "d": 203.12527083333407,
      "v": 80
    },
    {
      "midi": 67,
      "hit": false,
      "t": 82500.11000000063,
      "d": 203.12527083333407,
      "v": 80
    },
    {
      "midi": 76,
      "hit": false,
      "t": 82568.67100000002,
      "d": 101.33942083333386,
      "v": 96
    },
    {
      "midi": 88,
      "hit": false,
      "t": 82568.67100000002,
      "d": 101.33942083333386,
      "v": 96
    },
    {
      "midi": 77,
      "hit": false,
      "t": 82675.81400000001,
      "d": 101.33942083333386,
      "v": 96
    },
    {
      "midi": 89,
      "hit": false,
      "t": 82675.81400000001,
      "d": 101.33942083333386,
      "v": 96
    },
    {
      "midi": 45,
      "hit": false,
      "t": 82714.39600000063,
      "d": 203.12527083333407,
      "v": 80
    },
    {
      "midi": 79,
      "hit": false,
      "t": 82782.95700000001,
      "d": 101.33942083333386,
      "v": 96
    },
    {
      "midi": 91,
      "hit": false,
      "t": 82782.95700000001,
      "d": 101.33942083333386,
      "v": 96
    },
    {
      "midi": 82,
      "hit": false,
      "t": 82890.1,
      "d": 106.69657083333004,
      "v": 96
    },
    {
      "midi": 94,
      "hit": false,
      "t": 82890.1,
      "d": 106.69657083333004,
      "v": 96
    },
    {
      "midi": 57,
      "hit": false,
      "t": 82928.68200000064,
      "d": 203.12527083333407,
      "v": 80
    },
    {
      "midi": 61,
      "hit": false,
      "t": 82928.68200000064,
      "d": 203.12527083333407,
      "v": 80
    },
    {
      "midi": 64,
      "hit": false,
      "t": 82928.68200000064,
      "d": 203.12527083333407,
      "v": 80
    },
    {
      "midi": 67,
      "hit": false,
      "t": 82928.68200000064,
      "d": 203.12527083333407,
      "v": 80
    },
    {
      "midi": 85,
      "hit": false,
      "t": 83104.386,
      "d": 213.83957083332643,
      "v": 115
    },
    {
      "midi": 91,
      "hit": false,
      "t": 83104.386,
      "d": 213.83957083332643,
      "v": 115
    },
    {
      "midi": 94,
      "hit": false,
      "t": 83104.386,
      "d": 213.83957083332643,
      "v": 115
    },
    {
      "midi": 97,
      "hit": false,
      "t": 83104.386,
      "d": 213.83957083332643,
      "v": 115
    },
    {
      "midi": 40,
      "hit": false,
      "t": 83142.96800000065,
      "d": 203.12527083333407,
      "v": 80
    },
    {
      "midi": 57,
      "hit": false,
      "t": 83357.25400000066,
      "d": 203.12527083333407,
      "v": 80
    },
    {
      "midi": 61,
      "hit": false,
      "t": 83357.25400000066,
      "d": 203.12527083333407,
      "v": 80
    },
    {
      "midi": 64,
      "hit": false,
      "t": 83357.25400000066,
      "d": 203.12527083333407,
      "v": 80
    },
    {
      "midi": 67,
      "hit": false,
      "t": 83357.25400000066,
      "d": 203.12527083333407,
      "v": 80
    },
    {
      "midi": 45,
      "hit": false,
      "t": 83571.54000000066,
      "d": 203.12527083333407,
      "v": 80
    },
    {
      "midi": 85,
      "hit": false,
      "t": 83640.101,
      "d": 101.33942083333386,
      "v": 96
    },
    {
      "midi": 97,
      "hit": false,
      "t": 83640.101,
      "d": 101.33942083333386,
      "v": 96
    },
    {
      "midi": 86,
      "hit": false,
      "t": 83747.24399999999,
      "d": 106.69657083333004,
      "v": 96
    },
    {
      "midi": 98,
      "hit": false,
      "t": 83747.24399999999,
      "d": 106.69657083333004,
      "v": 96
    },
    {
      "midi": 49,
      "hit": false,
      "t": 83785.82600000067,
      "d": 203.12527083333407,
      "v": 80
    },
    {
      "midi": 57,
      "hit": false,
      "t": 83785.82600000067,
      "d": 203.12527083333407,
      "v": 80
    },
    {
      "midi": 61,
      "hit": false,
      "t": 83785.82600000067,
      "d": 203.12527083333407,
      "v": 80
    },
    {
      "midi": 64,
      "hit": false,
      "t": 83785.82600000067,
      "d": 203.12527083333407,
      "v": 80
    },
    {
      "midi": 67,
      "hit": false,
      "t": 83785.82600000067,
      "d": 203.12527083333407,
      "v": 80
    },
    {
      "midi": 80,
      "hit": false,
      "t": 83961.52999999998,
      "d": 101.33942083333386,
      "v": 96
    },
    {
      "midi": 92,
      "hit": false,
      "t": 83961.52999999998,
      "d": 101.33942083333386,
      "v": 96
    },
    {
      "midi": 50,
      "hit": false,
      "t": 84000.11200000068,
      "d": 203.12527083333407,
      "v": 80
    },
    {
      "midi": 81,
      "hit": false,
      "t": 84068.67299999998,
      "d": 106.69657083333004,
      "v": 96
    },
    {
      "midi": 93,
      "hit": false,
      "t": 84068.67299999998,
      "d": 106.69657083333004,
      "v": 96
    },
    {
      "midi": 57,
      "hit": false,
      "t": 84214.39800000068,
      "d": 203.12527083333407,
      "v": 80
    },
    {
      "midi": 62,
      "hit": false,
      "t": 84214.39800000068,
      "d": 203.12527083333407,
      "v": 80
    },
    {
      "midi": 65,
      "hit": false,
      "t": 84214.39800000068,
      "d": 203.12527083333407,
      "v": 80
    },
    {
      "midi": 76,
      "hit": false,
      "t": 84282.95899999997,
      "d": 101.33942083333386,
      "v": 96
    },
    {
      "midi": 88,
      "hit": false,
      "t": 84282.95899999997,
      "d": 101.33942083333386,
      "v": 96
    },
    {
      "midi": 77,
      "hit": false,
      "t": 84390.10199999997,
      "d": 106.69657083333004,
      "v": 96
    },
    {
      "midi": 89,
      "hit": false,
      "t": 84390.10199999997,
      "d": 106.69657083333004,
      "v": 96
    },
    {
      "midi": 45,
      "hit": false,
      "t": 84428.68400000069,
      "d": 203.12527083333407,
      "v": 80
    },
    {
      "midi": 73,
      "hit": false,
      "t": 84604.38799999996,
      "d": 101.33942083333386,
      "v": 96
    },
    {
      "midi": 85,
      "hit": false,
      "t": 84604.38799999996,
      "d": 101.33942083333386,
      "v": 96
    },
    {
      "midi": 57,
      "hit": false,
      "t": 84642.9700000007,
      "d": 203.12527083333407,
      "v": 80
    },
    {
      "midi": 62,
      "hit": false,
      "t": 84642.9700000007,
      "d": 203.12527083333407,
      "v": 80
    },
    {
      "midi": 65,
      "hit": false,
      "t": 84642.9700000007,
      "d": 203.12527083333407,
      "v": 80
    },
    {
      "midi": 74,
      "hit": false,
      "t": 84711.53099999996,
      "d": 406.6969708333345,
      "v": 96
    },
    {
      "midi": 86,
      "hit": false,
      "t": 84711.53099999996,
      "d": 406.6969708333345,
      "v": 96
    },
    {
      "midi": 50,
      "hit": false,
      "t": 84857.2560000007,
      "d": 203.12527083333407,
      "v": 80
    },
    {
      "midi": 57,
      "hit": false,
      "t": 85071.54200000071,
      "d": 203.12527083333407,
      "v": 80
    },
    {
      "midi": 62,
      "hit": false,
      "t": 85071.54200000071,
      "d": 203.12527083333407,
      "v": 80
    },
    {
      "midi": 65,
      "hit": false,
      "t": 85071.54200000071,
      "d": 203.12527083333407,
      "v": 80
    },
    {
      "midi": 75,
      "hit": false,
      "t": 85140.10299999996,
      "d": 101.33942083333386,
      "v": 96
    },
    {
      "midi": 87,
      "hit": false,
      "t": 85140.10299999996,
      "d": 101.33942083333386,
      "v": 96
    },
    {
      "midi": 76,
      "hit": false,
      "t": 85247.24599999996,
      "d": 106.69657083333004,
      "v": 96
    },
    {
      "midi": 88,
      "hit": false,
      "t": 85247.24599999996,
      "d": 106.69657083333004,
      "v": 96
    },
    {
      "midi": 45,
      "hit": false,
      "t": 85285.82800000072,
      "d": 203.12527083333407,
      "v": 80
    },
    {
      "midi": 72,
      "hit": false,
      "t": 85461.53199999995,
      "d": 101.33942083333386,
      "v": 96
    },
    {
      "midi": 84,
      "hit": false,
      "t": 85461.53199999995,
      "d": 101.33942083333386,
      "v": 96
    },
    {
      "midi": 57,
      "hit": false,
      "t": 85500.11400000073,
      "d": 203.12527083333407,
      "v": 80
    },
    {
      "midi": 62,
      "hit": false,
      "t": 85500.11400000073,
      "d": 203.12527083333407,
      "v": 80
    },
    {
      "midi": 65,
      "hit": false,
      "t": 85500.11400000073,
      "d": 203.12527083333407,
      "v": 80
    },
    {
      "midi": 73,
      "hit": false,
      "t": 85568.67499999994,
      "d": 406.6969708333345,
      "v": 96
    },
    {
      "midi": 85,
      "hit": false,
      "t": 85568.67499999994,
      "d": 406.6969708333345,
      "v": 96
    },
    {
      "midi": 40,
      "hit": false,
      "t": 85714.40000000074,
      "d": 203.12527083333407,
      "v": 80
    },
    {
      "midi": 57,
      "hit": false,
      "t": 85928.68600000074,
      "d": 203.12527083333407,
      "v": 80
    },
    {
      "midi": 61,
      "hit": false,
      "t": 85928.68600000074,
      "d": 203.12527083333407,
      "v": 80
    },
    {
      "midi": 64,
      "hit": false,
      "t": 85928.68600000074,
      "d": 203.12527083333407,
      "v": 80
    },
    {
      "midi": 67,
      "hit": false,
      "t": 85928.68600000074,
      "d": 203.12527083333407,
      "v": 80
    },
    {
      "midi": 45,
      "hit": false,
      "t": 86142.97200000075,
      "d": 203.12527083333407,
      "v": 80
    },
    {
      "midi": 57,
      "hit": false,
      "t": 86357.25800000076,
      "d": 203.12527083333407,
      "v": 80
    },
    {
      "midi": 61,
      "hit": false,
      "t": 86357.25800000076,
      "d": 203.12527083333407,
      "v": 80
    },
    {
      "midi": 64,
      "hit": false,
      "t": 86357.25800000076,
      "d": 203.12527083333407,
      "v": 80
    },
    {
      "midi": 67,
      "hit": false,
      "t": 86357.25800000076,
      "d": 203.12527083333407,
      "v": 80
    },
    {
      "midi": 40,
      "hit": false,
      "t": 86571.54400000077,
      "d": 203.12527083333407,
      "v": 80
    },
    {
      "midi": 57,
      "hit": false,
      "t": 86785.83000000077,
      "d": 203.12527083333407,
      "v": 80
    },
    {
      "midi": 61,
      "hit": false,
      "t": 86785.83000000077,
      "d": 203.12527083333407,
      "v": 80
    },
    {
      "midi": 64,
      "hit": false,
      "t": 86785.83000000077,
      "d": 203.12527083333407,
      "v": 80
    },
    {
      "midi": 67,
      "hit": false,
      "t": 86785.83000000077,
      "d": 203.12527083333407,
      "v": 80
    },
    {
      "midi": 45,
      "hit": false,
      "t": 87000.11600000078,
      "d": 203.12527083333407,
      "v": 80
    },
    {
      "midi": 85,
      "hit": false,
      "t": 87068.67699999995,
      "d": 101.33942083333386,
      "v": 96
    },
    {
      "midi": 97,
      "hit": false,
      "t": 87068.67699999995,
      "d": 101.33942083333386,
      "v": 96
    },
    {
      "midi": 86,
      "hit": false,
      "t": 87175.81999999995,
      "d": 106.69657083333004,
      "v": 96
    },
    {
      "midi": 98,
      "hit": false,
      "t": 87175.81999999995,
      "d": 106.69657083333004,
      "v": 96
    },
    {
      "midi": 49,
      "hit": false,
      "t": 87214.40200000079,
      "d": 203.12527083333407,
      "v": 80
    },
    {
      "midi": 57,
      "hit": false,
      "t": 87214.40200000079,
      "d": 203.12527083333407,
      "v": 80
    },
    {
      "midi": 61,
      "hit": false,
      "t": 87214.40200000079,
      "d": 203.12527083333407,
      "v": 80
    },
    {
      "midi": 64,
      "hit": false,
      "t": 87214.40200000079,
      "d": 203.12527083333407,
      "v": 80
    },
    {
      "midi": 67,
      "hit": false,
      "t": 87214.40200000079,
      "d": 203.12527083333407,
      "v": 80
    },
    {
      "midi": 80,
      "hit": false,
      "t": 87390.10599999994,
      "d": 101.33942083333386,
      "v": 96
    },
    {
      "midi": 92,
      "hit": false,
      "t": 87390.10599999994,
      "d": 101.33942083333386,
      "v": 96
    },
    {
      "midi": 50,
      "hit": false,
      "t": 87428.6880000008,
      "d": 203.12527083333407,
      "v": 80
    },
    {
      "midi": 81,
      "hit": false,
      "t": 87497.24899999994,
      "d": 106.69657083333004,
      "v": 96
    },
    {
      "midi": 93,
      "hit": false,
      "t": 87497.24899999994,
      "d": 106.69657083333004,
      "v": 96
    },
    {
      "midi": 57,
      "hit": false,
      "t": 87642.9740000008,
      "d": 203.12527083333407,
      "v": 80
    },
    {
      "midi": 62,
      "hit": false,
      "t": 87642.9740000008,
      "d": 203.12527083333407,
      "v": 80
    },
    {
      "midi": 65,
      "hit": false,
      "t": 87642.9740000008,
      "d": 203.12527083333407,
      "v": 80
    },
    {
      "midi": 76,
      "hit": false,
      "t": 87711.53499999993,
      "d": 101.33942083333386,
      "v": 96
    },
    {
      "midi": 88,
      "hit": false,
      "t": 87711.53499999993,
      "d": 101.33942083333386,
      "v": 96
    },
    {
      "midi": 77,
      "hit": false,
      "t": 87818.67799999993,
      "d": 106.69657083333004,
      "v": 96
    },
    {
      "midi": 89,
      "hit": false,
      "t": 87818.67799999993,
      "d": 106.69657083333004,
      "v": 96
    },
    {
      "midi": 45,
      "hit": false,
      "t": 87857.26000000081,
      "d": 203.12527083333407,
      "v": 80
    },
    {
      "midi": 73,
      "hit": false,
      "t": 88032.96399999992,
      "d": 101.33942083333386,
      "v": 96
    },
    {
      "midi": 85,
      "hit": false,
      "t": 88032.96399999992,
      "d": 101.33942083333386,
      "v": 96
    },
    {
      "midi": 57,
      "hit": false,
      "t": 88071.54600000082,
      "d": 203.12527083333407,
      "v": 80
    },
    {
      "midi": 62,
      "hit": false,
      "t": 88071.54600000082,
      "d": 203.12527083333407,
      "v": 80
    },
    {
      "midi": 65,
      "hit": false,
      "t": 88071.54600000082,
      "d": 203.12527083333407,
      "v": 80
    },
    {
      "midi": 74,
      "hit": false,
      "t": 88140.10699999992,
      "d": 106.69657083333004,
      "v": 96
    },
    {
      "midi": 86,
      "hit": false,
      "t": 88140.10699999992,
      "d": 106.69657083333004,
      "v": 96
    },
    {
      "midi": 50,
      "hit": false,
      "t": 88285.83200000082,
      "d": 203.12527083333407,
      "v": 80
    },
    {
      "midi": 72,
      "hit": false,
      "t": 88354.39299999991,
      "d": 106.69657083333004,
      "v": 96
    },
    {
      "midi": 84,
      "hit": false,
      "t": 88354.39299999991,
      "d": 106.69657083333004,
      "v": 96
    },
    {
      "midi": 57,
      "hit": false,
      "t": 88500.11800000083,
      "d": 203.12527083333407,
      "v": 80
    },
    {
      "midi": 62,
      "hit": false,
      "t": 88500.11800000083,
      "d": 203.12527083333407,
      "v": 80
    },
    {
      "midi": 65,
      "hit": false,
      "t": 88500.11800000083,
      "d": 203.12527083333407,
      "v": 80
    },
    {
      "midi": 70,
      "hit": false,
      "t": 88568.6789999999,
      "d": 101.33942083333386,
      "v": 96
    },
    {
      "midi": 82,
      "hit": false,
      "t": 88568.6789999999,
      "d": 101.33942083333386,
      "v": 96
    },
    {
      "midi": 73,
      "hit": false,
      "t": 88675.8219999999,
      "d": 101.33942083333386,
      "v": 96
    },
    {
      "midi": 85,
      "hit": false,
      "t": 88675.8219999999,
      "d": 101.33942083333386,
      "v": 96
    },
    {
      "midi": 45,
      "hit": false,
      "t": 88714.40400000084,
      "d": 203.12527083333407,
      "v": 80
    },
    {
      "midi": 74,
      "hit": false,
      "t": 88782.9649999999,
      "d": 101.33942083333386,
      "v": 96
    },
    {
      "midi": 86,
      "hit": false,
      "t": 88782.9649999999,
      "d": 101.33942083333386,
      "v": 96
    },
    {
      "midi": 76,
      "hit": false,
      "t": 88890.10799999989,
      "d": 315.62542083332664,
      "v": 96
    },
    {
      "midi": 88,
      "hit": false,
      "t": 88890.10799999989,
      "d": 315.62542083332664,
      "v": 96
    },
    {
      "midi": 57,
      "hit": false,
      "t": 88928.69000000085,
      "d": 203.12527083333407,
      "v": 80
    },
    {
      "midi": 62,
      "hit": false,
      "t": 88928.69000000085,
      "d": 203.12527083333407,
      "v": 80
    },
    {
      "midi": 65,
      "hit": false,
      "t": 88928.69000000085,
      "d": 203.12527083333407,
      "v": 80
    },
    {
      "midi": 40,
      "hit": false,
      "t": 89142.97600000085,
      "d": 203.12527083333407,
      "v": 80
    },
    {
      "midi": 57,
      "hit": false,
      "t": 89357.26200000086,
      "d": 203.12527083333407,
      "v": 80
    },
    {
      "midi": 61,
      "hit": false,
      "t": 89357.26200000086,
      "d": 203.12527083333407,
      "v": 80
    },
    {
      "midi": 64,
      "hit": false,
      "t": 89357.26200000086,
      "d": 203.12527083333407,
      "v": 80
    },
    {
      "midi": 67,
      "hit": false,
      "t": 89357.26200000086,
      "d": 203.12527083333407,
      "v": 80
    },
    {
      "midi": 76,
      "hit": false,
      "t": 89425.82299999989,
      "d": 101.33942083333386,
      "v": 96
    },
    {
      "midi": 88,
      "hit": false,
      "t": 89425.82299999989,
      "d": 101.33942083333386,
      "v": 96
    },
    {
      "midi": 77,
      "hit": false,
      "t": 89532.96599999988,
      "d": 101.33942083333386,
      "v": 96
    },
    {
      "midi": 89,
      "hit": false,
      "t": 89532.96599999988,
      "d": 101.33942083333386,
      "v": 96
    },
    {
      "midi": 45,
      "hit": false,
      "t": 89571.54800000087,
      "d": 203.12527083333407,
      "v": 80
    },
    {
      "midi": 79,
      "hit": false,
      "t": 89640.10899999988,
      "d": 101.33942083333386,
      "v": 96
    },
    {
      "midi": 91,
      "hit": false,
      "t": 89640.10899999988,
      "d": 101.33942083333386,
      "v": 96
    },
    {
      "midi": 82,
      "hit": false,
      "t": 89747.25199999988,
      "d": 106.69657083333004,
      "v": 96
    },
    {
      "midi": 94,
      "hit": false,
      "t": 89747.25199999988,
      "d": 106.69657083333004,
      "v": 96
    },
    {
      "midi": 57,
      "hit": false,
      "t": 89785.83400000088,
      "d": 203.12527083333407,
      "v": 80
    },
    {
      "midi": 61,
      "hit": false,
      "t": 89785.83400000088,
      "d": 203.12527083333407,
      "v": 80
    },
    {
      "midi": 64,
      "hit": false,
      "t": 89785.83400000088,
      "d": 203.12527083333407,
      "v": 80
    },
    {
      "midi": 67,
      "hit": false,
      "t": 89785.83400000088,
      "d": 203.12527083333407,
      "v": 80
    },
    {
      "midi": 85,
      "hit": false,
      "t": 89961.53799999987,
      "d": 213.83957083332643,
      "v": 115
    },
    {
      "midi": 91,
      "hit": false,
      "t": 89961.53799999987,
      "d": 213.83957083332643,
      "v": 115
    },
    {
      "midi": 94,
      "hit": false,
      "t": 89961.53799999987,
      "d": 213.83957083332643,
      "v": 115
    },
    {
      "midi": 97,
      "hit": false,
      "t": 89961.53799999987,
      "d": 213.83957083332643,
      "v": 115
    },
    {
      "midi": 40,
      "hit": false,
      "t": 90000.12000000088,
      "d": 203.12527083333407,
      "v": 80
    },
    {
      "midi": 57,
      "hit": false,
      "t": 90214.40600000089,
      "d": 203.12527083333407,
      "v": 80
    },
    {
      "midi": 61,
      "hit": false,
      "t": 90214.40600000089,
      "d": 203.12527083333407,
      "v": 80
    },
    {
      "midi": 64,
      "hit": false,
      "t": 90214.40600000089,
      "d": 203.12527083333407,
      "v": 80
    },
    {
      "midi": 67,
      "hit": false,
      "t": 90214.40600000089,
      "d": 203.12527083333407,
      "v": 80
    },
    {
      "midi": 45,
      "hit": false,
      "t": 90428.6920000009,
      "d": 203.12527083333407,
      "v": 80
    },
    {
      "midi": 85,
      "hit": false,
      "t": 90497.25299999987,
      "d": 101.33942083333386,
      "v": 96
    },
    {
      "midi": 97,
      "hit": false,
      "t": 90497.25299999987,
      "d": 101.33942083333386,
      "v": 96
    },
    {
      "midi": 86,
      "hit": false,
      "t": 90604.39599999986,
      "d": 106.69657083333004,
      "v": 96
    },
    {
      "midi": 98,
      "hit": false,
      "t": 90604.39599999986,
      "d": 106.69657083333004,
      "v": 96
    },
    {
      "midi": 49,
      "hit": false,
      "t": 90642.9780000009,
      "d": 203.12527083333407,
      "v": 80
    },
    {
      "midi": 57,
      "hit": false,
      "t": 90642.9780000009,
      "d": 203.12527083333407,
      "v": 80
    },
    {
      "midi": 61,
      "hit": false,
      "t": 90642.9780000009,
      "d": 203.12527083333407,
      "v": 80
    },
    {
      "midi": 64,
      "hit": false,
      "t": 90642.9780000009,
      "d": 203.12527083333407,
      "v": 80
    },
    {
      "midi": 67,
      "hit": false,
      "t": 90642.9780000009,
      "d": 203.12527083333407,
      "v": 80
    },
    {
      "midi": 80,
      "hit": false,
      "t": 90818.68199999986,
      "d": 101.33942083333386,
      "v": 96
    },
    {
      "midi": 92,
      "hit": false,
      "t": 90818.68199999986,
      "d": 101.33942083333386,
      "v": 96
    },
    {
      "midi": 43,
      "hit": false,
      "t": 90857.26400000091,
      "d": 203.12527083333407,
      "v": 80
    },
    {
      "midi": 81,
      "hit": false,
      "t": 90925.82499999985,
      "d": 106.69657083333004,
      "v": 96
    },
    {
      "midi": 93,
      "hit": false,
      "t": 90925.82499999985,
      "d": 106.69657083333004,
      "v": 96
    },
    {
      "midi": 55,
      "hit": false,
      "t": 91071.55000000092,
      "d": 203.12527083333407,
      "v": 80
    },
    {
      "midi": 58,
      "hit": false,
      "t": 91071.55000000092,
      "d": 203.12527083333407,
      "v": 80
    },
    {
      "midi": 62,
      "hit": false,
      "t": 91071.55000000092,
      "d": 203.12527083333407,
      "v": 80
    },
    {
      "midi": 76,
      "hit": false,
      "t": 91140.11099999984,
      "d": 101.33942083333386,
      "v": 96
    },
    {
      "midi": 88,
      "hit": false,
      "t": 91140.11099999984,
      "d": 101.33942083333386,
      "v": 96
    },
    {
      "midi": 77,
      "hit": false,
      "t": 91247.25399999984,
      "d": 106.69657083333004,
      "v": 96
    },
    {
      "midi": 89,
      "hit": false,
      "t": 91247.25399999984,
      "d": 106.69657083333004,
      "v": 96
    },
    {
      "midi": 38,
      "hit": false,
      "t": 91285.83600000093,
      "d": 203.12527083333407,
      "v": 80
    },
    {
      "midi": 73,
      "hit": false,
      "t": 91461.53999999983,
      "d": 101.33942083333386,
      "v": 96
    },
    {
      "midi": 85,
      "hit": false,
      "t": 91461.53999999983,
      "d": 101.33942083333386,
      "v": 96
    },
    {
      "midi": 55,
      "hit": false,
      "t": 91500.12200000093,
      "d": 203.12527083333407,
      "v": 80
    },
    {
      "midi": 58,
      "hit": false,
      "t": 91500.12200000093,
      "d": 203.12527083333407,
      "v": 80
    },
    {
      "midi": 62,
      "hit": false,
      "t": 91500.12200000093,
      "d": 203.12527083333407,
      "v": 80
    },
    {
      "midi": 74,
      "hit": false,
      "t": 91568.68299999983,
      "d": 406.6969708333345,
      "v": 96
    },
    {
      "midi": 86,
      "hit": false,
      "t": 91568.68299999983,
      "d": 406.6969708333345,
      "v": 96
    },
    {
      "midi": 43,
      "hit": false,
      "t": 91714.40800000094,
      "d": 203.12527083333407,
      "v": 80
    },
    {
      "midi": 55,
      "hit": false,
      "t": 91928.69400000095,
      "d": 203.12527083333407,
      "v": 80
    },
    {
      "midi": 58,
      "hit": false,
      "t": 91928.69400000095,
      "d": 203.12527083333407,
      "v": 80
    },
    {
      "midi": 62,
      "hit": false,
      "t": 91928.69400000095,
      "d": 203.12527083333407,
      "v": 80
    },
    {
      "midi": 75,
      "hit": false,
      "t": 91997.25499999983,
      "d": 101.33942083333386,
      "v": 96
    },
    {
      "midi": 87,
      "hit": false,
      "t": 91997.25499999983,
      "d": 101.33942083333386,
      "v": 96
    },
    {
      "midi": 76,
      "hit": false,
      "t": 92104.39799999983,
      "d": 106.69657083333004,
      "v": 96
    },
    {
      "midi": 88,
      "hit": false,
      "t": 92104.39799999983,
      "d": 106.69657083333004,
      "v": 96
    },
    {
      "midi": 50,
      "hit": false,
      "t": 92142.98000000096,
      "d": 203.12527083333407,
      "v": 80
    },
    {
      "midi": 72,
      "hit": false,
      "t": 92318.68399999982,
      "d": 101.33942083333386,
      "v": 96
    },
    {
      "midi": 84,
      "hit": false,
      "t": 92318.68399999982,
      "d": 101.33942083333386,
      "v": 96
    },
    {
      "midi": 44,
      "hit": false,
      "t": 92357.26600000096,
      "d": 203.12527083333407,
      "v": 80
    },
    {
      "midi": 55,
      "hit": false,
      "t": 92357.26600000096,
      "d": 203.12527083333407,
      "v": 80
    },
    {
      "midi": 58,
      "hit": false,
      "t": 92357.26600000096,
      "d": 203.12527083333407,
      "v": 80
    },
    {
      "midi": 62,
      "hit": false,
      "t": 92357.26600000096,
      "d": 203.12527083333407,
      "v": 80
    },
    {
      "midi": 73,
      "hit": false,
      "t": 92425.82699999982,
      "d": 406.6969708333345,
      "v": 96
    },
    {
      "midi": 85,
      "hit": false,
      "t": 92425.82699999982,
      "d": 406.6969708333345,
      "v": 96
    },
    {
      "midi": 45,
      "hit": false,
      "t": 92571.55200000097,
      "d": 203.12527083333407,
      "v": 80
    },
    {
      "midi": 54,
      "hit": false,
      "t": 92785.83800000098,
      "d": 203.12527083333407,
      "v": 80
    },
    {
      "midi": 57,
      "hit": false,
      "t": 92785.83800000098,
      "d": 203.12527083333407,
      "v": 80
    },
    {
      "midi": 60,
      "hit": false,
      "t": 92785.83800000098,
      "d": 203.12527083333407,
      "v": 80
    },
    {
      "midi": 62,
      "hit": false,
      "t": 92785.83800000098,
      "d": 203.12527083333407,
      "v": 80
    },
    {
      "midi": 79,
      "hit": false,
      "t": 92854.39899999982,
      "d": 101.33942083333386,
      "v": 96
    },
    {
      "midi": 81,
      "hit": false,
      "t": 92961.54199999981,
      "d": 106.69657083333004,
      "v": 96
    },
    {
      "midi": 38,
      "hit": false,
      "t": 93000.12400000099,
      "d": 203.12527083333407,
      "v": 80
    },
    {
      "midi": 79,
      "hit": false,
      "t": 93175.8279999998,
      "d": 106.69657083333004,
      "v": 96
    },
    {
      "midi": 54,
      "hit": false,
      "t": 93214.410000001,
      "d": 203.12527083333407,
      "v": 80
    },
    {
      "midi": 57,
      "hit": false,
      "t": 93214.410000001,
      "d": 203.12527083333407,
      "v": 80
    },
    {
      "midi": 60,
      "hit": false,
      "t": 93214.410000001,
      "d": 203.12527083333407,
      "v": 80
    },
    {
      "midi": 62,
      "hit": false,
      "t": 93214.410000001,
      "d": 203.12527083333407,
      "v": 80
    },
    {
      "midi": 77,
      "hit": false,
      "t": 93390.1139999998,
      "d": 101.33942083333386,
      "v": 96
    },
    {
      "midi": 45,
      "hit": false,
      "t": 93428.696000001,
      "d": 203.12527083333407,
      "v": 80
    },
    {
      "midi": 76,
      "hit": false,
      "t": 93497.2569999998,
      "d": 101.33942083333386,
      "v": 96
    },
    {
      "midi": 77,
      "hit": false,
      "t": 93604.39999999979,
      "d": 101.33942083333386,
      "v": 96
    },
    {
      "midi": 54,
      "hit": false,
      "t": 93642.98200000101,
      "d": 203.12527083333407,
      "v": 80
    },
    {
      "midi": 57,
      "hit": false,
      "t": 93642.98200000101,
      "d": 203.12527083333407,
      "v": 80
    },
    {
      "midi": 60,
      "hit": false,
      "t": 93642.98200000101,
      "d": 203.12527083333407,
      "v": 80
    },
    {
      "midi": 62,
      "hit": false,
      "t": 93642.98200000101,
      "d": 203.12527083333407,
      "v": 80
    },
    {
      "midi": 73,
      "hit": false,
      "t": 93711.54299999979,
      "d": 101.33942083333386,
      "v": 96
    },
    {
      "midi": 78,
      "hit": false,
      "t": 93711.54299999979,
      "d": 101.33942083333386,
      "v": 96
    },
    {
      "midi": 74,
      "hit": false,
      "t": 93818.68599999978,
      "d": 106.69657083333004,
      "v": 96
    },
    {
      "midi": 79,
      "hit": false,
      "t": 93818.68599999978,
      "d": 106.69657083333004,
      "v": 96
    },
    {
      "midi": 38,
      "hit": false,
      "t": 93857.26800000102,
      "d": 203.12527083333407,
      "v": 80
    },
    {
      "midi": 74,
      "hit": false,
      "t": 94032.97199999978,
      "d": 508.4828208333347,
      "v": 96
    },
    {
      "midi": 79,
      "hit": false,
      "t": 94032.97199999978,
      "d": 508.4828208333347,
      "v": 96
    },
    {
      "midi": 54,
      "hit": false,
      "t": 94071.55400000102,
      "d": 203.12527083333407,
      "v": 80
    },
    {
      "midi": 57,
      "hit": false,
      "t": 94071.55400000102,
      "d": 203.12527083333407,
      "v": 80
    },
    {
      "midi": 60,
      "hit": false,
      "t": 94071.55400000102,
      "d": 203.12527083333407,
      "v": 80
    },
    {
      "midi": 62,
      "hit": false,
      "t": 94071.55400000102,
      "d": 203.12527083333407,
      "v": 80
    },
    {
      "midi": 43,
      "hit": false,
      "t": 94285.84000000103,
      "d": 203.12527083333407,
      "v": 80
    },
    {
      "midi": 55,
      "hit": false,
      "t": 94500.12600000104,
      "d": 203.12527083333407,
      "v": 80
    },
    {
      "midi": 58,
      "hit": false,
      "t": 94500.12600000104,
      "d": 203.12527083333407,
      "v": 80
    },
    {
      "midi": 62,
      "hit": false,
      "t": 94500.12600000104,
      "d": 203.12527083333407,
      "v": 80
    },
    {
      "midi": 74,
      "hit": false,
      "t": 94675.82999999978,
      "d": 203.12527083333407,
      "v": 96
    },
    {
      "midi": 79,
      "hit": false,
      "t": 94675.82999999978,
      "d": 203.12527083333407,
      "v": 96
    },
    {
      "midi": 38,
      "hit": false,
      "t": 94714.41200000104,
      "d": 203.12527083333407,
      "v": 80
    },
    {
      "midi": 55,
      "hit": false,
      "t": 94928.69800000105,
      "d": 203.12527083333407,
      "v": 80
    },
    {
      "midi": 58,
      "hit": false,
      "t": 94928.69800000105,
      "d": 203.12527083333407,
      "v": 80
    },
    {
      "midi": 62,
      "hit": false,
      "t": 94928.69800000105,
      "d": 203.12527083333407,
      "v": 80
    },
    {
      "midi": 72,
      "hit": false,
      "t": 94997.25899999979,
      "d": 106.69657083333004,
      "v": 96
    },
    {
      "midi": 77,
      "hit": false,
      "t": 94997.25899999979,
      "d": 106.69657083333004,
      "v": 96
    },
    {
      "midi": 43,
      "hit": false,
      "t": 95142.98400000106,
      "d": 203.12527083333407,
      "v": 80
    },
    {
      "midi": 74,
      "hit": false,
      "t": 95211.54499999978,
      "d": 106.69657083333004,
      "v": 96
    },
    {
      "midi": 79,
      "hit": false,
      "t": 95211.54499999978,
      "d": 106.69657083333004,
      "v": 96
    },
    {
      "midi": 55,
      "hit": false,
      "t": 95357.27000000107,
      "d": 203.12527083333407,
      "v": 80
    },
    {
      "midi": 58,
      "hit": false,
      "t": 95357.27000000107,
      "d": 203.12527083333407,
      "v": 80
    },
    {
      "midi": 62,
      "hit": false,
      "t": 95357.27000000107,
      "d": 203.12527083333407,
      "v": 80
    },
    {
      "midi": 72,
      "hit": false,
      "t": 95425.83099999977,
      "d": 101.33942083333386,
      "v": 96
    },
    {
      "midi": 80,
      "hit": false,
      "t": 95425.83099999977,
      "d": 101.33942083333386,
      "v": 96
    },
    {
      "midi": 74,
      "hit": false,
      "t": 95532.97399999977,
      "d": 106.69657083333004,
      "v": 96
    },
    {
      "midi": 81,
      "hit": false,
      "t": 95532.97399999977,
      "d": 106.69657083333004,
      "v": 96
    },
    {
      "midi": 50,
      "hit": false,
      "t": 95571.55600000107,
      "d": 203.12527083333407,
      "v": 80
    },
    {
      "midi": 69,
      "hit": false,
      "t": 95747.25999999976,
      "d": 508.4828208333347,
      "v": 96
    },
    {
      "midi": 74,
      "hit": false,
      "t": 95747.25999999976,
      "d": 508.4828208333347,
      "v": 96
    },
    {
      "midi": 44,
      "hit": false,
      "t": 95785.84200000108,
      "d": 203.12527083333407,
      "v": 80
    },
    {
      "midi": 55,
      "hit": false,
      "t": 95785.84200000108,
      "d": 203.12527083333407,
      "v": 80
    },
    {
      "midi": 58,
      "hit": false,
      "t": 95785.84200000108,
      "d": 203.12527083333407,
      "v": 80
    },
    {
      "midi": 62,
      "hit": false,
      "t": 95785.84200000108,
      "d": 203.12527083333407,
      "v": 80
    },
    {
      "midi": 45,
      "hit": false,
      "t": 96000.12800000109,
      "d": 203.12527083333407,
      "v": 80
    },
    {
      "midi": 54,
      "hit": false,
      "t": 96214.4140000011,
      "d": 203.12527083333407,
      "v": 80
    },
    {
      "midi": 57,
      "hit": false,
      "t": 96214.4140000011,
      "d": 203.12527083333407,
      "v": 80
    },
    {
      "midi": 60,
      "hit": false,
      "t": 96214.4140000011,
      "d": 203.12527083333407,
      "v": 80
    },
    {
      "midi": 62,
      "hit": false,
      "t": 96214.4140000011,
      "d": 203.12527083333407,
      "v": 80
    },
    {
      "midi": 92,
      "hit": false,
      "t": 96390.11799999977,
      "d": 101.33942083333386,
      "v": 96
    },
    {
      "midi": 38,
      "hit": false,
      "t": 96428.7000000011,
      "d": 203.12527083333407,
      "v": 80
    },
    {
      "midi": 93,
      "hit": false,
      "t": 96497.26099999977,
      "d": 101.33942083333386,
      "v": 96
    },
    {
      "midi": 85,
      "hit": false,
      "t": 96604.40399999976,
      "d": 101.33942083333386,
      "v": 96
    },
    {
      "midi": 54,
      "hit": false,
      "t": 96642.98600000111,
      "d": 203.12527083333407,
      "v": 80
    },
    {
      "midi": 57,
      "hit": false,
      "t": 96642.98600000111,
      "d": 203.12527083333407,
      "v": 80
    },
    {
      "midi": 60,
      "hit": false,
      "t": 96642.98600000111,
      "d": 203.12527083333407,
      "v": 80
    },
    {
      "midi": 62,
      "hit": false,
      "t": 96642.98600000111,
      "d": 203.12527083333407,
      "v": 80
    },
    {
      "midi": 86,
      "hit": false,
      "t": 96711.54699999976,
      "d": 101.33942083333386,
      "v": 96
    },
    {
      "midi": 80,
      "hit": false,
      "t": 96818.68999999975,
      "d": 101.33942083333386,
      "v": 96
    },
    {
      "midi": 33,
      "hit": false,
      "t": 96857.27200000112,
      "d": 203.12527083333407,
      "v": 80
    },
    {
      "midi": 81,
      "hit": false,
      "t": 96925.83299999975,
      "d": 106.69657083333004,
      "v": 96
    },
    {
      "midi": 54,
      "hit": false,
      "t": 97071.55800000113,
      "d": 203.12527083333407,
      "v": 80
    },
    {
      "midi": 57,
      "hit": false,
      "t": 97071.55800000113,
      "d": 203.12527083333407,
      "v": 80
    },
    {
      "midi": 60,
      "hit": false,
      "t": 97071.55800000113,
      "d": 203.12527083333407,
      "v": 80
    },
    {
      "midi": 62,
      "hit": false,
      "t": 97071.55800000113,
      "d": 203.12527083333407,
      "v": 80
    },
    {
      "midi": 73,
      "hit": false,
      "t": 97140.11899999974,
      "d": 101.33942083333386,
      "v": 96
    },
    {
      "midi": 78,
      "hit": false,
      "t": 97140.11899999974,
      "d": 101.33942083333386,
      "v": 96
    },
    {
      "midi": 74,
      "hit": false,
      "t": 97247.26199999974,
      "d": 106.69657083333004,
      "v": 96
    },
    {
      "midi": 79,
      "hit": false,
      "t": 97247.26199999974,
      "d": 106.69657083333004,
      "v": 96
    },
    {
      "midi": 38,
      "hit": false,
      "t": 97285.84400000113,
      "d": 203.12527083333407,
      "v": 80
    },
    {
      "midi": 74,
      "hit": false,
      "t": 97461.54799999973,
      "d": 508.4828208333347,
      "v": 96
    },
    {
      "midi": 79,
      "hit": false,
      "t": 97461.54799999973,
      "d": 508.4828208333347,
      "v": 96
    },
    {
      "midi": 42,
      "hit": false,
      "t": 97500.13000000114,
      "d": 203.12527083333407,
      "v": 80
    },
    {
      "midi": 54,
      "hit": false,
      "t": 97500.13000000114,
      "d": 203.12527083333407,
      "v": 80
    },
    {
      "midi": 57,
      "hit": false,
      "t": 97500.13000000114,
      "d": 203.12527083333407,
      "v": 80
    },
    {
      "midi": 60,
      "hit": false,
      "t": 97500.13000000114,
      "d": 203.12527083333407,
      "v": 80
    },
    {
      "midi": 62,
      "hit": false,
      "t": 97500.13000000114,
      "d": 203.12527083333407,
      "v": 80
    },
    {
      "midi": 43,
      "hit": false,
      "t": 97714.41600000115,
      "d": 203.12527083333407,
      "v": 80
    },
    {
      "midi": 55,
      "hit": false,
      "t": 97928.70200000115,
      "d": 203.12527083333407,
      "v": 80
    },
    {
      "midi": 58,
      "hit": false,
      "t": 97928.70200000115,
      "d": 203.12527083333407,
      "v": 80
    },
    {
      "midi": 62,
      "hit": false,
      "t": 97928.70200000115,
      "d": 203.12527083333407,
      "v": 80
    },
    {
      "midi": 74,
      "hit": false,
      "t": 98104.40599999974,
      "d": 213.83957083332643,
      "v": 115
    },
    {
      "midi": 79,
      "hit": false,
      "t": 98104.40599999974,
      "d": 213.83957083332643,
      "v": 115
    },
    {
      "midi": 38,
      "hit": false,
      "t": 98142.98800000116,
      "d": 203.12527083333407,
      "v": 80
    },
    {
      "midi": 55,
      "hit": false,
      "t": 98357.27400000117,
      "d": 203.12527083333407,
      "v": 80
    },
    {
      "midi": 58,
      "hit": false,
      "t": 98357.27400000117,
      "d": 203.12527083333407,
      "v": 80
    },
    {
      "midi": 62,
      "hit": false,
      "t": 98357.27400000117,
      "d": 203.12527083333407,
      "v": 80
    },
    {
      "midi": 72,
      "hit": false,
      "t": 98425.83499999973,
      "d": 106.69657083333004,
      "v": 96
    },
    {
      "midi": 77,
      "hit": false,
      "t": 98425.83499999973,
      "d": 106.69657083333004,
      "v": 96
    },
    {
      "midi": 43,
      "hit": false,
      "t": 98571.56000000118,
      "d": 203.12527083333407,
      "v": 80
    },
    {
      "midi": 71,
      "hit": false,
      "t": 98640.12099999972,
      "d": 101.33942083333386,
      "v": 96
    },
    {
      "midi": 76,
      "hit": false,
      "t": 98640.12099999972,
      "d": 101.33942083333386,
      "v": 96
    },
    {
      "midi": 69,
      "hit": false,
      "t": 98747.26399999972,
      "d": 529.911420833334,
      "v": 96
    },
    {
      "midi": 74,
      "hit": false,
      "t": 98747.26399999972,
      "d": 529.911420833334,
      "v": 96
    },
    {
      "midi": 55,
      "hit": false,
      "t": 98785.84600000118,
      "d": 203.12527083333407,
      "v": 80
    },
    {
      "midi": 58,
      "hit": false,
      "t": 98785.84600000118,
      "d": 203.12527083333407,
      "v": 80
    },
    {
      "midi": 62,
      "hit": false,
      "t": 98785.84600000118,
      "d": 203.12527083333407,
      "v": 80
    },
    {
      "midi": 50,
      "hit": false,
      "t": 99000.13200000119,
      "d": 203.12527083333407,
      "v": 80
    },
    {
      "midi": 44,
      "hit": false,
      "t": 99214.4180000012,
      "d": 203.12527083333407,
      "v": 80
    },
    {
      "midi": 55,
      "hit": false,
      "t": 99214.4180000012,
      "d": 203.12527083333407,
      "v": 80
    },
    {
      "midi": 58,
      "hit": false,
      "t": 99214.4180000012,
      "d": 203.12527083333407,
      "v": 80
    },
    {
      "midi": 62,
      "hit": false,
      "t": 99214.4180000012,
      "d": 203.12527083333407,
      "v": 80
    },
    {
      "midi": 45,
      "hit": false,
      "t": 99428.7040000012,
      "d": 203.12527083333407,
      "v": 80
    },
    {
      "midi": 54,
      "hit": false,
      "t": 99642.99000000121,
      "d": 203.12527083333407,
      "v": 80
    },
    {
      "midi": 57,
      "hit": false,
      "t": 99642.99000000121,
      "d": 203.12527083333407,
      "v": 80
    },
    {
      "midi": 60,
      "hit": false,
      "t": 99642.99000000121,
      "d": 203.12527083333407,
      "v": 80
    },
    {
      "midi": 62,
      "hit": false,
      "t": 99642.99000000121,
      "d": 203.12527083333407,
      "v": 80
    },
    {
      "midi": 77,
      "hit": false,
      "t": 99818.69399999973,
      "d": 101.33942083333386,
      "v": 96
    },
    {
      "midi": 89,
      "hit": false,
      "t": 99818.69399999973,
      "d": 101.33942083333386,
      "v": 96
    },
    {
      "midi": 38,
      "hit": false,
      "t": 99857.27600000122,
      "d": 203.12527083333407,
      "v": 80
    },
    {
      "midi": 78,
      "hit": false,
      "t": 99925.83699999972,
      "d": 203.12527083333407,
      "v": 96
    },
    {
      "midi": 90,
      "hit": false,
      "t": 99925.83699999972,
      "d": 203.12527083333407,
      "v": 96
    },
    {
      "midi": 54,
      "hit": false,
      "t": 100071.56200000123,
      "d": 203.12527083333407,
      "v": 80
    },
    {
      "midi": 57,
      "hit": false,
      "t": 100071.56200000123,
      "d": 203.12527083333407,
      "v": 80
    },
    {
      "midi": 60,
      "hit": false,
      "t": 100071.56200000123,
      "d": 203.12527083333407,
      "v": 80
    },
    {
      "midi": 62,
      "hit": false,
      "t": 100071.56200000123,
      "d": 203.12527083333407,
      "v": 80
    },
    {
      "midi": 77,
      "hit": false,
      "t": 100140.12299999973,
      "d": 101.33942083333386,
      "v": 96
    },
    {
      "midi": 89,
      "hit": false,
      "t": 100140.12299999973,
      "d": 101.33942083333386,
      "v": 96
    },
    {
      "midi": 78,
      "hit": false,
      "t": 100247.26599999973,
      "d": 203.12527083333407,
      "v": 96
    },
    {
      "midi": 90,
      "hit": false,
      "t": 100247.26599999973,
      "d": 203.12527083333407,
      "v": 96
    },
    {
      "midi": 45,
      "hit": false,
      "t": 100285.84800000124,
      "d": 203.12527083333407,
      "v": 80
    },
    {
      "midi": 72,
      "hit": false,
      "t": 100461.55199999973,
      "d": 101.33942083333386,
      "v": 96
    },
    {
      "midi": 77,
      "hit": false,
      "t": 100461.55199999973,
      "d": 101.33942083333386,
      "v": 96
    },
    {
      "midi": 54,
      "hit": false,
      "t": 100500.13400000124,
      "d": 203.12527083333407,
      "v": 80
    },
    {
      "midi": 57,
      "hit": false,
      "t": 100500.13400000124,
      "d": 203.12527083333407,
      "v": 80
    },
    {
      "midi": 60,
      "hit": false,
      "t": 100500.13400000124,
      "d": 203.12527083333407,
      "v": 80
    },
    {
      "midi": 62,
      "hit": false,
      "t": 100500.13400000124,
      "d": 203.12527083333407,
      "v": 80
    },
    {
      "midi": 73,
      "hit": false,
      "t": 100568.69499999973,
      "d": 101.33942083333386,
      "v": 96
    },
    {
      "midi": 78,
      "hit": false,
      "t": 100568.69499999973,
      "d": 101.33942083333386,
      "v": 96
    },
    {
      "midi": 74,
      "hit": false,
      "t": 100675.83799999973,
      "d": 106.69657083333004,
      "v": 96
    },
    {
      "midi": 79,
      "hit": false,
      "t": 100675.83799999973,
      "d": 106.69657083333004,
      "v": 96
    },
    {
      "midi": 50,
      "hit": false,
      "t": 100714.42000000125,
      "d": 203.12527083333407,
      "v": 80
    },
    {
      "midi": 74,
      "hit": false,
      "t": 100890.12399999972,
      "d": 508.4828208333347,
      "v": 96
    },
    {
      "midi": 79,
      "hit": false,
      "t": 100890.12399999972,
      "d": 508.4828208333347,
      "v": 96
    },
    {
      "midi": 49,
      "hit": false,
      "t": 100928.70600000126,
      "d": 203.12527083333407,
      "v": 80
    },
    {
      "midi": 54,
      "hit": false,
      "t": 100928.70600000126,
      "d": 203.12527083333407,
      "v": 80
    },
    {
      "midi": 57,
      "hit": false,
      "t": 100928.70600000126,
      "d": 203.12527083333407,
      "v": 80
    },
    {
      "midi": 60,
      "hit": false,
      "t": 100928.70600000126,
      "d": 203.12527083333407,
      "v": 80
    },
    {
      "midi": 62,
      "hit": false,
      "t": 100928.70600000126,
      "d": 203.12527083333407,
      "v": 80
    },
    {
      "midi": 48,
      "hit": false,
      "t": 101142.99200000126,
      "d": 203.12527083333407,
      "v": 80
    },
    {
      "midi": 51,
      "hit": false,
      "t": 101357.27800000127,
      "d": 203.12527083333407,
      "v": 80
    },
    {
      "midi": 55,
      "hit": false,
      "t": 101357.27800000127,
      "d": 203.12527083333407,
      "v": 80
    },
    {
      "midi": 60,
      "hit": false,
      "t": 101357.27800000127,
      "d": 203.12527083333407,
      "v": 80
    },
    {
      "midi": 74,
      "hit": false,
      "t": 101532.98199999973,
      "d": 203.12527083333407,
      "v": 96
    },
    {
      "midi": 79,
      "hit": false,
      "t": 101532.98199999973,
      "d": 203.12527083333407,
      "v": 96
    },
    {
      "midi": 43,
      "hit": false,
      "t": 101571.56400000128,
      "d": 203.12527083333407,
      "v": 80
    },
    {
      "midi": 51,
      "hit": false,
      "t": 101785.85000000129,
      "d": 203.12527083333407,
      "v": 80
    },
    {
      "midi": 55,
      "hit": false,
      "t": 101785.85000000129,
      "d": 203.12527083333407,
      "v": 80
    },
    {
      "midi": 60,
      "hit": false,
      "t": 101785.85000000129,
      "d": 203.12527083333407,
      "v": 80
    },
    {
      "midi": 72,
      "hit": false,
      "t": 101854.41099999973,
      "d": 106.69657083333004,
      "v": 96
    },
    {
      "midi": 77,
      "hit": false,
      "t": 101854.41099999973,
      "d": 106.69657083333004,
      "v": 96
    },
    {
      "midi": 41,
      "hit": false,
      "t": 102000.1360000013,
      "d": 203.12527083333407,
      "v": 80
    },
    {
      "midi": 74,
      "hit": false,
      "t": 102068.69699999972,
      "d": 106.69657083333004,
      "v": 96
    },
    {
      "midi": 79,
      "hit": false,
      "t": 102068.69699999972,
      "d": 106.69657083333004,
      "v": 96
    },
    {
      "midi": 50,
      "hit": false,
      "t": 102214.4220000013,
      "d": 203.12527083333407,
      "v": 80
    },
    {
      "midi": 54,
      "hit": false,
      "t": 102214.4220000013,
      "d": 203.12527083333407,
      "v": 80
    },
    {
      "midi": 60,
      "hit": false,
      "t": 102214.4220000013,
      "d": 203.12527083333407,
      "v": 80
    },
    {
      "midi": 74,
      "hit": false,
      "t": 102282.98299999972,
      "d": 101.33942083333386,
      "v": 96
    },
    {
      "midi": 81,
      "hit": false,
      "t": 102282.98299999972,
      "d": 101.33942083333386,
      "v": 96
    },
    {
      "midi": 69,
      "hit": false,
      "t": 102390.12599999971,
      "d": 106.69657083333004,
      "v": 96
    },
    {
      "midi": 74,
      "hit": false,
      "t": 102390.12599999971,
      "d": 106.69657083333004,
      "v": 96
    },
    {
      "midi": 48,
      "hit": false,
      "t": 102428.70800000131,
      "d": 203.12527083333407,
      "v": 80
    },
    {
      "midi": 69,
      "hit": false,
      "t": 102604.4119999997,
      "d": 508.4828208333347,
      "v": 96
    },
    {
      "midi": 74,
      "hit": false,
      "t": 102604.4119999997,
      "d": 508.4828208333347,
      "v": 96
    },
    {
      "midi": 50,
      "hit": false,
      "t": 102642.99400000132,
      "d": 203.12527083333407,
      "v": 80
    },
    {
      "midi": 54,
      "hit": false,
      "t": 102642.99400000132,
      "d": 203.12527083333407,
      "v": 80
    },
    {
      "midi": 60,
      "hit": false,
      "t": 102642.99400000132,
      "d": 203.12527083333407,
      "v": 80
    },
    {
      "midi": 74,
      "hit": false,
      "t": 103140.1269999997,
      "d": 50.00006666666013,
      "v": 96
    },
    {
      "midi": 69,
      "hit": false,
      "t": 103193.6984999997,
      "d": 50.00006666666013,
      "v": 96
    },
    {
      "midi": 74,
      "hit": false,
      "t": 103247.26999999968,
      "d": 50.00006666666013,
      "v": 96
    },
    {
      "midi": 69,
      "hit": false,
      "t": 103300.84149999967,
      "d": 50.00006666666013,
      "v": 96
    },
    {
      "midi": 74,
      "hit": false,
      "t": 103354.41299999967,
      "d": 50.00006666666013,
      "v": 96
    },
    {
      "midi": 69,
      "hit": false,
      "t": 103407.98449999966,
      "d": 50.00006666666013,
      "v": 96
    },
    {
      "midi": 74,
      "hit": false,
      "t": 103461.55599999965,
      "d": 50.00006666666013,
      "v": 96
    },
    {
      "midi": 69,
      "hit": false,
      "t": 103515.12749999964,
      "d": 50.00006666666013,
      "v": 96
    },
    {
      "midi": 74,
      "hit": false,
      "t": 103568.69899999963,
      "d": 50.00006666666013,
      "v": 96
    },
    {
      "midi": 69,
      "hit": false,
      "t": 103622.27049999962,
      "d": 50.00006666666013,
      "v": 96
    },
    {
      "midi": 74,
      "hit": false,
      "t": 103675.84199999961,
      "d": 50.00006666666013,
      "v": 96
    },
    {
      "midi": 69,
      "hit": false,
      "t": 103729.4134999996,
      "d": 50.00006666666013,
      "v": 96
    },
    {
      "midi": 74,
      "hit": false,
      "t": 103782.9849999996,
      "d": 50.00006666666013,
      "v": 96
    },
    {
      "midi": 69,
      "hit": false,
      "t": 103836.55649999958,
      "d": 50.00006666666013,
      "v": 96
    },
    {
      "midi": 74,
      "hit": false,
      "t": 103890.12799999957,
      "d": 50.00006666666013,
      "v": 96
    },
    {
      "midi": 51,
      "hit": false,
      "t": 103928.71000000132,
      "d": 64.28579999999783,
      "v": 112
    },
    {
      "midi": 69,
      "hit": false,
      "t": 103943.69949999957,
      "d": 50.00006666666013,
      "v": 96
    },
    {
      "midi": 52,
      "hit": false,
      "t": 103993.44222916798,
      "d": 548.2150166666688,
      "v": 112
    },
    {
      "midi": 70,
      "hit": false,
      "t": 104104.41399999955,
      "d": 203.12527083333407,
      "v": 96
    },
    {
      "midi": 75,
      "hit": false,
      "t": 104104.41399999955,
      "d": 203.12527083333407,
      "v": 96
    },
    {
      "midi": 69,
      "hit": false,
      "t": 104318.69999999956,
      "d": 101.33942083333386,
      "v": 96
    },
    {
      "midi": 74,
      "hit": false,
      "t": 104318.69999999956,
      "d": 101.33942083333386,
      "v": 96
    },
    {
      "midi": 70,
      "hit": false,
      "t": 104425.84299999956,
      "d": 101.33942083333386,
      "v": 96
    },
    {
      "midi": 75,
      "hit": false,
      "t": 104425.84299999956,
      "d": 101.33942083333386,
      "v": 96
    },
    {
      "midi": 70,
      "hit": false,
      "t": 104532.98599999955,
      "d": 106.69657083333004,
      "v": 96
    },
    {
      "midi": 75,
      "hit": false,
      "t": 104532.98599999955,
      "d": 106.69657083333004,
      "v": 96
    },
    {
      "midi": 45,
      "hit": false,
      "t": 104571.56800000131,
      "d": 203.12527083333407,
      "v": 80
    },
    {
      "midi": 69,
      "hit": false,
      "t": 104747.27199999955,
      "d": 203.12527083333407,
      "v": 96
    },
    {
      "midi": 75,
      "hit": false,
      "t": 104747.27199999955,
      "d": 203.12527083333407,
      "v": 96
    },
    {
      "midi": 52,
      "hit": false,
      "t": 104785.85400000132,
      "d": 203.12527083333407,
      "v": 80
    },
    {
      "midi": 57,
      "hit": false,
      "t": 104785.85400000132,
      "d": 203.12527083333407,
      "v": 80
    },
    {
      "midi": 60,
      "hit": false,
      "t": 104785.85400000132,
      "d": 203.12527083333407,
      "v": 80
    },
    {
      "midi": 69,
      "hit": false,
      "t": 104961.55799999955,
      "d": 203.12527083333407,
      "v": 96
    },
    {
      "midi": 75,
      "hit": false,
      "t": 104961.55799999955,
      "d": 203.12527083333407,
      "v": 96
    },
    {
      "midi": 40,
      "hit": false,
      "t": 105000.14000000132,
      "d": 203.12527083333407,
      "v": 80
    },
    {
      "midi": 68,
      "hit": false,
      "t": 105175.84399999956,
      "d": 101.33942083333386,
      "v": 96
    },
    {
      "midi": 74,
      "hit": false,
      "t": 105175.84399999956,
      "d": 101.33942083333386,
      "v": 96
    },
    {
      "midi": 52,
      "hit": false,
      "t": 105214.42600000133,
      "d": 203.12527083333407,
      "v": 80
    },
    {
      "midi": 57,
      "hit": false,
      "t": 105214.42600000133,
      "d": 203.12527083333407,
      "v": 80
    },
    {
      "midi": 60,
      "hit": false,
      "t": 105214.42600000133,
      "d": 203.12527083333407,
      "v": 80
    },
    {
      "midi": 69,
      "hit": false,
      "t": 105282.98699999956,
      "d": 101.33942083333386,
      "v": 96
    },
    {
      "midi": 75,
      "hit": false,
      "t": 105282.98699999956,
      "d": 101.33942083333386,
      "v": 96
    },
    {
      "midi": 69,
      "hit": false,
      "t": 105390.12999999955,
      "d": 106.69657083333004,
      "v": 96
    },
    {
      "midi": 75,
      "hit": false,
      "t": 105390.12999999955,
      "d": 106.69657083333004,
      "v": 96
    },
    {
      "midi": 45,
      "hit": false,
      "t": 105428.71200000134,
      "d": 203.12527083333407,
      "v": 80
    },
    {
      "midi": 52,
      "hit": false,
      "t": 105642.99800000135,
      "d": 203.12527083333407,
      "v": 80
    },
    {
      "midi": 57,
      "hit": false,
      "t": 105642.99800000135,
      "d": 203.12527083333407,
      "v": 80
    },
    {
      "midi": 60,
      "hit": false,
      "t": 105642.99800000135,
      "d": 203.12527083333407,
      "v": 80
    },
    {
      "midi": 59,
      "hit": false,
      "t": 105818.70199999955,
      "d": 106.69657083333004,
      "v": 115
    },
    {
      "midi": 66,
      "hit": false,
      "t": 105818.70199999955,
      "d": 106.69657083333004,
      "v": 115
    },
    {
      "midi": 69,
      "hit": false,
      "t": 105818.70199999955,
      "d": 106.69657083333004,
      "v": 115
    },
    {
      "midi": 74,
      "hit": false,
      "t": 105818.70199999955,
      "d": 106.69657083333004,
      "v": 115
    },
    {
      "midi": 40,
      "hit": false,
      "t": 105857.28400000135,
      "d": 203.12527083333407,
      "v": 80
    },
    {
      "midi": 52,
      "hit": false,
      "t": 106071.57000000136,
      "d": 203.12527083333407,
      "v": 80
    },
    {
      "midi": 57,
      "hit": false,
      "t": 106071.57000000136,
      "d": 203.12527083333407,
      "v": 80
    },
    {
      "midi": 60,
      "hit": false,
      "t": 106071.57000000136,
      "d": 203.12527083333407,
      "v": 80
    },
    {
      "midi": 59,
      "hit": false,
      "t": 106140.13099999956,
      "d": 106.69657083333004,
      "v": 115
    },
    {
      "midi": 66,
      "hit": false,
      "t": 106140.13099999956,
      "d": 106.69657083333004,
      "v": 115
    },
    {
      "midi": 69,
      "hit": false,
      "t": 106140.13099999956,
      "d": 106.69657083333004,
      "v": 115
    },
    {
      "midi": 74,
      "hit": false,
      "t": 106140.13099999956,
      "d": 106.69657083333004,
      "v": 115
    },
    {
      "midi": 39,
      "hit": false,
      "t": 106285.85600000137,
      "d": 203.12527083333407,
      "v": 80
    },
    {
      "midi": 59,
      "hit": false,
      "t": 106461.55999999956,
      "d": 920.9833708333317,
      "v": 115
    },
    {
      "midi": 65,
      "hit": false,
      "t": 106461.55999999956,
      "d": 920.9833708333317,
      "v": 115
    },
    {
      "midi": 68,
      "hit": false,
      "t": 106461.55999999956,
      "d": 920.9833708333317,
      "v": 115
    },
    {
      "midi": 74,
      "hit": false,
      "t": 106461.55999999956,
      "d": 920.9833708333317,
      "v": 115
    },
    {
      "midi": 51,
      "hit": false,
      "t": 106500.14200000137,
      "d": 203.12527083333407,
      "v": 80
    },
    {
      "midi": 54,
      "hit": false,
      "t": 106500.14200000137,
      "d": 203.12527083333407,
      "v": 80
    },
    {
      "midi": 57,
      "hit": false,
      "t": 106500.14200000137,
      "d": 203.12527083333407,
      "v": 80
    },
    {
      "midi": 59,
      "hit": false,
      "t": 106500.14200000137,
      "d": 203.12527083333407,
      "v": 80
    },
    {
      "midi": 42,
      "hit": false,
      "t": 106714.42800000138,
      "d": 203.12527083333407,
      "v": 80
    },
    {
      "midi": 51,
      "hit": false,
      "t": 106928.71400000139,
      "d": 203.12527083333407,
      "v": 80
    },
    {
      "midi": 54,
      "hit": false,
      "t": 106928.71400000139,
      "d": 203.12527083333407,
      "v": 80
    },
    {
      "midi": 57,
      "hit": false,
      "t": 106928.71400000139,
      "d": 203.12527083333407,
      "v": 80
    },
    {
      "midi": 59,
      "hit": false,
      "t": 106928.71400000139,
      "d": 203.12527083333407,
      "v": 80
    },
    {
      "midi": 39,
      "hit": false,
      "t": 107143.0000000014,
      "d": 203.12527083333407,
      "v": 80
    },
    {
      "midi": 51,
      "hit": false,
      "t": 107357.2860000014,
      "d": 203.12527083333407,
      "v": 80
    },
    {
      "midi": 54,
      "hit": false,
      "t": 107357.2860000014,
      "d": 203.12527083333407,
      "v": 80
    },
    {
      "midi": 57,
      "hit": false,
      "t": 107357.2860000014,
      "d": 203.12527083333407,
      "v": 80
    },
    {
      "midi": 59,
      "hit": false,
      "t": 107357.2860000014,
      "d": 203.12527083333407,
      "v": 80
    },
    {
      "midi": 69,
      "hit": false,
      "t": 107425.84699999956,
      "d": 1162.0551208333345,
      "v": 96
    },
    {
      "midi": 81,
      "hit": false,
      "t": 107425.84699999956,
      "d": 1162.0551208333345,
      "v": 96
    },
    {
      "midi": 39,
      "hit": false,
      "t": 107571.57200000141,
      "d": 203.12527083333407,
      "v": 80
    },
    {
      "midi": 44,
      "hit": false,
      "t": 107785.85800000142,
      "d": 203.12527083333407,
      "v": 80
    },
    {
      "midi": 51,
      "hit": false,
      "t": 107785.85800000142,
      "d": 203.12527083333407,
      "v": 80
    },
    {
      "midi": 54,
      "hit": false,
      "t": 107785.85800000142,
      "d": 203.12527083333407,
      "v": 80
    },
    {
      "midi": 57,
      "hit": false,
      "t": 107785.85800000142,
      "d": 203.12527083333407,
      "v": 80
    },
    {
      "midi": 59,
      "hit": false,
      "t": 107785.85800000142,
      "d": 203.12527083333407,
      "v": 80
    },
    {
      "midi": 45,
      "hit": false,
      "t": 108000.14400000143,
      "d": 203.12527083333407,
      "v": 80
    },
    {
      "midi": 52,
      "hit": false,
      "t": 108214.43000000143,
      "d": 203.12527083333407,
      "v": 80
    },
    {
      "midi": 57,
      "hit": false,
      "t": 108214.43000000143,
      "d": 203.12527083333407,
      "v": 80
    },
    {
      "midi": 60,
      "hit": false,
      "t": 108214.43000000143,
      "d": 203.12527083333407,
      "v": 80
    },
    {
      "midi": 40,
      "hit": false,
      "t": 108428.71600000144,
      "d": 203.12527083333407,
      "v": 80
    },
    {
      "midi": 69,
      "hit": false,
      "t": 108604.41999999956,
      "d": 106.69657083333004,
      "v": 80
    },
    {
      "midi": 81,
      "hit": false,
      "t": 108604.41999999956,
      "d": 106.69657083333004,
      "v": 80
    },
    {
      "midi": 52,
      "hit": false,
      "t": 108643.00200000145,
      "d": 203.12527083333407,
      "v": 80
    },
    {
      "midi": 57,
      "hit": false,
      "t": 108643.00200000145,
      "d": 203.12527083333407,
      "v": 80
    },
    {
      "midi": 60,
      "hit": false,
      "t": 108643.00200000145,
      "d": 203.12527083333407,
      "v": 80
    },
    {
      "midi": 68,
      "hit": false,
      "t": 108818.70599999955,
      "d": 101.33942083333386,
      "v": 80
    },
    {
      "midi": 80,
      "hit": false,
      "t": 108818.70599999955,
      "d": 101.33942083333386,
      "v": 80
    },
    {
      "midi": 45,
      "hit": false,
      "t": 108857.28800000146,
      "d": 203.12527083333407,
      "v": 80
    },
    {
      "midi": 67,
      "hit": false,
      "t": 108925.84899999955,
      "d": 101.33942083333386,
      "v": 80
    },
    {
      "midi": 79,
      "hit": false,
      "t": 108925.84899999955,
      "d": 101.33942083333386,
      "v": 80
    },
    {
      "midi": 69,
      "hit": false,
      "t": 109032.99199999955,
      "d": 101.33942083333386,
      "v": 80
    },
    {
      "midi": 81,
      "hit": false,
      "t": 109032.99199999955,
      "d": 101.33942083333386,
      "v": 80
    },
    {
      "midi": 52,
      "hit": false,
      "t": 109071.57400000146,
      "d": 203.12527083333407,
      "v": 80
    },
    {
      "midi": 57,
      "hit": false,
      "t": 109071.57400000146,
      "d": 203.12527083333407,
      "v": 80
    },
    {
      "midi": 60,
      "hit": false,
      "t": 109071.57400000146,
      "d": 203.12527083333407,
      "v": 80
    },
    {
      "midi": 66,
      "hit": false,
      "t": 109140.13499999954,
      "d": 1070.9835708333267,
      "v": 96
    },
    {
      "midi": 78,
      "hit": false,
      "t": 109140.13499999954,
      "d": 1070.9835708333267,
      "v": 96
    },
    {
      "midi": 40,
      "hit": false,
      "t": 109285.86000000147,
      "d": 203.12527083333407,
      "v": 80
    },
    {
      "midi": 52,
      "hit": false,
      "t": 109500.14600000148,
      "d": 203.12527083333407,
      "v": 80
    },
    {
      "midi": 57,
      "hit": false,
      "t": 109500.14600000148,
      "d": 203.12527083333407,
      "v": 80
    },
    {
      "midi": 60,
      "hit": false,
      "t": 109500.14600000148,
      "d": 203.12527083333407,
      "v": 80
    },
    {
      "midi": 39,
      "hit": false,
      "t": 109714.43200000148,
      "d": 203.12527083333407,
      "v": 80
    },
    {
      "midi": 51,
      "hit": false,
      "t": 109928.71800000149,
      "d": 203.12527083333407,
      "v": 80
    },
    {
      "midi": 54,
      "hit": false,
      "t": 109928.71800000149,
      "d": 203.12527083333407,
      "v": 80
    },
    {
      "midi": 57,
      "hit": false,
      "t": 109928.71800000149,
      "d": 203.12527083333407,
      "v": 80
    },
    {
      "midi": 59,
      "hit": false,
      "t": 109928.71800000149,
      "d": 203.12527083333407,
      "v": 80
    },
    {
      "midi": 42,
      "hit": false,
      "t": 110143.0040000015,
      "d": 203.12527083333407,
      "v": 80
    },
    {
      "midi": 51,
      "hit": false,
      "t": 110357.2900000015,
      "d": 203.12527083333407,
      "v": 80
    },
    {
      "midi": 54,
      "hit": false,
      "t": 110357.2900000015,
      "d": 203.12527083333407,
      "v": 80
    },
    {
      "midi": 57,
      "hit": false,
      "t": 110357.2900000015,
      "d": 203.12527083333407,
      "v": 80
    },
    {
      "midi": 59,
      "hit": false,
      "t": 110357.2900000015,
      "d": 203.12527083333407,
      "v": 80
    },
    {
      "midi": 63,
      "hit": false,
      "t": 110425.85099999954,
      "d": 101.33942083333386,
      "v": 80
    },
    {
      "midi": 75,
      "hit": false,
      "t": 110425.85099999954,
      "d": 101.33942083333386,
      "v": 80
    },
    {
      "midi": 68,
      "hit": false,
      "t": 110532.99399999954,
      "d": 203.12527083333407,
      "v": 80
    },
    {
      "midi": 80,
      "hit": false,
      "t": 110532.99399999954,
      "d": 203.12527083333407,
      "v": 80
    },
    {
      "midi": 39,
      "hit": false,
      "t": 110571.57600000151,
      "d": 203.12527083333407,
      "v": 80
    },
    {
      "midi": 69,
      "hit": false,
      "t": 110747.27999999955,
      "d": 101.33942083333386,
      "v": 80
    },
    {
      "midi": 81,
      "hit": false,
      "t": 110747.27999999955,
      "d": 101.33942083333386,
      "v": 80
    },
    {
      "midi": 51,
      "hit": false,
      "t": 110785.86200000152,
      "d": 203.12527083333407,
      "v": 80
    },
    {
      "midi": 54,
      "hit": false,
      "t": 110785.86200000152,
      "d": 203.12527083333407,
      "v": 80
    },
    {
      "midi": 57,
      "hit": false,
      "t": 110785.86200000152,
      "d": 203.12527083333407,
      "v": 80
    },
    {
      "midi": 59,
      "hit": false,
      "t": 110785.86200000152,
      "d": 203.12527083333407,
      "v": 80
    },
    {
      "midi": 83,
      "hit": false,
      "t": 110961.56599999956,
      "d": 101.33942083333386,
      "v": 80
    },
    {
      "midi": 90,
      "hit": false,
      "t": 110961.56599999956,
      "d": 101.33942083333386,
      "v": 80
    },
    {
      "midi": 95,
      "hit": false,
      "t": 110961.56599999956,
      "d": 101.33942083333386,
      "v": 80
    },
    {
      "midi": 39,
      "hit": false,
      "t": 111000.14800000153,
      "d": 203.12527083333407,
      "v": 80
    },
    {
      "midi": 84,
      "hit": false,
      "t": 111068.70899999955,
      "d": 106.69657083333004,
      "v": 80
    },
    {
      "midi": 96,
      "hit": false,
      "t": 111068.70899999955,
      "d": 106.69657083333004,
      "v": 80
    },
    {
      "midi": 44,
      "hit": false,
      "t": 111214.43400000154,
      "d": 203.12527083333407,
      "v": 80
    },
    {
      "midi": 51,
      "hit": false,
      "t": 111214.43400000154,
      "d": 203.12527083333407,
      "v": 80
    },
    {
      "midi": 54,
      "hit": false,
      "t": 111214.43400000154,
      "d": 203.12527083333407,
      "v": 80
    },
    {
      "midi": 57,
      "hit": false,
      "t": 111214.43400000154,
      "d": 203.12527083333407,
      "v": 80
    },
    {
      "midi": 59,
      "hit": false,
      "t": 111214.43400000154,
      "d": 203.12527083333407,
      "v": 80
    },
    {
      "midi": 83,
      "hit": false,
      "t": 111282.99499999954,
      "d": 101.33942083333386,
      "v": 80
    },
    {
      "midi": 90,
      "hit": false,
      "t": 111282.99499999954,
      "d": 101.33942083333386,
      "v": 80
    },
    {
      "midi": 95,
      "hit": false,
      "t": 111282.99499999954,
      "d": 101.33942083333386,
      "v": 80
    },
    {
      "midi": 84,
      "hit": false,
      "t": 111390.13799999954,
      "d": 106.69657083333004,
      "v": 80
    },
    {
      "midi": 96,
      "hit": false,
      "t": 111390.13799999954,
      "d": 106.69657083333004,
      "v": 80
    },
    {
      "midi": 45,
      "hit": false,
      "t": 111428.72000000154,
      "d": 203.12527083333407,
      "v": 80
    },
    {
      "midi": 84,
      "hit": false,
      "t": 111604.42399999953,
      "d": 101.33942083333386,
      "v": 80
    },
    {
      "midi": 90,
      "hit": false,
      "t": 111604.42399999953,
      "d": 101.33942083333386,
      "v": 80
    },
    {
      "midi": 96,
      "hit": false,
      "t": 111604.42399999953,
      "d": 101.33942083333386,
      "v": 80
    },
    {
      "midi": 52,
      "hit": false,
      "t": 111643.00600000155,
      "d": 203.12527083333407,
      "v": 80
    },
    {
      "midi": 57,
      "hit": false,
      "t": 111643.00600000155,
      "d": 203.12527083333407,
      "v": 80
    },
    {
      "midi": 60,
      "hit": false,
      "t": 111643.00600000155,
      "d": 203.12527083333407,
      "v": 80
    },
    {
      "midi": 83,
      "hit": false,
      "t": 111818.70999999954,
      "d": 101.33942083333386,
      "v": 80
    },
    {
      "midi": 90,
      "hit": false,
      "t": 111818.70999999954,
      "d": 101.33942083333386,
      "v": 80
    },
    {
      "midi": 95,
      "hit": false,
      "t": 111818.70999999954,
      "d": 101.33942083333386,
      "v": 80
    },
    {
      "midi": 40,
      "hit": false,
      "t": 111857.29200000156,
      "d": 203.12527083333407,
      "v": 80
    },
    {
      "midi": 84,
      "hit": false,
      "t": 111925.85299999954,
      "d": 203.12527083333407,
      "v": 80
    },
    {
      "midi": 96,
      "hit": false,
      "t": 111925.85299999954,
      "d": 203.12527083333407,
      "v": 80
    },
    {
      "midi": 52,
      "hit": false,
      "t": 112071.57800000157,
      "d": 203.12527083333407,
      "v": 80
    },
    {
      "midi": 57,
      "hit": false,
      "t": 112071.57800000157,
      "d": 203.12527083333407,
      "v": 80
    },
    {
      "midi": 60,
      "hit": false,
      "t": 112071.57800000157,
      "d": 203.12527083333407,
      "v": 80
    },
    {
      "midi": 69,
      "hit": false,
      "t": 112140.13899999954,
      "d": 101.33942083333386,
      "v": 80
    },
    {
      "midi": 81,
      "hit": false,
      "t": 112140.13899999954,
      "d": 101.33942083333386,
      "v": 80
    },
    {
      "midi": 68,
      "hit": false,
      "t": 112247.28199999954,
      "d": 101.33942083333386,
      "v": 80
    },
    {
      "midi": 80,
      "hit": false,
      "t": 112247.28199999954,
      "d": 101.33942083333386,
      "v": 80
    },
    {
      "midi": 45,
      "hit": false,
      "t": 112285.86400000157,
      "d": 203.12527083333407,
      "v": 80
    },
    {
      "midi": 67,
      "hit": false,
      "t": 112354.42499999954,
      "d": 101.33942083333386,
      "v": 80
    },
    {
      "midi": 79,
      "hit": false,
      "t": 112354.42499999954,
      "d": 101.33942083333386,
      "v": 80
    },
    {
      "midi": 66,
      "hit": false,
      "t": 112461.56799999953,
      "d": 101.33942083333386,
      "v": 80
    },
    {
      "midi": 78,
      "hit": false,
      "t": 112461.56799999953,
      "d": 101.33942083333386,
      "v": 80
    },
    {
      "midi": 52,
      "hit": false,
      "t": 112500.15000000158,
      "d": 203.12527083333407,
      "v": 80
    },
    {
      "midi": 57,
      "hit": false,
      "t": 112500.15000000158,
      "d": 203.12527083333407,
      "v": 80
    },
    {
      "midi": 60,
      "hit": false,
      "t": 112500.15000000158,
      "d": 203.12527083333407,
      "v": 80
    },
    {
      "midi": 83,
      "hit": false,
      "t": 112675.85399999954,
      "d": 101.33942083333386,
      "v": 80
    },
    {
      "midi": 90,
      "hit": false,
      "t": 112675.85399999954,
      "d": 101.33942083333386,
      "v": 80
    },
    {
      "midi": 95,
      "hit": false,
      "t": 112675.85399999954,
      "d": 101.33942083333386,
      "v": 80
    },
    {
      "midi": 40,
      "hit": false,
      "t": 112714.43600000159,
      "d": 203.12527083333407,
      "v": 80
    },
    {
      "midi": 84,
      "hit": false,
      "t": 112782.99699999954,
      "d": 106.69657083333004,
      "v": 80
    },
    {
      "midi": 96,
      "hit": false,
      "t": 112782.99699999954,
      "d": 106.69657083333004,
      "v": 80
    },
    {
      "midi": 52,
      "hit": false,
      "t": 112928.7220000016,
      "d": 203.12527083333407,
      "v": 80
    },
    {
      "midi": 57,
      "hit": false,
      "t": 112928.7220000016,
      "d": 203.12527083333407,
      "v": 80
    },
    {
      "midi": 60,
      "hit": false,
      "t": 112928.7220000016,
      "d": 203.12527083333407,
      "v": 80
    },
    {
      "midi": 83,
      "hit": false,
      "t": 112997.28299999953,
      "d": 101.33942083333386,
      "v": 80
    },
    {
      "midi": 90,
      "hit": false,
      "t": 112997.28299999953,
      "d": 101.33942083333386,
      "v": 80
    },
    {
      "midi": 95,
      "hit": false,
      "t": 112997.28299999953,
      "d": 101.33942083333386,
      "v": 80
    },
    {
      "midi": 84,
      "hit": false,
      "t": 113104.42599999953,
      "d": 106.69657083333004,
      "v": 80
    },
    {
      "midi": 96,
      "hit": false,
      "t": 113104.42599999953,
      "d": 106.69657083333004,
      "v": 80
    },
    {
      "midi": 47,
      "hit": false,
      "t": 113143.0080000016,
      "d": 203.12527083333407,
      "v": 80
    },
    {
      "midi": 84,
      "hit": false,
      "t": 113318.71199999952,
      "d": 101.33942083333386,
      "v": 80
    },
    {
      "midi": 90,
      "hit": false,
      "t": 113318.71199999952,
      "d": 101.33942083333386,
      "v": 80
    },
    {
      "midi": 96,
      "hit": false,
      "t": 113318.71199999952,
      "d": 101.33942083333386,
      "v": 80
    },
    {
      "midi": 52,
      "hit": false,
      "t": 113357.29400000161,
      "d": 203.12527083333407,
      "v": 80
    },
    {
      "midi": 56,
      "hit": false,
      "t": 113357.29400000161,
      "d": 203.12527083333407,
      "v": 80
    },
    {
      "midi": 59,
      "hit": false,
      "t": 113357.29400000161,
      "d": 203.12527083333407,
      "v": 80
    },
    {
      "midi": 62,
      "hit": false,
      "t": 113357.29400000161,
      "d": 203.12527083333407,
      "v": 80
    },
    {
      "midi": 83,
      "hit": false,
      "t": 113532.99799999953,
      "d": 101.33942083333386,
      "v": 80
    },
    {
      "midi": 90,
      "hit": false,
      "t": 113532.99799999953,
      "d": 101.33942083333386,
      "v": 80
    },
    {
      "midi": 95,
      "hit": false,
      "t": 113532.99799999953,
      "d": 101.33942083333386,
      "v": 80
    },
    {
      "midi": 40,
      "hit": false,
      "t": 113571.58000000162,
      "d": 203.12527083333407,
      "v": 80
    },
    {
      "midi": 84,
      "hit": false,
      "t": 113640.14099999952,
      "d": 106.69657083333004,
      "v": 80
    },
    {
      "midi": 96,
      "hit": false,
      "t": 113640.14099999952,
      "d": 106.69657083333004,
      "v": 80
    },
    {
      "midi": 52,
      "hit": false,
      "t": 113785.86600000162,
      "d": 203.12527083333407,
      "v": 80
    },
    {
      "midi": 56,
      "hit": false,
      "t": 113785.86600000162,
      "d": 203.12527083333407,
      "v": 80
    },
    {
      "midi": 59,
      "hit": false,
      "t": 113785.86600000162,
      "d": 203.12527083333407,
      "v": 80
    },
    {
      "midi": 62,
      "hit": false,
      "t": 113785.86600000162,
      "d": 203.12527083333407,
      "v": 80
    },
    {
      "midi": 64,
      "hit": false,
      "t": 113854.42699999952,
      "d": 101.33942083333386,
      "v": 80
    },
    {
      "midi": 76,
      "hit": false,
      "t": 113854.42699999952,
      "d": 101.33942083333386,
      "v": 80
    },
    {
      "midi": 68,
      "hit": false,
      "t": 113961.56999999951,
      "d": 203.12527083333407,
      "v": 80
    },
    {
      "midi": 80,
      "hit": false,
      "t": 113961.56999999951,
      "d": 203.12527083333407,
      "v": 80
    },
    {
      "midi": 47,
      "hit": false,
      "t": 114000.15200000163,
      "d": 203.12527083333407,
      "v": 80
    },
    {
      "midi": 69,
      "hit": false,
      "t": 114175.85599999952,
      "d": 101.33942083333386,
      "v": 80
    },
    {
      "midi": 81,
      "hit": false,
      "t": 114175.85599999952,
      "d": 101.33942083333386,
      "v": 80
    },
    {
      "midi": 52,
      "hit": false,
      "t": 114214.43800000164,
      "d": 203.12527083333407,
      "v": 80
    },
    {
      "midi": 56,
      "hit": false,
      "t": 114214.43800000164,
      "d": 203.12527083333407,
      "v": 80
    },
    {
      "midi": 59,
      "hit": false,
      "t": 114214.43800000164,
      "d": 203.12527083333407,
      "v": 80
    },
    {
      "midi": 62,
      "hit": false,
      "t": 114214.43800000164,
      "d": 203.12527083333407,
      "v": 80
    },
    {
      "midi": 47,
      "hit": false,
      "t": 114428.72400000165,
      "d": 203.12527083333407,
      "v": 80
    },
    {
      "midi": 76,
      "hit": false,
      "t": 114497.28499999952,
      "d": 428.12557083333377,
      "v": 115
    },
    {
      "midi": 81,
      "hit": false,
      "t": 114497.28499999952,
      "d": 428.12557083333377,
      "v": 115
    },
    {
      "midi": 88,
      "hit": false,
      "t": 114497.28499999952,
      "d": 428.12557083333377,
      "v": 115
    },
    {
      "midi": 44,
      "hit": false,
      "t": 114643.01000000165,
      "d": 203.12527083333407,
      "v": 80
    },
    {
      "midi": 52,
      "hit": false,
      "t": 114643.01000000165,
      "d": 203.12527083333407,
      "v": 80
    },
    {
      "midi": 56,
      "hit": false,
      "t": 114643.01000000165,
      "d": 203.12527083333407,
      "v": 80
    },
    {
      "midi": 59,
      "hit": false,
      "t": 114643.01000000165,
      "d": 203.12527083333407,
      "v": 80
    },
    {
      "midi": 62,
      "hit": false,
      "t": 114643.01000000165,
      "d": 203.12527083333407,
      "v": 80
    },
    {
      "midi": 45,
      "hit": false,
      "t": 114857.29600000166,
      "d": 203.12527083333407,
      "v": 80
    },
    {
      "midi": 75,
      "hit": false,
      "t": 114925.85699999952,
      "d": 106.69657083333004,
      "v": 96
    },
    {
      "midi": 81,
      "hit": false,
      "t": 114925.85699999952,
      "d": 106.69657083333004,
      "v": 96
    },
    {
      "midi": 87,
      "hit": false,
      "t": 114925.85699999952,
      "d": 106.69657083333004,
      "v": 96
    },
    {
      "midi": 52,
      "hit": false,
      "t": 115071.58200000167,
      "d": 203.12527083333407,
      "v": 80
    },
    {
      "midi": 57,
      "hit": false,
      "t": 115071.58200000167,
      "d": 203.12527083333407,
      "v": 80
    },
    {
      "midi": 60,
      "hit": false,
      "t": 115071.58200000167,
      "d": 203.12527083333407,
      "v": 80
    },
    {
      "midi": 71,
      "hit": false,
      "t": 115140.14299999952,
      "d": 101.33942083333386,
      "v": 96
    },
    {
      "midi": 83,
      "hit": false,
      "t": 115140.14299999952,
      "d": 101.33942083333386,
      "v": 96
    },
    {
      "midi": 72,
      "hit": false,
      "t": 115247.28599999951,
      "d": 106.69657083333004,
      "v": 96
    },
    {
      "midi": 84,
      "hit": false,
      "t": 115247.28599999951,
      "d": 106.69657083333004,
      "v": 96
    },
    {
      "midi": 40,
      "hit": false,
      "t": 115285.86800000168,
      "d": 203.12527083333407,
      "v": 80
    },
    {
      "midi": 69,
      "hit": false,
      "t": 115461.5719999995,
      "d": 508.4828208333347,
      "v": 96
    },
    {
      "midi": 76,
      "hit": false,
      "t": 115461.5719999995,
      "d": 508.4828208333347,
      "v": 96
    },
    {
      "midi": 81,
      "hit": false,
      "t": 115461.5719999995,
      "d": 508.4828208333347,
      "v": 96
    },
    {
      "midi": 52,
      "hit": false,
      "t": 115500.15400000168,
      "d": 203.12527083333407,
      "v": 80
    },
    {
      "midi": 57,
      "hit": false,
      "t": 115500.15400000168,
      "d": 203.12527083333407,
      "v": 80
    },
    {
      "midi": 60,
      "hit": false,
      "t": 115500.15400000168,
      "d": 203.12527083333407,
      "v": 80
    },
    {
      "midi": 45,
      "hit": false,
      "t": 115714.44000000169,
      "d": 203.12527083333407,
      "v": 80
    },
    {
      "midi": 52,
      "hit": false,
      "t": 115928.7260000017,
      "d": 203.12527083333407,
      "v": 80
    },
    {
      "midi": 57,
      "hit": false,
      "t": 115928.7260000017,
      "d": 203.12527083333407,
      "v": 80
    },
    {
      "midi": 60,
      "hit": false,
      "t": 115928.7260000017,
      "d": 203.12527083333407,
      "v": 80
    },
    {
      "midi": 71,
      "hit": false,
      "t": 115997.2869999995,
      "d": 101.33942083333386,
      "v": 96
    },
    {
      "midi": 76,
      "hit": false,
      "t": 115997.2869999995,
      "d": 101.33942083333386,
      "v": 96
    },
    {
      "midi": 83,
      "hit": false,
      "t": 115997.2869999995,
      "d": 101.33942083333386,
      "v": 96
    },
    {
      "midi": 71,
      "hit": false,
      "t": 116104.4299999995,
      "d": 101.33942083333386,
      "v": 96
    },
    {
      "midi": 76,
      "hit": false,
      "t": 116104.4299999995,
      "d": 101.33942083333386,
      "v": 96
    },
    {
      "midi": 83,
      "hit": false,
      "t": 116104.4299999995,
      "d": 101.33942083333386,
      "v": 96
    },
    {
      "midi": 40,
      "hit": false,
      "t": 116143.0120000017,
      "d": 203.12527083333407,
      "v": 80
    },
    {
      "midi": 71,
      "hit": false,
      "t": 116211.5729999995,
      "d": 106.69657083333004,
      "v": 96
    },
    {
      "midi": 76,
      "hit": false,
      "t": 116211.5729999995,
      "d": 106.69657083333004,
      "v": 96
    },
    {
      "midi": 83,
      "hit": false,
      "t": 116211.5729999995,
      "d": 106.69657083333004,
      "v": 96
    },
    {
      "midi": 52,
      "hit": false,
      "t": 116357.29800000171,
      "d": 203.12527083333407,
      "v": 80
    },
    {
      "midi": 57,
      "hit": false,
      "t": 116357.29800000171,
      "d": 203.12527083333407,
      "v": 80
    },
    {
      "midi": 60,
      "hit": false,
      "t": 116357.29800000171,
      "d": 203.12527083333407,
      "v": 80
    },
    {
      "midi": 71,
      "hit": false,
      "t": 116425.85899999949,
      "d": 101.33942083333386,
      "v": 96
    },
    {
      "midi": 76,
      "hit": false,
      "t": 116425.85899999949,
      "d": 101.33942083333386,
      "v": 96
    },
    {
      "midi": 83,
      "hit": false,
      "t": 116425.85899999949,
      "d": 101.33942083333386,
      "v": 96
    },
    {
      "midi": 72,
      "hit": false,
      "t": 116533.00199999948,
      "d": 203.12527083333407,
      "v": 96
    },
    {
      "midi": 77,
      "hit": false,
      "t": 116533.00199999948,
      "d": 203.12527083333407,
      "v": 96
    },
    {
      "midi": 84,
      "hit": false,
      "t": 116533.00199999948,
      "d": 203.12527083333407,
      "v": 96
    },
    {
      "midi": 47,
      "hit": false,
      "t": 116571.58400000172,
      "d": 203.12527083333407,
      "v": 80
    },
    {
      "midi": 52,
      "hit": false,
      "t": 116785.87000000173,
      "d": 203.12527083333407,
      "v": 80
    },
    {
      "midi": 56,
      "hit": false,
      "t": 116785.87000000173,
      "d": 203.12527083333407,
      "v": 80
    },
    {
      "midi": 59,
      "hit": false,
      "t": 116785.87000000173,
      "d": 203.12527083333407,
      "v": 80
    },
    {
      "midi": 62,
      "hit": false,
      "t": 116785.87000000173,
      "d": 203.12527083333407,
      "v": 80
    },
    {
      "midi": 83,
      "hit": false,
      "t": 116854.43099999949,
      "d": 101.33942083333386,
      "v": 96
    },
    {
      "midi": 88,
      "hit": false,
      "t": 116854.43099999949,
      "d": 101.33942083333386,
      "v": 96
    },
    {
      "midi": 95,
      "hit": false,
      "t": 116854.43099999949,
      "d": 101.33942083333386,
      "v": 96
    },
    {
      "midi": 83,
      "hit": false,
      "t": 116961.57399999948,
      "d": 101.33942083333386,
      "v": 96
    },
    {
      "midi": 88,
      "hit": false,
      "t": 116961.57399999948,
      "d": 101.33942083333386,
      "v": 96
    },
    {
      "midi": 95,
      "hit": false,
      "t": 116961.57399999948,
      "d": 101.33942083333386,
      "v": 96
    },
    {
      "midi": 40,
      "hit": false,
      "t": 117000.15600000173,
      "d": 203.12527083333407,
      "v": 80
    },
    {
      "midi": 83,
      "hit": false,
      "t": 117068.71699999948,
      "d": 106.69657083333004,
      "v": 96
    },
    {
      "midi": 88,
      "hit": false,
      "t": 117068.71699999948,
      "d": 106.69657083333004,
      "v": 96
    },
    {
      "midi": 95,
      "hit": false,
      "t": 117068.71699999948,
      "d": 106.69657083333004,
      "v": 96
    },
    {
      "midi": 52,
      "hit": false,
      "t": 117214.44200000174,
      "d": 203.12527083333407,
      "v": 80
    },
    {
      "midi": 56,
      "hit": false,
      "t": 117214.44200000174,
      "d": 203.12527083333407,
      "v": 80
    },
    {
      "midi": 59,
      "hit": false,
      "t": 117214.44200000174,
      "d": 203.12527083333407,
      "v": 80
    },
    {
      "midi": 62,
      "hit": false,
      "t": 117214.44200000174,
      "d": 203.12527083333407,
      "v": 80
    },
    {
      "midi": 83,
      "hit": false,
      "t": 117283.00299999947,
      "d": 101.33942083333386,
      "v": 96
    },
    {
      "midi": 88,
      "hit": false,
      "t": 117283.00299999947,
      "d": 101.33942083333386,
      "v": 96
    },
    {
      "midi": 95,
      "hit": false,
      "t": 117283.00299999947,
      "d": 101.33942083333386,
      "v": 96
    },
    {
      "midi": 84,
      "hit": false,
      "t": 117390.14599999947,
      "d": 203.12527083333407,
      "v": 96
    },
    {
      "midi": 88,
      "hit": false,
      "t": 117390.14599999947,
      "d": 203.12527083333407,
      "v": 96
    },
    {
      "midi": 92,
      "hit": false,
      "t": 117390.14599999947,
      "d": 203.12527083333407,
      "v": 96
    },
    {
      "midi": 47,
      "hit": false,
      "t": 117428.72800000175,
      "d": 203.12527083333407,
      "v": 80
    },
    {
      "midi": 52,
      "hit": false,
      "t": 117643.01400000176,
      "d": 203.12527083333407,
      "v": 80
    },
    {
      "midi": 56,
      "hit": false,
      "t": 117643.01400000176,
      "d": 203.12527083333407,
      "v": 80
    },
    {
      "midi": 59,
      "hit": false,
      "t": 117643.01400000176,
      "d": 203.12527083333407,
      "v": 80
    },
    {
      "midi": 62,
      "hit": false,
      "t": 117643.01400000176,
      "d": 203.12527083333407,
      "v": 80
    },
    {
      "midi": 47,
      "hit": false,
      "t": 117857.30000000176,
      "d": 203.12527083333407,
      "v": 80
    },
    {
      "midi": 76,
      "hit": false,
      "t": 117925.86099999947,
      "d": 428.12557083333377,
      "v": 115
    },
    {
      "midi": 81,
      "hit": false,
      "t": 117925.86099999947,
      "d": 428.12557083333377,
      "v": 115
    },
    {
      "midi": 88,
      "hit": false,
      "t": 117925.86099999947,
      "d": 428.12557083333377,
      "v": 115
    },
    {
      "midi": 44,
      "hit": false,
      "t": 118071.58600000177,
      "d": 203.12527083333407,
      "v": 80
    },
    {
      "midi": 52,
      "hit": false,
      "t": 118071.58600000177,
      "d": 203.12527083333407,
      "v": 80
    },
    {
      "midi": 56,
      "hit": false,
      "t": 118071.58600000177,
      "d": 203.12527083333407,
      "v": 80
    },
    {
      "midi": 59,
      "hit": false,
      "t": 118071.58600000177,
      "d": 203.12527083333407,
      "v": 80
    },
    {
      "midi": 62,
      "hit": false,
      "t": 118071.58600000177,
      "d": 203.12527083333407,
      "v": 80
    },
    {
      "midi": 45,
      "hit": false,
      "t": 118285.87200000178,
      "d": 203.12527083333407,
      "v": 80
    },
    {
      "midi": 75,
      "hit": false,
      "t": 118354.43299999947,
      "d": 106.69657083333004,
      "v": 96
    },
    {
      "midi": 81,
      "hit": false,
      "t": 118354.43299999947,
      "d": 106.69657083333004,
      "v": 96
    },
    {
      "midi": 87,
      "hit": false,
      "t": 118354.43299999947,
      "d": 106.69657083333004,
      "v": 96
    },
    {
      "midi": 52,
      "hit": false,
      "t": 118500.15800000179,
      "d": 203.12527083333407,
      "v": 80
    },
    {
      "midi": 57,
      "hit": false,
      "t": 118500.15800000179,
      "d": 203.12527083333407,
      "v": 80
    },
    {
      "midi": 60,
      "hit": false,
      "t": 118500.15800000179,
      "d": 203.12527083333407,
      "v": 80
    },
    {
      "midi": 71,
      "hit": false,
      "t": 118568.71899999946,
      "d": 101.33942083333386,
      "v": 96
    },
    {
      "midi": 83,
      "hit": false,
      "t": 118568.71899999946,
      "d": 101.33942083333386,
      "v": 96
    },
    {
      "midi": 72,
      "hit": false,
      "t": 118675.86199999946,
      "d": 106.69657083333004,
      "v": 96
    },
    {
      "midi": 84,
      "hit": false,
      "t": 118675.86199999946,
      "d": 106.69657083333004,
      "v": 96
    },
    {
      "midi": 40,
      "hit": false,
      "t": 118714.4440000018,
      "d": 203.12527083333407,
      "v": 80
    },
    {
      "midi": 69,
      "hit": false,
      "t": 118890.14799999945,
      "d": 508.4828208333347,
      "v": 96
    },
    {
      "midi": 76,
      "hit": false,
      "t": 118890.14799999945,
      "d": 508.4828208333347,
      "v": 96
    },
    {
      "midi": 81,
      "hit": false,
      "t": 118890.14799999945,
      "d": 508.4828208333347,
      "v": 96
    },
    {
      "midi": 52,
      "hit": false,
      "t": 118928.7300000018,
      "d": 203.12527083333407,
      "v": 80
    },
    {
      "midi": 57,
      "hit": false,
      "t": 118928.7300000018,
      "d": 203.12527083333407,
      "v": 80
    },
    {
      "midi": 60,
      "hit": false,
      "t": 118928.7300000018,
      "d": 203.12527083333407,
      "v": 80
    },
    {
      "midi": 33,
      "hit": false,
      "t": 119143.01600000181,
      "d": 203.12527083333407,
      "v": 80
    },
    {
      "midi": 52,
      "hit": false,
      "t": 119357.30200000182,
      "d": 203.12527083333407,
      "v": 80
    },
    {
      "midi": 57,
      "hit": false,
      "t": 119357.30200000182,
      "d": 203.12527083333407,
      "v": 80
    },
    {
      "midi": 60,
      "hit": false,
      "t": 119357.30200000182,
      "d": 203.12527083333407,
      "v": 80
    },
    {
      "midi": 40,
      "hit": false,
      "t": 119571.58800000182,
      "d": 203.12527083333407,
      "v": 80
    },
    {
      "midi": 74,
      "hit": false,
      "t": 119640.14899999945,
      "d": 106.69657083333004,
      "v": 96
    },
    {
      "midi": 77,
      "hit": false,
      "t": 119640.14899999945,
      "d": 106.69657083333004,
      "v": 96
    },
    {
      "midi": 86,
      "hit": false,
      "t": 119640.14899999945,
      "d": 106.69657083333004,
      "v": 96
    },
    {
      "midi": 52,
      "hit": false,
      "t": 119785.87400000183,
      "d": 203.12527083333407,
      "v": 80
    },
    {
      "midi": 57,
      "hit": false,
      "t": 119785.87400000183,
      "d": 203.12527083333407,
      "v": 80
    },
    {
      "midi": 60,
      "hit": false,
      "t": 119785.87400000183,
      "d": 203.12527083333407,
      "v": 80
    },
    {
      "midi": 72,
      "hit": false,
      "t": 119854.43499999944,
      "d": 106.69657083333004,
      "v": 96
    },
    {
      "midi": 77,
      "hit": false,
      "t": 119854.43499999944,
      "d": 106.69657083333004,
      "v": 96
    },
    {
      "midi": 84,
      "hit": false,
      "t": 119854.43499999944,
      "d": 106.69657083333004,
      "v": 96
    },
    {
      "midi": 47,
      "hit": false,
      "t": 120000.16000000184,
      "d": 203.12527083333407,
      "v": 80
    },
    {
      "midi": 71,
      "hit": false,
      "t": 120068.72099999944,
      "d": 106.69657083333004,
      "v": 96
    },
    {
      "midi": 77,
      "hit": false,
      "t": 120068.72099999944,
      "d": 106.69657083333004,
      "v": 96
    },
    {
      "midi": 83,
      "hit": false,
      "t": 120068.72099999944,
      "d": 106.69657083333004,
      "v": 96
    },
    {
      "midi": 52,
      "hit": false,
      "t": 120214.44600000184,
      "d": 203.12527083333407,
      "v": 80
    },
    {
      "midi": 56,
      "hit": false,
      "t": 120214.44600000184,
      "d": 203.12527083333407,
      "v": 80
    },
    {
      "midi": 59,
      "hit": false,
      "t": 120214.44600000184,
      "d": 203.12527083333407,
      "v": 80
    },
    {
      "midi": 62,
      "hit": false,
      "t": 120214.44600000184,
      "d": 203.12527083333407,
      "v": 80
    },
    {
      "midi": 69,
      "hit": false,
      "t": 120283.00699999943,
      "d": 101.33942083333386,
      "v": 96
    },
    {
      "midi": 76,
      "hit": false,
      "t": 120283.00699999943,
      "d": 101.33942083333386,
      "v": 96
    },
    {
      "midi": 81,
      "hit": false,
      "t": 120283.00699999943,
      "d": 101.33942083333386,
      "v": 96
    },
    {
      "midi": 40,
      "hit": false,
      "t": 120428.73200000185,
      "d": 203.12527083333407,
      "v": 80
    },
    {
      "midi": 86,
      "hit": false,
      "t": 120497.29299999944,
      "d": 106.69657083333004,
      "v": 96
    },
    {
      "midi": 95,
      "hit": false,
      "t": 120497.29299999944,
      "d": 106.69657083333004,
      "v": 96
    },
    {
      "midi": 98,
      "hit": false,
      "t": 120497.29299999944,
      "d": 106.69657083333004,
      "v": 96
    },
    {
      "midi": 52,
      "hit": false,
      "t": 120643.01800000186,
      "d": 203.12527083333407,
      "v": 80
    },
    {
      "midi": 56,
      "hit": false,
      "t": 120643.01800000186,
      "d": 203.12527083333407,
      "v": 80
    },
    {
      "midi": 59,
      "hit": false,
      "t": 120643.01800000186,
      "d": 203.12527083333407,
      "v": 80
    },
    {
      "midi": 62,
      "hit": false,
      "t": 120643.01800000186,
      "d": 203.12527083333407,
      "v": 80
    },
    {
      "midi": 84,
      "hit": false,
      "t": 120711.57899999943,
      "d": 106.69657083333004,
      "v": 96
    },
    {
      "midi": 93,
      "hit": false,
      "t": 120711.57899999943,
      "d": 106.69657083333004,
      "v": 96
    },
    {
      "midi": 96,
      "hit": false,
      "t": 120711.57899999943,
      "d": 106.69657083333004,
      "v": 96
    },
    {
      "midi": 47,
      "hit": false,
      "t": 120857.30400000187,
      "d": 203.12527083333407,
      "v": 80
    },
    {
      "midi": 83,
      "hit": false,
      "t": 120925.86499999942,
      "d": 213.83957083332643,
      "v": 115
    },
    {
      "midi": 92,
      "hit": false,
      "t": 120925.86499999942,
      "d": 213.83957083332643,
      "v": 115
    },
    {
      "midi": 95,
      "hit": false,
      "t": 120925.86499999942,
      "d": 213.83957083332643,
      "v": 115
    },
    {
      "midi": 52,
      "hit": false,
      "t": 121071.59000000187,
      "d": 203.12527083333407,
      "v": 80
    },
    {
      "midi": 56,
      "hit": false,
      "t": 121071.59000000187,
      "d": 203.12527083333407,
      "v": 80
    },
    {
      "midi": 59,
      "hit": false,
      "t": 121071.59000000187,
      "d": 203.12527083333407,
      "v": 80
    },
    {
      "midi": 62,
      "hit": false,
      "t": 121071.59000000187,
      "d": 203.12527083333407,
      "v": 80
    },
    {
      "midi": 44,
      "hit": false,
      "t": 121285.87600000188,
      "d": 203.12527083333407,
      "v": 80
    },
    {
      "midi": 76,
      "hit": false,
      "t": 121354.43699999942,
      "d": 428.12557083333377,
      "v": 115
    },
    {
      "midi": 81,
      "hit": false,
      "t": 121354.43699999942,
      "d": 428.12557083333377,
      "v": 115
    },
    {
      "midi": 88,
      "hit": false,
      "t": 121354.43699999942,
      "d": 428.12557083333377,
      "v": 115
    },
    {
      "midi": 52,
      "hit": false,
      "t": 121500.16200000189,
      "d": 203.12527083333407,
      "v": 80
    },
    {
      "midi": 56,
      "hit": false,
      "t": 121500.16200000189,
      "d": 203.12527083333407,
      "v": 80
    },
    {
      "midi": 59,
      "hit": false,
      "t": 121500.16200000189,
      "d": 203.12527083333407,
      "v": 80
    },
    {
      "midi": 62,
      "hit": false,
      "t": 121500.16200000189,
      "d": 203.12527083333407,
      "v": 80
    },
    {
      "midi": 45,
      "hit": false,
      "t": 121714.4480000019,
      "d": 203.12527083333407,
      "v": 80
    },
    {
      "midi": 75,
      "hit": false,
      "t": 121783.00899999942,
      "d": 106.69657083333004,
      "v": 96
    },
    {
      "midi": 87,
      "hit": false,
      "t": 121783.00899999942,
      "d": 106.69657083333004,
      "v": 96
    },
    {
      "midi": 57,
      "hit": false,
      "t": 121928.7340000019,
      "d": 203.12527083333407,
      "v": 80
    },
    {
      "midi": 60,
      "hit": false,
      "t": 121928.7340000019,
      "d": 203.12527083333407,
      "v": 80
    },
    {
      "midi": 64,
      "hit": false,
      "t": 121928.7340000019,
      "d": 203.12527083333407,
      "v": 80
    },
    {
      "midi": 71,
      "hit": false,
      "t": 121997.29499999942,
      "d": 101.33942083333386,
      "v": 96
    },
    {
      "midi": 83,
      "hit": false,
      "t": 121997.29499999942,
      "d": 101.33942083333386,
      "v": 96
    },
    {
      "midi": 72,
      "hit": false,
      "t": 122104.43799999941,
      "d": 106.69657083333004,
      "v": 96
    },
    {
      "midi": 84,
      "hit": false,
      "t": 122104.43799999941,
      "d": 106.69657083333004,
      "v": 96
    },
    {
      "midi": 40,
      "hit": false,
      "t": 122143.02000000191,
      "d": 203.12527083333407,
      "v": 80
    },
    {
      "midi": 69,
      "hit": false,
      "t": 122318.7239999994,
      "d": 508.4828208333347,
      "v": 96
    },
    {
      "midi": 76,
      "hit": false,
      "t": 122318.7239999994,
      "d": 508.4828208333347,
      "v": 96
    },
    {
      "midi": 81,
      "hit": false,
      "t": 122318.7239999994,
      "d": 508.4828208333347,
      "v": 96
    },
    {
      "midi": 57,
      "hit": false,
      "t": 122357.30600000192,
      "d": 203.12527083333407,
      "v": 80
    },
    {
      "midi": 60,
      "hit": false,
      "t": 122357.30600000192,
      "d": 203.12527083333407,
      "v": 80
    },
    {
      "midi": 64,
      "hit": false,
      "t": 122357.30600000192,
      "d": 203.12527083333407,
      "v": 80
    },
    {
      "midi": 44,
      "hit": false,
      "t": 122571.59200000193,
      "d": 203.12527083333407,
      "v": 80
    },
    {
      "midi": 59,
      "hit": false,
      "t": 122785.87800000193,
      "d": 203.12527083333407,
      "v": 80
    },
    {
      "midi": 62,
      "hit": false,
      "t": 122785.87800000193,
      "d": 203.12527083333407,
      "v": 80
    },
    {
      "midi": 65,
      "hit": false,
      "t": 122785.87800000193,
      "d": 203.12527083333407,
      "v": 80
    },
    {
      "midi": 71,
      "hit": false,
      "t": 122854.4389999994,
      "d": 101.33942083333386,
      "v": 96
    },
    {
      "midi": 76,
      "hit": false,
      "t": 122854.4389999994,
      "d": 101.33942083333386,
      "v": 96
    },
    {
      "midi": 83,
      "hit": false,
      "t": 122854.4389999994,
      "d": 101.33942083333386,
      "v": 96
    },
    {
      "midi": 71,
      "hit": false,
      "t": 122961.5819999994,
      "d": 101.33942083333386,
      "v": 96
    },
    {
      "midi": 76,
      "hit": false,
      "t": 122961.5819999994,
      "d": 101.33942083333386,
      "v": 96
    },
    {
      "midi": 83,
      "hit": false,
      "t": 122961.5819999994,
      "d": 101.33942083333386,
      "v": 96
    },
    {
      "midi": 40,
      "hit": false,
      "t": 123000.16400000194,
      "d": 203.12527083333407,
      "v": 80
    },
    {
      "midi": 71,
      "hit": false,
      "t": 123068.7249999994,
      "d": 106.69657083333004,
      "v": 96
    },
    {
      "midi": 76,
      "hit": false,
      "t": 123068.7249999994,
      "d": 106.69657083333004,
      "v": 96
    },
    {
      "midi": 83,
      "hit": false,
      "t": 123068.7249999994,
      "d": 106.69657083333004,
      "v": 96
    },
    {
      "midi": 59,
      "hit": false,
      "t": 123214.45000000195,
      "d": 203.12527083333407,
      "v": 80
    },
    {
      "midi": 62,
      "hit": false,
      "t": 123214.45000000195,
      "d": 203.12527083333407,
      "v": 80
    },
    {
      "midi": 65,
      "hit": false,
      "t": 123214.45000000195,
      "d": 203.12527083333407,
      "v": 80
    },
    {
      "midi": 71,
      "hit": false,
      "t": 123283.01099999939,
      "d": 101.33942083333386,
      "v": 96
    },
    {
      "midi": 76,
      "hit": false,
      "t": 123283.01099999939,
      "d": 101.33942083333386,
      "v": 96
    },
    {
      "midi": 83,
      "hit": false,
      "t": 123283.01099999939,
      "d": 101.33942083333386,
      "v": 96
    },
    {
      "midi": 72,
      "hit": false,
      "t": 123390.15399999938,
      "d": 203.12527083333407,
      "v": 96
    },
    {
      "midi": 77,
      "hit": false,
      "t": 123390.15399999938,
      "d": 203.12527083333407,
      "v": 96
    },
    {
      "midi": 84,
      "hit": false,
      "t": 123390.15399999938,
      "d": 203.12527083333407,
      "v": 96
    },
    {
      "midi": 41,
      "hit": false,
      "t": 123428.73600000195,
      "d": 203.12527083333407,
      "v": 80
    },
    {
      "midi": 57,
      "hit": false,
      "t": 123643.02200000196,
      "d": 203.12527083333407,
      "v": 80
    },
    {
      "midi": 60,
      "hit": false,
      "t": 123643.02200000196,
      "d": 203.12527083333407,
      "v": 80
    },
    {
      "midi": 62,
      "hit": false,
      "t": 123643.02200000196,
      "d": 203.12527083333407,
      "v": 80
    },
    {
      "midi": 65,
      "hit": false,
      "t": 123643.02200000196,
      "d": 203.12527083333407,
      "v": 80
    },
    {
      "midi": 83,
      "hit": false,
      "t": 123711.58299999939,
      "d": 101.33942083333386,
      "v": 96
    },
    {
      "midi": 88,
      "hit": false,
      "t": 123711.58299999939,
      "d": 101.33942083333386,
      "v": 96
    },
    {
      "midi": 95,
      "hit": false,
      "t": 123711.58299999939,
      "d": 101.33942083333386,
      "v": 96
    },
    {
      "midi": 83,
      "hit": false,
      "t": 123818.72599999938,
      "d": 101.33942083333386,
      "v": 96
    },
    {
      "midi": 88,
      "hit": false,
      "t": 123818.72599999938,
      "d": 101.33942083333386,
      "v": 96
    },
    {
      "midi": 95,
      "hit": false,
      "t": 123818.72599999938,
      "d": 101.33942083333386,
      "v": 96
    },
    {
      "midi": 38,
      "hit": false,
      "t": 123857.30800000197,
      "d": 203.12527083333407,
      "v": 80
    },
    {
      "midi": 83,
      "hit": false,
      "t": 123925.86899999938,
      "d": 106.69657083333004,
      "v": 96
    },
    {
      "midi": 88,
      "hit": false,
      "t": 123925.86899999938,
      "d": 106.69657083333004,
      "v": 96
    },
    {
      "midi": 95,
      "hit": false,
      "t": 123925.86899999938,
      "d": 106.69657083333004,
      "v": 96
    },
    {
      "midi": 57,
      "hit": false,
      "t": 124071.59400000198,
      "d": 203.12527083333407,
      "v": 80
    },
    {
      "midi": 60,
      "hit": false,
      "t": 124071.59400000198,
      "d": 203.12527083333407,
      "v": 80
    },
    {
      "midi": 62,
      "hit": false,
      "t": 124071.59400000198,
      "d": 203.12527083333407,
      "v": 80
    },
    {
      "midi": 65,
      "hit": false,
      "t": 124071.59400000198,
      "d": 203.12527083333407,
      "v": 80
    },
    {
      "midi": 83,
      "hit": false,
      "t": 124140.15499999937,
      "d": 101.33942083333386,
      "v": 96
    },
    {
      "midi": 88,
      "hit": false,
      "t": 124140.15499999937,
      "d": 101.33942083333386,
      "v": 96
    },
    {
      "midi": 95,
      "hit": false,
      "t": 124140.15499999937,
      "d": 101.33942083333386,
      "v": 96
    },
    {
      "midi": 84,
      "hit": false,
      "t": 124247.29799999937,
      "d": 203.12527083333407,
      "v": 96
    },
    {
      "midi": 88,
      "hit": false,
      "t": 124247.29799999937,
      "d": 203.12527083333407,
      "v": 96
    },
    {
      "midi": 92,
      "hit": false,
      "t": 124247.29799999937,
      "d": 203.12527083333407,
      "v": 96
    },
    {
      "midi": 42,
      "hit": false,
      "t": 124285.88000000198,
      "d": 203.12527083333407,
      "v": 80
    },
    {
      "midi": 60,
      "hit": false,
      "t": 124500.16600000199,
      "d": 203.12527083333407,
      "v": 80
    },
    {
      "midi": 66,
      "hit": false,
      "t": 124500.16600000199,
      "d": 203.12527083333407,
      "v": 80
    },
    {
      "midi": 69,
      "hit": false,
      "t": 124500.16600000199,
      "d": 203.12527083333407,
      "v": 80
    },
    {
      "midi": 42,
      "hit": false,
      "t": 124714.452000002,
      "d": 203.12527083333407,
      "v": 80
    },
    {
      "midi": 68,
      "hit": false,
      "t": 124783.01299999937,
      "d": 101.33942083333386,
      "v": 80
    },
    {
      "midi": 80,
      "hit": false,
      "t": 124783.01299999937,
      "d": 101.33942083333386,
      "v": 80
    },
    {
      "midi": 69,
      "hit": false,
      "t": 124890.15599999936,
      "d": 106.69657083333004,
      "v": 80
    },
    {
      "midi": 81,
      "hit": false,
      "t": 124890.15599999936,
      "d": 106.69657083333004,
      "v": 80
    },
    {
      "midi": 60,
      "hit": false,
      "t": 124928.738000002,
      "d": 203.12527083333407,
      "v": 80
    },
    {
      "midi": 66,
      "hit": false,
      "t": 124928.738000002,
      "d": 203.12527083333407,
      "v": 80
    },
    {
      "midi": 69,
      "hit": false,
      "t": 124928.738000002,
      "d": 203.12527083333407,
      "v": 80
    },
    {
      "midi": 71,
      "hit": false,
      "t": 125104.44199999936,
      "d": 101.33942083333386,
      "v": 81
    },
    {
      "midi": 83,
      "hit": false,
      "t": 125104.44199999936,
      "d": 101.33942083333386,
      "v": 81
    },
    {
      "midi": 40,
      "hit": false,
      "t": 125143.02400000201,
      "d": 813.8403708333353,
      "v": 80
    },
    {
      "midi": 52,
      "hit": false,
      "t": 125143.02400000201,
      "d": 813.8403708333353,
      "v": 80
    },
    {
      "midi": 72,
      "hit": false,
      "t": 125211.58499999935,
      "d": 106.69657083333004,
      "v": 82
    },
    {
      "midi": 84,
      "hit": false,
      "t": 125211.58499999935,
      "d": 106.69657083333004,
      "v": 82
    },
    {
      "midi": 70,
      "hit": false,
      "t": 125640.15699999935,
      "d": 101.33942083333386,
      "v": 84
    },
    {
      "midi": 82,
      "hit": false,
      "t": 125640.15699999935,
      "d": 101.33942083333386,
      "v": 84
    },
    {
      "midi": 71,
      "hit": false,
      "t": 125747.29999999935,
      "d": 106.69657083333004,
      "v": 84
    },
    {
      "midi": 83,
      "hit": false,
      "t": 125747.29999999935,
      "d": 106.69657083333004,
      "v": 84
    },
    {
      "midi": 73,
      "hit": false,
      "t": 125961.58599999934,
      "d": 101.33942083333386,
      "v": 85
    },
    {
      "midi": 85,
      "hit": false,
      "t": 125961.58599999934,
      "d": 101.33942083333386,
      "v": 85
    },
    {
      "midi": 47,
      "hit": false,
      "t": 126000.16800000201,
      "d": 813.8403708333353,
      "v": 80
    },
    {
      "midi": 59,
      "hit": false,
      "t": 126000.16800000201,
      "d": 813.8403708333353,
      "v": 80
    },
    {
      "midi": 74,
      "hit": false,
      "t": 126068.72899999934,
      "d": 106.69657083333004,
      "v": 86
    },
    {
      "midi": 86,
      "hit": false,
      "t": 126068.72899999934,
      "d": 106.69657083333004,
      "v": 86
    },
    {
      "midi": 73,
      "hit": false,
      "t": 126497.30099999934,
      "d": 101.33942083333386,
      "v": 88
    },
    {
      "midi": 85,
      "hit": false,
      "t": 126497.30099999934,
      "d": 101.33942083333386,
      "v": 88
    },
    {
      "midi": 74,
      "hit": false,
      "t": 126604.44399999933,
      "d": 106.69657083333004,
      "v": 89
    },
    {
      "midi": 86,
      "hit": false,
      "t": 126604.44399999933,
      "d": 106.69657083333004,
      "v": 89
    },
    {
      "midi": 76,
      "hit": false,
      "t": 126818.72999999933,
      "d": 101.33942083333386,
      "v": 90
    },
    {
      "midi": 88,
      "hit": false,
      "t": 126818.72999999933,
      "d": 101.33942083333386,
      "v": 90
    },
    {
      "midi": 40,
      "hit": false,
      "t": 126857.31200000201,
      "d": 813.8403708333353,
      "v": 80
    },
    {
      "midi": 52,
      "hit": false,
      "t": 126857.31200000201,
      "d": 813.8403708333353,
      "v": 80
    },
    {
      "midi": 77,
      "hit": false,
      "t": 126925.87299999932,
      "d": 106.69657083333004,
      "v": 90
    },
    {
      "midi": 89,
      "hit": false,
      "t": 126925.87299999932,
      "d": 106.69657083333004,
      "v": 90
    },
    {
      "midi": 77,
      "hit": false,
      "t": 127354.44499999932,
      "d": 101.33942083333386,
      "v": 92
    },
    {
      "midi": 89,
      "hit": false,
      "t": 127354.44499999932,
      "d": 101.33942083333386,
      "v": 92
    },
    {
      "midi": 78,
      "hit": false,
      "t": 127461.58799999932,
      "d": 106.69657083333004,
      "v": 93
    },
    {
      "midi": 90,
      "hit": false,
      "t": 127461.58799999932,
      "d": 106.69657083333004,
      "v": 93
    },
    {
      "midi": 80,
      "hit": false,
      "t": 127675.87399999931,
      "d": 101.33942083333386,
      "v": 94
    },
    {
      "midi": 92,
      "hit": false,
      "t": 127675.87399999931,
      "d": 101.33942083333386,
      "v": 94
    },
    {
      "midi": 81,
      "hit": false,
      "t": 127783.01699999931,
      "d": 101.33942083333386,
      "v": 94
    },
    {
      "midi": 93,
      "hit": false,
      "t": 127783.01699999931,
      "d": 101.33942083333386,
      "v": 94
    },
    {
      "midi": 52,
      "hit": false,
      "t": 127821.59900000201,
      "d": 101.33942083333386,
      "v": 80
    },
    {
      "midi": 78,
      "hit": false,
      "t": 127890.1599999993,
      "d": 101.33942083333386,
      "v": 95
    },
    {
      "midi": 90,
      "hit": false,
      "t": 127890.1599999993,
      "d": 101.33942083333386,
      "v": 95
    },
    {
      "midi": 51,
      "hit": false,
      "t": 127928.742000002,
      "d": 101.33942083333386,
      "v": 80
    },
    {
      "midi": 76,
      "hit": false,
      "t": 127997.3029999993,
      "d": 101.33942083333386,
      "v": 96
    },
    {
      "midi": 80,
      "hit": false,
      "t": 127997.3029999993,
      "d": 101.33942083333386,
      "v": 96
    },
    {
      "midi": 83,
      "hit": false,
      "t": 127997.3029999993,
      "d": 101.33942083333386,
      "v": 96
    },
    {
      "midi": 88,
      "hit": false,
      "t": 127997.3029999993,
      "d": 101.33942083333386,
      "v": 96
    },
    {
      "midi": 50,
      "hit": false,
      "t": 128035.885000002,
      "d": 101.33942083333386,
      "v": 80
    },
    {
      "midi": 88,
      "hit": false,
      "t": 128104.4459999993,
      "d": 101.33942083333386,
      "v": 96
    },
    {
      "midi": 49,
      "hit": false,
      "t": 128143.028000002,
      "d": 101.33942083333386,
      "v": 80
    },
    {
      "midi": 88,
      "hit": false,
      "t": 128211.5889999993,
      "d": 101.33942083333386,
      "v": 96
    },
    {
      "midi": 48,
      "hit": false,
      "t": 128250.171000002,
      "d": 101.33942083333386,
      "v": 80
    },
    {
      "midi": 71,
      "hit": false,
      "t": 128318.73199999929,
      "d": 508.4828208333347,
      "v": 96
    },
    {
      "midi": 76,
      "hit": false,
      "t": 128318.73199999929,
      "d": 508.4828208333347,
      "v": 96
    },
    {
      "midi": 80,
      "hit": false,
      "t": 128318.73199999929,
      "d": 508.4828208333347,
      "v": 96
    },
    {
      "midi": 83,
      "hit": false,
      "t": 128318.73199999929,
      "d": 508.4828208333347,
      "v": 96
    },
    {
      "midi": 47,
      "hit": false,
      "t": 128357.31400000199,
      "d": 101.33942083333386,
      "v": 80
    },
    {
      "midi": 46,
      "hit": false,
      "t": 128464.45700000199,
      "d": 101.33942083333386,
      "v": 80
    },
    {
      "midi": 45,
      "hit": false,
      "t": 128571.60000000198,
      "d": 203.12527083333407,
      "v": 80
    },
    {
      "midi": 52,
      "hit": false,
      "t": 128785.88600000199,
      "d": 203.12527083333407,
      "v": 80
    },
    {
      "midi": 57,
      "hit": false,
      "t": 128785.88600000199,
      "d": 203.12527083333407,
      "v": 80
    },
    {
      "midi": 60,
      "hit": false,
      "t": 128785.88600000199,
      "d": 203.12527083333407,
      "v": 80
    },
    {
      "midi": 76,
      "hit": false,
      "t": 128854.44699999929,
      "d": 101.33942083333386,
      "v": 96
    },
    {
      "midi": 80,
      "hit": false,
      "t": 128854.44699999929,
      "d": 101.33942083333386,
      "v": 96
    },
    {
      "midi": 83,
      "hit": false,
      "t": 128854.44699999929,
      "d": 101.33942083333386,
      "v": 96
    },
    {
      "midi": 88,
      "hit": false,
      "t": 128854.44699999929,
      "d": 101.33942083333386,
      "v": 96
    },
    {
      "midi": 88,
      "hit": false,
      "t": 128961.58999999928,
      "d": 101.33942083333386,
      "v": 96
    },
    {
      "midi": 40,
      "hit": false,
      "t": 129000.172000002,
      "d": 203.12527083333407,
      "v": 80
    },
    {
      "midi": 88,
      "hit": false,
      "t": 129068.73299999928,
      "d": 101.33942083333386,
      "v": 96
    },
    {
      "midi": 76,
      "hit": false,
      "t": 129175.87599999928,
      "d": 508.4828208333347,
      "v": 96
    },
    {
      "midi": 80,
      "hit": false,
      "t": 129175.87599999928,
      "d": 508.4828208333347,
      "v": 96
    },
    {
      "midi": 83,
      "hit": false,
      "t": 129175.87599999928,
      "d": 508.4828208333347,
      "v": 96
    },
    {
      "midi": 88,
      "hit": false,
      "t": 129175.87599999928,
      "d": 508.4828208333347,
      "v": 96
    },
    {
      "midi": 92,
      "hit": false,
      "t": 129175.87599999928,
      "d": 508.4828208333347,
      "v": 96
    },
    {
      "midi": 95,
      "hit": false,
      "t": 129175.87599999928,
      "d": 508.4828208333347,
      "v": 96
    },
    {
      "midi": 52,
      "hit": false,
      "t": 129214.458000002,
      "d": 203.12527083333407,
      "v": 80
    },
    {
      "midi": 57,
      "hit": false,
      "t": 129214.458000002,
      "d": 203.12527083333407,
      "v": 80
    },
    {
      "midi": 60,
      "hit": false,
      "t": 129214.458000002,
      "d": 203.12527083333407,
      "v": 80
    },
    {
      "midi": 45,
      "hit": false,
      "t": 129428.74400000201,
      "d": 203.12527083333407,
      "v": 80
    },
    {
      "midi": 52,
      "hit": false,
      "t": 129643.03000000202,
      "d": 203.12527083333407,
      "v": 80
    },
    {
      "midi": 57,
      "hit": false,
      "t": 129643.03000000202,
      "d": 203.12527083333407,
      "v": 80
    },
    {
      "midi": 60,
      "hit": false,
      "t": 129643.03000000202,
      "d": 203.12527083333407,
      "v": 80
    },
    {
      "midi": 76,
      "hit": false,
      "t": 129711.59099999927,
      "d": 101.33942083333386,
      "v": 96
    },
    {
      "midi": 80,
      "hit": false,
      "t": 129711.59099999927,
      "d": 101.33942083333386,
      "v": 96
    },
    {
      "midi": 83,
      "hit": false,
      "t": 129711.59099999927,
      "d": 101.33942083333386,
      "v": 96
    },
    {
      "midi": 88,
      "hit": false,
      "t": 129711.59099999927,
      "d": 101.33942083333386,
      "v": 96
    },
    {
      "midi": 88,
      "hit": false,
      "t": 129818.73399999927,
      "d": 106.69657083333004,
      "v": 96
    },
    {
      "midi": 63,
      "hit": false,
      "t": 129857.31600000203,
      "d": 101.33942083333386,
      "v": 80
    },
    {
      "midi": 40,
      "hit": false,
      "t": 129857.31600000203,
      "d": 203.12527083333407,
      "v": 80
    },
    {
      "midi": 62,
      "hit": false,
      "t": 129964.45900000203,
      "d": 101.33942083333386,
      "v": 80
    },
    {
      "midi": 88,
      "hit": false,
      "t": 130033.01999999926,
      "d": 101.33942083333386,
      "v": 96
    },
    {
      "midi": 61,
      "hit": false,
      "t": 130071.60200000202,
      "d": 101.33942083333386,
      "v": 80
    },
    {
      "midi": 76,
      "hit": false,
      "t": 130140.16299999926,
      "d": 203.12527083333407,
      "v": 96
    },
    {
      "midi": 80,
      "hit": false,
      "t": 130140.16299999926,
      "d": 203.12527083333407,
      "v": 96
    },
    {
      "midi": 83,
      "hit": false,
      "t": 130140.16299999926,
      "d": 203.12527083333407,
      "v": 96
    },
    {
      "midi": 92,
      "hit": false,
      "t": 130140.16299999926,
      "d": 203.12527083333407,
      "v": 96
    },
    {
      "midi": 60,
      "hit": false,
      "t": 130178.74500000202,
      "d": 101.33942083333386,
      "v": 80
    },
    {
      "midi": 47,
      "hit": false,
      "t": 130285.88800000201,
      "d": 203.12527083333407,
      "v": 80
    },
    {
      "midi": 59,
      "hit": false,
      "t": 130285.88800000201,
      "d": 203.12527083333407,
      "v": 80
    },
    {
      "midi": 91,
      "hit": false,
      "t": 130354.44899999927,
      "d": 21.42859999999928,
      "v": 96
    },
    {
      "midi": 89,
      "hit": false,
      "t": 130377.66331666593,
      "d": 21.42859999999928,
      "v": 96
    },
    {
      "midi": 88,
      "hit": false,
      "t": 130401.32406249926,
      "d": 21.42859999999928,
      "v": 96
    },
    {
      "midi": 86,
      "hit": false,
      "t": 130424.98480833259,
      "d": 21.42859999999928,
      "v": 96
    },
    {
      "midi": 84,
      "hit": false,
      "t": 130448.64555416592,
      "d": 21.42859999999928,
      "v": 96
    },
    {
      "midi": 83,
      "hit": false,
      "t": 130472.30629999925,
      "d": 21.42859999999928,
      "v": 96
    },
    {
      "midi": 81,
      "hit": false,
      "t": 130495.96704583259,
      "d": 21.42859999999928,
      "v": 96
    },
    {
      "midi": 59,
      "hit": false,
      "t": 130500.17400000202,
      "d": 203.12527083333407,
      "v": 80
    },
    {
      "midi": 62,
      "hit": false,
      "t": 130500.17400000202,
      "d": 203.12527083333407,
      "v": 80
    },
    {
      "midi": 64,
      "hit": false,
      "t": 130500.17400000202,
      "d": 203.12527083333407,
      "v": 80
    },
    {
      "midi": 79,
      "hit": false,
      "t": 130519.62779166592,
      "d": 21.42859999999928,
      "v": 96
    },
    {
      "midi": 77,
      "hit": false,
      "t": 130543.28853749925,
      "d": 22.767887499998324,
      "v": 96
    },
    {
      "midi": 76,
      "hit": false,
      "t": 130568.73499999924,
      "d": 101.33942083333386,
      "v": 96
    },
    {
      "midi": 81,
      "hit": false,
      "t": 130675.87799999924,
      "d": 101.33942083333386,
      "v": 96
    },
    {
      "midi": 40,
      "hit": false,
      "t": 130714.46000000203,
      "d": 203.12527083333407,
      "v": 80
    },
    {
      "midi": 75,
      "hit": false,
      "t": 130783.02099999924,
      "d": 101.33942083333386,
      "v": 96
    },
    {
      "midi": 76,
      "hit": false,
      "t": 130890.16399999923,
      "d": 101.33942083333386,
      "v": 96
    },
    {
      "midi": 59,
      "hit": false,
      "t": 130928.74600000204,
      "d": 203.12527083333407,
      "v": 80
    },
    {
      "midi": 62,
      "hit": false,
      "t": 130928.74600000204,
      "d": 203.12527083333407,
      "v": 80
    },
    {
      "midi": 64,
      "hit": false,
      "t": 130928.74600000204,
      "d": 203.12527083333407,
      "v": 80
    },
    {
      "midi": 77,
      "hit": false,
      "t": 130997.30699999923,
      "d": 101.33942083331931,
      "v": 96
    },
    {
      "midi": 78,
      "hit": false,
      "t": 131104.44999999923,
      "d": 101.33942083333386,
      "v": 96
    },
    {
      "midi": 35,
      "hit": false,
      "t": 131143.03200000204,
      "d": 203.12527083331952,
      "v": 80
    },
    {
      "midi": 67,
      "hit": false,
      "t": 131211.59299999924,
      "d": 101.33942083333386,
      "v": 96
    },
    {
      "midi": 79,
      "hit": false,
      "t": 131211.59299999924,
      "d": 101.33942083333386,
      "v": 96
    },
    {
      "midi": 68,
      "hit": false,
      "t": 131318.73599999925,
      "d": 101.33942083333386,
      "v": 96
    },
    {
      "midi": 80,
      "hit": false,
      "t": 131318.73599999925,
      "d": 101.33942083333386,
      "v": 96
    },
    {
      "midi": 59,
      "hit": false,
      "t": 131357.31800000204,
      "d": 203.12527083331952,
      "v": 80
    },
    {
      "midi": 62,
      "hit": false,
      "t": 131357.31800000204,
      "d": 203.12527083331952,
      "v": 80
    },
    {
      "midi": 64,
      "hit": false,
      "t": 131357.31800000204,
      "d": 203.12527083331952,
      "v": 80
    },
    {
      "midi": 69,
      "hit": false,
      "t": 131425.87899999926,
      "d": 203.12527083331952,
      "v": 96
    },
    {
      "midi": 81,
      "hit": false,
      "t": 131425.87899999926,
      "d": 203.12527083331952,
      "v": 96
    },
    {
      "midi": 64,
      "hit": false,
      "t": 131571.60400000203,
      "d": 101.33942083333386,
      "v": 80
    },
    {
      "midi": 40,
      "hit": false,
      "t": 131571.60400000203,
      "d": 203.12527083334862,
      "v": 80
    },
    {
      "midi": 76,
      "hit": false,
      "t": 131640.16499999925,
      "d": 428.12557083333377,
      "v": 115
    },
    {
      "midi": 81,
      "hit": false,
      "t": 131640.16499999925,
      "d": 428.12557083333377,
      "v": 115
    },
    {
      "midi": 88,
      "hit": false,
      "t": 131640.16499999925,
      "d": 428.12557083333377,
      "v": 115
    },
    {
      "midi": 63,
      "hit": false,
      "t": 131678.74700000204,
      "d": 101.33942083333386,
      "v": 80
    },
    {
      "midi": 62,
      "hit": false,
      "t": 131785.89000000205,
      "d": 101.33942083333386,
      "v": 80
    },
    {
      "midi": 61,
      "hit": false,
      "t": 131893.03300000206,
      "d": 101.33942083333386,
      "v": 80
    },
    {
      "midi": 48,
      "hit": false,
      "t": 132000.17600000207,
      "d": 203.12527083331952,
      "v": 80
    },
    {
      "midi": 60,
      "hit": false,
      "t": 132000.17600000207,
      "d": 203.12527083331952,
      "v": 80
    },
    {
      "midi": 75,
      "hit": false,
      "t": 132068.73699999927,
      "d": 106.69657083333004,
      "v": 96
    },
    {
      "midi": 87,
      "hit": false,
      "t": 132068.73699999927,
      "d": 106.69657083333004,
      "v": 96
    },
    {
      "midi": 51,
      "hit": false,
      "t": 132214.46200000207,
      "d": 203.12527083331952,
      "v": 80
    },
    {
      "midi": 55,
      "hit": false,
      "t": 132214.46200000207,
      "d": 203.12527083331952,
      "v": 80
    },
    {
      "midi": 60,
      "hit": false,
      "t": 132214.46200000207,
      "d": 203.12527083331952,
      "v": 80
    },
    {
      "midi": 69,
      "hit": false,
      "t": 132283.02299999926,
      "d": 406.69697083331994,
      "v": 96
    },
    {
      "midi": 76,
      "hit": false,
      "t": 132283.02299999926,
      "d": 406.69697083331994,
      "v": 96
    },
    {
      "midi": 81,
      "hit": false,
      "t": 132283.02299999926,
      "d": 406.69697083331994,
      "v": 96
    },
    {
      "midi": 43,
      "hit": false,
      "t": 132428.74800000206,
      "d": 203.12527083331952,
      "v": 80
    },
    {
      "midi": 51,
      "hit": false,
      "t": 132643.03400000205,
      "d": 203.12527083331952,
      "v": 80
    },
    {
      "midi": 55,
      "hit": false,
      "t": 132643.03400000205,
      "d": 203.12527083331952,
      "v": 80
    },
    {
      "midi": 60,
      "hit": false,
      "t": 132643.03400000205,
      "d": 203.12527083331952,
      "v": 80
    },
    {
      "midi": 79,
      "hit": false,
      "t": 132711.59499999924,
      "d": 101.33942083333386,
      "v": 96
    },
    {
      "midi": 80,
      "hit": false,
      "t": 132818.73799999926,
      "d": 101.33942083333386,
      "v": 96
    },
    {
      "midi": 48,
      "hit": false,
      "t": 132857.32000000204,
      "d": 203.12527083331952,
      "v": 80
    },
    {
      "midi": 81,
      "hit": false,
      "t": 132925.88099999927,
      "d": 101.33942083333386,
      "v": 96
    },
    {
      "midi": 82,
      "hit": false,
      "t": 133033.02399999928,
      "d": 101.33942083333386,
      "v": 96
    },
    {
      "midi": 51,
      "hit": false,
      "t": 133071.60600000204,
      "d": 203.12527083331952,
      "v": 80
    },
    {
      "midi": 55,
      "hit": false,
      "t": 133071.60600000204,
      "d": 203.12527083331952,
      "v": 80
    },
    {
      "midi": 60,
      "hit": false,
      "t": 133071.60600000204,
      "d": 203.12527083331952,
      "v": 80
    },
    {
      "midi": 71,
      "hit": false,
      "t": 133140.1669999993,
      "d": 203.12527083331952,
      "v": 96
    },
    {
      "midi": 83,
      "hit": false,
      "t": 133140.1669999993,
      "d": 203.12527083331952,
      "v": 96
    },
    {
      "midi": 55,
      "hit": false,
      "t": 133285.89200000203,
      "d": 101.33942083333386,
      "v": 80
    },
    {
      "midi": 43,
      "hit": false,
      "t": 133285.89200000203,
      "d": 203.12527083334862,
      "v": 80
    },
    {
      "midi": 78,
      "hit": false,
      "t": 133354.45299999928,
      "d": 428.12557083333377,
      "v": 115
    },
    {
      "midi": 83,
      "hit": false,
      "t": 133354.45299999928,
      "d": 428.12557083333377,
      "v": 115
    },
    {
      "midi": 90,
      "hit": false,
      "t": 133354.45299999928,
      "d": 428.12557083333377,
      "v": 115
    },
    {
      "midi": 56,
      "hit": false,
      "t": 133393.03500000204,
      "d": 101.33942083333386,
      "v": 80
    },
    {
      "midi": 57,
      "hit": false,
      "t": 133500.17800000205,
      "d": 101.33942083333386,
      "v": 80
    },
    {
      "midi": 58,
      "hit": false,
      "t": 133607.32100000206,
      "d": 101.33942083333386,
      "v": 80
    },
    {
      "midi": 59,
      "hit": false,
      "t": 133714.46400000207,
      "d": 101.33942083333386,
      "v": 80
    },
    {
      "midi": 47,
      "hit": false,
      "t": 133714.46400000207,
      "d": 203.12527083331952,
      "v": 80
    },
    {
      "midi": 75,
      "hit": false,
      "t": 133783.0249999993,
      "d": 106.69657083333004,
      "v": 96
    },
    {
      "midi": 87,
      "hit": false,
      "t": 133783.0249999993,
      "d": 106.69657083333004,
      "v": 96
    },
    {
      "midi": 59,
      "hit": false,
      "t": 133928.75000000207,
      "d": 203.12527083331952,
      "v": 80
    },
    {
      "midi": 62,
      "hit": false,
      "t": 133928.75000000207,
      "d": 203.12527083331952,
      "v": 80
    },
    {
      "midi": 64,
      "hit": false,
      "t": 133928.75000000207,
      "d": 203.12527083331952,
      "v": 80
    },
    {
      "midi": 71,
      "hit": false,
      "t": 133997.3109999993,
      "d": 406.69697083331994,
      "v": 96
    },
    {
      "midi": 77,
      "hit": false,
      "t": 133997.3109999993,
      "d": 406.69697083331994,
      "v": 96
    },
    {
      "midi": 83,
      "hit": false,
      "t": 133997.3109999993,
      "d": 406.69697083331994,
      "v": 96
    },
    {
      "midi": 40,
      "hit": false,
      "t": 134143.03600000206,
      "d": 203.12527083331952,
      "v": 80
    },
    {
      "midi": 59,
      "hit": false,
      "t": 134357.32200000205,
      "d": 203.12527083331952,
      "v": 80
    },
    {
      "midi": 62,
      "hit": false,
      "t": 134357.32200000205,
      "d": 203.12527083331952,
      "v": 80
    },
    {
      "midi": 64,
      "hit": false,
      "t": 134357.32200000205,
      "d": 203.12527083331952,
      "v": 80
    },
    {
      "midi": 80,
      "hit": false,
      "t": 134425.88299999927,
      "d": 101.33942083333386,
      "v": 96
    },
    {
      "midi": 81,
      "hit": false,
      "t": 134533.02599999928,
      "d": 101.33942083333386,
      "v": 96
    },
    {
      "midi": 47,
      "hit": false,
      "t": 134571.60800000204,
      "d": 203.12527083331952,
      "v": 80
    },
    {
      "midi": 82,
      "hit": false,
      "t": 134640.1689999993,
      "d": 101.33942083333386,
      "v": 96
    },
    {
      "midi": 83,
      "hit": false,
      "t": 134747.3119999993,
      "d": 101.33942083333386,
      "v": 96
    },
    {
      "midi": 59,
      "hit": false,
      "t": 134785.89400000204,
      "d": 203.12527083331952,
      "v": 80
    },
    {
      "midi": 62,
      "hit": false,
      "t": 134785.89400000204,
      "d": 203.12527083331952,
      "v": 80
    },
    {
      "midi": 64,
      "hit": false,
      "t": 134785.89400000204,
      "d": 203.12527083331952,
      "v": 80
    },
    {
      "midi": 72,
      "hit": false,
      "t": 134854.45499999932,
      "d": 203.12527083331952,
      "v": 96
    },
    {
      "midi": 84,
      "hit": false,
      "t": 134854.45499999932,
      "d": 203.12527083331952,
      "v": 96
    },
    {
      "midi": 40,
      "hit": false,
      "t": 135000.18000000203,
      "d": 203.12527083331952,
      "v": 80
    },
    {
      "midi": 79,
      "hit": false,
      "t": 135068.7409999993,
      "d": 428.12557083333377,
      "v": 115
    },
    {
      "midi": 84,
      "hit": false,
      "t": 135068.7409999993,
      "d": 428.12557083333377,
      "v": 115
    },
    {
      "midi": 87,
      "hit": false,
      "t": 135068.7409999993,
      "d": 428.12557083333377,
      "v": 115
    },
    {
      "midi": 91,
      "hit": false,
      "t": 135068.7409999993,
      "d": 428.12557083333377,
      "v": 115
    },
    {
      "midi": 44,
      "hit": false,
      "t": 135214.46600000202,
      "d": 203.12527083331952,
      "v": 80
    },
    {
      "midi": 59,
      "hit": false,
      "t": 135214.46600000202,
      "d": 203.12527083331952,
      "v": 80
    },
    {
      "midi": 62,
      "hit": false,
      "t": 135214.46600000202,
      "d": 203.12527083331952,
      "v": 80
    },
    {
      "midi": 64,
      "hit": false,
      "t": 135214.46600000202,
      "d": 203.12527083331952,
      "v": 80
    },
    {
      "midi": 45,
      "hit": false,
      "t": 135428.75200000202,
      "d": 203.12527083331952,
      "v": 80
    },
    {
      "midi": 75,
      "hit": false,
      "t": 135497.31299999933,
      "d": 106.69657083333004,
      "v": 96
    },
    {
      "midi": 84,
      "hit": false,
      "t": 135497.31299999933,
      "d": 106.69657083333004,
      "v": 96
    },
    {
      "midi": 87,
      "hit": false,
      "t": 135497.31299999933,
      "d": 106.69657083333004,
      "v": 96
    },
    {
      "midi": 52,
      "hit": false,
      "t": 135643.038000002,
      "d": 203.12527083331952,
      "v": 80
    },
    {
      "midi": 57,
      "hit": false,
      "t": 135643.038000002,
      "d": 203.12527083331952,
      "v": 80
    },
    {
      "midi": 60,
      "hit": false,
      "t": 135643.038000002,
      "d": 203.12527083331952,
      "v": 80
    },
    {
      "midi": 72,
      "hit": false,
      "t": 135711.59899999932,
      "d": 304.9111208333343,
      "v": 96
    },
    {
      "midi": 84,
      "hit": false,
      "t": 135711.59899999932,
      "d": 304.9111208333343,
      "v": 96
    },
    {
      "midi": 40,
      "hit": false,
      "t": 135857.324000002,
      "d": 203.12527083331952,
      "v": 80
    },
    {
      "midi": 86,
      "hit": false,
      "t": 136033.02799999932,
      "d": 203.12527083331952,
      "v": 96
    },
    {
      "midi": 52,
      "hit": false,
      "t": 136071.610000002,
      "d": 203.12527083331952,
      "v": 80
    },
    {
      "midi": 57,
      "hit": false,
      "t": 136071.610000002,
      "d": 203.12527083331952,
      "v": 80
    },
    {
      "midi": 60,
      "hit": false,
      "t": 136071.610000002,
      "d": 203.12527083331952,
      "v": 80
    },
    {
      "midi": 85,
      "hit": false,
      "t": 136247.3139999993,
      "d": 101.33942083333386,
      "v": 96
    },
    {
      "midi": 45,
      "hit": false,
      "t": 136285.896000002,
      "d": 203.12527083331952,
      "v": 80
    },
    {
      "midi": 84,
      "hit": false,
      "t": 136354.45699999933,
      "d": 101.33942083333386,
      "v": 96
    },
    {
      "midi": 82,
      "hit": false,
      "t": 136461.59999999934,
      "d": 101.33942083333386,
      "v": 96
    },
    {
      "midi": 52,
      "hit": false,
      "t": 136500.18200000198,
      "d": 203.12527083331952,
      "v": 80
    },
    {
      "midi": 57,
      "hit": false,
      "t": 136500.18200000198,
      "d": 203.12527083331952,
      "v": 80
    },
    {
      "midi": 60,
      "hit": false,
      "t": 136500.18200000198,
      "d": 203.12527083331952,
      "v": 80
    },
    {
      "midi": 83,
      "hit": false,
      "t": 136568.74299999935,
      "d": 203.12527083331952,
      "v": 96
    },
    {
      "midi": 63,
      "hit": false,
      "t": 136714.46800000197,
      "d": 101.33942083333386,
      "v": 80
    },
    {
      "midi": 40,
      "hit": false,
      "t": 136714.46800000197,
      "d": 203.12527083334862,
      "v": 80
    },
    {
      "midi": 74,
      "hit": false,
      "t": 136783.02899999934,
      "d": 203.12527083331952,
      "v": 96
    },
    {
      "midi": 88,
      "hit": false,
      "t": 136783.02899999934,
      "d": 203.12527083331952,
      "v": 96
    },
    {
      "midi": 89,
      "hit": false,
      "t": 136783.02899999934,
      "d": 203.12527083331952,
      "v": 96
    },
    {
      "midi": 62,
      "hit": false,
      "t": 136821.61100000198,
      "d": 101.33942083333386,
      "v": 80
    },
    {
      "midi": 61,
      "hit": false,
      "t": 136928.754000002,
      "d": 101.33942083333386,
      "v": 80
    },
    {
      "midi": 88,
      "hit": false,
      "t": 136997.31499999933,
      "d": 101.33942083333386,
      "v": 96
    },
    {
      "midi": 89,
      "hit": false,
      "t": 136997.31499999933,
      "d": 101.33942083333386,
      "v": 96
    },
    {
      "midi": 60,
      "hit": false,
      "t": 137035.897000002,
      "d": 101.33942083333386,
      "v": 80
    },
    {
      "midi": 88,
      "hit": false,
      "t": 137104.45799999934,
      "d": 106.69657083333004,
      "v": 96
    },
    {
      "midi": 89,
      "hit": false,
      "t": 137104.45799999934,
      "d": 106.69657083333004,
      "v": 96
    },
    {
      "midi": 47,
      "hit": false,
      "t": 137143.04000000202,
      "d": 203.12527083331952,
      "v": 80
    },
    {
      "midi": 59,
      "hit": false,
      "t": 137143.04000000202,
      "d": 203.12527083331952,
      "v": 80
    },
    {
      "midi": 83,
      "hit": false,
      "t": 137318.74399999934,
      "d": 203.12527083331952,
      "v": 96
    },
    {
      "midi": 59,
      "hit": false,
      "t": 137357.326000002,
      "d": 203.12527083331952,
      "v": 80
    },
    {
      "midi": 62,
      "hit": false,
      "t": 137357.326000002,
      "d": 203.12527083331952,
      "v": 80
    },
    {
      "midi": 64,
      "hit": false,
      "t": 137357.326000002,
      "d": 203.12527083331952,
      "v": 80
    },
    {
      "midi": 84,
      "hit": false,
      "t": 137533.02999999933,
      "d": 101.33942083333386,
      "v": 96
    },
    {
      "midi": 40,
      "hit": false,
      "t": 137571.612000002,
      "d": 203.12527083331952,
      "v": 80
    },
    {
      "midi": 83,
      "hit": false,
      "t": 137640.17299999934,
      "d": 101.33942083333386,
      "v": 96
    },
    {
      "midi": 84,
      "hit": false,
      "t": 137747.31599999935,
      "d": 101.33942083333386,
      "v": 96
    },
    {
      "midi": 59,
      "hit": false,
      "t": 137785.898000002,
      "d": 203.12527083331952,
      "v": 80
    },
    {
      "midi": 62,
      "hit": false,
      "t": 137785.898000002,
      "d": 203.12527083331952,
      "v": 80
    },
    {
      "midi": 64,
      "hit": false,
      "t": 137785.898000002,
      "d": 203.12527083331952,
      "v": 80
    },
    {
      "midi": 83,
      "hit": false,
      "t": 137854.45899999936,
      "d": 101.33942083333386,
      "v": 96
    },
    {
      "midi": 81,
      "hit": false,
      "t": 137961.60199999937,
      "d": 101.33942083333386,
      "v": 96
    },
    {
      "midi": 35,
      "hit": false,
      "t": 138000.184000002,
      "d": 203.12527083331952,
      "v": 80
    },
    {
      "midi": 67,
      "hit": false,
      "t": 138068.74499999938,
      "d": 101.33942083333386,
      "v": 96
    },
    {
      "midi": 79,
      "hit": false,
      "t": 138068.74499999938,
      "d": 101.33942083333386,
      "v": 96
    },
    {
      "midi": 68,
      "hit": false,
      "t": 138175.8879999994,
      "d": 101.33942083333386,
      "v": 96
    },
    {
      "midi": 80,
      "hit": false,
      "t": 138175.8879999994,
      "d": 101.33942083333386,
      "v": 96
    },
    {
      "midi": 59,
      "hit": false,
      "t": 138214.47000000198,
      "d": 203.12527083331952,
      "v": 80
    },
    {
      "midi": 62,
      "hit": false,
      "t": 138214.47000000198,
      "d": 203.12527083331952,
      "v": 80
    },
    {
      "midi": 64,
      "hit": false,
      "t": 138214.47000000198,
      "d": 203.12527083331952,
      "v": 80
    },
    {
      "midi": 69,
      "hit": false,
      "t": 138283.0309999994,
      "d": 203.12527083331952,
      "v": 96
    },
    {
      "midi": 81,
      "hit": false,
      "t": 138283.0309999994,
      "d": 203.12527083331952,
      "v": 96
    },
    {
      "midi": 64,
      "hit": false,
      "t": 138428.75600000197,
      "d": 101.33942083333386,
      "v": 80
    },
    {
      "midi": 40,
      "hit": false,
      "t": 138428.75600000197,
      "d": 203.12527083334862,
      "v": 80
    },
    {
      "midi": 76,
      "hit": false,
      "t": 138497.3169999994,
      "d": 428.12557083333377,
      "v": 115
    },
    {
      "midi": 81,
      "hit": false,
      "t": 138497.3169999994,
      "d": 428.12557083333377,
      "v": 115
    },
    {
      "midi": 88,
      "hit": false,
      "t": 138497.3169999994,
      "d": 428.12557083333377,
      "v": 115
    },
    {
      "midi": 63,
      "hit": false,
      "t": 138535.89900000198,
      "d": 101.33942083333386,
      "v": 80
    },
    {
      "midi": 62,
      "hit": false,
      "t": 138643.042000002,
      "d": 101.33942083333386,
      "v": 80
    },
    {
      "midi": 61,
      "hit": false,
      "t": 138750.185000002,
      "d": 101.33942083333386,
      "v": 80
    },
    {
      "midi": 48,
      "hit": false,
      "t": 138857.32800000202,
      "d": 203.12527083331952,
      "v": 80
    },
    {
      "midi": 60,
      "hit": false,
      "t": 138857.32800000202,
      "d": 203.12527083331952,
      "v": 80
    },
    {
      "midi": 75,
      "hit": false,
      "t": 138925.8889999994,
      "d": 106.69657083333004,
      "v": 96
    },
    {
      "midi": 87,
      "hit": false,
      "t": 138925.8889999994,
      "d": 106.69657083333004,
      "v": 96
    },
    {
      "midi": 51,
      "hit": false,
      "t": 139071.614000002,
      "d": 203.12527083331952,
      "v": 80
    },
    {
      "midi": 55,
      "hit": false,
      "t": 139071.614000002,
      "d": 203.12527083331952,
      "v": 80
    },
    {
      "midi": 60,
      "hit": false,
      "t": 139071.614000002,
      "d": 203.12527083331952,
      "v": 80
    },
    {
      "midi": 69,
      "hit": false,
      "t": 139140.1749999994,
      "d": 406.69697083331994,
      "v": 96
    },
    {
      "midi": 76,
      "hit": false,
      "t": 139140.1749999994,
      "d": 406.69697083331994,
      "v": 96
    },
    {
      "midi": 81,
      "hit": false,
      "t": 139140.1749999994,
      "d": 406.69697083331994,
      "v": 96
    },
    {
      "midi": 43,
      "hit": false,
      "t": 139285.900000002,
      "d": 203.12527083331952,
      "v": 80
    },
    {
      "midi": 51,
      "hit": false,
      "t": 139500.186000002,
      "d": 203.12527083331952,
      "v": 80
    },
    {
      "midi": 55,
      "hit": false,
      "t": 139500.186000002,
      "d": 203.12527083331952,
      "v": 80
    },
    {
      "midi": 60,
      "hit": false,
      "t": 139500.186000002,
      "d": 203.12527083331952,
      "v": 80
    },
    {
      "midi": 79,
      "hit": false,
      "t": 139568.7469999994,
      "d": 101.33942083333386,
      "v": 96
    },
    {
      "midi": 80,
      "hit": false,
      "t": 139675.8899999994,
      "d": 101.33942083333386,
      "v": 96
    },
    {
      "midi": 48,
      "hit": false,
      "t": 139714.472000002,
      "d": 203.12527083331952,
      "v": 80
    },
    {
      "midi": 81,
      "hit": false,
      "t": 139783.0329999994,
      "d": 101.33942083333386,
      "v": 96
    },
    {
      "midi": 82,
      "hit": false,
      "t": 139890.17599999942,
      "d": 101.33942083333386,
      "v": 96
    },
    {
      "midi": 51,
      "hit": false,
      "t": 139928.75800000198,
      "d": 203.12527083331952,
      "v": 80
    },
    {
      "midi": 55,
      "hit": false,
      "t": 139928.75800000198,
      "d": 203.12527083331952,
      "v": 80
    },
    {
      "midi": 60,
      "hit": false,
      "t": 139928.75800000198,
      "d": 203.12527083331952,
      "v": 80
    },
    {
      "midi": 71,
      "hit": false,
      "t": 139997.31899999944,
      "d": 203.12527083331952,
      "v": 96
    },
    {
      "midi": 83,
      "hit": false,
      "t": 139997.31899999944,
      "d": 203.12527083331952,
      "v": 96
    },
    {
      "midi": 55,
      "hit": false,
      "t": 140143.04400000197,
      "d": 101.33942083333386,
      "v": 80
    },
    {
      "midi": 43,
      "hit": false,
      "t": 140143.04400000197,
      "d": 203.12527083334862,
      "v": 80
    },
    {
      "midi": 78,
      "hit": false,
      "t": 140211.60499999943,
      "d": 428.12557083333377,
      "v": 115
    },
    {
      "midi": 83,
      "hit": false,
      "t": 140211.60499999943,
      "d": 428.12557083333377,
      "v": 115
    },
    {
      "midi": 90,
      "hit": false,
      "t": 140211.60499999943,
      "d": 428.12557083333377,
      "v": 115
    },
    {
      "midi": 56,
      "hit": false,
      "t": 140250.18700000198,
      "d": 101.33942083333386,
      "v": 80
    },
    {
      "midi": 57,
      "hit": false,
      "t": 140357.330000002,
      "d": 101.33942083333386,
      "v": 80
    },
    {
      "midi": 58,
      "hit": false,
      "t": 140464.473000002,
      "d": 101.33942083333386,
      "v": 80
    },
    {
      "midi": 59,
      "hit": false,
      "t": 140571.61600000202,
      "d": 101.33942083333386,
      "v": 80
    },
    {
      "midi": 47,
      "hit": false,
      "t": 140571.61600000202,
      "d": 203.12527083331952,
      "v": 80
    },
    {
      "midi": 75,
      "hit": false,
      "t": 140640.17699999944,
      "d": 106.69657083333004,
      "v": 96
    },
    {
      "midi": 87,
      "hit": false,
      "t": 140640.17699999944,
      "d": 106.69657083333004,
      "v": 96
    },
    {
      "midi": 59,
      "hit": false,
      "t": 140785.902000002,
      "d": 203.12527083331952,
      "v": 80
    },
    {
      "midi": 62,
      "hit": false,
      "t": 140785.902000002,
      "d": 203.12527083331952,
      "v": 80
    },
    {
      "midi": 64,
      "hit": false,
      "t": 140785.902000002,
      "d": 203.12527083331952,
      "v": 80
    },
    {
      "midi": 71,
      "hit": false,
      "t": 140854.46299999944,
      "d": 406.69697083331994,
      "v": 96
    },
    {
      "midi": 77,
      "hit": false,
      "t": 140854.46299999944,
      "d": 406.69697083331994,
      "v": 96
    },
    {
      "midi": 83,
      "hit": false,
      "t": 140854.46299999944,
      "d": 406.69697083331994,
      "v": 96
    },
    {
      "midi": 40,
      "hit": false,
      "t": 141000.188000002,
      "d": 203.12527083331952,
      "v": 80
    },
    {
      "midi": 59,
      "hit": false,
      "t": 141214.474000002,
      "d": 203.12527083331952,
      "v": 80
    },
    {
      "midi": 62,
      "hit": false,
      "t": 141214.474000002,
      "d": 203.12527083331952,
      "v": 80
    },
    {
      "midi": 64,
      "hit": false,
      "t": 141214.474000002,
      "d": 203.12527083331952,
      "v": 80
    },
    {
      "midi": 80,
      "hit": false,
      "t": 141283.03499999942,
      "d": 101.33942083333386,
      "v": 96
    },
    {
      "midi": 81,
      "hit": false,
      "t": 141390.17799999943,
      "d": 101.33942083333386,
      "v": 96
    },
    {
      "midi": 47,
      "hit": false,
      "t": 141428.760000002,
      "d": 203.12527083331952,
      "v": 80
    },
    {
      "midi": 82,
      "hit": false,
      "t": 141497.32099999944,
      "d": 101.33942083333386,
      "v": 96
    },
    {
      "midi": 83,
      "hit": false,
      "t": 141604.46399999945,
      "d": 101.33942083333386,
      "v": 96
    },
    {
      "midi": 59,
      "hit": false,
      "t": 141643.04600000198,
      "d": 203.12527083331952,
      "v": 80
    },
    {
      "midi": 62,
      "hit": false,
      "t": 141643.04600000198,
      "d": 203.12527083331952,
      "v": 80
    },
    {
      "midi": 64,
      "hit": false,
      "t": 141643.04600000198,
      "d": 203.12527083331952,
      "v": 80
    },
    {
      "midi": 72,
      "hit": false,
      "t": 141711.60699999947,
      "d": 203.12527083331952,
      "v": 96
    },
    {
      "midi": 84,
      "hit": false,
      "t": 141711.60699999947,
      "d": 203.12527083331952,
      "v": 96
    },
    {
      "midi": 40,
      "hit": false,
      "t": 141857.33200000197,
      "d": 203.12527083331952,
      "v": 80
    },
    {
      "midi": 79,
      "hit": false,
      "t": 141925.89299999946,
      "d": 428.12557083333377,
      "v": 115
    },
    {
      "midi": 84,
      "hit": false,
      "t": 141925.89299999946,
      "d": 428.12557083333377,
      "v": 115
    },
    {
      "midi": 87,
      "hit": false,
      "t": 141925.89299999946,
      "d": 428.12557083333377,
      "v": 115
    },
    {
      "midi": 91,
      "hit": false,
      "t": 141925.89299999946,
      "d": 428.12557083333377,
      "v": 115
    },
    {
      "midi": 44,
      "hit": false,
      "t": 142071.61800000197,
      "d": 203.12527083331952,
      "v": 80
    },
    {
      "midi": 59,
      "hit": false,
      "t": 142071.61800000197,
      "d": 203.12527083331952,
      "v": 80
    },
    {
      "midi": 62,
      "hit": false,
      "t": 142071.61800000197,
      "d": 203.12527083331952,
      "v": 80
    },
    {
      "midi": 64,
      "hit": false,
      "t": 142071.61800000197,
      "d": 203.12527083331952,
      "v": 80
    },
    {
      "midi": 45,
      "hit": false,
      "t": 142285.90400000196,
      "d": 203.12527083331952,
      "v": 80
    },
    {
      "midi": 75,
      "hit": false,
      "t": 142354.46499999947,
      "d": 106.69657083333004,
      "v": 96
    },
    {
      "midi": 84,
      "hit": false,
      "t": 142354.46499999947,
      "d": 106.69657083333004,
      "v": 96
    },
    {
      "midi": 87,
      "hit": false,
      "t": 142354.46499999947,
      "d": 106.69657083333004,
      "v": 96
    },
    {
      "midi": 52,
      "hit": false,
      "t": 142500.19000000195,
      "d": 203.12527083331952,
      "v": 80
    },
    {
      "midi": 57,
      "hit": false,
      "t": 142500.19000000195,
      "d": 203.12527083331952,
      "v": 80
    },
    {
      "midi": 60,
      "hit": false,
      "t": 142500.19000000195,
      "d": 203.12527083331952,
      "v": 80
    },
    {
      "midi": 72,
      "hit": false,
      "t": 142568.75099999947,
      "d": 304.9111208333343,
      "v": 96
    },
    {
      "midi": 84,
      "hit": false,
      "t": 142568.75099999947,
      "d": 304.9111208333343,
      "v": 96
    },
    {
      "midi": 40,
      "hit": false,
      "t": 142714.47600000195,
      "d": 203.12527083331952,
      "v": 80
    },
    {
      "midi": 86,
      "hit": false,
      "t": 142890.17999999947,
      "d": 203.12527083331952,
      "v": 96
    },
    {
      "midi": 52,
      "hit": false,
      "t": 142928.76200000194,
      "d": 203.12527083331952,
      "v": 80
    },
    {
      "midi": 57,
      "hit": false,
      "t": 142928.76200000194,
      "d": 203.12527083331952,
      "v": 80
    },
    {
      "midi": 60,
      "hit": false,
      "t": 142928.76200000194,
      "d": 203.12527083331952,
      "v": 80
    },
    {
      "midi": 85,
      "hit": false,
      "t": 143104.46599999946,
      "d": 101.33942083333386,
      "v": 96
    },
    {
      "midi": 45,
      "hit": false,
      "t": 143143.04800000193,
      "d": 203.12527083331952,
      "v": 80
    },
    {
      "midi": 84,
      "hit": false,
      "t": 143211.60899999947,
      "d": 101.33942083333386,
      "v": 96
    },
    {
      "midi": 82,
      "hit": false,
      "t": 143318.75199999948,
      "d": 101.33942083333386,
      "v": 96
    },
    {
      "midi": 52,
      "hit": false,
      "t": 143357.33400000192,
      "d": 203.12527083331952,
      "v": 80
    },
    {
      "midi": 57,
      "hit": false,
      "t": 143357.33400000192,
      "d": 203.12527083331952,
      "v": 80
    },
    {
      "midi": 60,
      "hit": false,
      "t": 143357.33400000192,
      "d": 203.12527083331952,
      "v": 80
    },
    {
      "midi": 83,
      "hit": false,
      "t": 143425.8949999995,
      "d": 203.12527083331952,
      "v": 96
    },
    {
      "midi": 40,
      "hit": false,
      "t": 143571.62000000192,
      "d": 203.12527083331952,
      "v": 80
    },
    {
      "midi": 74,
      "hit": false,
      "t": 143640.1809999995,
      "d": 203.12527083331952,
      "v": 96
    },
    {
      "midi": 88,
      "hit": false,
      "t": 143640.1809999995,
      "d": 203.12527083331952,
      "v": 96
    },
    {
      "midi": 89,
      "hit": false,
      "t": 143640.1809999995,
      "d": 203.12527083331952,
      "v": 96
    },
    {
      "midi": 52,
      "hit": false,
      "t": 143785.9060000019,
      "d": 203.12527083331952,
      "v": 80
    },
    {
      "midi": 57,
      "hit": false,
      "t": 143785.9060000019,
      "d": 203.12527083331952,
      "v": 80
    },
    {
      "midi": 60,
      "hit": false,
      "t": 143785.9060000019,
      "d": 203.12527083331952,
      "v": 80
    },
    {
      "midi": 88,
      "hit": false,
      "t": 143854.46699999948,
      "d": 101.33942083333386,
      "v": 96
    },
    {
      "midi": 89,
      "hit": false,
      "t": 143854.46699999948,
      "d": 101.33942083333386,
      "v": 96
    },
    {
      "midi": 88,
      "hit": false,
      "t": 143961.6099999995,
      "d": 106.69657083333004,
      "v": 96
    },
    {
      "midi": 89,
      "hit": false,
      "t": 143961.6099999995,
      "d": 106.69657083333004,
      "v": 96
    },
    {
      "midi": 39,
      "hit": false,
      "t": 144000.1920000019,
      "d": 203.12527083331952,
      "v": 80
    },
    {
      "midi": 83,
      "hit": false,
      "t": 144175.89599999948,
      "d": 203.12527083331952,
      "v": 96
    },
    {
      "midi": 51,
      "hit": false,
      "t": 144214.4780000019,
      "d": 203.12527083331952,
      "v": 80
    },
    {
      "midi": 54,
      "hit": false,
      "t": 144214.4780000019,
      "d": 203.12527083331952,
      "v": 80
    },
    {
      "midi": 57,
      "hit": false,
      "t": 144214.4780000019,
      "d": 203.12527083331952,
      "v": 80
    },
    {
      "midi": 59,
      "hit": false,
      "t": 144214.4780000019,
      "d": 203.12527083331952,
      "v": 80
    },
    {
      "midi": 84,
      "hit": false,
      "t": 144390.18199999948,
      "d": 101.33942083333386,
      "v": 96
    },
    {
      "midi": 42,
      "hit": false,
      "t": 144428.7640000019,
      "d": 203.12527083331952,
      "v": 80
    },
    {
      "midi": 83,
      "hit": false,
      "t": 144497.3249999995,
      "d": 101.33942083333386,
      "v": 96
    },
    {
      "midi": 84,
      "hit": false,
      "t": 144604.4679999995,
      "d": 101.33942083333386,
      "v": 96
    },
    {
      "midi": 51,
      "hit": false,
      "t": 144643.05000000188,
      "d": 203.12527083331952,
      "v": 80
    },
    {
      "midi": 54,
      "hit": false,
      "t": 144643.05000000188,
      "d": 203.12527083331952,
      "v": 80
    },
    {
      "midi": 57,
      "hit": false,
      "t": 144643.05000000188,
      "d": 203.12527083331952,
      "v": 80
    },
    {
      "midi": 59,
      "hit": false,
      "t": 144643.05000000188,
      "d": 203.12527083331952,
      "v": 80
    },
    {
      "midi": 83,
      "hit": false,
      "t": 144711.6109999995,
      "d": 101.33942083333386,
      "v": 96
    },
    {
      "midi": 81,
      "hit": false,
      "t": 144818.75399999952,
      "d": 101.33942083333386,
      "v": 96
    },
    {
      "midi": 39,
      "hit": false,
      "t": 144857.33600000187,
      "d": 203.12527083331952,
      "v": 80
    },
    {
      "midi": 67,
      "hit": false,
      "t": 144925.89699999953,
      "d": 101.33942083333386,
      "v": 96
    },
    {
      "midi": 79,
      "hit": false,
      "t": 144925.89699999953,
      "d": 101.33942083333386,
      "v": 96
    },
    {
      "midi": 68,
      "hit": false,
      "t": 145033.03999999954,
      "d": 101.33942083333386,
      "v": 96
    },
    {
      "midi": 80,
      "hit": false,
      "t": 145033.03999999954,
      "d": 101.33942083333386,
      "v": 96
    },
    {
      "midi": 51,
      "hit": false,
      "t": 145071.62200000187,
      "d": 203.12527083331952,
      "v": 80
    },
    {
      "midi": 54,
      "hit": false,
      "t": 145071.62200000187,
      "d": 203.12527083331952,
      "v": 80
    },
    {
      "midi": 57,
      "hit": false,
      "t": 145071.62200000187,
      "d": 203.12527083331952,
      "v": 80
    },
    {
      "midi": 59,
      "hit": false,
      "t": 145071.62200000187,
      "d": 203.12527083331952,
      "v": 80
    },
    {
      "midi": 69,
      "hit": false,
      "t": 145140.18299999955,
      "d": 1162.0551208333345,
      "v": 96
    },
    {
      "midi": 81,
      "hit": false,
      "t": 145140.18299999955,
      "d": 1162.0551208333345,
      "v": 96
    },
    {
      "midi": 39,
      "hit": false,
      "t": 145285.90800000186,
      "d": 203.12527083331952,
      "v": 80
    },
    {
      "midi": 44,
      "hit": false,
      "t": 145500.19400000185,
      "d": 203.12527083331952,
      "v": 80
    },
    {
      "midi": 51,
      "hit": false,
      "t": 145500.19400000185,
      "d": 203.12527083331952,
      "v": 80
    },
    {
      "midi": 54,
      "hit": false,
      "t": 145500.19400000185,
      "d": 203.12527083331952,
      "v": 80
    },
    {
      "midi": 57,
      "hit": false,
      "t": 145500.19400000185,
      "d": 203.12527083331952,
      "v": 80
    },
    {
      "midi": 59,
      "hit": false,
      "t": 145500.19400000185,
      "d": 203.12527083331952,
      "v": 80
    },
    {
      "midi": 45,
      "hit": false,
      "t": 145714.48000000184,
      "d": 203.12527083331952,
      "v": 80
    },
    {
      "midi": 52,
      "hit": false,
      "t": 145928.76600000184,
      "d": 203.12527083331952,
      "v": 80
    },
    {
      "midi": 57,
      "hit": false,
      "t": 145928.76600000184,
      "d": 203.12527083331952,
      "v": 80
    },
    {
      "midi": 60,
      "hit": false,
      "t": 145928.76600000184,
      "d": 203.12527083331952,
      "v": 80
    },
    {
      "midi": 40,
      "hit": false,
      "t": 146143.05200000183,
      "d": 203.12527083331952,
      "v": 80
    },
    {
      "midi": 69,
      "hit": false,
      "t": 146318.75599999956,
      "d": 106.69657083333004,
      "v": 80
    },
    {
      "midi": 81,
      "hit": false,
      "t": 146318.75599999956,
      "d": 106.69657083333004,
      "v": 80
    },
    {
      "midi": 52,
      "hit": false,
      "t": 146357.33800000182,
      "d": 203.12527083331952,
      "v": 80
    },
    {
      "midi": 57,
      "hit": false,
      "t": 146357.33800000182,
      "d": 203.12527083331952,
      "v": 80
    },
    {
      "midi": 60,
      "hit": false,
      "t": 146357.33800000182,
      "d": 203.12527083331952,
      "v": 80
    },
    {
      "midi": 68,
      "hit": false,
      "t": 146533.04199999955,
      "d": 101.33942083333386,
      "v": 80
    },
    {
      "midi": 80,
      "hit": false,
      "t": 146533.04199999955,
      "d": 101.33942083333386,
      "v": 80
    },
    {
      "midi": 45,
      "hit": false,
      "t": 146571.62400000182,
      "d": 203.12527083331952,
      "v": 80
    },
    {
      "midi": 67,
      "hit": false,
      "t": 146640.18499999956,
      "d": 101.33942083333386,
      "v": 80
    },
    {
      "midi": 79,
      "hit": false,
      "t": 146640.18499999956,
      "d": 101.33942083333386,
      "v": 80
    },
    {
      "midi": 69,
      "hit": false,
      "t": 146747.32799999957,
      "d": 101.33942083333386,
      "v": 80
    },
    {
      "midi": 81,
      "hit": false,
      "t": 146747.32799999957,
      "d": 101.33942083333386,
      "v": 80
    },
    {
      "midi": 52,
      "hit": false,
      "t": 146785.9100000018,
      "d": 203.12527083331952,
      "v": 80
    },
    {
      "midi": 57,
      "hit": false,
      "t": 146785.9100000018,
      "d": 203.12527083331952,
      "v": 80
    },
    {
      "midi": 60,
      "hit": false,
      "t": 146785.9100000018,
      "d": 203.12527083331952,
      "v": 80
    },
    {
      "midi": 66,
      "hit": false,
      "t": 146854.47099999958,
      "d": 1070.9835708333412,
      "v": 96
    },
    {
      "midi": 78,
      "hit": false,
      "t": 146854.47099999958,
      "d": 1070.9835708333412,
      "v": 96
    },
    {
      "midi": 40,
      "hit": false,
      "t": 147000.1960000018,
      "d": 203.12527083331952,
      "v": 80
    },
    {
      "midi": 52,
      "hit": false,
      "t": 147214.4820000018,
      "d": 203.12527083331952,
      "v": 80
    },
    {
      "midi": 57,
      "hit": false,
      "t": 147214.4820000018,
      "d": 203.12527083331952,
      "v": 80
    },
    {
      "midi": 60,
      "hit": false,
      "t": 147214.4820000018,
      "d": 203.12527083331952,
      "v": 80
    },
    {
      "midi": 39,
      "hit": false,
      "t": 147428.7680000018,
      "d": 203.12527083331952,
      "v": 80
    },
    {
      "midi": 51,
      "hit": false,
      "t": 147643.05400000178,
      "d": 203.12527083331952,
      "v": 80
    },
    {
      "midi": 54,
      "hit": false,
      "t": 147643.05400000178,
      "d": 203.12527083331952,
      "v": 80
    },
    {
      "midi": 57,
      "hit": false,
      "t": 147643.05400000178,
      "d": 203.12527083331952,
      "v": 80
    },
    {
      "midi": 59,
      "hit": false,
      "t": 147643.05400000178,
      "d": 203.12527083331952,
      "v": 80
    },
    {
      "midi": 42,
      "hit": false,
      "t": 147857.34000000177,
      "d": 203.12527083331952,
      "v": 80
    },
    {
      "midi": 51,
      "hit": false,
      "t": 148071.62600000176,
      "d": 203.12527083331952,
      "v": 80
    },
    {
      "midi": 54,
      "hit": false,
      "t": 148071.62600000176,
      "d": 203.12527083331952,
      "v": 80
    },
    {
      "midi": 57,
      "hit": false,
      "t": 148071.62600000176,
      "d": 203.12527083331952,
      "v": 80
    },
    {
      "midi": 59,
      "hit": false,
      "t": 148071.62600000176,
      "d": 203.12527083331952,
      "v": 80
    },
    {
      "midi": 68,
      "hit": false,
      "t": 148247.32999999958,
      "d": 203.12527083331952,
      "v": 80
    },
    {
      "midi": 80,
      "hit": false,
      "t": 148247.32999999958,
      "d": 203.12527083331952,
      "v": 80
    },
    {
      "midi": 39,
      "hit": false,
      "t": 148285.91200000176,
      "d": 203.12527083331952,
      "v": 80
    },
    {
      "midi": 69,
      "hit": false,
      "t": 148461.61599999957,
      "d": 101.33942083333386,
      "v": 80
    },
    {
      "midi": 81,
      "hit": false,
      "t": 148461.61599999957,
      "d": 101.33942083333386,
      "v": 80
    },
    {
      "midi": 51,
      "hit": false,
      "t": 148500.19800000175,
      "d": 203.12527083331952,
      "v": 80
    },
    {
      "midi": 54,
      "hit": false,
      "t": 148500.19800000175,
      "d": 203.12527083331952,
      "v": 80
    },
    {
      "midi": 57,
      "hit": false,
      "t": 148500.19800000175,
      "d": 203.12527083331952,
      "v": 80
    },
    {
      "midi": 59,
      "hit": false,
      "t": 148500.19800000175,
      "d": 203.12527083331952,
      "v": 80
    },
    {
      "midi": 39,
      "hit": false,
      "t": 148714.48400000174,
      "d": 203.12527083331952,
      "v": 80
    },
    {
      "midi": 87,
      "hit": false,
      "t": 148783.04499999958,
      "d": 304.9111208333343,
      "v": 80
    },
    {
      "midi": 44,
      "hit": false,
      "t": 148928.77000000174,
      "d": 203.12527083331952,
      "v": 80
    },
    {
      "midi": 51,
      "hit": false,
      "t": 148928.77000000174,
      "d": 203.12527083331952,
      "v": 80
    },
    {
      "midi": 54,
      "hit": false,
      "t": 148928.77000000174,
      "d": 203.12527083331952,
      "v": 80
    },
    {
      "midi": 57,
      "hit": false,
      "t": 148928.77000000174,
      "d": 203.12527083331952,
      "v": 80
    },
    {
      "midi": 59,
      "hit": false,
      "t": 148928.77000000174,
      "d": 203.12527083331952,
      "v": 80
    },
    {
      "midi": 88,
      "hit": false,
      "t": 149104.47399999958,
      "d": 106.69657083333004,
      "v": 80
    },
    {
      "midi": 45,
      "hit": false,
      "t": 149143.05600000173,
      "d": 203.12527083331952,
      "v": 80
    },
    {
      "midi": 52,
      "hit": false,
      "t": 149357.34200000172,
      "d": 203.12527083331952,
      "v": 80
    },
    {
      "midi": 57,
      "hit": false,
      "t": 149357.34200000172,
      "d": 203.12527083331952,
      "v": 80
    },
    {
      "midi": 60,
      "hit": false,
      "t": 149357.34200000172,
      "d": 203.12527083331952,
      "v": 80
    },
    {
      "midi": 81,
      "hit": false,
      "t": 149425.90299999958,
      "d": 106.69657083333004,
      "v": 80
    },
    {
      "midi": 40,
      "hit": false,
      "t": 149571.6280000017,
      "d": 203.12527083331952,
      "v": 80
    },
    {
      "midi": 83,
      "hit": false,
      "t": 149747.3319999996,
      "d": 106.69657083333004,
      "v": 80
    },
    {
      "midi": 52,
      "hit": false,
      "t": 149785.9140000017,
      "d": 203.12527083331952,
      "v": 80
    },
    {
      "midi": 57,
      "hit": false,
      "t": 149785.9140000017,
      "d": 203.12527083331952,
      "v": 80
    },
    {
      "midi": 60,
      "hit": false,
      "t": 149785.9140000017,
      "d": 203.12527083331952,
      "v": 80
    },
    {
      "midi": 84,
      "hit": false,
      "t": 149961.61799999958,
      "d": 106.69657083333004,
      "v": 80
    },
    {
      "midi": 45,
      "hit": false,
      "t": 150000.2000000017,
      "d": 203.12527083331952,
      "v": 80
    },
    {
      "midi": 81,
      "hit": false,
      "t": 150175.90399999957,
      "d": 101.33942083333386,
      "v": 80
    },
    {
      "midi": 52,
      "hit": false,
      "t": 150214.4860000017,
      "d": 203.12527083331952,
      "v": 80
    },
    {
      "midi": 57,
      "hit": false,
      "t": 150214.4860000017,
      "d": 203.12527083331952,
      "v": 80
    },
    {
      "midi": 60,
      "hit": false,
      "t": 150214.4860000017,
      "d": 203.12527083331952,
      "v": 80
    },
    {
      "midi": 78,
      "hit": false,
      "t": 150283.04699999958,
      "d": 106.69657083333004,
      "v": 80
    },
    {
      "midi": 40,
      "hit": false,
      "t": 150428.77200000169,
      "d": 203.12527083331952,
      "v": 80
    },
    {
      "midi": 83,
      "hit": false,
      "t": 150497.33299999958,
      "d": 101.33942083333386,
      "v": 80
    },
    {
      "midi": 90,
      "hit": false,
      "t": 150497.33299999958,
      "d": 101.33942083333386,
      "v": 80
    },
    {
      "midi": 95,
      "hit": false,
      "t": 150497.33299999958,
      "d": 101.33942083333386,
      "v": 80
    },
    {
      "midi": 84,
      "hit": false,
      "t": 150604.4759999996,
      "d": 106.69657083333004,
      "v": 80
    },
    {
      "midi": 96,
      "hit": false,
      "t": 150604.4759999996,
      "d": 106.69657083333004,
      "v": 80
    },
    {
      "midi": 52,
      "hit": false,
      "t": 150643.05800000168,
      "d": 203.12527083331952,
      "v": 80
    },
    {
      "midi": 57,
      "hit": false,
      "t": 150643.05800000168,
      "d": 203.12527083331952,
      "v": 80
    },
    {
      "midi": 60,
      "hit": false,
      "t": 150643.05800000168,
      "d": 203.12527083331952,
      "v": 80
    },
    {
      "midi": 83,
      "hit": false,
      "t": 150818.76199999958,
      "d": 101.33942083333386,
      "v": 80
    },
    {
      "midi": 90,
      "hit": false,
      "t": 150818.76199999958,
      "d": 101.33942083333386,
      "v": 80
    },
    {
      "midi": 95,
      "hit": false,
      "t": 150818.76199999958,
      "d": 101.33942083333386,
      "v": 80
    },
    {
      "midi": 47,
      "hit": false,
      "t": 150857.34400000167,
      "d": 203.12527083331952,
      "v": 80
    },
    {
      "midi": 84,
      "hit": false,
      "t": 150925.9049999996,
      "d": 106.69657083333004,
      "v": 80
    },
    {
      "midi": 96,
      "hit": false,
      "t": 150925.9049999996,
      "d": 106.69657083333004,
      "v": 80
    },
    {
      "midi": 52,
      "hit": false,
      "t": 151071.63000000166,
      "d": 203.12527083331952,
      "v": 80
    },
    {
      "midi": 56,
      "hit": false,
      "t": 151071.63000000166,
      "d": 203.12527083331952,
      "v": 80
    },
    {
      "midi": 59,
      "hit": false,
      "t": 151071.63000000166,
      "d": 203.12527083331952,
      "v": 80
    },
    {
      "midi": 62,
      "hit": false,
      "t": 151071.63000000166,
      "d": 203.12527083331952,
      "v": 80
    },
    {
      "midi": 74,
      "hit": false,
      "t": 151140.19099999958,
      "d": 101.33942083333386,
      "v": 80
    },
    {
      "midi": 81,
      "hit": false,
      "t": 151140.19099999958,
      "d": 101.33942083333386,
      "v": 80
    },
    {
      "midi": 86,
      "hit": false,
      "t": 151140.19099999958,
      "d": 101.33942083333386,
      "v": 80
    },
    {
      "midi": 75,
      "hit": false,
      "t": 151247.3339999996,
      "d": 106.69657083333004,
      "v": 80
    },
    {
      "midi": 87,
      "hit": false,
      "t": 151247.3339999996,
      "d": 106.69657083333004,
      "v": 80
    },
    {
      "midi": 40,
      "hit": false,
      "t": 151285.91600000166,
      "d": 203.12527083331952,
      "v": 80
    },
    {
      "midi": 74,
      "hit": false,
      "t": 151461.6199999996,
      "d": 101.33942083333386,
      "v": 80
    },
    {
      "midi": 81,
      "hit": false,
      "t": 151461.6199999996,
      "d": 101.33942083333386,
      "v": 80
    },
    {
      "midi": 86,
      "hit": false,
      "t": 151461.6199999996,
      "d": 101.33942083333386,
      "v": 80
    },
    {
      "midi": 52,
      "hit": false,
      "t": 151500.20200000165,
      "d": 203.12527083331952,
      "v": 80
    },
    {
      "midi": 56,
      "hit": false,
      "t": 151500.20200000165,
      "d": 203.12527083331952,
      "v": 80
    },
    {
      "midi": 59,
      "hit": false,
      "t": 151500.20200000165,
      "d": 203.12527083331952,
      "v": 80
    },
    {
      "midi": 62,
      "hit": false,
      "t": 151500.20200000165,
      "d": 203.12527083331952,
      "v": 80
    },
    {
      "midi": 75,
      "hit": false,
      "t": 151568.7629999996,
      "d": 106.69657083333004,
      "v": 80
    },
    {
      "midi": 87,
      "hit": false,
      "t": 151568.7629999996,
      "d": 106.69657083333004,
      "v": 80
    },
    {
      "midi": 47,
      "hit": false,
      "t": 151714.48800000164,
      "d": 203.12527083331952,
      "v": 80
    },
    {
      "midi": 52,
      "hit": false,
      "t": 151928.77400000163,
      "d": 203.12527083331952,
      "v": 80
    },
    {
      "midi": 56,
      "hit": false,
      "t": 151928.77400000163,
      "d": 203.12527083331952,
      "v": 80
    },
    {
      "midi": 59,
      "hit": false,
      "t": 151928.77400000163,
      "d": 203.12527083331952,
      "v": 80
    },
    {
      "midi": 62,
      "hit": false,
      "t": 151928.77400000163,
      "d": 203.12527083331952,
      "v": 80
    },
    {
      "midi": 47,
      "hit": false,
      "t": 152143.06000000163,
      "d": 203.12527083331952,
      "v": 80
    },
    {
      "midi": 76,
      "hit": false,
      "t": 152211.6209999996,
      "d": 428.12557083333377,
      "v": 115
    },
    {
      "midi": 81,
      "hit": false,
      "t": 152211.6209999996,
      "d": 428.12557083333377,
      "v": 115
    },
    {
      "midi": 88,
      "hit": false,
      "t": 152211.6209999996,
      "d": 428.12557083333377,
      "v": 115
    },
    {
      "midi": 44,
      "hit": false,
      "t": 152357.34600000162,
      "d": 203.12527083331952,
      "v": 80
    },
    {
      "midi": 52,
      "hit": false,
      "t": 152357.34600000162,
      "d": 203.12527083331952,
      "v": 80
    },
    {
      "midi": 56,
      "hit": false,
      "t": 152357.34600000162,
      "d": 203.12527083331952,
      "v": 80
    },
    {
      "midi": 59,
      "hit": false,
      "t": 152357.34600000162,
      "d": 203.12527083331952,
      "v": 80
    },
    {
      "midi": 62,
      "hit": false,
      "t": 152357.34600000162,
      "d": 203.12527083331952,
      "v": 80
    },
    {
      "midi": 45,
      "hit": false,
      "t": 152571.6320000016,
      "d": 203.12527083331952,
      "v": 80
    },
    {
      "midi": 75,
      "hit": false,
      "t": 152640.19299999962,
      "d": 106.69657083333004,
      "v": 96
    },
    {
      "midi": 87,
      "hit": false,
      "t": 152640.19299999962,
      "d": 106.69657083333004,
      "v": 96
    },
    {
      "midi": 52,
      "hit": false,
      "t": 152785.9180000016,
      "d": 203.12527083331952,
      "v": 80
    },
    {
      "midi": 57,
      "hit": false,
      "t": 152785.9180000016,
      "d": 203.12527083331952,
      "v": 80
    },
    {
      "midi": 60,
      "hit": false,
      "t": 152785.9180000016,
      "d": 203.12527083331952,
      "v": 80
    },
    {
      "midi": 71,
      "hit": false,
      "t": 152854.4789999996,
      "d": 101.33942083333386,
      "v": 96
    },
    {
      "midi": 83,
      "hit": false,
      "t": 152854.4789999996,
      "d": 101.33942083333386,
      "v": 96
    },
    {
      "midi": 72,
      "hit": false,
      "t": 152961.62199999962,
      "d": 106.69657083333004,
      "v": 96
    },
    {
      "midi": 84,
      "hit": false,
      "t": 152961.62199999962,
      "d": 106.69657083333004,
      "v": 96
    },
    {
      "midi": 40,
      "hit": false,
      "t": 153000.2040000016,
      "d": 203.12527083331952,
      "v": 80
    },
    {
      "midi": 69,
      "hit": false,
      "t": 153175.90799999962,
      "d": 508.4828208333347,
      "v": 96
    },
    {
      "midi": 76,
      "hit": false,
      "t": 153175.90799999962,
      "d": 508.4828208333347,
      "v": 96
    },
    {
      "midi": 81,
      "hit": false,
      "t": 153175.90799999962,
      "d": 508.4828208333347,
      "v": 96
    },
    {
      "midi": 52,
      "hit": false,
      "t": 153214.4900000016,
      "d": 203.12527083331952,
      "v": 80
    },
    {
      "midi": 57,
      "hit": false,
      "t": 153214.4900000016,
      "d": 203.12527083331952,
      "v": 80
    },
    {
      "midi": 60,
      "hit": false,
      "t": 153214.4900000016,
      "d": 203.12527083331952,
      "v": 80
    },
    {
      "midi": 45,
      "hit": false,
      "t": 153428.77600000158,
      "d": 203.12527083331952,
      "v": 80
    },
    {
      "midi": 52,
      "hit": false,
      "t": 153643.06200000158,
      "d": 203.12527083331952,
      "v": 80
    },
    {
      "midi": 57,
      "hit": false,
      "t": 153643.06200000158,
      "d": 203.12527083331952,
      "v": 80
    },
    {
      "midi": 60,
      "hit": false,
      "t": 153643.06200000158,
      "d": 203.12527083331952,
      "v": 80
    },
    {
      "midi": 71,
      "hit": false,
      "t": 153711.6229999996,
      "d": 101.33942083333386,
      "v": 96
    },
    {
      "midi": 77,
      "hit": false,
      "t": 153711.6229999996,
      "d": 101.33942083333386,
      "v": 96
    },
    {
      "midi": 83,
      "hit": false,
      "t": 153711.6229999996,
      "d": 101.33942083333386,
      "v": 96
    },
    {
      "midi": 71,
      "hit": false,
      "t": 153818.76599999962,
      "d": 101.33942083333386,
      "v": 96
    },
    {
      "midi": 77,
      "hit": false,
      "t": 153818.76599999962,
      "d": 101.33942083333386,
      "v": 96
    },
    {
      "midi": 83,
      "hit": false,
      "t": 153818.76599999962,
      "d": 101.33942083333386,
      "v": 96
    },
    {
      "midi": 40,
      "hit": false,
      "t": 153857.34800000157,
      "d": 203.12527083331952,
      "v": 80
    },
    {
      "midi": 71,
      "hit": false,
      "t": 153925.90899999964,
      "d": 106.69657083333004,
      "v": 96
    },
    {
      "midi": 77,
      "hit": false,
      "t": 153925.90899999964,
      "d": 106.69657083333004,
      "v": 96
    },
    {
      "midi": 83,
      "hit": false,
      "t": 153925.90899999964,
      "d": 106.69657083333004,
      "v": 96
    },
    {
      "midi": 52,
      "hit": false,
      "t": 154071.63400000156,
      "d": 203.12527083331952,
      "v": 80
    },
    {
      "midi": 57,
      "hit": false,
      "t": 154071.63400000156,
      "d": 203.12527083331952,
      "v": 80
    },
    {
      "midi": 60,
      "hit": false,
      "t": 154071.63400000156,
      "d": 203.12527083331952,
      "v": 80
    },
    {
      "midi": 71,
      "hit": false,
      "t": 154140.19499999963,
      "d": 106.69657083333004,
      "v": 96
    },
    {
      "midi": 77,
      "hit": false,
      "t": 154140.19499999963,
      "d": 106.69657083333004,
      "v": 96
    },
    {
      "midi": 83,
      "hit": false,
      "t": 154140.19499999963,
      "d": 106.69657083333004,
      "v": 96
    },
    {
      "midi": 47,
      "hit": false,
      "t": 154285.92000000156,
      "d": 203.12527083331952,
      "v": 80
    },
    {
      "midi": 71,
      "hit": false,
      "t": 154354.48099999962,
      "d": 428.12557083333377,
      "v": 115
    },
    {
      "midi": 74,
      "hit": false,
      "t": 154354.48099999962,
      "d": 428.12557083333377,
      "v": 115
    },
    {
      "midi": 77,
      "hit": false,
      "t": 154354.48099999962,
      "d": 428.12557083333377,
      "v": 115
    },
    {
      "midi": 80,
      "hit": false,
      "t": 154354.48099999962,
      "d": 428.12557083333377,
      "v": 115
    },
    {
      "midi": 52,
      "hit": false,
      "t": 154500.20600000155,
      "d": 203.12527083331952,
      "v": 80
    },
    {
      "midi": 56,
      "hit": false,
      "t": 154500.20600000155,
      "d": 203.12527083331952,
      "v": 80
    },
    {
      "midi": 59,
      "hit": false,
      "t": 154500.20600000155,
      "d": 203.12527083331952,
      "v": 80
    },
    {
      "midi": 62,
      "hit": false,
      "t": 154500.20600000155,
      "d": 203.12527083331952,
      "v": 80
    },
    {
      "midi": 40,
      "hit": false,
      "t": 154714.49200000154,
      "d": 203.12527083331952,
      "v": 80
    },
    {
      "midi": 52,
      "hit": false,
      "t": 154928.77800000153,
      "d": 203.12527083331952,
      "v": 80
    },
    {
      "midi": 56,
      "hit": false,
      "t": 154928.77800000153,
      "d": 203.12527083331952,
      "v": 80
    },
    {
      "midi": 59,
      "hit": false,
      "t": 154928.77800000153,
      "d": 203.12527083331952,
      "v": 80
    },
    {
      "midi": 62,
      "hit": false,
      "t": 154928.77800000153,
      "d": 203.12527083331952,
      "v": 80
    },
    {
      "midi": 65,
      "hit": false,
      "t": 154997.33899999963,
      "d": 203.12527083331952,
      "v": 96
    },
    {
      "midi": 74,
      "hit": false,
      "t": 154997.33899999963,
      "d": 203.12527083331952,
      "v": 96
    },
    {
      "midi": 77,
      "hit": false,
      "t": 154997.33899999963,
      "d": 203.12527083331952,
      "v": 96
    },
    {
      "midi": 47,
      "hit": false,
      "t": 155143.06400000153,
      "d": 203.12527083331952,
      "v": 80
    },
    {
      "midi": 68,
      "hit": false,
      "t": 155211.62499999962,
      "d": 203.12527083331952,
      "v": 96
    },
    {
      "midi": 74,
      "hit": false,
      "t": 155211.62499999962,
      "d": 203.12527083331952,
      "v": 96
    },
    {
      "midi": 80,
      "hit": false,
      "t": 155211.62499999962,
      "d": 203.12527083331952,
      "v": 96
    },
    {
      "midi": 52,
      "hit": false,
      "t": 155357.35000000152,
      "d": 203.12527083331952,
      "v": 80
    },
    {
      "midi": 56,
      "hit": false,
      "t": 155357.35000000152,
      "d": 203.12527083331952,
      "v": 80
    },
    {
      "midi": 59,
      "hit": false,
      "t": 155357.35000000152,
      "d": 203.12527083331952,
      "v": 80
    },
    {
      "midi": 62,
      "hit": false,
      "t": 155357.35000000152,
      "d": 203.12527083331952,
      "v": 80
    },
    {
      "midi": 47,
      "hit": false,
      "t": 155571.6360000015,
      "d": 203.12527083331952,
      "v": 80
    },
    {
      "midi": 76,
      "hit": false,
      "t": 155640.1969999996,
      "d": 428.12557083333377,
      "v": 115
    },
    {
      "midi": 81,
      "hit": false,
      "t": 155640.1969999996,
      "d": 428.12557083333377,
      "v": 115
    },
    {
      "midi": 88,
      "hit": false,
      "t": 155640.1969999996,
      "d": 428.12557083333377,
      "v": 115
    },
    {
      "midi": 44,
      "hit": false,
      "t": 155785.9220000015,
      "d": 203.12527083331952,
      "v": 80
    },
    {
      "midi": 52,
      "hit": false,
      "t": 155785.9220000015,
      "d": 203.12527083331952,
      "v": 80
    },
    {
      "midi": 56,
      "hit": false,
      "t": 155785.9220000015,
      "d": 203.12527083331952,
      "v": 80
    },
    {
      "midi": 59,
      "hit": false,
      "t": 155785.9220000015,
      "d": 203.12527083331952,
      "v": 80
    },
    {
      "midi": 62,
      "hit": false,
      "t": 155785.9220000015,
      "d": 203.12527083331952,
      "v": 80
    },
    {
      "midi": 45,
      "hit": false,
      "t": 156000.2080000015,
      "d": 203.12527083331952,
      "v": 80
    },
    {
      "midi": 75,
      "hit": false,
      "t": 156068.76899999962,
      "d": 106.69657083333004,
      "v": 96
    },
    {
      "midi": 87,
      "hit": false,
      "t": 156068.76899999962,
      "d": 106.69657083333004,
      "v": 96
    },
    {
      "midi": 52,
      "hit": false,
      "t": 156214.4940000015,
      "d": 203.12527083331952,
      "v": 80
    },
    {
      "midi": 57,
      "hit": false,
      "t": 156214.4940000015,
      "d": 203.12527083331952,
      "v": 80
    },
    {
      "midi": 60,
      "hit": false,
      "t": 156214.4940000015,
      "d": 203.12527083331952,
      "v": 80
    },
    {
      "midi": 71,
      "hit": false,
      "t": 156283.05499999961,
      "d": 101.33942083333386,
      "v": 96
    },
    {
      "midi": 83,
      "hit": false,
      "t": 156283.05499999961,
      "d": 101.33942083333386,
      "v": 96
    },
    {
      "midi": 72,
      "hit": false,
      "t": 156390.19799999963,
      "d": 106.69657083333004,
      "v": 96
    },
    {
      "midi": 84,
      "hit": false,
      "t": 156390.19799999963,
      "d": 106.69657083333004,
      "v": 96
    },
    {
      "midi": 40,
      "hit": false,
      "t": 156428.78000000148,
      "d": 203.12527083331952,
      "v": 80
    },
    {
      "midi": 69,
      "hit": false,
      "t": 156604.48399999962,
      "d": 508.4828208333347,
      "v": 96
    },
    {
      "midi": 76,
      "hit": false,
      "t": 156604.48399999962,
      "d": 508.4828208333347,
      "v": 96
    },
    {
      "midi": 81,
      "hit": false,
      "t": 156604.48399999962,
      "d": 508.4828208333347,
      "v": 96
    },
    {
      "midi": 52,
      "hit": false,
      "t": 156643.06600000148,
      "d": 203.12527083331952,
      "v": 80
    },
    {
      "midi": 57,
      "hit": false,
      "t": 156643.06600000148,
      "d": 203.12527083331952,
      "v": 80
    },
    {
      "midi": 60,
      "hit": false,
      "t": 156643.06600000148,
      "d": 203.12527083331952,
      "v": 80
    },
    {
      "midi": 45,
      "hit": false,
      "t": 156857.35200000147,
      "d": 203.12527083331952,
      "v": 80
    },
    {
      "midi": 52,
      "hit": false,
      "t": 157071.63800000146,
      "d": 203.12527083331952,
      "v": 80
    },
    {
      "midi": 57,
      "hit": false,
      "t": 157071.63800000146,
      "d": 203.12527083331952,
      "v": 80
    },
    {
      "midi": 60,
      "hit": false,
      "t": 157071.63800000146,
      "d": 203.12527083331952,
      "v": 80
    },
    {
      "midi": 83,
      "hit": false,
      "t": 157140.19899999961,
      "d": 320.9825708333228,
      "v": 115
    },
    {
      "midi": 86,
      "hit": false,
      "t": 157140.19899999961,
      "d": 320.9825708333228,
      "v": 115
    },
    {
      "midi": 88,
      "hit": false,
      "t": 157140.19899999961,
      "d": 320.9825708333228,
      "v": 115
    },
    {
      "midi": 89,
      "hit": false,
      "t": 157140.19899999961,
      "d": 320.9825708333228,
      "v": 115
    },
    {
      "midi": 40,
      "hit": false,
      "t": 157285.92400000145,
      "d": 203.12527083331952,
      "v": 80
    },
    {
      "midi": 83,
      "hit": false,
      "t": 157461.62799999962,
      "d": 320.9825708333228,
      "v": 115
    },
    {
      "midi": 86,
      "hit": false,
      "t": 157461.62799999962,
      "d": 320.9825708333228,
      "v": 115
    },
    {
      "midi": 88,
      "hit": false,
      "t": 157461.62799999962,
      "d": 320.9825708333228,
      "v": 115
    },
    {
      "midi": 89,
      "hit": false,
      "t": 157461.62799999962,
      "d": 320.9825708333228,
      "v": 115
    },
    {
      "midi": 52,
      "hit": false,
      "t": 157500.21000000145,
      "d": 203.12527083331952,
      "v": 80
    },
    {
      "midi": 57,
      "hit": false,
      "t": 157500.21000000145,
      "d": 203.12527083331952,
      "v": 80
    },
    {
      "midi": 60,
      "hit": false,
      "t": 157500.21000000145,
      "d": 203.12527083331952,
      "v": 80
    },
    {
      "midi": 47,
      "hit": false,
      "t": 157714.49600000144,
      "d": 203.12527083331952,
      "v": 80
    },
    {
      "midi": 83,
      "hit": false,
      "t": 157783.05699999962,
      "d": 304.9111208333343,
      "v": 96
    },
    {
      "midi": 86,
      "hit": false,
      "t": 157783.05699999962,
      "d": 304.9111208333343,
      "v": 96
    },
    {
      "midi": 88,
      "hit": false,
      "t": 157783.05699999962,
      "d": 304.9111208333343,
      "v": 96
    },
    {
      "midi": 89,
      "hit": false,
      "t": 157783.05699999962,
      "d": 304.9111208333343,
      "v": 96
    },
    {
      "midi": 52,
      "hit": false,
      "t": 157928.78200000143,
      "d": 203.12527083331952,
      "v": 80
    },
    {
      "midi": 56,
      "hit": false,
      "t": 157928.78200000143,
      "d": 203.12527083331952,
      "v": 80
    },
    {
      "midi": 59,
      "hit": false,
      "t": 157928.78200000143,
      "d": 203.12527083331952,
      "v": 80
    },
    {
      "midi": 62,
      "hit": false,
      "t": 157928.78200000143,
      "d": 203.12527083331952,
      "v": 80
    },
    {
      "midi": 83,
      "hit": false,
      "t": 158104.48599999963,
      "d": 320.9825708333228,
      "v": 115
    },
    {
      "midi": 86,
      "hit": false,
      "t": 158104.48599999963,
      "d": 320.9825708333228,
      "v": 115
    },
    {
      "midi": 88,
      "hit": false,
      "t": 158104.48599999963,
      "d": 320.9825708333228,
      "v": 115
    },
    {
      "midi": 89,
      "hit": false,
      "t": 158104.48599999963,
      "d": 320.9825708333228,
      "v": 115
    },
    {
      "midi": 40,
      "hit": false,
      "t": 158143.06800000143,
      "d": 203.12527083331952,
      "v": 80
    },
    {
      "midi": 52,
      "hit": false,
      "t": 158357.35400000142,
      "d": 203.12527083331952,
      "v": 80
    },
    {
      "midi": 56,
      "hit": false,
      "t": 158357.35400000142,
      "d": 203.12527083331952,
      "v": 80
    },
    {
      "midi": 59,
      "hit": false,
      "t": 158357.35400000142,
      "d": 203.12527083331952,
      "v": 80
    },
    {
      "midi": 62,
      "hit": false,
      "t": 158357.35400000142,
      "d": 203.12527083331952,
      "v": 80
    },
    {
      "midi": 83,
      "hit": false,
      "t": 158425.91499999963,
      "d": 428.12557083333377,
      "v": 115
    },
    {
      "midi": 86,
      "hit": false,
      "t": 158425.91499999963,
      "d": 428.12557083333377,
      "v": 115
    },
    {
      "midi": 88,
      "hit": false,
      "t": 158425.91499999963,
      "d": 428.12557083333377,
      "v": 115
    },
    {
      "midi": 47,
      "hit": false,
      "t": 158571.6400000014,
      "d": 203.12527083331952,
      "v": 80
    },
    {
      "midi": 52,
      "hit": false,
      "t": 158785.9260000014,
      "d": 203.12527083331952,
      "v": 80
    },
    {
      "midi": 56,
      "hit": false,
      "t": 158785.9260000014,
      "d": 203.12527083331952,
      "v": 80
    },
    {
      "midi": 59,
      "hit": false,
      "t": 158785.9260000014,
      "d": 203.12527083331952,
      "v": 80
    },
    {
      "midi": 62,
      "hit": false,
      "t": 158785.9260000014,
      "d": 203.12527083331952,
      "v": 80
    },
    {
      "midi": 47,
      "hit": false,
      "t": 159000.2120000014,
      "d": 203.12527083331952,
      "v": 80
    },
    {
      "midi": 76,
      "hit": false,
      "t": 159068.77299999964,
      "d": 428.12557083333377,
      "v": 115
    },
    {
      "midi": 81,
      "hit": false,
      "t": 159068.77299999964,
      "d": 428.12557083333377,
      "v": 115
    },
    {
      "midi": 88,
      "hit": false,
      "t": 159068.77299999964,
      "d": 428.12557083333377,
      "v": 115
    },
    {
      "midi": 44,
      "hit": false,
      "t": 159214.4980000014,
      "d": 203.12527083331952,
      "v": 80
    },
    {
      "midi": 52,
      "hit": false,
      "t": 159214.4980000014,
      "d": 203.12527083331952,
      "v": 80
    },
    {
      "midi": 56,
      "hit": false,
      "t": 159214.4980000014,
      "d": 203.12527083331952,
      "v": 80
    },
    {
      "midi": 59,
      "hit": false,
      "t": 159214.4980000014,
      "d": 203.12527083331952,
      "v": 80
    },
    {
      "midi": 62,
      "hit": false,
      "t": 159214.4980000014,
      "d": 203.12527083331952,
      "v": 80
    },
    {
      "midi": 45,
      "hit": false,
      "t": 159428.78400000138,
      "d": 203.12527083331952,
      "v": 80
    },
    {
      "midi": 75,
      "hit": false,
      "t": 159497.34499999965,
      "d": 106.69657083333004,
      "v": 96
    },
    {
      "midi": 87,
      "hit": false,
      "t": 159497.34499999965,
      "d": 106.69657083333004,
      "v": 96
    },
    {
      "midi": 52,
      "hit": false,
      "t": 159643.07000000137,
      "d": 203.12527083331952,
      "v": 80
    },
    {
      "midi": 57,
      "hit": false,
      "t": 159643.07000000137,
      "d": 203.12527083331952,
      "v": 80
    },
    {
      "midi": 60,
      "hit": false,
      "t": 159643.07000000137,
      "d": 203.12527083331952,
      "v": 80
    },
    {
      "midi": 71,
      "hit": false,
      "t": 159711.63099999964,
      "d": 101.33942083333386,
      "v": 96
    },
    {
      "midi": 83,
      "hit": false,
      "t": 159711.63099999964,
      "d": 101.33942083333386,
      "v": 96
    },
    {
      "midi": 72,
      "hit": false,
      "t": 159818.77399999966,
      "d": 106.69657083333004,
      "v": 96
    },
    {
      "midi": 84,
      "hit": false,
      "t": 159818.77399999966,
      "d": 106.69657083333004,
      "v": 96
    },
    {
      "midi": 40,
      "hit": false,
      "t": 159857.35600000137,
      "d": 203.12527083331952,
      "v": 80
    },
    {
      "midi": 69,
      "hit": false,
      "t": 160033.05999999965,
      "d": 508.4828208333347,
      "v": 96
    },
    {
      "midi": 76,
      "hit": false,
      "t": 160033.05999999965,
      "d": 508.4828208333347,
      "v": 96
    },
    {
      "midi": 81,
      "hit": false,
      "t": 160033.05999999965,
      "d": 508.4828208333347,
      "v": 96
    },
    {
      "midi": 52,
      "hit": false,
      "t": 160071.64200000136,
      "d": 203.12527083331952,
      "v": 80
    },
    {
      "midi": 57,
      "hit": false,
      "t": 160071.64200000136,
      "d": 203.12527083331952,
      "v": 80
    },
    {
      "midi": 60,
      "hit": false,
      "t": 160071.64200000136,
      "d": 203.12527083331952,
      "v": 80
    },
    {
      "midi": 45,
      "hit": false,
      "t": 160285.92800000135,
      "d": 203.12527083331952,
      "v": 80
    },
    {
      "midi": 52,
      "hit": false,
      "t": 160500.21400000135,
      "d": 203.12527083331952,
      "v": 80
    },
    {
      "midi": 57,
      "hit": false,
      "t": 160500.21400000135,
      "d": 203.12527083331952,
      "v": 80
    },
    {
      "midi": 60,
      "hit": false,
      "t": 160500.21400000135,
      "d": 203.12527083331952,
      "v": 80
    },
    {
      "midi": 71,
      "hit": false,
      "t": 160568.77499999964,
      "d": 101.33942083333386,
      "v": 96
    },
    {
      "midi": 77,
      "hit": false,
      "t": 160568.77499999964,
      "d": 101.33942083333386,
      "v": 96
    },
    {
      "midi": 83,
      "hit": false,
      "t": 160568.77499999964,
      "d": 101.33942083333386,
      "v": 96
    },
    {
      "midi": 71,
      "hit": false,
      "t": 160675.91799999966,
      "d": 101.33942083333386,
      "v": 96
    },
    {
      "midi": 77,
      "hit": false,
      "t": 160675.91799999966,
      "d": 101.33942083333386,
      "v": 96
    },
    {
      "midi": 83,
      "hit": false,
      "t": 160675.91799999966,
      "d": 101.33942083333386,
      "v": 96
    },
    {
      "midi": 40,
      "hit": false,
      "t": 160714.50000000134,
      "d": 203.12527083331952,
      "v": 80
    },
    {
      "midi": 71,
      "hit": false,
      "t": 160783.06099999967,
      "d": 106.69657083333004,
      "v": 96
    },
    {
      "midi": 77,
      "hit": false,
      "t": 160783.06099999967,
      "d": 106.69657083333004,
      "v": 96
    },
    {
      "midi": 83,
      "hit": false,
      "t": 160783.06099999967,
      "d": 106.69657083333004,
      "v": 96
    },
    {
      "midi": 47,
      "hit": false,
      "t": 160928.78600000133,
      "d": 203.12527083331952,
      "v": 80
    },
    {
      "midi": 52,
      "hit": false,
      "t": 160928.78600000133,
      "d": 203.12527083331952,
      "v": 80
    },
    {
      "midi": 57,
      "hit": false,
      "t": 160928.78600000133,
      "d": 203.12527083331952,
      "v": 80
    },
    {
      "midi": 60,
      "hit": false,
      "t": 160928.78600000133,
      "d": 203.12527083331952,
      "v": 80
    },
    {
      "midi": 71,
      "hit": false,
      "t": 160997.34699999966,
      "d": 106.69657083333004,
      "v": 96
    },
    {
      "midi": 77,
      "hit": false,
      "t": 160997.34699999966,
      "d": 106.69657083333004,
      "v": 96
    },
    {
      "midi": 83,
      "hit": false,
      "t": 160997.34699999966,
      "d": 106.69657083333004,
      "v": 96
    },
    {
      "midi": 48,
      "hit": false,
      "t": 161143.07200000132,
      "d": 203.12527083331952,
      "v": 64
    },
    {
      "midi": 69,
      "hit": false,
      "t": 161211.63299999965,
      "d": 428.12557083333377,
      "v": 115
    },
    {
      "midi": 71,
      "hit": false,
      "t": 161211.63299999965,
      "d": 428.12557083333377,
      "v": 115
    },
    {
      "midi": 76,
      "hit": false,
      "t": 161211.63299999965,
      "d": 428.12557083333377,
      "v": 115
    },
    {
      "midi": 77,
      "hit": false,
      "t": 161211.63299999965,
      "d": 428.12557083333377,
      "v": 115
    },
    {
      "midi": 52,
      "hit": false,
      "t": 161357.35800000132,
      "d": 203.12527083331952,
      "v": 64
    },
    {
      "midi": 58,
      "hit": false,
      "t": 161357.35800000132,
      "d": 203.12527083331952,
      "v": 64
    },
    {
      "midi": 60,
      "hit": false,
      "t": 161357.35800000132,
      "d": 203.12527083331952,
      "v": 64
    },
    {
      "midi": 43,
      "hit": false,
      "t": 161571.6440000013,
      "d": 203.12527083331952,
      "v": 64
    },
    {
      "midi": 52,
      "hit": false,
      "t": 161785.9300000013,
      "d": 203.12527083331952,
      "v": 64
    },
    {
      "midi": 58,
      "hit": false,
      "t": 161785.9300000013,
      "d": 203.12527083331952,
      "v": 64
    },
    {
      "midi": 60,
      "hit": false,
      "t": 161785.9300000013,
      "d": 203.12527083331952,
      "v": 64
    },
    {
      "midi": 65,
      "hit": false,
      "t": 161854.49099999966,
      "d": 203.12527083331952,
      "v": 96
    },
    {
      "midi": 74,
      "hit": false,
      "t": 161854.49099999966,
      "d": 203.12527083331952,
      "v": 96
    },
    {
      "midi": 77,
      "hit": false,
      "t": 161854.49099999966,
      "d": 203.12527083331952,
      "v": 96
    },
    {
      "midi": 48,
      "hit": false,
      "t": 162000.2160000013,
      "d": 203.12527083331952,
      "v": 64
    },
    {
      "midi": 68,
      "hit": false,
      "t": 162068.77699999965,
      "d": 203.12527083331952,
      "v": 96
    },
    {
      "midi": 74,
      "hit": false,
      "t": 162068.77699999965,
      "d": 203.12527083331952,
      "v": 96
    },
    {
      "midi": 80,
      "hit": false,
      "t": 162068.77699999965,
      "d": 203.12527083331952,
      "v": 96
    },
    {
      "midi": 52,
      "hit": false,
      "t": 162214.5020000013,
      "d": 203.12527083331952,
      "v": 64
    },
    {
      "midi": 58,
      "hit": false,
      "t": 162214.5020000013,
      "d": 203.12527083331952,
      "v": 64
    },
    {
      "midi": 60,
      "hit": false,
      "t": 162214.5020000013,
      "d": 203.12527083331952,
      "v": 64
    },
    {
      "midi": 69,
      "hit": false,
      "t": 162283.06299999965,
      "d": 101.33942083333386,
      "v": 80
    },
    {
      "midi": 81,
      "hit": false,
      "t": 162283.06299999965,
      "d": 101.33942083333386,
      "v": 80
    },
    {
      "midi": 66,
      "hit": false,
      "t": 162390.20599999966,
      "d": 101.33942083333386,
      "v": 80
    },
    {
      "midi": 78,
      "hit": false,
      "t": 162390.20599999966,
      "d": 101.33942083333386,
      "v": 80
    },
    {
      "midi": 48,
      "hit": false,
      "t": 162428.78800000128,
      "d": 203.12527083331952,
      "v": 64
    },
    {
      "midi": 67,
      "hit": false,
      "t": 162497.34899999967,
      "d": 101.33942083333386,
      "v": 80
    },
    {
      "midi": 79,
      "hit": false,
      "t": 162497.34899999967,
      "d": 101.33942083333386,
      "v": 80
    },
    {
      "midi": 69,
      "hit": false,
      "t": 162604.49199999968,
      "d": 106.69657083333004,
      "v": 80
    },
    {
      "midi": 81,
      "hit": false,
      "t": 162604.49199999968,
      "d": 106.69657083333004,
      "v": 80
    },
    {
      "midi": 43,
      "hit": false,
      "t": 162643.07400000127,
      "d": 203.12527083331952,
      "v": 64
    },
    {
      "midi": 52,
      "hit": false,
      "t": 162643.07400000127,
      "d": 203.12527083331952,
      "v": 64
    },
    {
      "midi": 58,
      "hit": false,
      "t": 162643.07400000127,
      "d": 203.12527083331952,
      "v": 64
    },
    {
      "midi": 60,
      "hit": false,
      "t": 162643.07400000127,
      "d": 203.12527083331952,
      "v": 64
    },
    {
      "midi": 69,
      "hit": false,
      "t": 162818.77799999967,
      "d": 101.33942083333386,
      "v": 80
    },
    {
      "midi": 81,
      "hit": false,
      "t": 162818.77799999967,
      "d": 101.33942083333386,
      "v": 80
    },
    {
      "midi": 41,
      "hit": false,
      "t": 162857.36000000127,
      "d": 203.12527083331952,
      "v": 64
    },
    {
      "midi": 66,
      "hit": false,
      "t": 162925.92099999968,
      "d": 101.33942083333386,
      "v": 80
    },
    {
      "midi": 78,
      "hit": false,
      "t": 162925.92099999968,
      "d": 101.33942083333386,
      "v": 80
    },
    {
      "midi": 67,
      "hit": false,
      "t": 163033.0639999997,
      "d": 101.33942083333386,
      "v": 80
    },
    {
      "midi": 79,
      "hit": false,
      "t": 163033.0639999997,
      "d": 101.33942083333386,
      "v": 80
    },
    {
      "midi": 53,
      "hit": false,
      "t": 163071.64600000126,
      "d": 203.12527083331952,
      "v": 64
    },
    {
      "midi": 56,
      "hit": false,
      "t": 163071.64600000126,
      "d": 203.12527083331952,
      "v": 64
    },
    {
      "midi": 60,
      "hit": false,
      "t": 163071.64600000126,
      "d": 203.12527083331952,
      "v": 64
    },
    {
      "midi": 69,
      "hit": false,
      "t": 163140.2069999997,
      "d": 101.33942083333386,
      "v": 80
    },
    {
      "midi": 81,
      "hit": false,
      "t": 163140.2069999997,
      "d": 101.33942083333386,
      "v": 80
    },
    {
      "midi": 66,
      "hit": false,
      "t": 163247.34999999971,
      "d": 101.33942083333386,
      "v": 80
    },
    {
      "midi": 78,
      "hit": false,
      "t": 163247.34999999971,
      "d": 101.33942083333386,
      "v": 80
    },
    {
      "midi": 36,
      "hit": false,
      "t": 163285.93200000125,
      "d": 203.12527083331952,
      "v": 64
    },
    {
      "midi": 67,
      "hit": false,
      "t": 163354.49299999973,
      "d": 101.33942083333386,
      "v": 80
    },
    {
      "midi": 79,
      "hit": false,
      "t": 163354.49299999973,
      "d": 101.33942083333386,
      "v": 80
    },
    {
      "midi": 69,
      "hit": false,
      "t": 163461.63599999974,
      "d": 106.69657083333004,
      "v": 80
    },
    {
      "midi": 81,
      "hit": false,
      "t": 163461.63599999974,
      "d": 106.69657083333004,
      "v": 80
    },
    {
      "midi": 53,
      "hit": false,
      "t": 163500.21800000124,
      "d": 203.12527083331952,
      "v": 64
    },
    {
      "midi": 56,
      "hit": false,
      "t": 163500.21800000124,
      "d": 203.12527083331952,
      "v": 64
    },
    {
      "midi": 60,
      "hit": false,
      "t": 163500.21800000124,
      "d": 203.12527083331952,
      "v": 64
    },
    {
      "midi": 69,
      "hit": false,
      "t": 163675.92199999973,
      "d": 101.33942083333386,
      "v": 80
    },
    {
      "midi": 81,
      "hit": false,
      "t": 163675.92199999973,
      "d": 101.33942083333386,
      "v": 80
    },
    {
      "midi": 41,
      "hit": false,
      "t": 163714.50400000124,
      "d": 203.12527083331952,
      "v": 64
    },
    {
      "midi": 70,
      "hit": false,
      "t": 163783.06499999974,
      "d": 101.33942083333386,
      "v": 80
    },
    {
      "midi": 82,
      "hit": false,
      "t": 163783.06499999974,
      "d": 101.33942083333386,
      "v": 80
    },
    {
      "midi": 71,
      "hit": false,
      "t": 163890.20799999975,
      "d": 101.33942083333386,
      "v": 80
    },
    {
      "midi": 83,
      "hit": false,
      "t": 163890.20799999975,
      "d": 101.33942083333386,
      "v": 80
    },
    {
      "midi": 53,
      "hit": false,
      "t": 163928.79000000123,
      "d": 203.12527083331952,
      "v": 64
    },
    {
      "midi": 56,
      "hit": false,
      "t": 163928.79000000123,
      "d": 203.12527083331952,
      "v": 64
    },
    {
      "midi": 60,
      "hit": false,
      "t": 163928.79000000123,
      "d": 203.12527083331952,
      "v": 64
    },
    {
      "midi": 72,
      "hit": false,
      "t": 163997.35099999976,
      "d": 101.33942083333386,
      "v": 64
    },
    {
      "midi": 84,
      "hit": false,
      "t": 163997.35099999976,
      "d": 101.33942083333386,
      "v": 64
    },
    {
      "midi": 70,
      "hit": false,
      "t": 164104.49399999977,
      "d": 101.33942083333386,
      "v": 64
    },
    {
      "midi": 82,
      "hit": false,
      "t": 164104.49399999977,
      "d": 101.33942083333386,
      "v": 64
    },
    {
      "midi": 36,
      "hit": false,
      "t": 164143.07600000122,
      "d": 203.12527083331952,
      "v": 64
    },
    {
      "midi": 71,
      "hit": false,
      "t": 164211.63699999978,
      "d": 101.33942083333386,
      "v": 64
    },
    {
      "midi": 83,
      "hit": false,
      "t": 164211.63699999978,
      "d": 101.33942083333386,
      "v": 64
    },
    {
      "midi": 72,
      "hit": false,
      "t": 164318.7799999998,
      "d": 106.69657083333004,
      "v": 64
    },
    {
      "midi": 84,
      "hit": false,
      "t": 164318.7799999998,
      "d": 106.69657083333004,
      "v": 64
    },
    {
      "midi": 41,
      "hit": false,
      "t": 164357.36200000122,
      "d": 203.12527083331952,
      "v": 64
    },
    {
      "midi": 53,
      "hit": false,
      "t": 164357.36200000122,
      "d": 203.12527083331952,
      "v": 64
    },
    {
      "midi": 56,
      "hit": false,
      "t": 164357.36200000122,
      "d": 203.12527083331952,
      "v": 64
    },
    {
      "midi": 60,
      "hit": false,
      "t": 164357.36200000122,
      "d": 203.12527083331952,
      "v": 64
    },
    {
      "midi": 69,
      "hit": false,
      "t": 164533.0659999998,
      "d": 101.33942083333386,
      "v": 64
    },
    {
      "midi": 81,
      "hit": false,
      "t": 164533.0659999998,
      "d": 101.33942083333386,
      "v": 64
    },
    {
      "midi": 43,
      "hit": false,
      "t": 164571.6480000012,
      "d": 203.12527083331952,
      "v": 96
    },
    {
      "midi": 70,
      "hit": false,
      "t": 164640.2089999998,
      "d": 101.33942083333386,
      "v": 64
    },
    {
      "midi": 82,
      "hit": false,
      "t": 164640.2089999998,
      "d": 101.33942083333386,
      "v": 64
    },
    {
      "midi": 71,
      "hit": false,
      "t": 164747.3519999998,
      "d": 101.33942083333386,
      "v": 64
    },
    {
      "midi": 83,
      "hit": false,
      "t": 164747.3519999998,
      "d": 101.33942083333386,
      "v": 64
    },
    {
      "midi": 52,
      "hit": false,
      "t": 164785.9340000012,
      "d": 203.12527083331952,
      "v": 96
    },
    {
      "midi": 55,
      "hit": false,
      "t": 164785.9340000012,
      "d": 203.12527083331952,
      "v": 96
    },
    {
      "midi": 58,
      "hit": false,
      "t": 164785.9340000012,
      "d": 203.12527083331952,
      "v": 96
    },
    {
      "midi": 61,
      "hit": false,
      "t": 164785.9340000012,
      "d": 203.12527083331952,
      "v": 96
    },
    {
      "midi": 72,
      "hit": false,
      "t": 164854.49499999982,
      "d": 101.33942083333386,
      "v": 64
    },
    {
      "midi": 84,
      "hit": false,
      "t": 164854.49499999982,
      "d": 101.33942083333386,
      "v": 64
    },
    {
      "midi": 70,
      "hit": false,
      "t": 164961.63799999983,
      "d": 101.33942083333386,
      "v": 64
    },
    {
      "midi": 82,
      "hit": false,
      "t": 164961.63799999983,
      "d": 101.33942083333386,
      "v": 64
    },
    {
      "midi": 36,
      "hit": false,
      "t": 165000.2200000012,
      "d": 203.12527083331952,
      "v": 96
    },
    {
      "midi": 71,
      "hit": false,
      "t": 165068.78099999984,
      "d": 101.33942083333386,
      "v": 64
    },
    {
      "midi": 83,
      "hit": false,
      "t": 165068.78099999984,
      "d": 101.33942083333386,
      "v": 64
    },
    {
      "midi": 72,
      "hit": false,
      "t": 165175.92399999985,
      "d": 106.69657083333004,
      "v": 64
    },
    {
      "midi": 84,
      "hit": false,
      "t": 165175.92399999985,
      "d": 106.69657083333004,
      "v": 64
    },
    {
      "midi": 52,
      "hit": false,
      "t": 165214.5060000012,
      "d": 203.12527083331952,
      "v": 96
    },
    {
      "midi": 55,
      "hit": false,
      "t": 165214.5060000012,
      "d": 203.12527083331952,
      "v": 96
    },
    {
      "midi": 58,
      "hit": false,
      "t": 165214.5060000012,
      "d": 203.12527083331952,
      "v": 96
    },
    {
      "midi": 61,
      "hit": false,
      "t": 165214.5060000012,
      "d": 203.12527083331952,
      "v": 96
    },
    {
      "midi": 86,
      "hit": false,
      "t": 165390.20999999985,
      "d": 101.33942083333386,
      "v": 64
    },
    {
      "midi": 43,
      "hit": false,
      "t": 165428.79200000118,
      "d": 203.12527083331952,
      "v": 96
    },
    {
      "midi": 87,
      "hit": false,
      "t": 165497.35299999986,
      "d": 101.33942083333386,
      "v": 64
    },
    {
      "midi": 88,
      "hit": false,
      "t": 165604.49599999987,
      "d": 101.33942083333386,
      "v": 64
    },
    {
      "midi": 52,
      "hit": false,
      "t": 165643.07800000117,
      "d": 203.12527083331952,
      "v": 96
    },
    {
      "midi": 55,
      "hit": false,
      "t": 165643.07800000117,
      "d": 203.12527083331952,
      "v": 96
    },
    {
      "midi": 58,
      "hit": false,
      "t": 165643.07800000117,
      "d": 203.12527083331952,
      "v": 96
    },
    {
      "midi": 61,
      "hit": false,
      "t": 165643.07800000117,
      "d": 203.12527083331952,
      "v": 96
    },
    {
      "midi": 77,
      "hit": false,
      "t": 165711.63899999988,
      "d": 203.12527083331952,
      "v": 64
    },
    {
      "midi": 88,
      "hit": false,
      "t": 165711.63899999988,
      "d": 203.12527083331952,
      "v": 64
    },
    {
      "midi": 89,
      "hit": false,
      "t": 165711.63899999988,
      "d": 203.12527083331952,
      "v": 64
    },
    {
      "midi": 48,
      "hit": false,
      "t": 165857.36400000117,
      "d": 203.12527083331952,
      "v": 96
    },
    {
      "midi": 83,
      "hit": false,
      "t": 165925.92499999987,
      "d": 106.69657083333004,
      "v": 64
    },
    {
      "midi": 84,
      "hit": false,
      "t": 165925.92499999987,
      "d": 106.69657083333004,
      "v": 64
    },
    {
      "midi": 43,
      "hit": false,
      "t": 166071.65000000116,
      "d": 203.12527083331952,
      "v": 96
    },
    {
      "midi": 52,
      "hit": false,
      "t": 166071.65000000116,
      "d": 203.12527083331952,
      "v": 96
    },
    {
      "midi": 55,
      "hit": false,
      "t": 166071.65000000116,
      "d": 203.12527083331952,
      "v": 96
    },
    {
      "midi": 58,
      "hit": false,
      "t": 166071.65000000116,
      "d": 203.12527083331952,
      "v": 96
    },
    {
      "midi": 61,
      "hit": false,
      "t": 166071.65000000116,
      "d": 203.12527083331952,
      "v": 96
    },
    {
      "midi": 79,
      "hit": false,
      "t": 166140.21099999986,
      "d": 106.69657083333004,
      "v": 64
    },
    {
      "midi": 80,
      "hit": false,
      "t": 166140.21099999986,
      "d": 106.69657083333004,
      "v": 64
    },
    {
      "midi": 43,
      "hit": false,
      "t": 166285.93600000115,
      "d": 203.12527083331952,
      "v": 64
    },
    {
      "midi": 76,
      "hit": false,
      "t": 166354.49699999986,
      "d": 106.69657083333004,
      "v": 64
    },
    {
      "midi": 77,
      "hit": false,
      "t": 166354.49699999986,
      "d": 106.69657083333004,
      "v": 64
    },
    {
      "midi": 53,
      "hit": false,
      "t": 166500.22200000114,
      "d": 203.12527083331952,
      "v": 64
    },
    {
      "midi": 56,
      "hit": false,
      "t": 166500.22200000114,
      "d": 203.12527083331952,
      "v": 64
    },
    {
      "midi": 60,
      "hit": false,
      "t": 166500.22200000114,
      "d": 203.12527083331952,
      "v": 64
    },
    {
      "midi": 79,
      "hit": false,
      "t": 166568.78299999985,
      "d": 101.33942083333386,
      "v": 64
    },
    {
      "midi": 80,
      "hit": false,
      "t": 166568.78299999985,
      "d": 101.33942083333386,
      "v": 64
    },
    {
      "midi": 82,
      "hit": false,
      "t": 166675.92599999986,
      "d": 106.69657083333004,
      "v": 64
    },
    {
      "midi": 36,
      "hit": false,
      "t": 166714.50800000114,
      "d": 203.12527083331952,
      "v": 64
    },
    {
      "midi": 79,
      "hit": false,
      "t": 166890.21199999985,
      "d": 508.4828208333347,
      "v": 64
    },
    {
      "midi": 80,
      "hit": false,
      "t": 166890.21199999985,
      "d": 508.4828208333347,
      "v": 64
    },
    {
      "midi": 53,
      "hit": false,
      "t": 166928.79400000113,
      "d": 203.12527083331952,
      "v": 64
    },
    {
      "midi": 56,
      "hit": false,
      "t": 166928.79400000113,
      "d": 203.12527083331952,
      "v": 64
    },
    {
      "midi": 60,
      "hit": false,
      "t": 166928.79400000113,
      "d": 203.12527083331952,
      "v": 64
    },
    {
      "midi": 41,
      "hit": false,
      "t": 167143.08000000112,
      "d": 203.12527083331952,
      "v": 64
    },
    {
      "midi": 53,
      "hit": false,
      "t": 167357.36600000112,
      "d": 203.12527083331952,
      "v": 64
    },
    {
      "midi": 56,
      "hit": false,
      "t": 167357.36600000112,
      "d": 203.12527083331952,
      "v": 64
    },
    {
      "midi": 60,
      "hit": false,
      "t": 167357.36600000112,
      "d": 203.12527083331952,
      "v": 64
    },
    {
      "midi": 75,
      "hit": false,
      "t": 167533.06999999986,
      "d": 101.33942083333386,
      "v": 96
    },
    {
      "midi": 81,
      "hit": false,
      "t": 167533.06999999986,
      "d": 101.33942083333386,
      "v": 96
    },
    {
      "midi": 36,
      "hit": false,
      "t": 167571.6520000011,
      "d": 203.12527083331952,
      "v": 64
    },
    {
      "midi": 76,
      "hit": false,
      "t": 167640.21299999987,
      "d": 101.33942083333386,
      "v": 96
    },
    {
      "midi": 82,
      "hit": false,
      "t": 167640.21299999987,
      "d": 101.33942083333386,
      "v": 96
    },
    {
      "midi": 75,
      "hit": false,
      "t": 167747.35599999988,
      "d": 101.33942083333386,
      "v": 96
    },
    {
      "midi": 81,
      "hit": false,
      "t": 167747.35599999988,
      "d": 101.33942083333386,
      "v": 96
    },
    {
      "midi": 41,
      "hit": false,
      "t": 167785.9380000011,
      "d": 203.12527083331952,
      "v": 64
    },
    {
      "midi": 53,
      "hit": false,
      "t": 167785.9380000011,
      "d": 203.12527083331952,
      "v": 64
    },
    {
      "midi": 56,
      "hit": false,
      "t": 167785.9380000011,
      "d": 203.12527083331952,
      "v": 64
    },
    {
      "midi": 60,
      "hit": false,
      "t": 167785.9380000011,
      "d": 203.12527083331952,
      "v": 64
    },
    {
      "midi": 76,
      "hit": false,
      "t": 167854.4989999999,
      "d": 101.33942083333386,
      "v": 96
    },
    {
      "midi": 82,
      "hit": false,
      "t": 167854.4989999999,
      "d": 101.33942083333386,
      "v": 96
    },
    {
      "midi": 75,
      "hit": false,
      "t": 167961.6419999999,
      "d": 101.33942083333386,
      "v": 96
    },
    {
      "midi": 81,
      "hit": false,
      "t": 167961.6419999999,
      "d": 101.33942083333386,
      "v": 96
    },
    {
      "midi": 43,
      "hit": false,
      "t": 168000.2240000011,
      "d": 203.12527083331952,
      "v": 96
    },
    {
      "midi": 76,
      "hit": false,
      "t": 168068.78499999992,
      "d": 101.33942083333386,
      "v": 96
    },
    {
      "midi": 82,
      "hit": false,
      "t": 168068.78499999992,
      "d": 101.33942083333386,
      "v": 96
    },
    {
      "midi": 75,
      "hit": false,
      "t": 168175.92799999993,
      "d": 101.33942083333386,
      "v": 96
    },
    {
      "midi": 81,
      "hit": false,
      "t": 168175.92799999993,
      "d": 101.33942083333386,
      "v": 96
    },
    {
      "midi": 52,
      "hit": false,
      "t": 168214.5100000011,
      "d": 203.12527083331952,
      "v": 96
    },
    {
      "midi": 55,
      "hit": false,
      "t": 168214.5100000011,
      "d": 203.12527083331952,
      "v": 96
    },
    {
      "midi": 58,
      "hit": false,
      "t": 168214.5100000011,
      "d": 203.12527083331952,
      "v": 96
    },
    {
      "midi": 61,
      "hit": false,
      "t": 168214.5100000011,
      "d": 203.12527083331952,
      "v": 96
    },
    {
      "midi": 76,
      "hit": false,
      "t": 168283.07099999994,
      "d": 101.33942083333386,
      "v": 96
    },
    {
      "midi": 82,
      "hit": false,
      "t": 168283.07099999994,
      "d": 101.33942083333386,
      "v": 96
    },
    {
      "midi": 87,
      "hit": false,
      "t": 168390.21399999995,
      "d": 101.33942083333386,
      "v": 96
    },
    {
      "midi": 93,
      "hit": false,
      "t": 168390.21399999995,
      "d": 101.33942083333386,
      "v": 96
    },
    {
      "midi": 36,
      "hit": false,
      "t": 168428.79600000108,
      "d": 203.12527083331952,
      "v": 96
    },
    {
      "midi": 88,
      "hit": false,
      "t": 168497.35699999996,
      "d": 101.33942083333386,
      "v": 96
    },
    {
      "midi": 94,
      "hit": false,
      "t": 168497.35699999996,
      "d": 101.33942083333386,
      "v": 96
    },
    {
      "midi": 87,
      "hit": false,
      "t": 168604.49999999997,
      "d": 101.33942083333386,
      "v": 96
    },
    {
      "midi": 93,
      "hit": false,
      "t": 168604.49999999997,
      "d": 101.33942083333386,
      "v": 96
    },
    {
      "midi": 52,
      "hit": false,
      "t": 168643.08200000107,
      "d": 203.12527083331952,
      "v": 96
    },
    {
      "midi": 55,
      "hit": false,
      "t": 168643.08200000107,
      "d": 203.12527083331952,
      "v": 96
    },
    {
      "midi": 58,
      "hit": false,
      "t": 168643.08200000107,
      "d": 203.12527083331952,
      "v": 96
    },
    {
      "midi": 61,
      "hit": false,
      "t": 168643.08200000107,
      "d": 203.12527083331952,
      "v": 96
    },
    {
      "midi": 88,
      "hit": false,
      "t": 168711.64299999998,
      "d": 101.33942083333386,
      "v": 96
    },
    {
      "midi": 94,
      "hit": false,
      "t": 168711.64299999998,
      "d": 101.33942083333386,
      "v": 96
    },
    {
      "midi": 87,
      "hit": false,
      "t": 168818.786,
      "d": 101.33942083333386,
      "v": 96
    },
    {
      "midi": 93,
      "hit": false,
      "t": 168818.786,
      "d": 101.33942083333386,
      "v": 96
    },
    {
      "midi": 43,
      "hit": false,
      "t": 168857.36800000106,
      "d": 203.12527083331952,
      "v": 96
    },
    {
      "midi": 88,
      "hit": false,
      "t": 168925.929,
      "d": 106.69657083333004,
      "v": 96
    },
    {
      "midi": 94,
      "hit": false,
      "t": 168925.929,
      "d": 106.69657083333004,
      "v": 96
    },
    {
      "midi": 52,
      "hit": false,
      "t": 169071.65400000106,
      "d": 203.12527083331952,
      "v": 96
    },
    {
      "midi": 55,
      "hit": false,
      "t": 169071.65400000106,
      "d": 203.12527083331952,
      "v": 96
    },
    {
      "midi": 58,
      "hit": false,
      "t": 169071.65400000106,
      "d": 203.12527083331952,
      "v": 96
    },
    {
      "midi": 61,
      "hit": false,
      "t": 169071.65400000106,
      "d": 203.12527083331952,
      "v": 96
    },
    {
      "midi": 88,
      "hit": false,
      "t": 169247.358,
      "d": 203.12527083331952,
      "v": 64
    },
    {
      "midi": 89,
      "hit": false,
      "t": 169247.358,
      "d": 203.12527083331952,
      "v": 64
    },
    {
      "midi": 48,
      "hit": false,
      "t": 169285.94000000105,
      "d": 203.12527083331952,
      "v": 96
    },
    {
      "midi": 83,
      "hit": false,
      "t": 169461.644,
      "d": 106.69657083333004,
      "v": 64
    },
    {
      "midi": 84,
      "hit": false,
      "t": 169461.644,
      "d": 106.69657083333004,
      "v": 64
    },
    {
      "midi": 43,
      "hit": false,
      "t": 169500.22600000104,
      "d": 203.12527083331952,
      "v": 96
    },
    {
      "midi": 52,
      "hit": false,
      "t": 169500.22600000104,
      "d": 203.12527083331952,
      "v": 96
    },
    {
      "midi": 55,
      "hit": false,
      "t": 169500.22600000104,
      "d": 203.12527083331952,
      "v": 96
    },
    {
      "midi": 58,
      "hit": false,
      "t": 169500.22600000104,
      "d": 203.12527083331952,
      "v": 96
    },
    {
      "midi": 61,
      "hit": false,
      "t": 169500.22600000104,
      "d": 203.12527083331952,
      "v": 96
    },
    {
      "midi": 79,
      "hit": false,
      "t": 169675.93,
      "d": 106.69657083333004,
      "v": 64
    },
    {
      "midi": 80,
      "hit": false,
      "t": 169675.93,
      "d": 106.69657083333004,
      "v": 64
    },
    {
      "midi": 41,
      "hit": false,
      "t": 169714.51200000104,
      "d": 203.12527083331952,
      "v": 64
    },
    {
      "midi": 76,
      "hit": false,
      "t": 169890.216,
      "d": 53.12507083333912,
      "v": 64
    },
    {
      "midi": 77,
      "hit": false,
      "t": 169890.216,
      "d": 53.12507083333912,
      "v": 64
    },
    {
      "midi": 53,
      "hit": false,
      "t": 169928.79800000103,
      "d": 203.12527083331952,
      "v": 64
    },
    {
      "midi": 56,
      "hit": false,
      "t": 169928.79800000103,
      "d": 203.12527083331952,
      "v": 64
    },
    {
      "midi": 60,
      "hit": false,
      "t": 169928.79800000103,
      "d": 203.12527083331952,
      "v": 64
    },
    {
      "midi": 79,
      "hit": false,
      "t": 169997.359,
      "d": 203.12527083331952,
      "v": 64
    },
    {
      "midi": 80,
      "hit": false,
      "t": 169997.359,
      "d": 203.12527083331952,
      "v": 64
    },
    {
      "midi": 36,
      "hit": false,
      "t": 170143.08400000102,
      "d": 203.12527083331952,
      "v": 64
    },
    {
      "midi": 82,
      "hit": false,
      "t": 170211.645,
      "d": 53.12507083333912,
      "v": 64
    },
    {
      "midi": 79,
      "hit": false,
      "t": 170318.788,
      "d": 508.4828208333347,
      "v": 64
    },
    {
      "midi": 80,
      "hit": false,
      "t": 170318.788,
      "d": 508.4828208333347,
      "v": 64
    },
    {
      "midi": 53,
      "hit": false,
      "t": 170357.370000001,
      "d": 203.12527083331952,
      "v": 64
    },
    {
      "midi": 56,
      "hit": false,
      "t": 170357.370000001,
      "d": 203.12527083331952,
      "v": 64
    },
    {
      "midi": 60,
      "hit": false,
      "t": 170357.370000001,
      "d": 203.12527083331952,
      "v": 64
    },
    {
      "midi": 41,
      "hit": false,
      "t": 170571.656000001,
      "d": 203.12527083331952,
      "v": 64
    },
    {
      "midi": 53,
      "hit": false,
      "t": 170785.942000001,
      "d": 203.12527083331952,
      "v": 64
    },
    {
      "midi": 56,
      "hit": false,
      "t": 170785.942000001,
      "d": 203.12527083331952,
      "v": 64
    },
    {
      "midi": 60,
      "hit": false,
      "t": 170785.942000001,
      "d": 203.12527083331952,
      "v": 64
    },
    {
      "midi": 36,
      "hit": false,
      "t": 171000.228000001,
      "d": 203.12527083331952,
      "v": 64
    },
    {
      "midi": 82,
      "hit": false,
      "t": 171068.789,
      "d": 320.9825708333228,
      "v": 115
    },
    {
      "midi": 88,
      "hit": false,
      "t": 171068.789,
      "d": 320.9825708333228,
      "v": 115
    },
    {
      "midi": 41,
      "hit": false,
      "t": 171214.51400000099,
      "d": 203.12527083331952,
      "v": 64
    },
    {
      "midi": 53,
      "hit": false,
      "t": 171214.51400000099,
      "d": 203.12527083331952,
      "v": 64
    },
    {
      "midi": 56,
      "hit": false,
      "t": 171214.51400000099,
      "d": 203.12527083331952,
      "v": 64
    },
    {
      "midi": 60,
      "hit": false,
      "t": 171214.51400000099,
      "d": 203.12527083331952,
      "v": 64
    },
    {
      "midi": 76,
      "hit": false,
      "t": 171390.218,
      "d": 320.9825708333228,
      "v": 115
    },
    {
      "midi": 82,
      "hit": false,
      "t": 171390.218,
      "d": 320.9825708333228,
      "v": 115
    },
    {
      "midi": 43,
      "hit": false,
      "t": 171428.80000000098,
      "d": 203.12527083331952,
      "v": 96
    },
    {
      "midi": 52,
      "hit": false,
      "t": 171643.08600000097,
      "d": 213.83957083334099,
      "v": 115
    },
    {
      "midi": 55,
      "hit": false,
      "t": 171643.08600000097,
      "d": 213.83957083334099,
      "v": 115
    },
    {
      "midi": 58,
      "hit": false,
      "t": 171643.08600000097,
      "d": 213.83957083334099,
      "v": 115
    },
    {
      "midi": 61,
      "hit": false,
      "t": 171643.08600000097,
      "d": 213.83957083334099,
      "v": 115
    },
    {
      "midi": 70,
      "hit": false,
      "t": 171711.647,
      "d": 428.12557083333377,
      "v": 115
    },
    {
      "midi": 76,
      "hit": false,
      "t": 171711.647,
      "d": 428.12557083333377,
      "v": 115
    },
    {
      "midi": 36,
      "hit": false,
      "t": 171857.372000001,
      "d": 203.12527083331952,
      "v": 96
    },
    {
      "midi": 43,
      "hit": false,
      "t": 172071.65800000099,
      "d": 203.12527083331952,
      "v": 96
    },
    {
      "midi": 76,
      "hit": false,
      "t": 172140.219,
      "d": 213.83957083334099,
      "v": 115
    },
    {
      "midi": 82,
      "hit": false,
      "t": 172140.219,
      "d": 213.83957083334099,
      "v": 115
    },
    {
      "midi": 52,
      "hit": false,
      "t": 172285.94400000098,
      "d": 213.83957083334099,
      "v": 115
    },
    {
      "midi": 55,
      "hit": false,
      "t": 172285.94400000098,
      "d": 213.83957083334099,
      "v": 115
    },
    {
      "midi": 58,
      "hit": false,
      "t": 172285.94400000098,
      "d": 213.83957083334099,
      "v": 115
    },
    {
      "midi": 61,
      "hit": false,
      "t": 172285.94400000098,
      "d": 213.83957083334099,
      "v": 115
    },
    {
      "midi": 79,
      "hit": false,
      "t": 172354.50500000003,
      "d": 213.83957083334099,
      "v": 115
    },
    {
      "midi": 85,
      "hit": false,
      "t": 172354.50500000003,
      "d": 213.83957083334099,
      "v": 115
    },
    {
      "midi": 48,
      "hit": false,
      "t": 172500.230000001,
      "d": 203.12527083331952,
      "v": 96
    },
    {
      "midi": 77,
      "hit": false,
      "t": 172568.79100000006,
      "d": 203.12527083331952,
      "v": 64
    },
    {
      "midi": 88,
      "hit": false,
      "t": 172568.79100000006,
      "d": 203.12527083331952,
      "v": 64
    },
    {
      "midi": 89,
      "hit": false,
      "t": 172568.79100000006,
      "d": 203.12527083331952,
      "v": 64
    },
    {
      "midi": 43,
      "hit": false,
      "t": 172714.516000001,
      "d": 203.12527083331952,
      "v": 96
    },
    {
      "midi": 83,
      "hit": false,
      "t": 172783.07700000005,
      "d": 106.69657083333004,
      "v": 64
    },
    {
      "midi": 84,
      "hit": false,
      "t": 172783.07700000005,
      "d": 106.69657083333004,
      "v": 64
    },
    {
      "midi": 36,
      "hit": false,
      "t": 172928.802000001,
      "d": 203.12527083331952,
      "v": 96
    },
    {
      "midi": 79,
      "hit": false,
      "t": 172997.36300000004,
      "d": 106.69657083333004,
      "v": 64
    },
    {
      "midi": 80,
      "hit": false,
      "t": 172997.36300000004,
      "d": 106.69657083333004,
      "v": 64
    },
    {
      "midi": 41,
      "hit": false,
      "t": 173143.08800000098,
      "d": 203.12527083331952,
      "v": 64
    },
    {
      "midi": 53,
      "hit": false,
      "t": 173143.08800000098,
      "d": 203.12527083331952,
      "v": 64
    },
    {
      "midi": 76,
      "hit": false,
      "t": 173211.64900000003,
      "d": 106.69657083333004,
      "v": 64
    },
    {
      "midi": 77,
      "hit": false,
      "t": 173211.64900000003,
      "d": 106.69657083333004,
      "v": 64
    },
    {
      "midi": 53,
      "hit": false,
      "t": 173357.37400000097,
      "d": 203.12527083331952,
      "v": 64
    },
    {
      "midi": 56,
      "hit": false,
      "t": 173357.37400000097,
      "d": 203.12527083331952,
      "v": 64
    },
    {
      "midi": 60,
      "hit": false,
      "t": 173357.37400000097,
      "d": 203.12527083331952,
      "v": 64
    },
    {
      "midi": 79,
      "hit": false,
      "t": 173425.93500000003,
      "d": 101.33942083333386,
      "v": 64
    },
    {
      "midi": 80,
      "hit": false,
      "t": 173425.93500000003,
      "d": 101.33942083333386,
      "v": 64
    },
    {
      "midi": 82,
      "hit": false,
      "t": 173533.07800000004,
      "d": 106.69657083333004,
      "v": 64
    },
    {
      "midi": 36,
      "hit": false,
      "t": 173571.66000000096,
      "d": 203.12527083331952,
      "v": 66
    },
    {
      "midi": 79,
      "hit": false,
      "t": 173747.36400000003,
      "d": 508.4828208333347,
      "v": 64
    },
    {
      "midi": 80,
      "hit": false,
      "t": 173747.36400000003,
      "d": 508.4828208333347,
      "v": 64
    },
    {
      "midi": 41,
      "hit": false,
      "t": 173785.94600000096,
      "d": 203.12527083331952,
      "v": 68
    },
    {
      "midi": 53,
      "hit": false,
      "t": 173785.94600000096,
      "d": 203.12527083331952,
      "v": 68
    },
    {
      "midi": 56,
      "hit": false,
      "t": 173785.94600000096,
      "d": 203.12527083331952,
      "v": 68
    },
    {
      "midi": 60,
      "hit": false,
      "t": 173785.94600000096,
      "d": 203.12527083331952,
      "v": 68
    },
    {
      "midi": 43,
      "hit": false,
      "t": 174000.23200000095,
      "d": 203.12527083331952,
      "v": 70
    },
    {
      "midi": 55,
      "hit": false,
      "t": 174214.51800000094,
      "d": 203.12527083331952,
      "v": 72
    },
    {
      "midi": 58,
      "hit": false,
      "t": 174214.51800000094,
      "d": 203.12527083331952,
      "v": 72
    },
    {
      "midi": 61,
      "hit": false,
      "t": 174214.51800000094,
      "d": 203.12527083331952,
      "v": 72
    },
    {
      "midi": 43,
      "hit": false,
      "t": 174428.80400000094,
      "d": 203.12527083331952,
      "v": 74
    },
    {
      "midi": 76,
      "hit": false,
      "t": 174497.36500000002,
      "d": 213.83957083334099,
      "v": 115
    },
    {
      "midi": 79,
      "hit": false,
      "t": 174497.36500000002,
      "d": 213.83957083334099,
      "v": 115
    },
    {
      "midi": 82,
      "hit": false,
      "t": 174497.36500000002,
      "d": 213.83957083334099,
      "v": 115
    },
    {
      "midi": 85,
      "hit": false,
      "t": 174497.36500000002,
      "d": 213.83957083334099,
      "v": 115
    },
    {
      "midi": 36,
      "hit": false,
      "t": 174643.09000000093,
      "d": 203.12527083331952,
      "v": 76
    },
    {
      "midi": 55,
      "hit": false,
      "t": 174643.09000000093,
      "d": 203.12527083331952,
      "v": 76
    },
    {
      "midi": 58,
      "hit": false,
      "t": 174643.09000000093,
      "d": 203.12527083331952,
      "v": 76
    },
    {
      "midi": 61,
      "hit": false,
      "t": 174643.09000000093,
      "d": 203.12527083331952,
      "v": 76
    },
    {
      "midi": 44,
      "hit": false,
      "t": 174857.37600000092,
      "d": 203.12527083331952,
      "v": 78
    },
    {
      "midi": 56,
      "hit": false,
      "t": 175071.6620000009,
      "d": 203.12527083331952,
      "v": 81
    },
    {
      "midi": 60,
      "hit": false,
      "t": 175071.6620000009,
      "d": 203.12527083331952,
      "v": 81
    },
    {
      "midi": 63,
      "hit": false,
      "t": 175071.6620000009,
      "d": 203.12527083331952,
      "v": 81
    },
    {
      "midi": 76,
      "hit": false,
      "t": 175140.22300000003,
      "d": 428.12557083333377,
      "v": 115
    },
    {
      "midi": 79,
      "hit": false,
      "t": 175140.22300000003,
      "d": 428.12557083333377,
      "v": 115
    },
    {
      "midi": 82,
      "hit": false,
      "t": 175140.22300000003,
      "d": 428.12557083333377,
      "v": 115
    },
    {
      "midi": 85,
      "hit": false,
      "t": 175140.22300000003,
      "d": 428.12557083333377,
      "v": 115
    },
    {
      "midi": 44,
      "hit": false,
      "t": 175285.9480000009,
      "d": 203.12527083331952,
      "v": 83
    },
    {
      "midi": 48,
      "hit": false,
      "t": 175500.2340000009,
      "d": 203.12527083331952,
      "v": 85
    },
    {
      "midi": 56,
      "hit": false,
      "t": 175500.2340000009,
      "d": 203.12527083331952,
      "v": 85
    },
    {
      "midi": 60,
      "hit": false,
      "t": 175500.2340000009,
      "d": 203.12527083331952,
      "v": 85
    },
    {
      "midi": 63,
      "hit": false,
      "t": 175500.2340000009,
      "d": 203.12527083331952,
      "v": 85
    },
    {
      "midi": 46,
      "hit": false,
      "t": 175714.5200000009,
      "d": 203.12527083331952,
      "v": 87
    },
    {
      "midi": 58,
      "hit": false,
      "t": 175928.80600000088,
      "d": 203.12527083331952,
      "v": 89
    },
    {
      "midi": 61,
      "hit": false,
      "t": 175928.80600000088,
      "d": 203.12527083331952,
      "v": 89
    },
    {
      "midi": 64,
      "hit": false,
      "t": 175928.80600000088,
      "d": 203.12527083331952,
      "v": 89
    },
    {
      "midi": 68,
      "hit": false,
      "t": 175997.36700000003,
      "d": 101.33942083333386,
      "v": 64
    },
    {
      "midi": 80,
      "hit": false,
      "t": 175997.36700000003,
      "d": 101.33942083333386,
      "v": 64
    },
    {
      "midi": 65,
      "hit": false,
      "t": 176104.51000000004,
      "d": 106.69657083333004,
      "v": 64
    },
    {
      "midi": 77,
      "hit": false,
      "t": 176104.51000000004,
      "d": 106.69657083333004,
      "v": 64
    },
    {
      "midi": 49,
      "hit": false,
      "t": 176143.09200000088,
      "d": 203.12527083331952,
      "v": 91
    },
    {
      "midi": 68,
      "hit": false,
      "t": 176318.79600000003,
      "d": 513.8399708333309,
      "v": 79
    },
    {
      "midi": 80,
      "hit": false,
      "t": 176318.79600000003,
      "d": 513.8399708333309,
      "v": 79
    },
    {
      "midi": 46,
      "hit": false,
      "t": 176357.37800000087,
      "d": 203.12527083331952,
      "v": 93
    },
    {
      "midi": 58,
      "hit": false,
      "t": 176357.37800000087,
      "d": 203.12527083331952,
      "v": 93
    },
    {
      "midi": 61,
      "hit": false,
      "t": 176357.37800000087,
      "d": 203.12527083331952,
      "v": 93
    },
    {
      "midi": 64,
      "hit": false,
      "t": 176357.37800000087,
      "d": 203.12527083331952,
      "v": 93
    },
    {
      "midi": 48,
      "hit": false,
      "t": 176571.66400000086,
      "d": 101.33942083333386,
      "v": 96
    },
    {
      "midi": 60,
      "hit": false,
      "t": 176571.66400000086,
      "d": 101.33942083333386,
      "v": 96
    },
    {
      "midi": 48,
      "hit": false,
      "t": 176678.80700000087,
      "d": 101.33942083333386,
      "v": 96
    },
    {
      "midi": 60,
      "hit": false,
      "t": 176678.80700000087,
      "d": 101.33942083333386,
      "v": 96
    },
    {
      "midi": 48,
      "hit": false,
      "t": 176785.95000000088,
      "d": 106.69657083333004,
      "v": 96
    },
    {
      "midi": 60,
      "hit": false,
      "t": 176785.95000000088,
      "d": 106.69657083333004,
      "v": 96
    },
    {
      "midi": 70,
      "hit": false,
      "t": 176854.51100000003,
      "d": 101.33942083333386,
      "v": 71
    },
    {
      "midi": 82,
      "hit": false,
      "t": 176854.51100000003,
      "d": 101.33942083333386,
      "v": 71
    },
    {
      "midi": 67,
      "hit": false,
      "t": 176961.65400000004,
      "d": 106.69657083333004,
      "v": 72
    },
    {
      "midi": 79,
      "hit": false,
      "t": 176961.65400000004,
      "d": 106.69657083333004,
      "v": 72
    },
    {
      "midi": 24,
      "hit": false,
      "t": 177000.23600000088,
      "d": 428.12557083333377,
      "v": 115
    },
    {
      "midi": 36,
      "hit": false,
      "t": 177000.23600000088,
      "d": 428.12557083333377,
      "v": 115
    },
    {
      "midi": 70,
      "hit": false,
      "t": 177175.94000000003,
      "d": 513.8399708333309,
      "v": 88
    },
    {
      "midi": 82,
      "hit": false,
      "t": 177175.94000000003,
      "d": 513.8399708333309,
      "v": 88
    },
    {
      "midi": 46,
      "hit": false,
      "t": 177428.8080000009,
      "d": 101.33942083333386,
      "v": 96
    },
    {
      "midi": 58,
      "hit": false,
      "t": 177428.8080000009,
      "d": 101.33942083333386,
      "v": 96
    },
    {
      "midi": 46,
      "hit": false,
      "t": 177535.9510000009,
      "d": 101.33942083333386,
      "v": 96
    },
    {
      "midi": 58,
      "hit": false,
      "t": 177535.9510000009,
      "d": 101.33942083333386,
      "v": 96
    },
    {
      "midi": 46,
      "hit": false,
      "t": 177643.0940000009,
      "d": 106.69657083333004,
      "v": 96
    },
    {
      "midi": 58,
      "hit": false,
      "t": 177643.0940000009,
      "d": 106.69657083333004,
      "v": 96
    },
    {
      "midi": 72,
      "hit": false,
      "t": 177711.65500000003,
      "d": 101.33942083333386,
      "v": 79
    },
    {
      "midi": 84,
      "hit": false,
      "t": 177711.65500000003,
      "d": 101.33942083333386,
      "v": 79
    },
    {
      "midi": 68,
      "hit": false,
      "t": 177818.79800000004,
      "d": 106.69657083333004,
      "v": 80
    },
    {
      "midi": 80,
      "hit": false,
      "t": 177818.79800000004,
      "d": 106.69657083333004,
      "v": 80
    },
    {
      "midi": 24,
      "hit": false,
      "t": 177857.3800000009,
      "d": 428.12557083333377,
      "v": 115
    },
    {
      "midi": 36,
      "hit": false,
      "t": 177857.3800000009,
      "d": 428.12557083333377,
      "v": 115
    },
    {
      "midi": 72,
      "hit": false,
      "t": 178033.08400000003,
      "d": 513.8399708333309,
      "v": 98
    },
    {
      "midi": 84,
      "hit": false,
      "t": 178033.08400000003,
      "d": 513.8399708333309,
      "v": 98
    },
    {
      "midi": 49,
      "hit": false,
      "t": 178285.95200000092,
      "d": 101.33942083333386,
      "v": 96
    },
    {
      "midi": 61,
      "hit": false,
      "t": 178285.95200000092,
      "d": 101.33942083333386,
      "v": 96
    },
    {
      "midi": 49,
      "hit": false,
      "t": 178393.09500000093,
      "d": 101.33942083333386,
      "v": 96
    },
    {
      "midi": 61,
      "hit": false,
      "t": 178393.09500000093,
      "d": 101.33942083333386,
      "v": 96
    },
    {
      "midi": 49,
      "hit": false,
      "t": 178500.23800000094,
      "d": 106.69657083333004,
      "v": 96
    },
    {
      "midi": 61,
      "hit": false,
      "t": 178500.23800000094,
      "d": 106.69657083333004,
      "v": 96
    },
    {
      "midi": 73,
      "hit": false,
      "t": 178568.79900000003,
      "d": 101.33942083333386,
      "v": 87
    },
    {
      "midi": 85,
      "hit": false,
      "t": 178568.79900000003,
      "d": 101.33942083333386,
      "v": 87
    },
    {
      "midi": 70,
      "hit": false,
      "t": 178675.94200000004,
      "d": 106.69657083333004,
      "v": 88
    },
    {
      "midi": 82,
      "hit": false,
      "t": 178675.94200000004,
      "d": 106.69657083333004,
      "v": 88
    },
    {
      "midi": 41,
      "hit": false,
      "t": 178714.52400000094,
      "d": 304.9111208333343,
      "v": 96
    },
    {
      "midi": 53,
      "hit": false,
      "t": 178714.52400000094,
      "d": 304.9111208333343,
      "v": 96
    },
    {
      "midi": 65,
      "hit": false,
      "t": 178714.52400000094,
      "d": 304.9111208333343,
      "v": 96
    },
    {
      "midi": 73,
      "hit": false,
      "t": 178890.22800000003,
      "d": 513.8399708333309,
      "v": 108
    },
    {
      "midi": 85,
      "hit": false,
      "t": 178890.22800000003,
      "d": 513.8399708333309,
      "v": 108
    },
    {
      "midi": 40,
      "hit": false,
      "t": 179035.95300000094,
      "d": 101.33942083333386,
      "v": 96
    },
    {
      "midi": 52,
      "hit": false,
      "t": 179035.95300000094,
      "d": 101.33942083333386,
      "v": 96
    },
    {
      "midi": 64,
      "hit": false,
      "t": 179035.95300000094,
      "d": 101.33942083333386,
      "v": 96
    },
    {
      "midi": 60,
      "hit": false,
      "t": 179250.23900000093,
      "d": 101.33942083333386,
      "v": 96
    },
    {
      "midi": 59,
      "hit": false,
      "t": 179357.38200000094,
      "d": 101.33942083333386,
      "v": 96
    },
    {
      "midi": 72,
      "hit": false,
      "t": 179425.94300000003,
      "d": 101.33942083333386,
      "v": 96
    },
    {
      "midi": 84,
      "hit": false,
      "t": 179425.94300000003,
      "d": 101.33942083333386,
      "v": 96
    },
    {
      "midi": 58,
      "hit": false,
      "t": 179464.52500000095,
      "d": 101.33942083333386,
      "v": 96
    },
    {
      "midi": 72,
      "hit": false,
      "t": 179533.08600000004,
      "d": 101.33942083333386,
      "v": 96
    },
    {
      "midi": 84,
      "hit": false,
      "t": 179533.08600000004,
      "d": 101.33942083333386,
      "v": 96
    },
    {
      "midi": 57,
      "hit": false,
      "t": 179571.66800000097,
      "d": 101.33942083333386,
      "v": 96
    },
    {
      "midi": 72,
      "hit": false,
      "t": 179640.22900000005,
      "d": 106.69657083333004,
      "v": 96
    },
    {
      "midi": 84,
      "hit": false,
      "t": 179640.22900000005,
      "d": 106.69657083333004,
      "v": 96
    },
    {
      "midi": 56,
      "hit": false,
      "t": 179678.81100000098,
      "d": 101.33942083333386,
      "v": 96
    },
    {
      "midi": 55,
      "hit": false,
      "t": 179785.954000001,
      "d": 101.33942083333386,
      "v": 96
    },
    {
      "midi": 54,
      "hit": false,
      "t": 179893.097000001,
      "d": 101.33942083333386,
      "v": 96
    },
    {
      "midi": 48,
      "hit": false,
      "t": 180000.240000001,
      "d": 101.33942083333386,
      "v": 96
    },
    {
      "midi": 60,
      "hit": false,
      "t": 180000.240000001,
      "d": 101.33942083333386,
      "v": 96
    },
    {
      "midi": 48,
      "hit": false,
      "t": 180107.38300000102,
      "d": 101.33942083333386,
      "v": 96
    },
    {
      "midi": 60,
      "hit": false,
      "t": 180107.38300000102,
      "d": 101.33942083333386,
      "v": 96
    },
    {
      "midi": 48,
      "hit": false,
      "t": 180214.52600000103,
      "d": 106.69657083333004,
      "v": 96
    },
    {
      "midi": 60,
      "hit": false,
      "t": 180214.52600000103,
      "d": 106.69657083333004,
      "v": 96
    },
    {
      "midi": 70,
      "hit": false,
      "t": 180283.08700000006,
      "d": 101.33942083333386,
      "v": 96
    },
    {
      "midi": 82,
      "hit": false,
      "t": 180283.08700000006,
      "d": 101.33942083333386,
      "v": 96
    },
    {
      "midi": 70,
      "hit": false,
      "t": 180390.23000000007,
      "d": 101.33942083333386,
      "v": 96
    },
    {
      "midi": 82,
      "hit": false,
      "t": 180390.23000000007,
      "d": 101.33942083333386,
      "v": 96
    },
    {
      "midi": 24,
      "hit": false,
      "t": 180428.81200000102,
      "d": 428.12557083333377,
      "v": 115
    },
    {
      "midi": 36,
      "hit": false,
      "t": 180428.81200000102,
      "d": 428.12557083333377,
      "v": 115
    },
    {
      "midi": 70,
      "hit": false,
      "t": 180497.37300000008,
      "d": 106.69657083333004,
      "v": 96
    },
    {
      "midi": 82,
      "hit": false,
      "t": 180497.37300000008,
      "d": 106.69657083333004,
      "v": 96
    },
    {
      "midi": 46,
      "hit": false,
      "t": 180857.38400000104,
      "d": 101.33942083333386,
      "v": 96
    },
    {
      "midi": 58,
      "hit": false,
      "t": 180857.38400000104,
      "d": 101.33942083333386,
      "v": 96
    },
    {
      "midi": 46,
      "hit": false,
      "t": 180964.52700000105,
      "d": 101.33942083333386,
      "v": 96
    },
    {
      "midi": 58,
      "hit": false,
      "t": 180964.52700000105,
      "d": 101.33942083333386,
      "v": 96
    },
    {
      "midi": 46,
      "hit": false,
      "t": 181071.67000000106,
      "d": 106.69657083333004,
      "v": 96
    },
    {
      "midi": 58,
      "hit": false,
      "t": 181071.67000000106,
      "d": 106.69657083333004,
      "v": 96
    },
    {
      "midi": 73,
      "hit": false,
      "t": 181140.2310000001,
      "d": 101.33942083333386,
      "v": 96
    },
    {
      "midi": 85,
      "hit": false,
      "t": 181140.2310000001,
      "d": 101.33942083333386,
      "v": 96
    },
    {
      "midi": 73,
      "hit": false,
      "t": 181247.3740000001,
      "d": 101.33942083333386,
      "v": 96
    },
    {
      "midi": 85,
      "hit": false,
      "t": 181247.3740000001,
      "d": 101.33942083333386,
      "v": 96
    },
    {
      "midi": 24,
      "hit": false,
      "t": 181285.95600000105,
      "d": 428.12557083333377,
      "v": 115
    },
    {
      "midi": 36,
      "hit": false,
      "t": 181285.95600000105,
      "d": 428.12557083333377,
      "v": 115
    },
    {
      "midi": 73,
      "hit": false,
      "t": 181354.5170000001,
      "d": 106.69657083333004,
      "v": 96
    },
    {
      "midi": 85,
      "hit": false,
      "t": 181354.5170000001,
      "d": 106.69657083333004,
      "v": 96
    },
    {
      "midi": 77,
      "hit": false,
      "t": 181568.8030000001,
      "d": 304.9111208333343,
      "v": 96
    },
    {
      "midi": 89,
      "hit": false,
      "t": 181568.8030000001,
      "d": 304.9111208333343,
      "v": 96
    },
    {
      "midi": 49,
      "hit": false,
      "t": 181714.52800000107,
      "d": 101.33942083333386,
      "v": 96
    },
    {
      "midi": 61,
      "hit": false,
      "t": 181714.52800000107,
      "d": 101.33942083333386,
      "v": 96
    },
    {
      "midi": 49,
      "hit": false,
      "t": 181821.67100000108,
      "d": 101.33942083333386,
      "v": 96
    },
    {
      "midi": 61,
      "hit": false,
      "t": 181821.67100000108,
      "d": 101.33942083333386,
      "v": 96
    },
    {
      "midi": 76,
      "hit": false,
      "t": 181890.2320000001,
      "d": 101.33942083333386,
      "v": 96
    },
    {
      "midi": 88,
      "hit": false,
      "t": 181890.2320000001,
      "d": 101.33942083333386,
      "v": 96
    },
    {
      "midi": 49,
      "hit": false,
      "t": 181928.8140000011,
      "d": 106.69657083333004,
      "v": 96
    },
    {
      "midi": 61,
      "hit": false,
      "t": 181928.8140000011,
      "d": 106.69657083333004,
      "v": 96
    },
    {
      "midi": 76,
      "hit": false,
      "t": 182104.5180000001,
      "d": 101.33942083333386,
      "v": 96
    },
    {
      "midi": 88,
      "hit": false,
      "t": 182104.5180000001,
      "d": 101.33942083333386,
      "v": 96
    },
    {
      "midi": 41,
      "hit": false,
      "t": 182143.10000000108,
      "d": 304.9111208333343,
      "v": 96
    },
    {
      "midi": 53,
      "hit": false,
      "t": 182143.10000000108,
      "d": 304.9111208333343,
      "v": 96
    },
    {
      "midi": 65,
      "hit": false,
      "t": 182143.10000000108,
      "d": 304.9111208333343,
      "v": 96
    },
    {
      "midi": 71,
      "hit": false,
      "t": 182211.6610000001,
      "d": 101.33942083333386,
      "v": 96
    },
    {
      "midi": 83,
      "hit": false,
      "t": 182211.6610000001,
      "d": 101.33942083333386,
      "v": 96
    },
    {
      "midi": 72,
      "hit": false,
      "t": 182318.80400000012,
      "d": 101.33942083333386,
      "v": 96
    },
    {
      "midi": 84,
      "hit": false,
      "t": 182318.80400000012,
      "d": 101.33942083333386,
      "v": 96
    },
    {
      "midi": 73,
      "hit": false,
      "t": 182425.94700000013,
      "d": 101.33942083333386,
      "v": 96
    },
    {
      "midi": 85,
      "hit": false,
      "t": 182425.94700000013,
      "d": 101.33942083333386,
      "v": 96
    },
    {
      "midi": 43,
      "hit": false,
      "t": 182464.5290000011,
      "d": 101.33942083333386,
      "v": 96
    },
    {
      "midi": 55,
      "hit": false,
      "t": 182464.5290000011,
      "d": 101.33942083333386,
      "v": 96
    },
    {
      "midi": 67,
      "hit": false,
      "t": 182464.5290000011,
      "d": 101.33942083333386,
      "v": 96
    },
    {
      "midi": 74,
      "hit": false,
      "t": 182533.09000000014,
      "d": 101.33942083333386,
      "v": 96
    },
    {
      "midi": 86,
      "hit": false,
      "t": 182533.09000000014,
      "d": 101.33942083333386,
      "v": 96
    },
    {
      "midi": 75,
      "hit": false,
      "t": 182640.23300000015,
      "d": 101.33942083333386,
      "v": 96
    },
    {
      "midi": 87,
      "hit": false,
      "t": 182640.23300000015,
      "d": 101.33942083333386,
      "v": 96
    },
    {
      "midi": 60,
      "hit": false,
      "t": 182678.81500000108,
      "d": 101.33942083333386,
      "v": 96
    },
    {
      "midi": 76,
      "hit": false,
      "t": 182747.37600000016,
      "d": 101.33942083333386,
      "v": 96
    },
    {
      "midi": 88,
      "hit": false,
      "t": 182747.37600000016,
      "d": 101.33942083333386,
      "v": 96
    },
    {
      "midi": 59,
      "hit": false,
      "t": 182785.9580000011,
      "d": 101.33942083333386,
      "v": 96
    },
    {
      "midi": 72,
      "hit": false,
      "t": 182854.51900000017,
      "d": 101.33942083333386,
      "v": 96
    },
    {
      "midi": 84,
      "hit": false,
      "t": 182854.51900000017,
      "d": 101.33942083333386,
      "v": 96
    },
    {
      "midi": 58,
      "hit": false,
      "t": 182893.1010000011,
      "d": 101.33942083333386,
      "v": 96
    },
    {
      "midi": 72,
      "hit": false,
      "t": 182961.6620000002,
      "d": 101.33942083333386,
      "v": 96
    },
    {
      "midi": 84,
      "hit": false,
      "t": 182961.6620000002,
      "d": 101.33942083333386,
      "v": 96
    },
    {
      "midi": 57,
      "hit": false,
      "t": 183000.2440000011,
      "d": 101.33942083333386,
      "v": 96
    },
    {
      "midi": 72,
      "hit": false,
      "t": 183068.8050000002,
      "d": 106.69657083333004,
      "v": 96
    },
    {
      "midi": 84,
      "hit": false,
      "t": 183068.8050000002,
      "d": 106.69657083333004,
      "v": 96
    },
    {
      "midi": 56,
      "hit": false,
      "t": 183107.38700000112,
      "d": 101.33942083333386,
      "v": 96
    },
    {
      "midi": 55,
      "hit": false,
      "t": 183214.53000000113,
      "d": 101.33942083333386,
      "v": 96
    },
    {
      "midi": 54,
      "hit": false,
      "t": 183321.67300000114,
      "d": 101.33942083333386,
      "v": 96
    },
    {
      "midi": 48,
      "hit": false,
      "t": 183428.81600000116,
      "d": 101.33942083333386,
      "v": 96
    },
    {
      "midi": 60,
      "hit": false,
      "t": 183428.81600000116,
      "d": 101.33942083333386,
      "v": 96
    },
    {
      "midi": 48,
      "hit": false,
      "t": 183535.95900000117,
      "d": 101.33942083333386,
      "v": 96
    },
    {
      "midi": 60,
      "hit": false,
      "t": 183535.95900000117,
      "d": 101.33942083333386,
      "v": 96
    },
    {
      "midi": 48,
      "hit": false,
      "t": 183643.10200000118,
      "d": 106.69657083333004,
      "v": 96
    },
    {
      "midi": 60,
      "hit": false,
      "t": 183643.10200000118,
      "d": 106.69657083333004,
      "v": 96
    },
    {
      "midi": 70,
      "hit": false,
      "t": 183711.6630000002,
      "d": 101.33942083333386,
      "v": 96
    },
    {
      "midi": 82,
      "hit": false,
      "t": 183711.6630000002,
      "d": 101.33942083333386,
      "v": 96
    },
    {
      "midi": 70,
      "hit": false,
      "t": 183818.80600000022,
      "d": 101.33942083333386,
      "v": 96
    },
    {
      "midi": 82,
      "hit": false,
      "t": 183818.80600000022,
      "d": 101.33942083333386,
      "v": 96
    },
    {
      "midi": 24,
      "hit": false,
      "t": 183857.38800000117,
      "d": 428.12557083333377,
      "v": 115
    },
    {
      "midi": 36,
      "hit": false,
      "t": 183857.38800000117,
      "d": 428.12557083333377,
      "v": 115
    },
    {
      "midi": 70,
      "hit": false,
      "t": 183925.94900000023,
      "d": 106.69657083333004,
      "v": 96
    },
    {
      "midi": 82,
      "hit": false,
      "t": 183925.94900000023,
      "d": 106.69657083333004,
      "v": 96
    },
    {
      "midi": 46,
      "hit": false,
      "t": 184285.96000000119,
      "d": 101.33942083333386,
      "v": 96
    },
    {
      "midi": 58,
      "hit": false,
      "t": 184285.96000000119,
      "d": 101.33942083333386,
      "v": 96
    },
    {
      "midi": 46,
      "hit": false,
      "t": 184393.1030000012,
      "d": 101.33942083333386,
      "v": 96
    },
    {
      "midi": 58,
      "hit": false,
      "t": 184393.1030000012,
      "d": 101.33942083333386,
      "v": 96
    },
    {
      "midi": 46,
      "hit": false,
      "t": 184500.2460000012,
      "d": 106.69657083333004,
      "v": 96
    },
    {
      "midi": 58,
      "hit": false,
      "t": 184500.2460000012,
      "d": 106.69657083333004,
      "v": 96
    },
    {
      "midi": 73,
      "hit": false,
      "t": 184568.80700000023,
      "d": 101.33942083333386,
      "v": 96
    },
    {
      "midi": 85,
      "hit": false,
      "t": 184568.80700000023,
      "d": 101.33942083333386,
      "v": 96
    },
    {
      "midi": 73,
      "hit": false,
      "t": 184675.95000000024,
      "d": 101.33942083333386,
      "v": 96
    },
    {
      "midi": 85,
      "hit": false,
      "t": 184675.95000000024,
      "d": 101.33942083333386,
      "v": 96
    },
    {
      "midi": 24,
      "hit": false,
      "t": 184714.5320000012,
      "d": 428.12557083333377,
      "v": 115
    },
    {
      "midi": 36,
      "hit": false,
      "t": 184714.5320000012,
      "d": 428.12557083333377,
      "v": 115
    },
    {
      "midi": 73,
      "hit": false,
      "t": 184783.09300000026,
      "d": 106.69657083333004,
      "v": 96
    },
    {
      "midi": 85,
      "hit": false,
      "t": 184783.09300000026,
      "d": 106.69657083333004,
      "v": 96
    },
    {
      "midi": 77,
      "hit": false,
      "t": 184997.37900000025,
      "d": 304.9111208333343,
      "v": 96
    },
    {
      "midi": 89,
      "hit": false,
      "t": 184997.37900000025,
      "d": 304.9111208333343,
      "v": 96
    },
    {
      "midi": 44,
      "hit": false,
      "t": 185143.1040000012,
      "d": 101.33942083333386,
      "v": 96
    },
    {
      "midi": 56,
      "hit": false,
      "t": 185143.1040000012,
      "d": 101.33942083333386,
      "v": 96
    },
    {
      "midi": 44,
      "hit": false,
      "t": 185250.24700000123,
      "d": 101.33942083333386,
      "v": 96
    },
    {
      "midi": 56,
      "hit": false,
      "t": 185250.24700000123,
      "d": 101.33942083333386,
      "v": 96
    },
    {
      "midi": 79,
      "hit": false,
      "t": 185318.80800000025,
      "d": 101.33942083333386,
      "v": 96
    },
    {
      "midi": 91,
      "hit": false,
      "t": 185318.80800000025,
      "d": 101.33942083333386,
      "v": 96
    },
    {
      "midi": 44,
      "hit": false,
      "t": 185357.39000000124,
      "d": 106.69657083333004,
      "v": 96
    },
    {
      "midi": 56,
      "hit": false,
      "t": 185357.39000000124,
      "d": 106.69657083333004,
      "v": 96
    },
    {
      "midi": 79,
      "hit": false,
      "t": 185533.09400000024,
      "d": 101.33942083333386,
      "v": 96
    },
    {
      "midi": 91,
      "hit": false,
      "t": 185533.09400000024,
      "d": 101.33942083333386,
      "v": 96
    },
    {
      "midi": 24,
      "hit": false,
      "t": 185571.67600000123,
      "d": 428.12557083333377,
      "v": 115
    },
    {
      "midi": 36,
      "hit": false,
      "t": 185571.67600000123,
      "d": 428.12557083333377,
      "v": 115
    },
    {
      "midi": 71,
      "hit": false,
      "t": 185640.23700000026,
      "d": 101.33942083333386,
      "v": 96
    },
    {
      "midi": 83,
      "hit": false,
      "t": 185640.23700000026,
      "d": 101.33942083333386,
      "v": 96
    },
    {
      "midi": 72,
      "hit": false,
      "t": 185747.38000000027,
      "d": 101.33942083333386,
      "v": 96
    },
    {
      "midi": 84,
      "hit": false,
      "t": 185747.38000000027,
      "d": 101.33942083333386,
      "v": 96
    },
    {
      "midi": 73,
      "hit": false,
      "t": 185854.52300000028,
      "d": 101.33942083333386,
      "v": 96
    },
    {
      "midi": 85,
      "hit": false,
      "t": 185854.52300000028,
      "d": 101.33942083333386,
      "v": 96
    },
    {
      "midi": 74,
      "hit": false,
      "t": 185961.6660000003,
      "d": 101.33942083333386,
      "v": 96
    },
    {
      "midi": 86,
      "hit": false,
      "t": 185961.6660000003,
      "d": 101.33942083333386,
      "v": 96
    },
    {
      "midi": 43,
      "hit": false,
      "t": 186000.24800000124,
      "d": 101.33942083333386,
      "v": 96
    },
    {
      "midi": 55,
      "hit": false,
      "t": 186000.24800000124,
      "d": 101.33942083333386,
      "v": 96
    },
    {
      "midi": 75,
      "hit": false,
      "t": 186068.8090000003,
      "d": 101.33942083333386,
      "v": 96
    },
    {
      "midi": 87,
      "hit": false,
      "t": 186068.8090000003,
      "d": 101.33942083333386,
      "v": 96
    },
    {
      "midi": 43,
      "hit": false,
      "t": 186107.39100000125,
      "d": 101.33942083333386,
      "v": 96
    },
    {
      "midi": 55,
      "hit": false,
      "t": 186107.39100000125,
      "d": 101.33942083333386,
      "v": 96
    },
    {
      "midi": 76,
      "hit": false,
      "t": 186175.9520000003,
      "d": 101.33942083333386,
      "v": 96
    },
    {
      "midi": 88,
      "hit": false,
      "t": 186175.9520000003,
      "d": 101.33942083333386,
      "v": 96
    },
    {
      "midi": 43,
      "hit": false,
      "t": 186214.53400000127,
      "d": 106.69657083333004,
      "v": 96
    },
    {
      "midi": 55,
      "hit": false,
      "t": 186214.53400000127,
      "d": 106.69657083333004,
      "v": 96
    },
    {
      "midi": 72,
      "hit": false,
      "t": 186283.09500000032,
      "d": 101.33942083333386,
      "v": 96
    },
    {
      "midi": 84,
      "hit": false,
      "t": 186283.09500000032,
      "d": 101.33942083333386,
      "v": 96
    },
    {
      "midi": 96,
      "hit": false,
      "t": 186283.09500000032,
      "d": 101.33942083333386,
      "v": 96
    },
    {
      "midi": 72,
      "hit": false,
      "t": 186390.23800000033,
      "d": 101.33942083333386,
      "v": 96
    },
    {
      "midi": 84,
      "hit": false,
      "t": 186390.23800000033,
      "d": 101.33942083333386,
      "v": 96
    },
    {
      "midi": 96,
      "hit": false,
      "t": 186390.23800000033,
      "d": 101.33942083333386,
      "v": 96
    },
    {
      "midi": 55,
      "hit": false,
      "t": 186428.82000000126,
      "d": 101.33942083333386,
      "v": 96
    },
    {
      "midi": 72,
      "hit": false,
      "t": 186497.38100000034,
      "d": 106.69657083333004,
      "v": 96
    },
    {
      "midi": 84,
      "hit": false,
      "t": 186497.38100000034,
      "d": 106.69657083333004,
      "v": 96
    },
    {
      "midi": 96,
      "hit": false,
      "t": 186497.38100000034,
      "d": 106.69657083333004,
      "v": 96
    },
    {
      "midi": 53,
      "hit": false,
      "t": 186535.96300000127,
      "d": 101.33942083333386,
      "v": 96
    },
    {
      "midi": 52,
      "hit": false,
      "t": 186643.10600000128,
      "d": 101.33942083333386,
      "v": 96
    },
    {
      "midi": 55,
      "hit": false,
      "t": 186750.2490000013,
      "d": 101.33942083333386,
      "v": 96
    },
    {
      "midi": 53,
      "hit": false,
      "t": 186857.3920000013,
      "d": 135.26803750000545,
      "v": 96
    },
    {
      "midi": 65,
      "hit": false,
      "t": 186857.3920000013,
      "d": 135.26803750000545,
      "v": 96
    },
    {
      "midi": 52,
      "hit": false,
      "t": 187000.24933333465,
      "d": 135.26803750000545,
      "v": 96
    },
    {
      "midi": 64,
      "hit": false,
      "t": 187000.24933333465,
      "d": 135.26803750000545,
      "v": 96
    },
    {
      "midi": 70,
      "hit": false,
      "t": 187140.23900000035,
      "d": 101.33942083333386,
      "v": 96
    },
    {
      "midi": 82,
      "hit": false,
      "t": 187140.23900000035,
      "d": 101.33942083333386,
      "v": 96
    },
    {
      "midi": 94,
      "hit": false,
      "t": 187140.23900000035,
      "d": 101.33942083333386,
      "v": 96
    },
    {
      "midi": 51,
      "hit": false,
      "t": 187143.106666668,
      "d": 135.26803750000545,
      "v": 96
    },
    {
      "midi": 63,
      "hit": false,
      "t": 187143.106666668,
      "d": 135.26803750000545,
      "v": 96
    },
    {
      "midi": 70,
      "hit": false,
      "t": 187247.38200000036,
      "d": 101.33942083333386,
      "v": 96
    },
    {
      "midi": 82,
      "hit": false,
      "t": 187247.38200000036,
      "d": 101.33942083333386,
      "v": 96
    },
    {
      "midi": 94,
      "hit": false,
      "t": 187247.38200000036,
      "d": 101.33942083333386,
      "v": 96
    },
    {
      "midi": 50,
      "hit": false,
      "t": 187285.96400000135,
      "d": 135.26803750000545,
      "v": 96
    },
    {
      "midi": 62,
      "hit": false,
      "t": 187285.96400000135,
      "d": 135.26803750000545,
      "v": 96
    },
    {
      "midi": 70,
      "hit": false,
      "t": 187354.52500000037,
      "d": 106.69657083333004,
      "v": 96
    },
    {
      "midi": 82,
      "hit": false,
      "t": 187354.52500000037,
      "d": 106.69657083333004,
      "v": 96
    },
    {
      "midi": 94,
      "hit": false,
      "t": 187354.52500000037,
      "d": 106.69657083333004,
      "v": 96
    },
    {
      "midi": 49,
      "hit": false,
      "t": 187428.8213333347,
      "d": 135.26803750000545,
      "v": 96
    },
    {
      "midi": 61,
      "hit": false,
      "t": 187428.8213333347,
      "d": 135.26803750000545,
      "v": 96
    },
    {
      "midi": 48,
      "hit": false,
      "t": 187571.67866666804,
      "d": 135.26803750000545,
      "v": 96
    },
    {
      "midi": 60,
      "hit": false,
      "t": 187571.67866666804,
      "d": 135.26803750000545,
      "v": 96
    },
    {
      "midi": 47,
      "hit": false,
      "t": 187714.5360000014,
      "d": 135.26803750000545,
      "v": 96
    },
    {
      "midi": 59,
      "hit": false,
      "t": 187714.5360000014,
      "d": 135.26803750000545,
      "v": 96
    },
    {
      "midi": 46,
      "hit": false,
      "t": 187857.39333333474,
      "d": 135.26803750000545,
      "v": 96
    },
    {
      "midi": 58,
      "hit": false,
      "t": 187857.39333333474,
      "d": 135.26803750000545,
      "v": 96
    },
    {
      "midi": 68,
      "hit": false,
      "t": 187997.38300000038,
      "d": 101.33942083333386,
      "v": 96
    },
    {
      "midi": 80,
      "hit": false,
      "t": 187997.38300000038,
      "d": 101.33942083333386,
      "v": 96
    },
    {
      "midi": 92,
      "hit": false,
      "t": 187997.38300000038,
      "d": 101.33942083333386,
      "v": 96
    },
    {
      "midi": 45,
      "hit": false,
      "t": 188000.2506666681,
      "d": 135.26803750000545,
      "v": 96
    },
    {
      "midi": 57,
      "hit": false,
      "t": 188000.2506666681,
      "d": 135.26803750000545,
      "v": 96
    },
    {
      "midi": 68,
      "hit": false,
      "t": 188104.5260000004,
      "d": 101.33942083333386,
      "v": 96
    },
    {
      "midi": 80,
      "hit": false,
      "t": 188104.5260000004,
      "d": 101.33942083333386,
      "v": 96
    },
    {
      "midi": 92,
      "hit": false,
      "t": 188104.5260000004,
      "d": 101.33942083333386,
      "v": 96
    },
    {
      "midi": 47,
      "hit": false,
      "t": 188143.10800000143,
      "d": 135.26803750000545,
      "v": 96
    },
    {
      "midi": 59,
      "hit": false,
      "t": 188143.10800000143,
      "d": 135.26803750000545,
      "v": 96
    },
    {
      "midi": 68,
      "hit": false,
      "t": 188211.6690000004,
      "d": 106.69657083333004,
      "v": 96
    },
    {
      "midi": 80,
      "hit": false,
      "t": 188211.6690000004,
      "d": 106.69657083333004,
      "v": 96
    },
    {
      "midi": 92,
      "hit": false,
      "t": 188211.6690000004,
      "d": 106.69657083333004,
      "v": 96
    },
    {
      "midi": 48,
      "hit": false,
      "t": 188285.96533333478,
      "d": 135.26803750000545,
      "v": 96
    },
    {
      "midi": 60,
      "hit": false,
      "t": 188285.96533333478,
      "d": 135.26803750000545,
      "v": 96
    },
    {
      "midi": 49,
      "hit": false,
      "t": 188428.82266666813,
      "d": 135.26803750000545,
      "v": 96
    },
    {
      "midi": 61,
      "hit": false,
      "t": 188428.82266666813,
      "d": 135.26803750000545,
      "v": 96
    },
    {
      "midi": 48,
      "hit": false,
      "t": 188571.68000000148,
      "d": 135.26803750000545,
      "v": 96
    },
    {
      "midi": 60,
      "hit": false,
      "t": 188571.68000000148,
      "d": 135.26803750000545,
      "v": 96
    },
    {
      "midi": 44,
      "hit": false,
      "t": 188714.53733333483,
      "d": 135.26803750000545,
      "v": 96
    },
    {
      "midi": 56,
      "hit": false,
      "t": 188714.53733333483,
      "d": 135.26803750000545,
      "v": 96
    },
    {
      "midi": 67,
      "hit": false,
      "t": 188854.5270000004,
      "d": 101.33942083333386,
      "v": 96
    },
    {
      "midi": 79,
      "hit": false,
      "t": 188854.5270000004,
      "d": 101.33942083333386,
      "v": 96
    },
    {
      "midi": 91,
      "hit": false,
      "t": 188854.5270000004,
      "d": 101.33942083333386,
      "v": 96
    },
    {
      "midi": 41,
      "hit": false,
      "t": 188857.39466666817,
      "d": 135.26803750000545,
      "v": 96
    },
    {
      "midi": 53,
      "hit": false,
      "t": 188857.39466666817,
      "d": 135.26803750000545,
      "v": 96
    },
    {
      "midi": 67,
      "hit": false,
      "t": 188961.67000000042,
      "d": 101.33942083333386,
      "v": 96
    },
    {
      "midi": 79,
      "hit": false,
      "t": 188961.67000000042,
      "d": 101.33942083333386,
      "v": 96
    },
    {
      "midi": 91,
      "hit": false,
      "t": 188961.67000000042,
      "d": 101.33942083333386,
      "v": 96
    },
    {
      "midi": 43,
      "hit": false,
      "t": 189000.25200000152,
      "d": 135.26803750000545,
      "v": 96
    },
    {
      "midi": 55,
      "hit": false,
      "t": 189000.25200000152,
      "d": 135.26803750000545,
      "v": 96
    },
    {
      "midi": 67,
      "hit": false,
      "t": 189068.81300000043,
      "d": 106.69657083333004,
      "v": 96
    },
    {
      "midi": 79,
      "hit": false,
      "t": 189068.81300000043,
      "d": 106.69657083333004,
      "v": 96
    },
    {
      "midi": 91,
      "hit": false,
      "t": 189068.81300000043,
      "d": 106.69657083333004,
      "v": 96
    },
    {
      "midi": 40,
      "hit": false,
      "t": 189143.10933333487,
      "d": 135.26803750000545,
      "v": 96
    },
    {
      "midi": 52,
      "hit": false,
      "t": 189143.10933333487,
      "d": 135.26803750000545,
      "v": 96
    },
    {
      "midi": 79,
      "hit": false,
      "t": 189283.09900000042,
      "d": 101.33942083333386,
      "v": 96
    },
    {
      "midi": 91,
      "hit": false,
      "t": 189283.09900000042,
      "d": 101.33942083333386,
      "v": 96
    },
    {
      "midi": 36,
      "hit": false,
      "t": 189285.96666666822,
      "d": 135.26803750000545,
      "v": 96
    },
    {
      "midi": 48,
      "hit": false,
      "t": 189285.96666666822,
      "d": 135.26803750000545,
      "v": 96
    },
    {
      "midi": 77,
      "hit": false,
      "t": 189390.24200000043,
      "d": 101.33942083333386,
      "v": 96
    },
    {
      "midi": 89,
      "hit": false,
      "t": 189390.24200000043,
      "d": 101.33942083333386,
      "v": 96
    },
    {
      "midi": 37,
      "hit": false,
      "t": 189428.82400000156,
      "d": 135.26803750000545,
      "v": 96
    },
    {
      "midi": 49,
      "hit": false,
      "t": 189428.82400000156,
      "d": 135.26803750000545,
      "v": 96
    },
    {
      "midi": 76,
      "hit": false,
      "t": 189497.38500000045,
      "d": 101.33942083333386,
      "v": 96
    },
    {
      "midi": 88,
      "hit": false,
      "t": 189497.38500000045,
      "d": 101.33942083333386,
      "v": 96
    },
    {
      "midi": 32,
      "hit": false,
      "t": 189571.6813333349,
      "d": 135.26803750000545,
      "v": 96
    },
    {
      "midi": 44,
      "hit": false,
      "t": 189571.6813333349,
      "d": 135.26803750000545,
      "v": 96
    },
    {
      "midi": 79,
      "hit": false,
      "t": 189604.52800000046,
      "d": 101.33942083333386,
      "v": 96
    },
    {
      "midi": 91,
      "hit": false,
      "t": 189604.52800000046,
      "d": 101.33942083333386,
      "v": 96
    },
    {
      "midi": 77,
      "hit": false,
      "t": 189711.67100000047,
      "d": 135.26803750000545,
      "v": 96
    },
    {
      "midi": 89,
      "hit": false,
      "t": 189711.67100000047,
      "d": 135.26803750000545,
      "v": 96
    },
    {
      "midi": 29,
      "hit": false,
      "t": 189714.53866666826,
      "d": 135.26803750000545,
      "v": 96
    },
    {
      "midi": 41,
      "hit": false,
      "t": 189714.53866666826,
      "d": 135.26803750000545,
      "v": 96
    },
    {
      "midi": 76,
      "hit": false,
      "t": 189854.52833333382,
      "d": 135.26803750000545,
      "v": 96
    },
    {
      "midi": 88,
      "hit": false,
      "t": 189854.52833333382,
      "d": 135.26803750000545,
      "v": 96
    },
    {
      "midi": 31,
      "hit": false,
      "t": 189857.3960000016,
      "d": 135.26803750000545,
      "v": 96
    },
    {
      "midi": 43,
      "hit": false,
      "t": 189857.3960000016,
      "d": 135.26803750000545,
      "v": 96
    },
    {
      "midi": 75,
      "hit": false,
      "t": 189997.38566666716,
      "d": 135.26803750000545,
      "v": 96
    },
    {
      "midi": 87,
      "hit": false,
      "t": 189997.38566666716,
      "d": 135.26803750000545,
      "v": 96
    },
    {
      "midi": 32,
      "hit": false,
      "t": 190000.25333333496,
      "d": 135.26803750000545,
      "v": 96
    },
    {
      "midi": 44,
      "hit": false,
      "t": 190000.25333333496,
      "d": 135.26803750000545,
      "v": 96
    },
    {
      "midi": 74,
      "hit": false,
      "t": 190140.2430000005,
      "d": 135.26803750000545,
      "v": 96
    },
    {
      "midi": 86,
      "hit": false,
      "t": 190140.2430000005,
      "d": 135.26803750000545,
      "v": 96
    },
    {
      "midi": 31,
      "hit": false,
      "t": 190143.1106666683,
      "d": 135.26803750000545,
      "v": 96
    },
    {
      "midi": 43,
      "hit": false,
      "t": 190143.1106666683,
      "d": 135.26803750000545,
      "v": 96
    },
    {
      "midi": 73,
      "hit": false,
      "t": 190283.10033333386,
      "d": 135.26803750000545,
      "v": 96
    },
    {
      "midi": 85,
      "hit": false,
      "t": 190283.10033333386,
      "d": 135.26803750000545,
      "v": 96
    },
    {
      "midi": 29,
      "hit": false,
      "t": 190285.96800000165,
      "d": 406.69697083331994,
      "v": 96
    },
    {
      "midi": 41,
      "hit": false,
      "t": 190285.96800000165,
      "d": 406.69697083331994,
      "v": 96
    },
    {
      "midi": 72,
      "hit": false,
      "t": 190425.9576666672,
      "d": 135.26803750000545,
      "v": 96
    },
    {
      "midi": 84,
      "hit": false,
      "t": 190425.9576666672,
      "d": 135.26803750000545,
      "v": 96
    },
    {
      "midi": 71,
      "hit": false,
      "t": 190568.81500000056,
      "d": 135.26803750000545,
      "v": 96
    },
    {
      "midi": 83,
      "hit": false,
      "t": 190568.81500000056,
      "d": 135.26803750000545,
      "v": 96
    },
    {
      "midi": 70,
      "hit": false,
      "t": 190711.6723333339,
      "d": 135.26803750000545,
      "v": 96
    },
    {
      "midi": 82,
      "hit": false,
      "t": 190711.6723333339,
      "d": 135.26803750000545,
      "v": 96
    },
    {
      "midi": 69,
      "hit": false,
      "t": 190854.52966666725,
      "d": 135.26803750000545,
      "v": 96
    },
    {
      "midi": 81,
      "hit": false,
      "t": 190854.52966666725,
      "d": 135.26803750000545,
      "v": 96
    },
    {
      "midi": 71,
      "hit": false,
      "t": 190997.3870000006,
      "d": 135.26803750000545,
      "v": 96
    },
    {
      "midi": 83,
      "hit": false,
      "t": 190997.3870000006,
      "d": 135.26803750000545,
      "v": 96
    },
    {
      "midi": 72,
      "hit": false,
      "t": 191140.24433333395,
      "d": 135.26803750000545,
      "v": 96
    },
    {
      "midi": 84,
      "hit": false,
      "t": 191140.24433333395,
      "d": 135.26803750000545,
      "v": 96
    },
    {
      "midi": 73,
      "hit": false,
      "t": 191283.1016666673,
      "d": 135.26803750000545,
      "v": 96
    },
    {
      "midi": 85,
      "hit": false,
      "t": 191283.1016666673,
      "d": 135.26803750000545,
      "v": 96
    },
    {
      "midi": 72,
      "hit": false,
      "t": 191425.95900000064,
      "d": 135.26803750000545,
      "v": 96
    },
    {
      "midi": 84,
      "hit": false,
      "t": 191425.95900000064,
      "d": 135.26803750000545,
      "v": 96
    },
    {
      "midi": 68,
      "hit": false,
      "t": 191568.816333334,
      "d": 135.26803750000545,
      "v": 96
    },
    {
      "midi": 80,
      "hit": false,
      "t": 191568.816333334,
      "d": 135.26803750000545,
      "v": 96
    },
    {
      "midi": 29,
      "hit": false,
      "t": 191571.68400000164,
      "d": 406.69697083331994,
      "v": 96
    },
    {
      "midi": 41,
      "hit": false,
      "t": 191571.68400000164,
      "d": 406.69697083331994,
      "v": 96
    },
    {
      "midi": 53,
      "hit": false,
      "t": 191571.68400000164,
      "d": 406.69697083331994,
      "v": 96
    },
    {
      "midi": 65,
      "hit": false,
      "t": 191711.67366666734,
      "d": 135.26803750000545,
      "v": 96
    },
    {
      "midi": 77,
      "hit": false,
      "t": 191711.67366666734,
      "d": 135.26803750000545,
      "v": 96
    },
    {
      "midi": 67,
      "hit": false,
      "t": 191854.5310000007,
      "d": 135.26803750000545,
      "v": 96
    },
    {
      "midi": 79,
      "hit": false,
      "t": 191854.5310000007,
      "d": 135.26803750000545,
      "v": 96
    },
    {
      "midi": 64,
      "hit": false,
      "t": 191997.38833333403,
      "d": 135.26803750000545,
      "v": 96
    },
    {
      "midi": 76,
      "hit": false,
      "t": 191997.38833333403,
      "d": 135.26803750000545,
      "v": 96
    },
    {
      "midi": 60,
      "hit": false,
      "t": 192140.24566666738,
      "d": 135.26803750000545,
      "v": 96
    },
    {
      "midi": 72,
      "hit": false,
      "t": 192140.24566666738,
      "d": 135.26803750000545,
      "v": 96
    },
    {
      "midi": 29,
      "hit": false,
      "t": 192214.54200000162,
      "d": 213.83957083334099,
      "v": 96
    },
    {
      "midi": 41,
      "hit": false,
      "t": 192214.54200000162,
      "d": 213.83957083334099,
      "v": 96
    },
    {
      "midi": 53,
      "hit": false,
      "t": 192214.54200000162,
      "d": 213.83957083334099,
      "v": 96
    },
    {
      "midi": 61,
      "hit": false,
      "t": 192283.10300000073,
      "d": 135.26803750000545,
      "v": 96
    },
    {
      "midi": 73,
      "hit": false,
      "t": 192283.10300000073,
      "d": 135.26803750000545,
      "v": 96
    },
    {
      "midi": 56,
      "hit": false,
      "t": 192425.96033333408,
      "d": 135.26803750000545,
      "v": 96
    },
    {
      "midi": 68,
      "hit": false,
      "t": 192425.96033333408,
      "d": 135.26803750000545,
      "v": 96
    },
    {
      "midi": 53,
      "hit": false,
      "t": 192568.81766666743,
      "d": 135.26803750000545,
      "v": 96
    },
    {
      "midi": 65,
      "hit": false,
      "t": 192568.81766666743,
      "d": 135.26803750000545,
      "v": 96
    },
    {
      "midi": 55,
      "hit": false,
      "t": 192711.67500000077,
      "d": 135.26803750000545,
      "v": 96
    },
    {
      "midi": 67,
      "hit": false,
      "t": 192711.67500000077,
      "d": 135.26803750000545,
      "v": 96
    },
    {
      "midi": 56,
      "hit": false,
      "t": 192854.53233333412,
      "d": 135.26803750000545,
      "v": 96
    },
    {
      "midi": 68,
      "hit": false,
      "t": 192854.53233333412,
      "d": 135.26803750000545,
      "v": 96
    },
    {
      "midi": 55,
      "hit": false,
      "t": 192997.38966666747,
      "d": 135.26803750000545,
      "v": 96
    },
    {
      "midi": 67,
      "hit": false,
      "t": 192997.38966666747,
      "d": 135.26803750000545,
      "v": 96
    },
    {
      "midi": 53,
      "hit": false,
      "t": 193140.24700000082,
      "d": 406.69697083331994,
      "v": 96
    },
    {
      "midi": 65,
      "hit": false,
      "t": 193140.24700000082,
      "d": 406.69697083331994,
      "v": 96
    },
    {
      "midi": 65,
      "hit": false,
      "t": 193783.1050000008,
      "d": 101.33942083333386,
      "v": 96
    },
    {
      "midi": 77,
      "hit": false,
      "t": 193783.1050000008,
      "d": 101.33942083333386,
      "v": 96
    },
    {
      "midi": 89,
      "hit": false,
      "t": 193783.1050000008,
      "d": 101.33942083333386,
      "v": 96
    },
    {
      "midi": 65,
      "hit": false,
      "t": 193890.2480000008,
      "d": 101.33942083333386,
      "v": 96
    },
    {
      "midi": 77,
      "hit": false,
      "t": 193890.2480000008,
      "d": 101.33942083333386,
      "v": 96
    },
    {
      "midi": 89,
      "hit": false,
      "t": 193890.2480000008,
      "d": 101.33942083333386,
      "v": 96
    },
    {
      "midi": 65,
      "hit": false,
      "t": 193997.39100000082,
      "d": 213.83957083334099,
      "v": 96
    },
    {
      "midi": 77,
      "hit": false,
      "t": 193997.39100000082,
      "d": 213.83957083334099,
      "v": 96
    },
    {
      "midi": 89,
      "hit": false,
      "t": 193997.39100000082,
      "d": 213.83957083334099,
      "v": 96
    },
    {
      "midi": 84,
      "hit": false,
      "t": 194747.39200000084,
      "d": 19.642883333319332,
      "v": 96
    },
    {
      "midi": 85,
      "hit": false,
      "t": 194768.82060000082,
      "d": 19.642883333319332,
      "v": 96
    },
    {
      "midi": 86,
      "hit": false,
      "t": 194790.2492000008,
      "d": 19.642883333319332,
      "v": 96
    },
    {
      "midi": 87,
      "hit": false,
      "t": 194811.6778000008,
      "d": 19.642883333319332,
      "v": 96
    },
    {
      "midi": 88,
      "hit": false,
      "t": 194833.10640000078,
      "d": 19.642883333319332,
      "v": 96
    },
    {
      "midi": 77,
      "hit": false,
      "t": 194854.53500000076,
      "d": 213.83957083334099,
      "v": 96
    },
    {
      "midi": 89,
      "hit": false,
      "t": 194854.53500000076,
      "d": 213.83957083334099,
      "v": 96
    }
  ]
}