{
  "jsonPath": "Rock/Modern Rock/Time/time-changes.json",
  "path": "Rock\\Modern Rock\\Time\\Time Changes.mid",
  "name": "Time Changes",
  "difficulty": "Advanced",
  "bpm": 78.00017940041262,
  "notes": [
    {
      "midi": 52,
      "hit": false,
      "t": 4444.4439999999995,
      "d": 578.7036458333341,
      "v": 112
    },
    {
      "midi": 55,
      "hit": false,
      "t": 4444.4439999999995,
      "d": 578.7036458333341,
      "v": 112
    },
    {
      "midi": 36,
      "hit": false,
      "t": 4444.4439999999995,
      "d": 3888.8885000000028,
      "v": 112
    },
    {
      "midi": 48,
      "hit": false,
      "t": 4999.9995,
      "d": 555.5555000000004,
      "v": 127
    },
    {
      "midi": 52,
      "hit": false,
      "t": 5555.555,
      "d": 555.5555000000004,
      "v": 127
    },
    {
      "midi": 55,
      "hit": false,
      "t": 5555.555,
      "d": 555.5555000000004,
      "v": 127
    },
    {
      "midi": 48,
      "hit": false,
      "t": 6111.110500000001,
      "d": 578.7036458333341,
      "v": 127
    },
    {
      "midi": 52,
      "hit": false,
      "t": 6666.666000000001,
      "d": 509.25920833333385,
      "v": 127
    },
    {
      "midi": 55,
      "hit": false,
      "t": 6666.666000000001,
      "d": 532.4073541666676,
      "v": 127
    },
    {
      "midi": 48,
      "hit": false,
      "t": 7222.221500000002,
      "d": 601.851791666666,
      "v": 127
    },
    {
      "midi": 52,
      "hit": false,
      "t": 7777.777000000002,
      "d": 462.9629166666673,
      "v": 127
    },
    {
      "midi": 59,
      "hit": false,
      "t": 7777.777000000002,
      "d": 486.1110625000001,
      "v": 127
    },
    {
      "midi": 55,
      "hit": false,
      "t": 7777.777000000002,
      "d": 509.25920833333294,
      "v": 127
    },
    {
      "midi": 48,
      "hit": false,
      "t": 8333.332500000002,
      "d": 578.7036458333332,
      "v": 127
    },
    {
      "midi": 53,
      "hit": false,
      "t": 8888.888000000003,
      "d": 555.5554999999986,
      "v": 127
    },
    {
      "midi": 57,
      "hit": false,
      "t": 8888.888000000003,
      "d": 578.7036458333314,
      "v": 127
    },
    {
      "midi": 60,
      "hit": false,
      "t": 8888.888000000003,
      "d": 578.7036458333314,
      "v": 127
    },
    {
      "midi": 41,
      "hit": false,
      "t": 8888.888000000003,
      "d": 3472.2218749999975,
      "v": 127
    },
    {
      "midi": 48,
      "hit": false,
      "t": 9444.443500000001,
      "d": 532.4073541666658,
      "v": 127
    },
    {
      "midi": 53,
      "hit": false,
      "t": 9999.999,
      "d": 532.4073541666658,
      "v": 127
    },
    {
      "midi": 57,
      "hit": false,
      "t": 9999.999,
      "d": 555.5554999999986,
      "v": 127
    },
    {
      "midi": 60,
      "hit": false,
      "t": 9999.999,
      "d": 555.5554999999986,
      "v": 127
    },
    {
      "midi": 48,
      "hit": false,
      "t": 10555.554499999998,
      "d": 601.8517916666679,
      "v": 127
    },
    {
      "midi": 53,
      "hit": false,
      "t": 11111.109999999999,
      "d": 439.8147708333345,
      "v": 126
    },
    {
      "midi": 60,
      "hit": false,
      "t": 11111.109999999999,
      "d": 509.25920833333475,
      "v": 127
    },
    {
      "midi": 57,
      "hit": false,
      "t": 11111.109999999999,
      "d": 532.4073541666676,
      "v": 127
    },
    {
      "midi": 48,
      "hit": false,
      "t": 11666.6655,
      "d": 694.444375000001,
      "v": 127
    },
    {
      "midi": 57,
      "hit": false,
      "t": 12222.221,
      "d": 324.07404166666856,
      "v": 127
    },
    {
      "midi": 53,
      "hit": false,
      "t": 12222.221,
      "d": 462.9629166666691,
      "v": 127
    },
    {
      "midi": 58,
      "hit": false,
      "t": 12499.99875,
      "d": 370.3703333333342,
      "v": 126
    },
    {
      "midi": 59,
      "hit": false,
      "t": 12777.776500000002,
      "d": 578.7036458333332,
      "v": 127
    },
    {
      "midi": 55,
      "hit": false,
      "t": 13333.332000000002,
      "d": 509.25920833333294,
      "v": 124
    },
    {
      "midi": 52,
      "hit": false,
      "t": 13333.332000000002,
      "d": 532.4073541666658,
      "v": 112
    },
    {
      "midi": 62,
      "hit": false,
      "t": 13333.332000000002,
      "d": 555.5554999999986,
      "v": 127
    },
    {
      "midi": 36,
      "hit": false,
      "t": 13333.332000000002,
      "d": 3842.5922083333317,
      "v": 127
    },
    {
      "midi": 48,
      "hit": false,
      "t": 13888.8875,
      "d": 601.8517916666679,
      "v": 127
    },
    {
      "midi": 52,
      "hit": false,
      "t": 14444.443000000001,
      "d": 532.4073541666676,
      "v": 127
    },
    {
      "midi": 55,
      "hit": false,
      "t": 14444.443000000001,
      "d": 532.4073541666676,
      "v": 127
    },
    {
      "midi": 48,
      "hit": false,
      "t": 14999.998500000002,
      "d": 555.5555000000004,
      "v": 127
    },
    {
      "midi": 52,
      "hit": false,
      "t": 15555.554000000002,
      "d": 555.5555000000004,
      "v": 127
    },
    {
      "midi": 55,
      "hit": false,
      "t": 15555.554000000002,
      "d": 555.5555000000004,
      "v": 127
    },
    {
      "midi": 48,
      "hit": false,
      "t": 16111.109500000002,
      "d": 555.5554999999986,
      "v": 127
    },
    {
      "midi": 52,
      "hit": false,
      "t": 16666.665,
      "d": 555.5554999999986,
      "v": 127
    },
    {
      "midi": 55,
      "hit": false,
      "t": 16666.665,
      "d": 555.5554999999986,
      "v": 125
    },
    {
      "midi": 59,
      "hit": false,
      "t": 16666.665,
      "d": 578.7036458333314,
      "v": 127
    },
    {
      "midi": 48,
      "hit": false,
      "t": 17222.2205,
      "d": 578.7036458333314,
      "v": 127
    },
    {
      "midi": 60,
      "hit": false,
      "t": 17777.775999999998,
      "d": 509.25920833333294,
      "v": 127
    },
    {
      "midi": 53,
      "hit": false,
      "t": 17777.775999999998,
      "d": 532.4073541666658,
      "v": 127
    },
    {
      "midi": 57,
      "hit": false,
      "t": 17777.775999999998,
      "d": 532.4073541666658,
      "v": 127
    },
    {
      "midi": 41,
      "hit": false,
      "t": 17777.775999999998,
      "d": 3726.8514791666566,
      "v": 127
    },
    {
      "midi": 48,
      "hit": false,
      "t": 18333.331499999997,
      "d": 555.5554999999986,
      "v": 127
    },
    {
      "midi": 60,
      "hit": false,
      "t": 18888.886999999995,
      "d": 509.25920833333294,
      "v": 127
    },
    {
      "midi": 57,
      "hit": false,
      "t": 18888.886999999995,
      "d": 532.4073541666658,
      "v": 127
    },
    {
      "midi": 53,
      "hit": false,
      "t": 18888.886999999995,
      "d": 555.5554999999986,
      "v": 127
    },
    {
      "midi": 48,
      "hit": false,
      "t": 19444.442499999994,
      "d": 578.7036458333314,
      "v": 127
    },
    {
      "midi": 53,
      "hit": false,
      "t": 19999.997999999992,
      "d": 532.4073541666658,
      "v": 127
    },
    {
      "midi": 60,
      "hit": false,
      "t": 19999.997999999992,
      "d": 555.5554999999986,
      "v": 127
    },
    {
      "midi": 57,
      "hit": false,
      "t": 19999.997999999992,
      "d": 601.8517916666642,
      "v": 127
    },
    {
      "midi": 48,
      "hit": false,
      "t": 20555.55349999999,
      "d": 1041.6665624999987,
      "v": 127
    },
    {
      "midi": 53,
      "hit": false,
      "t": 21111.10899999999,
      "d": 324.07404166666674,
      "v": 127
    },
    {
      "midi": 57,
      "hit": false,
      "t": 21111.10899999999,
      "d": 347.22218749999956,
      "v": 127
    },
    {
      "midi": 58,
      "hit": false,
      "t": 21388.88674999999,
      "d": 347.2221874999959,
      "v": 127
    },
    {
      "midi": 59,
      "hit": false,
      "t": 21666.664499999988,
      "d": 601.8517916666642,
      "v": 127
    },
    {
      "midi": 55,
      "hit": false,
      "t": 22222.219999999987,
      "d": 462.96291666666366,
      "v": 127
    },
    {
      "midi": 52,
      "hit": false,
      "t": 22222.219999999987,
      "d": 509.2592083333293,
      "v": 120
    },
    {
      "midi": 62,
      "hit": false,
      "t": 22222.219999999987,
      "d": 509.2592083333293,
      "v": 127
    },
    {
      "midi": 36,
      "hit": false,
      "t": 22222.219999999987,
      "d": 3842.5922083333207,
      "v": 127
    },
    {
      "midi": 48,
      "hit": false,
      "t": 22777.77549999998,
      "d": 601.8517916666642,
      "v": 127
    },
    {
      "midi": 55,
      "hit": false,
      "t": 23333.33099999998,
      "d": 532.4073541666658,
      "v": 127
    },
    {
      "midi": 52,
      "hit": false,
      "t": 23333.33099999998,
      "d": 555.5554999999986,
      "v": 127
    },
    {
      "midi": 48,
      "hit": false,
      "t": 23888.88649999998,
      "d": 555.5554999999986,
      "v": 127
    },
    {
      "midi": 52,
      "hit": false,
      "t": 24444.441999999977,
      "d": 532.4073541666658,
      "v": 127
    },
    {
      "midi": 55,
      "hit": false,
      "t": 24444.441999999977,
      "d": 532.4073541666658,
      "v": 127
    },
    {
      "midi": 48,
      "hit": false,
      "t": 24999.997499999976,
      "d": 578.7036458333314,
      "v": 127
    },
    {
      "midi": 52,
      "hit": false,
      "t": 25555.552999999974,
      "d": 486.1110625000001,
      "v": 127
    },
    {
      "midi": 55,
      "hit": false,
      "t": 25555.552999999974,
      "d": 509.25920833333294,
      "v": 127
    },
    {
      "midi": 59,
      "hit": false,
      "t": 25555.552999999974,
      "d": 555.5554999999986,
      "v": 127
    },
    {
      "midi": 48,
      "hit": false,
      "t": 26111.108499999973,
      "d": 601.8517916666642,
      "v": 127
    },
    {
      "midi": 53,
      "hit": false,
      "t": 26666.66399999997,
      "d": 509.25920833333294,
      "v": 127
    },
    {
      "midi": 57,
      "hit": false,
      "t": 26666.66399999997,
      "d": 532.4073541666658,
      "v": 127
    },
    {
      "midi": 60,
      "hit": false,
      "t": 26666.66399999997,
      "d": 532.4073541666658,
      "v": 127
    },
    {
      "midi": 41,
      "hit": false,
      "t": 26666.66399999997,
      "d": 3796.2959166666587,
      "v": 127
    },
    {
      "midi": 48,
      "hit": false,
      "t": 27222.21949999997,
      "d": 578.7036458333314,
      "v": 127
    },
    {
      "midi": 53,
      "hit": false,
      "t": 27777.77499999997,
      "d": 578.7036458333314,
      "v": 127
    },
    {
      "midi": 57,
      "hit": false,
      "t": 27777.77499999997,
      "d": 578.7036458333314,
      "v": 127
    },
    {
      "midi": 60,
      "hit": false,
      "t": 27777.77499999997,
      "d": 578.7036458333314,
      "v": 127
    },
    {
      "midi": 48,
      "hit": false,
      "t": 28333.330499999967,
      "d": 578.7036458333314,
      "v": 127
    },
    {
      "midi": 53,
      "hit": false,
      "t": 28888.885999999966,
      "d": 555.5554999999986,
      "v": 127
    },
    {
      "midi": 60,
      "hit": false,
      "t": 28888.885999999966,
      "d": 578.7036458333314,
      "v": 127
    },
    {
      "midi": 57,
      "hit": false,
      "t": 28888.885999999966,
      "d": 601.8517916666642,
      "v": 127
    },
    {
      "midi": 48,
      "hit": false,
      "t": 29444.441499999964,
      "d": 1087.9628541666643,
      "v": 127
    },
    {
      "midi": 57,
      "hit": false,
      "t": 29999.996999999963,
      "d": 300.9258958333339,
      "v": 127
    },
    {
      "midi": 53,
      "hit": false,
      "t": 29999.996999999963,
      "d": 347.22218749999956,
      "v": 127
    },
    {
      "midi": 58,
      "hit": false,
      "t": 30277.774749999964,
      "d": 347.2221874999959,
      "v": 127
    },
    {
      "midi": 59,
      "hit": false,
      "t": 30555.55249999996,
      "d": 555.5554999999986,
      "v": 127
    },
    {
      "midi": 55,
      "hit": false,
      "t": 31111.10799999996,
      "d": 509.25920833333294,
      "v": 125
    },
    {
      "midi": 52,
      "hit": false,
      "t": 31111.10799999996,
      "d": 555.5554999999986,
      "v": 111
    },
    {
      "midi": 62,
      "hit": false,
      "t": 31111.10799999996,
      "d": 555.5554999999986,
      "v": 127
    },
    {
      "midi": 36,
      "hit": false,
      "t": 31111.10799999996,
      "d": 3888.8885000000046,
      "v": 127
    },
    {
      "midi": 48,
      "hit": false,
      "t": 31666.66349999996,
      "d": 578.7036458333314,
      "v": 127
    },
    {
      "midi": 52,
      "hit": false,
      "t": 32222.218999999957,
      "d": 555.5554999999986,
      "v": 127
    },
    {
      "midi": 55,
      "hit": false,
      "t": 32222.218999999957,
      "d": 555.5554999999986,
      "v": 127
    },
    {
      "midi": 48,
      "hit": false,
      "t": 32777.774499999956,
      "d": 601.8517916666679,
      "v": 127
    },
    {
      "midi": 52,
      "hit": false,
      "t": 33333.32999999996,
      "d": 555.5555000000022,
      "v": 127
    },
    {
      "midi": 55,
      "hit": false,
      "t": 33333.32999999996,
      "d": 578.7036458333387,
      "v": 127
    },
    {
      "midi": 48,
      "hit": false,
      "t": 33888.88549999996,
      "d": 601.8517916666679,
      "v": 127
    },
    {
      "midi": 52,
      "hit": false,
      "t": 34444.44099999996,
      "d": 555.5555000000022,
      "v": 127
    },
    {
      "midi": 55,
      "hit": false,
      "t": 34444.44099999996,
      "d": 578.7036458333387,
      "v": 127
    },
    {
      "midi": 59,
      "hit": false,
      "t": 34444.44099999996,
      "d": 578.7036458333387,
      "v": 127
    },
    {
      "midi": 48,
      "hit": false,
      "t": 34999.996499999965,
      "d": 578.7036458333387,
      "v": 127
    },
    {
      "midi": 53,
      "hit": false,
      "t": 35555.55199999997,
      "d": 509.2592083333366,
      "v": 127
    },
    {
      "midi": 57,
      "hit": false,
      "t": 35555.55199999997,
      "d": 532.407354166673,
      "v": 127
    },
    {
      "midi": 60,
      "hit": false,
      "t": 35555.55199999997,
      "d": 532.407354166673,
      "v": 127
    },
    {
      "midi": 41,
      "hit": false,
      "t": 35555.55199999997,
      "d": 3703.7033333333675,
      "v": 127
    },
    {
      "midi": 48,
      "hit": false,
      "t": 36111.10749999998,
      "d": 578.7036458333387,
      "v": 127
    },
    {
      "midi": 60,
      "hit": false,
      "t": 36666.66299999998,
      "d": 555.5555000000022,
      "v": 127
    },
    {
      "midi": 53,
      "hit": false,
      "t": 36666.66299999998,
      "d": 578.7036458333387,
      "v": 127
    },
    {
      "midi": 57,
      "hit": false,
      "t": 36666.66299999998,
      "d": 578.7036458333387,
      "v": 127
    },
    {
      "midi": 48,
      "hit": false,
      "t": 37222.21849999998,
      "d": 601.8517916666679,
      "v": 127
    },
    {
      "midi": 53,
      "hit": false,
      "t": 37777.77399999998,
      "d": 532.4073541666658,
      "v": 127
    },
    {
      "midi": 57,
      "hit": false,
      "t": 37777.77399999998,
      "d": 578.7036458333387,
      "v": 126
    },
    {
      "midi": 60,
      "hit": false,
      "t": 37777.77399999998,
      "d": 601.8517916666751,
      "v": 127
    },
    {
      "midi": 48,
      "hit": false,
      "t": 38333.329499999985,
      "d": 925.9258333333491,
      "v": 127
    },
    {
      "midi": 57,
      "hit": false,
      "t": 38888.884999999995,
      "d": 324.07404166666674,
      "v": 127
    },
    {
      "midi": 53,
      "hit": false,
      "t": 38888.884999999995,
      "d": 347.2221875000032,
      "v": 127
    },
    {
      "midi": 58,
      "hit": false,
      "t": 39166.662749999996,
      "d": 370.37033333333966,
      "v": 127
    },
    {
      "midi": 59,
      "hit": false,
      "t": 39444.440500000004,
      "d": 578.7036458333387,
      "v": 127
    },
    {
      "midi": 55,
      "hit": false,
      "t": 39999.99600000001,
      "d": 532.4073541666658,
      "v": 127
    },
    {
      "midi": 62,
      "hit": false,
      "t": 39999.99600000001,
      "d": 555.5555000000022,
      "v": 127
    },
    {
      "midi": 52,
      "hit": false,
      "t": 39999.99600000001,
      "d": 578.7036458333387,
      "v": 127
    },
    {
      "midi": 36,
      "hit": false,
      "t": 39999.99600000001,
      "d": 3865.7403541666863,
      "v": 127
    },
    {
      "midi": 48,
      "hit": false,
      "t": 40555.55150000001,
      "d": 578.7036458333387,
      "v": 127
    },
    {
      "midi": 52,
      "hit": false,
      "t": 41111.10700000001,
      "d": 532.407354166673,
      "v": 127
    },
    {
      "midi": 55,
      "hit": false,
      "t": 41111.10700000001,
      "d": 532.407354166673,
      "v": 127
    },
    {
      "midi": 48,
      "hit": false,
      "t": 41666.66250000002,
      "d": 601.8517916666679,
      "v": 127
    },
    {
      "midi": 52,
      "hit": false,
      "t": 42222.21800000002,
      "d": 601.8517916666679,
      "v": 127
    },
    {
      "midi": 55,
      "hit": false,
      "t": 42222.21800000002,
      "d": 601.8517916666679,
      "v": 127
    },
    {
      "midi": 48,
      "hit": false,
      "t": 42777.773500000025,
      "d": 624.9999375000043,
      "v": 127
    },
    {
      "midi": 52,
      "hit": false,
      "t": 43333.32900000003,
      "d": 532.4073541666658,
      "v": 127
    },
    {
      "midi": 55,
      "hit": false,
      "t": 43333.32900000003,
      "d": 532.4073541666658,
      "v": 127
    },
    {
      "midi": 59,
      "hit": false,
      "t": 43333.32900000003,
      "d": 578.7036458333387,
      "v": 127
    },
    {
      "midi": 48,
      "hit": false,
      "t": 43888.88450000003,
      "d": 601.8517916666679,
      "v": 127
    },
    {
      "midi": 53,
      "hit": false,
      "t": 44444.44000000003,
      "d": 555.5555000000022,
      "v": 127
    },
    {
      "midi": 57,
      "hit": false,
      "t": 44444.44000000003,
      "d": 555.5555000000022,
      "v": 125
    },
    {
      "midi": 60,
      "hit": false,
      "t": 44444.44000000003,
      "d": 555.5555000000022,
      "v": 127
    },
    {
      "midi": 41,
      "hit": false,
      "t": 44444.44000000003,
      "d": 3819.4440625000207,
      "v": 127
    },
    {
      "midi": 48,
      "hit": false,
      "t": 44999.995500000034,
      "d": 578.7036458333387,
      "v": 127
    },
    {
      "midi": 53,
      "hit": false,
      "t": 45555.551000000036,
      "d": 509.2592083333366,
      "v": 127
    },
    {
      "midi": 60,
      "hit": false,
      "t": 45555.551000000036,
      "d": 509.2592083333366,
      "v": 127
    },
    {
      "midi": 57,
      "hit": false,
      "t": 45555.551000000036,
      "d": 532.407354166673,
      "v": 126
    },
    {
      "midi": 48,
      "hit": false,
      "t": 46111.106500000045,
      "d": 624.9999375000043,
      "v": 127
    },
    {
      "midi": 53,
      "hit": false,
      "t": 46666.66200000005,
      "d": 509.2592083333366,
      "v": 127
    },
    {
      "midi": 57,
      "hit": false,
      "t": 46666.66200000005,
      "d": 555.5555000000022,
      "v": 127
    },
    {
      "midi": 60,
      "hit": false,
      "t": 46666.66200000005,
      "d": 555.5555000000022,
      "v": 127
    },
    {
      "midi": 48,
      "hit": false,
      "t": 47222.21750000005,
      "d": 1134.2591458333409,
      "v": 127
    },
    {
      "midi": 57,
      "hit": false,
      "t": 47777.77300000005,
      "d": 277.7777500000011,
      "v": 127
    },
    {
      "midi": 53,
      "hit": false,
      "t": 47777.77300000005,
      "d": 347.2221875000032,
      "v": 127
    },
    {
      "midi": 58,
      "hit": false,
      "t": 48055.55075000005,
      "d": 393.51847916666884,
      "v": 127
    },
    {
      "midi": 59,
      "hit": false,
      "t": 48333.328500000054,
      "d": 578.7036458333387,
      "v": 127
    },
    {
      "midi": 55,
      "hit": false,
      "t": 48888.88400000006,
      "d": 532.4073541666658,
      "v": 127
    },
    {
      "midi": 62,
      "hit": false,
      "t": 48888.88400000006,
      "d": 555.5555000000022,
      "v": 127
    },
    {
      "midi": 52,
      "hit": false,
      "t": 48888.88400000006,
      "d": 578.7036458333387,
      "v": 115
    },
    {
      "midi": 36,
      "hit": false,
      "t": 48888.88400000006,
      "d": 3842.59220833335,
      "v": 127
    },
    {
      "midi": 48,
      "hit": false,
      "t": 49444.43950000006,
      "d": 624.9999375000043,
      "v": 127
    },
    {
      "midi": 55,
      "hit": false,
      "t": 49999.99500000006,
      "d": 555.5555000000022,
      "v": 127
    },
    {
      "midi": 52,
      "hit": false,
      "t": 49999.99500000006,
      "d": 578.7036458333387,
      "v": 127
    },
    {
      "midi": 48,
      "hit": false,
      "t": 50555.55050000006,
      "d": 601.8517916666679,
      "v": 127
    },
    {
      "midi": 52,
      "hit": false,
      "t": 51111.106000000065,
      "d": 555.5555000000022,
      "v": 127
    },
    {
      "midi": 55,
      "hit": false,
      "t": 51111.106000000065,
      "d": 578.7036458333387,
      "v": 127
    },
    {
      "midi": 48,
      "hit": false,
      "t": 51666.66150000007,
      "d": 578.7036458333387,
      "v": 127
    },
    {
      "midi": 52,
      "hit": false,
      "t": 52222.21700000007,
      "d": 555.5555000000022,
      "v": 127
    },
    {
      "midi": 55,
      "hit": false,
      "t": 52222.21700000007,
      "d": 555.5555000000022,
      "v": 124
    },
    {
      "midi": 59,
      "hit": false,
      "t": 52222.21700000007,
      "d": 601.8517916666679,
      "v": 127
    },
    {
      "midi": 48,
      "hit": false,
      "t": 52777.77250000007,
      "d": 578.7036458333387,
      "v": 127
    },
    {
      "midi": 53,
      "hit": false,
      "t": 53333.328000000074,
      "d": 509.2592083333366,
      "v": 127
    },
    {
      "midi": 60,
      "hit": false,
      "t": 53333.328000000074,
      "d": 509.2592083333366,
      "v": 120
    },
    {
      "midi": 57,
      "hit": false,
      "t": 53333.328000000074,
      "d": 532.407354166673,
      "v": 118
    },
    {
      "midi": 41,
      "hit": false,
      "t": 53333.328000000074,
      "d": 3912.0366458333665,
      "v": 127
    },
    {
      "midi": 48,
      "hit": false,
      "t": 53888.88350000008,
      "d": 601.8517916666679,
      "v": 127
    },
    {
      "midi": 53,
      "hit": false,
      "t": 54444.439000000086,
      "d": 532.4073541666658,
      "v": 127
    },
    {
      "midi": 57,
      "hit": false,
      "t": 54444.439000000086,
      "d": 532.4073541666658,
      "v": 123
    },
    {
      "midi": 60,
      "hit": false,
      "t": 54444.439000000086,
      "d": 532.4073541666658,
      "v": 127
    },
    {
      "midi": 48,
      "hit": false,
      "t": 54999.99450000009,
      "d": 624.9999375000043,
      "v": 127
    },
    {
      "midi": 53,
      "hit": false,
      "t": 55555.55000000009,
      "d": 509.2592083333366,
      "v": 127
    },
    {
      "midi": 60,
      "hit": false,
      "t": 55555.55000000009,
      "d": 532.407354166673,
      "v": 127
    },
    {
      "midi": 57,
      "hit": false,
      "t": 55555.55000000009,
      "d": 555.5555000000095,
      "v": 123
    },
    {
      "midi": 48,
      "hit": false,
      "t": 56111.1055000001,
      "d": 601.8517916666679,
      "v": 127
    },
    {
      "midi": 53,
      "hit": false,
      "t": 56666.6610000001,
      "d": 555.5555000000022,
      "v": 127
    },
    {
      "midi": 57,
      "hit": false,
      "t": 56666.6610000001,
      "d": 578.7036458333387,
      "v": 126
    },
    {
      "midi": 60,
      "hit": false,
      "t": 56666.6610000001,
      "d": 578.7036458333387,
      "v": 120
    },
    {
      "midi": 48,
      "hit": false,
      "t": 57222.216500000104,
      "d": 601.8517916666679,
      "v": 127
    },
    {
      "midi": 53,
      "hit": false,
      "t": 57777.772000000106,
      "d": 277.7777500000011,
      "v": 127
    },
    {
      "midi": 57,
      "hit": false,
      "t": 57777.772000000106,
      "d": 486.1110625000001,
      "v": 127
    },
    {
      "midi": 60,
      "hit": false,
      "t": 57777.772000000106,
      "d": 509.2592083333366,
      "v": 127
    },
    {
      "midi": 41,
      "hit": false,
      "t": 57777.772000000106,
      "d": 1712.9627916666868,
      "v": 127
    },
    {
      "midi": 53,
      "hit": false,
      "t": 58333.32750000011,
      "d": 578.7036458333387,
      "v": 127
    },
    {
      "midi": 57,
      "hit": false,
      "t": 58888.88300000011,
      "d": 532.407354166673,
      "v": 127
    },
    {
      "midi": 60,
      "hit": false,
      "t": 58888.88300000011,
      "d": 578.703645833346,
      "v": 127
    },
    {
      "midi": 53,
      "hit": false,
      "t": 59444.43850000012,
      "d": 578.703645833346,
      "v": 127
    },
    {
      "midi": 57,
      "hit": false,
      "t": 59999.99400000013,
      "d": 555.5555000000022,
      "v": 127
    },
    {
      "midi": 60,
      "hit": false,
      "t": 59999.99400000013,
      "d": 601.8517916666679,
      "v": 127
    },
    {
      "midi": 40,
      "hit": false,
      "t": 59999.99400000013,
      "d": 1689.814645833343,
      "v": 127
    },
    {
      "midi": 52,
      "hit": false,
      "t": 60555.54950000013,
      "d": 555.5555000000022,
      "v": 127
    },
    {
      "midi": 57,
      "hit": false,
      "t": 61111.105000000134,
      "d": 532.4073541666658,
      "v": 127
    },
    {
      "midi": 60,
      "hit": false,
      "t": 61111.105000000134,
      "d": 532.4073541666658,
      "v": 127
    },
    {
      "midi": 52,
      "hit": false,
      "t": 61666.66050000014,
      "d": 532.407354166673,
      "v": 127
    },
    {
      "midi": 53,
      "hit": false,
      "t": 62222.216000000146,
      "d": 555.5555000000022,
      "v": 127
    },
    {
      "midi": 57,
      "hit": false,
      "t": 62222.216000000146,
      "d": 578.7036458333387,
      "v": 127
    },
    {
      "midi": 60,
      "hit": false,
      "t": 62222.216000000146,
      "d": 578.7036458333387,
      "v": 127
    },
    {
      "midi": 38,
      "hit": false,
      "t": 62222.216000000146,
      "d": 1643.5183541666775,
      "v": 127
    },
    {
      "midi": 50,
      "hit": false,
      "t": 62777.77150000015,
      "d": 555.5555000000022,
      "v": 127
    },
    {
      "midi": 53,
      "hit": false,
      "t": 63333.32700000015,
      "d": 509.2592083333366,
      "v": 127
    },
    {
      "midi": 60,
      "hit": false,
      "t": 63333.32700000015,
      "d": 532.407354166673,
      "v": 127
    },
    {
      "midi": 57,
      "hit": false,
      "t": 63333.32700000015,
      "d": 555.5555000000095,
      "v": 127
    },
    {
      "midi": 50,
      "hit": false,
      "t": 63888.88250000016,
      "d": 509.2592083333366,
      "v": 127
    },
    {
      "midi": 53,
      "hit": false,
      "t": 64444.43800000016,
      "d": 578.7036458333387,
      "v": 127
    },
    {
      "midi": 57,
      "hit": false,
      "t": 64444.43800000016,
      "d": 624.9999375000043,
      "v": 127
    },
    {
      "midi": 36,
      "hit": false,
      "t": 64444.43800000016,
      "d": 1597.2220624999973,
      "v": 127
    },
    {
      "midi": 48,
      "hit": false,
      "t": 64999.993500000164,
      "d": 578.7036458333241,
      "v": 127
    },
    {
      "midi": 53,
      "hit": false,
      "t": 65555.54900000016,
      "d": 486.1110625000001,
      "v": 127
    },
    {
      "midi": 57,
      "hit": false,
      "t": 65555.54900000016,
      "d": 509.2592083333293,
      "v": 127
    },
    {
      "midi": 60,
      "hit": false,
      "t": 65555.54900000016,
      "d": 555.5555000000022,
      "v": 127
    },
    {
      "midi": 48,
      "hit": false,
      "t": 66111.10450000016,
      "d": 578.7036458333314,
      "v": 127
    },
    {
      "midi": 62,
      "hit": false,
      "t": 66666.66000000016,
      "d": 555.5555000000022,
      "v": 127
    },
    {
      "midi": 59,
      "hit": false,
      "t": 66666.66000000016,
      "d": 578.7036458333314,
      "v": 125
    },
    {
      "midi": 43,
      "hit": false,
      "t": 66666.66000000016,
      "d": 3981.481083333332,
      "v": 127
    },
    {
      "midi": 55,
      "hit": false,
      "t": 67222.21550000017,
      "d": 555.5555000000022,
      "v": 127
    },
    {
      "midi": 59,
      "hit": false,
      "t": 67777.77100000017,
      "d": 555.5555000000022,
      "v": 124
    },
    {
      "midi": 62,
      "hit": false,
      "t": 67777.77100000017,
      "d": 578.7036458333314,
      "v": 127
    },
    {
      "midi": 55,
      "hit": false,
      "t": 68333.32650000017,
      "d": 555.5555000000022,
      "v": 127
    },
    {
      "midi": 59,
      "hit": false,
      "t": 68888.88200000017,
      "d": 578.7036458333314,
      "v": 127
    },
    {
      "midi": 62,
      "hit": false,
      "t": 68888.88200000017,
      "d": 601.8517916666606,
      "v": 127
    },
    {
      "midi": 55,
      "hit": false,
      "t": 69444.43750000017,
      "d": 601.8517916666606,
      "v": 125
    },
    {
      "midi": 64,
      "hit": false,
      "t": 69999.99300000016,
      "d": 509.25920833334385,
      "v": 127
    },
    {
      "midi": 60,
      "hit": false,
      "t": 69999.99300000016,
      "d": 532.407354166673,
      "v": 127
    },
    {
      "midi": 55,
      "hit": false,
      "t": 70555.54850000016,
      "d": 138.8888750000042,
      "v": 127
    },
    {
      "midi": 55,
      "hit": false,
      "t": 71111.10400000017,
      "d": 1874.9998124999984,
      "v": 127
    },
    {
      "midi": 62,
      "hit": false,
      "t": 71111.10400000017,
      "d": 1921.2961041666713,
      "v": 127
    },
    {
      "midi": 65,
      "hit": false,
      "t": 71111.10400000017,
      "d": 1944.4442500000005,
      "v": 127
    },
    {
      "midi": 50,
      "hit": false,
      "t": 71111.10400000017,
      "d": 2430.5553125000006,
      "v": 127
    },
    {
      "midi": 43,
      "hit": false,
      "t": 71111.10400000017,
      "d": 2476.8516041666735,
      "v": 127
    },
    {
      "midi": 52,
      "hit": false,
      "t": 75555.54800000017,
      "d": 555.5555000000022,
      "v": 127
    },
    {
      "midi": 55,
      "hit": false,
      "t": 75555.54800000017,
      "d": 555.5555000000022,
      "v": 127
    },
    {
      "midi": 36,
      "hit": false,
      "t": 75555.54800000017,
      "d": 3888.888500000001,
      "v": 127
    },
    {
      "midi": 48,
      "hit": false,
      "t": 76111.10350000017,
      "d": 624.9999375000043,
      "v": 127
    },
    {
      "midi": 52,
      "hit": false,
      "t": 76666.65900000017,
      "d": 555.5555000000022,
      "v": 127
    },
    {
      "midi": 55,
      "hit": false,
      "t": 76666.65900000017,
      "d": 578.7036458333314,
      "v": 127
    },
    {
      "midi": 48,
      "hit": false,
      "t": 77222.21450000018,
      "d": 578.7036458333314,
      "v": 127
    },
    {
      "midi": 52,
      "hit": false,
      "t": 77777.77000000018,
      "d": 532.4073541666585,
      "v": 127
    },
    {
      "midi": 55,
      "hit": false,
      "t": 77777.77000000018,
      "d": 532.4073541666585,
      "v": 127
    },
    {
      "midi": 48,
      "hit": false,
      "t": 78333.32550000017,
      "d": 601.8517916666751,
      "v": 127
    },
    {
      "midi": 52,
      "hit": false,
      "t": 78888.88100000017,
      "d": 509.25920833334385,
      "v": 126
    },
    {
      "midi": 55,
      "hit": false,
      "t": 78888.88100000017,
      "d": 509.25920833334385,
      "v": 127
    },
    {
      "midi": 59,
      "hit": false,
      "t": 78888.88100000017,
      "d": 532.407354166673,
      "v": 127
    },
    {
      "midi": 48,
      "hit": false,
      "t": 79444.43650000017,
      "d": 578.7036458333314,
      "v": 127
    },
    {
      "midi": 53,
      "hit": false,
      "t": 79999.99200000017,
      "d": 532.4073541666585,
      "v": 127
    },
    {
      "midi": 57,
      "hit": false,
      "t": 79999.99200000017,
      "d": 555.5554999999877,
      "v": 125
    },
    {
      "midi": 60,
      "hit": false,
      "t": 79999.99200000017,
      "d": 555.5554999999877,
      "v": 127
    },
    {
      "midi": 41,
      "hit": false,
      "t": 79999.99200000017,
      "d": 3749.999624999982,
      "v": 127
    },
    {
      "midi": 48,
      "hit": false,
      "t": 80555.54750000016,
      "d": 578.7036458333314,
      "v": 127
    },
    {
      "midi": 60,
      "hit": false,
      "t": 81111.10300000016,
      "d": 509.2592083333293,
      "v": 127
    },
    {
      "midi": 53,
      "hit": false,
      "t": 81111.10300000016,
      "d": 532.4073541666585,
      "v": 127
    },
    {
      "midi": 57,
      "hit": false,
      "t": 81111.10300000016,
      "d": 532.4073541666585,
      "v": 127
    },
    {
      "midi": 48,
      "hit": false,
      "t": 81666.65850000015,
      "d": 601.8517916666751,
      "v": 127
    },
    {
      "midi": 53,
      "hit": false,
      "t": 82222.21400000015,
      "d": 532.407354166673,
      "v": 127
    },
    {
      "midi": 57,
      "hit": false,
      "t": 82222.21400000015,
      "d": 555.5555000000022,
      "v": 126
    },
    {
      "midi": 60,
      "hit": false,
      "t": 82222.21400000015,
      "d": 601.8517916666751,
      "v": 127
    },
    {
      "midi": 48,
      "hit": false,
      "t": 82777.76950000015,
      "d": 1064.8147083333315,
      "v": 127
    },
    {
      "midi": 57,
      "hit": false,
      "t": 83333.32500000016,
      "d": 324.07404166666674,
      "v": 127
    },
    {
      "midi": 53,
      "hit": false,
      "t": 83333.32500000016,
      "d": 393.51847916666884,
      "v": 127
    },
    {
      "midi": 58,
      "hit": false,
      "t": 83611.10275000015,
      "d": 324.0740416666813,
      "v": 127
    },
    {
      "midi": 59,
      "hit": false,
      "t": 83888.88050000016,
      "d": 578.7036458333314,
      "v": 127
    },
    {
      "midi": 55,
      "hit": false,
      "t": 84444.43600000016,
      "d": 532.4073541666585,
      "v": 127
    },
    {
      "midi": 52,
      "hit": false,
      "t": 84444.43600000016,
      "d": 601.8517916666606,
      "v": 124
    },
    {
      "midi": 62,
      "hit": false,
      "t": 84444.43600000016,
      "d": 601.8517916666606,
      "v": 127
    },
    {
      "midi": 36,
      "hit": false,
      "t": 84444.43600000016,
      "d": 3865.7403541666426,
      "v": 127
    },
    {
      "midi": 48,
      "hit": false,
      "t": 84999.99150000015,
      "d": 601.8517916666751,
      "v": 127
    },
    {
      "midi": 52,
      "hit": false,
      "t": 85555.54700000015,
      "d": 486.1110625000001,
      "v": 127
    },
    {
      "midi": 55,
      "hit": false,
      "t": 85555.54700000015,
      "d": 486.1110625000001,
      "v": 127
    },
    {
      "midi": 48,
      "hit": false,
      "t": 86111.10250000015,
      "d": 578.7036458333314,
      "v": 127
    },
    {
      "midi": 55,
      "hit": false,
      "t": 86666.65800000016,
      "d": 532.4073541666585,
      "v": 127
    },
    {
      "midi": 52,
      "hit": false,
      "t": 86666.65800000016,
      "d": 555.5554999999877,
      "v": 127
    },
    {
      "midi": 48,
      "hit": false,
      "t": 87222.21350000014,
      "d": 578.7036458333314,
      "v": 127
    },
    {
      "midi": 52,
      "hit": false,
      "t": 87777.76900000015,
      "d": 532.4073541666585,
      "v": 126
    },
    {
      "midi": 55,
      "hit": false,
      "t": 87777.76900000015,
      "d": 555.5554999999877,
      "v": 126
    },
    {
      "midi": 59,
      "hit": false,
      "t": 87777.76900000015,
      "d": 578.7036458333168,
      "v": 127
    },
    {
      "midi": 48,
      "hit": false,
      "t": 88333.32450000013,
      "d": 578.7036458333314,
      "v": 127
    },
    {
      "midi": 53,
      "hit": false,
      "t": 88888.88000000014,
      "d": 578.7036458333314,
      "v": 127
    },
    {
      "midi": 57,
      "hit": false,
      "t": 88888.88000000014,
      "d": 578.7036458333314,
      "v": 118
    },
    {
      "midi": 60,
      "hit": false,
      "t": 88888.88000000014,
      "d": 578.7036458333314,
      "v": 125
    },
    {
      "midi": 41,
      "hit": false,
      "t": 88888.88000000014,
      "d": 3680.5551874999946,
      "v": 127
    },
    {
      "midi": 48,
      "hit": false,
      "t": 89444.43550000014,
      "d": 555.5555000000022,
      "v": 127
    },
    {
      "midi": 53,
      "hit": false,
      "t": 89999.99100000014,
      "d": 532.407354166673,
      "v": 126
    },
    {
      "midi": 57,
      "hit": false,
      "t": 89999.99100000014,
      "d": 555.5555000000022,
      "v": 124
    },
    {
      "midi": 60,
      "hit": false,
      "t": 89999.99100000014,
      "d": 555.5555000000022,
      "v": 125
    },
    {
      "midi": 48,
      "hit": false,
      "t": 90555.54650000014,
      "d": 601.8517916666751,
      "v": 127
    },
    {
      "midi": 53,
      "hit": false,
      "t": 91111.10200000014,
      "d": 532.407354166673,
      "v": 126
    },
    {
      "midi": 60,
      "hit": false,
      "t": 91111.10200000014,
      "d": 578.7036458333314,
      "v": 127
    },
    {
      "midi": 57,
      "hit": false,
      "t": 91111.10200000014,
      "d": 601.8517916666606,
      "v": 120
    },
    {
      "midi": 48,
      "hit": false,
      "t": 91666.65750000015,
      "d": 995.3702708333149,
      "v": 127
    },
    {
      "midi": 57,
      "hit": false,
      "t": 92222.21300000013,
      "d": 324.07404166666674,
      "v": 127
    },
    {
      "midi": 53,
      "hit": false,
      "t": 92222.21300000013,
      "d": 347.2221874999959,
      "v": 127
    },
    {
      "midi": 58,
      "hit": false,
      "t": 92499.99075000013,
      "d": 370.3703333333251,
      "v": 126
    },
    {
      "midi": 59,
      "hit": false,
      "t": 92777.76850000012,
      "d": 601.8517916666606,
      "v": 127
    },
    {
      "midi": 55,
      "hit": false,
      "t": 93333.32400000011,
      "d": 509.25920833334385,
      "v": 127
    },
    {
      "midi": 52,
      "hit": false,
      "t": 93333.32400000011,
      "d": 555.5555000000168,
      "v": 118
    },
    {
      "midi": 62,
      "hit": false,
      "t": 93333.32400000011,
      "d": 601.8517916666897,
      "v": 127
    },
    {
      "midi": 36,
      "hit": false,
      "t": 93333.32400000011,
      "d": 3888.88850000003,
      "v": 127
    },
    {
      "midi": 48,
      "hit": false,
      "t": 93888.87950000013,
      "d": 555.5555000000022,
      "v": 127
    },
    {
      "midi": 52,
      "hit": false,
      "t": 94444.43500000013,
      "d": 532.407354166673,
      "v": 127
    },
    {
      "midi": 55,
      "hit": false,
      "t": 94444.43500000013,
      "d": 532.407354166673,
      "v": 127
    },
    {
      "midi": 48,
      "hit": false,
      "t": 94999.99050000013,
      "d": 578.7036458333314,
      "v": 127
    },
    {
      "midi": 55,
      "hit": false,
      "t": 95555.54600000013,
      "d": 555.5555000000022,
      "v": 127
    },
    {
      "midi": 52,
      "hit": false,
      "t": 95555.54600000013,
      "d": 578.7036458333314,
      "v": 127
    },
    {
      "midi": 48,
      "hit": false,
      "t": 96111.10150000014,
      "d": 601.8517916666751,
      "v": 127
    },
    {
      "midi": 52,
      "hit": false,
      "t": 96666.65700000014,
      "d": 555.5555000000022,
      "v": 127
    },
    {
      "midi": 55,
      "hit": false,
      "t": 96666.65700000014,
      "d": 555.5555000000022,
      "v": 127
    },
    {
      "midi": 59,
      "hit": false,
      "t": 96666.65700000014,
      "d": 578.7036458333314,
      "v": 127
    },
    {
      "midi": 48,
      "hit": false,
      "t": 97222.21250000014,
      "d": 578.7036458333314,
      "v": 127
    },
    {
      "midi": 53,
      "hit": false,
      "t": 97777.76800000014,
      "d": 532.4073541666585,
      "v": 127
    },
    {
      "midi": 57,
      "hit": false,
      "t": 97777.76800000014,
      "d": 578.7036458333168,
      "v": 124
    },
    {
      "midi": 60,
      "hit": false,
      "t": 97777.76800000014,
      "d": 578.7036458333168,
      "v": 127
    },
    {
      "midi": 41,
      "hit": false,
      "t": 97777.76800000014,
      "d": 3518.5181666666467,
      "v": 127
    },
    {
      "midi": 48,
      "hit": false,
      "t": 98333.32350000013,
      "d": 509.2592083333293,
      "v": 127
    },
    {
      "midi": 53,
      "hit": false,
      "t": 98888.87900000013,
      "d": 509.2592083333293,
      "v": 126
    },
    {
      "midi": 57,
      "hit": false,
      "t": 98888.87900000013,
      "d": 509.2592083333293,
      "v": 125
    },
    {
      "midi": 60,
      "hit": false,
      "t": 98888.87900000013,
      "d": 532.4073541666585,
      "v": 127
    },
    {
      "midi": 48,
      "hit": false,
      "t": 99444.43450000012,
      "d": 578.7036458333314,
      "v": 127
    },
    {
      "midi": 53,
      "hit": false,
      "t": 99999.99000000012,
      "d": 486.1110625000001,
      "v": 127
    },
    {
      "midi": 60,
      "hit": false,
      "t": 99999.99000000012,
      "d": 532.407354166673,
      "v": 127
    },
    {
      "midi": 57,
      "hit": false,
      "t": 99999.99000000012,
      "d": 578.7036458333314,
      "v": 127
    },
    {
      "midi": 48,
      "hit": false,
      "t": 100555.54550000012,
      "d": 833.333249999996,
      "v": 127
    },
    {
      "midi": 53,
      "hit": false,
      "t": 101111.10100000013,
      "d": 347.2221874999959,
      "v": 127
    },
    {
      "midi": 57,
      "hit": false,
      "t": 101111.10100000013,
      "d": 347.2221874999959,
      "v": 127
    },
    {
      "midi": 58,
      "hit": false,
      "t": 101388.87875000012,
      "d": 370.37033333333966,
      "v": 127
    },
    {
      "midi": 59,
      "hit": false,
      "t": 101666.65650000013,
      "d": 601.8517916666751,
      "v": 127
    },
    {
      "midi": 55,
      "hit": false,
      "t": 102222.21200000013,
      "d": 509.25920833334385,
      "v": 127
    },
    {
      "midi": 52,
      "hit": false,
      "t": 102222.21200000013,
      "d": 555.5555000000168,
      "v": 123
    },
    {
      "midi": 62,
      "hit": false,
      "t": 102222.21200000013,
      "d": 555.5555000000168,
      "v": 127
    },
    {
      "midi": 36,
      "hit": false,
      "t": 102222.21200000013,
      "d": 3888.88850000003,
      "v": 127
    },
    {
      "midi": 48,
      "hit": false,
      "t": 102777.76750000015,
      "d": 601.8517916666751,
      "v": 127
    },
    {
      "midi": 55,
      "hit": false,
      "t": 103333.32300000015,
      "d": 532.407354166673,
      "v": 127
    },
    {
      "midi": 52,
      "hit": false,
      "t": 103333.32300000015,
      "d": 555.5555000000022,
      "v": 127
    },
    {
      "midi": 48,
      "hit": false,
      "t": 103888.87850000015,
      "d": 578.7036458333314,
      "v": 127
    },
    {
      "midi": 52,
      "hit": false,
      "t": 104444.43400000015,
      "d": 601.8517916666751,
      "v": 127
    },
    {
      "midi": 55,
      "hit": false,
      "t": 104444.43400000015,
      "d": 601.8517916666751,
      "v": 127
    },
    {
      "midi": 48,
      "hit": false,
      "t": 104999.98950000016,
      "d": 578.7036458333314,
      "v": 127
    },
    {
      "midi": 52,
      "hit": false,
      "t": 105555.54500000016,
      "d": 555.5555000000022,
      "v": 127
    },
    {
      "midi": 55,
      "hit": false,
      "t": 105555.54500000016,
      "d": 555.5555000000022,
      "v": 124
    },
    {
      "midi": 59,
      "hit": false,
      "t": 105555.54500000016,
      "d": 601.8517916666751,
      "v": 125
    },
    {
      "midi": 48,
      "hit": false,
      "t": 106111.10050000016,
      "d": 578.7036458333314,
      "v": 127
    },
    {
      "midi": 53,
      "hit": false,
      "t": 106666.65600000016,
      "d": 555.5555000000022,
      "v": 127
    },
    {
      "midi": 57,
      "hit": false,
      "t": 106666.65600000016,
      "d": 578.7036458333314,
      "v": 124
    },
    {
      "midi": 60,
      "hit": false,
      "t": 106666.65600000016,
      "d": 578.7036458333314,
      "v": 126
    },
    {
      "midi": 41,
      "hit": false,
      "t": 106666.65600000016,
      "d": 3958.3329375000176,
      "v": 127
    },
    {
      "midi": 48,
      "hit": false,
      "t": 107222.21150000016,
      "d": 555.5555000000022,
      "v": 127
    },
    {
      "midi": 53,
      "hit": false,
      "t": 107777.76700000017,
      "d": 578.7036458333314,
      "v": 127
    },
    {
      "midi": 57,
      "hit": false,
      "t": 107777.76700000017,
      "d": 578.7036458333314,
      "v": 124
    },
    {
      "midi": 60,
      "hit": false,
      "t": 107777.76700000017,
      "d": 578.7036458333314,
      "v": 125
    },
    {
      "midi": 48,
      "hit": false,
      "t": 108333.32250000017,
      "d": 578.7036458333314,
      "v": 127
    },
    {
      "midi": 53,
      "hit": false,
      "t": 108888.87800000017,
      "d": 555.5555000000022,
      "v": 127
    },
    {
      "midi": 57,
      "hit": false,
      "t": 108888.87800000017,
      "d": 555.5555000000022,
      "v": 124
    },
    {
      "midi": 60,
      "hit": false,
      "t": 108888.87800000017,
      "d": 555.5555000000022,
      "v": 127
    },
    {
      "midi": 48,
      "hit": false,
      "t": 109444.43350000017,
      "d": 624.9999375000043,
      "v": 127
    },
    {
      "midi": 53,
      "hit": false,
      "t": 109999.98900000018,
      "d": 555.5555000000022,
      "v": 127
    },
    {
      "midi": 57,
      "hit": false,
      "t": 109999.98900000018,
      "d": 601.8517916666751,
      "v": 123
    },
    {
      "midi": 60,
      "hit": false,
      "t": 109999.98900000018,
      "d": 601.8517916666751,
      "v": 127
    },
    {
      "midi": 48,
      "hit": false,
      "t": 110555.54450000018,
      "d": 601.8517916666751,
      "v": 127
    },
    {
      "midi": 53,
      "hit": false,
      "t": 111111.10000000018,
      "d": 92.59258333334583,
      "v": 120
    },
    {
      "midi": 57,
      "hit": false,
      "t": 111111.10000000018,
      "d": 393.51847916666884,
      "v": 126
    },
    {
      "midi": 60,
      "hit": false,
      "t": 111111.10000000018,
      "d": 462.96291666667094,
      "v": 127
    },
    {
      "midi": 41,
      "hit": false,
      "t": 111111.10000000018,
      "d": 1666.6665000000066,
      "v": 127
    },
    {
      "midi": 53,
      "hit": false,
      "t": 111666.65550000018,
      "d": 509.2592083333293,
      "v": 127
    },
    {
      "midi": 57,
      "hit": false,
      "t": 112222.21100000018,
      "d": 578.7036458333314,
      "v": 127
    },
    {
      "midi": 60,
      "hit": false,
      "t": 112222.21100000018,
      "d": 601.8517916666606,
      "v": 127
    },
    {
      "midi": 53,
      "hit": false,
      "t": 112777.76650000019,
      "d": 555.5554999999877,
      "v": 127
    },
    {
      "midi": 57,
      "hit": false,
      "t": 113333.32200000017,
      "d": 601.8517916666751,
      "v": 127
    },
    {
      "midi": 60,
      "hit": false,
      "t": 113333.32200000017,
      "d": 624.9999375000043,
      "v": 127
    },
    {
      "midi": 40,
      "hit": false,
      "t": 113333.32200000017,
      "d": 1689.8146458333358,
      "v": 127
    },
    {
      "midi": 52,
      "hit": false,
      "t": 113888.87750000018,
      "d": 578.7036458333314,
      "v": 127
    },
    {
      "midi": 57,
      "hit": false,
      "t": 114444.43300000018,
      "d": 555.5555000000022,
      "v": 127
    },
    {
      "midi": 60,
      "hit": false,
      "t": 114444.43300000018,
      "d": 578.7036458333314,
      "v": 127
    },
    {
      "midi": 52,
      "hit": false,
      "t": 114999.98850000018,
      "d": 578.7036458333314,
      "v": 127
    },
    {
      "midi": 53,
      "hit": false,
      "t": 115555.54400000018,
      "d": 578.7036458333314,
      "v": 127
    },
    {
      "midi": 57,
      "hit": false,
      "t": 115555.54400000018,
      "d": 578.7036458333314,
      "v": 127
    },
    {
      "midi": 60,
      "hit": false,
      "t": 115555.54400000018,
      "d": 578.7036458333314,
      "v": 127
    },
    {
      "midi": 38,
      "hit": false,
      "t": 115555.54400000018,
      "d": 1620.3702083333337,
      "v": 127
    },
    {
      "midi": 50,
      "hit": false,
      "t": 116111.09950000019,
      "d": 578.7036458333314,
      "v": 127
    },
    {
      "midi": 53,
      "hit": false,
      "t": 116666.65500000019,
      "d": 532.4073541666585,
      "v": 127
    },
    {
      "midi": 57,
      "hit": false,
      "t": 116666.65500000019,
      "d": 578.7036458333168,
      "v": 127
    },
    {
      "midi": 60,
      "hit": false,
      "t": 116666.65500000019,
      "d": 601.851791666646,
      "v": 127
    },
    {
      "midi": 50,
      "hit": false,
      "t": 117222.21050000018,
      "d": 555.5554999999877,
      "v": 127
    },
    {
      "midi": 53,
      "hit": false,
      "t": 117777.76600000016,
      "d": 601.8517916666751,
      "v": 127
    },
    {
      "midi": 57,
      "hit": false,
      "t": 117777.76600000016,
      "d": 601.8517916666751,
      "v": 127
    },
    {
      "midi": 60,
      "hit": false,
      "t": 117777.76600000016,
      "d": 601.8517916666751,
      "v": 127
    },
    {
      "midi": 36,
      "hit": false,
      "t": 117777.76600000016,
      "d": 1712.962791666665,
      "v": 127
    },
    {
      "midi": 48,
      "hit": false,
      "t": 118333.32150000017,
      "d": 578.7036458333314,
      "v": 127
    },
    {
      "midi": 53,
      "hit": false,
      "t": 118888.87700000017,
      "d": 578.7036458333314,
      "v": 127
    },
    {
      "midi": 57,
      "hit": false,
      "t": 118888.87700000017,
      "d": 578.7036458333314,
      "v": 127
    },
    {
      "midi": 60,
      "hit": false,
      "t": 118888.87700000017,
      "d": 601.8517916666606,
      "v": 127
    },
    {
      "midi": 48,
      "hit": false,
      "t": 119444.43250000017,
      "d": 555.5554999999877,
      "v": 127
    },
    {
      "midi": 59,
      "hit": false,
      "t": 119999.98800000016,
      "d": 555.5555000000022,
      "v": 127
    },
    {
      "midi": 62,
      "hit": false,
      "t": 119999.98800000016,
      "d": 555.5555000000022,
      "v": 127
    },
    {
      "midi": 43,
      "hit": false,
      "t": 119999.98800000016,
      "d": 3981.4810833333613,
      "v": 127
    },
    {
      "midi": 55,
      "hit": false,
      "t": 120555.54350000016,
      "d": 555.5555000000022,
      "v": 127
    },
    {
      "midi": 59,
      "hit": false,
      "t": 121111.09900000016,
      "d": 555.5555000000022,
      "v": 127
    },
    {
      "midi": 62,
      "hit": false,
      "t": 121111.09900000016,
      "d": 624.9999375000043,
      "v": 127
    },
    {
      "midi": 55,
      "hit": false,
      "t": 121666.65450000016,
      "d": 578.7036458333314,
      "v": 127
    },
    {
      "midi": 62,
      "hit": false,
      "t": 122222.21000000017,
      "d": 578.7036458333314,
      "v": 127
    },
    {
      "midi": 59,
      "hit": false,
      "t": 122222.21000000017,
      "d": 624.9999375000043,
      "v": 127
    },
    {
      "midi": 55,
      "hit": false,
      "t": 122777.76550000017,
      "d": 601.8517916666751,
      "v": 127
    },
    {
      "midi": 64,
      "hit": false,
      "t": 123333.32100000017,
      "d": 462.96291666667094,
      "v": 127
    },
    {
      "midi": 60,
      "hit": false,
      "t": 123333.32100000017,
      "d": 509.25920833334385,
      "v": 127
    },
    {
      "midi": 55,
      "hit": false,
      "t": 123888.87650000019,
      "d": 138.8888750000042,
      "v": 125
    },
    {
      "midi": 55,
      "hit": false,
      "t": 124444.43200000019,
      "d": 277.77774999999383,
      "v": 127
    },
    {
      "midi": 62,
      "hit": false,
      "t": 124444.43200000019,
      "d": 300.925895833323,
      "v": 127
    },
    {
      "midi": 65,
      "hit": false,
      "t": 124444.43200000019,
      "d": 347.2221874999959,
      "v": 127
    },
    {
      "midi": 50,
      "hit": false,
      "t": 124444.43200000019,
      "d": 2083.33312499999,
      "v": 127
    },
    {
      "midi": 43,
      "hit": false,
      "t": 124444.43200000019,
      "d": 2175.9257083333214,
      "v": 127
    },
    {
      "midi": 53,
      "hit": false,
      "t": 128888.87600000018,
      "d": 254.62960416666465,
      "v": 127
    },
    {
      "midi": 57,
      "hit": false,
      "t": 128888.87600000018,
      "d": 254.62960416666465,
      "v": 127
    },
    {
      "midi": 60,
      "hit": false,
      "t": 128888.87600000018,
      "d": 254.62960416666465,
      "v": 127
    },
    {
      "midi": 41,
      "hit": false,
      "t": 128888.87600000018,
      "d": 324.07404166666674,
      "v": 127
    },
    {
      "midi": 53,
      "hit": false,
      "t": 129444.43150000018,
      "d": 231.48145833333547,
      "v": 127
    },
    {
      "midi": 57,
      "hit": false,
      "t": 129999.98700000018,
      "d": 231.48145833333547,
      "v": 127
    },
    {
      "midi": 60,
      "hit": false,
      "t": 129999.98700000018,
      "d": 254.62960416666465,
      "v": 127
    },
    {
      "midi": 53,
      "hit": false,
      "t": 130555.54250000019,
      "d": 162.03702083333337,
      "v": 127
    },
    {
      "midi": 62,
      "hit": false,
      "t": 131111.09800000017,
      "d": 254.62960416666465,
      "v": 127
    },
    {
      "midi": 59,
      "hit": false,
      "t": 131111.09800000017,
      "d": 347.2221875000105,
      "v": 127
    },
    {
      "midi": 43,
      "hit": false,
      "t": 131111.09800000017,
      "d": 370.3703333333542,
      "v": 127
    },
    {
      "midi": 55,
      "hit": false,
      "t": 131111.09800000017,
      "d": 370.3703333333542,
      "v": 127
    },
    {
      "midi": 55,
      "hit": false,
      "t": 131666.6535000002,
      "d": 208.3333125000063,
      "v": 127
    },
    {
      "midi": 59,
      "hit": false,
      "t": 132222.2090000002,
      "d": 231.48145833332092,
      "v": 127
    },
    {
      "midi": 62,
      "hit": false,
      "t": 132222.2090000002,
      "d": 231.48145833332092,
      "v": 127
    },
    {
      "midi": 55,
      "hit": false,
      "t": 132777.7645000002,
      "d": 115.74072916666046,
      "v": 127
    },
    {
      "midi": 55,
      "hit": false,
      "t": 133333.32000000018,
      "d": 462.96291666667094,
      "v": 127
    },
    {
      "midi": 52,
      "hit": false,
      "t": 133333.32000000018,
      "d": 532.407354166673,
      "v": 127
    },
    {
      "midi": 36,
      "hit": false,
      "t": 133333.32000000018,
      "d": 1319.4443125000107,
      "v": 123
    },
    {
      "midi": 43,
      "hit": false,
      "t": 133333.32000000018,
      "d": 1342.5924583333544,
      "v": 127
    },
    {
      "midi": 48,
      "hit": false,
      "t": 133888.8755000002,
      "d": 254.62960416666465,
      "v": 127
    },
    {
      "midi": 55,
      "hit": false,
      "t": 134444.4310000002,
      "d": 208.3333125000063,
      "v": 127
    },
    {
      "midi": 59,
      "hit": false,
      "t": 134444.4310000002,
      "d": 231.48145833335002,
      "v": 127
    },
    {
      "midi": 48,
      "hit": false,
      "t": 134999.9865000002,
      "d": 138.8888750000042,
      "v": 127
    },
    {
      "midi": 60,
      "hit": false,
      "t": 134999.9865000002,
      "d": 138.8888750000042,
      "v": 127
    },
    {
      "midi": 64,
      "hit": false,
      "t": 135555.54200000022,
      "d": 532.407354166673,
      "v": 127
    },
    {
      "midi": 56,
      "hit": false,
      "t": 135555.54200000022,
      "d": 578.7036458333605,
      "v": 127
    },
    {
      "midi": 40,
      "hit": false,
      "t": 135555.54200000022,
      "d": 1296.296166666696,
      "v": 127
    },
    {
      "midi": 47,
      "hit": false,
      "t": 135555.54200000022,
      "d": 1342.5924583333835,
      "v": 127
    },
    {
      "midi": 52,
      "hit": false,
      "t": 136111.09750000024,
      "d": 208.3333125000063,
      "v": 127
    },
    {
      "midi": 56,
      "hit": false,
      "t": 136666.65300000025,
      "d": 208.3333125000063,
      "v": 127
    },
    {
      "midi": 62,
      "hit": false,
      "t": 136666.65300000025,
      "d": 277.7777500000084,
      "v": 127
    },
    {
      "midi": 52,
      "hit": false,
      "t": 137222.20850000027,
      "d": 138.8888750000042,
      "v": 127
    },
    {
      "midi": 60,
      "hit": false,
      "t": 137777.7640000003,
      "d": 254.62960416666465,
      "v": 127
    },
    {
      "midi": 53,
      "hit": false,
      "t": 137777.7640000003,
      "d": 300.9258958333521,
      "v": 127
    },
    {
      "midi": 57,
      "hit": false,
      "t": 137777.7640000003,
      "d": 300.9258958333521,
      "v": 127
    },
    {
      "midi": 41,
      "hit": false,
      "t": 137777.7640000003,
      "d": 324.07404166669585,
      "v": 127
    },
    {
      "midi": 53,
      "hit": false,
      "t": 138333.3195000003,
      "d": 254.62960416666465,
      "v": 127
    },
    {
      "midi": 60,
      "hit": false,
      "t": 138888.8750000003,
      "d": 185.18516666666255,
      "v": 127
    },
    {
      "midi": 57,
      "hit": false,
      "t": 138888.8750000003,
      "d": 231.48145833332092,
      "v": 127
    },
    {
      "midi": 53,
      "hit": false,
      "t": 139444.43050000028,
      "d": 138.8888750000042,
      "v": 127
    },
    {
      "midi": 62,
      "hit": false,
      "t": 139999.9860000003,
      "d": 208.3333125000063,
      "v": 127
    },
    {
      "midi": 59,
      "hit": false,
      "t": 139999.9860000003,
      "d": 277.7777500000084,
      "v": 127
    },
    {
      "midi": 55,
      "hit": false,
      "t": 139999.9860000003,
      "d": 324.07404166666674,
      "v": 127
    },
    {
      "midi": 43,
      "hit": false,
      "t": 139999.9860000003,
      "d": 347.2221875000105,
      "v": 127
    },
    {
      "midi": 55,
      "hit": false,
      "t": 140555.5415000003,
      "d": 231.48145833332092,
      "v": 127
    },
    {
      "midi": 59,
      "hit": false,
      "t": 141111.0970000003,
      "d": 208.3333125000063,
      "v": 127
    },
    {
      "midi": 62,
      "hit": false,
      "t": 141111.0970000003,
      "d": 208.3333125000063,
      "v": 127
    },
    {
      "midi": 55,
      "hit": false,
      "t": 141666.65250000032,
      "d": 138.8888750000042,
      "v": 127
    },
    {
      "midi": 55,
      "hit": false,
      "t": 142222.20800000033,
      "d": 300.9258958333521,
      "v": 127
    },
    {
      "midi": 52,
      "hit": false,
      "t": 142222.20800000033,
      "d": 347.2221875000105,
      "v": 127
    },
    {
      "midi": 36,
      "hit": false,
      "t": 142222.20800000033,
      "d": 694.444375000021,
      "v": 127
    },
    {
      "midi": 43,
      "hit": false,
      "t": 142222.20800000033,
      "d": 740.7406666666793,
      "v": 127
    },
    {
      "midi": 48,
      "hit": false,
      "t": 142777.76350000035,
      "d": 208.3333125000063,
      "v": 127
    },
    {
      "midi": 55,
      "hit": false,
      "t": 143333.31900000037,
      "d": 208.3333125000063,
      "v": 127
    },
    {
      "midi": 59,
      "hit": false,
      "t": 143333.31900000037,
      "d": 208.3333125000063,
      "v": 127
    },
    {
      "midi": 48,
      "hit": false,
      "t": 143888.87450000038,
      "d": 162.03702083331882,
      "v": 127
    },
    {
      "midi": 60,
      "hit": false,
      "t": 143888.87450000038,
      "d": 162.03702083331882,
      "v": 127
    },
    {
      "midi": 64,
      "hit": false,
      "t": 144444.43000000037,
      "d": 300.9258958333521,
      "v": 127
    },
    {
      "midi": 56,
      "hit": false,
      "t": 144444.43000000037,
      "d": 370.3703333333542,
      "v": 127
    },
    {
      "midi": 40,
      "hit": false,
      "t": 144444.43000000037,
      "d": 787.0369583333377,
      "v": 127
    },
    {
      "midi": 47,
      "hit": false,
      "t": 144444.43000000037,
      "d": 856.4813958333398,
      "v": 127
    },
    {
      "midi": 52,
      "hit": false,
      "t": 144999.9855000004,
      "d": 277.7777499999793,
      "v": 127
    },
    {
      "midi": 56,
      "hit": false,
      "t": 145555.54100000038,
      "d": 208.3333125000063,
      "v": 127
    },
    {
      "midi": 62,
      "hit": false,
      "t": 145555.54100000038,
      "d": 231.48145833335002,
      "v": 127
    },
    {
      "midi": 52,
      "hit": false,
      "t": 146111.0965000004,
      "d": 185.18516666666255,
      "v": 127
    },
    {
      "midi": 60,
      "hit": false,
      "t": 146666.65200000038,
      "d": 277.7777500000084,
      "v": 127
    },
    {
      "midi": 53,
      "hit": false,
      "t": 146666.65200000038,
      "d": 300.9258958333521,
      "v": 127
    },
    {
      "midi": 57,
      "hit": false,
      "t": 146666.65200000038,
      "d": 300.9258958333521,
      "v": 127
    },
    {
      "midi": 41,
      "hit": false,
      "t": 146666.65200000038,
      "d": 393.51847916669794,
      "v": 127
    },
    {
      "midi": 53,
      "hit": false,
      "t": 147222.2075000004,
      "d": 254.62960416666465,
      "v": 127
    },
    {
      "midi": 57,
      "hit": false,
      "t": 147777.76300000038,
      "d": 231.48145833332092,
      "v": 127
    },
    {
      "midi": 60,
      "hit": false,
      "t": 147777.76300000038,
      "d": 231.48145833332092,
      "v": 127
    },
    {
      "midi": 53,
      "hit": false,
      "t": 148333.31850000037,
      "d": 162.03702083331882,
      "v": 127
    },
    {
      "midi": 62,
      "hit": false,
      "t": 148888.87400000036,
      "d": 231.48145833332092,
      "v": 127
    },
    {
      "midi": 59,
      "hit": false,
      "t": 148888.87400000036,
      "d": 347.2221874999814,
      "v": 127
    },
    {
      "midi": 43,
      "hit": false,
      "t": 148888.87400000036,
      "d": 370.3703333333251,
      "v": 127
    },
    {
      "midi": 55,
      "hit": false,
      "t": 148888.87400000036,
      "d": 370.3703333333251,
      "v": 127
    },
    {
      "midi": 55,
      "hit": false,
      "t": 149444.42950000035,
      "d": 254.62960416666465,
      "v": 127
    },
    {
      "midi": 62,
      "hit": false,
      "t": 149999.98500000034,
      "d": 208.3333125000063,
      "v": 127
    },
    {
      "midi": 59,
      "hit": false,
      "t": 149999.98500000034,
      "d": 231.48145833335002,
      "v": 127
    },
    {
      "midi": 55,
      "hit": false,
      "t": 150555.54050000035,
      "d": 162.03702083331882,
      "v": 127
    },
    {
      "midi": 55,
      "hit": false,
      "t": 151111.09600000034,
      "d": 254.62960416666465,
      "v": 127
    },
    {
      "midi": 52,
      "hit": false,
      "t": 151111.09600000034,
      "d": 277.7777500000084,
      "v": 127
    },
    {
      "midi": 36,
      "hit": false,
      "t": 151111.09600000034,
      "d": 393.51847916666884,
      "v": 127
    },
    {
      "midi": 43,
      "hit": false,
      "t": 151111.09600000034,
      "d": 393.51847916666884,
      "v": 127
    },
    {
      "midi": 48,
      "hit": false,
      "t": 151666.65150000033,
      "d": 185.18516666666255,
      "v": 127
    },
    {
      "midi": 59,
      "hit": false,
      "t": 152222.20700000032,
      "d": 208.3333125000063,
      "v": 127
    },
    {
      "midi": 55,
      "hit": false,
      "t": 152222.20700000032,
      "d": 231.48145833335002,
      "v": 127
    },
    {
      "midi": 48,
      "hit": false,
      "t": 152777.76250000033,
      "d": 138.8888750000042,
      "v": 127
    },
    {
      "midi": 60,
      "hit": false,
      "t": 152777.76250000033,
      "d": 208.3333125000063,
      "v": 127
    },
    {
      "midi": 64,
      "hit": false,
      "t": 153333.31800000035,
      "d": 300.9258958333521,
      "v": 127
    },
    {
      "midi": 56,
      "hit": false,
      "t": 153333.31800000035,
      "d": 416.6666250000126,
      "v": 123
    },
    {
      "midi": 40,
      "hit": false,
      "t": 153333.31800000035,
      "d": 439.8147708333563,
      "v": 127
    },
    {
      "midi": 47,
      "hit": false,
      "t": 153333.31800000035,
      "d": 439.8147708333563,
      "v": 127
    },
    {
      "midi": 52,
      "hit": false,
      "t": 153888.87350000037,
      "d": 231.48145833332092,
      "v": 127
    },
    {
      "midi": 62,
      "hit": false,
      "t": 154444.42900000035,
      "d": 208.3333125000063,
      "v": 127
    },
    {
      "midi": 56,
      "hit": false,
      "t": 154444.42900000035,
      "d": 277.7777500000084,
      "v": 126
    },
    {
      "midi": 52,
      "hit": false,
      "t": 154999.98450000037,
      "d": 208.3333125000063,
      "v": 127
    },
    {
      "midi": 60,
      "hit": false,
      "t": 155555.5400000004,
      "d": 277.7777500000084,
      "v": 127
    },
    {
      "midi": 41,
      "hit": false,
      "t": 155555.5400000004,
      "d": 300.9258958333521,
      "v": 127
    },
    {
      "midi": 57,
      "hit": false,
      "t": 155555.5400000004,
      "d": 324.07404166669585,
      "v": 127
    },
    {
      "midi": 48,
      "hit": false,
      "t": 155555.5400000004,
      "d": 393.51847916669794,
      "v": 127
    },
    {
      "midi": 53,
      "hit": false,
      "t": 156111.0955000004,
      "d": 254.62960416666465,
      "v": 127
    },
    {
      "midi": 60,
      "hit": false,
      "t": 156666.6510000004,
      "d": 208.3333125000063,
      "v": 127
    },
    {
      "midi": 57,
      "hit": false,
      "t": 156666.6510000004,
      "d": 231.48145833335002,
      "v": 127
    },
    {
      "midi": 53,
      "hit": false,
      "t": 157222.2065000004,
      "d": 185.18516666666255,
      "v": 127
    },
    {
      "midi": 62,
      "hit": false,
      "t": 157777.7620000004,
      "d": 231.48145833332092,
      "v": 127
    },
    {
      "midi": 59,
      "hit": false,
      "t": 157777.7620000004,
      "d": 324.07404166663764,
      "v": 127
    },
    {
      "midi": 43,
      "hit": false,
      "t": 157777.7620000004,
      "d": 347.2221874999814,
      "v": 127
    },
    {
      "midi": 50,
      "hit": false,
      "t": 157777.7620000004,
      "d": 347.2221874999814,
      "v": 127
    },
    {
      "midi": 55,
      "hit": false,
      "t": 158333.31750000038,
      "d": 185.18516666666255,
      "v": 127
    },
    {
      "midi": 59,
      "hit": false,
      "t": 158888.87300000037,
      "d": 185.18516666666255,
      "v": 127
    },
    {
      "midi": 62,
      "hit": false,
      "t": 158888.87300000037,
      "d": 208.3333125000063,
      "v": 127
    },
    {
      "midi": 55,
      "hit": false,
      "t": 159444.4285000004,
      "d": 138.8888750000042,
      "v": 127
    },
    {
      "midi": 36,
      "hit": false,
      "t": 159999.9840000004,
      "d": 462.96291666667094,
      "v": 127
    },
    {
      "midi": 43,
      "hit": false,
      "t": 159999.9840000004,
      "d": 555.5555000000168,
      "v": 127
    },
    {
      "midi": 52,
      "hit": false,
      "t": 159999.9840000004,
      "d": 4305.5551250000135,
      "v": 127
    },
    {
      "midi": 55,
      "hit": false,
      "t": 159999.9840000004,
      "d": 4305.5551250000135,
      "v": 127
    },
    {
      "midi": 48,
      "hit": false,
      "t": 160555.53950000042,
      "d": 555.5554999999877,
      "v": 127
    },
    {
      "midi": 31,
      "hit": false,
      "t": 161111.0950000004,
      "d": 601.851791666646,
      "v": 127
    },
    {
      "midi": 48,
      "hit": false,
      "t": 161666.6505000004,
      "d": 555.5554999999877,
      "v": 127
    },
    {
      "midi": 33,
      "hit": false,
      "t": 162222.20600000038,
      "d": 648.1480833333335,
      "v": 127
    },
    {
      "midi": 48,
      "hit": false,
      "t": 162777.76150000037,
      "d": 578.7036458333605,
      "v": 127
    },
    {
      "midi": 35,
      "hit": false,
      "t": 163333.3170000004,
      "d": 624.9999375000189,
      "v": 127
    },
    {
      "midi": 48,
      "hit": false,
      "t": 163888.8725000004,
      "d": 509.2592083333584,
      "v": 127
    },
    {
      "midi": 52,
      "hit": false,
      "t": 164444.42800000042,
      "d": 555.5554999999877,
      "v": 127
    },
    {
      "midi": 55,
      "hit": false,
      "t": 164444.42800000042,
      "d": 555.5554999999877,
      "v": 127
    },
    {
      "midi": 36,
      "hit": false,
      "t": 164444.42800000042,
      "d": 3888.888500000001,
      "v": 127
    },
    {
      "midi": 48,
      "hit": false,
      "t": 164999.9835000004,
      "d": 624.9999374999898,
      "v": 127
    },
    {
      "midi": 52,
      "hit": false,
      "t": 165555.5390000004,
      "d": 555.5554999999877,
      "v": 127
    },
    {
      "midi": 55,
      "hit": false,
      "t": 165555.5390000004,
      "d": 578.7036458333314,
      "v": 127
    },
    {
      "midi": 48,
      "hit": false,
      "t": 166111.09450000038,
      "d": 578.7036458333605,
      "v": 127
    },
    {
      "midi": 52,
      "hit": false,
      "t": 166666.6500000004,
      "d": 532.407354166673,
      "v": 127
    },
    {
      "midi": 55,
      "hit": false,
      "t": 166666.6500000004,
      "d": 532.407354166673,
      "v": 127
    },
    {
      "midi": 48,
      "hit": false,
      "t": 167222.20550000042,
      "d": 601.851791666646,
      "v": 127
    },
    {
      "midi": 52,
      "hit": false,
      "t": 167777.7610000004,
      "d": 509.2592083333293,
      "v": 126
    },
    {
      "midi": 55,
      "hit": false,
      "t": 167777.7610000004,
      "d": 509.2592083333293,
      "v": 127
    },
    {
      "midi": 59,
      "hit": false,
      "t": 167777.7610000004,
      "d": 532.407354166673,
      "v": 127
    },
    {
      "midi": 48,
      "hit": false,
      "t": 168333.31650000042,
      "d": 578.7036458333314,
      "v": 127
    },
    {
      "midi": 53,
      "hit": false,
      "t": 168888.8720000004,
      "d": 532.407354166673,
      "v": 127
    },
    {
      "midi": 57,
      "hit": false,
      "t": 168888.8720000004,
      "d": 555.5555000000168,
      "v": 125
    },
    {
      "midi": 60,
      "hit": false,
      "t": 168888.8720000004,
      "d": 555.5555000000168,
      "v": 127
    },
    {
      "midi": 41,
      "hit": false,
      "t": 168888.8720000004,
      "d": 3749.9996249999967,
      "v": 127
    },
    {
      "midi": 48,
      "hit": false,
      "t": 169444.42750000043,
      "d": 578.7036458333314,
      "v": 127
    },
    {
      "midi": 60,
      "hit": false,
      "t": 169999.98300000041,
      "d": 509.2592083333293,
      "v": 127
    },
    {
      "midi": 53,
      "hit": false,
      "t": 169999.98300000041,
      "d": 532.407354166673,
      "v": 127
    },
    {
      "midi": 57,
      "hit": false,
      "t": 169999.98300000041,
      "d": 532.407354166673,
      "v": 127
    },
    {
      "midi": 48,
      "hit": false,
      "t": 170555.53850000043,
      "d": 601.851791666646,
      "v": 127
    },
    {
      "midi": 53,
      "hit": false,
      "t": 171111.09400000042,
      "d": 532.4073541666439,
      "v": 127
    },
    {
      "midi": 57,
      "hit": false,
      "t": 171111.09400000042,
      "d": 555.5554999999877,
      "v": 126
    },
    {
      "midi": 60,
      "hit": false,
      "t": 171111.09400000042,
      "d": 601.851791666646,
      "v": 127
    },
    {
      "midi": 48,
      "hit": false,
      "t": 171666.6495000004,
      "d": 1064.814708333346,
      "v": 127
    },
    {
      "midi": 57,
      "hit": false,
      "t": 172222.2050000004,
      "d": 324.07404166666674,
      "v": 127
    },
    {
      "midi": 53,
      "hit": false,
      "t": 172222.2050000004,
      "d": 393.51847916666884,
      "v": 127
    },
    {
      "midi": 58,
      "hit": false,
      "t": 172499.9827500004,
      "d": 324.07404166666674,
      "v": 127
    },
    {
      "midi": 59,
      "hit": false,
      "t": 172777.7605000004,
      "d": 578.7036458333314,
      "v": 127
    },
    {
      "midi": 55,
      "hit": false,
      "t": 173333.3160000004,
      "d": 532.407354166673,
      "v": 127
    },
    {
      "midi": 52,
      "hit": false,
      "t": 173333.3160000004,
      "d": 601.8517916666751,
      "v": 124
    },
    {
      "midi": 62,
      "hit": false,
      "t": 173333.3160000004,
      "d": 601.8517916666751,
      "v": 127
    },
    {
      "midi": 36,
      "hit": false,
      "t": 173333.3160000004,
      "d": 3865.740354166657,
      "v": 127
    },
    {
      "midi": 48,
      "hit": false,
      "t": 173888.87150000042,
      "d": 601.851791666646,
      "v": 127
    },
    {
      "midi": 52,
      "hit": false,
      "t": 174444.4270000004,
      "d": 486.11106249998556,
      "v": 127
    },
    {
      "midi": 55,
      "hit": false,
      "t": 174444.4270000004,
      "d": 486.11106249998556,
      "v": 127
    },
    {
      "midi": 48,
      "hit": false,
      "t": 174999.9825000004,
      "d": 578.7036458333314,
      "v": 127
    },
    {
      "midi": 55,
      "hit": false,
      "t": 175555.53800000038,
      "d": 532.407354166673,
      "v": 127
    },
    {
      "midi": 52,
      "hit": false,
      "t": 175555.53800000038,
      "d": 555.5555000000168,
      "v": 127
    },
    {
      "midi": 48,
      "hit": false,
      "t": 176111.0935000004,
      "d": 578.7036458333314,
      "v": 127
    },
    {
      "midi": 52,
      "hit": false,
      "t": 176666.64900000038,
      "d": 532.407354166673,
      "v": 126
    },
    {
      "midi": 55,
      "hit": false,
      "t": 176666.64900000038,
      "d": 555.5555000000168,
      "v": 126
    },
    {
      "midi": 59,
      "hit": false,
      "t": 176666.64900000038,
      "d": 578.7036458333605,
      "v": 127
    },
    {
      "midi": 48,
      "hit": false,
      "t": 177222.2045000004,
      "d": 578.7036458333605,
      "v": 127
    },
    {
      "midi": 53,
      "hit": false,
      "t": 177777.76000000042,
      "d": 578.7036458333605,
      "v": 127
    },
    {
      "midi": 57,
      "hit": false,
      "t": 177777.76000000042,
      "d": 578.7036458333605,
      "v": 118
    },
    {
      "midi": 60,
      "hit": false,
      "t": 177777.76000000042,
      "d": 578.7036458333605,
      "v": 125
    },
    {
      "midi": 41,
      "hit": false,
      "t": 177777.76000000042,
      "d": 3680.555187500053,
      "v": 127
    },
    {
      "midi": 48,
      "hit": false,
      "t": 178333.31550000043,
      "d": 555.5555000000168,
      "v": 127
    },
    {
      "midi": 53,
      "hit": false,
      "t": 178888.87100000045,
      "d": 532.407354166673,
      "v": 126
    },
    {
      "midi": 57,
      "hit": false,
      "t": 178888.87100000045,
      "d": 555.5555000000168,
      "v": 124
    },
    {
      "midi": 60,
      "hit": false,
      "t": 178888.87100000045,
      "d": 555.5555000000168,
      "v": 125
    },
    {
      "midi": 48,
      "hit": false,
      "t": 179444.42650000047,
      "d": 601.851791666646,
      "v": 127
    },
    {
      "midi": 53,
      "hit": false,
      "t": 179999.98200000045,
      "d": 532.4073541666439,
      "v": 126
    },
    {
      "midi": 60,
      "hit": false,
      "t": 179999.98200000045,
      "d": 578.7036458333314,
      "v": 127
    },
    {
      "midi": 57,
      "hit": false,
      "t": 179999.98200000045,
      "d": 601.8517916666751,
      "v": 120
    },
    {
      "midi": 48,
      "hit": false,
      "t": 180555.53750000044,
      "d": 995.3702708333731,
      "v": 127
    },
    {
      "midi": 57,
      "hit": false,
      "t": 181111.09300000046,
      "d": 324.07404166666674,
      "v": 127
    },
    {
      "midi": 53,
      "hit": false,
      "t": 181111.09300000046,
      "d": 347.2221875000105,
      "v": 127
    },
    {
      "midi": 58,
      "hit": false,
      "t": 181388.87075000047,
      "d": 370.3703333333542,
      "v": 126
    },
    {
      "midi": 59,
      "hit": false,
      "t": 181666.64850000048,
      "d": 601.8517916666751,
      "v": 127
    },
    {
      "midi": 55,
      "hit": false,
      "t": 182222.2040000005,
      "d": 509.2592083333002,
      "v": 127
    },
    {
      "midi": 52,
      "hit": false,
      "t": 182222.2040000005,
      "d": 555.5554999999586,
      "v": 118
    },
    {
      "midi": 62,
      "hit": false,
      "t": 182222.2040000005,
      "d": 601.8517916666169,
      "v": 127
    },
    {
      "midi": 36,
      "hit": false,
      "t": 182222.2040000005,
      "d": 3888.888499999972,
      "v": 127
    },
    {
      "midi": 48,
      "hit": false,
      "t": 182777.75950000045,
      "d": 555.5554999999877,
      "v": 127
    },
    {
      "midi": 52,
      "hit": false,
      "t": 183333.31500000044,
      "d": 532.407354166673,
      "v": 127
    },
    {
      "midi": 55,
      "hit": false,
      "t": 183333.31500000044,
      "d": 532.407354166673,
      "v": 127
    },
    {
      "midi": 48,
      "hit": false,
      "t": 183888.87050000046,
      "d": 578.7036458333314,
      "v": 127
    },
    {
      "midi": 55,
      "hit": false,
      "t": 184444.42600000044,
      "d": 555.5555000000168,
      "v": 127
    },
    {
      "midi": 52,
      "hit": false,
      "t": 184444.42600000044,
      "d": 578.7036458333605,
      "v": 127
    },
    {
      "midi": 48,
      "hit": false,
      "t": 184999.98150000046,
      "d": 601.8517916666751,
      "v": 127
    },
    {
      "midi": 52,
      "hit": false,
      "t": 185555.53700000048,
      "d": 555.5554999999877,
      "v": 127
    },
    {
      "midi": 55,
      "hit": false,
      "t": 185555.53700000048,
      "d": 555.5554999999877,
      "v": 127
    },
    {
      "midi": 59,
      "hit": false,
      "t": 185555.53700000048,
      "d": 578.7036458333314,
      "v": 127
    },
    {
      "midi": 48,
      "hit": false,
      "t": 186111.09250000046,
      "d": 578.7036458333605,
      "v": 127
    },
    {
      "midi": 53,
      "hit": false,
      "t": 186666.64800000048,
      "d": 532.407354166673,
      "v": 127
    },
    {
      "midi": 57,
      "hit": false,
      "t": 186666.64800000048,
      "d": 578.7036458333605,
      "v": 124
    },
    {
      "midi": 60,
      "hit": false,
      "t": 186666.64800000048,
      "d": 578.7036458333605,
      "v": 127
    },
    {
      "midi": 41,
      "hit": false,
      "t": 186666.64800000048,
      "d": 3518.518166666705,
      "v": 127
    },
    {
      "midi": 48,
      "hit": false,
      "t": 187222.2035000005,
      "d": 509.2592083333293,
      "v": 127
    },
    {
      "midi": 53,
      "hit": false,
      "t": 187777.7590000005,
      "d": 509.2592083333293,
      "v": 126
    },
    {
      "midi": 57,
      "hit": false,
      "t": 187777.7590000005,
      "d": 509.2592083333293,
      "v": 125
    },
    {
      "midi": 60,
      "hit": false,
      "t": 187777.7590000005,
      "d": 532.407354166673,
      "v": 127
    },
    {
      "midi": 48,
      "hit": false,
      "t": 188333.3145000005,
      "d": 578.7036458333314,
      "v": 127
    },
    {
      "midi": 53,
      "hit": false,
      "t": 188888.8700000005,
      "d": 486.11106250001467,
      "v": 127
    },
    {
      "midi": 60,
      "hit": false,
      "t": 188888.8700000005,
      "d": 532.407354166673,
      "v": 127
    },
    {
      "midi": 57,
      "hit": false,
      "t": 188888.8700000005,
      "d": 578.7036458333605,
      "v": 127
    },
    {
      "midi": 48,
      "hit": false,
      "t": 189444.4255000005,
      "d": 833.3332500000251,
      "v": 127
    },
    {
      "midi": 53,
      "hit": false,
      "t": 189999.98100000052,
      "d": 347.2221875000105,
      "v": 127
    },
    {
      "midi": 57,
      "hit": false,
      "t": 189999.98100000052,
      "d": 347.2221875000105,
      "v": 127
    },
    {
      "midi": 58,
      "hit": false,
      "t": 190277.75875000053,
      "d": 370.3703333333542,
      "v": 127
    },
    {
      "midi": 59,
      "hit": false,
      "t": 190555.53650000054,
      "d": 601.8517916666751,
      "v": 127
    },
    {
      "midi": 55,
      "hit": false,
      "t": 191111.09200000056,
      "d": 509.2592083333002,
      "v": 127
    },
    {
      "midi": 52,
      "hit": false,
      "t": 191111.09200000056,
      "d": 555.5554999999586,
      "v": 123
    },
    {
      "midi": 62,
      "hit": false,
      "t": 191111.09200000056,
      "d": 555.5554999999586,
      "v": 127
    },
    {
      "midi": 36,
      "hit": false,
      "t": 191111.09200000056,
      "d": 3888.8884999999427,
      "v": 127
    },
    {
      "midi": 48,
      "hit": false,
      "t": 191666.64750000052,
      "d": 601.851791666646,
      "v": 127
    },
    {
      "midi": 55,
      "hit": false,
      "t": 192222.2030000005,
      "d": 532.4073541666439,
      "v": 127
    },
    {
      "midi": 52,
      "hit": false,
      "t": 192222.2030000005,
      "d": 555.5554999999877,
      "v": 127
    },
    {
      "midi": 48,
      "hit": false,
      "t": 192777.7585000005,
      "d": 578.7036458333314,
      "v": 127
    },
    {
      "midi": 52,
      "hit": false,
      "t": 193333.31400000048,
      "d": 601.8517916666751,
      "v": 127
    },
    {
      "midi": 55,
      "hit": false,
      "t": 193333.31400000048,
      "d": 601.8517916666751,
      "v": 127
    },
    {
      "midi": 48,
      "hit": false,
      "t": 193888.8695000005,
      "d": 578.7036458333314,
      "v": 127
    },
    {
      "midi": 52,
      "hit": false,
      "t": 194444.42500000048,
      "d": 555.5555000000168,
      "v": 127
    },
    {
      "midi": 55,
      "hit": false,
      "t": 194444.42500000048,
      "d": 555.5555000000168,
      "v": 124
    },
    {
      "midi": 59,
      "hit": false,
      "t": 194444.42500000048,
      "d": 601.8517916666751,
      "v": 125
    },
    {
      "midi": 48,
      "hit": false,
      "t": 194999.9805000005,
      "d": 578.7036458333314,
      "v": 127
    },
    {
      "midi": 53,
      "hit": false,
      "t": 195555.5360000005,
      "d": 555.5555000000168,
      "v": 127
    },
    {
      "midi": 57,
      "hit": false,
      "t": 195555.5360000005,
      "d": 578.7036458333605,
      "v": 124
    },
    {
      "midi": 60,
      "hit": false,
      "t": 195555.5360000005,
      "d": 578.7036458333605,
      "v": 126
    },
    {
      "midi": 41,
      "hit": false,
      "t": 195555.5360000005,
      "d": 3958.332937500032,
      "v": 127
    },
    {
      "midi": 48,
      "hit": false,
      "t": 196111.0915000005,
      "d": 555.5555000000168,
      "v": 127
    },
    {
      "midi": 53,
      "hit": false,
      "t": 196666.64700000052,
      "d": 578.7036458333314,
      "v": 127
    },
    {
      "midi": 57,
      "hit": false,
      "t": 196666.64700000052,
      "d": 578.7036458333314,
      "v": 124
    },
    {
      "midi": 60,
      "hit": false,
      "t": 196666.64700000052,
      "d": 578.7036458333314,
      "v": 125
    },
    {
      "midi": 48,
      "hit": false,
      "t": 197222.2025000005,
      "d": 578.7036458333605,
      "v": 127
    },
    {
      "midi": 53,
      "hit": false,
      "t": 197777.75800000053,
      "d": 555.5555000000168,
      "v": 127
    },
    {
      "midi": 57,
      "hit": false,
      "t": 197777.75800000053,
      "d": 555.5555000000168,
      "v": 124
    },
    {
      "midi": 60,
      "hit": false,
      "t": 197777.75800000053,
      "d": 555.5555000000168,
      "v": 127
    },
    {
      "midi": 48,
      "hit": false,
      "t": 198333.31350000054,
      "d": 624.9999374999898,
      "v": 127
    },
    {
      "midi": 53,
      "hit": false,
      "t": 198888.86900000053,
      "d": 555.5554999999877,
      "v": 127
    },
    {
      "midi": 57,
      "hit": false,
      "t": 198888.86900000053,
      "d": 601.851791666646,
      "v": 123
    },
    {
      "midi": 60,
      "hit": false,
      "t": 198888.86900000053,
      "d": 601.851791666646,
      "v": 127
    },
    {
      "midi": 48,
      "hit": false,
      "t": 199444.42450000052,
      "d": 601.851791666646,
      "v": 127
    },
    {
      "midi": 53,
      "hit": false,
      "t": 199999.9800000005,
      "d": 92.59258333331672,
      "v": 120
    },
    {
      "midi": 57,
      "hit": false,
      "t": 199999.9800000005,
      "d": 393.51847916663974,
      "v": 126
    },
    {
      "midi": 60,
      "hit": false,
      "t": 199999.9800000005,
      "d": 462.96291666664183,
      "v": 127
    },
    {
      "midi": 41,
      "hit": false,
      "t": 199999.9800000005,
      "d": 1666.666499999963,
      "v": 127
    },
    {
      "midi": 53,
      "hit": false,
      "t": 200555.5355000005,
      "d": 509.2592083333293,
      "v": 127
    },
    {
      "midi": 57,
      "hit": false,
      "t": 201111.09100000048,
      "d": 578.7036458333314,
      "v": 127
    },
    {
      "midi": 60,
      "hit": false,
      "t": 201111.09100000048,
      "d": 601.8517916666751,
      "v": 127
    },
    {
      "midi": 53,
      "hit": false,
      "t": 201666.64650000047,
      "d": 555.5555000000168,
      "v": 127
    },
    {
      "midi": 57,
      "hit": false,
      "t": 202222.20200000048,
      "d": 601.851791666646,
      "v": 127
    },
    {
      "midi": 60,
      "hit": false,
      "t": 202222.20200000048,
      "d": 624.9999374999898,
      "v": 127
    },
    {
      "midi": 40,
      "hit": false,
      "t": 202222.20200000048,
      "d": 1689.8146458333358,
      "v": 127
    },
    {
      "midi": 52,
      "hit": false,
      "t": 202777.75750000047,
      "d": 578.7036458333314,
      "v": 127
    },
    {
      "midi": 57,
      "hit": false,
      "t": 203333.31300000046,
      "d": 555.5555000000168,
      "v": 127
    },
    {
      "midi": 60,
      "hit": false,
      "t": 203333.31300000046,
      "d": 578.7036458333605,
      "v": 127
    },
    {
      "midi": 52,
      "hit": false,
      "t": 203888.86850000048,
      "d": 578.7036458333605,
      "v": 127
    },
    {
      "midi": 53,
      "hit": false,
      "t": 204444.4240000005,
      "d": 578.7036458333605,
      "v": 127
    },
    {
      "midi": 57,
      "hit": false,
      "t": 204444.4240000005,
      "d": 578.7036458333605,
      "v": 127
    },
    {
      "midi": 60,
      "hit": false,
      "t": 204444.4240000005,
      "d": 578.7036458333605,
      "v": 127
    },
    {
      "midi": 38,
      "hit": false,
      "t": 204444.4240000005,
      "d": 1620.3702083333628,
      "v": 127
    },
    {
      "midi": 50,
      "hit": false,
      "t": 204999.9795000005,
      "d": 578.7036458333605,
      "v": 127
    },
    {
      "midi": 53,
      "hit": false,
      "t": 205555.53500000053,
      "d": 532.407354166673,
      "v": 127
    },
    {
      "midi": 57,
      "hit": false,
      "t": 205555.53500000053,
      "d": 578.7036458333605,
      "v": 127
    },
    {
      "midi": 60,
      "hit": false,
      "t": 205555.53500000053,
      "d": 601.8517916667042,
      "v": 127
    },
    {
      "midi": 50,
      "hit": false,
      "t": 206111.09050000054,
      "d": 555.5555000000168,
      "v": 127
    },
    {
      "midi": 53,
      "hit": false,
      "t": 206666.64600000056,
      "d": 601.851791666646,
      "v": 127
    },
    {
      "midi": 57,
      "hit": false,
      "t": 206666.64600000056,
      "d": 601.851791666646,
      "v": 127
    },
    {
      "midi": 60,
      "hit": false,
      "t": 206666.64600000056,
      "d": 601.851791666646,
      "v": 127
    },
    {
      "midi": 36,
      "hit": false,
      "t": 206666.64600000056,
      "d": 1712.9627916666795,
      "v": 127
    },
    {
      "midi": 48,
      "hit": false,
      "t": 207222.20150000055,
      "d": 578.7036458333314,
      "v": 127
    },
    {
      "midi": 53,
      "hit": false,
      "t": 207777.75700000054,
      "d": 578.7036458333605,
      "v": 127
    },
    {
      "midi": 57,
      "hit": false,
      "t": 207777.75700000054,
      "d": 578.7036458333605,
      "v": 127
    },
    {
      "midi": 60,
      "hit": false,
      "t": 207777.75700000054,
      "d": 601.8517916667042,
      "v": 127
    },
    {
      "midi": 48,
      "hit": false,
      "t": 208333.31250000055,
      "d": 555.5555000000168,
      "v": 127
    },
    {
      "midi": 59,
      "hit": false,
      "t": 208888.86800000057,
      "d": 555.5554999999877,
      "v": 127
    },
    {
      "midi": 62,
      "hit": false,
      "t": 208888.86800000057,
      "d": 555.5554999999877,
      "v": 127
    },
    {
      "midi": 43,
      "hit": false,
      "t": 208888.86800000057,
      "d": 3981.4810833332594,
      "v": 127
    },
    {
      "midi": 55,
      "hit": false,
      "t": 209444.42350000056,
      "d": 555.5554999999877,
      "v": 127
    },
    {
      "midi": 59,
      "hit": false,
      "t": 209999.97900000055,
      "d": 555.5554999999877,
      "v": 127
    },
    {
      "midi": 62,
      "hit": false,
      "t": 209999.97900000055,
      "d": 624.9999374999898,
      "v": 127
    },
    {
      "midi": 55,
      "hit": false,
      "t": 210555.53450000053,
      "d": 578.7036458333314,
      "v": 127
    },
    {
      "midi": 62,
      "hit": false,
      "t": 211111.09000000052,
      "d": 578.7036458333605,
      "v": 127
    },
    {
      "midi": 59,
      "hit": false,
      "t": 211111.09000000052,
      "d": 624.9999375000189,
      "v": 127
    },
    {
      "midi": 55,
      "hit": false,
      "t": 211666.64550000054,
      "d": 601.851791666646,
      "v": 127
    },
    {
      "midi": 64,
      "hit": false,
      "t": 212222.20100000052,
      "d": 462.96291666664183,
      "v": 127
    },
    {
      "midi": 60,
      "hit": false,
      "t": 212222.20100000052,
      "d": 509.2592083333002,
      "v": 127
    },
    {
      "midi": 55,
      "hit": false,
      "t": 212777.75650000048,
      "d": 138.8888750000042,
      "v": 125
    },
    {
      "midi": 55,
      "hit": false,
      "t": 213333.3120000005,
      "d": 277.7777500000084,
      "v": 127
    },
    {
      "midi": 62,
      "hit": false,
      "t": 213333.3120000005,
      "d": 300.9258958333521,
      "v": 127
    },
    {
      "midi": 65,
      "hit": false,
      "t": 213333.3120000005,
      "d": 347.2221875000105,
      "v": 127
    },
    {
      "midi": 50,
      "hit": false,
      "t": 213333.3120000005,
      "d": 2083.3331250000047,
      "v": 127
    },
    {
      "midi": 43,
      "hit": false,
      "t": 213333.3120000005,
      "d": 2175.9257083333505,
      "v": 127
    },
    {
      "midi": 53,
      "hit": false,
      "t": 217777.75600000052,
      "d": 254.62960416666465,
      "v": 127
    },
    {
      "midi": 57,
      "hit": false,
      "t": 217777.75600000052,
      "d": 254.62960416666465,
      "v": 127
    },
    {
      "midi": 60,
      "hit": false,
      "t": 217777.75600000052,
      "d": 254.62960416666465,
      "v": 127
    },
    {
      "midi": 41,
      "hit": false,
      "t": 217777.75600000052,
      "d": 324.07404166666674,
      "v": 127
    },
    {
      "midi": 53,
      "hit": false,
      "t": 218333.3115000005,
      "d": 231.48145833332092,
      "v": 127
    },
    {
      "midi": 57,
      "hit": false,
      "t": 218888.8670000005,
      "d": 231.48145833332092,
      "v": 127
    },
    {
      "midi": 60,
      "hit": false,
      "t": 218888.8670000005,
      "d": 254.62960416666465,
      "v": 127
    },
    {
      "midi": 53,
      "hit": false,
      "t": 219444.42250000048,
      "d": 162.03702083331882,
      "v": 127
    },
    {
      "midi": 62,
      "hit": false,
      "t": 219999.97800000047,
      "d": 254.62960416666465,
      "v": 127
    },
    {
      "midi": 59,
      "hit": false,
      "t": 219999.97800000047,
      "d": 347.2221875000105,
      "v": 127
    },
    {
      "midi": 43,
      "hit": false,
      "t": 219999.97800000047,
      "d": 370.3703333333542,
      "v": 127
    },
    {
      "midi": 55,
      "hit": false,
      "t": 219999.97800000047,
      "d": 370.3703333333542,
      "v": 127
    },
    {
      "midi": 55,
      "hit": false,
      "t": 220555.53350000049,
      "d": 208.3333125000063,
      "v": 127
    },
    {
      "midi": 59,
      "hit": false,
      "t": 221111.0890000005,
      "d": 231.48145833332092,
      "v": 127
    },
    {
      "midi": 62,
      "hit": false,
      "t": 221111.0890000005,
      "d": 231.48145833332092,
      "v": 127
    },
    {
      "midi": 55,
      "hit": false,
      "t": 221666.6445000005,
      "d": 115.74072916666046,
      "v": 127
    },
    {
      "midi": 55,
      "hit": false,
      "t": 222222.20000000048,
      "d": 462.96291666667094,
      "v": 127
    },
    {
      "midi": 52,
      "hit": false,
      "t": 222222.20000000048,
      "d": 532.407354166673,
      "v": 127
    },
    {
      "midi": 36,
      "hit": false,
      "t": 222222.20000000048,
      "d": 1319.4443125000107,
      "v": 123
    },
    {
      "midi": 43,
      "hit": false,
      "t": 222222.20000000048,
      "d": 1342.5924583333544,
      "v": 127
    },
    {
      "midi": 48,
      "hit": false,
      "t": 222777.7555000005,
      "d": 254.62960416666465,
      "v": 127
    },
    {
      "midi": 55,
      "hit": false,
      "t": 223333.31100000048,
      "d": 208.3333125000063,
      "v": 127
    },
    {
      "midi": 59,
      "hit": false,
      "t": 223333.31100000048,
      "d": 231.48145833335002,
      "v": 127
    },
    {
      "midi": 48,
      "hit": false,
      "t": 223888.8665000005,
      "d": 138.8888750000042,
      "v": 127
    },
    {
      "midi": 60,
      "hit": false,
      "t": 223888.8665000005,
      "d": 138.8888750000042,
      "v": 127
    },
    {
      "midi": 64,
      "hit": false,
      "t": 224444.42200000052,
      "d": 532.407354166673,
      "v": 127
    },
    {
      "midi": 56,
      "hit": false,
      "t": 224444.42200000052,
      "d": 578.7036458333605,
      "v": 127
    },
    {
      "midi": 40,
      "hit": false,
      "t": 224444.42200000052,
      "d": 1296.296166666696,
      "v": 127
    },
    {
      "midi": 47,
      "hit": false,
      "t": 224444.42200000052,
      "d": 1342.5924583333835,
      "v": 127
    },
    {
      "midi": 52,
      "hit": false,
      "t": 224999.97750000053,
      "d": 208.3333125000063,
      "v": 127
    },
    {
      "midi": 56,
      "hit": false,
      "t": 225555.53300000055,
      "d": 208.3333125000063,
      "v": 127
    },
    {
      "midi": 62,
      "hit": false,
      "t": 225555.53300000055,
      "d": 277.7777500000084,
      "v": 127
    },
    {
      "midi": 52,
      "hit": false,
      "t": 226111.08850000057,
      "d": 138.8888750000042,
      "v": 127
    },
    {
      "midi": 60,
      "hit": false,
      "t": 226666.64400000058,
      "d": 254.62960416666465,
      "v": 127
    },
    {
      "midi": 53,
      "hit": false,
      "t": 226666.64400000058,
      "d": 300.9258958333521,
      "v": 127
    },
    {
      "midi": 57,
      "hit": false,
      "t": 226666.64400000058,
      "d": 300.9258958333521,
      "v": 127
    },
    {
      "midi": 41,
      "hit": false,
      "t": 226666.64400000058,
      "d": 324.07404166669585,
      "v": 127
    },
    {
      "midi": 53,
      "hit": false,
      "t": 227222.1995000006,
      "d": 254.62960416666465,
      "v": 127
    },
    {
      "midi": 60,
      "hit": false,
      "t": 227777.7550000006,
      "d": 185.18516666666255,
      "v": 127
    },
    {
      "midi": 57,
      "hit": false,
      "t": 227777.7550000006,
      "d": 231.48145833332092,
      "v": 127
    },
    {
      "midi": 53,
      "hit": false,
      "t": 228333.31050000057,
      "d": 138.8888750000042,
      "v": 127
    },
    {
      "midi": 62,
      "hit": false,
      "t": 228888.8660000006,
      "d": 208.3333125000063,
      "v": 127
    },
    {
      "midi": 59,
      "hit": false,
      "t": 228888.8660000006,
      "d": 277.7777500000084,
      "v": 127
    },
    {
      "midi": 55,
      "hit": false,
      "t": 228888.8660000006,
      "d": 324.07404166666674,
      "v": 127
    },
    {
      "midi": 43,
      "hit": false,
      "t": 228888.8660000006,
      "d": 347.2221875000105,
      "v": 127
    },
    {
      "midi": 55,
      "hit": false,
      "t": 229444.4215000006,
      "d": 231.48145833332092,
      "v": 127
    },
    {
      "midi": 59,
      "hit": false,
      "t": 229999.9770000006,
      "d": 208.3333125000063,
      "v": 127
    },
    {
      "midi": 62,
      "hit": false,
      "t": 229999.9770000006,
      "d": 208.3333125000063,
      "v": 127
    },
    {
      "midi": 55,
      "hit": false,
      "t": 230555.5325000006,
      "d": 138.8888750000042,
      "v": 127
    },
    {
      "midi": 55,
      "hit": false,
      "t": 231111.08800000063,
      "d": 300.9258958333521,
      "v": 127
    },
    {
      "midi": 52,
      "hit": false,
      "t": 231111.08800000063,
      "d": 347.2221875000105,
      "v": 127
    },
    {
      "midi": 36,
      "hit": false,
      "t": 231111.08800000063,
      "d": 694.444375000021,
      "v": 127
    },
    {
      "midi": 43,
      "hit": false,
      "t": 231111.08800000063,
      "d": 740.7406666666793,
      "v": 127
    },
    {
      "midi": 48,
      "hit": false,
      "t": 231666.64350000065,
      "d": 208.3333125000063,
      "v": 127
    },
    {
      "midi": 55,
      "hit": false,
      "t": 232222.19900000066,
      "d": 208.3333125000063,
      "v": 127
    },
    {
      "midi": 59,
      "hit": false,
      "t": 232222.19900000066,
      "d": 208.3333125000063,
      "v": 127
    },
    {
      "midi": 48,
      "hit": false,
      "t": 232777.75450000068,
      "d": 162.03702083331882,
      "v": 127
    },
    {
      "midi": 60,
      "hit": false,
      "t": 232777.75450000068,
      "d": 162.03702083331882,
      "v": 127
    },
    {
      "midi": 64,
      "hit": false,
      "t": 233333.31000000067,
      "d": 300.9258958333521,
      "v": 127
    },
    {
      "midi": 56,
      "hit": false,
      "t": 233333.31000000067,
      "d": 370.3703333333542,
      "v": 127
    },
    {
      "midi": 40,
      "hit": false,
      "t": 233333.31000000067,
      "d": 787.0369583333377,
      "v": 127
    },
    {
      "midi": 47,
      "hit": false,
      "t": 233333.31000000067,
      "d": 856.4813958333398,
      "v": 127
    },
    {
      "midi": 52,
      "hit": false,
      "t": 233888.86550000068,
      "d": 277.7777499999793,
      "v": 127
    },
    {
      "midi": 56,
      "hit": false,
      "t": 234444.42100000067,
      "d": 208.3333125000063,
      "v": 127
    },
    {
      "midi": 62,
      "hit": false,
      "t": 234444.42100000067,
      "d": 231.48145833335002,
      "v": 127
    },
    {
      "midi": 52,
      "hit": false,
      "t": 234999.9765000007,
      "d": 185.18516666666255,
      "v": 127
    },
    {
      "midi": 60,
      "hit": false,
      "t": 235555.53200000068,
      "d": 277.7777500000084,
      "v": 127
    },
    {
      "midi": 53,
      "hit": false,
      "t": 235555.53200000068,
      "d": 300.9258958333521,
      "v": 127
    },
    {
      "midi": 57,
      "hit": false,
      "t": 235555.53200000068,
      "d": 300.9258958333521,
      "v": 127
    },
    {
      "midi": 41,
      "hit": false,
      "t": 235555.53200000068,
      "d": 393.51847916669794,
      "v": 127
    },
    {
      "midi": 53,
      "hit": false,
      "t": 236111.0875000007,
      "d": 254.62960416666465,
      "v": 127
    },
    {
      "midi": 57,
      "hit": false,
      "t": 236666.64300000068,
      "d": 231.48145833332092,
      "v": 127
    },
    {
      "midi": 60,
      "hit": false,
      "t": 236666.64300000068,
      "d": 231.48145833332092,
      "v": 127
    },
    {
      "midi": 53,
      "hit": false,
      "t": 237222.19850000067,
      "d": 162.03702083331882,
      "v": 127
    },
    {
      "midi": 62,
      "hit": false,
      "t": 237777.75400000066,
      "d": 231.48145833332092,
      "v": 127
    },
    {
      "midi": 59,
      "hit": false,
      "t": 237777.75400000066,
      "d": 347.2221874999814,
      "v": 127
    },
    {
      "midi": 43,
      "hit": false,
      "t": 237777.75400000066,
      "d": 370.3703333333251,
      "v": 127
    },
    {
      "midi": 55,
      "hit": false,
      "t": 237777.75400000066,
      "d": 370.3703333333251,
      "v": 127
    },
    {
      "midi": 55,
      "hit": false,
      "t": 238333.30950000064,
      "d": 254.62960416666465,
      "v": 127
    },
    {
      "midi": 62,
      "hit": false,
      "t": 238888.86500000063,
      "d": 208.3333125000063,
      "v": 127
    },
    {
      "midi": 59,
      "hit": false,
      "t": 238888.86500000063,
      "d": 231.48145833335002,
      "v": 127
    },
    {
      "midi": 55,
      "hit": false,
      "t": 239444.42050000065,
      "d": 162.03702083331882,
      "v": 127
    },
    {
      "midi": 55,
      "hit": false,
      "t": 239999.97600000064,
      "d": 254.62960416666465,
      "v": 127
    },
    {
      "midi": 52,
      "hit": false,
      "t": 239999.97600000064,
      "d": 277.7777500000084,
      "v": 127
    },
    {
      "midi": 36,
      "hit": false,
      "t": 239999.97600000064,
      "d": 393.51847916666884,
      "v": 127
    },
    {
      "midi": 43,
      "hit": false,
      "t": 239999.97600000064,
      "d": 393.51847916666884,
      "v": 127
    },
    {
      "midi": 48,
      "hit": false,
      "t": 240555.53150000062,
      "d": 185.18516666666255,
      "v": 127
    },
    {
      "midi": 59,
      "hit": false,
      "t": 241111.0870000006,
      "d": 208.3333125000063,
      "v": 127
    },
    {
      "midi": 55,
      "hit": false,
      "t": 241111.0870000006,
      "d": 231.48145833335002,
      "v": 127
    },
    {
      "midi": 48,
      "hit": false,
      "t": 241666.64250000063,
      "d": 138.8888750000042,
      "v": 127
    },
    {
      "midi": 60,
      "hit": false,
      "t": 241666.64250000063,
      "d": 208.3333125000063,
      "v": 127
    },
    {
      "midi": 64,
      "hit": false,
      "t": 242222.19800000064,
      "d": 300.9258958333521,
      "v": 127
    },
    {
      "midi": 56,
      "hit": false,
      "t": 242222.19800000064,
      "d": 416.6666250000126,
      "v": 123
    },
    {
      "midi": 40,
      "hit": false,
      "t": 242222.19800000064,
      "d": 439.8147708333563,
      "v": 127
    },
    {
      "midi": 47,
      "hit": false,
      "t": 242222.19800000064,
      "d": 439.8147708333563,
      "v": 127
    },
    {
      "midi": 52,
      "hit": false,
      "t": 242777.75350000066,
      "d": 231.48145833332092,
      "v": 127
    },
    {
      "midi": 62,
      "hit": false,
      "t": 243333.30900000065,
      "d": 208.3333125000063,
      "v": 127
    },
    {
      "midi": 56,
      "hit": false,
      "t": 243333.30900000065,
      "d": 277.7777500000084,
      "v": 126
    },
    {
      "midi": 52,
      "hit": false,
      "t": 243888.86450000067,
      "d": 208.3333125000063,
      "v": 127
    },
    {
      "midi": 60,
      "hit": false,
      "t": 244444.42000000068,
      "d": 277.7777500000084,
      "v": 127
    },
    {
      "midi": 41,
      "hit": false,
      "t": 244444.42000000068,
      "d": 300.9258958333521,
      "v": 127
    },
    {
      "midi": 57,
      "hit": false,
      "t": 244444.42000000068,
      "d": 324.07404166669585,
      "v": 127
    },
    {
      "midi": 48,
      "hit": false,
      "t": 244444.42000000068,
      "d": 393.51847916669794,
      "v": 127
    },
    {
      "midi": 53,
      "hit": false,
      "t": 244999.9755000007,
      "d": 254.62960416666465,
      "v": 127
    },
    {
      "midi": 60,
      "hit": false,
      "t": 245555.5310000007,
      "d": 208.3333125000063,
      "v": 127
    },
    {
      "midi": 57,
      "hit": false,
      "t": 245555.5310000007,
      "d": 231.48145833335002,
      "v": 127
    },
    {
      "midi": 53,
      "hit": false,
      "t": 246111.0865000007,
      "d": 185.18516666666255,
      "v": 127
    },
    {
      "midi": 62,
      "hit": false,
      "t": 246666.6420000007,
      "d": 231.48145833332092,
      "v": 127
    },
    {
      "midi": 59,
      "hit": false,
      "t": 246666.6420000007,
      "d": 324.07404166663764,
      "v": 127
    },
    {
      "midi": 43,
      "hit": false,
      "t": 246666.6420000007,
      "d": 347.2221874999814,
      "v": 127
    },
    {
      "midi": 50,
      "hit": false,
      "t": 246666.6420000007,
      "d": 347.2221874999814,
      "v": 127
    },
    {
      "midi": 55,
      "hit": false,
      "t": 247222.19750000068,
      "d": 185.18516666666255,
      "v": 127
    },
    {
      "midi": 59,
      "hit": false,
      "t": 247777.75300000067,
      "d": 185.18516666666255,
      "v": 127
    },
    {
      "midi": 62,
      "hit": false,
      "t": 247777.75300000067,
      "d": 208.3333125000063,
      "v": 127
    },
    {
      "midi": 55,
      "hit": false,
      "t": 248333.30850000068,
      "d": 138.8888750000042,
      "v": 127
    },
    {
      "midi": 52,
      "hit": false,
      "t": 248888.8640000007,
      "d": 4305.5551250000135,
      "v": 127
    },
    {
      "midi": 55,
      "hit": false,
      "t": 248888.8640000007,
      "d": 4305.5551250000135,
      "v": 127
    },
    {
      "midi": 36,
      "hit": false,
      "t": 248888.8640000007,
      "d": 4398.147708333359,
      "v": 127
    },
    {
      "midi": 43,
      "hit": false,
      "t": 248888.8640000007,
      "d": 4398.147708333359,
      "v": 127
    }
  ]
}