{
  "jsonPath": "Rock/Country Rock/Ricky Skaggs/you-make-me-feel-like-a-man.json",
  "path": "Rock\\Country Rock\\Ricky Skaggs\\You Make Me Feel Like A Man.mid",
  "name": "You Make Me Feel Like A Man",
  "difficulty": "Advanced",
  "bpm": 165.000165000165,
  "notes": [
    {
      "midi": 69,
      "hit": false,
      "t": 1454.544,
      "d": 357.57539999999995,
      "v": 90
    },
    {
      "midi": 67,
      "hit": false,
      "t": 1818.18,
      "d": 357.57539999999995,
      "v": 88
    },
    {
      "midi": 65,
      "hit": false,
      "t": 2181.816,
      "d": 357.5754000000002,
      "v": 92
    },
    {
      "midi": 57,
      "hit": false,
      "t": 2181.8160000000003,
      "d": 1645.4528999999998,
      "v": 65
    },
    {
      "midi": 60,
      "hit": false,
      "t": 2181.8160000000003,
      "d": 1645.4528999999998,
      "v": 65
    },
    {
      "midi": 65,
      "hit": false,
      "t": 2181.8160000000003,
      "d": 1645.4528999999998,
      "v": 65
    },
    {
      "midi": 69,
      "hit": false,
      "t": 2545.4519999999998,
      "d": 357.5754000000002,
      "v": 90
    },
    {
      "midi": 67,
      "hit": false,
      "t": 2909.0879999999997,
      "d": 357.5754000000002,
      "v": 88
    },
    {
      "midi": 65,
      "hit": false,
      "t": 3272.7239999999997,
      "d": 357.5754000000002,
      "v": 92
    },
    {
      "midi": 69,
      "hit": false,
      "t": 3636.3599999999997,
      "d": 357.5754000000002,
      "v": 90
    },
    {
      "midi": 67,
      "hit": false,
      "t": 3999.9959999999996,
      "d": 357.5754000000002,
      "v": 88
    },
    {
      "midi": 57,
      "hit": false,
      "t": 3999.996,
      "d": 142.42410000000018,
      "v": 54
    },
    {
      "midi": 60,
      "hit": false,
      "t": 3999.996,
      "d": 142.42410000000018,
      "v": 54
    },
    {
      "midi": 65,
      "hit": false,
      "t": 3999.996,
      "d": 142.42410000000018,
      "v": 54
    },
    {
      "midi": 65,
      "hit": false,
      "t": 4363.632,
      "d": 357.5753999999997,
      "v": 92
    },
    {
      "midi": 57,
      "hit": false,
      "t": 4363.6320000000005,
      "d": 1645.4529000000002,
      "v": 65
    },
    {
      "midi": 60,
      "hit": false,
      "t": 4363.6320000000005,
      "d": 1645.4529000000002,
      "v": 65
    },
    {
      "midi": 65,
      "hit": false,
      "t": 4363.6320000000005,
      "d": 1645.4529000000002,
      "v": 65
    },
    {
      "midi": 69,
      "hit": false,
      "t": 4727.267999999999,
      "d": 357.5753999999997,
      "v": 90
    },
    {
      "midi": 67,
      "hit": false,
      "t": 5090.903999999999,
      "d": 357.5753999999997,
      "v": 88
    },
    {
      "midi": 65,
      "hit": false,
      "t": 5454.539999999998,
      "d": 357.5753999999997,
      "v": 92
    },
    {
      "midi": 64,
      "hit": false,
      "t": 5818.175999999998,
      "d": 357.5753999999997,
      "v": 90
    },
    {
      "midi": 62,
      "hit": false,
      "t": 6181.811999999997,
      "d": 357.5753999999997,
      "v": 92
    },
    {
      "midi": 57,
      "hit": false,
      "t": 6181.812000000001,
      "d": 142.42410000000018,
      "v": 54
    },
    {
      "midi": 60,
      "hit": false,
      "t": 6181.812000000001,
      "d": 142.42410000000018,
      "v": 54
    },
    {
      "midi": 65,
      "hit": false,
      "t": 6181.812000000001,
      "d": 142.42410000000018,
      "v": 54
    },
    {
      "midi": 60,
      "hit": false,
      "t": 6545.447999999997,
      "d": 1084.8474000000006,
      "v": 92
    },
    {
      "midi": 55,
      "hit": false,
      "t": 6545.448000000001,
      "d": 2066.664599999999,
      "v": 64
    },
    {
      "midi": 60,
      "hit": false,
      "t": 6545.448000000001,
      "d": 2066.664599999999,
      "v": 64
    },
    {
      "midi": 64,
      "hit": false,
      "t": 6545.448000000001,
      "d": 2066.664599999999,
      "v": 64
    },
    {
      "midi": 55,
      "hit": false,
      "t": 7636.355999999997,
      "d": 1781.8164000000006,
      "v": 92
    },
    {
      "midi": 55,
      "hit": false,
      "t": 8727.264000000001,
      "d": 642.4236000000001,
      "v": 72
    },
    {
      "midi": 60,
      "hit": false,
      "t": 8727.264000000001,
      "d": 642.4236000000001,
      "v": 72
    },
    {
      "midi": 64,
      "hit": false,
      "t": 8727.264000000001,
      "d": 642.4236000000001,
      "v": 72
    },
    {
      "midi": 36,
      "hit": false,
      "t": 8727.264000000001,
      "d": 769.6962000000003,
      "v": 54
    },
    {
      "midi": 48,
      "hit": false,
      "t": 9454.536000000002,
      "d": 42.42419999999947,
      "v": 62
    },
    {
      "midi": 55,
      "hit": false,
      "t": 9454.536000000002,
      "d": 66.66659999999865,
      "v": 75
    },
    {
      "midi": 60,
      "hit": false,
      "t": 9454.536000000002,
      "d": 66.66659999999865,
      "v": 75
    },
    {
      "midi": 64,
      "hit": false,
      "t": 9454.536000000002,
      "d": 66.66659999999865,
      "v": 75
    },
    {
      "midi": 36,
      "hit": false,
      "t": 9818.172,
      "d": 1090.9079999999958,
      "v": 72
    },
    {
      "midi": 48,
      "hit": false,
      "t": 9999.99,
      "d": 909.0899999999965,
      "v": 71
    },
    {
      "midi": 67,
      "hit": false,
      "t": 10181.807999999997,
      "d": 357.5753999999997,
      "v": 90
    },
    {
      "midi": 55,
      "hit": false,
      "t": 10181.807999999999,
      "d": 654.5447999999978,
      "v": 67
    },
    {
      "midi": 60,
      "hit": false,
      "t": 10363.625999999998,
      "d": 466.66619999999784,
      "v": 83
    },
    {
      "midi": 64,
      "hit": false,
      "t": 10545.443999999998,
      "d": 212.12099999999919,
      "v": 69
    },
    {
      "midi": 65,
      "hit": false,
      "t": 10545.443999999998,
      "d": 357.5753999999997,
      "v": 88
    },
    {
      "midi": 67,
      "hit": false,
      "t": 10727.261999999997,
      "d": 109.09079999999994,
      "v": 72
    },
    {
      "midi": 55,
      "hit": false,
      "t": 10909.079999999996,
      "d": 1645.4529000000002,
      "v": 65
    },
    {
      "midi": 60,
      "hit": false,
      "t": 10909.079999999996,
      "d": 1645.4529000000002,
      "v": 65
    },
    {
      "midi": 64,
      "hit": false,
      "t": 10909.079999999996,
      "d": 1645.4529000000002,
      "v": 65
    },
    {
      "midi": 64,
      "hit": false,
      "t": 10909.079999999998,
      "d": 357.5753999999997,
      "v": 92
    },
    {
      "midi": 67,
      "hit": false,
      "t": 11272.715999999999,
      "d": 357.5753999999997,
      "v": 90
    },
    {
      "midi": 65,
      "hit": false,
      "t": 11636.351999999999,
      "d": 348.4845000000005,
      "v": 88
    },
    {
      "midi": 64,
      "hit": false,
      "t": 11999.988,
      "d": 357.5753999999997,
      "v": 92
    },
    {
      "midi": 67,
      "hit": false,
      "t": 12363.624,
      "d": 357.5753999999997,
      "v": 90
    },
    {
      "midi": 55,
      "hit": false,
      "t": 12727.259999999997,
      "d": 142.42410000000018,
      "v": 54
    },
    {
      "midi": 60,
      "hit": false,
      "t": 12727.259999999997,
      "d": 142.42410000000018,
      "v": 54
    },
    {
      "midi": 64,
      "hit": false,
      "t": 12727.259999999997,
      "d": 142.42410000000018,
      "v": 54
    },
    {
      "midi": 65,
      "hit": false,
      "t": 12727.26,
      "d": 348.4845000000005,
      "v": 88
    },
    {
      "midi": 36,
      "hit": false,
      "t": 13090.895999999997,
      "d": 2057.5736999999954,
      "v": 81
    },
    {
      "midi": 64,
      "hit": false,
      "t": 13090.896,
      "d": 357.5753999999997,
      "v": 92
    },
    {
      "midi": 48,
      "hit": false,
      "t": 13272.713999999996,
      "d": 1866.6647999999968,
      "v": 78
    },
    {
      "midi": 55,
      "hit": false,
      "t": 13454.531999999996,
      "d": 1627.2710999999981,
      "v": 65
    },
    {
      "midi": 60,
      "hit": false,
      "t": 13454.532000000001,
      "d": 357.5753999999997,
      "v": 90
    },
    {
      "midi": 60,
      "hit": false,
      "t": 13636.349999999995,
      "d": 575.7569999999996,
      "v": 88
    },
    {
      "midi": 64,
      "hit": false,
      "t": 13818.167999999994,
      "d": 184.84829999999965,
      "v": 76
    },
    {
      "midi": 62,
      "hit": false,
      "t": 13818.168000000001,
      "d": 348.4845000000005,
      "v": 88
    },
    {
      "midi": 67,
      "hit": false,
      "t": 13999.985999999994,
      "d": 1069.6959000000006,
      "v": 92
    },
    {
      "midi": 64,
      "hit": false,
      "t": 14181.803999999995,
      "d": 839.3930999999993,
      "v": 76
    },
    {
      "midi": 64,
      "hit": false,
      "t": 14181.804000000002,
      "d": 357.5753999999997,
      "v": 92
    },
    {
      "midi": 65,
      "hit": false,
      "t": 14545.440000000002,
      "d": 357.5753999999997,
      "v": 90
    },
    {
      "midi": 60,
      "hit": false,
      "t": 14909.075999999994,
      "d": 127.27260000000024,
      "v": 79
    },
    {
      "midi": 62,
      "hit": false,
      "t": 14909.076000000003,
      "d": 348.4845000000005,
      "v": 88
    },
    {
      "midi": 41,
      "hit": false,
      "t": 15272.711999999992,
      "d": 1460.6045999999988,
      "v": 56
    },
    {
      "midi": 57,
      "hit": false,
      "t": 15272.711999999992,
      "d": 1818.1800000000003,
      "v": 78
    },
    {
      "midi": 60,
      "hit": false,
      "t": 15272.711999999992,
      "d": 1818.1800000000003,
      "v": 78
    },
    {
      "midi": 65,
      "hit": false,
      "t": 15272.711999999992,
      "d": 1818.1800000000003,
      "v": 78
    },
    {
      "midi": 64,
      "hit": false,
      "t": 15272.712000000003,
      "d": 1069.6959000000006,
      "v": 92
    },
    {
      "midi": 57,
      "hit": false,
      "t": 16363.620000000004,
      "d": 2139.3917999999994,
      "v": 92
    },
    {
      "midi": 69,
      "hit": false,
      "t": 17090.891999999993,
      "d": 103.03020000000106,
      "v": 70
    },
    {
      "midi": 41,
      "hit": false,
      "t": 17454.527999999995,
      "d": 1460.6045999999988,
      "v": 56
    },
    {
      "midi": 57,
      "hit": false,
      "t": 17454.527999999995,
      "d": 1818.1800000000003,
      "v": 78
    },
    {
      "midi": 60,
      "hit": false,
      "t": 17454.527999999995,
      "d": 1818.1800000000003,
      "v": 78
    },
    {
      "midi": 65,
      "hit": false,
      "t": 17454.527999999995,
      "d": 1818.1800000000003,
      "v": 78
    },
    {
      "midi": 57,
      "hit": false,
      "t": 18909.072000000004,
      "d": 357.57540000000154,
      "v": 90
    },
    {
      "midi": 69,
      "hit": false,
      "t": 19272.707999999995,
      "d": 103.03020000000106,
      "v": 70
    },
    {
      "midi": 60,
      "hit": false,
      "t": 19272.708000000006,
      "d": 348.48449999999866,
      "v": 88
    },
    {
      "midi": 41,
      "hit": false,
      "t": 19636.343999999997,
      "d": 2048.482799999998,
      "v": 81
    },
    {
      "midi": 65,
      "hit": false,
      "t": 19636.344000000005,
      "d": 357.57540000000154,
      "v": 92
    },
    {
      "midi": 57,
      "hit": false,
      "t": 19999.979999999996,
      "d": 1627.2710999999981,
      "v": 65
    },
    {
      "midi": 57,
      "hit": false,
      "t": 19999.980000000007,
      "d": 178.78770000000077,
      "v": 90
    },
    {
      "midi": 60,
      "hit": false,
      "t": 20181.797999999995,
      "d": 575.7569999999978,
      "v": 88
    },
    {
      "midi": 60,
      "hit": false,
      "t": 20181.798000000006,
      "d": 178.78770000000077,
      "v": 86
    },
    {
      "midi": 65,
      "hit": false,
      "t": 20363.615999999995,
      "d": 184.84829999999783,
      "v": 76
    },
    {
      "midi": 57,
      "hit": false,
      "t": 20363.616000000005,
      "d": 178.78770000000077,
      "v": 88
    },
    {
      "midi": 69,
      "hit": false,
      "t": 20545.433999999994,
      "d": 1069.6958999999988,
      "v": 92
    },
    {
      "midi": 60,
      "hit": false,
      "t": 20545.434000000005,
      "d": 178.78770000000077,
      "v": 86
    },
    {
      "midi": 65,
      "hit": false,
      "t": 20727.251999999993,
      "d": 839.3931000000011,
      "v": 76
    },
    {
      "midi": 65,
      "hit": false,
      "t": 20727.252000000004,
      "d": 357.57540000000154,
      "v": 92
    },
    {
      "midi": 57,
      "hit": false,
      "t": 21090.888000000006,
      "d": 178.78770000000077,
      "v": 90
    },
    {
      "midi": 60,
      "hit": false,
      "t": 21272.706000000006,
      "d": 178.78770000000077,
      "v": 90
    },
    {
      "midi": 60,
      "hit": false,
      "t": 21454.523999999994,
      "d": 127.27260000000024,
      "v": 79
    },
    {
      "midi": 57,
      "hit": false,
      "t": 21454.524000000005,
      "d": 178.78770000000077,
      "v": 90
    },
    {
      "midi": 60,
      "hit": false,
      "t": 21636.342000000004,
      "d": 178.78770000000077,
      "v": 90
    },
    {
      "midi": 57,
      "hit": false,
      "t": 21818.159999999996,
      "d": 2066.6646,
      "v": 64
    },
    {
      "midi": 60,
      "hit": false,
      "t": 21818.159999999996,
      "d": 2066.6646,
      "v": 64
    },
    {
      "midi": 65,
      "hit": false,
      "t": 21818.159999999996,
      "d": 2066.6646,
      "v": 64
    },
    {
      "midi": 65,
      "hit": false,
      "t": 21818.160000000003,
      "d": 357.57540000000154,
      "v": 92
    },
    {
      "midi": 57,
      "hit": false,
      "t": 22181.796000000006,
      "d": 357.57540000000154,
      "v": 90
    },
    {
      "midi": 60,
      "hit": false,
      "t": 22545.432000000008,
      "d": 348.48449999999866,
      "v": 88
    },
    {
      "midi": 65,
      "hit": false,
      "t": 22909.068000000007,
      "d": 357.57540000000154,
      "v": 92
    },
    {
      "midi": 67,
      "hit": false,
      "t": 23272.70400000001,
      "d": 357.57540000000154,
      "v": 90
    },
    {
      "midi": 65,
      "hit": false,
      "t": 23636.34000000001,
      "d": 348.48449999999866,
      "v": 88
    },
    {
      "midi": 36,
      "hit": false,
      "t": 23999.975999999995,
      "d": 2057.573699999997,
      "v": 81
    },
    {
      "midi": 64,
      "hit": false,
      "t": 23999.97600000001,
      "d": 1084.8473999999987,
      "v": 90
    },
    {
      "midi": 48,
      "hit": false,
      "t": 24181.793999999994,
      "d": 1866.6647999999986,
      "v": 78
    },
    {
      "midi": 55,
      "hit": false,
      "t": 24363.611999999994,
      "d": 1627.2710999999981,
      "v": 65
    },
    {
      "midi": 60,
      "hit": false,
      "t": 24545.429999999993,
      "d": 575.7569999999978,
      "v": 88
    },
    {
      "midi": 64,
      "hit": false,
      "t": 24727.247999999992,
      "d": 184.84829999999783,
      "v": 76
    },
    {
      "midi": 67,
      "hit": false,
      "t": 24909.06599999999,
      "d": 1069.6958999999988,
      "v": 92
    },
    {
      "midi": 64,
      "hit": false,
      "t": 25090.88399999999,
      "d": 839.3931000000011,
      "v": 76
    },
    {
      "midi": 60,
      "hit": false,
      "t": 25090.88400000001,
      "d": 2139.3918000000012,
      "v": 90
    },
    {
      "midi": 60,
      "hit": false,
      "t": 25818.15599999999,
      "d": 127.27260000000024,
      "v": 79
    },
    {
      "midi": 55,
      "hit": false,
      "t": 26181.791999999994,
      "d": 1645.4529000000002,
      "v": 65
    },
    {
      "midi": 60,
      "hit": false,
      "t": 26181.791999999994,
      "d": 1645.4529000000002,
      "v": 65
    },
    {
      "midi": 64,
      "hit": false,
      "t": 26181.791999999994,
      "d": 1645.4529000000002,
      "v": 65
    },
    {
      "midi": 55,
      "hit": false,
      "t": 27636.33600000001,
      "d": 357.57540000000154,
      "v": 90
    },
    {
      "midi": 55,
      "hit": false,
      "t": 27999.971999999994,
      "d": 142.42410000000018,
      "v": 54
    },
    {
      "midi": 60,
      "hit": false,
      "t": 27999.971999999994,
      "d": 142.42410000000018,
      "v": 54
    },
    {
      "midi": 64,
      "hit": false,
      "t": 27999.971999999994,
      "d": 142.42410000000018,
      "v": 54
    },
    {
      "midi": 58,
      "hit": false,
      "t": 27999.972000000012,
      "d": 357.57540000000154,
      "v": 90
    },
    {
      "midi": 36,
      "hit": false,
      "t": 28363.607999999993,
      "d": 2057.573699999997,
      "v": 81
    },
    {
      "midi": 64,
      "hit": false,
      "t": 28363.608000000015,
      "d": 357.57540000000154,
      "v": 92
    },
    {
      "midi": 48,
      "hit": false,
      "t": 28545.425999999992,
      "d": 1866.6647999999986,
      "v": 78
    },
    {
      "midi": 55,
      "hit": false,
      "t": 28727.24399999999,
      "d": 1627.2710999999981,
      "v": 65
    },
    {
      "midi": 55,
      "hit": false,
      "t": 28727.244000000017,
      "d": 178.78770000000077,
      "v": 90
    },
    {
      "midi": 60,
      "hit": false,
      "t": 28909.06199999999,
      "d": 575.7569999999978,
      "v": 88
    },
    {
      "midi": 58,
      "hit": false,
      "t": 28909.062000000016,
      "d": 178.78770000000077,
      "v": 90
    },
    {
      "midi": 64,
      "hit": false,
      "t": 29090.87999999999,
      "d": 184.84829999999783,
      "v": 76
    },
    {
      "midi": 55,
      "hit": false,
      "t": 29090.880000000016,
      "d": 178.78770000000077,
      "v": 90
    },
    {
      "midi": 67,
      "hit": false,
      "t": 29272.69799999999,
      "d": 1069.6958999999988,
      "v": 92
    },
    {
      "midi": 58,
      "hit": false,
      "t": 29272.698000000015,
      "d": 178.78770000000077,
      "v": 90
    },
    {
      "midi": 64,
      "hit": false,
      "t": 29454.51599999999,
      "d": 839.3931000000011,
      "v": 76
    },
    {
      "midi": 64,
      "hit": false,
      "t": 29454.516000000014,
      "d": 357.57540000000154,
      "v": 92
    },
    {
      "midi": 55,
      "hit": false,
      "t": 29818.152000000016,
      "d": 178.78770000000077,
      "v": 90
    },
    {
      "midi": 58,
      "hit": false,
      "t": 29999.970000000016,
      "d": 178.78770000000077,
      "v": 90
    },
    {
      "midi": 60,
      "hit": false,
      "t": 30181.78799999999,
      "d": 127.27260000000024,
      "v": 79
    },
    {
      "midi": 55,
      "hit": false,
      "t": 30181.788000000015,
      "d": 178.78770000000077,
      "v": 90
    },
    {
      "midi": 58,
      "hit": false,
      "t": 30363.606000000014,
      "d": 178.78770000000077,
      "v": 90
    },
    {
      "midi": 67,
      "hit": false,
      "t": 30545.42399999999,
      "d": 1027.2717000000011,
      "v": 60
    },
    {
      "midi": 64,
      "hit": false,
      "t": 30545.424000000014,
      "d": 357.57540000000154,
      "v": 90
    },
    {
      "midi": 60,
      "hit": false,
      "t": 30554.51489999999,
      "d": 1890.9072000000015,
      "v": 59
    },
    {
      "midi": 55,
      "hit": false,
      "t": 30560.57549999999,
      "d": 1918.1798999999992,
      "v": 55
    },
    {
      "midi": 48,
      "hit": false,
      "t": 30560.57549999999,
      "d": 1945.4526000000005,
      "v": 41
    },
    {
      "midi": 60,
      "hit": false,
      "t": 30909.060000000016,
      "d": 357.57540000000154,
      "v": 90
    },
    {
      "midi": 62,
      "hit": false,
      "t": 31272.696000000018,
      "d": 357.57540000000154,
      "v": 88
    },
    {
      "midi": 64,
      "hit": false,
      "t": 31636.33200000002,
      "d": 357.57540000000154,
      "v": 92
    },
    {
      "midi": 79,
      "hit": false,
      "t": 31969.664999999994,
      "d": 645.4539000000004,
      "v": 76
    },
    {
      "midi": 65,
      "hit": false,
      "t": 31999.968000000023,
      "d": 357.57540000000154,
      "v": 90
    },
    {
      "midi": 76,
      "hit": false,
      "t": 32181.785999999993,
      "d": 460.6056000000026,
      "v": 55
    },
    {
      "midi": 62,
      "hit": false,
      "t": 32363.604000000025,
      "d": 348.48449999999866,
      "v": 88
    },
    {
      "midi": 72,
      "hit": false,
      "t": 32378.755499999992,
      "d": 263.63610000000335,
      "v": 80
    },
    {
      "midi": 67,
      "hit": false,
      "t": 32557.543199999993,
      "d": 109.09080000000176,
      "v": 63
    },
    {
      "midi": 41,
      "hit": false,
      "t": 32727.239999999994,
      "d": 1460.6046000000024,
      "v": 56
    },
    {
      "midi": 57,
      "hit": false,
      "t": 32727.239999999994,
      "d": 1818.180000000004,
      "v": 78
    },
    {
      "midi": 60,
      "hit": false,
      "t": 32727.239999999994,
      "d": 1818.180000000004,
      "v": 78
    },
    {
      "midi": 65,
      "hit": false,
      "t": 32727.239999999994,
      "d": 1818.180000000004,
      "v": 78
    },
    {
      "midi": 64,
      "hit": false,
      "t": 32727.240000000023,
      "d": 1069.6959000000024,
      "v": 92
    },
    {
      "midi": 57,
      "hit": false,
      "t": 33818.14800000002,
      "d": 2139.3917999999976,
      "v": 92
    },
    {
      "midi": 69,
      "hit": false,
      "t": 34545.42,
      "d": 103.03020000000106,
      "v": 70
    },
    {
      "midi": 57,
      "hit": false,
      "t": 34909.056,
      "d": 1645.4528999999966,
      "v": 65
    },
    {
      "midi": 60,
      "hit": false,
      "t": 34909.056,
      "d": 1645.4528999999966,
      "v": 65
    },
    {
      "midi": 65,
      "hit": false,
      "t": 34909.056,
      "d": 1645.4528999999966,
      "v": 65
    },
    {
      "midi": 69,
      "hit": false,
      "t": 36363.60000000002,
      "d": 357.57540000000154,
      "v": 90
    },
    {
      "midi": 57,
      "hit": false,
      "t": 36727.23599999999,
      "d": 142.42409999999654,
      "v": 54
    },
    {
      "midi": 60,
      "hit": false,
      "t": 36727.23599999999,
      "d": 142.42409999999654,
      "v": 54
    },
    {
      "midi": 65,
      "hit": false,
      "t": 36727.23599999999,
      "d": 142.42409999999654,
      "v": 54
    },
    {
      "midi": 67,
      "hit": false,
      "t": 36727.23600000002,
      "d": 348.48449999999866,
      "v": 88
    },
    {
      "midi": 57,
      "hit": false,
      "t": 37090.87199999999,
      "d": 1645.4528999999966,
      "v": 65
    },
    {
      "midi": 60,
      "hit": false,
      "t": 37090.87199999999,
      "d": 1645.4528999999966,
      "v": 65
    },
    {
      "midi": 65,
      "hit": false,
      "t": 37090.87199999999,
      "d": 1645.4528999999966,
      "v": 65
    },
    {
      "midi": 65,
      "hit": false,
      "t": 37090.87200000002,
      "d": 357.57540000000154,
      "v": 92
    },
    {
      "midi": 69,
      "hit": false,
      "t": 37454.508000000016,
      "d": 357.57540000000154,
      "v": 90
    },
    {
      "midi": 67,
      "hit": false,
      "t": 37818.144000000015,
      "d": 357.57540000000154,
      "v": 88
    },
    {
      "midi": 65,
      "hit": false,
      "t": 38181.78000000001,
      "d": 357.57540000000154,
      "v": 92
    },
    {
      "midi": 69,
      "hit": false,
      "t": 38545.41600000001,
      "d": 357.57540000000154,
      "v": 90
    },
    {
      "midi": 57,
      "hit": false,
      "t": 38909.05199999998,
      "d": 142.42409999999654,
      "v": 54
    },
    {
      "midi": 60,
      "hit": false,
      "t": 38909.05199999998,
      "d": 142.42409999999654,
      "v": 54
    },
    {
      "midi": 65,
      "hit": false,
      "t": 38909.05199999998,
      "d": 142.42409999999654,
      "v": 54
    },
    {
      "midi": 67,
      "hit": false,
      "t": 38909.05200000001,
      "d": 357.57540000000154,
      "v": 88
    },
    {
      "midi": 57,
      "hit": false,
      "t": 39272.68799999998,
      "d": 1645.4528999999966,
      "v": 65
    },
    {
      "midi": 60,
      "hit": false,
      "t": 39272.68799999998,
      "d": 1645.4528999999966,
      "v": 65
    },
    {
      "midi": 65,
      "hit": false,
      "t": 39272.68799999998,
      "d": 1645.4528999999966,
      "v": 65
    },
    {
      "midi": 65,
      "hit": false,
      "t": 39272.68800000001,
      "d": 357.57540000000154,
      "v": 92
    },
    {
      "midi": 69,
      "hit": false,
      "t": 39636.32400000001,
      "d": 357.57540000000154,
      "v": 90
    },
    {
      "midi": 67,
      "hit": false,
      "t": 39999.96000000001,
      "d": 357.57540000000154,
      "v": 88
    },
    {
      "midi": 65,
      "hit": false,
      "t": 40363.596000000005,
      "d": 357.57540000000154,
      "v": 92
    },
    {
      "midi": 64,
      "hit": false,
      "t": 40727.232,
      "d": 357.57540000000154,
      "v": 90
    },
    {
      "midi": 57,
      "hit": false,
      "t": 41090.86799999997,
      "d": 142.42409999999654,
      "v": 54
    },
    {
      "midi": 60,
      "hit": false,
      "t": 41090.86799999997,
      "d": 142.42409999999654,
      "v": 54
    },
    {
      "midi": 65,
      "hit": false,
      "t": 41090.86799999997,
      "d": 142.42409999999654,
      "v": 54
    },
    {
      "midi": 62,
      "hit": false,
      "t": 41090.868,
      "d": 357.57540000000154,
      "v": 92
    },
    {
      "midi": 67,
      "hit": false,
      "t": 41454.50399999997,
      "d": 1027.2716999999975,
      "v": 60
    },
    {
      "midi": 60,
      "hit": false,
      "t": 41454.504,
      "d": 1084.8473999999987,
      "v": 92
    },
    {
      "midi": 60,
      "hit": false,
      "t": 41463.594899999975,
      "d": 1890.907199999987,
      "v": 59
    },
    {
      "midi": 55,
      "hit": false,
      "t": 41469.65549999997,
      "d": 1918.1798999999883,
      "v": 55
    },
    {
      "midi": 48,
      "hit": false,
      "t": 41469.65549999997,
      "d": 1945.4525999999896,
      "v": 41
    },
    {
      "midi": 55,
      "hit": false,
      "t": 42545.412,
      "d": 1781.8164000000033,
      "v": 92
    },
    {
      "midi": 79,
      "hit": false,
      "t": 42878.744999999966,
      "d": 645.4538999999932,
      "v": 76
    },
    {
      "midi": 76,
      "hit": false,
      "t": 43090.865999999965,
      "d": 460.6055999999953,
      "v": 55
    },
    {
      "midi": 72,
      "hit": false,
      "t": 43287.835499999965,
      "d": 263.6360999999961,
      "v": 80
    },
    {
      "midi": 67,
      "hit": false,
      "t": 43466.62319999996,
      "d": 109.0908000000054,
      "v": 63
    },
    {
      "midi": 55,
      "hit": false,
      "t": 43636.31999999996,
      "d": 642.4236000000019,
      "v": 72
    },
    {
      "midi": 60,
      "hit": false,
      "t": 43636.31999999996,
      "d": 642.4236000000019,
      "v": 72
    },
    {
      "midi": 64,
      "hit": false,
      "t": 43636.31999999996,
      "d": 642.4236000000019,
      "v": 72
    },
    {
      "midi": 36,
      "hit": false,
      "t": 43636.31999999996,
      "d": 769.6962000000058,
      "v": 54
    },
    {
      "midi": 48,
      "hit": false,
      "t": 44363.59199999997,
      "d": 42.42420000000129,
      "v": 62
    },
    {
      "midi": 55,
      "hit": false,
      "t": 44363.59199999997,
      "d": 66.66660000000411,
      "v": 75
    },
    {
      "midi": 60,
      "hit": false,
      "t": 44363.59199999997,
      "d": 66.66660000000411,
      "v": 75
    },
    {
      "midi": 64,
      "hit": false,
      "t": 44363.59199999997,
      "d": 66.66660000000411,
      "v": 75
    },
    {
      "midi": 55,
      "hit": false,
      "t": 44727.227999999974,
      "d": 475.75709999999526,
      "v": 60
    },
    {
      "midi": 60,
      "hit": false,
      "t": 44727.227999999974,
      "d": 490.9085999999952,
      "v": 67
    },
    {
      "midi": 64,
      "hit": false,
      "t": 44727.227999999974,
      "d": 506.06009999999515,
      "v": 72
    },
    {
      "midi": 67,
      "hit": false,
      "t": 44727.227999999974,
      "d": 557.575199999992,
      "v": 70
    },
    {
      "midi": 36,
      "hit": false,
      "t": 44727.227999999974,
      "d": 924.2414999999892,
      "v": 66
    },
    {
      "midi": 48,
      "hit": false,
      "t": 45090.86399999997,
      "d": 560.6054999999906,
      "v": 35
    },
    {
      "midi": 67,
      "hit": false,
      "t": 45090.864,
      "d": 357.57540000000154,
      "v": 90
    },
    {
      "midi": 60,
      "hit": false,
      "t": 45454.49999999996,
      "d": 181.8179999999993,
      "v": 73
    },
    {
      "midi": 64,
      "hit": false,
      "t": 45454.49999999996,
      "d": 181.8179999999993,
      "v": 65
    },
    {
      "midi": 55,
      "hit": false,
      "t": 45454.49999999996,
      "d": 196.96949999999924,
      "v": 64
    },
    {
      "midi": 65,
      "hit": false,
      "t": 45454.5,
      "d": 357.57540000000154,
      "v": 88
    },
    {
      "midi": 36,
      "hit": false,
      "t": 45818.13599999996,
      "d": 2057.5736999999936,
      "v": 81
    },
    {
      "midi": 64,
      "hit": false,
      "t": 45818.136,
      "d": 357.57540000000154,
      "v": 92
    },
    {
      "midi": 48,
      "hit": false,
      "t": 45999.95399999996,
      "d": 1866.6647999999914,
      "v": 78
    },
    {
      "midi": 55,
      "hit": false,
      "t": 46181.77199999996,
      "d": 1627.2710999999908,
      "v": 65
    },
    {
      "midi": 67,
      "hit": false,
      "t": 46181.772,
      "d": 357.57540000000154,
      "v": 90
    },
    {
      "midi": 60,
      "hit": false,
      "t": 46363.58999999996,
      "d": 575.7569999999978,
      "v": 88
    },
    {
      "midi": 64,
      "hit": false,
      "t": 46545.40799999996,
      "d": 184.84829999999783,
      "v": 76
    },
    {
      "midi": 65,
      "hit": false,
      "t": 46545.407999999996,
      "d": 348.48449999999866,
      "v": 88
    },
    {
      "midi": 67,
      "hit": false,
      "t": 46727.22599999996,
      "d": 1069.6958999999915,
      "v": 92
    },
    {
      "midi": 64,
      "hit": false,
      "t": 46909.04399999996,
      "d": 839.3930999999939,
      "v": 76
    },
    {
      "midi": 64,
      "hit": false,
      "t": 46909.043999999994,
      "d": 357.57540000000154,
      "v": 92
    },
    {
      "midi": 67,
      "hit": false,
      "t": 47272.67999999999,
      "d": 357.57540000000154,
      "v": 90
    },
    {
      "midi": 60,
      "hit": false,
      "t": 47636.315999999955,
      "d": 127.2725999999966,
      "v": 79
    },
    {
      "midi": 65,
      "hit": false,
      "t": 47636.31599999999,
      "d": 348.48449999999866,
      "v": 88
    },
    {
      "midi": 67,
      "hit": false,
      "t": 47999.951999999954,
      "d": 1027.2716999999975,
      "v": 60
    },
    {
      "midi": 64,
      "hit": false,
      "t": 47999.95199999999,
      "d": 357.57540000000154,
      "v": 92
    },
    {
      "midi": 60,
      "hit": false,
      "t": 48009.04289999996,
      "d": 1890.907199999987,
      "v": 59
    },
    {
      "midi": 55,
      "hit": false,
      "t": 48015.103499999954,
      "d": 1918.1798999999883,
      "v": 55
    },
    {
      "midi": 48,
      "hit": false,
      "t": 48015.103499999954,
      "d": 1945.4525999999896,
      "v": 41
    },
    {
      "midi": 60,
      "hit": false,
      "t": 48363.58799999999,
      "d": 357.57540000000154,
      "v": 90
    },
    {
      "midi": 62,
      "hit": false,
      "t": 48727.22399999999,
      "d": 348.48449999999866,
      "v": 88
    },
    {
      "midi": 64,
      "hit": false,
      "t": 49090.859999999986,
      "d": 357.57540000000154,
      "v": 92
    },
    {
      "midi": 79,
      "hit": false,
      "t": 49424.19299999995,
      "d": 645.4538999999932,
      "v": 76
    },
    {
      "midi": 65,
      "hit": false,
      "t": 49454.495999999985,
      "d": 357.57540000000154,
      "v": 90
    },
    {
      "midi": 76,
      "hit": false,
      "t": 49636.31399999995,
      "d": 460.6055999999953,
      "v": 55
    },
    {
      "midi": 67,
      "hit": false,
      "t": 49818.13199999998,
      "d": 348.48449999999866,
      "v": 88
    },
    {
      "midi": 72,
      "hit": false,
      "t": 49833.28349999995,
      "d": 263.6360999999961,
      "v": 80
    },
    {
      "midi": 67,
      "hit": false,
      "t": 50012.07119999994,
      "d": 109.0908000000054,
      "v": 63
    },
    {
      "midi": 41,
      "hit": false,
      "t": 50181.767999999945,
      "d": 1460.6045999999988,
      "v": 56
    },
    {
      "midi": 57,
      "hit": false,
      "t": 50181.767999999945,
      "d": 1818.1800000000003,
      "v": 78
    },
    {
      "midi": 60,
      "hit": false,
      "t": 50181.767999999945,
      "d": 1818.1800000000003,
      "v": 78
    },
    {
      "midi": 65,
      "hit": false,
      "t": 50181.767999999945,
      "d": 1818.1800000000003,
      "v": 78
    },
    {
      "midi": 69,
      "hit": false,
      "t": 50181.76799999998,
      "d": 2139.3917999999976,
      "v": 90
    },
    {
      "midi": 69,
      "hit": false,
      "t": 51999.947999999946,
      "d": 103.03020000000106,
      "v": 70
    },
    {
      "midi": 41,
      "hit": false,
      "t": 52363.583999999944,
      "d": 1460.6045999999988,
      "v": 56
    },
    {
      "midi": 57,
      "hit": false,
      "t": 52363.583999999944,
      "d": 1818.1800000000003,
      "v": 78
    },
    {
      "midi": 60,
      "hit": false,
      "t": 52363.583999999944,
      "d": 1818.1800000000003,
      "v": 78
    },
    {
      "midi": 65,
      "hit": false,
      "t": 52363.583999999944,
      "d": 1818.1800000000003,
      "v": 78
    },
    {
      "midi": 62,
      "hit": false,
      "t": 53818.12799999998,
      "d": 357.57540000000154,
      "v": 90
    },
    {
      "midi": 69,
      "hit": false,
      "t": 54181.763999999945,
      "d": 103.03020000000106,
      "v": 70
    },
    {
      "midi": 64,
      "hit": false,
      "t": 54181.76399999998,
      "d": 357.57540000000154,
      "v": 90
    },
    {
      "midi": 65,
      "hit": false,
      "t": 54545.39999999994,
      "d": 1027.2716999999975,
      "v": 60
    },
    {
      "midi": 65,
      "hit": false,
      "t": 54545.39999999998,
      "d": 357.57540000000154,
      "v": 90
    },
    {
      "midi": 58,
      "hit": false,
      "t": 54554.490899999946,
      "d": 1890.907199999987,
      "v": 59
    },
    {
      "midi": 53,
      "hit": false,
      "t": 54560.55149999994,
      "d": 1918.1798999999883,
      "v": 55
    },
    {
      "midi": 46,
      "hit": false,
      "t": 54560.55149999994,
      "d": 1945.4525999999896,
      "v": 41
    },
    {
      "midi": 62,
      "hit": false,
      "t": 54909.03599999998,
      "d": 357.57540000000154,
      "v": 90
    },
    {
      "midi": 64,
      "hit": false,
      "t": 55272.67199999998,
      "d": 357.57540000000154,
      "v": 90
    },
    {
      "midi": 65,
      "hit": false,
      "t": 55636.307999999975,
      "d": 357.57540000000154,
      "v": 90
    },
    {
      "midi": 77,
      "hit": false,
      "t": 55969.64099999994,
      "d": 645.4538999999932,
      "v": 76
    },
    {
      "midi": 62,
      "hit": false,
      "t": 55999.943999999974,
      "d": 357.57540000000154,
      "v": 90
    },
    {
      "midi": 74,
      "hit": false,
      "t": 56181.76199999994,
      "d": 460.6055999999953,
      "v": 55
    },
    {
      "midi": 64,
      "hit": false,
      "t": 56363.57999999997,
      "d": 357.57540000000154,
      "v": 90
    },
    {
      "midi": 70,
      "hit": false,
      "t": 56378.731499999936,
      "d": 263.6360999999961,
      "v": 80
    },
    {
      "midi": 65,
      "hit": false,
      "t": 56557.51919999993,
      "d": 109.0908000000054,
      "v": 63
    },
    {
      "midi": 53,
      "hit": false,
      "t": 56727.215999999935,
      "d": 2066.6645999999964,
      "v": 64
    },
    {
      "midi": 58,
      "hit": false,
      "t": 56727.215999999935,
      "d": 2066.6645999999964,
      "v": 64
    },
    {
      "midi": 62,
      "hit": false,
      "t": 56727.215999999935,
      "d": 2066.6645999999964,
      "v": 64
    },
    {
      "midi": 65,
      "hit": false,
      "t": 56727.21599999997,
      "d": 357.57540000000154,
      "v": 90
    },
    {
      "midi": 62,
      "hit": false,
      "t": 57090.85199999997,
      "d": 357.57540000000154,
      "v": 90
    },
    {
      "midi": 64,
      "hit": false,
      "t": 57454.48799999997,
      "d": 357.57540000000154,
      "v": 90
    },
    {
      "midi": 65,
      "hit": false,
      "t": 57818.12399999997,
      "d": 357.57540000000154,
      "v": 90
    },
    {
      "midi": 67,
      "hit": false,
      "t": 58181.759999999966,
      "d": 357.57540000000154,
      "v": 90
    },
    {
      "midi": 65,
      "hit": false,
      "t": 58545.395999999964,
      "d": 357.57540000000154,
      "v": 90
    },
    {
      "midi": 41,
      "hit": false,
      "t": 58909.031999999934,
      "d": 1460.6045999999988,
      "v": 56
    },
    {
      "midi": 57,
      "hit": false,
      "t": 58909.031999999934,
      "d": 1818.1800000000003,
      "v": 78
    },
    {
      "midi": 60,
      "hit": false,
      "t": 58909.031999999934,
      "d": 1818.1800000000003,
      "v": 78
    },
    {
      "midi": 65,
      "hit": false,
      "t": 58909.031999999934,
      "d": 1818.1800000000003,
      "v": 78
    },
    {
      "midi": 69,
      "hit": false,
      "t": 58909.03199999996,
      "d": 712.1204999999973,
      "v": 90
    },
    {
      "midi": 65,
      "hit": false,
      "t": 59636.30399999996,
      "d": 357.57540000000154,
      "v": 90
    },
    {
      "midi": 60,
      "hit": false,
      "t": 59999.93999999996,
      "d": 2139.3917999999976,
      "v": 90
    },
    {
      "midi": 69,
      "hit": false,
      "t": 60727.211999999934,
      "d": 103.03020000000106,
      "v": 70
    },
    {
      "midi": 57,
      "hit": false,
      "t": 61090.84799999993,
      "d": 1645.4528999999966,
      "v": 65
    },
    {
      "midi": 60,
      "hit": false,
      "t": 61090.84799999993,
      "d": 1645.4528999999966,
      "v": 65
    },
    {
      "midi": 65,
      "hit": false,
      "t": 61090.84799999993,
      "d": 1645.4528999999966,
      "v": 65
    },
    {
      "midi": 67,
      "hit": false,
      "t": 62545.391999999956,
      "d": 357.57540000000154,
      "v": 90
    },
    {
      "midi": 57,
      "hit": false,
      "t": 62909.027999999926,
      "d": 142.42409999999654,
      "v": 54
    },
    {
      "midi": 60,
      "hit": false,
      "t": 62909.027999999926,
      "d": 142.42409999999654,
      "v": 54
    },
    {
      "midi": 65,
      "hit": false,
      "t": 62909.027999999926,
      "d": 142.42409999999654,
      "v": 54
    },
    {
      "midi": 65,
      "hit": false,
      "t": 62909.027999999955,
      "d": 357.57540000000154,
      "v": 90
    },
    {
      "midi": 36,
      "hit": false,
      "t": 63272.663999999924,
      "d": 1460.6045999999988,
      "v": 56
    },
    {
      "midi": 55,
      "hit": false,
      "t": 63272.663999999924,
      "d": 1818.1800000000003,
      "v": 78
    },
    {
      "midi": 60,
      "hit": false,
      "t": 63272.663999999924,
      "d": 1818.1800000000003,
      "v": 78
    },
    {
      "midi": 64,
      "hit": false,
      "t": 63272.663999999924,
      "d": 1818.1800000000003,
      "v": 78
    },
    {
      "midi": 64,
      "hit": false,
      "t": 63272.66399999995,
      "d": 357.57540000000154,
      "v": 90
    },
    {
      "midi": 67,
      "hit": false,
      "t": 63636.29999999995,
      "d": 357.57540000000154,
      "v": 90
    },
    {
      "midi": 65,
      "hit": false,
      "t": 63999.93599999995,
      "d": 357.57540000000154,
      "v": 90
    },
    {
      "midi": 64,
      "hit": false,
      "t": 64363.57199999995,
      "d": 357.57540000000154,
      "v": 90
    },
    {
      "midi": 67,
      "hit": false,
      "t": 64727.20799999995,
      "d": 357.57540000000154,
      "v": 90
    },
    {
      "midi": 64,
      "hit": false,
      "t": 65090.843999999925,
      "d": 103.03020000000106,
      "v": 70
    },
    {
      "midi": 65,
      "hit": false,
      "t": 65090.84399999995,
      "d": 357.57540000000154,
      "v": 90
    },
    {
      "midi": 36,
      "hit": false,
      "t": 65454.47999999992,
      "d": 2057.5736999999936,
      "v": 81
    },
    {
      "midi": 64,
      "hit": false,
      "t": 65454.479999999945,
      "d": 357.57539999999426,
      "v": 90
    },
    {
      "midi": 48,
      "hit": false,
      "t": 65636.29799999992,
      "d": 1866.6647999999986,
      "v": 78
    },
    {
      "midi": 55,
      "hit": false,
      "t": 65818.11599999992,
      "d": 1627.2710999999981,
      "v": 65
    },
    {
      "midi": 60,
      "hit": false,
      "t": 65818.11599999994,
      "d": 357.57540000000154,
      "v": 90
    },
    {
      "midi": 60,
      "hit": false,
      "t": 65999.93399999992,
      "d": 575.7569999999978,
      "v": 88
    },
    {
      "midi": 64,
      "hit": false,
      "t": 66181.75199999992,
      "d": 184.84829999999783,
      "v": 76
    },
    {
      "midi": 62,
      "hit": false,
      "t": 66181.75199999993,
      "d": 357.57540000000154,
      "v": 90
    },
    {
      "midi": 67,
      "hit": false,
      "t": 66363.56999999992,
      "d": 1069.695900000006,
      "v": 92
    },
    {
      "midi": 64,
      "hit": false,
      "t": 66545.38799999992,
      "d": 839.3931000000011,
      "v": 76
    },
    {
      "midi": 64,
      "hit": false,
      "t": 66545.38799999993,
      "d": 357.57540000000154,
      "v": 90
    },
    {
      "midi": 65,
      "hit": false,
      "t": 66909.02399999993,
      "d": 357.57540000000154,
      "v": 90
    },
    {
      "midi": 60,
      "hit": false,
      "t": 67272.65999999992,
      "d": 127.27260000001115,
      "v": 79
    },
    {
      "midi": 67,
      "hit": false,
      "t": 67272.65999999993,
      "d": 357.57540000000154,
      "v": 90
    },
    {
      "midi": 57,
      "hit": false,
      "t": 67636.29599999991,
      "d": 1645.4529000000039,
      "v": 65
    },
    {
      "midi": 60,
      "hit": false,
      "t": 67636.29599999991,
      "d": 1645.4529000000039,
      "v": 65
    },
    {
      "midi": 65,
      "hit": false,
      "t": 67636.29599999991,
      "d": 1645.4529000000039,
      "v": 65
    },
    {
      "midi": 69,
      "hit": false,
      "t": 67636.29599999993,
      "d": 712.1205000000045,
      "v": 90
    },
    {
      "midi": 67,
      "hit": false,
      "t": 68363.56799999994,
      "d": 357.57540000000154,
      "v": 90
    },
    {
      "midi": 65,
      "hit": false,
      "t": 68727.20399999994,
      "d": 2139.3917999999976,
      "v": 90
    },
    {
      "midi": 57,
      "hit": false,
      "t": 69454.47599999992,
      "d": 142.42410000000382,
      "v": 54
    },
    {
      "midi": 60,
      "hit": false,
      "t": 69454.47599999992,
      "d": 142.42410000000382,
      "v": 54
    },
    {
      "midi": 65,
      "hit": false,
      "t": 69454.47599999992,
      "d": 142.42410000000382,
      "v": 54
    },
    {
      "midi": 41,
      "hit": false,
      "t": 69818.11199999992,
      "d": 1460.604600000006,
      "v": 56
    },
    {
      "midi": 57,
      "hit": false,
      "t": 69818.11199999992,
      "d": 1818.1800000000076,
      "v": 78
    },
    {
      "midi": 60,
      "hit": false,
      "t": 69818.11199999992,
      "d": 1818.1800000000076,
      "v": 78
    },
    {
      "midi": 65,
      "hit": false,
      "t": 69818.11199999992,
      "d": 1818.1800000000076,
      "v": 78
    },
    {
      "midi": 69,
      "hit": false,
      "t": 71272.65599999994,
      "d": 357.57540000000154,
      "v": 90
    },
    {
      "midi": 69,
      "hit": false,
      "t": 71636.29199999993,
      "d": 103.03019999999378,
      "v": 70
    },
    {
      "midi": 67,
      "hit": false,
      "t": 71636.29199999994,
      "d": 357.57540000000154,
      "v": 90
    },
    {
      "midi": 57,
      "hit": false,
      "t": 71999.92799999993,
      "d": 1645.4529000000039,
      "v": 65
    },
    {
      "midi": 60,
      "hit": false,
      "t": 71999.92799999993,
      "d": 1645.4529000000039,
      "v": 65
    },
    {
      "midi": 65,
      "hit": false,
      "t": 71999.92799999993,
      "d": 1645.4529000000039,
      "v": 65
    },
    {
      "midi": 65,
      "hit": false,
      "t": 71999.92799999994,
      "d": 357.57540000000154,
      "v": 92
    },
    {
      "midi": 69,
      "hit": false,
      "t": 72363.56399999994,
      "d": 357.57540000000154,
      "v": 90
    },
    {
      "midi": 67,
      "hit": false,
      "t": 72727.19999999994,
      "d": 357.57540000000154,
      "v": 88
    },
    {
      "midi": 65,
      "hit": false,
      "t": 73090.83599999994,
      "d": 357.57540000000154,
      "v": 92
    },
    {
      "midi": 69,
      "hit": false,
      "t": 73454.47199999994,
      "d": 357.57540000000154,
      "v": 90
    },
    {
      "midi": 57,
      "hit": false,
      "t": 73818.10799999993,
      "d": 142.42410000000382,
      "v": 54
    },
    {
      "midi": 60,
      "hit": false,
      "t": 73818.10799999993,
      "d": 142.42410000000382,
      "v": 54
    },
    {
      "midi": 65,
      "hit": false,
      "t": 73818.10799999993,
      "d": 142.42410000000382,
      "v": 54
    },
    {
      "midi": 67,
      "hit": false,
      "t": 73818.10799999993,
      "d": 357.57540000000154,
      "v": 88
    },
    {
      "midi": 57,
      "hit": false,
      "t": 74181.74399999993,
      "d": 2066.6646000000037,
      "v": 64
    },
    {
      "midi": 60,
      "hit": false,
      "t": 74181.74399999993,
      "d": 2066.6646000000037,
      "v": 64
    },
    {
      "midi": 65,
      "hit": false,
      "t": 74181.74399999993,
      "d": 2066.6646000000037,
      "v": 64
    },
    {
      "midi": 65,
      "hit": false,
      "t": 74181.74399999993,
      "d": 357.57540000000154,
      "v": 92
    },
    {
      "midi": 69,
      "hit": false,
      "t": 74545.37999999993,
      "d": 357.57540000000154,
      "v": 90
    },
    {
      "midi": 67,
      "hit": false,
      "t": 74909.01599999993,
      "d": 357.57540000000154,
      "v": 88
    },
    {
      "midi": 65,
      "hit": false,
      "t": 75272.65199999993,
      "d": 357.57540000000154,
      "v": 92
    },
    {
      "midi": 64,
      "hit": false,
      "t": 75636.28799999993,
      "d": 357.57540000000154,
      "v": 90
    },
    {
      "midi": 62,
      "hit": false,
      "t": 75999.92399999993,
      "d": 357.57540000000154,
      "v": 92
    },
    {
      "midi": 60,
      "hit": false,
      "t": 76363.55999999992,
      "d": 1084.8473999999987,
      "v": 92
    },
    {
      "midi": 36,
      "hit": false,
      "t": 76363.55999999994,
      "d": 2057.5736999999936,
      "v": 81
    },
    {
      "midi": 48,
      "hit": false,
      "t": 76545.37799999994,
      "d": 1866.6647999999986,
      "v": 78
    },
    {
      "midi": 55,
      "hit": false,
      "t": 76727.19599999994,
      "d": 1627.2710999999981,
      "v": 65
    },
    {
      "midi": 60,
      "hit": false,
      "t": 76909.01399999994,
      "d": 575.7569999999978,
      "v": 88
    },
    {
      "midi": 64,
      "hit": false,
      "t": 77090.83199999994,
      "d": 184.84829999999783,
      "v": 76
    },
    {
      "midi": 67,
      "hit": false,
      "t": 77272.64999999994,
      "d": 1069.695900000006,
      "v": 92
    },
    {
      "midi": 55,
      "hit": false,
      "t": 77454.46799999992,
      "d": 1781.816399999996,
      "v": 92
    },
    {
      "midi": 64,
      "hit": false,
      "t": 77454.46799999994,
      "d": 839.3931000000011,
      "v": 76
    },
    {
      "midi": 60,
      "hit": false,
      "t": 78181.73999999993,
      "d": 127.27260000001115,
      "v": 79
    },
    {
      "midi": 48,
      "hit": false,
      "t": 78545.37599999993,
      "d": 415.15110000000277,
      "v": 48
    },
    {
      "midi": 55,
      "hit": false,
      "t": 78545.37599999993,
      "d": 463.6359000000084,
      "v": 57
    },
    {
      "midi": 60,
      "hit": false,
      "t": 78545.37599999993,
      "d": 515.1510000000126,
      "v": 74
    },
    {
      "midi": 64,
      "hit": false,
      "t": 78545.37599999993,
      "d": 515.1510000000126,
      "v": 71
    },
    {
      "midi": 67,
      "hit": false,
      "t": 78545.37599999993,
      "d": 548.484300000011,
      "v": 68
    },
    {
      "midi": 36,
      "hit": false,
      "t": 78545.37599999993,
      "d": 830.3022000000055,
      "v": 54
    },
    {
      "midi": 55,
      "hit": false,
      "t": 79093.86029999994,
      "d": 542.4236999999994,
      "v": 67
    },
    {
      "midi": 60,
      "hit": false,
      "t": 79272.64799999994,
      "d": 303.02999999999884,
      "v": 84
    },
    {
      "midi": 67,
      "hit": false,
      "t": 79454.46599999994,
      "d": 130.30289999999513,
      "v": 89
    },
    {
      "midi": 36,
      "hit": false,
      "t": 79636.28399999994,
      "d": 1090.9079999999958,
      "v": 49
    },
    {
      "midi": 55,
      "hit": false,
      "t": 79636.28399999994,
      "d": 1090.9079999999958,
      "v": 65
    },
    {
      "midi": 60,
      "hit": false,
      "t": 79636.28399999994,
      "d": 1090.9079999999958,
      "v": 65
    },
    {
      "midi": 64,
      "hit": false,
      "t": 79636.28399999994,
      "d": 1090.9079999999958,
      "v": 65
    },
    {
      "midi": 67,
      "hit": false,
      "t": 79999.91999999991,
      "d": 357.57540000000154,
      "v": 90
    },
    {
      "midi": 65,
      "hit": false,
      "t": 80363.55599999991,
      "d": 357.57540000000154,
      "v": 88
    },
    {
      "midi": 64,
      "hit": false,
      "t": 80727.19199999991,
      "d": 357.57540000000154,
      "v": 92
    },
    {
      "midi": 55,
      "hit": false,
      "t": 80727.19199999994,
      "d": 2066.6646000000037,
      "v": 64
    },
    {
      "midi": 60,
      "hit": false,
      "t": 80727.19199999994,
      "d": 2066.6646000000037,
      "v": 64
    },
    {
      "midi": 64,
      "hit": false,
      "t": 80727.19199999994,
      "d": 2066.6646000000037,
      "v": 64
    },
    {
      "midi": 67,
      "hit": false,
      "t": 81090.8279999999,
      "d": 357.57540000000154,
      "v": 90
    },
    {
      "midi": 65,
      "hit": false,
      "t": 81454.4639999999,
      "d": 348.48450000000594,
      "v": 88
    },
    {
      "midi": 64,
      "hit": false,
      "t": 81818.09999999992,
      "d": 357.57540000000154,
      "v": 92
    },
    {
      "midi": 67,
      "hit": false,
      "t": 82181.73599999992,
      "d": 357.57540000000154,
      "v": 90
    },
    {
      "midi": 65,
      "hit": false,
      "t": 82545.37199999992,
      "d": 348.48450000000594,
      "v": 88
    },
    {
      "midi": 64,
      "hit": false,
      "t": 82909.00799999993,
      "d": 357.57540000000154,
      "v": 92
    },
    {
      "midi": 36,
      "hit": false,
      "t": 82909.00799999994,
      "d": 1460.604600000006,
      "v": 56
    },
    {
      "midi": 55,
      "hit": false,
      "t": 82909.00799999994,
      "d": 1818.1800000000076,
      "v": 78
    },
    {
      "midi": 60,
      "hit": false,
      "t": 82909.00799999994,
      "d": 1818.1800000000076,
      "v": 78
    },
    {
      "midi": 64,
      "hit": false,
      "t": 82909.00799999994,
      "d": 1818.1800000000076,
      "v": 78
    },
    {
      "midi": 60,
      "hit": false,
      "t": 83272.64399999993,
      "d": 357.57540000000154,
      "v": 90
    },
    {
      "midi": 62,
      "hit": false,
      "t": 83636.27999999993,
      "d": 348.48450000000594,
      "v": 88
    },
    {
      "midi": 64,
      "hit": false,
      "t": 83999.91599999994,
      "d": 357.57540000000154,
      "v": 92
    },
    {
      "midi": 65,
      "hit": false,
      "t": 84363.55199999994,
      "d": 357.57540000000154,
      "v": 90
    },
    {
      "midi": 62,
      "hit": false,
      "t": 84727.18799999994,
      "d": 348.48450000000594,
      "v": 88
    },
    {
      "midi": 64,
      "hit": false,
      "t": 84727.18799999995,
      "d": 103.03019999999378,
      "v": 70
    },
    {
      "midi": 41,
      "hit": false,
      "t": 85090.82399999995,
      "d": 2048.482799999998,
      "v": 81
    },
    {
      "midi": 64,
      "hit": false,
      "t": 85090.82399999995,
      "d": 1069.695900000006,
      "v": 92
    },
    {
      "midi": 57,
      "hit": false,
      "t": 85454.45999999995,
      "d": 1627.2710999999981,
      "v": 65
    },
    {
      "midi": 60,
      "hit": false,
      "t": 85636.27799999995,
      "d": 575.7569999999978,
      "v": 88
    },
    {
      "midi": 65,
      "hit": false,
      "t": 85818.09599999995,
      "d": 184.84829999999783,
      "v": 76
    },
    {
      "midi": 69,
      "hit": false,
      "t": 85999.91399999995,
      "d": 1069.695900000006,
      "v": 92
    },
    {
      "midi": 65,
      "hit": false,
      "t": 86181.73199999995,
      "d": 839.3931000000011,
      "v": 76
    },
    {
      "midi": 57,
      "hit": false,
      "t": 86181.73199999996,
      "d": 2139.3917999999976,
      "v": 92
    },
    {
      "midi": 60,
      "hit": false,
      "t": 86909.00399999994,
      "d": 127.27260000001115,
      "v": 79
    },
    {
      "midi": 57,
      "hit": false,
      "t": 87272.63999999994,
      "d": 1645.4529000000039,
      "v": 65
    },
    {
      "midi": 60,
      "hit": false,
      "t": 87272.63999999994,
      "d": 1645.4529000000039,
      "v": 65
    },
    {
      "midi": 65,
      "hit": false,
      "t": 87272.63999999994,
      "d": 1645.4529000000039,
      "v": 65
    },
    {
      "midi": 57,
      "hit": false,
      "t": 88727.18399999996,
      "d": 357.57540000000154,
      "v": 90
    },
    {
      "midi": 57,
      "hit": false,
      "t": 89090.81999999995,
      "d": 142.42410000000382,
      "v": 54
    },
    {
      "midi": 60,
      "hit": false,
      "t": 89090.81999999995,
      "d": 142.42410000000382,
      "v": 54
    },
    {
      "midi": 65,
      "hit": false,
      "t": 89090.81999999995,
      "d": 142.42410000000382,
      "v": 54
    },
    {
      "midi": 60,
      "hit": false,
      "t": 89090.81999999996,
      "d": 348.48450000000594,
      "v": 88
    },
    {
      "midi": 41,
      "hit": false,
      "t": 89454.45599999995,
      "d": 2048.482799999998,
      "v": 81
    },
    {
      "midi": 65,
      "hit": false,
      "t": 89454.45599999998,
      "d": 357.57540000000154,
      "v": 92
    },
    {
      "midi": 57,
      "hit": false,
      "t": 89818.09199999995,
      "d": 1627.2710999999981,
      "v": 65
    },
    {
      "midi": 57,
      "hit": false,
      "t": 89818.09199999998,
      "d": 178.78770000000077,
      "v": 90
    },
    {
      "midi": 60,
      "hit": false,
      "t": 89999.90999999995,
      "d": 575.7569999999978,
      "v": 88
    },
    {
      "midi": 60,
      "hit": false,
      "t": 89999.90999999997,
      "d": 178.78770000000077,
      "v": 86
    },
    {
      "midi": 65,
      "hit": false,
      "t": 90181.72799999994,
      "d": 184.84829999999783,
      "v": 76
    },
    {
      "midi": 57,
      "hit": false,
      "t": 90181.72799999997,
      "d": 178.78770000000077,
      "v": 88
    },
    {
      "midi": 69,
      "hit": false,
      "t": 90363.54599999994,
      "d": 1069.695900000006,
      "v": 92
    },
    {
      "midi": 60,
      "hit": false,
      "t": 90363.54599999997,
      "d": 178.78770000000077,
      "v": 86
    },
    {
      "midi": 65,
      "hit": false,
      "t": 90545.36399999994,
      "d": 839.3931000000011,
      "v": 76
    },
    {
      "midi": 65,
      "hit": false,
      "t": 90545.36399999997,
      "d": 357.57540000000154,
      "v": 92
    },
    {
      "midi": 57,
      "hit": false,
      "t": 90908.99999999997,
      "d": 178.78770000000077,
      "v": 90
    },
    {
      "midi": 60,
      "hit": false,
      "t": 91090.81799999997,
      "d": 178.78770000000077,
      "v": 90
    },
    {
      "midi": 60,
      "hit": false,
      "t": 91272.63599999994,
      "d": 127.27260000001115,
      "v": 79
    },
    {
      "midi": 57,
      "hit": false,
      "t": 91272.63599999997,
      "d": 178.78770000000077,
      "v": 90
    },
    {
      "midi": 60,
      "hit": false,
      "t": 91454.45399999997,
      "d": 178.78770000000077,
      "v": 90
    },
    {
      "midi": 41,
      "hit": false,
      "t": 91636.27199999994,
      "d": 1460.604600000006,
      "v": 56
    },
    {
      "midi": 57,
      "hit": false,
      "t": 91636.27199999994,
      "d": 1818.1800000000076,
      "v": 78
    },
    {
      "midi": 60,
      "hit": false,
      "t": 91636.27199999994,
      "d": 1818.1800000000076,
      "v": 78
    },
    {
      "midi": 65,
      "hit": false,
      "t": 91636.27199999994,
      "d": 1818.1800000000076,
      "v": 78
    },
    {
      "midi": 65,
      "hit": false,
      "t": 91636.27199999997,
      "d": 357.57540000000154,
      "v": 92
    },
    {
      "midi": 57,
      "hit": false,
      "t": 91999.90799999997,
      "d": 357.57540000000154,
      "v": 90
    },
    {
      "midi": 60,
      "hit": false,
      "t": 92363.54399999997,
      "d": 348.48450000000594,
      "v": 88
    },
    {
      "midi": 65,
      "hit": false,
      "t": 92727.17999999998,
      "d": 357.57540000000154,
      "v": 92
    },
    {
      "midi": 67,
      "hit": false,
      "t": 93090.81599999998,
      "d": 357.57540000000154,
      "v": 90
    },
    {
      "midi": 69,
      "hit": false,
      "t": 93454.45199999995,
      "d": 103.03019999999378,
      "v": 70
    },
    {
      "midi": 65,
      "hit": false,
      "t": 93454.45199999998,
      "d": 348.48450000000594,
      "v": 88
    },
    {
      "midi": 36,
      "hit": false,
      "t": 93818.08799999995,
      "d": 1460.604600000006,
      "v": 56
    },
    {
      "midi": 55,
      "hit": false,
      "t": 93818.08799999995,
      "d": 1818.1800000000076,
      "v": 78
    },
    {
      "midi": 60,
      "hit": false,
      "t": 93818.08799999995,
      "d": 1818.1800000000076,
      "v": 78
    },
    {
      "midi": 64,
      "hit": false,
      "t": 93818.08799999995,
      "d": 1818.1800000000076,
      "v": 78
    },
    {
      "midi": 64,
      "hit": false,
      "t": 93818.08799999999,
      "d": 1084.8473999999987,
      "v": 90
    },
    {
      "midi": 60,
      "hit": false,
      "t": 94908.99599999998,
      "d": 2139.3917999999976,
      "v": 90
    },
    {
      "midi": 64,
      "hit": false,
      "t": 95636.26799999995,
      "d": 103.03019999999378,
      "v": 70
    },
    {
      "midi": 55,
      "hit": false,
      "t": 95999.90399999995,
      "d": 2066.6646000000037,
      "v": 64
    },
    {
      "midi": 60,
      "hit": false,
      "t": 95999.90399999995,
      "d": 2066.6646000000037,
      "v": 64
    },
    {
      "midi": 64,
      "hit": false,
      "t": 95999.90399999995,
      "d": 2066.6646000000037,
      "v": 64
    },
    {
      "midi": 55,
      "hit": false,
      "t": 97454.44799999999,
      "d": 357.57540000000154,
      "v": 90
    },
    {
      "midi": 58,
      "hit": false,
      "t": 97818.08399999999,
      "d": 357.57540000000154,
      "v": 90
    },
    {
      "midi": 36,
      "hit": false,
      "t": 98181.71999999996,
      "d": 2057.5736999999936,
      "v": 81
    },
    {
      "midi": 64,
      "hit": false,
      "t": 98181.71999999999,
      "d": 357.57540000000154,
      "v": 92
    },
    {
      "midi": 48,
      "hit": false,
      "t": 98363.53799999996,
      "d": 1866.6647999999986,
      "v": 78
    },
    {
      "midi": 55,
      "hit": false,
      "t": 98545.35599999996,
      "d": 1627.2710999999981,
      "v": 65
    },
    {
      "midi": 55,
      "hit": false,
      "t": 98545.35599999999,
      "d": 178.78770000000077,
      "v": 90
    },
    {
      "midi": 60,
      "hit": false,
      "t": 98727.17399999996,
      "d": 575.7569999999978,
      "v": 88
    },
    {
      "midi": 58,
      "hit": false,
      "t": 98727.17399999998,
      "d": 178.78770000000077,
      "v": 90
    },
    {
      "midi": 64,
      "hit": false,
      "t": 98908.99199999995,
      "d": 184.84829999999783,
      "v": 76
    },
    {
      "midi": 55,
      "hit": false,
      "t": 98908.99199999998,
      "d": 178.78770000000077,
      "v": 90
    },
    {
      "midi": 67,
      "hit": false,
      "t": 99090.80999999995,
      "d": 1069.695900000006,
      "v": 92
    },
    {
      "midi": 58,
      "hit": false,
      "t": 99090.80999999998,
      "d": 178.78770000000077,
      "v": 90
    },
    {
      "midi": 64,
      "hit": false,
      "t": 99272.62799999995,
      "d": 839.3931000000011,
      "v": 76
    },
    {
      "midi": 64,
      "hit": false,
      "t": 99272.62799999998,
      "d": 357.57540000000154,
      "v": 92
    },
    {
      "midi": 55,
      "hit": false,
      "t": 99636.26399999998,
      "d": 178.78770000000077,
      "v": 90
    },
    {
      "midi": 58,
      "hit": false,
      "t": 99818.08199999998,
      "d": 178.78770000000077,
      "v": 90
    },
    {
      "midi": 60,
      "hit": false,
      "t": 99999.89999999995,
      "d": 127.27260000001115,
      "v": 79
    },
    {
      "midi": 55,
      "hit": false,
      "t": 99999.89999999998,
      "d": 178.78770000000077,
      "v": 90
    },
    {
      "midi": 58,
      "hit": false,
      "t": 100181.71799999998,
      "d": 178.78770000000077,
      "v": 90
    },
    {
      "midi": 55,
      "hit": false,
      "t": 100363.53599999995,
      "d": 2066.6646000000037,
      "v": 64
    },
    {
      "midi": 60,
      "hit": false,
      "t": 100363.53599999995,
      "d": 2066.6646000000037,
      "v": 64
    },
    {
      "midi": 64,
      "hit": false,
      "t": 100363.53599999995,
      "d": 2066.6646000000037,
      "v": 64
    },
    {
      "midi": 64,
      "hit": false,
      "t": 100363.53599999998,
      "d": 357.57540000000154,
      "v": 90
    },
    {
      "midi": 60,
      "hit": false,
      "t": 100727.17199999998,
      "d": 357.57540000000154,
      "v": 90
    },
    {
      "midi": 62,
      "hit": false,
      "t": 101090.80799999998,
      "d": 357.57540000000154,
      "v": 88
    },
    {
      "midi": 64,
      "hit": false,
      "t": 101454.44399999997,
      "d": 357.57540000000154,
      "v": 92
    },
    {
      "midi": 65,
      "hit": false,
      "t": 101818.07999999997,
      "d": 357.57540000000154,
      "v": 90
    },
    {
      "midi": 62,
      "hit": false,
      "t": 102181.71599999997,
      "d": 348.48450000000594,
      "v": 88
    },
    {
      "midi": 57,
      "hit": false,
      "t": 102545.35199999996,
      "d": 1645.4529000000039,
      "v": 65
    },
    {
      "midi": 60,
      "hit": false,
      "t": 102545.35199999996,
      "d": 1645.4529000000039,
      "v": 65
    },
    {
      "midi": 65,
      "hit": false,
      "t": 102545.35199999996,
      "d": 1645.4529000000039,
      "v": 65
    },
    {
      "midi": 64,
      "hit": false,
      "t": 102545.35199999998,
      "d": 1069.695900000006,
      "v": 92
    },
    {
      "midi": 57,
      "hit": false,
      "t": 103636.26,
      "d": 2139.3917999999976,
      "v": 92
    },
    {
      "midi": 57,
      "hit": false,
      "t": 104363.53199999996,
      "d": 142.42410000000382,
      "v": 54
    },
    {
      "midi": 60,
      "hit": false,
      "t": 104363.53199999996,
      "d": 142.42410000000382,
      "v": 54
    },
    {
      "midi": 65,
      "hit": false,
      "t": 104363.53199999996,
      "d": 142.42410000000382,
      "v": 54
    },
    {
      "midi": 41,
      "hit": false,
      "t": 104727.16799999996,
      "d": 2048.482799999998,
      "v": 81
    },
    {
      "midi": 57,
      "hit": false,
      "t": 105090.80399999996,
      "d": 1627.2710999999981,
      "v": 65
    },
    {
      "midi": 60,
      "hit": false,
      "t": 105272.62199999996,
      "d": 575.7569999999978,
      "v": 88
    },
    {
      "midi": 65,
      "hit": false,
      "t": 105454.43999999996,
      "d": 184.84829999999783,
      "v": 76
    },
    {
      "midi": 69,
      "hit": false,
      "t": 105636.25799999996,
      "d": 1069.695900000006,
      "v": 92
    },
    {
      "midi": 65,
      "hit": false,
      "t": 105818.07599999996,
      "d": 839.3931000000011,
      "v": 76
    },
    {
      "midi": 69,
      "hit": false,
      "t": 106181.712,
      "d": 357.57540000000154,
      "v": 90
    },
    {
      "midi": 60,
      "hit": false,
      "t": 106545.34799999995,
      "d": 127.27260000001115,
      "v": 79
    },
    {
      "midi": 67,
      "hit": false,
      "t": 106545.348,
      "d": 348.48450000000594,
      "v": 88
    },
    {
      "midi": 41,
      "hit": false,
      "t": 106908.98399999995,
      "d": 1460.604600000006,
      "v": 56
    },
    {
      "midi": 57,
      "hit": false,
      "t": 106908.98399999995,
      "d": 1818.1800000000076,
      "v": 78
    },
    {
      "midi": 60,
      "hit": false,
      "t": 106908.98399999995,
      "d": 1818.1800000000076,
      "v": 78
    },
    {
      "midi": 65,
      "hit": false,
      "t": 106908.98399999995,
      "d": 1818.1800000000076,
      "v": 78
    },
    {
      "midi": 65,
      "hit": false,
      "t": 106908.98400000001,
      "d": 357.57540000000154,
      "v": 92
    },
    {
      "midi": 69,
      "hit": false,
      "t": 107272.62000000001,
      "d": 357.57540000000154,
      "v": 90
    },
    {
      "midi": 67,
      "hit": false,
      "t": 107636.25600000001,
      "d": 357.57540000000154,
      "v": 88
    },
    {
      "midi": 65,
      "hit": false,
      "t": 107999.892,
      "d": 357.57540000000154,
      "v": 92
    },
    {
      "midi": 69,
      "hit": false,
      "t": 108363.528,
      "d": 357.57540000000154,
      "v": 90
    },
    {
      "midi": 69,
      "hit": false,
      "t": 108727.16399999996,
      "d": 103.03019999999378,
      "v": 70
    },
    {
      "midi": 67,
      "hit": false,
      "t": 108727.164,
      "d": 357.57540000000154,
      "v": 88
    },
    {
      "midi": 41,
      "hit": false,
      "t": 109090.79999999996,
      "d": 2048.482799999998,
      "v": 81
    },
    {
      "midi": 65,
      "hit": false,
      "t": 109090.8,
      "d": 357.57540000000154,
      "v": 92
    },
    {
      "midi": 57,
      "hit": false,
      "t": 109454.43599999996,
      "d": 1627.2710999999981,
      "v": 65
    },
    {
      "midi": 69,
      "hit": false,
      "t": 109454.436,
      "d": 357.57540000000154,
      "v": 90
    },
    {
      "midi": 60,
      "hit": false,
      "t": 109636.25399999996,
      "d": 575.7569999999978,
      "v": 88
    },
    {
      "midi": 65,
      "hit": false,
      "t": 109818.07199999996,
      "d": 184.84829999999783,
      "v": 76
    },
    {
      "midi": 67,
      "hit": false,
      "t": 109818.072,
      "d": 357.57540000000154,
      "v": 88
    },
    {
      "midi": 69,
      "hit": false,
      "t": 109999.88999999996,
      "d": 1069.695900000006,
      "v": 92
    },
    {
      "midi": 65,
      "hit": false,
      "t": 110181.70799999996,
      "d": 839.3931000000011,
      "v": 76
    },
    {
      "midi": 65,
      "hit": false,
      "t": 110181.708,
      "d": 357.57540000000154,
      "v": 92
    },
    {
      "midi": 64,
      "hit": false,
      "t": 110545.344,
      "d": 357.57540000000154,
      "v": 90
    },
    {
      "midi": 60,
      "hit": false,
      "t": 110908.97999999995,
      "d": 127.27260000001115,
      "v": 79
    },
    {
      "midi": 62,
      "hit": false,
      "t": 110908.98,
      "d": 357.57540000000154,
      "v": 92
    },
    {
      "midi": 55,
      "hit": false,
      "t": 111272.61599999995,
      "d": 1645.4529000000039,
      "v": 65
    },
    {
      "midi": 60,
      "hit": false,
      "t": 111272.61599999995,
      "d": 1645.4529000000039,
      "v": 65
    },
    {
      "midi": 64,
      "hit": false,
      "t": 111272.61599999995,
      "d": 1645.4529000000039,
      "v": 65
    },
    {
      "midi": 60,
      "hit": false,
      "t": 111272.616,
      "d": 1084.8473999999987,
      "v": 92
    },
    {
      "midi": 55,
      "hit": false,
      "t": 112363.52399999999,
      "d": 1781.816399999996,
      "v": 92
    },
    {
      "midi": 55,
      "hit": false,
      "t": 113090.79599999996,
      "d": 142.42410000000382,
      "v": 54
    },
    {
      "midi": 60,
      "hit": false,
      "t": 113090.79599999996,
      "d": 142.42410000000382,
      "v": 54
    },
    {
      "midi": 64,
      "hit": false,
      "t": 113090.79599999996,
      "d": 142.42410000000382,
      "v": 54
    },
    {
      "midi": 55,
      "hit": false,
      "t": 113454.43199999996,
      "d": 642.4235999999946,
      "v": 72
    },
    {
      "midi": 60,
      "hit": false,
      "t": 113454.43199999996,
      "d": 642.4235999999946,
      "v": 72
    },
    {
      "midi": 64,
      "hit": false,
      "t": 113454.43199999996,
      "d": 642.4235999999946,
      "v": 72
    },
    {
      "midi": 36,
      "hit": false,
      "t": 113454.43199999996,
      "d": 769.6961999999912,
      "v": 54
    },
    {
      "midi": 48,
      "hit": false,
      "t": 114181.70399999995,
      "d": 42.424199999994016,
      "v": 62
    },
    {
      "midi": 55,
      "hit": false,
      "t": 114181.70399999995,
      "d": 66.66659999999683,
      "v": 75
    },
    {
      "midi": 60,
      "hit": false,
      "t": 114181.70399999995,
      "d": 66.66659999999683,
      "v": 75
    },
    {
      "midi": 64,
      "hit": false,
      "t": 114181.70399999995,
      "d": 66.66659999999683,
      "v": 75
    },
    {
      "midi": 55,
      "hit": false,
      "t": 114545.33999999995,
      "d": 642.4235999999946,
      "v": 72
    },
    {
      "midi": 60,
      "hit": false,
      "t": 114545.33999999995,
      "d": 642.4235999999946,
      "v": 72
    },
    {
      "midi": 64,
      "hit": false,
      "t": 114545.33999999995,
      "d": 642.4235999999946,
      "v": 72
    },
    {
      "midi": 36,
      "hit": false,
      "t": 114545.33999999995,
      "d": 769.6961999999912,
      "v": 54
    },
    {
      "midi": 67,
      "hit": false,
      "t": 114908.97599999998,
      "d": 357.57540000000154,
      "v": 90
    },
    {
      "midi": 48,
      "hit": false,
      "t": 115272.61199999995,
      "d": 42.424199999994016,
      "v": 62
    },
    {
      "midi": 55,
      "hit": false,
      "t": 115272.61199999995,
      "d": 66.66659999999683,
      "v": 75
    },
    {
      "midi": 60,
      "hit": false,
      "t": 115272.61199999995,
      "d": 66.66659999999683,
      "v": 75
    },
    {
      "midi": 64,
      "hit": false,
      "t": 115272.61199999995,
      "d": 66.66659999999683,
      "v": 75
    },
    {
      "midi": 65,
      "hit": false,
      "t": 115272.61199999998,
      "d": 357.57540000000154,
      "v": 88
    },
    {
      "midi": 36,
      "hit": false,
      "t": 115636.24799999995,
      "d": 1460.604600000006,
      "v": 56
    },
    {
      "midi": 55,
      "hit": false,
      "t": 115636.24799999995,
      "d": 1818.1800000000076,
      "v": 78
    },
    {
      "midi": 60,
      "hit": false,
      "t": 115636.24799999995,
      "d": 1818.1800000000076,
      "v": 78
    },
    {
      "midi": 64,
      "hit": false,
      "t": 115636.24799999995,
      "d": 1818.1800000000076,
      "v": 78
    },
    {
      "midi": 64,
      "hit": false,
      "t": 115636.24799999998,
      "d": 357.57540000000154,
      "v": 92
    },
    {
      "midi": 67,
      "hit": false,
      "t": 115999.88399999998,
      "d": 357.57540000000154,
      "v": 90
    },
    {
      "midi": 65,
      "hit": false,
      "t": 116363.51999999997,
      "d": 348.48450000000594,
      "v": 88
    },
    {
      "midi": 64,
      "hit": false,
      "t": 116727.15599999999,
      "d": 357.57540000000154,
      "v": 92
    },
    {
      "midi": 67,
      "hit": false,
      "t": 117090.79199999999,
      "d": 357.57540000000154,
      "v": 90
    },
    {
      "midi": 64,
      "hit": false,
      "t": 117454.42799999996,
      "d": 103.03019999999378,
      "v": 70
    },
    {
      "midi": 65,
      "hit": false,
      "t": 117454.42799999999,
      "d": 348.48450000000594,
      "v": 88
    },
    {
      "midi": 55,
      "hit": false,
      "t": 117818.06399999995,
      "d": 2066.6646000000037,
      "v": 64
    },
    {
      "midi": 60,
      "hit": false,
      "t": 117818.06399999995,
      "d": 2066.6646000000037,
      "v": 64
    },
    {
      "midi": 64,
      "hit": false,
      "t": 117818.06399999995,
      "d": 2066.6646000000037,
      "v": 64
    },
    {
      "midi": 64,
      "hit": false,
      "t": 117818.064,
      "d": 357.57540000000154,
      "v": 92
    },
    {
      "midi": 60,
      "hit": false,
      "t": 118181.7,
      "d": 357.57540000000154,
      "v": 90
    },
    {
      "midi": 62,
      "hit": false,
      "t": 118545.336,
      "d": 348.48450000000594,
      "v": 88
    },
    {
      "midi": 64,
      "hit": false,
      "t": 118908.97200000001,
      "d": 357.57540000000154,
      "v": 92
    },
    {
      "midi": 65,
      "hit": false,
      "t": 119272.60800000001,
      "d": 357.57540000000154,
      "v": 90
    },
    {
      "midi": 67,
      "hit": false,
      "t": 119636.244,
      "d": 348.48450000000594,
      "v": 88
    },
    {
      "midi": 41,
      "hit": false,
      "t": 119999.87999999996,
      "d": 2048.482799999998,
      "v": 81
    },
    {
      "midi": 69,
      "hit": false,
      "t": 119999.88000000002,
      "d": 2139.3917999999976,
      "v": 90
    },
    {
      "midi": 57,
      "hit": false,
      "t": 120363.51599999996,
      "d": 1627.2710999999981,
      "v": 65
    },
    {
      "midi": 60,
      "hit": false,
      "t": 120545.33399999996,
      "d": 575.7569999999978,
      "v": 88
    },
    {
      "midi": 65,
      "hit": false,
      "t": 120727.15199999996,
      "d": 184.84829999999783,
      "v": 76
    },
    {
      "midi": 69,
      "hit": false,
      "t": 120908.96999999996,
      "d": 1069.695900000006,
      "v": 92
    },
    {
      "midi": 65,
      "hit": false,
      "t": 121090.78799999996,
      "d": 839.3931000000011,
      "v": 76
    },
    {
      "midi": 60,
      "hit": false,
      "t": 121818.05999999995,
      "d": 127.27260000001115,
      "v": 79
    },
    {
      "midi": 41,
      "hit": false,
      "t": 122181.69599999995,
      "d": 2048.482799999998,
      "v": 81
    },
    {
      "midi": 57,
      "hit": false,
      "t": 122545.33199999995,
      "d": 1627.2710999999981,
      "v": 65
    },
    {
      "midi": 60,
      "hit": false,
      "t": 122727.14999999995,
      "d": 575.7569999999978,
      "v": 88
    },
    {
      "midi": 65,
      "hit": false,
      "t": 122908.96799999995,
      "d": 184.84829999999783,
      "v": 76
    },
    {
      "midi": 69,
      "hit": false,
      "t": 123090.78599999995,
      "d": 1069.695900000006,
      "v": 92
    },
    {
      "midi": 65,
      "hit": false,
      "t": 123272.60399999995,
      "d": 839.3931000000011,
      "v": 76
    },
    {
      "midi": 62,
      "hit": false,
      "t": 123636.24000000002,
      "d": 357.57540000000154,
      "v": 90
    },
    {
      "midi": 60,
      "hit": false,
      "t": 123999.87599999995,
      "d": 127.27260000001115,
      "v": 79
    },
    {
      "midi": 64,
      "hit": false,
      "t": 123999.87600000002,
      "d": 357.57540000000154,
      "v": 90
    },
    {
      "midi": 58,
      "hit": false,
      "t": 124363.51199999994,
      "d": 2066.6646000000037,
      "v": 64
    },
    {
      "midi": 62,
      "hit": false,
      "t": 124363.51199999994,
      "d": 2066.6646000000037,
      "v": 64
    },
    {
      "midi": 65,
      "hit": false,
      "t": 124363.51199999994,
      "d": 2066.6646000000037,
      "v": 64
    },
    {
      "midi": 65,
      "hit": false,
      "t": 124363.51200000002,
      "d": 357.57540000000154,
      "v": 90
    },
    {
      "midi": 62,
      "hit": false,
      "t": 124727.14800000002,
      "d": 357.57540000000154,
      "v": 90
    },
    {
      "midi": 64,
      "hit": false,
      "t": 125090.78400000001,
      "d": 357.57540000000154,
      "v": 90
    },
    {
      "midi": 65,
      "hit": false,
      "t": 125454.42000000001,
      "d": 357.57540000000154,
      "v": 90
    },
    {
      "midi": 62,
      "hit": false,
      "t": 125818.05600000001,
      "d": 357.57540000000154,
      "v": 90
    },
    {
      "midi": 64,
      "hit": false,
      "t": 126181.69200000001,
      "d": 357.57540000000154,
      "v": 90
    },
    {
      "midi": 58,
      "hit": false,
      "t": 126545.32799999995,
      "d": 2066.6646000000037,
      "v": 64
    },
    {
      "midi": 62,
      "hit": false,
      "t": 126545.32799999995,
      "d": 2066.6646000000037,
      "v": 64
    },
    {
      "midi": 65,
      "hit": false,
      "t": 126545.32799999995,
      "d": 2066.6646000000037,
      "v": 64
    },
    {
      "midi": 65,
      "hit": false,
      "t": 126545.32800000001,
      "d": 357.57540000000154,
      "v": 90
    },
    {
      "midi": 62,
      "hit": false,
      "t": 126908.964,
      "d": 357.57540000000154,
      "v": 90
    },
    {
      "midi": 64,
      "hit": false,
      "t": 127272.6,
      "d": 357.57540000000154,
      "v": 90
    },
    {
      "midi": 65,
      "hit": false,
      "t": 127636.236,
      "d": 357.57540000000154,
      "v": 90
    },
    {
      "midi": 67,
      "hit": false,
      "t": 127999.872,
      "d": 357.57540000000154,
      "v": 90
    },
    {
      "midi": 65,
      "hit": false,
      "t": 128363.508,
      "d": 357.57540000000154,
      "v": 90
    },
    {
      "midi": 41,
      "hit": false,
      "t": 128727.14399999996,
      "d": 2048.482799999998,
      "v": 81
    },
    {
      "midi": 69,
      "hit": false,
      "t": 128727.144,
      "d": 712.1205000000045,
      "v": 90
    },
    {
      "midi": 57,
      "hit": false,
      "t": 129090.77999999996,
      "d": 1627.2710999999981,
      "v": 65
    },
    {
      "midi": 60,
      "hit": false,
      "t": 129272.59799999995,
      "d": 575.7569999999978,
      "v": 88
    },
    {
      "midi": 65,
      "hit": false,
      "t": 129454.41599999995,
      "d": 184.84829999999783,
      "v": 76
    },
    {
      "midi": 65,
      "hit": false,
      "t": 129454.41600000001,
      "d": 357.57540000000154,
      "v": 90
    },
    {
      "midi": 69,
      "hit": false,
      "t": 129636.23399999995,
      "d": 1069.695900000006,
      "v": 92
    },
    {
      "midi": 65,
      "hit": false,
      "t": 129818.05199999995,
      "d": 839.3931000000011,
      "v": 76
    },
    {
      "midi": 60,
      "hit": false,
      "t": 129818.05200000001,
      "d": 2139.3917999999976,
      "v": 90
    },
    {
      "midi": 60,
      "hit": false,
      "t": 130545.32399999995,
      "d": 127.27260000001115,
      "v": 79
    },
    {
      "midi": 41,
      "hit": false,
      "t": 130908.95999999995,
      "d": 1460.604600000006,
      "v": 56
    },
    {
      "midi": 57,
      "hit": false,
      "t": 130908.95999999995,
      "d": 1818.1800000000076,
      "v": 78
    },
    {
      "midi": 60,
      "hit": false,
      "t": 130908.95999999995,
      "d": 1818.1800000000076,
      "v": 78
    },
    {
      "midi": 65,
      "hit": false,
      "t": 130908.95999999995,
      "d": 1818.1800000000076,
      "v": 78
    },
    {
      "midi": 67,
      "hit": false,
      "t": 132363.50400000002,
      "d": 357.57540000000154,
      "v": 90
    },
    {
      "midi": 69,
      "hit": false,
      "t": 132727.13999999996,
      "d": 103.03020000000834,
      "v": 70
    },
    {
      "midi": 65,
      "hit": false,
      "t": 132727.14,
      "d": 357.57540000000154,
      "v": 90
    },
    {
      "midi": 55,
      "hit": false,
      "t": 133090.77599999995,
      "d": 1645.4529000000039,
      "v": 65
    },
    {
      "midi": 60,
      "hit": false,
      "t": 133090.77599999995,
      "d": 1645.4529000000039,
      "v": 65
    },
    {
      "midi": 64,
      "hit": false,
      "t": 133090.77599999995,
      "d": 1645.4529000000039,
      "v": 65
    },
    {
      "midi": 64,
      "hit": false,
      "t": 133090.776,
      "d": 357.57540000000154,
      "v": 90
    },
    {
      "midi": 67,
      "hit": false,
      "t": 133454.412,
      "d": 357.57540000000154,
      "v": 90
    },
    {
      "midi": 65,
      "hit": false,
      "t": 133818.048,
      "d": 357.57540000000154,
      "v": 90
    },
    {
      "midi": 64,
      "hit": false,
      "t": 134181.684,
      "d": 357.57540000000154,
      "v": 90
    },
    {
      "midi": 67,
      "hit": false,
      "t": 134545.32,
      "d": 357.57540000000154,
      "v": 90
    },
    {
      "midi": 55,
      "hit": false,
      "t": 134908.95599999995,
      "d": 142.42410000000382,
      "v": 54
    },
    {
      "midi": 60,
      "hit": false,
      "t": 134908.95599999995,
      "d": 142.42410000000382,
      "v": 54
    },
    {
      "midi": 64,
      "hit": false,
      "t": 134908.95599999995,
      "d": 142.42410000000382,
      "v": 54
    },
    {
      "midi": 65,
      "hit": false,
      "t": 134908.956,
      "d": 357.57540000000154,
      "v": 90
    },
    {
      "midi": 36,
      "hit": false,
      "t": 135272.59199999995,
      "d": 2057.573700000008,
      "v": 81
    },
    {
      "midi": 64,
      "hit": false,
      "t": 135272.592,
      "d": 357.57540000000154,
      "v": 90
    },
    {
      "midi": 48,
      "hit": false,
      "t": 135454.40999999995,
      "d": 1866.6647999999986,
      "v": 78
    },
    {
      "midi": 55,
      "hit": false,
      "t": 135636.22799999994,
      "d": 1627.2711000000127,
      "v": 65
    },
    {
      "midi": 60,
      "hit": false,
      "t": 135636.228,
      "d": 357.57540000000154,
      "v": 90
    },
    {
      "midi": 60,
      "hit": false,
      "t": 135818.04599999994,
      "d": 575.7570000000123,
      "v": 88
    },
    {
      "midi": 64,
      "hit": false,
      "t": 135999.86399999994,
      "d": 184.8483000000124,
      "v": 76
    },
    {
      "midi": 62,
      "hit": false,
      "t": 135999.864,
      "d": 357.57540000000154,
      "v": 90
    },
    {
      "midi": 67,
      "hit": false,
      "t": 136181.68199999994,
      "d": 1069.6959000000206,
      "v": 92
    },
    {
      "midi": 64,
      "hit": false,
      "t": 136363.49999999994,
      "d": 839.3931000000157,
      "v": 76
    },
    {
      "midi": 64,
      "hit": false,
      "t": 136363.5,
      "d": 357.57540000000154,
      "v": 90
    },
    {
      "midi": 65,
      "hit": false,
      "t": 136727.136,
      "d": 357.57540000000154,
      "v": 90
    },
    {
      "midi": 60,
      "hit": false,
      "t": 137090.77199999997,
      "d": 127.2725999999966,
      "v": 79
    },
    {
      "midi": 67,
      "hit": false,
      "t": 137090.772,
      "d": 357.57540000000154,
      "v": 90
    },
    {
      "midi": 57,
      "hit": false,
      "t": 137454.40799999997,
      "d": 1645.4529000000039,
      "v": 65
    },
    {
      "midi": 60,
      "hit": false,
      "t": 137454.40799999997,
      "d": 1645.4529000000039,
      "v": 65
    },
    {
      "midi": 65,
      "hit": false,
      "t": 137454.40799999997,
      "d": 1645.4529000000039,
      "v": 65
    },
    {
      "midi": 69,
      "hit": false,
      "t": 137454.408,
      "d": 712.12049999999,
      "v": 90
    },
    {
      "midi": 67,
      "hit": false,
      "t": 138181.68,
      "d": 357.57540000000154,
      "v": 90
    },
    {
      "midi": 65,
      "hit": false,
      "t": 138545.316,
      "d": 721.2114000000001,
      "v": 90
    },
    {
      "midi": 57,
      "hit": false,
      "t": 139272.58799999996,
      "d": 142.42410000000382,
      "v": 54
    },
    {
      "midi": 60,
      "hit": false,
      "t": 139272.58799999996,
      "d": 142.42410000000382,
      "v": 54
    },
    {
      "midi": 65,
      "hit": false,
      "t": 139272.58799999996,
      "d": 142.42410000000382,
      "v": 54
    },
    {
      "midi": 60,
      "hit": false,
      "t": 139272.588,
      "d": 357.57540000000154,
      "v": 90
    },
    {
      "midi": 56,
      "hit": false,
      "t": 139636.22399999996,
      "d": 475.757099999988,
      "v": 60
    },
    {
      "midi": 61,
      "hit": false,
      "t": 139636.22399999996,
      "d": 490.9085999999952,
      "v": 67
    },
    {
      "midi": 65,
      "hit": false,
      "t": 139636.22399999996,
      "d": 506.0601000000024,
      "v": 72
    },
    {
      "midi": 68,
      "hit": false,
      "t": 139636.22399999996,
      "d": 557.575199999992,
      "v": 70
    },
    {
      "midi": 37,
      "hit": false,
      "t": 139636.22399999996,
      "d": 924.2415000000037,
      "v": 66
    },
    {
      "midi": 61,
      "hit": false,
      "t": 139636.224,
      "d": 357.57540000000154,
      "v": 90
    },
    {
      "midi": 49,
      "hit": false,
      "t": 139999.85999999996,
      "d": 560.6055000000051,
      "v": 35
    },
    {
      "midi": 60,
      "hit": false,
      "t": 139999.86,
      "d": 1069.6958999999915,
      "v": 90
    },
    {
      "midi": 61,
      "hit": false,
      "t": 140363.49599999996,
      "d": 181.8179999999993,
      "v": 73
    },
    {
      "midi": 65,
      "hit": false,
      "t": 140363.49599999996,
      "d": 181.8179999999993,
      "v": 65
    },
    {
      "midi": 56,
      "hit": false,
      "t": 140363.49599999996,
      "d": 196.96950000000652,
      "v": 64
    },
    {
      "midi": 58,
      "hit": false,
      "t": 140727.13199999995,
      "d": 642.4236000000092,
      "v": 72
    },
    {
      "midi": 60,
      "hit": false,
      "t": 140727.13199999995,
      "d": 642.4236000000092,
      "v": 72
    },
    {
      "midi": 64,
      "hit": false,
      "t": 140727.13199999995,
      "d": 642.4236000000092,
      "v": 72
    },
    {
      "midi": 67,
      "hit": false,
      "t": 140727.13199999995,
      "d": 642.4236000000092,
      "v": 72
    },
    {
      "midi": 36,
      "hit": false,
      "t": 140727.13199999995,
      "d": 769.6962000000058,
      "v": 54
    },
    {
      "midi": 60,
      "hit": false,
      "t": 141090.76799999998,
      "d": 357.57540000000154,
      "v": 90
    },
    {
      "midi": 48,
      "hit": false,
      "t": 141454.40399999995,
      "d": 42.42420000000857,
      "v": 62
    },
    {
      "midi": 58,
      "hit": false,
      "t": 141454.40399999995,
      "d": 66.66659999999683,
      "v": 75
    },
    {
      "midi": 60,
      "hit": false,
      "t": 141454.40399999995,
      "d": 66.66659999999683,
      "v": 75
    },
    {
      "midi": 64,
      "hit": false,
      "t": 141454.40399999995,
      "d": 66.66659999999683,
      "v": 75
    },
    {
      "midi": 67,
      "hit": false,
      "t": 141454.40399999995,
      "d": 66.66659999999683,
      "v": 75
    },
    {
      "midi": 60,
      "hit": false,
      "t": 141454.40399999998,
      "d": 357.57540000000154,
      "v": 90
    },
    {
      "midi": 41,
      "hit": false,
      "t": 141818.03999999995,
      "d": 1090.9079999999958,
      "v": 72
    },
    {
      "midi": 60,
      "hit": false,
      "t": 141818.03999999998,
      "d": 357.57540000000154,
      "v": 90
    },
    {
      "midi": 57,
      "hit": false,
      "t": 142181.67599999995,
      "d": 654.5448000000033,
      "v": 67
    },
    {
      "midi": 65,
      "hit": false,
      "t": 142181.67599999998,
      "d": 1781.8164000000106,
      "v": 90
    },
    {
      "midi": 60,
      "hit": false,
      "t": 142363.49399999995,
      "d": 466.66620000000694,
      "v": 83
    },
    {
      "midi": 65,
      "hit": false,
      "t": 142545.31199999995,
      "d": 212.12100000001374,
      "v": 69
    },
    {
      "midi": 69,
      "hit": false,
      "t": 142727.12999999995,
      "d": 109.0908000000054,
      "v": 72
    },
    {
      "midi": 57,
      "hit": false,
      "t": 142908.94799999995,
      "d": 739.3931999999913,
      "v": 57
    },
    {
      "midi": 60,
      "hit": false,
      "t": 142908.94799999995,
      "d": 960.6050999999861,
      "v": 73
    },
    {
      "midi": 41,
      "hit": false,
      "t": 142908.94799999995,
      "d": 999.9989999999816,
      "v": 57
    },
    {
      "midi": 65,
      "hit": false,
      "t": 142908.94799999995,
      "d": 1078.7867999999726,
      "v": 72
    },
    {
      "midi": 69,
      "hit": false,
      "t": 142908.94799999995,
      "d": 1090.9079999999667,
      "v": 68
    },
    {
      "midi": 57,
      "hit": false,
      "t": 143818.03799999994,
      "d": 169.69679999997607,
      "v": 67
    },
    {
      "midi": 57,
      "hit": false,
      "t": 143999.8559999999,
      "d": 942.4232999999949,
      "v": 70
    },
    {
      "midi": 60,
      "hit": false,
      "t": 143999.8559999999,
      "d": 942.4232999999949,
      "v": 70
    },
    {
      "midi": 65,
      "hit": false,
      "t": 143999.8559999999,
      "d": 942.4232999999949,
      "v": 70
    },
    {
      "midi": 57,
      "hit": false,
      "t": 145090.7639999999,
      "d": 93.93929999999818,
      "v": 66
    },
    {
      "midi": 60,
      "hit": false,
      "t": 145090.7639999999,
      "d": 93.93929999999818,
      "v": 66
    },
    {
      "midi": 65,
      "hit": false,
      "t": 145090.7639999999,
      "d": 93.93929999999818,
      "v": 66
    }
  ]
}