{
  "jsonPath": "Rock/Country Rock/Travis Tritt/its-all-about-to-change.json",
  "path": "Rock\\Country Rock\\Travis Tritt\\Its All About To Change.mid",
  "name": "Its All About To Change",
  "difficulty": "Advanced",
  "bpm": 110.00011000011,
  "notes": [
    {
      "midi": 72,
      "hit": false,
      "t": 4090.905,
      "d": 109.0908000000004,
      "v": 92
    },
    {
      "midi": 71,
      "hit": false,
      "t": 4227.268500000001,
      "d": 109.09079999999994,
      "v": 85
    },
    {
      "midi": 69,
      "hit": false,
      "t": 4363.632000000001,
      "d": 1309.0896000000002,
      "v": 101
    },
    {
      "midi": 60,
      "hit": false,
      "t": 4363.632000000001,
      "d": 1613.6347500000002,
      "v": 95
    },
    {
      "midi": 65,
      "hit": false,
      "t": 5999.9940000000015,
      "d": 290.90880000000016,
      "v": 102
    },
    {
      "midi": 69,
      "hit": false,
      "t": 5999.9940000000015,
      "d": 290.90880000000016,
      "v": 96
    },
    {
      "midi": 67,
      "hit": false,
      "t": 6363.630000000002,
      "d": 145.45439999999962,
      "v": 75
    },
    {
      "midi": 70,
      "hit": false,
      "t": 6363.630000000002,
      "d": 145.45439999999962,
      "v": 88
    },
    {
      "midi": 69,
      "hit": false,
      "t": 6545.448000000001,
      "d": 290.90880000000016,
      "v": 87
    },
    {
      "midi": 72,
      "hit": false,
      "t": 6545.448000000001,
      "d": 290.90880000000016,
      "v": 90
    },
    {
      "midi": 60,
      "hit": false,
      "t": 6545.448000000001,
      "d": 1613.6347499999993,
      "v": 94
    },
    {
      "midi": 67,
      "hit": false,
      "t": 6909.084000000002,
      "d": 145.45439999999962,
      "v": 98
    },
    {
      "midi": 70,
      "hit": false,
      "t": 6909.084000000002,
      "d": 145.45439999999962,
      "v": 90
    },
    {
      "midi": 65,
      "hit": false,
      "t": 7090.902000000001,
      "d": 290.90880000000016,
      "v": 88
    },
    {
      "midi": 69,
      "hit": false,
      "t": 7090.902000000001,
      "d": 290.90880000000016,
      "v": 86
    },
    {
      "midi": 67,
      "hit": false,
      "t": 7454.538000000001,
      "d": 145.45439999999962,
      "v": 102
    },
    {
      "midi": 70,
      "hit": false,
      "t": 7454.538000000001,
      "d": 145.45439999999962,
      "v": 94
    },
    {
      "midi": 65,
      "hit": false,
      "t": 7636.356000000001,
      "d": 436.3631999999998,
      "v": 86
    },
    {
      "midi": 69,
      "hit": false,
      "t": 7636.356000000001,
      "d": 436.3631999999998,
      "v": 83
    },
    {
      "midi": 67,
      "hit": false,
      "t": 8181.81,
      "d": 218.1816000000008,
      "v": 93
    },
    {
      "midi": 69,
      "hit": false,
      "t": 8454.537000000002,
      "d": 72.72719999999936,
      "v": 75
    },
    {
      "midi": 67,
      "hit": false,
      "t": 8590.900500000002,
      "d": 109.09079999999994,
      "v": 91
    },
    {
      "midi": 65,
      "hit": false,
      "t": 8727.264000000001,
      "d": 1309.0895999999993,
      "v": 90
    },
    {
      "midi": 57,
      "hit": false,
      "t": 8727.264000000001,
      "d": 1613.6347499999993,
      "v": 103
    },
    {
      "midi": 62,
      "hit": false,
      "t": 10363.626,
      "d": 290.90879999999925,
      "v": 90
    },
    {
      "midi": 65,
      "hit": false,
      "t": 10363.626,
      "d": 290.90879999999925,
      "v": 87
    },
    {
      "midi": 64,
      "hit": false,
      "t": 10727.261999999999,
      "d": 145.45440000000053,
      "v": 89
    },
    {
      "midi": 67,
      "hit": false,
      "t": 10727.261999999999,
      "d": 145.45440000000053,
      "v": 90
    },
    {
      "midi": 65,
      "hit": false,
      "t": 10909.08,
      "d": 290.90879999999925,
      "v": 96
    },
    {
      "midi": 69,
      "hit": false,
      "t": 10909.08,
      "d": 290.90879999999925,
      "v": 94
    },
    {
      "midi": 57,
      "hit": false,
      "t": 10909.08,
      "d": 1613.6347499999993,
      "v": 79
    },
    {
      "midi": 64,
      "hit": false,
      "t": 11272.715999999999,
      "d": 145.45440000000053,
      "v": 104
    },
    {
      "midi": 67,
      "hit": false,
      "t": 11272.715999999999,
      "d": 145.45440000000053,
      "v": 91
    },
    {
      "midi": 62,
      "hit": false,
      "t": 11454.534,
      "d": 290.90879999999925,
      "v": 101
    },
    {
      "midi": 65,
      "hit": false,
      "t": 11454.534,
      "d": 290.90879999999925,
      "v": 101
    },
    {
      "midi": 60,
      "hit": false,
      "t": 11818.169999999998,
      "d": 145.45440000000053,
      "v": 97
    },
    {
      "midi": 64,
      "hit": false,
      "t": 11818.169999999998,
      "d": 145.45440000000053,
      "v": 85
    },
    {
      "midi": 62,
      "hit": false,
      "t": 11999.988,
      "d": 436.3631999999998,
      "v": 86
    },
    {
      "midi": 65,
      "hit": false,
      "t": 11999.988,
      "d": 436.3631999999998,
      "v": 99
    },
    {
      "midi": 60,
      "hit": false,
      "t": 12545.442,
      "d": 436.3631999999998,
      "v": 89
    },
    {
      "midi": 64,
      "hit": false,
      "t": 12545.442,
      "d": 436.3631999999998,
      "v": 79
    },
    {
      "midi": 62,
      "hit": false,
      "t": 13090.895999999999,
      "d": 1745.452800000001,
      "v": 80
    },
    {
      "midi": 65,
      "hit": false,
      "t": 13090.895999999999,
      "d": 1745.452800000001,
      "v": 99
    },
    {
      "midi": 72,
      "hit": false,
      "t": 13090.895999999999,
      "d": 1745.452800000001,
      "v": 90
    },
    {
      "midi": 60,
      "hit": false,
      "t": 15272.712,
      "d": 522.7267499999998,
      "v": 90
    },
    {
      "midi": 62,
      "hit": false,
      "t": 15272.712,
      "d": 522.7267499999998,
      "v": 90
    },
    {
      "midi": 65,
      "hit": false,
      "t": 15272.712,
      "d": 522.7267499999998,
      "v": 103
    },
    {
      "midi": 70,
      "hit": false,
      "t": 15272.712,
      "d": 522.7267499999998,
      "v": 80
    },
    {
      "midi": 60,
      "hit": false,
      "t": 17272.71,
      "d": 2327.2704000000012,
      "v": 103
    },
    {
      "midi": 65,
      "hit": false,
      "t": 17272.71,
      "d": 2327.2704000000012,
      "v": 99
    },
    {
      "midi": 69,
      "hit": false,
      "t": 17272.71,
      "d": 2327.2704000000012,
      "v": 88
    },
    {
      "midi": 72,
      "hit": false,
      "t": 17272.71,
      "d": 2327.2704000000012,
      "v": 83
    },
    {
      "midi": 58,
      "hit": false,
      "t": 19636.344,
      "d": 872.7263999999996,
      "v": 96
    },
    {
      "midi": 62,
      "hit": false,
      "t": 19636.344,
      "d": 872.7263999999996,
      "v": 99
    },
    {
      "midi": 58,
      "hit": false,
      "t": 20727.252,
      "d": 727.2720000000008,
      "v": 98
    },
    {
      "midi": 62,
      "hit": false,
      "t": 20727.252,
      "d": 727.2720000000008,
      "v": 81
    },
    {
      "midi": 57,
      "hit": false,
      "t": 21636.342,
      "d": 2872.724399999999,
      "v": 90
    },
    {
      "midi": 60,
      "hit": false,
      "t": 21636.342,
      "d": 2872.724399999999,
      "v": 91
    },
    {
      "midi": 57,
      "hit": false,
      "t": 24909.066,
      "d": 704.5447500000009,
      "v": 83
    },
    {
      "midi": 60,
      "hit": false,
      "t": 24909.066,
      "d": 704.5447500000009,
      "v": 86
    },
    {
      "midi": 65,
      "hit": false,
      "t": 24909.066,
      "d": 704.5447500000009,
      "v": 90
    },
    {
      "midi": 60,
      "hit": false,
      "t": 25999.974,
      "d": 2327.2704000000012,
      "v": 96
    },
    {
      "midi": 64,
      "hit": false,
      "t": 25999.974,
      "d": 2327.2704000000012,
      "v": 83
    },
    {
      "midi": 69,
      "hit": false,
      "t": 25999.974,
      "d": 2327.2704000000012,
      "v": 92
    },
    {
      "midi": 72,
      "hit": false,
      "t": 25999.974,
      "d": 2327.2704000000012,
      "v": 90
    },
    {
      "midi": 57,
      "hit": false,
      "t": 28727.244,
      "d": 436.3631999999998,
      "v": 87
    },
    {
      "midi": 62,
      "hit": false,
      "t": 28727.244,
      "d": 436.3631999999998,
      "v": 88
    },
    {
      "midi": 65,
      "hit": false,
      "t": 28727.244,
      "d": 436.3631999999998,
      "v": 90
    },
    {
      "midi": 69,
      "hit": false,
      "t": 28727.244,
      "d": 436.3631999999998,
      "v": 91
    },
    {
      "midi": 57,
      "hit": false,
      "t": 29272.698,
      "d": 522.7267500000016,
      "v": 82
    },
    {
      "midi": 62,
      "hit": false,
      "t": 29272.698,
      "d": 522.7267500000016,
      "v": 90
    },
    {
      "midi": 65,
      "hit": false,
      "t": 29272.698,
      "d": 522.7267500000016,
      "v": 87
    },
    {
      "midi": 55,
      "hit": false,
      "t": 30363.606000000003,
      "d": 2327.2704000000012,
      "v": 90
    },
    {
      "midi": 58,
      "hit": false,
      "t": 30363.606000000003,
      "d": 2327.2704000000012,
      "v": 85
    },
    {
      "midi": 62,
      "hit": false,
      "t": 30363.606000000003,
      "d": 2327.2704000000012,
      "v": 82
    },
    {
      "midi": 67,
      "hit": false,
      "t": 30363.606000000003,
      "d": 2327.2704000000012,
      "v": 84
    },
    {
      "midi": 55,
      "hit": false,
      "t": 32727.240000000005,
      "d": 886.3627500000002,
      "v": 90
    },
    {
      "midi": 58,
      "hit": false,
      "t": 32727.240000000005,
      "d": 886.3627500000002,
      "v": 89
    },
    {
      "midi": 64,
      "hit": false,
      "t": 32727.240000000005,
      "d": 886.3627500000002,
      "v": 101
    },
    {
      "midi": 60,
      "hit": false,
      "t": 34727.23800000001,
      "d": 2327.2704000000012,
      "v": 101
    },
    {
      "midi": 65,
      "hit": false,
      "t": 34727.23800000001,
      "d": 2327.2704000000012,
      "v": 85
    },
    {
      "midi": 72,
      "hit": false,
      "t": 34727.23800000001,
      "d": 2327.2704000000012,
      "v": 85
    },
    {
      "midi": 58,
      "hit": false,
      "t": 37090.87200000001,
      "d": 872.7263999999996,
      "v": 94
    },
    {
      "midi": 62,
      "hit": false,
      "t": 37090.87200000001,
      "d": 872.7263999999996,
      "v": 99
    },
    {
      "midi": 58,
      "hit": false,
      "t": 38181.78000000001,
      "d": 436.3631999999998,
      "v": 84
    },
    {
      "midi": 62,
      "hit": false,
      "t": 38181.78000000001,
      "d": 436.3631999999998,
      "v": 95
    },
    {
      "midi": 60,
      "hit": false,
      "t": 38727.23400000001,
      "d": 436.3631999999998,
      "v": 91
    },
    {
      "midi": 57,
      "hit": false,
      "t": 39272.68800000001,
      "d": 872.7263999999996,
      "v": 103
    },
    {
      "midi": 65,
      "hit": false,
      "t": 39272.68800000001,
      "d": 872.7263999999996,
      "v": 87
    },
    {
      "midi": 57,
      "hit": false,
      "t": 40363.59600000001,
      "d": 872.7263999999996,
      "v": 80
    },
    {
      "midi": 65,
      "hit": false,
      "t": 40363.59600000001,
      "d": 872.7263999999996,
      "v": 90
    },
    {
      "midi": 57,
      "hit": false,
      "t": 41454.504000000015,
      "d": 1745.4527999999991,
      "v": 85
    },
    {
      "midi": 60,
      "hit": false,
      "t": 41454.504000000015,
      "d": 1745.4527999999991,
      "v": 97
    },
    {
      "midi": 53,
      "hit": false,
      "t": 43636.320000000014,
      "d": 727.2719999999972,
      "v": 86
    },
    {
      "midi": 58,
      "hit": false,
      "t": 43636.320000000014,
      "d": 727.2719999999972,
      "v": 85
    },
    {
      "midi": 62,
      "hit": false,
      "t": 43636.320000000014,
      "d": 727.2719999999972,
      "v": 78
    },
    {
      "midi": 53,
      "hit": false,
      "t": 44545.41000000001,
      "d": 872.7263999999996,
      "v": 91
    },
    {
      "midi": 58,
      "hit": false,
      "t": 44545.41000000001,
      "d": 872.7263999999996,
      "v": 81
    },
    {
      "midi": 62,
      "hit": false,
      "t": 44545.41000000001,
      "d": 872.7263999999996,
      "v": 89
    },
    {
      "midi": 67,
      "hit": false,
      "t": 44545.41000000001,
      "d": 872.7263999999996,
      "v": 90
    },
    {
      "midi": 53,
      "hit": false,
      "t": 45636.318000000014,
      "d": 522.7267500000016,
      "v": 90
    },
    {
      "midi": 58,
      "hit": false,
      "t": 45636.318000000014,
      "d": 522.7267500000016,
      "v": 95
    },
    {
      "midi": 62,
      "hit": false,
      "t": 45636.318000000014,
      "d": 522.7267500000016,
      "v": 90
    },
    {
      "midi": 65,
      "hit": false,
      "t": 45636.318000000014,
      "d": 522.7267500000016,
      "v": 93
    },
    {
      "midi": 58,
      "hit": false,
      "t": 46909.044000000016,
      "d": 522.7267500000016,
      "v": 89
    },
    {
      "midi": 62,
      "hit": false,
      "t": 46909.044000000016,
      "d": 522.7267500000016,
      "v": 90
    },
    {
      "midi": 65,
      "hit": false,
      "t": 46909.044000000016,
      "d": 522.7267500000016,
      "v": 89
    },
    {
      "midi": 69,
      "hit": false,
      "t": 46909.044000000016,
      "d": 522.7267500000016,
      "v": 80
    },
    {
      "midi": 53,
      "hit": false,
      "t": 47818.13400000002,
      "d": 1454.5440000000017,
      "v": 92
    },
    {
      "midi": 57,
      "hit": false,
      "t": 47818.13400000002,
      "d": 1454.5440000000017,
      "v": 92
    },
    {
      "midi": 60,
      "hit": false,
      "t": 47818.13400000002,
      "d": 1454.5440000000017,
      "v": 84
    },
    {
      "midi": 65,
      "hit": false,
      "t": 47818.13400000002,
      "d": 1454.5440000000017,
      "v": 81
    },
    {
      "midi": 53,
      "hit": false,
      "t": 49636.31400000002,
      "d": 290.9087999999974,
      "v": 100
    },
    {
      "midi": 58,
      "hit": false,
      "t": 49636.31400000002,
      "d": 290.9087999999974,
      "v": 95
    },
    {
      "midi": 62,
      "hit": false,
      "t": 49636.31400000002,
      "d": 290.9087999999974,
      "v": 85
    },
    {
      "midi": 65,
      "hit": false,
      "t": 49636.31400000002,
      "d": 290.9087999999974,
      "v": 89
    },
    {
      "midi": 53,
      "hit": false,
      "t": 49999.95000000002,
      "d": 145.45440000000235,
      "v": 89
    },
    {
      "midi": 58,
      "hit": false,
      "t": 49999.95000000002,
      "d": 145.45440000000235,
      "v": 83
    },
    {
      "midi": 62,
      "hit": false,
      "t": 49999.95000000002,
      "d": 145.45440000000235,
      "v": 90
    },
    {
      "midi": 65,
      "hit": false,
      "t": 49999.95000000002,
      "d": 145.45440000000235,
      "v": 88
    },
    {
      "midi": 53,
      "hit": false,
      "t": 50181.76800000002,
      "d": 436.3631999999998,
      "v": 87
    },
    {
      "midi": 57,
      "hit": false,
      "t": 50181.76800000002,
      "d": 436.3631999999998,
      "v": 90
    },
    {
      "midi": 60,
      "hit": false,
      "t": 50181.76800000002,
      "d": 436.3631999999998,
      "v": 90
    },
    {
      "midi": 65,
      "hit": false,
      "t": 50181.76800000002,
      "d": 436.3631999999998,
      "v": 88
    },
    {
      "midi": 57,
      "hit": false,
      "t": 50727.222000000016,
      "d": 436.3631999999998,
      "v": 83
    },
    {
      "midi": 65,
      "hit": false,
      "t": 50727.222000000016,
      "d": 436.3631999999998,
      "v": 77
    },
    {
      "midi": 58,
      "hit": false,
      "t": 51272.676000000014,
      "d": 436.3631999999998,
      "v": 90
    },
    {
      "midi": 65,
      "hit": false,
      "t": 51272.676000000014,
      "d": 436.3631999999998,
      "v": 90
    },
    {
      "midi": 69,
      "hit": false,
      "t": 51272.676000000014,
      "d": 436.3631999999998,
      "v": 84
    },
    {
      "midi": 60,
      "hit": false,
      "t": 51818.13000000001,
      "d": 290.9087999999974,
      "v": 85
    },
    {
      "midi": 63,
      "hit": false,
      "t": 51818.13000000001,
      "d": 290.9087999999974,
      "v": 96
    },
    {
      "midi": 65,
      "hit": false,
      "t": 51818.13000000001,
      "d": 290.9087999999974,
      "v": 86
    },
    {
      "midi": 72,
      "hit": false,
      "t": 51818.13000000001,
      "d": 290.9087999999974,
      "v": 90
    },
    {
      "midi": 70,
      "hit": false,
      "t": 52181.76600000001,
      "d": 145.45440000000235,
      "v": 92
    },
    {
      "midi": 62,
      "hit": false,
      "t": 52363.58400000001,
      "d": 872.7263999999996,
      "v": 93
    },
    {
      "midi": 65,
      "hit": false,
      "t": 52363.58400000001,
      "d": 872.7263999999996,
      "v": 100
    },
    {
      "midi": 70,
      "hit": false,
      "t": 52363.58400000001,
      "d": 872.7263999999996,
      "v": 85
    },
    {
      "midi": 74,
      "hit": false,
      "t": 52363.58400000001,
      "d": 872.7263999999996,
      "v": 94
    },
    {
      "midi": 62,
      "hit": false,
      "t": 53454.49200000001,
      "d": 727.2719999999972,
      "v": 89
    },
    {
      "midi": 66,
      "hit": false,
      "t": 53454.49200000001,
      "d": 727.2719999999972,
      "v": 75
    },
    {
      "midi": 70,
      "hit": false,
      "t": 53454.49200000001,
      "d": 727.2719999999972,
      "v": 96
    },
    {
      "midi": 74,
      "hit": false,
      "t": 53454.49200000001,
      "d": 727.2719999999972,
      "v": 92
    },
    {
      "midi": 72,
      "hit": false,
      "t": 54363.58200000001,
      "d": 145.45440000000235,
      "v": 76
    },
    {
      "midi": 62,
      "hit": false,
      "t": 54545.40000000001,
      "d": 872.7263999999996,
      "v": 76
    },
    {
      "midi": 67,
      "hit": false,
      "t": 54545.40000000001,
      "d": 872.7263999999996,
      "v": 87
    },
    {
      "midi": 62,
      "hit": false,
      "t": 55636.30800000001,
      "d": 727.2719999999972,
      "v": 89
    },
    {
      "midi": 65,
      "hit": false,
      "t": 55636.30800000001,
      "d": 727.2719999999972,
      "v": 98
    },
    {
      "midi": 70,
      "hit": false,
      "t": 55636.30800000001,
      "d": 727.2719999999972,
      "v": 87
    },
    {
      "midi": 60,
      "hit": false,
      "t": 56545.39800000001,
      "d": 2872.724399999999,
      "v": 86
    },
    {
      "midi": 65,
      "hit": false,
      "t": 56545.39800000001,
      "d": 2872.724399999999,
      "v": 79
    },
    {
      "midi": 69,
      "hit": false,
      "t": 56545.39800000001,
      "d": 2872.724399999999,
      "v": 89
    },
    {
      "midi": 65,
      "hit": false,
      "t": 59454.486000000004,
      "d": 290.9087999999974,
      "v": 90
    },
    {
      "midi": 69,
      "hit": false,
      "t": 59454.486000000004,
      "d": 290.9087999999974,
      "v": 84
    },
    {
      "midi": 60,
      "hit": false,
      "t": 59818.122,
      "d": 145.45440000000235,
      "v": 81
    },
    {
      "midi": 65,
      "hit": false,
      "t": 59999.94,
      "d": 436.3631999999998,
      "v": 91
    },
    {
      "midi": 69,
      "hit": false,
      "t": 59999.94,
      "d": 436.3631999999998,
      "v": 99
    },
    {
      "midi": 55,
      "hit": false,
      "t": 60545.394,
      "d": 290.9087999999974,
      "v": 97
    },
    {
      "midi": 60,
      "hit": false,
      "t": 60545.394,
      "d": 290.9087999999974,
      "v": 90
    },
    {
      "midi": 67,
      "hit": false,
      "t": 60909.03,
      "d": 145.45440000000235,
      "v": 91
    },
    {
      "midi": 57,
      "hit": false,
      "t": 61090.848,
      "d": 436.3631999999998,
      "v": 88
    },
    {
      "midi": 60,
      "hit": false,
      "t": 61090.848,
      "d": 436.3631999999998,
      "v": 80
    },
    {
      "midi": 65,
      "hit": false,
      "t": 61090.848,
      "d": 436.3631999999998,
      "v": 88
    },
    {
      "midi": 69,
      "hit": false,
      "t": 61090.848,
      "d": 436.3631999999998,
      "v": 88
    },
    {
      "midi": 69,
      "hit": false,
      "t": 61636.301999999996,
      "d": 436.3631999999998,
      "v": 90
    },
    {
      "midi": 57,
      "hit": false,
      "t": 62181.755999999994,
      "d": 727.2719999999972,
      "v": 93
    },
    {
      "midi": 60,
      "hit": false,
      "t": 62181.755999999994,
      "d": 727.2719999999972,
      "v": 91
    },
    {
      "midi": 65,
      "hit": false,
      "t": 62181.755999999994,
      "d": 727.2719999999972,
      "v": 81
    },
    {
      "midi": 69,
      "hit": false,
      "t": 62181.755999999994,
      "d": 727.2719999999972,
      "v": 87
    },
    {
      "midi": 67,
      "hit": false,
      "t": 63090.84599999999,
      "d": 145.45440000000235,
      "v": 90
    },
    {
      "midi": 59,
      "hit": false,
      "t": 63272.66399999999,
      "d": 872.7263999999996,
      "v": 84
    },
    {
      "midi": 62,
      "hit": false,
      "t": 63272.66399999999,
      "d": 872.7263999999996,
      "v": 89
    },
    {
      "midi": 59,
      "hit": false,
      "t": 64363.57199999999,
      "d": 727.2719999999972,
      "v": 90
    },
    {
      "midi": 62,
      "hit": false,
      "t": 64363.57199999999,
      "d": 727.2719999999972,
      "v": 84
    },
    {
      "midi": 67,
      "hit": false,
      "t": 64363.57199999999,
      "d": 727.2719999999972,
      "v": 80
    },
    {
      "midi": 58,
      "hit": false,
      "t": 65272.66199999999,
      "d": 2299.9977,
      "v": 86
    },
    {
      "midi": 62,
      "hit": false,
      "t": 65272.66199999999,
      "d": 2299.9977,
      "v": 85
    },
    {
      "midi": 67,
      "hit": false,
      "t": 65272.66199999999,
      "d": 2299.9977,
      "v": 98
    },
    {
      "midi": 60,
      "hit": false,
      "t": 67636.29599999999,
      "d": 727.2719999999972,
      "v": 93
    },
    {
      "midi": 64,
      "hit": false,
      "t": 67636.29599999999,
      "d": 727.2719999999972,
      "v": 104
    },
    {
      "midi": 60,
      "hit": false,
      "t": 68545.38599999998,
      "d": 145.45440000000235,
      "v": 99
    },
    {
      "midi": 60,
      "hit": false,
      "t": 68727.20399999998,
      "d": 290.9088000000047,
      "v": 89
    },
    {
      "midi": 65,
      "hit": false,
      "t": 68727.20399999998,
      "d": 290.9088000000047,
      "v": 80
    },
    {
      "midi": 69,
      "hit": false,
      "t": 68727.20399999998,
      "d": 290.9088000000047,
      "v": 90
    },
    {
      "midi": 72,
      "hit": false,
      "t": 69090.83999999998,
      "d": 145.45440000000235,
      "v": 76
    },
    {
      "midi": 60,
      "hit": false,
      "t": 69272.65799999998,
      "d": 290.9088000000047,
      "v": 100
    },
    {
      "midi": 67,
      "hit": false,
      "t": 69272.65799999998,
      "d": 290.9088000000047,
      "v": 88
    },
    {
      "midi": 69,
      "hit": false,
      "t": 69272.65799999998,
      "d": 290.9088000000047,
      "v": 101
    },
    {
      "midi": 60,
      "hit": false,
      "t": 69636.29399999998,
      "d": 436.36320000000705,
      "v": 77
    },
    {
      "midi": 65,
      "hit": false,
      "t": 69636.29399999998,
      "d": 436.36320000000705,
      "v": 89
    },
    {
      "midi": 69,
      "hit": false,
      "t": 69636.29399999998,
      "d": 436.36320000000705,
      "v": 92
    },
    {
      "midi": 74,
      "hit": false,
      "t": 69636.29399999998,
      "d": 436.36320000000705,
      "v": 88
    },
    {
      "midi": 72,
      "hit": false,
      "t": 70181.74799999999,
      "d": 145.45440000000235,
      "v": 96
    },
    {
      "midi": 69,
      "hit": false,
      "t": 70363.56599999999,
      "d": 290.9088000000047,
      "v": 90
    },
    {
      "midi": 60,
      "hit": false,
      "t": 70727.20199999999,
      "d": 436.36320000000705,
      "v": 78
    },
    {
      "midi": 65,
      "hit": false,
      "t": 70727.20199999999,
      "d": 436.36320000000705,
      "v": 92
    },
    {
      "midi": 69,
      "hit": false,
      "t": 70727.20199999999,
      "d": 436.36320000000705,
      "v": 105
    },
    {
      "midi": 72,
      "hit": false,
      "t": 70727.20199999999,
      "d": 436.36320000000705,
      "v": 87
    },
    {
      "midi": 60,
      "hit": false,
      "t": 71272.656,
      "d": 436.36320000000705,
      "v": 94
    },
    {
      "midi": 65,
      "hit": false,
      "t": 71272.656,
      "d": 436.36320000000705,
      "v": 88
    },
    {
      "midi": 69,
      "hit": false,
      "t": 71272.656,
      "d": 436.36320000000705,
      "v": 89
    },
    {
      "midi": 58,
      "hit": false,
      "t": 71818.11000000002,
      "d": 436.36320000000705,
      "v": 87
    },
    {
      "midi": 62,
      "hit": false,
      "t": 71818.11000000002,
      "d": 436.36320000000705,
      "v": 90
    },
    {
      "midi": 67,
      "hit": false,
      "t": 71818.11000000002,
      "d": 436.36320000000705,
      "v": 90
    },
    {
      "midi": 58,
      "hit": false,
      "t": 72363.56400000003,
      "d": 1309.0896000000066,
      "v": 87
    },
    {
      "midi": 62,
      "hit": false,
      "t": 72363.56400000003,
      "d": 1309.0896000000066,
      "v": 104
    },
    {
      "midi": 65,
      "hit": false,
      "t": 72363.56400000003,
      "d": 1309.0896000000066,
      "v": 89
    },
    {
      "midi": 58,
      "hit": false,
      "t": 73999.92600000004,
      "d": 145.45440000000235,
      "v": 87
    },
    {
      "midi": 60,
      "hit": false,
      "t": 74181.74400000004,
      "d": 290.9088000000047,
      "v": 89
    },
    {
      "midi": 65,
      "hit": false,
      "t": 74181.74400000004,
      "d": 290.9088000000047,
      "v": 90
    },
    {
      "midi": 69,
      "hit": false,
      "t": 74181.74400000004,
      "d": 290.9088000000047,
      "v": 88
    },
    {
      "midi": 72,
      "hit": false,
      "t": 74545.38000000003,
      "d": 436.36320000000705,
      "v": 96
    },
    {
      "midi": 60,
      "hit": false,
      "t": 75090.83400000005,
      "d": 581.8175999999949,
      "v": 81
    },
    {
      "midi": 65,
      "hit": false,
      "t": 75090.83400000005,
      "d": 581.8175999999949,
      "v": 88
    },
    {
      "midi": 72,
      "hit": false,
      "t": 75090.83400000005,
      "d": 581.8175999999949,
      "v": 81
    },
    {
      "midi": 70,
      "hit": false,
      "t": 75818.10600000004,
      "d": 290.9088000000047,
      "v": 96
    },
    {
      "midi": 62,
      "hit": false,
      "t": 76181.74200000004,
      "d": 436.36320000000705,
      "v": 90
    },
    {
      "midi": 65,
      "hit": false,
      "t": 76181.74200000004,
      "d": 436.36320000000705,
      "v": 93
    },
    {
      "midi": 70,
      "hit": false,
      "t": 76181.74200000004,
      "d": 436.36320000000705,
      "v": 87
    },
    {
      "midi": 74,
      "hit": false,
      "t": 76181.74200000004,
      "d": 436.36320000000705,
      "v": 90
    },
    {
      "midi": 70,
      "hit": false,
      "t": 76727.19600000005,
      "d": 704.5447500000009,
      "v": 90
    },
    {
      "midi": 60,
      "hit": false,
      "t": 77818.10400000005,
      "d": 145.45440000000235,
      "v": 103
    },
    {
      "midi": 58,
      "hit": false,
      "t": 77999.92200000005,
      "d": 436.36320000000705,
      "v": 100
    },
    {
      "midi": 61,
      "hit": false,
      "t": 77999.92200000005,
      "d": 436.36320000000705,
      "v": 92
    },
    {
      "midi": 64,
      "hit": false,
      "t": 77999.92200000005,
      "d": 436.36320000000705,
      "v": 85
    },
    {
      "midi": 57,
      "hit": false,
      "t": 78545.37600000006,
      "d": 436.36320000000705,
      "v": 77
    },
    {
      "midi": 60,
      "hit": false,
      "t": 78545.37600000006,
      "d": 436.36320000000705,
      "v": 104
    },
    {
      "midi": 65,
      "hit": false,
      "t": 78545.37600000006,
      "d": 436.36320000000705,
      "v": 92
    },
    {
      "midi": 69,
      "hit": false,
      "t": 78545.37600000006,
      "d": 436.36320000000705,
      "v": 103
    },
    {
      "midi": 69,
      "hit": false,
      "t": 79090.83000000007,
      "d": 436.36320000000705,
      "v": 100
    },
    {
      "midi": 55,
      "hit": false,
      "t": 79636.28400000009,
      "d": 727.2719999999972,
      "v": 94
    },
    {
      "midi": 60,
      "hit": false,
      "t": 79636.28400000009,
      "d": 727.2719999999972,
      "v": 89
    },
    {
      "midi": 64,
      "hit": false,
      "t": 79636.28400000009,
      "d": 727.2719999999972,
      "v": 97
    },
    {
      "midi": 69,
      "hit": false,
      "t": 79636.28400000009,
      "d": 727.2719999999972,
      "v": 76
    },
    {
      "midi": 67,
      "hit": false,
      "t": 80545.37400000008,
      "d": 145.45440000000235,
      "v": 89
    },
    {
      "midi": 53,
      "hit": false,
      "t": 80727.19200000008,
      "d": 872.7263999999996,
      "v": 102
    },
    {
      "midi": 58,
      "hit": false,
      "t": 80727.19200000008,
      "d": 872.7263999999996,
      "v": 83
    },
    {
      "midi": 62,
      "hit": false,
      "t": 80727.19200000008,
      "d": 872.7263999999996,
      "v": 90
    },
    {
      "midi": 58,
      "hit": false,
      "t": 81818.10000000008,
      "d": 290.9088000000047,
      "v": 99
    },
    {
      "midi": 62,
      "hit": false,
      "t": 81818.10000000008,
      "d": 290.9088000000047,
      "v": 101
    },
    {
      "midi": 65,
      "hit": false,
      "t": 81818.10000000008,
      "d": 290.9088000000047,
      "v": 90
    },
    {
      "midi": 69,
      "hit": false,
      "t": 82181.73600000008,
      "d": 436.36320000000705,
      "v": 76
    },
    {
      "midi": 57,
      "hit": false,
      "t": 82727.19000000009,
      "d": 3418.1784000000043,
      "v": 93
    },
    {
      "midi": 60,
      "hit": false,
      "t": 82727.19000000009,
      "d": 3418.1784000000043,
      "v": 93
    },
    {
      "midi": 65,
      "hit": false,
      "t": 82727.19000000009,
      "d": 3418.1784000000043,
      "v": 91
    },
    {
      "midi": 60,
      "hit": false,
      "t": 87272.6400000001,
      "d": 872.7263999999996,
      "v": 91
    },
    {
      "midi": 65,
      "hit": false,
      "t": 87272.6400000001,
      "d": 872.7263999999996,
      "v": 92
    },
    {
      "midi": 69,
      "hit": false,
      "t": 87272.6400000001,
      "d": 872.7263999999996,
      "v": 76
    },
    {
      "midi": 60,
      "hit": false,
      "t": 88363.5480000001,
      "d": 981.817200000005,
      "v": 88
    },
    {
      "midi": 64,
      "hit": false,
      "t": 88363.5480000001,
      "d": 981.817200000005,
      "v": 104
    },
    {
      "midi": 67,
      "hit": false,
      "t": 88363.5480000001,
      "d": 981.817200000005,
      "v": 84
    },
    {
      "midi": 57,
      "hit": false,
      "t": 89454.45600000011,
      "d": 981.817200000005,
      "v": 86
    },
    {
      "midi": 60,
      "hit": false,
      "t": 89454.45600000011,
      "d": 981.817200000005,
      "v": 92
    },
    {
      "midi": 55,
      "hit": false,
      "t": 90545.36400000012,
      "d": 981.817200000005,
      "v": 88
    },
    {
      "midi": 60,
      "hit": false,
      "t": 90545.36400000012,
      "d": 981.817200000005,
      "v": 89
    },
    {
      "midi": 74,
      "hit": false,
      "t": 92727.18000000012,
      "d": 872.7263999999996,
      "v": 91
    },
    {
      "midi": 77,
      "hit": false,
      "t": 92727.18000000012,
      "d": 872.7263999999996,
      "v": 99
    },
    {
      "midi": 86,
      "hit": false,
      "t": 92727.18000000012,
      "d": 872.7263999999996,
      "v": 97
    },
    {
      "midi": 60,
      "hit": false,
      "t": 93818.08800000012,
      "d": 522.7267500000016,
      "v": 77
    },
    {
      "midi": 62,
      "hit": false,
      "t": 93818.08800000012,
      "d": 522.7267500000016,
      "v": 87
    },
    {
      "midi": 65,
      "hit": false,
      "t": 93818.08800000012,
      "d": 522.7267500000016,
      "v": 99
    },
    {
      "midi": 70,
      "hit": false,
      "t": 93818.08800000012,
      "d": 522.7267500000016,
      "v": 92
    },
    {
      "midi": 60,
      "hit": false,
      "t": 95818.08600000011,
      "d": 2327.270399999994,
      "v": 90
    },
    {
      "midi": 65,
      "hit": false,
      "t": 95818.08600000011,
      "d": 2327.270399999994,
      "v": 90
    },
    {
      "midi": 69,
      "hit": false,
      "t": 95818.08600000011,
      "d": 2327.270399999994,
      "v": 88
    },
    {
      "midi": 72,
      "hit": false,
      "t": 95818.08600000011,
      "d": 2327.270399999994,
      "v": 85
    },
    {
      "midi": 58,
      "hit": false,
      "t": 98181.7200000001,
      "d": 872.7263999999996,
      "v": 90
    },
    {
      "midi": 62,
      "hit": false,
      "t": 98181.7200000001,
      "d": 872.7263999999996,
      "v": 92
    },
    {
      "midi": 58,
      "hit": false,
      "t": 99272.6280000001,
      "d": 727.2719999999972,
      "v": 78
    },
    {
      "midi": 62,
      "hit": false,
      "t": 99272.6280000001,
      "d": 727.2719999999972,
      "v": 79
    },
    {
      "midi": 57,
      "hit": false,
      "t": 100181.7180000001,
      "d": 2872.7244000000064,
      "v": 95
    },
    {
      "midi": 60,
      "hit": false,
      "t": 100181.7180000001,
      "d": 2872.7244000000064,
      "v": 94
    },
    {
      "midi": 57,
      "hit": false,
      "t": 103454.4420000001,
      "d": 704.5447500000009,
      "v": 100
    },
    {
      "midi": 60,
      "hit": false,
      "t": 103454.4420000001,
      "d": 704.5447500000009,
      "v": 90
    },
    {
      "midi": 65,
      "hit": false,
      "t": 103454.4420000001,
      "d": 704.5447500000009,
      "v": 91
    },
    {
      "midi": 60,
      "hit": false,
      "t": 104545.3500000001,
      "d": 2327.270399999994,
      "v": 83
    },
    {
      "midi": 64,
      "hit": false,
      "t": 104545.3500000001,
      "d": 2327.270399999994,
      "v": 101
    },
    {
      "midi": 69,
      "hit": false,
      "t": 104545.3500000001,
      "d": 2327.270399999994,
      "v": 90
    },
    {
      "midi": 72,
      "hit": false,
      "t": 104545.3500000001,
      "d": 2327.270399999994,
      "v": 91
    },
    {
      "midi": 57,
      "hit": false,
      "t": 107272.62000000008,
      "d": 436.36320000000705,
      "v": 89
    },
    {
      "midi": 62,
      "hit": false,
      "t": 107272.62000000008,
      "d": 436.36320000000705,
      "v": 103
    },
    {
      "midi": 65,
      "hit": false,
      "t": 107272.62000000008,
      "d": 436.36320000000705,
      "v": 86
    },
    {
      "midi": 69,
      "hit": false,
      "t": 107272.62000000008,
      "d": 436.36320000000705,
      "v": 90
    },
    {
      "midi": 57,
      "hit": false,
      "t": 107818.0740000001,
      "d": 522.7267500000016,
      "v": 89
    },
    {
      "midi": 62,
      "hit": false,
      "t": 107818.0740000001,
      "d": 522.7267500000016,
      "v": 81
    },
    {
      "midi": 65,
      "hit": false,
      "t": 107818.0740000001,
      "d": 522.7267500000016,
      "v": 90
    },
    {
      "midi": 55,
      "hit": false,
      "t": 108908.98200000009,
      "d": 2327.270399999994,
      "v": 78
    },
    {
      "midi": 58,
      "hit": false,
      "t": 108908.98200000009,
      "d": 2327.270399999994,
      "v": 88
    },
    {
      "midi": 62,
      "hit": false,
      "t": 108908.98200000009,
      "d": 2327.270399999994,
      "v": 90
    },
    {
      "midi": 67,
      "hit": false,
      "t": 108908.98200000009,
      "d": 2327.270399999994,
      "v": 100
    },
    {
      "midi": 55,
      "hit": false,
      "t": 111272.61600000008,
      "d": 886.3627500000002,
      "v": 88
    },
    {
      "midi": 58,
      "hit": false,
      "t": 111272.61600000008,
      "d": 886.3627500000002,
      "v": 93
    },
    {
      "midi": 64,
      "hit": false,
      "t": 111272.61600000008,
      "d": 886.3627500000002,
      "v": 81
    },
    {
      "midi": 60,
      "hit": false,
      "t": 113272.61400000007,
      "d": 2327.270399999994,
      "v": 77
    },
    {
      "midi": 65,
      "hit": false,
      "t": 113272.61400000007,
      "d": 2327.270399999994,
      "v": 89
    },
    {
      "midi": 72,
      "hit": false,
      "t": 113272.61400000007,
      "d": 2327.270399999994,
      "v": 97
    },
    {
      "midi": 58,
      "hit": false,
      "t": 115636.24800000007,
      "d": 872.7263999999996,
      "v": 90
    },
    {
      "midi": 62,
      "hit": false,
      "t": 115636.24800000007,
      "d": 872.7263999999996,
      "v": 80
    },
    {
      "midi": 58,
      "hit": false,
      "t": 116727.15600000006,
      "d": 436.36320000000705,
      "v": 97
    },
    {
      "midi": 62,
      "hit": false,
      "t": 116727.15600000006,
      "d": 436.36320000000705,
      "v": 82
    },
    {
      "midi": 60,
      "hit": false,
      "t": 117272.61000000007,
      "d": 436.36320000000705,
      "v": 98
    },
    {
      "midi": 57,
      "hit": false,
      "t": 117818.06400000009,
      "d": 872.7263999999996,
      "v": 97
    },
    {
      "midi": 65,
      "hit": false,
      "t": 117818.06400000009,
      "d": 872.7263999999996,
      "v": 92
    },
    {
      "midi": 57,
      "hit": false,
      "t": 118908.97200000008,
      "d": 872.7263999999996,
      "v": 90
    },
    {
      "midi": 65,
      "hit": false,
      "t": 118908.97200000008,
      "d": 872.7263999999996,
      "v": 88
    },
    {
      "midi": 57,
      "hit": false,
      "t": 119999.88000000008,
      "d": 1745.4527999999991,
      "v": 88
    },
    {
      "midi": 60,
      "hit": false,
      "t": 119999.88000000008,
      "d": 1745.4527999999991,
      "v": 90
    },
    {
      "midi": 53,
      "hit": false,
      "t": 122181.69600000008,
      "d": 727.2719999999972,
      "v": 83
    },
    {
      "midi": 58,
      "hit": false,
      "t": 122181.69600000008,
      "d": 727.2719999999972,
      "v": 93
    },
    {
      "midi": 62,
      "hit": false,
      "t": 122181.69600000008,
      "d": 727.2719999999972,
      "v": 89
    },
    {
      "midi": 53,
      "hit": false,
      "t": 123090.78600000008,
      "d": 522.7267500000016,
      "v": 84
    },
    {
      "midi": 58,
      "hit": false,
      "t": 123090.78600000008,
      "d": 522.7267500000016,
      "v": 85
    },
    {
      "midi": 62,
      "hit": false,
      "t": 123090.78600000008,
      "d": 522.7267500000016,
      "v": 79
    },
    {
      "midi": 67,
      "hit": false,
      "t": 123090.78600000008,
      "d": 522.7267500000016,
      "v": 88
    },
    {
      "midi": 53,
      "hit": false,
      "t": 124181.69400000008,
      "d": 1745.4527999999991,
      "v": 94
    },
    {
      "midi": 58,
      "hit": false,
      "t": 124181.69400000008,
      "d": 1745.4527999999991,
      "v": 95
    },
    {
      "midi": 62,
      "hit": false,
      "t": 124181.69400000008,
      "d": 1745.4527999999991,
      "v": 82
    },
    {
      "midi": 65,
      "hit": false,
      "t": 124181.69400000008,
      "d": 1745.4527999999991,
      "v": 86
    },
    {
      "midi": 53,
      "hit": false,
      "t": 126363.51000000008,
      "d": 1454.5439999999944,
      "v": 75
    },
    {
      "midi": 57,
      "hit": false,
      "t": 126363.51000000008,
      "d": 1454.5439999999944,
      "v": 90
    },
    {
      "midi": 60,
      "hit": false,
      "t": 126363.51000000008,
      "d": 1454.5439999999944,
      "v": 104
    },
    {
      "midi": 65,
      "hit": false,
      "t": 126363.51000000008,
      "d": 1454.5439999999944,
      "v": 95
    },
    {
      "midi": 53,
      "hit": false,
      "t": 128181.69000000008,
      "d": 290.9088000000047,
      "v": 90
    },
    {
      "midi": 58,
      "hit": false,
      "t": 128181.69000000008,
      "d": 290.9088000000047,
      "v": 84
    },
    {
      "midi": 62,
      "hit": false,
      "t": 128181.69000000008,
      "d": 290.9088000000047,
      "v": 84
    },
    {
      "midi": 65,
      "hit": false,
      "t": 128181.69000000008,
      "d": 290.9088000000047,
      "v": 103
    },
    {
      "midi": 53,
      "hit": false,
      "t": 128545.32600000007,
      "d": 145.45440000000235,
      "v": 90
    },
    {
      "midi": 58,
      "hit": false,
      "t": 128545.32600000007,
      "d": 145.45440000000235,
      "v": 103
    },
    {
      "midi": 62,
      "hit": false,
      "t": 128545.32600000007,
      "d": 145.45440000000235,
      "v": 89
    },
    {
      "midi": 65,
      "hit": false,
      "t": 128545.32600000007,
      "d": 145.45440000000235,
      "v": 93
    },
    {
      "midi": 53,
      "hit": false,
      "t": 128727.14400000007,
      "d": 436.36320000000705,
      "v": 92
    },
    {
      "midi": 57,
      "hit": false,
      "t": 128727.14400000007,
      "d": 436.36320000000705,
      "v": 85
    },
    {
      "midi": 60,
      "hit": false,
      "t": 128727.14400000007,
      "d": 436.36320000000705,
      "v": 85
    },
    {
      "midi": 65,
      "hit": false,
      "t": 128727.14400000007,
      "d": 436.36320000000705,
      "v": 76
    },
    {
      "midi": 57,
      "hit": false,
      "t": 129272.59800000009,
      "d": 436.36320000000705,
      "v": 91
    },
    {
      "midi": 65,
      "hit": false,
      "t": 129272.59800000009,
      "d": 436.36320000000705,
      "v": 87
    },
    {
      "midi": 58,
      "hit": false,
      "t": 129818.0520000001,
      "d": 436.36320000000705,
      "v": 81
    },
    {
      "midi": 65,
      "hit": false,
      "t": 129818.0520000001,
      "d": 436.36320000000705,
      "v": 82
    },
    {
      "midi": 69,
      "hit": false,
      "t": 129818.0520000001,
      "d": 436.36320000000705,
      "v": 85
    },
    {
      "midi": 60,
      "hit": false,
      "t": 130363.50600000011,
      "d": 290.9088000000047,
      "v": 90
    },
    {
      "midi": 63,
      "hit": false,
      "t": 130363.50600000011,
      "d": 290.9088000000047,
      "v": 90
    },
    {
      "midi": 65,
      "hit": false,
      "t": 130363.50600000011,
      "d": 290.9088000000047,
      "v": 77
    },
    {
      "midi": 72,
      "hit": false,
      "t": 130363.50600000011,
      "d": 290.9088000000047,
      "v": 82
    },
    {
      "midi": 70,
      "hit": false,
      "t": 130727.14200000011,
      "d": 145.45440000000235,
      "v": 90
    },
    {
      "midi": 62,
      "hit": false,
      "t": 130908.96000000011,
      "d": 872.7264000000141,
      "v": 90
    },
    {
      "midi": 65,
      "hit": false,
      "t": 130908.96000000011,
      "d": 872.7264000000141,
      "v": 83
    },
    {
      "midi": 70,
      "hit": false,
      "t": 130908.96000000011,
      "d": 872.7264000000141,
      "v": 91
    },
    {
      "midi": 74,
      "hit": false,
      "t": 130908.96000000011,
      "d": 872.7264000000141,
      "v": 80
    },
    {
      "midi": 62,
      "hit": false,
      "t": 131999.86800000013,
      "d": 727.2719999999972,
      "v": 88
    },
    {
      "midi": 66,
      "hit": false,
      "t": 131999.86800000013,
      "d": 727.2719999999972,
      "v": 98
    },
    {
      "midi": 70,
      "hit": false,
      "t": 131999.86800000013,
      "d": 727.2719999999972,
      "v": 91
    },
    {
      "midi": 74,
      "hit": false,
      "t": 131999.86800000013,
      "d": 727.2719999999972,
      "v": 84
    },
    {
      "midi": 72,
      "hit": false,
      "t": 132908.95800000013,
      "d": 145.4543999999878,
      "v": 84
    },
    {
      "midi": 62,
      "hit": false,
      "t": 133090.77600000013,
      "d": 872.7264000000141,
      "v": 96
    },
    {
      "midi": 67,
      "hit": false,
      "t": 133090.77600000013,
      "d": 872.7264000000141,
      "v": 87
    },
    {
      "midi": 62,
      "hit": false,
      "t": 134181.68400000015,
      "d": 727.2719999999972,
      "v": 76
    },
    {
      "midi": 65,
      "hit": false,
      "t": 134181.68400000015,
      "d": 727.2719999999972,
      "v": 93
    },
    {
      "midi": 70,
      "hit": false,
      "t": 134181.68400000015,
      "d": 727.2719999999972,
      "v": 84
    },
    {
      "midi": 60,
      "hit": false,
      "t": 135090.77400000015,
      "d": 2872.7244000000064,
      "v": 81
    },
    {
      "midi": 65,
      "hit": false,
      "t": 135090.77400000015,
      "d": 2872.7244000000064,
      "v": 102
    },
    {
      "midi": 69,
      "hit": false,
      "t": 135090.77400000015,
      "d": 2872.7244000000064,
      "v": 89
    },
    {
      "midi": 65,
      "hit": false,
      "t": 137999.86200000017,
      "d": 290.9088000000047,
      "v": 90
    },
    {
      "midi": 69,
      "hit": false,
      "t": 137999.86200000017,
      "d": 290.9088000000047,
      "v": 93
    },
    {
      "midi": 60,
      "hit": false,
      "t": 138363.49800000017,
      "d": 145.4543999999878,
      "v": 103
    },
    {
      "midi": 65,
      "hit": false,
      "t": 138545.31600000017,
      "d": 436.3631999999925,
      "v": 101
    },
    {
      "midi": 69,
      "hit": false,
      "t": 138545.31600000017,
      "d": 436.3631999999925,
      "v": 92
    },
    {
      "midi": 55,
      "hit": false,
      "t": 139090.77000000016,
      "d": 290.9088000000047,
      "v": 91
    },
    {
      "midi": 60,
      "hit": false,
      "t": 139090.77000000016,
      "d": 290.9088000000047,
      "v": 97
    },
    {
      "midi": 67,
      "hit": false,
      "t": 139454.40600000016,
      "d": 145.4543999999878,
      "v": 96
    },
    {
      "midi": 57,
      "hit": false,
      "t": 139636.22400000016,
      "d": 436.3631999999925,
      "v": 77
    },
    {
      "midi": 60,
      "hit": false,
      "t": 139636.22400000016,
      "d": 436.3631999999925,
      "v": 90
    },
    {
      "midi": 65,
      "hit": false,
      "t": 139636.22400000016,
      "d": 436.3631999999925,
      "v": 77
    },
    {
      "midi": 69,
      "hit": false,
      "t": 139636.22400000016,
      "d": 436.3631999999925,
      "v": 89
    },
    {
      "midi": 69,
      "hit": false,
      "t": 140181.67800000016,
      "d": 436.3631999999925,
      "v": 77
    },
    {
      "midi": 57,
      "hit": false,
      "t": 140727.13200000016,
      "d": 727.2719999999972,
      "v": 92
    },
    {
      "midi": 60,
      "hit": false,
      "t": 140727.13200000016,
      "d": 727.2719999999972,
      "v": 82
    },
    {
      "midi": 65,
      "hit": false,
      "t": 140727.13200000016,
      "d": 727.2719999999972,
      "v": 88
    },
    {
      "midi": 69,
      "hit": false,
      "t": 140727.13200000016,
      "d": 727.2719999999972,
      "v": 89
    },
    {
      "midi": 67,
      "hit": false,
      "t": 141636.22200000015,
      "d": 145.4543999999878,
      "v": 90
    },
    {
      "midi": 59,
      "hit": false,
      "t": 141818.04000000015,
      "d": 872.7264000000141,
      "v": 101
    },
    {
      "midi": 62,
      "hit": false,
      "t": 141818.04000000015,
      "d": 872.7264000000141,
      "v": 83
    },
    {
      "midi": 59,
      "hit": false,
      "t": 142908.94800000018,
      "d": 727.2719999999972,
      "v": 87
    },
    {
      "midi": 62,
      "hit": false,
      "t": 142908.94800000018,
      "d": 727.2719999999972,
      "v": 104
    },
    {
      "midi": 67,
      "hit": false,
      "t": 142908.94800000018,
      "d": 727.2719999999972,
      "v": 89
    },
    {
      "midi": 58,
      "hit": false,
      "t": 143818.03800000018,
      "d": 3054.5423999999766,
      "v": 78
    },
    {
      "midi": 62,
      "hit": false,
      "t": 143818.03800000018,
      "d": 3054.5423999999766,
      "v": 99
    },
    {
      "midi": 67,
      "hit": false,
      "t": 143818.03800000018,
      "d": 3054.5423999999766,
      "v": 90
    },
    {
      "midi": 60,
      "hit": false,
      "t": 146181.67200000017,
      "d": 727.2719999999972,
      "v": 95
    },
    {
      "midi": 64,
      "hit": false,
      "t": 146181.67200000017,
      "d": 727.2719999999972,
      "v": 92
    },
    {
      "midi": 60,
      "hit": false,
      "t": 147090.76200000016,
      "d": 145.4543999999878,
      "v": 87
    },
    {
      "midi": 60,
      "hit": false,
      "t": 147272.58000000016,
      "d": 290.9088000000047,
      "v": 92
    },
    {
      "midi": 65,
      "hit": false,
      "t": 147272.58000000016,
      "d": 290.9088000000047,
      "v": 90
    },
    {
      "midi": 69,
      "hit": false,
      "t": 147272.58000000016,
      "d": 290.9088000000047,
      "v": 88
    },
    {
      "midi": 72,
      "hit": false,
      "t": 147636.21600000016,
      "d": 145.4543999999878,
      "v": 86
    },
    {
      "midi": 60,
      "hit": false,
      "t": 147818.03400000016,
      "d": 290.9088000000047,
      "v": 89
    },
    {
      "midi": 67,
      "hit": false,
      "t": 147818.03400000016,
      "d": 290.9088000000047,
      "v": 91
    },
    {
      "midi": 69,
      "hit": false,
      "t": 147818.03400000016,
      "d": 290.9088000000047,
      "v": 82
    },
    {
      "midi": 60,
      "hit": false,
      "t": 148181.67000000016,
      "d": 436.3631999999925,
      "v": 95
    },
    {
      "midi": 65,
      "hit": false,
      "t": 148181.67000000016,
      "d": 436.3631999999925,
      "v": 91
    },
    {
      "midi": 69,
      "hit": false,
      "t": 148181.67000000016,
      "d": 436.3631999999925,
      "v": 88
    },
    {
      "midi": 74,
      "hit": false,
      "t": 148181.67000000016,
      "d": 436.3631999999925,
      "v": 99
    },
    {
      "midi": 72,
      "hit": false,
      "t": 148727.12400000016,
      "d": 145.4543999999878,
      "v": 78
    },
    {
      "midi": 69,
      "hit": false,
      "t": 148908.94200000016,
      "d": 290.9088000000047,
      "v": 91
    },
    {
      "midi": 60,
      "hit": false,
      "t": 149272.57800000015,
      "d": 436.3631999999925,
      "v": 90
    },
    {
      "midi": 65,
      "hit": false,
      "t": 149272.57800000015,
      "d": 436.3631999999925,
      "v": 87
    },
    {
      "midi": 69,
      "hit": false,
      "t": 149272.57800000015,
      "d": 436.3631999999925,
      "v": 90
    },
    {
      "midi": 72,
      "hit": false,
      "t": 149272.57800000015,
      "d": 436.3631999999925,
      "v": 84
    },
    {
      "midi": 60,
      "hit": false,
      "t": 149818.03200000015,
      "d": 436.3631999999925,
      "v": 91
    },
    {
      "midi": 65,
      "hit": false,
      "t": 149818.03200000015,
      "d": 436.3631999999925,
      "v": 89
    },
    {
      "midi": 69,
      "hit": false,
      "t": 149818.03200000015,
      "d": 436.3631999999925,
      "v": 77
    },
    {
      "midi": 58,
      "hit": false,
      "t": 150363.48600000015,
      "d": 436.3631999999925,
      "v": 91
    },
    {
      "midi": 62,
      "hit": false,
      "t": 150363.48600000015,
      "d": 436.3631999999925,
      "v": 81
    },
    {
      "midi": 67,
      "hit": false,
      "t": 150363.48600000015,
      "d": 436.3631999999925,
      "v": 89
    },
    {
      "midi": 58,
      "hit": false,
      "t": 150908.94000000015,
      "d": 1309.0896000000066,
      "v": 91
    },
    {
      "midi": 62,
      "hit": false,
      "t": 150908.94000000015,
      "d": 1309.0896000000066,
      "v": 90
    },
    {
      "midi": 65,
      "hit": false,
      "t": 150908.94000000015,
      "d": 1309.0896000000066,
      "v": 90
    },
    {
      "midi": 58,
      "hit": false,
      "t": 152545.30200000014,
      "d": 145.4543999999878,
      "v": 90
    },
    {
      "midi": 60,
      "hit": false,
      "t": 152727.12000000014,
      "d": 290.9088000000047,
      "v": 95
    },
    {
      "midi": 65,
      "hit": false,
      "t": 152727.12000000014,
      "d": 290.9088000000047,
      "v": 99
    },
    {
      "midi": 69,
      "hit": false,
      "t": 152727.12000000014,
      "d": 290.9088000000047,
      "v": 86
    },
    {
      "midi": 72,
      "hit": false,
      "t": 153090.75600000014,
      "d": 436.3631999999925,
      "v": 86
    },
    {
      "midi": 60,
      "hit": false,
      "t": 153636.21000000014,
      "d": 581.8176000000094,
      "v": 98
    },
    {
      "midi": 65,
      "hit": false,
      "t": 153636.21000000014,
      "d": 581.8176000000094,
      "v": 90
    },
    {
      "midi": 72,
      "hit": false,
      "t": 153636.21000000014,
      "d": 581.8176000000094,
      "v": 94
    },
    {
      "midi": 70,
      "hit": false,
      "t": 154363.48200000013,
      "d": 290.9088000000047,
      "v": 99
    },
    {
      "midi": 62,
      "hit": false,
      "t": 154727.11800000013,
      "d": 436.3631999999925,
      "v": 85
    },
    {
      "midi": 65,
      "hit": false,
      "t": 154727.11800000013,
      "d": 436.3631999999925,
      "v": 89
    },
    {
      "midi": 70,
      "hit": false,
      "t": 154727.11800000013,
      "d": 436.3631999999925,
      "v": 91
    },
    {
      "midi": 74,
      "hit": false,
      "t": 154727.11800000013,
      "d": 436.3631999999925,
      "v": 85
    },
    {
      "midi": 70,
      "hit": false,
      "t": 155272.57200000013,
      "d": 704.5447500000009,
      "v": 86
    },
    {
      "midi": 60,
      "hit": false,
      "t": 156363.48000000013,
      "d": 145.4543999999878,
      "v": 91
    },
    {
      "midi": 58,
      "hit": false,
      "t": 156545.29800000013,
      "d": 436.3631999999925,
      "v": 91
    },
    {
      "midi": 61,
      "hit": false,
      "t": 156545.29800000013,
      "d": 436.3631999999925,
      "v": 91
    },
    {
      "midi": 64,
      "hit": false,
      "t": 156545.29800000013,
      "d": 436.3631999999925,
      "v": 92
    },
    {
      "midi": 57,
      "hit": false,
      "t": 157090.75200000012,
      "d": 436.3631999999925,
      "v": 90
    },
    {
      "midi": 60,
      "hit": false,
      "t": 157090.75200000012,
      "d": 436.3631999999925,
      "v": 92
    },
    {
      "midi": 65,
      "hit": false,
      "t": 157090.75200000012,
      "d": 436.3631999999925,
      "v": 91
    },
    {
      "midi": 69,
      "hit": false,
      "t": 157090.75200000012,
      "d": 436.3631999999925,
      "v": 88
    },
    {
      "midi": 69,
      "hit": false,
      "t": 157636.20600000012,
      "d": 436.3631999999925,
      "v": 77
    },
    {
      "midi": 55,
      "hit": false,
      "t": 158181.66000000012,
      "d": 727.2719999999972,
      "v": 81
    },
    {
      "midi": 60,
      "hit": false,
      "t": 158181.66000000012,
      "d": 727.2719999999972,
      "v": 83
    },
    {
      "midi": 64,
      "hit": false,
      "t": 158181.66000000012,
      "d": 727.2719999999972,
      "v": 90
    },
    {
      "midi": 69,
      "hit": false,
      "t": 158181.66000000012,
      "d": 727.2719999999972,
      "v": 90
    },
    {
      "midi": 67,
      "hit": false,
      "t": 159090.75000000012,
      "d": 145.4543999999878,
      "v": 91
    },
    {
      "midi": 53,
      "hit": false,
      "t": 159272.56800000012,
      "d": 872.7264000000141,
      "v": 78
    },
    {
      "midi": 58,
      "hit": false,
      "t": 159272.56800000012,
      "d": 872.7264000000141,
      "v": 90
    },
    {
      "midi": 62,
      "hit": false,
      "t": 159272.56800000012,
      "d": 872.7264000000141,
      "v": 91
    },
    {
      "midi": 58,
      "hit": false,
      "t": 160363.47600000014,
      "d": 290.9088000000047,
      "v": 95
    },
    {
      "midi": 62,
      "hit": false,
      "t": 160363.47600000014,
      "d": 290.9088000000047,
      "v": 82
    },
    {
      "midi": 65,
      "hit": false,
      "t": 160363.47600000014,
      "d": 290.9088000000047,
      "v": 92
    },
    {
      "midi": 69,
      "hit": false,
      "t": 160727.11200000014,
      "d": 436.3631999999925,
      "v": 90
    },
    {
      "midi": 57,
      "hit": false,
      "t": 161272.56600000014,
      "d": 2872.7244000000064,
      "v": 85
    },
    {
      "midi": 60,
      "hit": false,
      "t": 161272.56600000014,
      "d": 2872.7244000000064,
      "v": 98
    },
    {
      "midi": 65,
      "hit": false,
      "t": 161272.56600000014,
      "d": 2872.7244000000064,
      "v": 88
    },
    {
      "midi": 57,
      "hit": false,
      "t": 164181.65400000016,
      "d": 436.3631999999925,
      "v": 79
    },
    {
      "midi": 65,
      "hit": false,
      "t": 164181.65400000016,
      "d": 436.3631999999925,
      "v": 101
    },
    {
      "midi": 58,
      "hit": false,
      "t": 164727.10800000015,
      "d": 436.3631999999925,
      "v": 90
    },
    {
      "midi": 65,
      "hit": false,
      "t": 164727.10800000015,
      "d": 436.3631999999925,
      "v": 79
    },
    {
      "midi": 69,
      "hit": false,
      "t": 164727.10800000015,
      "d": 436.3631999999925,
      "v": 84
    },
    {
      "midi": 60,
      "hit": false,
      "t": 165272.56200000015,
      "d": 290.9088000000047,
      "v": 90
    },
    {
      "midi": 63,
      "hit": false,
      "t": 165272.56200000015,
      "d": 290.9088000000047,
      "v": 98
    },
    {
      "midi": 65,
      "hit": false,
      "t": 165272.56200000015,
      "d": 290.9088000000047,
      "v": 97
    },
    {
      "midi": 72,
      "hit": false,
      "t": 165272.56200000015,
      "d": 290.9088000000047,
      "v": 91
    },
    {
      "midi": 70,
      "hit": false,
      "t": 165636.19800000015,
      "d": 145.4543999999878,
      "v": 87
    },
    {
      "midi": 62,
      "hit": false,
      "t": 165818.01600000015,
      "d": 872.7264000000432,
      "v": 80
    },
    {
      "midi": 65,
      "hit": false,
      "t": 165818.01600000015,
      "d": 872.7264000000432,
      "v": 95
    },
    {
      "midi": 70,
      "hit": false,
      "t": 165818.01600000015,
      "d": 872.7264000000432,
      "v": 90
    },
    {
      "midi": 74,
      "hit": false,
      "t": 165818.01600000015,
      "d": 872.7264000000432,
      "v": 90
    },
    {
      "midi": 62,
      "hit": false,
      "t": 166908.9240000002,
      "d": 727.2720000000263,
      "v": 78
    },
    {
      "midi": 66,
      "hit": false,
      "t": 166908.9240000002,
      "d": 727.2720000000263,
      "v": 90
    },
    {
      "midi": 70,
      "hit": false,
      "t": 166908.9240000002,
      "d": 727.2720000000263,
      "v": 92
    },
    {
      "midi": 74,
      "hit": false,
      "t": 166908.9240000002,
      "d": 727.2720000000263,
      "v": 89
    },
    {
      "midi": 72,
      "hit": false,
      "t": 167818.01400000026,
      "d": 145.4543999999878,
      "v": 82
    },
    {
      "midi": 62,
      "hit": false,
      "t": 167999.83200000026,
      "d": 872.7264000000432,
      "v": 96
    },
    {
      "midi": 67,
      "hit": false,
      "t": 167999.83200000026,
      "d": 872.7264000000432,
      "v": 87
    },
    {
      "midi": 62,
      "hit": false,
      "t": 169090.7400000003,
      "d": 727.2720000000263,
      "v": 90
    },
    {
      "midi": 65,
      "hit": false,
      "t": 169090.7400000003,
      "d": 727.2720000000263,
      "v": 90
    },
    {
      "midi": 70,
      "hit": false,
      "t": 169090.7400000003,
      "d": 727.2720000000263,
      "v": 96
    },
    {
      "midi": 60,
      "hit": false,
      "t": 169999.83000000037,
      "d": 2872.724400000123,
      "v": 88
    },
    {
      "midi": 65,
      "hit": false,
      "t": 169999.83000000037,
      "d": 2872.724400000123,
      "v": 96
    },
    {
      "midi": 69,
      "hit": false,
      "t": 169999.83000000037,
      "d": 2872.724400000123,
      "v": 90
    },
    {
      "midi": 65,
      "hit": false,
      "t": 172908.9180000005,
      "d": 290.9088000000047,
      "v": 80
    },
    {
      "midi": 69,
      "hit": false,
      "t": 172908.9180000005,
      "d": 290.9088000000047,
      "v": 100
    },
    {
      "midi": 60,
      "hit": false,
      "t": 173272.5540000005,
      "d": 145.4543999999878,
      "v": 94
    },
    {
      "midi": 65,
      "hit": false,
      "t": 173454.3720000005,
      "d": 436.3632000000216,
      "v": 89
    },
    {
      "midi": 69,
      "hit": false,
      "t": 173454.3720000005,
      "d": 436.3632000000216,
      "v": 103
    },
    {
      "midi": 55,
      "hit": false,
      "t": 173999.82600000052,
      "d": 290.9088000000047,
      "v": 93
    },
    {
      "midi": 60,
      "hit": false,
      "t": 173999.82600000052,
      "d": 290.9088000000047,
      "v": 90
    },
    {
      "midi": 67,
      "hit": false,
      "t": 174363.46200000052,
      "d": 145.4543999999878,
      "v": 92
    },
    {
      "midi": 57,
      "hit": false,
      "t": 174545.28000000052,
      "d": 436.3632000000216,
      "v": 97
    },
    {
      "midi": 60,
      "hit": false,
      "t": 174545.28000000052,
      "d": 436.3632000000216,
      "v": 92
    },
    {
      "midi": 65,
      "hit": false,
      "t": 174545.28000000052,
      "d": 436.3632000000216,
      "v": 97
    },
    {
      "midi": 69,
      "hit": false,
      "t": 174545.28000000052,
      "d": 436.3632000000216,
      "v": 78
    },
    {
      "midi": 69,
      "hit": false,
      "t": 175090.73400000055,
      "d": 436.3632000000216,
      "v": 86
    },
    {
      "midi": 57,
      "hit": false,
      "t": 175636.18800000058,
      "d": 727.2720000000263,
      "v": 95
    },
    {
      "midi": 60,
      "hit": false,
      "t": 175636.18800000058,
      "d": 727.2720000000263,
      "v": 90
    },
    {
      "midi": 65,
      "hit": false,
      "t": 175636.18800000058,
      "d": 727.2720000000263,
      "v": 82
    },
    {
      "midi": 69,
      "hit": false,
      "t": 175636.18800000058,
      "d": 727.2720000000263,
      "v": 91
    },
    {
      "midi": 67,
      "hit": false,
      "t": 176545.27800000063,
      "d": 145.4543999999878,
      "v": 90
    },
    {
      "midi": 59,
      "hit": false,
      "t": 176727.09600000063,
      "d": 872.7264000000432,
      "v": 83
    },
    {
      "midi": 62,
      "hit": false,
      "t": 176727.09600000063,
      "d": 872.7264000000432,
      "v": 90
    },
    {
      "midi": 59,
      "hit": false,
      "t": 177818.00400000068,
      "d": 727.2720000000263,
      "v": 90
    },
    {
      "midi": 62,
      "hit": false,
      "t": 177818.00400000068,
      "d": 727.2720000000263,
      "v": 105
    },
    {
      "midi": 67,
      "hit": false,
      "t": 177818.00400000068,
      "d": 727.2720000000263,
      "v": 95
    },
    {
      "midi": 58,
      "hit": false,
      "t": 178727.09400000074,
      "d": 3054.542400000122,
      "v": 90
    },
    {
      "midi": 62,
      "hit": false,
      "t": 178727.09400000074,
      "d": 3054.542400000122,
      "v": 77
    },
    {
      "midi": 67,
      "hit": false,
      "t": 178727.09400000074,
      "d": 3054.542400000122,
      "v": 91
    },
    {
      "midi": 60,
      "hit": false,
      "t": 181090.72800000085,
      "d": 727.2720000000263,
      "v": 82
    },
    {
      "midi": 64,
      "hit": false,
      "t": 181090.72800000085,
      "d": 727.2720000000263,
      "v": 88
    },
    {
      "midi": 60,
      "hit": false,
      "t": 181999.8180000009,
      "d": 145.4543999999878,
      "v": 80
    },
    {
      "midi": 60,
      "hit": false,
      "t": 182181.6360000009,
      "d": 290.9088000000047,
      "v": 85
    },
    {
      "midi": 65,
      "hit": false,
      "t": 182181.6360000009,
      "d": 290.9088000000047,
      "v": 81
    },
    {
      "midi": 69,
      "hit": false,
      "t": 182181.6360000009,
      "d": 290.9088000000047,
      "v": 92
    },
    {
      "midi": 72,
      "hit": false,
      "t": 182545.2720000009,
      "d": 145.4543999999878,
      "v": 79
    },
    {
      "midi": 60,
      "hit": false,
      "t": 182727.0900000009,
      "d": 290.9088000000047,
      "v": 90
    },
    {
      "midi": 67,
      "hit": false,
      "t": 182727.0900000009,
      "d": 290.9088000000047,
      "v": 80
    },
    {
      "midi": 69,
      "hit": false,
      "t": 182727.0900000009,
      "d": 290.9088000000047,
      "v": 94
    },
    {
      "midi": 60,
      "hit": false,
      "t": 183090.7260000009,
      "d": 436.3631999999925,
      "v": 81
    },
    {
      "midi": 65,
      "hit": false,
      "t": 183090.7260000009,
      "d": 436.3631999999925,
      "v": 102
    },
    {
      "midi": 69,
      "hit": false,
      "t": 183090.7260000009,
      "d": 436.3631999999925,
      "v": 102
    },
    {
      "midi": 74,
      "hit": false,
      "t": 183090.7260000009,
      "d": 436.3631999999925,
      "v": 87
    },
    {
      "midi": 72,
      "hit": false,
      "t": 183636.1800000009,
      "d": 145.4543999999878,
      "v": 105
    },
    {
      "midi": 69,
      "hit": false,
      "t": 183817.9980000009,
      "d": 290.9088000000047,
      "v": 87
    },
    {
      "midi": 60,
      "hit": false,
      "t": 184181.6340000009,
      "d": 436.3631999999925,
      "v": 91
    },
    {
      "midi": 65,
      "hit": false,
      "t": 184181.6340000009,
      "d": 436.3631999999925,
      "v": 76
    },
    {
      "midi": 69,
      "hit": false,
      "t": 184181.6340000009,
      "d": 436.3631999999925,
      "v": 81
    },
    {
      "midi": 72,
      "hit": false,
      "t": 184181.6340000009,
      "d": 436.3631999999925,
      "v": 82
    },
    {
      "midi": 60,
      "hit": false,
      "t": 184727.0880000009,
      "d": 436.3631999999925,
      "v": 101
    },
    {
      "midi": 65,
      "hit": false,
      "t": 184727.0880000009,
      "d": 436.3631999999925,
      "v": 89
    },
    {
      "midi": 69,
      "hit": false,
      "t": 184727.0880000009,
      "d": 436.3631999999925,
      "v": 99
    },
    {
      "midi": 58,
      "hit": false,
      "t": 185272.5420000009,
      "d": 436.3631999999925,
      "v": 77
    },
    {
      "midi": 62,
      "hit": false,
      "t": 185272.5420000009,
      "d": 436.3631999999925,
      "v": 96
    },
    {
      "midi": 67,
      "hit": false,
      "t": 185272.5420000009,
      "d": 436.3631999999925,
      "v": 75
    },
    {
      "midi": 58,
      "hit": false,
      "t": 185817.9960000009,
      "d": 1309.0896000000648,
      "v": 100
    },
    {
      "midi": 62,
      "hit": false,
      "t": 185817.9960000009,
      "d": 1309.0896000000648,
      "v": 78
    },
    {
      "midi": 65,
      "hit": false,
      "t": 185817.9960000009,
      "d": 1309.0896000000648,
      "v": 76
    },
    {
      "midi": 58,
      "hit": false,
      "t": 187454.35800000097,
      "d": 145.4543999999878,
      "v": 78
    },
    {
      "midi": 60,
      "hit": false,
      "t": 187636.17600000097,
      "d": 290.9088000000047,
      "v": 100
    },
    {
      "midi": 65,
      "hit": false,
      "t": 187636.17600000097,
      "d": 290.9088000000047,
      "v": 95
    },
    {
      "midi": 69,
      "hit": false,
      "t": 187636.17600000097,
      "d": 290.9088000000047,
      "v": 99
    },
    {
      "midi": 72,
      "hit": false,
      "t": 187999.81200000097,
      "d": 436.3631999999925,
      "v": 89
    },
    {
      "midi": 60,
      "hit": false,
      "t": 188545.26600000096,
      "d": 581.8176000000094,
      "v": 102
    },
    {
      "midi": 65,
      "hit": false,
      "t": 188545.26600000096,
      "d": 581.8176000000094,
      "v": 97
    },
    {
      "midi": 72,
      "hit": false,
      "t": 188545.26600000096,
      "d": 581.8176000000094,
      "v": 95
    },
    {
      "midi": 70,
      "hit": false,
      "t": 189272.53800000096,
      "d": 290.9088000000047,
      "v": 96
    },
    {
      "midi": 62,
      "hit": false,
      "t": 189636.17400000096,
      "d": 436.3631999999925,
      "v": 104
    },
    {
      "midi": 65,
      "hit": false,
      "t": 189636.17400000096,
      "d": 436.3631999999925,
      "v": 93
    },
    {
      "midi": 70,
      "hit": false,
      "t": 189636.17400000096,
      "d": 436.3631999999925,
      "v": 90
    },
    {
      "midi": 74,
      "hit": false,
      "t": 189636.17400000096,
      "d": 436.3631999999925,
      "v": 89
    },
    {
      "midi": 70,
      "hit": false,
      "t": 190181.62800000096,
      "d": 704.5447500000009,
      "v": 99
    },
    {
      "midi": 60,
      "hit": false,
      "t": 191272.53600000098,
      "d": 145.4543999999878,
      "v": 87
    },
    {
      "midi": 58,
      "hit": false,
      "t": 191454.35400000098,
      "d": 436.3632000000216,
      "v": 80
    },
    {
      "midi": 61,
      "hit": false,
      "t": 191454.35400000098,
      "d": 436.3632000000216,
      "v": 82
    },
    {
      "midi": 64,
      "hit": false,
      "t": 191454.35400000098,
      "d": 436.3632000000216,
      "v": 89
    },
    {
      "midi": 57,
      "hit": false,
      "t": 191999.808000001,
      "d": 436.3632000000216,
      "v": 103
    },
    {
      "midi": 60,
      "hit": false,
      "t": 191999.808000001,
      "d": 436.3632000000216,
      "v": 95
    },
    {
      "midi": 65,
      "hit": false,
      "t": 191999.808000001,
      "d": 436.3632000000216,
      "v": 87
    },
    {
      "midi": 69,
      "hit": false,
      "t": 191999.808000001,
      "d": 436.3632000000216,
      "v": 100
    },
    {
      "midi": 69,
      "hit": false,
      "t": 192545.26200000104,
      "d": 436.3632000000216,
      "v": 95
    },
    {
      "midi": 55,
      "hit": false,
      "t": 193090.71600000106,
      "d": 727.2720000000263,
      "v": 87
    },
    {
      "midi": 60,
      "hit": false,
      "t": 193090.71600000106,
      "d": 727.2720000000263,
      "v": 84
    },
    {
      "midi": 64,
      "hit": false,
      "t": 193090.71600000106,
      "d": 727.2720000000263,
      "v": 92
    },
    {
      "midi": 69,
      "hit": false,
      "t": 193090.71600000106,
      "d": 727.2720000000263,
      "v": 104
    },
    {
      "midi": 67,
      "hit": false,
      "t": 193999.80600000112,
      "d": 145.4543999999878,
      "v": 101
    },
    {
      "midi": 53,
      "hit": false,
      "t": 194181.62400000112,
      "d": 872.7264000000432,
      "v": 84
    },
    {
      "midi": 58,
      "hit": false,
      "t": 194181.62400000112,
      "d": 872.7264000000432,
      "v": 90
    },
    {
      "midi": 62,
      "hit": false,
      "t": 194181.62400000112,
      "d": 872.7264000000432,
      "v": 96
    },
    {
      "midi": 58,
      "hit": false,
      "t": 195272.53200000117,
      "d": 290.9088000000047,
      "v": 86
    },
    {
      "midi": 62,
      "hit": false,
      "t": 195272.53200000117,
      "d": 290.9088000000047,
      "v": 91
    },
    {
      "midi": 65,
      "hit": false,
      "t": 195272.53200000117,
      "d": 290.9088000000047,
      "v": 90
    },
    {
      "midi": 69,
      "hit": false,
      "t": 195636.16800000117,
      "d": 436.3631999999925,
      "v": 90
    },
    {
      "midi": 60,
      "hit": false,
      "t": 196181.62200000117,
      "d": 3418.17840000015,
      "v": 97
    },
    {
      "midi": 57,
      "hit": false,
      "t": 199090.7100000013,
      "d": 436.3632000000216,
      "v": 100
    },
    {
      "midi": 65,
      "hit": false,
      "t": 199090.7100000013,
      "d": 436.3632000000216,
      "v": 92
    },
    {
      "midi": 58,
      "hit": false,
      "t": 199636.16400000133,
      "d": 436.3632000000216,
      "v": 92
    },
    {
      "midi": 65,
      "hit": false,
      "t": 199636.16400000133,
      "d": 436.3632000000216,
      "v": 91
    },
    {
      "midi": 69,
      "hit": false,
      "t": 199636.16400000133,
      "d": 436.3632000000216,
      "v": 105
    },
    {
      "midi": 60,
      "hit": false,
      "t": 200181.61800000136,
      "d": 290.9088000000047,
      "v": 90
    },
    {
      "midi": 63,
      "hit": false,
      "t": 200181.61800000136,
      "d": 290.9088000000047,
      "v": 100
    },
    {
      "midi": 65,
      "hit": false,
      "t": 200181.61800000136,
      "d": 290.9088000000047,
      "v": 89
    },
    {
      "midi": 72,
      "hit": false,
      "t": 200181.61800000136,
      "d": 290.9088000000047,
      "v": 84
    }
  ]
}