{
  "jsonPath": "Rock/Country Rock/Travis Tritt/sometimes-she-forgets-2006-remastered-single-version.json",
  "path": "Rock\\Country Rock\\Travis Tritt\\Sometimes She Forgets (2006 Remastered Single Version).mid",
  "name": "Sometimes She Forgets (2006 Remastered Single Version)",
  "difficulty": "Advanced",
  "bpm": 150,
  "notes": [
    {
      "midi": 59,
      "hit": false,
      "t": 2400,
      "d": 813.3333333333335,
      "v": 57
    },
    {
      "midi": 62,
      "hit": false,
      "t": 2400,
      "d": 1056.6666666666665,
      "v": 73
    },
    {
      "midi": 43,
      "hit": false,
      "t": 2400,
      "d": 1100,
      "v": 57
    },
    {
      "midi": 67,
      "hit": false,
      "t": 2400,
      "d": 1186.6666666666665,
      "v": 72
    },
    {
      "midi": 71,
      "hit": false,
      "t": 2400,
      "d": 1200,
      "v": 68
    },
    {
      "midi": 59,
      "hit": false,
      "t": 3400,
      "d": 186.66666666666652,
      "v": 67
    },
    {
      "midi": 43,
      "hit": false,
      "t": 3600,
      "d": 1200,
      "v": 49
    },
    {
      "midi": 55,
      "hit": false,
      "t": 3600,
      "d": 1200,
      "v": 65
    },
    {
      "midi": 59,
      "hit": false,
      "t": 3600,
      "d": 1200,
      "v": 65
    },
    {
      "midi": 62,
      "hit": false,
      "t": 3600,
      "d": 1200,
      "v": 65
    },
    {
      "midi": 55,
      "hit": false,
      "t": 4800,
      "d": 523.333333333333,
      "v": 60
    },
    {
      "midi": 59,
      "hit": false,
      "t": 4800,
      "d": 540,
      "v": 67
    },
    {
      "midi": 62,
      "hit": false,
      "t": 4800,
      "d": 556.666666666667,
      "v": 72
    },
    {
      "midi": 65,
      "hit": false,
      "t": 4800,
      "d": 613.3333333333339,
      "v": 70
    },
    {
      "midi": 43,
      "hit": false,
      "t": 4800,
      "d": 1016.6666666666679,
      "v": 66
    },
    {
      "midi": 59,
      "hit": false,
      "t": 5600.000000000001,
      "d": 200,
      "v": 73
    },
    {
      "midi": 62,
      "hit": false,
      "t": 5600.000000000001,
      "d": 200,
      "v": 65
    },
    {
      "midi": 55,
      "hit": false,
      "t": 5600.000000000001,
      "d": 216.66666666666697,
      "v": 64
    },
    {
      "midi": 59,
      "hit": false,
      "t": 6000.000000000001,
      "d": 706.666666666667,
      "v": 72
    },
    {
      "midi": 62,
      "hit": false,
      "t": 6000.000000000001,
      "d": 706.666666666667,
      "v": 72
    },
    {
      "midi": 65,
      "hit": false,
      "t": 6000.000000000001,
      "d": 706.666666666667,
      "v": 72
    },
    {
      "midi": 67,
      "hit": false,
      "t": 6000.000000000001,
      "d": 706.666666666667,
      "v": 72
    },
    {
      "midi": 43,
      "hit": false,
      "t": 6000.000000000001,
      "d": 846.666666666667,
      "v": 54
    },
    {
      "midi": 59,
      "hit": false,
      "t": 6800.000000000001,
      "d": 73.33333333333394,
      "v": 75
    },
    {
      "midi": 62,
      "hit": false,
      "t": 6800.000000000001,
      "d": 73.33333333333394,
      "v": 75
    },
    {
      "midi": 65,
      "hit": false,
      "t": 6800.000000000001,
      "d": 73.33333333333394,
      "v": 75
    },
    {
      "midi": 67,
      "hit": false,
      "t": 6800.000000000001,
      "d": 73.33333333333394,
      "v": 75
    },
    {
      "midi": 48,
      "hit": false,
      "t": 7200.000000000002,
      "d": 456.66666666666697,
      "v": 48
    },
    {
      "midi": 55,
      "hit": false,
      "t": 7200.000000000002,
      "d": 510,
      "v": 57
    },
    {
      "midi": 60,
      "hit": false,
      "t": 7200.000000000002,
      "d": 566.666666666667,
      "v": 74
    },
    {
      "midi": 64,
      "hit": false,
      "t": 7200.000000000002,
      "d": 566.666666666667,
      "v": 71
    },
    {
      "midi": 67,
      "hit": false,
      "t": 7200.000000000002,
      "d": 603.3333333333339,
      "v": 68
    },
    {
      "midi": 36,
      "hit": false,
      "t": 7200.000000000002,
      "d": 913.3333333333339,
      "v": 54
    },
    {
      "midi": 55,
      "hit": false,
      "t": 7803.333333333336,
      "d": 596.6666666666661,
      "v": 67
    },
    {
      "midi": 60,
      "hit": false,
      "t": 8000.000000000003,
      "d": 333.33333333333303,
      "v": 84
    },
    {
      "midi": 67,
      "hit": false,
      "t": 8200.000000000002,
      "d": 143.33333333333394,
      "v": 89
    },
    {
      "midi": 36,
      "hit": false,
      "t": 8400.000000000002,
      "d": 1200,
      "v": 49
    },
    {
      "midi": 55,
      "hit": false,
      "t": 8400.000000000002,
      "d": 1200,
      "v": 65
    },
    {
      "midi": 60,
      "hit": false,
      "t": 8400.000000000002,
      "d": 1200,
      "v": 65
    },
    {
      "midi": 64,
      "hit": false,
      "t": 8400.000000000002,
      "d": 1200,
      "v": 65
    },
    {
      "midi": 55,
      "hit": false,
      "t": 9600.000000000002,
      "d": 706.6666666666661,
      "v": 72
    },
    {
      "midi": 59,
      "hit": false,
      "t": 9600.000000000002,
      "d": 706.6666666666661,
      "v": 72
    },
    {
      "midi": 62,
      "hit": false,
      "t": 9600.000000000002,
      "d": 706.6666666666661,
      "v": 72
    },
    {
      "midi": 43,
      "hit": false,
      "t": 9600.000000000002,
      "d": 846.6666666666661,
      "v": 54
    },
    {
      "midi": 55,
      "hit": false,
      "t": 10400.000000000002,
      "d": 73.33333333333212,
      "v": 75
    },
    {
      "midi": 59,
      "hit": false,
      "t": 10400.000000000002,
      "d": 73.33333333333212,
      "v": 75
    },
    {
      "midi": 62,
      "hit": false,
      "t": 10400.000000000002,
      "d": 73.33333333333212,
      "v": 75
    },
    {
      "midi": 59,
      "hit": false,
      "t": 10800,
      "d": 523.3333333333339,
      "v": 60
    },
    {
      "midi": 62,
      "hit": false,
      "t": 10800,
      "d": 540,
      "v": 67
    },
    {
      "midi": 67,
      "hit": false,
      "t": 10800,
      "d": 556.6666666666661,
      "v": 72
    },
    {
      "midi": 71,
      "hit": false,
      "t": 10800,
      "d": 613.3333333333321,
      "v": 70
    },
    {
      "midi": 43,
      "hit": false,
      "t": 10800,
      "d": 1016.6666666666642,
      "v": 66
    },
    {
      "midi": 62,
      "hit": false,
      "t": 11599.999999999998,
      "d": 200,
      "v": 73
    },
    {
      "midi": 67,
      "hit": false,
      "t": 11599.999999999998,
      "d": 200,
      "v": 65
    },
    {
      "midi": 59,
      "hit": false,
      "t": 11599.999999999998,
      "d": 216.66666666666606,
      "v": 64
    },
    {
      "midi": 38,
      "hit": false,
      "t": 11999.999999999998,
      "d": 1200,
      "v": 72
    },
    {
      "midi": 50,
      "hit": false,
      "t": 12199.999999999998,
      "d": 1000,
      "v": 71
    },
    {
      "midi": 57,
      "hit": false,
      "t": 12399.999999999998,
      "d": 720,
      "v": 67
    },
    {
      "midi": 62,
      "hit": false,
      "t": 12599.999999999998,
      "d": 513.3333333333339,
      "v": 83
    },
    {
      "midi": 66,
      "hit": false,
      "t": 12799.999999999998,
      "d": 233.33333333333394,
      "v": 69
    },
    {
      "midi": 69,
      "hit": false,
      "t": 12999.999999999998,
      "d": 120,
      "v": 72
    },
    {
      "midi": 38,
      "hit": false,
      "t": 13199.999999999998,
      "d": 1200,
      "v": 49
    },
    {
      "midi": 57,
      "hit": false,
      "t": 13199.999999999998,
      "d": 1200,
      "v": 65
    },
    {
      "midi": 62,
      "hit": false,
      "t": 13199.999999999998,
      "d": 1200,
      "v": 65
    },
    {
      "midi": 66,
      "hit": false,
      "t": 13199.999999999998,
      "d": 1200,
      "v": 65
    },
    {
      "midi": 38,
      "hit": false,
      "t": 14399.999999999998,
      "d": 1200,
      "v": 49
    },
    {
      "midi": 57,
      "hit": false,
      "t": 14399.999999999998,
      "d": 1200,
      "v": 65
    },
    {
      "midi": 62,
      "hit": false,
      "t": 14399.999999999998,
      "d": 1200,
      "v": 65
    },
    {
      "midi": 66,
      "hit": false,
      "t": 14399.999999999998,
      "d": 1200,
      "v": 65
    },
    {
      "midi": 57,
      "hit": false,
      "t": 15599.999999999998,
      "d": 523.3333333333339,
      "v": 60
    },
    {
      "midi": 62,
      "hit": false,
      "t": 15599.999999999998,
      "d": 540,
      "v": 67
    },
    {
      "midi": 66,
      "hit": false,
      "t": 15599.999999999998,
      "d": 556.6666666666661,
      "v": 72
    },
    {
      "midi": 69,
      "hit": false,
      "t": 15599.999999999998,
      "d": 613.3333333333321,
      "v": 70
    },
    {
      "midi": 38,
      "hit": false,
      "t": 15599.999999999998,
      "d": 1016.6666666666661,
      "v": 66
    },
    {
      "midi": 50,
      "hit": false,
      "t": 15999.999999999998,
      "d": 616.6666666666661,
      "v": 35
    },
    {
      "midi": 62,
      "hit": false,
      "t": 16399.999999999996,
      "d": 200,
      "v": 73
    },
    {
      "midi": 66,
      "hit": false,
      "t": 16399.999999999996,
      "d": 200,
      "v": 65
    },
    {
      "midi": 57,
      "hit": false,
      "t": 16399.999999999996,
      "d": 216.66666666666788,
      "v": 64
    },
    {
      "midi": 55,
      "hit": false,
      "t": 16799.999999999996,
      "d": 523.3333333333321,
      "v": 60
    },
    {
      "midi": 60,
      "hit": false,
      "t": 16799.999999999996,
      "d": 540,
      "v": 67
    },
    {
      "midi": 64,
      "hit": false,
      "t": 16799.999999999996,
      "d": 556.6666666666679,
      "v": 72
    },
    {
      "midi": 67,
      "hit": false,
      "t": 16799.999999999996,
      "d": 613.3333333333358,
      "v": 70
    },
    {
      "midi": 36,
      "hit": false,
      "t": 16799.999999999996,
      "d": 1016.6666666666715,
      "v": 66
    },
    {
      "midi": 48,
      "hit": false,
      "t": 17199.999999999996,
      "d": 616.6666666666715,
      "v": 35
    },
    {
      "midi": 60,
      "hit": false,
      "t": 17600,
      "d": 200,
      "v": 73
    },
    {
      "midi": 64,
      "hit": false,
      "t": 17600,
      "d": 200,
      "v": 65
    },
    {
      "midi": 55,
      "hit": false,
      "t": 17600,
      "d": 216.66666666666788,
      "v": 64
    },
    {
      "midi": 36,
      "hit": false,
      "t": 18000,
      "d": 1200,
      "v": 49
    },
    {
      "midi": 55,
      "hit": false,
      "t": 18000,
      "d": 1200,
      "v": 65
    },
    {
      "midi": 60,
      "hit": false,
      "t": 18000,
      "d": 1200,
      "v": 65
    },
    {
      "midi": 64,
      "hit": false,
      "t": 18000,
      "d": 1200,
      "v": 65
    },
    {
      "midi": 43,
      "hit": false,
      "t": 19200,
      "d": 456.6666666666679,
      "v": 48
    },
    {
      "midi": 59,
      "hit": false,
      "t": 19200,
      "d": 510,
      "v": 57
    },
    {
      "midi": 62,
      "hit": false,
      "t": 19200,
      "d": 566.6666666666679,
      "v": 74
    },
    {
      "midi": 67,
      "hit": false,
      "t": 19200,
      "d": 566.6666666666679,
      "v": 71
    },
    {
      "midi": 71,
      "hit": false,
      "t": 19200,
      "d": 603.3333333333358,
      "v": 68
    },
    {
      "midi": 59,
      "hit": false,
      "t": 19803.333333333336,
      "d": 596.6666666666679,
      "v": 67
    },
    {
      "midi": 62,
      "hit": false,
      "t": 20000.000000000004,
      "d": 333.3333333333321,
      "v": 84
    },
    {
      "midi": 71,
      "hit": false,
      "t": 20200.000000000004,
      "d": 143.33333333333212,
      "v": 89
    },
    {
      "midi": 59,
      "hit": false,
      "t": 20400.000000000004,
      "d": 813.3333333333321,
      "v": 57
    },
    {
      "midi": 62,
      "hit": false,
      "t": 20400.000000000004,
      "d": 1056.6666666666679,
      "v": 73
    },
    {
      "midi": 43,
      "hit": false,
      "t": 20400.000000000004,
      "d": 1100,
      "v": 57
    },
    {
      "midi": 67,
      "hit": false,
      "t": 20400.000000000004,
      "d": 1186.6666666666679,
      "v": 72
    },
    {
      "midi": 71,
      "hit": false,
      "t": 20400.000000000004,
      "d": 1200,
      "v": 68
    },
    {
      "midi": 59,
      "hit": false,
      "t": 21400.000000000004,
      "d": 186.66666666666788,
      "v": 67
    },
    {
      "midi": 59,
      "hit": false,
      "t": 21600.000000000004,
      "d": 523.3333333333321,
      "v": 60
    },
    {
      "midi": 62,
      "hit": false,
      "t": 21600.000000000004,
      "d": 540,
      "v": 67
    },
    {
      "midi": 67,
      "hit": false,
      "t": 21600.000000000004,
      "d": 556.6666666666679,
      "v": 72
    },
    {
      "midi": 71,
      "hit": false,
      "t": 21600.000000000004,
      "d": 613.3333333333358,
      "v": 70
    },
    {
      "midi": 43,
      "hit": false,
      "t": 21600.000000000004,
      "d": 1016.6666666666715,
      "v": 66
    },
    {
      "midi": 62,
      "hit": false,
      "t": 22400.000000000007,
      "d": 200,
      "v": 73
    },
    {
      "midi": 67,
      "hit": false,
      "t": 22400.000000000007,
      "d": 200,
      "v": 65
    },
    {
      "midi": 59,
      "hit": false,
      "t": 22400.000000000007,
      "d": 216.66666666666788,
      "v": 64
    },
    {
      "midi": 38,
      "hit": false,
      "t": 22800.000000000007,
      "d": 1200,
      "v": 49
    },
    {
      "midi": 60,
      "hit": false,
      "t": 22800.000000000007,
      "d": 1200,
      "v": 65
    },
    {
      "midi": 62,
      "hit": false,
      "t": 22800.000000000007,
      "d": 1200,
      "v": 65
    },
    {
      "midi": 66,
      "hit": false,
      "t": 22800.000000000007,
      "d": 1200,
      "v": 65
    },
    {
      "midi": 69,
      "hit": false,
      "t": 22800.000000000007,
      "d": 1200,
      "v": 65
    },
    {
      "midi": 59,
      "hit": false,
      "t": 24000.000000000007,
      "d": 813.3333333333321,
      "v": 57
    },
    {
      "midi": 62,
      "hit": false,
      "t": 24000.000000000007,
      "d": 1056.6666666666679,
      "v": 73
    },
    {
      "midi": 43,
      "hit": false,
      "t": 24000.000000000007,
      "d": 1100,
      "v": 57
    },
    {
      "midi": 67,
      "hit": false,
      "t": 24000.000000000007,
      "d": 1186.6666666666679,
      "v": 72
    },
    {
      "midi": 71,
      "hit": false,
      "t": 24000.000000000007,
      "d": 1200,
      "v": 68
    },
    {
      "midi": 59,
      "hit": false,
      "t": 25000.000000000007,
      "d": 186.66666666666788,
      "v": 67
    },
    {
      "midi": 43,
      "hit": false,
      "t": 25200.000000000007,
      "d": 1200,
      "v": 49
    },
    {
      "midi": 55,
      "hit": false,
      "t": 25200.000000000007,
      "d": 1200,
      "v": 65
    },
    {
      "midi": 59,
      "hit": false,
      "t": 25200.000000000007,
      "d": 1200,
      "v": 65
    },
    {
      "midi": 62,
      "hit": false,
      "t": 25200.000000000007,
      "d": 1200,
      "v": 65
    },
    {
      "midi": 38,
      "hit": false,
      "t": 26400.000000000007,
      "d": 1200,
      "v": 49
    },
    {
      "midi": 57,
      "hit": false,
      "t": 26400.000000000007,
      "d": 1200,
      "v": 65
    },
    {
      "midi": 62,
      "hit": false,
      "t": 26400.000000000007,
      "d": 1200,
      "v": 65
    },
    {
      "midi": 66,
      "hit": false,
      "t": 26400.000000000007,
      "d": 1200,
      "v": 65
    },
    {
      "midi": 38,
      "hit": false,
      "t": 27600.000000000007,
      "d": 1200,
      "v": 49
    },
    {
      "midi": 57,
      "hit": false,
      "t": 27600.000000000007,
      "d": 1200,
      "v": 65
    },
    {
      "midi": 62,
      "hit": false,
      "t": 27600.000000000007,
      "d": 1200,
      "v": 65
    },
    {
      "midi": 66,
      "hit": false,
      "t": 27600.000000000007,
      "d": 1200,
      "v": 65
    },
    {
      "midi": 55,
      "hit": false,
      "t": 28800.000000000007,
      "d": 523.3333333333321,
      "v": 60
    },
    {
      "midi": 60,
      "hit": false,
      "t": 28800.000000000007,
      "d": 540,
      "v": 67
    },
    {
      "midi": 64,
      "hit": false,
      "t": 28800.000000000007,
      "d": 556.6666666666679,
      "v": 72
    },
    {
      "midi": 67,
      "hit": false,
      "t": 28800.000000000007,
      "d": 613.3333333333358,
      "v": 70
    },
    {
      "midi": 36,
      "hit": false,
      "t": 28800.000000000007,
      "d": 1016.6666666666715,
      "v": 66
    },
    {
      "midi": 48,
      "hit": false,
      "t": 29200.000000000007,
      "d": 616.6666666666715,
      "v": 35
    },
    {
      "midi": 60,
      "hit": false,
      "t": 29600.00000000001,
      "d": 200,
      "v": 73
    },
    {
      "midi": 64,
      "hit": false,
      "t": 29600.00000000001,
      "d": 200,
      "v": 65
    },
    {
      "midi": 55,
      "hit": false,
      "t": 29600.00000000001,
      "d": 216.66666666666788,
      "v": 64
    },
    {
      "midi": 55,
      "hit": false,
      "t": 30000.00000000001,
      "d": 706.6666666666679,
      "v": 72
    },
    {
      "midi": 60,
      "hit": false,
      "t": 30000.00000000001,
      "d": 706.6666666666679,
      "v": 72
    },
    {
      "midi": 64,
      "hit": false,
      "t": 30000.00000000001,
      "d": 706.6666666666679,
      "v": 72
    },
    {
      "midi": 36,
      "hit": false,
      "t": 30000.00000000001,
      "d": 846.6666666666679,
      "v": 54
    },
    {
      "midi": 48,
      "hit": false,
      "t": 30800.00000000001,
      "d": 46.66666666666788,
      "v": 62
    },
    {
      "midi": 55,
      "hit": false,
      "t": 30800.00000000001,
      "d": 73.33333333333576,
      "v": 75
    },
    {
      "midi": 60,
      "hit": false,
      "t": 30800.00000000001,
      "d": 73.33333333333576,
      "v": 75
    },
    {
      "midi": 64,
      "hit": false,
      "t": 30800.00000000001,
      "d": 73.33333333333576,
      "v": 75
    },
    {
      "midi": 36,
      "hit": false,
      "t": 31200.000000000015,
      "d": 1200,
      "v": 49
    },
    {
      "midi": 55,
      "hit": false,
      "t": 31200.000000000015,
      "d": 1200,
      "v": 65
    },
    {
      "midi": 60,
      "hit": false,
      "t": 31200.000000000015,
      "d": 1200,
      "v": 65
    },
    {
      "midi": 64,
      "hit": false,
      "t": 31200.000000000015,
      "d": 1200,
      "v": 65
    },
    {
      "midi": 55,
      "hit": false,
      "t": 32400.000000000015,
      "d": 813.3333333333358,
      "v": 57
    },
    {
      "midi": 60,
      "hit": false,
      "t": 32400.000000000015,
      "d": 1056.6666666666642,
      "v": 73
    },
    {
      "midi": 36,
      "hit": false,
      "t": 32400.000000000015,
      "d": 1186.6666666666642,
      "v": 57
    },
    {
      "midi": 64,
      "hit": false,
      "t": 32400.000000000015,
      "d": 1186.6666666666642,
      "v": 72
    },
    {
      "midi": 67,
      "hit": false,
      "t": 32400.000000000015,
      "d": 1200,
      "v": 68
    },
    {
      "midi": 48,
      "hit": false,
      "t": 33213.33333333335,
      "d": 286.66666666666424,
      "v": 59
    },
    {
      "midi": 55,
      "hit": false,
      "t": 33400.000000000015,
      "d": 186.66666666666424,
      "v": 67
    },
    {
      "midi": 59,
      "hit": false,
      "t": 33600.000000000015,
      "d": 523.3333333333358,
      "v": 60
    },
    {
      "midi": 62,
      "hit": false,
      "t": 33600.000000000015,
      "d": 540,
      "v": 67
    },
    {
      "midi": 67,
      "hit": false,
      "t": 33600.000000000015,
      "d": 556.6666666666642,
      "v": 72
    },
    {
      "midi": 71,
      "hit": false,
      "t": 33600.000000000015,
      "d": 613.3333333333285,
      "v": 70
    },
    {
      "midi": 43,
      "hit": false,
      "t": 33600.000000000015,
      "d": 1016.666666666657,
      "v": 66
    },
    {
      "midi": 62,
      "hit": false,
      "t": 34400.00000000001,
      "d": 200,
      "v": 73
    },
    {
      "midi": 67,
      "hit": false,
      "t": 34400.00000000001,
      "d": 200,
      "v": 65
    },
    {
      "midi": 59,
      "hit": false,
      "t": 34400.00000000001,
      "d": 216.66666666666424,
      "v": 64
    },
    {
      "midi": 43,
      "hit": false,
      "t": 34800.00000000001,
      "d": 1200,
      "v": 49
    },
    {
      "midi": 55,
      "hit": false,
      "t": 34800.00000000001,
      "d": 1200,
      "v": 65
    },
    {
      "midi": 59,
      "hit": false,
      "t": 34800.00000000001,
      "d": 1200,
      "v": 65
    },
    {
      "midi": 62,
      "hit": false,
      "t": 34800.00000000001,
      "d": 1200,
      "v": 65
    },
    {
      "midi": 43,
      "hit": false,
      "t": 36000.00000000001,
      "d": 456.66666666666424,
      "v": 48
    },
    {
      "midi": 59,
      "hit": false,
      "t": 36000.00000000001,
      "d": 510,
      "v": 57
    },
    {
      "midi": 62,
      "hit": false,
      "t": 36000.00000000001,
      "d": 566.6666666666642,
      "v": 74
    },
    {
      "midi": 67,
      "hit": false,
      "t": 36000.00000000001,
      "d": 566.6666666666642,
      "v": 71
    },
    {
      "midi": 71,
      "hit": false,
      "t": 36000.00000000001,
      "d": 603.3333333333285,
      "v": 68
    },
    {
      "midi": 59,
      "hit": false,
      "t": 36603.333333333336,
      "d": 596.6666666666642,
      "v": 67
    },
    {
      "midi": 62,
      "hit": false,
      "t": 36800,
      "d": 333.33333333333576,
      "v": 84
    },
    {
      "midi": 71,
      "hit": false,
      "t": 37000,
      "d": 143.33333333333576,
      "v": 89
    },
    {
      "midi": 55,
      "hit": false,
      "t": 37200,
      "d": 706.6666666666642,
      "v": 72
    },
    {
      "midi": 59,
      "hit": false,
      "t": 37200,
      "d": 706.6666666666642,
      "v": 72
    },
    {
      "midi": 62,
      "hit": false,
      "t": 37200,
      "d": 706.6666666666642,
      "v": 72
    },
    {
      "midi": 43,
      "hit": false,
      "t": 37200,
      "d": 846.6666666666642,
      "v": 54
    },
    {
      "midi": 55,
      "hit": false,
      "t": 38000,
      "d": 73.33333333332848,
      "v": 75
    },
    {
      "midi": 59,
      "hit": false,
      "t": 38000,
      "d": 73.33333333332848,
      "v": 75
    },
    {
      "midi": 62,
      "hit": false,
      "t": 38000,
      "d": 73.33333333332848,
      "v": 75
    },
    {
      "midi": 38,
      "hit": false,
      "t": 38399.99999999999,
      "d": 1200,
      "v": 49
    },
    {
      "midi": 57,
      "hit": false,
      "t": 38399.99999999999,
      "d": 1200,
      "v": 65
    },
    {
      "midi": 62,
      "hit": false,
      "t": 38399.99999999999,
      "d": 1200,
      "v": 65
    },
    {
      "midi": 66,
      "hit": false,
      "t": 38399.99999999999,
      "d": 1200,
      "v": 65
    },
    {
      "midi": 57,
      "hit": false,
      "t": 39599.99999999999,
      "d": 706.6666666666642,
      "v": 72
    },
    {
      "midi": 62,
      "hit": false,
      "t": 39599.99999999999,
      "d": 706.6666666666642,
      "v": 72
    },
    {
      "midi": 66,
      "hit": false,
      "t": 39599.99999999999,
      "d": 706.6666666666642,
      "v": 72
    },
    {
      "midi": 38,
      "hit": false,
      "t": 39599.99999999999,
      "d": 846.6666666666642,
      "v": 54
    },
    {
      "midi": 50,
      "hit": false,
      "t": 40399.99999999999,
      "d": 46.66666666666424,
      "v": 62
    },
    {
      "midi": 57,
      "hit": false,
      "t": 40399.99999999999,
      "d": 73.33333333332848,
      "v": 75
    },
    {
      "midi": 62,
      "hit": false,
      "t": 40399.99999999999,
      "d": 73.33333333332848,
      "v": 75
    },
    {
      "midi": 66,
      "hit": false,
      "t": 40399.99999999999,
      "d": 73.33333333332848,
      "v": 75
    },
    {
      "midi": 50,
      "hit": false,
      "t": 40799.999999999985,
      "d": 456.66666666666424,
      "v": 48
    },
    {
      "midi": 57,
      "hit": false,
      "t": 40799.999999999985,
      "d": 510,
      "v": 57
    },
    {
      "midi": 62,
      "hit": false,
      "t": 40799.999999999985,
      "d": 566.6666666666642,
      "v": 74
    },
    {
      "midi": 66,
      "hit": false,
      "t": 40799.999999999985,
      "d": 566.6666666666642,
      "v": 71
    },
    {
      "midi": 69,
      "hit": false,
      "t": 40799.999999999985,
      "d": 603.3333333333285,
      "v": 68
    },
    {
      "midi": 38,
      "hit": false,
      "t": 40799.999999999985,
      "d": 913.3333333333285,
      "v": 54
    },
    {
      "midi": 57,
      "hit": false,
      "t": 41403.333333333314,
      "d": 596.6666666666642,
      "v": 67
    },
    {
      "midi": 62,
      "hit": false,
      "t": 41599.99999999998,
      "d": 333.33333333333576,
      "v": 84
    },
    {
      "midi": 69,
      "hit": false,
      "t": 41799.99999999998,
      "d": 143.33333333333576,
      "v": 89
    },
    {
      "midi": 50,
      "hit": false,
      "t": 41999.99999999998,
      "d": 456.66666666666424,
      "v": 48
    },
    {
      "midi": 57,
      "hit": false,
      "t": 41999.99999999998,
      "d": 510,
      "v": 57
    },
    {
      "midi": 60,
      "hit": false,
      "t": 41999.99999999998,
      "d": 566.6666666666642,
      "v": 74
    },
    {
      "midi": 62,
      "hit": false,
      "t": 41999.99999999998,
      "d": 566.6666666666642,
      "v": 71
    },
    {
      "midi": 66,
      "hit": false,
      "t": 41999.99999999998,
      "d": 603.3333333333285,
      "v": 68
    },
    {
      "midi": 38,
      "hit": false,
      "t": 41999.99999999998,
      "d": 913.3333333333285,
      "v": 54
    },
    {
      "midi": 57,
      "hit": false,
      "t": 42603.33333333331,
      "d": 596.6666666666642,
      "v": 67
    },
    {
      "midi": 60,
      "hit": false,
      "t": 42799.99999999997,
      "d": 333.33333333333576,
      "v": 84
    },
    {
      "midi": 66,
      "hit": false,
      "t": 42999.99999999997,
      "d": 143.33333333333576,
      "v": 89
    },
    {
      "midi": 59,
      "hit": false,
      "t": 43199.99999999997,
      "d": 523.3333333333358,
      "v": 60
    },
    {
      "midi": 62,
      "hit": false,
      "t": 43199.99999999997,
      "d": 540,
      "v": 67
    },
    {
      "midi": 67,
      "hit": false,
      "t": 43199.99999999997,
      "d": 556.6666666666642,
      "v": 72
    },
    {
      "midi": 71,
      "hit": false,
      "t": 43199.99999999997,
      "d": 613.3333333333285,
      "v": 70
    },
    {
      "midi": 43,
      "hit": false,
      "t": 43199.99999999997,
      "d": 1016.666666666657,
      "v": 66
    },
    {
      "midi": 62,
      "hit": false,
      "t": 43999.99999999996,
      "d": 200,
      "v": 73
    },
    {
      "midi": 67,
      "hit": false,
      "t": 43999.99999999996,
      "d": 200,
      "v": 65
    },
    {
      "midi": 59,
      "hit": false,
      "t": 43999.99999999996,
      "d": 216.66666666666424,
      "v": 64
    },
    {
      "midi": 43,
      "hit": false,
      "t": 44399.99999999996,
      "d": 1200,
      "v": 49
    },
    {
      "midi": 55,
      "hit": false,
      "t": 44399.99999999996,
      "d": 1200,
      "v": 65
    },
    {
      "midi": 59,
      "hit": false,
      "t": 44399.99999999996,
      "d": 1200,
      "v": 65
    },
    {
      "midi": 62,
      "hit": false,
      "t": 44399.99999999996,
      "d": 1200,
      "v": 65
    },
    {
      "midi": 50,
      "hit": false,
      "t": 45599.99999999996,
      "d": 456.66666666666424,
      "v": 48
    },
    {
      "midi": 57,
      "hit": false,
      "t": 45599.99999999996,
      "d": 510,
      "v": 57
    },
    {
      "midi": 62,
      "hit": false,
      "t": 45599.99999999996,
      "d": 566.6666666666642,
      "v": 74
    },
    {
      "midi": 66,
      "hit": false,
      "t": 45599.99999999996,
      "d": 566.6666666666642,
      "v": 71
    },
    {
      "midi": 69,
      "hit": false,
      "t": 45599.99999999996,
      "d": 603.3333333333285,
      "v": 68
    },
    {
      "midi": 38,
      "hit": false,
      "t": 45599.99999999996,
      "d": 913.3333333333285,
      "v": 54
    },
    {
      "midi": 57,
      "hit": false,
      "t": 46203.33333333329,
      "d": 596.6666666666642,
      "v": 67
    },
    {
      "midi": 62,
      "hit": false,
      "t": 46399.999999999956,
      "d": 333.33333333333576,
      "v": 84
    },
    {
      "midi": 69,
      "hit": false,
      "t": 46599.999999999956,
      "d": 143.33333333333576,
      "v": 89
    },
    {
      "midi": 57,
      "hit": false,
      "t": 46799.999999999956,
      "d": 523.3333333333358,
      "v": 60
    },
    {
      "midi": 62,
      "hit": false,
      "t": 46799.999999999956,
      "d": 540,
      "v": 67
    },
    {
      "midi": 66,
      "hit": false,
      "t": 46799.999999999956,
      "d": 556.6666666666642,
      "v": 72
    },
    {
      "midi": 69,
      "hit": false,
      "t": 46799.999999999956,
      "d": 613.3333333333285,
      "v": 70
    },
    {
      "midi": 38,
      "hit": false,
      "t": 46799.999999999956,
      "d": 1016.666666666657,
      "v": 66
    },
    {
      "midi": 50,
      "hit": false,
      "t": 47199.999999999956,
      "d": 616.666666666657,
      "v": 35
    },
    {
      "midi": 62,
      "hit": false,
      "t": 47599.99999999995,
      "d": 200,
      "v": 73
    },
    {
      "midi": 66,
      "hit": false,
      "t": 47599.99999999995,
      "d": 200,
      "v": 65
    },
    {
      "midi": 57,
      "hit": false,
      "t": 47599.99999999995,
      "d": 216.66666666666424,
      "v": 64
    },
    {
      "midi": 36,
      "hit": false,
      "t": 47999.99999999995,
      "d": 1200,
      "v": 49
    },
    {
      "midi": 55,
      "hit": false,
      "t": 47999.99999999995,
      "d": 1200,
      "v": 65
    },
    {
      "midi": 60,
      "hit": false,
      "t": 47999.99999999995,
      "d": 1200,
      "v": 65
    },
    {
      "midi": 64,
      "hit": false,
      "t": 47999.99999999995,
      "d": 1200,
      "v": 65
    },
    {
      "midi": 55,
      "hit": false,
      "t": 49199.99999999995,
      "d": 706.6666666666642,
      "v": 72
    },
    {
      "midi": 60,
      "hit": false,
      "t": 49199.99999999995,
      "d": 706.6666666666642,
      "v": 72
    },
    {
      "midi": 64,
      "hit": false,
      "t": 49199.99999999995,
      "d": 706.6666666666642,
      "v": 72
    },
    {
      "midi": 36,
      "hit": false,
      "t": 49199.99999999995,
      "d": 846.6666666666642,
      "v": 54
    },
    {
      "midi": 48,
      "hit": false,
      "t": 49999.99999999995,
      "d": 46.66666666666424,
      "v": 62
    },
    {
      "midi": 55,
      "hit": false,
      "t": 49999.99999999995,
      "d": 73.33333333332848,
      "v": 75
    },
    {
      "midi": 60,
      "hit": false,
      "t": 49999.99999999995,
      "d": 73.33333333332848,
      "v": 75
    },
    {
      "midi": 64,
      "hit": false,
      "t": 49999.99999999995,
      "d": 73.33333333332848,
      "v": 75
    },
    {
      "midi": 55,
      "hit": false,
      "t": 50399.99999999994,
      "d": 523.3333333333358,
      "v": 60
    },
    {
      "midi": 60,
      "hit": false,
      "t": 50399.99999999994,
      "d": 540,
      "v": 67
    },
    {
      "midi": 64,
      "hit": false,
      "t": 50399.99999999994,
      "d": 556.6666666666642,
      "v": 72
    },
    {
      "midi": 67,
      "hit": false,
      "t": 50399.99999999994,
      "d": 613.3333333333285,
      "v": 70
    },
    {
      "midi": 36,
      "hit": false,
      "t": 50399.99999999994,
      "d": 1016.666666666657,
      "v": 66
    },
    {
      "midi": 48,
      "hit": false,
      "t": 50799.99999999994,
      "d": 616.666666666657,
      "v": 35
    },
    {
      "midi": 60,
      "hit": false,
      "t": 51199.999999999935,
      "d": 200,
      "v": 73
    },
    {
      "midi": 64,
      "hit": false,
      "t": 51199.999999999935,
      "d": 200,
      "v": 65
    },
    {
      "midi": 55,
      "hit": false,
      "t": 51199.999999999935,
      "d": 216.66666666666424,
      "v": 64
    },
    {
      "midi": 55,
      "hit": false,
      "t": 51599.999999999935,
      "d": 523.3333333333358,
      "v": 60
    },
    {
      "midi": 60,
      "hit": false,
      "t": 51599.999999999935,
      "d": 540,
      "v": 67
    },
    {
      "midi": 64,
      "hit": false,
      "t": 51599.999999999935,
      "d": 556.6666666666642,
      "v": 72
    },
    {
      "midi": 67,
      "hit": false,
      "t": 51599.999999999935,
      "d": 613.3333333333285,
      "v": 70
    },
    {
      "midi": 36,
      "hit": false,
      "t": 51599.999999999935,
      "d": 1016.666666666657,
      "v": 66
    },
    {
      "midi": 48,
      "hit": false,
      "t": 51999.999999999935,
      "d": 616.666666666657,
      "v": 35
    },
    {
      "midi": 60,
      "hit": false,
      "t": 52399.99999999993,
      "d": 200,
      "v": 73
    },
    {
      "midi": 64,
      "hit": false,
      "t": 52399.99999999993,
      "d": 200,
      "v": 65
    },
    {
      "midi": 55,
      "hit": false,
      "t": 52399.99999999993,
      "d": 216.66666666666424,
      "v": 64
    },
    {
      "midi": 57,
      "hit": false,
      "t": 52799.99999999993,
      "d": 706.6666666666642,
      "v": 72
    },
    {
      "midi": 62,
      "hit": false,
      "t": 52799.99999999993,
      "d": 706.6666666666642,
      "v": 72
    },
    {
      "midi": 66,
      "hit": false,
      "t": 52799.99999999993,
      "d": 706.6666666666642,
      "v": 72
    },
    {
      "midi": 38,
      "hit": false,
      "t": 52799.99999999993,
      "d": 846.6666666666642,
      "v": 54
    },
    {
      "midi": 50,
      "hit": false,
      "t": 53599.99999999993,
      "d": 46.66666666666424,
      "v": 62
    },
    {
      "midi": 57,
      "hit": false,
      "t": 53599.99999999993,
      "d": 73.33333333332848,
      "v": 75
    },
    {
      "midi": 62,
      "hit": false,
      "t": 53599.99999999993,
      "d": 73.33333333332848,
      "v": 75
    },
    {
      "midi": 66,
      "hit": false,
      "t": 53599.99999999993,
      "d": 73.33333333332848,
      "v": 75
    },
    {
      "midi": 38,
      "hit": false,
      "t": 53999.99999999992,
      "d": 1200,
      "v": 72
    },
    {
      "midi": 50,
      "hit": false,
      "t": 54199.99999999992,
      "d": 1000,
      "v": 71
    },
    {
      "midi": 57,
      "hit": false,
      "t": 54399.99999999992,
      "d": 720,
      "v": 67
    },
    {
      "midi": 62,
      "hit": false,
      "t": 54599.99999999992,
      "d": 513.3333333333358,
      "v": 83
    },
    {
      "midi": 66,
      "hit": false,
      "t": 54799.99999999992,
      "d": 233.33333333333576,
      "v": 69
    },
    {
      "midi": 69,
      "hit": false,
      "t": 54999.99999999992,
      "d": 120,
      "v": 72
    },
    {
      "midi": 50,
      "hit": false,
      "t": 55199.99999999992,
      "d": 456.66666666666424,
      "v": 48
    },
    {
      "midi": 57,
      "hit": false,
      "t": 55199.99999999992,
      "d": 510,
      "v": 57
    },
    {
      "midi": 62,
      "hit": false,
      "t": 55199.99999999992,
      "d": 566.6666666666642,
      "v": 74
    },
    {
      "midi": 66,
      "hit": false,
      "t": 55199.99999999992,
      "d": 566.6666666666642,
      "v": 71
    },
    {
      "midi": 69,
      "hit": false,
      "t": 55199.99999999992,
      "d": 603.3333333333285,
      "v": 68
    },
    {
      "midi": 38,
      "hit": false,
      "t": 55199.99999999992,
      "d": 913.3333333333285,
      "v": 54
    },
    {
      "midi": 57,
      "hit": false,
      "t": 55803.33333333325,
      "d": 596.6666666666642,
      "v": 67
    },
    {
      "midi": 62,
      "hit": false,
      "t": 55999.99999999991,
      "d": 333.33333333333576,
      "v": 84
    },
    {
      "midi": 69,
      "hit": false,
      "t": 56199.99999999991,
      "d": 143.33333333333576,
      "v": 89
    },
    {
      "midi": 38,
      "hit": false,
      "t": 56399.99999999991,
      "d": 1200,
      "v": 72
    },
    {
      "midi": 50,
      "hit": false,
      "t": 56599.99999999991,
      "d": 1000,
      "v": 71
    },
    {
      "midi": 57,
      "hit": false,
      "t": 56799.99999999991,
      "d": 720,
      "v": 67
    },
    {
      "midi": 62,
      "hit": false,
      "t": 56999.99999999991,
      "d": 513.3333333333358,
      "v": 83
    },
    {
      "midi": 66,
      "hit": false,
      "t": 57199.99999999991,
      "d": 233.33333333333576,
      "v": 69
    },
    {
      "midi": 69,
      "hit": false,
      "t": 57399.99999999991,
      "d": 120,
      "v": 72
    },
    {
      "midi": 57,
      "hit": false,
      "t": 57599.99999999991,
      "d": 523.3333333333358,
      "v": 60
    },
    {
      "midi": 60,
      "hit": false,
      "t": 57599.99999999991,
      "d": 540,
      "v": 67
    },
    {
      "midi": 62,
      "hit": false,
      "t": 57599.99999999991,
      "d": 556.6666666666642,
      "v": 72
    },
    {
      "midi": 66,
      "hit": false,
      "t": 57599.99999999991,
      "d": 613.3333333333285,
      "v": 70
    },
    {
      "midi": 38,
      "hit": false,
      "t": 57599.99999999991,
      "d": 1016.666666666657,
      "v": 66
    },
    {
      "midi": 50,
      "hit": false,
      "t": 57999.99999999991,
      "d": 616.666666666657,
      "v": 35
    },
    {
      "midi": 60,
      "hit": false,
      "t": 58399.999999999905,
      "d": 200,
      "v": 73
    },
    {
      "midi": 62,
      "hit": false,
      "t": 58399.999999999905,
      "d": 200,
      "v": 65
    },
    {
      "midi": 57,
      "hit": false,
      "t": 58399.999999999905,
      "d": 216.66666666666424,
      "v": 64
    },
    {
      "midi": 60,
      "hit": false,
      "t": 58799.999999999905,
      "d": 706.6666666666642,
      "v": 72
    },
    {
      "midi": 62,
      "hit": false,
      "t": 58799.999999999905,
      "d": 706.6666666666642,
      "v": 72
    },
    {
      "midi": 66,
      "hit": false,
      "t": 58799.999999999905,
      "d": 706.6666666666642,
      "v": 72
    },
    {
      "midi": 69,
      "hit": false,
      "t": 58799.999999999905,
      "d": 706.6666666666642,
      "v": 72
    },
    {
      "midi": 38,
      "hit": false,
      "t": 58799.999999999905,
      "d": 846.6666666666642,
      "v": 54
    },
    {
      "midi": 50,
      "hit": false,
      "t": 59599.999999999905,
      "d": 46.66666666666424,
      "v": 62
    },
    {
      "midi": 60,
      "hit": false,
      "t": 59599.999999999905,
      "d": 73.33333333332848,
      "v": 75
    },
    {
      "midi": 62,
      "hit": false,
      "t": 59599.999999999905,
      "d": 73.33333333332848,
      "v": 75
    },
    {
      "midi": 66,
      "hit": false,
      "t": 59599.999999999905,
      "d": 73.33333333332848,
      "v": 75
    },
    {
      "midi": 69,
      "hit": false,
      "t": 59599.999999999905,
      "d": 73.33333333332848,
      "v": 75
    },
    {
      "midi": 43,
      "hit": false,
      "t": 59999.9999999999,
      "d": 1200,
      "v": 49
    },
    {
      "midi": 55,
      "hit": false,
      "t": 59999.9999999999,
      "d": 1200,
      "v": 65
    },
    {
      "midi": 59,
      "hit": false,
      "t": 59999.9999999999,
      "d": 1200,
      "v": 65
    },
    {
      "midi": 62,
      "hit": false,
      "t": 59999.9999999999,
      "d": 1200,
      "v": 65
    },
    {
      "midi": 43,
      "hit": false,
      "t": 61199.9999999999,
      "d": 456.66666666666424,
      "v": 48
    },
    {
      "midi": 59,
      "hit": false,
      "t": 61199.9999999999,
      "d": 510,
      "v": 57
    },
    {
      "midi": 62,
      "hit": false,
      "t": 61199.9999999999,
      "d": 566.6666666666642,
      "v": 74
    },
    {
      "midi": 67,
      "hit": false,
      "t": 61199.9999999999,
      "d": 566.6666666666642,
      "v": 71
    },
    {
      "midi": 71,
      "hit": false,
      "t": 61199.9999999999,
      "d": 603.3333333333285,
      "v": 68
    },
    {
      "midi": 59,
      "hit": false,
      "t": 61803.33333333323,
      "d": 596.6666666666642,
      "v": 67
    },
    {
      "midi": 62,
      "hit": false,
      "t": 61999.99999999989,
      "d": 333.33333333333576,
      "v": 84
    },
    {
      "midi": 71,
      "hit": false,
      "t": 62199.99999999989,
      "d": 143.33333333333576,
      "v": 89
    },
    {
      "midi": 57,
      "hit": false,
      "t": 62399.99999999989,
      "d": 523.3333333333358,
      "v": 60
    },
    {
      "midi": 62,
      "hit": false,
      "t": 62399.99999999989,
      "d": 540,
      "v": 67
    },
    {
      "midi": 66,
      "hit": false,
      "t": 62399.99999999989,
      "d": 556.6666666666642,
      "v": 72
    },
    {
      "midi": 69,
      "hit": false,
      "t": 62399.99999999989,
      "d": 613.3333333333285,
      "v": 70
    },
    {
      "midi": 38,
      "hit": false,
      "t": 62399.99999999989,
      "d": 1016.666666666657,
      "v": 66
    },
    {
      "midi": 50,
      "hit": false,
      "t": 62799.99999999989,
      "d": 616.666666666657,
      "v": 35
    },
    {
      "midi": 62,
      "hit": false,
      "t": 63199.99999999988,
      "d": 200,
      "v": 73
    },
    {
      "midi": 66,
      "hit": false,
      "t": 63199.99999999988,
      "d": 200,
      "v": 65
    },
    {
      "midi": 57,
      "hit": false,
      "t": 63199.99999999988,
      "d": 216.66666666666424,
      "v": 64
    },
    {
      "midi": 57,
      "hit": false,
      "t": 63599.99999999988,
      "d": 813.3333333333358,
      "v": 57
    },
    {
      "midi": 62,
      "hit": false,
      "t": 63599.99999999988,
      "d": 1056.6666666666642,
      "v": 73
    },
    {
      "midi": 38,
      "hit": false,
      "t": 63599.99999999988,
      "d": 1186.6666666666642,
      "v": 57
    },
    {
      "midi": 66,
      "hit": false,
      "t": 63599.99999999988,
      "d": 1186.6666666666642,
      "v": 72
    },
    {
      "midi": 69,
      "hit": false,
      "t": 63599.99999999988,
      "d": 1200,
      "v": 68
    },
    {
      "midi": 50,
      "hit": false,
      "t": 64413.33333333322,
      "d": 286.66666666666424,
      "v": 59
    },
    {
      "midi": 57,
      "hit": false,
      "t": 64599.99999999988,
      "d": 186.66666666666424,
      "v": 67
    },
    {
      "midi": 55,
      "hit": false,
      "t": 64799.99999999988,
      "d": 706.6666666666642,
      "v": 72
    },
    {
      "midi": 59,
      "hit": false,
      "t": 64799.99999999988,
      "d": 706.6666666666642,
      "v": 72
    },
    {
      "midi": 62,
      "hit": false,
      "t": 64799.99999999988,
      "d": 706.6666666666642,
      "v": 72
    },
    {
      "midi": 43,
      "hit": false,
      "t": 64799.99999999988,
      "d": 846.6666666666715,
      "v": 54
    },
    {
      "midi": 55,
      "hit": false,
      "t": 65599.99999999988,
      "d": 73.33333333334303,
      "v": 75
    },
    {
      "midi": 59,
      "hit": false,
      "t": 65599.99999999988,
      "d": 73.33333333334303,
      "v": 75
    },
    {
      "midi": 62,
      "hit": false,
      "t": 65599.99999999988,
      "d": 73.33333333334303,
      "v": 75
    },
    {
      "midi": 59,
      "hit": false,
      "t": 65999.9999999999,
      "d": 523.3333333333285,
      "v": 60
    },
    {
      "midi": 62,
      "hit": false,
      "t": 65999.9999999999,
      "d": 540,
      "v": 67
    },
    {
      "midi": 67,
      "hit": false,
      "t": 65999.9999999999,
      "d": 556.6666666666715,
      "v": 72
    },
    {
      "midi": 71,
      "hit": false,
      "t": 65999.9999999999,
      "d": 613.333333333343,
      "v": 70
    },
    {
      "midi": 43,
      "hit": false,
      "t": 65999.9999999999,
      "d": 1016.6666666666861,
      "v": 66
    },
    {
      "midi": 62,
      "hit": false,
      "t": 66799.99999999991,
      "d": 200,
      "v": 73
    },
    {
      "midi": 67,
      "hit": false,
      "t": 66799.99999999991,
      "d": 200,
      "v": 65
    },
    {
      "midi": 59,
      "hit": false,
      "t": 66799.99999999991,
      "d": 216.66666666667152,
      "v": 64
    },
    {
      "midi": 57,
      "hit": false,
      "t": 67199.99999999991,
      "d": 523.3333333333285,
      "v": 60
    },
    {
      "midi": 62,
      "hit": false,
      "t": 67199.99999999991,
      "d": 540,
      "v": 67
    },
    {
      "midi": 66,
      "hit": false,
      "t": 67199.99999999991,
      "d": 556.6666666666715,
      "v": 72
    },
    {
      "midi": 69,
      "hit": false,
      "t": 67199.99999999991,
      "d": 613.333333333343,
      "v": 70
    },
    {
      "midi": 38,
      "hit": false,
      "t": 67199.99999999991,
      "d": 1016.6666666666861,
      "v": 66
    },
    {
      "midi": 50,
      "hit": false,
      "t": 67599.99999999991,
      "d": 616.6666666666861,
      "v": 35
    },
    {
      "midi": 62,
      "hit": false,
      "t": 67999.99999999993,
      "d": 200,
      "v": 73
    },
    {
      "midi": 66,
      "hit": false,
      "t": 67999.99999999993,
      "d": 200,
      "v": 65
    },
    {
      "midi": 57,
      "hit": false,
      "t": 67999.99999999993,
      "d": 216.66666666667152,
      "v": 64
    },
    {
      "midi": 57,
      "hit": false,
      "t": 68399.99999999993,
      "d": 813.3333333333285,
      "v": 57
    },
    {
      "midi": 62,
      "hit": false,
      "t": 68399.99999999993,
      "d": 1056.6666666666715,
      "v": 73
    },
    {
      "midi": 38,
      "hit": false,
      "t": 68399.99999999993,
      "d": 1186.6666666666715,
      "v": 57
    },
    {
      "midi": 66,
      "hit": false,
      "t": 68399.99999999993,
      "d": 1186.6666666666715,
      "v": 72
    },
    {
      "midi": 69,
      "hit": false,
      "t": 68399.99999999993,
      "d": 1200,
      "v": 68
    },
    {
      "midi": 50,
      "hit": false,
      "t": 69213.33333333326,
      "d": 286.6666666666715,
      "v": 59
    },
    {
      "midi": 57,
      "hit": false,
      "t": 69399.99999999993,
      "d": 186.66666666667152,
      "v": 67
    },
    {
      "midi": 36,
      "hit": false,
      "t": 69599.99999999993,
      "d": 1200,
      "v": 49
    },
    {
      "midi": 55,
      "hit": false,
      "t": 69599.99999999993,
      "d": 1200,
      "v": 65
    },
    {
      "midi": 60,
      "hit": false,
      "t": 69599.99999999993,
      "d": 1200,
      "v": 65
    },
    {
      "midi": 64,
      "hit": false,
      "t": 69599.99999999993,
      "d": 1200,
      "v": 65
    },
    {
      "midi": 48,
      "hit": false,
      "t": 70799.99999999993,
      "d": 456.6666666666715,
      "v": 48
    },
    {
      "midi": 55,
      "hit": false,
      "t": 70799.99999999993,
      "d": 510,
      "v": 57
    },
    {
      "midi": 60,
      "hit": false,
      "t": 70799.99999999993,
      "d": 566.6666666666715,
      "v": 74
    },
    {
      "midi": 64,
      "hit": false,
      "t": 70799.99999999993,
      "d": 566.6666666666715,
      "v": 71
    },
    {
      "midi": 67,
      "hit": false,
      "t": 70799.99999999993,
      "d": 603.333333333343,
      "v": 68
    },
    {
      "midi": 36,
      "hit": false,
      "t": 70799.99999999993,
      "d": 913.333333333343,
      "v": 54
    },
    {
      "midi": 55,
      "hit": false,
      "t": 71403.33333333327,
      "d": 596.6666666666715,
      "v": 67
    },
    {
      "midi": 60,
      "hit": false,
      "t": 71599.99999999994,
      "d": 333.3333333333285,
      "v": 84
    },
    {
      "midi": 67,
      "hit": false,
      "t": 71799.99999999994,
      "d": 143.33333333332848,
      "v": 89
    },
    {
      "midi": 36,
      "hit": false,
      "t": 71999.99999999994,
      "d": 1200,
      "v": 49
    },
    {
      "midi": 55,
      "hit": false,
      "t": 71999.99999999994,
      "d": 1200,
      "v": 65
    },
    {
      "midi": 60,
      "hit": false,
      "t": 71999.99999999994,
      "d": 1200,
      "v": 65
    },
    {
      "midi": 64,
      "hit": false,
      "t": 71999.99999999994,
      "d": 1200,
      "v": 65
    },
    {
      "midi": 48,
      "hit": false,
      "t": 73199.99999999994,
      "d": 456.6666666666715,
      "v": 48
    },
    {
      "midi": 55,
      "hit": false,
      "t": 73199.99999999994,
      "d": 510,
      "v": 57
    },
    {
      "midi": 60,
      "hit": false,
      "t": 73199.99999999994,
      "d": 566.6666666666715,
      "v": 74
    },
    {
      "midi": 64,
      "hit": false,
      "t": 73199.99999999994,
      "d": 566.6666666666715,
      "v": 71
    },
    {
      "midi": 67,
      "hit": false,
      "t": 73199.99999999994,
      "d": 603.333333333343,
      "v": 68
    },
    {
      "midi": 36,
      "hit": false,
      "t": 73199.99999999994,
      "d": 913.333333333343,
      "v": 54
    },
    {
      "midi": 55,
      "hit": false,
      "t": 73803.33333333328,
      "d": 596.6666666666715,
      "v": 67
    },
    {
      "midi": 60,
      "hit": false,
      "t": 73999.99999999996,
      "d": 333.3333333333285,
      "v": 84
    },
    {
      "midi": 67,
      "hit": false,
      "t": 74199.99999999996,
      "d": 143.33333333332848,
      "v": 89
    },
    {
      "midi": 59,
      "hit": false,
      "t": 74399.99999999996,
      "d": 813.3333333333285,
      "v": 57
    },
    {
      "midi": 62,
      "hit": false,
      "t": 74399.99999999996,
      "d": 1056.6666666666715,
      "v": 73
    },
    {
      "midi": 43,
      "hit": false,
      "t": 74399.99999999996,
      "d": 1100,
      "v": 57
    },
    {
      "midi": 67,
      "hit": false,
      "t": 74399.99999999996,
      "d": 1186.6666666666715,
      "v": 72
    },
    {
      "midi": 71,
      "hit": false,
      "t": 74399.99999999996,
      "d": 1200,
      "v": 68
    },
    {
      "midi": 59,
      "hit": false,
      "t": 75399.99999999996,
      "d": 186.66666666667152,
      "v": 67
    },
    {
      "midi": 59,
      "hit": false,
      "t": 75599.99999999996,
      "d": 523.3333333333285,
      "v": 60
    },
    {
      "midi": 62,
      "hit": false,
      "t": 75599.99999999996,
      "d": 540,
      "v": 67
    },
    {
      "midi": 67,
      "hit": false,
      "t": 75599.99999999996,
      "d": 556.6666666666715,
      "v": 72
    },
    {
      "midi": 71,
      "hit": false,
      "t": 75599.99999999996,
      "d": 613.333333333343,
      "v": 70
    },
    {
      "midi": 43,
      "hit": false,
      "t": 75599.99999999996,
      "d": 1016.6666666666861,
      "v": 66
    },
    {
      "midi": 62,
      "hit": false,
      "t": 76399.99999999997,
      "d": 200,
      "v": 73
    },
    {
      "midi": 67,
      "hit": false,
      "t": 76399.99999999997,
      "d": 200,
      "v": 65
    },
    {
      "midi": 59,
      "hit": false,
      "t": 76399.99999999997,
      "d": 216.66666666667152,
      "v": 64
    },
    {
      "midi": 43,
      "hit": false,
      "t": 76799.99999999997,
      "d": 1200,
      "v": 72
    },
    {
      "midi": 59,
      "hit": false,
      "t": 77199.99999999997,
      "d": 720,
      "v": 67
    },
    {
      "midi": 62,
      "hit": false,
      "t": 77399.99999999997,
      "d": 513.3333333333285,
      "v": 83
    },
    {
      "midi": 67,
      "hit": false,
      "t": 77599.99999999997,
      "d": 233.33333333332848,
      "v": 69
    },
    {
      "midi": 71,
      "hit": false,
      "t": 77799.99999999997,
      "d": 120,
      "v": 72
    },
    {
      "midi": 59,
      "hit": false,
      "t": 77999.99999999997,
      "d": 813.3333333333285,
      "v": 57
    },
    {
      "midi": 62,
      "hit": false,
      "t": 77999.99999999997,
      "d": 1056.6666666666715,
      "v": 73
    },
    {
      "midi": 43,
      "hit": false,
      "t": 77999.99999999997,
      "d": 1100,
      "v": 57
    },
    {
      "midi": 67,
      "hit": false,
      "t": 77999.99999999997,
      "d": 1186.6666666666715,
      "v": 72
    },
    {
      "midi": 71,
      "hit": false,
      "t": 77999.99999999997,
      "d": 1200,
      "v": 68
    },
    {
      "midi": 59,
      "hit": false,
      "t": 78999.99999999997,
      "d": 186.66666666667152,
      "v": 67
    },
    {
      "midi": 54,
      "hit": false,
      "t": 79199.99999999997,
      "d": 706.6666666666715,
      "v": 72
    },
    {
      "midi": 57,
      "hit": false,
      "t": 79199.99999999997,
      "d": 706.6666666666715,
      "v": 72
    },
    {
      "midi": 62,
      "hit": false,
      "t": 79199.99999999997,
      "d": 706.6666666666715,
      "v": 72
    },
    {
      "midi": 38,
      "hit": false,
      "t": 79199.99999999997,
      "d": 846.6666666666715,
      "v": 54
    },
    {
      "midi": 50,
      "hit": false,
      "t": 79999.99999999997,
      "d": 46.66666666667152,
      "v": 62
    },
    {
      "midi": 54,
      "hit": false,
      "t": 79999.99999999997,
      "d": 73.33333333334303,
      "v": 75
    },
    {
      "midi": 57,
      "hit": false,
      "t": 79999.99999999997,
      "d": 73.33333333334303,
      "v": 75
    },
    {
      "midi": 62,
      "hit": false,
      "t": 79999.99999999997,
      "d": 73.33333333334303,
      "v": 75
    },
    {
      "midi": 57,
      "hit": false,
      "t": 80399.99999999999,
      "d": 706.6666666666715,
      "v": 72
    },
    {
      "midi": 62,
      "hit": false,
      "t": 80399.99999999999,
      "d": 706.6666666666715,
      "v": 72
    },
    {
      "midi": 66,
      "hit": false,
      "t": 80399.99999999999,
      "d": 706.6666666666715,
      "v": 72
    },
    {
      "midi": 38,
      "hit": false,
      "t": 80399.99999999999,
      "d": 846.6666666666715,
      "v": 54
    },
    {
      "midi": 50,
      "hit": false,
      "t": 81199.99999999999,
      "d": 46.66666666667152,
      "v": 62
    },
    {
      "midi": 57,
      "hit": false,
      "t": 81199.99999999999,
      "d": 73.33333333334303,
      "v": 75
    },
    {
      "midi": 62,
      "hit": false,
      "t": 81199.99999999999,
      "d": 73.33333333334303,
      "v": 75
    },
    {
      "midi": 66,
      "hit": false,
      "t": 81199.99999999999,
      "d": 73.33333333334303,
      "v": 75
    },
    {
      "midi": 38,
      "hit": false,
      "t": 81600,
      "d": 1200,
      "v": 49
    },
    {
      "midi": 57,
      "hit": false,
      "t": 81600,
      "d": 1200,
      "v": 65
    },
    {
      "midi": 62,
      "hit": false,
      "t": 81600,
      "d": 1200,
      "v": 65
    },
    {
      "midi": 66,
      "hit": false,
      "t": 81600,
      "d": 1200,
      "v": 65
    },
    {
      "midi": 57,
      "hit": false,
      "t": 82800,
      "d": 523.3333333333285,
      "v": 60
    },
    {
      "midi": 62,
      "hit": false,
      "t": 82800,
      "d": 540,
      "v": 67
    },
    {
      "midi": 66,
      "hit": false,
      "t": 82800,
      "d": 556.6666666666715,
      "v": 72
    },
    {
      "midi": 69,
      "hit": false,
      "t": 82800,
      "d": 613.333333333343,
      "v": 70
    },
    {
      "midi": 38,
      "hit": false,
      "t": 82800,
      "d": 1016.6666666666861,
      "v": 66
    },
    {
      "midi": 50,
      "hit": false,
      "t": 83200,
      "d": 616.6666666666861,
      "v": 35
    },
    {
      "midi": 62,
      "hit": false,
      "t": 83600.00000000001,
      "d": 200,
      "v": 73
    },
    {
      "midi": 66,
      "hit": false,
      "t": 83600.00000000001,
      "d": 200,
      "v": 65
    },
    {
      "midi": 57,
      "hit": false,
      "t": 83600.00000000001,
      "d": 216.66666666667152,
      "v": 64
    },
    {
      "midi": 55,
      "hit": false,
      "t": 84000.00000000001,
      "d": 523.3333333333285,
      "v": 60
    },
    {
      "midi": 60,
      "hit": false,
      "t": 84000.00000000001,
      "d": 540,
      "v": 67
    },
    {
      "midi": 64,
      "hit": false,
      "t": 84000.00000000001,
      "d": 556.6666666666715,
      "v": 72
    },
    {
      "midi": 67,
      "hit": false,
      "t": 84000.00000000001,
      "d": 613.333333333343,
      "v": 70
    },
    {
      "midi": 36,
      "hit": false,
      "t": 84000.00000000001,
      "d": 1016.6666666666861,
      "v": 66
    },
    {
      "midi": 48,
      "hit": false,
      "t": 84400.00000000001,
      "d": 616.6666666666861,
      "v": 35
    },
    {
      "midi": 60,
      "hit": false,
      "t": 84800.00000000003,
      "d": 200,
      "v": 73
    },
    {
      "midi": 64,
      "hit": false,
      "t": 84800.00000000003,
      "d": 200,
      "v": 65
    },
    {
      "midi": 55,
      "hit": false,
      "t": 84800.00000000003,
      "d": 216.66666666667152,
      "v": 64
    },
    {
      "midi": 55,
      "hit": false,
      "t": 85200.00000000003,
      "d": 706.6666666666715,
      "v": 72
    },
    {
      "midi": 60,
      "hit": false,
      "t": 85200.00000000003,
      "d": 706.6666666666715,
      "v": 72
    },
    {
      "midi": 64,
      "hit": false,
      "t": 85200.00000000003,
      "d": 706.6666666666715,
      "v": 72
    },
    {
      "midi": 36,
      "hit": false,
      "t": 85200.00000000003,
      "d": 846.6666666666715,
      "v": 54
    },
    {
      "midi": 48,
      "hit": false,
      "t": 86000.00000000003,
      "d": 46.66666666667152,
      "v": 62
    },
    {
      "midi": 55,
      "hit": false,
      "t": 86000.00000000003,
      "d": 73.33333333334303,
      "v": 75
    },
    {
      "midi": 60,
      "hit": false,
      "t": 86000.00000000003,
      "d": 73.33333333334303,
      "v": 75
    },
    {
      "midi": 64,
      "hit": false,
      "t": 86000.00000000003,
      "d": 73.33333333334303,
      "v": 75
    },
    {
      "midi": 38,
      "hit": false,
      "t": 86400.00000000004,
      "d": 1200,
      "v": 49
    },
    {
      "midi": 57,
      "hit": false,
      "t": 86400.00000000004,
      "d": 1200,
      "v": 65
    },
    {
      "midi": 62,
      "hit": false,
      "t": 86400.00000000004,
      "d": 1200,
      "v": 65
    },
    {
      "midi": 66,
      "hit": false,
      "t": 86400.00000000004,
      "d": 1200,
      "v": 65
    },
    {
      "midi": 57,
      "hit": false,
      "t": 87600.00000000004,
      "d": 706.6666666666715,
      "v": 72
    },
    {
      "midi": 62,
      "hit": false,
      "t": 87600.00000000004,
      "d": 706.6666666666715,
      "v": 72
    },
    {
      "midi": 66,
      "hit": false,
      "t": 87600.00000000004,
      "d": 706.6666666666715,
      "v": 72
    },
    {
      "midi": 38,
      "hit": false,
      "t": 87600.00000000004,
      "d": 846.6666666666715,
      "v": 54
    },
    {
      "midi": 50,
      "hit": false,
      "t": 88400.00000000004,
      "d": 46.66666666667152,
      "v": 62
    },
    {
      "midi": 57,
      "hit": false,
      "t": 88400.00000000004,
      "d": 73.33333333334303,
      "v": 75
    },
    {
      "midi": 62,
      "hit": false,
      "t": 88400.00000000004,
      "d": 73.33333333334303,
      "v": 75
    },
    {
      "midi": 66,
      "hit": false,
      "t": 88400.00000000004,
      "d": 73.33333333334303,
      "v": 75
    },
    {
      "midi": 55,
      "hit": false,
      "t": 88800.00000000006,
      "d": 706.6666666666715,
      "v": 72
    },
    {
      "midi": 59,
      "hit": false,
      "t": 88800.00000000006,
      "d": 706.6666666666715,
      "v": 72
    },
    {
      "midi": 62,
      "hit": false,
      "t": 88800.00000000006,
      "d": 706.6666666666715,
      "v": 72
    },
    {
      "midi": 43,
      "hit": false,
      "t": 88800.00000000006,
      "d": 846.6666666666715,
      "v": 54
    },
    {
      "midi": 55,
      "hit": false,
      "t": 89600.00000000006,
      "d": 73.33333333334303,
      "v": 75
    },
    {
      "midi": 59,
      "hit": false,
      "t": 89600.00000000006,
      "d": 73.33333333334303,
      "v": 75
    },
    {
      "midi": 62,
      "hit": false,
      "t": 89600.00000000006,
      "d": 73.33333333334303,
      "v": 75
    },
    {
      "midi": 55,
      "hit": false,
      "t": 90000.00000000007,
      "d": 706.6666666666715,
      "v": 72
    },
    {
      "midi": 59,
      "hit": false,
      "t": 90000.00000000007,
      "d": 706.6666666666715,
      "v": 72
    },
    {
      "midi": 62,
      "hit": false,
      "t": 90000.00000000007,
      "d": 706.6666666666715,
      "v": 72
    },
    {
      "midi": 43,
      "hit": false,
      "t": 90000.00000000007,
      "d": 846.6666666666715,
      "v": 54
    },
    {
      "midi": 55,
      "hit": false,
      "t": 90800.00000000007,
      "d": 73.33333333334303,
      "v": 75
    },
    {
      "midi": 59,
      "hit": false,
      "t": 90800.00000000007,
      "d": 73.33333333334303,
      "v": 75
    },
    {
      "midi": 62,
      "hit": false,
      "t": 90800.00000000007,
      "d": 73.33333333334303,
      "v": 75
    },
    {
      "midi": 36,
      "hit": false,
      "t": 91200.00000000009,
      "d": 1200,
      "v": 49
    },
    {
      "midi": 55,
      "hit": false,
      "t": 91200.00000000009,
      "d": 1200,
      "v": 65
    },
    {
      "midi": 60,
      "hit": false,
      "t": 91200.00000000009,
      "d": 1200,
      "v": 65
    },
    {
      "midi": 64,
      "hit": false,
      "t": 91200.00000000009,
      "d": 1200,
      "v": 65
    },
    {
      "midi": 36,
      "hit": false,
      "t": 92400.00000000009,
      "d": 1200,
      "v": 72
    },
    {
      "midi": 48,
      "hit": false,
      "t": 92600.00000000009,
      "d": 1000,
      "v": 71
    },
    {
      "midi": 55,
      "hit": false,
      "t": 92800.00000000009,
      "d": 720,
      "v": 67
    },
    {
      "midi": 60,
      "hit": false,
      "t": 93000.00000000009,
      "d": 513.3333333333285,
      "v": 83
    },
    {
      "midi": 64,
      "hit": false,
      "t": 93200.00000000009,
      "d": 233.33333333332848,
      "v": 69
    },
    {
      "midi": 67,
      "hit": false,
      "t": 93400.00000000009,
      "d": 120,
      "v": 72
    },
    {
      "midi": 57,
      "hit": false,
      "t": 93600.00000000009,
      "d": 523.3333333333285,
      "v": 60
    },
    {
      "midi": 62,
      "hit": false,
      "t": 93600.00000000009,
      "d": 540,
      "v": 67
    },
    {
      "midi": 66,
      "hit": false,
      "t": 93600.00000000009,
      "d": 556.6666666666715,
      "v": 72
    },
    {
      "midi": 69,
      "hit": false,
      "t": 93600.00000000009,
      "d": 613.333333333343,
      "v": 70
    },
    {
      "midi": 38,
      "hit": false,
      "t": 93600.00000000009,
      "d": 1016.6666666666861,
      "v": 66
    },
    {
      "midi": 50,
      "hit": false,
      "t": 94000.00000000009,
      "d": 616.6666666666861,
      "v": 35
    },
    {
      "midi": 62,
      "hit": false,
      "t": 94400.0000000001,
      "d": 200,
      "v": 73
    },
    {
      "midi": 66,
      "hit": false,
      "t": 94400.0000000001,
      "d": 200,
      "v": 65
    },
    {
      "midi": 57,
      "hit": false,
      "t": 94400.0000000001,
      "d": 216.66666666667152,
      "v": 64
    },
    {
      "midi": 50,
      "hit": false,
      "t": 94800.0000000001,
      "d": 456.6666666666715,
      "v": 48
    },
    {
      "midi": 57,
      "hit": false,
      "t": 94800.0000000001,
      "d": 510,
      "v": 57
    },
    {
      "midi": 62,
      "hit": false,
      "t": 94800.0000000001,
      "d": 566.6666666666715,
      "v": 74
    },
    {
      "midi": 66,
      "hit": false,
      "t": 94800.0000000001,
      "d": 566.6666666666715,
      "v": 71
    },
    {
      "midi": 69,
      "hit": false,
      "t": 94800.0000000001,
      "d": 603.333333333343,
      "v": 68
    },
    {
      "midi": 38,
      "hit": false,
      "t": 94800.0000000001,
      "d": 913.333333333343,
      "v": 54
    },
    {
      "midi": 57,
      "hit": false,
      "t": 95403.33333333344,
      "d": 596.6666666666715,
      "v": 67
    },
    {
      "midi": 62,
      "hit": false,
      "t": 95600.00000000012,
      "d": 333.3333333333285,
      "v": 84
    },
    {
      "midi": 69,
      "hit": false,
      "t": 95800.00000000012,
      "d": 143.33333333332848,
      "v": 89
    },
    {
      "midi": 57,
      "hit": false,
      "t": 96000.00000000012,
      "d": 706.6666666666715,
      "v": 72
    },
    {
      "midi": 62,
      "hit": false,
      "t": 96000.00000000012,
      "d": 706.6666666666715,
      "v": 72
    },
    {
      "midi": 66,
      "hit": false,
      "t": 96000.00000000012,
      "d": 706.6666666666715,
      "v": 72
    },
    {
      "midi": 38,
      "hit": false,
      "t": 96000.00000000012,
      "d": 846.6666666666715,
      "v": 54
    },
    {
      "midi": 50,
      "hit": false,
      "t": 96800.00000000012,
      "d": 46.66666666667152,
      "v": 62
    },
    {
      "midi": 57,
      "hit": false,
      "t": 96800.00000000012,
      "d": 73.33333333334303,
      "v": 75
    },
    {
      "midi": 62,
      "hit": false,
      "t": 96800.00000000012,
      "d": 73.33333333334303,
      "v": 75
    },
    {
      "midi": 66,
      "hit": false,
      "t": 96800.00000000012,
      "d": 73.33333333334303,
      "v": 75
    },
    {
      "midi": 38,
      "hit": false,
      "t": 97200.00000000013,
      "d": 1200,
      "v": 49
    },
    {
      "midi": 57,
      "hit": false,
      "t": 97200.00000000013,
      "d": 1200,
      "v": 65
    },
    {
      "midi": 62,
      "hit": false,
      "t": 97200.00000000013,
      "d": 1200,
      "v": 65
    },
    {
      "midi": 66,
      "hit": false,
      "t": 97200.00000000013,
      "d": 1200,
      "v": 65
    },
    {
      "midi": 55,
      "hit": false,
      "t": 98400.00000000013,
      "d": 706.6666666666715,
      "v": 72
    },
    {
      "midi": 60,
      "hit": false,
      "t": 98400.00000000013,
      "d": 706.6666666666715,
      "v": 72
    },
    {
      "midi": 64,
      "hit": false,
      "t": 98400.00000000013,
      "d": 706.6666666666715,
      "v": 72
    },
    {
      "midi": 36,
      "hit": false,
      "t": 98400.00000000013,
      "d": 846.6666666666715,
      "v": 54
    },
    {
      "midi": 48,
      "hit": false,
      "t": 99200.00000000013,
      "d": 46.66666666667152,
      "v": 62
    },
    {
      "midi": 55,
      "hit": false,
      "t": 99200.00000000013,
      "d": 73.33333333334303,
      "v": 75
    },
    {
      "midi": 60,
      "hit": false,
      "t": 99200.00000000013,
      "d": 73.33333333334303,
      "v": 75
    },
    {
      "midi": 64,
      "hit": false,
      "t": 99200.00000000013,
      "d": 73.33333333334303,
      "v": 75
    },
    {
      "midi": 36,
      "hit": false,
      "t": 99600.00000000015,
      "d": 1200,
      "v": 49
    },
    {
      "midi": 55,
      "hit": false,
      "t": 99600.00000000015,
      "d": 1200,
      "v": 65
    },
    {
      "midi": 60,
      "hit": false,
      "t": 99600.00000000015,
      "d": 1200,
      "v": 65
    },
    {
      "midi": 64,
      "hit": false,
      "t": 99600.00000000015,
      "d": 1200,
      "v": 65
    },
    {
      "midi": 55,
      "hit": false,
      "t": 100800.00000000015,
      "d": 706.6666666666715,
      "v": 72
    },
    {
      "midi": 59,
      "hit": false,
      "t": 100800.00000000015,
      "d": 706.6666666666715,
      "v": 72
    },
    {
      "midi": 62,
      "hit": false,
      "t": 100800.00000000015,
      "d": 706.6666666666715,
      "v": 72
    },
    {
      "midi": 43,
      "hit": false,
      "t": 100800.00000000015,
      "d": 846.6666666666715,
      "v": 54
    },
    {
      "midi": 55,
      "hit": false,
      "t": 101600.00000000015,
      "d": 73.33333333334303,
      "v": 75
    },
    {
      "midi": 59,
      "hit": false,
      "t": 101600.00000000015,
      "d": 73.33333333334303,
      "v": 75
    },
    {
      "midi": 62,
      "hit": false,
      "t": 101600.00000000015,
      "d": 73.33333333334303,
      "v": 75
    },
    {
      "midi": 43,
      "hit": false,
      "t": 102000.00000000016,
      "d": 456.6666666666715,
      "v": 48
    },
    {
      "midi": 59,
      "hit": false,
      "t": 102000.00000000016,
      "d": 510,
      "v": 57
    },
    {
      "midi": 62,
      "hit": false,
      "t": 102000.00000000016,
      "d": 566.6666666666715,
      "v": 74
    },
    {
      "midi": 67,
      "hit": false,
      "t": 102000.00000000016,
      "d": 566.6666666666715,
      "v": 71
    },
    {
      "midi": 71,
      "hit": false,
      "t": 102000.00000000016,
      "d": 603.333333333343,
      "v": 68
    },
    {
      "midi": 59,
      "hit": false,
      "t": 102603.3333333335,
      "d": 596.6666666666715,
      "v": 67
    },
    {
      "midi": 62,
      "hit": false,
      "t": 102800.00000000017,
      "d": 333.3333333333285,
      "v": 84
    },
    {
      "midi": 71,
      "hit": false,
      "t": 103000.00000000017,
      "d": 143.33333333332848,
      "v": 89
    },
    {
      "midi": 55,
      "hit": false,
      "t": 103200.00000000017,
      "d": 523.3333333333285,
      "v": 60
    },
    {
      "midi": 60,
      "hit": false,
      "t": 103200.00000000017,
      "d": 540,
      "v": 67
    },
    {
      "midi": 64,
      "hit": false,
      "t": 103200.00000000017,
      "d": 556.6666666666715,
      "v": 72
    },
    {
      "midi": 67,
      "hit": false,
      "t": 103200.00000000017,
      "d": 613.333333333343,
      "v": 70
    },
    {
      "midi": 36,
      "hit": false,
      "t": 103200.00000000017,
      "d": 1016.6666666666861,
      "v": 66
    },
    {
      "midi": 48,
      "hit": false,
      "t": 103600.00000000017,
      "d": 616.6666666666861,
      "v": 35
    },
    {
      "midi": 60,
      "hit": false,
      "t": 104000.00000000019,
      "d": 200,
      "v": 73
    },
    {
      "midi": 64,
      "hit": false,
      "t": 104000.00000000019,
      "d": 200,
      "v": 65
    },
    {
      "midi": 55,
      "hit": false,
      "t": 104000.00000000019,
      "d": 216.66666666667152,
      "v": 64
    },
    {
      "midi": 48,
      "hit": false,
      "t": 104400.00000000019,
      "d": 456.6666666666715,
      "v": 48
    },
    {
      "midi": 55,
      "hit": false,
      "t": 104400.00000000019,
      "d": 510,
      "v": 57
    },
    {
      "midi": 60,
      "hit": false,
      "t": 104400.00000000019,
      "d": 566.6666666666715,
      "v": 74
    },
    {
      "midi": 64,
      "hit": false,
      "t": 104400.00000000019,
      "d": 566.6666666666715,
      "v": 71
    },
    {
      "midi": 67,
      "hit": false,
      "t": 104400.00000000019,
      "d": 603.333333333343,
      "v": 68
    },
    {
      "midi": 36,
      "hit": false,
      "t": 104400.00000000019,
      "d": 913.333333333343,
      "v": 54
    },
    {
      "midi": 55,
      "hit": false,
      "t": 105003.33333333353,
      "d": 596.6666666666715,
      "v": 67
    },
    {
      "midi": 60,
      "hit": false,
      "t": 105200.0000000002,
      "d": 333.3333333333285,
      "v": 84
    },
    {
      "midi": 67,
      "hit": false,
      "t": 105400.0000000002,
      "d": 143.33333333332848,
      "v": 89
    },
    {
      "midi": 43,
      "hit": false,
      "t": 105600.0000000002,
      "d": 456.6666666666715,
      "v": 48
    },
    {
      "midi": 59,
      "hit": false,
      "t": 105600.0000000002,
      "d": 510,
      "v": 57
    },
    {
      "midi": 62,
      "hit": false,
      "t": 105600.0000000002,
      "d": 566.6666666666715,
      "v": 74
    },
    {
      "midi": 67,
      "hit": false,
      "t": 105600.0000000002,
      "d": 566.6666666666715,
      "v": 71
    },
    {
      "midi": 71,
      "hit": false,
      "t": 105600.0000000002,
      "d": 603.333333333343,
      "v": 68
    },
    {
      "midi": 59,
      "hit": false,
      "t": 106203.33333333355,
      "d": 596.6666666666715,
      "v": 67
    },
    {
      "midi": 62,
      "hit": false,
      "t": 106400.00000000022,
      "d": 333.3333333333285,
      "v": 84
    },
    {
      "midi": 71,
      "hit": false,
      "t": 106600.00000000022,
      "d": 143.33333333332848,
      "v": 89
    },
    {
      "midi": 43,
      "hit": false,
      "t": 106800.00000000022,
      "d": 1200,
      "v": 72
    },
    {
      "midi": 59,
      "hit": false,
      "t": 107200.00000000022,
      "d": 720,
      "v": 67
    },
    {
      "midi": 62,
      "hit": false,
      "t": 107400.00000000022,
      "d": 513.3333333333285,
      "v": 83
    },
    {
      "midi": 67,
      "hit": false,
      "t": 107600.00000000022,
      "d": 233.33333333332848,
      "v": 69
    },
    {
      "midi": 71,
      "hit": false,
      "t": 107800.00000000022,
      "d": 120,
      "v": 72
    },
    {
      "midi": 38,
      "hit": false,
      "t": 108000.00000000022,
      "d": 1200,
      "v": 49
    },
    {
      "midi": 57,
      "hit": false,
      "t": 108000.00000000022,
      "d": 1200,
      "v": 65
    },
    {
      "midi": 62,
      "hit": false,
      "t": 108000.00000000022,
      "d": 1200,
      "v": 65
    },
    {
      "midi": 66,
      "hit": false,
      "t": 108000.00000000022,
      "d": 1200,
      "v": 65
    },
    {
      "midi": 57,
      "hit": false,
      "t": 109200.00000000022,
      "d": 706.6666666666715,
      "v": 72
    },
    {
      "midi": 62,
      "hit": false,
      "t": 109200.00000000022,
      "d": 706.6666666666715,
      "v": 72
    },
    {
      "midi": 66,
      "hit": false,
      "t": 109200.00000000022,
      "d": 706.6666666666715,
      "v": 72
    },
    {
      "midi": 38,
      "hit": false,
      "t": 109200.00000000022,
      "d": 846.6666666666715,
      "v": 54
    },
    {
      "midi": 50,
      "hit": false,
      "t": 110000.00000000022,
      "d": 46.66666666667152,
      "v": 62
    },
    {
      "midi": 57,
      "hit": false,
      "t": 110000.00000000022,
      "d": 73.33333333334303,
      "v": 75
    },
    {
      "midi": 62,
      "hit": false,
      "t": 110000.00000000022,
      "d": 73.33333333334303,
      "v": 75
    },
    {
      "midi": 66,
      "hit": false,
      "t": 110000.00000000022,
      "d": 73.33333333334303,
      "v": 75
    },
    {
      "midi": 59,
      "hit": false,
      "t": 110400.00000000023,
      "d": 523.3333333333285,
      "v": 60
    },
    {
      "midi": 62,
      "hit": false,
      "t": 110400.00000000023,
      "d": 540,
      "v": 67
    },
    {
      "midi": 67,
      "hit": false,
      "t": 110400.00000000023,
      "d": 556.6666666666715,
      "v": 72
    },
    {
      "midi": 71,
      "hit": false,
      "t": 110400.00000000023,
      "d": 613.333333333343,
      "v": 70
    },
    {
      "midi": 43,
      "hit": false,
      "t": 110400.00000000023,
      "d": 1016.6666666666861,
      "v": 66
    },
    {
      "midi": 62,
      "hit": false,
      "t": 111200.00000000025,
      "d": 200,
      "v": 73
    },
    {
      "midi": 67,
      "hit": false,
      "t": 111200.00000000025,
      "d": 200,
      "v": 65
    },
    {
      "midi": 59,
      "hit": false,
      "t": 111200.00000000025,
      "d": 216.66666666667152,
      "v": 64
    },
    {
      "midi": 43,
      "hit": false,
      "t": 111600.00000000025,
      "d": 456.6666666666715,
      "v": 48
    },
    {
      "midi": 59,
      "hit": false,
      "t": 111600.00000000025,
      "d": 510,
      "v": 57
    },
    {
      "midi": 62,
      "hit": false,
      "t": 111600.00000000025,
      "d": 566.6666666666715,
      "v": 74
    },
    {
      "midi": 67,
      "hit": false,
      "t": 111600.00000000025,
      "d": 566.6666666666715,
      "v": 71
    },
    {
      "midi": 71,
      "hit": false,
      "t": 111600.00000000025,
      "d": 603.333333333343,
      "v": 68
    },
    {
      "midi": 59,
      "hit": false,
      "t": 112203.33333333359,
      "d": 596.6666666666715,
      "v": 67
    },
    {
      "midi": 62,
      "hit": false,
      "t": 112400.00000000026,
      "d": 333.3333333333285,
      "v": 84
    },
    {
      "midi": 71,
      "hit": false,
      "t": 112600.00000000026,
      "d": 143.33333333332848,
      "v": 89
    },
    {
      "midi": 36,
      "hit": false,
      "t": 112800.00000000026,
      "d": 1200,
      "v": 72
    },
    {
      "midi": 48,
      "hit": false,
      "t": 113000.00000000026,
      "d": 1000,
      "v": 71
    },
    {
      "midi": 55,
      "hit": false,
      "t": 113200.00000000026,
      "d": 720,
      "v": 67
    },
    {
      "midi": 60,
      "hit": false,
      "t": 113400.00000000026,
      "d": 513.3333333333285,
      "v": 83
    },
    {
      "midi": 64,
      "hit": false,
      "t": 113600.00000000026,
      "d": 233.33333333332848,
      "v": 69
    },
    {
      "midi": 67,
      "hit": false,
      "t": 113800.00000000026,
      "d": 120,
      "v": 72
    },
    {
      "midi": 55,
      "hit": false,
      "t": 114000.00000000026,
      "d": 813.3333333333285,
      "v": 57
    },
    {
      "midi": 60,
      "hit": false,
      "t": 114000.00000000026,
      "d": 1056.6666666666715,
      "v": 73
    },
    {
      "midi": 36,
      "hit": false,
      "t": 114000.00000000026,
      "d": 1186.6666666666715,
      "v": 57
    },
    {
      "midi": 64,
      "hit": false,
      "t": 114000.00000000026,
      "d": 1186.6666666666715,
      "v": 72
    },
    {
      "midi": 67,
      "hit": false,
      "t": 114000.00000000026,
      "d": 1200,
      "v": 68
    },
    {
      "midi": 48,
      "hit": false,
      "t": 114813.33333333359,
      "d": 286.6666666666715,
      "v": 59
    },
    {
      "midi": 55,
      "hit": false,
      "t": 115000.00000000026,
      "d": 186.66666666667152,
      "v": 67
    },
    {
      "midi": 59,
      "hit": false,
      "t": 115200.00000000026,
      "d": 813.3333333333285,
      "v": 57
    },
    {
      "midi": 62,
      "hit": false,
      "t": 115200.00000000026,
      "d": 1056.6666666666715,
      "v": 73
    },
    {
      "midi": 43,
      "hit": false,
      "t": 115200.00000000026,
      "d": 1100,
      "v": 57
    },
    {
      "midi": 67,
      "hit": false,
      "t": 115200.00000000026,
      "d": 1186.6666666666715,
      "v": 72
    },
    {
      "midi": 71,
      "hit": false,
      "t": 115200.00000000026,
      "d": 1200,
      "v": 68
    },
    {
      "midi": 59,
      "hit": false,
      "t": 116200.00000000026,
      "d": 186.66666666667152,
      "v": 67
    },
    {
      "midi": 43,
      "hit": false,
      "t": 116400.00000000026,
      "d": 456.6666666666715,
      "v": 48
    },
    {
      "midi": 59,
      "hit": false,
      "t": 116400.00000000026,
      "d": 510,
      "v": 57
    },
    {
      "midi": 62,
      "hit": false,
      "t": 116400.00000000026,
      "d": 566.6666666666715,
      "v": 74
    },
    {
      "midi": 67,
      "hit": false,
      "t": 116400.00000000026,
      "d": 566.6666666666715,
      "v": 71
    },
    {
      "midi": 71,
      "hit": false,
      "t": 116400.00000000026,
      "d": 603.333333333343,
      "v": 68
    },
    {
      "midi": 59,
      "hit": false,
      "t": 117003.3333333336,
      "d": 596.6666666666715,
      "v": 67
    },
    {
      "midi": 62,
      "hit": false,
      "t": 117200.00000000028,
      "d": 333.3333333333285,
      "v": 84
    },
    {
      "midi": 71,
      "hit": false,
      "t": 117400.00000000028,
      "d": 143.33333333332848,
      "v": 89
    },
    {
      "midi": 55,
      "hit": false,
      "t": 117600.00000000028,
      "d": 813.3333333333285,
      "v": 57
    },
    {
      "midi": 60,
      "hit": false,
      "t": 117600.00000000028,
      "d": 1056.6666666666715,
      "v": 73
    },
    {
      "midi": 36,
      "hit": false,
      "t": 117600.00000000028,
      "d": 1186.6666666666715,
      "v": 57
    },
    {
      "midi": 64,
      "hit": false,
      "t": 117600.00000000028,
      "d": 1186.6666666666715,
      "v": 72
    },
    {
      "midi": 67,
      "hit": false,
      "t": 117600.00000000028,
      "d": 1200,
      "v": 68
    },
    {
      "midi": 48,
      "hit": false,
      "t": 118413.3333333336,
      "d": 286.6666666666715,
      "v": 59
    },
    {
      "midi": 55,
      "hit": false,
      "t": 118600.00000000028,
      "d": 186.66666666667152,
      "v": 67
    },
    {
      "midi": 36,
      "hit": false,
      "t": 118800.00000000028,
      "d": 1200,
      "v": 49
    },
    {
      "midi": 55,
      "hit": false,
      "t": 118800.00000000028,
      "d": 1200,
      "v": 65
    },
    {
      "midi": 60,
      "hit": false,
      "t": 118800.00000000028,
      "d": 1200,
      "v": 65
    },
    {
      "midi": 64,
      "hit": false,
      "t": 118800.00000000028,
      "d": 1200,
      "v": 65
    },
    {
      "midi": 38,
      "hit": false,
      "t": 120000.00000000028,
      "d": 1200,
      "v": 49
    },
    {
      "midi": 57,
      "hit": false,
      "t": 120000.00000000028,
      "d": 1200,
      "v": 65
    },
    {
      "midi": 62,
      "hit": false,
      "t": 120000.00000000028,
      "d": 1200,
      "v": 65
    },
    {
      "midi": 66,
      "hit": false,
      "t": 120000.00000000028,
      "d": 1200,
      "v": 65
    },
    {
      "midi": 50,
      "hit": false,
      "t": 121200.00000000028,
      "d": 456.6666666666715,
      "v": 48
    },
    {
      "midi": 57,
      "hit": false,
      "t": 121200.00000000028,
      "d": 510,
      "v": 57
    },
    {
      "midi": 62,
      "hit": false,
      "t": 121200.00000000028,
      "d": 566.6666666666715,
      "v": 74
    },
    {
      "midi": 66,
      "hit": false,
      "t": 121200.00000000028,
      "d": 566.6666666666715,
      "v": 71
    },
    {
      "midi": 69,
      "hit": false,
      "t": 121200.00000000028,
      "d": 603.333333333343,
      "v": 68
    },
    {
      "midi": 38,
      "hit": false,
      "t": 121200.00000000028,
      "d": 913.333333333343,
      "v": 54
    },
    {
      "midi": 57,
      "hit": false,
      "t": 121803.33333333362,
      "d": 596.6666666666715,
      "v": 67
    },
    {
      "midi": 62,
      "hit": false,
      "t": 122000.00000000029,
      "d": 333.3333333333285,
      "v": 84
    },
    {
      "midi": 69,
      "hit": false,
      "t": 122200.00000000029,
      "d": 143.33333333332848,
      "v": 89
    },
    {
      "midi": 59,
      "hit": false,
      "t": 122400.00000000029,
      "d": 523.3333333333285,
      "v": 60
    },
    {
      "midi": 62,
      "hit": false,
      "t": 122400.00000000029,
      "d": 540,
      "v": 67
    },
    {
      "midi": 67,
      "hit": false,
      "t": 122400.00000000029,
      "d": 556.6666666666715,
      "v": 72
    },
    {
      "midi": 71,
      "hit": false,
      "t": 122400.00000000029,
      "d": 613.333333333343,
      "v": 70
    },
    {
      "midi": 43,
      "hit": false,
      "t": 122400.00000000029,
      "d": 1016.6666666666861,
      "v": 66
    },
    {
      "midi": 62,
      "hit": false,
      "t": 123200.0000000003,
      "d": 200,
      "v": 73
    },
    {
      "midi": 67,
      "hit": false,
      "t": 123200.0000000003,
      "d": 200,
      "v": 65
    },
    {
      "midi": 59,
      "hit": false,
      "t": 123200.0000000003,
      "d": 216.66666666667152,
      "v": 64
    },
    {
      "midi": 43,
      "hit": false,
      "t": 123600.0000000003,
      "d": 1200,
      "v": 49
    },
    {
      "midi": 55,
      "hit": false,
      "t": 123600.0000000003,
      "d": 1200,
      "v": 65
    },
    {
      "midi": 59,
      "hit": false,
      "t": 123600.0000000003,
      "d": 1200,
      "v": 65
    },
    {
      "midi": 62,
      "hit": false,
      "t": 123600.0000000003,
      "d": 1200,
      "v": 65
    },
    {
      "midi": 55,
      "hit": false,
      "t": 124800.0000000003,
      "d": 523.3333333333285,
      "v": 60
    },
    {
      "midi": 59,
      "hit": false,
      "t": 124800.0000000003,
      "d": 540,
      "v": 67
    },
    {
      "midi": 62,
      "hit": false,
      "t": 124800.0000000003,
      "d": 556.6666666666715,
      "v": 72
    },
    {
      "midi": 65,
      "hit": false,
      "t": 124800.0000000003,
      "d": 613.333333333343,
      "v": 70
    },
    {
      "midi": 43,
      "hit": false,
      "t": 124800.0000000003,
      "d": 1016.6666666666861,
      "v": 66
    },
    {
      "midi": 59,
      "hit": false,
      "t": 125600.00000000032,
      "d": 200,
      "v": 73
    },
    {
      "midi": 62,
      "hit": false,
      "t": 125600.00000000032,
      "d": 200,
      "v": 65
    },
    {
      "midi": 55,
      "hit": false,
      "t": 125600.00000000032,
      "d": 216.66666666667152,
      "v": 64
    },
    {
      "midi": 59,
      "hit": false,
      "t": 126000.00000000032,
      "d": 706.6666666666715,
      "v": 72
    },
    {
      "midi": 62,
      "hit": false,
      "t": 126000.00000000032,
      "d": 706.6666666666715,
      "v": 72
    },
    {
      "midi": 65,
      "hit": false,
      "t": 126000.00000000032,
      "d": 706.6666666666715,
      "v": 72
    },
    {
      "midi": 67,
      "hit": false,
      "t": 126000.00000000032,
      "d": 706.6666666666715,
      "v": 72
    },
    {
      "midi": 43,
      "hit": false,
      "t": 126000.00000000032,
      "d": 846.6666666666715,
      "v": 54
    },
    {
      "midi": 59,
      "hit": false,
      "t": 126800.00000000032,
      "d": 73.33333333334303,
      "v": 75
    },
    {
      "midi": 62,
      "hit": false,
      "t": 126800.00000000032,
      "d": 73.33333333334303,
      "v": 75
    },
    {
      "midi": 65,
      "hit": false,
      "t": 126800.00000000032,
      "d": 73.33333333334303,
      "v": 75
    },
    {
      "midi": 67,
      "hit": false,
      "t": 126800.00000000032,
      "d": 73.33333333334303,
      "v": 75
    },
    {
      "midi": 48,
      "hit": false,
      "t": 127200.00000000033,
      "d": 456.6666666666715,
      "v": 48
    },
    {
      "midi": 55,
      "hit": false,
      "t": 127200.00000000033,
      "d": 510,
      "v": 57
    },
    {
      "midi": 60,
      "hit": false,
      "t": 127200.00000000033,
      "d": 566.6666666666715,
      "v": 74
    },
    {
      "midi": 64,
      "hit": false,
      "t": 127200.00000000033,
      "d": 566.6666666666715,
      "v": 71
    },
    {
      "midi": 67,
      "hit": false,
      "t": 127200.00000000033,
      "d": 603.333333333343,
      "v": 68
    },
    {
      "midi": 36,
      "hit": false,
      "t": 127200.00000000033,
      "d": 913.333333333343,
      "v": 54
    },
    {
      "midi": 55,
      "hit": false,
      "t": 127803.33333333368,
      "d": 596.6666666666715,
      "v": 67
    },
    {
      "midi": 60,
      "hit": false,
      "t": 128000.00000000035,
      "d": 333.3333333333285,
      "v": 84
    },
    {
      "midi": 67,
      "hit": false,
      "t": 128200.00000000035,
      "d": 143.33333333332848,
      "v": 89
    },
    {
      "midi": 55,
      "hit": false,
      "t": 128400.00000000035,
      "d": 706.6666666666715,
      "v": 72
    },
    {
      "midi": 60,
      "hit": false,
      "t": 128400.00000000035,
      "d": 706.6666666666715,
      "v": 72
    },
    {
      "midi": 64,
      "hit": false,
      "t": 128400.00000000035,
      "d": 706.6666666666715,
      "v": 72
    },
    {
      "midi": 36,
      "hit": false,
      "t": 128400.00000000035,
      "d": 846.6666666666715,
      "v": 54
    },
    {
      "midi": 48,
      "hit": false,
      "t": 129200.00000000035,
      "d": 46.66666666667152,
      "v": 62
    },
    {
      "midi": 55,
      "hit": false,
      "t": 129200.00000000035,
      "d": 73.33333333334303,
      "v": 75
    },
    {
      "midi": 60,
      "hit": false,
      "t": 129200.00000000035,
      "d": 73.33333333334303,
      "v": 75
    },
    {
      "midi": 64,
      "hit": false,
      "t": 129200.00000000035,
      "d": 73.33333333334303,
      "v": 75
    },
    {
      "midi": 55,
      "hit": false,
      "t": 129600.00000000036,
      "d": 706.6666666666715,
      "v": 72
    },
    {
      "midi": 59,
      "hit": false,
      "t": 129600.00000000036,
      "d": 706.6666666666715,
      "v": 72
    },
    {
      "midi": 62,
      "hit": false,
      "t": 129600.00000000036,
      "d": 706.6666666666715,
      "v": 72
    },
    {
      "midi": 43,
      "hit": false,
      "t": 129600.00000000036,
      "d": 846.6666666666715,
      "v": 54
    },
    {
      "midi": 55,
      "hit": false,
      "t": 130400.00000000036,
      "d": 73.33333333334303,
      "v": 75
    },
    {
      "midi": 59,
      "hit": false,
      "t": 130400.00000000036,
      "d": 73.33333333334303,
      "v": 75
    },
    {
      "midi": 62,
      "hit": false,
      "t": 130400.00000000036,
      "d": 73.33333333334303,
      "v": 75
    },
    {
      "midi": 59,
      "hit": false,
      "t": 130800.00000000038,
      "d": 523.333333333343,
      "v": 60
    },
    {
      "midi": 62,
      "hit": false,
      "t": 130800.00000000038,
      "d": 540,
      "v": 67
    },
    {
      "midi": 67,
      "hit": false,
      "t": 130800.00000000038,
      "d": 556.666666666657,
      "v": 72
    },
    {
      "midi": 71,
      "hit": false,
      "t": 130800.00000000038,
      "d": 613.3333333333139,
      "v": 70
    },
    {
      "midi": 43,
      "hit": false,
      "t": 130800.00000000038,
      "d": 1016.6666666666279,
      "v": 66
    },
    {
      "midi": 62,
      "hit": false,
      "t": 131600.00000000035,
      "d": 200,
      "v": 73
    },
    {
      "midi": 67,
      "hit": false,
      "t": 131600.00000000035,
      "d": 200,
      "v": 65
    },
    {
      "midi": 59,
      "hit": false,
      "t": 131600.00000000035,
      "d": 216.66666666665697,
      "v": 64
    },
    {
      "midi": 38,
      "hit": false,
      "t": 132000.00000000035,
      "d": 1200,
      "v": 72
    },
    {
      "midi": 50,
      "hit": false,
      "t": 132200.00000000035,
      "d": 1000,
      "v": 71
    },
    {
      "midi": 57,
      "hit": false,
      "t": 132400.00000000035,
      "d": 720,
      "v": 67
    },
    {
      "midi": 62,
      "hit": false,
      "t": 132600.00000000035,
      "d": 513.333333333343,
      "v": 83
    },
    {
      "midi": 66,
      "hit": false,
      "t": 132800.00000000035,
      "d": 233.33333333334303,
      "v": 69
    },
    {
      "midi": 69,
      "hit": false,
      "t": 133000.00000000035,
      "d": 120,
      "v": 72
    },
    {
      "midi": 57,
      "hit": false,
      "t": 133200.00000000035,
      "d": 523.333333333343,
      "v": 60
    },
    {
      "midi": 62,
      "hit": false,
      "t": 133200.00000000035,
      "d": 540,
      "v": 67
    },
    {
      "midi": 66,
      "hit": false,
      "t": 133200.00000000035,
      "d": 556.666666666657,
      "v": 72
    },
    {
      "midi": 69,
      "hit": false,
      "t": 133200.00000000035,
      "d": 613.3333333333139,
      "v": 70
    },
    {
      "midi": 38,
      "hit": false,
      "t": 133200.00000000035,
      "d": 1016.6666666666279,
      "v": 66
    },
    {
      "midi": 50,
      "hit": false,
      "t": 133600.00000000035,
      "d": 616.6666666666279,
      "v": 35
    },
    {
      "midi": 62,
      "hit": false,
      "t": 134000.00000000032,
      "d": 200,
      "v": 73
    },
    {
      "midi": 66,
      "hit": false,
      "t": 134000.00000000032,
      "d": 200,
      "v": 65
    },
    {
      "midi": 57,
      "hit": false,
      "t": 134000.00000000032,
      "d": 216.66666666665697,
      "v": 64
    },
    {
      "midi": 50,
      "hit": false,
      "t": 134400.00000000032,
      "d": 456.66666666665697,
      "v": 48
    },
    {
      "midi": 57,
      "hit": false,
      "t": 134400.00000000032,
      "d": 510,
      "v": 57
    },
    {
      "midi": 62,
      "hit": false,
      "t": 134400.00000000032,
      "d": 566.666666666657,
      "v": 74
    },
    {
      "midi": 66,
      "hit": false,
      "t": 134400.00000000032,
      "d": 566.666666666657,
      "v": 71
    },
    {
      "midi": 69,
      "hit": false,
      "t": 134400.00000000032,
      "d": 603.3333333333139,
      "v": 68
    },
    {
      "midi": 38,
      "hit": false,
      "t": 134400.00000000032,
      "d": 913.3333333333139,
      "v": 54
    },
    {
      "midi": 57,
      "hit": false,
      "t": 135003.33333333363,
      "d": 596.666666666657,
      "v": 67
    },
    {
      "midi": 62,
      "hit": false,
      "t": 135200.0000000003,
      "d": 333.33333333334303,
      "v": 84
    },
    {
      "midi": 69,
      "hit": false,
      "t": 135400.0000000003,
      "d": 143.33333333334303,
      "v": 89
    },
    {
      "midi": 57,
      "hit": false,
      "t": 135600.0000000003,
      "d": 706.666666666657,
      "v": 72
    },
    {
      "midi": 62,
      "hit": false,
      "t": 135600.0000000003,
      "d": 706.666666666657,
      "v": 72
    },
    {
      "midi": 66,
      "hit": false,
      "t": 135600.0000000003,
      "d": 706.666666666657,
      "v": 72
    },
    {
      "midi": 38,
      "hit": false,
      "t": 135600.0000000003,
      "d": 846.666666666657,
      "v": 54
    },
    {
      "midi": 50,
      "hit": false,
      "t": 136400.0000000003,
      "d": 46.666666666656965,
      "v": 62
    },
    {
      "midi": 57,
      "hit": false,
      "t": 136400.0000000003,
      "d": 73.33333333331393,
      "v": 75
    },
    {
      "midi": 62,
      "hit": false,
      "t": 136400.0000000003,
      "d": 73.33333333331393,
      "v": 75
    },
    {
      "midi": 66,
      "hit": false,
      "t": 136400.0000000003,
      "d": 73.33333333331393,
      "v": 75
    },
    {
      "midi": 55,
      "hit": false,
      "t": 136800.00000000026,
      "d": 813.333333333343,
      "v": 57
    },
    {
      "midi": 60,
      "hit": false,
      "t": 136800.00000000026,
      "d": 1056.666666666657,
      "v": 73
    },
    {
      "midi": 36,
      "hit": false,
      "t": 136800.00000000026,
      "d": 1186.666666666657,
      "v": 57
    },
    {
      "midi": 64,
      "hit": false,
      "t": 136800.00000000026,
      "d": 1186.666666666657,
      "v": 72
    },
    {
      "midi": 67,
      "hit": false,
      "t": 136800.00000000026,
      "d": 1200,
      "v": 68
    },
    {
      "midi": 48,
      "hit": false,
      "t": 137613.3333333336,
      "d": 286.66666666665697,
      "v": 59
    },
    {
      "midi": 55,
      "hit": false,
      "t": 137800.00000000026,
      "d": 186.66666666665697,
      "v": 67
    },
    {
      "midi": 55,
      "hit": false,
      "t": 138000.00000000026,
      "d": 523.333333333343,
      "v": 60
    },
    {
      "midi": 60,
      "hit": false,
      "t": 138000.00000000026,
      "d": 540,
      "v": 67
    },
    {
      "midi": 64,
      "hit": false,
      "t": 138000.00000000026,
      "d": 556.666666666657,
      "v": 72
    },
    {
      "midi": 67,
      "hit": false,
      "t": 138000.00000000026,
      "d": 613.3333333333139,
      "v": 70
    },
    {
      "midi": 36,
      "hit": false,
      "t": 138000.00000000026,
      "d": 1016.6666666666279,
      "v": 66
    },
    {
      "midi": 48,
      "hit": false,
      "t": 138400.00000000026,
      "d": 616.6666666666279,
      "v": 35
    },
    {
      "midi": 60,
      "hit": false,
      "t": 138800.00000000023,
      "d": 200,
      "v": 73
    },
    {
      "midi": 64,
      "hit": false,
      "t": 138800.00000000023,
      "d": 200,
      "v": 65
    },
    {
      "midi": 55,
      "hit": false,
      "t": 138800.00000000023,
      "d": 216.66666666665697,
      "v": 64
    },
    {
      "midi": 55,
      "hit": false,
      "t": 139200.00000000023,
      "d": 706.666666666657,
      "v": 72
    },
    {
      "midi": 59,
      "hit": false,
      "t": 139200.00000000023,
      "d": 706.666666666657,
      "v": 72
    },
    {
      "midi": 62,
      "hit": false,
      "t": 139200.00000000023,
      "d": 706.666666666657,
      "v": 72
    },
    {
      "midi": 43,
      "hit": false,
      "t": 139200.00000000023,
      "d": 846.666666666657,
      "v": 54
    },
    {
      "midi": 55,
      "hit": false,
      "t": 140000.00000000023,
      "d": 73.33333333331393,
      "v": 75
    },
    {
      "midi": 59,
      "hit": false,
      "t": 140000.00000000023,
      "d": 73.33333333331393,
      "v": 75
    },
    {
      "midi": 62,
      "hit": false,
      "t": 140000.00000000023,
      "d": 73.33333333331393,
      "v": 75
    },
    {
      "midi": 43,
      "hit": false,
      "t": 140400.0000000002,
      "d": 1200,
      "v": 49
    },
    {
      "midi": 55,
      "hit": false,
      "t": 140400.0000000002,
      "d": 1200,
      "v": 65
    },
    {
      "midi": 59,
      "hit": false,
      "t": 140400.0000000002,
      "d": 1200,
      "v": 65
    },
    {
      "midi": 62,
      "hit": false,
      "t": 140400.0000000002,
      "d": 1200,
      "v": 65
    },
    {
      "midi": 43,
      "hit": false,
      "t": 141600.0000000002,
      "d": 456.66666666665697,
      "v": 48
    },
    {
      "midi": 59,
      "hit": false,
      "t": 141600.0000000002,
      "d": 510,
      "v": 57
    },
    {
      "midi": 62,
      "hit": false,
      "t": 141600.0000000002,
      "d": 566.666666666657,
      "v": 74
    },
    {
      "midi": 67,
      "hit": false,
      "t": 141600.0000000002,
      "d": 566.666666666657,
      "v": 71
    },
    {
      "midi": 71,
      "hit": false,
      "t": 141600.0000000002,
      "d": 603.3333333333139,
      "v": 68
    },
    {
      "midi": 59,
      "hit": false,
      "t": 142203.33333333352,
      "d": 596.666666666657,
      "v": 67
    },
    {
      "midi": 62,
      "hit": false,
      "t": 142400.00000000017,
      "d": 333.33333333334303,
      "v": 84
    },
    {
      "midi": 71,
      "hit": false,
      "t": 142600.00000000017,
      "d": 143.33333333334303,
      "v": 89
    },
    {
      "midi": 59,
      "hit": false,
      "t": 142800.00000000017,
      "d": 523.333333333343,
      "v": 60
    },
    {
      "midi": 62,
      "hit": false,
      "t": 142800.00000000017,
      "d": 540,
      "v": 67
    },
    {
      "midi": 67,
      "hit": false,
      "t": 142800.00000000017,
      "d": 556.666666666657,
      "v": 72
    },
    {
      "midi": 71,
      "hit": false,
      "t": 142800.00000000017,
      "d": 613.3333333333139,
      "v": 70
    },
    {
      "midi": 43,
      "hit": false,
      "t": 142800.00000000017,
      "d": 1016.6666666666279,
      "v": 66
    },
    {
      "midi": 62,
      "hit": false,
      "t": 143600.00000000015,
      "d": 200,
      "v": 73
    },
    {
      "midi": 67,
      "hit": false,
      "t": 143600.00000000015,
      "d": 200,
      "v": 65
    },
    {
      "midi": 59,
      "hit": false,
      "t": 143600.00000000015,
      "d": 216.66666666665697,
      "v": 64
    },
    {
      "midi": 55,
      "hit": false,
      "t": 144000.00000000015,
      "d": 523.333333333343,
      "v": 60
    },
    {
      "midi": 59,
      "hit": false,
      "t": 144000.00000000015,
      "d": 540,
      "v": 67
    },
    {
      "midi": 62,
      "hit": false,
      "t": 144000.00000000015,
      "d": 556.666666666657,
      "v": 72
    },
    {
      "midi": 65,
      "hit": false,
      "t": 144000.00000000015,
      "d": 613.3333333333139,
      "v": 70
    },
    {
      "midi": 43,
      "hit": false,
      "t": 144000.00000000015,
      "d": 1016.6666666666279,
      "v": 66
    },
    {
      "midi": 59,
      "hit": false,
      "t": 144800.00000000012,
      "d": 200,
      "v": 73
    },
    {
      "midi": 62,
      "hit": false,
      "t": 144800.00000000012,
      "d": 200,
      "v": 65
    },
    {
      "midi": 55,
      "hit": false,
      "t": 144800.00000000012,
      "d": 216.66666666665697,
      "v": 64
    },
    {
      "midi": 43,
      "hit": false,
      "t": 145200.00000000012,
      "d": 456.66666666665697,
      "v": 48
    },
    {
      "midi": 55,
      "hit": false,
      "t": 145200.00000000012,
      "d": 510,
      "v": 57
    },
    {
      "midi": 59,
      "hit": false,
      "t": 145200.00000000012,
      "d": 566.666666666657,
      "v": 74
    },
    {
      "midi": 62,
      "hit": false,
      "t": 145200.00000000012,
      "d": 566.666666666657,
      "v": 71
    },
    {
      "midi": 65,
      "hit": false,
      "t": 145200.00000000012,
      "d": 603.3333333333139,
      "v": 68
    },
    {
      "midi": 55,
      "hit": false,
      "t": 145803.33333333343,
      "d": 596.666666666657,
      "v": 67
    },
    {
      "midi": 59,
      "hit": false,
      "t": 146000.0000000001,
      "d": 333.33333333334303,
      "v": 84
    },
    {
      "midi": 65,
      "hit": false,
      "t": 146200.0000000001,
      "d": 143.33333333334303,
      "v": 89
    },
    {
      "midi": 36,
      "hit": false,
      "t": 146400.0000000001,
      "d": 1200,
      "v": 49
    },
    {
      "midi": 55,
      "hit": false,
      "t": 146400.0000000001,
      "d": 1200,
      "v": 65
    },
    {
      "midi": 60,
      "hit": false,
      "t": 146400.0000000001,
      "d": 1200,
      "v": 65
    },
    {
      "midi": 64,
      "hit": false,
      "t": 146400.0000000001,
      "d": 1200,
      "v": 65
    },
    {
      "midi": 55,
      "hit": false,
      "t": 147600.0000000001,
      "d": 706.666666666657,
      "v": 72
    },
    {
      "midi": 60,
      "hit": false,
      "t": 147600.0000000001,
      "d": 706.666666666657,
      "v": 72
    },
    {
      "midi": 64,
      "hit": false,
      "t": 147600.0000000001,
      "d": 706.666666666657,
      "v": 72
    },
    {
      "midi": 36,
      "hit": false,
      "t": 147600.0000000001,
      "d": 846.666666666657,
      "v": 54
    },
    {
      "midi": 48,
      "hit": false,
      "t": 148400.0000000001,
      "d": 46.666666666656965,
      "v": 62
    },
    {
      "midi": 55,
      "hit": false,
      "t": 148400.0000000001,
      "d": 73.33333333331393,
      "v": 75
    },
    {
      "midi": 60,
      "hit": false,
      "t": 148400.0000000001,
      "d": 73.33333333331393,
      "v": 75
    },
    {
      "midi": 64,
      "hit": false,
      "t": 148400.0000000001,
      "d": 73.33333333331393,
      "v": 75
    },
    {
      "midi": 55,
      "hit": false,
      "t": 148800.00000000006,
      "d": 706.666666666657,
      "v": 72
    },
    {
      "midi": 59,
      "hit": false,
      "t": 148800.00000000006,
      "d": 706.666666666657,
      "v": 72
    },
    {
      "midi": 62,
      "hit": false,
      "t": 148800.00000000006,
      "d": 706.666666666657,
      "v": 72
    },
    {
      "midi": 43,
      "hit": false,
      "t": 148800.00000000006,
      "d": 846.666666666657,
      "v": 54
    },
    {
      "midi": 55,
      "hit": false,
      "t": 149600.00000000006,
      "d": 73.33333333331393,
      "v": 75
    },
    {
      "midi": 59,
      "hit": false,
      "t": 149600.00000000006,
      "d": 73.33333333331393,
      "v": 75
    },
    {
      "midi": 62,
      "hit": false,
      "t": 149600.00000000006,
      "d": 73.33333333331393,
      "v": 75
    },
    {
      "midi": 59,
      "hit": false,
      "t": 150000.00000000003,
      "d": 813.333333333343,
      "v": 57
    },
    {
      "midi": 62,
      "hit": false,
      "t": 150000.00000000003,
      "d": 1056.666666666657,
      "v": 73
    },
    {
      "midi": 43,
      "hit": false,
      "t": 150000.00000000003,
      "d": 1100,
      "v": 57
    },
    {
      "midi": 67,
      "hit": false,
      "t": 150000.00000000003,
      "d": 1186.666666666657,
      "v": 72
    },
    {
      "midi": 71,
      "hit": false,
      "t": 150000.00000000003,
      "d": 1200,
      "v": 68
    },
    {
      "midi": 59,
      "hit": false,
      "t": 151000.00000000003,
      "d": 186.66666666665697,
      "v": 67
    },
    {
      "midi": 38,
      "hit": false,
      "t": 151200.00000000003,
      "d": 1200,
      "v": 72
    },
    {
      "midi": 50,
      "hit": false,
      "t": 151400.00000000003,
      "d": 1000,
      "v": 71
    },
    {
      "midi": 57,
      "hit": false,
      "t": 151600.00000000003,
      "d": 720,
      "v": 67
    },
    {
      "midi": 62,
      "hit": false,
      "t": 151800.00000000003,
      "d": 513.333333333343,
      "v": 83
    },
    {
      "midi": 66,
      "hit": false,
      "t": 152000.00000000003,
      "d": 233.33333333334303,
      "v": 69
    },
    {
      "midi": 69,
      "hit": false,
      "t": 152200.00000000003,
      "d": 120,
      "v": 72
    },
    {
      "midi": 38,
      "hit": false,
      "t": 152400.00000000003,
      "d": 1200,
      "v": 49
    },
    {
      "midi": 57,
      "hit": false,
      "t": 152400.00000000003,
      "d": 1200,
      "v": 65
    },
    {
      "midi": 62,
      "hit": false,
      "t": 152400.00000000003,
      "d": 1200,
      "v": 65
    },
    {
      "midi": 66,
      "hit": false,
      "t": 152400.00000000003,
      "d": 1200,
      "v": 65
    },
    {
      "midi": 50,
      "hit": false,
      "t": 153600.00000000003,
      "d": 456.66666666665697,
      "v": 48
    },
    {
      "midi": 57,
      "hit": false,
      "t": 153600.00000000003,
      "d": 510,
      "v": 57
    },
    {
      "midi": 62,
      "hit": false,
      "t": 153600.00000000003,
      "d": 566.666666666657,
      "v": 74
    },
    {
      "midi": 66,
      "hit": false,
      "t": 153600.00000000003,
      "d": 566.666666666657,
      "v": 71
    },
    {
      "midi": 69,
      "hit": false,
      "t": 153600.00000000003,
      "d": 603.3333333333139,
      "v": 68
    },
    {
      "midi": 38,
      "hit": false,
      "t": 153600.00000000003,
      "d": 913.3333333333139,
      "v": 54
    },
    {
      "midi": 57,
      "hit": false,
      "t": 154203.33333333334,
      "d": 596.666666666657,
      "v": 67
    },
    {
      "midi": 62,
      "hit": false,
      "t": 154400,
      "d": 333.33333333334303,
      "v": 84
    },
    {
      "midi": 69,
      "hit": false,
      "t": 154600,
      "d": 143.33333333334303,
      "v": 89
    },
    {
      "midi": 50,
      "hit": false,
      "t": 154800,
      "d": 456.66666666665697,
      "v": 48
    },
    {
      "midi": 57,
      "hit": false,
      "t": 154800,
      "d": 510,
      "v": 57
    },
    {
      "midi": 62,
      "hit": false,
      "t": 154800,
      "d": 566.666666666657,
      "v": 74
    },
    {
      "midi": 66,
      "hit": false,
      "t": 154800,
      "d": 566.666666666657,
      "v": 71
    },
    {
      "midi": 69,
      "hit": false,
      "t": 154800,
      "d": 603.3333333333139,
      "v": 68
    },
    {
      "midi": 38,
      "hit": false,
      "t": 154800,
      "d": 913.3333333333139,
      "v": 54
    },
    {
      "midi": 57,
      "hit": false,
      "t": 155403.3333333333,
      "d": 596.666666666657,
      "v": 67
    },
    {
      "midi": 62,
      "hit": false,
      "t": 155599.99999999997,
      "d": 333.33333333334303,
      "v": 84
    },
    {
      "midi": 69,
      "hit": false,
      "t": 155799.99999999997,
      "d": 143.33333333334303,
      "v": 89
    },
    {
      "midi": 48,
      "hit": false,
      "t": 155999.99999999997,
      "d": 456.66666666665697,
      "v": 48
    },
    {
      "midi": 55,
      "hit": false,
      "t": 155999.99999999997,
      "d": 510,
      "v": 57
    },
    {
      "midi": 60,
      "hit": false,
      "t": 155999.99999999997,
      "d": 566.666666666657,
      "v": 74
    },
    {
      "midi": 64,
      "hit": false,
      "t": 155999.99999999997,
      "d": 566.666666666657,
      "v": 71
    },
    {
      "midi": 67,
      "hit": false,
      "t": 155999.99999999997,
      "d": 603.3333333333139,
      "v": 68
    },
    {
      "midi": 36,
      "hit": false,
      "t": 155999.99999999997,
      "d": 913.3333333333139,
      "v": 54
    },
    {
      "midi": 55,
      "hit": false,
      "t": 156603.33333333328,
      "d": 596.666666666657,
      "v": 67
    },
    {
      "midi": 60,
      "hit": false,
      "t": 156799.99999999994,
      "d": 333.33333333334303,
      "v": 84
    },
    {
      "midi": 67,
      "hit": false,
      "t": 156999.99999999994,
      "d": 143.33333333334303,
      "v": 89
    },
    {
      "midi": 55,
      "hit": false,
      "t": 157199.99999999994,
      "d": 813.333333333343,
      "v": 57
    },
    {
      "midi": 60,
      "hit": false,
      "t": 157199.99999999994,
      "d": 1056.666666666657,
      "v": 73
    },
    {
      "midi": 36,
      "hit": false,
      "t": 157199.99999999994,
      "d": 1186.666666666657,
      "v": 57
    },
    {
      "midi": 64,
      "hit": false,
      "t": 157199.99999999994,
      "d": 1186.666666666657,
      "v": 72
    },
    {
      "midi": 67,
      "hit": false,
      "t": 157199.99999999994,
      "d": 1200,
      "v": 68
    },
    {
      "midi": 48,
      "hit": false,
      "t": 158013.33333333328,
      "d": 286.66666666665697,
      "v": 59
    },
    {
      "midi": 55,
      "hit": false,
      "t": 158199.99999999994,
      "d": 186.66666666665697,
      "v": 67
    },
    {
      "midi": 43,
      "hit": false,
      "t": 158399.99999999994,
      "d": 1200,
      "v": 49
    },
    {
      "midi": 55,
      "hit": false,
      "t": 158399.99999999994,
      "d": 1200,
      "v": 65
    },
    {
      "midi": 59,
      "hit": false,
      "t": 158399.99999999994,
      "d": 1200,
      "v": 65
    },
    {
      "midi": 62,
      "hit": false,
      "t": 158399.99999999994,
      "d": 1200,
      "v": 65
    },
    {
      "midi": 59,
      "hit": false,
      "t": 159599.99999999994,
      "d": 813.333333333343,
      "v": 57
    },
    {
      "midi": 62,
      "hit": false,
      "t": 159599.99999999994,
      "d": 1056.666666666657,
      "v": 73
    },
    {
      "midi": 43,
      "hit": false,
      "t": 159599.99999999994,
      "d": 1100,
      "v": 57
    },
    {
      "midi": 67,
      "hit": false,
      "t": 159599.99999999994,
      "d": 1186.666666666657,
      "v": 72
    },
    {
      "midi": 71,
      "hit": false,
      "t": 159599.99999999994,
      "d": 1200,
      "v": 68
    },
    {
      "midi": 59,
      "hit": false,
      "t": 160599.99999999994,
      "d": 186.66666666665697,
      "v": 67
    },
    {
      "midi": 59,
      "hit": false,
      "t": 160799.99999999994,
      "d": 523.333333333343,
      "v": 60
    },
    {
      "midi": 62,
      "hit": false,
      "t": 160799.99999999994,
      "d": 540,
      "v": 67
    },
    {
      "midi": 67,
      "hit": false,
      "t": 160799.99999999994,
      "d": 556.666666666657,
      "v": 72
    },
    {
      "midi": 71,
      "hit": false,
      "t": 160799.99999999994,
      "d": 613.333333333343,
      "v": 70
    },
    {
      "midi": 43,
      "hit": false,
      "t": 160799.99999999994,
      "d": 1016.666666666657,
      "v": 66
    },
    {
      "midi": 62,
      "hit": false,
      "t": 161599.99999999994,
      "d": 200,
      "v": 73
    },
    {
      "midi": 67,
      "hit": false,
      "t": 161599.99999999994,
      "d": 200,
      "v": 65
    },
    {
      "midi": 59,
      "hit": false,
      "t": 161599.99999999994,
      "d": 216.66666666665697,
      "v": 64
    },
    {
      "midi": 43,
      "hit": false,
      "t": 161999.99999999994,
      "d": 456.66666666668607,
      "v": 48
    },
    {
      "midi": 59,
      "hit": false,
      "t": 161999.99999999994,
      "d": 510.0000000000291,
      "v": 57
    },
    {
      "midi": 62,
      "hit": false,
      "t": 161999.99999999994,
      "d": 566.6666666666861,
      "v": 74
    },
    {
      "midi": 67,
      "hit": false,
      "t": 161999.99999999994,
      "d": 566.6666666666861,
      "v": 71
    },
    {
      "midi": 71,
      "hit": false,
      "t": 161999.99999999994,
      "d": 603.333333333343,
      "v": 68
    },
    {
      "midi": 59,
      "hit": false,
      "t": 162603.33333333328,
      "d": 596.6666666666861,
      "v": 67
    },
    {
      "midi": 62,
      "hit": false,
      "t": 162799.99999999997,
      "d": 333.33333333334303,
      "v": 84
    },
    {
      "midi": 71,
      "hit": false,
      "t": 162999.99999999997,
      "d": 143.33333333334303,
      "v": 89
    },
    {
      "midi": 55,
      "hit": false,
      "t": 163199.99999999997,
      "d": 523.3333333333139,
      "v": 60
    },
    {
      "midi": 59,
      "hit": false,
      "t": 163199.99999999997,
      "d": 539.9999999999709,
      "v": 67
    },
    {
      "midi": 62,
      "hit": false,
      "t": 163199.99999999997,
      "d": 556.6666666666279,
      "v": 72
    },
    {
      "midi": 65,
      "hit": false,
      "t": 163199.99999999997,
      "d": 613.3333333332848,
      "v": 70
    },
    {
      "midi": 43,
      "hit": false,
      "t": 163199.99999999997,
      "d": 1016.6666666665988,
      "v": 66
    },
    {
      "midi": 59,
      "hit": false,
      "t": 163999.9999999999,
      "d": 200,
      "v": 73
    },
    {
      "midi": 62,
      "hit": false,
      "t": 163999.9999999999,
      "d": 200,
      "v": 65
    },
    {
      "midi": 55,
      "hit": false,
      "t": 163999.9999999999,
      "d": 216.66666666665697,
      "v": 64
    },
    {
      "midi": 43,
      "hit": false,
      "t": 164399.9999999999,
      "d": 1200.000000000029,
      "v": 49
    },
    {
      "midi": 59,
      "hit": false,
      "t": 164399.9999999999,
      "d": 1200.000000000029,
      "v": 65
    },
    {
      "midi": 62,
      "hit": false,
      "t": 164399.9999999999,
      "d": 1200.000000000029,
      "v": 65
    },
    {
      "midi": 65,
      "hit": false,
      "t": 164399.9999999999,
      "d": 1200.000000000029,
      "v": 65
    },
    {
      "midi": 67,
      "hit": false,
      "t": 164399.9999999999,
      "d": 1200.000000000029,
      "v": 65
    },
    {
      "midi": 55,
      "hit": false,
      "t": 165599.99999999994,
      "d": 523.3333333333139,
      "v": 60
    },
    {
      "midi": 60,
      "hit": false,
      "t": 165599.99999999994,
      "d": 539.9999999999709,
      "v": 67
    },
    {
      "midi": 64,
      "hit": false,
      "t": 165599.99999999994,
      "d": 556.6666666666279,
      "v": 72
    },
    {
      "midi": 67,
      "hit": false,
      "t": 165599.99999999994,
      "d": 613.3333333332848,
      "v": 70
    },
    {
      "midi": 36,
      "hit": false,
      "t": 165599.99999999994,
      "d": 1016.6666666666279,
      "v": 66
    },
    {
      "midi": 48,
      "hit": false,
      "t": 165999.99999999994,
      "d": 616.6666666666279,
      "v": 35
    },
    {
      "midi": 60,
      "hit": false,
      "t": 166399.9999999999,
      "d": 200,
      "v": 73
    },
    {
      "midi": 64,
      "hit": false,
      "t": 166399.9999999999,
      "d": 200,
      "v": 65
    },
    {
      "midi": 55,
      "hit": false,
      "t": 166399.9999999999,
      "d": 216.66666666665697,
      "v": 64
    },
    {
      "midi": 48,
      "hit": false,
      "t": 166799.9999999999,
      "d": 456.66666666665697,
      "v": 48
    },
    {
      "midi": 55,
      "hit": false,
      "t": 166799.9999999999,
      "d": 510,
      "v": 57
    },
    {
      "midi": 60,
      "hit": false,
      "t": 166799.9999999999,
      "d": 566.666666666657,
      "v": 74
    },
    {
      "midi": 64,
      "hit": false,
      "t": 166799.9999999999,
      "d": 566.666666666657,
      "v": 71
    },
    {
      "midi": 67,
      "hit": false,
      "t": 166799.9999999999,
      "d": 603.3333333333139,
      "v": 68
    },
    {
      "midi": 36,
      "hit": false,
      "t": 166799.9999999999,
      "d": 913.3333333333139,
      "v": 54
    },
    {
      "midi": 55,
      "hit": false,
      "t": 167403.33333333323,
      "d": 596.666666666657,
      "v": 67
    },
    {
      "midi": 60,
      "hit": false,
      "t": 167599.99999999988,
      "d": 333.33333333334303,
      "v": 84
    },
    {
      "midi": 67,
      "hit": false,
      "t": 167799.99999999988,
      "d": 143.33333333334303,
      "v": 89
    },
    {
      "midi": 43,
      "hit": false,
      "t": 167999.99999999988,
      "d": 456.66666666665697,
      "v": 48
    },
    {
      "midi": 59,
      "hit": false,
      "t": 167999.99999999988,
      "d": 509.9999999999709,
      "v": 57
    },
    {
      "midi": 62,
      "hit": false,
      "t": 167999.99999999988,
      "d": 566.6666666666279,
      "v": 74
    },
    {
      "midi": 67,
      "hit": false,
      "t": 167999.99999999988,
      "d": 566.6666666666279,
      "v": 71
    },
    {
      "midi": 71,
      "hit": false,
      "t": 167999.99999999988,
      "d": 603.3333333332848,
      "v": 68
    },
    {
      "midi": 59,
      "hit": false,
      "t": 168603.33333333317,
      "d": 596.666666666657,
      "v": 67
    },
    {
      "midi": 62,
      "hit": false,
      "t": 168799.99999999983,
      "d": 333.33333333334303,
      "v": 84
    },
    {
      "midi": 71,
      "hit": false,
      "t": 168999.99999999983,
      "d": 143.33333333334303,
      "v": 89
    },
    {
      "midi": 43,
      "hit": false,
      "t": 169199.99999999983,
      "d": 1200,
      "v": 49
    },
    {
      "midi": 55,
      "hit": false,
      "t": 169199.99999999983,
      "d": 1200,
      "v": 65
    },
    {
      "midi": 59,
      "hit": false,
      "t": 169199.99999999983,
      "d": 1200,
      "v": 65
    },
    {
      "midi": 62,
      "hit": false,
      "t": 169199.99999999983,
      "d": 1200,
      "v": 65
    },
    {
      "midi": 57,
      "hit": false,
      "t": 170399.99999999983,
      "d": 523.3333333333139,
      "v": 60
    },
    {
      "midi": 62,
      "hit": false,
      "t": 170399.99999999983,
      "d": 539.9999999999709,
      "v": 67
    },
    {
      "midi": 66,
      "hit": false,
      "t": 170399.99999999983,
      "d": 556.6666666666279,
      "v": 72
    },
    {
      "midi": 69,
      "hit": false,
      "t": 170399.99999999983,
      "d": 613.3333333332848,
      "v": 70
    },
    {
      "midi": 38,
      "hit": false,
      "t": 170399.99999999983,
      "d": 1016.6666666666279,
      "v": 66
    },
    {
      "midi": 50,
      "hit": false,
      "t": 170799.99999999983,
      "d": 616.6666666666279,
      "v": 35
    },
    {
      "midi": 62,
      "hit": false,
      "t": 171199.9999999998,
      "d": 200,
      "v": 73
    },
    {
      "midi": 66,
      "hit": false,
      "t": 171199.9999999998,
      "d": 200,
      "v": 65
    },
    {
      "midi": 57,
      "hit": false,
      "t": 171199.9999999998,
      "d": 216.66666666665697,
      "v": 64
    },
    {
      "midi": 57,
      "hit": false,
      "t": 171599.9999999998,
      "d": 706.666666666657,
      "v": 72
    },
    {
      "midi": 62,
      "hit": false,
      "t": 171599.9999999998,
      "d": 706.666666666657,
      "v": 72
    },
    {
      "midi": 66,
      "hit": false,
      "t": 171599.9999999998,
      "d": 706.666666666657,
      "v": 72
    },
    {
      "midi": 38,
      "hit": false,
      "t": 171599.9999999998,
      "d": 846.6666666666279,
      "v": 54
    },
    {
      "midi": 50,
      "hit": false,
      "t": 172399.99999999977,
      "d": 46.666666666656965,
      "v": 62
    },
    {
      "midi": 57,
      "hit": false,
      "t": 172399.99999999977,
      "d": 73.33333333331393,
      "v": 75
    },
    {
      "midi": 62,
      "hit": false,
      "t": 172399.99999999977,
      "d": 73.33333333331393,
      "v": 75
    },
    {
      "midi": 66,
      "hit": false,
      "t": 172399.99999999977,
      "d": 73.33333333331393,
      "v": 75
    },
    {
      "midi": 57,
      "hit": false,
      "t": 172799.99999999974,
      "d": 523.3333333333139,
      "v": 60
    },
    {
      "midi": 62,
      "hit": false,
      "t": 172799.99999999974,
      "d": 539.9999999999709,
      "v": 67
    },
    {
      "midi": 66,
      "hit": false,
      "t": 172799.99999999974,
      "d": 556.6666666666279,
      "v": 72
    },
    {
      "midi": 69,
      "hit": false,
      "t": 172799.99999999974,
      "d": 613.3333333332848,
      "v": 70
    },
    {
      "midi": 38,
      "hit": false,
      "t": 172799.99999999974,
      "d": 1016.6666666666279,
      "v": 66
    },
    {
      "midi": 50,
      "hit": false,
      "t": 173199.99999999974,
      "d": 616.6666666666279,
      "v": 35
    },
    {
      "midi": 62,
      "hit": false,
      "t": 173599.9999999997,
      "d": 200,
      "v": 73
    },
    {
      "midi": 66,
      "hit": false,
      "t": 173599.9999999997,
      "d": 200,
      "v": 65
    },
    {
      "midi": 57,
      "hit": false,
      "t": 173599.9999999997,
      "d": 216.66666666665697,
      "v": 64
    },
    {
      "midi": 50,
      "hit": false,
      "t": 173999.9999999997,
      "d": 456.66666666665697,
      "v": 48
    },
    {
      "midi": 57,
      "hit": false,
      "t": 173999.9999999997,
      "d": 510,
      "v": 57
    },
    {
      "midi": 62,
      "hit": false,
      "t": 173999.9999999997,
      "d": 566.666666666657,
      "v": 74
    },
    {
      "midi": 66,
      "hit": false,
      "t": 173999.9999999997,
      "d": 566.666666666657,
      "v": 71
    },
    {
      "midi": 69,
      "hit": false,
      "t": 173999.9999999997,
      "d": 603.3333333333139,
      "v": 68
    },
    {
      "midi": 38,
      "hit": false,
      "t": 173999.9999999997,
      "d": 913.3333333333139,
      "v": 54
    },
    {
      "midi": 57,
      "hit": false,
      "t": 174603.33333333302,
      "d": 596.666666666657,
      "v": 67
    },
    {
      "midi": 62,
      "hit": false,
      "t": 174799.99999999968,
      "d": 333.33333333334303,
      "v": 84
    },
    {
      "midi": 69,
      "hit": false,
      "t": 174999.99999999968,
      "d": 143.33333333334303,
      "v": 89
    },
    {
      "midi": 55,
      "hit": false,
      "t": 175199.99999999968,
      "d": 523.333333333343,
      "v": 60
    },
    {
      "midi": 60,
      "hit": false,
      "t": 175199.99999999968,
      "d": 540,
      "v": 67
    },
    {
      "midi": 64,
      "hit": false,
      "t": 175199.99999999968,
      "d": 556.666666666657,
      "v": 72
    },
    {
      "midi": 67,
      "hit": false,
      "t": 175199.99999999968,
      "d": 613.3333333333139,
      "v": 70
    },
    {
      "midi": 36,
      "hit": false,
      "t": 175199.99999999968,
      "d": 1016.6666666666279,
      "v": 66
    },
    {
      "midi": 48,
      "hit": false,
      "t": 175599.99999999968,
      "d": 616.6666666666279,
      "v": 35
    },
    {
      "midi": 60,
      "hit": false,
      "t": 175999.99999999965,
      "d": 200,
      "v": 73
    },
    {
      "midi": 64,
      "hit": false,
      "t": 175999.99999999965,
      "d": 200,
      "v": 65
    },
    {
      "midi": 55,
      "hit": false,
      "t": 175999.99999999965,
      "d": 216.66666666665697,
      "v": 64
    },
    {
      "midi": 36,
      "hit": false,
      "t": 176399.99999999965,
      "d": 1200,
      "v": 49
    },
    {
      "midi": 55,
      "hit": false,
      "t": 176399.99999999965,
      "d": 1200,
      "v": 65
    },
    {
      "midi": 60,
      "hit": false,
      "t": 176399.99999999965,
      "d": 1200,
      "v": 65
    },
    {
      "midi": 64,
      "hit": false,
      "t": 176399.99999999965,
      "d": 1200,
      "v": 65
    },
    {
      "midi": 43,
      "hit": false,
      "t": 177599.99999999965,
      "d": 1200,
      "v": 49
    },
    {
      "midi": 55,
      "hit": false,
      "t": 177599.99999999965,
      "d": 1200,
      "v": 65
    },
    {
      "midi": 59,
      "hit": false,
      "t": 177599.99999999965,
      "d": 1200,
      "v": 65
    },
    {
      "midi": 62,
      "hit": false,
      "t": 177599.99999999965,
      "d": 1200,
      "v": 65
    }
  ]
}