{
  "jsonPath": "Pop/Classic Italian Pop/Drupi/stasera.json",
  "path": "Pop\\Classic Italian Pop\\Drupi\\Stasera.mid",
  "name": "Stasera",
  "difficulty": "Advanced",
  "bpm": 72.99998296667064,
  "notes": [
    {
      "midi": 57,
      "hit": false,
      "t": 3287.672,
      "d": 3296.2336458333334,
      "v": 79
    },
    {
      "midi": 71,
      "hit": false,
      "t": 3291.9528229166667,
      "d": 723.4590729166666,
      "v": 102
    },
    {
      "midi": 64,
      "hit": false,
      "t": 3291.9528229166667,
      "d": 3176.370604166667,
      "v": 79
    },
    {
      "midi": 69,
      "hit": false,
      "t": 3916.95296875,
      "d": 603.5960312500001,
      "v": 83
    },
    {
      "midi": 68,
      "hit": false,
      "t": 4529.110645833333,
      "d": 436.6439375,
      "v": 75
    },
    {
      "midi": 71,
      "hit": false,
      "t": 4940.069645833333,
      "d": 590.7535625,
      "v": 95
    },
    {
      "midi": 69,
      "hit": false,
      "t": 5543.665677083333,
      "d": 625.0001458333336,
      "v": 76
    },
    {
      "midi": 68,
      "hit": false,
      "t": 6160.1041770833335,
      "d": 415.2398229166665,
      "v": 63
    },
    {
      "midi": 61,
      "hit": false,
      "t": 6566.782354166667,
      "d": 3347.6035208333296,
      "v": 75
    },
    {
      "midi": 71,
      "hit": false,
      "t": 6571.063177083333,
      "d": 706.3357812499999,
      "v": 94
    },
    {
      "midi": 64,
      "hit": false,
      "t": 6571.063177083333,
      "d": 3223.4596562499974,
      "v": 75
    },
    {
      "midi": 69,
      "hit": false,
      "t": 7196.063322916667,
      "d": 646.4042604166661,
      "v": 78
    },
    {
      "midi": 68,
      "hit": false,
      "t": 7812.501822916666,
      "d": 466.60969791666594,
      "v": 62
    },
    {
      "midi": 71,
      "hit": false,
      "t": 8223.460822916666,
      "d": 646.4042604166661,
      "v": 92
    },
    {
      "midi": 69,
      "hit": false,
      "t": 8835.618499999999,
      "d": 637.8426145833328,
      "v": 78
    },
    {
      "midi": 68,
      "hit": false,
      "t": 9447.776177083331,
      "d": 398.11653124999975,
      "v": 69
    },
    {
      "midi": 71,
      "hit": false,
      "t": 9867.296822916664,
      "d": 659.2467291666671,
      "v": 98
    },
    {
      "midi": 64,
      "hit": false,
      "t": 9867.296822916664,
      "d": 3283.391177083333,
      "v": 75
    },
    {
      "midi": 54,
      "hit": false,
      "t": 9867.296822916664,
      "d": 3287.6719999999987,
      "v": 79
    },
    {
      "midi": 70,
      "hit": false,
      "t": 10483.735322916664,
      "d": 663.5275520833329,
      "v": 78
    },
    {
      "midi": 66,
      "hit": false,
      "t": 11100.173822916664,
      "d": 475.17134375000023,
      "v": 65
    },
    {
      "midi": 71,
      "hit": false,
      "t": 11515.41364583333,
      "d": 612.1576770833344,
      "v": 94
    },
    {
      "midi": 70,
      "hit": false,
      "t": 12119.009677083332,
      "d": 654.9659062499995,
      "v": 78
    },
    {
      "midi": 66,
      "hit": false,
      "t": 12735.448177083332,
      "d": 432.36311458332966,
      "v": 69
    },
    {
      "midi": 71,
      "hit": false,
      "t": 13146.40717708333,
      "d": 680.650843749996,
      "v": 98
    },
    {
      "midi": 62,
      "hit": false,
      "t": 13146.40717708333,
      "d": 3146.404843749997,
      "v": 64
    },
    {
      "midi": 69,
      "hit": false,
      "t": 13771.40732291666,
      "d": 620.719322916666,
      "v": 78
    },
    {
      "midi": 66,
      "hit": false,
      "t": 14387.84582291666,
      "d": 458.04805208333346,
      "v": 72
    },
    {
      "midi": 71,
      "hit": false,
      "t": 14803.085645833327,
      "d": 603.596031250001,
      "v": 94
    },
    {
      "midi": 69,
      "hit": false,
      "t": 15406.681677083328,
      "d": 663.5275520833329,
      "v": 78
    },
    {
      "midi": 66,
      "hit": false,
      "t": 16023.120177083329,
      "d": 453.7672291666677,
      "v": 65
    },
    {
      "midi": 71,
      "hit": false,
      "t": 16429.79835416666,
      "d": 697.7741354166646,
      "v": 94
    },
    {
      "midi": 62,
      "hit": false,
      "t": 16429.79835416666,
      "d": 3163.5281354166655,
      "v": 61
    },
    {
      "midi": 69,
      "hit": false,
      "t": 17050.517677083328,
      "d": 684.9316666666637,
      "v": 78
    },
    {
      "midi": 65,
      "hit": false,
      "t": 17675.51782291666,
      "d": 505.13710416666436,
      "v": 68
    },
    {
      "midi": 71,
      "hit": false,
      "t": 18086.47682291666,
      "d": 654.9659062499995,
      "v": 94
    },
    {
      "midi": 69,
      "hit": false,
      "t": 18702.91532291666,
      "d": 663.5275520833347,
      "v": 78
    },
    {
      "midi": 65,
      "hit": false,
      "t": 19319.35382291666,
      "d": 359.58912500000224,
      "v": 65
    },
    {
      "midi": 71,
      "hit": false,
      "t": 19730.31282291666,
      "d": 663.5275520833347,
      "v": 94
    },
    {
      "midi": 64,
      "hit": false,
      "t": 19730.31282291666,
      "d": 3103.596614583337,
      "v": 79
    },
    {
      "midi": 57,
      "hit": false,
      "t": 19730.31282291666,
      "d": 3257.7062395833345,
      "v": 54
    },
    {
      "midi": 69,
      "hit": false,
      "t": 20346.75132291666,
      "d": 646.404260416668,
      "v": 82
    },
    {
      "midi": 68,
      "hit": false,
      "t": 20963.18982291666,
      "d": 458.0480520833371,
      "v": 63
    },
    {
      "midi": 71,
      "hit": false,
      "t": 21374.148822916664,
      "d": 607.8768541666686,
      "v": 94
    },
    {
      "midi": 69,
      "hit": false,
      "t": 21982.025677083333,
      "d": 659.2467291666653,
      "v": 78
    },
    {
      "midi": 68,
      "hit": false,
      "t": 22602.745,
      "d": 308.2192499999983,
      "v": 63
    },
    {
      "midi": 71,
      "hit": false,
      "t": 23009.42317708333,
      "d": 680.6508437499979,
      "v": 98
    },
    {
      "midi": 64,
      "hit": false,
      "t": 23009.42317708333,
      "d": 5813.357520833331,
      "v": 67
    },
    {
      "midi": 52,
      "hit": false,
      "t": 23009.42317708333,
      "d": 5924.658916666664,
      "v": 79
    },
    {
      "midi": 69,
      "hit": false,
      "t": 23634.42332291666,
      "d": 667.8083750000005,
      "v": 86
    },
    {
      "midi": 68,
      "hit": false,
      "t": 24250.86182291666,
      "d": 483.73298958333544,
      "v": 63
    },
    {
      "midi": 71,
      "hit": false,
      "t": 24666.10164583333,
      "d": 603.5960312499992,
      "v": 94
    },
    {
      "midi": 69,
      "hit": false,
      "t": 25278.25932291666,
      "d": 590.7535624999982,
      "v": 78
    },
    {
      "midi": 68,
      "hit": false,
      "t": 25881.85535416666,
      "d": 453.7672291666677,
      "v": 57
    },
    {
      "midi": 71,
      "hit": false,
      "t": 26297.095177083327,
      "d": 2598.4595104166656,
      "v": 85
    },
    {
      "midi": 64,
      "hit": false,
      "t": 29589.04799999999,
      "d": 1164.3838333333333,
      "v": 93
    },
    {
      "midi": 61,
      "hit": false,
      "t": 29589.04799999999,
      "d": 1185.7879479166659,
      "v": 81
    },
    {
      "midi": 69,
      "hit": false,
      "t": 29589.04799999999,
      "d": 1194.3495937499974,
      "v": 89
    },
    {
      "midi": 57,
      "hit": false,
      "t": 29589.04799999999,
      "d": 1211.4728854166642,
      "v": 89
    },
    {
      "midi": 45,
      "hit": false,
      "t": 29589.04799999999,
      "d": 2542.808812499996,
      "v": 77
    },
    {
      "midi": 59,
      "hit": false,
      "t": 32054.80199999999,
      "d": 423.8014687499999,
      "v": 110
    },
    {
      "midi": 64,
      "hit": false,
      "t": 32054.80199999999,
      "d": 458.04805208333346,
      "v": 110
    },
    {
      "midi": 49,
      "hit": false,
      "t": 32868.158354166655,
      "d": 184.07538541666872,
      "v": 51
    },
    {
      "midi": 73,
      "hit": false,
      "t": 32868.158354166655,
      "d": 355.30830208333646,
      "v": 49
    },
    {
      "midi": 68,
      "hit": false,
      "t": 32902.40493749999,
      "d": 239.72608333333483,
      "v": 64
    },
    {
      "midi": 68,
      "hit": false,
      "t": 34109.59699999999,
      "d": 727.739895833336,
      "v": 91
    },
    {
      "midi": 73,
      "hit": false,
      "t": 34109.59699999999,
      "d": 753.424833333338,
      "v": 91
    },
    {
      "midi": 76,
      "hit": false,
      "t": 34931.51499999999,
      "d": 333.9041874999966,
      "v": 98
    },
    {
      "midi": 85,
      "hit": false,
      "t": 35556.51514583332,
      "d": 175.51373958332988,
      "v": 110
    },
    {
      "midi": 58,
      "hit": false,
      "t": 36142.98788541665,
      "d": 346.7466562500049,
      "v": 89
    },
    {
      "midi": 54,
      "hit": false,
      "t": 36142.98788541665,
      "d": 406.6781770833404,
      "v": 71
    },
    {
      "midi": 42,
      "hit": false,
      "t": 36147.26870833332,
      "d": 2662.671854166678,
      "v": 41
    },
    {
      "midi": 58,
      "hit": false,
      "t": 37397.26899999999,
      "d": 398.1165312500016,
      "v": 103
    },
    {
      "midi": 54,
      "hit": false,
      "t": 37401.54982291666,
      "d": 368.15077083333017,
      "v": 112
    },
    {
      "midi": 59,
      "hit": false,
      "t": 37816.78964583333,
      "d": 710.6166041666729,
      "v": 111
    },
    {
      "midi": 54,
      "hit": false,
      "t": 37821.07046875,
      "d": 1382.7058020833356,
      "v": 111
    },
    {
      "midi": 58,
      "hit": false,
      "t": 38647.269291666664,
      "d": 513.6987500000032,
      "v": 110
    },
    {
      "midi": 61,
      "hit": false,
      "t": 38647.269291666664,
      "d": 535.1028645833358,
      "v": 110
    },
    {
      "midi": 66,
      "hit": false,
      "t": 39417.817416666665,
      "d": 1134.4180729166692,
      "v": 64
    },
    {
      "midi": 62,
      "hit": false,
      "t": 39417.817416666665,
      "d": 1155.8221875000017,
      "v": 81
    },
    {
      "midi": 57,
      "hit": false,
      "t": 39422.098239583334,
      "d": 1160.103010416664,
      "v": 48
    },
    {
      "midi": 50,
      "hit": false,
      "t": 39443.50235416667,
      "d": 2756.8499583333323,
      "v": 27
    },
    {
      "midi": 64,
      "hit": false,
      "t": 41494.016531249996,
      "d": 256.84937500000524,
      "v": 106
    },
    {
      "midi": 57,
      "hit": false,
      "t": 41494.016531249996,
      "d": 736.3015416666676,
      "v": 93
    },
    {
      "midi": 66,
      "hit": false,
      "t": 41613.87957291667,
      "d": 513.6987499999959,
      "v": 93
    },
    {
      "midi": 65,
      "hit": false,
      "t": 42735.45517708333,
      "d": 440.9247604166667,
      "v": 68
    },
    {
      "midi": 57,
      "hit": false,
      "t": 42739.736,
      "d": 316.7808958333335,
      "v": 59
    },
    {
      "midi": 62,
      "hit": false,
      "t": 42744.01682291667,
      "d": 295.37678125000093,
      "v": 64
    },
    {
      "midi": 74,
      "hit": false,
      "t": 43968.33217708333,
      "d": 1494.0071979166678,
      "v": 109
    },
    {
      "midi": 69,
      "hit": false,
      "t": 45205.49,
      "d": 702.0549583333341,
      "v": 105
    },
    {
      "midi": 65,
      "hit": false,
      "t": 45415.25032291666,
      "d": 483.7329895833391,
      "v": 105
    },
    {
      "midi": 62,
      "hit": false,
      "t": 45625.01064583333,
      "d": 303.9384270833325,
      "v": 98
    },
    {
      "midi": 45,
      "hit": false,
      "t": 46001.7230625,
      "d": 3180.651427083343,
      "v": 35
    },
    {
      "midi": 57,
      "hit": false,
      "t": 46006.00388541667,
      "d": 1078.7673750000104,
      "v": 64
    },
    {
      "midi": 61,
      "hit": false,
      "t": 46010.28470833334,
      "d": 1057.3632604166778,
      "v": 86
    },
    {
      "midi": 69,
      "hit": false,
      "t": 46232.88750000001,
      "d": 1232.8770000000004,
      "v": 76
    },
    {
      "midi": 62,
      "hit": false,
      "t": 48077.92217708335,
      "d": 415.2398229166647,
      "v": 107
    },
    {
      "midi": 66,
      "hit": false,
      "t": 48077.92217708335,
      "d": 466.6096979166614,
      "v": 107
    },
    {
      "midi": 57,
      "hit": false,
      "t": 48077.92217708335,
      "d": 826.19882291666,
      "v": 107
    },
    {
      "midi": 64,
      "hit": false,
      "t": 48493.16200000001,
      "d": 500.85628124999494,
      "v": 93
    },
    {
      "midi": 61,
      "hit": false,
      "t": 48501.72364583334,
      "d": 470.8905208333308,
      "v": 100
    },
    {
      "midi": 69,
      "hit": false,
      "t": 48904.12100000001,
      "d": 205.47950000000128,
      "v": 91
    },
    {
      "midi": 59,
      "hit": false,
      "t": 49297.956708333346,
      "d": 2534.247166666668,
      "v": 67
    },
    {
      "midi": 64,
      "hit": false,
      "t": 49297.956708333346,
      "d": 2559.93210416667,
      "v": 67
    },
    {
      "midi": 56,
      "hit": false,
      "t": 49297.956708333346,
      "d": 2607.0211562500044,
      "v": 67
    },
    {
      "midi": 56,
      "hit": false,
      "t": 52166.10806250002,
      "d": 252.56855208333582,
      "v": 106
    },
    {
      "midi": 59,
      "hit": false,
      "t": 52166.10806250002,
      "d": 286.81513541666936,
      "v": 110
    },
    {
      "midi": 64,
      "hit": false,
      "t": 52170.38888541669,
      "d": 256.84937499999796,
      "v": 95
    },
    {
      "midi": 57,
      "hit": false,
      "t": 52594.19035416669,
      "d": 1780.8223333333372,
      "v": 93
    },
    {
      "midi": 64,
      "hit": false,
      "t": 52594.19035416669,
      "d": 1840.7538541666727,
      "v": 106
    },
    {
      "midi": 61,
      "hit": false,
      "t": 52598.47117708336,
      "d": 1772.2606874999983,
      "v": 101
    },
    {
      "midi": 45,
      "hit": false,
      "t": 52602.75200000003,
      "d": 2093.3224062500085,
      "v": 77
    },
    {
      "midi": 61,
      "hit": false,
      "t": 54631.86206250003,
      "d": 774.8289479166706,
      "v": 74
    },
    {
      "midi": 57,
      "hit": false,
      "t": 54631.86206250003,
      "d": 791.9522395833337,
      "v": 71
    },
    {
      "midi": 64,
      "hit": false,
      "t": 54636.1428854167,
      "d": 779.1097708333327,
      "v": 89
    },
    {
      "midi": 45,
      "hit": false,
      "t": 55025.69777083337,
      "d": 154.10962499999732,
      "v": 77
    },
    {
      "midi": 69,
      "hit": false,
      "t": 55226.896447916704,
      "d": 248.28772916665912,
      "v": 77
    },
    {
      "midi": 64,
      "hit": false,
      "t": 55890.42400000003,
      "d": 1164.3838333333333,
      "v": 93
    },
    {
      "midi": 61,
      "hit": false,
      "t": 55890.42400000003,
      "d": 1185.7879479166659,
      "v": 81
    },
    {
      "midi": 69,
      "hit": false,
      "t": 55890.42400000003,
      "d": 1194.3495937499974,
      "v": 89
    },
    {
      "midi": 57,
      "hit": false,
      "t": 55890.42400000003,
      "d": 1211.4728854166606,
      "v": 89
    },
    {
      "midi": 45,
      "hit": false,
      "t": 55890.42400000003,
      "d": 2542.808812499992,
      "v": 77
    },
    {
      "midi": 57,
      "hit": false,
      "t": 58767.13700000002,
      "d": 458.0480520833371,
      "v": 110
    },
    {
      "midi": 52,
      "hit": false,
      "t": 58767.13700000002,
      "d": 1438.3565000000017,
      "v": 110
    },
    {
      "midi": 56,
      "hit": false,
      "t": 59182.37682291669,
      "d": 1228.596177083331,
      "v": 90
    },
    {
      "midi": 64,
      "hit": false,
      "t": 60410.97300000002,
      "d": 333.9041874999966,
      "v": 98
    },
    {
      "midi": 56,
      "hit": false,
      "t": 60410.97300000002,
      "d": 727.7398958333288,
      "v": 91
    },
    {
      "midi": 61,
      "hit": false,
      "t": 60410.97300000002,
      "d": 753.4248333333308,
      "v": 91
    },
    {
      "midi": 64,
      "hit": false,
      "t": 61643.85000000002,
      "d": 333.9041874999966,
      "v": 98
    },
    {
      "midi": 56,
      "hit": false,
      "t": 61643.85000000002,
      "d": 727.7398958333288,
      "v": 91
    },
    {
      "midi": 61,
      "hit": false,
      "t": 61643.85000000002,
      "d": 753.4248333333308,
      "v": 91
    },
    {
      "midi": 58,
      "hit": false,
      "t": 62444.363885416686,
      "d": 346.7466562500049,
      "v": 89
    },
    {
      "midi": 54,
      "hit": false,
      "t": 62444.363885416686,
      "d": 406.6781770833404,
      "v": 71
    },
    {
      "midi": 42,
      "hit": false,
      "t": 62448.644708333355,
      "d": 2662.671854166678,
      "v": 102
    },
    {
      "midi": 58,
      "hit": false,
      "t": 63698.645000000026,
      "d": 398.1165312500016,
      "v": 103
    },
    {
      "midi": 66,
      "hit": false,
      "t": 63698.645000000026,
      "d": 1172.9454791666722,
      "v": 88
    },
    {
      "midi": 54,
      "hit": false,
      "t": 63702.925822916695,
      "d": 368.15077083333017,
      "v": 112
    },
    {
      "midi": 59,
      "hit": false,
      "t": 64118.16564583336,
      "d": 710.6166041666729,
      "v": 111
    },
    {
      "midi": 54,
      "hit": false,
      "t": 64122.44646875003,
      "d": 1382.7058020833356,
      "v": 111
    },
    {
      "midi": 66,
      "hit": false,
      "t": 64931.52200000003,
      "d": 616.4384999999966,
      "v": 78
    },
    {
      "midi": 58,
      "hit": false,
      "t": 64948.6452916667,
      "d": 513.6987500000032,
      "v": 110
    },
    {
      "midi": 61,
      "hit": false,
      "t": 64948.6452916667,
      "d": 535.1028645833358,
      "v": 110
    },
    {
      "midi": 66,
      "hit": false,
      "t": 65719.19341666669,
      "d": 1134.4180729166692,
      "v": 64
    },
    {
      "midi": 62,
      "hit": false,
      "t": 65719.19341666669,
      "d": 1155.8221875000017,
      "v": 81
    },
    {
      "midi": 57,
      "hit": false,
      "t": 65723.47423958336,
      "d": 1160.1030104166712,
      "v": 48
    },
    {
      "midi": 50,
      "hit": false,
      "t": 65744.87835416669,
      "d": 2756.849958333347,
      "v": 100
    },
    {
      "midi": 64,
      "hit": false,
      "t": 67795.39253125004,
      "d": 256.8493749999907,
      "v": 106
    },
    {
      "midi": 57,
      "hit": false,
      "t": 67795.39253125004,
      "d": 736.3015416666749,
      "v": 93
    },
    {
      "midi": 66,
      "hit": false,
      "t": 67970.90627083337,
      "d": 286.8151354166621,
      "v": 93
    },
    {
      "midi": 64,
      "hit": false,
      "t": 68424.67350000003,
      "d": 291.09595833334606,
      "v": 93
    },
    {
      "midi": 62,
      "hit": false,
      "t": 68630.15300000005,
      "d": 205.47950000000128,
      "v": 91
    },
    {
      "midi": 65,
      "hit": false,
      "t": 69036.83117708338,
      "d": 440.92476041667396,
      "v": 91
    },
    {
      "midi": 57,
      "hit": false,
      "t": 69041.11200000005,
      "d": 316.7808958333335,
      "v": 91
    },
    {
      "midi": 62,
      "hit": false,
      "t": 69045.39282291672,
      "d": 295.37678125000093,
      "v": 98
    },
    {
      "midi": 74,
      "hit": false,
      "t": 70269.70817708339,
      "d": 1494.007197916697,
      "v": 109
    },
    {
      "midi": 69,
      "hit": false,
      "t": 70273.98900000006,
      "d": 410.9590000000171,
      "v": 86
    },
    {
      "midi": 65,
      "hit": false,
      "t": 70278.26982291673,
      "d": 483.7329895833536,
      "v": 86
    },
    {
      "midi": 62,
      "hit": false,
      "t": 70282.5506458334,
      "d": 303.9384270833398,
      "v": 88
    },
    {
      "midi": 69,
      "hit": false,
      "t": 71095.90700000008,
      "d": 1190.0687708333426,
      "v": 105
    },
    {
      "midi": 65,
      "hit": false,
      "t": 71100.18782291675,
      "d": 1023.116677083337,
      "v": 105
    },
    {
      "midi": 62,
      "hit": false,
      "t": 71104.46864583342,
      "d": 1018.8358541666676,
      "v": 98
    },
    {
      "midi": 45,
      "hit": false,
      "t": 72303.09906250008,
      "d": 3180.6514270832995,
      "v": 35
    },
    {
      "midi": 57,
      "hit": false,
      "t": 72307.37988541675,
      "d": 1078.7673749999958,
      "v": 64
    },
    {
      "midi": 61,
      "hit": false,
      "t": 72311.66070833342,
      "d": 1057.3632604166633,
      "v": 86
    },
    {
      "midi": 69,
      "hit": false,
      "t": 72328.78400000009,
      "d": 1057.3632604166633,
      "v": 86
    },
    {
      "midi": 64,
      "hit": false,
      "t": 72328.78400000009,
      "d": 1232.8769999999931,
      "v": 76
    },
    {
      "midi": 33,
      "hit": false,
      "t": 74362.17488541675,
      "d": 1164.383833333297,
      "v": 93
    },
    {
      "midi": 59,
      "hit": false,
      "t": 74781.69553125008,
      "d": 214.04114583332557,
      "v": 110
    },
    {
      "midi": 64,
      "hit": false,
      "t": 74781.69553125008,
      "d": 595.0343854166422,
      "v": 106
    },
    {
      "midi": 61,
      "hit": false,
      "t": 74974.33256250007,
      "d": 214.04114583332557,
      "v": 81
    },
    {
      "midi": 57,
      "hit": false,
      "t": 75171.25041666673,
      "d": 171.23291666666046,
      "v": 89
    },
    {
      "midi": 56,
      "hit": false,
      "t": 75582.20941666672,
      "d": 1720.8908125000162,
      "v": 85
    },
    {
      "midi": 40,
      "hit": false,
      "t": 75582.20941666672,
      "d": 2063.3566458333516,
      "v": 101
    },
    {
      "midi": 59,
      "hit": false,
      "t": 75590.77106250006,
      "d": 1755.1373958333425,
      "v": 93
    },
    {
      "midi": 64,
      "hit": false,
      "t": 76027.41500000007,
      "d": 1339.8975729166705,
      "v": 106
    },
    {
      "midi": 40,
      "hit": false,
      "t": 78035.12094791674,
      "d": 2307.3635520833486,
      "v": 89
    },
    {
      "midi": 56,
      "hit": false,
      "t": 78043.68259375008,
      "d": 860.4454062500008,
      "v": 85
    },
    {
      "midi": 59,
      "hit": false,
      "t": 78052.24423958342,
      "d": 620.7193229166733,
      "v": 97
    },
    {
      "midi": 57,
      "hit": false,
      "t": 78476.04570833343,
      "d": 372.4315937499923,
      "v": 97
    },
    {
      "midi": 61,
      "hit": false,
      "t": 78484.60735416677,
      "d": 222.60279166664986,
      "v": 93
    },
    {
      "midi": 64,
      "hit": false,
      "t": 78882.72388541675,
      "d": 1254.2811145833402,
      "v": 73
    },
    {
      "midi": 59,
      "hit": false,
      "t": 78887.00470833342,
      "d": 1660.9592916666734,
      "v": 93
    },
    {
      "midi": 64,
      "hit": false,
      "t": 82196.08082291676,
      "d": 265.41102083332953,
      "v": 106
    },
    {
      "midi": 69,
      "hit": false,
      "t": 82196.08082291676,
      "d": 402.3973541666637,
      "v": 106
    },
    {
      "midi": 57,
      "hit": false,
      "t": 82196.08082291676,
      "d": 428.0822916666657,
      "v": 102
    },
    {
      "midi": 73,
      "hit": false,
      "t": 82196.08082291676,
      "d": 479.45216666666965,
      "v": 94
    },
    {
      "midi": 45,
      "hit": false,
      "t": 82196.08082291676,
      "d": 2504.281406250011,
      "v": 94
    },
    {
      "midi": 64,
      "hit": false,
      "t": 82607.03982291676,
      "d": 89.89728124999965,
      "v": 38
    },
    {
      "midi": 57,
      "hit": false,
      "t": 83017.99882291676,
      "d": 303.9384270833398,
      "v": 82
    },
    {
      "midi": 57,
      "hit": false,
      "t": 83420.39617708344,
      "d": 218.321968749995,
      "v": 69
    },
    {
      "midi": 57,
      "hit": false,
      "t": 83831.35517708343,
      "d": 188.35620833333815,
      "v": 90
    },
    {
      "midi": 64,
      "hit": false,
      "t": 83835.6360000001,
      "d": 346.7466562500049,
      "v": 94
    },
    {
      "midi": 61,
      "hit": false,
      "t": 83839.91682291677,
      "d": 316.7808958333335,
      "v": 82
    },
    {
      "midi": 57,
      "hit": false,
      "t": 84250.87582291677,
      "d": 85.61645833333023,
      "v": 25
    },
    {
      "midi": 57,
      "hit": false,
      "t": 84653.27317708344,
      "d": 248.2877291666664,
      "v": 111
    },
    {
      "midi": 61,
      "hit": false,
      "t": 84653.27317708344,
      "d": 389.55488541667,
      "v": 106
    },
    {
      "midi": 64,
      "hit": false,
      "t": 84661.83482291678,
      "d": 398.1165312499943,
      "v": 94
    },
    {
      "midi": 57,
      "hit": false,
      "t": 85072.79382291676,
      "d": 171.23291666666046,
      "v": 94
    },
    {
      "midi": 56,
      "hit": false,
      "t": 85483.75282291675,
      "d": 261.1301979166601,
      "v": 115
    },
    {
      "midi": 61,
      "hit": false,
      "t": 85483.75282291675,
      "d": 398.1165312499943,
      "v": 98
    },
    {
      "midi": 64,
      "hit": false,
      "t": 85483.75282291675,
      "d": 398.1165312499943,
      "v": 102
    },
    {
      "midi": 49,
      "hit": false,
      "t": 85483.75282291675,
      "d": 517.9795729166508,
      "v": 94
    },
    {
      "midi": 56,
      "hit": false,
      "t": 85894.71182291674,
      "d": 753.424833333338,
      "v": 64
    },
    {
      "midi": 61,
      "hit": false,
      "t": 86297.1091770834,
      "d": 299.65760416667035,
      "v": 86
    },
    {
      "midi": 49,
      "hit": false,
      "t": 86297.1091770834,
      "d": 612.1576770833344,
      "v": 43
    },
    {
      "midi": 56,
      "hit": false,
      "t": 86708.0681770834,
      "d": 488.01381249999395,
      "v": 102
    },
    {
      "midi": 61,
      "hit": false,
      "t": 86716.62982291674,
      "d": 565.0686249999853,
      "v": 98
    },
    {
      "midi": 64,
      "hit": false,
      "t": 86716.62982291674,
      "d": 590.7535624999873,
      "v": 111
    },
    {
      "midi": 49,
      "hit": false,
      "t": 87127.58882291673,
      "d": 1220.0345312499849,
      "v": 79
    },
    {
      "midi": 56,
      "hit": false,
      "t": 87529.9861770834,
      "d": 145.54797916667303,
      "v": 76
    },
    {
      "midi": 56,
      "hit": false,
      "t": 87940.9451770834,
      "d": 222.60279166666442,
      "v": 111
    },
    {
      "midi": 61,
      "hit": false,
      "t": 87940.9451770834,
      "d": 355.3083020833292,
      "v": 94
    },
    {
      "midi": 64,
      "hit": false,
      "t": 87940.9451770834,
      "d": 368.1507708333229,
      "v": 102
    },
    {
      "midi": 56,
      "hit": false,
      "t": 88351.90417708339,
      "d": 64.21234374999767,
      "v": 54
    },
    {
      "midi": 61,
      "hit": false,
      "t": 88762.86317708339,
      "d": 256.84937500000524,
      "v": 106
    },
    {
      "midi": 66,
      "hit": false,
      "t": 88762.86317708339,
      "d": 458.0480520833371,
      "v": 111
    },
    {
      "midi": 54,
      "hit": false,
      "t": 88762.86317708339,
      "d": 526.5412187500042,
      "v": 102
    },
    {
      "midi": 70,
      "hit": false,
      "t": 88762.86317708339,
      "d": 526.5412187500042,
      "v": 102
    },
    {
      "midi": 61,
      "hit": false,
      "t": 89173.82217708339,
      "d": 89.89728124999965,
      "v": 56
    },
    {
      "midi": 54,
      "hit": false,
      "t": 89593.34282291673,
      "d": 1973.4593645833374,
      "v": 98
    },
    {
      "midi": 70,
      "hit": false,
      "t": 89995.7401770834,
      "d": 273.9726666666684,
      "v": 106
    },
    {
      "midi": 66,
      "hit": false,
      "t": 89995.7401770834,
      "d": 299.65760416667035,
      "v": 111
    },
    {
      "midi": 66,
      "hit": false,
      "t": 90406.6991770834,
      "d": 428.0822916666657,
      "v": 102
    },
    {
      "midi": 71,
      "hit": false,
      "t": 90406.6991770834,
      "d": 449.48640624999825,
      "v": 102
    },
    {
      "midi": 68,
      "hit": false,
      "t": 90406.6991770834,
      "d": 458.0480520833371,
      "v": 102
    },
    {
      "midi": 61,
      "hit": false,
      "t": 91228.6171770834,
      "d": 295.37678125000093,
      "v": 94
    },
    {
      "midi": 66,
      "hit": false,
      "t": 91232.89800000007,
      "d": 308.21924999999464,
      "v": 111
    },
    {
      "midi": 70,
      "hit": false,
      "t": 91237.17882291674,
      "d": 333.9041874999966,
      "v": 111
    },
    {
      "midi": 73,
      "hit": false,
      "t": 91237.17882291674,
      "d": 333.9041874999966,
      "v": 102
    },
    {
      "midi": 62,
      "hit": false,
      "t": 92050.53517708341,
      "d": 560.7878020833305,
      "v": 79
    },
    {
      "midi": 50,
      "hit": false,
      "t": 92050.53517708341,
      "d": 1138.698895833324,
      "v": 94
    },
    {
      "midi": 66,
      "hit": false,
      "t": 92054.81600000008,
      "d": 316.7808958333335,
      "v": 115
    },
    {
      "midi": 69,
      "hit": false,
      "t": 92059.09682291675,
      "d": 1215.7537083333154,
      "v": 115
    },
    {
      "midi": 74,
      "hit": false,
      "t": 92059.09682291675,
      "d": 1275.6852291666582,
      "v": 111
    },
    {
      "midi": 66,
      "hit": false,
      "t": 92461.49417708341,
      "d": 526.5412187499896,
      "v": 41
    },
    {
      "midi": 62,
      "hit": false,
      "t": 92872.4531770834,
      "d": 702.0549583333341,
      "v": 73
    },
    {
      "midi": 66,
      "hit": false,
      "t": 93283.4121770834,
      "d": 380.99323958333116,
      "v": 73
    },
    {
      "midi": 50,
      "hit": false,
      "t": 93694.3711770834,
      "d": 1215.7537083333445,
      "v": 79
    },
    {
      "midi": 66,
      "hit": false,
      "t": 93899.8506770834,
      "d": 209.7603229166707,
      "v": 69
    },
    {
      "midi": 62,
      "hit": false,
      "t": 94105.33017708341,
      "d": 757.7056562500075,
      "v": 79
    },
    {
      "midi": 66,
      "hit": false,
      "t": 94516.28917708341,
      "d": 231.16443750000326,
      "v": 106
    },
    {
      "midi": 74,
      "hit": false,
      "t": 94516.28917708341,
      "d": 543.6645104166819,
      "v": 111
    },
    {
      "midi": 69,
      "hit": false,
      "t": 94721.76867708341,
      "d": 261.13019791667466,
      "v": 94
    },
    {
      "midi": 65,
      "hit": false,
      "t": 95338.20717708343,
      "d": 299.65760416667035,
      "v": 98
    },
    {
      "midi": 69,
      "hit": false,
      "t": 95338.20717708343,
      "d": 625.0001458333427,
      "v": 102
    },
    {
      "midi": 74,
      "hit": false,
      "t": 95338.20717708343,
      "d": 663.5275520833384,
      "v": 111
    },
    {
      "midi": 50,
      "hit": false,
      "t": 95338.20717708343,
      "d": 1960.6168958333437,
      "v": 94
    },
    {
      "midi": 65,
      "hit": false,
      "t": 95749.16617708343,
      "d": 231.16443750000326,
      "v": 61
    },
    {
      "midi": 65,
      "hit": false,
      "t": 96160.12517708344,
      "d": 214.04114583334012,
      "v": 82
    },
    {
      "midi": 69,
      "hit": false,
      "t": 96160.12517708344,
      "d": 1254.2811145833402,
      "v": 90
    },
    {
      "midi": 74,
      "hit": false,
      "t": 96160.12517708344,
      "d": 1267.123583333334,
      "v": 98
    },
    {
      "midi": 65,
      "hit": false,
      "t": 96571.08417708344,
      "d": 496.5754583333328,
      "v": 56
    },
    {
      "midi": 62,
      "hit": false,
      "t": 96982.04317708344,
      "d": 1271.4044062500034,
      "v": 79
    },
    {
      "midi": 65,
      "hit": false,
      "t": 97393.00217708344,
      "d": 166.95209374999104,
      "v": 67
    },
    {
      "midi": 69,
      "hit": false,
      "t": 97803.96117708345,
      "d": 415.239822916672,
      "v": 111
    },
    {
      "midi": 74,
      "hit": false,
      "t": 97803.96117708345,
      "d": 470.8905208333308,
      "v": 106
    },
    {
      "midi": 50,
      "hit": false,
      "t": 97803.96117708345,
      "d": 826.19882291666,
      "v": 90
    },
    {
      "midi": 65,
      "hit": false,
      "t": 97803.96117708345,
      "d": 826.19882291666,
      "v": 98
    },
    {
      "midi": 64,
      "hit": false,
      "t": 98625.87917708344,
      "d": 252.56855208333582,
      "v": 98
    },
    {
      "midi": 69,
      "hit": false,
      "t": 98625.87917708344,
      "d": 1327.0551041666768,
      "v": 111
    },
    {
      "midi": 73,
      "hit": false,
      "t": 98625.87917708344,
      "d": 1357.0208645833482,
      "v": 94
    },
    {
      "midi": 57,
      "hit": false,
      "t": 98625.87917708344,
      "d": 2076.199114583331,
      "v": 98
    },
    {
      "midi": 64,
      "hit": false,
      "t": 99036.83817708344,
      "d": 565.0686249999999,
      "v": 73
    },
    {
      "midi": 45,
      "hit": false,
      "t": 99447.79717708344,
      "d": 154.10962499999732,
      "v": 40
    },
    {
      "midi": 64,
      "hit": false,
      "t": 99858.75617708344,
      "d": 500.8562812500022,
      "v": 94
    },
    {
      "midi": 45,
      "hit": false,
      "t": 100269.71517708345,
      "d": 1686.6442291666608,
      "v": 59
    },
    {
      "midi": 64,
      "hit": false,
      "t": 100689.23582291677,
      "d": 175.51373958332988,
      "v": 86
    },
    {
      "midi": 57,
      "hit": false,
      "t": 101087.35235416677,
      "d": 834.7604687500134,
      "v": 120
    },
    {
      "midi": 73,
      "hit": false,
      "t": 101091.63317708344,
      "d": 226.88361458333384,
      "v": 115
    },
    {
      "midi": 64,
      "hit": false,
      "t": 101091.63317708344,
      "d": 321.0617187500029,
      "v": 111
    },
    {
      "midi": 71,
      "hit": false,
      "t": 101498.31135416677,
      "d": 256.84937500000524,
      "v": 94
    },
    {
      "midi": 69,
      "hit": false,
      "t": 101506.87300000011,
      "d": 162.67127083333617,
      "v": 90
    },
    {
      "midi": 64,
      "hit": false,
      "t": 101511.15382291678,
      "d": 162.67127083333617,
      "v": 69
    },
    {
      "midi": 64,
      "hit": false,
      "t": 101913.55117708344,
      "d": 261.13019791667466,
      "v": 98
    },
    {
      "midi": 52,
      "hit": false,
      "t": 101913.55117708344,
      "d": 1301.3701666666893,
      "v": 98
    },
    {
      "midi": 68,
      "hit": false,
      "t": 101922.11282291678,
      "d": 1964.8977187500132,
      "v": 106
    },
    {
      "midi": 64,
      "hit": false,
      "t": 102324.51017708346,
      "d": 500.8562812500022,
      "v": 48
    },
    {
      "midi": 59,
      "hit": false,
      "t": 102735.46917708346,
      "d": 1083.0481979166652,
      "v": 73
    },
    {
      "midi": 64,
      "hit": false,
      "t": 103146.42817708346,
      "d": 530.8220416666591,
      "v": 102
    },
    {
      "midi": 52,
      "hit": false,
      "t": 103565.94882291679,
      "d": 1220.0345312499994,
      "v": 90
    },
    {
      "midi": 64,
      "hit": false,
      "t": 103976.9078229168,
      "d": 149.8288020833279,
      "v": 94
    },
    {
      "midi": 68,
      "hit": false,
      "t": 104379.30517708346,
      "d": 398.1165312499943,
      "v": 115
    },
    {
      "midi": 59,
      "hit": false,
      "t": 104379.30517708346,
      "d": 462.3288750000065,
      "v": 94
    },
    {
      "midi": 64,
      "hit": false,
      "t": 104379.30517708346,
      "d": 719.1782500000118,
      "v": 111
    },
    {
      "midi": 69,
      "hit": false,
      "t": 104790.26417708346,
      "d": 342.46583333333547,
      "v": 94
    },
    {
      "midi": 64,
      "hit": false,
      "t": 105201.22317708346,
      "d": 351.0274791666743,
      "v": 98
    },
    {
      "midi": 52,
      "hit": false,
      "t": 105201.22317708346,
      "d": 2089.041583333339,
      "v": 94
    },
    {
      "midi": 68,
      "hit": false,
      "t": 105205.50400000013,
      "d": 659.246729166669,
      "v": 120
    },
    {
      "midi": 71,
      "hit": false,
      "t": 105205.50400000013,
      "d": 706.3357812500035,
      "v": 111
    },
    {
      "midi": 64,
      "hit": false,
      "t": 105616.46300000013,
      "d": 509.4179270833265,
      "v": 56
    },
    {
      "midi": 59,
      "hit": false,
      "t": 106023.14117708347,
      "d": 616.4384999999893,
      "v": 67
    },
    {
      "midi": 64,
      "hit": false,
      "t": 106434.10017708346,
      "d": 659.246729166669,
      "v": 86
    },
    {
      "midi": 68,
      "hit": false,
      "t": 106434.10017708346,
      "d": 1344.17839583334,
      "v": 82
    },
    {
      "midi": 71,
      "hit": false,
      "t": 106434.10017708346,
      "d": 1365.5825104166724,
      "v": 90
    },
    {
      "midi": 76,
      "hit": false,
      "t": 106434.10017708346,
      "d": 1408.3907395833376,
      "v": 86
    },
    {
      "midi": 59,
      "hit": false,
      "t": 106853.6208229168,
      "d": 1100.1714895833284,
      "v": 56
    },
    {
      "midi": 64,
      "hit": false,
      "t": 107260.29900000013,
      "d": 496.5754583333328,
      "v": 79
    },
    {
      "midi": 52,
      "hit": false,
      "t": 107666.97717708346,
      "d": 355.3083020833292,
      "v": 86
    },
    {
      "midi": 64,
      "hit": false,
      "t": 108497.45682291679,
      "d": 265.41102083332953,
      "v": 106
    },
    {
      "midi": 69,
      "hit": false,
      "t": 108497.45682291679,
      "d": 402.3973541666637,
      "v": 106
    },
    {
      "midi": 57,
      "hit": false,
      "t": 108497.45682291679,
      "d": 428.0822916666657,
      "v": 102
    },
    {
      "midi": 73,
      "hit": false,
      "t": 108497.45682291679,
      "d": 479.45216666666965,
      "v": 94
    },
    {
      "midi": 45,
      "hit": false,
      "t": 108497.45682291679,
      "d": 2504.281406250011,
      "v": 94
    },
    {
      "midi": 64,
      "hit": false,
      "t": 108908.4158229168,
      "d": 89.89728124999965,
      "v": 38
    },
    {
      "midi": 57,
      "hit": false,
      "t": 109319.3748229168,
      "d": 303.9384270833398,
      "v": 82
    },
    {
      "midi": 57,
      "hit": false,
      "t": 109721.77217708348,
      "d": 218.321968749995,
      "v": 69
    },
    {
      "midi": 57,
      "hit": false,
      "t": 110132.73117708346,
      "d": 188.35620833333815,
      "v": 90
    },
    {
      "midi": 64,
      "hit": false,
      "t": 110137.01200000013,
      "d": 346.7466562500049,
      "v": 94
    },
    {
      "midi": 61,
      "hit": false,
      "t": 110141.2928229168,
      "d": 316.7808958333335,
      "v": 82
    },
    {
      "midi": 57,
      "hit": false,
      "t": 110552.2518229168,
      "d": 85.61645833333023,
      "v": 25
    },
    {
      "midi": 57,
      "hit": false,
      "t": 110954.64917708347,
      "d": 248.2877291666664,
      "v": 111
    },
    {
      "midi": 61,
      "hit": false,
      "t": 110954.64917708347,
      "d": 389.55488541667,
      "v": 106
    },
    {
      "midi": 64,
      "hit": false,
      "t": 110963.21082291681,
      "d": 398.1165312499943,
      "v": 94
    },
    {
      "midi": 57,
      "hit": false,
      "t": 111374.1698229168,
      "d": 171.23291666666046,
      "v": 94
    },
    {
      "midi": 56,
      "hit": false,
      "t": 111785.12882291678,
      "d": 261.1301979166601,
      "v": 115
    },
    {
      "midi": 61,
      "hit": false,
      "t": 111785.12882291678,
      "d": 398.1165312499943,
      "v": 98
    },
    {
      "midi": 64,
      "hit": false,
      "t": 111785.12882291678,
      "d": 398.1165312499943,
      "v": 102
    },
    {
      "midi": 49,
      "hit": false,
      "t": 111785.12882291678,
      "d": 517.9795729166508,
      "v": 94
    },
    {
      "midi": 56,
      "hit": false,
      "t": 112196.08782291677,
      "d": 753.424833333338,
      "v": 64
    },
    {
      "midi": 61,
      "hit": false,
      "t": 112598.48517708344,
      "d": 299.65760416667035,
      "v": 86
    },
    {
      "midi": 49,
      "hit": false,
      "t": 112598.48517708344,
      "d": 612.1576770833344,
      "v": 43
    },
    {
      "midi": 56,
      "hit": false,
      "t": 113009.44417708344,
      "d": 488.01381249999395,
      "v": 102
    },
    {
      "midi": 61,
      "hit": false,
      "t": 113018.00582291678,
      "d": 565.0686249999853,
      "v": 98
    },
    {
      "midi": 64,
      "hit": false,
      "t": 113018.00582291678,
      "d": 590.7535624999873,
      "v": 111
    },
    {
      "midi": 49,
      "hit": false,
      "t": 113428.96482291677,
      "d": 1220.0345312499849,
      "v": 79
    },
    {
      "midi": 56,
      "hit": false,
      "t": 113831.36217708343,
      "d": 145.54797916667303,
      "v": 76
    },
    {
      "midi": 56,
      "hit": false,
      "t": 114242.32117708343,
      "d": 222.60279166666442,
      "v": 111
    },
    {
      "midi": 61,
      "hit": false,
      "t": 114242.32117708343,
      "d": 355.3083020833292,
      "v": 94
    },
    {
      "midi": 64,
      "hit": false,
      "t": 114242.32117708343,
      "d": 368.1507708333229,
      "v": 102
    },
    {
      "midi": 56,
      "hit": false,
      "t": 114653.28017708342,
      "d": 64.21234374999767,
      "v": 54
    },
    {
      "midi": 61,
      "hit": false,
      "t": 115064.23917708342,
      "d": 256.84937500000524,
      "v": 106
    },
    {
      "midi": 66,
      "hit": false,
      "t": 115064.23917708342,
      "d": 458.0480520833371,
      "v": 111
    },
    {
      "midi": 54,
      "hit": false,
      "t": 115064.23917708342,
      "d": 526.5412187500042,
      "v": 102
    },
    {
      "midi": 70,
      "hit": false,
      "t": 115064.23917708342,
      "d": 526.5412187500042,
      "v": 102
    },
    {
      "midi": 61,
      "hit": false,
      "t": 115475.19817708342,
      "d": 89.89728124999965,
      "v": 56
    },
    {
      "midi": 54,
      "hit": false,
      "t": 115894.71882291677,
      "d": 1973.4593645833374,
      "v": 98
    },
    {
      "midi": 70,
      "hit": false,
      "t": 116297.11617708343,
      "d": 273.9726666666684,
      "v": 106
    },
    {
      "midi": 66,
      "hit": false,
      "t": 116297.11617708343,
      "d": 299.65760416667035,
      "v": 111
    },
    {
      "midi": 66,
      "hit": false,
      "t": 116708.07517708343,
      "d": 428.0822916666657,
      "v": 102
    },
    {
      "midi": 71,
      "hit": false,
      "t": 116708.07517708343,
      "d": 449.48640624999825,
      "v": 102
    },
    {
      "midi": 68,
      "hit": false,
      "t": 116708.07517708343,
      "d": 458.0480520833371,
      "v": 102
    },
    {
      "midi": 61,
      "hit": false,
      "t": 117529.99317708344,
      "d": 295.37678125000093,
      "v": 94
    },
    {
      "midi": 66,
      "hit": false,
      "t": 117534.2740000001,
      "d": 308.21924999999464,
      "v": 111
    },
    {
      "midi": 70,
      "hit": false,
      "t": 117538.55482291678,
      "d": 333.9041874999966,
      "v": 111
    },
    {
      "midi": 73,
      "hit": false,
      "t": 117538.55482291678,
      "d": 333.9041874999966,
      "v": 102
    },
    {
      "midi": 62,
      "hit": false,
      "t": 118351.91117708344,
      "d": 560.7878020833305,
      "v": 79
    },
    {
      "midi": 50,
      "hit": false,
      "t": 118351.91117708344,
      "d": 1138.698895833324,
      "v": 94
    },
    {
      "midi": 66,
      "hit": false,
      "t": 118356.19200000011,
      "d": 316.7808958333335,
      "v": 115
    },
    {
      "midi": 69,
      "hit": false,
      "t": 118360.47282291678,
      "d": 1215.7537083333154,
      "v": 115
    },
    {
      "midi": 74,
      "hit": false,
      "t": 118360.47282291678,
      "d": 1275.6852291666582,
      "v": 111
    },
    {
      "midi": 66,
      "hit": false,
      "t": 118762.87017708345,
      "d": 526.5412187499896,
      "v": 41
    },
    {
      "midi": 62,
      "hit": false,
      "t": 119173.82917708343,
      "d": 702.0549583333341,
      "v": 73
    },
    {
      "midi": 66,
      "hit": false,
      "t": 119584.78817708344,
      "d": 380.99323958333116,
      "v": 73
    },
    {
      "midi": 50,
      "hit": false,
      "t": 119995.74717708344,
      "d": 1215.7537083333445,
      "v": 79
    },
    {
      "midi": 66,
      "hit": false,
      "t": 120201.22667708344,
      "d": 209.7603229166707,
      "v": 69
    },
    {
      "midi": 62,
      "hit": false,
      "t": 120406.70617708344,
      "d": 757.7056562500075,
      "v": 79
    },
    {
      "midi": 66,
      "hit": false,
      "t": 120817.66517708344,
      "d": 231.16443750000326,
      "v": 106
    },
    {
      "midi": 74,
      "hit": false,
      "t": 120817.66517708344,
      "d": 543.6645104166819,
      "v": 111
    },
    {
      "midi": 69,
      "hit": false,
      "t": 121023.14467708344,
      "d": 261.13019791667466,
      "v": 94
    },
    {
      "midi": 65,
      "hit": false,
      "t": 121639.58317708346,
      "d": 299.65760416667035,
      "v": 98
    },
    {
      "midi": 69,
      "hit": false,
      "t": 121639.58317708346,
      "d": 625.0001458333427,
      "v": 102
    },
    {
      "midi": 74,
      "hit": false,
      "t": 121639.58317708346,
      "d": 663.5275520833384,
      "v": 111
    },
    {
      "midi": 50,
      "hit": false,
      "t": 121639.58317708346,
      "d": 1960.6168958333437,
      "v": 94
    },
    {
      "midi": 65,
      "hit": false,
      "t": 122050.54217708347,
      "d": 231.16443750000326,
      "v": 61
    },
    {
      "midi": 65,
      "hit": false,
      "t": 122461.50117708347,
      "d": 214.04114583334012,
      "v": 82
    },
    {
      "midi": 69,
      "hit": false,
      "t": 122461.50117708347,
      "d": 1254.2811145833402,
      "v": 90
    },
    {
      "midi": 74,
      "hit": false,
      "t": 122461.50117708347,
      "d": 1267.123583333334,
      "v": 98
    },
    {
      "midi": 65,
      "hit": false,
      "t": 122872.46017708347,
      "d": 496.5754583333328,
      "v": 56
    },
    {
      "midi": 62,
      "hit": false,
      "t": 123283.41917708347,
      "d": 1271.4044062500034,
      "v": 79
    },
    {
      "midi": 65,
      "hit": false,
      "t": 123694.37817708348,
      "d": 166.95209374999104,
      "v": 67
    },
    {
      "midi": 69,
      "hit": false,
      "t": 124105.33717708348,
      "d": 415.239822916672,
      "v": 111
    },
    {
      "midi": 74,
      "hit": false,
      "t": 124105.33717708348,
      "d": 470.8905208333308,
      "v": 106
    },
    {
      "midi": 50,
      "hit": false,
      "t": 124105.33717708348,
      "d": 826.19882291666,
      "v": 90
    },
    {
      "midi": 65,
      "hit": false,
      "t": 124105.33717708348,
      "d": 826.19882291666,
      "v": 98
    },
    {
      "midi": 64,
      "hit": false,
      "t": 124927.25517708347,
      "d": 252.56855208333582,
      "v": 98
    },
    {
      "midi": 69,
      "hit": false,
      "t": 124927.25517708347,
      "d": 1327.0551041666768,
      "v": 111
    },
    {
      "midi": 73,
      "hit": false,
      "t": 124927.25517708347,
      "d": 1357.0208645833482,
      "v": 94
    },
    {
      "midi": 57,
      "hit": false,
      "t": 124927.25517708347,
      "d": 2076.199114583331,
      "v": 98
    },
    {
      "midi": 64,
      "hit": false,
      "t": 125338.21417708347,
      "d": 565.0686249999999,
      "v": 73
    },
    {
      "midi": 45,
      "hit": false,
      "t": 125749.17317708347,
      "d": 154.10962499999732,
      "v": 40
    },
    {
      "midi": 64,
      "hit": false,
      "t": 126160.13217708348,
      "d": 500.8562812500022,
      "v": 94
    },
    {
      "midi": 45,
      "hit": false,
      "t": 126571.09117708348,
      "d": 1686.6442291666608,
      "v": 59
    },
    {
      "midi": 64,
      "hit": false,
      "t": 126990.6118229168,
      "d": 175.51373958332988,
      "v": 86
    },
    {
      "midi": 57,
      "hit": false,
      "t": 127388.7283541668,
      "d": 834.7604687500134,
      "v": 120
    },
    {
      "midi": 73,
      "hit": false,
      "t": 127393.00917708347,
      "d": 226.88361458333384,
      "v": 115
    },
    {
      "midi": 64,
      "hit": false,
      "t": 127393.00917708347,
      "d": 321.0617187500029,
      "v": 111
    },
    {
      "midi": 71,
      "hit": false,
      "t": 127799.6873541668,
      "d": 256.84937500000524,
      "v": 94
    },
    {
      "midi": 69,
      "hit": false,
      "t": 127808.24900000014,
      "d": 162.67127083333617,
      "v": 90
    },
    {
      "midi": 64,
      "hit": false,
      "t": 127812.52982291681,
      "d": 162.67127083333617,
      "v": 69
    },
    {
      "midi": 64,
      "hit": false,
      "t": 128214.92717708347,
      "d": 261.13019791667466,
      "v": 98
    },
    {
      "midi": 52,
      "hit": false,
      "t": 128214.92717708347,
      "d": 1301.3701666666893,
      "v": 98
    },
    {
      "midi": 68,
      "hit": false,
      "t": 128223.48882291681,
      "d": 1964.8977187500132,
      "v": 106
    },
    {
      "midi": 64,
      "hit": false,
      "t": 128625.88617708349,
      "d": 500.8562812500022,
      "v": 48
    },
    {
      "midi": 59,
      "hit": false,
      "t": 129036.8451770835,
      "d": 1083.0481979166652,
      "v": 73
    },
    {
      "midi": 64,
      "hit": false,
      "t": 129447.8041770835,
      "d": 530.8220416666591,
      "v": 102
    },
    {
      "midi": 52,
      "hit": false,
      "t": 129867.32482291682,
      "d": 1220.034531250014,
      "v": 90
    },
    {
      "midi": 64,
      "hit": false,
      "t": 130278.28382291683,
      "d": 149.8288020833279,
      "v": 94
    },
    {
      "midi": 68,
      "hit": false,
      "t": 130680.68117708349,
      "d": 398.11653125000885,
      "v": 115
    },
    {
      "midi": 59,
      "hit": false,
      "t": 130680.68117708349,
      "d": 462.3288750000065,
      "v": 94
    },
    {
      "midi": 64,
      "hit": false,
      "t": 130680.68117708349,
      "d": 719.1782499999972,
      "v": 111
    },
    {
      "midi": 69,
      "hit": false,
      "t": 131091.6401770835,
      "d": 342.4658333333209,
      "v": 94
    },
    {
      "midi": 64,
      "hit": false,
      "t": 131502.59917708347,
      "d": 351.02747916663066,
      "v": 98
    },
    {
      "midi": 45,
      "hit": false,
      "t": 131502.59917708347,
      "d": 2089.04158333331,
      "v": 94
    },
    {
      "midi": 69,
      "hit": false,
      "t": 131506.88000000012,
      "d": 659.2467291666544,
      "v": 120
    },
    {
      "midi": 73,
      "hit": false,
      "t": 131506.88000000012,
      "d": 706.3357812499744,
      "v": 111
    },
    {
      "midi": 61,
      "hit": false,
      "t": 132324.51717708344,
      "d": 616.4384999999893,
      "v": 67
    },
    {
      "midi": 76,
      "hit": false,
      "t": 132735.47617708344,
      "d": 1408.390739583323,
      "v": 86
    },
    {
      "midi": 64,
      "hit": false,
      "t": 133150.7160000001,
      "d": 509.4179270833265,
      "v": 56
    },
    {
      "midi": 64,
      "hit": false,
      "t": 134798.83282291677,
      "d": 265.41102083332953,
      "v": 106
    },
    {
      "midi": 69,
      "hit": false,
      "t": 134798.83282291677,
      "d": 402.3973541666637,
      "v": 106
    },
    {
      "midi": 57,
      "hit": false,
      "t": 134798.83282291677,
      "d": 428.08229166668025,
      "v": 102
    },
    {
      "midi": 73,
      "hit": false,
      "t": 134798.83282291677,
      "d": 479.4521666666842,
      "v": 94
    },
    {
      "midi": 45,
      "hit": false,
      "t": 134798.83282291677,
      "d": 2504.2814062499674,
      "v": 94
    },
    {
      "midi": 64,
      "hit": false,
      "t": 135209.79182291677,
      "d": 89.8972812500142,
      "v": 38
    },
    {
      "midi": 57,
      "hit": false,
      "t": 135620.75082291677,
      "d": 303.9384270833398,
      "v": 82
    },
    {
      "midi": 57,
      "hit": false,
      "t": 136023.14817708344,
      "d": 218.32196875000955,
      "v": 69
    },
    {
      "midi": 57,
      "hit": false,
      "t": 136434.10717708344,
      "d": 188.35620833330904,
      "v": 90
    },
    {
      "midi": 64,
      "hit": false,
      "t": 136438.3880000001,
      "d": 346.7466562499758,
      "v": 94
    },
    {
      "midi": 61,
      "hit": false,
      "t": 136442.66882291675,
      "d": 316.7808958333335,
      "v": 82
    },
    {
      "midi": 57,
      "hit": false,
      "t": 136853.62782291672,
      "d": 85.61645833333023,
      "v": 25
    },
    {
      "midi": 57,
      "hit": false,
      "t": 137256.0251770834,
      "d": 248.28772916668095,
      "v": 111
    },
    {
      "midi": 61,
      "hit": false,
      "t": 137256.0251770834,
      "d": 389.55488541667,
      "v": 106
    },
    {
      "midi": 64,
      "hit": false,
      "t": 137264.58682291672,
      "d": 398.11653125000885,
      "v": 94
    },
    {
      "midi": 57,
      "hit": false,
      "t": 137675.54582291673,
      "d": 171.23291666666046,
      "v": 94
    },
    {
      "midi": 56,
      "hit": false,
      "t": 138086.50482291673,
      "d": 261.13019791667466,
      "v": 115
    },
    {
      "midi": 61,
      "hit": false,
      "t": 138086.50482291673,
      "d": 398.11653125000885,
      "v": 98
    },
    {
      "midi": 64,
      "hit": false,
      "t": 138086.50482291673,
      "d": 398.11653125000885,
      "v": 102
    },
    {
      "midi": 49,
      "hit": false,
      "t": 138086.50482291673,
      "d": 517.9795729166653,
      "v": 94
    },
    {
      "midi": 56,
      "hit": false,
      "t": 138497.46382291673,
      "d": 753.4248333333235,
      "v": 64
    },
    {
      "midi": 61,
      "hit": false,
      "t": 138899.8611770834,
      "d": 299.6576041666558,
      "v": 86
    },
    {
      "midi": 49,
      "hit": false,
      "t": 138899.8611770834,
      "d": 612.1576770833344,
      "v": 43
    },
    {
      "midi": 56,
      "hit": false,
      "t": 139310.8201770834,
      "d": 488.01381249999395,
      "v": 102
    },
    {
      "midi": 61,
      "hit": false,
      "t": 139319.38182291674,
      "d": 565.0686249999853,
      "v": 98
    },
    {
      "midi": 64,
      "hit": false,
      "t": 139319.38182291674,
      "d": 590.7535624999728,
      "v": 111
    },
    {
      "midi": 49,
      "hit": false,
      "t": 139730.34082291674,
      "d": 1220.0345312499849,
      "v": 79
    },
    {
      "midi": 56,
      "hit": false,
      "t": 140132.73817708337,
      "d": 145.54797916667303,
      "v": 76
    },
    {
      "midi": 56,
      "hit": false,
      "t": 140543.69717708338,
      "d": 222.60279166666442,
      "v": 111
    },
    {
      "midi": 61,
      "hit": false,
      "t": 140543.69717708338,
      "d": 355.30830208334373,
      "v": 94
    },
    {
      "midi": 64,
      "hit": false,
      "t": 140543.69717708338,
      "d": 368.15077083333745,
      "v": 102
    },
    {
      "midi": 56,
      "hit": false,
      "t": 140954.65617708338,
      "d": 64.21234374999767,
      "v": 54
    },
    {
      "midi": 61,
      "hit": false,
      "t": 141365.61517708338,
      "d": 256.8493749999907,
      "v": 106
    },
    {
      "midi": 66,
      "hit": false,
      "t": 141365.61517708338,
      "d": 458.04805208332255,
      "v": 111
    },
    {
      "midi": 54,
      "hit": false,
      "t": 141365.61517708338,
      "d": 526.5412187499751,
      "v": 102
    },
    {
      "midi": 70,
      "hit": false,
      "t": 141365.61517708338,
      "d": 526.5412187499751,
      "v": 102
    },
    {
      "midi": 61,
      "hit": false,
      "t": 141776.57417708338,
      "d": 89.8972812499851,
      "v": 56
    },
    {
      "midi": 54,
      "hit": false,
      "t": 142196.0948229167,
      "d": 1973.4593645832792,
      "v": 98
    },
    {
      "midi": 70,
      "hit": false,
      "t": 142598.49217708336,
      "d": 273.9726666666684,
      "v": 106
    },
    {
      "midi": 66,
      "hit": false,
      "t": 142598.49217708336,
      "d": 299.6576041666558,
      "v": 111
    },
    {
      "midi": 66,
      "hit": false,
      "t": 143009.45117708333,
      "d": 428.08229166668025,
      "v": 102
    },
    {
      "midi": 71,
      "hit": false,
      "t": 143009.45117708333,
      "d": 449.4864062500128,
      "v": 102
    },
    {
      "midi": 68,
      "hit": false,
      "t": 143009.45117708333,
      "d": 458.04805208335165,
      "v": 102
    },
    {
      "midi": 61,
      "hit": false,
      "t": 143831.36917708334,
      "d": 295.3767812499718,
      "v": 94
    },
    {
      "midi": 66,
      "hit": false,
      "t": 143835.65,
      "d": 308.21924999999464,
      "v": 111
    },
    {
      "midi": 70,
      "hit": false,
      "t": 143839.93082291665,
      "d": 333.9041874999821,
      "v": 111
    },
    {
      "midi": 73,
      "hit": false,
      "t": 143839.93082291665,
      "d": 333.9041874999821,
      "v": 102
    },
    {
      "midi": 62,
      "hit": false,
      "t": 144653.2871770833,
      "d": 560.7878020833014,
      "v": 79
    },
    {
      "midi": 50,
      "hit": false,
      "t": 144653.2871770833,
      "d": 1138.6988958333095,
      "v": 94
    },
    {
      "midi": 66,
      "hit": false,
      "t": 144657.56799999994,
      "d": 316.7808958333044,
      "v": 115
    },
    {
      "midi": 69,
      "hit": false,
      "t": 144661.8488229166,
      "d": 1215.75370833333,
      "v": 115
    },
    {
      "midi": 74,
      "hit": false,
      "t": 144661.8488229166,
      "d": 1275.6852291666728,
      "v": 111
    },
    {
      "midi": 66,
      "hit": false,
      "t": 145064.24617708326,
      "d": 526.5412187500042,
      "v": 41
    },
    {
      "midi": 62,
      "hit": false,
      "t": 145475.20517708326,
      "d": 702.0549583333486,
      "v": 73
    },
    {
      "midi": 66,
      "hit": false,
      "t": 145886.16417708326,
      "d": 380.99323958336026,
      "v": 73
    },
    {
      "midi": 50,
      "hit": false,
      "t": 146297.1231770833,
      "d": 1215.7537083332718,
      "v": 79
    },
    {
      "midi": 66,
      "hit": false,
      "t": 146502.60267708328,
      "d": 209.7603229166416,
      "v": 69
    },
    {
      "midi": 62,
      "hit": false,
      "t": 146708.08217708327,
      "d": 757.7056562499783,
      "v": 79
    },
    {
      "midi": 66,
      "hit": false,
      "t": 147119.04117708327,
      "d": 231.16443749997416,
      "v": 106
    },
    {
      "midi": 74,
      "hit": false,
      "t": 147119.04117708327,
      "d": 543.6645104166237,
      "v": 111
    },
    {
      "midi": 69,
      "hit": false,
      "t": 147324.52067708326,
      "d": 261.13019791664556,
      "v": 94
    },
    {
      "midi": 65,
      "hit": false,
      "t": 147940.95917708322,
      "d": 299.6576041666849,
      "v": 98
    },
    {
      "midi": 69,
      "hit": false,
      "t": 147940.95917708322,
      "d": 625.0001458333572,
      "v": 102
    },
    {
      "midi": 74,
      "hit": false,
      "t": 147940.95917708322,
      "d": 663.5275520833675,
      "v": 111
    },
    {
      "midi": 50,
      "hit": false,
      "t": 147940.95917708322,
      "d": 1960.6168958333728,
      "v": 94
    },
    {
      "midi": 65,
      "hit": false,
      "t": 148351.91817708325,
      "d": 231.16443750000326,
      "v": 61
    },
    {
      "midi": 65,
      "hit": false,
      "t": 148762.87717708325,
      "d": 214.04114583332557,
      "v": 82
    },
    {
      "midi": 69,
      "hit": false,
      "t": 148762.87717708325,
      "d": 1254.2811145833402,
      "v": 90
    },
    {
      "midi": 74,
      "hit": false,
      "t": 148762.87717708325,
      "d": 1267.123583333334,
      "v": 98
    },
    {
      "midi": 65,
      "hit": false,
      "t": 149173.83617708326,
      "d": 496.5754583333328,
      "v": 56
    },
    {
      "midi": 62,
      "hit": false,
      "t": 149584.79517708326,
      "d": 1271.4044062499888,
      "v": 79
    },
    {
      "midi": 65,
      "hit": false,
      "t": 149995.75417708326,
      "d": 166.9520937500056,
      "v": 67
    },
    {
      "midi": 69,
      "hit": false,
      "t": 150406.71317708326,
      "d": 415.23982291665743,
      "v": 111
    },
    {
      "midi": 74,
      "hit": false,
      "t": 150406.71317708326,
      "d": 470.89052083331626,
      "v": 106
    },
    {
      "midi": 50,
      "hit": false,
      "t": 150406.71317708326,
      "d": 826.1988229166309,
      "v": 90
    },
    {
      "midi": 65,
      "hit": false,
      "t": 150406.71317708326,
      "d": 826.1988229166309,
      "v": 98
    },
    {
      "midi": 64,
      "hit": false,
      "t": 151228.63117708324,
      "d": 252.56855208333582,
      "v": 98
    },
    {
      "midi": 69,
      "hit": false,
      "t": 151228.63117708324,
      "d": 1327.0551041666768,
      "v": 111
    },
    {
      "midi": 73,
      "hit": false,
      "t": 151228.63117708324,
      "d": 1357.0208645833482,
      "v": 94
    },
    {
      "midi": 57,
      "hit": false,
      "t": 151228.63117708324,
      "d": 2076.1991145833454,
      "v": 98
    },
    {
      "midi": 64,
      "hit": false,
      "t": 151639.59017708324,
      "d": 565.0686250000144,
      "v": 73
    },
    {
      "midi": 45,
      "hit": false,
      "t": 152050.54917708325,
      "d": 154.10962500001187,
      "v": 40
    },
    {
      "midi": 64,
      "hit": false,
      "t": 152461.50817708325,
      "d": 500.85628125001676,
      "v": 94
    },
    {
      "midi": 45,
      "hit": false,
      "t": 152872.46717708325,
      "d": 1686.6442291666172,
      "v": 59
    },
    {
      "midi": 64,
      "hit": false,
      "t": 153291.9878229166,
      "d": 175.51373958331533,
      "v": 86
    },
    {
      "midi": 57,
      "hit": false,
      "t": 153690.10435416657,
      "d": 834.7604687499697,
      "v": 120
    },
    {
      "midi": 73,
      "hit": false,
      "t": 153694.38517708323,
      "d": 226.8836145833193,
      "v": 115
    },
    {
      "midi": 64,
      "hit": false,
      "t": 153694.38517708323,
      "d": 321.06171874998836,
      "v": 111
    },
    {
      "midi": 71,
      "hit": false,
      "t": 154101.06335416654,
      "d": 256.8493749999907,
      "v": 94
    },
    {
      "midi": 69,
      "hit": false,
      "t": 154109.62499999988,
      "d": 162.6712708333216,
      "v": 90
    },
    {
      "midi": 64,
      "hit": false,
      "t": 154113.90582291654,
      "d": 162.6712708333216,
      "v": 69
    },
    {
      "midi": 64,
      "hit": false,
      "t": 154516.3031770832,
      "d": 261.13019791667466,
      "v": 98
    },
    {
      "midi": 52,
      "hit": false,
      "t": 154516.3031770832,
      "d": 1301.3701666666602,
      "v": 98
    },
    {
      "midi": 68,
      "hit": false,
      "t": 154524.86482291654,
      "d": 1964.8977187499695,
      "v": 106
    },
    {
      "midi": 64,
      "hit": false,
      "t": 154927.2621770832,
      "d": 500.85628125001676,
      "v": 48
    },
    {
      "midi": 59,
      "hit": false,
      "t": 155338.2211770832,
      "d": 1083.0481979166507,
      "v": 73
    },
    {
      "midi": 64,
      "hit": false,
      "t": 155749.1801770832,
      "d": 530.8220416666591,
      "v": 102
    },
    {
      "midi": 52,
      "hit": false,
      "t": 156168.70082291652,
      "d": 1220.034531250014,
      "v": 90
    },
    {
      "midi": 64,
      "hit": false,
      "t": 156579.65982291652,
      "d": 149.8288020833279,
      "v": 94
    },
    {
      "midi": 68,
      "hit": false,
      "t": 156982.0571770832,
      "d": 398.11653125000885,
      "v": 115
    },
    {
      "midi": 59,
      "hit": false,
      "t": 156982.0571770832,
      "d": 462.3288750000065,
      "v": 94
    },
    {
      "midi": 64,
      "hit": false,
      "t": 156982.0571770832,
      "d": 719.1782499999972,
      "v": 111
    },
    {
      "midi": 69,
      "hit": false,
      "t": 157393.0161770832,
      "d": 342.4658333333209,
      "v": 94
    },
    {
      "midi": 64,
      "hit": false,
      "t": 157803.97517708316,
      "d": 2675.514322916628,
      "v": 98
    },
    {
      "midi": 40,
      "hit": false,
      "t": 157803.97517708316,
      "d": 3030.8226249999425,
      "v": 94
    },
    {
      "midi": 68,
      "hit": false,
      "t": 157808.25599999982,
      "d": 2465.7539999999863,
      "v": 78
    },
    {
      "midi": 71,
      "hit": false,
      "t": 157808.25599999982,
      "d": 2465.7539999999863,
      "v": 120
    },
    {
      "midi": 59,
      "hit": false,
      "t": 157808.25599999982,
      "d": 2876.7129999999597,
      "v": 111
    },
    {
      "midi": 64,
      "hit": false,
      "t": 161095.92799999978,
      "d": 1164.383833333326,
      "v": 93
    },
    {
      "midi": 61,
      "hit": false,
      "t": 161095.92799999978,
      "d": 1185.7879479166586,
      "v": 81
    },
    {
      "midi": 69,
      "hit": false,
      "t": 161095.92799999978,
      "d": 1194.3495937499974,
      "v": 89
    },
    {
      "midi": 57,
      "hit": false,
      "t": 161095.92799999978,
      "d": 1211.4728854166751,
      "v": 89
    },
    {
      "midi": 45,
      "hit": false,
      "t": 161095.92799999978,
      "d": 2542.8088125000068,
      "v": 77
    },
    {
      "midi": 64,
      "hit": false,
      "t": 166849.3539999998,
      "d": 333.9041875000112,
      "v": 98
    },
    {
      "midi": 56,
      "hit": false,
      "t": 166849.3539999998,
      "d": 727.739895833336,
      "v": 91
    },
    {
      "midi": 61,
      "hit": false,
      "t": 166849.3539999998,
      "d": 753.4248333333235,
      "v": 91
    },
    {
      "midi": 58,
      "hit": false,
      "t": 167649.86788541643,
      "d": 346.7466562499758,
      "v": 89
    },
    {
      "midi": 54,
      "hit": false,
      "t": 167649.86788541643,
      "d": 406.6781770833186,
      "v": 71
    },
    {
      "midi": 42,
      "hit": false,
      "t": 167654.1487083331,
      "d": 2662.6718541666633,
      "v": 102
    },
    {
      "midi": 58,
      "hit": false,
      "t": 168904.14899999977,
      "d": 398.11653124997974,
      "v": 103
    },
    {
      "midi": 66,
      "hit": false,
      "t": 168904.14899999977,
      "d": 1172.9454791666358,
      "v": 88
    },
    {
      "midi": 54,
      "hit": false,
      "t": 168908.42982291643,
      "d": 368.15077083333745,
      "v": 112
    },
    {
      "midi": 59,
      "hit": false,
      "t": 169323.66964583308,
      "d": 710.6166041666584,
      "v": 111
    },
    {
      "midi": 54,
      "hit": false,
      "t": 169327.95046874974,
      "d": 1382.7058020833356,
      "v": 111
    },
    {
      "midi": 66,
      "hit": false,
      "t": 170137.02599999975,
      "d": 616.4384999999893,
      "v": 78
    },
    {
      "midi": 58,
      "hit": false,
      "t": 170154.14929166643,
      "d": 513.6987499999814,
      "v": 110
    },
    {
      "midi": 61,
      "hit": false,
      "t": 170154.14929166643,
      "d": 535.1028645833139,
      "v": 110
    },
    {
      "midi": 66,
      "hit": false,
      "t": 170924.6974166664,
      "d": 1134.4180729166546,
      "v": 65
    },
    {
      "midi": 62,
      "hit": false,
      "t": 170924.6974166664,
      "d": 1155.8221874999872,
      "v": 81
    },
    {
      "midi": 57,
      "hit": false,
      "t": 170928.97823958306,
      "d": 1160.1030104166712,
      "v": 79
    },
    {
      "midi": 50,
      "hit": false,
      "t": 170950.3823541664,
      "d": 2756.8499583333323,
      "v": 100
    },
    {
      "midi": 65,
      "hit": false,
      "t": 174242.33517708306,
      "d": 440.92476041664486,
      "v": 91
    },
    {
      "midi": 57,
      "hit": false,
      "t": 174246.61599999972,
      "d": 316.7808958333335,
      "v": 91
    },
    {
      "midi": 62,
      "hit": false,
      "t": 174250.89682291637,
      "d": 295.37678125000093,
      "v": 87
    },
    {
      "midi": 74,
      "hit": false,
      "t": 175475.21217708304,
      "d": 1494.0071979166241,
      "v": 78
    },
    {
      "midi": 69,
      "hit": false,
      "t": 175890.4519999997,
      "d": 1190.0687708333135,
      "v": 105
    },
    {
      "midi": 65,
      "hit": false,
      "t": 175894.73282291635,
      "d": 1023.1166770833079,
      "v": 105
    },
    {
      "midi": 62,
      "hit": false,
      "t": 175899.013645833,
      "d": 1018.835854166653,
      "v": 85
    },
    {
      "midi": 45,
      "hit": false,
      "t": 177508.6030624997,
      "d": 3180.651427083387,
      "v": 35
    },
    {
      "midi": 57,
      "hit": false,
      "t": 177512.88388541635,
      "d": 1078.767375000025,
      "v": 64
    },
    {
      "midi": 61,
      "hit": false,
      "t": 177517.164708333,
      "d": 1057.3632604166924,
      "v": 86
    },
    {
      "midi": 69,
      "hit": false,
      "t": 177534.28799999968,
      "d": 1057.3632604166924,
      "v": 86
    },
    {
      "midi": 64,
      "hit": false,
      "t": 177534.28799999968,
      "d": 1232.8770000000368,
      "v": 76
    },
    {
      "midi": 56,
      "hit": false,
      "t": 180787.7134166664,
      "d": 1720.8908125000307,
      "v": 85
    },
    {
      "midi": 40,
      "hit": false,
      "t": 180787.7134166664,
      "d": 2063.3566458333516,
      "v": 101
    },
    {
      "midi": 59,
      "hit": false,
      "t": 180796.27506249974,
      "d": 1755.137395833357,
      "v": 85
    },
    {
      "midi": 64,
      "hit": false,
      "t": 180834.80246874975,
      "d": 1339.8975729166705,
      "v": 85
    },
    {
      "midi": 40,
      "hit": false,
      "t": 184058.26212499975,
      "d": 3086.4733229166304,
      "v": 101
    },
    {
      "midi": 68,
      "hit": false,
      "t": 184058.26212499975,
      "d": 3129.2815520832955,
      "v": 97
    },
    {
      "midi": 76,
      "hit": false,
      "t": 184058.26212499975,
      "d": 3159.247312499938,
      "v": 101
    },
    {
      "midi": 64,
      "hit": false,
      "t": 184062.5429479164,
      "d": 3120.719906249986,
      "v": 100
    },
    {
      "midi": 71,
      "hit": false,
      "t": 184062.5429479164,
      "d": 3129.2815520832955,
      "v": 100
    },
    {
      "midi": 64,
      "hit": false,
      "t": 187397.30399999968,
      "d": 1164.383833333326,
      "v": 93
    },
    {
      "midi": 61,
      "hit": false,
      "t": 187397.30399999968,
      "d": 1185.7879479166586,
      "v": 81
    },
    {
      "midi": 69,
      "hit": false,
      "t": 187397.30399999968,
      "d": 1194.3495937499974,
      "v": 89
    },
    {
      "midi": 57,
      "hit": false,
      "t": 187397.30399999968,
      "d": 1211.4728854166751,
      "v": 89
    },
    {
      "midi": 45,
      "hit": false,
      "t": 187397.30399999968,
      "d": 2542.8088125000068,
      "v": 77
    },
    {
      "midi": 59,
      "hit": false,
      "t": 189863.0579999997,
      "d": 423.8014687499963,
      "v": 110
    },
    {
      "midi": 64,
      "hit": false,
      "t": 189863.0579999997,
      "d": 458.04805208332255,
      "v": 110
    },
    {
      "midi": 49,
      "hit": false,
      "t": 190676.41435416637,
      "d": 184.07538541665417,
      "v": 51
    },
    {
      "midi": 73,
      "hit": false,
      "t": 190676.41435416637,
      "d": 355.30830208331463,
      "v": 49
    },
    {
      "midi": 68,
      "hit": false,
      "t": 190710.6609374997,
      "d": 239.726083333313,
      "v": 64
    },
    {
      "midi": 68,
      "hit": false,
      "t": 191917.85299999968,
      "d": 727.739895833336,
      "v": 91
    },
    {
      "midi": 73,
      "hit": false,
      "t": 191917.85299999968,
      "d": 753.4248333333235,
      "v": 91
    },
    {
      "midi": 76,
      "hit": false,
      "t": 192739.77099999966,
      "d": 333.9041875000112,
      "v": 98
    },
    {
      "midi": 85,
      "hit": false,
      "t": 193364.77114583302,
      "d": 175.51373958334443,
      "v": 110
    },
    {
      "midi": 58,
      "hit": false,
      "t": 193951.24388541636,
      "d": 346.7466562499758,
      "v": 89
    },
    {
      "midi": 54,
      "hit": false,
      "t": 193951.24388541636,
      "d": 406.6781770833186,
      "v": 71
    },
    {
      "midi": 42,
      "hit": false,
      "t": 193955.52470833302,
      "d": 2662.671854166634,
      "v": 41
    },
    {
      "midi": 58,
      "hit": false,
      "t": 195205.5249999997,
      "d": 398.11653124997974,
      "v": 103
    },
    {
      "midi": 54,
      "hit": false,
      "t": 195209.80582291636,
      "d": 368.15077083333745,
      "v": 112
    },
    {
      "midi": 59,
      "hit": false,
      "t": 195625.04564583302,
      "d": 710.6166041666584,
      "v": 111
    },
    {
      "midi": 54,
      "hit": false,
      "t": 195629.32646874967,
      "d": 1382.7058020833065,
      "v": 111
    },
    {
      "midi": 58,
      "hit": false,
      "t": 196455.52529166633,
      "d": 513.6987499999814,
      "v": 110
    },
    {
      "midi": 61,
      "hit": false,
      "t": 196455.52529166633,
      "d": 535.1028645833139,
      "v": 110
    },
    {
      "midi": 66,
      "hit": false,
      "t": 197226.0734166663,
      "d": 1134.4180729166546,
      "v": 64
    },
    {
      "midi": 62,
      "hit": false,
      "t": 197226.0734166663,
      "d": 1155.8221874999872,
      "v": 81
    },
    {
      "midi": 57,
      "hit": false,
      "t": 197230.35423958296,
      "d": 1160.1030104166712,
      "v": 48
    },
    {
      "midi": 50,
      "hit": false,
      "t": 197251.7583541663,
      "d": 2756.8499583333323,
      "v": 27
    },
    {
      "midi": 64,
      "hit": false,
      "t": 199302.27253124962,
      "d": 256.8493749999907,
      "v": 106
    },
    {
      "midi": 57,
      "hit": false,
      "t": 199302.27253124962,
      "d": 736.3015416666749,
      "v": 93
    },
    {
      "midi": 66,
      "hit": false,
      "t": 199422.13557291628,
      "d": 513.6987500000105,
      "v": 93
    },
    {
      "midi": 65,
      "hit": false,
      "t": 200543.71117708297,
      "d": 440.92476041664486,
      "v": 68
    },
    {
      "midi": 57,
      "hit": false,
      "t": 200547.99199999962,
      "d": 316.7808958333335,
      "v": 59
    },
    {
      "midi": 62,
      "hit": false,
      "t": 200552.27282291627,
      "d": 295.37678125000093,
      "v": 64
    },
    {
      "midi": 74,
      "hit": false,
      "t": 201776.58817708294,
      "d": 1494.0071979166532,
      "v": 109
    },
    {
      "midi": 69,
      "hit": false,
      "t": 203013.7459999996,
      "d": 702.0549583333195,
      "v": 105
    },
    {
      "midi": 65,
      "hit": false,
      "t": 203223.50632291628,
      "d": 483.73298958331,
      "v": 105
    },
    {
      "midi": 62,
      "hit": false,
      "t": 203433.26664583292,
      "d": 303.9384270833398,
      "v": 98
    },
    {
      "midi": 45,
      "hit": false,
      "t": 203809.9790624996,
      "d": 3180.6514270832995,
      "v": 35
    },
    {
      "midi": 57,
      "hit": false,
      "t": 203814.25988541625,
      "d": 1078.7673749999958,
      "v": 64
    },
    {
      "midi": 61,
      "hit": false,
      "t": 203818.5407083329,
      "d": 1057.3632604166633,
      "v": 86
    },
    {
      "midi": 69,
      "hit": false,
      "t": 204041.14349999957,
      "d": 1232.8770000000077,
      "v": 76
    },
    {
      "midi": 62,
      "hit": false,
      "t": 205886.1781770829,
      "d": 415.23982291665743,
      "v": 107
    },
    {
      "midi": 66,
      "hit": false,
      "t": 205886.1781770829,
      "d": 466.6096979166614,
      "v": 107
    },
    {
      "midi": 57,
      "hit": false,
      "t": 205886.1781770829,
      "d": 826.19882291666,
      "v": 107
    },
    {
      "midi": 64,
      "hit": false,
      "t": 206301.41799999957,
      "d": 500.85628124998766,
      "v": 93
    },
    {
      "midi": 61,
      "hit": false,
      "t": 206309.9796458329,
      "d": 470.89052083331626,
      "v": 100
    },
    {
      "midi": 69,
      "hit": false,
      "t": 206712.37699999957,
      "d": 205.47949999998673,
      "v": 91
    },
    {
      "midi": 59,
      "hit": false,
      "t": 207106.2127083329,
      "d": 2534.247166666668,
      "v": 67
    },
    {
      "midi": 64,
      "hit": false,
      "t": 207106.2127083329,
      "d": 2559.9321041666553,
      "v": 67
    },
    {
      "midi": 56,
      "hit": false,
      "t": 207106.2127083329,
      "d": 2607.0211562499753,
      "v": 67
    },
    {
      "midi": 56,
      "hit": false,
      "t": 209974.36406249955,
      "d": 252.5685520833067,
      "v": 106
    },
    {
      "midi": 59,
      "hit": false,
      "t": 209974.36406249955,
      "d": 286.815135416633,
      "v": 110
    },
    {
      "midi": 64,
      "hit": false,
      "t": 209978.6448854162,
      "d": 256.8493749999907,
      "v": 95
    },
    {
      "midi": 57,
      "hit": false,
      "t": 210402.44635416617,
      "d": 1780.8223333332862,
      "v": 93
    },
    {
      "midi": 64,
      "hit": false,
      "t": 210402.44635416617,
      "d": 1840.753854166629,
      "v": 106
    },
    {
      "midi": 61,
      "hit": false,
      "t": 210406.72717708282,
      "d": 1772.2606874999765,
      "v": 101
    },
    {
      "midi": 45,
      "hit": false,
      "t": 210411.00799999948,
      "d": 2093.322406249994,
      "v": 77
    },
    {
      "midi": 61,
      "hit": false,
      "t": 212440.11806249947,
      "d": 774.828947916656,
      "v": 74
    },
    {
      "midi": 57,
      "hit": false,
      "t": 212440.11806249947,
      "d": 791.9522395833337,
      "v": 71
    },
    {
      "midi": 64,
      "hit": false,
      "t": 212444.39888541613,
      "d": 779.10977083334,
      "v": 89
    },
    {
      "midi": 45,
      "hit": false,
      "t": 212833.9537708328,
      "d": 154.10962500001187,
      "v": 77
    },
    {
      "midi": 69,
      "hit": false,
      "t": 213035.15244791613,
      "d": 248.28772916668095,
      "v": 77
    },
    {
      "midi": 64,
      "hit": false,
      "t": 213698.67999999947,
      "d": 1164.383833333326,
      "v": 93
    },
    {
      "midi": 61,
      "hit": false,
      "t": 213698.67999999947,
      "d": 1185.7879479166586,
      "v": 81
    },
    {
      "midi": 69,
      "hit": false,
      "t": 213698.67999999947,
      "d": 1194.3495937499974,
      "v": 89
    },
    {
      "midi": 57,
      "hit": false,
      "t": 213698.67999999947,
      "d": 1211.4728854166751,
      "v": 89
    },
    {
      "midi": 45,
      "hit": false,
      "t": 213698.67999999947,
      "d": 2542.8088125000068,
      "v": 77
    },
    {
      "midi": 57,
      "hit": false,
      "t": 216575.3929999995,
      "d": 458.04805208335165,
      "v": 110
    },
    {
      "midi": 52,
      "hit": false,
      "t": 216575.3929999995,
      "d": 1438.3565000000235,
      "v": 110
    },
    {
      "midi": 56,
      "hit": false,
      "t": 216990.63282291617,
      "d": 1228.5961770833237,
      "v": 90
    },
    {
      "midi": 64,
      "hit": false,
      "t": 218219.2289999995,
      "d": 333.9041875000112,
      "v": 98
    },
    {
      "midi": 56,
      "hit": false,
      "t": 218219.2289999995,
      "d": 727.739895833336,
      "v": 91
    },
    {
      "midi": 61,
      "hit": false,
      "t": 218219.2289999995,
      "d": 753.4248333333235,
      "v": 91
    },
    {
      "midi": 64,
      "hit": false,
      "t": 219452.10599999948,
      "d": 333.9041875000112,
      "v": 98
    },
    {
      "midi": 56,
      "hit": false,
      "t": 219452.10599999948,
      "d": 727.739895833336,
      "v": 91
    },
    {
      "midi": 61,
      "hit": false,
      "t": 219452.10599999948,
      "d": 753.4248333333235,
      "v": 91
    },
    {
      "midi": 58,
      "hit": false,
      "t": 220252.61988541612,
      "d": 346.7466562499758,
      "v": 89
    },
    {
      "midi": 54,
      "hit": false,
      "t": 220252.61988541612,
      "d": 406.6781770833186,
      "v": 71
    },
    {
      "midi": 42,
      "hit": false,
      "t": 220256.90070833277,
      "d": 2662.6718541666633,
      "v": 102
    },
    {
      "midi": 58,
      "hit": false,
      "t": 221506.90099999946,
      "d": 398.11653124997974,
      "v": 103
    },
    {
      "midi": 66,
      "hit": false,
      "t": 221506.90099999946,
      "d": 1172.9454791666358,
      "v": 88
    },
    {
      "midi": 54,
      "hit": false,
      "t": 221511.1818229161,
      "d": 368.15077083333745,
      "v": 112
    },
    {
      "midi": 59,
      "hit": false,
      "t": 221926.42164583277,
      "d": 710.6166041666584,
      "v": 111
    },
    {
      "midi": 54,
      "hit": false,
      "t": 221930.70246874943,
      "d": 1382.7058020833356,
      "v": 111
    },
    {
      "midi": 66,
      "hit": false,
      "t": 222739.77799999944,
      "d": 616.4384999999893,
      "v": 78
    },
    {
      "midi": 58,
      "hit": false,
      "t": 222756.90129166612,
      "d": 513.6987499999814,
      "v": 110
    },
    {
      "midi": 61,
      "hit": false,
      "t": 222756.90129166612,
      "d": 535.1028645833139,
      "v": 110
    },
    {
      "midi": 66,
      "hit": false,
      "t": 223527.4494166661,
      "d": 1134.4180729166546,
      "v": 64
    },
    {
      "midi": 62,
      "hit": false,
      "t": 223527.4494166661,
      "d": 1155.8221874999872,
      "v": 81
    },
    {
      "midi": 57,
      "hit": false,
      "t": 223531.73023958274,
      "d": 1160.1030104166712,
      "v": 48
    },
    {
      "midi": 50,
      "hit": false,
      "t": 223553.13435416608,
      "d": 2756.8499583333323,
      "v": 100
    },
    {
      "midi": 64,
      "hit": false,
      "t": 225603.6485312494,
      "d": 256.8493750000198,
      "v": 106
    },
    {
      "midi": 57,
      "hit": false,
      "t": 225603.6485312494,
      "d": 736.3015416666749,
      "v": 93
    },
    {
      "midi": 66,
      "hit": false,
      "t": 225779.16227083275,
      "d": 286.8151354166621,
      "v": 93
    },
    {
      "midi": 64,
      "hit": false,
      "t": 226232.92949999942,
      "d": 291.09595833331696,
      "v": 93
    },
    {
      "midi": 62,
      "hit": false,
      "t": 226438.4089999994,
      "d": 205.47949999998673,
      "v": 91
    },
    {
      "midi": 65,
      "hit": false,
      "t": 226845.08717708272,
      "d": 440.92476041664486,
      "v": 91
    },
    {
      "midi": 57,
      "hit": false,
      "t": 226849.36799999938,
      "d": 316.7808958333335,
      "v": 91
    },
    {
      "midi": 62,
      "hit": false,
      "t": 226853.64882291603,
      "d": 295.37678125000093,
      "v": 98
    },
    {
      "midi": 74,
      "hit": false,
      "t": 228077.9641770827,
      "d": 1494.007197916595,
      "v": 109
    },
    {
      "midi": 69,
      "hit": false,
      "t": 228082.24499999936,
      "d": 410.95899999997346,
      "v": 86
    },
    {
      "midi": 65,
      "hit": false,
      "t": 228086.525822916,
      "d": 483.73298958331,
      "v": 86
    },
    {
      "midi": 62,
      "hit": false,
      "t": 228090.80664583266,
      "d": 303.9384270833398,
      "v": 88
    },
    {
      "midi": 69,
      "hit": false,
      "t": 228904.16299999933,
      "d": 1190.0687708332844,
      "v": 105
    },
    {
      "midi": 65,
      "hit": false,
      "t": 228908.443822916,
      "d": 1023.1166770833079,
      "v": 105
    },
    {
      "midi": 62,
      "hit": false,
      "t": 228912.72464583264,
      "d": 1018.835854166653,
      "v": 98
    },
    {
      "midi": 45,
      "hit": false,
      "t": 230111.3550624993,
      "d": 3180.651427083387,
      "v": 35
    },
    {
      "midi": 57,
      "hit": false,
      "t": 230115.63588541595,
      "d": 1078.767375000025,
      "v": 64
    },
    {
      "midi": 61,
      "hit": false,
      "t": 230119.9167083326,
      "d": 1057.3632604166924,
      "v": 86
    },
    {
      "midi": 69,
      "hit": false,
      "t": 230137.03999999928,
      "d": 1057.3632604166924,
      "v": 86
    },
    {
      "midi": 64,
      "hit": false,
      "t": 230137.03999999928,
      "d": 1232.8770000000368,
      "v": 76
    },
    {
      "midi": 33,
      "hit": false,
      "t": 232170.430885416,
      "d": 1164.3838333333551,
      "v": 93
    },
    {
      "midi": 59,
      "hit": false,
      "t": 232589.95153124933,
      "d": 214.04114583332557,
      "v": 110
    },
    {
      "midi": 64,
      "hit": false,
      "t": 232589.95153124933,
      "d": 595.0343854166858,
      "v": 106
    },
    {
      "midi": 61,
      "hit": false,
      "t": 232782.58856249932,
      "d": 214.04114583335468,
      "v": 81
    },
    {
      "midi": 57,
      "hit": false,
      "t": 232979.506416666,
      "d": 171.23291666668956,
      "v": 89
    },
    {
      "midi": 56,
      "hit": false,
      "t": 233390.465416666,
      "d": 1720.8908124999725,
      "v": 85
    },
    {
      "midi": 40,
      "hit": false,
      "t": 233390.465416666,
      "d": 2063.3566458332934,
      "v": 101
    },
    {
      "midi": 59,
      "hit": false,
      "t": 233399.02706249934,
      "d": 1755.1373958332988,
      "v": 93
    },
    {
      "midi": 64,
      "hit": false,
      "t": 233835.67099999933,
      "d": 1339.8975729166414,
      "v": 106
    },
    {
      "midi": 40,
      "hit": false,
      "t": 235843.37694791594,
      "d": 2307.3635520833195,
      "v": 89
    },
    {
      "midi": 56,
      "hit": false,
      "t": 235851.93859374928,
      "d": 860.4454062499863,
      "v": 85
    },
    {
      "midi": 59,
      "hit": false,
      "t": 235860.50023958262,
      "d": 620.7193229166733,
      "v": 97
    },
    {
      "midi": 57,
      "hit": false,
      "t": 236284.3017083326,
      "d": 372.4315937499923,
      "v": 97
    },
    {
      "midi": 61,
      "hit": false,
      "t": 236292.86335416595,
      "d": 222.60279166666442,
      "v": 93
    },
    {
      "midi": 64,
      "hit": false,
      "t": 236690.97988541593,
      "d": 1254.2811145833402,
      "v": 73
    },
    {
      "midi": 59,
      "hit": false,
      "t": 236695.2607083326,
      "d": 1660.9592916666588,
      "v": 93
    },
    {
      "midi": 64,
      "hit": false,
      "t": 240004.3368229159,
      "d": 265.41102083332953,
      "v": 106
    },
    {
      "midi": 69,
      "hit": false,
      "t": 240004.3368229159,
      "d": 402.3973541666637,
      "v": 106
    },
    {
      "midi": 57,
      "hit": false,
      "t": 240004.3368229159,
      "d": 428.08229166668025,
      "v": 102
    },
    {
      "midi": 73,
      "hit": false,
      "t": 240004.3368229159,
      "d": 479.4521666666842,
      "v": 94
    },
    {
      "midi": 45,
      "hit": false,
      "t": 240004.3368229159,
      "d": 2504.2814062499674,
      "v": 94
    },
    {
      "midi": 64,
      "hit": false,
      "t": 240415.2958229159,
      "d": 89.8972812500142,
      "v": 38
    },
    {
      "midi": 57,
      "hit": false,
      "t": 240826.25482291591,
      "d": 303.9384270833398,
      "v": 82
    },
    {
      "midi": 57,
      "hit": false,
      "t": 241228.65217708258,
      "d": 218.32196875000955,
      "v": 69
    },
    {
      "midi": 57,
      "hit": false,
      "t": 241639.61117708258,
      "d": 188.35620833330904,
      "v": 90
    },
    {
      "midi": 64,
      "hit": false,
      "t": 241643.89199999924,
      "d": 346.7466562499758,
      "v": 94
    },
    {
      "midi": 61,
      "hit": false,
      "t": 241648.1728229159,
      "d": 316.7808958333335,
      "v": 82
    },
    {
      "midi": 57,
      "hit": false,
      "t": 242059.13182291586,
      "d": 85.61645833333023,
      "v": 25
    },
    {
      "midi": 57,
      "hit": false,
      "t": 242461.52917708253,
      "d": 248.28772916668095,
      "v": 111
    },
    {
      "midi": 61,
      "hit": false,
      "t": 242461.52917708253,
      "d": 389.55488541667,
      "v": 106
    },
    {
      "midi": 64,
      "hit": false,
      "t": 242470.09082291587,
      "d": 398.11653125000885,
      "v": 94
    },
    {
      "midi": 57,
      "hit": false,
      "t": 242881.04982291587,
      "d": 171.23291666666046,
      "v": 94
    },
    {
      "midi": 64,
      "hit": false,
      "t": 243292.00882291587,
      "d": 265.41102083332953,
      "v": 106
    },
    {
      "midi": 69,
      "hit": false,
      "t": 243292.00882291587,
      "d": 402.3973541666637,
      "v": 106
    },
    {
      "midi": 57,
      "hit": false,
      "t": 243292.00882291587,
      "d": 428.08229166668025,
      "v": 102
    },
    {
      "midi": 73,
      "hit": false,
      "t": 243292.00882291587,
      "d": 479.4521666666842,
      "v": 94
    },
    {
      "midi": 45,
      "hit": false,
      "t": 243292.00882291587,
      "d": 2504.2814062499674,
      "v": 94
    },
    {
      "midi": 64,
      "hit": false,
      "t": 243702.96782291587,
      "d": 89.8972812500142,
      "v": 38
    },
    {
      "midi": 57,
      "hit": false,
      "t": 244113.92682291588,
      "d": 303.9384270833398,
      "v": 82
    },
    {
      "midi": 57,
      "hit": false,
      "t": 244516.32417708254,
      "d": 218.32196875000955,
      "v": 69
    },
    {
      "midi": 57,
      "hit": false,
      "t": 244927.28317708254,
      "d": 188.35620833330904,
      "v": 90
    },
    {
      "midi": 64,
      "hit": false,
      "t": 244931.5639999992,
      "d": 346.7466562499758,
      "v": 94
    },
    {
      "midi": 61,
      "hit": false,
      "t": 244935.84482291585,
      "d": 316.7808958333335,
      "v": 82
    },
    {
      "midi": 57,
      "hit": false,
      "t": 245346.80382291583,
      "d": 85.61645833333023,
      "v": 25
    },
    {
      "midi": 57,
      "hit": false,
      "t": 245749.2011770825,
      "d": 248.28772916668095,
      "v": 111
    },
    {
      "midi": 61,
      "hit": false,
      "t": 245749.2011770825,
      "d": 389.55488541667,
      "v": 106
    },
    {
      "midi": 64,
      "hit": false,
      "t": 245757.76282291583,
      "d": 398.11653125000885,
      "v": 94
    },
    {
      "midi": 57,
      "hit": false,
      "t": 246168.72182291583,
      "d": 171.23291666666046,
      "v": 94
    },
    {
      "midi": 64,
      "hit": false,
      "t": 246579.68082291583,
      "d": 265.41102083332953,
      "v": 106
    },
    {
      "midi": 69,
      "hit": false,
      "t": 246579.68082291583,
      "d": 402.3973541666637,
      "v": 106
    },
    {
      "midi": 57,
      "hit": false,
      "t": 246579.68082291583,
      "d": 428.08229166665114,
      "v": 102
    },
    {
      "midi": 73,
      "hit": false,
      "t": 246579.68082291583,
      "d": 479.4521666666551,
      "v": 94
    },
    {
      "midi": 45,
      "hit": false,
      "t": 246579.68082291583,
      "d": 2504.2814062499965,
      "v": 94
    }
  ]
}