{
  "jsonPath": "Unknown/Unknown/Larry Kusik/speak-softly-love.json",
  "path": "Unknown\\Unknown\\Larry Kusik\\Speak Softly Love.mid",
  "name": "Speak Softly Love",
  "difficulty": "Advanced",
  "bpm": 100,
  "notes": [
    {
      "midi": 78,
      "hit": false,
      "t": 1500,
      "d": 300,
      "v": 100
    },
    {
      "midi": 83,
      "hit": false,
      "t": 1800,
      "d": 300,
      "v": 100
    },
    {
      "midi": 86,
      "hit": false,
      "t": 2100,
      "d": 300,
      "v": 100
    },
    {
      "midi": 85,
      "hit": false,
      "t": 2400,
      "d": 300,
      "v": 100
    },
    {
      "midi": 47,
      "hit": false,
      "t": 2400,
      "d": 300,
      "v": 100
    },
    {
      "midi": 83,
      "hit": false,
      "t": 2700,
      "d": 300,
      "v": 100
    },
    {
      "midi": 54,
      "hit": false,
      "t": 2700,
      "d": 300,
      "v": 100
    },
    {
      "midi": 86,
      "hit": false,
      "t": 3000,
      "d": 300,
      "v": 100
    },
    {
      "midi": 59,
      "hit": false,
      "t": 3000,
      "d": 300,
      "v": 100
    },
    {
      "midi": 83,
      "hit": false,
      "t": 3300,
      "d": 300,
      "v": 100
    },
    {
      "midi": 54,
      "hit": false,
      "t": 3300,
      "d": 300,
      "v": 100
    },
    {
      "midi": 85,
      "hit": false,
      "t": 3600,
      "d": 300,
      "v": 100
    },
    {
      "midi": 52,
      "hit": false,
      "t": 3600,
      "d": 300,
      "v": 100
    },
    {
      "midi": 83,
      "hit": false,
      "t": 3900,
      "d": 300,
      "v": 100
    },
    {
      "midi": 59,
      "hit": false,
      "t": 3900,
      "d": 300,
      "v": 100
    },
    {
      "midi": 79,
      "hit": false,
      "t": 4200,
      "d": 300,
      "v": 100
    },
    {
      "midi": 64,
      "hit": false,
      "t": 4200,
      "d": 300,
      "v": 100
    },
    {
      "midi": 81,
      "hit": false,
      "t": 4500,
      "d": 300,
      "v": 100
    },
    {
      "midi": 59,
      "hit": false,
      "t": 4500,
      "d": 300,
      "v": 100
    },
    {
      "midi": 78,
      "hit": false,
      "t": 4800,
      "d": 1200,
      "v": 100
    },
    {
      "midi": 47,
      "hit": false,
      "t": 4800,
      "d": 300,
      "v": 100
    },
    {
      "midi": 54,
      "hit": false,
      "t": 5100,
      "d": 300,
      "v": 100
    },
    {
      "midi": 59,
      "hit": false,
      "t": 5400,
      "d": 300,
      "v": 100
    },
    {
      "midi": 54,
      "hit": false,
      "t": 5700,
      "d": 300,
      "v": 100
    },
    {
      "midi": 62,
      "hit": false,
      "t": 6000,
      "d": 300,
      "v": 100
    },
    {
      "midi": 78,
      "hit": false,
      "t": 6300,
      "d": 300,
      "v": 100
    },
    {
      "midi": 54,
      "hit": false,
      "t": 6300,
      "d": 300,
      "v": 100
    },
    {
      "midi": 83,
      "hit": false,
      "t": 6600,
      "d": 300,
      "v": 100
    },
    {
      "midi": 59,
      "hit": false,
      "t": 6600,
      "d": 300,
      "v": 100
    },
    {
      "midi": 86,
      "hit": false,
      "t": 6900,
      "d": 300,
      "v": 100
    },
    {
      "midi": 54,
      "hit": false,
      "t": 6900,
      "d": 300,
      "v": 100
    },
    {
      "midi": 85,
      "hit": false,
      "t": 7200,
      "d": 300,
      "v": 100
    },
    {
      "midi": 47,
      "hit": false,
      "t": 7200,
      "d": 300,
      "v": 100
    },
    {
      "midi": 83,
      "hit": false,
      "t": 7500,
      "d": 300,
      "v": 100
    },
    {
      "midi": 54,
      "hit": false,
      "t": 7500,
      "d": 300,
      "v": 100
    },
    {
      "midi": 86,
      "hit": false,
      "t": 7800,
      "d": 300,
      "v": 100
    },
    {
      "midi": 59,
      "hit": false,
      "t": 7800,
      "d": 300,
      "v": 100
    },
    {
      "midi": 83,
      "hit": false,
      "t": 8100,
      "d": 300,
      "v": 100
    },
    {
      "midi": 54,
      "hit": false,
      "t": 8100,
      "d": 300,
      "v": 100
    },
    {
      "midi": 85,
      "hit": false,
      "t": 8400,
      "d": 300,
      "v": 100
    },
    {
      "midi": 62,
      "hit": false,
      "t": 8400,
      "d": 300,
      "v": 100
    },
    {
      "midi": 83,
      "hit": false,
      "t": 8700,
      "d": 300,
      "v": 100
    },
    {
      "midi": 54,
      "hit": false,
      "t": 8700,
      "d": 300,
      "v": 100
    },
    {
      "midi": 78,
      "hit": false,
      "t": 9000,
      "d": 300,
      "v": 100
    },
    {
      "midi": 59,
      "hit": false,
      "t": 9000,
      "d": 300,
      "v": 100
    },
    {
      "midi": 77,
      "hit": false,
      "t": 9300,
      "d": 300,
      "v": 100
    },
    {
      "midi": 54,
      "hit": false,
      "t": 9300,
      "d": 300,
      "v": 100
    },
    {
      "midi": 76,
      "hit": false,
      "t": 9600,
      "d": 1200,
      "v": 100
    },
    {
      "midi": 52,
      "hit": false,
      "t": 9600,
      "d": 300,
      "v": 100
    },
    {
      "midi": 59,
      "hit": false,
      "t": 9900,
      "d": 300,
      "v": 100
    },
    {
      "midi": 64,
      "hit": false,
      "t": 10200,
      "d": 300,
      "v": 100
    },
    {
      "midi": 59,
      "hit": false,
      "t": 10500,
      "d": 300,
      "v": 100
    },
    {
      "midi": 67,
      "hit": false,
      "t": 10800,
      "d": 300,
      "v": 100
    },
    {
      "midi": 76,
      "hit": false,
      "t": 11100,
      "d": 300,
      "v": 100
    },
    {
      "midi": 59,
      "hit": false,
      "t": 11100,
      "d": 300,
      "v": 100
    },
    {
      "midi": 79,
      "hit": false,
      "t": 11400,
      "d": 300,
      "v": 100
    },
    {
      "midi": 64,
      "hit": false,
      "t": 11400,
      "d": 300,
      "v": 100
    },
    {
      "midi": 82,
      "hit": false,
      "t": 11700,
      "d": 300,
      "v": 100
    },
    {
      "midi": 59,
      "hit": false,
      "t": 11700,
      "d": 300,
      "v": 100
    },
    {
      "midi": 85,
      "hit": false,
      "t": 12000,
      "d": 1200,
      "v": 100
    },
    {
      "midi": 52,
      "hit": false,
      "t": 12000,
      "d": 300,
      "v": 100
    },
    {
      "midi": 59,
      "hit": false,
      "t": 12300,
      "d": 300,
      "v": 100
    },
    {
      "midi": 64,
      "hit": false,
      "t": 12600,
      "d": 300,
      "v": 100
    },
    {
      "midi": 59,
      "hit": false,
      "t": 12900,
      "d": 300,
      "v": 100
    },
    {
      "midi": 67,
      "hit": false,
      "t": 13200,
      "d": 300,
      "v": 100
    },
    {
      "midi": 76,
      "hit": false,
      "t": 13500,
      "d": 300,
      "v": 100
    },
    {
      "midi": 59,
      "hit": false,
      "t": 13500,
      "d": 300,
      "v": 100
    },
    {
      "midi": 79,
      "hit": false,
      "t": 13800,
      "d": 300,
      "v": 100
    },
    {
      "midi": 64,
      "hit": false,
      "t": 13800,
      "d": 300,
      "v": 100
    },
    {
      "midi": 82,
      "hit": false,
      "t": 14100,
      "d": 300,
      "v": 100
    },
    {
      "midi": 59,
      "hit": false,
      "t": 14100,
      "d": 300,
      "v": 100
    },
    {
      "midi": 83,
      "hit": false,
      "t": 14400,
      "d": 1200,
      "v": 100
    },
    {
      "midi": 47,
      "hit": false,
      "t": 14400,
      "d": 300,
      "v": 100
    },
    {
      "midi": 54,
      "hit": false,
      "t": 14700,
      "d": 300,
      "v": 100
    },
    {
      "midi": 59,
      "hit": false,
      "t": 15000,
      "d": 300,
      "v": 100
    },
    {
      "midi": 54,
      "hit": false,
      "t": 15300,
      "d": 300,
      "v": 100
    },
    {
      "midi": 62,
      "hit": false,
      "t": 15600,
      "d": 300,
      "v": 100
    },
    {
      "midi": 71,
      "hit": false,
      "t": 15900,
      "d": 300,
      "v": 100
    },
    {
      "midi": 54,
      "hit": false,
      "t": 15900,
      "d": 300,
      "v": 100
    },
    {
      "midi": 74,
      "hit": false,
      "t": 16200,
      "d": 300,
      "v": 100
    },
    {
      "midi": 59,
      "hit": false,
      "t": 16200,
      "d": 300,
      "v": 100
    },
    {
      "midi": 81,
      "hit": false,
      "t": 16500,
      "d": 300,
      "v": 100
    },
    {
      "midi": 54,
      "hit": false,
      "t": 16500,
      "d": 300,
      "v": 100
    },
    {
      "midi": 79,
      "hit": false,
      "t": 16800,
      "d": 300,
      "v": 100
    },
    {
      "midi": 52,
      "hit": false,
      "t": 16800,
      "d": 300,
      "v": 100
    },
    {
      "midi": 78,
      "hit": false,
      "t": 17100,
      "d": 300,
      "v": 100
    },
    {
      "midi": 59,
      "hit": false,
      "t": 17100,
      "d": 300,
      "v": 100
    },
    {
      "midi": 81,
      "hit": false,
      "t": 17400,
      "d": 300,
      "v": 100
    },
    {
      "midi": 64,
      "hit": false,
      "t": 17400,
      "d": 300,
      "v": 100
    },
    {
      "midi": 79,
      "hit": false,
      "t": 17700,
      "d": 300,
      "v": 100
    },
    {
      "midi": 59,
      "hit": false,
      "t": 17700,
      "d": 300,
      "v": 100
    },
    {
      "midi": 79,
      "hit": false,
      "t": 18000,
      "d": 300,
      "v": 100
    },
    {
      "midi": 42,
      "hit": false,
      "t": 18000,
      "d": 300,
      "v": 100
    },
    {
      "midi": 78,
      "hit": false,
      "t": 18300,
      "d": 300,
      "v": 100
    },
    {
      "midi": 49,
      "hit": false,
      "t": 18300,
      "d": 300,
      "v": 100
    },
    {
      "midi": 78,
      "hit": false,
      "t": 18600,
      "d": 300,
      "v": 100
    },
    {
      "midi": 54,
      "hit": false,
      "t": 18600,
      "d": 300,
      "v": 100
    },
    {
      "midi": 70,
      "hit": false,
      "t": 18900,
      "d": 300,
      "v": 100
    },
    {
      "midi": 49,
      "hit": false,
      "t": 18900,
      "d": 300,
      "v": 100
    },
    {
      "midi": 71,
      "hit": false,
      "t": 19200,
      "d": 1200,
      "v": 100
    },
    {
      "midi": 47,
      "hit": false,
      "t": 19200,
      "d": 300,
      "v": 100
    },
    {
      "midi": 54,
      "hit": false,
      "t": 19500,
      "d": 300,
      "v": 100
    },
    {
      "midi": 59,
      "hit": false,
      "t": 19800,
      "d": 300,
      "v": 100
    },
    {
      "midi": 54,
      "hit": false,
      "t": 20100,
      "d": 300,
      "v": 100
    },
    {
      "midi": 62,
      "hit": false,
      "t": 20400,
      "d": 300,
      "v": 100
    },
    {
      "midi": 83,
      "hit": false,
      "t": 20700,
      "d": 300,
      "v": 100
    },
    {
      "midi": 54,
      "hit": false,
      "t": 20700,
      "d": 300,
      "v": 100
    },
    {
      "midi": 83,
      "hit": false,
      "t": 21000,
      "d": 300,
      "v": 100
    },
    {
      "midi": 59,
      "hit": false,
      "t": 21000,
      "d": 300,
      "v": 100
    },
    {
      "midi": 82,
      "hit": false,
      "t": 21300,
      "d": 300,
      "v": 100
    },
    {
      "midi": 54,
      "hit": false,
      "t": 21300,
      "d": 300,
      "v": 100
    },
    {
      "midi": 81,
      "hit": false,
      "t": 21600,
      "d": 1200,
      "v": 100
    },
    {
      "midi": 45,
      "hit": false,
      "t": 21600,
      "d": 300,
      "v": 100
    },
    {
      "midi": 52,
      "hit": false,
      "t": 21900,
      "d": 300,
      "v": 100
    },
    {
      "midi": 57,
      "hit": false,
      "t": 22200,
      "d": 300,
      "v": 100
    },
    {
      "midi": 52,
      "hit": false,
      "t": 22500,
      "d": 300,
      "v": 100
    },
    {
      "midi": 85,
      "hit": false,
      "t": 22800,
      "d": 600,
      "v": 100
    },
    {
      "midi": 61,
      "hit": false,
      "t": 22800,
      "d": 300,
      "v": 100
    },
    {
      "midi": 52,
      "hit": false,
      "t": 23100,
      "d": 300,
      "v": 100
    },
    {
      "midi": 83,
      "hit": false,
      "t": 23400,
      "d": 300,
      "v": 100
    },
    {
      "midi": 57,
      "hit": false,
      "t": 23400,
      "d": 300,
      "v": 100
    },
    {
      "midi": 79,
      "hit": false,
      "t": 23700,
      "d": 300,
      "v": 100
    },
    {
      "midi": 52,
      "hit": false,
      "t": 23700,
      "d": 300,
      "v": 100
    },
    {
      "midi": 78,
      "hit": false,
      "t": 24000,
      "d": 1200,
      "v": 100
    },
    {
      "midi": 50,
      "hit": false,
      "t": 24000,
      "d": 300,
      "v": 100
    },
    {
      "midi": 57,
      "hit": false,
      "t": 24300,
      "d": 300,
      "v": 100
    },
    {
      "midi": 62,
      "hit": false,
      "t": 24600,
      "d": 300,
      "v": 100
    },
    {
      "midi": 57,
      "hit": false,
      "t": 24900,
      "d": 300,
      "v": 100
    },
    {
      "midi": 66,
      "hit": false,
      "t": 25200,
      "d": 300,
      "v": 100
    },
    {
      "midi": 78,
      "hit": false,
      "t": 25500,
      "d": 300,
      "v": 100
    },
    {
      "midi": 57,
      "hit": false,
      "t": 25500,
      "d": 300,
      "v": 100
    },
    {
      "midi": 81,
      "hit": false,
      "t": 25800,
      "d": 300,
      "v": 100
    },
    {
      "midi": 62,
      "hit": false,
      "t": 25800,
      "d": 300,
      "v": 100
    },
    {
      "midi": 78,
      "hit": false,
      "t": 26100,
      "d": 300,
      "v": 100
    },
    {
      "midi": 57,
      "hit": false,
      "t": 26100,
      "d": 300,
      "v": 100
    },
    {
      "midi": 76,
      "hit": false,
      "t": 26400,
      "d": 1200,
      "v": 100
    },
    {
      "midi": 48,
      "hit": false,
      "t": 26400,
      "d": 300,
      "v": 100
    },
    {
      "midi": 55,
      "hit": false,
      "t": 26700,
      "d": 300,
      "v": 100
    },
    {
      "midi": 60,
      "hit": false,
      "t": 27000,
      "d": 300,
      "v": 100
    },
    {
      "midi": 55,
      "hit": false,
      "t": 27300,
      "d": 300,
      "v": 100
    },
    {
      "midi": 64,
      "hit": false,
      "t": 27600,
      "d": 300,
      "v": 100
    },
    {
      "midi": 76,
      "hit": false,
      "t": 27900,
      "d": 300,
      "v": 100
    },
    {
      "midi": 55,
      "hit": false,
      "t": 27900,
      "d": 300,
      "v": 100
    },
    {
      "midi": 79,
      "hit": false,
      "t": 28200,
      "d": 300,
      "v": 100
    },
    {
      "midi": 60,
      "hit": false,
      "t": 28200,
      "d": 300,
      "v": 100
    },
    {
      "midi": 77,
      "hit": false,
      "t": 28500,
      "d": 300,
      "v": 100
    },
    {
      "midi": 55,
      "hit": false,
      "t": 28500,
      "d": 300,
      "v": 100
    },
    {
      "midi": 78,
      "hit": false,
      "t": 28800,
      "d": 1200,
      "v": 100
    },
    {
      "midi": 42,
      "hit": false,
      "t": 28800,
      "d": 150,
      "v": 100
    },
    {
      "midi": 54,
      "hit": false,
      "t": 28800,
      "d": 150,
      "v": 100
    },
    {
      "midi": 49,
      "hit": false,
      "t": 28950,
      "d": 150,
      "v": 100
    },
    {
      "midi": 54,
      "hit": false,
      "t": 29100,
      "d": 150,
      "v": 100
    },
    {
      "midi": 58,
      "hit": false,
      "t": 29250,
      "d": 150,
      "v": 100
    },
    {
      "midi": 61,
      "hit": false,
      "t": 29400,
      "d": 150,
      "v": 100
    },
    {
      "midi": 66,
      "hit": false,
      "t": 29550,
      "d": 150,
      "v": 100
    },
    {
      "midi": 70,
      "hit": false,
      "t": 29700,
      "d": 150,
      "v": 100
    },
    {
      "midi": 66,
      "hit": false,
      "t": 29850,
      "d": 150,
      "v": 100
    },
    {
      "midi": 61,
      "hit": false,
      "t": 30000,
      "d": 150,
      "v": 100
    },
    {
      "midi": 58,
      "hit": false,
      "t": 30150,
      "d": 150,
      "v": 100
    },
    {
      "midi": 78,
      "hit": false,
      "t": 30300,
      "d": 300,
      "v": 100
    },
    {
      "midi": 90,
      "hit": false,
      "t": 30300,
      "d": 300,
      "v": 100
    },
    {
      "midi": 54,
      "hit": false,
      "t": 30300,
      "d": 150,
      "v": 100
    },
    {
      "midi": 49,
      "hit": false,
      "t": 30450,
      "d": 150,
      "v": 100
    },
    {
      "midi": 83,
      "hit": false,
      "t": 30600,
      "d": 300,
      "v": 100
    },
    {
      "midi": 95,
      "hit": false,
      "t": 30600,
      "d": 300,
      "v": 100
    },
    {
      "midi": 54,
      "hit": false,
      "t": 30600,
      "d": 150,
      "v": 100
    },
    {
      "midi": 58,
      "hit": false,
      "t": 30750,
      "d": 150,
      "v": 100
    },
    {
      "midi": 86,
      "hit": false,
      "t": 30900,
      "d": 300,
      "v": 100
    },
    {
      "midi": 98,
      "hit": false,
      "t": 30900,
      "d": 300,
      "v": 100
    },
    {
      "midi": 61,
      "hit": false,
      "t": 30900,
      "d": 150,
      "v": 100
    },
    {
      "midi": 66,
      "hit": false,
      "t": 31050,
      "d": 150,
      "v": 100
    },
    {
      "midi": 85,
      "hit": false,
      "t": 31200,
      "d": 300,
      "v": 100
    },
    {
      "midi": 97,
      "hit": false,
      "t": 31200,
      "d": 300,
      "v": 100
    },
    {
      "midi": 47,
      "hit": false,
      "t": 31200,
      "d": 150,
      "v": 100
    },
    {
      "midi": 59,
      "hit": false,
      "t": 31200,
      "d": 150,
      "v": 100
    },
    {
      "midi": 54,
      "hit": false,
      "t": 31350,
      "d": 150,
      "v": 100
    },
    {
      "midi": 83,
      "hit": false,
      "t": 31500,
      "d": 300,
      "v": 100
    },
    {
      "midi": 95,
      "hit": false,
      "t": 31500,
      "d": 300,
      "v": 100
    },
    {
      "midi": 59,
      "hit": false,
      "t": 31500,
      "d": 150,
      "v": 100
    },
    {
      "midi": 62,
      "hit": false,
      "t": 31650,
      "d": 150,
      "v": 100
    },
    {
      "midi": 86,
      "hit": false,
      "t": 31800,
      "d": 300,
      "v": 100
    },
    {
      "midi": 98,
      "hit": false,
      "t": 31800,
      "d": 300,
      "v": 100
    },
    {
      "midi": 66,
      "hit": false,
      "t": 31800,
      "d": 150,
      "v": 100
    },
    {
      "midi": 62,
      "hit": false,
      "t": 31950,
      "d": 150,
      "v": 100
    },
    {
      "midi": 83,
      "hit": false,
      "t": 32100,
      "d": 300,
      "v": 100
    },
    {
      "midi": 95,
      "hit": false,
      "t": 32100,
      "d": 300,
      "v": 100
    },
    {
      "midi": 59,
      "hit": false,
      "t": 32100,
      "d": 150,
      "v": 100
    },
    {
      "midi": 62,
      "hit": false,
      "t": 32250,
      "d": 150,
      "v": 100
    },
    {
      "midi": 85,
      "hit": false,
      "t": 32400,
      "d": 300,
      "v": 100
    },
    {
      "midi": 97,
      "hit": false,
      "t": 32400,
      "d": 300,
      "v": 100
    },
    {
      "midi": 52,
      "hit": false,
      "t": 32400,
      "d": 150,
      "v": 100
    },
    {
      "midi": 59,
      "hit": false,
      "t": 32550,
      "d": 150,
      "v": 100
    },
    {
      "midi": 83,
      "hit": false,
      "t": 32700,
      "d": 300,
      "v": 100
    },
    {
      "midi": 95,
      "hit": false,
      "t": 32700,
      "d": 300,
      "v": 100
    },
    {
      "midi": 64,
      "hit": false,
      "t": 32700,
      "d": 150,
      "v": 100
    },
    {
      "midi": 67,
      "hit": false,
      "t": 32850,
      "d": 150,
      "v": 100
    },
    {
      "midi": 79,
      "hit": false,
      "t": 33000,
      "d": 300,
      "v": 100
    },
    {
      "midi": 91,
      "hit": false,
      "t": 33000,
      "d": 300,
      "v": 100
    },
    {
      "midi": 64,
      "hit": false,
      "t": 33000,
      "d": 150,
      "v": 100
    },
    {
      "midi": 59,
      "hit": false,
      "t": 33150,
      "d": 150,
      "v": 100
    },
    {
      "midi": 81,
      "hit": false,
      "t": 33300,
      "d": 300,
      "v": 100
    },
    {
      "midi": 93,
      "hit": false,
      "t": 33300,
      "d": 300,
      "v": 100
    },
    {
      "midi": 55,
      "hit": false,
      "t": 33300,
      "d": 150,
      "v": 100
    },
    {
      "midi": 52,
      "hit": false,
      "t": 33450,
      "d": 150,
      "v": 100
    },
    {
      "midi": 78,
      "hit": false,
      "t": 33600,
      "d": 1200,
      "v": 100
    },
    {
      "midi": 90,
      "hit": false,
      "t": 33600,
      "d": 1200,
      "v": 100
    },
    {
      "midi": 47,
      "hit": false,
      "t": 33600,
      "d": 150,
      "v": 100
    },
    {
      "midi": 59,
      "hit": false,
      "t": 33600,
      "d": 150,
      "v": 100
    },
    {
      "midi": 54,
      "hit": false,
      "t": 33750,
      "d": 150,
      "v": 100
    },
    {
      "midi": 59,
      "hit": false,
      "t": 33900,
      "d": 150,
      "v": 100
    },
    {
      "midi": 62,
      "hit": false,
      "t": 34050,
      "d": 150,
      "v": 100
    },
    {
      "midi": 66,
      "hit": false,
      "t": 34200,
      "d": 150,
      "v": 100
    },
    {
      "midi": 62,
      "hit": false,
      "t": 34350,
      "d": 150,
      "v": 100
    },
    {
      "midi": 59,
      "hit": false,
      "t": 34500,
      "d": 150,
      "v": 100
    },
    {
      "midi": 54,
      "hit": false,
      "t": 34650,
      "d": 150,
      "v": 100
    },
    {
      "midi": 50,
      "hit": false,
      "t": 34800,
      "d": 150,
      "v": 100
    },
    {
      "midi": 54,
      "hit": false,
      "t": 34950,
      "d": 150,
      "v": 100
    },
    {
      "midi": 78,
      "hit": false,
      "t": 35100,
      "d": 300,
      "v": 100
    },
    {
      "midi": 90,
      "hit": false,
      "t": 35100,
      "d": 300,
      "v": 100
    },
    {
      "midi": 59,
      "hit": false,
      "t": 35100,
      "d": 150,
      "v": 100
    },
    {
      "midi": 62,
      "hit": false,
      "t": 35250,
      "d": 150,
      "v": 100
    },
    {
      "midi": 83,
      "hit": false,
      "t": 35400,
      "d": 300,
      "v": 100
    },
    {
      "midi": 95,
      "hit": false,
      "t": 35400,
      "d": 300,
      "v": 100
    },
    {
      "midi": 66,
      "hit": false,
      "t": 35400,
      "d": 150,
      "v": 100
    },
    {
      "midi": 62,
      "hit": false,
      "t": 35550,
      "d": 150,
      "v": 100
    },
    {
      "midi": 86,
      "hit": false,
      "t": 35700,
      "d": 300,
      "v": 100
    },
    {
      "midi": 98,
      "hit": false,
      "t": 35700,
      "d": 300,
      "v": 100
    },
    {
      "midi": 59,
      "hit": false,
      "t": 35700,
      "d": 150,
      "v": 100
    },
    {
      "midi": 54,
      "hit": false,
      "t": 35850,
      "d": 150,
      "v": 100
    },
    {
      "midi": 85,
      "hit": false,
      "t": 36000,
      "d": 300,
      "v": 100
    },
    {
      "midi": 97,
      "hit": false,
      "t": 36000,
      "d": 300,
      "v": 100
    },
    {
      "midi": 47,
      "hit": false,
      "t": 36000,
      "d": 150,
      "v": 100
    },
    {
      "midi": 59,
      "hit": false,
      "t": 36000,
      "d": 150,
      "v": 100
    },
    {
      "midi": 54,
      "hit": false,
      "t": 36150,
      "d": 150,
      "v": 100
    },
    {
      "midi": 83,
      "hit": false,
      "t": 36300,
      "d": 300,
      "v": 100
    },
    {
      "midi": 95,
      "hit": false,
      "t": 36300,
      "d": 300,
      "v": 100
    },
    {
      "midi": 59,
      "hit": false,
      "t": 36300,
      "d": 150,
      "v": 100
    },
    {
      "midi": 62,
      "hit": false,
      "t": 36450,
      "d": 150,
      "v": 100
    },
    {
      "midi": 86,
      "hit": false,
      "t": 36600,
      "d": 300,
      "v": 100
    },
    {
      "midi": 98,
      "hit": false,
      "t": 36600,
      "d": 300,
      "v": 100
    },
    {
      "midi": 66,
      "hit": false,
      "t": 36600,
      "d": 150,
      "v": 100
    },
    {
      "midi": 62,
      "hit": false,
      "t": 36750,
      "d": 150,
      "v": 100
    },
    {
      "midi": 83,
      "hit": false,
      "t": 36900,
      "d": 300,
      "v": 100
    },
    {
      "midi": 95,
      "hit": false,
      "t": 36900,
      "d": 300,
      "v": 100
    },
    {
      "midi": 59,
      "hit": false,
      "t": 36900,
      "d": 150,
      "v": 100
    },
    {
      "midi": 54,
      "hit": false,
      "t": 37050,
      "d": 150,
      "v": 100
    },
    {
      "midi": 85,
      "hit": false,
      "t": 37200,
      "d": 300,
      "v": 100
    },
    {
      "midi": 97,
      "hit": false,
      "t": 37200,
      "d": 300,
      "v": 100
    },
    {
      "midi": 50,
      "hit": false,
      "t": 37200,
      "d": 150,
      "v": 100
    },
    {
      "midi": 54,
      "hit": false,
      "t": 37350,
      "d": 150,
      "v": 100
    },
    {
      "midi": 83,
      "hit": false,
      "t": 37500,
      "d": 300,
      "v": 100
    },
    {
      "midi": 95,
      "hit": false,
      "t": 37500,
      "d": 300,
      "v": 100
    },
    {
      "midi": 59,
      "hit": false,
      "t": 37500,
      "d": 150,
      "v": 100
    },
    {
      "midi": 62,
      "hit": false,
      "t": 37650,
      "d": 150,
      "v": 100
    },
    {
      "midi": 78,
      "hit": false,
      "t": 37800,
      "d": 300,
      "v": 100
    },
    {
      "midi": 90,
      "hit": false,
      "t": 37800,
      "d": 300,
      "v": 100
    },
    {
      "midi": 66,
      "hit": false,
      "t": 37800,
      "d": 150,
      "v": 100
    },
    {
      "midi": 62,
      "hit": false,
      "t": 37950,
      "d": 150,
      "v": 100
    },
    {
      "midi": 77,
      "hit": false,
      "t": 38100,
      "d": 300,
      "v": 100
    },
    {
      "midi": 89,
      "hit": false,
      "t": 38100,
      "d": 300,
      "v": 100
    },
    {
      "midi": 59,
      "hit": false,
      "t": 38100,
      "d": 150,
      "v": 100
    },
    {
      "midi": 54,
      "hit": false,
      "t": 38250,
      "d": 150,
      "v": 100
    },
    {
      "midi": 76,
      "hit": false,
      "t": 38400,
      "d": 1200,
      "v": 100
    },
    {
      "midi": 88,
      "hit": false,
      "t": 38400,
      "d": 1200,
      "v": 100
    },
    {
      "midi": 52,
      "hit": false,
      "t": 38400,
      "d": 150,
      "v": 100
    },
    {
      "midi": 59,
      "hit": false,
      "t": 38550,
      "d": 150,
      "v": 100
    },
    {
      "midi": 64,
      "hit": false,
      "t": 38700,
      "d": 150,
      "v": 100
    },
    {
      "midi": 67,
      "hit": false,
      "t": 38850,
      "d": 150,
      "v": 100
    },
    {
      "midi": 71,
      "hit": false,
      "t": 39000,
      "d": 150,
      "v": 100
    },
    {
      "midi": 67,
      "hit": false,
      "t": 39150,
      "d": 150,
      "v": 100
    },
    {
      "midi": 64,
      "hit": false,
      "t": 39300,
      "d": 150,
      "v": 100
    },
    {
      "midi": 59,
      "hit": false,
      "t": 39450,
      "d": 150,
      "v": 100
    },
    {
      "midi": 64,
      "hit": false,
      "t": 39600,
      "d": 150,
      "v": 100
    },
    {
      "midi": 67,
      "hit": false,
      "t": 39750,
      "d": 150,
      "v": 100
    },
    {
      "midi": 76,
      "hit": false,
      "t": 39900,
      "d": 300,
      "v": 100
    },
    {
      "midi": 88,
      "hit": false,
      "t": 39900,
      "d": 300,
      "v": 100
    },
    {
      "midi": 71,
      "hit": false,
      "t": 39900,
      "d": 150,
      "v": 100
    },
    {
      "midi": 67,
      "hit": false,
      "t": 40050,
      "d": 150,
      "v": 100
    },
    {
      "midi": 79,
      "hit": false,
      "t": 40200,
      "d": 300,
      "v": 100
    },
    {
      "midi": 91,
      "hit": false,
      "t": 40200,
      "d": 300,
      "v": 100
    },
    {
      "midi": 64,
      "hit": false,
      "t": 40200,
      "d": 150,
      "v": 100
    },
    {
      "midi": 59,
      "hit": false,
      "t": 40350,
      "d": 150,
      "v": 100
    },
    {
      "midi": 82,
      "hit": false,
      "t": 40500,
      "d": 300,
      "v": 100
    },
    {
      "midi": 94,
      "hit": false,
      "t": 40500,
      "d": 300,
      "v": 100
    },
    {
      "midi": 55,
      "hit": false,
      "t": 40500,
      "d": 150,
      "v": 100
    },
    {
      "midi": 52,
      "hit": false,
      "t": 40650,
      "d": 150,
      "v": 100
    },
    {
      "midi": 85,
      "hit": false,
      "t": 40800,
      "d": 1200,
      "v": 100
    },
    {
      "midi": 97,
      "hit": false,
      "t": 40800,
      "d": 1200,
      "v": 100
    },
    {
      "midi": 52,
      "hit": false,
      "t": 40800,
      "d": 150,
      "v": 100
    },
    {
      "midi": 64,
      "hit": false,
      "t": 40800,
      "d": 150,
      "v": 100
    },
    {
      "midi": 59,
      "hit": false,
      "t": 40950,
      "d": 150,
      "v": 100
    },
    {
      "midi": 64,
      "hit": false,
      "t": 41100,
      "d": 150,
      "v": 100
    },
    {
      "midi": 67,
      "hit": false,
      "t": 41250,
      "d": 150,
      "v": 100
    },
    {
      "midi": 71,
      "hit": false,
      "t": 41400,
      "d": 150,
      "v": 100
    },
    {
      "midi": 67,
      "hit": false,
      "t": 41550,
      "d": 150,
      "v": 100
    },
    {
      "midi": 64,
      "hit": false,
      "t": 41700,
      "d": 150,
      "v": 100
    },
    {
      "midi": 59,
      "hit": false,
      "t": 41850,
      "d": 150,
      "v": 100
    },
    {
      "midi": 64,
      "hit": false,
      "t": 42000,
      "d": 150,
      "v": 100
    },
    {
      "midi": 67,
      "hit": false,
      "t": 42150,
      "d": 150,
      "v": 100
    },
    {
      "midi": 76,
      "hit": false,
      "t": 42300,
      "d": 300,
      "v": 100
    },
    {
      "midi": 88,
      "hit": false,
      "t": 42300,
      "d": 300,
      "v": 100
    },
    {
      "midi": 71,
      "hit": false,
      "t": 42300,
      "d": 150,
      "v": 100
    },
    {
      "midi": 67,
      "hit": false,
      "t": 42450,
      "d": 150,
      "v": 100
    },
    {
      "midi": 79,
      "hit": false,
      "t": 42600,
      "d": 300,
      "v": 100
    },
    {
      "midi": 91,
      "hit": false,
      "t": 42600,
      "d": 300,
      "v": 100
    },
    {
      "midi": 64,
      "hit": false,
      "t": 42600,
      "d": 150,
      "v": 100
    },
    {
      "midi": 59,
      "hit": false,
      "t": 42750,
      "d": 150,
      "v": 100
    },
    {
      "midi": 82,
      "hit": false,
      "t": 42900,
      "d": 300,
      "v": 100
    },
    {
      "midi": 94,
      "hit": false,
      "t": 42900,
      "d": 300,
      "v": 100
    },
    {
      "midi": 55,
      "hit": false,
      "t": 42900,
      "d": 150,
      "v": 100
    },
    {
      "midi": 52,
      "hit": false,
      "t": 43050,
      "d": 150,
      "v": 100
    },
    {
      "midi": 83,
      "hit": false,
      "t": 43200,
      "d": 1200,
      "v": 100
    },
    {
      "midi": 95,
      "hit": false,
      "t": 43200,
      "d": 1200,
      "v": 100
    },
    {
      "midi": 47,
      "hit": false,
      "t": 43200,
      "d": 150,
      "v": 100
    },
    {
      "midi": 59,
      "hit": false,
      "t": 43200,
      "d": 150,
      "v": 100
    },
    {
      "midi": 54,
      "hit": false,
      "t": 43350,
      "d": 150,
      "v": 100
    },
    {
      "midi": 59,
      "hit": false,
      "t": 43500,
      "d": 150,
      "v": 100
    },
    {
      "midi": 62,
      "hit": false,
      "t": 43650,
      "d": 150,
      "v": 100
    },
    {
      "midi": 66,
      "hit": false,
      "t": 43800,
      "d": 150,
      "v": 100
    },
    {
      "midi": 71,
      "hit": false,
      "t": 43950,
      "d": 150,
      "v": 100
    },
    {
      "midi": 66,
      "hit": false,
      "t": 44100,
      "d": 150,
      "v": 100
    },
    {
      "midi": 62,
      "hit": false,
      "t": 44250,
      "d": 150,
      "v": 100
    },
    {
      "midi": 59,
      "hit": false,
      "t": 44400,
      "d": 150,
      "v": 100
    },
    {
      "midi": 62,
      "hit": false,
      "t": 44550,
      "d": 150,
      "v": 100
    },
    {
      "midi": 71,
      "hit": false,
      "t": 44700,
      "d": 300,
      "v": 100
    },
    {
      "midi": 83,
      "hit": false,
      "t": 44700,
      "d": 300,
      "v": 100
    },
    {
      "midi": 66,
      "hit": false,
      "t": 44700,
      "d": 150,
      "v": 100
    },
    {
      "midi": 71,
      "hit": false,
      "t": 44850,
      "d": 150,
      "v": 100
    },
    {
      "midi": 74,
      "hit": false,
      "t": 45000,
      "d": 300,
      "v": 100
    },
    {
      "midi": 86,
      "hit": false,
      "t": 45000,
      "d": 300,
      "v": 100
    },
    {
      "midi": 66,
      "hit": false,
      "t": 45000,
      "d": 150,
      "v": 100
    },
    {
      "midi": 62,
      "hit": false,
      "t": 45150,
      "d": 150,
      "v": 100
    },
    {
      "midi": 81,
      "hit": false,
      "t": 45300,
      "d": 300,
      "v": 100
    },
    {
      "midi": 93,
      "hit": false,
      "t": 45300,
      "d": 300,
      "v": 100
    },
    {
      "midi": 59,
      "hit": false,
      "t": 45300,
      "d": 150,
      "v": 100
    },
    {
      "midi": 54,
      "hit": false,
      "t": 45450,
      "d": 150,
      "v": 100
    },
    {
      "midi": 79,
      "hit": false,
      "t": 45600,
      "d": 300,
      "v": 100
    },
    {
      "midi": 91,
      "hit": false,
      "t": 45600,
      "d": 300,
      "v": 100
    },
    {
      "midi": 52,
      "hit": false,
      "t": 45600,
      "d": 150,
      "v": 100
    },
    {
      "midi": 64,
      "hit": false,
      "t": 45600,
      "d": 150,
      "v": 100
    },
    {
      "midi": 59,
      "hit": false,
      "t": 45750,
      "d": 150,
      "v": 100
    },
    {
      "midi": 78,
      "hit": false,
      "t": 45900,
      "d": 300,
      "v": 100
    },
    {
      "midi": 90,
      "hit": false,
      "t": 45900,
      "d": 300,
      "v": 100
    },
    {
      "midi": 64,
      "hit": false,
      "t": 45900,
      "d": 150,
      "v": 100
    },
    {
      "midi": 67,
      "hit": false,
      "t": 46050,
      "d": 150,
      "v": 100
    },
    {
      "midi": 81,
      "hit": false,
      "t": 46200,
      "d": 300,
      "v": 100
    },
    {
      "midi": 93,
      "hit": false,
      "t": 46200,
      "d": 300,
      "v": 100
    },
    {
      "midi": 71,
      "hit": false,
      "t": 46200,
      "d": 150,
      "v": 100
    },
    {
      "midi": 67,
      "hit": false,
      "t": 46350,
      "d": 150,
      "v": 100
    },
    {
      "midi": 79,
      "hit": false,
      "t": 46500,
      "d": 300,
      "v": 100
    },
    {
      "midi": 91,
      "hit": false,
      "t": 46500,
      "d": 300,
      "v": 100
    },
    {
      "midi": 64,
      "hit": false,
      "t": 46500,
      "d": 150,
      "v": 100
    },
    {
      "midi": 59,
      "hit": false,
      "t": 46650,
      "d": 150,
      "v": 100
    },
    {
      "midi": 79,
      "hit": false,
      "t": 46800,
      "d": 300,
      "v": 100
    },
    {
      "midi": 91,
      "hit": false,
      "t": 46800,
      "d": 300,
      "v": 100
    },
    {
      "midi": 42,
      "hit": false,
      "t": 46800,
      "d": 150,
      "v": 100
    },
    {
      "midi": 54,
      "hit": false,
      "t": 46800,
      "d": 150,
      "v": 100
    },
    {
      "midi": 49,
      "hit": false,
      "t": 46950,
      "d": 150,
      "v": 100
    },
    {
      "midi": 78,
      "hit": false,
      "t": 47100,
      "d": 300,
      "v": 100
    },
    {
      "midi": 90,
      "hit": false,
      "t": 47100,
      "d": 300,
      "v": 100
    },
    {
      "midi": 54,
      "hit": false,
      "t": 47100,
      "d": 150,
      "v": 100
    },
    {
      "midi": 58,
      "hit": false,
      "t": 47250,
      "d": 150,
      "v": 100
    },
    {
      "midi": 78,
      "hit": false,
      "t": 47400,
      "d": 300,
      "v": 100
    },
    {
      "midi": 90,
      "hit": false,
      "t": 47400,
      "d": 300,
      "v": 100
    },
    {
      "midi": 61,
      "hit": false,
      "t": 47400,
      "d": 150,
      "v": 100
    },
    {
      "midi": 66,
      "hit": false,
      "t": 47550,
      "d": 150,
      "v": 100
    },
    {
      "midi": 70,
      "hit": false,
      "t": 47700,
      "d": 300,
      "v": 100
    },
    {
      "midi": 82,
      "hit": false,
      "t": 47700,
      "d": 300,
      "v": 100
    },
    {
      "midi": 61,
      "hit": false,
      "t": 47700,
      "d": 150,
      "v": 100
    },
    {
      "midi": 58,
      "hit": false,
      "t": 47850,
      "d": 150,
      "v": 100
    },
    {
      "midi": 71,
      "hit": false,
      "t": 48000,
      "d": 1200,
      "v": 100
    },
    {
      "midi": 47,
      "hit": false,
      "t": 48000,
      "d": 300,
      "v": 100
    },
    {
      "midi": 59,
      "hit": false,
      "t": 48000,
      "d": 300,
      "v": 100
    },
    {
      "midi": 54,
      "hit": false,
      "t": 48300,
      "d": 300,
      "v": 100
    },
    {
      "midi": 59,
      "hit": false,
      "t": 48600,
      "d": 300,
      "v": 100
    },
    {
      "midi": 54,
      "hit": false,
      "t": 48900,
      "d": 300,
      "v": 100
    },
    {
      "midi": 61,
      "hit": false,
      "t": 49200,
      "d": 300,
      "v": 100
    },
    {
      "midi": 83,
      "hit": false,
      "t": 49500,
      "d": 300,
      "v": 100
    },
    {
      "midi": 54,
      "hit": false,
      "t": 49500,
      "d": 300,
      "v": 100
    },
    {
      "midi": 83,
      "hit": false,
      "t": 49800,
      "d": 300,
      "v": 100
    },
    {
      "midi": 59,
      "hit": false,
      "t": 49800,
      "d": 300,
      "v": 100
    },
    {
      "midi": 82,
      "hit": false,
      "t": 50100,
      "d": 300,
      "v": 100
    },
    {
      "midi": 54,
      "hit": false,
      "t": 50100,
      "d": 300,
      "v": 100
    },
    {
      "midi": 81,
      "hit": false,
      "t": 50400,
      "d": 1200,
      "v": 100
    },
    {
      "midi": 45,
      "hit": false,
      "t": 50400,
      "d": 300,
      "v": 100
    },
    {
      "midi": 57,
      "hit": false,
      "t": 50400,
      "d": 300,
      "v": 100
    },
    {
      "midi": 52,
      "hit": false,
      "t": 50700,
      "d": 300,
      "v": 100
    },
    {
      "midi": 57,
      "hit": false,
      "t": 51000,
      "d": 300,
      "v": 100
    },
    {
      "midi": 52,
      "hit": false,
      "t": 51300,
      "d": 300,
      "v": 100
    },
    {
      "midi": 85,
      "hit": false,
      "t": 51600,
      "d": 600,
      "v": 100
    },
    {
      "midi": 61,
      "hit": false,
      "t": 51600,
      "d": 300,
      "v": 100
    },
    {
      "midi": 52,
      "hit": false,
      "t": 51900,
      "d": 300,
      "v": 100
    },
    {
      "midi": 83,
      "hit": false,
      "t": 52200,
      "d": 300,
      "v": 100
    },
    {
      "midi": 57,
      "hit": false,
      "t": 52200,
      "d": 300,
      "v": 100
    },
    {
      "midi": 79,
      "hit": false,
      "t": 52500,
      "d": 300,
      "v": 100
    },
    {
      "midi": 52,
      "hit": false,
      "t": 52500,
      "d": 300,
      "v": 100
    },
    {
      "midi": 78,
      "hit": false,
      "t": 52800,
      "d": 1200,
      "v": 100
    },
    {
      "midi": 50,
      "hit": false,
      "t": 52800,
      "d": 300,
      "v": 100
    },
    {
      "midi": 57,
      "hit": false,
      "t": 53100,
      "d": 300,
      "v": 100
    },
    {
      "midi": 62,
      "hit": false,
      "t": 53400,
      "d": 300,
      "v": 100
    },
    {
      "midi": 57,
      "hit": false,
      "t": 53700,
      "d": 300,
      "v": 100
    },
    {
      "midi": 66,
      "hit": false,
      "t": 54000,
      "d": 300,
      "v": 100
    },
    {
      "midi": 78,
      "hit": false,
      "t": 54300,
      "d": 300,
      "v": 100
    },
    {
      "midi": 57,
      "hit": false,
      "t": 54300,
      "d": 300,
      "v": 100
    },
    {
      "midi": 81,
      "hit": false,
      "t": 54600,
      "d": 300,
      "v": 100
    },
    {
      "midi": 62,
      "hit": false,
      "t": 54600,
      "d": 300,
      "v": 100
    },
    {
      "midi": 78,
      "hit": false,
      "t": 54900,
      "d": 300,
      "v": 100
    },
    {
      "midi": 57,
      "hit": false,
      "t": 54900,
      "d": 300,
      "v": 100
    },
    {
      "midi": 76,
      "hit": false,
      "t": 55200,
      "d": 1200,
      "v": 100
    },
    {
      "midi": 67,
      "hit": false,
      "t": 55200,
      "d": 150,
      "v": 100
    },
    {
      "midi": 48,
      "hit": false,
      "t": 55200,
      "d": 300,
      "v": 100
    },
    {
      "midi": 55,
      "hit": false,
      "t": 55500,
      "d": 300,
      "v": 100
    },
    {
      "midi": 60,
      "hit": false,
      "t": 55800,
      "d": 300,
      "v": 100
    },
    {
      "midi": 55,
      "hit": false,
      "t": 56100,
      "d": 300,
      "v": 100
    },
    {
      "midi": 64,
      "hit": false,
      "t": 56400,
      "d": 300,
      "v": 100
    },
    {
      "midi": 76,
      "hit": false,
      "t": 56700,
      "d": 300,
      "v": 100
    },
    {
      "midi": 55,
      "hit": false,
      "t": 56700,
      "d": 300,
      "v": 100
    },
    {
      "midi": 79,
      "hit": false,
      "t": 57000,
      "d": 300,
      "v": 100
    },
    {
      "midi": 60,
      "hit": false,
      "t": 57000,
      "d": 300,
      "v": 100
    },
    {
      "midi": 77,
      "hit": false,
      "t": 57300,
      "d": 300,
      "v": 100
    },
    {
      "midi": 55,
      "hit": false,
      "t": 57300,
      "d": 300,
      "v": 100
    },
    {
      "midi": 72,
      "hit": false,
      "t": 57600,
      "d": 1200,
      "v": 100
    },
    {
      "midi": 78,
      "hit": false,
      "t": 57600,
      "d": 1200,
      "v": 100
    },
    {
      "midi": 42,
      "hit": false,
      "t": 57600,
      "d": 150,
      "v": 100
    },
    {
      "midi": 54,
      "hit": false,
      "t": 57600,
      "d": 150,
      "v": 100
    },
    {
      "midi": 49,
      "hit": false,
      "t": 57750,
      "d": 150,
      "v": 100
    },
    {
      "midi": 54,
      "hit": false,
      "t": 57900,
      "d": 150,
      "v": 100
    },
    {
      "midi": 58,
      "hit": false,
      "t": 58050,
      "d": 150,
      "v": 100
    },
    {
      "midi": 61,
      "hit": false,
      "t": 58200,
      "d": 150,
      "v": 100
    },
    {
      "midi": 66,
      "hit": false,
      "t": 58350,
      "d": 150,
      "v": 100
    },
    {
      "midi": 70,
      "hit": false,
      "t": 58500,
      "d": 150,
      "v": 100
    },
    {
      "midi": 66,
      "hit": false,
      "t": 58650,
      "d": 150,
      "v": 100
    },
    {
      "midi": 61,
      "hit": false,
      "t": 58800,
      "d": 150,
      "v": 100
    },
    {
      "midi": 56,
      "hit": false,
      "t": 58950,
      "d": 150,
      "v": 100
    },
    {
      "midi": 80,
      "hit": false,
      "t": 59100,
      "d": 300,
      "v": 100
    },
    {
      "midi": 92,
      "hit": false,
      "t": 59100,
      "d": 300,
      "v": 100
    },
    {
      "midi": 55,
      "hit": false,
      "t": 59100,
      "d": 300,
      "v": 100
    },
    {
      "midi": 67,
      "hit": false,
      "t": 59100,
      "d": 300,
      "v": 100
    },
    {
      "midi": 85,
      "hit": false,
      "t": 59400,
      "d": 300,
      "v": 100
    },
    {
      "midi": 97,
      "hit": false,
      "t": 59400,
      "d": 300,
      "v": 100
    },
    {
      "midi": 61,
      "hit": false,
      "t": 59400,
      "d": 300,
      "v": 100
    },
    {
      "midi": 73,
      "hit": false,
      "t": 59400,
      "d": 300,
      "v": 100
    },
    {
      "midi": 88,
      "hit": false,
      "t": 59700,
      "d": 300,
      "v": 100
    },
    {
      "midi": 100,
      "hit": false,
      "t": 59700,
      "d": 300,
      "v": 100
    },
    {
      "midi": 64,
      "hit": false,
      "t": 59700,
      "d": 300,
      "v": 100
    },
    {
      "midi": 76,
      "hit": false,
      "t": 59700,
      "d": 300,
      "v": 100
    },
    {
      "midi": 87,
      "hit": false,
      "t": 60000,
      "d": 300,
      "v": 100
    },
    {
      "midi": 99,
      "hit": false,
      "t": 60000,
      "d": 300,
      "v": 100
    },
    {
      "midi": 49,
      "hit": false,
      "t": 60000,
      "d": 150,
      "v": 100
    },
    {
      "midi": 61,
      "hit": false,
      "t": 60000,
      "d": 150,
      "v": 100
    },
    {
      "midi": 56,
      "hit": false,
      "t": 60150,
      "d": 150,
      "v": 100
    },
    {
      "midi": 85,
      "hit": false,
      "t": 60300,
      "d": 300,
      "v": 100
    },
    {
      "midi": 97,
      "hit": false,
      "t": 60300,
      "d": 300,
      "v": 100
    },
    {
      "midi": 61,
      "hit": false,
      "t": 60300,
      "d": 150,
      "v": 100
    },
    {
      "midi": 64,
      "hit": false,
      "t": 60450,
      "d": 150,
      "v": 100
    },
    {
      "midi": 88,
      "hit": false,
      "t": 60600,
      "d": 300,
      "v": 100
    },
    {
      "midi": 100,
      "hit": false,
      "t": 60600,
      "d": 300,
      "v": 100
    },
    {
      "midi": 68,
      "hit": false,
      "t": 60600,
      "d": 150,
      "v": 100
    },
    {
      "midi": 64,
      "hit": false,
      "t": 60750,
      "d": 150,
      "v": 100
    },
    {
      "midi": 85,
      "hit": false,
      "t": 60900,
      "d": 300,
      "v": 100
    },
    {
      "midi": 97,
      "hit": false,
      "t": 60900,
      "d": 300,
      "v": 100
    },
    {
      "midi": 61,
      "hit": false,
      "t": 60900,
      "d": 150,
      "v": 100
    },
    {
      "midi": 64,
      "hit": false,
      "t": 61050,
      "d": 150,
      "v": 100
    },
    {
      "midi": 87,
      "hit": false,
      "t": 61200,
      "d": 300,
      "v": 100
    },
    {
      "midi": 99,
      "hit": false,
      "t": 61200,
      "d": 300,
      "v": 100
    },
    {
      "midi": 54,
      "hit": false,
      "t": 61200,
      "d": 150,
      "v": 100
    },
    {
      "midi": 61,
      "hit": false,
      "t": 61350,
      "d": 150,
      "v": 100
    },
    {
      "midi": 85,
      "hit": false,
      "t": 61500,
      "d": 300,
      "v": 100
    },
    {
      "midi": 97,
      "hit": false,
      "t": 61500,
      "d": 300,
      "v": 100
    },
    {
      "midi": 66,
      "hit": false,
      "t": 61500,
      "d": 150,
      "v": 100
    },
    {
      "midi": 69,
      "hit": false,
      "t": 61650,
      "d": 150,
      "v": 100
    },
    {
      "midi": 81,
      "hit": false,
      "t": 61800,
      "d": 300,
      "v": 100
    },
    {
      "midi": 93,
      "hit": false,
      "t": 61800,
      "d": 300,
      "v": 100
    },
    {
      "midi": 73,
      "hit": false,
      "t": 61800,
      "d": 150,
      "v": 100
    },
    {
      "midi": 69,
      "hit": false,
      "t": 61950,
      "d": 150,
      "v": 100
    },
    {
      "midi": 83,
      "hit": false,
      "t": 62100,
      "d": 300,
      "v": 100
    },
    {
      "midi": 95,
      "hit": false,
      "t": 62100,
      "d": 300,
      "v": 100
    },
    {
      "midi": 66,
      "hit": false,
      "t": 62100,
      "d": 150,
      "v": 100
    },
    {
      "midi": 61,
      "hit": false,
      "t": 62250,
      "d": 150,
      "v": 100
    },
    {
      "midi": 80,
      "hit": false,
      "t": 62400,
      "d": 1200,
      "v": 100
    },
    {
      "midi": 92,
      "hit": false,
      "t": 62400,
      "d": 1200,
      "v": 100
    },
    {
      "midi": 49,
      "hit": false,
      "t": 62400,
      "d": 150,
      "v": 100
    },
    {
      "midi": 61,
      "hit": false,
      "t": 62400,
      "d": 150,
      "v": 100
    },
    {
      "midi": 56,
      "hit": false,
      "t": 62550,
      "d": 150,
      "v": 100
    },
    {
      "midi": 61,
      "hit": false,
      "t": 62700,
      "d": 150,
      "v": 100
    },
    {
      "midi": 64,
      "hit": false,
      "t": 62850,
      "d": 150,
      "v": 100
    },
    {
      "midi": 68,
      "hit": false,
      "t": 63000,
      "d": 150,
      "v": 100
    },
    {
      "midi": 73,
      "hit": false,
      "t": 63150,
      "d": 150,
      "v": 100
    },
    {
      "midi": 68,
      "hit": false,
      "t": 63300,
      "d": 150,
      "v": 100
    },
    {
      "midi": 64,
      "hit": false,
      "t": 63450,
      "d": 150,
      "v": 100
    },
    {
      "midi": 61,
      "hit": false,
      "t": 63600,
      "d": 150,
      "v": 100
    },
    {
      "midi": 64,
      "hit": false,
      "t": 63750,
      "d": 150,
      "v": 100
    },
    {
      "midi": 80,
      "hit": false,
      "t": 63900,
      "d": 300,
      "v": 100
    },
    {
      "midi": 92,
      "hit": false,
      "t": 63900,
      "d": 300,
      "v": 100
    },
    {
      "midi": 68,
      "hit": false,
      "t": 63900,
      "d": 150,
      "v": 100
    },
    {
      "midi": 73,
      "hit": false,
      "t": 64050,
      "d": 150,
      "v": 100
    },
    {
      "midi": 85,
      "hit": false,
      "t": 64200,
      "d": 300,
      "v": 100
    },
    {
      "midi": 97,
      "hit": false,
      "t": 64200,
      "d": 300,
      "v": 100
    },
    {
      "midi": 68,
      "hit": false,
      "t": 64200,
      "d": 150,
      "v": 100
    },
    {
      "midi": 64,
      "hit": false,
      "t": 64350,
      "d": 150,
      "v": 100
    },
    {
      "midi": 88,
      "hit": false,
      "t": 64500,
      "d": 300,
      "v": 100
    },
    {
      "midi": 100,
      "hit": false,
      "t": 64500,
      "d": 300,
      "v": 100
    },
    {
      "midi": 61,
      "hit": false,
      "t": 64500,
      "d": 150,
      "v": 100
    },
    {
      "midi": 64,
      "hit": false,
      "t": 64650,
      "d": 150,
      "v": 100
    },
    {
      "midi": 87,
      "hit": false,
      "t": 64800,
      "d": 300,
      "v": 100
    },
    {
      "midi": 99,
      "hit": false,
      "t": 64800,
      "d": 300,
      "v": 100
    },
    {
      "midi": 49,
      "hit": false,
      "t": 64800,
      "d": 150,
      "v": 100
    },
    {
      "midi": 61,
      "hit": false,
      "t": 64800,
      "d": 150,
      "v": 100
    },
    {
      "midi": 56,
      "hit": false,
      "t": 64950,
      "d": 150,
      "v": 100
    },
    {
      "midi": 85,
      "hit": false,
      "t": 65100,
      "d": 300,
      "v": 100
    },
    {
      "midi": 97,
      "hit": false,
      "t": 65100,
      "d": 300,
      "v": 100
    },
    {
      "midi": 61,
      "hit": false,
      "t": 65100,
      "d": 150,
      "v": 100
    },
    {
      "midi": 64,
      "hit": false,
      "t": 65250,
      "d": 150,
      "v": 100
    },
    {
      "midi": 88,
      "hit": false,
      "t": 65400,
      "d": 300,
      "v": 100
    },
    {
      "midi": 100,
      "hit": false,
      "t": 65400,
      "d": 300,
      "v": 100
    },
    {
      "midi": 68,
      "hit": false,
      "t": 65400,
      "d": 150,
      "v": 100
    },
    {
      "midi": 73,
      "hit": false,
      "t": 65550,
      "d": 150,
      "v": 100
    },
    {
      "midi": 85,
      "hit": false,
      "t": 65700,
      "d": 300,
      "v": 100
    },
    {
      "midi": 97,
      "hit": false,
      "t": 65700,
      "d": 300,
      "v": 100
    },
    {
      "midi": 68,
      "hit": false,
      "t": 65700,
      "d": 150,
      "v": 100
    },
    {
      "midi": 64,
      "hit": false,
      "t": 65850,
      "d": 150,
      "v": 100
    },
    {
      "midi": 87,
      "hit": false,
      "t": 66000,
      "d": 300,
      "v": 100
    },
    {
      "midi": 99,
      "hit": false,
      "t": 66000,
      "d": 300,
      "v": 100
    },
    {
      "midi": 61,
      "hit": false,
      "t": 66000,
      "d": 150,
      "v": 100
    },
    {
      "midi": 64,
      "hit": false,
      "t": 66150,
      "d": 150,
      "v": 100
    },
    {
      "midi": 85,
      "hit": false,
      "t": 66300,
      "d": 300,
      "v": 100
    },
    {
      "midi": 97,
      "hit": false,
      "t": 66300,
      "d": 300,
      "v": 100
    },
    {
      "midi": 68,
      "hit": false,
      "t": 66300,
      "d": 150,
      "v": 100
    },
    {
      "midi": 73,
      "hit": false,
      "t": 66450,
      "d": 150,
      "v": 100
    },
    {
      "midi": 80,
      "hit": false,
      "t": 66600,
      "d": 300,
      "v": 100
    },
    {
      "midi": 92,
      "hit": false,
      "t": 66600,
      "d": 300,
      "v": 100
    },
    {
      "midi": 68,
      "hit": false,
      "t": 66600,
      "d": 150,
      "v": 100
    },
    {
      "midi": 64,
      "hit": false,
      "t": 66750,
      "d": 150,
      "v": 100
    },
    {
      "midi": 79,
      "hit": false,
      "t": 66900,
      "d": 300,
      "v": 100
    },
    {
      "midi": 91,
      "hit": false,
      "t": 66900,
      "d": 300,
      "v": 100
    },
    {
      "midi": 61,
      "hit": false,
      "t": 66900,
      "d": 150,
      "v": 100
    },
    {
      "midi": 64,
      "hit": false,
      "t": 67050,
      "d": 150,
      "v": 100
    },
    {
      "midi": 78,
      "hit": false,
      "t": 67200,
      "d": 1200,
      "v": 100
    },
    {
      "midi": 90,
      "hit": false,
      "t": 67200,
      "d": 1200,
      "v": 100
    },
    {
      "midi": 54,
      "hit": false,
      "t": 67200,
      "d": 150,
      "v": 100
    },
    {
      "midi": 66,
      "hit": false,
      "t": 67200,
      "d": 150,
      "v": 100
    },
    {
      "midi": 61,
      "hit": false,
      "t": 67350,
      "d": 150,
      "v": 100
    },
    {
      "midi": 66,
      "hit": false,
      "t": 67500,
      "d": 150,
      "v": 100
    },
    {
      "midi": 69,
      "hit": false,
      "t": 67650,
      "d": 150,
      "v": 100
    },
    {
      "midi": 73,
      "hit": false,
      "t": 67800,
      "d": 150,
      "v": 100
    },
    {
      "midi": 69,
      "hit": false,
      "t": 67950,
      "d": 150,
      "v": 100
    },
    {
      "midi": 66,
      "hit": false,
      "t": 68100,
      "d": 150,
      "v": 100
    },
    {
      "midi": 61,
      "hit": false,
      "t": 68250,
      "d": 150,
      "v": 100
    },
    {
      "midi": 66,
      "hit": false,
      "t": 68400,
      "d": 150,
      "v": 100
    },
    {
      "midi": 69,
      "hit": false,
      "t": 68550,
      "d": 150,
      "v": 100
    },
    {
      "midi": 78,
      "hit": false,
      "t": 68700,
      "d": 300,
      "v": 100
    },
    {
      "midi": 90,
      "hit": false,
      "t": 68700,
      "d": 300,
      "v": 100
    },
    {
      "midi": 73,
      "hit": false,
      "t": 68700,
      "d": 150,
      "v": 100
    },
    {
      "midi": 69,
      "hit": false,
      "t": 68850,
      "d": 150,
      "v": 100
    },
    {
      "midi": 81,
      "hit": false,
      "t": 69000,
      "d": 300,
      "v": 100
    },
    {
      "midi": 93,
      "hit": false,
      "t": 69000,
      "d": 300,
      "v": 100
    },
    {
      "midi": 66,
      "hit": false,
      "t": 69000,
      "d": 150,
      "v": 100
    },
    {
      "midi": 61,
      "hit": false,
      "t": 69150,
      "d": 150,
      "v": 100
    },
    {
      "midi": 84,
      "hit": false,
      "t": 69300,
      "d": 300,
      "v": 100
    },
    {
      "midi": 96,
      "hit": false,
      "t": 69300,
      "d": 300,
      "v": 100
    },
    {
      "midi": 57,
      "hit": false,
      "t": 69300,
      "d": 150,
      "v": 100
    },
    {
      "midi": 61,
      "hit": false,
      "t": 69450,
      "d": 150,
      "v": 100
    },
    {
      "midi": 87,
      "hit": false,
      "t": 69600,
      "d": 1200,
      "v": 100
    },
    {
      "midi": 99,
      "hit": false,
      "t": 69600,
      "d": 1200,
      "v": 100
    },
    {
      "midi": 54,
      "hit": false,
      "t": 69600,
      "d": 150,
      "v": 100
    },
    {
      "midi": 66,
      "hit": false,
      "t": 69600,
      "d": 150,
      "v": 100
    },
    {
      "midi": 61,
      "hit": false,
      "t": 69750,
      "d": 150,
      "v": 100
    },
    {
      "midi": 66,
      "hit": false,
      "t": 69900,
      "d": 150,
      "v": 100
    },
    {
      "midi": 69,
      "hit": false,
      "t": 70050,
      "d": 150,
      "v": 100
    },
    {
      "midi": 73,
      "hit": false,
      "t": 70200,
      "d": 150,
      "v": 100
    },
    {
      "midi": 69,
      "hit": false,
      "t": 70350,
      "d": 150,
      "v": 100
    },
    {
      "midi": 66,
      "hit": false,
      "t": 70500,
      "d": 150,
      "v": 100
    },
    {
      "midi": 61,
      "hit": false,
      "t": 70650,
      "d": 150,
      "v": 100
    },
    {
      "midi": 57,
      "hit": false,
      "t": 70800,
      "d": 150,
      "v": 100
    },
    {
      "midi": 61,
      "hit": false,
      "t": 70950,
      "d": 150,
      "v": 100
    },
    {
      "midi": 90,
      "hit": false,
      "t": 71100,
      "d": 300,
      "v": 100
    },
    {
      "midi": 102,
      "hit": false,
      "t": 71100,
      "d": 300,
      "v": 100
    },
    {
      "midi": 66,
      "hit": false,
      "t": 71100,
      "d": 150,
      "v": 100
    },
    {
      "midi": 69,
      "hit": false,
      "t": 71250,
      "d": 150,
      "v": 100
    },
    {
      "midi": 88,
      "hit": false,
      "t": 71400,
      "d": 300,
      "v": 100
    },
    {
      "midi": 100,
      "hit": false,
      "t": 71400,
      "d": 300,
      "v": 100
    },
    {
      "midi": 73,
      "hit": false,
      "t": 71400,
      "d": 150,
      "v": 100
    },
    {
      "midi": 69,
      "hit": false,
      "t": 71550,
      "d": 150,
      "v": 100
    },
    {
      "midi": 87,
      "hit": false,
      "t": 71700,
      "d": 300,
      "v": 100
    },
    {
      "midi": 99,
      "hit": false,
      "t": 71700,
      "d": 300,
      "v": 100
    },
    {
      "midi": 66,
      "hit": false,
      "t": 71700,
      "d": 150,
      "v": 100
    },
    {
      "midi": 61,
      "hit": false,
      "t": 71850,
      "d": 150,
      "v": 100
    },
    {
      "midi": 85,
      "hit": false,
      "t": 72000,
      "d": 1200,
      "v": 100
    },
    {
      "midi": 97,
      "hit": false,
      "t": 72000,
      "d": 1200,
      "v": 100
    },
    {
      "midi": 49,
      "hit": false,
      "t": 72000,
      "d": 150,
      "v": 100
    },
    {
      "midi": 61,
      "hit": false,
      "t": 72000,
      "d": 150,
      "v": 100
    },
    {
      "midi": 56,
      "hit": false,
      "t": 72150,
      "d": 150,
      "v": 100
    },
    {
      "midi": 61,
      "hit": false,
      "t": 72300,
      "d": 150,
      "v": 100
    },
    {
      "midi": 64,
      "hit": false,
      "t": 72450,
      "d": 150,
      "v": 100
    },
    {
      "midi": 68,
      "hit": false,
      "t": 72600,
      "d": 150,
      "v": 100
    },
    {
      "midi": 73,
      "hit": false,
      "t": 72750,
      "d": 150,
      "v": 100
    },
    {
      "midi": 68,
      "hit": false,
      "t": 72900,
      "d": 150,
      "v": 100
    },
    {
      "midi": 64,
      "hit": false,
      "t": 73050,
      "d": 150,
      "v": 100
    },
    {
      "midi": 61,
      "hit": false,
      "t": 73200,
      "d": 150,
      "v": 100
    },
    {
      "midi": 64,
      "hit": false,
      "t": 73350,
      "d": 150,
      "v": 100
    },
    {
      "midi": 73,
      "hit": false,
      "t": 73500,
      "d": 300,
      "v": 100
    },
    {
      "midi": 85,
      "hit": false,
      "t": 73500,
      "d": 300,
      "v": 100
    },
    {
      "midi": 68,
      "hit": false,
      "t": 73500,
      "d": 150,
      "v": 100
    },
    {
      "midi": 73,
      "hit": false,
      "t": 73650,
      "d": 150,
      "v": 100
    },
    {
      "midi": 76,
      "hit": false,
      "t": 73800,
      "d": 300,
      "v": 100
    },
    {
      "midi": 88,
      "hit": false,
      "t": 73800,
      "d": 300,
      "v": 100
    },
    {
      "midi": 68,
      "hit": false,
      "t": 73800,
      "d": 150,
      "v": 100
    },
    {
      "midi": 64,
      "hit": false,
      "t": 73950,
      "d": 150,
      "v": 100
    },
    {
      "midi": 80,
      "hit": false,
      "t": 74100,
      "d": 300,
      "v": 100
    },
    {
      "midi": 92,
      "hit": false,
      "t": 74100,
      "d": 300,
      "v": 100
    },
    {
      "midi": 61,
      "hit": false,
      "t": 74100,
      "d": 150,
      "v": 100
    },
    {
      "midi": 64,
      "hit": false,
      "t": 74250,
      "d": 150,
      "v": 100
    },
    {
      "midi": 81,
      "hit": false,
      "t": 74400,
      "d": 300,
      "v": 100
    },
    {
      "midi": 93,
      "hit": false,
      "t": 74400,
      "d": 300,
      "v": 100
    },
    {
      "midi": 54,
      "hit": false,
      "t": 74400,
      "d": 150,
      "v": 100
    },
    {
      "midi": 66,
      "hit": false,
      "t": 74400,
      "d": 150,
      "v": 100
    },
    {
      "midi": 61,
      "hit": false,
      "t": 74550,
      "d": 150,
      "v": 100
    },
    {
      "midi": 80,
      "hit": false,
      "t": 74700,
      "d": 300,
      "v": 100
    },
    {
      "midi": 92,
      "hit": false,
      "t": 74700,
      "d": 300,
      "v": 100
    },
    {
      "midi": 66,
      "hit": false,
      "t": 74700,
      "d": 150,
      "v": 100
    },
    {
      "midi": 69,
      "hit": false,
      "t": 74850,
      "d": 150,
      "v": 100
    },
    {
      "midi": 83,
      "hit": false,
      "t": 75000,
      "d": 300,
      "v": 100
    },
    {
      "midi": 95,
      "hit": false,
      "t": 75000,
      "d": 300,
      "v": 100
    },
    {
      "midi": 73,
      "hit": false,
      "t": 75000,
      "d": 150,
      "v": 100
    },
    {
      "midi": 69,
      "hit": false,
      "t": 75150,
      "d": 150,
      "v": 100
    },
    {
      "midi": 81,
      "hit": false,
      "t": 75300,
      "d": 300,
      "v": 100
    },
    {
      "midi": 93,
      "hit": false,
      "t": 75300,
      "d": 300,
      "v": 100
    },
    {
      "midi": 66,
      "hit": false,
      "t": 75300,
      "d": 150,
      "v": 100
    },
    {
      "midi": 61,
      "hit": false,
      "t": 75450,
      "d": 150,
      "v": 100
    },
    {
      "midi": 81,
      "hit": false,
      "t": 75600,
      "d": 300,
      "v": 100
    },
    {
      "midi": 93,
      "hit": false,
      "t": 75600,
      "d": 300,
      "v": 100
    },
    {
      "midi": 44,
      "hit": false,
      "t": 75600,
      "d": 150,
      "v": 100
    },
    {
      "midi": 56,
      "hit": false,
      "t": 75600,
      "d": 150,
      "v": 100
    },
    {
      "midi": 51,
      "hit": false,
      "t": 75750,
      "d": 150,
      "v": 100
    },
    {
      "midi": 80,
      "hit": false,
      "t": 75900,
      "d": 300,
      "v": 100
    },
    {
      "midi": 92,
      "hit": false,
      "t": 75900,
      "d": 300,
      "v": 100
    },
    {
      "midi": 56,
      "hit": false,
      "t": 75900,
      "d": 150,
      "v": 100
    },
    {
      "midi": 60,
      "hit": false,
      "t": 76050,
      "d": 150,
      "v": 100
    },
    {
      "midi": 80,
      "hit": false,
      "t": 76200,
      "d": 300,
      "v": 100
    },
    {
      "midi": 92,
      "hit": false,
      "t": 76200,
      "d": 300,
      "v": 100
    },
    {
      "midi": 63,
      "hit": false,
      "t": 76200,
      "d": 150,
      "v": 100
    },
    {
      "midi": 68,
      "hit": false,
      "t": 76350,
      "d": 150,
      "v": 100
    },
    {
      "midi": 84,
      "hit": false,
      "t": 76500,
      "d": 300,
      "v": 100
    },
    {
      "midi": 96,
      "hit": false,
      "t": 76500,
      "d": 300,
      "v": 100
    },
    {
      "midi": 63,
      "hit": false,
      "t": 76500,
      "d": 150,
      "v": 100
    },
    {
      "midi": 60,
      "hit": false,
      "t": 76650,
      "d": 150,
      "v": 100
    },
    {
      "midi": 85,
      "hit": false,
      "t": 76800,
      "d": 2400,
      "v": 100
    },
    {
      "midi": 88,
      "hit": false,
      "t": 76800,
      "d": 2400,
      "v": 100
    },
    {
      "midi": 92,
      "hit": false,
      "t": 76800,
      "d": 2400,
      "v": 100
    },
    {
      "midi": 97,
      "hit": false,
      "t": 76800,
      "d": 2400,
      "v": 100
    },
    {
      "midi": 49,
      "hit": false,
      "t": 76800,
      "d": 150,
      "v": 100
    },
    {
      "midi": 61,
      "hit": false,
      "t": 76800,
      "d": 150,
      "v": 100
    },
    {
      "midi": 56,
      "hit": false,
      "t": 76950,
      "d": 150,
      "v": 100
    },
    {
      "midi": 61,
      "hit": false,
      "t": 77100,
      "d": 150,
      "v": 100
    },
    {
      "midi": 64,
      "hit": false,
      "t": 77250,
      "d": 150,
      "v": 100
    },
    {
      "midi": 68,
      "hit": false,
      "t": 77400,
      "d": 150,
      "v": 100
    },
    {
      "midi": 73,
      "hit": false,
      "t": 77550,
      "d": 150,
      "v": 100
    },
    {
      "midi": 76,
      "hit": false,
      "t": 77700,
      "d": 150,
      "v": 100
    },
    {
      "midi": 80,
      "hit": false,
      "t": 77850,
      "d": 150,
      "v": 100
    },
    {
      "midi": 85,
      "hit": false,
      "t": 78000,
      "d": 150,
      "v": 100
    },
    {
      "midi": 88,
      "hit": false,
      "t": 78150,
      "d": 150,
      "v": 100
    },
    {
      "midi": 92,
      "hit": false,
      "t": 78300,
      "d": 150,
      "v": 100
    },
    {
      "midi": 97,
      "hit": false,
      "t": 78450,
      "d": 150,
      "v": 100
    },
    {
      "midi": 88,
      "hit": false,
      "t": 78600,
      "d": 150,
      "v": 100
    },
    {
      "midi": 92,
      "hit": false,
      "t": 78750,
      "d": 150,
      "v": 100
    },
    {
      "midi": 97,
      "hit": false,
      "t": 78900,
      "d": 150,
      "v": 100
    },
    {
      "midi": 100,
      "hit": false,
      "t": 79050,
      "d": 150,
      "v": 100
    },
    {
      "midi": 85,
      "hit": false,
      "t": 79200,
      "d": 1200,
      "v": 100
    },
    {
      "midi": 88,
      "hit": false,
      "t": 79200,
      "d": 1200,
      "v": 100
    },
    {
      "midi": 92,
      "hit": false,
      "t": 79200,
      "d": 1200,
      "v": 100
    },
    {
      "midi": 97,
      "hit": false,
      "t": 79200,
      "d": 1200,
      "v": 100
    }
  ]
}