{
  "jsonPath": "Rock/Rock-And-Roll/The Ventures/beethoven-five-oh.json",
  "path": "Rock\\Rock-And-Roll\\The Ventures\\Beethoven Five-Oh.mid",
  "name": "Beethoven Five-Oh",
  "difficulty": "Advanced",
  "bpm": 160,
  "notes": [
    {
      "midi": 62,
      "hit": false,
      "t": 1500,
      "d": 625,
      "v": 68
    },
    {
      "midi": 65,
      "hit": false,
      "t": 1500,
      "d": 637.5,
      "v": 62
    },
    {
      "midi": 67,
      "hit": false,
      "t": 1500,
      "d": 671.875,
      "v": 68
    },
    {
      "midi": 59,
      "hit": false,
      "t": 1500,
      "d": 2784.375,
      "v": 64
    },
    {
      "midi": 43,
      "hit": false,
      "t": 1500,
      "d": 2803.125,
      "v": 62
    },
    {
      "midi": 62,
      "hit": false,
      "t": 2437.5,
      "d": 1446.875,
      "v": 63
    },
    {
      "midi": 65,
      "hit": false,
      "t": 2625,
      "d": 1315.625,
      "v": 58
    },
    {
      "midi": 74,
      "hit": false,
      "t": 2812.5,
      "d": 1490.625,
      "v": 87
    },
    {
      "midi": 65,
      "hit": false,
      "t": 4125,
      "d": 134.375,
      "v": 91
    },
    {
      "midi": 62,
      "hit": false,
      "t": 4125,
      "d": 159.375,
      "v": 87
    },
    {
      "midi": 55,
      "hit": false,
      "t": 4500,
      "d": 2365.625,
      "v": 52
    },
    {
      "midi": 62,
      "hit": false,
      "t": 4500,
      "d": 2578.125,
      "v": 76
    },
    {
      "midi": 65,
      "hit": false,
      "t": 4500,
      "d": 2684.375,
      "v": 72
    },
    {
      "midi": 55,
      "hit": false,
      "t": 6937.5,
      "d": 534.375,
      "v": 82
    },
    {
      "midi": 62,
      "hit": false,
      "t": 7125,
      "d": 346.875,
      "v": 60
    },
    {
      "midi": 65,
      "hit": false,
      "t": 7312.5,
      "d": 165.625,
      "v": 89
    },
    {
      "midi": 55,
      "hit": false,
      "t": 7500,
      "d": 825,
      "v": 62
    },
    {
      "midi": 60,
      "hit": false,
      "t": 7500,
      "d": 1031.25,
      "v": 70
    },
    {
      "midi": 63,
      "hit": false,
      "t": 7500,
      "d": 1175,
      "v": 80
    },
    {
      "midi": 67,
      "hit": false,
      "t": 7500,
      "d": 2815.625,
      "v": 78
    },
    {
      "midi": 48,
      "hit": false,
      "t": 7500,
      "d": 2837.5,
      "v": 68
    },
    {
      "midi": 55,
      "hit": false,
      "t": 8437.5,
      "d": 1418.75,
      "v": 78
    },
    {
      "midi": 60,
      "hit": false,
      "t": 8625,
      "d": 1337.5,
      "v": 82
    },
    {
      "midi": 63,
      "hit": false,
      "t": 8812.5,
      "d": 1159.375,
      "v": 85
    },
    {
      "midi": 55,
      "hit": false,
      "t": 9937.5,
      "d": 112.5,
      "v": 59
    },
    {
      "midi": 55,
      "hit": false,
      "t": 10125,
      "d": 106.25,
      "v": 27
    },
    {
      "midi": 63,
      "hit": false,
      "t": 10125,
      "d": 153.125,
      "v": 93
    },
    {
      "midi": 60,
      "hit": false,
      "t": 10125,
      "d": 168.75,
      "v": 85
    },
    {
      "midi": 59,
      "hit": false,
      "t": 10500,
      "d": 825,
      "v": 62
    },
    {
      "midi": 62,
      "hit": false,
      "t": 10500,
      "d": 1031.25,
      "v": 70
    },
    {
      "midi": 65,
      "hit": false,
      "t": 10500,
      "d": 1175,
      "v": 80
    },
    {
      "midi": 67,
      "hit": false,
      "t": 10500,
      "d": 2815.625,
      "v": 78
    },
    {
      "midi": 43,
      "hit": false,
      "t": 10500,
      "d": 2837.5,
      "v": 68
    },
    {
      "midi": 59,
      "hit": false,
      "t": 11437.5,
      "d": 1418.75,
      "v": 78
    },
    {
      "midi": 62,
      "hit": false,
      "t": 11625,
      "d": 1337.5,
      "v": 82
    },
    {
      "midi": 65,
      "hit": false,
      "t": 11812.5,
      "d": 1159.375,
      "v": 85
    },
    {
      "midi": 59,
      "hit": false,
      "t": 12937.5,
      "d": 112.5,
      "v": 59
    },
    {
      "midi": 59,
      "hit": false,
      "t": 13125,
      "d": 106.25,
      "v": 27
    },
    {
      "midi": 65,
      "hit": false,
      "t": 13125,
      "d": 153.125,
      "v": 93
    },
    {
      "midi": 62,
      "hit": false,
      "t": 13125,
      "d": 168.75,
      "v": 85
    },
    {
      "midi": 55,
      "hit": false,
      "t": 13687.5,
      "d": 1968.75,
      "v": 91
    },
    {
      "midi": 60,
      "hit": false,
      "t": 13875,
      "d": 1693.75,
      "v": 80
    },
    {
      "midi": 63,
      "hit": false,
      "t": 14062.5,
      "d": 1506.25,
      "v": 85
    },
    {
      "midi": 67,
      "hit": false,
      "t": 14062.5,
      "d": 2268.75,
      "v": 78
    },
    {
      "midi": 48,
      "hit": false,
      "t": 15562.5,
      "d": 756.25,
      "v": 80
    },
    {
      "midi": 55,
      "hit": false,
      "t": 15750,
      "d": 112.5,
      "v": 68
    },
    {
      "midi": 63,
      "hit": false,
      "t": 15750,
      "d": 112.5,
      "v": 72
    },
    {
      "midi": 60,
      "hit": false,
      "t": 15750,
      "d": 134.375,
      "v": 76
    },
    {
      "midi": 63,
      "hit": false,
      "t": 16125,
      "d": 168.75,
      "v": 85
    },
    {
      "midi": 55,
      "hit": false,
      "t": 16125,
      "d": 178.125,
      "v": 66
    },
    {
      "midi": 60,
      "hit": false,
      "t": 16125,
      "d": 178.125,
      "v": 89
    },
    {
      "midi": 59,
      "hit": false,
      "t": 16500,
      "d": 853.125,
      "v": 68
    },
    {
      "midi": 62,
      "hit": false,
      "t": 16500,
      "d": 900,
      "v": 66
    },
    {
      "midi": 65,
      "hit": false,
      "t": 16500,
      "d": 968.75,
      "v": 80
    },
    {
      "midi": 67,
      "hit": false,
      "t": 16500,
      "d": 1300,
      "v": 76
    },
    {
      "midi": 59,
      "hit": false,
      "t": 17437.5,
      "d": 212.5,
      "v": 80
    },
    {
      "midi": 62,
      "hit": false,
      "t": 17625,
      "d": 106.25,
      "v": 98
    },
    {
      "midi": 59,
      "hit": false,
      "t": 18000,
      "d": 853.125,
      "v": 68
    },
    {
      "midi": 62,
      "hit": false,
      "t": 18000,
      "d": 900,
      "v": 66
    },
    {
      "midi": 65,
      "hit": false,
      "t": 18000,
      "d": 968.75,
      "v": 80
    },
    {
      "midi": 67,
      "hit": false,
      "t": 18000,
      "d": 1300,
      "v": 76
    },
    {
      "midi": 59,
      "hit": false,
      "t": 18937.5,
      "d": 212.5,
      "v": 80
    },
    {
      "midi": 62,
      "hit": false,
      "t": 19125,
      "d": 106.25,
      "v": 98
    },
    {
      "midi": 55,
      "hit": false,
      "t": 19500,
      "d": 340.625,
      "v": 70
    },
    {
      "midi": 67,
      "hit": false,
      "t": 19500,
      "d": 743.75,
      "v": 63
    },
    {
      "midi": 63,
      "hit": false,
      "t": 19500,
      "d": 750,
      "v": 74
    },
    {
      "midi": 55,
      "hit": false,
      "t": 19875,
      "d": 375,
      "v": 68
    },
    {
      "midi": 60,
      "hit": false,
      "t": 20062.5,
      "d": 162.5,
      "v": 70
    },
    {
      "midi": 59,
      "hit": false,
      "t": 20250,
      "d": 746.875,
      "v": 64
    },
    {
      "midi": 62,
      "hit": false,
      "t": 20437.5,
      "d": 537.5,
      "v": 57
    },
    {
      "midi": 65,
      "hit": false,
      "t": 20625,
      "d": 321.875,
      "v": 38
    },
    {
      "midi": 67,
      "hit": false,
      "t": 20812.5,
      "d": 134.375,
      "v": 40
    },
    {
      "midi": 55,
      "hit": false,
      "t": 21187.5,
      "d": 96.875,
      "v": 76
    },
    {
      "midi": 60,
      "hit": false,
      "t": 21187.5,
      "d": 96.875,
      "v": 76
    },
    {
      "midi": 63,
      "hit": false,
      "t": 21187.5,
      "d": 96.875,
      "v": 76
    },
    {
      "midi": 55,
      "hit": false,
      "t": 21750,
      "d": 712.5,
      "v": 57
    },
    {
      "midi": 59,
      "hit": false,
      "t": 21750,
      "d": 734.375,
      "v": 60
    },
    {
      "midi": 65,
      "hit": false,
      "t": 21750,
      "d": 734.375,
      "v": 72
    },
    {
      "midi": 67,
      "hit": false,
      "t": 21750,
      "d": 734.375,
      "v": 68
    },
    {
      "midi": 43,
      "hit": false,
      "t": 21750,
      "d": 750,
      "v": 45
    },
    {
      "midi": 48,
      "hit": false,
      "t": 22500,
      "d": 375,
      "v": 45
    },
    {
      "midi": 55,
      "hit": false,
      "t": 22500,
      "d": 375,
      "v": 57
    },
    {
      "midi": 60,
      "hit": false,
      "t": 22500,
      "d": 375,
      "v": 60
    },
    {
      "midi": 67,
      "hit": false,
      "t": 22500,
      "d": 375,
      "v": 72
    },
    {
      "midi": 44,
      "hit": false,
      "t": 23062.5,
      "d": 556.25,
      "v": 45
    },
    {
      "midi": 60,
      "hit": false,
      "t": 23062.5,
      "d": 556.25,
      "v": 57
    },
    {
      "midi": 63,
      "hit": false,
      "t": 23062.5,
      "d": 556.25,
      "v": 60
    },
    {
      "midi": 72,
      "hit": false,
      "t": 23062.5,
      "d": 556.25,
      "v": 72
    },
    {
      "midi": 55,
      "hit": false,
      "t": 23625,
      "d": 375,
      "v": 57
    },
    {
      "midi": 59,
      "hit": false,
      "t": 23625,
      "d": 375,
      "v": 60
    },
    {
      "midi": 62,
      "hit": false,
      "t": 23625,
      "d": 375,
      "v": 72
    },
    {
      "midi": 56,
      "hit": false,
      "t": 25687.5,
      "d": 459.375,
      "v": 57
    },
    {
      "midi": 65,
      "hit": false,
      "t": 25875,
      "d": 278.125,
      "v": 85
    },
    {
      "midi": 58,
      "hit": false,
      "t": 26250,
      "d": 125,
      "v": 68
    },
    {
      "midi": 62,
      "hit": false,
      "t": 26250,
      "d": 125,
      "v": 68
    },
    {
      "midi": 65,
      "hit": false,
      "t": 26250,
      "d": 125,
      "v": 68
    },
    {
      "midi": 56,
      "hit": false,
      "t": 26437.5,
      "d": 475,
      "v": 82
    },
    {
      "midi": 60,
      "hit": false,
      "t": 26437.5,
      "d": 475,
      "v": 82
    },
    {
      "midi": 65,
      "hit": false,
      "t": 26437.5,
      "d": 475,
      "v": 82
    },
    {
      "midi": 59,
      "hit": false,
      "t": 27187.5,
      "d": 784.375,
      "v": 49
    },
    {
      "midi": 62,
      "hit": false,
      "t": 27187.5,
      "d": 834.375,
      "v": 57
    },
    {
      "midi": 65,
      "hit": false,
      "t": 27187.5,
      "d": 918.75,
      "v": 70
    },
    {
      "midi": 67,
      "hit": false,
      "t": 27187.5,
      "d": 1303.125,
      "v": 68
    },
    {
      "midi": 43,
      "hit": false,
      "t": 27187.5,
      "d": 1312.5,
      "v": 62
    },
    {
      "midi": 55,
      "hit": false,
      "t": 27937.5,
      "d": 528.125,
      "v": 80
    },
    {
      "midi": 59,
      "hit": false,
      "t": 28031.25,
      "d": 421.875,
      "v": 74
    },
    {
      "midi": 62,
      "hit": false,
      "t": 28218.75,
      "d": 234.375,
      "v": 74
    },
    {
      "midi": 65,
      "hit": false,
      "t": 28312.5,
      "d": 96.875,
      "v": 100
    },
    {
      "midi": 56,
      "hit": false,
      "t": 28500,
      "d": 340.625,
      "v": 70
    },
    {
      "midi": 68,
      "hit": false,
      "t": 28500,
      "d": 743.75,
      "v": 63
    },
    {
      "midi": 65,
      "hit": false,
      "t": 28500,
      "d": 750,
      "v": 74
    },
    {
      "midi": 56,
      "hit": false,
      "t": 28875,
      "d": 375,
      "v": 68
    },
    {
      "midi": 60,
      "hit": false,
      "t": 29062.5,
      "d": 162.5,
      "v": 70
    },
    {
      "midi": 57,
      "hit": false,
      "t": 29250,
      "d": 746.875,
      "v": 64
    },
    {
      "midi": 60,
      "hit": false,
      "t": 29437.5,
      "d": 537.5,
      "v": 57
    },
    {
      "midi": 65,
      "hit": false,
      "t": 29625,
      "d": 321.875,
      "v": 38
    },
    {
      "midi": 69,
      "hit": false,
      "t": 29812.5,
      "d": 134.375,
      "v": 40
    },
    {
      "midi": 55,
      "hit": false,
      "t": 30000,
      "d": 712.5,
      "v": 57
    },
    {
      "midi": 59,
      "hit": false,
      "t": 30000,
      "d": 734.375,
      "v": 60
    },
    {
      "midi": 65,
      "hit": false,
      "t": 30000,
      "d": 734.375,
      "v": 72
    },
    {
      "midi": 67,
      "hit": false,
      "t": 30000,
      "d": 734.375,
      "v": 68
    },
    {
      "midi": 43,
      "hit": false,
      "t": 30000,
      "d": 750,
      "v": 45
    },
    {
      "midi": 55,
      "hit": false,
      "t": 30937.5,
      "d": 96.875,
      "v": 76
    },
    {
      "midi": 60,
      "hit": false,
      "t": 30937.5,
      "d": 96.875,
      "v": 76
    },
    {
      "midi": 63,
      "hit": false,
      "t": 30937.5,
      "d": 96.875,
      "v": 76
    },
    {
      "midi": 56,
      "hit": false,
      "t": 31500,
      "d": 712.5,
      "v": 57
    },
    {
      "midi": 60,
      "hit": false,
      "t": 31500,
      "d": 734.375,
      "v": 60
    },
    {
      "midi": 68,
      "hit": false,
      "t": 31500,
      "d": 734.375,
      "v": 72
    },
    {
      "midi": 41,
      "hit": false,
      "t": 31500,
      "d": 750,
      "v": 45
    },
    {
      "midi": 57,
      "hit": false,
      "t": 32250,
      "d": 712.5,
      "v": 57
    },
    {
      "midi": 60,
      "hit": false,
      "t": 32250,
      "d": 734.375,
      "v": 60
    },
    {
      "midi": 69,
      "hit": false,
      "t": 32250,
      "d": 734.375,
      "v": 72
    },
    {
      "midi": 41,
      "hit": false,
      "t": 32250,
      "d": 750,
      "v": 45
    },
    {
      "midi": 59,
      "hit": false,
      "t": 33000,
      "d": 340.625,
      "v": 70
    },
    {
      "midi": 67,
      "hit": false,
      "t": 33000,
      "d": 743.75,
      "v": 63
    },
    {
      "midi": 65,
      "hit": false,
      "t": 33000,
      "d": 750,
      "v": 74
    },
    {
      "midi": 59,
      "hit": false,
      "t": 33375,
      "d": 375,
      "v": 68
    },
    {
      "midi": 62,
      "hit": false,
      "t": 33562.5,
      "d": 162.5,
      "v": 70
    },
    {
      "midi": 55,
      "hit": false,
      "t": 33750,
      "d": 340.625,
      "v": 70
    },
    {
      "midi": 67,
      "hit": false,
      "t": 33750,
      "d": 743.75,
      "v": 63
    },
    {
      "midi": 63,
      "hit": false,
      "t": 33750,
      "d": 750,
      "v": 74
    },
    {
      "midi": 55,
      "hit": false,
      "t": 34125,
      "d": 375,
      "v": 68
    },
    {
      "midi": 60,
      "hit": false,
      "t": 34312.5,
      "d": 162.5,
      "v": 70
    },
    {
      "midi": 56,
      "hit": false,
      "t": 34687.5,
      "d": 459.375,
      "v": 57
    },
    {
      "midi": 62,
      "hit": false,
      "t": 34875,
      "d": 278.125,
      "v": 85
    },
    {
      "midi": 62,
      "hit": false,
      "t": 35250,
      "d": 125,
      "v": 68
    },
    {
      "midi": 65,
      "hit": false,
      "t": 35250,
      "d": 125,
      "v": 68
    },
    {
      "midi": 70,
      "hit": false,
      "t": 35250,
      "d": 125,
      "v": 68
    },
    {
      "midi": 60,
      "hit": false,
      "t": 35437.5,
      "d": 475,
      "v": 82
    },
    {
      "midi": 62,
      "hit": false,
      "t": 35437.5,
      "d": 475,
      "v": 82
    },
    {
      "midi": 65,
      "hit": false,
      "t": 35437.5,
      "d": 475,
      "v": 82
    },
    {
      "midi": 68,
      "hit": false,
      "t": 35437.5,
      "d": 475,
      "v": 82
    },
    {
      "midi": 55,
      "hit": false,
      "t": 36187.5,
      "d": 459.375,
      "v": 57
    },
    {
      "midi": 63,
      "hit": false,
      "t": 36375,
      "d": 278.125,
      "v": 85
    },
    {
      "midi": 56,
      "hit": false,
      "t": 36750,
      "d": 125,
      "v": 68
    },
    {
      "midi": 60,
      "hit": false,
      "t": 36750,
      "d": 125,
      "v": 68
    },
    {
      "midi": 65,
      "hit": false,
      "t": 36750,
      "d": 125,
      "v": 68
    },
    {
      "midi": 55,
      "hit": false,
      "t": 36937.5,
      "d": 475,
      "v": 82
    },
    {
      "midi": 60,
      "hit": false,
      "t": 36937.5,
      "d": 475,
      "v": 82
    },
    {
      "midi": 63,
      "hit": false,
      "t": 36937.5,
      "d": 475,
      "v": 82
    },
    {
      "midi": 55,
      "hit": false,
      "t": 37500,
      "d": 712.5,
      "v": 57
    },
    {
      "midi": 59,
      "hit": false,
      "t": 37500,
      "d": 734.375,
      "v": 60
    },
    {
      "midi": 65,
      "hit": false,
      "t": 37500,
      "d": 734.375,
      "v": 72
    },
    {
      "midi": 67,
      "hit": false,
      "t": 37500,
      "d": 734.375,
      "v": 68
    },
    {
      "midi": 36,
      "hit": false,
      "t": 37500,
      "d": 750,
      "v": 45
    },
    {
      "midi": 55,
      "hit": false,
      "t": 38250,
      "d": 712.5,
      "v": 57
    },
    {
      "midi": 58,
      "hit": false,
      "t": 38250,
      "d": 734.375,
      "v": 60
    },
    {
      "midi": 64,
      "hit": false,
      "t": 38250,
      "d": 734.375,
      "v": 72
    },
    {
      "midi": 67,
      "hit": false,
      "t": 38250,
      "d": 734.375,
      "v": 68
    },
    {
      "midi": 48,
      "hit": false,
      "t": 38250,
      "d": 750,
      "v": 45
    },
    {
      "midi": 56,
      "hit": false,
      "t": 39000,
      "d": 746.875,
      "v": 64
    },
    {
      "midi": 60,
      "hit": false,
      "t": 39187.5,
      "d": 537.5,
      "v": 57
    },
    {
      "midi": 65,
      "hit": false,
      "t": 39375,
      "d": 321.875,
      "v": 38
    },
    {
      "midi": 68,
      "hit": false,
      "t": 39562.5,
      "d": 134.375,
      "v": 40
    },
    {
      "midi": 58,
      "hit": false,
      "t": 39937.5,
      "d": 96.875,
      "v": 76
    },
    {
      "midi": 60,
      "hit": false,
      "t": 39937.5,
      "d": 96.875,
      "v": 76
    },
    {
      "midi": 64,
      "hit": false,
      "t": 39937.5,
      "d": 96.875,
      "v": 76
    },
    {
      "midi": 67,
      "hit": false,
      "t": 39937.5,
      "d": 96.875,
      "v": 76
    },
    {
      "midi": 56,
      "hit": false,
      "t": 40500,
      "d": 340.625,
      "v": 70
    },
    {
      "midi": 68,
      "hit": false,
      "t": 40500,
      "d": 743.75,
      "v": 63
    },
    {
      "midi": 65,
      "hit": false,
      "t": 40500,
      "d": 750,
      "v": 74
    },
    {
      "midi": 56,
      "hit": false,
      "t": 40875,
      "d": 375,
      "v": 68
    },
    {
      "midi": 60,
      "hit": false,
      "t": 41062.5,
      "d": 162.5,
      "v": 70
    },
    {
      "midi": 59,
      "hit": false,
      "t": 41437.5,
      "d": 96.875,
      "v": 76
    },
    {
      "midi": 62,
      "hit": false,
      "t": 41437.5,
      "d": 96.875,
      "v": 76
    },
    {
      "midi": 65,
      "hit": false,
      "t": 41437.5,
      "d": 96.875,
      "v": 76
    },
    {
      "midi": 67,
      "hit": false,
      "t": 41437.5,
      "d": 96.875,
      "v": 76
    },
    {
      "midi": 59,
      "hit": false,
      "t": 42187.5,
      "d": 96.875,
      "v": 76
    },
    {
      "midi": 62,
      "hit": false,
      "t": 42187.5,
      "d": 96.875,
      "v": 76
    },
    {
      "midi": 65,
      "hit": false,
      "t": 42187.5,
      "d": 96.875,
      "v": 76
    },
    {
      "midi": 67,
      "hit": false,
      "t": 42187.5,
      "d": 96.875,
      "v": 76
    },
    {
      "midi": 60,
      "hit": false,
      "t": 42750,
      "d": 831.25,
      "v": 55
    },
    {
      "midi": 48,
      "hit": false,
      "t": 42750,
      "d": 1346.875,
      "v": 66
    },
    {
      "midi": 63,
      "hit": false,
      "t": 42937.5,
      "d": 834.375,
      "v": 70
    },
    {
      "midi": 67,
      "hit": false,
      "t": 43125,
      "d": 418.75,
      "v": 72
    },
    {
      "midi": 55,
      "hit": false,
      "t": 43312.5,
      "d": 781.25,
      "v": 70
    },
    {
      "midi": 60,
      "hit": false,
      "t": 43687.5,
      "d": 381.25,
      "v": 70
    },
    {
      "midi": 63,
      "hit": false,
      "t": 43875,
      "d": 143.75,
      "v": 82
    },
    {
      "midi": 57,
      "hit": false,
      "t": 44250,
      "d": 853.125,
      "v": 68
    },
    {
      "midi": 60,
      "hit": false,
      "t": 44250,
      "d": 900,
      "v": 66
    },
    {
      "midi": 63,
      "hit": false,
      "t": 44250,
      "d": 968.75,
      "v": 80
    },
    {
      "midi": 65,
      "hit": false,
      "t": 44250,
      "d": 1300,
      "v": 76
    },
    {
      "midi": 57,
      "hit": false,
      "t": 45187.5,
      "d": 212.5,
      "v": 80
    },
    {
      "midi": 60,
      "hit": false,
      "t": 45375,
      "d": 106.25,
      "v": 98
    },
    {
      "midi": 55,
      "hit": false,
      "t": 45750,
      "d": 731.25,
      "v": 63
    },
    {
      "midi": 60,
      "hit": false,
      "t": 45750,
      "d": 793.75,
      "v": 63
    },
    {
      "midi": 63,
      "hit": false,
      "t": 45750,
      "d": 800,
      "v": 72
    },
    {
      "midi": 67,
      "hit": false,
      "t": 45750,
      "d": 1021.875,
      "v": 72
    },
    {
      "midi": 48,
      "hit": false,
      "t": 45750,
      "d": 1400,
      "v": 68
    },
    {
      "midi": 60,
      "hit": false,
      "t": 46687.5,
      "d": 56.25,
      "v": 58
    },
    {
      "midi": 63,
      "hit": false,
      "t": 46687.5,
      "d": 59.375,
      "v": 72
    },
    {
      "midi": 60,
      "hit": false,
      "t": 46875,
      "d": 56.25,
      "v": 82
    },
    {
      "midi": 63,
      "hit": false,
      "t": 46875,
      "d": 62.5,
      "v": 80
    },
    {
      "midi": 67,
      "hit": false,
      "t": 46875,
      "d": 115.625,
      "v": 62
    },
    {
      "midi": 60,
      "hit": false,
      "t": 47062.5,
      "d": 53.125,
      "v": 68
    },
    {
      "midi": 63,
      "hit": false,
      "t": 47062.5,
      "d": 62.5,
      "v": 70
    },
    {
      "midi": 67,
      "hit": false,
      "t": 47062.5,
      "d": 68.75,
      "v": 61
    },
    {
      "midi": 60,
      "hit": false,
      "t": 47625,
      "d": 240.625,
      "v": 66
    },
    {
      "midi": 63,
      "hit": false,
      "t": 47625,
      "d": 240.625,
      "v": 66
    },
    {
      "midi": 65,
      "hit": false,
      "t": 47625,
      "d": 240.625,
      "v": 66
    },
    {
      "midi": 69,
      "hit": false,
      "t": 47625,
      "d": 240.625,
      "v": 66
    },
    {
      "midi": 62,
      "hit": false,
      "t": 48000,
      "d": 128.125,
      "v": 85
    },
    {
      "midi": 65,
      "hit": false,
      "t": 48000,
      "d": 128.125,
      "v": 85
    },
    {
      "midi": 70,
      "hit": false,
      "t": 48000,
      "d": 128.125,
      "v": 85
    },
    {
      "midi": 60,
      "hit": false,
      "t": 48187.5,
      "d": 75,
      "v": 80
    },
    {
      "midi": 63,
      "hit": false,
      "t": 48187.5,
      "d": 75,
      "v": 80
    },
    {
      "midi": 65,
      "hit": false,
      "t": 48187.5,
      "d": 75,
      "v": 80
    },
    {
      "midi": 69,
      "hit": false,
      "t": 48187.5,
      "d": 75,
      "v": 80
    },
    {
      "midi": 63,
      "hit": false,
      "t": 49125,
      "d": 78.125,
      "v": 83
    },
    {
      "midi": 51,
      "hit": false,
      "t": 49125,
      "d": 96.875,
      "v": 72
    },
    {
      "midi": 60,
      "hit": false,
      "t": 49125,
      "d": 96.875,
      "v": 74
    },
    {
      "midi": 60,
      "hit": false,
      "t": 49687.5,
      "d": 65.625,
      "v": 77
    },
    {
      "midi": 51,
      "hit": false,
      "t": 49687.5,
      "d": 71.875,
      "v": 74
    },
    {
      "midi": 63,
      "hit": false,
      "t": 49687.5,
      "d": 78.125,
      "v": 85
    },
    {
      "midi": 51,
      "hit": false,
      "t": 50625,
      "d": 112.5,
      "v": 62
    },
    {
      "midi": 60,
      "hit": false,
      "t": 50625,
      "d": 112.5,
      "v": 74
    },
    {
      "midi": 67,
      "hit": false,
      "t": 50625,
      "d": 134.375,
      "v": 87
    },
    {
      "midi": 51,
      "hit": false,
      "t": 51000,
      "d": 140.625,
      "v": 58
    },
    {
      "midi": 60,
      "hit": false,
      "t": 51000,
      "d": 146.875,
      "v": 58
    },
    {
      "midi": 63,
      "hit": false,
      "t": 51000,
      "d": 159.375,
      "v": 79
    },
    {
      "midi": 60,
      "hit": false,
      "t": 51187.5,
      "d": 53.125,
      "v": 62
    },
    {
      "midi": 51,
      "hit": false,
      "t": 51187.5,
      "d": 68.75,
      "v": 66
    },
    {
      "midi": 63,
      "hit": false,
      "t": 51187.5,
      "d": 68.75,
      "v": 47
    },
    {
      "midi": 62,
      "hit": false,
      "t": 52125,
      "d": 75,
      "v": 78
    },
    {
      "midi": 58,
      "hit": false,
      "t": 52125,
      "d": 87.5,
      "v": 71
    },
    {
      "midi": 50,
      "hit": false,
      "t": 52125,
      "d": 103.125,
      "v": 73
    },
    {
      "midi": 62,
      "hit": false,
      "t": 52687.5,
      "d": 50,
      "v": 75
    },
    {
      "midi": 58,
      "hit": false,
      "t": 52687.5,
      "d": 59.375,
      "v": 78
    },
    {
      "midi": 65,
      "hit": false,
      "t": 52687.5,
      "d": 68.75,
      "v": 73
    },
    {
      "midi": 46,
      "hit": false,
      "t": 52687.5,
      "d": 96.875,
      "v": 75
    },
    {
      "midi": 46,
      "hit": false,
      "t": 53437.5,
      "d": 303.125,
      "v": 55
    },
    {
      "midi": 58,
      "hit": false,
      "t": 53625,
      "d": 115.625,
      "v": 59
    },
    {
      "midi": 62,
      "hit": false,
      "t": 53625,
      "d": 115.625,
      "v": 82
    },
    {
      "midi": 46,
      "hit": false,
      "t": 53812.5,
      "d": 484.375,
      "v": 61
    },
    {
      "midi": 58,
      "hit": false,
      "t": 54000,
      "d": 118.75,
      "v": 61
    },
    {
      "midi": 62,
      "hit": false,
      "t": 54000,
      "d": 140.625,
      "v": 73
    },
    {
      "midi": 58,
      "hit": false,
      "t": 54187.5,
      "d": 75,
      "v": 59
    },
    {
      "midi": 62,
      "hit": false,
      "t": 54187.5,
      "d": 81.25,
      "v": 84
    },
    {
      "midi": 68,
      "hit": false,
      "t": 55125,
      "d": 75,
      "v": 78
    },
    {
      "midi": 63,
      "hit": false,
      "t": 55125,
      "d": 87.5,
      "v": 71
    },
    {
      "midi": 56,
      "hit": false,
      "t": 55125,
      "d": 103.125,
      "v": 73
    },
    {
      "midi": 68,
      "hit": false,
      "t": 55687.5,
      "d": 50,
      "v": 75
    },
    {
      "midi": 63,
      "hit": false,
      "t": 55687.5,
      "d": 59.375,
      "v": 78
    },
    {
      "midi": 72,
      "hit": false,
      "t": 55687.5,
      "d": 68.75,
      "v": 73
    },
    {
      "midi": 44,
      "hit": false,
      "t": 55687.5,
      "d": 96.875,
      "v": 75
    },
    {
      "midi": 44,
      "hit": false,
      "t": 56437.5,
      "d": 303.125,
      "v": 55
    },
    {
      "midi": 63,
      "hit": false,
      "t": 56625,
      "d": 115.625,
      "v": 59
    },
    {
      "midi": 68,
      "hit": false,
      "t": 56625,
      "d": 115.625,
      "v": 82
    },
    {
      "midi": 44,
      "hit": false,
      "t": 56812.5,
      "d": 484.375,
      "v": 61
    },
    {
      "midi": 63,
      "hit": false,
      "t": 57000,
      "d": 118.75,
      "v": 61
    },
    {
      "midi": 68,
      "hit": false,
      "t": 57000,
      "d": 140.625,
      "v": 73
    },
    {
      "midi": 63,
      "hit": false,
      "t": 57187.5,
      "d": 75,
      "v": 59
    },
    {
      "midi": 68,
      "hit": false,
      "t": 57187.5,
      "d": 81.25,
      "v": 84
    },
    {
      "midi": 55,
      "hit": false,
      "t": 58125,
      "d": 109.375,
      "v": 62
    },
    {
      "midi": 62,
      "hit": false,
      "t": 58125,
      "d": 131.25,
      "v": 83
    },
    {
      "midi": 67,
      "hit": false,
      "t": 58687.5,
      "d": 75,
      "v": 83
    },
    {
      "midi": 62,
      "hit": false,
      "t": 58687.5,
      "d": 96.875,
      "v": 70
    },
    {
      "midi": 79,
      "hit": false,
      "t": 58687.5,
      "d": 103.125,
      "v": 87
    },
    {
      "midi": 55,
      "hit": false,
      "t": 58687.5,
      "d": 106.25,
      "v": 72
    },
    {
      "midi": 55,
      "hit": false,
      "t": 59437.5,
      "d": 225,
      "v": 72
    },
    {
      "midi": 62,
      "hit": false,
      "t": 59625,
      "d": 112.5,
      "v": 70
    },
    {
      "midi": 55,
      "hit": false,
      "t": 59812.5,
      "d": 65.625,
      "v": 52
    },
    {
      "midi": 55,
      "hit": false,
      "t": 60000,
      "d": 128.125,
      "v": 68
    },
    {
      "midi": 62,
      "hit": false,
      "t": 60000,
      "d": 156.25,
      "v": 68
    },
    {
      "midi": 67,
      "hit": false,
      "t": 60000,
      "d": 206.25,
      "v": 89
    },
    {
      "midi": 55,
      "hit": false,
      "t": 60187.5,
      "d": 87.5,
      "v": 60
    },
    {
      "midi": 62,
      "hit": false,
      "t": 60187.5,
      "d": 112.5,
      "v": 76
    },
    {
      "midi": 55,
      "hit": false,
      "t": 60375,
      "d": 159.375,
      "v": 51
    },
    {
      "midi": 62,
      "hit": false,
      "t": 60562.5,
      "d": 81.25,
      "v": 68
    },
    {
      "midi": 60,
      "hit": false,
      "t": 61125,
      "d": 56.25,
      "v": 80
    },
    {
      "midi": 55,
      "hit": false,
      "t": 61125,
      "d": 71.875,
      "v": 65
    },
    {
      "midi": 63,
      "hit": false,
      "t": 61125,
      "d": 103.125,
      "v": 74
    },
    {
      "midi": 55,
      "hit": false,
      "t": 61687.5,
      "d": 59.375,
      "v": 63
    },
    {
      "midi": 60,
      "hit": false,
      "t": 61687.5,
      "d": 62.5,
      "v": 76
    },
    {
      "midi": 63,
      "hit": false,
      "t": 61687.5,
      "d": 84.375,
      "v": 78
    },
    {
      "midi": 48,
      "hit": false,
      "t": 62437.5,
      "d": 246.875,
      "v": 57
    },
    {
      "midi": 63,
      "hit": false,
      "t": 62625,
      "d": 81.25,
      "v": 76
    },
    {
      "midi": 55,
      "hit": false,
      "t": 62625,
      "d": 100,
      "v": 67
    },
    {
      "midi": 60,
      "hit": false,
      "t": 62625,
      "d": 106.25,
      "v": 76
    },
    {
      "midi": 48,
      "hit": false,
      "t": 62812.5,
      "d": 268.75,
      "v": 53
    },
    {
      "midi": 60,
      "hit": false,
      "t": 63000,
      "d": 81.25,
      "v": 49
    },
    {
      "midi": 55,
      "hit": false,
      "t": 63187.5,
      "d": 84.375,
      "v": 76
    },
    {
      "midi": 60,
      "hit": false,
      "t": 63187.5,
      "d": 90.625,
      "v": 89
    },
    {
      "midi": 63,
      "hit": false,
      "t": 63187.5,
      "d": 109.375,
      "v": 84
    },
    {
      "midi": 53,
      "hit": false,
      "t": 63750,
      "d": 306.25,
      "v": 60
    },
    {
      "midi": 65,
      "hit": false,
      "t": 63750,
      "d": 343.75,
      "v": 82
    },
    {
      "midi": 58,
      "hit": false,
      "t": 63750,
      "d": 346.875,
      "v": 64
    },
    {
      "midi": 46,
      "hit": false,
      "t": 63750,
      "d": 481.25,
      "v": 80
    },
    {
      "midi": 53,
      "hit": false,
      "t": 64125,
      "d": 78.125,
      "v": 82
    },
    {
      "midi": 65,
      "hit": false,
      "t": 64125,
      "d": 93.75,
      "v": 87
    },
    {
      "midi": 58,
      "hit": false,
      "t": 64125,
      "d": 96.875,
      "v": 76
    },
    {
      "midi": 53,
      "hit": false,
      "t": 64687.5,
      "d": 65.625,
      "v": 51
    },
    {
      "midi": 58,
      "hit": false,
      "t": 64687.5,
      "d": 78.125,
      "v": 74
    },
    {
      "midi": 46,
      "hit": false,
      "t": 64687.5,
      "d": 93.75,
      "v": 72
    },
    {
      "midi": 65,
      "hit": false,
      "t": 64687.5,
      "d": 109.375,
      "v": 87
    },
    {
      "midi": 53,
      "hit": false,
      "t": 65437.5,
      "d": 100,
      "v": 44
    },
    {
      "midi": 58,
      "hit": false,
      "t": 65437.5,
      "d": 112.5,
      "v": 57
    },
    {
      "midi": 65,
      "hit": false,
      "t": 65437.5,
      "d": 159.375,
      "v": 63
    },
    {
      "midi": 65,
      "hit": false,
      "t": 65625,
      "d": 40.625,
      "v": 39
    },
    {
      "midi": 53,
      "hit": false,
      "t": 65625,
      "d": 112.5,
      "v": 74
    },
    {
      "midi": 58,
      "hit": false,
      "t": 65625,
      "d": 131.25,
      "v": 70
    },
    {
      "midi": 46,
      "hit": false,
      "t": 65812.5,
      "d": 84.375,
      "v": 66
    },
    {
      "midi": 53,
      "hit": false,
      "t": 66000,
      "d": 150,
      "v": 66
    },
    {
      "midi": 58,
      "hit": false,
      "t": 66000,
      "d": 150,
      "v": 68
    },
    {
      "midi": 65,
      "hit": false,
      "t": 66000,
      "d": 262.5,
      "v": 78
    },
    {
      "midi": 53,
      "hit": false,
      "t": 66187.5,
      "d": 81.25,
      "v": 80
    },
    {
      "midi": 58,
      "hit": false,
      "t": 66187.5,
      "d": 81.25,
      "v": 80
    },
    {
      "midi": 60,
      "hit": false,
      "t": 66750,
      "d": 306.25,
      "v": 60
    },
    {
      "midi": 72,
      "hit": false,
      "t": 66750,
      "d": 343.75,
      "v": 82
    },
    {
      "midi": 63,
      "hit": false,
      "t": 66750,
      "d": 346.875,
      "v": 64
    },
    {
      "midi": 44,
      "hit": false,
      "t": 66750,
      "d": 481.25,
      "v": 80
    },
    {
      "midi": 60,
      "hit": false,
      "t": 67125,
      "d": 78.125,
      "v": 82
    },
    {
      "midi": 72,
      "hit": false,
      "t": 67125,
      "d": 93.75,
      "v": 87
    },
    {
      "midi": 63,
      "hit": false,
      "t": 67125,
      "d": 96.875,
      "v": 76
    },
    {
      "midi": 60,
      "hit": false,
      "t": 67687.5,
      "d": 65.625,
      "v": 51
    },
    {
      "midi": 63,
      "hit": false,
      "t": 67687.5,
      "d": 78.125,
      "v": 74
    },
    {
      "midi": 44,
      "hit": false,
      "t": 67687.5,
      "d": 93.75,
      "v": 72
    },
    {
      "midi": 72,
      "hit": false,
      "t": 67687.5,
      "d": 109.375,
      "v": 87
    },
    {
      "midi": 60,
      "hit": false,
      "t": 68437.5,
      "d": 100,
      "v": 44
    },
    {
      "midi": 63,
      "hit": false,
      "t": 68437.5,
      "d": 112.5,
      "v": 57
    },
    {
      "midi": 72,
      "hit": false,
      "t": 68437.5,
      "d": 159.375,
      "v": 63
    },
    {
      "midi": 72,
      "hit": false,
      "t": 68625,
      "d": 40.625,
      "v": 39
    },
    {
      "midi": 60,
      "hit": false,
      "t": 68625,
      "d": 112.5,
      "v": 74
    },
    {
      "midi": 63,
      "hit": false,
      "t": 68625,
      "d": 131.25,
      "v": 70
    },
    {
      "midi": 44,
      "hit": false,
      "t": 68812.5,
      "d": 84.375,
      "v": 66
    },
    {
      "midi": 60,
      "hit": false,
      "t": 69000,
      "d": 150,
      "v": 66
    },
    {
      "midi": 63,
      "hit": false,
      "t": 69000,
      "d": 150,
      "v": 68
    },
    {
      "midi": 72,
      "hit": false,
      "t": 69000,
      "d": 262.5,
      "v": 78
    },
    {
      "midi": 60,
      "hit": false,
      "t": 69187.5,
      "d": 81.25,
      "v": 80
    },
    {
      "midi": 63,
      "hit": false,
      "t": 69187.5,
      "d": 81.25,
      "v": 80
    },
    {
      "midi": 43,
      "hit": false,
      "t": 69937.5,
      "d": 159.375,
      "v": 53
    },
    {
      "midi": 59,
      "hit": false,
      "t": 70031.25,
      "d": 43.75,
      "v": 70
    },
    {
      "midi": 62,
      "hit": false,
      "t": 70125,
      "d": 134.375,
      "v": 80
    },
    {
      "midi": 71,
      "hit": false,
      "t": 70125,
      "d": 134.375,
      "v": 89
    },
    {
      "midi": 59,
      "hit": false,
      "t": 70687.5,
      "d": 56.25,
      "v": 57
    },
    {
      "midi": 62,
      "hit": false,
      "t": 70687.5,
      "d": 81.25,
      "v": 82
    },
    {
      "midi": 59,
      "hit": false,
      "t": 71437.5,
      "d": 165.625,
      "v": 63
    },
    {
      "midi": 62,
      "hit": false,
      "t": 71625,
      "d": 71.875,
      "v": 78
    },
    {
      "midi": 59,
      "hit": false,
      "t": 71625,
      "d": 115.625,
      "v": 70
    },
    {
      "midi": 71,
      "hit": false,
      "t": 71625,
      "d": 115.625,
      "v": 87
    },
    {
      "midi": 43,
      "hit": false,
      "t": 71812.5,
      "d": 125,
      "v": 51
    },
    {
      "midi": 59,
      "hit": false,
      "t": 72000,
      "d": 146.875,
      "v": 66
    },
    {
      "midi": 62,
      "hit": false,
      "t": 72000,
      "d": 146.875,
      "v": 68
    },
    {
      "midi": 62,
      "hit": false,
      "t": 72187.5,
      "d": 87.5,
      "v": 82
    },
    {
      "midi": 59,
      "hit": false,
      "t": 72187.5,
      "d": 90.625,
      "v": 85
    },
    {
      "midi": 55,
      "hit": false,
      "t": 72750,
      "d": 2365.625,
      "v": 52
    },
    {
      "midi": 63,
      "hit": false,
      "t": 72750,
      "d": 2578.125,
      "v": 76
    },
    {
      "midi": 67,
      "hit": false,
      "t": 72750,
      "d": 2684.375,
      "v": 72
    },
    {
      "midi": 55,
      "hit": false,
      "t": 75187.5,
      "d": 534.375,
      "v": 82
    },
    {
      "midi": 63,
      "hit": false,
      "t": 75375,
      "d": 346.875,
      "v": 60
    },
    {
      "midi": 67,
      "hit": false,
      "t": 75562.5,
      "d": 165.625,
      "v": 89
    },
    {
      "midi": 59,
      "hit": false,
      "t": 75937.5,
      "d": 784.375,
      "v": 49
    },
    {
      "midi": 62,
      "hit": false,
      "t": 75937.5,
      "d": 834.375,
      "v": 57
    },
    {
      "midi": 65,
      "hit": false,
      "t": 75937.5,
      "d": 918.75,
      "v": 70
    },
    {
      "midi": 67,
      "hit": false,
      "t": 75937.5,
      "d": 1303.125,
      "v": 68
    },
    {
      "midi": 38,
      "hit": false,
      "t": 75937.5,
      "d": 1312.5,
      "v": 62
    },
    {
      "midi": 55,
      "hit": false,
      "t": 76687.5,
      "d": 528.125,
      "v": 80
    },
    {
      "midi": 59,
      "hit": false,
      "t": 76781.25,
      "d": 421.875,
      "v": 74
    },
    {
      "midi": 62,
      "hit": false,
      "t": 76968.75,
      "d": 234.375,
      "v": 74
    },
    {
      "midi": 65,
      "hit": false,
      "t": 77062.5,
      "d": 96.875,
      "v": 100
    },
    {
      "midi": 59,
      "hit": false,
      "t": 77625,
      "d": 240.625,
      "v": 66
    },
    {
      "midi": 62,
      "hit": false,
      "t": 77625,
      "d": 240.625,
      "v": 66
    },
    {
      "midi": 65,
      "hit": false,
      "t": 77625,
      "d": 240.625,
      "v": 66
    },
    {
      "midi": 67,
      "hit": false,
      "t": 77625,
      "d": 240.625,
      "v": 66
    },
    {
      "midi": 60,
      "hit": false,
      "t": 78000,
      "d": 128.125,
      "v": 85
    },
    {
      "midi": 63,
      "hit": false,
      "t": 78000,
      "d": 128.125,
      "v": 85
    },
    {
      "midi": 67,
      "hit": false,
      "t": 78000,
      "d": 128.125,
      "v": 85
    },
    {
      "midi": 59,
      "hit": false,
      "t": 78187.5,
      "d": 75,
      "v": 80
    },
    {
      "midi": 62,
      "hit": false,
      "t": 78187.5,
      "d": 75,
      "v": 80
    },
    {
      "midi": 65,
      "hit": false,
      "t": 78187.5,
      "d": 75,
      "v": 80
    },
    {
      "midi": 67,
      "hit": false,
      "t": 78187.5,
      "d": 75,
      "v": 80
    },
    {
      "midi": 55,
      "hit": false,
      "t": 78750,
      "d": 746.875,
      "v": 64
    },
    {
      "midi": 60,
      "hit": false,
      "t": 78937.5,
      "d": 537.5,
      "v": 57
    },
    {
      "midi": 63,
      "hit": false,
      "t": 79125,
      "d": 321.875,
      "v": 38
    },
    {
      "midi": 67,
      "hit": false,
      "t": 79312.5,
      "d": 134.375,
      "v": 40
    },
    {
      "midi": 59,
      "hit": false,
      "t": 79687.5,
      "d": 96.875,
      "v": 76
    },
    {
      "midi": 62,
      "hit": false,
      "t": 79687.5,
      "d": 96.875,
      "v": 76
    },
    {
      "midi": 65,
      "hit": false,
      "t": 79687.5,
      "d": 96.875,
      "v": 76
    },
    {
      "midi": 67,
      "hit": false,
      "t": 79687.5,
      "d": 96.875,
      "v": 76
    },
    {
      "midi": 55,
      "hit": false,
      "t": 80250,
      "d": 340.625,
      "v": 70
    },
    {
      "midi": 67,
      "hit": false,
      "t": 80250,
      "d": 743.75,
      "v": 63
    },
    {
      "midi": 63,
      "hit": false,
      "t": 80250,
      "d": 750,
      "v": 74
    },
    {
      "midi": 55,
      "hit": false,
      "t": 80625,
      "d": 375,
      "v": 68
    },
    {
      "midi": 60,
      "hit": false,
      "t": 80812.5,
      "d": 162.5,
      "v": 70
    },
    {
      "midi": 59,
      "hit": false,
      "t": 81187.5,
      "d": 96.875,
      "v": 76
    },
    {
      "midi": 62,
      "hit": false,
      "t": 81187.5,
      "d": 96.875,
      "v": 76
    },
    {
      "midi": 65,
      "hit": false,
      "t": 81187.5,
      "d": 96.875,
      "v": 76
    },
    {
      "midi": 67,
      "hit": false,
      "t": 81187.5,
      "d": 96.875,
      "v": 76
    },
    {
      "midi": 48,
      "hit": false,
      "t": 81750,
      "d": 375,
      "v": 45
    },
    {
      "midi": 55,
      "hit": false,
      "t": 81750,
      "d": 375,
      "v": 57
    },
    {
      "midi": 60,
      "hit": false,
      "t": 81750,
      "d": 375,
      "v": 60
    },
    {
      "midi": 67,
      "hit": false,
      "t": 81750,
      "d": 375,
      "v": 72
    },
    {
      "midi": 44,
      "hit": false,
      "t": 82312.5,
      "d": 556.25,
      "v": 45
    },
    {
      "midi": 60,
      "hit": false,
      "t": 82312.5,
      "d": 556.25,
      "v": 57
    },
    {
      "midi": 63,
      "hit": false,
      "t": 82312.5,
      "d": 556.25,
      "v": 60
    },
    {
      "midi": 72,
      "hit": false,
      "t": 82312.5,
      "d": 556.25,
      "v": 72
    },
    {
      "midi": 55,
      "hit": false,
      "t": 82875,
      "d": 375,
      "v": 57
    },
    {
      "midi": 59,
      "hit": false,
      "t": 82875,
      "d": 375,
      "v": 60
    },
    {
      "midi": 62,
      "hit": false,
      "t": 82875,
      "d": 375,
      "v": 72
    },
    {
      "midi": 56,
      "hit": false,
      "t": 84750,
      "d": 731.25,
      "v": 63
    },
    {
      "midi": 60,
      "hit": false,
      "t": 84750,
      "d": 793.75,
      "v": 63
    },
    {
      "midi": 65,
      "hit": false,
      "t": 84750,
      "d": 800,
      "v": 72
    },
    {
      "midi": 68,
      "hit": false,
      "t": 84750,
      "d": 1021.875,
      "v": 72
    },
    {
      "midi": 41,
      "hit": false,
      "t": 84750,
      "d": 1400,
      "v": 68
    },
    {
      "midi": 60,
      "hit": false,
      "t": 85687.5,
      "d": 56.25,
      "v": 58
    },
    {
      "midi": 65,
      "hit": false,
      "t": 85687.5,
      "d": 59.375,
      "v": 72
    },
    {
      "midi": 60,
      "hit": false,
      "t": 85875,
      "d": 56.25,
      "v": 82
    },
    {
      "midi": 65,
      "hit": false,
      "t": 85875,
      "d": 62.5,
      "v": 80
    },
    {
      "midi": 68,
      "hit": false,
      "t": 85875,
      "d": 115.625,
      "v": 62
    },
    {
      "midi": 60,
      "hit": false,
      "t": 86062.5,
      "d": 53.125,
      "v": 68
    },
    {
      "midi": 65,
      "hit": false,
      "t": 86062.5,
      "d": 62.5,
      "v": 70
    },
    {
      "midi": 68,
      "hit": false,
      "t": 86062.5,
      "d": 68.75,
      "v": 61
    },
    {
      "midi": 59,
      "hit": false,
      "t": 86437.5,
      "d": 978.125,
      "v": 70
    },
    {
      "midi": 62,
      "hit": false,
      "t": 86625,
      "d": 790.625,
      "v": 80
    },
    {
      "midi": 65,
      "hit": false,
      "t": 86812.5,
      "d": 603.125,
      "v": 89
    },
    {
      "midi": 56,
      "hit": false,
      "t": 87937.5,
      "d": 96.875,
      "v": 76
    },
    {
      "midi": 60,
      "hit": false,
      "t": 87937.5,
      "d": 96.875,
      "v": 76
    },
    {
      "midi": 65,
      "hit": false,
      "t": 87937.5,
      "d": 96.875,
      "v": 76
    },
    {
      "midi": 57,
      "hit": false,
      "t": 88500,
      "d": 746.875,
      "v": 64
    },
    {
      "midi": 60,
      "hit": false,
      "t": 88687.5,
      "d": 537.5,
      "v": 57
    },
    {
      "midi": 65,
      "hit": false,
      "t": 88875,
      "d": 321.875,
      "v": 38
    },
    {
      "midi": 69,
      "hit": false,
      "t": 89062.5,
      "d": 134.375,
      "v": 40
    },
    {
      "midi": 59,
      "hit": false,
      "t": 89437.5,
      "d": 96.875,
      "v": 76
    },
    {
      "midi": 62,
      "hit": false,
      "t": 89437.5,
      "d": 96.875,
      "v": 76
    },
    {
      "midi": 65,
      "hit": false,
      "t": 89437.5,
      "d": 96.875,
      "v": 76
    },
    {
      "midi": 67,
      "hit": false,
      "t": 89437.5,
      "d": 96.875,
      "v": 76
    },
    {
      "midi": 55,
      "hit": false,
      "t": 90000,
      "d": 712.5,
      "v": 57
    },
    {
      "midi": 60,
      "hit": false,
      "t": 90000,
      "d": 734.375,
      "v": 60
    },
    {
      "midi": 67,
      "hit": false,
      "t": 90000,
      "d": 734.375,
      "v": 72
    },
    {
      "midi": 48,
      "hit": false,
      "t": 90000,
      "d": 750,
      "v": 45
    },
    {
      "midi": 56,
      "hit": false,
      "t": 90937.5,
      "d": 96.875,
      "v": 76
    },
    {
      "midi": 60,
      "hit": false,
      "t": 90937.5,
      "d": 96.875,
      "v": 76
    },
    {
      "midi": 65,
      "hit": false,
      "t": 90937.5,
      "d": 96.875,
      "v": 76
    },
    {
      "midi": 57,
      "hit": false,
      "t": 91500,
      "d": 746.875,
      "v": 64
    },
    {
      "midi": 60,
      "hit": false,
      "t": 91687.5,
      "d": 537.5,
      "v": 57
    },
    {
      "midi": 65,
      "hit": false,
      "t": 91875,
      "d": 321.875,
      "v": 38
    },
    {
      "midi": 69,
      "hit": false,
      "t": 92062.5,
      "d": 134.375,
      "v": 40
    },
    {
      "midi": 59,
      "hit": false,
      "t": 92250,
      "d": 340.625,
      "v": 70
    },
    {
      "midi": 67,
      "hit": false,
      "t": 92250,
      "d": 743.75,
      "v": 63
    },
    {
      "midi": 65,
      "hit": false,
      "t": 92250,
      "d": 750,
      "v": 74
    },
    {
      "midi": 59,
      "hit": false,
      "t": 92625,
      "d": 375,
      "v": 68
    },
    {
      "midi": 62,
      "hit": false,
      "t": 92812.5,
      "d": 162.5,
      "v": 70
    },
    {
      "midi": 55,
      "hit": false,
      "t": 93000,
      "d": 712.5,
      "v": 57
    },
    {
      "midi": 60,
      "hit": false,
      "t": 93000,
      "d": 734.375,
      "v": 60
    },
    {
      "midi": 67,
      "hit": false,
      "t": 93000,
      "d": 734.375,
      "v": 72
    },
    {
      "midi": 48,
      "hit": false,
      "t": 93000,
      "d": 750,
      "v": 45
    },
    {
      "midi": 56,
      "hit": false,
      "t": 93937.5,
      "d": 784.375,
      "v": 49
    },
    {
      "midi": 60,
      "hit": false,
      "t": 93937.5,
      "d": 834.375,
      "v": 57
    },
    {
      "midi": 62,
      "hit": false,
      "t": 93937.5,
      "d": 918.75,
      "v": 70
    },
    {
      "midi": 65,
      "hit": false,
      "t": 93937.5,
      "d": 1303.125,
      "v": 68
    },
    {
      "midi": 36,
      "hit": false,
      "t": 93937.5,
      "d": 1312.5,
      "v": 62
    },
    {
      "midi": 53,
      "hit": false,
      "t": 94687.5,
      "d": 528.125,
      "v": 80
    },
    {
      "midi": 56,
      "hit": false,
      "t": 94781.25,
      "d": 421.875,
      "v": 74
    },
    {
      "midi": 60,
      "hit": false,
      "t": 94968.75,
      "d": 234.375,
      "v": 74
    },
    {
      "midi": 62,
      "hit": false,
      "t": 95062.5,
      "d": 96.875,
      "v": 100
    },
    {
      "midi": 55,
      "hit": false,
      "t": 95250,
      "d": 853.125,
      "v": 68
    },
    {
      "midi": 60,
      "hit": false,
      "t": 95250,
      "d": 900,
      "v": 66
    },
    {
      "midi": 63,
      "hit": false,
      "t": 95250,
      "d": 968.75,
      "v": 80
    },
    {
      "midi": 67,
      "hit": false,
      "t": 95250,
      "d": 1300,
      "v": 76
    },
    {
      "midi": 55,
      "hit": false,
      "t": 96187.5,
      "d": 212.5,
      "v": 80
    },
    {
      "midi": 60,
      "hit": false,
      "t": 96375,
      "d": 106.25,
      "v": 98
    },
    {
      "midi": 59,
      "hit": false,
      "t": 96750,
      "d": 746.875,
      "v": 64
    },
    {
      "midi": 62,
      "hit": false,
      "t": 96937.5,
      "d": 537.5,
      "v": 57
    },
    {
      "midi": 65,
      "hit": false,
      "t": 97125,
      "d": 321.875,
      "v": 38
    },
    {
      "midi": 67,
      "hit": false,
      "t": 97312.5,
      "d": 134.375,
      "v": 40
    },
    {
      "midi": 58,
      "hit": false,
      "t": 97500,
      "d": 340.625,
      "v": 70
    },
    {
      "midi": 67,
      "hit": false,
      "t": 97500,
      "d": 743.75,
      "v": 63
    },
    {
      "midi": 64,
      "hit": false,
      "t": 97500,
      "d": 750,
      "v": 74
    },
    {
      "midi": 58,
      "hit": false,
      "t": 97875,
      "d": 375,
      "v": 68
    },
    {
      "midi": 60,
      "hit": false,
      "t": 98062.5,
      "d": 162.5,
      "v": 70
    },
    {
      "midi": 56,
      "hit": false,
      "t": 98250,
      "d": 340.625,
      "v": 70
    },
    {
      "midi": 68,
      "hit": false,
      "t": 98250,
      "d": 743.75,
      "v": 63
    },
    {
      "midi": 65,
      "hit": false,
      "t": 98250,
      "d": 750,
      "v": 74
    },
    {
      "midi": 56,
      "hit": false,
      "t": 98625,
      "d": 375,
      "v": 68
    },
    {
      "midi": 60,
      "hit": false,
      "t": 98812.5,
      "d": 162.5,
      "v": 70
    },
    {
      "midi": 55,
      "hit": false,
      "t": 99000,
      "d": 712.5,
      "v": 57
    },
    {
      "midi": 58,
      "hit": false,
      "t": 99000,
      "d": 734.375,
      "v": 60
    },
    {
      "midi": 64,
      "hit": false,
      "t": 99000,
      "d": 734.375,
      "v": 72
    },
    {
      "midi": 67,
      "hit": false,
      "t": 99000,
      "d": 734.375,
      "v": 68
    },
    {
      "midi": 48,
      "hit": false,
      "t": 99000,
      "d": 750,
      "v": 45
    },
    {
      "midi": 56,
      "hit": false,
      "t": 99750,
      "d": 712.5,
      "v": 57
    },
    {
      "midi": 60,
      "hit": false,
      "t": 99750,
      "d": 734.375,
      "v": 60
    },
    {
      "midi": 68,
      "hit": false,
      "t": 99750,
      "d": 734.375,
      "v": 72
    },
    {
      "midi": 36,
      "hit": false,
      "t": 99750,
      "d": 750,
      "v": 45
    },
    {
      "midi": 59,
      "hit": false,
      "t": 100500,
      "d": 340.625,
      "v": 70
    },
    {
      "midi": 67,
      "hit": false,
      "t": 100500,
      "d": 743.75,
      "v": 63
    },
    {
      "midi": 65,
      "hit": false,
      "t": 100500,
      "d": 750,
      "v": 74
    },
    {
      "midi": 59,
      "hit": false,
      "t": 100875,
      "d": 375,
      "v": 68
    },
    {
      "midi": 62,
      "hit": false,
      "t": 101062.5,
      "d": 162.5,
      "v": 70
    },
    {
      "midi": 59,
      "hit": false,
      "t": 101250,
      "d": 340.625,
      "v": 70
    },
    {
      "midi": 67,
      "hit": false,
      "t": 101250,
      "d": 743.75,
      "v": 63
    },
    {
      "midi": 65,
      "hit": false,
      "t": 101250,
      "d": 750,
      "v": 74
    },
    {
      "midi": 59,
      "hit": false,
      "t": 101625,
      "d": 375,
      "v": 68
    },
    {
      "midi": 62,
      "hit": false,
      "t": 101812.5,
      "d": 162.5,
      "v": 70
    },
    {
      "midi": 79,
      "hit": false,
      "t": 102640.625,
      "d": 318.75,
      "v": 56
    },
    {
      "midi": 75,
      "hit": false,
      "t": 102703.125,
      "d": 278.125,
      "v": 89
    },
    {
      "midi": 72,
      "hit": false,
      "t": 102740.625,
      "d": 246.875,
      "v": 57
    },
    {
      "midi": 67,
      "hit": false,
      "t": 103440.625,
      "d": 909.375,
      "v": 14
    },
    {
      "midi": 63,
      "hit": false,
      "t": 103481.25,
      "d": 809.375,
      "v": 61
    },
    {
      "midi": 60,
      "hit": false,
      "t": 103518.75,
      "d": 637.5,
      "v": 74
    },
    {
      "midi": 55,
      "hit": false,
      "t": 104456.25,
      "d": 209.375,
      "v": 80
    },
    {
      "midi": 60,
      "hit": false,
      "t": 104650,
      "d": 225,
      "v": 80
    },
    {
      "midi": 63,
      "hit": false,
      "t": 104834.375,
      "d": 87.5,
      "v": 89
    },
    {
      "midi": 62,
      "hit": false,
      "t": 105000,
      "d": 625,
      "v": 68
    },
    {
      "midi": 65,
      "hit": false,
      "t": 105000,
      "d": 637.5,
      "v": 62
    },
    {
      "midi": 67,
      "hit": false,
      "t": 105000,
      "d": 671.875,
      "v": 68
    },
    {
      "midi": 59,
      "hit": false,
      "t": 105000,
      "d": 2784.375,
      "v": 64
    },
    {
      "midi": 35,
      "hit": false,
      "t": 105000,
      "d": 2803.125,
      "v": 62
    },
    {
      "midi": 62,
      "hit": false,
      "t": 105937.5,
      "d": 1446.875,
      "v": 63
    },
    {
      "midi": 65,
      "hit": false,
      "t": 106125,
      "d": 1315.625,
      "v": 58
    },
    {
      "midi": 74,
      "hit": false,
      "t": 106312.5,
      "d": 1490.625,
      "v": 87
    },
    {
      "midi": 65,
      "hit": false,
      "t": 107625,
      "d": 134.375,
      "v": 91
    },
    {
      "midi": 62,
      "hit": false,
      "t": 107625,
      "d": 159.375,
      "v": 87
    },
    {
      "midi": 48,
      "hit": false,
      "t": 108187.5,
      "d": 2718.75,
      "v": 57
    },
    {
      "midi": 60,
      "hit": false,
      "t": 108375,
      "d": 1943.75,
      "v": 76
    },
    {
      "midi": 64,
      "hit": false,
      "t": 108562.5,
      "d": 2259.375,
      "v": 70
    },
    {
      "midi": 55,
      "hit": false,
      "t": 109687.5,
      "d": 1168.75,
      "v": 66
    },
    {
      "midi": 67,
      "hit": false,
      "t": 110062.5,
      "d": 646.875,
      "v": 70
    },
    {
      "midi": 60,
      "hit": false,
      "t": 110437.5,
      "d": 387.5,
      "v": 55
    },
    {
      "midi": 59,
      "hit": false,
      "t": 111000,
      "d": 746.875,
      "v": 64
    },
    {
      "midi": 62,
      "hit": false,
      "t": 111187.5,
      "d": 537.5,
      "v": 57
    },
    {
      "midi": 67,
      "hit": false,
      "t": 111375,
      "d": 321.875,
      "v": 38
    },
    {
      "midi": 71,
      "hit": false,
      "t": 111562.5,
      "d": 134.375,
      "v": 40
    },
    {
      "midi": 46,
      "hit": false,
      "t": 112687.5,
      "d": 1312.5,
      "v": 68
    },
    {
      "midi": 53,
      "hit": false,
      "t": 112781.25,
      "d": 525,
      "v": 80
    },
    {
      "midi": 58,
      "hit": false,
      "t": 112875,
      "d": 612.5,
      "v": 82
    },
    {
      "midi": 62,
      "hit": false,
      "t": 113062.5,
      "d": 337.5,
      "v": 93
    },
    {
      "midi": 65,
      "hit": false,
      "t": 113250,
      "d": 725,
      "v": 82
    },
    {
      "midi": 53,
      "hit": false,
      "t": 113437.5,
      "d": 562.5,
      "v": 87
    },
    {
      "midi": 58,
      "hit": false,
      "t": 113625,
      "d": 350,
      "v": 82
    },
    {
      "midi": 62,
      "hit": false,
      "t": 113812.5,
      "d": 134.375,
      "v": 78
    },
    {
      "midi": 55,
      "hit": false,
      "t": 114187.5,
      "d": 225,
      "v": 72
    },
    {
      "midi": 58,
      "hit": false,
      "t": 114375,
      "d": 153.125,
      "v": 66
    },
    {
      "midi": 55,
      "hit": false,
      "t": 114562.5,
      "d": 421.875,
      "v": 87
    },
    {
      "midi": 58,
      "hit": false,
      "t": 114562.5,
      "d": 421.875,
      "v": 87
    },
    {
      "midi": 63,
      "hit": false,
      "t": 114562.5,
      "d": 421.875,
      "v": 87
    },
    {
      "midi": 56,
      "hit": false,
      "t": 115125,
      "d": 156.25,
      "v": 87
    },
    {
      "midi": 60,
      "hit": false,
      "t": 115125,
      "d": 156.25,
      "v": 87
    },
    {
      "midi": 63,
      "hit": false,
      "t": 115125,
      "d": 156.25,
      "v": 87
    },
    {
      "midi": 55,
      "hit": false,
      "t": 115312.5,
      "d": 1328.125,
      "v": 74
    },
    {
      "midi": 58,
      "hit": false,
      "t": 115312.5,
      "d": 1328.125,
      "v": 74
    },
    {
      "midi": 63,
      "hit": false,
      "t": 115312.5,
      "d": 1328.125,
      "v": 74
    },
    {
      "midi": 62,
      "hit": false,
      "t": 117000,
      "d": 303.125,
      "v": 66
    },
    {
      "midi": 65,
      "hit": false,
      "t": 117000,
      "d": 318.75,
      "v": 68
    },
    {
      "midi": 56,
      "hit": false,
      "t": 117000,
      "d": 331.25,
      "v": 64
    },
    {
      "midi": 70,
      "hit": false,
      "t": 117000,
      "d": 331.25,
      "v": 76
    },
    {
      "midi": 62,
      "hit": false,
      "t": 117375,
      "d": 75,
      "v": 76
    },
    {
      "midi": 65,
      "hit": false,
      "t": 117375,
      "d": 87.5,
      "v": 76
    },
    {
      "midi": 56,
      "hit": false,
      "t": 117375,
      "d": 90.625,
      "v": 62
    },
    {
      "midi": 70,
      "hit": false,
      "t": 117375,
      "d": 90.625,
      "v": 79
    },
    {
      "midi": 65,
      "hit": false,
      "t": 117937.5,
      "d": 87.5,
      "v": 76
    },
    {
      "midi": 70,
      "hit": false,
      "t": 117937.5,
      "d": 100,
      "v": 79
    },
    {
      "midi": 62,
      "hit": false,
      "t": 117937.5,
      "d": 103.125,
      "v": 66
    },
    {
      "midi": 50,
      "hit": false,
      "t": 117937.5,
      "d": 106.25,
      "v": 66
    },
    {
      "midi": 56,
      "hit": false,
      "t": 117937.5,
      "d": 128.125,
      "v": 60
    },
    {
      "midi": 55,
      "hit": false,
      "t": 118687.5,
      "d": 115.625,
      "v": 59
    },
    {
      "midi": 67,
      "hit": false,
      "t": 118687.5,
      "d": 115.625,
      "v": 61
    },
    {
      "midi": 70,
      "hit": false,
      "t": 118687.5,
      "d": 128.125,
      "v": 67
    },
    {
      "midi": 63,
      "hit": false,
      "t": 118687.5,
      "d": 134.375,
      "v": 67
    },
    {
      "midi": 67,
      "hit": false,
      "t": 118875,
      "d": 68.75,
      "v": 78
    },
    {
      "midi": 63,
      "hit": false,
      "t": 118875,
      "d": 78.125,
      "v": 76
    },
    {
      "midi": 70,
      "hit": false,
      "t": 118875,
      "d": 93.75,
      "v": 73
    },
    {
      "midi": 55,
      "hit": false,
      "t": 118875,
      "d": 96.875,
      "v": 65
    },
    {
      "midi": 34,
      "hit": false,
      "t": 119062.5,
      "d": 431.25,
      "v": 51
    },
    {
      "midi": 55,
      "hit": false,
      "t": 119250,
      "d": 143.75,
      "v": 59
    },
    {
      "midi": 63,
      "hit": false,
      "t": 119250,
      "d": 168.75,
      "v": 78
    },
    {
      "midi": 67,
      "hit": false,
      "t": 119250,
      "d": 168.75,
      "v": 89
    },
    {
      "midi": 70,
      "hit": false,
      "t": 119250,
      "d": 278.125,
      "v": 86
    },
    {
      "midi": 67,
      "hit": false,
      "t": 119437.5,
      "d": 56.25,
      "v": 89
    },
    {
      "midi": 63,
      "hit": false,
      "t": 119437.5,
      "d": 71.875,
      "v": 71
    },
    {
      "midi": 55,
      "hit": false,
      "t": 119437.5,
      "d": 90.625,
      "v": 57
    },
    {
      "midi": 56,
      "hit": false,
      "t": 120000,
      "d": 315.625,
      "v": 66
    },
    {
      "midi": 62,
      "hit": false,
      "t": 120000,
      "d": 315.625,
      "v": 69
    },
    {
      "midi": 62,
      "hit": false,
      "t": 120375,
      "d": 81.25,
      "v": 73
    },
    {
      "midi": 56,
      "hit": false,
      "t": 120375,
      "d": 93.75,
      "v": 60
    },
    {
      "midi": 56,
      "hit": false,
      "t": 120937.5,
      "d": 81.25,
      "v": 69
    },
    {
      "midi": 62,
      "hit": false,
      "t": 120937.5,
      "d": 87.5,
      "v": 86
    },
    {
      "midi": 39,
      "hit": false,
      "t": 121687.5,
      "d": 203.125,
      "v": 55
    },
    {
      "midi": 55,
      "hit": false,
      "t": 121875,
      "d": 96.875,
      "v": 77
    },
    {
      "midi": 63,
      "hit": false,
      "t": 121875,
      "d": 121.875,
      "v": 88
    },
    {
      "midi": 39,
      "hit": false,
      "t": 122437.5,
      "d": 18.75,
      "v": 30
    },
    {
      "midi": 55,
      "hit": false,
      "t": 122437.5,
      "d": 71.875,
      "v": 82
    },
    {
      "midi": 63,
      "hit": false,
      "t": 122437.5,
      "d": 84.375,
      "v": 88
    },
    {
      "midi": 64,
      "hit": false,
      "t": 123000,
      "d": 303.125,
      "v": 66
    },
    {
      "midi": 67,
      "hit": false,
      "t": 123000,
      "d": 318.75,
      "v": 68
    },
    {
      "midi": 58,
      "hit": false,
      "t": 123000,
      "d": 331.25,
      "v": 64
    },
    {
      "midi": 72,
      "hit": false,
      "t": 123000,
      "d": 331.25,
      "v": 76
    },
    {
      "midi": 64,
      "hit": false,
      "t": 123375,
      "d": 75,
      "v": 76
    },
    {
      "midi": 67,
      "hit": false,
      "t": 123375,
      "d": 87.5,
      "v": 76
    },
    {
      "midi": 58,
      "hit": false,
      "t": 123375,
      "d": 90.625,
      "v": 62
    },
    {
      "midi": 72,
      "hit": false,
      "t": 123375,
      "d": 90.625,
      "v": 79
    },
    {
      "midi": 67,
      "hit": false,
      "t": 123937.5,
      "d": 87.5,
      "v": 76
    },
    {
      "midi": 72,
      "hit": false,
      "t": 123937.5,
      "d": 100,
      "v": 79
    },
    {
      "midi": 64,
      "hit": false,
      "t": 123937.5,
      "d": 103.125,
      "v": 66
    },
    {
      "midi": 52,
      "hit": false,
      "t": 123937.5,
      "d": 106.25,
      "v": 66
    },
    {
      "midi": 58,
      "hit": false,
      "t": 123937.5,
      "d": 128.125,
      "v": 60
    },
    {
      "midi": 56,
      "hit": false,
      "t": 124500,
      "d": 712.5,
      "v": 67
    },
    {
      "midi": 60,
      "hit": false,
      "t": 124500,
      "d": 734.375,
      "v": 70
    },
    {
      "midi": 68,
      "hit": false,
      "t": 124500,
      "d": 734.375,
      "v": 82
    },
    {
      "midi": 41,
      "hit": false,
      "t": 124500,
      "d": 750,
      "v": 55
    },
    {
      "midi": 56,
      "hit": false,
      "t": 125250,
      "d": 712.5,
      "v": 67
    },
    {
      "midi": 61,
      "hit": false,
      "t": 125250,
      "d": 734.375,
      "v": 70
    },
    {
      "midi": 68,
      "hit": false,
      "t": 125250,
      "d": 734.375,
      "v": 82
    },
    {
      "midi": 44,
      "hit": false,
      "t": 125250,
      "d": 750,
      "v": 55
    },
    {
      "midi": 63,
      "hit": false,
      "t": 126000,
      "d": 303.125,
      "v": 66
    },
    {
      "midi": 67,
      "hit": false,
      "t": 126000,
      "d": 318.75,
      "v": 68
    },
    {
      "midi": 58,
      "hit": false,
      "t": 126000,
      "d": 331.25,
      "v": 64
    },
    {
      "midi": 75,
      "hit": false,
      "t": 126000,
      "d": 331.25,
      "v": 76
    },
    {
      "midi": 63,
      "hit": false,
      "t": 126375,
      "d": 75,
      "v": 76
    },
    {
      "midi": 67,
      "hit": false,
      "t": 126375,
      "d": 87.5,
      "v": 76
    },
    {
      "midi": 58,
      "hit": false,
      "t": 126375,
      "d": 90.625,
      "v": 62
    },
    {
      "midi": 75,
      "hit": false,
      "t": 126375,
      "d": 90.625,
      "v": 79
    },
    {
      "midi": 67,
      "hit": false,
      "t": 126937.5,
      "d": 87.5,
      "v": 76
    },
    {
      "midi": 75,
      "hit": false,
      "t": 126937.5,
      "d": 100,
      "v": 79
    },
    {
      "midi": 63,
      "hit": false,
      "t": 126937.5,
      "d": 103.125,
      "v": 66
    },
    {
      "midi": 51,
      "hit": false,
      "t": 126937.5,
      "d": 106.25,
      "v": 66
    },
    {
      "midi": 58,
      "hit": false,
      "t": 126937.5,
      "d": 128.125,
      "v": 60
    },
    {
      "midi": 56,
      "hit": false,
      "t": 127875,
      "d": 128.125,
      "v": 72
    },
    {
      "midi": 63,
      "hit": false,
      "t": 127875,
      "d": 131.25,
      "v": 64
    },
    {
      "midi": 63,
      "hit": false,
      "t": 128250,
      "d": 140.625,
      "v": 70
    },
    {
      "midi": 56,
      "hit": false,
      "t": 128250,
      "d": 143.75,
      "v": 64
    },
    {
      "midi": 63,
      "hit": false,
      "t": 128437.5,
      "d": 103.125,
      "v": 74
    },
    {
      "midi": 56,
      "hit": false,
      "t": 128437.5,
      "d": 109.375,
      "v": 77
    },
    {
      "midi": 60,
      "hit": false,
      "t": 129000,
      "d": 318.75,
      "v": 53
    },
    {
      "midi": 45,
      "hit": false,
      "t": 129000,
      "d": 431.25,
      "v": 55
    },
    {
      "midi": 65,
      "hit": false,
      "t": 129000,
      "d": 431.25,
      "v": 78
    },
    {
      "midi": 57,
      "hit": false,
      "t": 129375,
      "d": 56.25,
      "v": 76
    },
    {
      "midi": 60,
      "hit": false,
      "t": 129375,
      "d": 71.875,
      "v": 69
    },
    {
      "midi": 60,
      "hit": false,
      "t": 129937.5,
      "d": 78.125,
      "v": 89
    },
    {
      "midi": 53,
      "hit": false,
      "t": 129937.5,
      "d": 90.625,
      "v": 72
    },
    {
      "midi": 63,
      "hit": false,
      "t": 130687.5,
      "d": 112.5,
      "v": 75
    },
    {
      "midi": 66,
      "hit": false,
      "t": 130687.5,
      "d": 118.75,
      "v": 73
    },
    {
      "midi": 70,
      "hit": false,
      "t": 130687.5,
      "d": 121.875,
      "v": 75
    },
    {
      "midi": 54,
      "hit": false,
      "t": 130687.5,
      "d": 125,
      "v": 69
    },
    {
      "midi": 66,
      "hit": false,
      "t": 130875,
      "d": 59.375,
      "v": 59
    },
    {
      "midi": 63,
      "hit": false,
      "t": 130875,
      "d": 75,
      "v": 50
    },
    {
      "midi": 70,
      "hit": false,
      "t": 130875,
      "d": 100,
      "v": 61
    },
    {
      "midi": 54,
      "hit": false,
      "t": 130875,
      "d": 153.125,
      "v": 55
    },
    {
      "midi": 34,
      "hit": false,
      "t": 131062.5,
      "d": 115.625,
      "v": 55
    },
    {
      "midi": 54,
      "hit": false,
      "t": 131250,
      "d": 137.5,
      "v": 73
    },
    {
      "midi": 63,
      "hit": false,
      "t": 131250,
      "d": 153.125,
      "v": 84
    },
    {
      "midi": 70,
      "hit": false,
      "t": 131250,
      "d": 153.125,
      "v": 82
    },
    {
      "midi": 63,
      "hit": false,
      "t": 131437.5,
      "d": 90.625,
      "v": 84
    },
    {
      "midi": 70,
      "hit": false,
      "t": 131437.5,
      "d": 106.25,
      "v": 80
    },
    {
      "midi": 54,
      "hit": false,
      "t": 131437.5,
      "d": 118.75,
      "v": 88
    },
    {
      "midi": 57,
      "hit": false,
      "t": 132000,
      "d": 315.625,
      "v": 66
    },
    {
      "midi": 63,
      "hit": false,
      "t": 132000,
      "d": 315.625,
      "v": 69
    },
    {
      "midi": 63,
      "hit": false,
      "t": 132375,
      "d": 81.25,
      "v": 73
    },
    {
      "midi": 57,
      "hit": false,
      "t": 132375,
      "d": 93.75,
      "v": 60
    },
    {
      "midi": 57,
      "hit": false,
      "t": 132937.5,
      "d": 81.25,
      "v": 69
    },
    {
      "midi": 63,
      "hit": false,
      "t": 132937.5,
      "d": 87.5,
      "v": 86
    },
    {
      "midi": 36,
      "hit": false,
      "t": 133687.5,
      "d": 203.125,
      "v": 55
    },
    {
      "midi": 57,
      "hit": false,
      "t": 133875,
      "d": 96.875,
      "v": 77
    },
    {
      "midi": 65,
      "hit": false,
      "t": 133875,
      "d": 121.875,
      "v": 88
    },
    {
      "midi": 36,
      "hit": false,
      "t": 134437.5,
      "d": 18.75,
      "v": 30
    },
    {
      "midi": 57,
      "hit": false,
      "t": 134437.5,
      "d": 71.875,
      "v": 82
    },
    {
      "midi": 65,
      "hit": false,
      "t": 134437.5,
      "d": 84.375,
      "v": 88
    },
    {
      "midi": 53,
      "hit": false,
      "t": 135000,
      "d": 315.625,
      "v": 66
    },
    {
      "midi": 62,
      "hit": false,
      "t": 135000,
      "d": 315.625,
      "v": 69
    },
    {
      "midi": 62,
      "hit": false,
      "t": 135375,
      "d": 81.25,
      "v": 73
    },
    {
      "midi": 53,
      "hit": false,
      "t": 135375,
      "d": 93.75,
      "v": 60
    },
    {
      "midi": 53,
      "hit": false,
      "t": 135937.5,
      "d": 81.25,
      "v": 69
    },
    {
      "midi": 62,
      "hit": false,
      "t": 135937.5,
      "d": 87.5,
      "v": 86
    },
    {
      "midi": 55,
      "hit": false,
      "t": 136500,
      "d": 712.5,
      "v": 67
    },
    {
      "midi": 58,
      "hit": false,
      "t": 136500,
      "d": 734.375,
      "v": 70
    },
    {
      "midi": 67,
      "hit": false,
      "t": 136500,
      "d": 734.375,
      "v": 82
    },
    {
      "midi": 39,
      "hit": false,
      "t": 136500,
      "d": 750,
      "v": 55
    },
    {
      "midi": 56,
      "hit": false,
      "t": 137250,
      "d": 750,
      "v": 70
    },
    {
      "midi": 60,
      "hit": false,
      "t": 137250,
      "d": 750,
      "v": 70
    },
    {
      "midi": 65,
      "hit": false,
      "t": 137250,
      "d": 750,
      "v": 70
    },
    {
      "midi": 41,
      "hit": false,
      "t": 137434.375,
      "d": 200,
      "v": 70
    },
    {
      "midi": 53,
      "hit": false,
      "t": 137637.5,
      "d": 153.125,
      "v": 70
    },
    {
      "midi": 41,
      "hit": false,
      "t": 137821.875,
      "d": 143.75,
      "v": 70
    },
    {
      "midi": 55,
      "hit": false,
      "t": 138000,
      "d": 712.5,
      "v": 67
    },
    {
      "midi": 58,
      "hit": false,
      "t": 138000,
      "d": 734.375,
      "v": 70
    },
    {
      "midi": 67,
      "hit": false,
      "t": 138000,
      "d": 734.375,
      "v": 82
    },
    {
      "midi": 43,
      "hit": false,
      "t": 138000,
      "d": 750,
      "v": 55
    },
    {
      "midi": 56,
      "hit": false,
      "t": 138750,
      "d": 750,
      "v": 70
    },
    {
      "midi": 60,
      "hit": false,
      "t": 138750,
      "d": 750,
      "v": 70
    },
    {
      "midi": 63,
      "hit": false,
      "t": 138750,
      "d": 750,
      "v": 70
    },
    {
      "midi": 44,
      "hit": false,
      "t": 138934.375,
      "d": 200,
      "v": 70
    },
    {
      "midi": 44,
      "hit": false,
      "t": 139137.5,
      "d": 153.125,
      "v": 70
    },
    {
      "midi": 44,
      "hit": false,
      "t": 139321.875,
      "d": 143.75,
      "v": 70
    },
    {
      "midi": 55,
      "hit": false,
      "t": 139500,
      "d": 340.625,
      "v": 71
    },
    {
      "midi": 67,
      "hit": false,
      "t": 139500,
      "d": 743.75,
      "v": 64
    },
    {
      "midi": 63,
      "hit": false,
      "t": 139500,
      "d": 750,
      "v": 75
    },
    {
      "midi": 55,
      "hit": false,
      "t": 139875,
      "d": 375,
      "v": 69
    },
    {
      "midi": 58,
      "hit": false,
      "t": 140062.5,
      "d": 162.5,
      "v": 71
    },
    {
      "midi": 53,
      "hit": false,
      "t": 140250,
      "d": 712.5,
      "v": 67
    },
    {
      "midi": 58,
      "hit": false,
      "t": 140250,
      "d": 734.375,
      "v": 70
    },
    {
      "midi": 65,
      "hit": false,
      "t": 140250,
      "d": 734.375,
      "v": 82
    },
    {
      "midi": 46,
      "hit": false,
      "t": 140250,
      "d": 750,
      "v": 55
    },
    {
      "midi": 56,
      "hit": false,
      "t": 141000,
      "d": 315.625,
      "v": 66
    },
    {
      "midi": 62,
      "hit": false,
      "t": 141000,
      "d": 315.625,
      "v": 69
    },
    {
      "midi": 62,
      "hit": false,
      "t": 141375,
      "d": 81.25,
      "v": 73
    },
    {
      "midi": 56,
      "hit": false,
      "t": 141375,
      "d": 93.75,
      "v": 60
    },
    {
      "midi": 56,
      "hit": false,
      "t": 141937.5,
      "d": 81.25,
      "v": 69
    },
    {
      "midi": 62,
      "hit": false,
      "t": 141937.5,
      "d": 87.5,
      "v": 86
    },
    {
      "midi": 55,
      "hit": false,
      "t": 142500,
      "d": 712.5,
      "v": 67
    },
    {
      "midi": 58,
      "hit": false,
      "t": 142500,
      "d": 734.375,
      "v": 70
    },
    {
      "midi": 67,
      "hit": false,
      "t": 142500,
      "d": 734.375,
      "v": 82
    },
    {
      "midi": 39,
      "hit": false,
      "t": 142500,
      "d": 750,
      "v": 55
    },
    {
      "midi": 56,
      "hit": false,
      "t": 143250,
      "d": 340.625,
      "v": 71
    },
    {
      "midi": 65,
      "hit": false,
      "t": 143250,
      "d": 743.75,
      "v": 64
    },
    {
      "midi": 62,
      "hit": false,
      "t": 143250,
      "d": 750,
      "v": 75
    },
    {
      "midi": 56,
      "hit": false,
      "t": 143625,
      "d": 375,
      "v": 69
    },
    {
      "midi": 58,
      "hit": false,
      "t": 143812.5,
      "d": 162.5,
      "v": 71
    },
    {
      "midi": 55,
      "hit": false,
      "t": 144000,
      "d": 712.5,
      "v": 67
    },
    {
      "midi": 58,
      "hit": false,
      "t": 144000,
      "d": 734.375,
      "v": 70
    },
    {
      "midi": 67,
      "hit": false,
      "t": 144000,
      "d": 734.375,
      "v": 82
    },
    {
      "midi": 43,
      "hit": false,
      "t": 144000,
      "d": 750,
      "v": 55
    },
    {
      "midi": 60,
      "hit": false,
      "t": 144750,
      "d": 712.5,
      "v": 67
    },
    {
      "midi": 63,
      "hit": false,
      "t": 144750,
      "d": 734.375,
      "v": 70
    },
    {
      "midi": 72,
      "hit": false,
      "t": 144750,
      "d": 734.375,
      "v": 82
    },
    {
      "midi": 44,
      "hit": false,
      "t": 144750,
      "d": 750,
      "v": 55
    },
    {
      "midi": 55,
      "hit": false,
      "t": 145500,
      "d": 340.625,
      "v": 71
    },
    {
      "midi": 67,
      "hit": false,
      "t": 145500,
      "d": 743.75,
      "v": 64
    },
    {
      "midi": 63,
      "hit": false,
      "t": 145500,
      "d": 750,
      "v": 75
    },
    {
      "midi": 55,
      "hit": false,
      "t": 145875,
      "d": 375,
      "v": 69
    },
    {
      "midi": 58,
      "hit": false,
      "t": 146062.5,
      "d": 162.5,
      "v": 71
    },
    {
      "midi": 58,
      "hit": false,
      "t": 146250,
      "d": 750,
      "v": 70
    },
    {
      "midi": 62,
      "hit": false,
      "t": 146250,
      "d": 750,
      "v": 70
    },
    {
      "midi": 65,
      "hit": false,
      "t": 146250,
      "d": 750,
      "v": 70
    },
    {
      "midi": 34,
      "hit": false,
      "t": 146434.375,
      "d": 200,
      "v": 70
    },
    {
      "midi": 46,
      "hit": false,
      "t": 146637.5,
      "d": 153.125,
      "v": 70
    },
    {
      "midi": 34,
      "hit": false,
      "t": 146821.875,
      "d": 143.75,
      "v": 70
    },
    {
      "midi": 55,
      "hit": false,
      "t": 147000,
      "d": 340.625,
      "v": 71
    },
    {
      "midi": 67,
      "hit": false,
      "t": 147000,
      "d": 743.75,
      "v": 64
    },
    {
      "midi": 63,
      "hit": false,
      "t": 147000,
      "d": 750,
      "v": 75
    },
    {
      "midi": 55,
      "hit": false,
      "t": 147375,
      "d": 375,
      "v": 69
    },
    {
      "midi": 58,
      "hit": false,
      "t": 147562.5,
      "d": 162.5,
      "v": 71
    },
    {
      "midi": 55,
      "hit": false,
      "t": 147750,
      "d": 156.25,
      "v": 70
    },
    {
      "midi": 58,
      "hit": false,
      "t": 147750,
      "d": 156.25,
      "v": 70
    },
    {
      "midi": 63,
      "hit": false,
      "t": 147750,
      "d": 156.25,
      "v": 70
    },
    {
      "midi": 55,
      "hit": false,
      "t": 148500,
      "d": 340.625,
      "v": 71
    },
    {
      "midi": 67,
      "hit": false,
      "t": 148500,
      "d": 743.75,
      "v": 64
    },
    {
      "midi": 63,
      "hit": false,
      "t": 148500,
      "d": 750,
      "v": 75
    },
    {
      "midi": 55,
      "hit": false,
      "t": 148875,
      "d": 375,
      "v": 69
    },
    {
      "midi": 58,
      "hit": false,
      "t": 149062.5,
      "d": 162.5,
      "v": 71
    },
    {
      "midi": 55,
      "hit": false,
      "t": 149250,
      "d": 156.25,
      "v": 70
    },
    {
      "midi": 58,
      "hit": false,
      "t": 149250,
      "d": 156.25,
      "v": 70
    },
    {
      "midi": 63,
      "hit": false,
      "t": 149250,
      "d": 156.25,
      "v": 70
    },
    {
      "midi": 74,
      "hit": false,
      "t": 150375,
      "d": 59.375,
      "v": 86
    },
    {
      "midi": 71,
      "hit": false,
      "t": 150375,
      "d": 68.75,
      "v": 84
    },
    {
      "midi": 67,
      "hit": false,
      "t": 150375,
      "d": 84.375,
      "v": 50
    },
    {
      "midi": 59,
      "hit": false,
      "t": 150375,
      "d": 106.25,
      "v": 59
    },
    {
      "midi": 79,
      "hit": false,
      "t": 150375,
      "d": 112.5,
      "v": 81
    },
    {
      "midi": 67,
      "hit": false,
      "t": 150937.5,
      "d": 75,
      "v": 63
    },
    {
      "midi": 71,
      "hit": false,
      "t": 150937.5,
      "d": 78.125,
      "v": 84
    },
    {
      "midi": 74,
      "hit": false,
      "t": 150937.5,
      "d": 78.125,
      "v": 88
    },
    {
      "midi": 59,
      "hit": false,
      "t": 150937.5,
      "d": 87.5,
      "v": 63
    },
    {
      "midi": 51,
      "hit": false,
      "t": 151687.5,
      "d": 112.5,
      "v": 67
    },
    {
      "midi": 43,
      "hit": false,
      "t": 151687.5,
      "d": 225,
      "v": 69
    },
    {
      "midi": 67,
      "hit": false,
      "t": 151875,
      "d": 84.375,
      "v": 86
    },
    {
      "midi": 62,
      "hit": false,
      "t": 151875,
      "d": 90.625,
      "v": 77
    },
    {
      "midi": 59,
      "hit": false,
      "t": 151875,
      "d": 131.25,
      "v": 62
    },
    {
      "midi": 43,
      "hit": false,
      "t": 152062.5,
      "d": 62.5,
      "v": 51
    },
    {
      "midi": 67,
      "hit": false,
      "t": 152250,
      "d": 146.875,
      "v": 73
    },
    {
      "midi": 62,
      "hit": false,
      "t": 152250,
      "d": 162.5,
      "v": 75
    },
    {
      "midi": 59,
      "hit": false,
      "t": 152250,
      "d": 303.125,
      "v": 65
    },
    {
      "midi": 67,
      "hit": false,
      "t": 152437.5,
      "d": 87.5,
      "v": 81
    },
    {
      "midi": 62,
      "hit": false,
      "t": 152437.5,
      "d": 106.25,
      "v": 46
    },
    {
      "midi": 43,
      "hit": false,
      "t": 152625,
      "d": 121.875,
      "v": 65
    },
    {
      "midi": 55,
      "hit": false,
      "t": 153187.5,
      "d": 1968.75,
      "v": 91
    },
    {
      "midi": 60,
      "hit": false,
      "t": 153375,
      "d": 1693.75,
      "v": 80
    },
    {
      "midi": 63,
      "hit": false,
      "t": 153562.5,
      "d": 1506.25,
      "v": 85
    },
    {
      "midi": 67,
      "hit": false,
      "t": 153562.5,
      "d": 2268.75,
      "v": 78
    },
    {
      "midi": 48,
      "hit": false,
      "t": 155062.5,
      "d": 756.25,
      "v": 80
    },
    {
      "midi": 55,
      "hit": false,
      "t": 155250,
      "d": 112.5,
      "v": 68
    },
    {
      "midi": 63,
      "hit": false,
      "t": 155250,
      "d": 112.5,
      "v": 72
    },
    {
      "midi": 60,
      "hit": false,
      "t": 155250,
      "d": 134.375,
      "v": 76
    },
    {
      "midi": 63,
      "hit": false,
      "t": 155625,
      "d": 168.75,
      "v": 85
    },
    {
      "midi": 55,
      "hit": false,
      "t": 155625,
      "d": 178.125,
      "v": 66
    },
    {
      "midi": 60,
      "hit": false,
      "t": 155625,
      "d": 178.125,
      "v": 89
    },
    {
      "midi": 53,
      "hit": false,
      "t": 156187.5,
      "d": 1968.75,
      "v": 91
    },
    {
      "midi": 58,
      "hit": false,
      "t": 156375,
      "d": 1693.75,
      "v": 80
    },
    {
      "midi": 62,
      "hit": false,
      "t": 156562.5,
      "d": 1506.25,
      "v": 85
    },
    {
      "midi": 65,
      "hit": false,
      "t": 156562.5,
      "d": 2268.75,
      "v": 78
    },
    {
      "midi": 46,
      "hit": false,
      "t": 158062.5,
      "d": 756.25,
      "v": 80
    },
    {
      "midi": 53,
      "hit": false,
      "t": 158250,
      "d": 112.5,
      "v": 68
    },
    {
      "midi": 62,
      "hit": false,
      "t": 158250,
      "d": 112.5,
      "v": 72
    },
    {
      "midi": 58,
      "hit": false,
      "t": 158250,
      "d": 134.375,
      "v": 76
    },
    {
      "midi": 62,
      "hit": false,
      "t": 158625,
      "d": 168.75,
      "v": 85
    },
    {
      "midi": 53,
      "hit": false,
      "t": 158625,
      "d": 178.125,
      "v": 66
    },
    {
      "midi": 58,
      "hit": false,
      "t": 158625,
      "d": 178.125,
      "v": 89
    },
    {
      "midi": 60,
      "hit": false,
      "t": 159000,
      "d": 2365.625,
      "v": 52
    },
    {
      "midi": 68,
      "hit": false,
      "t": 159000,
      "d": 2578.125,
      "v": 76
    },
    {
      "midi": 72,
      "hit": false,
      "t": 159000,
      "d": 2684.375,
      "v": 72
    },
    {
      "midi": 60,
      "hit": false,
      "t": 161437.5,
      "d": 534.375,
      "v": 82
    },
    {
      "midi": 68,
      "hit": false,
      "t": 161625,
      "d": 346.875,
      "v": 60
    },
    {
      "midi": 72,
      "hit": false,
      "t": 161812.5,
      "d": 165.625,
      "v": 89
    },
    {
      "midi": 83,
      "hit": false,
      "t": 162640.625,
      "d": 318.75,
      "v": 56
    },
    {
      "midi": 79,
      "hit": false,
      "t": 162703.125,
      "d": 278.125,
      "v": 89
    },
    {
      "midi": 74,
      "hit": false,
      "t": 162740.625,
      "d": 246.875,
      "v": 57
    },
    {
      "midi": 71,
      "hit": false,
      "t": 163440.625,
      "d": 909.375,
      "v": 14
    },
    {
      "midi": 67,
      "hit": false,
      "t": 163481.25,
      "d": 809.375,
      "v": 61
    },
    {
      "midi": 62,
      "hit": false,
      "t": 163518.75,
      "d": 637.5,
      "v": 74
    },
    {
      "midi": 59,
      "hit": false,
      "t": 164456.25,
      "d": 209.375,
      "v": 80
    },
    {
      "midi": 62,
      "hit": false,
      "t": 164650,
      "d": 225,
      "v": 80
    },
    {
      "midi": 67,
      "hit": false,
      "t": 164834.375,
      "d": 87.5,
      "v": 89
    },
    {
      "midi": 60,
      "hit": false,
      "t": 165000,
      "d": 625,
      "v": 68
    },
    {
      "midi": 63,
      "hit": false,
      "t": 165000,
      "d": 637.5,
      "v": 62
    },
    {
      "midi": 67,
      "hit": false,
      "t": 165000,
      "d": 671.875,
      "v": 68
    },
    {
      "midi": 55,
      "hit": false,
      "t": 165000,
      "d": 2784.375,
      "v": 64
    },
    {
      "midi": 48,
      "hit": false,
      "t": 165000,
      "d": 2803.125,
      "v": 62
    },
    {
      "midi": 60,
      "hit": false,
      "t": 165937.5,
      "d": 1446.875,
      "v": 63
    },
    {
      "midi": 63,
      "hit": false,
      "t": 166125,
      "d": 1315.625,
      "v": 58
    },
    {
      "midi": 72,
      "hit": false,
      "t": 166312.5,
      "d": 1490.625,
      "v": 87
    },
    {
      "midi": 63,
      "hit": false,
      "t": 167625,
      "d": 134.375,
      "v": 91
    },
    {
      "midi": 60,
      "hit": false,
      "t": 167625,
      "d": 159.375,
      "v": 87
    },
    {
      "midi": 53,
      "hit": false,
      "t": 168187.5,
      "d": 1968.75,
      "v": 91
    },
    {
      "midi": 58,
      "hit": false,
      "t": 168375,
      "d": 1693.75,
      "v": 80
    },
    {
      "midi": 62,
      "hit": false,
      "t": 168562.5,
      "d": 1506.25,
      "v": 85
    },
    {
      "midi": 65,
      "hit": false,
      "t": 168562.5,
      "d": 2268.75,
      "v": 78
    },
    {
      "midi": 46,
      "hit": false,
      "t": 170062.5,
      "d": 756.25,
      "v": 80
    },
    {
      "midi": 53,
      "hit": false,
      "t": 170250,
      "d": 112.5,
      "v": 68
    },
    {
      "midi": 62,
      "hit": false,
      "t": 170250,
      "d": 112.5,
      "v": 72
    },
    {
      "midi": 58,
      "hit": false,
      "t": 170250,
      "d": 134.375,
      "v": 76
    },
    {
      "midi": 62,
      "hit": false,
      "t": 170625,
      "d": 168.75,
      "v": 85
    },
    {
      "midi": 53,
      "hit": false,
      "t": 170625,
      "d": 178.125,
      "v": 66
    },
    {
      "midi": 58,
      "hit": false,
      "t": 170625,
      "d": 178.125,
      "v": 89
    },
    {
      "midi": 60,
      "hit": false,
      "t": 171187.5,
      "d": 1968.75,
      "v": 91
    },
    {
      "midi": 63,
      "hit": false,
      "t": 171375,
      "d": 1693.75,
      "v": 80
    },
    {
      "midi": 68,
      "hit": false,
      "t": 171562.5,
      "d": 1506.25,
      "v": 85
    },
    {
      "midi": 72,
      "hit": false,
      "t": 171562.5,
      "d": 2268.75,
      "v": 78
    },
    {
      "midi": 44,
      "hit": false,
      "t": 173062.5,
      "d": 756.25,
      "v": 80
    },
    {
      "midi": 60,
      "hit": false,
      "t": 173250,
      "d": 112.5,
      "v": 68
    },
    {
      "midi": 68,
      "hit": false,
      "t": 173250,
      "d": 112.5,
      "v": 72
    },
    {
      "midi": 63,
      "hit": false,
      "t": 173250,
      "d": 134.375,
      "v": 76
    },
    {
      "midi": 68,
      "hit": false,
      "t": 173625,
      "d": 168.75,
      "v": 85
    },
    {
      "midi": 60,
      "hit": false,
      "t": 173625,
      "d": 178.125,
      "v": 66
    },
    {
      "midi": 63,
      "hit": false,
      "t": 173625,
      "d": 178.125,
      "v": 89
    },
    {
      "midi": 83,
      "hit": false,
      "t": 174640.625,
      "d": 318.75,
      "v": 56
    },
    {
      "midi": 79,
      "hit": false,
      "t": 174703.125,
      "d": 278.125,
      "v": 89
    },
    {
      "midi": 74,
      "hit": false,
      "t": 174740.625,
      "d": 246.875,
      "v": 57
    },
    {
      "midi": 71,
      "hit": false,
      "t": 175440.625,
      "d": 909.375,
      "v": 14
    },
    {
      "midi": 67,
      "hit": false,
      "t": 175481.25,
      "d": 809.375,
      "v": 61
    },
    {
      "midi": 62,
      "hit": false,
      "t": 175518.75,
      "d": 637.5,
      "v": 74
    },
    {
      "midi": 59,
      "hit": false,
      "t": 176456.25,
      "d": 209.375,
      "v": 80
    },
    {
      "midi": 62,
      "hit": false,
      "t": 176650,
      "d": 225,
      "v": 80
    },
    {
      "midi": 67,
      "hit": false,
      "t": 176834.375,
      "d": 87.5,
      "v": 89
    },
    {
      "midi": 59,
      "hit": false,
      "t": 177000,
      "d": 2365.625,
      "v": 52
    },
    {
      "midi": 67,
      "hit": false,
      "t": 177000,
      "d": 2578.125,
      "v": 76
    },
    {
      "midi": 71,
      "hit": false,
      "t": 177000,
      "d": 2684.375,
      "v": 72
    },
    {
      "midi": 59,
      "hit": false,
      "t": 179437.5,
      "d": 534.375,
      "v": 82
    },
    {
      "midi": 67,
      "hit": false,
      "t": 179625,
      "d": 346.875,
      "v": 60
    },
    {
      "midi": 71,
      "hit": false,
      "t": 179812.5,
      "d": 165.625,
      "v": 89
    },
    {
      "midi": 55,
      "hit": false,
      "t": 180187.5,
      "d": 1968.75,
      "v": 91
    },
    {
      "midi": 60,
      "hit": false,
      "t": 180375,
      "d": 1693.75,
      "v": 80
    },
    {
      "midi": 63,
      "hit": false,
      "t": 180562.5,
      "d": 1506.25,
      "v": 85
    },
    {
      "midi": 67,
      "hit": false,
      "t": 180562.5,
      "d": 2268.75,
      "v": 78
    },
    {
      "midi": 48,
      "hit": false,
      "t": 182062.5,
      "d": 756.25,
      "v": 80
    },
    {
      "midi": 55,
      "hit": false,
      "t": 182250,
      "d": 112.5,
      "v": 68
    },
    {
      "midi": 63,
      "hit": false,
      "t": 182250,
      "d": 112.5,
      "v": 72
    },
    {
      "midi": 60,
      "hit": false,
      "t": 182250,
      "d": 134.375,
      "v": 76
    },
    {
      "midi": 63,
      "hit": false,
      "t": 182625,
      "d": 168.75,
      "v": 85
    },
    {
      "midi": 55,
      "hit": false,
      "t": 182625,
      "d": 178.125,
      "v": 66
    },
    {
      "midi": 60,
      "hit": false,
      "t": 182625,
      "d": 178.125,
      "v": 89
    },
    {
      "midi": 59,
      "hit": false,
      "t": 183187.5,
      "d": 459.375,
      "v": 57
    },
    {
      "midi": 65,
      "hit": false,
      "t": 183375,
      "d": 278.125,
      "v": 85
    },
    {
      "midi": 60,
      "hit": false,
      "t": 183750,
      "d": 125,
      "v": 68
    },
    {
      "midi": 63,
      "hit": false,
      "t": 183750,
      "d": 125,
      "v": 68
    },
    {
      "midi": 67,
      "hit": false,
      "t": 183750,
      "d": 125,
      "v": 68
    },
    {
      "midi": 59,
      "hit": false,
      "t": 183937.5,
      "d": 475,
      "v": 82
    },
    {
      "midi": 62,
      "hit": false,
      "t": 183937.5,
      "d": 475,
      "v": 82
    },
    {
      "midi": 65,
      "hit": false,
      "t": 183937.5,
      "d": 475,
      "v": 82
    },
    {
      "midi": 67,
      "hit": false,
      "t": 183937.5,
      "d": 475,
      "v": 82
    },
    {
      "midi": 59,
      "hit": false,
      "t": 184687.5,
      "d": 978.125,
      "v": 70
    },
    {
      "midi": 62,
      "hit": false,
      "t": 184875,
      "d": 790.625,
      "v": 80
    },
    {
      "midi": 65,
      "hit": false,
      "t": 185062.5,
      "d": 603.125,
      "v": 89
    },
    {
      "midi": 55,
      "hit": false,
      "t": 186000,
      "d": 712.5,
      "v": 57
    },
    {
      "midi": 60,
      "hit": false,
      "t": 186000,
      "d": 734.375,
      "v": 60
    },
    {
      "midi": 67,
      "hit": false,
      "t": 186000,
      "d": 734.375,
      "v": 72
    },
    {
      "midi": 48,
      "hit": false,
      "t": 186000,
      "d": 750,
      "v": 45
    },
    {
      "midi": 55,
      "hit": false,
      "t": 186750,
      "d": 712.5,
      "v": 57
    },
    {
      "midi": 59,
      "hit": false,
      "t": 186750,
      "d": 734.375,
      "v": 60
    },
    {
      "midi": 65,
      "hit": false,
      "t": 186750,
      "d": 734.375,
      "v": 72
    },
    {
      "midi": 67,
      "hit": false,
      "t": 186750,
      "d": 734.375,
      "v": 68
    },
    {
      "midi": 43,
      "hit": false,
      "t": 186750,
      "d": 750,
      "v": 45
    },
    {
      "midi": 55,
      "hit": false,
      "t": 187500,
      "d": 712.5,
      "v": 57
    },
    {
      "midi": 60,
      "hit": false,
      "t": 187500,
      "d": 734.375,
      "v": 60
    },
    {
      "midi": 67,
      "hit": false,
      "t": 187500,
      "d": 734.375,
      "v": 72
    },
    {
      "midi": 48,
      "hit": false,
      "t": 187500,
      "d": 750,
      "v": 45
    },
    {
      "midi": 59,
      "hit": false,
      "t": 188250,
      "d": 746.875,
      "v": 64
    },
    {
      "midi": 62,
      "hit": false,
      "t": 188437.5,
      "d": 537.5,
      "v": 57
    },
    {
      "midi": 65,
      "hit": false,
      "t": 188625,
      "d": 321.875,
      "v": 38
    },
    {
      "midi": 67,
      "hit": false,
      "t": 188812.5,
      "d": 134.375,
      "v": 40
    },
    {
      "midi": 48,
      "hit": false,
      "t": 189000,
      "d": 375,
      "v": 45
    },
    {
      "midi": 55,
      "hit": false,
      "t": 189000,
      "d": 375,
      "v": 57
    },
    {
      "midi": 60,
      "hit": false,
      "t": 189000,
      "d": 375,
      "v": 60
    },
    {
      "midi": 67,
      "hit": false,
      "t": 189000,
      "d": 375,
      "v": 72
    },
    {
      "midi": 44,
      "hit": false,
      "t": 189562.5,
      "d": 556.25,
      "v": 45
    },
    {
      "midi": 60,
      "hit": false,
      "t": 189562.5,
      "d": 556.25,
      "v": 57
    },
    {
      "midi": 63,
      "hit": false,
      "t": 189562.5,
      "d": 556.25,
      "v": 60
    },
    {
      "midi": 72,
      "hit": false,
      "t": 189562.5,
      "d": 556.25,
      "v": 72
    },
    {
      "midi": 55,
      "hit": false,
      "t": 190125,
      "d": 375,
      "v": 57
    },
    {
      "midi": 59,
      "hit": false,
      "t": 190125,
      "d": 375,
      "v": 60
    },
    {
      "midi": 62,
      "hit": false,
      "t": 190125,
      "d": 375,
      "v": 72
    },
    {
      "midi": 60,
      "hit": false,
      "t": 192000,
      "d": 831.25,
      "v": 55
    },
    {
      "midi": 41,
      "hit": false,
      "t": 192000,
      "d": 1346.875,
      "v": 66
    },
    {
      "midi": 65,
      "hit": false,
      "t": 192187.5,
      "d": 834.375,
      "v": 70
    },
    {
      "midi": 68,
      "hit": false,
      "t": 192375,
      "d": 418.75,
      "v": 72
    },
    {
      "midi": 56,
      "hit": false,
      "t": 192562.5,
      "d": 781.25,
      "v": 70
    },
    {
      "midi": 60,
      "hit": false,
      "t": 192937.5,
      "d": 381.25,
      "v": 70
    },
    {
      "midi": 65,
      "hit": false,
      "t": 193125,
      "d": 143.75,
      "v": 82
    },
    {
      "midi": 43,
      "hit": false,
      "t": 193687.5,
      "d": 1312.5,
      "v": 68
    },
    {
      "midi": 55,
      "hit": false,
      "t": 193781.25,
      "d": 525,
      "v": 80
    },
    {
      "midi": 59,
      "hit": false,
      "t": 193875,
      "d": 612.5,
      "v": 82
    },
    {
      "midi": 62,
      "hit": false,
      "t": 194062.5,
      "d": 337.5,
      "v": 93
    },
    {
      "midi": 65,
      "hit": false,
      "t": 194250,
      "d": 725,
      "v": 82
    },
    {
      "midi": 55,
      "hit": false,
      "t": 194437.5,
      "d": 562.5,
      "v": 87
    },
    {
      "midi": 59,
      "hit": false,
      "t": 194625,
      "d": 350,
      "v": 82
    },
    {
      "midi": 62,
      "hit": false,
      "t": 194812.5,
      "d": 134.375,
      "v": 78
    },
    {
      "midi": 56,
      "hit": false,
      "t": 195000,
      "d": 712.5,
      "v": 57
    },
    {
      "midi": 60,
      "hit": false,
      "t": 195000,
      "d": 734.375,
      "v": 60
    },
    {
      "midi": 68,
      "hit": false,
      "t": 195000,
      "d": 734.375,
      "v": 72
    },
    {
      "midi": 41,
      "hit": false,
      "t": 195000,
      "d": 750,
      "v": 45
    },
    {
      "midi": 57,
      "hit": false,
      "t": 195750,
      "d": 340.625,
      "v": 70
    },
    {
      "midi": 69,
      "hit": false,
      "t": 195750,
      "d": 743.75,
      "v": 63
    },
    {
      "midi": 65,
      "hit": false,
      "t": 195750,
      "d": 750,
      "v": 74
    },
    {
      "midi": 57,
      "hit": false,
      "t": 196125,
      "d": 375,
      "v": 68
    },
    {
      "midi": 60,
      "hit": false,
      "t": 196312.5,
      "d": 162.5,
      "v": 70
    },
    {
      "midi": 55,
      "hit": false,
      "t": 196500,
      "d": 712.5,
      "v": 57
    },
    {
      "midi": 59,
      "hit": false,
      "t": 196500,
      "d": 734.375,
      "v": 60
    },
    {
      "midi": 65,
      "hit": false,
      "t": 196500,
      "d": 734.375,
      "v": 72
    },
    {
      "midi": 67,
      "hit": false,
      "t": 196500,
      "d": 734.375,
      "v": 68
    },
    {
      "midi": 43,
      "hit": false,
      "t": 196500,
      "d": 750,
      "v": 45
    },
    {
      "midi": 55,
      "hit": false,
      "t": 197437.5,
      "d": 96.875,
      "v": 76
    },
    {
      "midi": 60,
      "hit": false,
      "t": 197437.5,
      "d": 96.875,
      "v": 76
    },
    {
      "midi": 63,
      "hit": false,
      "t": 197437.5,
      "d": 96.875,
      "v": 76
    },
    {
      "midi": 56,
      "hit": false,
      "t": 198000,
      "d": 712.5,
      "v": 57
    },
    {
      "midi": 60,
      "hit": false,
      "t": 198000,
      "d": 734.375,
      "v": 60
    },
    {
      "midi": 68,
      "hit": false,
      "t": 198000,
      "d": 734.375,
      "v": 72
    },
    {
      "midi": 41,
      "hit": false,
      "t": 198000,
      "d": 750,
      "v": 45
    },
    {
      "midi": 57,
      "hit": false,
      "t": 198750,
      "d": 746.875,
      "v": 64
    },
    {
      "midi": 60,
      "hit": false,
      "t": 198937.5,
      "d": 537.5,
      "v": 57
    },
    {
      "midi": 65,
      "hit": false,
      "t": 199125,
      "d": 321.875,
      "v": 38
    },
    {
      "midi": 69,
      "hit": false,
      "t": 199312.5,
      "d": 134.375,
      "v": 40
    },
    {
      "midi": 59,
      "hit": false,
      "t": 199500,
      "d": 746.875,
      "v": 64
    },
    {
      "midi": 62,
      "hit": false,
      "t": 199687.5,
      "d": 537.5,
      "v": 57
    },
    {
      "midi": 65,
      "hit": false,
      "t": 199875,
      "d": 321.875,
      "v": 38
    },
    {
      "midi": 67,
      "hit": false,
      "t": 200062.5,
      "d": 134.375,
      "v": 40
    },
    {
      "midi": 55,
      "hit": false,
      "t": 200250,
      "d": 746.875,
      "v": 64
    },
    {
      "midi": 60,
      "hit": false,
      "t": 200437.5,
      "d": 537.5,
      "v": 57
    },
    {
      "midi": 63,
      "hit": false,
      "t": 200625,
      "d": 321.875,
      "v": 38
    },
    {
      "midi": 67,
      "hit": false,
      "t": 200812.5,
      "d": 134.375,
      "v": 40
    },
    {
      "midi": 56,
      "hit": false,
      "t": 201187.5,
      "d": 459.375,
      "v": 57
    },
    {
      "midi": 62,
      "hit": false,
      "t": 201375,
      "d": 278.125,
      "v": 85
    },
    {
      "midi": 62,
      "hit": false,
      "t": 201750,
      "d": 125,
      "v": 68
    },
    {
      "midi": 65,
      "hit": false,
      "t": 201750,
      "d": 125,
      "v": 68
    },
    {
      "midi": 70,
      "hit": false,
      "t": 201750,
      "d": 125,
      "v": 68
    },
    {
      "midi": 60,
      "hit": false,
      "t": 201937.5,
      "d": 475,
      "v": 82
    },
    {
      "midi": 62,
      "hit": false,
      "t": 201937.5,
      "d": 475,
      "v": 82
    },
    {
      "midi": 65,
      "hit": false,
      "t": 201937.5,
      "d": 475,
      "v": 82
    },
    {
      "midi": 68,
      "hit": false,
      "t": 201937.5,
      "d": 475,
      "v": 82
    },
    {
      "midi": 60,
      "hit": false,
      "t": 202687.5,
      "d": 784.375,
      "v": 49
    },
    {
      "midi": 63,
      "hit": false,
      "t": 202687.5,
      "d": 834.375,
      "v": 57
    },
    {
      "midi": 67,
      "hit": false,
      "t": 202687.5,
      "d": 918.75,
      "v": 68
    },
    {
      "midi": 48,
      "hit": false,
      "t": 202687.5,
      "d": 1312.5,
      "v": 62
    },
    {
      "midi": 55,
      "hit": false,
      "t": 203437.5,
      "d": 528.125,
      "v": 80
    },
    {
      "midi": 60,
      "hit": false,
      "t": 203531.25,
      "d": 421.875,
      "v": 74
    },
    {
      "midi": 63,
      "hit": false,
      "t": 203718.75,
      "d": 234.375,
      "v": 74
    },
    {
      "midi": 67,
      "hit": false,
      "t": 203812.5,
      "d": 96.875,
      "v": 100
    },
    {
      "midi": 55,
      "hit": false,
      "t": 204000,
      "d": 712.5,
      "v": 57
    },
    {
      "midi": 59,
      "hit": false,
      "t": 204000,
      "d": 734.375,
      "v": 60
    },
    {
      "midi": 65,
      "hit": false,
      "t": 204000,
      "d": 734.375,
      "v": 72
    },
    {
      "midi": 67,
      "hit": false,
      "t": 204000,
      "d": 734.375,
      "v": 68
    },
    {
      "midi": 36,
      "hit": false,
      "t": 204000,
      "d": 750,
      "v": 45
    },
    {
      "midi": 58,
      "hit": false,
      "t": 204750,
      "d": 746.875,
      "v": 64
    },
    {
      "midi": 60,
      "hit": false,
      "t": 204937.5,
      "d": 537.5,
      "v": 57
    },
    {
      "midi": 64,
      "hit": false,
      "t": 205125,
      "d": 321.875,
      "v": 38
    },
    {
      "midi": 67,
      "hit": false,
      "t": 205312.5,
      "d": 134.375,
      "v": 40
    },
    {
      "midi": 56,
      "hit": false,
      "t": 205687.5,
      "d": 96.875,
      "v": 76
    },
    {
      "midi": 60,
      "hit": false,
      "t": 205687.5,
      "d": 96.875,
      "v": 76
    },
    {
      "midi": 65,
      "hit": false,
      "t": 205687.5,
      "d": 96.875,
      "v": 76
    },
    {
      "midi": 55,
      "hit": false,
      "t": 206250,
      "d": 712.5,
      "v": 57
    },
    {
      "midi": 58,
      "hit": false,
      "t": 206250,
      "d": 734.375,
      "v": 60
    },
    {
      "midi": 64,
      "hit": false,
      "t": 206250,
      "d": 734.375,
      "v": 72
    },
    {
      "midi": 67,
      "hit": false,
      "t": 206250,
      "d": 734.375,
      "v": 68
    },
    {
      "midi": 48,
      "hit": false,
      "t": 206250,
      "d": 750,
      "v": 45
    },
    {
      "midi": 56,
      "hit": false,
      "t": 207000,
      "d": 746.875,
      "v": 64
    },
    {
      "midi": 60,
      "hit": false,
      "t": 207187.5,
      "d": 537.5,
      "v": 57
    },
    {
      "midi": 65,
      "hit": false,
      "t": 207375,
      "d": 321.875,
      "v": 38
    },
    {
      "midi": 68,
      "hit": false,
      "t": 207562.5,
      "d": 134.375,
      "v": 40
    },
    {
      "midi": 55,
      "hit": false,
      "t": 207750,
      "d": 712.5,
      "v": 57
    },
    {
      "midi": 59,
      "hit": false,
      "t": 207750,
      "d": 734.375,
      "v": 60
    },
    {
      "midi": 65,
      "hit": false,
      "t": 207750,
      "d": 734.375,
      "v": 72
    },
    {
      "midi": 67,
      "hit": false,
      "t": 207750,
      "d": 734.375,
      "v": 68
    },
    {
      "midi": 36,
      "hit": false,
      "t": 207750,
      "d": 750,
      "v": 45
    },
    {
      "midi": 59,
      "hit": false,
      "t": 208687.5,
      "d": 96.875,
      "v": 76
    },
    {
      "midi": 62,
      "hit": false,
      "t": 208687.5,
      "d": 96.875,
      "v": 76
    },
    {
      "midi": 65,
      "hit": false,
      "t": 208687.5,
      "d": 96.875,
      "v": 76
    },
    {
      "midi": 67,
      "hit": false,
      "t": 208687.5,
      "d": 96.875,
      "v": 76
    },
    {
      "midi": 48,
      "hit": false,
      "t": 209437.5,
      "d": 1312.5,
      "v": 68
    },
    {
      "midi": 55,
      "hit": false,
      "t": 209531.25,
      "d": 525,
      "v": 80
    },
    {
      "midi": 60,
      "hit": false,
      "t": 209625,
      "d": 612.5,
      "v": 82
    },
    {
      "midi": 63,
      "hit": false,
      "t": 209812.5,
      "d": 337.5,
      "v": 93
    },
    {
      "midi": 67,
      "hit": false,
      "t": 210000,
      "d": 725,
      "v": 82
    },
    {
      "midi": 55,
      "hit": false,
      "t": 210187.5,
      "d": 562.5,
      "v": 87
    },
    {
      "midi": 60,
      "hit": false,
      "t": 210375,
      "d": 350,
      "v": 82
    },
    {
      "midi": 63,
      "hit": false,
      "t": 210562.5,
      "d": 134.375,
      "v": 78
    },
    {
      "midi": 58,
      "hit": false,
      "t": 211125,
      "d": 240.625,
      "v": 66
    },
    {
      "midi": 62,
      "hit": false,
      "t": 211125,
      "d": 240.625,
      "v": 66
    },
    {
      "midi": 65,
      "hit": false,
      "t": 211125,
      "d": 240.625,
      "v": 66
    },
    {
      "midi": 58,
      "hit": false,
      "t": 211500,
      "d": 128.125,
      "v": 85
    },
    {
      "midi": 63,
      "hit": false,
      "t": 211500,
      "d": 128.125,
      "v": 85
    },
    {
      "midi": 67,
      "hit": false,
      "t": 211500,
      "d": 128.125,
      "v": 85
    },
    {
      "midi": 58,
      "hit": false,
      "t": 211687.5,
      "d": 75,
      "v": 80
    },
    {
      "midi": 62,
      "hit": false,
      "t": 211687.5,
      "d": 75,
      "v": 80
    },
    {
      "midi": 65,
      "hit": false,
      "t": 211687.5,
      "d": 75,
      "v": 80
    },
    {
      "midi": 60,
      "hit": false,
      "t": 212437.5,
      "d": 459.375,
      "v": 57
    },
    {
      "midi": 68,
      "hit": false,
      "t": 212625,
      "d": 278.125,
      "v": 85
    },
    {
      "midi": 56,
      "hit": false,
      "t": 213000,
      "d": 125,
      "v": 68
    },
    {
      "midi": 61,
      "hit": false,
      "t": 213000,
      "d": 125,
      "v": 68
    },
    {
      "midi": 65,
      "hit": false,
      "t": 213000,
      "d": 125,
      "v": 68
    },
    {
      "midi": 56,
      "hit": false,
      "t": 213187.5,
      "d": 475,
      "v": 82
    },
    {
      "midi": 60,
      "hit": false,
      "t": 213187.5,
      "d": 475,
      "v": 82
    },
    {
      "midi": 63,
      "hit": false,
      "t": 213187.5,
      "d": 475,
      "v": 82
    },
    {
      "midi": 59,
      "hit": false,
      "t": 213750,
      "d": 731.25,
      "v": 63
    },
    {
      "midi": 62,
      "hit": false,
      "t": 213750,
      "d": 793.75,
      "v": 63
    },
    {
      "midi": 67,
      "hit": false,
      "t": 213750,
      "d": 800,
      "v": 72
    },
    {
      "midi": 71,
      "hit": false,
      "t": 213750,
      "d": 1021.875,
      "v": 72
    },
    {
      "midi": 43,
      "hit": false,
      "t": 213750,
      "d": 1400,
      "v": 68
    },
    {
      "midi": 62,
      "hit": false,
      "t": 214687.5,
      "d": 56.25,
      "v": 58
    },
    {
      "midi": 67,
      "hit": false,
      "t": 214687.5,
      "d": 59.375,
      "v": 72
    },
    {
      "midi": 62,
      "hit": false,
      "t": 214875,
      "d": 56.25,
      "v": 82
    },
    {
      "midi": 67,
      "hit": false,
      "t": 214875,
      "d": 62.5,
      "v": 80
    },
    {
      "midi": 71,
      "hit": false,
      "t": 214875,
      "d": 115.625,
      "v": 62
    },
    {
      "midi": 62,
      "hit": false,
      "t": 215062.5,
      "d": 53.125,
      "v": 68
    },
    {
      "midi": 67,
      "hit": false,
      "t": 215062.5,
      "d": 62.5,
      "v": 70
    },
    {
      "midi": 71,
      "hit": false,
      "t": 215062.5,
      "d": 68.75,
      "v": 61
    },
    {
      "midi": 55,
      "hit": false,
      "t": 215250,
      "d": 853.125,
      "v": 68
    },
    {
      "midi": 60,
      "hit": false,
      "t": 215250,
      "d": 900,
      "v": 66
    },
    {
      "midi": 63,
      "hit": false,
      "t": 215250,
      "d": 968.75,
      "v": 80
    },
    {
      "midi": 67,
      "hit": false,
      "t": 215250,
      "d": 1300,
      "v": 76
    },
    {
      "midi": 55,
      "hit": false,
      "t": 216187.5,
      "d": 212.5,
      "v": 80
    },
    {
      "midi": 60,
      "hit": false,
      "t": 216375,
      "d": 106.25,
      "v": 98
    },
    {
      "midi": 58,
      "hit": false,
      "t": 216937.5,
      "d": 784.375,
      "v": 49
    },
    {
      "midi": 62,
      "hit": false,
      "t": 216937.5,
      "d": 834.375,
      "v": 57
    },
    {
      "midi": 65,
      "hit": false,
      "t": 216937.5,
      "d": 918.75,
      "v": 68
    },
    {
      "midi": 46,
      "hit": false,
      "t": 216937.5,
      "d": 1312.5,
      "v": 62
    },
    {
      "midi": 53,
      "hit": false,
      "t": 217687.5,
      "d": 528.125,
      "v": 80
    },
    {
      "midi": 58,
      "hit": false,
      "t": 217781.25,
      "d": 421.875,
      "v": 74
    },
    {
      "midi": 62,
      "hit": false,
      "t": 217968.75,
      "d": 234.375,
      "v": 74
    },
    {
      "midi": 65,
      "hit": false,
      "t": 218062.5,
      "d": 96.875,
      "v": 100
    },
    {
      "midi": 63,
      "hit": false,
      "t": 218437.5,
      "d": 784.375,
      "v": 49
    },
    {
      "midi": 68,
      "hit": false,
      "t": 218437.5,
      "d": 834.375,
      "v": 57
    },
    {
      "midi": 72,
      "hit": false,
      "t": 218437.5,
      "d": 918.75,
      "v": 68
    },
    {
      "midi": 44,
      "hit": false,
      "t": 218437.5,
      "d": 1312.5,
      "v": 62
    },
    {
      "midi": 60,
      "hit": false,
      "t": 219187.5,
      "d": 528.125,
      "v": 80
    },
    {
      "midi": 63,
      "hit": false,
      "t": 219281.25,
      "d": 421.875,
      "v": 74
    },
    {
      "midi": 68,
      "hit": false,
      "t": 219468.75,
      "d": 234.375,
      "v": 74
    },
    {
      "midi": 72,
      "hit": false,
      "t": 219562.5,
      "d": 96.875,
      "v": 100
    },
    {
      "midi": 43,
      "hit": false,
      "t": 219937.5,
      "d": 1312.5,
      "v": 68
    },
    {
      "midi": 59,
      "hit": false,
      "t": 220031.25,
      "d": 525,
      "v": 80
    },
    {
      "midi": 62,
      "hit": false,
      "t": 220125,
      "d": 612.5,
      "v": 82
    },
    {
      "midi": 67,
      "hit": false,
      "t": 220312.5,
      "d": 337.5,
      "v": 93
    },
    {
      "midi": 71,
      "hit": false,
      "t": 220500,
      "d": 725,
      "v": 82
    },
    {
      "midi": 59,
      "hit": false,
      "t": 220687.5,
      "d": 562.5,
      "v": 87
    },
    {
      "midi": 62,
      "hit": false,
      "t": 220875,
      "d": 350,
      "v": 82
    },
    {
      "midi": 67,
      "hit": false,
      "t": 221062.5,
      "d": 134.375,
      "v": 78
    }
  ]
}