{
  "jsonPath": "Rock/Rock-And-Roll/The Ventures/fruit-of-summer.json",
  "path": "Rock\\Rock-And-Roll\\The Ventures\\Fruit of Summer.mid",
  "name": "Fruit of Summer",
  "difficulty": "Advanced",
  "bpm": 100,
  "notes": [
    {
      "midi": 59,
      "hit": false,
      "t": 32625,
      "d": 1062.5,
      "v": 93
    },
    {
      "midi": 62,
      "hit": false,
      "t": 33031.25,
      "d": 1062.5,
      "v": 101
    },
    {
      "midi": 67,
      "hit": false,
      "t": 33062.5,
      "d": 1062.5,
      "v": 101
    },
    {
      "midi": 59,
      "hit": false,
      "t": 33750,
      "d": 593.75,
      "v": 87
    },
    {
      "midi": 59,
      "hit": false,
      "t": 34500,
      "d": 1062.5,
      "v": 96
    },
    {
      "midi": 62,
      "hit": false,
      "t": 34531.25,
      "d": 593.75,
      "v": 91
    },
    {
      "midi": 67,
      "hit": false,
      "t": 34562.5,
      "d": 593.75,
      "v": 91
    },
    {
      "midi": 62,
      "hit": false,
      "t": 35281.25,
      "d": 1062.5,
      "v": 96
    },
    {
      "midi": 67,
      "hit": false,
      "t": 35312.5,
      "d": 1062.5,
      "v": 96
    },
    {
      "midi": 59,
      "hit": false,
      "t": 36000,
      "d": 593.75,
      "v": 89
    },
    {
      "midi": 59,
      "hit": false,
      "t": 36750,
      "d": 593.75,
      "v": 95
    },
    {
      "midi": 62,
      "hit": false,
      "t": 36781.25,
      "d": 593.75,
      "v": 99
    },
    {
      "midi": 67,
      "hit": false,
      "t": 36812.5,
      "d": 593.75,
      "v": 99
    },
    {
      "midi": 59,
      "hit": false,
      "t": 37500,
      "d": 593.75,
      "v": 88
    },
    {
      "midi": 62,
      "hit": false,
      "t": 37531.25,
      "d": 593.75,
      "v": 91
    },
    {
      "midi": 67,
      "hit": false,
      "t": 37562.5,
      "d": 593.75,
      "v": 91
    },
    {
      "midi": 59,
      "hit": false,
      "t": 38250,
      "d": 1062.5,
      "v": 86
    },
    {
      "midi": 62,
      "hit": false,
      "t": 38281.25,
      "d": 593.75,
      "v": 86
    },
    {
      "midi": 67,
      "hit": false,
      "t": 38312.5,
      "d": 593.75,
      "v": 86
    },
    {
      "midi": 62,
      "hit": false,
      "t": 39031.25,
      "d": 1062.5,
      "v": 90
    },
    {
      "midi": 66,
      "hit": false,
      "t": 39062.5,
      "d": 1062.5,
      "v": 90
    },
    {
      "midi": 57,
      "hit": false,
      "t": 39750,
      "d": 593.75,
      "v": 86
    },
    {
      "midi": 57,
      "hit": false,
      "t": 40500,
      "d": 1062.5,
      "v": 99
    },
    {
      "midi": 62,
      "hit": false,
      "t": 40531.25,
      "d": 593.75,
      "v": 100
    },
    {
      "midi": 66,
      "hit": false,
      "t": 40562.5,
      "d": 593.75,
      "v": 100
    },
    {
      "midi": 62,
      "hit": false,
      "t": 41281.25,
      "d": 1062.5,
      "v": 89
    },
    {
      "midi": 66,
      "hit": false,
      "t": 41312.5,
      "d": 1062.5,
      "v": 89
    },
    {
      "midi": 57,
      "hit": false,
      "t": 42000,
      "d": 593.75,
      "v": 93
    },
    {
      "midi": 57,
      "hit": false,
      "t": 42750,
      "d": 593.75,
      "v": 91
    },
    {
      "midi": 62,
      "hit": false,
      "t": 42781.25,
      "d": 593.75,
      "v": 86
    },
    {
      "midi": 66,
      "hit": false,
      "t": 42812.5,
      "d": 593.75,
      "v": 86
    },
    {
      "midi": 57,
      "hit": false,
      "t": 43500,
      "d": 593.75,
      "v": 90
    },
    {
      "midi": 62,
      "hit": false,
      "t": 43531.25,
      "d": 593.75,
      "v": 87
    },
    {
      "midi": 66,
      "hit": false,
      "t": 43562.5,
      "d": 593.75,
      "v": 87
    },
    {
      "midi": 59,
      "hit": false,
      "t": 44250,
      "d": 1062.5,
      "v": 95
    },
    {
      "midi": 62,
      "hit": false,
      "t": 44281.25,
      "d": 593.75,
      "v": 101
    },
    {
      "midi": 66,
      "hit": false,
      "t": 44312.5,
      "d": 593.75,
      "v": 101
    },
    {
      "midi": 62,
      "hit": false,
      "t": 45031.25,
      "d": 1062.5,
      "v": 99
    },
    {
      "midi": 67,
      "hit": false,
      "t": 45062.5,
      "d": 1062.5,
      "v": 99
    },
    {
      "midi": 59,
      "hit": false,
      "t": 45750,
      "d": 593.75,
      "v": 100
    },
    {
      "midi": 59,
      "hit": false,
      "t": 46500,
      "d": 1062.5,
      "v": 101
    },
    {
      "midi": 62,
      "hit": false,
      "t": 46531.25,
      "d": 593.75,
      "v": 98
    },
    {
      "midi": 67,
      "hit": false,
      "t": 46562.5,
      "d": 593.75,
      "v": 98
    },
    {
      "midi": 62,
      "hit": false,
      "t": 47281.25,
      "d": 1062.5,
      "v": 91
    },
    {
      "midi": 67,
      "hit": false,
      "t": 47312.5,
      "d": 1062.5,
      "v": 91
    },
    {
      "midi": 59,
      "hit": false,
      "t": 48000,
      "d": 593.75,
      "v": 94
    },
    {
      "midi": 59,
      "hit": false,
      "t": 48750,
      "d": 593.75,
      "v": 98
    },
    {
      "midi": 62,
      "hit": false,
      "t": 48781.25,
      "d": 593.75,
      "v": 88
    },
    {
      "midi": 67,
      "hit": false,
      "t": 48812.5,
      "d": 593.75,
      "v": 88
    },
    {
      "midi": 57,
      "hit": false,
      "t": 49500,
      "d": 593.75,
      "v": 93
    },
    {
      "midi": 62,
      "hit": false,
      "t": 49531.25,
      "d": 593.75,
      "v": 97
    },
    {
      "midi": 67,
      "hit": false,
      "t": 49562.5,
      "d": 593.75,
      "v": 97
    },
    {
      "midi": 57,
      "hit": false,
      "t": 50250,
      "d": 1062.5,
      "v": 103
    },
    {
      "midi": 62,
      "hit": false,
      "t": 50281.25,
      "d": 593.75,
      "v": 89
    },
    {
      "midi": 67,
      "hit": false,
      "t": 50312.5,
      "d": 593.75,
      "v": 89
    },
    {
      "midi": 64,
      "hit": false,
      "t": 51031.25,
      "d": 1062.5,
      "v": 101
    },
    {
      "midi": 57,
      "hit": false,
      "t": 51750,
      "d": 593.75,
      "v": 103
    },
    {
      "midi": 57,
      "hit": false,
      "t": 52500,
      "d": 1062.5,
      "v": 89
    },
    {
      "midi": 64,
      "hit": false,
      "t": 52531.25,
      "d": 593.75,
      "v": 90
    },
    {
      "midi": 64,
      "hit": false,
      "t": 53281.25,
      "d": 1062.5,
      "v": 93
    },
    {
      "midi": 57,
      "hit": false,
      "t": 54000,
      "d": 593.75,
      "v": 93
    },
    {
      "midi": 57,
      "hit": false,
      "t": 54750,
      "d": 593.75,
      "v": 88
    },
    {
      "midi": 64,
      "hit": false,
      "t": 54781.25,
      "d": 593.75,
      "v": 92
    },
    {
      "midi": 57,
      "hit": false,
      "t": 55500,
      "d": 593.75,
      "v": 103
    },
    {
      "midi": 64,
      "hit": false,
      "t": 55531.25,
      "d": 593.75,
      "v": 86
    },
    {
      "midi": 57,
      "hit": false,
      "t": 56250,
      "d": 1062.5,
      "v": 102
    },
    {
      "midi": 64,
      "hit": false,
      "t": 56281.25,
      "d": 593.75,
      "v": 95
    },
    {
      "midi": 62,
      "hit": false,
      "t": 57031.25,
      "d": 1062.5,
      "v": 86
    },
    {
      "midi": 66,
      "hit": false,
      "t": 57062.5,
      "d": 1062.5,
      "v": 103
    },
    {
      "midi": 57,
      "hit": false,
      "t": 57750,
      "d": 593.75,
      "v": 94
    },
    {
      "midi": 57,
      "hit": false,
      "t": 58500,
      "d": 1062.5,
      "v": 95
    },
    {
      "midi": 62,
      "hit": false,
      "t": 58531.25,
      "d": 593.75,
      "v": 95
    },
    {
      "midi": 66,
      "hit": false,
      "t": 58562.5,
      "d": 593.75,
      "v": 88
    },
    {
      "midi": 62,
      "hit": false,
      "t": 59281.25,
      "d": 1062.5,
      "v": 90
    },
    {
      "midi": 66,
      "hit": false,
      "t": 59312.5,
      "d": 1062.5,
      "v": 94
    },
    {
      "midi": 57,
      "hit": false,
      "t": 60000,
      "d": 593.75,
      "v": 92
    },
    {
      "midi": 57,
      "hit": false,
      "t": 60750,
      "d": 593.75,
      "v": 87
    },
    {
      "midi": 62,
      "hit": false,
      "t": 60781.25,
      "d": 593.75,
      "v": 92
    },
    {
      "midi": 66,
      "hit": false,
      "t": 60812.5,
      "d": 593.75,
      "v": 86
    },
    {
      "midi": 57,
      "hit": false,
      "t": 61500,
      "d": 593.75,
      "v": 88
    },
    {
      "midi": 62,
      "hit": false,
      "t": 61531.25,
      "d": 593.75,
      "v": 94
    },
    {
      "midi": 66,
      "hit": false,
      "t": 61562.5,
      "d": 593.75,
      "v": 89
    },
    {
      "midi": 57,
      "hit": false,
      "t": 62250,
      "d": 1062.5,
      "v": 92
    },
    {
      "midi": 62,
      "hit": false,
      "t": 62281.25,
      "d": 593.75,
      "v": 93
    },
    {
      "midi": 66,
      "hit": false,
      "t": 62312.5,
      "d": 593.75,
      "v": 99
    },
    {
      "midi": 61,
      "hit": false,
      "t": 63031.25,
      "d": 1062.5,
      "v": 96
    },
    {
      "midi": 64,
      "hit": false,
      "t": 63062.5,
      "d": 1062.5,
      "v": 90
    },
    {
      "midi": 57,
      "hit": false,
      "t": 63750,
      "d": 593.75,
      "v": 97
    },
    {
      "midi": 57,
      "hit": false,
      "t": 64500,
      "d": 1062.5,
      "v": 87
    },
    {
      "midi": 61,
      "hit": false,
      "t": 64531.25,
      "d": 593.75,
      "v": 89
    },
    {
      "midi": 64,
      "hit": false,
      "t": 64562.5,
      "d": 593.75,
      "v": 98
    },
    {
      "midi": 61,
      "hit": false,
      "t": 65281.25,
      "d": 1062.5,
      "v": 87
    },
    {
      "midi": 64,
      "hit": false,
      "t": 65312.5,
      "d": 1062.5,
      "v": 95
    },
    {
      "midi": 57,
      "hit": false,
      "t": 66000,
      "d": 593.75,
      "v": 87
    },
    {
      "midi": 57,
      "hit": false,
      "t": 66750,
      "d": 593.75,
      "v": 87
    },
    {
      "midi": 61,
      "hit": false,
      "t": 66781.25,
      "d": 593.75,
      "v": 102
    },
    {
      "midi": 64,
      "hit": false,
      "t": 66812.5,
      "d": 593.75,
      "v": 103
    },
    {
      "midi": 57,
      "hit": false,
      "t": 67500,
      "d": 593.75,
      "v": 102
    },
    {
      "midi": 61,
      "hit": false,
      "t": 67531.25,
      "d": 593.75,
      "v": 91
    },
    {
      "midi": 64,
      "hit": false,
      "t": 67562.5,
      "d": 593.75,
      "v": 89
    },
    {
      "midi": 57,
      "hit": false,
      "t": 68250,
      "d": 1062.5,
      "v": 90
    },
    {
      "midi": 61,
      "hit": false,
      "t": 68281.25,
      "d": 593.75,
      "v": 92
    },
    {
      "midi": 64,
      "hit": false,
      "t": 68312.5,
      "d": 593.75,
      "v": 90
    },
    {
      "midi": 62,
      "hit": false,
      "t": 69031.25,
      "d": 1062.5,
      "v": 103
    },
    {
      "midi": 66,
      "hit": false,
      "t": 69062.5,
      "d": 1062.5,
      "v": 95
    },
    {
      "midi": 57,
      "hit": false,
      "t": 69750,
      "d": 593.75,
      "v": 98
    },
    {
      "midi": 57,
      "hit": false,
      "t": 70500,
      "d": 1062.5,
      "v": 99
    },
    {
      "midi": 62,
      "hit": false,
      "t": 70531.25,
      "d": 593.75,
      "v": 89
    },
    {
      "midi": 66,
      "hit": false,
      "t": 70562.5,
      "d": 593.75,
      "v": 87
    },
    {
      "midi": 62,
      "hit": false,
      "t": 71281.25,
      "d": 1062.5,
      "v": 96
    },
    {
      "midi": 66,
      "hit": false,
      "t": 71312.5,
      "d": 1062.5,
      "v": 103
    },
    {
      "midi": 57,
      "hit": false,
      "t": 72000,
      "d": 593.75,
      "v": 98
    },
    {
      "midi": 57,
      "hit": false,
      "t": 72750,
      "d": 593.75,
      "v": 92
    },
    {
      "midi": 62,
      "hit": false,
      "t": 72781.25,
      "d": 593.75,
      "v": 91
    },
    {
      "midi": 66,
      "hit": false,
      "t": 72812.5,
      "d": 593.75,
      "v": 100
    },
    {
      "midi": 57,
      "hit": false,
      "t": 73500,
      "d": 593.75,
      "v": 95
    },
    {
      "midi": 62,
      "hit": false,
      "t": 73531.25,
      "d": 593.75,
      "v": 94
    },
    {
      "midi": 66,
      "hit": false,
      "t": 73562.5,
      "d": 593.75,
      "v": 94
    },
    {
      "midi": 57,
      "hit": false,
      "t": 74250,
      "d": 1062.5,
      "v": 86
    },
    {
      "midi": 62,
      "hit": false,
      "t": 74281.25,
      "d": 593.75,
      "v": 94
    },
    {
      "midi": 66,
      "hit": false,
      "t": 74312.5,
      "d": 593.75,
      "v": 102
    },
    {
      "midi": 61,
      "hit": false,
      "t": 75031.25,
      "d": 1062.5,
      "v": 88
    },
    {
      "midi": 66,
      "hit": false,
      "t": 75062.5,
      "d": 1062.5,
      "v": 88
    },
    {
      "midi": 57,
      "hit": false,
      "t": 75750,
      "d": 593.75,
      "v": 99
    },
    {
      "midi": 57,
      "hit": false,
      "t": 76500,
      "d": 1062.5,
      "v": 89
    },
    {
      "midi": 61,
      "hit": false,
      "t": 76531.25,
      "d": 593.75,
      "v": 99
    },
    {
      "midi": 66,
      "hit": false,
      "t": 76562.5,
      "d": 593.75,
      "v": 94
    },
    {
      "midi": 61,
      "hit": false,
      "t": 77281.25,
      "d": 1062.5,
      "v": 90
    },
    {
      "midi": 66,
      "hit": false,
      "t": 77312.5,
      "d": 1062.5,
      "v": 96
    },
    {
      "midi": 57,
      "hit": false,
      "t": 78000,
      "d": 593.75,
      "v": 103
    },
    {
      "midi": 57,
      "hit": false,
      "t": 78750,
      "d": 593.75,
      "v": 92
    },
    {
      "midi": 61,
      "hit": false,
      "t": 78781.25,
      "d": 593.75,
      "v": 98
    },
    {
      "midi": 66,
      "hit": false,
      "t": 78812.5,
      "d": 593.75,
      "v": 97
    },
    {
      "midi": 57,
      "hit": false,
      "t": 79500,
      "d": 593.75,
      "v": 89
    },
    {
      "midi": 61,
      "hit": false,
      "t": 79531.25,
      "d": 593.75,
      "v": 100
    },
    {
      "midi": 66,
      "hit": false,
      "t": 79562.5,
      "d": 593.75,
      "v": 99
    },
    {
      "midi": 57,
      "hit": false,
      "t": 80250,
      "d": 1062.5,
      "v": 91
    },
    {
      "midi": 61,
      "hit": false,
      "t": 80281.25,
      "d": 593.75,
      "v": 94
    },
    {
      "midi": 66,
      "hit": false,
      "t": 80312.5,
      "d": 593.75,
      "v": 93
    },
    {
      "midi": 62,
      "hit": false,
      "t": 81031.25,
      "d": 1062.5,
      "v": 98
    },
    {
      "midi": 67,
      "hit": false,
      "t": 81062.5,
      "d": 1062.5,
      "v": 91
    },
    {
      "midi": 57,
      "hit": false,
      "t": 81750,
      "d": 593.75,
      "v": 100
    },
    {
      "midi": 57,
      "hit": false,
      "t": 82500,
      "d": 1062.5,
      "v": 91
    },
    {
      "midi": 62,
      "hit": false,
      "t": 82531.25,
      "d": 593.75,
      "v": 101
    },
    {
      "midi": 67,
      "hit": false,
      "t": 82562.5,
      "d": 593.75,
      "v": 90
    },
    {
      "midi": 62,
      "hit": false,
      "t": 83281.25,
      "d": 1062.5,
      "v": 86
    },
    {
      "midi": 67,
      "hit": false,
      "t": 83312.5,
      "d": 1062.5,
      "v": 94
    },
    {
      "midi": 57,
      "hit": false,
      "t": 84000,
      "d": 593.75,
      "v": 97
    },
    {
      "midi": 62,
      "hit": false,
      "t": 84781.25,
      "d": 593.75,
      "v": 103
    },
    {
      "midi": 67,
      "hit": false,
      "t": 84812.5,
      "d": 593.75,
      "v": 98
    },
    {
      "midi": 62,
      "hit": false,
      "t": 85531.25,
      "d": 593.75,
      "v": 93
    },
    {
      "midi": 67,
      "hit": false,
      "t": 85562.5,
      "d": 593.75,
      "v": 91
    },
    {
      "midi": 57,
      "hit": false,
      "t": 86250,
      "d": 1062.5,
      "v": 102
    },
    {
      "midi": 62,
      "hit": false,
      "t": 86281.25,
      "d": 593.75,
      "v": 89
    },
    {
      "midi": 64,
      "hit": false,
      "t": 86312.5,
      "d": 593.75,
      "v": 102
    },
    {
      "midi": 62,
      "hit": false,
      "t": 87031.25,
      "d": 1062.5,
      "v": 93
    },
    {
      "midi": 66,
      "hit": false,
      "t": 87062.5,
      "d": 1062.5,
      "v": 90
    },
    {
      "midi": 57,
      "hit": false,
      "t": 87750,
      "d": 593.75,
      "v": 99
    },
    {
      "midi": 57,
      "hit": false,
      "t": 88500,
      "d": 1062.5,
      "v": 96
    },
    {
      "midi": 62,
      "hit": false,
      "t": 88531.25,
      "d": 593.75,
      "v": 92
    },
    {
      "midi": 66,
      "hit": false,
      "t": 88562.5,
      "d": 593.75,
      "v": 95
    },
    {
      "midi": 62,
      "hit": false,
      "t": 89281.25,
      "d": 1062.5,
      "v": 89
    },
    {
      "midi": 66,
      "hit": false,
      "t": 89312.5,
      "d": 1062.5,
      "v": 97
    },
    {
      "midi": 57,
      "hit": false,
      "t": 90000,
      "d": 593.75,
      "v": 90
    },
    {
      "midi": 57,
      "hit": false,
      "t": 90750,
      "d": 593.75,
      "v": 96
    },
    {
      "midi": 62,
      "hit": false,
      "t": 90781.25,
      "d": 593.75,
      "v": 86
    },
    {
      "midi": 66,
      "hit": false,
      "t": 90812.5,
      "d": 593.75,
      "v": 94
    },
    {
      "midi": 57,
      "hit": false,
      "t": 91500,
      "d": 593.75,
      "v": 102
    },
    {
      "midi": 62,
      "hit": false,
      "t": 91531.25,
      "d": 593.75,
      "v": 103
    },
    {
      "midi": 66,
      "hit": false,
      "t": 91562.5,
      "d": 593.75,
      "v": 94
    },
    {
      "midi": 59,
      "hit": false,
      "t": 92250,
      "d": 1062.5,
      "v": 87
    },
    {
      "midi": 62,
      "hit": false,
      "t": 92281.25,
      "d": 593.75,
      "v": 95
    },
    {
      "midi": 66,
      "hit": false,
      "t": 92312.5,
      "d": 593.75,
      "v": 93
    },
    {
      "midi": 62,
      "hit": false,
      "t": 93031.25,
      "d": 1062.5,
      "v": 99
    },
    {
      "midi": 67,
      "hit": false,
      "t": 93062.5,
      "d": 1062.5,
      "v": 91
    },
    {
      "midi": 59,
      "hit": false,
      "t": 93750,
      "d": 593.75,
      "v": 91
    },
    {
      "midi": 59,
      "hit": false,
      "t": 94500,
      "d": 1062.5,
      "v": 86
    },
    {
      "midi": 62,
      "hit": false,
      "t": 94531.25,
      "d": 593.75,
      "v": 92
    },
    {
      "midi": 67,
      "hit": false,
      "t": 94562.5,
      "d": 593.75,
      "v": 98
    },
    {
      "midi": 62,
      "hit": false,
      "t": 95281.25,
      "d": 1062.5,
      "v": 96
    },
    {
      "midi": 67,
      "hit": false,
      "t": 95312.5,
      "d": 1062.5,
      "v": 91
    },
    {
      "midi": 59,
      "hit": false,
      "t": 96000,
      "d": 593.75,
      "v": 94
    },
    {
      "midi": 59,
      "hit": false,
      "t": 96750,
      "d": 593.75,
      "v": 98
    },
    {
      "midi": 62,
      "hit": false,
      "t": 96781.25,
      "d": 593.75,
      "v": 86
    },
    {
      "midi": 67,
      "hit": false,
      "t": 96812.5,
      "d": 593.75,
      "v": 101
    },
    {
      "midi": 57,
      "hit": false,
      "t": 97500,
      "d": 593.75,
      "v": 103
    },
    {
      "midi": 62,
      "hit": false,
      "t": 97531.25,
      "d": 593.75,
      "v": 100
    },
    {
      "midi": 67,
      "hit": false,
      "t": 97562.5,
      "d": 593.75,
      "v": 103
    },
    {
      "midi": 57,
      "hit": false,
      "t": 98250,
      "d": 1062.5,
      "v": 88
    },
    {
      "midi": 62,
      "hit": false,
      "t": 98281.25,
      "d": 593.75,
      "v": 95
    },
    {
      "midi": 67,
      "hit": false,
      "t": 98312.5,
      "d": 593.75,
      "v": 95
    },
    {
      "midi": 61,
      "hit": false,
      "t": 99031.25,
      "d": 1062.5,
      "v": 90
    },
    {
      "midi": 64,
      "hit": false,
      "t": 99062.5,
      "d": 1062.5,
      "v": 100
    },
    {
      "midi": 57,
      "hit": false,
      "t": 99750,
      "d": 593.75,
      "v": 103
    },
    {
      "midi": 57,
      "hit": false,
      "t": 100500,
      "d": 1062.5,
      "v": 86
    },
    {
      "midi": 61,
      "hit": false,
      "t": 100531.25,
      "d": 593.75,
      "v": 102
    },
    {
      "midi": 64,
      "hit": false,
      "t": 100562.5,
      "d": 593.75,
      "v": 88
    },
    {
      "midi": 61,
      "hit": false,
      "t": 101281.25,
      "d": 1062.5,
      "v": 102
    },
    {
      "midi": 64,
      "hit": false,
      "t": 101312.5,
      "d": 1062.5,
      "v": 97
    },
    {
      "midi": 57,
      "hit": false,
      "t": 102000,
      "d": 593.75,
      "v": 96
    },
    {
      "midi": 57,
      "hit": false,
      "t": 102750,
      "d": 593.75,
      "v": 100
    },
    {
      "midi": 61,
      "hit": false,
      "t": 102781.25,
      "d": 593.75,
      "v": 103
    },
    {
      "midi": 64,
      "hit": false,
      "t": 102812.5,
      "d": 593.75,
      "v": 90
    },
    {
      "midi": 57,
      "hit": false,
      "t": 103500,
      "d": 593.75,
      "v": 97
    },
    {
      "midi": 61,
      "hit": false,
      "t": 103531.25,
      "d": 593.75,
      "v": 93
    },
    {
      "midi": 64,
      "hit": false,
      "t": 103562.5,
      "d": 593.75,
      "v": 102
    },
    {
      "midi": 57,
      "hit": false,
      "t": 104250,
      "d": 1062.5,
      "v": 89
    },
    {
      "midi": 61,
      "hit": false,
      "t": 104281.25,
      "d": 593.75,
      "v": 86
    },
    {
      "midi": 64,
      "hit": false,
      "t": 104312.5,
      "d": 593.75,
      "v": 99
    },
    {
      "midi": 62,
      "hit": false,
      "t": 105031.25,
      "d": 1062.5,
      "v": 87
    },
    {
      "midi": 66,
      "hit": false,
      "t": 105062.5,
      "d": 1062.5,
      "v": 95
    },
    {
      "midi": 57,
      "hit": false,
      "t": 105750,
      "d": 593.75,
      "v": 101
    },
    {
      "midi": 57,
      "hit": false,
      "t": 106500,
      "d": 1062.5,
      "v": 99
    },
    {
      "midi": 62,
      "hit": false,
      "t": 106531.25,
      "d": 593.75,
      "v": 100
    },
    {
      "midi": 66,
      "hit": false,
      "t": 106562.5,
      "d": 593.75,
      "v": 93
    },
    {
      "midi": 62,
      "hit": false,
      "t": 107281.25,
      "d": 1062.5,
      "v": 101
    },
    {
      "midi": 66,
      "hit": false,
      "t": 107312.5,
      "d": 1062.5,
      "v": 97
    },
    {
      "midi": 57,
      "hit": false,
      "t": 108000,
      "d": 593.75,
      "v": 100
    },
    {
      "midi": 57,
      "hit": false,
      "t": 108750,
      "d": 593.75,
      "v": 90
    },
    {
      "midi": 62,
      "hit": false,
      "t": 108781.25,
      "d": 593.75,
      "v": 101
    },
    {
      "midi": 66,
      "hit": false,
      "t": 108812.5,
      "d": 593.75,
      "v": 98
    },
    {
      "midi": 57,
      "hit": false,
      "t": 109500,
      "d": 593.75,
      "v": 100
    },
    {
      "midi": 62,
      "hit": false,
      "t": 109531.25,
      "d": 593.75,
      "v": 96
    },
    {
      "midi": 66,
      "hit": false,
      "t": 109562.5,
      "d": 593.75,
      "v": 92
    },
    {
      "midi": 62,
      "hit": false,
      "t": 110281.25,
      "d": 593.75,
      "v": 100
    },
    {
      "midi": 66,
      "hit": false,
      "t": 110312.5,
      "d": 593.75,
      "v": 100
    },
    {
      "midi": 61,
      "hit": false,
      "t": 111031.25,
      "d": 1062.5,
      "v": 103
    },
    {
      "midi": 64,
      "hit": false,
      "t": 111062.5,
      "d": 1062.5,
      "v": 93
    },
    {
      "midi": 57,
      "hit": false,
      "t": 111750,
      "d": 593.75,
      "v": 93
    },
    {
      "midi": 57,
      "hit": false,
      "t": 112500,
      "d": 1062.5,
      "v": 95
    },
    {
      "midi": 61,
      "hit": false,
      "t": 112531.25,
      "d": 593.75,
      "v": 100
    },
    {
      "midi": 64,
      "hit": false,
      "t": 112562.5,
      "d": 593.75,
      "v": 98
    },
    {
      "midi": 61,
      "hit": false,
      "t": 113281.25,
      "d": 1062.5,
      "v": 101
    },
    {
      "midi": 64,
      "hit": false,
      "t": 113312.5,
      "d": 1062.5,
      "v": 100
    },
    {
      "midi": 57,
      "hit": false,
      "t": 114000,
      "d": 593.75,
      "v": 98
    },
    {
      "midi": 57,
      "hit": false,
      "t": 114750,
      "d": 593.75,
      "v": 98
    },
    {
      "midi": 61,
      "hit": false,
      "t": 114781.25,
      "d": 593.75,
      "v": 93
    },
    {
      "midi": 64,
      "hit": false,
      "t": 114812.5,
      "d": 593.75,
      "v": 89
    },
    {
      "midi": 57,
      "hit": false,
      "t": 115500,
      "d": 593.75,
      "v": 86
    },
    {
      "midi": 61,
      "hit": false,
      "t": 115531.25,
      "d": 593.75,
      "v": 89
    },
    {
      "midi": 64,
      "hit": false,
      "t": 115562.5,
      "d": 593.75,
      "v": 103
    },
    {
      "midi": 61,
      "hit": false,
      "t": 116281.25,
      "d": 593.75,
      "v": 89
    },
    {
      "midi": 64,
      "hit": false,
      "t": 116312.5,
      "d": 593.75,
      "v": 96
    },
    {
      "midi": 62,
      "hit": false,
      "t": 117031.25,
      "d": 1062.5,
      "v": 101
    },
    {
      "midi": 66,
      "hit": false,
      "t": 117062.5,
      "d": 1062.5,
      "v": 88
    },
    {
      "midi": 57,
      "hit": false,
      "t": 117750,
      "d": 593.75,
      "v": 95
    },
    {
      "midi": 57,
      "hit": false,
      "t": 118500,
      "d": 1062.5,
      "v": 101
    },
    {
      "midi": 62,
      "hit": false,
      "t": 118531.25,
      "d": 593.75,
      "v": 102
    },
    {
      "midi": 66,
      "hit": false,
      "t": 118562.5,
      "d": 593.75,
      "v": 95
    },
    {
      "midi": 62,
      "hit": false,
      "t": 119281.25,
      "d": 1062.5,
      "v": 98
    },
    {
      "midi": 66,
      "hit": false,
      "t": 119312.5,
      "d": 1062.5,
      "v": 98
    },
    {
      "midi": 57,
      "hit": false,
      "t": 120000,
      "d": 593.75,
      "v": 101
    },
    {
      "midi": 57,
      "hit": false,
      "t": 120750,
      "d": 593.75,
      "v": 90
    },
    {
      "midi": 62,
      "hit": false,
      "t": 120781.25,
      "d": 593.75,
      "v": 88
    },
    {
      "midi": 66,
      "hit": false,
      "t": 120812.5,
      "d": 593.75,
      "v": 94
    },
    {
      "midi": 57,
      "hit": false,
      "t": 121500,
      "d": 593.75,
      "v": 91
    },
    {
      "midi": 62,
      "hit": false,
      "t": 121531.25,
      "d": 593.75,
      "v": 98
    },
    {
      "midi": 66,
      "hit": false,
      "t": 121562.5,
      "d": 593.75,
      "v": 99
    },
    {
      "midi": 62,
      "hit": false,
      "t": 122281.25,
      "d": 593.75,
      "v": 92
    },
    {
      "midi": 66,
      "hit": false,
      "t": 122312.5,
      "d": 593.75,
      "v": 89
    },
    {
      "midi": 61,
      "hit": false,
      "t": 123031.25,
      "d": 1062.5,
      "v": 95
    },
    {
      "midi": 64,
      "hit": false,
      "t": 123062.5,
      "d": 1062.5,
      "v": 90
    },
    {
      "midi": 57,
      "hit": false,
      "t": 123750,
      "d": 593.75,
      "v": 90
    },
    {
      "midi": 57,
      "hit": false,
      "t": 124500,
      "d": 1062.5,
      "v": 96
    },
    {
      "midi": 61,
      "hit": false,
      "t": 124531.25,
      "d": 593.75,
      "v": 87
    },
    {
      "midi": 64,
      "hit": false,
      "t": 124562.5,
      "d": 593.75,
      "v": 101
    },
    {
      "midi": 61,
      "hit": false,
      "t": 125281.25,
      "d": 1062.5,
      "v": 101
    },
    {
      "midi": 64,
      "hit": false,
      "t": 125312.5,
      "d": 1062.5,
      "v": 103
    },
    {
      "midi": 57,
      "hit": false,
      "t": 126000,
      "d": 593.75,
      "v": 97
    },
    {
      "midi": 57,
      "hit": false,
      "t": 126750,
      "d": 593.75,
      "v": 90
    },
    {
      "midi": 61,
      "hit": false,
      "t": 126781.25,
      "d": 593.75,
      "v": 90
    },
    {
      "midi": 64,
      "hit": false,
      "t": 126812.5,
      "d": 593.75,
      "v": 87
    },
    {
      "midi": 57,
      "hit": false,
      "t": 127500,
      "d": 593.75,
      "v": 88
    },
    {
      "midi": 61,
      "hit": false,
      "t": 127531.25,
      "d": 593.75,
      "v": 86
    },
    {
      "midi": 64,
      "hit": false,
      "t": 127562.5,
      "d": 593.75,
      "v": 87
    },
    {
      "midi": 57,
      "hit": false,
      "t": 128250,
      "d": 562.5,
      "v": 90
    },
    {
      "midi": 61,
      "hit": false,
      "t": 128281.25,
      "d": 593.75,
      "v": 95
    },
    {
      "midi": 64,
      "hit": false,
      "t": 128312.5,
      "d": 593.75,
      "v": 90
    },
    {
      "midi": 62,
      "hit": false,
      "t": 129031.25,
      "d": 1062.5,
      "v": 93
    },
    {
      "midi": 67,
      "hit": false,
      "t": 129062.5,
      "d": 1062.5,
      "v": 100
    },
    {
      "midi": 57,
      "hit": false,
      "t": 129750,
      "d": 593.75,
      "v": 89
    },
    {
      "midi": 57,
      "hit": false,
      "t": 130500,
      "d": 1062.5,
      "v": 97
    },
    {
      "midi": 62,
      "hit": false,
      "t": 130531.25,
      "d": 593.75,
      "v": 92
    },
    {
      "midi": 67,
      "hit": false,
      "t": 130562.5,
      "d": 593.75,
      "v": 99
    },
    {
      "midi": 62,
      "hit": false,
      "t": 131281.25,
      "d": 1062.5,
      "v": 90
    },
    {
      "midi": 67,
      "hit": false,
      "t": 131312.5,
      "d": 1062.5,
      "v": 103
    },
    {
      "midi": 57,
      "hit": false,
      "t": 132000,
      "d": 593.75,
      "v": 96
    },
    {
      "midi": 62,
      "hit": false,
      "t": 132781.25,
      "d": 593.75,
      "v": 101
    },
    {
      "midi": 67,
      "hit": false,
      "t": 132812.5,
      "d": 593.75,
      "v": 97
    },
    {
      "midi": 62,
      "hit": false,
      "t": 133531.25,
      "d": 593.75,
      "v": 101
    },
    {
      "midi": 67,
      "hit": false,
      "t": 133562.5,
      "d": 593.75,
      "v": 98
    },
    {
      "midi": 62,
      "hit": false,
      "t": 134281.25,
      "d": 593.75,
      "v": 90
    },
    {
      "midi": 64,
      "hit": false,
      "t": 134312.5,
      "d": 593.75,
      "v": 100
    },
    {
      "midi": 62,
      "hit": false,
      "t": 135031.25,
      "d": 1062.5,
      "v": 89
    },
    {
      "midi": 66,
      "hit": false,
      "t": 135062.5,
      "d": 1062.5,
      "v": 103
    },
    {
      "midi": 57,
      "hit": false,
      "t": 135750,
      "d": 593.75,
      "v": 98
    },
    {
      "midi": 57,
      "hit": false,
      "t": 136500,
      "d": 1062.5,
      "v": 97
    },
    {
      "midi": 62,
      "hit": false,
      "t": 136531.25,
      "d": 593.75,
      "v": 87
    },
    {
      "midi": 66,
      "hit": false,
      "t": 136562.5,
      "d": 593.75,
      "v": 97
    },
    {
      "midi": 62,
      "hit": false,
      "t": 137281.25,
      "d": 1062.5,
      "v": 102
    },
    {
      "midi": 66,
      "hit": false,
      "t": 137312.5,
      "d": 1062.5,
      "v": 97
    },
    {
      "midi": 57,
      "hit": false,
      "t": 138000,
      "d": 593.75,
      "v": 100
    },
    {
      "midi": 57,
      "hit": false,
      "t": 138750,
      "d": 593.75,
      "v": 92
    },
    {
      "midi": 62,
      "hit": false,
      "t": 138781.25,
      "d": 593.75,
      "v": 93
    },
    {
      "midi": 66,
      "hit": false,
      "t": 138812.5,
      "d": 593.75,
      "v": 97
    },
    {
      "midi": 57,
      "hit": false,
      "t": 139500,
      "d": 593.75,
      "v": 95
    },
    {
      "midi": 62,
      "hit": false,
      "t": 139531.25,
      "d": 593.75,
      "v": 88
    },
    {
      "midi": 66,
      "hit": false,
      "t": 139562.5,
      "d": 593.75,
      "v": 99
    },
    {
      "midi": 59,
      "hit": false,
      "t": 140250,
      "d": 1062.5,
      "v": 86
    },
    {
      "midi": 62,
      "hit": false,
      "t": 140281.25,
      "d": 593.75,
      "v": 93
    },
    {
      "midi": 66,
      "hit": false,
      "t": 140312.5,
      "d": 593.75,
      "v": 87
    },
    {
      "midi": 62,
      "hit": false,
      "t": 141031.25,
      "d": 1062.5,
      "v": 90
    },
    {
      "midi": 67,
      "hit": false,
      "t": 141062.5,
      "d": 1062.5,
      "v": 97
    },
    {
      "midi": 59,
      "hit": false,
      "t": 141750,
      "d": 593.75,
      "v": 96
    },
    {
      "midi": 59,
      "hit": false,
      "t": 142500,
      "d": 1062.5,
      "v": 90
    },
    {
      "midi": 62,
      "hit": false,
      "t": 142531.25,
      "d": 593.75,
      "v": 101
    },
    {
      "midi": 67,
      "hit": false,
      "t": 142562.5,
      "d": 593.75,
      "v": 87
    },
    {
      "midi": 62,
      "hit": false,
      "t": 143281.25,
      "d": 1062.5,
      "v": 94
    },
    {
      "midi": 67,
      "hit": false,
      "t": 143312.5,
      "d": 1062.5,
      "v": 98
    },
    {
      "midi": 57,
      "hit": false,
      "t": 144000,
      "d": 593.75,
      "v": 101
    },
    {
      "midi": 57,
      "hit": false,
      "t": 144750,
      "d": 593.75,
      "v": 100
    },
    {
      "midi": 61,
      "hit": false,
      "t": 144781.25,
      "d": 593.75,
      "v": 89
    },
    {
      "midi": 64,
      "hit": false,
      "t": 144812.5,
      "d": 593.75,
      "v": 95
    },
    {
      "midi": 57,
      "hit": false,
      "t": 145500,
      "d": 593.75,
      "v": 101
    },
    {
      "midi": 61,
      "hit": false,
      "t": 145531.25,
      "d": 593.75,
      "v": 93
    },
    {
      "midi": 64,
      "hit": false,
      "t": 145562.5,
      "d": 593.75,
      "v": 87
    },
    {
      "midi": 57,
      "hit": false,
      "t": 146250,
      "d": 1843.75,
      "v": 100
    },
    {
      "midi": 61,
      "hit": false,
      "t": 146281.25,
      "d": 593.75,
      "v": 101
    },
    {
      "midi": 64,
      "hit": false,
      "t": 146312.5,
      "d": 593.75,
      "v": 86
    },
    {
      "midi": 62,
      "hit": false,
      "t": 147031.25,
      "d": 1843.75,
      "v": 95
    },
    {
      "midi": 66,
      "hit": false,
      "t": 147062.5,
      "d": 1843.75,
      "v": 87
    },
    {
      "midi": 57,
      "hit": false,
      "t": 148500,
      "d": 1843.75,
      "v": 90
    },
    {
      "midi": 62,
      "hit": false,
      "t": 149281.25,
      "d": 1843.75,
      "v": 96
    },
    {
      "midi": 66,
      "hit": false,
      "t": 149312.5,
      "d": 1843.75,
      "v": 89
    },
    {
      "midi": 57,
      "hit": false,
      "t": 150750,
      "d": 906.25,
      "v": 98
    },
    {
      "midi": 62,
      "hit": false,
      "t": 151531.25,
      "d": 906.25,
      "v": 87
    },
    {
      "midi": 66,
      "hit": false,
      "t": 151562.5,
      "d": 906.25,
      "v": 101
    },
    {
      "midi": 59,
      "hit": false,
      "t": 152250,
      "d": 5562.5,
      "v": 98
    },
    {
      "midi": 74,
      "hit": false,
      "t": 152906.25,
      "d": 5406.25,
      "v": 82
    },
    {
      "midi": 78,
      "hit": false,
      "t": 153031.25,
      "d": 5406.25,
      "v": 80
    },
    {
      "midi": 67,
      "hit": false,
      "t": 153062.5,
      "d": 5562.5,
      "v": 89
    },
    {
      "midi": 83,
      "hit": false,
      "t": 153281.25,
      "d": 5312.5,
      "v": 71
    },
    {
      "midi": 57,
      "hit": false,
      "t": 158250,
      "d": 5562.5,
      "v": 95
    },
    {
      "midi": 73,
      "hit": false,
      "t": 158906.25,
      "d": 3343.75,
      "v": 71
    },
    {
      "midi": 76,
      "hit": false,
      "t": 159031.25,
      "d": 3343.75,
      "v": 76
    },
    {
      "midi": 64,
      "hit": false,
      "t": 159062.5,
      "d": 5562.5,
      "v": 90
    },
    {
      "midi": 83,
      "hit": false,
      "t": 159156.25,
      "d": 3218.75,
      "v": 82
    },
    {
      "midi": 73,
      "hit": false,
      "t": 162656.25,
      "d": 750,
      "v": 68
    },
    {
      "midi": 76,
      "hit": false,
      "t": 163406.25,
      "d": 750,
      "v": 68
    },
    {
      "midi": 83,
      "hit": false,
      "t": 164156.25,
      "d": 1500,
      "v": 77
    },
    {
      "midi": 57,
      "hit": false,
      "t": 164250,
      "d": 5562.5,
      "v": 95
    },
    {
      "midi": 61,
      "hit": false,
      "t": 164250,
      "d": 5562.5,
      "v": 88
    },
    {
      "midi": 64,
      "hit": false,
      "t": 165062.5,
      "d": 5562.5,
      "v": 95
    },
    {
      "midi": 81,
      "hit": false,
      "t": 165656.25,
      "d": 4843.75,
      "v": 68
    },
    {
      "midi": 59,
      "hit": false,
      "t": 170250,
      "d": 5562.5,
      "v": 87
    },
    {
      "midi": 71,
      "hit": false,
      "t": 170906.25,
      "d": 5625,
      "v": 82
    },
    {
      "midi": 75,
      "hit": false,
      "t": 171031.25,
      "d": 5531.25,
      "v": 72
    },
    {
      "midi": 66,
      "hit": false,
      "t": 171062.5,
      "d": 5562.5,
      "v": 88
    },
    {
      "midi": 78,
      "hit": false,
      "t": 171156.25,
      "d": 5406.25,
      "v": 69
    },
    {
      "midi": 59,
      "hit": false,
      "t": 176250,
      "d": 5562.5,
      "v": 93
    },
    {
      "midi": 71,
      "hit": false,
      "t": 177000,
      "d": 812.5,
      "v": 80
    },
    {
      "midi": 67,
      "hit": false,
      "t": 177062.5,
      "d": 5562.5,
      "v": 89
    },
    {
      "midi": 76,
      "hit": false,
      "t": 177750,
      "d": 812.5,
      "v": 72
    },
    {
      "midi": 83,
      "hit": false,
      "t": 178500,
      "d": 781.25,
      "v": 71
    },
    {
      "midi": 76,
      "hit": false,
      "t": 179250,
      "d": 3468.75,
      "v": 68
    },
    {
      "midi": 59,
      "hit": false,
      "t": 182250,
      "d": 5562.5,
      "v": 100
    },
    {
      "midi": 71,
      "hit": false,
      "t": 183000,
      "d": 812.5,
      "v": 74
    },
    {
      "midi": 67,
      "hit": false,
      "t": 183062.5,
      "d": 5562.5,
      "v": 98
    },
    {
      "midi": 75,
      "hit": false,
      "t": 183750,
      "d": 812.5,
      "v": 73
    },
    {
      "midi": 83,
      "hit": false,
      "t": 184500,
      "d": 812.5,
      "v": 69
    },
    {
      "midi": 75,
      "hit": false,
      "t": 185250,
      "d": 3468.75,
      "v": 83
    },
    {
      "midi": 59,
      "hit": false,
      "t": 188250,
      "d": 5562.5,
      "v": 95
    },
    {
      "midi": 71,
      "hit": false,
      "t": 189000,
      "d": 812.5,
      "v": 67
    },
    {
      "midi": 67,
      "hit": false,
      "t": 189062.5,
      "d": 5562.5,
      "v": 91
    },
    {
      "midi": 74,
      "hit": false,
      "t": 189750,
      "d": 812.5,
      "v": 75
    },
    {
      "midi": 83,
      "hit": false,
      "t": 190500,
      "d": 812.5,
      "v": 84
    },
    {
      "midi": 74,
      "hit": false,
      "t": 191250,
      "d": 3468.75,
      "v": 82
    },
    {
      "midi": 58,
      "hit": false,
      "t": 194250,
      "d": 2468.75,
      "v": 86
    },
    {
      "midi": 67,
      "hit": false,
      "t": 195062.5,
      "d": 2468.75,
      "v": 97
    },
    {
      "midi": 86,
      "hit": false,
      "t": 195750,
      "d": 750,
      "v": 73
    },
    {
      "midi": 82,
      "hit": false,
      "t": 196500,
      "d": 750,
      "v": 66
    },
    {
      "midi": 57,
      "hit": false,
      "t": 197250,
      "d": 2468.75,
      "v": 86
    },
    {
      "midi": 90,
      "hit": false,
      "t": 197250,
      "d": 750,
      "v": 75
    },
    {
      "midi": 88,
      "hit": false,
      "t": 198000,
      "d": 2562.5,
      "v": 70
    },
    {
      "midi": 64,
      "hit": false,
      "t": 198062.5,
      "d": 2468.75,
      "v": 100
    },
    {
      "midi": 57,
      "hit": false,
      "t": 200250,
      "d": 1062.5,
      "v": 98
    },
    {
      "midi": 62,
      "hit": false,
      "t": 201000,
      "d": 6000,
      "v": 71
    },
    {
      "midi": 66,
      "hit": false,
      "t": 201000,
      "d": 6000,
      "v": 72
    },
    {
      "midi": 66,
      "hit": false,
      "t": 201062.5,
      "d": 1062.5,
      "v": 92
    },
    {
      "midi": 57,
      "hit": false,
      "t": 201750,
      "d": 593.75,
      "v": 88
    },
    {
      "midi": 57,
      "hit": false,
      "t": 202500,
      "d": 1062.5,
      "v": 88
    },
    {
      "midi": 66,
      "hit": false,
      "t": 202562.5,
      "d": 593.75,
      "v": 101
    },
    {
      "midi": 66,
      "hit": false,
      "t": 203312.5,
      "d": 1062.5,
      "v": 99
    },
    {
      "midi": 57,
      "hit": false,
      "t": 204000,
      "d": 593.75,
      "v": 88
    },
    {
      "midi": 57,
      "hit": false,
      "t": 204750,
      "d": 593.75,
      "v": 91
    },
    {
      "midi": 66,
      "hit": false,
      "t": 204812.5,
      "d": 593.75,
      "v": 88
    },
    {
      "midi": 57,
      "hit": false,
      "t": 205500,
      "d": 593.75,
      "v": 98
    },
    {
      "midi": 66,
      "hit": false,
      "t": 205562.5,
      "d": 593.75,
      "v": 90
    },
    {
      "midi": 57,
      "hit": false,
      "t": 206250,
      "d": 1062.5,
      "v": 97
    },
    {
      "midi": 66,
      "hit": false,
      "t": 206312.5,
      "d": 593.75,
      "v": 103
    },
    {
      "midi": 62,
      "hit": false,
      "t": 207000,
      "d": 6000,
      "v": 85
    },
    {
      "midi": 66,
      "hit": false,
      "t": 207000,
      "d": 6000,
      "v": 70
    },
    {
      "midi": 64,
      "hit": false,
      "t": 207062.5,
      "d": 1062.5,
      "v": 91
    },
    {
      "midi": 57,
      "hit": false,
      "t": 207750,
      "d": 593.75,
      "v": 99
    },
    {
      "midi": 57,
      "hit": false,
      "t": 208500,
      "d": 1062.5,
      "v": 93
    },
    {
      "midi": 64,
      "hit": false,
      "t": 208562.5,
      "d": 593.75,
      "v": 87
    },
    {
      "midi": 64,
      "hit": false,
      "t": 209312.5,
      "d": 1062.5,
      "v": 90
    },
    {
      "midi": 57,
      "hit": false,
      "t": 210000,
      "d": 593.75,
      "v": 102
    },
    {
      "midi": 57,
      "hit": false,
      "t": 210750,
      "d": 593.75,
      "v": 95
    },
    {
      "midi": 64,
      "hit": false,
      "t": 210812.5,
      "d": 593.75,
      "v": 95
    },
    {
      "midi": 57,
      "hit": false,
      "t": 211500,
      "d": 593.75,
      "v": 98
    },
    {
      "midi": 64,
      "hit": false,
      "t": 211562.5,
      "d": 593.75,
      "v": 98
    },
    {
      "midi": 57,
      "hit": false,
      "t": 212250,
      "d": 1062.5,
      "v": 100
    },
    {
      "midi": 64,
      "hit": false,
      "t": 212312.5,
      "d": 593.75,
      "v": 95
    },
    {
      "midi": 59,
      "hit": false,
      "t": 213000,
      "d": 6000,
      "v": 74
    },
    {
      "midi": 66,
      "hit": false,
      "t": 213000,
      "d": 6000,
      "v": 68
    },
    {
      "midi": 66,
      "hit": false,
      "t": 213062.5,
      "d": 1062.5,
      "v": 87
    },
    {
      "midi": 57,
      "hit": false,
      "t": 213750,
      "d": 593.75,
      "v": 86
    },
    {
      "midi": 57,
      "hit": false,
      "t": 214500,
      "d": 1062.5,
      "v": 87
    },
    {
      "midi": 66,
      "hit": false,
      "t": 214562.5,
      "d": 593.75,
      "v": 99
    },
    {
      "midi": 66,
      "hit": false,
      "t": 215312.5,
      "d": 1062.5,
      "v": 86
    },
    {
      "midi": 57,
      "hit": false,
      "t": 216000,
      "d": 593.75,
      "v": 100
    },
    {
      "midi": 57,
      "hit": false,
      "t": 216750,
      "d": 593.75,
      "v": 100
    },
    {
      "midi": 66,
      "hit": false,
      "t": 216812.5,
      "d": 593.75,
      "v": 92
    },
    {
      "midi": 57,
      "hit": false,
      "t": 217500,
      "d": 593.75,
      "v": 102
    },
    {
      "midi": 66,
      "hit": false,
      "t": 217562.5,
      "d": 593.75,
      "v": 99
    },
    {
      "midi": 57,
      "hit": false,
      "t": 218250,
      "d": 1062.5,
      "v": 99
    },
    {
      "midi": 66,
      "hit": false,
      "t": 218312.5,
      "d": 593.75,
      "v": 99
    },
    {
      "midi": 62,
      "hit": false,
      "t": 219000,
      "d": 6000,
      "v": 75
    },
    {
      "midi": 66,
      "hit": false,
      "t": 219000,
      "d": 6000,
      "v": 70
    },
    {
      "midi": 66,
      "hit": false,
      "t": 219062.5,
      "d": 1062.5,
      "v": 91
    },
    {
      "midi": 57,
      "hit": false,
      "t": 219750,
      "d": 593.75,
      "v": 95
    },
    {
      "midi": 57,
      "hit": false,
      "t": 220500,
      "d": 1062.5,
      "v": 98
    },
    {
      "midi": 66,
      "hit": false,
      "t": 220562.5,
      "d": 593.75,
      "v": 87
    },
    {
      "midi": 66,
      "hit": false,
      "t": 221312.5,
      "d": 1062.5,
      "v": 94
    },
    {
      "midi": 57,
      "hit": false,
      "t": 222000,
      "d": 593.75,
      "v": 100
    },
    {
      "midi": 57,
      "hit": false,
      "t": 222750,
      "d": 593.75,
      "v": 90
    },
    {
      "midi": 66,
      "hit": false,
      "t": 222812.5,
      "d": 593.75,
      "v": 96
    },
    {
      "midi": 57,
      "hit": false,
      "t": 223500,
      "d": 593.75,
      "v": 100
    },
    {
      "midi": 66,
      "hit": false,
      "t": 223562.5,
      "d": 593.75,
      "v": 92
    },
    {
      "midi": 59,
      "hit": false,
      "t": 224250,
      "d": 1062.5,
      "v": 93
    },
    {
      "midi": 66,
      "hit": false,
      "t": 224312.5,
      "d": 593.75,
      "v": 95
    },
    {
      "midi": 55,
      "hit": false,
      "t": 225000,
      "d": 6000,
      "v": 76
    },
    {
      "midi": 59,
      "hit": false,
      "t": 225000,
      "d": 6000,
      "v": 72
    },
    {
      "midi": 66,
      "hit": false,
      "t": 225062.5,
      "d": 1062.5,
      "v": 102
    },
    {
      "midi": 59,
      "hit": false,
      "t": 225750,
      "d": 593.75,
      "v": 100
    },
    {
      "midi": 59,
      "hit": false,
      "t": 226500,
      "d": 1062.5,
      "v": 103
    },
    {
      "midi": 66,
      "hit": false,
      "t": 226562.5,
      "d": 593.75,
      "v": 100
    },
    {
      "midi": 66,
      "hit": false,
      "t": 227312.5,
      "d": 1062.5,
      "v": 86
    },
    {
      "midi": 59,
      "hit": false,
      "t": 228000,
      "d": 593.75,
      "v": 102
    },
    {
      "midi": 59,
      "hit": false,
      "t": 228750,
      "d": 593.75,
      "v": 92
    },
    {
      "midi": 66,
      "hit": false,
      "t": 228812.5,
      "d": 593.75,
      "v": 103
    },
    {
      "midi": 59,
      "hit": false,
      "t": 229500,
      "d": 593.75,
      "v": 89
    },
    {
      "midi": 66,
      "hit": false,
      "t": 229562.5,
      "d": 593.75,
      "v": 101
    },
    {
      "midi": 58,
      "hit": false,
      "t": 230250,
      "d": 1062.5,
      "v": 96
    },
    {
      "midi": 66,
      "hit": false,
      "t": 230312.5,
      "d": 593.75,
      "v": 86
    },
    {
      "midi": 54,
      "hit": false,
      "t": 231000,
      "d": 3000,
      "v": 67
    },
    {
      "midi": 58,
      "hit": false,
      "t": 231000,
      "d": 3000,
      "v": 82
    },
    {
      "midi": 66,
      "hit": false,
      "t": 231062.5,
      "d": 1062.5,
      "v": 102
    },
    {
      "midi": 58,
      "hit": false,
      "t": 231750,
      "d": 593.75,
      "v": 92
    },
    {
      "midi": 58,
      "hit": false,
      "t": 232500,
      "d": 1062.5,
      "v": 98
    },
    {
      "midi": 66,
      "hit": false,
      "t": 232562.5,
      "d": 593.75,
      "v": 99
    },
    {
      "midi": 66,
      "hit": false,
      "t": 233312.5,
      "d": 1062.5,
      "v": 103
    },
    {
      "midi": 59,
      "hit": false,
      "t": 234000,
      "d": 593.75,
      "v": 103
    },
    {
      "midi": 59,
      "hit": false,
      "t": 234000,
      "d": 3000,
      "v": 81
    },
    {
      "midi": 66,
      "hit": false,
      "t": 234000,
      "d": 3000,
      "v": 67
    },
    {
      "midi": 59,
      "hit": false,
      "t": 234750,
      "d": 593.75,
      "v": 87
    },
    {
      "midi": 66,
      "hit": false,
      "t": 234812.5,
      "d": 593.75,
      "v": 101
    },
    {
      "midi": 59,
      "hit": false,
      "t": 235500,
      "d": 593.75,
      "v": 97
    },
    {
      "midi": 66,
      "hit": false,
      "t": 235562.5,
      "d": 593.75,
      "v": 86
    },
    {
      "midi": 59,
      "hit": false,
      "t": 236250,
      "d": 1062.5,
      "v": 86
    },
    {
      "midi": 66,
      "hit": false,
      "t": 236312.5,
      "d": 593.75,
      "v": 90
    },
    {
      "midi": 52,
      "hit": false,
      "t": 237000,
      "d": 6000,
      "v": 76
    },
    {
      "midi": 59,
      "hit": false,
      "t": 237000,
      "d": 6000,
      "v": 79
    },
    {
      "midi": 67,
      "hit": false,
      "t": 237062.5,
      "d": 1062.5,
      "v": 97
    },
    {
      "midi": 59,
      "hit": false,
      "t": 237750,
      "d": 593.75,
      "v": 98
    },
    {
      "midi": 59,
      "hit": false,
      "t": 238500,
      "d": 1062.5,
      "v": 100
    },
    {
      "midi": 67,
      "hit": false,
      "t": 238562.5,
      "d": 593.75,
      "v": 97
    },
    {
      "midi": 67,
      "hit": false,
      "t": 239312.5,
      "d": 1062.5,
      "v": 96
    },
    {
      "midi": 59,
      "hit": false,
      "t": 240000,
      "d": 593.75,
      "v": 101
    },
    {
      "midi": 59,
      "hit": false,
      "t": 240750,
      "d": 593.75,
      "v": 94
    },
    {
      "midi": 67,
      "hit": false,
      "t": 240812.5,
      "d": 593.75,
      "v": 95
    },
    {
      "midi": 59,
      "hit": false,
      "t": 241500,
      "d": 593.75,
      "v": 103
    },
    {
      "midi": 67,
      "hit": false,
      "t": 241562.5,
      "d": 593.75,
      "v": 98
    },
    {
      "midi": 58,
      "hit": false,
      "t": 242250,
      "d": 1062.5,
      "v": 95
    },
    {
      "midi": 67,
      "hit": false,
      "t": 242312.5,
      "d": 593.75,
      "v": 100
    },
    {
      "midi": 55,
      "hit": false,
      "t": 243000,
      "d": 3000,
      "v": 80
    },
    {
      "midi": 58,
      "hit": false,
      "t": 243000,
      "d": 3000,
      "v": 84
    },
    {
      "midi": 67,
      "hit": false,
      "t": 243062.5,
      "d": 1062.5,
      "v": 87
    },
    {
      "midi": 58,
      "hit": false,
      "t": 243750,
      "d": 593.75,
      "v": 103
    },
    {
      "midi": 58,
      "hit": false,
      "t": 244500,
      "d": 1062.5,
      "v": 98
    },
    {
      "midi": 67,
      "hit": false,
      "t": 244562.5,
      "d": 593.75,
      "v": 100
    },
    {
      "midi": 67,
      "hit": false,
      "t": 245312.5,
      "d": 1062.5,
      "v": 101
    },
    {
      "midi": 57,
      "hit": false,
      "t": 246000,
      "d": 593.75,
      "v": 94
    },
    {
      "midi": 57,
      "hit": false,
      "t": 246000,
      "d": 3000,
      "v": 79
    },
    {
      "midi": 61,
      "hit": false,
      "t": 246000,
      "d": 3000,
      "v": 72
    },
    {
      "midi": 57,
      "hit": false,
      "t": 246750,
      "d": 593.75,
      "v": 97
    },
    {
      "midi": 64,
      "hit": false,
      "t": 246812.5,
      "d": 593.75,
      "v": 91
    },
    {
      "midi": 57,
      "hit": false,
      "t": 247500,
      "d": 593.75,
      "v": 90
    },
    {
      "midi": 64,
      "hit": false,
      "t": 247562.5,
      "d": 593.75,
      "v": 86
    },
    {
      "midi": 57,
      "hit": false,
      "t": 248250,
      "d": 1062.5,
      "v": 94
    },
    {
      "midi": 64,
      "hit": false,
      "t": 248312.5,
      "d": 593.75,
      "v": 90
    },
    {
      "midi": 62,
      "hit": false,
      "t": 249000,
      "d": 6000,
      "v": 79
    },
    {
      "midi": 66,
      "hit": false,
      "t": 249000,
      "d": 6000,
      "v": 71
    },
    {
      "midi": 66,
      "hit": false,
      "t": 249062.5,
      "d": 1062.5,
      "v": 89
    },
    {
      "midi": 57,
      "hit": false,
      "t": 249750,
      "d": 593.75,
      "v": 97
    },
    {
      "midi": 57,
      "hit": false,
      "t": 250500,
      "d": 1062.5,
      "v": 102
    },
    {
      "midi": 66,
      "hit": false,
      "t": 250562.5,
      "d": 593.75,
      "v": 100
    },
    {
      "midi": 66,
      "hit": false,
      "t": 251312.5,
      "d": 1062.5,
      "v": 96
    },
    {
      "midi": 57,
      "hit": false,
      "t": 252000,
      "d": 593.75,
      "v": 90
    },
    {
      "midi": 57,
      "hit": false,
      "t": 252750,
      "d": 593.75,
      "v": 93
    },
    {
      "midi": 66,
      "hit": false,
      "t": 252812.5,
      "d": 593.75,
      "v": 95
    },
    {
      "midi": 57,
      "hit": false,
      "t": 253500,
      "d": 593.75,
      "v": 96
    },
    {
      "midi": 66,
      "hit": false,
      "t": 253562.5,
      "d": 593.75,
      "v": 95
    },
    {
      "midi": 57,
      "hit": false,
      "t": 254250,
      "d": 1062.5,
      "v": 89
    },
    {
      "midi": 66,
      "hit": false,
      "t": 254312.5,
      "d": 593.75,
      "v": 98
    },
    {
      "midi": 62,
      "hit": false,
      "t": 255000,
      "d": 6000,
      "v": 83
    },
    {
      "midi": 66,
      "hit": false,
      "t": 255000,
      "d": 6000,
      "v": 81
    },
    {
      "midi": 64,
      "hit": false,
      "t": 255062.5,
      "d": 1062.5,
      "v": 96
    },
    {
      "midi": 57,
      "hit": false,
      "t": 255750,
      "d": 593.75,
      "v": 95
    },
    {
      "midi": 57,
      "hit": false,
      "t": 256500,
      "d": 1062.5,
      "v": 103
    },
    {
      "midi": 64,
      "hit": false,
      "t": 256562.5,
      "d": 593.75,
      "v": 86
    },
    {
      "midi": 64,
      "hit": false,
      "t": 257312.5,
      "d": 1062.5,
      "v": 92
    },
    {
      "midi": 57,
      "hit": false,
      "t": 258000,
      "d": 593.75,
      "v": 87
    },
    {
      "midi": 57,
      "hit": false,
      "t": 258750,
      "d": 593.75,
      "v": 93
    },
    {
      "midi": 64,
      "hit": false,
      "t": 258812.5,
      "d": 593.75,
      "v": 99
    },
    {
      "midi": 57,
      "hit": false,
      "t": 259500,
      "d": 593.75,
      "v": 100
    },
    {
      "midi": 64,
      "hit": false,
      "t": 259562.5,
      "d": 593.75,
      "v": 88
    },
    {
      "midi": 57,
      "hit": false,
      "t": 260250,
      "d": 1062.5,
      "v": 96
    },
    {
      "midi": 64,
      "hit": false,
      "t": 260312.5,
      "d": 593.75,
      "v": 101
    },
    {
      "midi": 59,
      "hit": false,
      "t": 261000,
      "d": 6000,
      "v": 70
    },
    {
      "midi": 66,
      "hit": false,
      "t": 261000,
      "d": 6000,
      "v": 70
    },
    {
      "midi": 66,
      "hit": false,
      "t": 261062.5,
      "d": 1062.5,
      "v": 96
    },
    {
      "midi": 57,
      "hit": false,
      "t": 261750,
      "d": 593.75,
      "v": 93
    },
    {
      "midi": 57,
      "hit": false,
      "t": 262500,
      "d": 1062.5,
      "v": 96
    },
    {
      "midi": 66,
      "hit": false,
      "t": 262562.5,
      "d": 593.75,
      "v": 92
    },
    {
      "midi": 66,
      "hit": false,
      "t": 263312.5,
      "d": 1062.5,
      "v": 101
    },
    {
      "midi": 57,
      "hit": false,
      "t": 264000,
      "d": 593.75,
      "v": 90
    },
    {
      "midi": 57,
      "hit": false,
      "t": 264750,
      "d": 593.75,
      "v": 91
    },
    {
      "midi": 66,
      "hit": false,
      "t": 264812.5,
      "d": 593.75,
      "v": 94
    },
    {
      "midi": 57,
      "hit": false,
      "t": 265500,
      "d": 593.75,
      "v": 96
    },
    {
      "midi": 66,
      "hit": false,
      "t": 265562.5,
      "d": 593.75,
      "v": 88
    },
    {
      "midi": 57,
      "hit": false,
      "t": 266250,
      "d": 1062.5,
      "v": 99
    },
    {
      "midi": 66,
      "hit": false,
      "t": 266312.5,
      "d": 593.75,
      "v": 89
    },
    {
      "midi": 62,
      "hit": false,
      "t": 267000,
      "d": 6000,
      "v": 82
    },
    {
      "midi": 66,
      "hit": false,
      "t": 267000,
      "d": 6000,
      "v": 71
    },
    {
      "midi": 66,
      "hit": false,
      "t": 267062.5,
      "d": 1062.5,
      "v": 96
    },
    {
      "midi": 57,
      "hit": false,
      "t": 267750,
      "d": 593.75,
      "v": 96
    },
    {
      "midi": 57,
      "hit": false,
      "t": 268500,
      "d": 1062.5,
      "v": 95
    },
    {
      "midi": 66,
      "hit": false,
      "t": 268562.5,
      "d": 593.75,
      "v": 101
    },
    {
      "midi": 66,
      "hit": false,
      "t": 269312.5,
      "d": 1062.5,
      "v": 95
    },
    {
      "midi": 57,
      "hit": false,
      "t": 270000,
      "d": 593.75,
      "v": 94
    },
    {
      "midi": 57,
      "hit": false,
      "t": 270750,
      "d": 593.75,
      "v": 93
    },
    {
      "midi": 66,
      "hit": false,
      "t": 270812.5,
      "d": 593.75,
      "v": 101
    },
    {
      "midi": 57,
      "hit": false,
      "t": 271500,
      "d": 593.75,
      "v": 95
    },
    {
      "midi": 66,
      "hit": false,
      "t": 271562.5,
      "d": 593.75,
      "v": 99
    },
    {
      "midi": 59,
      "hit": false,
      "t": 272250,
      "d": 1062.5,
      "v": 103
    },
    {
      "midi": 66,
      "hit": false,
      "t": 272312.5,
      "d": 593.75,
      "v": 88
    },
    {
      "midi": 55,
      "hit": false,
      "t": 273000,
      "d": 6000,
      "v": 77
    },
    {
      "midi": 59,
      "hit": false,
      "t": 273000,
      "d": 6000,
      "v": 85
    },
    {
      "midi": 66,
      "hit": false,
      "t": 273062.5,
      "d": 1062.5,
      "v": 99
    },
    {
      "midi": 59,
      "hit": false,
      "t": 273750,
      "d": 593.75,
      "v": 97
    },
    {
      "midi": 59,
      "hit": false,
      "t": 274500,
      "d": 1062.5,
      "v": 102
    },
    {
      "midi": 66,
      "hit": false,
      "t": 274562.5,
      "d": 593.75,
      "v": 89
    },
    {
      "midi": 66,
      "hit": false,
      "t": 275312.5,
      "d": 1062.5,
      "v": 96
    },
    {
      "midi": 59,
      "hit": false,
      "t": 276000,
      "d": 593.75,
      "v": 87
    },
    {
      "midi": 59,
      "hit": false,
      "t": 276750,
      "d": 593.75,
      "v": 98
    },
    {
      "midi": 66,
      "hit": false,
      "t": 276812.5,
      "d": 593.75,
      "v": 90
    },
    {
      "midi": 59,
      "hit": false,
      "t": 277500,
      "d": 593.75,
      "v": 97
    },
    {
      "midi": 66,
      "hit": false,
      "t": 277562.5,
      "d": 593.75,
      "v": 91
    },
    {
      "midi": 58,
      "hit": false,
      "t": 278250,
      "d": 1062.5,
      "v": 103
    },
    {
      "midi": 66,
      "hit": false,
      "t": 278312.5,
      "d": 593.75,
      "v": 100
    },
    {
      "midi": 54,
      "hit": false,
      "t": 279000,
      "d": 3000,
      "v": 77
    },
    {
      "midi": 58,
      "hit": false,
      "t": 279000,
      "d": 3000,
      "v": 78
    },
    {
      "midi": 66,
      "hit": false,
      "t": 279062.5,
      "d": 1062.5,
      "v": 89
    },
    {
      "midi": 58,
      "hit": false,
      "t": 279750,
      "d": 593.75,
      "v": 101
    },
    {
      "midi": 58,
      "hit": false,
      "t": 280500,
      "d": 1062.5,
      "v": 87
    },
    {
      "midi": 66,
      "hit": false,
      "t": 280562.5,
      "d": 593.75,
      "v": 97
    },
    {
      "midi": 66,
      "hit": false,
      "t": 281312.5,
      "d": 1062.5,
      "v": 103
    },
    {
      "midi": 59,
      "hit": false,
      "t": 282000,
      "d": 593.75,
      "v": 92
    },
    {
      "midi": 59,
      "hit": false,
      "t": 282000,
      "d": 3000,
      "v": 73
    },
    {
      "midi": 66,
      "hit": false,
      "t": 282000,
      "d": 3000,
      "v": 79
    },
    {
      "midi": 59,
      "hit": false,
      "t": 282750,
      "d": 593.75,
      "v": 95
    },
    {
      "midi": 66,
      "hit": false,
      "t": 282812.5,
      "d": 593.75,
      "v": 93
    },
    {
      "midi": 59,
      "hit": false,
      "t": 283500,
      "d": 593.75,
      "v": 92
    },
    {
      "midi": 66,
      "hit": false,
      "t": 283562.5,
      "d": 593.75,
      "v": 89
    },
    {
      "midi": 59,
      "hit": false,
      "t": 284250,
      "d": 1062.5,
      "v": 97
    },
    {
      "midi": 66,
      "hit": false,
      "t": 284312.5,
      "d": 593.75,
      "v": 102
    },
    {
      "midi": 52,
      "hit": false,
      "t": 285000,
      "d": 6000,
      "v": 67
    },
    {
      "midi": 59,
      "hit": false,
      "t": 285000,
      "d": 6000,
      "v": 70
    },
    {
      "midi": 67,
      "hit": false,
      "t": 285062.5,
      "d": 1062.5,
      "v": 86
    },
    {
      "midi": 59,
      "hit": false,
      "t": 285750,
      "d": 593.75,
      "v": 98
    },
    {
      "midi": 59,
      "hit": false,
      "t": 286500,
      "d": 1062.5,
      "v": 97
    },
    {
      "midi": 67,
      "hit": false,
      "t": 286562.5,
      "d": 593.75,
      "v": 91
    },
    {
      "midi": 67,
      "hit": false,
      "t": 287312.5,
      "d": 1062.5,
      "v": 88
    },
    {
      "midi": 59,
      "hit": false,
      "t": 288000,
      "d": 593.75,
      "v": 102
    },
    {
      "midi": 59,
      "hit": false,
      "t": 288750,
      "d": 593.75,
      "v": 89
    },
    {
      "midi": 67,
      "hit": false,
      "t": 288812.5,
      "d": 593.75,
      "v": 101
    },
    {
      "midi": 59,
      "hit": false,
      "t": 289500,
      "d": 593.75,
      "v": 91
    },
    {
      "midi": 67,
      "hit": false,
      "t": 289562.5,
      "d": 593.75,
      "v": 88
    },
    {
      "midi": 58,
      "hit": false,
      "t": 290250,
      "d": 1062.5,
      "v": 96
    },
    {
      "midi": 67,
      "hit": false,
      "t": 290312.5,
      "d": 593.75,
      "v": 103
    },
    {
      "midi": 55,
      "hit": false,
      "t": 291000,
      "d": 3000,
      "v": 81
    },
    {
      "midi": 58,
      "hit": false,
      "t": 291000,
      "d": 3000,
      "v": 67
    },
    {
      "midi": 67,
      "hit": false,
      "t": 291062.5,
      "d": 1062.5,
      "v": 93
    },
    {
      "midi": 58,
      "hit": false,
      "t": 291750,
      "d": 593.75,
      "v": 92
    },
    {
      "midi": 58,
      "hit": false,
      "t": 292500,
      "d": 1062.5,
      "v": 89
    },
    {
      "midi": 67,
      "hit": false,
      "t": 292562.5,
      "d": 593.75,
      "v": 86
    },
    {
      "midi": 67,
      "hit": false,
      "t": 293312.5,
      "d": 1062.5,
      "v": 89
    },
    {
      "midi": 57,
      "hit": false,
      "t": 294000,
      "d": 593.75,
      "v": 92
    },
    {
      "midi": 57,
      "hit": false,
      "t": 294000,
      "d": 1562.5,
      "v": 73
    },
    {
      "midi": 61,
      "hit": false,
      "t": 294000,
      "d": 1562.5,
      "v": 83
    },
    {
      "midi": 57,
      "hit": false,
      "t": 294750,
      "d": 593.75,
      "v": 88
    },
    {
      "midi": 64,
      "hit": false,
      "t": 294812.5,
      "d": 593.75,
      "v": 99
    },
    {
      "midi": 57,
      "hit": false,
      "t": 295500,
      "d": 593.75,
      "v": 97
    },
    {
      "midi": 64,
      "hit": false,
      "t": 295562.5,
      "d": 593.75,
      "v": 92
    },
    {
      "midi": 57,
      "hit": false,
      "t": 296250,
      "d": 1062.5,
      "v": 101
    },
    {
      "midi": 64,
      "hit": false,
      "t": 296312.5,
      "d": 593.75,
      "v": 94
    },
    {
      "midi": 74,
      "hit": false,
      "t": 297000,
      "d": 5875,
      "v": 96
    },
    {
      "midi": 86,
      "hit": false,
      "t": 297000,
      "d": 5875,
      "v": 93
    },
    {
      "midi": 66,
      "hit": false,
      "t": 297062.5,
      "d": 1062.5,
      "v": 88
    },
    {
      "midi": 57,
      "hit": false,
      "t": 297750,
      "d": 593.75,
      "v": 97
    },
    {
      "midi": 57,
      "hit": false,
      "t": 298500,
      "d": 1062.5,
      "v": 90
    },
    {
      "midi": 66,
      "hit": false,
      "t": 298562.5,
      "d": 593.75,
      "v": 101
    },
    {
      "midi": 66,
      "hit": false,
      "t": 299312.5,
      "d": 1062.5,
      "v": 87
    },
    {
      "midi": 57,
      "hit": false,
      "t": 300000,
      "d": 593.75,
      "v": 93
    },
    {
      "midi": 57,
      "hit": false,
      "t": 300750,
      "d": 593.75,
      "v": 94
    },
    {
      "midi": 66,
      "hit": false,
      "t": 300812.5,
      "d": 593.75,
      "v": 97
    },
    {
      "midi": 57,
      "hit": false,
      "t": 301500,
      "d": 593.75,
      "v": 102
    },
    {
      "midi": 66,
      "hit": false,
      "t": 301562.5,
      "d": 593.75,
      "v": 90
    },
    {
      "midi": 57,
      "hit": false,
      "t": 302250,
      "d": 1062.5,
      "v": 89
    },
    {
      "midi": 66,
      "hit": false,
      "t": 302312.5,
      "d": 593.75,
      "v": 98
    },
    {
      "midi": 87,
      "hit": false,
      "t": 303000,
      "d": 62.5,
      "v": 98
    },
    {
      "midi": 64,
      "hit": false,
      "t": 303062.5,
      "d": 1062.5,
      "v": 87
    },
    {
      "midi": 88,
      "hit": false,
      "t": 303093.75,
      "d": 4312.5,
      "v": 91
    },
    {
      "midi": 73,
      "hit": false,
      "t": 303093.75,
      "d": 5937.5,
      "v": 99
    },
    {
      "midi": 57,
      "hit": false,
      "t": 303750,
      "d": 593.75,
      "v": 100
    },
    {
      "midi": 57,
      "hit": false,
      "t": 304500,
      "d": 1062.5,
      "v": 93
    },
    {
      "midi": 64,
      "hit": false,
      "t": 304562.5,
      "d": 593.75,
      "v": 100
    },
    {
      "midi": 64,
      "hit": false,
      "t": 305312.5,
      "d": 1062.5,
      "v": 92
    },
    {
      "midi": 57,
      "hit": false,
      "t": 306000,
      "d": 593.75,
      "v": 97
    },
    {
      "midi": 57,
      "hit": false,
      "t": 306750,
      "d": 593.75,
      "v": 94
    },
    {
      "midi": 64,
      "hit": false,
      "t": 306812.5,
      "d": 593.75,
      "v": 100
    },
    {
      "midi": 92,
      "hit": false,
      "t": 307468.75,
      "d": 62.5,
      "v": 97
    },
    {
      "midi": 57,
      "hit": false,
      "t": 307500,
      "d": 593.75,
      "v": 90
    },
    {
      "midi": 64,
      "hit": false,
      "t": 307562.5,
      "d": 593.75,
      "v": 99
    },
    {
      "midi": 93,
      "hit": false,
      "t": 307562.5,
      "d": 718.75,
      "v": 95
    },
    {
      "midi": 85,
      "hit": false,
      "t": 308218.75,
      "d": 62.5,
      "v": 92
    },
    {
      "midi": 57,
      "hit": false,
      "t": 308250,
      "d": 1062.5,
      "v": 90
    },
    {
      "midi": 64,
      "hit": false,
      "t": 308312.5,
      "d": 593.75,
      "v": 93
    },
    {
      "midi": 86,
      "hit": false,
      "t": 308312.5,
      "d": 5125,
      "v": 91
    },
    {
      "midi": 71,
      "hit": false,
      "t": 309000,
      "d": 4437.5,
      "v": 99
    },
    {
      "midi": 83,
      "hit": false,
      "t": 309000,
      "d": 5687.5,
      "v": 93
    },
    {
      "midi": 66,
      "hit": false,
      "t": 309062.5,
      "d": 1062.5,
      "v": 88
    },
    {
      "midi": 57,
      "hit": false,
      "t": 309750,
      "d": 593.75,
      "v": 91
    },
    {
      "midi": 57,
      "hit": false,
      "t": 310500,
      "d": 1062.5,
      "v": 87
    },
    {
      "midi": 66,
      "hit": false,
      "t": 310562.5,
      "d": 593.75,
      "v": 94
    },
    {
      "midi": 66,
      "hit": false,
      "t": 311312.5,
      "d": 1062.5,
      "v": 89
    },
    {
      "midi": 57,
      "hit": false,
      "t": 312000,
      "d": 593.75,
      "v": 87
    },
    {
      "midi": 57,
      "hit": false,
      "t": 312750,
      "d": 593.75,
      "v": 97
    },
    {
      "midi": 66,
      "hit": false,
      "t": 312812.5,
      "d": 593.75,
      "v": 102
    },
    {
      "midi": 57,
      "hit": false,
      "t": 313500,
      "d": 593.75,
      "v": 102
    },
    {
      "midi": 78,
      "hit": false,
      "t": 313500,
      "d": 718.75,
      "v": 97
    },
    {
      "midi": 88,
      "hit": false,
      "t": 313500,
      "d": 718.75,
      "v": 91
    },
    {
      "midi": 66,
      "hit": false,
      "t": 313562.5,
      "d": 593.75,
      "v": 95
    },
    {
      "midi": 57,
      "hit": false,
      "t": 314250,
      "d": 1062.5,
      "v": 86
    },
    {
      "midi": 76,
      "hit": false,
      "t": 314250,
      "d": 750,
      "v": 93
    },
    {
      "midi": 81,
      "hit": false,
      "t": 314250,
      "d": 5656.25,
      "v": 96
    },
    {
      "midi": 66,
      "hit": false,
      "t": 314312.5,
      "d": 593.75,
      "v": 98
    },
    {
      "midi": 78,
      "hit": false,
      "t": 315000,
      "d": 4875,
      "v": 97
    },
    {
      "midi": 66,
      "hit": false,
      "t": 315062.5,
      "d": 1062.5,
      "v": 97
    },
    {
      "midi": 57,
      "hit": false,
      "t": 315750,
      "d": 593.75,
      "v": 91
    },
    {
      "midi": 57,
      "hit": false,
      "t": 316500,
      "d": 1062.5,
      "v": 97
    },
    {
      "midi": 66,
      "hit": false,
      "t": 316562.5,
      "d": 593.75,
      "v": 88
    },
    {
      "midi": 66,
      "hit": false,
      "t": 317312.5,
      "d": 1062.5,
      "v": 98
    },
    {
      "midi": 57,
      "hit": false,
      "t": 318000,
      "d": 593.75,
      "v": 92
    },
    {
      "midi": 57,
      "hit": false,
      "t": 318750,
      "d": 593.75,
      "v": 93
    },
    {
      "midi": 66,
      "hit": false,
      "t": 318812.5,
      "d": 593.75,
      "v": 97
    },
    {
      "midi": 57,
      "hit": false,
      "t": 319500,
      "d": 593.75,
      "v": 97
    },
    {
      "midi": 66,
      "hit": false,
      "t": 319562.5,
      "d": 593.75,
      "v": 101
    },
    {
      "midi": 78,
      "hit": false,
      "t": 320125,
      "d": 593.75,
      "v": 91
    },
    {
      "midi": 57,
      "hit": false,
      "t": 320250,
      "d": 1062.5,
      "v": 98
    },
    {
      "midi": 81,
      "hit": false,
      "t": 320250,
      "d": 593.75,
      "v": 91
    },
    {
      "midi": 66,
      "hit": false,
      "t": 320312.5,
      "d": 593.75,
      "v": 103
    },
    {
      "midi": 79,
      "hit": false,
      "t": 320375,
      "d": 281.25,
      "v": 93
    },
    {
      "midi": 83,
      "hit": false,
      "t": 320500,
      "d": 281.25,
      "v": 97
    },
    {
      "midi": 86,
      "hit": false,
      "t": 320625,
      "d": 281.25,
      "v": 92
    },
    {
      "midi": 88,
      "hit": false,
      "t": 320750,
      "d": 125,
      "v": 95
    },
    {
      "midi": 90,
      "hit": false,
      "t": 320843.75,
      "d": 31.25,
      "v": 91
    },
    {
      "midi": 91,
      "hit": false,
      "t": 320906.25,
      "d": 31.25,
      "v": 94
    },
    {
      "midi": 93,
      "hit": false,
      "t": 321000,
      "d": 1468.75,
      "v": 91
    },
    {
      "midi": 81,
      "hit": false,
      "t": 321000,
      "d": 11937.5,
      "v": 94
    },
    {
      "midi": 67,
      "hit": false,
      "t": 321062.5,
      "d": 1062.5,
      "v": 96
    },
    {
      "midi": 57,
      "hit": false,
      "t": 321750,
      "d": 593.75,
      "v": 99
    },
    {
      "midi": 57,
      "hit": false,
      "t": 322500,
      "d": 1062.5,
      "v": 101
    },
    {
      "midi": 91,
      "hit": false,
      "t": 322500,
      "d": 718.75,
      "v": 93
    },
    {
      "midi": 67,
      "hit": false,
      "t": 322562.5,
      "d": 593.75,
      "v": 97
    },
    {
      "midi": 90,
      "hit": false,
      "t": 323250,
      "d": 1468.75,
      "v": 94
    },
    {
      "midi": 67,
      "hit": false,
      "t": 323312.5,
      "d": 1062.5,
      "v": 94
    },
    {
      "midi": 57,
      "hit": false,
      "t": 324000,
      "d": 593.75,
      "v": 94
    },
    {
      "midi": 88,
      "hit": false,
      "t": 324750,
      "d": 1468.75,
      "v": 94
    },
    {
      "midi": 67,
      "hit": false,
      "t": 324812.5,
      "d": 593.75,
      "v": 94
    },
    {
      "midi": 62,
      "hit": false,
      "t": 325531.25,
      "d": 593.75,
      "v": 92
    },
    {
      "midi": 67,
      "hit": false,
      "t": 325562.5,
      "d": 593.75,
      "v": 102
    },
    {
      "midi": 91,
      "hit": false,
      "t": 326250,
      "d": 2218.75,
      "v": 96
    },
    {
      "midi": 62,
      "hit": false,
      "t": 326281.25,
      "d": 593.75,
      "v": 88
    },
    {
      "midi": 64,
      "hit": false,
      "t": 326312.5,
      "d": 593.75,
      "v": 88
    },
    {
      "midi": 66,
      "hit": false,
      "t": 327062.5,
      "d": 1062.5,
      "v": 92
    },
    {
      "midi": 57,
      "hit": false,
      "t": 327750,
      "d": 593.75,
      "v": 87
    },
    {
      "midi": 57,
      "hit": false,
      "t": 328500,
      "d": 1062.5,
      "v": 101
    },
    {
      "midi": 90,
      "hit": false,
      "t": 328500,
      "d": 1468.75,
      "v": 98
    },
    {
      "midi": 66,
      "hit": false,
      "t": 328562.5,
      "d": 593.75,
      "v": 98
    },
    {
      "midi": 88,
      "hit": false,
      "t": 329250,
      "d": 1468.75,
      "v": 93
    },
    {
      "midi": 66,
      "hit": false,
      "t": 329312.5,
      "d": 1062.5,
      "v": 101
    },
    {
      "midi": 57,
      "hit": false,
      "t": 330000,
      "d": 593.75,
      "v": 98
    },
    {
      "midi": 57,
      "hit": false,
      "t": 330750,
      "d": 593.75,
      "v": 86
    },
    {
      "midi": 86,
      "hit": false,
      "t": 330750,
      "d": 1375,
      "v": 92
    },
    {
      "midi": 66,
      "hit": false,
      "t": 330812.5,
      "d": 593.75,
      "v": 100
    },
    {
      "midi": 57,
      "hit": false,
      "t": 331500,
      "d": 593.75,
      "v": 98
    },
    {
      "midi": 66,
      "hit": false,
      "t": 331562.5,
      "d": 593.75,
      "v": 100
    },
    {
      "midi": 87,
      "hit": false,
      "t": 332156.25,
      "d": 62.5,
      "v": 88
    },
    {
      "midi": 59,
      "hit": false,
      "t": 332250,
      "d": 1062.5,
      "v": 95
    },
    {
      "midi": 88,
      "hit": false,
      "t": 332250,
      "d": 6000,
      "v": 93
    },
    {
      "midi": 66,
      "hit": false,
      "t": 332312.5,
      "d": 593.75,
      "v": 97
    },
    {
      "midi": 83,
      "hit": false,
      "t": 333000,
      "d": 5968.75,
      "v": 99
    },
    {
      "midi": 81,
      "hit": false,
      "t": 333000,
      "d": 11875,
      "v": 89
    },
    {
      "midi": 67,
      "hit": false,
      "t": 333062.5,
      "d": 1062.5,
      "v": 94
    },
    {
      "midi": 59,
      "hit": false,
      "t": 333750,
      "d": 593.75,
      "v": 93
    },
    {
      "midi": 59,
      "hit": false,
      "t": 334500,
      "d": 1062.5,
      "v": 90
    },
    {
      "midi": 67,
      "hit": false,
      "t": 334562.5,
      "d": 593.75,
      "v": 92
    },
    {
      "midi": 67,
      "hit": false,
      "t": 335312.5,
      "d": 1062.5,
      "v": 94
    },
    {
      "midi": 59,
      "hit": false,
      "t": 336000,
      "d": 593.75,
      "v": 103
    },
    {
      "midi": 59,
      "hit": false,
      "t": 336750,
      "d": 593.75,
      "v": 101
    },
    {
      "midi": 67,
      "hit": false,
      "t": 336812.5,
      "d": 593.75,
      "v": 92
    },
    {
      "midi": 57,
      "hit": false,
      "t": 337500,
      "d": 593.75,
      "v": 89
    },
    {
      "midi": 67,
      "hit": false,
      "t": 337562.5,
      "d": 593.75,
      "v": 90
    },
    {
      "midi": 67,
      "hit": false,
      "t": 338312.5,
      "d": 593.75,
      "v": 97
    },
    {
      "midi": 90,
      "hit": false,
      "t": 338437.5,
      "d": 156.25,
      "v": 95
    },
    {
      "midi": 91,
      "hit": false,
      "t": 338625,
      "d": 156.25,
      "v": 88
    },
    {
      "midi": 92,
      "hit": false,
      "t": 338812.5,
      "d": 156.25,
      "v": 93
    },
    {
      "midi": 45,
      "hit": false,
      "t": 339000,
      "d": 5593.75,
      "v": 73
    },
    {
      "midi": 76,
      "hit": false,
      "t": 339000,
      "d": 5875,
      "v": 96
    },
    {
      "midi": 93,
      "hit": false,
      "t": 339000,
      "d": 5875,
      "v": 89
    },
    {
      "midi": 64,
      "hit": false,
      "t": 339062.5,
      "d": 1062.5,
      "v": 101
    },
    {
      "midi": 57,
      "hit": false,
      "t": 339750,
      "d": 593.75,
      "v": 86
    },
    {
      "midi": 57,
      "hit": false,
      "t": 340500,
      "d": 1062.5,
      "v": 100
    },
    {
      "midi": 64,
      "hit": false,
      "t": 340562.5,
      "d": 593.75,
      "v": 88
    },
    {
      "midi": 64,
      "hit": false,
      "t": 341312.5,
      "d": 1062.5,
      "v": 93
    },
    {
      "midi": 57,
      "hit": false,
      "t": 342000,
      "d": 593.75,
      "v": 86
    },
    {
      "midi": 57,
      "hit": false,
      "t": 342750,
      "d": 593.75,
      "v": 93
    },
    {
      "midi": 64,
      "hit": false,
      "t": 342812.5,
      "d": 593.75,
      "v": 94
    },
    {
      "midi": 57,
      "hit": false,
      "t": 343500,
      "d": 593.75,
      "v": 95
    },
    {
      "midi": 64,
      "hit": false,
      "t": 343562.5,
      "d": 593.75,
      "v": 96
    },
    {
      "midi": 57,
      "hit": false,
      "t": 344250,
      "d": 250,
      "v": 93
    },
    {
      "midi": 64,
      "hit": false,
      "t": 344312.5,
      "d": 593.75,
      "v": 93
    },
    {
      "midi": 66,
      "hit": false,
      "t": 345062.5,
      "d": 1062.5,
      "v": 92
    },
    {
      "midi": 57,
      "hit": false,
      "t": 345750,
      "d": 593.75,
      "v": 87
    },
    {
      "midi": 57,
      "hit": false,
      "t": 346500,
      "d": 1062.5,
      "v": 87
    },
    {
      "midi": 66,
      "hit": false,
      "t": 346562.5,
      "d": 593.75,
      "v": 91
    },
    {
      "midi": 66,
      "hit": false,
      "t": 347312.5,
      "d": 1062.5,
      "v": 94
    },
    {
      "midi": 57,
      "hit": false,
      "t": 348000,
      "d": 593.75,
      "v": 99
    },
    {
      "midi": 57,
      "hit": false,
      "t": 348750,
      "d": 593.75,
      "v": 102
    },
    {
      "midi": 66,
      "hit": false,
      "t": 348812.5,
      "d": 593.75,
      "v": 102
    },
    {
      "midi": 57,
      "hit": false,
      "t": 349500,
      "d": 593.75,
      "v": 88
    },
    {
      "midi": 66,
      "hit": false,
      "t": 349562.5,
      "d": 593.75,
      "v": 95
    },
    {
      "midi": 57,
      "hit": false,
      "t": 350250,
      "d": 1062.5,
      "v": 102
    },
    {
      "midi": 66,
      "hit": false,
      "t": 350312.5,
      "d": 593.75,
      "v": 92
    },
    {
      "midi": 64,
      "hit": false,
      "t": 351062.5,
      "d": 1062.5,
      "v": 103
    },
    {
      "midi": 57,
      "hit": false,
      "t": 351750,
      "d": 593.75,
      "v": 86
    },
    {
      "midi": 57,
      "hit": false,
      "t": 352500,
      "d": 1062.5,
      "v": 86
    },
    {
      "midi": 64,
      "hit": false,
      "t": 352562.5,
      "d": 593.75,
      "v": 94
    },
    {
      "midi": 64,
      "hit": false,
      "t": 353312.5,
      "d": 1062.5,
      "v": 95
    },
    {
      "midi": 57,
      "hit": false,
      "t": 354000,
      "d": 593.75,
      "v": 99
    },
    {
      "midi": 57,
      "hit": false,
      "t": 354750,
      "d": 593.75,
      "v": 93
    },
    {
      "midi": 64,
      "hit": false,
      "t": 354812.5,
      "d": 593.75,
      "v": 103
    },
    {
      "midi": 57,
      "hit": false,
      "t": 355500,
      "d": 593.75,
      "v": 95
    },
    {
      "midi": 64,
      "hit": false,
      "t": 355562.5,
      "d": 593.75,
      "v": 101
    },
    {
      "midi": 57,
      "hit": false,
      "t": 356250,
      "d": 1062.5,
      "v": 87
    },
    {
      "midi": 64,
      "hit": false,
      "t": 356312.5,
      "d": 593.75,
      "v": 98
    },
    {
      "midi": 66,
      "hit": false,
      "t": 357062.5,
      "d": 1062.5,
      "v": 101
    },
    {
      "midi": 57,
      "hit": false,
      "t": 357750,
      "d": 593.75,
      "v": 103
    },
    {
      "midi": 57,
      "hit": false,
      "t": 358500,
      "d": 1062.5,
      "v": 92
    },
    {
      "midi": 66,
      "hit": false,
      "t": 358562.5,
      "d": 593.75,
      "v": 89
    },
    {
      "midi": 66,
      "hit": false,
      "t": 359312.5,
      "d": 1062.5,
      "v": 102
    },
    {
      "midi": 57,
      "hit": false,
      "t": 360000,
      "d": 593.75,
      "v": 95
    },
    {
      "midi": 57,
      "hit": false,
      "t": 360750,
      "d": 593.75,
      "v": 90
    },
    {
      "midi": 66,
      "hit": false,
      "t": 360812.5,
      "d": 593.75,
      "v": 98
    },
    {
      "midi": 57,
      "hit": false,
      "t": 361500,
      "d": 593.75,
      "v": 94
    },
    {
      "midi": 66,
      "hit": false,
      "t": 361562.5,
      "d": 593.75,
      "v": 86
    },
    {
      "midi": 57,
      "hit": false,
      "t": 362250,
      "d": 1062.5,
      "v": 94
    },
    {
      "midi": 66,
      "hit": false,
      "t": 362312.5,
      "d": 593.75,
      "v": 101
    },
    {
      "midi": 66,
      "hit": false,
      "t": 363062.5,
      "d": 1062.5,
      "v": 94
    },
    {
      "midi": 57,
      "hit": false,
      "t": 363750,
      "d": 593.75,
      "v": 86
    },
    {
      "midi": 57,
      "hit": false,
      "t": 364500,
      "d": 1062.5,
      "v": 99
    },
    {
      "midi": 66,
      "hit": false,
      "t": 364562.5,
      "d": 593.75,
      "v": 88
    },
    {
      "midi": 66,
      "hit": false,
      "t": 365312.5,
      "d": 1062.5,
      "v": 92
    },
    {
      "midi": 57,
      "hit": false,
      "t": 366000,
      "d": 593.75,
      "v": 88
    },
    {
      "midi": 57,
      "hit": false,
      "t": 366750,
      "d": 593.75,
      "v": 100
    },
    {
      "midi": 66,
      "hit": false,
      "t": 366812.5,
      "d": 593.75,
      "v": 89
    },
    {
      "midi": 57,
      "hit": false,
      "t": 367500,
      "d": 593.75,
      "v": 100
    },
    {
      "midi": 66,
      "hit": false,
      "t": 367562.5,
      "d": 593.75,
      "v": 99
    },
    {
      "midi": 57,
      "hit": false,
      "t": 368250,
      "d": 1062.5,
      "v": 92
    },
    {
      "midi": 66,
      "hit": false,
      "t": 368312.5,
      "d": 593.75,
      "v": 95
    },
    {
      "midi": 67,
      "hit": false,
      "t": 369062.5,
      "d": 1062.5,
      "v": 97
    },
    {
      "midi": 57,
      "hit": false,
      "t": 369750,
      "d": 593.75,
      "v": 103
    },
    {
      "midi": 57,
      "hit": false,
      "t": 370500,
      "d": 1062.5,
      "v": 99
    },
    {
      "midi": 67,
      "hit": false,
      "t": 370562.5,
      "d": 593.75,
      "v": 100
    },
    {
      "midi": 67,
      "hit": false,
      "t": 371312.5,
      "d": 1062.5,
      "v": 86
    },
    {
      "midi": 57,
      "hit": false,
      "t": 372000,
      "d": 593.75,
      "v": 103
    },
    {
      "midi": 67,
      "hit": false,
      "t": 372812.5,
      "d": 593.75,
      "v": 102
    },
    {
      "midi": 62,
      "hit": false,
      "t": 373531.25,
      "d": 593.75,
      "v": 98
    },
    {
      "midi": 67,
      "hit": false,
      "t": 373562.5,
      "d": 593.75,
      "v": 98
    },
    {
      "midi": 57,
      "hit": false,
      "t": 374250,
      "d": 1062.5,
      "v": 97
    },
    {
      "midi": 62,
      "hit": false,
      "t": 374281.25,
      "d": 593.75,
      "v": 99
    },
    {
      "midi": 64,
      "hit": false,
      "t": 374312.5,
      "d": 593.75,
      "v": 96
    },
    {
      "midi": 62,
      "hit": false,
      "t": 375031.25,
      "d": 1062.5,
      "v": 98
    },
    {
      "midi": 66,
      "hit": false,
      "t": 375062.5,
      "d": 1062.5,
      "v": 102
    },
    {
      "midi": 57,
      "hit": false,
      "t": 375750,
      "d": 593.75,
      "v": 92
    },
    {
      "midi": 57,
      "hit": false,
      "t": 376500,
      "d": 1062.5,
      "v": 102
    },
    {
      "midi": 66,
      "hit": false,
      "t": 376562.5,
      "d": 593.75,
      "v": 98
    },
    {
      "midi": 66,
      "hit": false,
      "t": 377312.5,
      "d": 1062.5,
      "v": 89
    },
    {
      "midi": 57,
      "hit": false,
      "t": 378000,
      "d": 593.75,
      "v": 98
    },
    {
      "midi": 57,
      "hit": false,
      "t": 378750,
      "d": 593.75,
      "v": 101
    },
    {
      "midi": 66,
      "hit": false,
      "t": 378812.5,
      "d": 593.75,
      "v": 92
    },
    {
      "midi": 57,
      "hit": false,
      "t": 379500,
      "d": 593.75,
      "v": 99
    },
    {
      "midi": 66,
      "hit": false,
      "t": 379562.5,
      "d": 593.75,
      "v": 102
    },
    {
      "midi": 59,
      "hit": false,
      "t": 380250,
      "d": 1062.5,
      "v": 92
    },
    {
      "midi": 66,
      "hit": false,
      "t": 380312.5,
      "d": 593.75,
      "v": 97
    },
    {
      "midi": 67,
      "hit": false,
      "t": 381062.5,
      "d": 1062.5,
      "v": 98
    },
    {
      "midi": 59,
      "hit": false,
      "t": 381750,
      "d": 593.75,
      "v": 93
    },
    {
      "midi": 59,
      "hit": false,
      "t": 382500,
      "d": 1062.5,
      "v": 86
    },
    {
      "midi": 67,
      "hit": false,
      "t": 382562.5,
      "d": 593.75,
      "v": 89
    },
    {
      "midi": 67,
      "hit": false,
      "t": 383312.5,
      "d": 1062.5,
      "v": 94
    },
    {
      "midi": 59,
      "hit": false,
      "t": 384000,
      "d": 593.75,
      "v": 100
    },
    {
      "midi": 59,
      "hit": false,
      "t": 384750,
      "d": 593.75,
      "v": 95
    },
    {
      "midi": 67,
      "hit": false,
      "t": 384812.5,
      "d": 593.75,
      "v": 93
    },
    {
      "midi": 57,
      "hit": false,
      "t": 385500,
      "d": 593.75,
      "v": 97
    },
    {
      "midi": 67,
      "hit": false,
      "t": 385562.5,
      "d": 593.75,
      "v": 90
    },
    {
      "midi": 57,
      "hit": false,
      "t": 386250,
      "d": 1062.5,
      "v": 95
    },
    {
      "midi": 67,
      "hit": false,
      "t": 386312.5,
      "d": 593.75,
      "v": 89
    },
    {
      "midi": 64,
      "hit": false,
      "t": 387062.5,
      "d": 1062.5,
      "v": 96
    },
    {
      "midi": 57,
      "hit": false,
      "t": 387750,
      "d": 593.75,
      "v": 97
    },
    {
      "midi": 57,
      "hit": false,
      "t": 388500,
      "d": 1062.5,
      "v": 87
    },
    {
      "midi": 64,
      "hit": false,
      "t": 388562.5,
      "d": 593.75,
      "v": 100
    },
    {
      "midi": 64,
      "hit": false,
      "t": 389312.5,
      "d": 1062.5,
      "v": 94
    },
    {
      "midi": 57,
      "hit": false,
      "t": 390000,
      "d": 593.75,
      "v": 88
    },
    {
      "midi": 57,
      "hit": false,
      "t": 390750,
      "d": 593.75,
      "v": 91
    },
    {
      "midi": 64,
      "hit": false,
      "t": 390812.5,
      "d": 593.75,
      "v": 97
    },
    {
      "midi": 57,
      "hit": false,
      "t": 391500,
      "d": 593.75,
      "v": 90
    },
    {
      "midi": 64,
      "hit": false,
      "t": 391562.5,
      "d": 593.75,
      "v": 101
    },
    {
      "midi": 57,
      "hit": false,
      "t": 392250,
      "d": 1062.5,
      "v": 101
    },
    {
      "midi": 64,
      "hit": false,
      "t": 392312.5,
      "d": 593.75,
      "v": 94
    },
    {
      "midi": 66,
      "hit": false,
      "t": 393062.5,
      "d": 1062.5,
      "v": 91
    },
    {
      "midi": 57,
      "hit": false,
      "t": 393750,
      "d": 593.75,
      "v": 101
    },
    {
      "midi": 57,
      "hit": false,
      "t": 394500,
      "d": 1062.5,
      "v": 88
    },
    {
      "midi": 66,
      "hit": false,
      "t": 394562.5,
      "d": 593.75,
      "v": 94
    },
    {
      "midi": 66,
      "hit": false,
      "t": 395312.5,
      "d": 1062.5,
      "v": 100
    },
    {
      "midi": 57,
      "hit": false,
      "t": 396000,
      "d": 593.75,
      "v": 102
    },
    {
      "midi": 57,
      "hit": false,
      "t": 396750,
      "d": 593.75,
      "v": 103
    },
    {
      "midi": 66,
      "hit": false,
      "t": 396812.5,
      "d": 593.75,
      "v": 91
    },
    {
      "midi": 57,
      "hit": false,
      "t": 397500,
      "d": 593.75,
      "v": 97
    },
    {
      "midi": 66,
      "hit": false,
      "t": 397562.5,
      "d": 593.75,
      "v": 99
    },
    {
      "midi": 66,
      "hit": false,
      "t": 398312.5,
      "d": 593.75,
      "v": 100
    },
    {
      "midi": 64,
      "hit": false,
      "t": 399062.5,
      "d": 1062.5,
      "v": 102
    },
    {
      "midi": 57,
      "hit": false,
      "t": 399750,
      "d": 593.75,
      "v": 96
    },
    {
      "midi": 57,
      "hit": false,
      "t": 400500,
      "d": 1062.5,
      "v": 101
    },
    {
      "midi": 64,
      "hit": false,
      "t": 400562.5,
      "d": 593.75,
      "v": 99
    },
    {
      "midi": 64,
      "hit": false,
      "t": 401312.5,
      "d": 1062.5,
      "v": 93
    },
    {
      "midi": 57,
      "hit": false,
      "t": 402000,
      "d": 593.75,
      "v": 102
    },
    {
      "midi": 57,
      "hit": false,
      "t": 402750,
      "d": 593.75,
      "v": 87
    },
    {
      "midi": 64,
      "hit": false,
      "t": 402812.5,
      "d": 593.75,
      "v": 86
    },
    {
      "midi": 57,
      "hit": false,
      "t": 403500,
      "d": 593.75,
      "v": 93
    },
    {
      "midi": 64,
      "hit": false,
      "t": 403562.5,
      "d": 593.75,
      "v": 88
    },
    {
      "midi": 64,
      "hit": false,
      "t": 404312.5,
      "d": 593.75,
      "v": 86
    },
    {
      "midi": 66,
      "hit": false,
      "t": 405062.5,
      "d": 1062.5,
      "v": 89
    },
    {
      "midi": 57,
      "hit": false,
      "t": 405750,
      "d": 593.75,
      "v": 100
    },
    {
      "midi": 57,
      "hit": false,
      "t": 406500,
      "d": 1062.5,
      "v": 88
    },
    {
      "midi": 66,
      "hit": false,
      "t": 406562.5,
      "d": 593.75,
      "v": 99
    },
    {
      "midi": 66,
      "hit": false,
      "t": 407312.5,
      "d": 1062.5,
      "v": 102
    },
    {
      "midi": 57,
      "hit": false,
      "t": 408000,
      "d": 593.75,
      "v": 95
    },
    {
      "midi": 57,
      "hit": false,
      "t": 408750,
      "d": 593.75,
      "v": 88
    },
    {
      "midi": 66,
      "hit": false,
      "t": 408812.5,
      "d": 593.75,
      "v": 92
    },
    {
      "midi": 57,
      "hit": false,
      "t": 409500,
      "d": 593.75,
      "v": 99
    },
    {
      "midi": 66,
      "hit": false,
      "t": 409562.5,
      "d": 593.75,
      "v": 87
    },
    {
      "midi": 66,
      "hit": false,
      "t": 410312.5,
      "d": 593.75,
      "v": 99
    },
    {
      "midi": 64,
      "hit": false,
      "t": 411062.5,
      "d": 1062.5,
      "v": 99
    },
    {
      "midi": 57,
      "hit": false,
      "t": 411750,
      "d": 593.75,
      "v": 96
    },
    {
      "midi": 57,
      "hit": false,
      "t": 412500,
      "d": 1062.5,
      "v": 94
    },
    {
      "midi": 64,
      "hit": false,
      "t": 412562.5,
      "d": 593.75,
      "v": 93
    },
    {
      "midi": 64,
      "hit": false,
      "t": 413312.5,
      "d": 1062.5,
      "v": 103
    },
    {
      "midi": 57,
      "hit": false,
      "t": 414000,
      "d": 593.75,
      "v": 93
    },
    {
      "midi": 57,
      "hit": false,
      "t": 414750,
      "d": 593.75,
      "v": 93
    },
    {
      "midi": 64,
      "hit": false,
      "t": 414812.5,
      "d": 593.75,
      "v": 99
    },
    {
      "midi": 57,
      "hit": false,
      "t": 415500,
      "d": 593.75,
      "v": 101
    },
    {
      "midi": 64,
      "hit": false,
      "t": 415562.5,
      "d": 593.75,
      "v": 99
    },
    {
      "midi": 57,
      "hit": false,
      "t": 416250,
      "d": 562.5,
      "v": 96
    },
    {
      "midi": 64,
      "hit": false,
      "t": 416312.5,
      "d": 593.75,
      "v": 96
    },
    {
      "midi": 67,
      "hit": false,
      "t": 417062.5,
      "d": 1062.5,
      "v": 101
    },
    {
      "midi": 57,
      "hit": false,
      "t": 417750,
      "d": 593.75,
      "v": 103
    },
    {
      "midi": 57,
      "hit": false,
      "t": 418500,
      "d": 1062.5,
      "v": 103
    },
    {
      "midi": 67,
      "hit": false,
      "t": 418562.5,
      "d": 593.75,
      "v": 87
    },
    {
      "midi": 67,
      "hit": false,
      "t": 419312.5,
      "d": 1062.5,
      "v": 97
    },
    {
      "midi": 57,
      "hit": false,
      "t": 420000,
      "d": 593.75,
      "v": 101
    },
    {
      "midi": 67,
      "hit": false,
      "t": 420812.5,
      "d": 593.75,
      "v": 98
    },
    {
      "midi": 62,
      "hit": false,
      "t": 421531.25,
      "d": 593.75,
      "v": 97
    },
    {
      "midi": 67,
      "hit": false,
      "t": 421562.5,
      "d": 593.75,
      "v": 92
    },
    {
      "midi": 62,
      "hit": false,
      "t": 422281.25,
      "d": 593.75,
      "v": 93
    },
    {
      "midi": 64,
      "hit": false,
      "t": 422312.5,
      "d": 593.75,
      "v": 92
    },
    {
      "midi": 62,
      "hit": false,
      "t": 423031.25,
      "d": 1062.5,
      "v": 101
    },
    {
      "midi": 66,
      "hit": false,
      "t": 423062.5,
      "d": 1062.5,
      "v": 89
    },
    {
      "midi": 57,
      "hit": false,
      "t": 423750,
      "d": 593.75,
      "v": 92
    },
    {
      "midi": 57,
      "hit": false,
      "t": 424500,
      "d": 1062.5,
      "v": 91
    },
    {
      "midi": 66,
      "hit": false,
      "t": 424562.5,
      "d": 593.75,
      "v": 93
    },
    {
      "midi": 66,
      "hit": false,
      "t": 425312.5,
      "d": 1062.5,
      "v": 91
    },
    {
      "midi": 57,
      "hit": false,
      "t": 426000,
      "d": 593.75,
      "v": 102
    },
    {
      "midi": 57,
      "hit": false,
      "t": 426750,
      "d": 593.75,
      "v": 97
    },
    {
      "midi": 66,
      "hit": false,
      "t": 426812.5,
      "d": 593.75,
      "v": 93
    },
    {
      "midi": 57,
      "hit": false,
      "t": 427500,
      "d": 593.75,
      "v": 97
    },
    {
      "midi": 66,
      "hit": false,
      "t": 427562.5,
      "d": 593.75,
      "v": 86
    },
    {
      "midi": 59,
      "hit": false,
      "t": 428250,
      "d": 1062.5,
      "v": 90
    },
    {
      "midi": 66,
      "hit": false,
      "t": 428312.5,
      "d": 593.75,
      "v": 99
    },
    {
      "midi": 67,
      "hit": false,
      "t": 429062.5,
      "d": 1062.5,
      "v": 103
    },
    {
      "midi": 59,
      "hit": false,
      "t": 429750,
      "d": 593.75,
      "v": 94
    },
    {
      "midi": 59,
      "hit": false,
      "t": 430500,
      "d": 1062.5,
      "v": 94
    },
    {
      "midi": 67,
      "hit": false,
      "t": 430562.5,
      "d": 593.75,
      "v": 96
    },
    {
      "midi": 67,
      "hit": false,
      "t": 431312.5,
      "d": 1062.5,
      "v": 95
    },
    {
      "midi": 57,
      "hit": false,
      "t": 432000,
      "d": 593.75,
      "v": 89
    },
    {
      "midi": 57,
      "hit": false,
      "t": 432750,
      "d": 593.75,
      "v": 99
    },
    {
      "midi": 64,
      "hit": false,
      "t": 432812.5,
      "d": 593.75,
      "v": 99
    },
    {
      "midi": 57,
      "hit": false,
      "t": 433500,
      "d": 593.75,
      "v": 90
    },
    {
      "midi": 64,
      "hit": false,
      "t": 433562.5,
      "d": 593.75,
      "v": 94
    },
    {
      "midi": 57,
      "hit": false,
      "t": 434250,
      "d": 1843.75,
      "v": 96
    },
    {
      "midi": 64,
      "hit": false,
      "t": 434312.5,
      "d": 593.75,
      "v": 103
    },
    {
      "midi": 66,
      "hit": false,
      "t": 435062.5,
      "d": 1843.75,
      "v": 101
    },
    {
      "midi": 57,
      "hit": false,
      "t": 436500,
      "d": 1843.75,
      "v": 98
    },
    {
      "midi": 66,
      "hit": false,
      "t": 437312.5,
      "d": 1843.75,
      "v": 103
    },
    {
      "midi": 57,
      "hit": false,
      "t": 438750,
      "d": 906.25,
      "v": 88
    },
    {
      "midi": 66,
      "hit": false,
      "t": 439562.5,
      "d": 906.25,
      "v": 94
    },
    {
      "midi": 59,
      "hit": false,
      "t": 440250,
      "d": 5562.5,
      "v": 86
    },
    {
      "midi": 74,
      "hit": false,
      "t": 440906.25,
      "d": 5406.25,
      "v": 80
    },
    {
      "midi": 78,
      "hit": false,
      "t": 441031.25,
      "d": 5406.25,
      "v": 74
    },
    {
      "midi": 67,
      "hit": false,
      "t": 441062.5,
      "d": 5562.5,
      "v": 98
    },
    {
      "midi": 83,
      "hit": false,
      "t": 441281.25,
      "d": 5312.5,
      "v": 72
    },
    {
      "midi": 57,
      "hit": false,
      "t": 446250,
      "d": 5562.5,
      "v": 99
    },
    {
      "midi": 73,
      "hit": false,
      "t": 446906.25,
      "d": 3343.75,
      "v": 69
    },
    {
      "midi": 76,
      "hit": false,
      "t": 447031.25,
      "d": 3343.75,
      "v": 79
    },
    {
      "midi": 64,
      "hit": false,
      "t": 447062.5,
      "d": 5562.5,
      "v": 87
    },
    {
      "midi": 83,
      "hit": false,
      "t": 447156.25,
      "d": 3218.75,
      "v": 84
    },
    {
      "midi": 73,
      "hit": false,
      "t": 450656.25,
      "d": 750,
      "v": 87
    },
    {
      "midi": 76,
      "hit": false,
      "t": 451406.25,
      "d": 750,
      "v": 79
    },
    {
      "midi": 83,
      "hit": false,
      "t": 452156.25,
      "d": 1500,
      "v": 82
    },
    {
      "midi": 61,
      "hit": false,
      "t": 452250,
      "d": 5562.5,
      "v": 96
    },
    {
      "midi": 64,
      "hit": false,
      "t": 453031.25,
      "d": 5562.5,
      "v": 88
    },
    {
      "midi": 69,
      "hit": false,
      "t": 453062.5,
      "d": 5562.5,
      "v": 95
    },
    {
      "midi": 81,
      "hit": false,
      "t": 453656.25,
      "d": 4843.75,
      "v": 68
    },
    {
      "midi": 59,
      "hit": false,
      "t": 458250,
      "d": 5562.5,
      "v": 94
    },
    {
      "midi": 71,
      "hit": false,
      "t": 458906.25,
      "d": 5625,
      "v": 79
    },
    {
      "midi": 75,
      "hit": false,
      "t": 459031.25,
      "d": 5531.25,
      "v": 82
    },
    {
      "midi": 66,
      "hit": false,
      "t": 459062.5,
      "d": 5562.5,
      "v": 87
    },
    {
      "midi": 78,
      "hit": false,
      "t": 459156.25,
      "d": 5406.25,
      "v": 76
    },
    {
      "midi": 59,
      "hit": false,
      "t": 464250,
      "d": 5562.5,
      "v": 97
    },
    {
      "midi": 71,
      "hit": false,
      "t": 465000,
      "d": 812.5,
      "v": 75
    },
    {
      "midi": 67,
      "hit": false,
      "t": 465062.5,
      "d": 5562.5,
      "v": 93
    },
    {
      "midi": 76,
      "hit": false,
      "t": 465750,
      "d": 812.5,
      "v": 79
    },
    {
      "midi": 83,
      "hit": false,
      "t": 466500,
      "d": 781.25,
      "v": 78
    },
    {
      "midi": 76,
      "hit": false,
      "t": 467250,
      "d": 3468.75,
      "v": 82
    },
    {
      "midi": 59,
      "hit": false,
      "t": 470250,
      "d": 5562.5,
      "v": 100
    },
    {
      "midi": 71,
      "hit": false,
      "t": 471000,
      "d": 812.5,
      "v": 87
    },
    {
      "midi": 67,
      "hit": false,
      "t": 471062.5,
      "d": 5562.5,
      "v": 96
    },
    {
      "midi": 75,
      "hit": false,
      "t": 471750,
      "d": 812.5,
      "v": 71
    },
    {
      "midi": 83,
      "hit": false,
      "t": 472500,
      "d": 812.5,
      "v": 71
    },
    {
      "midi": 75,
      "hit": false,
      "t": 473250,
      "d": 3468.75,
      "v": 83
    },
    {
      "midi": 59,
      "hit": false,
      "t": 476250,
      "d": 5562.5,
      "v": 103
    },
    {
      "midi": 71,
      "hit": false,
      "t": 477000,
      "d": 812.5,
      "v": 69
    },
    {
      "midi": 67,
      "hit": false,
      "t": 477062.5,
      "d": 5562.5,
      "v": 98
    },
    {
      "midi": 74,
      "hit": false,
      "t": 477750,
      "d": 812.5,
      "v": 72
    },
    {
      "midi": 83,
      "hit": false,
      "t": 478500,
      "d": 812.5,
      "v": 80
    },
    {
      "midi": 74,
      "hit": false,
      "t": 479250,
      "d": 3468.75,
      "v": 78
    },
    {
      "midi": 58,
      "hit": false,
      "t": 482250,
      "d": 2468.75,
      "v": 93
    },
    {
      "midi": 67,
      "hit": false,
      "t": 483062.5,
      "d": 2468.75,
      "v": 90
    },
    {
      "midi": 86,
      "hit": false,
      "t": 483750,
      "d": 750,
      "v": 82
    },
    {
      "midi": 82,
      "hit": false,
      "t": 484500,
      "d": 750,
      "v": 78
    },
    {
      "midi": 57,
      "hit": false,
      "t": 485250,
      "d": 2468.75,
      "v": 86
    },
    {
      "midi": 90,
      "hit": false,
      "t": 485250,
      "d": 750,
      "v": 87
    },
    {
      "midi": 88,
      "hit": false,
      "t": 486000,
      "d": 2562.5,
      "v": 73
    },
    {
      "midi": 64,
      "hit": false,
      "t": 486062.5,
      "d": 2468.75,
      "v": 94
    },
    {
      "midi": 57,
      "hit": false,
      "t": 488250,
      "d": 1062.5,
      "v": 87
    },
    {
      "midi": 62,
      "hit": false,
      "t": 489000,
      "d": 6000,
      "v": 80
    },
    {
      "midi": 66,
      "hit": false,
      "t": 489000,
      "d": 6000,
      "v": 73
    },
    {
      "midi": 66,
      "hit": false,
      "t": 489062.5,
      "d": 1062.5,
      "v": 89
    },
    {
      "midi": 57,
      "hit": false,
      "t": 489750,
      "d": 593.75,
      "v": 96
    },
    {
      "midi": 57,
      "hit": false,
      "t": 490500,
      "d": 1062.5,
      "v": 97
    },
    {
      "midi": 66,
      "hit": false,
      "t": 490562.5,
      "d": 593.75,
      "v": 100
    },
    {
      "midi": 66,
      "hit": false,
      "t": 491312.5,
      "d": 1062.5,
      "v": 87
    },
    {
      "midi": 57,
      "hit": false,
      "t": 492000,
      "d": 593.75,
      "v": 87
    },
    {
      "midi": 57,
      "hit": false,
      "t": 492750,
      "d": 593.75,
      "v": 96
    },
    {
      "midi": 66,
      "hit": false,
      "t": 492812.5,
      "d": 593.75,
      "v": 101
    },
    {
      "midi": 57,
      "hit": false,
      "t": 493500,
      "d": 593.75,
      "v": 89
    },
    {
      "midi": 66,
      "hit": false,
      "t": 493562.5,
      "d": 593.75,
      "v": 95
    },
    {
      "midi": 57,
      "hit": false,
      "t": 494250,
      "d": 1062.5,
      "v": 89
    },
    {
      "midi": 66,
      "hit": false,
      "t": 494312.5,
      "d": 593.75,
      "v": 86
    },
    {
      "midi": 62,
      "hit": false,
      "t": 495000,
      "d": 6000,
      "v": 73
    },
    {
      "midi": 66,
      "hit": false,
      "t": 495000,
      "d": 6000,
      "v": 70
    },
    {
      "midi": 64,
      "hit": false,
      "t": 495062.5,
      "d": 1062.5,
      "v": 92
    },
    {
      "midi": 57,
      "hit": false,
      "t": 495750,
      "d": 593.75,
      "v": 88
    },
    {
      "midi": 57,
      "hit": false,
      "t": 496500,
      "d": 1062.5,
      "v": 91
    },
    {
      "midi": 64,
      "hit": false,
      "t": 496562.5,
      "d": 593.75,
      "v": 100
    },
    {
      "midi": 64,
      "hit": false,
      "t": 497312.5,
      "d": 1062.5,
      "v": 86
    },
    {
      "midi": 57,
      "hit": false,
      "t": 498000,
      "d": 593.75,
      "v": 92
    },
    {
      "midi": 57,
      "hit": false,
      "t": 498750,
      "d": 593.75,
      "v": 90
    },
    {
      "midi": 64,
      "hit": false,
      "t": 498812.5,
      "d": 593.75,
      "v": 103
    },
    {
      "midi": 57,
      "hit": false,
      "t": 499500,
      "d": 593.75,
      "v": 99
    },
    {
      "midi": 64,
      "hit": false,
      "t": 499562.5,
      "d": 593.75,
      "v": 100
    },
    {
      "midi": 57,
      "hit": false,
      "t": 500250,
      "d": 1062.5,
      "v": 101
    },
    {
      "midi": 64,
      "hit": false,
      "t": 500312.5,
      "d": 593.75,
      "v": 103
    },
    {
      "midi": 59,
      "hit": false,
      "t": 501000,
      "d": 6000,
      "v": 71
    },
    {
      "midi": 66,
      "hit": false,
      "t": 501000,
      "d": 6000,
      "v": 78
    },
    {
      "midi": 66,
      "hit": false,
      "t": 501062.5,
      "d": 1062.5,
      "v": 101
    },
    {
      "midi": 57,
      "hit": false,
      "t": 501750,
      "d": 593.75,
      "v": 95
    },
    {
      "midi": 57,
      "hit": false,
      "t": 502500,
      "d": 1062.5,
      "v": 87
    },
    {
      "midi": 66,
      "hit": false,
      "t": 502562.5,
      "d": 593.75,
      "v": 99
    },
    {
      "midi": 66,
      "hit": false,
      "t": 503312.5,
      "d": 1062.5,
      "v": 89
    },
    {
      "midi": 57,
      "hit": false,
      "t": 504000,
      "d": 593.75,
      "v": 99
    },
    {
      "midi": 57,
      "hit": false,
      "t": 504750,
      "d": 593.75,
      "v": 87
    },
    {
      "midi": 66,
      "hit": false,
      "t": 504812.5,
      "d": 593.75,
      "v": 101
    },
    {
      "midi": 57,
      "hit": false,
      "t": 505500,
      "d": 593.75,
      "v": 87
    },
    {
      "midi": 66,
      "hit": false,
      "t": 505562.5,
      "d": 593.75,
      "v": 86
    },
    {
      "midi": 57,
      "hit": false,
      "t": 506250,
      "d": 1062.5,
      "v": 99
    },
    {
      "midi": 66,
      "hit": false,
      "t": 506312.5,
      "d": 593.75,
      "v": 86
    },
    {
      "midi": 62,
      "hit": false,
      "t": 507000,
      "d": 6000,
      "v": 74
    },
    {
      "midi": 66,
      "hit": false,
      "t": 507000,
      "d": 6000,
      "v": 81
    },
    {
      "midi": 66,
      "hit": false,
      "t": 507062.5,
      "d": 1062.5,
      "v": 96
    },
    {
      "midi": 57,
      "hit": false,
      "t": 507750,
      "d": 593.75,
      "v": 93
    },
    {
      "midi": 57,
      "hit": false,
      "t": 508500,
      "d": 1062.5,
      "v": 99
    },
    {
      "midi": 66,
      "hit": false,
      "t": 508562.5,
      "d": 593.75,
      "v": 86
    },
    {
      "midi": 66,
      "hit": false,
      "t": 509312.5,
      "d": 1062.5,
      "v": 87
    },
    {
      "midi": 57,
      "hit": false,
      "t": 510000,
      "d": 593.75,
      "v": 90
    },
    {
      "midi": 57,
      "hit": false,
      "t": 510750,
      "d": 593.75,
      "v": 98
    },
    {
      "midi": 66,
      "hit": false,
      "t": 510812.5,
      "d": 593.75,
      "v": 89
    },
    {
      "midi": 57,
      "hit": false,
      "t": 511500,
      "d": 593.75,
      "v": 101
    },
    {
      "midi": 66,
      "hit": false,
      "t": 511562.5,
      "d": 593.75,
      "v": 99
    },
    {
      "midi": 59,
      "hit": false,
      "t": 512250,
      "d": 1062.5,
      "v": 95
    },
    {
      "midi": 66,
      "hit": false,
      "t": 512312.5,
      "d": 593.75,
      "v": 102
    },
    {
      "midi": 55,
      "hit": false,
      "t": 513000,
      "d": 6000,
      "v": 82
    },
    {
      "midi": 59,
      "hit": false,
      "t": 513000,
      "d": 6000,
      "v": 67
    },
    {
      "midi": 66,
      "hit": false,
      "t": 513062.5,
      "d": 1062.5,
      "v": 97
    },
    {
      "midi": 59,
      "hit": false,
      "t": 513750,
      "d": 593.75,
      "v": 92
    },
    {
      "midi": 59,
      "hit": false,
      "t": 514500,
      "d": 1062.5,
      "v": 97
    },
    {
      "midi": 66,
      "hit": false,
      "t": 514562.5,
      "d": 593.75,
      "v": 91
    },
    {
      "midi": 66,
      "hit": false,
      "t": 515312.5,
      "d": 1062.5,
      "v": 101
    },
    {
      "midi": 59,
      "hit": false,
      "t": 516000,
      "d": 593.75,
      "v": 102
    },
    {
      "midi": 59,
      "hit": false,
      "t": 516750,
      "d": 593.75,
      "v": 97
    },
    {
      "midi": 66,
      "hit": false,
      "t": 516812.5,
      "d": 593.75,
      "v": 90
    },
    {
      "midi": 59,
      "hit": false,
      "t": 517500,
      "d": 593.75,
      "v": 89
    },
    {
      "midi": 66,
      "hit": false,
      "t": 517562.5,
      "d": 593.75,
      "v": 87
    },
    {
      "midi": 58,
      "hit": false,
      "t": 518250,
      "d": 1062.5,
      "v": 86
    },
    {
      "midi": 66,
      "hit": false,
      "t": 518312.5,
      "d": 593.75,
      "v": 94
    },
    {
      "midi": 54,
      "hit": false,
      "t": 519000,
      "d": 3000,
      "v": 70
    },
    {
      "midi": 58,
      "hit": false,
      "t": 519000,
      "d": 3000,
      "v": 69
    },
    {
      "midi": 66,
      "hit": false,
      "t": 519062.5,
      "d": 1062.5,
      "v": 100
    },
    {
      "midi": 58,
      "hit": false,
      "t": 519750,
      "d": 593.75,
      "v": 88
    },
    {
      "midi": 58,
      "hit": false,
      "t": 520500,
      "d": 1062.5,
      "v": 87
    },
    {
      "midi": 66,
      "hit": false,
      "t": 520562.5,
      "d": 593.75,
      "v": 98
    },
    {
      "midi": 66,
      "hit": false,
      "t": 521312.5,
      "d": 1062.5,
      "v": 91
    },
    {
      "midi": 59,
      "hit": false,
      "t": 522000,
      "d": 593.75,
      "v": 91
    },
    {
      "midi": 59,
      "hit": false,
      "t": 522000,
      "d": 3000,
      "v": 67
    },
    {
      "midi": 66,
      "hit": false,
      "t": 522000,
      "d": 3000,
      "v": 67
    },
    {
      "midi": 59,
      "hit": false,
      "t": 522750,
      "d": 593.75,
      "v": 87
    },
    {
      "midi": 66,
      "hit": false,
      "t": 522812.5,
      "d": 593.75,
      "v": 97
    },
    {
      "midi": 59,
      "hit": false,
      "t": 523500,
      "d": 593.75,
      "v": 92
    },
    {
      "midi": 66,
      "hit": false,
      "t": 523562.5,
      "d": 593.75,
      "v": 99
    },
    {
      "midi": 59,
      "hit": false,
      "t": 524250,
      "d": 1062.5,
      "v": 87
    },
    {
      "midi": 66,
      "hit": false,
      "t": 524312.5,
      "d": 593.75,
      "v": 95
    },
    {
      "midi": 52,
      "hit": false,
      "t": 525000,
      "d": 6000,
      "v": 78
    },
    {
      "midi": 59,
      "hit": false,
      "t": 525000,
      "d": 6000,
      "v": 66
    },
    {
      "midi": 67,
      "hit": false,
      "t": 525062.5,
      "d": 1062.5,
      "v": 98
    },
    {
      "midi": 59,
      "hit": false,
      "t": 525750,
      "d": 593.75,
      "v": 94
    },
    {
      "midi": 59,
      "hit": false,
      "t": 526500,
      "d": 1062.5,
      "v": 88
    },
    {
      "midi": 67,
      "hit": false,
      "t": 526562.5,
      "d": 593.75,
      "v": 96
    },
    {
      "midi": 67,
      "hit": false,
      "t": 527312.5,
      "d": 1062.5,
      "v": 90
    },
    {
      "midi": 59,
      "hit": false,
      "t": 528000,
      "d": 593.75,
      "v": 96
    },
    {
      "midi": 59,
      "hit": false,
      "t": 528750,
      "d": 593.75,
      "v": 92
    },
    {
      "midi": 67,
      "hit": false,
      "t": 528812.5,
      "d": 593.75,
      "v": 90
    },
    {
      "midi": 59,
      "hit": false,
      "t": 529500,
      "d": 593.75,
      "v": 96
    },
    {
      "midi": 67,
      "hit": false,
      "t": 529562.5,
      "d": 593.75,
      "v": 92
    },
    {
      "midi": 58,
      "hit": false,
      "t": 530250,
      "d": 1062.5,
      "v": 102
    },
    {
      "midi": 67,
      "hit": false,
      "t": 530312.5,
      "d": 593.75,
      "v": 101
    },
    {
      "midi": 55,
      "hit": false,
      "t": 531000,
      "d": 3000,
      "v": 78
    },
    {
      "midi": 58,
      "hit": false,
      "t": 531000,
      "d": 3000,
      "v": 74
    },
    {
      "midi": 67,
      "hit": false,
      "t": 531062.5,
      "d": 1062.5,
      "v": 94
    },
    {
      "midi": 58,
      "hit": false,
      "t": 531750,
      "d": 593.75,
      "v": 96
    },
    {
      "midi": 58,
      "hit": false,
      "t": 532500,
      "d": 1062.5,
      "v": 91
    },
    {
      "midi": 67,
      "hit": false,
      "t": 532562.5,
      "d": 593.75,
      "v": 102
    },
    {
      "midi": 67,
      "hit": false,
      "t": 533312.5,
      "d": 1062.5,
      "v": 103
    },
    {
      "midi": 57,
      "hit": false,
      "t": 534000,
      "d": 593.75,
      "v": 91
    },
    {
      "midi": 57,
      "hit": false,
      "t": 534000,
      "d": 3000,
      "v": 83
    },
    {
      "midi": 61,
      "hit": false,
      "t": 534000,
      "d": 3000,
      "v": 74
    },
    {
      "midi": 57,
      "hit": false,
      "t": 534750,
      "d": 593.75,
      "v": 92
    },
    {
      "midi": 64,
      "hit": false,
      "t": 534812.5,
      "d": 593.75,
      "v": 94
    },
    {
      "midi": 57,
      "hit": false,
      "t": 535500,
      "d": 593.75,
      "v": 86
    },
    {
      "midi": 64,
      "hit": false,
      "t": 535562.5,
      "d": 593.75,
      "v": 89
    },
    {
      "midi": 57,
      "hit": false,
      "t": 536250,
      "d": 1062.5,
      "v": 86
    },
    {
      "midi": 64,
      "hit": false,
      "t": 536312.5,
      "d": 593.75,
      "v": 98
    },
    {
      "midi": 62,
      "hit": false,
      "t": 537000,
      "d": 6000,
      "v": 74
    },
    {
      "midi": 66,
      "hit": false,
      "t": 537000,
      "d": 6000,
      "v": 87
    },
    {
      "midi": 66,
      "hit": false,
      "t": 537062.5,
      "d": 1062.5,
      "v": 98
    },
    {
      "midi": 57,
      "hit": false,
      "t": 537750,
      "d": 593.75,
      "v": 94
    },
    {
      "midi": 57,
      "hit": false,
      "t": 538500,
      "d": 1062.5,
      "v": 93
    },
    {
      "midi": 66,
      "hit": false,
      "t": 538562.5,
      "d": 593.75,
      "v": 89
    },
    {
      "midi": 66,
      "hit": false,
      "t": 539312.5,
      "d": 1062.5,
      "v": 90
    },
    {
      "midi": 57,
      "hit": false,
      "t": 540000,
      "d": 593.75,
      "v": 98
    },
    {
      "midi": 57,
      "hit": false,
      "t": 540750,
      "d": 593.75,
      "v": 102
    },
    {
      "midi": 66,
      "hit": false,
      "t": 540812.5,
      "d": 593.75,
      "v": 92
    },
    {
      "midi": 57,
      "hit": false,
      "t": 541500,
      "d": 593.75,
      "v": 92
    },
    {
      "midi": 66,
      "hit": false,
      "t": 541562.5,
      "d": 593.75,
      "v": 88
    },
    {
      "midi": 57,
      "hit": false,
      "t": 542250,
      "d": 1062.5,
      "v": 86
    },
    {
      "midi": 66,
      "hit": false,
      "t": 542312.5,
      "d": 593.75,
      "v": 101
    },
    {
      "midi": 62,
      "hit": false,
      "t": 543000,
      "d": 6000,
      "v": 71
    },
    {
      "midi": 66,
      "hit": false,
      "t": 543000,
      "d": 6000,
      "v": 67
    },
    {
      "midi": 64,
      "hit": false,
      "t": 543062.5,
      "d": 1062.5,
      "v": 103
    },
    {
      "midi": 57,
      "hit": false,
      "t": 543750,
      "d": 593.75,
      "v": 90
    },
    {
      "midi": 57,
      "hit": false,
      "t": 544500,
      "d": 1062.5,
      "v": 102
    },
    {
      "midi": 64,
      "hit": false,
      "t": 544562.5,
      "d": 593.75,
      "v": 91
    },
    {
      "midi": 64,
      "hit": false,
      "t": 545312.5,
      "d": 1062.5,
      "v": 94
    },
    {
      "midi": 57,
      "hit": false,
      "t": 546000,
      "d": 593.75,
      "v": 94
    },
    {
      "midi": 57,
      "hit": false,
      "t": 546750,
      "d": 593.75,
      "v": 96
    },
    {
      "midi": 64,
      "hit": false,
      "t": 546812.5,
      "d": 593.75,
      "v": 92
    },
    {
      "midi": 57,
      "hit": false,
      "t": 547500,
      "d": 593.75,
      "v": 103
    },
    {
      "midi": 64,
      "hit": false,
      "t": 547562.5,
      "d": 593.75,
      "v": 98
    },
    {
      "midi": 57,
      "hit": false,
      "t": 548250,
      "d": 1062.5,
      "v": 99
    },
    {
      "midi": 64,
      "hit": false,
      "t": 548312.5,
      "d": 593.75,
      "v": 93
    },
    {
      "midi": 59,
      "hit": false,
      "t": 549000,
      "d": 6000,
      "v": 74
    },
    {
      "midi": 66,
      "hit": false,
      "t": 549000,
      "d": 6000,
      "v": 85
    },
    {
      "midi": 66,
      "hit": false,
      "t": 549062.5,
      "d": 1062.5,
      "v": 94
    },
    {
      "midi": 57,
      "hit": false,
      "t": 549750,
      "d": 593.75,
      "v": 92
    },
    {
      "midi": 57,
      "hit": false,
      "t": 550500,
      "d": 1062.5,
      "v": 90
    },
    {
      "midi": 66,
      "hit": false,
      "t": 550562.5,
      "d": 593.75,
      "v": 95
    },
    {
      "midi": 66,
      "hit": false,
      "t": 551312.5,
      "d": 1062.5,
      "v": 94
    },
    {
      "midi": 57,
      "hit": false,
      "t": 552000,
      "d": 593.75,
      "v": 99
    },
    {
      "midi": 57,
      "hit": false,
      "t": 552750,
      "d": 593.75,
      "v": 90
    },
    {
      "midi": 66,
      "hit": false,
      "t": 552812.5,
      "d": 593.75,
      "v": 93
    },
    {
      "midi": 57,
      "hit": false,
      "t": 553500,
      "d": 593.75,
      "v": 98
    },
    {
      "midi": 66,
      "hit": false,
      "t": 553562.5,
      "d": 593.75,
      "v": 92
    },
    {
      "midi": 57,
      "hit": false,
      "t": 554250,
      "d": 1062.5,
      "v": 101
    },
    {
      "midi": 66,
      "hit": false,
      "t": 554312.5,
      "d": 593.75,
      "v": 98
    },
    {
      "midi": 62,
      "hit": false,
      "t": 555000,
      "d": 6000,
      "v": 84
    },
    {
      "midi": 66,
      "hit": false,
      "t": 555000,
      "d": 6000,
      "v": 77
    },
    {
      "midi": 66,
      "hit": false,
      "t": 555062.5,
      "d": 1062.5,
      "v": 88
    },
    {
      "midi": 57,
      "hit": false,
      "t": 555750,
      "d": 593.75,
      "v": 97
    },
    {
      "midi": 57,
      "hit": false,
      "t": 556500,
      "d": 1062.5,
      "v": 87
    },
    {
      "midi": 66,
      "hit": false,
      "t": 556562.5,
      "d": 593.75,
      "v": 92
    },
    {
      "midi": 66,
      "hit": false,
      "t": 557312.5,
      "d": 1062.5,
      "v": 103
    },
    {
      "midi": 57,
      "hit": false,
      "t": 558000,
      "d": 593.75,
      "v": 95
    },
    {
      "midi": 57,
      "hit": false,
      "t": 558750,
      "d": 593.75,
      "v": 91
    },
    {
      "midi": 66,
      "hit": false,
      "t": 558812.5,
      "d": 593.75,
      "v": 96
    },
    {
      "midi": 57,
      "hit": false,
      "t": 559500,
      "d": 593.75,
      "v": 88
    },
    {
      "midi": 66,
      "hit": false,
      "t": 559562.5,
      "d": 593.75,
      "v": 88
    },
    {
      "midi": 59,
      "hit": false,
      "t": 560250,
      "d": 1062.5,
      "v": 100
    },
    {
      "midi": 66,
      "hit": false,
      "t": 560312.5,
      "d": 593.75,
      "v": 99
    },
    {
      "midi": 55,
      "hit": false,
      "t": 561000,
      "d": 6000,
      "v": 82
    },
    {
      "midi": 59,
      "hit": false,
      "t": 561000,
      "d": 6000,
      "v": 86
    },
    {
      "midi": 66,
      "hit": false,
      "t": 561062.5,
      "d": 1062.5,
      "v": 93
    },
    {
      "midi": 59,
      "hit": false,
      "t": 561750,
      "d": 593.75,
      "v": 91
    },
    {
      "midi": 59,
      "hit": false,
      "t": 562500,
      "d": 1062.5,
      "v": 90
    },
    {
      "midi": 66,
      "hit": false,
      "t": 562562.5,
      "d": 593.75,
      "v": 92
    },
    {
      "midi": 66,
      "hit": false,
      "t": 563312.5,
      "d": 1062.5,
      "v": 91
    },
    {
      "midi": 59,
      "hit": false,
      "t": 564000,
      "d": 593.75,
      "v": 101
    },
    {
      "midi": 59,
      "hit": false,
      "t": 564750,
      "d": 593.75,
      "v": 88
    },
    {
      "midi": 66,
      "hit": false,
      "t": 564812.5,
      "d": 593.75,
      "v": 86
    },
    {
      "midi": 59,
      "hit": false,
      "t": 565500,
      "d": 593.75,
      "v": 89
    },
    {
      "midi": 66,
      "hit": false,
      "t": 565562.5,
      "d": 593.75,
      "v": 91
    },
    {
      "midi": 58,
      "hit": false,
      "t": 566250,
      "d": 1062.5,
      "v": 91
    },
    {
      "midi": 66,
      "hit": false,
      "t": 566312.5,
      "d": 593.75,
      "v": 95
    },
    {
      "midi": 54,
      "hit": false,
      "t": 567000,
      "d": 3000,
      "v": 67
    },
    {
      "midi": 58,
      "hit": false,
      "t": 567000,
      "d": 3000,
      "v": 75
    },
    {
      "midi": 66,
      "hit": false,
      "t": 567062.5,
      "d": 1062.5,
      "v": 96
    },
    {
      "midi": 58,
      "hit": false,
      "t": 567750,
      "d": 593.75,
      "v": 99
    },
    {
      "midi": 58,
      "hit": false,
      "t": 568500,
      "d": 1062.5,
      "v": 103
    },
    {
      "midi": 66,
      "hit": false,
      "t": 568562.5,
      "d": 593.75,
      "v": 103
    },
    {
      "midi": 66,
      "hit": false,
      "t": 569312.5,
      "d": 1062.5,
      "v": 89
    },
    {
      "midi": 59,
      "hit": false,
      "t": 570000,
      "d": 593.75,
      "v": 90
    },
    {
      "midi": 59,
      "hit": false,
      "t": 570000,
      "d": 3000,
      "v": 73
    },
    {
      "midi": 66,
      "hit": false,
      "t": 570000,
      "d": 3000,
      "v": 87
    },
    {
      "midi": 59,
      "hit": false,
      "t": 570750,
      "d": 593.75,
      "v": 90
    },
    {
      "midi": 66,
      "hit": false,
      "t": 570812.5,
      "d": 593.75,
      "v": 103
    },
    {
      "midi": 59,
      "hit": false,
      "t": 571500,
      "d": 593.75,
      "v": 90
    },
    {
      "midi": 66,
      "hit": false,
      "t": 571562.5,
      "d": 593.75,
      "v": 92
    },
    {
      "midi": 59,
      "hit": false,
      "t": 572250,
      "d": 1062.5,
      "v": 94
    },
    {
      "midi": 66,
      "hit": false,
      "t": 572312.5,
      "d": 593.75,
      "v": 103
    },
    {
      "midi": 52,
      "hit": false,
      "t": 573000,
      "d": 6000,
      "v": 67
    },
    {
      "midi": 59,
      "hit": false,
      "t": 573000,
      "d": 6000,
      "v": 74
    },
    {
      "midi": 67,
      "hit": false,
      "t": 573062.5,
      "d": 1062.5,
      "v": 89
    },
    {
      "midi": 59,
      "hit": false,
      "t": 573750,
      "d": 593.75,
      "v": 94
    },
    {
      "midi": 59,
      "hit": false,
      "t": 574500,
      "d": 1062.5,
      "v": 86
    },
    {
      "midi": 67,
      "hit": false,
      "t": 574562.5,
      "d": 593.75,
      "v": 99
    },
    {
      "midi": 67,
      "hit": false,
      "t": 575312.5,
      "d": 1062.5,
      "v": 91
    },
    {
      "midi": 59,
      "hit": false,
      "t": 576000,
      "d": 593.75,
      "v": 96
    },
    {
      "midi": 59,
      "hit": false,
      "t": 576750,
      "d": 593.75,
      "v": 91
    },
    {
      "midi": 67,
      "hit": false,
      "t": 576812.5,
      "d": 593.75,
      "v": 98
    },
    {
      "midi": 59,
      "hit": false,
      "t": 577500,
      "d": 593.75,
      "v": 88
    },
    {
      "midi": 67,
      "hit": false,
      "t": 577562.5,
      "d": 593.75,
      "v": 95
    },
    {
      "midi": 58,
      "hit": false,
      "t": 578250,
      "d": 1062.5,
      "v": 94
    },
    {
      "midi": 67,
      "hit": false,
      "t": 578312.5,
      "d": 593.75,
      "v": 103
    },
    {
      "midi": 55,
      "hit": false,
      "t": 579000,
      "d": 3000,
      "v": 66
    },
    {
      "midi": 58,
      "hit": false,
      "t": 579000,
      "d": 3000,
      "v": 66
    },
    {
      "midi": 67,
      "hit": false,
      "t": 579062.5,
      "d": 1062.5,
      "v": 103
    },
    {
      "midi": 58,
      "hit": false,
      "t": 579750,
      "d": 593.75,
      "v": 92
    },
    {
      "midi": 58,
      "hit": false,
      "t": 580500,
      "d": 1062.5,
      "v": 96
    },
    {
      "midi": 67,
      "hit": false,
      "t": 580562.5,
      "d": 593.75,
      "v": 89
    },
    {
      "midi": 67,
      "hit": false,
      "t": 581312.5,
      "d": 1062.5,
      "v": 98
    },
    {
      "midi": 57,
      "hit": false,
      "t": 582000,
      "d": 593.75,
      "v": 87
    },
    {
      "midi": 57,
      "hit": false,
      "t": 582000,
      "d": 1562.5,
      "v": 82
    },
    {
      "midi": 61,
      "hit": false,
      "t": 582000,
      "d": 1562.5,
      "v": 68
    },
    {
      "midi": 57,
      "hit": false,
      "t": 582750,
      "d": 593.75,
      "v": 95
    },
    {
      "midi": 64,
      "hit": false,
      "t": 582812.5,
      "d": 593.75,
      "v": 99
    },
    {
      "midi": 57,
      "hit": false,
      "t": 583500,
      "d": 593.75,
      "v": 87
    },
    {
      "midi": 64,
      "hit": false,
      "t": 583562.5,
      "d": 593.75,
      "v": 102
    },
    {
      "midi": 59,
      "hit": false,
      "t": 584250,
      "d": 5250,
      "v": 92
    },
    {
      "midi": 64,
      "hit": false,
      "t": 584312.5,
      "d": 593.75,
      "v": 88
    },
    {
      "midi": 66,
      "hit": false,
      "t": 585062.5,
      "d": 5250,
      "v": 99
    },
    {
      "midi": 66,
      "hit": false,
      "t": 585750,
      "d": 750,
      "v": 75
    },
    {
      "midi": 73,
      "hit": false,
      "t": 586500,
      "d": 750,
      "v": 66
    },
    {
      "midi": 69,
      "hit": false,
      "t": 587250,
      "d": 750,
      "v": 80
    },
    {
      "midi": 73,
      "hit": false,
      "t": 588000,
      "d": 750,
      "v": 86
    },
    {
      "midi": 78,
      "hit": false,
      "t": 588750,
      "d": 750,
      "v": 85
    },
    {
      "midi": 85,
      "hit": false,
      "t": 589500,
      "d": 750,
      "v": 80
    },
    {
      "midi": 81,
      "hit": false,
      "t": 590250,
      "d": 3531.25,
      "v": 79
    },
    {
      "midi": 76,
      "hit": false,
      "t": 593437.5,
      "d": 3125,
      "v": 85
    },
    {
      "midi": 79,
      "hit": false,
      "t": 593625,
      "d": 3031.25,
      "v": 83
    },
    {
      "midi": 81,
      "hit": false,
      "t": 593812.5,
      "d": 2968.75,
      "v": 68
    },
    {
      "midi": 88,
      "hit": false,
      "t": 594000,
      "d": 2656.25,
      "v": 82
    },
    {
      "midi": 57,
      "hit": false,
      "t": 596250,
      "d": 1062.5,
      "v": 103
    },
    {
      "midi": 62,
      "hit": false,
      "t": 597000,
      "d": 6000,
      "v": 84
    },
    {
      "midi": 66,
      "hit": false,
      "t": 597000,
      "d": 6000,
      "v": 69
    },
    {
      "midi": 66,
      "hit": false,
      "t": 597062.5,
      "d": 1062.5,
      "v": 87
    },
    {
      "midi": 57,
      "hit": false,
      "t": 597750,
      "d": 593.75,
      "v": 89
    },
    {
      "midi": 57,
      "hit": false,
      "t": 598500,
      "d": 1062.5,
      "v": 100
    },
    {
      "midi": 66,
      "hit": false,
      "t": 598562.5,
      "d": 593.75,
      "v": 89
    },
    {
      "midi": 66,
      "hit": false,
      "t": 599312.5,
      "d": 1062.5,
      "v": 100
    },
    {
      "midi": 57,
      "hit": false,
      "t": 600000,
      "d": 593.75,
      "v": 93
    },
    {
      "midi": 57,
      "hit": false,
      "t": 600750,
      "d": 593.75,
      "v": 93
    },
    {
      "midi": 66,
      "hit": false,
      "t": 600812.5,
      "d": 593.75,
      "v": 103
    },
    {
      "midi": 57,
      "hit": false,
      "t": 601500,
      "d": 593.75,
      "v": 96
    },
    {
      "midi": 66,
      "hit": false,
      "t": 601562.5,
      "d": 593.75,
      "v": 96
    },
    {
      "midi": 57,
      "hit": false,
      "t": 602250,
      "d": 1062.5,
      "v": 103
    },
    {
      "midi": 66,
      "hit": false,
      "t": 602312.5,
      "d": 593.75,
      "v": 101
    },
    {
      "midi": 62,
      "hit": false,
      "t": 603000,
      "d": 6000,
      "v": 87
    },
    {
      "midi": 66,
      "hit": false,
      "t": 603000,
      "d": 6000,
      "v": 71
    },
    {
      "midi": 64,
      "hit": false,
      "t": 603062.5,
      "d": 1062.5,
      "v": 98
    },
    {
      "midi": 57,
      "hit": false,
      "t": 603750,
      "d": 593.75,
      "v": 100
    },
    {
      "midi": 57,
      "hit": false,
      "t": 604500,
      "d": 1062.5,
      "v": 101
    },
    {
      "midi": 64,
      "hit": false,
      "t": 604562.5,
      "d": 593.75,
      "v": 98
    },
    {
      "midi": 64,
      "hit": false,
      "t": 605312.5,
      "d": 1062.5,
      "v": 95
    },
    {
      "midi": 57,
      "hit": false,
      "t": 606000,
      "d": 593.75,
      "v": 103
    },
    {
      "midi": 57,
      "hit": false,
      "t": 606750,
      "d": 593.75,
      "v": 92
    },
    {
      "midi": 64,
      "hit": false,
      "t": 606812.5,
      "d": 593.75,
      "v": 90
    },
    {
      "midi": 57,
      "hit": false,
      "t": 607500,
      "d": 593.75,
      "v": 93
    },
    {
      "midi": 64,
      "hit": false,
      "t": 607562.5,
      "d": 593.75,
      "v": 91
    },
    {
      "midi": 57,
      "hit": false,
      "t": 608250,
      "d": 1062.5,
      "v": 91
    },
    {
      "midi": 64,
      "hit": false,
      "t": 608312.5,
      "d": 593.75,
      "v": 89
    },
    {
      "midi": 59,
      "hit": false,
      "t": 609000,
      "d": 6000,
      "v": 76
    },
    {
      "midi": 66,
      "hit": false,
      "t": 609000,
      "d": 6000,
      "v": 83
    },
    {
      "midi": 66,
      "hit": false,
      "t": 609062.5,
      "d": 1062.5,
      "v": 100
    },
    {
      "midi": 57,
      "hit": false,
      "t": 609750,
      "d": 593.75,
      "v": 100
    },
    {
      "midi": 57,
      "hit": false,
      "t": 610500,
      "d": 1062.5,
      "v": 90
    },
    {
      "midi": 66,
      "hit": false,
      "t": 610562.5,
      "d": 593.75,
      "v": 98
    },
    {
      "midi": 66,
      "hit": false,
      "t": 611312.5,
      "d": 1062.5,
      "v": 90
    },
    {
      "midi": 57,
      "hit": false,
      "t": 612000,
      "d": 593.75,
      "v": 98
    },
    {
      "midi": 57,
      "hit": false,
      "t": 612750,
      "d": 593.75,
      "v": 95
    },
    {
      "midi": 66,
      "hit": false,
      "t": 612812.5,
      "d": 593.75,
      "v": 101
    },
    {
      "midi": 57,
      "hit": false,
      "t": 613500,
      "d": 593.75,
      "v": 87
    },
    {
      "midi": 66,
      "hit": false,
      "t": 613562.5,
      "d": 593.75,
      "v": 101
    },
    {
      "midi": 57,
      "hit": false,
      "t": 614250,
      "d": 1062.5,
      "v": 90
    },
    {
      "midi": 66,
      "hit": false,
      "t": 614312.5,
      "d": 593.75,
      "v": 96
    },
    {
      "midi": 62,
      "hit": false,
      "t": 615000,
      "d": 6000,
      "v": 84
    },
    {
      "midi": 66,
      "hit": false,
      "t": 615000,
      "d": 6000,
      "v": 80
    },
    {
      "midi": 66,
      "hit": false,
      "t": 615062.5,
      "d": 1062.5,
      "v": 93
    },
    {
      "midi": 57,
      "hit": false,
      "t": 615750,
      "d": 593.75,
      "v": 94
    },
    {
      "midi": 57,
      "hit": false,
      "t": 616500,
      "d": 1062.5,
      "v": 86
    },
    {
      "midi": 66,
      "hit": false,
      "t": 616562.5,
      "d": 593.75,
      "v": 87
    },
    {
      "midi": 66,
      "hit": false,
      "t": 617312.5,
      "d": 1062.5,
      "v": 88
    },
    {
      "midi": 57,
      "hit": false,
      "t": 618000,
      "d": 593.75,
      "v": 103
    },
    {
      "midi": 57,
      "hit": false,
      "t": 618750,
      "d": 593.75,
      "v": 91
    },
    {
      "midi": 66,
      "hit": false,
      "t": 618812.5,
      "d": 593.75,
      "v": 99
    },
    {
      "midi": 57,
      "hit": false,
      "t": 619500,
      "d": 593.75,
      "v": 87
    },
    {
      "midi": 66,
      "hit": false,
      "t": 619562.5,
      "d": 593.75,
      "v": 103
    },
    {
      "midi": 59,
      "hit": false,
      "t": 620250,
      "d": 1062.5,
      "v": 95
    },
    {
      "midi": 66,
      "hit": false,
      "t": 620312.5,
      "d": 593.75,
      "v": 93
    },
    {
      "midi": 55,
      "hit": false,
      "t": 621000,
      "d": 6000,
      "v": 76
    },
    {
      "midi": 59,
      "hit": false,
      "t": 621000,
      "d": 6000,
      "v": 83
    },
    {
      "midi": 66,
      "hit": false,
      "t": 621062.5,
      "d": 1062.5,
      "v": 96
    },
    {
      "midi": 59,
      "hit": false,
      "t": 621750,
      "d": 593.75,
      "v": 87
    },
    {
      "midi": 59,
      "hit": false,
      "t": 622500,
      "d": 1062.5,
      "v": 103
    },
    {
      "midi": 66,
      "hit": false,
      "t": 622562.5,
      "d": 593.75,
      "v": 99
    },
    {
      "midi": 66,
      "hit": false,
      "t": 623312.5,
      "d": 1062.5,
      "v": 98
    },
    {
      "midi": 59,
      "hit": false,
      "t": 624000,
      "d": 593.75,
      "v": 97
    },
    {
      "midi": 59,
      "hit": false,
      "t": 624750,
      "d": 593.75,
      "v": 97
    },
    {
      "midi": 66,
      "hit": false,
      "t": 624812.5,
      "d": 593.75,
      "v": 93
    },
    {
      "midi": 59,
      "hit": false,
      "t": 625500,
      "d": 593.75,
      "v": 96
    },
    {
      "midi": 66,
      "hit": false,
      "t": 625562.5,
      "d": 593.75,
      "v": 94
    },
    {
      "midi": 58,
      "hit": false,
      "t": 626250,
      "d": 1062.5,
      "v": 103
    },
    {
      "midi": 66,
      "hit": false,
      "t": 626312.5,
      "d": 593.75,
      "v": 96
    },
    {
      "midi": 54,
      "hit": false,
      "t": 627000,
      "d": 3000,
      "v": 66
    },
    {
      "midi": 58,
      "hit": false,
      "t": 627000,
      "d": 3000,
      "v": 77
    },
    {
      "midi": 66,
      "hit": false,
      "t": 627062.5,
      "d": 1062.5,
      "v": 99
    },
    {
      "midi": 58,
      "hit": false,
      "t": 627750,
      "d": 593.75,
      "v": 94
    },
    {
      "midi": 58,
      "hit": false,
      "t": 628500,
      "d": 1062.5,
      "v": 89
    },
    {
      "midi": 66,
      "hit": false,
      "t": 628562.5,
      "d": 593.75,
      "v": 90
    },
    {
      "midi": 66,
      "hit": false,
      "t": 629312.5,
      "d": 1062.5,
      "v": 99
    },
    {
      "midi": 59,
      "hit": false,
      "t": 630000,
      "d": 593.75,
      "v": 99
    },
    {
      "midi": 59,
      "hit": false,
      "t": 630000,
      "d": 3000,
      "v": 87
    },
    {
      "midi": 66,
      "hit": false,
      "t": 630000,
      "d": 3000,
      "v": 75
    },
    {
      "midi": 59,
      "hit": false,
      "t": 630750,
      "d": 593.75,
      "v": 96
    },
    {
      "midi": 66,
      "hit": false,
      "t": 630812.5,
      "d": 593.75,
      "v": 94
    },
    {
      "midi": 59,
      "hit": false,
      "t": 631500,
      "d": 593.75,
      "v": 87
    },
    {
      "midi": 66,
      "hit": false,
      "t": 631562.5,
      "d": 593.75,
      "v": 98
    },
    {
      "midi": 59,
      "hit": false,
      "t": 632250,
      "d": 1062.5,
      "v": 100
    },
    {
      "midi": 66,
      "hit": false,
      "t": 632312.5,
      "d": 593.75,
      "v": 86
    },
    {
      "midi": 52,
      "hit": false,
      "t": 633000,
      "d": 6000,
      "v": 76
    },
    {
      "midi": 59,
      "hit": false,
      "t": 633000,
      "d": 6000,
      "v": 76
    },
    {
      "midi": 67,
      "hit": false,
      "t": 633062.5,
      "d": 1062.5,
      "v": 91
    },
    {
      "midi": 59,
      "hit": false,
      "t": 633750,
      "d": 593.75,
      "v": 94
    },
    {
      "midi": 59,
      "hit": false,
      "t": 634500,
      "d": 1062.5,
      "v": 88
    },
    {
      "midi": 67,
      "hit": false,
      "t": 634562.5,
      "d": 593.75,
      "v": 93
    },
    {
      "midi": 67,
      "hit": false,
      "t": 635312.5,
      "d": 1062.5,
      "v": 98
    },
    {
      "midi": 59,
      "hit": false,
      "t": 636000,
      "d": 593.75,
      "v": 97
    },
    {
      "midi": 59,
      "hit": false,
      "t": 636750,
      "d": 593.75,
      "v": 97
    },
    {
      "midi": 67,
      "hit": false,
      "t": 636812.5,
      "d": 593.75,
      "v": 103
    },
    {
      "midi": 59,
      "hit": false,
      "t": 637500,
      "d": 593.75,
      "v": 100
    },
    {
      "midi": 67,
      "hit": false,
      "t": 637562.5,
      "d": 593.75,
      "v": 103
    },
    {
      "midi": 58,
      "hit": false,
      "t": 638250,
      "d": 1062.5,
      "v": 98
    },
    {
      "midi": 67,
      "hit": false,
      "t": 638312.5,
      "d": 593.75,
      "v": 92
    },
    {
      "midi": 55,
      "hit": false,
      "t": 639000,
      "d": 3000,
      "v": 84
    },
    {
      "midi": 58,
      "hit": false,
      "t": 639000,
      "d": 3000,
      "v": 87
    },
    {
      "midi": 67,
      "hit": false,
      "t": 639062.5,
      "d": 1062.5,
      "v": 86
    },
    {
      "midi": 58,
      "hit": false,
      "t": 639750,
      "d": 593.75,
      "v": 94
    },
    {
      "midi": 58,
      "hit": false,
      "t": 640500,
      "d": 1062.5,
      "v": 87
    },
    {
      "midi": 67,
      "hit": false,
      "t": 640562.5,
      "d": 593.75,
      "v": 93
    },
    {
      "midi": 67,
      "hit": false,
      "t": 641312.5,
      "d": 1062.5,
      "v": 103
    },
    {
      "midi": 57,
      "hit": false,
      "t": 642000,
      "d": 593.75,
      "v": 90
    },
    {
      "midi": 57,
      "hit": false,
      "t": 642000,
      "d": 1562.5,
      "v": 80
    },
    {
      "midi": 61,
      "hit": false,
      "t": 642000,
      "d": 1562.5,
      "v": 76
    },
    {
      "midi": 57,
      "hit": false,
      "t": 642750,
      "d": 593.75,
      "v": 87
    },
    {
      "midi": 64,
      "hit": false,
      "t": 642812.5,
      "d": 593.75,
      "v": 100
    },
    {
      "midi": 57,
      "hit": false,
      "t": 643500,
      "d": 593.75,
      "v": 93
    },
    {
      "midi": 64,
      "hit": false,
      "t": 643562.5,
      "d": 593.75,
      "v": 89
    },
    {
      "midi": 57,
      "hit": false,
      "t": 644250,
      "d": 1062.5,
      "v": 93
    },
    {
      "midi": 64,
      "hit": false,
      "t": 644312.5,
      "d": 593.75,
      "v": 97
    },
    {
      "midi": 84,
      "hit": false,
      "t": 645000,
      "d": 31.25,
      "v": 99
    },
    {
      "midi": 66,
      "hit": false,
      "t": 645062.5,
      "d": 1062.5,
      "v": 99
    },
    {
      "midi": 85,
      "hit": false,
      "t": 645062.5,
      "d": 62.5,
      "v": 90
    },
    {
      "midi": 86,
      "hit": false,
      "t": 645156.25,
      "d": 7250,
      "v": 98
    },
    {
      "midi": 57,
      "hit": false,
      "t": 645750,
      "d": 593.75,
      "v": 98
    },
    {
      "midi": 57,
      "hit": false,
      "t": 646500,
      "d": 1062.5,
      "v": 100
    },
    {
      "midi": 66,
      "hit": false,
      "t": 646562.5,
      "d": 593.75,
      "v": 94
    },
    {
      "midi": 66,
      "hit": false,
      "t": 647312.5,
      "d": 1062.5,
      "v": 88
    },
    {
      "midi": 57,
      "hit": false,
      "t": 648000,
      "d": 593.75,
      "v": 91
    },
    {
      "midi": 57,
      "hit": false,
      "t": 648750,
      "d": 593.75,
      "v": 86
    },
    {
      "midi": 66,
      "hit": false,
      "t": 648812.5,
      "d": 593.75,
      "v": 96
    },
    {
      "midi": 57,
      "hit": false,
      "t": 649500,
      "d": 593.75,
      "v": 91
    },
    {
      "midi": 66,
      "hit": false,
      "t": 649562.5,
      "d": 593.75,
      "v": 88
    },
    {
      "midi": 57,
      "hit": false,
      "t": 650250,
      "d": 1062.5,
      "v": 95
    },
    {
      "midi": 66,
      "hit": false,
      "t": 650312.5,
      "d": 593.75,
      "v": 87
    },
    {
      "midi": 64,
      "hit": false,
      "t": 651062.5,
      "d": 1062.5,
      "v": 99
    },
    {
      "midi": 57,
      "hit": false,
      "t": 651750,
      "d": 593.75,
      "v": 99
    },
    {
      "midi": 57,
      "hit": false,
      "t": 652500,
      "d": 1062.5,
      "v": 100
    },
    {
      "midi": 85,
      "hit": false,
      "t": 652500,
      "d": 718.75,
      "v": 97
    },
    {
      "midi": 64,
      "hit": false,
      "t": 652562.5,
      "d": 593.75,
      "v": 91
    },
    {
      "midi": 86,
      "hit": false,
      "t": 653250,
      "d": 1406.25,
      "v": 91
    },
    {
      "midi": 64,
      "hit": false,
      "t": 653312.5,
      "d": 1062.5,
      "v": 97
    },
    {
      "midi": 57,
      "hit": false,
      "t": 654000,
      "d": 593.75,
      "v": 90
    },
    {
      "midi": 57,
      "hit": false,
      "t": 654750,
      "d": 593.75,
      "v": 94
    },
    {
      "midi": 93,
      "hit": false,
      "t": 654750,
      "d": 9718.75,
      "v": 99
    },
    {
      "midi": 64,
      "hit": false,
      "t": 654812.5,
      "d": 593.75,
      "v": 93
    },
    {
      "midi": 57,
      "hit": false,
      "t": 655500,
      "d": 593.75,
      "v": 94
    },
    {
      "midi": 64,
      "hit": false,
      "t": 655562.5,
      "d": 593.75,
      "v": 102
    },
    {
      "midi": 57,
      "hit": false,
      "t": 656250,
      "d": 1062.5,
      "v": 98
    },
    {
      "midi": 64,
      "hit": false,
      "t": 656312.5,
      "d": 593.75,
      "v": 95
    },
    {
      "midi": 83,
      "hit": false,
      "t": 657000,
      "d": 5968.75,
      "v": 90
    },
    {
      "midi": 78,
      "hit": false,
      "t": 657000,
      "d": 11875,
      "v": 88
    },
    {
      "midi": 66,
      "hit": false,
      "t": 657062.5,
      "d": 1062.5,
      "v": 99
    },
    {
      "midi": 57,
      "hit": false,
      "t": 657750,
      "d": 593.75,
      "v": 95
    },
    {
      "midi": 57,
      "hit": false,
      "t": 658500,
      "d": 1062.5,
      "v": 96
    },
    {
      "midi": 66,
      "hit": false,
      "t": 658562.5,
      "d": 593.75,
      "v": 97
    },
    {
      "midi": 66,
      "hit": false,
      "t": 659312.5,
      "d": 1062.5,
      "v": 94
    },
    {
      "midi": 57,
      "hit": false,
      "t": 660000,
      "d": 593.75,
      "v": 101
    },
    {
      "midi": 57,
      "hit": false,
      "t": 660750,
      "d": 593.75,
      "v": 101
    },
    {
      "midi": 66,
      "hit": false,
      "t": 660812.5,
      "d": 593.75,
      "v": 101
    },
    {
      "midi": 57,
      "hit": false,
      "t": 661500,
      "d": 593.75,
      "v": 86
    },
    {
      "midi": 66,
      "hit": false,
      "t": 661562.5,
      "d": 593.75,
      "v": 86
    },
    {
      "midi": 57,
      "hit": false,
      "t": 662250,
      "d": 1062.5,
      "v": 103
    },
    {
      "midi": 66,
      "hit": false,
      "t": 662312.5,
      "d": 593.75,
      "v": 98
    },
    {
      "midi": 85,
      "hit": false,
      "t": 663000,
      "d": 5875,
      "v": 99
    },
    {
      "midi": 66,
      "hit": false,
      "t": 663062.5,
      "d": 1062.5,
      "v": 98
    },
    {
      "midi": 57,
      "hit": false,
      "t": 663750,
      "d": 593.75,
      "v": 90
    },
    {
      "midi": 57,
      "hit": false,
      "t": 664500,
      "d": 1062.5,
      "v": 93
    },
    {
      "midi": 91,
      "hit": false,
      "t": 664500,
      "d": 718.75,
      "v": 97
    },
    {
      "midi": 66,
      "hit": false,
      "t": 664562.5,
      "d": 593.75,
      "v": 98
    },
    {
      "midi": 90,
      "hit": false,
      "t": 665250,
      "d": 1468.75,
      "v": 97
    },
    {
      "midi": 66,
      "hit": false,
      "t": 665312.5,
      "d": 1062.5,
      "v": 102
    },
    {
      "midi": 57,
      "hit": false,
      "t": 666000,
      "d": 593.75,
      "v": 103
    },
    {
      "midi": 57,
      "hit": false,
      "t": 666750,
      "d": 593.75,
      "v": 87
    },
    {
      "midi": 88,
      "hit": false,
      "t": 666750,
      "d": 1468.75,
      "v": 98
    },
    {
      "midi": 66,
      "hit": false,
      "t": 666812.5,
      "d": 593.75,
      "v": 91
    },
    {
      "midi": 57,
      "hit": false,
      "t": 667500,
      "d": 593.75,
      "v": 102
    },
    {
      "midi": 66,
      "hit": false,
      "t": 667562.5,
      "d": 593.75,
      "v": 94
    },
    {
      "midi": 57,
      "hit": false,
      "t": 668250,
      "d": 1062.5,
      "v": 91
    },
    {
      "midi": 86,
      "hit": false,
      "t": 668250,
      "d": 18625,
      "v": 97
    },
    {
      "midi": 66,
      "hit": false,
      "t": 668312.5,
      "d": 593.75,
      "v": 97
    },
    {
      "midi": 74,
      "hit": false,
      "t": 669000,
      "d": 5968.75,
      "v": 91
    },
    {
      "midi": 79,
      "hit": false,
      "t": 669000,
      "d": 11968.75,
      "v": 91
    },
    {
      "midi": 67,
      "hit": false,
      "t": 669062.5,
      "d": 1062.5,
      "v": 86
    },
    {
      "midi": 57,
      "hit": false,
      "t": 669750,
      "d": 593.75,
      "v": 96
    },
    {
      "midi": 57,
      "hit": false,
      "t": 670500,
      "d": 1062.5,
      "v": 100
    },
    {
      "midi": 67,
      "hit": false,
      "t": 670562.5,
      "d": 593.75,
      "v": 86
    },
    {
      "midi": 67,
      "hit": false,
      "t": 671312.5,
      "d": 1062.5,
      "v": 88
    },
    {
      "midi": 57,
      "hit": false,
      "t": 672000,
      "d": 593.75,
      "v": 101
    },
    {
      "midi": 67,
      "hit": false,
      "t": 672812.5,
      "d": 593.75,
      "v": 103
    },
    {
      "midi": 62,
      "hit": false,
      "t": 673562.5,
      "d": 593.75,
      "v": 99
    },
    {
      "midi": 67,
      "hit": false,
      "t": 673562.5,
      "d": 593.75,
      "v": 103
    },
    {
      "midi": 58,
      "hit": false,
      "t": 674250,
      "d": 1843.75,
      "v": 94
    },
    {
      "midi": 62,
      "hit": false,
      "t": 674312.5,
      "d": 593.75,
      "v": 88
    },
    {
      "midi": 64,
      "hit": false,
      "t": 674312.5,
      "d": 593.75,
      "v": 93
    },
    {
      "midi": 82,
      "hit": false,
      "t": 675000,
      "d": 5968.75,
      "v": 89
    },
    {
      "midi": 67,
      "hit": false,
      "t": 675062.5,
      "d": 1843.75,
      "v": 92
    },
    {
      "midi": 57,
      "hit": false,
      "t": 677250,
      "d": 906.25,
      "v": 98
    },
    {
      "midi": 67,
      "hit": false,
      "t": 678062.5,
      "d": 906.25,
      "v": 102
    },
    {
      "midi": 67,
      "hit": false,
      "t": 679562.5,
      "d": 906.25,
      "v": 96
    },
    {
      "midi": 57,
      "hit": false,
      "t": 680250,
      "d": 5562.5,
      "v": 93
    },
    {
      "midi": 81,
      "hit": false,
      "t": 681000,
      "d": 5875,
      "v": 93
    },
    {
      "midi": 66,
      "hit": false,
      "t": 681062.5,
      "d": 5562.5,
      "v": 90
    }
  ]
}