{
  "jsonPath": "Rock/Rock-And-Roll/The Ventures/one-of-these-nights.json",
  "path": "Rock\\Rock-And-Roll\\The Ventures\\One of These Nights.mid",
  "name": "One of These Nights",
  "difficulty": "Advanced",
  "bpm": 110.00011000011,
  "notes": [
    {
      "midi": 62,
      "hit": false,
      "t": 19636.344,
      "d": 65.90902500000084,
      "v": 101
    },
    {
      "midi": 57,
      "hit": false,
      "t": 19636.344,
      "d": 74.99992500000008,
      "v": 101
    },
    {
      "midi": 66,
      "hit": false,
      "t": 19636.344,
      "d": 81.81810000000041,
      "v": 101
    },
    {
      "midi": 54,
      "hit": false,
      "t": 19636.344,
      "d": 86.36355000000185,
      "v": 101
    },
    {
      "midi": 64,
      "hit": false,
      "t": 19772.707500000004,
      "d": 3590.9055000000008,
      "v": 101
    },
    {
      "midi": 59,
      "hit": false,
      "t": 19772.707500000004,
      "d": 3593.1782249999997,
      "v": 101
    },
    {
      "midi": 67,
      "hit": false,
      "t": 19772.707500000004,
      "d": 3602.269124999999,
      "v": 101
    },
    {
      "midi": 55,
      "hit": false,
      "t": 19772.707500000004,
      "d": 3613.6327500000007,
      "v": 101
    },
    {
      "midi": 62,
      "hit": false,
      "t": 23999.976000000006,
      "d": 79.54537500000151,
      "v": 101
    },
    {
      "midi": 66,
      "hit": false,
      "t": 23999.976000000006,
      "d": 97.72717499999999,
      "v": 101
    },
    {
      "midi": 57,
      "hit": false,
      "t": 23999.976000000006,
      "d": 102.27262500000143,
      "v": 101
    },
    {
      "midi": 54,
      "hit": false,
      "t": 23999.976000000006,
      "d": 118.181700000001,
      "v": 101
    },
    {
      "midi": 59,
      "hit": false,
      "t": 24136.339500000006,
      "d": 3686.359950000002,
      "v": 101
    },
    {
      "midi": 55,
      "hit": false,
      "t": 24136.339500000006,
      "d": 3704.5417500000003,
      "v": 101
    },
    {
      "midi": 64,
      "hit": false,
      "t": 24136.339500000006,
      "d": 3734.0871750000006,
      "v": 101
    },
    {
      "midi": 67,
      "hit": false,
      "t": 24136.339500000006,
      "d": 3752.268974999999,
      "v": 101
    },
    {
      "midi": 62,
      "hit": false,
      "t": 28363.608000000007,
      "d": 65.90902500000084,
      "v": 101
    },
    {
      "midi": 59,
      "hit": false,
      "t": 28363.608000000007,
      "d": 68.18174999999974,
      "v": 101
    },
    {
      "midi": 66,
      "hit": false,
      "t": 28363.608000000007,
      "d": 79.54537500000151,
      "v": 101
    },
    {
      "midi": 54,
      "hit": false,
      "t": 28363.608000000007,
      "d": 84.09082500000295,
      "v": 101
    },
    {
      "midi": 60,
      "hit": false,
      "t": 28499.97150000001,
      "d": 3593.1782249999997,
      "v": 101
    },
    {
      "midi": 57,
      "hit": false,
      "t": 28499.97150000001,
      "d": 3611.360024999998,
      "v": 101
    },
    {
      "midi": 64,
      "hit": false,
      "t": 28499.97150000001,
      "d": 3631.814549999999,
      "v": 101
    },
    {
      "midi": 67,
      "hit": false,
      "t": 28499.97150000001,
      "d": 3631.814549999999,
      "v": 101
    },
    {
      "midi": 62,
      "hit": false,
      "t": 32727.24000000001,
      "d": 72.72720000000481,
      "v": 101
    },
    {
      "midi": 57,
      "hit": false,
      "t": 32727.24000000001,
      "d": 81.81810000000769,
      "v": 101
    },
    {
      "midi": 66,
      "hit": false,
      "t": 32727.24000000001,
      "d": 84.09082500001023,
      "v": 101
    },
    {
      "midi": 54,
      "hit": false,
      "t": 32727.24000000001,
      "d": 106.81807500001378,
      "v": 101
    },
    {
      "midi": 64,
      "hit": false,
      "t": 32863.60350000002,
      "d": 1431.8167499999981,
      "v": 101
    },
    {
      "midi": 59,
      "hit": false,
      "t": 32863.60350000002,
      "d": 1456.816724999997,
      "v": 101
    },
    {
      "midi": 67,
      "hit": false,
      "t": 32863.60350000002,
      "d": 1463.6348999999973,
      "v": 101
    },
    {
      "midi": 55,
      "hit": false,
      "t": 32863.60350000002,
      "d": 1468.180349999995,
      "v": 101
    },
    {
      "midi": 66,
      "hit": false,
      "t": 34909.05600000001,
      "d": 188.63617499999964,
      "v": 101
    },
    {
      "midi": 62,
      "hit": false,
      "t": 34909.05600000001,
      "d": 199.99979999999778,
      "v": 101
    },
    {
      "midi": 59,
      "hit": false,
      "t": 34909.05600000001,
      "d": 204.54524999999558,
      "v": 101
    },
    {
      "midi": 54,
      "hit": false,
      "t": 34909.05600000001,
      "d": 218.18159999999625,
      "v": 101
    },
    {
      "midi": 59,
      "hit": false,
      "t": 35181.78300000001,
      "d": 115.90897499999846,
      "v": 82
    },
    {
      "midi": 54,
      "hit": false,
      "t": 35181.78300000001,
      "d": 124.99987500000134,
      "v": 87
    },
    {
      "midi": 62,
      "hit": false,
      "t": 35181.78300000001,
      "d": 138.636225000002,
      "v": 101
    },
    {
      "midi": 66,
      "hit": false,
      "t": 35181.78300000001,
      "d": 147.7271250000049,
      "v": 101
    },
    {
      "midi": 59,
      "hit": false,
      "t": 35454.51000000002,
      "d": 113.6362500000032,
      "v": 101
    },
    {
      "midi": 54,
      "hit": false,
      "t": 35454.51000000002,
      "d": 124.99987500000134,
      "v": 97
    },
    {
      "midi": 62,
      "hit": false,
      "t": 35454.51000000002,
      "d": 136.36349999999948,
      "v": 101
    },
    {
      "midi": 66,
      "hit": false,
      "t": 35454.51000000002,
      "d": 138.636225000002,
      "v": 101
    },
    {
      "midi": 66,
      "hit": false,
      "t": 35727.237000000016,
      "d": 179.54527499999676,
      "v": 101
    },
    {
      "midi": 62,
      "hit": false,
      "t": 35727.237000000016,
      "d": 195.45434999999998,
      "v": 101
    },
    {
      "midi": 54,
      "hit": false,
      "t": 35727.237000000016,
      "d": 211.3634250000032,
      "v": 101
    },
    {
      "midi": 59,
      "hit": false,
      "t": 35727.237000000016,
      "d": 211.3634250000032,
      "v": 101
    },
    {
      "midi": 64,
      "hit": false,
      "t": 37090.87200000002,
      "d": 334.090575000002,
      "v": 101
    },
    {
      "midi": 71,
      "hit": false,
      "t": 37090.87200000002,
      "d": 343.18147500000487,
      "v": 101
    },
    {
      "midi": 52,
      "hit": false,
      "t": 37090.87200000002,
      "d": 345.4542000000074,
      "v": 101
    },
    {
      "midi": 67,
      "hit": false,
      "t": 37090.87200000002,
      "d": 354.5451000000103,
      "v": 101
    },
    {
      "midi": 64,
      "hit": false,
      "t": 37636.32600000003,
      "d": 313.636050000001,
      "v": 101
    },
    {
      "midi": 71,
      "hit": false,
      "t": 37636.32600000003,
      "d": 320.4542250000013,
      "v": 101
    },
    {
      "midi": 67,
      "hit": false,
      "t": 37636.32600000003,
      "d": 327.27240000000165,
      "v": 101
    },
    {
      "midi": 52,
      "hit": false,
      "t": 37909.05300000003,
      "d": 88.63627500000439,
      "v": 101
    },
    {
      "midi": 67,
      "hit": false,
      "t": 38181.780000000035,
      "d": 59.0908500000005,
      "v": 101
    },
    {
      "midi": 64,
      "hit": false,
      "t": 38181.780000000035,
      "d": 61.36357500000304,
      "v": 101
    },
    {
      "midi": 71,
      "hit": false,
      "t": 38181.780000000035,
      "d": 63.636300000005576,
      "v": 101
    },
    {
      "midi": 64,
      "hit": false,
      "t": 38454.50700000004,
      "d": 361.36327499999607,
      "v": 101
    },
    {
      "midi": 67,
      "hit": false,
      "t": 38454.50700000004,
      "d": 374.99962499999674,
      "v": 101
    },
    {
      "midi": 71,
      "hit": false,
      "t": 38454.50700000004,
      "d": 377.2723499999993,
      "v": 101
    },
    {
      "midi": 52,
      "hit": false,
      "t": 38727.23400000004,
      "d": 99.99989999999525,
      "v": 101
    },
    {
      "midi": 67,
      "hit": false,
      "t": 38999.96100000004,
      "d": 81.81810000000405,
      "v": 101
    },
    {
      "midi": 64,
      "hit": false,
      "t": 38999.96100000004,
      "d": 95.45445000000473,
      "v": 101
    },
    {
      "midi": 71,
      "hit": false,
      "t": 38999.96100000004,
      "d": 102.27262500000506,
      "v": 101
    },
    {
      "midi": 62,
      "hit": false,
      "t": 39272.688000000046,
      "d": 379.5450750000018,
      "v": 101
    },
    {
      "midi": 71,
      "hit": false,
      "t": 39272.688000000046,
      "d": 381.81780000000435,
      "v": 101
    },
    {
      "midi": 66,
      "hit": false,
      "t": 39272.688000000046,
      "d": 402.27232500000537,
      "v": 101
    },
    {
      "midi": 71,
      "hit": false,
      "t": 39818.14200000005,
      "d": 397.7268750000003,
      "v": 101
    },
    {
      "midi": 62,
      "hit": false,
      "t": 39818.14200000005,
      "d": 406.81777500000317,
      "v": 101
    },
    {
      "midi": 66,
      "hit": false,
      "t": 39818.14200000005,
      "d": 424.99957500000164,
      "v": 101
    },
    {
      "midi": 62,
      "hit": false,
      "t": 40363.596000000056,
      "d": 43.18177499999729,
      "v": 63
    },
    {
      "midi": 71,
      "hit": false,
      "t": 40363.596000000056,
      "d": 43.18177499999729,
      "v": 71
    },
    {
      "midi": 66,
      "hit": false,
      "t": 40363.596000000056,
      "d": 56.81812499999796,
      "v": 82
    },
    {
      "midi": 60,
      "hit": false,
      "t": 40636.323000000055,
      "d": 109.09079999999813,
      "v": 87
    },
    {
      "midi": 62,
      "hit": false,
      "t": 40636.323000000055,
      "d": 359.0905500000008,
      "v": 92
    },
    {
      "midi": 71,
      "hit": false,
      "t": 40636.323000000055,
      "d": 370.45417499999894,
      "v": 101
    },
    {
      "midi": 66,
      "hit": false,
      "t": 40636.323000000055,
      "d": 393.1814250000025,
      "v": 101
    },
    {
      "midi": 62,
      "hit": false,
      "t": 41181.77700000006,
      "d": 86.36355000000185,
      "v": 101
    },
    {
      "midi": 71,
      "hit": false,
      "t": 41181.77700000006,
      "d": 99.99990000000253,
      "v": 101
    },
    {
      "midi": 66,
      "hit": false,
      "t": 41181.77700000006,
      "d": 102.27262500000506,
      "v": 101
    },
    {
      "midi": 64,
      "hit": false,
      "t": 41454.504000000066,
      "d": 324.9996749999991,
      "v": 101
    },
    {
      "midi": 71,
      "hit": false,
      "t": 41454.504000000066,
      "d": 345.4542000000001,
      "v": 101
    },
    {
      "midi": 67,
      "hit": false,
      "t": 41454.504000000066,
      "d": 363.6359999999986,
      "v": 101
    },
    {
      "midi": 60,
      "hit": false,
      "t": 41454.504000000066,
      "d": 472.72679999999673,
      "v": 101
    },
    {
      "midi": 64,
      "hit": false,
      "t": 41999.958000000064,
      "d": 413.6359499999962,
      "v": 101
    },
    {
      "midi": 71,
      "hit": false,
      "t": 41999.958000000064,
      "d": 418.181399999994,
      "v": 101
    },
    {
      "midi": 67,
      "hit": false,
      "t": 41999.958000000064,
      "d": 427.2722999999969,
      "v": 101
    },
    {
      "midi": 60,
      "hit": false,
      "t": 42409.04850000006,
      "d": 72.72720000000118,
      "v": 101
    },
    {
      "midi": 67,
      "hit": false,
      "t": 42545.41200000006,
      "d": 65.90902500000084,
      "v": 101
    },
    {
      "midi": 71,
      "hit": false,
      "t": 42545.41200000006,
      "d": 65.90902500000084,
      "v": 101
    },
    {
      "midi": 64,
      "hit": false,
      "t": 42545.41200000006,
      "d": 70.45447499999864,
      "v": 101
    },
    {
      "midi": 64,
      "hit": false,
      "t": 42818.13900000006,
      "d": 518.1812999999966,
      "v": 101
    },
    {
      "midi": 71,
      "hit": false,
      "t": 42818.13900000006,
      "d": 529.5449249999947,
      "v": 101
    },
    {
      "midi": 67,
      "hit": false,
      "t": 42818.13900000006,
      "d": 534.0903749999925,
      "v": 101
    },
    {
      "midi": 60,
      "hit": false,
      "t": 43363.59300000005,
      "d": 79.54537500000151,
      "v": 101
    },
    {
      "midi": 64,
      "hit": false,
      "t": 43636.32000000005,
      "d": 331.81784999999945,
      "v": 87
    },
    {
      "midi": 71,
      "hit": false,
      "t": 43636.32000000005,
      "d": 354.545100000003,
      "v": 101
    },
    {
      "midi": 67,
      "hit": false,
      "t": 43636.32000000005,
      "d": 365.90872500000114,
      "v": 101
    },
    {
      "midi": 60,
      "hit": false,
      "t": 43636.32000000005,
      "d": 436.3631999999998,
      "v": 101
    },
    {
      "midi": 64,
      "hit": false,
      "t": 44181.77400000005,
      "d": 288.63607500000217,
      "v": 101
    },
    {
      "midi": 67,
      "hit": false,
      "t": 44181.77400000005,
      "d": 304.5451500000054,
      "v": 101
    },
    {
      "midi": 71,
      "hit": false,
      "t": 44181.77400000005,
      "d": 309.0906000000032,
      "v": 101
    },
    {
      "midi": 60,
      "hit": false,
      "t": 44454.50100000005,
      "d": 86.36355000000185,
      "v": 101
    },
    {
      "midi": 67,
      "hit": false,
      "t": 44727.22800000005,
      "d": 65.90902500000084,
      "v": 101
    },
    {
      "midi": 64,
      "hit": false,
      "t": 44727.22800000005,
      "d": 68.18175000000338,
      "v": 101
    },
    {
      "midi": 71,
      "hit": false,
      "t": 44727.22800000005,
      "d": 68.18175000000338,
      "v": 101
    },
    {
      "midi": 64,
      "hit": false,
      "t": 44999.95500000005,
      "d": 402.2723249999981,
      "v": 101
    },
    {
      "midi": 71,
      "hit": false,
      "t": 44999.95500000005,
      "d": 409.0904999999984,
      "v": 101
    },
    {
      "midi": 67,
      "hit": false,
      "t": 44999.95500000005,
      "d": 418.1814000000013,
      "v": 101
    },
    {
      "midi": 67,
      "hit": false,
      "t": 45545.40900000005,
      "d": 72.72720000000118,
      "v": 101
    },
    {
      "midi": 71,
      "hit": false,
      "t": 45545.40900000005,
      "d": 79.54537500000151,
      "v": 101
    },
    {
      "midi": 64,
      "hit": false,
      "t": 45545.40900000005,
      "d": 95.45445000000473,
      "v": 97
    },
    {
      "midi": 60,
      "hit": false,
      "t": 45818.13600000006,
      "d": 422.7268499999991,
      "v": 101
    },
    {
      "midi": 64,
      "hit": false,
      "t": 45818.13600000006,
      "d": 436.3631999999998,
      "v": 101
    },
    {
      "midi": 67,
      "hit": false,
      "t": 45818.13600000006,
      "d": 438.6359250000023,
      "v": 101
    },
    {
      "midi": 57,
      "hit": false,
      "t": 46363.59000000006,
      "d": 120.45442500000354,
      "v": 101
    },
    {
      "midi": 60,
      "hit": false,
      "t": 46363.59000000006,
      "d": 381.81780000000435,
      "v": 92
    },
    {
      "midi": 67,
      "hit": false,
      "t": 46363.59000000006,
      "d": 384.0905250000069,
      "v": 101
    },
    {
      "midi": 64,
      "hit": false,
      "t": 46363.59000000006,
      "d": 388.6359750000047,
      "v": 101
    },
    {
      "midi": 64,
      "hit": false,
      "t": 46909.04400000007,
      "d": 74.99992499999644,
      "v": 101
    },
    {
      "midi": 60,
      "hit": false,
      "t": 46909.04400000007,
      "d": 84.09082499999931,
      "v": 101
    },
    {
      "midi": 67,
      "hit": false,
      "t": 46909.04400000007,
      "d": 90.90899999999965,
      "v": 101
    },
    {
      "midi": 60,
      "hit": false,
      "t": 47181.771000000066,
      "d": 347.7269249999954,
      "v": 97
    },
    {
      "midi": 64,
      "hit": false,
      "t": 47181.771000000066,
      "d": 390.90869999999995,
      "v": 101
    },
    {
      "midi": 67,
      "hit": false,
      "t": 47181.771000000066,
      "d": 429.54502499999944,
      "v": 101
    },
    {
      "midi": 57,
      "hit": false,
      "t": 47454.498000000065,
      "d": 95.45444999999745,
      "v": 101
    },
    {
      "midi": 60,
      "hit": false,
      "t": 47727.225000000064,
      "d": 154.54529999999795,
      "v": 101
    },
    {
      "midi": 60,
      "hit": false,
      "t": 47999.95200000006,
      "d": 359.0905500000008,
      "v": 87
    },
    {
      "midi": 69,
      "hit": false,
      "t": 47999.95200000006,
      "d": 368.1814500000037,
      "v": 101
    },
    {
      "midi": 64,
      "hit": false,
      "t": 47999.95200000006,
      "d": 402.27232500000537,
      "v": 101
    },
    {
      "midi": 57,
      "hit": false,
      "t": 47999.95200000006,
      "d": 456.81772500000807,
      "v": 101
    },
    {
      "midi": 60,
      "hit": false,
      "t": 48545.40600000007,
      "d": 304.5451499999981,
      "v": 101
    },
    {
      "midi": 69,
      "hit": false,
      "t": 48545.40600000007,
      "d": 329.5451249999969,
      "v": 101
    },
    {
      "midi": 64,
      "hit": false,
      "t": 48545.40600000007,
      "d": 338.6360249999998,
      "v": 101
    },
    {
      "midi": 57,
      "hit": false,
      "t": 48818.13300000007,
      "d": 102.27262499999779,
      "v": 101
    },
    {
      "midi": 64,
      "hit": false,
      "t": 49090.860000000066,
      "d": 70.45447499999864,
      "v": 101
    },
    {
      "midi": 69,
      "hit": false,
      "t": 49090.860000000066,
      "d": 81.81809999999678,
      "v": 101
    },
    {
      "midi": 60,
      "hit": false,
      "t": 49090.860000000066,
      "d": 86.36354999999458,
      "v": 101
    },
    {
      "midi": 69,
      "hit": false,
      "t": 49363.58700000006,
      "d": 363.6359999999986,
      "v": 101
    },
    {
      "midi": 60,
      "hit": false,
      "t": 49363.58700000006,
      "d": 365.90872500000114,
      "v": 101
    },
    {
      "midi": 64,
      "hit": false,
      "t": 49363.58700000006,
      "d": 370.45417499999894,
      "v": 101
    },
    {
      "midi": 57,
      "hit": false,
      "t": 49636.31400000006,
      "d": 104.54535000000033,
      "v": 101
    },
    {
      "midi": 60,
      "hit": false,
      "t": 49909.04100000006,
      "d": 118.181700000001,
      "v": 101
    },
    {
      "midi": 64,
      "hit": false,
      "t": 49909.04100000006,
      "d": 134.09077500000421,
      "v": 101
    },
    {
      "midi": 69,
      "hit": false,
      "t": 49909.04100000006,
      "d": 161.36347500000556,
      "v": 101
    },
    {
      "midi": 52,
      "hit": false,
      "t": 50181.76800000007,
      "d": 556.817624999996,
      "v": 101
    },
    {
      "midi": 67,
      "hit": false,
      "t": 50727.22200000007,
      "d": 256.81792499999574,
      "v": 101
    },
    {
      "midi": 71,
      "hit": false,
      "t": 50727.22200000007,
      "d": 270.4542749999964,
      "v": 101
    },
    {
      "midi": 64,
      "hit": false,
      "t": 50727.22200000007,
      "d": 293.18152499999997,
      "v": 101
    },
    {
      "midi": 52,
      "hit": false,
      "t": 50999.949000000066,
      "d": 106.81807500000286,
      "v": 101
    },
    {
      "midi": 62,
      "hit": false,
      "t": 51272.676000000065,
      "d": 115.90897499999846,
      "v": 101
    },
    {
      "midi": 66,
      "hit": false,
      "t": 51272.676000000065,
      "d": 124.99987500000134,
      "v": 101
    },
    {
      "midi": 69,
      "hit": false,
      "t": 51272.676000000065,
      "d": 124.99987500000134,
      "v": 101
    },
    {
      "midi": 64,
      "hit": false,
      "t": 51545.403000000064,
      "d": 404.54505000000063,
      "v": 101
    },
    {
      "midi": 67,
      "hit": false,
      "t": 51545.403000000064,
      "d": 413.6359500000035,
      "v": 101
    },
    {
      "midi": 71,
      "hit": false,
      "t": 51545.403000000064,
      "d": 418.1814000000013,
      "v": 101
    },
    {
      "midi": 52,
      "hit": false,
      "t": 51818.13000000006,
      "d": 265.9088250000059,
      "v": 101
    },
    {
      "midi": 67,
      "hit": false,
      "t": 52090.85700000007,
      "d": 159.09075000000303,
      "v": 101
    },
    {
      "midi": 71,
      "hit": false,
      "t": 52090.85700000007,
      "d": 172.7271000000037,
      "v": 101
    },
    {
      "midi": 64,
      "hit": false,
      "t": 52090.85700000007,
      "d": 177.2725500000015,
      "v": 101
    },
    {
      "midi": 62,
      "hit": false,
      "t": 52909.03800000007,
      "d": 402.27232500000537,
      "v": 101
    },
    {
      "midi": 69,
      "hit": false,
      "t": 52909.03800000007,
      "d": 406.81777500000317,
      "v": 101
    },
    {
      "midi": 66,
      "hit": false,
      "t": 52909.03800000007,
      "d": 420.45412500000384,
      "v": 101
    },
    {
      "midi": 66,
      "hit": false,
      "t": 53454.49200000008,
      "d": 61.36357500000304,
      "v": 101
    },
    {
      "midi": 62,
      "hit": false,
      "t": 53454.49200000008,
      "d": 70.45447500000591,
      "v": 101
    },
    {
      "midi": 69,
      "hit": false,
      "t": 53454.49200000008,
      "d": 70.45447500000591,
      "v": 101
    },
    {
      "midi": 62,
      "hit": false,
      "t": 53727.219000000085,
      "d": 424.99957500000164,
      "v": 101
    },
    {
      "midi": 66,
      "hit": false,
      "t": 53727.219000000085,
      "d": 436.3631999999998,
      "v": 101
    },
    {
      "midi": 69,
      "hit": false,
      "t": 53727.219000000085,
      "d": 436.3631999999998,
      "v": 101
    },
    {
      "midi": 62,
      "hit": false,
      "t": 54272.67300000008,
      "d": 81.81809999999678,
      "v": 101
    },
    {
      "midi": 66,
      "hit": false,
      "t": 54272.67300000008,
      "d": 88.63627499999711,
      "v": 101
    },
    {
      "midi": 69,
      "hit": false,
      "t": 54272.67300000008,
      "d": 104.54535000000033,
      "v": 101
    },
    {
      "midi": 64,
      "hit": false,
      "t": 54545.40000000008,
      "d": 334.090575000002,
      "v": 101
    },
    {
      "midi": 71,
      "hit": false,
      "t": 54545.40000000008,
      "d": 343.18147500000487,
      "v": 101
    },
    {
      "midi": 52,
      "hit": false,
      "t": 54545.40000000008,
      "d": 345.4542000000074,
      "v": 101
    },
    {
      "midi": 67,
      "hit": false,
      "t": 54545.40000000008,
      "d": 354.5451000000103,
      "v": 101
    },
    {
      "midi": 64,
      "hit": false,
      "t": 55090.854000000094,
      "d": 313.636050000001,
      "v": 101
    },
    {
      "midi": 71,
      "hit": false,
      "t": 55090.854000000094,
      "d": 320.4542250000013,
      "v": 101
    },
    {
      "midi": 67,
      "hit": false,
      "t": 55090.854000000094,
      "d": 327.27240000000165,
      "v": 101
    },
    {
      "midi": 52,
      "hit": false,
      "t": 55363.58100000009,
      "d": 88.63627500000439,
      "v": 101
    },
    {
      "midi": 67,
      "hit": false,
      "t": 55636.3080000001,
      "d": 59.0908500000005,
      "v": 101
    },
    {
      "midi": 64,
      "hit": false,
      "t": 55636.3080000001,
      "d": 61.36357500000304,
      "v": 101
    },
    {
      "midi": 71,
      "hit": false,
      "t": 55636.3080000001,
      "d": 63.636300000005576,
      "v": 101
    },
    {
      "midi": 64,
      "hit": false,
      "t": 55909.035000000105,
      "d": 361.36327499999607,
      "v": 101
    },
    {
      "midi": 67,
      "hit": false,
      "t": 55909.035000000105,
      "d": 374.99962499999674,
      "v": 101
    },
    {
      "midi": 71,
      "hit": false,
      "t": 55909.035000000105,
      "d": 377.2723499999993,
      "v": 101
    },
    {
      "midi": 52,
      "hit": false,
      "t": 56181.762000000104,
      "d": 99.99989999999525,
      "v": 101
    },
    {
      "midi": 67,
      "hit": false,
      "t": 56454.4890000001,
      "d": 81.81810000000405,
      "v": 101
    },
    {
      "midi": 64,
      "hit": false,
      "t": 56454.4890000001,
      "d": 95.45445000000473,
      "v": 101
    },
    {
      "midi": 71,
      "hit": false,
      "t": 56454.4890000001,
      "d": 102.27262500000506,
      "v": 101
    },
    {
      "midi": 62,
      "hit": false,
      "t": 56727.21600000011,
      "d": 379.5450750000018,
      "v": 101
    },
    {
      "midi": 71,
      "hit": false,
      "t": 56727.21600000011,
      "d": 381.81780000000435,
      "v": 101
    },
    {
      "midi": 66,
      "hit": false,
      "t": 56727.21600000011,
      "d": 402.27232500000537,
      "v": 101
    },
    {
      "midi": 71,
      "hit": false,
      "t": 57272.670000000115,
      "d": 397.7268750000003,
      "v": 101
    },
    {
      "midi": 62,
      "hit": false,
      "t": 57272.670000000115,
      "d": 406.81777500000317,
      "v": 101
    },
    {
      "midi": 66,
      "hit": false,
      "t": 57272.670000000115,
      "d": 424.99957500000164,
      "v": 101
    },
    {
      "midi": 62,
      "hit": false,
      "t": 57818.12400000012,
      "d": 43.18177499999729,
      "v": 63
    },
    {
      "midi": 71,
      "hit": false,
      "t": 57818.12400000012,
      "d": 43.18177499999729,
      "v": 71
    },
    {
      "midi": 66,
      "hit": false,
      "t": 57818.12400000012,
      "d": 56.81812499999796,
      "v": 82
    },
    {
      "midi": 60,
      "hit": false,
      "t": 58090.85100000012,
      "d": 109.09079999999813,
      "v": 87
    },
    {
      "midi": 62,
      "hit": false,
      "t": 58090.85100000012,
      "d": 359.0905500000008,
      "v": 92
    },
    {
      "midi": 71,
      "hit": false,
      "t": 58090.85100000012,
      "d": 370.45417499999894,
      "v": 101
    },
    {
      "midi": 66,
      "hit": false,
      "t": 58090.85100000012,
      "d": 393.1814250000025,
      "v": 101
    },
    {
      "midi": 62,
      "hit": false,
      "t": 58636.305000000124,
      "d": 86.36355000000185,
      "v": 101
    },
    {
      "midi": 71,
      "hit": false,
      "t": 58636.305000000124,
      "d": 99.99990000000253,
      "v": 101
    },
    {
      "midi": 66,
      "hit": false,
      "t": 58636.305000000124,
      "d": 102.27262500000506,
      "v": 101
    },
    {
      "midi": 64,
      "hit": false,
      "t": 58909.03200000013,
      "d": 324.9996749999991,
      "v": 101
    },
    {
      "midi": 71,
      "hit": false,
      "t": 58909.03200000013,
      "d": 345.4542000000001,
      "v": 101
    },
    {
      "midi": 67,
      "hit": false,
      "t": 58909.03200000013,
      "d": 363.6359999999986,
      "v": 101
    },
    {
      "midi": 60,
      "hit": false,
      "t": 58909.03200000013,
      "d": 472.72679999999673,
      "v": 101
    },
    {
      "midi": 64,
      "hit": false,
      "t": 59454.48600000013,
      "d": 413.6359499999962,
      "v": 101
    },
    {
      "midi": 71,
      "hit": false,
      "t": 59454.48600000013,
      "d": 418.181399999994,
      "v": 101
    },
    {
      "midi": 67,
      "hit": false,
      "t": 59454.48600000013,
      "d": 427.2722999999969,
      "v": 101
    },
    {
      "midi": 60,
      "hit": false,
      "t": 59863.57650000013,
      "d": 72.72720000000118,
      "v": 101
    },
    {
      "midi": 67,
      "hit": false,
      "t": 59999.940000000126,
      "d": 65.90902500000084,
      "v": 101
    },
    {
      "midi": 71,
      "hit": false,
      "t": 59999.940000000126,
      "d": 65.90902500000084,
      "v": 101
    },
    {
      "midi": 64,
      "hit": false,
      "t": 59999.940000000126,
      "d": 70.45447499999864,
      "v": 101
    },
    {
      "midi": 64,
      "hit": false,
      "t": 60272.667000000125,
      "d": 518.1812999999966,
      "v": 101
    },
    {
      "midi": 71,
      "hit": false,
      "t": 60272.667000000125,
      "d": 529.5449249999947,
      "v": 101
    },
    {
      "midi": 67,
      "hit": false,
      "t": 60272.667000000125,
      "d": 534.0903749999925,
      "v": 101
    },
    {
      "midi": 60,
      "hit": false,
      "t": 60818.121000000116,
      "d": 79.54537500000151,
      "v": 101
    },
    {
      "midi": 64,
      "hit": false,
      "t": 61090.848000000115,
      "d": 331.81784999999945,
      "v": 87
    },
    {
      "midi": 71,
      "hit": false,
      "t": 61090.848000000115,
      "d": 354.545100000003,
      "v": 101
    },
    {
      "midi": 67,
      "hit": false,
      "t": 61090.848000000115,
      "d": 365.90872500000114,
      "v": 101
    },
    {
      "midi": 60,
      "hit": false,
      "t": 61090.848000000115,
      "d": 436.3631999999998,
      "v": 101
    },
    {
      "midi": 64,
      "hit": false,
      "t": 61636.30200000011,
      "d": 288.63607500000217,
      "v": 101
    },
    {
      "midi": 67,
      "hit": false,
      "t": 61636.30200000011,
      "d": 304.5451500000054,
      "v": 101
    },
    {
      "midi": 71,
      "hit": false,
      "t": 61636.30200000011,
      "d": 309.0906000000032,
      "v": 101
    },
    {
      "midi": 60,
      "hit": false,
      "t": 61909.02900000011,
      "d": 86.36355000000185,
      "v": 101
    },
    {
      "midi": 67,
      "hit": false,
      "t": 62181.75600000011,
      "d": 65.90902500000084,
      "v": 101
    },
    {
      "midi": 64,
      "hit": false,
      "t": 62181.75600000011,
      "d": 68.18175000000338,
      "v": 101
    },
    {
      "midi": 71,
      "hit": false,
      "t": 62181.75600000011,
      "d": 68.18175000000338,
      "v": 101
    },
    {
      "midi": 64,
      "hit": false,
      "t": 62454.48300000012,
      "d": 402.2723249999981,
      "v": 101
    },
    {
      "midi": 71,
      "hit": false,
      "t": 62454.48300000012,
      "d": 409.0904999999984,
      "v": 101
    },
    {
      "midi": 67,
      "hit": false,
      "t": 62454.48300000012,
      "d": 418.1814000000013,
      "v": 101
    },
    {
      "midi": 67,
      "hit": false,
      "t": 62999.937000000114,
      "d": 72.72720000000118,
      "v": 101
    },
    {
      "midi": 71,
      "hit": false,
      "t": 62999.937000000114,
      "d": 79.54537500000151,
      "v": 101
    },
    {
      "midi": 64,
      "hit": false,
      "t": 62999.937000000114,
      "d": 95.45445000000473,
      "v": 97
    },
    {
      "midi": 60,
      "hit": false,
      "t": 63272.66400000012,
      "d": 422.7268499999991,
      "v": 101
    },
    {
      "midi": 64,
      "hit": false,
      "t": 63272.66400000012,
      "d": 436.3631999999998,
      "v": 101
    },
    {
      "midi": 67,
      "hit": false,
      "t": 63272.66400000012,
      "d": 438.6359250000023,
      "v": 101
    },
    {
      "midi": 57,
      "hit": false,
      "t": 63818.118000000126,
      "d": 120.45442500000354,
      "v": 101
    },
    {
      "midi": 60,
      "hit": false,
      "t": 63818.118000000126,
      "d": 381.81780000000435,
      "v": 92
    },
    {
      "midi": 67,
      "hit": false,
      "t": 63818.118000000126,
      "d": 384.0905250000069,
      "v": 101
    },
    {
      "midi": 64,
      "hit": false,
      "t": 63818.118000000126,
      "d": 388.6359750000047,
      "v": 101
    },
    {
      "midi": 64,
      "hit": false,
      "t": 64363.57200000013,
      "d": 74.99992499999644,
      "v": 101
    },
    {
      "midi": 60,
      "hit": false,
      "t": 64363.57200000013,
      "d": 84.09082499999931,
      "v": 101
    },
    {
      "midi": 67,
      "hit": false,
      "t": 64363.57200000013,
      "d": 90.90899999999965,
      "v": 101
    },
    {
      "midi": 60,
      "hit": false,
      "t": 64636.29900000013,
      "d": 347.7269249999954,
      "v": 97
    },
    {
      "midi": 64,
      "hit": false,
      "t": 64636.29900000013,
      "d": 390.90869999999995,
      "v": 101
    },
    {
      "midi": 67,
      "hit": false,
      "t": 64636.29900000013,
      "d": 429.54502499999944,
      "v": 101
    },
    {
      "midi": 57,
      "hit": false,
      "t": 64909.02600000013,
      "d": 95.45444999999745,
      "v": 101
    },
    {
      "midi": 60,
      "hit": false,
      "t": 65181.75300000013,
      "d": 154.54529999999795,
      "v": 101
    },
    {
      "midi": 60,
      "hit": false,
      "t": 65454.48000000013,
      "d": 359.0905499999935,
      "v": 87
    },
    {
      "midi": 69,
      "hit": false,
      "t": 65454.48000000013,
      "d": 368.1814499999891,
      "v": 101
    },
    {
      "midi": 64,
      "hit": false,
      "t": 65454.48000000013,
      "d": 402.27232499998354,
      "v": 101
    },
    {
      "midi": 57,
      "hit": false,
      "t": 65454.48000000013,
      "d": 456.81772499998624,
      "v": 101
    },
    {
      "midi": 60,
      "hit": false,
      "t": 65999.93400000012,
      "d": 304.5451500000054,
      "v": 101
    },
    {
      "midi": 69,
      "hit": false,
      "t": 65999.93400000012,
      "d": 329.5451250000042,
      "v": 101
    },
    {
      "midi": 64,
      "hit": false,
      "t": 65999.93400000012,
      "d": 338.6360249999998,
      "v": 101
    },
    {
      "midi": 57,
      "hit": false,
      "t": 66272.66100000012,
      "d": 102.27262499999779,
      "v": 101
    },
    {
      "midi": 64,
      "hit": false,
      "t": 66545.38800000012,
      "d": 70.45447500000591,
      "v": 101
    },
    {
      "midi": 69,
      "hit": false,
      "t": 66545.38800000012,
      "d": 81.81810000000405,
      "v": 101
    },
    {
      "midi": 60,
      "hit": false,
      "t": 66545.38800000012,
      "d": 86.36355000000913,
      "v": 101
    },
    {
      "midi": 69,
      "hit": false,
      "t": 66818.11500000014,
      "d": 363.6359999999986,
      "v": 101
    },
    {
      "midi": 60,
      "hit": false,
      "t": 66818.11500000014,
      "d": 365.90872500000114,
      "v": 101
    },
    {
      "midi": 64,
      "hit": false,
      "t": 66818.11500000014,
      "d": 370.4541750000062,
      "v": 101
    },
    {
      "midi": 57,
      "hit": false,
      "t": 67090.84200000014,
      "d": 104.54535000000033,
      "v": 101
    },
    {
      "midi": 60,
      "hit": false,
      "t": 67363.56900000013,
      "d": 118.181700000001,
      "v": 101
    },
    {
      "midi": 64,
      "hit": false,
      "t": 67363.56900000013,
      "d": 134.09077500000421,
      "v": 101
    },
    {
      "midi": 69,
      "hit": false,
      "t": 67363.56900000013,
      "d": 161.36347500000556,
      "v": 101
    },
    {
      "midi": 52,
      "hit": false,
      "t": 67636.29600000015,
      "d": 511.3631250000035,
      "v": 101
    },
    {
      "midi": 67,
      "hit": false,
      "t": 68181.75000000015,
      "d": 336.36329999999725,
      "v": 101
    },
    {
      "midi": 64,
      "hit": false,
      "t": 68181.75000000015,
      "d": 343.1814749999903,
      "v": 101
    },
    {
      "midi": 71,
      "hit": false,
      "t": 68181.75000000015,
      "d": 343.1814749999903,
      "v": 101
    },
    {
      "midi": 52,
      "hit": false,
      "t": 68454.47700000014,
      "d": 120.45442499998899,
      "v": 101
    },
    {
      "midi": 62,
      "hit": false,
      "t": 68727.20400000013,
      "d": 65.90902500000084,
      "v": 101
    },
    {
      "midi": 69,
      "hit": false,
      "t": 68727.20400000013,
      "d": 65.90902500000084,
      "v": 101
    },
    {
      "midi": 66,
      "hit": false,
      "t": 68727.20400000013,
      "d": 84.09082500000659,
      "v": 101
    },
    {
      "midi": 64,
      "hit": false,
      "t": 68999.93100000014,
      "d": 381.81780000000435,
      "v": 101
    },
    {
      "midi": 71,
      "hit": false,
      "t": 68999.93100000014,
      "d": 393.1814250000025,
      "v": 101
    },
    {
      "midi": 67,
      "hit": false,
      "t": 68999.93100000014,
      "d": 402.2723249999981,
      "v": 101
    },
    {
      "midi": 52,
      "hit": false,
      "t": 69272.65800000014,
      "d": 220.4543249999988,
      "v": 101
    },
    {
      "midi": 64,
      "hit": false,
      "t": 69545.38500000014,
      "d": 84.09082500000659,
      "v": 101
    },
    {
      "midi": 67,
      "hit": false,
      "t": 69545.38500000014,
      "d": 90.90899999999965,
      "v": 101
    },
    {
      "midi": 71,
      "hit": false,
      "t": 69545.38500000014,
      "d": 109.0908000000054,
      "v": 101
    },
    {
      "midi": 62,
      "hit": false,
      "t": 69818.11200000014,
      "d": 84.09082500000659,
      "v": 101
    },
    {
      "midi": 69,
      "hit": false,
      "t": 69818.11200000014,
      "d": 95.45445000000473,
      "v": 101
    },
    {
      "midi": 66,
      "hit": false,
      "t": 69818.11200000014,
      "d": 106.81807500000286,
      "v": 101
    },
    {
      "midi": 54,
      "hit": false,
      "t": 70363.56600000014,
      "d": 1138.6352250000054,
      "v": 101
    },
    {
      "midi": 62,
      "hit": false,
      "t": 70363.56600000014,
      "d": 1145.4533999999985,
      "v": 101
    },
    {
      "midi": 66,
      "hit": false,
      "t": 70363.56600000014,
      "d": 1154.544299999994,
      "v": 101
    },
    {
      "midi": 69,
      "hit": false,
      "t": 70363.56600000014,
      "d": 1172.7260999999999,
      "v": 101
    },
    {
      "midi": 64,
      "hit": false,
      "t": 71999.92800000013,
      "d": 404.54505000000063,
      "v": 101
    },
    {
      "midi": 71,
      "hit": false,
      "t": 71999.92800000013,
      "d": 406.81777500000317,
      "v": 101
    },
    {
      "midi": 67,
      "hit": false,
      "t": 71999.92800000013,
      "d": 424.9995750000089,
      "v": 101
    },
    {
      "midi": 48,
      "hit": false,
      "t": 71999.92800000013,
      "d": 686.3629500000243,
      "v": 101
    },
    {
      "midi": 64,
      "hit": false,
      "t": 72545.38200000014,
      "d": 363.63600000001315,
      "v": 101
    },
    {
      "midi": 71,
      "hit": false,
      "t": 72545.38200000014,
      "d": 381.8178000000189,
      "v": 101
    },
    {
      "midi": 67,
      "hit": false,
      "t": 72545.38200000014,
      "d": 404.5450500000152,
      "v": 101
    },
    {
      "midi": 67,
      "hit": false,
      "t": 73090.83600000016,
      "d": 59.090849999993225,
      "v": 101
    },
    {
      "midi": 64,
      "hit": false,
      "t": 73090.83600000016,
      "d": 65.90902499998629,
      "v": 101
    },
    {
      "midi": 71,
      "hit": false,
      "t": 73090.83600000016,
      "d": 65.90902499998629,
      "v": 101
    },
    {
      "midi": 71,
      "hit": false,
      "t": 73363.56300000014,
      "d": 59.090849999993225,
      "v": 101
    },
    {
      "midi": 67,
      "hit": false,
      "t": 73363.56300000014,
      "d": 63.6362999999983,
      "v": 101
    },
    {
      "midi": 64,
      "hit": false,
      "t": 73363.56300000014,
      "d": 65.90902500000084,
      "v": 101
    },
    {
      "midi": 67,
      "hit": false,
      "t": 73909.01700000014,
      "d": 56.81812500000524,
      "v": 101
    },
    {
      "midi": 64,
      "hit": false,
      "t": 73909.01700000014,
      "d": 68.18175000000338,
      "v": 101
    },
    {
      "midi": 71,
      "hit": false,
      "t": 73909.01700000014,
      "d": 68.18175000000338,
      "v": 101
    },
    {
      "midi": 64,
      "hit": false,
      "t": 74181.74400000015,
      "d": 336.36329999999725,
      "v": 101
    },
    {
      "midi": 71,
      "hit": false,
      "t": 74181.74400000015,
      "d": 338.6360249999998,
      "v": 101
    },
    {
      "midi": 67,
      "hit": false,
      "t": 74181.74400000015,
      "d": 354.545100000003,
      "v": 101
    },
    {
      "midi": 48,
      "hit": false,
      "t": 74181.74400000015,
      "d": 1074.9989249999926,
      "v": 101
    },
    {
      "midi": 71,
      "hit": false,
      "t": 74727.19800000015,
      "d": 413.6359500000108,
      "v": 101
    },
    {
      "midi": 64,
      "hit": false,
      "t": 74727.19800000015,
      "d": 420.45412500000384,
      "v": 101
    },
    {
      "midi": 67,
      "hit": false,
      "t": 74727.19800000015,
      "d": 427.2722999999969,
      "v": 101
    },
    {
      "midi": 55,
      "hit": false,
      "t": 75136.28850000016,
      "d": 70.45447499999136,
      "v": 87
    },
    {
      "midi": 67,
      "hit": false,
      "t": 75272.65200000015,
      "d": 59.090849999993225,
      "v": 101
    },
    {
      "midi": 71,
      "hit": false,
      "t": 75272.65200000015,
      "d": 65.90902499998629,
      "v": 101
    },
    {
      "midi": 64,
      "hit": false,
      "t": 75272.65200000015,
      "d": 68.18174999998882,
      "v": 101
    },
    {
      "midi": 64,
      "hit": false,
      "t": 75545.37900000013,
      "d": 336.3632999999827,
      "v": 101
    },
    {
      "midi": 67,
      "hit": false,
      "t": 75545.37900000013,
      "d": 356.81782499997644,
      "v": 101
    },
    {
      "midi": 71,
      "hit": false,
      "t": 75545.37900000013,
      "d": 359.090549999979,
      "v": 101
    },
    {
      "midi": 55,
      "hit": false,
      "t": 75818.10600000012,
      "d": 90.90899999999965,
      "v": 97
    },
    {
      "midi": 67,
      "hit": false,
      "t": 76090.83300000012,
      "d": 59.090849999993225,
      "v": 101
    },
    {
      "midi": 64,
      "hit": false,
      "t": 76090.83300000012,
      "d": 84.09082499999204,
      "v": 101
    },
    {
      "midi": 71,
      "hit": false,
      "t": 76090.83300000012,
      "d": 88.63627499999711,
      "v": 101
    },
    {
      "midi": 69,
      "hit": false,
      "t": 76363.56000000011,
      "d": 395.45415000000503,
      "v": 101
    },
    {
      "midi": 62,
      "hit": false,
      "t": 76363.56000000011,
      "d": 406.81777500000317,
      "v": 101
    },
    {
      "midi": 66,
      "hit": false,
      "t": 76363.56000000011,
      "d": 422.7268500000064,
      "v": 97
    },
    {
      "midi": 55,
      "hit": false,
      "t": 76363.56000000011,
      "d": 511.3631250000035,
      "v": 101
    },
    {
      "midi": 69,
      "hit": false,
      "t": 76909.01400000011,
      "d": 420.45412500000384,
      "v": 101
    },
    {
      "midi": 62,
      "hit": false,
      "t": 76909.01400000011,
      "d": 440.9086499999976,
      "v": 101
    },
    {
      "midi": 66,
      "hit": false,
      "t": 77045.37750000012,
      "d": 9.0908999999956,
      "v": 16
    },
    {
      "midi": 55,
      "hit": false,
      "t": 77454.46800000011,
      "d": 61.36357499999576,
      "v": 87
    },
    {
      "midi": 66,
      "hit": false,
      "t": 77454.46800000011,
      "d": 70.45447499999136,
      "v": 101
    },
    {
      "midi": 62,
      "hit": false,
      "t": 77454.46800000011,
      "d": 74.99992499999644,
      "v": 101
    },
    {
      "midi": 69,
      "hit": false,
      "t": 77454.46800000011,
      "d": 86.36354999999458,
      "v": 101
    },
    {
      "midi": 66,
      "hit": false,
      "t": 77727.19500000011,
      "d": 265.9088250000059,
      "v": 101
    },
    {
      "midi": 62,
      "hit": false,
      "t": 77727.19500000011,
      "d": 295.4542499999952,
      "v": 101
    },
    {
      "midi": 69,
      "hit": false,
      "t": 77727.19500000011,
      "d": 329.54512499998964,
      "v": 101
    },
    {
      "midi": 55,
      "hit": false,
      "t": 77999.92200000011,
      "d": 113.63624999999593,
      "v": 101
    },
    {
      "midi": 62,
      "hit": false,
      "t": 78272.6490000001,
      "d": 122.72715000000608,
      "v": 101
    },
    {
      "midi": 66,
      "hit": false,
      "t": 78272.6490000001,
      "d": 131.81805000000168,
      "v": 92
    },
    {
      "midi": 69,
      "hit": false,
      "t": 78272.6490000001,
      "d": 163.6362000000081,
      "v": 101
    },
    {
      "midi": 55,
      "hit": false,
      "t": 78545.37600000012,
      "d": 318.18150000000605,
      "v": 101
    },
    {
      "midi": 55,
      "hit": false,
      "t": 78954.46650000013,
      "d": 88.63627499999711,
      "v": 97
    },
    {
      "midi": 67,
      "hit": false,
      "t": 79090.83000000012,
      "d": 99.99989999999525,
      "v": 101
    },
    {
      "midi": 71,
      "hit": false,
      "t": 79090.83000000012,
      "d": 102.27262499999779,
      "v": 101
    },
    {
      "midi": 55,
      "hit": false,
      "t": 79363.55700000012,
      "d": 65.90902500000084,
      "v": 101
    },
    {
      "midi": 66,
      "hit": false,
      "t": 79363.55700000012,
      "d": 402.2723249999981,
      "v": 101
    },
    {
      "midi": 69,
      "hit": false,
      "t": 79363.55700000012,
      "d": 429.54502499999944,
      "v": 101
    },
    {
      "midi": 55,
      "hit": false,
      "t": 79909.01100000012,
      "d": 102.27262499999779,
      "v": 101
    },
    {
      "midi": 64,
      "hit": false,
      "t": 80181.73800000011,
      "d": 86.36354999999458,
      "v": 101
    },
    {
      "midi": 67,
      "hit": false,
      "t": 80181.73800000011,
      "d": 99.99989999999525,
      "v": 101
    },
    {
      "midi": 67,
      "hit": false,
      "t": 80727.19200000011,
      "d": 463.63589999999385,
      "v": 101
    },
    {
      "midi": 71,
      "hit": false,
      "t": 80727.19200000011,
      "d": 468.18134999999893,
      "v": 101
    },
    {
      "midi": 74,
      "hit": false,
      "t": 80727.19200000011,
      "d": 468.18134999999893,
      "v": 101
    },
    {
      "midi": 74,
      "hit": false,
      "t": 81272.64600000011,
      "d": 397.726874999993,
      "v": 101
    },
    {
      "midi": 67,
      "hit": false,
      "t": 81272.64600000011,
      "d": 404.5450499999861,
      "v": 97
    },
    {
      "midi": 71,
      "hit": false,
      "t": 81272.64600000011,
      "d": 411.36322499997914,
      "v": 101
    },
    {
      "midi": 71,
      "hit": false,
      "t": 81818.1000000001,
      "d": 61.36357499999576,
      "v": 101
    },
    {
      "midi": 74,
      "hit": false,
      "t": 81818.1000000001,
      "d": 65.90902500000084,
      "v": 101
    },
    {
      "midi": 67,
      "hit": false,
      "t": 81818.1000000001,
      "d": 77.27264999999898,
      "v": 97
    },
    {
      "midi": 71,
      "hit": false,
      "t": 82090.82700000009,
      "d": 309.0905999999959,
      "v": 101
    },
    {
      "midi": 67,
      "hit": false,
      "t": 82090.82700000009,
      "d": 311.36332499999844,
      "v": 101
    },
    {
      "midi": 74,
      "hit": false,
      "t": 82090.82700000009,
      "d": 311.36332499999844,
      "v": 101
    },
    {
      "midi": 48,
      "hit": false,
      "t": 82363.55400000009,
      "d": 61.36357499999576,
      "v": 97
    },
    {
      "midi": 55,
      "hit": false,
      "t": 82363.55400000009,
      "d": 65.90902500000084,
      "v": 101
    },
    {
      "midi": 74,
      "hit": false,
      "t": 82636.28100000009,
      "d": 74.99992499999644,
      "v": 82
    },
    {
      "midi": 71,
      "hit": false,
      "t": 82636.28100000009,
      "d": 84.09082499999204,
      "v": 92
    },
    {
      "midi": 67,
      "hit": false,
      "t": 82636.28100000009,
      "d": 106.81807499998831,
      "v": 92
    },
    {
      "midi": 74,
      "hit": false,
      "t": 82909.00800000007,
      "d": 377.2723499999993,
      "v": 101
    },
    {
      "midi": 67,
      "hit": false,
      "t": 82909.00800000007,
      "d": 384.09052499999234,
      "v": 97
    },
    {
      "midi": 71,
      "hit": false,
      "t": 82909.00800000007,
      "d": 390.9086999999854,
      "v": 101
    },
    {
      "midi": 55,
      "hit": false,
      "t": 82909.00800000007,
      "d": 477.27224999998,
      "v": 101
    },
    {
      "midi": 48,
      "hit": false,
      "t": 82909.00800000007,
      "d": 488.6358749999781,
      "v": 101
    },
    {
      "midi": 74,
      "hit": false,
      "t": 83454.46200000006,
      "d": 315.9087750000035,
      "v": 101
    },
    {
      "midi": 71,
      "hit": false,
      "t": 83454.46200000006,
      "d": 327.27240000000165,
      "v": 101
    },
    {
      "midi": 67,
      "hit": false,
      "t": 83454.46200000006,
      "d": 331.81785000000673,
      "v": 101
    },
    {
      "midi": 71,
      "hit": false,
      "t": 83863.55250000006,
      "d": 43.18177500000456,
      "v": 101
    },
    {
      "midi": 74,
      "hit": false,
      "t": 83863.55250000006,
      "d": 49.999949999997625,
      "v": 101
    },
    {
      "midi": 67,
      "hit": false,
      "t": 83863.55250000006,
      "d": 61.36357499999576,
      "v": 77
    },
    {
      "midi": 71,
      "hit": false,
      "t": 83999.91600000006,
      "d": 68.18175000000338,
      "v": 101
    },
    {
      "midi": 67,
      "hit": false,
      "t": 83999.91600000006,
      "d": 86.36355000000913,
      "v": 73
    },
    {
      "midi": 74,
      "hit": false,
      "t": 83999.91600000006,
      "d": 95.45445000000473,
      "v": 101
    },
    {
      "midi": 67,
      "hit": false,
      "t": 84272.64300000005,
      "d": 315.9087750000035,
      "v": 101
    },
    {
      "midi": 74,
      "hit": false,
      "t": 84272.64300000005,
      "d": 340.9087500000023,
      "v": 101
    },
    {
      "midi": 71,
      "hit": false,
      "t": 84272.64300000005,
      "d": 347.7269249999954,
      "v": 101
    },
    {
      "midi": 71,
      "hit": false,
      "t": 84818.09700000005,
      "d": 47.72722499999509,
      "v": 97
    },
    {
      "midi": 74,
      "hit": false,
      "t": 84818.09700000005,
      "d": 63.6362999999983,
      "v": 101
    },
    {
      "midi": 67,
      "hit": false,
      "t": 84818.09700000005,
      "d": 84.09082499999204,
      "v": 101
    },
    {
      "midi": 64,
      "hit": false,
      "t": 85090.82400000004,
      "d": 349.9996499999979,
      "v": 101
    },
    {
      "midi": 57,
      "hit": false,
      "t": 85090.82400000004,
      "d": 363.6359999999986,
      "v": 101
    },
    {
      "midi": 60,
      "hit": false,
      "t": 85090.82400000004,
      "d": 372.7268999999942,
      "v": 101
    },
    {
      "midi": 45,
      "hit": false,
      "t": 85090.82400000004,
      "d": 656.8175249999913,
      "v": 101
    },
    {
      "midi": 55,
      "hit": false,
      "t": 85636.27800000003,
      "d": 331.8178499999776,
      "v": 101
    },
    {
      "midi": 64,
      "hit": false,
      "t": 85636.27800000003,
      "d": 352.27237499997136,
      "v": 101
    },
    {
      "midi": 60,
      "hit": false,
      "t": 85636.27800000003,
      "d": 356.81782499997644,
      "v": 101
    },
    {
      "midi": 45,
      "hit": false,
      "t": 85909.00500000002,
      "d": 188.63617499999236,
      "v": 101
    },
    {
      "midi": 60,
      "hit": false,
      "t": 86181.73200000002,
      "d": 65.90902500000084,
      "v": 101
    },
    {
      "midi": 64,
      "hit": false,
      "t": 86181.73200000002,
      "d": 77.27264999999898,
      "v": 101
    },
    {
      "midi": 57,
      "hit": false,
      "t": 86181.73200000002,
      "d": 81.81810000000405,
      "v": 101
    },
    {
      "midi": 57,
      "hit": false,
      "t": 86454.45900000002,
      "d": 340.9087500000023,
      "v": 101
    },
    {
      "midi": 60,
      "hit": false,
      "t": 86454.45900000002,
      "d": 359.0905500000081,
      "v": 101
    },
    {
      "midi": 64,
      "hit": false,
      "t": 86454.45900000002,
      "d": 384.0905250000069,
      "v": 101
    },
    {
      "midi": 45,
      "hit": false,
      "t": 86727.18600000002,
      "d": 136.36350000000675,
      "v": 101
    },
    {
      "midi": 62,
      "hit": false,
      "t": 87272.64000000003,
      "d": 156.81802499998594,
      "v": 101
    },
    {
      "midi": 69,
      "hit": false,
      "t": 87272.64000000003,
      "d": 156.81802499998594,
      "v": 101
    },
    {
      "midi": 66,
      "hit": false,
      "t": 87272.64000000003,
      "d": 165.90892499998154,
      "v": 101
    },
    {
      "midi": 62,
      "hit": false,
      "t": 87545.36700000001,
      "d": 138.63622499999474,
      "v": 101
    },
    {
      "midi": 66,
      "hit": false,
      "t": 87545.36700000001,
      "d": 149.99984999999288,
      "v": 101
    },
    {
      "midi": 69,
      "hit": false,
      "t": 87545.36700000001,
      "d": 154.54529999999795,
      "v": 101
    },
    {
      "midi": 62,
      "hit": false,
      "t": 87818.09400000001,
      "d": 138.63622499999474,
      "v": 101
    },
    {
      "midi": 66,
      "hit": false,
      "t": 87818.09400000001,
      "d": 145.4543999999878,
      "v": 101
    },
    {
      "midi": 69,
      "hit": false,
      "t": 87818.09400000001,
      "d": 149.99984999999288,
      "v": 101
    },
    {
      "midi": 62,
      "hit": false,
      "t": 88090.82100000001,
      "d": 124.99987499999406,
      "v": 101
    },
    {
      "midi": 66,
      "hit": false,
      "t": 88090.82100000001,
      "d": 129.54532499999914,
      "v": 101
    },
    {
      "midi": 59,
      "hit": false,
      "t": 88090.82100000001,
      "d": 143.1816749999998,
      "v": 101
    },
    {
      "midi": 69,
      "hit": false,
      "t": 88090.82100000001,
      "d": 152.2725749999954,
      "v": 101
    },
    {
      "midi": 64,
      "hit": false,
      "t": 89454.456,
      "d": 334.0905749999947,
      "v": 101
    },
    {
      "midi": 71,
      "hit": false,
      "t": 89454.456,
      "d": 343.1814749999903,
      "v": 101
    },
    {
      "midi": 52,
      "hit": false,
      "t": 89454.456,
      "d": 345.45419999999285,
      "v": 101
    },
    {
      "midi": 67,
      "hit": false,
      "t": 89454.456,
      "d": 354.54509999998845,
      "v": 101
    },
    {
      "midi": 64,
      "hit": false,
      "t": 89999.90999999999,
      "d": 313.636050000001,
      "v": 101
    },
    {
      "midi": 71,
      "hit": false,
      "t": 89999.90999999999,
      "d": 320.45422499999404,
      "v": 101
    },
    {
      "midi": 67,
      "hit": false,
      "t": 89999.90999999999,
      "d": 327.2723999999871,
      "v": 101
    },
    {
      "midi": 52,
      "hit": false,
      "t": 90272.63699999999,
      "d": 88.63627499998256,
      "v": 101
    },
    {
      "midi": 67,
      "hit": false,
      "t": 90545.36399999997,
      "d": 59.090849999993225,
      "v": 101
    },
    {
      "midi": 64,
      "hit": false,
      "t": 90545.36399999997,
      "d": 61.36357499999576,
      "v": 101
    },
    {
      "midi": 71,
      "hit": false,
      "t": 90545.36399999997,
      "d": 63.6362999999983,
      "v": 101
    },
    {
      "midi": 64,
      "hit": false,
      "t": 90818.09099999997,
      "d": 361.36327499999607,
      "v": 101
    },
    {
      "midi": 67,
      "hit": false,
      "t": 90818.09099999997,
      "d": 374.99962499999674,
      "v": 101
    },
    {
      "midi": 71,
      "hit": false,
      "t": 90818.09099999997,
      "d": 377.2723499999993,
      "v": 101
    },
    {
      "midi": 52,
      "hit": false,
      "t": 91090.81799999997,
      "d": 99.99989999999525,
      "v": 101
    },
    {
      "midi": 67,
      "hit": false,
      "t": 91363.54499999997,
      "d": 81.81810000000405,
      "v": 101
    },
    {
      "midi": 64,
      "hit": false,
      "t": 91363.54499999997,
      "d": 95.45445000000473,
      "v": 101
    },
    {
      "midi": 71,
      "hit": false,
      "t": 91363.54499999997,
      "d": 102.27262499999779,
      "v": 101
    },
    {
      "midi": 62,
      "hit": false,
      "t": 91636.27199999997,
      "d": 379.5450750000018,
      "v": 101
    },
    {
      "midi": 71,
      "hit": false,
      "t": 91636.27199999997,
      "d": 381.81780000000435,
      "v": 101
    },
    {
      "midi": 66,
      "hit": false,
      "t": 91636.27199999997,
      "d": 402.2723249999981,
      "v": 101
    },
    {
      "midi": 71,
      "hit": false,
      "t": 92181.72599999997,
      "d": 397.726874999993,
      "v": 101
    },
    {
      "midi": 62,
      "hit": false,
      "t": 92181.72599999997,
      "d": 406.8177749999886,
      "v": 101
    },
    {
      "midi": 66,
      "hit": false,
      "t": 92181.72599999997,
      "d": 424.99957499999437,
      "v": 101
    },
    {
      "midi": 62,
      "hit": false,
      "t": 92727.17999999996,
      "d": 43.18177500000456,
      "v": 63
    },
    {
      "midi": 71,
      "hit": false,
      "t": 92727.17999999996,
      "d": 43.18177500000456,
      "v": 71
    },
    {
      "midi": 66,
      "hit": false,
      "t": 92727.17999999996,
      "d": 56.81812500000524,
      "v": 82
    },
    {
      "midi": 60,
      "hit": false,
      "t": 92999.90699999996,
      "d": 109.0908000000054,
      "v": 87
    },
    {
      "midi": 62,
      "hit": false,
      "t": 92999.90699999996,
      "d": 359.0905500000081,
      "v": 92
    },
    {
      "midi": 71,
      "hit": false,
      "t": 92999.90699999996,
      "d": 370.4541750000062,
      "v": 101
    },
    {
      "midi": 66,
      "hit": false,
      "t": 92999.90699999996,
      "d": 393.1814250000025,
      "v": 101
    },
    {
      "midi": 62,
      "hit": false,
      "t": 93545.36099999996,
      "d": 86.36354999999458,
      "v": 101
    },
    {
      "midi": 71,
      "hit": false,
      "t": 93545.36099999996,
      "d": 99.99989999999525,
      "v": 101
    },
    {
      "midi": 66,
      "hit": false,
      "t": 93545.36099999996,
      "d": 102.27262499999779,
      "v": 101
    },
    {
      "midi": 64,
      "hit": false,
      "t": 93818.08799999996,
      "d": 324.9996749999991,
      "v": 101
    },
    {
      "midi": 71,
      "hit": false,
      "t": 93818.08799999996,
      "d": 345.45419999999285,
      "v": 101
    },
    {
      "midi": 67,
      "hit": false,
      "t": 93818.08799999996,
      "d": 363.6359999999986,
      "v": 101
    },
    {
      "midi": 60,
      "hit": false,
      "t": 93818.08799999996,
      "d": 472.726800000004,
      "v": 101
    },
    {
      "midi": 64,
      "hit": false,
      "t": 94363.54199999996,
      "d": 413.6359500000108,
      "v": 101
    },
    {
      "midi": 71,
      "hit": false,
      "t": 94363.54199999996,
      "d": 418.18140000001586,
      "v": 101
    },
    {
      "midi": 67,
      "hit": false,
      "t": 94363.54199999996,
      "d": 427.27230000001146,
      "v": 101
    },
    {
      "midi": 60,
      "hit": false,
      "t": 94772.63249999996,
      "d": 72.72720000000845,
      "v": 101
    },
    {
      "midi": 67,
      "hit": false,
      "t": 94908.99599999997,
      "d": 65.90902500000084,
      "v": 101
    },
    {
      "midi": 71,
      "hit": false,
      "t": 94908.99599999997,
      "d": 65.90902500000084,
      "v": 101
    },
    {
      "midi": 64,
      "hit": false,
      "t": 94908.99599999997,
      "d": 70.45447500000591,
      "v": 101
    },
    {
      "midi": 64,
      "hit": false,
      "t": 95181.72299999997,
      "d": 518.1812999999966,
      "v": 101
    },
    {
      "midi": 71,
      "hit": false,
      "t": 95181.72299999997,
      "d": 529.5449249999947,
      "v": 101
    },
    {
      "midi": 67,
      "hit": false,
      "t": 95181.72299999997,
      "d": 534.0903749999998,
      "v": 101
    },
    {
      "midi": 60,
      "hit": false,
      "t": 95727.17699999997,
      "d": 79.54537500000151,
      "v": 101
    },
    {
      "midi": 64,
      "hit": false,
      "t": 95999.90399999997,
      "d": 331.81785000000673,
      "v": 87
    },
    {
      "midi": 71,
      "hit": false,
      "t": 95999.90399999997,
      "d": 354.545100000003,
      "v": 101
    },
    {
      "midi": 67,
      "hit": false,
      "t": 95999.90399999997,
      "d": 365.90872500000114,
      "v": 101
    },
    {
      "midi": 60,
      "hit": false,
      "t": 95999.90399999997,
      "d": 436.36320000000705,
      "v": 101
    },
    {
      "midi": 64,
      "hit": false,
      "t": 96545.35799999998,
      "d": 288.63607500000217,
      "v": 101
    },
    {
      "midi": 67,
      "hit": false,
      "t": 96545.35799999998,
      "d": 304.5451500000054,
      "v": 101
    },
    {
      "midi": 71,
      "hit": false,
      "t": 96545.35799999998,
      "d": 309.09060000001045,
      "v": 101
    },
    {
      "midi": 60,
      "hit": false,
      "t": 96818.08499999998,
      "d": 86.36355000000913,
      "v": 101
    },
    {
      "midi": 67,
      "hit": false,
      "t": 97090.81199999999,
      "d": 65.90902500000084,
      "v": 101
    },
    {
      "midi": 64,
      "hit": false,
      "t": 97090.81199999999,
      "d": 68.18175000000338,
      "v": 101
    },
    {
      "midi": 71,
      "hit": false,
      "t": 97090.81199999999,
      "d": 68.18175000000338,
      "v": 101
    },
    {
      "midi": 64,
      "hit": false,
      "t": 97363.53899999999,
      "d": 402.2723249999981,
      "v": 101
    },
    {
      "midi": 71,
      "hit": false,
      "t": 97363.53899999999,
      "d": 409.09049999999115,
      "v": 101
    },
    {
      "midi": 67,
      "hit": false,
      "t": 97363.53899999999,
      "d": 418.18139999998675,
      "v": 101
    },
    {
      "midi": 67,
      "hit": false,
      "t": 97908.99299999997,
      "d": 72.7271999999939,
      "v": 101
    },
    {
      "midi": 71,
      "hit": false,
      "t": 97908.99299999997,
      "d": 79.54537499998696,
      "v": 101
    },
    {
      "midi": 64,
      "hit": false,
      "t": 97908.99299999997,
      "d": 95.45444999999017,
      "v": 97
    },
    {
      "midi": 60,
      "hit": false,
      "t": 98181.71999999997,
      "d": 422.7268500000064,
      "v": 101
    },
    {
      "midi": 64,
      "hit": false,
      "t": 98181.71999999997,
      "d": 436.36320000000705,
      "v": 101
    },
    {
      "midi": 67,
      "hit": false,
      "t": 98181.71999999997,
      "d": 438.6359250000096,
      "v": 101
    },
    {
      "midi": 57,
      "hit": false,
      "t": 98727.17399999998,
      "d": 120.45442500000354,
      "v": 101
    },
    {
      "midi": 60,
      "hit": false,
      "t": 98727.17399999998,
      "d": 381.81780000000435,
      "v": 92
    },
    {
      "midi": 67,
      "hit": false,
      "t": 98727.17399999998,
      "d": 384.0905250000069,
      "v": 101
    },
    {
      "midi": 64,
      "hit": false,
      "t": 98727.17399999998,
      "d": 388.63597500001197,
      "v": 101
    },
    {
      "midi": 64,
      "hit": false,
      "t": 99272.628,
      "d": 74.99992499999644,
      "v": 101
    },
    {
      "midi": 60,
      "hit": false,
      "t": 99272.628,
      "d": 84.09082499999204,
      "v": 101
    },
    {
      "midi": 67,
      "hit": false,
      "t": 99272.628,
      "d": 90.9089999999851,
      "v": 101
    },
    {
      "midi": 60,
      "hit": false,
      "t": 99545.35499999998,
      "d": 347.7269249999954,
      "v": 97
    },
    {
      "midi": 64,
      "hit": false,
      "t": 99545.35499999998,
      "d": 390.9086999999854,
      "v": 101
    },
    {
      "midi": 67,
      "hit": false,
      "t": 99545.35499999998,
      "d": 429.5450249999849,
      "v": 101
    },
    {
      "midi": 57,
      "hit": false,
      "t": 99818.08199999998,
      "d": 95.45444999999017,
      "v": 101
    },
    {
      "midi": 60,
      "hit": false,
      "t": 100090.80899999996,
      "d": 154.54529999999795,
      "v": 101
    },
    {
      "midi": 60,
      "hit": false,
      "t": 100363.53599999996,
      "d": 359.0905499999935,
      "v": 87
    },
    {
      "midi": 69,
      "hit": false,
      "t": 100363.53599999996,
      "d": 368.1814499999891,
      "v": 101
    },
    {
      "midi": 64,
      "hit": false,
      "t": 100363.53599999996,
      "d": 402.27232499998354,
      "v": 101
    },
    {
      "midi": 57,
      "hit": false,
      "t": 100363.53599999996,
      "d": 456.81772499998624,
      "v": 101
    },
    {
      "midi": 60,
      "hit": false,
      "t": 100908.98999999996,
      "d": 304.5451500000054,
      "v": 101
    },
    {
      "midi": 69,
      "hit": false,
      "t": 100908.98999999996,
      "d": 329.5451250000042,
      "v": 101
    },
    {
      "midi": 64,
      "hit": false,
      "t": 100908.98999999996,
      "d": 338.6360249999998,
      "v": 101
    },
    {
      "midi": 57,
      "hit": false,
      "t": 101181.71699999996,
      "d": 102.27262499999779,
      "v": 101
    },
    {
      "midi": 64,
      "hit": false,
      "t": 101454.44399999996,
      "d": 70.45447500000591,
      "v": 101
    },
    {
      "midi": 69,
      "hit": false,
      "t": 101454.44399999996,
      "d": 81.81810000000405,
      "v": 101
    },
    {
      "midi": 60,
      "hit": false,
      "t": 101454.44399999996,
      "d": 86.36355000000913,
      "v": 101
    },
    {
      "midi": 69,
      "hit": false,
      "t": 101727.17099999997,
      "d": 363.6359999999986,
      "v": 101
    },
    {
      "midi": 60,
      "hit": false,
      "t": 101727.17099999997,
      "d": 365.90872500000114,
      "v": 101
    },
    {
      "midi": 64,
      "hit": false,
      "t": 101727.17099999997,
      "d": 370.4541750000062,
      "v": 101
    },
    {
      "midi": 57,
      "hit": false,
      "t": 101999.89799999997,
      "d": 104.54535000000033,
      "v": 101
    },
    {
      "midi": 60,
      "hit": false,
      "t": 102272.62499999997,
      "d": 118.181700000001,
      "v": 101
    },
    {
      "midi": 64,
      "hit": false,
      "t": 102272.62499999997,
      "d": 134.09077500000421,
      "v": 101
    },
    {
      "midi": 69,
      "hit": false,
      "t": 102272.62499999997,
      "d": 161.36347500000556,
      "v": 101
    },
    {
      "midi": 52,
      "hit": false,
      "t": 102545.35199999998,
      "d": 556.817624999996,
      "v": 101
    },
    {
      "midi": 67,
      "hit": false,
      "t": 103090.80599999998,
      "d": 256.8179250000103,
      "v": 101
    },
    {
      "midi": 71,
      "hit": false,
      "t": 103090.80599999998,
      "d": 270.45427500001097,
      "v": 101
    },
    {
      "midi": 64,
      "hit": false,
      "t": 103090.80599999998,
      "d": 293.18152500000724,
      "v": 101
    },
    {
      "midi": 52,
      "hit": false,
      "t": 103363.533,
      "d": 106.81807499998831,
      "v": 101
    },
    {
      "midi": 62,
      "hit": false,
      "t": 103636.25999999998,
      "d": 115.90897499999846,
      "v": 101
    },
    {
      "midi": 66,
      "hit": false,
      "t": 103636.25999999998,
      "d": 124.99987499999406,
      "v": 101
    },
    {
      "midi": 69,
      "hit": false,
      "t": 103636.25999999998,
      "d": 124.99987499999406,
      "v": 101
    },
    {
      "midi": 64,
      "hit": false,
      "t": 103908.98699999998,
      "d": 404.54505000000063,
      "v": 101
    },
    {
      "midi": 67,
      "hit": false,
      "t": 103908.98699999998,
      "d": 413.6359499999962,
      "v": 101
    },
    {
      "midi": 71,
      "hit": false,
      "t": 103908.98699999998,
      "d": 418.1814000000013,
      "v": 101
    },
    {
      "midi": 52,
      "hit": false,
      "t": 104181.71399999998,
      "d": 265.9088250000059,
      "v": 101
    },
    {
      "midi": 67,
      "hit": false,
      "t": 104454.44099999998,
      "d": 159.09075000000303,
      "v": 101
    },
    {
      "midi": 71,
      "hit": false,
      "t": 104454.44099999998,
      "d": 172.7271000000037,
      "v": 101
    },
    {
      "midi": 64,
      "hit": false,
      "t": 104454.44099999998,
      "d": 177.27255000000878,
      "v": 101
    },
    {
      "midi": 62,
      "hit": false,
      "t": 105272.62199999999,
      "d": 402.2723249999981,
      "v": 101
    },
    {
      "midi": 69,
      "hit": false,
      "t": 105272.62199999999,
      "d": 406.81777500000317,
      "v": 101
    },
    {
      "midi": 66,
      "hit": false,
      "t": 105272.62199999999,
      "d": 420.45412500000384,
      "v": 101
    },
    {
      "midi": 66,
      "hit": false,
      "t": 105818.07599999999,
      "d": 61.36357499999576,
      "v": 101
    },
    {
      "midi": 62,
      "hit": false,
      "t": 105818.07599999999,
      "d": 70.45447499999136,
      "v": 101
    },
    {
      "midi": 69,
      "hit": false,
      "t": 105818.07599999999,
      "d": 70.45447499999136,
      "v": 101
    },
    {
      "midi": 62,
      "hit": false,
      "t": 106090.80299999997,
      "d": 424.99957499999437,
      "v": 101
    },
    {
      "midi": 66,
      "hit": false,
      "t": 106090.80299999997,
      "d": 436.3631999999925,
      "v": 101
    },
    {
      "midi": 69,
      "hit": false,
      "t": 106090.80299999997,
      "d": 436.3631999999925,
      "v": 101
    },
    {
      "midi": 62,
      "hit": false,
      "t": 106636.25699999997,
      "d": 81.81810000000405,
      "v": 101
    },
    {
      "midi": 66,
      "hit": false,
      "t": 106636.25699999997,
      "d": 88.63627499999711,
      "v": 101
    },
    {
      "midi": 69,
      "hit": false,
      "t": 106636.25699999997,
      "d": 104.54535000000033,
      "v": 101
    },
    {
      "midi": 64,
      "hit": false,
      "t": 106908.98399999997,
      "d": 334.0905749999947,
      "v": 101
    },
    {
      "midi": 71,
      "hit": false,
      "t": 106908.98399999997,
      "d": 343.1814749999903,
      "v": 101
    },
    {
      "midi": 52,
      "hit": false,
      "t": 106908.98399999997,
      "d": 345.45419999999285,
      "v": 101
    },
    {
      "midi": 67,
      "hit": false,
      "t": 106908.98399999997,
      "d": 354.54509999998845,
      "v": 101
    },
    {
      "midi": 64,
      "hit": false,
      "t": 107454.43799999995,
      "d": 313.636050000001,
      "v": 101
    },
    {
      "midi": 71,
      "hit": false,
      "t": 107454.43799999995,
      "d": 320.45422499999404,
      "v": 101
    },
    {
      "midi": 67,
      "hit": false,
      "t": 107454.43799999995,
      "d": 327.2723999999871,
      "v": 101
    },
    {
      "midi": 52,
      "hit": false,
      "t": 107727.16499999995,
      "d": 88.63627499998256,
      "v": 101
    },
    {
      "midi": 67,
      "hit": false,
      "t": 107999.89199999993,
      "d": 59.090849999993225,
      "v": 101
    },
    {
      "midi": 64,
      "hit": false,
      "t": 107999.89199999993,
      "d": 61.36357499999576,
      "v": 101
    },
    {
      "midi": 71,
      "hit": false,
      "t": 107999.89199999993,
      "d": 63.6362999999983,
      "v": 101
    },
    {
      "midi": 64,
      "hit": false,
      "t": 108272.61899999993,
      "d": 361.36327499999607,
      "v": 101
    },
    {
      "midi": 67,
      "hit": false,
      "t": 108272.61899999993,
      "d": 374.99962499999674,
      "v": 101
    },
    {
      "midi": 71,
      "hit": false,
      "t": 108272.61899999993,
      "d": 377.2723499999993,
      "v": 101
    },
    {
      "midi": 52,
      "hit": false,
      "t": 108545.34599999993,
      "d": 99.99989999999525,
      "v": 101
    },
    {
      "midi": 67,
      "hit": false,
      "t": 108818.07299999993,
      "d": 81.81810000000405,
      "v": 101
    },
    {
      "midi": 64,
      "hit": false,
      "t": 108818.07299999993,
      "d": 95.45445000000473,
      "v": 101
    },
    {
      "midi": 71,
      "hit": false,
      "t": 108818.07299999993,
      "d": 102.27262499999779,
      "v": 101
    },
    {
      "midi": 62,
      "hit": false,
      "t": 109090.79999999993,
      "d": 379.5450750000018,
      "v": 101
    },
    {
      "midi": 71,
      "hit": false,
      "t": 109090.79999999993,
      "d": 381.81780000000435,
      "v": 101
    },
    {
      "midi": 66,
      "hit": false,
      "t": 109090.79999999993,
      "d": 402.2723249999981,
      "v": 101
    },
    {
      "midi": 71,
      "hit": false,
      "t": 109636.25399999993,
      "d": 397.726874999993,
      "v": 101
    },
    {
      "midi": 62,
      "hit": false,
      "t": 109636.25399999993,
      "d": 406.8177749999886,
      "v": 101
    },
    {
      "midi": 66,
      "hit": false,
      "t": 109636.25399999993,
      "d": 424.99957499999437,
      "v": 101
    },
    {
      "midi": 62,
      "hit": false,
      "t": 110181.70799999993,
      "d": 43.18177500000456,
      "v": 63
    },
    {
      "midi": 71,
      "hit": false,
      "t": 110181.70799999993,
      "d": 43.18177500000456,
      "v": 71
    },
    {
      "midi": 66,
      "hit": false,
      "t": 110181.70799999993,
      "d": 56.81812500000524,
      "v": 82
    },
    {
      "midi": 60,
      "hit": false,
      "t": 110454.43499999992,
      "d": 109.0908000000054,
      "v": 87
    },
    {
      "midi": 62,
      "hit": false,
      "t": 110454.43499999992,
      "d": 359.0905500000081,
      "v": 92
    },
    {
      "midi": 71,
      "hit": false,
      "t": 110454.43499999992,
      "d": 370.4541750000062,
      "v": 101
    },
    {
      "midi": 66,
      "hit": false,
      "t": 110454.43499999992,
      "d": 393.1814250000025,
      "v": 101
    },
    {
      "midi": 62,
      "hit": false,
      "t": 110999.88899999992,
      "d": 86.36354999999458,
      "v": 101
    },
    {
      "midi": 71,
      "hit": false,
      "t": 110999.88899999992,
      "d": 99.99989999999525,
      "v": 101
    },
    {
      "midi": 66,
      "hit": false,
      "t": 110999.88899999992,
      "d": 102.27262499999779,
      "v": 101
    },
    {
      "midi": 64,
      "hit": false,
      "t": 111272.61599999992,
      "d": 324.9996749999991,
      "v": 101
    },
    {
      "midi": 71,
      "hit": false,
      "t": 111272.61599999992,
      "d": 345.45419999999285,
      "v": 101
    },
    {
      "midi": 67,
      "hit": false,
      "t": 111272.61599999992,
      "d": 363.6359999999986,
      "v": 101
    },
    {
      "midi": 60,
      "hit": false,
      "t": 111272.61599999992,
      "d": 472.726800000004,
      "v": 101
    },
    {
      "midi": 64,
      "hit": false,
      "t": 111818.06999999992,
      "d": 413.6359500000108,
      "v": 101
    },
    {
      "midi": 71,
      "hit": false,
      "t": 111818.06999999992,
      "d": 418.18140000001586,
      "v": 101
    },
    {
      "midi": 67,
      "hit": false,
      "t": 111818.06999999992,
      "d": 427.27230000001146,
      "v": 101
    },
    {
      "midi": 60,
      "hit": false,
      "t": 112227.16049999993,
      "d": 72.72720000000845,
      "v": 101
    },
    {
      "midi": 67,
      "hit": false,
      "t": 112363.52399999993,
      "d": 65.90902500000084,
      "v": 101
    },
    {
      "midi": 71,
      "hit": false,
      "t": 112363.52399999993,
      "d": 65.90902500000084,
      "v": 101
    },
    {
      "midi": 64,
      "hit": false,
      "t": 112363.52399999993,
      "d": 70.45447500000591,
      "v": 101
    },
    {
      "midi": 64,
      "hit": false,
      "t": 112636.25099999993,
      "d": 518.1812999999966,
      "v": 101
    },
    {
      "midi": 71,
      "hit": false,
      "t": 112636.25099999993,
      "d": 529.5449249999947,
      "v": 101
    },
    {
      "midi": 67,
      "hit": false,
      "t": 112636.25099999993,
      "d": 534.0903749999998,
      "v": 101
    },
    {
      "midi": 60,
      "hit": false,
      "t": 113181.70499999993,
      "d": 79.54537500000151,
      "v": 101
    },
    {
      "midi": 64,
      "hit": false,
      "t": 113454.43199999993,
      "d": 331.81785000000673,
      "v": 87
    },
    {
      "midi": 71,
      "hit": false,
      "t": 113454.43199999993,
      "d": 354.545100000003,
      "v": 101
    },
    {
      "midi": 67,
      "hit": false,
      "t": 113454.43199999993,
      "d": 365.90872500000114,
      "v": 101
    },
    {
      "midi": 60,
      "hit": false,
      "t": 113454.43199999993,
      "d": 436.36320000000705,
      "v": 101
    },
    {
      "midi": 64,
      "hit": false,
      "t": 113999.88599999994,
      "d": 288.63607500000217,
      "v": 101
    },
    {
      "midi": 67,
      "hit": false,
      "t": 113999.88599999994,
      "d": 304.5451500000054,
      "v": 101
    },
    {
      "midi": 71,
      "hit": false,
      "t": 113999.88599999994,
      "d": 309.09060000001045,
      "v": 101
    },
    {
      "midi": 60,
      "hit": false,
      "t": 114272.61299999994,
      "d": 86.36355000000913,
      "v": 101
    },
    {
      "midi": 67,
      "hit": false,
      "t": 114545.33999999995,
      "d": 65.90902500000084,
      "v": 101
    },
    {
      "midi": 64,
      "hit": false,
      "t": 114545.33999999995,
      "d": 68.18175000000338,
      "v": 101
    },
    {
      "midi": 71,
      "hit": false,
      "t": 114545.33999999995,
      "d": 68.18175000000338,
      "v": 101
    },
    {
      "midi": 64,
      "hit": false,
      "t": 114818.06699999995,
      "d": 402.2723249999981,
      "v": 101
    },
    {
      "midi": 71,
      "hit": false,
      "t": 114818.06699999995,
      "d": 409.09049999999115,
      "v": 101
    },
    {
      "midi": 67,
      "hit": false,
      "t": 114818.06699999995,
      "d": 418.18139999998675,
      "v": 101
    },
    {
      "midi": 67,
      "hit": false,
      "t": 115363.52099999994,
      "d": 72.7271999999939,
      "v": 101
    },
    {
      "midi": 71,
      "hit": false,
      "t": 115363.52099999994,
      "d": 79.54537499998696,
      "v": 101
    },
    {
      "midi": 64,
      "hit": false,
      "t": 115363.52099999994,
      "d": 95.45444999999017,
      "v": 97
    },
    {
      "midi": 60,
      "hit": false,
      "t": 115636.24799999993,
      "d": 422.7268500000064,
      "v": 101
    },
    {
      "midi": 64,
      "hit": false,
      "t": 115636.24799999993,
      "d": 436.36320000000705,
      "v": 101
    },
    {
      "midi": 67,
      "hit": false,
      "t": 115636.24799999993,
      "d": 438.6359250000096,
      "v": 101
    },
    {
      "midi": 57,
      "hit": false,
      "t": 116181.70199999995,
      "d": 120.45442500000354,
      "v": 101
    },
    {
      "midi": 60,
      "hit": false,
      "t": 116181.70199999995,
      "d": 381.81780000000435,
      "v": 92
    },
    {
      "midi": 67,
      "hit": false,
      "t": 116181.70199999995,
      "d": 384.0905250000069,
      "v": 101
    },
    {
      "midi": 64,
      "hit": false,
      "t": 116181.70199999995,
      "d": 388.63597500001197,
      "v": 101
    },
    {
      "midi": 64,
      "hit": false,
      "t": 116727.15599999996,
      "d": 74.99992499999644,
      "v": 101
    },
    {
      "midi": 60,
      "hit": false,
      "t": 116727.15599999996,
      "d": 84.09082499999204,
      "v": 101
    },
    {
      "midi": 67,
      "hit": false,
      "t": 116727.15599999996,
      "d": 90.9089999999851,
      "v": 101
    },
    {
      "midi": 60,
      "hit": false,
      "t": 116999.88299999994,
      "d": 347.7269249999954,
      "v": 97
    },
    {
      "midi": 64,
      "hit": false,
      "t": 116999.88299999994,
      "d": 390.9086999999854,
      "v": 101
    },
    {
      "midi": 67,
      "hit": false,
      "t": 116999.88299999994,
      "d": 429.5450249999849,
      "v": 101
    },
    {
      "midi": 57,
      "hit": false,
      "t": 117272.60999999994,
      "d": 95.45444999999017,
      "v": 101
    },
    {
      "midi": 60,
      "hit": false,
      "t": 117545.33699999993,
      "d": 154.54529999999795,
      "v": 101
    },
    {
      "midi": 60,
      "hit": false,
      "t": 117818.06399999993,
      "d": 359.0905499999935,
      "v": 87
    },
    {
      "midi": 69,
      "hit": false,
      "t": 117818.06399999993,
      "d": 368.1814499999891,
      "v": 101
    },
    {
      "midi": 64,
      "hit": false,
      "t": 117818.06399999993,
      "d": 402.27232499998354,
      "v": 101
    },
    {
      "midi": 57,
      "hit": false,
      "t": 117818.06399999993,
      "d": 456.81772499998624,
      "v": 101
    },
    {
      "midi": 60,
      "hit": false,
      "t": 118363.51799999992,
      "d": 304.5451500000054,
      "v": 101
    },
    {
      "midi": 69,
      "hit": false,
      "t": 118363.51799999992,
      "d": 329.5451250000042,
      "v": 101
    },
    {
      "midi": 64,
      "hit": false,
      "t": 118363.51799999992,
      "d": 338.6360249999998,
      "v": 101
    },
    {
      "midi": 57,
      "hit": false,
      "t": 118636.24499999992,
      "d": 102.27262499999779,
      "v": 101
    },
    {
      "midi": 64,
      "hit": false,
      "t": 118908.97199999992,
      "d": 70.45447500000591,
      "v": 101
    },
    {
      "midi": 69,
      "hit": false,
      "t": 118908.97199999992,
      "d": 81.81810000000405,
      "v": 101
    },
    {
      "midi": 60,
      "hit": false,
      "t": 118908.97199999992,
      "d": 86.36355000000913,
      "v": 101
    },
    {
      "midi": 69,
      "hit": false,
      "t": 119181.69899999994,
      "d": 363.6359999999986,
      "v": 101
    },
    {
      "midi": 60,
      "hit": false,
      "t": 119181.69899999994,
      "d": 365.90872500000114,
      "v": 101
    },
    {
      "midi": 64,
      "hit": false,
      "t": 119181.69899999994,
      "d": 370.4541750000062,
      "v": 101
    },
    {
      "midi": 57,
      "hit": false,
      "t": 119454.42599999993,
      "d": 104.54535000000033,
      "v": 101
    },
    {
      "midi": 60,
      "hit": false,
      "t": 119727.15299999993,
      "d": 118.181700000001,
      "v": 101
    },
    {
      "midi": 64,
      "hit": false,
      "t": 119727.15299999993,
      "d": 134.09077500000421,
      "v": 101
    },
    {
      "midi": 69,
      "hit": false,
      "t": 119727.15299999993,
      "d": 161.36347500000556,
      "v": 101
    },
    {
      "midi": 52,
      "hit": false,
      "t": 119999.87999999995,
      "d": 511.3631250000035,
      "v": 101
    },
    {
      "midi": 67,
      "hit": false,
      "t": 120545.33399999994,
      "d": 336.36329999999725,
      "v": 101
    },
    {
      "midi": 64,
      "hit": false,
      "t": 120545.33399999994,
      "d": 343.1814749999903,
      "v": 101
    },
    {
      "midi": 71,
      "hit": false,
      "t": 120545.33399999994,
      "d": 343.1814749999903,
      "v": 101
    },
    {
      "midi": 52,
      "hit": false,
      "t": 120818.06099999994,
      "d": 120.45442499998899,
      "v": 101
    },
    {
      "midi": 62,
      "hit": false,
      "t": 121090.78799999993,
      "d": 65.90902500000084,
      "v": 101
    },
    {
      "midi": 69,
      "hit": false,
      "t": 121090.78799999993,
      "d": 65.90902500000084,
      "v": 101
    },
    {
      "midi": 66,
      "hit": false,
      "t": 121090.78799999993,
      "d": 84.09082500000659,
      "v": 101
    },
    {
      "midi": 64,
      "hit": false,
      "t": 121363.51499999994,
      "d": 381.81780000000435,
      "v": 101
    },
    {
      "midi": 71,
      "hit": false,
      "t": 121363.51499999994,
      "d": 393.1814250000025,
      "v": 101
    },
    {
      "midi": 67,
      "hit": false,
      "t": 121363.51499999994,
      "d": 402.2723249999981,
      "v": 101
    },
    {
      "midi": 52,
      "hit": false,
      "t": 121636.24199999994,
      "d": 220.4543249999988,
      "v": 101
    },
    {
      "midi": 64,
      "hit": false,
      "t": 121908.96899999994,
      "d": 84.09082500000659,
      "v": 101
    },
    {
      "midi": 67,
      "hit": false,
      "t": 121908.96899999994,
      "d": 90.90899999999965,
      "v": 101
    },
    {
      "midi": 71,
      "hit": false,
      "t": 121908.96899999994,
      "d": 109.0908000000054,
      "v": 101
    },
    {
      "midi": 62,
      "hit": false,
      "t": 122181.69599999994,
      "d": 84.09082500000659,
      "v": 101
    },
    {
      "midi": 69,
      "hit": false,
      "t": 122181.69599999994,
      "d": 95.45445000000473,
      "v": 101
    },
    {
      "midi": 66,
      "hit": false,
      "t": 122181.69599999994,
      "d": 106.81807500000286,
      "v": 101
    },
    {
      "midi": 54,
      "hit": false,
      "t": 122727.14999999994,
      "d": 1138.6352250000054,
      "v": 101
    },
    {
      "midi": 62,
      "hit": false,
      "t": 122727.14999999994,
      "d": 1145.4533999999985,
      "v": 101
    },
    {
      "midi": 66,
      "hit": false,
      "t": 122727.14999999994,
      "d": 1154.544299999994,
      "v": 101
    },
    {
      "midi": 69,
      "hit": false,
      "t": 122727.14999999994,
      "d": 1172.7260999999999,
      "v": 101
    },
    {
      "midi": 64,
      "hit": false,
      "t": 124363.51199999993,
      "d": 404.54505000000063,
      "v": 101
    },
    {
      "midi": 71,
      "hit": false,
      "t": 124363.51199999993,
      "d": 406.81777500000317,
      "v": 101
    },
    {
      "midi": 67,
      "hit": false,
      "t": 124363.51199999993,
      "d": 424.9995750000089,
      "v": 101
    },
    {
      "midi": 48,
      "hit": false,
      "t": 124363.51199999993,
      "d": 686.3629500000243,
      "v": 101
    },
    {
      "midi": 64,
      "hit": false,
      "t": 124908.96599999994,
      "d": 363.63600000001315,
      "v": 101
    },
    {
      "midi": 71,
      "hit": false,
      "t": 124908.96599999994,
      "d": 381.8178000000189,
      "v": 101
    },
    {
      "midi": 67,
      "hit": false,
      "t": 124908.96599999994,
      "d": 404.5450500000152,
      "v": 101
    },
    {
      "midi": 67,
      "hit": false,
      "t": 125454.41999999995,
      "d": 59.090849999993225,
      "v": 101
    },
    {
      "midi": 64,
      "hit": false,
      "t": 125454.41999999995,
      "d": 65.90902499998629,
      "v": 101
    },
    {
      "midi": 71,
      "hit": false,
      "t": 125454.41999999995,
      "d": 65.90902499998629,
      "v": 101
    },
    {
      "midi": 71,
      "hit": false,
      "t": 125727.14699999994,
      "d": 59.090849999993225,
      "v": 101
    },
    {
      "midi": 67,
      "hit": false,
      "t": 125727.14699999994,
      "d": 63.6362999999983,
      "v": 101
    },
    {
      "midi": 64,
      "hit": false,
      "t": 125727.14699999994,
      "d": 65.90902500000084,
      "v": 101
    },
    {
      "midi": 67,
      "hit": false,
      "t": 126272.60099999995,
      "d": 56.81812500000524,
      "v": 101
    },
    {
      "midi": 64,
      "hit": false,
      "t": 126272.60099999995,
      "d": 68.18175000000338,
      "v": 101
    },
    {
      "midi": 71,
      "hit": false,
      "t": 126272.60099999995,
      "d": 68.18175000000338,
      "v": 101
    },
    {
      "midi": 64,
      "hit": false,
      "t": 126545.32799999995,
      "d": 336.3632999999827,
      "v": 101
    },
    {
      "midi": 71,
      "hit": false,
      "t": 126545.32799999995,
      "d": 338.63602499998524,
      "v": 101
    },
    {
      "midi": 67,
      "hit": false,
      "t": 126545.32799999995,
      "d": 354.54509999998845,
      "v": 101
    },
    {
      "midi": 48,
      "hit": false,
      "t": 126545.32799999995,
      "d": 1074.9989249999635,
      "v": 101
    },
    {
      "midi": 71,
      "hit": false,
      "t": 127090.78199999993,
      "d": 413.6359499999962,
      "v": 101
    },
    {
      "midi": 64,
      "hit": false,
      "t": 127090.78199999993,
      "d": 420.4541249999893,
      "v": 101
    },
    {
      "midi": 67,
      "hit": false,
      "t": 127090.78199999993,
      "d": 427.27229999998235,
      "v": 101
    },
    {
      "midi": 55,
      "hit": false,
      "t": 127499.87249999992,
      "d": 70.45447499999136,
      "v": 87
    },
    {
      "midi": 67,
      "hit": false,
      "t": 127636.23599999992,
      "d": 59.090849999993225,
      "v": 101
    },
    {
      "midi": 71,
      "hit": false,
      "t": 127636.23599999992,
      "d": 65.90902499998629,
      "v": 101
    },
    {
      "midi": 64,
      "hit": false,
      "t": 127636.23599999992,
      "d": 68.18174999998882,
      "v": 101
    },
    {
      "midi": 64,
      "hit": false,
      "t": 127908.9629999999,
      "d": 336.36329999999725,
      "v": 101
    },
    {
      "midi": 67,
      "hit": false,
      "t": 127908.9629999999,
      "d": 356.817824999991,
      "v": 101
    },
    {
      "midi": 71,
      "hit": false,
      "t": 127908.9629999999,
      "d": 359.0905499999935,
      "v": 101
    },
    {
      "midi": 55,
      "hit": false,
      "t": 128181.6899999999,
      "d": 90.90899999999965,
      "v": 97
    },
    {
      "midi": 67,
      "hit": false,
      "t": 128454.41699999988,
      "d": 59.09085000000778,
      "v": 101
    },
    {
      "midi": 64,
      "hit": false,
      "t": 128454.41699999988,
      "d": 84.09082500000659,
      "v": 101
    },
    {
      "midi": 71,
      "hit": false,
      "t": 128454.41699999988,
      "d": 88.63627500001166,
      "v": 101
    },
    {
      "midi": 69,
      "hit": false,
      "t": 128727.14399999991,
      "d": 395.45415000000503,
      "v": 101
    },
    {
      "midi": 62,
      "hit": false,
      "t": 128727.14399999991,
      "d": 406.81777500000317,
      "v": 101
    },
    {
      "midi": 66,
      "hit": false,
      "t": 128727.14399999991,
      "d": 422.7268500000064,
      "v": 97
    },
    {
      "midi": 55,
      "hit": false,
      "t": 128727.14399999991,
      "d": 511.3631250000035,
      "v": 101
    },
    {
      "midi": 69,
      "hit": false,
      "t": 129272.59799999991,
      "d": 420.45412500000384,
      "v": 101
    },
    {
      "midi": 62,
      "hit": false,
      "t": 129272.59799999991,
      "d": 440.9086499999976,
      "v": 101
    },
    {
      "midi": 66,
      "hit": false,
      "t": 129408.96149999992,
      "d": 9.0908999999956,
      "v": 16
    },
    {
      "midi": 55,
      "hit": false,
      "t": 129818.05199999991,
      "d": 61.36357499999576,
      "v": 87
    },
    {
      "midi": 66,
      "hit": false,
      "t": 129818.05199999991,
      "d": 70.45447499999136,
      "v": 101
    },
    {
      "midi": 62,
      "hit": false,
      "t": 129818.05199999991,
      "d": 74.99992499999644,
      "v": 101
    },
    {
      "midi": 69,
      "hit": false,
      "t": 129818.05199999991,
      "d": 86.36354999999458,
      "v": 101
    },
    {
      "midi": 66,
      "hit": false,
      "t": 130090.77899999991,
      "d": 265.9088250000059,
      "v": 101
    },
    {
      "midi": 62,
      "hit": false,
      "t": 130090.77899999991,
      "d": 295.4542499999952,
      "v": 101
    },
    {
      "midi": 69,
      "hit": false,
      "t": 130090.77899999991,
      "d": 329.54512499998964,
      "v": 101
    },
    {
      "midi": 55,
      "hit": false,
      "t": 130363.5059999999,
      "d": 113.63624999998137,
      "v": 101
    },
    {
      "midi": 62,
      "hit": false,
      "t": 130636.23299999986,
      "d": 122.72715000000608,
      "v": 101
    },
    {
      "midi": 66,
      "hit": false,
      "t": 130636.23299999986,
      "d": 131.81805000000168,
      "v": 92
    },
    {
      "midi": 69,
      "hit": false,
      "t": 130636.23299999986,
      "d": 163.6362000000081,
      "v": 101
    },
    {
      "midi": 55,
      "hit": false,
      "t": 130908.95999999986,
      "d": 318.1815000000206,
      "v": 101
    },
    {
      "midi": 55,
      "hit": false,
      "t": 131318.0504999999,
      "d": 88.63627499999711,
      "v": 97
    },
    {
      "midi": 67,
      "hit": false,
      "t": 131454.4139999999,
      "d": 99.99989999999525,
      "v": 101
    },
    {
      "midi": 71,
      "hit": false,
      "t": 131454.4139999999,
      "d": 102.27262499998324,
      "v": 101
    },
    {
      "midi": 55,
      "hit": false,
      "t": 131727.1409999999,
      "d": 65.90902500000084,
      "v": 101
    },
    {
      "midi": 66,
      "hit": false,
      "t": 131727.1409999999,
      "d": 402.2723249999981,
      "v": 101
    },
    {
      "midi": 69,
      "hit": false,
      "t": 131727.1409999999,
      "d": 429.54502499999944,
      "v": 101
    },
    {
      "midi": 55,
      "hit": false,
      "t": 132272.59499999988,
      "d": 102.27262500001234,
      "v": 101
    },
    {
      "midi": 64,
      "hit": false,
      "t": 132545.3219999999,
      "d": 86.36355000000913,
      "v": 101
    },
    {
      "midi": 67,
      "hit": false,
      "t": 132545.3219999999,
      "d": 99.99989999999525,
      "v": 101
    },
    {
      "midi": 67,
      "hit": false,
      "t": 133090.7759999999,
      "d": 463.63590000002296,
      "v": 101
    },
    {
      "midi": 71,
      "hit": false,
      "t": 133090.7759999999,
      "d": 468.18135000002803,
      "v": 101
    },
    {
      "midi": 74,
      "hit": false,
      "t": 133090.7759999999,
      "d": 468.18135000002803,
      "v": 101
    },
    {
      "midi": 74,
      "hit": false,
      "t": 133636.22999999992,
      "d": 397.726874999993,
      "v": 101
    },
    {
      "midi": 67,
      "hit": false,
      "t": 133636.22999999992,
      "d": 404.5450499999861,
      "v": 97
    },
    {
      "midi": 71,
      "hit": false,
      "t": 133636.22999999992,
      "d": 411.36322499997914,
      "v": 101
    },
    {
      "midi": 71,
      "hit": false,
      "t": 134181.6839999999,
      "d": 61.36357499999576,
      "v": 101
    },
    {
      "midi": 74,
      "hit": false,
      "t": 134181.6839999999,
      "d": 65.90902500000084,
      "v": 101
    },
    {
      "midi": 67,
      "hit": false,
      "t": 134181.6839999999,
      "d": 77.27264999999898,
      "v": 97
    },
    {
      "midi": 71,
      "hit": false,
      "t": 134454.4109999999,
      "d": 309.090600000025,
      "v": 101
    },
    {
      "midi": 67,
      "hit": false,
      "t": 134454.4109999999,
      "d": 311.363325000013,
      "v": 101
    },
    {
      "midi": 74,
      "hit": false,
      "t": 134454.4109999999,
      "d": 311.363325000013,
      "v": 101
    },
    {
      "midi": 48,
      "hit": false,
      "t": 134727.13799999992,
      "d": 61.36357499999576,
      "v": 97
    },
    {
      "midi": 55,
      "hit": false,
      "t": 134727.13799999992,
      "d": 65.90902500000084,
      "v": 101
    },
    {
      "midi": 74,
      "hit": false,
      "t": 134999.86499999993,
      "d": 74.99992500001099,
      "v": 82
    },
    {
      "midi": 71,
      "hit": false,
      "t": 134999.86499999993,
      "d": 84.09082500002114,
      "v": 92
    },
    {
      "midi": 67,
      "hit": false,
      "t": 134999.86499999993,
      "d": 106.81807500001742,
      "v": 92
    },
    {
      "midi": 74,
      "hit": false,
      "t": 135272.59199999995,
      "d": 377.2723499999847,
      "v": 101
    },
    {
      "midi": 67,
      "hit": false,
      "t": 135272.59199999995,
      "d": 384.0905249999778,
      "v": 97
    },
    {
      "midi": 71,
      "hit": false,
      "t": 135272.59199999995,
      "d": 390.90869999997085,
      "v": 101
    },
    {
      "midi": 55,
      "hit": false,
      "t": 135272.59199999995,
      "d": 477.27224999998,
      "v": 101
    },
    {
      "midi": 48,
      "hit": false,
      "t": 135272.59199999995,
      "d": 488.6358749999781,
      "v": 101
    },
    {
      "midi": 74,
      "hit": false,
      "t": 135818.04599999991,
      "d": 315.90877499998896,
      "v": 101
    },
    {
      "midi": 71,
      "hit": false,
      "t": 135818.04599999991,
      "d": 327.2723999999871,
      "v": 101
    },
    {
      "midi": 67,
      "hit": false,
      "t": 135818.04599999991,
      "d": 331.8178499999922,
      "v": 101
    },
    {
      "midi": 71,
      "hit": false,
      "t": 136227.1364999999,
      "d": 43.18177500000456,
      "v": 101
    },
    {
      "midi": 74,
      "hit": false,
      "t": 136227.1364999999,
      "d": 49.999949999997625,
      "v": 101
    },
    {
      "midi": 67,
      "hit": false,
      "t": 136227.1364999999,
      "d": 61.36357499999576,
      "v": 77
    },
    {
      "midi": 71,
      "hit": false,
      "t": 136363.4999999999,
      "d": 68.18174999998882,
      "v": 101
    },
    {
      "midi": 67,
      "hit": false,
      "t": 136363.4999999999,
      "d": 86.36354999998002,
      "v": 73
    },
    {
      "midi": 74,
      "hit": false,
      "t": 136363.4999999999,
      "d": 95.45444999999017,
      "v": 101
    },
    {
      "midi": 67,
      "hit": false,
      "t": 136636.2269999999,
      "d": 315.90877499998896,
      "v": 101
    },
    {
      "midi": 74,
      "hit": false,
      "t": 136636.2269999999,
      "d": 340.9087500000023,
      "v": 101
    },
    {
      "midi": 71,
      "hit": false,
      "t": 136636.2269999999,
      "d": 347.7269249999954,
      "v": 101
    },
    {
      "midi": 71,
      "hit": false,
      "t": 137181.6809999999,
      "d": 47.72722500000964,
      "v": 97
    },
    {
      "midi": 74,
      "hit": false,
      "t": 137181.6809999999,
      "d": 63.63630000001285,
      "v": 101
    },
    {
      "midi": 67,
      "hit": false,
      "t": 137181.6809999999,
      "d": 84.09082500002114,
      "v": 101
    },
    {
      "midi": 64,
      "hit": false,
      "t": 137454.4079999999,
      "d": 349.9996500000125,
      "v": 101
    },
    {
      "midi": 57,
      "hit": false,
      "t": 137454.4079999999,
      "d": 363.6359999999986,
      "v": 101
    },
    {
      "midi": 60,
      "hit": false,
      "t": 137454.4079999999,
      "d": 372.72690000000875,
      "v": 101
    },
    {
      "midi": 45,
      "hit": false,
      "t": 137454.4079999999,
      "d": 656.8175249999913,
      "v": 101
    },
    {
      "midi": 55,
      "hit": false,
      "t": 137999.8619999999,
      "d": 331.8178499999922,
      "v": 101
    },
    {
      "midi": 64,
      "hit": false,
      "t": 137999.8619999999,
      "d": 352.27237500000047,
      "v": 101
    },
    {
      "midi": 60,
      "hit": false,
      "t": 137999.8619999999,
      "d": 356.81782500000554,
      "v": 101
    },
    {
      "midi": 45,
      "hit": false,
      "t": 138272.5889999999,
      "d": 188.63617500002147,
      "v": 101
    },
    {
      "midi": 60,
      "hit": false,
      "t": 138545.3159999999,
      "d": 65.90902500000084,
      "v": 101
    },
    {
      "midi": 64,
      "hit": false,
      "t": 138545.3159999999,
      "d": 77.27264999999898,
      "v": 101
    },
    {
      "midi": 57,
      "hit": false,
      "t": 138545.3159999999,
      "d": 81.81810000000405,
      "v": 101
    },
    {
      "midi": 57,
      "hit": false,
      "t": 138818.04299999992,
      "d": 340.9087500000023,
      "v": 101
    },
    {
      "midi": 60,
      "hit": false,
      "t": 138818.04299999992,
      "d": 359.0905499999935,
      "v": 101
    },
    {
      "midi": 64,
      "hit": false,
      "t": 138818.04299999992,
      "d": 384.0905250000069,
      "v": 101
    },
    {
      "midi": 45,
      "hit": false,
      "t": 139090.76999999993,
      "d": 136.36349999997765,
      "v": 101
    },
    {
      "midi": 62,
      "hit": false,
      "t": 139636.2239999999,
      "d": 156.81802499998594,
      "v": 101
    },
    {
      "midi": 69,
      "hit": false,
      "t": 139636.2239999999,
      "d": 156.81802499998594,
      "v": 101
    },
    {
      "midi": 66,
      "hit": false,
      "t": 139636.2239999999,
      "d": 165.9089249999961,
      "v": 101
    },
    {
      "midi": 62,
      "hit": false,
      "t": 139908.95099999988,
      "d": 138.63622499999474,
      "v": 101
    },
    {
      "midi": 66,
      "hit": false,
      "t": 139908.95099999988,
      "d": 149.99984999999288,
      "v": 101
    },
    {
      "midi": 69,
      "hit": false,
      "t": 139908.95099999988,
      "d": 154.54529999999795,
      "v": 101
    },
    {
      "midi": 62,
      "hit": false,
      "t": 140181.67799999987,
      "d": 138.63622499999474,
      "v": 101
    },
    {
      "midi": 66,
      "hit": false,
      "t": 140181.67799999987,
      "d": 145.4543999999878,
      "v": 101
    },
    {
      "midi": 69,
      "hit": false,
      "t": 140181.67799999987,
      "d": 149.99984999999288,
      "v": 101
    },
    {
      "midi": 62,
      "hit": false,
      "t": 140454.40499999985,
      "d": 124.99987500000861,
      "v": 101
    },
    {
      "midi": 66,
      "hit": false,
      "t": 140454.40499999985,
      "d": 129.5453250000137,
      "v": 101
    },
    {
      "midi": 59,
      "hit": false,
      "t": 140454.40499999985,
      "d": 143.1816749999998,
      "v": 101
    },
    {
      "midi": 69,
      "hit": false,
      "t": 140454.40499999985,
      "d": 152.27257500000997,
      "v": 101
    },
    {
      "midi": 64,
      "hit": false,
      "t": 141818.03999999986,
      "d": 334.09057500000927,
      "v": 101
    },
    {
      "midi": 71,
      "hit": false,
      "t": 141818.03999999986,
      "d": 343.1814750000194,
      "v": 101
    },
    {
      "midi": 52,
      "hit": false,
      "t": 141818.03999999986,
      "d": 345.4542000000074,
      "v": 101
    },
    {
      "midi": 67,
      "hit": false,
      "t": 141818.03999999986,
      "d": 354.54510000001756,
      "v": 101
    },
    {
      "midi": 64,
      "hit": false,
      "t": 142363.4939999999,
      "d": 313.636050000001,
      "v": 101
    },
    {
      "midi": 71,
      "hit": false,
      "t": 142363.4939999999,
      "d": 320.45422499999404,
      "v": 101
    },
    {
      "midi": 67,
      "hit": false,
      "t": 142363.4939999999,
      "d": 327.2723999999871,
      "v": 101
    },
    {
      "midi": 52,
      "hit": false,
      "t": 142636.2209999999,
      "d": 88.63627499996801,
      "v": 101
    },
    {
      "midi": 67,
      "hit": false,
      "t": 142908.94799999986,
      "d": 59.09085000000778,
      "v": 101
    },
    {
      "midi": 64,
      "hit": false,
      "t": 142908.94799999986,
      "d": 61.36357499999576,
      "v": 101
    },
    {
      "midi": 71,
      "hit": false,
      "t": 142908.94799999986,
      "d": 63.63629999998375,
      "v": 101
    },
    {
      "midi": 64,
      "hit": false,
      "t": 143181.67499999984,
      "d": 361.3632750000106,
      "v": 101
    },
    {
      "midi": 67,
      "hit": false,
      "t": 143181.67499999984,
      "d": 374.99962499999674,
      "v": 101
    },
    {
      "midi": 71,
      "hit": false,
      "t": 143181.67499999984,
      "d": 377.2723499999847,
      "v": 101
    },
    {
      "midi": 52,
      "hit": false,
      "t": 143454.40199999986,
      "d": 99.99989999999525,
      "v": 101
    },
    {
      "midi": 67,
      "hit": false,
      "t": 143727.12899999984,
      "d": 81.81810000000405,
      "v": 101
    },
    {
      "midi": 64,
      "hit": false,
      "t": 143727.12899999984,
      "d": 95.45444999999017,
      "v": 101
    },
    {
      "midi": 71,
      "hit": false,
      "t": 143727.12899999984,
      "d": 102.27262499998324,
      "v": 101
    },
    {
      "midi": 62,
      "hit": false,
      "t": 143999.85599999983,
      "d": 379.5450750000018,
      "v": 101
    },
    {
      "midi": 71,
      "hit": false,
      "t": 143999.85599999983,
      "d": 381.8177999999898,
      "v": 101
    },
    {
      "midi": 66,
      "hit": false,
      "t": 143999.85599999983,
      "d": 402.2723249999981,
      "v": 101
    },
    {
      "midi": 71,
      "hit": false,
      "t": 144545.30999999982,
      "d": 397.7268750000221,
      "v": 101
    },
    {
      "midi": 62,
      "hit": false,
      "t": 144545.30999999982,
      "d": 406.81777500003227,
      "v": 101
    },
    {
      "midi": 66,
      "hit": false,
      "t": 144545.30999999982,
      "d": 424.99957500002347,
      "v": 101
    },
    {
      "midi": 62,
      "hit": false,
      "t": 145090.76399999985,
      "d": 43.18177500000456,
      "v": 63
    },
    {
      "midi": 71,
      "hit": false,
      "t": 145090.76399999985,
      "d": 43.18177500000456,
      "v": 71
    },
    {
      "midi": 66,
      "hit": false,
      "t": 145090.76399999985,
      "d": 56.81812499999069,
      "v": 82
    },
    {
      "midi": 60,
      "hit": false,
      "t": 145363.49099999983,
      "d": 109.0908000000054,
      "v": 87
    },
    {
      "midi": 62,
      "hit": false,
      "t": 145363.49099999983,
      "d": 359.0905499999935,
      "v": 92
    },
    {
      "midi": 71,
      "hit": false,
      "t": 145363.49099999983,
      "d": 370.45417499999166,
      "v": 101
    },
    {
      "midi": 66,
      "hit": false,
      "t": 145363.49099999983,
      "d": 393.18142499998794,
      "v": 101
    },
    {
      "midi": 62,
      "hit": false,
      "t": 145908.94499999983,
      "d": 86.36355000000913,
      "v": 101
    },
    {
      "midi": 71,
      "hit": false,
      "t": 145908.94499999983,
      "d": 99.99989999999525,
      "v": 101
    },
    {
      "midi": 66,
      "hit": false,
      "t": 145908.94499999983,
      "d": 102.27262499998324,
      "v": 101
    },
    {
      "midi": 64,
      "hit": false,
      "t": 146181.67199999982,
      "d": 324.9996749999991,
      "v": 101
    },
    {
      "midi": 71,
      "hit": false,
      "t": 146181.67199999982,
      "d": 345.4542000000074,
      "v": 101
    },
    {
      "midi": 67,
      "hit": false,
      "t": 146181.67199999982,
      "d": 363.6359999999986,
      "v": 101
    },
    {
      "midi": 60,
      "hit": false,
      "t": 146181.67199999982,
      "d": 472.726800000004,
      "v": 101
    },
    {
      "midi": 64,
      "hit": false,
      "t": 146727.12599999981,
      "d": 413.6359499999962,
      "v": 101
    },
    {
      "midi": 71,
      "hit": false,
      "t": 146727.12599999981,
      "d": 418.1814000000013,
      "v": 101
    },
    {
      "midi": 67,
      "hit": false,
      "t": 146727.12599999981,
      "d": 427.27230000001146,
      "v": 101
    },
    {
      "midi": 60,
      "hit": false,
      "t": 147136.2164999998,
      "d": 72.727200000023,
      "v": 101
    },
    {
      "midi": 67,
      "hit": false,
      "t": 147272.57999999984,
      "d": 65.90902500000084,
      "v": 101
    },
    {
      "midi": 71,
      "hit": false,
      "t": 147272.57999999984,
      "d": 65.90902500000084,
      "v": 101
    },
    {
      "midi": 64,
      "hit": false,
      "t": 147272.57999999984,
      "d": 70.45447500000591,
      "v": 101
    },
    {
      "midi": 64,
      "hit": false,
      "t": 147545.30699999986,
      "d": 518.1812999999966,
      "v": 101
    },
    {
      "midi": 71,
      "hit": false,
      "t": 147545.30699999986,
      "d": 529.5449249999947,
      "v": 101
    },
    {
      "midi": 67,
      "hit": false,
      "t": 147545.30699999986,
      "d": 534.0903749999998,
      "v": 101
    },
    {
      "midi": 60,
      "hit": false,
      "t": 148090.76099999985,
      "d": 79.54537499998696,
      "v": 101
    },
    {
      "midi": 64,
      "hit": false,
      "t": 148363.48799999984,
      "d": 331.8178499999922,
      "v": 87
    },
    {
      "midi": 71,
      "hit": false,
      "t": 148363.48799999984,
      "d": 354.54509999998845,
      "v": 101
    },
    {
      "midi": 67,
      "hit": false,
      "t": 148363.48799999984,
      "d": 365.9087249999866,
      "v": 101
    },
    {
      "midi": 60,
      "hit": false,
      "t": 148363.48799999984,
      "d": 436.3631999999925,
      "v": 101
    },
    {
      "midi": 64,
      "hit": false,
      "t": 148908.94199999984,
      "d": 288.6360750000167,
      "v": 101
    },
    {
      "midi": 67,
      "hit": false,
      "t": 148908.94199999984,
      "d": 304.54515000001993,
      "v": 101
    },
    {
      "midi": 71,
      "hit": false,
      "t": 148908.94199999984,
      "d": 309.090600000025,
      "v": 101
    },
    {
      "midi": 60,
      "hit": false,
      "t": 149181.66899999985,
      "d": 86.36355000000913,
      "v": 101
    },
    {
      "midi": 67,
      "hit": false,
      "t": 149454.39599999986,
      "d": 65.90902500000084,
      "v": 101
    },
    {
      "midi": 64,
      "hit": false,
      "t": 149454.39599999986,
      "d": 68.18174999998882,
      "v": 101
    },
    {
      "midi": 71,
      "hit": false,
      "t": 149454.39599999986,
      "d": 68.18174999998882,
      "v": 101
    },
    {
      "midi": 64,
      "hit": false,
      "t": 149727.12299999985,
      "d": 402.2723249999981,
      "v": 101
    },
    {
      "midi": 71,
      "hit": false,
      "t": 149727.12299999985,
      "d": 409.09049999999115,
      "v": 101
    },
    {
      "midi": 67,
      "hit": false,
      "t": 149727.12299999985,
      "d": 418.1814000000013,
      "v": 101
    },
    {
      "midi": 67,
      "hit": false,
      "t": 150272.57699999984,
      "d": 72.727200000023,
      "v": 101
    },
    {
      "midi": 71,
      "hit": false,
      "t": 150272.57699999984,
      "d": 79.54537500001607,
      "v": 101
    },
    {
      "midi": 64,
      "hit": false,
      "t": 150272.57699999984,
      "d": 95.45445000001928,
      "v": 97
    },
    {
      "midi": 60,
      "hit": false,
      "t": 150545.30399999986,
      "d": 422.7268500000064,
      "v": 101
    },
    {
      "midi": 64,
      "hit": false,
      "t": 150545.30399999986,
      "d": 436.3631999999925,
      "v": 101
    },
    {
      "midi": 67,
      "hit": false,
      "t": 150545.30399999986,
      "d": 438.6359249999805,
      "v": 101
    },
    {
      "midi": 57,
      "hit": false,
      "t": 151090.75799999983,
      "d": 120.45442500000354,
      "v": 101
    },
    {
      "midi": 60,
      "hit": false,
      "t": 151090.75799999983,
      "d": 381.8177999999898,
      "v": 92
    },
    {
      "midi": 67,
      "hit": false,
      "t": 151090.75799999983,
      "d": 384.0905249999778,
      "v": 101
    },
    {
      "midi": 64,
      "hit": false,
      "t": 151090.75799999983,
      "d": 388.63597499998286,
      "v": 101
    },
    {
      "midi": 64,
      "hit": false,
      "t": 151636.2119999998,
      "d": 74.99992500001099,
      "v": 101
    },
    {
      "midi": 60,
      "hit": false,
      "t": 151636.2119999998,
      "d": 84.09082500002114,
      "v": 101
    },
    {
      "midi": 67,
      "hit": false,
      "t": 151636.2119999998,
      "d": 90.9090000000142,
      "v": 101
    },
    {
      "midi": 60,
      "hit": false,
      "t": 151908.9389999998,
      "d": 347.7269250000245,
      "v": 97
    },
    {
      "midi": 64,
      "hit": false,
      "t": 151908.9389999998,
      "d": 390.90870000002906,
      "v": 101
    },
    {
      "midi": 67,
      "hit": false,
      "t": 151908.9389999998,
      "d": 429.54502500002855,
      "v": 101
    },
    {
      "midi": 57,
      "hit": false,
      "t": 152181.66599999982,
      "d": 95.45445000001928,
      "v": 101
    },
    {
      "midi": 60,
      "hit": false,
      "t": 152454.39299999984,
      "d": 154.54529999999795,
      "v": 101
    },
    {
      "midi": 60,
      "hit": false,
      "t": 152727.11999999982,
      "d": 359.0905499999935,
      "v": 87
    },
    {
      "midi": 69,
      "hit": false,
      "t": 152727.11999999982,
      "d": 368.1814499999746,
      "v": 101
    },
    {
      "midi": 64,
      "hit": false,
      "t": 152727.11999999982,
      "d": 402.272324999969,
      "v": 101
    },
    {
      "midi": 57,
      "hit": false,
      "t": 152727.11999999982,
      "d": 456.8177249999717,
      "v": 101
    },
    {
      "midi": 60,
      "hit": false,
      "t": 153272.5739999998,
      "d": 304.54515000001993,
      "v": 101
    },
    {
      "midi": 69,
      "hit": false,
      "t": 153272.5739999998,
      "d": 329.5451250000333,
      "v": 101
    },
    {
      "midi": 64,
      "hit": false,
      "t": 153272.5739999998,
      "d": 338.63602500004345,
      "v": 101
    },
    {
      "midi": 57,
      "hit": false,
      "t": 153545.3009999998,
      "d": 102.27262500004144,
      "v": 101
    },
    {
      "midi": 64,
      "hit": false,
      "t": 153818.02799999985,
      "d": 70.45447500000591,
      "v": 101
    },
    {
      "midi": 69,
      "hit": false,
      "t": 153818.02799999985,
      "d": 81.81810000000405,
      "v": 101
    },
    {
      "midi": 60,
      "hit": false,
      "t": 153818.02799999985,
      "d": 86.36355000000913,
      "v": 101
    },
    {
      "midi": 69,
      "hit": false,
      "t": 154090.75499999986,
      "d": 363.6360000000277,
      "v": 101
    },
    {
      "midi": 60,
      "hit": false,
      "t": 154090.75499999986,
      "d": 365.9087250000157,
      "v": 101
    },
    {
      "midi": 64,
      "hit": false,
      "t": 154090.75499999986,
      "d": 370.45417500002077,
      "v": 101
    },
    {
      "midi": 57,
      "hit": false,
      "t": 154363.48199999987,
      "d": 104.54535000000033,
      "v": 101
    },
    {
      "midi": 60,
      "hit": false,
      "t": 154636.20899999986,
      "d": 118.18169999998645,
      "v": 101
    },
    {
      "midi": 64,
      "hit": false,
      "t": 154636.20899999986,
      "d": 134.09077499998966,
      "v": 101
    },
    {
      "midi": 69,
      "hit": false,
      "t": 154636.20899999986,
      "d": 161.363474999991,
      "v": 101
    },
    {
      "midi": 52,
      "hit": false,
      "t": 154908.93599999984,
      "d": 556.817624999996,
      "v": 101
    },
    {
      "midi": 67,
      "hit": false,
      "t": 155454.38999999984,
      "d": 256.8179249999812,
      "v": 101
    },
    {
      "midi": 71,
      "hit": false,
      "t": 155454.38999999984,
      "d": 270.4542749999673,
      "v": 101
    },
    {
      "midi": 64,
      "hit": false,
      "t": 155454.38999999984,
      "d": 293.1815249999636,
      "v": 101
    },
    {
      "midi": 52,
      "hit": false,
      "t": 155727.1169999998,
      "d": 106.81807500001742,
      "v": 101
    },
    {
      "midi": 62,
      "hit": false,
      "t": 155999.84399999984,
      "d": 115.90897499999846,
      "v": 101
    },
    {
      "midi": 66,
      "hit": false,
      "t": 155999.84399999984,
      "d": 124.99987500000861,
      "v": 101
    },
    {
      "midi": 69,
      "hit": false,
      "t": 155999.84399999984,
      "d": 124.99987500000861,
      "v": 101
    },
    {
      "midi": 64,
      "hit": false,
      "t": 156272.57099999985,
      "d": 404.5450500000152,
      "v": 101
    },
    {
      "midi": 67,
      "hit": false,
      "t": 156272.57099999985,
      "d": 413.63595000002533,
      "v": 101
    },
    {
      "midi": 71,
      "hit": false,
      "t": 156272.57099999985,
      "d": 418.1814000000304,
      "v": 101
    },
    {
      "midi": 52,
      "hit": false,
      "t": 156545.29799999986,
      "d": 265.90882500002044,
      "v": 101
    },
    {
      "midi": 67,
      "hit": false,
      "t": 156818.02499999988,
      "d": 159.09074999997392,
      "v": 101
    },
    {
      "midi": 71,
      "hit": false,
      "t": 156818.02499999988,
      "d": 172.72709999996005,
      "v": 101
    },
    {
      "midi": 64,
      "hit": false,
      "t": 156818.02499999988,
      "d": 177.27254999996512,
      "v": 101
    },
    {
      "midi": 62,
      "hit": false,
      "t": 157636.20599999986,
      "d": 402.2723249999981,
      "v": 101
    },
    {
      "midi": 69,
      "hit": false,
      "t": 157636.20599999986,
      "d": 406.81777500000317,
      "v": 101
    },
    {
      "midi": 66,
      "hit": false,
      "t": 157636.20599999986,
      "d": 420.4541249999893,
      "v": 101
    },
    {
      "midi": 66,
      "hit": false,
      "t": 158181.65999999986,
      "d": 61.36357499999576,
      "v": 101
    },
    {
      "midi": 62,
      "hit": false,
      "t": 158181.65999999986,
      "d": 70.45447500000591,
      "v": 101
    },
    {
      "midi": 69,
      "hit": false,
      "t": 158181.65999999986,
      "d": 70.45447500000591,
      "v": 101
    },
    {
      "midi": 62,
      "hit": false,
      "t": 158454.38699999987,
      "d": 424.99957499999437,
      "v": 101
    },
    {
      "midi": 66,
      "hit": false,
      "t": 158454.38699999987,
      "d": 436.3631999999925,
      "v": 101
    },
    {
      "midi": 69,
      "hit": false,
      "t": 158454.38699999987,
      "d": 436.3631999999925,
      "v": 101
    },
    {
      "midi": 62,
      "hit": false,
      "t": 158999.84099999987,
      "d": 81.81810000000405,
      "v": 101
    },
    {
      "midi": 66,
      "hit": false,
      "t": 158999.84099999987,
      "d": 88.63627499999711,
      "v": 101
    },
    {
      "midi": 69,
      "hit": false,
      "t": 158999.84099999987,
      "d": 104.54535000000033,
      "v": 101
    },
    {
      "midi": 64,
      "hit": false,
      "t": 159272.56799999988,
      "d": 334.09057500000927,
      "v": 101
    },
    {
      "midi": 71,
      "hit": false,
      "t": 159272.56799999988,
      "d": 343.1814750000194,
      "v": 101
    },
    {
      "midi": 52,
      "hit": false,
      "t": 159272.56799999988,
      "d": 345.4542000000074,
      "v": 101
    },
    {
      "midi": 67,
      "hit": false,
      "t": 159272.56799999988,
      "d": 354.54510000001756,
      "v": 101
    },
    {
      "midi": 64,
      "hit": false,
      "t": 159818.0219999999,
      "d": 313.636050000001,
      "v": 101
    },
    {
      "midi": 71,
      "hit": false,
      "t": 159818.0219999999,
      "d": 320.45422499999404,
      "v": 101
    },
    {
      "midi": 67,
      "hit": false,
      "t": 159818.0219999999,
      "d": 327.2723999999871,
      "v": 101
    },
    {
      "midi": 52,
      "hit": false,
      "t": 160090.74899999992,
      "d": 88.63627499996801,
      "v": 101
    },
    {
      "midi": 67,
      "hit": false,
      "t": 160363.47599999988,
      "d": 59.09085000000778,
      "v": 101
    },
    {
      "midi": 64,
      "hit": false,
      "t": 160363.47599999988,
      "d": 61.36357499999576,
      "v": 101
    },
    {
      "midi": 71,
      "hit": false,
      "t": 160363.47599999988,
      "d": 63.63629999998375,
      "v": 101
    },
    {
      "midi": 64,
      "hit": false,
      "t": 160636.20299999986,
      "d": 361.3632750000106,
      "v": 101
    },
    {
      "midi": 67,
      "hit": false,
      "t": 160636.20299999986,
      "d": 374.99962499999674,
      "v": 101
    },
    {
      "midi": 71,
      "hit": false,
      "t": 160636.20299999986,
      "d": 377.2723499999847,
      "v": 101
    },
    {
      "midi": 52,
      "hit": false,
      "t": 160908.92999999988,
      "d": 99.99989999999525,
      "v": 101
    },
    {
      "midi": 67,
      "hit": false,
      "t": 161181.65699999986,
      "d": 81.81810000000405,
      "v": 101
    },
    {
      "midi": 64,
      "hit": false,
      "t": 161181.65699999986,
      "d": 95.45444999999017,
      "v": 101
    },
    {
      "midi": 71,
      "hit": false,
      "t": 161181.65699999986,
      "d": 102.27262499998324,
      "v": 101
    },
    {
      "midi": 62,
      "hit": false,
      "t": 161454.38399999985,
      "d": 379.5450750000018,
      "v": 101
    },
    {
      "midi": 71,
      "hit": false,
      "t": 161454.38399999985,
      "d": 381.8177999999898,
      "v": 101
    },
    {
      "midi": 66,
      "hit": false,
      "t": 161454.38399999985,
      "d": 402.2723249999981,
      "v": 101
    },
    {
      "midi": 71,
      "hit": false,
      "t": 161999.83799999984,
      "d": 397.7268750000221,
      "v": 101
    },
    {
      "midi": 62,
      "hit": false,
      "t": 161999.83799999984,
      "d": 406.81777500003227,
      "v": 101
    },
    {
      "midi": 66,
      "hit": false,
      "t": 161999.83799999984,
      "d": 424.99957500002347,
      "v": 101
    },
    {
      "midi": 62,
      "hit": false,
      "t": 162545.29199999987,
      "d": 43.18177500000456,
      "v": 63
    },
    {
      "midi": 71,
      "hit": false,
      "t": 162545.29199999987,
      "d": 43.18177500000456,
      "v": 71
    },
    {
      "midi": 66,
      "hit": false,
      "t": 162545.29199999987,
      "d": 56.81812499999069,
      "v": 82
    },
    {
      "midi": 60,
      "hit": false,
      "t": 162818.01899999985,
      "d": 109.0908000000054,
      "v": 87
    },
    {
      "midi": 62,
      "hit": false,
      "t": 162818.01899999985,
      "d": 359.0905499999935,
      "v": 92
    },
    {
      "midi": 71,
      "hit": false,
      "t": 162818.01899999985,
      "d": 370.45417499999166,
      "v": 101
    },
    {
      "midi": 66,
      "hit": false,
      "t": 162818.01899999985,
      "d": 393.18142499998794,
      "v": 101
    },
    {
      "midi": 62,
      "hit": false,
      "t": 163363.47299999985,
      "d": 86.36355000000913,
      "v": 101
    },
    {
      "midi": 71,
      "hit": false,
      "t": 163363.47299999985,
      "d": 99.99989999999525,
      "v": 101
    },
    {
      "midi": 66,
      "hit": false,
      "t": 163363.47299999985,
      "d": 102.27262499998324,
      "v": 101
    },
    {
      "midi": 64,
      "hit": false,
      "t": 163636.19999999984,
      "d": 324.9996749999991,
      "v": 101
    },
    {
      "midi": 71,
      "hit": false,
      "t": 163636.19999999984,
      "d": 345.4542000000074,
      "v": 101
    },
    {
      "midi": 67,
      "hit": false,
      "t": 163636.19999999984,
      "d": 363.6359999999986,
      "v": 101
    },
    {
      "midi": 60,
      "hit": false,
      "t": 163636.19999999984,
      "d": 472.726800000004,
      "v": 101
    },
    {
      "midi": 64,
      "hit": false,
      "t": 164181.65399999983,
      "d": 413.6359499999962,
      "v": 101
    },
    {
      "midi": 71,
      "hit": false,
      "t": 164181.65399999983,
      "d": 418.1814000000013,
      "v": 101
    },
    {
      "midi": 67,
      "hit": false,
      "t": 164181.65399999983,
      "d": 427.27230000001146,
      "v": 101
    },
    {
      "midi": 60,
      "hit": false,
      "t": 164590.74449999983,
      "d": 72.727200000023,
      "v": 101
    },
    {
      "midi": 67,
      "hit": false,
      "t": 164727.10799999986,
      "d": 65.90902500000084,
      "v": 101
    },
    {
      "midi": 71,
      "hit": false,
      "t": 164727.10799999986,
      "d": 65.90902500000084,
      "v": 101
    },
    {
      "midi": 64,
      "hit": false,
      "t": 164727.10799999986,
      "d": 70.45447500000591,
      "v": 101
    },
    {
      "midi": 64,
      "hit": false,
      "t": 164999.83499999988,
      "d": 518.1812999999966,
      "v": 101
    },
    {
      "midi": 71,
      "hit": false,
      "t": 164999.83499999988,
      "d": 529.5449249999947,
      "v": 101
    },
    {
      "midi": 67,
      "hit": false,
      "t": 164999.83499999988,
      "d": 534.0903749999998,
      "v": 101
    },
    {
      "midi": 60,
      "hit": false,
      "t": 165545.28899999987,
      "d": 79.54537499998696,
      "v": 101
    },
    {
      "midi": 64,
      "hit": false,
      "t": 165818.01599999986,
      "d": 331.8178499999922,
      "v": 87
    },
    {
      "midi": 71,
      "hit": false,
      "t": 165818.01599999986,
      "d": 354.54509999998845,
      "v": 101
    },
    {
      "midi": 67,
      "hit": false,
      "t": 165818.01599999986,
      "d": 365.9087249999866,
      "v": 101
    },
    {
      "midi": 60,
      "hit": false,
      "t": 165818.01599999986,
      "d": 436.3631999999925,
      "v": 101
    },
    {
      "midi": 64,
      "hit": false,
      "t": 166363.46999999986,
      "d": 288.6360750000167,
      "v": 101
    },
    {
      "midi": 67,
      "hit": false,
      "t": 166363.46999999986,
      "d": 304.54515000001993,
      "v": 101
    },
    {
      "midi": 71,
      "hit": false,
      "t": 166363.46999999986,
      "d": 309.090600000025,
      "v": 101
    },
    {
      "midi": 60,
      "hit": false,
      "t": 166636.19699999987,
      "d": 86.36355000000913,
      "v": 101
    },
    {
      "midi": 67,
      "hit": false,
      "t": 166908.92399999988,
      "d": 65.90902500000084,
      "v": 101
    },
    {
      "midi": 64,
      "hit": false,
      "t": 166908.92399999988,
      "d": 68.18174999998882,
      "v": 101
    },
    {
      "midi": 71,
      "hit": false,
      "t": 166908.92399999988,
      "d": 68.18174999998882,
      "v": 101
    },
    {
      "midi": 64,
      "hit": false,
      "t": 167181.65099999987,
      "d": 402.2723249999981,
      "v": 101
    },
    {
      "midi": 71,
      "hit": false,
      "t": 167181.65099999987,
      "d": 409.09049999999115,
      "v": 101
    },
    {
      "midi": 67,
      "hit": false,
      "t": 167181.65099999987,
      "d": 418.1814000000013,
      "v": 101
    },
    {
      "midi": 67,
      "hit": false,
      "t": 167727.10499999986,
      "d": 72.727200000023,
      "v": 101
    },
    {
      "midi": 71,
      "hit": false,
      "t": 167727.10499999986,
      "d": 79.54537500001607,
      "v": 101
    },
    {
      "midi": 64,
      "hit": false,
      "t": 167727.10499999986,
      "d": 95.45445000001928,
      "v": 97
    },
    {
      "midi": 60,
      "hit": false,
      "t": 167999.83199999988,
      "d": 422.7268500000064,
      "v": 101
    },
    {
      "midi": 64,
      "hit": false,
      "t": 167999.83199999988,
      "d": 436.3631999999925,
      "v": 101
    },
    {
      "midi": 67,
      "hit": false,
      "t": 167999.83199999988,
      "d": 438.6359249999805,
      "v": 101
    },
    {
      "midi": 57,
      "hit": false,
      "t": 168545.28599999985,
      "d": 120.45442500000354,
      "v": 101
    },
    {
      "midi": 60,
      "hit": false,
      "t": 168545.28599999985,
      "d": 381.8177999999898,
      "v": 92
    },
    {
      "midi": 67,
      "hit": false,
      "t": 168545.28599999985,
      "d": 384.0905249999778,
      "v": 101
    },
    {
      "midi": 64,
      "hit": false,
      "t": 168545.28599999985,
      "d": 388.63597499998286,
      "v": 101
    },
    {
      "midi": 64,
      "hit": false,
      "t": 169090.73999999982,
      "d": 74.99992500001099,
      "v": 101
    },
    {
      "midi": 60,
      "hit": false,
      "t": 169090.73999999982,
      "d": 84.09082500002114,
      "v": 101
    },
    {
      "midi": 67,
      "hit": false,
      "t": 169090.73999999982,
      "d": 90.9090000000142,
      "v": 101
    },
    {
      "midi": 60,
      "hit": false,
      "t": 169363.46699999983,
      "d": 347.7269250000245,
      "v": 97
    },
    {
      "midi": 64,
      "hit": false,
      "t": 169363.46699999983,
      "d": 390.90870000002906,
      "v": 101
    },
    {
      "midi": 67,
      "hit": false,
      "t": 169363.46699999983,
      "d": 429.54502500002855,
      "v": 101
    },
    {
      "midi": 57,
      "hit": false,
      "t": 169636.19399999984,
      "d": 95.45445000001928,
      "v": 101
    },
    {
      "midi": 60,
      "hit": false,
      "t": 169908.92099999986,
      "d": 154.54529999999795,
      "v": 101
    },
    {
      "midi": 60,
      "hit": false,
      "t": 170181.64799999984,
      "d": 359.0905499999935,
      "v": 87
    },
    {
      "midi": 69,
      "hit": false,
      "t": 170181.64799999984,
      "d": 368.1814499999746,
      "v": 101
    },
    {
      "midi": 64,
      "hit": false,
      "t": 170181.64799999984,
      "d": 402.272324999969,
      "v": 101
    },
    {
      "midi": 57,
      "hit": false,
      "t": 170181.64799999984,
      "d": 456.8177249999717,
      "v": 101
    },
    {
      "midi": 60,
      "hit": false,
      "t": 170727.1019999998,
      "d": 304.54515000001993,
      "v": 101
    },
    {
      "midi": 69,
      "hit": false,
      "t": 170727.1019999998,
      "d": 329.5451250000333,
      "v": 101
    },
    {
      "midi": 64,
      "hit": false,
      "t": 170727.1019999998,
      "d": 338.63602500004345,
      "v": 101
    },
    {
      "midi": 57,
      "hit": false,
      "t": 170999.82899999982,
      "d": 102.27262500004144,
      "v": 101
    },
    {
      "midi": 64,
      "hit": false,
      "t": 171272.55599999987,
      "d": 70.45447500000591,
      "v": 101
    },
    {
      "midi": 69,
      "hit": false,
      "t": 171272.55599999987,
      "d": 81.81810000000405,
      "v": 101
    },
    {
      "midi": 60,
      "hit": false,
      "t": 171272.55599999987,
      "d": 86.36355000000913,
      "v": 101
    },
    {
      "midi": 69,
      "hit": false,
      "t": 171545.28299999988,
      "d": 363.6360000000277,
      "v": 101
    },
    {
      "midi": 60,
      "hit": false,
      "t": 171545.28299999988,
      "d": 365.9087250000157,
      "v": 101
    },
    {
      "midi": 64,
      "hit": false,
      "t": 171545.28299999988,
      "d": 370.45417500002077,
      "v": 101
    },
    {
      "midi": 57,
      "hit": false,
      "t": 171818.0099999999,
      "d": 104.54535000000033,
      "v": 101
    },
    {
      "midi": 60,
      "hit": false,
      "t": 172090.73699999988,
      "d": 118.18169999998645,
      "v": 101
    },
    {
      "midi": 64,
      "hit": false,
      "t": 172090.73699999988,
      "d": 134.09077499998966,
      "v": 101
    },
    {
      "midi": 69,
      "hit": false,
      "t": 172090.73699999988,
      "d": 161.363474999991,
      "v": 101
    },
    {
      "midi": 52,
      "hit": false,
      "t": 172363.46399999986,
      "d": 511.3631250000035,
      "v": 101
    },
    {
      "midi": 67,
      "hit": false,
      "t": 172908.91799999986,
      "d": 336.36330000002636,
      "v": 101
    },
    {
      "midi": 64,
      "hit": false,
      "t": 172908.91799999986,
      "d": 343.1814750000194,
      "v": 101
    },
    {
      "midi": 71,
      "hit": false,
      "t": 172908.91799999986,
      "d": 343.1814750000194,
      "v": 101
    },
    {
      "midi": 52,
      "hit": false,
      "t": 173181.64499999987,
      "d": 120.45442500000354,
      "v": 101
    },
    {
      "midi": 62,
      "hit": false,
      "t": 173454.3719999999,
      "d": 65.90902500000084,
      "v": 101
    },
    {
      "midi": 69,
      "hit": false,
      "t": 173454.3719999999,
      "d": 65.90902500000084,
      "v": 101
    },
    {
      "midi": 66,
      "hit": false,
      "t": 173454.3719999999,
      "d": 84.09082499999204,
      "v": 101
    },
    {
      "midi": 64,
      "hit": false,
      "t": 173727.09899999987,
      "d": 381.8178000000189,
      "v": 101
    },
    {
      "midi": 71,
      "hit": false,
      "t": 173727.09899999987,
      "d": 393.18142500001704,
      "v": 101
    },
    {
      "midi": 67,
      "hit": false,
      "t": 173727.09899999987,
      "d": 402.2723250000272,
      "v": 101
    },
    {
      "midi": 52,
      "hit": false,
      "t": 173999.82599999988,
      "d": 220.4543250000279,
      "v": 101
    },
    {
      "midi": 64,
      "hit": false,
      "t": 174272.55299999993,
      "d": 84.09082499999204,
      "v": 101
    },
    {
      "midi": 67,
      "hit": false,
      "t": 174272.55299999993,
      "d": 90.9089999999851,
      "v": 101
    },
    {
      "midi": 71,
      "hit": false,
      "t": 174272.55299999993,
      "d": 109.0907999999763,
      "v": 101
    },
    {
      "midi": 62,
      "hit": false,
      "t": 174545.27999999988,
      "d": 84.09082499999204,
      "v": 101
    },
    {
      "midi": 69,
      "hit": false,
      "t": 174545.27999999988,
      "d": 95.45444999999017,
      "v": 101
    },
    {
      "midi": 66,
      "hit": false,
      "t": 174545.27999999988,
      "d": 106.81807499998831,
      "v": 101
    },
    {
      "midi": 54,
      "hit": false,
      "t": 175090.73399999988,
      "d": 1138.6352250000054,
      "v": 101
    },
    {
      "midi": 62,
      "hit": false,
      "t": 175090.73399999988,
      "d": 1145.4533999999985,
      "v": 101
    },
    {
      "midi": 66,
      "hit": false,
      "t": 175090.73399999988,
      "d": 1154.5443000000087,
      "v": 101
    },
    {
      "midi": 69,
      "hit": false,
      "t": 175090.73399999988,
      "d": 1172.7260999999999,
      "v": 101
    },
    {
      "midi": 64,
      "hit": false,
      "t": 176727.09599999987,
      "d": 404.5450499999861,
      "v": 101
    },
    {
      "midi": 71,
      "hit": false,
      "t": 176727.09599999987,
      "d": 406.81777499997406,
      "v": 101
    },
    {
      "midi": 67,
      "hit": false,
      "t": 176727.09599999987,
      "d": 424.99957499996526,
      "v": 101
    },
    {
      "midi": 48,
      "hit": false,
      "t": 176727.09599999987,
      "d": 686.3629499999806,
      "v": 101
    },
    {
      "midi": 64,
      "hit": false,
      "t": 177272.54999999984,
      "d": 363.6360000000277,
      "v": 101
    },
    {
      "midi": 71,
      "hit": false,
      "t": 177272.54999999984,
      "d": 381.8178000000189,
      "v": 101
    },
    {
      "midi": 67,
      "hit": false,
      "t": 177272.54999999984,
      "d": 404.5450500000152,
      "v": 101
    },
    {
      "midi": 67,
      "hit": false,
      "t": 177818.00399999984,
      "d": 59.09085000000778,
      "v": 101
    },
    {
      "midi": 64,
      "hit": false,
      "t": 177818.00399999984,
      "d": 65.90902500000084,
      "v": 101
    },
    {
      "midi": 71,
      "hit": false,
      "t": 177818.00399999984,
      "d": 65.90902500000084,
      "v": 101
    },
    {
      "midi": 71,
      "hit": false,
      "t": 178090.73099999985,
      "d": 59.09085000000778,
      "v": 101
    },
    {
      "midi": 67,
      "hit": false,
      "t": 178090.73099999985,
      "d": 63.63630000001285,
      "v": 101
    },
    {
      "midi": 64,
      "hit": false,
      "t": 178090.73099999985,
      "d": 65.90902500000084,
      "v": 101
    },
    {
      "midi": 67,
      "hit": false,
      "t": 178636.18499999985,
      "d": 56.81812499999069,
      "v": 101
    },
    {
      "midi": 64,
      "hit": false,
      "t": 178636.18499999985,
      "d": 68.18174999998882,
      "v": 101
    },
    {
      "midi": 71,
      "hit": false,
      "t": 178636.18499999985,
      "d": 68.18174999998882,
      "v": 101
    },
    {
      "midi": 64,
      "hit": false,
      "t": 178908.91199999984,
      "d": 336.36329999999725,
      "v": 101
    },
    {
      "midi": 71,
      "hit": false,
      "t": 178908.91199999984,
      "d": 338.63602499998524,
      "v": 101
    },
    {
      "midi": 67,
      "hit": false,
      "t": 178908.91199999984,
      "d": 354.54509999998845,
      "v": 101
    },
    {
      "midi": 48,
      "hit": false,
      "t": 178908.91199999984,
      "d": 1074.9989249999926,
      "v": 101
    },
    {
      "midi": 71,
      "hit": false,
      "t": 179454.36599999983,
      "d": 413.6359499999962,
      "v": 101
    },
    {
      "midi": 64,
      "hit": false,
      "t": 179454.36599999983,
      "d": 420.4541249999893,
      "v": 101
    },
    {
      "midi": 67,
      "hit": false,
      "t": 179454.36599999983,
      "d": 427.27229999998235,
      "v": 101
    },
    {
      "midi": 55,
      "hit": false,
      "t": 179863.45649999983,
      "d": 70.45447500000591,
      "v": 87
    },
    {
      "midi": 67,
      "hit": false,
      "t": 179999.81999999983,
      "d": 59.09085000000778,
      "v": 101
    },
    {
      "midi": 71,
      "hit": false,
      "t": 179999.81999999983,
      "d": 65.90902500000084,
      "v": 101
    },
    {
      "midi": 64,
      "hit": false,
      "t": 179999.81999999983,
      "d": 68.18174999998882,
      "v": 101
    },
    {
      "midi": 64,
      "hit": false,
      "t": 180272.54699999982,
      "d": 336.36330000002636,
      "v": 101
    },
    {
      "midi": 67,
      "hit": false,
      "t": 180272.54699999982,
      "d": 356.81782500003465,
      "v": 101
    },
    {
      "midi": 71,
      "hit": false,
      "t": 180272.54699999982,
      "d": 359.09055000002263,
      "v": 101
    },
    {
      "midi": 55,
      "hit": false,
      "t": 180545.27399999983,
      "d": 90.9090000000142,
      "v": 97
    },
    {
      "midi": 67,
      "hit": false,
      "t": 180818.00099999984,
      "d": 59.09085000000778,
      "v": 101
    },
    {
      "midi": 64,
      "hit": false,
      "t": 180818.00099999984,
      "d": 84.09082500002114,
      "v": 101
    },
    {
      "midi": 71,
      "hit": false,
      "t": 180818.00099999984,
      "d": 88.63627500002622,
      "v": 101
    },
    {
      "midi": 69,
      "hit": false,
      "t": 181090.7279999999,
      "d": 395.45415000000503,
      "v": 101
    },
    {
      "midi": 62,
      "hit": false,
      "t": 181090.7279999999,
      "d": 406.81777500000317,
      "v": 101
    },
    {
      "midi": 66,
      "hit": false,
      "t": 181090.7279999999,
      "d": 422.7268500000064,
      "v": 97
    },
    {
      "midi": 55,
      "hit": false,
      "t": 181090.7279999999,
      "d": 511.3631250000035,
      "v": 101
    },
    {
      "midi": 69,
      "hit": false,
      "t": 181636.18199999988,
      "d": 420.4541250000184,
      "v": 101
    },
    {
      "midi": 62,
      "hit": false,
      "t": 181636.18199999988,
      "d": 440.9086500000267,
      "v": 101
    },
    {
      "midi": 66,
      "hit": false,
      "t": 181772.5454999999,
      "d": 9.090900000010151,
      "v": 16
    },
    {
      "midi": 55,
      "hit": false,
      "t": 182181.6359999999,
      "d": 61.36357499999576,
      "v": 87
    },
    {
      "midi": 66,
      "hit": false,
      "t": 182181.6359999999,
      "d": 70.45447500000591,
      "v": 101
    },
    {
      "midi": 62,
      "hit": false,
      "t": 182181.6359999999,
      "d": 74.99992500001099,
      "v": 101
    },
    {
      "midi": 69,
      "hit": false,
      "t": 182181.6359999999,
      "d": 86.36355000000913,
      "v": 101
    },
    {
      "midi": 66,
      "hit": false,
      "t": 182454.36299999992,
      "d": 265.90882499999134,
      "v": 101
    },
    {
      "midi": 62,
      "hit": false,
      "t": 182454.36299999992,
      "d": 295.4542499999807,
      "v": 101
    },
    {
      "midi": 69,
      "hit": false,
      "t": 182454.36299999992,
      "d": 329.5451249999751,
      "v": 101
    },
    {
      "midi": 55,
      "hit": false,
      "t": 182727.0899999999,
      "d": 113.63624999998137,
      "v": 101
    },
    {
      "midi": 62,
      "hit": false,
      "t": 182999.8169999999,
      "d": 122.72714999999152,
      "v": 101
    },
    {
      "midi": 66,
      "hit": false,
      "t": 182999.8169999999,
      "d": 131.81805000000168,
      "v": 92
    },
    {
      "midi": 69,
      "hit": false,
      "t": 182999.8169999999,
      "d": 163.6362000000081,
      "v": 101
    },
    {
      "midi": 55,
      "hit": false,
      "t": 183272.5439999999,
      "d": 318.18150000000605,
      "v": 101
    },
    {
      "midi": 55,
      "hit": false,
      "t": 183681.63449999993,
      "d": 88.63627499999711,
      "v": 97
    },
    {
      "midi": 67,
      "hit": false,
      "t": 183817.99799999993,
      "d": 99.99989999999525,
      "v": 101
    },
    {
      "midi": 71,
      "hit": false,
      "t": 183817.99799999993,
      "d": 102.27262499998324,
      "v": 101
    },
    {
      "midi": 55,
      "hit": false,
      "t": 184090.72499999992,
      "d": 65.90902500000084,
      "v": 101
    },
    {
      "midi": 66,
      "hit": false,
      "t": 184090.72499999992,
      "d": 402.2723249999981,
      "v": 101
    },
    {
      "midi": 69,
      "hit": false,
      "t": 184090.72499999992,
      "d": 429.54502499999944,
      "v": 101
    },
    {
      "midi": 55,
      "hit": false,
      "t": 184636.17899999992,
      "d": 102.27262500001234,
      "v": 101
    },
    {
      "midi": 64,
      "hit": false,
      "t": 184908.90599999993,
      "d": 86.36355000000913,
      "v": 101
    },
    {
      "midi": 67,
      "hit": false,
      "t": 184908.90599999993,
      "d": 99.99989999999525,
      "v": 101
    },
    {
      "midi": 64,
      "hit": false,
      "t": 185454.35999999993,
      "d": 404.5450499999861,
      "v": 101
    },
    {
      "midi": 71,
      "hit": false,
      "t": 185454.35999999993,
      "d": 406.81777499997406,
      "v": 101
    },
    {
      "midi": 67,
      "hit": false,
      "t": 185454.35999999993,
      "d": 424.99957499996526,
      "v": 101
    },
    {
      "midi": 48,
      "hit": false,
      "t": 185454.35999999993,
      "d": 686.3629499999806,
      "v": 101
    },
    {
      "midi": 64,
      "hit": false,
      "t": 185999.8139999999,
      "d": 363.6360000000277,
      "v": 101
    },
    {
      "midi": 71,
      "hit": false,
      "t": 185999.8139999999,
      "d": 381.8178000000189,
      "v": 101
    },
    {
      "midi": 67,
      "hit": false,
      "t": 185999.8139999999,
      "d": 404.5450500000152,
      "v": 101
    },
    {
      "midi": 67,
      "hit": false,
      "t": 186545.2679999999,
      "d": 59.09085000000778,
      "v": 101
    },
    {
      "midi": 64,
      "hit": false,
      "t": 186545.2679999999,
      "d": 65.90902500000084,
      "v": 101
    },
    {
      "midi": 71,
      "hit": false,
      "t": 186545.2679999999,
      "d": 65.90902500000084,
      "v": 101
    },
    {
      "midi": 71,
      "hit": false,
      "t": 186817.9949999999,
      "d": 59.09085000000778,
      "v": 101
    },
    {
      "midi": 67,
      "hit": false,
      "t": 186817.9949999999,
      "d": 63.63630000001285,
      "v": 101
    },
    {
      "midi": 64,
      "hit": false,
      "t": 186817.9949999999,
      "d": 65.90902500000084,
      "v": 101
    },
    {
      "midi": 67,
      "hit": false,
      "t": 187363.4489999999,
      "d": 56.81812499999069,
      "v": 101
    },
    {
      "midi": 64,
      "hit": false,
      "t": 187363.4489999999,
      "d": 68.18174999998882,
      "v": 101
    },
    {
      "midi": 71,
      "hit": false,
      "t": 187363.4489999999,
      "d": 68.18174999998882,
      "v": 101
    },
    {
      "midi": 64,
      "hit": false,
      "t": 187636.1759999999,
      "d": 336.36329999999725,
      "v": 101
    },
    {
      "midi": 71,
      "hit": false,
      "t": 187636.1759999999,
      "d": 338.63602499998524,
      "v": 101
    },
    {
      "midi": 67,
      "hit": false,
      "t": 187636.1759999999,
      "d": 354.54509999998845,
      "v": 101
    },
    {
      "midi": 48,
      "hit": false,
      "t": 187636.1759999999,
      "d": 1074.9989249999926,
      "v": 101
    },
    {
      "midi": 71,
      "hit": false,
      "t": 188181.6299999999,
      "d": 413.6359499999962,
      "v": 101
    },
    {
      "midi": 64,
      "hit": false,
      "t": 188181.6299999999,
      "d": 420.4541249999893,
      "v": 101
    },
    {
      "midi": 67,
      "hit": false,
      "t": 188181.6299999999,
      "d": 427.27229999998235,
      "v": 101
    },
    {
      "midi": 55,
      "hit": false,
      "t": 188590.72049999988,
      "d": 70.45447500000591,
      "v": 87
    },
    {
      "midi": 67,
      "hit": false,
      "t": 188727.0839999999,
      "d": 59.09085000000778,
      "v": 101
    },
    {
      "midi": 71,
      "hit": false,
      "t": 188727.0839999999,
      "d": 65.90902500000084,
      "v": 101
    },
    {
      "midi": 64,
      "hit": false,
      "t": 188727.0839999999,
      "d": 68.18174999998882,
      "v": 101
    },
    {
      "midi": 64,
      "hit": false,
      "t": 188999.81099999987,
      "d": 336.36330000002636,
      "v": 101
    },
    {
      "midi": 67,
      "hit": false,
      "t": 188999.81099999987,
      "d": 356.81782500003465,
      "v": 101
    },
    {
      "midi": 71,
      "hit": false,
      "t": 188999.81099999987,
      "d": 359.09055000002263,
      "v": 101
    },
    {
      "midi": 55,
      "hit": false,
      "t": 189272.53799999988,
      "d": 90.9090000000142,
      "v": 97
    },
    {
      "midi": 67,
      "hit": false,
      "t": 189545.2649999999,
      "d": 59.09085000000778,
      "v": 101
    },
    {
      "midi": 64,
      "hit": false,
      "t": 189545.2649999999,
      "d": 84.09082500002114,
      "v": 101
    },
    {
      "midi": 71,
      "hit": false,
      "t": 189545.2649999999,
      "d": 88.63627500002622,
      "v": 101
    },
    {
      "midi": 69,
      "hit": false,
      "t": 189817.99199999994,
      "d": 395.45415000000503,
      "v": 101
    },
    {
      "midi": 62,
      "hit": false,
      "t": 189817.99199999994,
      "d": 406.81777500000317,
      "v": 101
    },
    {
      "midi": 66,
      "hit": false,
      "t": 189817.99199999994,
      "d": 422.7268500000064,
      "v": 97
    },
    {
      "midi": 55,
      "hit": false,
      "t": 189817.99199999994,
      "d": 511.3631250000035,
      "v": 101
    },
    {
      "midi": 69,
      "hit": false,
      "t": 190363.44599999994,
      "d": 420.4541250000184,
      "v": 101
    },
    {
      "midi": 62,
      "hit": false,
      "t": 190363.44599999994,
      "d": 440.9086500000267,
      "v": 101
    },
    {
      "midi": 66,
      "hit": false,
      "t": 190499.80949999994,
      "d": 9.090900000010151,
      "v": 16
    },
    {
      "midi": 55,
      "hit": false,
      "t": 190908.89999999997,
      "d": 61.36357499999576,
      "v": 87
    },
    {
      "midi": 66,
      "hit": false,
      "t": 190908.89999999997,
      "d": 70.45447500000591,
      "v": 101
    },
    {
      "midi": 62,
      "hit": false,
      "t": 190908.89999999997,
      "d": 74.99992500001099,
      "v": 101
    },
    {
      "midi": 69,
      "hit": false,
      "t": 190908.89999999997,
      "d": 86.36355000000913,
      "v": 101
    },
    {
      "midi": 66,
      "hit": false,
      "t": 191181.62699999998,
      "d": 265.90882499999134,
      "v": 101
    },
    {
      "midi": 62,
      "hit": false,
      "t": 191181.62699999998,
      "d": 295.4542499999807,
      "v": 101
    },
    {
      "midi": 69,
      "hit": false,
      "t": 191181.62699999998,
      "d": 329.5451249999751,
      "v": 101
    },
    {
      "midi": 55,
      "hit": false,
      "t": 191454.35399999996,
      "d": 113.63624999998137,
      "v": 101
    },
    {
      "midi": 62,
      "hit": false,
      "t": 191727.08099999995,
      "d": 122.72714999999152,
      "v": 101
    },
    {
      "midi": 66,
      "hit": false,
      "t": 191727.08099999995,
      "d": 131.81805000000168,
      "v": 92
    },
    {
      "midi": 69,
      "hit": false,
      "t": 191727.08099999995,
      "d": 163.6362000000081,
      "v": 101
    },
    {
      "midi": 55,
      "hit": false,
      "t": 191999.80799999996,
      "d": 318.18150000000605,
      "v": 101
    },
    {
      "midi": 55,
      "hit": false,
      "t": 192408.89849999998,
      "d": 88.63627499999711,
      "v": 97
    },
    {
      "midi": 67,
      "hit": false,
      "t": 192545.262,
      "d": 99.99989999999525,
      "v": 101
    },
    {
      "midi": 71,
      "hit": false,
      "t": 192545.262,
      "d": 102.27262499998324,
      "v": 101
    },
    {
      "midi": 55,
      "hit": false,
      "t": 192817.98899999997,
      "d": 65.90902500000084,
      "v": 101
    },
    {
      "midi": 66,
      "hit": false,
      "t": 192817.98899999997,
      "d": 402.2723249999981,
      "v": 101
    },
    {
      "midi": 69,
      "hit": false,
      "t": 192817.98899999997,
      "d": 429.54502499999944,
      "v": 101
    },
    {
      "midi": 55,
      "hit": false,
      "t": 193363.44299999997,
      "d": 102.27262500001234,
      "v": 101
    },
    {
      "midi": 64,
      "hit": false,
      "t": 193636.16999999998,
      "d": 86.36355000000913,
      "v": 101
    },
    {
      "midi": 67,
      "hit": false,
      "t": 193636.16999999998,
      "d": 99.99989999999525,
      "v": 101
    },
    {
      "midi": 64,
      "hit": false,
      "t": 194181.62399999998,
      "d": 404.5450499999861,
      "v": 101
    },
    {
      "midi": 71,
      "hit": false,
      "t": 194181.62399999998,
      "d": 406.81777499997406,
      "v": 101
    },
    {
      "midi": 67,
      "hit": false,
      "t": 194181.62399999998,
      "d": 424.99957499996526,
      "v": 101
    },
    {
      "midi": 48,
      "hit": false,
      "t": 194181.62399999998,
      "d": 686.3629499999806,
      "v": 101
    },
    {
      "midi": 64,
      "hit": false,
      "t": 194727.07799999995,
      "d": 363.6360000000277,
      "v": 101
    },
    {
      "midi": 71,
      "hit": false,
      "t": 194727.07799999995,
      "d": 381.8178000000189,
      "v": 101
    },
    {
      "midi": 67,
      "hit": false,
      "t": 194727.07799999995,
      "d": 404.5450500000152,
      "v": 101
    },
    {
      "midi": 67,
      "hit": false,
      "t": 195272.53199999995,
      "d": 59.09085000000778,
      "v": 101
    },
    {
      "midi": 64,
      "hit": false,
      "t": 195272.53199999995,
      "d": 65.90902500000084,
      "v": 101
    },
    {
      "midi": 71,
      "hit": false,
      "t": 195272.53199999995,
      "d": 65.90902500000084,
      "v": 101
    },
    {
      "midi": 71,
      "hit": false,
      "t": 195545.25899999996,
      "d": 59.09085000000778,
      "v": 101
    },
    {
      "midi": 67,
      "hit": false,
      "t": 195545.25899999996,
      "d": 63.63630000001285,
      "v": 101
    },
    {
      "midi": 64,
      "hit": false,
      "t": 195545.25899999996,
      "d": 65.90902500000084,
      "v": 101
    },
    {
      "midi": 67,
      "hit": false,
      "t": 196090.71299999996,
      "d": 56.81812499999069,
      "v": 101
    },
    {
      "midi": 64,
      "hit": false,
      "t": 196090.71299999996,
      "d": 68.18174999998882,
      "v": 101
    },
    {
      "midi": 71,
      "hit": false,
      "t": 196090.71299999996,
      "d": 68.18174999998882,
      "v": 101
    },
    {
      "midi": 64,
      "hit": false,
      "t": 196363.43999999994,
      "d": 336.36329999999725,
      "v": 101
    },
    {
      "midi": 71,
      "hit": false,
      "t": 196363.43999999994,
      "d": 338.63602499998524,
      "v": 101
    },
    {
      "midi": 67,
      "hit": false,
      "t": 196363.43999999994,
      "d": 354.54509999998845,
      "v": 101
    },
    {
      "midi": 48,
      "hit": false,
      "t": 196363.43999999994,
      "d": 1074.9989249999926,
      "v": 101
    },
    {
      "midi": 71,
      "hit": false,
      "t": 196908.89399999994,
      "d": 413.6359499999962,
      "v": 101
    },
    {
      "midi": 64,
      "hit": false,
      "t": 196908.89399999994,
      "d": 420.4541249999893,
      "v": 101
    },
    {
      "midi": 67,
      "hit": false,
      "t": 196908.89399999994,
      "d": 427.27229999998235,
      "v": 101
    },
    {
      "midi": 55,
      "hit": false,
      "t": 197317.98449999993,
      "d": 70.45447500000591,
      "v": 87
    },
    {
      "midi": 67,
      "hit": false,
      "t": 197454.34799999994,
      "d": 59.09085000000778,
      "v": 101
    },
    {
      "midi": 71,
      "hit": false,
      "t": 197454.34799999994,
      "d": 65.90902500000084,
      "v": 101
    },
    {
      "midi": 64,
      "hit": false,
      "t": 197454.34799999994,
      "d": 68.18174999998882,
      "v": 101
    },
    {
      "midi": 64,
      "hit": false,
      "t": 197727.07499999992,
      "d": 336.36330000002636,
      "v": 101
    },
    {
      "midi": 67,
      "hit": false,
      "t": 197727.07499999992,
      "d": 356.81782500003465,
      "v": 101
    },
    {
      "midi": 71,
      "hit": false,
      "t": 197727.07499999992,
      "d": 359.09055000002263,
      "v": 101
    },
    {
      "midi": 55,
      "hit": false,
      "t": 197999.80199999994,
      "d": 90.9090000000142,
      "v": 97
    },
    {
      "midi": 67,
      "hit": false,
      "t": 198272.52899999995,
      "d": 59.09085000000778,
      "v": 101
    },
    {
      "midi": 64,
      "hit": false,
      "t": 198272.52899999995,
      "d": 84.09082500002114,
      "v": 101
    },
    {
      "midi": 71,
      "hit": false,
      "t": 198272.52899999995,
      "d": 88.63627500002622,
      "v": 101
    },
    {
      "midi": 69,
      "hit": false,
      "t": 198545.256,
      "d": 395.45415000000503,
      "v": 101
    },
    {
      "midi": 62,
      "hit": false,
      "t": 198545.256,
      "d": 406.81777500000317,
      "v": 101
    },
    {
      "midi": 66,
      "hit": false,
      "t": 198545.256,
      "d": 422.7268500000064,
      "v": 97
    },
    {
      "midi": 55,
      "hit": false,
      "t": 198545.256,
      "d": 511.3631250000035,
      "v": 101
    },
    {
      "midi": 69,
      "hit": false,
      "t": 199090.71,
      "d": 420.4541250000184,
      "v": 101
    },
    {
      "midi": 62,
      "hit": false,
      "t": 199090.71,
      "d": 440.9086500000267,
      "v": 101
    },
    {
      "midi": 66,
      "hit": false,
      "t": 199227.0735,
      "d": 9.090900000010151,
      "v": 16
    },
    {
      "midi": 55,
      "hit": false,
      "t": 199636.16400000002,
      "d": 61.36357499999576,
      "v": 87
    },
    {
      "midi": 66,
      "hit": false,
      "t": 199636.16400000002,
      "d": 70.45447500000591,
      "v": 101
    },
    {
      "midi": 62,
      "hit": false,
      "t": 199636.16400000002,
      "d": 74.99992500001099,
      "v": 101
    },
    {
      "midi": 69,
      "hit": false,
      "t": 199636.16400000002,
      "d": 86.36355000000913,
      "v": 101
    },
    {
      "midi": 66,
      "hit": false,
      "t": 199908.89100000003,
      "d": 265.90882499999134,
      "v": 101
    },
    {
      "midi": 62,
      "hit": false,
      "t": 199908.89100000003,
      "d": 295.4542499999807,
      "v": 101
    },
    {
      "midi": 69,
      "hit": false,
      "t": 199908.89100000003,
      "d": 329.5451249999751,
      "v": 101
    },
    {
      "midi": 55,
      "hit": false,
      "t": 200181.61800000002,
      "d": 113.63624999998137,
      "v": 101
    },
    {
      "midi": 62,
      "hit": false,
      "t": 200454.345,
      "d": 122.72714999999152,
      "v": 101
    },
    {
      "midi": 66,
      "hit": false,
      "t": 200454.345,
      "d": 131.81805000000168,
      "v": 92
    },
    {
      "midi": 69,
      "hit": false,
      "t": 200454.345,
      "d": 163.6362000000081,
      "v": 101
    },
    {
      "midi": 55,
      "hit": false,
      "t": 200727.07200000001,
      "d": 318.18150000000605,
      "v": 101
    },
    {
      "midi": 55,
      "hit": false,
      "t": 201136.16250000003,
      "d": 88.63627499999711,
      "v": 97
    },
    {
      "midi": 67,
      "hit": false,
      "t": 201272.52600000004,
      "d": 99.99989999999525,
      "v": 101
    },
    {
      "midi": 71,
      "hit": false,
      "t": 201272.52600000004,
      "d": 102.27262499998324,
      "v": 101
    },
    {
      "midi": 55,
      "hit": false,
      "t": 201545.25300000003,
      "d": 65.90902500000084,
      "v": 101
    },
    {
      "midi": 66,
      "hit": false,
      "t": 201545.25300000003,
      "d": 402.2723249999981,
      "v": 101
    },
    {
      "midi": 69,
      "hit": false,
      "t": 201545.25300000003,
      "d": 429.54502499999944,
      "v": 101
    },
    {
      "midi": 55,
      "hit": false,
      "t": 202090.70700000002,
      "d": 102.27262500001234,
      "v": 101
    },
    {
      "midi": 64,
      "hit": false,
      "t": 202363.43400000004,
      "d": 86.36355000000913,
      "v": 101
    },
    {
      "midi": 67,
      "hit": false,
      "t": 202363.43400000004,
      "d": 99.99989999999525,
      "v": 101
    },
    {
      "midi": 64,
      "hit": false,
      "t": 202908.88800000004,
      "d": 404.5450499999861,
      "v": 101
    },
    {
      "midi": 71,
      "hit": false,
      "t": 202908.88800000004,
      "d": 406.81777499997406,
      "v": 101
    },
    {
      "midi": 67,
      "hit": false,
      "t": 202908.88800000004,
      "d": 424.99957499996526,
      "v": 101
    },
    {
      "midi": 48,
      "hit": false,
      "t": 202908.88800000004,
      "d": 686.3629499999806,
      "v": 101
    },
    {
      "midi": 64,
      "hit": false,
      "t": 203454.342,
      "d": 363.6360000000277,
      "v": 101
    },
    {
      "midi": 71,
      "hit": false,
      "t": 203454.342,
      "d": 381.8178000000189,
      "v": 101
    },
    {
      "midi": 67,
      "hit": false,
      "t": 203454.342,
      "d": 404.5450500000152,
      "v": 101
    },
    {
      "midi": 67,
      "hit": false,
      "t": 203999.796,
      "d": 59.09085000000778,
      "v": 101
    },
    {
      "midi": 64,
      "hit": false,
      "t": 203999.796,
      "d": 65.90902500000084,
      "v": 101
    },
    {
      "midi": 71,
      "hit": false,
      "t": 203999.796,
      "d": 65.90902500000084,
      "v": 101
    },
    {
      "midi": 71,
      "hit": false,
      "t": 204272.52300000002,
      "d": 59.09085000000778,
      "v": 101
    },
    {
      "midi": 67,
      "hit": false,
      "t": 204272.52300000002,
      "d": 63.63630000001285,
      "v": 101
    },
    {
      "midi": 64,
      "hit": false,
      "t": 204272.52300000002,
      "d": 65.90902500000084,
      "v": 101
    },
    {
      "midi": 67,
      "hit": false,
      "t": 204817.977,
      "d": 56.81812499999069,
      "v": 101
    },
    {
      "midi": 64,
      "hit": false,
      "t": 204817.977,
      "d": 68.18174999998882,
      "v": 101
    },
    {
      "midi": 71,
      "hit": false,
      "t": 204817.977,
      "d": 68.18174999998882,
      "v": 101
    },
    {
      "midi": 64,
      "hit": false,
      "t": 205090.704,
      "d": 336.36329999999725,
      "v": 101
    },
    {
      "midi": 71,
      "hit": false,
      "t": 205090.704,
      "d": 338.63602499998524,
      "v": 101
    },
    {
      "midi": 67,
      "hit": false,
      "t": 205090.704,
      "d": 354.54509999998845,
      "v": 101
    },
    {
      "midi": 48,
      "hit": false,
      "t": 205090.704,
      "d": 1074.9989249999926,
      "v": 101
    },
    {
      "midi": 71,
      "hit": false,
      "t": 205636.158,
      "d": 413.6359499999962,
      "v": 101
    },
    {
      "midi": 64,
      "hit": false,
      "t": 205636.158,
      "d": 420.4541249999893,
      "v": 101
    },
    {
      "midi": 67,
      "hit": false,
      "t": 205636.158,
      "d": 427.27229999998235,
      "v": 101
    },
    {
      "midi": 55,
      "hit": false,
      "t": 206045.2485,
      "d": 70.45447500000591,
      "v": 87
    },
    {
      "midi": 67,
      "hit": false,
      "t": 206181.612,
      "d": 59.09085000000778,
      "v": 101
    },
    {
      "midi": 71,
      "hit": false,
      "t": 206181.612,
      "d": 65.90902500000084,
      "v": 101
    },
    {
      "midi": 64,
      "hit": false,
      "t": 206181.612,
      "d": 68.18174999998882,
      "v": 101
    },
    {
      "midi": 64,
      "hit": false,
      "t": 206454.33899999998,
      "d": 336.36330000002636,
      "v": 101
    },
    {
      "midi": 67,
      "hit": false,
      "t": 206454.33899999998,
      "d": 356.81782500003465,
      "v": 101
    },
    {
      "midi": 71,
      "hit": false,
      "t": 206454.33899999998,
      "d": 359.09055000002263,
      "v": 101
    },
    {
      "midi": 55,
      "hit": false,
      "t": 206727.066,
      "d": 90.9090000000142,
      "v": 97
    },
    {
      "midi": 67,
      "hit": false,
      "t": 206999.793,
      "d": 59.09085000000778,
      "v": 101
    },
    {
      "midi": 64,
      "hit": false,
      "t": 206999.793,
      "d": 84.09082500002114,
      "v": 101
    },
    {
      "midi": 71,
      "hit": false,
      "t": 206999.793,
      "d": 88.63627500002622,
      "v": 101
    },
    {
      "midi": 69,
      "hit": false,
      "t": 207272.52000000005,
      "d": 395.45415000000503,
      "v": 101
    },
    {
      "midi": 62,
      "hit": false,
      "t": 207272.52000000005,
      "d": 406.81777500000317,
      "v": 101
    },
    {
      "midi": 66,
      "hit": false,
      "t": 207272.52000000005,
      "d": 422.7268500000064,
      "v": 97
    },
    {
      "midi": 55,
      "hit": false,
      "t": 207272.52000000005,
      "d": 511.3631250000035,
      "v": 101
    },
    {
      "midi": 69,
      "hit": false,
      "t": 207817.97400000005,
      "d": 420.4541250000184,
      "v": 101
    },
    {
      "midi": 62,
      "hit": false,
      "t": 207817.97400000005,
      "d": 440.9086500000267,
      "v": 101
    },
    {
      "midi": 66,
      "hit": false,
      "t": 207954.33750000005,
      "d": 9.090900000010151,
      "v": 16
    },
    {
      "midi": 55,
      "hit": false,
      "t": 208363.42800000007,
      "d": 61.36357499999576,
      "v": 87
    },
    {
      "midi": 66,
      "hit": false,
      "t": 208363.42800000007,
      "d": 70.45447500000591,
      "v": 101
    },
    {
      "midi": 62,
      "hit": false,
      "t": 208363.42800000007,
      "d": 74.99992500001099,
      "v": 101
    },
    {
      "midi": 69,
      "hit": false,
      "t": 208363.42800000007,
      "d": 86.36355000000913,
      "v": 101
    },
    {
      "midi": 66,
      "hit": false,
      "t": 208636.1550000001,
      "d": 265.90882499999134,
      "v": 101
    },
    {
      "midi": 62,
      "hit": false,
      "t": 208636.1550000001,
      "d": 295.4542499999807,
      "v": 101
    },
    {
      "midi": 69,
      "hit": false,
      "t": 208636.1550000001,
      "d": 329.5451249999751,
      "v": 101
    },
    {
      "midi": 55,
      "hit": false,
      "t": 208908.88200000007,
      "d": 113.63624999998137,
      "v": 101
    },
    {
      "midi": 62,
      "hit": false,
      "t": 209181.60900000005,
      "d": 122.72714999999152,
      "v": 101
    },
    {
      "midi": 66,
      "hit": false,
      "t": 209181.60900000005,
      "d": 131.81805000000168,
      "v": 92
    },
    {
      "midi": 69,
      "hit": false,
      "t": 209181.60900000005,
      "d": 163.6362000000081,
      "v": 101
    },
    {
      "midi": 55,
      "hit": false,
      "t": 209454.33600000007,
      "d": 318.18150000000605,
      "v": 101
    },
    {
      "midi": 55,
      "hit": false,
      "t": 209863.4265000001,
      "d": 88.63627499999711,
      "v": 97
    },
    {
      "midi": 67,
      "hit": false,
      "t": 209999.7900000001,
      "d": 99.99989999999525,
      "v": 101
    },
    {
      "midi": 71,
      "hit": false,
      "t": 209999.7900000001,
      "d": 102.27262499998324,
      "v": 101
    },
    {
      "midi": 55,
      "hit": false,
      "t": 210272.51700000008,
      "d": 65.90902500000084,
      "v": 101
    },
    {
      "midi": 66,
      "hit": false,
      "t": 210272.51700000008,
      "d": 402.2723249999981,
      "v": 101
    },
    {
      "midi": 69,
      "hit": false,
      "t": 210272.51700000008,
      "d": 429.54502499999944,
      "v": 101
    },
    {
      "midi": 55,
      "hit": false,
      "t": 210817.97100000008,
      "d": 102.27262500001234,
      "v": 101
    },
    {
      "midi": 64,
      "hit": false,
      "t": 211090.6980000001,
      "d": 86.36355000000913,
      "v": 101
    },
    {
      "midi": 67,
      "hit": false,
      "t": 211090.6980000001,
      "d": 99.99989999999525,
      "v": 101
    },
    {
      "midi": 64,
      "hit": false,
      "t": 211636.1520000001,
      "d": 404.5450499999861,
      "v": 101
    },
    {
      "midi": 71,
      "hit": false,
      "t": 211636.1520000001,
      "d": 406.81777499997406,
      "v": 101
    },
    {
      "midi": 67,
      "hit": false,
      "t": 211636.1520000001,
      "d": 424.99957499996526,
      "v": 101
    },
    {
      "midi": 48,
      "hit": false,
      "t": 211636.1520000001,
      "d": 686.3629499999806,
      "v": 101
    },
    {
      "midi": 64,
      "hit": false,
      "t": 212181.60600000006,
      "d": 363.6360000000277,
      "v": 101
    },
    {
      "midi": 71,
      "hit": false,
      "t": 212181.60600000006,
      "d": 381.8178000000189,
      "v": 101
    },
    {
      "midi": 67,
      "hit": false,
      "t": 212181.60600000006,
      "d": 404.5450500000152,
      "v": 101
    },
    {
      "midi": 67,
      "hit": false,
      "t": 212727.06000000006,
      "d": 59.09085000000778,
      "v": 101
    },
    {
      "midi": 64,
      "hit": false,
      "t": 212727.06000000006,
      "d": 65.90902500000084,
      "v": 101
    },
    {
      "midi": 71,
      "hit": false,
      "t": 212727.06000000006,
      "d": 65.90902500000084,
      "v": 101
    },
    {
      "midi": 71,
      "hit": false,
      "t": 212999.78700000007,
      "d": 59.09085000000778,
      "v": 101
    },
    {
      "midi": 67,
      "hit": false,
      "t": 212999.78700000007,
      "d": 63.63630000001285,
      "v": 101
    },
    {
      "midi": 64,
      "hit": false,
      "t": 212999.78700000007,
      "d": 65.90902500000084,
      "v": 101
    },
    {
      "midi": 67,
      "hit": false,
      "t": 213545.24100000007,
      "d": 56.81812499999069,
      "v": 101
    },
    {
      "midi": 64,
      "hit": false,
      "t": 213545.24100000007,
      "d": 68.18174999998882,
      "v": 101
    },
    {
      "midi": 71,
      "hit": false,
      "t": 213545.24100000007,
      "d": 68.18174999998882,
      "v": 101
    },
    {
      "midi": 64,
      "hit": false,
      "t": 213817.96800000005,
      "d": 336.36329999999725,
      "v": 101
    },
    {
      "midi": 71,
      "hit": false,
      "t": 213817.96800000005,
      "d": 338.63602499998524,
      "v": 101
    },
    {
      "midi": 67,
      "hit": false,
      "t": 213817.96800000005,
      "d": 354.54509999998845,
      "v": 101
    },
    {
      "midi": 48,
      "hit": false,
      "t": 213817.96800000005,
      "d": 1074.9989249999926,
      "v": 101
    },
    {
      "midi": 71,
      "hit": false,
      "t": 214363.42200000005,
      "d": 413.6359499999962,
      "v": 101
    },
    {
      "midi": 64,
      "hit": false,
      "t": 214363.42200000005,
      "d": 420.4541249999893,
      "v": 101
    },
    {
      "midi": 67,
      "hit": false,
      "t": 214363.42200000005,
      "d": 427.27229999998235,
      "v": 101
    },
    {
      "midi": 55,
      "hit": false,
      "t": 214772.51250000004,
      "d": 70.45447500000591,
      "v": 87
    },
    {
      "midi": 67,
      "hit": false,
      "t": 214908.87600000005,
      "d": 59.09085000000778,
      "v": 101
    },
    {
      "midi": 71,
      "hit": false,
      "t": 214908.87600000005,
      "d": 65.90902500000084,
      "v": 101
    },
    {
      "midi": 64,
      "hit": false,
      "t": 214908.87600000005,
      "d": 68.18174999998882,
      "v": 101
    },
    {
      "midi": 64,
      "hit": false,
      "t": 215181.60300000003,
      "d": 336.36330000002636,
      "v": 101
    },
    {
      "midi": 67,
      "hit": false,
      "t": 215181.60300000003,
      "d": 356.81782500003465,
      "v": 101
    },
    {
      "midi": 71,
      "hit": false,
      "t": 215181.60300000003,
      "d": 359.09055000002263,
      "v": 101
    },
    {
      "midi": 55,
      "hit": false,
      "t": 215454.33000000005,
      "d": 90.9090000000142,
      "v": 97
    },
    {
      "midi": 67,
      "hit": false,
      "t": 215727.05700000006,
      "d": 59.09085000000778,
      "v": 101
    },
    {
      "midi": 64,
      "hit": false,
      "t": 215727.05700000006,
      "d": 84.09082500002114,
      "v": 101
    },
    {
      "midi": 71,
      "hit": false,
      "t": 215727.05700000006,
      "d": 88.63627500002622,
      "v": 101
    },
    {
      "midi": 69,
      "hit": false,
      "t": 215999.7840000001,
      "d": 395.45415000000503,
      "v": 101
    },
    {
      "midi": 62,
      "hit": false,
      "t": 215999.7840000001,
      "d": 406.81777500000317,
      "v": 101
    },
    {
      "midi": 66,
      "hit": false,
      "t": 215999.7840000001,
      "d": 422.7268500000064,
      "v": 97
    },
    {
      "midi": 55,
      "hit": false,
      "t": 215999.7840000001,
      "d": 511.3631250000035,
      "v": 101
    },
    {
      "midi": 69,
      "hit": false,
      "t": 216545.2380000001,
      "d": 420.4541250000184,
      "v": 101
    },
    {
      "midi": 62,
      "hit": false,
      "t": 216545.2380000001,
      "d": 440.9086500000267,
      "v": 101
    },
    {
      "midi": 66,
      "hit": false,
      "t": 216681.6015000001,
      "d": 9.090900000010151,
      "v": 16
    },
    {
      "midi": 55,
      "hit": false,
      "t": 217090.69200000013,
      "d": 61.36357499999576,
      "v": 87
    },
    {
      "midi": 66,
      "hit": false,
      "t": 217090.69200000013,
      "d": 70.45447500000591,
      "v": 101
    },
    {
      "midi": 62,
      "hit": false,
      "t": 217090.69200000013,
      "d": 74.99992500001099,
      "v": 101
    },
    {
      "midi": 69,
      "hit": false,
      "t": 217090.69200000013,
      "d": 86.36355000000913,
      "v": 101
    },
    {
      "midi": 66,
      "hit": false,
      "t": 217363.41900000014,
      "d": 265.90882499999134,
      "v": 101
    },
    {
      "midi": 62,
      "hit": false,
      "t": 217363.41900000014,
      "d": 295.4542499999807,
      "v": 101
    },
    {
      "midi": 69,
      "hit": false,
      "t": 217363.41900000014,
      "d": 329.5451249999751,
      "v": 101
    },
    {
      "midi": 55,
      "hit": false,
      "t": 217636.14600000012,
      "d": 113.63624999998137,
      "v": 101
    },
    {
      "midi": 62,
      "hit": false,
      "t": 217908.8730000001,
      "d": 122.72714999999152,
      "v": 101
    },
    {
      "midi": 66,
      "hit": false,
      "t": 217908.8730000001,
      "d": 131.81805000000168,
      "v": 92
    },
    {
      "midi": 69,
      "hit": false,
      "t": 217908.8730000001,
      "d": 163.6362000000081,
      "v": 101
    },
    {
      "midi": 55,
      "hit": false,
      "t": 218181.60000000012,
      "d": 318.18150000000605,
      "v": 101
    },
    {
      "midi": 55,
      "hit": false,
      "t": 218590.69050000014,
      "d": 88.63627499999711,
      "v": 97
    },
    {
      "midi": 67,
      "hit": false,
      "t": 218727.05400000015,
      "d": 99.99989999999525,
      "v": 101
    },
    {
      "midi": 71,
      "hit": false,
      "t": 218727.05400000015,
      "d": 102.27262499998324,
      "v": 101
    },
    {
      "midi": 55,
      "hit": false,
      "t": 218999.78100000013,
      "d": 65.90902500000084,
      "v": 101
    },
    {
      "midi": 66,
      "hit": false,
      "t": 218999.78100000013,
      "d": 402.2723249999981,
      "v": 101
    },
    {
      "midi": 69,
      "hit": false,
      "t": 218999.78100000013,
      "d": 429.54502499999944,
      "v": 101
    },
    {
      "midi": 55,
      "hit": false,
      "t": 219545.23500000013,
      "d": 102.27262500001234,
      "v": 101
    },
    {
      "midi": 64,
      "hit": false,
      "t": 219817.96200000015,
      "d": 86.36355000000913,
      "v": 101
    },
    {
      "midi": 67,
      "hit": false,
      "t": 219817.96200000015,
      "d": 99.99989999999525,
      "v": 101
    },
    {
      "midi": 64,
      "hit": false,
      "t": 220363.41600000014,
      "d": 404.5450499999861,
      "v": 101
    },
    {
      "midi": 71,
      "hit": false,
      "t": 220363.41600000014,
      "d": 406.81777499997406,
      "v": 101
    },
    {
      "midi": 67,
      "hit": false,
      "t": 220363.41600000014,
      "d": 424.99957499996526,
      "v": 101
    },
    {
      "midi": 48,
      "hit": false,
      "t": 220363.41600000014,
      "d": 686.3629499999806,
      "v": 101
    },
    {
      "midi": 64,
      "hit": false,
      "t": 220908.8700000001,
      "d": 363.6360000000277,
      "v": 101
    },
    {
      "midi": 71,
      "hit": false,
      "t": 220908.8700000001,
      "d": 381.8178000000189,
      "v": 101
    },
    {
      "midi": 67,
      "hit": false,
      "t": 220908.8700000001,
      "d": 404.5450500000152,
      "v": 101
    },
    {
      "midi": 67,
      "hit": false,
      "t": 221454.3240000001,
      "d": 59.09085000000778,
      "v": 101
    },
    {
      "midi": 64,
      "hit": false,
      "t": 221454.3240000001,
      "d": 65.90902500000084,
      "v": 101
    },
    {
      "midi": 71,
      "hit": false,
      "t": 221454.3240000001,
      "d": 65.90902500000084,
      "v": 101
    },
    {
      "midi": 71,
      "hit": false,
      "t": 221727.05100000012,
      "d": 59.09085000000778,
      "v": 101
    },
    {
      "midi": 67,
      "hit": false,
      "t": 221727.05100000012,
      "d": 63.63630000001285,
      "v": 101
    },
    {
      "midi": 64,
      "hit": false,
      "t": 221727.05100000012,
      "d": 65.90902500000084,
      "v": 101
    },
    {
      "midi": 67,
      "hit": false,
      "t": 222272.50500000012,
      "d": 56.81812499999069,
      "v": 101
    },
    {
      "midi": 64,
      "hit": false,
      "t": 222272.50500000012,
      "d": 68.18174999998882,
      "v": 101
    },
    {
      "midi": 71,
      "hit": false,
      "t": 222272.50500000012,
      "d": 68.18174999998882,
      "v": 101
    },
    {
      "midi": 64,
      "hit": false,
      "t": 222545.2320000001,
      "d": 336.36329999999725,
      "v": 101
    },
    {
      "midi": 71,
      "hit": false,
      "t": 222545.2320000001,
      "d": 338.63602499998524,
      "v": 101
    },
    {
      "midi": 67,
      "hit": false,
      "t": 222545.2320000001,
      "d": 354.54509999998845,
      "v": 101
    },
    {
      "midi": 48,
      "hit": false,
      "t": 222545.2320000001,
      "d": 1074.9989249999926,
      "v": 101
    },
    {
      "midi": 71,
      "hit": false,
      "t": 223090.6860000001,
      "d": 413.6359499999962,
      "v": 101
    },
    {
      "midi": 64,
      "hit": false,
      "t": 223090.6860000001,
      "d": 420.4541249999893,
      "v": 101
    },
    {
      "midi": 67,
      "hit": false,
      "t": 223090.6860000001,
      "d": 427.27229999998235,
      "v": 101
    },
    {
      "midi": 55,
      "hit": false,
      "t": 223499.7765000001,
      "d": 70.45447500000591,
      "v": 87
    },
    {
      "midi": 67,
      "hit": false,
      "t": 223636.1400000001,
      "d": 59.09085000000778,
      "v": 101
    },
    {
      "midi": 71,
      "hit": false,
      "t": 223636.1400000001,
      "d": 65.90902500000084,
      "v": 101
    },
    {
      "midi": 64,
      "hit": false,
      "t": 223636.1400000001,
      "d": 68.18174999998882,
      "v": 101
    },
    {
      "midi": 64,
      "hit": false,
      "t": 223908.8670000001,
      "d": 336.36330000002636,
      "v": 101
    },
    {
      "midi": 67,
      "hit": false,
      "t": 223908.8670000001,
      "d": 356.81782500003465,
      "v": 101
    },
    {
      "midi": 71,
      "hit": false,
      "t": 223908.8670000001,
      "d": 359.09055000002263,
      "v": 101
    },
    {
      "midi": 55,
      "hit": false,
      "t": 224181.5940000001,
      "d": 90.9090000000142,
      "v": 97
    },
    {
      "midi": 67,
      "hit": false,
      "t": 224454.3210000001,
      "d": 59.09085000000778,
      "v": 101
    },
    {
      "midi": 64,
      "hit": false,
      "t": 224454.3210000001,
      "d": 84.09082500002114,
      "v": 101
    },
    {
      "midi": 71,
      "hit": false,
      "t": 224454.3210000001,
      "d": 88.63627500002622,
      "v": 101
    },
    {
      "midi": 69,
      "hit": false,
      "t": 224727.04800000016,
      "d": 395.45415000000503,
      "v": 101
    },
    {
      "midi": 62,
      "hit": false,
      "t": 224727.04800000016,
      "d": 406.81777500000317,
      "v": 101
    },
    {
      "midi": 66,
      "hit": false,
      "t": 224727.04800000016,
      "d": 422.7268500000064,
      "v": 97
    },
    {
      "midi": 55,
      "hit": false,
      "t": 224727.04800000016,
      "d": 511.3631250000035,
      "v": 101
    },
    {
      "midi": 69,
      "hit": false,
      "t": 225272.50200000015,
      "d": 420.4541250000184,
      "v": 101
    },
    {
      "midi": 62,
      "hit": false,
      "t": 225272.50200000015,
      "d": 440.9086500000267,
      "v": 101
    },
    {
      "midi": 66,
      "hit": false,
      "t": 225408.86550000016,
      "d": 9.090900000010151,
      "v": 16
    },
    {
      "midi": 55,
      "hit": false,
      "t": 225817.95600000018,
      "d": 61.36357499999576,
      "v": 87
    },
    {
      "midi": 66,
      "hit": false,
      "t": 225817.95600000018,
      "d": 70.45447500000591,
      "v": 101
    },
    {
      "midi": 62,
      "hit": false,
      "t": 225817.95600000018,
      "d": 74.99992500001099,
      "v": 101
    },
    {
      "midi": 69,
      "hit": false,
      "t": 225817.95600000018,
      "d": 86.36355000000913,
      "v": 101
    },
    {
      "midi": 66,
      "hit": false,
      "t": 226090.6830000002,
      "d": 265.90882499999134,
      "v": 101
    },
    {
      "midi": 62,
      "hit": false,
      "t": 226090.6830000002,
      "d": 295.4542499999807,
      "v": 101
    },
    {
      "midi": 69,
      "hit": false,
      "t": 226090.6830000002,
      "d": 329.5451249999751,
      "v": 101
    },
    {
      "midi": 55,
      "hit": false,
      "t": 226363.41000000018,
      "d": 113.63624999998137,
      "v": 101
    },
    {
      "midi": 62,
      "hit": false,
      "t": 226636.13700000016,
      "d": 122.72714999999152,
      "v": 101
    },
    {
      "midi": 66,
      "hit": false,
      "t": 226636.13700000016,
      "d": 131.81805000000168,
      "v": 92
    },
    {
      "midi": 69,
      "hit": false,
      "t": 226636.13700000016,
      "d": 163.6362000000081,
      "v": 101
    },
    {
      "midi": 55,
      "hit": false,
      "t": 226908.86400000018,
      "d": 318.18150000000605,
      "v": 101
    },
    {
      "midi": 55,
      "hit": false,
      "t": 227317.9545000002,
      "d": 88.63627499999711,
      "v": 97
    },
    {
      "midi": 67,
      "hit": false,
      "t": 227454.3180000002,
      "d": 99.99989999999525,
      "v": 101
    },
    {
      "midi": 71,
      "hit": false,
      "t": 227454.3180000002,
      "d": 102.27262499998324,
      "v": 101
    },
    {
      "midi": 55,
      "hit": false,
      "t": 227727.0450000002,
      "d": 65.90902500000084,
      "v": 101
    },
    {
      "midi": 66,
      "hit": false,
      "t": 227727.0450000002,
      "d": 402.2723249999981,
      "v": 101
    },
    {
      "midi": 69,
      "hit": false,
      "t": 227727.0450000002,
      "d": 429.54502499999944,
      "v": 101
    },
    {
      "midi": 55,
      "hit": false,
      "t": 228272.49900000019,
      "d": 102.27262500001234,
      "v": 101
    },
    {
      "midi": 64,
      "hit": false,
      "t": 228545.2260000002,
      "d": 86.36355000000913,
      "v": 101
    },
    {
      "midi": 67,
      "hit": false,
      "t": 228545.2260000002,
      "d": 99.99989999999525,
      "v": 101
    },
    {
      "midi": 64,
      "hit": false,
      "t": 229090.6800000002,
      "d": 404.5450499999861,
      "v": 101
    },
    {
      "midi": 71,
      "hit": false,
      "t": 229090.6800000002,
      "d": 406.81777499997406,
      "v": 101
    },
    {
      "midi": 67,
      "hit": false,
      "t": 229090.6800000002,
      "d": 424.99957499996526,
      "v": 101
    },
    {
      "midi": 48,
      "hit": false,
      "t": 229090.6800000002,
      "d": 686.3629499999806,
      "v": 101
    },
    {
      "midi": 64,
      "hit": false,
      "t": 229636.13400000017,
      "d": 363.6360000000277,
      "v": 101
    },
    {
      "midi": 71,
      "hit": false,
      "t": 229636.13400000017,
      "d": 381.8178000000189,
      "v": 101
    },
    {
      "midi": 67,
      "hit": false,
      "t": 229636.13400000017,
      "d": 404.5450500000152,
      "v": 101
    },
    {
      "midi": 67,
      "hit": false,
      "t": 230181.58800000016,
      "d": 59.09085000000778,
      "v": 101
    },
    {
      "midi": 64,
      "hit": false,
      "t": 230181.58800000016,
      "d": 65.90902500000084,
      "v": 101
    },
    {
      "midi": 71,
      "hit": false,
      "t": 230181.58800000016,
      "d": 65.90902500000084,
      "v": 101
    },
    {
      "midi": 71,
      "hit": false,
      "t": 230454.31500000018,
      "d": 59.09085000000778,
      "v": 101
    },
    {
      "midi": 67,
      "hit": false,
      "t": 230454.31500000018,
      "d": 63.63630000001285,
      "v": 101
    },
    {
      "midi": 64,
      "hit": false,
      "t": 230454.31500000018,
      "d": 65.90902500000084,
      "v": 101
    },
    {
      "midi": 67,
      "hit": false,
      "t": 230999.76900000017,
      "d": 56.81812499999069,
      "v": 101
    },
    {
      "midi": 64,
      "hit": false,
      "t": 230999.76900000017,
      "d": 68.18174999998882,
      "v": 101
    },
    {
      "midi": 71,
      "hit": false,
      "t": 230999.76900000017,
      "d": 68.18174999998882,
      "v": 101
    },
    {
      "midi": 64,
      "hit": false,
      "t": 231272.49600000016,
      "d": 336.36329999999725,
      "v": 101
    },
    {
      "midi": 71,
      "hit": false,
      "t": 231272.49600000016,
      "d": 338.63602499998524,
      "v": 101
    },
    {
      "midi": 67,
      "hit": false,
      "t": 231272.49600000016,
      "d": 354.54509999998845,
      "v": 101
    },
    {
      "midi": 48,
      "hit": false,
      "t": 231272.49600000016,
      "d": 1074.9989249999926,
      "v": 101
    },
    {
      "midi": 71,
      "hit": false,
      "t": 231817.95000000016,
      "d": 413.6359499999962,
      "v": 101
    },
    {
      "midi": 64,
      "hit": false,
      "t": 231817.95000000016,
      "d": 420.4541249999893,
      "v": 101
    },
    {
      "midi": 67,
      "hit": false,
      "t": 231817.95000000016,
      "d": 427.27229999998235,
      "v": 101
    },
    {
      "midi": 55,
      "hit": false,
      "t": 232227.04050000015,
      "d": 70.45447500000591,
      "v": 87
    },
    {
      "midi": 67,
      "hit": false,
      "t": 232363.40400000016,
      "d": 59.09085000000778,
      "v": 101
    },
    {
      "midi": 71,
      "hit": false,
      "t": 232363.40400000016,
      "d": 65.90902500000084,
      "v": 101
    },
    {
      "midi": 64,
      "hit": false,
      "t": 232363.40400000016,
      "d": 68.18174999998882,
      "v": 101
    },
    {
      "midi": 64,
      "hit": false,
      "t": 232636.13100000014,
      "d": 336.36330000002636,
      "v": 101
    },
    {
      "midi": 67,
      "hit": false,
      "t": 232636.13100000014,
      "d": 356.81782500003465,
      "v": 101
    },
    {
      "midi": 71,
      "hit": false,
      "t": 232636.13100000014,
      "d": 359.09055000002263,
      "v": 101
    },
    {
      "midi": 55,
      "hit": false,
      "t": 232908.85800000015,
      "d": 90.9090000000142,
      "v": 97
    },
    {
      "midi": 67,
      "hit": false,
      "t": 233181.58500000017,
      "d": 59.09085000000778,
      "v": 101
    },
    {
      "midi": 64,
      "hit": false,
      "t": 233181.58500000017,
      "d": 84.09082500002114,
      "v": 101
    },
    {
      "midi": 71,
      "hit": false,
      "t": 233181.58500000017,
      "d": 88.63627500002622,
      "v": 101
    },
    {
      "midi": 69,
      "hit": false,
      "t": 233454.3120000002,
      "d": 395.45415000000503,
      "v": 101
    },
    {
      "midi": 62,
      "hit": false,
      "t": 233454.3120000002,
      "d": 406.81777500000317,
      "v": 101
    },
    {
      "midi": 66,
      "hit": false,
      "t": 233454.3120000002,
      "d": 422.7268500000064,
      "v": 97
    },
    {
      "midi": 55,
      "hit": false,
      "t": 233454.3120000002,
      "d": 511.3631250000035,
      "v": 101
    },
    {
      "midi": 69,
      "hit": false,
      "t": 233999.7660000002,
      "d": 420.4541250000184,
      "v": 101
    },
    {
      "midi": 62,
      "hit": false,
      "t": 233999.7660000002,
      "d": 440.9086500000267,
      "v": 101
    },
    {
      "midi": 66,
      "hit": false,
      "t": 234136.1295000002,
      "d": 9.090900000010151,
      "v": 16
    },
    {
      "midi": 55,
      "hit": false,
      "t": 234545.22000000023,
      "d": 61.36357499999576,
      "v": 87
    },
    {
      "midi": 66,
      "hit": false,
      "t": 234545.22000000023,
      "d": 70.45447500000591,
      "v": 101
    },
    {
      "midi": 62,
      "hit": false,
      "t": 234545.22000000023,
      "d": 74.99992500001099,
      "v": 101
    },
    {
      "midi": 69,
      "hit": false,
      "t": 234545.22000000023,
      "d": 86.36355000000913,
      "v": 101
    },
    {
      "midi": 66,
      "hit": false,
      "t": 234817.94700000025,
      "d": 265.90882499999134,
      "v": 101
    },
    {
      "midi": 62,
      "hit": false,
      "t": 234817.94700000025,
      "d": 295.4542499999807,
      "v": 101
    },
    {
      "midi": 69,
      "hit": false,
      "t": 234817.94700000025,
      "d": 329.5451249999751,
      "v": 101
    },
    {
      "midi": 55,
      "hit": false,
      "t": 235090.67400000023,
      "d": 113.63624999998137,
      "v": 101
    },
    {
      "midi": 62,
      "hit": false,
      "t": 235363.40100000022,
      "d": 122.72714999999152,
      "v": 101
    },
    {
      "midi": 66,
      "hit": false,
      "t": 235363.40100000022,
      "d": 131.81805000000168,
      "v": 92
    },
    {
      "midi": 69,
      "hit": false,
      "t": 235363.40100000022,
      "d": 163.6362000000081,
      "v": 101
    },
    {
      "midi": 55,
      "hit": false,
      "t": 235636.12800000023,
      "d": 318.18150000000605,
      "v": 101
    },
    {
      "midi": 55,
      "hit": false,
      "t": 236045.21850000025,
      "d": 88.63627499999711,
      "v": 97
    },
    {
      "midi": 67,
      "hit": false,
      "t": 236181.58200000026,
      "d": 99.99989999999525,
      "v": 101
    },
    {
      "midi": 71,
      "hit": false,
      "t": 236181.58200000026,
      "d": 102.27262499998324,
      "v": 101
    },
    {
      "midi": 55,
      "hit": false,
      "t": 236454.30900000024,
      "d": 65.90902500000084,
      "v": 101
    },
    {
      "midi": 66,
      "hit": false,
      "t": 236454.30900000024,
      "d": 402.2723249999981,
      "v": 101
    },
    {
      "midi": 69,
      "hit": false,
      "t": 236454.30900000024,
      "d": 429.54502499999944,
      "v": 101
    },
    {
      "midi": 55,
      "hit": false,
      "t": 236999.76300000024,
      "d": 102.27262500001234,
      "v": 101
    },
    {
      "midi": 64,
      "hit": false,
      "t": 237272.49000000025,
      "d": 86.36355000000913,
      "v": 101
    },
    {
      "midi": 67,
      "hit": false,
      "t": 237272.49000000025,
      "d": 99.99989999999525,
      "v": 101
    },
    {
      "midi": 67,
      "hit": false,
      "t": 237817.94400000025,
      "d": 463.63590000002296,
      "v": 101
    },
    {
      "midi": 71,
      "hit": false,
      "t": 237817.94400000025,
      "d": 468.18135000002803,
      "v": 101
    },
    {
      "midi": 74,
      "hit": false,
      "t": 237817.94400000025,
      "d": 468.18135000002803,
      "v": 101
    },
    {
      "midi": 74,
      "hit": false,
      "t": 238363.39800000028,
      "d": 397.726874999993,
      "v": 101
    },
    {
      "midi": 67,
      "hit": false,
      "t": 238363.39800000028,
      "d": 404.5450499999861,
      "v": 97
    },
    {
      "midi": 71,
      "hit": false,
      "t": 238363.39800000028,
      "d": 411.36322499997914,
      "v": 101
    },
    {
      "midi": 71,
      "hit": false,
      "t": 238908.85200000025,
      "d": 61.36357499999576,
      "v": 101
    },
    {
      "midi": 74,
      "hit": false,
      "t": 238908.85200000025,
      "d": 65.90902500000084,
      "v": 101
    },
    {
      "midi": 67,
      "hit": false,
      "t": 238908.85200000025,
      "d": 77.27264999999898,
      "v": 97
    },
    {
      "midi": 71,
      "hit": false,
      "t": 239181.57900000026,
      "d": 309.090600000025,
      "v": 101
    },
    {
      "midi": 67,
      "hit": false,
      "t": 239181.57900000026,
      "d": 311.363325000013,
      "v": 101
    },
    {
      "midi": 74,
      "hit": false,
      "t": 239181.57900000026,
      "d": 311.363325000013,
      "v": 101
    },
    {
      "midi": 48,
      "hit": false,
      "t": 239454.30600000027,
      "d": 61.36357499999576,
      "v": 97
    },
    {
      "midi": 55,
      "hit": false,
      "t": 239454.30600000027,
      "d": 65.90902500000084,
      "v": 101
    },
    {
      "midi": 74,
      "hit": false,
      "t": 239727.0330000003,
      "d": 74.99992500001099,
      "v": 82
    },
    {
      "midi": 71,
      "hit": false,
      "t": 239727.0330000003,
      "d": 84.09082500002114,
      "v": 92
    },
    {
      "midi": 67,
      "hit": false,
      "t": 239727.0330000003,
      "d": 106.81807500001742,
      "v": 92
    },
    {
      "midi": 74,
      "hit": false,
      "t": 239999.7600000003,
      "d": 377.27235000001383,
      "v": 101
    },
    {
      "midi": 67,
      "hit": false,
      "t": 239999.7600000003,
      "d": 384.0905250000069,
      "v": 97
    },
    {
      "midi": 71,
      "hit": false,
      "t": 239999.7600000003,
      "d": 390.90869999999995,
      "v": 101
    },
    {
      "midi": 55,
      "hit": false,
      "t": 239999.7600000003,
      "d": 477.2722500000091,
      "v": 101
    },
    {
      "midi": 48,
      "hit": false,
      "t": 239999.7600000003,
      "d": 488.6358750000072,
      "v": 101
    },
    {
      "midi": 74,
      "hit": false,
      "t": 240545.2140000003,
      "d": 315.90877499998896,
      "v": 101
    },
    {
      "midi": 71,
      "hit": false,
      "t": 240545.2140000003,
      "d": 327.2723999999871,
      "v": 101
    },
    {
      "midi": 67,
      "hit": false,
      "t": 240545.2140000003,
      "d": 331.8178499999922,
      "v": 101
    },
    {
      "midi": 71,
      "hit": false,
      "t": 240954.3045000003,
      "d": 43.18177500000456,
      "v": 101
    },
    {
      "midi": 74,
      "hit": false,
      "t": 240954.3045000003,
      "d": 49.999949999997625,
      "v": 101
    },
    {
      "midi": 67,
      "hit": false,
      "t": 240954.3045000003,
      "d": 61.36357499999576,
      "v": 77
    },
    {
      "midi": 71,
      "hit": false,
      "t": 241090.6680000003,
      "d": 68.18174999998882,
      "v": 101
    },
    {
      "midi": 67,
      "hit": false,
      "t": 241090.6680000003,
      "d": 86.36354999998002,
      "v": 73
    },
    {
      "midi": 74,
      "hit": false,
      "t": 241090.6680000003,
      "d": 95.45444999999017,
      "v": 101
    },
    {
      "midi": 67,
      "hit": false,
      "t": 241363.39500000028,
      "d": 315.90877499998896,
      "v": 101
    },
    {
      "midi": 74,
      "hit": false,
      "t": 241363.39500000028,
      "d": 340.9087500000023,
      "v": 101
    },
    {
      "midi": 71,
      "hit": false,
      "t": 241363.39500000028,
      "d": 347.7269249999954,
      "v": 101
    },
    {
      "midi": 71,
      "hit": false,
      "t": 241908.84900000028,
      "d": 47.72722500000964,
      "v": 97
    },
    {
      "midi": 74,
      "hit": false,
      "t": 241908.84900000028,
      "d": 63.63630000001285,
      "v": 101
    },
    {
      "midi": 67,
      "hit": false,
      "t": 241908.84900000028,
      "d": 84.09082500002114,
      "v": 101
    },
    {
      "midi": 64,
      "hit": false,
      "t": 242181.5760000003,
      "d": 349.9996500000125,
      "v": 101
    },
    {
      "midi": 57,
      "hit": false,
      "t": 242181.5760000003,
      "d": 363.6359999999986,
      "v": 101
    },
    {
      "midi": 60,
      "hit": false,
      "t": 242181.5760000003,
      "d": 372.72690000000875,
      "v": 101
    },
    {
      "midi": 45,
      "hit": false,
      "t": 242181.5760000003,
      "d": 656.8175249999913,
      "v": 101
    },
    {
      "midi": 55,
      "hit": false,
      "t": 242727.0300000003,
      "d": 331.8178499999922,
      "v": 101
    },
    {
      "midi": 64,
      "hit": false,
      "t": 242727.0300000003,
      "d": 352.27237500000047,
      "v": 101
    },
    {
      "midi": 60,
      "hit": false,
      "t": 242727.0300000003,
      "d": 356.81782500000554,
      "v": 101
    },
    {
      "midi": 45,
      "hit": false,
      "t": 242999.75700000027,
      "d": 188.63617500002147,
      "v": 101
    },
    {
      "midi": 60,
      "hit": false,
      "t": 243272.4840000003,
      "d": 65.90902500000084,
      "v": 101
    },
    {
      "midi": 64,
      "hit": false,
      "t": 243272.4840000003,
      "d": 77.27264999999898,
      "v": 101
    },
    {
      "midi": 57,
      "hit": false,
      "t": 243272.4840000003,
      "d": 81.81810000000405,
      "v": 101
    },
    {
      "midi": 57,
      "hit": false,
      "t": 243545.2110000003,
      "d": 340.9087500000023,
      "v": 101
    },
    {
      "midi": 60,
      "hit": false,
      "t": 243545.2110000003,
      "d": 359.0905499999935,
      "v": 101
    },
    {
      "midi": 64,
      "hit": false,
      "t": 243545.2110000003,
      "d": 384.0905250000069,
      "v": 101
    },
    {
      "midi": 45,
      "hit": false,
      "t": 243817.93800000031,
      "d": 136.36349999997765,
      "v": 101
    },
    {
      "midi": 62,
      "hit": false,
      "t": 244363.39200000028,
      "d": 156.81802499998594,
      "v": 101
    },
    {
      "midi": 69,
      "hit": false,
      "t": 244363.39200000028,
      "d": 156.81802499998594,
      "v": 101
    },
    {
      "midi": 66,
      "hit": false,
      "t": 244363.39200000028,
      "d": 165.9089249999961,
      "v": 101
    },
    {
      "midi": 62,
      "hit": false,
      "t": 244636.11900000027,
      "d": 138.63622499999474,
      "v": 101
    },
    {
      "midi": 66,
      "hit": false,
      "t": 244636.11900000027,
      "d": 149.99984999999288,
      "v": 101
    },
    {
      "midi": 69,
      "hit": false,
      "t": 244636.11900000027,
      "d": 154.54529999999795,
      "v": 101
    },
    {
      "midi": 62,
      "hit": false,
      "t": 244908.84600000025,
      "d": 138.63622499999474,
      "v": 101
    },
    {
      "midi": 66,
      "hit": false,
      "t": 244908.84600000025,
      "d": 145.4543999999878,
      "v": 101
    },
    {
      "midi": 69,
      "hit": false,
      "t": 244908.84600000025,
      "d": 149.99984999999288,
      "v": 101
    },
    {
      "midi": 62,
      "hit": false,
      "t": 245181.57300000024,
      "d": 124.99987500000861,
      "v": 101
    },
    {
      "midi": 66,
      "hit": false,
      "t": 245181.57300000024,
      "d": 129.5453250000137,
      "v": 101
    },
    {
      "midi": 59,
      "hit": false,
      "t": 245181.57300000024,
      "d": 143.1816749999998,
      "v": 101
    },
    {
      "midi": 69,
      "hit": false,
      "t": 245181.57300000024,
      "d": 152.27257500000997,
      "v": 101
    }
  ]
}