{
  "jsonPath": "Rock/Kc Indie/Ha Ha Tonka/the-outpouring-album.json",
  "path": "Rock\\Kc Indie\\Ha Ha Tonka\\The Outpouring (Album).mid",
  "name": "The Outpouring (Album)",
  "difficulty": "Advanced",
  "bpm": 60,
  "notes": [
    {
      "midi": 1,
      "hit": false,
      "t": 0,
      "d": 4000,
      "v": 127
    },
    {
      "midi": 1,
      "hit": false,
      "t": 0,
      "d": 3916.6666666666665,
      "v": 127
    },
    {
      "midi": 63,
      "hit": false,
      "t": 8000,
      "d": 3604.166666666666,
      "v": 127
    },
    {
      "midi": 66,
      "hit": false,
      "t": 8000,
      "d": 3697.916666666666,
      "v": 127
    },
    {
      "midi": 59,
      "hit": false,
      "t": 8010.416666666667,
      "d": 3593.749999999999,
      "v": 127
    },
    {
      "midi": 80,
      "hit": false,
      "t": 8020.833333333334,
      "d": 333.33333333333394,
      "v": 127
    },
    {
      "midi": 78,
      "hit": false,
      "t": 8364.583333333334,
      "d": 333.3333333333321,
      "v": 127
    },
    {
      "midi": 75,
      "hit": false,
      "t": 8687.5,
      "d": 385.41666666666606,
      "v": 127
    },
    {
      "midi": 80,
      "hit": false,
      "t": 9031.25,
      "d": 322.91666666666606,
      "v": 127
    },
    {
      "midi": 78,
      "hit": false,
      "t": 9354.166666666666,
      "d": 343.75,
      "v": 127
    },
    {
      "midi": 75,
      "hit": false,
      "t": 9687.5,
      "d": 354.16666666666606,
      "v": 127
    },
    {
      "midi": 80,
      "hit": false,
      "t": 10000,
      "d": 343.75,
      "v": 127
    },
    {
      "midi": 78,
      "hit": false,
      "t": 10354.166666666666,
      "d": 343.75,
      "v": 127
    },
    {
      "midi": 75,
      "hit": false,
      "t": 10687.5,
      "d": 375,
      "v": 127
    },
    {
      "midi": 80,
      "hit": false,
      "t": 11010.416666666666,
      "d": 354.16666666666606,
      "v": 127
    },
    {
      "midi": 78,
      "hit": false,
      "t": 11354.166666666666,
      "d": 354.16666666666606,
      "v": 127
    },
    {
      "midi": 75,
      "hit": false,
      "t": 11677.083333333332,
      "d": 270.83333333333394,
      "v": 127
    },
    {
      "midi": 58,
      "hit": false,
      "t": 11989.583333333332,
      "d": 3343.7499999999964,
      "v": 127
    },
    {
      "midi": 61,
      "hit": false,
      "t": 11989.583333333332,
      "d": 3395.8333333333303,
      "v": 127
    },
    {
      "midi": 66,
      "hit": false,
      "t": 11989.583333333332,
      "d": 3552.0833333333303,
      "v": 127
    },
    {
      "midi": 80,
      "hit": false,
      "t": 12020.833333333332,
      "d": 312.5,
      "v": 127
    },
    {
      "midi": 78,
      "hit": false,
      "t": 12354.166666666666,
      "d": 322.91666666666606,
      "v": 127
    },
    {
      "midi": 73,
      "hit": false,
      "t": 12666.666666666666,
      "d": 385.41666666666606,
      "v": 127
    },
    {
      "midi": 80,
      "hit": false,
      "t": 13010.416666666666,
      "d": 333.3333333333321,
      "v": 127
    },
    {
      "midi": 78,
      "hit": false,
      "t": 13343.749999999998,
      "d": 343.75,
      "v": 127
    },
    {
      "midi": 73,
      "hit": false,
      "t": 13677.083333333332,
      "d": 385.41666666666606,
      "v": 127
    },
    {
      "midi": 80,
      "hit": false,
      "t": 13999.999999999998,
      "d": 333.3333333333321,
      "v": 127
    },
    {
      "midi": 78,
      "hit": false,
      "t": 14322.916666666664,
      "d": 343.7499999999982,
      "v": 127
    },
    {
      "midi": 73,
      "hit": false,
      "t": 14656.249999999996,
      "d": 354.16666666666606,
      "v": 127
    },
    {
      "midi": 80,
      "hit": false,
      "t": 14979.166666666662,
      "d": 354.16666666666606,
      "v": 127
    },
    {
      "midi": 78,
      "hit": false,
      "t": 15322.916666666662,
      "d": 333.33333333333394,
      "v": 127
    },
    {
      "midi": 73,
      "hit": false,
      "t": 15666.666666666662,
      "d": 187.5,
      "v": 127
    },
    {
      "midi": 59,
      "hit": false,
      "t": 15979.166666666662,
      "d": 3625.000000000009,
      "v": 127
    },
    {
      "midi": 63,
      "hit": false,
      "t": 15979.166666666662,
      "d": 3625.000000000009,
      "v": 127
    },
    {
      "midi": 66,
      "hit": false,
      "t": 15979.166666666662,
      "d": 3645.833333333341,
      "v": 127
    },
    {
      "midi": 80,
      "hit": false,
      "t": 16010.416666666662,
      "d": 312.5,
      "v": 127
    },
    {
      "midi": 78,
      "hit": false,
      "t": 16322.916666666662,
      "d": 281.2500000000018,
      "v": 127
    },
    {
      "midi": 75,
      "hit": false,
      "t": 16677.083333333332,
      "d": 343.75,
      "v": 127
    },
    {
      "midi": 80,
      "hit": false,
      "t": 17010.416666666664,
      "d": 333.33333333333576,
      "v": 127
    },
    {
      "midi": 78,
      "hit": false,
      "t": 17354.166666666668,
      "d": 322.9166666666679,
      "v": 127
    },
    {
      "midi": 75,
      "hit": false,
      "t": 17687.500000000004,
      "d": 322.9166666666679,
      "v": 127
    },
    {
      "midi": 80,
      "hit": false,
      "t": 18020.83333333334,
      "d": 333.3333333333321,
      "v": 127
    },
    {
      "midi": 78,
      "hit": false,
      "t": 18354.16666666667,
      "d": 322.9166666666679,
      "v": 127
    },
    {
      "midi": 75,
      "hit": false,
      "t": 18666.66666666667,
      "d": 385.4166666666679,
      "v": 127
    },
    {
      "midi": 80,
      "hit": false,
      "t": 19010.41666666667,
      "d": 354.1666666666679,
      "v": 127
    },
    {
      "midi": 78,
      "hit": false,
      "t": 19354.16666666667,
      "d": 333.3333333333321,
      "v": 127
    },
    {
      "midi": 75,
      "hit": false,
      "t": 19697.91666666667,
      "d": 250,
      "v": 127
    },
    {
      "midi": 66,
      "hit": false,
      "t": 20010.41666666667,
      "d": 2635.4166666666715,
      "v": 127
    },
    {
      "midi": 58,
      "hit": false,
      "t": 20010.41666666667,
      "d": 3395.8333333333394,
      "v": 127
    },
    {
      "midi": 61,
      "hit": false,
      "t": 20010.41666666667,
      "d": 3395.8333333333394,
      "v": 127
    },
    {
      "midi": 80,
      "hit": false,
      "t": 20041.66666666667,
      "d": 302.0833333333321,
      "v": 127
    },
    {
      "midi": 78,
      "hit": false,
      "t": 20343.750000000004,
      "d": 354.1666666666679,
      "v": 127
    },
    {
      "midi": 73,
      "hit": false,
      "t": 20687.500000000004,
      "d": 354.1666666666679,
      "v": 127
    },
    {
      "midi": 80,
      "hit": false,
      "t": 21020.83333333334,
      "d": 312.5,
      "v": 127
    },
    {
      "midi": 78,
      "hit": false,
      "t": 21343.750000000007,
      "d": 354.1666666666679,
      "v": 127
    },
    {
      "midi": 73,
      "hit": false,
      "t": 21687.500000000007,
      "d": 458.33333333333576,
      "v": 127
    },
    {
      "midi": 80,
      "hit": false,
      "t": 22010.416666666675,
      "d": 364.58333333333576,
      "v": 127
    },
    {
      "midi": 78,
      "hit": false,
      "t": 22343.75000000001,
      "d": 333.3333333333321,
      "v": 127
    },
    {
      "midi": 73,
      "hit": false,
      "t": 22666.666666666675,
      "d": 343.75000000000364,
      "v": 127
    },
    {
      "midi": 66,
      "hit": false,
      "t": 23000.00000000001,
      "d": 354.1666666666679,
      "v": 127
    },
    {
      "midi": 68,
      "hit": false,
      "t": 23343.75000000001,
      "d": 145.83333333333212,
      "v": 127
    },
    {
      "midi": 73,
      "hit": false,
      "t": 23343.75000000001,
      "d": 333.3333333333321,
      "v": 127
    },
    {
      "midi": 70,
      "hit": false,
      "t": 23510.416666666675,
      "d": 187.50000000000364,
      "v": 127
    },
    {
      "midi": 68,
      "hit": false,
      "t": 23687.50000000001,
      "d": 135.41666666666788,
      "v": 127
    },
    {
      "midi": 66,
      "hit": false,
      "t": 23843.75000000001,
      "d": 156.25,
      "v": 127
    },
    {
      "midi": 59,
      "hit": false,
      "t": 24000.00000000001,
      "d": 1885.4166666666642,
      "v": 127
    },
    {
      "midi": 75,
      "hit": false,
      "t": 24020.833333333343,
      "d": 677.0833333333321,
      "v": 127
    },
    {
      "midi": 63,
      "hit": false,
      "t": 24354.166666666675,
      "d": 1375,
      "v": 127
    },
    {
      "midi": 66,
      "hit": false,
      "t": 24687.500000000007,
      "d": 729.1666666666679,
      "v": 127
    },
    {
      "midi": 75,
      "hit": false,
      "t": 25020.833333333343,
      "d": 1833.3333333333321,
      "v": 127
    },
    {
      "midi": 71,
      "hit": false,
      "t": 25354.166666666675,
      "d": 1375,
      "v": 127
    },
    {
      "midi": 66,
      "hit": false,
      "t": 25687.500000000007,
      "d": 468.75,
      "v": 127
    },
    {
      "midi": 59,
      "hit": false,
      "t": 26000.000000000007,
      "d": 1541.6666666666715,
      "v": 127
    },
    {
      "midi": 63,
      "hit": false,
      "t": 26354.166666666675,
      "d": 1187.5000000000036,
      "v": 127
    },
    {
      "midi": 66,
      "hit": false,
      "t": 26687.500000000007,
      "d": 885.4166666666715,
      "v": 127
    },
    {
      "midi": 71,
      "hit": false,
      "t": 27020.833333333343,
      "d": 395.83333333333576,
      "v": 127
    },
    {
      "midi": 75,
      "hit": false,
      "t": 27343.75000000001,
      "d": 677.0833333333321,
      "v": 127
    },
    {
      "midi": 71,
      "hit": false,
      "t": 27687.50000000001,
      "d": 281.25,
      "v": 127
    },
    {
      "midi": 58,
      "hit": false,
      "t": 27989.583333333343,
      "d": 1885.4166666666642,
      "v": 127
    },
    {
      "midi": 73,
      "hit": false,
      "t": 28020.833333333343,
      "d": 968.75,
      "v": 127
    },
    {
      "midi": 70,
      "hit": false,
      "t": 28343.75000000001,
      "d": 458.3333333333321,
      "v": 127
    },
    {
      "midi": 61,
      "hit": false,
      "t": 28677.083333333343,
      "d": 968.7499999999964,
      "v": 127
    },
    {
      "midi": 70,
      "hit": false,
      "t": 29010.416666666675,
      "d": 364.5833333333321,
      "v": 127
    },
    {
      "midi": 66,
      "hit": false,
      "t": 29010.416666666675,
      "d": 635.4166666666642,
      "v": 127
    },
    {
      "midi": 78,
      "hit": false,
      "t": 29010.416666666675,
      "d": 1614.5833333333358,
      "v": 127
    },
    {
      "midi": 73,
      "hit": false,
      "t": 29343.750000000007,
      "d": 958.3333333333358,
      "v": 127
    },
    {
      "midi": 70,
      "hit": false,
      "t": 29677.08333333334,
      "d": 697.9166666666715,
      "v": 127
    },
    {
      "midi": 58,
      "hit": false,
      "t": 30010.416666666675,
      "d": 1479.1666666666715,
      "v": 127
    },
    {
      "midi": 61,
      "hit": false,
      "t": 30333.333333333343,
      "d": 822.9166666666679,
      "v": 127
    },
    {
      "midi": 66,
      "hit": false,
      "t": 30677.083333333343,
      "d": 312.5,
      "v": 127
    },
    {
      "midi": 68,
      "hit": false,
      "t": 31010.416666666675,
      "d": 104.16666666666788,
      "v": 127
    },
    {
      "midi": 73,
      "hit": false,
      "t": 31010.416666666675,
      "d": 666.6666666666752,
      "v": 127
    },
    {
      "midi": 70,
      "hit": false,
      "t": 31187.50000000001,
      "d": 156.25,
      "v": 127
    },
    {
      "midi": 68,
      "hit": false,
      "t": 31354.16666666668,
      "d": 312.50000000000364,
      "v": 127
    },
    {
      "midi": 61,
      "hit": false,
      "t": 31656.250000000015,
      "d": 270.83333333333576,
      "v": 127
    },
    {
      "midi": 66,
      "hit": false,
      "t": 31687.50000000002,
      "d": 302.0833333333321,
      "v": 127
    },
    {
      "midi": 71,
      "hit": false,
      "t": 32000.00000000002,
      "d": 1239.5833333333321,
      "v": 127
    },
    {
      "midi": 75,
      "hit": false,
      "t": 32010.416666666686,
      "d": 1291.6666666666642,
      "v": 127
    },
    {
      "midi": 59,
      "hit": false,
      "t": 32020.833333333354,
      "d": 1520.8333333333248,
      "v": 127
    },
    {
      "midi": 66,
      "hit": false,
      "t": 32354.166666666686,
      "d": 760.4166666666642,
      "v": 127
    },
    {
      "midi": 63,
      "hit": false,
      "t": 33052.08333333335,
      "d": 1010.4166666666642,
      "v": 127
    },
    {
      "midi": 66,
      "hit": false,
      "t": 33406.250000000015,
      "d": 1062.5,
      "v": 127
    },
    {
      "midi": 71,
      "hit": false,
      "t": 33718.750000000015,
      "d": 1020.8333333333358,
      "v": 127
    },
    {
      "midi": 59,
      "hit": false,
      "t": 34052.08333333335,
      "d": 1552.0833333333358,
      "v": 127
    },
    {
      "midi": 63,
      "hit": false,
      "t": 34385.41666666668,
      "d": 979.1666666666715,
      "v": 127
    },
    {
      "midi": 66,
      "hit": false,
      "t": 34708.33333333335,
      "d": 406.25,
      "v": 127
    },
    {
      "midi": 71,
      "hit": false,
      "t": 35041.666666666686,
      "d": 739.5833333333358,
      "v": 127
    },
    {
      "midi": 66,
      "hit": false,
      "t": 35364.58333333335,
      "d": 427.08333333333576,
      "v": 127
    },
    {
      "midi": 63,
      "hit": false,
      "t": 35718.75000000002,
      "d": 322.91666666666424,
      "v": 127
    },
    {
      "midi": 66,
      "hit": false,
      "t": 36031.25000000002,
      "d": 458.3333333333285,
      "v": 127
    },
    {
      "midi": 70,
      "hit": false,
      "t": 36031.25000000002,
      "d": 624.9999999999927,
      "v": 127
    },
    {
      "midi": 58,
      "hit": false,
      "t": 36031.25000000002,
      "d": 1541.6666666666642,
      "v": 127
    },
    {
      "midi": 73,
      "hit": false,
      "t": 36031.25000000002,
      "d": 2322.9166666666642,
      "v": 127
    },
    {
      "midi": 61,
      "hit": false,
      "t": 36354.166666666686,
      "d": 1052.0833333333358,
      "v": 127
    },
    {
      "midi": 66,
      "hit": false,
      "t": 36708.33333333335,
      "d": 447.9166666666715,
      "v": 127
    },
    {
      "midi": 70,
      "hit": false,
      "t": 37041.666666666686,
      "d": 1145.8333333333358,
      "v": 127
    },
    {
      "midi": 66,
      "hit": false,
      "t": 37385.416666666686,
      "d": 645.8333333333358,
      "v": 127
    },
    {
      "midi": 61,
      "hit": false,
      "t": 37687.50000000002,
      "d": 343.75,
      "v": 127
    },
    {
      "midi": 58,
      "hit": false,
      "t": 38020.83333333336,
      "d": 1395.8333333333358,
      "v": 127
    },
    {
      "midi": 61,
      "hit": false,
      "t": 38343.75000000002,
      "d": 1000.0000000000073,
      "v": 127
    },
    {
      "midi": 68,
      "hit": false,
      "t": 38656.25000000002,
      "d": 135.41666666667152,
      "v": 127
    },
    {
      "midi": 73,
      "hit": false,
      "t": 38677.08333333336,
      "d": 1010.4166666666715,
      "v": 127
    },
    {
      "midi": 70,
      "hit": false,
      "t": 38822.91666666669,
      "d": 156.25,
      "v": 127
    },
    {
      "midi": 68,
      "hit": false,
      "t": 39010.41666666669,
      "d": 302.08333333333576,
      "v": 127
    },
    {
      "midi": 66,
      "hit": false,
      "t": 39343.75000000003,
      "d": 406.25,
      "v": 127
    },
    {
      "midi": 61,
      "hit": false,
      "t": 39666.66666666669,
      "d": 312.5,
      "v": 127
    },
    {
      "midi": 75,
      "hit": false,
      "t": 40000.00000000003,
      "d": 2656.25,
      "v": 127
    },
    {
      "midi": 59,
      "hit": false,
      "t": 40020.833333333365,
      "d": 1656.25,
      "v": 127
    },
    {
      "midi": 66,
      "hit": false,
      "t": 40354.1666666667,
      "d": 708.3333333333358,
      "v": 127
    },
    {
      "midi": 63,
      "hit": false,
      "t": 40687.50000000004,
      "d": 708.3333333333285,
      "v": 127
    },
    {
      "midi": 71,
      "hit": false,
      "t": 41020.83333333337,
      "d": 1385.416666666657,
      "v": 127
    },
    {
      "midi": 66,
      "hit": false,
      "t": 41354.1666666667,
      "d": 1010.4166666666642,
      "v": 127
    },
    {
      "midi": 63,
      "hit": false,
      "t": 41666.6666666667,
      "d": 343.75,
      "v": 127
    },
    {
      "midi": 59,
      "hit": false,
      "t": 41989.583333333365,
      "d": 1406.2499999999927,
      "v": 127
    },
    {
      "midi": 63,
      "hit": false,
      "t": 42322.9166666667,
      "d": 1031.2499999999927,
      "v": 127
    },
    {
      "midi": 66,
      "hit": false,
      "t": 42645.833333333365,
      "d": 697.9166666666642,
      "v": 127
    },
    {
      "midi": 75,
      "hit": false,
      "t": 42989.583333333365,
      "d": 885.4166666666642,
      "v": 127
    },
    {
      "midi": 71,
      "hit": false,
      "t": 43312.50000000003,
      "d": 885.4166666666715,
      "v": 127
    },
    {
      "midi": 66,
      "hit": false,
      "t": 43666.66666666669,
      "d": 708.333333333343,
      "v": 127
    },
    {
      "midi": 58,
      "hit": false,
      "t": 43989.583333333365,
      "d": 1739.5833333333503,
      "v": 127
    },
    {
      "midi": 61,
      "hit": false,
      "t": 44312.50000000004,
      "d": 1364.583333333343,
      "v": 127
    },
    {
      "midi": 66,
      "hit": false,
      "t": 44677.08333333337,
      "d": 697.9166666666715,
      "v": 127
    },
    {
      "midi": 73,
      "hit": false,
      "t": 45010.41666666671,
      "d": 1031.2500000000073,
      "v": 127
    },
    {
      "midi": 70,
      "hit": false,
      "t": 45354.16666666671,
      "d": 666.6666666666715,
      "v": 127
    },
    {
      "midi": 66,
      "hit": false,
      "t": 45677.08333333338,
      "d": 343.75,
      "v": 127
    },
    {
      "midi": 61,
      "hit": false,
      "t": 45989.58333333338,
      "d": 1125.0000000000073,
      "v": 127
    },
    {
      "midi": 68,
      "hit": false,
      "t": 46364.58333333338,
      "d": 177.08333333333576,
      "v": 127
    },
    {
      "midi": 70,
      "hit": false,
      "t": 46510.416666666715,
      "d": 354.1666666666715,
      "v": 127
    },
    {
      "midi": 78,
      "hit": false,
      "t": 46687.50000000005,
      "d": 1072.9166666666642,
      "v": 127
    },
    {
      "midi": 66,
      "hit": false,
      "t": 47041.66666666672,
      "d": 385.41666666666424,
      "v": 127
    },
    {
      "midi": 70,
      "hit": false,
      "t": 47375.00000000005,
      "d": 406.25,
      "v": 127
    },
    {
      "midi": 61,
      "hit": false,
      "t": 47677.08333333339,
      "d": 250,
      "v": 127
    },
    {
      "midi": 66,
      "hit": false,
      "t": 47718.75000000005,
      "d": 447.9166666666715,
      "v": 127
    },
    {
      "midi": 59,
      "hit": false,
      "t": 48020.83333333339,
      "d": 1531.2500000000146,
      "v": 127
    },
    {
      "midi": 63,
      "hit": false,
      "t": 48343.75000000006,
      "d": 1062.5000000000073,
      "v": 127
    },
    {
      "midi": 66,
      "hit": false,
      "t": 48677.083333333394,
      "d": 406.25,
      "v": 127
    },
    {
      "midi": 75,
      "hit": false,
      "t": 49010.41666666673,
      "d": 2979.1666666666715,
      "v": 127
    },
    {
      "midi": 66,
      "hit": false,
      "t": 49354.16666666673,
      "d": 1010.4166666666715,
      "v": 127
    },
    {
      "midi": 63,
      "hit": false,
      "t": 49666.66666666674,
      "d": 343.75,
      "v": 127
    },
    {
      "midi": 59,
      "hit": false,
      "t": 50000.00000000007,
      "d": 1645.8333333333285,
      "v": 127
    },
    {
      "midi": 63,
      "hit": false,
      "t": 50333.3333333334,
      "d": 968.75,
      "v": 127
    },
    {
      "midi": 66,
      "hit": false,
      "t": 50656.250000000065,
      "d": 395.83333333333576,
      "v": 127
    },
    {
      "midi": 71,
      "hit": false,
      "t": 50989.5833333334,
      "d": 968.75,
      "v": 127
    },
    {
      "midi": 66,
      "hit": false,
      "t": 51322.91666666674,
      "d": 697.9166666666642,
      "v": 127
    },
    {
      "midi": 63,
      "hit": false,
      "t": 51645.8333333334,
      "d": 354.16666666666424,
      "v": 127
    },
    {
      "midi": 58,
      "hit": false,
      "t": 51979.16666666674,
      "d": 1750,
      "v": 127
    },
    {
      "midi": 61,
      "hit": false,
      "t": 52322.91666666674,
      "d": 1427.0833333333358,
      "v": 127
    },
    {
      "midi": 66,
      "hit": false,
      "t": 52656.25000000007,
      "d": 447.91666666666424,
      "v": 127
    },
    {
      "midi": 73,
      "hit": false,
      "t": 53000.00000000007,
      "d": 989.5833333333285,
      "v": 127
    },
    {
      "midi": 70,
      "hit": false,
      "t": 53354.16666666674,
      "d": 625,
      "v": 127
    },
    {
      "midi": 66,
      "hit": false,
      "t": 53656.25000000007,
      "d": 458.3333333333285,
      "v": 127
    },
    {
      "midi": 58,
      "hit": false,
      "t": 53979.16666666674,
      "d": 1645.8333333333358,
      "v": 127
    },
    {
      "midi": 61,
      "hit": false,
      "t": 54333.3333333334,
      "d": 1072.9166666666715,
      "v": 127
    },
    {
      "midi": 68,
      "hit": false,
      "t": 54666.66666666674,
      "d": 114.58333333333576,
      "v": 127
    },
    {
      "midi": 73,
      "hit": false,
      "t": 54666.66666666674,
      "d": 1374.9999999999927,
      "v": 127
    },
    {
      "midi": 70,
      "hit": false,
      "t": 54843.75000000007,
      "d": 135.41666666666424,
      "v": 127
    },
    {
      "midi": 68,
      "hit": false,
      "t": 55000.00000000007,
      "d": 333.33333333333576,
      "v": 127
    },
    {
      "midi": 66,
      "hit": false,
      "t": 55343.75000000007,
      "d": 656.2499999999927,
      "v": 127
    },
    {
      "midi": 61,
      "hit": false,
      "t": 55656.25000000007,
      "d": 135.41666666666424,
      "v": 127
    },
    {
      "midi": 58,
      "hit": false,
      "t": 55989.5833333334,
      "d": 1687.4999999999927,
      "v": 127
    },
    {
      "midi": 61,
      "hit": false,
      "t": 56333.333333333394,
      "d": 1354.1666666666642,
      "v": 127
    },
    {
      "midi": 65,
      "hit": false,
      "t": 56666.66666666673,
      "d": 750,
      "v": 127
    },
    {
      "midi": 70,
      "hit": false,
      "t": 57010.41666666673,
      "d": 1249.9999999999927,
      "v": 127
    },
    {
      "midi": 73,
      "hit": false,
      "t": 57010.41666666673,
      "d": 1249.9999999999927,
      "v": 127
    },
    {
      "midi": 65,
      "hit": false,
      "t": 57697.91666666672,
      "d": 500,
      "v": 127
    },
    {
      "midi": 59,
      "hit": false,
      "t": 58416.66666666672,
      "d": 1302.0833333333285,
      "v": 127
    },
    {
      "midi": 63,
      "hit": false,
      "t": 58739.58333333339,
      "d": 979.1666666666642,
      "v": 127
    },
    {
      "midi": 66,
      "hit": false,
      "t": 59083.33333333339,
      "d": 406.25,
      "v": 127
    },
    {
      "midi": 75,
      "hit": false,
      "t": 59083.33333333339,
      "d": 979.1666666666642,
      "v": 127
    },
    {
      "midi": 71,
      "hit": false,
      "t": 59406.25000000005,
      "d": 656.25,
      "v": 127
    },
    {
      "midi": 66,
      "hit": false,
      "t": 59750.00000000005,
      "d": 333.33333333333576,
      "v": 127
    },
    {
      "midi": 58,
      "hit": false,
      "t": 60041.666666666715,
      "d": 1697.9166666666642,
      "v": 127
    },
    {
      "midi": 61,
      "hit": false,
      "t": 60375.00000000005,
      "d": 1354.1666666666642,
      "v": 127
    },
    {
      "midi": 66,
      "hit": false,
      "t": 60697.916666666715,
      "d": 708.3333333333358,
      "v": 127
    },
    {
      "midi": 73,
      "hit": false,
      "t": 61010.416666666715,
      "d": 1135.4166666666642,
      "v": 127
    },
    {
      "midi": 70,
      "hit": false,
      "t": 61343.75000000005,
      "d": 927.0833333333285,
      "v": 127
    },
    {
      "midi": 66,
      "hit": false,
      "t": 61666.666666666715,
      "d": 770.8333333333358,
      "v": 127
    },
    {
      "midi": 58,
      "hit": false,
      "t": 61989.58333333338,
      "d": 1416.6666666666642,
      "v": 127
    },
    {
      "midi": 61,
      "hit": false,
      "t": 62322.916666666715,
      "d": 1020.8333333333285,
      "v": 127
    },
    {
      "midi": 68,
      "hit": false,
      "t": 62656.25000000005,
      "d": 135.41666666666424,
      "v": 127
    },
    {
      "midi": 73,
      "hit": false,
      "t": 62656.25000000005,
      "d": 1312.4999999999927,
      "v": 127
    },
    {
      "midi": 70,
      "hit": false,
      "t": 62822.916666666715,
      "d": 156.25,
      "v": 127
    },
    {
      "midi": 68,
      "hit": false,
      "t": 62989.58333333338,
      "d": 333.33333333333576,
      "v": 127
    },
    {
      "midi": 66,
      "hit": false,
      "t": 63333.33333333338,
      "d": 677.0833333333285,
      "v": 127
    },
    {
      "midi": 61,
      "hit": false,
      "t": 63656.250000000044,
      "d": 208.33333333333576,
      "v": 127
    },
    {
      "midi": 59,
      "hit": false,
      "t": 63979.16666666671,
      "d": 1479.166666666657,
      "v": 127
    },
    {
      "midi": 63,
      "hit": false,
      "t": 64333.33333333337,
      "d": 1083.3333333333285,
      "v": 127
    },
    {
      "midi": 66,
      "hit": false,
      "t": 64656.25000000004,
      "d": 416.66666666666424,
      "v": 127
    },
    {
      "midi": 71,
      "hit": false,
      "t": 64989.58333333337,
      "d": 1447.916666666657,
      "v": 127
    },
    {
      "midi": 75,
      "hit": false,
      "t": 65000.00000000004,
      "d": 1645.8333333333212,
      "v": 127
    },
    {
      "midi": 66,
      "hit": false,
      "t": 65343.75000000004,
      "d": 1052.0833333333212,
      "v": 127
    },
    {
      "midi": 63,
      "hit": false,
      "t": 65666.6666666667,
      "d": 395.8333333333285,
      "v": 127
    },
    {
      "midi": 59,
      "hit": false,
      "t": 66010.4166666667,
      "d": 1729.1666666666715,
      "v": 127
    },
    {
      "midi": 63,
      "hit": false,
      "t": 66343.75000000003,
      "d": 1416.6666666666715,
      "v": 127
    },
    {
      "midi": 66,
      "hit": false,
      "t": 66677.08333333336,
      "d": 729.1666666666715,
      "v": 127
    },
    {
      "midi": 75,
      "hit": false,
      "t": 66979.16666666669,
      "d": 833.333333333343,
      "v": 127
    },
    {
      "midi": 71,
      "hit": false,
      "t": 67333.33333333336,
      "d": 500,
      "v": 127
    },
    {
      "midi": 66,
      "hit": false,
      "t": 67697.9166666667,
      "d": 166.66666666665697,
      "v": 127
    },
    {
      "midi": 59,
      "hit": false,
      "t": 67989.58333333336,
      "d": 1489.583333333343,
      "v": 127
    },
    {
      "midi": 63,
      "hit": false,
      "t": 68354.16666666669,
      "d": 1135.416666666686,
      "v": 127
    },
    {
      "midi": 66,
      "hit": false,
      "t": 68677.08333333336,
      "d": 708.333333333343,
      "v": 127
    },
    {
      "midi": 75,
      "hit": false,
      "t": 68989.58333333336,
      "d": 645.833333333343,
      "v": 127
    },
    {
      "midi": 71,
      "hit": false,
      "t": 69343.75000000003,
      "d": 322.9166666666715,
      "v": 127
    },
    {
      "midi": 66,
      "hit": false,
      "t": 69656.25000000003,
      "d": 218.75,
      "v": 127
    },
    {
      "midi": 65,
      "hit": false,
      "t": 69989.58333333336,
      "d": 458.3333333333285,
      "v": 127
    },
    {
      "midi": 61,
      "hit": false,
      "t": 69989.58333333336,
      "d": 760.4166666666715,
      "v": 127
    },
    {
      "midi": 68,
      "hit": false,
      "t": 70010.41666666669,
      "d": 1364.583333333343,
      "v": 127
    },
    {
      "midi": 73,
      "hit": false,
      "t": 70010.41666666669,
      "d": 1364.583333333343,
      "v": 127
    },
    {
      "midi": 65,
      "hit": false,
      "t": 70677.08333333336,
      "d": 489.58333333334303,
      "v": 127
    },
    {
      "midi": 61,
      "hit": false,
      "t": 71031.25000000003,
      "d": 947.916666666657,
      "v": 127
    },
    {
      "midi": 65,
      "hit": false,
      "t": 71375.00000000003,
      "d": 520.8333333333285,
      "v": 127
    },
    {
      "midi": 68,
      "hit": false,
      "t": 71708.33333333336,
      "d": 239.58333333332848,
      "v": 127
    },
    {
      "midi": 54,
      "hit": false,
      "t": 72000.00000000001,
      "d": 1541.666666666657,
      "v": 127
    },
    {
      "midi": 61,
      "hit": false,
      "t": 72312.50000000001,
      "d": 1052.0833333333285,
      "v": 127
    },
    {
      "midi": 73,
      "hit": false,
      "t": 72656.25000000001,
      "d": 1364.5833333333285,
      "v": 127
    },
    {
      "midi": 68,
      "hit": false,
      "t": 72677.08333333334,
      "d": 322.9166666666715,
      "v": 127
    },
    {
      "midi": 70,
      "hit": false,
      "t": 72989.58333333334,
      "d": 1020.8333333333285,
      "v": 127
    },
    {
      "midi": 66,
      "hit": false,
      "t": 73343.75000000001,
      "d": 666.666666666657,
      "v": 127
    },
    {
      "midi": 61,
      "hit": false,
      "t": 73645.83333333334,
      "d": 343.75,
      "v": 127
    },
    {
      "midi": 54,
      "hit": false,
      "t": 73979.16666666667,
      "d": 1614.5833333333285,
      "v": 127
    },
    {
      "midi": 61,
      "hit": false,
      "t": 74312.50000000001,
      "d": 1072.916666666657,
      "v": 127
    },
    {
      "midi": 68,
      "hit": false,
      "t": 74656.25000000001,
      "d": 312.5,
      "v": 127
    },
    {
      "midi": 70,
      "hit": false,
      "t": 74989.58333333334,
      "d": 958.3333333333285,
      "v": 127
    },
    {
      "midi": 73,
      "hit": false,
      "t": 75010.41666666667,
      "d": 62.5,
      "v": 127
    },
    {
      "midi": 66,
      "hit": false,
      "t": 75312.5,
      "d": 822.9166666666715,
      "v": 127
    },
    {
      "midi": 61,
      "hit": false,
      "t": 75645.83333333333,
      "d": 229.16666666667152,
      "v": 127
    },
    {
      "midi": 59,
      "hit": false,
      "t": 75989.58333333334,
      "d": 1312.5,
      "v": 127
    },
    {
      "midi": 63,
      "hit": false,
      "t": 76333.33333333334,
      "d": 989.5833333333285,
      "v": 127
    },
    {
      "midi": 66,
      "hit": false,
      "t": 76666.66666666667,
      "d": 291.6666666666715,
      "v": 127
    },
    {
      "midi": 75,
      "hit": false,
      "t": 76989.58333333334,
      "d": 791.6666666666715,
      "v": 127
    },
    {
      "midi": 71,
      "hit": false,
      "t": 77333.33333333334,
      "d": 906.2500000000146,
      "v": 127
    },
    {
      "midi": 66,
      "hit": false,
      "t": 77656.25000000001,
      "d": 645.833333333343,
      "v": 127
    },
    {
      "midi": 59,
      "hit": false,
      "t": 77979.16666666669,
      "d": 1583.3333333333285,
      "v": 127
    },
    {
      "midi": 63,
      "hit": false,
      "t": 78302.08333333336,
      "d": 1239.5833333333285,
      "v": 127
    },
    {
      "midi": 66,
      "hit": false,
      "t": 78635.41666666669,
      "d": 562.5,
      "v": 127
    },
    {
      "midi": 66,
      "hit": false,
      "t": 79322.91666666669,
      "d": 416.66666666665697,
      "v": 127
    },
    {
      "midi": 71,
      "hit": false,
      "t": 79656.25000000001,
      "d": 333.3333333333285,
      "v": 127
    },
    {
      "midi": 54,
      "hit": false,
      "t": 80010.41666666667,
      "d": 1697.9166666666715,
      "v": 127
    },
    {
      "midi": 70,
      "hit": false,
      "t": 80031.25,
      "d": 322.9166666666715,
      "v": 127
    },
    {
      "midi": 66,
      "hit": false,
      "t": 80343.75,
      "d": 572.9166666666715,
      "v": 127
    },
    {
      "midi": 61,
      "hit": false,
      "t": 80677.08333333334,
      "d": 656.2499999999854,
      "v": 127
    },
    {
      "midi": 68,
      "hit": false,
      "t": 81000,
      "d": 354.1666666666715,
      "v": 127
    },
    {
      "midi": 73,
      "hit": false,
      "t": 81000,
      "d": 1375.0000000000146,
      "v": 127
    },
    {
      "midi": 66,
      "hit": false,
      "t": 81343.75,
      "d": 1031.2500000000146,
      "v": 127
    },
    {
      "midi": 61,
      "hit": false,
      "t": 81666.66666666667,
      "d": 333.33333333334303,
      "v": 127
    },
    {
      "midi": 54,
      "hit": false,
      "t": 81989.58333333334,
      "d": 1635.4166666666715,
      "v": 127
    },
    {
      "midi": 61,
      "hit": false,
      "t": 82333.33333333334,
      "d": 1020.833333333343,
      "v": 127
    },
    {
      "midi": 68,
      "hit": false,
      "t": 82656.25000000001,
      "d": 156.25,
      "v": 127
    },
    {
      "midi": 73,
      "hit": false,
      "t": 82656.25000000001,
      "d": 1343.75,
      "v": 127
    },
    {
      "midi": 70,
      "hit": false,
      "t": 82822.91666666669,
      "d": 520.8333333333285,
      "v": 127
    },
    {
      "midi": 68,
      "hit": false,
      "t": 83343.75000000001,
      "d": 166.66666666667152,
      "v": 127
    },
    {
      "midi": 66,
      "hit": false,
      "t": 83510.41666666669,
      "d": 604.166666666657,
      "v": 127
    },
    {
      "midi": 61,
      "hit": false,
      "t": 83697.91666666669,
      "d": 239.58333333332848,
      "v": 127
    },
    {
      "midi": 59,
      "hit": false,
      "t": 83989.58333333334,
      "d": 1375,
      "v": 127
    },
    {
      "midi": 66,
      "hit": false,
      "t": 84322.91666666667,
      "d": 1041.6666666666715,
      "v": 127
    },
    {
      "midi": 63,
      "hit": false,
      "t": 84677.08333333334,
      "d": 770.8333333333285,
      "v": 127
    },
    {
      "midi": 75,
      "hit": false,
      "t": 84989.58333333334,
      "d": 1614.583333333343,
      "v": 127
    },
    {
      "midi": 71,
      "hit": false,
      "t": 85322.91666666667,
      "d": 447.9166666666715,
      "v": 127
    },
    {
      "midi": 66,
      "hit": false,
      "t": 85677.08333333334,
      "d": 697.9166666666715,
      "v": 127
    },
    {
      "midi": 59,
      "hit": false,
      "t": 85968.75000000001,
      "d": 1468.75,
      "v": 127
    },
    {
      "midi": 63,
      "hit": false,
      "t": 86333.33333333334,
      "d": 1052.083333333343,
      "v": 127
    },
    {
      "midi": 66,
      "hit": false,
      "t": 86645.83333333336,
      "d": 458.3333333333285,
      "v": 127
    },
    {
      "midi": 71,
      "hit": false,
      "t": 87010.41666666669,
      "d": 739.5833333333285,
      "v": 127
    },
    {
      "midi": 66,
      "hit": false,
      "t": 87343.75000000001,
      "d": 718.75,
      "v": 127
    },
    {
      "midi": 63,
      "hit": false,
      "t": 87656.25000000001,
      "d": 197.91666666667152,
      "v": 127
    },
    {
      "midi": 54,
      "hit": false,
      "t": 88010.41666666669,
      "d": 1729.166666666686,
      "v": 127
    },
    {
      "midi": 61,
      "hit": false,
      "t": 88354.16666666669,
      "d": 1041.666666666686,
      "v": 127
    },
    {
      "midi": 68,
      "hit": false,
      "t": 88697.91666666669,
      "d": 166.66666666667152,
      "v": 127
    },
    {
      "midi": 70,
      "hit": false,
      "t": 88854.16666666669,
      "d": 1083.3333333333576,
      "v": 127
    },
    {
      "midi": 78,
      "hit": false,
      "t": 89031.25000000003,
      "d": 895.833333333343,
      "v": 127
    },
    {
      "midi": 66,
      "hit": false,
      "t": 89354.1666666667,
      "d": 812.5000000000146,
      "v": 127
    },
    {
      "midi": 61,
      "hit": false,
      "t": 89687.50000000004,
      "d": 343.75,
      "v": 127
    },
    {
      "midi": 54,
      "hit": false,
      "t": 90020.83333333337,
      "d": 1552.0833333333576,
      "v": 127
    },
    {
      "midi": 66,
      "hit": false,
      "t": 90239.58333333339,
      "d": 135.41666666667152,
      "v": 127
    },
    {
      "midi": 61,
      "hit": false,
      "t": 90343.75000000006,
      "d": 1072.9166666666715,
      "v": 127
    },
    {
      "midi": 68,
      "hit": false,
      "t": 90656.25000000006,
      "d": 333.3333333333285,
      "v": 127
    },
    {
      "midi": 73,
      "hit": false,
      "t": 90656.25000000006,
      "d": 2062.5000000000146,
      "v": 127
    },
    {
      "midi": 70,
      "hit": false,
      "t": 90989.58333333339,
      "d": 385.4166666666715,
      "v": 127
    },
    {
      "midi": 68,
      "hit": false,
      "t": 91343.75000000006,
      "d": 364.5833333333285,
      "v": 127
    },
    {
      "midi": 66,
      "hit": false,
      "t": 91656.25000000006,
      "d": 354.1666666666715,
      "v": 127
    },
    {
      "midi": 70,
      "hit": false,
      "t": 92000.00000000006,
      "d": 708.333333333343,
      "v": 127
    },
    {
      "midi": 58,
      "hit": false,
      "t": 92010.41666666673,
      "d": 1770.833333333343,
      "v": 127
    },
    {
      "midi": 65,
      "hit": false,
      "t": 92333.3333333334,
      "d": 1187.5,
      "v": 127
    },
    {
      "midi": 61,
      "hit": false,
      "t": 92677.0833333334,
      "d": 1031.25,
      "v": 127
    },
    {
      "midi": 77,
      "hit": false,
      "t": 93031.25000000007,
      "d": 427.0833333333285,
      "v": 127
    },
    {
      "midi": 70,
      "hit": false,
      "t": 93031.25000000007,
      "d": 989.5833333333285,
      "v": 127
    },
    {
      "midi": 73,
      "hit": false,
      "t": 93364.5833333334,
      "d": 656.25,
      "v": 127
    },
    {
      "midi": 65,
      "hit": false,
      "t": 93697.91666666673,
      "d": 343.75,
      "v": 127
    },
    {
      "midi": 59,
      "hit": false,
      "t": 94364.5833333334,
      "d": 1156.25,
      "v": 127
    },
    {
      "midi": 66,
      "hit": false,
      "t": 94687.50000000007,
      "d": 677.0833333333285,
      "v": 127
    },
    {
      "midi": 63,
      "hit": false,
      "t": 94989.5833333334,
      "d": 468.75,
      "v": 127
    },
    {
      "midi": 75,
      "hit": false,
      "t": 94989.5833333334,
      "d": 770.833333333343,
      "v": 127
    },
    {
      "midi": 71,
      "hit": false,
      "t": 95322.91666666673,
      "d": 427.08333333334303,
      "v": 127
    },
    {
      "midi": 66,
      "hit": false,
      "t": 95677.0833333334,
      "d": 364.58333333334303,
      "v": 127
    },
    {
      "midi": 54,
      "hit": false,
      "t": 95989.58333333342,
      "d": 1666.6666666666715,
      "v": 127
    },
    {
      "midi": 70,
      "hit": false,
      "t": 96010.41666666674,
      "d": 343.75,
      "v": 127
    },
    {
      "midi": 73,
      "hit": false,
      "t": 96010.41666666674,
      "d": 791.6666666666715,
      "v": 127
    },
    {
      "midi": 66,
      "hit": false,
      "t": 96343.75000000007,
      "d": 593.7500000000146,
      "v": 127
    },
    {
      "midi": 61,
      "hit": false,
      "t": 96666.66666666674,
      "d": 645.833333333343,
      "v": 127
    },
    {
      "midi": 68,
      "hit": false,
      "t": 97020.83333333342,
      "d": 135.41666666667152,
      "v": 127
    },
    {
      "midi": 73,
      "hit": false,
      "t": 97020.83333333342,
      "d": 312.5,
      "v": 127
    },
    {
      "midi": 70,
      "hit": false,
      "t": 97187.50000000009,
      "d": 177.08333333332848,
      "v": 127
    },
    {
      "midi": 68,
      "hit": false,
      "t": 97354.16666666674,
      "d": 406.25,
      "v": 127
    },
    {
      "midi": 61,
      "hit": false,
      "t": 97656.25000000009,
      "d": 1156.2499999999854,
      "v": 127
    },
    {
      "midi": 66,
      "hit": false,
      "t": 97677.08333333342,
      "d": 239.58333333332848,
      "v": 127
    },
    {
      "midi": 54,
      "hit": false,
      "t": 97989.58333333342,
      "d": 1729.166666666657,
      "v": 127
    },
    {
      "midi": 80,
      "hit": false,
      "t": 98333.33333333342,
      "d": 145.83333333332848,
      "v": 127
    },
    {
      "midi": 85,
      "hit": false,
      "t": 98333.33333333342,
      "d": 1541.666666666657,
      "v": 127
    },
    {
      "midi": 82,
      "hit": false,
      "t": 98500.00000000007,
      "d": 145.83333333332848,
      "v": 127
    },
    {
      "midi": 80,
      "hit": false,
      "t": 98677.0833333334,
      "d": 322.9166666666715,
      "v": 127
    },
    {
      "midi": 61,
      "hit": false,
      "t": 99000.00000000007,
      "d": 520.8333333333285,
      "v": 127
    },
    {
      "midi": 78,
      "hit": false,
      "t": 99000.00000000007,
      "d": 916.6666666666715,
      "v": 127
    },
    {
      "midi": 61,
      "hit": false,
      "t": 99677.0833333334,
      "d": 291.6666666666715,
      "v": 127
    },
    {
      "midi": 59,
      "hit": false,
      "t": 99989.5833333334,
      "d": 1406.25,
      "v": 127
    },
    {
      "midi": 63,
      "hit": false,
      "t": 100343.75000000007,
      "d": 1000,
      "v": 127
    },
    {
      "midi": 66,
      "hit": false,
      "t": 100677.0833333334,
      "d": 343.75,
      "v": 127
    },
    {
      "midi": 78,
      "hit": false,
      "t": 100989.5833333334,
      "d": 2937.499999999971,
      "v": 127
    },
    {
      "midi": 75,
      "hit": false,
      "t": 101166.66666666673,
      "d": 937.4999999999854,
      "v": 127
    },
    {
      "midi": 71,
      "hit": false,
      "t": 101333.3333333334,
      "d": 791.6666666666424,
      "v": 127
    },
    {
      "midi": 66,
      "hit": false,
      "t": 101666.66666666673,
      "d": 416.66666666665697,
      "v": 127
    },
    {
      "midi": 63,
      "hit": false,
      "t": 102000.00000000006,
      "d": 1593.7499999999854,
      "v": 127
    },
    {
      "midi": 66,
      "hit": false,
      "t": 102343.75000000004,
      "d": 1114.5833333333285,
      "v": 127
    },
    {
      "midi": 71,
      "hit": false,
      "t": 102645.83333333337,
      "d": 500,
      "v": 127
    },
    {
      "midi": 75,
      "hit": false,
      "t": 103000.00000000004,
      "d": 927.0833333333285,
      "v": 127
    },
    {
      "midi": 71,
      "hit": false,
      "t": 103343.75000000004,
      "d": 583.3333333333285,
      "v": 127
    },
    {
      "midi": 66,
      "hit": false,
      "t": 103666.66666666672,
      "d": 239.58333333332848,
      "v": 127
    },
    {
      "midi": 59,
      "hit": false,
      "t": 104010.4166666667,
      "d": 697.916666666657,
      "v": 127
    },
    {
      "midi": 75,
      "hit": false,
      "t": 104010.4166666667,
      "d": 885.4166666666715,
      "v": 127
    },
    {
      "midi": 66,
      "hit": false,
      "t": 104031.25000000003,
      "d": 322.9166666666715,
      "v": 127
    },
    {
      "midi": 63,
      "hit": false,
      "t": 104333.33333333336,
      "d": 385.4166666666715,
      "v": 127
    },
    {
      "midi": 71,
      "hit": false,
      "t": 104343.75000000003,
      "d": 604.1666666666715,
      "v": 127
    },
    {
      "midi": 66,
      "hit": false,
      "t": 104687.50000000003,
      "d": 166.66666666667152,
      "v": 127
    },
    {
      "midi": 61,
      "hit": false,
      "t": 105000.00000000003,
      "d": 875.0000000000146,
      "v": 127
    },
    {
      "midi": 65,
      "hit": false,
      "t": 105010.4166666667,
      "d": 854.1666666666715,
      "v": 127
    },
    {
      "midi": 68,
      "hit": false,
      "t": 105020.83333333337,
      "d": 375,
      "v": 127
    },
    {
      "midi": 77,
      "hit": false,
      "t": 105020.83333333337,
      "d": 843.75,
      "v": 127
    },
    {
      "midi": 73,
      "hit": false,
      "t": 105333.33333333337,
      "d": 541.6666666666715,
      "v": 127
    },
    {
      "midi": 68,
      "hit": false,
      "t": 105666.6666666667,
      "d": 208.33333333334303,
      "v": 127
    },
    {
      "midi": 70,
      "hit": false,
      "t": 106031.25000000004,
      "d": 500,
      "v": 127
    },
    {
      "midi": 78,
      "hit": false,
      "t": 106031.25000000004,
      "d": 572.9166666666715,
      "v": 127
    },
    {
      "midi": 54,
      "hit": false,
      "t": 106031.25000000004,
      "d": 1520.8333333333285,
      "v": 127
    },
    {
      "midi": 61,
      "hit": false,
      "t": 106333.33333333337,
      "d": 1250,
      "v": 127
    },
    {
      "midi": 66,
      "hit": false,
      "t": 106677.08333333339,
      "d": 906.2499999999854,
      "v": 127
    },
    {
      "midi": 78,
      "hit": false,
      "t": 107020.83333333339,
      "d": 187.5,
      "v": 127
    },
    {
      "midi": 90,
      "hit": false,
      "t": 107020.83333333339,
      "d": 208.33333333332848,
      "v": 127
    },
    {
      "midi": 80,
      "hit": false,
      "t": 107343.75000000004,
      "d": 93.75,
      "v": 127
    },
    {
      "midi": 92,
      "hit": false,
      "t": 107343.75000000004,
      "d": 156.25,
      "v": 127
    },
    {
      "midi": 78,
      "hit": false,
      "t": 107687.50000000004,
      "d": 72.91666666667152,
      "v": 127
    },
    {
      "midi": 90,
      "hit": false,
      "t": 107687.50000000004,
      "d": 93.75,
      "v": 127
    },
    {
      "midi": 77,
      "hit": false,
      "t": 108010.41666666672,
      "d": 854.1666666666715,
      "v": 127
    },
    {
      "midi": 89,
      "hit": false,
      "t": 108010.41666666672,
      "d": 854.1666666666715,
      "v": 127
    },
    {
      "midi": 61,
      "hit": false,
      "t": 108010.41666666672,
      "d": 1895.833333333343,
      "v": 127
    },
    {
      "midi": 56,
      "hit": false,
      "t": 108010.41666666672,
      "d": 1906.2500000000146,
      "v": 127
    },
    {
      "midi": 65,
      "hit": false,
      "t": 108010.41666666672,
      "d": 1906.2500000000146,
      "v": 127
    },
    {
      "midi": 77,
      "hit": false,
      "t": 109000.00000000006,
      "d": 177.08333333332848,
      "v": 127
    },
    {
      "midi": 89,
      "hit": false,
      "t": 109000.00000000006,
      "d": 187.5,
      "v": 127
    },
    {
      "midi": 78,
      "hit": false,
      "t": 109354.16666666673,
      "d": 208.33333333332848,
      "v": 127
    },
    {
      "midi": 90,
      "hit": false,
      "t": 109354.16666666673,
      "d": 218.75,
      "v": 127
    },
    {
      "midi": 89,
      "hit": false,
      "t": 109687.50000000006,
      "d": 156.25,
      "v": 127
    },
    {
      "midi": 77,
      "hit": false,
      "t": 109687.50000000006,
      "d": 166.66666666667152,
      "v": 127
    },
    {
      "midi": 70,
      "hit": false,
      "t": 110010.41666666673,
      "d": 364.5833333333285,
      "v": 127
    },
    {
      "midi": 63,
      "hit": false,
      "t": 110010.41666666673,
      "d": 822.9166666666715,
      "v": 127
    },
    {
      "midi": 78,
      "hit": false,
      "t": 110010.41666666673,
      "d": 1718.7499999999854,
      "v": 127
    },
    {
      "midi": 75,
      "hit": false,
      "t": 110322.91666666673,
      "d": 989.5833333333285,
      "v": 127
    },
    {
      "midi": 70,
      "hit": false,
      "t": 110666.66666666673,
      "d": 468.75,
      "v": 127
    },
    {
      "midi": 63,
      "hit": false,
      "t": 110989.5833333334,
      "d": 739.5833333333139,
      "v": 127
    },
    {
      "midi": 70,
      "hit": false,
      "t": 111312.50000000006,
      "d": 427.0833333333285,
      "v": 127
    },
    {
      "midi": 75,
      "hit": false,
      "t": 111677.08333333339,
      "d": 239.58333333332848,
      "v": 127
    },
    {
      "midi": 68,
      "hit": false,
      "t": 111989.58333333339,
      "d": 500,
      "v": 127
    },
    {
      "midi": 73,
      "hit": false,
      "t": 111989.58333333339,
      "d": 635.4166666666715,
      "v": 127
    },
    {
      "midi": 61,
      "hit": false,
      "t": 111989.58333333339,
      "d": 791.6666666666715,
      "v": 127
    },
    {
      "midi": 77,
      "hit": false,
      "t": 111989.58333333339,
      "d": 812.5,
      "v": 127
    },
    {
      "midi": 68,
      "hit": false,
      "t": 112697.91666666673,
      "d": 114.58333333332848,
      "v": 127
    },
    {
      "midi": 59,
      "hit": false,
      "t": 112989.58333333339,
      "d": 416.66666666665697,
      "v": 127
    },
    {
      "midi": 66,
      "hit": false,
      "t": 113010.41666666672,
      "d": 468.75,
      "v": 127
    },
    {
      "midi": 71,
      "hit": false,
      "t": 113010.41666666672,
      "d": 666.6666666666715,
      "v": 127
    },
    {
      "midi": 75,
      "hit": false,
      "t": 113010.41666666672,
      "d": 958.333333333343,
      "v": 127
    },
    {
      "midi": 66,
      "hit": false,
      "t": 113666.66666666672,
      "d": 177.08333333334303,
      "v": 127
    },
    {
      "midi": 73,
      "hit": false,
      "t": 113979.16666666673,
      "d": 947.9166666666861,
      "v": 127
    },
    {
      "midi": 66,
      "hit": false,
      "t": 113989.5833333334,
      "d": 395.83333333334303,
      "v": 127
    },
    {
      "midi": 70,
      "hit": false,
      "t": 113989.5833333334,
      "d": 968.7500000000146,
      "v": 127
    },
    {
      "midi": 54,
      "hit": false,
      "t": 113989.5833333334,
      "d": 1572.916666666686,
      "v": 127
    },
    {
      "midi": 61,
      "hit": false,
      "t": 114312.50000000007,
      "d": 1239.583333333343,
      "v": 127
    },
    {
      "midi": 66,
      "hit": false,
      "t": 115000.00000000009,
      "d": 302.0833333333285,
      "v": 127
    },
    {
      "midi": 68,
      "hit": false,
      "t": 115343.75000000009,
      "d": 156.25,
      "v": 127
    },
    {
      "midi": 73,
      "hit": false,
      "t": 115343.75000000009,
      "d": 1468.75,
      "v": 127
    },
    {
      "midi": 70,
      "hit": false,
      "t": 115520.83333333342,
      "d": 145.83333333334303,
      "v": 127
    },
    {
      "midi": 68,
      "hit": false,
      "t": 115677.08333333343,
      "d": 270.8333333333285,
      "v": 127
    },
    {
      "midi": 66,
      "hit": false,
      "t": 115968.75000000009,
      "d": 468.75,
      "v": 127
    },
    {
      "midi": 54,
      "hit": false,
      "t": 115968.75000000009,
      "d": 1416.666666666657,
      "v": 127
    },
    {
      "midi": 61,
      "hit": false,
      "t": 116322.91666666676,
      "d": 1041.666666666657,
      "v": 127
    },
    {
      "midi": 66,
      "hit": false,
      "t": 116666.66666666676,
      "d": 375,
      "v": 127
    },
    {
      "midi": 73,
      "hit": false,
      "t": 117000.00000000009,
      "d": 624.9999999999854,
      "v": 127
    },
    {
      "midi": 66,
      "hit": false,
      "t": 117343.75000000009,
      "d": 281.24999999998545,
      "v": 127
    },
    {
      "midi": 61,
      "hit": false,
      "t": 117635.41666666674,
      "d": 125,
      "v": 127
    },
    {
      "midi": 70,
      "hit": false,
      "t": 118010.41666666674,
      "d": 385.4166666666715,
      "v": 127
    },
    {
      "midi": 78,
      "hit": false,
      "t": 118010.41666666674,
      "d": 1104.1666666666715,
      "v": 127
    },
    {
      "midi": 63,
      "hit": false,
      "t": 118010.41666666674,
      "d": 1739.583333333343,
      "v": 127
    },
    {
      "midi": 75,
      "hit": false,
      "t": 118333.33333333342,
      "d": 718.75,
      "v": 127
    },
    {
      "midi": 70,
      "hit": false,
      "t": 118677.08333333342,
      "d": 1041.6666666666715,
      "v": 127
    },
    {
      "midi": 75,
      "hit": false,
      "t": 119343.75000000009,
      "d": 375,
      "v": 127
    },
    {
      "midi": 78,
      "hit": false,
      "t": 119677.08333333342,
      "d": 166.66666666667152,
      "v": 127
    },
    {
      "midi": 65,
      "hit": false,
      "t": 119979.16666666676,
      "d": 916.6666666666861,
      "v": 127
    },
    {
      "midi": 73,
      "hit": false,
      "t": 119989.58333333343,
      "d": 500,
      "v": 127
    },
    {
      "midi": 80,
      "hit": false,
      "t": 119989.58333333343,
      "d": 677.083333333343,
      "v": 127
    },
    {
      "midi": 73,
      "hit": false,
      "t": 120656.2500000001,
      "d": 83.33333333334303,
      "v": 127
    },
    {
      "midi": 75,
      "hit": false,
      "t": 121010.41666666677,
      "d": 500,
      "v": 127
    },
    {
      "midi": 66,
      "hit": false,
      "t": 121010.41666666677,
      "d": 687.5,
      "v": 127
    },
    {
      "midi": 83,
      "hit": false,
      "t": 121010.41666666677,
      "d": 802.083333333343,
      "v": 127
    },
    {
      "midi": 75,
      "hit": false,
      "t": 121656.2500000001,
      "d": 145.83333333334303,
      "v": 127
    },
    {
      "midi": 73,
      "hit": false,
      "t": 122010.41666666679,
      "d": 479.1666666666715,
      "v": 127
    },
    {
      "midi": 66,
      "hit": false,
      "t": 122010.41666666679,
      "d": 677.083333333343,
      "v": 127
    },
    {
      "midi": 82,
      "hit": false,
      "t": 122010.41666666679,
      "d": 968.7500000000146,
      "v": 127
    },
    {
      "midi": 78,
      "hit": false,
      "t": 122322.91666666679,
      "d": 645.833333333343,
      "v": 127
    },
    {
      "midi": 73,
      "hit": false,
      "t": 122656.25000000013,
      "d": 281.25,
      "v": 127
    },
    {
      "midi": 66,
      "hit": false,
      "t": 122989.58333333347,
      "d": 593.75,
      "v": 127
    },
    {
      "midi": 80,
      "hit": false,
      "t": 123322.9166666668,
      "d": 166.66666666667152,
      "v": 127
    },
    {
      "midi": 85,
      "hit": false,
      "t": 123322.9166666668,
      "d": 666.6666666666715,
      "v": 127
    },
    {
      "midi": 82,
      "hit": false,
      "t": 123500.00000000015,
      "d": 166.66666666665697,
      "v": 127
    },
    {
      "midi": 80,
      "hit": false,
      "t": 123666.6666666668,
      "d": 166.66666666667152,
      "v": 127
    },
    {
      "midi": 78,
      "hit": false,
      "t": 123843.75000000015,
      "d": 177.08333333332848,
      "v": 127
    },
    {
      "midi": 68,
      "hit": false,
      "t": 124010.4166666668,
      "d": 156.25,
      "v": 127
    },
    {
      "midi": 70,
      "hit": false,
      "t": 124177.08333333347,
      "d": 218.75,
      "v": 127
    },
    {
      "midi": 73,
      "hit": false,
      "t": 124343.75000000015,
      "d": 177.08333333332848,
      "v": 127
    },
    {
      "midi": 78,
      "hit": false,
      "t": 124510.4166666668,
      "d": 218.75000000001455,
      "v": 127
    },
    {
      "midi": 73,
      "hit": false,
      "t": 124656.25000000015,
      "d": 333.33333333334303,
      "v": 127
    },
    {
      "midi": 66,
      "hit": false,
      "t": 124822.91666666682,
      "d": 645.8333333333285,
      "v": 127
    },
    {
      "midi": 70,
      "hit": false,
      "t": 125020.83333333349,
      "d": 427.0833333333285,
      "v": 127
    },
    {
      "midi": 73,
      "hit": false,
      "t": 125322.91666666682,
      "d": 364.5833333333285,
      "v": 127
    },
    {
      "midi": 78,
      "hit": false,
      "t": 125645.83333333347,
      "d": 104.16666666667152,
      "v": 127
    },
    {
      "midi": 75,
      "hit": false,
      "t": 126010.41666666682,
      "d": 729.1666666666715,
      "v": 127
    },
    {
      "midi": 71,
      "hit": false,
      "t": 126010.41666666682,
      "d": 1083.3333333333285,
      "v": 127
    },
    {
      "midi": 59,
      "hit": false,
      "t": 126010.41666666682,
      "d": 1489.583333333343,
      "v": 127
    },
    {
      "midi": 78,
      "hit": false,
      "t": 126010.41666666682,
      "d": 1968.7500000000146,
      "v": 127
    },
    {
      "midi": 66,
      "hit": false,
      "t": 127010.41666666682,
      "d": 447.9166666666715,
      "v": 127
    },
    {
      "midi": 71,
      "hit": false,
      "t": 127322.91666666682,
      "d": 250.00000000001455,
      "v": 127
    },
    {
      "midi": 75,
      "hit": false,
      "t": 127322.91666666682,
      "d": 270.83333333334303,
      "v": 127
    },
    {
      "midi": 71,
      "hit": false,
      "t": 127656.25000000016,
      "d": 239.58333333332848,
      "v": 127
    },
    {
      "midi": 75,
      "hit": false,
      "t": 127677.08333333349,
      "d": 229.16666666667152,
      "v": 127
    },
    {
      "midi": 54,
      "hit": false,
      "t": 127989.5833333335,
      "d": 1677.0833333333285,
      "v": 127
    },
    {
      "midi": 71,
      "hit": false,
      "t": 128010.41666666683,
      "d": 416.6666666666715,
      "v": 127
    },
    {
      "midi": 75,
      "hit": false,
      "t": 128010.41666666683,
      "d": 541.6666666666715,
      "v": 127
    },
    {
      "midi": 70,
      "hit": false,
      "t": 128656.25000000017,
      "d": 458.3333333333285,
      "v": 127
    },
    {
      "midi": 73,
      "hit": false,
      "t": 128677.0833333335,
      "d": 343.75,
      "v": 127
    },
    {
      "midi": 66,
      "hit": false,
      "t": 128677.0833333335,
      "d": 437.5,
      "v": 127
    },
    {
      "midi": 68,
      "hit": false,
      "t": 129333.3333333335,
      "d": 145.83333333332848,
      "v": 127
    },
    {
      "midi": 73,
      "hit": false,
      "t": 129333.3333333335,
      "d": 354.1666666666715,
      "v": 127
    },
    {
      "midi": 70,
      "hit": false,
      "t": 129510.41666666683,
      "d": 166.66666666667152,
      "v": 127
    },
    {
      "midi": 66,
      "hit": false,
      "t": 129687.50000000017,
      "d": 854.166666666657,
      "v": 127
    },
    {
      "midi": 59,
      "hit": false,
      "t": 129989.5833333335,
      "d": 833.3333333333285,
      "v": 127
    },
    {
      "midi": 75,
      "hit": false,
      "t": 130010.41666666683,
      "d": 1072.916666666657,
      "v": 127
    },
    {
      "midi": 71,
      "hit": false,
      "t": 130010.41666666683,
      "d": 1093.75,
      "v": 127
    },
    {
      "midi": 66,
      "hit": false,
      "t": 130687.50000000016,
      "d": 489.5833333333285,
      "v": 127
    },
    {
      "midi": 59,
      "hit": false,
      "t": 131031.25000000016,
      "d": 468.74999999998545,
      "v": 127
    },
    {
      "midi": 66,
      "hit": false,
      "t": 131343.75000000015,
      "d": 250,
      "v": 127
    },
    {
      "midi": 75,
      "hit": false,
      "t": 131343.75000000015,
      "d": 270.83333333334303,
      "v": 127
    },
    {
      "midi": 71,
      "hit": false,
      "t": 131343.75000000015,
      "d": 281.25,
      "v": 127
    },
    {
      "midi": 75,
      "hit": false,
      "t": 131687.50000000015,
      "d": 197.91666666668607,
      "v": 127
    },
    {
      "midi": 71,
      "hit": false,
      "t": 131687.50000000015,
      "d": 229.16666666668607,
      "v": 127
    },
    {
      "midi": 66,
      "hit": false,
      "t": 131708.3333333335,
      "d": 177.08333333334303,
      "v": 127
    },
    {
      "midi": 75,
      "hit": false,
      "t": 132020.8333333335,
      "d": 531.25,
      "v": 127
    },
    {
      "midi": 71,
      "hit": false,
      "t": 132020.8333333335,
      "d": 541.666666666657,
      "v": 127
    },
    {
      "midi": 54,
      "hit": false,
      "t": 132020.8333333335,
      "d": 1843.75,
      "v": 127
    },
    {
      "midi": 61,
      "hit": false,
      "t": 132645.8333333335,
      "d": 1229.166666666657,
      "v": 127
    },
    {
      "midi": 70,
      "hit": false,
      "t": 132677.0833333335,
      "d": 729.166666666657,
      "v": 127
    },
    {
      "midi": 73,
      "hit": false,
      "t": 132677.0833333335,
      "d": 1010.416666666657,
      "v": 127
    },
    {
      "midi": 66,
      "hit": false,
      "t": 133364.5833333335,
      "d": 354.16666666665697,
      "v": 127
    },
    {
      "midi": 70,
      "hit": false,
      "t": 133697.9166666668,
      "d": 177.08333333334303,
      "v": 127
    },
    {
      "midi": 70,
      "hit": false,
      "t": 134010.4166666668,
      "d": 697.916666666657,
      "v": 127
    },
    {
      "midi": 75,
      "hit": false,
      "t": 134010.4166666668,
      "d": 729.166666666657,
      "v": 127
    },
    {
      "midi": 78,
      "hit": false,
      "t": 134010.4166666668,
      "d": 729.166666666657,
      "v": 127
    },
    {
      "midi": 63,
      "hit": false,
      "t": 134010.4166666668,
      "d": 875,
      "v": 127
    },
    {
      "midi": 65,
      "hit": false,
      "t": 135010.4166666668,
      "d": 697.916666666657,
      "v": 127
    },
    {
      "midi": 73,
      "hit": false,
      "t": 135010.4166666668,
      "d": 708.3333333333139,
      "v": 127
    },
    {
      "midi": 80,
      "hit": false,
      "t": 135010.4166666668,
      "d": 739.5833333333139,
      "v": 127
    },
    {
      "midi": 71,
      "hit": false,
      "t": 135979.16666666677,
      "d": 31.25,
      "v": 127
    },
    {
      "midi": 75,
      "hit": false,
      "t": 135979.16666666677,
      "d": 31.25,
      "v": 127
    },
    {
      "midi": 78,
      "hit": false,
      "t": 135979.16666666677,
      "d": 31.25,
      "v": 127
    },
    {
      "midi": 66,
      "hit": false,
      "t": 135979.16666666677,
      "d": 3083.333333333343,
      "v": 127
    },
    {
      "midi": 71,
      "hit": false,
      "t": 136041.66666666677,
      "d": 2427.083333333343,
      "v": 127
    },
    {
      "midi": 78,
      "hit": false,
      "t": 136041.66666666677,
      "d": 2614.583333333343,
      "v": 127
    },
    {
      "midi": 83,
      "hit": false,
      "t": 136041.66666666677,
      "d": 2614.583333333343,
      "v": 127
    },
    {
      "midi": 75,
      "hit": false,
      "t": 136041.66666666677,
      "d": 2666.666666666686,
      "v": 127
    },
    {
      "midi": 71,
      "hit": false,
      "t": 138645.83333333346,
      "d": 385.41666666665697,
      "v": 127
    },
    {
      "midi": 73,
      "hit": false,
      "t": 138989.58333333346,
      "d": 135.41666666665697,
      "v": 127
    },
    {
      "midi": 78,
      "hit": false,
      "t": 138989.58333333346,
      "d": 2614.583333333343,
      "v": 127
    },
    {
      "midi": 75,
      "hit": false,
      "t": 139145.83333333346,
      "d": 166.66666666665697,
      "v": 127
    },
    {
      "midi": 73,
      "hit": false,
      "t": 139312.50000000012,
      "d": 354.16666666665697,
      "v": 127
    },
    {
      "midi": 71,
      "hit": false,
      "t": 139666.66666666677,
      "d": 177.08333333334303,
      "v": 127
    },
    {
      "midi": 66,
      "hit": false,
      "t": 139989.58333333346,
      "d": 1291.666666666686,
      "v": 127
    },
    {
      "midi": 70,
      "hit": false,
      "t": 140010.4166666668,
      "d": 1604.166666666657,
      "v": 127
    },
    {
      "midi": 54,
      "hit": false,
      "t": 141343.75000000015,
      "d": 2427.083333333285,
      "v": 127
    },
    {
      "midi": 61,
      "hit": false,
      "t": 141677.08333333346,
      "d": 1031.25,
      "v": 127
    },
    {
      "midi": 68,
      "hit": false,
      "t": 142010.4166666668,
      "d": 343.75,
      "v": 127
    },
    {
      "midi": 70,
      "hit": false,
      "t": 142322.9166666668,
      "d": 906.2499999999709,
      "v": 127
    },
    {
      "midi": 66,
      "hit": false,
      "t": 142645.83333333346,
      "d": 541.666666666657,
      "v": 127
    },
    {
      "midi": 61,
      "hit": false,
      "t": 142989.58333333346,
      "d": 854.1666666666279,
      "v": 127
    },
    {
      "midi": 68,
      "hit": false,
      "t": 143333.33333333343,
      "d": 354.16666666665697,
      "v": 127
    },
    {
      "midi": 73,
      "hit": false,
      "t": 143354.16666666677,
      "d": 250,
      "v": 127
    },
    {
      "midi": 66,
      "hit": false,
      "t": 143677.08333333343,
      "d": 458.33333333334303,
      "v": 127
    },
    {
      "midi": 59,
      "hit": false,
      "t": 143989.58333333343,
      "d": 2458.333333333343,
      "v": 127
    },
    {
      "midi": 66,
      "hit": false,
      "t": 144333.33333333343,
      "d": 322.91666666665697,
      "v": 127
    },
    {
      "midi": 66,
      "hit": false,
      "t": 144687.5000000001,
      "d": 406.25,
      "v": 127
    },
    {
      "midi": 75,
      "hit": false,
      "t": 145000.0000000001,
      "d": 1718.750000000029,
      "v": 127
    },
    {
      "midi": 66,
      "hit": false,
      "t": 145322.91666666674,
      "d": 270.83333333334303,
      "v": 127
    },
    {
      "midi": 66,
      "hit": false,
      "t": 145677.08333333343,
      "d": 385.41666666668607,
      "v": 127
    },
    {
      "midi": 63,
      "hit": false,
      "t": 145979.16666666677,
      "d": 677.083333333343,
      "v": 127
    },
    {
      "midi": 66,
      "hit": false,
      "t": 146343.75000000012,
      "d": 531.25,
      "v": 127
    },
    {
      "midi": 59,
      "hit": false,
      "t": 146677.08333333346,
      "d": 812.4999999999709,
      "v": 127
    },
    {
      "midi": 63,
      "hit": false,
      "t": 146989.58333333346,
      "d": 458.33333333331393,
      "v": 127
    },
    {
      "midi": 66,
      "hit": false,
      "t": 147000.00000000012,
      "d": 364.58333333331393,
      "v": 127
    },
    {
      "midi": 75,
      "hit": false,
      "t": 147000.00000000012,
      "d": 937.4999999999709,
      "v": 127
    },
    {
      "midi": 71,
      "hit": false,
      "t": 147322.91666666677,
      "d": 479.16666666665697,
      "v": 127
    },
    {
      "midi": 66,
      "hit": false,
      "t": 147677.08333333343,
      "d": 552.083333333343,
      "v": 127
    },
    {
      "midi": 54,
      "hit": false,
      "t": 147989.58333333343,
      "d": 1708.3333333333721,
      "v": 127
    },
    {
      "midi": 66,
      "hit": false,
      "t": 148333.33333333343,
      "d": 864.5833333333721,
      "v": 127
    },
    {
      "midi": 78,
      "hit": false,
      "t": 148635.41666666677,
      "d": 208.33333333334303,
      "v": 127
    },
    {
      "midi": 73,
      "hit": false,
      "t": 149000.00000000012,
      "d": 1114.583333333343,
      "v": 127
    },
    {
      "midi": 78,
      "hit": false,
      "t": 149000.00000000012,
      "d": 1656.25,
      "v": 127
    },
    {
      "midi": 61,
      "hit": false,
      "t": 149020.83333333346,
      "d": 354.16666666668607,
      "v": 127
    },
    {
      "midi": 66,
      "hit": false,
      "t": 149322.9166666668,
      "d": 781.25,
      "v": 127
    },
    {
      "midi": 61,
      "hit": false,
      "t": 149656.25000000015,
      "d": 354.16666666665697,
      "v": 127
    },
    {
      "midi": 54,
      "hit": false,
      "t": 149989.58333333346,
      "d": 1635.416666666686,
      "v": 127
    },
    {
      "midi": 66,
      "hit": false,
      "t": 150312.50000000012,
      "d": 531.25,
      "v": 127
    },
    {
      "midi": 61,
      "hit": false,
      "t": 150333.33333333346,
      "d": 1093.750000000029,
      "v": 127
    },
    {
      "midi": 73,
      "hit": false,
      "t": 150645.83333333346,
      "d": 395.83333333334303,
      "v": 127
    },
    {
      "midi": 66,
      "hit": false,
      "t": 150989.58333333346,
      "d": 406.2500000000291,
      "v": 127
    },
    {
      "midi": 78,
      "hit": false,
      "t": 150989.58333333346,
      "d": 906.25,
      "v": 127
    },
    {
      "midi": 73,
      "hit": false,
      "t": 151312.50000000015,
      "d": 479.16666666665697,
      "v": 127
    },
    {
      "midi": 66,
      "hit": false,
      "t": 151666.6666666668,
      "d": 385.41666666665697,
      "v": 127
    },
    {
      "midi": 75,
      "hit": false,
      "t": 152010.4166666668,
      "d": 885.416666666657,
      "v": 127
    },
    {
      "midi": 59,
      "hit": false,
      "t": 152010.4166666668,
      "d": 1520.833333333314,
      "v": 127
    },
    {
      "midi": 66,
      "hit": false,
      "t": 152333.33333333346,
      "d": 520.833333333343,
      "v": 127
    },
    {
      "midi": 71,
      "hit": false,
      "t": 152677.08333333346,
      "d": 333.33333333331393,
      "v": 127
    },
    {
      "midi": 63,
      "hit": false,
      "t": 152989.58333333346,
      "d": 552.0833333333139,
      "v": 127
    },
    {
      "midi": 66,
      "hit": false,
      "t": 153000.00000000012,
      "d": 354.16666666665697,
      "v": 127
    },
    {
      "midi": 75,
      "hit": false,
      "t": 153010.41666666677,
      "d": 1135.416666666686,
      "v": 127
    },
    {
      "midi": 71,
      "hit": false,
      "t": 153343.75000000012,
      "d": 666.666666666657,
      "v": 127
    },
    {
      "midi": 66,
      "hit": false,
      "t": 153656.25000000012,
      "d": 375,
      "v": 127
    },
    {
      "midi": 59,
      "hit": false,
      "t": 154000.00000000012,
      "d": 1583.333333333314,
      "v": 127
    },
    {
      "midi": 63,
      "hit": false,
      "t": 154312.50000000012,
      "d": 1020.8333333333139,
      "v": 127
    },
    {
      "midi": 73,
      "hit": false,
      "t": 154656.25000000012,
      "d": 343.75,
      "v": 127
    },
    {
      "midi": 78,
      "hit": false,
      "t": 154656.25000000012,
      "d": 2104.166666666686,
      "v": 127
    },
    {
      "midi": 75,
      "hit": false,
      "t": 154989.58333333346,
      "d": 364.58333333331393,
      "v": 127
    },
    {
      "midi": 73,
      "hit": false,
      "t": 155322.91666666677,
      "d": 322.91666666665697,
      "v": 127
    },
    {
      "midi": 71,
      "hit": false,
      "t": 155645.83333333343,
      "d": 270.83333333334303,
      "v": 127
    },
    {
      "midi": 54,
      "hit": false,
      "t": 155968.75000000012,
      "d": 2062.500000000029,
      "v": 127
    },
    {
      "midi": 73,
      "hit": false,
      "t": 155989.58333333346,
      "d": 406.25,
      "v": 127
    },
    {
      "midi": 66,
      "hit": false,
      "t": 156666.6666666668,
      "d": 447.91666666665697,
      "v": 127
    },
    {
      "midi": 73,
      "hit": false,
      "t": 157010.4166666668,
      "d": 395.83333333334303,
      "v": 127
    },
    {
      "midi": 78,
      "hit": false,
      "t": 157010.4166666668,
      "d": 2250.000000000029,
      "v": 127
    },
    {
      "midi": 66,
      "hit": false,
      "t": 157354.1666666668,
      "d": 760.4166666666861,
      "v": 127
    },
    {
      "midi": 70,
      "hit": false,
      "t": 157677.0833333335,
      "d": 1072.916666666686,
      "v": 127
    },
    {
      "midi": 61,
      "hit": false,
      "t": 158000.00000000015,
      "d": 395.83333333334303,
      "v": 127
    },
    {
      "midi": 54,
      "hit": false,
      "t": 158354.16666666683,
      "d": 1260.416666666657,
      "v": 127
    },
    {
      "midi": 61,
      "hit": false,
      "t": 158666.66666666683,
      "d": 968.75,
      "v": 127
    },
    {
      "midi": 66,
      "hit": false,
      "t": 159010.41666666683,
      "d": 375,
      "v": 127
    },
    {
      "midi": 73,
      "hit": false,
      "t": 159010.41666666683,
      "d": 677.083333333343,
      "v": 127
    },
    {
      "midi": 70,
      "hit": false,
      "t": 159343.75000000017,
      "d": 395.83333333334303,
      "v": 127
    },
    {
      "midi": 66,
      "hit": false,
      "t": 159656.25000000017,
      "d": 156.25,
      "v": 127
    },
    {
      "midi": 65,
      "hit": false,
      "t": 159989.58333333352,
      "d": 458.33333333334303,
      "v": 127
    },
    {
      "midi": 58,
      "hit": false,
      "t": 159989.58333333352,
      "d": 1635.416666666686,
      "v": 127
    },
    {
      "midi": 73,
      "hit": false,
      "t": 159989.58333333352,
      "d": 1760.416666666686,
      "v": 127
    },
    {
      "midi": 70,
      "hit": false,
      "t": 160322.91666666686,
      "d": 989.583333333343,
      "v": 127
    },
    {
      "midi": 65,
      "hit": false,
      "t": 160656.2500000002,
      "d": 468.75,
      "v": 127
    },
    {
      "midi": 61,
      "hit": false,
      "t": 161000.0000000002,
      "d": 677.083333333343,
      "v": 127
    },
    {
      "midi": 65,
      "hit": false,
      "t": 161312.5000000002,
      "d": 406.25,
      "v": 127
    },
    {
      "midi": 70,
      "hit": false,
      "t": 161645.83333333355,
      "d": 156.25,
      "v": 127
    },
    {
      "midi": 66,
      "hit": false,
      "t": 161989.58333333355,
      "d": 385.41666666665697,
      "v": 127
    },
    {
      "midi": 75,
      "hit": false,
      "t": 161989.58333333355,
      "d": 1489.583333333343,
      "v": 127
    },
    {
      "midi": 59,
      "hit": false,
      "t": 161989.58333333355,
      "d": 1718.75,
      "v": 127
    },
    {
      "midi": 71,
      "hit": false,
      "t": 162333.33333333355,
      "d": 864.583333333343,
      "v": 127
    },
    {
      "midi": 66,
      "hit": false,
      "t": 162677.08333333355,
      "d": 541.6666666666861,
      "v": 127
    },
    {
      "midi": 66,
      "hit": false,
      "t": 163677.08333333355,
      "d": 270.83333333334303,
      "v": 127
    },
    {
      "midi": 75,
      "hit": false,
      "t": 163677.08333333355,
      "d": 270.83333333334303,
      "v": 127
    },
    {
      "midi": 70,
      "hit": false,
      "t": 164010.4166666669,
      "d": 697.916666666657,
      "v": 127
    },
    {
      "midi": 73,
      "hit": false,
      "t": 164010.4166666669,
      "d": 708.3333333333139,
      "v": 127
    },
    {
      "midi": 54,
      "hit": false,
      "t": 164010.4166666669,
      "d": 1697.916666666657,
      "v": 127
    },
    {
      "midi": 66,
      "hit": false,
      "t": 164333.33333333355,
      "d": 218.75,
      "v": 127
    },
    {
      "midi": 61,
      "hit": false,
      "t": 164677.08333333355,
      "d": 635.416666666657,
      "v": 127
    },
    {
      "midi": 66,
      "hit": false,
      "t": 165020.83333333355,
      "d": 1489.583333333314,
      "v": 127
    },
    {
      "midi": 61,
      "hit": false,
      "t": 165656.2500000002,
      "d": 833.333333333343,
      "v": 127
    },
    {
      "midi": 54,
      "hit": false,
      "t": 166010.4166666669,
      "d": 479.16666666665697,
      "v": 127
    },
    {
      "midi": 80,
      "hit": false,
      "t": 166322.9166666669,
      "d": 135.41666666665697,
      "v": 127
    },
    {
      "midi": 85,
      "hit": false,
      "t": 166322.9166666669,
      "d": 656.2499999999418,
      "v": 127
    },
    {
      "midi": 82,
      "hit": false,
      "t": 166500.0000000002,
      "d": 145.83333333331393,
      "v": 127
    },
    {
      "midi": 80,
      "hit": false,
      "t": 166656.25000000017,
      "d": 156.25,
      "v": 127
    },
    {
      "midi": 78,
      "hit": false,
      "t": 166843.75000000017,
      "d": 177.08333333331393,
      "v": 127
    },
    {
      "midi": 68,
      "hit": false,
      "t": 167020.8333333335,
      "d": 187.5,
      "v": 127
    },
    {
      "midi": 70,
      "hit": false,
      "t": 167187.50000000015,
      "d": 239.58333333334303,
      "v": 127
    },
    {
      "midi": 73,
      "hit": false,
      "t": 167343.75000000015,
      "d": 166.66666666668607,
      "v": 127
    },
    {
      "midi": 78,
      "hit": false,
      "t": 167510.41666666683,
      "d": 145.83333333334303,
      "v": 127
    },
    {
      "midi": 73,
      "hit": false,
      "t": 167666.66666666683,
      "d": 177.08333333334303,
      "v": 127
    },
    {
      "midi": 66,
      "hit": false,
      "t": 167822.91666666683,
      "d": 1302.083333333343,
      "v": 127
    },
    {
      "midi": 71,
      "hit": false,
      "t": 168333.33333333352,
      "d": 760.416666666657,
      "v": 127
    },
    {
      "midi": 78,
      "hit": false,
      "t": 168656.25000000017,
      "d": 1375,
      "v": 127
    },
    {
      "midi": 75,
      "hit": false,
      "t": 169010.41666666683,
      "d": 1114.583333333343,
      "v": 127
    },
    {
      "midi": 71,
      "hit": false,
      "t": 169312.50000000017,
      "d": 770.833333333343,
      "v": 127
    },
    {
      "midi": 66,
      "hit": false,
      "t": 169645.83333333352,
      "d": 343.75,
      "v": 127
    },
    {
      "midi": 59,
      "hit": false,
      "t": 169979.16666666686,
      "d": 1729.166666666657,
      "v": 127
    },
    {
      "midi": 73,
      "hit": false,
      "t": 170322.91666666683,
      "d": 156.25,
      "v": 127
    },
    {
      "midi": 78,
      "hit": false,
      "t": 170322.91666666683,
      "d": 1479.166666666686,
      "v": 127
    },
    {
      "midi": 75,
      "hit": false,
      "t": 170479.16666666683,
      "d": 156.25,
      "v": 127
    },
    {
      "midi": 73,
      "hit": false,
      "t": 170645.8333333335,
      "d": 343.75,
      "v": 127
    },
    {
      "midi": 71,
      "hit": false,
      "t": 170979.16666666683,
      "d": 864.583333333343,
      "v": 127
    },
    {
      "midi": 66,
      "hit": false,
      "t": 171322.91666666683,
      "d": 572.9166666666861,
      "v": 127
    },
    {
      "midi": 75,
      "hit": false,
      "t": 171656.25000000017,
      "d": 239.58333333334303,
      "v": 127
    },
    {
      "midi": 66,
      "hit": false,
      "t": 172010.41666666686,
      "d": 395.83333333334303,
      "v": 127
    },
    {
      "midi": 75,
      "hit": false,
      "t": 172010.41666666686,
      "d": 645.833333333343,
      "v": 127
    },
    {
      "midi": 59,
      "hit": false,
      "t": 172010.41666666686,
      "d": 812.5000000000291,
      "v": 127
    },
    {
      "midi": 71,
      "hit": false,
      "t": 172343.7500000002,
      "d": 312.5,
      "v": 127
    },
    {
      "midi": 66,
      "hit": false,
      "t": 172656.2500000002,
      "d": 145.83333333334303,
      "v": 127
    },
    {
      "midi": 77,
      "hit": false,
      "t": 172989.58333333355,
      "d": 833.333333333343,
      "v": 127
    },
    {
      "midi": 68,
      "hit": false,
      "t": 173010.4166666669,
      "d": 406.25,
      "v": 127
    },
    {
      "midi": 61,
      "hit": false,
      "t": 173010.4166666669,
      "d": 812.5,
      "v": 127
    },
    {
      "midi": 73,
      "hit": false,
      "t": 173312.50000000023,
      "d": 531.2499999999709,
      "v": 127
    },
    {
      "midi": 68,
      "hit": false,
      "t": 173645.83333333355,
      "d": 187.5,
      "v": 127
    },
    {
      "midi": 58,
      "hit": false,
      "t": 174010.41666666686,
      "d": 291.66666666665697,
      "v": 127
    },
    {
      "midi": 61,
      "hit": false,
      "t": 174010.41666666686,
      "d": 406.2499999999709,
      "v": 127
    },
    {
      "midi": 70,
      "hit": false,
      "t": 174010.41666666686,
      "d": 458.33333333331393,
      "v": 127
    },
    {
      "midi": 78,
      "hit": false,
      "t": 174010.41666666686,
      "d": 468.7499999999709,
      "v": 127
    },
    {
      "midi": 66,
      "hit": false,
      "t": 174010.41666666686,
      "d": 677.0833333333139,
      "v": 127
    },
    {
      "midi": 58,
      "hit": false,
      "t": 174375.00000000017,
      "d": 1000,
      "v": 127
    },
    {
      "midi": 61,
      "hit": false,
      "t": 174687.50000000017,
      "d": 708.333333333343,
      "v": 127
    },
    {
      "midi": 78,
      "hit": false,
      "t": 175010.41666666683,
      "d": 177.08333333334303,
      "v": 127
    },
    {
      "midi": 66,
      "hit": false,
      "t": 175010.41666666683,
      "d": 322.91666666668607,
      "v": 127
    },
    {
      "midi": 90,
      "hit": false,
      "t": 175031.25000000017,
      "d": 208.33333333334303,
      "v": 127
    },
    {
      "midi": 80,
      "hit": false,
      "t": 175343.75000000017,
      "d": 177.08333333334303,
      "v": 127
    },
    {
      "midi": 92,
      "hit": false,
      "t": 175343.75000000017,
      "d": 187.5,
      "v": 127
    },
    {
      "midi": 78,
      "hit": false,
      "t": 175666.66666666683,
      "d": 93.75,
      "v": 127
    },
    {
      "midi": 90,
      "hit": false,
      "t": 175666.66666666683,
      "d": 145.83333333334303,
      "v": 127
    },
    {
      "midi": 61,
      "hit": false,
      "t": 176010.41666666683,
      "d": 781.25,
      "v": 127
    },
    {
      "midi": 65,
      "hit": false,
      "t": 176010.41666666683,
      "d": 822.916666666657,
      "v": 127
    },
    {
      "midi": 56,
      "hit": false,
      "t": 176010.41666666683,
      "d": 1750.0000000000582,
      "v": 127
    },
    {
      "midi": 77,
      "hit": false,
      "t": 176031.25000000017,
      "d": 822.916666666657,
      "v": 127
    },
    {
      "midi": 89,
      "hit": false,
      "t": 176031.25000000017,
      "d": 822.916666666657,
      "v": 127
    },
    {
      "midi": 61,
      "hit": false,
      "t": 176979.16666666683,
      "d": 802.0833333333721,
      "v": 127
    },
    {
      "midi": 77,
      "hit": false,
      "t": 177000.00000000017,
      "d": 177.08333333334303,
      "v": 127
    },
    {
      "midi": 89,
      "hit": false,
      "t": 177000.00000000017,
      "d": 197.91666666668607,
      "v": 127
    },
    {
      "midi": 65,
      "hit": false,
      "t": 177000.00000000017,
      "d": 854.1666666666861,
      "v": 127
    },
    {
      "midi": 78,
      "hit": false,
      "t": 177343.7500000002,
      "d": 177.08333333334303,
      "v": 127
    },
    {
      "midi": 90,
      "hit": false,
      "t": 177343.7500000002,
      "d": 177.08333333334303,
      "v": 127
    },
    {
      "midi": 89,
      "hit": false,
      "t": 177666.6666666669,
      "d": 104.16666666665697,
      "v": 127
    },
    {
      "midi": 77,
      "hit": false,
      "t": 177666.6666666669,
      "d": 145.83333333331393,
      "v": 127
    },
    {
      "midi": 63,
      "hit": false,
      "t": 177989.58333333352,
      "d": 1427.083333333314,
      "v": 127
    },
    {
      "midi": 70,
      "hit": false,
      "t": 178354.16666666686,
      "d": 489.58333333334303,
      "v": 127
    },
    {
      "midi": 75,
      "hit": false,
      "t": 178666.66666666686,
      "d": 354.16666666665697,
      "v": 127
    },
    {
      "midi": 70,
      "hit": false,
      "t": 179010.41666666686,
      "d": 406.2499999999709,
      "v": 127
    },
    {
      "midi": 78,
      "hit": false,
      "t": 179010.41666666686,
      "d": 854.1666666666279,
      "v": 127
    },
    {
      "midi": 75,
      "hit": false,
      "t": 179343.75000000017,
      "d": 552.0833333333139,
      "v": 127
    },
    {
      "midi": 70,
      "hit": false,
      "t": 179677.0833333335,
      "d": 156.25,
      "v": 127
    },
    {
      "midi": 63,
      "hit": false,
      "t": 179677.0833333335,
      "d": 239.58333333334303,
      "v": 127
    },
    {
      "midi": 68,
      "hit": false,
      "t": 180010.41666666683,
      "d": 468.75,
      "v": 127
    },
    {
      "midi": 73,
      "hit": false,
      "t": 180010.41666666683,
      "d": 625,
      "v": 127
    },
    {
      "midi": 77,
      "hit": false,
      "t": 180010.41666666683,
      "d": 697.9166666666861,
      "v": 127
    },
    {
      "midi": 61,
      "hit": false,
      "t": 180010.41666666683,
      "d": 947.9166666666861,
      "v": 127
    },
    {
      "midi": 68,
      "hit": false,
      "t": 180656.25000000017,
      "d": 145.83333333334303,
      "v": 127
    },
    {
      "midi": 59,
      "hit": false,
      "t": 181010.41666666686,
      "d": 520.833333333343,
      "v": 127
    },
    {
      "midi": 75,
      "hit": false,
      "t": 181010.41666666686,
      "d": 958.333333333343,
      "v": 127
    },
    {
      "midi": 66,
      "hit": false,
      "t": 181020.83333333352,
      "d": 489.58333333334303,
      "v": 127
    },
    {
      "midi": 71,
      "hit": false,
      "t": 181020.83333333352,
      "d": 697.9166666666861,
      "v": 127
    },
    {
      "midi": 66,
      "hit": false,
      "t": 181656.2500000002,
      "d": 218.75,
      "v": 127
    },
    {
      "midi": 54,
      "hit": false,
      "t": 181989.58333333355,
      "d": 1458.333333333343,
      "v": 127
    },
    {
      "midi": 66,
      "hit": false,
      "t": 182010.4166666669,
      "d": 385.41666666665697,
      "v": 127
    },
    {
      "midi": 70,
      "hit": false,
      "t": 182010.4166666669,
      "d": 500,
      "v": 127
    },
    {
      "midi": 73,
      "hit": false,
      "t": 182010.4166666669,
      "d": 520.833333333343,
      "v": 127
    },
    {
      "midi": 61,
      "hit": false,
      "t": 182354.1666666669,
      "d": 1145.833333333343,
      "v": 127
    },
    {
      "midi": 66,
      "hit": false,
      "t": 182677.08333333358,
      "d": 958.333333333343,
      "v": 127
    },
    {
      "midi": 80,
      "hit": false,
      "t": 183343.75000000023,
      "d": 156.25,
      "v": 127
    },
    {
      "midi": 85,
      "hit": false,
      "t": 183343.75000000023,
      "d": 1343.75,
      "v": 127
    },
    {
      "midi": 82,
      "hit": false,
      "t": 183520.83333333358,
      "d": 156.25,
      "v": 127
    },
    {
      "midi": 80,
      "hit": false,
      "t": 183666.66666666692,
      "d": 156.25,
      "v": 127
    },
    {
      "midi": 78,
      "hit": false,
      "t": 183833.33333333358,
      "d": 812.5,
      "v": 127
    },
    {
      "midi": 66,
      "hit": false,
      "t": 184343.75000000023,
      "d": 1062.5,
      "v": 127
    },
    {
      "midi": 73,
      "hit": false,
      "t": 184677.08333333358,
      "d": 697.916666666657,
      "v": 127
    },
    {
      "midi": 90,
      "hit": false,
      "t": 185000.00000000023,
      "d": 1041.666666666686,
      "v": 127
    },
    {
      "midi": 85,
      "hit": false,
      "t": 185166.6666666669,
      "d": 864.5833333333721,
      "v": 127
    },
    {
      "midi": 78,
      "hit": false,
      "t": 185343.75000000023,
      "d": 729.1666666666861,
      "v": 127
    },
    {
      "midi": 59,
      "hit": false,
      "t": 185989.58333333358,
      "d": 1166.666666666686,
      "v": 127
    },
    {
      "midi": 63,
      "hit": false,
      "t": 186010.41666666692,
      "d": 1416.666666666686,
      "v": 127
    },
    {
      "midi": 70,
      "hit": false,
      "t": 186322.91666666692,
      "d": 718.75,
      "v": 127
    },
    {
      "midi": 78,
      "hit": false,
      "t": 186645.83333333358,
      "d": 1041.666666666686,
      "v": 127
    },
    {
      "midi": 75,
      "hit": false,
      "t": 186989.58333333358,
      "d": 656.2500000000291,
      "v": 127
    },
    {
      "midi": 70,
      "hit": false,
      "t": 187333.3333333336,
      "d": 385.41666666665697,
      "v": 127
    },
    {
      "midi": 63,
      "hit": false,
      "t": 187656.25000000026,
      "d": 322.91666666665697,
      "v": 127
    },
    {
      "midi": 73,
      "hit": false,
      "t": 188010.41666666692,
      "d": 520.833333333343,
      "v": 127
    },
    {
      "midi": 80,
      "hit": false,
      "t": 188010.41666666692,
      "d": 531.25,
      "v": 127
    },
    {
      "midi": 65,
      "hit": false,
      "t": 188010.41666666692,
      "d": 1010.416666666657,
      "v": 127
    },
    {
      "midi": 66,
      "hit": false,
      "t": 189010.41666666692,
      "d": 666.666666666657,
      "v": 127
    },
    {
      "midi": 75,
      "hit": false,
      "t": 189010.41666666692,
      "d": 770.8333333333139,
      "v": 127
    },
    {
      "midi": 83,
      "hit": false,
      "t": 189020.83333333358,
      "d": 812.5,
      "v": 127
    },
    {
      "midi": 66,
      "hit": false,
      "t": 189979.16666666692,
      "d": 781.2499999999709,
      "v": 127
    },
    {
      "midi": 73,
      "hit": false,
      "t": 189989.58333333358,
      "d": 416.66666666665697,
      "v": 127
    },
    {
      "midi": 82,
      "hit": false,
      "t": 189989.58333333358,
      "d": 1302.083333333314,
      "v": 127
    },
    {
      "midi": 78,
      "hit": false,
      "t": 190333.33333333358,
      "d": 958.3333333333139,
      "v": 127
    },
    {
      "midi": 73,
      "hit": false,
      "t": 190656.25000000023,
      "d": 687.5,
      "v": 127
    },
    {
      "midi": 66,
      "hit": false,
      "t": 190968.75000000023,
      "d": 1406.249999999971,
      "v": 127
    },
    {
      "midi": 68,
      "hit": false,
      "t": 191312.50000000023,
      "d": 395.83333333331393,
      "v": 127
    },
    {
      "midi": 70,
      "hit": false,
      "t": 191666.6666666669,
      "d": 802.0833333333139,
      "v": 127
    },
    {
      "midi": 78,
      "hit": false,
      "t": 191989.58333333355,
      "d": 1656.249999999971,
      "v": 127
    },
    {
      "midi": 73,
      "hit": false,
      "t": 192333.33333333355,
      "d": 781.2499999999709,
      "v": 127
    },
    {
      "midi": 70,
      "hit": false,
      "t": 192666.66666666686,
      "d": 375,
      "v": 127
    },
    {
      "midi": 66,
      "hit": false,
      "t": 193020.83333333352,
      "d": 437.5,
      "v": 127
    },
    {
      "midi": 70,
      "hit": false,
      "t": 193333.33333333352,
      "d": 562.5,
      "v": 127
    },
    {
      "midi": 71,
      "hit": false,
      "t": 194010.41666666686,
      "d": 958.3333333333139,
      "v": 127
    },
    {
      "midi": 75,
      "hit": false,
      "t": 194010.41666666686,
      "d": 1062.499999999971,
      "v": 127
    },
    {
      "midi": 59,
      "hit": false,
      "t": 194010.41666666686,
      "d": 1093.749999999971,
      "v": 127
    },
    {
      "midi": 66,
      "hit": false,
      "t": 194322.91666666686,
      "d": 354.16666666665697,
      "v": 127
    },
    {
      "midi": 66,
      "hit": false,
      "t": 195010.41666666683,
      "d": 406.25,
      "v": 127
    },
    {
      "midi": 75,
      "hit": false,
      "t": 195354.16666666683,
      "d": 229.16666666665697,
      "v": 127
    },
    {
      "midi": 71,
      "hit": false,
      "t": 195354.16666666683,
      "d": 260.41666666665697,
      "v": 127
    },
    {
      "midi": 75,
      "hit": false,
      "t": 195666.66666666683,
      "d": 229.16666666665697,
      "v": 127
    },
    {
      "midi": 71,
      "hit": false,
      "t": 195666.66666666683,
      "d": 239.58333333331393,
      "v": 127
    },
    {
      "midi": 75,
      "hit": false,
      "t": 195989.5833333335,
      "d": 552.083333333343,
      "v": 127
    },
    {
      "midi": 54,
      "hit": false,
      "t": 195989.5833333335,
      "d": 1656.2500000000582,
      "v": 127
    },
    {
      "midi": 71,
      "hit": false,
      "t": 196010.41666666683,
      "d": 520.833333333343,
      "v": 127
    },
    {
      "midi": 70,
      "hit": false,
      "t": 196656.25000000017,
      "d": 322.91666666668607,
      "v": 127
    },
    {
      "midi": 73,
      "hit": false,
      "t": 196677.08333333352,
      "d": 541.6666666666861,
      "v": 127
    },
    {
      "midi": 73,
      "hit": false,
      "t": 197322.91666666686,
      "d": 354.16666666668607,
      "v": 127
    },
    {
      "midi": 68,
      "hit": false,
      "t": 197343.7500000002,
      "d": 104.16666666665697,
      "v": 127
    },
    {
      "midi": 70,
      "hit": false,
      "t": 197500.0000000002,
      "d": 177.08333333334303,
      "v": 127
    },
    {
      "midi": 66,
      "hit": false,
      "t": 197687.5000000002,
      "d": 333.33333333331393,
      "v": 127
    },
    {
      "midi": 71,
      "hit": false,
      "t": 198010.41666666686,
      "d": 1000,
      "v": 127
    },
    {
      "midi": 75,
      "hit": false,
      "t": 198010.41666666686,
      "d": 1031.25,
      "v": 127
    },
    {
      "midi": 54,
      "hit": false,
      "t": 198010.41666666686,
      "d": 1541.666666666686,
      "v": 127
    },
    {
      "midi": 61,
      "hit": false,
      "t": 198322.91666666686,
      "d": 322.91666666665697,
      "v": 127
    },
    {
      "midi": 63,
      "hit": false,
      "t": 198979.16666666686,
      "d": 552.083333333343,
      "v": 127
    },
    {
      "midi": 75,
      "hit": false,
      "t": 199312.5000000002,
      "d": 239.58333333334303,
      "v": 127
    },
    {
      "midi": 71,
      "hit": false,
      "t": 199312.5000000002,
      "d": 270.83333333334303,
      "v": 127
    },
    {
      "midi": 71,
      "hit": false,
      "t": 199656.2500000002,
      "d": 260.41666666665697,
      "v": 127
    },
    {
      "midi": 75,
      "hit": false,
      "t": 199666.66666666686,
      "d": 208.33333333334303,
      "v": 127
    },
    {
      "midi": 71,
      "hit": false,
      "t": 200000.0000000002,
      "d": 562.5,
      "v": 127
    },
    {
      "midi": 75,
      "hit": false,
      "t": 200000.0000000002,
      "d": 562.5,
      "v": 127
    },
    {
      "midi": 54,
      "hit": false,
      "t": 200000.0000000002,
      "d": 1697.916666666686,
      "v": 127
    },
    {
      "midi": 61,
      "hit": false,
      "t": 200645.83333333355,
      "d": 1020.833333333343,
      "v": 127
    },
    {
      "midi": 70,
      "hit": false,
      "t": 200656.2500000002,
      "d": 177.08333333334303,
      "v": 127
    },
    {
      "midi": 73,
      "hit": false,
      "t": 200656.2500000002,
      "d": 187.5,
      "v": 127
    },
    {
      "midi": 68,
      "hit": false,
      "t": 200989.58333333355,
      "d": 145.83333333334303,
      "v": 127
    },
    {
      "midi": 73,
      "hit": false,
      "t": 200989.58333333355,
      "d": 458.33333333334303,
      "v": 127
    },
    {
      "midi": 70,
      "hit": false,
      "t": 201166.6666666669,
      "d": 156.25,
      "v": 127
    },
    {
      "midi": 68,
      "hit": false,
      "t": 201354.1666666669,
      "d": 312.5,
      "v": 127
    },
    {
      "midi": 66,
      "hit": false,
      "t": 201677.08333333355,
      "d": 187.5,
      "v": 127
    },
    {
      "midi": 78,
      "hit": false,
      "t": 202010.4166666669,
      "d": 635.416666666657,
      "v": 127
    },
    {
      "midi": 75,
      "hit": false,
      "t": 202010.4166666669,
      "d": 687.5,
      "v": 127
    },
    {
      "midi": 70,
      "hit": false,
      "t": 202010.4166666669,
      "d": 812.5,
      "v": 127
    },
    {
      "midi": 63,
      "hit": false,
      "t": 202010.4166666669,
      "d": 958.333333333343,
      "v": 127
    },
    {
      "midi": 65,
      "hit": false,
      "t": 202989.58333333358,
      "d": 656.25,
      "v": 127
    },
    {
      "midi": 80,
      "hit": false,
      "t": 202989.58333333358,
      "d": 656.25,
      "v": 127
    },
    {
      "midi": 73,
      "hit": false,
      "t": 202989.58333333358,
      "d": 687.5,
      "v": 127
    },
    {
      "midi": 66,
      "hit": false,
      "t": 204031.25000000023,
      "d": 1114.583333333343,
      "v": 127
    },
    {
      "midi": 71,
      "hit": false,
      "t": 204031.25000000023,
      "d": 1395.833333333343,
      "v": 127
    },
    {
      "midi": 78,
      "hit": false,
      "t": 204031.25000000023,
      "d": 1697.916666666686,
      "v": 127
    },
    {
      "midi": 75,
      "hit": false,
      "t": 204031.25000000023,
      "d": 1708.333333333343,
      "v": 127
    },
    {
      "midi": 66,
      "hit": false,
      "t": 205322.91666666692,
      "d": 1166.666666666657,
      "v": 127
    },
    {
      "midi": 71,
      "hit": false,
      "t": 205666.66666666692,
      "d": 541.666666666657,
      "v": 127
    },
    {
      "midi": 78,
      "hit": false,
      "t": 205989.58333333358,
      "d": 875.0000000000291,
      "v": 127
    },
    {
      "midi": 75,
      "hit": false,
      "t": 206166.66666666692,
      "d": 729.1666666666861,
      "v": 127
    },
    {
      "midi": 71,
      "hit": false,
      "t": 206343.75000000023,
      "d": 500.0000000000291,
      "v": 127
    },
    {
      "midi": 66,
      "hit": false,
      "t": 206666.66666666692,
      "d": 666.6666666666861,
      "v": 127
    },
    {
      "midi": 73,
      "hit": false,
      "t": 206989.5833333336,
      "d": 333.33333333334303,
      "v": 127
    },
    {
      "midi": 78,
      "hit": false,
      "t": 206989.5833333336,
      "d": 531.25,
      "v": 127
    },
    {
      "midi": 75,
      "hit": false,
      "t": 207322.91666666695,
      "d": 343.75,
      "v": 127
    },
    {
      "midi": 73,
      "hit": false,
      "t": 207677.0833333336,
      "d": 218.75,
      "v": 127
    },
    {
      "midi": 78,
      "hit": false,
      "t": 207677.0833333336,
      "d": 218.75,
      "v": 127
    },
    {
      "midi": 66,
      "hit": false,
      "t": 208010.41666666695,
      "d": 489.58333333334303,
      "v": 127
    },
    {
      "midi": 58,
      "hit": false,
      "t": 208010.41666666695,
      "d": 645.833333333343,
      "v": 127
    },
    {
      "midi": 90,
      "hit": false,
      "t": 208010.41666666695,
      "d": 729.1666666666861,
      "v": 127
    },
    {
      "midi": 78,
      "hit": false,
      "t": 208010.41666666695,
      "d": 822.9166666666861,
      "v": 127
    },
    {
      "midi": 66,
      "hit": false,
      "t": 208645.83333333363,
      "d": 229.16666666665697,
      "v": 127
    },
    {
      "midi": 66,
      "hit": false,
      "t": 208989.58333333363,
      "d": 312.5,
      "v": 127
    },
    {
      "midi": 78,
      "hit": false,
      "t": 209000.0000000003,
      "d": 177.08333333334303,
      "v": 127
    },
    {
      "midi": 90,
      "hit": false,
      "t": 209000.0000000003,
      "d": 229.16666666668607,
      "v": 127
    },
    {
      "midi": 68,
      "hit": false,
      "t": 209312.5000000003,
      "d": 250.0000000000291,
      "v": 127
    },
    {
      "midi": 80,
      "hit": false,
      "t": 209333.33333333363,
      "d": 156.25,
      "v": 127
    },
    {
      "midi": 92,
      "hit": false,
      "t": 209333.33333333363,
      "d": 177.08333333334303,
      "v": 127
    },
    {
      "midi": 66,
      "hit": false,
      "t": 209635.41666666698,
      "d": 197.91666666668607,
      "v": 127
    },
    {
      "midi": 90,
      "hit": false,
      "t": 209656.25000000032,
      "d": 177.08333333334303,
      "v": 127
    },
    {
      "midi": 78,
      "hit": false,
      "t": 209677.08333333366,
      "d": 83.33333333334303,
      "v": 127
    },
    {
      "midi": 77,
      "hit": false,
      "t": 210020.83333333366,
      "d": 854.166666666657,
      "v": 127
    },
    {
      "midi": 89,
      "hit": false,
      "t": 210020.83333333366,
      "d": 854.166666666657,
      "v": 127
    },
    {
      "midi": 65,
      "hit": false,
      "t": 210020.83333333366,
      "d": 864.5833333333139,
      "v": 127
    },
    {
      "midi": 77,
      "hit": false,
      "t": 211000.00000000032,
      "d": 197.91666666665697,
      "v": 127
    },
    {
      "midi": 89,
      "hit": false,
      "t": 211000.00000000032,
      "d": 229.16666666665697,
      "v": 127
    },
    {
      "midi": 65,
      "hit": false,
      "t": 211000.00000000032,
      "d": 281.25,
      "v": 127
    },
    {
      "midi": 66,
      "hit": false,
      "t": 211343.75000000032,
      "d": 260.41666666665697,
      "v": 127
    },
    {
      "midi": 78,
      "hit": false,
      "t": 211354.16666666698,
      "d": 187.5,
      "v": 127
    },
    {
      "midi": 90,
      "hit": false,
      "t": 211354.16666666698,
      "d": 208.33333333334303,
      "v": 127
    },
    {
      "midi": 89,
      "hit": false,
      "t": 211666.66666666698,
      "d": 145.83333333334303,
      "v": 127
    },
    {
      "midi": 77,
      "hit": false,
      "t": 211666.66666666698,
      "d": 156.25,
      "v": 127
    },
    {
      "midi": 65,
      "hit": false,
      "t": 211666.66666666698,
      "d": 229.16666666665697,
      "v": 127
    },
    {
      "midi": 63,
      "hit": false,
      "t": 211989.58333333363,
      "d": 1739.583333333343,
      "v": 127
    },
    {
      "midi": 87,
      "hit": false,
      "t": 212010.41666666698,
      "d": 1062.5,
      "v": 127
    },
    {
      "midi": 75,
      "hit": false,
      "t": 212010.41666666698,
      "d": 1145.833333333343,
      "v": 127
    },
    {
      "midi": 71,
      "hit": false,
      "t": 213343.75000000032,
      "d": 395.83333333331393,
      "v": 127
    },
    {
      "midi": 75,
      "hit": false,
      "t": 213343.75000000032,
      "d": 499.9999999999709,
      "v": 127
    },
    {
      "midi": 66,
      "hit": false,
      "t": 213656.25000000032,
      "d": 156.2499999999709,
      "v": 127
    },
    {
      "midi": 66,
      "hit": false,
      "t": 213864.58333333363,
      "d": 72.91666666665697,
      "v": 127
    },
    {
      "midi": 68,
      "hit": false,
      "t": 214010.41666666695,
      "d": 1197.916666666657,
      "v": 127
    },
    {
      "midi": 77,
      "hit": false,
      "t": 214010.41666666695,
      "d": 1197.916666666657,
      "v": 127
    },
    {
      "midi": 73,
      "hit": false,
      "t": 214010.41666666695,
      "d": 1281.25,
      "v": 127
    },
    {
      "midi": 61,
      "hit": false,
      "t": 214041.66666666695,
      "d": 1666.666666666657,
      "v": 127
    },
    {
      "midi": 65,
      "hit": false,
      "t": 214666.66666666695,
      "d": 1020.8333333333139,
      "v": 127
    },
    {
      "midi": 68,
      "hit": false,
      "t": 215333.3333333336,
      "d": 197.91666666665697,
      "v": 127
    },
    {
      "midi": 77,
      "hit": false,
      "t": 215333.3333333336,
      "d": 572.916666666657,
      "v": 127
    },
    {
      "midi": 73,
      "hit": false,
      "t": 215489.5833333336,
      "d": 468.75,
      "v": 127
    },
    {
      "midi": 68,
      "hit": false,
      "t": 215656.25000000026,
      "d": 208.33333333334303,
      "v": 127
    },
    {
      "midi": 73,
      "hit": false,
      "t": 216031.25000000026,
      "d": 562.5,
      "v": 127
    },
    {
      "midi": 70,
      "hit": false,
      "t": 216031.25000000026,
      "d": 625,
      "v": 127
    },
    {
      "midi": 66,
      "hit": false,
      "t": 216031.25000000026,
      "d": 854.166666666657,
      "v": 127
    },
    {
      "midi": 54,
      "hit": false,
      "t": 216375.00000000026,
      "d": 1322.916666666657,
      "v": 127
    },
    {
      "midi": 61,
      "hit": false,
      "t": 216687.50000000026,
      "d": 770.8333333333139,
      "v": 127
    },
    {
      "midi": 68,
      "hit": false,
      "t": 217010.41666666692,
      "d": 135.41666666665697,
      "v": 127
    },
    {
      "midi": 73,
      "hit": false,
      "t": 217010.41666666692,
      "d": 1197.916666666657,
      "v": 127
    },
    {
      "midi": 70,
      "hit": false,
      "t": 217166.66666666692,
      "d": 156.25,
      "v": 127
    },
    {
      "midi": 68,
      "hit": false,
      "t": 217354.16666666692,
      "d": 135.41666666665697,
      "v": 127
    },
    {
      "midi": 66,
      "hit": false,
      "t": 217510.41666666692,
      "d": 687.5,
      "v": 127
    },
    {
      "midi": 61,
      "hit": false,
      "t": 217677.08333333358,
      "d": 1354.166666666686,
      "v": 127
    },
    {
      "midi": 54,
      "hit": false,
      "t": 218000.00000000026,
      "d": 1802.083333333343,
      "v": 127
    },
    {
      "midi": 68,
      "hit": false,
      "t": 218333.33333333358,
      "d": 135.41666666665697,
      "v": 127
    },
    {
      "midi": 73,
      "hit": false,
      "t": 218333.33333333358,
      "d": 968.7500000000291,
      "v": 127
    },
    {
      "midi": 70,
      "hit": false,
      "t": 218500.00000000023,
      "d": 187.5,
      "v": 127
    },
    {
      "midi": 68,
      "hit": false,
      "t": 218666.6666666669,
      "d": 291.66666666668607,
      "v": 127
    },
    {
      "midi": 66,
      "hit": false,
      "t": 218979.16666666692,
      "d": 958.333333333343,
      "v": 127
    },
    {
      "midi": 61,
      "hit": false,
      "t": 219333.3333333336,
      "d": 531.25,
      "v": 127
    },
    {
      "midi": 73,
      "hit": false,
      "t": 219687.50000000026,
      "d": 281.25,
      "v": 127
    },
    {
      "midi": 59,
      "hit": false,
      "t": 219989.5833333336,
      "d": 1687.4999999999418,
      "v": 127
    },
    {
      "midi": 75,
      "hit": false,
      "t": 219989.5833333336,
      "d": 2364.583333333285,
      "v": 127
    },
    {
      "midi": 66,
      "hit": false,
      "t": 220343.75000000026,
      "d": 635.416666666657,
      "v": 127
    },
    {
      "midi": 71,
      "hit": false,
      "t": 220687.50000000026,
      "d": 260.41666666665697,
      "v": 127
    },
    {
      "midi": 71,
      "hit": false,
      "t": 221010.41666666692,
      "d": 395.83333333331393,
      "v": 127
    },
    {
      "midi": 66,
      "hit": false,
      "t": 221333.33333333358,
      "d": 989.5833333333139,
      "v": 127
    },
    {
      "midi": 71,
      "hit": false,
      "t": 221666.6666666669,
      "d": 708.333333333343,
      "v": 127
    },
    {
      "midi": 59,
      "hit": false,
      "t": 222343.75000000023,
      "d": 1104.166666666657,
      "v": 127
    },
    {
      "midi": 66,
      "hit": false,
      "t": 222510.4166666669,
      "d": 531.25,
      "v": 127
    },
    {
      "midi": 78,
      "hit": false,
      "t": 222666.6666666669,
      "d": 1177.083333333343,
      "v": 127
    },
    {
      "midi": 75,
      "hit": false,
      "t": 222989.58333333355,
      "d": 854.1666666666861,
      "v": 127
    },
    {
      "midi": 66,
      "hit": false,
      "t": 223333.33333333355,
      "d": 510.41666666668607,
      "v": 127
    },
    {
      "midi": 71,
      "hit": false,
      "t": 223656.25000000023,
      "d": 197.91666666665697,
      "v": 127
    },
    {
      "midi": 66,
      "hit": false,
      "t": 224052.08333333355,
      "d": 343.75,
      "v": 127
    },
    {
      "midi": 75,
      "hit": false,
      "t": 224052.08333333355,
      "d": 708.3333333333139,
      "v": 127
    },
    {
      "midi": 59,
      "hit": false,
      "t": 224052.08333333355,
      "d": 843.7499999999709,
      "v": 127
    },
    {
      "midi": 71,
      "hit": false,
      "t": 224354.1666666669,
      "d": 489.5833333332848,
      "v": 127
    },
    {
      "midi": 66,
      "hit": false,
      "t": 224656.2500000002,
      "d": 145.83333333331393,
      "v": 127
    },
    {
      "midi": 68,
      "hit": false,
      "t": 224989.58333333352,
      "d": 395.83333333334303,
      "v": 127
    },
    {
      "midi": 61,
      "hit": false,
      "t": 224989.58333333352,
      "d": 760.416666666657,
      "v": 127
    },
    {
      "midi": 77,
      "hit": false,
      "t": 224989.58333333352,
      "d": 812.5,
      "v": 127
    },
    {
      "midi": 73,
      "hit": false,
      "t": 225322.91666666686,
      "d": 520.833333333343,
      "v": 127
    },
    {
      "midi": 68,
      "hit": false,
      "t": 225645.83333333352,
      "d": 177.08333333334303,
      "v": 127
    },
    {
      "midi": 54,
      "hit": false,
      "t": 226010.41666666686,
      "d": 125,
      "v": 127
    },
    {
      "midi": 66,
      "hit": false,
      "t": 226010.41666666686,
      "d": 375,
      "v": 127
    },
    {
      "midi": 78,
      "hit": false,
      "t": 226010.41666666686,
      "d": 583.333333333343,
      "v": 127
    },
    {
      "midi": 66,
      "hit": false,
      "t": 226635.41666666686,
      "d": 677.0833333333139,
      "v": 127
    },
    {
      "midi": 78,
      "hit": false,
      "t": 226979.16666666686,
      "d": 218.75,
      "v": 127
    },
    {
      "midi": 90,
      "hit": false,
      "t": 227000.0000000002,
      "d": 239.58333333331393,
      "v": 127
    },
    {
      "midi": 68,
      "hit": false,
      "t": 227322.91666666683,
      "d": 250,
      "v": 127
    },
    {
      "midi": 92,
      "hit": false,
      "t": 227343.75000000017,
      "d": 166.66666666665697,
      "v": 127
    },
    {
      "midi": 80,
      "hit": false,
      "t": 227343.75000000017,
      "d": 187.5,
      "v": 127
    },
    {
      "midi": 66,
      "hit": false,
      "t": 227656.25000000017,
      "d": 270.83333333334303,
      "v": 127
    },
    {
      "midi": 78,
      "hit": false,
      "t": 227677.08333333352,
      "d": 156.25,
      "v": 127
    },
    {
      "midi": 90,
      "hit": false,
      "t": 227677.08333333352,
      "d": 156.25,
      "v": 127
    },
    {
      "midi": 65,
      "hit": false,
      "t": 228020.83333333352,
      "d": 875,
      "v": 127
    },
    {
      "midi": 77,
      "hit": false,
      "t": 228031.25000000017,
      "d": 875,
      "v": 127
    },
    {
      "midi": 89,
      "hit": false,
      "t": 228052.08333333352,
      "d": 864.5833333333139,
      "v": 127
    },
    {
      "midi": 77,
      "hit": false,
      "t": 229020.8333333335,
      "d": 177.08333333334303,
      "v": 127
    },
    {
      "midi": 89,
      "hit": false,
      "t": 229020.8333333335,
      "d": 197.91666666668607,
      "v": 127
    },
    {
      "midi": 65,
      "hit": false,
      "t": 229020.8333333335,
      "d": 250.0000000000291,
      "v": 127
    },
    {
      "midi": 66,
      "hit": false,
      "t": 229343.75000000017,
      "d": 166.66666666665697,
      "v": 127
    },
    {
      "midi": 78,
      "hit": false,
      "t": 229343.75000000017,
      "d": 166.66666666665697,
      "v": 127
    },
    {
      "midi": 90,
      "hit": false,
      "t": 229343.75000000017,
      "d": 166.66666666665697,
      "v": 127
    },
    {
      "midi": 89,
      "hit": false,
      "t": 229645.8333333335,
      "d": 156.25,
      "v": 127
    },
    {
      "midi": 65,
      "hit": false,
      "t": 229645.8333333335,
      "d": 197.91666666665697,
      "v": 127
    },
    {
      "midi": 77,
      "hit": false,
      "t": 229656.25000000015,
      "d": 145.83333333334303,
      "v": 127
    },
    {
      "midi": 87,
      "hit": false,
      "t": 230010.4166666668,
      "d": 604.166666666657,
      "v": 127
    },
    {
      "midi": 75,
      "hit": false,
      "t": 230010.4166666668,
      "d": 687.5,
      "v": 127
    },
    {
      "midi": 63,
      "hit": false,
      "t": 230010.4166666668,
      "d": 1375,
      "v": 127
    },
    {
      "midi": 66,
      "hit": false,
      "t": 230666.6666666668,
      "d": 697.916666666657,
      "v": 127
    },
    {
      "midi": 70,
      "hit": false,
      "t": 230989.58333333346,
      "d": 468.75,
      "v": 127
    },
    {
      "midi": 78,
      "hit": false,
      "t": 230989.58333333346,
      "d": 854.166666666657,
      "v": 127
    },
    {
      "midi": 75,
      "hit": false,
      "t": 231322.9166666668,
      "d": 562.4999999999709,
      "v": 127
    },
    {
      "midi": 70,
      "hit": false,
      "t": 231635.4166666668,
      "d": 166.66666666665697,
      "v": 127
    },
    {
      "midi": 73,
      "hit": false,
      "t": 231979.16666666677,
      "d": 614.583333333343,
      "v": 127
    },
    {
      "midi": 61,
      "hit": false,
      "t": 231979.16666666677,
      "d": 645.833333333343,
      "v": 127
    },
    {
      "midi": 68,
      "hit": false,
      "t": 231979.16666666677,
      "d": 822.916666666657,
      "v": 127
    },
    {
      "midi": 77,
      "hit": false,
      "t": 231979.16666666677,
      "d": 895.8333333333139,
      "v": 127
    },
    {
      "midi": 61,
      "hit": false,
      "t": 232697.91666666677,
      "d": 166.66666666665697,
      "v": 127
    },
    {
      "midi": 59,
      "hit": false,
      "t": 233010.41666666674,
      "d": 416.66666666665697,
      "v": 127
    },
    {
      "midi": 66,
      "hit": false,
      "t": 233010.41666666674,
      "d": 479.16666666665697,
      "v": 127
    },
    {
      "midi": 71,
      "hit": false,
      "t": 233010.41666666674,
      "d": 718.7499999999709,
      "v": 127
    },
    {
      "midi": 75,
      "hit": false,
      "t": 233010.41666666674,
      "d": 958.3333333332848,
      "v": 127
    },
    {
      "midi": 66,
      "hit": false,
      "t": 233656.25000000006,
      "d": 208.33333333331393,
      "v": 127
    },
    {
      "midi": 70,
      "hit": false,
      "t": 233989.58333333337,
      "d": 1052.083333333314,
      "v": 127
    },
    {
      "midi": 73,
      "hit": false,
      "t": 233989.58333333337,
      "d": 1218.749999999971,
      "v": 127
    },
    {
      "midi": 66,
      "hit": false,
      "t": 233989.58333333337,
      "d": 1239.583333333314,
      "v": 127
    },
    {
      "midi": 54,
      "hit": false,
      "t": 233989.58333333337,
      "d": 1645.833333333314,
      "v": 127
    },
    {
      "midi": 61,
      "hit": false,
      "t": 234312.50000000003,
      "d": 1135.416666666657,
      "v": 127
    },
    {
      "midi": 78,
      "hit": false,
      "t": 234968.75000000003,
      "d": 1312.499999999971,
      "v": 127
    },
    {
      "midi": 66,
      "hit": false,
      "t": 235302.08333333334,
      "d": 208.33333333334303,
      "v": 127
    },
    {
      "midi": 73,
      "hit": false,
      "t": 235302.08333333334,
      "d": 968.75,
      "v": 127
    },
    {
      "midi": 61,
      "hit": false,
      "t": 235635.4166666667,
      "d": 375,
      "v": 127
    },
    {
      "midi": 66,
      "hit": false,
      "t": 235645.83333333334,
      "d": 593.75,
      "v": 127
    },
    {
      "midi": 54,
      "hit": false,
      "t": 235989.58333333334,
      "d": 1385.416666666686,
      "v": 127
    },
    {
      "midi": 61,
      "hit": false,
      "t": 236291.66666666666,
      "d": 1114.5833333333721,
      "v": 127
    },
    {
      "midi": 78,
      "hit": false,
      "t": 236322.91666666666,
      "d": 250.0000000000291,
      "v": 127
    },
    {
      "midi": 66,
      "hit": false,
      "t": 236343.75,
      "d": 208.33333333334303,
      "v": 127
    },
    {
      "midi": 66,
      "hit": false,
      "t": 236645.83333333334,
      "d": 218.75,
      "v": 127
    },
    {
      "midi": 66,
      "hit": false,
      "t": 236989.58333333334,
      "d": 427.08333333334303,
      "v": 127
    },
    {
      "midi": 78,
      "hit": false,
      "t": 236989.58333333334,
      "d": 739.583333333343,
      "v": 127
    },
    {
      "midi": 73,
      "hit": false,
      "t": 237322.9166666667,
      "d": 406.25,
      "v": 127
    },
    {
      "midi": 66,
      "hit": false,
      "t": 237635.4166666667,
      "d": 114.58333333334303,
      "v": 127
    },
    {
      "midi": 70,
      "hit": false,
      "t": 237989.58333333337,
      "d": 437.5,
      "v": 127
    },
    {
      "midi": 63,
      "hit": false,
      "t": 237989.58333333337,
      "d": 843.75,
      "v": 127
    },
    {
      "midi": 78,
      "hit": false,
      "t": 237989.58333333337,
      "d": 1114.583333333343,
      "v": 127
    },
    {
      "midi": 75,
      "hit": false,
      "t": 238333.33333333337,
      "d": 822.9166666666861,
      "v": 127
    },
    {
      "midi": 70,
      "hit": false,
      "t": 238666.66666666672,
      "d": 458.33333333334303,
      "v": 127
    },
    {
      "midi": 63,
      "hit": false,
      "t": 239010.41666666672,
      "d": 750,
      "v": 127
    },
    {
      "midi": 70,
      "hit": false,
      "t": 239333.3333333334,
      "d": 166.66666666665697,
      "v": 127
    },
    {
      "midi": 78,
      "hit": false,
      "t": 239333.3333333334,
      "d": 499.9999999999709,
      "v": 127
    },
    {
      "midi": 75,
      "hit": false,
      "t": 239500.00000000006,
      "d": 437.4999999999709,
      "v": 127
    },
    {
      "midi": 70,
      "hit": false,
      "t": 239656.25000000006,
      "d": 177.08333333331393,
      "v": 127
    },
    {
      "midi": 68,
      "hit": false,
      "t": 239989.58333333337,
      "d": 406.25,
      "v": 127
    },
    {
      "midi": 61,
      "hit": false,
      "t": 239989.58333333337,
      "d": 822.916666666657,
      "v": 127
    },
    {
      "midi": 77,
      "hit": false,
      "t": 240020.83333333337,
      "d": 635.416666666657,
      "v": 127
    },
    {
      "midi": 73,
      "hit": false,
      "t": 240354.16666666672,
      "d": 302.08333333331393,
      "v": 127
    },
    {
      "midi": 68,
      "hit": false,
      "t": 240656.25000000003,
      "d": 197.91666666665697,
      "v": 127
    },
    {
      "midi": 59,
      "hit": false,
      "t": 240979.1666666667,
      "d": 531.25,
      "v": 127
    },
    {
      "midi": 66,
      "hit": false,
      "t": 240989.58333333334,
      "d": 385.41666666668607,
      "v": 127
    },
    {
      "midi": 75,
      "hit": false,
      "t": 241020.83333333334,
      "d": 906.25,
      "v": 127
    },
    {
      "midi": 71,
      "hit": false,
      "t": 241322.9166666667,
      "d": 395.83333333334303,
      "v": 127
    },
    {
      "midi": 66,
      "hit": false,
      "t": 241656.25000000003,
      "d": 260.41666666665697,
      "v": 127
    },
    {
      "midi": 66,
      "hit": false,
      "t": 241979.1666666667,
      "d": 125,
      "v": 127
    },
    {
      "midi": 70,
      "hit": false,
      "t": 241979.1666666667,
      "d": 614.583333333343,
      "v": 127
    },
    {
      "midi": 73,
      "hit": false,
      "t": 241979.1666666667,
      "d": 656.25,
      "v": 127
    },
    {
      "midi": 54,
      "hit": false,
      "t": 242010.4166666667,
      "d": 1416.666666666657,
      "v": 127
    },
    {
      "midi": 61,
      "hit": false,
      "t": 242322.9166666667,
      "d": 760.416666666657,
      "v": 127
    },
    {
      "midi": 66,
      "hit": false,
      "t": 242666.6666666667,
      "d": 2052.083333333314,
      "v": 127
    },
    {
      "midi": 61,
      "hit": false,
      "t": 243343.75,
      "d": 833.333333333343,
      "v": 127
    },
    {
      "midi": 54,
      "hit": false,
      "t": 243656.25,
      "d": 218.75,
      "v": 127
    },
    {
      "midi": 54,
      "hit": false,
      "t": 244000,
      "d": 541.6666666666861,
      "v": 127
    },
    {
      "midi": 85,
      "hit": false,
      "t": 244333.33333333334,
      "d": 666.666666666657,
      "v": 127
    },
    {
      "midi": 80,
      "hit": false,
      "t": 244354.1666666667,
      "d": 156.25,
      "v": 127
    },
    {
      "midi": 82,
      "hit": false,
      "t": 244510.4166666667,
      "d": 177.08333333331393,
      "v": 127
    },
    {
      "midi": 80,
      "hit": false,
      "t": 244677.08333333334,
      "d": 156.25,
      "v": 127
    },
    {
      "midi": 78,
      "hit": false,
      "t": 244833.33333333334,
      "d": 197.91666666665697,
      "v": 127
    },
    {
      "midi": 68,
      "hit": false,
      "t": 245000,
      "d": 197.91666666665697,
      "v": 127
    },
    {
      "midi": 70,
      "hit": false,
      "t": 245187.5,
      "d": 291.66666666665697,
      "v": 127
    },
    {
      "midi": 73,
      "hit": false,
      "t": 245343.75,
      "d": 208.33333333331393,
      "v": 127
    },
    {
      "midi": 78,
      "hit": false,
      "t": 245510.41666666666,
      "d": 177.08333333331393,
      "v": 127
    },
    {
      "midi": 73,
      "hit": false,
      "t": 245677.0833333333,
      "d": 260.41666666665697,
      "v": 127
    },
    {
      "midi": 78,
      "hit": false,
      "t": 245989.5833333333,
      "d": 708.333333333343,
      "v": 127
    },
    {
      "midi": 75,
      "hit": false,
      "t": 245989.5833333333,
      "d": 729.1666666666861,
      "v": 127
    },
    {
      "midi": 63,
      "hit": false,
      "t": 245989.5833333333,
      "d": 1406.250000000029,
      "v": 127
    },
    {
      "midi": 70,
      "hit": false,
      "t": 246343.74999999997,
      "d": 583.3333333333721,
      "v": 127
    },
    {
      "midi": 66,
      "hit": false,
      "t": 246677.0833333333,
      "d": 677.0833333333721,
      "v": 127
    },
    {
      "midi": 78,
      "hit": false,
      "t": 246989.58333333334,
      "d": 802.0833333333139,
      "v": 127
    },
    {
      "midi": 70,
      "hit": false,
      "t": 247010.4166666667,
      "d": 416.66666666665697,
      "v": 127
    },
    {
      "midi": 75,
      "hit": false,
      "t": 247343.75000000003,
      "d": 312.4999999999709,
      "v": 127
    },
    {
      "midi": 70,
      "hit": false,
      "t": 247656.25,
      "d": 197.91666666665697,
      "v": 127
    },
    {
      "midi": 63,
      "hit": false,
      "t": 247656.25,
      "d": 302.08333333331393,
      "v": 127
    },
    {
      "midi": 61,
      "hit": false,
      "t": 247989.5833333333,
      "d": 927.083333333343,
      "v": 127
    },
    {
      "midi": 68,
      "hit": false,
      "t": 248010.41666666666,
      "d": 375,
      "v": 127
    },
    {
      "midi": 77,
      "hit": false,
      "t": 248010.41666666666,
      "d": 572.916666666657,
      "v": 127
    },
    {
      "midi": 73,
      "hit": false,
      "t": 248354.16666666666,
      "d": 322.91666666665697,
      "v": 127
    },
    {
      "midi": 68,
      "hit": false,
      "t": 248677.0833333333,
      "d": 187.5,
      "v": 127
    },
    {
      "midi": 59,
      "hit": false,
      "t": 249010.41666666666,
      "d": 864.583333333343,
      "v": 127
    },
    {
      "midi": 78,
      "hit": false,
      "t": 249343.75,
      "d": 541.666666666657,
      "v": 127
    },
    {
      "midi": 75,
      "hit": false,
      "t": 249666.66666666666,
      "d": 260.41666666665697,
      "v": 127
    },
    {
      "midi": 78,
      "hit": false,
      "t": 250010.41666666666,
      "d": 416.66666666668607,
      "v": 127
    },
    {
      "midi": 66,
      "hit": false,
      "t": 250010.41666666666,
      "d": 666.6666666666861,
      "v": 127
    },
    {
      "midi": 73,
      "hit": false,
      "t": 250343.75,
      "d": 645.833333333343,
      "v": 127
    },
    {
      "midi": 70,
      "hit": false,
      "t": 250666.6666666667,
      "d": 385.41666666665697,
      "v": 127
    },
    {
      "midi": 66,
      "hit": false,
      "t": 251000,
      "d": 770.8333333333139,
      "v": 127
    },
    {
      "midi": 54,
      "hit": false,
      "t": 251343.75,
      "d": 2572.916666666657,
      "v": 127
    },
    {
      "midi": 61,
      "hit": false,
      "t": 251666.66666666666,
      "d": 1239.583333333314,
      "v": 127
    },
    {
      "midi": 68,
      "hit": false,
      "t": 251979.16666666666,
      "d": 364.58333333331393,
      "v": 127
    },
    {
      "midi": 73,
      "hit": false,
      "t": 251979.16666666666,
      "d": 1458.333333333314,
      "v": 127
    },
    {
      "midi": 70,
      "hit": false,
      "t": 252333.3333333333,
      "d": 395.83333333331393,
      "v": 127
    },
    {
      "midi": 68,
      "hit": false,
      "t": 252687.49999999997,
      "d": 312.5,
      "v": 127
    },
    {
      "midi": 66,
      "hit": false,
      "t": 252989.5833333333,
      "d": 802.083333333343,
      "v": 127
    },
    {
      "midi": 61,
      "hit": false,
      "t": 253333.3333333333,
      "d": 583.333333333343,
      "v": 127
    },
    {
      "midi": 73,
      "hit": false,
      "t": 253677.0833333333,
      "d": 229.16666666668607,
      "v": 127
    },
    {
      "midi": 78,
      "hit": false,
      "t": 254062.5,
      "d": 635.416666666657,
      "v": 127
    },
    {
      "midi": 75,
      "hit": false,
      "t": 254062.5,
      "d": 677.0833333333139,
      "v": 127
    },
    {
      "midi": 63,
      "hit": false,
      "t": 254062.5,
      "d": 927.0833333333139,
      "v": 127
    },
    {
      "midi": 65,
      "hit": false,
      "t": 255010.41666666666,
      "d": 718.75,
      "v": 127
    },
    {
      "midi": 80,
      "hit": false,
      "t": 255031.25,
      "d": 635.416666666657,
      "v": 127
    },
    {
      "midi": 73,
      "hit": false,
      "t": 255031.25,
      "d": 760.416666666657,
      "v": 127
    },
    {
      "midi": 66,
      "hit": false,
      "t": 256010.41666666666,
      "d": 2385.416666666657,
      "v": 127
    },
    {
      "midi": 71,
      "hit": false,
      "t": 256010.41666666666,
      "d": 2708.333333333343,
      "v": 127
    },
    {
      "midi": 78,
      "hit": false,
      "t": 256010.41666666666,
      "d": 2708.333333333343,
      "v": 127
    },
    {
      "midi": 75,
      "hit": false,
      "t": 256010.41666666666,
      "d": 2739.583333333343,
      "v": 127
    },
    {
      "midi": 66,
      "hit": false,
      "t": 258666.66666666666,
      "d": 656.25,
      "v": 127
    },
    {
      "midi": 73,
      "hit": false,
      "t": 258989.58333333334,
      "d": 354.16666666665697,
      "v": 127
    },
    {
      "midi": 78,
      "hit": false,
      "t": 258989.58333333334,
      "d": 1604.166666666657,
      "v": 127
    },
    {
      "midi": 75,
      "hit": false,
      "t": 259312.5,
      "d": 625,
      "v": 127
    },
    {
      "midi": 70,
      "hit": false,
      "t": 260000,
      "d": 625,
      "v": 127
    },
    {
      "midi": 73,
      "hit": false,
      "t": 260000,
      "d": 635.416666666657,
      "v": 127
    },
    {
      "midi": 54,
      "hit": false,
      "t": 260000,
      "d": 1552.083333333314,
      "v": 127
    },
    {
      "midi": 61,
      "hit": false,
      "t": 260354.16666666666,
      "d": 1031.25,
      "v": 127
    },
    {
      "midi": 66,
      "hit": false,
      "t": 260666.66666666666,
      "d": 406.25,
      "v": 127
    },
    {
      "midi": 73,
      "hit": false,
      "t": 261000,
      "d": 1343.7499999999418,
      "v": 127
    },
    {
      "midi": 66,
      "hit": false,
      "t": 261322.91666666666,
      "d": 1041.6666666665988,
      "v": 127
    },
    {
      "midi": 61,
      "hit": false,
      "t": 261645.8333333333,
      "d": 364.58333333331393,
      "v": 127
    },
    {
      "midi": 54,
      "hit": false,
      "t": 261999.99999999997,
      "d": 1729.1666666665988,
      "v": 127
    },
    {
      "midi": 61,
      "hit": false,
      "t": 262312.49999999994,
      "d": 1229.1666666666279,
      "v": 127
    },
    {
      "midi": 66,
      "hit": false,
      "t": 262645.83333333326,
      "d": 177.08333333331393,
      "v": 127
    },
    {
      "midi": 78,
      "hit": false,
      "t": 262645.83333333326,
      "d": 197.91666666662786,
      "v": 127
    },
    {
      "midi": 66,
      "hit": false,
      "t": 262979.16666666657,
      "d": 427.08333333331393,
      "v": 127
    },
    {
      "midi": 78,
      "hit": false,
      "t": 262979.16666666657,
      "d": 3416.666666666628,
      "v": 127
    },
    {
      "midi": 73,
      "hit": false,
      "t": 263312.4999999999,
      "d": 666.6666666666861,
      "v": 127
    },
    {
      "midi": 66,
      "hit": false,
      "t": 263635.41666666657,
      "d": 364.58333333331393,
      "v": 127
    },
    {
      "midi": 71,
      "hit": false,
      "t": 263968.7499999999,
      "d": 770.8333333333721,
      "v": 127
    },
    {
      "midi": 59,
      "hit": false,
      "t": 263968.7499999999,
      "d": 1656.25,
      "v": 127
    },
    {
      "midi": 66,
      "hit": false,
      "t": 264312.4999999999,
      "d": 666.6666666666861,
      "v": 127
    },
    {
      "midi": 63,
      "hit": false,
      "t": 264635.41666666657,
      "d": 1208.333333333314,
      "v": 127
    },
    {
      "midi": 66,
      "hit": false,
      "t": 265322.91666666657,
      "d": 999.9999999999418,
      "v": 127
    },
    {
      "midi": 71,
      "hit": false,
      "t": 265656.2499999999,
      "d": 927.0833333333139,
      "v": 127
    },
    {
      "midi": 59,
      "hit": false,
      "t": 265989.5833333332,
      "d": 1489.5833333333721,
      "v": 127
    },
    {
      "midi": 63,
      "hit": false,
      "t": 266322.9166666665,
      "d": 1125.0000000000582,
      "v": 127
    },
    {
      "midi": 66,
      "hit": false,
      "t": 266656.2499999999,
      "d": 520.8333333333721,
      "v": 127
    },
    {
      "midi": 71,
      "hit": false,
      "t": 266968.7499999999,
      "d": 885.4166666667443,
      "v": 127
    },
    {
      "midi": 78,
      "hit": false,
      "t": 266979.16666666657,
      "d": 3729.166666666686,
      "v": 127
    },
    {
      "midi": 66,
      "hit": false,
      "t": 267322.91666666657,
      "d": 489.58333333337214,
      "v": 127
    },
    {
      "midi": 63,
      "hit": false,
      "t": 267645.83333333326,
      "d": 270.83333333337214,
      "v": 127
    },
    {
      "midi": 66,
      "hit": false,
      "t": 267958.3333333333,
      "d": 458.33333333331393,
      "v": 127
    },
    {
      "midi": 73,
      "hit": false,
      "t": 267958.3333333333,
      "d": 708.3333333333139,
      "v": 127
    },
    {
      "midi": 54,
      "hit": false,
      "t": 267958.3333333333,
      "d": 1541.6666666666279,
      "v": 127
    },
    {
      "midi": 61,
      "hit": false,
      "t": 268270.8333333333,
      "d": 510.41666666662786,
      "v": 127
    },
    {
      "midi": 66,
      "hit": false,
      "t": 268635.4166666666,
      "d": 479.16666666662786,
      "v": 127
    },
    {
      "midi": 70,
      "hit": false,
      "t": 268635.4166666666,
      "d": 1697.9166666666279,
      "v": 127
    },
    {
      "midi": 61,
      "hit": false,
      "t": 268989.58333333326,
      "d": 416.66666666668607,
      "v": 127
    },
    {
      "midi": 66,
      "hit": false,
      "t": 269343.74999999994,
      "d": 989.5833333333139,
      "v": 127
    },
    {
      "midi": 61,
      "hit": false,
      "t": 269645.83333333326,
      "d": 354.16666666668607,
      "v": 127
    },
    {
      "midi": 54,
      "hit": false,
      "t": 269989.58333333326,
      "d": 1458.333333333314,
      "v": 127
    },
    {
      "midi": 61,
      "hit": false,
      "t": 270302.08333333326,
      "d": 1312.5,
      "v": 127
    },
    {
      "midi": 66,
      "hit": false,
      "t": 270624.99999999994,
      "d": 479.16666666662786,
      "v": 127
    },
    {
      "midi": 70,
      "hit": false,
      "t": 270645.83333333326,
      "d": 31.25,
      "v": 127
    },
    {
      "midi": 70,
      "hit": false,
      "t": 270958.33333333326,
      "d": 427.08333333331393,
      "v": 127
    },
    {
      "midi": 78,
      "hit": false,
      "t": 270979.16666666657,
      "d": 843.75,
      "v": 127
    },
    {
      "midi": 73,
      "hit": false,
      "t": 271302.08333333326,
      "d": 406.25,
      "v": 127
    },
    {
      "midi": 70,
      "hit": false,
      "t": 271427.08333333326,
      "d": 187.5,
      "v": 127
    },
    {
      "midi": 66,
      "hit": false,
      "t": 271635.41666666657,
      "d": 322.91666666668607,
      "v": 127
    },
    {
      "midi": 71,
      "hit": false,
      "t": 271958.33333333326,
      "d": 489.58333333337214,
      "v": 127
    },
    {
      "midi": 59,
      "hit": false,
      "t": 271958.33333333326,
      "d": 1489.5833333333721,
      "v": 127
    },
    {
      "midi": 66,
      "hit": false,
      "t": 272312.49999999994,
      "d": 520.8333333333139,
      "v": 127
    },
    {
      "midi": 63,
      "hit": false,
      "t": 272656.24999999994,
      "d": 750,
      "v": 127
    },
    {
      "midi": 71,
      "hit": false,
      "t": 272968.74999999994,
      "d": 1479.1666666667443,
      "v": 127
    },
    {
      "midi": 78,
      "hit": false,
      "t": 272968.74999999994,
      "d": 1697.9166666667443,
      "v": 127
    },
    {
      "midi": 66,
      "hit": false,
      "t": 273333.33333333326,
      "d": 1041.6666666667443,
      "v": 127
    },
    {
      "midi": 63,
      "hit": false,
      "t": 273677.0833333333,
      "d": 406.25,
      "v": 127
    },
    {
      "midi": 59,
      "hit": false,
      "t": 274010.4166666666,
      "d": 1479.1666666667443,
      "v": 127
    },
    {
      "midi": 63,
      "hit": false,
      "t": 274343.75,
      "d": 1062.5000000000582,
      "v": 127
    },
    {
      "midi": 66,
      "hit": false,
      "t": 274677.0833333334,
      "d": 562.5,
      "v": 127
    },
    {
      "midi": 78,
      "hit": false,
      "t": 275000.00000000006,
      "d": 791.6666666666861,
      "v": 127
    },
    {
      "midi": 75,
      "hit": false,
      "t": 275156.25000000006,
      "d": 510.41666666668607,
      "v": 127
    },
    {
      "midi": 71,
      "hit": false,
      "t": 275333.3333333334,
      "d": 385.41666666668607,
      "v": 127
    },
    {
      "midi": 66,
      "hit": false,
      "t": 275656.25000000006,
      "d": 416.66666666668607,
      "v": 127
    },
    {
      "midi": 73,
      "hit": false,
      "t": 275979.16666666674,
      "d": 677.0833333333721,
      "v": 127
    },
    {
      "midi": 54,
      "hit": false,
      "t": 276000.00000000006,
      "d": 1437.5000000001164,
      "v": 127
    },
    {
      "midi": 61,
      "hit": false,
      "t": 276333.33333333343,
      "d": 1062.5000000000582,
      "v": 127
    },
    {
      "midi": 66,
      "hit": false,
      "t": 276645.83333333343,
      "d": 541.6666666666861,
      "v": 127
    },
    {
      "midi": 73,
      "hit": false,
      "t": 276979.1666666668,
      "d": 1166.666666666686,
      "v": 127
    },
    {
      "midi": 78,
      "hit": false,
      "t": 276979.1666666668,
      "d": 1343.75,
      "v": 127
    },
    {
      "midi": 66,
      "hit": false,
      "t": 277322.9166666668,
      "d": 854.1666666666861,
      "v": 127
    },
    {
      "midi": 61,
      "hit": false,
      "t": 277645.8333333335,
      "d": 375,
      "v": 127
    },
    {
      "midi": 54,
      "hit": false,
      "t": 277979.1666666668,
      "d": 1489.583333333314,
      "v": 127
    },
    {
      "midi": 61,
      "hit": false,
      "t": 278302.0833333335,
      "d": 1156.2499999999418,
      "v": 127
    },
    {
      "midi": 66,
      "hit": false,
      "t": 278625.0000000001,
      "d": 739.5833333333139,
      "v": 127
    },
    {
      "midi": 78,
      "hit": false,
      "t": 278645.83333333343,
      "d": 1687.5000000000582,
      "v": 127
    },
    {
      "midi": 73,
      "hit": false,
      "t": 278958.33333333343,
      "d": 1177.0833333333721,
      "v": 127
    },
    {
      "midi": 70,
      "hit": false,
      "t": 279291.66666666674,
      "d": 750.0000000000582,
      "v": 127
    },
    {
      "midi": 66,
      "hit": false,
      "t": 279614.58333333343,
      "d": 500.0000000000582,
      "v": 127
    },
    {
      "midi": 59,
      "hit": false,
      "t": 279937.5000000001,
      "d": 1520.8333333332557,
      "v": 127
    },
    {
      "midi": 63,
      "hit": false,
      "t": 280302.0833333335,
      "d": 1135.4166666665697,
      "v": 127
    },
    {
      "midi": 66,
      "hit": false,
      "t": 280635.4166666668,
      "d": 250,
      "v": 127
    },
    {
      "midi": 66,
      "hit": false,
      "t": 280979.1666666668,
      "d": 291.66666666662786,
      "v": 127
    },
    {
      "midi": 75,
      "hit": false,
      "t": 280979.1666666668,
      "d": 1114.5833333332557,
      "v": 127
    },
    {
      "midi": 71,
      "hit": false,
      "t": 281000.0000000001,
      "d": 1041.6666666666279,
      "v": 127
    },
    {
      "midi": 66,
      "hit": false,
      "t": 281322.91666666674,
      "d": 895.8333333333139,
      "v": 127
    },
    {
      "midi": 63,
      "hit": false,
      "t": 281677.0833333334,
      "d": 416.66666666668607,
      "v": 127
    },
    {
      "midi": 59,
      "hit": false,
      "t": 282031.25000000006,
      "d": 1468.7500000000582,
      "v": 127
    },
    {
      "midi": 63,
      "hit": false,
      "t": 282354.16666666674,
      "d": 1093.7500000000582,
      "v": 127
    },
    {
      "midi": 66,
      "hit": false,
      "t": 282666.66666666674,
      "d": 625.0000000000582,
      "v": 127
    },
    {
      "midi": 78,
      "hit": false,
      "t": 282989.58333333343,
      "d": 822.9166666666861,
      "v": 127
    },
    {
      "midi": 71,
      "hit": false,
      "t": 283000.0000000001,
      "d": 875,
      "v": 127
    },
    {
      "midi": 75,
      "hit": false,
      "t": 283343.7500000001,
      "d": 427.08333333331393,
      "v": 127
    },
    {
      "midi": 66,
      "hit": false,
      "t": 283677.08333333343,
      "d": 687.5000000000582,
      "v": 127
    },
    {
      "midi": 54,
      "hit": false,
      "t": 284010.4166666668,
      "d": 3322.916666666686,
      "v": 127
    },
    {
      "midi": 61,
      "hit": false,
      "t": 284322.9166666668,
      "d": 1364.5833333333721,
      "v": 127
    },
    {
      "midi": 66,
      "hit": false,
      "t": 284677.0833333335,
      "d": 406.25,
      "v": 127
    },
    {
      "midi": 78,
      "hit": false,
      "t": 285000.0000000002,
      "d": 1395.833333333314,
      "v": 127
    },
    {
      "midi": 70,
      "hit": false,
      "t": 285020.8333333335,
      "d": 1468.75,
      "v": 127
    },
    {
      "midi": 73,
      "hit": false,
      "t": 285343.7500000002,
      "d": 739.5833333333139,
      "v": 127
    },
    {
      "midi": 66,
      "hit": false,
      "t": 285656.2500000002,
      "d": 489.58333333331393,
      "v": 127
    },
    {
      "midi": 61,
      "hit": false,
      "t": 286000.0000000002,
      "d": 406.25,
      "v": 127
    },
    {
      "midi": 66,
      "hit": false,
      "t": 286333.3333333335,
      "d": 437.5,
      "v": 127
    },
    {
      "midi": 61,
      "hit": false,
      "t": 286656.2500000002,
      "d": 666.6666666666279,
      "v": 127
    },
    {
      "midi": 68,
      "hit": false,
      "t": 286989.5833333335,
      "d": 343.75,
      "v": 127
    },
    {
      "midi": 73,
      "hit": false,
      "t": 286989.5833333335,
      "d": 635.4166666666861,
      "v": 127
    },
    {
      "midi": 70,
      "hit": false,
      "t": 287333.3333333335,
      "d": 302.08333333337214,
      "v": 127
    },
    {
      "midi": 66,
      "hit": false,
      "t": 287645.83333333355,
      "d": 83.33333333331393,
      "v": 127
    },
    {
      "midi": 70,
      "hit": false,
      "t": 287989.58333333355,
      "d": 770.8333333333139,
      "v": 127
    },
    {
      "midi": 75,
      "hit": false,
      "t": 287989.58333333355,
      "d": 802.0833333333139,
      "v": 127
    },
    {
      "midi": 63,
      "hit": false,
      "t": 287989.58333333355,
      "d": 843.75,
      "v": 127
    },
    {
      "midi": 78,
      "hit": false,
      "t": 287989.58333333355,
      "d": 843.75,
      "v": 127
    },
    {
      "midi": 77,
      "hit": false,
      "t": 289010.41666666686,
      "d": 635.4166666666861,
      "v": 127
    },
    {
      "midi": 73,
      "hit": false,
      "t": 289010.41666666686,
      "d": 645.8333333333721,
      "v": 127
    },
    {
      "midi": 68,
      "hit": false,
      "t": 289010.41666666686,
      "d": 718.7500000000582,
      "v": 127
    },
    {
      "midi": 61,
      "hit": false,
      "t": 289010.41666666686,
      "d": 729.1666666667443,
      "v": 127
    },
    {
      "midi": 66,
      "hit": false,
      "t": 290020.8333333336,
      "d": 583.3333333333139,
      "v": 127
    },
    {
      "midi": 71,
      "hit": false,
      "t": 290020.8333333336,
      "d": 718.75,
      "v": 127
    },
    {
      "midi": 75,
      "hit": false,
      "t": 290020.8333333336,
      "d": 812.5,
      "v": 127
    },
    {
      "midi": 59,
      "hit": false,
      "t": 290041.6666666669,
      "d": 1197.916666666686,
      "v": 127
    },
    {
      "midi": 66,
      "hit": false,
      "t": 290645.8333333336,
      "d": 843.75,
      "v": 127
    },
    {
      "midi": 71,
      "hit": false,
      "t": 290739.5833333336,
      "d": 968.75,
      "v": 127
    },
    {
      "midi": 75,
      "hit": false,
      "t": 291020.8333333336,
      "d": 739.5833333333139,
      "v": 127
    },
    {
      "midi": 59,
      "hit": false,
      "t": 291354.1666666669,
      "d": 666.6666666666861,
      "v": 127
    },
    {
      "midi": 66,
      "hit": false,
      "t": 291697.9166666669,
      "d": 218.75,
      "v": 127
    },
    {
      "midi": 70,
      "hit": false,
      "t": 292010.4166666669,
      "d": 395.83333333331393,
      "v": 127
    },
    {
      "midi": 78,
      "hit": false,
      "t": 292010.4166666669,
      "d": 427.08333333331393,
      "v": 127
    },
    {
      "midi": 54,
      "hit": false,
      "t": 292010.4166666669,
      "d": 739.5833333333139,
      "v": 127
    },
    {
      "midi": 61,
      "hit": false,
      "t": 292322.9166666669,
      "d": 427.08333333331393,
      "v": 127
    },
    {
      "midi": 66,
      "hit": false,
      "t": 292687.50000000023,
      "d": 250,
      "v": 127
    },
    {
      "midi": 78,
      "hit": false,
      "t": 293020.83333333355,
      "d": 208.33333333331393,
      "v": 127
    },
    {
      "midi": 90,
      "hit": false,
      "t": 293020.83333333355,
      "d": 239.58333333331393,
      "v": 127
    },
    {
      "midi": 66,
      "hit": false,
      "t": 293020.83333333355,
      "d": 270.83333333331393,
      "v": 127
    },
    {
      "midi": 68,
      "hit": false,
      "t": 293322.91666666686,
      "d": 229.16666666662786,
      "v": 127
    },
    {
      "midi": 80,
      "hit": false,
      "t": 293343.7500000002,
      "d": 177.08333333331393,
      "v": 127
    },
    {
      "midi": 92,
      "hit": false,
      "t": 293343.7500000002,
      "d": 177.08333333331393,
      "v": 127
    },
    {
      "midi": 66,
      "hit": false,
      "t": 293645.8333333335,
      "d": 135.41666666662786,
      "v": 127
    },
    {
      "midi": 78,
      "hit": false,
      "t": 293666.6666666668,
      "d": 93.75,
      "v": 127
    },
    {
      "midi": 90,
      "hit": false,
      "t": 293666.6666666668,
      "d": 114.58333333331393,
      "v": 127
    },
    {
      "midi": 65,
      "hit": false,
      "t": 294010.4166666668,
      "d": 864.5833333333139,
      "v": 127
    },
    {
      "midi": 77,
      "hit": false,
      "t": 294010.4166666668,
      "d": 864.5833333333139,
      "v": 127
    },
    {
      "midi": 89,
      "hit": false,
      "t": 294010.4166666668,
      "d": 864.5833333333139,
      "v": 127
    },
    {
      "midi": 65,
      "hit": false,
      "t": 295010.4166666668,
      "d": 239.58333333331393,
      "v": 127
    },
    {
      "midi": 77,
      "hit": false,
      "t": 295020.8333333335,
      "d": 177.08333333331393,
      "v": 127
    },
    {
      "midi": 89,
      "hit": false,
      "t": 295020.8333333335,
      "d": 197.91666666662786,
      "v": 127
    },
    {
      "midi": 66,
      "hit": false,
      "t": 295333.33333333343,
      "d": 177.08333333331393,
      "v": 127
    },
    {
      "midi": 78,
      "hit": false,
      "t": 295354.16666666674,
      "d": 166.66666666668607,
      "v": 127
    },
    {
      "midi": 90,
      "hit": false,
      "t": 295354.16666666674,
      "d": 187.5,
      "v": 127
    },
    {
      "midi": 65,
      "hit": false,
      "t": 295645.83333333343,
      "d": 208.33333333337214,
      "v": 127
    },
    {
      "midi": 89,
      "hit": false,
      "t": 295666.66666666674,
      "d": 135.41666666668607,
      "v": 127
    },
    {
      "midi": 77,
      "hit": false,
      "t": 295666.66666666674,
      "d": 145.83333333337214,
      "v": 127
    },
    {
      "midi": 79,
      "hit": false,
      "t": 295697.91666666674,
      "d": 41.66666666668607,
      "v": 127
    },
    {
      "midi": 87,
      "hit": false,
      "t": 296010.4166666668,
      "d": 604.1666666666861,
      "v": 127
    },
    {
      "midi": 75,
      "hit": false,
      "t": 296010.4166666668,
      "d": 666.6666666666861,
      "v": 127
    },
    {
      "midi": 63,
      "hit": false,
      "t": 296010.4166666668,
      "d": 1458.333333333314,
      "v": 127
    },
    {
      "midi": 66,
      "hit": false,
      "t": 296677.0833333335,
      "d": 729.1666666666279,
      "v": 127
    },
    {
      "midi": 70,
      "hit": false,
      "t": 296989.5833333335,
      "d": 437.4999999999418,
      "v": 127
    },
    {
      "midi": 78,
      "hit": false,
      "t": 296989.5833333335,
      "d": 843.75,
      "v": 127
    },
    {
      "midi": 75,
      "hit": false,
      "t": 297322.9166666668,
      "d": 500,
      "v": 127
    },
    {
      "midi": 70,
      "hit": false,
      "t": 297666.6666666668,
      "d": 156.25,
      "v": 127
    },
    {
      "midi": 73,
      "hit": false,
      "t": 297989.5833333335,
      "d": 458.33333333331393,
      "v": 127
    },
    {
      "midi": 77,
      "hit": false,
      "t": 297989.5833333335,
      "d": 458.33333333331393,
      "v": 127
    },
    {
      "midi": 68,
      "hit": false,
      "t": 297989.5833333335,
      "d": 500,
      "v": 127
    },
    {
      "midi": 61,
      "hit": false,
      "t": 297989.5833333335,
      "d": 895.8333333333721,
      "v": 127
    },
    {
      "midi": 73,
      "hit": false,
      "t": 298479.1666666668,
      "d": 135.41666666668607,
      "v": 127
    },
    {
      "midi": 77,
      "hit": false,
      "t": 298479.1666666668,
      "d": 333.33333333337214,
      "v": 127
    },
    {
      "midi": 68,
      "hit": false,
      "t": 298656.2500000002,
      "d": 187.5,
      "v": 127
    },
    {
      "midi": 59,
      "hit": false,
      "t": 298989.58333333355,
      "d": 500,
      "v": 127
    },
    {
      "midi": 66,
      "hit": false,
      "t": 299010.41666666686,
      "d": 500,
      "v": 127
    },
    {
      "midi": 75,
      "hit": false,
      "t": 299010.41666666686,
      "d": 1010.4166666666861,
      "v": 127
    },
    {
      "midi": 71,
      "hit": false,
      "t": 299020.83333333355,
      "d": 677.0833333333139,
      "v": 127
    },
    {
      "midi": 66,
      "hit": false,
      "t": 299666.66666666686,
      "d": 239.58333333331393,
      "v": 127
    },
    {
      "midi": 66,
      "hit": false,
      "t": 299979.16666666686,
      "d": 395.83333333331393,
      "v": 127
    },
    {
      "midi": 70,
      "hit": false,
      "t": 299979.16666666686,
      "d": 614.5833333333139,
      "v": 127
    },
    {
      "midi": 73,
      "hit": false,
      "t": 299979.16666666686,
      "d": 645.8333333333139,
      "v": 127
    },
    {
      "midi": 54,
      "hit": false,
      "t": 299979.16666666686,
      "d": 1937.5,
      "v": 127
    },
    {
      "midi": 61,
      "hit": false,
      "t": 300322.91666666686,
      "d": 1593.75,
      "v": 127
    },
    {
      "midi": 66,
      "hit": false,
      "t": 300666.66666666686,
      "d": 1218.75,
      "v": 127
    },
    {
      "midi": 80,
      "hit": false,
      "t": 301645.83333333355,
      "d": 166.66666666668607,
      "v": 127
    },
    {
      "midi": 85,
      "hit": false,
      "t": 301645.83333333355,
      "d": 677.0833333333139,
      "v": 127
    },
    {
      "midi": 82,
      "hit": false,
      "t": 301833.33333333355,
      "d": 177.08333333331393,
      "v": 127
    },
    {
      "midi": 80,
      "hit": false,
      "t": 302000.0000000002,
      "d": 145.83333333337214,
      "v": 127
    },
    {
      "midi": 78,
      "hit": false,
      "t": 302166.66666666686,
      "d": 197.91666666668607,
      "v": 127
    },
    {
      "midi": 68,
      "hit": false,
      "t": 302312.5000000002,
      "d": 197.91666666668607,
      "v": 127
    },
    {
      "midi": 70,
      "hit": false,
      "t": 302489.58333333355,
      "d": 260.41666666662786,
      "v": 127
    },
    {
      "midi": 73,
      "hit": false,
      "t": 302656.2500000002,
      "d": 218.75,
      "v": 127
    },
    {
      "midi": 78,
      "hit": false,
      "t": 302833.3333333335,
      "d": 197.91666666668607,
      "v": 127
    },
    {
      "midi": 73,
      "hit": false,
      "t": 302989.5833333335,
      "d": 343.7500000000582,
      "v": 127
    },
    {
      "midi": 66,
      "hit": false,
      "t": 303322.91666666686,
      "d": 354.16666666668607,
      "v": 127
    },
    {
      "midi": 70,
      "hit": false,
      "t": 303666.66666666686,
      "d": 239.58333333337214,
      "v": 127
    },
    {
      "midi": 63,
      "hit": false,
      "t": 303979.1666666669,
      "d": 781.25,
      "v": 127
    },
    {
      "midi": 70,
      "hit": false,
      "t": 304010.4166666669,
      "d": 562.5,
      "v": 127
    },
    {
      "midi": 75,
      "hit": false,
      "t": 304010.4166666669,
      "d": 1093.75,
      "v": 127
    },
    {
      "midi": 78,
      "hit": false,
      "t": 304010.4166666669,
      "d": 1093.75,
      "v": 127
    },
    {
      "midi": 70,
      "hit": false,
      "t": 304677.0833333336,
      "d": 427.08333333331393,
      "v": 127
    },
    {
      "midi": 63,
      "hit": false,
      "t": 305000.00000000023,
      "d": 833.3333333332557,
      "v": 127
    },
    {
      "midi": 78,
      "hit": false,
      "t": 305312.50000000023,
      "d": 333.33333333331393,
      "v": 127
    },
    {
      "midi": 70,
      "hit": false,
      "t": 305312.50000000023,
      "d": 385.41666666662786,
      "v": 127
    },
    {
      "midi": 75,
      "hit": false,
      "t": 305645.83333333355,
      "d": 135.41666666662786,
      "v": 127
    },
    {
      "midi": 65,
      "hit": false,
      "t": 305979.1666666668,
      "d": 916.6666666666861,
      "v": 127
    },
    {
      "midi": 80,
      "hit": false,
      "t": 305989.5833333335,
      "d": 812.5,
      "v": 127
    },
    {
      "midi": 73,
      "hit": false,
      "t": 305989.5833333335,
      "d": 927.0833333333139,
      "v": 127
    },
    {
      "midi": 66,
      "hit": false,
      "t": 307010.4166666668,
      "d": 447.91666666668607,
      "v": 127
    },
    {
      "midi": 71,
      "hit": false,
      "t": 307010.4166666668,
      "d": 697.9166666666861,
      "v": 127
    },
    {
      "midi": 78,
      "hit": false,
      "t": 307010.4166666668,
      "d": 708.3333333333721,
      "v": 127
    },
    {
      "midi": 75,
      "hit": false,
      "t": 307010.4166666668,
      "d": 729.1666666666861,
      "v": 127
    },
    {
      "midi": 66,
      "hit": false,
      "t": 307656.2500000002,
      "d": 458.33333333331393,
      "v": 127
    },
    {
      "midi": 73,
      "hit": false,
      "t": 308010.4166666668,
      "d": 750.0000000000582,
      "v": 127
    },
    {
      "midi": 78,
      "hit": false,
      "t": 308010.4166666668,
      "d": 750.0000000000582,
      "v": 127
    },
    {
      "midi": 70,
      "hit": false,
      "t": 308010.4166666668,
      "d": 927.0833333333721,
      "v": 127
    },
    {
      "midi": 54,
      "hit": false,
      "t": 308656.2500000002,
      "d": 2854.166666666686,
      "v": 127
    },
    {
      "midi": 61,
      "hit": false,
      "t": 308968.7500000002,
      "d": 604.1666666666861,
      "v": 127
    },
    {
      "midi": 68,
      "hit": false,
      "t": 309312.5000000002,
      "d": 333.33333333337214,
      "v": 127
    },
    {
      "midi": 73,
      "hit": false,
      "t": 309312.5000000002,
      "d": 1375,
      "v": 127
    },
    {
      "midi": 66,
      "hit": false,
      "t": 309635.41666666686,
      "d": 427.08333333337214,
      "v": 127
    },
    {
      "midi": 61,
      "hit": false,
      "t": 309968.75000000023,
      "d": 416.66666666662786,
      "v": 127
    },
    {
      "midi": 70,
      "hit": false,
      "t": 309989.58333333355,
      "d": 697.9166666666279,
      "v": 127
    },
    {
      "midi": 66,
      "hit": false,
      "t": 310333.33333333355,
      "d": 541.6666666666279,
      "v": 127
    },
    {
      "midi": 61,
      "hit": false,
      "t": 310656.2500000002,
      "d": 822.9166666666861,
      "v": 127
    },
    {
      "midi": 70,
      "hit": false,
      "t": 311322.91666666686,
      "d": 385.41666666668607,
      "v": 127
    },
    {
      "midi": 78,
      "hit": false,
      "t": 311322.91666666686,
      "d": 416.66666666668607,
      "v": 127
    },
    {
      "midi": 61,
      "hit": false,
      "t": 311645.83333333355,
      "d": 218.75,
      "v": 127
    },
    {
      "midi": 59,
      "hit": false,
      "t": 311979.16666666686,
      "d": 1406.2499999999418,
      "v": 127
    },
    {
      "midi": 66,
      "hit": false,
      "t": 312010.41666666686,
      "d": 729.1666666666279,
      "v": 127
    },
    {
      "midi": 71,
      "hit": false,
      "t": 312010.41666666686,
      "d": 989.5833333333139,
      "v": 127
    },
    {
      "midi": 75,
      "hit": false,
      "t": 312312.5000000002,
      "d": 687.5,
      "v": 127
    },
    {
      "midi": 63,
      "hit": false,
      "t": 312645.8333333335,
      "d": 979.1666666666861,
      "v": 127
    },
    {
      "midi": 66,
      "hit": false,
      "t": 312989.5833333335,
      "d": 395.83333333331393,
      "v": 127
    },
    {
      "midi": 75,
      "hit": false,
      "t": 313333.3333333335,
      "d": 239.58333333331393,
      "v": 127
    },
    {
      "midi": 71,
      "hit": false,
      "t": 313333.3333333335,
      "d": 250,
      "v": 127
    },
    {
      "midi": 75,
      "hit": false,
      "t": 313666.66666666686,
      "d": 208.33333333331393,
      "v": 127
    },
    {
      "midi": 71,
      "hit": false,
      "t": 313666.66666666686,
      "d": 239.58333333331393,
      "v": 127
    },
    {
      "midi": 75,
      "hit": false,
      "t": 313979.16666666686,
      "d": 531.25,
      "v": 127
    },
    {
      "midi": 54,
      "hit": false,
      "t": 313979.16666666686,
      "d": 1666.666666666686,
      "v": 127
    },
    {
      "midi": 71,
      "hit": false,
      "t": 314000.0000000002,
      "d": 520.8333333333721,
      "v": 127
    },
    {
      "midi": 61,
      "hit": false,
      "t": 314614.58333333355,
      "d": 1052.083333333314,
      "v": 127
    },
    {
      "midi": 70,
      "hit": false,
      "t": 314645.83333333355,
      "d": 375,
      "v": 127
    },
    {
      "midi": 73,
      "hit": false,
      "t": 314645.83333333355,
      "d": 593.75,
      "v": 127
    },
    {
      "midi": 66,
      "hit": false,
      "t": 315010.41666666686,
      "d": 312.5,
      "v": 127
    },
    {
      "midi": 68,
      "hit": false,
      "t": 315322.91666666686,
      "d": 312.5,
      "v": 127
    },
    {
      "midi": 73,
      "hit": false,
      "t": 315322.91666666686,
      "d": 343.75,
      "v": 127
    },
    {
      "midi": 66,
      "hit": false,
      "t": 315677.08333333355,
      "d": 291.66666666668607,
      "v": 127
    },
    {
      "midi": 71,
      "hit": false,
      "t": 315989.58333333355,
      "d": 1062.4999999998836,
      "v": 127
    },
    {
      "midi": 59,
      "hit": false,
      "t": 315989.58333333355,
      "d": 1291.6666666665697,
      "v": 127
    },
    {
      "midi": 75,
      "hit": false,
      "t": 316010.41666666686,
      "d": 1020.8333333332557,
      "v": 127
    },
    {
      "midi": 66,
      "hit": false,
      "t": 316343.7500000002,
      "d": 541.6666666666279,
      "v": 127
    },
    {
      "midi": 63,
      "hit": false,
      "t": 316677.0833333335,
      "d": 666.6666666666279,
      "v": 127
    },
    {
      "midi": 66,
      "hit": false,
      "t": 317000.0000000001,
      "d": 385.41666666668607,
      "v": 127
    },
    {
      "midi": 75,
      "hit": false,
      "t": 317333.33333333343,
      "d": 239.58333333337214,
      "v": 127
    },
    {
      "midi": 71,
      "hit": false,
      "t": 317333.33333333343,
      "d": 260.41666666668607,
      "v": 127
    },
    {
      "midi": 75,
      "hit": false,
      "t": 317656.2500000001,
      "d": 197.91666666668607,
      "v": 127
    },
    {
      "midi": 71,
      "hit": false,
      "t": 317656.2500000001,
      "d": 260.41666666668607,
      "v": 127
    },
    {
      "midi": 75,
      "hit": false,
      "t": 317989.5833333335,
      "d": 562.5,
      "v": 127
    },
    {
      "midi": 71,
      "hit": false,
      "t": 317989.5833333335,
      "d": 572.9166666666861,
      "v": 127
    },
    {
      "midi": 54,
      "hit": false,
      "t": 317989.5833333335,
      "d": 1875.0000000000582,
      "v": 127
    },
    {
      "midi": 61,
      "hit": false,
      "t": 318333.3333333335,
      "d": 1510.416666666686,
      "v": 127
    },
    {
      "midi": 70,
      "hit": false,
      "t": 318687.5000000002,
      "d": 458.33333333331393,
      "v": 127
    },
    {
      "midi": 73,
      "hit": false,
      "t": 318687.5000000002,
      "d": 531.25,
      "v": 127
    },
    {
      "midi": 66,
      "hit": false,
      "t": 319020.8333333335,
      "d": 593.75,
      "v": 127
    },
    {
      "midi": 70,
      "hit": false,
      "t": 319677.0833333335,
      "d": 177.08333333337214,
      "v": 127
    },
    {
      "midi": 75,
      "hit": false,
      "t": 320010.41666666686,
      "d": 687.5,
      "v": 127
    },
    {
      "midi": 78,
      "hit": false,
      "t": 320010.41666666686,
      "d": 812.5,
      "v": 127
    },
    {
      "midi": 70,
      "hit": false,
      "t": 320010.41666666686,
      "d": 833.3333333333139,
      "v": 127
    },
    {
      "midi": 63,
      "hit": false,
      "t": 320010.41666666686,
      "d": 958.3333333333139,
      "v": 127
    },
    {
      "midi": 80,
      "hit": false,
      "t": 321010.41666666686,
      "d": 781.25,
      "v": 127
    },
    {
      "midi": 65,
      "hit": false,
      "t": 321010.41666666686,
      "d": 812.5,
      "v": 127
    },
    {
      "midi": 73,
      "hit": false,
      "t": 321010.41666666686,
      "d": 812.5,
      "v": 127
    },
    {
      "midi": 71,
      "hit": false,
      "t": 322010.41666666686,
      "d": 531.25,
      "v": 127
    },
    {
      "midi": 78,
      "hit": false,
      "t": 322010.41666666686,
      "d": 822.9166666666279,
      "v": 127
    },
    {
      "midi": 75,
      "hit": false,
      "t": 322010.41666666686,
      "d": 885.4166666666279,
      "v": 127
    },
    {
      "midi": 66,
      "hit": false,
      "t": 322010.41666666686,
      "d": 1770.8333333332557,
      "v": 127
    },
    {
      "midi": 71,
      "hit": false,
      "t": 322656.2500000002,
      "d": 260.41666666662786,
      "v": 127
    },
    {
      "midi": 73,
      "hit": false,
      "t": 322979.1666666668,
      "d": 312.5,
      "v": 127
    },
    {
      "midi": 78,
      "hit": false,
      "t": 322979.1666666668,
      "d": 822.9166666666279,
      "v": 127
    },
    {
      "midi": 75,
      "hit": false,
      "t": 323312.5000000001,
      "d": 427.08333333331393,
      "v": 127
    },
    {
      "midi": 73,
      "hit": false,
      "t": 324010.41666666674,
      "d": 447.91666666668607,
      "v": 127
    },
    {
      "midi": 78,
      "hit": false,
      "t": 324010.41666666674,
      "d": 864.5833333333139,
      "v": 127
    },
    {
      "midi": 70,
      "hit": false,
      "t": 324020.83333333343,
      "d": 354.16666666668607,
      "v": 127
    },
    {
      "midi": 66,
      "hit": false,
      "t": 324020.83333333343,
      "d": 833.3333333333139,
      "v": 127
    },
    {
      "midi": 78,
      "hit": false,
      "t": 325000.00000000006,
      "d": 312.5,
      "v": 127
    },
    {
      "midi": 66,
      "hit": false,
      "t": 325000.00000000006,
      "d": 322.91666666668607,
      "v": 127
    },
    {
      "midi": 68,
      "hit": false,
      "t": 325333.33333333343,
      "d": 291.66666666668607,
      "v": 127
    },
    {
      "midi": 80,
      "hit": false,
      "t": 325343.7500000001,
      "d": 270.83333333331393,
      "v": 127
    },
    {
      "midi": 66,
      "hit": false,
      "t": 325656.2500000001,
      "d": 208.33333333331393,
      "v": 127
    },
    {
      "midi": 78,
      "hit": false,
      "t": 325656.2500000001,
      "d": 208.33333333331393,
      "v": 127
    },
    {
      "midi": 65,
      "hit": false,
      "t": 326010.41666666674,
      "d": 822.9166666666861,
      "v": 127
    },
    {
      "midi": 77,
      "hit": false,
      "t": 326010.41666666674,
      "d": 843.75,
      "v": 127
    },
    {
      "midi": 89,
      "hit": false,
      "t": 326010.41666666674,
      "d": 843.75,
      "v": 127
    },
    {
      "midi": 65,
      "hit": false,
      "t": 326989.58333333343,
      "d": 239.58333333331393,
      "v": 127
    },
    {
      "midi": 77,
      "hit": false,
      "t": 327010.41666666674,
      "d": 177.08333333331393,
      "v": 127
    },
    {
      "midi": 89,
      "hit": false,
      "t": 327010.41666666674,
      "d": 177.08333333331393,
      "v": 127
    },
    {
      "midi": 66,
      "hit": false,
      "t": 327322.91666666674,
      "d": 208.33333333337214,
      "v": 127
    },
    {
      "midi": 78,
      "hit": false,
      "t": 327333.33333333343,
      "d": 187.5,
      "v": 127
    },
    {
      "midi": 90,
      "hit": false,
      "t": 327333.33333333343,
      "d": 197.91666666668607,
      "v": 127
    },
    {
      "midi": 65,
      "hit": false,
      "t": 327645.83333333343,
      "d": 208.33333333331393,
      "v": 127
    },
    {
      "midi": 89,
      "hit": false,
      "t": 327666.66666666674,
      "d": 156.25,
      "v": 127
    },
    {
      "midi": 77,
      "hit": false,
      "t": 327666.66666666674,
      "d": 177.08333333331393,
      "v": 127
    },
    {
      "midi": 70,
      "hit": false,
      "t": 328010.41666666674,
      "d": 343.75,
      "v": 127
    },
    {
      "midi": 78,
      "hit": false,
      "t": 328010.41666666674,
      "d": 697.9166666666861,
      "v": 127
    },
    {
      "midi": 75,
      "hit": false,
      "t": 328010.41666666674,
      "d": 718.75,
      "v": 127
    },
    {
      "midi": 63,
      "hit": false,
      "t": 328010.41666666674,
      "d": 1447.9166666666279,
      "v": 127
    },
    {
      "midi": 70,
      "hit": false,
      "t": 328645.83333333343,
      "d": 614.5833333333139,
      "v": 127
    },
    {
      "midi": 78,
      "hit": false,
      "t": 329010.41666666674,
      "d": 687.4999999999418,
      "v": 127
    },
    {
      "midi": 70,
      "hit": false,
      "t": 329343.75000000006,
      "d": 385.41666666662786,
      "v": 127
    },
    {
      "midi": 75,
      "hit": false,
      "t": 329645.8333333334,
      "d": 302.08333333331393,
      "v": 127
    },
    {
      "midi": 68,
      "hit": false,
      "t": 329989.5833333334,
      "d": 385.41666666662786,
      "v": 127
    },
    {
      "midi": 61,
      "hit": false,
      "t": 329989.5833333334,
      "d": 885.4166666666279,
      "v": 127
    },
    {
      "midi": 77,
      "hit": false,
      "t": 330010.4166666667,
      "d": 510.41666666662786,
      "v": 127
    },
    {
      "midi": 73,
      "hit": false,
      "t": 330322.9166666667,
      "d": 302.08333333331393,
      "v": 127
    },
    {
      "midi": 68,
      "hit": false,
      "t": 330645.8333333333,
      "d": 197.91666666668607,
      "v": 127
    },
    {
      "midi": 66,
      "hit": false,
      "t": 330979.1666666667,
      "d": 427.08333333331393,
      "v": 127
    },
    {
      "midi": 75,
      "hit": false,
      "t": 330979.1666666667,
      "d": 947.9166666666279,
      "v": 127
    },
    {
      "midi": 59,
      "hit": false,
      "t": 331010.4166666667,
      "d": 531.25,
      "v": 127
    },
    {
      "midi": 71,
      "hit": false,
      "t": 331322.9166666667,
      "d": 354.16666666662786,
      "v": 127
    },
    {
      "midi": 66,
      "hit": false,
      "t": 331656.25,
      "d": 239.58333333331393,
      "v": 127
    },
    {
      "midi": 70,
      "hit": false,
      "t": 331979.1666666666,
      "d": 385.41666666668607,
      "v": 127
    },
    {
      "midi": 73,
      "hit": false,
      "t": 331979.1666666666,
      "d": 385.41666666668607,
      "v": 127
    },
    {
      "midi": 54,
      "hit": false,
      "t": 331979.1666666666,
      "d": 1614.583333333314,
      "v": 127
    },
    {
      "midi": 61,
      "hit": false,
      "t": 332291.6666666666,
      "d": 1062.5,
      "v": 127
    },
    {
      "midi": 68,
      "hit": false,
      "t": 332656.25,
      "d": 281.25,
      "v": 127
    },
    {
      "midi": 73,
      "hit": false,
      "t": 332656.25,
      "d": 1218.7499999999418,
      "v": 127
    },
    {
      "midi": 70,
      "hit": false,
      "t": 332989.5833333333,
      "d": 843.7499999999418,
      "v": 127
    },
    {
      "midi": 66,
      "hit": false,
      "t": 333333.3333333333,
      "d": 458.3333333332557,
      "v": 127
    },
    {
      "midi": 61,
      "hit": false,
      "t": 333645.83333333326,
      "d": 343.7500000000582,
      "v": 127
    },
    {
      "midi": 54,
      "hit": false,
      "t": 333979.1666666666,
      "d": 437.5,
      "v": 127
    },
    {
      "midi": 80,
      "hit": false,
      "t": 334322.9166666666,
      "d": 135.41666666668607,
      "v": 127
    },
    {
      "midi": 85,
      "hit": false,
      "t": 334322.9166666666,
      "d": 645.8333333333139,
      "v": 127
    },
    {
      "midi": 82,
      "hit": false,
      "t": 334489.5833333333,
      "d": 145.83333333331393,
      "v": 127
    },
    {
      "midi": 80,
      "hit": false,
      "t": 334656.24999999994,
      "d": 135.41666666668607,
      "v": 127
    },
    {
      "midi": 78,
      "hit": false,
      "t": 334822.9166666666,
      "d": 187.5,
      "v": 127
    },
    {
      "midi": 68,
      "hit": false,
      "t": 334999.99999999994,
      "d": 145.83333333337214,
      "v": 127
    },
    {
      "midi": 70,
      "hit": false,
      "t": 335156.25,
      "d": 229.16666666668607,
      "v": 127
    },
    {
      "midi": 73,
      "hit": false,
      "t": 335322.9166666667,
      "d": 229.16666666668607,
      "v": 127
    },
    {
      "midi": 82,
      "hit": false,
      "t": 335489.5833333334,
      "d": 416.66666666668607,
      "v": 127
    },
    {
      "midi": 78,
      "hit": false,
      "t": 335677.0833333334,
      "d": 145.83333333331393,
      "v": 127
    },
    {
      "midi": 73,
      "hit": false,
      "t": 335833.3333333334,
      "d": 114.58333333337214,
      "v": 127
    },
    {
      "midi": 63,
      "hit": false,
      "t": 336010.41666666674,
      "d": 510.41666666668607,
      "v": 127
    },
    {
      "midi": 75,
      "hit": false,
      "t": 336020.83333333343,
      "d": 322.91666666668607,
      "v": 127
    },
    {
      "midi": 78,
      "hit": false,
      "t": 336020.83333333343,
      "d": 687.5,
      "v": 127
    },
    {
      "midi": 70,
      "hit": false,
      "t": 336364.58333333343,
      "d": 552.0833333333139,
      "v": 127
    },
    {
      "midi": 75,
      "hit": false,
      "t": 336375.0000000001,
      "d": 93.75,
      "v": 127
    },
    {
      "midi": 75,
      "hit": false,
      "t": 336541.66666666674,
      "d": 187.5,
      "v": 127
    },
    {
      "midi": 63,
      "hit": false,
      "t": 336697.91666666674,
      "d": 958.3333333334303,
      "v": 127
    },
    {
      "midi": 82,
      "hit": false,
      "t": 336989.58333333343,
      "d": 802.0833333334303,
      "v": 127
    },
    {
      "midi": 75,
      "hit": false,
      "t": 337000.0000000001,
      "d": 958.3333333334303,
      "v": 127
    },
    {
      "midi": 78,
      "hit": false,
      "t": 337322.9166666668,
      "d": 395.83333333337214,
      "v": 127
    },
    {
      "midi": 70,
      "hit": false,
      "t": 337343.7500000001,
      "d": 197.91666666668607,
      "v": 127
    },
    {
      "midi": 70,
      "hit": false,
      "t": 337645.8333333335,
      "d": 333.33333333337214,
      "v": 127
    },
    {
      "midi": 61,
      "hit": false,
      "t": 337989.58333333355,
      "d": 1145.8333333333721,
      "v": 127
    },
    {
      "midi": 73,
      "hit": false,
      "t": 338343.75000000023,
      "d": 208.33333333331393,
      "v": 127
    },
    {
      "midi": 80,
      "hit": false,
      "t": 338343.75000000023,
      "d": 697.9166666666861,
      "v": 127
    },
    {
      "midi": 68,
      "hit": false,
      "t": 338687.50000000023,
      "d": 229.16666666668607,
      "v": 127
    },
    {
      "midi": 77,
      "hit": false,
      "t": 338687.50000000023,
      "d": 302.08333333337214,
      "v": 127
    },
    {
      "midi": 59,
      "hit": false,
      "t": 339322.9166666669,
      "d": 375,
      "v": 127
    },
    {
      "midi": 71,
      "hit": false,
      "t": 339343.75000000023,
      "d": 208.33333333331393,
      "v": 127
    },
    {
      "midi": 75,
      "hit": false,
      "t": 339343.75000000023,
      "d": 270.83333333331393,
      "v": 127
    },
    {
      "midi": 78,
      "hit": false,
      "t": 339343.75000000023,
      "d": 614.5833333333139,
      "v": 127
    },
    {
      "midi": 71,
      "hit": false,
      "t": 339656.25000000023,
      "d": 156.25,
      "v": 127
    },
    {
      "midi": 75,
      "hit": false,
      "t": 339656.25000000023,
      "d": 239.58333333331393,
      "v": 127
    },
    {
      "midi": 70,
      "hit": false,
      "t": 340010.41666666686,
      "d": 468.75,
      "v": 127
    },
    {
      "midi": 73,
      "hit": false,
      "t": 340010.41666666686,
      "d": 562.5,
      "v": 127
    },
    {
      "midi": 78,
      "hit": false,
      "t": 340010.41666666686,
      "d": 614.5833333333139,
      "v": 127
    },
    {
      "midi": 54,
      "hit": false,
      "t": 340010.41666666686,
      "d": 1656.25,
      "v": 127
    },
    {
      "midi": 61,
      "hit": false,
      "t": 340322.91666666686,
      "d": 1364.583333333314,
      "v": 127
    },
    {
      "midi": 66,
      "hit": false,
      "t": 340666.66666666686,
      "d": 1072.9166666666279,
      "v": 127
    },
    {
      "midi": 80,
      "hit": false,
      "t": 341354.16666666686,
      "d": 135.41666666668607,
      "v": 127
    },
    {
      "midi": 82,
      "hit": false,
      "t": 341520.83333333355,
      "d": 864.5833333333139,
      "v": 127
    },
    {
      "midi": 90,
      "hit": false,
      "t": 341687.5000000002,
      "d": 697.9166666666861,
      "v": 127
    },
    {
      "midi": 80,
      "hit": false,
      "t": 342343.7500000002,
      "d": 197.91666666668607,
      "v": 127
    },
    {
      "midi": 85,
      "hit": false,
      "t": 342500.0000000002,
      "d": 166.66666666668607,
      "v": 127
    },
    {
      "midi": 82,
      "hit": false,
      "t": 342687.5000000002,
      "d": 156.25,
      "v": 127
    },
    {
      "midi": 78,
      "hit": false,
      "t": 342833.3333333335,
      "d": 145.83333333337214,
      "v": 127
    },
    {
      "midi": 82,
      "hit": false,
      "t": 343020.83333333355,
      "d": 125,
      "v": 127
    },
    {
      "midi": 75,
      "hit": false,
      "t": 343166.66666666686,
      "d": 156.25,
      "v": 127
    },
    {
      "midi": 82,
      "hit": false,
      "t": 343343.7500000002,
      "d": 177.08333333331393,
      "v": 127
    },
    {
      "midi": 78,
      "hit": false,
      "t": 343500.0000000002,
      "d": 145.83333333331393,
      "v": 127
    },
    {
      "midi": 70,
      "hit": false,
      "t": 343666.6666666668,
      "d": 312.5,
      "v": 127
    },
    {
      "midi": 71,
      "hit": false,
      "t": 344010.4166666668,
      "d": 1218.75,
      "v": 127
    },
    {
      "midi": 75,
      "hit": false,
      "t": 344010.4166666668,
      "d": 1239.583333333314,
      "v": 127
    },
    {
      "midi": 78,
      "hit": false,
      "t": 344010.4166666668,
      "d": 1333.333333333314,
      "v": 127
    },
    {
      "midi": 71,
      "hit": false,
      "t": 345364.58333333343,
      "d": 218.75,
      "v": 127
    },
    {
      "midi": 75,
      "hit": false,
      "t": 345364.58333333343,
      "d": 250,
      "v": 127
    },
    {
      "midi": 71,
      "hit": false,
      "t": 345677.08333333343,
      "d": 239.58333333331393,
      "v": 127
    },
    {
      "midi": 75,
      "hit": false,
      "t": 345677.08333333343,
      "d": 260.41666666662786,
      "v": 127
    },
    {
      "midi": 71,
      "hit": false,
      "t": 346020.8333333334,
      "d": 364.58333333331393,
      "v": 127
    },
    {
      "midi": 75,
      "hit": false,
      "t": 346020.8333333334,
      "d": 489.58333333331393,
      "v": 127
    },
    {
      "midi": 54,
      "hit": false,
      "t": 346020.8333333334,
      "d": 1697.9166666666279,
      "v": 127
    },
    {
      "midi": 73,
      "hit": false,
      "t": 346656.25,
      "d": 364.58333333331393,
      "v": 127
    },
    {
      "midi": 70,
      "hit": false,
      "t": 346656.25,
      "d": 427.08333333331393,
      "v": 127
    },
    {
      "midi": 66,
      "hit": false,
      "t": 346656.25,
      "d": 489.58333333331393,
      "v": 127
    },
    {
      "midi": 68,
      "hit": false,
      "t": 347343.75,
      "d": 302.08333333331393,
      "v": 127
    },
    {
      "midi": 73,
      "hit": false,
      "t": 347343.75,
      "d": 312.5,
      "v": 127
    },
    {
      "midi": 66,
      "hit": false,
      "t": 347677.0833333333,
      "d": 312.5,
      "v": 127
    },
    {
      "midi": 75,
      "hit": false,
      "t": 348010.4166666666,
      "d": 1000,
      "v": 127
    },
    {
      "midi": 71,
      "hit": false,
      "t": 348010.4166666666,
      "d": 1041.666666666686,
      "v": 127
    },
    {
      "midi": 59,
      "hit": false,
      "t": 348010.4166666666,
      "d": 1427.0833333333721,
      "v": 127
    },
    {
      "midi": 66,
      "hit": false,
      "t": 348343.74999999994,
      "d": 416.66666666668607,
      "v": 127
    },
    {
      "midi": 63,
      "hit": false,
      "t": 348656.24999999994,
      "d": 802.0833333333721,
      "v": 127
    },
    {
      "midi": 66,
      "hit": false,
      "t": 348999.99999999994,
      "d": 635.4166666666861,
      "v": 127
    },
    {
      "midi": 71,
      "hit": false,
      "t": 349333.3333333333,
      "d": 270.83333333331393,
      "v": 127
    },
    {
      "midi": 75,
      "hit": false,
      "t": 349343.75,
      "d": 229.16666666662786,
      "v": 127
    },
    {
      "midi": 75,
      "hit": false,
      "t": 349677.0833333333,
      "d": 197.91666666668607,
      "v": 127
    },
    {
      "midi": 71,
      "hit": false,
      "t": 349677.0833333333,
      "d": 208.33333333337214,
      "v": 127
    },
    {
      "midi": 54,
      "hit": false,
      "t": 350000,
      "d": 1645.8333333333721,
      "v": 127
    },
    {
      "midi": 71,
      "hit": false,
      "t": 350020.8333333333,
      "d": 520.8333333333139,
      "v": 127
    },
    {
      "midi": 75,
      "hit": false,
      "t": 350020.8333333333,
      "d": 531.25,
      "v": 127
    },
    {
      "midi": 61,
      "hit": false,
      "t": 350656.25,
      "d": 968.7500000000582,
      "v": 127
    },
    {
      "midi": 70,
      "hit": false,
      "t": 350666.6666666667,
      "d": 333.33333333337214,
      "v": 127
    },
    {
      "midi": 73,
      "hit": false,
      "t": 350666.6666666667,
      "d": 510.41666666668607,
      "v": 127
    },
    {
      "midi": 66,
      "hit": false,
      "t": 350989.5833333334,
      "d": 343.75,
      "v": 127
    },
    {
      "midi": 68,
      "hit": false,
      "t": 351343.75000000006,
      "d": 312.5,
      "v": 127
    },
    {
      "midi": 73,
      "hit": false,
      "t": 351354.16666666674,
      "d": 322.91666666662786,
      "v": 127
    },
    {
      "midi": 66,
      "hit": false,
      "t": 351677.0833333334,
      "d": 145.83333333331393,
      "v": 127
    },
    {
      "midi": 70,
      "hit": false,
      "t": 351677.0833333334,
      "d": 177.08333333331393,
      "v": 127
    },
    {
      "midi": 75,
      "hit": false,
      "t": 352010.4166666667,
      "d": 791.6666666666861,
      "v": 127
    },
    {
      "midi": 70,
      "hit": false,
      "t": 352010.4166666667,
      "d": 812.5,
      "v": 127
    },
    {
      "midi": 78,
      "hit": false,
      "t": 352010.4166666667,
      "d": 854.1666666666861,
      "v": 127
    },
    {
      "midi": 63,
      "hit": false,
      "t": 352010.4166666667,
      "d": 979.1666666666861,
      "v": 127
    },
    {
      "midi": 65,
      "hit": false,
      "t": 352989.5833333334,
      "d": 843.75,
      "v": 127
    },
    {
      "midi": 73,
      "hit": false,
      "t": 353010.4166666667,
      "d": 416.66666666668607,
      "v": 127
    },
    {
      "midi": 80,
      "hit": false,
      "t": 353010.4166666667,
      "d": 822.9166666666861,
      "v": 127
    },
    {
      "midi": 68,
      "hit": false,
      "t": 353333.3333333334,
      "d": 479.16666666668607,
      "v": 127
    },
    {
      "midi": 73,
      "hit": false,
      "t": 353677.0833333334,
      "d": 187.5,
      "v": 127
    },
    {
      "midi": 78,
      "hit": false,
      "t": 354010.4166666667,
      "d": 4760.416666666686,
      "v": 127
    },
    {
      "midi": 75,
      "hit": false,
      "t": 354010.4166666667,
      "d": 4791.666666666686,
      "v": 127
    },
    {
      "midi": 71,
      "hit": false,
      "t": 354010.4166666667,
      "d": 4812.5,
      "v": 127
    },
    {
      "midi": 66,
      "hit": false,
      "t": 354010.4166666667,
      "d": 5302.083333333372,
      "v": 127
    },
    {
      "midi": 73,
      "hit": false,
      "t": 358989.5833333334,
      "d": 354.16666666668607,
      "v": 127
    },
    {
      "midi": 78,
      "hit": false,
      "t": 358989.5833333334,
      "d": 1677.0833333333721,
      "v": 127
    },
    {
      "midi": 75,
      "hit": false,
      "t": 359322.91666666674,
      "d": 520.8333333333139,
      "v": 127
    },
    {
      "midi": 73,
      "hit": false,
      "t": 359979.16666666674,
      "d": 697.9166666666861,
      "v": 127
    },
    {
      "midi": 70,
      "hit": false,
      "t": 359979.16666666674,
      "d": 718.75,
      "v": 127
    },
    {
      "midi": 54,
      "hit": false,
      "t": 359979.16666666674,
      "d": 5333.333333333314,
      "v": 127
    },
    {
      "midi": 61,
      "hit": false,
      "t": 360322.91666666674,
      "d": 4916.666666666628,
      "v": 127
    },
    {
      "midi": 66,
      "hit": false,
      "t": 360666.66666666674,
      "d": 427.08333333331393,
      "v": 127
    },
    {
      "midi": 68,
      "hit": false,
      "t": 361000.00000000006,
      "d": 250,
      "v": 127
    },
    {
      "midi": 73,
      "hit": false,
      "t": 361000.00000000006,
      "d": 4250,
      "v": 127
    },
    {
      "midi": 70,
      "hit": false,
      "t": 361239.5833333334,
      "d": 4031.25,
      "v": 127
    }
  ]
}