{
  "jsonPath": "Jazz/Contemporary Vocal Jazz/Lyambiko/there-is-no-greater-love.json",
  "path": "Jazz\\Contemporary Vocal Jazz\\Lyambiko\\There Is No Greater Love.mid",
  "name": "There Is No Greater Love",
  "difficulty": "Advanced",
  "bpm": 150,
  "notes": [
    {
      "midi": 69,
      "hit": false,
      "t": 1058.3333333333333,
      "d": 50,
      "v": 81
    },
    {
      "midi": 70,
      "hit": false,
      "t": 1204.1666666666665,
      "d": 33.33333333333326,
      "v": 59
    },
    {
      "midi": 72,
      "hit": false,
      "t": 1462.4999999999998,
      "d": 150,
      "v": 62
    },
    {
      "midi": 55,
      "hit": false,
      "t": 1574.9999999999998,
      "d": 1212.4999999999989,
      "v": 24
    },
    {
      "midi": 62,
      "hit": false,
      "t": 1587.4999999999998,
      "d": 670.8333333333333,
      "v": 29
    },
    {
      "midi": 60,
      "hit": false,
      "t": 1591.6666666666665,
      "d": 654.1666666666665,
      "v": 31
    },
    {
      "midi": 65,
      "hit": false,
      "t": 1599.9999999999998,
      "d": 629.1666666666667,
      "v": 26
    },
    {
      "midi": 70,
      "hit": false,
      "t": 1624.9999999999998,
      "d": 816.6666666666658,
      "v": 39
    },
    {
      "midi": 62,
      "hit": false,
      "t": 2429.166666666666,
      "d": 191.66666666666606,
      "v": 32
    },
    {
      "midi": 65,
      "hit": false,
      "t": 2433.3333333333326,
      "d": 183.33333333333303,
      "v": 18
    },
    {
      "midi": 60,
      "hit": false,
      "t": 2437.499999999999,
      "d": 195.83333333333303,
      "v": 14
    },
    {
      "midi": 69,
      "hit": false,
      "t": 2454.1666666666656,
      "d": 233.33333333333303,
      "v": 51
    },
    {
      "midi": 62,
      "hit": false,
      "t": 2704.166666666665,
      "d": 29.166666666666515,
      "v": 45
    },
    {
      "midi": 67,
      "hit": false,
      "t": 2716.666666666665,
      "d": 25,
      "v": 52
    },
    {
      "midi": 62,
      "hit": false,
      "t": 2841.666666666665,
      "d": 154.16666666666652,
      "v": 62
    },
    {
      "midi": 63,
      "hit": false,
      "t": 3074.999999999998,
      "d": 45.833333333333485,
      "v": 70
    },
    {
      "midi": 64,
      "hit": false,
      "t": 3095.8333333333317,
      "d": 83.33333333333348,
      "v": 68
    },
    {
      "midi": 61,
      "hit": false,
      "t": 3095.8333333333317,
      "d": 829.166666666667,
      "v": 38
    },
    {
      "midi": 60,
      "hit": false,
      "t": 3099.999999999998,
      "d": 812.5000000000005,
      "v": 42
    },
    {
      "midi": 55,
      "hit": false,
      "t": 3112.499999999998,
      "d": 800.0000000000005,
      "v": 38
    },
    {
      "midi": 65,
      "hit": false,
      "t": 3154.166666666665,
      "d": 820.8333333333335,
      "v": 59
    },
    {
      "midi": 64,
      "hit": false,
      "t": 4012.4999999999986,
      "d": 62.500000000000455,
      "v": 54
    },
    {
      "midi": 60,
      "hit": false,
      "t": 4020.833333333332,
      "d": 33.333333333333485,
      "v": 28
    },
    {
      "midi": 55,
      "hit": false,
      "t": 4029.1666666666656,
      "d": 37.5,
      "v": 24
    },
    {
      "midi": 63,
      "hit": false,
      "t": 4279.166666666666,
      "d": 25,
      "v": 45
    },
    {
      "midi": 70,
      "hit": false,
      "t": 4649.999999999999,
      "d": 62.5,
      "v": 56
    },
    {
      "midi": 74,
      "hit": false,
      "t": 4995.833333333332,
      "d": 70.83333333333303,
      "v": 78
    },
    {
      "midi": 65,
      "hit": false,
      "t": 5016.666666666665,
      "d": 29.16666666666697,
      "v": 52
    },
    {
      "midi": 77,
      "hit": false,
      "t": 5129.166666666665,
      "d": 66.66666666666697,
      "v": 62
    },
    {
      "midi": 82,
      "hit": false,
      "t": 5254.166666666665,
      "d": 50,
      "v": 62
    },
    {
      "midi": 86,
      "hit": false,
      "t": 5374.999999999998,
      "d": 50,
      "v": 80
    },
    {
      "midi": 89,
      "hit": false,
      "t": 5487.499999999998,
      "d": 70.83333333333303,
      "v": 79
    },
    {
      "midi": 94,
      "hit": false,
      "t": 5608.333333333331,
      "d": 70.83333333333303,
      "v": 69
    },
    {
      "midi": 96,
      "hit": false,
      "t": 5749.999999999997,
      "d": 50,
      "v": 82
    },
    {
      "midi": 65,
      "hit": false,
      "t": 6033.33333333333,
      "d": 70.83333333333394,
      "v": 41
    },
    {
      "midi": 54,
      "hit": false,
      "t": 6037.499999999997,
      "d": 175.0000000000009,
      "v": 35
    },
    {
      "midi": 58,
      "hit": false,
      "t": 6049.999999999997,
      "d": 95.83333333333394,
      "v": 31
    },
    {
      "midi": 60,
      "hit": false,
      "t": 6058.33333333333,
      "d": 41.66666666666697,
      "v": 32
    },
    {
      "midi": 64,
      "hit": false,
      "t": 6295.833333333331,
      "d": 583.3333333333339,
      "v": 24
    },
    {
      "midi": 53,
      "hit": false,
      "t": 6295.833333333331,
      "d": 700,
      "v": 26
    },
    {
      "midi": 59,
      "hit": false,
      "t": 6299.999999999998,
      "d": 620.833333333333,
      "v": 49
    },
    {
      "midi": 61,
      "hit": false,
      "t": 7099.999999999998,
      "d": 91.66666666666606,
      "v": 70
    },
    {
      "midi": 62,
      "hit": false,
      "t": 7245.833333333331,
      "d": 175,
      "v": 37
    },
    {
      "midi": 69,
      "hit": false,
      "t": 7479.166666666664,
      "d": 79.16666666666697,
      "v": 78
    },
    {
      "midi": 53,
      "hit": false,
      "t": 7495.833333333331,
      "d": 270.83333333333303,
      "v": 51
    },
    {
      "midi": 59,
      "hit": false,
      "t": 7499.999999999998,
      "d": 91.66666666666606,
      "v": 43
    },
    {
      "midi": 68,
      "hit": false,
      "t": 7637.499999999997,
      "d": 275.0000000000009,
      "v": 43
    },
    {
      "midi": 66,
      "hit": false,
      "t": 7883.333333333331,
      "d": 83.33333333333303,
      "v": 42
    },
    {
      "midi": 62,
      "hit": false,
      "t": 7958.333333333331,
      "d": 99.99999999999909,
      "v": 34
    },
    {
      "midi": 58,
      "hit": false,
      "t": 7974.999999999997,
      "d": 137.5,
      "v": 25
    },
    {
      "midi": 57,
      "hit": false,
      "t": 7979.166666666664,
      "d": 145.83333333333303,
      "v": 13
    },
    {
      "midi": 67,
      "hit": false,
      "t": 8024.999999999997,
      "d": 224.9999999999991,
      "v": 41
    },
    {
      "midi": 60,
      "hit": false,
      "t": 8279.166666666662,
      "d": 37.5,
      "v": 50
    },
    {
      "midi": 74,
      "hit": false,
      "t": 8783.333333333328,
      "d": 183.33333333333212,
      "v": 67
    },
    {
      "midi": 80,
      "hit": false,
      "t": 8791.666666666662,
      "d": 112.49999999999818,
      "v": 53
    },
    {
      "midi": 86,
      "hit": false,
      "t": 8791.666666666662,
      "d": 187.49999999999818,
      "v": 62
    },
    {
      "midi": 59,
      "hit": false,
      "t": 8795.833333333328,
      "d": 158.33333333333212,
      "v": 40
    },
    {
      "midi": 63,
      "hit": false,
      "t": 8795.833333333328,
      "d": 158.33333333333212,
      "v": 49
    },
    {
      "midi": 53,
      "hit": false,
      "t": 8799.999999999995,
      "d": 100,
      "v": 30
    },
    {
      "midi": 81,
      "hit": false,
      "t": 8920.833333333327,
      "d": 87.5,
      "v": 35
    },
    {
      "midi": 63,
      "hit": false,
      "t": 9179.16666666666,
      "d": 137.5,
      "v": 40
    },
    {
      "midi": 73,
      "hit": false,
      "t": 9187.499999999995,
      "d": 179.16666666666606,
      "v": 59
    },
    {
      "midi": 85,
      "hit": false,
      "t": 9191.66666666666,
      "d": 179.16666666666606,
      "v": 55
    },
    {
      "midi": 53,
      "hit": false,
      "t": 9195.833333333327,
      "d": 108.33333333333394,
      "v": 33
    },
    {
      "midi": 80,
      "hit": false,
      "t": 9199.999999999993,
      "d": 166.66666666666788,
      "v": 42
    },
    {
      "midi": 58,
      "hit": false,
      "t": 10004.16666666666,
      "d": 195.8333333333303,
      "v": 44
    },
    {
      "midi": 62,
      "hit": false,
      "t": 10012.499999999995,
      "d": 179.16666666666242,
      "v": 53
    },
    {
      "midi": 84,
      "hit": false,
      "t": 10016.66666666666,
      "d": 162.49999999999818,
      "v": 60
    },
    {
      "midi": 72,
      "hit": false,
      "t": 10029.16666666666,
      "d": 158.3333333333303,
      "v": 36
    },
    {
      "midi": 79,
      "hit": false,
      "t": 10033.333333333327,
      "d": 166.66666666666424,
      "v": 48
    },
    {
      "midi": 57,
      "hit": false,
      "t": 10049.999999999993,
      "d": 133.33333333333212,
      "v": 24
    },
    {
      "midi": 52,
      "hit": false,
      "t": 10058.333333333327,
      "d": 116.66666666666606,
      "v": 36
    },
    {
      "midi": 84,
      "hit": false,
      "t": 10262.49999999999,
      "d": 79.16666666666424,
      "v": 60
    },
    {
      "midi": 58,
      "hit": false,
      "t": 10266.666666666657,
      "d": 333.3333333333321,
      "v": 37
    },
    {
      "midi": 62,
      "hit": false,
      "t": 10270.833333333323,
      "d": 74.99999999999818,
      "v": 47
    },
    {
      "midi": 72,
      "hit": false,
      "t": 10270.833333333323,
      "d": 308.3333333333321,
      "v": 47
    },
    {
      "midi": 79,
      "hit": false,
      "t": 10274.999999999989,
      "d": 104.16666666666606,
      "v": 56
    },
    {
      "midi": 57,
      "hit": false,
      "t": 10274.999999999989,
      "d": 337.5,
      "v": 40
    },
    {
      "midi": 52,
      "hit": false,
      "t": 10291.666666666655,
      "d": 37.5,
      "v": 42
    },
    {
      "midi": 62,
      "hit": false,
      "t": 10387.499999999989,
      "d": 187.5,
      "v": 35
    },
    {
      "midi": 52,
      "hit": false,
      "t": 10395.833333333323,
      "d": 208.33333333333212,
      "v": 14
    },
    {
      "midi": 84,
      "hit": false,
      "t": 10399.999999999989,
      "d": 166.66666666666606,
      "v": 58
    },
    {
      "midi": 79,
      "hit": false,
      "t": 10412.499999999989,
      "d": 154.16666666666606,
      "v": 30
    },
    {
      "midi": 84,
      "hit": false,
      "t": 10645.833333333323,
      "d": 45.83333333333394,
      "v": 66
    },
    {
      "midi": 79,
      "hit": false,
      "t": 10654.166666666657,
      "d": 25,
      "v": 55
    },
    {
      "midi": 62,
      "hit": false,
      "t": 10658.333333333323,
      "d": 50,
      "v": 54
    },
    {
      "midi": 72,
      "hit": false,
      "t": 10658.333333333323,
      "d": 50,
      "v": 50
    },
    {
      "midi": 58,
      "hit": false,
      "t": 10666.666666666657,
      "d": 58.33333333333212,
      "v": 38
    },
    {
      "midi": 74,
      "hit": false,
      "t": 11174.999999999989,
      "d": 733.3333333333321,
      "v": 71
    },
    {
      "midi": 63,
      "hit": false,
      "t": 11179.166666666655,
      "d": 762.5,
      "v": 45
    },
    {
      "midi": 70,
      "hit": false,
      "t": 11179.166666666655,
      "d": 762.5,
      "v": 55
    },
    {
      "midi": 67,
      "hit": false,
      "t": 11183.333333333321,
      "d": 733.3333333333339,
      "v": 58
    },
    {
      "midi": 72,
      "hit": false,
      "t": 12008.333333333321,
      "d": 158.33333333333394,
      "v": 75
    },
    {
      "midi": 70,
      "hit": false,
      "t": 12266.666666666655,
      "d": 70.83333333333394,
      "v": 55
    },
    {
      "midi": 67,
      "hit": false,
      "t": 12408.333333333323,
      "d": 179.16666666666606,
      "v": 52
    },
    {
      "midi": 62,
      "hit": false,
      "t": 12649.999999999989,
      "d": 950.0000000000018,
      "v": 65
    },
    {
      "midi": 69,
      "hit": false,
      "t": 12654.166666666655,
      "d": 266.6666666666679,
      "v": 92
    },
    {
      "midi": 57,
      "hit": false,
      "t": 12662.499999999989,
      "d": 529.1666666666679,
      "v": 57
    },
    {
      "midi": 51,
      "hit": false,
      "t": 12662.499999999989,
      "d": 554.1666666666679,
      "v": 49
    },
    {
      "midi": 65,
      "hit": false,
      "t": 12945.833333333323,
      "d": 95.83333333333394,
      "v": 74
    },
    {
      "midi": 66,
      "hit": false,
      "t": 13079.166666666657,
      "d": 100,
      "v": 70
    },
    {
      "midi": 68,
      "hit": false,
      "t": 13241.666666666657,
      "d": 279.1666666666679,
      "v": 64
    },
    {
      "midi": 69,
      "hit": false,
      "t": 13512.49999999999,
      "d": 229.16666666666606,
      "v": 96
    },
    {
      "midi": 71,
      "hit": false,
      "t": 13758.333333333323,
      "d": 95.83333333333394,
      "v": 76
    },
    {
      "midi": 72,
      "hit": false,
      "t": 13895.833333333323,
      "d": 120.83333333333212,
      "v": 82
    },
    {
      "midi": 71,
      "hit": false,
      "t": 13908.333333333323,
      "d": 25,
      "v": 48
    },
    {
      "midi": 63,
      "hit": false,
      "t": 13941.666666666657,
      "d": 283.3333333333303,
      "v": 33
    },
    {
      "midi": 57,
      "hit": false,
      "t": 13945.833333333323,
      "d": 216.66666666666424,
      "v": 36
    },
    {
      "midi": 67,
      "hit": false,
      "t": 13949.999999999989,
      "d": 179.16666666666606,
      "v": 27
    },
    {
      "midi": 74,
      "hit": false,
      "t": 14037.499999999989,
      "d": 95.83333333333212,
      "v": 74
    },
    {
      "midi": 74,
      "hit": false,
      "t": 14195.833333333321,
      "d": 37.5,
      "v": 52
    },
    {
      "midi": 62,
      "hit": false,
      "t": 14295.833333333321,
      "d": 620.8333333333321,
      "v": 65
    },
    {
      "midi": 65,
      "hit": false,
      "t": 14299.999999999987,
      "d": 537.5,
      "v": 69
    },
    {
      "midi": 60,
      "hit": false,
      "t": 14299.999999999987,
      "d": 612.5,
      "v": 64
    },
    {
      "midi": 55,
      "hit": false,
      "t": 14312.499999999987,
      "d": 783.3333333333321,
      "v": 62
    },
    {
      "midi": 74,
      "hit": false,
      "t": 14674.999999999987,
      "d": 87.5,
      "v": 91
    },
    {
      "midi": 73,
      "hit": false,
      "t": 14799.999999999987,
      "d": 91.66666666666606,
      "v": 68
    },
    {
      "midi": 74,
      "hit": false,
      "t": 14920.83333333332,
      "d": 120.83333333333394,
      "v": 59
    },
    {
      "midi": 84,
      "hit": false,
      "t": 15095.83333333332,
      "d": 91.66666666666606,
      "v": 90
    },
    {
      "midi": 81,
      "hit": false,
      "t": 15224.999999999985,
      "d": 33.33333333333394,
      "v": 53
    },
    {
      "midi": 84,
      "hit": false,
      "t": 15345.83333333332,
      "d": 112.5,
      "v": 95
    },
    {
      "midi": 81,
      "hit": false,
      "t": 15516.666666666653,
      "d": 79.16666666666606,
      "v": 81
    },
    {
      "midi": 77,
      "hit": false,
      "t": 15629.166666666653,
      "d": 108.33333333333394,
      "v": 54
    },
    {
      "midi": 74,
      "hit": false,
      "t": 15754.166666666653,
      "d": 133.33333333333394,
      "v": 52
    },
    {
      "midi": 65,
      "hit": false,
      "t": 15954.166666666653,
      "d": 29.16666666666606,
      "v": 52
    },
    {
      "midi": 60,
      "hit": false,
      "t": 15954.166666666653,
      "d": 33.33333333333212,
      "v": 49
    },
    {
      "midi": 61,
      "hit": false,
      "t": 15954.166666666653,
      "d": 54.16666666666606,
      "v": 42
    },
    {
      "midi": 85,
      "hit": false,
      "t": 16408.33333333332,
      "d": 108.33333333333212,
      "v": 83
    },
    {
      "midi": 81,
      "hit": false,
      "t": 16549.999999999985,
      "d": 45.83333333333212,
      "v": 46
    },
    {
      "midi": 85,
      "hit": false,
      "t": 16683.333333333318,
      "d": 162.5,
      "v": 84
    },
    {
      "midi": 60,
      "hit": false,
      "t": 16708.333333333318,
      "d": 154.16666666666788,
      "v": 48
    },
    {
      "midi": 65,
      "hit": false,
      "t": 16720.833333333318,
      "d": 25,
      "v": 32
    },
    {
      "midi": 61,
      "hit": false,
      "t": 16729.16666666665,
      "d": 33.33333333333576,
      "v": 25
    },
    {
      "midi": 81,
      "hit": false,
      "t": 16812.499999999985,
      "d": 87.5,
      "v": 68
    },
    {
      "midi": 76,
      "hit": false,
      "t": 16958.333333333318,
      "d": 79.16666666666788,
      "v": 36
    },
    {
      "midi": 65,
      "hit": false,
      "t": 17087.499999999985,
      "d": 33.33333333333576,
      "v": 56
    },
    {
      "midi": 60,
      "hit": false,
      "t": 17099.999999999985,
      "d": 37.50000000000364,
      "v": 40
    },
    {
      "midi": 61,
      "hit": false,
      "t": 17099.999999999985,
      "d": 50.00000000000364,
      "v": 35
    },
    {
      "midi": 83,
      "hit": false,
      "t": 17104.166666666653,
      "d": 95.83333333333576,
      "v": 84
    },
    {
      "midi": 78,
      "hit": false,
      "t": 17249.99999999999,
      "d": 91.66666666666788,
      "v": 56
    },
    {
      "midi": 75,
      "hit": false,
      "t": 17374.99999999999,
      "d": 104.16666666666788,
      "v": 51
    },
    {
      "midi": 58,
      "hit": false,
      "t": 17512.49999999999,
      "d": 133.33333333333212,
      "v": 62
    },
    {
      "midi": 65,
      "hit": false,
      "t": 17516.666666666657,
      "d": 25,
      "v": 68
    },
    {
      "midi": 60,
      "hit": false,
      "t": 17520.833333333325,
      "d": 116.66666666666424,
      "v": 68
    },
    {
      "midi": 54,
      "hit": false,
      "t": 17520.833333333325,
      "d": 124.99999999999636,
      "v": 53
    },
    {
      "midi": 88,
      "hit": false,
      "t": 17670.83333333332,
      "d": 108.33333333333212,
      "v": 84
    },
    {
      "midi": 86,
      "hit": false,
      "t": 17679.166666666653,
      "d": 104.16666666666788,
      "v": 42
    },
    {
      "midi": 82,
      "hit": false,
      "t": 17795.83333333332,
      "d": 133.33333333333212,
      "v": 64
    },
    {
      "midi": 77,
      "hit": false,
      "t": 17941.666666666653,
      "d": 50,
      "v": 46
    },
    {
      "midi": 65,
      "hit": false,
      "t": 18320.83333333332,
      "d": 658.3333333333358,
      "v": 74
    },
    {
      "midi": 60,
      "hit": false,
      "t": 18324.99999999999,
      "d": 662.5,
      "v": 63
    },
    {
      "midi": 58,
      "hit": false,
      "t": 18324.99999999999,
      "d": 733.3333333333321,
      "v": 57
    },
    {
      "midi": 54,
      "hit": false,
      "t": 18337.49999999999,
      "d": 725,
      "v": 55
    },
    {
      "midi": 82,
      "hit": false,
      "t": 19087.49999999999,
      "d": 112.50000000000364,
      "v": 78
    },
    {
      "midi": 64,
      "hit": false,
      "t": 19091.666666666657,
      "d": 79.16666666666788,
      "v": 66
    },
    {
      "midi": 59,
      "hit": false,
      "t": 19108.333333333325,
      "d": 220.83333333333576,
      "v": 46
    },
    {
      "midi": 53,
      "hit": false,
      "t": 19112.499999999993,
      "d": 195.83333333333576,
      "v": 42
    },
    {
      "midi": 83,
      "hit": false,
      "t": 19266.66666666666,
      "d": 200,
      "v": 39
    },
    {
      "midi": 86,
      "hit": false,
      "t": 19529.16666666666,
      "d": 66.66666666666788,
      "v": 71
    },
    {
      "midi": 64,
      "hit": false,
      "t": 19533.33333333333,
      "d": 50,
      "v": 54
    },
    {
      "midi": 59,
      "hit": false,
      "t": 19541.66666666666,
      "d": 245.83333333333212,
      "v": 47
    },
    {
      "midi": 88,
      "hit": false,
      "t": 19654.16666666666,
      "d": 275,
      "v": 88
    },
    {
      "midi": 59,
      "hit": false,
      "t": 20020.83333333333,
      "d": 112.5,
      "v": 17
    },
    {
      "midi": 64,
      "hit": false,
      "t": 20024.999999999996,
      "d": 145.83333333333212,
      "v": 50
    },
    {
      "midi": 86,
      "hit": false,
      "t": 20029.166666666664,
      "d": 179.16666666666424,
      "v": 59
    },
    {
      "midi": 74,
      "hit": false,
      "t": 20049.999999999996,
      "d": 162.5,
      "v": 45
    },
    {
      "midi": 79,
      "hit": false,
      "t": 20291.666666666664,
      "d": 87.5,
      "v": 68
    },
    {
      "midi": 53,
      "hit": false,
      "t": 20304.166666666664,
      "d": 83.33333333333212,
      "v": 40
    },
    {
      "midi": 59,
      "hit": false,
      "t": 20316.666666666664,
      "d": 62.5,
      "v": 44
    },
    {
      "midi": 64,
      "hit": false,
      "t": 20387.499999999996,
      "d": 191.66666666666424,
      "v": 6
    },
    {
      "midi": 74,
      "hit": false,
      "t": 20433.33333333333,
      "d": 270.8333333333321,
      "v": 38
    },
    {
      "midi": 58,
      "hit": false,
      "t": 20799.999999999993,
      "d": 154.16666666666788,
      "v": 30
    },
    {
      "midi": 67,
      "hit": false,
      "t": 20804.16666666666,
      "d": 154.16666666666788,
      "v": 35
    },
    {
      "midi": 63,
      "hit": false,
      "t": 20812.499999999993,
      "d": 108.33333333333576,
      "v": 29
    },
    {
      "midi": 79,
      "hit": false,
      "t": 20816.66666666666,
      "d": 200,
      "v": 59
    },
    {
      "midi": 62,
      "hit": false,
      "t": 20820.83333333333,
      "d": 83.33333333333212,
      "v": 32
    },
    {
      "midi": 67,
      "hit": false,
      "t": 21220.83333333333,
      "d": 179.16666666666788,
      "v": 49
    },
    {
      "midi": 78,
      "hit": false,
      "t": 21229.16666666666,
      "d": 212.50000000000364,
      "v": 58
    },
    {
      "midi": 58,
      "hit": false,
      "t": 21233.33333333333,
      "d": 183.33333333333576,
      "v": 32
    },
    {
      "midi": 63,
      "hit": false,
      "t": 21237.499999999996,
      "d": 175,
      "v": 35
    },
    {
      "midi": 62,
      "hit": false,
      "t": 21249.999999999996,
      "d": 141.66666666666788,
      "v": 33
    },
    {
      "midi": 79,
      "hit": false,
      "t": 21512.499999999996,
      "d": 50,
      "v": 67
    },
    {
      "midi": 67,
      "hit": false,
      "t": 21520.83333333333,
      "d": 37.5,
      "v": 40
    },
    {
      "midi": 63,
      "hit": false,
      "t": 21524.999999999996,
      "d": 58.33333333333212,
      "v": 31
    },
    {
      "midi": 58,
      "hit": false,
      "t": 21529.166666666664,
      "d": 33.33333333333212,
      "v": 28
    },
    {
      "midi": 62,
      "hit": false,
      "t": 21537.499999999996,
      "d": 37.5,
      "v": 30
    },
    {
      "midi": 67,
      "hit": false,
      "t": 21637.499999999996,
      "d": 195.8333333333394,
      "v": 66
    },
    {
      "midi": 58,
      "hit": false,
      "t": 21641.666666666664,
      "d": 187.50000000000364,
      "v": 57
    },
    {
      "midi": 62,
      "hit": false,
      "t": 21641.666666666664,
      "d": 187.50000000000364,
      "v": 57
    },
    {
      "midi": 63,
      "hit": false,
      "t": 21645.833333333332,
      "d": 200.00000000000364,
      "v": 48
    },
    {
      "midi": 81,
      "hit": false,
      "t": 21658.333333333332,
      "d": 129.16666666666788,
      "v": 66
    },
    {
      "midi": 88,
      "hit": false,
      "t": 21658.333333333332,
      "d": 137.5,
      "v": 74
    },
    {
      "midi": 79,
      "hit": false,
      "t": 21662.5,
      "d": 137.5,
      "v": 74
    },
    {
      "midi": 86,
      "hit": false,
      "t": 21662.5,
      "d": 150,
      "v": 75
    },
    {
      "midi": 86,
      "hit": false,
      "t": 21904.166666666668,
      "d": 91.66666666667152,
      "v": 67
    },
    {
      "midi": 63,
      "hit": false,
      "t": 21908.333333333336,
      "d": 112.50000000000364,
      "v": 48
    },
    {
      "midi": 79,
      "hit": false,
      "t": 21908.333333333336,
      "d": 112.50000000000364,
      "v": 65
    },
    {
      "midi": 84,
      "hit": false,
      "t": 21912.500000000004,
      "d": 25,
      "v": 65
    },
    {
      "midi": 67,
      "hit": false,
      "t": 21912.500000000004,
      "d": 79.16666666666788,
      "v": 55
    },
    {
      "midi": 58,
      "hit": false,
      "t": 21912.500000000004,
      "d": 291.6666666666715,
      "v": 46
    },
    {
      "midi": 62,
      "hit": false,
      "t": 21916.66666666667,
      "d": 95.83333333333576,
      "v": 49
    },
    {
      "midi": 84,
      "hit": false,
      "t": 22050.000000000007,
      "d": 87.5,
      "v": 62
    },
    {
      "midi": 67,
      "hit": false,
      "t": 22066.666666666675,
      "d": 108.33333333333212,
      "v": 53
    },
    {
      "midi": 63,
      "hit": false,
      "t": 22075.000000000007,
      "d": 125,
      "v": 20
    },
    {
      "midi": 62,
      "hit": false,
      "t": 22079.166666666675,
      "d": 120.83333333333212,
      "v": 28
    },
    {
      "midi": 82,
      "hit": false,
      "t": 22295.833333333343,
      "d": 466.66666666667516,
      "v": 65
    },
    {
      "midi": 75,
      "hit": false,
      "t": 22300.00000000001,
      "d": 362.5000000000073,
      "v": 60
    },
    {
      "midi": 70,
      "hit": false,
      "t": 22300.00000000001,
      "d": 412.5000000000073,
      "v": 71
    },
    {
      "midi": 79,
      "hit": false,
      "t": 22304.16666666668,
      "d": 341.6666666666715,
      "v": 66
    },
    {
      "midi": 58,
      "hit": false,
      "t": 22308.333333333347,
      "d": 437.50000000000364,
      "v": 51
    },
    {
      "midi": 63,
      "hit": false,
      "t": 22308.333333333347,
      "d": 470.8333333333394,
      "v": 47
    },
    {
      "midi": 67,
      "hit": false,
      "t": 22312.500000000015,
      "d": 408.33333333333576,
      "v": 68
    },
    {
      "midi": 62,
      "hit": false,
      "t": 22316.666666666682,
      "d": 445.83333333333576,
      "v": 64
    },
    {
      "midi": 58,
      "hit": false,
      "t": 22816.666666666686,
      "d": 250,
      "v": 42
    },
    {
      "midi": 67,
      "hit": false,
      "t": 22825.00000000002,
      "d": 137.50000000000364,
      "v": 62
    },
    {
      "midi": 63,
      "hit": false,
      "t": 22825.00000000002,
      "d": 158.33333333333576,
      "v": 35
    },
    {
      "midi": 84,
      "hit": false,
      "t": 22829.166666666686,
      "d": 91.66666666666788,
      "v": 80
    },
    {
      "midi": 72,
      "hit": false,
      "t": 22829.166666666686,
      "d": 129.16666666666788,
      "v": 55
    },
    {
      "midi": 62,
      "hit": false,
      "t": 22841.666666666686,
      "d": 108.33333333333576,
      "v": 59
    },
    {
      "midi": 63,
      "hit": false,
      "t": 23200.00000000002,
      "d": 162.50000000000728,
      "v": 45
    },
    {
      "midi": 78,
      "hit": false,
      "t": 23204.166666666686,
      "d": 141.66666666667152,
      "v": 33
    },
    {
      "midi": 81,
      "hit": false,
      "t": 23204.166666666686,
      "d": 141.66666666667152,
      "v": 52
    },
    {
      "midi": 69,
      "hit": false,
      "t": 23208.333333333354,
      "d": 83.33333333333576,
      "v": 53
    },
    {
      "midi": 57,
      "hit": false,
      "t": 23208.333333333354,
      "d": 133.33333333333576,
      "v": 51
    },
    {
      "midi": 74,
      "hit": false,
      "t": 23216.66666666669,
      "d": 100,
      "v": 48
    },
    {
      "midi": 63,
      "hit": false,
      "t": 23591.66666666669,
      "d": 208.3333333333394,
      "v": 48
    },
    {
      "midi": 57,
      "hit": false,
      "t": 23595.833333333358,
      "d": 150.00000000000364,
      "v": 60
    },
    {
      "midi": 84,
      "hit": false,
      "t": 23600.000000000025,
      "d": 87.5,
      "v": 67
    },
    {
      "midi": 72,
      "hit": false,
      "t": 23604.166666666693,
      "d": 112.5,
      "v": 50
    },
    {
      "midi": 79,
      "hit": false,
      "t": 23608.33333333336,
      "d": 70.83333333333212,
      "v": 55
    },
    {
      "midi": 67,
      "hit": false,
      "t": 23612.50000000003,
      "d": 79.16666666666424,
      "v": 29
    },
    {
      "midi": 62,
      "hit": false,
      "t": 23866.666666666697,
      "d": 237.50000000000364,
      "v": 58
    },
    {
      "midi": 82,
      "hit": false,
      "t": 23870.833333333365,
      "d": 204.16666666666788,
      "v": 70
    },
    {
      "midi": 70,
      "hit": false,
      "t": 23875.000000000033,
      "d": 245.83333333333576,
      "v": 71
    },
    {
      "midi": 65,
      "hit": false,
      "t": 23879.1666666667,
      "d": 212.5,
      "v": 60
    },
    {
      "midi": 60,
      "hit": false,
      "t": 23879.1666666667,
      "d": 241.66666666666788,
      "v": 54
    },
    {
      "midi": 77,
      "hit": false,
      "t": 23883.33333333337,
      "d": 191.66666666666424,
      "v": 69
    },
    {
      "midi": 55,
      "hit": false,
      "t": 23891.6666666667,
      "d": 287.5,
      "v": 51
    },
    {
      "midi": 54,
      "hit": false,
      "t": 24391.6666666667,
      "d": 45.83333333333576,
      "v": 31
    },
    {
      "midi": 65,
      "hit": false,
      "t": 24395.83333333337,
      "d": 270.83333333333576,
      "v": 56
    },
    {
      "midi": 70,
      "hit": false,
      "t": 24395.83333333337,
      "d": 283.33333333333576,
      "v": 55
    },
    {
      "midi": 60,
      "hit": false,
      "t": 24400.000000000036,
      "d": 287.5,
      "v": 51
    },
    {
      "midi": 55,
      "hit": false,
      "t": 24400.000000000036,
      "d": 391.6666666666679,
      "v": 35
    },
    {
      "midi": 59,
      "hit": false,
      "t": 24795.833333333372,
      "d": 129.16666666666788,
      "v": 35
    },
    {
      "midi": 54,
      "hit": false,
      "t": 24800.00000000004,
      "d": 329.1666666666679,
      "v": 38
    },
    {
      "midi": 69,
      "hit": false,
      "t": 24804.166666666708,
      "d": 87.5,
      "v": 33
    },
    {
      "midi": 64,
      "hit": false,
      "t": 24812.50000000004,
      "d": 141.66666666666788,
      "v": 40
    },
    {
      "midi": 70,
      "hit": false,
      "t": 25066.666666666708,
      "d": 450,
      "v": 60
    },
    {
      "midi": 60,
      "hit": false,
      "t": 25066.666666666708,
      "d": 454.1666666666679,
      "v": 54
    },
    {
      "midi": 65,
      "hit": false,
      "t": 25070.833333333376,
      "d": 441.66666666666424,
      "v": 66
    },
    {
      "midi": 55,
      "hit": false,
      "t": 25079.166666666708,
      "d": 550,
      "v": 69
    },
    {
      "midi": 54,
      "hit": false,
      "t": 25620.833333333376,
      "d": 270.8333333333321,
      "v": 34
    },
    {
      "midi": 64,
      "hit": false,
      "t": 25629.166666666708,
      "d": 145.83333333333212,
      "v": 42
    },
    {
      "midi": 59,
      "hit": false,
      "t": 25633.333333333376,
      "d": 108.33333333333212,
      "v": 17
    },
    {
      "midi": 69,
      "hit": false,
      "t": 25641.666666666708,
      "d": 83.33333333333212,
      "v": 31
    },
    {
      "midi": 70,
      "hit": false,
      "t": 25883.333333333372,
      "d": 112.50000000000728,
      "v": 65
    },
    {
      "midi": 60,
      "hit": false,
      "t": 25887.50000000004,
      "d": 62.50000000000364,
      "v": 56
    },
    {
      "midi": 55,
      "hit": false,
      "t": 25887.50000000004,
      "d": 162.50000000000728,
      "v": 61
    },
    {
      "midi": 65,
      "hit": false,
      "t": 25895.833333333376,
      "d": 70.83333333333576,
      "v": 56
    },
    {
      "midi": 71,
      "hit": false,
      "t": 26054.166666666715,
      "d": 104.16666666666788,
      "v": 65
    },
    {
      "midi": 56,
      "hit": false,
      "t": 26058.333333333383,
      "d": 270.83333333333576,
      "v": 54
    },
    {
      "midi": 61,
      "hit": false,
      "t": 26066.666666666715,
      "d": 200.00000000000364,
      "v": 32
    },
    {
      "midi": 66,
      "hit": false,
      "t": 26070.833333333383,
      "d": 166.66666666666788,
      "v": 48
    },
    {
      "midi": 70,
      "hit": false,
      "t": 26291.66666666672,
      "d": 112.5,
      "v": 73
    },
    {
      "midi": 65,
      "hit": false,
      "t": 26300.00000000005,
      "d": 79.16666666666788,
      "v": 72
    },
    {
      "midi": 60,
      "hit": false,
      "t": 26304.16666666672,
      "d": 58.33333333333212,
      "v": 66
    },
    {
      "midi": 55,
      "hit": false,
      "t": 26304.16666666672,
      "d": 75,
      "v": 69
    },
    {
      "midi": 62,
      "hit": false,
      "t": 26691.66666666672,
      "d": 100,
      "v": 62
    },
    {
      "midi": 66,
      "hit": false,
      "t": 26841.66666666672,
      "d": 195.83333333333212,
      "v": 43
    },
    {
      "midi": 63,
      "hit": false,
      "t": 27066.66666666672,
      "d": 37.50000000000364,
      "v": 48
    },
    {
      "midi": 60,
      "hit": false,
      "t": 27070.833333333387,
      "d": 29.16666666666788,
      "v": 50
    },
    {
      "midi": 69,
      "hit": false,
      "t": 27075.000000000055,
      "d": 895.8333333333358,
      "v": 68
    },
    {
      "midi": 65,
      "hit": false,
      "t": 27991.666666666722,
      "d": 420.83333333333576,
      "v": 43
    },
    {
      "midi": 54,
      "hit": false,
      "t": 27991.666666666722,
      "d": 620.8333333333358,
      "v": 35
    },
    {
      "midi": 60,
      "hit": false,
      "t": 27995.83333333339,
      "d": 416.6666666666679,
      "v": 38
    },
    {
      "midi": 58,
      "hit": false,
      "t": 28012.50000000006,
      "d": 575,
      "v": 34
    },
    {
      "midi": 84,
      "hit": false,
      "t": 28404.166666666726,
      "d": 229.16666666666424,
      "v": 108
    },
    {
      "midi": 62,
      "hit": false,
      "t": 28666.666666666722,
      "d": 604.1666666666679,
      "v": 48
    },
    {
      "midi": 57,
      "hit": false,
      "t": 28670.83333333339,
      "d": 620.8333333333321,
      "v": 46
    },
    {
      "midi": 58,
      "hit": false,
      "t": 28670.83333333339,
      "d": 683.3333333333321,
      "v": 31
    },
    {
      "midi": 55,
      "hit": false,
      "t": 28687.50000000006,
      "d": 620.8333333333321,
      "v": 42
    },
    {
      "midi": 81,
      "hit": false,
      "t": 28979.166666666726,
      "d": 112.5,
      "v": 82
    },
    {
      "midi": 78,
      "hit": false,
      "t": 29116.666666666726,
      "d": 83.33333333333212,
      "v": 54
    },
    {
      "midi": 79,
      "hit": false,
      "t": 29245.83333333339,
      "d": 108.33333333333212,
      "v": 77
    },
    {
      "midi": 74,
      "hit": false,
      "t": 29379.166666666722,
      "d": 75,
      "v": 57
    },
    {
      "midi": 72,
      "hit": false,
      "t": 29512.500000000055,
      "d": 87.49999999999636,
      "v": 61
    },
    {
      "midi": 62,
      "hit": false,
      "t": 29520.833333333387,
      "d": 179.16666666666424,
      "v": 34
    },
    {
      "midi": 58,
      "hit": false,
      "t": 29529.16666666672,
      "d": 200,
      "v": 27
    },
    {
      "midi": 57,
      "hit": false,
      "t": 29529.16666666672,
      "d": 283.3333333333321,
      "v": 35
    },
    {
      "midi": 55,
      "hit": false,
      "t": 29541.66666666672,
      "d": 487.5,
      "v": 25
    },
    {
      "midi": 70,
      "hit": false,
      "t": 29650.00000000005,
      "d": 87.5,
      "v": 58
    },
    {
      "midi": 72,
      "hit": false,
      "t": 29850.00000000005,
      "d": 91.66666666666788,
      "v": 68
    },
    {
      "midi": 70,
      "hit": false,
      "t": 29912.50000000005,
      "d": 104.16666666666788,
      "v": 62
    },
    {
      "midi": 62,
      "hit": false,
      "t": 29966.66666666672,
      "d": 162.5,
      "v": 20
    },
    {
      "midi": 58,
      "hit": false,
      "t": 29979.16666666672,
      "d": 87.5,
      "v": 20
    },
    {
      "midi": 69,
      "hit": false,
      "t": 30016.66666666672,
      "d": 225,
      "v": 55
    },
    {
      "midi": 68,
      "hit": false,
      "t": 30283.333333333387,
      "d": 104.16666666666424,
      "v": 57
    },
    {
      "midi": 60,
      "hit": false,
      "t": 30308.333333333387,
      "d": 287.5,
      "v": 51
    },
    {
      "midi": 57,
      "hit": false,
      "t": 30316.66666666672,
      "d": 370.83333333333576,
      "v": 41
    },
    {
      "midi": 55,
      "hit": false,
      "t": 30325.00000000005,
      "d": 525.0000000000036,
      "v": 38
    },
    {
      "midi": 66,
      "hit": false,
      "t": 30479.16666666672,
      "d": 262.50000000000364,
      "v": 35
    },
    {
      "midi": 69,
      "hit": false,
      "t": 30812.500000000055,
      "d": 237.5,
      "v": 60
    },
    {
      "midi": 72,
      "hit": false,
      "t": 31079.166666666722,
      "d": 491.6666666666679,
      "v": 68
    },
    {
      "midi": 65,
      "hit": false,
      "t": 31083.33333333339,
      "d": 529.1666666666679,
      "v": 55
    },
    {
      "midi": 60,
      "hit": false,
      "t": 31083.33333333339,
      "d": 533.3333333333358,
      "v": 49
    },
    {
      "midi": 54,
      "hit": false,
      "t": 31087.50000000006,
      "d": 795.8333333333358,
      "v": 42
    },
    {
      "midi": 58,
      "hit": false,
      "t": 31095.83333333339,
      "d": 687.5000000000036,
      "v": 38
    },
    {
      "midi": 75,
      "hit": false,
      "t": 31608.33333333339,
      "d": 258.33333333333576,
      "v": 79
    },
    {
      "midi": 72,
      "hit": false,
      "t": 31883.333333333394,
      "d": 50,
      "v": 42
    },
    {
      "midi": 62,
      "hit": false,
      "t": 31983.333333333394,
      "d": 300.00000000000364,
      "v": 36
    },
    {
      "midi": 73,
      "hit": false,
      "t": 31991.666666666726,
      "d": 87.50000000000364,
      "v": 71
    },
    {
      "midi": 55,
      "hit": false,
      "t": 31995.833333333394,
      "d": 770.8333333333358,
      "v": 34
    },
    {
      "midi": 58,
      "hit": false,
      "t": 32000.000000000062,
      "d": 379.1666666666679,
      "v": 25
    },
    {
      "midi": 57,
      "hit": false,
      "t": 32016.66666666673,
      "d": 375,
      "v": 24
    },
    {
      "midi": 74,
      "hit": false,
      "t": 32075.000000000062,
      "d": 145.83333333333576,
      "v": 69
    },
    {
      "midi": 65,
      "hit": false,
      "t": 32387.500000000062,
      "d": 341.6666666666679,
      "v": 55
    },
    {
      "midi": 70,
      "hit": false,
      "t": 32800.000000000065,
      "d": 258.33333333333576,
      "v": 74
    },
    {
      "midi": 62,
      "hit": false,
      "t": 33075.000000000065,
      "d": 25,
      "v": 63
    },
    {
      "midi": 50,
      "hit": false,
      "t": 33087.500000000065,
      "d": 33.33333333333576,
      "v": 60
    },
    {
      "midi": 63,
      "hit": false,
      "t": 33579.16666666674,
      "d": 37.5,
      "v": 57
    },
    {
      "midi": 86,
      "hit": false,
      "t": 33587.50000000007,
      "d": 45.83333333332848,
      "v": 67
    },
    {
      "midi": 74,
      "hit": false,
      "t": 33591.66666666674,
      "d": 20.83333333333576,
      "v": 72
    },
    {
      "midi": 60,
      "hit": false,
      "t": 33600.00000000007,
      "d": 37.499999999992724,
      "v": 35
    },
    {
      "midi": 57,
      "hit": false,
      "t": 33608.33333333341,
      "d": 41.666666666656965,
      "v": 27
    },
    {
      "midi": 63,
      "hit": false,
      "t": 33991.66666666673,
      "d": 233.33333333333576,
      "v": 65
    },
    {
      "midi": 90,
      "hit": false,
      "t": 34000.00000000006,
      "d": 166.66666666667152,
      "v": 69
    },
    {
      "midi": 55,
      "hit": false,
      "t": 34000.00000000006,
      "d": 191.66666666667152,
      "v": 60
    },
    {
      "midi": 78,
      "hit": false,
      "t": 34000.00000000006,
      "d": 204.16666666667152,
      "v": 71
    },
    {
      "midi": 60,
      "hit": false,
      "t": 34025.00000000006,
      "d": 45.83333333333576,
      "v": 29
    },
    {
      "midi": 65,
      "hit": false,
      "t": 34395.8333333334,
      "d": 141.66666666666424,
      "v": 66
    },
    {
      "midi": 54,
      "hit": false,
      "t": 34395.8333333334,
      "d": 166.66666666666424,
      "v": 54
    },
    {
      "midi": 58,
      "hit": false,
      "t": 34395.8333333334,
      "d": 166.66666666666424,
      "v": 44
    },
    {
      "midi": 93,
      "hit": false,
      "t": 34400.000000000065,
      "d": 133.33333333333576,
      "v": 69
    },
    {
      "midi": 60,
      "hit": false,
      "t": 34400.000000000065,
      "d": 166.66666666666424,
      "v": 53
    },
    {
      "midi": 81,
      "hit": false,
      "t": 34408.3333333334,
      "d": 95.83333333333576,
      "v": 57
    },
    {
      "midi": 54,
      "hit": false,
      "t": 34670.833333333394,
      "d": 87.5,
      "v": 63
    },
    {
      "midi": 96,
      "hit": false,
      "t": 34675.00000000006,
      "d": 54.16666666666424,
      "v": 73
    },
    {
      "midi": 65,
      "hit": false,
      "t": 34675.00000000006,
      "d": 62.5,
      "v": 68
    },
    {
      "midi": 58,
      "hit": false,
      "t": 34675.00000000006,
      "d": 116.66666666667152,
      "v": 52
    },
    {
      "midi": 84,
      "hit": false,
      "t": 34679.16666666672,
      "d": 37.5,
      "v": 66
    },
    {
      "midi": 60,
      "hit": false,
      "t": 34683.33333333339,
      "d": 87.50000000000728,
      "v": 54
    },
    {
      "midi": 54,
      "hit": false,
      "t": 34812.500000000065,
      "d": 200.00000000000728,
      "v": 52
    },
    {
      "midi": 65,
      "hit": false,
      "t": 34825.000000000065,
      "d": 66.66666666667152,
      "v": 39
    },
    {
      "midi": 81,
      "hit": false,
      "t": 34829.16666666673,
      "d": 54.16666666667152,
      "v": 55
    },
    {
      "midi": 58,
      "hit": false,
      "t": 34829.16666666673,
      "d": 170.83333333334303,
      "v": 18
    },
    {
      "midi": 60,
      "hit": false,
      "t": 34837.500000000065,
      "d": 87.50000000000728,
      "v": 40
    },
    {
      "midi": 58,
      "hit": false,
      "t": 35062.50000000007,
      "d": 508.3333333333285,
      "v": 47
    },
    {
      "midi": 62,
      "hit": false,
      "t": 35066.66666666674,
      "d": 412.5,
      "v": 69
    },
    {
      "midi": 57,
      "hit": false,
      "t": 35066.66666666674,
      "d": 454.1666666666715,
      "v": 68
    },
    {
      "midi": 94,
      "hit": false,
      "t": 35066.66666666674,
      "d": 458.33333333333576,
      "v": 77
    },
    {
      "midi": 82,
      "hit": false,
      "t": 35066.66666666674,
      "d": 487.5,
      "v": 69
    },
    {
      "midi": 55,
      "hit": false,
      "t": 35079.16666666674,
      "d": 433.33333333333576,
      "v": 56
    },
    {
      "midi": 54,
      "hit": false,
      "t": 35608.3333333334,
      "d": 225,
      "v": 50
    },
    {
      "midi": 93,
      "hit": false,
      "t": 35616.66666666673,
      "d": 141.66666666666424,
      "v": 58
    },
    {
      "midi": 58,
      "hit": false,
      "t": 35625.000000000065,
      "d": 854.1666666666715,
      "v": 30
    },
    {
      "midi": 62,
      "hit": false,
      "t": 35629.16666666673,
      "d": 162.5,
      "v": 33
    },
    {
      "midi": 81,
      "hit": false,
      "t": 35641.66666666673,
      "d": 170.83333333333576,
      "v": 40
    },
    {
      "midi": 91,
      "hit": false,
      "t": 35879.16666666674,
      "d": 66.66666666666424,
      "v": 56
    },
    {
      "midi": 79,
      "hit": false,
      "t": 35891.66666666674,
      "d": 87.5,
      "v": 47
    },
    {
      "midi": 62,
      "hit": false,
      "t": 35891.66666666674,
      "d": 579.1666666666642,
      "v": 49
    },
    {
      "midi": 53,
      "hit": false,
      "t": 35904.16666666674,
      "d": 566.6666666666642,
      "v": 44
    },
    {
      "midi": 74,
      "hit": false,
      "t": 36325.00000000007,
      "d": 116.66666666666424,
      "v": 105
    },
    {
      "midi": 71,
      "hit": false,
      "t": 36520.8333333334,
      "d": 166.66666666666424,
      "v": 37
    },
    {
      "midi": 72,
      "hit": false,
      "t": 36729.16666666673,
      "d": 325,
      "v": 67
    },
    {
      "midi": 62,
      "hit": false,
      "t": 36750.000000000065,
      "d": 41.66666666666424,
      "v": 33
    },
    {
      "midi": 58,
      "hit": false,
      "t": 36762.500000000065,
      "d": 54.16666666666424,
      "v": 30
    },
    {
      "midi": 67,
      "hit": false,
      "t": 36920.833333333394,
      "d": 208.33333333333576,
      "v": 57
    },
    {
      "midi": 65,
      "hit": false,
      "t": 37237.500000000065,
      "d": 266.66666666666424,
      "v": 74
    },
    {
      "midi": 58,
      "hit": false,
      "t": 37520.833333333394,
      "d": 29.16666666666424,
      "v": 23
    },
    {
      "midi": 64,
      "hit": false,
      "t": 37625.00000000006,
      "d": 254.16666666666424,
      "v": 60
    },
    {
      "midi": 60,
      "hit": false,
      "t": 37900.00000000006,
      "d": 829.1666666666642,
      "v": 61
    },
    {
      "midi": 57,
      "hit": false,
      "t": 38400.00000000006,
      "d": 470.8333333333285,
      "v": 34
    },
    {
      "midi": 51,
      "hit": false,
      "t": 38412.50000000006,
      "d": 854.1666666666642,
      "v": 37
    },
    {
      "midi": 63,
      "hit": false,
      "t": 38783.33333333339,
      "d": 66.66666666666424,
      "v": 39
    },
    {
      "midi": 65,
      "hit": false,
      "t": 38891.66666666672,
      "d": 70.83333333333576,
      "v": 58
    },
    {
      "midi": 66,
      "hit": false,
      "t": 39000.00000000006,
      "d": 25,
      "v": 56
    },
    {
      "midi": 57,
      "hit": false,
      "t": 39100.00000000006,
      "d": 166.66666666666424,
      "v": 29
    },
    {
      "midi": 69,
      "hit": false,
      "t": 39108.333333333394,
      "d": 91.66666666666424,
      "v": 58
    },
    {
      "midi": 62,
      "hit": false,
      "t": 39458.33333333339,
      "d": 29.16666666666424,
      "v": 52
    },
    {
      "midi": 51,
      "hit": false,
      "t": 39458.33333333339,
      "d": 54.16666666666424,
      "v": 42
    },
    {
      "midi": 57,
      "hit": false,
      "t": 39462.50000000005,
      "d": 45.83333333333576,
      "v": 49
    },
    {
      "midi": 73,
      "hit": false,
      "t": 39695.83333333339,
      "d": 45.83333333333576,
      "v": 59
    },
    {
      "midi": 75,
      "hit": false,
      "t": 39800.00000000006,
      "d": 58.33333333333576,
      "v": 71
    },
    {
      "midi": 77,
      "hit": false,
      "t": 39900.00000000006,
      "d": 70.83333333333576,
      "v": 71
    },
    {
      "midi": 76,
      "hit": false,
      "t": 39904.16666666672,
      "d": 66.66666666667152,
      "v": 64
    },
    {
      "midi": 65,
      "hit": false,
      "t": 39962.50000000006,
      "d": 820.8333333333285,
      "v": 53
    },
    {
      "midi": 60,
      "hit": false,
      "t": 39975.00000000006,
      "d": 912.4999999999927,
      "v": 49
    },
    {
      "midi": 62,
      "hit": false,
      "t": 39975.00000000006,
      "d": 920.8333333333212,
      "v": 38
    },
    {
      "midi": 55,
      "hit": false,
      "t": 39995.833333333394,
      "d": 1283.3333333333285,
      "v": 49
    },
    {
      "midi": 74,
      "hit": false,
      "t": 40025.00000000006,
      "d": 179.16666666666424,
      "v": 69
    },
    {
      "midi": 69,
      "hit": false,
      "t": 40241.66666666672,
      "d": 458.33333333333576,
      "v": 62
    },
    {
      "midi": 79,
      "hit": false,
      "t": 40779.16666666672,
      "d": 112.49999999999272,
      "v": 77
    },
    {
      "midi": 78,
      "hit": false,
      "t": 40887.50000000005,
      "d": 137.5,
      "v": 60
    },
    {
      "midi": 73,
      "hit": false,
      "t": 41004.166666666715,
      "d": 129.16666666667152,
      "v": 49
    },
    {
      "midi": 72,
      "hit": false,
      "t": 41112.50000000005,
      "d": 58.33333333333576,
      "v": 37
    },
    {
      "midi": 62,
      "hit": false,
      "t": 41170.83333333339,
      "d": 50,
      "v": 22
    },
    {
      "midi": 65,
      "hit": false,
      "t": 41887.50000000006,
      "d": 25,
      "v": 58
    },
    {
      "midi": 58,
      "hit": false,
      "t": 41895.833333333394,
      "d": 45.83333333332848,
      "v": 35
    },
    {
      "midi": 60,
      "hit": false,
      "t": 41908.333333333394,
      "d": 29.16666666666424,
      "v": 36
    },
    {
      "midi": 60,
      "hit": false,
      "t": 42304.16666666672,
      "d": 337.4999999999927,
      "v": 80
    },
    {
      "midi": 61,
      "hit": false,
      "t": 42304.16666666672,
      "d": 341.66666666665697,
      "v": 69
    },
    {
      "midi": 65,
      "hit": false,
      "t": 42308.33333333339,
      "d": 58.33333333333576,
      "v": 84
    },
    {
      "midi": 58,
      "hit": false,
      "t": 42316.66666666672,
      "d": 50,
      "v": 40
    },
    {
      "midi": 55,
      "hit": false,
      "t": 42329.16666666672,
      "d": 25,
      "v": 51
    },
    {
      "midi": 55,
      "hit": false,
      "t": 42425.00000000006,
      "d": 204.16666666665697,
      "v": 32
    },
    {
      "midi": 65,
      "hit": false,
      "t": 42429.16666666672,
      "d": 170.83333333332848,
      "v": 36
    },
    {
      "midi": 77,
      "hit": false,
      "t": 42458.33333333339,
      "d": 204.16666666665697,
      "v": 103
    },
    {
      "midi": 76,
      "hit": false,
      "t": 42712.500000000044,
      "d": 104.16666666667152,
      "v": 77
    },
    {
      "midi": 60,
      "hit": false,
      "t": 42720.83333333338,
      "d": 70.83333333333576,
      "v": 58
    },
    {
      "midi": 61,
      "hit": false,
      "t": 42720.83333333338,
      "d": 87.5,
      "v": 42
    },
    {
      "midi": 65,
      "hit": false,
      "t": 42729.166666666715,
      "d": 25,
      "v": 56
    },
    {
      "midi": 55,
      "hit": false,
      "t": 42862.50000000005,
      "d": 158.33333333333576,
      "v": 36
    },
    {
      "midi": 61,
      "hit": false,
      "t": 42862.50000000005,
      "d": 179.16666666667152,
      "v": 15
    },
    {
      "midi": 60,
      "hit": false,
      "t": 42870.83333333339,
      "d": 158.33333333333576,
      "v": 33
    },
    {
      "midi": 75,
      "hit": false,
      "t": 42875.00000000005,
      "d": 245.83333333333576,
      "v": 52
    },
    {
      "midi": 65,
      "hit": false,
      "t": 42879.166666666715,
      "d": 58.33333333333576,
      "v": 28
    },
    {
      "midi": 58,
      "hit": false,
      "t": 43116.66666666672,
      "d": 70.83333333332848,
      "v": 23
    },
    {
      "midi": 69,
      "hit": false,
      "t": 43137.50000000005,
      "d": 54.16666666666424,
      "v": 62
    },
    {
      "midi": 70,
      "hit": false,
      "t": 43266.666666666715,
      "d": 354.1666666666715,
      "v": 56
    },
    {
      "midi": 74,
      "hit": false,
      "t": 43266.666666666715,
      "d": 375,
      "v": 61
    },
    {
      "midi": 65,
      "hit": false,
      "t": 43275.00000000005,
      "d": 300,
      "v": 51
    },
    {
      "midi": 60,
      "hit": false,
      "t": 43275.00000000005,
      "d": 337.5,
      "v": 49
    },
    {
      "midi": 54,
      "hit": false,
      "t": 43275.00000000005,
      "d": 362.5,
      "v": 46
    },
    {
      "midi": 65,
      "hit": false,
      "t": 44020.83333333338,
      "d": 195.83333333332848,
      "v": 74
    },
    {
      "midi": 82,
      "hit": false,
      "t": 44020.83333333338,
      "d": 329.16666666665697,
      "v": 63
    },
    {
      "midi": 54,
      "hit": false,
      "t": 44025.000000000044,
      "d": 200,
      "v": 65
    },
    {
      "midi": 60,
      "hit": false,
      "t": 44025.000000000044,
      "d": 208.33333333333576,
      "v": 64
    },
    {
      "midi": 77,
      "hit": false,
      "t": 44025.000000000044,
      "d": 229.16666666666424,
      "v": 68
    },
    {
      "midi": 58,
      "hit": false,
      "t": 44029.16666666671,
      "d": 204.16666666667152,
      "v": 50
    },
    {
      "midi": 86,
      "hit": false,
      "t": 44029.16666666671,
      "d": 220.83333333333576,
      "v": 71
    },
    {
      "midi": 54,
      "hit": false,
      "t": 44291.66666666671,
      "d": 91.66666666665697,
      "v": 59
    },
    {
      "midi": 65,
      "hit": false,
      "t": 44295.83333333337,
      "d": 54.16666666666424,
      "v": 64
    },
    {
      "midi": 89,
      "hit": false,
      "t": 44295.83333333337,
      "d": 87.49999999999272,
      "v": 78
    },
    {
      "midi": 60,
      "hit": false,
      "t": 44300.00000000004,
      "d": 79.16666666666424,
      "v": 60
    },
    {
      "midi": 58,
      "hit": false,
      "t": 44300.00000000004,
      "d": 83.33333333332848,
      "v": 45
    },
    {
      "midi": 54,
      "hit": false,
      "t": 44437.50000000003,
      "d": 104.16666666666424,
      "v": 50
    },
    {
      "midi": 59,
      "hit": false,
      "t": 44683.33333333336,
      "d": 58.33333333332848,
      "v": 74
    },
    {
      "midi": 53,
      "hit": false,
      "t": 44683.33333333336,
      "d": 79.16666666665697,
      "v": 81
    },
    {
      "midi": 64,
      "hit": false,
      "t": 44687.50000000002,
      "d": 37.5,
      "v": 80
    },
    {
      "midi": 79,
      "hit": false,
      "t": 44687.50000000002,
      "d": 41.66666666666424,
      "v": 81
    },
    {
      "midi": 91,
      "hit": false,
      "t": 44687.50000000002,
      "d": 70.83333333332848,
      "v": 82
    },
    {
      "midi": 59,
      "hit": false,
      "t": 45095.83333333335,
      "d": 675,
      "v": 84
    },
    {
      "midi": 93,
      "hit": false,
      "t": 45095.83333333335,
      "d": 683.3333333333358,
      "v": 90
    },
    {
      "midi": 64,
      "hit": false,
      "t": 45100.000000000015,
      "d": 587.5,
      "v": 87
    },
    {
      "midi": 88,
      "hit": false,
      "t": 45100.000000000015,
      "d": 650,
      "v": 85
    },
    {
      "midi": 53,
      "hit": false,
      "t": 45100.000000000015,
      "d": 662.5,
      "v": 85
    },
    {
      "midi": 81,
      "hit": false,
      "t": 45100.000000000015,
      "d": 687.5000000000073,
      "v": 90
    },
    {
      "midi": 91,
      "hit": false,
      "t": 45116.66666666668,
      "d": 25,
      "v": 49
    },
    {
      "midi": 59,
      "hit": false,
      "t": 46000.00000000002,
      "d": 116.66666666665697,
      "v": 61
    },
    {
      "midi": 53,
      "hit": false,
      "t": 46004.166666666686,
      "d": 179.1666666666497,
      "v": 58
    },
    {
      "midi": 92,
      "hit": false,
      "t": 46008.33333333335,
      "d": 166.66666666665697,
      "v": 62
    },
    {
      "midi": 80,
      "hit": false,
      "t": 46008.33333333335,
      "d": 174.99999999998545,
      "v": 58
    },
    {
      "midi": 64,
      "hit": false,
      "t": 46012.500000000015,
      "d": 120.83333333332848,
      "v": 58
    },
    {
      "midi": 87,
      "hit": false,
      "t": 46012.500000000015,
      "d": 166.66666666665697,
      "v": 57
    },
    {
      "midi": 91,
      "hit": false,
      "t": 46433.333333333336,
      "d": 483.3333333333285,
      "v": 62
    },
    {
      "midi": 57,
      "hit": false,
      "t": 46433.333333333336,
      "d": 487.4999999999927,
      "v": 38
    },
    {
      "midi": 79,
      "hit": false,
      "t": 46437.5,
      "d": 433.3333333333285,
      "v": 55
    },
    {
      "midi": 62,
      "hit": false,
      "t": 46441.666666666664,
      "d": 483.3333333333285,
      "v": 39
    },
    {
      "midi": 58,
      "hit": false,
      "t": 46441.666666666664,
      "d": 487.4999999999927,
      "v": 33
    },
    {
      "midi": 86,
      "hit": false,
      "t": 46445.83333333333,
      "d": 450,
      "v": 51
    },
    {
      "midi": 52,
      "hit": false,
      "t": 46445.83333333333,
      "d": 475,
      "v": 53
    },
    {
      "midi": 98,
      "hit": false,
      "t": 47208.33333333332,
      "d": 204.16666666665697,
      "v": 78
    },
    {
      "midi": 62,
      "hit": false,
      "t": 47212.499999999985,
      "d": 199.99999999999272,
      "v": 70
    },
    {
      "midi": 57,
      "hit": false,
      "t": 47212.499999999985,
      "d": 204.16666666665697,
      "v": 62
    },
    {
      "midi": 91,
      "hit": false,
      "t": 47216.66666666665,
      "d": 204.16666666665697,
      "v": 58
    },
    {
      "midi": 86,
      "hit": false,
      "t": 47216.66666666665,
      "d": 212.49999999998545,
      "v": 59
    },
    {
      "midi": 58,
      "hit": false,
      "t": 47220.833333333314,
      "d": 191.66666666666424,
      "v": 37
    },
    {
      "midi": 52,
      "hit": false,
      "t": 47220.833333333314,
      "d": 204.16666666665697,
      "v": 55
    },
    {
      "midi": 96,
      "hit": false,
      "t": 47608.3333333333,
      "d": 108.33333333332848,
      "v": 73
    },
    {
      "midi": 91,
      "hit": false,
      "t": 47616.666666666635,
      "d": 112.49999999999272,
      "v": 62
    },
    {
      "midi": 58,
      "hit": false,
      "t": 47616.666666666635,
      "d": 129.16666666665697,
      "v": 50
    },
    {
      "midi": 57,
      "hit": false,
      "t": 47620.8333333333,
      "d": 83.33333333332848,
      "v": 51
    },
    {
      "midi": 84,
      "hit": false,
      "t": 47624.99999999996,
      "d": 124.99999999999272,
      "v": 51
    },
    {
      "midi": 62,
      "hit": false,
      "t": 47624.99999999996,
      "d": 154.16666666665697,
      "v": 66
    },
    {
      "midi": 52,
      "hit": false,
      "t": 47629.16666666663,
      "d": 83.33333333333576,
      "v": 35
    },
    {
      "midi": 58,
      "hit": false,
      "t": 48024.99999999995,
      "d": 191.6666666666497,
      "v": 55
    },
    {
      "midi": 67,
      "hit": false,
      "t": 48029.16666666661,
      "d": 179.16666666665697,
      "v": 64
    },
    {
      "midi": 87,
      "hit": false,
      "t": 48033.33333333328,
      "d": 124.99999999999272,
      "v": 59
    },
    {
      "midi": 94,
      "hit": false,
      "t": 48033.33333333328,
      "d": 179.16666666665697,
      "v": 67
    },
    {
      "midi": 63,
      "hit": false,
      "t": 48033.33333333328,
      "d": 183.3333333333212,
      "v": 51
    },
    {
      "midi": 82,
      "hit": false,
      "t": 48037.49999999994,
      "d": 162.49999999999272,
      "v": 46
    },
    {
      "midi": 62,
      "hit": false,
      "t": 48041.666666666606,
      "d": 166.66666666666424,
      "v": 54
    },
    {
      "midi": 91,
      "hit": false,
      "t": 48045.83333333327,
      "d": 108.33333333333576,
      "v": 44
    },
    {
      "midi": 96,
      "hit": false,
      "t": 48299.999999999935,
      "d": 54.16666666666424,
      "v": 63
    },
    {
      "midi": 62,
      "hit": false,
      "t": 48299.999999999935,
      "d": 91.66666666666424,
      "v": 47
    },
    {
      "midi": 84,
      "hit": false,
      "t": 48304.1666666666,
      "d": 37.5,
      "v": 64
    },
    {
      "midi": 58,
      "hit": false,
      "t": 48304.1666666666,
      "d": 83.33333333333576,
      "v": 42
    },
    {
      "midi": 63,
      "hit": false,
      "t": 48304.1666666666,
      "d": 87.5,
      "v": 37
    },
    {
      "midi": 67,
      "hit": false,
      "t": 48308.33333333326,
      "d": 37.5,
      "v": 43
    },
    {
      "midi": 58,
      "hit": false,
      "t": 48437.49999999993,
      "d": 183.33333333333576,
      "v": 25
    },
    {
      "midi": 67,
      "hit": false,
      "t": 48458.33333333326,
      "d": 75,
      "v": 40
    },
    {
      "midi": 82,
      "hit": false,
      "t": 48466.6666666666,
      "d": 83.33333333332848,
      "v": 28
    },
    {
      "midi": 62,
      "hit": false,
      "t": 48470.83333333326,
      "d": 75,
      "v": 27
    },
    {
      "midi": 63,
      "hit": false,
      "t": 48479.1666666666,
      "d": 141.66666666666424,
      "v": 21
    },
    {
      "midi": 96,
      "hit": false,
      "t": 48691.6666666666,
      "d": 129.16666666665697,
      "v": 83
    },
    {
      "midi": 91,
      "hit": false,
      "t": 48695.83333333326,
      "d": 141.66666666665697,
      "v": 71
    },
    {
      "midi": 63,
      "hit": false,
      "t": 48695.83333333326,
      "d": 704.166666666657,
      "v": 62
    },
    {
      "midi": 84,
      "hit": false,
      "t": 48699.99999999993,
      "d": 170.83333333332848,
      "v": 72
    },
    {
      "midi": 67,
      "hit": false,
      "t": 48704.16666666659,
      "d": 570.8333333333285,
      "v": 74
    },
    {
      "midi": 57,
      "hit": false,
      "t": 48704.16666666659,
      "d": 737.4999999999927,
      "v": 75
    },
    {
      "midi": 77,
      "hit": false,
      "t": 49037.49999999992,
      "d": 50,
      "v": 64
    },
    {
      "midi": 79,
      "hit": false,
      "t": 49141.666666666584,
      "d": 58.33333333333576,
      "v": 66
    },
    {
      "midi": 82,
      "hit": false,
      "t": 49266.666666666584,
      "d": 162.5,
      "v": 82
    },
    {
      "midi": 82,
      "hit": false,
      "t": 49495.83333333325,
      "d": 279.1666666666715,
      "v": 85
    },
    {
      "midi": 65,
      "hit": false,
      "t": 49504.166666666584,
      "d": 1358.333333333343,
      "v": 64
    },
    {
      "midi": 62,
      "hit": false,
      "t": 49516.666666666584,
      "d": 1291.6666666666715,
      "v": 55
    },
    {
      "midi": 60,
      "hit": false,
      "t": 49524.99999999992,
      "d": 1291.6666666666715,
      "v": 45
    },
    {
      "midi": 77,
      "hit": false,
      "t": 49791.666666666584,
      "d": 37.5,
      "v": 55
    },
    {
      "midi": 79,
      "hit": false,
      "t": 49904.166666666584,
      "d": 58.33333333333576,
      "v": 59
    },
    {
      "midi": 82,
      "hit": false,
      "t": 50024.99999999992,
      "d": 104.16666666666424,
      "v": 82
    },
    {
      "midi": 82,
      "hit": false,
      "t": 50266.666666666584,
      "d": 279.16666666666424,
      "v": 90
    },
    {
      "midi": 77,
      "hit": false,
      "t": 50554.166666666584,
      "d": 33.33333333333576,
      "v": 45
    },
    {
      "midi": 79,
      "hit": false,
      "t": 50666.666666666584,
      "d": 58.33333333333576,
      "v": 65
    },
    {
      "midi": 82,
      "hit": false,
      "t": 50808.333333333256,
      "d": 125.00000000000728,
      "v": 80
    },
    {
      "midi": 82,
      "hit": false,
      "t": 51062.49999999993,
      "d": 341.6666666666715,
      "v": 90
    },
    {
      "midi": 66,
      "hit": false,
      "t": 51070.83333333326,
      "d": 50,
      "v": 65
    },
    {
      "midi": 61,
      "hit": false,
      "t": 51074.99999999993,
      "d": 62.5,
      "v": 43
    },
    {
      "midi": 63,
      "hit": false,
      "t": 51074.99999999993,
      "d": 70.83333333333576,
      "v": 52
    },
    {
      "midi": 77,
      "hit": false,
      "t": 51329.1666666666,
      "d": 50,
      "v": 52
    },
    {
      "midi": 79,
      "hit": false,
      "t": 51454.1666666666,
      "d": 66.66666666666424,
      "v": 64
    },
    {
      "midi": 82,
      "hit": false,
      "t": 51579.1666666666,
      "d": 125,
      "v": 77
    },
    {
      "midi": 63,
      "hit": false,
      "t": 51833.33333333326,
      "d": 795.8333333333212,
      "v": 54
    },
    {
      "midi": 82,
      "hit": false,
      "t": 51837.49999999993,
      "d": 291.6666666666715,
      "v": 84
    },
    {
      "midi": 68,
      "hit": false,
      "t": 51837.49999999993,
      "d": 520.8333333333358,
      "v": 71
    },
    {
      "midi": 57,
      "hit": false,
      "t": 51845.83333333326,
      "d": 633.3333333333285,
      "v": 54
    },
    {
      "midi": 61,
      "hit": false,
      "t": 51845.83333333326,
      "d": 783.3333333333212,
      "v": 46
    },
    {
      "midi": 77,
      "hit": false,
      "t": 52129.1666666666,
      "d": 37.5,
      "v": 49
    },
    {
      "midi": 79,
      "hit": false,
      "t": 52241.6666666666,
      "d": 58.33333333332848,
      "v": 68
    },
    {
      "midi": 82,
      "hit": false,
      "t": 52374.99999999993,
      "d": 124.99999999999272,
      "v": 69
    },
    {
      "midi": 84,
      "hit": false,
      "t": 52645.83333333325,
      "d": 87.5,
      "v": 96
    },
    {
      "midi": 65,
      "hit": false,
      "t": 52662.49999999991,
      "d": 533.3333333333358,
      "v": 53
    },
    {
      "midi": 62,
      "hit": false,
      "t": 52666.66666666658,
      "d": 566.6666666666642,
      "v": 45
    },
    {
      "midi": 60,
      "hit": false,
      "t": 52674.99999999991,
      "d": 554.1666666666642,
      "v": 44
    },
    {
      "midi": 55,
      "hit": false,
      "t": 52695.83333333325,
      "d": 704.166666666657,
      "v": 44
    },
    {
      "midi": 82,
      "hit": false,
      "t": 52812.49999999991,
      "d": 187.5,
      "v": 62
    },
    {
      "midi": 70,
      "hit": false,
      "t": 53187.49999999991,
      "d": 183.33333333332848,
      "v": 69
    },
    {
      "midi": 82,
      "hit": false,
      "t": 53187.49999999991,
      "d": 216.66666666665697,
      "v": 56
    },
    {
      "midi": 79,
      "hit": false,
      "t": 53199.99999999991,
      "d": 187.49999999999272,
      "v": 57
    },
    {
      "midi": 36,
      "hit": false,
      "t": 53466.66666666657,
      "d": 20.83333333333576,
      "v": 58
    },
    {
      "midi": 82,
      "hit": false,
      "t": 53587.499999999905,
      "d": 162.5,
      "v": 59
    },
    {
      "midi": 73,
      "hit": false,
      "t": 53591.66666666657,
      "d": 166.66666666667152,
      "v": 71
    },
    {
      "midi": 79,
      "hit": false,
      "t": 53599.999999999905,
      "d": 166.66666666667152,
      "v": 54
    },
    {
      "midi": 35,
      "hit": false,
      "t": 55858.33333333324,
      "d": 29.16666666666424,
      "v": 55
    },
    {
      "midi": 82,
      "hit": false,
      "t": 56545.83333333324,
      "d": 37.5,
      "v": 54
    },
    {
      "midi": 86,
      "hit": false,
      "t": 56649.999999999905,
      "d": 83.33333333334303,
      "v": 87
    },
    {
      "midi": 65,
      "hit": false,
      "t": 56674.999999999905,
      "d": 91.6666666666788,
      "v": 53
    },
    {
      "midi": 54,
      "hit": false,
      "t": 56683.33333333324,
      "d": 920.8333333333503,
      "v": 33
    },
    {
      "midi": 60,
      "hit": false,
      "t": 56691.66666666658,
      "d": 195.83333333333576,
      "v": 48
    },
    {
      "midi": 58,
      "hit": false,
      "t": 56699.99999999991,
      "d": 254.16666666666424,
      "v": 30
    },
    {
      "midi": 82,
      "hit": false,
      "t": 56741.666666666584,
      "d": 108.33333333332848,
      "v": 62
    },
    {
      "midi": 77,
      "hit": false,
      "t": 56845.83333333325,
      "d": 70.83333333332848,
      "v": 40
    },
    {
      "midi": 82,
      "hit": false,
      "t": 57037.49999999991,
      "d": 87.50000000000728,
      "v": 80
    },
    {
      "midi": 65,
      "hit": false,
      "t": 57045.83333333325,
      "d": 41.66666666667152,
      "v": 37
    },
    {
      "midi": 60,
      "hit": false,
      "t": 57054.166666666584,
      "d": 66.66666666667152,
      "v": 44
    },
    {
      "midi": 82,
      "hit": false,
      "t": 57245.833333333256,
      "d": 116.66666666666424,
      "v": 71
    },
    {
      "midi": 60,
      "hit": false,
      "t": 57249.99999999992,
      "d": 158.33333333333576,
      "v": 48
    },
    {
      "midi": 65,
      "hit": false,
      "t": 57258.333333333256,
      "d": 50,
      "v": 36
    },
    {
      "midi": 58,
      "hit": false,
      "t": 57266.66666666659,
      "d": 350,
      "v": 33
    },
    {
      "midi": 77,
      "hit": false,
      "t": 57349.99999999992,
      "d": 58.33333333333576,
      "v": 60
    },
    {
      "midi": 74,
      "hit": false,
      "t": 57454.16666666659,
      "d": 62.5,
      "v": 36
    },
    {
      "midi": 59,
      "hit": false,
      "t": 57637.49999999993,
      "d": 104.16666666666424,
      "v": 41
    },
    {
      "midi": 53,
      "hit": false,
      "t": 57645.83333333326,
      "d": 495.83333333333576,
      "v": 34
    },
    {
      "midi": 79,
      "hit": false,
      "t": 57662.49999999993,
      "d": 62.5,
      "v": 72
    },
    {
      "midi": 64,
      "hit": false,
      "t": 57666.66666666659,
      "d": 45.83333333333576,
      "v": 22
    },
    {
      "midi": 79,
      "hit": false,
      "t": 57849.99999999993,
      "d": 70.83333333333576,
      "v": 85
    },
    {
      "midi": 59,
      "hit": false,
      "t": 57883.33333333326,
      "d": 287.5,
      "v": 47
    },
    {
      "midi": 64,
      "hit": false,
      "t": 57891.6666666666,
      "d": 45.83333333332848,
      "v": 35
    },
    {
      "midi": 75,
      "hit": false,
      "t": 57949.99999999993,
      "d": 120.83333333333576,
      "v": 67
    },
    {
      "midi": 70,
      "hit": false,
      "t": 58033.33333333326,
      "d": 120.83333333333576,
      "v": 57
    },
    {
      "midi": 67,
      "hit": false,
      "t": 58141.6666666666,
      "d": 58.33333333332848,
      "v": 31
    },
    {
      "midi": 73,
      "hit": false,
      "t": 58291.66666666659,
      "d": 70.83333333333576,
      "v": 72
    },
    {
      "midi": 59,
      "hit": false,
      "t": 58674.99999999993,
      "d": 83.33333333332848,
      "v": 60
    },
    {
      "midi": 64,
      "hit": false,
      "t": 58679.16666666659,
      "d": 29.16666666666424,
      "v": 30
    },
    {
      "midi": 69,
      "hit": false,
      "t": 58954.16666666659,
      "d": 33.33333333333576,
      "v": 42
    },
    {
      "midi": 73,
      "hit": false,
      "t": 59058.33333333326,
      "d": 83.33333333333576,
      "v": 79
    },
    {
      "midi": 58,
      "hit": false,
      "t": 59091.6666666666,
      "d": 50,
      "v": 31
    },
    {
      "midi": 62,
      "hit": false,
      "t": 59095.83333333326,
      "d": 29.166666666671517,
      "v": 32
    },
    {
      "midi": 57,
      "hit": false,
      "t": 59104.1666666666,
      "d": 33.33333333333576,
      "v": 22
    },
    {
      "midi": 62,
      "hit": false,
      "t": 59199.999999999935,
      "d": 304.16666666666424,
      "v": 39
    },
    {
      "midi": 57,
      "hit": false,
      "t": 59204.1666666666,
      "d": 416.6666666666715,
      "v": 24
    },
    {
      "midi": 58,
      "hit": false,
      "t": 59212.499999999935,
      "d": 137.5,
      "v": 42
    },
    {
      "midi": 69,
      "hit": false,
      "t": 59216.6666666666,
      "d": 270.83333333333576,
      "v": 48
    },
    {
      "midi": 58,
      "hit": false,
      "t": 59483.33333333327,
      "d": 41.66666666666424,
      "v": 36
    },
    {
      "midi": 68,
      "hit": false,
      "t": 59512.499999999935,
      "d": 95.83333333333576,
      "v": 79
    },
    {
      "midi": 67,
      "hit": false,
      "t": 59674.999999999935,
      "d": 195.83333333333576,
      "v": 30
    },
    {
      "midi": 60,
      "hit": false,
      "t": 59904.166666666606,
      "d": 104.16666666666424,
      "v": 61
    },
    {
      "midi": 57,
      "hit": false,
      "t": 59916.666666666606,
      "d": 29.16666666666424,
      "v": 32
    },
    {
      "midi": 62,
      "hit": false,
      "t": 60404.166666666606,
      "d": 41.66666666666424,
      "v": 46
    },
    {
      "midi": 58,
      "hit": false,
      "t": 60412.49999999994,
      "d": 62.499999999992724,
      "v": 38
    },
    {
      "midi": 57,
      "hit": false,
      "t": 60429.166666666606,
      "d": 29.16666666666424,
      "v": 29
    },
    {
      "midi": 58,
      "hit": false,
      "t": 60799.999999999935,
      "d": 162.5,
      "v": 72
    },
    {
      "midi": 70,
      "hit": false,
      "t": 60804.1666666666,
      "d": 179.16666666666424,
      "v": 57
    },
    {
      "midi": 67,
      "hit": false,
      "t": 60812.499999999935,
      "d": 154.16666666666424,
      "v": 62
    },
    {
      "midi": 63,
      "hit": false,
      "t": 60816.6666666666,
      "d": 154.16666666666424,
      "v": 57
    },
    {
      "midi": 57,
      "hit": false,
      "t": 61129.1666666666,
      "d": 41.66666666666424,
      "v": 33
    },
    {
      "midi": 61,
      "hit": false,
      "t": 61216.6666666666,
      "d": 204.16666666666424,
      "v": 88
    },
    {
      "midi": 70,
      "hit": false,
      "t": 61220.83333333326,
      "d": 175,
      "v": 77
    },
    {
      "midi": 67,
      "hit": false,
      "t": 61224.99999999993,
      "d": 191.66666666667152,
      "v": 75
    },
    {
      "midi": 58,
      "hit": false,
      "t": 61524.99999999993,
      "d": 54.16666666666424,
      "v": 28
    },
    {
      "midi": 70,
      "hit": false,
      "t": 61620.833333333256,
      "d": 208.33333333332848,
      "v": 81
    },
    {
      "midi": 63,
      "hit": false,
      "t": 61624.99999999992,
      "d": 216.66666666666424,
      "v": 83
    },
    {
      "midi": 67,
      "hit": false,
      "t": 61629.166666666584,
      "d": 245.83333333333576,
      "v": 77
    },
    {
      "midi": 58,
      "hit": false,
      "t": 61916.666666666584,
      "d": 33.33333333333576,
      "v": 34
    },
    {
      "midi": 61,
      "hit": false,
      "t": 61924.99999999992,
      "d": 29.16666666666424,
      "v": 44
    },
    {
      "midi": 66,
      "hit": false,
      "t": 62016.666666666584,
      "d": 199.99999999999272,
      "v": 51
    },
    {
      "midi": 63,
      "hit": false,
      "t": 62016.666666666584,
      "d": 224.99999999999272,
      "v": 75
    },
    {
      "midi": 70,
      "hit": false,
      "t": 62020.83333333325,
      "d": 241.66666666666424,
      "v": 73
    },
    {
      "midi": 67,
      "hit": false,
      "t": 62033.33333333325,
      "d": 220.83333333332848,
      "v": 70
    },
    {
      "midi": 61,
      "hit": false,
      "t": 62291.66666666658,
      "d": 50,
      "v": 52
    },
    {
      "midi": 53,
      "hit": false,
      "t": 62308.33333333324,
      "d": 25,
      "v": 72
    },
    {
      "midi": 63,
      "hit": false,
      "t": 62512.49999999991,
      "d": 187.49999999999272,
      "v": 73
    },
    {
      "midi": 70,
      "hit": false,
      "t": 62516.66666666658,
      "d": 166.66666666666424,
      "v": 68
    },
    {
      "midi": 67,
      "hit": false,
      "t": 62520.83333333324,
      "d": 187.49999999999272,
      "v": 68
    },
    {
      "midi": 48,
      "hit": false,
      "t": 62704.16666666657,
      "d": 25,
      "v": 53
    },
    {
      "midi": 61,
      "hit": false,
      "t": 62799.999999999905,
      "d": 170.83333333333576,
      "v": 64
    },
    {
      "midi": 63,
      "hit": false,
      "t": 63049.999999999905,
      "d": 966.6666666666497,
      "v": 75
    },
    {
      "midi": 70,
      "hit": false,
      "t": 63054.16666666657,
      "d": 970.8333333333212,
      "v": 74
    },
    {
      "midi": 67,
      "hit": false,
      "t": 63058.333333333234,
      "d": 941.666666666657,
      "v": 73
    },
    {
      "midi": 53,
      "hit": false,
      "t": 63474.9999999999,
      "d": 400,
      "v": 91
    },
    {
      "midi": 48,
      "hit": false,
      "t": 63887.4999999999,
      "d": 41.66666666666424,
      "v": 50
    },
    {
      "midi": 51,
      "hit": false,
      "t": 64008.33333333323,
      "d": 904.1666666666642,
      "v": 60
    },
    {
      "midi": 41,
      "hit": false,
      "t": 64012.49999999989,
      "d": 1083.3333333333285,
      "v": 61
    },
    {
      "midi": 53,
      "hit": false,
      "t": 64249.99999999989,
      "d": 70.83333333333576,
      "v": 51
    },
    {
      "midi": 54,
      "hit": false,
      "t": 64395.83333333323,
      "d": 29.16666666666424,
      "v": 33
    },
    {
      "midi": 57,
      "hit": false,
      "t": 64495.83333333323,
      "d": 79.16666666666424,
      "v": 54
    },
    {
      "midi": 61,
      "hit": false,
      "t": 64637.49999999989,
      "d": 233.33333333333576,
      "v": 62
    },
    {
      "midi": 60,
      "hit": false,
      "t": 64666.666666666555,
      "d": 83.33333333333576,
      "v": 47
    },
    {
      "midi": 63,
      "hit": false,
      "t": 64920.83333333323,
      "d": 87.5,
      "v": 62
    },
    {
      "midi": 65,
      "hit": false,
      "t": 65049.99999999989,
      "d": 95.83333333332848,
      "v": 72
    },
    {
      "midi": 51,
      "hit": false,
      "t": 65079.166666666555,
      "d": 83.33333333332848,
      "v": 47
    },
    {
      "midi": 66,
      "hit": false,
      "t": 65199.99999999988,
      "d": 70.83333333333576,
      "v": 51
    },
    {
      "midi": 69,
      "hit": false,
      "t": 65358.33333333322,
      "d": 45.83333333333576,
      "v": 60
    },
    {
      "midi": 70,
      "hit": false,
      "t": 65483.33333333322,
      "d": 112.49999999999272,
      "v": 83
    },
    {
      "midi": 65,
      "hit": false,
      "t": 65487.49999999988,
      "d": 166.66666666667152,
      "v": 58
    },
    {
      "midi": 62,
      "hit": false,
      "t": 65499.99999999988,
      "d": 241.66666666667152,
      "v": 49
    },
    {
      "midi": 60,
      "hit": false,
      "t": 65516.66666666655,
      "d": 462.5000000000073,
      "v": 34
    },
    {
      "midi": 68,
      "hit": false,
      "t": 65624.99999999988,
      "d": 87.5,
      "v": 54
    },
    {
      "midi": 69,
      "hit": false,
      "t": 65754.16666666656,
      "d": 70.83333333332848,
      "v": 66
    },
    {
      "midi": 62,
      "hit": false,
      "t": 65854.16666666656,
      "d": 91.66666666667152,
      "v": 26
    },
    {
      "midi": 65,
      "hit": false,
      "t": 66279.16666666656,
      "d": 29.166666666671517,
      "v": 60
    },
    {
      "midi": 62,
      "hit": false,
      "t": 66279.16666666656,
      "d": 66.66666666667152,
      "v": 60
    },
    {
      "midi": 60,
      "hit": false,
      "t": 66295.83333333323,
      "d": 33.33333333332848,
      "v": 44
    },
    {
      "midi": 69,
      "hit": false,
      "t": 66404.16666666656,
      "d": 54.16666666667152,
      "v": 58
    },
    {
      "midi": 70,
      "hit": false,
      "t": 66487.4999999999,
      "d": 25,
      "v": 52
    },
    {
      "midi": 74,
      "hit": false,
      "t": 66579.16666666657,
      "d": 70.83333333332848,
      "v": 74
    },
    {
      "midi": 77,
      "hit": false,
      "t": 66674.9999999999,
      "d": 112.5,
      "v": 68
    },
    {
      "midi": 65,
      "hit": false,
      "t": 66762.4999999999,
      "d": 45.833333333343035,
      "v": 35
    },
    {
      "midi": 62,
      "hit": false,
      "t": 66770.83333333323,
      "d": 91.66666666668607,
      "v": 38
    },
    {
      "midi": 81,
      "hit": false,
      "t": 66783.33333333323,
      "d": 87.50000000001455,
      "v": 68
    },
    {
      "midi": 60,
      "hit": false,
      "t": 66804.16666666657,
      "d": 133.33333333332848,
      "v": 29
    },
    {
      "midi": 82,
      "hit": false,
      "t": 66916.66666666657,
      "d": 58.33333333332848,
      "v": 48
    },
    {
      "midi": 84,
      "hit": false,
      "t": 67012.4999999999,
      "d": 83.33333333332848,
      "v": 75
    },
    {
      "midi": 65,
      "hit": false,
      "t": 67212.4999999999,
      "d": 504.1666666666715,
      "v": 53
    },
    {
      "midi": 60,
      "hit": false,
      "t": 67216.66666666657,
      "d": 533.3333333333285,
      "v": 40
    },
    {
      "midi": 61,
      "hit": false,
      "t": 67220.83333333324,
      "d": 541.666666666657,
      "v": 36
    },
    {
      "midi": 55,
      "hit": false,
      "t": 67241.66666666657,
      "d": 554.166666666657,
      "v": 36
    },
    {
      "midi": 81,
      "hit": false,
      "t": 68037.4999999999,
      "d": 58.33333333332848,
      "v": 76
    },
    {
      "midi": 82,
      "hit": false,
      "t": 68145.83333333323,
      "d": 62.5,
      "v": 69
    },
    {
      "midi": 84,
      "hit": false,
      "t": 68237.4999999999,
      "d": 79.16666666665697,
      "v": 78
    },
    {
      "midi": 65,
      "hit": false,
      "t": 68283.33333333323,
      "d": 50,
      "v": 42
    },
    {
      "midi": 60,
      "hit": false,
      "t": 68283.33333333323,
      "d": 295.8333333333285,
      "v": 40
    },
    {
      "midi": 61,
      "hit": false,
      "t": 68283.33333333323,
      "d": 374.99999999998545,
      "v": 33
    },
    {
      "midi": 55,
      "hit": false,
      "t": 68408.33333333323,
      "d": 249.99999999998545,
      "v": 2
    },
    {
      "midi": 78,
      "hit": false,
      "t": 68587.49999999988,
      "d": 70.83333333332848,
      "v": 62
    },
    {
      "midi": 79,
      "hit": false,
      "t": 68695.83333333321,
      "d": 87.5,
      "v": 66
    },
    {
      "midi": 65,
      "hit": false,
      "t": 68837.49999999988,
      "d": 54.16666666667152,
      "v": 52
    },
    {
      "midi": 54,
      "hit": false,
      "t": 68849.99999999988,
      "d": 66.66666666668607,
      "v": 29
    },
    {
      "midi": 60,
      "hit": false,
      "t": 68862.49999999988,
      "d": 33.333333333343035,
      "v": 39
    },
    {
      "midi": 58,
      "hit": false,
      "t": 68866.66666666656,
      "d": 45.833333333343035,
      "v": 25
    },
    {
      "midi": 65,
      "hit": false,
      "t": 69491.66666666657,
      "d": 25,
      "v": 57
    },
    {
      "midi": 54,
      "hit": false,
      "t": 69495.83333333324,
      "d": 29.166666666656965,
      "v": 48
    },
    {
      "midi": 60,
      "hit": false,
      "t": 69495.83333333324,
      "d": 133.33333333331393,
      "v": 52
    },
    {
      "midi": 58,
      "hit": false,
      "t": 69504.16666666657,
      "d": 116.66666666665697,
      "v": 29
    },
    {
      "midi": 82,
      "hit": false,
      "t": 69629.16666666656,
      "d": 62.5,
      "v": 64
    },
    {
      "midi": 86,
      "hit": false,
      "t": 69741.66666666656,
      "d": 75,
      "v": 82
    },
    {
      "midi": 65,
      "hit": false,
      "t": 69874.99999999988,
      "d": 25.000000000014552,
      "v": 57
    },
    {
      "midi": 54,
      "hit": false,
      "t": 69879.16666666656,
      "d": 70.83333333334303,
      "v": 42
    },
    {
      "midi": 60,
      "hit": false,
      "t": 69883.33333333323,
      "d": 100,
      "v": 47
    },
    {
      "midi": 58,
      "hit": false,
      "t": 69887.4999999999,
      "d": 150,
      "v": 32
    },
    {
      "midi": 77,
      "hit": false,
      "t": 70012.4999999999,
      "d": 58.33333333332848,
      "v": 78
    },
    {
      "midi": 82,
      "hit": false,
      "t": 70137.4999999999,
      "d": 66.66666666667152,
      "v": 60
    },
    {
      "midi": 54,
      "hit": false,
      "t": 70245.83333333324,
      "d": 70.83333333331393,
      "v": 58
    },
    {
      "midi": 65,
      "hit": false,
      "t": 70254.16666666657,
      "d": 29.166666666656965,
      "v": 47
    },
    {
      "midi": 58,
      "hit": false,
      "t": 70254.16666666657,
      "d": 120.83333333331393,
      "v": 40
    },
    {
      "midi": 60,
      "hit": false,
      "t": 70262.4999999999,
      "d": 29.166666666656965,
      "v": 47
    },
    {
      "midi": 78,
      "hit": false,
      "t": 70399.99999999988,
      "d": 66.66666666667152,
      "v": 65
    },
    {
      "midi": 79,
      "hit": false,
      "t": 70516.66666666656,
      "d": 75,
      "v": 62
    },
    {
      "midi": 64,
      "hit": false,
      "t": 70633.33333333323,
      "d": 25.000000000014552,
      "v": 64
    },
    {
      "midi": 53,
      "hit": false,
      "t": 70637.4999999999,
      "d": 75.00000000001455,
      "v": 60
    },
    {
      "midi": 59,
      "hit": false,
      "t": 70641.66666666657,
      "d": 104.16666666667152,
      "v": 53
    },
    {
      "midi": 69,
      "hit": false,
      "t": 70783.33333333324,
      "d": 37.5,
      "v": 49
    },
    {
      "midi": 68,
      "hit": false,
      "t": 70916.66666666657,
      "d": 229.16666666667152,
      "v": 78
    },
    {
      "midi": 71,
      "hit": false,
      "t": 71179.16666666657,
      "d": 237.5,
      "v": 68
    },
    {
      "midi": 73,
      "hit": false,
      "t": 71458.33333333324,
      "d": 295.8333333333285,
      "v": 77
    },
    {
      "midi": 53,
      "hit": false,
      "t": 71470.83333333324,
      "d": 225,
      "v": 55
    },
    {
      "midi": 64,
      "hit": false,
      "t": 71474.99999999991,
      "d": 204.16666666665697,
      "v": 60
    },
    {
      "midi": 59,
      "hit": false,
      "t": 71483.33333333324,
      "d": 225,
      "v": 48
    },
    {
      "midi": 75,
      "hit": false,
      "t": 71758.33333333324,
      "d": 83.33333333332848,
      "v": 39
    },
    {
      "midi": 53,
      "hit": false,
      "t": 71866.66666666657,
      "d": 91.66666666665697,
      "v": 44
    },
    {
      "midi": 76,
      "hit": false,
      "t": 71887.4999999999,
      "d": 83.33333333332848,
      "v": 60
    },
    {
      "midi": 62,
      "hit": false,
      "t": 72041.66666666656,
      "d": 312.50000000001455,
      "v": 41
    },
    {
      "midi": 57,
      "hit": false,
      "t": 72045.83333333323,
      "d": 279.1666666666715,
      "v": 47
    },
    {
      "midi": 58,
      "hit": false,
      "t": 72058.33333333323,
      "d": 241.66666666667152,
      "v": 32
    },
    {
      "midi": 75,
      "hit": false,
      "t": 72095.83333333323,
      "d": 137.5,
      "v": 51
    },
    {
      "midi": 76,
      "hit": false,
      "t": 72299.9999999999,
      "d": 91.66666666667152,
      "v": 66
    },
    {
      "midi": 72,
      "hit": false,
      "t": 72474.9999999999,
      "d": 179.16666666667152,
      "v": 30
    },
    {
      "midi": 67,
      "hit": false,
      "t": 72704.16666666657,
      "d": 50,
      "v": 36
    },
    {
      "midi": 58,
      "hit": false,
      "t": 72708.33333333324,
      "d": 83.33333333332848,
      "v": 27
    },
    {
      "midi": 57,
      "hit": false,
      "t": 72716.66666666657,
      "d": 37.5,
      "v": 20
    },
    {
      "midi": 70,
      "hit": false,
      "t": 72824.9999999999,
      "d": 250,
      "v": 67
    },
    {
      "midi": 57,
      "hit": false,
      "t": 73083.33333333323,
      "d": 166.66666666667152,
      "v": 47
    },
    {
      "midi": 67,
      "hit": false,
      "t": 73195.83333333323,
      "d": 233.33333333334303,
      "v": 63
    },
    {
      "midi": 62,
      "hit": false,
      "t": 73233.33333333323,
      "d": 29.166666666671517,
      "v": 31
    },
    {
      "midi": 70,
      "hit": false,
      "t": 73474.9999999999,
      "d": 75,
      "v": 71
    },
    {
      "midi": 60,
      "hit": false,
      "t": 73624.9999999999,
      "d": 229.16666666667152,
      "v": 57
    },
    {
      "midi": 58,
      "hit": false,
      "t": 73624.9999999999,
      "d": 254.16666666667152,
      "v": 59
    },
    {
      "midi": 67,
      "hit": false,
      "t": 73637.4999999999,
      "d": 241.66666666667152,
      "v": 44
    },
    {
      "midi": 63,
      "hit": false,
      "t": 73641.66666666657,
      "d": 225,
      "v": 39
    },
    {
      "midi": 55,
      "hit": false,
      "t": 73954.16666666657,
      "d": 91.66666666668607,
      "v": 33
    },
    {
      "midi": 70,
      "hit": false,
      "t": 74033.33333333324,
      "d": 175.00000000001455,
      "v": 61
    },
    {
      "midi": 63,
      "hit": false,
      "t": 74037.49999999991,
      "d": 208.33333333334303,
      "v": 48
    },
    {
      "midi": 67,
      "hit": false,
      "t": 74041.66666666658,
      "d": 145.83333333334303,
      "v": 51
    },
    {
      "midi": 60,
      "hit": false,
      "t": 74041.66666666658,
      "d": 183.33333333334303,
      "v": 55
    },
    {
      "midi": 58,
      "hit": false,
      "t": 74041.66666666658,
      "d": 191.66666666667152,
      "v": 46
    },
    {
      "midi": 63,
      "hit": false,
      "t": 74304.16666666658,
      "d": 404.16666666668607,
      "v": 48
    },
    {
      "midi": 69,
      "hit": false,
      "t": 74308.33333333326,
      "d": 216.66666666667152,
      "v": 64
    },
    {
      "midi": 60,
      "hit": false,
      "t": 74308.33333333326,
      "d": 412.50000000001455,
      "v": 52
    },
    {
      "midi": 66,
      "hit": false,
      "t": 74312.49999999993,
      "d": 391.6666666666715,
      "v": 50
    },
    {
      "midi": 57,
      "hit": false,
      "t": 74312.49999999993,
      "d": 466.6666666666715,
      "v": 62
    },
    {
      "midi": 72,
      "hit": false,
      "t": 74833.33333333327,
      "d": 233.33333333332848,
      "v": 76
    },
    {
      "midi": 65,
      "hit": false,
      "t": 75095.83333333327,
      "d": 33.33333333332848,
      "v": 54
    },
    {
      "midi": 62,
      "hit": false,
      "t": 75108.33333333327,
      "d": 37.5,
      "v": 45
    },
    {
      "midi": 69,
      "hit": false,
      "t": 75112.49999999994,
      "d": 45.83333333332848,
      "v": 51
    },
    {
      "midi": 60,
      "hit": false,
      "t": 75120.83333333327,
      "d": 50,
      "v": 31
    },
    {
      "midi": 70,
      "hit": false,
      "t": 75229.1666666666,
      "d": 316.6666666666715,
      "v": 74
    },
    {
      "midi": 62,
      "hit": false,
      "t": 75483.33333333327,
      "d": 891.6666666666715,
      "v": 67
    },
    {
      "midi": 70,
      "hit": false,
      "t": 76408.33333333327,
      "d": 245.83333333332848,
      "v": 77
    },
    {
      "midi": 70,
      "hit": false,
      "t": 76812.49999999993,
      "d": 316.6666666666715,
      "v": 78
    },
    {
      "midi": 62,
      "hit": false,
      "t": 77062.49999999993,
      "d": 308.33333333334303,
      "v": 62
    },
    {
      "midi": 65,
      "hit": false,
      "t": 77599.99999999993,
      "d": 37.49999999998545,
      "v": 49
    },
    {
      "midi": 62,
      "hit": false,
      "t": 77599.99999999993,
      "d": 87.49999999998545,
      "v": 49
    },
    {
      "midi": 60,
      "hit": false,
      "t": 77612.49999999993,
      "d": 37.49999999998545,
      "v": 38
    },
    {
      "midi": 74,
      "hit": false,
      "t": 77620.83333333326,
      "d": 137.49999999998545,
      "v": 99
    },
    {
      "midi": 55,
      "hit": false,
      "t": 77629.16666666658,
      "d": 37.5,
      "v": 32
    },
    {
      "midi": 75,
      "hit": false,
      "t": 77791.66666666657,
      "d": 79.16666666667152,
      "v": 38
    },
    {
      "midi": 74,
      "hit": false,
      "t": 77883.33333333324,
      "d": 41.66666666667152,
      "v": 36
    },
    {
      "midi": 72,
      "hit": false,
      "t": 77933.33333333324,
      "d": 29.166666666671517,
      "v": 54
    },
    {
      "midi": 62,
      "hit": false,
      "t": 77979.16666666658,
      "d": 41.666666666656965,
      "v": 32
    },
    {
      "midi": 60,
      "hit": false,
      "t": 77987.49999999991,
      "d": 58.33333333332848,
      "v": 29
    },
    {
      "midi": 74,
      "hit": false,
      "t": 78024.99999999991,
      "d": 158.33333333332848,
      "v": 95
    },
    {
      "midi": 75,
      "hit": false,
      "t": 78191.66666666657,
      "d": 112.5,
      "v": 48
    },
    {
      "midi": 74,
      "hit": false,
      "t": 78283.33333333324,
      "d": 41.666666666656965,
      "v": 26
    },
    {
      "midi": 72,
      "hit": false,
      "t": 78329.16666666657,
      "d": 33.333333333343035,
      "v": 55
    },
    {
      "midi": 60,
      "hit": false,
      "t": 78333.33333333324,
      "d": 125.00000000001455,
      "v": 19
    },
    {
      "midi": 74,
      "hit": false,
      "t": 78429.16666666658,
      "d": 158.33333333334303,
      "v": 88
    },
    {
      "midi": 75,
      "hit": false,
      "t": 78608.33333333326,
      "d": 83.33333333334303,
      "v": 45
    },
    {
      "midi": 74,
      "hit": false,
      "t": 78674.99999999993,
      "d": 62.5,
      "v": 43
    },
    {
      "midi": 72,
      "hit": false,
      "t": 78749.99999999993,
      "d": 25,
      "v": 44
    },
    {
      "midi": 74,
      "hit": false,
      "t": 78824.99999999993,
      "d": 1175.0000000000146,
      "v": 80
    },
    {
      "midi": 63,
      "hit": false,
      "t": 79062.49999999993,
      "d": 25,
      "v": 42
    },
    {
      "midi": 60,
      "hit": false,
      "t": 79474.99999999993,
      "d": 312.5,
      "v": 54
    },
    {
      "midi": 65,
      "hit": false,
      "t": 79474.99999999993,
      "d": 337.5,
      "v": 70
    },
    {
      "midi": 54,
      "hit": false,
      "t": 79479.1666666666,
      "d": 441.66666666665697,
      "v": 55
    },
    {
      "midi": 58,
      "hit": false,
      "t": 79487.49999999993,
      "d": 420.8333333333285,
      "v": 46
    },
    {
      "midi": 58,
      "hit": false,
      "t": 79987.49999999993,
      "d": 683.3333333333721,
      "v": 33
    },
    {
      "midi": 57,
      "hit": false,
      "t": 79991.6666666666,
      "d": 620.8333333333576,
      "v": 42
    },
    {
      "midi": 62,
      "hit": false,
      "t": 79995.83333333327,
      "d": 620.8333333333576,
      "v": 40
    },
    {
      "midi": 55,
      "hit": false,
      "t": 80004.16666666661,
      "d": 616.6666666666861,
      "v": 44
    },
    {
      "midi": 62,
      "hit": false,
      "t": 80795.8333333333,
      "d": 54.16666666668607,
      "v": 67
    },
    {
      "midi": 72,
      "hit": false,
      "t": 80799.99999999997,
      "d": 54.16666666668607,
      "v": 85
    },
    {
      "midi": 58,
      "hit": false,
      "t": 80804.16666666664,
      "d": 62.50000000001455,
      "v": 42
    },
    {
      "midi": 57,
      "hit": false,
      "t": 80808.33333333331,
      "d": 29.166666666671517,
      "v": 50
    },
    {
      "midi": 55,
      "hit": false,
      "t": 80808.33333333331,
      "d": 33.333333333343035,
      "v": 54
    },
    {
      "midi": 72,
      "hit": false,
      "t": 80891.66666666666,
      "d": 108.33333333332848,
      "v": 68
    },
    {
      "midi": 62,
      "hit": false,
      "t": 80904.16666666666,
      "d": 83.33333333332848,
      "v": 33
    },
    {
      "midi": 55,
      "hit": false,
      "t": 80912.49999999999,
      "d": 100,
      "v": 34
    },
    {
      "midi": 58,
      "hit": false,
      "t": 80912.49999999999,
      "d": 108.33333333332848,
      "v": 23
    },
    {
      "midi": 57,
      "hit": false,
      "t": 80929.16666666666,
      "d": 79.16666666665697,
      "v": 35
    },
    {
      "midi": 58,
      "hit": false,
      "t": 81083.33333333331,
      "d": 245.83333333332848,
      "v": 50
    },
    {
      "midi": 62,
      "hit": false,
      "t": 81091.66666666664,
      "d": 62.5,
      "v": 59
    },
    {
      "midi": 55,
      "hit": false,
      "t": 81091.66666666664,
      "d": 437.50000000001455,
      "v": 47
    },
    {
      "midi": 57,
      "hit": false,
      "t": 81095.83333333331,
      "d": 50,
      "v": 46
    },
    {
      "midi": 66,
      "hit": false,
      "t": 81099.99999999999,
      "d": 37.5,
      "v": 34
    },
    {
      "midi": 65,
      "hit": false,
      "t": 81104.16666666666,
      "d": 29.166666666656965,
      "v": 48
    },
    {
      "midi": 66,
      "hit": false,
      "t": 81220.83333333331,
      "d": 75,
      "v": 57
    },
    {
      "midi": 62,
      "hit": false,
      "t": 81224.99999999999,
      "d": 70.83333333332848,
      "v": 54
    },
    {
      "midi": 57,
      "hit": false,
      "t": 81233.33333333331,
      "d": 104.16666666665697,
      "v": 17
    },
    {
      "midi": 62,
      "hit": false,
      "t": 81362.49999999997,
      "d": 195.8333333333576,
      "v": 55
    },
    {
      "midi": 69,
      "hit": false,
      "t": 81366.66666666664,
      "d": 129.16666666667152,
      "v": 79
    },
    {
      "midi": 58,
      "hit": false,
      "t": 81370.83333333331,
      "d": 191.66666666668607,
      "v": 25
    },
    {
      "midi": 57,
      "hit": false,
      "t": 81374.99999999999,
      "d": 150,
      "v": 15
    },
    {
      "midi": 63,
      "hit": false,
      "t": 81879.16666666667,
      "d": 87.50000000001455,
      "v": 69
    },
    {
      "midi": 60,
      "hit": false,
      "t": 81891.66666666667,
      "d": 29.166666666671517,
      "v": 61
    },
    {
      "midi": 57,
      "hit": false,
      "t": 81908.33333333334,
      "d": 54.16666666667152,
      "v": 36
    },
    {
      "midi": 77,
      "hit": false,
      "t": 82262.50000000001,
      "d": 141.66666666668607,
      "v": 85
    },
    {
      "midi": 60,
      "hit": false,
      "t": 82266.66666666669,
      "d": 137.50000000001455,
      "v": 74
    },
    {
      "midi": 72,
      "hit": false,
      "t": 82266.66666666669,
      "d": 154.16666666668607,
      "v": 91
    },
    {
      "midi": 61,
      "hit": false,
      "t": 82270.83333333336,
      "d": 158.33333333334303,
      "v": 61
    },
    {
      "midi": 65,
      "hit": false,
      "t": 82275.00000000003,
      "d": 116.66666666667152,
      "v": 79
    },
    {
      "midi": 55,
      "hit": false,
      "t": 82300.00000000003,
      "d": 129.16666666667152,
      "v": 43
    },
    {
      "midi": 64,
      "hit": false,
      "t": 82541.6666666667,
      "d": 179.16666666665697,
      "v": 68
    },
    {
      "midi": 74,
      "hit": false,
      "t": 82541.6666666667,
      "d": 212.49999999998545,
      "v": 81
    },
    {
      "midi": 60,
      "hit": false,
      "t": 82541.6666666667,
      "d": 216.66666666665697,
      "v": 47
    },
    {
      "midi": 54,
      "hit": false,
      "t": 82550.00000000003,
      "d": 191.66666666665697,
      "v": 48
    },
    {
      "midi": 54,
      "hit": false,
      "t": 82800.00000000001,
      "d": 187.5,
      "v": 52
    },
    {
      "midi": 69,
      "hit": false,
      "t": 82804.16666666669,
      "d": 87.5,
      "v": 48
    },
    {
      "midi": 64,
      "hit": false,
      "t": 82812.50000000001,
      "d": 70.83333333334303,
      "v": 49
    },
    {
      "midi": 60,
      "hit": false,
      "t": 82820.83333333336,
      "d": 50,
      "v": 39
    },
    {
      "midi": 62,
      "hit": false,
      "t": 83066.66666666669,
      "d": 375.00000000001455,
      "v": 66
    },
    {
      "midi": 72,
      "hit": false,
      "t": 83066.66666666669,
      "d": 479.1666666666715,
      "v": 71
    },
    {
      "midi": 58,
      "hit": false,
      "t": 83070.83333333336,
      "d": 412.5,
      "v": 37
    },
    {
      "midi": 57,
      "hit": false,
      "t": 83075.00000000003,
      "d": 362.5,
      "v": 57
    },
    {
      "midi": 69,
      "hit": false,
      "t": 83075.00000000003,
      "d": 437.5,
      "v": 73
    },
    {
      "midi": 65,
      "hit": false,
      "t": 83079.1666666667,
      "d": 395.8333333333285,
      "v": 64
    },
    {
      "midi": 55,
      "hit": false,
      "t": 83087.50000000003,
      "d": 387.5,
      "v": 46
    },
    {
      "midi": 62,
      "hit": false,
      "t": 83591.66666666669,
      "d": 158.33333333332848,
      "v": 50
    },
    {
      "midi": 65,
      "hit": false,
      "t": 83595.83333333336,
      "d": 199.99999999998545,
      "v": 51
    },
    {
      "midi": 70,
      "hit": false,
      "t": 83595.83333333336,
      "d": 204.16666666665697,
      "v": 57
    },
    {
      "midi": 58,
      "hit": false,
      "t": 83600.00000000003,
      "d": 162.49999999998545,
      "v": 34
    },
    {
      "midi": 57,
      "hit": false,
      "t": 83608.33333333336,
      "d": 133.33333333332848,
      "v": 43
    },
    {
      "midi": 55,
      "hit": false,
      "t": 83608.33333333336,
      "d": 166.66666666665697,
      "v": 39
    },
    {
      "midi": 66,
      "hit": false,
      "t": 83995.83333333334,
      "d": 170.83333333332848,
      "v": 46
    },
    {
      "midi": 69,
      "hit": false,
      "t": 84000.00000000001,
      "d": 208.33333333332848,
      "v": 56
    },
    {
      "midi": 62,
      "hit": false,
      "t": 84004.16666666669,
      "d": 83.33333333332848,
      "v": 41
    },
    {
      "midi": 58,
      "hit": false,
      "t": 84008.33333333336,
      "d": 133.33333333331393,
      "v": 32
    },
    {
      "midi": 55,
      "hit": false,
      "t": 84016.66666666669,
      "d": 116.66666666665697,
      "v": 36
    },
    {
      "midi": 67,
      "hit": false,
      "t": 84250.00000000001,
      "d": 45.83333333332848,
      "v": 65
    },
    {
      "midi": 58,
      "hit": false,
      "t": 84270.83333333334,
      "d": 87.5,
      "v": 47
    },
    {
      "midi": 55,
      "hit": false,
      "t": 84275.00000000001,
      "d": 41.666666666656965,
      "v": 53
    },
    {
      "midi": 62,
      "hit": false,
      "t": 84275.00000000001,
      "d": 45.83333333332848,
      "v": 46
    },
    {
      "midi": 63,
      "hit": false,
      "t": 84662.50000000001,
      "d": 50.00000000001455,
      "v": 74
    },
    {
      "midi": 60,
      "hit": false,
      "t": 84670.83333333334,
      "d": 25.000000000014552,
      "v": 58
    },
    {
      "midi": 55,
      "hit": false,
      "t": 84675.00000000001,
      "d": 33.333333333343035,
      "v": 55
    },
    {
      "midi": 81,
      "hit": false,
      "t": 84675.00000000001,
      "d": 54.16666666668607,
      "v": 84
    },
    {
      "midi": 69,
      "hit": false,
      "t": 84679.16666666669,
      "d": 45.833333333343035,
      "v": 88
    },
    {
      "midi": 57,
      "hit": false,
      "t": 84683.33333333336,
      "d": 37.5,
      "v": 34
    },
    {
      "midi": 70,
      "hit": false,
      "t": 84920.83333333337,
      "d": 137.50000000001455,
      "v": 86
    },
    {
      "midi": 82,
      "hit": false,
      "t": 84920.83333333337,
      "d": 141.66666666668607,
      "v": 82
    },
    {
      "midi": 63,
      "hit": false,
      "t": 84925.00000000004,
      "d": 191.66666666667152,
      "v": 74
    },
    {
      "midi": 55,
      "hit": false,
      "t": 84937.50000000004,
      "d": 145.83333333334303,
      "v": 58
    },
    {
      "midi": 60,
      "hit": false,
      "t": 84937.50000000004,
      "d": 191.66666666667152,
      "v": 58
    },
    {
      "midi": 57,
      "hit": false,
      "t": 84941.66666666672,
      "d": 150,
      "v": 51
    },
    {
      "midi": 63,
      "hit": false,
      "t": 85195.83333333337,
      "d": 116.66666666668607,
      "v": 65
    },
    {
      "midi": 86,
      "hit": false,
      "t": 85204.1666666667,
      "d": 70.83333333334303,
      "v": 78
    },
    {
      "midi": 55,
      "hit": false,
      "t": 85204.1666666667,
      "d": 91.66666666668607,
      "v": 50
    },
    {
      "midi": 74,
      "hit": false,
      "t": 85208.33333333337,
      "d": 45.83333333332848,
      "v": 76
    },
    {
      "midi": 60,
      "hit": false,
      "t": 85212.50000000004,
      "d": 87.50000000001455,
      "v": 57
    },
    {
      "midi": 57,
      "hit": false,
      "t": 85245.83333333337,
      "d": 33.333333333343035,
      "v": 24
    },
    {
      "midi": 54,
      "hit": false,
      "t": 85487.50000000006,
      "d": 183.3333333333576,
      "v": 65
    },
    {
      "midi": 60,
      "hit": false,
      "t": 85487.50000000006,
      "d": 195.8333333333576,
      "v": 69
    },
    {
      "midi": 93,
      "hit": false,
      "t": 85491.66666666673,
      "d": 158.33333333334303,
      "v": 90
    },
    {
      "midi": 65,
      "hit": false,
      "t": 85491.66666666673,
      "d": 162.50000000001455,
      "v": 80
    },
    {
      "midi": 58,
      "hit": false,
      "t": 85491.66666666673,
      "d": 195.8333333333576,
      "v": 50
    },
    {
      "midi": 81,
      "hit": false,
      "t": 85495.8333333334,
      "d": 129.16666666667152,
      "v": 87
    },
    {
      "midi": 65,
      "hit": false,
      "t": 85762.50000000009,
      "d": 150,
      "v": 74
    },
    {
      "midi": 98,
      "hit": false,
      "t": 85766.66666666676,
      "d": 87.5,
      "v": 83
    },
    {
      "midi": 54,
      "hit": false,
      "t": 85766.66666666676,
      "d": 166.66666666667152,
      "v": 62
    },
    {
      "midi": 86,
      "hit": false,
      "t": 85770.83333333343,
      "d": 104.16666666665697,
      "v": 79
    },
    {
      "midi": 60,
      "hit": false,
      "t": 85770.83333333343,
      "d": 158.33333333332848,
      "v": 56
    },
    {
      "midi": 58,
      "hit": false,
      "t": 85770.83333333343,
      "d": 170.83333333332848,
      "v": 43
    },
    {
      "midi": 92,
      "hit": false,
      "t": 86033.33333333342,
      "d": 229.16666666665697,
      "v": 74
    },
    {
      "midi": 65,
      "hit": false,
      "t": 86037.50000000009,
      "d": 133.33333333332848,
      "v": 73
    },
    {
      "midi": 54,
      "hit": false,
      "t": 86037.50000000009,
      "d": 229.16666666665697,
      "v": 62
    },
    {
      "midi": 80,
      "hit": false,
      "t": 86037.50000000009,
      "d": 237.49999999998545,
      "v": 73
    },
    {
      "midi": 60,
      "hit": false,
      "t": 86041.66666666676,
      "d": 137.49999999998545,
      "v": 65
    },
    {
      "midi": 58,
      "hit": false,
      "t": 86041.66666666676,
      "d": 208.33333333331393,
      "v": 53
    },
    {
      "midi": 57,
      "hit": false,
      "t": 86316.66666666674,
      "d": 420.83333333334303,
      "v": 61
    },
    {
      "midi": 58,
      "hit": false,
      "t": 86316.66666666674,
      "d": 441.6666666666715,
      "v": 39
    },
    {
      "midi": 79,
      "hit": false,
      "t": 86320.83333333342,
      "d": 400.00000000001455,
      "v": 66
    },
    {
      "midi": 91,
      "hit": false,
      "t": 86325.00000000009,
      "d": 358.33333333334303,
      "v": 67
    },
    {
      "midi": 62,
      "hit": false,
      "t": 86325.00000000009,
      "d": 395.83333333334303,
      "v": 65
    },
    {
      "midi": 55,
      "hit": false,
      "t": 86333.33333333342,
      "d": 395.83333333334303,
      "v": 51
    },
    {
      "midi": 90,
      "hit": false,
      "t": 86820.83333333342,
      "d": 208.3333333333576,
      "v": 52
    },
    {
      "midi": 62,
      "hit": false,
      "t": 86825.00000000009,
      "d": 158.33333333334303,
      "v": 45
    },
    {
      "midi": 57,
      "hit": false,
      "t": 86829.16666666676,
      "d": 179.16666666667152,
      "v": 35
    },
    {
      "midi": 58,
      "hit": false,
      "t": 86829.16666666676,
      "d": 195.83333333334303,
      "v": 33
    },
    {
      "midi": 78,
      "hit": false,
      "t": 86833.33333333343,
      "d": 200.00000000001455,
      "v": 52
    },
    {
      "midi": 55,
      "hit": false,
      "t": 86837.5000000001,
      "d": 191.66666666667152,
      "v": 43
    },
    {
      "midi": 62,
      "hit": false,
      "t": 87095.83333333344,
      "d": 62.5,
      "v": 55
    },
    {
      "midi": 58,
      "hit": false,
      "t": 87095.83333333344,
      "d": 83.33333333334303,
      "v": 44
    },
    {
      "midi": 79,
      "hit": false,
      "t": 87100.00000000012,
      "d": 62.5,
      "v": 69
    },
    {
      "midi": 91,
      "hit": false,
      "t": 87100.00000000012,
      "d": 91.66666666667152,
      "v": 62
    },
    {
      "midi": 55,
      "hit": false,
      "t": 87104.16666666679,
      "d": 100,
      "v": 50
    },
    {
      "midi": 57,
      "hit": false,
      "t": 87112.50000000012,
      "d": 33.33333333332848,
      "v": 33
    },
    {
      "midi": 100,
      "hit": false,
      "t": 87495.83333333346,
      "d": 91.66666666667152,
      "v": 88
    },
    {
      "midi": 62,
      "hit": false,
      "t": 87500.00000000013,
      "d": 41.66666666667152,
      "v": 45
    },
    {
      "midi": 58,
      "hit": false,
      "t": 87500.00000000013,
      "d": 66.66666666667152,
      "v": 39
    },
    {
      "midi": 57,
      "hit": false,
      "t": 87512.50000000013,
      "d": 41.66666666667152,
      "v": 35
    },
    {
      "midi": 98,
      "hit": false,
      "t": 87516.6666666668,
      "d": 25,
      "v": 37
    },
    {
      "midi": 55,
      "hit": false,
      "t": 87516.6666666668,
      "d": 104.16666666665697,
      "v": 45
    },
    {
      "midi": 97,
      "hit": false,
      "t": 87666.66666666679,
      "d": 204.16666666667152,
      "v": 38
    },
    {
      "midi": 62,
      "hit": false,
      "t": 87900.00000000013,
      "d": 62.50000000001455,
      "v": 63
    },
    {
      "midi": 58,
      "hit": false,
      "t": 87900.00000000013,
      "d": 79.16666666668607,
      "v": 53
    },
    {
      "midi": 57,
      "hit": false,
      "t": 87904.1666666668,
      "d": 108.33333333334303,
      "v": 61
    },
    {
      "midi": 96,
      "hit": false,
      "t": 87908.33333333347,
      "d": 129.16666666667152,
      "v": 63
    },
    {
      "midi": 95,
      "hit": false,
      "t": 88129.16666666682,
      "d": 225,
      "v": 54
    },
    {
      "midi": 94,
      "hit": false,
      "t": 88462.50000000015,
      "d": 200,
      "v": 64
    },
    {
      "midi": 67,
      "hit": false,
      "t": 88712.50000000015,
      "d": 62.50000000001455,
      "v": 57
    },
    {
      "midi": 58,
      "hit": false,
      "t": 88712.50000000015,
      "d": 75.00000000001455,
      "v": 40
    },
    {
      "midi": 93,
      "hit": false,
      "t": 88716.66666666682,
      "d": 170.83333333334303,
      "v": 69
    },
    {
      "midi": 63,
      "hit": false,
      "t": 88720.83333333349,
      "d": 112.5,
      "v": 37
    },
    {
      "midi": 62,
      "hit": false,
      "t": 88725.00000000016,
      "d": 112.5,
      "v": 42
    },
    {
      "midi": 92,
      "hit": false,
      "t": 88933.33333333349,
      "d": 175,
      "v": 36
    },
    {
      "midi": 91,
      "hit": false,
      "t": 89116.66666666682,
      "d": 116.66666666665697,
      "v": 62
    },
    {
      "midi": 62,
      "hit": false,
      "t": 89162.50000000015,
      "d": 91.66666666665697,
      "v": 42
    },
    {
      "midi": 90,
      "hit": false,
      "t": 89300.00000000013,
      "d": 579.1666666666715,
      "v": 36
    },
    {
      "midi": 67,
      "hit": false,
      "t": 89558.33333333346,
      "d": 29.166666666671517,
      "v": 55
    },
    {
      "midi": 63,
      "hit": false,
      "t": 89566.66666666679,
      "d": 62.50000000001455,
      "v": 37
    },
    {
      "midi": 57,
      "hit": false,
      "t": 89583.33333333346,
      "d": 29.166666666671517,
      "v": 26
    },
    {
      "midi": 88,
      "hit": false,
      "t": 89870.83333333347,
      "d": 183.33333333332848,
      "v": 62
    },
    {
      "midi": 89,
      "hit": false,
      "t": 90137.50000000013,
      "d": 170.83333333334303,
      "v": 68
    },
    {
      "midi": 67,
      "hit": false,
      "t": 90291.6666666668,
      "d": 29.166666666671517,
      "v": 60
    },
    {
      "midi": 63,
      "hit": false,
      "t": 90295.83333333347,
      "d": 100,
      "v": 42
    },
    {
      "midi": 57,
      "hit": false,
      "t": 90329.1666666668,
      "d": 25,
      "v": 24
    },
    {
      "midi": 86,
      "hit": false,
      "t": 90333.33333333347,
      "d": 154.16666666667152,
      "v": 71
    },
    {
      "midi": 88,
      "hit": false,
      "t": 90545.83333333347,
      "d": 200,
      "v": 82
    },
    {
      "midi": 63,
      "hit": false,
      "t": 90704.1666666668,
      "d": 58.333333333343035,
      "v": 38
    },
    {
      "midi": 85,
      "hit": false,
      "t": 90741.6666666668,
      "d": 158.33333333334303,
      "v": 71
    },
    {
      "midi": 87,
      "hit": false,
      "t": 90941.66666666682,
      "d": 170.83333333332848,
      "v": 77
    },
    {
      "midi": 65,
      "hit": false,
      "t": 91050.00000000015,
      "d": 33.33333333332848,
      "v": 49
    },
    {
      "midi": 62,
      "hit": false,
      "t": 91062.50000000015,
      "d": 41.666666666656965,
      "v": 39
    },
    {
      "midi": 60,
      "hit": false,
      "t": 91070.83333333347,
      "d": 37.5,
      "v": 30
    },
    {
      "midi": 85,
      "hit": false,
      "t": 91145.83333333347,
      "d": 120.83333333332848,
      "v": 59
    },
    {
      "midi": 86,
      "hit": false,
      "t": 91308.33333333347,
      "d": 125,
      "v": 64
    },
    {
      "midi": 84,
      "hit": false,
      "t": 91483.33333333347,
      "d": 100,
      "v": 79
    },
    {
      "midi": 81,
      "hit": false,
      "t": 91641.6666666668,
      "d": 212.5,
      "v": 60
    },
    {
      "midi": 77,
      "hit": false,
      "t": 91887.50000000013,
      "d": 95.83333333334303,
      "v": 63
    },
    {
      "midi": 65,
      "hit": false,
      "t": 91891.6666666668,
      "d": 29.166666666671517,
      "v": 39
    },
    {
      "midi": 62,
      "hit": false,
      "t": 91895.83333333347,
      "d": 50,
      "v": 36
    },
    {
      "midi": 60,
      "hit": false,
      "t": 91900.00000000015,
      "d": 50,
      "v": 35
    },
    {
      "midi": 74,
      "hit": false,
      "t": 92054.1666666668,
      "d": 245.83333333332848,
      "v": 38
    },
    {
      "midi": 74,
      "hit": false,
      "t": 92450.00000000013,
      "d": 708.3333333333285,
      "v": 71
    },
    {
      "midi": 61,
      "hit": false,
      "t": 93229.16666666679,
      "d": 212.50000000001455,
      "v": 47
    },
    {
      "midi": 73,
      "hit": false,
      "t": 93233.33333333346,
      "d": 254.16666666667152,
      "v": 80
    },
    {
      "midi": 65,
      "hit": false,
      "t": 93237.50000000013,
      "d": 187.5,
      "v": 62
    },
    {
      "midi": 55,
      "hit": false,
      "t": 93245.83333333346,
      "d": 175,
      "v": 45
    },
    {
      "midi": 60,
      "hit": false,
      "t": 93320.83333333346,
      "d": 83.33333333332848,
      "v": 14
    },
    {
      "midi": 61,
      "hit": false,
      "t": 93508.33333333346,
      "d": 104.16666666667152,
      "v": 37
    },
    {
      "midi": 76,
      "hit": false,
      "t": 93508.33333333346,
      "d": 120.83333333334303,
      "v": 71
    },
    {
      "midi": 65,
      "hit": false,
      "t": 93512.50000000013,
      "d": 50,
      "v": 41
    },
    {
      "midi": 60,
      "hit": false,
      "t": 93516.6666666668,
      "d": 66.66666666665697,
      "v": 53
    },
    {
      "midi": 55,
      "hit": false,
      "t": 93516.6666666668,
      "d": 258.3333333333285,
      "v": 42
    },
    {
      "midi": 65,
      "hit": false,
      "t": 93641.6666666668,
      "d": 79.16666666665697,
      "v": 48
    },
    {
      "midi": 61,
      "hit": false,
      "t": 93650.00000000013,
      "d": 116.66666666667152,
      "v": 18
    },
    {
      "midi": 73,
      "hit": false,
      "t": 93662.50000000013,
      "d": 575,
      "v": 43
    },
    {
      "midi": 60,
      "hit": false,
      "t": 93670.83333333346,
      "d": 66.66666666667152,
      "v": 28
    },
    {
      "midi": 67,
      "hit": false,
      "t": 93900.00000000013,
      "d": 333.3333333333285,
      "v": 64
    },
    {
      "midi": 60,
      "hit": false,
      "t": 93912.50000000013,
      "d": 270.8333333333285,
      "v": 51
    },
    {
      "midi": 55,
      "hit": false,
      "t": 93916.6666666668,
      "d": 304.16666666665697,
      "v": 51
    },
    {
      "midi": 61,
      "hit": false,
      "t": 93916.6666666668,
      "d": 366.66666666665697,
      "v": 38
    },
    {
      "midi": 70,
      "hit": false,
      "t": 94412.50000000013,
      "d": 75,
      "v": 64
    },
    {
      "midi": 54,
      "hit": false,
      "t": 94416.6666666668,
      "d": 87.49999999998545,
      "v": 53
    },
    {
      "midi": 60,
      "hit": false,
      "t": 94420.83333333347,
      "d": 58.33333333332848,
      "v": 61
    },
    {
      "midi": 77,
      "hit": false,
      "t": 94420.83333333347,
      "d": 112.49999999998545,
      "v": 56
    },
    {
      "midi": 65,
      "hit": false,
      "t": 94425.00000000015,
      "d": 37.5,
      "v": 58
    },
    {
      "midi": 74,
      "hit": false,
      "t": 94425.00000000015,
      "d": 70.83333333331393,
      "v": 60
    },
    {
      "midi": 58,
      "hit": false,
      "t": 94437.50000000015,
      "d": 33.33333333332848,
      "v": 34
    },
    {
      "midi": 77,
      "hit": false,
      "t": 94679.16666666679,
      "d": 25,
      "v": 77
    },
    {
      "midi": 54,
      "hit": false,
      "t": 94679.16666666679,
      "d": 62.5,
      "v": 58
    },
    {
      "midi": 89,
      "hit": false,
      "t": 94683.33333333346,
      "d": 41.66666666667152,
      "v": 75
    },
    {
      "midi": 60,
      "hit": false,
      "t": 94691.66666666679,
      "d": 29.166666666671517,
      "v": 55
    },
    {
      "midi": 58,
      "hit": false,
      "t": 94700.00000000012,
      "d": 33.333333333343035,
      "v": 31
    },
    {
      "midi": 54,
      "hit": false,
      "t": 94800.00000000012,
      "d": 179.16666666668607,
      "v": 59
    },
    {
      "midi": 65,
      "hit": false,
      "t": 94804.16666666679,
      "d": 150.00000000001455,
      "v": 66
    },
    {
      "midi": 60,
      "hit": false,
      "t": 94808.33333333346,
      "d": 175.00000000001455,
      "v": 63
    },
    {
      "midi": 58,
      "hit": false,
      "t": 94808.33333333346,
      "d": 187.50000000001455,
      "v": 55
    },
    {
      "midi": 82,
      "hit": false,
      "t": 94812.50000000013,
      "d": 125.00000000001455,
      "v": 72
    },
    {
      "midi": 94,
      "hit": false,
      "t": 94820.83333333347,
      "d": 125,
      "v": 74
    },
    {
      "midi": 98,
      "hit": false,
      "t": 95066.6666666668,
      "d": 116.66666666668607,
      "v": 81
    },
    {
      "midi": 86,
      "hit": false,
      "t": 95070.83333333347,
      "d": 79.16666666668607,
      "v": 74
    },
    {
      "midi": 54,
      "hit": false,
      "t": 95075.00000000015,
      "d": 154.16666666668607,
      "v": 69
    },
    {
      "midi": 65,
      "hit": false,
      "t": 95079.16666666682,
      "d": 116.66666666667152,
      "v": 74
    },
    {
      "midi": 58,
      "hit": false,
      "t": 95079.16666666682,
      "d": 145.83333333334303,
      "v": 56
    },
    {
      "midi": 60,
      "hit": false,
      "t": 95083.33333333349,
      "d": 137.5,
      "v": 60
    },
    {
      "midi": 54,
      "hit": false,
      "t": 95312.50000000016,
      "d": 158.33333333334303,
      "v": 69
    },
    {
      "midi": 65,
      "hit": false,
      "t": 95316.66666666683,
      "d": 116.66666666667152,
      "v": 68
    },
    {
      "midi": 58,
      "hit": false,
      "t": 95316.66666666683,
      "d": 133.33333333332848,
      "v": 57
    },
    {
      "midi": 89,
      "hit": false,
      "t": 95320.8333333335,
      "d": 75,
      "v": 76
    },
    {
      "midi": 101,
      "hit": false,
      "t": 95320.8333333335,
      "d": 120.83333333332848,
      "v": 72
    },
    {
      "midi": 60,
      "hit": false,
      "t": 95325.00000000017,
      "d": 141.66666666665697,
      "v": 59
    },
    {
      "midi": 90,
      "hit": false,
      "t": 95595.8333333335,
      "d": 166.66666666665697,
      "v": 74
    },
    {
      "midi": 102,
      "hit": false,
      "t": 95595.8333333335,
      "d": 191.66666666665697,
      "v": 70
    },
    {
      "midi": 54,
      "hit": false,
      "t": 95595.8333333335,
      "d": 199.99999999998545,
      "v": 70
    },
    {
      "midi": 58,
      "hit": false,
      "t": 95595.8333333335,
      "d": 229.16666666665697,
      "v": 56
    },
    {
      "midi": 65,
      "hit": false,
      "t": 95604.16666666683,
      "d": 62.5,
      "v": 62
    },
    {
      "midi": 60,
      "hit": false,
      "t": 95608.3333333335,
      "d": 79.16666666665697,
      "v": 60
    },
    {
      "midi": 97,
      "hit": false,
      "t": 95608.3333333335,
      "d": 124.99999999998545,
      "v": 61
    },
    {
      "midi": 59,
      "hit": false,
      "t": 95879.16666666683,
      "d": 116.66666666667152,
      "v": 78
    },
    {
      "midi": 98,
      "hit": false,
      "t": 95879.16666666683,
      "d": 116.66666666667152,
      "v": 80
    },
    {
      "midi": 91,
      "hit": false,
      "t": 95883.3333333335,
      "d": 66.66666666667152,
      "v": 74
    },
    {
      "midi": 103,
      "hit": false,
      "t": 95883.3333333335,
      "d": 125,
      "v": 78
    },
    {
      "midi": 64,
      "hit": false,
      "t": 95887.50000000017,
      "d": 95.83333333332848,
      "v": 76
    },
    {
      "midi": 53,
      "hit": false,
      "t": 95887.50000000017,
      "d": 191.66666666665697,
      "v": 79
    },
    {
      "midi": 91,
      "hit": false,
      "t": 96020.8333333335,
      "d": 62.5,
      "v": 56
    },
    {
      "midi": 59,
      "hit": false,
      "t": 96054.16666666683,
      "d": 83.33333333332848,
      "v": 43
    },
    {
      "midi": 64,
      "hit": false,
      "t": 96083.3333333335,
      "d": 75,
      "v": 59
    },
    {
      "midi": 98,
      "hit": false,
      "t": 96091.66666666683,
      "d": 70.83333333334303,
      "v": 59
    },
    {
      "midi": 103,
      "hit": false,
      "t": 96100.00000000016,
      "d": 58.333333333343035,
      "v": 30
    },
    {
      "midi": 53,
      "hit": false,
      "t": 96141.66666666683,
      "d": 125.00000000001455,
      "v": 46
    },
    {
      "midi": 91,
      "hit": false,
      "t": 96145.8333333335,
      "d": 104.16666666667152,
      "v": 46
    },
    {
      "midi": 103,
      "hit": false,
      "t": 96233.3333333335,
      "d": 41.66666666667152,
      "v": 24
    },
    {
      "midi": 59,
      "hit": false,
      "t": 96233.3333333335,
      "d": 66.66666666667152,
      "v": 32
    },
    {
      "midi": 98,
      "hit": false,
      "t": 96245.8333333335,
      "d": 50,
      "v": 60
    },
    {
      "midi": 64,
      "hit": false,
      "t": 96254.16666666685,
      "d": 29.166666666656965,
      "v": 48
    },
    {
      "midi": 59,
      "hit": false,
      "t": 96375.00000000017,
      "d": 162.5,
      "v": 48
    },
    {
      "midi": 64,
      "hit": false,
      "t": 96379.16666666685,
      "d": 116.66666666667152,
      "v": 66
    },
    {
      "midi": 53,
      "hit": false,
      "t": 96383.33333333352,
      "d": 125,
      "v": 58
    },
    {
      "midi": 90,
      "hit": false,
      "t": 96391.66666666685,
      "d": 125,
      "v": 64
    },
    {
      "midi": 102,
      "hit": false,
      "t": 96391.66666666685,
      "d": 137.5,
      "v": 64
    },
    {
      "midi": 97,
      "hit": false,
      "t": 96404.16666666685,
      "d": 116.66666666667152,
      "v": 43
    },
    {
      "midi": 91,
      "hit": false,
      "t": 96666.66666666685,
      "d": 166.66666666667152,
      "v": 74
    },
    {
      "midi": 103,
      "hit": false,
      "t": 96670.83333333352,
      "d": 104.16666666667152,
      "v": 74
    },
    {
      "midi": 98,
      "hit": false,
      "t": 96670.83333333352,
      "d": 137.5,
      "v": 76
    },
    {
      "midi": 59,
      "hit": false,
      "t": 96675.00000000019,
      "d": 358.3333333333285,
      "v": 77
    },
    {
      "midi": 64,
      "hit": false,
      "t": 96679.16666666686,
      "d": 612.4999999999854,
      "v": 76
    },
    {
      "midi": 53,
      "hit": false,
      "t": 96679.16666666686,
      "d": 720.8333333333285,
      "v": 78
    },
    {
      "midi": 59,
      "hit": false,
      "t": 97091.66666666685,
      "d": 191.66666666667152,
      "v": 53
    },
    {
      "midi": 85,
      "hit": false,
      "t": 97345.83333333352,
      "d": 29.166666666671517,
      "v": 20
    },
    {
      "midi": 85,
      "hit": false,
      "t": 97483.33333333352,
      "d": 366.66666666668607,
      "v": 69
    },
    {
      "midi": 70,
      "hit": false,
      "t": 97487.50000000019,
      "d": 333.33333333334303,
      "v": 74
    },
    {
      "midi": 62,
      "hit": false,
      "t": 97504.16666666686,
      "d": 29.166666666671517,
      "v": 60
    },
    {
      "midi": 58,
      "hit": false,
      "t": 97508.33333333353,
      "d": 54.16666666667152,
      "v": 40
    },
    {
      "midi": 52,
      "hit": false,
      "t": 97525.0000000002,
      "d": 33.33333333332848,
      "v": 35
    },
    {
      "midi": 82,
      "hit": false,
      "t": 97891.66666666688,
      "d": 83.33333333332848,
      "v": 37
    },
    {
      "midi": 85,
      "hit": false,
      "t": 98020.83333333353,
      "d": 175,
      "v": 59
    },
    {
      "midi": 70,
      "hit": false,
      "t": 98025.0000000002,
      "d": 195.83333333332848,
      "v": 53
    },
    {
      "midi": 85,
      "hit": false,
      "t": 98291.66666666686,
      "d": 125,
      "v": 62
    },
    {
      "midi": 70,
      "hit": false,
      "t": 98300.00000000019,
      "d": 87.5,
      "v": 43
    },
    {
      "midi": 62,
      "hit": false,
      "t": 98308.33333333352,
      "d": 37.5,
      "v": 60
    },
    {
      "midi": 52,
      "hit": false,
      "t": 98320.83333333352,
      "d": 37.5,
      "v": 49
    },
    {
      "midi": 58,
      "hit": false,
      "t": 98325.00000000019,
      "d": 33.33333333332848,
      "v": 35
    },
    {
      "midi": 82,
      "hit": false,
      "t": 98454.16666666686,
      "d": 225,
      "v": 29
    },
    {
      "midi": 70,
      "hit": false,
      "t": 98804.16666666686,
      "d": 200.00000000001455,
      "v": 63
    },
    {
      "midi": 85,
      "hit": false,
      "t": 98808.33333333353,
      "d": 191.66666666667152,
      "v": 62
    },
    {
      "midi": 58,
      "hit": false,
      "t": 99062.5000000002,
      "d": 75,
      "v": 54
    },
    {
      "midi": 63,
      "hit": false,
      "t": 99083.33333333353,
      "d": 29.166666666671517,
      "v": 38
    },
    {
      "midi": 67,
      "hit": false,
      "t": 99083.33333333353,
      "d": 29.166666666671517,
      "v": 35
    },
    {
      "midi": 85,
      "hit": false,
      "t": 99195.83333333353,
      "d": 241.66666666667152,
      "v": 52
    },
    {
      "midi": 70,
      "hit": false,
      "t": 99200.0000000002,
      "d": 241.66666666667152,
      "v": 37
    },
    {
      "midi": 85,
      "hit": false,
      "t": 99595.83333333355,
      "d": 212.49999999998545,
      "v": 68
    },
    {
      "midi": 70,
      "hit": false,
      "t": 99604.16666666688,
      "d": 183.33333333332848,
      "v": 55
    },
    {
      "midi": 67,
      "hit": false,
      "t": 99891.66666666686,
      "d": 25,
      "v": 51
    },
    {
      "midi": 57,
      "hit": false,
      "t": 99904.16666666686,
      "d": 29.166666666671517,
      "v": 39
    },
    {
      "midi": 63,
      "hit": false,
      "t": 99904.16666666686,
      "d": 66.66666666667152,
      "v": 31
    },
    {
      "midi": 82,
      "hit": false,
      "t": 99904.16666666686,
      "d": 83.33333333334303,
      "v": 42
    },
    {
      "midi": 70,
      "hit": false,
      "t": 100129.16666666688,
      "d": 133.33333333332848,
      "v": 50
    },
    {
      "midi": 85,
      "hit": false,
      "t": 100129.16666666688,
      "d": 145.83333333332848,
      "v": 57
    },
    {
      "midi": 63,
      "hit": false,
      "t": 100304.16666666688,
      "d": 58.33333333332848,
      "v": 44
    },
    {
      "midi": 67,
      "hit": false,
      "t": 100312.5000000002,
      "d": 29.166666666671517,
      "v": 34
    },
    {
      "midi": 82,
      "hit": false,
      "t": 100425.0000000002,
      "d": 137.5,
      "v": 44
    },
    {
      "midi": 65,
      "hit": false,
      "t": 100641.66666666688,
      "d": 874.9999999999854,
      "v": 62
    },
    {
      "midi": 62,
      "hit": false,
      "t": 100645.83333333355,
      "d": 874.9999999999854,
      "v": 48
    },
    {
      "midi": 60,
      "hit": false,
      "t": 100645.83333333355,
      "d": 895.8333333333285,
      "v": 50
    },
    {
      "midi": 70,
      "hit": false,
      "t": 100658.33333333355,
      "d": 350,
      "v": 71
    },
    {
      "midi": 85,
      "hit": false,
      "t": 100658.33333333355,
      "d": 387.5,
      "v": 71
    },
    {
      "midi": 55,
      "hit": false,
      "t": 100662.50000000022,
      "d": 929.166666666657,
      "v": 50
    },
    {
      "midi": 82,
      "hit": false,
      "t": 101095.83333333355,
      "d": 33.33333333332848,
      "v": 38
    },
    {
      "midi": 85,
      "hit": false,
      "t": 101216.66666666688,
      "d": 129.16666666665697,
      "v": 69
    },
    {
      "midi": 70,
      "hit": false,
      "t": 101225.0000000002,
      "d": 145.83333333332848,
      "v": 59
    },
    {
      "midi": 85,
      "hit": false,
      "t": 101462.5000000002,
      "d": 91.66666666667152,
      "v": 56
    },
    {
      "midi": 70,
      "hit": false,
      "t": 101470.83333333353,
      "d": 66.66666666667152,
      "v": 59
    },
    {
      "midi": 82,
      "hit": false,
      "t": 101620.83333333355,
      "d": 175,
      "v": 43
    },
    {
      "midi": 53,
      "hit": false,
      "t": 101841.66666666688,
      "d": 600,
      "v": 95
    },
    {
      "midi": 41,
      "hit": false,
      "t": 102262.5000000002,
      "d": 1291.6666666667006,
      "v": 71
    },
    {
      "midi": 53,
      "hit": false,
      "t": 102550.0000000002,
      "d": 45.83333333332848,
      "v": 64
    },
    {
      "midi": 57,
      "hit": false,
      "t": 102675.0000000002,
      "d": 75,
      "v": 62
    },
    {
      "midi": 53,
      "hit": false,
      "t": 102791.66666666688,
      "d": 45.833333333343035,
      "v": 51
    },
    {
      "midi": 61,
      "hit": false,
      "t": 102808.33333333355,
      "d": 62.5,
      "v": 48
    },
    {
      "midi": 55,
      "hit": false,
      "t": 102925.00000000022,
      "d": 66.66666666667152,
      "v": 29
    },
    {
      "midi": 59,
      "hit": false,
      "t": 103058.33333333356,
      "d": 83.33333333332848,
      "v": 77
    },
    {
      "midi": 63,
      "hit": false,
      "t": 103191.66666666689,
      "d": 104.16666666667152,
      "v": 67
    },
    {
      "midi": 57,
      "hit": false,
      "t": 103325.00000000023,
      "d": 41.66666666667152,
      "v": 34
    },
    {
      "midi": 61,
      "hit": false,
      "t": 103454.1666666669,
      "d": 100,
      "v": 61
    },
    {
      "midi": 53,
      "hit": false,
      "t": 103491.6666666669,
      "d": 100,
      "v": 33
    },
    {
      "midi": 65,
      "hit": false,
      "t": 103604.1666666669,
      "d": 75,
      "v": 61
    },
    {
      "midi": 60,
      "hit": false,
      "t": 103737.50000000023,
      "d": 41.66666666667152,
      "v": 38
    },
    {
      "midi": 63,
      "hit": false,
      "t": 103850.00000000023,
      "d": 104.16666666667152,
      "v": 53
    },
    {
      "midi": 67,
      "hit": false,
      "t": 103995.83333333358,
      "d": 70.83333333332848,
      "v": 63
    },
    {
      "midi": 62,
      "hit": false,
      "t": 104154.1666666669,
      "d": 33.33333333332848,
      "v": 33
    },
    {
      "midi": 65,
      "hit": false,
      "t": 104275.00000000023,
      "d": 37.5,
      "v": 39
    },
    {
      "midi": 69,
      "hit": false,
      "t": 104425.00000000023,
      "d": 83.33333333332848,
      "v": 52
    },
    {
      "midi": 64,
      "hit": false,
      "t": 104820.83333333356,
      "d": 45.83333333332848,
      "v": 44
    },
    {
      "midi": 69,
      "hit": false,
      "t": 104904.16666666689,
      "d": 95.83333333332848,
      "v": 66
    },
    {
      "midi": 73,
      "hit": false,
      "t": 105008.33333333355,
      "d": 54.16666666667152,
      "v": 63
    },
    {
      "midi": 76,
      "hit": false,
      "t": 105120.83333333355,
      "d": 62.5,
      "v": 73
    },
    {
      "midi": 81,
      "hit": false,
      "t": 105229.16666666688,
      "d": 112.5,
      "v": 67
    },
    {
      "midi": 85,
      "hit": false,
      "t": 105333.33333333355,
      "d": 66.66666666665697,
      "v": 57
    },
    {
      "midi": 88,
      "hit": false,
      "t": 105470.83333333353,
      "d": 33.33333333332848,
      "v": 32
    },
    {
      "midi": 65,
      "hit": false,
      "t": 105633.33333333353,
      "d": 33.33333333332848,
      "v": 49
    },
    {
      "midi": 60,
      "hit": false,
      "t": 105641.66666666686,
      "d": 33.33333333332848,
      "v": 36
    },
    {
      "midi": 61,
      "hit": false,
      "t": 105654.16666666686,
      "d": 25,
      "v": 23
    },
    {
      "midi": 65,
      "hit": false,
      "t": 106287.50000000019,
      "d": 25,
      "v": 64
    },
    {
      "midi": 60,
      "hit": false,
      "t": 106291.66666666686,
      "d": 54.16666666667152,
      "v": 55
    },
    {
      "midi": 61,
      "hit": false,
      "t": 106300.00000000019,
      "d": 29.166666666671517,
      "v": 33
    },
    {
      "midi": 96,
      "hit": false,
      "t": 106433.33333333353,
      "d": 66.66666666667152,
      "v": 90
    },
    {
      "midi": 94,
      "hit": false,
      "t": 106575.0000000002,
      "d": 41.66666666667152,
      "v": 35
    },
    {
      "midi": 96,
      "hit": false,
      "t": 106687.5000000002,
      "d": 95.83333333334303,
      "v": 90
    },
    {
      "midi": 65,
      "hit": false,
      "t": 106704.16666666688,
      "d": 62.5,
      "v": 60
    },
    {
      "midi": 61,
      "hit": false,
      "t": 106704.16666666688,
      "d": 145.83333333334303,
      "v": 46
    },
    {
      "midi": 60,
      "hit": false,
      "t": 106704.16666666688,
      "d": 150.00000000001455,
      "v": 55
    },
    {
      "midi": 94,
      "hit": false,
      "t": 106845.83333333355,
      "d": 70.83333333334303,
      "v": 59
    },
    {
      "midi": 89,
      "hit": false,
      "t": 106966.66666666689,
      "d": 75,
      "v": 67
    },
    {
      "midi": 65,
      "hit": false,
      "t": 107087.50000000022,
      "d": 108.33333333334303,
      "v": 62
    },
    {
      "midi": 85,
      "hit": false,
      "t": 107095.83333333355,
      "d": 70.83333333334303,
      "v": 57
    },
    {
      "midi": 60,
      "hit": false,
      "t": 107100.00000000022,
      "d": 100.00000000001455,
      "v": 49
    },
    {
      "midi": 58,
      "hit": false,
      "t": 107100.00000000022,
      "d": 320.8333333333576,
      "v": 33
    },
    {
      "midi": 54,
      "hit": false,
      "t": 107104.16666666689,
      "d": 320.8333333333576,
      "v": 36
    },
    {
      "midi": 84,
      "hit": false,
      "t": 107245.83333333356,
      "d": 208.3333333333576,
      "v": 55
    },
    {
      "midi": 60,
      "hit": false,
      "t": 107250.00000000023,
      "d": 137.5,
      "v": 28
    },
    {
      "midi": 65,
      "hit": false,
      "t": 107258.33333333356,
      "d": 145.83333333334303,
      "v": 33
    },
    {
      "midi": 65,
      "hit": false,
      "t": 107491.66666666692,
      "d": 66.66666666667152,
      "v": 53
    },
    {
      "midi": 54,
      "hit": false,
      "t": 107491.66666666692,
      "d": 316.6666666666715,
      "v": 44
    },
    {
      "midi": 58,
      "hit": false,
      "t": 107500.00000000025,
      "d": 91.66666666667152,
      "v": 34
    },
    {
      "midi": 82,
      "hit": false,
      "t": 107500.00000000025,
      "d": 129.16666666667152,
      "v": 49
    },
    {
      "midi": 60,
      "hit": false,
      "t": 107504.16666666692,
      "d": 41.66666666667152,
      "v": 44
    },
    {
      "midi": 65,
      "hit": false,
      "t": 107629.16666666692,
      "d": 158.33333333332848,
      "v": 44
    },
    {
      "midi": 60,
      "hit": false,
      "t": 107650.00000000025,
      "d": 141.66666666667152,
      "v": 48
    },
    {
      "midi": 58,
      "hit": false,
      "t": 107650.00000000025,
      "d": 175.00000000001455,
      "v": 15
    },
    {
      "midi": 84,
      "hit": false,
      "t": 107654.16666666692,
      "d": 200.00000000001455,
      "v": 57
    },
    {
      "midi": 65,
      "hit": false,
      "t": 107908.3333333336,
      "d": 70.83333333332848,
      "v": 64
    },
    {
      "midi": 58,
      "hit": false,
      "t": 107908.3333333336,
      "d": 112.49999999998545,
      "v": 36
    },
    {
      "midi": 54,
      "hit": false,
      "t": 107908.3333333336,
      "d": 129.16666666665697,
      "v": 59
    },
    {
      "midi": 86,
      "hit": false,
      "t": 107916.66666666693,
      "d": 91.66666666665697,
      "v": 74
    },
    {
      "midi": 60,
      "hit": false,
      "t": 107920.8333333336,
      "d": 79.16666666665697,
      "v": 53
    },
    {
      "midi": 54,
      "hit": false,
      "t": 108079.16666666693,
      "d": 179.16666666665697,
      "v": 28
    },
    {
      "midi": 60,
      "hit": false,
      "t": 108087.50000000026,
      "d": 95.83333333332848,
      "v": 37
    },
    {
      "midi": 65,
      "hit": false,
      "t": 108095.83333333359,
      "d": 37.5,
      "v": 34
    },
    {
      "midi": 58,
      "hit": false,
      "t": 108100.00000000026,
      "d": 133.33333333332848,
      "v": 27
    },
    {
      "midi": 82,
      "hit": false,
      "t": 108120.83333333359,
      "d": 183.33333333332848,
      "v": 35
    },
    {
      "midi": 77,
      "hit": false,
      "t": 108412.50000000025,
      "d": 200,
      "v": 46
    },
    {
      "midi": 54,
      "hit": false,
      "t": 108416.66666666692,
      "d": 270.8333333333285,
      "v": 40
    },
    {
      "midi": 65,
      "hit": false,
      "t": 108425.00000000025,
      "d": 170.83333333332848,
      "v": 36
    },
    {
      "midi": 60,
      "hit": false,
      "t": 108433.33333333358,
      "d": 158.33333333332848,
      "v": 36
    },
    {
      "midi": 58,
      "hit": false,
      "t": 108433.33333333358,
      "d": 304.1666666666715,
      "v": 30
    },
    {
      "midi": 64,
      "hit": false,
      "t": 108804.16666666692,
      "d": 325.00000000001455,
      "v": 73
    },
    {
      "midi": 59,
      "hit": false,
      "t": 108808.33333333359,
      "d": 354.1666666666715,
      "v": 66
    },
    {
      "midi": 78,
      "hit": false,
      "t": 108812.50000000026,
      "d": 75,
      "v": 83
    },
    {
      "midi": 53,
      "hit": false,
      "t": 108812.50000000026,
      "d": 316.6666666666715,
      "v": 67
    },
    {
      "midi": 79,
      "hit": false,
      "t": 108950.00000000026,
      "d": 150,
      "v": 67
    },
    {
      "midi": 59,
      "hit": false,
      "t": 109208.33333333359,
      "d": 208.33333333334303,
      "v": 33
    },
    {
      "midi": 73,
      "hit": false,
      "t": 109212.50000000026,
      "d": 129.16666666667152,
      "v": 69
    },
    {
      "midi": 53,
      "hit": false,
      "t": 109216.66666666693,
      "d": 191.66666666667152,
      "v": 33
    },
    {
      "midi": 64,
      "hit": false,
      "t": 109220.8333333336,
      "d": 158.33333333332848,
      "v": 37
    },
    {
      "midi": 74,
      "hit": false,
      "t": 109350.00000000026,
      "d": 200,
      "v": 69
    },
    {
      "midi": 67,
      "hit": false,
      "t": 109600.00000000026,
      "d": 195.83333333332848,
      "v": 55
    },
    {
      "midi": 67,
      "hit": false,
      "t": 109850.00000000026,
      "d": 29.166666666671517,
      "v": 50
    },
    {
      "midi": 59,
      "hit": false,
      "t": 109879.16666666693,
      "d": 37.5,
      "v": 44
    },
    {
      "midi": 62,
      "hit": false,
      "t": 110250.00000000026,
      "d": 54.16666666667152,
      "v": 68
    },
    {
      "midi": 78,
      "hit": false,
      "t": 110250.00000000026,
      "d": 150.00000000001455,
      "v": 62
    },
    {
      "midi": 57,
      "hit": false,
      "t": 110254.16666666693,
      "d": 29.166666666671517,
      "v": 60
    },
    {
      "midi": 66,
      "hit": false,
      "t": 110254.16666666693,
      "d": 154.16666666667152,
      "v": 81
    },
    {
      "midi": 58,
      "hit": false,
      "t": 110258.3333333336,
      "d": 62.5,
      "v": 47
    },
    {
      "midi": 67,
      "hit": false,
      "t": 110445.8333333336,
      "d": 54.16666666667152,
      "v": 27
    },
    {
      "midi": 79,
      "hit": false,
      "t": 110529.16666666695,
      "d": 58.33333333332848,
      "v": 30
    },
    {
      "midi": 67,
      "hit": false,
      "t": 110600.00000000028,
      "d": 104.16666666667152,
      "v": 44
    },
    {
      "midi": 79,
      "hit": false,
      "t": 110708.33333333362,
      "d": 70.83333333332848,
      "v": 36
    },
    {
      "midi": 67,
      "hit": false,
      "t": 110787.50000000028,
      "d": 91.66666666667152,
      "v": 35
    },
    {
      "midi": 79,
      "hit": false,
      "t": 110879.16666666695,
      "d": 83.33333333332848,
      "v": 34
    },
    {
      "midi": 67,
      "hit": false,
      "t": 110966.66666666695,
      "d": 95.83333333332848,
      "v": 33
    },
    {
      "midi": 79,
      "hit": false,
      "t": 111050.00000000028,
      "d": 83.33333333334303,
      "v": 31
    },
    {
      "midi": 62,
      "hit": false,
      "t": 111116.66666666695,
      "d": 37.5,
      "v": 68
    },
    {
      "midi": 58,
      "hit": false,
      "t": 111120.83333333362,
      "d": 66.66666666665697,
      "v": 46
    },
    {
      "midi": 57,
      "hit": false,
      "t": 111125.00000000029,
      "d": 29.166666666656965,
      "v": 51
    },
    {
      "midi": 67,
      "hit": false,
      "t": 111637.50000000028,
      "d": 162.50000000001455,
      "v": 59
    },
    {
      "midi": 79,
      "hit": false,
      "t": 111641.66666666695,
      "d": 129.16666666667152,
      "v": 46
    },
    {
      "midi": 81,
      "hit": false,
      "t": 111645.83333333362,
      "d": 62.5,
      "v": 60
    },
    {
      "midi": 62,
      "hit": false,
      "t": 111904.16666666696,
      "d": 37.5,
      "v": 66
    },
    {
      "midi": 58,
      "hit": false,
      "t": 111912.50000000029,
      "d": 54.16666666667152,
      "v": 46
    },
    {
      "midi": 78,
      "hit": false,
      "t": 111916.66666666696,
      "d": 133.33333333332848,
      "v": 56
    },
    {
      "midi": 66,
      "hit": false,
      "t": 111929.16666666696,
      "d": 112.5,
      "v": 69
    },
    {
      "midi": 78,
      "hit": false,
      "t": 112108.33333333362,
      "d": 95.83333333332848,
      "v": 35
    },
    {
      "midi": 66,
      "hit": false,
      "t": 112133.33333333362,
      "d": 87.5,
      "v": 58
    },
    {
      "midi": 67,
      "hit": false,
      "t": 112233.33333333362,
      "d": 79.16666666667152,
      "v": 57
    },
    {
      "midi": 79,
      "hit": false,
      "t": 112341.66666666696,
      "d": 70.83333333332848,
      "v": 41
    },
    {
      "midi": 67,
      "hit": false,
      "t": 112420.83333333362,
      "d": 83.33333333334303,
      "v": 51
    },
    {
      "midi": 79,
      "hit": false,
      "t": 112500.00000000029,
      "d": 108.33333333334303,
      "v": 30
    },
    {
      "midi": 67,
      "hit": false,
      "t": 112591.66666666696,
      "d": 112.5,
      "v": 50
    },
    {
      "midi": 79,
      "hit": false,
      "t": 112691.66666666696,
      "d": 95.83333333334303,
      "v": 37
    },
    {
      "midi": 62,
      "hit": false,
      "t": 112704.16666666696,
      "d": 50,
      "v": 64
    },
    {
      "midi": 57,
      "hit": false,
      "t": 112712.50000000029,
      "d": 25,
      "v": 60
    },
    {
      "midi": 58,
      "hit": false,
      "t": 112712.50000000029,
      "d": 58.333333333343035,
      "v": 53
    },
    {
      "midi": 60,
      "hit": false,
      "t": 112720.83333333362,
      "d": 29.166666666671517,
      "v": 50
    },
    {
      "midi": 67,
      "hit": false,
      "t": 112800.0000000003,
      "d": 91.66666666667152,
      "v": 40
    },
    {
      "midi": 79,
      "hit": false,
      "t": 112895.83333333365,
      "d": 79.16666666667152,
      "v": 35
    },
    {
      "midi": 67,
      "hit": false,
      "t": 112979.16666666699,
      "d": 95.83333333332848,
      "v": 41
    },
    {
      "midi": 79,
      "hit": false,
      "t": 113075.00000000032,
      "d": 95.83333333332848,
      "v": 40
    },
    {
      "midi": 67,
      "hit": false,
      "t": 113179.16666666698,
      "d": 91.66666666667152,
      "v": 44
    },
    {
      "midi": 79,
      "hit": false,
      "t": 113279.16666666698,
      "d": 54.16666666667152,
      "v": 22
    },
    {
      "midi": 67,
      "hit": false,
      "t": 113479.16666666698,
      "d": 450,
      "v": 65
    },
    {
      "midi": 58,
      "hit": false,
      "t": 113479.16666666698,
      "d": 1695.8333333333576,
      "v": 42
    },
    {
      "midi": 63,
      "hit": false,
      "t": 113487.5000000003,
      "d": 237.5,
      "v": 46
    },
    {
      "midi": 62,
      "hit": false,
      "t": 113487.5000000003,
      "d": 558.3333333333285,
      "v": 58
    },
    {
      "midi": 63,
      "hit": false,
      "t": 113825.0000000003,
      "d": 170.83333333332848,
      "v": 34
    },
    {
      "midi": 71,
      "hit": false,
      "t": 113850.0000000003,
      "d": 25,
      "v": 26
    },
    {
      "midi": 74,
      "hit": false,
      "t": 113937.5000000003,
      "d": 79.16666666665697,
      "v": 82
    },
    {
      "midi": 71,
      "hit": false,
      "t": 114045.83333333363,
      "d": 29.166666666671517,
      "v": 57
    },
    {
      "midi": 72,
      "hit": false,
      "t": 114154.16666666698,
      "d": 83.33333333334303,
      "v": 38
    },
    {
      "midi": 74,
      "hit": false,
      "t": 114233.33333333365,
      "d": 62.5,
      "v": 52
    },
    {
      "midi": 75,
      "hit": false,
      "t": 114325.00000000032,
      "d": 37.5,
      "v": 60
    },
    {
      "midi": 67,
      "hit": false,
      "t": 114391.66666666699,
      "d": 70.83333333332848,
      "v": 26
    },
    {
      "midi": 63,
      "hit": false,
      "t": 114400.00000000032,
      "d": 108.33333333332848,
      "v": 21
    },
    {
      "midi": 79,
      "hit": false,
      "t": 114433.33333333365,
      "d": 62.5,
      "v": 57
    },
    {
      "midi": 83,
      "hit": false,
      "t": 114529.16666666698,
      "d": 66.66666666667152,
      "v": 45
    },
    {
      "midi": 86,
      "hit": false,
      "t": 114637.50000000032,
      "d": 75,
      "v": 74
    },
    {
      "midi": 83,
      "hit": false,
      "t": 114733.33333333365,
      "d": 70.83333333332848,
      "v": 58
    },
    {
      "midi": 63,
      "hit": false,
      "t": 114770.83333333365,
      "d": 150,
      "v": 26
    },
    {
      "midi": 84,
      "hit": false,
      "t": 114816.66666666698,
      "d": 108.33333333334303,
      "v": 60
    },
    {
      "midi": 86,
      "hit": false,
      "t": 114929.16666666699,
      "d": 45.83333333332848,
      "v": 53
    },
    {
      "midi": 87,
      "hit": false,
      "t": 115000.00000000032,
      "d": 54.16666666667152,
      "v": 52
    },
    {
      "midi": 89,
      "hit": false,
      "t": 115108.33333333366,
      "d": 62.5,
      "v": 72
    },
    {
      "midi": 90,
      "hit": false,
      "t": 115220.83333333366,
      "d": 83.33333333332848,
      "v": 69
    },
    {
      "midi": 67,
      "hit": false,
      "t": 115270.83333333366,
      "d": 45.83333333332848,
      "v": 43
    },
    {
      "midi": 63,
      "hit": false,
      "t": 115279.16666666699,
      "d": 212.5,
      "v": 28
    },
    {
      "midi": 57,
      "hit": false,
      "t": 115279.16666666699,
      "d": 429.16666666668607,
      "v": 36
    },
    {
      "midi": 92,
      "hit": false,
      "t": 115333.33333333366,
      "d": 137.5,
      "v": 49
    },
    {
      "midi": 93,
      "hit": false,
      "t": 115545.83333333366,
      "d": 133.33333333334303,
      "v": 77
    },
    {
      "midi": 63,
      "hit": false,
      "t": 115558.33333333366,
      "d": 158.33333333334303,
      "v": 45
    },
    {
      "midi": 67,
      "hit": false,
      "t": 115562.50000000033,
      "d": 116.66666666667152,
      "v": 63
    },
    {
      "midi": 94,
      "hit": false,
      "t": 115733.33333333368,
      "d": 175,
      "v": 45
    },
    {
      "midi": 67,
      "hit": false,
      "t": 115962.50000000035,
      "d": 37.5,
      "v": 51
    },
    {
      "midi": 96,
      "hit": false,
      "t": 115962.50000000035,
      "d": 91.66666666665697,
      "v": 73
    },
    {
      "midi": 63,
      "hit": false,
      "t": 115962.50000000035,
      "d": 116.66666666665697,
      "v": 46
    },
    {
      "midi": 57,
      "hit": false,
      "t": 115966.66666666702,
      "d": 41.666666666656965,
      "v": 52
    },
    {
      "midi": 98,
      "hit": false,
      "t": 116108.33333333368,
      "d": 58.33333333332848,
      "v": 64
    },
    {
      "midi": 99,
      "hit": false,
      "t": 116233.33333333368,
      "d": 75,
      "v": 67
    },
    {
      "midi": 101,
      "hit": false,
      "t": 116350.00000000035,
      "d": 87.5,
      "v": 70
    },
    {
      "midi": 63,
      "hit": false,
      "t": 116370.83333333368,
      "d": 295.83333333334303,
      "v": 42
    },
    {
      "midi": 57,
      "hit": false,
      "t": 116383.33333333368,
      "d": 279.1666666666715,
      "v": 45
    },
    {
      "midi": 67,
      "hit": false,
      "t": 116391.666666667,
      "d": 41.66666666667152,
      "v": 29
    },
    {
      "midi": 97,
      "hit": false,
      "t": 116508.33333333368,
      "d": 75,
      "v": 56
    },
    {
      "midi": 98,
      "hit": false,
      "t": 116633.33333333368,
      "d": 87.50000000001455,
      "v": 60
    },
    {
      "midi": 65,
      "hit": false,
      "t": 116766.66666666702,
      "d": 150.00000000001455,
      "v": 65
    },
    {
      "midi": 62,
      "hit": false,
      "t": 116770.83333333369,
      "d": 166.66666666667152,
      "v": 66
    },
    {
      "midi": 60,
      "hit": false,
      "t": 116775.00000000036,
      "d": 150,
      "v": 60
    },
    {
      "midi": 93,
      "hit": false,
      "t": 116779.16666666704,
      "d": 116.66666666667152,
      "v": 50
    },
    {
      "midi": 96,
      "hit": false,
      "t": 116925.00000000036,
      "d": 70.83333333332848,
      "v": 65
    },
    {
      "midi": 62,
      "hit": false,
      "t": 117500.00000000036,
      "d": 41.66666666667152,
      "v": 55
    },
    {
      "midi": 65,
      "hit": false,
      "t": 117504.16666666704,
      "d": 25,
      "v": 53
    },
    {
      "midi": 60,
      "hit": false,
      "t": 117508.3333333337,
      "d": 37.5,
      "v": 51
    },
    {
      "midi": 93,
      "hit": false,
      "t": 117633.3333333337,
      "d": 66.66666666667152,
      "v": 89
    },
    {
      "midi": 94,
      "hit": false,
      "t": 117745.8333333337,
      "d": 70.83333333332848,
      "v": 67
    },
    {
      "midi": 62,
      "hit": false,
      "t": 117866.66666666704,
      "d": 79.16666666665697,
      "v": 52
    },
    {
      "midi": 65,
      "hit": false,
      "t": 117875.00000000036,
      "d": 33.33333333332848,
      "v": 40
    },
    {
      "midi": 60,
      "hit": false,
      "t": 117879.16666666704,
      "d": 87.49999999998545,
      "v": 43
    },
    {
      "midi": 88,
      "hit": false,
      "t": 117887.50000000036,
      "d": 87.49999999998545,
      "v": 76
    },
    {
      "midi": 89,
      "hit": false,
      "t": 118020.83333333368,
      "d": 54.16666666667152,
      "v": 60
    },
    {
      "midi": 85,
      "hit": false,
      "t": 118166.66666666702,
      "d": 91.66666666667152,
      "v": 75
    },
    {
      "midi": 65,
      "hit": false,
      "t": 118170.83333333369,
      "d": 37.5,
      "v": 48
    },
    {
      "midi": 62,
      "hit": false,
      "t": 118170.83333333369,
      "d": 70.83333333332848,
      "v": 53
    },
    {
      "midi": 60,
      "hit": false,
      "t": 118187.50000000036,
      "d": 58.33333333332848,
      "v": 36
    },
    {
      "midi": 86,
      "hit": false,
      "t": 118291.66666666702,
      "d": 54.16666666667152,
      "v": 62
    },
    {
      "midi": 61,
      "hit": false,
      "t": 118420.83333333369,
      "d": 70.83333333334303,
      "v": 54
    },
    {
      "midi": 65,
      "hit": false,
      "t": 118425.00000000036,
      "d": 29.166666666671517,
      "v": 60
    },
    {
      "midi": 55,
      "hit": false,
      "t": 118441.66666666704,
      "d": 33.33333333332848,
      "v": 39
    },
    {
      "midi": 60,
      "hit": false,
      "t": 119066.66666666704,
      "d": 33.33333333332848,
      "v": 71
    },
    {
      "midi": 65,
      "hit": false,
      "t": 119066.66666666704,
      "d": 37.5,
      "v": 76
    },
    {
      "midi": 61,
      "hit": false,
      "t": 119070.8333333337,
      "d": 75,
      "v": 54
    },
    {
      "midi": 58,
      "hit": false,
      "t": 119079.16666666704,
      "d": 37.5,
      "v": 37
    },
    {
      "midi": 84,
      "hit": false,
      "t": 119204.16666666704,
      "d": 45.83333333332848,
      "v": 84
    },
    {
      "midi": 85,
      "hit": false,
      "t": 119312.50000000036,
      "d": 54.16666666667152,
      "v": 67
    },
    {
      "midi": 65,
      "hit": false,
      "t": 119441.66666666704,
      "d": 41.666666666656965,
      "v": 60
    },
    {
      "midi": 80,
      "hit": false,
      "t": 119441.66666666704,
      "d": 83.33333333332848,
      "v": 74
    },
    {
      "midi": 61,
      "hit": false,
      "t": 119441.66666666704,
      "d": 108.33333333332848,
      "v": 40
    },
    {
      "midi": 60,
      "hit": false,
      "t": 119450.00000000036,
      "d": 58.33333333332848,
      "v": 34
    },
    {
      "midi": 81,
      "hit": false,
      "t": 119575.00000000036,
      "d": 70.83333333332848,
      "v": 64
    },
    {
      "midi": 76,
      "hit": false,
      "t": 119700.00000000036,
      "d": 125,
      "v": 58
    },
    {
      "midi": 61,
      "hit": false,
      "t": 119720.83333333369,
      "d": 158.33333333332848,
      "v": 39
    },
    {
      "midi": 55,
      "hit": false,
      "t": 119729.16666666702,
      "d": 141.66666666667152,
      "v": 47
    },
    {
      "midi": 65,
      "hit": false,
      "t": 119733.33333333369,
      "d": 100,
      "v": 32
    },
    {
      "midi": 65,
      "hit": false,
      "t": 120012.50000000035,
      "d": 179.16666666667152,
      "v": 64
    },
    {
      "midi": 54,
      "hit": false,
      "t": 120012.50000000035,
      "d": 187.50000000001455,
      "v": 60
    },
    {
      "midi": 60,
      "hit": false,
      "t": 120025.00000000035,
      "d": 162.5,
      "v": 50
    },
    {
      "midi": 58,
      "hit": false,
      "t": 120033.33333333368,
      "d": 162.50000000001455,
      "v": 32
    },
    {
      "midi": 65,
      "hit": false,
      "t": 120691.66666666704,
      "d": 141.66666666668607,
      "v": 68
    },
    {
      "midi": 85,
      "hit": false,
      "t": 120695.8333333337,
      "d": 133.33333333334303,
      "v": 77
    },
    {
      "midi": 54,
      "hit": false,
      "t": 120695.8333333337,
      "d": 154.16666666668607,
      "v": 56
    },
    {
      "midi": 58,
      "hit": false,
      "t": 120700.00000000038,
      "d": 266.66666666668607,
      "v": 44
    },
    {
      "midi": 60,
      "hit": false,
      "t": 120704.16666666705,
      "d": 187.50000000001455,
      "v": 50
    },
    {
      "midi": 86,
      "hit": false,
      "t": 120887.5000000004,
      "d": 145.83333333334303,
      "v": 64
    },
    {
      "midi": 81,
      "hit": false,
      "t": 121095.83333333374,
      "d": 104.16666666667152,
      "v": 71
    },
    {
      "midi": 54,
      "hit": false,
      "t": 121108.33333333374,
      "d": 95.83333333334303,
      "v": 53
    },
    {
      "midi": 60,
      "hit": false,
      "t": 121112.50000000041,
      "d": 137.5,
      "v": 54
    },
    {
      "midi": 65,
      "hit": false,
      "t": 121116.66666666708,
      "d": 37.5,
      "v": 46
    },
    {
      "midi": 78,
      "hit": false,
      "t": 121254.16666666708,
      "d": 170.83333333332848,
      "v": 42
    },
    {
      "midi": 77,
      "hit": false,
      "t": 121504.16666666708,
      "d": 104.16666666667152,
      "v": 49
    },
    {
      "midi": 64,
      "hit": false,
      "t": 121512.50000000041,
      "d": 45.833333333343035,
      "v": 50
    },
    {
      "midi": 59,
      "hit": false,
      "t": 121512.50000000041,
      "d": 104.16666666667152,
      "v": 57
    },
    {
      "midi": 53,
      "hit": false,
      "t": 121516.66666666708,
      "d": 141.66666666667152,
      "v": 44
    },
    {
      "midi": 75,
      "hit": false,
      "t": 121691.66666666708,
      "d": 170.83333333332848,
      "v": 28
    },
    {
      "midi": 77,
      "hit": false,
      "t": 121925.00000000041,
      "d": 54.166666666656965,
      "v": 62
    },
    {
      "midi": 52,
      "hit": false,
      "t": 121933.33333333374,
      "d": 41.666666666656965,
      "v": 41
    },
    {
      "midi": 50,
      "hit": false,
      "t": 121941.66666666706,
      "d": 58.33333333332848,
      "v": 47
    },
    {
      "midi": 50,
      "hit": false,
      "t": 122050.0000000004,
      "d": 91.66666666667152,
      "v": 30
    },
    {
      "midi": 73,
      "hit": false,
      "t": 122079.16666666706,
      "d": 58.33333333332848,
      "v": 56
    },
    {
      "midi": 74,
      "hit": false,
      "t": 122129.16666666706,
      "d": 133.33333333332848,
      "v": 51
    },
    {
      "midi": 50,
      "hit": false,
      "t": 122329.16666666706,
      "d": 37.5,
      "v": 32
    },
    {
      "midi": 70,
      "hit": false,
      "t": 122416.66666666706,
      "d": 62.5,
      "v": 67
    },
    {
      "midi": 71,
      "hit": false,
      "t": 122470.83333333374,
      "d": 154.16666666665697,
      "v": 46
    },
    {
      "midi": 50,
      "hit": false,
      "t": 122654.16666666706,
      "d": 41.66666666667152,
      "v": 55
    },
    {
      "midi": 67,
      "hit": false,
      "t": 122679.16666666706,
      "d": 112.5,
      "v": 68
    },
    {
      "midi": 64,
      "hit": false,
      "t": 122845.83333333374,
      "d": 137.5,
      "v": 25
    },
    {
      "midi": 67,
      "hit": false,
      "t": 123054.16666666706,
      "d": 425,
      "v": 71
    },
    {
      "midi": 57,
      "hit": false,
      "t": 123054.16666666706,
      "d": 829.1666666666715,
      "v": 42
    },
    {
      "midi": 58,
      "hit": false,
      "t": 123062.5000000004,
      "d": 420.83333333334303,
      "v": 46
    },
    {
      "midi": 62,
      "hit": false,
      "t": 123066.66666666706,
      "d": 391.6666666666715,
      "v": 58
    },
    {
      "midi": 62,
      "hit": false,
      "t": 123575.00000000041,
      "d": 245.83333333332848,
      "v": 31
    },
    {
      "midi": 58,
      "hit": false,
      "t": 123591.66666666708,
      "d": 204.16666666665697,
      "v": 25
    },
    {
      "midi": 67,
      "hit": false,
      "t": 123600.00000000041,
      "d": 270.8333333333285,
      "v": 55
    },
    {
      "midi": 62,
      "hit": false,
      "t": 123995.83333333374,
      "d": 66.66666666668607,
      "v": 48
    },
    {
      "midi": 70,
      "hit": false,
      "t": 124000.00000000041,
      "d": 187.5000000000291,
      "v": 60
    },
    {
      "midi": 57,
      "hit": false,
      "t": 124004.16666666708,
      "d": 104.16666666668607,
      "v": 30
    },
    {
      "midi": 58,
      "hit": false,
      "t": 124008.33333333375,
      "d": 70.83333333334303,
      "v": 32
    },
    {
      "midi": 67,
      "hit": false,
      "t": 124387.50000000044,
      "d": 79.16666666667152,
      "v": 63
    },
    {
      "midi": 62,
      "hit": false,
      "t": 124400.00000000044,
      "d": 79.16666666667152,
      "v": 57
    },
    {
      "midi": 58,
      "hit": false,
      "t": 124412.50000000044,
      "d": 58.333333333343035,
      "v": 31
    },
    {
      "midi": 57,
      "hit": false,
      "t": 124416.66666666711,
      "d": 33.33333333332848,
      "v": 27
    },
    {
      "midi": 78,
      "hit": false,
      "t": 124804.16666666711,
      "d": 83.33333333334303,
      "v": 47
    },
    {
      "midi": 86,
      "hit": false,
      "t": 124808.33333333378,
      "d": 170.83333333334303,
      "v": 77
    },
    {
      "midi": 74,
      "hit": false,
      "t": 124812.50000000045,
      "d": 150,
      "v": 76
    },
    {
      "midi": 58,
      "hit": false,
      "t": 124812.50000000045,
      "d": 175,
      "v": 57
    },
    {
      "midi": 67,
      "hit": false,
      "t": 124816.66666666712,
      "d": 162.5,
      "v": 68
    },
    {
      "midi": 79,
      "hit": false,
      "t": 124816.66666666712,
      "d": 170.83333333332848,
      "v": 60
    },
    {
      "midi": 63,
      "hit": false,
      "t": 124816.66666666712,
      "d": 179.16666666667152,
      "v": 48
    },
    {
      "midi": 82,
      "hit": false,
      "t": 124816.66666666712,
      "d": 191.66666666667152,
      "v": 48
    },
    {
      "midi": 62,
      "hit": false,
      "t": 124820.8333333338,
      "d": 170.83333333332848,
      "v": 60
    },
    {
      "midi": 84,
      "hit": false,
      "t": 125091.66666666712,
      "d": 25,
      "v": 54
    },
    {
      "midi": 67,
      "hit": false,
      "t": 125104.16666666712,
      "d": 29.166666666671517,
      "v": 45
    },
    {
      "midi": 62,
      "hit": false,
      "t": 125104.16666666712,
      "d": 33.333333333343035,
      "v": 48
    },
    {
      "midi": 63,
      "hit": false,
      "t": 125104.16666666712,
      "d": 41.66666666667152,
      "v": 37
    },
    {
      "midi": 58,
      "hit": false,
      "t": 125116.66666666712,
      "d": 29.166666666671517,
      "v": 23
    },
    {
      "midi": 82,
      "hit": false,
      "t": 125116.66666666712,
      "d": 37.50000000001455,
      "v": 31
    },
    {
      "midi": 79,
      "hit": false,
      "t": 125120.8333333338,
      "d": 33.333333333343035,
      "v": 37
    },
    {
      "midi": 58,
      "hit": false,
      "t": 125216.66666666714,
      "d": 116.66666666668607,
      "v": 48
    },
    {
      "midi": 79,
      "hit": false,
      "t": 125220.83333333381,
      "d": 33.333333333343035,
      "v": 41
    },
    {
      "midi": 82,
      "hit": false,
      "t": 125220.83333333381,
      "d": 58.333333333343035,
      "v": 39
    },
    {
      "midi": 67,
      "hit": false,
      "t": 125225.00000000048,
      "d": 58.333333333343035,
      "v": 57
    },
    {
      "midi": 74,
      "hit": false,
      "t": 125229.16666666715,
      "d": 33.33333333332848,
      "v": 51
    },
    {
      "midi": 62,
      "hit": false,
      "t": 125229.16666666715,
      "d": 37.5,
      "v": 42
    },
    {
      "midi": 86,
      "hit": false,
      "t": 125229.16666666715,
      "d": 66.66666666667152,
      "v": 60
    },
    {
      "midi": 63,
      "hit": false,
      "t": 125233.33333333382,
      "d": 70.83333333332848,
      "v": 33
    },
    {
      "midi": 89,
      "hit": false,
      "t": 125483.33333333382,
      "d": 25.000000000014552,
      "v": 74
    },
    {
      "midi": 77,
      "hit": false,
      "t": 125483.33333333382,
      "d": 41.66666666668607,
      "v": 70
    },
    {
      "midi": 84,
      "hit": false,
      "t": 125487.5000000005,
      "d": 29.166666666671517,
      "v": 73
    },
    {
      "midi": 63,
      "hit": false,
      "t": 125487.5000000005,
      "d": 83.33333333334303,
      "v": 55
    },
    {
      "midi": 67,
      "hit": false,
      "t": 125491.66666666717,
      "d": 29.166666666671517,
      "v": 69
    },
    {
      "midi": 57,
      "hit": false,
      "t": 125495.83333333384,
      "d": 66.66666666667152,
      "v": 48
    },
    {
      "midi": 57,
      "hit": false,
      "t": 125754.16666666717,
      "d": 100,
      "v": 71
    },
    {
      "midi": 63,
      "hit": false,
      "t": 125754.16666666717,
      "d": 158.33333333332848,
      "v": 69
    },
    {
      "midi": 67,
      "hit": false,
      "t": 125762.5000000005,
      "d": 29.166666666671517,
      "v": 66
    },
    {
      "midi": 72,
      "hit": false,
      "t": 125775.0000000005,
      "d": 29.166666666671517,
      "v": 57
    },
    {
      "midi": 84,
      "hit": false,
      "t": 125775.0000000005,
      "d": 29.166666666671517,
      "v": 62
    },
    {
      "midi": 74,
      "hit": false,
      "t": 125775.0000000005,
      "d": 33.333333333343035,
      "v": 57
    },
    {
      "midi": 86,
      "hit": false,
      "t": 125775.0000000005,
      "d": 45.833333333343035,
      "v": 52
    },
    {
      "midi": 66,
      "hit": false,
      "t": 126000.0000000005,
      "d": 150.00000000001455,
      "v": 69
    },
    {
      "midi": 56,
      "hit": false,
      "t": 126004.16666666717,
      "d": 166.66666666667152,
      "v": 60
    },
    {
      "midi": 63,
      "hit": false,
      "t": 126008.33333333384,
      "d": 195.83333333332848,
      "v": 51
    },
    {
      "midi": 61,
      "hit": false,
      "t": 126012.50000000051,
      "d": 199.99999999998545,
      "v": 42
    },
    {
      "midi": 65,
      "hit": false,
      "t": 126250.0000000005,
      "d": 420.83333333334303,
      "v": 68
    },
    {
      "midi": 72,
      "hit": false,
      "t": 126258.33333333382,
      "d": 416.66666666668607,
      "v": 73
    },
    {
      "midi": 62,
      "hit": false,
      "t": 126258.33333333382,
      "d": 450.0000000000291,
      "v": 55
    },
    {
      "midi": 84,
      "hit": false,
      "t": 126262.5000000005,
      "d": 370.83333333334303,
      "v": 84
    },
    {
      "midi": 55,
      "hit": false,
      "t": 126266.66666666717,
      "d": 433.33333333334303,
      "v": 57
    },
    {
      "midi": 60,
      "hit": false,
      "t": 126266.66666666717,
      "d": 437.50000000001455,
      "v": 50
    },
    {
      "midi": 65,
      "hit": false,
      "t": 126783.33333333385,
      "d": 175.00000000001455,
      "v": 39
    },
    {
      "midi": 69,
      "hit": false,
      "t": 126787.50000000052,
      "d": 187.50000000001455,
      "v": 51
    },
    {
      "midi": 81,
      "hit": false,
      "t": 126791.6666666672,
      "d": 183.33333333334303,
      "v": 53
    },
    {
      "midi": 62,
      "hit": false,
      "t": 126791.6666666672,
      "d": 200.00000000001455,
      "v": 40
    },
    {
      "midi": 55,
      "hit": false,
      "t": 126795.83333333387,
      "d": 183.33333333334303,
      "v": 17
    },
    {
      "midi": 60,
      "hit": false,
      "t": 126800.00000000054,
      "d": 183.33333333334303,
      "v": 37
    },
    {
      "midi": 81,
      "hit": false,
      "t": 127066.66666666721,
      "d": 233.33333333332848,
      "v": 74
    },
    {
      "midi": 62,
      "hit": false,
      "t": 127066.66666666721,
      "d": 275,
      "v": 52
    },
    {
      "midi": 65,
      "hit": false,
      "t": 127070.83333333388,
      "d": 241.66666666665697,
      "v": 64
    },
    {
      "midi": 69,
      "hit": false,
      "t": 127070.83333333388,
      "d": 283.3333333333285,
      "v": 71
    },
    {
      "midi": 60,
      "hit": false,
      "t": 127079.16666666721,
      "d": 250,
      "v": 48
    },
    {
      "midi": 55,
      "hit": false,
      "t": 127079.16666666721,
      "d": 262.5,
      "v": 48
    },
    {
      "midi": 62,
      "hit": false,
      "t": 127470.83333333388,
      "d": 29.166666666671517,
      "v": 33
    },
    {
      "midi": 62,
      "hit": false,
      "t": 127587.50000000055,
      "d": 187.5,
      "v": 51
    },
    {
      "midi": 77,
      "hit": false,
      "t": 127591.66666666722,
      "d": 166.66666666665697,
      "v": 57
    },
    {
      "midi": 60,
      "hit": false,
      "t": 127600.00000000055,
      "d": 162.5,
      "v": 39
    },
    {
      "midi": 72,
      "hit": false,
      "t": 127600.00000000055,
      "d": 166.66666666667152,
      "v": 51
    },
    {
      "midi": 55,
      "hit": false,
      "t": 127608.33333333388,
      "d": 129.16666666667152,
      "v": 55
    },
    {
      "midi": 65,
      "hit": false,
      "t": 127612.50000000055,
      "d": 145.83333333332848,
      "v": 19
    },
    {
      "midi": 65,
      "hit": false,
      "t": 127866.66666666722,
      "d": 429.16666666665697,
      "v": 64
    },
    {
      "midi": 62,
      "hit": false,
      "t": 127866.66666666722,
      "d": 437.5,
      "v": 57
    },
    {
      "midi": 72,
      "hit": false,
      "t": 127870.8333333339,
      "d": 437.5,
      "v": 67
    },
    {
      "midi": 77,
      "hit": false,
      "t": 127870.8333333339,
      "d": 516.6666666666715,
      "v": 66
    },
    {
      "midi": 55,
      "hit": false,
      "t": 127879.16666666722,
      "d": 404.16666666665697,
      "v": 58
    },
    {
      "midi": 60,
      "hit": false,
      "t": 127879.16666666722,
      "d": 420.8333333333285,
      "v": 58
    },
    {
      "midi": 62,
      "hit": false,
      "t": 128425.00000000057,
      "d": 75,
      "v": 48
    },
    {
      "midi": 60,
      "hit": false,
      "t": 128437.50000000057,
      "d": 45.83333333332848,
      "v": 34
    },
    {
      "midi": 55,
      "hit": false,
      "t": 128437.50000000057,
      "d": 70.83333333332848,
      "v": 40
    },
    {
      "midi": 62,
      "hit": false,
      "t": 128679.16666666722,
      "d": 495.8333333333285,
      "v": 72
    },
    {
      "midi": 60,
      "hit": false,
      "t": 128691.66666666722,
      "d": 483.3333333333285,
      "v": 63
    },
    {
      "midi": 55,
      "hit": false,
      "t": 128691.66666666722,
      "d": 550,
      "v": 68
    },
    {
      "midi": 67,
      "hit": false,
      "t": 129095.8333333339,
      "d": 33.33333333332848,
      "v": 51
    },
    {
      "midi": 72,
      "hit": false,
      "t": 129225.00000000055,
      "d": 220.83333333334303,
      "v": 54
    },
    {
      "midi": 60,
      "hit": false,
      "t": 129462.50000000057,
      "d": 933.333333333343,
      "v": 52
    },
    {
      "midi": 63,
      "hit": false,
      "t": 129466.66666666724,
      "d": 220.83333333332848,
      "v": 56
    },
    {
      "midi": 55,
      "hit": false,
      "t": 129479.16666666724,
      "d": 887.5,
      "v": 34
    },
    {
      "midi": 75,
      "hit": false,
      "t": 129483.33333333391,
      "d": 208.33333333332848,
      "v": 74
    },
    {
      "midi": 57,
      "hit": false,
      "t": 129491.66666666724,
      "d": 595.8333333333285,
      "v": 35
    },
    {
      "midi": 62,
      "hit": false,
      "t": 129766.66666666724,
      "d": 112.5,
      "v": 76
    },
    {
      "midi": 66,
      "hit": false,
      "t": 130029.16666666724,
      "d": 220.83333333332848,
      "v": 90
    },
    {
      "midi": 72,
      "hit": false,
      "t": 130300.00000000057,
      "d": 220.83333333334303,
      "v": 72
    },
    {
      "midi": 65,
      "hit": false,
      "t": 130541.66666666724,
      "d": 216.66666666667152,
      "v": 64
    },
    {
      "midi": 58,
      "hit": false,
      "t": 130541.66666666724,
      "d": 237.5,
      "v": 52
    },
    {
      "midi": 54,
      "hit": false,
      "t": 130545.83333333391,
      "d": 220.83333333332848,
      "v": 52
    },
    {
      "midi": 60,
      "hit": false,
      "t": 130545.83333333391,
      "d": 233.33333333332848,
      "v": 57
    },
    {
      "midi": 65,
      "hit": false,
      "t": 130833.33333333391,
      "d": 104.16666666667152,
      "v": 59
    },
    {
      "midi": 54,
      "hit": false,
      "t": 130833.33333333391,
      "d": 216.66666666667152,
      "v": 56
    },
    {
      "midi": 58,
      "hit": false,
      "t": 130841.66666666724,
      "d": 183.33333333334303,
      "v": 44
    },
    {
      "midi": 60,
      "hit": false,
      "t": 130845.83333333391,
      "d": 112.5,
      "v": 65
    },
    {
      "midi": 58,
      "hit": false,
      "t": 131091.66666666724,
      "d": 599.9999999999418,
      "v": 40
    },
    {
      "midi": 62,
      "hit": false,
      "t": 131100.00000000058,
      "d": 549.9999999999418,
      "v": 64
    },
    {
      "midi": 57,
      "hit": false,
      "t": 131104.16666666724,
      "d": 537.4999999999709,
      "v": 60
    },
    {
      "midi": 55,
      "hit": false,
      "t": 131112.50000000055,
      "d": 1299.9999999999418,
      "v": 54
    },
    {
      "midi": 72,
      "hit": false,
      "t": 131491.6666666672,
      "d": 91.66666666665697,
      "v": 91
    },
    {
      "midi": 69,
      "hit": false,
      "t": 131645.83333333387,
      "d": 266.66666666662786,
      "v": 38
    },
    {
      "midi": 70,
      "hit": false,
      "t": 131887.50000000052,
      "d": 70.83333333331393,
      "v": 55
    },
    {
      "midi": 62,
      "hit": false,
      "t": 131891.66666666718,
      "d": 41.666666666656965,
      "v": 53
    },
    {
      "midi": 58,
      "hit": false,
      "t": 131891.66666666718,
      "d": 104.16666666665697,
      "v": 34
    },
    {
      "midi": 57,
      "hit": false,
      "t": 131895.83333333384,
      "d": 66.66666666665697,
      "v": 37
    },
    {
      "midi": 74,
      "hit": false,
      "t": 132033.33333333384,
      "d": 150,
      "v": 47
    },
    {
      "midi": 58,
      "hit": false,
      "t": 132287.5000000005,
      "d": 158.33333333334303,
      "v": 36
    },
    {
      "midi": 81,
      "hit": false,
      "t": 132291.66666666715,
      "d": 33.333333333343035,
      "v": 57
    },
    {
      "midi": 62,
      "hit": false,
      "t": 132304.16666666715,
      "d": 158.33333333334303,
      "v": 37
    },
    {
      "midi": 57,
      "hit": false,
      "t": 132312.5000000005,
      "d": 75,
      "v": 24
    },
    {
      "midi": 84,
      "hit": false,
      "t": 132408.33333333384,
      "d": 187.5,
      "v": 90
    },
    {
      "midi": 81,
      "hit": false,
      "t": 132666.66666666718,
      "d": 83.33333333331393,
      "v": 71
    },
    {
      "midi": 60,
      "hit": false,
      "t": 132691.66666666718,
      "d": 208.33333333334303,
      "v": 32
    },
    {
      "midi": 55,
      "hit": false,
      "t": 132695.83333333384,
      "d": 158.33333333334303,
      "v": 30
    },
    {
      "midi": 63,
      "hit": false,
      "t": 132700.0000000005,
      "d": 45.833333333343035,
      "v": 32
    },
    {
      "midi": 75,
      "hit": false,
      "t": 132808.33333333384,
      "d": 158.33333333334303,
      "v": 54
    },
    {
      "midi": 75,
      "hit": false,
      "t": 133066.66666666718,
      "d": 274.9999999999709,
      "v": 71
    },
    {
      "midi": 55,
      "hit": false,
      "t": 133070.83333333384,
      "d": 266.66666666665697,
      "v": 50
    },
    {
      "midi": 63,
      "hit": false,
      "t": 133075.0000000005,
      "d": 258.33333333334303,
      "v": 58
    },
    {
      "midi": 60,
      "hit": false,
      "t": 133083.33333333384,
      "d": 312.4999999999709,
      "v": 43
    },
    {
      "midi": 62,
      "hit": false,
      "t": 133579.16666666715,
      "d": 204.16666666665697,
      "v": 65
    },
    {
      "midi": 54,
      "hit": false,
      "t": 133591.66666666715,
      "d": 191.66666666665697,
      "v": 49
    },
    {
      "midi": 60,
      "hit": false,
      "t": 133595.8333333338,
      "d": 191.66666666665697,
      "v": 50
    },
    {
      "midi": 54,
      "hit": false,
      "t": 133850.00000000047,
      "d": 141.66666666665697,
      "v": 48
    },
    {
      "midi": 60,
      "hit": false,
      "t": 133850.00000000047,
      "d": 158.33333333331393,
      "v": 62
    },
    {
      "midi": 67,
      "hit": false,
      "t": 133854.16666666712,
      "d": 175,
      "v": 82
    },
    {
      "midi": 72,
      "hit": false,
      "t": 134141.66666666712,
      "d": 183.33333333334303,
      "v": 85
    },
    {
      "midi": 54,
      "hit": false,
      "t": 134158.33333333378,
      "d": 216.66666666668607,
      "v": 60
    },
    {
      "midi": 60,
      "hit": false,
      "t": 134166.66666666712,
      "d": 145.83333333334303,
      "v": 55
    },
    {
      "midi": 77,
      "hit": false,
      "t": 134429.16666666715,
      "d": 208.33333333334303,
      "v": 90
    },
    {
      "midi": 82,
      "hit": false,
      "t": 134700.0000000005,
      "d": 141.66666666665697,
      "v": 81
    },
    {
      "midi": 87,
      "hit": false,
      "t": 134937.5000000005,
      "d": 162.4999999999709,
      "v": 74
    },
    {
      "midi": 63,
      "hit": false,
      "t": 135487.50000000047,
      "d": 33.33333333331393,
      "v": 57
    },
    {
      "midi": 58,
      "hit": false,
      "t": 135504.16666666712,
      "d": 37.5,
      "v": 37
    },
    {
      "midi": 93,
      "hit": false,
      "t": 135645.83333333378,
      "d": 41.666666666656965,
      "v": 41
    },
    {
      "midi": 94,
      "hit": false,
      "t": 135770.83333333378,
      "d": 54.166666666656965,
      "v": 55
    },
    {
      "midi": 95,
      "hit": false,
      "t": 135887.50000000044,
      "d": 116.66666666668607,
      "v": 90
    },
    {
      "midi": 63,
      "hit": false,
      "t": 135900.00000000044,
      "d": 283.33333333337214,
      "v": 60
    },
    {
      "midi": 60,
      "hit": false,
      "t": 135900.00000000044,
      "d": 304.1666666667152,
      "v": 50
    },
    {
      "midi": 57,
      "hit": false,
      "t": 135912.50000000044,
      "d": 500.0000000000291,
      "v": 51
    },
    {
      "midi": 55,
      "hit": false,
      "t": 135920.83333333378,
      "d": 575,
      "v": 57
    },
    {
      "midi": 96,
      "hit": false,
      "t": 136062.50000000047,
      "d": 95.83333333334303,
      "v": 66
    },
    {
      "midi": 84,
      "hit": false,
      "t": 136295.8333333338,
      "d": 79.16666666665697,
      "v": 64
    },
    {
      "midi": 63,
      "hit": false,
      "t": 136308.3333333338,
      "d": 70.83333333331393,
      "v": 53
    },
    {
      "midi": 84,
      "hit": false,
      "t": 136466.66666666712,
      "d": 133.33333333331393,
      "v": 43
    },
    {
      "midi": 65,
      "hit": false,
      "t": 136700.00000000044,
      "d": 29.166666666656965,
      "v": 55
    },
    {
      "midi": 84,
      "hit": false,
      "t": 136704.1666666671,
      "d": 41.666666666656965,
      "v": 64
    },
    {
      "midi": 60,
      "hit": false,
      "t": 136712.50000000044,
      "d": 95.83333333331393,
      "v": 43
    },
    {
      "midi": 54,
      "hit": false,
      "t": 136716.6666666671,
      "d": 66.66666666665697,
      "v": 27
    },
    {
      "midi": 58,
      "hit": false,
      "t": 136729.1666666671,
      "d": 145.83333333331393,
      "v": 20
    },
    {
      "midi": 86,
      "hit": false,
      "t": 136904.16666666706,
      "d": 37.5,
      "v": 36
    },
    {
      "midi": 87,
      "hit": false,
      "t": 136962.5000000004,
      "d": 95.83333333331393,
      "v": 63
    },
    {
      "midi": 86,
      "hit": false,
      "t": 137029.16666666706,
      "d": 83.33333333331393,
      "v": 55
    },
    {
      "midi": 84,
      "hit": false,
      "t": 137112.50000000038,
      "d": 83.33333333334303,
      "v": 74
    },
    {
      "midi": 54,
      "hit": false,
      "t": 137212.50000000038,
      "d": 220.83333333331393,
      "v": 37
    },
    {
      "midi": 65,
      "hit": false,
      "t": 137216.66666666704,
      "d": 50,
      "v": 29
    },
    {
      "midi": 58,
      "hit": false,
      "t": 137233.3333333337,
      "d": 183.33333333334303,
      "v": 30
    },
    {
      "midi": 60,
      "hit": false,
      "t": 137241.66666666704,
      "d": 41.666666666656965,
      "v": 26
    },
    {
      "midi": 82,
      "hit": false,
      "t": 137266.66666666704,
      "d": 162.5,
      "v": 49
    },
    {
      "midi": 58,
      "hit": false,
      "t": 137487.50000000035,
      "d": 233.33333333331393,
      "v": 32
    },
    {
      "midi": 81,
      "hit": false,
      "t": 137491.666666667,
      "d": 87.5,
      "v": 64
    },
    {
      "midi": 57,
      "hit": false,
      "t": 137491.666666667,
      "d": 233.33333333331393,
      "v": 45
    },
    {
      "midi": 62,
      "hit": false,
      "t": 137504.166666667,
      "d": 175,
      "v": 34
    },
    {
      "midi": 55,
      "hit": false,
      "t": 137537.50000000035,
      "d": 566.6666666665988,
      "v": 24
    },
    {
      "midi": 84,
      "hit": false,
      "t": 137641.666666667,
      "d": 75,
      "v": 78
    },
    {
      "midi": 78,
      "hit": false,
      "t": 137787.50000000032,
      "d": 29.166666666656965,
      "v": 40
    },
    {
      "midi": 81,
      "hit": false,
      "t": 137887.50000000032,
      "d": 112.4999999999709,
      "v": 76
    },
    {
      "midi": 62,
      "hit": false,
      "t": 137929.16666666698,
      "d": 45.83333333331393,
      "v": 47
    },
    {
      "midi": 58,
      "hit": false,
      "t": 137945.83333333363,
      "d": 70.83333333331393,
      "v": 29
    },
    {
      "midi": 78,
      "hit": false,
      "t": 138033.3333333336,
      "d": 37.5,
      "v": 39
    },
    {
      "midi": 79,
      "hit": false,
      "t": 138145.8333333336,
      "d": 91.66666666665697,
      "v": 74
    },
    {
      "midi": 74,
      "hit": false,
      "t": 138275.00000000026,
      "d": 62.5,
      "v": 65
    },
    {
      "midi": 72,
      "hit": false,
      "t": 138412.50000000026,
      "d": 175,
      "v": 60
    },
    {
      "midi": 70,
      "hit": false,
      "t": 138683.3333333336,
      "d": 62.500000000029104,
      "v": 62
    },
    {
      "midi": 62,
      "hit": false,
      "t": 138704.16666666695,
      "d": 41.66666666668607,
      "v": 40
    },
    {
      "midi": 58,
      "hit": false,
      "t": 138708.3333333336,
      "d": 91.66666666668607,
      "v": 27
    },
    {
      "midi": 57,
      "hit": false,
      "t": 138716.66666666695,
      "d": 83.33333333334303,
      "v": 35
    },
    {
      "midi": 55,
      "hit": false,
      "t": 138737.5000000003,
      "d": 183.33333333334303,
      "v": 25
    },
    {
      "midi": 69,
      "hit": false,
      "t": 138837.5000000003,
      "d": 33.333333333343035,
      "v": 48
    },
    {
      "midi": 70,
      "hit": false,
      "t": 138950.0000000003,
      "d": 58.333333333343035,
      "v": 54
    },
    {
      "midi": 72,
      "hit": false,
      "t": 139095.83333333363,
      "d": 45.833333333343035,
      "v": 33
    },
    {
      "midi": 68,
      "hit": false,
      "t": 139225.00000000032,
      "d": 187.5,
      "v": 49
    },
    {
      "midi": 66,
      "hit": false,
      "t": 139629.16666666698,
      "d": 75,
      "v": 67
    },
    {
      "midi": 67,
      "hit": false,
      "t": 139750.00000000032,
      "d": 79.16666666665697,
      "v": 64
    },
    {
      "midi": 64,
      "hit": false,
      "t": 140004.16666666698,
      "d": 70.83333333334303,
      "v": 71
    },
    {
      "midi": 65,
      "hit": false,
      "t": 140133.33333333366,
      "d": 58.333333333343035,
      "v": 58
    },
    {
      "midi": 63,
      "hit": false,
      "t": 140279.166666667,
      "d": 83.33333333334303,
      "v": 80
    },
    {
      "midi": 64,
      "hit": false,
      "t": 140408.3333333337,
      "d": 37.5,
      "v": 44
    },
    {
      "midi": 62,
      "hit": false,
      "t": 140570.8333333337,
      "d": 91.66666666665697,
      "v": 60
    },
    {
      "midi": 64,
      "hit": false,
      "t": 140579.16666666704,
      "d": 29.166666666656965,
      "v": 64
    },
    {
      "midi": 63,
      "hit": false,
      "t": 140704.166666667,
      "d": 79.16666666665697,
      "v": 56
    },
    {
      "midi": 57,
      "hit": false,
      "t": 141070.83333333366,
      "d": 29.166666666656965,
      "v": 48
    },
    {
      "midi": 51,
      "hit": false,
      "t": 141075.00000000032,
      "d": 62.5,
      "v": 39
    },
    {
      "midi": 60,
      "hit": false,
      "t": 141216.66666666698,
      "d": 54.166666666656965,
      "v": 65
    },
    {
      "midi": 61,
      "hit": false,
      "t": 141329.16666666698,
      "d": 83.33333333334303,
      "v": 45
    },
    {
      "midi": 51,
      "hit": false,
      "t": 141445.83333333366,
      "d": 62.5,
      "v": 37
    },
    {
      "midi": 58,
      "hit": false,
      "t": 141591.666666667,
      "d": 66.66666666665697,
      "v": 69
    },
    {
      "midi": 59,
      "hit": false,
      "t": 141720.83333333366,
      "d": 62.5,
      "v": 56
    },
    {
      "midi": 51,
      "hit": false,
      "t": 141841.666666667,
      "d": 79.16666666665697,
      "v": 48
    },
    {
      "midi": 57,
      "hit": false,
      "t": 142016.666666667,
      "d": 41.666666666656965,
      "v": 39
    },
    {
      "midi": 58,
      "hit": false,
      "t": 142137.50000000032,
      "d": 50,
      "v": 42
    },
    {
      "midi": 59,
      "hit": false,
      "t": 142241.66666666698,
      "d": 75,
      "v": 63
    },
    {
      "midi": 60,
      "hit": false,
      "t": 142354.16666666698,
      "d": 87.5,
      "v": 73
    },
    {
      "midi": 57,
      "hit": false,
      "t": 142487.50000000032,
      "d": 108.33333333334303,
      "v": 40
    },
    {
      "midi": 53,
      "hit": false,
      "t": 142662.50000000032,
      "d": 45.833333333343035,
      "v": 40
    },
    {
      "midi": 53,
      "hit": false,
      "t": 143225.00000000032,
      "d": 50,
      "v": 48
    },
    {
      "midi": 57,
      "hit": false,
      "t": 143341.66666666698,
      "d": 91.66666666665697,
      "v": 57
    },
    {
      "midi": 58,
      "hit": false,
      "t": 143462.5000000003,
      "d": 29.166666666656965,
      "v": 46
    },
    {
      "midi": 57,
      "hit": false,
      "t": 143812.5000000003,
      "d": 70.83333333334303,
      "v": 63
    },
    {
      "midi": 58,
      "hit": false,
      "t": 143912.5000000003,
      "d": 54.166666666656965,
      "v": 62
    },
    {
      "midi": 62,
      "hit": false,
      "t": 144033.3333333336,
      "d": 58.333333333343035,
      "v": 55
    },
    {
      "midi": 65,
      "hit": false,
      "t": 144133.3333333336,
      "d": 104.16666666665697,
      "v": 49
    },
    {
      "midi": 69,
      "hit": false,
      "t": 144245.8333333336,
      "d": 83.33333333334303,
      "v": 58
    },
    {
      "midi": 70,
      "hit": false,
      "t": 144333.3333333336,
      "d": 45.833333333343035,
      "v": 64
    },
    {
      "midi": 62,
      "hit": false,
      "t": 144412.5000000003,
      "d": 75,
      "v": 22
    },
    {
      "midi": 74,
      "hit": false,
      "t": 144441.66666666695,
      "d": 58.333333333343035,
      "v": 72
    },
    {
      "midi": 77,
      "hit": false,
      "t": 144541.66666666695,
      "d": 83.33333333334303,
      "v": 51
    },
    {
      "midi": 81,
      "hit": false,
      "t": 144637.5000000003,
      "d": 70.83333333334303,
      "v": 42
    },
    {
      "midi": 82,
      "hit": false,
      "t": 144741.66666666698,
      "d": 83.33333333334303,
      "v": 52
    },
    {
      "midi": 62,
      "hit": false,
      "t": 144833.33333333366,
      "d": 83.33333333334303,
      "v": 27
    },
    {
      "midi": 65,
      "hit": false,
      "t": 144837.50000000032,
      "d": 54.16666666668607,
      "v": 32
    },
    {
      "midi": 81,
      "hit": false,
      "t": 144841.66666666698,
      "d": 87.5000000000291,
      "v": 61
    },
    {
      "midi": 60,
      "hit": false,
      "t": 144850.00000000032,
      "d": 66.66666666668607,
      "v": 30
    },
    {
      "midi": 55,
      "hit": false,
      "t": 144870.83333333366,
      "d": 41.66666666668607,
      "v": 28
    },
    {
      "midi": 77,
      "hit": false,
      "t": 144966.666666667,
      "d": 66.66666666665697,
      "v": 58
    },
    {
      "midi": 74,
      "hit": false,
      "t": 145054.166666667,
      "d": 37.5,
      "v": 55
    },
    {
      "midi": 65,
      "hit": false,
      "t": 145245.83333333366,
      "d": 41.66666666668607,
      "v": 37
    },
    {
      "midi": 62,
      "hit": false,
      "t": 145254.166666667,
      "d": 33.333333333343035,
      "v": 30
    },
    {
      "midi": 60,
      "hit": false,
      "t": 145254.166666667,
      "d": 41.66666666668607,
      "v": 36
    },
    {
      "midi": 60,
      "hit": false,
      "t": 145500.00000000035,
      "d": 270.83333333331393,
      "v": 72
    },
    {
      "midi": 61,
      "hit": false,
      "t": 145504.166666667,
      "d": 262.5,
      "v": 55
    },
    {
      "midi": 65,
      "hit": false,
      "t": 145508.33333333366,
      "d": 233.33333333334303,
      "v": 74
    },
    {
      "midi": 55,
      "hit": false,
      "t": 145520.83333333366,
      "d": 208.33333333334303,
      "v": 63
    },
    {
      "midi": 84,
      "hit": false,
      "t": 145887.50000000032,
      "d": 50,
      "v": 78
    },
    {
      "midi": 96,
      "hit": false,
      "t": 145887.50000000032,
      "d": 50,
      "v": 80
    },
    {
      "midi": 60,
      "hit": false,
      "t": 145895.83333333366,
      "d": 58.33333333331393,
      "v": 71
    },
    {
      "midi": 61,
      "hit": false,
      "t": 145895.83333333366,
      "d": 62.499999999970896,
      "v": 56
    },
    {
      "midi": 65,
      "hit": false,
      "t": 145900.00000000032,
      "d": 29.166666666656965,
      "v": 62
    },
    {
      "midi": 60,
      "hit": false,
      "t": 146033.33333333363,
      "d": 45.83333333331393,
      "v": 47
    },
    {
      "midi": 61,
      "hit": false,
      "t": 146041.66666666698,
      "d": 49.999999999970896,
      "v": 43
    },
    {
      "midi": 65,
      "hit": false,
      "t": 146045.83333333363,
      "d": 29.166666666656965,
      "v": 53
    },
    {
      "midi": 81,
      "hit": false,
      "t": 146050.0000000003,
      "d": 29.166666666656965,
      "v": 49
    },
    {
      "midi": 93,
      "hit": false,
      "t": 146050.0000000003,
      "d": 45.83333333331393,
      "v": 49
    },
    {
      "midi": 84,
      "hit": false,
      "t": 146291.66666666695,
      "d": 33.33333333331393,
      "v": 68
    },
    {
      "midi": 96,
      "hit": false,
      "t": 146295.8333333336,
      "d": 45.83333333331393,
      "v": 60
    },
    {
      "midi": 61,
      "hit": false,
      "t": 146295.8333333336,
      "d": 49.999999999970896,
      "v": 50
    },
    {
      "midi": 65,
      "hit": false,
      "t": 146300.00000000026,
      "d": 25,
      "v": 62
    },
    {
      "midi": 55,
      "hit": false,
      "t": 146320.8333333336,
      "d": 24.999999999970896,
      "v": 30
    },
    {
      "midi": 62,
      "hit": false,
      "t": 146462.50000000023,
      "d": 37.5,
      "v": 71
    },
    {
      "midi": 67,
      "hit": false,
      "t": 146462.50000000023,
      "d": 45.833333333343035,
      "v": 70
    },
    {
      "midi": 56,
      "hit": false,
      "t": 146466.6666666669,
      "d": 95.83333333337214,
      "v": 64
    },
    {
      "midi": 86,
      "hit": false,
      "t": 146483.33333333355,
      "d": 70.83333333337214,
      "v": 66
    },
    {
      "midi": 98,
      "hit": false,
      "t": 146491.6666666669,
      "d": 50.000000000029104,
      "v": 56
    },
    {
      "midi": 96,
      "hit": false,
      "t": 146508.33333333358,
      "d": 25,
      "v": 33
    },
    {
      "midi": 98,
      "hit": false,
      "t": 146825.00000000026,
      "d": 179.16666666662786,
      "v": 78
    },
    {
      "midi": 86,
      "hit": false,
      "t": 146825.00000000026,
      "d": 183.33333333328483,
      "v": 79
    },
    {
      "midi": 54,
      "hit": false,
      "t": 146829.16666666692,
      "d": 233.33333333328483,
      "v": 62
    },
    {
      "midi": 60,
      "hit": false,
      "t": 146833.33333333358,
      "d": 174.9999999999709,
      "v": 60
    },
    {
      "midi": 65,
      "hit": false,
      "t": 146837.50000000023,
      "d": 183.33333333331393,
      "v": 66
    },
    {
      "midi": 58,
      "hit": false,
      "t": 146837.50000000023,
      "d": 229.16666666662786,
      "v": 46
    },
    {
      "midi": 96,
      "hit": false,
      "t": 146862.50000000023,
      "d": 25,
      "v": 24
    },
    {
      "midi": 98,
      "hit": false,
      "t": 147087.5000000002,
      "d": 270.83333333331393,
      "v": 77
    },
    {
      "midi": 86,
      "hit": false,
      "t": 147091.66666666686,
      "d": 233.33333333331393,
      "v": 67
    },
    {
      "midi": 64,
      "hit": false,
      "t": 147095.83333333352,
      "d": 291.66666666665697,
      "v": 77
    },
    {
      "midi": 53,
      "hit": false,
      "t": 147095.83333333352,
      "d": 300,
      "v": 75
    },
    {
      "midi": 59,
      "hit": false,
      "t": 147100.00000000017,
      "d": 283.33333333334303,
      "v": 74
    },
    {
      "midi": 93,
      "hit": false,
      "t": 147112.50000000017,
      "d": 225,
      "v": 59
    },
    {
      "midi": 103,
      "hit": false,
      "t": 147612.50000000017,
      "d": 191.66666666662786,
      "v": 74
    },
    {
      "midi": 98,
      "hit": false,
      "t": 147616.66666666683,
      "d": 183.33333333331393,
      "v": 69
    },
    {
      "midi": 64,
      "hit": false,
      "t": 147616.66666666683,
      "d": 195.83333333331393,
      "v": 71
    },
    {
      "midi": 91,
      "hit": false,
      "t": 147620.8333333335,
      "d": 175,
      "v": 48
    },
    {
      "midi": 59,
      "hit": false,
      "t": 147620.8333333335,
      "d": 220.83333333331393,
      "v": 66
    },
    {
      "midi": 53,
      "hit": false,
      "t": 147625.00000000015,
      "d": 187.5,
      "v": 64
    },
    {
      "midi": 103,
      "hit": false,
      "t": 147891.6666666668,
      "d": 74.9999999999709,
      "v": 65
    },
    {
      "midi": 53,
      "hit": false,
      "t": 147891.6666666668,
      "d": 83.33333333328483,
      "v": 57
    },
    {
      "midi": 64,
      "hit": false,
      "t": 147895.83333333346,
      "d": 62.5,
      "v": 58
    },
    {
      "midi": 91,
      "hit": false,
      "t": 147895.83333333346,
      "d": 62.5,
      "v": 54
    },
    {
      "midi": 98,
      "hit": false,
      "t": 147900.00000000012,
      "d": 62.5,
      "v": 64
    },
    {
      "midi": 59,
      "hit": false,
      "t": 147900.00000000012,
      "d": 83.33333333331393,
      "v": 69
    },
    {
      "midi": 53,
      "hit": false,
      "t": 148012.5000000001,
      "d": 183.33333333331393,
      "v": 34
    },
    {
      "midi": 64,
      "hit": false,
      "t": 148016.66666666674,
      "d": 183.33333333331393,
      "v": 60
    },
    {
      "midi": 59,
      "hit": false,
      "t": 148016.66666666674,
      "d": 220.83333333331393,
      "v": 30
    },
    {
      "midi": 103,
      "hit": false,
      "t": 148029.16666666674,
      "d": 162.5,
      "v": 47
    },
    {
      "midi": 98,
      "hit": false,
      "t": 148037.5000000001,
      "d": 137.5,
      "v": 44
    },
    {
      "midi": 91,
      "hit": false,
      "t": 148037.5000000001,
      "d": 150,
      "v": 34
    },
    {
      "midi": 53,
      "hit": false,
      "t": 148266.66666666672,
      "d": 70.83333333328483,
      "v": 54
    },
    {
      "midi": 59,
      "hit": false,
      "t": 148270.83333333337,
      "d": 74.9999999999709,
      "v": 37
    },
    {
      "midi": 103,
      "hit": false,
      "t": 148270.83333333337,
      "d": 74.9999999999709,
      "v": 57
    },
    {
      "midi": 64,
      "hit": false,
      "t": 148275.00000000003,
      "d": 58.33333333331393,
      "v": 58
    },
    {
      "midi": 98,
      "hit": false,
      "t": 148279.1666666667,
      "d": 58.33333333331393,
      "v": 67
    },
    {
      "midi": 91,
      "hit": false,
      "t": 148283.33333333334,
      "d": 33.333333333343035,
      "v": 45
    },
    {
      "midi": 106,
      "hit": false,
      "t": 148658.33333333337,
      "d": 387.4999999999709,
      "v": 79
    },
    {
      "midi": 94,
      "hit": false,
      "t": 148662.50000000003,
      "d": 387.4999999999709,
      "v": 72
    },
    {
      "midi": 58,
      "hit": false,
      "t": 148666.6666666667,
      "d": 408.33333333331393,
      "v": 61
    },
    {
      "midi": 63,
      "hit": false,
      "t": 148666.6666666667,
      "d": 412.4999999999709,
      "v": 57
    },
    {
      "midi": 99,
      "hit": false,
      "t": 148670.83333333334,
      "d": 362.5,
      "v": 65
    },
    {
      "midi": 67,
      "hit": false,
      "t": 148670.83333333334,
      "d": 379.16666666665697,
      "v": 75
    },
    {
      "midi": 62,
      "hit": false,
      "t": 148675,
      "d": 379.16666666665697,
      "v": 67
    },
    {
      "midi": 67,
      "hit": false,
      "t": 149200,
      "d": 91.66666666659876,
      "v": 60
    },
    {
      "midi": 103,
      "hit": false,
      "t": 149216.66666666666,
      "d": 99.99999999994179,
      "v": 55
    },
    {
      "midi": 63,
      "hit": false,
      "t": 149220.8333333333,
      "d": 37.499999999970896,
      "v": 29
    },
    {
      "midi": 91,
      "hit": false,
      "t": 149220.8333333333,
      "d": 70.83333333328483,
      "v": 56
    },
    {
      "midi": 62,
      "hit": false,
      "t": 149224.99999999997,
      "d": 37.499999999970896,
      "v": 37
    },
    {
      "midi": 58,
      "hit": false,
      "t": 149229.16666666663,
      "d": 58.33333333331393,
      "v": 23
    },
    {
      "midi": 58,
      "hit": false,
      "t": 149620.83333333326,
      "d": 141.66666666665697,
      "v": 42
    },
    {
      "midi": 67,
      "hit": false,
      "t": 149624.9999999999,
      "d": 87.5,
      "v": 56
    },
    {
      "midi": 63,
      "hit": false,
      "t": 149633.33333333326,
      "d": 129.16666666665697,
      "v": 36
    },
    {
      "midi": 107,
      "hit": false,
      "t": 149633.33333333326,
      "d": 145.83333333331393,
      "v": 74
    },
    {
      "midi": 62,
      "hit": false,
      "t": 149637.4999999999,
      "d": 87.5,
      "v": 40
    },
    {
      "midi": 95,
      "hit": false,
      "t": 149641.66666666657,
      "d": 162.5,
      "v": 69
    },
    {
      "midi": 67,
      "hit": false,
      "t": 150029.16666666657,
      "d": 162.5,
      "v": 60
    },
    {
      "midi": 58,
      "hit": false,
      "t": 150033.33333333323,
      "d": 229.16666666665697,
      "v": 47
    },
    {
      "midi": 63,
      "hit": false,
      "t": 150041.66666666657,
      "d": 166.66666666665697,
      "v": 37
    },
    {
      "midi": 62,
      "hit": false,
      "t": 150045.83333333323,
      "d": 137.5,
      "v": 45
    },
    {
      "midi": 67,
      "hit": false,
      "t": 150416.66666666654,
      "d": 29.16666666662786,
      "v": 69
    },
    {
      "midi": 86,
      "hit": false,
      "t": 150416.66666666654,
      "d": 33.33333333328483,
      "v": 65
    },
    {
      "midi": 88,
      "hit": false,
      "t": 150420.8333333332,
      "d": 29.16666666662786,
      "v": 60
    },
    {
      "midi": 57,
      "hit": false,
      "t": 150420.8333333332,
      "d": 33.33333333328483,
      "v": 66
    },
    {
      "midi": 63,
      "hit": false,
      "t": 150420.8333333332,
      "d": 37.49999999994179,
      "v": 49
    },
    {
      "midi": 76,
      "hit": false,
      "t": 150424.99999999985,
      "d": 29.16666666662786,
      "v": 54
    },
    {
      "midi": 82,
      "hit": false,
      "t": 150429.1666666665,
      "d": 29.16666666662786,
      "v": 35
    },
    {
      "midi": 87,
      "hit": false,
      "t": 150695.83333333314,
      "d": 95.83333333328483,
      "v": 76
    },
    {
      "midi": 75,
      "hit": false,
      "t": 150695.83333333314,
      "d": 104.16666666659876,
      "v": 80
    },
    {
      "midi": 63,
      "hit": false,
      "t": 150699.9999999998,
      "d": 120.83333333325572,
      "v": 67
    },
    {
      "midi": 67,
      "hit": false,
      "t": 150704.16666666645,
      "d": 83.33333333331393,
      "v": 74
    },
    {
      "midi": 82,
      "hit": false,
      "t": 150704.16666666645,
      "d": 112.49999999994179,
      "v": 71
    },
    {
      "midi": 57,
      "hit": false,
      "t": 150708.3333333331,
      "d": 87.4999999999709,
      "v": 73
    },
    {
      "midi": 85,
      "hit": false,
      "t": 150870.83333333305,
      "d": 149.9999999999709,
      "v": 44
    },
    {
      "midi": 57,
      "hit": false,
      "t": 150870.83333333305,
      "d": 158.33333333331393,
      "v": 35
    },
    {
      "midi": 67,
      "hit": false,
      "t": 150874.9999999997,
      "d": 141.66666666665697,
      "v": 46
    },
    {
      "midi": 63,
      "hit": false,
      "t": 150874.9999999997,
      "d": 175,
      "v": 40
    },
    {
      "midi": 73,
      "hit": false,
      "t": 150879.16666666637,
      "d": 141.66666666665697,
      "v": 40
    },
    {
      "midi": 70,
      "hit": false,
      "t": 151120.83333333305,
      "d": 58.33333333331393,
      "v": 56
    },
    {
      "midi": 63,
      "hit": false,
      "t": 151124.9999999997,
      "d": 74.9999999999709,
      "v": 34
    },
    {
      "midi": 67,
      "hit": false,
      "t": 151129.16666666637,
      "d": 45.833333333343035,
      "v": 54
    },
    {
      "midi": 57,
      "hit": false,
      "t": 151129.16666666637,
      "d": 70.83333333331393,
      "v": 54
    },
    {
      "midi": 82,
      "hit": false,
      "t": 151141.66666666637,
      "d": 54.166666666656965,
      "v": 15
    },
    {
      "midi": 57,
      "hit": false,
      "t": 151345.83333333302,
      "d": 79.16666666659876,
      "v": 66
    },
    {
      "midi": 88,
      "hit": false,
      "t": 151349.99999999968,
      "d": 54.16666666662786,
      "v": 79
    },
    {
      "midi": 63,
      "hit": false,
      "t": 151349.99999999968,
      "d": 70.83333333328483,
      "v": 52
    },
    {
      "midi": 76,
      "hit": false,
      "t": 151354.16666666634,
      "d": 45.83333333331393,
      "v": 66
    },
    {
      "midi": 67,
      "hit": false,
      "t": 151358.333333333,
      "d": 33.33333333331393,
      "v": 45
    },
    {
      "midi": 87,
      "hit": false,
      "t": 151362.49999999965,
      "d": 29.166666666656965,
      "v": 48
    },
    {
      "midi": 63,
      "hit": false,
      "t": 151541.66666666628,
      "d": 70.83333333331393,
      "v": 57
    },
    {
      "midi": 75,
      "hit": false,
      "t": 151545.83333333294,
      "d": 58.333333333343035,
      "v": 65
    },
    {
      "midi": 57,
      "hit": false,
      "t": 151545.83333333294,
      "d": 62.5,
      "v": 58
    },
    {
      "midi": 67,
      "hit": false,
      "t": 151554.16666666628,
      "d": 29.166666666656965,
      "v": 46
    },
    {
      "midi": 63,
      "hit": false,
      "t": 151708.33333333294,
      "d": 83.33333333331393,
      "v": 46
    },
    {
      "midi": 85,
      "hit": false,
      "t": 151712.4999999996,
      "d": 58.333333333343035,
      "v": 53
    },
    {
      "midi": 73,
      "hit": false,
      "t": 151712.4999999996,
      "d": 62.5,
      "v": 61
    },
    {
      "midi": 57,
      "hit": false,
      "t": 151712.4999999996,
      "d": 79.16666666665697,
      "v": 31
    },
    {
      "midi": 63,
      "hit": false,
      "t": 151891.66666666625,
      "d": 129.16666666665697,
      "v": 55
    },
    {
      "midi": 70,
      "hit": false,
      "t": 151912.4999999996,
      "d": 25,
      "v": 52
    },
    {
      "midi": 82,
      "hit": false,
      "t": 151912.4999999996,
      "d": 50,
      "v": 55
    },
    {
      "midi": 67,
      "hit": false,
      "t": 151916.66666666625,
      "d": 29.16666666668607,
      "v": 36
    },
    {
      "midi": 62,
      "hit": false,
      "t": 152062.49999999956,
      "d": 154.16666666665697,
      "v": 60
    },
    {
      "midi": 87,
      "hit": false,
      "t": 152066.66666666622,
      "d": 25,
      "v": 69
    },
    {
      "midi": 75,
      "hit": false,
      "t": 152066.66666666622,
      "d": 87.5,
      "v": 63
    },
    {
      "midi": 65,
      "hit": false,
      "t": 152066.66666666622,
      "d": 129.16666666668607,
      "v": 55
    },
    {
      "midi": 60,
      "hit": false,
      "t": 152099.99999999956,
      "d": 87.5,
      "v": 35
    },
    {
      "midi": 88,
      "hit": false,
      "t": 152104.16666666622,
      "d": 70.83333333334303,
      "v": 50
    },
    {
      "midi": 55,
      "hit": false,
      "t": 152104.16666666622,
      "d": 83.33333333334303,
      "v": 42
    },
    {
      "midi": 76,
      "hit": false,
      "t": 152149.99999999956,
      "d": 50,
      "v": 66
    },
    {
      "midi": 62,
      "hit": false,
      "t": 152287.49999999956,
      "d": 83.33333333331393,
      "v": 58
    },
    {
      "midi": 87,
      "hit": false,
      "t": 152295.8333333329,
      "d": 79.16666666662786,
      "v": 62
    },
    {
      "midi": 65,
      "hit": false,
      "t": 152299.99999999956,
      "d": 58.33333333331393,
      "v": 49
    },
    {
      "midi": 75,
      "hit": false,
      "t": 152299.99999999956,
      "d": 79.16666666662786,
      "v": 67
    },
    {
      "midi": 60,
      "hit": false,
      "t": 152316.66666666622,
      "d": 37.5,
      "v": 36
    },
    {
      "midi": 55,
      "hit": false,
      "t": 152320.83333333288,
      "d": 37.5,
      "v": 30
    },
    {
      "midi": 62,
      "hit": false,
      "t": 152454.1666666662,
      "d": 116.66666666668607,
      "v": 37
    },
    {
      "midi": 65,
      "hit": false,
      "t": 152458.33333333285,
      "d": 83.33333333334303,
      "v": 48
    },
    {
      "midi": 85,
      "hit": false,
      "t": 152458.33333333285,
      "d": 108.33333333337214,
      "v": 50
    },
    {
      "midi": 73,
      "hit": false,
      "t": 152466.6666666662,
      "d": 91.66666666668607,
      "v": 46
    },
    {
      "midi": 55,
      "hit": false,
      "t": 152470.83333333285,
      "d": 100.0000000000291,
      "v": 34
    },
    {
      "midi": 60,
      "hit": false,
      "t": 152483.33333333285,
      "d": 66.66666666668607,
      "v": 35
    },
    {
      "midi": 62,
      "hit": false,
      "t": 152695.83333333288,
      "d": 58.33333333331393,
      "v": 54
    },
    {
      "midi": 65,
      "hit": false,
      "t": 152704.16666666622,
      "d": 33.33333333331393,
      "v": 44
    },
    {
      "midi": 60,
      "hit": false,
      "t": 152708.33333333288,
      "d": 29.166666666656965,
      "v": 38
    },
    {
      "midi": 62,
      "hit": false,
      "t": 152829.1666666662,
      "d": 79.16666666662786,
      "v": 42
    },
    {
      "midi": 75,
      "hit": false,
      "t": 152833.33333333285,
      "d": 124.99999999994179,
      "v": 69
    },
    {
      "midi": 65,
      "hit": false,
      "t": 152837.4999999995,
      "d": 50,
      "v": 55
    },
    {
      "midi": 87,
      "hit": false,
      "t": 152837.4999999995,
      "d": 120.83333333328483,
      "v": 61
    },
    {
      "midi": 55,
      "hit": false,
      "t": 152849.9999999995,
      "d": 62.499999999970896,
      "v": 26
    },
    {
      "midi": 60,
      "hit": false,
      "t": 152854.16666666616,
      "d": 37.5,
      "v": 40
    },
    {
      "midi": 62,
      "hit": false,
      "t": 153074.99999999945,
      "d": 54.16666666659876,
      "v": 58
    },
    {
      "midi": 85,
      "hit": false,
      "t": 153074.99999999945,
      "d": 337.4999999999127,
      "v": 56
    },
    {
      "midi": 73,
      "hit": false,
      "t": 153079.1666666661,
      "d": 341.66666666659876,
      "v": 72
    },
    {
      "midi": 65,
      "hit": false,
      "t": 153083.33333333276,
      "d": 24.999999999970896,
      "v": 63
    },
    {
      "midi": 55,
      "hit": false,
      "t": 153087.49999999942,
      "d": 95.83333333328483,
      "v": 60
    },
    {
      "midi": 60,
      "hit": false,
      "t": 153095.83333333273,
      "d": 25,
      "v": 40
    },
    {
      "midi": 86,
      "hit": false,
      "t": 153095.83333333273,
      "d": 29.166666666656965,
      "v": 52
    },
    {
      "midi": 41,
      "hit": false,
      "t": 153441.66666666605,
      "d": 2041.666666666686,
      "v": 80
    },
    {
      "midi": 53,
      "hit": false,
      "t": 153449.9999999994,
      "d": 800,
      "v": 87
    },
    {
      "midi": 48,
      "hit": false,
      "t": 154270.83333333273,
      "d": 145.83333333334303,
      "v": 44
    },
    {
      "midi": 53,
      "hit": false,
      "t": 154674.99999999942,
      "d": 25,
      "v": 51
    },
    {
      "midi": 55,
      "hit": false,
      "t": 154941.66666666607,
      "d": 50,
      "v": 37
    },
    {
      "midi": 58,
      "hit": false,
      "t": 155062.49999999942,
      "d": 104.16666666665697,
      "v": 65
    },
    {
      "midi": 53,
      "hit": false,
      "t": 155079.16666666607,
      "d": 33.333333333343035,
      "v": 46
    },
    {
      "midi": 53,
      "hit": false,
      "t": 155479.16666666607,
      "d": 25,
      "v": 62
    },
    {
      "midi": 53,
      "hit": false,
      "t": 155879.16666666607,
      "d": 25,
      "v": 58
    },
    {
      "midi": 52,
      "hit": false,
      "t": 155887.49999999942,
      "d": 25,
      "v": 50
    },
    {
      "midi": 55,
      "hit": false,
      "t": 156154.16666666607,
      "d": 54.166666666656965,
      "v": 58
    },
    {
      "midi": 58,
      "hit": false,
      "t": 156270.83333333273,
      "d": 112.4999999999709,
      "v": 67
    },
    {
      "midi": 53,
      "hit": false,
      "t": 156287.4999999994,
      "d": 29.166666666656965,
      "v": 56
    },
    {
      "midi": 55,
      "hit": false,
      "t": 156579.16666666605,
      "d": 50,
      "v": 53
    },
    {
      "midi": 53,
      "hit": false,
      "t": 156662.4999999994,
      "d": 29.16666666668607,
      "v": 48
    },
    {
      "midi": 58,
      "hit": false,
      "t": 156683.33333333273,
      "d": 100,
      "v": 69
    },
    {
      "midi": 51,
      "hit": false,
      "t": 156699.99999999942,
      "d": 29.166666666656965,
      "v": 20
    },
    {
      "midi": 39,
      "hit": false,
      "t": 157070.83333333273,
      "d": 75,
      "v": 51
    },
    {
      "midi": 46,
      "hit": false,
      "t": 157079.16666666607,
      "d": 70.83333333331393,
      "v": 54
    },
    {
      "midi": 55,
      "hit": false,
      "t": 157229.16666666605,
      "d": 37.5,
      "v": 37
    },
    {
      "midi": 57,
      "hit": false,
      "t": 157337.4999999994,
      "d": 66.66666666665697,
      "v": 46
    },
    {
      "midi": 58,
      "hit": false,
      "t": 157437.4999999994,
      "d": 50,
      "v": 51
    },
    {
      "midi": 60,
      "hit": false,
      "t": 157533.33333333273,
      "d": 70.83333333334303,
      "v": 58
    },
    {
      "midi": 61,
      "hit": false,
      "t": 157633.33333333273,
      "d": 70.83333333334303,
      "v": 53
    },
    {
      "midi": 63,
      "hit": false,
      "t": 157741.66666666607,
      "d": 58.333333333343035,
      "v": 49
    },
    {
      "midi": 64,
      "hit": false,
      "t": 157833.33333333276,
      "d": 66.66666666665697,
      "v": 65
    },
    {
      "midi": 66,
      "hit": false,
      "t": 157929.16666666607,
      "d": 37.5,
      "v": 56
    },
    {
      "midi": 55,
      "hit": false,
      "t": 157979.16666666607,
      "d": 112.5,
      "v": 43
    },
    {
      "midi": 61,
      "hit": false,
      "t": 157987.49999999942,
      "d": 137.4999999999709,
      "v": 31
    },
    {
      "midi": 67,
      "hit": false,
      "t": 158029.16666666607,
      "d": 62.5,
      "v": 58
    },
    {
      "midi": 69,
      "hit": false,
      "t": 158120.83333333273,
      "d": 58.33333333331393,
      "v": 64
    },
    {
      "midi": 70,
      "hit": false,
      "t": 158229.16666666605,
      "d": 62.5,
      "v": 56
    },
    {
      "midi": 71,
      "hit": false,
      "t": 158316.66666666605,
      "d": 83.33333333334303,
      "v": 39
    },
    {
      "midi": 65,
      "hit": false,
      "t": 158420.83333333273,
      "d": 112.5,
      "v": 40
    },
    {
      "midi": 60,
      "hit": false,
      "t": 158429.16666666607,
      "d": 158.33333333334303,
      "v": 40
    },
    {
      "midi": 58,
      "hit": false,
      "t": 158433.33333333273,
      "d": 220.83333333334303,
      "v": 31
    },
    {
      "midi": 54,
      "hit": false,
      "t": 158433.33333333273,
      "d": 304.16666666668607,
      "v": 31
    },
    {
      "midi": 72,
      "hit": false,
      "t": 158437.4999999994,
      "d": 95.83333333334303,
      "v": 60
    },
    {
      "midi": 69,
      "hit": false,
      "t": 158579.16666666607,
      "d": 45.833333333343035,
      "v": 50
    },
    {
      "midi": 65,
      "hit": false,
      "t": 159079.16666666607,
      "d": 145.83333333331393,
      "v": 57
    },
    {
      "midi": 54,
      "hit": false,
      "t": 159079.16666666607,
      "d": 441.66666666665697,
      "v": 45
    },
    {
      "midi": 60,
      "hit": false,
      "t": 159083.33333333273,
      "d": 341.66666666665697,
      "v": 50
    },
    {
      "midi": 58,
      "hit": false,
      "t": 159095.83333333273,
      "d": 341.66666666665697,
      "v": 35
    },
    {
      "midi": 65,
      "hit": false,
      "t": 159333.33333333273,
      "d": 41.666666666656965,
      "v": 63
    },
    {
      "midi": 66,
      "hit": false,
      "t": 159424.9999999994,
      "d": 62.5,
      "v": 49
    },
    {
      "midi": 68,
      "hit": false,
      "t": 159508.33333333273,
      "d": 50,
      "v": 58
    },
    {
      "midi": 54,
      "hit": false,
      "t": 159595.83333333273,
      "d": 225.0000000000291,
      "v": 25
    },
    {
      "midi": 69,
      "hit": false,
      "t": 159599.9999999994,
      "d": 33.333333333343035,
      "v": 44
    },
    {
      "midi": 65,
      "hit": false,
      "t": 159612.4999999994,
      "d": 33.333333333343035,
      "v": 24
    },
    {
      "midi": 60,
      "hit": false,
      "t": 159624.9999999994,
      "d": 50.000000000029104,
      "v": 35
    },
    {
      "midi": 58,
      "hit": false,
      "t": 159654.16666666607,
      "d": 158.33333333334303,
      "v": 19
    },
    {
      "midi": 71,
      "hit": false,
      "t": 159695.83333333276,
      "d": 70.83333333334303,
      "v": 47
    },
    {
      "midi": 72,
      "hit": false,
      "t": 159808.33333333276,
      "d": 66.66666666665697,
      "v": 60
    },
    {
      "midi": 74,
      "hit": false,
      "t": 159916.66666666607,
      "d": 54.166666666656965,
      "v": 55
    },
    {
      "midi": 62,
      "hit": false,
      "t": 159970.83333333273,
      "d": 75,
      "v": 40
    },
    {
      "midi": 57,
      "hit": false,
      "t": 159979.16666666607,
      "d": 87.5,
      "v": 43
    },
    {
      "midi": 55,
      "hit": false,
      "t": 159991.66666666607,
      "d": 104.16666666665697,
      "v": 31
    },
    {
      "midi": 58,
      "hit": false,
      "t": 159995.83333333273,
      "d": 70.83333333334303,
      "v": 25
    },
    {
      "midi": 69,
      "hit": false,
      "t": 160258.33333333273,
      "d": 74.9999999999709,
      "v": 68
    },
    {
      "midi": 62,
      "hit": false,
      "t": 160274.9999999994,
      "d": 29.166666666656965,
      "v": 51
    },
    {
      "midi": 70,
      "hit": false,
      "t": 160416.66666666605,
      "d": 50,
      "v": 37
    },
    {
      "midi": 71,
      "hit": false,
      "t": 160524.9999999994,
      "d": 62.5,
      "v": 61
    },
    {
      "midi": 74,
      "hit": false,
      "t": 160645.83333333273,
      "d": 79.16666666662786,
      "v": 68
    },
    {
      "midi": 59,
      "hit": false,
      "t": 160645.83333333273,
      "d": 83.33333333328483,
      "v": 63
    },
    {
      "midi": 64,
      "hit": false,
      "t": 160649.9999999994,
      "d": 58.33333333331393,
      "v": 62
    },
    {
      "midi": 53,
      "hit": false,
      "t": 160666.66666666605,
      "d": 37.5,
      "v": 40
    },
    {
      "midi": 79,
      "hit": false,
      "t": 160791.66666666602,
      "d": 154.16666666665697,
      "v": 68
    },
    {
      "midi": 67,
      "hit": false,
      "t": 160795.83333333267,
      "d": 137.5,
      "v": 68
    },
    {
      "midi": 53,
      "hit": false,
      "t": 160804.16666666602,
      "d": 141.66666666665697,
      "v": 30
    },
    {
      "midi": 64,
      "hit": false,
      "t": 160808.33333333267,
      "d": 129.16666666665697,
      "v": 35
    },
    {
      "midi": 59,
      "hit": false,
      "t": 160808.33333333267,
      "d": 137.5,
      "v": 37
    },
    {
      "midi": 78,
      "hit": false,
      "t": 160945.83333333267,
      "d": 37.5,
      "v": 23
    },
    {
      "midi": 70,
      "hit": false,
      "t": 161054.16666666602,
      "d": 95.83333333331393,
      "v": 74
    },
    {
      "midi": 82,
      "hit": false,
      "t": 161058.33333333267,
      "d": 95.83333333331393,
      "v": 75
    },
    {
      "midi": 59,
      "hit": false,
      "t": 161066.66666666602,
      "d": 87.4999999999709,
      "v": 64
    },
    {
      "midi": 53,
      "hit": false,
      "t": 161070.83333333267,
      "d": 75,
      "v": 54
    },
    {
      "midi": 64,
      "hit": false,
      "t": 161074.99999999933,
      "d": 33.333333333343035,
      "v": 63
    },
    {
      "midi": 64,
      "hit": false,
      "t": 161224.99999999933,
      "d": 41.666666666656965,
      "v": 28
    },
    {
      "midi": 59,
      "hit": false,
      "t": 161229.166666666,
      "d": 45.833333333343035,
      "v": 24
    },
    {
      "midi": 67,
      "hit": false,
      "t": 161241.666666666,
      "d": 33.333333333343035,
      "v": 40
    },
    {
      "midi": 58,
      "hit": false,
      "t": 161487.49999999933,
      "d": 29.166666666656965,
      "v": 25
    },
    {
      "midi": 82,
      "hit": false,
      "t": 161616.666666666,
      "d": 162.4999999999709,
      "v": 65
    },
    {
      "midi": 70,
      "hit": false,
      "t": 161620.83333333264,
      "d": 154.16666666665697,
      "v": 62
    },
    {
      "midi": 58,
      "hit": false,
      "t": 161624.9999999993,
      "d": 87.5,
      "v": 44
    },
    {
      "midi": 62,
      "hit": false,
      "t": 161629.16666666596,
      "d": 58.333333333343035,
      "v": 50
    },
    {
      "midi": 57,
      "hit": false,
      "t": 161629.16666666596,
      "d": 62.5,
      "v": 47
    },
    {
      "midi": 79,
      "hit": false,
      "t": 161945.83333333262,
      "d": 29.166666666656965,
      "v": 19
    },
    {
      "midi": 82,
      "hit": false,
      "t": 162024.99999999927,
      "d": 179.16666666665697,
      "v": 61
    },
    {
      "midi": 62,
      "hit": false,
      "t": 162041.66666666593,
      "d": 208.33333333334303,
      "v": 37
    },
    {
      "midi": 58,
      "hit": false,
      "t": 162041.66666666593,
      "d": 212.5,
      "v": 37
    },
    {
      "midi": 70,
      "hit": false,
      "t": 162041.66666666593,
      "d": 212.5,
      "v": 49
    },
    {
      "midi": 57,
      "hit": false,
      "t": 162058.3333333326,
      "d": 741.6666666666861,
      "v": 30
    },
    {
      "midi": 82,
      "hit": false,
      "t": 162316.66666666593,
      "d": 108.33333333334303,
      "v": 64
    },
    {
      "midi": 62,
      "hit": false,
      "t": 162441.66666666593,
      "d": 87.5,
      "v": 2
    },
    {
      "midi": 79,
      "hit": false,
      "t": 162449.99999999927,
      "d": 220.83333333331393,
      "v": 41
    },
    {
      "midi": 58,
      "hit": false,
      "t": 162466.66666666593,
      "d": 41.666666666656965,
      "v": 23
    },
    {
      "midi": 82,
      "hit": false,
      "t": 162704.16666666593,
      "d": 83.33333333334303,
      "v": 57
    },
    {
      "midi": 70,
      "hit": false,
      "t": 162716.66666666593,
      "d": 54.16666666668607,
      "v": 46
    },
    {
      "midi": 62,
      "hit": false,
      "t": 162737.49999999927,
      "d": 37.5,
      "v": 36
    },
    {
      "midi": 58,
      "hit": false,
      "t": 162745.83333333262,
      "d": 54.166666666656965,
      "v": 33
    },
    {
      "midi": 79,
      "hit": false,
      "t": 162870.83333333262,
      "d": 295.83333333331393,
      "v": 28
    },
    {
      "midi": 67,
      "hit": false,
      "t": 163162.49999999927,
      "d": 25,
      "v": 26
    },
    {
      "midi": 82,
      "hit": false,
      "t": 163262.49999999927,
      "d": 279.16666666665697,
      "v": 52
    },
    {
      "midi": 70,
      "hit": false,
      "t": 163270.83333333262,
      "d": 216.66666666665697,
      "v": 39
    },
    {
      "midi": 64,
      "hit": false,
      "t": 163541.66666666593,
      "d": 29.166666666656965,
      "v": 27
    },
    {
      "midi": 79,
      "hit": false,
      "t": 163645.8333333326,
      "d": 233.33333333334303,
      "v": 46
    },
    {
      "midi": 82,
      "hit": false,
      "t": 163895.8333333326,
      "d": 495.83333333331393,
      "v": 62
    },
    {
      "midi": 64,
      "hit": false,
      "t": 163899.99999999924,
      "d": 525,
      "v": 54
    },
    {
      "midi": 67,
      "hit": false,
      "t": 163899.99999999924,
      "d": 537.5,
      "v": 54
    },
    {
      "midi": 70,
      "hit": false,
      "t": 163904.1666666659,
      "d": 437.5,
      "v": 57
    },
    {
      "midi": 58,
      "hit": false,
      "t": 163916.6666666659,
      "d": 545.833333333343,
      "v": 31
    },
    {
      "midi": 62,
      "hit": false,
      "t": 163920.83333333256,
      "d": 508.33333333334303,
      "v": 42
    },
    {
      "midi": 58,
      "hit": false,
      "t": 164816.6666666659,
      "d": 191.66666666662786,
      "v": 55
    },
    {
      "midi": 63,
      "hit": false,
      "t": 164816.6666666659,
      "d": 191.66666666662786,
      "v": 58
    },
    {
      "midi": 79,
      "hit": false,
      "t": 164820.83333333256,
      "d": 158.33333333331393,
      "v": 73
    },
    {
      "midi": 86,
      "hit": false,
      "t": 164820.83333333256,
      "d": 162.4999999999709,
      "v": 81
    },
    {
      "midi": 74,
      "hit": false,
      "t": 164820.83333333256,
      "d": 174.9999999999709,
      "v": 80
    },
    {
      "midi": 62,
      "hit": false,
      "t": 164824.9999999992,
      "d": 162.4999999999709,
      "v": 49
    },
    {
      "midi": 67,
      "hit": false,
      "t": 164829.16666666587,
      "d": 158.33333333331393,
      "v": 68
    },
    {
      "midi": 82,
      "hit": false,
      "t": 164829.16666666587,
      "d": 179.16666666665697,
      "v": 52
    },
    {
      "midi": 63,
      "hit": false,
      "t": 165137.49999999919,
      "d": 33.333333333343035,
      "v": 27
    },
    {
      "midi": 79,
      "hit": false,
      "t": 165137.49999999919,
      "d": 33.333333333343035,
      "v": 35
    },
    {
      "midi": 67,
      "hit": false,
      "t": 165229.16666666587,
      "d": 58.333333333343035,
      "v": 54
    },
    {
      "midi": 86,
      "hit": false,
      "t": 165229.16666666587,
      "d": 66.66666666665697,
      "v": 71
    },
    {
      "midi": 58,
      "hit": false,
      "t": 165237.4999999992,
      "d": 54.166666666656965,
      "v": 38
    },
    {
      "midi": 74,
      "hit": false,
      "t": 165237.4999999992,
      "d": 58.33333333331393,
      "v": 50
    },
    {
      "midi": 62,
      "hit": false,
      "t": 165241.66666666587,
      "d": 33.333333333343035,
      "v": 49
    },
    {
      "midi": 63,
      "hit": false,
      "t": 165241.66666666587,
      "d": 62.5,
      "v": 36
    },
    {
      "midi": 67,
      "hit": false,
      "t": 165504.16666666587,
      "d": 24.999999999970896,
      "v": 70
    },
    {
      "midi": 63,
      "hit": false,
      "t": 165504.16666666587,
      "d": 45.83333333328483,
      "v": 38
    },
    {
      "midi": 58,
      "hit": false,
      "t": 165508.33333333253,
      "d": 41.66666666662786,
      "v": 42
    },
    {
      "midi": 62,
      "hit": false,
      "t": 165512.49999999919,
      "d": 25,
      "v": 49
    },
    {
      "midi": 89,
      "hit": false,
      "t": 165516.66666666584,
      "d": 25,
      "v": 40
    },
    {
      "midi": 88,
      "hit": false,
      "t": 165516.66666666584,
      "d": 29.166666666656965,
      "v": 46
    },
    {
      "midi": 76,
      "hit": false,
      "t": 165524.99999999919,
      "d": 24.999999999970896,
      "v": 27
    },
    {
      "midi": 85,
      "hit": false,
      "t": 165687.49999999916,
      "d": 58.333333333343035,
      "v": 57
    },
    {
      "midi": 67,
      "hit": false,
      "t": 165695.8333333325,
      "d": 166.66666666665697,
      "v": 64
    },
    {
      "midi": 58,
      "hit": false,
      "t": 165695.8333333325,
      "d": 200,
      "v": 57
    },
    {
      "midi": 73,
      "hit": false,
      "t": 165699.99999999916,
      "d": 62.5,
      "v": 40
    },
    {
      "midi": 63,
      "hit": false,
      "t": 165699.99999999916,
      "d": 150,
      "v": 36
    },
    {
      "midi": 62,
      "hit": false,
      "t": 165708.3333333325,
      "d": 141.66666666665697,
      "v": 44
    },
    {
      "midi": 85,
      "hit": false,
      "t": 165995.8333333325,
      "d": 170.83333333331393,
      "v": 59
    },
    {
      "midi": 58,
      "hit": false,
      "t": 165999.99999999916,
      "d": 183.33333333331393,
      "v": 48
    },
    {
      "midi": 67,
      "hit": false,
      "t": 166004.1666666658,
      "d": 79.16666666665697,
      "v": 58
    },
    {
      "midi": 73,
      "hit": false,
      "t": 166008.33333333247,
      "d": 187.5,
      "v": 46
    },
    {
      "midi": 63,
      "hit": false,
      "t": 166012.49999999913,
      "d": 141.66666666668607,
      "v": 38
    },
    {
      "midi": 62,
      "hit": false,
      "t": 166016.66666666578,
      "d": 41.66666666668607,
      "v": 42
    },
    {
      "midi": 79,
      "hit": false,
      "t": 166049.99999999913,
      "d": 95.83333333334303,
      "v": 24
    },
    {
      "midi": 84,
      "hit": false,
      "t": 166274.99999999913,
      "d": 199.9999999999418,
      "v": 68
    },
    {
      "midi": 79,
      "hit": false,
      "t": 166279.16666666578,
      "d": 220.83333333328483,
      "v": 55
    },
    {
      "midi": 67,
      "hit": false,
      "t": 166279.16666666578,
      "d": 449.9999999999418,
      "v": 62
    },
    {
      "midi": 63,
      "hit": false,
      "t": 166283.33333333244,
      "d": 591.6666666666279,
      "v": 45
    },
    {
      "midi": 57,
      "hit": false,
      "t": 166283.33333333244,
      "d": 1020.8333333332557,
      "v": 60
    },
    {
      "midi": 72,
      "hit": false,
      "t": 166287.4999999991,
      "d": 316.66666666662786,
      "v": 51
    },
    {
      "midi": 67,
      "hit": false,
      "t": 166841.66666666573,
      "d": 125,
      "v": 68
    },
    {
      "midi": 65,
      "hit": false,
      "t": 166962.49999999907,
      "d": 95.83333333331393,
      "v": 65
    },
    {
      "midi": 68,
      "hit": false,
      "t": 167104.16666666573,
      "d": 129.16666666665697,
      "v": 81
    },
    {
      "midi": 63,
      "hit": false,
      "t": 167133.33333333238,
      "d": 62.5,
      "v": 25
    },
    {
      "midi": 66,
      "hit": false,
      "t": 167237.49999999904,
      "d": 95.83333333331393,
      "v": 57
    },
    {
      "midi": 69,
      "hit": false,
      "t": 167370.83333333235,
      "d": 141.66666666665697,
      "v": 87
    },
    {
      "midi": 67,
      "hit": false,
      "t": 167483.33333333235,
      "d": 91.66666666665697,
      "v": 62
    },
    {
      "midi": 57,
      "hit": false,
      "t": 167587.499999999,
      "d": 137.4999999999709,
      "v": 37
    },
    {
      "midi": 63,
      "hit": false,
      "t": 167591.66666666567,
      "d": 187.4999999999709,
      "v": 25
    },
    {
      "midi": 70,
      "hit": false,
      "t": 167633.33333333232,
      "d": 108.33333333331393,
      "v": 68
    },
    {
      "midi": 68,
      "hit": false,
      "t": 167758.3333333323,
      "d": 83.33333333334303,
      "v": 53
    },
    {
      "midi": 71,
      "hit": false,
      "t": 167891.66666666564,
      "d": 129.16666666665697,
      "v": 77
    },
    {
      "midi": 62,
      "hit": false,
      "t": 167895.8333333323,
      "d": 491.66666666668607,
      "v": 45
    },
    {
      "midi": 65,
      "hit": false,
      "t": 167904.16666666564,
      "d": 354.16666666665697,
      "v": 41
    },
    {
      "midi": 60,
      "hit": false,
      "t": 167908.3333333323,
      "d": 495.83333333334303,
      "v": 42
    },
    {
      "midi": 55,
      "hit": false,
      "t": 167912.49999999895,
      "d": 487.5000000000291,
      "v": 37
    },
    {
      "midi": 69,
      "hit": false,
      "t": 168020.8333333323,
      "d": 79.16666666665697,
      "v": 58
    },
    {
      "midi": 72,
      "hit": false,
      "t": 168145.8333333323,
      "d": 125,
      "v": 59
    },
    {
      "midi": 70,
      "hit": false,
      "t": 168279.16666666564,
      "d": 100,
      "v": 40
    },
    {
      "midi": 73,
      "hit": false,
      "t": 168424.99999999898,
      "d": 100,
      "v": 45
    },
    {
      "midi": 71,
      "hit": false,
      "t": 168549.99999999898,
      "d": 83.33333333334303,
      "v": 36
    },
    {
      "midi": 74,
      "hit": false,
      "t": 168670.83333333232,
      "d": 120.83333333334303,
      "v": 81
    },
    {
      "midi": 65,
      "hit": false,
      "t": 168683.33333333232,
      "d": 33.333333333343035,
      "v": 54
    },
    {
      "midi": 62,
      "hit": false,
      "t": 168691.66666666567,
      "d": 91.66666666665697,
      "v": 50
    },
    {
      "midi": 60,
      "hit": false,
      "t": 168704.16666666567,
      "d": 37.5,
      "v": 40
    },
    {
      "midi": 72,
      "hit": false,
      "t": 168791.66666666567,
      "d": 100,
      "v": 43
    },
    {
      "midi": 75,
      "hit": false,
      "t": 168924.999999999,
      "d": 116.66666666665697,
      "v": 65
    },
    {
      "midi": 73,
      "hit": false,
      "t": 169049.999999999,
      "d": 112.5,
      "v": 58
    },
    {
      "midi": 65,
      "hit": false,
      "t": 169108.33333333235,
      "d": 25,
      "v": 20
    },
    {
      "midi": 62,
      "hit": false,
      "t": 169112.499999999,
      "d": 100,
      "v": 36
    },
    {
      "midi": 60,
      "hit": false,
      "t": 169133.33333333235,
      "d": 154.16666666665697,
      "v": 28
    },
    {
      "midi": 74,
      "hit": false,
      "t": 169191.66666666567,
      "d": 95.83333333334303,
      "v": 57
    },
    {
      "midi": 75,
      "hit": false,
      "t": 169304.16666666567,
      "d": 79.16666666665697,
      "v": 44
    },
    {
      "midi": 76,
      "hit": false,
      "t": 169429.16666666567,
      "d": 116.66666666665697,
      "v": 62
    },
    {
      "midi": 65,
      "hit": false,
      "t": 169516.66666666567,
      "d": 79.16666666665697,
      "v": 32
    },
    {
      "midi": 61,
      "hit": false,
      "t": 169520.83333333232,
      "d": 137.5,
      "v": 26
    },
    {
      "midi": 55,
      "hit": false,
      "t": 169549.99999999898,
      "d": 75,
      "v": 30
    },
    {
      "midi": 79,
      "hit": false,
      "t": 169558.33333333232,
      "d": 100,
      "v": 52
    },
    {
      "midi": 65,
      "hit": false,
      "t": 169874.99999999898,
      "d": 29.16666666668607,
      "v": 57
    },
    {
      "midi": 61,
      "hit": false,
      "t": 169874.99999999898,
      "d": 91.66666666668607,
      "v": 47
    },
    {
      "midi": 55,
      "hit": false,
      "t": 169883.33333333232,
      "d": 41.66666666668607,
      "v": 49
    },
    {
      "midi": 81,
      "hit": false,
      "t": 170008.33333333232,
      "d": 37.5,
      "v": 45
    },
    {
      "midi": 83,
      "hit": false,
      "t": 170087.49999999898,
      "d": 75,
      "v": 67
    },
    {
      "midi": 85,
      "hit": false,
      "t": 170195.83333333232,
      "d": 45.833333333343035,
      "v": 59
    },
    {
      "midi": 88,
      "hit": false,
      "t": 170291.66666666567,
      "d": 79.16666666665697,
      "v": 71
    },
    {
      "midi": 61,
      "hit": false,
      "t": 170374.99999999898,
      "d": 345.83333333337214,
      "v": 36
    },
    {
      "midi": 55,
      "hit": false,
      "t": 170387.49999999898,
      "d": 312.5000000000291,
      "v": 36
    },
    {
      "midi": 93,
      "hit": false,
      "t": 170395.83333333232,
      "d": 104.16666666665697,
      "v": 60
    },
    {
      "midi": 65,
      "hit": false,
      "t": 170395.83333333232,
      "d": 291.66666666668607,
      "v": 25
    },
    {
      "midi": 97,
      "hit": false,
      "t": 170508.33333333232,
      "d": 75,
      "v": 59
    },
    {
      "midi": 100,
      "hit": false,
      "t": 170620.83333333232,
      "d": 58.333333333343035,
      "v": 73
    },
    {
      "midi": 55,
      "hit": false,
      "t": 170899.999999999,
      "d": 29.166666666656965,
      "v": 18
    },
    {
      "midi": 65,
      "hit": false,
      "t": 171112.499999999,
      "d": 520.8333333333139,
      "v": 64
    },
    {
      "midi": 54,
      "hit": false,
      "t": 171120.83333333235,
      "d": 554.1666666666279,
      "v": 51
    },
    {
      "midi": 60,
      "hit": false,
      "t": 171124.999999999,
      "d": 545.8333333333139,
      "v": 63
    },
    {
      "midi": 58,
      "hit": false,
      "t": 171129.16666666567,
      "d": 633.3333333333139,
      "v": 35
    },
    {
      "midi": 98,
      "hit": false,
      "t": 171637.49999999898,
      "d": 125,
      "v": 84
    },
    {
      "midi": 86,
      "hit": false,
      "t": 171637.49999999898,
      "d": 129.16666666665697,
      "v": 78
    },
    {
      "midi": 85,
      "hit": false,
      "t": 171891.66666666564,
      "d": 145.83333333331393,
      "v": 77
    },
    {
      "midi": 97,
      "hit": false,
      "t": 171891.66666666564,
      "d": 154.16666666665697,
      "v": 75
    },
    {
      "midi": 65,
      "hit": false,
      "t": 171908.3333333323,
      "d": 66.66666666665697,
      "v": 46
    },
    {
      "midi": 54,
      "hit": false,
      "t": 171912.49999999895,
      "d": 112.5,
      "v": 39
    },
    {
      "midi": 60,
      "hit": false,
      "t": 171916.6666666656,
      "d": 208.33333333334303,
      "v": 52
    },
    {
      "midi": 58,
      "hit": false,
      "t": 171929.1666666656,
      "d": 245.83333333334303,
      "v": 31
    },
    {
      "midi": 96,
      "hit": false,
      "t": 172112.49999999895,
      "d": 58.333333333343035,
      "v": 62
    },
    {
      "midi": 84,
      "hit": false,
      "t": 172120.8333333323,
      "d": 70.83333333331393,
      "v": 53
    },
    {
      "midi": 80,
      "hit": false,
      "t": 172304.1666666656,
      "d": 45.83333333331393,
      "v": 52
    },
    {
      "midi": 92,
      "hit": false,
      "t": 172308.33333333227,
      "d": 29.166666666656965,
      "v": 45
    },
    {
      "midi": 65,
      "hit": false,
      "t": 172316.6666666656,
      "d": 224.9999999999418,
      "v": 44
    },
    {
      "midi": 54,
      "hit": false,
      "t": 172316.6666666656,
      "d": 395.8333333332848,
      "v": 45
    },
    {
      "midi": 60,
      "hit": false,
      "t": 172329.1666666656,
      "d": 266.66666666662786,
      "v": 39
    },
    {
      "midi": 58,
      "hit": false,
      "t": 172333.33333333227,
      "d": 354.16666666662786,
      "v": 31
    },
    {
      "midi": 93,
      "hit": false,
      "t": 172349.99999999892,
      "d": 54.166666666656965,
      "v": 49
    },
    {
      "midi": 90,
      "hit": false,
      "t": 172387.49999999892,
      "d": 41.666666666656965,
      "v": 25
    },
    {
      "midi": 77,
      "hit": false,
      "t": 172520.83333333224,
      "d": 75,
      "v": 40
    },
    {
      "midi": 89,
      "hit": false,
      "t": 172524.9999999989,
      "d": 37.5,
      "v": 37
    },
    {
      "midi": 64,
      "hit": false,
      "t": 172729.16666666555,
      "d": 62.5,
      "v": 58
    },
    {
      "midi": 59,
      "hit": false,
      "t": 172729.16666666555,
      "d": 254.16666666668607,
      "v": 62
    },
    {
      "midi": 78,
      "hit": false,
      "t": 172745.8333333322,
      "d": 100.0000000000291,
      "v": 77
    },
    {
      "midi": 53,
      "hit": false,
      "t": 172745.8333333322,
      "d": 212.5000000000291,
      "v": 47
    },
    {
      "midi": 90,
      "hit": false,
      "t": 172758.3333333322,
      "d": 79.16666666668607,
      "v": 48
    },
    {
      "midi": 91,
      "hit": false,
      "t": 172770.8333333322,
      "d": 25,
      "v": 43
    },
    {
      "midi": 89,
      "hit": false,
      "t": 172770.8333333322,
      "d": 33.333333333343035,
      "v": 40
    },
    {
      "midi": 90,
      "hit": false,
      "t": 172924.9999999989,
      "d": 104.16666666668607,
      "v": 57
    },
    {
      "midi": 78,
      "hit": false,
      "t": 172933.33333333224,
      "d": 87.5,
      "v": 56
    },
    {
      "midi": 91,
      "hit": false,
      "t": 173004.16666666558,
      "d": 70.83333333334303,
      "v": 42
    },
    {
      "midi": 89,
      "hit": false,
      "t": 173037.49999999892,
      "d": 37.5,
      "v": 24
    },
    {
      "midi": 79,
      "hit": false,
      "t": 173054.16666666558,
      "d": 37.5,
      "v": 37
    },
    {
      "midi": 64,
      "hit": false,
      "t": 173166.66666666558,
      "d": 25,
      "v": 24
    },
    {
      "midi": 59,
      "hit": false,
      "t": 173174.99999999892,
      "d": 112.4999999999709,
      "v": 42
    },
    {
      "midi": 73,
      "hit": false,
      "t": 173245.83333333224,
      "d": 120.83333333331393,
      "v": 74
    },
    {
      "midi": 85,
      "hit": false,
      "t": 173249.9999999989,
      "d": 104.16666666665697,
      "v": 68
    },
    {
      "midi": 74,
      "hit": false,
      "t": 173391.66666666555,
      "d": 66.66666666665697,
      "v": 45
    },
    {
      "midi": 80,
      "hit": false,
      "t": 173429.16666666555,
      "d": 37.5,
      "v": 21
    },
    {
      "midi": 64,
      "hit": false,
      "t": 173499.9999999989,
      "d": 29.166666666656965,
      "v": 42
    },
    {
      "midi": 59,
      "hit": false,
      "t": 173537.4999999989,
      "d": 66.66666666665697,
      "v": 34
    },
    {
      "midi": 82,
      "hit": false,
      "t": 173624.9999999989,
      "d": 187.4999999999709,
      "v": 49
    },
    {
      "midi": 70,
      "hit": false,
      "t": 173629.16666666555,
      "d": 141.66666666665697,
      "v": 67
    },
    {
      "midi": 76,
      "hit": false,
      "t": 173766.66666666555,
      "d": 120.83333333331393,
      "v": 16
    },
    {
      "midi": 71,
      "hit": false,
      "t": 173783.3333333322,
      "d": 75,
      "v": 51
    },
    {
      "midi": 64,
      "hit": false,
      "t": 173891.66666666552,
      "d": 33.333333333343035,
      "v": 45
    },
    {
      "midi": 59,
      "hit": false,
      "t": 173916.66666666552,
      "d": 79.16666666668607,
      "v": 38
    },
    {
      "midi": 53,
      "hit": false,
      "t": 173924.99999999886,
      "d": 70.83333333334303,
      "v": 28
    },
    {
      "midi": 66,
      "hit": false,
      "t": 174008.3333333322,
      "d": 66.66666666665697,
      "v": 57
    },
    {
      "midi": 78,
      "hit": false,
      "t": 174008.3333333322,
      "d": 99.9999999999709,
      "v": 33
    },
    {
      "midi": 67,
      "hit": false,
      "t": 174104.16666666552,
      "d": 87.5,
      "v": 35
    },
    {
      "midi": 79,
      "hit": false,
      "t": 174258.33333333218,
      "d": 137.4999999999709,
      "v": 60
    },
    {
      "midi": 67,
      "hit": false,
      "t": 174270.83333333218,
      "d": 141.66666666662786,
      "v": 68
    },
    {
      "midi": 74,
      "hit": false,
      "t": 174270.83333333218,
      "d": 162.4999999999709,
      "v": 80
    },
    {
      "midi": 58,
      "hit": false,
      "t": 174274.99999999884,
      "d": 208.33333333331393,
      "v": 47
    },
    {
      "midi": 62,
      "hit": false,
      "t": 174279.1666666655,
      "d": 441.66666666662786,
      "v": 62
    },
    {
      "midi": 57,
      "hit": false,
      "t": 174279.1666666655,
      "d": 879.1666666665988,
      "v": 42
    },
    {
      "midi": 79,
      "hit": false,
      "t": 174487.4999999988,
      "d": 137.5,
      "v": 44
    },
    {
      "midi": 67,
      "hit": false,
      "t": 174491.66666666546,
      "d": 187.5,
      "v": 38
    },
    {
      "midi": 74,
      "hit": false,
      "t": 174516.66666666546,
      "d": 158.33333333334303,
      "v": 51
    },
    {
      "midi": 58,
      "hit": false,
      "t": 174666.66666666546,
      "d": 104.16666666665697,
      "v": 35
    },
    {
      "midi": 78,
      "hit": false,
      "t": 174791.66666666546,
      "d": 225,
      "v": 40
    },
    {
      "midi": 73,
      "hit": false,
      "t": 174808.33333333212,
      "d": 216.66666666668607,
      "v": 45
    },
    {
      "midi": 66,
      "hit": false,
      "t": 174829.16666666546,
      "d": 183.33333333334303,
      "v": 30
    },
    {
      "midi": 79,
      "hit": false,
      "t": 175087.4999999988,
      "d": 99.99999999994179,
      "v": 50
    },
    {
      "midi": 67,
      "hit": false,
      "t": 175091.66666666546,
      "d": 54.16666666662786,
      "v": 46
    },
    {
      "midi": 62,
      "hit": false,
      "t": 175095.83333333212,
      "d": 33.33333333331393,
      "v": 58
    },
    {
      "midi": 58,
      "hit": false,
      "t": 175099.99999999878,
      "d": 62.499999999970896,
      "v": 46
    },
    {
      "midi": 74,
      "hit": false,
      "t": 175099.99999999878,
      "d": 66.66666666662786,
      "v": 55
    },
    {
      "midi": 86,
      "hit": false,
      "t": 175433.3333333321,
      "d": 95.83333333334303,
      "v": 89
    },
    {
      "midi": 58,
      "hit": false,
      "t": 175466.66666666543,
      "d": 58.333333333343035,
      "v": 36
    },
    {
      "midi": 62,
      "hit": false,
      "t": 175470.8333333321,
      "d": 33.333333333343035,
      "v": 40
    },
    {
      "midi": 82,
      "hit": false,
      "t": 175579.16666666543,
      "d": 25,
      "v": 34
    },
    {
      "midi": 86,
      "hit": false,
      "t": 175687.49999999878,
      "d": 100,
      "v": 83
    },
    {
      "midi": 82,
      "hit": false,
      "t": 175829.16666666543,
      "d": 62.5,
      "v": 52
    },
    {
      "midi": 67,
      "hit": false,
      "t": 175858.3333333321,
      "d": 566.6666666666861,
      "v": 52
    },
    {
      "midi": 58,
      "hit": false,
      "t": 175866.66666666543,
      "d": 837.5000000000291,
      "v": 34
    },
    {
      "midi": 63,
      "hit": false,
      "t": 175870.8333333321,
      "d": 729.1666666666861,
      "v": 35
    },
    {
      "midi": 62,
      "hit": false,
      "t": 175883.3333333321,
      "d": 704.1666666666861,
      "v": 38
    },
    {
      "midi": 86,
      "hit": false,
      "t": 176491.66666666543,
      "d": 116.66666666668607,
      "v": 89
    },
    {
      "midi": 81,
      "hit": false,
      "t": 176762.4999999988,
      "d": 116.66666666668607,
      "v": 71
    },
    {
      "midi": 67,
      "hit": false,
      "t": 176774.9999999988,
      "d": 66.66666666668607,
      "v": 44
    },
    {
      "midi": 63,
      "hit": false,
      "t": 176779.16666666546,
      "d": 195.83333333337214,
      "v": 35
    },
    {
      "midi": 58,
      "hit": false,
      "t": 176787.4999999988,
      "d": 241.66666666668607,
      "v": 19
    },
    {
      "midi": 62,
      "hit": false,
      "t": 176795.83333333215,
      "d": 75,
      "v": 34
    },
    {
      "midi": 83,
      "hit": false,
      "t": 176949.99999999884,
      "d": 141.66666666665697,
      "v": 85
    },
    {
      "midi": 63,
      "hit": false,
      "t": 177170.83333333215,
      "d": 295.83333333334303,
      "v": 34
    },
    {
      "midi": 78,
      "hit": false,
      "t": 177179.1666666655,
      "d": 112.5,
      "v": 52
    },
    {
      "midi": 57,
      "hit": false,
      "t": 177179.1666666655,
      "d": 191.66666666665697,
      "v": 41
    },
    {
      "midi": 67,
      "hit": false,
      "t": 177183.33333333215,
      "d": 50,
      "v": 32
    },
    {
      "midi": 75,
      "hit": false,
      "t": 177333.33333333215,
      "d": 145.83333333334303,
      "v": 36
    },
    {
      "midi": 62,
      "hit": false,
      "t": 177533.33333333215,
      "d": 200.0000000000582,
      "v": 38
    },
    {
      "midi": 73,
      "hit": false,
      "t": 177541.6666666655,
      "d": 95.83333333337214,
      "v": 57
    },
    {
      "midi": 65,
      "hit": false,
      "t": 177549.99999999884,
      "d": 41.66666666668607,
      "v": 35
    },
    {
      "midi": 60,
      "hit": false,
      "t": 177558.33333333218,
      "d": 166.66666666668607,
      "v": 29
    },
    {
      "midi": 55,
      "hit": false,
      "t": 177612.49999999886,
      "d": 158.33333333334303,
      "v": 18
    },
    {
      "midi": 74,
      "hit": false,
      "t": 177720.8333333322,
      "d": 170.83333333334303,
      "v": 36
    },
    {
      "midi": 75,
      "hit": false,
      "t": 177962.4999999989,
      "d": 66.66666666665697,
      "v": 43
    },
    {
      "midi": 62,
      "hit": false,
      "t": 177966.66666666555,
      "d": 108.33333333334303,
      "v": 34
    },
    {
      "midi": 76,
      "hit": false,
      "t": 178116.66666666555,
      "d": 204.16666666665697,
      "v": 49
    },
    {
      "midi": 77,
      "hit": false,
      "t": 178358.3333333322,
      "d": 100,
      "v": 68
    },
    {
      "midi": 65,
      "hit": false,
      "t": 178374.99999999886,
      "d": 29.16666666668607,
      "v": 27
    },
    {
      "midi": 62,
      "hit": false,
      "t": 178383.3333333322,
      "d": 79.16666666665697,
      "v": 33
    },
    {
      "midi": 60,
      "hit": false,
      "t": 178408.3333333322,
      "d": 83.33333333331393,
      "v": 27
    },
    {
      "midi": 74,
      "hit": false,
      "t": 178516.66666666552,
      "d": 150,
      "v": 25
    },
    {
      "midi": 65,
      "hit": false,
      "t": 178724.99999999886,
      "d": 800,
      "v": 64
    },
    {
      "midi": 62,
      "hit": false,
      "t": 179512.49999999886,
      "d": 83.33333333331393,
      "v": 40
    },
    {
      "midi": 60,
      "hit": false,
      "t": 179529.16666666552,
      "d": 54.166666666656965,
      "v": 26
    },
    {
      "midi": 67,
      "hit": false,
      "t": 179645.83333333218,
      "d": 195.83333333334303,
      "v": 30
    },
    {
      "midi": 69,
      "hit": false,
      "t": 179887.49999999886,
      "d": 91.66666666665697,
      "v": 65
    },
    {
      "midi": 62,
      "hit": false,
      "t": 179891.66666666552,
      "d": 54.166666666656965,
      "v": 35
    },
    {
      "midi": 60,
      "hit": false,
      "t": 179916.66666666552,
      "d": 41.666666666656965,
      "v": 26
    },
    {
      "midi": 70,
      "hit": false,
      "t": 180037.49999999886,
      "d": 166.66666666665697,
      "v": 54
    },
    {
      "midi": 69,
      "hit": false,
      "t": 180274.99999999886,
      "d": 100,
      "v": 65
    },
    {
      "midi": 62,
      "hit": false,
      "t": 180283.3333333322,
      "d": 50,
      "v": 37
    },
    {
      "midi": 60,
      "hit": false,
      "t": 180308.3333333322,
      "d": 41.666666666656965,
      "v": 24
    },
    {
      "midi": 67,
      "hit": false,
      "t": 180429.16666666552,
      "d": 237.5,
      "v": 44
    },
    {
      "midi": 66,
      "hit": false,
      "t": 180679.16666666552,
      "d": 108.33333333334303,
      "v": 44
    },
    {
      "midi": 60,
      "hit": false,
      "t": 180812.49999999886,
      "d": 429.16666666665697,
      "v": 24
    },
    {
      "midi": 63,
      "hit": false,
      "t": 180824.99999999886,
      "d": 400,
      "v": 23
    },
    {
      "midi": 67,
      "hit": false,
      "t": 180833.3333333322,
      "d": 229.16666666665697,
      "v": 45
    },
    {
      "midi": 57,
      "hit": false,
      "t": 180845.8333333322,
      "d": 383.33333333331393,
      "v": 27
    },
    {
      "midi": 55,
      "hit": false,
      "t": 180849.99999999886,
      "d": 391.66666666665697,
      "v": 24
    },
    {
      "midi": 69,
      "hit": false,
      "t": 181099.99999999886,
      "d": 116.66666666665697,
      "v": 80
    },
    {
      "midi": 70,
      "hit": false,
      "t": 181270.83333333218,
      "d": 191.66666666665697,
      "v": 48
    },
    {
      "midi": 72,
      "hit": false,
      "t": 181491.6666666655,
      "d": 87.5,
      "v": 63
    },
    {
      "midi": 65,
      "hit": false,
      "t": 181495.83333333215,
      "d": 166.66666666668607,
      "v": 44
    },
    {
      "midi": 60,
      "hit": false,
      "t": 181504.1666666655,
      "d": 279.16666666668607,
      "v": 45
    },
    {
      "midi": 54,
      "hit": false,
      "t": 181512.49999999884,
      "d": 604.166666666657,
      "v": 25
    },
    {
      "midi": 58,
      "hit": false,
      "t": 181516.6666666655,
      "d": 345.83333333334303,
      "v": 27
    },
    {
      "midi": 75,
      "hit": false,
      "t": 181683.33333333218,
      "d": 116.66666666665697,
      "v": 59
    },
    {
      "midi": 78,
      "hit": false,
      "t": 181899.99999999884,
      "d": 120.83333333334303,
      "v": 72
    },
    {
      "midi": 60,
      "hit": false,
      "t": 182020.83333333218,
      "d": 54.166666666656965,
      "v": 34
    },
    {
      "midi": 82,
      "hit": false,
      "t": 182087.49999999884,
      "d": 195.83333333331393,
      "v": 63
    },
    {
      "midi": 84,
      "hit": false,
      "t": 182308.33333333215,
      "d": 141.66666666668607,
      "v": 80
    },
    {
      "midi": 57,
      "hit": false,
      "t": 182383.33333333215,
      "d": 87.5000000000291,
      "v": 32
    },
    {
      "midi": 62,
      "hit": false,
      "t": 182391.6666666655,
      "d": 33.333333333343035,
      "v": 20
    },
    {
      "midi": 81,
      "hit": false,
      "t": 182491.66666666552,
      "d": 158.33333333334303,
      "v": 53
    },
    {
      "midi": 78,
      "hit": false,
      "t": 182712.49999999886,
      "d": 70.83333333334303,
      "v": 35
    },
    {
      "midi": 79,
      "hit": false,
      "t": 182837.49999999886,
      "d": 208.33333333334303,
      "v": 69
    },
    {
      "midi": 74,
      "hit": false,
      "t": 183074.99999999886,
      "d": 733.3333333332848,
      "v": 64
    },
    {
      "midi": 62,
      "hit": false,
      "t": 183079.16666666552,
      "d": 591.6666666666279,
      "v": 33
    },
    {
      "midi": 55,
      "hit": false,
      "t": 183091.66666666552,
      "d": 499.9999999999709,
      "v": 44
    },
    {
      "midi": 58,
      "hit": false,
      "t": 183091.66666666552,
      "d": 554.1666666666279,
      "v": 31
    },
    {
      "midi": 57,
      "hit": false,
      "t": 183095.83333333218,
      "d": 479.16666666665697,
      "v": 32
    },
    {
      "midi": 60,
      "hit": false,
      "t": 183879.1666666655,
      "d": 33.33333333331393,
      "v": 43
    },
    {
      "midi": 63,
      "hit": false,
      "t": 183883.33333333215,
      "d": 41.666666666656965,
      "v": 43
    },
    {
      "midi": 55,
      "hit": false,
      "t": 183995.83333333215,
      "d": 595.833333333343,
      "v": 1
    },
    {
      "midi": 74,
      "hit": false,
      "t": 184004.1666666655,
      "d": 58.333333333343035,
      "v": 70
    },
    {
      "midi": 60,
      "hit": false,
      "t": 184037.49999999884,
      "d": 462.5,
      "v": 4
    },
    {
      "midi": 75,
      "hit": false,
      "t": 184079.1666666655,
      "d": 100,
      "v": 62
    },
    {
      "midi": 74,
      "hit": false,
      "t": 184133.33333333215,
      "d": 104.16666666668607,
      "v": 49
    },
    {
      "midi": 72,
      "hit": false,
      "t": 184249.99999999884,
      "d": 66.66666666665697,
      "v": 52
    },
    {
      "midi": 63,
      "hit": false,
      "t": 184374.99999999884,
      "d": 241.66666666665697,
      "v": 42
    },
    {
      "midi": 74,
      "hit": false,
      "t": 184395.83333333218,
      "d": 91.66666666665697,
      "v": 59
    },
    {
      "midi": 54,
      "hit": false,
      "t": 184754.1666666655,
      "d": 254.16666666668607,
      "v": 31
    },
    {
      "midi": 63,
      "hit": false,
      "t": 184816.6666666655,
      "d": 145.83333333334303,
      "v": 69
    },
    {
      "midi": 60,
      "hit": false,
      "t": 185141.66666666552,
      "d": 45.83333333331393,
      "v": 45
    },
    {
      "midi": 54,
      "hit": false,
      "t": 185154.16666666552,
      "d": 120.83333333331393,
      "v": 25
    },
    {
      "midi": 58,
      "hit": false,
      "t": 185170.83333333218,
      "d": 100,
      "v": 23
    },
    {
      "midi": 63,
      "hit": false,
      "t": 185183.33333333218,
      "d": 66.66666666665697,
      "v": 59
    },
    {
      "midi": 68,
      "hit": false,
      "t": 185279.1666666655,
      "d": 87.5,
      "v": 45
    },
    {
      "midi": 72,
      "hit": false,
      "t": 185404.1666666655,
      "d": 79.16666666665697,
      "v": 45
    },
    {
      "midi": 73,
      "hit": false,
      "t": 185520.83333333215,
      "d": 66.66666666665697,
      "v": 59
    },
    {
      "midi": 75,
      "hit": false,
      "t": 185641.66666666546,
      "d": 66.66666666668607,
      "v": 76
    },
    {
      "midi": 62,
      "hit": false,
      "t": 185649.9999999988,
      "d": 308.33333333334303,
      "v": 52
    },
    {
      "midi": 57,
      "hit": false,
      "t": 185666.66666666546,
      "d": 91.66666666668607,
      "v": 34
    },
    {
      "midi": 58,
      "hit": false,
      "t": 185666.66666666546,
      "d": 391.66666666668607,
      "v": 25
    },
    {
      "midi": 55,
      "hit": false,
      "t": 185687.4999999988,
      "d": 504.16666666668607,
      "v": 30
    },
    {
      "midi": 74,
      "hit": false,
      "t": 185783.33333333215,
      "d": 104.16666666665697,
      "v": 74
    },
    {
      "midi": 70,
      "hit": false,
      "t": 186033.33333333215,
      "d": 70.83333333334303,
      "v": 59
    },
    {
      "midi": 72,
      "hit": false,
      "t": 186145.83333333215,
      "d": 100,
      "v": 56
    },
    {
      "midi": 69,
      "hit": false,
      "t": 186270.83333333215,
      "d": 441.66666666662786,
      "v": 66
    },
    {
      "midi": 62,
      "hit": false,
      "t": 186279.1666666655,
      "d": 275,
      "v": 45
    },
    {
      "midi": 58,
      "hit": false,
      "t": 186299.99999999884,
      "d": 274.9999999999709,
      "v": 30
    },
    {
      "midi": 57,
      "hit": false,
      "t": 186304.1666666655,
      "d": 254.16666666665697,
      "v": 34
    },
    {
      "midi": 55,
      "hit": false,
      "t": 186408.33333333215,
      "d": 366.66666666662786,
      "v": 1
    },
    {
      "midi": 70,
      "hit": false,
      "t": 186679.16666666546,
      "d": 554.1666666666279,
      "v": 74
    },
    {
      "midi": 62,
      "hit": false,
      "t": 186704.16666666546,
      "d": 166.66666666662786,
      "v": 42
    },
    {
      "midi": 58,
      "hit": false,
      "t": 186708.33333333212,
      "d": 120.83333333331393,
      "v": 36
    },
    {
      "midi": 63,
      "hit": false,
      "t": 187220.8333333321,
      "d": 416.66666666665697,
      "v": 38
    },
    {
      "midi": 60,
      "hit": false,
      "t": 187229.16666666543,
      "d": 379.16666666665697,
      "v": 36
    },
    {
      "midi": 57,
      "hit": false,
      "t": 187237.49999999875,
      "d": 395.83333333334303,
      "v": 39
    },
    {
      "midi": 55,
      "hit": false,
      "t": 187249.99999999875,
      "d": 362.5,
      "v": 32
    },
    {
      "midi": 65,
      "hit": false,
      "t": 188008.3333333321,
      "d": 404.16666666668607,
      "v": 49
    },
    {
      "midi": 60,
      "hit": false,
      "t": 188016.66666666543,
      "d": 425,
      "v": 49
    },
    {
      "midi": 54,
      "hit": false,
      "t": 188024.99999999878,
      "d": 508.33333333331393,
      "v": 31
    },
    {
      "midi": 58,
      "hit": false,
      "t": 188029.16666666543,
      "d": 454.16666666665697,
      "v": 33
    },
    {
      "midi": 72,
      "hit": false,
      "t": 188299.99999999878,
      "d": 58.333333333343035,
      "v": 62
    },
    {
      "midi": 75,
      "hit": false,
      "t": 188479.16666666543,
      "d": 70.83333333331393,
      "v": 48
    },
    {
      "midi": 82,
      "hit": false,
      "t": 188691.6666666654,
      "d": 116.66666666665697,
      "v": 65
    },
    {
      "midi": 62,
      "hit": false,
      "t": 188691.6666666654,
      "d": 483.33333333334303,
      "v": 41
    },
    {
      "midi": 57,
      "hit": false,
      "t": 188695.83333333206,
      "d": 487.5000000000291,
      "v": 43
    },
    {
      "midi": 58,
      "hit": false,
      "t": 188695.83333333206,
      "d": 550.0000000000291,
      "v": 28
    },
    {
      "midi": 55,
      "hit": false,
      "t": 188720.83333333206,
      "d": 633.3333333333721,
      "v": 31
    },
    {
      "midi": 78,
      "hit": false,
      "t": 188908.33333333206,
      "d": 158.33333333334303,
      "v": 36
    },
    {
      "midi": 81,
      "hit": false,
      "t": 189099.99999999875,
      "d": 95.83333333334303,
      "v": 71
    },
    {
      "midi": 79,
      "hit": false,
      "t": 189258.3333333321,
      "d": 187.5,
      "v": 50
    },
    {
      "midi": 74,
      "hit": false,
      "t": 189474.99999999875,
      "d": 79.16666666668607,
      "v": 57
    },
    {
      "midi": 55,
      "hit": false,
      "t": 189499.99999999875,
      "d": 612.5000000000291,
      "v": 36
    },
    {
      "midi": 58,
      "hit": false,
      "t": 189508.3333333321,
      "d": 150,
      "v": 25
    },
    {
      "midi": 57,
      "hit": false,
      "t": 189516.66666666543,
      "d": 116.66666666665697,
      "v": 29
    },
    {
      "midi": 74,
      "hit": false,
      "t": 189637.49999999875,
      "d": 145.83333333334303,
      "v": 35
    },
    {
      "midi": 62,
      "hit": false,
      "t": 189891.66666666543,
      "d": 50,
      "v": 34
    },
    {
      "midi": 58,
      "hit": false,
      "t": 189904.16666666543,
      "d": 91.66666666668607,
      "v": 28
    },
    {
      "midi": 57,
      "hit": false,
      "t": 189904.16666666543,
      "d": 133.33333333334303,
      "v": 33
    },
    {
      "midi": 71,
      "hit": false,
      "t": 189908.3333333321,
      "d": 66.66666666668607,
      "v": 38
    },
    {
      "midi": 67,
      "hit": false,
      "t": 190149.99999999878,
      "d": 170.83333333334303,
      "v": 1
    },
    {
      "midi": 57,
      "hit": false,
      "t": 190299.99999999878,
      "d": 41.66666666668607,
      "v": 38
    },
    {
      "midi": 58,
      "hit": false,
      "t": 190308.33333333212,
      "d": 25,
      "v": 27
    },
    {
      "midi": 70,
      "hit": false,
      "t": 190408.33333333212,
      "d": 287.5,
      "v": 68
    },
    {
      "midi": 66,
      "hit": false,
      "t": 190691.66666666546,
      "d": 66.66666666665697,
      "v": 31
    },
    {
      "midi": 67,
      "hit": false,
      "t": 190808.33333333212,
      "d": 308.33333333334303,
      "v": 71
    },
    {
      "midi": 60,
      "hit": false,
      "t": 191079.16666666546,
      "d": 420.83333333334303,
      "v": 57
    },
    {
      "midi": 57,
      "hit": false,
      "t": 191508.33333333215,
      "d": 41.666666666656965,
      "v": 35
    },
    {
      "midi": 67,
      "hit": false,
      "t": 191604.16666666546,
      "d": 320.83333333334303,
      "v": 61
    },
    {
      "midi": 60,
      "hit": false,
      "t": 191874.9999999988,
      "d": 29.166666666656965,
      "v": 41
    },
    {
      "midi": 51,
      "hit": false,
      "t": 191891.66666666546,
      "d": 33.333333333343035,
      "v": 34
    },
    {
      "midi": 65,
      "hit": false,
      "t": 192008.33333333215,
      "d": 275,
      "v": 60
    },
    {
      "midi": 60,
      "hit": false,
      "t": 192270.83333333215,
      "d": 462.5,
      "v": 64
    },
    {
      "midi": 51,
      "hit": false,
      "t": 192283.33333333215,
      "d": 445.83333333334303,
      "v": 36
    },
    {
      "midi": 57,
      "hit": false,
      "t": 192291.6666666655,
      "d": 362.5,
      "v": 30
    },
    {
      "midi": 57,
      "hit": false,
      "t": 192804.1666666655,
      "d": 54.166666666656965,
      "v": 17
    },
    {
      "midi": 65,
      "hit": false,
      "t": 192804.1666666655,
      "d": 229.16666666665697,
      "v": 57
    },
    {
      "midi": 51,
      "hit": false,
      "t": 192808.33333333215,
      "d": 83.33333333334303,
      "v": 26
    },
    {
      "midi": 60,
      "hit": false,
      "t": 193079.1666666655,
      "d": 33.333333333343035,
      "v": 30
    },
    {
      "midi": 63,
      "hit": false,
      "t": 193199.99999999884,
      "d": 229.16666666665697,
      "v": 50
    },
    {
      "midi": 51,
      "hit": false,
      "t": 193199.99999999884,
      "d": 300,
      "v": 34
    },
    {
      "midi": 65,
      "hit": false,
      "t": 193449.99999999884,
      "d": 108.33333333334303,
      "v": 55
    },
    {
      "midi": 58,
      "hit": false,
      "t": 193583.33333333218,
      "d": 58.33333333331393,
      "v": 35
    },
    {
      "midi": 62,
      "hit": false,
      "t": 193608.33333333218,
      "d": 29.166666666656965,
      "v": 30
    },
    {
      "midi": 65,
      "hit": false,
      "t": 193895.83333333215,
      "d": 25,
      "v": 57
    },
    {
      "midi": 95,
      "hit": false,
      "t": 193899.9999999988,
      "d": 25,
      "v": 62
    },
    {
      "midi": 60,
      "hit": false,
      "t": 193908.33333333215,
      "d": 33.333333333343035,
      "v": 45
    },
    {
      "midi": 83,
      "hit": false,
      "t": 193912.4999999988,
      "d": 20.833333333343035,
      "v": 26
    },
    {
      "midi": 91,
      "hit": false,
      "t": 194154.1666666655,
      "d": 141.66666666662786,
      "v": 65
    },
    {
      "midi": 81,
      "hit": false,
      "t": 194158.33333333215,
      "d": 137.4999999999709,
      "v": 63
    },
    {
      "midi": 62,
      "hit": false,
      "t": 194162.4999999988,
      "d": 174.9999999999709,
      "v": 60
    },
    {
      "midi": 65,
      "hit": false,
      "t": 194166.66666666546,
      "d": 154.16666666665697,
      "v": 62
    },
    {
      "midi": 90,
      "hit": false,
      "t": 194170.83333333212,
      "d": 41.666666666656965,
      "v": 47
    },
    {
      "midi": 60,
      "hit": false,
      "t": 194174.99999999878,
      "d": 158.33333333334303,
      "v": 58
    },
    {
      "midi": 62,
      "hit": false,
      "t": 194704.16666666543,
      "d": 66.66666666662786,
      "v": 62
    },
    {
      "midi": 74,
      "hit": false,
      "t": 194708.3333333321,
      "d": 29.166666666656965,
      "v": 66
    },
    {
      "midi": 86,
      "hit": false,
      "t": 194712.49999999875,
      "d": 29.166666666656965,
      "v": 49
    },
    {
      "midi": 65,
      "hit": false,
      "t": 194716.6666666654,
      "d": 29.166666666656965,
      "v": 44
    },
    {
      "midi": 60,
      "hit": false,
      "t": 194724.99999999875,
      "d": 29.166666666656965,
      "v": 40
    },
    {
      "midi": 62,
      "hit": false,
      "t": 194966.6666666654,
      "d": 41.666666666656965,
      "v": 50
    },
    {
      "midi": 65,
      "hit": false,
      "t": 194970.83333333206,
      "d": 41.666666666656965,
      "v": 46
    },
    {
      "midi": 60,
      "hit": false,
      "t": 194974.99999999872,
      "d": 104.16666666665697,
      "v": 48
    },
    {
      "midi": 65,
      "hit": false,
      "t": 195220.83333333203,
      "d": 212.4999999999709,
      "v": 71
    },
    {
      "midi": 61,
      "hit": false,
      "t": 195220.83333333203,
      "d": 229.16666666662786,
      "v": 56
    },
    {
      "midi": 60,
      "hit": false,
      "t": 195224.9999999987,
      "d": 212.4999999999709,
      "v": 65
    },
    {
      "midi": 89,
      "hit": false,
      "t": 195229.16666666535,
      "d": 183.33333333331393,
      "v": 67
    },
    {
      "midi": 55,
      "hit": false,
      "t": 195233.333333332,
      "d": 200,
      "v": 63
    },
    {
      "midi": 77,
      "hit": false,
      "t": 195237.49999999866,
      "d": 200,
      "v": 64
    },
    {
      "midi": 84,
      "hit": false,
      "t": 195245.833333332,
      "d": 179.16666666665697,
      "v": 65
    },
    {
      "midi": 65,
      "hit": false,
      "t": 195499.99999999866,
      "d": 41.66666666659876,
      "v": 48
    },
    {
      "midi": 88,
      "hit": false,
      "t": 195499.99999999866,
      "d": 62.49999999991269,
      "v": 57
    },
    {
      "midi": 61,
      "hit": false,
      "t": 195504.16666666532,
      "d": 58.33333333325572,
      "v": 46
    },
    {
      "midi": 60,
      "hit": false,
      "t": 195508.33333333198,
      "d": 29.16666666662786,
      "v": 57
    },
    {
      "midi": 55,
      "hit": false,
      "t": 195512.49999999863,
      "d": 37.49999999994179,
      "v": 35
    },
    {
      "midi": 83,
      "hit": false,
      "t": 195516.6666666653,
      "d": 29.16666666662786,
      "v": 49
    },
    {
      "midi": 76,
      "hit": false,
      "t": 195520.83333333195,
      "d": 33.33333333328483,
      "v": 35
    },
    {
      "midi": 87,
      "hit": false,
      "t": 195874.99999999857,
      "d": 266.66666666662786,
      "v": 73
    },
    {
      "midi": 60,
      "hit": false,
      "t": 195879.16666666523,
      "d": 387.4999999999709,
      "v": 68
    },
    {
      "midi": 75,
      "hit": false,
      "t": 195883.3333333319,
      "d": 262.4999999999709,
      "v": 69
    },
    {
      "midi": 82,
      "hit": false,
      "t": 195887.49999999854,
      "d": 291.66666666665697,
      "v": 62
    },
    {
      "midi": 65,
      "hit": false,
      "t": 195887.49999999854,
      "d": 341.66666666665697,
      "v": 71
    },
    {
      "midi": 61,
      "hit": false,
      "t": 195887.49999999854,
      "d": 383.33333333331393,
      "v": 46
    },
    {
      "midi": 55,
      "hit": false,
      "t": 195908.3333333319,
      "d": 337.4999999999709,
      "v": 50
    },
    {
      "midi": 61,
      "hit": false,
      "t": 196437.49999999852,
      "d": 99.9999999999709,
      "v": 30
    },
    {
      "midi": 55,
      "hit": false,
      "t": 196437.49999999852,
      "d": 112.4999999999709,
      "v": 45
    },
    {
      "midi": 72,
      "hit": false,
      "t": 196441.66666666517,
      "d": 45.83333333331393,
      "v": 44
    },
    {
      "midi": 65,
      "hit": false,
      "t": 196445.83333333183,
      "d": 50,
      "v": 30
    },
    {
      "midi": 84,
      "hit": false,
      "t": 196445.83333333183,
      "d": 75,
      "v": 44
    },
    {
      "midi": 74,
      "hit": false,
      "t": 196829.16666666514,
      "d": 45.833333333343035,
      "v": 95
    },
    {
      "midi": 86,
      "hit": false,
      "t": 196829.16666666514,
      "d": 108.33333333334303,
      "v": 88
    },
    {
      "midi": 54,
      "hit": false,
      "t": 196829.16666666514,
      "d": 187.5,
      "v": 72
    },
    {
      "midi": 65,
      "hit": false,
      "t": 196833.3333333318,
      "d": 70.83333333334303,
      "v": 74
    },
    {
      "midi": 82,
      "hit": false,
      "t": 196833.3333333318,
      "d": 87.5,
      "v": 69
    },
    {
      "midi": 79,
      "hit": false,
      "t": 196841.66666666514,
      "d": 25,
      "v": 54
    },
    {
      "midi": 58,
      "hit": false,
      "t": 196841.66666666514,
      "d": 70.83333333331393,
      "v": 50
    },
    {
      "midi": 60,
      "hit": false,
      "t": 196845.8333333318,
      "d": 62.5,
      "v": 55
    },
    {
      "midi": 74,
      "hit": false,
      "t": 196929.16666666514,
      "d": 75,
      "v": 62
    },
    {
      "midi": 60,
      "hit": false,
      "t": 196991.66666666514,
      "d": 87.5,
      "v": 53
    },
    {
      "midi": 82,
      "hit": false,
      "t": 196999.9999999985,
      "d": 79.16666666665697,
      "v": 50
    },
    {
      "midi": 65,
      "hit": false,
      "t": 197008.3333333318,
      "d": 62.5,
      "v": 43
    },
    {
      "midi": 86,
      "hit": false,
      "t": 197008.3333333318,
      "d": 62.5,
      "v": 44
    },
    {
      "midi": 74,
      "hit": false,
      "t": 197066.66666666514,
      "d": 79.16666666665697,
      "v": 63
    },
    {
      "midi": 54,
      "hit": false,
      "t": 197070.8333333318,
      "d": 104.16666666665697,
      "v": 57
    },
    {
      "midi": 86,
      "hit": false,
      "t": 197133.3333333318,
      "d": 41.666666666656965,
      "v": 39
    },
    {
      "midi": 82,
      "hit": false,
      "t": 197137.49999999846,
      "d": 62.499999999970896,
      "v": 56
    },
    {
      "midi": 58,
      "hit": false,
      "t": 197145.8333333318,
      "d": 33.33333333331393,
      "v": 34
    },
    {
      "midi": 65,
      "hit": false,
      "t": 197170.8333333318,
      "d": 24.999999999970896,
      "v": 32
    },
    {
      "midi": 60,
      "hit": false,
      "t": 197179.1666666651,
      "d": 24.999999999970896,
      "v": 27
    },
    {
      "midi": 82,
      "hit": false,
      "t": 197879.16666666509,
      "d": 470.83333333334303,
      "v": 73
    },
    {
      "midi": 54,
      "hit": false,
      "t": 197879.16666666509,
      "d": 487.5,
      "v": 63
    },
    {
      "midi": 74,
      "hit": false,
      "t": 197883.33333333174,
      "d": 366.66666666668607,
      "v": 84
    },
    {
      "midi": 60,
      "hit": false,
      "t": 197883.33333333174,
      "d": 395.83333333334303,
      "v": 63
    },
    {
      "midi": 86,
      "hit": false,
      "t": 197883.33333333174,
      "d": 445.83333333334303,
      "v": 75
    },
    {
      "midi": 65,
      "hit": false,
      "t": 197891.66666666509,
      "d": 383.33333333334303,
      "v": 68
    },
    {
      "midi": 58,
      "hit": false,
      "t": 197891.66666666509,
      "d": 479.16666666665697,
      "v": 51
    },
    {
      "midi": 64,
      "hit": false,
      "t": 198420.83333333174,
      "d": 133.33333333331393,
      "v": 57
    },
    {
      "midi": 86,
      "hit": false,
      "t": 198424.9999999984,
      "d": 158.33333333334303,
      "v": 56
    },
    {
      "midi": 76,
      "hit": false,
      "t": 198429.16666666506,
      "d": 120.83333333334303,
      "v": 53
    },
    {
      "midi": 53,
      "hit": false,
      "t": 198429.16666666506,
      "d": 137.5,
      "v": 54
    },
    {
      "midi": 59,
      "hit": false,
      "t": 198429.16666666506,
      "d": 145.83333333334303,
      "v": 57
    },
    {
      "midi": 81,
      "hit": false,
      "t": 198429.16666666506,
      "d": 154.16666666668607,
      "v": 58
    },
    {
      "midi": 59,
      "hit": false,
      "t": 199099.9999999984,
      "d": 29.166666666656965,
      "v": 29
    },
    {
      "midi": 87,
      "hit": false,
      "t": 199187.4999999984,
      "d": 170.83333333331393,
      "v": 70
    },
    {
      "midi": 81,
      "hit": false,
      "t": 199191.66666666506,
      "d": 216.66666666665697,
      "v": 69
    },
    {
      "midi": 93,
      "hit": false,
      "t": 199191.66666666506,
      "d": 216.66666666665697,
      "v": 76
    },
    {
      "midi": 59,
      "hit": false,
      "t": 199191.66666666506,
      "d": 233.33333333331393,
      "v": 66
    },
    {
      "midi": 64,
      "hit": false,
      "t": 199195.8333333317,
      "d": 208.33333333334303,
      "v": 62
    },
    {
      "midi": 53,
      "hit": false,
      "t": 199199.99999999837,
      "d": 220.83333333334303,
      "v": 48
    },
    {
      "midi": 54,
      "hit": false,
      "t": 199224.99999999837,
      "d": 66.66666666665697,
      "v": 33
    },
    {
      "midi": 88,
      "hit": false,
      "t": 199349.99999999837,
      "d": 87.5,
      "v": 52
    },
    {
      "midi": 80,
      "hit": false,
      "t": 199587.49999999837,
      "d": 183.33333333334303,
      "v": 67
    },
    {
      "midi": 64,
      "hit": false,
      "t": 199591.66666666503,
      "d": 120.83333333334303,
      "v": 62
    },
    {
      "midi": 92,
      "hit": false,
      "t": 199591.66666666503,
      "d": 170.83333333334303,
      "v": 70
    },
    {
      "midi": 53,
      "hit": false,
      "t": 199591.66666666503,
      "d": 179.16666666668607,
      "v": 57
    },
    {
      "midi": 59,
      "hit": false,
      "t": 199599.99999999837,
      "d": 66.66666666665697,
      "v": 47
    },
    {
      "midi": 87,
      "hit": false,
      "t": 199599.99999999837,
      "d": 179.16666666668607,
      "v": 65
    },
    {
      "midi": 57,
      "hit": false,
      "t": 199999.9999999984,
      "d": 412.4999999999709,
      "v": 55
    },
    {
      "midi": 91,
      "hit": false,
      "t": 200004.16666666506,
      "d": 404.16666666665697,
      "v": 66
    },
    {
      "midi": 79,
      "hit": false,
      "t": 200008.3333333317,
      "d": 354.16666666665697,
      "v": 55
    },
    {
      "midi": 86,
      "hit": false,
      "t": 200008.3333333317,
      "d": 387.5,
      "v": 59
    },
    {
      "midi": 62,
      "hit": false,
      "t": 200012.49999999837,
      "d": 412.5,
      "v": 54
    },
    {
      "midi": 58,
      "hit": false,
      "t": 200016.66666666503,
      "d": 404.16666666668607,
      "v": 46
    },
    {
      "midi": 52,
      "hit": false,
      "t": 200016.66666666503,
      "d": 425,
      "v": 57
    },
    {
      "midi": 62,
      "hit": false,
      "t": 200812.49999999837,
      "d": 145.83333333331393,
      "v": 76
    },
    {
      "midi": 57,
      "hit": false,
      "t": 200812.49999999837,
      "d": 154.16666666662786,
      "v": 74
    },
    {
      "midi": 98,
      "hit": false,
      "t": 200816.66666666503,
      "d": 145.83333333331393,
      "v": 84
    },
    {
      "midi": 58,
      "hit": false,
      "t": 200816.66666666503,
      "d": 149.9999999999709,
      "v": 50
    },
    {
      "midi": 52,
      "hit": false,
      "t": 200816.66666666503,
      "d": 158.33333333331393,
      "v": 72
    },
    {
      "midi": 86,
      "hit": false,
      "t": 200820.83333333168,
      "d": 129.16666666665697,
      "v": 69
    },
    {
      "midi": 94,
      "hit": false,
      "t": 200820.83333333168,
      "d": 154.16666666665697,
      "v": 59
    },
    {
      "midi": 91,
      "hit": false,
      "t": 200824.99999999834,
      "d": 141.66666666665697,
      "v": 66
    },
    {
      "midi": 57,
      "hit": false,
      "t": 201220.83333333168,
      "d": 79.16666666662786,
      "v": 50
    },
    {
      "midi": 91,
      "hit": false,
      "t": 201220.83333333168,
      "d": 95.83333333328483,
      "v": 72
    },
    {
      "midi": 96,
      "hit": false,
      "t": 201220.83333333168,
      "d": 99.99999999994179,
      "v": 76
    },
    {
      "midi": 62,
      "hit": false,
      "t": 201220.83333333168,
      "d": 145.83333333325572,
      "v": 66
    },
    {
      "midi": 52,
      "hit": false,
      "t": 201224.99999999834,
      "d": 70.83333333331393,
      "v": 53
    },
    {
      "midi": 58,
      "hit": false,
      "t": 201229.166666665,
      "d": 108.33333333328483,
      "v": 40
    },
    {
      "midi": 84,
      "hit": false,
      "t": 201229.166666665,
      "d": 108.33333333328483,
      "v": 66
    },
    {
      "midi": 94,
      "hit": false,
      "t": 201624.99999999828,
      "d": 433.3333333332848,
      "v": 71
    },
    {
      "midi": 67,
      "hit": false,
      "t": 201629.16666666494,
      "d": 408.3333333332848,
      "v": 68
    },
    {
      "midi": 87,
      "hit": false,
      "t": 201633.3333333316,
      "d": 399.9999999999709,
      "v": 67
    },
    {
      "midi": 58,
      "hit": false,
      "t": 201633.3333333316,
      "d": 495.83333333331393,
      "v": 56
    },
    {
      "midi": 82,
      "hit": false,
      "t": 201637.49999999825,
      "d": 399.9999999999709,
      "v": 64
    },
    {
      "midi": 63,
      "hit": false,
      "t": 201637.49999999825,
      "d": 420.83333333331393,
      "v": 48
    },
    {
      "midi": 91,
      "hit": false,
      "t": 201641.6666666649,
      "d": 362.5,
      "v": 55
    },
    {
      "midi": 62,
      "hit": false,
      "t": 201641.6666666649,
      "d": 375,
      "v": 58
    },
    {
      "midi": 61,
      "hit": false,
      "t": 202674.99999999825,
      "d": 424.9999999999709,
      "v": 70
    },
    {
      "midi": 60,
      "hit": false,
      "t": 202679.1666666649,
      "d": 324.9999999999709,
      "v": 78
    },
    {
      "midi": 65,
      "hit": false,
      "t": 202679.1666666649,
      "d": 383.33333333331393,
      "v": 85
    },
    {
      "midi": 91,
      "hit": false,
      "t": 202687.49999999822,
      "d": 383.33333333334303,
      "v": 89
    },
    {
      "midi": 55,
      "hit": false,
      "t": 202687.49999999822,
      "d": 400,
      "v": 75
    },
    {
      "midi": 96,
      "hit": false,
      "t": 202687.49999999822,
      "d": 400,
      "v": 89
    },
    {
      "midi": 84,
      "hit": false,
      "t": 202691.66666666488,
      "d": 362.5,
      "v": 92
    },
    {
      "midi": 58,
      "hit": false,
      "t": 202699.99999999822,
      "d": 29.166666666656965,
      "v": 35
    },
    {
      "midi": 54,
      "hit": false,
      "t": 203233.33333333157,
      "d": 512.4999999999709,
      "v": 62
    },
    {
      "midi": 86,
      "hit": false,
      "t": 203237.49999999822,
      "d": 416.66666666665697,
      "v": 84
    },
    {
      "midi": 93,
      "hit": false,
      "t": 203237.49999999822,
      "d": 437.5,
      "v": 84
    },
    {
      "midi": 98,
      "hit": false,
      "t": 203237.49999999822,
      "d": 454.16666666665697,
      "v": 87
    },
    {
      "midi": 59,
      "hit": false,
      "t": 203237.49999999822,
      "d": 470.83333333331393,
      "v": 66
    },
    {
      "midi": 60,
      "hit": false,
      "t": 203237.49999999822,
      "d": 504.16666666665697,
      "v": 74
    },
    {
      "midi": 64,
      "hit": false,
      "t": 203245.83333333157,
      "d": 474.9999999999709,
      "v": 80
    },
    {
      "midi": 101,
      "hit": false,
      "t": 203866.66666666488,
      "d": 483.3333333332848,
      "v": 90
    },
    {
      "midi": 89,
      "hit": false,
      "t": 203870.83333333154,
      "d": 441.66666666662786,
      "v": 90
    },
    {
      "midi": 96,
      "hit": false,
      "t": 203874.9999999982,
      "d": 470.83333333331393,
      "v": 85
    },
    {
      "midi": 54,
      "hit": false,
      "t": 203874.9999999982,
      "d": 545.8333333333139,
      "v": 73
    },
    {
      "midi": 64,
      "hit": false,
      "t": 203874.9999999982,
      "d": 583.3333333333139,
      "v": 89
    },
    {
      "midi": 59,
      "hit": false,
      "t": 203879.16666666485,
      "d": 445.83333333331393,
      "v": 74
    },
    {
      "midi": 60,
      "hit": false,
      "t": 203879.16666666485,
      "d": 466.66666666665697,
      "v": 78
    },
    {
      "midi": 59,
      "hit": false,
      "t": 204637.49999999817,
      "d": 104.16666666662786,
      "v": 81
    },
    {
      "midi": 64,
      "hit": false,
      "t": 204641.66666666482,
      "d": 70.83333333331393,
      "v": 89
    },
    {
      "midi": 103,
      "hit": false,
      "t": 204641.66666666482,
      "d": 104.16666666662786,
      "v": 80
    },
    {
      "midi": 98,
      "hit": false,
      "t": 204645.83333333148,
      "d": 112.4999999999709,
      "v": 87
    },
    {
      "midi": 53,
      "hit": false,
      "t": 204645.83333333148,
      "d": 129.16666666662786,
      "v": 80
    },
    {
      "midi": 91,
      "hit": false,
      "t": 204645.83333333148,
      "d": 129.16666666662786,
      "v": 80
    },
    {
      "midi": 43,
      "hit": false,
      "t": 205187.4999999981,
      "d": 404.16666666665697,
      "v": 95
    },
    {
      "midi": 31,
      "hit": false,
      "t": 205195.83333333145,
      "d": 341.66666666665697,
      "v": 94
    },
    {
      "midi": 41,
      "hit": false,
      "t": 205212.4999999981,
      "d": 33.333333333343035,
      "v": 40
    },
    {
      "midi": 61,
      "hit": false,
      "t": 205895.83333333142,
      "d": 70.83333333331393,
      "v": 27
    },
    {
      "midi": 68,
      "hit": false,
      "t": 205970.8333333314,
      "d": 195.83333333331393,
      "v": 83
    },
    {
      "midi": 75,
      "hit": false,
      "t": 205970.8333333314,
      "d": 212.4999999999709,
      "v": 81
    },
    {
      "midi": 63,
      "hit": false,
      "t": 205970.8333333314,
      "d": 220.83333333331393,
      "v": 77
    },
    {
      "midi": 64,
      "hit": false,
      "t": 205974.99999999805,
      "d": 183.33333333331393,
      "v": 81
    },
    {
      "midi": 72,
      "hit": false,
      "t": 205979.1666666647,
      "d": 200,
      "v": 68
    },
    {
      "midi": 63,
      "hit": false,
      "t": 206695.83333333136,
      "d": 416.66666666662786,
      "v": 82
    },
    {
      "midi": 70,
      "hit": false,
      "t": 206695.83333333136,
      "d": 449.9999999999709,
      "v": 54
    },
    {
      "midi": 59,
      "hit": false,
      "t": 206699.99999999802,
      "d": 24.999999999970896,
      "v": 65
    },
    {
      "midi": 62,
      "hit": false,
      "t": 206699.99999999802,
      "d": 270.83333333331393,
      "v": 81
    },
    {
      "midi": 67,
      "hit": false,
      "t": 206704.16666666468,
      "d": 366.66666666665697,
      "v": 67
    },
    {
      "midi": 71,
      "hit": false,
      "t": 206708.33333333133,
      "d": 25,
      "v": 69
    },
    {
      "midi": 60,
      "hit": false,
      "t": 206708.33333333133,
      "d": 354.16666666665697,
      "v": 79
    },
    {
      "midi": 53,
      "hit": false,
      "t": 207099.999999998,
      "d": 54.16666666668607,
      "v": 28
    },
    {
      "midi": 55,
      "hit": false,
      "t": 207187.49999999802,
      "d": 162.5,
      "v": 53
    },
    {
      "midi": 60,
      "hit": false,
      "t": 207195.83333333136,
      "d": 95.83333333334303,
      "v": 53
    },
    {
      "midi": 67,
      "hit": false,
      "t": 207204.1666666647,
      "d": 133.33333333331393,
      "v": 49
    },
    {
      "midi": 63,
      "hit": false,
      "t": 207212.49999999805,
      "d": 108.33333333331393,
      "v": 35
    },
    {
      "midi": 63,
      "hit": false,
      "t": 207579.16666666468,
      "d": 95.83333333331393,
      "v": 63
    },
    {
      "midi": 70,
      "hit": false,
      "t": 207579.16666666468,
      "d": 116.66666666665697,
      "v": 63
    },
    {
      "midi": 60,
      "hit": false,
      "t": 207587.49999999802,
      "d": 66.66666666665697,
      "v": 54
    },
    {
      "midi": 67,
      "hit": false,
      "t": 207587.49999999802,
      "d": 83.33333333331393,
      "v": 54
    },
    {
      "midi": 74,
      "hit": false,
      "t": 207983.33333333133,
      "d": 158.33333333331393,
      "v": 69
    },
    {
      "midi": 69,
      "hit": false,
      "t": 207995.83333333133,
      "d": 166.66666666665697,
      "v": 47
    },
    {
      "midi": 62,
      "hit": false,
      "t": 207999.999999998,
      "d": 141.66666666665697,
      "v": 49
    },
    {
      "midi": 66,
      "hit": false,
      "t": 207999.999999998,
      "d": 154.16666666665697,
      "v": 48
    },
    {
      "midi": 51,
      "hit": false,
      "t": 208004.16666666465,
      "d": 141.66666666665697,
      "v": 51
    },
    {
      "midi": 57,
      "hit": false,
      "t": 208004.16666666465,
      "d": 158.33333333334303,
      "v": 43
    },
    {
      "midi": 74,
      "hit": false,
      "t": 208249.999999998,
      "d": 108.33333333331393,
      "v": 79
    },
    {
      "midi": 66,
      "hit": false,
      "t": 208254.16666666465,
      "d": 91.66666666665697,
      "v": 60
    },
    {
      "midi": 62,
      "hit": false,
      "t": 208258.3333333313,
      "d": 79.16666666665697,
      "v": 71
    },
    {
      "midi": 51,
      "hit": false,
      "t": 208258.3333333313,
      "d": 91.66666666665697,
      "v": 62
    },
    {
      "midi": 69,
      "hit": false,
      "t": 208262.49999999796,
      "d": 104.16666666668607,
      "v": 62
    },
    {
      "midi": 57,
      "hit": false,
      "t": 208266.66666666462,
      "d": 70.83333333334303,
      "v": 64
    },
    {
      "midi": 51,
      "hit": false,
      "t": 208404.16666666465,
      "d": 137.4999999999418,
      "v": 46
    },
    {
      "midi": 74,
      "hit": false,
      "t": 208416.66666666465,
      "d": 137.4999999999418,
      "v": 49
    },
    {
      "midi": 62,
      "hit": false,
      "t": 208420.8333333313,
      "d": 112.4999999999709,
      "v": 44
    },
    {
      "midi": 57,
      "hit": false,
      "t": 208420.8333333313,
      "d": 124.99999999994179,
      "v": 49
    },
    {
      "midi": 66,
      "hit": false,
      "t": 208424.99999999796,
      "d": 112.4999999999709,
      "v": 47
    },
    {
      "midi": 69,
      "hit": false,
      "t": 208429.16666666462,
      "d": 124.9999999999709,
      "v": 65
    },
    {
      "midi": 74,
      "hit": false,
      "t": 208662.4999999979,
      "d": 91.66666666665697,
      "v": 76
    },
    {
      "midi": 69,
      "hit": false,
      "t": 208666.66666666456,
      "d": 95.83333333331393,
      "v": 64
    },
    {
      "midi": 62,
      "hit": false,
      "t": 208670.83333333122,
      "d": 66.66666666668607,
      "v": 68
    },
    {
      "midi": 66,
      "hit": false,
      "t": 208670.83333333122,
      "d": 70.83333333334303,
      "v": 60
    },
    {
      "midi": 51,
      "hit": false,
      "t": 208670.83333333122,
      "d": 87.5,
      "v": 64
    },
    {
      "midi": 57,
      "hit": false,
      "t": 208679.16666666456,
      "d": 58.333333333343035,
      "v": 63
    },
    {
      "midi": 62,
      "hit": false,
      "t": 208858.33333333122,
      "d": 66.66666666665697,
      "v": 64
    },
    {
      "midi": 51,
      "hit": false,
      "t": 208858.33333333122,
      "d": 83.33333333331393,
      "v": 55
    },
    {
      "midi": 66,
      "hit": false,
      "t": 208862.49999999788,
      "d": 66.66666666665697,
      "v": 50
    },
    {
      "midi": 74,
      "hit": false,
      "t": 208862.49999999788,
      "d": 79.16666666665697,
      "v": 65
    },
    {
      "midi": 69,
      "hit": false,
      "t": 208866.66666666453,
      "d": 79.16666666665697,
      "v": 55
    },
    {
      "midi": 57,
      "hit": false,
      "t": 208870.8333333312,
      "d": 45.833333333343035,
      "v": 55
    },
    {
      "midi": 51,
      "hit": false,
      "t": 209116.66666666453,
      "d": 87.4999999999709,
      "v": 67
    },
    {
      "midi": 62,
      "hit": false,
      "t": 209120.8333333312,
      "d": 24.999999999970896,
      "v": 74
    },
    {
      "midi": 66,
      "hit": false,
      "t": 209120.8333333312,
      "d": 49.999999999970896,
      "v": 68
    },
    {
      "midi": 74,
      "hit": false,
      "t": 209124.99999999785,
      "d": 104.16666666665697,
      "v": 66
    },
    {
      "midi": 57,
      "hit": false,
      "t": 209129.1666666645,
      "d": 41.666666666656965,
      "v": 54
    },
    {
      "midi": 69,
      "hit": false,
      "t": 209133.33333333116,
      "d": 33.333333333343035,
      "v": 46
    },
    {
      "midi": 56,
      "hit": false,
      "t": 209845.83333333116,
      "d": 66.66666666662786,
      "v": 64
    },
    {
      "midi": 90,
      "hit": false,
      "t": 209849.99999999782,
      "d": 20.83333333331393,
      "v": 72
    },
    {
      "midi": 67,
      "hit": false,
      "t": 209849.99999999782,
      "d": 45.83333333331393,
      "v": 74
    },
    {
      "midi": 62,
      "hit": false,
      "t": 209849.99999999782,
      "d": 70.83333333331393,
      "v": 62
    },
    {
      "midi": 82,
      "hit": false,
      "t": 209854.16666666447,
      "d": 37.5,
      "v": 64
    },
    {
      "midi": 94,
      "hit": false,
      "t": 209858.33333333113,
      "d": 50,
      "v": 36
    },
    {
      "midi": 95,
      "hit": false,
      "t": 209870.83333333113,
      "d": 29.166666666656965,
      "v": 49
    },
    {
      "midi": 92,
      "hit": false,
      "t": 210054.16666666447,
      "d": 66.66666666665697,
      "v": 68
    },
    {
      "midi": 80,
      "hit": false,
      "t": 210058.33333333113,
      "d": 58.333333333343035,
      "v": 62
    },
    {
      "midi": 62,
      "hit": false,
      "t": 210066.66666666447,
      "d": 58.33333333331393,
      "v": 62
    },
    {
      "midi": 56,
      "hit": false,
      "t": 210066.66666666447,
      "d": 79.16666666665697,
      "v": 53
    },
    {
      "midi": 67,
      "hit": false,
      "t": 210087.49999999782,
      "d": 29.166666666656965,
      "v": 33
    },
    {
      "midi": 88,
      "hit": false,
      "t": 210462.4999999978,
      "d": 149.9999999999709,
      "v": 80
    },
    {
      "midi": 76,
      "hit": false,
      "t": 210479.16666666445,
      "d": 91.66666666665697,
      "v": 47
    },
    {
      "midi": 64,
      "hit": false,
      "t": 210479.16666666445,
      "d": 187.4999999999709,
      "v": 78
    },
    {
      "midi": 77,
      "hit": false,
      "t": 210504.16666666445,
      "d": 25,
      "v": 28
    },
    {
      "midi": 63,
      "hit": false,
      "t": 210724.99999999776,
      "d": 170.83333333331393,
      "v": 57
    },
    {
      "midi": 87,
      "hit": false,
      "t": 210729.16666666442,
      "d": 112.5,
      "v": 69
    },
    {
      "midi": 85,
      "hit": false,
      "t": 210870.83333333107,
      "d": 183.33333333331393,
      "v": 43
    },
    {
      "midi": 61,
      "hit": false,
      "t": 210899.99999999773,
      "d": 166.66666666665697,
      "v": 36
    },
    {
      "midi": 61,
      "hit": false,
      "t": 211112.49999999773,
      "d": 83.33333333334303,
      "v": 12
    },
    {
      "midi": 82,
      "hit": false,
      "t": 211141.6666666644,
      "d": 45.833333333343035,
      "v": 30
    },
    {
      "midi": 63,
      "hit": false,
      "t": 211274.99999999773,
      "d": 25,
      "v": 30
    },
    {
      "midi": 85,
      "hit": false,
      "t": 211283.33333333107,
      "d": 87.5,
      "v": 71
    },
    {
      "midi": 54,
      "hit": false,
      "t": 211524.99999999773,
      "d": 50,
      "v": 47
    },
    {
      "midi": 81,
      "hit": false,
      "t": 211666.6666666644,
      "d": 195.83333333334303,
      "v": 58
    },
    {
      "midi": 57,
      "hit": false,
      "t": 211687.49999999773,
      "d": 25,
      "v": 27
    },
    {
      "midi": 82,
      "hit": false,
      "t": 211912.49999999773,
      "d": 329.16666666665697,
      "v": 60
    },
    {
      "midi": 46,
      "hit": false,
      "t": 211920.83333333107,
      "d": 212.5,
      "v": 29
    },
    {
      "midi": 34,
      "hit": false,
      "t": 211937.49999999773,
      "d": 237.5,
      "v": 29
    },
    {
      "midi": 34,
      "hit": false,
      "t": 212499.99999999773,
      "d": 1829.166666666686,
      "v": 32
    },
    {
      "midi": 22,
      "hit": false,
      "t": 212508.33333333107,
      "d": 1875,
      "v": 46
    }
  ]
}