{
  "jsonPath": "Rock/Brooklyn Indie/Ambulance Ltd/young-urban.json",
  "path": "Rock\\Brooklyn Indie\\Ambulance Ltd\\Young Urban.mid",
  "name": "Young Urban",
  "difficulty": "Advanced",
  "bpm": 114.0001710002565,
  "notes": [
    {
      "midi": 65,
      "hit": false,
      "t": 6315.780000000001,
      "d": 188.59620833333338,
      "v": 98
    },
    {
      "midi": 57,
      "hit": false,
      "t": 6315.780000000001,
      "d": 192.98216666666667,
      "v": 93
    },
    {
      "midi": 60,
      "hit": false,
      "t": 6315.780000000001,
      "d": 201.75408333333326,
      "v": 102
    },
    {
      "midi": 41,
      "hit": false,
      "t": 6315.780000000001,
      "d": 390.35029166666664,
      "v": 113
    },
    {
      "midi": 57,
      "hit": false,
      "t": 6578.937500000001,
      "d": 149.12258333333284,
      "v": 98
    },
    {
      "midi": 65,
      "hit": false,
      "t": 6578.937500000001,
      "d": 157.89449999999943,
      "v": 107
    },
    {
      "midi": 60,
      "hit": false,
      "t": 6578.937500000001,
      "d": 162.28045833333272,
      "v": 98
    },
    {
      "midi": 67,
      "hit": false,
      "t": 7368.410000000001,
      "d": 166.66641666666692,
      "v": 107
    },
    {
      "midi": 60,
      "hit": false,
      "t": 7368.410000000001,
      "d": 171.0523750000002,
      "v": 98
    },
    {
      "midi": 64,
      "hit": false,
      "t": 7368.410000000001,
      "d": 171.0523750000002,
      "v": 102
    },
    {
      "midi": 55,
      "hit": false,
      "t": 7368.410000000001,
      "d": 267.54345833333355,
      "v": 98
    },
    {
      "midi": 48,
      "hit": false,
      "t": 7368.410000000001,
      "d": 328.94687500000055,
      "v": 93
    },
    {
      "midi": 60,
      "hit": false,
      "t": 7631.567500000001,
      "d": 83.33320833333346,
      "v": 107
    },
    {
      "midi": 64,
      "hit": false,
      "t": 7631.567500000001,
      "d": 83.33320833333346,
      "v": 107
    },
    {
      "midi": 67,
      "hit": false,
      "t": 7631.567500000001,
      "d": 100.87704166666663,
      "v": 107
    },
    {
      "midi": 58,
      "hit": false,
      "t": 8157.8825000000015,
      "d": 1723.6816249999993,
      "v": 93
    },
    {
      "midi": 62,
      "hit": false,
      "t": 8157.8825000000015,
      "d": 1723.6816249999993,
      "v": 107
    },
    {
      "midi": 46,
      "hit": false,
      "t": 8157.8825000000015,
      "d": 1736.8395,
      "v": 113
    },
    {
      "midi": 65,
      "hit": false,
      "t": 8157.8825000000015,
      "d": 1741.2254583333342,
      "v": 102
    },
    {
      "midi": 67,
      "hit": false,
      "t": 8684.1975,
      "d": 236.8417500000014,
      "v": 113
    },
    {
      "midi": 69,
      "hit": false,
      "t": 8947.355000000003,
      "d": 214.91195833333404,
      "v": 102
    },
    {
      "midi": 70,
      "hit": false,
      "t": 9210.512500000004,
      "d": 184.2102500000001,
      "v": 102
    },
    {
      "midi": 72,
      "hit": false,
      "t": 9473.670000000004,
      "d": 214.91195833333404,
      "v": 113
    },
    {
      "midi": 70,
      "hit": false,
      "t": 9736.827500000005,
      "d": 166.66641666666692,
      "v": 113
    },
    {
      "midi": 74,
      "hit": false,
      "t": 9999.985000000004,
      "d": 144.73662499999955,
      "v": 107
    },
    {
      "midi": 76,
      "hit": false,
      "t": 10263.142500000004,
      "d": 127.1927916666682,
      "v": 113
    },
    {
      "midi": 53,
      "hit": false,
      "t": 10526.300000000001,
      "d": 201.75408333333326,
      "v": 93
    },
    {
      "midi": 60,
      "hit": false,
      "t": 10526.300000000001,
      "d": 210.52599999999984,
      "v": 107
    },
    {
      "midi": 57,
      "hit": false,
      "t": 10526.300000000001,
      "d": 214.91195833333404,
      "v": 102
    },
    {
      "midi": 41,
      "hit": false,
      "t": 10526.300000000001,
      "d": 486.8413750000036,
      "v": 93
    },
    {
      "midi": 77,
      "hit": false,
      "t": 10526.300000000005,
      "d": 1478.0679583333404,
      "v": 119
    },
    {
      "midi": 53,
      "hit": false,
      "t": 10789.457500000002,
      "d": 171.05237500000112,
      "v": 98
    },
    {
      "midi": 57,
      "hit": false,
      "t": 10789.457500000002,
      "d": 192.9821666666685,
      "v": 102
    },
    {
      "midi": 60,
      "hit": false,
      "t": 10789.457500000002,
      "d": 201.75408333333507,
      "v": 107
    },
    {
      "midi": 60,
      "hit": false,
      "t": 11578.930000000004,
      "d": 171.05237500000112,
      "v": 93
    },
    {
      "midi": 64,
      "hit": false,
      "t": 11578.930000000004,
      "d": 175.43833333333532,
      "v": 93
    },
    {
      "midi": 67,
      "hit": false,
      "t": 11578.930000000004,
      "d": 175.43833333333532,
      "v": 102
    },
    {
      "midi": 55,
      "hit": false,
      "t": 11578.930000000004,
      "d": 315.78900000000067,
      "v": 98
    },
    {
      "midi": 48,
      "hit": false,
      "t": 11578.930000000004,
      "d": 364.0345416666696,
      "v": 93
    },
    {
      "midi": 64,
      "hit": false,
      "t": 11842.087500000005,
      "d": 78.94724999999926,
      "v": 102
    },
    {
      "midi": 60,
      "hit": false,
      "t": 11842.087500000005,
      "d": 83.33320833333346,
      "v": 102
    },
    {
      "midi": 67,
      "hit": false,
      "t": 11842.087500000005,
      "d": 96.49108333333425,
      "v": 107
    },
    {
      "midi": 62,
      "hit": false,
      "t": 12368.402500000007,
      "d": 2096.4880833333336,
      "v": 113
    },
    {
      "midi": 58,
      "hit": false,
      "t": 12368.402500000007,
      "d": 2100.874041666668,
      "v": 102
    },
    {
      "midi": 46,
      "hit": false,
      "t": 12368.402500000007,
      "d": 2118.417875000001,
      "v": 113
    },
    {
      "midi": 65,
      "hit": false,
      "t": 12368.402500000007,
      "d": 2144.7336250000008,
      "v": 107
    },
    {
      "midi": 74,
      "hit": false,
      "t": 12894.717500000012,
      "d": 127.19279166666638,
      "v": 102
    },
    {
      "midi": 70,
      "hit": false,
      "t": 12894.717500000012,
      "d": 175.4383333333335,
      "v": 98
    },
    {
      "midi": 77,
      "hit": false,
      "t": 12894.717500000012,
      "d": 206.14004166666746,
      "v": 102
    },
    {
      "midi": 72,
      "hit": false,
      "t": 13026.296250000012,
      "d": 100.87704166666663,
      "v": 107
    },
    {
      "midi": 70,
      "hit": false,
      "t": 13157.875000000013,
      "d": 592.1043750000008,
      "v": 102
    },
    {
      "midi": 72,
      "hit": false,
      "t": 13421.032500000012,
      "d": 179.8242916666677,
      "v": 107
    },
    {
      "midi": 74,
      "hit": false,
      "t": 13684.190000000013,
      "d": 486.84137499999997,
      "v": 107
    },
    {
      "midi": 70,
      "hit": false,
      "t": 13947.347500000014,
      "d": 785.0865416666657,
      "v": 102
    },
    {
      "midi": 77,
      "hit": false,
      "t": 14210.505000000014,
      "d": 521.9290416666663,
      "v": 102
    },
    {
      "midi": 41,
      "hit": false,
      "t": 14736.820000000009,
      "d": 526.3150000000005,
      "v": 76
    },
    {
      "midi": 53,
      "hit": false,
      "t": 14736.820000000009,
      "d": 561.4026666666668,
      "v": 53
    },
    {
      "midi": 57,
      "hit": false,
      "t": 14736.820000000009,
      "d": 596.4903333333332,
      "v": 59
    },
    {
      "midi": 60,
      "hit": false,
      "t": 14736.820000000009,
      "d": 609.648208333334,
      "v": 44
    },
    {
      "midi": 72,
      "hit": false,
      "t": 14736.820000000014,
      "d": 1245.6121666666677,
      "v": 72
    },
    {
      "midi": 77,
      "hit": false,
      "t": 14736.820000000014,
      "d": 1495.611791666668,
      "v": 76
    },
    {
      "midi": 81,
      "hit": false,
      "t": 14749.977875000015,
      "d": 1982.4531666666662,
      "v": 107
    },
    {
      "midi": 64,
      "hit": false,
      "t": 15789.45000000001,
      "d": 385.96433333333334,
      "v": 62
    },
    {
      "midi": 55,
      "hit": false,
      "t": 15789.45000000001,
      "d": 416.6660416666673,
      "v": 47
    },
    {
      "midi": 60,
      "hit": false,
      "t": 15789.45000000001,
      "d": 416.6660416666673,
      "v": 60
    },
    {
      "midi": 48,
      "hit": false,
      "t": 15789.45000000001,
      "d": 486.84137499999997,
      "v": 55
    },
    {
      "midi": 53,
      "hit": false,
      "t": 16578.92250000001,
      "d": 1671.0501250000016,
      "v": 38
    },
    {
      "midi": 58,
      "hit": false,
      "t": 16578.92250000001,
      "d": 1842.1025000000009,
      "v": 64
    },
    {
      "midi": 62,
      "hit": false,
      "t": 16578.92250000001,
      "d": 1881.5761249999996,
      "v": 49
    },
    {
      "midi": 53,
      "hit": false,
      "t": 18421.025000000012,
      "d": 214.9119583333304,
      "v": 68
    },
    {
      "midi": 41,
      "hit": false,
      "t": 18947.34000000001,
      "d": 504.38520833333314,
      "v": 64
    },
    {
      "midi": 53,
      "hit": false,
      "t": 18947.34000000001,
      "d": 543.8588333333319,
      "v": 64
    },
    {
      "midi": 57,
      "hit": false,
      "t": 18947.34000000001,
      "d": 552.6307500000003,
      "v": 68
    },
    {
      "midi": 64,
      "hit": false,
      "t": 19999.970000000012,
      "d": 364.0345416666678,
      "v": 56
    },
    {
      "midi": 60,
      "hit": false,
      "t": 19999.970000000012,
      "d": 372.8064583333362,
      "v": 64
    },
    {
      "midi": 55,
      "hit": false,
      "t": 19999.970000000012,
      "d": 460.52562500000204,
      "v": 60
    },
    {
      "midi": 48,
      "hit": false,
      "t": 19999.970000000012,
      "d": 469.29754166667044,
      "v": 72
    },
    {
      "midi": 58,
      "hit": false,
      "t": 21052.600000000017,
      "d": 548.2447916666679,
      "v": 76
    },
    {
      "midi": 62,
      "hit": false,
      "t": 21052.600000000017,
      "d": 565.788625000001,
      "v": 76
    },
    {
      "midi": 67,
      "hit": false,
      "t": 21447.33625000002,
      "d": 377.19241666666494,
      "v": 56
    },
    {
      "midi": 65,
      "hit": false,
      "t": 22105.230000000018,
      "d": 504.38520833333314,
      "v": 64
    },
    {
      "midi": 62,
      "hit": false,
      "t": 22631.545000000016,
      "d": 144.73662500000137,
      "v": 72
    },
    {
      "midi": 41,
      "hit": false,
      "t": 23157.86000000002,
      "d": 521.9290416666663,
      "v": 76
    },
    {
      "midi": 48,
      "hit": false,
      "t": 23421.01750000002,
      "d": 285.0872916666631,
      "v": 72
    },
    {
      "midi": 55,
      "hit": false,
      "t": 23684.175000000017,
      "d": 276.3153749999983,
      "v": 85
    },
    {
      "midi": 57,
      "hit": false,
      "t": 23947.332500000015,
      "d": 228.06983333333483,
      "v": 76
    },
    {
      "midi": 48,
      "hit": false,
      "t": 24210.490000000016,
      "d": 622.8060833333329,
      "v": 68
    },
    {
      "midi": 55,
      "hit": false,
      "t": 24473.647500000017,
      "d": 241.22770833333198,
      "v": 72
    },
    {
      "midi": 60,
      "hit": false,
      "t": 24736.805000000015,
      "d": 271.92941666666957,
      "v": 68
    },
    {
      "midi": 64,
      "hit": false,
      "t": 24999.962500000016,
      "d": 179.8242916666677,
      "v": 62
    },
    {
      "midi": 46,
      "hit": false,
      "t": 25263.120000000017,
      "d": 1570.173083333335,
      "v": 76
    },
    {
      "midi": 62,
      "hit": false,
      "t": 26842.06500000002,
      "d": 114.03491666666741,
      "v": 50
    },
    {
      "midi": 58,
      "hit": false,
      "t": 26842.06500000002,
      "d": 157.89450000000215,
      "v": 56
    },
    {
      "midi": 53,
      "hit": false,
      "t": 26842.06500000002,
      "d": 171.05237500000294,
      "v": 26
    },
    {
      "midi": 53,
      "hit": false,
      "t": 27368.380000000023,
      "d": 1175.4368333333368,
      "v": 47
    },
    {
      "midi": 58,
      "hit": false,
      "t": 27368.380000000023,
      "d": 1245.6121666666695,
      "v": 60
    },
    {
      "midi": 46,
      "hit": false,
      "t": 27368.380000000023,
      "d": 1249.998125000002,
      "v": 72
    },
    {
      "midi": 60,
      "hit": false,
      "t": 29473.640000000025,
      "d": 1390.3487916666672,
      "v": 60
    },
    {
      "midi": 55,
      "hit": false,
      "t": 29473.640000000025,
      "d": 1486.8398750000015,
      "v": 40
    },
    {
      "midi": 48,
      "hit": false,
      "t": 29473.640000000025,
      "d": 1635.9624583333352,
      "v": 57
    },
    {
      "midi": 81,
      "hit": false,
      "t": 30789.427500000016,
      "d": 92.10512499999822,
      "v": 93
    },
    {
      "midi": 79,
      "hit": false,
      "t": 31052.585000000014,
      "d": 96.49108333333425,
      "v": 89
    },
    {
      "midi": 77,
      "hit": false,
      "t": 31315.742500000015,
      "d": 74.56129166666506,
      "v": 89
    },
    {
      "midi": 72,
      "hit": false,
      "t": 31578.900000000012,
      "d": 1864.0322916666591,
      "v": 93
    },
    {
      "midi": 41,
      "hit": false,
      "t": 31578.900000000027,
      "d": 526.3149999999987,
      "v": 76
    },
    {
      "midi": 53,
      "hit": false,
      "t": 31578.900000000027,
      "d": 561.402666666665,
      "v": 53
    },
    {
      "midi": 57,
      "hit": false,
      "t": 31578.900000000027,
      "d": 596.4903333333314,
      "v": 59
    },
    {
      "midi": 60,
      "hit": false,
      "t": 31578.900000000027,
      "d": 609.6482083333321,
      "v": 44
    },
    {
      "midi": 64,
      "hit": false,
      "t": 32631.530000000024,
      "d": 385.96433333333334,
      "v": 62
    },
    {
      "midi": 55,
      "hit": false,
      "t": 32631.530000000024,
      "d": 416.6660416666673,
      "v": 47
    },
    {
      "midi": 60,
      "hit": false,
      "t": 32631.530000000024,
      "d": 416.6660416666673,
      "v": 60
    },
    {
      "midi": 48,
      "hit": false,
      "t": 32631.530000000024,
      "d": 486.84137499999997,
      "v": 55
    },
    {
      "midi": 53,
      "hit": false,
      "t": 33421.002500000024,
      "d": 1671.0501250000016,
      "v": 38
    },
    {
      "midi": 58,
      "hit": false,
      "t": 33421.002500000024,
      "d": 1842.1025000000009,
      "v": 64
    },
    {
      "midi": 62,
      "hit": false,
      "t": 33421.002500000024,
      "d": 1881.5761249999996,
      "v": 49
    },
    {
      "midi": 74,
      "hit": false,
      "t": 34473.6325,
      "d": 833.3320833333055,
      "v": 113
    },
    {
      "midi": 72,
      "hit": false,
      "t": 35263.104999999974,
      "d": 350.87666666666337,
      "v": 76
    },
    {
      "midi": 53,
      "hit": false,
      "t": 35263.105000000025,
      "d": 214.9119583333304,
      "v": 68
    },
    {
      "midi": 69,
      "hit": false,
      "t": 35789.41999999997,
      "d": 890.3495416666701,
      "v": 98
    },
    {
      "midi": 41,
      "hit": false,
      "t": 35789.42000000002,
      "d": 504.38520833333314,
      "v": 64
    },
    {
      "midi": 53,
      "hit": false,
      "t": 35789.42000000002,
      "d": 543.8588333333319,
      "v": 64
    },
    {
      "midi": 57,
      "hit": false,
      "t": 35789.42000000002,
      "d": 552.6307499999966,
      "v": 68
    },
    {
      "midi": 72,
      "hit": false,
      "t": 36842.049999999974,
      "d": 635.9639583333264,
      "v": 93
    },
    {
      "midi": 64,
      "hit": false,
      "t": 36842.05000000002,
      "d": 364.0345416666678,
      "v": 56
    },
    {
      "midi": 60,
      "hit": false,
      "t": 36842.05000000002,
      "d": 372.80645833333256,
      "v": 64
    },
    {
      "midi": 55,
      "hit": false,
      "t": 36842.05000000002,
      "d": 460.52562500000204,
      "v": 60
    },
    {
      "midi": 48,
      "hit": false,
      "t": 36842.05000000002,
      "d": 469.2975416666668,
      "v": 72
    },
    {
      "midi": 70,
      "hit": false,
      "t": 37894.679999999964,
      "d": 429.8239166666681,
      "v": 89
    },
    {
      "midi": 58,
      "hit": false,
      "t": 37894.680000000015,
      "d": 548.2447916666715,
      "v": 76
    },
    {
      "midi": 62,
      "hit": false,
      "t": 37894.680000000015,
      "d": 565.7886250000083,
      "v": 76
    },
    {
      "midi": 67,
      "hit": false,
      "t": 38289.41625000002,
      "d": 377.1924166666722,
      "v": 56
    },
    {
      "midi": 77,
      "hit": false,
      "t": 38420.994999999966,
      "d": 157.89450000000215,
      "v": 93
    },
    {
      "midi": 76,
      "hit": false,
      "t": 38947.30999999997,
      "d": 96.49108333333425,
      "v": 89
    },
    {
      "midi": 65,
      "hit": false,
      "t": 38947.31000000002,
      "d": 504.38520833333314,
      "v": 64
    },
    {
      "midi": 74,
      "hit": false,
      "t": 39473.62499999996,
      "d": 403.5081666666665,
      "v": 93
    },
    {
      "midi": 62,
      "hit": false,
      "t": 39473.62500000002,
      "d": 144.73662499999773,
      "v": 72
    },
    {
      "midi": 72,
      "hit": false,
      "t": 39999.93999999996,
      "d": 434.2098749999932,
      "v": 89
    },
    {
      "midi": 41,
      "hit": false,
      "t": 39999.94000000002,
      "d": 521.92904166667,
      "v": 76
    },
    {
      "midi": 48,
      "hit": false,
      "t": 40263.09750000002,
      "d": 285.08729166667035,
      "v": 72
    },
    {
      "midi": 77,
      "hit": false,
      "t": 40526.254999999954,
      "d": 214.9119583333304,
      "v": 76
    },
    {
      "midi": 55,
      "hit": false,
      "t": 40526.25500000002,
      "d": 276.3153749999983,
      "v": 85
    },
    {
      "midi": 57,
      "hit": false,
      "t": 40789.41250000002,
      "d": 228.06983333332755,
      "v": 76
    },
    {
      "midi": 79,
      "hit": false,
      "t": 41052.56999999995,
      "d": 995.6125416666619,
      "v": 76
    },
    {
      "midi": 48,
      "hit": false,
      "t": 41052.570000000014,
      "d": 622.8060833333366,
      "v": 68
    },
    {
      "midi": 55,
      "hit": false,
      "t": 41315.727500000015,
      "d": 241.22770833333198,
      "v": 72
    },
    {
      "midi": 60,
      "hit": false,
      "t": 41578.88500000002,
      "d": 271.92941666666593,
      "v": 68
    },
    {
      "midi": 64,
      "hit": false,
      "t": 41842.04250000002,
      "d": 179.82429166666407,
      "v": 62
    },
    {
      "midi": 46,
      "hit": false,
      "t": 42105.20000000002,
      "d": 1570.173083333335,
      "v": 76
    },
    {
      "midi": 77,
      "hit": false,
      "t": 42631.51499999995,
      "d": 78.94724999999744,
      "v": 89
    },
    {
      "midi": 74,
      "hit": false,
      "t": 43157.82999999994,
      "d": 92.10512500000186,
      "v": 85
    },
    {
      "midi": 72,
      "hit": false,
      "t": 43684.144999999946,
      "d": 78.94724999999744,
      "v": 89
    },
    {
      "midi": 62,
      "hit": false,
      "t": 43684.14500000002,
      "d": 114.03491666666378,
      "v": 50
    },
    {
      "midi": 58,
      "hit": false,
      "t": 43684.14500000002,
      "d": 157.89449999999488,
      "v": 56
    },
    {
      "midi": 53,
      "hit": false,
      "t": 43684.14500000002,
      "d": 171.05237499999203,
      "v": 26
    },
    {
      "midi": 70,
      "hit": false,
      "t": 44210.45999999994,
      "d": 1434.208375000002,
      "v": 89
    },
    {
      "midi": 53,
      "hit": false,
      "t": 44210.46000000001,
      "d": 1175.4368333333332,
      "v": 47
    },
    {
      "midi": 58,
      "hit": false,
      "t": 44210.46000000001,
      "d": 1245.6121666666659,
      "v": 60
    },
    {
      "midi": 46,
      "hit": false,
      "t": 44210.46000000001,
      "d": 1249.9981249999983,
      "v": 72
    },
    {
      "midi": 60,
      "hit": false,
      "t": 46315.72000000001,
      "d": 1390.3487916666636,
      "v": 60
    },
    {
      "midi": 55,
      "hit": false,
      "t": 46315.72000000001,
      "d": 1486.8398749999978,
      "v": 40
    },
    {
      "midi": 48,
      "hit": false,
      "t": 46315.72000000001,
      "d": 1635.962458333328,
      "v": 57
    },
    {
      "midi": 64,
      "hit": false,
      "t": 48420.979999999945,
      "d": 337.7187916666662,
      "v": 102
    },
    {
      "midi": 67,
      "hit": false,
      "t": 48420.979999999945,
      "d": 372.80645833333256,
      "v": 107
    },
    {
      "midi": 65,
      "hit": false,
      "t": 48420.98,
      "d": 381.5783750000046,
      "v": 89
    },
    {
      "midi": 69,
      "hit": false,
      "t": 48420.98,
      "d": 513.1571250000052,
      "v": 89
    },
    {
      "midi": 60,
      "hit": false,
      "t": 48420.98,
      "d": 692.9814166666692,
      "v": 89
    },
    {
      "midi": 53,
      "hit": false,
      "t": 48420.98,
      "d": 1425.4364583333372,
      "v": 93
    },
    {
      "midi": 65,
      "hit": false,
      "t": 48947.295000000006,
      "d": 118.42087500000343,
      "v": 68
    },
    {
      "midi": 65,
      "hit": false,
      "t": 49210.45249999994,
      "d": 833.3320833333346,
      "v": 107
    },
    {
      "midi": 69,
      "hit": false,
      "t": 49210.45249999994,
      "d": 833.3320833333346,
      "v": 113
    },
    {
      "midi": 67,
      "hit": false,
      "t": 49210.45250000001,
      "d": 105.26299999999901,
      "v": 98
    },
    {
      "midi": 72,
      "hit": false,
      "t": 49210.45250000001,
      "d": 127.1927916666682,
      "v": 102
    },
    {
      "midi": 72,
      "hit": false,
      "t": 49736.76750000001,
      "d": 184.21024999999645,
      "v": 102
    },
    {
      "midi": 69,
      "hit": false,
      "t": 49736.76750000001,
      "d": 197.3681249999936,
      "v": 98
    },
    {
      "midi": 65,
      "hit": false,
      "t": 49999.925,
      "d": 100.87704166666663,
      "v": 89
    },
    {
      "midi": 64,
      "hit": false,
      "t": 50526.23999999995,
      "d": 434.20987500000047,
      "v": 98
    },
    {
      "midi": 67,
      "hit": false,
      "t": 50526.23999999995,
      "d": 473.6834999999992,
      "v": 107
    },
    {
      "midi": 62,
      "hit": false,
      "t": 50526.240000000005,
      "d": 364.0345416666678,
      "v": 56
    },
    {
      "midi": 69,
      "hit": false,
      "t": 50526.240000000005,
      "d": 372.80645833333256,
      "v": 60
    },
    {
      "midi": 65,
      "hit": false,
      "t": 50526.240000000005,
      "d": 399.12220833333413,
      "v": 80
    },
    {
      "midi": 57,
      "hit": false,
      "t": 50526.240000000005,
      "d": 614.0341666666718,
      "v": 76
    },
    {
      "midi": 50,
      "hit": false,
      "t": 50526.240000000005,
      "d": 1407.8926250000004,
      "v": 89
    },
    {
      "midi": 69,
      "hit": false,
      "t": 51052.55500000001,
      "d": 105.26300000000629,
      "v": 89
    },
    {
      "midi": 65,
      "hit": false,
      "t": 51052.55500000001,
      "d": 114.03491666667105,
      "v": 93
    },
    {
      "midi": 60,
      "hit": false,
      "t": 51052.55500000001,
      "d": 118.42087500000343,
      "v": 89
    },
    {
      "midi": 65,
      "hit": false,
      "t": 51315.71249999994,
      "d": 776.3146249999991,
      "v": 102
    },
    {
      "midi": 69,
      "hit": false,
      "t": 51315.71249999994,
      "d": 789.4724999999962,
      "v": 107
    },
    {
      "midi": 65,
      "hit": false,
      "t": 51315.71250000001,
      "d": 403.5081666666665,
      "v": 102
    },
    {
      "midi": 69,
      "hit": false,
      "t": 51315.71250000001,
      "d": 416.66604166666366,
      "v": 102
    },
    {
      "midi": 60,
      "hit": false,
      "t": 51315.71250000001,
      "d": 442.98179166666523,
      "v": 93
    },
    {
      "midi": 60,
      "hit": false,
      "t": 51842.027500000004,
      "d": 149.1225833333374,
      "v": 89
    },
    {
      "midi": 69,
      "hit": false,
      "t": 51842.027500000004,
      "d": 276.3153749999983,
      "v": 102
    },
    {
      "midi": 64,
      "hit": false,
      "t": 51842.027500000004,
      "d": 289.47324999999546,
      "v": 98
    },
    {
      "midi": 60,
      "hit": false,
      "t": 52105.185000000005,
      "d": 127.19279166666092,
      "v": 76
    },
    {
      "midi": 53,
      "hit": false,
      "t": 52631.5,
      "d": 399.12220833333413,
      "v": 76
    },
    {
      "midi": 58,
      "hit": false,
      "t": 52631.5,
      "d": 714.9112083333384,
      "v": 85
    },
    {
      "midi": 62,
      "hit": false,
      "t": 52631.5,
      "d": 723.6831250000032,
      "v": 89
    },
    {
      "midi": 46,
      "hit": false,
      "t": 52631.5,
      "d": 929.8231666666688,
      "v": 93
    },
    {
      "midi": 77,
      "hit": false,
      "t": 52894.65749999994,
      "d": 83.3332083333371,
      "v": 113
    },
    {
      "midi": 53,
      "hit": false,
      "t": 53157.815,
      "d": 127.1927916666682,
      "v": 51
    },
    {
      "midi": 76,
      "hit": false,
      "t": 53420.972499999945,
      "d": 74.56129166666506,
      "v": 102
    },
    {
      "midi": 53,
      "hit": false,
      "t": 53420.9725,
      "d": 179.82429166666407,
      "v": 72
    },
    {
      "midi": 58,
      "hit": false,
      "t": 53420.9725,
      "d": 482.45541666666395,
      "v": 76
    },
    {
      "midi": 62,
      "hit": false,
      "t": 53420.9725,
      "d": 605.2622499999925,
      "v": 93
    },
    {
      "midi": 46,
      "hit": false,
      "t": 53684.13,
      "d": 96.49108333333425,
      "v": 56
    },
    {
      "midi": 72,
      "hit": false,
      "t": 53947.28749999994,
      "d": 438.59583333333285,
      "v": 113
    },
    {
      "midi": 53,
      "hit": false,
      "t": 53947.2875,
      "d": 140.35066666666535,
      "v": 68
    },
    {
      "midi": 53,
      "hit": false,
      "t": 54210.445,
      "d": 92.10512500000186,
      "v": 89
    },
    {
      "midi": 62,
      "hit": false,
      "t": 54210.445,
      "d": 179.82429166667134,
      "v": 107
    },
    {
      "midi": 58,
      "hit": false,
      "t": 54210.445,
      "d": 289.47325000000274,
      "v": 89
    },
    {
      "midi": 62,
      "hit": false,
      "t": 54473.6025,
      "d": 52.63150000000314,
      "v": 41
    },
    {
      "midi": 53,
      "hit": false,
      "t": 54473.6025,
      "d": 92.10512500000186,
      "v": 85
    },
    {
      "midi": 48,
      "hit": false,
      "t": 54736.76,
      "d": 1543.857333333326,
      "v": 72
    },
    {
      "midi": 72,
      "hit": false,
      "t": 54999.91749999994,
      "d": 649.1218333333381,
      "v": 113
    },
    {
      "midi": 60,
      "hit": false,
      "t": 54999.9175,
      "d": 92.10512500000186,
      "v": 98
    },
    {
      "midi": 64,
      "hit": false,
      "t": 54999.9175,
      "d": 105.26299999999901,
      "v": 107
    },
    {
      "midi": 67,
      "hit": false,
      "t": 54999.9175,
      "d": 118.42087499999616,
      "v": 102
    },
    {
      "midi": 62,
      "hit": false,
      "t": 55263.075,
      "d": 333.33283333333384,
      "v": 102
    },
    {
      "midi": 67,
      "hit": false,
      "t": 55263.075,
      "d": 342.1047499999986,
      "v": 93
    },
    {
      "midi": 55,
      "hit": false,
      "t": 55526.2325,
      "d": 118.42087499999616,
      "v": 98
    },
    {
      "midi": 70,
      "hit": false,
      "t": 55789.38999999994,
      "d": 92.10512500000186,
      "v": 102
    },
    {
      "midi": 64,
      "hit": false,
      "t": 55789.38999999999,
      "d": 157.89450000000215,
      "v": 102
    },
    {
      "midi": 67,
      "hit": false,
      "t": 55789.38999999999,
      "d": 192.9821666666685,
      "v": 98
    },
    {
      "midi": 69,
      "hit": false,
      "t": 56052.54749999994,
      "d": 289.47325000000274,
      "v": 102
    },
    {
      "midi": 65,
      "hit": false,
      "t": 56052.54749999999,
      "d": 245.61366666667163,
      "v": 98
    },
    {
      "midi": 60,
      "hit": false,
      "t": 56052.54749999999,
      "d": 311.4030416666719,
      "v": 93
    },
    {
      "midi": 67,
      "hit": false,
      "t": 56052.54749999999,
      "d": 635.963958333341,
      "v": 76
    },
    {
      "midi": 67,
      "hit": false,
      "t": 56315.70499999994,
      "d": 223.68387500000244,
      "v": 113
    },
    {
      "midi": 64,
      "hit": false,
      "t": 56315.705,
      "d": 280.7013333333307,
      "v": 76
    },
    {
      "midi": 65,
      "hit": false,
      "t": 56578.862499999945,
      "d": 105.26299999999901,
      "v": 85
    },
    {
      "midi": 60,
      "hit": false,
      "t": 56578.862499999996,
      "d": 78.94725000000471,
      "v": 98
    },
    {
      "midi": 76,
      "hit": false,
      "t": 56842.019999999946,
      "d": 513.1571249999979,
      "v": 76
    },
    {
      "midi": 79,
      "hit": false,
      "t": 56842.019999999946,
      "d": 565.788625000001,
      "v": 93
    },
    {
      "midi": 53,
      "hit": false,
      "t": 56842.02,
      "d": 464.91158333332714,
      "v": 89
    },
    {
      "midi": 60,
      "hit": false,
      "t": 57105.17749999999,
      "d": 92.10512500000186,
      "v": 98
    },
    {
      "midi": 72,
      "hit": false,
      "t": 57368.33499999999,
      "d": 105.26299999999901,
      "v": 93
    },
    {
      "midi": 65,
      "hit": false,
      "t": 57368.33499999999,
      "d": 118.42087499999616,
      "v": 93
    },
    {
      "midi": 69,
      "hit": false,
      "t": 57368.33499999999,
      "d": 118.42087499999616,
      "v": 98
    },
    {
      "midi": 77,
      "hit": false,
      "t": 57631.49249999995,
      "d": 833.3320833333346,
      "v": 89
    },
    {
      "midi": 81,
      "hit": false,
      "t": 57631.49249999995,
      "d": 833.3320833333346,
      "v": 89
    },
    {
      "midi": 67,
      "hit": false,
      "t": 57631.492499999986,
      "d": 350.87666666666337,
      "v": 102
    },
    {
      "midi": 72,
      "hit": false,
      "t": 57631.492499999986,
      "d": 416.66604166666366,
      "v": 102
    },
    {
      "midi": 41,
      "hit": false,
      "t": 57631.492499999986,
      "d": 837.7180416666597,
      "v": 80
    },
    {
      "midi": 69,
      "hit": false,
      "t": 58157.80749999998,
      "d": 504.38520833333314,
      "v": 93
    },
    {
      "midi": 72,
      "hit": false,
      "t": 58157.80749999998,
      "d": 565.788625000001,
      "v": 102
    },
    {
      "midi": 48,
      "hit": false,
      "t": 58420.96499999998,
      "d": 100.87704166666663,
      "v": 98
    },
    {
      "midi": 65,
      "hit": false,
      "t": 58684.12249999998,
      "d": 105.26299999999901,
      "v": 85
    },
    {
      "midi": 76,
      "hit": false,
      "t": 58947.27999999995,
      "d": 614.0341666666718,
      "v": 89
    },
    {
      "midi": 79,
      "hit": false,
      "t": 58947.27999999995,
      "d": 627.192041666669,
      "v": 93
    },
    {
      "midi": 50,
      "hit": false,
      "t": 58947.279999999984,
      "d": 1719.295666666665,
      "v": 93
    },
    {
      "midi": 57,
      "hit": false,
      "t": 59210.437499999985,
      "d": 171.0523749999993,
      "v": 62
    },
    {
      "midi": 69,
      "hit": false,
      "t": 59473.59499999998,
      "d": 87.71916666666948,
      "v": 62
    },
    {
      "midi": 60,
      "hit": false,
      "t": 59473.59499999998,
      "d": 105.26300000000629,
      "v": 72
    },
    {
      "midi": 65,
      "hit": false,
      "t": 59473.59499999998,
      "d": 118.42087500000343,
      "v": 89
    },
    {
      "midi": 81,
      "hit": false,
      "t": 59736.75249999995,
      "d": 846.4899583333317,
      "v": 93
    },
    {
      "midi": 77,
      "hit": false,
      "t": 59736.75249999995,
      "d": 855.2618749999965,
      "v": 85
    },
    {
      "midi": 69,
      "hit": false,
      "t": 59736.75249999998,
      "d": 372.80645833333256,
      "v": 102
    },
    {
      "midi": 60,
      "hit": false,
      "t": 59736.75249999998,
      "d": 377.19241666666494,
      "v": 93
    },
    {
      "midi": 65,
      "hit": false,
      "t": 59736.75249999998,
      "d": 381.5783749999973,
      "v": 113
    },
    {
      "midi": 60,
      "hit": false,
      "t": 60263.067499999976,
      "d": 315.7890000000043,
      "v": 98
    },
    {
      "midi": 65,
      "hit": false,
      "t": 60263.067499999976,
      "d": 447.3677500000049,
      "v": 107
    },
    {
      "midi": 69,
      "hit": false,
      "t": 60263.067499999976,
      "d": 548.2447916666715,
      "v": 107
    },
    {
      "midi": 57,
      "hit": false,
      "t": 60526.22499999998,
      "d": 78.94725000000471,
      "v": 72
    },
    {
      "midi": 60,
      "hit": false,
      "t": 60789.38249999998,
      "d": 83.3332083333371,
      "v": 72
    },
    {
      "midi": 46,
      "hit": false,
      "t": 61052.53999999998,
      "d": 938.5950833333263,
      "v": 93
    },
    {
      "midi": 53,
      "hit": false,
      "t": 61315.69749999998,
      "d": 65.78937500000029,
      "v": 47
    },
    {
      "midi": 53,
      "hit": false,
      "t": 61578.854999999974,
      "d": 114.03491666666378,
      "v": 60
    },
    {
      "midi": 58,
      "hit": false,
      "t": 61578.854999999974,
      "d": 114.03491666666378,
      "v": 72
    },
    {
      "midi": 62,
      "hit": false,
      "t": 61578.854999999974,
      "d": 114.03491666666378,
      "v": 89
    },
    {
      "midi": 53,
      "hit": false,
      "t": 61842.01249999997,
      "d": 333.33283333333384,
      "v": 93
    },
    {
      "midi": 62,
      "hit": false,
      "t": 61842.01249999997,
      "d": 614.0341666666718,
      "v": 113
    },
    {
      "midi": 58,
      "hit": false,
      "t": 61842.01249999997,
      "d": 640.3499166666734,
      "v": 98
    },
    {
      "midi": 46,
      "hit": false,
      "t": 62105.16999999997,
      "d": 583.3324583333379,
      "v": 72
    },
    {
      "midi": 53,
      "hit": false,
      "t": 62368.32749999997,
      "d": 153.50854166666977,
      "v": 68
    },
    {
      "midi": 53,
      "hit": false,
      "t": 62631.48499999997,
      "d": 114.03491666667105,
      "v": 72
    },
    {
      "midi": 58,
      "hit": false,
      "t": 62631.48499999997,
      "d": 192.9821666666685,
      "v": 93
    },
    {
      "midi": 62,
      "hit": false,
      "t": 62631.48499999997,
      "d": 206.14004166666564,
      "v": 102
    },
    {
      "midi": 53,
      "hit": false,
      "t": 62894.64249999997,
      "d": 175.43833333333168,
      "v": 76
    },
    {
      "midi": 62,
      "hit": false,
      "t": 62894.64249999997,
      "d": 175.43833333333168,
      "v": 62
    },
    {
      "midi": 48,
      "hit": false,
      "t": 63157.799999999974,
      "d": 1916.6637916666587,
      "v": 89
    },
    {
      "midi": 60,
      "hit": false,
      "t": 63420.957499999975,
      "d": 78.94724999999744,
      "v": 85
    },
    {
      "midi": 67,
      "hit": false,
      "t": 63684.11499999997,
      "d": 61.40341666666791,
      "v": 98
    },
    {
      "midi": 62,
      "hit": false,
      "t": 63684.11499999997,
      "d": 74.56129166666506,
      "v": 107
    },
    {
      "midi": 62,
      "hit": false,
      "t": 63947.27249999997,
      "d": 368.4205000000002,
      "v": 107
    },
    {
      "midi": 67,
      "hit": false,
      "t": 63947.27249999997,
      "d": 372.80645833333256,
      "v": 102
    },
    {
      "midi": 55,
      "hit": false,
      "t": 64210.42999999997,
      "d": 162.28045833333454,
      "v": 80
    },
    {
      "midi": 64,
      "hit": false,
      "t": 64473.58749999997,
      "d": 421.05199999999604,
      "v": 85
    },
    {
      "midi": 67,
      "hit": false,
      "t": 64473.58749999997,
      "d": 473.6834999999992,
      "v": 89
    },
    {
      "midi": 60,
      "hit": false,
      "t": 64473.58749999997,
      "d": 486.84137499999633,
      "v": 80
    },
    {
      "midi": 55,
      "hit": false,
      "t": 64736.74499999997,
      "d": 258.7715416666615,
      "v": 93
    },
    {
      "midi": 62,
      "hit": false,
      "t": 64999.90249999997,
      "d": 96.49108333333425,
      "v": 76
    },
    {
      "midi": 53,
      "hit": false,
      "t": 65263.05999999997,
      "d": 675.4375833333324,
      "v": 64
    },
    {
      "midi": 62,
      "hit": false,
      "t": 65263.05999999997,
      "d": 991.2265833333367,
      "v": 89
    },
    {
      "midi": 58,
      "hit": false,
      "t": 65263.05999999997,
      "d": 1030.7002083333355,
      "v": 85
    },
    {
      "midi": 46,
      "hit": false,
      "t": 65263.05999999997,
      "d": 1070.1738333333342,
      "v": 89
    },
    {
      "midi": 53,
      "hit": false,
      "t": 66315.68999999997,
      "d": 114.0349166666565,
      "v": 55
    },
    {
      "midi": 46,
      "hit": false,
      "t": 66578.84749999996,
      "d": 118.42087499999616,
      "v": 98
    },
    {
      "midi": 58,
      "hit": false,
      "t": 66842.00499999996,
      "d": 83.3332083333371,
      "v": 85
    },
    {
      "midi": 62,
      "hit": false,
      "t": 66842.00499999996,
      "d": 100.87704166666663,
      "v": 107
    },
    {
      "midi": 55,
      "hit": false,
      "t": 67368.31999999995,
      "d": 776.3146249999991,
      "v": 93
    },
    {
      "midi": 60,
      "hit": false,
      "t": 67368.31999999995,
      "d": 1434.208375000002,
      "v": 93
    },
    {
      "midi": 64,
      "hit": false,
      "t": 67368.31999999995,
      "d": 1706.137791666668,
      "v": 89
    },
    {
      "midi": 48,
      "hit": false,
      "t": 67368.31999999995,
      "d": 1807.0148333333345,
      "v": 93
    },
    {
      "midi": 65,
      "hit": false,
      "t": 69473.57999999994,
      "d": 188.59620833332883,
      "v": 98
    },
    {
      "midi": 57,
      "hit": false,
      "t": 69473.57999999994,
      "d": 192.9821666666685,
      "v": 93
    },
    {
      "midi": 60,
      "hit": false,
      "t": 69473.57999999994,
      "d": 201.75408333333326,
      "v": 102
    },
    {
      "midi": 41,
      "hit": false,
      "t": 69473.57999999994,
      "d": 390.3502916666621,
      "v": 113
    },
    {
      "midi": 57,
      "hit": false,
      "t": 69736.73749999994,
      "d": 149.1225833333301,
      "v": 98
    },
    {
      "midi": 65,
      "hit": false,
      "t": 69736.73749999994,
      "d": 157.89449999999488,
      "v": 107
    },
    {
      "midi": 60,
      "hit": false,
      "t": 69736.73749999994,
      "d": 162.28045833333454,
      "v": 98
    },
    {
      "midi": 67,
      "hit": false,
      "t": 70526.20999999996,
      "d": 166.66641666665964,
      "v": 107
    },
    {
      "midi": 60,
      "hit": false,
      "t": 70526.20999999996,
      "d": 171.0523749999993,
      "v": 98
    },
    {
      "midi": 64,
      "hit": false,
      "t": 70526.20999999996,
      "d": 171.0523749999993,
      "v": 102
    },
    {
      "midi": 55,
      "hit": false,
      "t": 70526.20999999996,
      "d": 267.5434583333408,
      "v": 98
    },
    {
      "midi": 48,
      "hit": false,
      "t": 70526.20999999996,
      "d": 328.94687500000873,
      "v": 93
    },
    {
      "midi": 60,
      "hit": false,
      "t": 70789.36749999996,
      "d": 83.3332083333371,
      "v": 107
    },
    {
      "midi": 64,
      "hit": false,
      "t": 70789.36749999996,
      "d": 83.3332083333371,
      "v": 107
    },
    {
      "midi": 67,
      "hit": false,
      "t": 70789.36749999996,
      "d": 100.87704166666663,
      "v": 107
    },
    {
      "midi": 58,
      "hit": false,
      "t": 71315.68249999997,
      "d": 1723.6816249999974,
      "v": 93
    },
    {
      "midi": 62,
      "hit": false,
      "t": 71315.68249999997,
      "d": 1723.6816249999974,
      "v": 107
    },
    {
      "midi": 46,
      "hit": false,
      "t": 71315.68249999997,
      "d": 1736.8395000000019,
      "v": 113
    },
    {
      "midi": 65,
      "hit": false,
      "t": 71315.68249999997,
      "d": 1741.2254583333415,
      "v": 102
    },
    {
      "midi": 67,
      "hit": false,
      "t": 71841.99749999997,
      "d": 236.84174999999232,
      "v": 113
    },
    {
      "midi": 69,
      "hit": false,
      "t": 72105.15499999997,
      "d": 214.91195833333768,
      "v": 102
    },
    {
      "midi": 70,
      "hit": false,
      "t": 72368.31249999997,
      "d": 184.21025000000373,
      "v": 102
    },
    {
      "midi": 72,
      "hit": false,
      "t": 72631.46999999997,
      "d": 214.91195833332313,
      "v": 113
    },
    {
      "midi": 70,
      "hit": false,
      "t": 72894.62749999996,
      "d": 166.66641666665964,
      "v": 113
    },
    {
      "midi": 74,
      "hit": false,
      "t": 73157.78499999995,
      "d": 144.736625000005,
      "v": 107
    },
    {
      "midi": 76,
      "hit": false,
      "t": 73420.94249999995,
      "d": 127.19279166667548,
      "v": 113
    },
    {
      "midi": 77,
      "hit": false,
      "t": 73684.09999999996,
      "d": 1478.067958333355,
      "v": 119
    },
    {
      "midi": 53,
      "hit": false,
      "t": 73684.09999999998,
      "d": 201.75408333333326,
      "v": 93
    },
    {
      "midi": 60,
      "hit": false,
      "t": 73684.09999999998,
      "d": 210.52599999999802,
      "v": 107
    },
    {
      "midi": 57,
      "hit": false,
      "t": 73684.09999999998,
      "d": 214.91195833333768,
      "v": 102
    },
    {
      "midi": 41,
      "hit": false,
      "t": 73684.09999999998,
      "d": 486.8413750000036,
      "v": 93
    },
    {
      "midi": 53,
      "hit": false,
      "t": 73947.25749999998,
      "d": 171.0523749999993,
      "v": 98
    },
    {
      "midi": 57,
      "hit": false,
      "t": 73947.25749999998,
      "d": 192.9821666666685,
      "v": 102
    },
    {
      "midi": 60,
      "hit": false,
      "t": 73947.25749999998,
      "d": 201.75408333333326,
      "v": 107
    },
    {
      "midi": 60,
      "hit": false,
      "t": 74736.72999999998,
      "d": 171.0523749999993,
      "v": 93
    },
    {
      "midi": 64,
      "hit": false,
      "t": 74736.72999999998,
      "d": 175.43833333333896,
      "v": 93
    },
    {
      "midi": 67,
      "hit": false,
      "t": 74736.72999999998,
      "d": 175.43833333333896,
      "v": 102
    },
    {
      "midi": 55,
      "hit": false,
      "t": 74736.72999999998,
      "d": 315.7890000000043,
      "v": 98
    },
    {
      "midi": 48,
      "hit": false,
      "t": 74736.72999999998,
      "d": 364.03454166668234,
      "v": 93
    },
    {
      "midi": 64,
      "hit": false,
      "t": 74999.88749999998,
      "d": 78.94724999999744,
      "v": 102
    },
    {
      "midi": 60,
      "hit": false,
      "t": 74999.88749999998,
      "d": 83.3332083333371,
      "v": 102
    },
    {
      "midi": 67,
      "hit": false,
      "t": 74999.88749999998,
      "d": 96.49108333334152,
      "v": 107
    },
    {
      "midi": 62,
      "hit": false,
      "t": 75526.2025,
      "d": 2096.48808333333,
      "v": 113
    },
    {
      "midi": 58,
      "hit": false,
      "t": 75526.2025,
      "d": 2100.8740416666697,
      "v": 102
    },
    {
      "midi": 46,
      "hit": false,
      "t": 75526.2025,
      "d": 2118.417874999999,
      "v": 113
    },
    {
      "midi": 65,
      "hit": false,
      "t": 75526.2025,
      "d": 2144.7336249999935,
      "v": 107
    },
    {
      "midi": 74,
      "hit": false,
      "t": 76052.51749999999,
      "d": 127.19279166667548,
      "v": 102
    },
    {
      "midi": 70,
      "hit": false,
      "t": 76052.51749999999,
      "d": 175.4383333333535,
      "v": 98
    },
    {
      "midi": 77,
      "hit": false,
      "t": 76052.51749999999,
      "d": 206.14004166668747,
      "v": 102
    },
    {
      "midi": 72,
      "hit": false,
      "t": 76184.09625,
      "d": 100.87704166666663,
      "v": 107
    },
    {
      "midi": 70,
      "hit": false,
      "t": 76315.675,
      "d": 592.1043749999953,
      "v": 102
    },
    {
      "midi": 72,
      "hit": false,
      "t": 76578.8325,
      "d": 179.82429166666407,
      "v": 107
    },
    {
      "midi": 74,
      "hit": false,
      "t": 76841.99,
      "d": 486.84137499998906,
      "v": 107
    },
    {
      "midi": 70,
      "hit": false,
      "t": 77105.14749999999,
      "d": 785.0865416666638,
      "v": 102
    },
    {
      "midi": 77,
      "hit": false,
      "t": 77368.305,
      "d": 521.9290416666627,
      "v": 102
    },
    {
      "midi": 41,
      "hit": false,
      "t": 77894.62,
      "d": 526.3149999999878,
      "v": 76
    },
    {
      "midi": 53,
      "hit": false,
      "t": 77894.62,
      "d": 561.4026666666614,
      "v": 53
    },
    {
      "midi": 57,
      "hit": false,
      "t": 77894.62,
      "d": 596.490333333335,
      "v": 59
    },
    {
      "midi": 60,
      "hit": false,
      "t": 77894.62,
      "d": 609.6482083333394,
      "v": 44
    },
    {
      "midi": 72,
      "hit": false,
      "t": 77894.62,
      "d": 1245.6121666666731,
      "v": 72
    },
    {
      "midi": 77,
      "hit": false,
      "t": 77894.62,
      "d": 1495.61179166667,
      "v": 76
    },
    {
      "midi": 64,
      "hit": false,
      "t": 78947.25,
      "d": 385.964333333337,
      "v": 62
    },
    {
      "midi": 55,
      "hit": false,
      "t": 78947.25,
      "d": 416.66604166667094,
      "v": 47
    },
    {
      "midi": 60,
      "hit": false,
      "t": 78947.25,
      "d": 416.66604166667094,
      "v": 60
    },
    {
      "midi": 48,
      "hit": false,
      "t": 78947.25,
      "d": 486.8413750000036,
      "v": 55
    },
    {
      "midi": 53,
      "hit": false,
      "t": 79736.7225,
      "d": 1671.0501249999943,
      "v": 38
    },
    {
      "midi": 58,
      "hit": false,
      "t": 79736.7225,
      "d": 1842.1024999999936,
      "v": 64
    },
    {
      "midi": 62,
      "hit": false,
      "t": 79736.7225,
      "d": 1881.5761249999923,
      "v": 49
    },
    {
      "midi": 53,
      "hit": false,
      "t": 81578.825,
      "d": 214.91195833333768,
      "v": 68
    },
    {
      "midi": 41,
      "hit": false,
      "t": 82105.14,
      "d": 504.38520833333314,
      "v": 64
    },
    {
      "midi": 53,
      "hit": false,
      "t": 82105.14,
      "d": 543.8588333333319,
      "v": 64
    },
    {
      "midi": 57,
      "hit": false,
      "t": 82105.14,
      "d": 552.6307499999966,
      "v": 68
    },
    {
      "midi": 64,
      "hit": false,
      "t": 83157.76999999999,
      "d": 364.0345416666678,
      "v": 56
    },
    {
      "midi": 60,
      "hit": false,
      "t": 83157.76999999999,
      "d": 372.80645833333256,
      "v": 64
    },
    {
      "midi": 55,
      "hit": false,
      "t": 83157.76999999999,
      "d": 460.52562499999476,
      "v": 60
    },
    {
      "midi": 48,
      "hit": false,
      "t": 83157.76999999999,
      "d": 469.2975416666595,
      "v": 72
    },
    {
      "midi": 58,
      "hit": false,
      "t": 84210.39999999998,
      "d": 548.2447916666715,
      "v": 76
    },
    {
      "midi": 62,
      "hit": false,
      "t": 84210.39999999998,
      "d": 565.788625000001,
      "v": 76
    },
    {
      "midi": 67,
      "hit": false,
      "t": 84605.13624999998,
      "d": 377.1924166666722,
      "v": 56
    },
    {
      "midi": 65,
      "hit": false,
      "t": 85263.02999999998,
      "d": 504.38520833333314,
      "v": 64
    },
    {
      "midi": 62,
      "hit": false,
      "t": 85789.34499999999,
      "d": 144.736625000005,
      "v": 72
    },
    {
      "midi": 41,
      "hit": false,
      "t": 86315.65999999999,
      "d": 521.9290416666772,
      "v": 76
    },
    {
      "midi": 48,
      "hit": false,
      "t": 86578.81749999999,
      "d": 285.0872916666849,
      "v": 72
    },
    {
      "midi": 55,
      "hit": false,
      "t": 86841.975,
      "d": 276.3153750000056,
      "v": 85
    },
    {
      "midi": 57,
      "hit": false,
      "t": 87105.1325,
      "d": 228.0698333333421,
      "v": 76
    },
    {
      "midi": 48,
      "hit": false,
      "t": 87368.29000000002,
      "d": 622.8060833333293,
      "v": 68
    },
    {
      "midi": 55,
      "hit": false,
      "t": 87631.44750000002,
      "d": 241.22770833333198,
      "v": 72
    },
    {
      "midi": 60,
      "hit": false,
      "t": 87894.60500000003,
      "d": 271.9294166666514,
      "v": 68
    },
    {
      "midi": 64,
      "hit": false,
      "t": 88157.76250000001,
      "d": 179.82429166666407,
      "v": 62
    },
    {
      "midi": 46,
      "hit": false,
      "t": 88420.92000000001,
      "d": 1570.1730833333277,
      "v": 76
    },
    {
      "midi": 62,
      "hit": false,
      "t": 89999.865,
      "d": 114.03491666667105,
      "v": 50
    },
    {
      "midi": 58,
      "hit": false,
      "t": 89999.865,
      "d": 157.89450000000943,
      "v": 56
    },
    {
      "midi": 53,
      "hit": false,
      "t": 89999.865,
      "d": 171.05237500001385,
      "v": 26
    },
    {
      "midi": 53,
      "hit": false,
      "t": 90526.18000000002,
      "d": 1175.436833333326,
      "v": 47
    },
    {
      "midi": 58,
      "hit": false,
      "t": 90526.18000000002,
      "d": 1245.6121666666586,
      "v": 60
    },
    {
      "midi": 46,
      "hit": false,
      "t": 90526.18000000002,
      "d": 1249.9981249999983,
      "v": 72
    },
    {
      "midi": 60,
      "hit": false,
      "t": 92631.44000000002,
      "d": 1390.3487916666636,
      "v": 60
    },
    {
      "midi": 55,
      "hit": false,
      "t": 92631.44000000002,
      "d": 1486.8398749999906,
      "v": 40
    },
    {
      "midi": 48,
      "hit": false,
      "t": 92631.44000000002,
      "d": 1635.9624583333207,
      "v": 57
    },
    {
      "midi": 81,
      "hit": false,
      "t": 93947.2275,
      "d": 92.10512500000186,
      "v": 93
    },
    {
      "midi": 79,
      "hit": false,
      "t": 94210.385,
      "d": 96.49108333332697,
      "v": 89
    },
    {
      "midi": 77,
      "hit": false,
      "t": 94473.54249999998,
      "d": 74.56129166667233,
      "v": 89
    },
    {
      "midi": 72,
      "hit": false,
      "t": 94736.69999999998,
      "d": 1864.0322916667064,
      "v": 93
    },
    {
      "midi": 41,
      "hit": false,
      "t": 94736.7,
      "d": 526.3149999999878,
      "v": 76
    },
    {
      "midi": 53,
      "hit": false,
      "t": 94736.7,
      "d": 561.4026666666614,
      "v": 53
    },
    {
      "midi": 57,
      "hit": false,
      "t": 94736.7,
      "d": 596.490333333335,
      "v": 59
    },
    {
      "midi": 60,
      "hit": false,
      "t": 94736.7,
      "d": 609.6482083333394,
      "v": 44
    },
    {
      "midi": 64,
      "hit": false,
      "t": 95789.33,
      "d": 385.964333333337,
      "v": 62
    },
    {
      "midi": 55,
      "hit": false,
      "t": 95789.33,
      "d": 416.66604166667094,
      "v": 47
    },
    {
      "midi": 60,
      "hit": false,
      "t": 95789.33,
      "d": 416.66604166667094,
      "v": 60
    },
    {
      "midi": 48,
      "hit": false,
      "t": 95789.33,
      "d": 486.8413750000036,
      "v": 55
    },
    {
      "midi": 53,
      "hit": false,
      "t": 96578.8025,
      "d": 1671.0501249999943,
      "v": 38
    },
    {
      "midi": 58,
      "hit": false,
      "t": 96578.8025,
      "d": 1842.1024999999936,
      "v": 64
    },
    {
      "midi": 62,
      "hit": false,
      "t": 96578.8025,
      "d": 1881.5761249999923,
      "v": 49
    },
    {
      "midi": 74,
      "hit": false,
      "t": 97631.43250000002,
      "d": 833.3320833333855,
      "v": 113
    },
    {
      "midi": 53,
      "hit": false,
      "t": 98420.905,
      "d": 214.91195833333768,
      "v": 68
    },
    {
      "midi": 72,
      "hit": false,
      "t": 98420.90500000007,
      "d": 350.87666666666337,
      "v": 76
    },
    {
      "midi": 41,
      "hit": false,
      "t": 98947.22,
      "d": 504.38520833333314,
      "v": 64
    },
    {
      "midi": 53,
      "hit": false,
      "t": 98947.22,
      "d": 543.8588333333319,
      "v": 64
    },
    {
      "midi": 57,
      "hit": false,
      "t": 98947.22,
      "d": 552.6307499999966,
      "v": 68
    },
    {
      "midi": 69,
      "hit": false,
      "t": 98947.22000000007,
      "d": 890.3495416666556,
      "v": 98
    },
    {
      "midi": 64,
      "hit": false,
      "t": 99999.84999999999,
      "d": 364.0345416666678,
      "v": 56
    },
    {
      "midi": 60,
      "hit": false,
      "t": 99999.84999999999,
      "d": 372.80645833333256,
      "v": 64
    },
    {
      "midi": 55,
      "hit": false,
      "t": 99999.84999999999,
      "d": 460.52562499999476,
      "v": 60
    },
    {
      "midi": 48,
      "hit": false,
      "t": 99999.84999999999,
      "d": 469.2975416666595,
      "v": 72
    },
    {
      "midi": 72,
      "hit": false,
      "t": 99999.85000000006,
      "d": 635.9639583333337,
      "v": 93
    },
    {
      "midi": 58,
      "hit": false,
      "t": 101052.47999999998,
      "d": 548.2447916666715,
      "v": 76
    },
    {
      "midi": 62,
      "hit": false,
      "t": 101052.47999999998,
      "d": 565.788625000001,
      "v": 76
    },
    {
      "midi": 70,
      "hit": false,
      "t": 101052.48000000005,
      "d": 429.82391666667536,
      "v": 89
    },
    {
      "midi": 67,
      "hit": false,
      "t": 101447.21624999998,
      "d": 377.1924166666722,
      "v": 56
    },
    {
      "midi": 77,
      "hit": false,
      "t": 101578.79500000006,
      "d": 157.89449999999488,
      "v": 93
    },
    {
      "midi": 65,
      "hit": false,
      "t": 102105.10999999999,
      "d": 504.38520833333314,
      "v": 64
    },
    {
      "midi": 76,
      "hit": false,
      "t": 102105.11000000004,
      "d": 96.49108333332697,
      "v": 89
    },
    {
      "midi": 62,
      "hit": false,
      "t": 102631.42499999999,
      "d": 144.736625000005,
      "v": 72
    },
    {
      "midi": 74,
      "hit": false,
      "t": 102631.42500000005,
      "d": 403.5081666666665,
      "v": 93
    },
    {
      "midi": 41,
      "hit": false,
      "t": 103157.73999999999,
      "d": 521.9290416666772,
      "v": 76
    },
    {
      "midi": 72,
      "hit": false,
      "t": 103157.74000000005,
      "d": 434.20987500000047,
      "v": 89
    },
    {
      "midi": 48,
      "hit": false,
      "t": 103420.89749999999,
      "d": 285.0872916666849,
      "v": 72
    },
    {
      "midi": 55,
      "hit": false,
      "t": 103684.05500000001,
      "d": 276.3153750000056,
      "v": 85
    },
    {
      "midi": 77,
      "hit": false,
      "t": 103684.05500000005,
      "d": 214.91195833333768,
      "v": 76
    },
    {
      "midi": 57,
      "hit": false,
      "t": 103947.21250000001,
      "d": 228.0698333333421,
      "v": 76
    },
    {
      "midi": 48,
      "hit": false,
      "t": 104210.37000000002,
      "d": 622.8060833333293,
      "v": 68
    },
    {
      "midi": 79,
      "hit": false,
      "t": 104210.37000000005,
      "d": 995.6125416666764,
      "v": 76
    },
    {
      "midi": 55,
      "hit": false,
      "t": 104473.52750000003,
      "d": 241.22770833333198,
      "v": 72
    },
    {
      "midi": 60,
      "hit": false,
      "t": 104736.68500000003,
      "d": 271.9294166666514,
      "v": 68
    },
    {
      "midi": 64,
      "hit": false,
      "t": 104999.84250000001,
      "d": 179.82429166666407,
      "v": 62
    },
    {
      "midi": 46,
      "hit": false,
      "t": 105263.00000000001,
      "d": 1570.1730833333277,
      "v": 76
    },
    {
      "midi": 77,
      "hit": false,
      "t": 105789.31500000006,
      "d": 78.94724999999744,
      "v": 89
    },
    {
      "midi": 74,
      "hit": false,
      "t": 106315.63000000006,
      "d": 92.10512500000186,
      "v": 85
    },
    {
      "midi": 62,
      "hit": false,
      "t": 106841.945,
      "d": 114.03491666667105,
      "v": 50
    },
    {
      "midi": 58,
      "hit": false,
      "t": 106841.945,
      "d": 157.89450000000943,
      "v": 56
    },
    {
      "midi": 53,
      "hit": false,
      "t": 106841.945,
      "d": 171.05237500001385,
      "v": 26
    },
    {
      "midi": 72,
      "hit": false,
      "t": 106841.94500000007,
      "d": 78.94724999999744,
      "v": 89
    },
    {
      "midi": 53,
      "hit": false,
      "t": 107368.26000000002,
      "d": 1175.436833333326,
      "v": 47
    },
    {
      "midi": 58,
      "hit": false,
      "t": 107368.26000000002,
      "d": 1245.6121666666586,
      "v": 60
    },
    {
      "midi": 46,
      "hit": false,
      "t": 107368.26000000002,
      "d": 1249.9981249999983,
      "v": 72
    },
    {
      "midi": 70,
      "hit": false,
      "t": 107368.26000000007,
      "d": 1434.2083749999874,
      "v": 89
    },
    {
      "midi": 60,
      "hit": false,
      "t": 109473.52000000002,
      "d": 1390.3487916666636,
      "v": 60
    },
    {
      "midi": 55,
      "hit": false,
      "t": 109473.52000000002,
      "d": 1486.8398749999906,
      "v": 40
    },
    {
      "midi": 48,
      "hit": false,
      "t": 109473.52000000002,
      "d": 1635.9624583333207,
      "v": 57
    },
    {
      "midi": 65,
      "hit": false,
      "t": 111578.78,
      "d": 381.5783749999973,
      "v": 89
    },
    {
      "midi": 69,
      "hit": false,
      "t": 111578.78,
      "d": 513.1571249999979,
      "v": 89
    },
    {
      "midi": 60,
      "hit": false,
      "t": 111578.78,
      "d": 692.981416666662,
      "v": 89
    },
    {
      "midi": 53,
      "hit": false,
      "t": 111578.78,
      "d": 1425.4364583333227,
      "v": 93
    },
    {
      "midi": 64,
      "hit": false,
      "t": 111578.78000000006,
      "d": 337.7187916666735,
      "v": 102
    },
    {
      "midi": 67,
      "hit": false,
      "t": 111578.78000000006,
      "d": 372.8064583333471,
      "v": 107
    },
    {
      "midi": 65,
      "hit": false,
      "t": 112105.095,
      "d": 118.42087499999616,
      "v": 68
    },
    {
      "midi": 67,
      "hit": false,
      "t": 112368.25249999999,
      "d": 105.26300000000629,
      "v": 98
    },
    {
      "midi": 72,
      "hit": false,
      "t": 112368.25249999999,
      "d": 127.19279166667548,
      "v": 102
    },
    {
      "midi": 65,
      "hit": false,
      "t": 112368.25250000008,
      "d": 833.3320833333273,
      "v": 107
    },
    {
      "midi": 69,
      "hit": false,
      "t": 112368.25250000008,
      "d": 833.3320833333273,
      "v": 113
    },
    {
      "midi": 72,
      "hit": false,
      "t": 112894.56749999999,
      "d": 184.21025000000373,
      "v": 102
    },
    {
      "midi": 69,
      "hit": false,
      "t": 112894.56749999999,
      "d": 197.36812500000815,
      "v": 98
    },
    {
      "midi": 65,
      "hit": false,
      "t": 113157.72499999999,
      "d": 100.87704166666663,
      "v": 89
    },
    {
      "midi": 62,
      "hit": false,
      "t": 113684.04,
      "d": 364.0345416666678,
      "v": 56
    },
    {
      "midi": 69,
      "hit": false,
      "t": 113684.04,
      "d": 372.80645833333256,
      "v": 60
    },
    {
      "midi": 65,
      "hit": false,
      "t": 113684.04,
      "d": 399.12220833332685,
      "v": 80
    },
    {
      "midi": 57,
      "hit": false,
      "t": 113684.04,
      "d": 614.03416666665,
      "v": 76
    },
    {
      "midi": 50,
      "hit": false,
      "t": 113684.04,
      "d": 1407.8926249999931,
      "v": 89
    },
    {
      "midi": 64,
      "hit": false,
      "t": 113684.04000000007,
      "d": 434.20987500000047,
      "v": 98
    },
    {
      "midi": 67,
      "hit": false,
      "t": 113684.04000000007,
      "d": 473.6834999999992,
      "v": 107
    },
    {
      "midi": 69,
      "hit": false,
      "t": 114210.35499999998,
      "d": 105.26299999999173,
      "v": 89
    },
    {
      "midi": 65,
      "hit": false,
      "t": 114210.35499999998,
      "d": 114.0349166666565,
      "v": 93
    },
    {
      "midi": 60,
      "hit": false,
      "t": 114210.35499999998,
      "d": 118.42087499999616,
      "v": 89
    },
    {
      "midi": 65,
      "hit": false,
      "t": 114473.51249999998,
      "d": 403.5081666666665,
      "v": 102
    },
    {
      "midi": 69,
      "hit": false,
      "t": 114473.51249999998,
      "d": 416.66604166667094,
      "v": 102
    },
    {
      "midi": 60,
      "hit": false,
      "t": 114473.51249999998,
      "d": 442.98179166666523,
      "v": 93
    },
    {
      "midi": 65,
      "hit": false,
      "t": 114473.51250000007,
      "d": 776.3146249999991,
      "v": 102
    },
    {
      "midi": 69,
      "hit": false,
      "t": 114473.51250000007,
      "d": 789.4725000000035,
      "v": 107
    },
    {
      "midi": 60,
      "hit": false,
      "t": 114999.82749999998,
      "d": 149.1225833333301,
      "v": 89
    },
    {
      "midi": 69,
      "hit": false,
      "t": 114999.82749999998,
      "d": 276.3153750000056,
      "v": 102
    },
    {
      "midi": 64,
      "hit": false,
      "t": 114999.82749999998,
      "d": 289.47325000001,
      "v": 98
    },
    {
      "midi": 60,
      "hit": false,
      "t": 115262.98499999999,
      "d": 127.19279166667548,
      "v": 76
    },
    {
      "midi": 53,
      "hit": false,
      "t": 115789.29999999999,
      "d": 399.12220833332685,
      "v": 76
    },
    {
      "midi": 58,
      "hit": false,
      "t": 115789.29999999999,
      "d": 714.9112083333166,
      "v": 85
    },
    {
      "midi": 62,
      "hit": false,
      "t": 115789.29999999999,
      "d": 723.6831249999814,
      "v": 89
    },
    {
      "midi": 46,
      "hit": false,
      "t": 115789.29999999999,
      "d": 929.8231666666397,
      "v": 93
    },
    {
      "midi": 77,
      "hit": false,
      "t": 116052.45750000006,
      "d": 83.33320833332255,
      "v": 113
    },
    {
      "midi": 53,
      "hit": false,
      "t": 116315.61499999998,
      "d": 127.19279166666092,
      "v": 51
    },
    {
      "midi": 53,
      "hit": false,
      "t": 116578.77249999996,
      "d": 179.82429166666407,
      "v": 72
    },
    {
      "midi": 58,
      "hit": false,
      "t": 116578.77249999996,
      "d": 482.45541666666395,
      "v": 76
    },
    {
      "midi": 62,
      "hit": false,
      "t": 116578.77249999996,
      "d": 605.2622499999998,
      "v": 93
    },
    {
      "midi": 76,
      "hit": false,
      "t": 116578.77250000005,
      "d": 74.56129166667233,
      "v": 102
    },
    {
      "midi": 46,
      "hit": false,
      "t": 116841.92999999996,
      "d": 96.49108333332697,
      "v": 56
    },
    {
      "midi": 53,
      "hit": false,
      "t": 117105.08749999997,
      "d": 140.35066666666535,
      "v": 68
    },
    {
      "midi": 72,
      "hit": false,
      "t": 117105.08750000005,
      "d": 438.5958333333401,
      "v": 113
    },
    {
      "midi": 53,
      "hit": false,
      "t": 117368.24499999997,
      "d": 92.10512500000186,
      "v": 89
    },
    {
      "midi": 62,
      "hit": false,
      "t": 117368.24499999997,
      "d": 179.82429166666407,
      "v": 107
    },
    {
      "midi": 58,
      "hit": false,
      "t": 117368.24499999997,
      "d": 289.47324999999546,
      "v": 89
    },
    {
      "midi": 62,
      "hit": false,
      "t": 117631.40249999997,
      "d": 52.63149999998859,
      "v": 41
    },
    {
      "midi": 53,
      "hit": false,
      "t": 117631.40249999997,
      "d": 92.10512499998731,
      "v": 85
    },
    {
      "midi": 48,
      "hit": false,
      "t": 117894.55999999997,
      "d": 1543.8573333333625,
      "v": 72
    },
    {
      "midi": 60,
      "hit": false,
      "t": 118157.71749999997,
      "d": 92.10512500000186,
      "v": 98
    },
    {
      "midi": 64,
      "hit": false,
      "t": 118157.71749999997,
      "d": 105.26300000000629,
      "v": 107
    },
    {
      "midi": 67,
      "hit": false,
      "t": 118157.71749999997,
      "d": 118.42087500001071,
      "v": 102
    },
    {
      "midi": 72,
      "hit": false,
      "t": 118157.71750000006,
      "d": 649.1218333333381,
      "v": 113
    },
    {
      "midi": 62,
      "hit": false,
      "t": 118420.87499999999,
      "d": 333.33283333333384,
      "v": 102
    },
    {
      "midi": 67,
      "hit": false,
      "t": 118420.87499999999,
      "d": 342.1047499999986,
      "v": 93
    },
    {
      "midi": 55,
      "hit": false,
      "t": 118684.03249999999,
      "d": 118.42087499999616,
      "v": 98
    },
    {
      "midi": 64,
      "hit": false,
      "t": 118947.18999999999,
      "d": 157.89449999999488,
      "v": 102
    },
    {
      "midi": 67,
      "hit": false,
      "t": 118947.18999999999,
      "d": 192.9821666666685,
      "v": 98
    },
    {
      "midi": 70,
      "hit": false,
      "t": 118947.19000000006,
      "d": 92.10512500000186,
      "v": 102
    },
    {
      "midi": 65,
      "hit": false,
      "t": 119210.34749999999,
      "d": 245.61366666667163,
      "v": 98
    },
    {
      "midi": 60,
      "hit": false,
      "t": 119210.34749999999,
      "d": 311.40304166666465,
      "v": 93
    },
    {
      "midi": 67,
      "hit": false,
      "t": 119210.34749999999,
      "d": 635.9639583333337,
      "v": 76
    },
    {
      "midi": 69,
      "hit": false,
      "t": 119210.34750000006,
      "d": 289.47324999999546,
      "v": 102
    },
    {
      "midi": 64,
      "hit": false,
      "t": 119473.50499999999,
      "d": 280.7013333333307,
      "v": 76
    },
    {
      "midi": 67,
      "hit": false,
      "t": 119473.50500000006,
      "d": 223.6838749999879,
      "v": 113
    },
    {
      "midi": 60,
      "hit": false,
      "t": 119736.66249999999,
      "d": 78.94724999999744,
      "v": 98
    },
    {
      "midi": 65,
      "hit": false,
      "t": 119736.66250000005,
      "d": 105.26300000000629,
      "v": 85
    },
    {
      "midi": 53,
      "hit": false,
      "t": 119999.81999999999,
      "d": 464.9115833333344,
      "v": 89
    },
    {
      "midi": 76,
      "hit": false,
      "t": 119999.82000000005,
      "d": 513.1571250000125,
      "v": 76
    },
    {
      "midi": 79,
      "hit": false,
      "t": 119999.82000000005,
      "d": 565.7886250000156,
      "v": 93
    },
    {
      "midi": 60,
      "hit": false,
      "t": 120262.9775,
      "d": 92.10512500000186,
      "v": 98
    },
    {
      "midi": 72,
      "hit": false,
      "t": 120526.135,
      "d": 105.26300000000629,
      "v": 93
    },
    {
      "midi": 65,
      "hit": false,
      "t": 120526.135,
      "d": 118.42087500001071,
      "v": 93
    },
    {
      "midi": 69,
      "hit": false,
      "t": 120526.135,
      "d": 118.42087500001071,
      "v": 98
    },
    {
      "midi": 67,
      "hit": false,
      "t": 120789.29250000001,
      "d": 350.87666666666337,
      "v": 102
    },
    {
      "midi": 72,
      "hit": false,
      "t": 120789.29250000001,
      "d": 416.6660416666564,
      "v": 102
    },
    {
      "midi": 41,
      "hit": false,
      "t": 120789.29250000001,
      "d": 837.7180416666524,
      "v": 80
    },
    {
      "midi": 77,
      "hit": false,
      "t": 120789.29250000007,
      "d": 833.3320833333273,
      "v": 89
    },
    {
      "midi": 81,
      "hit": false,
      "t": 120789.29250000007,
      "d": 833.3320833333273,
      "v": 89
    },
    {
      "midi": 69,
      "hit": false,
      "t": 121315.6075,
      "d": 504.38520833333314,
      "v": 93
    },
    {
      "midi": 72,
      "hit": false,
      "t": 121315.6075,
      "d": 565.788625000001,
      "v": 102
    },
    {
      "midi": 48,
      "hit": false,
      "t": 121578.765,
      "d": 100.87704166666663,
      "v": 98
    },
    {
      "midi": 65,
      "hit": false,
      "t": 121841.9225,
      "d": 105.26299999999173,
      "v": 85
    },
    {
      "midi": 50,
      "hit": false,
      "t": 122105.07999999999,
      "d": 1719.2956666666869,
      "v": 93
    },
    {
      "midi": 76,
      "hit": false,
      "t": 122105.08000000007,
      "d": 614.0341666666645,
      "v": 89
    },
    {
      "midi": 79,
      "hit": false,
      "t": 122105.08000000007,
      "d": 627.192041666669,
      "v": 93
    },
    {
      "midi": 57,
      "hit": false,
      "t": 122368.23749999999,
      "d": 171.0523749999993,
      "v": 62
    },
    {
      "midi": 69,
      "hit": false,
      "t": 122631.39499999999,
      "d": 87.7191666666622,
      "v": 62
    },
    {
      "midi": 60,
      "hit": false,
      "t": 122631.39499999999,
      "d": 105.26299999999173,
      "v": 72
    },
    {
      "midi": 65,
      "hit": false,
      "t": 122631.39499999999,
      "d": 118.42087499999616,
      "v": 89
    },
    {
      "midi": 69,
      "hit": false,
      "t": 122894.55249999999,
      "d": 372.80645833333256,
      "v": 102
    },
    {
      "midi": 60,
      "hit": false,
      "t": 122894.55249999999,
      "d": 377.1924166666722,
      "v": 93
    },
    {
      "midi": 65,
      "hit": false,
      "t": 122894.55249999999,
      "d": 381.5783750000119,
      "v": 113
    },
    {
      "midi": 81,
      "hit": false,
      "t": 122894.55250000008,
      "d": 846.4899583333317,
      "v": 93
    },
    {
      "midi": 77,
      "hit": false,
      "t": 122894.55250000008,
      "d": 855.2618749999965,
      "v": 85
    },
    {
      "midi": 60,
      "hit": false,
      "t": 123420.86750000001,
      "d": 315.7890000000043,
      "v": 98
    },
    {
      "midi": 65,
      "hit": false,
      "t": 123420.86750000001,
      "d": 447.3677500000049,
      "v": 107
    },
    {
      "midi": 69,
      "hit": false,
      "t": 123420.86750000001,
      "d": 548.2447916666715,
      "v": 107
    },
    {
      "midi": 57,
      "hit": false,
      "t": 123684.02500000001,
      "d": 78.94724999999744,
      "v": 72
    },
    {
      "midi": 60,
      "hit": false,
      "t": 123947.18250000001,
      "d": 83.3332083333371,
      "v": 72
    },
    {
      "midi": 46,
      "hit": false,
      "t": 124210.34000000001,
      "d": 938.5950833333482,
      "v": 93
    },
    {
      "midi": 53,
      "hit": false,
      "t": 124473.49750000001,
      "d": 65.78937500000757,
      "v": 47
    },
    {
      "midi": 53,
      "hit": false,
      "t": 124736.65500000003,
      "d": 114.03491666667105,
      "v": 60
    },
    {
      "midi": 58,
      "hit": false,
      "t": 124736.65500000003,
      "d": 114.03491666667105,
      "v": 72
    },
    {
      "midi": 62,
      "hit": false,
      "t": 124736.65500000003,
      "d": 114.03491666667105,
      "v": 89
    },
    {
      "midi": 53,
      "hit": false,
      "t": 124999.81250000003,
      "d": 333.33283333333384,
      "v": 93
    },
    {
      "midi": 62,
      "hit": false,
      "t": 124999.81250000003,
      "d": 614.0341666666645,
      "v": 113
    },
    {
      "midi": 58,
      "hit": false,
      "t": 124999.81250000003,
      "d": 640.3499166666588,
      "v": 98
    },
    {
      "midi": 46,
      "hit": false,
      "t": 125262.97000000003,
      "d": 583.332458333316,
      "v": 72
    },
    {
      "midi": 53,
      "hit": false,
      "t": 125526.12750000003,
      "d": 153.50854166665522,
      "v": 68
    },
    {
      "midi": 53,
      "hit": false,
      "t": 125789.28500000002,
      "d": 114.0349166666565,
      "v": 72
    },
    {
      "midi": 58,
      "hit": false,
      "t": 125789.28500000002,
      "d": 192.98216666665394,
      "v": 93
    },
    {
      "midi": 62,
      "hit": false,
      "t": 125789.28500000002,
      "d": 206.14004166665836,
      "v": 102
    },
    {
      "midi": 53,
      "hit": false,
      "t": 126052.4425,
      "d": 175.43833333333896,
      "v": 76
    },
    {
      "midi": 62,
      "hit": false,
      "t": 126052.4425,
      "d": 175.43833333333896,
      "v": 62
    },
    {
      "midi": 48,
      "hit": false,
      "t": 126315.6,
      "d": 1916.6637916667096,
      "v": 89
    },
    {
      "midi": 60,
      "hit": false,
      "t": 126578.7575,
      "d": 78.94724999999744,
      "v": 85
    },
    {
      "midi": 67,
      "hit": false,
      "t": 126841.91500000001,
      "d": 61.40341666666791,
      "v": 98
    },
    {
      "midi": 62,
      "hit": false,
      "t": 126841.91500000001,
      "d": 74.56129166667233,
      "v": 107
    },
    {
      "midi": 62,
      "hit": false,
      "t": 127105.07250000001,
      "d": 368.42050000000745,
      "v": 107
    },
    {
      "midi": 67,
      "hit": false,
      "t": 127105.07250000001,
      "d": 372.8064583333471,
      "v": 102
    },
    {
      "midi": 55,
      "hit": false,
      "t": 127368.23000000001,
      "d": 162.2804583333491,
      "v": 80
    },
    {
      "midi": 64,
      "hit": false,
      "t": 127631.38750000003,
      "d": 421.0520000000106,
      "v": 85
    },
    {
      "midi": 67,
      "hit": false,
      "t": 127631.38750000003,
      "d": 473.68350000001374,
      "v": 89
    },
    {
      "midi": 60,
      "hit": false,
      "t": 127631.38750000003,
      "d": 486.84137500001816,
      "v": 80
    },
    {
      "midi": 55,
      "hit": false,
      "t": 127894.54500000003,
      "d": 258.7715416666906,
      "v": 93
    },
    {
      "midi": 62,
      "hit": false,
      "t": 128157.70250000006,
      "d": 96.49108333332697,
      "v": 76
    },
    {
      "midi": 53,
      "hit": false,
      "t": 128420.86000000004,
      "d": 675.4375833333324,
      "v": 64
    },
    {
      "midi": 62,
      "hit": false,
      "t": 128420.86000000004,
      "d": 991.2265833333367,
      "v": 89
    },
    {
      "midi": 58,
      "hit": false,
      "t": 128420.86000000004,
      "d": 1030.7002083333355,
      "v": 85
    },
    {
      "midi": 46,
      "hit": false,
      "t": 128420.86000000004,
      "d": 1070.1738333333342,
      "v": 89
    },
    {
      "midi": 53,
      "hit": false,
      "t": 129473.49000000005,
      "d": 114.0349166666565,
      "v": 55
    },
    {
      "midi": 46,
      "hit": false,
      "t": 129736.64750000004,
      "d": 118.42087499999616,
      "v": 98
    },
    {
      "midi": 58,
      "hit": false,
      "t": 129999.80500000004,
      "d": 83.3332083333371,
      "v": 85
    },
    {
      "midi": 62,
      "hit": false,
      "t": 129999.80500000004,
      "d": 100.87704166666663,
      "v": 107
    },
    {
      "midi": 55,
      "hit": false,
      "t": 130526.12000000002,
      "d": 776.3146249999991,
      "v": 93
    },
    {
      "midi": 60,
      "hit": false,
      "t": 130526.12000000002,
      "d": 1434.2083749999874,
      "v": 93
    },
    {
      "midi": 64,
      "hit": false,
      "t": 130526.12000000002,
      "d": 1706.137791666668,
      "v": 89
    },
    {
      "midi": 48,
      "hit": false,
      "t": 130526.12000000002,
      "d": 1807.014833333349,
      "v": 93
    },
    {
      "midi": 65,
      "hit": false,
      "t": 132631.38000000003,
      "d": 188.59620833332883,
      "v": 98
    },
    {
      "midi": 57,
      "hit": false,
      "t": 132631.38000000003,
      "d": 192.98216666665394,
      "v": 93
    },
    {
      "midi": 60,
      "hit": false,
      "t": 132631.38000000003,
      "d": 201.75408333333326,
      "v": 102
    },
    {
      "midi": 41,
      "hit": false,
      "t": 132631.38000000003,
      "d": 390.3502916666621,
      "v": 113
    },
    {
      "midi": 57,
      "hit": false,
      "t": 132894.53750000003,
      "d": 149.12258333331556,
      "v": 98
    },
    {
      "midi": 65,
      "hit": false,
      "t": 132894.53750000003,
      "d": 157.89449999999488,
      "v": 107
    },
    {
      "midi": 60,
      "hit": false,
      "t": 132894.53750000003,
      "d": 162.28045833331998,
      "v": 98
    },
    {
      "midi": 67,
      "hit": false,
      "t": 133684.01,
      "d": 166.6664166666742,
      "v": 107
    },
    {
      "midi": 60,
      "hit": false,
      "t": 133684.01,
      "d": 171.0523749999993,
      "v": 98
    },
    {
      "midi": 64,
      "hit": false,
      "t": 133684.01,
      "d": 171.0523749999993,
      "v": 102
    },
    {
      "midi": 55,
      "hit": false,
      "t": 133684.01,
      "d": 267.54345833332627,
      "v": 98
    },
    {
      "midi": 48,
      "hit": false,
      "t": 133684.01,
      "d": 328.9468749999942,
      "v": 93
    },
    {
      "midi": 60,
      "hit": false,
      "t": 133947.1675,
      "d": 83.33320833332255,
      "v": 107
    },
    {
      "midi": 64,
      "hit": false,
      "t": 133947.1675,
      "d": 83.33320833332255,
      "v": 107
    },
    {
      "midi": 67,
      "hit": false,
      "t": 133947.1675,
      "d": 100.87704166665208,
      "v": 107
    },
    {
      "midi": 58,
      "hit": false,
      "t": 134473.48249999998,
      "d": 1723.6816250000265,
      "v": 93
    },
    {
      "midi": 62,
      "hit": false,
      "t": 134473.48249999998,
      "d": 1723.6816250000265,
      "v": 107
    },
    {
      "midi": 46,
      "hit": false,
      "t": 134473.48249999998,
      "d": 1736.839500000031,
      "v": 113
    },
    {
      "midi": 65,
      "hit": false,
      "t": 134473.48249999998,
      "d": 1741.225458333356,
      "v": 102
    },
    {
      "midi": 67,
      "hit": false,
      "t": 134999.79750000007,
      "d": 236.84175000005052,
      "v": 113
    },
    {
      "midi": 69,
      "hit": false,
      "t": 135262.9550000001,
      "d": 214.91195833333768,
      "v": 102
    },
    {
      "midi": 70,
      "hit": false,
      "t": 135526.1125000001,
      "d": 184.21025000000373,
      "v": 102
    },
    {
      "midi": 72,
      "hit": false,
      "t": 135789.2700000001,
      "d": 214.91195833333768,
      "v": 113
    },
    {
      "midi": 70,
      "hit": false,
      "t": 136052.4275000001,
      "d": 166.6664166666742,
      "v": 113
    },
    {
      "midi": 74,
      "hit": false,
      "t": 136315.5850000001,
      "d": 144.73662499999045,
      "v": 107
    },
    {
      "midi": 76,
      "hit": false,
      "t": 136578.7425000001,
      "d": 127.19279166666092,
      "v": 113
    },
    {
      "midi": 53,
      "hit": false,
      "t": 136841.90000000002,
      "d": 201.75408333333326,
      "v": 93
    },
    {
      "midi": 60,
      "hit": false,
      "t": 136841.90000000002,
      "d": 210.52600000001257,
      "v": 107
    },
    {
      "midi": 57,
      "hit": false,
      "t": 136841.90000000002,
      "d": 214.91195833333768,
      "v": 102
    },
    {
      "midi": 41,
      "hit": false,
      "t": 136841.90000000002,
      "d": 486.84137499998906,
      "v": 93
    },
    {
      "midi": 77,
      "hit": false,
      "t": 136841.9000000001,
      "d": 1478.0679583334131,
      "v": 119
    },
    {
      "midi": 53,
      "hit": false,
      "t": 137105.05750000002,
      "d": 171.0523749999993,
      "v": 98
    },
    {
      "midi": 57,
      "hit": false,
      "t": 137105.05750000002,
      "d": 192.98216666665394,
      "v": 102
    },
    {
      "midi": 60,
      "hit": false,
      "t": 137105.05750000002,
      "d": 201.75408333333326,
      "v": 107
    },
    {
      "midi": 60,
      "hit": false,
      "t": 137894.53,
      "d": 171.0523749999993,
      "v": 93
    },
    {
      "midi": 64,
      "hit": false,
      "t": 137894.53,
      "d": 175.4383333333244,
      "v": 93
    },
    {
      "midi": 67,
      "hit": false,
      "t": 137894.53,
      "d": 175.4383333333244,
      "v": 102
    },
    {
      "midi": 55,
      "hit": false,
      "t": 137894.53,
      "d": 315.78899999998976,
      "v": 98
    },
    {
      "midi": 48,
      "hit": false,
      "t": 137894.53,
      "d": 364.03454166665324,
      "v": 93
    },
    {
      "midi": 64,
      "hit": false,
      "t": 138157.6875,
      "d": 78.94724999999744,
      "v": 102
    },
    {
      "midi": 60,
      "hit": false,
      "t": 138157.6875,
      "d": 83.33320833332255,
      "v": 102
    },
    {
      "midi": 67,
      "hit": false,
      "t": 138157.6875,
      "d": 96.49108333332697,
      "v": 107
    },
    {
      "midi": 62,
      "hit": false,
      "t": 138684.00249999997,
      "d": 2096.48808333333,
      "v": 113
    },
    {
      "midi": 58,
      "hit": false,
      "t": 138684.00249999997,
      "d": 2100.874041666655,
      "v": 102
    },
    {
      "midi": 46,
      "hit": false,
      "t": 138684.00249999997,
      "d": 2118.4178749999846,
      "v": 113
    },
    {
      "midi": 65,
      "hit": false,
      "t": 138684.00249999997,
      "d": 2144.7336249999935,
      "v": 107
    },
    {
      "midi": 74,
      "hit": false,
      "t": 139210.31750000018,
      "d": 127.19279166666092,
      "v": 102
    },
    {
      "midi": 70,
      "hit": false,
      "t": 139210.31750000018,
      "d": 175.4383333333244,
      "v": 98
    },
    {
      "midi": 77,
      "hit": false,
      "t": 139210.31750000018,
      "d": 206.14004166665836,
      "v": 102
    },
    {
      "midi": 72,
      "hit": false,
      "t": 139341.89625000017,
      "d": 100.87704166668118,
      "v": 107
    },
    {
      "midi": 70,
      "hit": false,
      "t": 139473.47500000018,
      "d": 592.1043749999953,
      "v": 102
    },
    {
      "midi": 72,
      "hit": false,
      "t": 139736.63250000018,
      "d": 179.82429166667862,
      "v": 107
    },
    {
      "midi": 74,
      "hit": false,
      "t": 139999.79000000018,
      "d": 486.84137499998906,
      "v": 107
    },
    {
      "midi": 70,
      "hit": false,
      "t": 140262.94750000018,
      "d": 785.0865416666784,
      "v": 102
    },
    {
      "midi": 77,
      "hit": false,
      "t": 140526.10500000019,
      "d": 521.9290416666772,
      "v": 102
    },
    {
      "midi": 65,
      "hit": false,
      "t": 141052.41999999995,
      "d": 381.5783750000119,
      "v": 89
    },
    {
      "midi": 69,
      "hit": false,
      "t": 141052.41999999995,
      "d": 513.1571249999979,
      "v": 89
    },
    {
      "midi": 60,
      "hit": false,
      "t": 141052.41999999995,
      "d": 692.9814166666765,
      "v": 89
    },
    {
      "midi": 53,
      "hit": false,
      "t": 141052.41999999995,
      "d": 1425.4364583333372,
      "v": 93
    },
    {
      "midi": 64,
      "hit": false,
      "t": 141052.4200000002,
      "d": 337.7187916666735,
      "v": 102
    },
    {
      "midi": 67,
      "hit": false,
      "t": 141052.4200000002,
      "d": 372.80645833333256,
      "v": 107
    },
    {
      "midi": 65,
      "hit": false,
      "t": 141578.73499999996,
      "d": 118.42087500001071,
      "v": 68
    },
    {
      "midi": 67,
      "hit": false,
      "t": 141841.89249999996,
      "d": 105.26300000000629,
      "v": 98
    },
    {
      "midi": 72,
      "hit": false,
      "t": 141841.89249999996,
      "d": 127.19279166666092,
      "v": 102
    },
    {
      "midi": 65,
      "hit": false,
      "t": 141841.8925000002,
      "d": 833.3320833333419,
      "v": 107
    },
    {
      "midi": 69,
      "hit": false,
      "t": 141841.8925000002,
      "d": 833.3320833333419,
      "v": 113
    },
    {
      "midi": 72,
      "hit": false,
      "t": 142368.20749999996,
      "d": 184.21025000000373,
      "v": 102
    },
    {
      "midi": 69,
      "hit": false,
      "t": 142368.20749999996,
      "d": 197.36812500000815,
      "v": 98
    },
    {
      "midi": 65,
      "hit": false,
      "t": 142631.36499999996,
      "d": 100.87704166668118,
      "v": 89
    },
    {
      "midi": 62,
      "hit": false,
      "t": 143157.67999999996,
      "d": 364.03454166665324,
      "v": 56
    },
    {
      "midi": 69,
      "hit": false,
      "t": 143157.67999999996,
      "d": 372.80645833333256,
      "v": 60
    },
    {
      "midi": 65,
      "hit": false,
      "t": 143157.67999999996,
      "d": 399.1222083333414,
      "v": 80
    },
    {
      "midi": 57,
      "hit": false,
      "t": 143157.67999999996,
      "d": 614.0341666666791,
      "v": 76
    },
    {
      "midi": 50,
      "hit": false,
      "t": 143157.67999999996,
      "d": 1407.8926249999786,
      "v": 89
    },
    {
      "midi": 64,
      "hit": false,
      "t": 143157.68000000017,
      "d": 434.20987500000047,
      "v": 98
    },
    {
      "midi": 67,
      "hit": false,
      "t": 143157.68000000017,
      "d": 473.68350000001374,
      "v": 107
    },
    {
      "midi": 69,
      "hit": false,
      "t": 143683.99499999997,
      "d": 105.26300000000629,
      "v": 89
    },
    {
      "midi": 65,
      "hit": false,
      "t": 143683.99499999997,
      "d": 114.0349166666856,
      "v": 93
    },
    {
      "midi": 60,
      "hit": false,
      "t": 143683.99499999997,
      "d": 118.42087500001071,
      "v": 89
    },
    {
      "midi": 65,
      "hit": false,
      "t": 143947.15249999997,
      "d": 403.5081666666374,
      "v": 102
    },
    {
      "midi": 69,
      "hit": false,
      "t": 143947.15249999997,
      "d": 416.66604166664183,
      "v": 102
    },
    {
      "midi": 60,
      "hit": false,
      "t": 143947.15249999997,
      "d": 442.9817916666507,
      "v": 93
    },
    {
      "midi": 65,
      "hit": false,
      "t": 143947.1525000002,
      "d": 776.3146249999991,
      "v": 102
    },
    {
      "midi": 69,
      "hit": false,
      "t": 143947.1525000002,
      "d": 789.4725000000035,
      "v": 107
    },
    {
      "midi": 60,
      "hit": false,
      "t": 144473.46749999994,
      "d": 149.12258333334466,
      "v": 89
    },
    {
      "midi": 69,
      "hit": false,
      "t": 144473.46749999994,
      "d": 276.3153750000056,
      "v": 102
    },
    {
      "midi": 64,
      "hit": false,
      "t": 144473.46749999994,
      "d": 289.47325000001,
      "v": 98
    },
    {
      "midi": 60,
      "hit": false,
      "t": 144736.62499999994,
      "d": 127.19279166669003,
      "v": 76
    },
    {
      "midi": 53,
      "hit": false,
      "t": 145262.93999999997,
      "d": 399.1222083333414,
      "v": 76
    },
    {
      "midi": 58,
      "hit": false,
      "t": 145262.93999999997,
      "d": 714.9112083333312,
      "v": 85
    },
    {
      "midi": 62,
      "hit": false,
      "t": 145262.93999999997,
      "d": 723.6831250000105,
      "v": 89
    },
    {
      "midi": 46,
      "hit": false,
      "t": 145262.93999999997,
      "d": 929.823166666698,
      "v": 93
    },
    {
      "midi": 77,
      "hit": false,
      "t": 145526.0975000002,
      "d": 83.33320833335165,
      "v": 113
    },
    {
      "midi": 53,
      "hit": false,
      "t": 145789.25499999998,
      "d": 127.19279166666092,
      "v": 51
    },
    {
      "midi": 53,
      "hit": false,
      "t": 146052.4125,
      "d": 179.82429166667862,
      "v": 72
    },
    {
      "midi": 58,
      "hit": false,
      "t": 146052.4125,
      "d": 482.45541666666395,
      "v": 76
    },
    {
      "midi": 62,
      "hit": false,
      "t": 146052.4125,
      "d": 605.2622499999998,
      "v": 93
    },
    {
      "midi": 76,
      "hit": false,
      "t": 146052.41250000024,
      "d": 74.56129166667233,
      "v": 102
    },
    {
      "midi": 46,
      "hit": false,
      "t": 146315.57,
      "d": 96.49108333332697,
      "v": 56
    },
    {
      "midi": 53,
      "hit": false,
      "t": 146578.7275,
      "d": 140.35066666666535,
      "v": 68
    },
    {
      "midi": 72,
      "hit": false,
      "t": 146578.72750000024,
      "d": 438.5958333333256,
      "v": 113
    },
    {
      "midi": 53,
      "hit": false,
      "t": 146841.885,
      "d": 92.10512500000186,
      "v": 89
    },
    {
      "midi": 62,
      "hit": false,
      "t": 146841.885,
      "d": 179.82429166667862,
      "v": 107
    },
    {
      "midi": 58,
      "hit": false,
      "t": 146841.885,
      "d": 289.47325000001,
      "v": 89
    },
    {
      "midi": 62,
      "hit": false,
      "t": 147105.0425,
      "d": 52.631500000017695,
      "v": 41
    },
    {
      "midi": 53,
      "hit": false,
      "t": 147105.0425,
      "d": 92.10512500003097,
      "v": 85
    },
    {
      "midi": 48,
      "hit": false,
      "t": 147368.20000000004,
      "d": 1543.857333333377,
      "v": 72
    },
    {
      "midi": 60,
      "hit": false,
      "t": 147631.35750000004,
      "d": 92.10512500000186,
      "v": 98
    },
    {
      "midi": 64,
      "hit": false,
      "t": 147631.35750000004,
      "d": 105.26300000000629,
      "v": 107
    },
    {
      "midi": 67,
      "hit": false,
      "t": 147631.35750000004,
      "d": 118.42087500001071,
      "v": 102
    },
    {
      "midi": 72,
      "hit": false,
      "t": 147631.35750000022,
      "d": 649.1218333333381,
      "v": 113
    },
    {
      "midi": 62,
      "hit": false,
      "t": 147894.51500000004,
      "d": 333.3328333333484,
      "v": 102
    },
    {
      "midi": 67,
      "hit": false,
      "t": 147894.51500000004,
      "d": 342.1047500000277,
      "v": 93
    },
    {
      "midi": 55,
      "hit": false,
      "t": 148157.67250000004,
      "d": 118.42087500003981,
      "v": 98
    },
    {
      "midi": 64,
      "hit": false,
      "t": 148420.8300000001,
      "d": 157.89449999999488,
      "v": 102
    },
    {
      "midi": 67,
      "hit": false,
      "t": 148420.8300000001,
      "d": 192.98216666665394,
      "v": 98
    },
    {
      "midi": 70,
      "hit": false,
      "t": 148420.83000000022,
      "d": 92.10512500000186,
      "v": 102
    },
    {
      "midi": 65,
      "hit": false,
      "t": 148683.9875000001,
      "d": 245.61366666664253,
      "v": 98
    },
    {
      "midi": 60,
      "hit": false,
      "t": 148683.9875000001,
      "d": 311.40304166663554,
      "v": 93
    },
    {
      "midi": 67,
      "hit": false,
      "t": 148683.9875000001,
      "d": 635.9639583333046,
      "v": 76
    },
    {
      "midi": 69,
      "hit": false,
      "t": 148683.98750000022,
      "d": 289.47325000001,
      "v": 102
    },
    {
      "midi": 64,
      "hit": false,
      "t": 148947.14500000008,
      "d": 280.7013333333307,
      "v": 76
    },
    {
      "midi": 67,
      "hit": false,
      "t": 148947.14500000022,
      "d": 223.683875000017,
      "v": 113
    },
    {
      "midi": 60,
      "hit": false,
      "t": 149210.30250000008,
      "d": 78.94724999999744,
      "v": 98
    },
    {
      "midi": 65,
      "hit": false,
      "t": 149210.30250000025,
      "d": 105.26300000000629,
      "v": 85
    },
    {
      "midi": 53,
      "hit": false,
      "t": 149473.46000000008,
      "d": 464.9115833333344,
      "v": 89
    },
    {
      "midi": 76,
      "hit": false,
      "t": 149473.46000000025,
      "d": 513.1571249999979,
      "v": 76
    },
    {
      "midi": 79,
      "hit": false,
      "t": 149473.46000000025,
      "d": 565.7886249999865,
      "v": 93
    },
    {
      "midi": 60,
      "hit": false,
      "t": 149736.61750000008,
      "d": 92.10512500000186,
      "v": 98
    },
    {
      "midi": 72,
      "hit": false,
      "t": 149999.77500000008,
      "d": 105.26300000000629,
      "v": 93
    },
    {
      "midi": 65,
      "hit": false,
      "t": 149999.77500000008,
      "d": 118.42087500001071,
      "v": 93
    },
    {
      "midi": 69,
      "hit": false,
      "t": 149999.77500000008,
      "d": 118.42087500001071,
      "v": 98
    },
    {
      "midi": 67,
      "hit": false,
      "t": 150262.93250000008,
      "d": 350.8766666666488,
      "v": 102
    },
    {
      "midi": 72,
      "hit": false,
      "t": 150262.93250000008,
      "d": 416.66604166664183,
      "v": 102
    },
    {
      "midi": 41,
      "hit": false,
      "t": 150262.93250000008,
      "d": 837.7180416666379,
      "v": 80
    },
    {
      "midi": 77,
      "hit": false,
      "t": 150262.93250000023,
      "d": 833.3320833333419,
      "v": 89
    },
    {
      "midi": 81,
      "hit": false,
      "t": 150262.93250000023,
      "d": 833.3320833333419,
      "v": 89
    },
    {
      "midi": 69,
      "hit": false,
      "t": 150789.24750000006,
      "d": 504.3852083333186,
      "v": 93
    },
    {
      "midi": 72,
      "hit": false,
      "t": 150789.24750000006,
      "d": 565.7886249999865,
      "v": 102
    },
    {
      "midi": 48,
      "hit": false,
      "t": 151052.40500000006,
      "d": 100.87704166665208,
      "v": 98
    },
    {
      "midi": 65,
      "hit": false,
      "t": 151315.56250000003,
      "d": 105.26300000000629,
      "v": 85
    },
    {
      "midi": 50,
      "hit": false,
      "t": 151578.72000000003,
      "d": 1719.2956666666432,
      "v": 93
    },
    {
      "midi": 76,
      "hit": false,
      "t": 151578.72000000023,
      "d": 614.03416666665,
      "v": 89
    },
    {
      "midi": 79,
      "hit": false,
      "t": 151578.72000000023,
      "d": 627.1920416666544,
      "v": 93
    },
    {
      "midi": 57,
      "hit": false,
      "t": 151841.87750000003,
      "d": 171.0523749999993,
      "v": 62
    },
    {
      "midi": 69,
      "hit": false,
      "t": 152105.03500000003,
      "d": 87.71916666667676,
      "v": 62
    },
    {
      "midi": 60,
      "hit": false,
      "t": 152105.03500000003,
      "d": 105.26300000000629,
      "v": 72
    },
    {
      "midi": 65,
      "hit": false,
      "t": 152105.03500000003,
      "d": 118.42087500001071,
      "v": 89
    },
    {
      "midi": 69,
      "hit": false,
      "t": 152368.19250000003,
      "d": 372.80645833333256,
      "v": 102
    },
    {
      "midi": 60,
      "hit": false,
      "t": 152368.19250000003,
      "d": 377.19241666665766,
      "v": 93
    },
    {
      "midi": 65,
      "hit": false,
      "t": 152368.19250000003,
      "d": 381.57837499998277,
      "v": 113
    },
    {
      "midi": 81,
      "hit": false,
      "t": 152368.19250000024,
      "d": 846.4899583333463,
      "v": 93
    },
    {
      "midi": 77,
      "hit": false,
      "t": 152368.19250000024,
      "d": 855.2618750000256,
      "v": 85
    },
    {
      "midi": 60,
      "hit": false,
      "t": 152894.5075,
      "d": 315.78899999998976,
      "v": 98
    },
    {
      "midi": 65,
      "hit": false,
      "t": 152894.5075,
      "d": 447.3677500000049,
      "v": 107
    },
    {
      "midi": 69,
      "hit": false,
      "t": 152894.5075,
      "d": 548.244791666657,
      "v": 107
    },
    {
      "midi": 57,
      "hit": false,
      "t": 153157.665,
      "d": 78.94724999999744,
      "v": 72
    },
    {
      "midi": 60,
      "hit": false,
      "t": 153420.8225,
      "d": 83.33320833332255,
      "v": 72
    },
    {
      "midi": 46,
      "hit": false,
      "t": 153683.98,
      "d": 938.59508333329,
      "v": 93
    },
    {
      "midi": 53,
      "hit": false,
      "t": 153947.1375,
      "d": 65.78937499999302,
      "v": 47
    },
    {
      "midi": 53,
      "hit": false,
      "t": 154210.29499999998,
      "d": 114.0349166666565,
      "v": 60
    },
    {
      "midi": 58,
      "hit": false,
      "t": 154210.29499999998,
      "d": 114.0349166666565,
      "v": 72
    },
    {
      "midi": 62,
      "hit": false,
      "t": 154210.29499999998,
      "d": 114.0349166666565,
      "v": 89
    },
    {
      "midi": 53,
      "hit": false,
      "t": 154473.45249999998,
      "d": 333.3328333333193,
      "v": 93
    },
    {
      "midi": 62,
      "hit": false,
      "t": 154473.45249999998,
      "d": 614.0341666666791,
      "v": 113
    },
    {
      "midi": 58,
      "hit": false,
      "t": 154473.45249999998,
      "d": 640.3499166666879,
      "v": 98
    },
    {
      "midi": 46,
      "hit": false,
      "t": 154736.60999999996,
      "d": 583.3324583334033,
      "v": 72
    },
    {
      "midi": 53,
      "hit": false,
      "t": 154999.7675,
      "d": 153.50854166669887,
      "v": 68
    },
    {
      "midi": 53,
      "hit": false,
      "t": 155262.92500000002,
      "d": 114.0349166666856,
      "v": 72
    },
    {
      "midi": 58,
      "hit": false,
      "t": 155262.92500000002,
      "d": 192.98216666668304,
      "v": 93
    },
    {
      "midi": 62,
      "hit": false,
      "t": 155262.92500000002,
      "d": 206.14004166668747,
      "v": 102
    },
    {
      "midi": 53,
      "hit": false,
      "t": 155526.08250000005,
      "d": 175.4383333333244,
      "v": 76
    },
    {
      "midi": 62,
      "hit": false,
      "t": 155526.08250000005,
      "d": 175.4383333333244,
      "v": 62
    },
    {
      "midi": 48,
      "hit": false,
      "t": 155789.24000000005,
      "d": 1916.6637916666514,
      "v": 89
    },
    {
      "midi": 60,
      "hit": false,
      "t": 156052.39750000005,
      "d": 78.94724999999744,
      "v": 85
    },
    {
      "midi": 67,
      "hit": false,
      "t": 156315.55500000005,
      "d": 61.40341666666791,
      "v": 98
    },
    {
      "midi": 62,
      "hit": false,
      "t": 156315.55500000005,
      "d": 74.56129166667233,
      "v": 107
    },
    {
      "midi": 62,
      "hit": false,
      "t": 156578.71250000005,
      "d": 368.42050000000745,
      "v": 107
    },
    {
      "midi": 67,
      "hit": false,
      "t": 156578.71250000005,
      "d": 372.80645833333256,
      "v": 102
    },
    {
      "midi": 55,
      "hit": false,
      "t": 156841.87000000005,
      "d": 162.28045833331998,
      "v": 80
    },
    {
      "midi": 64,
      "hit": false,
      "t": 157105.02750000005,
      "d": 421.05199999999604,
      "v": 85
    },
    {
      "midi": 67,
      "hit": false,
      "t": 157105.02750000005,
      "d": 473.68349999998463,
      "v": 89
    },
    {
      "midi": 60,
      "hit": false,
      "t": 157105.02750000005,
      "d": 486.84137499998906,
      "v": 80
    },
    {
      "midi": 55,
      "hit": false,
      "t": 157368.18500000006,
      "d": 258.77154166664695,
      "v": 93
    },
    {
      "midi": 62,
      "hit": false,
      "t": 157631.34250000003,
      "d": 96.49108333332697,
      "v": 76
    },
    {
      "midi": 53,
      "hit": false,
      "t": 157894.50000000003,
      "d": 675.4375833333179,
      "v": 64
    },
    {
      "midi": 62,
      "hit": false,
      "t": 157894.50000000003,
      "d": 991.2265833333076,
      "v": 89
    },
    {
      "midi": 58,
      "hit": false,
      "t": 157894.50000000003,
      "d": 1030.700208333321,
      "v": 85
    },
    {
      "midi": 46,
      "hit": false,
      "t": 157894.50000000003,
      "d": 1070.173833333305,
      "v": 89
    },
    {
      "midi": 53,
      "hit": false,
      "t": 158947.13,
      "d": 114.0349166666565,
      "v": 55
    },
    {
      "midi": 46,
      "hit": false,
      "t": 159210.2875,
      "d": 118.42087500001071,
      "v": 98
    },
    {
      "midi": 58,
      "hit": false,
      "t": 159473.445,
      "d": 83.33320833332255,
      "v": 85
    },
    {
      "midi": 62,
      "hit": false,
      "t": 159473.445,
      "d": 100.87704166665208,
      "v": 107
    },
    {
      "midi": 48,
      "hit": false,
      "t": 159999.75999999998,
      "d": 605.2622499999998,
      "v": 93
    },
    {
      "midi": 55,
      "hit": false,
      "t": 160262.91749999998,
      "d": 263.15750000000116,
      "v": 89
    },
    {
      "midi": 60,
      "hit": false,
      "t": 160526.07499999998,
      "d": 118.42087500001071,
      "v": 62
    },
    {
      "midi": 64,
      "hit": false,
      "t": 160789.23249999998,
      "d": 96.49108333332697,
      "v": 89
    },
    {
      "midi": 60,
      "hit": false,
      "t": 160789.23249999998,
      "d": 109.6489583333314,
      "v": 89
    },
    {
      "midi": 48,
      "hit": false,
      "t": 161052.38999999998,
      "d": 385.964333333337,
      "v": 85
    },
    {
      "midi": 60,
      "hit": false,
      "t": 161315.5475,
      "d": 179.82429166667862,
      "v": 102
    },
    {
      "midi": 60,
      "hit": false,
      "t": 161578.705,
      "d": 127.19279166666092,
      "v": 89
    },
    {
      "midi": 65,
      "hit": false,
      "t": 161578.705,
      "d": 131.57874999998603,
      "v": 93
    },
    {
      "midi": 48,
      "hit": false,
      "t": 161578.705,
      "d": 429.82391666667536,
      "v": 93
    },
    {
      "midi": 64,
      "hit": false,
      "t": 161841.8625,
      "d": 140.35066666666535,
      "v": 93
    },
    {
      "midi": 60,
      "hit": false,
      "t": 161841.8625,
      "d": 166.6664166666742,
      "v": 85
    },
    {
      "midi": 55,
      "hit": false,
      "t": 161841.8625,
      "d": 171.0523749999993,
      "v": 102
    },
    {
      "midi": 65,
      "hit": false,
      "t": 162105.02,
      "d": 188.59620833332883,
      "v": 98
    },
    {
      "midi": 57,
      "hit": false,
      "t": 162105.02,
      "d": 192.98216666665394,
      "v": 93
    },
    {
      "midi": 60,
      "hit": false,
      "t": 162105.02,
      "d": 201.75408333333326,
      "v": 102
    },
    {
      "midi": 41,
      "hit": false,
      "t": 162105.02,
      "d": 390.3502916666621,
      "v": 113
    },
    {
      "midi": 57,
      "hit": false,
      "t": 162368.1775,
      "d": 149.12258333331556,
      "v": 98
    },
    {
      "midi": 65,
      "hit": false,
      "t": 162368.1775,
      "d": 157.89449999999488,
      "v": 107
    },
    {
      "midi": 60,
      "hit": false,
      "t": 162368.1775,
      "d": 162.28045833331998,
      "v": 98
    },
    {
      "midi": 67,
      "hit": false,
      "t": 163157.64999999997,
      "d": 166.6664166666742,
      "v": 107
    },
    {
      "midi": 60,
      "hit": false,
      "t": 163157.64999999997,
      "d": 171.0523749999993,
      "v": 98
    },
    {
      "midi": 64,
      "hit": false,
      "t": 163157.64999999997,
      "d": 171.0523749999993,
      "v": 102
    },
    {
      "midi": 55,
      "hit": false,
      "t": 163157.64999999997,
      "d": 267.54345833332627,
      "v": 98
    },
    {
      "midi": 48,
      "hit": false,
      "t": 163157.64999999997,
      "d": 328.9468749999942,
      "v": 93
    },
    {
      "midi": 60,
      "hit": false,
      "t": 163420.80749999997,
      "d": 83.33320833332255,
      "v": 107
    },
    {
      "midi": 64,
      "hit": false,
      "t": 163420.80749999997,
      "d": 83.33320833332255,
      "v": 107
    },
    {
      "midi": 67,
      "hit": false,
      "t": 163420.80749999997,
      "d": 100.87704166665208,
      "v": 107
    },
    {
      "midi": 58,
      "hit": false,
      "t": 163947.12249999994,
      "d": 1723.6816250000265,
      "v": 93
    },
    {
      "midi": 62,
      "hit": false,
      "t": 163947.12249999994,
      "d": 1723.6816250000265,
      "v": 107
    },
    {
      "midi": 46,
      "hit": false,
      "t": 163947.12249999994,
      "d": 1736.839500000031,
      "v": 113
    },
    {
      "midi": 65,
      "hit": false,
      "t": 163947.12249999994,
      "d": 1741.225458333356,
      "v": 102
    },
    {
      "midi": 65,
      "hit": false,
      "t": 164473.43750000026,
      "d": 245.61366666667163,
      "v": 119
    },
    {
      "midi": 67,
      "hit": false,
      "t": 164736.59500000026,
      "d": 258.77154166667606,
      "v": 113
    },
    {
      "midi": 69,
      "hit": false,
      "t": 164999.75250000026,
      "d": 280.7013333333307,
      "v": 102
    },
    {
      "midi": 70,
      "hit": false,
      "t": 165262.91000000027,
      "d": 254.38558333332185,
      "v": 113
    },
    {
      "midi": 72,
      "hit": false,
      "t": 165526.06750000027,
      "d": 364.03454166668234,
      "v": 113
    },
    {
      "midi": 74,
      "hit": false,
      "t": 165789.22500000027,
      "d": 153.50854166666977,
      "v": 113
    },
    {
      "midi": 76,
      "hit": false,
      "t": 166052.38250000027,
      "d": 131.57874999998603,
      "v": 98
    },
    {
      "midi": 65,
      "hit": false,
      "t": 166315.53999999998,
      "d": 188.59620833332883,
      "v": 98
    },
    {
      "midi": 57,
      "hit": false,
      "t": 166315.53999999998,
      "d": 192.98216666665394,
      "v": 93
    },
    {
      "midi": 60,
      "hit": false,
      "t": 166315.53999999998,
      "d": 201.75408333333326,
      "v": 102
    },
    {
      "midi": 41,
      "hit": false,
      "t": 166315.53999999998,
      "d": 390.3502916666621,
      "v": 113
    },
    {
      "midi": 77,
      "hit": false,
      "t": 166315.54000000024,
      "d": 2114.0319166666886,
      "v": 113
    },
    {
      "midi": 57,
      "hit": false,
      "t": 166578.69749999998,
      "d": 149.12258333331556,
      "v": 98
    },
    {
      "midi": 65,
      "hit": false,
      "t": 166578.69749999998,
      "d": 157.89449999999488,
      "v": 107
    },
    {
      "midi": 60,
      "hit": false,
      "t": 166578.69749999998,
      "d": 162.28045833331998,
      "v": 98
    },
    {
      "midi": 67,
      "hit": false,
      "t": 167368.16999999995,
      "d": 166.6664166666742,
      "v": 107
    },
    {
      "midi": 60,
      "hit": false,
      "t": 167368.16999999995,
      "d": 171.0523749999993,
      "v": 98
    },
    {
      "midi": 64,
      "hit": false,
      "t": 167368.16999999995,
      "d": 171.0523749999993,
      "v": 102
    },
    {
      "midi": 55,
      "hit": false,
      "t": 167368.16999999995,
      "d": 267.54345833332627,
      "v": 98
    },
    {
      "midi": 48,
      "hit": false,
      "t": 167368.16999999995,
      "d": 328.9468749999942,
      "v": 93
    },
    {
      "midi": 60,
      "hit": false,
      "t": 167631.32749999996,
      "d": 83.33320833332255,
      "v": 107
    },
    {
      "midi": 64,
      "hit": false,
      "t": 167631.32749999996,
      "d": 83.33320833332255,
      "v": 107
    },
    {
      "midi": 67,
      "hit": false,
      "t": 167631.32749999996,
      "d": 100.87704166665208,
      "v": 107
    },
    {
      "midi": 58,
      "hit": false,
      "t": 168157.64249999993,
      "d": 1723.6816250000265,
      "v": 93
    },
    {
      "midi": 62,
      "hit": false,
      "t": 168157.64249999993,
      "d": 1723.6816250000265,
      "v": 107
    },
    {
      "midi": 46,
      "hit": false,
      "t": 168157.64249999993,
      "d": 1736.839500000031,
      "v": 113
    },
    {
      "midi": 65,
      "hit": false,
      "t": 168157.64249999993,
      "d": 1741.225458333356,
      "v": 102
    },
    {
      "midi": 79,
      "hit": false,
      "t": 168683.95750000025,
      "d": 407.8941250000498,
      "v": 127
    },
    {
      "midi": 79,
      "hit": false,
      "t": 169210.2725000003,
      "d": 249.99962499999674,
      "v": 113
    },
    {
      "midi": 77,
      "hit": false,
      "t": 169473.4300000003,
      "d": 390.3502916666621,
      "v": 102
    },
    {
      "midi": 74,
      "hit": false,
      "t": 169999.74500000032,
      "d": 206.14004166665836,
      "v": 113
    },
    {
      "midi": 72,
      "hit": false,
      "t": 170262.90250000032,
      "d": 184.21025000000373,
      "v": 102
    },
    {
      "midi": 65,
      "hit": false,
      "t": 170526.05999999997,
      "d": 188.59620833332883,
      "v": 98
    },
    {
      "midi": 57,
      "hit": false,
      "t": 170526.05999999997,
      "d": 192.98216666665394,
      "v": 93
    },
    {
      "midi": 60,
      "hit": false,
      "t": 170526.05999999997,
      "d": 201.75408333333326,
      "v": 102
    },
    {
      "midi": 41,
      "hit": false,
      "t": 170526.05999999997,
      "d": 390.3502916666621,
      "v": 113
    },
    {
      "midi": 77,
      "hit": false,
      "t": 170526.06000000032,
      "d": 2592.101375000173,
      "v": 119
    },
    {
      "midi": 57,
      "hit": false,
      "t": 170789.21749999997,
      "d": 149.12258333331556,
      "v": 98
    },
    {
      "midi": 65,
      "hit": false,
      "t": 170789.21749999997,
      "d": 157.89449999999488,
      "v": 107
    },
    {
      "midi": 60,
      "hit": false,
      "t": 170789.21749999997,
      "d": 162.28045833331998,
      "v": 98
    },
    {
      "midi": 67,
      "hit": false,
      "t": 171578.68999999994,
      "d": 166.6664166666742,
      "v": 107
    },
    {
      "midi": 60,
      "hit": false,
      "t": 171578.68999999994,
      "d": 171.0523749999993,
      "v": 98
    },
    {
      "midi": 64,
      "hit": false,
      "t": 171578.68999999994,
      "d": 171.0523749999993,
      "v": 102
    },
    {
      "midi": 55,
      "hit": false,
      "t": 171578.68999999994,
      "d": 267.54345833332627,
      "v": 98
    },
    {
      "midi": 48,
      "hit": false,
      "t": 171578.68999999994,
      "d": 328.9468749999942,
      "v": 93
    },
    {
      "midi": 60,
      "hit": false,
      "t": 171841.84749999995,
      "d": 83.33320833332255,
      "v": 107
    },
    {
      "midi": 64,
      "hit": false,
      "t": 171841.84749999995,
      "d": 83.33320833332255,
      "v": 107
    },
    {
      "midi": 67,
      "hit": false,
      "t": 171841.84749999995,
      "d": 100.87704166665208,
      "v": 107
    },
    {
      "midi": 58,
      "hit": false,
      "t": 172368.16249999992,
      "d": 1723.6816250000265,
      "v": 93
    },
    {
      "midi": 62,
      "hit": false,
      "t": 172368.16249999992,
      "d": 1723.6816250000265,
      "v": 107
    },
    {
      "midi": 46,
      "hit": false,
      "t": 172368.16249999992,
      "d": 1736.839500000031,
      "v": 113
    },
    {
      "midi": 65,
      "hit": false,
      "t": 172368.16249999992,
      "d": 1741.225458333356,
      "v": 102
    },
    {
      "midi": 65,
      "hit": false,
      "t": 174736.57999999996,
      "d": 188.59620833332883,
      "v": 98
    },
    {
      "midi": 57,
      "hit": false,
      "t": 174736.57999999996,
      "d": 192.98216666665394,
      "v": 93
    },
    {
      "midi": 60,
      "hit": false,
      "t": 174736.57999999996,
      "d": 201.75408333333326,
      "v": 102
    },
    {
      "midi": 41,
      "hit": false,
      "t": 174736.57999999996,
      "d": 390.3502916666621,
      "v": 113
    },
    {
      "midi": 57,
      "hit": false,
      "t": 174999.73749999996,
      "d": 149.12258333331556,
      "v": 98
    },
    {
      "midi": 65,
      "hit": false,
      "t": 174999.73749999996,
      "d": 157.89449999999488,
      "v": 107
    },
    {
      "midi": 60,
      "hit": false,
      "t": 174999.73749999996,
      "d": 162.28045833331998,
      "v": 98
    },
    {
      "midi": 72,
      "hit": false,
      "t": 175262.89500000048,
      "d": 504.3852083333477,
      "v": 119
    },
    {
      "midi": 67,
      "hit": false,
      "t": 175789.20999999993,
      "d": 166.6664166666742,
      "v": 107
    },
    {
      "midi": 60,
      "hit": false,
      "t": 175789.20999999993,
      "d": 171.0523749999993,
      "v": 98
    },
    {
      "midi": 64,
      "hit": false,
      "t": 175789.20999999993,
      "d": 171.0523749999993,
      "v": 102
    },
    {
      "midi": 55,
      "hit": false,
      "t": 175789.20999999993,
      "d": 267.54345833332627,
      "v": 98
    },
    {
      "midi": 48,
      "hit": false,
      "t": 175789.20999999993,
      "d": 328.9468749999942,
      "v": 93
    },
    {
      "midi": 74,
      "hit": false,
      "t": 175789.2100000005,
      "d": 535.0869166666816,
      "v": 107
    },
    {
      "midi": 60,
      "hit": false,
      "t": 176052.36749999993,
      "d": 83.33320833332255,
      "v": 107
    },
    {
      "midi": 64,
      "hit": false,
      "t": 176052.36749999993,
      "d": 83.33320833332255,
      "v": 107
    },
    {
      "midi": 67,
      "hit": false,
      "t": 176052.36749999993,
      "d": 100.87704166665208,
      "v": 107
    },
    {
      "midi": 72,
      "hit": false,
      "t": 176315.5250000005,
      "d": 171.0523749999993,
      "v": 98
    },
    {
      "midi": 58,
      "hit": false,
      "t": 176578.6824999999,
      "d": 1723.6816250000265,
      "v": 93
    },
    {
      "midi": 62,
      "hit": false,
      "t": 176578.6824999999,
      "d": 1723.6816250000265,
      "v": 107
    },
    {
      "midi": 46,
      "hit": false,
      "t": 176578.6824999999,
      "d": 1736.839500000031,
      "v": 113
    },
    {
      "midi": 65,
      "hit": false,
      "t": 176578.6824999999,
      "d": 1741.225458333356,
      "v": 102
    },
    {
      "midi": 72,
      "hit": false,
      "t": 176578.6825000005,
      "d": 732.4550416667189,
      "v": 113
    },
    {
      "midi": 70,
      "hit": false,
      "t": 177368.15500000055,
      "d": 236.84174999999232,
      "v": 102
    },
    {
      "midi": 69,
      "hit": false,
      "t": 177631.31250000055,
      "d": 236.84174999999232,
      "v": 98
    },
    {
      "midi": 70,
      "hit": false,
      "t": 177894.47000000055,
      "d": 249.99962499999674,
      "v": 98
    },
    {
      "midi": 67,
      "hit": false,
      "t": 178157.62750000056,
      "d": 780.7005833333242,
      "v": 127
    },
    {
      "midi": 65,
      "hit": false,
      "t": 178947.09999999995,
      "d": 188.59620833332883,
      "v": 98
    },
    {
      "midi": 57,
      "hit": false,
      "t": 178947.09999999995,
      "d": 192.98216666665394,
      "v": 93
    },
    {
      "midi": 60,
      "hit": false,
      "t": 178947.09999999995,
      "d": 201.75408333333326,
      "v": 102
    },
    {
      "midi": 41,
      "hit": false,
      "t": 178947.09999999995,
      "d": 390.3502916666621,
      "v": 113
    },
    {
      "midi": 57,
      "hit": false,
      "t": 179210.25749999995,
      "d": 149.12258333331556,
      "v": 98
    },
    {
      "midi": 65,
      "hit": false,
      "t": 179210.25749999995,
      "d": 157.89449999999488,
      "v": 107
    },
    {
      "midi": 60,
      "hit": false,
      "t": 179210.25749999995,
      "d": 162.28045833331998,
      "v": 98
    },
    {
      "midi": 77,
      "hit": false,
      "t": 179473.41500000053,
      "d": 324.5609166666691,
      "v": 113
    },
    {
      "midi": 67,
      "hit": false,
      "t": 179999.72999999992,
      "d": 166.6664166666742,
      "v": 107
    },
    {
      "midi": 60,
      "hit": false,
      "t": 179999.72999999992,
      "d": 171.0523749999993,
      "v": 98
    },
    {
      "midi": 64,
      "hit": false,
      "t": 179999.72999999992,
      "d": 171.0523749999993,
      "v": 102
    },
    {
      "midi": 55,
      "hit": false,
      "t": 179999.72999999992,
      "d": 267.54345833332627,
      "v": 98
    },
    {
      "midi": 48,
      "hit": false,
      "t": 179999.72999999992,
      "d": 328.9468749999942,
      "v": 93
    },
    {
      "midi": 76,
      "hit": false,
      "t": 179999.73000000053,
      "d": 425.43795833332115,
      "v": 107
    },
    {
      "midi": 60,
      "hit": false,
      "t": 180262.88749999992,
      "d": 83.33320833332255,
      "v": 107
    },
    {
      "midi": 64,
      "hit": false,
      "t": 180262.88749999992,
      "d": 83.33320833332255,
      "v": 107
    },
    {
      "midi": 67,
      "hit": false,
      "t": 180262.88749999992,
      "d": 100.87704166665208,
      "v": 107
    },
    {
      "midi": 72,
      "hit": false,
      "t": 180526.0450000005,
      "d": 214.91195833333768,
      "v": 107
    },
    {
      "midi": 58,
      "hit": false,
      "t": 180789.2024999999,
      "d": 1723.6816250000265,
      "v": 93
    },
    {
      "midi": 62,
      "hit": false,
      "t": 180789.2024999999,
      "d": 1723.6816250000265,
      "v": 107
    },
    {
      "midi": 46,
      "hit": false,
      "t": 180789.2024999999,
      "d": 1736.839500000031,
      "v": 113
    },
    {
      "midi": 65,
      "hit": false,
      "t": 180789.2024999999,
      "d": 1741.225458333356,
      "v": 102
    },
    {
      "midi": 74,
      "hit": false,
      "t": 180789.2025000005,
      "d": 609.648208333354,
      "v": 119
    },
    {
      "midi": 70,
      "hit": false,
      "t": 182104.99000000054,
      "d": 214.91195833333768,
      "v": 113
    },
    {
      "midi": 69,
      "hit": false,
      "t": 182368.14750000054,
      "d": 114.0349166666565,
      "v": 93
    },
    {
      "midi": 67,
      "hit": false,
      "t": 182631.30500000055,
      "d": 232.4557916666672,
      "v": 102
    },
    {
      "midi": 65,
      "hit": false,
      "t": 182894.46250000055,
      "d": 245.61366666667163,
      "v": 98
    },
    {
      "midi": 65,
      "hit": false,
      "t": 183157.61999999994,
      "d": 188.59620833332883,
      "v": 98
    },
    {
      "midi": 57,
      "hit": false,
      "t": 183157.61999999994,
      "d": 192.98216666665394,
      "v": 93
    },
    {
      "midi": 60,
      "hit": false,
      "t": 183157.61999999994,
      "d": 201.75408333333326,
      "v": 102
    },
    {
      "midi": 41,
      "hit": false,
      "t": 183157.61999999994,
      "d": 390.3502916666621,
      "v": 113
    },
    {
      "midi": 81,
      "hit": false,
      "t": 183157.62000000055,
      "d": 214.91195833333768,
      "v": 89
    },
    {
      "midi": 57,
      "hit": false,
      "t": 183420.77749999994,
      "d": 149.12258333331556,
      "v": 98
    },
    {
      "midi": 65,
      "hit": false,
      "t": 183420.77749999994,
      "d": 157.89449999999488,
      "v": 107
    },
    {
      "midi": 60,
      "hit": false,
      "t": 183420.77749999994,
      "d": 162.28045833331998,
      "v": 98
    },
    {
      "midi": 77,
      "hit": false,
      "t": 183420.77750000055,
      "d": 206.14004166665836,
      "v": 102
    },
    {
      "midi": 72,
      "hit": false,
      "t": 183683.93500000055,
      "d": 364.03454166665324,
      "v": 107
    },
    {
      "midi": 67,
      "hit": false,
      "t": 184210.2499999999,
      "d": 166.6664166666742,
      "v": 107
    },
    {
      "midi": 60,
      "hit": false,
      "t": 184210.2499999999,
      "d": 171.0523749999993,
      "v": 98
    },
    {
      "midi": 64,
      "hit": false,
      "t": 184210.2499999999,
      "d": 171.0523749999993,
      "v": 102
    },
    {
      "midi": 55,
      "hit": false,
      "t": 184210.2499999999,
      "d": 267.54345833332627,
      "v": 98
    },
    {
      "midi": 48,
      "hit": false,
      "t": 184210.2499999999,
      "d": 328.9468749999942,
      "v": 93
    },
    {
      "midi": 79,
      "hit": false,
      "t": 184210.25000000052,
      "d": 254.38558333332185,
      "v": 102
    },
    {
      "midi": 60,
      "hit": false,
      "t": 184473.4074999999,
      "d": 83.33320833332255,
      "v": 107
    },
    {
      "midi": 64,
      "hit": false,
      "t": 184473.4074999999,
      "d": 83.33320833332255,
      "v": 107
    },
    {
      "midi": 67,
      "hit": false,
      "t": 184473.4074999999,
      "d": 100.87704166665208,
      "v": 107
    },
    {
      "midi": 76,
      "hit": false,
      "t": 184473.40750000053,
      "d": 228.0698333333421,
      "v": 89
    },
    {
      "midi": 72,
      "hit": false,
      "t": 184736.56500000053,
      "d": 114.0349166666565,
      "v": 107
    },
    {
      "midi": 58,
      "hit": false,
      "t": 184999.7224999999,
      "d": 1723.6816250000265,
      "v": 93
    },
    {
      "midi": 62,
      "hit": false,
      "t": 184999.7224999999,
      "d": 1723.6816250000265,
      "v": 107
    },
    {
      "midi": 46,
      "hit": false,
      "t": 184999.7224999999,
      "d": 1736.839500000031,
      "v": 113
    },
    {
      "midi": 65,
      "hit": false,
      "t": 184999.7224999999,
      "d": 1741.225458333356,
      "v": 102
    },
    {
      "midi": 74,
      "hit": false,
      "t": 184999.72250000053,
      "d": 311.40304166669375,
      "v": 113
    },
    {
      "midi": 70,
      "hit": false,
      "t": 185526.03750000056,
      "d": 92.10512500000186,
      "v": 113
    },
    {
      "midi": 41,
      "hit": false,
      "t": 187368.13999999993,
      "d": 530.7009583333274,
      "v": 107
    },
    {
      "midi": 53,
      "hit": false,
      "t": 187372.52595833325,
      "d": 241.22770833334653,
      "v": 89
    },
    {
      "midi": 60,
      "hit": false,
      "t": 187372.52595833325,
      "d": 333.3328333333484,
      "v": 107
    },
    {
      "midi": 57,
      "hit": false,
      "t": 187372.52595833325,
      "d": 364.03454166668234,
      "v": 102
    },
    {
      "midi": 81,
      "hit": false,
      "t": 187398.84170833387,
      "d": 232.4557916666672,
      "v": 89
    },
    {
      "midi": 77,
      "hit": false,
      "t": 187398.84170833387,
      "d": 254.38558333332185,
      "v": 85
    },
    {
      "midi": 48,
      "hit": false,
      "t": 187727.78858333325,
      "d": 192.98216666665394,
      "v": 80
    },
    {
      "midi": 81,
      "hit": false,
      "t": 187806.73583333386,
      "d": 131.57874999998603,
      "v": 72
    },
    {
      "midi": 53,
      "hit": false,
      "t": 187964.63033333325,
      "d": 311.40304166669375,
      "v": 56
    },
    {
      "midi": 79,
      "hit": false,
      "t": 188157.6125000005,
      "d": 162.28045833331998,
      "v": 64
    },
    {
      "midi": 57,
      "hit": false,
      "t": 188175.15633333326,
      "d": 223.683875000017,
      "v": 56
    },
    {
      "midi": 60,
      "hit": false,
      "t": 188429.5419166666,
      "d": 127.19279166666092,
      "v": 55
    },
    {
      "midi": 77,
      "hit": false,
      "t": 188547.96279166717,
      "d": 131.57874999998603,
      "v": 72
    },
    {
      "midi": 53,
      "hit": false,
      "t": 188640.0679166666,
      "d": 1052.6299999999756,
      "v": 40
    },
    {
      "midi": 57,
      "hit": false,
      "t": 188828.66412499992,
      "d": 859.6478333333216,
      "v": 51
    },
    {
      "midi": 74,
      "hit": false,
      "t": 188969.01479166717,
      "d": 153.50854166666977,
      "v": 62
    },
    {
      "midi": 60,
      "hit": false,
      "t": 189052.3479999999,
      "d": 254.38558333332185,
      "v": 85
    },
    {
      "midi": 65,
      "hit": false,
      "t": 189319.89145833324,
      "d": 232.4557916666672,
      "v": 68
    },
    {
      "midi": 72,
      "hit": false,
      "t": 189381.29487500052,
      "d": 131.57874999998603,
      "v": 68
    },
    {
      "midi": 69,
      "hit": false,
      "t": 189591.82087499992,
      "d": 271.9294166666514,
      "v": 62
    },
    {
      "midi": 69,
      "hit": false,
      "t": 189859.36433333383,
      "d": 166.6664166666742,
      "v": 51
    },
    {
      "midi": 53,
      "hit": false,
      "t": 189898.83795833323,
      "d": 1697.3658750000468,
      "v": 62
    },
    {
      "midi": 72,
      "hit": false,
      "t": 190219.01291666657,
      "d": 289.47325000001,
      "v": 72
    },
    {
      "midi": 67,
      "hit": false,
      "t": 190363.74954166717,
      "d": 267.54345833332627,
      "v": 56
    },
    {
      "midi": 65,
      "hit": false,
      "t": 190539.18787499992,
      "d": 499.9992500000226,
      "v": 57
    },
    {
      "midi": 77,
      "hit": false,
      "t": 190938.31008333326,
      "d": 337.7187916666735,
      "v": 56
    },
    {
      "midi": 67,
      "hit": false,
      "t": 190977.78370833382,
      "d": 2087.716166666738,
      "v": 85
    },
    {
      "midi": 60,
      "hit": false,
      "t": 191359.36208333325,
      "d": 210.52600000001257,
      "v": 49
    }
  ]
}