{
  "jsonPath": "Electronic/Disco/Andrea True/more-more-more.json",
  "path": "Electronic\\Disco\\Andrea True\\More_ More_ More.mid",
  "name": "More_ More_ More",
  "difficulty": "Advanced",
  "bpm": 103.58007257510418,
  "notes": [
    {
      "midi": 66,
      "hit": false,
      "t": 349.9707916666667,
      "d": 282.39022500000004,
      "v": 108
    },
    {
      "midi": 69,
      "hit": false,
      "t": 356.00477083333334,
      "d": 281.1834291666667,
      "v": 108
    },
    {
      "midi": 62,
      "hit": false,
      "t": 363.2455458333333,
      "d": 264.2882875000001,
      "v": 108
    },
    {
      "midi": 38,
      "hit": false,
      "t": 401.8630125,
      "d": 368.07272916666665,
      "v": 108
    },
    {
      "midi": 66,
      "hit": false,
      "t": 801.3124333333334,
      "d": 223.25722916666666,
      "v": 108
    },
    {
      "midi": 62,
      "hit": false,
      "t": 809.7600041666667,
      "d": 197.9145166666667,
      "v": 108
    },
    {
      "midi": 69,
      "hit": false,
      "t": 819.4143708333334,
      "d": 205.1552916666667,
      "v": 108
    },
    {
      "midi": 38,
      "hit": false,
      "t": 960.6094833333334,
      "d": 352.3843833333333,
      "v": 108
    },
    {
      "midi": 66,
      "hit": false,
      "t": 1245.4133000000002,
      "d": 275.1494500000001,
      "v": 108
    },
    {
      "midi": 62,
      "hit": false,
      "t": 1252.6540750000001,
      "d": 243.7727583333335,
      "v": 108
    },
    {
      "midi": 69,
      "hit": false,
      "t": 1253.8608708333336,
      "d": 259.4611041666667,
      "v": 108
    },
    {
      "midi": 38,
      "hit": false,
      "t": 1525.3899333333334,
      "d": 359.6251583333333,
      "v": 108
    },
    {
      "midi": 66,
      "hit": false,
      "t": 1829.5024833333337,
      "d": 261.8746958333336,
      "v": 108
    },
    {
      "midi": 69,
      "hit": false,
      "t": 1839.1568500000003,
      "d": 234.11839166666687,
      "v": 108
    },
    {
      "midi": 62,
      "hit": false,
      "t": 1848.811216666667,
      "d": 224.46402500000022,
      "v": 108
    },
    {
      "midi": 38,
      "hit": false,
      "t": 2115.5130958333334,
      "d": 380.1406874999998,
      "v": 108
    },
    {
      "midi": 66,
      "hit": false,
      "t": 2265.1557791666673,
      "d": 218.43004583333368,
      "v": 108
    },
    {
      "midi": 62,
      "hit": false,
      "t": 2274.810145833334,
      "d": 177.3989875000002,
      "v": 108
    },
    {
      "midi": 69,
      "hit": false,
      "t": 2274.810145833334,
      "d": 195.50092500000028,
      "v": 108
    },
    {
      "midi": 69,
      "hit": false,
      "t": 2676.6731583333344,
      "d": 263.0814916666668,
      "v": 108
    },
    {
      "midi": 38,
      "hit": false,
      "t": 2683.9139333333333,
      "d": 386.1746666666668,
      "v": 108
    },
    {
      "midi": 62,
      "hit": false,
      "t": 2686.327525000001,
      "d": 258.2543083333335,
      "v": 108
    },
    {
      "midi": 65,
      "hit": false,
      "t": 2686.327525000001,
      "d": 259.4611041666667,
      "v": 108
    },
    {
      "midi": 65,
      "hit": false,
      "t": 3113.5332500000013,
      "d": 220.8436375000001,
      "v": 108
    },
    {
      "midi": 69,
      "hit": false,
      "t": 3123.187616666668,
      "d": 202.74170000000004,
      "v": 108
    },
    {
      "midi": 62,
      "hit": false,
      "t": 3123.187616666668,
      "d": 212.39606666666668,
      "v": 108
    },
    {
      "midi": 38,
      "hit": false,
      "t": 3260.7623416666665,
      "d": 364.4523416666666,
      "v": 108
    },
    {
      "midi": 69,
      "hit": false,
      "t": 3538.3253833333347,
      "d": 356.00477083333317,
      "v": 108
    },
    {
      "midi": 62,
      "hit": false,
      "t": 3547.9797500000013,
      "d": 313.7669166666665,
      "v": 108
    },
    {
      "midi": 65,
      "hit": false,
      "t": 3547.9797500000013,
      "d": 331.86885416666655,
      "v": 108
    },
    {
      "midi": 38,
      "hit": false,
      "t": 3825.5427916666663,
      "d": 376.5202999999997,
      "v": 108
    },
    {
      "midi": 65,
      "hit": false,
      "t": 4124.828158333335,
      "d": 259.4611041666676,
      "v": 108
    },
    {
      "midi": 69,
      "hit": false,
      "t": 4126.034954166668,
      "d": 272.73585833333436,
      "v": 108
    },
    {
      "midi": 62,
      "hit": false,
      "t": 4136.896116666669,
      "d": 248.5999416666673,
      "v": 108
    },
    {
      "midi": 38,
      "hit": false,
      "t": 4419.286341666666,
      "d": 354.7979750000004,
      "v": 108
    },
    {
      "midi": 62,
      "hit": false,
      "t": 4573.756208333336,
      "d": 224.46402500000022,
      "v": 108
    },
    {
      "midi": 65,
      "hit": false,
      "t": 4573.756208333336,
      "d": 228.08441250000033,
      "v": 108
    },
    {
      "midi": 69,
      "hit": false,
      "t": 4574.96300416667,
      "d": 228.08441250000033,
      "v": 108
    },
    {
      "midi": 62,
      "hit": false,
      "t": 4984.06679166667,
      "d": 288.42420416666755,
      "v": 108
    },
    {
      "midi": 67,
      "hit": false,
      "t": 4985.2735875000035,
      "d": 299.28536666666696,
      "v": 108
    },
    {
      "midi": 38,
      "hit": false,
      "t": 4987.687179166666,
      "d": 416.3445625000004,
      "v": 108
    },
    {
      "midi": 71,
      "hit": false,
      "t": 4996.134750000004,
      "d": 289.6310000000003,
      "v": 108
    },
    {
      "midi": 62,
      "hit": false,
      "t": 5436.61522916667,
      "d": 223.25722916666655,
      "v": 108
    },
    {
      "midi": 67,
      "hit": false,
      "t": 5436.61522916667,
      "d": 236.5319833333333,
      "v": 108
    },
    {
      "midi": 71,
      "hit": false,
      "t": 5437.822025000004,
      "d": 236.5319833333333,
      "v": 108
    },
    {
      "midi": 38,
      "hit": false,
      "t": 5556.088016666667,
      "d": 404.2766041666664,
      "v": 108
    },
    {
      "midi": 62,
      "hit": false,
      "t": 5880.716095833337,
      "d": 340.316425,
      "v": 108
    },
    {
      "midi": 67,
      "hit": false,
      "t": 5881.922891666671,
      "d": 352.38438333333306,
      "v": 108
    },
    {
      "midi": 71,
      "hit": false,
      "t": 5881.922891666671,
      "d": 353.59117916666673,
      "v": 108
    },
    {
      "midi": 38,
      "hit": false,
      "t": 6159.485933333333,
      "d": 378.93389166666657,
      "v": 108
    },
    {
      "midi": 62,
      "hit": false,
      "t": 6459.978095833338,
      "d": 259.4611041666667,
      "v": 108
    },
    {
      "midi": 67,
      "hit": false,
      "t": 6459.978095833338,
      "d": 266.7018791666669,
      "v": 108
    },
    {
      "midi": 71,
      "hit": false,
      "t": 6461.184891666671,
      "d": 272.73585833333345,
      "v": 108
    },
    {
      "midi": 38,
      "hit": false,
      "t": 6725.473179166666,
      "d": 371.69311666666636,
      "v": 108
    },
    {
      "midi": 71,
      "hit": false,
      "t": 6900.458575000005,
      "d": 213.6028624999999,
      "v": 108
    },
    {
      "midi": 62,
      "hit": false,
      "t": 6910.112941666672,
      "d": 211.18927083333347,
      "v": 108
    },
    {
      "midi": 67,
      "hit": false,
      "t": 6911.319737500005,
      "d": 209.9824749999998,
      "v": 108
    },
    {
      "midi": 38,
      "hit": false,
      "t": 7293.874016666666,
      "d": 514.0950250000005,
      "v": 108
    },
    {
      "midi": 66,
      "hit": false,
      "t": 7310.769158333339,
      "d": 2146.889787500001,
      "v": 108
    },
    {
      "midi": 69,
      "hit": false,
      "t": 7311.975954166673,
      "d": 2155.337358333335,
      "v": 108
    },
    {
      "midi": 62,
      "hit": false,
      "t": 7322.837116666673,
      "d": 2136.028625000001,
      "v": 108
    },
    {
      "midi": 35,
      "hit": false,
      "t": 7752.456433333333,
      "d": 468.23678333333373,
      "v": 108
    },
    {
      "midi": 33,
      "hit": false,
      "t": 8189.316524999999,
      "d": 469.4435791666665,
      "v": 108
    },
    {
      "midi": 30,
      "hit": false,
      "t": 8633.417391666666,
      "d": 442.8940708333321,
      "v": 108
    },
    {
      "midi": 33,
      "hit": false,
      "t": 9052.175545833332,
      "d": 330.6620583333315,
      "v": 108
    },
    {
      "midi": 35,
      "hit": false,
      "t": 9359.90848333333,
      "d": 311.35332500000004,
      "v": 108
    },
    {
      "midi": 38,
      "hit": false,
      "t": 9651.953074999998,
      "d": 389.7950541666669,
      "v": 108
    },
    {
      "midi": 66,
      "hit": false,
      "t": 9660.40064583334,
      "d": 278.7698375000018,
      "v": 108
    },
    {
      "midi": 62,
      "hit": false,
      "t": 9667.64142083334,
      "d": 255.8407166666675,
      "v": 108
    },
    {
      "midi": 69,
      "hit": false,
      "t": 9668.848216666674,
      "d": 260.6679000000004,
      "v": 108
    },
    {
      "midi": 62,
      "hit": false,
      "t": 10092.433554166675,
      "d": 202.7417000000005,
      "v": 108
    },
    {
      "midi": 66,
      "hit": false,
      "t": 10093.640350000009,
      "d": 207.56888333333336,
      "v": 108
    },
    {
      "midi": 69,
      "hit": false,
      "t": 10093.640350000009,
      "d": 216.01645416666724,
      "v": 108
    },
    {
      "midi": 38,
      "hit": false,
      "t": 10214.31993333333,
      "d": 381.347483333333,
      "v": 108
    },
    {
      "midi": 66,
      "hit": false,
      "t": 10508.778116666675,
      "d": 366.8659333333326,
      "v": 108
    },
    {
      "midi": 69,
      "hit": false,
      "t": 10508.778116666675,
      "d": 366.8659333333326,
      "v": 108
    },
    {
      "midi": 62,
      "hit": false,
      "t": 10519.639279166675,
      "d": 347.5571999999993,
      "v": 108
    },
    {
      "midi": 38,
      "hit": false,
      "t": 10786.34115833333,
      "d": 372.8999124999991,
      "v": 108
    },
    {
      "midi": 66,
      "hit": false,
      "t": 11078.385750000009,
      "d": 270.32226666666793,
      "v": 108
    },
    {
      "midi": 69,
      "hit": false,
      "t": 11088.040116666676,
      "d": 260.6679000000004,
      "v": 108
    },
    {
      "midi": 62,
      "hit": false,
      "t": 11088.040116666676,
      "d": 269.11547083333426,
      "v": 108
    },
    {
      "midi": 38,
      "hit": false,
      "t": 11361.98277083333,
      "d": 363.2455458333334,
      "v": 108
    },
    {
      "midi": 66,
      "hit": false,
      "t": 11530.93418750001,
      "d": 212.39606666666805,
      "v": 108
    },
    {
      "midi": 62,
      "hit": false,
      "t": 11539.381758333344,
      "d": 218.4300458333346,
      "v": 108
    },
    {
      "midi": 69,
      "hit": false,
      "t": 11540.588554166678,
      "d": 209.9824750000007,
      "v": 108
    },
    {
      "midi": 38,
      "hit": false,
      "t": 11925.556424999997,
      "d": 417.55135833333406,
      "v": 108
    },
    {
      "midi": 62,
      "hit": false,
      "t": 11925.556425000012,
      "d": 308.9397333333327,
      "v": 108
    },
    {
      "midi": 69,
      "hit": false,
      "t": 11926.763220833345,
      "d": 308.9397333333327,
      "v": 108
    },
    {
      "midi": 65,
      "hit": false,
      "t": 11937.624383333345,
      "d": 286.0106125000002,
      "v": 108
    },
    {
      "midi": 65,
      "hit": false,
      "t": 12361.209720833345,
      "d": 236.5319833333342,
      "v": 108
    },
    {
      "midi": 62,
      "hit": false,
      "t": 12370.864087500013,
      "d": 234.11839166666687,
      "v": 108
    },
    {
      "midi": 69,
      "hit": false,
      "t": 12370.864087500013,
      "d": 235.32518750000054,
      "v": 108
    },
    {
      "midi": 38,
      "hit": false,
      "t": 12518.093179166664,
      "d": 404.2766041666673,
      "v": 108
    },
    {
      "midi": 65,
      "hit": false,
      "t": 12796.86301666668,
      "d": 346.3504041666656,
      "v": 108
    },
    {
      "midi": 69,
      "hit": false,
      "t": 12796.86301666668,
      "d": 363.24554583333156,
      "v": 108
    },
    {
      "midi": 62,
      "hit": false,
      "t": 12807.72417916668,
      "d": 328.248466666666,
      "v": 108
    },
    {
      "midi": 38,
      "hit": false,
      "t": 13091.321199999998,
      "d": 421.17174583333326,
      "v": 108
    },
    {
      "midi": 65,
      "hit": false,
      "t": 13373.711425000012,
      "d": 301.6989583333325,
      "v": 108
    },
    {
      "midi": 69,
      "hit": false,
      "t": 13373.711425000012,
      "d": 308.9397333333327,
      "v": 108
    },
    {
      "midi": 62,
      "hit": false,
      "t": 13385.779383333345,
      "d": 278.7698375,
      "v": 108
    },
    {
      "midi": 38,
      "hit": false,
      "t": 13676.617179166666,
      "d": 423.5853375000006,
      "v": 108
    },
    {
      "midi": 69,
      "hit": false,
      "t": 13838.327820833345,
      "d": 213.60286250000172,
      "v": 108
    },
    {
      "midi": 62,
      "hit": false,
      "t": 13847.982187500013,
      "d": 189.46694583333374,
      "v": 108
    },
    {
      "midi": 65,
      "hit": false,
      "t": 13849.188983333346,
      "d": 189.46694583333374,
      "v": 108
    },
    {
      "midi": 62,
      "hit": false,
      "t": 14246.224812500013,
      "d": 312.5601208333337,
      "v": 108
    },
    {
      "midi": 67,
      "hit": false,
      "t": 14246.224812500013,
      "d": 322.21448750000127,
      "v": 108
    },
    {
      "midi": 71,
      "hit": false,
      "t": 14246.224812500013,
      "d": 323.42128333333494,
      "v": 108
    },
    {
      "midi": 38,
      "hit": false,
      "t": 14252.258791666667,
      "d": 417.55135833333406,
      "v": 108
    },
    {
      "midi": 62,
      "hit": false,
      "t": 14689.118883333349,
      "d": 209.98247499999889,
      "v": 108
    },
    {
      "midi": 67,
      "hit": false,
      "t": 14689.118883333349,
      "d": 236.5319833333324,
      "v": 108
    },
    {
      "midi": 71,
      "hit": false,
      "t": 14701.186841666682,
      "d": 205.15529166666602,
      "v": 108
    },
    {
      "midi": 38,
      "hit": false,
      "t": 14821.866425000002,
      "d": 410.31058333333385,
      "v": 108
    },
    {
      "midi": 62,
      "hit": false,
      "t": 15123.565383333347,
      "d": 323.4212833333331,
      "v": 108
    },
    {
      "midi": 71,
      "hit": false,
      "t": 15123.565383333347,
      "d": 347.5571999999993,
      "v": 108
    },
    {
      "midi": 67,
      "hit": false,
      "t": 15134.426545833347,
      "d": 325.83487500000047,
      "v": 108
    },
    {
      "midi": 38,
      "hit": false,
      "t": 15414.40317916667,
      "d": 410.31058333333385,
      "v": 108
    },
    {
      "midi": 62,
      "hit": false,
      "t": 15698.000200000013,
      "d": 270.3222666666661,
      "v": 108
    },
    {
      "midi": 67,
      "hit": false,
      "t": 15699.206995833347,
      "d": 283.59702083333286,
      "v": 108
    },
    {
      "midi": 71,
      "hit": false,
      "t": 15710.068158333346,
      "d": 265.49508333333324,
      "v": 108
    },
    {
      "midi": 38,
      "hit": false,
      "t": 15986.42440416667,
      "d": 401.86301249999997,
      "v": 108
    },
    {
      "midi": 71,
      "hit": false,
      "t": 16149.34184166668,
      "d": 199.12131249999948,
      "v": 108
    },
    {
      "midi": 67,
      "hit": false,
      "t": 16161.409800000012,
      "d": 168.95141666666677,
      "v": 108
    },
    {
      "midi": 62,
      "hit": false,
      "t": 16161.409800000012,
      "d": 194.2941291666666,
      "v": 108
    },
    {
      "midi": 66,
      "hit": false,
      "t": 16568.099995833345,
      "d": 2021.383020833331,
      "v": 108
    },
    {
      "midi": 38,
      "hit": false,
      "t": 16570.5135875,
      "d": 488.7523125000007,
      "v": 108
    },
    {
      "midi": 69,
      "hit": false,
      "t": 16577.75436250001,
      "d": 2026.2102041666658,
      "v": 108
    },
    {
      "midi": 62,
      "hit": false,
      "t": 16577.75436250001,
      "d": 2034.6577749999997,
      "v": 108
    },
    {
      "midi": 35,
      "hit": false,
      "t": 17010.99406666667,
      "d": 460.9960083333317,
      "v": 108
    },
    {
      "midi": 33,
      "hit": false,
      "t": 17436.992995833334,
      "d": 485.13192499999786,
      "v": 108
    },
    {
      "midi": 30,
      "hit": false,
      "t": 17876.266679166667,
      "d": 451.34164166666596,
      "v": 108
    },
    {
      "midi": 33,
      "hit": false,
      "t": 18295.024833333333,
      "d": 322.21448749999763,
      "v": 108
    },
    {
      "midi": 35,
      "hit": false,
      "t": 18603.964566666666,
      "d": 290.83779583332944,
      "v": 108
    },
    {
      "midi": 29,
      "hit": false,
      "t": 18887.561587499997,
      "d": 2155.3373583333305,
      "v": 108
    },
    {
      "midi": 60,
      "hit": false,
      "t": 18918.938279166676,
      "d": 483.925129166666,
      "v": 108
    },
    {
      "midi": 64,
      "hit": false,
      "t": 18922.558666666675,
      "d": 463.40959999999905,
      "v": 108
    },
    {
      "midi": 57,
      "hit": false,
      "t": 18928.59264583334,
      "d": 495.9930874999991,
      "v": 108
    },
    {
      "midi": 62,
      "hit": false,
      "t": 19352.177983333342,
      "d": 439.27368333332925,
      "v": 108
    },
    {
      "midi": 60,
      "hit": false,
      "t": 19781.797300000006,
      "d": 482.71833333333416,
      "v": 108
    },
    {
      "midi": 57,
      "hit": false,
      "t": 20233.13894166667,
      "d": 441.6872750000002,
      "v": 108
    },
    {
      "midi": 60,
      "hit": false,
      "t": 20642.24272916667,
      "d": 298.07857083333147,
      "v": 108
    },
    {
      "midi": 62,
      "hit": false,
      "t": 20930.666933333338,
      "d": 442.8940708333321,
      "v": 108
    },
    {
      "midi": 29,
      "hit": false,
      "t": 21196.16201666666,
      "d": 2555.9935750000004,
      "v": 108
    },
    {
      "midi": 64,
      "hit": false,
      "t": 21495.447383333336,
      "d": 147.22909166666795,
      "v": 108
    },
    {
      "midi": 64,
      "hit": false,
      "t": 21789.90556666667,
      "d": 177.39898750000066,
      "v": 108
    },
    {
      "midi": 62,
      "hit": false,
      "t": 21934.721066666672,
      "d": 152.056274999999,
      "v": 108
    },
    {
      "midi": 60,
      "hit": false,
      "t": 22046.953079166673,
      "d": 138.78152083333043,
      "v": 108
    },
    {
      "midi": 57,
      "hit": false,
      "t": 22209.87051666667,
      "d": 213.6028624999999,
      "v": 108
    },
    {
      "midi": 67,
      "hit": false,
      "t": 22364.340383333336,
      "d": 201.53490416666682,
      "v": 108
    },
    {
      "midi": 64,
      "hit": false,
      "t": 22521.22384166667,
      "d": 290.8377958333331,
      "v": 108
    },
    {
      "midi": 62,
      "hit": false,
      "t": 22803.61406666667,
      "d": 427.2057249999998,
      "v": 108
    },
    {
      "midi": 64,
      "hit": false,
      "t": 23222.372220833335,
      "d": 310.1465291666682,
      "v": 108
    },
    {
      "midi": 43,
      "hit": false,
      "t": 23548.207095833328,
      "d": 576.8484083333315,
      "v": 96
    },
    {
      "midi": 58,
      "hit": false,
      "t": 23556.65466666667,
      "d": 207.56888333333336,
      "v": 96
    },
    {
      "midi": 65,
      "hit": false,
      "t": 23556.65466666667,
      "d": 212.39606666666805,
      "v": 96
    },
    {
      "midi": 62,
      "hit": false,
      "t": 23556.65466666667,
      "d": 226.87761666666847,
      "v": 96
    },
    {
      "midi": 58,
      "hit": false,
      "t": 23979.033208333338,
      "d": 166.5378249999958,
      "v": 96
    },
    {
      "midi": 62,
      "hit": false,
      "t": 23986.273983333336,
      "d": 174.98539583332968,
      "v": 96
    },
    {
      "midi": 65,
      "hit": false,
      "t": 23987.480779166668,
      "d": 173.77859999999782,
      "v": 96
    },
    {
      "midi": 38,
      "hit": false,
      "t": 24117.81472916666,
      "d": 579.2619999999988,
      "v": 96
    },
    {
      "midi": 58,
      "hit": false,
      "t": 24415.8933,
      "d": 187.05335416666276,
      "v": 96
    },
    {
      "midi": 62,
      "hit": false,
      "t": 24417.10009583333,
      "d": 203.94849583333053,
      "v": 96
    },
    {
      "midi": 65,
      "hit": false,
      "t": 24426.754462499997,
      "d": 183.43296666666356,
      "v": 96
    },
    {
      "midi": 43,
      "hit": false,
      "t": 24681.388383333328,
      "d": 598.5707333333303,
      "v": 96
    },
    {
      "midi": 58,
      "hit": false,
      "t": 25009.636849999995,
      "d": 161.71064166666474,
      "v": 96
    },
    {
      "midi": 62,
      "hit": false,
      "t": 25009.636849999995,
      "d": 187.0533541666664,
      "v": 96
    },
    {
      "midi": 65,
      "hit": false,
      "t": 25021.70480833333,
      "d": 174.9853958333333,
      "v": 96
    },
    {
      "midi": 38,
      "hit": false,
      "t": 25270.304749999992,
      "d": 562.366858333331,
      "v": 96
    },
    {
      "midi": 62,
      "hit": false,
      "t": 25464.59887916666,
      "d": 184.6397625000027,
      "v": 96
    },
    {
      "midi": 58,
      "hit": false,
      "t": 25473.046449999994,
      "d": 144.8155000000006,
      "v": 96
    },
    {
      "midi": 65,
      "hit": false,
      "t": 25473.046449999994,
      "d": 183.4329666666672,
      "v": 96
    },
    {
      "midi": 43,
      "hit": false,
      "t": 25810.949283333324,
      "d": 617.8794666666654,
      "v": 96
    },
    {
      "midi": 58,
      "hit": false,
      "t": 25878.529849999995,
      "d": 161.71064166666474,
      "v": 96
    },
    {
      "midi": 62,
      "hit": false,
      "t": 25879.736645833327,
      "d": 178.6057833333325,
      "v": 96
    },
    {
      "midi": 65,
      "hit": false,
      "t": 25890.59780833333,
      "d": 174.98539583332968,
      "v": 96
    },
    {
      "midi": 62,
      "hit": false,
      "t": 26304.52877916666,
      "d": 160.5038458333329,
      "v": 96
    },
    {
      "midi": 58,
      "hit": false,
      "t": 26312.976349999994,
      "d": 152.056274999999,
      "v": 96
    },
    {
      "midi": 65,
      "hit": false,
      "t": 26322.63071666666,
      "d": 149.64268333333166,
      "v": 96
    },
    {
      "midi": 38,
      "hit": false,
      "t": 26385.38409999999,
      "d": 642.0153833333352,
      "v": 96
    },
    {
      "midi": 58,
      "hit": false,
      "t": 26701.564608333323,
      "d": 173.77859999999782,
      "v": 96
    },
    {
      "midi": 62,
      "hit": false,
      "t": 26710.012179166657,
      "d": 196.7077208333285,
      "v": 96
    },
    {
      "midi": 65,
      "hit": false,
      "t": 26719.666545833323,
      "d": 171.36500833333048,
      "v": 96
    },
    {
      "midi": 43,
      "hit": false,
      "t": 27012.917933333323,
      "d": 591.3299583333319,
      "v": 96
    },
    {
      "midi": 58,
      "hit": false,
      "t": 27317.030483333318,
      "d": 153.2630708333345,
      "v": 96
    },
    {
      "midi": 62,
      "hit": false,
      "t": 27317.030483333318,
      "d": 158.09025416666918,
      "v": 96
    },
    {
      "midi": 65,
      "hit": false,
      "t": 27329.09844166665,
      "d": 153.2630708333345,
      "v": 96
    },
    {
      "midi": 38,
      "hit": false,
      "t": 27582.525566666656,
      "d": 593.7435499999992,
      "v": 96
    },
    {
      "midi": 58,
      "hit": false,
      "t": 27759.924554166653,
      "d": 146.02229583333246,
      "v": 96
    },
    {
      "midi": 62,
      "hit": false,
      "t": 27767.16532916665,
      "d": 152.056274999999,
      "v": 96
    },
    {
      "midi": 65,
      "hit": false,
      "t": 27767.16532916665,
      "d": 159.2970499999974,
      "v": 96
    },
    {
      "midi": 41,
      "hit": false,
      "t": 28150.926404166654,
      "d": 572.0212250000004,
      "v": 96
    },
    {
      "midi": 60,
      "hit": false,
      "t": 28190.75066666665,
      "d": 156.8834583333337,
      "v": 96
    },
    {
      "midi": 57,
      "hit": false,
      "t": 28199.198237499982,
      "d": 137.57472499999858,
      "v": 96
    },
    {
      "midi": 64,
      "hit": false,
      "t": 28199.198237499982,
      "d": 172.57180416666597,
      "v": 96
    },
    {
      "midi": 60,
      "hit": false,
      "t": 28599.85445416665,
      "d": 159.29705000000104,
      "v": 96
    },
    {
      "midi": 57,
      "hit": false,
      "t": 28608.302024999983,
      "d": 131.54074583333204,
      "v": 96
    },
    {
      "midi": 64,
      "hit": false,
      "t": 28608.302024999983,
      "d": 165.33102916666758,
      "v": 96
    },
    {
      "midi": 36,
      "hit": false,
      "t": 28732.60199583332,
      "d": 599.7775291666658,
      "v": 96
    },
    {
      "midi": 60,
      "hit": false,
      "t": 29025.853383333317,
      "d": 189.4669458333301,
      "v": 96
    },
    {
      "midi": 64,
      "hit": false,
      "t": 29027.06017916665,
      "d": 173.77860000000146,
      "v": 96
    },
    {
      "midi": 57,
      "hit": false,
      "t": 29037.92134166665,
      "d": 170.15821249999863,
      "v": 96
    },
    {
      "midi": 41,
      "hit": false,
      "t": 29333.586320833318,
      "d": 540.6445333333322,
      "v": 96
    },
    {
      "midi": 57,
      "hit": false,
      "t": 29650.97362499998,
      "d": 155.6766624999982,
      "v": 96
    },
    {
      "midi": 60,
      "hit": false,
      "t": 29652.180420833312,
      "d": 159.29705000000104,
      "v": 96
    },
    {
      "midi": 64,
      "hit": false,
      "t": 29663.041583333314,
      "d": 149.64268333333166,
      "v": 96
    },
    {
      "midi": 36,
      "hit": false,
      "t": 29887.505608333315,
      "d": 605.811508333336,
      "v": 96
    },
    {
      "midi": 60,
      "hit": false,
      "t": 30103.52206249998,
      "d": 164.12423333333572,
      "v": 96
    },
    {
      "midi": 57,
      "hit": false,
      "t": 30111.969633333312,
      "d": 130.3339500000002,
      "v": 96
    },
    {
      "midi": 64,
      "hit": false,
      "t": 30113.176429166644,
      "d": 162.91743750000387,
      "v": 96
    },
    {
      "midi": 41,
      "hit": false,
      "t": 30467.97440416665,
      "d": 570.8144291666686,
      "v": 96
    },
    {
      "midi": 60,
      "hit": false,
      "t": 30531.934583333314,
      "d": 194.29412916666843,
      "v": 96
    },
    {
      "midi": 64,
      "hit": false,
      "t": 30531.934583333314,
      "d": 209.9824750000007,
      "v": 96
    },
    {
      "midi": 57,
      "hit": false,
      "t": 30542.795745833315,
      "d": 191.88053750000108,
      "v": 96
    },
    {
      "midi": 60,
      "hit": false,
      "t": 30956.726716666646,
      "d": 143.60870416666876,
      "v": 96
    },
    {
      "midi": 64,
      "hit": false,
      "t": 30957.933512499978,
      "d": 155.67666250000184,
      "v": 96
    },
    {
      "midi": 57,
      "hit": false,
      "t": 30968.79467499998,
      "d": 123.09317500000179,
      "v": 96
    },
    {
      "midi": 36,
      "hit": false,
      "t": 31015.859712499983,
      "d": 619.0862625000009,
      "v": 96
    },
    {
      "midi": 60,
      "hit": false,
      "t": 31363.41691249998,
      "d": 156.8834583333337,
      "v": 96
    },
    {
      "midi": 64,
      "hit": false,
      "t": 31364.62370833331,
      "d": 162.91743750000023,
      "v": 96
    },
    {
      "midi": 57,
      "hit": false,
      "t": 31375.484870833312,
      "d": 129.12715416666833,
      "v": 96
    },
    {
      "midi": 41,
      "hit": false,
      "t": 31622.87801666665,
      "d": 604.6047124999968,
      "v": 96
    },
    {
      "midi": 60,
      "hit": false,
      "t": 31941.472116666646,
      "d": 156.8834583333337,
      "v": 96
    },
    {
      "midi": 64,
      "hit": false,
      "t": 31941.472116666646,
      "d": 156.8834583333337,
      "v": 96
    },
    {
      "midi": 57,
      "hit": false,
      "t": 31952.333279166647,
      "d": 119.47278749999896,
      "v": 96
    },
    {
      "midi": 36,
      "hit": false,
      "t": 32199.726424999983,
      "d": 586.5027749999972,
      "v": 96
    },
    {
      "midi": 57,
      "hit": false,
      "t": 32403.674920833313,
      "d": 113.43880833333242,
      "v": 96
    },
    {
      "midi": 60,
      "hit": false,
      "t": 32407.295308333312,
      "d": 118.2659916666671,
      "v": 96
    },
    {
      "midi": 64,
      "hit": false,
      "t": 32414.53608333331,
      "d": 132.74754166666753,
      "v": 96
    },
    {
      "midi": 43,
      "hit": false,
      "t": 32791.056383333314,
      "d": 550.2989000000016,
      "v": 96
    },
    {
      "midi": 62,
      "hit": false,
      "t": 32834.50103333331,
      "d": 149.64268333333894,
      "v": 96
    },
    {
      "midi": 58,
      "hit": false,
      "t": 32834.50103333331,
      "d": 164.12423333333572,
      "v": 96
    },
    {
      "midi": 65,
      "hit": false,
      "t": 32844.15539999998,
      "d": 139.98831666666956,
      "v": 96
    },
    {
      "midi": 58,
      "hit": false,
      "t": 33242.39802499998,
      "d": 165.33102916666394,
      "v": 96
    },
    {
      "midi": 62,
      "hit": false,
      "t": 33243.604820833316,
      "d": 165.33102916666394,
      "v": 96
    },
    {
      "midi": 65,
      "hit": false,
      "t": 33254.46598333331,
      "d": 146.02229583333246,
      "v": 96
    },
    {
      "midi": 38,
      "hit": false,
      "t": 33346.18246666665,
      "d": 622.7066500000001,
      "v": 96
    },
    {
      "midi": 58,
      "hit": false,
      "t": 33669.60374999998,
      "d": 167.74462083333492,
      "v": 96
    },
    {
      "midi": 65,
      "hit": false,
      "t": 33682.87850416665,
      "d": 146.02229583333246,
      "v": 96
    },
    {
      "midi": 62,
      "hit": false,
      "t": 33682.87850416665,
      "d": 172.5718041666696,
      "v": 96
    },
    {
      "midi": 43,
      "hit": false,
      "t": 33958.02795416665,
      "d": 585.2959791666581,
      "v": 96
    },
    {
      "midi": 58,
      "hit": false,
      "t": 34257.31332083332,
      "d": 165.33102916667121,
      "v": 96
    },
    {
      "midi": 62,
      "hit": false,
      "t": 34257.31332083332,
      "d": 165.33102916667121,
      "v": 96
    },
    {
      "midi": 65,
      "hit": false,
      "t": 34270.588074999985,
      "d": 153.26307083333813,
      "v": 96
    },
    {
      "midi": 38,
      "hit": false,
      "t": 34516.77442499998,
      "d": 615.4658749999944,
      "v": 96
    },
    {
      "midi": 58,
      "hit": false,
      "t": 34694.17341249999,
      "d": 156.88345833333733,
      "v": 96
    },
    {
      "midi": 62,
      "hit": false,
      "t": 34702.62098333333,
      "d": 155.67666250000912,
      "v": 96
    },
    {
      "midi": 65,
      "hit": false,
      "t": 34703.82777916666,
      "d": 148.43588750000345,
      "v": 96
    },
    {
      "midi": 43,
      "hit": false,
      "t": 35092.41603749998,
      "d": 609.4318958333315,
      "v": 96
    },
    {
      "midi": 58,
      "hit": false,
      "t": 35116.55195416667,
      "d": 150.84947916666715,
      "v": 96
    },
    {
      "midi": 62,
      "hit": false,
      "t": 35116.55195416667,
      "d": 162.91743750000023,
      "v": 96
    },
    {
      "midi": 65,
      "hit": false,
      "t": 35126.20632083334,
      "d": 154.46986666666635,
      "v": 96
    },
    {
      "midi": 58,
      "hit": false,
      "t": 35544.96447500001,
      "d": 137.57472500000586,
      "v": 96
    },
    {
      "midi": 62,
      "hit": false,
      "t": 35546.17127083334,
      "d": 154.46986666667362,
      "v": 96
    },
    {
      "midi": 65,
      "hit": false,
      "t": 35547.37806666668,
      "d": 135.16113333333487,
      "v": 96
    },
    {
      "midi": 38,
      "hit": false,
      "t": 35675.29842499998,
      "d": 587.709570833329,
      "v": 96
    },
    {
      "midi": 58,
      "hit": false,
      "t": 35983.03136250002,
      "d": 172.5718041666696,
      "v": 96
    },
    {
      "midi": 62,
      "hit": false,
      "t": 35983.03136250002,
      "d": 182.22617083333898,
      "v": 96
    },
    {
      "midi": 65,
      "hit": false,
      "t": 35995.09932083335,
      "d": 161.71064166667202,
      "v": 96
    },
    {
      "midi": 43,
      "hit": false,
      "t": 36252.14683333331,
      "d": 603.3979166666686,
      "v": 96
    },
    {
      "midi": 58,
      "hit": false,
      "t": 36565.91375000003,
      "d": 166.53782499999943,
      "v": 96
    },
    {
      "midi": 62,
      "hit": false,
      "t": 36565.91375000003,
      "d": 182.2261708333317,
      "v": 96
    },
    {
      "midi": 65,
      "hit": false,
      "t": 36576.77491250003,
      "d": 162.91743750000023,
      "v": 96
    },
    {
      "midi": 38,
      "hit": false,
      "t": 36838.64960833331,
      "d": 620.2930583333364,
      "v": 96
    },
    {
      "midi": 58,
      "hit": false,
      "t": 37010.0146166667,
      "d": 148.43588750000345,
      "v": 96
    },
    {
      "midi": 65,
      "hit": false,
      "t": 37019.668983333366,
      "d": 143.60870416666876,
      "v": 96
    },
    {
      "midi": 62,
      "hit": false,
      "t": 37019.668983333366,
      "d": 167.74462083333492,
      "v": 96
    },
    {
      "midi": 57,
      "hit": false,
      "t": 37437.2203416667,
      "d": 214.80965833333903,
      "v": 96
    },
    {
      "midi": 60,
      "hit": false,
      "t": 37438.42713750004,
      "d": 181.0193750000035,
      "v": 96
    },
    {
      "midi": 41,
      "hit": false,
      "t": 37440.840729166644,
      "d": 568.4008375000049,
      "v": 96
    },
    {
      "midi": 64,
      "hit": false,
      "t": 37451.70189166671,
      "d": 182.2261708333317,
      "v": 96
    },
    {
      "midi": 64,
      "hit": false,
      "t": 37852.35810833338,
      "d": 188.2601500000019,
      "v": 96
    },
    {
      "midi": 57,
      "hit": false,
      "t": 37860.80567916671,
      "d": 162.91743750000023,
      "v": 96
    },
    {
      "midi": 60,
      "hit": false,
      "t": 37862.01247500005,
      "d": 178.6057833333325,
      "v": 96
    },
    {
      "midi": 36,
      "hit": false,
      "t": 37979.07167083331,
      "d": 609.4318958333388,
      "v": 96
    },
    {
      "midi": 60,
      "hit": false,
      "t": 38294.04538333338,
      "d": 188.2601500000019,
      "v": 96
    },
    {
      "midi": 57,
      "hit": false,
      "t": 38306.113341666714,
      "d": 171.36500833333412,
      "v": 96
    },
    {
      "midi": 64,
      "hit": false,
      "t": 38306.113341666714,
      "d": 190.6737416666656,
      "v": 96
    },
    {
      "midi": 41,
      "hit": false,
      "t": 38572.81522083332,
      "d": 591.3299583333355,
      "v": 96
    },
    {
      "midi": 57,
      "hit": false,
      "t": 38895.02970833338,
      "d": 156.88345833333733,
      "v": 96
    },
    {
      "midi": 60,
      "hit": false,
      "t": 38903.47727916671,
      "d": 167.74462083333492,
      "v": 96
    },
    {
      "midi": 64,
      "hit": false,
      "t": 38904.68407500005,
      "d": 166.53782499999943,
      "v": 96
    },
    {
      "midi": 36,
      "hit": false,
      "t": 39150.87042499999,
      "d": 593.7435500000065,
      "v": 96
    },
    {
      "midi": 64,
      "hit": false,
      "t": 39346.371350000045,
      "d": 155.67666250000184,
      "v": 96
    },
    {
      "midi": 57,
      "hit": false,
      "t": 39353.61212500004,
      "d": 123.09317500000179,
      "v": 96
    },
    {
      "midi": 60,
      "hit": false,
      "t": 39354.81892083338,
      "d": 147.22909166666795,
      "v": 96
    },
    {
      "midi": 41,
      "hit": false,
      "t": 39739.78679166666,
      "d": 596.1571416666702,
      "v": 96
    },
    {
      "midi": 57,
      "hit": false,
      "t": 39769.956687500046,
      "d": 184.6397625000027,
      "v": 96
    },
    {
      "midi": 60,
      "hit": false,
      "t": 39778.40425833338,
      "d": 189.46694583333738,
      "v": 96
    },
    {
      "midi": 64,
      "hit": false,
      "t": 39778.40425833338,
      "d": 190.67374166667287,
      "v": 96
    },
    {
      "midi": 60,
      "hit": false,
      "t": 40216.471145833384,
      "d": 148.43588749999617,
      "v": 96
    },
    {
      "midi": 57,
      "hit": false,
      "t": 40224.91871666672,
      "d": 132.7475416666639,
      "v": 96
    },
    {
      "midi": 64,
      "hit": false,
      "t": 40224.91871666672,
      "d": 139.98831666666229,
      "v": 96
    },
    {
      "midi": 36,
      "hit": false,
      "t": 40311.80801666666,
      "d": 632.3610166666695,
      "v": 96
    },
    {
      "midi": 64,
      "hit": false,
      "t": 40635.22930000005,
      "d": 166.5378250000067,
      "v": 96
    },
    {
      "midi": 57,
      "hit": false,
      "t": 40644.88366666672,
      "d": 138.78152083333407,
      "v": 96
    },
    {
      "midi": 60,
      "hit": false,
      "t": 40644.88366666672,
      "d": 164.12423333333572,
      "v": 96
    },
    {
      "midi": 41,
      "hit": false,
      "t": 40905.55156666666,
      "d": 597.3639375000057,
      "v": 96
    },
    {
      "midi": 60,
      "hit": false,
      "t": 41339.998066666725,
      "d": 156.88345833333733,
      "v": 96
    },
    {
      "midi": 57,
      "hit": false,
      "t": 41348.44563750006,
      "d": 117.05919583333889,
      "v": 96
    },
    {
      "midi": 64,
      "hit": false,
      "t": 41349.652433333395,
      "d": 139.98831666666956,
      "v": 96
    },
    {
      "midi": 36,
      "hit": false,
      "t": 41472.74560833333,
      "d": 551.5056958333371,
      "v": 96
    },
    {
      "midi": 64,
      "hit": false,
      "t": 41781.68534166673,
      "d": 213.60286250001081,
      "v": 96
    },
    {
      "midi": 57,
      "hit": false,
      "t": 41791.3397083334,
      "d": 155.67666250000184,
      "v": 96
    },
    {
      "midi": 60,
      "hit": false,
      "t": 41799.78727916673,
      "d": 177.3989875000043,
      "v": 96
    },
    {
      "midi": 65,
      "hit": false,
      "t": 42084.591095833406,
      "d": 293.2513875000004,
      "v": 96
    },
    {
      "midi": 58,
      "hit": false,
      "t": 42084.591095833406,
      "d": 298.0785708333351,
      "v": 96
    },
    {
      "midi": 62,
      "hit": false,
      "t": 42084.591095833406,
      "d": 307.7329375000045,
      "v": 96
    },
    {
      "midi": 46,
      "hit": false,
      "t": 42107.52021666667,
      "d": 271.52906249999796,
      "v": 96
    },
    {
      "midi": 67,
      "hit": false,
      "t": 42522.65798333341,
      "d": 300.4921625000061,
      "v": 96
    },
    {
      "midi": 58,
      "hit": false,
      "t": 42528.69196250008,
      "d": 311.3533250000037,
      "v": 96
    },
    {
      "midi": 62,
      "hit": false,
      "t": 42529.89875833342,
      "d": 300.4921624999988,
      "v": 96
    },
    {
      "midi": 46,
      "hit": false,
      "t": 42652.99193333334,
      "d": 337.90283333333355,
      "v": 96
    },
    {
      "midi": 65,
      "hit": false,
      "t": 42942.62293333342,
      "d": 406.69019583333284,
      "v": 96
    },
    {
      "midi": 58,
      "hit": false,
      "t": 42951.07050416675,
      "d": 445.3076624999958,
      "v": 96
    },
    {
      "midi": 62,
      "hit": false,
      "t": 42966.758850000086,
      "d": 417.5513583333304,
      "v": 96
    },
    {
      "midi": 46,
      "hit": false,
      "t": 43235.87432083334,
      "d": 294.4581833333359,
      "v": 96
    },
    {
      "midi": 67,
      "hit": false,
      "t": 43512.23056666675,
      "d": 271.52906250000524,
      "v": 96
    },
    {
      "midi": 58,
      "hit": false,
      "t": 43521.88493333342,
      "d": 289.6310000000012,
      "v": 96
    },
    {
      "midi": 62,
      "hit": false,
      "t": 43523.09172916676,
      "d": 267.90867499999877,
      "v": 96
    },
    {
      "midi": 46,
      "hit": false,
      "t": 43821.17030000001,
      "d": 329.45526249999966,
      "v": 96
    },
    {
      "midi": 65,
      "hit": false,
      "t": 43972.01977916676,
      "d": 244.9795541666681,
      "v": 96
    },
    {
      "midi": 58,
      "hit": false,
      "t": 43981.67414583343,
      "d": 260.6678999999931,
      "v": 96
    },
    {
      "midi": 62,
      "hit": false,
      "t": 43982.880941666765,
      "d": 248.59994166666002,
      "v": 96
    },
    {
      "midi": 67,
      "hit": false,
      "t": 44385.95075000009,
      "d": 273.94265416666894,
      "v": 96
    },
    {
      "midi": 58,
      "hit": false,
      "t": 44395.60511666676,
      "d": 286.010612500002,
      "v": 96
    },
    {
      "midi": 62,
      "hit": false,
      "t": 44405.25948333343,
      "d": 254.6339208333302,
      "v": 96
    },
    {
      "midi": 46,
      "hit": false,
      "t": 44410.08666666668,
      "d": 305.3193458333335,
      "v": 96
    },
    {
      "midi": 67,
      "hit": false,
      "t": 44819.19045416676,
      "d": 235.32518749999872,
      "v": 96
    },
    {
      "midi": 58,
      "hit": false,
      "t": 44828.84482083343,
      "d": 251.013533333331,
      "v": 96
    },
    {
      "midi": 62,
      "hit": false,
      "t": 44839.70598333343,
      "d": 241.3591666666689,
      "v": 96
    },
    {
      "midi": 46,
      "hit": false,
      "t": 44970.03993333334,
      "d": 296.8717749999996,
      "v": 96
    },
    {
      "midi": 58,
      "hit": false,
      "t": 45231.914629166764,
      "d": 415.1377666666667,
      "v": 96
    },
    {
      "midi": 62,
      "hit": false,
      "t": 45231.914629166764,
      "d": 415.1377666666667,
      "v": 96
    },
    {
      "midi": 65,
      "hit": false,
      "t": 45243.9825875001,
      "d": 345.14360833333194,
      "v": 96
    },
    {
      "midi": 46,
      "hit": false,
      "t": 45521.54562916667,
      "d": 312.5601208333319,
      "v": 96
    },
    {
      "midi": 67,
      "hit": false,
      "t": 45809.96983333343,
      "d": 251.013533333331,
      "v": 96
    },
    {
      "midi": 58,
      "hit": false,
      "t": 45809.96983333343,
      "d": 301.6989583333343,
      "v": 96
    },
    {
      "midi": 62,
      "hit": false,
      "t": 45820.83099583343,
      "d": 272.73585833333345,
      "v": 96
    },
    {
      "midi": 46,
      "hit": false,
      "t": 46105.6348125,
      "d": 293.2513875000004,
      "v": 96
    },
    {
      "midi": 58,
      "hit": false,
      "t": 46251.657108333435,
      "d": 253.42712500000198,
      "v": 96
    },
    {
      "midi": 65,
      "hit": false,
      "t": 46268.5522500001,
      "d": 220.84363750000193,
      "v": 96
    },
    {
      "midi": 62,
      "hit": false,
      "t": 46268.5522500001,
      "d": 228.08441250000033,
      "v": 96
    },
    {
      "midi": 67,
      "hit": false,
      "t": 46678.862833333435,
      "d": 305.3193458333335,
      "v": 96
    },
    {
      "midi": 43,
      "hit": false,
      "t": 46688.5172,
      "d": 314.9737125000029,
      "v": 96
    },
    {
      "midi": 59,
      "hit": false,
      "t": 46688.517200000104,
      "d": 281.18342916666734,
      "v": 96
    },
    {
      "midi": 62,
      "hit": false,
      "t": 46688.517200000104,
      "d": 288.42420416666573,
      "v": 96
    },
    {
      "midi": 62,
      "hit": false,
      "t": 47130.2044750001,
      "d": 282.39022499999555,
      "v": 96
    },
    {
      "midi": 67,
      "hit": false,
      "t": 47131.411270833436,
      "d": 281.18342916666006,
      "v": 96
    },
    {
      "midi": 59,
      "hit": false,
      "t": 47142.27243333343,
      "d": 255.84071666666568,
      "v": 96
    },
    {
      "midi": 43,
      "hit": false,
      "t": 47258.124833333335,
      "d": 352.38438333333033,
      "v": 96
    },
    {
      "midi": 62,
      "hit": false,
      "t": 47562.23738333343,
      "d": 429.6193166666635,
      "v": 96
    },
    {
      "midi": 60,
      "hit": false,
      "t": 47562.23738333343,
      "d": 439.2736833333329,
      "v": 96
    },
    {
      "midi": 67,
      "hit": false,
      "t": 47574.30534166676,
      "d": 418.7581541666659,
      "v": 96
    },
    {
      "midi": 43,
      "hit": false,
      "t": 47871.177116666666,
      "d": 314.9737125000029,
      "v": 96
    },
    {
      "midi": 67,
      "hit": false,
      "t": 48148.74015833343,
      "d": 393.41544166667154,
      "v": 96
    },
    {
      "midi": 59,
      "hit": false,
      "t": 48157.18772916676,
      "d": 399.44942083333444,
      "v": 96
    },
    {
      "midi": 62,
      "hit": false,
      "t": 48158.3945250001,
      "d": 398.24262499999895,
      "v": 96
    },
    {
      "midi": 43,
      "hit": false,
      "t": 48463.71387083334,
      "d": 307.7329374999972,
      "v": 96
    },
    {
      "midi": 55,
      "hit": false,
      "t": 48600.081800000095,
      "d": 371.6931166666691,
      "v": 96
    },
    {
      "midi": 67,
      "hit": false,
      "t": 48995.91083333343,
      "d": 323.42128333333676,
      "v": 96
    },
    {
      "midi": 59,
      "hit": false,
      "t": 49004.358404166764,
      "d": 308.9397333333327,
      "v": 96
    },
    {
      "midi": 62,
      "hit": false,
      "t": 49004.358404166764,
      "d": 314.9737125000029,
      "v": 96
    },
    {
      "midi": 43,
      "hit": false,
      "t": 49026.080729166664,
      "d": 335.48924166666984,
      "v": 96
    },
    {
      "midi": 62,
      "hit": false,
      "t": 49461.7340250001,
      "d": 294.4581833333359,
      "v": 96
    },
    {
      "midi": 67,
      "hit": false,
      "t": 49462.940820833435,
      "d": 278.76983750000363,
      "v": 96
    },
    {
      "midi": 59,
      "hit": false,
      "t": 49472.595187500105,
      "d": 252.2203291666665,
      "v": 96
    },
    {
      "midi": 43,
      "hit": false,
      "t": 49608.963116666666,
      "d": 294.4581833333359,
      "v": 96
    },
    {
      "midi": 60,
      "hit": false,
      "t": 49891.35334166677,
      "d": 435.6532958333337,
      "v": 96
    },
    {
      "midi": 62,
      "hit": false,
      "t": 49892.560137500106,
      "d": 425.9989291666643,
      "v": 96
    },
    {
      "midi": 67,
      "hit": false,
      "t": 49903.421300000104,
      "d": 407.8969916666683,
      "v": 96
    },
    {
      "midi": 43,
      "hit": false,
      "t": 50180.98434166667,
      "d": 578.055204166667,
      "v": 96
    },
    {
      "midi": 59,
      "hit": false,
      "t": 50450.099812500106,
      "d": 650.4629541666654,
      "v": 96
    },
    {
      "midi": 62,
      "hit": false,
      "t": 50451.30660833344,
      "d": 615.4658750000017,
      "v": 96
    },
    {
      "midi": 67,
      "hit": false,
      "t": 50451.30660833344,
      "d": 626.3270374999993,
      "v": 96
    },
    {
      "midi": 44,
      "hit": false,
      "t": 50728.86965,
      "d": 308.93973333334,
      "v": 96
    },
    {
      "midi": 45,
      "hit": false,
      "t": 51029.36181250001,
      "d": 301.6989583333343,
      "v": 96
    },
    {
      "midi": 46,
      "hit": false,
      "t": 51322.61320000001,
      "d": 345.14360833333194,
      "v": 96
    },
    {
      "midi": 58,
      "hit": false,
      "t": 51329.85397500011,
      "d": 331.8688541666779,
      "v": 96
    },
    {
      "midi": 62,
      "hit": false,
      "t": 51331.06077083344,
      "d": 324.62807916667225,
      "v": 96
    },
    {
      "midi": 65,
      "hit": false,
      "t": 51349.162708333446,
      "d": 257.0475125000012,
      "v": 96
    },
    {
      "midi": 62,
      "hit": false,
      "t": 51779.98882083345,
      "d": 271.52906249999796,
      "v": 96
    },
    {
      "midi": 67,
      "hit": false,
      "t": 51788.436391666786,
      "d": 238.94557499999792,
      "v": 96
    },
    {
      "midi": 58,
      "hit": false,
      "t": 51788.436391666786,
      "d": 270.3222666666625,
      "v": 96
    },
    {
      "midi": 46,
      "hit": false,
      "t": 51915.14995416667,
      "d": 348.76399583333114,
      "v": 96
    },
    {
      "midi": 65,
      "hit": false,
      "t": 52210.81493333345,
      "d": 352.38438333333033,
      "v": 96
    },
    {
      "midi": 62,
      "hit": false,
      "t": 52210.81493333345,
      "d": 384.9678708333304,
      "v": 96
    },
    {
      "midi": 58,
      "hit": false,
      "t": 52210.81493333345,
      "d": 394.62223749999976,
      "v": 96
    },
    {
      "midi": 46,
      "hit": false,
      "t": 52502.859525,
      "d": 331.86885416666337,
      "v": 96
    },
    {
      "midi": 58,
      "hit": false,
      "t": 52787.66334166678,
      "d": 316.1805083333311,
      "v": 96
    },
    {
      "midi": 62,
      "hit": false,
      "t": 52797.31770833345,
      "d": 292.0445916666649,
      "v": 96
    },
    {
      "midi": 67,
      "hit": false,
      "t": 52800.93809583345,
      "d": 265.49508333333506,
      "v": 96
    },
    {
      "midi": 46,
      "hit": false,
      "t": 53085.741912499994,
      "d": 327.04167083333596,
      "v": 96
    },
    {
      "midi": 58,
      "hit": false,
      "t": 53245.03896250011,
      "d": 290.8377958333367,
      "v": 96
    },
    {
      "midi": 62,
      "hit": false,
      "t": 53253.486533333446,
      "d": 275.14945000000444,
      "v": 96
    },
    {
      "midi": 65,
      "hit": false,
      "t": 53254.69332916678,
      "d": 265.49508333333506,
      "v": 96
    },
    {
      "midi": 46,
      "hit": false,
      "t": 53667.41750416666,
      "d": 314.9737125000029,
      "v": 96
    },
    {
      "midi": 67,
      "hit": false,
      "t": 53672.24468750011,
      "d": 253.42712500000198,
      "v": 96
    },
    {
      "midi": 62,
      "hit": false,
      "t": 53672.24468750011,
      "d": 261.87469583333586,
      "v": 96
    },
    {
      "midi": 58,
      "hit": false,
      "t": 53672.24468750011,
      "d": 276.35624583333265,
      "v": 96
    },
    {
      "midi": 67,
      "hit": false,
      "t": 54093.41643333344,
      "d": 259.46110416667216,
      "v": 96
    },
    {
      "midi": 58,
      "hit": false,
      "t": 54093.41643333344,
      "d": 282.39022500000283,
      "v": 96
    },
    {
      "midi": 62,
      "hit": false,
      "t": 54103.07080000011,
      "d": 264.28828749999957,
      "v": 96
    },
    {
      "midi": 46,
      "hit": false,
      "t": 54237.02513749999,
      "d": 337.90283333333355,
      "v": 96
    },
    {
      "midi": 58,
      "hit": false,
      "t": 54506.140608333444,
      "d": 417.5513583333377,
      "v": 96
    },
    {
      "midi": 62,
      "hit": false,
      "t": 54514.58817916678,
      "d": 383.76107500000217,
      "v": 96
    },
    {
      "midi": 65,
      "hit": false,
      "t": 54515.79497500011,
      "d": 349.9707916666666,
      "v": 96
    },
    {
      "midi": 46,
      "hit": false,
      "t": 54815.08034166666,
      "d": 298.0785708333351,
      "v": 96
    },
    {
      "midi": 67,
      "hit": false,
      "t": 55084.19581250012,
      "d": 278.76983750000363,
      "v": 96
    },
    {
      "midi": 58,
      "hit": false,
      "t": 55084.19581250012,
      "d": 292.0445916666722,
      "v": 96
    },
    {
      "midi": 62,
      "hit": false,
      "t": 55102.29775000012,
      "d": 265.49508333333506,
      "v": 96
    },
    {
      "midi": 46,
      "hit": false,
      "t": 55372.62001666666,
      "d": 358.4183625000005,
      "v": 96
    },
    {
      "midi": 58,
      "hit": false,
      "t": 55546.39861666679,
      "d": 255.84071666666568,
      "v": 96
    },
    {
      "midi": 62,
      "hit": false,
      "t": 55556.05298333346,
      "d": 253.4271249999947,
      "v": 96
    },
    {
      "midi": 65,
      "hit": false,
      "t": 55587.42967500012,
      "d": 207.56888333333336,
      "v": 96
    },
    {
      "midi": 67,
      "hit": false,
      "t": 55966.36356666678,
      "d": 289.6310000000012,
      "v": 96
    },
    {
      "midi": 62,
      "hit": false,
      "t": 55966.36356666678,
      "d": 300.4921624999988,
      "v": 96
    },
    {
      "midi": 59,
      "hit": false,
      "t": 55966.36356666678,
      "d": 308.9397333333327,
      "v": 96
    },
    {
      "midi": 43,
      "hit": false,
      "t": 55967.570362499995,
      "d": 316.1805083333311,
      "v": 96
    },
    {
      "midi": 59,
      "hit": false,
      "t": 56395.98288333345,
      "d": 265.49508333333506,
      "v": 96
    },
    {
      "midi": 67,
      "hit": false,
      "t": 56405.637250000116,
      "d": 275.14944999999716,
      "v": 96
    },
    {
      "midi": 62,
      "hit": false,
      "t": 56405.637250000116,
      "d": 289.63099999999395,
      "v": 96
    },
    {
      "midi": 43,
      "hit": false,
      "t": 56537.17799583333,
      "d": 331.86885416666337,
      "v": 96
    },
    {
      "midi": 60,
      "hit": false,
      "t": 56821.98181250011,
      "d": 419.9649500000014,
      "v": 96
    },
    {
      "midi": 62,
      "hit": false,
      "t": 56821.98181250011,
      "d": 419.9649500000014,
      "v": 96
    },
    {
      "midi": 67,
      "hit": false,
      "t": 56834.049770833444,
      "d": 409.1037875000038,
      "v": 96
    },
    {
      "midi": 43,
      "hit": false,
      "t": 57132.128341666656,
      "d": 334.28244583333435,
      "v": 96
    },
    {
      "midi": 67,
      "hit": false,
      "t": 57400.03701666678,
      "d": 418.7581541666659,
      "v": 96
    },
    {
      "midi": 62,
      "hit": false,
      "t": 57400.03701666678,
      "d": 425.9989291666643,
      "v": 96
    },
    {
      "midi": 59,
      "hit": false,
      "t": 57412.10497500011,
      "d": 359.625158333336,
      "v": 96
    },
    {
      "midi": 43,
      "hit": false,
      "t": 57700.52917916665,
      "d": 323.42128333333676,
      "v": 96
    },
    {
      "midi": 59,
      "hit": false,
      "t": 58268.930016666774,
      "d": 433.23970416667,
      "v": 96
    },
    {
      "midi": 43,
      "hit": false,
      "t": 58273.75719999999,
      "d": 440.4804791666684,
      "v": 96
    },
    {
      "midi": 55,
      "hit": false,
      "t": 58277.37758750011,
      "d": 403.06980833333364,
      "v": 96
    },
    {
      "midi": 45,
      "hit": false,
      "t": 58692.51535416666,
      "d": 454.96202916667244,
      "v": 96
    },
    {
      "midi": 57,
      "hit": false,
      "t": 58721.478454166776,
      "d": 398.24262499999895,
      "v": 96
    },
    {
      "midi": 60,
      "hit": false,
      "t": 58728.719229166774,
      "d": 409.10378749999654,
      "v": 96
    },
    {
      "midi": 62,
      "hit": false,
      "t": 59130.58224166677,
      "d": 483.925129166666,
      "v": 96
    },
    {
      "midi": 47,
      "hit": false,
      "t": 59147.47738333333,
      "d": 482.7183333333305,
      "v": 96
    },
    {
      "midi": 59,
      "hit": false,
      "t": 59147.47738333344,
      "d": 348.76399583333114,
      "v": 96
    },
    {
      "midi": 55,
      "hit": false,
      "t": 59600.025820833434,
      "d": 405.4834000000046,
      "v": 96
    },
    {
      "midi": 59,
      "hit": false,
      "t": 59606.059800000105,
      "d": 378.9338916666675,
      "v": 96
    },
    {
      "midi": 43,
      "hit": false,
      "t": 59615.714166666665,
      "d": 400.65621666666266,
      "v": 96
    },
    {
      "midi": 60,
      "hit": false,
      "t": 59997.061650000105,
      "d": 307.7329374999972,
      "v": 96
    },
    {
      "midi": 45,
      "hit": false,
      "t": 59999.47524166666,
      "d": 331.86885416667064,
      "v": 96
    },
    {
      "midi": 57,
      "hit": false,
      "t": 60012.74999583344,
      "d": 275.14944999999716,
      "v": 96
    },
    {
      "midi": 62,
      "hit": false,
      "t": 60296.34701666677,
      "d": 249.80673750000278,
      "v": 96
    },
    {
      "midi": 59,
      "hit": false,
      "t": 60306.00138333344,
      "d": 251.013533333331,
      "v": 96
    },
    {
      "midi": 47,
      "hit": false,
      "t": 60310.82856666666,
      "d": 279.97663333333185,
      "v": 96
    },
    {
      "midi": 48,
      "hit": false,
      "t": 60620.97509583333,
      "d": 509.26784166666766,
      "v": 96
    },
    {
      "midi": 64,
      "hit": false,
      "t": 60620.97509583343,
      "d": 283.59702083333104,
      "v": 96
    },
    {
      "midi": 60,
      "hit": false,
      "t": 60620.97509583343,
      "d": 325.83487500000047,
      "v": 96
    },
    {
      "midi": 59,
      "hit": false,
      "t": 61059.04198333343,
      "d": 314.97371250001015,
      "v": 96
    },
    {
      "midi": 62,
      "hit": false,
      "t": 61065.0759625001,
      "d": 302.9057541666698,
      "v": 96
    },
    {
      "midi": 47,
      "hit": false,
      "t": 61139.89730416667,
      "d": 633.5678124999977,
      "v": 96
    },
    {
      "midi": 57,
      "hit": false,
      "t": 61504.34964583344,
      "d": 417.5513583333304,
      "v": 96
    },
    {
      "midi": 60,
      "hit": false,
      "t": 61512.797216666775,
      "d": 415.1377666666667,
      "v": 96
    },
    {
      "midi": 45,
      "hit": false,
      "t": 61774.6719125,
      "d": 579.2620000000024,
      "v": 96
    },
    {
      "midi": 57,
      "hit": false,
      "t": 62078.78446250011,
      "d": 301.6989583333343,
      "v": 96
    },
    {
      "midi": 60,
      "hit": false,
      "t": 62087.23203333344,
      "d": 299.2853666666706,
      "v": 96
    },
    {
      "midi": 43,
      "hit": false,
      "t": 62340.659158333336,
      "d": 610.638691666667,
      "v": 96
    },
    {
      "midi": 59,
      "hit": false,
      "t": 62496.33582083345,
      "d": 199.12131249999948,
      "v": 96
    },
    {
      "midi": 55,
      "hit": false,
      "t": 62504.78339166678,
      "d": 196.70772083333577,
      "v": 96
    },
    {
      "midi": 53,
      "hit": false,
      "t": 62918.71436250012,
      "d": 1504.874404166665,
      "v": 96
    },
    {
      "midi": 57,
      "hit": false,
      "t": 62927.16193333345,
      "d": 1503.6676083333296,
      "v": 96
    },
    {
      "midi": 41,
      "hit": false,
      "t": 62928.36872916667,
      "d": 384.9678708333304,
      "v": 96
    },
    {
      "midi": 72,
      "hit": false,
      "t": 62928.36872916679,
      "d": 91.71648333332996,
      "v": 72
    },
    {
      "midi": 76,
      "hit": false,
      "t": 62928.36872916679,
      "d": 92.92327916666545,
      "v": 72
    },
    {
      "midi": 72,
      "hit": false,
      "t": 63067.15025000012,
      "d": 90.50968750000175,
      "v": 72
    },
    {
      "midi": 76,
      "hit": false,
      "t": 63076.80461666679,
      "d": 72.40774999999849,
      "v": 72
    },
    {
      "midi": 72,
      "hit": false,
      "t": 63202.31138333346,
      "d": 103.78444166666304,
      "v": 72
    },
    {
      "midi": 76,
      "hit": false,
      "t": 63202.31138333346,
      "d": 103.78444166666304,
      "v": 72
    },
    {
      "midi": 74,
      "hit": false,
      "t": 63351.95406666679,
      "d": 260.6678999999931,
      "v": 72
    },
    {
      "midi": 71,
      "hit": false,
      "t": 63371.26280000012,
      "d": 222.05043333333015,
      "v": 72
    },
    {
      "midi": 41,
      "hit": false,
      "t": 63470.22005833333,
      "d": 460.99600833333534,
      "v": 96
    },
    {
      "midi": 72,
      "hit": false,
      "t": 63750.19669166678,
      "d": 181.01937499999622,
      "v": 72
    },
    {
      "midi": 69,
      "hit": false,
      "t": 63757.43746666678,
      "d": 173.77859999999782,
      "v": 72
    },
    {
      "midi": 72,
      "hit": false,
      "t": 64050.68885416678,
      "d": 89.30289166666626,
      "v": 72
    },
    {
      "midi": 76,
      "hit": false,
      "t": 64051.895650000115,
      "d": 96.54366666666465,
      "v": 72
    },
    {
      "midi": 41,
      "hit": false,
      "t": 64073.617975,
      "d": 591.3299583333355,
      "v": 96
    },
    {
      "midi": 76,
      "hit": false,
      "t": 64177.40241666678,
      "d": 118.2659916666671,
      "v": 72
    },
    {
      "midi": 72,
      "hit": false,
      "t": 64195.504354166784,
      "d": 88.09609583333076,
      "v": 72
    },
    {
      "midi": 72,
      "hit": false,
      "t": 64349.97422083345,
      "d": 104.99123749999853,
      "v": 72
    },
    {
      "midi": 76,
      "hit": false,
      "t": 64351.181016666786,
      "d": 95.33687083332916,
      "v": 72
    },
    {
      "midi": 74,
      "hit": false,
      "t": 64502.030495833445,
      "d": 468.23678333332646,
      "v": 72
    },
    {
      "midi": 71,
      "hit": false,
      "t": 64556.33630833345,
      "d": 424.7921333333288,
      "v": 72
    },
    {
      "midi": 43,
      "hit": false,
      "t": 64634.7780375,
      "d": 351.1775875000021,
      "v": 96
    },
    {
      "midi": 55,
      "hit": false,
      "t": 64660.12075000011,
      "d": 311.3533249999964,
      "v": 72
    },
    {
      "midi": 59,
      "hit": false,
      "t": 64679.42948333344,
      "d": 272.73585833333345,
      "v": 72
    },
    {
      "midi": 45,
      "hit": false,
      "t": 64918.37505833334,
      "d": 167.74462083333492,
      "v": 96
    },
    {
      "midi": 72,
      "hit": false,
      "t": 64944.92456666678,
      "d": 156.88345833333005,
      "v": 72
    },
    {
      "midi": 69,
      "hit": false,
      "t": 64963.02650416677,
      "d": 138.78152083333407,
      "v": 72
    },
    {
      "midi": 47,
      "hit": false,
      "t": 65069.224537500006,
      "d": 214.80965833333903,
      "v": 96
    },
    {
      "midi": 48,
      "hit": false,
      "t": 65200.76528333334,
      "d": 578.055204166667,
      "v": 96
    },
    {
      "midi": 60,
      "hit": false,
      "t": 65228.52158750011,
      "d": 327.0416708333287,
      "v": 72
    },
    {
      "midi": 64,
      "hit": false,
      "t": 65235.76236250011,
      "d": 284.80381666666653,
      "v": 72
    },
    {
      "midi": 62,
      "hit": false,
      "t": 65685.89720833344,
      "d": 263.08149166667135,
      "v": 96
    },
    {
      "midi": 59,
      "hit": false,
      "t": 65699.1719625001,
      "d": 257.04751250000845,
      "v": 96
    },
    {
      "midi": 60,
      "hit": false,
      "t": 65707.61953333343,
      "d": 66.37377083333558,
      "v": 96
    },
    {
      "midi": 47,
      "hit": false,
      "t": 65770.37291666667,
      "d": 588.9163666666718,
      "v": 96
    },
    {
      "midi": 60,
      "hit": false,
      "t": 66108.2757500001,
      "d": 347.55719999999565,
      "v": 96
    },
    {
      "midi": 57,
      "hit": false,
      "t": 66108.2757500001,
      "d": 354.79797499999404,
      "v": 96
    },
    {
      "midi": 45,
      "hit": false,
      "t": 66383.42520000001,
      "d": 603.397916666654,
      "v": 96
    },
    {
      "midi": 57,
      "hit": false,
      "t": 66652.54067083343,
      "d": 300.4921624999988,
      "v": 96
    },
    {
      "midi": 60,
      "hit": false,
      "t": 66677.88338333344,
      "d": 261.87469583333586,
      "v": 96
    },
    {
      "midi": 43,
      "hit": false,
      "t": 66966.3075875,
      "d": 556.3328791666572,
      "v": 96
    },
    {
      "midi": 55,
      "hit": false,
      "t": 67093.0211500001,
      "d": 246.18635000000359,
      "v": 96
    },
    {
      "midi": 59,
      "hit": false,
      "t": 67101.46872083344,
      "d": 253.42712500000198,
      "v": 96
    },
    {
      "midi": 53,
      "hit": false,
      "t": 67529.88124166678,
      "d": 2122.7538708333595,
      "v": 96
    },
    {
      "midi": 57,
      "hit": false,
      "t": 67538.32881250011,
      "d": 2122.7538708333595,
      "v": 72
    },
    {
      "midi": 72,
      "hit": false,
      "t": 67546.77638333345,
      "d": 85.68250416667433,
      "v": 72
    },
    {
      "midi": 76,
      "hit": false,
      "t": 67556.43075000012,
      "d": 76.02813750000496,
      "v": 72
    },
    {
      "midi": 41,
      "hit": false,
      "t": 67563.671525,
      "d": 340.31642499999725,
      "v": 96
    },
    {
      "midi": 76,
      "hit": false,
      "t": 67683.14431250012,
      "d": 91.71648333333724,
      "v": 72
    },
    {
      "midi": 72,
      "hit": false,
      "t": 67683.14431250012,
      "d": 102.5776458333421,
      "v": 72
    },
    {
      "midi": 72,
      "hit": false,
      "t": 67841.2345666668,
      "d": 84.47570833333884,
      "v": 72
    },
    {
      "midi": 76,
      "hit": false,
      "t": 67841.2345666668,
      "d": 85.68250416667433,
      "v": 72
    },
    {
      "midi": 72,
      "hit": false,
      "t": 68001.73841250014,
      "d": 59.13299583333719,
      "v": 72
    },
    {
      "midi": 74,
      "hit": false,
      "t": 68001.73841250014,
      "d": 432.0329083333345,
      "v": 72
    },
    {
      "midi": 71,
      "hit": false,
      "t": 68019.84035000014,
      "d": 415.1377666666667,
      "v": 72
    },
    {
      "midi": 41,
      "hit": false,
      "t": 68115.17722083333,
      "d": 445.3076624999958,
      "v": 96
    },
    {
      "midi": 72,
      "hit": false,
      "t": 68416.87617916681,
      "d": 159.2970500000083,
      "v": 72
    },
    {
      "midi": 69,
      "hit": false,
      "t": 68434.97811666681,
      "d": 133.95433750000666,
      "v": 72
    },
    {
      "midi": 41,
      "hit": false,
      "t": 68695.64601666665,
      "d": 567.1940416666621,
      "v": 96
    },
    {
      "midi": 72,
      "hit": false,
      "t": 68705.30038333348,
      "d": 89.30289166666626,
      "v": 72
    },
    {
      "midi": 76,
      "hit": false,
      "t": 68722.19552500015,
      "d": 63.9601791666646,
      "v": 72
    },
    {
      "midi": 72,
      "hit": false,
      "t": 68846.49549583349,
      "d": 95.33687083332916,
      "v": 72
    },
    {
      "midi": 76,
      "hit": false,
      "t": 68851.32267916681,
      "d": 90.50968750000175,
      "v": 72
    },
    {
      "midi": 72,
      "hit": false,
      "t": 69006.99934166681,
      "d": 98.95725833332108,
      "v": 72
    },
    {
      "midi": 76,
      "hit": false,
      "t": 69011.82652500014,
      "d": 79.64852499999688,
      "v": 72
    },
    {
      "midi": 74,
      "hit": false,
      "t": 69160.26241250013,
      "d": 430.82611250001355,
      "v": 72
    },
    {
      "midi": 71,
      "hit": false,
      "t": 69168.70998333347,
      "d": 388.58825833334413,
      "v": 72
    },
    {
      "midi": 72,
      "hit": false,
      "t": 69188.0187166668,
      "d": 32.58348750000005,
      "v": 72
    },
    {
      "midi": 43,
      "hit": false,
      "t": 69276.11481249997,
      "d": 389.7950541666796,
      "v": 96
    },
    {
      "midi": 45,
      "hit": false,
      "t": 69588.67493333331,
      "d": 188.2601500000019,
      "v": 96
    },
    {
      "midi": 69,
      "hit": false,
      "t": 69595.91570833347,
      "d": 167.7446208333422,
      "v": 72
    },
    {
      "midi": 72,
      "hit": false,
      "t": 69597.12250416681,
      "d": 131.54074583333568,
      "v": 72
    },
    {
      "midi": 47,
      "hit": false,
      "t": 69723.83606666666,
      "d": 143.60870416666148,
      "v": 96
    },
    {
      "midi": 48,
      "hit": false,
      "t": 69851.75642499999,
      "d": 555.1260833333363,
      "v": 96
    },
    {
      "midi": 60,
      "hit": false,
      "t": 69896.40787083349,
      "d": 324.628079166665,
      "v": 96
    },
    {
      "midi": 64,
      "hit": false,
      "t": 69914.50980833349,
      "d": 306.5261416666617,
      "v": 96
    },
    {
      "midi": 59,
      "hit": false,
      "t": 70334.47475833348,
      "d": 258.2543083333294,
      "v": 96
    },
    {
      "midi": 62,
      "hit": false,
      "t": 70334.47475833348,
      "d": 267.90867499999877,
      "v": 96
    },
    {
      "midi": 47,
      "hit": false,
      "t": 70394.81454999998,
      "d": 617.87946666668,
      "v": 96
    },
    {
      "midi": 60,
      "hit": false,
      "t": 70752.02611666682,
      "d": 266.7018791666633,
      "v": 96
    },
    {
      "midi": 57,
      "hit": false,
      "t": 70766.50766666682,
      "d": 246.18635000000359,
      "v": 96
    },
    {
      "midi": 45,
      "hit": false,
      "t": 71001.83285416666,
      "d": 549.0921041666734,
      "v": 96
    },
    {
      "midi": 60,
      "hit": false,
      "t": 71298.70462916682,
      "d": 310.1465291666682,
      "v": 96
    },
    {
      "midi": 57,
      "hit": false,
      "t": 71307.15220000016,
      "d": 265.4950833333278,
      "v": 96
    },
    {
      "midi": 43,
      "hit": false,
      "t": 71549.7181625,
      "d": 580.4687958333379,
      "v": 96
    },
    {
      "midi": 55,
      "hit": false,
      "t": 71727.11715000015,
      "d": 199.12131250000675,
      "v": 96
    },
    {
      "midi": 59,
      "hit": false,
      "t": 71728.32394583349,
      "d": 202.74169999999867,
      "v": 96
    },
    {
      "midi": 55,
      "hit": false,
      "t": 72145.87530416682,
      "d": 104.99123750001309,
      "v": 72
    },
    {
      "midi": 41,
      "hit": false,
      "t": 72148.28889583334,
      "d": 321.00769166667305,
      "v": 96
    },
    {
      "midi": 64,
      "hit": false,
      "t": 72156.73646666683,
      "d": 60.33979166667268,
      "v": 72
    },
    {
      "midi": 72,
      "hit": false,
      "t": 72156.73646666683,
      "d": 94.13007500000822,
      "v": 72
    },
    {
      "midi": 65,
      "hit": false,
      "t": 72156.73646666683,
      "d": 2432.9003999999986,
      "v": 72
    },
    {
      "midi": 76,
      "hit": false,
      "t": 72157.94326250016,
      "d": 92.92327916667273,
      "v": 72
    },
    {
      "midi": 72,
      "hit": false,
      "t": 72302.75876250018,
      "d": 85.68250416665978,
      "v": 72
    },
    {
      "midi": 76,
      "hit": false,
      "t": 72302.75876250018,
      "d": 86.88929999999527,
      "v": 72
    },
    {
      "midi": 76,
      "hit": false,
      "t": 72437.9198958335,
      "d": 100.16405416667112,
      "v": 72
    },
    {
      "midi": 72,
      "hit": false,
      "t": 72446.36746666684,
      "d": 108.611625000005,
      "v": 72
    },
    {
      "midi": 74,
      "hit": false,
      "t": 72602.04412916684,
      "d": 359.625158333336,
      "v": 72
    },
    {
      "midi": 71,
      "hit": false,
      "t": 72620.14606666684,
      "d": 421.1717458333296,
      "v": 72
    },
    {
      "midi": 41,
      "hit": false,
      "t": 72754.10040416667,
      "d": 290.83779583332944,
      "v": 96
    },
    {
      "midi": 72,
      "hit": false,
      "t": 73047.35179166684,
      "d": 147.22909166666795,
      "v": 72
    },
    {
      "midi": 69,
      "hit": false,
      "t": 73064.2469333335,
      "d": 139.98831666666956,
      "v": 72
    },
    {
      "midi": 72,
      "hit": false,
      "t": 73338.18958750018,
      "d": 89.30289166666626,
      "v": 72
    },
    {
      "midi": 41,
      "hit": false,
      "t": 73339.39638333334,
      "d": 362.038750000007,
      "v": 96
    },
    {
      "midi": 76,
      "hit": false,
      "t": 73355.08472916685,
      "d": 63.9601791666646,
      "v": 72
    },
    {
      "midi": 76,
      "hit": false,
      "t": 73480.5914958335,
      "d": 129.1271541666647,
      "v": 72
    },
    {
      "midi": 72,
      "hit": false,
      "t": 73489.03906666684,
      "d": 96.54366666666465,
      "v": 72
    },
    {
      "midi": 72,
      "hit": false,
      "t": 73655.57689166683,
      "d": 316.1805083333311,
      "v": 72
    },
    {
      "midi": 74,
      "hit": false,
      "t": 73672.4720333335,
      "d": 55.51260833333072,
      "v": 72
    },
    {
      "midi": 76,
      "hit": false,
      "t": 73673.67882916683,
      "d": 165.33102916665666,
      "v": 72
    },
    {
      "midi": 74,
      "hit": false,
      "t": 73846.25063333349,
      "d": 428.41252083334257,
      "v": 72
    },
    {
      "midi": 71,
      "hit": false,
      "t": 73915.0379958335,
      "d": 301.6989583333343,
      "v": 72
    },
    {
      "midi": 41,
      "hit": false,
      "t": 73942.79430000001,
      "d": 329.45526250000694,
      "v": 96
    },
    {
      "midi": 72,
      "hit": false,
      "t": 74216.73695416683,
      "d": 267.90867499999877,
      "v": 72
    },
    {
      "midi": 69,
      "hit": false,
      "t": 74233.6320958335,
      "d": 270.32226666666975,
      "v": 72
    },
    {
      "midi": 41,
      "hit": false,
      "t": 74495.50679166669,
      "d": 308.9397333333327,
      "v": 96
    },
    {
      "midi": 57,
      "hit": false,
      "t": 74525.67668750016,
      "d": 184.6397624999954,
      "v": 96
    },
    {
      "midi": 60,
      "hit": false,
      "t": 74534.1242583335,
      "d": 189.46694583332282,
      "v": 96
    },
    {
      "midi": 64,
      "hit": false,
      "t": 74534.1242583335,
      "d": 190.67374166665832,
      "v": 72
    },
    {
      "midi": 60,
      "hit": false,
      "t": 74972.1911458335,
      "d": 148.43588750000345,
      "v": 96
    },
    {
      "midi": 57,
      "hit": false,
      "t": 74980.63871666683,
      "d": 132.74754166667117,
      "v": 96
    },
    {
      "midi": 64,
      "hit": false,
      "t": 74980.63871666683,
      "d": 139.98831666666956,
      "v": 96
    },
    {
      "midi": 36,
      "hit": false,
      "t": 75067.52801666669,
      "d": 632.3610166666622,
      "v": 96
    },
    {
      "midi": 64,
      "hit": false,
      "t": 75390.94930000017,
      "d": 166.5378250000067,
      "v": 96
    },
    {
      "midi": 57,
      "hit": false,
      "t": 75400.60366666684,
      "d": 138.78152083333407,
      "v": 96
    },
    {
      "midi": 60,
      "hit": false,
      "t": 75400.60366666684,
      "d": 164.12423333333572,
      "v": 96
    },
    {
      "midi": 41,
      "hit": false,
      "t": 75661.27156666669,
      "d": 597.3639374999912,
      "v": 96
    },
    {
      "midi": 60,
      "hit": false,
      "t": 76095.71806666684,
      "d": 156.88345833333733,
      "v": 96
    },
    {
      "midi": 57,
      "hit": false,
      "t": 76104.16563750018,
      "d": 117.05919583333889,
      "v": 96
    },
    {
      "midi": 64,
      "hit": false,
      "t": 76105.37243333351,
      "d": 139.98831666666956,
      "v": 96
    },
    {
      "midi": 36,
      "hit": false,
      "t": 76228.46560833335,
      "d": 551.5056958333298,
      "v": 96
    },
    {
      "midi": 64,
      "hit": false,
      "t": 76537.40534166685,
      "d": 213.60286250000354,
      "v": 96
    },
    {
      "midi": 57,
      "hit": false,
      "t": 76547.05970833352,
      "d": 155.67666250000184,
      "v": 96
    },
    {
      "midi": 60,
      "hit": false,
      "t": 76555.50727916685,
      "d": 177.39898749999702,
      "v": 96
    },
    {
      "midi": 43,
      "hit": false,
      "t": 76840.31109583336,
      "d": 576.8484083333315,
      "v": 96
    },
    {
      "midi": 58,
      "hit": false,
      "t": 76848.75866666685,
      "d": 207.56888333332608,
      "v": 96
    },
    {
      "midi": 65,
      "hit": false,
      "t": 76848.75866666685,
      "d": 212.3960666666535,
      "v": 96
    },
    {
      "midi": 62,
      "hit": false,
      "t": 76848.75866666685,
      "d": 226.87761666665028,
      "v": 96
    },
    {
      "midi": 58,
      "hit": false,
      "t": 77271.1372083335,
      "d": 166.5378250000067,
      "v": 96
    },
    {
      "midi": 62,
      "hit": false,
      "t": 77278.3779833335,
      "d": 174.9853958333406,
      "v": 96
    },
    {
      "midi": 65,
      "hit": false,
      "t": 77279.58477916683,
      "d": 173.7786000000051,
      "v": 96
    },
    {
      "midi": 38,
      "hit": false,
      "t": 77409.91872916669,
      "d": 579.2620000000024,
      "v": 96
    },
    {
      "midi": 58,
      "hit": false,
      "t": 77707.99730000018,
      "d": 187.0533541666664,
      "v": 96
    },
    {
      "midi": 62,
      "hit": false,
      "t": 77709.20409583351,
      "d": 203.94849583333416,
      "v": 96
    },
    {
      "midi": 65,
      "hit": false,
      "t": 77718.85846250018,
      "d": 183.43296666665992,
      "v": 96
    },
    {
      "midi": 43,
      "hit": false,
      "t": 77973.49238333336,
      "d": 598.5707333333412,
      "v": 96
    },
    {
      "midi": 58,
      "hit": false,
      "t": 78301.74085000018,
      "d": 161.7106416666793,
      "v": 96
    },
    {
      "midi": 62,
      "hit": false,
      "t": 78301.74085000018,
      "d": 187.05335416668095,
      "v": 96
    },
    {
      "midi": 65,
      "hit": false,
      "t": 78313.80880833352,
      "d": 174.9853958333406,
      "v": 96
    },
    {
      "midi": 38,
      "hit": false,
      "t": 78562.40875000003,
      "d": 562.3668583333347,
      "v": 96
    },
    {
      "midi": 62,
      "hit": false,
      "t": 78756.70287916686,
      "d": 184.6397624999954,
      "v": 96
    },
    {
      "midi": 58,
      "hit": false,
      "t": 78765.15045000019,
      "d": 144.81549999999697,
      "v": 96
    },
    {
      "midi": 65,
      "hit": false,
      "t": 78765.15045000019,
      "d": 183.43296666665992,
      "v": 96
    },
    {
      "midi": 43,
      "hit": false,
      "t": 79103.05328333337,
      "d": 617.8794666666654,
      "v": 96
    },
    {
      "midi": 58,
      "hit": false,
      "t": 79170.63385000019,
      "d": 161.7106416666793,
      "v": 96
    },
    {
      "midi": 62,
      "hit": false,
      "t": 79171.84064583352,
      "d": 178.60578333334706,
      "v": 96
    },
    {
      "midi": 65,
      "hit": false,
      "t": 79182.70180833353,
      "d": 174.9853958333406,
      "v": 96
    },
    {
      "midi": 62,
      "hit": false,
      "t": 79596.63277916687,
      "d": 160.5038458333438,
      "v": 96
    },
    {
      "midi": 58,
      "hit": false,
      "t": 79605.08035000021,
      "d": 152.05627500000992,
      "v": 96
    },
    {
      "midi": 65,
      "hit": false,
      "t": 79614.73471666688,
      "d": 149.64268333333894,
      "v": 96
    },
    {
      "midi": 38,
      "hit": false,
      "t": 79677.48810000003,
      "d": 642.0153833333316,
      "v": 96
    },
    {
      "midi": 58,
      "hit": false,
      "t": 79993.66860833355,
      "d": 173.7786000000051,
      "v": 96
    },
    {
      "midi": 62,
      "hit": false,
      "t": 80002.11617916689,
      "d": 196.70772083333577,
      "v": 96
    },
    {
      "midi": 65,
      "hit": false,
      "t": 80011.77054583355,
      "d": 171.36500833333412,
      "v": 96
    },
    {
      "midi": 43,
      "hit": false,
      "t": 80305.02193333337,
      "d": 591.3299583333282,
      "v": 96
    },
    {
      "midi": 58,
      "hit": false,
      "t": 80609.13448333356,
      "d": 153.2630708333454,
      "v": 96
    },
    {
      "midi": 62,
      "hit": false,
      "t": 80609.13448333356,
      "d": 158.09025416667282,
      "v": 96
    },
    {
      "midi": 65,
      "hit": false,
      "t": 80621.2024416669,
      "d": 153.26307083333086,
      "v": 96
    },
    {
      "midi": 38,
      "hit": false,
      "t": 80874.6295666667,
      "d": 593.7435499999992,
      "v": 96
    },
    {
      "midi": 58,
      "hit": false,
      "t": 81052.0285541669,
      "d": 146.02229583333246,
      "v": 96
    },
    {
      "midi": 62,
      "hit": false,
      "t": 81059.2693291669,
      "d": 152.05627499999537,
      "v": 96
    },
    {
      "midi": 65,
      "hit": false,
      "t": 81059.2693291669,
      "d": 159.29704999999376,
      "v": 96
    },
    {
      "midi": 41,
      "hit": false,
      "t": 81443.0304041667,
      "d": 572.021225000004,
      "v": 96
    },
    {
      "midi": 60,
      "hit": false,
      "t": 81482.8546666669,
      "d": 156.88345833333733,
      "v": 96
    },
    {
      "midi": 57,
      "hit": false,
      "t": 81491.30223750023,
      "d": 137.57472499999858,
      "v": 96
    },
    {
      "midi": 64,
      "hit": false,
      "t": 81491.30223750023,
      "d": 172.5718041666696,
      "v": 96
    },
    {
      "midi": 60,
      "hit": false,
      "t": 81891.9584541669,
      "d": 159.2970500000083,
      "v": 96
    },
    {
      "midi": 57,
      "hit": false,
      "t": 81900.40602500024,
      "d": 131.54074583333568,
      "v": 96
    },
    {
      "midi": 64,
      "hit": false,
      "t": 81900.40602500024,
      "d": 165.33102916667121,
      "v": 96
    },
    {
      "midi": 36,
      "hit": false,
      "t": 82024.70599583337,
      "d": 599.7775291666621,
      "v": 96
    },
    {
      "midi": 60,
      "hit": false,
      "t": 82317.95738333357,
      "d": 189.46694583333738,
      "v": 96
    },
    {
      "midi": 64,
      "hit": false,
      "t": 82319.16417916691,
      "d": 173.7786000000051,
      "v": 96
    },
    {
      "midi": 57,
      "hit": false,
      "t": 82330.02534166691,
      "d": 170.15821249999863,
      "v": 96
    },
    {
      "midi": 41,
      "hit": false,
      "t": 82625.69032083337,
      "d": 540.6445333333395,
      "v": 96
    },
    {
      "midi": 57,
      "hit": false,
      "t": 82943.07762500024,
      "d": 155.67666250000184,
      "v": 96
    },
    {
      "midi": 60,
      "hit": false,
      "t": 82944.28442083357,
      "d": 159.29704999999376,
      "v": 96
    },
    {
      "midi": 64,
      "hit": false,
      "t": 82955.14558333358,
      "d": 149.64268333332438,
      "v": 96
    },
    {
      "midi": 36,
      "hit": false,
      "t": 83179.60960833337,
      "d": 605.8115083333396,
      "v": 96
    },
    {
      "midi": 60,
      "hit": false,
      "t": 83395.62606250023,
      "d": 164.12423333333572,
      "v": 96
    },
    {
      "midi": 57,
      "hit": false,
      "t": 83404.07363333357,
      "d": 130.3339500000002,
      "v": 96
    },
    {
      "midi": 64,
      "hit": false,
      "t": 83405.2804291669,
      "d": 162.91743750000023,
      "v": 96
    },
    {
      "midi": 41,
      "hit": false,
      "t": 83760.0784041667,
      "d": 570.8144291666686,
      "v": 96
    },
    {
      "midi": 60,
      "hit": false,
      "t": 83824.03858333357,
      "d": 194.2941291666648,
      "v": 96
    },
    {
      "midi": 64,
      "hit": false,
      "t": 83824.03858333357,
      "d": 209.98247499999707,
      "v": 96
    },
    {
      "midi": 57,
      "hit": false,
      "t": 83834.89974583358,
      "d": 191.8805374999938,
      "v": 96
    },
    {
      "midi": 60,
      "hit": false,
      "t": 84248.83071666691,
      "d": 143.60870416667603,
      "v": 96
    },
    {
      "midi": 64,
      "hit": false,
      "t": 84250.03751250025,
      "d": 155.67666250000184,
      "v": 96
    },
    {
      "midi": 57,
      "hit": false,
      "t": 84260.89867500025,
      "d": 123.09317500000179,
      "v": 96
    },
    {
      "midi": 36,
      "hit": false,
      "t": 84307.96371250004,
      "d": 619.0862625000009,
      "v": 96
    },
    {
      "midi": 60,
      "hit": false,
      "t": 84655.52091250024,
      "d": 156.88345833333733,
      "v": 96
    },
    {
      "midi": 64,
      "hit": false,
      "t": 84656.72770833358,
      "d": 162.91743750000023,
      "v": 96
    },
    {
      "midi": 57,
      "hit": false,
      "t": 84667.58887083358,
      "d": 129.1271541666647,
      "v": 96
    },
    {
      "midi": 41,
      "hit": false,
      "t": 84914.9820166667,
      "d": 604.6047125000186,
      "v": 96
    },
    {
      "midi": 60,
      "hit": false,
      "t": 85233.57611666691,
      "d": 156.88345833333733,
      "v": 96
    },
    {
      "midi": 64,
      "hit": false,
      "t": 85233.57611666691,
      "d": 156.88345833333733,
      "v": 96
    },
    {
      "midi": 57,
      "hit": false,
      "t": 85244.43727916692,
      "d": 119.47278749999532,
      "v": 96
    },
    {
      "midi": 36,
      "hit": false,
      "t": 85491.83042500005,
      "d": 586.5027750000008,
      "v": 96
    },
    {
      "midi": 57,
      "hit": false,
      "t": 85695.77892083357,
      "d": 113.43880833333242,
      "v": 96
    },
    {
      "midi": 60,
      "hit": false,
      "t": 85699.39930833358,
      "d": 118.26599166665983,
      "v": 96
    },
    {
      "midi": 64,
      "hit": false,
      "t": 85706.64008333358,
      "d": 132.74754166665662,
      "v": 96
    },
    {
      "midi": 43,
      "hit": false,
      "t": 86083.16038333338,
      "d": 550.2988999999943,
      "v": 96
    },
    {
      "midi": 62,
      "hit": false,
      "t": 86126.60503333357,
      "d": 149.64268333333894,
      "v": 96
    },
    {
      "midi": 58,
      "hit": false,
      "t": 86126.60503333357,
      "d": 164.12423333333572,
      "v": 96
    },
    {
      "midi": 65,
      "hit": false,
      "t": 86136.25940000024,
      "d": 139.98831666666956,
      "v": 96
    },
    {
      "midi": 58,
      "hit": false,
      "t": 86534.50202500024,
      "d": 165.33102916667121,
      "v": 96
    },
    {
      "midi": 62,
      "hit": false,
      "t": 86535.70882083358,
      "d": 165.33102916667121,
      "v": 96
    },
    {
      "midi": 65,
      "hit": false,
      "t": 86546.56998333358,
      "d": 146.02229583333246,
      "v": 96
    },
    {
      "midi": 38,
      "hit": false,
      "t": 86638.2864666667,
      "d": 622.7066500000074,
      "v": 96
    },
    {
      "midi": 58,
      "hit": false,
      "t": 86961.70775000025,
      "d": 167.74462083332764,
      "v": 96
    },
    {
      "midi": 65,
      "hit": false,
      "t": 86974.98250416691,
      "d": 146.02229583333246,
      "v": 96
    },
    {
      "midi": 62,
      "hit": false,
      "t": 86974.98250416691,
      "d": 172.5718041666696,
      "v": 96
    },
    {
      "midi": 43,
      "hit": false,
      "t": 87250.1319541667,
      "d": 585.2959791666799,
      "v": 96
    },
    {
      "midi": 58,
      "hit": false,
      "t": 87549.41732083359,
      "d": 165.33102916665666,
      "v": 96
    },
    {
      "midi": 62,
      "hit": false,
      "t": 87549.41732083359,
      "d": 165.33102916665666,
      "v": 96
    },
    {
      "midi": 65,
      "hit": false,
      "t": 87562.69207500025,
      "d": 153.26307083333086,
      "v": 96
    },
    {
      "midi": 38,
      "hit": false,
      "t": 87808.87842500005,
      "d": 615.465875000009,
      "v": 96
    },
    {
      "midi": 58,
      "hit": false,
      "t": 87986.27741250025,
      "d": 156.88345833333733,
      "v": 96
    },
    {
      "midi": 62,
      "hit": false,
      "t": 87994.72498333358,
      "d": 155.67666250000184,
      "v": 96
    },
    {
      "midi": 65,
      "hit": false,
      "t": 87995.93177916692,
      "d": 148.43588750000345,
      "v": 96
    },
    {
      "midi": 43,
      "hit": false,
      "t": 88384.52003750006,
      "d": 609.4318958333315,
      "v": 96
    },
    {
      "midi": 58,
      "hit": false,
      "t": 88408.65595416691,
      "d": 150.84947916667443,
      "v": 96
    },
    {
      "midi": 62,
      "hit": false,
      "t": 88408.65595416691,
      "d": 162.91743750001478,
      "v": 96
    },
    {
      "midi": 65,
      "hit": false,
      "t": 88418.31032083358,
      "d": 154.4698666666809,
      "v": 96
    },
    {
      "midi": 58,
      "hit": false,
      "t": 88837.06847500027,
      "d": 137.57472499999858,
      "v": 96
    },
    {
      "midi": 62,
      "hit": false,
      "t": 88838.2752708336,
      "d": 154.46986666666635,
      "v": 96
    },
    {
      "midi": 65,
      "hit": false,
      "t": 88839.48206666694,
      "d": 135.1611333333276,
      "v": 96
    },
    {
      "midi": 38,
      "hit": false,
      "t": 88967.40242500005,
      "d": 587.7095708333363,
      "v": 96
    },
    {
      "midi": 58,
      "hit": false,
      "t": 89275.13536250027,
      "d": 172.5718041666696,
      "v": 96
    },
    {
      "midi": 62,
      "hit": false,
      "t": 89275.13536250027,
      "d": 182.22617083333898,
      "v": 96
    },
    {
      "midi": 65,
      "hit": false,
      "t": 89287.2033208336,
      "d": 161.71064166666474,
      "v": 96
    },
    {
      "midi": 43,
      "hit": false,
      "t": 89544.25083333338,
      "d": 603.3979166666686,
      "v": 96
    },
    {
      "midi": 58,
      "hit": false,
      "t": 89858.01775000028,
      "d": 166.5378250000067,
      "v": 96
    },
    {
      "midi": 62,
      "hit": false,
      "t": 89858.01775000028,
      "d": 182.22617083333898,
      "v": 96
    },
    {
      "midi": 65,
      "hit": false,
      "t": 89868.87891250028,
      "d": 162.91743750000023,
      "v": 96
    },
    {
      "midi": 38,
      "hit": false,
      "t": 90130.75360833338,
      "d": 620.2930583333364,
      "v": 96
    },
    {
      "midi": 58,
      "hit": false,
      "t": 90302.11861666695,
      "d": 148.43588750000345,
      "v": 96
    },
    {
      "midi": 65,
      "hit": false,
      "t": 90311.77298333362,
      "d": 143.60870416666148,
      "v": 96
    },
    {
      "midi": 62,
      "hit": false,
      "t": 90311.77298333362,
      "d": 167.74462083332764,
      "v": 96
    },
    {
      "midi": 57,
      "hit": false,
      "t": 90729.32434166694,
      "d": 214.80965833332448,
      "v": 96
    },
    {
      "midi": 60,
      "hit": false,
      "t": 90730.53113750028,
      "d": 181.01937499998894,
      "v": 96
    },
    {
      "midi": 41,
      "hit": false,
      "t": 90732.94472916672,
      "d": 568.4008374999976,
      "v": 96
    },
    {
      "midi": 64,
      "hit": false,
      "t": 90743.80589166694,
      "d": 182.22617083332443,
      "v": 96
    },
    {
      "midi": 64,
      "hit": false,
      "t": 91144.4621083336,
      "d": 188.2601500000019,
      "v": 96
    },
    {
      "midi": 57,
      "hit": false,
      "t": 91152.90967916693,
      "d": 162.91743750000023,
      "v": 96
    },
    {
      "midi": 60,
      "hit": false,
      "t": 91154.11647500026,
      "d": 178.6057833333325,
      "v": 96
    },
    {
      "midi": 36,
      "hit": false,
      "t": 91271.17567083339,
      "d": 609.4318958333315,
      "v": 96
    },
    {
      "midi": 60,
      "hit": false,
      "t": 91586.1493833336,
      "d": 188.2601500000019,
      "v": 96
    },
    {
      "midi": 57,
      "hit": false,
      "t": 91598.21734166694,
      "d": 171.36500833333412,
      "v": 96
    },
    {
      "midi": 64,
      "hit": false,
      "t": 91598.21734166694,
      "d": 190.67374166665832,
      "v": 96
    },
    {
      "midi": 41,
      "hit": false,
      "t": 91864.91922083338,
      "d": 591.3299583333282,
      "v": 96
    },
    {
      "midi": 57,
      "hit": false,
      "t": 92187.1337083336,
      "d": 156.88345833333733,
      "v": 96
    },
    {
      "midi": 60,
      "hit": false,
      "t": 92195.58127916693,
      "d": 167.7446208333422,
      "v": 96
    },
    {
      "midi": 64,
      "hit": false,
      "t": 92196.78807500027,
      "d": 166.5378250000067,
      "v": 96
    },
    {
      "midi": 36,
      "hit": false,
      "t": 92442.97442500005,
      "d": 593.7435499999847,
      "v": 96
    },
    {
      "midi": 64,
      "hit": false,
      "t": 92638.47535000027,
      "d": 155.67666250000184,
      "v": 96
    },
    {
      "midi": 57,
      "hit": false,
      "t": 92645.71612500027,
      "d": 123.09317500000179,
      "v": 96
    },
    {
      "midi": 60,
      "hit": false,
      "t": 92646.9229208336,
      "d": 147.22909166666795,
      "v": 96
    },
    {
      "midi": 41,
      "hit": false,
      "t": 93031.89079166671,
      "d": 596.1571416666557,
      "v": 96
    },
    {
      "midi": 57,
      "hit": false,
      "t": 93062.06068750027,
      "d": 184.6397624999954,
      "v": 96
    },
    {
      "midi": 60,
      "hit": false,
      "t": 93070.5082583336,
      "d": 189.46694583332282,
      "v": 96
    },
    {
      "midi": 64,
      "hit": false,
      "t": 93070.5082583336,
      "d": 190.67374166665832,
      "v": 96
    },
    {
      "midi": 60,
      "hit": false,
      "t": 93508.5751458336,
      "d": 148.43588750000345,
      "v": 96
    },
    {
      "midi": 57,
      "hit": false,
      "t": 93517.02271666694,
      "d": 132.74754166667117,
      "v": 96
    },
    {
      "midi": 64,
      "hit": false,
      "t": 93517.02271666694,
      "d": 139.98831666666956,
      "v": 96
    },
    {
      "midi": 36,
      "hit": false,
      "t": 93603.9120166667,
      "d": 632.3610166666622,
      "v": 96
    },
    {
      "midi": 64,
      "hit": false,
      "t": 93927.33330000027,
      "d": 166.5378250000067,
      "v": 96
    },
    {
      "midi": 57,
      "hit": false,
      "t": 93936.98766666694,
      "d": 138.78152083333407,
      "v": 96
    },
    {
      "midi": 60,
      "hit": false,
      "t": 93936.98766666694,
      "d": 164.12423333333572,
      "v": 96
    },
    {
      "midi": 41,
      "hit": false,
      "t": 94197.6555666667,
      "d": 597.3639374999912,
      "v": 96
    },
    {
      "midi": 60,
      "hit": false,
      "t": 94632.10206666695,
      "d": 156.88345833333733,
      "v": 96
    },
    {
      "midi": 57,
      "hit": false,
      "t": 94640.54963750028,
      "d": 117.05919583333889,
      "v": 96
    },
    {
      "midi": 64,
      "hit": false,
      "t": 94641.75643333362,
      "d": 139.98831666666956,
      "v": 96
    },
    {
      "midi": 36,
      "hit": false,
      "t": 94764.84960833336,
      "d": 551.5056958333298,
      "v": 96
    },
    {
      "midi": 64,
      "hit": false,
      "t": 95073.78934166695,
      "d": 213.60286250000354,
      "v": 96
    },
    {
      "midi": 57,
      "hit": false,
      "t": 95083.44370833362,
      "d": 155.67666250000184,
      "v": 96
    },
    {
      "midi": 60,
      "hit": false,
      "t": 95091.89127916696,
      "d": 177.39898749999702,
      "v": 96
    },
    {
      "midi": 65,
      "hit": false,
      "t": 95376.69509583362,
      "d": 293.2513875000004,
      "v": 96
    },
    {
      "midi": 58,
      "hit": false,
      "t": 95376.69509583362,
      "d": 298.07857083332783,
      "v": 96
    },
    {
      "midi": 62,
      "hit": false,
      "t": 95376.69509583362,
      "d": 307.7329374999972,
      "v": 96
    },
    {
      "midi": 46,
      "hit": false,
      "t": 95399.62421666669,
      "d": 271.52906250000524,
      "v": 96
    },
    {
      "midi": 67,
      "hit": false,
      "t": 95814.76198333362,
      "d": 300.4921624999988,
      "v": 96
    },
    {
      "midi": 58,
      "hit": false,
      "t": 95820.79596250028,
      "d": 311.3533250000037,
      "v": 96
    },
    {
      "midi": 62,
      "hit": false,
      "t": 95822.00275833362,
      "d": 300.4921624999988,
      "v": 96
    },
    {
      "midi": 46,
      "hit": false,
      "t": 95945.09593333336,
      "d": 337.90283333332627,
      "v": 96
    },
    {
      "midi": 65,
      "hit": false,
      "t": 96234.72693333362,
      "d": 406.69019583333284,
      "v": 96
    },
    {
      "midi": 58,
      "hit": false,
      "t": 96243.17450416695,
      "d": 445.30766250001034,
      "v": 96
    },
    {
      "midi": 62,
      "hit": false,
      "t": 96258.86285000028,
      "d": 417.5513583333377,
      "v": 96
    },
    {
      "midi": 46,
      "hit": false,
      "t": 96527.97832083335,
      "d": 294.4581833333359,
      "v": 96
    },
    {
      "midi": 67,
      "hit": false,
      "t": 96804.33456666696,
      "d": 271.52906250000524,
      "v": 96
    },
    {
      "midi": 58,
      "hit": false,
      "t": 96813.98893333363,
      "d": 289.63099999999395,
      "v": 96
    },
    {
      "midi": 62,
      "hit": false,
      "t": 96815.19572916697,
      "d": 267.90867499999877,
      "v": 96
    },
    {
      "midi": 46,
      "hit": false,
      "t": 97113.27430000002,
      "d": 329.45526250000694,
      "v": 96
    },
    {
      "midi": 65,
      "hit": false,
      "t": 97264.12377916696,
      "d": 244.9795541666681,
      "v": 96
    },
    {
      "midi": 58,
      "hit": false,
      "t": 97273.77814583362,
      "d": 260.6679000000004,
      "v": 96
    },
    {
      "midi": 62,
      "hit": false,
      "t": 97274.98494166696,
      "d": 248.59994166666002,
      "v": 96
    },
    {
      "midi": 67,
      "hit": false,
      "t": 97678.05475000029,
      "d": 273.9426541666762,
      "v": 96
    },
    {
      "midi": 58,
      "hit": false,
      "t": 97687.70911666696,
      "d": 286.010612500002,
      "v": 96
    },
    {
      "midi": 62,
      "hit": false,
      "t": 97697.36348333363,
      "d": 254.63392083333747,
      "v": 96
    },
    {
      "midi": 46,
      "hit": false,
      "t": 97702.19066666669,
      "d": 305.3193458333262,
      "v": 96
    },
    {
      "midi": 67,
      "hit": false,
      "t": 98111.29445416696,
      "d": 235.32518750001327,
      "v": 96
    },
    {
      "midi": 58,
      "hit": false,
      "t": 98120.94882083363,
      "d": 251.01353333334555,
      "v": 96
    },
    {
      "midi": 62,
      "hit": false,
      "t": 98131.80998333363,
      "d": 241.35916666667617,
      "v": 96
    },
    {
      "midi": 46,
      "hit": false,
      "t": 98262.14393333335,
      "d": 296.8717750000069,
      "v": 96
    },
    {
      "midi": 58,
      "hit": false,
      "t": 98524.01862916697,
      "d": 415.1377666666813,
      "v": 96
    },
    {
      "midi": 62,
      "hit": false,
      "t": 98524.01862916697,
      "d": 415.1377666666813,
      "v": 96
    },
    {
      "midi": 65,
      "hit": false,
      "t": 98536.08658750031,
      "d": 345.1436083333392,
      "v": 96
    },
    {
      "midi": 46,
      "hit": false,
      "t": 98813.6496291667,
      "d": 312.56012083333917,
      "v": 96
    },
    {
      "midi": 67,
      "hit": false,
      "t": 99102.07383333365,
      "d": 251.013533333331,
      "v": 96
    },
    {
      "midi": 58,
      "hit": false,
      "t": 99102.07383333365,
      "d": 301.6989583333343,
      "v": 96
    },
    {
      "midi": 62,
      "hit": false,
      "t": 99112.93499583365,
      "d": 272.7358583333262,
      "v": 96
    },
    {
      "midi": 46,
      "hit": false,
      "t": 99397.73881250004,
      "d": 293.2513875000004,
      "v": 96
    },
    {
      "midi": 58,
      "hit": false,
      "t": 99543.76110833365,
      "d": 253.42712500000198,
      "v": 96
    },
    {
      "midi": 65,
      "hit": false,
      "t": 99560.65625000032,
      "d": 220.84363750000193,
      "v": 96
    },
    {
      "midi": 62,
      "hit": false,
      "t": 99560.65625000032,
      "d": 228.08441250000033,
      "v": 96
    },
    {
      "midi": 67,
      "hit": false,
      "t": 99970.96683333366,
      "d": 305.3193458333262,
      "v": 96
    },
    {
      "midi": 43,
      "hit": false,
      "t": 99980.62120000004,
      "d": 314.9737124999956,
      "v": 96
    },
    {
      "midi": 59,
      "hit": false,
      "t": 99980.62120000033,
      "d": 281.18342916666006,
      "v": 96
    },
    {
      "midi": 62,
      "hit": false,
      "t": 99980.62120000033,
      "d": 288.42420416665846,
      "v": 96
    },
    {
      "midi": 62,
      "hit": false,
      "t": 100422.30847500032,
      "d": 282.3902250000101,
      "v": 96
    },
    {
      "midi": 67,
      "hit": false,
      "t": 100423.51527083365,
      "d": 281.1834291666746,
      "v": 96
    },
    {
      "midi": 59,
      "hit": false,
      "t": 100434.37643333366,
      "d": 255.84071666667296,
      "v": 96
    },
    {
      "midi": 43,
      "hit": false,
      "t": 100550.22883333337,
      "d": 352.3843833333376,
      "v": 96
    },
    {
      "midi": 62,
      "hit": false,
      "t": 100854.34138333367,
      "d": 429.61931666667806,
      "v": 96
    },
    {
      "midi": 60,
      "hit": false,
      "t": 100854.34138333367,
      "d": 439.27368333334744,
      "v": 96
    },
    {
      "midi": 67,
      "hit": false,
      "t": 100866.40934166701,
      "d": 418.7581541666732,
      "v": 96
    },
    {
      "midi": 43,
      "hit": false,
      "t": 101163.28111666671,
      "d": 314.9737124999956,
      "v": 96
    },
    {
      "midi": 67,
      "hit": false,
      "t": 101440.84415833368,
      "d": 393.41544166667154,
      "v": 96
    },
    {
      "midi": 59,
      "hit": false,
      "t": 101449.29172916702,
      "d": 399.44942083333444,
      "v": 96
    },
    {
      "midi": 62,
      "hit": false,
      "t": 101450.49852500035,
      "d": 398.24262499999895,
      "v": 96
    },
    {
      "midi": 43,
      "hit": false,
      "t": 101755.81787083337,
      "d": 307.7329374999972,
      "v": 96
    },
    {
      "midi": 55,
      "hit": false,
      "t": 101892.18580000036,
      "d": 371.6931166666618,
      "v": 96
    },
    {
      "midi": 67,
      "hit": false,
      "t": 102288.01483333368,
      "d": 323.4212833333295,
      "v": 96
    },
    {
      "midi": 59,
      "hit": false,
      "t": 102296.46240416702,
      "d": 308.9397333333327,
      "v": 96
    },
    {
      "midi": 62,
      "hit": false,
      "t": 102296.46240416702,
      "d": 314.9737124999956,
      "v": 96
    },
    {
      "midi": 43,
      "hit": false,
      "t": 102318.1847291667,
      "d": 335.48924166666984,
      "v": 96
    },
    {
      "midi": 62,
      "hit": false,
      "t": 102753.83802500035,
      "d": 294.4581833333359,
      "v": 96
    },
    {
      "midi": 67,
      "hit": false,
      "t": 102755.04482083369,
      "d": 278.76983750000363,
      "v": 96
    },
    {
      "midi": 59,
      "hit": false,
      "t": 102764.69918750036,
      "d": 252.2203291666665,
      "v": 96
    },
    {
      "midi": 43,
      "hit": false,
      "t": 102901.06711666672,
      "d": 294.4581833333359,
      "v": 96
    },
    {
      "midi": 60,
      "hit": false,
      "t": 103183.45734166702,
      "d": 435.65329583334096,
      "v": 96
    },
    {
      "midi": 62,
      "hit": false,
      "t": 103184.66413750035,
      "d": 425.9989291666716,
      "v": 96
    },
    {
      "midi": 67,
      "hit": false,
      "t": 103195.52530000036,
      "d": 407.8969916666683,
      "v": 96
    },
    {
      "midi": 43,
      "hit": false,
      "t": 103473.08834166672,
      "d": 578.055204166667,
      "v": 96
    },
    {
      "midi": 59,
      "hit": false,
      "t": 103742.20381250036,
      "d": 650.4629541666654,
      "v": 96
    },
    {
      "midi": 62,
      "hit": false,
      "t": 103743.4106083337,
      "d": 615.4658749999944,
      "v": 96
    },
    {
      "midi": 67,
      "hit": false,
      "t": 103743.4106083337,
      "d": 626.3270374999993,
      "v": 96
    },
    {
      "midi": 44,
      "hit": false,
      "t": 104020.97365000006,
      "d": 308.9397333333327,
      "v": 96
    },
    {
      "midi": 45,
      "hit": false,
      "t": 104321.46581250006,
      "d": 301.6989583333343,
      "v": 96
    },
    {
      "midi": 46,
      "hit": false,
      "t": 104614.71720000006,
      "d": 345.1436083333392,
      "v": 96
    },
    {
      "midi": 58,
      "hit": false,
      "t": 104621.95797500036,
      "d": 331.86885416666337,
      "v": 96
    },
    {
      "midi": 62,
      "hit": false,
      "t": 104623.1647708337,
      "d": 324.628079166665,
      "v": 96
    },
    {
      "midi": 65,
      "hit": false,
      "t": 104641.2667083337,
      "d": 257.0475124999939,
      "v": 96
    },
    {
      "midi": 62,
      "hit": false,
      "t": 105072.09282083368,
      "d": 271.52906250000524,
      "v": 96
    },
    {
      "midi": 67,
      "hit": false,
      "t": 105080.54039166702,
      "d": 238.9455750000052,
      "v": 96
    },
    {
      "midi": 58,
      "hit": false,
      "t": 105080.54039166702,
      "d": 270.32226666666975,
      "v": 96
    },
    {
      "midi": 46,
      "hit": false,
      "t": 105207.25395416674,
      "d": 348.76399583333114,
      "v": 96
    },
    {
      "midi": 65,
      "hit": false,
      "t": 105502.91893333368,
      "d": 352.3843833333376,
      "v": 96
    },
    {
      "midi": 62,
      "hit": false,
      "t": 105502.91893333368,
      "d": 384.96787083333766,
      "v": 96
    },
    {
      "midi": 58,
      "hit": false,
      "t": 105502.91893333368,
      "d": 394.62223750000703,
      "v": 96
    },
    {
      "midi": 46,
      "hit": false,
      "t": 105794.96352500007,
      "d": 331.86885416666337,
      "v": 96
    },
    {
      "midi": 58,
      "hit": false,
      "t": 106079.76734166703,
      "d": 316.1805083333311,
      "v": 96
    },
    {
      "midi": 62,
      "hit": false,
      "t": 106089.4217083337,
      "d": 292.0445916666649,
      "v": 96
    },
    {
      "midi": 67,
      "hit": false,
      "t": 106093.0420958337,
      "d": 265.4950833333278,
      "v": 96
    },
    {
      "midi": 46,
      "hit": false,
      "t": 106377.84591250007,
      "d": 327.04167083333596,
      "v": 96
    },
    {
      "midi": 58,
      "hit": false,
      "t": 106537.14296250037,
      "d": 290.83779583332944,
      "v": 96
    },
    {
      "midi": 62,
      "hit": false,
      "t": 106545.5905333337,
      "d": 275.14944999999716,
      "v": 96
    },
    {
      "midi": 65,
      "hit": false,
      "t": 106546.79732916704,
      "d": 265.4950833333278,
      "v": 96
    },
    {
      "midi": 46,
      "hit": false,
      "t": 106959.52150416674,
      "d": 314.9737124999956,
      "v": 96
    },
    {
      "midi": 67,
      "hit": false,
      "t": 106964.34868750036,
      "d": 253.42712500000198,
      "v": 96
    },
    {
      "midi": 62,
      "hit": false,
      "t": 106964.34868750036,
      "d": 261.87469583333586,
      "v": 96
    },
    {
      "midi": 58,
      "hit": false,
      "t": 106964.34868750036,
      "d": 276.35624583333265,
      "v": 96
    },
    {
      "midi": 67,
      "hit": false,
      "t": 107385.52043333369,
      "d": 259.4611041666649,
      "v": 96
    },
    {
      "midi": 58,
      "hit": false,
      "t": 107385.52043333369,
      "d": 282.39022499999555,
      "v": 96
    },
    {
      "midi": 62,
      "hit": false,
      "t": 107395.17480000036,
      "d": 264.2882874999923,
      "v": 96
    },
    {
      "midi": 46,
      "hit": false,
      "t": 107529.12913750007,
      "d": 337.90283333332627,
      "v": 96
    },
    {
      "midi": 58,
      "hit": false,
      "t": 107798.24460833368,
      "d": 417.5513583333377,
      "v": 96
    },
    {
      "midi": 62,
      "hit": false,
      "t": 107806.69217916702,
      "d": 383.76107500000217,
      "v": 96
    },
    {
      "midi": 65,
      "hit": false,
      "t": 107807.89897500035,
      "d": 349.9707916666666,
      "v": 96
    },
    {
      "midi": 46,
      "hit": false,
      "t": 108107.18434166673,
      "d": 298.07857083332783,
      "v": 96
    },
    {
      "midi": 67,
      "hit": false,
      "t": 108376.29981250035,
      "d": 278.76983750000363,
      "v": 96
    },
    {
      "midi": 58,
      "hit": false,
      "t": 108376.29981250035,
      "d": 292.0445916666649,
      "v": 96
    },
    {
      "midi": 62,
      "hit": false,
      "t": 108394.40175000035,
      "d": 265.4950833333278,
      "v": 96
    },
    {
      "midi": 46,
      "hit": false,
      "t": 108664.72401666672,
      "d": 358.4183625000005,
      "v": 96
    },
    {
      "midi": 58,
      "hit": false,
      "t": 108838.50261666701,
      "d": 255.8407166666584,
      "v": 96
    },
    {
      "midi": 62,
      "hit": false,
      "t": 108848.15698333368,
      "d": 253.42712499998743,
      "v": 96
    },
    {
      "midi": 65,
      "hit": false,
      "t": 108879.53367500035,
      "d": 207.56888333332608,
      "v": 96
    },
    {
      "midi": 67,
      "hit": false,
      "t": 109258.46756666701,
      "d": 289.63099999999395,
      "v": 96
    },
    {
      "midi": 62,
      "hit": false,
      "t": 109258.46756666701,
      "d": 300.4921624999988,
      "v": 96
    },
    {
      "midi": 59,
      "hit": false,
      "t": 109258.46756666701,
      "d": 308.9397333333327,
      "v": 96
    },
    {
      "midi": 43,
      "hit": false,
      "t": 109259.67436250005,
      "d": 316.1805083333311,
      "v": 96
    },
    {
      "midi": 59,
      "hit": false,
      "t": 109688.08688333367,
      "d": 265.49508333334234,
      "v": 96
    },
    {
      "midi": 67,
      "hit": false,
      "t": 109697.74125000034,
      "d": 275.1494500000117,
      "v": 96
    },
    {
      "midi": 62,
      "hit": false,
      "t": 109697.74125000034,
      "d": 289.6310000000085,
      "v": 96
    },
    {
      "midi": 43,
      "hit": false,
      "t": 109829.28199583339,
      "d": 331.86885416666337,
      "v": 96
    },
    {
      "midi": 60,
      "hit": false,
      "t": 110114.08581250034,
      "d": 419.9649500000087,
      "v": 96
    },
    {
      "midi": 62,
      "hit": false,
      "t": 110114.08581250034,
      "d": 419.9649500000087,
      "v": 96
    },
    {
      "midi": 67,
      "hit": false,
      "t": 110126.15377083368,
      "d": 409.1037875000038,
      "v": 96
    },
    {
      "midi": 43,
      "hit": false,
      "t": 110424.23234166672,
      "d": 334.28244583333435,
      "v": 96
    },
    {
      "midi": 67,
      "hit": false,
      "t": 110692.14101666702,
      "d": 418.7581541666732,
      "v": 96
    },
    {
      "midi": 62,
      "hit": false,
      "t": 110692.14101666702,
      "d": 425.9989291666716,
      "v": 96
    },
    {
      "midi": 59,
      "hit": false,
      "t": 110704.20897500037,
      "d": 359.625158333336,
      "v": 96
    },
    {
      "midi": 43,
      "hit": false,
      "t": 110992.63317916672,
      "d": 323.4212833333295,
      "v": 96
    },
    {
      "midi": 59,
      "hit": false,
      "t": 111561.03401666704,
      "d": 433.23970416665543,
      "v": 96
    },
    {
      "midi": 43,
      "hit": false,
      "t": 111565.86120000004,
      "d": 440.4804791666684,
      "v": 96
    },
    {
      "midi": 55,
      "hit": false,
      "t": 111569.48158750037,
      "d": 403.06980833332636,
      "v": 96
    },
    {
      "midi": 45,
      "hit": false,
      "t": 111984.61935416672,
      "d": 454.96202916666516,
      "v": 96
    },
    {
      "midi": 57,
      "hit": false,
      "t": 112013.58245416703,
      "d": 398.24262499999895,
      "v": 96
    },
    {
      "midi": 60,
      "hit": false,
      "t": 112020.82322916703,
      "d": 409.1037875000038,
      "v": 96
    },
    {
      "midi": 62,
      "hit": false,
      "t": 112422.68624166703,
      "d": 483.92512916665873,
      "v": 96
    },
    {
      "midi": 47,
      "hit": false,
      "t": 112439.58138333338,
      "d": 482.71833333332324,
      "v": 96
    },
    {
      "midi": 59,
      "hit": false,
      "t": 112439.5813833337,
      "d": 348.76399583333114,
      "v": 96
    },
    {
      "midi": 55,
      "hit": false,
      "t": 112892.1298208337,
      "d": 405.48339999999735,
      "v": 96
    },
    {
      "midi": 59,
      "hit": false,
      "t": 112898.16380000036,
      "d": 378.9338916666602,
      "v": 96
    },
    {
      "midi": 43,
      "hit": false,
      "t": 112907.81816666671,
      "d": 400.65621666666993,
      "v": 96
    },
    {
      "midi": 60,
      "hit": false,
      "t": 113289.16565000036,
      "d": 307.7329374999972,
      "v": 96
    },
    {
      "midi": 45,
      "hit": false,
      "t": 113291.57924166671,
      "d": 331.86885416666337,
      "v": 96
    },
    {
      "midi": 57,
      "hit": false,
      "t": 113304.85399583369,
      "d": 275.14944999999716,
      "v": 96
    },
    {
      "midi": 62,
      "hit": false,
      "t": 113588.45101666702,
      "d": 249.8067374999955,
      "v": 96
    },
    {
      "midi": 59,
      "hit": false,
      "t": 113598.10538333369,
      "d": 251.013533333331,
      "v": 96
    },
    {
      "midi": 47,
      "hit": false,
      "t": 113602.93256666671,
      "d": 279.97663333332457,
      "v": 96
    },
    {
      "midi": 48,
      "hit": false,
      "t": 113913.07909583337,
      "d": 509.2678416666604,
      "v": 96
    },
    {
      "midi": 64,
      "hit": false,
      "t": 113913.07909583369,
      "d": 283.59702083333104,
      "v": 96
    },
    {
      "midi": 60,
      "hit": false,
      "t": 113913.07909583369,
      "d": 325.83487500000047,
      "v": 96
    },
    {
      "midi": 59,
      "hit": false,
      "t": 114351.14598333368,
      "d": 314.9737124999956,
      "v": 96
    },
    {
      "midi": 62,
      "hit": false,
      "t": 114357.17996250035,
      "d": 302.9057541666698,
      "v": 96
    },
    {
      "midi": 47,
      "hit": false,
      "t": 114432.0013041667,
      "d": 633.5678124999977,
      "v": 96
    },
    {
      "midi": 57,
      "hit": false,
      "t": 114796.45364583368,
      "d": 417.5513583333377,
      "v": 96
    },
    {
      "midi": 60,
      "hit": false,
      "t": 114804.90121666701,
      "d": 415.1377666666667,
      "v": 96
    },
    {
      "midi": 45,
      "hit": false,
      "t": 115066.77591250003,
      "d": 579.2619999999879,
      "v": 96
    },
    {
      "midi": 57,
      "hit": false,
      "t": 115370.88846250034,
      "d": 301.6989583333343,
      "v": 96
    },
    {
      "midi": 60,
      "hit": false,
      "t": 115379.33603333368,
      "d": 299.2853666666633,
      "v": 96
    },
    {
      "midi": 43,
      "hit": false,
      "t": 115632.76315833336,
      "d": 610.6386916666524,
      "v": 96
    },
    {
      "midi": 59,
      "hit": false,
      "t": 115788.43982083368,
      "d": 199.12131250000675,
      "v": 96
    },
    {
      "midi": 55,
      "hit": false,
      "t": 115796.88739166701,
      "d": 196.70772083333577,
      "v": 96
    },
    {
      "midi": 53,
      "hit": false,
      "t": 116210.81836250034,
      "d": 1504.8744041666796,
      "v": 72
    },
    {
      "midi": 57,
      "hit": false,
      "t": 116219.26593333368,
      "d": 1503.667608333344,
      "v": 72
    },
    {
      "midi": 41,
      "hit": false,
      "t": 116220.47272916668,
      "d": 384.96787083333766,
      "v": 96
    },
    {
      "midi": 72,
      "hit": false,
      "t": 116220.47272916701,
      "d": 91.71648333333724,
      "v": 72
    },
    {
      "midi": 76,
      "hit": false,
      "t": 116220.47272916701,
      "d": 92.92327916667273,
      "v": 72
    },
    {
      "midi": 72,
      "hit": false,
      "t": 116359.25425000035,
      "d": 90.50968750000175,
      "v": 72
    },
    {
      "midi": 76,
      "hit": false,
      "t": 116368.90861666702,
      "d": 72.40774999999849,
      "v": 72
    },
    {
      "midi": 72,
      "hit": false,
      "t": 116494.41538333369,
      "d": 103.78444166666304,
      "v": 72
    },
    {
      "midi": 76,
      "hit": false,
      "t": 116494.41538333369,
      "d": 103.78444166666304,
      "v": 72
    },
    {
      "midi": 74,
      "hit": false,
      "t": 116644.05806666701,
      "d": 260.6679000000149,
      "v": 72
    },
    {
      "midi": 71,
      "hit": false,
      "t": 116663.36680000035,
      "d": 222.05043333333742,
      "v": 72
    },
    {
      "midi": 41,
      "hit": false,
      "t": 116762.32405833335,
      "d": 460.99600833332806,
      "v": 96
    },
    {
      "midi": 72,
      "hit": false,
      "t": 117042.30069166703,
      "d": 181.0193750000035,
      "v": 72
    },
    {
      "midi": 69,
      "hit": false,
      "t": 117049.54146666703,
      "d": 173.7786000000051,
      "v": 72
    },
    {
      "midi": 72,
      "hit": false,
      "t": 117342.79285416703,
      "d": 89.30289166666626,
      "v": 72
    },
    {
      "midi": 76,
      "hit": false,
      "t": 117343.99965000036,
      "d": 96.54366666666465,
      "v": 72
    },
    {
      "midi": 41,
      "hit": false,
      "t": 117365.72197500002,
      "d": 591.3299583333282,
      "v": 96
    },
    {
      "midi": 76,
      "hit": false,
      "t": 117469.50641666702,
      "d": 118.26599166667438,
      "v": 72
    },
    {
      "midi": 72,
      "hit": false,
      "t": 117487.60835416702,
      "d": 88.09609583333076,
      "v": 72
    },
    {
      "midi": 72,
      "hit": false,
      "t": 117642.07822083369,
      "d": 104.99123749999853,
      "v": 72
    },
    {
      "midi": 76,
      "hit": false,
      "t": 117643.28501666703,
      "d": 95.33687083332916,
      "v": 72
    },
    {
      "midi": 74,
      "hit": false,
      "t": 117794.13449583368,
      "d": 468.23678333332646,
      "v": 72
    },
    {
      "midi": 71,
      "hit": false,
      "t": 117848.44030833368,
      "d": 424.7921333333361,
      "v": 72
    },
    {
      "midi": 43,
      "hit": false,
      "t": 117926.88203750002,
      "d": 351.1775875000021,
      "v": 96
    },
    {
      "midi": 55,
      "hit": false,
      "t": 117952.22475000034,
      "d": 311.3533250000037,
      "v": 72
    },
    {
      "midi": 59,
      "hit": false,
      "t": 117971.53348333368,
      "d": 272.7358583333262,
      "v": 72
    },
    {
      "midi": 45,
      "hit": false,
      "t": 118210.47905833335,
      "d": 167.7446208333422,
      "v": 96
    },
    {
      "midi": 72,
      "hit": false,
      "t": 118237.02856666701,
      "d": 156.88345833333733,
      "v": 72
    },
    {
      "midi": 69,
      "hit": false,
      "t": 118255.13050416701,
      "d": 138.78152083333407,
      "v": 72
    },
    {
      "midi": 47,
      "hit": false,
      "t": 118361.32853750003,
      "d": 214.80965833333903,
      "v": 96
    },
    {
      "midi": 48,
      "hit": false,
      "t": 118492.86928333336,
      "d": 578.055204166667,
      "v": 96
    },
    {
      "midi": 60,
      "hit": false,
      "t": 118520.62558750034,
      "d": 327.04167083333596,
      "v": 96
    },
    {
      "midi": 64,
      "hit": false,
      "t": 118527.86636250034,
      "d": 284.80381666666653,
      "v": 96
    },
    {
      "midi": 62,
      "hit": false,
      "t": 118978.00120833368,
      "d": 263.08149166667135,
      "v": 96
    },
    {
      "midi": 59,
      "hit": false,
      "t": 118991.27596250034,
      "d": 257.04751250000845,
      "v": 96
    },
    {
      "midi": 60,
      "hit": false,
      "t": 118999.72353333367,
      "d": 66.37377083333558,
      "v": 96
    },
    {
      "midi": 47,
      "hit": false,
      "t": 119062.4769166667,
      "d": 588.9163666666718,
      "v": 96
    },
    {
      "midi": 60,
      "hit": false,
      "t": 119400.37975000034,
      "d": 347.55719999999565,
      "v": 96
    },
    {
      "midi": 57,
      "hit": false,
      "t": 119400.37975000034,
      "d": 354.79797499999404,
      "v": 96
    },
    {
      "midi": 45,
      "hit": false,
      "t": 119675.52920000003,
      "d": 603.397916666654,
      "v": 96
    },
    {
      "midi": 57,
      "hit": false,
      "t": 119944.64467083367,
      "d": 300.4921624999988,
      "v": 96
    },
    {
      "midi": 60,
      "hit": false,
      "t": 119969.98738333368,
      "d": 261.87469583333586,
      "v": 96
    },
    {
      "midi": 43,
      "hit": false,
      "t": 120258.41158750003,
      "d": 556.3328791666572,
      "v": 96
    },
    {
      "midi": 55,
      "hit": false,
      "t": 120385.12515000034,
      "d": 246.18635000000359,
      "v": 96
    },
    {
      "midi": 59,
      "hit": false,
      "t": 120393.57272083368,
      "d": 253.42712500000198,
      "v": 96
    },
    {
      "midi": 53,
      "hit": false,
      "t": 120821.98524166702,
      "d": 2122.7538708333595,
      "v": 72
    },
    {
      "midi": 57,
      "hit": false,
      "t": 120830.43281250035,
      "d": 2122.7538708333595,
      "v": 72
    },
    {
      "midi": 72,
      "hit": false,
      "t": 120838.88038333369,
      "d": 85.68250416667433,
      "v": 72
    },
    {
      "midi": 76,
      "hit": false,
      "t": 120848.53475000036,
      "d": 76.02813750000496,
      "v": 72
    },
    {
      "midi": 41,
      "hit": false,
      "t": 120855.77552500002,
      "d": 340.31642499999725,
      "v": 96
    },
    {
      "midi": 76,
      "hit": false,
      "t": 120975.24831250036,
      "d": 91.71648333333724,
      "v": 72
    },
    {
      "midi": 72,
      "hit": false,
      "t": 120975.24831250036,
      "d": 102.5776458333421,
      "v": 72
    },
    {
      "midi": 72,
      "hit": false,
      "t": 121133.33856666704,
      "d": 84.47570833333884,
      "v": 72
    },
    {
      "midi": 76,
      "hit": false,
      "t": 121133.33856666704,
      "d": 85.68250416667433,
      "v": 72
    },
    {
      "midi": 72,
      "hit": false,
      "t": 121293.84241250038,
      "d": 59.13299583333719,
      "v": 72
    },
    {
      "midi": 74,
      "hit": false,
      "t": 121293.84241250038,
      "d": 432.0329083333345,
      "v": 72
    },
    {
      "midi": 71,
      "hit": false,
      "t": 121311.94435000038,
      "d": 415.1377666666667,
      "v": 72
    },
    {
      "midi": 41,
      "hit": false,
      "t": 121407.28122083335,
      "d": 445.3076624999958,
      "v": 96
    },
    {
      "midi": 72,
      "hit": false,
      "t": 121708.98017916705,
      "d": 159.2970500000083,
      "v": 72
    },
    {
      "midi": 69,
      "hit": false,
      "t": 121727.08211666705,
      "d": 133.95433750000666,
      "v": 72
    },
    {
      "midi": 41,
      "hit": false,
      "t": 121987.75001666667,
      "d": 567.1940416666621,
      "v": 96
    },
    {
      "midi": 72,
      "hit": false,
      "t": 121997.40438333372,
      "d": 89.30289166666626,
      "v": 72
    },
    {
      "midi": 76,
      "hit": false,
      "t": 122014.29952500039,
      "d": 63.9601791666646,
      "v": 72
    },
    {
      "midi": 72,
      "hit": false,
      "t": 122138.59949583373,
      "d": 95.33687083332916,
      "v": 72
    },
    {
      "midi": 76,
      "hit": false,
      "t": 122143.42667916705,
      "d": 90.50968750000175,
      "v": 72
    },
    {
      "midi": 72,
      "hit": false,
      "t": 122299.10334166705,
      "d": 98.95725833332108,
      "v": 72
    },
    {
      "midi": 76,
      "hit": false,
      "t": 122303.93052500038,
      "d": 79.64852499999688,
      "v": 72
    },
    {
      "midi": 74,
      "hit": false,
      "t": 122452.36641250037,
      "d": 430.82611250001355,
      "v": 72
    },
    {
      "midi": 71,
      "hit": false,
      "t": 122460.8139833337,
      "d": 388.58825833334413,
      "v": 72
    },
    {
      "midi": 72,
      "hit": false,
      "t": 122480.12271666704,
      "d": 32.58348750000005,
      "v": 72
    },
    {
      "midi": 43,
      "hit": false,
      "t": 122568.2188125,
      "d": 389.7950541666796,
      "v": 96
    },
    {
      "midi": 45,
      "hit": false,
      "t": 122880.77893333333,
      "d": 188.2601500000019,
      "v": 96
    },
    {
      "midi": 69,
      "hit": false,
      "t": 122888.01970833371,
      "d": 167.7446208333422,
      "v": 72
    },
    {
      "midi": 72,
      "hit": false,
      "t": 122889.22650416705,
      "d": 131.54074583333568,
      "v": 72
    },
    {
      "midi": 47,
      "hit": false,
      "t": 123015.94006666668,
      "d": 143.60870416666148,
      "v": 96
    },
    {
      "midi": 48,
      "hit": false,
      "t": 123143.860425,
      "d": 555.1260833333363,
      "v": 96
    },
    {
      "midi": 60,
      "hit": false,
      "t": 123188.51187083372,
      "d": 324.628079166665,
      "v": 96
    },
    {
      "midi": 64,
      "hit": false,
      "t": 123206.61380833373,
      "d": 306.5261416666617,
      "v": 96
    },
    {
      "midi": 59,
      "hit": false,
      "t": 123626.57875833372,
      "d": 258.2543083333294,
      "v": 96
    },
    {
      "midi": 62,
      "hit": false,
      "t": 123626.57875833372,
      "d": 267.90867499999877,
      "v": 96
    },
    {
      "midi": 47,
      "hit": false,
      "t": 123686.91855,
      "d": 617.87946666668,
      "v": 96
    },
    {
      "midi": 60,
      "hit": false,
      "t": 124044.13011666706,
      "d": 266.7018791666633,
      "v": 96
    },
    {
      "midi": 57,
      "hit": false,
      "t": 124058.61166666706,
      "d": 246.18635000000359,
      "v": 96
    },
    {
      "midi": 45,
      "hit": false,
      "t": 124293.93685416668,
      "d": 549.0921041666734,
      "v": 96
    },
    {
      "midi": 60,
      "hit": false,
      "t": 124590.80862916706,
      "d": 310.1465291666682,
      "v": 96
    },
    {
      "midi": 57,
      "hit": false,
      "t": 124599.2562000004,
      "d": 265.4950833333278,
      "v": 96
    },
    {
      "midi": 43,
      "hit": false,
      "t": 124841.82216250002,
      "d": 580.4687958333379,
      "v": 96
    },
    {
      "midi": 55,
      "hit": false,
      "t": 125019.22115000039,
      "d": 199.12131250000675,
      "v": 96
    },
    {
      "midi": 59,
      "hit": false,
      "t": 125020.42794583373,
      "d": 202.74169999999867,
      "v": 96
    },
    {
      "midi": 55,
      "hit": false,
      "t": 125437.97930416706,
      "d": 104.99123750001309,
      "v": 72
    },
    {
      "midi": 41,
      "hit": false,
      "t": 125440.39289583336,
      "d": 321.00769166667305,
      "v": 96
    },
    {
      "midi": 52,
      "hit": false,
      "t": 125448.84046666707,
      "d": 60.33979166667268,
      "v": 72
    },
    {
      "midi": 72,
      "hit": false,
      "t": 125448.84046666707,
      "d": 94.13007500000822,
      "v": 72
    },
    {
      "midi": 53,
      "hit": false,
      "t": 125448.84046666707,
      "d": 2432.9003999999986,
      "v": 72
    },
    {
      "midi": 76,
      "hit": false,
      "t": 125450.0472625004,
      "d": 92.92327916667273,
      "v": 72
    },
    {
      "midi": 72,
      "hit": false,
      "t": 125594.86276250042,
      "d": 85.68250416665978,
      "v": 72
    },
    {
      "midi": 76,
      "hit": false,
      "t": 125594.86276250042,
      "d": 86.88929999999527,
      "v": 72
    },
    {
      "midi": 76,
      "hit": false,
      "t": 125730.02389583374,
      "d": 100.16405416667112,
      "v": 72
    },
    {
      "midi": 72,
      "hit": false,
      "t": 125738.47146666708,
      "d": 108.611625000005,
      "v": 72
    },
    {
      "midi": 74,
      "hit": false,
      "t": 125894.14812916708,
      "d": 359.625158333336,
      "v": 72
    },
    {
      "midi": 71,
      "hit": false,
      "t": 125912.25006666708,
      "d": 421.1717458333296,
      "v": 72
    },
    {
      "midi": 41,
      "hit": false,
      "t": 126046.2044041667,
      "d": 290.83779583332944,
      "v": 96
    },
    {
      "midi": 72,
      "hit": false,
      "t": 126339.45579166707,
      "d": 147.22909166666795,
      "v": 72
    },
    {
      "midi": 69,
      "hit": false,
      "t": 126356.35093333374,
      "d": 139.98831666666956,
      "v": 72
    },
    {
      "midi": 72,
      "hit": false,
      "t": 126630.29358750042,
      "d": 89.30289166666626,
      "v": 72
    },
    {
      "midi": 41,
      "hit": false,
      "t": 126631.50038333336,
      "d": 362.038750000007,
      "v": 96
    },
    {
      "midi": 76,
      "hit": false,
      "t": 126647.18872916709,
      "d": 63.9601791666646,
      "v": 72
    },
    {
      "midi": 76,
      "hit": false,
      "t": 126772.69549583374,
      "d": 129.1271541666647,
      "v": 72
    },
    {
      "midi": 72,
      "hit": false,
      "t": 126781.14306666708,
      "d": 96.54366666666465,
      "v": 72
    },
    {
      "midi": 72,
      "hit": false,
      "t": 126947.68089166707,
      "d": 316.1805083333311,
      "v": 72
    },
    {
      "midi": 74,
      "hit": false,
      "t": 126964.57603333374,
      "d": 55.51260833333072,
      "v": 72
    },
    {
      "midi": 76,
      "hit": false,
      "t": 126965.78282916707,
      "d": 165.33102916665666,
      "v": 72
    },
    {
      "midi": 74,
      "hit": false,
      "t": 127138.35463333373,
      "d": 428.41252083334257,
      "v": 72
    },
    {
      "midi": 71,
      "hit": false,
      "t": 127207.14199583374,
      "d": 301.6989583333343,
      "v": 72
    },
    {
      "midi": 41,
      "hit": false,
      "t": 127234.89830000003,
      "d": 329.45526250000694,
      "v": 96
    },
    {
      "midi": 72,
      "hit": false,
      "t": 127508.84095416707,
      "d": 267.90867499999877,
      "v": 72
    },
    {
      "midi": 69,
      "hit": false,
      "t": 127525.73609583374,
      "d": 270.32226666666975,
      "v": 72
    },
    {
      "midi": 41,
      "hit": false,
      "t": 127787.61079166671,
      "d": 308.9397333333327,
      "v": 96
    },
    {
      "midi": 57,
      "hit": false,
      "t": 127817.7806875004,
      "d": 73.61454583333398,
      "v": 96
    },
    {
      "midi": 60,
      "hit": false,
      "t": 127826.22825833374,
      "d": 189.46694583333738,
      "v": 96
    },
    {
      "midi": 64,
      "hit": false,
      "t": 127826.22825833374,
      "d": 190.67374166667287,
      "v": 96
    },
    {
      "midi": 60,
      "hit": false,
      "t": 128264.29514583375,
      "d": 148.43588750000345,
      "v": 96
    },
    {
      "midi": 57,
      "hit": false,
      "t": 128272.74271666708,
      "d": 132.74754166667117,
      "v": 96
    },
    {
      "midi": 64,
      "hit": false,
      "t": 128272.74271666708,
      "d": 139.98831666666956,
      "v": 96
    },
    {
      "midi": 36,
      "hit": false,
      "t": 128359.63201666671,
      "d": 632.3610166666622,
      "v": 96
    },
    {
      "midi": 64,
      "hit": false,
      "t": 128683.05330000042,
      "d": 166.5378250000067,
      "v": 96
    },
    {
      "midi": 57,
      "hit": false,
      "t": 128692.70766666709,
      "d": 138.78152083333407,
      "v": 96
    },
    {
      "midi": 60,
      "hit": false,
      "t": 128692.70766666709,
      "d": 164.12423333333572,
      "v": 96
    },
    {
      "midi": 41,
      "hit": false,
      "t": 128953.37556666671,
      "d": 597.3639374999912,
      "v": 96
    },
    {
      "midi": 60,
      "hit": false,
      "t": 129387.8220666671,
      "d": 156.88345833333733,
      "v": 96
    },
    {
      "midi": 57,
      "hit": false,
      "t": 129396.26963750043,
      "d": 117.05919583333889,
      "v": 96
    },
    {
      "midi": 64,
      "hit": false,
      "t": 129397.47643333377,
      "d": 139.98831666666956,
      "v": 96
    },
    {
      "midi": 36,
      "hit": false,
      "t": 129520.56960833338,
      "d": 551.5056958333298,
      "v": 96
    },
    {
      "midi": 64,
      "hit": false,
      "t": 129829.5093416671,
      "d": 213.60286250000354,
      "v": 88
    },
    {
      "midi": 57,
      "hit": false,
      "t": 129839.16370833377,
      "d": 155.67666250000184,
      "v": 88
    },
    {
      "midi": 60,
      "hit": false,
      "t": 129847.6112791671,
      "d": 177.39898749999702,
      "v": 88
    },
    {
      "midi": 46,
      "hit": false,
      "t": 130132.41509583338,
      "d": 278.76983750000363,
      "v": 96
    },
    {
      "midi": 58,
      "hit": false,
      "t": 130132.41509583377,
      "d": 115.8524000000034,
      "v": 88
    },
    {
      "midi": 63,
      "hit": false,
      "t": 130132.41509583377,
      "d": 138.78152083333407,
      "v": 88
    },
    {
      "midi": 65,
      "hit": false,
      "t": 130132.41509583377,
      "d": 138.78152083333407,
      "v": 88
    },
    {
      "midi": 58,
      "hit": false,
      "t": 130570.48198333377,
      "d": 125.50676666667277,
      "v": 88
    },
    {
      "midi": 63,
      "hit": false,
      "t": 130570.48198333377,
      "d": 133.95433750000666,
      "v": 88
    },
    {
      "midi": 65,
      "hit": false,
      "t": 130582.54994166711,
      "d": 123.09317500000179,
      "v": 88
    },
    {
      "midi": 41,
      "hit": false,
      "t": 130682.71399583339,
      "d": 310.1465291666682,
      "v": 96
    },
    {
      "midi": 58,
      "hit": false,
      "t": 130990.44693333378,
      "d": 126.71356250000827,
      "v": 88
    },
    {
      "midi": 63,
      "hit": false,
      "t": 130997.68770833377,
      "d": 129.1271541666647,
      "v": 88
    },
    {
      "midi": 65,
      "hit": false,
      "t": 130998.89450416711,
      "d": 135.16113333334215,
      "v": 88
    },
    {
      "midi": 46,
      "hit": false,
      "t": 131283.69832083338,
      "d": 310.1465291666682,
      "v": 96
    },
    {
      "midi": 63,
      "hit": false,
      "t": 131561.26136250046,
      "d": 136.36792916664854,
      "v": 88
    },
    {
      "midi": 58,
      "hit": false,
      "t": 131561.26136250046,
      "d": 141.1951124999905,
      "v": 88
    },
    {
      "midi": 65,
      "hit": false,
      "t": 131570.9157291671,
      "d": 131.54074583333568,
      "v": 88
    },
    {
      "midi": 41,
      "hit": false,
      "t": 131854.51275000005,
      "d": 319.800895833323,
      "v": 96
    },
    {
      "midi": 58,
      "hit": false,
      "t": 131980.01951666712,
      "d": 117.05919583333889,
      "v": 88
    },
    {
      "midi": 63,
      "hit": false,
      "t": 131980.01951666712,
      "d": 126.71356249999371,
      "v": 88
    },
    {
      "midi": 65,
      "hit": false,
      "t": 131992.08747500044,
      "d": 115.8524000000034,
      "v": 88
    },
    {
      "midi": 46,
      "hit": false,
      "t": 132384.29612083337,
      "d": 301.69895833331975,
      "v": 96
    },
    {
      "midi": 65,
      "hit": false,
      "t": 132422.91358750046,
      "d": 173.77859999999055,
      "v": 88
    },
    {
      "midi": 62,
      "hit": false,
      "t": 132431.36115833378,
      "d": 133.95433750000666,
      "v": 88
    },
    {
      "midi": 58,
      "hit": false,
      "t": 132431.36115833378,
      "d": 166.5378250000067,
      "v": 88
    },
    {
      "midi": 58,
      "hit": false,
      "t": 132892.35716666712,
      "d": 149.64268333333894,
      "v": 88
    },
    {
      "midi": 62,
      "hit": false,
      "t": 132906.83871666712,
      "d": 115.8524000000034,
      "v": 88
    },
    {
      "midi": 65,
      "hit": false,
      "t": 132906.83871666712,
      "d": 141.1951125000196,
      "v": 88
    },
    {
      "midi": 41,
      "hit": false,
      "t": 133005.79597500002,
      "d": 342.73001666666823,
      "v": 96
    },
    {
      "midi": 58,
      "hit": false,
      "t": 133302.66775000046,
      "d": 109.81842083332594,
      "v": 88
    },
    {
      "midi": 62,
      "hit": false,
      "t": 133312.3221166671,
      "d": 106.19803333334858,
      "v": 88
    },
    {
      "midi": 65,
      "hit": false,
      "t": 133312.3221166671,
      "d": 121.88637916668085,
      "v": 88
    },
    {
      "midi": 46,
      "hit": false,
      "t": 133621.26185,
      "d": 251.01353333334555,
      "v": 96
    },
    {
      "midi": 58,
      "hit": false,
      "t": 133842.10548750046,
      "d": 123.09317500001634,
      "v": 88
    },
    {
      "midi": 62,
      "hit": false,
      "t": 133849.34626250048,
      "d": 124.29997083332273,
      "v": 88
    },
    {
      "midi": 65,
      "hit": false,
      "t": 133850.5530583338,
      "d": 136.36792916664854,
      "v": 88
    },
    {
      "midi": 41,
      "hit": false,
      "t": 134153.45881250003,
      "d": 289.63099999999395,
      "v": 96
    },
    {
      "midi": 62,
      "hit": false,
      "t": 134303.1014958338,
      "d": 130.3339500000002,
      "v": 88
    },
    {
      "midi": 58,
      "hit": false,
      "t": 134311.54906666712,
      "d": 118.26599166667438,
      "v": 88
    },
    {
      "midi": 65,
      "hit": false,
      "t": 134330.85780000046,
      "d": 83.26891250000335,
      "v": 88
    },
    {
      "midi": 46,
      "hit": false,
      "t": 134707.37810000003,
      "d": 279.9766333333391,
      "v": 96
    },
    {
      "midi": 58,
      "hit": false,
      "t": 134726.6868333338,
      "d": 115.8523999999743,
      "v": 88
    },
    {
      "midi": 65,
      "hit": false,
      "t": 134726.6868333338,
      "d": 135.16113333331305,
      "v": 88
    },
    {
      "midi": 63,
      "hit": false,
      "t": 134735.13440416713,
      "d": 108.61162499999045,
      "v": 88
    },
    {
      "midi": 58,
      "hit": false,
      "t": 135168.37410833378,
      "d": 112.23201249999693,
      "v": 88
    },
    {
      "midi": 65,
      "hit": false,
      "t": 135169.58090416712,
      "d": 118.26599166667438,
      "v": 88
    },
    {
      "midi": 63,
      "hit": false,
      "t": 135179.23527083377,
      "d": 101.37085000000661,
      "v": 88
    },
    {
      "midi": 41,
      "hit": false,
      "t": 135260.0905916667,
      "d": 327.04167083333596,
      "v": 96
    },
    {
      "midi": 58,
      "hit": false,
      "t": 135610.06138333378,
      "d": 104.99123749998398,
      "v": 88
    },
    {
      "midi": 63,
      "hit": false,
      "t": 135618.5089541671,
      "d": 97.75046250000014,
      "v": 88
    },
    {
      "midi": 65,
      "hit": false,
      "t": 135619.71575000044,
      "d": 96.54366666666465,
      "v": 88
    },
    {
      "midi": 46,
      "hit": false,
      "t": 135873.14287500002,
      "d": 323.4212833333295,
      "v": 96
    },
    {
      "midi": 58,
      "hit": false,
      "t": 136172.4282416671,
      "d": 96.54366666666465,
      "v": 88
    },
    {
      "midi": 63,
      "hit": false,
      "t": 136180.87581250042,
      "d": 83.26891250000335,
      "v": 88
    },
    {
      "midi": 65,
      "hit": false,
      "t": 136182.08260833376,
      "d": 82.06211666666786,
      "v": 88
    },
    {
      "midi": 58,
      "hit": false,
      "t": 136308.79617083378,
      "d": 92.92327916665818,
      "v": 88
    },
    {
      "midi": 63,
      "hit": false,
      "t": 136308.79617083378,
      "d": 103.7844416666776,
      "v": 88
    },
    {
      "midi": 65,
      "hit": false,
      "t": 136310.00296666712,
      "d": 97.75046250000014,
      "v": 88
    },
    {
      "midi": 41,
      "hit": false,
      "t": 136474.12720000002,
      "d": 329.45526250000694,
      "v": 96
    },
    {
      "midi": 58,
      "hit": false,
      "t": 136633.42425000045,
      "d": 115.8524000000034,
      "v": 88
    },
    {
      "midi": 65,
      "hit": false,
      "t": 136633.42425000045,
      "d": 135.16113333334215,
      "v": 88
    },
    {
      "midi": 63,
      "hit": false,
      "t": 136644.28541250044,
      "d": 106.19803333334858,
      "v": 88
    },
    {
      "midi": 58,
      "hit": false,
      "t": 137063.04356666713,
      "d": 115.8524000000034,
      "v": 88
    },
    {
      "midi": 62,
      "hit": false,
      "t": 137063.04356666713,
      "d": 131.54074583333568,
      "v": 88
    },
    {
      "midi": 65,
      "hit": false,
      "t": 137067.87075000047,
      "d": 135.16113333331305,
      "v": 88
    },
    {
      "midi": 46,
      "hit": false,
      "t": 137077.5251166667,
      "d": 282.3902250000101,
      "v": 96
    },
    {
      "midi": 58,
      "hit": false,
      "t": 137489.04249583377,
      "d": 123.09317499998724,
      "v": 88
    },
    {
      "midi": 62,
      "hit": false,
      "t": 137497.4900666671,
      "d": 121.88637916668085,
      "v": 88
    },
    {
      "midi": 65,
      "hit": false,
      "t": 137497.4900666671,
      "d": 139.9883166666841,
      "v": 88
    },
    {
      "midi": 41,
      "hit": false,
      "t": 137656.7871166667,
      "d": 289.63099999999395,
      "v": 96
    },
    {
      "midi": 58,
      "hit": false,
      "t": 137956.07248333376,
      "d": 107.40482916668407,
      "v": 88
    },
    {
      "midi": 62,
      "hit": false,
      "t": 137962.10646250044,
      "d": 101.37085000000661,
      "v": 88
    },
    {
      "midi": 65,
      "hit": false,
      "t": 137963.31325833377,
      "d": 118.26599166667438,
      "v": 88
    },
    {
      "midi": 46,
      "hit": false,
      "t": 138243.2898916667,
      "d": 290.83779583332944,
      "v": 96
    },
    {
      "midi": 58,
      "hit": false,
      "t": 138497.92381250043,
      "d": 121.88637916665175,
      "v": 88
    },
    {
      "midi": 62,
      "hit": false,
      "t": 138499.13060833377,
      "d": 111.02521666666144,
      "v": 88
    },
    {
      "midi": 65,
      "hit": false,
      "t": 138508.78497500042,
      "d": 112.23201249999693,
      "v": 88
    },
    {
      "midi": 41,
      "hit": false,
      "t": 138815.3111166667,
      "d": 277.56304166666814,
      "v": 96
    },
    {
      "midi": 62,
      "hit": false,
      "t": 138943.23147500042,
      "d": 108.61162499999045,
      "v": 88
    },
    {
      "midi": 65,
      "hit": false,
      "t": 138943.23147500042,
      "d": 124.29997083332273,
      "v": 88
    },
    {
      "midi": 58,
      "hit": false,
      "t": 138952.88584166707,
      "d": 84.47570833333884,
      "v": 88
    },
    {
      "midi": 46,
      "hit": false,
      "t": 139395.77991250003,
      "d": 267.9086750000133,
      "v": 96
    },
    {
      "midi": 58,
      "hit": false,
      "t": 139399.40030000042,
      "d": 80.85532083333237,
      "v": 88
    },
    {
      "midi": 63,
      "hit": false,
      "t": 139399.40030000042,
      "d": 89.30289166668081,
      "v": 88
    },
    {
      "midi": 65,
      "hit": false,
      "t": 139409.05466666707,
      "d": 72.40775000001304,
      "v": 88
    },
    {
      "midi": 58,
      "hit": false,
      "t": 139521.2866791671,
      "d": 94.13007499999367,
      "v": 88
    },
    {
      "midi": 63,
      "hit": false,
      "t": 139529.73425000042,
      "d": 86.88930000000983,
      "v": 88
    },
    {
      "midi": 65,
      "hit": false,
      "t": 139530.94104583375,
      "d": 92.92327916668728,
      "v": 88
    },
    {
      "midi": 63,
      "hit": false,
      "t": 139813.33127083376,
      "d": 102.577645833313,
      "v": 88
    },
    {
      "midi": 58,
      "hit": false,
      "t": 139821.77884166708,
      "d": 95.33687083332916,
      "v": 88
    },
    {
      "midi": 65,
      "hit": false,
      "t": 139831.43320833374,
      "d": 86.88930000000983,
      "v": 88
    },
    {
      "midi": 41,
      "hit": false,
      "t": 139954.52638333337,
      "d": 293.2513875000004,
      "v": 96
    },
    {
      "midi": 63,
      "hit": false,
      "t": 140248.9845666671,
      "d": 89.3028916666517,
      "v": 88
    },
    {
      "midi": 58,
      "hit": false,
      "t": 140248.9845666671,
      "d": 97.75046249997104,
      "v": 88
    },
    {
      "midi": 65,
      "hit": false,
      "t": 140258.63893333374,
      "d": 88.09609583331621,
      "v": 88
    },
    {
      "midi": 46,
      "hit": false,
      "t": 140559.13109583338,
      "d": 293.2513875000004,
      "v": 96
    },
    {
      "midi": 58,
      "hit": false,
      "t": 140818.5922000004,
      "d": 102.577645833313,
      "v": 88
    },
    {
      "midi": 63,
      "hit": false,
      "t": 140827.0397708337,
      "d": 107.40482916665496,
      "v": 88
    },
    {
      "midi": 65,
      "hit": false,
      "t": 140827.0397708337,
      "d": 107.40482916665496,
      "v": 88
    },
    {
      "midi": 41,
      "hit": false,
      "t": 141113.05038333338,
      "d": 299.2853666666779,
      "v": 96
    },
    {
      "midi": 58,
      "hit": false,
      "t": 141277.17461666703,
      "d": 111.02521666666144,
      "v": 88
    },
    {
      "midi": 63,
      "hit": false,
      "t": 141277.17461666703,
      "d": 123.09317499998724,
      "v": 88
    },
    {
      "midi": 65,
      "hit": false,
      "t": 141286.8289833337,
      "d": 114.64560416666791,
      "v": 88
    },
    {
      "midi": 46,
      "hit": false,
      "t": 141697.13956666674,
      "d": 284.8038166666811,
      "v": 96
    },
    {
      "midi": 62,
      "hit": false,
      "t": 141726.10266666702,
      "d": 95.33687083332916,
      "v": 88
    },
    {
      "midi": 58,
      "hit": false,
      "t": 141726.10266666702,
      "d": 103.78444166664849,
      "v": 88
    },
    {
      "midi": 65,
      "hit": false,
      "t": 141727.30946250036,
      "d": 119.47278749998077,
      "v": 88
    },
    {
      "midi": 58,
      "hit": false,
      "t": 142147.27441250035,
      "d": 102.5776458333421,
      "v": 88
    },
    {
      "midi": 65,
      "hit": false,
      "t": 142148.4812083337,
      "d": 118.26599166667438,
      "v": 88
    },
    {
      "midi": 62,
      "hit": false,
      "t": 142161.75596250035,
      "d": 80.85532083333237,
      "v": 88
    },
    {
      "midi": 41,
      "hit": false,
      "t": 142247.43846666676,
      "d": 249.80673750001006,
      "v": 96
    },
    {
      "midi": 58,
      "hit": false,
      "t": 142566.03256666704,
      "d": 108.61162499999045,
      "v": 88
    },
    {
      "midi": 62,
      "hit": false,
      "t": 142567.23936250038,
      "d": 96.54366666666465,
      "v": 88
    },
    {
      "midi": 65,
      "hit": false,
      "t": 142576.89372916703,
      "d": 98.95725833333563,
      "v": 88
    },
    {
      "midi": 46,
      "hit": false,
      "t": 142835.1480375001,
      "d": 257.0475124999939,
      "v": 96
    },
    {
      "midi": 58,
      "hit": false,
      "t": 143103.05671250037,
      "d": 89.3028916666517,
      "v": 88
    },
    {
      "midi": 62,
      "hit": false,
      "t": 143111.5042833337,
      "d": 73.61454583331943,
      "v": 88
    },
    {
      "midi": 65,
      "hit": false,
      "t": 143111.5042833337,
      "d": 82.06211666666786,
      "v": 88
    },
    {
      "midi": 58,
      "hit": false,
      "t": 143239.42464166702,
      "d": 96.54366666666465,
      "v": 88
    },
    {
      "midi": 62,
      "hit": false,
      "t": 143255.11298750035,
      "d": 82.06211666666786,
      "v": 88
    },
    {
      "midi": 65,
      "hit": false,
      "t": 143256.3197833337,
      "d": 100.16405416667112,
      "v": 88
    },
    {
      "midi": 41,
      "hit": false,
      "t": 143391.48091666677,
      "d": 289.63099999999395,
      "v": 96
    },
    {
      "midi": 58,
      "hit": false,
      "t": 143566.46631250036,
      "d": 106.19803333331947,
      "v": 88
    },
    {
      "midi": 62,
      "hit": false,
      "t": 143574.91388333368,
      "d": 98.95725833333563,
      "v": 88
    },
    {
      "midi": 65,
      "hit": false,
      "t": 143576.120679167,
      "d": 125.50676666665822,
      "v": 88
    },
    {
      "midi": 46,
      "hit": false,
      "t": 143975.5701000001,
      "d": 293.2513875000004,
      "v": 96
    },
    {
      "midi": 58,
      "hit": false,
      "t": 144004.53320000033,
      "d": 94.13007499999367,
      "v": 88
    },
    {
      "midi": 63,
      "hit": false,
      "t": 144016.60115833365,
      "d": 72.40775000001304,
      "v": 88
    },
    {
      "midi": 65,
      "hit": false,
      "t": 144016.60115833365,
      "d": 73.61454583334853,
      "v": 88
    },
    {
      "midi": 58,
      "hit": false,
      "t": 144131.24676250032,
      "d": 85.68250416667433,
      "v": 88
    },
    {
      "midi": 65,
      "hit": false,
      "t": 144132.45355833365,
      "d": 95.33687083332916,
      "v": 88
    },
    {
      "midi": 63,
      "hit": false,
      "t": 144132.45355833365,
      "d": 103.78444166664849,
      "v": 88
    },
    {
      "midi": 58,
      "hit": false,
      "t": 144424.4981500003,
      "d": 89.3028916666517,
      "v": 88
    },
    {
      "midi": 63,
      "hit": false,
      "t": 144424.4981500003,
      "d": 90.5096874999872,
      "v": 88
    },
    {
      "midi": 65,
      "hit": false,
      "t": 144435.35931250028,
      "d": 102.5776458333421,
      "v": 88
    },
    {
      "midi": 41,
      "hit": false,
      "t": 144548.79812083344,
      "d": 290.83779583332944,
      "v": 96
    },
    {
      "midi": 63,
      "hit": false,
      "t": 144766.02137083362,
      "d": 77.2349333333259,
      "v": 88
    },
    {
      "midi": 58,
      "hit": false,
      "t": 144775.67573750028,
      "d": 68.78736250000657,
      "v": 88
    },
    {
      "midi": 65,
      "hit": false,
      "t": 144776.8825333336,
      "d": 67.58056666667107,
      "v": 88
    },
    {
      "midi": 63,
      "hit": false,
      "t": 144892.73493333362,
      "d": 96.54366666666465,
      "v": 88
    },
    {
      "midi": 58,
      "hit": false,
      "t": 144892.73493333362,
      "d": 103.7844416666776,
      "v": 88
    },
    {
      "midi": 65,
      "hit": false,
      "t": 144892.73493333362,
      "d": 113.43880833333242,
      "v": 88
    },
    {
      "midi": 46,
      "hit": false,
      "t": 145135.30089583344,
      "d": 244.9795541666681,
      "v": 96
    },
    {
      "midi": 58,
      "hit": false,
      "t": 145462.34256666695,
      "d": 101.37084999997751,
      "v": 88
    },
    {
      "midi": 63,
      "hit": false,
      "t": 145470.79013750027,
      "d": 94.13007499999367,
      "v": 88
    },
    {
      "midi": 65,
      "hit": false,
      "t": 145470.79013750027,
      "d": 102.577645833313,
      "v": 88
    },
    {
      "midi": 41,
      "hit": false,
      "t": 145704.90852916677,
      "d": 302.90575416665524,
      "v": 96
    },
    {
      "midi": 58,
      "hit": false,
      "t": 145896.7890666669,
      "d": 102.577645833313,
      "v": 88
    },
    {
      "midi": 63,
      "hit": false,
      "t": 145906.44343333357,
      "d": 104.99123750001309,
      "v": 88
    },
    {
      "midi": 65,
      "hit": false,
      "t": 145916.09780000022,
      "d": 90.5096875000163,
      "v": 88
    },
    {
      "midi": 46,
      "hit": false,
      "t": 146326.40838333342,
      "d": 275.14944999999716,
      "v": 96
    },
    {
      "midi": 58,
      "hit": false,
      "t": 146340.8899333336,
      "d": 109.81842083332594,
      "v": 88
    },
    {
      "midi": 62,
      "hit": false,
      "t": 146342.09672916692,
      "d": 95.33687083332916,
      "v": 88
    },
    {
      "midi": 65,
      "hit": false,
      "t": 146343.30352500026,
      "d": 115.8523999999743,
      "v": 88
    },
    {
      "midi": 58,
      "hit": false,
      "t": 146789.81798333357,
      "d": 120.67958333331626,
      "v": 88
    },
    {
      "midi": 65,
      "hit": false,
      "t": 146789.81798333357,
      "d": 126.71356249999371,
      "v": 88
    },
    {
      "midi": 62,
      "hit": false,
      "t": 146799.47235000023,
      "d": 95.33687083332916,
      "v": 88
    },
    {
      "midi": 41,
      "hit": false,
      "t": 146910.49756666675,
      "d": 284.8038166666811,
      "v": 96
    },
    {
      "midi": 58,
      "hit": false,
      "t": 147191.68099583357,
      "d": 107.40482916665496,
      "v": 88
    },
    {
      "midi": 62,
      "hit": false,
      "t": 147202.54215833356,
      "d": 97.75046250000014,
      "v": 88
    },
    {
      "midi": 65,
      "hit": false,
      "t": 147202.54215833356,
      "d": 118.26599166667438,
      "v": 88
    },
    {
      "midi": 46,
      "hit": false,
      "t": 147494.5867500001,
      "d": 242.5659624999971,
      "v": 96
    },
    {
      "midi": 58,
      "hit": false,
      "t": 147750.4274666669,
      "d": 111.02521666666144,
      "v": 88
    },
    {
      "midi": 62,
      "hit": false,
      "t": 147760.08183333356,
      "d": 94.13007499999367,
      "v": 88
    },
    {
      "midi": 65,
      "hit": false,
      "t": 147760.08183333356,
      "d": 113.43880833333242,
      "v": 88
    },
    {
      "midi": 41,
      "hit": false,
      "t": 148065.40117916677,
      "d": 307.7329374999972,
      "v": 96
    },
    {
      "midi": 58,
      "hit": false,
      "t": 148178.83998750022,
      "d": 123.09317500001634,
      "v": 88
    },
    {
      "midi": 62,
      "hit": false,
      "t": 148186.08076250023,
      "d": 127.9203583333292,
      "v": 88
    },
    {
      "midi": 65,
      "hit": false,
      "t": 148186.08076250023,
      "d": 148.43588750000345,
      "v": 88
    },
    {
      "midi": 46,
      "hit": false,
      "t": 148668.79909583344,
      "d": 349.9707916666812,
      "v": 96
    },
    {
      "midi": 70,
      "hit": false,
      "t": 148668.79909583356,
      "d": 209.98247499999707,
      "v": 96
    },
    {
      "midi": 65,
      "hit": false,
      "t": 148668.79909583356,
      "d": 213.60286250000354,
      "v": 96
    },
    {
      "midi": 62,
      "hit": false,
      "t": 148668.79909583356,
      "d": 219.636841666681,
      "v": 96
    },
    {
      "midi": 46,
      "hit": false,
      "t": 149058.59415000014,
      "d": 214.80965833333903,
      "v": 96
    },
    {
      "midi": 70,
      "hit": false,
      "t": 149069.45531250024,
      "d": 176.19219166669063,
      "v": 96
    },
    {
      "midi": 65,
      "hit": false,
      "t": 149075.48929166692,
      "d": 171.36500833334867,
      "v": 96
    },
    {
      "midi": 62,
      "hit": false,
      "t": 149081.5232708336,
      "d": 183.43296666667447,
      "v": 96
    },
    {
      "midi": 65,
      "hit": false,
      "t": 149508.7289958336,
      "d": 416.34456249998766,
      "v": 96
    },
    {
      "midi": 69,
      "hit": false,
      "t": 149508.7289958336,
      "d": 422.3785416666651,
      "v": 96
    },
    {
      "midi": 60,
      "hit": false,
      "t": 149517.17656666692,
      "d": 407.8969916666683,
      "v": 96
    },
    {
      "midi": 41,
      "hit": false,
      "t": 149543.72607500013,
      "d": 330.66205833334243,
      "v": 96
    },
    {
      "midi": 41,
      "hit": false,
      "t": 150098.85215833347,
      "d": 244.9795541666681,
      "v": 96
    },
    {
      "midi": 65,
      "hit": false,
      "t": 150127.8152583336,
      "d": 144.81549999999697,
      "v": 96
    },
    {
      "midi": 69,
      "hit": false,
      "t": 150133.84923750028,
      "d": 138.78152083331952,
      "v": 96
    },
    {
      "midi": 65,
      "hit": false,
      "t": 150573.12292083362,
      "d": 125.50676666665822,
      "v": 96
    },
    {
      "midi": 69,
      "hit": false,
      "t": 150579.1569000003,
      "d": 133.95433749997756,
      "v": 96
    },
    {
      "midi": 60,
      "hit": false,
      "t": 150591.22485833362,
      "d": 112.23201249999693,
      "v": 96
    },
    {
      "midi": 67,
      "hit": false,
      "t": 150867.58110416695,
      "d": 89.30289166668081,
      "v": 96
    },
    {
      "midi": 64,
      "hit": false,
      "t": 150873.61508333363,
      "d": 90.5096875000163,
      "v": 96
    },
    {
      "midi": 48,
      "hit": false,
      "t": 150991.88107500013,
      "d": 289.63099999999395,
      "v": 96
    },
    {
      "midi": 67,
      "hit": false,
      "t": 150995.5014625003,
      "d": 307.7329375000263,
      "v": 96
    },
    {
      "midi": 64,
      "hit": false,
      "t": 151001.535441667,
      "d": 277.56304166666814,
      "v": 96
    },
    {
      "midi": 60,
      "hit": false,
      "t": 151011.18980833364,
      "d": 300.49216250001336,
      "v": 96
    },
    {
      "midi": 65,
      "hit": false,
      "t": 151413.05282083366,
      "d": 133.95433749997756,
      "v": 96
    },
    {
      "midi": 69,
      "hit": false,
      "t": 151426.32757500032,
      "d": 125.50676666665822,
      "v": 96
    },
    {
      "midi": 60,
      "hit": false,
      "t": 151456.49747083365,
      "d": 106.19803333331947,
      "v": 96
    },
    {
      "midi": 64,
      "hit": false,
      "t": 151708.7178000003,
      "d": 115.8524000000034,
      "v": 96
    },
    {
      "midi": 60,
      "hit": false,
      "t": 151717.16537083362,
      "d": 88.09609583334532,
      "v": 96
    },
    {
      "midi": 67,
      "hit": false,
      "t": 151717.16537083362,
      "d": 113.43880833336152,
      "v": 96
    },
    {
      "midi": 43,
      "hit": false,
      "t": 151849.91291250012,
      "d": 197.91451666667126,
      "v": 96
    },
    {
      "midi": 64,
      "hit": false,
      "t": 152004.38277916698,
      "d": 59.13299583332264,
      "v": 96
    },
    {
      "midi": 67,
      "hit": false,
      "t": 152004.38277916698,
      "d": 73.61454583331943,
      "v": 96
    },
    {
      "midi": 67,
      "hit": false,
      "t": 152128.6827500003,
      "d": 269.1154708333779,
      "v": 96
    },
    {
      "midi": 64,
      "hit": false,
      "t": 152134.71672916698,
      "d": 244.9795541666972,
      "v": 96
    },
    {
      "midi": 36,
      "hit": false,
      "t": 152139.5439125001,
      "d": 349.9707916666812,
      "v": 96
    },
    {
      "midi": 60,
      "hit": false,
      "t": 152141.957504167,
      "d": 231.7048000000068,
      "v": 96
    },
    {
      "midi": 60,
      "hit": false,
      "t": 152547.44090416702,
      "d": 98.95725833330653,
      "v": 96
    },
    {
      "midi": 65,
      "hit": false,
      "t": 152555.88847500033,
      "d": 104.99123749998398,
      "v": 96
    },
    {
      "midi": 69,
      "hit": false,
      "t": 152555.88847500033,
      "d": 115.8523999999743,
      "v": 96
    },
    {
      "midi": 64,
      "hit": false,
      "t": 152864.82820833364,
      "d": 118.26599166667438,
      "v": 96
    },
    {
      "midi": 67,
      "hit": false,
      "t": 152864.82820833364,
      "d": 146.02229583333246,
      "v": 96
    },
    {
      "midi": 60,
      "hit": false,
      "t": 152878.1029625003,
      "d": 119.47278750000987,
      "v": 96
    },
    {
      "midi": 43,
      "hit": false,
      "t": 152972.23303750012,
      "d": 183.43296666667447,
      "v": 96
    },
    {
      "midi": 70,
      "hit": false,
      "t": 153281.17277083363,
      "d": 176.19219166666153,
      "v": 96
    },
    {
      "midi": 62,
      "hit": false,
      "t": 153281.17277083363,
      "d": 182.22617083333898,
      "v": 96
    },
    {
      "midi": 65,
      "hit": false,
      "t": 153281.17277083363,
      "d": 189.46694583335193,
      "v": 96
    },
    {
      "midi": 46,
      "hit": false,
      "t": 153285.9999541668,
      "d": 278.76983750000363,
      "v": 96
    },
    {
      "midi": 70,
      "hit": false,
      "t": 153716.82606666698,
      "d": 153.2630708333163,
      "v": 96
    },
    {
      "midi": 65,
      "hit": false,
      "t": 153731.30761666698,
      "d": 138.78152083331952,
      "v": 96
    },
    {
      "midi": 62,
      "hit": false,
      "t": 153743.3755750003,
      "d": 136.36792916664854,
      "v": 96
    },
    {
      "midi": 46,
      "hit": false,
      "t": 153871.29593333346,
      "d": 205.1552916666551,
      "v": 96
    },
    {
      "midi": 41,
      "hit": false,
      "t": 154163.34052500012,
      "d": 413.9309708333458,
      "v": 96
    },
    {
      "midi": 65,
      "hit": false,
      "t": 154166.96091250028,
      "d": 323.4212833333295,
      "v": 96
    },
    {
      "midi": 69,
      "hit": false,
      "t": 154172.99489166695,
      "d": 308.9397333333327,
      "v": 96
    },
    {
      "midi": 60,
      "hit": false,
      "t": 154180.23566666697,
      "d": 301.69895833331975,
      "v": 96
    },
    {
      "midi": 65,
      "hit": false,
      "t": 154735.36175000027,
      "d": 133.95433750000666,
      "v": 96
    },
    {
      "midi": 69,
      "hit": false,
      "t": 154741.39572916695,
      "d": 139.9883166666841,
      "v": 96
    },
    {
      "midi": 41,
      "hit": false,
      "t": 154748.6365041668,
      "d": 304.11254999999073,
      "v": 96
    },
    {
      "midi": 60,
      "hit": false,
      "t": 154752.25689166694,
      "d": 123.09317500001634,
      "v": 96
    },
    {
      "midi": 69,
      "hit": false,
      "t": 155195.1509625003,
      "d": 112.23201249999693,
      "v": 96
    },
    {
      "midi": 60,
      "hit": false,
      "t": 155199.97814583365,
      "d": 101.37084999997751,
      "v": 96
    },
    {
      "midi": 65,
      "hit": false,
      "t": 155201.184941667,
      "d": 91.71648333332269,
      "v": 96
    },
    {
      "midi": 41,
      "hit": false,
      "t": 155278.4198750001,
      "d": 287.21740833332296,
      "v": 96
    },
    {
      "midi": 64,
      "hit": false,
      "t": 155476.33439166698,
      "d": 85.68250416667433,
      "v": 96
    },
    {
      "midi": 67,
      "hit": false,
      "t": 155477.54118750032,
      "d": 68.78736250000657,
      "v": 96
    },
    {
      "midi": 48,
      "hit": false,
      "t": 155590.97999583342,
      "d": 328.24846666667145,
      "v": 96
    },
    {
      "midi": 64,
      "hit": false,
      "t": 155600.63436250034,
      "d": 213.60286250000354,
      "v": 96
    },
    {
      "midi": 67,
      "hit": false,
      "t": 155600.63436250034,
      "d": 231.7048000000068,
      "v": 96
    },
    {
      "midi": 60,
      "hit": false,
      "t": 155606.668341667,
      "d": 211.18927083333256,
      "v": 96
    },
    {
      "midi": 65,
      "hit": false,
      "t": 156003.70417083366,
      "d": 112.23201249999693,
      "v": 96
    },
    {
      "midi": 69,
      "hit": false,
      "t": 156009.73815000034,
      "d": 119.47278750000987,
      "v": 96
    },
    {
      "midi": 60,
      "hit": false,
      "t": 156018.18572083366,
      "d": 103.7844416666776,
      "v": 96
    },
    {
      "midi": 67,
      "hit": false,
      "t": 156310.23031250035,
      "d": 111.02521666669054,
      "v": 96
    },
    {
      "midi": 60,
      "hit": false,
      "t": 156317.47108750037,
      "d": 100.16405416667112,
      "v": 96
    },
    {
      "midi": 64,
      "hit": false,
      "t": 156318.6778833337,
      "d": 92.92327916665818,
      "v": 96
    },
    {
      "midi": 43,
      "hit": false,
      "t": 156464.70017916674,
      "d": 203.9484958333196,
      "v": 96
    },
    {
      "midi": 67,
      "hit": false,
      "t": 156604.68849583372,
      "d": 68.78736250000657,
      "v": 96
    },
    {
      "midi": 64,
      "hit": false,
      "t": 156610.7224750004,
      "d": 63.9601791666646,
      "v": 96
    },
    {
      "midi": 64,
      "hit": false,
      "t": 156726.5748750004,
      "d": 237.73877916668425,
      "v": 96
    },
    {
      "midi": 60,
      "hit": false,
      "t": 156733.8156500004,
      "d": 197.91451666667126,
      "v": 96
    },
    {
      "midi": 67,
      "hit": false,
      "t": 156735.02244583375,
      "d": 240.15237083332613,
      "v": 96
    },
    {
      "midi": 36,
      "hit": false,
      "t": 156767.6059333334,
      "d": 341.52322083333274,
      "v": 96
    },
    {
      "midi": 65,
      "hit": false,
      "t": 157173.08933333374,
      "d": 119.47278750000987,
      "v": 96
    },
    {
      "midi": 69,
      "hit": false,
      "t": 157180.33010833376,
      "d": 120.67958333331626,
      "v": 96
    },
    {
      "midi": 60,
      "hit": false,
      "t": 157197.22525000043,
      "d": 109.81842083332594,
      "v": 96
    },
    {
      "midi": 60,
      "hit": false,
      "t": 157474.7882916671,
      "d": 148.43588750003255,
      "v": 96
    },
    {
      "midi": 64,
      "hit": false,
      "t": 157482.0290666671,
      "d": 135.16113333334215,
      "v": 96
    },
    {
      "midi": 67,
      "hit": false,
      "t": 157489.26984166712,
      "d": 139.9883166666841,
      "v": 96
    },
    {
      "midi": 36,
      "hit": false,
      "t": 157602.70865000007,
      "d": 251.01353333334555,
      "v": 96
    },
    {
      "midi": 50,
      "hit": false,
      "t": 157961.12701250007,
      "d": 346.3504041666747,
      "v": 96
    },
    {
      "midi": 66,
      "hit": false,
      "t": 157994.91729583382,
      "d": 314.97371249998105,
      "v": 96
    },
    {
      "midi": 69,
      "hit": false,
      "t": 157994.91729583382,
      "d": 337.90283333332627,
      "v": 96
    },
    {
      "midi": 62,
      "hit": false,
      "t": 158003.36486666714,
      "d": 324.628079166665,
      "v": 96
    },
    {
      "midi": 67,
      "hit": false,
      "t": 158428.15700000047,
      "d": 199.12131250000675,
      "v": 88
    },
    {
      "midi": 69,
      "hit": false,
      "t": 158436.6045708338,
      "d": 187.05335416668095,
      "v": 88
    },
    {
      "midi": 62,
      "hit": false,
      "t": 158436.6045708338,
      "d": 199.12131250000675,
      "v": 88
    },
    {
      "midi": 45,
      "hit": false,
      "t": 158534.3550333334,
      "d": 376.5203000000038,
      "v": 96
    },
    {
      "midi": 67,
      "hit": false,
      "t": 158837.26078750048,
      "d": 336.6960374999908,
      "v": 88
    },
    {
      "midi": 69,
      "hit": false,
      "t": 158838.4675833338,
      "d": 335.4892416666553,
      "v": 88
    },
    {
      "midi": 62,
      "hit": false,
      "t": 158848.12195000047,
      "d": 290.83779583332944,
      "v": 88
    },
    {
      "midi": 50,
      "hit": false,
      "t": 159154.64809166675,
      "d": 349.9707916666812,
      "v": 96
    },
    {
      "midi": 66,
      "hit": false,
      "t": 159392.3868708338,
      "d": 342.73001666666823,
      "v": 88
    },
    {
      "midi": 69,
      "hit": false,
      "t": 159393.59366666715,
      "d": 351.17758749998757,
      "v": 88
    },
    {
      "midi": 62,
      "hit": false,
      "t": 159409.28201250048,
      "d": 273.94265416666167,
      "v": 88
    },
    {
      "midi": 45,
      "hit": false,
      "t": 159696.49942083342,
      "d": 430.82611250001355,
      "v": 96
    },
    {
      "midi": 62,
      "hit": false,
      "t": 159847.34890000048,
      "d": 281.1834291666746,
      "v": 88
    },
    {
      "midi": 66,
      "hit": false,
      "t": 160272.1410333338,
      "d": 294.4581833333068,
      "v": 88
    },
    {
      "midi": 69,
      "hit": false,
      "t": 160286.6225833338,
      "d": 310.1465291666391,
      "v": 88
    },
    {
      "midi": 50,
      "hit": false,
      "t": 160289.0361750001,
      "d": 432.03290833331994,
      "v": 96
    },
    {
      "midi": 61,
      "hit": false,
      "t": 160296.27695000047,
      "d": 270.3222666666552,
      "v": 88
    },
    {
      "midi": 61,
      "hit": false,
      "t": 160721.06908333377,
      "d": 224.46402499999385,
      "v": 88
    },
    {
      "midi": 67,
      "hit": false,
      "t": 160721.06908333377,
      "d": 225.67082083332934,
      "v": 88
    },
    {
      "midi": 69,
      "hit": false,
      "t": 160721.06908333377,
      "d": 235.32518749998417,
      "v": 88
    },
    {
      "midi": 45,
      "hit": false,
      "t": 160848.98944166675,
      "d": 441.68727500000386,
      "v": 96
    },
    {
      "midi": 61,
      "hit": false,
      "t": 161126.55248333377,
      "d": 325.83487500000047,
      "v": 88
    },
    {
      "midi": 67,
      "hit": false,
      "t": 161126.55248333377,
      "d": 340.31642499999725,
      "v": 88
    },
    {
      "midi": 69,
      "hit": false,
      "t": 161136.20685000042,
      "d": 337.9028333333554,
      "v": 88
    },
    {
      "midi": 50,
      "hit": false,
      "t": 161398.0815458334,
      "d": 412.7241750000103,
      "v": 96
    },
    {
      "midi": 69,
      "hit": false,
      "t": 161664.78342500044,
      "d": 393.41544166670064,
      "v": 88
    },
    {
      "midi": 66,
      "hit": false,
      "t": 161672.02420000045,
      "d": 378.93389166667475,
      "v": 88
    },
    {
      "midi": 61,
      "hit": false,
      "t": 161684.09215833378,
      "d": 264.28828750000685,
      "v": 88
    },
    {
      "midi": 45,
      "hit": false,
      "t": 161965.2755875001,
      "d": 476.6843541666749,
      "v": 96
    },
    {
      "midi": 61,
      "hit": false,
      "t": 162160.77651250048,
      "d": 269.1154708333197,
      "v": 88
    },
    {
      "midi": 60,
      "hit": false,
      "t": 162555.39875000046,
      "d": 294.4581833333359,
      "v": 88
    },
    {
      "midi": 66,
      "hit": false,
      "t": 162561.43272916714,
      "d": 310.1465291666682,
      "v": 88
    },
    {
      "midi": 69,
      "hit": false,
      "t": 162569.88030000046,
      "d": 321.0076916666876,
      "v": 88
    },
    {
      "midi": 50,
      "hit": false,
      "t": 162580.7414625001,
      "d": 403.06980833332636,
      "v": 96
    },
    {
      "midi": 69,
      "hit": false,
      "t": 162994.67243333382,
      "d": 251.01353333334555,
      "v": 88
    },
    {
      "midi": 67,
      "hit": false,
      "t": 163001.91320833383,
      "d": 237.73877916665515,
      "v": 88
    },
    {
      "midi": 60,
      "hit": false,
      "t": 163010.36077916715,
      "d": 189.46694583332282,
      "v": 88
    },
    {
      "midi": 45,
      "hit": false,
      "t": 163125.0063833334,
      "d": 526.1629833333427,
      "v": 96
    },
    {
      "midi": 60,
      "hit": false,
      "t": 163419.46456666716,
      "d": 318.5941000000166,
      "v": 88
    },
    {
      "midi": 67,
      "hit": false,
      "t": 163419.46456666716,
      "d": 357.2115666666941,
      "v": 88
    },
    {
      "midi": 69,
      "hit": false,
      "t": 163420.6713625005,
      "d": 357.2115666666941,
      "v": 88
    },
    {
      "midi": 50,
      "hit": false,
      "t": 163728.40430000008,
      "d": 448.9280499999877,
      "v": 96
    },
    {
      "midi": 69,
      "hit": false,
      "t": 164004.76054583385,
      "d": 365.65913750001346,
      "v": 88
    },
    {
      "midi": 60,
      "hit": false,
      "t": 164015.62170833384,
      "d": 273.9426541666908,
      "v": 88
    },
    {
      "midi": 66,
      "hit": false,
      "t": 164022.86248333385,
      "d": 331.8688541666779,
      "v": 88
    },
    {
      "midi": 45,
      "hit": false,
      "t": 164298.01193333342,
      "d": 467.02998749999097,
      "v": 96
    },
    {
      "midi": 60,
      "hit": false,
      "t": 164474.20412500054,
      "d": 281.1834291666746,
      "v": 88
    },
    {
      "midi": 50,
      "hit": false,
      "t": 164877.2739333334,
      "d": 492.37270000000717,
      "v": 96
    },
    {
      "midi": 66,
      "hit": false,
      "t": 164890.54868750056,
      "d": 311.3533250000037,
      "v": 88
    },
    {
      "midi": 69,
      "hit": false,
      "t": 164897.78946250057,
      "d": 342.73001666666823,
      "v": 88
    },
    {
      "midi": 60,
      "hit": false,
      "t": 164906.2370333339,
      "d": 278.76983750000363,
      "v": 88
    },
    {
      "midi": 69,
      "hit": false,
      "t": 165321.37480000057,
      "d": 270.3222666666552,
      "v": 88
    },
    {
      "midi": 67,
      "hit": false,
      "t": 165334.64955416723,
      "d": 252.22032916665194,
      "v": 88
    },
    {
      "midi": 60,
      "hit": false,
      "t": 165343.09712500055,
      "d": 220.84363749998738,
      "v": 88
    },
    {
      "midi": 45,
      "hit": false,
      "t": 165464.98350416674,
      "d": 500.8202708333265,
      "v": 96
    },
    {
      "midi": 67,
      "hit": false,
      "t": 165749.7873208339,
      "d": 377.72709583333926,
      "v": 88
    },
    {
      "midi": 60,
      "hit": false,
      "t": 165757.0280958339,
      "d": 324.628079166665,
      "v": 88
    },
    {
      "midi": 69,
      "hit": false,
      "t": 165758.23489166723,
      "d": 369.2795249999908,
      "v": 88
    },
    {
      "midi": 50,
      "hit": false,
      "t": 166040.62511666672,
      "d": 432.03290833331994,
      "v": 96
    },
    {
      "midi": 69,
      "hit": false,
      "t": 166310.9473833339,
      "d": 380.14068749995204,
      "v": 88
    },
    {
      "midi": 66,
      "hit": false,
      "t": 166319.39495416722,
      "d": 345.1436083333101,
      "v": 88
    },
    {
      "midi": 60,
      "hit": false,
      "t": 166327.84252500054,
      "d": 290.83779583332944,
      "v": 88
    },
    {
      "midi": 45,
      "hit": false,
      "t": 166615.05993333337,
      "d": 411.5173791666748,
      "v": 96
    },
    {
      "midi": 60,
      "hit": false,
      "t": 166762.28902500053,
      "d": 306.5261416666617,
      "v": 88
    },
    {
      "midi": 65,
      "hit": false,
      "t": 167205.18309583387,
      "d": 293.2513875000004,
      "v": 96
    },
    {
      "midi": 58,
      "hit": false,
      "t": 167205.18309583387,
      "d": 298.0785708333424,
      "v": 88
    },
    {
      "midi": 62,
      "hit": false,
      "t": 167205.18309583387,
      "d": 307.7329374999972,
      "v": 88
    },
    {
      "midi": 46,
      "hit": false,
      "t": 167228.11221666672,
      "d": 271.5290624999907,
      "v": 96
    },
    {
      "midi": 67,
      "hit": false,
      "t": 167643.24998333387,
      "d": 300.49216250001336,
      "v": 96
    },
    {
      "midi": 58,
      "hit": false,
      "t": 167649.28396250054,
      "d": 311.3533250000037,
      "v": 96
    },
    {
      "midi": 62,
      "hit": false,
      "t": 167650.49075833388,
      "d": 300.49216250001336,
      "v": 96
    },
    {
      "midi": 46,
      "hit": false,
      "t": 167773.58393333337,
      "d": 337.90283333332627,
      "v": 96
    },
    {
      "midi": 65,
      "hit": false,
      "t": 168063.2149333339,
      "d": 406.69019583330373,
      "v": 96
    },
    {
      "midi": 58,
      "hit": false,
      "t": 168071.6625041672,
      "d": 445.30766249998123,
      "v": 96
    },
    {
      "midi": 62,
      "hit": false,
      "t": 168087.35085000054,
      "d": 417.55135833332315,
      "v": 96
    },
    {
      "midi": 46,
      "hit": false,
      "t": 168356.46632083337,
      "d": 294.4581833333359,
      "v": 96
    },
    {
      "midi": 67,
      "hit": false,
      "t": 168632.8225666672,
      "d": 271.5290624999907,
      "v": 96
    },
    {
      "midi": 58,
      "hit": false,
      "t": 168642.47693333385,
      "d": 289.63100000002305,
      "v": 96
    },
    {
      "midi": 62,
      "hit": false,
      "t": 168643.68372916718,
      "d": 267.9086750000133,
      "v": 96
    },
    {
      "midi": 46,
      "hit": false,
      "t": 168941.76230000003,
      "d": 329.45526250000694,
      "v": 96
    },
    {
      "midi": 65,
      "hit": false,
      "t": 169092.6117791672,
      "d": 244.9795541666681,
      "v": 96
    },
    {
      "midi": 58,
      "hit": false,
      "t": 169102.26614583386,
      "d": 260.6679000000004,
      "v": 96
    },
    {
      "midi": 62,
      "hit": false,
      "t": 169103.4729416672,
      "d": 248.59994166667457,
      "v": 96
    },
    {
      "midi": 67,
      "hit": false,
      "t": 169506.54275000052,
      "d": 273.94265416663256,
      "v": 96
    },
    {
      "midi": 58,
      "hit": false,
      "t": 169516.19711666717,
      "d": 286.0106124999875,
      "v": 96
    },
    {
      "midi": 62,
      "hit": false,
      "t": 169525.85148333383,
      "d": 254.63392083332292,
      "v": 96
    },
    {
      "midi": 46,
      "hit": false,
      "t": 169530.6786666667,
      "d": 305.3193458333262,
      "v": 96
    },
    {
      "midi": 67,
      "hit": false,
      "t": 169939.78245416717,
      "d": 235.32518749998417,
      "v": 96
    },
    {
      "midi": 58,
      "hit": false,
      "t": 169949.43682083383,
      "d": 251.01353333331645,
      "v": 96
    },
    {
      "midi": 62,
      "hit": false,
      "t": 169960.29798333382,
      "d": 241.35916666666162,
      "v": 96
    },
    {
      "midi": 46,
      "hit": false,
      "t": 170090.63193333335,
      "d": 296.8717750000069,
      "v": 96
    },
    {
      "midi": 58,
      "hit": false,
      "t": 170352.50662916715,
      "d": 415.13776666665217,
      "v": 96
    },
    {
      "midi": 62,
      "hit": false,
      "t": 170352.50662916715,
      "d": 415.13776666665217,
      "v": 96
    },
    {
      "midi": 65,
      "hit": false,
      "t": 170364.57458750048,
      "d": 345.1436083333392,
      "v": 96
    },
    {
      "midi": 46,
      "hit": false,
      "t": 170642.13762916668,
      "d": 312.56012083333917,
      "v": 96
    },
    {
      "midi": 67,
      "hit": false,
      "t": 170930.5618333338,
      "d": 251.01353333331645,
      "v": 96
    },
    {
      "midi": 58,
      "hit": false,
      "t": 170930.5618333338,
      "d": 301.69895833331975,
      "v": 96
    },
    {
      "midi": 62,
      "hit": false,
      "t": 170941.4229958338,
      "d": 272.7358583333262,
      "v": 96
    },
    {
      "midi": 46,
      "hit": false,
      "t": 171226.2268125,
      "d": 293.2513875000004,
      "v": 96
    },
    {
      "midi": 58,
      "hit": false,
      "t": 171372.24910833378,
      "d": 253.42712499998743,
      "v": 96
    },
    {
      "midi": 65,
      "hit": false,
      "t": 171389.14425000045,
      "d": 220.84363749998738,
      "v": 96
    },
    {
      "midi": 62,
      "hit": false,
      "t": 171389.14425000045,
      "d": 228.08441250000033,
      "v": 96
    },
    {
      "midi": 67,
      "hit": false,
      "t": 171799.45483333376,
      "d": 305.3193458333553,
      "v": 96
    },
    {
      "midi": 43,
      "hit": false,
      "t": 171809.1092,
      "d": 314.97371250001015,
      "v": 96
    },
    {
      "midi": 59,
      "hit": false,
      "t": 171809.1092000004,
      "d": 281.1834291666746,
      "v": 96
    },
    {
      "midi": 62,
      "hit": false,
      "t": 171809.1092000004,
      "d": 288.42420416668756,
      "v": 96
    },
    {
      "midi": 59,
      "hit": false,
      "t": 172248.38288333378,
      "d": 265.49508333331323,
      "v": 96
    },
    {
      "midi": 67,
      "hit": false,
      "t": 172258.03725000043,
      "d": 275.14944999999716,
      "v": 96
    },
    {
      "midi": 62,
      "hit": false,
      "t": 172258.03725000043,
      "d": 289.63099999999395,
      "v": 96
    },
    {
      "midi": 43,
      "hit": false,
      "t": 172389.57799583336,
      "d": 331.8688541666779,
      "v": 96
    },
    {
      "midi": 60,
      "hit": false,
      "t": 172674.38181250042,
      "d": 419.96494999999413,
      "v": 96
    },
    {
      "midi": 62,
      "hit": false,
      "t": 172674.38181250042,
      "d": 419.96494999999413,
      "v": 96
    },
    {
      "midi": 67,
      "hit": false,
      "t": 172686.44977083374,
      "d": 409.1037875000038,
      "v": 96
    },
    {
      "midi": 43,
      "hit": false,
      "t": 172984.5283416667,
      "d": 334.2824458333198,
      "v": 96
    },
    {
      "midi": 67,
      "hit": false,
      "t": 173252.43701666707,
      "d": 418.75815416665864,
      "v": 96
    },
    {
      "midi": 62,
      "hit": false,
      "t": 173252.43701666707,
      "d": 425.9989291666716,
      "v": 96
    },
    {
      "midi": 59,
      "hit": false,
      "t": 173264.5049750004,
      "d": 359.625158333336,
      "v": 96
    },
    {
      "midi": 43,
      "hit": false,
      "t": 173552.9291791667,
      "d": 323.4212833333295,
      "v": 96
    },
    {
      "midi": 59,
      "hit": false,
      "t": 174121.33001666708,
      "d": 433.23970416665543,
      "v": 96
    },
    {
      "midi": 43,
      "hit": false,
      "t": 174126.15720000005,
      "d": 440.4804791666684,
      "v": 96
    },
    {
      "midi": 55,
      "hit": false,
      "t": 174129.7775875004,
      "d": 403.06980833332636,
      "v": 96
    },
    {
      "midi": 45,
      "hit": false,
      "t": 174544.9153541667,
      "d": 454.96202916666516,
      "v": 96
    },
    {
      "midi": 57,
      "hit": false,
      "t": 174573.87845416708,
      "d": 398.2426250000135,
      "v": 96
    },
    {
      "midi": 60,
      "hit": false,
      "t": 174581.1192291671,
      "d": 409.1037875000038,
      "v": 96
    },
    {
      "midi": 62,
      "hit": false,
      "t": 174982.98224166708,
      "d": 483.92512916668784,
      "v": 96
    },
    {
      "midi": 47,
      "hit": false,
      "t": 174999.87738333337,
      "d": 482.71833333332324,
      "v": 96
    },
    {
      "midi": 59,
      "hit": false,
      "t": 174999.87738333375,
      "d": 348.7639958333457,
      "v": 96
    },
    {
      "midi": 55,
      "hit": false,
      "t": 175452.42582083377,
      "d": 405.48339999996824,
      "v": 96
    },
    {
      "midi": 59,
      "hit": false,
      "t": 175458.45980000045,
      "d": 378.93389166664565,
      "v": 96
    },
    {
      "midi": 43,
      "hit": false,
      "t": 175468.1141666667,
      "d": 400.6562166666554,
      "v": 96
    },
    {
      "midi": 60,
      "hit": false,
      "t": 175849.46165000042,
      "d": 307.7329374999681,
      "v": 96
    },
    {
      "midi": 45,
      "hit": false,
      "t": 175851.87524166668,
      "d": 331.8688541666779,
      "v": 96
    },
    {
      "midi": 57,
      "hit": false,
      "t": 175865.14999583375,
      "d": 275.14944999999716,
      "v": 96
    },
    {
      "midi": 62,
      "hit": false,
      "t": 176148.74701666707,
      "d": 249.80673749998095,
      "v": 96
    },
    {
      "midi": 59,
      "hit": false,
      "t": 176158.40138333372,
      "d": 251.01353333331645,
      "v": 96
    },
    {
      "midi": 47,
      "hit": false,
      "t": 176163.2285666667,
      "d": 279.9766333333391,
      "v": 96
    },
    {
      "midi": 48,
      "hit": false,
      "t": 176473.37509583335,
      "d": 509.26784166667494,
      "v": 96
    },
    {
      "midi": 64,
      "hit": false,
      "t": 176473.3750958337,
      "d": 283.5970208333456,
      "v": 96
    },
    {
      "midi": 60,
      "hit": false,
      "t": 176473.3750958337,
      "d": 325.83487500000047,
      "v": 96
    },
    {
      "midi": 59,
      "hit": false,
      "t": 176911.4419833337,
      "d": 314.97371250001015,
      "v": 96
    },
    {
      "midi": 62,
      "hit": false,
      "t": 176917.47596250038,
      "d": 302.90575416665524,
      "v": 96
    },
    {
      "midi": 47,
      "hit": false,
      "t": 176992.29730416668,
      "d": 633.5678124999977,
      "v": 96
    },
    {
      "midi": 57,
      "hit": false,
      "t": 177356.7496458337,
      "d": 417.55135833332315,
      "v": 96
    },
    {
      "midi": 60,
      "hit": false,
      "t": 177365.19721666703,
      "d": 415.1377666666813,
      "v": 96
    },
    {
      "midi": 45,
      "hit": false,
      "t": 177627.07191250002,
      "d": 579.2619999999879,
      "v": 96
    },
    {
      "midi": 57,
      "hit": false,
      "t": 177931.1844625004,
      "d": 301.69895833331975,
      "v": 96
    },
    {
      "midi": 60,
      "hit": false,
      "t": 177939.6320333337,
      "d": 299.2853666666779,
      "v": 96
    },
    {
      "midi": 43,
      "hit": false,
      "t": 178193.05915833334,
      "d": 610.6386916666816,
      "v": 96
    },
    {
      "midi": 59,
      "hit": false,
      "t": 178348.7358208337,
      "d": 199.12131249997765,
      "v": 96
    },
    {
      "midi": 55,
      "hit": false,
      "t": 178357.18339166703,
      "d": 196.70772083333577,
      "v": 96
    },
    {
      "midi": 53,
      "hit": false,
      "t": 178771.11436250038,
      "d": 1504.8744041666796,
      "v": 88
    },
    {
      "midi": 57,
      "hit": false,
      "t": 178779.5619333337,
      "d": 1503.6676083333732,
      "v": 88
    },
    {
      "midi": 41,
      "hit": false,
      "t": 178780.76872916668,
      "d": 384.9678708333522,
      "v": 96
    },
    {
      "midi": 72,
      "hit": false,
      "t": 178780.76872916703,
      "d": 91.71648333332269,
      "v": 88
    },
    {
      "midi": 76,
      "hit": false,
      "t": 178780.76872916703,
      "d": 92.92327916665818,
      "v": 88
    },
    {
      "midi": 72,
      "hit": false,
      "t": 178919.55025000035,
      "d": 90.5096874999872,
      "v": 72
    },
    {
      "midi": 76,
      "hit": false,
      "t": 178929.204616667,
      "d": 72.40775000001304,
      "v": 72
    },
    {
      "midi": 72,
      "hit": false,
      "t": 179054.71138333366,
      "d": 103.7844416666776,
      "v": 72
    },
    {
      "midi": 76,
      "hit": false,
      "t": 179054.71138333366,
      "d": 103.7844416666776,
      "v": 72
    },
    {
      "midi": 74,
      "hit": false,
      "t": 179204.354066667,
      "d": 260.6679000000004,
      "v": 72
    },
    {
      "midi": 71,
      "hit": false,
      "t": 179223.66280000034,
      "d": 222.05043333332287,
      "v": 72
    },
    {
      "midi": 41,
      "hit": false,
      "t": 179322.62005833336,
      "d": 460.9960083333426,
      "v": 96
    },
    {
      "midi": 72,
      "hit": false,
      "t": 179602.59669166701,
      "d": 181.0193750000035,
      "v": 72
    },
    {
      "midi": 69,
      "hit": false,
      "t": 179609.83746666703,
      "d": 173.77859999999055,
      "v": 72
    },
    {
      "midi": 72,
      "hit": false,
      "t": 179903.08885416703,
      "d": 89.30289166668081,
      "v": 72
    },
    {
      "midi": 76,
      "hit": false,
      "t": 179904.29565000036,
      "d": 96.54366666666465,
      "v": 72
    },
    {
      "midi": 41,
      "hit": false,
      "t": 179926.01797500002,
      "d": 591.3299583333428,
      "v": 96
    },
    {
      "midi": 76,
      "hit": false,
      "t": 180029.80241666702,
      "d": 118.26599166667438,
      "v": 72
    },
    {
      "midi": 72,
      "hit": false,
      "t": 180047.90435416703,
      "d": 88.09609583334532,
      "v": 72
    },
    {
      "midi": 72,
      "hit": false,
      "t": 180202.3742208337,
      "d": 104.99123750001309,
      "v": 72
    },
    {
      "midi": 76,
      "hit": false,
      "t": 180203.58101666704,
      "d": 95.33687083335826,
      "v": 72
    },
    {
      "midi": 74,
      "hit": false,
      "t": 180354.43049583372,
      "d": 468.23678333338466,
      "v": 72
    },
    {
      "midi": 71,
      "hit": false,
      "t": 180408.73630833373,
      "d": 424.7921333333652,
      "v": 72
    },
    {
      "midi": 43,
      "hit": false,
      "t": 180487.17803750004,
      "d": 351.17758749998757,
      "v": 96
    },
    {
      "midi": 55,
      "hit": false,
      "t": 180512.5207500004,
      "d": 311.3533250000328,
      "v": 88
    },
    {
      "midi": 59,
      "hit": false,
      "t": 180531.82948333374,
      "d": 272.7358583333553,
      "v": 88
    },
    {
      "midi": 45,
      "hit": false,
      "t": 180770.77505833335,
      "d": 167.7446208333422,
      "v": 96
    },
    {
      "midi": 72,
      "hit": false,
      "t": 180797.32456666708,
      "d": 156.88345833335188,
      "v": 72
    },
    {
      "midi": 69,
      "hit": false,
      "t": 180815.4265041671,
      "d": 138.78152083334862,
      "v": 72
    },
    {
      "midi": 47,
      "hit": false,
      "t": 180921.62453750003,
      "d": 214.80965833333903,
      "v": 96
    },
    {
      "midi": 48,
      "hit": false,
      "t": 181053.16528333336,
      "d": 578.0552041666524,
      "v": 96
    },
    {
      "midi": 60,
      "hit": false,
      "t": 181080.92158750043,
      "d": 327.04167083336506,
      "v": 96
    },
    {
      "midi": 64,
      "hit": false,
      "t": 181088.16236250044,
      "d": 284.8038166666811,
      "v": 96
    },
    {
      "midi": 62,
      "hit": false,
      "t": 181538.2972083338,
      "d": 263.08149166664225,
      "v": 96
    },
    {
      "midi": 59,
      "hit": false,
      "t": 181551.57196250046,
      "d": 257.0475124999939,
      "v": 96
    },
    {
      "midi": 60,
      "hit": false,
      "t": 181560.01953333378,
      "d": 66.37377083333558,
      "v": 96
    },
    {
      "midi": 47,
      "hit": false,
      "t": 181622.7729166667,
      "d": 588.9163666666427,
      "v": 96
    },
    {
      "midi": 60,
      "hit": false,
      "t": 181960.67575000046,
      "d": 347.5572000000102,
      "v": 96
    },
    {
      "midi": 57,
      "hit": false,
      "t": 181960.67575000046,
      "d": 354.79797500002314,
      "v": 96
    },
    {
      "midi": 45,
      "hit": false,
      "t": 182235.82520000002,
      "d": 603.3979166666686,
      "v": 96
    },
    {
      "midi": 57,
      "hit": false,
      "t": 182504.9406708338,
      "d": 300.49216249998426,
      "v": 96
    },
    {
      "midi": 60,
      "hit": false,
      "t": 182530.2833833338,
      "d": 261.87469583333586,
      "v": 96
    },
    {
      "midi": 43,
      "hit": false,
      "t": 182818.70758750002,
      "d": 556.3328791666718,
      "v": 96
    },
    {
      "midi": 55,
      "hit": false,
      "t": 182945.42115000045,
      "d": 246.18634999997448,
      "v": 96
    },
    {
      "midi": 59,
      "hit": false,
      "t": 182953.86872083377,
      "d": 253.42712499998743,
      "v": 96
    },
    {
      "midi": 53,
      "hit": false,
      "t": 183382.28124166708,
      "d": 2122.753870833287,
      "v": 88
    },
    {
      "midi": 57,
      "hit": false,
      "t": 183390.7288125004,
      "d": 2122.753870833287,
      "v": 88
    },
    {
      "midi": 72,
      "hit": false,
      "t": 183399.17638333372,
      "d": 85.68250416664523,
      "v": 72
    },
    {
      "midi": 76,
      "hit": false,
      "t": 183408.83075000037,
      "d": 76.02813749999041,
      "v": 72
    },
    {
      "midi": 41,
      "hit": false,
      "t": 183416.071525,
      "d": 340.31642499999725,
      "v": 96
    },
    {
      "midi": 76,
      "hit": false,
      "t": 183535.54431250037,
      "d": 91.71648333332269,
      "v": 72
    },
    {
      "midi": 72,
      "hit": false,
      "t": 183535.54431250037,
      "d": 102.577645833313,
      "v": 72
    },
    {
      "midi": 72,
      "hit": false,
      "t": 183693.63456666702,
      "d": 84.47570833333884,
      "v": 72
    },
    {
      "midi": 76,
      "hit": false,
      "t": 183693.63456666702,
      "d": 85.68250416667433,
      "v": 72
    },
    {
      "midi": 72,
      "hit": false,
      "t": 183854.13841250035,
      "d": 59.13299583332264,
      "v": 72
    },
    {
      "midi": 74,
      "hit": false,
      "t": 183854.13841250035,
      "d": 432.03290833331994,
      "v": 72
    },
    {
      "midi": 71,
      "hit": false,
      "t": 183872.24035000036,
      "d": 415.13776666665217,
      "v": 72
    },
    {
      "midi": 41,
      "hit": false,
      "t": 183967.57722083334,
      "d": 445.30766250001034,
      "v": 96
    },
    {
      "midi": 72,
      "hit": false,
      "t": 184269.276179167,
      "d": 159.29705000002286,
      "v": 72
    },
    {
      "midi": 69,
      "hit": false,
      "t": 184287.378116667,
      "d": 133.95433750000666,
      "v": 72
    },
    {
      "midi": 41,
      "hit": false,
      "t": 184548.0460166667,
      "d": 567.1940416666621,
      "v": 96
    },
    {
      "midi": 72,
      "hit": false,
      "t": 184557.7003833337,
      "d": 89.3028916666517,
      "v": 72
    },
    {
      "midi": 76,
      "hit": false,
      "t": 184574.59552500036,
      "d": 63.9601791666646,
      "v": 72
    },
    {
      "midi": 72,
      "hit": false,
      "t": 184698.89549583368,
      "d": 95.33687083332916,
      "v": 72
    },
    {
      "midi": 76,
      "hit": false,
      "t": 184703.72267916703,
      "d": 90.5096874999872,
      "v": 72
    },
    {
      "midi": 72,
      "hit": false,
      "t": 184859.399341667,
      "d": 98.95725833333563,
      "v": 72
    },
    {
      "midi": 76,
      "hit": false,
      "t": 184864.22652500035,
      "d": 79.64852499999688,
      "v": 72
    },
    {
      "midi": 74,
      "hit": false,
      "t": 185012.66241250036,
      "d": 430.82611249998445,
      "v": 72
    },
    {
      "midi": 71,
      "hit": false,
      "t": 185021.10998333368,
      "d": 388.5882583333296,
      "v": 72
    },
    {
      "midi": 72,
      "hit": false,
      "t": 185040.41871666702,
      "d": 32.58348750000005,
      "v": 72
    },
    {
      "midi": 43,
      "hit": false,
      "t": 185128.5148125,
      "d": 389.79505416666507,
      "v": 96
    },
    {
      "midi": 45,
      "hit": false,
      "t": 185441.07493333335,
      "d": 188.26014999998733,
      "v": 96
    },
    {
      "midi": 69,
      "hit": false,
      "t": 185448.31570833368,
      "d": 167.7446208333422,
      "v": 72
    },
    {
      "midi": 72,
      "hit": false,
      "t": 185449.52250416702,
      "d": 131.54074583333568,
      "v": 72
    },
    {
      "midi": 47,
      "hit": false,
      "t": 185576.23606666666,
      "d": 143.60870416666148,
      "v": 96
    },
    {
      "midi": 48,
      "hit": false,
      "t": 185741.56709583334,
      "d": 509.26784166667494,
      "v": 96
    },
    {
      "midi": 64,
      "hit": false,
      "t": 185741.56709583369,
      "d": 283.5970208333456,
      "v": 96
    },
    {
      "midi": 60,
      "hit": false,
      "t": 185741.56709583369,
      "d": 325.83487500000047,
      "v": 96
    },
    {
      "midi": 59,
      "hit": false,
      "t": 186179.63398333368,
      "d": 314.97371250001015,
      "v": 96
    },
    {
      "midi": 62,
      "hit": false,
      "t": 186185.66796250036,
      "d": 302.90575416665524,
      "v": 96
    },
    {
      "midi": 47,
      "hit": false,
      "t": 186260.48930416667,
      "d": 633.5678124999977,
      "v": 96
    },
    {
      "midi": 57,
      "hit": false,
      "t": 186624.9416458337,
      "d": 417.55135833332315,
      "v": 96
    },
    {
      "midi": 60,
      "hit": false,
      "t": 186633.389216667,
      "d": 415.1377666666813,
      "v": 96
    },
    {
      "midi": 45,
      "hit": false,
      "t": 186895.2639125,
      "d": 579.2619999999879,
      "v": 96
    },
    {
      "midi": 57,
      "hit": false,
      "t": 187199.37646250037,
      "d": 301.69895833331975,
      "v": 96
    },
    {
      "midi": 60,
      "hit": false,
      "t": 187207.8240333337,
      "d": 299.2853666666779,
      "v": 96
    },
    {
      "midi": 43,
      "hit": false,
      "t": 187461.25115833333,
      "d": 610.6386916666816,
      "v": 96
    },
    {
      "midi": 59,
      "hit": false,
      "t": 187616.9278208337,
      "d": 199.12131249997765,
      "v": 96
    },
    {
      "midi": 55,
      "hit": false,
      "t": 187625.375391667,
      "d": 196.70772083333577,
      "v": 96
    },
    {
      "midi": 53,
      "hit": false,
      "t": 188039.30636250036,
      "d": 1504.8744041666796,
      "v": 96
    },
    {
      "midi": 57,
      "hit": false,
      "t": 188047.75393333368,
      "d": 1503.6676083333732,
      "v": 96
    },
    {
      "midi": 41,
      "hit": false,
      "t": 188048.96072916666,
      "d": 384.9678708333522,
      "v": 96
    },
    {
      "midi": 72,
      "hit": false,
      "t": 188048.960729167,
      "d": 91.71648333332269,
      "v": 96
    },
    {
      "midi": 76,
      "hit": false,
      "t": 188048.960729167,
      "d": 92.92327916665818,
      "v": 96
    },
    {
      "midi": 72,
      "hit": false,
      "t": 188187.74225000033,
      "d": 90.5096874999872,
      "v": 72
    },
    {
      "midi": 76,
      "hit": false,
      "t": 188197.39661666699,
      "d": 72.40775000001304,
      "v": 72
    },
    {
      "midi": 72,
      "hit": false,
      "t": 188322.90338333364,
      "d": 103.7844416666776,
      "v": 72
    },
    {
      "midi": 76,
      "hit": false,
      "t": 188322.90338333364,
      "d": 103.7844416666776,
      "v": 72
    },
    {
      "midi": 74,
      "hit": false,
      "t": 188472.54606666698,
      "d": 260.6679000000004,
      "v": 72
    },
    {
      "midi": 71,
      "hit": false,
      "t": 188491.85480000032,
      "d": 222.05043333332287,
      "v": 72
    },
    {
      "midi": 41,
      "hit": false,
      "t": 188590.81205833334,
      "d": 460.9960083333426,
      "v": 96
    },
    {
      "midi": 72,
      "hit": false,
      "t": 188870.788691667,
      "d": 181.0193750000035,
      "v": 72
    },
    {
      "midi": 69,
      "hit": false,
      "t": 188878.029466667,
      "d": 173.77859999999055,
      "v": 72
    },
    {
      "midi": 72,
      "hit": false,
      "t": 189171.280854167,
      "d": 89.30289166668081,
      "v": 72
    },
    {
      "midi": 76,
      "hit": false,
      "t": 189172.48765000034,
      "d": 96.54366666666465,
      "v": 72
    },
    {
      "midi": 41,
      "hit": false,
      "t": 189194.209975,
      "d": 591.3299583333428,
      "v": 96
    },
    {
      "midi": 76,
      "hit": false,
      "t": 189297.994416667,
      "d": 118.26599166667438,
      "v": 72
    },
    {
      "midi": 72,
      "hit": false,
      "t": 189316.096354167,
      "d": 88.09609583334532,
      "v": 72
    },
    {
      "midi": 72,
      "hit": false,
      "t": 189470.5662208337,
      "d": 104.99123750001309,
      "v": 72
    },
    {
      "midi": 76,
      "hit": false,
      "t": 189471.77301666702,
      "d": 95.33687083335826,
      "v": 72
    },
    {
      "midi": 74,
      "hit": false,
      "t": 189622.6224958337,
      "d": 468.23678333335556,
      "v": 72
    },
    {
      "midi": 71,
      "hit": false,
      "t": 189676.9283083337,
      "d": 424.7921333333361,
      "v": 72
    },
    {
      "midi": 43,
      "hit": false,
      "t": 189755.37003750002,
      "d": 351.17758750001667,
      "v": 96
    },
    {
      "midi": 55,
      "hit": false,
      "t": 189780.71275000038,
      "d": 311.3533250000037,
      "v": 88
    },
    {
      "midi": 59,
      "hit": false,
      "t": 189800.02148333372,
      "d": 272.7358583333262,
      "v": 88
    },
    {
      "midi": 45,
      "hit": false,
      "t": 190038.96705833336,
      "d": 167.7446208333422,
      "v": 96
    },
    {
      "midi": 72,
      "hit": false,
      "t": 190065.51656666704,
      "d": 156.88345833335188,
      "v": 72
    },
    {
      "midi": 69,
      "hit": false,
      "t": 190083.61850416704,
      "d": 138.78152083334862,
      "v": 72
    },
    {
      "midi": 47,
      "hit": false,
      "t": 190189.81653750004,
      "d": 214.80965833333903,
      "v": 96
    },
    {
      "midi": 48,
      "hit": false,
      "t": 190321.35728333337,
      "d": 578.0552041666524,
      "v": 96
    },
    {
      "midi": 60,
      "hit": false,
      "t": 190349.11358750038,
      "d": 327.04167083333596,
      "v": 96
    },
    {
      "midi": 64,
      "hit": false,
      "t": 190356.3543625004,
      "d": 284.803816666652,
      "v": 96
    },
    {
      "midi": 62,
      "hit": false,
      "t": 190806.48920833372,
      "d": 263.08149166664225,
      "v": 96
    },
    {
      "midi": 59,
      "hit": false,
      "t": 190819.76396250038,
      "d": 257.0475124999939,
      "v": 96
    },
    {
      "midi": 60,
      "hit": false,
      "t": 190828.2115333337,
      "d": 66.37377083333558,
      "v": 96
    },
    {
      "midi": 47,
      "hit": false,
      "t": 190890.9649166667,
      "d": 588.9163666666718,
      "v": 96
    },
    {
      "midi": 60,
      "hit": false,
      "t": 191228.86775000038,
      "d": 347.5572000000102,
      "v": 96
    },
    {
      "midi": 57,
      "hit": false,
      "t": 191228.86775000038,
      "d": 354.79797500002314,
      "v": 96
    },
    {
      "midi": 45,
      "hit": false,
      "t": 191504.01720000006,
      "d": 603.3979166666977,
      "v": 96
    },
    {
      "midi": 57,
      "hit": false,
      "t": 191773.13267083376,
      "d": 300.49216249998426,
      "v": 96
    },
    {
      "midi": 60,
      "hit": false,
      "t": 191798.47538333375,
      "d": 261.87469583333586,
      "v": 96
    },
    {
      "midi": 43,
      "hit": false,
      "t": 192086.89958750008,
      "d": 556.3328791667009,
      "v": 96
    },
    {
      "midi": 55,
      "hit": false,
      "t": 192213.6131500004,
      "d": 246.18635000000359,
      "v": 96
    },
    {
      "midi": 59,
      "hit": false,
      "t": 192222.06072083372,
      "d": 253.42712500001653,
      "v": 96
    },
    {
      "midi": 53,
      "hit": false,
      "t": 192650.47324166706,
      "d": 2122.753870833287,
      "v": 88
    },
    {
      "midi": 57,
      "hit": false,
      "t": 192658.92081250038,
      "d": 2122.753870833287,
      "v": 88
    },
    {
      "midi": 72,
      "hit": false,
      "t": 192667.3683833337,
      "d": 85.68250416664523,
      "v": 72
    },
    {
      "midi": 76,
      "hit": false,
      "t": 192677.02275000035,
      "d": 76.02813749999041,
      "v": 72
    },
    {
      "midi": 41,
      "hit": false,
      "t": 192684.2635250001,
      "d": 340.31642499999725,
      "v": 96
    },
    {
      "midi": 76,
      "hit": false,
      "t": 192803.73631250035,
      "d": 91.71648333332269,
      "v": 72
    },
    {
      "midi": 72,
      "hit": false,
      "t": 192803.73631250035,
      "d": 102.577645833313,
      "v": 72
    },
    {
      "midi": 72,
      "hit": false,
      "t": 192961.82656666698,
      "d": 84.47570833333884,
      "v": 72
    },
    {
      "midi": 76,
      "hit": false,
      "t": 192961.82656666698,
      "d": 85.68250416667433,
      "v": 72
    },
    {
      "midi": 72,
      "hit": false,
      "t": 193122.3304125003,
      "d": 59.13299583335174,
      "v": 72
    },
    {
      "midi": 74,
      "hit": false,
      "t": 193122.3304125003,
      "d": 432.03290833334904,
      "v": 72
    },
    {
      "midi": 71,
      "hit": false,
      "t": 193140.4323500003,
      "d": 415.1377666666813,
      "v": 72
    },
    {
      "midi": 41,
      "hit": false,
      "t": 193235.76922083343,
      "d": 445.30766250001034,
      "v": 96
    },
    {
      "midi": 72,
      "hit": false,
      "t": 193537.468179167,
      "d": 159.29705000002286,
      "v": 72
    },
    {
      "midi": 69,
      "hit": false,
      "t": 193555.570116667,
      "d": 133.95433750000666,
      "v": 72
    },
    {
      "midi": 41,
      "hit": false,
      "t": 193816.2380166668,
      "d": 567.1940416666621,
      "v": 96
    },
    {
      "midi": 72,
      "hit": false,
      "t": 193825.89238333367,
      "d": 89.3028916666517,
      "v": 72
    },
    {
      "midi": 76,
      "hit": false,
      "t": 193842.78752500034,
      "d": 63.9601791666646,
      "v": 72
    },
    {
      "midi": 72,
      "hit": false,
      "t": 193967.08749583366,
      "d": 95.33687083335826,
      "v": 72
    },
    {
      "midi": 76,
      "hit": false,
      "t": 193971.914679167,
      "d": 90.5096875000163,
      "v": 72
    },
    {
      "midi": 72,
      "hit": false,
      "t": 194127.59134166702,
      "d": 98.95725833333563,
      "v": 72
    },
    {
      "midi": 76,
      "hit": false,
      "t": 194132.41852500036,
      "d": 79.64852499999688,
      "v": 72
    },
    {
      "midi": 74,
      "hit": false,
      "t": 194280.85441250037,
      "d": 430.82611249998445,
      "v": 72
    },
    {
      "midi": 71,
      "hit": false,
      "t": 194289.3019833337,
      "d": 388.5882583333296,
      "v": 72
    },
    {
      "midi": 72,
      "hit": false,
      "t": 194308.61071666703,
      "d": 32.58348750000005,
      "v": 72
    },
    {
      "midi": 43,
      "hit": false,
      "t": 194396.7068125001,
      "d": 389.7950541666942,
      "v": 96
    },
    {
      "midi": 45,
      "hit": false,
      "t": 194709.26693333345,
      "d": 188.26015000001644,
      "v": 96
    },
    {
      "midi": 69,
      "hit": false,
      "t": 194716.5077083337,
      "d": 167.7446208333131,
      "v": 72
    },
    {
      "midi": 72,
      "hit": false,
      "t": 194717.71450416703,
      "d": 131.54074583330657,
      "v": 72
    },
    {
      "midi": 47,
      "hit": false,
      "t": 194844.4280666668,
      "d": 143.60870416666148,
      "v": 96
    },
    {
      "midi": 48,
      "hit": false,
      "t": 195009.75909583346,
      "d": 509.26784166667494,
      "v": 96
    },
    {
      "midi": 64,
      "hit": false,
      "t": 195009.75909583367,
      "d": 283.5970208333456,
      "v": 96
    },
    {
      "midi": 60,
      "hit": false,
      "t": 195009.75909583367,
      "d": 325.83487500000047,
      "v": 96
    },
    {
      "midi": 59,
      "hit": false,
      "t": 195447.82598333366,
      "d": 314.97371250001015,
      "v": 96
    },
    {
      "midi": 62,
      "hit": false,
      "t": 195453.85996250034,
      "d": 302.90575416665524,
      "v": 96
    },
    {
      "midi": 47,
      "hit": false,
      "t": 195528.6813041668,
      "d": 633.5678124999977,
      "v": 96
    },
    {
      "midi": 57,
      "hit": false,
      "t": 195893.13364583367,
      "d": 417.55135833332315,
      "v": 96
    },
    {
      "midi": 60,
      "hit": false,
      "t": 195901.581216667,
      "d": 415.1377666666813,
      "v": 96
    },
    {
      "midi": 45,
      "hit": false,
      "t": 196163.45591250013,
      "d": 579.262000000017,
      "v": 96
    },
    {
      "midi": 57,
      "hit": false,
      "t": 196467.56846250035,
      "d": 301.69895833331975,
      "v": 96
    },
    {
      "midi": 60,
      "hit": false,
      "t": 196476.01603333367,
      "d": 299.2853666666779,
      "v": 96
    },
    {
      "midi": 43,
      "hit": false,
      "t": 196729.44315833348,
      "d": 610.6386916666816,
      "v": 96
    },
    {
      "midi": 59,
      "hit": false,
      "t": 196885.11982083367,
      "d": 199.12131249997765,
      "v": 96
    },
    {
      "midi": 55,
      "hit": false,
      "t": 196893.567391667,
      "d": 196.70772083333577,
      "v": 96
    },
    {
      "midi": 53,
      "hit": false,
      "t": 197307.4983625003,
      "d": 1504.8744041666214,
      "v": 96
    },
    {
      "midi": 57,
      "hit": false,
      "t": 197315.94593333363,
      "d": 1503.667608333315,
      "v": 96
    },
    {
      "midi": 41,
      "hit": false,
      "t": 197317.15272916682,
      "d": 384.9678708333231,
      "v": 96
    },
    {
      "midi": 72,
      "hit": false,
      "t": 197317.15272916696,
      "d": 91.71648333332269,
      "v": 96
    },
    {
      "midi": 76,
      "hit": false,
      "t": 197317.15272916696,
      "d": 92.92327916665818,
      "v": 96
    },
    {
      "midi": 72,
      "hit": false,
      "t": 197455.93425000028,
      "d": 90.50968749995809,
      "v": 88
    },
    {
      "midi": 76,
      "hit": false,
      "t": 197465.58861666694,
      "d": 72.40774999998393,
      "v": 88
    },
    {
      "midi": 72,
      "hit": false,
      "t": 197591.09538333357,
      "d": 103.7844416666776,
      "v": 88
    },
    {
      "midi": 76,
      "hit": false,
      "t": 197591.09538333357,
      "d": 103.7844416666776,
      "v": 88
    },
    {
      "midi": 74,
      "hit": false,
      "t": 197740.7380666669,
      "d": 260.6679000000004,
      "v": 88
    },
    {
      "midi": 71,
      "hit": false,
      "t": 197760.04680000024,
      "d": 222.05043333332287,
      "v": 88
    },
    {
      "midi": 41,
      "hit": false,
      "t": 197859.0040583335,
      "d": 460.9960083333426,
      "v": 96
    },
    {
      "midi": 72,
      "hit": false,
      "t": 198138.98069166692,
      "d": 181.0193750000326,
      "v": 88
    },
    {
      "midi": 69,
      "hit": false,
      "t": 198146.22146666693,
      "d": 173.77860000001965,
      "v": 88
    },
    {
      "midi": 72,
      "hit": false,
      "t": 198439.47285416693,
      "d": 89.30289166668081,
      "v": 88
    },
    {
      "midi": 76,
      "hit": false,
      "t": 198440.67965000027,
      "d": 96.54366666666465,
      "v": 88
    },
    {
      "midi": 41,
      "hit": false,
      "t": 198462.40197500016,
      "d": 591.3299583333428,
      "v": 96
    },
    {
      "midi": 76,
      "hit": false,
      "t": 198566.18641666693,
      "d": 118.26599166667438,
      "v": 88
    },
    {
      "midi": 72,
      "hit": false,
      "t": 198584.28835416693,
      "d": 88.09609583334532,
      "v": 88
    },
    {
      "midi": 72,
      "hit": false,
      "t": 198738.7582208336,
      "d": 104.99123749998398,
      "v": 88
    },
    {
      "midi": 76,
      "hit": false,
      "t": 198739.96501666695,
      "d": 95.33687083332916,
      "v": 88
    },
    {
      "midi": 74,
      "hit": false,
      "t": 198890.8144958336,
      "d": 468.23678333338466,
      "v": 88
    },
    {
      "midi": 71,
      "hit": false,
      "t": 198945.1203083336,
      "d": 424.7921333333652,
      "v": 88
    },
    {
      "midi": 43,
      "hit": false,
      "t": 199023.56203750017,
      "d": 351.17758749998757,
      "v": 96
    },
    {
      "midi": 55,
      "hit": false,
      "t": 199048.90475000028,
      "d": 311.3533250000328,
      "v": 88
    },
    {
      "midi": 59,
      "hit": false,
      "t": 199068.21348333362,
      "d": 272.7358583333553,
      "v": 88
    },
    {
      "midi": 45,
      "hit": false,
      "t": 199307.1590583335,
      "d": 167.7446208333422,
      "v": 96
    },
    {
      "midi": 72,
      "hit": false,
      "t": 199333.70856666696,
      "d": 156.88345833335188,
      "v": 88
    },
    {
      "midi": 69,
      "hit": false,
      "t": 199351.81050416696,
      "d": 138.78152083334862,
      "v": 88
    },
    {
      "midi": 47,
      "hit": false,
      "t": 199458.00853750017,
      "d": 214.80965833333903,
      "v": 96
    },
    {
      "midi": 48,
      "hit": false,
      "t": 199589.5492833335,
      "d": 578.0552041666524,
      "v": 96
    },
    {
      "midi": 60,
      "hit": false,
      "t": 199617.3055875003,
      "d": 327.04167083333596,
      "v": 96
    },
    {
      "midi": 64,
      "hit": false,
      "t": 199624.54636250032,
      "d": 284.803816666652,
      "v": 96
    },
    {
      "midi": 62,
      "hit": false,
      "t": 200074.68120833364,
      "d": 263.08149166664225,
      "v": 96
    },
    {
      "midi": 59,
      "hit": false,
      "t": 200087.9559625003,
      "d": 257.0475124999939,
      "v": 96
    },
    {
      "midi": 60,
      "hit": false,
      "t": 200096.40353333362,
      "d": 66.37377083333558,
      "v": 96
    },
    {
      "midi": 47,
      "hit": false,
      "t": 200159.15691666683,
      "d": 588.9163666666427,
      "v": 96
    },
    {
      "midi": 60,
      "hit": false,
      "t": 200497.05975000028,
      "d": 347.5572000000102,
      "v": 96
    },
    {
      "midi": 57,
      "hit": false,
      "t": 200497.05975000028,
      "d": 354.79797500002314,
      "v": 96
    },
    {
      "midi": 45,
      "hit": false,
      "t": 200772.20920000016,
      "d": 603.3979166666686,
      "v": 96
    },
    {
      "midi": 57,
      "hit": false,
      "t": 201041.32467083362,
      "d": 300.49216250001336,
      "v": 96
    },
    {
      "midi": 60,
      "hit": false,
      "t": 201066.66738333364,
      "d": 261.87469583333586,
      "v": 96
    },
    {
      "midi": 43,
      "hit": false,
      "t": 201355.09158750015,
      "d": 556.3328791666718,
      "v": 96
    },
    {
      "midi": 55,
      "hit": false,
      "t": 201481.8051500003,
      "d": 246.18634999997448,
      "v": 96
    },
    {
      "midi": 59,
      "hit": false,
      "t": 201490.2527208336,
      "d": 253.42712499998743,
      "v": 96
    },
    {
      "midi": 53,
      "hit": false,
      "t": 201918.66524166695,
      "d": 2122.753870833287,
      "v": 88
    },
    {
      "midi": 57,
      "hit": false,
      "t": 201927.11281250027,
      "d": 2122.753870833287,
      "v": 88
    },
    {
      "midi": 72,
      "hit": false,
      "t": 201935.5603833336,
      "d": 85.68250416664523,
      "v": 88
    },
    {
      "midi": 76,
      "hit": false,
      "t": 201945.21475000025,
      "d": 76.02813749999041,
      "v": 88
    },
    {
      "midi": 41,
      "hit": false,
      "t": 201952.45552500014,
      "d": 340.31642500002636,
      "v": 96
    },
    {
      "midi": 76,
      "hit": false,
      "t": 202071.92831250024,
      "d": 91.71648333335179,
      "v": 88
    },
    {
      "midi": 72,
      "hit": false,
      "t": 202071.92831250024,
      "d": 102.5776458333421,
      "v": 88
    },
    {
      "midi": 72,
      "hit": false,
      "t": 202230.0185666669,
      "d": 84.47570833330974,
      "v": 88
    },
    {
      "midi": 76,
      "hit": false,
      "t": 202230.0185666669,
      "d": 85.68250416664523,
      "v": 88
    },
    {
      "midi": 72,
      "hit": false,
      "t": 202390.5224125002,
      "d": 59.13299583332264,
      "v": 88
    },
    {
      "midi": 74,
      "hit": false,
      "t": 202390.5224125002,
      "d": 432.03290833331994,
      "v": 88
    },
    {
      "midi": 71,
      "hit": false,
      "t": 202408.6243500002,
      "d": 415.13776666665217,
      "v": 88
    },
    {
      "midi": 41,
      "hit": false,
      "t": 202503.9612208335,
      "d": 445.30766249998123,
      "v": 96
    },
    {
      "midi": 72,
      "hit": false,
      "t": 202805.66017916685,
      "d": 159.29705000002286,
      "v": 88
    },
    {
      "midi": 69,
      "hit": false,
      "t": 202823.76211666685,
      "d": 133.95433750000666,
      "v": 88
    },
    {
      "midi": 41,
      "hit": false,
      "t": 203084.4300166668,
      "d": 567.1940416666912,
      "v": 96
    },
    {
      "midi": 72,
      "hit": false,
      "t": 203094.08438333354,
      "d": 89.3028916666517,
      "v": 88
    },
    {
      "midi": 76,
      "hit": false,
      "t": 203110.9795250002,
      "d": 63.9601791666646,
      "v": 88
    },
    {
      "midi": 72,
      "hit": false,
      "t": 203235.27949583353,
      "d": 95.33687083332916,
      "v": 88
    },
    {
      "midi": 76,
      "hit": false,
      "t": 203240.10667916687,
      "d": 90.5096874999872,
      "v": 88
    },
    {
      "midi": 72,
      "hit": false,
      "t": 203395.78334166686,
      "d": 98.95725833333563,
      "v": 88
    },
    {
      "midi": 76,
      "hit": false,
      "t": 203400.6105250002,
      "d": 79.64852499999688,
      "v": 88
    },
    {
      "midi": 74,
      "hit": false,
      "t": 203549.0464125002,
      "d": 430.82611250001355,
      "v": 88
    },
    {
      "midi": 71,
      "hit": false,
      "t": 203557.49398333352,
      "d": 388.5882583333587,
      "v": 88
    },
    {
      "midi": 72,
      "hit": false,
      "t": 203576.80271666686,
      "d": 32.58348750000005,
      "v": 88
    },
    {
      "midi": 43,
      "hit": false,
      "t": 203664.89881250015,
      "d": 389.79505416666507,
      "v": 96
    },
    {
      "midi": 45,
      "hit": false,
      "t": 203977.4589333335,
      "d": 188.26014999998733,
      "v": 96
    },
    {
      "midi": 69,
      "hit": false,
      "t": 203984.69970833356,
      "d": 167.7446208333422,
      "v": 88
    },
    {
      "midi": 72,
      "hit": false,
      "t": 203985.9065041669,
      "d": 131.54074583333568,
      "v": 88
    },
    {
      "midi": 47,
      "hit": false,
      "t": 204112.6200666668,
      "d": 143.60870416666148,
      "v": 96
    },
    {
      "midi": 48,
      "hit": false,
      "t": 204277.95109583347,
      "d": 509.26784166667494,
      "v": 96
    },
    {
      "midi": 64,
      "hit": false,
      "t": 204277.95109583356,
      "d": 283.5970208333456,
      "v": 96
    },
    {
      "midi": 60,
      "hit": false,
      "t": 204277.95109583356,
      "d": 325.83487500000047,
      "v": 96
    }
  ]
}