{
  "jsonPath": "Rock/Soft Rock/Jon Secada/cree-en-nuestro-amor.json",
  "path": "Rock\\Soft Rock\\Jon Secada\\Cree En Nuestro Amor.mid",
  "name": "Cree En Nuestro Amor",
  "difficulty": "Advanced",
  "bpm": 110.00293341155763,
  "notes": [
    {
      "midi": 67,
      "hit": false,
      "t": 6545.280000000002,
      "d": 318.1733333333332,
      "v": 113
    },
    {
      "midi": 58,
      "hit": false,
      "t": 6545.280000000002,
      "d": 678.9591666666665,
      "v": 111
    },
    {
      "midi": 63,
      "hit": false,
      "t": 6545.280000000002,
      "d": 860.7725,
      "v": 113
    },
    {
      "midi": 68,
      "hit": false,
      "t": 6818.000000000002,
      "d": 247.15249999999924,
      "v": 111
    },
    {
      "midi": 70,
      "hit": false,
      "t": 7090.720000000001,
      "d": 508.5091666666667,
      "v": 113
    },
    {
      "midi": 58,
      "hit": false,
      "t": 7363.440000000001,
      "d": 1355.0775000000003,
      "v": 110
    },
    {
      "midi": 63,
      "hit": false,
      "t": 7636.160000000002,
      "d": 332.3775000000005,
      "v": 118
    },
    {
      "midi": 67,
      "hit": false,
      "t": 7908.880000000002,
      "d": 267.03833333333387,
      "v": 115
    },
    {
      "midi": 63,
      "hit": false,
      "t": 8181.600000000002,
      "d": 536.9174999999996,
      "v": 117
    },
    {
      "midi": 77,
      "hit": false,
      "t": 8454.320000000002,
      "d": 534.0766666666659,
      "v": 120
    },
    {
      "midi": 58,
      "hit": false,
      "t": 8727.04,
      "d": 2141.988333333329,
      "v": 111
    },
    {
      "midi": 77,
      "hit": false,
      "t": 8999.76,
      "d": 792.5924999999988,
      "v": 121
    },
    {
      "midi": 70,
      "hit": false,
      "t": 9272.48,
      "d": 1602.2299999999977,
      "v": 98
    },
    {
      "midi": 74,
      "hit": false,
      "t": 9545.199999999999,
      "d": 230.10750000000007,
      "v": 94
    },
    {
      "midi": 80,
      "hit": false,
      "t": 9817.919999999998,
      "d": 224.42583333333278,
      "v": 120
    },
    {
      "midi": 79,
      "hit": false,
      "t": 10090.639999999998,
      "d": 301.1283333333322,
      "v": 107
    },
    {
      "midi": 77,
      "hit": false,
      "t": 10363.359999999997,
      "d": 227.26666666666642,
      "v": 116
    },
    {
      "midi": 77,
      "hit": false,
      "t": 10636.079999999996,
      "d": 525.5541666666686,
      "v": 115
    },
    {
      "midi": 56,
      "hit": false,
      "t": 10908.799999999997,
      "d": 2181.7599999999966,
      "v": 105
    },
    {
      "midi": 79,
      "hit": false,
      "t": 11181.519999999999,
      "d": 494.3049999999985,
      "v": 118
    },
    {
      "midi": 75,
      "hit": false,
      "t": 11454.239999999998,
      "d": 1323.828333333331,
      "v": 123
    },
    {
      "midi": 63,
      "hit": false,
      "t": 11726.959999999997,
      "d": 1329.5099999999984,
      "v": 97
    },
    {
      "midi": 68,
      "hit": false,
      "t": 11999.679999999997,
      "d": 315.3324999999986,
      "v": 110
    },
    {
      "midi": 72,
      "hit": false,
      "t": 12272.399999999996,
      "d": 301.1283333333322,
      "v": 119
    },
    {
      "midi": 68,
      "hit": false,
      "t": 12545.119999999995,
      "d": 480.10083333333387,
      "v": 111
    },
    {
      "midi": 75,
      "hit": false,
      "t": 12817.839999999997,
      "d": 247.15249999999833,
      "v": 113
    },
    {
      "midi": 80,
      "hit": false,
      "t": 13090.559999999994,
      "d": 298.28749999999854,
      "v": 126
    },
    {
      "midi": 56,
      "hit": false,
      "t": 13090.559999999994,
      "d": 1065.3125,
      "v": 120
    },
    {
      "midi": 79,
      "hit": false,
      "t": 13363.279999999993,
      "d": 187.49499999999898,
      "v": 115
    },
    {
      "midi": 79,
      "hit": false,
      "t": 13635.999999999993,
      "d": 232.94833333333372,
      "v": 120
    },
    {
      "midi": 77,
      "hit": false,
      "t": 13908.719999999994,
      "d": 159.08666666666613,
      "v": 121
    },
    {
      "midi": 77,
      "hit": false,
      "t": 14181.439999999993,
      "d": 994.2916666666642,
      "v": 118
    },
    {
      "midi": 58,
      "hit": false,
      "t": 14181.439999999993,
      "d": 1036.9041666666635,
      "v": 116
    },
    {
      "midi": 75,
      "hit": false,
      "t": 14454.159999999993,
      "d": 247.15250000000015,
      "v": 120
    },
    {
      "midi": 72,
      "hit": false,
      "t": 14726.879999999992,
      "d": 474.41916666666475,
      "v": 108
    },
    {
      "midi": 65,
      "hit": false,
      "t": 14999.599999999991,
      "d": 213.06249999999818,
      "v": 89
    },
    {
      "midi": 67,
      "hit": false,
      "t": 15272.31999999999,
      "d": 284.0833333333321,
      "v": 125
    },
    {
      "midi": 51,
      "hit": false,
      "t": 15272.31999999999,
      "d": 2213.009166666665,
      "v": 118
    },
    {
      "midi": 68,
      "hit": false,
      "t": 15545.03999999999,
      "d": 244.3116666666665,
      "v": 119
    },
    {
      "midi": 70,
      "hit": false,
      "t": 15817.75999999999,
      "d": 303.96916666666584,
      "v": 120
    },
    {
      "midi": 58,
      "hit": false,
      "t": 16090.479999999989,
      "d": 1298.2608333333337,
      "v": 109
    },
    {
      "midi": 63,
      "hit": false,
      "t": 16363.199999999988,
      "d": 485.78249999999935,
      "v": 118
    },
    {
      "midi": 68,
      "hit": false,
      "t": 16635.919999999987,
      "d": 298.2875000000022,
      "v": 123
    },
    {
      "midi": 67,
      "hit": false,
      "t": 16908.63999999999,
      "d": 275.560833333333,
      "v": 117
    },
    {
      "midi": 65,
      "hit": false,
      "t": 17181.35999999999,
      "d": 249.99333333333198,
      "v": 112
    },
    {
      "midi": 58,
      "hit": false,
      "t": 17454.079999999987,
      "d": 2141.9883333333382,
      "v": 116
    },
    {
      "midi": 65,
      "hit": false,
      "t": 17726.79999999999,
      "d": 832.3641666666699,
      "v": 110
    },
    {
      "midi": 70,
      "hit": false,
      "t": 17999.51999999999,
      "d": 286.9241666666676,
      "v": 123
    },
    {
      "midi": 74,
      "hit": false,
      "t": 18272.23999999999,
      "d": 1335.1916666666693,
      "v": 119
    },
    {
      "midi": 67,
      "hit": false,
      "t": 18544.959999999992,
      "d": 301.128333333334,
      "v": 119
    },
    {
      "midi": 70,
      "hit": false,
      "t": 18817.679999999993,
      "d": 775.5475000000006,
      "v": 111
    },
    {
      "midi": 65,
      "hit": false,
      "t": 19090.399999999994,
      "d": 528.3950000000004,
      "v": 87
    },
    {
      "midi": 80,
      "hit": false,
      "t": 19635.839999999993,
      "d": 423.28416666666817,
      "v": 116
    },
    {
      "midi": 75,
      "hit": false,
      "t": 19635.839999999993,
      "d": 431.8066666666673,
      "v": 115
    },
    {
      "midi": 72,
      "hit": false,
      "t": 19635.839999999993,
      "d": 443.1700000000019,
      "v": 119
    },
    {
      "midi": 56,
      "hit": false,
      "t": 19635.839999999993,
      "d": 2068.126666666667,
      "v": 110
    },
    {
      "midi": 68,
      "hit": false,
      "t": 20181.279999999995,
      "d": 534.0766666666677,
      "v": 100
    },
    {
      "midi": 67,
      "hit": false,
      "t": 20726.719999999998,
      "d": 249.99333333333198,
      "v": 117
    },
    {
      "midi": 68,
      "hit": false,
      "t": 20999.439999999995,
      "d": 275.560833333333,
      "v": 109
    },
    {
      "midi": 70,
      "hit": false,
      "t": 21272.159999999996,
      "d": 514.1908333333304,
      "v": 109
    },
    {
      "midi": 63,
      "hit": false,
      "t": 21817.599999999995,
      "d": 4264.090833333332,
      "v": 98
    },
    {
      "midi": 67,
      "hit": false,
      "t": 21817.599999999995,
      "d": 4281.13583333333,
      "v": 103
    },
    {
      "midi": 58,
      "hit": false,
      "t": 21817.599999999995,
      "d": 4286.817499999997,
      "v": 98
    },
    {
      "midi": 53,
      "hit": false,
      "t": 26181.11999999999,
      "d": 1230.0808333333334,
      "v": 99
    },
    {
      "midi": 57,
      "hit": false,
      "t": 26181.11999999999,
      "d": 1232.9216666666653,
      "v": 103
    },
    {
      "midi": 64,
      "hit": false,
      "t": 26181.11999999999,
      "d": 1235.762499999997,
      "v": 100
    },
    {
      "midi": 60,
      "hit": false,
      "t": 26181.11999999999,
      "d": 1244.2849999999962,
      "v": 104
    },
    {
      "midi": 53,
      "hit": false,
      "t": 27544.719999999987,
      "d": 147.72333333333518,
      "v": 103
    },
    {
      "midi": 57,
      "hit": false,
      "t": 27681.079999999987,
      "d": 102.27000000000044,
      "v": 100
    },
    {
      "midi": 57,
      "hit": false,
      "t": 27953.79999999999,
      "d": 65.33916666666846,
      "v": 103
    },
    {
      "midi": 53,
      "hit": false,
      "t": 27953.79999999999,
      "d": 71.02083333333576,
      "v": 102
    },
    {
      "midi": 60,
      "hit": false,
      "t": 27953.79999999999,
      "d": 79.54333333333489,
      "v": 103
    },
    {
      "midi": 64,
      "hit": false,
      "t": 27953.79999999999,
      "d": 93.74750000000131,
      "v": 99
    },
    {
      "midi": 53,
      "hit": false,
      "t": 28226.51999999999,
      "d": 1451.6658333333326,
      "v": 99
    },
    {
      "midi": 57,
      "hit": false,
      "t": 28226.51999999999,
      "d": 1457.3474999999999,
      "v": 100
    },
    {
      "midi": 60,
      "hit": false,
      "t": 28226.51999999999,
      "d": 1468.7108333333344,
      "v": 102
    },
    {
      "midi": 64,
      "hit": false,
      "t": 28226.51999999999,
      "d": 1477.2333333333336,
      "v": 94
    },
    {
      "midi": 53,
      "hit": false,
      "t": 29726.47999999999,
      "d": 156.2458333333343,
      "v": 103
    },
    {
      "midi": 57,
      "hit": false,
      "t": 29862.83999999999,
      "d": 113.63333333333503,
      "v": 101
    },
    {
      "midi": 53,
      "hit": false,
      "t": 30135.55999999999,
      "d": 150.564166666667,
      "v": 104
    },
    {
      "midi": 57,
      "hit": false,
      "t": 30135.55999999999,
      "d": 187.49499999999898,
      "v": 101
    },
    {
      "midi": 60,
      "hit": false,
      "t": 30135.55999999999,
      "d": 198.85833333333358,
      "v": 102
    },
    {
      "midi": 64,
      "hit": false,
      "t": 30135.55999999999,
      "d": 201.6991666666654,
      "v": 101
    },
    {
      "midi": 63,
      "hit": false,
      "t": 30544.63999999999,
      "d": 1085.1983333333337,
      "v": 99
    },
    {
      "midi": 56,
      "hit": false,
      "t": 30544.63999999999,
      "d": 1093.7208333333328,
      "v": 100
    },
    {
      "midi": 65,
      "hit": false,
      "t": 30544.63999999999,
      "d": 1099.4025000000001,
      "v": 99
    },
    {
      "midi": 60,
      "hit": false,
      "t": 30544.63999999999,
      "d": 1110.7658333333347,
      "v": 104
    },
    {
      "midi": 60,
      "hit": false,
      "t": 31908.23999999999,
      "d": 161.9275000000016,
      "v": 104
    },
    {
      "midi": 63,
      "hit": false,
      "t": 31908.23999999999,
      "d": 161.9275000000016,
      "v": 98
    },
    {
      "midi": 56,
      "hit": false,
      "t": 31908.23999999999,
      "d": 164.76833333333343,
      "v": 98
    },
    {
      "midi": 65,
      "hit": false,
      "t": 31908.23999999999,
      "d": 176.13166666666802,
      "v": 99
    },
    {
      "midi": 56,
      "hit": false,
      "t": 32317.319999999992,
      "d": 127.83750000000146,
      "v": 98
    },
    {
      "midi": 60,
      "hit": false,
      "t": 32317.319999999992,
      "d": 142.04166666666788,
      "v": 104
    },
    {
      "midi": 63,
      "hit": false,
      "t": 32317.319999999992,
      "d": 142.04166666666788,
      "v": 96
    },
    {
      "midi": 65,
      "hit": false,
      "t": 32317.319999999992,
      "d": 150.564166666667,
      "v": 100
    },
    {
      "midi": 55,
      "hit": false,
      "t": 32590.039999999994,
      "d": 1974.3791666666657,
      "v": 106
    },
    {
      "midi": 58,
      "hit": false,
      "t": 32590.039999999994,
      "d": 1980.0608333333294,
      "v": 102
    },
    {
      "midi": 62,
      "hit": false,
      "t": 32590.039999999994,
      "d": 1980.0608333333294,
      "v": 100
    },
    {
      "midi": 51,
      "hit": false,
      "t": 32590.039999999994,
      "d": 1985.742499999993,
      "v": 103
    },
    {
      "midi": 60,
      "hit": false,
      "t": 34635.43999999999,
      "d": 1428.9391666666634,
      "v": 103
    },
    {
      "midi": 55,
      "hit": false,
      "t": 34635.43999999999,
      "d": 1431.7799999999988,
      "v": 101
    },
    {
      "midi": 63,
      "hit": false,
      "t": 34635.43999999999,
      "d": 1434.6208333333343,
      "v": 98
    },
    {
      "midi": 56,
      "hit": false,
      "t": 34635.43999999999,
      "d": 1457.3475000000035,
      "v": 100
    },
    {
      "midi": 55,
      "hit": false,
      "t": 36271.759999999995,
      "d": 176.13166666666802,
      "v": 109
    },
    {
      "midi": 56,
      "hit": false,
      "t": 36408.119999999995,
      "d": 119.31500000000233,
      "v": 101
    },
    {
      "midi": 55,
      "hit": false,
      "t": 36680.84,
      "d": 142.04166666666424,
      "v": 102
    },
    {
      "midi": 63,
      "hit": false,
      "t": 36680.84,
      "d": 144.8824999999997,
      "v": 98
    },
    {
      "midi": 56,
      "hit": false,
      "t": 36680.84,
      "d": 161.92749999999796,
      "v": 101
    },
    {
      "midi": 60,
      "hit": false,
      "t": 36680.84,
      "d": 164.76833333333343,
      "v": 103
    },
    {
      "midi": 53,
      "hit": false,
      "t": 37089.92,
      "d": 1681.7733333333308,
      "v": 96
    },
    {
      "midi": 58,
      "hit": false,
      "t": 37089.92,
      "d": 1690.29583333333,
      "v": 96
    },
    {
      "midi": 62,
      "hit": false,
      "t": 37089.92,
      "d": 1744.2716666666602,
      "v": 95
    },
    {
      "midi": 55,
      "hit": false,
      "t": 38998.95999999999,
      "d": 207.38083333333634,
      "v": 101
    },
    {
      "midi": 60,
      "hit": false,
      "t": 38998.95999999999,
      "d": 224.4258333333346,
      "v": 103
    },
    {
      "midi": 63,
      "hit": false,
      "t": 38998.95999999999,
      "d": 232.94833333333372,
      "v": 101
    },
    {
      "midi": 63,
      "hit": false,
      "t": 39271.67999999999,
      "d": 1812.4516666666677,
      "v": 101
    },
    {
      "midi": 55,
      "hit": false,
      "t": 39271.67999999999,
      "d": 1835.178333333337,
      "v": 100
    },
    {
      "midi": 60,
      "hit": false,
      "t": 39271.67999999999,
      "d": 1863.5866666666698,
      "v": 104
    },
    {
      "midi": 53,
      "hit": false,
      "t": 41180.719999999994,
      "d": 196.01750000000175,
      "v": 98
    },
    {
      "midi": 58,
      "hit": false,
      "t": 41180.719999999994,
      "d": 218.74416666667094,
      "v": 93
    },
    {
      "midi": 62,
      "hit": false,
      "t": 41180.719999999994,
      "d": 218.74416666667094,
      "v": 96
    },
    {
      "midi": 58,
      "hit": false,
      "t": 41453.439999999995,
      "d": 147.72333333333518,
      "v": 103
    },
    {
      "midi": 65,
      "hit": false,
      "t": 41453.439999999995,
      "d": 2065.285833333335,
      "v": 100
    },
    {
      "midi": 53,
      "hit": false,
      "t": 41453.439999999995,
      "d": 2073.8083333333343,
      "v": 104
    },
    {
      "midi": 62,
      "hit": false,
      "t": 41453.439999999995,
      "d": 2082.3308333333334,
      "v": 102
    },
    {
      "midi": 58,
      "hit": false,
      "t": 41726.159999999996,
      "d": 1798.2474999999977,
      "v": 106
    },
    {
      "midi": 55,
      "hit": false,
      "t": 43635.2,
      "d": 312.4916666666686,
      "v": 110
    },
    {
      "midi": 58,
      "hit": false,
      "t": 43635.2,
      "d": 315.3325000000041,
      "v": 110
    },
    {
      "midi": 63,
      "hit": false,
      "t": 43635.2,
      "d": 315.3325000000041,
      "v": 113
    },
    {
      "midi": 58,
      "hit": false,
      "t": 44044.28,
      "d": 62.49833333333663,
      "v": 109
    },
    {
      "midi": 63,
      "hit": false,
      "t": 44044.28,
      "d": 62.49833333333663,
      "v": 110
    },
    {
      "midi": 55,
      "hit": false,
      "t": 44044.28,
      "d": 71.02083333333576,
      "v": 110
    },
    {
      "midi": 62,
      "hit": false,
      "t": 44453.36,
      "d": 710.2083333333358,
      "v": 108
    },
    {
      "midi": 53,
      "hit": false,
      "t": 44453.36,
      "d": 718.7308333333349,
      "v": 110
    },
    {
      "midi": 58,
      "hit": false,
      "t": 44453.36,
      "d": 744.2983333333323,
      "v": 109
    },
    {
      "midi": 62,
      "hit": false,
      "t": 45271.52,
      "d": 380.6716666666689,
      "v": 107
    },
    {
      "midi": 53,
      "hit": false,
      "t": 45271.52,
      "d": 389.194166666668,
      "v": 108
    },
    {
      "midi": 58,
      "hit": false,
      "t": 45271.52,
      "d": 397.71666666666715,
      "v": 107
    },
    {
      "midi": 53,
      "hit": false,
      "t": 45816.96,
      "d": 321.01416666666773,
      "v": 109
    },
    {
      "midi": 62,
      "hit": false,
      "t": 45816.96,
      "d": 357.9449999999997,
      "v": 108
    },
    {
      "midi": 58,
      "hit": false,
      "t": 45816.96,
      "d": 417.6025000000009,
      "v": 109
    },
    {
      "midi": 56,
      "hit": false,
      "t": 46226.04,
      "d": 56.8166666666657,
      "v": 103
    },
    {
      "midi": 51,
      "hit": false,
      "t": 46226.04,
      "d": 62.498333333329356,
      "v": 110
    },
    {
      "midi": 60,
      "hit": false,
      "t": 46226.04,
      "d": 113.6333333333314,
      "v": 108
    },
    {
      "midi": 60,
      "hit": false,
      "t": 46635.119999999995,
      "d": 633.5058333333363,
      "v": 113
    },
    {
      "midi": 56,
      "hit": false,
      "t": 46635.119999999995,
      "d": 661.9141666666692,
      "v": 107
    },
    {
      "midi": 51,
      "hit": false,
      "t": 46635.119999999995,
      "d": 687.4816666666666,
      "v": 110
    },
    {
      "midi": 60,
      "hit": false,
      "t": 47453.28,
      "d": 161.92749999999796,
      "v": 113
    },
    {
      "midi": 56,
      "hit": false,
      "t": 47589.64,
      "d": 147.72333333333518,
      "v": 109
    },
    {
      "midi": 51,
      "hit": false,
      "t": 47726,
      "d": 153.40499999999884,
      "v": 116
    },
    {
      "midi": 63,
      "hit": false,
      "t": 47862.36,
      "d": 22.726666666661913,
      "v": 76
    },
    {
      "midi": 63,
      "hit": false,
      "t": 47998.719999999994,
      "d": 301.128333333334,
      "v": 110
    },
    {
      "midi": 55,
      "hit": false,
      "t": 47998.719999999994,
      "d": 312.4916666666686,
      "v": 111
    },
    {
      "midi": 58,
      "hit": false,
      "t": 47998.719999999994,
      "d": 323.8550000000032,
      "v": 109
    },
    {
      "midi": 58,
      "hit": false,
      "t": 48407.799999999996,
      "d": 51.13500000000204,
      "v": 107
    },
    {
      "midi": 63,
      "hit": false,
      "t": 48407.799999999996,
      "d": 59.657500000001164,
      "v": 106
    },
    {
      "midi": 55,
      "hit": false,
      "t": 48407.799999999996,
      "d": 71.02083333333576,
      "v": 111
    },
    {
      "midi": 53,
      "hit": false,
      "t": 48816.88,
      "d": 735.7758333333331,
      "v": 111
    },
    {
      "midi": 62,
      "hit": false,
      "t": 48816.88,
      "d": 738.6166666666686,
      "v": 107
    },
    {
      "midi": 58,
      "hit": false,
      "t": 48816.88,
      "d": 764.184166666666,
      "v": 109
    },
    {
      "midi": 62,
      "hit": false,
      "t": 49635.03999999999,
      "d": 363.62666666666337,
      "v": 109
    },
    {
      "midi": 53,
      "hit": false,
      "t": 49635.03999999999,
      "d": 366.46749999999884,
      "v": 110
    },
    {
      "midi": 58,
      "hit": false,
      "t": 49635.03999999999,
      "d": 394.8758333333317,
      "v": 109
    },
    {
      "midi": 53,
      "hit": false,
      "t": 50180.47999999999,
      "d": 326.6958333333314,
      "v": 108
    },
    {
      "midi": 62,
      "hit": false,
      "t": 50180.47999999999,
      "d": 360.7858333333279,
      "v": 105
    },
    {
      "midi": 58,
      "hit": false,
      "t": 50180.47999999999,
      "d": 431.80666666666366,
      "v": 106
    },
    {
      "midi": 51,
      "hit": false,
      "t": 50589.55999999998,
      "d": 59.657500000001164,
      "v": 116
    },
    {
      "midi": 56,
      "hit": false,
      "t": 50589.55999999998,
      "d": 82.38416666667035,
      "v": 106
    },
    {
      "midi": 60,
      "hit": false,
      "t": 50589.55999999998,
      "d": 119.31500000000233,
      "v": 109
    },
    {
      "midi": 60,
      "hit": false,
      "t": 50998.639999999985,
      "d": 1053.9491666666654,
      "v": 113
    },
    {
      "midi": 56,
      "hit": false,
      "t": 50998.639999999985,
      "d": 1068.1533333333355,
      "v": 108
    },
    {
      "midi": 51,
      "hit": false,
      "t": 50998.639999999985,
      "d": 1073.8349999999991,
      "v": 110
    },
    {
      "midi": 55,
      "hit": false,
      "t": 52362.23999999998,
      "d": 298.28749999999854,
      "v": 110
    },
    {
      "midi": 63,
      "hit": false,
      "t": 52362.23999999998,
      "d": 301.128333333334,
      "v": 110
    },
    {
      "midi": 58,
      "hit": false,
      "t": 52362.23999999998,
      "d": 303.9691666666695,
      "v": 108
    },
    {
      "midi": 58,
      "hit": false,
      "t": 52771.319999999985,
      "d": 59.657500000001164,
      "v": 107
    },
    {
      "midi": 55,
      "hit": false,
      "t": 52771.319999999985,
      "d": 62.49833333333663,
      "v": 110
    },
    {
      "midi": 63,
      "hit": false,
      "t": 52771.319999999985,
      "d": 62.49833333333663,
      "v": 106
    },
    {
      "midi": 62,
      "hit": false,
      "t": 53180.39999999999,
      "d": 704.5266666666648,
      "v": 108
    },
    {
      "midi": 53,
      "hit": false,
      "t": 53180.39999999999,
      "d": 713.049166666664,
      "v": 110
    },
    {
      "midi": 58,
      "hit": false,
      "t": 53180.39999999999,
      "d": 732.9349999999977,
      "v": 108
    },
    {
      "midi": 62,
      "hit": false,
      "t": 53998.55999999998,
      "d": 363.62666666666337,
      "v": 107
    },
    {
      "midi": 53,
      "hit": false,
      "t": 53998.55999999998,
      "d": 366.46749999999884,
      "v": 110
    },
    {
      "midi": 58,
      "hit": false,
      "t": 53998.55999999998,
      "d": 383.5124999999971,
      "v": 106
    },
    {
      "midi": 53,
      "hit": false,
      "t": 54543.99999999998,
      "d": 349.4225000000006,
      "v": 107
    },
    {
      "midi": 58,
      "hit": false,
      "t": 54543.99999999998,
      "d": 383.5124999999971,
      "v": 108
    },
    {
      "midi": 62,
      "hit": false,
      "t": 54543.99999999998,
      "d": 386.35333333333256,
      "v": 108
    },
    {
      "midi": 56,
      "hit": false,
      "t": 54953.07999999998,
      "d": 53.97583333333023,
      "v": 101
    },
    {
      "midi": 51,
      "hit": false,
      "t": 54953.07999999998,
      "d": 62.498333333329356,
      "v": 110
    },
    {
      "midi": 60,
      "hit": false,
      "t": 54953.07999999998,
      "d": 102.2699999999968,
      "v": 109
    },
    {
      "midi": 56,
      "hit": false,
      "t": 55362.159999999974,
      "d": 698.8450000000012,
      "v": 107
    },
    {
      "midi": 60,
      "hit": false,
      "t": 55362.159999999974,
      "d": 698.8450000000012,
      "v": 113
    },
    {
      "midi": 51,
      "hit": false,
      "t": 55362.159999999974,
      "d": 701.6858333333366,
      "v": 109
    },
    {
      "midi": 51,
      "hit": false,
      "t": 56180.31999999998,
      "d": 383.5124999999971,
      "v": 105
    },
    {
      "midi": 60,
      "hit": false,
      "t": 56180.31999999998,
      "d": 394.8758333333317,
      "v": 109
    },
    {
      "midi": 56,
      "hit": false,
      "t": 56180.31999999998,
      "d": 428.9658333333282,
      "v": 106
    },
    {
      "midi": 53,
      "hit": false,
      "t": 56725.75999999997,
      "d": 1980.0608333333366,
      "v": 110
    },
    {
      "midi": 58,
      "hit": false,
      "t": 56725.75999999997,
      "d": 2014.1508333333331,
      "v": 106
    },
    {
      "midi": 62,
      "hit": false,
      "t": 56725.75999999997,
      "d": 2014.1508333333331,
      "v": 108
    },
    {
      "midi": 53,
      "hit": false,
      "t": 58907.519999999975,
      "d": 2082.3308333333334,
      "v": 108
    },
    {
      "midi": 58,
      "hit": false,
      "t": 58907.519999999975,
      "d": 2088.012499999997,
      "v": 109
    },
    {
      "midi": 62,
      "hit": false,
      "t": 58907.519999999975,
      "d": 2093.6941666666607,
      "v": 110
    },
    {
      "midi": 58,
      "hit": false,
      "t": 61089.27999999997,
      "d": 428.96583333333547,
      "v": 108
    },
    {
      "midi": 67,
      "hit": false,
      "t": 61089.27999999997,
      "d": 437.4883333333346,
      "v": 111
    },
    {
      "midi": 63,
      "hit": false,
      "t": 61089.27999999997,
      "d": 451.69250000000466,
      "v": 108
    },
    {
      "midi": 58,
      "hit": false,
      "t": 61634.71999999997,
      "d": 474.41916666666657,
      "v": 109
    },
    {
      "midi": 63,
      "hit": false,
      "t": 61634.71999999997,
      "d": 488.62333333333663,
      "v": 109
    },
    {
      "midi": 67,
      "hit": false,
      "t": 61634.71999999997,
      "d": 497.14583333333576,
      "v": 113
    },
    {
      "midi": 58,
      "hit": false,
      "t": 62452.879999999976,
      "d": 403.3983333333308,
      "v": 108
    },
    {
      "midi": 67,
      "hit": false,
      "t": 62452.879999999976,
      "d": 428.9658333333282,
      "v": 109
    },
    {
      "midi": 63,
      "hit": false,
      "t": 62452.879999999976,
      "d": 446.01083333332645,
      "v": 108
    },
    {
      "midi": 58,
      "hit": false,
      "t": 62998.31999999997,
      "d": 1102.243333333332,
      "v": 106
    },
    {
      "midi": 62,
      "hit": false,
      "t": 62998.31999999997,
      "d": 1122.1291666666657,
      "v": 108
    },
    {
      "midi": 65,
      "hit": false,
      "t": 62998.31999999997,
      "d": 1124.9700000000012,
      "v": 108
    },
    {
      "midi": 58,
      "hit": false,
      "t": 64361.91999999997,
      "d": 471.5783333333311,
      "v": 105
    },
    {
      "midi": 67,
      "hit": false,
      "t": 64361.91999999997,
      "d": 499.98666666666395,
      "v": 108
    },
    {
      "midi": 62,
      "hit": false,
      "t": 64361.91999999997,
      "d": 514.190833333334,
      "v": 108
    },
    {
      "midi": 58,
      "hit": false,
      "t": 64907.35999999997,
      "d": 443.16999999999825,
      "v": 103
    },
    {
      "midi": 65,
      "hit": false,
      "t": 64907.35999999997,
      "d": 460.2149999999965,
      "v": 108
    },
    {
      "midi": 62,
      "hit": false,
      "t": 64907.35999999997,
      "d": 465.89666666666017,
      "v": 102
    },
    {
      "midi": 56,
      "hit": false,
      "t": 65452.79999999997,
      "d": 434.6474999999991,
      "v": 106
    },
    {
      "midi": 60,
      "hit": false,
      "t": 65452.79999999997,
      "d": 448.8516666666619,
      "v": 111
    },
    {
      "midi": 63,
      "hit": false,
      "t": 65452.79999999997,
      "d": 460.21499999998923,
      "v": 107
    },
    {
      "midi": 56,
      "hit": false,
      "t": 65998.23999999996,
      "d": 960.2016666666605,
      "v": 106
    },
    {
      "midi": 60,
      "hit": false,
      "t": 65998.23999999996,
      "d": 982.9283333333296,
      "v": 111
    },
    {
      "midi": 63,
      "hit": false,
      "t": 65998.23999999996,
      "d": 997.1324999999924,
      "v": 105
    },
    {
      "midi": 56,
      "hit": false,
      "t": 67089.11999999995,
      "d": 406.2391666666663,
      "v": 105
    },
    {
      "midi": 60,
      "hit": false,
      "t": 67089.11999999995,
      "d": 406.2391666666663,
      "v": 109
    },
    {
      "midi": 63,
      "hit": false,
      "t": 67089.11999999995,
      "d": 411.9208333333372,
      "v": 103
    },
    {
      "midi": 56,
      "hit": false,
      "t": 67634.55999999995,
      "d": 707.367499999993,
      "v": 107
    },
    {
      "midi": 60,
      "hit": false,
      "t": 67634.55999999995,
      "d": 710.2083333333285,
      "v": 110
    },
    {
      "midi": 63,
      "hit": false,
      "t": 67634.55999999995,
      "d": 718.7308333333349,
      "v": 107
    },
    {
      "midi": 56,
      "hit": false,
      "t": 68452.71999999996,
      "d": 144.88250000000698,
      "v": 97
    },
    {
      "midi": 60,
      "hit": false,
      "t": 68452.71999999996,
      "d": 181.81333333333896,
      "v": 107
    },
    {
      "midi": 63,
      "hit": false,
      "t": 68452.71999999996,
      "d": 201.69916666667268,
      "v": 95
    },
    {
      "midi": 58,
      "hit": false,
      "t": 68725.43999999996,
      "d": 505.6683333333349,
      "v": 103
    },
    {
      "midi": 65,
      "hit": false,
      "t": 68725.43999999996,
      "d": 511.3500000000058,
      "v": 102
    },
    {
      "midi": 62,
      "hit": false,
      "t": 68725.43999999996,
      "d": 531.2358333333395,
      "v": 99
    },
    {
      "midi": 58,
      "hit": false,
      "t": 69270.87999999996,
      "d": 409.08000000000175,
      "v": 103
    },
    {
      "midi": 62,
      "hit": false,
      "t": 69270.87999999996,
      "d": 411.9208333333372,
      "v": 102
    },
    {
      "midi": 65,
      "hit": false,
      "t": 69270.87999999996,
      "d": 434.6475000000064,
      "v": 106
    },
    {
      "midi": 67,
      "hit": false,
      "t": 69816.31999999996,
      "d": 457.37416666666104,
      "v": 109
    },
    {
      "midi": 58,
      "hit": false,
      "t": 69816.31999999996,
      "d": 463.055833333332,
      "v": 110
    },
    {
      "midi": 63,
      "hit": false,
      "t": 69816.31999999996,
      "d": 480.10083333333023,
      "v": 107
    },
    {
      "midi": 67,
      "hit": false,
      "t": 70361.75999999997,
      "d": 431.80666666667094,
      "v": 110
    },
    {
      "midi": 58,
      "hit": false,
      "t": 70361.75999999997,
      "d": 437.48833333334187,
      "v": 108
    },
    {
      "midi": 63,
      "hit": false,
      "t": 70361.75999999997,
      "d": 446.0108333333483,
      "v": 107
    },
    {
      "midi": 58,
      "hit": false,
      "t": 70907.19999999998,
      "d": 232.94833333333372,
      "v": 107
    },
    {
      "midi": 63,
      "hit": false,
      "t": 70907.19999999998,
      "d": 292.6058333333349,
      "v": 107
    },
    {
      "midi": 67,
      "hit": false,
      "t": 70907.19999999998,
      "d": 306.8099999999977,
      "v": 109
    },
    {
      "midi": 65,
      "hit": false,
      "t": 71179.91999999998,
      "d": 301.1283333333413,
      "v": 106
    },
    {
      "midi": 58,
      "hit": false,
      "t": 71179.91999999998,
      "d": 355.1041666666715,
      "v": 92
    },
    {
      "midi": 63,
      "hit": false,
      "t": 71452.63999999998,
      "d": 190.3358333333308,
      "v": 102
    },
    {
      "midi": 58,
      "hit": false,
      "t": 71725.35999999999,
      "d": 900.5441666666738,
      "v": 107
    },
    {
      "midi": 65,
      "hit": false,
      "t": 71725.35999999999,
      "d": 906.2258333333448,
      "v": 107
    },
    {
      "midi": 62,
      "hit": false,
      "t": 71725.35999999999,
      "d": 920.4300000000076,
      "v": 109
    },
    {
      "midi": 58,
      "hit": false,
      "t": 72816.23999999999,
      "d": 156.2458333333343,
      "v": 97
    },
    {
      "midi": 65,
      "hit": false,
      "t": 72816.23999999999,
      "d": 164.7683333333407,
      "v": 102
    },
    {
      "midi": 62,
      "hit": false,
      "t": 72816.23999999999,
      "d": 193.17666666668083,
      "v": 105
    },
    {
      "midi": 58,
      "hit": false,
      "t": 73088.96,
      "d": 437.4883333333273,
      "v": 102
    },
    {
      "midi": 67,
      "hit": false,
      "t": 73088.96,
      "d": 468.73749999998836,
      "v": 107
    },
    {
      "midi": 62,
      "hit": false,
      "t": 73088.96,
      "d": 491.46416666665755,
      "v": 106
    },
    {
      "midi": 58,
      "hit": false,
      "t": 73634.4,
      "d": 488.62333333333663,
      "v": 102
    },
    {
      "midi": 62,
      "hit": false,
      "t": 73634.4,
      "d": 511.3500000000058,
      "v": 101
    },
    {
      "midi": 65,
      "hit": false,
      "t": 73634.4,
      "d": 517.0316666666768,
      "v": 106
    },
    {
      "midi": 56,
      "hit": false,
      "t": 74179.84000000001,
      "d": 460.2149999999965,
      "v": 110
    },
    {
      "midi": 63,
      "hit": false,
      "t": 74179.84000000001,
      "d": 468.7375000000029,
      "v": 107
    },
    {
      "midi": 60,
      "hit": false,
      "t": 74179.84000000001,
      "d": 474.41916666667385,
      "v": 115
    },
    {
      "midi": 63,
      "hit": false,
      "t": 74725.28000000001,
      "d": 460.2149999999965,
      "v": 108
    },
    {
      "midi": 60,
      "hit": false,
      "t": 74725.28000000001,
      "d": 474.4191666666593,
      "v": 110
    },
    {
      "midi": 56,
      "hit": false,
      "t": 74725.28000000001,
      "d": 485.7824999999866,
      "v": 108
    },
    {
      "midi": 56,
      "hit": false,
      "t": 75270.72,
      "d": 170.4499999999971,
      "v": 70
    },
    {
      "midi": 60,
      "hit": false,
      "t": 75270.72,
      "d": 289.7649999999994,
      "v": 108
    },
    {
      "midi": 63,
      "hit": false,
      "t": 75270.72,
      "d": 434.6475000000064,
      "v": 107
    },
    {
      "midi": 56,
      "hit": false,
      "t": 75543.44,
      "d": 684.6408333333384,
      "v": 106
    },
    {
      "midi": 63,
      "hit": false,
      "t": 75816.16,
      "d": 446.0108333333337,
      "v": 106
    },
    {
      "midi": 56,
      "hit": false,
      "t": 76361.6,
      "d": 872.1358333333337,
      "v": 105
    },
    {
      "midi": 63,
      "hit": false,
      "t": 76361.6,
      "d": 892.0216666666674,
      "v": 106
    },
    {
      "midi": 60,
      "hit": false,
      "t": 76361.6,
      "d": 926.111666666664,
      "v": 107
    },
    {
      "midi": 62,
      "hit": false,
      "t": 77452.48,
      "d": 886.3399999999965,
      "v": 107
    },
    {
      "midi": 58,
      "hit": false,
      "t": 77452.48,
      "d": 889.180833333332,
      "v": 106
    },
    {
      "midi": 65,
      "hit": false,
      "t": 77452.48,
      "d": 897.7033333333384,
      "v": 107
    },
    {
      "midi": 53,
      "hit": false,
      "t": 78543.36,
      "d": 116.47416666666686,
      "v": 110
    },
    {
      "midi": 58,
      "hit": false,
      "t": 78543.36,
      "d": 122.1558333333378,
      "v": 109
    },
    {
      "midi": 62,
      "hit": false,
      "t": 78543.36,
      "d": 161.92750000000524,
      "v": 109
    },
    {
      "midi": 53,
      "hit": false,
      "t": 78816.08,
      "d": 144.88250000000698,
      "v": 108
    },
    {
      "midi": 58,
      "hit": false,
      "t": 78816.08,
      "d": 167.60916666667617,
      "v": 109
    },
    {
      "midi": 62,
      "hit": false,
      "t": 78816.08,
      "d": 170.45000000001164,
      "v": 108
    },
    {
      "midi": 60,
      "hit": false,
      "t": 79361.52000000002,
      "d": 738.6166666666686,
      "v": 113
    },
    {
      "midi": 55,
      "hit": false,
      "t": 79361.52000000002,
      "d": 767.0250000000087,
      "v": 111
    },
    {
      "midi": 63,
      "hit": false,
      "t": 79361.52000000002,
      "d": 775.5475000000151,
      "v": 109
    },
    {
      "midi": 58,
      "hit": false,
      "t": 80179.68000000004,
      "d": 241.47083333334012,
      "v": 106
    },
    {
      "midi": 55,
      "hit": false,
      "t": 80452.40000000004,
      "d": 130.67833333332965,
      "v": 100
    },
    {
      "midi": 53,
      "hit": false,
      "t": 80725.12000000004,
      "d": 144.88250000000698,
      "v": 111
    },
    {
      "midi": 58,
      "hit": false,
      "t": 80725.12000000004,
      "d": 181.81333333333896,
      "v": 107
    },
    {
      "midi": 62,
      "hit": false,
      "t": 80725.12000000004,
      "d": 187.4950000000099,
      "v": 108
    },
    {
      "midi": 53,
      "hit": false,
      "t": 80997.84000000005,
      "d": 196.01750000000175,
      "v": 108
    },
    {
      "midi": 58,
      "hit": false,
      "t": 80997.84000000005,
      "d": 196.01750000000175,
      "v": 108
    },
    {
      "midi": 62,
      "hit": false,
      "t": 80997.84000000005,
      "d": 196.01750000000175,
      "v": 107
    },
    {
      "midi": 63,
      "hit": false,
      "t": 81543.28000000006,
      "d": 446.0108333333337,
      "v": 108
    },
    {
      "midi": 55,
      "hit": false,
      "t": 81543.28000000006,
      "d": 451.69250000000466,
      "v": 111
    },
    {
      "midi": 60,
      "hit": false,
      "t": 81543.28000000006,
      "d": 451.69250000000466,
      "v": 111
    },
    {
      "midi": 63,
      "hit": false,
      "t": 82088.72000000006,
      "d": 269.8791666666657,
      "v": 103
    },
    {
      "midi": 60,
      "hit": false,
      "t": 82361.44000000006,
      "d": 249.99333333333198,
      "v": 106
    },
    {
      "midi": 55,
      "hit": false,
      "t": 82634.16000000006,
      "d": 164.76833333332615,
      "v": 103
    },
    {
      "midi": 53,
      "hit": false,
      "t": 82906.88000000005,
      "d": 139.20083333333605,
      "v": 111
    },
    {
      "midi": 58,
      "hit": false,
      "t": 82906.88000000005,
      "d": 167.60916666667617,
      "v": 109
    },
    {
      "midi": 62,
      "hit": false,
      "t": 82906.88000000005,
      "d": 187.4950000000099,
      "v": 110
    },
    {
      "midi": 53,
      "hit": false,
      "t": 83179.60000000006,
      "d": 164.76833333332615,
      "v": 111
    },
    {
      "midi": 58,
      "hit": false,
      "t": 83179.60000000006,
      "d": 167.60916666666162,
      "v": 108
    },
    {
      "midi": 62,
      "hit": false,
      "t": 83179.60000000006,
      "d": 193.17666666666628,
      "v": 107
    },
    {
      "midi": 60,
      "hit": false,
      "t": 83725.04000000007,
      "d": 673.2774999999965,
      "v": 111
    },
    {
      "midi": 55,
      "hit": false,
      "t": 83725.04000000007,
      "d": 801.1149999999907,
      "v": 115
    },
    {
      "midi": 63,
      "hit": false,
      "t": 83725.04000000007,
      "d": 821.0008333333244,
      "v": 110
    },
    {
      "midi": 58,
      "hit": false,
      "t": 84543.20000000006,
      "d": 252.83416666666744,
      "v": 109
    },
    {
      "midi": 55,
      "hit": false,
      "t": 84815.92000000006,
      "d": 207.38083333332906,
      "v": 105
    },
    {
      "midi": 55,
      "hit": false,
      "t": 85088.64000000006,
      "d": 596.5749999999971,
      "v": 116
    },
    {
      "midi": 63,
      "hit": false,
      "t": 85088.64000000006,
      "d": 653.3916666666628,
      "v": 122
    },
    {
      "midi": 58,
      "hit": false,
      "t": 85088.64000000006,
      "d": 749.9799999999959,
      "v": 117
    },
    {
      "midi": 55,
      "hit": false,
      "t": 85906.80000000005,
      "d": 113.6333333333314,
      "v": 122
    },
    {
      "midi": 63,
      "hit": false,
      "t": 86452.24000000005,
      "d": 136.36000000000058,
      "v": 119
    },
    {
      "midi": 58,
      "hit": false,
      "t": 86997.68000000005,
      "d": 122.1558333333378,
      "v": 116
    },
    {
      "midi": 58,
      "hit": false,
      "t": 88088.56000000006,
      "d": 161.92750000000524,
      "v": 99
    },
    {
      "midi": 63,
      "hit": false,
      "t": 88088.56000000006,
      "d": 161.92750000000524,
      "v": 100
    },
    {
      "midi": 55,
      "hit": false,
      "t": 88088.56000000006,
      "d": 164.7683333333407,
      "v": 98
    },
    {
      "midi": 55,
      "hit": false,
      "t": 88634.00000000006,
      "d": 124.99666666667326,
      "v": 101
    },
    {
      "midi": 58,
      "hit": false,
      "t": 88906.72000000006,
      "d": 124.99666666667326,
      "v": 97
    },
    {
      "midi": 63,
      "hit": false,
      "t": 89179.44000000006,
      "d": 130.67833333332965,
      "v": 96
    },
    {
      "midi": 53,
      "hit": false,
      "t": 89452.16000000006,
      "d": 1230.0808333333407,
      "v": 100
    },
    {
      "midi": 57,
      "hit": false,
      "t": 89452.16000000006,
      "d": 1232.9216666666762,
      "v": 104
    },
    {
      "midi": 64,
      "hit": false,
      "t": 89452.16000000006,
      "d": 1235.7625000000116,
      "v": 101
    },
    {
      "midi": 60,
      "hit": false,
      "t": 89452.16000000006,
      "d": 1244.285000000018,
      "v": 105
    },
    {
      "midi": 53,
      "hit": false,
      "t": 90815.76000000008,
      "d": 147.7233333333279,
      "v": 104
    },
    {
      "midi": 57,
      "hit": false,
      "t": 90952.12000000008,
      "d": 102.26999999998952,
      "v": 101
    },
    {
      "midi": 57,
      "hit": false,
      "t": 91224.84000000007,
      "d": 65.3391666666721,
      "v": 104
    },
    {
      "midi": 53,
      "hit": false,
      "t": 91224.84000000007,
      "d": 71.02083333334303,
      "v": 103
    },
    {
      "midi": 60,
      "hit": false,
      "t": 91224.84000000007,
      "d": 79.54333333334944,
      "v": 104
    },
    {
      "midi": 64,
      "hit": false,
      "t": 91224.84000000007,
      "d": 93.74750000001222,
      "v": 100
    },
    {
      "midi": 53,
      "hit": false,
      "t": 91497.56000000008,
      "d": 1451.6658333333326,
      "v": 100
    },
    {
      "midi": 57,
      "hit": false,
      "t": 91497.56000000008,
      "d": 1457.3475000000035,
      "v": 101
    },
    {
      "midi": 60,
      "hit": false,
      "t": 91497.56000000008,
      "d": 1468.7108333333308,
      "v": 103
    },
    {
      "midi": 64,
      "hit": false,
      "t": 91497.56000000008,
      "d": 1477.2333333333372,
      "v": 95
    },
    {
      "midi": 53,
      "hit": false,
      "t": 92997.52000000009,
      "d": 156.2458333333343,
      "v": 104
    },
    {
      "midi": 57,
      "hit": false,
      "t": 93133.88000000009,
      "d": 113.6333333333314,
      "v": 102
    },
    {
      "midi": 53,
      "hit": false,
      "t": 93406.6000000001,
      "d": 150.56416666666337,
      "v": 105
    },
    {
      "midi": 57,
      "hit": false,
      "t": 93406.6000000001,
      "d": 187.49499999999534,
      "v": 102
    },
    {
      "midi": 60,
      "hit": false,
      "t": 93406.6000000001,
      "d": 198.85833333332266,
      "v": 103
    },
    {
      "midi": 64,
      "hit": false,
      "t": 93406.6000000001,
      "d": 201.69916666665813,
      "v": 102
    },
    {
      "midi": 63,
      "hit": false,
      "t": 93815.68000000008,
      "d": 1085.1983333333337,
      "v": 100
    },
    {
      "midi": 56,
      "hit": false,
      "t": 93815.68000000008,
      "d": 1093.7208333333401,
      "v": 101
    },
    {
      "midi": 65,
      "hit": false,
      "t": 93815.68000000008,
      "d": 1099.402500000011,
      "v": 100
    },
    {
      "midi": 60,
      "hit": false,
      "t": 93815.68000000008,
      "d": 1110.7658333333384,
      "v": 105
    },
    {
      "midi": 60,
      "hit": false,
      "t": 95179.28000000009,
      "d": 161.92750000000524,
      "v": 105
    },
    {
      "midi": 63,
      "hit": false,
      "t": 95179.28000000009,
      "d": 161.92750000000524,
      "v": 99
    },
    {
      "midi": 56,
      "hit": false,
      "t": 95179.28000000009,
      "d": 164.7683333333407,
      "v": 99
    },
    {
      "midi": 65,
      "hit": false,
      "t": 95179.28000000009,
      "d": 176.13166666666802,
      "v": 100
    },
    {
      "midi": 56,
      "hit": false,
      "t": 95588.36000000009,
      "d": 127.83749999999418,
      "v": 99
    },
    {
      "midi": 60,
      "hit": false,
      "t": 95588.36000000009,
      "d": 142.04166666665697,
      "v": 105
    },
    {
      "midi": 63,
      "hit": false,
      "t": 95588.36000000009,
      "d": 142.04166666665697,
      "v": 97
    },
    {
      "midi": 65,
      "hit": false,
      "t": 95588.36000000009,
      "d": 150.56416666666337,
      "v": 101
    },
    {
      "midi": 89,
      "hit": false,
      "t": 95792.90000000008,
      "d": 1730.06749999999,
      "v": 99
    },
    {
      "midi": 86,
      "hit": false,
      "t": 95838.35333333342,
      "d": 1582.3441666666622,
      "v": 92
    },
    {
      "midi": 55,
      "hit": false,
      "t": 95861.08000000009,
      "d": 1974.3791666666511,
      "v": 107
    },
    {
      "midi": 58,
      "hit": false,
      "t": 95861.08000000009,
      "d": 1980.060833333322,
      "v": 103
    },
    {
      "midi": 62,
      "hit": false,
      "t": 95861.08000000009,
      "d": 1980.060833333322,
      "v": 101
    },
    {
      "midi": 51,
      "hit": false,
      "t": 95861.08000000009,
      "d": 1985.742499999993,
      "v": 104
    },
    {
      "midi": 84,
      "hit": false,
      "t": 95929.26000000008,
      "d": 1610.7524999999878,
      "v": 88
    },
    {
      "midi": 82,
      "hit": false,
      "t": 95997.44000000008,
      "d": 1457.3475000000035,
      "v": 84
    },
    {
      "midi": 60,
      "hit": false,
      "t": 97906.48000000008,
      "d": 1428.9391666666634,
      "v": 104
    },
    {
      "midi": 55,
      "hit": false,
      "t": 97906.48000000008,
      "d": 1431.7799999999988,
      "v": 102
    },
    {
      "midi": 63,
      "hit": false,
      "t": 97906.48000000008,
      "d": 1434.6208333333343,
      "v": 99
    },
    {
      "midi": 56,
      "hit": false,
      "t": 97906.48000000008,
      "d": 1457.3475000000035,
      "v": 101
    },
    {
      "midi": 55,
      "hit": false,
      "t": 99542.80000000009,
      "d": 176.13166666666802,
      "v": 110
    },
    {
      "midi": 56,
      "hit": false,
      "t": 99679.16000000009,
      "d": 119.31500000000233,
      "v": 102
    },
    {
      "midi": 55,
      "hit": false,
      "t": 99951.88000000009,
      "d": 142.04166666667152,
      "v": 103
    },
    {
      "midi": 63,
      "hit": false,
      "t": 99951.88000000009,
      "d": 144.88250000000698,
      "v": 99
    },
    {
      "midi": 56,
      "hit": false,
      "t": 99951.88000000009,
      "d": 161.92750000000524,
      "v": 102
    },
    {
      "midi": 60,
      "hit": false,
      "t": 99951.88000000009,
      "d": 164.7683333333407,
      "v": 104
    },
    {
      "midi": 53,
      "hit": false,
      "t": 100360.9600000001,
      "d": 1681.7733333333308,
      "v": 97
    },
    {
      "midi": 58,
      "hit": false,
      "t": 100360.9600000001,
      "d": 1690.2958333333372,
      "v": 97
    },
    {
      "midi": 62,
      "hit": false,
      "t": 100360.9600000001,
      "d": 1744.2716666666674,
      "v": 96
    },
    {
      "midi": 55,
      "hit": false,
      "t": 102270.00000000009,
      "d": 207.38083333332906,
      "v": 102
    },
    {
      "midi": 60,
      "hit": false,
      "t": 102270.00000000009,
      "d": 224.42583333332732,
      "v": 104
    },
    {
      "midi": 63,
      "hit": false,
      "t": 102270.00000000009,
      "d": 232.94833333333372,
      "v": 102
    },
    {
      "midi": 63,
      "hit": false,
      "t": 102542.72000000009,
      "d": 1812.4516666666605,
      "v": 102
    },
    {
      "midi": 55,
      "hit": false,
      "t": 102542.72000000009,
      "d": 1835.1783333333296,
      "v": 101
    },
    {
      "midi": 60,
      "hit": false,
      "t": 102542.72000000009,
      "d": 1863.5866666666698,
      "v": 105
    },
    {
      "midi": 53,
      "hit": false,
      "t": 104451.7600000001,
      "d": 196.01750000000175,
      "v": 99
    },
    {
      "midi": 58,
      "hit": false,
      "t": 104451.7600000001,
      "d": 218.74416666667094,
      "v": 94
    },
    {
      "midi": 62,
      "hit": false,
      "t": 104451.7600000001,
      "d": 218.74416666667094,
      "v": 97
    },
    {
      "midi": 58,
      "hit": false,
      "t": 104724.4800000001,
      "d": 2056.763333333336,
      "v": 104
    },
    {
      "midi": 65,
      "hit": false,
      "t": 104724.4800000001,
      "d": 2065.2858333333425,
      "v": 101
    },
    {
      "midi": 53,
      "hit": false,
      "t": 104724.4800000001,
      "d": 2073.808333333349,
      "v": 105
    },
    {
      "midi": 62,
      "hit": false,
      "t": 104724.4800000001,
      "d": 2082.3308333333553,
      "v": 103
    },
    {
      "midi": 55,
      "hit": false,
      "t": 106906.24000000012,
      "d": 312.4916666666686,
      "v": 110
    },
    {
      "midi": 58,
      "hit": false,
      "t": 106906.24000000012,
      "d": 315.3325000000041,
      "v": 110
    },
    {
      "midi": 63,
      "hit": false,
      "t": 106906.24000000012,
      "d": 315.3325000000041,
      "v": 113
    },
    {
      "midi": 58,
      "hit": false,
      "t": 107315.32000000012,
      "d": 62.49833333333663,
      "v": 109
    },
    {
      "midi": 63,
      "hit": false,
      "t": 107315.32000000012,
      "d": 62.49833333333663,
      "v": 110
    },
    {
      "midi": 55,
      "hit": false,
      "t": 107315.32000000012,
      "d": 71.02083333334303,
      "v": 110
    },
    {
      "midi": 62,
      "hit": false,
      "t": 107724.40000000014,
      "d": 710.2083333333285,
      "v": 108
    },
    {
      "midi": 53,
      "hit": false,
      "t": 107724.40000000014,
      "d": 718.7308333333349,
      "v": 110
    },
    {
      "midi": 58,
      "hit": false,
      "t": 107724.40000000014,
      "d": 744.2983333333395,
      "v": 109
    },
    {
      "midi": 62,
      "hit": false,
      "t": 108542.56000000014,
      "d": 380.6716666666616,
      "v": 107
    },
    {
      "midi": 53,
      "hit": false,
      "t": 108542.56000000014,
      "d": 389.194166666668,
      "v": 108
    },
    {
      "midi": 58,
      "hit": false,
      "t": 108542.56000000014,
      "d": 397.7166666666744,
      "v": 107
    },
    {
      "midi": 53,
      "hit": false,
      "t": 109088.00000000015,
      "d": 321.01416666666046,
      "v": 109
    },
    {
      "midi": 62,
      "hit": false,
      "t": 109088.00000000015,
      "d": 357.94499999999243,
      "v": 108
    },
    {
      "midi": 58,
      "hit": false,
      "t": 109088.00000000015,
      "d": 417.6024999999936,
      "v": 109
    },
    {
      "midi": 56,
      "hit": false,
      "t": 109497.08000000013,
      "d": 56.81666666668025,
      "v": 103
    },
    {
      "midi": 51,
      "hit": false,
      "t": 109497.08000000013,
      "d": 62.498333333351184,
      "v": 110
    },
    {
      "midi": 60,
      "hit": false,
      "t": 109497.08000000013,
      "d": 113.63333333334594,
      "v": 108
    },
    {
      "midi": 60,
      "hit": false,
      "t": 109906.16000000015,
      "d": 633.5058333333291,
      "v": 113
    },
    {
      "midi": 56,
      "hit": false,
      "t": 109906.16000000015,
      "d": 661.9141666666692,
      "v": 107
    },
    {
      "midi": 51,
      "hit": false,
      "t": 109906.16000000015,
      "d": 687.4816666666738,
      "v": 110
    },
    {
      "midi": 60,
      "hit": false,
      "t": 110724.32000000015,
      "d": 161.92750000000524,
      "v": 113
    },
    {
      "midi": 56,
      "hit": false,
      "t": 110860.68000000015,
      "d": 147.7233333333279,
      "v": 109
    },
    {
      "midi": 51,
      "hit": false,
      "t": 110997.04000000015,
      "d": 153.40499999999884,
      "v": 116
    },
    {
      "midi": 63,
      "hit": false,
      "t": 111133.40000000015,
      "d": 22.72666666666919,
      "v": 76
    },
    {
      "midi": 63,
      "hit": false,
      "t": 111269.76000000015,
      "d": 301.12833333332674,
      "v": 110
    },
    {
      "midi": 55,
      "hit": false,
      "t": 111269.76000000015,
      "d": 312.49166666665406,
      "v": 111
    },
    {
      "midi": 58,
      "hit": false,
      "t": 111269.76000000015,
      "d": 323.8549999999814,
      "v": 109
    },
    {
      "midi": 58,
      "hit": false,
      "t": 111678.84000000014,
      "d": 51.13499999999476,
      "v": 107
    },
    {
      "midi": 63,
      "hit": false,
      "t": 111678.84000000014,
      "d": 59.657500000001164,
      "v": 106
    },
    {
      "midi": 55,
      "hit": false,
      "t": 111678.84000000014,
      "d": 71.02083333332848,
      "v": 111
    },
    {
      "midi": 53,
      "hit": false,
      "t": 112087.92000000014,
      "d": 735.7758333333331,
      "v": 111
    },
    {
      "midi": 62,
      "hit": false,
      "t": 112087.92000000014,
      "d": 738.6166666666686,
      "v": 107
    },
    {
      "midi": 58,
      "hit": false,
      "t": 112087.92000000014,
      "d": 764.1841666666733,
      "v": 109
    },
    {
      "midi": 62,
      "hit": false,
      "t": 112906.08000000015,
      "d": 363.62666666666337,
      "v": 109
    },
    {
      "midi": 53,
      "hit": false,
      "t": 112906.08000000015,
      "d": 366.46749999999884,
      "v": 110
    },
    {
      "midi": 58,
      "hit": false,
      "t": 112906.08000000015,
      "d": 394.87583333333896,
      "v": 109
    },
    {
      "midi": 53,
      "hit": false,
      "t": 113451.52000000015,
      "d": 326.6958333333314,
      "v": 108
    },
    {
      "midi": 62,
      "hit": false,
      "t": 113451.52000000015,
      "d": 360.7858333333279,
      "v": 105
    },
    {
      "midi": 58,
      "hit": false,
      "t": 113451.52000000015,
      "d": 431.80666666667094,
      "v": 106
    },
    {
      "midi": 51,
      "hit": false,
      "t": 113860.60000000015,
      "d": 59.657500000001164,
      "v": 116
    },
    {
      "midi": 56,
      "hit": false,
      "t": 113860.60000000015,
      "d": 82.38416666667035,
      "v": 106
    },
    {
      "midi": 60,
      "hit": false,
      "t": 113860.60000000015,
      "d": 119.31500000000233,
      "v": 109
    },
    {
      "midi": 60,
      "hit": false,
      "t": 114269.68000000015,
      "d": 1053.9491666666727,
      "v": 113
    },
    {
      "midi": 56,
      "hit": false,
      "t": 114269.68000000015,
      "d": 1068.1533333333355,
      "v": 108
    },
    {
      "midi": 51,
      "hit": false,
      "t": 114269.68000000015,
      "d": 1073.8350000000064,
      "v": 110
    },
    {
      "midi": 55,
      "hit": false,
      "t": 115633.28000000016,
      "d": 298.2875000000058,
      "v": 110
    },
    {
      "midi": 63,
      "hit": false,
      "t": 115633.28000000016,
      "d": 301.1283333333413,
      "v": 110
    },
    {
      "midi": 58,
      "hit": false,
      "t": 115633.28000000016,
      "d": 303.96916666667676,
      "v": 108
    },
    {
      "midi": 58,
      "hit": false,
      "t": 116042.36000000018,
      "d": 59.657500000001164,
      "v": 107
    },
    {
      "midi": 55,
      "hit": false,
      "t": 116042.36000000018,
      "d": 62.49833333333663,
      "v": 110
    },
    {
      "midi": 63,
      "hit": false,
      "t": 116042.36000000018,
      "d": 62.49833333333663,
      "v": 106
    },
    {
      "midi": 62,
      "hit": false,
      "t": 116451.44000000018,
      "d": 704.5266666666721,
      "v": 108
    },
    {
      "midi": 53,
      "hit": false,
      "t": 116451.44000000018,
      "d": 713.0491666666785,
      "v": 110
    },
    {
      "midi": 58,
      "hit": false,
      "t": 116451.44000000018,
      "d": 732.9350000000122,
      "v": 108
    },
    {
      "midi": 62,
      "hit": false,
      "t": 117269.6000000002,
      "d": 363.62666666666337,
      "v": 107
    },
    {
      "midi": 53,
      "hit": false,
      "t": 117269.6000000002,
      "d": 366.46749999999884,
      "v": 110
    },
    {
      "midi": 58,
      "hit": false,
      "t": 117269.6000000002,
      "d": 383.5124999999971,
      "v": 106
    },
    {
      "midi": 53,
      "hit": false,
      "t": 117815.0400000002,
      "d": 349.4225000000006,
      "v": 107
    },
    {
      "midi": 58,
      "hit": false,
      "t": 117815.0400000002,
      "d": 383.5124999999971,
      "v": 108
    },
    {
      "midi": 62,
      "hit": false,
      "t": 117815.0400000002,
      "d": 386.35333333333256,
      "v": 108
    },
    {
      "midi": 56,
      "hit": false,
      "t": 118224.1200000002,
      "d": 53.97583333333023,
      "v": 101
    },
    {
      "midi": 51,
      "hit": false,
      "t": 118224.1200000002,
      "d": 62.49833333333663,
      "v": 110
    },
    {
      "midi": 60,
      "hit": false,
      "t": 118224.1200000002,
      "d": 102.27000000000407,
      "v": 109
    },
    {
      "midi": 56,
      "hit": false,
      "t": 118633.2000000002,
      "d": 698.8450000000012,
      "v": 107
    },
    {
      "midi": 60,
      "hit": false,
      "t": 118633.2000000002,
      "d": 698.8450000000012,
      "v": 113
    },
    {
      "midi": 51,
      "hit": false,
      "t": 118633.2000000002,
      "d": 701.6858333333366,
      "v": 109
    },
    {
      "midi": 51,
      "hit": false,
      "t": 119451.3600000002,
      "d": 383.5124999999971,
      "v": 105
    },
    {
      "midi": 60,
      "hit": false,
      "t": 119451.3600000002,
      "d": 394.8758333333244,
      "v": 109
    },
    {
      "midi": 56,
      "hit": false,
      "t": 119451.3600000002,
      "d": 428.9658333333209,
      "v": 106
    },
    {
      "midi": 53,
      "hit": false,
      "t": 119996.80000000019,
      "d": 1980.0608333333366,
      "v": 110
    },
    {
      "midi": 58,
      "hit": false,
      "t": 119996.80000000019,
      "d": 2014.1508333333331,
      "v": 106
    },
    {
      "midi": 62,
      "hit": false,
      "t": 119996.80000000019,
      "d": 2014.1508333333331,
      "v": 108
    },
    {
      "midi": 53,
      "hit": false,
      "t": 122178.56000000019,
      "d": 2082.330833333326,
      "v": 108
    },
    {
      "midi": 58,
      "hit": false,
      "t": 122178.56000000019,
      "d": 2088.012499999997,
      "v": 109
    },
    {
      "midi": 62,
      "hit": false,
      "t": 122178.56000000019,
      "d": 2093.694166666668,
      "v": 110
    },
    {
      "midi": 58,
      "hit": false,
      "t": 124360.32000000018,
      "d": 428.96583333333547,
      "v": 108
    },
    {
      "midi": 67,
      "hit": false,
      "t": 124360.32000000018,
      "d": 437.48833333334187,
      "v": 111
    },
    {
      "midi": 63,
      "hit": false,
      "t": 124360.32000000018,
      "d": 451.69250000000466,
      "v": 108
    },
    {
      "midi": 58,
      "hit": false,
      "t": 124905.76000000018,
      "d": 474.41916666667385,
      "v": 109
    },
    {
      "midi": 63,
      "hit": false,
      "t": 124905.76000000018,
      "d": 488.62333333333663,
      "v": 109
    },
    {
      "midi": 67,
      "hit": false,
      "t": 124905.76000000018,
      "d": 497.14583333334303,
      "v": 113
    },
    {
      "midi": 58,
      "hit": false,
      "t": 125723.92000000019,
      "d": 403.3983333333308,
      "v": 108
    },
    {
      "midi": 67,
      "hit": false,
      "t": 125723.92000000019,
      "d": 428.96583333333547,
      "v": 109
    },
    {
      "midi": 63,
      "hit": false,
      "t": 125723.92000000019,
      "d": 446.0108333333337,
      "v": 108
    },
    {
      "midi": 58,
      "hit": false,
      "t": 126269.36000000019,
      "d": 1102.243333333332,
      "v": 106
    },
    {
      "midi": 62,
      "hit": false,
      "t": 126269.36000000019,
      "d": 1122.1291666666657,
      "v": 108
    },
    {
      "midi": 65,
      "hit": false,
      "t": 126269.36000000019,
      "d": 1124.9700000000012,
      "v": 108
    },
    {
      "midi": 58,
      "hit": false,
      "t": 127632.9600000002,
      "d": 471.5783333333384,
      "v": 105
    },
    {
      "midi": 67,
      "hit": false,
      "t": 127632.9600000002,
      "d": 499.9866666666785,
      "v": 108
    },
    {
      "midi": 62,
      "hit": false,
      "t": 127632.9600000002,
      "d": 514.1908333333413,
      "v": 108
    },
    {
      "midi": 58,
      "hit": false,
      "t": 128178.4000000002,
      "d": 443.16999999999825,
      "v": 103
    },
    {
      "midi": 65,
      "hit": false,
      "t": 128178.4000000002,
      "d": 460.2149999999965,
      "v": 108
    },
    {
      "midi": 62,
      "hit": false,
      "t": 128178.4000000002,
      "d": 465.89666666666744,
      "v": 102
    },
    {
      "midi": 56,
      "hit": false,
      "t": 128723.8400000002,
      "d": 434.6475000000064,
      "v": 106
    },
    {
      "midi": 60,
      "hit": false,
      "t": 128723.8400000002,
      "d": 448.8516666666692,
      "v": 111
    },
    {
      "midi": 63,
      "hit": false,
      "t": 128723.8400000002,
      "d": 460.2149999999965,
      "v": 107
    },
    {
      "midi": 56,
      "hit": false,
      "t": 129269.2800000002,
      "d": 960.2016666666605,
      "v": 106
    },
    {
      "midi": 60,
      "hit": false,
      "t": 129269.2800000002,
      "d": 982.9283333333296,
      "v": 111
    },
    {
      "midi": 63,
      "hit": false,
      "t": 129269.2800000002,
      "d": 997.1324999999924,
      "v": 105
    },
    {
      "midi": 56,
      "hit": false,
      "t": 130360.16000000019,
      "d": 406.2391666666663,
      "v": 105
    },
    {
      "midi": 60,
      "hit": false,
      "t": 130360.16000000019,
      "d": 406.2391666666663,
      "v": 109
    },
    {
      "midi": 63,
      "hit": false,
      "t": 130360.16000000019,
      "d": 411.9208333333372,
      "v": 103
    },
    {
      "midi": 56,
      "hit": false,
      "t": 130905.6000000002,
      "d": 707.3675000000076,
      "v": 107
    },
    {
      "midi": 60,
      "hit": false,
      "t": 130905.6000000002,
      "d": 710.2083333333285,
      "v": 110
    },
    {
      "midi": 63,
      "hit": false,
      "t": 130905.6000000002,
      "d": 718.7308333333203,
      "v": 107
    },
    {
      "midi": 56,
      "hit": false,
      "t": 131723.76000000018,
      "d": 144.88250000000698,
      "v": 97
    },
    {
      "midi": 60,
      "hit": false,
      "t": 131723.76000000018,
      "d": 181.8133333333535,
      "v": 107
    },
    {
      "midi": 63,
      "hit": false,
      "t": 131723.76000000018,
      "d": 201.69916666668723,
      "v": 95
    },
    {
      "midi": 58,
      "hit": false,
      "t": 131996.4800000002,
      "d": 505.6683333333349,
      "v": 103
    },
    {
      "midi": 65,
      "hit": false,
      "t": 131996.4800000002,
      "d": 511.3500000000058,
      "v": 102
    },
    {
      "midi": 62,
      "hit": false,
      "t": 131996.4800000002,
      "d": 531.2358333333395,
      "v": 99
    },
    {
      "midi": 58,
      "hit": false,
      "t": 132541.92000000022,
      "d": 409.0799999999872,
      "v": 103
    },
    {
      "midi": 62,
      "hit": false,
      "t": 132541.92000000022,
      "d": 411.9208333333081,
      "v": 102
    },
    {
      "midi": 65,
      "hit": false,
      "t": 132541.92000000022,
      "d": 434.64749999996275,
      "v": 106
    },
    {
      "midi": 67,
      "hit": false,
      "t": 133087.3600000002,
      "d": 457.3741666666756,
      "v": 109
    },
    {
      "midi": 58,
      "hit": false,
      "t": 133087.3600000002,
      "d": 463.0558333333465,
      "v": 110
    },
    {
      "midi": 63,
      "hit": false,
      "t": 133087.3600000002,
      "d": 480.10083333335933,
      "v": 107
    },
    {
      "midi": 67,
      "hit": false,
      "t": 133632.80000000022,
      "d": 431.80666666667094,
      "v": 110
    },
    {
      "midi": 58,
      "hit": false,
      "t": 133632.80000000022,
      "d": 437.48833333334187,
      "v": 108
    },
    {
      "midi": 63,
      "hit": false,
      "t": 133632.80000000022,
      "d": 446.0108333333337,
      "v": 107
    },
    {
      "midi": 58,
      "hit": false,
      "t": 134178.24000000022,
      "d": 232.94833333333372,
      "v": 107
    },
    {
      "midi": 63,
      "hit": false,
      "t": 134178.24000000022,
      "d": 292.6058333333349,
      "v": 107
    },
    {
      "midi": 67,
      "hit": false,
      "t": 134178.24000000022,
      "d": 306.8099999999977,
      "v": 109
    },
    {
      "midi": 65,
      "hit": false,
      "t": 134450.96000000022,
      "d": 301.12833333332674,
      "v": 106
    },
    {
      "midi": 58,
      "hit": false,
      "t": 134450.96000000022,
      "d": 355.10416666665697,
      "v": 92
    },
    {
      "midi": 63,
      "hit": false,
      "t": 134723.68000000023,
      "d": 190.33583333331626,
      "v": 102
    },
    {
      "midi": 58,
      "hit": false,
      "t": 134996.4000000002,
      "d": 900.5441666666593,
      "v": 107
    },
    {
      "midi": 65,
      "hit": false,
      "t": 134996.4000000002,
      "d": 906.2258333333302,
      "v": 107
    },
    {
      "midi": 62,
      "hit": false,
      "t": 134996.4000000002,
      "d": 920.429999999993,
      "v": 109
    },
    {
      "midi": 58,
      "hit": false,
      "t": 136087.2800000002,
      "d": 156.24583333331975,
      "v": 97
    },
    {
      "midi": 65,
      "hit": false,
      "t": 136087.2800000002,
      "d": 164.7683333333116,
      "v": 102
    },
    {
      "midi": 62,
      "hit": false,
      "t": 136087.2800000002,
      "d": 193.17666666663717,
      "v": 105
    },
    {
      "midi": 58,
      "hit": false,
      "t": 136360.00000000017,
      "d": 437.48833333334187,
      "v": 102
    },
    {
      "midi": 67,
      "hit": false,
      "t": 136360.00000000017,
      "d": 468.73750000001746,
      "v": 107
    },
    {
      "midi": 62,
      "hit": false,
      "t": 136360.00000000017,
      "d": 491.4641666666721,
      "v": 106
    },
    {
      "midi": 58,
      "hit": false,
      "t": 136905.44000000018,
      "d": 488.6233333333221,
      "v": 102
    },
    {
      "midi": 62,
      "hit": false,
      "t": 136905.44000000018,
      "d": 511.3499999999767,
      "v": 101
    },
    {
      "midi": 65,
      "hit": false,
      "t": 136905.44000000018,
      "d": 517.0316666666477,
      "v": 106
    },
    {
      "midi": 56,
      "hit": false,
      "t": 137450.88000000015,
      "d": 460.2149999999965,
      "v": 110
    },
    {
      "midi": 63,
      "hit": false,
      "t": 137450.88000000015,
      "d": 468.73749999998836,
      "v": 107
    },
    {
      "midi": 60,
      "hit": false,
      "t": 137450.88000000015,
      "d": 474.4191666666593,
      "v": 115
    },
    {
      "midi": 63,
      "hit": false,
      "t": 137996.32000000015,
      "d": 460.2149999999965,
      "v": 108
    },
    {
      "midi": 60,
      "hit": false,
      "t": 137996.32000000015,
      "d": 474.4191666666593,
      "v": 110
    },
    {
      "midi": 56,
      "hit": false,
      "t": 137996.32000000015,
      "d": 485.78250000000116,
      "v": 108
    },
    {
      "midi": 56,
      "hit": false,
      "t": 138541.76000000015,
      "d": 170.45000000001164,
      "v": 70
    },
    {
      "midi": 60,
      "hit": false,
      "t": 138541.76000000015,
      "d": 289.76500000001397,
      "v": 108
    },
    {
      "midi": 63,
      "hit": false,
      "t": 138541.76000000015,
      "d": 434.64750000002095,
      "v": 107
    },
    {
      "midi": 56,
      "hit": false,
      "t": 138814.48000000016,
      "d": 684.6408333333675,
      "v": 106
    },
    {
      "midi": 63,
      "hit": false,
      "t": 139087.2000000002,
      "d": 446.0108333333337,
      "v": 106
    },
    {
      "midi": 56,
      "hit": false,
      "t": 139632.6400000002,
      "d": 872.1358333333337,
      "v": 105
    },
    {
      "midi": 63,
      "hit": false,
      "t": 139632.6400000002,
      "d": 892.0216666666674,
      "v": 106
    },
    {
      "midi": 60,
      "hit": false,
      "t": 139632.6400000002,
      "d": 926.111666666664,
      "v": 107
    },
    {
      "midi": 62,
      "hit": false,
      "t": 140723.5200000002,
      "d": 886.3399999999965,
      "v": 107
    },
    {
      "midi": 58,
      "hit": false,
      "t": 140723.5200000002,
      "d": 889.1808333333174,
      "v": 106
    },
    {
      "midi": 65,
      "hit": false,
      "t": 140723.5200000002,
      "d": 897.7033333333093,
      "v": 107
    },
    {
      "midi": 53,
      "hit": false,
      "t": 141814.40000000017,
      "d": 116.47416666665231,
      "v": 110
    },
    {
      "midi": 58,
      "hit": false,
      "t": 141814.40000000017,
      "d": 122.15583333332324,
      "v": 109
    },
    {
      "midi": 62,
      "hit": false,
      "t": 141814.40000000017,
      "d": 161.9274999999907,
      "v": 109
    },
    {
      "midi": 53,
      "hit": false,
      "t": 142087.12000000017,
      "d": 144.88250000000698,
      "v": 108
    },
    {
      "midi": 58,
      "hit": false,
      "t": 142087.12000000017,
      "d": 167.60916666666162,
      "v": 109
    },
    {
      "midi": 62,
      "hit": false,
      "t": 142087.12000000017,
      "d": 170.44999999998254,
      "v": 108
    },
    {
      "midi": 60,
      "hit": false,
      "t": 142632.56000000014,
      "d": 738.6166666666686,
      "v": 113
    },
    {
      "midi": 55,
      "hit": false,
      "t": 142632.56000000014,
      "d": 767.0249999999942,
      "v": 111
    },
    {
      "midi": 63,
      "hit": false,
      "t": 142632.56000000014,
      "d": 775.547499999986,
      "v": 109
    },
    {
      "midi": 58,
      "hit": false,
      "t": 143450.72000000012,
      "d": 241.47083333332557,
      "v": 106
    },
    {
      "midi": 55,
      "hit": false,
      "t": 143723.44000000012,
      "d": 130.6783333333442,
      "v": 100
    },
    {
      "midi": 53,
      "hit": false,
      "t": 143996.16000000012,
      "d": 144.88250000000698,
      "v": 111
    },
    {
      "midi": 58,
      "hit": false,
      "t": 143996.16000000012,
      "d": 181.8133333333535,
      "v": 107
    },
    {
      "midi": 62,
      "hit": false,
      "t": 143996.16000000012,
      "d": 187.49500000002445,
      "v": 108
    },
    {
      "midi": 53,
      "hit": false,
      "t": 144268.88000000015,
      "d": 196.0174999999872,
      "v": 108
    },
    {
      "midi": 58,
      "hit": false,
      "t": 144268.88000000015,
      "d": 196.0174999999872,
      "v": 108
    },
    {
      "midi": 62,
      "hit": false,
      "t": 144268.88000000015,
      "d": 196.0174999999872,
      "v": 107
    },
    {
      "midi": 63,
      "hit": false,
      "t": 144814.32000000012,
      "d": 446.0108333333337,
      "v": 108
    },
    {
      "midi": 55,
      "hit": false,
      "t": 144814.32000000012,
      "d": 451.69250000000466,
      "v": 111
    },
    {
      "midi": 60,
      "hit": false,
      "t": 144814.32000000012,
      "d": 451.69250000000466,
      "v": 111
    },
    {
      "midi": 63,
      "hit": false,
      "t": 145359.76000000013,
      "d": 269.87916666668025,
      "v": 103
    },
    {
      "midi": 60,
      "hit": false,
      "t": 145632.48000000013,
      "d": 249.99333333334653,
      "v": 106
    },
    {
      "midi": 55,
      "hit": false,
      "t": 145905.20000000013,
      "d": 164.7683333333407,
      "v": 103
    },
    {
      "midi": 53,
      "hit": false,
      "t": 146177.92000000013,
      "d": 139.20083333333605,
      "v": 111
    },
    {
      "midi": 58,
      "hit": false,
      "t": 146177.92000000013,
      "d": 167.60916666666162,
      "v": 109
    },
    {
      "midi": 62,
      "hit": false,
      "t": 146177.92000000013,
      "d": 187.49499999999534,
      "v": 110
    },
    {
      "midi": 53,
      "hit": false,
      "t": 146450.64000000013,
      "d": 164.7683333333407,
      "v": 111
    },
    {
      "midi": 58,
      "hit": false,
      "t": 146450.64000000013,
      "d": 167.60916666666162,
      "v": 108
    },
    {
      "midi": 62,
      "hit": false,
      "t": 146450.64000000013,
      "d": 193.17666666666628,
      "v": 107
    },
    {
      "midi": 60,
      "hit": false,
      "t": 146996.08000000013,
      "d": 673.2774999999965,
      "v": 111
    },
    {
      "midi": 55,
      "hit": false,
      "t": 146996.08000000013,
      "d": 801.1149999999907,
      "v": 115
    },
    {
      "midi": 63,
      "hit": false,
      "t": 146996.08000000013,
      "d": 821.0008333333244,
      "v": 110
    },
    {
      "midi": 58,
      "hit": false,
      "t": 147814.24000000014,
      "d": 252.83416666666744,
      "v": 109
    },
    {
      "midi": 55,
      "hit": false,
      "t": 148086.96000000014,
      "d": 207.38083333332906,
      "v": 105
    },
    {
      "midi": 55,
      "hit": false,
      "t": 148359.68000000014,
      "d": 596.5750000000116,
      "v": 116
    },
    {
      "midi": 63,
      "hit": false,
      "t": 148359.68000000014,
      "d": 653.3916666666919,
      "v": 122
    },
    {
      "midi": 58,
      "hit": false,
      "t": 148359.68000000014,
      "d": 749.9800000000396,
      "v": 117
    },
    {
      "midi": 55,
      "hit": false,
      "t": 149177.84000000017,
      "d": 113.6333333333314,
      "v": 122
    },
    {
      "midi": 63,
      "hit": false,
      "t": 149723.28000000017,
      "d": 136.35999999998603,
      "v": 119
    },
    {
      "midi": 58,
      "hit": false,
      "t": 150268.72000000015,
      "d": 122.15583333332324,
      "v": 116
    },
    {
      "midi": 58,
      "hit": false,
      "t": 151359.60000000012,
      "d": 161.9274999999907,
      "v": 99
    },
    {
      "midi": 63,
      "hit": false,
      "t": 151359.60000000012,
      "d": 161.9274999999907,
      "v": 100
    },
    {
      "midi": 55,
      "hit": false,
      "t": 151359.60000000012,
      "d": 164.7683333333116,
      "v": 98
    },
    {
      "midi": 55,
      "hit": false,
      "t": 151905.0400000001,
      "d": 124.99666666667326,
      "v": 101
    },
    {
      "midi": 58,
      "hit": false,
      "t": 152177.7600000001,
      "d": 124.99666666667326,
      "v": 97
    },
    {
      "midi": 63,
      "hit": false,
      "t": 152450.4800000001,
      "d": 130.6783333333442,
      "v": 96
    },
    {
      "midi": 54,
      "hit": false,
      "t": 152723.2000000001,
      "d": 1230.0808333333407,
      "v": 99
    },
    {
      "midi": 58,
      "hit": false,
      "t": 152723.2000000001,
      "d": 1232.9216666666616,
      "v": 103
    },
    {
      "midi": 65,
      "hit": false,
      "t": 152723.2000000001,
      "d": 1235.7624999999825,
      "v": 100
    },
    {
      "midi": 61,
      "hit": false,
      "t": 152723.2000000001,
      "d": 1244.2849999999744,
      "v": 104
    },
    {
      "midi": 54,
      "hit": false,
      "t": 154086.80000000008,
      "d": 147.7233333333279,
      "v": 103
    },
    {
      "midi": 58,
      "hit": false,
      "t": 154223.16000000006,
      "d": 102.27000000001863,
      "v": 100
    },
    {
      "midi": 58,
      "hit": false,
      "t": 154495.8800000001,
      "d": 65.3391666666721,
      "v": 103
    },
    {
      "midi": 54,
      "hit": false,
      "t": 154495.8800000001,
      "d": 71.02083333334303,
      "v": 102
    },
    {
      "midi": 61,
      "hit": false,
      "t": 154495.8800000001,
      "d": 79.54333333333489,
      "v": 103
    },
    {
      "midi": 65,
      "hit": false,
      "t": 154495.8800000001,
      "d": 93.74749999999767,
      "v": 99
    },
    {
      "midi": 54,
      "hit": false,
      "t": 154768.6000000001,
      "d": 1451.6658333333326,
      "v": 99
    },
    {
      "midi": 58,
      "hit": false,
      "t": 154768.6000000001,
      "d": 1457.3475000000035,
      "v": 100
    },
    {
      "midi": 61,
      "hit": false,
      "t": 154768.6000000001,
      "d": 1468.7108333333454,
      "v": 102
    },
    {
      "midi": 65,
      "hit": false,
      "t": 154768.6000000001,
      "d": 1477.2333333333372,
      "v": 94
    },
    {
      "midi": 54,
      "hit": false,
      "t": 156268.56000000008,
      "d": 156.24583333331975,
      "v": 103
    },
    {
      "midi": 58,
      "hit": false,
      "t": 156404.92000000007,
      "d": 113.6333333333314,
      "v": 101
    },
    {
      "midi": 54,
      "hit": false,
      "t": 156677.64000000007,
      "d": 150.56416666667792,
      "v": 104
    },
    {
      "midi": 58,
      "hit": false,
      "t": 156677.64000000007,
      "d": 187.49500000002445,
      "v": 101
    },
    {
      "midi": 61,
      "hit": false,
      "t": 156677.64000000007,
      "d": 198.85833333336632,
      "v": 102
    },
    {
      "midi": 65,
      "hit": false,
      "t": 156677.64000000007,
      "d": 201.69916666668723,
      "v": 101
    },
    {
      "midi": 64,
      "hit": false,
      "t": 157086.7200000001,
      "d": 1085.1983333333337,
      "v": 99
    },
    {
      "midi": 57,
      "hit": false,
      "t": 157086.7200000001,
      "d": 1093.7208333333256,
      "v": 100
    },
    {
      "midi": 66,
      "hit": false,
      "t": 157086.7200000001,
      "d": 1099.4024999999965,
      "v": 99
    },
    {
      "midi": 61,
      "hit": false,
      "t": 157086.7200000001,
      "d": 1110.7658333333384,
      "v": 104
    },
    {
      "midi": 61,
      "hit": false,
      "t": 158450.3200000001,
      "d": 161.9274999999907,
      "v": 104
    },
    {
      "midi": 64,
      "hit": false,
      "t": 158450.3200000001,
      "d": 161.9274999999907,
      "v": 98
    },
    {
      "midi": 57,
      "hit": false,
      "t": 158450.3200000001,
      "d": 164.7683333333116,
      "v": 98
    },
    {
      "midi": 66,
      "hit": false,
      "t": 158450.3200000001,
      "d": 176.13166666665347,
      "v": 99
    },
    {
      "midi": 57,
      "hit": false,
      "t": 158859.40000000008,
      "d": 127.83749999999418,
      "v": 98
    },
    {
      "midi": 61,
      "hit": false,
      "t": 158859.40000000008,
      "d": 142.04166666665697,
      "v": 104
    },
    {
      "midi": 64,
      "hit": false,
      "t": 158859.40000000008,
      "d": 142.04166666665697,
      "v": 96
    },
    {
      "midi": 66,
      "hit": false,
      "t": 158859.40000000008,
      "d": 150.56416666664882,
      "v": 100
    },
    {
      "midi": 90,
      "hit": false,
      "t": 159063.94000000006,
      "d": 1730.0674999999756,
      "v": 99
    },
    {
      "midi": 87,
      "hit": false,
      "t": 159109.3933333334,
      "d": 1582.3441666666477,
      "v": 92
    },
    {
      "midi": 56,
      "hit": false,
      "t": 159132.12000000005,
      "d": 1974.3791666666511,
      "v": 106
    },
    {
      "midi": 59,
      "hit": false,
      "t": 159132.12000000005,
      "d": 1980.060833333322,
      "v": 102
    },
    {
      "midi": 63,
      "hit": false,
      "t": 159132.12000000005,
      "d": 1980.060833333322,
      "v": 100
    },
    {
      "midi": 52,
      "hit": false,
      "t": 159132.12000000005,
      "d": 1985.742499999993,
      "v": 103
    },
    {
      "midi": 85,
      "hit": false,
      "t": 159200.30000000005,
      "d": 1610.7525000000023,
      "v": 88
    },
    {
      "midi": 83,
      "hit": false,
      "t": 159268.48000000004,
      "d": 1457.3475000000035,
      "v": 84
    },
    {
      "midi": 61,
      "hit": false,
      "t": 161177.52000000005,
      "d": 1428.939166666678,
      "v": 103
    },
    {
      "midi": 57,
      "hit": false,
      "t": 161177.52000000005,
      "d": 1431.7799999999988,
      "v": 100
    },
    {
      "midi": 64,
      "hit": false,
      "t": 161177.52000000005,
      "d": 1434.6208333333198,
      "v": 98
    },
    {
      "midi": 56,
      "hit": false,
      "t": 161177.52000000005,
      "d": 1457.3474999999744,
      "v": 101
    },
    {
      "midi": 56,
      "hit": false,
      "t": 162813.84000000003,
      "d": 255.67499999998836,
      "v": 109
    },
    {
      "midi": 57,
      "hit": false,
      "t": 162950.2,
      "d": 119.31500000000233,
      "v": 102
    },
    {
      "midi": 57,
      "hit": false,
      "t": 163222.92,
      "d": 142.04166666665697,
      "v": 101
    },
    {
      "midi": 64,
      "hit": false,
      "t": 163222.92,
      "d": 144.88249999997788,
      "v": 98
    },
    {
      "midi": 56,
      "hit": false,
      "t": 163222.92,
      "d": 161.9274999999907,
      "v": 102
    },
    {
      "midi": 61,
      "hit": false,
      "t": 163222.92,
      "d": 164.7683333333116,
      "v": 103
    },
    {
      "midi": 54,
      "hit": false,
      "t": 163632,
      "d": 1681.7733333333454,
      "v": 96
    },
    {
      "midi": 59,
      "hit": false,
      "t": 163632,
      "d": 1690.2958333333372,
      "v": 96
    },
    {
      "midi": 63,
      "hit": false,
      "t": 163632,
      "d": 1744.2716666666674,
      "v": 95
    },
    {
      "midi": 64,
      "hit": false,
      "t": 165541.04,
      "d": 2085.1716666666616,
      "v": 101
    },
    {
      "midi": 56,
      "hit": false,
      "t": 165541.04,
      "d": 2107.8983333333163,
      "v": 100
    },
    {
      "midi": 61,
      "hit": false,
      "t": 165541.04,
      "d": 2136.306666666642,
      "v": 104
    },
    {
      "midi": 54,
      "hit": false,
      "t": 167722.8,
      "d": 2377.7774999999965,
      "v": 98
    },
    {
      "midi": 66,
      "hit": false,
      "t": 167722.8,
      "d": 2377.7774999999965,
      "v": 98
    },
    {
      "midi": 59,
      "hit": false,
      "t": 167722.8,
      "d": 2400.504166666651,
      "v": 93
    },
    {
      "midi": 63,
      "hit": false,
      "t": 167722.8,
      "d": 2400.504166666651,
      "v": 96
    },
    {
      "midi": 56,
      "hit": false,
      "t": 170177.27999999997,
      "d": 312.4916666666686,
      "v": 110
    },
    {
      "midi": 59,
      "hit": false,
      "t": 170177.27999999997,
      "d": 315.3324999999895,
      "v": 110
    },
    {
      "midi": 64,
      "hit": false,
      "t": 170177.27999999997,
      "d": 315.3324999999895,
      "v": 113
    },
    {
      "midi": 59,
      "hit": false,
      "t": 170586.35999999996,
      "d": 62.49833333332208,
      "v": 109
    },
    {
      "midi": 64,
      "hit": false,
      "t": 170586.35999999996,
      "d": 62.49833333332208,
      "v": 110
    },
    {
      "midi": 56,
      "hit": false,
      "t": 170586.35999999996,
      "d": 71.02083333331393,
      "v": 110
    },
    {
      "midi": 63,
      "hit": false,
      "t": 170995.43999999994,
      "d": 710.208333333343,
      "v": 108
    },
    {
      "midi": 54,
      "hit": false,
      "t": 170995.43999999994,
      "d": 718.7308333333349,
      "v": 110
    },
    {
      "midi": 59,
      "hit": false,
      "t": 170995.43999999994,
      "d": 744.2983333333395,
      "v": 109
    },
    {
      "midi": 63,
      "hit": false,
      "t": 171813.59999999995,
      "d": 380.6716666666616,
      "v": 107
    },
    {
      "midi": 54,
      "hit": false,
      "t": 171813.59999999995,
      "d": 389.1941666666535,
      "v": 108
    },
    {
      "midi": 59,
      "hit": false,
      "t": 171813.59999999995,
      "d": 397.7166666666453,
      "v": 107
    },
    {
      "midi": 54,
      "hit": false,
      "t": 172359.03999999992,
      "d": 321.01416666666046,
      "v": 109
    },
    {
      "midi": 63,
      "hit": false,
      "t": 172359.03999999992,
      "d": 357.945000000007,
      "v": 108
    },
    {
      "midi": 59,
      "hit": false,
      "t": 172359.03999999992,
      "d": 417.60250000000815,
      "v": 109
    },
    {
      "midi": 57,
      "hit": false,
      "t": 172768.11999999994,
      "d": 56.816666666651145,
      "v": 103
    },
    {
      "midi": 52,
      "hit": false,
      "t": 172768.11999999994,
      "d": 62.49833333332208,
      "v": 110
    },
    {
      "midi": 61,
      "hit": false,
      "t": 172768.11999999994,
      "d": 113.6333333333314,
      "v": 108
    },
    {
      "midi": 61,
      "hit": false,
      "t": 173177.19999999992,
      "d": 633.5058333333291,
      "v": 113
    },
    {
      "midi": 57,
      "hit": false,
      "t": 173177.19999999992,
      "d": 661.9141666666546,
      "v": 107
    },
    {
      "midi": 52,
      "hit": false,
      "t": 173177.19999999992,
      "d": 687.4816666666593,
      "v": 110
    },
    {
      "midi": 61,
      "hit": false,
      "t": 173995.35999999993,
      "d": 161.9274999999907,
      "v": 113
    },
    {
      "midi": 57,
      "hit": false,
      "t": 174131.7199999999,
      "d": 147.723333333357,
      "v": 109
    },
    {
      "midi": 52,
      "hit": false,
      "t": 174268.07999999993,
      "d": 153.40500000002794,
      "v": 116
    },
    {
      "midi": 64,
      "hit": false,
      "t": 174404.43999999994,
      "d": 22.72666666668374,
      "v": 76
    },
    {
      "midi": 64,
      "hit": false,
      "t": 174540.79999999996,
      "d": 301.12833333332674,
      "v": 110
    },
    {
      "midi": 56,
      "hit": false,
      "t": 174540.79999999996,
      "d": 312.4916666666686,
      "v": 111
    },
    {
      "midi": 59,
      "hit": false,
      "t": 174540.79999999996,
      "d": 323.8550000000105,
      "v": 109
    },
    {
      "midi": 59,
      "hit": false,
      "t": 174949.87999999998,
      "d": 51.13500000000931,
      "v": 107
    },
    {
      "midi": 64,
      "hit": false,
      "t": 174949.87999999998,
      "d": 59.657500000001164,
      "v": 106
    },
    {
      "midi": 56,
      "hit": false,
      "t": 174949.87999999998,
      "d": 71.02083333334303,
      "v": 111
    },
    {
      "midi": 54,
      "hit": false,
      "t": 175358.96,
      "d": 735.7758333333477,
      "v": 111
    },
    {
      "midi": 63,
      "hit": false,
      "t": 175358.96,
      "d": 738.6166666666686,
      "v": 107
    },
    {
      "midi": 59,
      "hit": false,
      "t": 175358.96,
      "d": 764.1841666666733,
      "v": 109
    },
    {
      "midi": 63,
      "hit": false,
      "t": 176177.12,
      "d": 363.6266666666779,
      "v": 109
    },
    {
      "midi": 54,
      "hit": false,
      "t": 176177.12,
      "d": 366.46749999999884,
      "v": 110
    },
    {
      "midi": 59,
      "hit": false,
      "t": 176177.12,
      "d": 394.8758333333244,
      "v": 109
    },
    {
      "midi": 54,
      "hit": false,
      "t": 176722.56,
      "d": 326.6958333333314,
      "v": 108
    },
    {
      "midi": 63,
      "hit": false,
      "t": 176722.56,
      "d": 360.7858333333279,
      "v": 105
    },
    {
      "midi": 59,
      "hit": false,
      "t": 176722.56,
      "d": 431.80666666664183,
      "v": 106
    },
    {
      "midi": 52,
      "hit": false,
      "t": 177131.63999999998,
      "d": 59.657500000001164,
      "v": 116
    },
    {
      "midi": 57,
      "hit": false,
      "t": 177131.63999999998,
      "d": 82.3841666666558,
      "v": 106
    },
    {
      "midi": 61,
      "hit": false,
      "t": 177131.63999999998,
      "d": 119.31500000000233,
      "v": 109
    },
    {
      "midi": 61,
      "hit": false,
      "t": 177540.72,
      "d": 1053.9491666666581,
      "v": 113
    },
    {
      "midi": 57,
      "hit": false,
      "t": 177540.72,
      "d": 1068.153333333321,
      "v": 108
    },
    {
      "midi": 52,
      "hit": false,
      "t": 177540.72,
      "d": 1073.8349999999919,
      "v": 110
    },
    {
      "midi": 56,
      "hit": false,
      "t": 178904.32,
      "d": 298.2875000000058,
      "v": 110
    },
    {
      "midi": 64,
      "hit": false,
      "t": 178904.32,
      "d": 301.12833333332674,
      "v": 110
    },
    {
      "midi": 59,
      "hit": false,
      "t": 178904.32,
      "d": 303.96916666664765,
      "v": 108
    },
    {
      "midi": 59,
      "hit": false,
      "t": 179313.4,
      "d": 59.657500000001164,
      "v": 107
    },
    {
      "midi": 56,
      "hit": false,
      "t": 179313.4,
      "d": 62.49833333332208,
      "v": 110
    },
    {
      "midi": 64,
      "hit": false,
      "t": 179313.4,
      "d": 62.49833333332208,
      "v": 106
    },
    {
      "midi": 63,
      "hit": false,
      "t": 179722.47999999998,
      "d": 704.5266666666721,
      "v": 108
    },
    {
      "midi": 54,
      "hit": false,
      "t": 179722.47999999998,
      "d": 713.049166666664,
      "v": 110
    },
    {
      "midi": 59,
      "hit": false,
      "t": 179722.47999999998,
      "d": 732.9349999999977,
      "v": 108
    },
    {
      "midi": 63,
      "hit": false,
      "t": 180540.63999999998,
      "d": 363.6266666666779,
      "v": 107
    },
    {
      "midi": 54,
      "hit": false,
      "t": 180540.63999999998,
      "d": 366.46749999999884,
      "v": 110
    },
    {
      "midi": 59,
      "hit": false,
      "t": 180540.63999999998,
      "d": 383.51250000001164,
      "v": 106
    },
    {
      "midi": 54,
      "hit": false,
      "t": 181086.08,
      "d": 349.42249999998603,
      "v": 107
    },
    {
      "midi": 59,
      "hit": false,
      "t": 181086.08,
      "d": 383.51249999998254,
      "v": 108
    },
    {
      "midi": 63,
      "hit": false,
      "t": 181086.08,
      "d": 386.35333333330345,
      "v": 108
    },
    {
      "midi": 57,
      "hit": false,
      "t": 181495.15999999995,
      "d": 53.97583333333023,
      "v": 101
    },
    {
      "midi": 52,
      "hit": false,
      "t": 181495.15999999995,
      "d": 62.49833333332208,
      "v": 110
    },
    {
      "midi": 61,
      "hit": false,
      "t": 181495.15999999995,
      "d": 102.26999999998952,
      "v": 109
    },
    {
      "midi": 57,
      "hit": false,
      "t": 181904.23999999993,
      "d": 698.8450000000012,
      "v": 107
    },
    {
      "midi": 61,
      "hit": false,
      "t": 181904.23999999993,
      "d": 698.8450000000012,
      "v": 113
    },
    {
      "midi": 52,
      "hit": false,
      "t": 181904.23999999993,
      "d": 701.6858333333221,
      "v": 109
    },
    {
      "midi": 52,
      "hit": false,
      "t": 182722.3999999999,
      "d": 383.51250000001164,
      "v": 105
    },
    {
      "midi": 61,
      "hit": false,
      "t": 182722.3999999999,
      "d": 394.8758333333535,
      "v": 109
    },
    {
      "midi": 57,
      "hit": false,
      "t": 182722.3999999999,
      "d": 428.96583333335,
      "v": 106
    },
    {
      "midi": 54,
      "hit": false,
      "t": 183267.8399999999,
      "d": 1980.060833333322,
      "v": 110
    },
    {
      "midi": 59,
      "hit": false,
      "t": 183267.8399999999,
      "d": 2014.1508333333186,
      "v": 106
    },
    {
      "midi": 63,
      "hit": false,
      "t": 183267.8399999999,
      "d": 2014.1508333333186,
      "v": 108
    },
    {
      "midi": 54,
      "hit": false,
      "t": 185449.5999999999,
      "d": 2082.3308333333407,
      "v": 108
    },
    {
      "midi": 59,
      "hit": false,
      "t": 185449.5999999999,
      "d": 2088.0125000000116,
      "v": 109
    },
    {
      "midi": 63,
      "hit": false,
      "t": 185449.5999999999,
      "d": 2093.6941666666826,
      "v": 110
    },
    {
      "midi": 59,
      "hit": false,
      "t": 187631.3599999999,
      "d": 428.9658333333209,
      "v": 108
    },
    {
      "midi": 68,
      "hit": false,
      "t": 187631.3599999999,
      "d": 437.48833333331277,
      "v": 111
    },
    {
      "midi": 64,
      "hit": false,
      "t": 187631.3599999999,
      "d": 451.69249999997555,
      "v": 108
    },
    {
      "midi": 59,
      "hit": false,
      "t": 188176.79999999987,
      "d": 474.4191666666593,
      "v": 109
    },
    {
      "midi": 64,
      "hit": false,
      "t": 188176.79999999987,
      "d": 488.6233333333221,
      "v": 109
    },
    {
      "midi": 68,
      "hit": false,
      "t": 188176.79999999987,
      "d": 497.14583333331393,
      "v": 113
    },
    {
      "midi": 59,
      "hit": false,
      "t": 188994.95999999985,
      "d": 403.39833333334536,
      "v": 108
    },
    {
      "midi": 68,
      "hit": false,
      "t": 188994.95999999985,
      "d": 428.96583333335,
      "v": 109
    },
    {
      "midi": 64,
      "hit": false,
      "t": 188994.95999999985,
      "d": 446.0108333333628,
      "v": 108
    },
    {
      "midi": 59,
      "hit": false,
      "t": 189540.39999999988,
      "d": 1102.2433333333465,
      "v": 106
    },
    {
      "midi": 63,
      "hit": false,
      "t": 189540.39999999988,
      "d": 1122.1291666666802,
      "v": 108
    },
    {
      "midi": 66,
      "hit": false,
      "t": 189540.39999999988,
      "d": 1124.9700000000012,
      "v": 108
    },
    {
      "midi": 59,
      "hit": false,
      "t": 190903.99999999988,
      "d": 471.5783333333384,
      "v": 105
    },
    {
      "midi": 68,
      "hit": false,
      "t": 190903.99999999988,
      "d": 499.98666666666395,
      "v": 108
    },
    {
      "midi": 63,
      "hit": false,
      "t": 190903.99999999988,
      "d": 514.1908333333267,
      "v": 108
    },
    {
      "midi": 59,
      "hit": false,
      "t": 191449.4399999999,
      "d": 443.1700000000128,
      "v": 103
    },
    {
      "midi": 66,
      "hit": false,
      "t": 191449.4399999999,
      "d": 460.2150000000256,
      "v": 108
    },
    {
      "midi": 63,
      "hit": false,
      "t": 191449.4399999999,
      "d": 465.89666666669655,
      "v": 102
    },
    {
      "midi": 57,
      "hit": false,
      "t": 191994.87999999992,
      "d": 434.64749999999185,
      "v": 106
    },
    {
      "midi": 61,
      "hit": false,
      "t": 191994.87999999992,
      "d": 448.85166666665464,
      "v": 111
    },
    {
      "midi": 64,
      "hit": false,
      "t": 191994.87999999992,
      "d": 460.2149999999965,
      "v": 107
    },
    {
      "midi": 57,
      "hit": false,
      "t": 192540.31999999992,
      "d": 960.2016666666605,
      "v": 106
    },
    {
      "midi": 61,
      "hit": false,
      "t": 192540.31999999992,
      "d": 982.9283333333151,
      "v": 111
    },
    {
      "midi": 64,
      "hit": false,
      "t": 192540.31999999992,
      "d": 997.1324999999779,
      "v": 105
    },
    {
      "midi": 57,
      "hit": false,
      "t": 193631.1999999999,
      "d": 406.2391666666663,
      "v": 105
    },
    {
      "midi": 61,
      "hit": false,
      "t": 193631.1999999999,
      "d": 406.2391666666663,
      "v": 109
    },
    {
      "midi": 64,
      "hit": false,
      "t": 193631.1999999999,
      "d": 411.9208333333372,
      "v": 103
    },
    {
      "midi": 57,
      "hit": false,
      "t": 194176.6399999999,
      "d": 707.367499999993,
      "v": 107
    },
    {
      "midi": 61,
      "hit": false,
      "t": 194176.6399999999,
      "d": 710.2083333333139,
      "v": 110
    },
    {
      "midi": 64,
      "hit": false,
      "t": 194176.6399999999,
      "d": 718.7308333333058,
      "v": 107
    },
    {
      "midi": 57,
      "hit": false,
      "t": 194994.79999999987,
      "d": 144.88250000000698,
      "v": 97
    },
    {
      "midi": 61,
      "hit": false,
      "t": 194994.79999999987,
      "d": 181.8133333333535,
      "v": 107
    },
    {
      "midi": 64,
      "hit": false,
      "t": 194994.79999999987,
      "d": 201.69916666668723,
      "v": 95
    },
    {
      "midi": 59,
      "hit": false,
      "t": 195267.5199999999,
      "d": 505.6683333333349,
      "v": 103
    },
    {
      "midi": 66,
      "hit": false,
      "t": 195267.5199999999,
      "d": 511.3500000000058,
      "v": 102
    },
    {
      "midi": 63,
      "hit": false,
      "t": 195267.5199999999,
      "d": 531.2358333333395,
      "v": 99
    },
    {
      "midi": 59,
      "hit": false,
      "t": 195812.9599999999,
      "d": 409.0799999999872,
      "v": 103
    },
    {
      "midi": 63,
      "hit": false,
      "t": 195812.9599999999,
      "d": 411.9208333333081,
      "v": 102
    },
    {
      "midi": 66,
      "hit": false,
      "t": 195812.9599999999,
      "d": 434.64749999996275,
      "v": 106
    },
    {
      "midi": 68,
      "hit": false,
      "t": 196358.39999999988,
      "d": 457.3741666666756,
      "v": 109
    },
    {
      "midi": 59,
      "hit": false,
      "t": 196358.39999999988,
      "d": 463.0558333333465,
      "v": 110
    },
    {
      "midi": 64,
      "hit": false,
      "t": 196358.39999999988,
      "d": 480.10083333335933,
      "v": 107
    },
    {
      "midi": 68,
      "hit": false,
      "t": 196903.8399999999,
      "d": 431.80666666667094,
      "v": 110
    },
    {
      "midi": 59,
      "hit": false,
      "t": 196903.8399999999,
      "d": 437.48833333334187,
      "v": 108
    },
    {
      "midi": 64,
      "hit": false,
      "t": 196903.8399999999,
      "d": 446.0108333333337,
      "v": 107
    },
    {
      "midi": 59,
      "hit": false,
      "t": 197449.2799999999,
      "d": 232.94833333333372,
      "v": 107
    },
    {
      "midi": 64,
      "hit": false,
      "t": 197449.2799999999,
      "d": 292.6058333333349,
      "v": 107
    },
    {
      "midi": 68,
      "hit": false,
      "t": 197449.2799999999,
      "d": 306.8099999999977,
      "v": 109
    },
    {
      "midi": 66,
      "hit": false,
      "t": 197721.9999999999,
      "d": 301.12833333332674,
      "v": 106
    },
    {
      "midi": 59,
      "hit": false,
      "t": 197721.9999999999,
      "d": 355.10416666665697,
      "v": 92
    },
    {
      "midi": 64,
      "hit": false,
      "t": 197994.7199999999,
      "d": 190.33583333331626,
      "v": 102
    },
    {
      "midi": 59,
      "hit": false,
      "t": 198267.4399999999,
      "d": 900.5441666666593,
      "v": 107
    },
    {
      "midi": 66,
      "hit": false,
      "t": 198267.4399999999,
      "d": 906.2258333333302,
      "v": 107
    },
    {
      "midi": 63,
      "hit": false,
      "t": 198267.4399999999,
      "d": 920.429999999993,
      "v": 109
    },
    {
      "midi": 59,
      "hit": false,
      "t": 199358.3199999999,
      "d": 156.24583333331975,
      "v": 97
    },
    {
      "midi": 66,
      "hit": false,
      "t": 199358.3199999999,
      "d": 164.7683333333116,
      "v": 102
    },
    {
      "midi": 63,
      "hit": false,
      "t": 199358.3199999999,
      "d": 193.17666666663717,
      "v": 105
    },
    {
      "midi": 59,
      "hit": false,
      "t": 199631.03999999986,
      "d": 437.48833333334187,
      "v": 102
    },
    {
      "midi": 68,
      "hit": false,
      "t": 199631.03999999986,
      "d": 468.73750000001746,
      "v": 107
    },
    {
      "midi": 63,
      "hit": false,
      "t": 199631.03999999986,
      "d": 491.4641666666721,
      "v": 106
    },
    {
      "midi": 59,
      "hit": false,
      "t": 200176.47999999986,
      "d": 488.6233333333221,
      "v": 102
    },
    {
      "midi": 63,
      "hit": false,
      "t": 200176.47999999986,
      "d": 511.3499999999767,
      "v": 101
    },
    {
      "midi": 66,
      "hit": false,
      "t": 200176.47999999986,
      "d": 517.0316666666477,
      "v": 106
    },
    {
      "midi": 57,
      "hit": false,
      "t": 200721.91999999984,
      "d": 460.2149999999965,
      "v": 110
    },
    {
      "midi": 64,
      "hit": false,
      "t": 200721.91999999984,
      "d": 468.73749999998836,
      "v": 107
    },
    {
      "midi": 61,
      "hit": false,
      "t": 200721.91999999984,
      "d": 474.4191666666593,
      "v": 115
    },
    {
      "midi": 64,
      "hit": false,
      "t": 201267.35999999984,
      "d": 460.2149999999965,
      "v": 108
    },
    {
      "midi": 61,
      "hit": false,
      "t": 201267.35999999984,
      "d": 474.4191666666593,
      "v": 110
    },
    {
      "midi": 57,
      "hit": false,
      "t": 201267.35999999984,
      "d": 485.78250000000116,
      "v": 108
    },
    {
      "midi": 57,
      "hit": false,
      "t": 201812.79999999984,
      "d": 170.45000000001164,
      "v": 70
    },
    {
      "midi": 61,
      "hit": false,
      "t": 201812.79999999984,
      "d": 289.76500000001397,
      "v": 108
    },
    {
      "midi": 64,
      "hit": false,
      "t": 201812.79999999984,
      "d": 434.64750000002095,
      "v": 107
    },
    {
      "midi": 57,
      "hit": false,
      "t": 202085.51999999984,
      "d": 684.6408333333675,
      "v": 106
    },
    {
      "midi": 64,
      "hit": false,
      "t": 202358.23999999987,
      "d": 446.0108333333337,
      "v": 106
    },
    {
      "midi": 57,
      "hit": false,
      "t": 202903.67999999988,
      "d": 872.1358333333337,
      "v": 105
    },
    {
      "midi": 64,
      "hit": false,
      "t": 202903.67999999988,
      "d": 892.0216666666674,
      "v": 106
    },
    {
      "midi": 61,
      "hit": false,
      "t": 202903.67999999988,
      "d": 926.111666666664,
      "v": 107
    },
    {
      "midi": 63,
      "hit": false,
      "t": 203994.55999999988,
      "d": 886.3399999999965,
      "v": 107
    },
    {
      "midi": 59,
      "hit": false,
      "t": 203994.55999999988,
      "d": 889.1808333333174,
      "v": 106
    },
    {
      "midi": 66,
      "hit": false,
      "t": 203994.55999999988,
      "d": 897.7033333333093,
      "v": 107
    },
    {
      "midi": 59,
      "hit": false,
      "t": 205085.43999999986,
      "d": 428.9658333333209,
      "v": 108
    },
    {
      "midi": 68,
      "hit": false,
      "t": 205085.43999999986,
      "d": 437.48833333331277,
      "v": 111
    },
    {
      "midi": 64,
      "hit": false,
      "t": 205085.43999999986,
      "d": 451.69249999997555,
      "v": 108
    },
    {
      "midi": 59,
      "hit": false,
      "t": 205630.87999999983,
      "d": 474.4191666666593,
      "v": 109
    },
    {
      "midi": 64,
      "hit": false,
      "t": 205630.87999999983,
      "d": 488.6233333333221,
      "v": 109
    },
    {
      "midi": 68,
      "hit": false,
      "t": 205630.87999999983,
      "d": 497.14583333331393,
      "v": 113
    },
    {
      "midi": 59,
      "hit": false,
      "t": 206449.0399999998,
      "d": 403.39833333334536,
      "v": 108
    },
    {
      "midi": 68,
      "hit": false,
      "t": 206449.0399999998,
      "d": 428.96583333335,
      "v": 109
    },
    {
      "midi": 64,
      "hit": false,
      "t": 206449.0399999998,
      "d": 446.0108333333628,
      "v": 108
    },
    {
      "midi": 59,
      "hit": false,
      "t": 206994.47999999984,
      "d": 1102.2433333333465,
      "v": 106
    },
    {
      "midi": 63,
      "hit": false,
      "t": 206994.47999999984,
      "d": 1122.1291666666802,
      "v": 108
    },
    {
      "midi": 66,
      "hit": false,
      "t": 206994.47999999984,
      "d": 1124.9700000000012,
      "v": 108
    },
    {
      "midi": 59,
      "hit": false,
      "t": 208358.07999999984,
      "d": 471.5783333333384,
      "v": 105
    },
    {
      "midi": 68,
      "hit": false,
      "t": 208358.07999999984,
      "d": 499.98666666666395,
      "v": 108
    },
    {
      "midi": 63,
      "hit": false,
      "t": 208358.07999999984,
      "d": 514.1908333333267,
      "v": 108
    },
    {
      "midi": 59,
      "hit": false,
      "t": 208903.51999999984,
      "d": 443.1700000000128,
      "v": 103
    },
    {
      "midi": 66,
      "hit": false,
      "t": 208903.51999999984,
      "d": 460.2150000000256,
      "v": 108
    },
    {
      "midi": 63,
      "hit": false,
      "t": 208903.51999999984,
      "d": 465.89666666669655,
      "v": 102
    },
    {
      "midi": 57,
      "hit": false,
      "t": 209448.95999999988,
      "d": 434.64749999999185,
      "v": 106
    },
    {
      "midi": 61,
      "hit": false,
      "t": 209448.95999999988,
      "d": 448.85166666665464,
      "v": 111
    },
    {
      "midi": 64,
      "hit": false,
      "t": 209448.95999999988,
      "d": 460.2149999999965,
      "v": 107
    },
    {
      "midi": 57,
      "hit": false,
      "t": 209994.39999999988,
      "d": 960.2016666666605,
      "v": 106
    },
    {
      "midi": 61,
      "hit": false,
      "t": 209994.39999999988,
      "d": 982.9283333333151,
      "v": 111
    },
    {
      "midi": 64,
      "hit": false,
      "t": 209994.39999999988,
      "d": 997.1324999999779,
      "v": 105
    },
    {
      "midi": 57,
      "hit": false,
      "t": 211085.27999999985,
      "d": 406.2391666666663,
      "v": 105
    },
    {
      "midi": 61,
      "hit": false,
      "t": 211085.27999999985,
      "d": 406.2391666666663,
      "v": 109
    },
    {
      "midi": 64,
      "hit": false,
      "t": 211085.27999999985,
      "d": 411.9208333333372,
      "v": 103
    },
    {
      "midi": 57,
      "hit": false,
      "t": 211630.71999999986,
      "d": 707.367499999993,
      "v": 107
    },
    {
      "midi": 61,
      "hit": false,
      "t": 211630.71999999986,
      "d": 710.2083333333139,
      "v": 110
    },
    {
      "midi": 64,
      "hit": false,
      "t": 211630.71999999986,
      "d": 718.7308333333058,
      "v": 107
    },
    {
      "midi": 57,
      "hit": false,
      "t": 212448.87999999983,
      "d": 144.88250000000698,
      "v": 97
    },
    {
      "midi": 61,
      "hit": false,
      "t": 212448.87999999983,
      "d": 181.8133333333535,
      "v": 107
    },
    {
      "midi": 64,
      "hit": false,
      "t": 212448.87999999983,
      "d": 201.69916666668723,
      "v": 95
    },
    {
      "midi": 59,
      "hit": false,
      "t": 212721.59999999986,
      "d": 505.6683333333349,
      "v": 103
    },
    {
      "midi": 66,
      "hit": false,
      "t": 212721.59999999986,
      "d": 511.3500000000058,
      "v": 102
    },
    {
      "midi": 63,
      "hit": false,
      "t": 212721.59999999986,
      "d": 531.2358333333395,
      "v": 99
    },
    {
      "midi": 59,
      "hit": false,
      "t": 213267.03999999986,
      "d": 409.0799999999872,
      "v": 103
    },
    {
      "midi": 63,
      "hit": false,
      "t": 213267.03999999986,
      "d": 411.9208333333081,
      "v": 102
    },
    {
      "midi": 66,
      "hit": false,
      "t": 213267.03999999986,
      "d": 434.64749999996275,
      "v": 106
    },
    {
      "midi": 68,
      "hit": false,
      "t": 213812.47999999984,
      "d": 457.3741666666756,
      "v": 109
    },
    {
      "midi": 59,
      "hit": false,
      "t": 213812.47999999984,
      "d": 463.0558333333465,
      "v": 110
    },
    {
      "midi": 64,
      "hit": false,
      "t": 213812.47999999984,
      "d": 480.10083333335933,
      "v": 107
    },
    {
      "midi": 68,
      "hit": false,
      "t": 214357.91999999987,
      "d": 431.80666666667094,
      "v": 110
    },
    {
      "midi": 59,
      "hit": false,
      "t": 214357.91999999987,
      "d": 437.48833333334187,
      "v": 108
    },
    {
      "midi": 64,
      "hit": false,
      "t": 214357.91999999987,
      "d": 446.0108333333337,
      "v": 107
    },
    {
      "midi": 59,
      "hit": false,
      "t": 214903.35999999987,
      "d": 232.94833333333372,
      "v": 107
    },
    {
      "midi": 64,
      "hit": false,
      "t": 214903.35999999987,
      "d": 292.6058333333349,
      "v": 107
    },
    {
      "midi": 68,
      "hit": false,
      "t": 214903.35999999987,
      "d": 306.8099999999977,
      "v": 109
    },
    {
      "midi": 66,
      "hit": false,
      "t": 215176.07999999987,
      "d": 301.12833333332674,
      "v": 106
    },
    {
      "midi": 59,
      "hit": false,
      "t": 215176.07999999987,
      "d": 355.10416666665697,
      "v": 92
    },
    {
      "midi": 64,
      "hit": false,
      "t": 215448.79999999987,
      "d": 190.33583333331626,
      "v": 102
    },
    {
      "midi": 59,
      "hit": false,
      "t": 215721.51999999984,
      "d": 900.5441666666593,
      "v": 107
    },
    {
      "midi": 66,
      "hit": false,
      "t": 215721.51999999984,
      "d": 906.2258333333302,
      "v": 107
    },
    {
      "midi": 63,
      "hit": false,
      "t": 215721.51999999984,
      "d": 920.429999999993,
      "v": 109
    },
    {
      "midi": 59,
      "hit": false,
      "t": 216812.39999999985,
      "d": 156.24583333331975,
      "v": 97
    },
    {
      "midi": 66,
      "hit": false,
      "t": 216812.39999999985,
      "d": 164.7683333333116,
      "v": 102
    },
    {
      "midi": 63,
      "hit": false,
      "t": 216812.39999999985,
      "d": 193.17666666663717,
      "v": 105
    },
    {
      "midi": 59,
      "hit": false,
      "t": 217085.11999999982,
      "d": 437.48833333334187,
      "v": 102
    },
    {
      "midi": 68,
      "hit": false,
      "t": 217085.11999999982,
      "d": 468.73750000001746,
      "v": 107
    },
    {
      "midi": 63,
      "hit": false,
      "t": 217085.11999999982,
      "d": 491.4641666666721,
      "v": 106
    },
    {
      "midi": 59,
      "hit": false,
      "t": 217630.55999999982,
      "d": 488.6233333333221,
      "v": 102
    },
    {
      "midi": 63,
      "hit": false,
      "t": 217630.55999999982,
      "d": 511.3499999999767,
      "v": 101
    },
    {
      "midi": 66,
      "hit": false,
      "t": 217630.55999999982,
      "d": 517.0316666666477,
      "v": 106
    },
    {
      "midi": 57,
      "hit": false,
      "t": 218175.9999999998,
      "d": 460.2149999999965,
      "v": 110
    },
    {
      "midi": 64,
      "hit": false,
      "t": 218175.9999999998,
      "d": 468.73749999998836,
      "v": 107
    },
    {
      "midi": 61,
      "hit": false,
      "t": 218175.9999999998,
      "d": 474.4191666666593,
      "v": 115
    },
    {
      "midi": 64,
      "hit": false,
      "t": 218721.4399999998,
      "d": 460.2149999999965,
      "v": 108
    },
    {
      "midi": 61,
      "hit": false,
      "t": 218721.4399999998,
      "d": 474.4191666666593,
      "v": 110
    },
    {
      "midi": 57,
      "hit": false,
      "t": 218721.4399999998,
      "d": 485.78250000000116,
      "v": 108
    },
    {
      "midi": 57,
      "hit": false,
      "t": 219266.8799999998,
      "d": 170.45000000001164,
      "v": 70
    },
    {
      "midi": 61,
      "hit": false,
      "t": 219266.8799999998,
      "d": 289.76500000001397,
      "v": 108
    },
    {
      "midi": 64,
      "hit": false,
      "t": 219266.8799999998,
      "d": 434.64750000002095,
      "v": 107
    },
    {
      "midi": 57,
      "hit": false,
      "t": 219539.5999999998,
      "d": 684.6408333333675,
      "v": 106
    },
    {
      "midi": 64,
      "hit": false,
      "t": 219812.31999999983,
      "d": 446.0108333333337,
      "v": 106
    },
    {
      "midi": 57,
      "hit": false,
      "t": 220357.75999999983,
      "d": 872.1358333333337,
      "v": 105
    },
    {
      "midi": 64,
      "hit": false,
      "t": 220357.75999999983,
      "d": 892.0216666666674,
      "v": 106
    },
    {
      "midi": 61,
      "hit": false,
      "t": 220357.75999999983,
      "d": 926.111666666664,
      "v": 107
    },
    {
      "midi": 63,
      "hit": false,
      "t": 221448.63999999984,
      "d": 886.3399999999965,
      "v": 107
    },
    {
      "midi": 59,
      "hit": false,
      "t": 221448.63999999984,
      "d": 889.1808333333174,
      "v": 106
    },
    {
      "midi": 66,
      "hit": false,
      "t": 221448.63999999984,
      "d": 897.7033333333093,
      "v": 107
    },
    {
      "midi": 59,
      "hit": false,
      "t": 222539.51999999981,
      "d": 428.9658333333209,
      "v": 108
    },
    {
      "midi": 68,
      "hit": false,
      "t": 222539.51999999981,
      "d": 437.48833333331277,
      "v": 111
    },
    {
      "midi": 64,
      "hit": false,
      "t": 222539.51999999981,
      "d": 451.69249999997555,
      "v": 108
    },
    {
      "midi": 59,
      "hit": false,
      "t": 223084.9599999998,
      "d": 474.4191666666884,
      "v": 109
    },
    {
      "midi": 64,
      "hit": false,
      "t": 223084.9599999998,
      "d": 488.6233333333512,
      "v": 109
    },
    {
      "midi": 68,
      "hit": false,
      "t": 223084.9599999998,
      "d": 497.14583333334303,
      "v": 113
    },
    {
      "midi": 59,
      "hit": false,
      "t": 223903.1199999998,
      "d": 403.39833333334536,
      "v": 108
    },
    {
      "midi": 68,
      "hit": false,
      "t": 223903.1199999998,
      "d": 428.96583333335,
      "v": 109
    },
    {
      "midi": 64,
      "hit": false,
      "t": 223903.1199999998,
      "d": 446.0108333333628,
      "v": 108
    },
    {
      "midi": 59,
      "hit": false,
      "t": 224448.55999999982,
      "d": 1102.2433333333465,
      "v": 106
    },
    {
      "midi": 63,
      "hit": false,
      "t": 224448.55999999982,
      "d": 1122.1291666666802,
      "v": 108
    },
    {
      "midi": 66,
      "hit": false,
      "t": 224448.55999999982,
      "d": 1124.9700000000012,
      "v": 108
    },
    {
      "midi": 59,
      "hit": false,
      "t": 225812.15999999983,
      "d": 471.5783333333384,
      "v": 105
    },
    {
      "midi": 68,
      "hit": false,
      "t": 225812.15999999983,
      "d": 499.98666666669305,
      "v": 108
    },
    {
      "midi": 63,
      "hit": false,
      "t": 225812.15999999983,
      "d": 514.1908333333558,
      "v": 108
    },
    {
      "midi": 59,
      "hit": false,
      "t": 226357.59999999986,
      "d": 443.1700000000128,
      "v": 103
    },
    {
      "midi": 66,
      "hit": false,
      "t": 226357.59999999986,
      "d": 460.2150000000256,
      "v": 108
    },
    {
      "midi": 63,
      "hit": false,
      "t": 226357.59999999986,
      "d": 465.89666666669655,
      "v": 102
    },
    {
      "midi": 57,
      "hit": false,
      "t": 226903.0399999999,
      "d": 434.64750000002095,
      "v": 106
    },
    {
      "midi": 61,
      "hit": false,
      "t": 226903.0399999999,
      "d": 448.85166666668374,
      "v": 111
    },
    {
      "midi": 64,
      "hit": false,
      "t": 226903.0399999999,
      "d": 460.2150000000256,
      "v": 107
    },
    {
      "midi": 57,
      "hit": false,
      "t": 227448.47999999992,
      "d": 960.2016666666314,
      "v": 106
    },
    {
      "midi": 61,
      "hit": false,
      "t": 227448.47999999992,
      "d": 982.928333333286,
      "v": 111
    },
    {
      "midi": 64,
      "hit": false,
      "t": 227448.47999999992,
      "d": 997.1324999999488,
      "v": 105
    },
    {
      "midi": 57,
      "hit": false,
      "t": 228539.35999999987,
      "d": 406.2391666666954,
      "v": 105
    },
    {
      "midi": 61,
      "hit": false,
      "t": 228539.35999999987,
      "d": 406.2391666666954,
      "v": 109
    },
    {
      "midi": 64,
      "hit": false,
      "t": 228539.35999999987,
      "d": 411.9208333333663,
      "v": 103
    },
    {
      "midi": 57,
      "hit": false,
      "t": 229084.7999999999,
      "d": 707.3675000000221,
      "v": 107
    },
    {
      "midi": 61,
      "hit": false,
      "t": 229084.7999999999,
      "d": 710.208333333343,
      "v": 110
    },
    {
      "midi": 64,
      "hit": false,
      "t": 229084.7999999999,
      "d": 718.7308333333349,
      "v": 107
    },
    {
      "midi": 57,
      "hit": false,
      "t": 229902.9599999999,
      "d": 144.88250000000698,
      "v": 97
    },
    {
      "midi": 61,
      "hit": false,
      "t": 229902.9599999999,
      "d": 181.8133333333535,
      "v": 107
    },
    {
      "midi": 64,
      "hit": false,
      "t": 229902.9599999999,
      "d": 201.69916666668723,
      "v": 95
    },
    {
      "midi": 59,
      "hit": false,
      "t": 230175.67999999993,
      "d": 505.6683333333058,
      "v": 103
    },
    {
      "midi": 66,
      "hit": false,
      "t": 230175.67999999993,
      "d": 511.3499999999767,
      "v": 102
    },
    {
      "midi": 63,
      "hit": false,
      "t": 230175.67999999993,
      "d": 531.2358333333104,
      "v": 99
    },
    {
      "midi": 59,
      "hit": false,
      "t": 230721.1199999999,
      "d": 409.0799999999581,
      "v": 103
    },
    {
      "midi": 63,
      "hit": false,
      "t": 230721.1199999999,
      "d": 411.920833333279,
      "v": 102
    },
    {
      "midi": 66,
      "hit": false,
      "t": 230721.1199999999,
      "d": 434.64749999993364,
      "v": 106
    },
    {
      "midi": 68,
      "hit": false,
      "t": 231266.55999999985,
      "d": 457.3741666666465,
      "v": 109
    },
    {
      "midi": 59,
      "hit": false,
      "t": 231266.55999999985,
      "d": 463.0558333333174,
      "v": 110
    },
    {
      "midi": 64,
      "hit": false,
      "t": 231266.55999999985,
      "d": 480.10083333333023,
      "v": 107
    },
    {
      "midi": 68,
      "hit": false,
      "t": 231811.99999999985,
      "d": 431.80666666664183,
      "v": 110
    },
    {
      "midi": 59,
      "hit": false,
      "t": 231811.99999999985,
      "d": 437.48833333331277,
      "v": 108
    },
    {
      "midi": 64,
      "hit": false,
      "t": 231811.99999999985,
      "d": 446.0108333333046,
      "v": 107
    },
    {
      "midi": 59,
      "hit": false,
      "t": 232357.43999999983,
      "d": 232.94833333333372,
      "v": 107
    },
    {
      "midi": 64,
      "hit": false,
      "t": 232357.43999999983,
      "d": 292.6058333333349,
      "v": 107
    },
    {
      "midi": 68,
      "hit": false,
      "t": 232357.43999999983,
      "d": 306.8099999999977,
      "v": 109
    },
    {
      "midi": 66,
      "hit": false,
      "t": 232630.15999999983,
      "d": 301.12833333332674,
      "v": 106
    },
    {
      "midi": 59,
      "hit": false,
      "t": 232630.15999999983,
      "d": 355.10416666665697,
      "v": 92
    },
    {
      "midi": 64,
      "hit": false,
      "t": 232902.87999999983,
      "d": 190.33583333331626,
      "v": 102
    },
    {
      "midi": 59,
      "hit": false,
      "t": 233175.5999999998,
      "d": 900.5441666666593,
      "v": 107
    },
    {
      "midi": 66,
      "hit": false,
      "t": 233175.5999999998,
      "d": 906.2258333333302,
      "v": 107
    },
    {
      "midi": 63,
      "hit": false,
      "t": 233175.5999999998,
      "d": 920.429999999993,
      "v": 109
    },
    {
      "midi": 59,
      "hit": false,
      "t": 234266.47999999978,
      "d": 156.24583333331975,
      "v": 97
    },
    {
      "midi": 66,
      "hit": false,
      "t": 234266.47999999978,
      "d": 164.7683333333116,
      "v": 102
    },
    {
      "midi": 63,
      "hit": false,
      "t": 234266.47999999978,
      "d": 193.17666666663717,
      "v": 105
    },
    {
      "midi": 59,
      "hit": false,
      "t": 234539.19999999975,
      "d": 437.48833333334187,
      "v": 102
    },
    {
      "midi": 68,
      "hit": false,
      "t": 234539.19999999975,
      "d": 468.73750000001746,
      "v": 107
    },
    {
      "midi": 63,
      "hit": false,
      "t": 234539.19999999975,
      "d": 491.4641666666721,
      "v": 106
    },
    {
      "midi": 59,
      "hit": false,
      "t": 235084.63999999975,
      "d": 488.6233333333512,
      "v": 102
    },
    {
      "midi": 63,
      "hit": false,
      "t": 235084.63999999975,
      "d": 511.3500000000058,
      "v": 101
    },
    {
      "midi": 66,
      "hit": false,
      "t": 235084.63999999975,
      "d": 517.0316666666768,
      "v": 106
    },
    {
      "midi": 57,
      "hit": false,
      "t": 235630.07999999975,
      "d": 460.2149999999965,
      "v": 110
    },
    {
      "midi": 64,
      "hit": false,
      "t": 235630.07999999975,
      "d": 468.73749999998836,
      "v": 107
    },
    {
      "midi": 61,
      "hit": false,
      "t": 235630.07999999975,
      "d": 474.4191666666593,
      "v": 115
    },
    {
      "midi": 64,
      "hit": false,
      "t": 236175.51999999976,
      "d": 460.2149999999965,
      "v": 108
    },
    {
      "midi": 61,
      "hit": false,
      "t": 236175.51999999976,
      "d": 474.4191666666593,
      "v": 110
    },
    {
      "midi": 57,
      "hit": false,
      "t": 236175.51999999976,
      "d": 485.78250000000116,
      "v": 108
    },
    {
      "midi": 57,
      "hit": false,
      "t": 236720.95999999976,
      "d": 170.44999999998254,
      "v": 70
    },
    {
      "midi": 61,
      "hit": false,
      "t": 236720.95999999976,
      "d": 289.76499999998487,
      "v": 108
    },
    {
      "midi": 64,
      "hit": false,
      "t": 236720.95999999976,
      "d": 434.64749999999185,
      "v": 107
    },
    {
      "midi": 57,
      "hit": false,
      "t": 236993.67999999973,
      "d": 684.6408333333675,
      "v": 106
    },
    {
      "midi": 64,
      "hit": false,
      "t": 237266.39999999976,
      "d": 446.0108333333337,
      "v": 106
    },
    {
      "midi": 57,
      "hit": false,
      "t": 237811.83999999976,
      "d": 872.1358333333628,
      "v": 105
    },
    {
      "midi": 64,
      "hit": false,
      "t": 237811.83999999976,
      "d": 892.0216666666965,
      "v": 106
    },
    {
      "midi": 61,
      "hit": false,
      "t": 237811.83999999976,
      "d": 926.111666666693,
      "v": 107
    },
    {
      "midi": 63,
      "hit": false,
      "t": 238902.7199999998,
      "d": 886.3399999999383,
      "v": 107
    },
    {
      "midi": 59,
      "hit": false,
      "t": 238902.7199999998,
      "d": 889.1808333332592,
      "v": 106
    },
    {
      "midi": 66,
      "hit": false,
      "t": 238902.7199999998,
      "d": 897.7033333332511,
      "v": 107
    }
  ]
}