{
  "jsonPath": "Rock/Progressive Bluegrass/IIIRD Tyme Out/eternity-has-begun.json",
  "path": "Rock\\Progressive Bluegrass\\IIIRD Tyme Out\\Eternity Has Begun.mid",
  "name": "Eternity Has Begun",
  "difficulty": "Advanced",
  "bpm": 80,
  "notes": [
    {
      "midi": 52,
      "hit": false,
      "t": 2553.192,
      "d": 638.2980000000002,
      "v": 100
    },
    {
      "midi": 53,
      "hit": false,
      "t": 2978.724,
      "d": 425.53200000000015,
      "v": 100
    },
    {
      "midi": 54,
      "hit": false,
      "t": 3404.2560000000003,
      "d": 425.53200000000015,
      "v": 100
    },
    {
      "midi": 55,
      "hit": false,
      "t": 3829.7880000000005,
      "d": 851.0640000000003,
      "v": 100
    },
    {
      "midi": 52,
      "hit": false,
      "t": 4680.852000000001,
      "d": 2553.192,
      "v": 100
    },
    {
      "midi": 55,
      "hit": false,
      "t": 7234.044000000001,
      "d": 425.53200000000015,
      "v": 101
    },
    {
      "midi": 56,
      "hit": false,
      "t": 7659.576000000001,
      "d": 244.68089999999938,
      "v": 98
    },
    {
      "midi": 55,
      "hit": false,
      "t": 7872.342000000001,
      "d": 148.9362000000001,
      "v": 75
    },
    {
      "midi": 54,
      "hit": false,
      "t": 8085.108000000001,
      "d": 180.85110000000077,
      "v": 72
    },
    {
      "midi": 53,
      "hit": false,
      "t": 8297.874000000002,
      "d": 170.21279999999933,
      "v": 70
    },
    {
      "midi": 52,
      "hit": false,
      "t": 8510.640000000001,
      "d": 2425.5324,
      "v": 95
    },
    {
      "midi": 56,
      "hit": false,
      "t": 11063.832000000002,
      "d": 468.08519999999953,
      "v": 102
    },
    {
      "midi": 57,
      "hit": false,
      "t": 11489.364000000001,
      "d": 1276.5959999999995,
      "v": 100
    },
    {
      "midi": 60,
      "hit": false,
      "t": 12765.960000000001,
      "d": 1276.5959999999995,
      "v": 101
    },
    {
      "midi": 62,
      "hit": false,
      "t": 14042.556,
      "d": 1276.5959999999995,
      "v": 103
    },
    {
      "midi": 54,
      "hit": false,
      "t": 15319.152,
      "d": 1063.83,
      "v": 104
    },
    {
      "midi": 63,
      "hit": false,
      "t": 15319.152,
      "d": 1276.5959999999995,
      "v": 104
    },
    {
      "midi": 55,
      "hit": false,
      "t": 17446.811999999998,
      "d": 840.4257000000034,
      "v": 107
    },
    {
      "midi": 60,
      "hit": false,
      "t": 18297.876,
      "d": 425.53199999999924,
      "v": 107
    },
    {
      "midi": 67,
      "hit": false,
      "t": 18297.876,
      "d": 425.53199999999924,
      "v": 107
    },
    {
      "midi": 62,
      "hit": false,
      "t": 18723.408,
      "d": 212.76599999999962,
      "v": 108
    },
    {
      "midi": 67,
      "hit": false,
      "t": 18723.408,
      "d": 212.76599999999962,
      "v": 108
    },
    {
      "midi": 62,
      "hit": false,
      "t": 19148.94,
      "d": 425.53199999999924,
      "v": 109
    },
    {
      "midi": 67,
      "hit": false,
      "t": 19148.94,
      "d": 851.0639999999985,
      "v": 109
    },
    {
      "midi": 64,
      "hit": false,
      "t": 19361.706,
      "d": 851.0639999999985,
      "v": 109
    },
    {
      "midi": 60,
      "hit": false,
      "t": 20000.003999999997,
      "d": 425.53199999999924,
      "v": 110
    },
    {
      "midi": 67,
      "hit": false,
      "t": 20000.003999999997,
      "d": 425.53199999999924,
      "v": 110
    },
    {
      "midi": 55,
      "hit": false,
      "t": 20425.535999999996,
      "d": 1265.9577000000027,
      "v": 119
    },
    {
      "midi": 48,
      "hit": false,
      "t": 20425.535999999996,
      "d": 1276.5960000000014,
      "v": 98
    },
    {
      "midi": 55,
      "hit": false,
      "t": 22234.047,
      "d": 372.3404999999984,
      "v": 100
    },
    {
      "midi": 54,
      "hit": false,
      "t": 22574.472599999997,
      "d": 414.89370000000054,
      "v": 103
    },
    {
      "midi": 53,
      "hit": false,
      "t": 23000.004599999997,
      "d": 829.7874000000011,
      "v": 108
    },
    {
      "midi": 55,
      "hit": false,
      "t": 23829.791999999998,
      "d": 851.0639999999985,
      "v": 117
    },
    {
      "midi": 60,
      "hit": false,
      "t": 26021.281799999997,
      "d": 234.04260000000068,
      "v": 90
    },
    {
      "midi": 61,
      "hit": false,
      "t": 26148.941399999996,
      "d": 234.04260000000068,
      "v": 67
    },
    {
      "midi": 62,
      "hit": false,
      "t": 26297.877599999996,
      "d": 627.6597000000002,
      "v": 94
    },
    {
      "midi": 60,
      "hit": false,
      "t": 26925.537299999996,
      "d": 2063.8302000000003,
      "v": 94
    },
    {
      "midi": 55,
      "hit": false,
      "t": 28936.175999999996,
      "d": 425.53199999999924,
      "v": 121
    },
    {
      "midi": 64,
      "hit": false,
      "t": 29361.707999999995,
      "d": 212.76599999999962,
      "v": 122
    },
    {
      "midi": 67,
      "hit": false,
      "t": 29361.707999999995,
      "d": 212.76599999999962,
      "v": 122
    },
    {
      "midi": 65,
      "hit": false,
      "t": 30212.771999999994,
      "d": 212.76599999999962,
      "v": 123
    },
    {
      "midi": 69,
      "hit": false,
      "t": 30212.771999999994,
      "d": 212.76599999999962,
      "v": 123
    },
    {
      "midi": 64,
      "hit": false,
      "t": 30638.303999999993,
      "d": 425.53199999999924,
      "v": 123
    },
    {
      "midi": 67,
      "hit": false,
      "t": 30638.303999999993,
      "d": 425.53199999999924,
      "v": 123
    },
    {
      "midi": 43,
      "hit": false,
      "t": 30638.303999999993,
      "d": 638.2979999999989,
      "v": 123
    },
    {
      "midi": 45,
      "hit": false,
      "t": 31914.89999999999,
      "d": 638.2979999999989,
      "v": 125
    },
    {
      "midi": 63,
      "hit": false,
      "t": 31914.89999999999,
      "d": 638.2979999999989,
      "v": 125
    },
    {
      "midi": 66,
      "hit": false,
      "t": 31914.89999999999,
      "d": 638.2979999999989,
      "v": 125
    },
    {
      "midi": 47,
      "hit": false,
      "t": 33191.49599999999,
      "d": 1063.8299999999945,
      "v": 126
    },
    {
      "midi": 62,
      "hit": false,
      "t": 33191.49599999999,
      "d": 1063.8299999999945,
      "v": 127
    },
    {
      "midi": 65,
      "hit": false,
      "t": 33191.49599999999,
      "d": 1063.8299999999945,
      "v": 127
    },
    {
      "midi": 48,
      "hit": false,
      "t": 34468.09199999999,
      "d": 2170.2131999999983,
      "v": 100
    },
    {
      "midi": 64,
      "hit": false,
      "t": 34468.09199999999,
      "d": 2170.2131999999983,
      "v": 100
    },
    {
      "midi": 60,
      "hit": false,
      "t": 34468.09199999999,
      "d": 2191.4897999999957,
      "v": 100
    },
    {
      "midi": 67,
      "hit": false,
      "t": 34468.09199999999,
      "d": 2223.404699999999,
      "v": 100
    },
    {
      "midi": 62,
      "hit": false,
      "t": 37489.36919999999,
      "d": 148.93619999999646,
      "v": 102
    },
    {
      "midi": 50,
      "hit": false,
      "t": 37510.645799999984,
      "d": 276.5957999999955,
      "v": 102
    },
    {
      "midi": 63,
      "hit": false,
      "t": 37851.07139999998,
      "d": 95.74469999999565,
      "v": 103
    },
    {
      "midi": 51,
      "hit": false,
      "t": 37861.70969999998,
      "d": 170.21279999999388,
      "v": 103
    },
    {
      "midi": 52,
      "hit": false,
      "t": 38265.96509999997,
      "d": 3297.8729999999923,
      "v": 103
    },
    {
      "midi": 68,
      "hit": false,
      "t": 38319.15659999997,
      "d": 2670.213299999996,
      "v": 103
    },
    {
      "midi": 71,
      "hit": false,
      "t": 38340.43319999997,
      "d": 3031.9154999999955,
      "v": 103
    },
    {
      "midi": 64,
      "hit": false,
      "t": 38351.07149999997,
      "d": 2191.489800000003,
      "v": 103
    },
    {
      "midi": 56,
      "hit": false,
      "t": 40212.77399999997,
      "d": 1382.9789999999994,
      "v": 105
    },
    {
      "midi": 59,
      "hit": false,
      "t": 40553.19959999997,
      "d": 1223.404499999997,
      "v": 105
    },
    {
      "midi": 64,
      "hit": false,
      "t": 40978.73159999997,
      "d": 776.5959000000003,
      "v": 105
    },
    {
      "midi": 68,
      "hit": false,
      "t": 41351.07209999997,
      "d": 404.2554000000018,
      "v": 106
    },
    {
      "midi": 71,
      "hit": false,
      "t": 41702.13599999997,
      "d": 117.02130000000034,
      "v": 106
    },
    {
      "midi": 72,
      "hit": false,
      "t": 42212.77439999997,
      "d": 2627.660100000001,
      "v": 106
    },
    {
      "midi": 65,
      "hit": false,
      "t": 42212.77439999997,
      "d": 2691.4899000000005,
      "v": 106
    },
    {
      "midi": 69,
      "hit": false,
      "t": 42223.41269999997,
      "d": 2627.660100000001,
      "v": 106
    },
    {
      "midi": 53,
      "hit": false,
      "t": 42234.05099999997,
      "d": 2478.7239000000045,
      "v": 106
    },
    {
      "midi": 57,
      "hit": false,
      "t": 43457.455499999975,
      "d": 1372.3407000000007,
      "v": 108
    },
    {
      "midi": 60,
      "hit": false,
      "t": 44744.68979999998,
      "d": 255.3191999999981,
      "v": 109
    },
    {
      "midi": 51,
      "hit": false,
      "t": 45968.094299999975,
      "d": 3457.447500000002,
      "v": 110
    },
    {
      "midi": 54,
      "hit": false,
      "t": 46382.987999999976,
      "d": 3021.277200000004,
      "v": 110
    },
    {
      "midi": 57,
      "hit": false,
      "t": 46808.519999999975,
      "d": 2606.3835000000036,
      "v": 111
    },
    {
      "midi": 60,
      "hit": false,
      "t": 47265.96689999998,
      "d": 2010.6387000000032,
      "v": 111
    },
    {
      "midi": 63,
      "hit": false,
      "t": 47659.58399999998,
      "d": 1351.064099999996,
      "v": 111
    },
    {
      "midi": 66,
      "hit": false,
      "t": 48063.83939999998,
      "d": 489.36179999999877,
      "v": 112
    },
    {
      "midi": 69,
      "hit": false,
      "t": 48531.924599999984,
      "d": 574.4681999999957,
      "v": 112
    },
    {
      "midi": 66,
      "hit": false,
      "t": 48989.37149999998,
      "d": 436.17029999999795,
      "v": 112
    },
    {
      "midi": 69,
      "hit": false,
      "t": 49329.79709999998,
      "d": 180.85109999999258,
      "v": 113
    },
    {
      "midi": 67,
      "hit": false,
      "t": 49787.24399999998,
      "d": 1180.8512999999948,
      "v": 113
    },
    {
      "midi": 55,
      "hit": false,
      "t": 49797.882299999976,
      "d": 1170.212999999996,
      "v": 113
    },
    {
      "midi": 72,
      "hit": false,
      "t": 49797.882299999976,
      "d": 1170.212999999996,
      "v": 113
    },
    {
      "midi": 64,
      "hit": false,
      "t": 49819.15889999997,
      "d": 1148.9363999999987,
      "v": 113
    },
    {
      "midi": 52,
      "hit": false,
      "t": 52361.71259999997,
      "d": 159.57450000000244,
      "v": 115
    },
    {
      "midi": 64,
      "hit": false,
      "t": 52393.62749999997,
      "d": 148.93619999999646,
      "v": 116
    },
    {
      "midi": 65,
      "hit": false,
      "t": 52765.96799999997,
      "d": 127.65959999999905,
      "v": 116
    },
    {
      "midi": 41,
      "hit": false,
      "t": 52808.521199999974,
      "d": 223.4042999999947,
      "v": 116
    },
    {
      "midi": 66,
      "hit": false,
      "t": 53138.30849999997,
      "d": 95.74470000000292,
      "v": 116
    },
    {
      "midi": 42,
      "hit": false,
      "t": 53138.30849999997,
      "d": 393.6171000000031,
      "v": 116
    },
    {
      "midi": 74,
      "hit": false,
      "t": 53542.56389999997,
      "d": 2361.702599999997,
      "v": 117
    },
    {
      "midi": 67,
      "hit": false,
      "t": 53542.56389999997,
      "d": 2382.9791999999943,
      "v": 117
    },
    {
      "midi": 71,
      "hit": false,
      "t": 53553.20219999997,
      "d": 2329.7877000000008,
      "v": 117
    },
    {
      "midi": 43,
      "hit": false,
      "t": 53563.84049999997,
      "d": 2287.2344999999987,
      "v": 117
    },
    {
      "midi": 31,
      "hit": false,
      "t": 54319.15979999997,
      "d": 1382.9789999999994,
      "v": 117
    },
    {
      "midi": 43,
      "hit": false,
      "t": 56648.947499999966,
      "d": 468.0851999999941,
      "v": 119
    },
    {
      "midi": 67,
      "hit": false,
      "t": 56659.585799999964,
      "d": 446.80859999999666,
      "v": 119
    },
    {
      "midi": 69,
      "hit": false,
      "t": 57031.92629999996,
      "d": 351.06389999999374,
      "v": 120
    },
    {
      "midi": 45,
      "hit": false,
      "t": 57042.56459999996,
      "d": 372.3404999999984,
      "v": 120
    },
    {
      "midi": 48,
      "hit": false,
      "t": 57468.09659999996,
      "d": 1446.8087999999989,
      "v": 120
    },
    {
      "midi": 72,
      "hit": false,
      "t": 57489.37319999996,
      "d": 1138.2981,
      "v": 120
    },
    {
      "midi": 67,
      "hit": false,
      "t": 57500.01149999996,
      "d": 1170.2130000000034,
      "v": 120
    },
    {
      "midi": 55,
      "hit": false,
      "t": 59606.39489999996,
      "d": 531.9150000000009,
      "v": 122
    },
    {
      "midi": 67,
      "hit": false,
      "t": 60053.20349999996,
      "d": 297.8724000000075,
      "v": 122
    },
    {
      "midi": 65,
      "hit": false,
      "t": 60063.84179999996,
      "d": 42.55320000000211,
      "v": 122
    },
    {
      "midi": 64,
      "hit": false,
      "t": 60074.48009999996,
      "d": 319.14900000001217,
      "v": 122
    },
    {
      "midi": 65,
      "hit": false,
      "t": 60861.71429999997,
      "d": 276.5958000000028,
      "v": 123
    },
    {
      "midi": 69,
      "hit": false,
      "t": 60861.71429999997,
      "d": 297.8724000000002,
      "v": 123
    },
    {
      "midi": 43,
      "hit": false,
      "t": 61319.16119999997,
      "d": 489.36179999999877,
      "v": 123
    },
    {
      "midi": 67,
      "hit": false,
      "t": 61340.43779999997,
      "d": 457.44690000000264,
      "v": 124
    },
    {
      "midi": 64,
      "hit": false,
      "t": 61351.07609999997,
      "d": 414.89370000000054,
      "v": 124
    },
    {
      "midi": 63,
      "hit": false,
      "t": 62574.48059999997,
      "d": 627.6597000000038,
      "v": 125
    },
    {
      "midi": 66,
      "hit": false,
      "t": 62574.48059999997,
      "d": 659.5746000000072,
      "v": 125
    },
    {
      "midi": 45,
      "hit": false,
      "t": 62595.75719999997,
      "d": 670.2129000000132,
      "v": 125
    },
    {
      "midi": 65,
      "hit": false,
      "t": 63840.43829999999,
      "d": 840.4256999999998,
      "v": 126
    },
    {
      "midi": 47,
      "hit": false,
      "t": 63851.076599999986,
      "d": 840.4256999999998,
      "v": 126
    },
    {
      "midi": 62,
      "hit": false,
      "t": 63851.076599999986,
      "d": 840.4256999999998,
      "v": 126
    },
    {
      "midi": 48,
      "hit": false,
      "t": 65106.395999999986,
      "d": 2170.2132000000056,
      "v": 100
    },
    {
      "midi": 64,
      "hit": false,
      "t": 65106.395999999986,
      "d": 2170.2132000000056,
      "v": 100
    },
    {
      "midi": 60,
      "hit": false,
      "t": 65106.395999999986,
      "d": 2191.489800000003,
      "v": 100
    },
    {
      "midi": 67,
      "hit": false,
      "t": 65106.395999999986,
      "d": 2223.4047000000064,
      "v": 100
    },
    {
      "midi": 62,
      "hit": false,
      "t": 68127.67319999999,
      "d": 148.93619999999646,
      "v": 102
    },
    {
      "midi": 50,
      "hit": false,
      "t": 68148.94979999999,
      "d": 276.5957999999955,
      "v": 102
    },
    {
      "midi": 63,
      "hit": false,
      "t": 68489.37539999999,
      "d": 95.7447000000102,
      "v": 103
    },
    {
      "midi": 51,
      "hit": false,
      "t": 68500.0137,
      "d": 170.21280000000843,
      "v": 103
    },
    {
      "midi": 52,
      "hit": false,
      "t": 68904.2691,
      "d": 3297.8730000000214,
      "v": 103
    },
    {
      "midi": 68,
      "hit": false,
      "t": 68957.4606,
      "d": 2670.2133000000176,
      "v": 103
    },
    {
      "midi": 71,
      "hit": false,
      "t": 68978.7372,
      "d": 3031.9155000000173,
      "v": 103
    },
    {
      "midi": 64,
      "hit": false,
      "t": 68989.37550000001,
      "d": 2191.4897999999957,
      "v": 103
    },
    {
      "midi": 56,
      "hit": false,
      "t": 70851.07800000001,
      "d": 1382.9790000000212,
      "v": 105
    },
    {
      "midi": 59,
      "hit": false,
      "t": 71191.50360000001,
      "d": 1223.4045000000187,
      "v": 105
    },
    {
      "midi": 64,
      "hit": false,
      "t": 71617.03560000002,
      "d": 776.5959000000148,
      "v": 105
    },
    {
      "midi": 68,
      "hit": false,
      "t": 71989.37610000002,
      "d": 404.2554000000091,
      "v": 106
    },
    {
      "midi": 71,
      "hit": false,
      "t": 72340.44000000003,
      "d": 117.02129999999306,
      "v": 106
    },
    {
      "midi": 72,
      "hit": false,
      "t": 72851.07840000003,
      "d": 2627.6601000000082,
      "v": 106
    },
    {
      "midi": 65,
      "hit": false,
      "t": 72851.07840000003,
      "d": 2691.489900000015,
      "v": 106
    },
    {
      "midi": 69,
      "hit": false,
      "t": 72861.71670000003,
      "d": 2627.6601000000082,
      "v": 106
    },
    {
      "midi": 53,
      "hit": false,
      "t": 72872.35500000004,
      "d": 2478.7238999999827,
      "v": 106
    },
    {
      "midi": 57,
      "hit": false,
      "t": 74095.75950000003,
      "d": 1372.3407000000007,
      "v": 108
    },
    {
      "midi": 60,
      "hit": false,
      "t": 75382.99380000003,
      "d": 255.31920000001264,
      "v": 109
    },
    {
      "midi": 51,
      "hit": false,
      "t": 76606.39830000004,
      "d": 3457.4475000000093,
      "v": 110
    },
    {
      "midi": 54,
      "hit": false,
      "t": 77021.29200000004,
      "d": 3021.277199999997,
      "v": 110
    },
    {
      "midi": 57,
      "hit": false,
      "t": 77446.82400000005,
      "d": 2606.3834999999963,
      "v": 111
    },
    {
      "midi": 60,
      "hit": false,
      "t": 77904.27090000005,
      "d": 2010.6386999999959,
      "v": 111
    },
    {
      "midi": 63,
      "hit": false,
      "t": 78297.88800000005,
      "d": 1351.0641000000032,
      "v": 111
    },
    {
      "midi": 66,
      "hit": false,
      "t": 78702.14340000004,
      "d": 489.36179999999877,
      "v": 112
    },
    {
      "midi": 69,
      "hit": false,
      "t": 79170.22860000005,
      "d": 574.468200000003,
      "v": 112
    },
    {
      "midi": 66,
      "hit": false,
      "t": 79627.67550000004,
      "d": 436.1703000000125,
      "v": 112
    },
    {
      "midi": 69,
      "hit": false,
      "t": 79968.10110000004,
      "d": 180.8511000000144,
      "v": 113
    },
    {
      "midi": 67,
      "hit": false,
      "t": 80425.54800000005,
      "d": 1180.8513000000094,
      "v": 113
    },
    {
      "midi": 55,
      "hit": false,
      "t": 80436.18630000006,
      "d": 1170.2130000000034,
      "v": 113
    },
    {
      "midi": 72,
      "hit": false,
      "t": 80436.18630000006,
      "d": 1170.2130000000034,
      "v": 113
    },
    {
      "midi": 64,
      "hit": false,
      "t": 80457.46290000006,
      "d": 1148.936400000006,
      "v": 113
    },
    {
      "midi": 52,
      "hit": false,
      "t": 83000.01660000006,
      "d": 159.57450000000244,
      "v": 115
    },
    {
      "midi": 64,
      "hit": false,
      "t": 83031.93150000006,
      "d": 148.93619999999646,
      "v": 116
    },
    {
      "midi": 65,
      "hit": false,
      "t": 83404.27200000006,
      "d": 127.65959999999905,
      "v": 116
    },
    {
      "midi": 41,
      "hit": false,
      "t": 83446.82520000005,
      "d": 223.40430000000924,
      "v": 116
    },
    {
      "midi": 66,
      "hit": false,
      "t": 83776.61250000006,
      "d": 95.74469999999565,
      "v": 116
    },
    {
      "midi": 42,
      "hit": false,
      "t": 83776.61250000006,
      "d": 393.61709999998857,
      "v": 116
    },
    {
      "midi": 74,
      "hit": false,
      "t": 84180.86790000006,
      "d": 2361.702600000004,
      "v": 117
    },
    {
      "midi": 67,
      "hit": false,
      "t": 84180.86790000006,
      "d": 2382.9792000000016,
      "v": 117
    },
    {
      "midi": 71,
      "hit": false,
      "t": 84191.50620000006,
      "d": 2329.7877000000008,
      "v": 117
    },
    {
      "midi": 43,
      "hit": false,
      "t": 84202.14450000007,
      "d": 2287.2344999999914,
      "v": 117
    },
    {
      "midi": 31,
      "hit": false,
      "t": 84957.46380000007,
      "d": 1382.978999999992,
      "v": 117
    },
    {
      "midi": 43,
      "hit": false,
      "t": 87287.25150000006,
      "d": 468.08520000003045,
      "v": 119
    },
    {
      "midi": 67,
      "hit": false,
      "t": 87297.88980000006,
      "d": 446.8086000000185,
      "v": 119
    },
    {
      "midi": 69,
      "hit": false,
      "t": 87670.23030000007,
      "d": 351.06390000002284,
      "v": 120
    },
    {
      "midi": 45,
      "hit": false,
      "t": 87680.86860000007,
      "d": 372.34050000002026,
      "v": 120
    },
    {
      "midi": 48,
      "hit": false,
      "t": 88106.4006000001,
      "d": 3819.149700000009,
      "v": 120
    },
    {
      "midi": 72,
      "hit": false,
      "t": 88127.6772000001,
      "d": 3819.149700000009,
      "v": 120
    },
    {
      "midi": 67,
      "hit": false,
      "t": 88138.3155000001,
      "d": 3819.149700000009,
      "v": 120
    },
    {
      "midi": 36,
      "hit": false,
      "t": 91914.9120000001,
      "d": 1276.596000000005,
      "v": 98
    },
    {
      "midi": 64,
      "hit": false,
      "t": 91914.9120000001,
      "d": 1276.596000000005,
      "v": 117
    },
    {
      "midi": 38,
      "hit": false,
      "t": 93191.5080000001,
      "d": 1276.596000000005,
      "v": 105
    },
    {
      "midi": 65,
      "hit": false,
      "t": 93191.5080000001,
      "d": 1276.596000000005,
      "v": 119
    },
    {
      "midi": 40,
      "hit": false,
      "t": 94468.10400000011,
      "d": 1276.596000000005,
      "v": 95
    },
    {
      "midi": 67,
      "hit": false,
      "t": 94468.10400000011,
      "d": 1276.596000000005,
      "v": 105
    },
    {
      "midi": 72,
      "hit": false,
      "t": 95723.4234000001,
      "d": 3329.7878999999957,
      "v": 100
    },
    {
      "midi": 65,
      "hit": false,
      "t": 95723.4234000001,
      "d": 3340.4262000000017,
      "v": 100
    },
    {
      "midi": 53,
      "hit": false,
      "t": 95734.06170000011,
      "d": 946.8086999999941,
      "v": 100
    },
    {
      "midi": 69,
      "hit": false,
      "t": 95744.70000000011,
      "d": 3319.1495999999897,
      "v": 100
    },
    {
      "midi": 57,
      "hit": false,
      "t": 98765.9772000001,
      "d": 393.6171000000177,
      "v": 102
    },
    {
      "midi": 60,
      "hit": false,
      "t": 99127.67940000011,
      "d": 223.40430000000924,
      "v": 102
    },
    {
      "midi": 72,
      "hit": false,
      "t": 99553.21140000012,
      "d": 3404.256000000023,
      "v": 103
    },
    {
      "midi": 66,
      "hit": false,
      "t": 99563.84970000012,
      "d": 3425.5326000000205,
      "v": 103
    },
    {
      "midi": 69,
      "hit": false,
      "t": 99563.84970000012,
      "d": 3436.1709000000264,
      "v": 103
    },
    {
      "midi": 63,
      "hit": false,
      "t": 99574.48800000013,
      "d": 2925.532500000001,
      "v": 103
    },
    {
      "midi": 51,
      "hit": false,
      "t": 101308.53090000013,
      "d": 1500.0003000000142,
      "v": 104
    },
    {
      "midi": 54,
      "hit": false,
      "t": 101691.50970000013,
      "d": 1095.7449000000051,
      "v": 104
    },
    {
      "midi": 57,
      "hit": false,
      "t": 102180.87150000012,
      "d": 617.0214000000124,
      "v": 105
    },
    {
      "midi": 60,
      "hit": false,
      "t": 102553.21200000013,
      "d": 468.0852000000159,
      "v": 105
    },
    {
      "midi": 63,
      "hit": false,
      "t": 102914.91420000014,
      "d": 148.93619999999646,
      "v": 105
    },
    {
      "midi": 67,
      "hit": false,
      "t": 103436.19090000015,
      "d": 2297.872800000012,
      "v": 106
    },
    {
      "midi": 72,
      "hit": false,
      "t": 103436.19090000015,
      "d": 2329.7877000000153,
      "v": 106
    },
    {
      "midi": 64,
      "hit": false,
      "t": 103436.19090000015,
      "d": 2372.34090000001,
      "v": 106
    },
    {
      "midi": 60,
      "hit": false,
      "t": 103446.82920000015,
      "d": 2372.34090000001,
      "v": 106
    },
    {
      "midi": 65,
      "hit": false,
      "t": 106808.53200000017,
      "d": 117.02129999999306,
      "v": 108
    },
    {
      "midi": 62,
      "hit": false,
      "t": 106808.53200000017,
      "d": 148.93619999999646,
      "v": 108
    },
    {
      "midi": 60,
      "hit": false,
      "t": 107255.34060000017,
      "d": 2340.4260000000068,
      "v": 109
    },
    {
      "midi": 67,
      "hit": false,
      "t": 107255.34060000017,
      "d": 2414.894100000005,
      "v": 109
    },
    {
      "midi": 64,
      "hit": false,
      "t": 107255.34060000017,
      "d": 2425.532400000011,
      "v": 109
    },
    {
      "midi": 48,
      "hit": false,
      "t": 107276.61720000017,
      "d": 2351.0643000000127,
      "v": 109
    },
    {
      "midi": 65,
      "hit": false,
      "t": 110627.68170000019,
      "d": 212.76600000000326,
      "v": 111
    },
    {
      "midi": 49,
      "hit": false,
      "t": 110627.68170000019,
      "d": 436.1703000000125,
      "v": 111
    },
    {
      "midi": 66,
      "hit": false,
      "t": 111085.1286000002,
      "d": 2170.2131999999983,
      "v": 112
    },
    {
      "midi": 62,
      "hit": false,
      "t": 111085.1286000002,
      "d": 2191.4897999999957,
      "v": 112
    },
    {
      "midi": 69,
      "hit": false,
      "t": 111085.1286000002,
      "d": 2212.766399999993,
      "v": 112
    },
    {
      "midi": 50,
      "hit": false,
      "t": 111095.7669000002,
      "d": 3191.4899999999907,
      "v": 112
    },
    {
      "midi": 38,
      "hit": false,
      "t": 113159.5971000002,
      "d": 8180.852700000032,
      "v": 113
    },
    {
      "midi": 62,
      "hit": false,
      "t": 113595.76740000019,
      "d": 148.936200000011,
      "v": 114
    },
    {
      "midi": 69,
      "hit": false,
      "t": 113595.76740000019,
      "d": 159.574500000017,
      "v": 114
    },
    {
      "midi": 66,
      "hit": false,
      "t": 113606.40570000019,
      "d": 127.65959999999905,
      "v": 114
    },
    {
      "midi": 67,
      "hit": false,
      "t": 114414.9165000002,
      "d": 180.85109999999986,
      "v": 114
    },
    {
      "midi": 71,
      "hit": false,
      "t": 114425.5548000002,
      "d": 180.85109999999986,
      "v": 114
    },
    {
      "midi": 62,
      "hit": false,
      "t": 114425.5548000002,
      "d": 191.48940000000584,
      "v": 114
    },
    {
      "midi": 69,
      "hit": false,
      "t": 114883.00170000021,
      "d": 3180.851700000014,
      "v": 115
    },
    {
      "midi": 62,
      "hit": false,
      "t": 114883.00170000021,
      "d": 3255.319800000012,
      "v": 115
    },
    {
      "midi": 66,
      "hit": false,
      "t": 114893.64000000022,
      "d": 3117.021900000007,
      "v": 115
    },
    {
      "midi": 50,
      "hit": false,
      "t": 114893.64000000022,
      "d": 3404.2560000000085,
      "v": 115
    },
    {
      "midi": 45,
      "hit": false,
      "t": 118340.44920000022,
      "d": 361.7021999999997,
      "v": 118
    },
    {
      "midi": 65,
      "hit": false,
      "t": 118734.06630000022,
      "d": 2702.1282000000065,
      "v": 118
    },
    {
      "midi": 69,
      "hit": false,
      "t": 118734.06630000022,
      "d": 2744.6814000000013,
      "v": 118
    },
    {
      "midi": 50,
      "hit": false,
      "t": 118744.70460000023,
      "d": 2670.213300000003,
      "v": 118
    },
    {
      "midi": 62,
      "hit": false,
      "t": 118744.70460000023,
      "d": 2734.0430999999953,
      "v": 118
    },
    {
      "midi": 62,
      "hit": false,
      "t": 122138.32230000023,
      "d": 2904.2559000000183,
      "v": 121
    },
    {
      "midi": 67,
      "hit": false,
      "t": 122531.93940000024,
      "d": 2553.19200000001,
      "v": 121
    },
    {
      "midi": 71,
      "hit": false,
      "t": 122542.57770000024,
      "d": 2574.4686000000074,
      "v": 121
    },
    {
      "midi": 55,
      "hit": false,
      "t": 122553.21600000025,
      "d": 3159.575100000002,
      "v": 121
    },
    {
      "midi": 79,
      "hit": false,
      "t": 126000.02520000025,
      "d": 3276.596399999995,
      "v": 76
    },
    {
      "midi": 43,
      "hit": false,
      "t": 126042.57840000025,
      "d": 819.1490999999951,
      "v": 41
    },
    {
      "midi": 83,
      "hit": false,
      "t": 126159.59970000025,
      "d": 3117.0218999999925,
      "v": 41
    },
    {
      "midi": 91,
      "hit": false,
      "t": 126276.62100000025,
      "d": 3010.6389000000054,
      "v": 78
    },
    {
      "midi": 55,
      "hit": false,
      "t": 126383.00400000025,
      "d": 2925.532500000001,
      "v": 90
    },
    {
      "midi": 48,
      "hit": false,
      "t": 130212.79200000025,
      "d": 914.8937999999907,
      "v": 99
    },
    {
      "midi": 36,
      "hit": false,
      "t": 131042.57940000025,
      "d": 2148.9365999999573,
      "v": 105
    },
    {
      "midi": 60,
      "hit": false,
      "t": 131489.38800000024,
      "d": 1680.851399999985,
      "v": 104
    },
    {
      "midi": 67,
      "hit": false,
      "t": 131489.38800000024,
      "d": 1691.4896999999764,
      "v": 105
    },
    {
      "midi": 64,
      "hit": false,
      "t": 131500.02630000023,
      "d": 1670.2130999999936,
      "v": 95
    },
    {
      "midi": 62,
      "hit": false,
      "t": 133234.0692000002,
      "d": 148.93620000002556,
      "v": 102
    },
    {
      "midi": 50,
      "hit": false,
      "t": 133255.3458000002,
      "d": 276.59580000001006,
      "v": 102
    },
    {
      "midi": 63,
      "hit": false,
      "t": 133595.77140000023,
      "d": 95.7446999999811,
      "v": 103
    },
    {
      "midi": 51,
      "hit": false,
      "t": 133606.40970000022,
      "d": 170.21279999997932,
      "v": 103
    },
    {
      "midi": 52,
      "hit": false,
      "t": 134010.6651000002,
      "d": 3297.8729999999923,
      "v": 103
    },
    {
      "midi": 68,
      "hit": false,
      "t": 134063.85660000017,
      "d": 2670.213300000003,
      "v": 103
    },
    {
      "midi": 71,
      "hit": false,
      "t": 134085.1332000002,
      "d": 3031.915500000003,
      "v": 103
    },
    {
      "midi": 64,
      "hit": false,
      "t": 134095.77150000018,
      "d": 2191.4898000000103,
      "v": 103
    },
    {
      "midi": 56,
      "hit": false,
      "t": 135957.4740000002,
      "d": 1382.978999999992,
      "v": 105
    },
    {
      "midi": 59,
      "hit": false,
      "t": 136297.89960000018,
      "d": 1223.4045000000042,
      "v": 105
    },
    {
      "midi": 64,
      "hit": false,
      "t": 136723.43160000019,
      "d": 776.5958999999857,
      "v": 105
    },
    {
      "midi": 68,
      "hit": false,
      "t": 137095.77210000018,
      "d": 404.25539999999455,
      "v": 106
    },
    {
      "midi": 71,
      "hit": false,
      "t": 137446.83600000018,
      "d": 117.02129999999306,
      "v": 106
    },
    {
      "midi": 72,
      "hit": false,
      "t": 137957.47440000018,
      "d": 2627.660099999979,
      "v": 106
    },
    {
      "midi": 65,
      "hit": false,
      "t": 137957.47440000018,
      "d": 2691.489899999957,
      "v": 106
    },
    {
      "midi": 69,
      "hit": false,
      "t": 137968.11270000017,
      "d": 2627.660099999979,
      "v": 106
    },
    {
      "midi": 53,
      "hit": false,
      "t": 137978.75100000016,
      "d": 2478.723900000012,
      "v": 106
    },
    {
      "midi": 57,
      "hit": false,
      "t": 139202.15550000017,
      "d": 1372.3407000000007,
      "v": 108
    },
    {
      "midi": 60,
      "hit": false,
      "t": 140489.38980000018,
      "d": 255.319199999969,
      "v": 109
    },
    {
      "midi": 51,
      "hit": false,
      "t": 141712.79430000015,
      "d": 3457.4475000000093,
      "v": 110
    },
    {
      "midi": 54,
      "hit": false,
      "t": 142127.68800000017,
      "d": 3021.2772000000114,
      "v": 110
    },
    {
      "midi": 57,
      "hit": false,
      "t": 142553.22000000018,
      "d": 2606.3834999999963,
      "v": 111
    },
    {
      "midi": 60,
      "hit": false,
      "t": 143010.6669000002,
      "d": 2010.6387000000104,
      "v": 111
    },
    {
      "midi": 63,
      "hit": false,
      "t": 143404.2840000002,
      "d": 1351.0640999999887,
      "v": 111
    },
    {
      "midi": 66,
      "hit": false,
      "t": 143808.53940000018,
      "d": 489.3618000000133,
      "v": 112
    },
    {
      "midi": 69,
      "hit": false,
      "t": 144276.62460000018,
      "d": 574.468200000003,
      "v": 112
    },
    {
      "midi": 66,
      "hit": false,
      "t": 144734.0715000002,
      "d": 436.17029999996885,
      "v": 112
    },
    {
      "midi": 69,
      "hit": false,
      "t": 145074.49710000018,
      "d": 180.85109999997076,
      "v": 113
    },
    {
      "midi": 67,
      "hit": false,
      "t": 145531.94400000016,
      "d": 1180.8513000000094,
      "v": 113
    },
    {
      "midi": 55,
      "hit": false,
      "t": 145542.58230000015,
      "d": 1170.213000000018,
      "v": 113
    },
    {
      "midi": 72,
      "hit": false,
      "t": 145542.58230000015,
      "d": 1170.213000000018,
      "v": 113
    },
    {
      "midi": 64,
      "hit": false,
      "t": 145563.85890000017,
      "d": 1148.936400000006,
      "v": 113
    },
    {
      "midi": 52,
      "hit": false,
      "t": 148106.41260000019,
      "d": 159.574500000017,
      "v": 115
    },
    {
      "midi": 64,
      "hit": false,
      "t": 148138.3275000002,
      "d": 148.93620000002556,
      "v": 116
    },
    {
      "midi": 65,
      "hit": false,
      "t": 148510.6680000002,
      "d": 127.6595999999845,
      "v": 116
    },
    {
      "midi": 41,
      "hit": false,
      "t": 148553.2212000002,
      "d": 223.4042999999947,
      "v": 116
    },
    {
      "midi": 66,
      "hit": false,
      "t": 148883.0085000002,
      "d": 95.7447000000102,
      "v": 116
    },
    {
      "midi": 42,
      "hit": false,
      "t": 148883.0085000002,
      "d": 393.6171000000031,
      "v": 116
    },
    {
      "midi": 74,
      "hit": false,
      "t": 149287.2639000002,
      "d": 2361.7025999999896,
      "v": 117
    },
    {
      "midi": 67,
      "hit": false,
      "t": 149287.2639000002,
      "d": 2382.9792000000016,
      "v": 117
    },
    {
      "midi": 71,
      "hit": false,
      "t": 149297.9022000002,
      "d": 2329.787699999986,
      "v": 117
    },
    {
      "midi": 43,
      "hit": false,
      "t": 149308.54050000018,
      "d": 2287.2344999999914,
      "v": 117
    },
    {
      "midi": 31,
      "hit": false,
      "t": 150063.85980000018,
      "d": 1382.978999999992,
      "v": 117
    },
    {
      "midi": 43,
      "hit": false,
      "t": 152393.6475000002,
      "d": 468.08519999997225,
      "v": 119
    },
    {
      "midi": 67,
      "hit": false,
      "t": 152404.2858000002,
      "d": 446.8085999999894,
      "v": 119
    },
    {
      "midi": 69,
      "hit": false,
      "t": 152776.62630000018,
      "d": 351.0638999999792,
      "v": 120
    },
    {
      "midi": 45,
      "hit": false,
      "t": 152787.26460000017,
      "d": 372.34049999999115,
      "v": 120
    },
    {
      "midi": 48,
      "hit": false,
      "t": 153212.79660000015,
      "d": 3819.149700000009,
      "v": 120
    },
    {
      "midi": 72,
      "hit": false,
      "t": 153234.07320000016,
      "d": 3819.149700000009,
      "v": 120
    },
    {
      "midi": 67,
      "hit": false,
      "t": 153244.71150000015,
      "d": 3819.149700000009,
      "v": 120
    },
    {
      "midi": 36,
      "hit": false,
      "t": 157021.30800000016,
      "d": 1276.5959999999905,
      "v": 98
    },
    {
      "midi": 64,
      "hit": false,
      "t": 157021.30800000016,
      "d": 1276.5959999999905,
      "v": 117
    },
    {
      "midi": 38,
      "hit": false,
      "t": 158297.90400000016,
      "d": 1276.5959999999905,
      "v": 105
    },
    {
      "midi": 65,
      "hit": false,
      "t": 158297.90400000016,
      "d": 1276.5959999999905,
      "v": 119
    },
    {
      "midi": 40,
      "hit": false,
      "t": 159574.50000000015,
      "d": 1276.5959999999905,
      "v": 95
    },
    {
      "midi": 67,
      "hit": false,
      "t": 159574.50000000015,
      "d": 1276.5959999999905,
      "v": 105
    },
    {
      "midi": 72,
      "hit": false,
      "t": 160829.81940000015,
      "d": 3329.7878999999957,
      "v": 100
    },
    {
      "midi": 65,
      "hit": false,
      "t": 160829.81940000015,
      "d": 3340.426199999987,
      "v": 100
    },
    {
      "midi": 53,
      "hit": false,
      "t": 160840.45770000014,
      "d": 946.8086999999941,
      "v": 100
    },
    {
      "midi": 69,
      "hit": false,
      "t": 160851.09600000014,
      "d": 3319.1496000000043,
      "v": 100
    },
    {
      "midi": 57,
      "hit": false,
      "t": 163872.37320000015,
      "d": 393.6171000000031,
      "v": 102
    },
    {
      "midi": 60,
      "hit": false,
      "t": 164234.07540000015,
      "d": 223.4042999999947,
      "v": 102
    },
    {
      "midi": 72,
      "hit": false,
      "t": 164659.60740000015,
      "d": 3404.255999999965,
      "v": 103
    },
    {
      "midi": 66,
      "hit": false,
      "t": 164670.24570000015,
      "d": 3425.532599999977,
      "v": 103
    },
    {
      "midi": 69,
      "hit": false,
      "t": 164670.24570000015,
      "d": 3436.1708999999682,
      "v": 103
    },
    {
      "midi": 63,
      "hit": false,
      "t": 164680.88400000014,
      "d": 2925.5325000000303,
      "v": 103
    },
    {
      "midi": 51,
      "hit": false,
      "t": 166414.92690000014,
      "d": 1500.0002999999851,
      "v": 104
    },
    {
      "midi": 54,
      "hit": false,
      "t": 166797.90570000015,
      "d": 1095.7448999999906,
      "v": 104
    },
    {
      "midi": 57,
      "hit": false,
      "t": 167287.26750000016,
      "d": 617.0213999999687,
      "v": 105
    },
    {
      "midi": 60,
      "hit": false,
      "t": 167659.60800000015,
      "d": 468.08519999997225,
      "v": 105
    },
    {
      "midi": 63,
      "hit": false,
      "t": 168021.31020000012,
      "d": 148.93619999999646,
      "v": 105
    },
    {
      "midi": 67,
      "hit": false,
      "t": 168542.5869000001,
      "d": 2297.8727999999537,
      "v": 106
    },
    {
      "midi": 72,
      "hit": false,
      "t": 168542.5869000001,
      "d": 2329.787699999957,
      "v": 106
    },
    {
      "midi": 64,
      "hit": false,
      "t": 168542.5869000001,
      "d": 2372.340899999952,
      "v": 106
    },
    {
      "midi": 60,
      "hit": false,
      "t": 168553.2252000001,
      "d": 2372.340899999952,
      "v": 106
    },
    {
      "midi": 65,
      "hit": false,
      "t": 171914.92800000004,
      "d": 117.02129999999306,
      "v": 108
    },
    {
      "midi": 62,
      "hit": false,
      "t": 171914.92800000004,
      "d": 148.93619999999646,
      "v": 108
    },
    {
      "midi": 60,
      "hit": false,
      "t": 172361.73660000003,
      "d": 2340.4260000000068,
      "v": 109
    },
    {
      "midi": 67,
      "hit": false,
      "t": 172361.73660000003,
      "d": 2414.894100000005,
      "v": 109
    },
    {
      "midi": 64,
      "hit": false,
      "t": 172361.73660000003,
      "d": 2425.5323999999964,
      "v": 109
    },
    {
      "midi": 48,
      "hit": false,
      "t": 172383.01320000004,
      "d": 2351.064299999998,
      "v": 109
    },
    {
      "midi": 65,
      "hit": false,
      "t": 175734.07770000002,
      "d": 212.76600000000326,
      "v": 111
    },
    {
      "midi": 49,
      "hit": false,
      "t": 175734.07770000002,
      "d": 436.17029999999795,
      "v": 111
    },
    {
      "midi": 66,
      "hit": false,
      "t": 176191.52460000003,
      "d": 2170.2131999999983,
      "v": 112
    },
    {
      "midi": 62,
      "hit": false,
      "t": 176191.52460000003,
      "d": 2191.4898000000103,
      "v": 112
    },
    {
      "midi": 69,
      "hit": false,
      "t": 176191.52460000003,
      "d": 2212.7664000000223,
      "v": 112
    },
    {
      "midi": 50,
      "hit": false,
      "t": 176202.16290000002,
      "d": 3191.49000000002,
      "v": 112
    },
    {
      "midi": 38,
      "hit": false,
      "t": 178265.99310000002,
      "d": 8180.85269999993,
      "v": 113
    },
    {
      "midi": 62,
      "hit": false,
      "t": 178702.16340000005,
      "d": 148.93619999999646,
      "v": 114
    },
    {
      "midi": 69,
      "hit": false,
      "t": 178702.16340000005,
      "d": 159.5744999999879,
      "v": 114
    },
    {
      "midi": 66,
      "hit": false,
      "t": 178712.80170000004,
      "d": 127.6596000000136,
      "v": 114
    },
    {
      "midi": 67,
      "hit": false,
      "t": 179521.31250000006,
      "d": 180.85109999999986,
      "v": 114
    },
    {
      "midi": 71,
      "hit": false,
      "t": 179531.95080000005,
      "d": 180.85109999999986,
      "v": 114
    },
    {
      "midi": 62,
      "hit": false,
      "t": 179531.95080000005,
      "d": 191.4893999999913,
      "v": 114
    },
    {
      "midi": 69,
      "hit": false,
      "t": 179989.39770000003,
      "d": 3180.85169999997,
      "v": 115
    },
    {
      "midi": 62,
      "hit": false,
      "t": 179989.39770000003,
      "d": 3255.3197999999684,
      "v": 115
    },
    {
      "midi": 66,
      "hit": false,
      "t": 180000.03600000002,
      "d": 3117.0218999999925,
      "v": 115
    },
    {
      "midi": 50,
      "hit": false,
      "t": 180000.03600000002,
      "d": 3404.255999999965,
      "v": 115
    },
    {
      "midi": 45,
      "hit": false,
      "t": 183446.84519999998,
      "d": 361.7021999999997,
      "v": 118
    },
    {
      "midi": 65,
      "hit": false,
      "t": 183840.46229999998,
      "d": 2702.1281999999774,
      "v": 118
    },
    {
      "midi": 69,
      "hit": false,
      "t": 183840.46229999998,
      "d": 2744.681399999972,
      "v": 118
    },
    {
      "midi": 50,
      "hit": false,
      "t": 183851.10059999998,
      "d": 2670.213299999974,
      "v": 118
    },
    {
      "midi": 62,
      "hit": false,
      "t": 183851.10059999998,
      "d": 2734.0430999999808,
      "v": 118
    },
    {
      "midi": 62,
      "hit": false,
      "t": 187244.71829999995,
      "d": 2904.25589999996,
      "v": 121
    },
    {
      "midi": 67,
      "hit": false,
      "t": 187638.33539999992,
      "d": 2553.191999999981,
      "v": 121
    },
    {
      "midi": 71,
      "hit": false,
      "t": 187648.97369999991,
      "d": 2574.468599999993,
      "v": 121
    },
    {
      "midi": 55,
      "hit": false,
      "t": 187659.6119999999,
      "d": 3159.5750999999873,
      "v": 121
    },
    {
      "midi": 79,
      "hit": false,
      "t": 191106.4211999999,
      "d": 3276.5963999999803,
      "v": 76
    },
    {
      "midi": 43,
      "hit": false,
      "t": 191148.9743999999,
      "d": 819.1490999999805,
      "v": 41
    },
    {
      "midi": 83,
      "hit": false,
      "t": 191265.99569999988,
      "d": 3117.0218999999925,
      "v": 41
    },
    {
      "midi": 91,
      "hit": false,
      "t": 191383.01699999988,
      "d": 3010.638899999991,
      "v": 78
    },
    {
      "midi": 55,
      "hit": false,
      "t": 191489.39999999988,
      "d": 2925.532500000001,
      "v": 90
    },
    {
      "midi": 48,
      "hit": false,
      "t": 195319.18799999988,
      "d": 914.8938000000198,
      "v": 99
    },
    {
      "midi": 36,
      "hit": false,
      "t": 196148.97539999988,
      "d": 2148.9365999999864,
      "v": 105
    },
    {
      "midi": 60,
      "hit": false,
      "t": 196595.7839999999,
      "d": 1680.851399999985,
      "v": 104
    },
    {
      "midi": 67,
      "hit": false,
      "t": 196595.7839999999,
      "d": 1691.4896999999764,
      "v": 105
    },
    {
      "midi": 64,
      "hit": false,
      "t": 196606.4222999999,
      "d": 1670.2130999999936,
      "v": 95
    },
    {
      "midi": 62,
      "hit": false,
      "t": 198340.46519999986,
      "d": 148.93620000002556,
      "v": 102
    },
    {
      "midi": 50,
      "hit": false,
      "t": 198361.74179999987,
      "d": 276.59580000001006,
      "v": 102
    },
    {
      "midi": 63,
      "hit": false,
      "t": 198702.1673999999,
      "d": 95.7446999999811,
      "v": 103
    },
    {
      "midi": 51,
      "hit": false,
      "t": 198712.80569999988,
      "d": 170.21279999997932,
      "v": 103
    },
    {
      "midi": 52,
      "hit": false,
      "t": 199117.06109999985,
      "d": 3297.8729999999923,
      "v": 103
    },
    {
      "midi": 68,
      "hit": false,
      "t": 199170.25259999983,
      "d": 2670.213300000003,
      "v": 103
    },
    {
      "midi": 71,
      "hit": false,
      "t": 199191.52919999984,
      "d": 3031.915500000003,
      "v": 103
    },
    {
      "midi": 64,
      "hit": false,
      "t": 199202.16749999984,
      "d": 2191.4898000000103,
      "v": 103
    },
    {
      "midi": 56,
      "hit": false,
      "t": 201063.86999999985,
      "d": 1382.978999999992,
      "v": 105
    },
    {
      "midi": 59,
      "hit": false,
      "t": 201404.29559999984,
      "d": 1223.4045000000042,
      "v": 105
    },
    {
      "midi": 64,
      "hit": false,
      "t": 201829.82759999984,
      "d": 776.5958999999857,
      "v": 105
    },
    {
      "midi": 68,
      "hit": false,
      "t": 202202.16809999984,
      "d": 404.25539999999455,
      "v": 106
    },
    {
      "midi": 71,
      "hit": false,
      "t": 202553.23199999984,
      "d": 117.02129999999306,
      "v": 106
    },
    {
      "midi": 72,
      "hit": false,
      "t": 203063.87039999984,
      "d": 2627.660099999979,
      "v": 106
    },
    {
      "midi": 65,
      "hit": false,
      "t": 203063.87039999984,
      "d": 2691.489899999957,
      "v": 106
    },
    {
      "midi": 69,
      "hit": false,
      "t": 203074.50869999983,
      "d": 2627.660099999979,
      "v": 106
    },
    {
      "midi": 53,
      "hit": false,
      "t": 203085.14699999982,
      "d": 2478.723900000012,
      "v": 106
    },
    {
      "midi": 57,
      "hit": false,
      "t": 204308.55149999983,
      "d": 1372.3407000000007,
      "v": 108
    },
    {
      "midi": 60,
      "hit": false,
      "t": 205595.78579999984,
      "d": 255.319199999969,
      "v": 109
    },
    {
      "midi": 51,
      "hit": false,
      "t": 206819.1902999998,
      "d": 3457.4475000000093,
      "v": 110
    },
    {
      "midi": 54,
      "hit": false,
      "t": 207234.08399999983,
      "d": 3021.2772000000114,
      "v": 110
    },
    {
      "midi": 57,
      "hit": false,
      "t": 207659.61599999983,
      "d": 2606.3834999999963,
      "v": 111
    },
    {
      "midi": 60,
      "hit": false,
      "t": 208117.06289999984,
      "d": 2010.6387000000104,
      "v": 111
    },
    {
      "midi": 63,
      "hit": false,
      "t": 208510.67999999985,
      "d": 1351.0640999999887,
      "v": 111
    },
    {
      "midi": 66,
      "hit": false,
      "t": 208914.93539999984,
      "d": 489.3618000000133,
      "v": 112
    },
    {
      "midi": 69,
      "hit": false,
      "t": 209383.02059999984,
      "d": 574.468200000003,
      "v": 112
    },
    {
      "midi": 66,
      "hit": false,
      "t": 209840.46749999985,
      "d": 436.17029999996885,
      "v": 112
    },
    {
      "midi": 69,
      "hit": false,
      "t": 210180.89309999984,
      "d": 180.85109999997076,
      "v": 113
    },
    {
      "midi": 67,
      "hit": false,
      "t": 210638.33999999982,
      "d": 1180.8513000000094,
      "v": 113
    },
    {
      "midi": 55,
      "hit": false,
      "t": 210648.9782999998,
      "d": 1170.213000000018,
      "v": 113
    },
    {
      "midi": 72,
      "hit": false,
      "t": 210648.9782999998,
      "d": 1170.213000000018,
      "v": 113
    },
    {
      "midi": 64,
      "hit": false,
      "t": 210670.25489999983,
      "d": 1148.936400000006,
      "v": 113
    },
    {
      "midi": 52,
      "hit": false,
      "t": 213212.80859999984,
      "d": 159.574500000017,
      "v": 115
    },
    {
      "midi": 64,
      "hit": false,
      "t": 213244.72349999985,
      "d": 148.93620000002556,
      "v": 116
    },
    {
      "midi": 65,
      "hit": false,
      "t": 213617.06399999987,
      "d": 127.6595999999845,
      "v": 116
    },
    {
      "midi": 41,
      "hit": false,
      "t": 213659.61719999986,
      "d": 223.4042999999947,
      "v": 116
    },
    {
      "midi": 66,
      "hit": false,
      "t": 213989.40449999986,
      "d": 95.7447000000102,
      "v": 116
    },
    {
      "midi": 42,
      "hit": false,
      "t": 213989.40449999986,
      "d": 393.6171000000031,
      "v": 116
    },
    {
      "midi": 74,
      "hit": false,
      "t": 214393.65989999985,
      "d": 2361.7025999999896,
      "v": 117
    },
    {
      "midi": 67,
      "hit": false,
      "t": 214393.65989999985,
      "d": 2382.9792000000016,
      "v": 117
    },
    {
      "midi": 71,
      "hit": false,
      "t": 214404.29819999984,
      "d": 2329.787699999986,
      "v": 117
    },
    {
      "midi": 43,
      "hit": false,
      "t": 214414.93649999984,
      "d": 2287.2344999999914,
      "v": 117
    },
    {
      "midi": 31,
      "hit": false,
      "t": 215170.25579999984,
      "d": 1382.978999999992,
      "v": 117
    },
    {
      "midi": 67,
      "hit": false,
      "t": 217446.85199999987,
      "d": 425.5320000000065,
      "v": 119
    },
    {
      "midi": 43,
      "hit": false,
      "t": 217446.85199999987,
      "d": 468.08520000000135,
      "v": 119
    },
    {
      "midi": 69,
      "hit": false,
      "t": 217872.38399999987,
      "d": 351.0639000000083,
      "v": 120
    },
    {
      "midi": 45,
      "hit": false,
      "t": 217872.38399999987,
      "d": 372.34050000002026,
      "v": 120
    },
    {
      "midi": 39,
      "hit": false,
      "t": 218297.91599999988,
      "d": 1276.5960000000196,
      "v": 100
    },
    {
      "midi": 51,
      "hit": false,
      "t": 218297.91599999988,
      "d": 3819.149700000038,
      "v": 100
    },
    {
      "midi": 54,
      "hit": false,
      "t": 218723.4479999999,
      "d": 425.5320000000065,
      "v": 101
    },
    {
      "midi": 57,
      "hit": false,
      "t": 219148.9799999999,
      "d": 425.5320000000065,
      "v": 103
    },
    {
      "midi": 60,
      "hit": false,
      "t": 219574.5119999999,
      "d": 425.5320000000065,
      "v": 104
    },
    {
      "midi": 42,
      "hit": false,
      "t": 219574.5119999999,
      "d": 1276.5960000000196,
      "v": 104
    },
    {
      "midi": 57,
      "hit": false,
      "t": 220000.0439999999,
      "d": 425.5320000000065,
      "v": 106
    },
    {
      "midi": 60,
      "hit": false,
      "t": 220425.5759999999,
      "d": 425.5320000000065,
      "v": 107
    },
    {
      "midi": 63,
      "hit": false,
      "t": 220851.10799999992,
      "d": 425.5320000000065,
      "v": 109
    },
    {
      "midi": 45,
      "hit": false,
      "t": 220851.10799999992,
      "d": 1276.5959999999905,
      "v": 109
    },
    {
      "midi": 60,
      "hit": false,
      "t": 221276.63999999993,
      "d": 425.5320000000065,
      "v": 110
    },
    {
      "midi": 63,
      "hit": false,
      "t": 221702.17199999993,
      "d": 425.5319999999774,
      "v": 112
    },
    {
      "midi": 66,
      "hit": false,
      "t": 222127.7039999999,
      "d": 425.5320000000065,
      "v": 113
    },
    {
      "midi": 48,
      "hit": false,
      "t": 222127.7039999999,
      "d": 1276.5960000000196,
      "v": 113
    },
    {
      "midi": 63,
      "hit": false,
      "t": 222553.23599999992,
      "d": 425.5320000000065,
      "v": 115
    },
    {
      "midi": 66,
      "hit": false,
      "t": 222978.76799999992,
      "d": 425.5320000000065,
      "v": 116
    },
    {
      "midi": 69,
      "hit": false,
      "t": 223404.29999999993,
      "d": 425.5320000000065,
      "v": 118
    },
    {
      "midi": 51,
      "hit": false,
      "t": 223404.29999999993,
      "d": 1276.5960000000196,
      "v": 118
    },
    {
      "midi": 66,
      "hit": false,
      "t": 223829.83199999994,
      "d": 425.5320000000065,
      "v": 119
    },
    {
      "midi": 69,
      "hit": false,
      "t": 224255.36399999994,
      "d": 425.5320000000065,
      "v": 121
    },
    {
      "midi": 72,
      "hit": false,
      "t": 224680.89599999995,
      "d": 425.5320000000065,
      "v": 122
    },
    {
      "midi": 54,
      "hit": false,
      "t": 224680.89599999995,
      "d": 1276.5960000000196,
      "v": 122
    },
    {
      "midi": 69,
      "hit": false,
      "t": 225106.42799999996,
      "d": 425.5320000000065,
      "v": 124
    },
    {
      "midi": 72,
      "hit": false,
      "t": 225531.95999999996,
      "d": 425.5320000000065,
      "v": 125
    },
    {
      "midi": 67,
      "hit": false,
      "t": 225957.49199999997,
      "d": 1180.8513000000094,
      "v": 113
    },
    {
      "midi": 55,
      "hit": false,
      "t": 225968.13029999996,
      "d": 1170.213000000018,
      "v": 113
    },
    {
      "midi": 72,
      "hit": false,
      "t": 225968.13029999996,
      "d": 1170.213000000018,
      "v": 113
    },
    {
      "midi": 64,
      "hit": false,
      "t": 225989.40689999997,
      "d": 1148.936400000006,
      "v": 113
    },
    {
      "midi": 52,
      "hit": false,
      "t": 228531.9606,
      "d": 159.574500000017,
      "v": 115
    },
    {
      "midi": 64,
      "hit": false,
      "t": 228563.8755,
      "d": 148.93620000002556,
      "v": 116
    },
    {
      "midi": 65,
      "hit": false,
      "t": 228936.21600000001,
      "d": 127.6595999999845,
      "v": 116
    },
    {
      "midi": 41,
      "hit": false,
      "t": 228978.7692,
      "d": 223.4042999999947,
      "v": 116
    },
    {
      "midi": 66,
      "hit": false,
      "t": 229308.5565,
      "d": 95.7447000000102,
      "v": 116
    },
    {
      "midi": 42,
      "hit": false,
      "t": 229308.5565,
      "d": 393.6171000000031,
      "v": 116
    },
    {
      "midi": 74,
      "hit": false,
      "t": 229712.8119,
      "d": 2361.7025999999896,
      "v": 117
    },
    {
      "midi": 67,
      "hit": false,
      "t": 229712.8119,
      "d": 2382.9792000000016,
      "v": 117
    },
    {
      "midi": 71,
      "hit": false,
      "t": 229723.4502,
      "d": 2329.787699999986,
      "v": 117
    },
    {
      "midi": 43,
      "hit": false,
      "t": 229734.08849999998,
      "d": 2287.2344999999914,
      "v": 117
    },
    {
      "midi": 31,
      "hit": false,
      "t": 230489.4078,
      "d": 1382.978999999992,
      "v": 117
    },
    {
      "midi": 67,
      "hit": false,
      "t": 232766.00400000002,
      "d": 425.5320000000065,
      "v": 119
    },
    {
      "midi": 43,
      "hit": false,
      "t": 232766.00400000002,
      "d": 468.08520000000135,
      "v": 119
    },
    {
      "midi": 69,
      "hit": false,
      "t": 233191.53600000002,
      "d": 351.0639000000083,
      "v": 120
    },
    {
      "midi": 45,
      "hit": false,
      "t": 233191.53600000002,
      "d": 372.34050000002026,
      "v": 120
    },
    {
      "midi": 53,
      "hit": false,
      "t": 233617.06800000003,
      "d": 6382.979999999952,
      "v": 100
    },
    {
      "midi": 60,
      "hit": false,
      "t": 234893.66400000002,
      "d": 5106.383999999962,
      "v": 102
    },
    {
      "midi": 65,
      "hit": false,
      "t": 236170.26,
      "d": 3829.7879999999714,
      "v": 104
    },
    {
      "midi": 72,
      "hit": false,
      "t": 237446.856,
      "d": 1276.5959999999905,
      "v": 106
    },
    {
      "midi": 77,
      "hit": false,
      "t": 238723.452,
      "d": 1276.5959999999905,
      "v": 109
    },
    {
      "midi": 84,
      "hit": false,
      "t": 240000.04799999998,
      "d": 1276.5959999999905,
      "v": 111
    },
    {
      "midi": 48,
      "hit": false,
      "t": 241276.64399999997,
      "d": 5744.682000000001,
      "v": 113
    },
    {
      "midi": 60,
      "hit": false,
      "t": 241276.64399999997,
      "d": 5744.682000000001,
      "v": 113
    },
    {
      "midi": 84,
      "hit": false,
      "t": 241276.64399999997,
      "d": 5744.682000000001,
      "v": 113
    },
    {
      "midi": 88,
      "hit": false,
      "t": 241276.64399999997,
      "d": 5744.682000000001,
      "v": 113
    }
  ]
}